//Event file generated from Sappy .s format.
        #include "MPlayDef.event"
        #define    ChapterIntro6_grp  voicegroup000
        #define    ChapterIntro6_pri  0
        #define    ChapterIntro6_rev  0
        #define    ChapterIntro6_key  0
        // .rodata
        // ChapterIntro6
        ALIGN  4
//****************** Track 0 (Midi-Chn.0) ******************//
ChapterIntro6_0:
        BYTE   KEYSH   ChapterIntro6_key+0
// 000   ----------------------------------------
        BYTE   TEMPO   120/2
        BYTE           VOICE   81
        BYTE           VOL     60
        BYTE           TIE     Cn1   v100
        BYTE   W96
// 001   ----------------------------------------
        BYTE   W90
        BYTE           VOL     50
        BYTE   W06
// 002   ----------------------------------------
        BYTE   W03
        BYTE                   40
        BYTE   W10
        BYTE                   30
        BYTE   W09
        BYTE                   20
        BYTE   W10
        BYTE                   10
        BYTE   W10
        BYTE           EOT
        BYTE   W54
// 003   ----------------------------------------
        BYTE   W96
// 004   ----------------------------------------
        BYTE   W84
ChapterIntro6_0_LOOP:
        BYTE   W12
// 005   ----------------------------------------
        BYTE   W96
// 006   ----------------------------------------
        BYTE   W96
// 007   ----------------------------------------
        BYTE   W96
// 008   ----------------------------------------
        BYTE   W96
// 009   ----------------------------------------
        BYTE   W96
// 010   ----------------------------------------
        BYTE   W96
// 011   ----------------------------------------
        BYTE   W96
// 012   ----------------------------------------
        BYTE   W96
// 013   ----------------------------------------
        BYTE   W96
// 014   ----------------------------------------
        BYTE   W96
// 015   ----------------------------------------
        BYTE   W96
// 016   ----------------------------------------
        BYTE   W96
// 017   ----------------------------------------
        BYTE   W96
// 018   ----------------------------------------
        BYTE   W96
// 019   ----------------------------------------
        BYTE   W96
// 020   ----------------------------------------
        BYTE   W84
        BYTE   GoTo
         POIN2  ChapterIntro6_0_LOOP
        BYTE   FINE
//****************** Track 1 (Midi-Chn.1) ******************//
ChapterIntro6_1:
        BYTE   KEYSH   ChapterIntro6_key+0
// 000   ----------------------------------------
        BYTE           VOL     40
        BYTE           VOICE   127
        BYTE   W96
// 001   ----------------------------------------
        BYTE           N12     Gs4   v100
        BYTE   W12
        BYTE                   Gs4
        BYTE   W12
        BYTE                   Gs4
        BYTE   W12
        BYTE                   Gs4
        BYTE   W12
        BYTE                   Gs4
        BYTE   W12
        BYTE                   Gs4
        BYTE   W36
// 002   ----------------------------------------
        BYTE   W96
// 003   ----------------------------------------
        BYTE   W96
// 004   ----------------------------------------
        BYTE   W84
ChapterIntro6_1_LOOP:
        BYTE   W12
// 005   ----------------------------------------
        BYTE   W96
// 006   ----------------------------------------
        BYTE   W96
// 007   ----------------------------------------
        BYTE   W96
// 008   ----------------------------------------
        BYTE   W96
// 009   ----------------------------------------
        BYTE   W96
// 010   ----------------------------------------
        BYTE   W96
// 011   ----------------------------------------
        BYTE   W96
// 012   ----------------------------------------
        BYTE   W96
// 013   ----------------------------------------
        BYTE   W96
// 014   ----------------------------------------
        BYTE   W96
// 015   ----------------------------------------
        BYTE   W96
// 016   ----------------------------------------
        BYTE   W96
// 017   ----------------------------------------
        BYTE   W96
// 018   ----------------------------------------
        BYTE   W96
// 019   ----------------------------------------
        BYTE   W96
// 020   ----------------------------------------
        BYTE   W84
        BYTE   GoTo
         POIN2  ChapterIntro6_1_LOOP
        BYTE   FINE
//****************** Track 2 (Midi-Chn.2) ******************//
ChapterIntro6_2:
        BYTE   KEYSH   ChapterIntro6_key+0
// 000   ----------------------------------------
        BYTE           VOL     20
        BYTE           VOICE   100
        BYTE   W48
        BYTE           N12     Cn5   v100
        BYTE   W12
        BYTE                   Bn4
        BYTE   W12
        BYTE                   As4
        BYTE   W12
        BYTE                   An4
        BYTE   W12
// 001   ----------------------------------------
        BYTE                   Gs4
        BYTE   W12
        BYTE                   Gn4
        BYTE   W84
// 002   ----------------------------------------
        BYTE   W96
// 003   ----------------------------------------
        BYTE   W96
// 004   ----------------------------------------
        BYTE   W84
ChapterIntro6_2_LOOP:
        BYTE   W12
// 005   ----------------------------------------
        BYTE   W96
// 006   ----------------------------------------
        BYTE   W96
// 007   ----------------------------------------
        BYTE   W96
// 008   ----------------------------------------
        BYTE   W96
// 009   ----------------------------------------
        BYTE   W96
// 010   ----------------------------------------
        BYTE   W96
// 011   ----------------------------------------
        BYTE   W96
// 012   ----------------------------------------
        BYTE   W96
// 013   ----------------------------------------
        BYTE   W96
// 014   ----------------------------------------
        BYTE   W96
// 015   ----------------------------------------
        BYTE   W96
// 016   ----------------------------------------
        BYTE   W96
// 017   ----------------------------------------
        BYTE   W96
// 018   ----------------------------------------
        BYTE   W96
// 019   ----------------------------------------
        BYTE   W96
// 020   ----------------------------------------
        BYTE   W84
        BYTE   GoTo
         POIN2  ChapterIntro6_2_LOOP
        BYTE   FINE
//****************** Track 3 (Midi-Chn.3) ******************//
ChapterIntro6_3:
        BYTE   KEYSH   ChapterIntro6_key+0
// 000   ----------------------------------------
        BYTE           VOICE   118
        BYTE           VOL     80
        BYTE   W96
// 001   ----------------------------------------
        BYTE   W84
        BYTE           N30     Bn2   v100
        BYTE   W12
// 002   ----------------------------------------
        BYTE   W36
        BYTE   W03
        BYTE           VOICE   117
        BYTE           VOL     100
        BYTE           N06     Gn1
        BYTE   W32
        BYTE   W01
        BYTE           VOICE   111
        BYTE           VOL     50
        BYTE           N24     Ds4
        BYTE   W24
// 003   ----------------------------------------
        BYTE   W96
// 004   ----------------------------------------
        BYTE   W84
ChapterIntro6_3_LOOP:
        BYTE   W12
// 005   ----------------------------------------
        BYTE   W96
// 006   ----------------------------------------
        BYTE   W96
// 007   ----------------------------------------
        BYTE   W96
// 008   ----------------------------------------
        BYTE   W96
// 009   ----------------------------------------
        BYTE   W96
// 010   ----------------------------------------
        BYTE   W96
// 011   ----------------------------------------
        BYTE   W96
// 012   ----------------------------------------
        BYTE   W96
// 013   ----------------------------------------
        BYTE   W96
// 014   ----------------------------------------
        BYTE   W96
// 015   ----------------------------------------
        BYTE   W96
// 016   ----------------------------------------
        BYTE   W96
// 017   ----------------------------------------
        BYTE   W96
// 018   ----------------------------------------
        BYTE   W96
// 019   ----------------------------------------
        BYTE   W96
// 020   ----------------------------------------
        BYTE   W84
        BYTE   GoTo
         POIN2  ChapterIntro6_3_LOOP
        BYTE   FINE
//****************** Track 4 (Midi-Chn.4) ******************//
ChapterIntro6_4:
        BYTE   KEYSH   ChapterIntro6_key+0
// 000   ----------------------------------------
        BYTE           VOICE   81
        BYTE           VOL     60
        BYTE   W96
// 001   ----------------------------------------
        BYTE   W96
// 002   ----------------------------------------
        BYTE   W84
        BYTE           N12     Gn2   v100
        BYTE   W12
// 003   ----------------------------------------
ChapterIntro6_4_3:
        BYTE           N12     Gn2   v100
        BYTE   W24
        BYTE                   Fn2
        BYTE   W12
        BYTE                   Gn2
        BYTE   W12
        BYTE                   Gn2
        BYTE   W24
        BYTE                   Fn2
        BYTE   W12
        BYTE                   Gn2
        BYTE   W12
        BYTE   PEND
// 004   ----------------------------------------
        BYTE                   Gn2
        BYTE   W24
        BYTE                   Fn2
        BYTE   W12
        BYTE                   Gn2
        BYTE   W12
        BYTE                   Gn2
        BYTE   W24
        BYTE                   As2
        BYTE   W12
ChapterIntro6_4_LOOP:
        BYTE           N12     Ds2   v100
        BYTE   W12
// 005   ----------------------------------------
ChapterIntro6_4_5:
        BYTE           N12     Ds2   v100
        BYTE   W24
        BYTE                   Dn2
        BYTE   W12
        BYTE                   Ds2
        BYTE   W12
        BYTE                   Ds2
        BYTE   W24
        BYTE                   Dn2
        BYTE   W12
        BYTE                   Ds2
        BYTE   W12
        BYTE   PEND
// 006   ----------------------------------------
        BYTE                   Ds2
        BYTE   W24
        BYTE                   Dn2
        BYTE   W12
        BYTE                   Ds2
        BYTE   W12
        BYTE                   Ds2
        BYTE   W24
        BYTE                   Bn2
        BYTE   W12
        BYTE                   Cn3
        BYTE   W12
// 007   ----------------------------------------
ChapterIntro6_4_7:
        BYTE           N12     Cn3   v100
        BYTE   W24
        BYTE                   Bn2
        BYTE   W12
        BYTE                   Cn3
        BYTE   W12
        BYTE                   Cn3
        BYTE   W24
        BYTE                   Bn2
        BYTE   W12
        BYTE                   Cn3
        BYTE   W12
        BYTE   PEND
// 008   ----------------------------------------
ChapterIntro6_4_8:
        BYTE           N12     Cn3   v100
        BYTE   W24
        BYTE                   Bn2
        BYTE   W12
        BYTE                   Cn3
        BYTE   W12
        BYTE                   Cn3
        BYTE   W24
        BYTE                   Cs3
        BYTE   W12
        BYTE                   Dn3
        BYTE   W12
        BYTE   PEND
// 009   ----------------------------------------
ChapterIntro6_4_9:
        BYTE           N12     Dn3   v100
        BYTE   W24
        BYTE                   Cs3
        BYTE   W12
        BYTE                   Dn3
        BYTE   W12
        BYTE                   Dn3
        BYTE   W24
        BYTE                   Cs3
        BYTE   W12
        BYTE                   Dn3
        BYTE   W12
        BYTE   PEND
// 010   ----------------------------------------
ChapterIntro6_4_10:
        BYTE           N12     Dn3   v100
        BYTE   W24
        BYTE                   Cs3
        BYTE   W12
        BYTE                   Fn3
        BYTE   W12
        BYTE           N24     Fs3
        BYTE   W24
        BYTE           N12     An2
        BYTE   W12
        BYTE                   Gn2
        BYTE   W12
        BYTE   PEND
// 011   ----------------------------------------
        BYTE   PATT
         POIN2  ChapterIntro6_4_3
// 012   ----------------------------------------
        BYTE           N12     Gn2   v100
        BYTE   W24
        BYTE                   Fn2
        BYTE   W12
        BYTE                   Gn2
        BYTE   W12
        BYTE                   Gn2
        BYTE   W24
        BYTE                   As2
        BYTE   W12
        BYTE                   Ds2
        BYTE   W12
// 013   ----------------------------------------
        BYTE   PATT
         POIN2  ChapterIntro6_4_5
// 014   ----------------------------------------
        BYTE           N12     Ds2   v100
        BYTE   W24
        BYTE                   Dn2
        BYTE   W12
        BYTE                   Ds2
        BYTE   W12
        BYTE                   Ds2
        BYTE   W24
        BYTE                   Fn2
        BYTE   W12
        BYTE                   Cn3
        BYTE   W12
// 015   ----------------------------------------
        BYTE   PATT
         POIN2  ChapterIntro6_4_7
// 016   ----------------------------------------
        BYTE   PATT
         POIN2  ChapterIntro6_4_8
// 017   ----------------------------------------
        BYTE   PATT
         POIN2  ChapterIntro6_4_9
// 018   ----------------------------------------
        BYTE   PATT
         POIN2  ChapterIntro6_4_10
// 019   ----------------------------------------
        BYTE   PATT
         POIN2  ChapterIntro6_4_3
// 020   ----------------------------------------
        BYTE           N12     Gn2   v100
        BYTE   W24
        BYTE                   Fn2
        BYTE   W12
        BYTE                   Gn2
        BYTE   W12
        BYTE                   Gn2
        BYTE   W24
        BYTE                   As2
        BYTE   W12
        BYTE   GoTo
         POIN2  ChapterIntro6_4_LOOP
        BYTE   FINE
//****************** Track 5 (Midi-Chn.5) ******************//
ChapterIntro6_5:
        BYTE   KEYSH   ChapterIntro6_key+0
// 000   ----------------------------------------
        BYTE           VOICE   127
        BYTE           VOL     100
        BYTE   W96
// 001   ----------------------------------------
        BYTE   W96
// 002   ----------------------------------------
        BYTE   W96
// 003   ----------------------------------------
ChapterIntro6_5_3:
        BYTE   W12
        BYTE           N12     Cn3   v100
        BYTE   W48
        BYTE                   Cn3
        BYTE   W36
        BYTE   PEND
// 004   ----------------------------------------
        BYTE   W12
        BYTE                   Cn3
        BYTE   W48
        BYTE                   Cn3
        BYTE   W24
ChapterIntro6_5_LOOP:
        BYTE   W12
// 005   ----------------------------------------
        BYTE   PATT
         POIN2  ChapterIntro6_5_3
// 006   ----------------------------------------
        BYTE   PATT
         POIN2  ChapterIntro6_5_3
// 007   ----------------------------------------
        BYTE   PATT
         POIN2  ChapterIntro6_5_3
// 008   ----------------------------------------
        BYTE   PATT
         POIN2  ChapterIntro6_5_3
// 009   ----------------------------------------
        BYTE   PATT
         POIN2  ChapterIntro6_5_3
// 010   ----------------------------------------
        BYTE   PATT
         POIN2  ChapterIntro6_5_3
// 011   ----------------------------------------
        BYTE   PATT
         POIN2  ChapterIntro6_5_3
// 012   ----------------------------------------
        BYTE   PATT
         POIN2  ChapterIntro6_5_3
// 013   ----------------------------------------
        BYTE   PATT
         POIN2  ChapterIntro6_5_3
// 014   ----------------------------------------
        BYTE   PATT
         POIN2  ChapterIntro6_5_3
// 015   ----------------------------------------
        BYTE   PATT
         POIN2  ChapterIntro6_5_3
// 016   ----------------------------------------
        BYTE   PATT
         POIN2  ChapterIntro6_5_3
// 017   ----------------------------------------
        BYTE   PATT
         POIN2  ChapterIntro6_5_3
// 018   ----------------------------------------
        BYTE   PATT
         POIN2  ChapterIntro6_5_3
// 019   ----------------------------------------
        BYTE   PATT
         POIN2  ChapterIntro6_5_3
// 020   ----------------------------------------
        BYTE   W12
        BYTE           N12     Cn3   v100
        BYTE   W48
        BYTE                   Cn3
        BYTE   W24
        BYTE   GoTo
         POIN2  ChapterIntro6_5_LOOP
        BYTE   FINE
//****************** Track 6 (Midi-Chn.6) ******************//
ChapterIntro6_6:
        BYTE   KEYSH   ChapterIntro6_key+0
// 000   ----------------------------------------
        BYTE           VOICE   127
        BYTE           VOL     60
        BYTE   W96
// 001   ----------------------------------------
        BYTE   W96
// 002   ----------------------------------------
        BYTE   W96
// 003   ----------------------------------------
ChapterIntro6_6_3:
        BYTE   W60
        BYTE           N12     Ds4   v100
        BYTE   W24
        BYTE                   Ds4
        BYTE   W12
        BYTE   PEND
// 004   ----------------------------------------
        BYTE   W12
        BYTE                   Ds4
        BYTE   W12
        BYTE                   Ds4
        BYTE   W12
        BYTE                   Ds4
        BYTE   W24
        BYTE                   Ds4
        BYTE   W24
ChapterIntro6_6_LOOP:
        BYTE   W12
// 005   ----------------------------------------
        BYTE   PATT
         POIN2  ChapterIntro6_6_3
// 006   ----------------------------------------
ChapterIntro6_6_6:
        BYTE   W12
        BYTE           N12     Ds4   v100
        BYTE   W12
        BYTE                   Ds4
        BYTE   W12
        BYTE                   Ds4
        BYTE   W24
        BYTE                   Ds4
        BYTE   W36
        BYTE   PEND
// 007   ----------------------------------------
        BYTE   PATT
         POIN2  ChapterIntro6_6_3
// 008   ----------------------------------------
        BYTE   PATT
         POIN2  ChapterIntro6_6_6
// 009   ----------------------------------------
        BYTE   PATT
         POIN2  ChapterIntro6_6_3
// 010   ----------------------------------------
        BYTE   PATT
         POIN2  ChapterIntro6_6_6
// 011   ----------------------------------------
        BYTE   PATT
         POIN2  ChapterIntro6_6_3
// 012   ----------------------------------------
        BYTE   PATT
         POIN2  ChapterIntro6_6_6
// 013   ----------------------------------------
        BYTE   PATT
         POIN2  ChapterIntro6_6_3
// 014   ----------------------------------------
        BYTE   PATT
         POIN2  ChapterIntro6_6_6
// 015   ----------------------------------------
        BYTE   PATT
         POIN2  ChapterIntro6_6_3
// 016   ----------------------------------------
        BYTE   PATT
         POIN2  ChapterIntro6_6_6
// 017   ----------------------------------------
        BYTE   PATT
         POIN2  ChapterIntro6_6_3
// 018   ----------------------------------------
        BYTE   PATT
         POIN2  ChapterIntro6_6_6
// 019   ----------------------------------------
        BYTE   PATT
         POIN2  ChapterIntro6_6_3
// 020   ----------------------------------------
        BYTE   W12
        BYTE           N12     Ds4   v100
        BYTE   W12
        BYTE                   Ds4
        BYTE   W12
        BYTE                   Ds4
        BYTE   W24
        BYTE                   Ds4
        BYTE   W24
        BYTE   GoTo
         POIN2  ChapterIntro6_6_LOOP
        BYTE   FINE
//****************** Track 7 (Midi-Chn.7) ******************//
ChapterIntro6_7:
        BYTE   KEYSH   ChapterIntro6_key+0
// 000   ----------------------------------------
        BYTE           VOICE   91
        BYTE           VOL     30
        BYTE           PAN     c_v+63
        BYTE   W96
// 001   ----------------------------------------
        BYTE   W96
// 002   ----------------------------------------
        BYTE   W42
        BYTE           TIE     As3   v100
        BYTE   W01
        BYTE           PAN     c_v+61
        BYTE   W01
        BYTE                   c_v+56
        BYTE   W01
        BYTE                   c_v+51
        BYTE   W01
        BYTE                   c_v+49
        BYTE   W04
        BYTE                   c_v+46
        BYTE   W01
        BYTE                   c_v+41
        BYTE   W01
        BYTE                   c_v+36
        BYTE   W01
        BYTE                   c_v+31
        BYTE   W01
        BYTE                   c_v+26
        BYTE   W01
        BYTE                   c_v+21
        BYTE   W01
        BYTE                   c_v+16
        BYTE   W01
        BYTE                   c_v+11
        BYTE   W01
        BYTE                   c_v+6
        BYTE   W01
        BYTE                   c_v+1
        BYTE   W01
        BYTE                   c_v+0
        BYTE   W36
// 003   ----------------------------------------
        BYTE   W96
// 004   ----------------------------------------
        BYTE   W60
        BYTE           EOT
        BYTE   W24
ChapterIntro6_7_LOOP:
        BYTE   W12
// 005   ----------------------------------------
        BYTE   W96
// 006   ----------------------------------------
        BYTE   W96
// 007   ----------------------------------------
        BYTE   W96
// 008   ----------------------------------------
        BYTE   W96
// 009   ----------------------------------------
        BYTE   W96
// 010   ----------------------------------------
        BYTE   W96
// 011   ----------------------------------------
        BYTE   W96
// 012   ----------------------------------------
        BYTE   W96
// 013   ----------------------------------------
        BYTE   W96
// 014   ----------------------------------------
        BYTE   W96
// 015   ----------------------------------------
        BYTE   W96
// 016   ----------------------------------------
        BYTE   W96
// 017   ----------------------------------------
        BYTE   W96
// 018   ----------------------------------------
        BYTE   W96
// 019   ----------------------------------------
        BYTE   W96
// 020   ----------------------------------------
        BYTE   W84
        BYTE   GoTo
         POIN2  ChapterIntro6_7_LOOP
        BYTE   FINE
//****************** Track 8 (Midi-Chn.8) ******************//
ChapterIntro6_8:
        BYTE   KEYSH   ChapterIntro6_key+0
// 000   ----------------------------------------
        BYTE           VOICE   105
        BYTE           VOL     0
        BYTE   W96
// 001   ----------------------------------------
        BYTE   W96
// 002   ----------------------------------------
        BYTE   W84
        BYTE           TIE     Gn1   v100
        BYTE   W12
// 003   ----------------------------------------
        BYTE   W07
        BYTE           VOL     10
        BYTE   W14
        BYTE                   20
        BYTE   W19
        BYTE                   30
        BYTE   W20
        BYTE                   40
        BYTE   W19
        BYTE                   50
        BYTE   W17
// 004   ----------------------------------------
        BYTE   W02
        BYTE                   60
        BYTE   W68
        BYTE   W02
        BYTE           EOT
        BYTE           N12     As1
        BYTE   W12
ChapterIntro6_8_LOOP:
        BYTE           TIE     Ds1   v100
        BYTE   W12
// 005   ----------------------------------------
        BYTE   W96
// 006   ----------------------------------------
ChapterIntro6_8_6:
        BYTE   W72
        BYTE           EOT     Ds1
        BYTE           N12     Gn1   v100
        BYTE   W12
        BYTE           TIE     Cn2
        BYTE   W12
        BYTE   PEND
// 007   ----------------------------------------
        BYTE   W96
// 008   ----------------------------------------
ChapterIntro6_8_8:
        BYTE   W72
        BYTE           EOT     Cn2
        BYTE           N12     Cs2   v100
        BYTE   W12
        BYTE           TIE     Dn2
        BYTE   W12
        BYTE   PEND
// 009   ----------------------------------------
        BYTE   W96
// 010   ----------------------------------------
ChapterIntro6_8_10:
        BYTE   W72
        BYTE           EOT     Dn2
        BYTE           N12     An1   v100
        BYTE   W12
        BYTE           TIE     Gn1
        BYTE   W12
        BYTE   PEND
// 011   ----------------------------------------
        BYTE   W96
// 012   ----------------------------------------
        BYTE   W72
        BYTE           EOT
        BYTE           N12     As1
        BYTE   W12
        BYTE           TIE     Ds1
        BYTE   W12
// 013   ----------------------------------------
        BYTE   W96
// 014   ----------------------------------------
        BYTE   PATT
         POIN2  ChapterIntro6_8_6
// 015   ----------------------------------------
        BYTE   W96
// 016   ----------------------------------------
        BYTE   PATT
         POIN2  ChapterIntro6_8_8
// 017   ----------------------------------------
        BYTE   W96
// 018   ----------------------------------------
        BYTE   PATT
         POIN2  ChapterIntro6_8_10
// 019   ----------------------------------------
        BYTE   W96
// 020   ----------------------------------------
        BYTE   W72
        BYTE           EOT     Gn1
        BYTE           N12     As1   v100
        BYTE   W12
        BYTE   GoTo
         POIN2  ChapterIntro6_8_LOOP
        BYTE   FINE
//***************** Track 9 (Midi-Chn.10) ******************//
ChapterIntro6_9:
        BYTE   KEYSH   ChapterIntro6_key+0
// 000   ----------------------------------------
        BYTE   W28
        BYTE           VOICE   74
        BYTE   W04
        BYTE           VOL     60
        BYTE   W64
// 001   ----------------------------------------
        BYTE   W96
// 002   ----------------------------------------
        BYTE   W96
// 003   ----------------------------------------
        BYTE   W96
// 004   ----------------------------------------
        BYTE   W84
ChapterIntro6_9_LOOP:
        BYTE   W12
// 005   ----------------------------------------
        BYTE   W96
// 006   ----------------------------------------
        BYTE   W96
// 007   ----------------------------------------
        BYTE   W96
// 008   ----------------------------------------
        BYTE   W96
// 009   ----------------------------------------
        BYTE   W96
// 010   ----------------------------------------
        BYTE   W84
        BYTE           N24     Gn4   v100
        BYTE   W12
// 011   ----------------------------------------
        BYTE   W12
        BYTE           N12
        BYTE   W12
        BYTE                   Fs4
        BYTE   W12
        BYTE           N24     Gn4
        BYTE   W24
        BYTE           N12
        BYTE   W12
        BYTE                   Fs4
        BYTE   W12
        BYTE           N24     Gn4
        BYTE   W12
// 012   ----------------------------------------
        BYTE   W12
        BYTE           N12
        BYTE   W12
        BYTE                   Fs4
        BYTE   W12
        BYTE                   Gn4
        BYTE   W12
        BYTE                   As4
        BYTE   W12
        BYTE                   Gn4
        BYTE   W12
        BYTE                   Fs4
        BYTE   W12
        BYTE           N24     Ds4
        BYTE   W12
// 013   ----------------------------------------
        BYTE   W12
        BYTE           N12
        BYTE   W12
        BYTE                   Dn4
        BYTE   W12
        BYTE           N24     Ds4
        BYTE   W24
        BYTE           N12
        BYTE   W12
        BYTE                   Dn4
        BYTE   W12
        BYTE           N24     Ds4
        BYTE   W12
// 014   ----------------------------------------
        BYTE   W12
        BYTE           N12
        BYTE   W12
        BYTE                   Dn4
        BYTE   W12
        BYTE                   Ds4
        BYTE   W12
        BYTE                   Fs4
        BYTE   W12
        BYTE                   Ds4
        BYTE   W12
        BYTE                   Dn4
        BYTE   W12
        BYTE           N24     Cn4
        BYTE   W12
// 015   ----------------------------------------
        BYTE   W12
        BYTE           N12
        BYTE   W12
        BYTE                   Bn3
        BYTE   W12
        BYTE           N24     Cn4
        BYTE   W24
        BYTE           N12
        BYTE   W12
        BYTE                   Bn3
        BYTE   W12
        BYTE           N24     Cn4
        BYTE   W12
// 016   ----------------------------------------
        BYTE   W12
        BYTE           N12
        BYTE   W12
        BYTE                   Bn3
        BYTE   W12
        BYTE                   Cn4
        BYTE   W12
        BYTE                   Ds4
        BYTE   W12
        BYTE                   Cn4
        BYTE   W12
        BYTE                   Cs4
        BYTE   W12
        BYTE           N24     Dn4
        BYTE   W12
// 017   ----------------------------------------
        BYTE   W12
        BYTE           N12
        BYTE   W12
        BYTE                   Cs4
        BYTE   W12
        BYTE           N24     Dn4
        BYTE   W24
        BYTE           N12
        BYTE   W12
        BYTE                   Cs4
        BYTE   W12
        BYTE           N24     Dn4
        BYTE   W12
// 018   ----------------------------------------
        BYTE   W12
        BYTE           N12
        BYTE   W12
        BYTE                   Cs4
        BYTE   W12
        BYTE                   Dn4
        BYTE   W12
        BYTE           N24     Fs4
        BYTE   W48
// 019   ----------------------------------------
        BYTE   W96
// 020   ----------------------------------------
        BYTE   W84
        BYTE   GoTo
         POIN2  ChapterIntro6_9_LOOP
        BYTE   FINE
//********************** End of Song ***********************//
        ALIGN  4
ChapterIntro6:
        BYTE   10                      // Num Tracks
        BYTE   0                       // Unknown
        BYTE   ChapterIntro6_pri       // Priority
        BYTE   ChapterIntro6_rev       // Reverb
        POIN2   ChapterIntro6_grp      
        POIN2   ChapterIntro6_0
        POIN2   ChapterIntro6_1
        POIN2   ChapterIntro6_2
        POIN2   ChapterIntro6_3
        POIN2   ChapterIntro6_4
        POIN2   ChapterIntro6_5
        POIN2   ChapterIntro6_6
        POIN2   ChapterIntro6_7
        POIN2   ChapterIntro6_8
        POIN2   ChapterIntro6_9
        
