//Event file generated from Sappy .s format.
	#include "MPlayDef.event"

	#define	AeteriaShop_grp  voicegroup000
	#define	AeteriaShop_pri  0
	#define	AeteriaShop_rev  0x94
	#define	AeteriaShop_mvl  30
	#define	AeteriaShop_key  0
	#define	AeteriaShop_tbs  1
	#define	AeteriaShop_exg  0
	#define	AeteriaShop_cmp  1

	// .rodata
	//	AeteriaShop
	ALIGN 4

//**************** Track 1 (Midi-Chn.1) ****************//

AeteriaShop_1:
	BYTE	KEYSH   AeteriaShop_key+0
// 000   ----------------------------------------
	BYTE	TEMPO   100*AeteriaShop_tbs/2
	BYTE		VOICE   33
	BYTE		MODT    0
	BYTE		LFOS    44
	BYTE		VOL     108*AeteriaShop_mvl/mxv
	BYTE		PAN     c_v+0
	BYTE	W72
AeteriaShop_1_B1:
	BYTE		N04     An1   v127
	BYTE	W12
	BYTE		N04   
	BYTE	W12
// 001   ----------------------------------------
	BYTE		N12     En2 
	BYTE	W12
	BYTE		        An1 
	BYTE	W12
	BYTE		        Dn2 
	BYTE	W12
	BYTE		        En2 
	BYTE	W12
	BYTE		N04     An1 
	BYTE	W12
	BYTE		N04   
	BYTE	W12
	BYTE		N12     En2 
	BYTE	W12
	BYTE		        An1 
	BYTE	W12
// 002   ----------------------------------------
	BYTE		        Dn2 
	BYTE	W12
	BYTE		        En2 
	BYTE	W12
	BYTE		N04     An1 
	BYTE	W12
	BYTE		N04   
	BYTE	W12
	BYTE		N12     En2 
	BYTE	W12
	BYTE		        An1 
	BYTE	W12
	BYTE		        Dn2 
	BYTE	W12
	BYTE		        En2 
	BYTE	W12
// 003   ----------------------------------------
	BYTE		N04     An1 
	BYTE	W12
	BYTE		N04   
	BYTE	W12
	BYTE		N12     En2 
	BYTE	W12
	BYTE		        An1 
	BYTE	W12
	BYTE		        Dn2 
	BYTE	W12
	BYTE		        En2 
	BYTE	W12
	BYTE		N04     Gn1 
	BYTE	W12
	BYTE		N04   
	BYTE	W12
// 004   ----------------------------------------
	BYTE		N12     Dn2 
	BYTE	W12
	BYTE		        Gn1 
	BYTE	W12
	BYTE		        Cs2 
	BYTE	W12
	BYTE		        Dn2 
	BYTE	W12
	BYTE		N04     Fs1 
	BYTE	W12
	BYTE		N04   
	BYTE	W12
	BYTE		N12     Cs2 
	BYTE	W12
	BYTE		        An1 
	BYTE	W12
// 005   ----------------------------------------
	BYTE		        Bn1 
	BYTE	W12
	BYTE		        Cs2 
	BYTE	W12
	BYTE		N04     En1 
	BYTE	W12
	BYTE		N04   
	BYTE	W12
	BYTE		N12     Gs1 
	BYTE	W12
	BYTE		        An1 
	BYTE	W12
	BYTE		        Bn1 
	BYTE	W12
	BYTE		        Gs1 
	BYTE	W12
// 006   ----------------------------------------
	BYTE		N04     An1 
	BYTE	W12
	BYTE		N04   
	BYTE	W12
	BYTE		N11     En2 
	BYTE	W12
	BYTE		        Dn2 
	BYTE	W12
	BYTE		        Cs2 
	BYTE	W12
	BYTE		        An1 
	BYTE	W12
	BYTE		N04     Fs1 
	BYTE	W12
	BYTE		N04   
	BYTE	W12
// 007   ----------------------------------------
	BYTE		N12     Cs2 
	BYTE	W12
	BYTE		        An1 
	BYTE	W12
	BYTE		        Bn1 
	BYTE	W12
	BYTE		        Cs2 
	BYTE	W12
	BYTE		N04     Gn1 
	BYTE	W12
	BYTE		N04   
	BYTE	W12
	BYTE		N12     Dn2 
	BYTE	W12
	BYTE		        Gn1 
	BYTE	W12
// 008   ----------------------------------------
	BYTE		        Cs2 
	BYTE	W12
	BYTE		        Dn2 
	BYTE	W12
	BYTE		N04     Gs1 
	BYTE	W12
	BYTE		N04   
	BYTE	W12
	BYTE		N12     Dn2 
	BYTE	W12
	BYTE		        Cs2 
	BYTE	W12
	BYTE		        Bn1 
	BYTE	W12
	BYTE		        Gs1 
	BYTE	W12
// 009   ----------------------------------------
	BYTE		N04     An1 
	BYTE	W12
	BYTE		        En1 
	BYTE	W12
	BYTE		N24     Cs2 
	BYTE	W24
	BYTE		N20     Bn1 
	BYTE	W24
	BYTE		N42     An1 
	BYTE	W24
// 010   ----------------------------------------
	BYTE	W24
	BYTE		N20     Fs1 
	BYTE	W24
	BYTE		N42     En1 
	BYTE	W48
// 011   ----------------------------------------
	BYTE		N20     Gs1 
	BYTE	W24
	BYTE		N42     An1 
	BYTE	W48
	BYTE		N20     Cs2 
	BYTE	W24
// 012   ----------------------------------------
	BYTE		N42     Bn1 
	BYTE	W48
	BYTE		N20     Gn1 
	BYTE	W24
	BYTE		N42     Fs1 
	BYTE	W24
// 013   ----------------------------------------
	BYTE	W24
	BYTE		N20     An1 
	BYTE	W24
	BYTE		N42     Gs1 
	BYTE	W48
// 014   ----------------------------------------
	BYTE		N20     Bn1 
	BYTE	W24
	BYTE		        Cs2 
	BYTE	W24
	BYTE		        Bn1 
	BYTE	W24
	BYTE		        An1 
	BYTE	W24
// 015   ----------------------------------------
	BYTE		N42     Fs1 
	BYTE	W48
	BYTE		N20     As1 
	BYTE	W24
	BYTE		N04     Fs1 
	BYTE	W12
	BYTE		N04   
	BYTE	W12
// 016   ----------------------------------------
	BYTE		N12     An1 
	BYTE	W12
	BYTE		        Fs1 
	BYTE	W12
	BYTE		        Cs2 
	BYTE	W12
	BYTE		        Fs2 
	BYTE	W12
	BYTE		N04     En1 
	BYTE	W12
	BYTE		N04   
	BYTE	W12
	BYTE		N12     Gs1 
	BYTE	W12
	BYTE		        An1 
	BYTE	W12
// 017   ----------------------------------------
	BYTE		        Bn1 
	BYTE	W12
	BYTE		        Gs1 
	BYTE	W12
	BYTE		N04     An1 
	BYTE	W12
	BYTE		N04   
	BYTE	W12
	BYTE		N12     Dn2 
	BYTE	W12
	BYTE		        Cs2 
	BYTE	W12
	BYTE		        Bn1 
	BYTE	W12
	BYTE		        An1 
	BYTE	W12
// 018   ----------------------------------------
	BYTE		N04     Gn1 
	BYTE	W12
	BYTE		N04   
	BYTE	W12
	BYTE		N12     Bn1 
	BYTE	W12
	BYTE		        Cs2 
	BYTE	W12
	BYTE		        Dn2 
	BYTE	W12
	BYTE		        Bn1 
	BYTE	W12
	BYTE		N04     An1 
	BYTE	W12
	BYTE		        Gs1 
	BYTE	W12
// 019   ----------------------------------------
	BYTE		N12     Fs1 
	BYTE	W12
	BYTE		        Gs1 
	BYTE	W12
	BYTE		        An1 
	BYTE	W12
	BYTE		        Fs2 
	BYTE	W12
	BYTE		N04     Dn2 
	BYTE	W12
	BYTE		        Cs2 
	BYTE	W12
	BYTE		N12     Bn1 
	BYTE	W12
	BYTE		        An1 
	BYTE	W12
// 020   ----------------------------------------
	BYTE		        Bn1 
	BYTE	W12
	BYTE		        Dn2 
	BYTE	W12
	BYTE		N42     Cs2 
	BYTE	W48
	BYTE		N20     Bn1 
	BYTE	W24
// 021   ----------------------------------------
	BYTE		N66     As1 
	BYTE	W96
// 022   ----------------------------------------
	BYTE	W96
// 023   ----------------------------------------
	BYTE	W96
// 024   ----------------------------------------
	BYTE	W96
// 025   ----------------------------------------
	BYTE	W96
// 026   ----------------------------------------
	BYTE	W96
// 027   ----------------------------------------
	BYTE	W72
	BYTE		        An1 
	BYTE	W24
// 028   ----------------------------------------
	BYTE	W48
	BYTE		        En1 
	BYTE	W48
// 029   ----------------------------------------
	BYTE	W24
	BYTE		        Fs1 
	BYTE	W72
// 030   ----------------------------------------
	BYTE		        Gn1 
	BYTE	W72
	BYTE		        An1 
	BYTE	W24
// 031   ----------------------------------------
	BYTE	W48
	BYTE		        Bn1 
	BYTE	W48
// 032   ----------------------------------------
	BYTE	W24
	BYTE		        Cs2 
	BYTE	W72
// 033   ----------------------------------------
	BYTE		N20     En2 
	BYTE	W24
	BYTE		        En1 
	BYTE	W24
	BYTE		N20   
	BYTE	W24
	BYTE		        En2 
	BYTE	W24
// 034   ----------------------------------------
	BYTE		        En1 
	BYTE	W24
	BYTE		N20   
	BYTE	W24
	BYTE		        En2 
	BYTE	W24
	BYTE		        En1 
	BYTE	W24
// 035   ----------------------------------------
	BYTE		N20   
	BYTE	W24
	BYTE	TEMPO   100*AeteriaShop_tbs/2
	BYTE	W72
	BYTE	GoTo
	 POIN2	AeteriaShop_1_B1
AeteriaShop_1_B2:
// 036   ----------------------------------------
	BYTE	FINE

//**************** Track 2 (Midi-Chn.2) ****************//

AeteriaShop_2:
	BYTE	KEYSH   AeteriaShop_key+0
// 000   ----------------------------------------
	BYTE		VOICE   4
	BYTE		MODT    0
	BYTE		LFOS    44
	BYTE		VOL     108*AeteriaShop_mvl/mxv
	BYTE		PAN     c_v+32
	BYTE	W72
AeteriaShop_2_B1:
	BYTE		N04     An5   v056
	BYTE	W06
	BYTE		        En5 
	BYTE	W06
	BYTE		N04   
	BYTE	W06
	BYTE		        An5 
	BYTE	W06
// 001   ----------------------------------------
	BYTE		        En5 
	BYTE	W06
	BYTE		N04   
	BYTE	W06
	BYTE		        An5 
	BYTE	W06
	BYTE		        En5 
	BYTE	W06
	BYTE		        An5 
	BYTE	W06
	BYTE		        En5 
	BYTE	W06
	BYTE		N04   
	BYTE	W06
	BYTE		        An5 
	BYTE	W06
	BYTE		N04   
	BYTE	W06
	BYTE		        En5 
	BYTE	W06
	BYTE		N04   
	BYTE	W06
	BYTE		        An5 
	BYTE	W06
	BYTE		        En5 
	BYTE	W06
	BYTE		N04   
	BYTE	W06
	BYTE		        An5 
	BYTE	W06
	BYTE		        En5 
	BYTE	W06
// 002   ----------------------------------------
	BYTE		        An5 
	BYTE	W06
	BYTE		        En5 
	BYTE	W06
	BYTE		N04   
	BYTE	W06
	BYTE		        An5 
	BYTE	W06
	BYTE		N04   
	BYTE	W06
	BYTE		        En5 
	BYTE	W06
	BYTE		N04   
	BYTE	W06
	BYTE		        An5 
	BYTE	W06
	BYTE		        En5 
	BYTE	W06
	BYTE		N04   
	BYTE	W06
	BYTE		        An5 
	BYTE	W06
	BYTE		        En5 
	BYTE	W06
	BYTE		        An5 
	BYTE	W06
	BYTE		        En5 
	BYTE	W06
	BYTE		N04   
	BYTE	W06
	BYTE		        An5 
	BYTE	W06
// 003   ----------------------------------------
	BYTE		N04   
	BYTE	W06
	BYTE		        En5 
	BYTE	W06
	BYTE		N04   
	BYTE	W06
	BYTE		        An5 
	BYTE	W06
	BYTE		        En5 
	BYTE	W06
	BYTE		N04   
	BYTE	W06
	BYTE		        An5 
	BYTE	W06
	BYTE		        En5 
	BYTE	W06
	BYTE		        An5 
	BYTE	W06
	BYTE		        En5 
	BYTE	W06
	BYTE		N04   
	BYTE	W06
	BYTE		        An5 
	BYTE	W06
	BYTE		        Gn5 
	BYTE	W06
	BYTE		        Dn5 
	BYTE	W06
	BYTE		N04   
	BYTE	W06
	BYTE		        Gn5 
	BYTE	W06
// 004   ----------------------------------------
	BYTE		        Dn5 
	BYTE	W06
	BYTE		N04   
	BYTE	W06
	BYTE		        Gn5 
	BYTE	W06
	BYTE		        Dn5 
	BYTE	W06
	BYTE		        Gn5 
	BYTE	W06
	BYTE		        Dn5 
	BYTE	W06
	BYTE		N04   
	BYTE	W06
	BYTE		        Gn5 
	BYTE	W06
	BYTE		        Fs5 
	BYTE	W06
	BYTE		        Cs5 
	BYTE	W06
	BYTE		N04   
	BYTE	W06
	BYTE		        Fs5 
	BYTE	W06
	BYTE		        Cs5 
	BYTE	W06
	BYTE		N04   
	BYTE	W06
	BYTE		        Fs5 
	BYTE	W06
	BYTE		        Cs5 
	BYTE	W06
// 005   ----------------------------------------
	BYTE		        Fs5 
	BYTE	W06
	BYTE		        Cs5 
	BYTE	W06
	BYTE		N04   
	BYTE	W06
	BYTE		        Fs5 
	BYTE	W06
	BYTE		        En5 
	BYTE	W06
	BYTE		        Bn4 
	BYTE	W06
	BYTE		N04   
	BYTE	W06
	BYTE		        En5 
	BYTE	W06
	BYTE		        Bn4 
	BYTE	W06
	BYTE		N04   
	BYTE	W06
	BYTE		        En5 
	BYTE	W06
	BYTE		        Bn4 
	BYTE	W06
	BYTE		N05     En5 
	BYTE	W06
	BYTE		N04     Bn4 
	BYTE	W06
	BYTE		N04   
	BYTE	W06
	BYTE		        En5 
	BYTE	W06
// 006   ----------------------------------------
	BYTE		        An5 
	BYTE	W06
	BYTE		        En5 
	BYTE	W06
	BYTE		N04   
	BYTE	W06
	BYTE		        An5 
	BYTE	W06
	BYTE		        En5 
	BYTE	W06
	BYTE		N04   
	BYTE	W06
	BYTE		        An5 
	BYTE	W06
	BYTE		        En5 
	BYTE	W06
	BYTE		        An5 
	BYTE	W06
	BYTE		        En5 
	BYTE	W06
	BYTE		N04   
	BYTE	W06
	BYTE		        An5 
	BYTE	W06
	BYTE		        Fs5 
	BYTE	W06
	BYTE		        Cs5 
	BYTE	W06
	BYTE		N04   
	BYTE	W06
	BYTE		        Fs5 
	BYTE	W06
// 007   ----------------------------------------
	BYTE		        Cs5 
	BYTE	W06
	BYTE		N04   
	BYTE	W06
	BYTE		        Fs5 
	BYTE	W06
	BYTE		        Cs5 
	BYTE	W06
	BYTE		        Fs5 
	BYTE	W06
	BYTE		        Cs5 
	BYTE	W06
	BYTE		N04   
	BYTE	W06
	BYTE		        Fs5 
	BYTE	W06
	BYTE		        Gn5 
	BYTE	W06
	BYTE		        Dn5 
	BYTE	W06
	BYTE		N04   
	BYTE	W06
	BYTE		        Gn5 
	BYTE	W06
	BYTE		        Dn5 
	BYTE	W06
	BYTE		N04   
	BYTE	W06
	BYTE		        Gn5 
	BYTE	W06
	BYTE		        Dn5 
	BYTE	W06
// 008   ----------------------------------------
	BYTE		        Gn5 
	BYTE	W06
	BYTE		        Dn5 
	BYTE	W06
	BYTE		N04   
	BYTE	W06
	BYTE		        Gn5 
	BYTE	W06
	BYTE		        En5 
	BYTE	W06
	BYTE		        Bn4 
	BYTE	W06
	BYTE		N04   
	BYTE	W06
	BYTE		        En5 
	BYTE	W06
	BYTE		        Bn4 
	BYTE	W06
	BYTE		N04   
	BYTE	W06
	BYTE		        En5 
	BYTE	W06
	BYTE		        Bn4 
	BYTE	W06
	BYTE		N05     En5 
	BYTE	W06
	BYTE		N04     Bn4 
	BYTE	W06
	BYTE		N04   
	BYTE	W06
	BYTE		        En5 
	BYTE	W06
// 009   ----------------------------------------
	BYTE		N20     Cs5 
	BYTE	W24
	BYTE		        Dn5 
	BYTE	W24
	BYTE		        En5 
	BYTE	W24
	BYTE		N66     An4 
	BYTE		N66     Cs5 
	BYTE		N66     Fs5 
	BYTE	W24
// 010   ----------------------------------------
	BYTE	W48
	BYTE		        Gs4 
	BYTE		N66     Bn4 
	BYTE		N66     En5 
	BYTE	W48
// 011   ----------------------------------------
	BYTE	W24
	BYTE		        Cs5 
	BYTE		N66     En5 
	BYTE		N66     An5 
	BYTE	W72
// 012   ----------------------------------------
	BYTE		        Bn4 
	BYTE		N66     Dn5 
	BYTE		N66     Gn5 
	BYTE	W72
	BYTE		        An4 
	BYTE		N66     Dn5 
	BYTE		N66     Fs5 
	BYTE	W24
// 013   ----------------------------------------
	BYTE	W48
	BYTE		        Bn4 
	BYTE		N66     En5 
	BYTE		N66     Gs5 
	BYTE	W48
// 014   ----------------------------------------
	BYTE	W24
	BYTE		        Cs5 
	BYTE		N66     Fs5 
	BYTE		N66     An5 
	BYTE	W72
// 015   ----------------------------------------
	BYTE		        Cs5 
	BYTE		N66     Fs5 
	BYTE		N66     As5 
	BYTE	W72
	BYTE		N04     Fs5 
	BYTE	W06
	BYTE		        Cs5 
	BYTE	W06
	BYTE		N04   
	BYTE	W06
	BYTE		        Fs5 
	BYTE	W06
// 016   ----------------------------------------
	BYTE		        Cs5 
	BYTE	W06
	BYTE		N04   
	BYTE	W06
	BYTE		        Fs5 
	BYTE	W06
	BYTE		        Cs5 
	BYTE	W06
	BYTE		        Fs5 
	BYTE	W06
	BYTE		        Cs5 
	BYTE	W06
	BYTE		N04   
	BYTE	W06
	BYTE		        Fs5 
	BYTE	W06
	BYTE		        Gs5 
	BYTE	W06
	BYTE		        En5 
	BYTE	W06
	BYTE		N04   
	BYTE	W06
	BYTE		        Gs5 
	BYTE	W06
	BYTE		        En5 
	BYTE	W06
	BYTE		N04   
	BYTE	W06
	BYTE		        Gs5 
	BYTE	W06
	BYTE		        En5 
	BYTE	W06
// 017   ----------------------------------------
	BYTE		        Gs5 
	BYTE	W06
	BYTE		        En5 
	BYTE	W06
	BYTE		N04   
	BYTE	W06
	BYTE		        Gs5 
	BYTE	W06
	BYTE		        An5 
	BYTE	W06
	BYTE		        En5 
	BYTE	W06
	BYTE		N04   
	BYTE	W06
	BYTE		        An5 
	BYTE	W06
	BYTE		        En5 
	BYTE	W06
	BYTE		N04   
	BYTE	W06
	BYTE		        An5 
	BYTE	W06
	BYTE		        En5 
	BYTE	W06
	BYTE		        An5 
	BYTE	W06
	BYTE		        En5 
	BYTE	W06
	BYTE		N04   
	BYTE	W06
	BYTE		        An5 
	BYTE	W06
// 018   ----------------------------------------
	BYTE		        Gn5 
	BYTE	W06
	BYTE		        Dn5 
	BYTE	W06
	BYTE		N04   
	BYTE	W06
	BYTE		        Gn5 
	BYTE	W06
	BYTE		        Dn5 
	BYTE	W06
	BYTE		N04   
	BYTE	W06
	BYTE		        Gn5 
	BYTE	W06
	BYTE		        Dn5 
	BYTE	W06
	BYTE		        Gn5 
	BYTE	W06
	BYTE		        Dn5 
	BYTE	W06
	BYTE		N04   
	BYTE	W06
	BYTE		        Gn5 
	BYTE	W06
	BYTE		        Fs5 
	BYTE	W06
	BYTE		        Dn5 
	BYTE	W06
	BYTE		N04   
	BYTE	W06
	BYTE		        Fs5 
	BYTE	W06
// 019   ----------------------------------------
	BYTE		        Dn5 
	BYTE	W06
	BYTE		N04   
	BYTE	W06
	BYTE		        Fs5 
	BYTE	W06
	BYTE		        Dn5 
	BYTE	W06
	BYTE		        Fs5 
	BYTE	W06
	BYTE		        Dn5 
	BYTE	W06
	BYTE		N04   
	BYTE	W06
	BYTE		        Fs5 
	BYTE	W06
	BYTE		        En5 
	BYTE	W06
	BYTE		        Bn4 
	BYTE	W06
	BYTE		N04   
	BYTE	W06
	BYTE		        En5 
	BYTE	W06
	BYTE		        Bn4 
	BYTE	W06
	BYTE		N04   
	BYTE	W06
	BYTE		        En5 
	BYTE	W06
	BYTE		        Bn4 
	BYTE	W06
// 020   ----------------------------------------
	BYTE		        En5 
	BYTE	W06
	BYTE		        Bn4 
	BYTE	W06
	BYTE		N04   
	BYTE	W06
	BYTE		        En5 
	BYTE	W06
	BYTE		        Fs5 
	BYTE	W06
	BYTE		        Cs5 
	BYTE	W06
	BYTE		N04   
	BYTE	W06
	BYTE		        Fs5 
	BYTE	W06
	BYTE		        Cs5 
	BYTE	W06
	BYTE		N04   
	BYTE	W06
	BYTE		        Fs5 
	BYTE	W06
	BYTE		        Cs5 
	BYTE	W06
	BYTE		        Fs5 
	BYTE	W06
	BYTE		        Cs5 
	BYTE	W06
	BYTE		N04   
	BYTE	W06
	BYTE		        Fs5 
	BYTE	W06
// 021   ----------------------------------------
	BYTE		N04   
	BYTE	W06
	BYTE		        Cs5 
	BYTE	W06
	BYTE		N04   
	BYTE	W06
	BYTE		        Fs5 
	BYTE	W06
	BYTE		        Cs5 
	BYTE	W06
	BYTE		N04   
	BYTE	W06
	BYTE		        Fs5 
	BYTE	W06
	BYTE		        Cs5 
	BYTE	W06
	BYTE		        Fs5 
	BYTE	W06
	BYTE		        Cs5 
	BYTE	W06
	BYTE		N04   
	BYTE	W06
	BYTE		        Fs5 
	BYTE	W30
// 022   ----------------------------------------
	BYTE	W96
// 023   ----------------------------------------
	BYTE	W96
// 024   ----------------------------------------
	BYTE	W96
// 025   ----------------------------------------
	BYTE	W96
// 026   ----------------------------------------
	BYTE	W96
// 027   ----------------------------------------
	BYTE	W96
// 028   ----------------------------------------
	BYTE	W96
// 029   ----------------------------------------
	BYTE	W96
// 030   ----------------------------------------
	BYTE	W96
// 031   ----------------------------------------
	BYTE	W96
// 032   ----------------------------------------
	BYTE	W96
// 033   ----------------------------------------
	BYTE	W96
// 034   ----------------------------------------
	BYTE	W96
// 035   ----------------------------------------
	BYTE	W96
	BYTE	GoTo
	 POIN2	AeteriaShop_2_B1
AeteriaShop_2_B2:
// 036   ----------------------------------------
	BYTE	FINE

//**************** Track 3 (Midi-Chn.3) ****************//

AeteriaShop_3:
	BYTE	KEYSH   AeteriaShop_key+0
// 000   ----------------------------------------
	BYTE		VOICE   0
	BYTE		MODT    0
	BYTE		LFOS    44
	BYTE		VOL     117*AeteriaShop_mvl/mxv
	BYTE		PAN     c_v-32
	BYTE	W72
AeteriaShop_3_B1:
	BYTE	W24
// 001   ----------------------------------------
	BYTE		N17     En2   v100
	BYTE		N17     An2 
	BYTE		N17     Bn2 
	BYTE	W18
	BYTE		N28     En2 
	BYTE		N28     An2 
	BYTE		N28     Cs3 
	BYTE	W54
	BYTE		N17     En2 
	BYTE		N17     An2 
	BYTE		N17     Dn3 
	BYTE	W18
	BYTE		N28     En2 
	BYTE		N28     An2 
	BYTE		N28     Cs3 
	BYTE	W06
// 002   ----------------------------------------
AeteriaShop_3_002:
	BYTE	W48
	BYTE		N17     En2   v100
	BYTE		N17     An2 
	BYTE		N17     Bn2 
	BYTE	W18
	BYTE		N28     En2 
	BYTE		N28     An2 
	BYTE		N28     Cs3 
	BYTE	W30
	BYTE	PEND
// 003   ----------------------------------------
AeteriaShop_3_003:
	BYTE	W24
	BYTE		N17     En2   v100
	BYTE		N17     An2 
	BYTE		N17     Dn3 
	BYTE	W18
	BYTE		N28     En2 
	BYTE		N28     An2 
	BYTE		N28     Cs3 
	BYTE	W54
	BYTE	PEND
// 004   ----------------------------------------
	BYTE		N17     Dn2 
	BYTE		N17     Gn2 
	BYTE		N17     Cs3 
	BYTE	W18
	BYTE		N28     Dn2 
	BYTE		N28     Gn2 
	BYTE		N28     Bn2 
	BYTE	W54
	BYTE		N17     Cs2 
	BYTE		N17     Fs2 
	BYTE		N17     Bn2 
	BYTE	W18
	BYTE		N28     Cs2 
	BYTE		N28     Fs2 
	BYTE		N28     An2 
	BYTE	W06
// 005   ----------------------------------------
AeteriaShop_3_005:
	BYTE	W48
	BYTE		N17     Bn1   v100
	BYTE		N17     En2 
	BYTE		N17     An2 
	BYTE	W18
	BYTE		N28     Bn1 
	BYTE		N28     En2 
	BYTE		N28     Bn2 
	BYTE	W30
	BYTE	PEND
// 006   ----------------------------------------
	BYTE	PATT
	 POIN2	AeteriaShop_3_003
// 007   ----------------------------------------
	BYTE		N17     Cs2   v100
	BYTE		N17     Fs2 
	BYTE		N17     Bn2 
	BYTE	W18
	BYTE		N28     Cs2 
	BYTE		N28     Fs2 
	BYTE		N28     An2 
	BYTE	W54
	BYTE		N17     Dn2 
	BYTE		N17     Gn2 
	BYTE		N17     Cs3 
	BYTE	W18
	BYTE		N28     Dn2 
	BYTE		N28     Gn2 
	BYTE		N28     Bn2 
	BYTE	W06
// 008   ----------------------------------------
	BYTE	PATT
	 POIN2	AeteriaShop_3_005
// 009   ----------------------------------------
	BYTE		N42     En2   v100
	BYTE		N42     An2 
	BYTE		N42     Cs3 
	BYTE	W48
	BYTE		N20     En2 
	BYTE		N20     Gs2 
	BYTE		N20     Bn2 
	BYTE	W24
	BYTE		N11     Cs3 
	BYTE	W12
	BYTE		        Bn2 
	BYTE	W12
// 010   ----------------------------------------
	BYTE		        An2 
	BYTE	W12
	BYTE		        Bn2 
	BYTE	W12
	BYTE		        Cs3 
	BYTE	W12
	BYTE		        Fs3 
	BYTE	W12
	BYTE		        En3 
	BYTE	W12
	BYTE		        Dn3 
	BYTE	W12
	BYTE		        Cs3 
	BYTE	W12
	BYTE		        Bn2 
	BYTE	W12
// 011   ----------------------------------------
	BYTE		        An2 
	BYTE	W12
	BYTE		        Gs2 
	BYTE	W12
	BYTE		        An2 
	BYTE	W12
	BYTE		        Bn2 
	BYTE	W12
	BYTE		        Cs3 
	BYTE	W12
	BYTE		        En3 
	BYTE	W12
	BYTE		        Gs3 
	BYTE	W12
	BYTE		        An3 
	BYTE	W12
// 012   ----------------------------------------
	BYTE		        Bn3 
	BYTE	W12
	BYTE		        An3 
	BYTE	W12
	BYTE		        Gn3 
	BYTE	W12
	BYTE		        Fs3 
	BYTE	W12
	BYTE		        En3 
	BYTE	W12
	BYTE		        Dn3 
	BYTE	W12
	BYTE		        Fs3 
	BYTE	W12
	BYTE		        Gs3 
	BYTE	W12
// 013   ----------------------------------------
	BYTE		        An3 
	BYTE	W12
	BYTE		        Fs3 
	BYTE	W12
	BYTE		        Dn4 
	BYTE	W12
	BYTE		        An3 
	BYTE	W12
	BYTE		        Gs3 
	BYTE	W12
	BYTE		        An3 
	BYTE	W12
	BYTE		        Bn3 
	BYTE	W12
	BYTE		        Gs3 
	BYTE	W12
// 014   ----------------------------------------
	BYTE		        En3 
	BYTE	W12
	BYTE		        Gs3 
	BYTE	W12
	BYTE		N42     Fs3 
	BYTE	W48
	BYTE		N20     Gs3 
	BYTE	W24
// 015   ----------------------------------------
	BYTE		N66     Fs3 
	BYTE		N66     As3 
	BYTE		N66     Cs4 
	BYTE	W96
// 016   ----------------------------------------
	BYTE		N17     Fs2 
	BYTE		N17     An2 
	BYTE		N17     Bn2 
	BYTE	W18
	BYTE		N28     Fs2 
	BYTE		N28     An2 
	BYTE		N28     Cs3 
	BYTE	W54
	BYTE		N17     Gs2 
	BYTE		N17     Bn2 
	BYTE		N17     Dn3 
	BYTE	W18
	BYTE		N28     Gs2 
	BYTE		N28     Bn2 
	BYTE		N28     En3 
	BYTE	W06
// 017   ----------------------------------------
	BYTE	PATT
	 POIN2	AeteriaShop_3_002
// 018   ----------------------------------------
	BYTE	W24
	BYTE		N17     Gn2   v100
	BYTE		N17     Bn2 
	BYTE		N17     Cs3 
	BYTE	W18
	BYTE		N28     Gn2 
	BYTE		N28     Bn2 
	BYTE		N28     Dn3 
	BYTE	W54
// 019   ----------------------------------------
	BYTE		N17     Fs2 
	BYTE		N17     An2 
	BYTE		N17     En3 
	BYTE	W18
	BYTE		N28     Fs2 
	BYTE		N28     An2 
	BYTE		N28     Dn3 
	BYTE	W54
	BYTE		N17     Gs2 
	BYTE		N17     Bn2 
	BYTE		N17     Dn3 
	BYTE	W18
	BYTE		N28     Gs2 
	BYTE		N28     Bn2 
	BYTE		N28     En3 
	BYTE	W06
// 020   ----------------------------------------
	BYTE	W48
	BYTE		N17     Fs2 
	BYTE		N17     An2 
	BYTE		N17     Bn2 
	BYTE	W18
	BYTE		N28     Fs2 
	BYTE		N28     An2 
	BYTE		N28     Cs3 
	BYTE	W30
// 021   ----------------------------------------
	BYTE		N66   
	BYTE		N20     As3 
	BYTE	W24
	BYTE		        Gs3 
	BYTE	W24
	BYTE		        Fs3 
	BYTE	W24
	BYTE		N66     Cs3 
	BYTE		N66     En3 
	BYTE		N24     An3 
	BYTE	W24
// 022   ----------------------------------------
AeteriaShop_3_022:
	BYTE		N24     En4   v100
	BYTE	W24
	BYTE		        Dn4 
	BYTE	W24
	BYTE		N66     Dn3 
	BYTE		N66     En3 
	BYTE		N66     Gs3 
	BYTE		N24     Cs4 
	BYTE	W24
	BYTE		N48     Bn3 
	BYTE	W24
	BYTE	PEND
// 023   ----------------------------------------
AeteriaShop_3_023:
	BYTE	W24
	BYTE		N66     Cs3   v100
	BYTE		N66     Fs3 
	BYTE		N24     An3 
	BYTE	W24
	BYTE		        Bn3 
	BYTE	W24
	BYTE		        Cs4 
	BYTE	W24
	BYTE	PEND
// 024   ----------------------------------------
AeteriaShop_3_024:
	BYTE		N66     En3   v100
	BYTE		N66     Gn3 
	BYTE		N66     Bn3 
	BYTE		N24     En4 
	BYTE	W24
	BYTE		N48     Dn4 
	BYTE	W48
	BYTE		N66     Dn3 
	BYTE		N66     Fs3 
	BYTE		N66     An3 
	BYTE		N24     Dn4 
	BYTE	W24
	BYTE	PEND
// 025   ----------------------------------------
AeteriaShop_3_025:
	BYTE		N24     Cs4   v100
	BYTE	W24
	BYTE		        Bn3 
	BYTE	W24
	BYTE		N66     Bn2 
	BYTE		N66     En3 
	BYTE		N48     An3 
	BYTE	W48
	BYTE	PEND
// 026   ----------------------------------------
	BYTE		N24     Gs3 
	BYTE	W24
	BYTE		N66     Cs3 
	BYTE		N66     En3 
	BYTE		N48     An3 
	BYTE	W48
	BYTE		N24     Cs4 
	BYTE	W24
// 027   ----------------------------------------
	BYTE		N72     Bn2 
	BYTE		N72     En3 
	BYTE		N72     Gs3 
	BYTE		N72     Bn3 
	BYTE	W72
	BYTE		N66     Cs3 
	BYTE		N66     En3 
	BYTE		N24     An3 
	BYTE	W24
// 028   ----------------------------------------
	BYTE	PATT
	 POIN2	AeteriaShop_3_022
// 029   ----------------------------------------
	BYTE	PATT
	 POIN2	AeteriaShop_3_023
// 030   ----------------------------------------
	BYTE	PATT
	 POIN2	AeteriaShop_3_024
// 031   ----------------------------------------
	BYTE	PATT
	 POIN2	AeteriaShop_3_025
// 032   ----------------------------------------
	BYTE		N24     Gs3   v100
	BYTE	W24
	BYTE		N66     Cs3 
	BYTE		N66     En3 
	BYTE		N42     An3 
	BYTE	W48
	BYTE		N20     Cs4 
	BYTE	W24
// 033   ----------------------------------------
	BYTE		N66     En3 
	BYTE		N66     Gs3 
	BYTE		N66     Bn3 
	BYTE	W72
	BYTE		        En3 
	BYTE		N66     Gs3 
	BYTE		N66     Cs4 
	BYTE	W24
// 034   ----------------------------------------
	BYTE	W48
	BYTE		        Bn2 
	BYTE		N66     En3 
	BYTE		N42     An3 
	BYTE	W48
// 035   ----------------------------------------
	BYTE		N06     Gs3 
	BYTE	W96
	BYTE	GoTo
	 POIN2	AeteriaShop_3_B1
AeteriaShop_3_B2:
// 036   ----------------------------------------
	BYTE	FINE

//**************** Track 4 (Midi-Chn.4) ****************//

AeteriaShop_4:
	BYTE	KEYSH   AeteriaShop_key+0
// 000   ----------------------------------------
	BYTE		VOICE   50
	BYTE		MODT    0
	BYTE		LFOS    44
	BYTE		PAN     c_v-13
	BYTE		VOL     109*AeteriaShop_mvl/mxv
	BYTE	W72
AeteriaShop_4_B1:
	BYTE		TIE     Cs3   v056
	BYTE		TIE     En3 
	BYTE		N48     An3 
	BYTE	W24
// 001   ----------------------------------------
	BYTE	W24
	BYTE		N24     Bn3 
	BYTE	W24
	BYTE		N48     Cs4 
	BYTE	W48
// 002   ----------------------------------------
	BYTE		N24     Dn4 
	BYTE	W24
	BYTE		N48     Cs4 
	BYTE	W48
	BYTE		N24     Bn3 
	BYTE	W24
// 003   ----------------------------------------
	BYTE		        An3 
	BYTE	W24
	BYTE		        Bn3 
	BYTE	W24
	BYTE		        Cs4 
	BYTE	W24
	BYTE		EOT     Cs3 
	BYTE		        En3 
	BYTE		N66     Bn2 
	BYTE		N66     Dn3 
	BYTE		N48     Bn3 
	BYTE	W24
// 004   ----------------------------------------
	BYTE	W24
	BYTE		N24     Dn4 
	BYTE	W24
	BYTE		N66     Cs3 
	BYTE		N66     Fs3 
	BYTE		N24     Cs4 
	BYTE	W24
	BYTE		        Bn3 
	BYTE	W24
// 005   ----------------------------------------
	BYTE		        An3 
	BYTE	W24
	BYTE		N42     Bn2 
	BYTE		N42     En3 
	BYTE		N24     Bn3 
	BYTE	W24
	BYTE		        An3 
	BYTE	W24
	BYTE		        Bn2 
	BYTE		N24     Dn3 
	BYTE		N24     Gs3 
	BYTE	W24
// 006   ----------------------------------------
	BYTE		N66     Cs3 
	BYTE		N66     En3 
	BYTE		N24     An3 
	BYTE	W24
	BYTE		        En4 
	BYTE	W24
	BYTE		        Dn4 
	BYTE	W24
	BYTE		N66     Cs3 
	BYTE		N66     Fs3 
	BYTE		N24     Cs4 
	BYTE	W24
// 007   ----------------------------------------
	BYTE		        Bn3 
	BYTE	W24
	BYTE		        An3 
	BYTE	W24
	BYTE		N66     Bn2 
	BYTE		N66     Dn3 
	BYTE		N24     Bn3 
	BYTE	W24
	BYTE		        Cs4 
	BYTE	W24
// 008   ----------------------------------------
	BYTE		        Dn4 
	BYTE	W24
	BYTE		N42     Bn2 
	BYTE		N42     En3 
	BYTE		N24     En4 
	BYTE	W24
	BYTE		        Dn4 
	BYTE	W24
	BYTE		N20     Bn2 
	BYTE		N20     Dn3 
	BYTE		N12     Cs4 
	BYTE	W12
	BYTE		        Bn3 
	BYTE	W12
// 009   ----------------------------------------
	BYTE		N48     Cs3 
	BYTE		N48     En3 
	BYTE		N48     An3 
	BYTE	W48
	BYTE		N24     Bn2 
	BYTE		N24     En3 
	BYTE		N24     Gs3 
	BYTE	W24
	BYTE		N66     Cs3 
	BYTE		N66     Fs3 
	BYTE		N48     An3 
	BYTE	W24
// 010   ----------------------------------------
AeteriaShop_4_010:
	BYTE	W24
	BYTE		N24     Cs4   v056
	BYTE	W24
	BYTE		N66     Dn3 
	BYTE		N66     En3 
	BYTE		N66     Gs3 
	BYTE		N48     Bn3 
	BYTE	W48
	BYTE	PEND
// 011   ----------------------------------------
AeteriaShop_4_011:
	BYTE		N24     Dn4   v056
	BYTE	W24
	BYTE		N66     En3 
	BYTE		N66     An3 
	BYTE		N48     Cs4 
	BYTE	W48
	BYTE		N24     En4 
	BYTE	W24
	BYTE	PEND
// 012   ----------------------------------------
AeteriaShop_4_012:
	BYTE		N66     Gn3   v056
	BYTE		N66     Bn3 
	BYTE		N48     Dn4 
	BYTE	W48
	BYTE		N24     Fs4 
	BYTE	W24
	BYTE		N66     Fs3 
	BYTE		N66     An3 
	BYTE		N48     Dn4 
	BYTE	W24
	BYTE	PEND
// 013   ----------------------------------------
AeteriaShop_4_013:
	BYTE	W24
	BYTE		N24     Cs4   v056
	BYTE	W24
	BYTE		N66     En3 
	BYTE		N66     Gs3 
	BYTE		N24     Bn3 
	BYTE	W24
	BYTE		        Cs4 
	BYTE	W24
	BYTE	PEND
// 014   ----------------------------------------
AeteriaShop_4_014:
	BYTE		N24     Dn4   v056
	BYTE	W24
	BYTE		N72     Fs3 
	BYTE		N72     An3 
	BYTE		N72     Cs4 
	BYTE	W72
	BYTE	PEND
// 015   ----------------------------------------
	BYTE		        Fs3 
	BYTE		N72     As3 
	BYTE		N72     Cs4 
	BYTE	W72
	BYTE		N66     Cs3 
	BYTE		N66     Fs3 
	BYTE		N48     An3 
	BYTE	W24
// 016   ----------------------------------------
	BYTE	PATT
	 POIN2	AeteriaShop_4_010
// 017   ----------------------------------------
	BYTE	PATT
	 POIN2	AeteriaShop_4_011
// 018   ----------------------------------------
	BYTE	PATT
	 POIN2	AeteriaShop_4_012
// 019   ----------------------------------------
	BYTE	PATT
	 POIN2	AeteriaShop_4_013
// 020   ----------------------------------------
	BYTE	PATT
	 POIN2	AeteriaShop_4_014
// 021   ----------------------------------------
	BYTE		N66     Fs3   v056
	BYTE		N66     As3 
	BYTE		N66     Cs4 
	BYTE	W96
// 022   ----------------------------------------
	BYTE	W96
// 023   ----------------------------------------
	BYTE	W96
// 024   ----------------------------------------
	BYTE	W96
// 025   ----------------------------------------
	BYTE	W96
// 026   ----------------------------------------
	BYTE	W96
// 027   ----------------------------------------
	BYTE	W72
	BYTE		        Cs3 
	BYTE		N66     En3 
	BYTE		N24     An3 
	BYTE	W24
// 028   ----------------------------------------
	BYTE		        En4 
	BYTE	W24
	BYTE		        Dn4 
	BYTE	W24
	BYTE		N66     Dn3 
	BYTE		N66     En3 
	BYTE		N66     Gs3 
	BYTE		N24     Cs4 
	BYTE	W24
	BYTE		N48     Bn3 
	BYTE	W24
// 029   ----------------------------------------
	BYTE	W24
	BYTE		N66     Cs3 
	BYTE		N66     Fs3 
	BYTE		N24     An3 
	BYTE	W24
	BYTE		        Bn3 
	BYTE	W24
	BYTE		        Cs4 
	BYTE	W24
// 030   ----------------------------------------
	BYTE		N66     En3 
	BYTE		N66     Gn3 
	BYTE		N66     Bn3 
	BYTE		N24     En4 
	BYTE	W24
	BYTE		N48     Dn4 
	BYTE	W48
	BYTE		N66     Dn3 
	BYTE		N66     Fs3 
	BYTE		N66     An3 
	BYTE		N24     Dn4 
	BYTE	W24
// 031   ----------------------------------------
	BYTE		        Cs4 
	BYTE	W24
	BYTE		        Bn3 
	BYTE	W24
	BYTE		N66     Bn2 
	BYTE		N66     En3 
	BYTE		N48     An3 
	BYTE	W48
// 032   ----------------------------------------
	BYTE		N24     Gs3 
	BYTE	W24
	BYTE		N66     Cs3 
	BYTE		N66     En3 
	BYTE		N42     An3 
	BYTE	W48
	BYTE		N20     Cs4 
	BYTE	W24
// 033   ----------------------------------------
	BYTE		TIE     En3 
	BYTE		TIE     Gs3 
	BYTE		N66     Bn3 
	BYTE	W72
	BYTE		        Cs4 
	BYTE	W24
// 034   ----------------------------------------
	BYTE	W42
	BYTE		EOT     En3 
	BYTE		        Gs3 
	BYTE	W06
	BYTE		N66     Bn2 
	BYTE		N66     En3 
	BYTE		N42     An3 
	BYTE	W48
// 035   ----------------------------------------
	BYTE		N06     Gs3 
	BYTE	W96
	BYTE	GoTo
	 POIN2	AeteriaShop_4_B1
AeteriaShop_4_B2:
// 036   ----------------------------------------
	BYTE	FINE

//**************** Track 5 (Midi-Chn.5) ****************//

AeteriaShop_5:
	BYTE	KEYSH   AeteriaShop_key+0
// 000   ----------------------------------------
	BYTE		VOICE   81
	BYTE		MODT    0
	BYTE		LFOS    44
	BYTE		PAN     c_v+17
	BYTE		VOL     108*AeteriaShop_mvl/mxv
	BYTE	W54
	BYTE		N06     Bn3   v127
	BYTE	W06
	BYTE		        Cs4 
	BYTE	W06
	BYTE		        Dn4 
	BYTE	W06
AeteriaShop_5_B1:
	BYTE		N36     Cs4   v127
	BYTE	W24
// 001   ----------------------------------------
	BYTE	W12
	BYTE		N12     Bn3 
	BYTE	W12
	BYTE		        An3 
	BYTE	W12
	BYTE		        En3 
	BYTE	W12
	BYTE		N36     Gn3 
	BYTE	W36
	BYTE		N12     An3 
	BYTE	W12
// 002   ----------------------------------------
	BYTE		        Bn3 
	BYTE	W12
	BYTE		        Dn4 
	BYTE	W12
	BYTE		        Cs4 
	BYTE	W12
	BYTE		        Dn4 
	BYTE	W12
	BYTE		N06     Cs4 
	BYTE	W06
	BYTE		        Dn4 
	BYTE	W06
	BYTE		        Cs4 
	BYTE	W06
	BYTE		        Dn4 
	BYTE	W06
	BYTE		        Cs4 
	BYTE	W06
	BYTE		        Dn4 
	BYTE	W06
	BYTE		N03     Cs4 
	BYTE	W03
	BYTE		        Dn4 
	BYTE	W03
	BYTE		        Cs4 
	BYTE	W03
	BYTE		        Dn4 
	BYTE	W03
// 003   ----------------------------------------
	BYTE		N36     En4 
	BYTE	W36
	BYTE		N12     Dn4 
	BYTE	W12
	BYTE		        Cs4 
	BYTE	W12
	BYTE		        An3 
	BYTE	W12
	BYTE		N24     Dn4 
	BYTE	W24
// 004   ----------------------------------------
	BYTE		        En4 
	BYTE	W24
	BYTE		        Fs4 
	BYTE	W24
	BYTE		N12     En4 
	BYTE	W12
	BYTE		        Dn4 
	BYTE	W12
	BYTE		        Cs4 
	BYTE	W12
	BYTE		        Dn4 
	BYTE	W12
// 005   ----------------------------------------
	BYTE		        En4 
	BYTE	W12
	BYTE		        An4 
	BYTE	W12
	BYTE		N36     Gs4 
	BYTE	W36
	BYTE		N12     Fs4 
	BYTE	W12
	BYTE		        En4 
	BYTE	W12
	BYTE		        Dn4 
	BYTE	W12
// 006   ----------------------------------------
	BYTE		        Cs4 
	BYTE	W12
	BYTE		        Bn3 
	BYTE	W12
	BYTE		N06     An3 
	BYTE	W06
	BYTE		        Bn3 
	BYTE	W06
	BYTE		        An3 
	BYTE	W06
	BYTE		        Bn3 
	BYTE	W06
	BYTE		N03     An3 
	BYTE	W03
	BYTE		        Bn3 
	BYTE	W03
	BYTE		        An3 
	BYTE	W03
	BYTE		        Bn3 
	BYTE	W03
	BYTE		        An3 
	BYTE	W03
	BYTE		        Bn3 
	BYTE	W03
	BYTE		        An3 
	BYTE	W03
	BYTE		        Bn3 
	BYTE	W03
	BYTE		N06     Cs4 
	BYTE	W06
	BYTE		        An3 
	BYTE	W06
	BYTE		N06   
	BYTE	W06
	BYTE		        Cs4 
	BYTE	W06
// 007   ----------------------------------------
	BYTE		        An3 
	BYTE	W06
	BYTE		N06   
	BYTE	W06
	BYTE		        Cs4 
	BYTE	W06
	BYTE		        Dn4 
	BYTE	W06
	BYTE		        En4 
	BYTE	W06
	BYTE		        Cs4 
	BYTE	W06
	BYTE		N06   
	BYTE	W06
	BYTE		        En4 
	BYTE	W06
	BYTE		N36     Dn4 
	BYTE	W36
	BYTE		N12     En4 
	BYTE	W12
// 008   ----------------------------------------
	BYTE		        Fs4 
	BYTE	W12
	BYTE		        An4 
	BYTE	W12
	BYTE		N06     Gs4 
	BYTE	W06
	BYTE		        En4 
	BYTE	W06
	BYTE		N06   
	BYTE	W06
	BYTE		        Gs4 
	BYTE	W06
	BYTE		        En4 
	BYTE	W06
	BYTE		N06   
	BYTE	W06
	BYTE		        Dn4 
	BYTE	W06
	BYTE		        Bn3 
	BYTE	W06
	BYTE		N06   
	BYTE	W06
	BYTE		        Dn4 
	BYTE	W06
	BYTE		        Cs4 
	BYTE	W06
	BYTE		        Bn3 
	BYTE	W06
// 009   ----------------------------------------
	BYTE		N48     An3 
	BYTE	W48
	BYTE		N24     Gs3 
	BYTE	W24
	BYTE		        Fs3 
	BYTE	W24
// 010   ----------------------------------------
	BYTE		        En3 
	BYTE	W24
	BYTE		        An3 
	BYTE	W24
	BYTE		N36     Gs3 
	BYTE	W36
	BYTE		N12     An3 
	BYTE	W12
// 011   ----------------------------------------
	BYTE		N24     Bn3 
	BYTE	W24
	BYTE		        Cs4 
	BYTE	W24
	BYTE		        Bn3 
	BYTE	W24
	BYTE		        An3 
	BYTE	W24
// 012   ----------------------------------------
	BYTE		N36     Dn4 
	BYTE	W36
	BYTE		N12     Cs4 
	BYTE	W12
	BYTE		N24     Bn3 
	BYTE	W24
	BYTE		N48     An3 
	BYTE	W24
// 013   ----------------------------------------
	BYTE	W24
	BYTE		N24     Fs3 
	BYTE	W24
	BYTE		        Gs3 
	BYTE	W24
	BYTE		        Fs3 
	BYTE	W24
// 014   ----------------------------------------
	BYTE		        En3 
	BYTE	W24
	BYTE		TIE     Fs3 
	BYTE	W72
// 015   ----------------------------------------
	BYTE	W54
	BYTE		EOT   
	BYTE		N06     Gs3 
	BYTE	W06
	BYTE		        An3 
	BYTE	W06
	BYTE		        Bn3 
	BYTE	W06
	BYTE		N36     Cs4 
	BYTE	W24
// 016   ----------------------------------------
	BYTE	W12
	BYTE		N12     Dn4 
	BYTE	W12
	BYTE		N24     En4 
	BYTE	W24
	BYTE		N12     Gs4 
	BYTE	W12
	BYTE		        Fs4 
	BYTE	W12
	BYTE		        En4 
	BYTE	W12
	BYTE		        Dn4 
	BYTE	W12
// 017   ----------------------------------------
	BYTE		        Cs4 
	BYTE	W12
	BYTE		        Bn3 
	BYTE	W12
	BYTE		N06     Cs4 
	BYTE	W06
	BYTE		        An3 
	BYTE	W06
	BYTE		N06   
	BYTE	W06
	BYTE		        Cs4 
	BYTE	W06
	BYTE		        En4 
	BYTE	W06
	BYTE		        Cs4 
	BYTE	W06
	BYTE		N06   
	BYTE	W06
	BYTE		        En4 
	BYTE	W06
	BYTE		        An4 
	BYTE	W06
	BYTE		        Gs4 
	BYTE	W06
	BYTE		        Fs4 
	BYTE	W06
	BYTE		        En4 
	BYTE	W06
// 018   ----------------------------------------
	BYTE		N36     Dn4 
	BYTE	W36
	BYTE		N12     Cs4 
	BYTE	W12
	BYTE		N24     Bn3 
	BYTE	W24
	BYTE		        An3 
	BYTE	W24
// 019   ----------------------------------------
	BYTE		        Bn3 
	BYTE	W24
	BYTE		        Cs4 
	BYTE	W24
	BYTE		N42     Bn3 
	BYTE	W42
	BYTE		N06     An3 
	BYTE	W06
// 020   ----------------------------------------
	BYTE		        Bn3 
	BYTE	W06
	BYTE		        Cs4 
	BYTE	W06
	BYTE		        Dn4 
	BYTE	W06
	BYTE		        En4 
	BYTE	W06
	BYTE		N24     Fs4 
	BYTE	W24
	BYTE		        An4 
	BYTE	W24
	BYTE		        Gs4 
	BYTE	W24
// 021   ----------------------------------------
	BYTE		N66     Fs4 
	BYTE	W96
// 022   ----------------------------------------
	BYTE	W96
// 023   ----------------------------------------
	BYTE	W96
// 024   ----------------------------------------
	BYTE	W96
// 025   ----------------------------------------
	BYTE	W96
// 026   ----------------------------------------
	BYTE	W96
// 027   ----------------------------------------
	BYTE	W96
// 028   ----------------------------------------
	BYTE	W96
// 029   ----------------------------------------
	BYTE	W96
// 030   ----------------------------------------
	BYTE	W96
// 031   ----------------------------------------
	BYTE	W96
// 032   ----------------------------------------
	BYTE	W96
// 033   ----------------------------------------
	BYTE	W96
// 034   ----------------------------------------
	BYTE	W96
// 035   ----------------------------------------
	BYTE	W78
	BYTE		N06     Bn3 
	BYTE	W06
	BYTE		        Cs4 
	BYTE	W06
	BYTE		        Dn4 
	BYTE	W06
	BYTE	GoTo
	 POIN2	AeteriaShop_5_B1
AeteriaShop_5_B2:
// 036   ----------------------------------------
	BYTE	FINE

//**************** Track 6 (Midi-Chn.6) ****************//

AeteriaShop_6:
	BYTE	KEYSH   AeteriaShop_key+0
// 000   ----------------------------------------
	BYTE		VOICE   124
	BYTE		MODT    0
	BYTE		LFOS    44
	BYTE		VOL     114*AeteriaShop_mvl/mxv
	BYTE		PAN     c_v+0
	BYTE		N11     En1   v127
	BYTE		N11     An2 
	BYTE	W12
	BYTE		        Cn1 
	BYTE	W12
	BYTE		N11   
	BYTE	W12
	BYTE		        En1 
	BYTE		N11     An2 
	BYTE	W12
	BYTE		N05     Bn0 
	BYTE		N05     En1 
	BYTE		N05     Dn2 
	BYTE	W06
	BYTE		        En1 
	BYTE		N05     Cn2 
	BYTE	W06
	BYTE		        Bn0 
	BYTE		N05     En1 
	BYTE		N05     Bn1 
	BYTE	W06
	BYTE		        En1 
	BYTE		N05     An1 
	BYTE	W06
AeteriaShop_6_B1:
	BYTE		N11     Bn0   v127
	BYTE		N11     Cn1 
	BYTE		N11     As1 
	BYTE		N11     An2 
	BYTE	W12
	BYTE		N05     Fs1 
	BYTE	W06
	BYTE		        Dn1 
	BYTE		N05     En1 
	BYTE		N05     Fs1 
	BYTE	W06
// 001   ----------------------------------------
AeteriaShop_6_001:
	BYTE		N11     As1   v127
	BYTE	W12
	BYTE		N05     Fs1 
	BYTE	W06
	BYTE		N05   
	BYTE	W06
	BYTE		N11     Dn1 
	BYTE		N11     En1 
	BYTE		N11     As1 
	BYTE	W12
	BYTE		N05     Bn0 
	BYTE		N05     Cn1 
	BYTE		N05     Fs1 
	BYTE	W06
	BYTE		N05   
	BYTE	W06
	BYTE		N11     Bn0 
	BYTE		N11     Cn1 
	BYTE		N11     As1 
	BYTE	W12
	BYTE		N05     Fs1 
	BYTE	W06
	BYTE		        Dn1 
	BYTE		N05     En1 
	BYTE		N05     Fs1 
	BYTE	W06
	BYTE		N11     As1 
	BYTE	W12
	BYTE		N05     Fs1 
	BYTE	W06
	BYTE		N05   
	BYTE	W06
	BYTE	PEND
// 002   ----------------------------------------
AeteriaShop_6_002:
	BYTE		N11     Dn1   v127
	BYTE		N11     En1 
	BYTE		N11     As1 
	BYTE	W12
	BYTE		N05     Bn0 
	BYTE		N05     Cn1 
	BYTE		N05     Fs1 
	BYTE	W06
	BYTE		N05   
	BYTE	W06
	BYTE		N11     Bn0 
	BYTE		N11     Cn1 
	BYTE		N11     As1 
	BYTE	W12
	BYTE		N05     Fs1 
	BYTE	W06
	BYTE		        Dn1 
	BYTE		N05     En1 
	BYTE		N05     Fs1 
	BYTE	W06
	BYTE		N11     As1 
	BYTE	W12
	BYTE		N05     Fs1 
	BYTE	W06
	BYTE		N05   
	BYTE	W06
	BYTE		N11     Dn1 
	BYTE		N11     En1 
	BYTE		N11     As1 
	BYTE	W12
	BYTE		N05     Bn0 
	BYTE		N05     Cn1 
	BYTE		N05     Fs1 
	BYTE	W06
	BYTE		N05   
	BYTE	W06
	BYTE	PEND
// 003   ----------------------------------------
AeteriaShop_6_003:
	BYTE		N11     Bn0   v127
	BYTE		N11     Cn1 
	BYTE		N11     As1 
	BYTE	W12
	BYTE		N05     Fs1 
	BYTE	W06
	BYTE		        Dn1 
	BYTE		N05     En1 
	BYTE		N05     Fs1 
	BYTE	W06
	BYTE		N11     As1 
	BYTE	W12
	BYTE		N05     Fs1 
	BYTE	W06
	BYTE		N05   
	BYTE	W06
	BYTE		        As1 
	BYTE	W06
	BYTE		        Dn1 
	BYTE		N05     En1 
	BYTE	W06
	BYTE		        Bn0 
	BYTE		N05     Cn1 
	BYTE		N05     Dn1 
	BYTE		N05     En1 
	BYTE		N05     Fs1 
	BYTE	W06
	BYTE		N05   
	BYTE	W06
	BYTE		N11     Bn0 
	BYTE		N11     Cn1 
	BYTE		N11     As1 
	BYTE		N11     An2 
	BYTE	W12
	BYTE		N05     Fs1 
	BYTE	W06
	BYTE		        Dn1 
	BYTE		N05     En1 
	BYTE		N05     Fs1 
	BYTE	W06
	BYTE	PEND
// 004   ----------------------------------------
	BYTE	PATT
	 POIN2	AeteriaShop_6_001
// 005   ----------------------------------------
	BYTE	PATT
	 POIN2	AeteriaShop_6_002
// 006   ----------------------------------------
	BYTE	PATT
	 POIN2	AeteriaShop_6_003
// 007   ----------------------------------------
	BYTE	PATT
	 POIN2	AeteriaShop_6_001
// 008   ----------------------------------------
	BYTE	PATT
	 POIN2	AeteriaShop_6_002
// 009   ----------------------------------------
	BYTE		N11     En1   v127
	BYTE		N11     An2 
	BYTE	W12
	BYTE		        Cn1 
	BYTE	W12
	BYTE		N11   
	BYTE	W12
	BYTE		        En1 
	BYTE		N11     An2 
	BYTE	W12
	BYTE		N05     Bn0 
	BYTE		N05     En1 
	BYTE		N05     Dn2 
	BYTE	W06
	BYTE		        En1 
	BYTE		N05     Cn2 
	BYTE	W06
	BYTE		        Bn0 
	BYTE		N05     En1 
	BYTE		N05     Bn1 
	BYTE	W06
	BYTE		        En1 
	BYTE		N05     An1 
	BYTE	W06
	BYTE		N11     Cn1 
	BYTE		N11     As1 
	BYTE		N11     An2 
	BYTE	W12
	BYTE		N05     Fs1 
	BYTE	W06
	BYTE		N05   
	BYTE	W06
// 010   ----------------------------------------
AeteriaShop_6_010:
	BYTE		N11     As1   v127
	BYTE	W12
	BYTE		N05     Fs1 
	BYTE	W06
	BYTE		N05   
	BYTE	W06
	BYTE		N11     As1 
	BYTE	W12
	BYTE		N05     Cn1 
	BYTE		N05     Fs1 
	BYTE	W06
	BYTE		N05   
	BYTE	W06
	BYTE		N11     Cn1 
	BYTE		N11     As1 
	BYTE	W12
	BYTE		N05     Fs1 
	BYTE	W06
	BYTE		N05   
	BYTE	W06
	BYTE		N11     As1 
	BYTE	W12
	BYTE		N05     Fs1 
	BYTE	W06
	BYTE		N05   
	BYTE	W06
	BYTE	PEND
// 011   ----------------------------------------
AeteriaShop_6_011:
	BYTE		N11     As1   v127
	BYTE	W12
	BYTE		N05     Cn1 
	BYTE		N05     Fs1 
	BYTE	W06
	BYTE		N05   
	BYTE	W06
	BYTE		N11     Cn1 
	BYTE		N11     As1 
	BYTE	W12
	BYTE		N05     Fs1 
	BYTE	W06
	BYTE		N05   
	BYTE	W06
	BYTE		N11     As1 
	BYTE	W12
	BYTE		N05     Fs1 
	BYTE	W06
	BYTE		N05   
	BYTE	W06
	BYTE		N11     As1 
	BYTE	W12
	BYTE		N05     Cn1 
	BYTE		N05     Fs1 
	BYTE	W06
	BYTE		N05   
	BYTE	W06
	BYTE	PEND
// 012   ----------------------------------------
	BYTE		N11     Cn1 
	BYTE		N11     As1 
	BYTE	W12
	BYTE		N05     Fs1 
	BYTE	W06
	BYTE		N05   
	BYTE	W06
	BYTE		N11     As1 
	BYTE	W12
	BYTE		N05     Fs1 
	BYTE	W06
	BYTE		N05   
	BYTE	W06
	BYTE		N11     As1 
	BYTE	W12
	BYTE		N05     Cn1 
	BYTE		N05     Fs1 
	BYTE	W06
	BYTE		N05   
	BYTE	W06
	BYTE		N11     Cn1 
	BYTE		N11     As1 
	BYTE	W12
	BYTE		N05     Fs1 
	BYTE	W06
	BYTE		N05   
	BYTE	W06
// 013   ----------------------------------------
	BYTE	PATT
	 POIN2	AeteriaShop_6_010
// 014   ----------------------------------------
	BYTE	PATT
	 POIN2	AeteriaShop_6_011
// 015   ----------------------------------------
	BYTE		N11     Cn1   v127
	BYTE		N11     As1 
	BYTE	W12
	BYTE		N05     Fs1 
	BYTE	W06
	BYTE		N05   
	BYTE	W06
	BYTE		N11     As1 
	BYTE	W12
	BYTE		N05     Fs1 
	BYTE	W06
	BYTE		        Dn1 
	BYTE		N05     En1 
	BYTE		N05     Fs1 
	BYTE	W06
	BYTE		N11     Dn1 
	BYTE		N11     En1 
	BYTE		N11     As1 
	BYTE	W12
	BYTE		N05     Cn1 
	BYTE		N05     Fs1 
	BYTE	W06
	BYTE		N05   
	BYTE	W06
	BYTE		N11     Bn0 
	BYTE		N11     Cn1 
	BYTE		N11     As1 
	BYTE		N11     An2 
	BYTE	W12
	BYTE		N05     Fs1 
	BYTE	W06
	BYTE		        Dn1 
	BYTE		N05     En1 
	BYTE		N05     Fs1 
	BYTE	W06
// 016   ----------------------------------------
	BYTE	PATT
	 POIN2	AeteriaShop_6_001
// 017   ----------------------------------------
	BYTE	PATT
	 POIN2	AeteriaShop_6_002
// 018   ----------------------------------------
	BYTE	PATT
	 POIN2	AeteriaShop_6_003
// 019   ----------------------------------------
	BYTE	PATT
	 POIN2	AeteriaShop_6_001
// 020   ----------------------------------------
	BYTE	PATT
	 POIN2	AeteriaShop_6_002
// 021   ----------------------------------------
	BYTE		N11     Bn0   v127
	BYTE		N11     Cn1 
	BYTE		N11     As1 
	BYTE	W12
	BYTE		N05     Fs1 
	BYTE	W06
	BYTE		        Dn1 
	BYTE		N05     En1 
	BYTE		N05     Fs1 
	BYTE	W06
	BYTE		N11     As1 
	BYTE	W12
	BYTE		N05     Fs1 
	BYTE	W06
	BYTE		N05   
	BYTE	W06
	BYTE		        As1 
	BYTE	W06
	BYTE		        Dn1 
	BYTE		N05     En1 
	BYTE	W06
	BYTE		        Bn0 
	BYTE		N05     Cn1 
	BYTE		N05     Dn1 
	BYTE		N05     En1 
	BYTE		N05     Fs1 
	BYTE	W06
	BYTE		N05   
	BYTE	W06
	BYTE		N20   
	BYTE		N20     An2 
	BYTE	W24
// 022   ----------------------------------------
AeteriaShop_6_022:
	BYTE		N20     Fs1   v127
	BYTE	W24
	BYTE		N20   
	BYTE	W24
	BYTE		N20   
	BYTE	W24
	BYTE		N20   
	BYTE	W24
	BYTE	PEND
// 023   ----------------------------------------
	BYTE	PATT
	 POIN2	AeteriaShop_6_022
// 024   ----------------------------------------
	BYTE	PATT
	 POIN2	AeteriaShop_6_022
// 025   ----------------------------------------
	BYTE	PATT
	 POIN2	AeteriaShop_6_022
// 026   ----------------------------------------
	BYTE	PATT
	 POIN2	AeteriaShop_6_022
// 027   ----------------------------------------
	BYTE	PATT
	 POIN2	AeteriaShop_6_022
// 028   ----------------------------------------
	BYTE	PATT
	 POIN2	AeteriaShop_6_022
// 029   ----------------------------------------
	BYTE	PATT
	 POIN2	AeteriaShop_6_022
// 030   ----------------------------------------
	BYTE	PATT
	 POIN2	AeteriaShop_6_022
// 031   ----------------------------------------
	BYTE	PATT
	 POIN2	AeteriaShop_6_022
// 032   ----------------------------------------
	BYTE	PATT
	 POIN2	AeteriaShop_6_022
// 033   ----------------------------------------
	BYTE		N20     Cn1   v127
	BYTE		N20     Fs1 
	BYTE	W24
	BYTE		N11   
	BYTE	W12
	BYTE		        Cn1 
	BYTE	W12
	BYTE		N20     En1 
	BYTE		N20     Fs1 
	BYTE	W24
	BYTE		        Cn1 
	BYTE		N20     Fs1 
	BYTE	W24
// 034   ----------------------------------------
	BYTE		N11   
	BYTE	W12
	BYTE		        Cn1 
	BYTE	W12
	BYTE		N20     En1 
	BYTE		N20     Fs1 
	BYTE	W24
	BYTE		        Cn1 
	BYTE		N20     Fs1 
	BYTE	W24
	BYTE		N11   
	BYTE	W12
	BYTE		        Cn1 
	BYTE	W12
// 035   ----------------------------------------
	BYTE		N20     En1 
	BYTE		N20     Fs1 
	BYTE	W24
	BYTE		N11     En1 
	BYTE		N11     An2 
	BYTE	W12
	BYTE		        Cn1 
	BYTE	W12
	BYTE		N11   
	BYTE	W12
	BYTE		        En1 
	BYTE		N11     An2 
	BYTE	W12
	BYTE		N05     Bn0 
	BYTE		N05     En1 
	BYTE		N05     Dn2 
	BYTE	W06
	BYTE		        En1 
	BYTE		N05     Cn2 
	BYTE	W06
	BYTE		        Bn0 
	BYTE		N05     En1 
	BYTE		N05     Bn1 
	BYTE	W06
	BYTE		        En1 
	BYTE		N05     An1 
	BYTE	W06
	BYTE	GoTo
	 POIN2	AeteriaShop_6_B1
AeteriaShop_6_B2:
// 036   ----------------------------------------
	BYTE	FINE

//**************** Track 7 (Midi-Chn.7) ****************//

AeteriaShop_7:
	BYTE	KEYSH   AeteriaShop_key+0
// 000   ----------------------------------------
	BYTE		VOICE   52
	BYTE		MODT    0
	BYTE		LFOS    44
	BYTE		VOL     72*AeteriaShop_mvl/mxv
	BYTE		PAN     c_v-19
	BYTE	W72
AeteriaShop_7_B1:
	BYTE		PAN     c_v-19
	BYTE	W24
// 001   ----------------------------------------
	BYTE	W96
// 002   ----------------------------------------
	BYTE	W96
// 003   ----------------------------------------
	BYTE	W96
// 004   ----------------------------------------
	BYTE	W96
// 005   ----------------------------------------
	BYTE	W96
// 006   ----------------------------------------
	BYTE	W96
// 007   ----------------------------------------
	BYTE	W96
// 008   ----------------------------------------
	BYTE	W96
// 009   ----------------------------------------
	BYTE	W96
// 010   ----------------------------------------
	BYTE	W96
// 011   ----------------------------------------
	BYTE	W96
// 012   ----------------------------------------
	BYTE	W96
// 013   ----------------------------------------
	BYTE	W96
// 014   ----------------------------------------
	BYTE	W96
// 015   ----------------------------------------
	BYTE	W96
// 016   ----------------------------------------
	BYTE	W96
// 017   ----------------------------------------
	BYTE	W96
// 018   ----------------------------------------
	BYTE	W96
// 019   ----------------------------------------
	BYTE	W96
// 020   ----------------------------------------
	BYTE	W96
// 021   ----------------------------------------
	BYTE	W72
	BYTE		        c_v+0
	BYTE		N48     En3   v127
	BYTE	W24
// 022   ----------------------------------------
	BYTE	W24
	BYTE		N24     Fs3 
	BYTE	W24
	BYTE		        Gn3 
	BYTE	W24
	BYTE		N72     Fs3 
	BYTE	W24
// 023   ----------------------------------------
	BYTE	W48
	BYTE		N24     Dn3 
	BYTE	W24
	BYTE		N48     An2 
	BYTE	W24
// 024   ----------------------------------------
	BYTE	W24
	BYTE		        Fs3 
	BYTE	W48
	BYTE		N24   
	BYTE	W24
// 025   ----------------------------------------
	BYTE		        Gn3 
	BYTE	W24
	BYTE		N90     En3 
	BYTE	W72
// 026   ----------------------------------------
	BYTE	W24
	BYTE		N24     Dn3 
	BYTE	W24
	BYTE		        Cn3 
	BYTE	W24
	BYTE		N72     Bn2 
	BYTE	W24
// 027   ----------------------------------------
	BYTE	W48
	BYTE		N24     Cs3 
	BYTE	W24
	BYTE		TIE   
	BYTE		TIE     En3 
	BYTE	W24
// 028   ----------------------------------------
	BYTE	W96
	BYTE		EOT     Cs3 
	BYTE		        En3 
// 029   ----------------------------------------
	BYTE	W96
// 030   ----------------------------------------
	BYTE	W96
// 031   ----------------------------------------
	BYTE	W96
// 032   ----------------------------------------
	BYTE	W96
// 033   ----------------------------------------
	BYTE	W96
// 034   ----------------------------------------
	BYTE	W96
// 035   ----------------------------------------
	BYTE	W96
	BYTE	GoTo
	 POIN2	AeteriaShop_7_B1
AeteriaShop_7_B2:
// 036   ----------------------------------------
	BYTE	FINE

//******************************************************//
	ALIGN 4

AeteriaShop:
	BYTE	7	// NumTrks
	BYTE	0	// NumBlks
	BYTE	AeteriaShop_pri	// Priority
	BYTE	AeteriaShop_rev	// Reverb.

	POIN2	AeteriaShop_grp

	POIN2	AeteriaShop_1
	POIN2	AeteriaShop_2
	POIN2	AeteriaShop_3
	POIN2	AeteriaShop_4
	POIN2	AeteriaShop_5
	POIN2	AeteriaShop_6
	POIN2	AeteriaShop_7

	
