//Event file generated from Sappy .s format.
	#include "MPlayDef.event"

	#define	AFFOGATO_FINAL_grp  voicegroup000
	#define	AFFOGATO_FINAL_pri  0
	#define	AFFOGATO_FINAL_rev  0xa0
	#define	AFFOGATO_FINAL_mvl  56
	#define	AFFOGATO_FINAL_key  0
	#define	AFFOGATO_FINAL_tbs  1
	#define	AFFOGATO_FINAL_exg  0
	#define	AFFOGATO_FINAL_cmp  1

	// .rodata
	//	AFFOGATO_FINAL
	ALIGN 4

//**************** Track 1 (Midi-Chn.1) ****************//

AFFOGATO_FINAL_1:
	BYTE	KEYSH   AFFOGATO_FINAL_key+0
AFFOGATO_FINAL_1_B1:
// 000   ----------------------------------------
	BYTE	TEMPO   80*AFFOGATO_FINAL_tbs/2
	BYTE		VOICE   48
	BYTE		MODT    0
	BYTE		LFOS    44
	BYTE		VOL     95*AFFOGATO_FINAL_mvl/mxv
	BYTE		MODT    0
	BYTE		LFOS    44
	BYTE		PAN     c_v+0
	BYTE		N42     Ds3   v127
	BYTE	W48
	BYTE		N15     Fs3 
	BYTE	W16
	BYTE		        Gs3 
	BYTE	W16
	BYTE		        As3 
	BYTE	W16
// 001   ----------------------------------------
	BYTE		N42     Gs3 
	BYTE	W48
	BYTE		N15     Bn3 
	BYTE	W16
	BYTE		        As3 
	BYTE	W16
	BYTE		        Gs3 
	BYTE	W16
// 002   ----------------------------------------
	BYTE		        Fs3 
	BYTE	W16
	BYTE		        Fn3 
	BYTE	W16
	BYTE		        Fs3 
	BYTE	W16
	BYTE		        As3 
	BYTE	W16
	BYTE		        Gs3 
	BYTE	W16
	BYTE		        Fs3 
	BYTE	W16
// 003   ----------------------------------------
	BYTE		N32   
	BYTE	W36
	BYTE		N05     Gs3 
	BYTE	W06
	BYTE		        Fs3 
	BYTE	W06
	BYTE		N15     Fn3 
	BYTE	W16
	BYTE		        Ds3 
	BYTE	W16
	BYTE		        Cs3 
	BYTE	W16
// 004   ----------------------------------------
	BYTE		N42     Ds3 
	BYTE	W48
	BYTE		N15     Fs3 
	BYTE	W16
	BYTE		        Gs3 
	BYTE	W16
	BYTE		        As3 
	BYTE	W16
// 005   ----------------------------------------
	BYTE		        Bn3 
	BYTE	W16
	BYTE		        As3 
	BYTE	W16
	BYTE		        Bn3 
	BYTE	W16
	BYTE		        Ds4 
	BYTE	W16
	BYTE		        Fn4 
	BYTE	W16
	BYTE		        Ds4 
	BYTE	W16
// 006   ----------------------------------------
	BYTE		        Cs4 
	BYTE	W16
	BYTE		        Bn3 
	BYTE	W16
	BYTE		        As3 
	BYTE	W16
	BYTE		        Gs3 
	BYTE	W16
	BYTE		        As3 
	BYTE	W16
	BYTE		        Fs3 
	BYTE	W16
// 007   ----------------------------------------
	BYTE		N32     Gs3 
	BYTE	W36
	BYTE		N05     As3 
	BYTE	W06
	BYTE		        Bn3 
	BYTE	W06
	BYTE		N42     Cs4 
	BYTE	W48
// 008   ----------------------------------------
	BYTE		N15     Bn3 
	BYTE	W16
	BYTE		        Gs3 
	BYTE	W16
	BYTE		        Bn3 
	BYTE	W16
	BYTE		        Ds4 
	BYTE	W16
	BYTE		        Cs4 
	BYTE	W16
	BYTE		        Bn3 
	BYTE	W16
// 009   ----------------------------------------
	BYTE		        As3 
	BYTE	W16
	BYTE		        Gs3 
	BYTE	W16
	BYTE		        As3 
	BYTE	W16
	BYTE		N20     Fs3 
	BYTE	W24
	BYTE		        Cs3 
	BYTE	W24
// 010   ----------------------------------------
	BYTE		N15     Fn3 
	BYTE	W16
	BYTE		        Ds3 
	BYTE	W16
	BYTE		        Fn3 
	BYTE	W16
	BYTE		N42     Gs3 
	BYTE	W48
// 011   ----------------------------------------
	BYTE		N15     As3 
	BYTE	W16
	BYTE		        Gs3 
	BYTE	W16
	BYTE		        Fs3 
	BYTE	W16
	BYTE		N42     Cs4 
	BYTE	W48
// 012   ----------------------------------------
	BYTE		N15     Ds4 
	BYTE	W16
	BYTE		        Cs4 
	BYTE	W16
	BYTE		        Ds4 
	BYTE	W16
	BYTE		        Gs4 
	BYTE	W16
	BYTE		        As4 
	BYTE	W16
	BYTE		        Gs4 
	BYTE	W16
// 013   ----------------------------------------
	BYTE		        Fs4 
	BYTE	W16
	BYTE		        Fn4 
	BYTE	W16
	BYTE		        Ds4 
	BYTE	W16
	BYTE		        Cs4 
	BYTE	W16
	BYTE		        Bn3 
	BYTE	W16
	BYTE		        As3 
	BYTE	W16
// 014   ----------------------------------------
	BYTE		        Bn3 
	BYTE	W16
	BYTE		        Cs4 
	BYTE	W16
	BYTE		        Fn4 
	BYTE	W16
	BYTE		        Gs4 
	BYTE	W16
	BYTE		        Fs4 
	BYTE	W16
	BYTE		        Fn4 
	BYTE	W16
// 015   ----------------------------------------
	BYTE		N42     Ds4 
	BYTE	W48
	BYTE		        Cs4 
	BYTE	W48
// 016   ----------------------------------------
	BYTE	W96
// 017   ----------------------------------------
	BYTE	W96
// 018   ----------------------------------------
	BYTE	W96
// 019   ----------------------------------------
	BYTE	W96
// 020   ----------------------------------------
	BYTE	W96
// 021   ----------------------------------------
	BYTE	W96
// 022   ----------------------------------------
	BYTE	W96
// 023   ----------------------------------------
	BYTE	W96
// 024   ----------------------------------------
	BYTE	W96
// 025   ----------------------------------------
	BYTE	W96
// 026   ----------------------------------------
	BYTE	W96
// 027   ----------------------------------------
	BYTE	W96
// 028   ----------------------------------------
	BYTE	W96
// 029   ----------------------------------------
	BYTE	W96
// 030   ----------------------------------------
	BYTE	W96
// 031   ----------------------------------------
	BYTE	W96
// 032   ----------------------------------------
	BYTE	W96
// 033   ----------------------------------------
	BYTE	W96
// 034   ----------------------------------------
	BYTE	W96
// 035   ----------------------------------------
	BYTE	W96
// 036   ----------------------------------------
	BYTE	W96
// 037   ----------------------------------------
	BYTE	W96
// 038   ----------------------------------------
	BYTE	W96
// 039   ----------------------------------------
	BYTE	W96
	BYTE	GoTo
	 POIN2	AFFOGATO_FINAL_1_B1
AFFOGATO_FINAL_1_B2:
// 040   ----------------------------------------
	BYTE	FINE

//**************** Track 2 (Midi-Chn.2) ****************//

AFFOGATO_FINAL_2:
	BYTE	KEYSH   AFFOGATO_FINAL_key+0
AFFOGATO_FINAL_2_B1:
// 000   ----------------------------------------
	BYTE		VOICE   1
	BYTE		MODT    0
	BYTE		LFOS    44
	BYTE		VOL     69*AFFOGATO_FINAL_mvl/mxv
	BYTE		PAN     c_v-39
	BYTE		MODT    0
	BYTE		LFOS    44
	BYTE	W96
// 001   ----------------------------------------
	BYTE	W96
// 002   ----------------------------------------
	BYTE	W96
// 003   ----------------------------------------
	BYTE	W96
// 004   ----------------------------------------
	BYTE	W96
// 005   ----------------------------------------
	BYTE	W96
// 006   ----------------------------------------
	BYTE	W96
// 007   ----------------------------------------
	BYTE	W96
// 008   ----------------------------------------
	BYTE	W96
// 009   ----------------------------------------
	BYTE	W96
// 010   ----------------------------------------
	BYTE	W96
// 011   ----------------------------------------
	BYTE	W96
// 012   ----------------------------------------
	BYTE	W96
// 013   ----------------------------------------
	BYTE	W96
// 014   ----------------------------------------
	BYTE	W96
// 015   ----------------------------------------
	BYTE	W96
// 016   ----------------------------------------
AFFOGATO_FINAL_2_016:
	BYTE		N42     Ds3   v127
	BYTE	W48
	BYTE		N15     Fs3 
	BYTE	W16
	BYTE		        Gs3 
	BYTE	W16
	BYTE		        As3 
	BYTE	W16
	BYTE	PEND
// 017   ----------------------------------------
	BYTE		N42     Gs3 
	BYTE	W48
	BYTE		N15     Bn3 
	BYTE	W16
	BYTE		        As3 
	BYTE	W16
	BYTE		        Gs3 
	BYTE	W16
// 018   ----------------------------------------
	BYTE		        Fs3 
	BYTE	W16
	BYTE		        Fn3 
	BYTE	W16
	BYTE		        Fs3 
	BYTE	W16
	BYTE		        As3 
	BYTE	W16
	BYTE		        Gs3 
	BYTE	W16
	BYTE		        Fs3 
	BYTE	W16
// 019   ----------------------------------------
	BYTE		N32   
	BYTE	W36
	BYTE		N05     Gs3 
	BYTE	W06
	BYTE		        Fs3 
	BYTE	W06
	BYTE		N15     Fn3 
	BYTE	W16
	BYTE		        Ds3 
	BYTE	W16
	BYTE		        Cs3 
	BYTE	W16
// 020   ----------------------------------------
	BYTE	PATT
	 POIN2	AFFOGATO_FINAL_2_016
// 021   ----------------------------------------
	BYTE		N15     Bn3   v127
	BYTE	W16
	BYTE		        As3 
	BYTE	W16
	BYTE		        Bn3 
	BYTE	W16
	BYTE		        Ds4 
	BYTE	W16
	BYTE		        Fn4 
	BYTE	W16
	BYTE		        Ds4 
	BYTE	W16
// 022   ----------------------------------------
	BYTE		        Cs4 
	BYTE	W16
	BYTE		        Bn3 
	BYTE	W16
	BYTE		        As3 
	BYTE	W16
	BYTE		        Gs3 
	BYTE	W16
	BYTE		        As3 
	BYTE	W16
	BYTE		        Fs3 
	BYTE	W16
// 023   ----------------------------------------
	BYTE		N32     Gs3 
	BYTE	W36
	BYTE		N05     As3 
	BYTE	W06
	BYTE		        Bn3 
	BYTE	W06
	BYTE		N42     Cs4 
	BYTE	W48
// 024   ----------------------------------------
	BYTE		N15     Bn3 
	BYTE	W16
	BYTE		        Gs3 
	BYTE	W16
	BYTE		        Bn3 
	BYTE	W16
	BYTE		        Ds4 
	BYTE	W16
	BYTE		        Cs4 
	BYTE	W16
	BYTE		        Bn3 
	BYTE	W16
// 025   ----------------------------------------
	BYTE		        As3 
	BYTE	W16
	BYTE		        Gs3 
	BYTE	W16
	BYTE		        As3 
	BYTE	W16
	BYTE		N20     Fs3 
	BYTE	W24
	BYTE		        Cs3 
	BYTE	W24
// 026   ----------------------------------------
	BYTE		N15     Fn3 
	BYTE	W16
	BYTE		        Ds3 
	BYTE	W16
	BYTE		        Fn3 
	BYTE	W16
	BYTE		N42     Gs3 
	BYTE	W48
// 027   ----------------------------------------
	BYTE		N15     As3 
	BYTE	W16
	BYTE		        Gs3 
	BYTE	W16
	BYTE		        Fs3 
	BYTE	W16
	BYTE		N42     Cs4 
	BYTE	W48
// 028   ----------------------------------------
	BYTE		N15     Ds4 
	BYTE	W16
	BYTE		        Cs4 
	BYTE	W16
	BYTE		        Ds4 
	BYTE	W16
	BYTE		        Gs4 
	BYTE	W16
	BYTE		        As4 
	BYTE	W16
	BYTE		        Gs4 
	BYTE	W16
// 029   ----------------------------------------
	BYTE		        Fs4 
	BYTE	W16
	BYTE		        Fn4 
	BYTE	W16
	BYTE		        Ds4 
	BYTE	W16
	BYTE		        Cs4 
	BYTE	W16
	BYTE		        Bn3 
	BYTE	W16
	BYTE		        As3 
	BYTE	W16
// 030   ----------------------------------------
	BYTE		        Bn3 
	BYTE	W16
	BYTE		        Cs4 
	BYTE	W16
	BYTE		        Fn4 
	BYTE	W16
	BYTE		        Gs4 
	BYTE	W16
	BYTE		        Fs4 
	BYTE	W16
	BYTE		        Fn4 
	BYTE	W16
// 031   ----------------------------------------
	BYTE		N42     Ds4 
	BYTE	W48
	BYTE		        Cs4 
	BYTE	W48
// 032   ----------------------------------------
	BYTE	W96
// 033   ----------------------------------------
	BYTE	W96
// 034   ----------------------------------------
	BYTE	W96
// 035   ----------------------------------------
	BYTE	W96
// 036   ----------------------------------------
	BYTE		N15     Bn3 
	BYTE	W16
	BYTE		        As3 
	BYTE	W16
	BYTE		        Gs3 
	BYTE	W16
	BYTE		        Fs3 
	BYTE	W16
	BYTE		        Fn3 
	BYTE	W16
	BYTE		        Ds3 
	BYTE	W16
// 037   ----------------------------------------
	BYTE		N42     Cs3 
	BYTE	W48
	BYTE		N15     Fs3 
	BYTE	W16
	BYTE		        Gs3 
	BYTE	W16
	BYTE		        As3 
	BYTE	W16
// 038   ----------------------------------------
	BYTE		N42     Gs3 
	BYTE	W48
	BYTE		        Bn3 
	BYTE	W48
// 039   ----------------------------------------
	BYTE	W96
	BYTE	GoTo
	 POIN2	AFFOGATO_FINAL_2_B1
AFFOGATO_FINAL_2_B2:
// 040   ----------------------------------------
	BYTE	FINE

//**************** Track 3 (Midi-Chn.3) ****************//

AFFOGATO_FINAL_3:
	BYTE	KEYSH   AFFOGATO_FINAL_key+0
AFFOGATO_FINAL_3_B1:
// 000   ----------------------------------------
	BYTE		VOICE   98
	BYTE		MODT    0
	BYTE		LFOS    44
	BYTE		VOL     54*AFFOGATO_FINAL_mvl/mxv
	BYTE		PAN     c_v-22
	BYTE		MODT    0
	BYTE		LFOS    44
	BYTE		TIE     Ds2   v127
	BYTE	W96
// 001   ----------------------------------------
	BYTE	W96
	BYTE		EOT   
// 002   ----------------------------------------
	BYTE		TIE     Cs2 
	BYTE	W96
// 003   ----------------------------------------
	BYTE	W96
	BYTE		EOT   
// 004   ----------------------------------------
	BYTE		TIE     Ds2 
	BYTE	W96
// 005   ----------------------------------------
	BYTE	W96
	BYTE		EOT   
// 006   ----------------------------------------
	BYTE		TIE     Cs2 
	BYTE	W96
// 007   ----------------------------------------
	BYTE	W96
	BYTE		EOT   
// 008   ----------------------------------------
	BYTE		N96     Bn1 
	BYTE	W96
// 009   ----------------------------------------
	BYTE		        As1 
	BYTE	W96
// 010   ----------------------------------------
	BYTE		        Cs2 
	BYTE	W96
// 011   ----------------------------------------
AFFOGATO_FINAL_3_011:
	BYTE		N48     Ds2   v127
	BYTE	W48
	BYTE		        Cs2 
	BYTE	W48
	BYTE	PEND
// 012   ----------------------------------------
	BYTE		N96     Bn1 
	BYTE	W96
// 013   ----------------------------------------
	BYTE		        As1 
	BYTE	W96
// 014   ----------------------------------------
	BYTE		        Cs2 
	BYTE	W96
// 015   ----------------------------------------
	BYTE	PATT
	 POIN2	AFFOGATO_FINAL_3_011
// 016   ----------------------------------------
	BYTE		TIE     Ds2   v127
	BYTE	W96
// 017   ----------------------------------------
	BYTE	W96
	BYTE		EOT   
// 018   ----------------------------------------
	BYTE		TIE     Cs2 
	BYTE	W96
// 019   ----------------------------------------
	BYTE	W96
	BYTE		EOT   
// 020   ----------------------------------------
	BYTE		TIE     Ds2 
	BYTE	W96
// 021   ----------------------------------------
	BYTE	W96
	BYTE		EOT   
// 022   ----------------------------------------
	BYTE		TIE     Cs2 
	BYTE	W96
// 023   ----------------------------------------
	BYTE	W96
	BYTE		EOT   
// 024   ----------------------------------------
	BYTE		N96     Bn1 
	BYTE	W96
// 025   ----------------------------------------
	BYTE		        As1 
	BYTE	W96
// 026   ----------------------------------------
	BYTE		        Cs2 
	BYTE	W96
// 027   ----------------------------------------
	BYTE	PATT
	 POIN2	AFFOGATO_FINAL_3_011
// 028   ----------------------------------------
	BYTE		N96     Bn1   v127
	BYTE	W96
// 029   ----------------------------------------
	BYTE		        As1 
	BYTE	W96
// 030   ----------------------------------------
	BYTE		        Cs2 
	BYTE	W96
// 031   ----------------------------------------
	BYTE		N48     Ds2 
	BYTE	W48
	BYTE		N42     Cs2 
	BYTE	W48
// 032   ----------------------------------------
	BYTE		N96     Ds2 
	BYTE	W96
// 033   ----------------------------------------
	BYTE		        Gs1 
	BYTE	W96
// 034   ----------------------------------------
	BYTE		        As1 
	BYTE	W96
// 035   ----------------------------------------
	BYTE		        Ds2 
	BYTE	W96
// 036   ----------------------------------------
	BYTE		        Bn1 
	BYTE	W96
// 037   ----------------------------------------
	BYTE		        As1 
	BYTE	W96
// 038   ----------------------------------------
	BYTE		        Gs1 
	BYTE	W96
// 039   ----------------------------------------
	BYTE		        As1 
	BYTE	W96
	BYTE	GoTo
	 POIN2	AFFOGATO_FINAL_3_B1
AFFOGATO_FINAL_3_B2:
// 040   ----------------------------------------
	BYTE	FINE

//**************** Track 4 (Midi-Chn.4) ****************//

AFFOGATO_FINAL_4:
	BYTE	KEYSH   AFFOGATO_FINAL_key+0
AFFOGATO_FINAL_4_B1:
// 000   ----------------------------------------
	BYTE		VOICE   49
	BYTE		MODT    0
	BYTE		LFOS    44
	BYTE		VOL     72*AFFOGATO_FINAL_mvl/mxv
	BYTE		PAN     c_v-16
	BYTE		MODT    0
	BYTE		LFOS    44
	BYTE		N96     Ds2   v056
	BYTE		N96     Fs2 
	BYTE		N96     As2 
	BYTE	W96
// 001   ----------------------------------------
AFFOGATO_FINAL_4_001:
	BYTE		N96     Ds2   v056
	BYTE		N96     Gs2 
	BYTE		N96     Bn2 
	BYTE	W96
	BYTE	PEND
// 002   ----------------------------------------
AFFOGATO_FINAL_4_002:
	BYTE		N96     Fs2   v056
	BYTE		N96     As2 
	BYTE		N96     Cs3 
	BYTE	W96
	BYTE	PEND
// 003   ----------------------------------------
AFFOGATO_FINAL_4_003:
	BYTE		N96     Fn2   v056
	BYTE		N96     Gs2 
	BYTE		N96     Cs3 
	BYTE	W96
	BYTE	PEND
// 004   ----------------------------------------
AFFOGATO_FINAL_4_004:
	BYTE		N96     Ds2   v056
	BYTE		N96     Fs2 
	BYTE		N96     As2 
	BYTE	W96
	BYTE	PEND
// 005   ----------------------------------------
	BYTE	PATT
	 POIN2	AFFOGATO_FINAL_4_001
// 006   ----------------------------------------
	BYTE	PATT
	 POIN2	AFFOGATO_FINAL_4_002
// 007   ----------------------------------------
	BYTE	PATT
	 POIN2	AFFOGATO_FINAL_4_003
// 008   ----------------------------------------
	BYTE	PATT
	 POIN2	AFFOGATO_FINAL_4_001
// 009   ----------------------------------------
AFFOGATO_FINAL_4_009:
	BYTE		N96     Cs2   v056
	BYTE		N96     Fs2 
	BYTE		N96     As2 
	BYTE	W96
	BYTE	PEND
// 010   ----------------------------------------
AFFOGATO_FINAL_4_010:
	BYTE		N96     Bn1   v056
	BYTE		N96     Cs2 
	BYTE		N96     Fn2 
	BYTE		N96     Gs2 
	BYTE	W96
	BYTE	PEND
// 011   ----------------------------------------
AFFOGATO_FINAL_4_011:
	BYTE		N48     Ds2   v056
	BYTE		N48     Fs2 
	BYTE		N48     As2 
	BYTE	W48
	BYTE		        Cs2 
	BYTE		N48     Fn2 
	BYTE		N48     Gs2 
	BYTE	W48
	BYTE	PEND
// 012   ----------------------------------------
	BYTE	PATT
	 POIN2	AFFOGATO_FINAL_4_001
// 013   ----------------------------------------
	BYTE	PATT
	 POIN2	AFFOGATO_FINAL_4_009
// 014   ----------------------------------------
	BYTE	PATT
	 POIN2	AFFOGATO_FINAL_4_010
// 015   ----------------------------------------
	BYTE	PATT
	 POIN2	AFFOGATO_FINAL_4_011
// 016   ----------------------------------------
	BYTE	PATT
	 POIN2	AFFOGATO_FINAL_4_004
// 017   ----------------------------------------
	BYTE	PATT
	 POIN2	AFFOGATO_FINAL_4_001
// 018   ----------------------------------------
	BYTE	PATT
	 POIN2	AFFOGATO_FINAL_4_002
// 019   ----------------------------------------
	BYTE	PATT
	 POIN2	AFFOGATO_FINAL_4_003
// 020   ----------------------------------------
	BYTE	PATT
	 POIN2	AFFOGATO_FINAL_4_004
// 021   ----------------------------------------
	BYTE	PATT
	 POIN2	AFFOGATO_FINAL_4_001
// 022   ----------------------------------------
	BYTE	PATT
	 POIN2	AFFOGATO_FINAL_4_002
// 023   ----------------------------------------
	BYTE	PATT
	 POIN2	AFFOGATO_FINAL_4_003
// 024   ----------------------------------------
	BYTE	PATT
	 POIN2	AFFOGATO_FINAL_4_001
// 025   ----------------------------------------
	BYTE	PATT
	 POIN2	AFFOGATO_FINAL_4_009
// 026   ----------------------------------------
	BYTE	PATT
	 POIN2	AFFOGATO_FINAL_4_010
// 027   ----------------------------------------
	BYTE	PATT
	 POIN2	AFFOGATO_FINAL_4_011
// 028   ----------------------------------------
	BYTE	PATT
	 POIN2	AFFOGATO_FINAL_4_001
// 029   ----------------------------------------
	BYTE	PATT
	 POIN2	AFFOGATO_FINAL_4_009
// 030   ----------------------------------------
	BYTE	PATT
	 POIN2	AFFOGATO_FINAL_4_010
// 031   ----------------------------------------
	BYTE	PATT
	 POIN2	AFFOGATO_FINAL_4_011
// 032   ----------------------------------------
	BYTE		N90     As1   v056
	BYTE		TIE     Ds2 
	BYTE		N90     Gn2 
	BYTE	W96
// 033   ----------------------------------------
	BYTE		        Cn2 
	BYTE		TIE     Gs2 
	BYTE	W90
	BYTE		EOT     Ds2 
	BYTE	W06
// 034   ----------------------------------------
	BYTE		N90     Dn2 
	BYTE		N90     Fn2 
	BYTE		TIE     As2 
	BYTE	W90
	BYTE		EOT     Gs2 
	BYTE	W06
// 035   ----------------------------------------
	BYTE		N90     Ds2 
	BYTE		N90     Gn2 
	BYTE	W90
	BYTE		EOT     As2 
	BYTE	W06
// 036   ----------------------------------------
	BYTE	PATT
	 POIN2	AFFOGATO_FINAL_4_001
// 037   ----------------------------------------
	BYTE	PATT
	 POIN2	AFFOGATO_FINAL_4_009
// 038   ----------------------------------------
	BYTE		N96     Bn1   v056
	BYTE		N96     Ds2 
	BYTE		N96     Gs2 
	BYTE	W96
// 039   ----------------------------------------
	BYTE		N90     Ds2 
	BYTE		N90     Fs2 
	BYTE		N90     As2 
	BYTE	W96
	BYTE	GoTo
	 POIN2	AFFOGATO_FINAL_4_B1
AFFOGATO_FINAL_4_B2:
// 040   ----------------------------------------
	BYTE	FINE

//**************** Track 5 (Midi-Chn.5) ****************//

AFFOGATO_FINAL_5:
	BYTE	KEYSH   AFFOGATO_FINAL_key+0
AFFOGATO_FINAL_5_B1:
// 000   ----------------------------------------
	BYTE		VOICE   122
	BYTE		MODT    0
	BYTE		LFOS    44
	BYTE		VOL     50*AFFOGATO_FINAL_mvl/mxv
	BYTE		MODT    0
	BYTE		LFOS    44
	BYTE		PAN     c_v+0
	BYTE		MODT    0
	BYTE		LFOS    44
	BYTE		PAN     c_v+0
	BYTE		N05     Cn1   v127
	BYTE		N05     Fs1 
	BYTE		N05     An2 
	BYTE	W06
	BYTE		        Gs1 
	BYTE	W06
	BYTE		        As1 
	BYTE	W06
	BYTE		        Gs1 
	BYTE	W06
	BYTE		        Cs1 
	BYTE		N05     Fs1 
	BYTE	W06
	BYTE		        Gs1 
	BYTE	W06
	BYTE		        As1 
	BYTE	W06
	BYTE		        Gs1 
	BYTE	W06
	BYTE		        Cn1 
	BYTE		N05     Fs1 
	BYTE	W06
	BYTE		        Gs1 
	BYTE	W06
	BYTE		        As1 
	BYTE	W06
	BYTE		        Gs1 
	BYTE	W06
	BYTE		        Cs1 
	BYTE		N05     Fs1 
	BYTE	W06
	BYTE		        Gs1 
	BYTE	W06
	BYTE		        As1 
	BYTE	W06
	BYTE		        Gs1 
	BYTE	W06
// 001   ----------------------------------------
AFFOGATO_FINAL_5_001:
	BYTE		N05     Cn1   v127
	BYTE		N05     Fs1 
	BYTE	W06
	BYTE		        Gs1 
	BYTE	W06
	BYTE		        As1 
	BYTE	W06
	BYTE		        Gs1 
	BYTE	W06
	BYTE		        Cs1 
	BYTE		N05     Fs1 
	BYTE	W06
	BYTE		        Gs1 
	BYTE	W06
	BYTE		        As1 
	BYTE	W06
	BYTE		        Gs1 
	BYTE	W06
	BYTE		        Cn1 
	BYTE		N05     Fs1 
	BYTE	W06
	BYTE		        Gs1 
	BYTE	W06
	BYTE		        As1 
	BYTE	W06
	BYTE		        Gs1 
	BYTE	W06
	BYTE		        Cs1 
	BYTE		N05     Fs1 
	BYTE	W06
	BYTE		        Gs1 
	BYTE	W06
	BYTE		        As1 
	BYTE	W06
	BYTE		        Gs1 
	BYTE	W06
	BYTE	PEND
// 002   ----------------------------------------
	BYTE	PATT
	 POIN2	AFFOGATO_FINAL_5_001
// 003   ----------------------------------------
	BYTE	PATT
	 POIN2	AFFOGATO_FINAL_5_001
// 004   ----------------------------------------
	BYTE	PATT
	 POIN2	AFFOGATO_FINAL_5_001
// 005   ----------------------------------------
	BYTE	PATT
	 POIN2	AFFOGATO_FINAL_5_001
// 006   ----------------------------------------
	BYTE	PATT
	 POIN2	AFFOGATO_FINAL_5_001
// 007   ----------------------------------------
	BYTE	PATT
	 POIN2	AFFOGATO_FINAL_5_001
// 008   ----------------------------------------
	BYTE	PATT
	 POIN2	AFFOGATO_FINAL_5_001
// 009   ----------------------------------------
	BYTE	PATT
	 POIN2	AFFOGATO_FINAL_5_001
// 010   ----------------------------------------
	BYTE	PATT
	 POIN2	AFFOGATO_FINAL_5_001
// 011   ----------------------------------------
	BYTE	PATT
	 POIN2	AFFOGATO_FINAL_5_001
// 012   ----------------------------------------
	BYTE	PATT
	 POIN2	AFFOGATO_FINAL_5_001
// 013   ----------------------------------------
	BYTE	PATT
	 POIN2	AFFOGATO_FINAL_5_001
// 014   ----------------------------------------
	BYTE	PATT
	 POIN2	AFFOGATO_FINAL_5_001
// 015   ----------------------------------------
	BYTE		N05     Cn1   v127
	BYTE		N05     Fs1 
	BYTE	W06
	BYTE		        Gs1 
	BYTE	W06
	BYTE		        As1 
	BYTE	W06
	BYTE		        Gs1 
	BYTE	W06
	BYTE		        Cs1 
	BYTE		N05     Fs1 
	BYTE	W06
	BYTE		        Gs1 
	BYTE	W06
	BYTE		        As1 
	BYTE	W06
	BYTE		        Gs1 
	BYTE	W06
	BYTE		        Cn1 
	BYTE		N05     Fs1 
	BYTE	W06
	BYTE		        Gs1 
	BYTE	W06
	BYTE		        As1 
	BYTE	W06
	BYTE		        Gs1 
	BYTE	W06
	BYTE		N20     Cs1 
	BYTE		N20     Fs1 
	BYTE	W24
// 016   ----------------------------------------
	BYTE	PATT
	 POIN2	AFFOGATO_FINAL_5_001
// 017   ----------------------------------------
	BYTE	PATT
	 POIN2	AFFOGATO_FINAL_5_001
// 018   ----------------------------------------
	BYTE	PATT
	 POIN2	AFFOGATO_FINAL_5_001
// 019   ----------------------------------------
	BYTE	PATT
	 POIN2	AFFOGATO_FINAL_5_001
// 020   ----------------------------------------
	BYTE	PATT
	 POIN2	AFFOGATO_FINAL_5_001
// 021   ----------------------------------------
	BYTE	PATT
	 POIN2	AFFOGATO_FINAL_5_001
// 022   ----------------------------------------
	BYTE	PATT
	 POIN2	AFFOGATO_FINAL_5_001
// 023   ----------------------------------------
	BYTE	PATT
	 POIN2	AFFOGATO_FINAL_5_001
// 024   ----------------------------------------
	BYTE	PATT
	 POIN2	AFFOGATO_FINAL_5_001
// 025   ----------------------------------------
	BYTE	PATT
	 POIN2	AFFOGATO_FINAL_5_001
// 026   ----------------------------------------
	BYTE	PATT
	 POIN2	AFFOGATO_FINAL_5_001
// 027   ----------------------------------------
	BYTE	PATT
	 POIN2	AFFOGATO_FINAL_5_001
// 028   ----------------------------------------
	BYTE	PATT
	 POIN2	AFFOGATO_FINAL_5_001
// 029   ----------------------------------------
	BYTE	PATT
	 POIN2	AFFOGATO_FINAL_5_001
// 030   ----------------------------------------
	BYTE	PATT
	 POIN2	AFFOGATO_FINAL_5_001
// 031   ----------------------------------------
	BYTE		N05     Cn1   v127
	BYTE		N05     Fs1 
	BYTE	W06
	BYTE		        Gs1 
	BYTE	W06
	BYTE		        As1 
	BYTE	W06
	BYTE		        Gs1 
	BYTE	W06
	BYTE		        Cs1 
	BYTE		N05     Fs1 
	BYTE	W06
	BYTE		        Gs1 
	BYTE	W06
	BYTE		        As1 
	BYTE	W06
	BYTE		        Gs1 
	BYTE	W06
	BYTE		        Cn1 
	BYTE		N05     Fs1 
	BYTE	W06
	BYTE		        Gs1 
	BYTE	W06
	BYTE		        As1 
	BYTE	W06
	BYTE		        Gs1 
	BYTE	W06
	BYTE		        Cs1 
	BYTE		N05     Fs1 
	BYTE	W06
	BYTE		        En1 
	BYTE		N05     Gs1 
	BYTE	W06
	BYTE		        En1 
	BYTE		N05     As1 
	BYTE	W06
	BYTE		        Gs1 
	BYTE	W06
// 032   ----------------------------------------
	BYTE		        Cn1 
	BYTE		N05     Fs1 
	BYTE		N05     An2 
	BYTE	W06
	BYTE		        Gs1 
	BYTE	W06
	BYTE		        As1 
	BYTE	W06
	BYTE		        Gs1 
	BYTE	W06
	BYTE		        Cs1 
	BYTE		N05     En1 
	BYTE		N05     Fs1 
	BYTE	W06
	BYTE		        Gs1 
	BYTE	W06
	BYTE		        As1 
	BYTE	W06
	BYTE		        Gs1 
	BYTE	W06
	BYTE		        Cn1 
	BYTE		N05     Fs1 
	BYTE	W06
	BYTE		        En1 
	BYTE		N05     Gs1 
	BYTE	W06
	BYTE		        As1 
	BYTE	W06
	BYTE		        Gs1 
	BYTE	W06
	BYTE		        Cs1 
	BYTE		N05     En1 
	BYTE		N05     Fs1 
	BYTE	W06
	BYTE		        Gs1 
	BYTE	W06
	BYTE		        As1 
	BYTE	W06
	BYTE		        Gs1 
	BYTE	W06
// 033   ----------------------------------------
AFFOGATO_FINAL_5_033:
	BYTE		N05     Cn1   v127
	BYTE		N05     Fs1 
	BYTE	W06
	BYTE		        Gs1 
	BYTE	W06
	BYTE		        As1 
	BYTE	W06
	BYTE		        Gs1 
	BYTE	W06
	BYTE		        Cs1 
	BYTE		N05     En1 
	BYTE		N05     Fs1 
	BYTE	W06
	BYTE		        Gs1 
	BYTE	W06
	BYTE		        As1 
	BYTE	W06
	BYTE		        Gs1 
	BYTE	W06
	BYTE		        Cn1 
	BYTE		N05     Fs1 
	BYTE	W06
	BYTE		        En1 
	BYTE		N05     Gs1 
	BYTE	W06
	BYTE		        As1 
	BYTE	W06
	BYTE		        Gs1 
	BYTE	W06
	BYTE		        Cs1 
	BYTE		N05     En1 
	BYTE		N05     Fs1 
	BYTE	W06
	BYTE		        Gs1 
	BYTE	W06
	BYTE		        As1 
	BYTE	W06
	BYTE		        Cn1 
	BYTE		N05     Gs1 
	BYTE	W06
	BYTE	PEND
// 034   ----------------------------------------
AFFOGATO_FINAL_5_034:
	BYTE		N05     Cn1   v127
	BYTE		N05     Fs1 
	BYTE	W06
	BYTE		        Gs1 
	BYTE	W06
	BYTE		        As1 
	BYTE	W06
	BYTE		        Gs1 
	BYTE	W06
	BYTE		        Cs1 
	BYTE		N05     En1 
	BYTE		N05     Fs1 
	BYTE	W06
	BYTE		        Gs1 
	BYTE	W06
	BYTE		        As1 
	BYTE	W06
	BYTE		        Gs1 
	BYTE	W06
	BYTE		        Cn1 
	BYTE		N05     Fs1 
	BYTE	W06
	BYTE		        En1 
	BYTE		N05     Gs1 
	BYTE	W06
	BYTE		        As1 
	BYTE	W06
	BYTE		        Gs1 
	BYTE	W06
	BYTE		        Cs1 
	BYTE		N05     En1 
	BYTE		N05     Fs1 
	BYTE	W06
	BYTE		        Gs1 
	BYTE	W06
	BYTE		        As1 
	BYTE	W06
	BYTE		        Gs1 
	BYTE	W06
	BYTE	PEND
// 035   ----------------------------------------
	BYTE	PATT
	 POIN2	AFFOGATO_FINAL_5_033
// 036   ----------------------------------------
	BYTE	PATT
	 POIN2	AFFOGATO_FINAL_5_034
// 037   ----------------------------------------
	BYTE	PATT
	 POIN2	AFFOGATO_FINAL_5_033
// 038   ----------------------------------------
	BYTE		N05     Cn1   v127
	BYTE		N05     Fs1 
	BYTE	W06
	BYTE		        Gs1 
	BYTE	W06
	BYTE		        As1 
	BYTE	W06
	BYTE		        Gs1 
	BYTE	W06
	BYTE		        Cs1 
	BYTE		N05     En1 
	BYTE		N05     Fs1 
	BYTE	W06
	BYTE		        Gs1 
	BYTE	W06
	BYTE		        As1 
	BYTE	W06
	BYTE		        Gs1 
	BYTE	W06
	BYTE		        Cn1 
	BYTE		N05     Fs1 
	BYTE	W06
	BYTE		        En1 
	BYTE		N05     Gs1 
	BYTE	W06
	BYTE		        As1 
	BYTE	W06
	BYTE		        Gs1 
	BYTE	W06
	BYTE		        Cs1 
	BYTE		N05     En1 
	BYTE		N05     Fs1 
	BYTE	W06
	BYTE		        Gs1 
	BYTE	W06
	BYTE		        En1 
	BYTE		N05     As1 
	BYTE	W06
	BYTE		        En1 
	BYTE		N05     Gs1 
	BYTE	W06
// 039   ----------------------------------------
	BYTE		N20     Fs1 
	BYTE		N90     An1 
	BYTE		N90     Bn1 
	BYTE		N90     Cn2 
	BYTE		N90     Dn2 
	BYTE		N90     An2 
	BYTE	W24
	BYTE		N20     Fs1 
	BYTE	W24
	BYTE		N20   
	BYTE	W24
	BYTE		N20   
	BYTE	W20
	BYTE		MODT    0
	BYTE		LFOS    44
	BYTE		PAN     c_v+0
	BYTE	W04
	BYTE	GoTo
	 POIN2	AFFOGATO_FINAL_5_B1
AFFOGATO_FINAL_5_B2:
// 040   ----------------------------------------
	BYTE	FINE

//**************** Track 6 (Midi-Chn.6) ****************//

AFFOGATO_FINAL_6:
	BYTE	KEYSH   AFFOGATO_FINAL_key+0
AFFOGATO_FINAL_6_B1:
// 000   ----------------------------------------
	BYTE		VOICE   0
	BYTE		MODT    0
	BYTE		LFOS    44
	BYTE		VOL     73*AFFOGATO_FINAL_mvl/mxv
	BYTE		PAN     c_v+37
	BYTE		LFOS    44
	BYTE		MODT    0
	BYTE	W96
// 001   ----------------------------------------
	BYTE	W96
// 002   ----------------------------------------
	BYTE	W96
// 003   ----------------------------------------
	BYTE	W96
// 004   ----------------------------------------
	BYTE	W96
// 005   ----------------------------------------
	BYTE	W96
// 006   ----------------------------------------
	BYTE	W96
// 007   ----------------------------------------
	BYTE	W96
// 008   ----------------------------------------
	BYTE	W96
// 009   ----------------------------------------
	BYTE	W96
// 010   ----------------------------------------
	BYTE	W96
// 011   ----------------------------------------
	BYTE	W96
// 012   ----------------------------------------
	BYTE	W96
// 013   ----------------------------------------
	BYTE	W96
// 014   ----------------------------------------
	BYTE	W96
// 015   ----------------------------------------
	BYTE	W96
// 016   ----------------------------------------
AFFOGATO_FINAL_6_016:
	BYTE		N42     As2   v127
	BYTE	W48
	BYTE		N15     Cs3 
	BYTE	W16
	BYTE		        Ds3 
	BYTE	W16
	BYTE		        Fn3 
	BYTE	W16
	BYTE	PEND
// 017   ----------------------------------------
	BYTE		N42     Ds3 
	BYTE	W48
	BYTE		N15     Fs3 
	BYTE	W16
	BYTE		        Fn3 
	BYTE	W16
	BYTE		        Ds3 
	BYTE	W16
// 018   ----------------------------------------
	BYTE		        Cs3 
	BYTE	W16
	BYTE		        Cn3 
	BYTE	W16
	BYTE		        Cs3 
	BYTE	W16
	BYTE		        Fn3 
	BYTE	W16
	BYTE		        Ds3 
	BYTE	W16
	BYTE		        Cs3 
	BYTE	W16
// 019   ----------------------------------------
	BYTE		N32   
	BYTE	W36
	BYTE		N05     Ds3 
	BYTE	W06
	BYTE		        Cs3 
	BYTE	W06
	BYTE		N15     Cn3 
	BYTE	W16
	BYTE		        As2 
	BYTE	W16
	BYTE		        Gs2 
	BYTE	W16
// 020   ----------------------------------------
	BYTE	PATT
	 POIN2	AFFOGATO_FINAL_6_016
// 021   ----------------------------------------
	BYTE		N15     Fs3   v127
	BYTE	W16
	BYTE		        Fn3 
	BYTE	W16
	BYTE		        Fs3 
	BYTE	W16
	BYTE		        As3 
	BYTE	W16
	BYTE		        Cn4 
	BYTE	W16
	BYTE		        As3 
	BYTE	W16
// 022   ----------------------------------------
	BYTE		        Gs3 
	BYTE	W16
	BYTE		        Fs3 
	BYTE	W16
	BYTE		        Fn3 
	BYTE	W16
	BYTE		        Ds3 
	BYTE	W16
	BYTE		        Fn3 
	BYTE	W16
	BYTE		        Cs3 
	BYTE	W16
// 023   ----------------------------------------
	BYTE		N32     Ds3 
	BYTE	W36
	BYTE		N05     Fn3 
	BYTE	W06
	BYTE		        Fs3 
	BYTE	W06
	BYTE		N42     Gs3 
	BYTE	W48
// 024   ----------------------------------------
	BYTE		N15     Fs3 
	BYTE	W16
	BYTE		        Ds3 
	BYTE	W16
	BYTE		        Fs3 
	BYTE	W16
	BYTE		        As3 
	BYTE	W16
	BYTE		        Gs3 
	BYTE	W16
	BYTE		        Fs3 
	BYTE	W16
// 025   ----------------------------------------
	BYTE		        Fn3 
	BYTE	W16
	BYTE		        Ds3 
	BYTE	W16
	BYTE		        Fn3 
	BYTE	W16
	BYTE		N20     Cs3 
	BYTE	W24
	BYTE		        Gs2 
	BYTE	W24
// 026   ----------------------------------------
	BYTE		N15     Cn3 
	BYTE	W16
	BYTE		        As2 
	BYTE	W16
	BYTE		        Cn3 
	BYTE	W16
	BYTE		N42     Ds3 
	BYTE	W48
// 027   ----------------------------------------
	BYTE		N15     Fn3 
	BYTE	W16
	BYTE		        Ds3 
	BYTE	W16
	BYTE		        Cs3 
	BYTE	W16
	BYTE		N42     Gs3 
	BYTE	W48
// 028   ----------------------------------------
	BYTE		N15     As3 
	BYTE	W16
	BYTE		        Gs3 
	BYTE	W16
	BYTE		        As3 
	BYTE	W16
	BYTE		        Ds4 
	BYTE	W16
	BYTE		        Fn4 
	BYTE	W16
	BYTE		        Ds4 
	BYTE	W16
// 029   ----------------------------------------
	BYTE		        Cs4 
	BYTE	W16
	BYTE		        Cn4 
	BYTE	W16
	BYTE		        As3 
	BYTE	W16
	BYTE		        Gs3 
	BYTE	W16
	BYTE		        Fs3 
	BYTE	W16
	BYTE		        Fn3 
	BYTE	W16
// 030   ----------------------------------------
	BYTE		        Fs3 
	BYTE	W16
	BYTE		        Gs3 
	BYTE	W16
	BYTE		        Cn4 
	BYTE	W16
	BYTE		        Ds4 
	BYTE	W16
	BYTE		        Cs4 
	BYTE	W16
	BYTE		        Cn4 
	BYTE	W16
// 031   ----------------------------------------
	BYTE		N42     As3 
	BYTE	W48
	BYTE		        Gs3 
	BYTE	W48
// 032   ----------------------------------------
	BYTE		N15     Fs3 
	BYTE	W16
	BYTE		        Fn3 
	BYTE	W16
	BYTE		        Ds3 
	BYTE	W16
	BYTE		        Cs3 
	BYTE	W16
	BYTE		        Cn3 
	BYTE	W16
	BYTE		        As2 
	BYTE	W16
// 033   ----------------------------------------
	BYTE		N42     Gs2 
	BYTE	W48
	BYTE		N15     Cs3 
	BYTE	W16
	BYTE		        Ds3 
	BYTE	W16
	BYTE		        Fn3 
	BYTE	W16
// 034   ----------------------------------------
	BYTE		N42     Ds3 
	BYTE	W48
	BYTE		        Fs3 
	BYTE	W48
// 035   ----------------------------------------
	BYTE		TIE     Fn3 
	BYTE	W96
// 036   ----------------------------------------
	BYTE	W90
	BYTE		EOT   
	BYTE	W05
	BYTE		LFOS    44
	BYTE		MODT    0
	BYTE	W01
// 037   ----------------------------------------
	BYTE	W96
// 038   ----------------------------------------
	BYTE	W96
// 039   ----------------------------------------
	BYTE	W96
	BYTE	GoTo
	 POIN2	AFFOGATO_FINAL_6_B1
AFFOGATO_FINAL_6_B2:
// 040   ----------------------------------------
	BYTE	FINE

//**************** Track 7 (Midi-Chn.7) ****************//

AFFOGATO_FINAL_7:
	BYTE	KEYSH   AFFOGATO_FINAL_key+0
AFFOGATO_FINAL_7_B1:
// 000   ----------------------------------------
	BYTE		VOICE   81
	BYTE		MODT    0
	BYTE		LFOS    44
	BYTE		VOL     58*AFFOGATO_FINAL_mvl/mxv
	BYTE		PAN     c_v-11
	BYTE		MODT    0
	BYTE		LFOS    44
	BYTE	W96
// 001   ----------------------------------------
	BYTE	W96
// 002   ----------------------------------------
	BYTE	W96
// 003   ----------------------------------------
	BYTE	W96
// 004   ----------------------------------------
	BYTE	W96
// 005   ----------------------------------------
	BYTE	W96
// 006   ----------------------------------------
	BYTE	W96
// 007   ----------------------------------------
	BYTE	W96
// 008   ----------------------------------------
	BYTE	W96
// 009   ----------------------------------------
	BYTE	W96
// 010   ----------------------------------------
	BYTE	W96
// 011   ----------------------------------------
	BYTE	W96
// 012   ----------------------------------------
	BYTE	W96
// 013   ----------------------------------------
	BYTE	W96
// 014   ----------------------------------------
	BYTE	W96
// 015   ----------------------------------------
	BYTE	W96
// 016   ----------------------------------------
	BYTE		TIE     Ds1   v127
	BYTE	W96
// 017   ----------------------------------------
	BYTE	W96
	BYTE		EOT   
// 018   ----------------------------------------
	BYTE		TIE     Cs1 
	BYTE	W96
// 019   ----------------------------------------
	BYTE	W96
	BYTE		EOT   
// 020   ----------------------------------------
	BYTE		TIE     Ds1 
	BYTE	W96
// 021   ----------------------------------------
	BYTE	W96
	BYTE		EOT   
// 022   ----------------------------------------
	BYTE		TIE     Cs1 
	BYTE	W96
// 023   ----------------------------------------
	BYTE	W96
	BYTE		EOT   
// 024   ----------------------------------------
	BYTE		N96     Bn0 
	BYTE	W96
// 025   ----------------------------------------
	BYTE		        As0 
	BYTE	W96
// 026   ----------------------------------------
	BYTE		        Cs1 
	BYTE	W96
// 027   ----------------------------------------
	BYTE		N48     Ds1 
	BYTE	W48
	BYTE		        Cs1 
	BYTE	W48
// 028   ----------------------------------------
	BYTE		N96     Bn0 
	BYTE	W96
// 029   ----------------------------------------
	BYTE		        As0 
	BYTE	W96
// 030   ----------------------------------------
	BYTE		        Cs1 
	BYTE	W96
// 031   ----------------------------------------
	BYTE		N48     Ds1 
	BYTE	W48
	BYTE		N42     Cs1 
	BYTE	W48
// 032   ----------------------------------------
	BYTE	W96
// 033   ----------------------------------------
	BYTE	W96
// 034   ----------------------------------------
	BYTE	W96
// 035   ----------------------------------------
	BYTE	W96
// 036   ----------------------------------------
	BYTE		N96     Bn0 
	BYTE	W96
// 037   ----------------------------------------
	BYTE		        As0 
	BYTE	W96
// 038   ----------------------------------------
	BYTE		        Gs0 
	BYTE	W96
// 039   ----------------------------------------
	BYTE		        As0 
	BYTE	W96
	BYTE	GoTo
	 POIN2	AFFOGATO_FINAL_7_B1
AFFOGATO_FINAL_7_B2:
// 040   ----------------------------------------
	BYTE	FINE

//**************** Track 8 (Midi-Chn.8) ****************//

AFFOGATO_FINAL_8:
	BYTE	KEYSH   AFFOGATO_FINAL_key+0
AFFOGATO_FINAL_8_B1:
// 000   ----------------------------------------
	BYTE		VOICE   73
	BYTE		MODT    0
	BYTE		LFOS    44
	BYTE		VOL     60*AFFOGATO_FINAL_mvl/mxv
	BYTE		PAN     c_v-45
	BYTE		LFOS    44
	BYTE		MODT    0
	BYTE	W96
// 001   ----------------------------------------
	BYTE	W96
// 002   ----------------------------------------
	BYTE	W96
// 003   ----------------------------------------
	BYTE	W96
// 004   ----------------------------------------
	BYTE	W96
// 005   ----------------------------------------
	BYTE	W96
// 006   ----------------------------------------
	BYTE	W96
// 007   ----------------------------------------
	BYTE	W96
// 008   ----------------------------------------
	BYTE	W96
// 009   ----------------------------------------
	BYTE	W96
// 010   ----------------------------------------
	BYTE	W96
// 011   ----------------------------------------
	BYTE	W96
// 012   ----------------------------------------
	BYTE	W96
// 013   ----------------------------------------
	BYTE	W96
// 014   ----------------------------------------
	BYTE	W96
// 015   ----------------------------------------
	BYTE	W96
// 016   ----------------------------------------
	BYTE	W96
// 017   ----------------------------------------
	BYTE	W96
// 018   ----------------------------------------
	BYTE	W96
// 019   ----------------------------------------
	BYTE	W96
// 020   ----------------------------------------
	BYTE	W96
// 021   ----------------------------------------
	BYTE	W96
// 022   ----------------------------------------
	BYTE	W96
// 023   ----------------------------------------
	BYTE	W96
// 024   ----------------------------------------
	BYTE	W96
// 025   ----------------------------------------
	BYTE	W96
// 026   ----------------------------------------
	BYTE	W96
// 027   ----------------------------------------
	BYTE	W96
// 028   ----------------------------------------
	BYTE	W96
// 029   ----------------------------------------
	BYTE	W96
// 030   ----------------------------------------
	BYTE	W96
// 031   ----------------------------------------
	BYTE	W96
// 032   ----------------------------------------
	BYTE		N32     Fn4   v127
	BYTE	W36
	BYTE		N05     Gn4 
	BYTE	W06
	BYTE		        Gs4 
	BYTE	W06
	BYTE		N32     Ds4 
	BYTE	W36
	BYTE		N05   
	BYTE	W06
	BYTE		        Cs4 
	BYTE	W06
// 033   ----------------------------------------
	BYTE		N15     Cn4 
	BYTE	W16
	BYTE		        As3 
	BYTE	W16
	BYTE		        Gs3 
	BYTE	W16
	BYTE		N42     Cn4 
	BYTE	W48
// 034   ----------------------------------------
	BYTE		N15     Fn4 
	BYTE	W16
	BYTE		        Ds4 
	BYTE	W16
	BYTE		        Fn4 
	BYTE	W16
	BYTE		        Gs4 
	BYTE	W16
	BYTE		        As4 
	BYTE	W16
	BYTE		        Cn5 
	BYTE	W16
// 035   ----------------------------------------
	BYTE		        Cs5 
	BYTE	W16
	BYTE		        Cn5 
	BYTE	W16
	BYTE		        Cs5 
	BYTE	W16
	BYTE		N42     As4 
	BYTE	W48
// 036   ----------------------------------------
	BYTE	W96
// 037   ----------------------------------------
	BYTE	W96
// 038   ----------------------------------------
	BYTE	W96
// 039   ----------------------------------------
	BYTE	W96
	BYTE	GoTo
	 POIN2	AFFOGATO_FINAL_8_B1
AFFOGATO_FINAL_8_B2:
// 040   ----------------------------------------
	BYTE	FINE

//**************** Track 9 (Midi-Chn.9) ****************//

AFFOGATO_FINAL_9:
	BYTE	KEYSH   AFFOGATO_FINAL_key+0
AFFOGATO_FINAL_9_B1:
// 000   ----------------------------------------
	BYTE		VOICE   73
	BYTE		MODT    0
	BYTE		LFOS    44
	BYTE		VOL     61*AFFOGATO_FINAL_mvl/mxv
	BYTE		PAN     c_v+45
	BYTE		MODT    0
	BYTE		LFOS    44
	BYTE	W96
// 001   ----------------------------------------
	BYTE	W96
// 002   ----------------------------------------
	BYTE	W96
// 003   ----------------------------------------
	BYTE	W96
// 004   ----------------------------------------
	BYTE	W96
// 005   ----------------------------------------
	BYTE	W96
// 006   ----------------------------------------
	BYTE	W96
// 007   ----------------------------------------
	BYTE	W96
// 008   ----------------------------------------
	BYTE	W96
// 009   ----------------------------------------
	BYTE	W96
// 010   ----------------------------------------
	BYTE	W96
// 011   ----------------------------------------
	BYTE	W96
// 012   ----------------------------------------
	BYTE	W96
// 013   ----------------------------------------
	BYTE	W96
// 014   ----------------------------------------
	BYTE	W96
// 015   ----------------------------------------
	BYTE	W96
// 016   ----------------------------------------
	BYTE	W96
// 017   ----------------------------------------
	BYTE	W96
// 018   ----------------------------------------
	BYTE	W96
// 019   ----------------------------------------
	BYTE	W96
// 020   ----------------------------------------
	BYTE	W96
// 021   ----------------------------------------
	BYTE	W96
// 022   ----------------------------------------
	BYTE	W96
// 023   ----------------------------------------
	BYTE	W96
// 024   ----------------------------------------
	BYTE	W96
// 025   ----------------------------------------
	BYTE	W96
// 026   ----------------------------------------
	BYTE	W96
// 027   ----------------------------------------
	BYTE	W96
// 028   ----------------------------------------
	BYTE	W96
// 029   ----------------------------------------
	BYTE	W96
// 030   ----------------------------------------
	BYTE	W96
// 031   ----------------------------------------
	BYTE	W96
// 032   ----------------------------------------
	BYTE	W96
// 033   ----------------------------------------
	BYTE	W96
// 034   ----------------------------------------
	BYTE	W96
// 035   ----------------------------------------
	BYTE	W96
// 036   ----------------------------------------
	BYTE		N48     Bn4   v127
	BYTE	W48
	BYTE		N24     Cs5 
	BYTE	W24
	BYTE		        Dn5 
	BYTE	W24
// 037   ----------------------------------------
	BYTE		N48     Cs5 
	BYTE	W48
	BYTE		N24     An4 
	BYTE	W24
	BYTE		        En4 
	BYTE	W24
// 038   ----------------------------------------
	BYTE		N48     Cs5 
	BYTE	W48
	BYTE		N24   
	BYTE	W24
	BYTE		        Dn5 
	BYTE	W24
// 039   ----------------------------------------
	BYTE		N90     Bn4 
	BYTE	W96
	BYTE	GoTo
	 POIN2	AFFOGATO_FINAL_9_B1
AFFOGATO_FINAL_9_B2:
// 040   ----------------------------------------
	BYTE	FINE

//******************************************************//
	ALIGN 4

AFFOGATO_FINAL:
	BYTE	9	// NumTrks
	BYTE	0	// NumBlks
	BYTE	AFFOGATO_FINAL_pri	// Priority
	BYTE	AFFOGATO_FINAL_rev	// Reverb.

	POIN2	AFFOGATO_FINAL_grp

	POIN2	AFFOGATO_FINAL_1
	POIN2	AFFOGATO_FINAL_2
	POIN2	AFFOGATO_FINAL_3
	POIN2	AFFOGATO_FINAL_4
	POIN2	AFFOGATO_FINAL_5
	POIN2	AFFOGATO_FINAL_6
	POIN2	AFFOGATO_FINAL_7
	POIN2	AFFOGATO_FINAL_8
	POIN2	AFFOGATO_FINAL_9

	
