//Event file generated from Sappy .s format.
	#include "MPlayDef.event"

	#define	CheersMate_FINAL_grp  voicegroup000
	#define	CheersMate_FINAL_pri  0
	#define	CheersMate_FINAL_rev  94
	#define	CheersMate_FINAL_mvl  34
	#define	CheersMate_FINAL_key  0
	#define	CheersMate_FINAL_tbs  1
	#define	CheersMate_FINAL_exg  0
	#define	CheersMate_FINAL_cmp  1

	// .rodata
	//	CheersMate_FINAL
	ALIGN 4

//**************** Track 1 (Midi-Chn.1) ****************//

CheersMate_FINAL_1:
	BYTE	KEYSH   CheersMate_FINAL_key+0
CheersMate_FINAL_1_B1:
// 000   ----------------------------------------
	BYTE	TEMPO   100*CheersMate_FINAL_tbs/2
	BYTE		VOICE   60
	BYTE		MODT    0
	BYTE		LFOS    44
	BYTE		PAN     c_v+14
	BYTE		VOL     127*CheersMate_FINAL_mvl/mxv
	BYTE	W96
// 001   ----------------------------------------
	BYTE	W96
// 002   ----------------------------------------
	BYTE	W96
// 003   ----------------------------------------
	BYTE	W96
// 004   ----------------------------------------
	BYTE	W96
// 005   ----------------------------------------
	BYTE	W96
// 006   ----------------------------------------
	BYTE	W96
// 007   ----------------------------------------
	BYTE	W96
// 008   ----------------------------------------
CheersMate_FINAL_1_008:
	BYTE		N05     En4   v100
	BYTE	W06
	BYTE		        Fn4 
	BYTE	W06
	BYTE		N04     Gn4 
	BYTE	W12
	BYTE		N04   
	BYTE	W12
	BYTE		N20   
	BYTE	W36
	BYTE		N11     Cn5 
	BYTE	W12
	BYTE		        Cn4 
	BYTE	W12
	BYTE	PEND
// 009   ----------------------------------------
CheersMate_FINAL_1_009:
	BYTE		N11     Dn4   v100
	BYTE	W12
	BYTE		N42     En4 
	BYTE	W84
	BYTE	PEND
// 010   ----------------------------------------
CheersMate_FINAL_1_010:
	BYTE		N05     Cn4   v100
	BYTE	W06
	BYTE		        Dn4 
	BYTE	W06
	BYTE		N04     En4 
	BYTE	W12
	BYTE		N04   
	BYTE	W12
	BYTE		N20   
	BYTE	W36
	BYTE		N11     Fn4 
	BYTE	W12
	BYTE		        En4 
	BYTE	W12
	BYTE	PEND
// 011   ----------------------------------------
CheersMate_FINAL_1_011:
	BYTE		N11     Dn4   v100
	BYTE	W12
	BYTE		N42     Cn4 
	BYTE	W60
	BYTE		N11     Dn4 
	BYTE	W12
	BYTE		        En4 
	BYTE	W12
	BYTE	PEND
// 012   ----------------------------------------
CheersMate_FINAL_1_012:
	BYTE		N11     Gn4   v100
	BYTE	W12
	BYTE		N32     An4 
	BYTE	W36
	BYTE		N11     Gn4 
	BYTE	W12
	BYTE		        Fn4 
	BYTE	W12
	BYTE		        Dn4 
	BYTE	W12
	BYTE		        En4 
	BYTE	W12
	BYTE	PEND
// 013   ----------------------------------------
CheersMate_FINAL_1_013:
	BYTE		N11     Fn4   v100
	BYTE	W12
	BYTE		N32     Gn4 
	BYTE	W36
	BYTE		N11     Fn4 
	BYTE	W12
	BYTE		        En4 
	BYTE	W12
	BYTE		        Cn4 
	BYTE	W12
	BYTE		        Dn4 
	BYTE	W12
	BYTE	PEND
// 014   ----------------------------------------
	BYTE		        En4 
	BYTE	W12
	BYTE		        Dn4 
	BYTE	W12
	BYTE		        En4 
	BYTE	W12
	BYTE		N32     Fs4 
	BYTE	W36
	BYTE		N11     Dn4 
	BYTE	W12
	BYTE		        En4 
	BYTE	W12
// 015   ----------------------------------------
	BYTE		        Fs4 
	BYTE	W12
	BYTE		N66     Gn4 
	BYTE	W84
// 016   ----------------------------------------
	BYTE	PATT
	 POIN2	CheersMate_FINAL_1_008
// 017   ----------------------------------------
	BYTE	PATT
	 POIN2	CheersMate_FINAL_1_009
// 018   ----------------------------------------
	BYTE	PATT
	 POIN2	CheersMate_FINAL_1_010
// 019   ----------------------------------------
	BYTE	PATT
	 POIN2	CheersMate_FINAL_1_011
// 020   ----------------------------------------
	BYTE	PATT
	 POIN2	CheersMate_FINAL_1_012
// 021   ----------------------------------------
	BYTE	PATT
	 POIN2	CheersMate_FINAL_1_013
// 022   ----------------------------------------
	BYTE		N11     En4   v100
	BYTE	W12
	BYTE		N20     Fn4 
	BYTE	W24
	BYTE		        En4 
	BYTE	W24
	BYTE		        Dn4 
	BYTE	W24
	BYTE		N11     Cn4 
	BYTE	W12
// 023   ----------------------------------------
	BYTE		        Bn3 
	BYTE	W12
	BYTE		N66     Cn4 
	BYTE	W84
// 024   ----------------------------------------
	BYTE	W96
// 025   ----------------------------------------
	BYTE	W96
// 026   ----------------------------------------
	BYTE	W96
// 027   ----------------------------------------
	BYTE	W96
// 028   ----------------------------------------
	BYTE	W96
// 029   ----------------------------------------
	BYTE	W96
// 030   ----------------------------------------
	BYTE	W96
// 031   ----------------------------------------
	BYTE	W96
// 032   ----------------------------------------
	BYTE	W06
	BYTE	GoTo
	 POIN2	CheersMate_FINAL_1_B1
CheersMate_FINAL_1_B2:
	BYTE	FINE

//**************** Track 2 (Midi-Chn.2) ****************//

CheersMate_FINAL_2:
	BYTE	KEYSH   CheersMate_FINAL_key+0
CheersMate_FINAL_2_B1:
// 000   ----------------------------------------
	BYTE		VOICE   0
	BYTE		MODT    0
	BYTE		LFOS    44
	BYTE		PAN     c_v-7
	BYTE		VOL     127*CheersMate_FINAL_mvl/mxv
	BYTE		N11     Gn3   v100
	BYTE	W12
	BYTE		        Cn3 
	BYTE	W12
	BYTE		        Gn3 
	BYTE	W12
	BYTE		        Cn4 
	BYTE	W12
	BYTE		        Gn3 
	BYTE	W12
	BYTE		        Cn3 
	BYTE	W12
	BYTE		        Gn3 
	BYTE	W12
	BYTE		        Cn4 
	BYTE	W12
// 001   ----------------------------------------
CheersMate_FINAL_2_001:
	BYTE		N11     Gn3   v100
	BYTE	W12
	BYTE		        Cn3 
	BYTE	W12
	BYTE		        Fn3 
	BYTE	W12
	BYTE		        An3 
	BYTE	W12
	BYTE		        Fn3 
	BYTE	W12
	BYTE		        Cn3 
	BYTE	W12
	BYTE		        Fn3 
	BYTE	W12
	BYTE		        An3 
	BYTE	W12
	BYTE	PEND
// 002   ----------------------------------------
CheersMate_FINAL_2_002:
	BYTE		N11     Fn3   v100
	BYTE	W12
	BYTE		        Dn3 
	BYTE	W12
	BYTE		        Gn3 
	BYTE	W12
	BYTE		        Bn3 
	BYTE	W12
	BYTE		        Gn3 
	BYTE	W12
	BYTE		        Dn3 
	BYTE	W12
	BYTE		        Gn3 
	BYTE	W12
	BYTE		        Bn3 
	BYTE	W12
	BYTE	PEND
// 003   ----------------------------------------
CheersMate_FINAL_2_003:
	BYTE		N11     Gn3   v100
	BYTE	W12
	BYTE		        Cn3 
	BYTE	W12
	BYTE		        Gn3 
	BYTE	W12
	BYTE		        Cn4 
	BYTE	W12
	BYTE		        Gn3 
	BYTE	W12
	BYTE		        Cn3 
	BYTE	W12
	BYTE		        Gn3 
	BYTE	W12
	BYTE		        Cn4 
	BYTE	W12
	BYTE	PEND
// 004   ----------------------------------------
CheersMate_FINAL_2_004:
	BYTE		N11     Gn3   v100
	BYTE	W12
	BYTE		        Cn3 
	BYTE	W12
	BYTE		        Fn3 
	BYTE	W12
	BYTE		        An3 
	BYTE	W12
	BYTE		        Fn3 
	BYTE	W12
	BYTE		        Dn3 
	BYTE	W12
	BYTE		        Gn3 
	BYTE	W12
	BYTE		        Bn3 
	BYTE	W12
	BYTE	PEND
// 005   ----------------------------------------
CheersMate_FINAL_2_005:
	BYTE		N11     Gn3   v100
	BYTE	W12
	BYTE		        Cn3 
	BYTE	W12
	BYTE		        Gn3 
	BYTE	W12
	BYTE		        Cn4 
	BYTE	W12
	BYTE		        Gn3 
	BYTE	W12
	BYTE		        Cn3 
	BYTE	W12
	BYTE		        An3 
	BYTE	W12
	BYTE		        Cn4 
	BYTE	W12
	BYTE	PEND
// 006   ----------------------------------------
CheersMate_FINAL_2_006:
	BYTE		N11     An3   v100
	BYTE	W12
	BYTE		        Cn3 
	BYTE	W12
	BYTE		        Fn3 
	BYTE	W12
	BYTE		        An3 
	BYTE	W12
	BYTE		        Fn3 
	BYTE	W12
	BYTE		        Dn3 
	BYTE	W12
	BYTE		        Gn3 
	BYTE	W12
	BYTE		        Bn3 
	BYTE	W12
	BYTE	PEND
// 007   ----------------------------------------
	BYTE	PATT
	 POIN2	CheersMate_FINAL_2_003
// 008   ----------------------------------------
	BYTE	PATT
	 POIN2	CheersMate_FINAL_2_003
// 009   ----------------------------------------
	BYTE	PATT
	 POIN2	CheersMate_FINAL_2_003
// 010   ----------------------------------------
CheersMate_FINAL_2_010:
	BYTE		N11     Gn3   v100
	BYTE	W12
	BYTE		        En3 
	BYTE	W12
	BYTE		        Gn3 
	BYTE	W12
	BYTE		        Bn3 
	BYTE	W12
	BYTE		        Gn3 
	BYTE	W12
	BYTE		        En3 
	BYTE	W12
	BYTE		        Gs3 
	BYTE	W12
	BYTE		        Bn3 
	BYTE	W12
	BYTE	PEND
// 011   ----------------------------------------
CheersMate_FINAL_2_011:
	BYTE		N11     Gs3   v100
	BYTE	W12
	BYTE		        En3 
	BYTE	W12
	BYTE		        An3 
	BYTE	W12
	BYTE		        Cn4 
	BYTE	W12
	BYTE		        An3 
	BYTE	W12
	BYTE		        En3 
	BYTE	W12
	BYTE		        An3 
	BYTE	W12
	BYTE		        Cn4 
	BYTE	W12
	BYTE	PEND
// 012   ----------------------------------------
CheersMate_FINAL_2_012:
	BYTE		N11     An3   v100
	BYTE	W12
	BYTE		        Cn3 
	BYTE	W12
	BYTE		        Fn3 
	BYTE	W12
	BYTE		        An3 
	BYTE	W12
	BYTE		        Fn3 
	BYTE	W12
	BYTE		        Cn3 
	BYTE	W12
	BYTE		        Fn3 
	BYTE	W12
	BYTE		        An3 
	BYTE	W12
	BYTE	PEND
// 013   ----------------------------------------
CheersMate_FINAL_2_013:
	BYTE		N11     Fn3   v100
	BYTE	W12
	BYTE		        Cn3 
	BYTE	W12
	BYTE		        Gn3 
	BYTE	W12
	BYTE		        Cn4 
	BYTE	W12
	BYTE		        Gn3 
	BYTE	W12
	BYTE		        Cn3 
	BYTE	W12
	BYTE		        Gn3 
	BYTE	W12
	BYTE		        Cn4 
	BYTE	W12
	BYTE	PEND
// 014   ----------------------------------------
	BYTE		        Gn3 
	BYTE	W12
	BYTE		        Dn3 
	BYTE	W12
	BYTE		        Fs3 
	BYTE	W12
	BYTE		        An3 
	BYTE	W12
	BYTE		        Fs3 
	BYTE	W12
	BYTE		        Dn3 
	BYTE	W12
	BYTE		        Fs3 
	BYTE	W12
	BYTE		        An3 
	BYTE	W12
// 015   ----------------------------------------
	BYTE		        Fs3 
	BYTE	W12
	BYTE		        Dn3 
	BYTE	W12
	BYTE		        Gn3 
	BYTE	W12
	BYTE		        Bn3 
	BYTE	W12
	BYTE		        Gn3 
	BYTE	W12
	BYTE		        Dn3 
	BYTE	W12
	BYTE		        Gn3 
	BYTE	W12
	BYTE		        Bn3 
	BYTE	W12
// 016   ----------------------------------------
	BYTE	PATT
	 POIN2	CheersMate_FINAL_2_003
// 017   ----------------------------------------
	BYTE	PATT
	 POIN2	CheersMate_FINAL_2_003
// 018   ----------------------------------------
	BYTE	PATT
	 POIN2	CheersMate_FINAL_2_010
// 019   ----------------------------------------
	BYTE	PATT
	 POIN2	CheersMate_FINAL_2_011
// 020   ----------------------------------------
	BYTE	PATT
	 POIN2	CheersMate_FINAL_2_012
// 021   ----------------------------------------
	BYTE	PATT
	 POIN2	CheersMate_FINAL_2_013
// 022   ----------------------------------------
	BYTE	PATT
	 POIN2	CheersMate_FINAL_2_004
// 023   ----------------------------------------
	BYTE	PATT
	 POIN2	CheersMate_FINAL_2_003
// 024   ----------------------------------------
	BYTE	PATT
	 POIN2	CheersMate_FINAL_2_003
// 025   ----------------------------------------
	BYTE	PATT
	 POIN2	CheersMate_FINAL_2_001
// 026   ----------------------------------------
	BYTE	PATT
	 POIN2	CheersMate_FINAL_2_002
// 027   ----------------------------------------
	BYTE	PATT
	 POIN2	CheersMate_FINAL_2_003
// 028   ----------------------------------------
	BYTE	PATT
	 POIN2	CheersMate_FINAL_2_004
// 029   ----------------------------------------
	BYTE	PATT
	 POIN2	CheersMate_FINAL_2_005
// 030   ----------------------------------------
	BYTE	PATT
	 POIN2	CheersMate_FINAL_2_006
// 031   ----------------------------------------
	BYTE		N11     Gn3   v100
	BYTE	W12
	BYTE		        Cn3 
	BYTE	W12
	BYTE		        Gn3 
	BYTE	W12
	BYTE		        Cn4 
	BYTE	W12
	BYTE		        Gn3 
	BYTE	W12
	BYTE		N42     Cn3 
	BYTE	W36
// 032   ----------------------------------------
	BYTE	W06
	BYTE	GoTo
	 POIN2	CheersMate_FINAL_2_B1
CheersMate_FINAL_2_B2:
	BYTE	FINE

//**************** Track 3 (Midi-Chn.3) ****************//

CheersMate_FINAL_3:
	BYTE	KEYSH   CheersMate_FINAL_key+0
CheersMate_FINAL_3_B1:
// 000   ----------------------------------------
	BYTE		VOICE   22
	BYTE		MODT    0
	BYTE		LFOS    44
	BYTE		PAN     c_v-19
	BYTE		VOL     127*CheersMate_FINAL_mvl/mxv
	BYTE		N11     Gn4   v100
	BYTE	W12
	BYTE		N20   
	BYTE	W24
	BYTE		        Fn4 
	BYTE	W24
	BYTE		N11     En4 
	BYTE	W12
	BYTE		        Cn4 
	BYTE	W12
	BYTE		        Dn4 
	BYTE	W12
// 001   ----------------------------------------
CheersMate_FINAL_3_001:
	BYTE		N11     En4   v100
	BYTE	W12
	BYTE		        Fn4 
	BYTE	W12
	BYTE		N11   
	BYTE	W12
	BYTE		        En4 
	BYTE	W12
	BYTE		N44     Dn4 
	BYTE	W48
	BYTE	PEND
// 002   ----------------------------------------
CheersMate_FINAL_3_002:
	BYTE		N11     Fn4   v100
	BYTE	W12
	BYTE		N20   
	BYTE	W24
	BYTE		        En4 
	BYTE	W24
	BYTE		N11     Dn4 
	BYTE	W12
	BYTE		        Bn4 
	BYTE	W12
	BYTE		        An4 
	BYTE	W12
	BYTE	PEND
// 003   ----------------------------------------
CheersMate_FINAL_3_003:
	BYTE		N11     Gn4   v100
	BYTE	W12
	BYTE		        En4 
	BYTE	W12
	BYTE		N11   
	BYTE	W12
	BYTE		        Fs4 
	BYTE	W12
	BYTE		N44     Gn4 
	BYTE	W48
	BYTE	PEND
// 004   ----------------------------------------
CheersMate_FINAL_3_004:
	BYTE		N11     Gn4   v100
	BYTE	W12
	BYTE		N20     An4 
	BYTE	W24
	BYTE		        Gn4 
	BYTE	W24
	BYTE		N11     Fn4 
	BYTE	W12
	BYTE		        Dn4 
	BYTE	W12
	BYTE		        En4 
	BYTE	W12
	BYTE	PEND
// 005   ----------------------------------------
CheersMate_FINAL_3_005:
	BYTE		N11     Fn4   v100
	BYTE	W12
	BYTE		N20     Gn4 
	BYTE	W24
	BYTE		        Fn4 
	BYTE	W24
	BYTE		N11     En4 
	BYTE	W12
	BYTE		        Cn4 
	BYTE	W12
	BYTE		        Dn4 
	BYTE	W12
	BYTE	PEND
// 006   ----------------------------------------
CheersMate_FINAL_3_006:
	BYTE		N11     En4   v100
	BYTE	W12
	BYTE		        Fn4 
	BYTE	W12
	BYTE		        Gn4 
	BYTE	W12
	BYTE		N20     An4 
	BYTE	W24
	BYTE		N11     Gn4 
	BYTE	W12
	BYTE		        An4 
	BYTE	W12
	BYTE		        Bn4 
	BYTE	W12
	BYTE	PEND
// 007   ----------------------------------------
	BYTE		        Gn4 
	BYTE	W12
	BYTE		N66     Cn5 
	BYTE	W84
// 008   ----------------------------------------
	BYTE	W24
	BYTE		N04     Cn3 
	BYTE		N04     Gn3 
	BYTE		N04     Cn4 
	BYTE	W24
	BYTE		        Cn3 
	BYTE		N04     Gn3 
	BYTE		N04     Cn4 
	BYTE	W24
	BYTE		        Cn3 
	BYTE		N04     Gn3 
	BYTE		N04     Cn4 
	BYTE	W24
// 009   ----------------------------------------
CheersMate_FINAL_3_009:
	BYTE		N04     Cn3   v100
	BYTE		N04     Gn3 
	BYTE		N04     Cn4 
	BYTE	W24
	BYTE		        Cn3 
	BYTE		N04     Gn3 
	BYTE		N04     Cn4 
	BYTE	W24
	BYTE		        Cn3 
	BYTE		N04     Gn3 
	BYTE		N04     Cn4 
	BYTE	W24
	BYTE		        Cn3 
	BYTE		N04     Gn3 
	BYTE		N04     Cn4 
	BYTE	W24
	BYTE	PEND
// 010   ----------------------------------------
CheersMate_FINAL_3_010:
	BYTE		N04     Cn3   v100
	BYTE		N04     Gn3 
	BYTE		N04     Cn4 
	BYTE	W24
	BYTE		        En3 
	BYTE		N04     Gn3 
	BYTE		N04     Bn3 
	BYTE	W24
	BYTE		        En3 
	BYTE		N04     Gn3 
	BYTE		N04     Bn3 
	BYTE	W24
	BYTE		        En3 
	BYTE		N04     Gs3 
	BYTE		N04     Bn3 
	BYTE	W24
	BYTE	PEND
// 011   ----------------------------------------
CheersMate_FINAL_3_011:
	BYTE		N04     En3   v100
	BYTE		N04     Gs3 
	BYTE		N04     Bn3 
	BYTE	W24
	BYTE		        En3 
	BYTE		N04     An3 
	BYTE		N04     Cn4 
	BYTE	W24
	BYTE		        En3 
	BYTE		N04     An3 
	BYTE		N04     Cn4 
	BYTE	W24
	BYTE		        En3 
	BYTE		N04     An3 
	BYTE		N04     Cn4 
	BYTE	W24
	BYTE	PEND
// 012   ----------------------------------------
CheersMate_FINAL_3_012:
	BYTE		N04     En3   v100
	BYTE		N04     An3 
	BYTE		N04     Cn4 
	BYTE	W24
	BYTE		        Cn3 
	BYTE		N04     Fn3 
	BYTE		N04     An3 
	BYTE	W24
	BYTE		        Cn3 
	BYTE		N04     Fn3 
	BYTE		N04     An3 
	BYTE	W24
	BYTE		        Cn3 
	BYTE		N04     Fn3 
	BYTE		N04     An3 
	BYTE	W24
	BYTE	PEND
// 013   ----------------------------------------
CheersMate_FINAL_3_013:
	BYTE		N04     Cn3   v100
	BYTE		N04     Fn3 
	BYTE		N04     An3 
	BYTE	W24
	BYTE		        Cn3 
	BYTE		N04     Gn3 
	BYTE		N04     Cn4 
	BYTE	W24
	BYTE		        Cn3 
	BYTE		N04     Gn3 
	BYTE		N04     Cn4 
	BYTE	W24
	BYTE		        Cn3 
	BYTE		N04     Gn3 
	BYTE		N04     Cn4 
	BYTE	W24
	BYTE	PEND
// 014   ----------------------------------------
	BYTE		        Cn3 
	BYTE		N04     Gn3 
	BYTE		N04     Cn4 
	BYTE	W24
	BYTE		        Dn3 
	BYTE		N04     Fs3 
	BYTE		N04     An3 
	BYTE	W24
	BYTE		        Dn3 
	BYTE		N04     Fs3 
	BYTE		N04     An3 
	BYTE	W24
	BYTE		        Dn3 
	BYTE		N04     Fs3 
	BYTE		N04     An3 
	BYTE	W24
// 015   ----------------------------------------
	BYTE		        Dn3 
	BYTE		N04     Fs3 
	BYTE		N04     An3 
	BYTE	W24
	BYTE		        Dn3 
	BYTE		N04     Gn3 
	BYTE		N04     Bn3 
	BYTE	W24
	BYTE		        Dn3 
	BYTE		N04     Gn3 
	BYTE		N04     Bn3 
	BYTE	W24
	BYTE		        Dn3 
	BYTE		N04     Gn3 
	BYTE		N04     Bn3 
	BYTE	W24
// 016   ----------------------------------------
CheersMate_FINAL_3_016:
	BYTE		N04     Dn3   v100
	BYTE		N04     Gn3 
	BYTE		N04     Bn3 
	BYTE	W24
	BYTE		        Cn3 
	BYTE		N04     Gn3 
	BYTE		N04     Cn4 
	BYTE	W24
	BYTE		        Cn3 
	BYTE		N04     Gn3 
	BYTE		N04     Cn4 
	BYTE	W24
	BYTE		        Cn3 
	BYTE		N04     Gn3 
	BYTE		N04     Cn4 
	BYTE	W24
	BYTE	PEND
// 017   ----------------------------------------
	BYTE	PATT
	 POIN2	CheersMate_FINAL_3_009
// 018   ----------------------------------------
	BYTE	PATT
	 POIN2	CheersMate_FINAL_3_010
// 019   ----------------------------------------
	BYTE	PATT
	 POIN2	CheersMate_FINAL_3_011
// 020   ----------------------------------------
	BYTE	PATT
	 POIN2	CheersMate_FINAL_3_012
// 021   ----------------------------------------
	BYTE	PATT
	 POIN2	CheersMate_FINAL_3_013
// 022   ----------------------------------------
	BYTE		N04     Cn3   v100
	BYTE		N04     Gn3 
	BYTE		N04     Cn4 
	BYTE	W24
	BYTE		        Cn3 
	BYTE		N04     Fn3 
	BYTE		N04     An3 
	BYTE	W24
	BYTE		        Cn3 
	BYTE		N04     Fn3 
	BYTE		N04     An3 
	BYTE	W24
	BYTE		        Dn3 
	BYTE		N04     Gn3 
	BYTE		N04     Bn3 
	BYTE	W24
// 023   ----------------------------------------
	BYTE	PATT
	 POIN2	CheersMate_FINAL_3_016
// 024   ----------------------------------------
	BYTE		N04     Cn3   v100
	BYTE		N04     Gn3 
	BYTE		N04     Cn4 
	BYTE		N04     Gn4 
	BYTE	W12
	BYTE		N20   
	BYTE	W24
	BYTE		        Fn4 
	BYTE	W24
	BYTE		N11     En4 
	BYTE	W12
	BYTE		        Cn4 
	BYTE	W12
	BYTE		        Dn4 
	BYTE	W12
// 025   ----------------------------------------
	BYTE	PATT
	 POIN2	CheersMate_FINAL_3_001
// 026   ----------------------------------------
	BYTE	PATT
	 POIN2	CheersMate_FINAL_3_002
// 027   ----------------------------------------
	BYTE	PATT
	 POIN2	CheersMate_FINAL_3_003
// 028   ----------------------------------------
	BYTE	PATT
	 POIN2	CheersMate_FINAL_3_004
// 029   ----------------------------------------
	BYTE	PATT
	 POIN2	CheersMate_FINAL_3_005
// 030   ----------------------------------------
	BYTE	PATT
	 POIN2	CheersMate_FINAL_3_006
// 031   ----------------------------------------
	BYTE		N11     Gn4   v100
	BYTE	W12
	BYTE		N90     Cn5 
	BYTE	W84
// 032   ----------------------------------------
	BYTE	W06
	BYTE	GoTo
	 POIN2	CheersMate_FINAL_3_B1
CheersMate_FINAL_3_B2:
	BYTE	FINE

//**************** Track 4 (Midi-Chn.4) ****************//

CheersMate_FINAL_4:
	BYTE	KEYSH   CheersMate_FINAL_key+0
CheersMate_FINAL_4_B1:
// 000   ----------------------------------------
	BYTE		VOICE   45
	BYTE		MODT    0
	BYTE		LFOS    44
	BYTE		PAN     c_v+11
	BYTE		VOL     127*CheersMate_FINAL_mvl/mxv
	BYTE	W12
	BYTE		N06     Cn2   v100
	BYTE		N06     Gn2 
	BYTE	W24
	BYTE		N06   
	BYTE		N06     Cn3 
	BYTE	W24
	BYTE		        Cn2 
	BYTE		N06     Gn2 
	BYTE	W24
	BYTE		N06   
	BYTE		N06     Cn3 
	BYTE	W12
// 001   ----------------------------------------
CheersMate_FINAL_4_001:
	BYTE	W12
	BYTE		N06     Cn2   v100
	BYTE		N06     Fn2 
	BYTE	W24
	BYTE		N06   
	BYTE		N06     An2 
	BYTE	W24
	BYTE		        Cn2 
	BYTE		N06     Fn2 
	BYTE	W24
	BYTE		N06   
	BYTE		N06     An2 
	BYTE	W12
	BYTE	PEND
// 002   ----------------------------------------
CheersMate_FINAL_4_002:
	BYTE	W12
	BYTE		N06     Dn2   v100
	BYTE		N06     Gn2 
	BYTE	W24
	BYTE		N06   
	BYTE		N06     Bn2 
	BYTE	W24
	BYTE		        Dn2 
	BYTE		N06     Gn2 
	BYTE	W24
	BYTE		N06   
	BYTE		N06     Bn2 
	BYTE	W12
	BYTE	PEND
// 003   ----------------------------------------
CheersMate_FINAL_4_003:
	BYTE	W12
	BYTE		N06     Cn2   v100
	BYTE		N06     Gn2 
	BYTE	W24
	BYTE		N06   
	BYTE		N06     Cn3 
	BYTE	W24
	BYTE		        Cn2 
	BYTE		N06     Gn2 
	BYTE	W24
	BYTE		N06   
	BYTE		N06     Cn3 
	BYTE	W12
	BYTE	PEND
// 004   ----------------------------------------
CheersMate_FINAL_4_004:
	BYTE	W12
	BYTE		N06     Cn2   v100
	BYTE		N06     Fn2 
	BYTE	W24
	BYTE		N06   
	BYTE		N06     An2 
	BYTE	W24
	BYTE		        Dn2 
	BYTE		N06     Gn2 
	BYTE	W24
	BYTE		N06   
	BYTE		N06     Bn2 
	BYTE	W12
	BYTE	PEND
// 005   ----------------------------------------
CheersMate_FINAL_4_005:
	BYTE	W12
	BYTE		N06     Cn2   v100
	BYTE		N06     Gn2 
	BYTE	W24
	BYTE		N06   
	BYTE		N06     Cn3 
	BYTE	W24
	BYTE		        Cn2 
	BYTE		N06     An2 
	BYTE	W24
	BYTE		N06   
	BYTE		N06     Cn3 
	BYTE	W12
	BYTE	PEND
// 006   ----------------------------------------
	BYTE	PATT
	 POIN2	CheersMate_FINAL_4_004
// 007   ----------------------------------------
	BYTE	PATT
	 POIN2	CheersMate_FINAL_4_003
// 008   ----------------------------------------
	BYTE	PATT
	 POIN2	CheersMate_FINAL_4_003
// 009   ----------------------------------------
	BYTE	PATT
	 POIN2	CheersMate_FINAL_4_003
// 010   ----------------------------------------
CheersMate_FINAL_4_010:
	BYTE	W12
	BYTE		N06     En2   v100
	BYTE		N06     Gn2 
	BYTE	W24
	BYTE		N06   
	BYTE		N06     Bn2 
	BYTE	W24
	BYTE		        En2 
	BYTE		N06     Gs2 
	BYTE	W24
	BYTE		N06   
	BYTE		N06     Bn2 
	BYTE	W12
	BYTE	PEND
// 011   ----------------------------------------
CheersMate_FINAL_4_011:
	BYTE	W12
	BYTE		N06     Cn2   v100
	BYTE		N06     An2 
	BYTE	W24
	BYTE		N06   
	BYTE		N06     Cn3 
	BYTE	W24
	BYTE		        Cn2 
	BYTE		N06     An2 
	BYTE	W24
	BYTE		N06   
	BYTE		N06     Cn3 
	BYTE	W12
	BYTE	PEND
// 012   ----------------------------------------
	BYTE	PATT
	 POIN2	CheersMate_FINAL_4_001
// 013   ----------------------------------------
	BYTE	PATT
	 POIN2	CheersMate_FINAL_4_003
// 014   ----------------------------------------
	BYTE	W12
	BYTE		N06     Dn2   v100
	BYTE		N06     Fs2 
	BYTE	W24
	BYTE		N06   
	BYTE		N06     An2 
	BYTE	W24
	BYTE		        Dn2 
	BYTE		N06     Fs2 
	BYTE	W24
	BYTE		N06   
	BYTE		N06     An2 
	BYTE	W12
// 015   ----------------------------------------
	BYTE	PATT
	 POIN2	CheersMate_FINAL_4_002
// 016   ----------------------------------------
	BYTE	PATT
	 POIN2	CheersMate_FINAL_4_003
// 017   ----------------------------------------
	BYTE	PATT
	 POIN2	CheersMate_FINAL_4_003
// 018   ----------------------------------------
	BYTE	PATT
	 POIN2	CheersMate_FINAL_4_010
// 019   ----------------------------------------
	BYTE	PATT
	 POIN2	CheersMate_FINAL_4_011
// 020   ----------------------------------------
	BYTE	PATT
	 POIN2	CheersMate_FINAL_4_001
// 021   ----------------------------------------
	BYTE	PATT
	 POIN2	CheersMate_FINAL_4_003
// 022   ----------------------------------------
	BYTE	PATT
	 POIN2	CheersMate_FINAL_4_004
// 023   ----------------------------------------
	BYTE	PATT
	 POIN2	CheersMate_FINAL_4_003
// 024   ----------------------------------------
	BYTE	PATT
	 POIN2	CheersMate_FINAL_4_003
// 025   ----------------------------------------
	BYTE	PATT
	 POIN2	CheersMate_FINAL_4_001
// 026   ----------------------------------------
	BYTE	PATT
	 POIN2	CheersMate_FINAL_4_002
// 027   ----------------------------------------
	BYTE	PATT
	 POIN2	CheersMate_FINAL_4_003
// 028   ----------------------------------------
	BYTE	PATT
	 POIN2	CheersMate_FINAL_4_004
// 029   ----------------------------------------
	BYTE	PATT
	 POIN2	CheersMate_FINAL_4_005
// 030   ----------------------------------------
	BYTE	PATT
	 POIN2	CheersMate_FINAL_4_004
// 031   ----------------------------------------
	BYTE	W12
	BYTE		N06     Cn2   v100
	BYTE		N06     Gn2 
	BYTE	W24
	BYTE		N06   
	BYTE		N06     Cn3 
	BYTE	W24
	BYTE		        Cn2 
	BYTE		N06     Gn2 
	BYTE		N06     Cn3 
	BYTE		N06     En3 
	BYTE		N06     Gn3 
	BYTE	W36
// 032   ----------------------------------------
	BYTE	W06
	BYTE	GoTo
	 POIN2	CheersMate_FINAL_4_B1
CheersMate_FINAL_4_B2:
	BYTE	FINE

//**************** Track 5 (Midi-Chn.5) ****************//

CheersMate_FINAL_5:
	BYTE	KEYSH   CheersMate_FINAL_key+0
CheersMate_FINAL_5_B1:
// 000   ----------------------------------------
	BYTE		VOICE   45
	BYTE		MODT    0
	BYTE		LFOS    44
	BYTE		PAN     c_v+6
	BYTE		VOL     127*CheersMate_FINAL_mvl/mxv
	BYTE	W96
// 001   ----------------------------------------
	BYTE	W96
// 002   ----------------------------------------
	BYTE	W96
// 003   ----------------------------------------
	BYTE	W96
// 004   ----------------------------------------
	BYTE	W96
// 005   ----------------------------------------
	BYTE	W96
// 006   ----------------------------------------
	BYTE	W96
// 007   ----------------------------------------
	BYTE	W96
// 008   ----------------------------------------
	BYTE	W96
// 009   ----------------------------------------
	BYTE	W96
// 010   ----------------------------------------
	BYTE	W96
// 011   ----------------------------------------
	BYTE	W96
// 012   ----------------------------------------
	BYTE	W96
// 013   ----------------------------------------
	BYTE	W96
// 014   ----------------------------------------
	BYTE	W96
// 015   ----------------------------------------
	BYTE	W96
// 016   ----------------------------------------
	BYTE	W96
// 017   ----------------------------------------
	BYTE	W96
// 018   ----------------------------------------
	BYTE	W96
// 019   ----------------------------------------
	BYTE	W96
// 020   ----------------------------------------
	BYTE	W96
// 021   ----------------------------------------
	BYTE	W96
// 022   ----------------------------------------
	BYTE	W96
// 023   ----------------------------------------
	BYTE	W96
// 024   ----------------------------------------
	BYTE	W12
	BYTE		TIE     Cn3   v100
	BYTE		N96     En3 
	BYTE		N96     Gn3 
	BYTE	W84
// 025   ----------------------------------------
	BYTE	W12
	BYTE		TIE     Fn3 
	BYTE		N96     An3 
	BYTE	W84
// 026   ----------------------------------------
	BYTE	W12
	BYTE		EOT     Cn3 
	BYTE		N96     Bn2 
	BYTE		N96     Dn3 
	BYTE		TIE     Gn3 
	BYTE	W84
// 027   ----------------------------------------
	BYTE	W12
	BYTE		EOT     Fn3 
	BYTE		TIE     Cn3 
	BYTE		N96     En3 
	BYTE	W84
// 028   ----------------------------------------
	BYTE	W12
	BYTE		EOT     Gn3 
	BYTE		N96     Fn3 
	BYTE		N48     An3 
	BYTE	W48
	BYTE		EOT     Cn3 
	BYTE		N48     Bn2 
	BYTE		N48     Dn3 
	BYTE		N96     Gn3 
	BYTE	W36
// 029   ----------------------------------------
	BYTE	W12
	BYTE		TIE     Cn3 
	BYTE		N96     En3 
	BYTE	W48
	BYTE		        An3 
	BYTE	W36
// 030   ----------------------------------------
	BYTE	W12
	BYTE		        Fn3 
	BYTE	W48
	BYTE		EOT     Cn3 
	BYTE		N48     Bn2 
	BYTE		N48     Dn3 
	BYTE		TIE     Gn3 
	BYTE	W36
// 031   ----------------------------------------
	BYTE	W12
	BYTE		N90     Cn3 
	BYTE		N90     En3 
	BYTE	W84
// 032   ----------------------------------------
	BYTE	W06
	BYTE		EOT     Gn3 
	BYTE	GoTo
	 POIN2	CheersMate_FINAL_5_B1
CheersMate_FINAL_5_B2:
	BYTE	FINE

//**************** Track 6 (Midi-Chn.6) ****************//

CheersMate_FINAL_6:
	BYTE	KEYSH   CheersMate_FINAL_key+0
CheersMate_FINAL_6_B1:
// 000   ----------------------------------------
	BYTE		VOICE   122
	BYTE		MODT    0
	BYTE		LFOS    44
	BYTE		VOL     127*CheersMate_FINAL_mvl/mxv
	BYTE		PAN     c_v+0
	BYTE	W96
// 001   ----------------------------------------
	BYTE	W96
// 002   ----------------------------------------
	BYTE	W96
// 003   ----------------------------------------
	BYTE	W96
// 004   ----------------------------------------
	BYTE	W96
// 005   ----------------------------------------
	BYTE	W96
// 006   ----------------------------------------
	BYTE	W96
// 007   ----------------------------------------
	BYTE	W96
// 008   ----------------------------------------
CheersMate_FINAL_6_008:
	BYTE	W12
	BYTE		N20     Cn1   v100
	BYTE	W24
	BYTE		        Fs2 
	BYTE	W24
	BYTE		        Cn1 
	BYTE	W24
	BYTE		        Fs2 
	BYTE	W12
	BYTE	PEND
// 009   ----------------------------------------
	BYTE	PATT
	 POIN2	CheersMate_FINAL_6_008
// 010   ----------------------------------------
	BYTE	PATT
	 POIN2	CheersMate_FINAL_6_008
// 011   ----------------------------------------
	BYTE	PATT
	 POIN2	CheersMate_FINAL_6_008
// 012   ----------------------------------------
	BYTE	PATT
	 POIN2	CheersMate_FINAL_6_008
// 013   ----------------------------------------
	BYTE	PATT
	 POIN2	CheersMate_FINAL_6_008
// 014   ----------------------------------------
	BYTE	PATT
	 POIN2	CheersMate_FINAL_6_008
// 015   ----------------------------------------
	BYTE	PATT
	 POIN2	CheersMate_FINAL_6_008
// 016   ----------------------------------------
	BYTE	PATT
	 POIN2	CheersMate_FINAL_6_008
// 017   ----------------------------------------
	BYTE	PATT
	 POIN2	CheersMate_FINAL_6_008
// 018   ----------------------------------------
	BYTE	PATT
	 POIN2	CheersMate_FINAL_6_008
// 019   ----------------------------------------
	BYTE	PATT
	 POIN2	CheersMate_FINAL_6_008
// 020   ----------------------------------------
	BYTE	PATT
	 POIN2	CheersMate_FINAL_6_008
// 021   ----------------------------------------
	BYTE	PATT
	 POIN2	CheersMate_FINAL_6_008
// 022   ----------------------------------------
	BYTE	PATT
	 POIN2	CheersMate_FINAL_6_008
// 023   ----------------------------------------
	BYTE	PATT
	 POIN2	CheersMate_FINAL_6_008
// 024   ----------------------------------------
	BYTE	PATT
	 POIN2	CheersMate_FINAL_6_008
// 025   ----------------------------------------
	BYTE	PATT
	 POIN2	CheersMate_FINAL_6_008
// 026   ----------------------------------------
	BYTE	PATT
	 POIN2	CheersMate_FINAL_6_008
// 027   ----------------------------------------
	BYTE	PATT
	 POIN2	CheersMate_FINAL_6_008
// 028   ----------------------------------------
	BYTE	PATT
	 POIN2	CheersMate_FINAL_6_008
// 029   ----------------------------------------
	BYTE	PATT
	 POIN2	CheersMate_FINAL_6_008
// 030   ----------------------------------------
	BYTE	PATT
	 POIN2	CheersMate_FINAL_6_008
// 031   ----------------------------------------
	BYTE	W12
	BYTE		N20     Cn1   v100
	BYTE		N20     Fs2 
	BYTE	W24
	BYTE		        Cn1 
	BYTE		N20     Fs2 
	BYTE	W24
	BYTE		N42     Cn1 
	BYTE		N42     Fs2 
	BYTE	W36
// 032   ----------------------------------------
	BYTE	W06
	BYTE	GoTo
	 POIN2	CheersMate_FINAL_6_B1
CheersMate_FINAL_6_B2:
	BYTE	FINE

//******************************************************//
	ALIGN 4

CheersMate_FINAL:
	BYTE	6	// NumTrks
	BYTE	0	// NumBlks
	BYTE	CheersMate_FINAL_pri	// Priority
	BYTE	CheersMate_FINAL_rev	// Reverb.

	POIN2	CheersMate_FINAL_grp

	POIN2	CheersMate_FINAL_1
	POIN2	CheersMate_FINAL_2
	POIN2	CheersMate_FINAL_3
	POIN2	CheersMate_FINAL_4
	POIN2	CheersMate_FINAL_5
	POIN2	CheersMate_FINAL_6

	
