//Event file generated from Sappy .s format.
	#include "MPlayDef.event"

	#define	Crownslayer_FINAL_grp  voicegroup000
	#define	Crownslayer_FINAL_pri  0
	#define	Crownslayer_FINAL_rev  0x94
	#define	Crownslayer_FINAL_mvl  28
	#define	Crownslayer_FINAL_key  0
	#define	Crownslayer_FINAL_tbs  1
	#define	Crownslayer_FINAL_exg  0
	#define	Crownslayer_FINAL_cmp  1

	// .rodata
	//	Crownslayer_FINAL
	ALIGN 4

//**************** Track 1 (Midi-Chn.1) ****************//

Crownslayer_FINAL_1:
	BYTE	KEYSH   Crownslayer_FINAL_key+0
Crownslayer_FINAL_1_B1:
// 000   ----------------------------------------
	BYTE	TEMPO   100*Crownslayer_FINAL_tbs/2
	BYTE		VOICE   1
	BYTE		MODT    0
	BYTE		LFOS    44
	BYTE		VOL     127*Crownslayer_FINAL_mvl/mxv
	BYTE		PAN     c_v-32
	BYTE		N11     Gn1   v127
	BYTE	W12
	BYTE		        As1 
	BYTE	W24
	BYTE		N11   
	BYTE	W12
	BYTE		        An1 
	BYTE	W12
	BYTE		        Fn1 
	BYTE	W24
	BYTE		N11   
	BYTE	W12
// 001   ----------------------------------------
Crownslayer_FINAL_1_001:
	BYTE		N11     Ds1   v127
	BYTE	W12
	BYTE		        Gn1 
	BYTE	W24
	BYTE		N11   
	BYTE	W12
	BYTE		        Fs1 
	BYTE	W12
	BYTE		        Dn1 
	BYTE	W12
	BYTE		        Ds1 
	BYTE	W12
	BYTE		        Dn1 
	BYTE	W12
	BYTE	PEND
// 002   ----------------------------------------
Crownslayer_FINAL_1_002:
	BYTE		N11     Gn1   v127
	BYTE	W12
	BYTE		        As1 
	BYTE	W24
	BYTE		N11   
	BYTE	W12
	BYTE		        An1 
	BYTE	W12
	BYTE		        Fn1 
	BYTE	W24
	BYTE		N11   
	BYTE	W12
	BYTE	PEND
// 003   ----------------------------------------
	BYTE	PATT
	 POIN2	Crownslayer_FINAL_1_001
// 004   ----------------------------------------
	BYTE	PATT
	 POIN2	Crownslayer_FINAL_1_002
// 005   ----------------------------------------
	BYTE	PATT
	 POIN2	Crownslayer_FINAL_1_001
// 006   ----------------------------------------
	BYTE	PATT
	 POIN2	Crownslayer_FINAL_1_002
// 007   ----------------------------------------
	BYTE	PATT
	 POIN2	Crownslayer_FINAL_1_001
// 008   ----------------------------------------
	BYTE		N11     Ds1   v127
	BYTE	W12
	BYTE		        Gn1 
	BYTE	W24
	BYTE		N11   
	BYTE	W12
	BYTE		        Fn1 
	BYTE	W12
	BYTE		        An1 
	BYTE	W24
	BYTE		N11   
	BYTE	W12
// 009   ----------------------------------------
	BYTE		        Fn1 
	BYTE	W12
	BYTE		        Dn1 
	BYTE	W24
	BYTE		N11   
	BYTE	W12
	BYTE		        Ds1 
	BYTE	W12
	BYTE		        Gn1 
	BYTE	W24
	BYTE		N11   
	BYTE	W12
// 010   ----------------------------------------
	BYTE		        As1 
	BYTE	W12
	BYTE		        Fn1 
	BYTE	W24
	BYTE		N11   
	BYTE	W12
	BYTE		        An1 
	BYTE	W12
	BYTE		        Fn1 
	BYTE	W24
	BYTE		N11   
	BYTE	W12
// 011   ----------------------------------------
	BYTE		        Ds1 
	BYTE	W12
	BYTE		        Gn1 
	BYTE	W24
	BYTE		N11   
	BYTE	W12
	BYTE		        Fs1 
	BYTE	W12
	BYTE		        Gn1 
	BYTE	W12
	BYTE		        An1 
	BYTE	W12
	BYTE		        Fs1 
	BYTE	W12
// 012   ----------------------------------------
	BYTE		N90     Gn1 
	BYTE	W96
// 013   ----------------------------------------
	BYTE		        Fn1 
	BYTE	W96
// 014   ----------------------------------------
	BYTE		        Gn1 
	BYTE	W96
// 015   ----------------------------------------
	BYTE		        An1 
	BYTE	W96
// 016   ----------------------------------------
	BYTE		        As1 
	BYTE	W96
// 017   ----------------------------------------
	BYTE		        An1 
	BYTE	W96
// 018   ----------------------------------------
	BYTE		        Gn1 
	BYTE	W96
// 019   ----------------------------------------
	BYTE		        Fs1 
	BYTE	W96
// 020   ----------------------------------------
Crownslayer_FINAL_1_020:
	BYTE		N11     Gn1   v127
	BYTE	W12
	BYTE		        As1 
	BYTE	W24
	BYTE		N11   
	BYTE	W12
	BYTE		        Gn1 
	BYTE	W12
	BYTE		        As1 
	BYTE	W24
	BYTE		N11   
	BYTE	W12
	BYTE	PEND
// 021   ----------------------------------------
Crownslayer_FINAL_1_021:
	BYTE		N11     An1   v127
	BYTE	W12
	BYTE		        Fn1 
	BYTE	W24
	BYTE		N11   
	BYTE	W12
	BYTE		        An1 
	BYTE	W12
	BYTE		        Fn1 
	BYTE	W24
	BYTE		N11   
	BYTE	W12
	BYTE	PEND
// 022   ----------------------------------------
Crownslayer_FINAL_1_022:
	BYTE		N11     Ds1   v127
	BYTE	W12
	BYTE		        Gn1 
	BYTE	W24
	BYTE		N11   
	BYTE	W12
	BYTE		        Ds1 
	BYTE	W12
	BYTE		        Gn1 
	BYTE	W24
	BYTE		N11   
	BYTE	W12
	BYTE	PEND
// 023   ----------------------------------------
	BYTE		        Fs1 
	BYTE	W12
	BYTE		        Dn1 
	BYTE	W12
	BYTE		        Ds1 
	BYTE	W12
	BYTE		        Dn1 
	BYTE	W12
	BYTE		        Fs1 
	BYTE	W12
	BYTE		        Dn1 
	BYTE	W12
	BYTE		        Ds1 
	BYTE	W12
	BYTE		        Dn1 
	BYTE	W12
// 024   ----------------------------------------
	BYTE	PATT
	 POIN2	Crownslayer_FINAL_1_020
// 025   ----------------------------------------
	BYTE	PATT
	 POIN2	Crownslayer_FINAL_1_021
// 026   ----------------------------------------
	BYTE	PATT
	 POIN2	Crownslayer_FINAL_1_022
// 027   ----------------------------------------
	BYTE		N11     Fs1   v127
	BYTE	W12
	BYTE		        Dn1 
	BYTE	W12
	BYTE		        Ds1 
	BYTE	W12
	BYTE		        Dn1 
	BYTE	W12
	BYTE		N42     Fs1 
	BYTE	W44
	BYTE	GoTo
	 POIN2	Crownslayer_FINAL_1_B1
Crownslayer_FINAL_1_B2:
	BYTE	FINE

//**************** Track 2 (Midi-Chn.2) ****************//

Crownslayer_FINAL_2:
	BYTE	KEYSH   Crownslayer_FINAL_key+0
Crownslayer_FINAL_2_B1:
// 000   ----------------------------------------
	BYTE		VOICE   33
	BYTE		MODT    0
	BYTE		LFOS    44
	BYTE		VOL     127*Crownslayer_FINAL_mvl/mxv
	BYTE		PAN     c_v+0
	BYTE	W96
// 001   ----------------------------------------
	BYTE	W96
// 002   ----------------------------------------
Crownslayer_FINAL_2_002:
	BYTE		N11     Gn1   v127
	BYTE	W12
	BYTE		        As1 
	BYTE	W24
	BYTE		N11   
	BYTE	W12
	BYTE		        An1 
	BYTE	W12
	BYTE		        Fn1 
	BYTE	W24
	BYTE		N11   
	BYTE	W12
	BYTE	PEND
// 003   ----------------------------------------
Crownslayer_FINAL_2_003:
	BYTE		N11     Ds1   v127
	BYTE	W12
	BYTE		        Gn1 
	BYTE	W24
	BYTE		N11   
	BYTE	W12
	BYTE		        Fs1 
	BYTE	W12
	BYTE		        Dn1 
	BYTE	W12
	BYTE		        Ds1 
	BYTE	W12
	BYTE		        Dn1 
	BYTE	W12
	BYTE	PEND
// 004   ----------------------------------------
	BYTE	PATT
	 POIN2	Crownslayer_FINAL_2_002
// 005   ----------------------------------------
	BYTE	PATT
	 POIN2	Crownslayer_FINAL_2_003
// 006   ----------------------------------------
	BYTE	PATT
	 POIN2	Crownslayer_FINAL_2_002
// 007   ----------------------------------------
	BYTE	PATT
	 POIN2	Crownslayer_FINAL_2_003
// 008   ----------------------------------------
	BYTE		N11     Ds1   v127
	BYTE	W12
	BYTE		        Gn1 
	BYTE	W24
	BYTE		N11   
	BYTE	W12
	BYTE		        Fn1 
	BYTE	W12
	BYTE		        An1 
	BYTE	W24
	BYTE		N11   
	BYTE	W12
// 009   ----------------------------------------
	BYTE		        Fn1 
	BYTE	W12
	BYTE		        Dn1 
	BYTE	W24
	BYTE		N11   
	BYTE	W12
	BYTE		        Ds1 
	BYTE	W12
	BYTE		        Gn1 
	BYTE	W24
	BYTE		N11   
	BYTE	W12
// 010   ----------------------------------------
	BYTE		        As1 
	BYTE	W12
	BYTE		        Fn1 
	BYTE	W24
	BYTE		N11   
	BYTE	W12
	BYTE		        An1 
	BYTE	W12
	BYTE		        Fn1 
	BYTE	W24
	BYTE		N11   
	BYTE	W12
// 011   ----------------------------------------
	BYTE		        Ds1 
	BYTE	W12
	BYTE		        Gn1 
	BYTE	W24
	BYTE		N11   
	BYTE	W12
	BYTE		        Fs1 
	BYTE	W12
	BYTE		        Gn1 
	BYTE	W12
	BYTE		        An1 
	BYTE	W12
	BYTE		        Fs1 
	BYTE	W12
// 012   ----------------------------------------
	BYTE		N90     Gn1 
	BYTE	W96
// 013   ----------------------------------------
	BYTE		        Fn1 
	BYTE	W96
// 014   ----------------------------------------
	BYTE		        Gn1 
	BYTE	W96
// 015   ----------------------------------------
	BYTE		        An1 
	BYTE	W96
// 016   ----------------------------------------
	BYTE		        As1 
	BYTE	W96
// 017   ----------------------------------------
	BYTE		        An1 
	BYTE	W96
// 018   ----------------------------------------
	BYTE		        Gn1 
	BYTE	W96
// 019   ----------------------------------------
	BYTE		        Fs1 
	BYTE	W96
// 020   ----------------------------------------
Crownslayer_FINAL_2_020:
	BYTE		N11     Gn1   v127
	BYTE	W12
	BYTE		        As1 
	BYTE	W24
	BYTE		N11   
	BYTE	W12
	BYTE		        Gn1 
	BYTE	W12
	BYTE		        As1 
	BYTE	W24
	BYTE		N11   
	BYTE	W12
	BYTE	PEND
// 021   ----------------------------------------
Crownslayer_FINAL_2_021:
	BYTE		N11     An1   v127
	BYTE	W12
	BYTE		        Fn1 
	BYTE	W24
	BYTE		N11   
	BYTE	W12
	BYTE		        An1 
	BYTE	W12
	BYTE		        Fn1 
	BYTE	W24
	BYTE		N11   
	BYTE	W12
	BYTE	PEND
// 022   ----------------------------------------
Crownslayer_FINAL_2_022:
	BYTE		N11     Ds1   v127
	BYTE	W12
	BYTE		        Gn1 
	BYTE	W24
	BYTE		N11   
	BYTE	W12
	BYTE		        Ds1 
	BYTE	W12
	BYTE		        Gn1 
	BYTE	W24
	BYTE		N11   
	BYTE	W12
	BYTE	PEND
// 023   ----------------------------------------
	BYTE		        Fs1 
	BYTE	W12
	BYTE		        Dn1 
	BYTE	W12
	BYTE		        Ds1 
	BYTE	W12
	BYTE		        Dn1 
	BYTE	W12
	BYTE		        Fs1 
	BYTE	W12
	BYTE		        Dn1 
	BYTE	W12
	BYTE		        Ds1 
	BYTE	W12
	BYTE		        Dn1 
	BYTE	W12
// 024   ----------------------------------------
	BYTE	PATT
	 POIN2	Crownslayer_FINAL_2_020
// 025   ----------------------------------------
	BYTE	PATT
	 POIN2	Crownslayer_FINAL_2_021
// 026   ----------------------------------------
	BYTE	PATT
	 POIN2	Crownslayer_FINAL_2_022
// 027   ----------------------------------------
	BYTE		N11     Fs1   v127
	BYTE	W12
	BYTE		        Dn1 
	BYTE	W12
	BYTE		        Ds1 
	BYTE	W12
	BYTE		        Dn1 
	BYTE	W12
	BYTE		N42     Fs1 
	BYTE	W44
	BYTE	GoTo
	 POIN2	Crownslayer_FINAL_2_B1
Crownslayer_FINAL_2_B2:
	BYTE	FINE

//**************** Track 3 (Midi-Chn.3) ****************//

Crownslayer_FINAL_3:
	BYTE	KEYSH   Crownslayer_FINAL_key+0
Crownslayer_FINAL_3_B1:
// 000   ----------------------------------------
	BYTE		VOICE   45
	BYTE		MODT    0
	BYTE		LFOS    44
	BYTE		VOL     127*Crownslayer_FINAL_mvl/mxv
	BYTE		PAN     c_v+32
	BYTE	W96
// 001   ----------------------------------------
	BYTE	W96
// 002   ----------------------------------------
Crownslayer_FINAL_3_002:
	BYTE	W12
	BYTE		N11     Gn3   v100
	BYTE		N11     As3 
	BYTE		N11     Dn4 
	BYTE	W24
	BYTE		        Gn3 
	BYTE		N11     As3 
	BYTE		N11     Dn4 
	BYTE	W24
	BYTE		        Fn3 
	BYTE		N11     An3 
	BYTE		N11     Cn4 
	BYTE	W24
	BYTE		        Fn3 
	BYTE		N11     An3 
	BYTE		N11     Cn4 
	BYTE	W12
	BYTE	PEND
// 003   ----------------------------------------
Crownslayer_FINAL_3_003:
	BYTE	W12
	BYTE		N11     Ds3   v100
	BYTE		N11     Gn3 
	BYTE		N11     As3 
	BYTE	W24
	BYTE		        Ds3 
	BYTE		N11     Gn3 
	BYTE		N11     As3 
	BYTE	W24
	BYTE		        Dn3 
	BYTE		N11     Fs3 
	BYTE		N11     An3 
	BYTE	W24
	BYTE		        Dn3 
	BYTE		N11     Fs3 
	BYTE		N11     An3 
	BYTE	W12
	BYTE	PEND
// 004   ----------------------------------------
	BYTE	PATT
	 POIN2	Crownslayer_FINAL_3_002
// 005   ----------------------------------------
	BYTE	PATT
	 POIN2	Crownslayer_FINAL_3_003
// 006   ----------------------------------------
	BYTE	PATT
	 POIN2	Crownslayer_FINAL_3_002
// 007   ----------------------------------------
	BYTE	PATT
	 POIN2	Crownslayer_FINAL_3_003
// 008   ----------------------------------------
	BYTE	W12
	BYTE		N11     Ds3   v100
	BYTE		N11     Gn3 
	BYTE		N11     As3 
	BYTE	W24
	BYTE		        Ds3 
	BYTE		N11     Gn3 
	BYTE		N11     As3 
	BYTE	W24
	BYTE		        Fn3 
	BYTE		N11     An3 
	BYTE		N11     Cn4 
	BYTE	W24
	BYTE		        Fn3 
	BYTE		N11     An3 
	BYTE		N11     Cn4 
	BYTE	W12
// 009   ----------------------------------------
	BYTE	W12
	BYTE		        Fn3 
	BYTE		N11     An3 
	BYTE		N11     Dn4 
	BYTE	W24
	BYTE		        Fn3 
	BYTE		N11     An3 
	BYTE		N11     Dn4 
	BYTE	W24
	BYTE		        Ds3 
	BYTE		N11     Gn3 
	BYTE		N11     Cn4 
	BYTE	W24
	BYTE		        Ds3 
	BYTE		N11     Gn3 
	BYTE		N11     Cn4 
	BYTE	W12
// 010   ----------------------------------------
	BYTE	W12
	BYTE		        Dn3 
	BYTE		N11     Fn3 
	BYTE		N11     As3 
	BYTE	W24
	BYTE		        Dn3 
	BYTE		N11     Fn3 
	BYTE		N11     As3 
	BYTE	W24
	BYTE		        Dn3 
	BYTE		N11     Fn3 
	BYTE		N11     An3 
	BYTE	W24
	BYTE		        Dn3 
	BYTE		N11     Fn3 
	BYTE		N11     An3 
	BYTE	W12
// 011   ----------------------------------------
	BYTE	W12
	BYTE		        Cn3 
	BYTE		N11     Ds3 
	BYTE		N11     Gn3 
	BYTE	W24
	BYTE		        Cn3 
	BYTE		N11     Ds3 
	BYTE		N11     Gn3 
	BYTE	W12
	BYTE		N20     Dn3 
	BYTE		N20     Fs3 
	BYTE		N20     An3 
	BYTE	W24
	BYTE		        Fs3 
	BYTE		N20     An3 
	BYTE		N20     Dn4 
	BYTE	W24
// 012   ----------------------------------------
	BYTE	W96
// 013   ----------------------------------------
	BYTE	W96
// 014   ----------------------------------------
	BYTE	W96
// 015   ----------------------------------------
	BYTE	W96
// 016   ----------------------------------------
	BYTE	W96
// 017   ----------------------------------------
	BYTE	W96
// 018   ----------------------------------------
	BYTE	W96
// 019   ----------------------------------------
	BYTE	W96
// 020   ----------------------------------------
Crownslayer_FINAL_3_020:
	BYTE	W12
	BYTE		N11     Gn3   v100
	BYTE		N11     As3 
	BYTE		N11     Dn4 
	BYTE	W24
	BYTE		        Gn3 
	BYTE		N11     As3 
	BYTE		N11     Dn4 
	BYTE	W24
	BYTE		        Gn3 
	BYTE		N11     As3 
	BYTE		N11     Dn4 
	BYTE	W24
	BYTE		        Gn3 
	BYTE		N11     As3 
	BYTE		N11     Dn4 
	BYTE	W12
	BYTE	PEND
// 021   ----------------------------------------
Crownslayer_FINAL_3_021:
	BYTE	W12
	BYTE		N11     Fn3   v100
	BYTE		N11     An3 
	BYTE		N11     Cn4 
	BYTE	W24
	BYTE		        Fn3 
	BYTE		N11     An3 
	BYTE		N11     Cn4 
	BYTE	W24
	BYTE		        Fn3 
	BYTE		N11     An3 
	BYTE		N11     Cn4 
	BYTE	W24
	BYTE		        Fn3 
	BYTE		N11     An3 
	BYTE		N11     Cn4 
	BYTE	W12
	BYTE	PEND
// 022   ----------------------------------------
Crownslayer_FINAL_3_022:
	BYTE	W12
	BYTE		N11     Ds3   v100
	BYTE		N11     Gn3 
	BYTE		N11     As3 
	BYTE	W24
	BYTE		        Ds3 
	BYTE		N11     Gn3 
	BYTE		N11     As3 
	BYTE	W24
	BYTE		        Ds3 
	BYTE		N11     Gn3 
	BYTE		N11     As3 
	BYTE	W24
	BYTE		        Ds3 
	BYTE		N11     Gn3 
	BYTE		N11     As3 
	BYTE	W12
	BYTE	PEND
// 023   ----------------------------------------
	BYTE	W12
	BYTE		        Dn3 
	BYTE		N11     Fs3 
	BYTE		N11     An3 
	BYTE	W24
	BYTE		        Dn3 
	BYTE		N11     Fs3 
	BYTE		N11     An3 
	BYTE	W24
	BYTE		        Dn3 
	BYTE		N11     Fs3 
	BYTE		N11     An3 
	BYTE	W24
	BYTE		        Dn3 
	BYTE		N11     Fs3 
	BYTE		N11     An3 
	BYTE	W12
// 024   ----------------------------------------
	BYTE	PATT
	 POIN2	Crownslayer_FINAL_3_020
// 025   ----------------------------------------
	BYTE	PATT
	 POIN2	Crownslayer_FINAL_3_021
// 026   ----------------------------------------
	BYTE	PATT
	 POIN2	Crownslayer_FINAL_3_022
// 027   ----------------------------------------
	BYTE	W12
	BYTE		N11     Dn3   v100
	BYTE		N11     Fs3 
	BYTE		N11     An3 
	BYTE	W24
	BYTE		        Dn3 
	BYTE		N11     Fs3 
	BYTE		N11     An3 
	BYTE	W12
	BYTE		N42     Dn3 
	BYTE		N42     Fs3 
	BYTE		N42     An3 
	BYTE	W44
	BYTE	GoTo
	 POIN2	Crownslayer_FINAL_3_B1
Crownslayer_FINAL_3_B2:
	BYTE	FINE

//**************** Track 4 (Midi-Chn.4) ****************//

Crownslayer_FINAL_4:
	BYTE	KEYSH   Crownslayer_FINAL_key+0
Crownslayer_FINAL_4_B1:
// 000   ----------------------------------------
	BYTE		VOICE   21
	BYTE		MODT    0
	BYTE		LFOS    44
	BYTE		PAN     c_v+15
	BYTE		VOL     127*Crownslayer_FINAL_mvl/mxv
	BYTE	W96
// 001   ----------------------------------------
	BYTE	W96
// 002   ----------------------------------------
	BYTE	W96
// 003   ----------------------------------------
	BYTE	W72
	BYTE		N05     Gn3   v127
	BYTE	W06
	BYTE		        An3 
	BYTE	W06
	BYTE		        As3 
	BYTE	W06
	BYTE		        Cn4 
	BYTE	W06
// 004   ----------------------------------------
	BYTE		N32     Dn4 
	BYTE	W36
	BYTE		N05     As3 
	BYTE	W06
	BYTE		        Dn4 
	BYTE	W06
	BYTE		        Cn4 
	BYTE	W06
	BYTE		        As3 
	BYTE	W06
	BYTE		N20     Cn4 
	BYTE	W24
	BYTE		N05     An3 
	BYTE	W06
	BYTE		        Cn4 
	BYTE	W06
// 005   ----------------------------------------
	BYTE		        As3 
	BYTE	W06
	BYTE		        An3 
	BYTE	W06
	BYTE		        Gn3 
	BYTE	W06
	BYTE		        An3 
	BYTE	W06
	BYTE		        As3 
	BYTE	W06
	BYTE		        Dn4 
	BYTE	W06
	BYTE		        Ds4 
	BYTE	W06
	BYTE		        Cn4 
	BYTE	W06
	BYTE		N20     Dn4 
	BYTE	W24
	BYTE		N05     Gn3 
	BYTE	W06
	BYTE		        An3 
	BYTE	W06
	BYTE		        As3 
	BYTE	W06
	BYTE		        Cn4 
	BYTE	W06
// 006   ----------------------------------------
	BYTE		N28     Dn4 
	BYTE	W30
	BYTE		N05     Cn4 
	BYTE	W06
	BYTE		        Dn4 
	BYTE	W06
	BYTE		        Ds4 
	BYTE	W06
	BYTE		N32     Fn4 
	BYTE	W36
	BYTE		N05     Gn4 
	BYTE	W06
	BYTE		        Fn4 
	BYTE	W06
// 007   ----------------------------------------
	BYTE		        Ds4 
	BYTE	W06
	BYTE		        Dn4 
	BYTE	W06
	BYTE		        Cn4 
	BYTE	W06
	BYTE		        Dn4 
	BYTE	W06
	BYTE		        Ds4 
	BYTE	W06
	BYTE		        Fn4 
	BYTE	W06
	BYTE		        Gn4 
	BYTE	W06
	BYTE		        Ds4 
	BYTE	W06
	BYTE		N20     Fs4 
	BYTE	W24
	BYTE		N05     Dn4 
	BYTE	W06
	BYTE		        An3 
	BYTE	W06
	BYTE		        As3 
	BYTE	W06
	BYTE		        Cn4 
	BYTE	W06
// 008   ----------------------------------------
	BYTE		N11     As3 
	BYTE	W12
	BYTE		        An3 
	BYTE	W12
	BYTE		        Gn3 
	BYTE	W12
	BYTE		        As3 
	BYTE	W12
	BYTE		        Cn4 
	BYTE	W12
	BYTE		        Dn4 
	BYTE	W12
	BYTE		        Ds4 
	BYTE	W12
	BYTE		        Cn4 
	BYTE	W12
// 009   ----------------------------------------
	BYTE		N28     Dn4 
	BYTE	W30
	BYTE		N05     Ds4 
	BYTE	W06
	BYTE		        Fn4 
	BYTE	W06
	BYTE		        Dn4 
	BYTE	W06
	BYTE		N11     Cn4 
	BYTE	W12
	BYTE		        Dn4 
	BYTE	W12
	BYTE		        Ds4 
	BYTE	W12
	BYTE		        Gn4 
	BYTE	W12
// 010   ----------------------------------------
	BYTE		N32     Fn4 
	BYTE	W36
	BYTE		N11     Gn4 
	BYTE	W12
	BYTE		        Fn4 
	BYTE	W12
	BYTE		        Ds4 
	BYTE	W12
	BYTE		        Dn4 
	BYTE	W12
	BYTE		        Cn4 
	BYTE	W12
// 011   ----------------------------------------
	BYTE		N20     As3 
	BYTE	W24
	BYTE		        Gn3 
	BYTE	W24
	BYTE		        An3 
	BYTE	W24
	BYTE		        Fs3 
	BYTE	W24
// 012   ----------------------------------------
	BYTE	W96
// 013   ----------------------------------------
	BYTE	W96
// 014   ----------------------------------------
	BYTE	W96
// 015   ----------------------------------------
	BYTE	W96
// 016   ----------------------------------------
	BYTE	W96
// 017   ----------------------------------------
	BYTE	W96
// 018   ----------------------------------------
	BYTE	W96
// 019   ----------------------------------------
	BYTE	W96
// 020   ----------------------------------------
Crownslayer_FINAL_4_020:
	BYTE		N02     Dn4   v127
	BYTE	W03
	BYTE		        Ds4 
	BYTE	W03
	BYTE		        Dn4 
	BYTE	W03
	BYTE		        Ds4 
	BYTE	W03
	BYTE		        Dn4 
	BYTE	W03
	BYTE		        Ds4 
	BYTE	W03
	BYTE		        Dn4 
	BYTE	W03
	BYTE		        Ds4 
	BYTE	W03
	BYTE		        Dn4 
	BYTE	W03
	BYTE		        Ds4 
	BYTE	W03
	BYTE		        Dn4 
	BYTE	W03
	BYTE		        Ds4 
	BYTE	W03
	BYTE		        Dn4 
	BYTE	W03
	BYTE		        Ds4 
	BYTE	W03
	BYTE		        Dn4 
	BYTE	W03
	BYTE		        Ds4 
	BYTE	W03
	BYTE		        Dn4 
	BYTE	W03
	BYTE		        Ds4 
	BYTE	W03
	BYTE		        Dn4 
	BYTE	W03
	BYTE		        Ds4 
	BYTE	W03
	BYTE		        Dn4 
	BYTE	W03
	BYTE		        Ds4 
	BYTE	W03
	BYTE		        Dn4 
	BYTE	W03
	BYTE		        Ds4 
	BYTE	W03
	BYTE		        Dn4 
	BYTE	W03
	BYTE		        Ds4 
	BYTE	W03
	BYTE		        Dn4 
	BYTE	W03
	BYTE		        Ds4 
	BYTE	W03
	BYTE		        Dn4 
	BYTE	W03
	BYTE		        Ds4 
	BYTE	W03
	BYTE		        Dn4 
	BYTE	W03
	BYTE		        Ds4 
	BYTE	W03
	BYTE	PEND
// 021   ----------------------------------------
	BYTE	PATT
	 POIN2	Crownslayer_FINAL_4_020
// 022   ----------------------------------------
	BYTE		N20     Fn4   v127
	BYTE	W24
	BYTE		N05   
	BYTE	W06
	BYTE		        Cn4 
	BYTE	W06
	BYTE		        Dn4 
	BYTE	W06
	BYTE		        Ds4 
	BYTE	W06
	BYTE		N11     Dn4 
	BYTE	W12
	BYTE		        Cn4 
	BYTE	W12
	BYTE		        As3 
	BYTE	W12
	BYTE		        Gn3 
	BYTE	W12
// 023   ----------------------------------------
	BYTE		N42     An3 
	BYTE	W48
	BYTE		        Cn4 
	BYTE	W48
// 024   ----------------------------------------
	BYTE		N32     Dn4 
	BYTE	W36
	BYTE		N11     Cn4 
	BYTE	W12
	BYTE		N05     As3 
	BYTE	W06
	BYTE		        An3 
	BYTE	W06
	BYTE		        Gn3 
	BYTE	W06
	BYTE		        An3 
	BYTE	W06
	BYTE		N11     As3 
	BYTE	W12
	BYTE		        Dn4 
	BYTE	W12
// 025   ----------------------------------------
	BYTE		        Ds4 
	BYTE	W12
	BYTE		        Dn4 
	BYTE	W12
	BYTE		        Cn4 
	BYTE	W12
	BYTE		        As3 
	BYTE	W12
	BYTE		N32     Cn4 
	BYTE	W36
	BYTE		N05     Dn4 
	BYTE	W06
	BYTE		        Ds4 
	BYTE	W06
// 026   ----------------------------------------
	BYTE		N20     Dn4 
	BYTE	W24
	BYTE		        Cn4 
	BYTE	W24
	BYTE		        As3 
	BYTE	W24
	BYTE		        Gn3 
	BYTE	W24
// 027   ----------------------------------------
	BYTE		N90     An3 
	BYTE	W92
	BYTE	GoTo
	 POIN2	Crownslayer_FINAL_4_B1
Crownslayer_FINAL_4_B2:
	BYTE	FINE

//**************** Track 5 (Midi-Chn.5) ****************//

Crownslayer_FINAL_5:
	BYTE	KEYSH   Crownslayer_FINAL_key+0
Crownslayer_FINAL_5_B1:
// 000   ----------------------------------------
	BYTE		VOICE   23
	BYTE		MODT    0
	BYTE		LFOS    44
	BYTE		PAN     c_v-31
	BYTE		VOL     127*Crownslayer_FINAL_mvl/mxv
	BYTE	W96
// 001   ----------------------------------------
	BYTE	W96
// 002   ----------------------------------------
	BYTE	W96
// 003   ----------------------------------------
	BYTE	W72
	BYTE		N05     Gn3   v127
	BYTE	W06
	BYTE		        An3 
	BYTE	W06
	BYTE		        As3 
	BYTE	W06
	BYTE		        Cn4 
	BYTE	W06
// 004   ----------------------------------------
	BYTE		N32     Dn4 
	BYTE	W36
	BYTE		N05     As3 
	BYTE	W06
	BYTE		        Dn4 
	BYTE	W06
	BYTE		        Cn4 
	BYTE	W06
	BYTE		        As3 
	BYTE	W06
	BYTE		N20     Cn4 
	BYTE	W24
	BYTE		N05     An3 
	BYTE	W06
	BYTE		        Cn4 
	BYTE	W06
// 005   ----------------------------------------
	BYTE		        As3 
	BYTE	W06
	BYTE		        An3 
	BYTE	W06
	BYTE		        Gn3 
	BYTE	W06
	BYTE		        An3 
	BYTE	W06
	BYTE		        As3 
	BYTE	W06
	BYTE		        Dn4 
	BYTE	W06
	BYTE		        Ds4 
	BYTE	W06
	BYTE		        Cn4 
	BYTE	W06
	BYTE		N20     Dn4 
	BYTE	W24
	BYTE		N05     Gn3 
	BYTE	W06
	BYTE		        An3 
	BYTE	W06
	BYTE		        As3 
	BYTE	W06
	BYTE		        Cn4 
	BYTE	W06
// 006   ----------------------------------------
	BYTE		N28     Dn4 
	BYTE	W30
	BYTE		N05     Cn4 
	BYTE	W06
	BYTE		        Dn4 
	BYTE	W06
	BYTE		        Ds4 
	BYTE	W06
	BYTE		N32     Fn4 
	BYTE	W36
	BYTE		N05     Gn4 
	BYTE	W06
	BYTE		        Fn4 
	BYTE	W06
// 007   ----------------------------------------
	BYTE		        Ds4 
	BYTE	W06
	BYTE		        Dn4 
	BYTE	W06
	BYTE		        Cn4 
	BYTE	W06
	BYTE		        Dn4 
	BYTE	W06
	BYTE		        Ds4 
	BYTE	W06
	BYTE		        Fn4 
	BYTE	W06
	BYTE		        Gn4 
	BYTE	W06
	BYTE		        Ds4 
	BYTE	W06
	BYTE		N20     Fs4 
	BYTE	W24
	BYTE		N05     Dn4 
	BYTE	W06
	BYTE		        An3 
	BYTE	W06
	BYTE		        As3 
	BYTE	W06
	BYTE		        Cn4 
	BYTE	W06
// 008   ----------------------------------------
	BYTE		N11     As3 
	BYTE	W12
	BYTE		        An3 
	BYTE	W12
	BYTE		        Gn3 
	BYTE	W12
	BYTE		        As3 
	BYTE	W12
	BYTE		        Cn4 
	BYTE	W12
	BYTE		        Dn4 
	BYTE	W12
	BYTE		        Ds4 
	BYTE	W12
	BYTE		        Cn4 
	BYTE	W12
// 009   ----------------------------------------
	BYTE		N28     Dn4 
	BYTE	W30
	BYTE		N05     Ds4 
	BYTE	W06
	BYTE		        Fn4 
	BYTE	W06
	BYTE		        Dn4 
	BYTE	W06
	BYTE		N11     Cn4 
	BYTE	W12
	BYTE		        Dn4 
	BYTE	W12
	BYTE		        Ds4 
	BYTE	W12
	BYTE		        Gn4 
	BYTE	W12
// 010   ----------------------------------------
	BYTE		N32     Fn4 
	BYTE	W36
	BYTE		N11     Gn4 
	BYTE	W12
	BYTE		        Fn4 
	BYTE	W12
	BYTE		        Ds4 
	BYTE	W12
	BYTE		        Dn4 
	BYTE	W12
	BYTE		        Cn4 
	BYTE	W12
// 011   ----------------------------------------
	BYTE		N20     As3 
	BYTE	W24
	BYTE		        Gn3 
	BYTE	W24
	BYTE		        An3 
	BYTE	W24
	BYTE		        Fs3 
	BYTE	W24
// 012   ----------------------------------------
	BYTE	W96
// 013   ----------------------------------------
	BYTE	W96
// 014   ----------------------------------------
	BYTE	W96
// 015   ----------------------------------------
	BYTE	W96
// 016   ----------------------------------------
	BYTE	W96
// 017   ----------------------------------------
	BYTE	W96
// 018   ----------------------------------------
	BYTE	W96
// 019   ----------------------------------------
	BYTE	W96
// 020   ----------------------------------------
Crownslayer_FINAL_5_020:
	BYTE		N02     Dn4   v127
	BYTE	W03
	BYTE		        Ds4 
	BYTE	W03
	BYTE		        Dn4 
	BYTE	W03
	BYTE		        Ds4 
	BYTE	W03
	BYTE		        Dn4 
	BYTE	W03
	BYTE		        Ds4 
	BYTE	W03
	BYTE		        Dn4 
	BYTE	W03
	BYTE		        Ds4 
	BYTE	W03
	BYTE		        Dn4 
	BYTE	W03
	BYTE		        Ds4 
	BYTE	W03
	BYTE		        Dn4 
	BYTE	W03
	BYTE		        Ds4 
	BYTE	W03
	BYTE		        Dn4 
	BYTE	W03
	BYTE		        Ds4 
	BYTE	W03
	BYTE		        Dn4 
	BYTE	W03
	BYTE		        Ds4 
	BYTE	W03
	BYTE		        Dn4 
	BYTE	W03
	BYTE		        Ds4 
	BYTE	W03
	BYTE		        Dn4 
	BYTE	W03
	BYTE		        Ds4 
	BYTE	W03
	BYTE		        Dn4 
	BYTE	W03
	BYTE		        Ds4 
	BYTE	W03
	BYTE		        Dn4 
	BYTE	W03
	BYTE		        Ds4 
	BYTE	W03
	BYTE		        Dn4 
	BYTE	W03
	BYTE		        Ds4 
	BYTE	W03
	BYTE		        Dn4 
	BYTE	W03
	BYTE		        Ds4 
	BYTE	W03
	BYTE		        Dn4 
	BYTE	W03
	BYTE		        Ds4 
	BYTE	W03
	BYTE		        Dn4 
	BYTE	W03
	BYTE		        Ds4 
	BYTE	W03
	BYTE	PEND
// 021   ----------------------------------------
	BYTE	PATT
	 POIN2	Crownslayer_FINAL_5_020
// 022   ----------------------------------------
	BYTE		N20     Fn4   v127
	BYTE	W24
	BYTE		N05   
	BYTE	W06
	BYTE		        Cn4 
	BYTE	W06
	BYTE		        Dn4 
	BYTE	W06
	BYTE		        Ds4 
	BYTE	W06
	BYTE		N11     Dn4 
	BYTE	W12
	BYTE		        Cn4 
	BYTE	W12
	BYTE		        As3 
	BYTE	W12
	BYTE		        Gn3 
	BYTE	W12
// 023   ----------------------------------------
	BYTE		N42     An3 
	BYTE	W48
	BYTE		        Cn4 
	BYTE	W48
// 024   ----------------------------------------
	BYTE		N32     Dn4 
	BYTE	W36
	BYTE		N11     Cn4 
	BYTE	W12
	BYTE		N05     As3 
	BYTE	W06
	BYTE		        An3 
	BYTE	W06
	BYTE		        Gn3 
	BYTE	W06
	BYTE		        An3 
	BYTE	W06
	BYTE		N11     As3 
	BYTE	W12
	BYTE		        Dn4 
	BYTE	W12
// 025   ----------------------------------------
	BYTE		        Ds4 
	BYTE	W12
	BYTE		        Dn4 
	BYTE	W12
	BYTE		        Cn4 
	BYTE	W12
	BYTE		        As3 
	BYTE	W12
	BYTE		N32     Cn4 
	BYTE	W36
	BYTE		N05     Dn4 
	BYTE	W06
	BYTE		        Ds4 
	BYTE	W06
// 026   ----------------------------------------
	BYTE		N20     Dn4 
	BYTE	W24
	BYTE		        Cn4 
	BYTE	W24
	BYTE		        As3 
	BYTE	W24
	BYTE		        Gn3 
	BYTE	W24
// 027   ----------------------------------------
	BYTE		N90     An3 
	BYTE	W92
	BYTE	GoTo
	 POIN2	Crownslayer_FINAL_5_B1
Crownslayer_FINAL_5_B2:
	BYTE	FINE

//**************** Track 6 (Midi-Chn.6) ****************//

Crownslayer_FINAL_6:
	BYTE	KEYSH   Crownslayer_FINAL_key+0
Crownslayer_FINAL_6_B1:
// 000   ----------------------------------------
	BYTE		VOICE   48
	BYTE		MODT    0
	BYTE		LFOS    44
	BYTE		VOL     127*Crownslayer_FINAL_mvl/mxv
	BYTE		PAN     c_v+32
	BYTE	W96
// 001   ----------------------------------------
	BYTE	W96
// 002   ----------------------------------------
	BYTE	W96
// 003   ----------------------------------------
	BYTE	W96
// 004   ----------------------------------------
	BYTE	W96
// 005   ----------------------------------------
	BYTE	W96
// 006   ----------------------------------------
	BYTE	W96
// 007   ----------------------------------------
	BYTE	W96
// 008   ----------------------------------------
	BYTE	W96
// 009   ----------------------------------------
	BYTE	W96
// 010   ----------------------------------------
	BYTE	W96
// 011   ----------------------------------------
	BYTE	W96
// 012   ----------------------------------------
	BYTE		N90     As2   v100
	BYTE		TIE     Dn3 
	BYTE		N90     Gn3 
	BYTE	W96
// 013   ----------------------------------------
	BYTE		        An2 
	BYTE		N90     Fn3 
	BYTE	W90
	BYTE		EOT     Dn3 
	BYTE	W06
// 014   ----------------------------------------
	BYTE		TIE     Cn3 
	BYTE		N90     En3 
	BYTE		N90     Gn3 
	BYTE	W96
// 015   ----------------------------------------
	BYTE		TIE     Fn3 
	BYTE		N90     An3 
	BYTE	W90
	BYTE		EOT     Cn3 
	BYTE	W06
// 016   ----------------------------------------
	BYTE		N90     Dn3 
	BYTE		N90     As3 
	BYTE	W96
// 017   ----------------------------------------
	BYTE		        An3 
	BYTE		N90     Cn4 
	BYTE	W90
	BYTE		EOT     Fn3 
	BYTE	W06
// 018   ----------------------------------------
Crownslayer_FINAL_6_018:
	BYTE		N90     Ds3   v100
	BYTE		N90     Gn3 
	BYTE		N90     As3 
	BYTE	W96
	BYTE	PEND
// 019   ----------------------------------------
Crownslayer_FINAL_6_019:
	BYTE		N90     Dn3   v100
	BYTE		N90     Fs3 
	BYTE		N90     An3 
	BYTE	W96
	BYTE	PEND
// 020   ----------------------------------------
Crownslayer_FINAL_6_020:
	BYTE		N90     Gn3   v100
	BYTE		N90     As3 
	BYTE		N90     Dn4 
	BYTE	W96
	BYTE	PEND
// 021   ----------------------------------------
Crownslayer_FINAL_6_021:
	BYTE		N90     Fn3   v100
	BYTE		N90     An3 
	BYTE		N90     Cn4 
	BYTE	W96
	BYTE	PEND
// 022   ----------------------------------------
	BYTE	PATT
	 POIN2	Crownslayer_FINAL_6_018
// 023   ----------------------------------------
	BYTE	PATT
	 POIN2	Crownslayer_FINAL_6_019
// 024   ----------------------------------------
	BYTE	PATT
	 POIN2	Crownslayer_FINAL_6_020
// 025   ----------------------------------------
	BYTE	PATT
	 POIN2	Crownslayer_FINAL_6_021
// 026   ----------------------------------------
	BYTE	PATT
	 POIN2	Crownslayer_FINAL_6_018
// 027   ----------------------------------------
	BYTE		N90     Dn3   v100
	BYTE		N90     Fs3 
	BYTE		N90     An3 
	BYTE	W92
	BYTE	GoTo
	 POIN2	Crownslayer_FINAL_6_B1
Crownslayer_FINAL_6_B2:
	BYTE	FINE

//**************** Track 7 (Midi-Chn.7) ****************//

Crownslayer_FINAL_7:
	BYTE	KEYSH   Crownslayer_FINAL_key+0
Crownslayer_FINAL_7_B1:
// 000   ----------------------------------------
	BYTE		VOICE   60
	BYTE		MODT    0
	BYTE		LFOS    44
	BYTE		PAN     c_v-17
	BYTE		VOL     127*Crownslayer_FINAL_mvl/mxv
	BYTE	W96
// 001   ----------------------------------------
	BYTE	W96
// 002   ----------------------------------------
	BYTE	W96
// 003   ----------------------------------------
	BYTE	W96
// 004   ----------------------------------------
	BYTE	W96
// 005   ----------------------------------------
	BYTE	W96
// 006   ----------------------------------------
	BYTE	W96
// 007   ----------------------------------------
	BYTE	W96
// 008   ----------------------------------------
	BYTE	W96
// 009   ----------------------------------------
	BYTE	W96
// 010   ----------------------------------------
	BYTE	W96
// 011   ----------------------------------------
	BYTE	W96
// 012   ----------------------------------------
	BYTE		N24     Gn2   v127
	BYTE	W24
	BYTE		        An2 
	BYTE	W24
	BYTE		        As2 
	BYTE	W24
	BYTE		        Gn2 
	BYTE	W24
// 013   ----------------------------------------
	BYTE		        Fn2 
	BYTE	W24
	BYTE		        En2 
	BYTE	W24
	BYTE		        Dn2 
	BYTE	W24
	BYTE		        Fn2 
	BYTE	W24
// 014   ----------------------------------------
	BYTE		        Gn2 
	BYTE	W24
	BYTE		        An2 
	BYTE	W24
	BYTE		        As2 
	BYTE	W24
	BYTE		        Dn3 
	BYTE	W24
// 015   ----------------------------------------
	BYTE		N48     Cn3 
	BYTE	W48
	BYTE		        An2 
	BYTE	W48
// 016   ----------------------------------------
	BYTE		N24     As2 
	BYTE	W24
	BYTE		        Cn3 
	BYTE	W24
	BYTE		        Dn3 
	BYTE	W24
	BYTE		        As2 
	BYTE	W24
// 017   ----------------------------------------
	BYTE		        An2 
	BYTE	W24
	BYTE		        Gn2 
	BYTE	W24
	BYTE		        Fn2 
	BYTE	W24
	BYTE		        An2 
	BYTE	W24
// 018   ----------------------------------------
	BYTE		N48     Gn2 
	BYTE	W48
	BYTE		        Ds2 
	BYTE	W48
// 019   ----------------------------------------
	BYTE		N12     Dn2 
	BYTE	W12
	BYTE		        Cn2 
	BYTE	W12
	BYTE		        Dn2 
	BYTE	W12
	BYTE		        Ds2 
	BYTE	W12
	BYTE		N42     Dn2 
	BYTE	W48
// 020   ----------------------------------------
	BYTE	W96
// 021   ----------------------------------------
	BYTE	W96
// 022   ----------------------------------------
	BYTE	W96
// 023   ----------------------------------------
	BYTE	W96
// 024   ----------------------------------------
	BYTE	W96
// 025   ----------------------------------------
	BYTE	W96
// 026   ----------------------------------------
	BYTE	W96
// 027   ----------------------------------------
	BYTE	W92
	BYTE	GoTo
	 POIN2	Crownslayer_FINAL_7_B1
Crownslayer_FINAL_7_B2:
	BYTE	FINE

//**************** Track 8 (Midi-Chn.8) ****************//

Crownslayer_FINAL_8:
	BYTE	KEYSH   Crownslayer_FINAL_key+0
Crownslayer_FINAL_8_B1:
// 000   ----------------------------------------
	BYTE		VOICE   122
	BYTE		MODT    0
	BYTE		LFOS    44
	BYTE		VOL     127*Crownslayer_FINAL_mvl/mxv
	BYTE		PAN     c_v+0
	BYTE	W96
// 001   ----------------------------------------
	BYTE	W96
// 002   ----------------------------------------
Crownslayer_FINAL_8_002:
	BYTE		N11     Fs1   v127
	BYTE	W12
	BYTE		        Gs1 
	BYTE	W12
	BYTE		        As1 
	BYTE	W12
	BYTE		        Gs1 
	BYTE	W12
	BYTE		        Fs1 
	BYTE	W12
	BYTE		        Gs1 
	BYTE	W12
	BYTE		        As1 
	BYTE	W12
	BYTE		        Gs1 
	BYTE	W12
	BYTE	PEND
// 003   ----------------------------------------
	BYTE	PATT
	 POIN2	Crownslayer_FINAL_8_002
// 004   ----------------------------------------
Crownslayer_FINAL_8_004:
	BYTE		N11     Bn0   v127
	BYTE		N11     Cn1 
	BYTE		N11     Fs1 
	BYTE	W12
	BYTE		        Cs1 
	BYTE		N11     Gs1 
	BYTE	W12
	BYTE		        As1 
	BYTE	W12
	BYTE		        Dn1 
	BYTE		N11     En1 
	BYTE		N11     Gs1 
	BYTE	W12
	BYTE		        Bn0 
	BYTE		N11     Cn1 
	BYTE		N11     Fs1 
	BYTE	W12
	BYTE		        Cs1 
	BYTE		N11     Gs1 
	BYTE	W12
	BYTE		        As1 
	BYTE	W12
	BYTE		        Dn1 
	BYTE		N11     En1 
	BYTE		N11     Gs1 
	BYTE	W12
	BYTE	PEND
// 005   ----------------------------------------
	BYTE	PATT
	 POIN2	Crownslayer_FINAL_8_004
// 006   ----------------------------------------
	BYTE	PATT
	 POIN2	Crownslayer_FINAL_8_004
// 007   ----------------------------------------
	BYTE	PATT
	 POIN2	Crownslayer_FINAL_8_004
// 008   ----------------------------------------
	BYTE	PATT
	 POIN2	Crownslayer_FINAL_8_004
// 009   ----------------------------------------
	BYTE	PATT
	 POIN2	Crownslayer_FINAL_8_004
// 010   ----------------------------------------
	BYTE	PATT
	 POIN2	Crownslayer_FINAL_8_004
// 011   ----------------------------------------
	BYTE	PATT
	 POIN2	Crownslayer_FINAL_8_004
// 012   ----------------------------------------
	BYTE	PATT
	 POIN2	Crownslayer_FINAL_8_002
// 013   ----------------------------------------
	BYTE	PATT
	 POIN2	Crownslayer_FINAL_8_002
// 014   ----------------------------------------
	BYTE	PATT
	 POIN2	Crownslayer_FINAL_8_002
// 015   ----------------------------------------
	BYTE	PATT
	 POIN2	Crownslayer_FINAL_8_002
// 016   ----------------------------------------
	BYTE	PATT
	 POIN2	Crownslayer_FINAL_8_002
// 017   ----------------------------------------
	BYTE	PATT
	 POIN2	Crownslayer_FINAL_8_002
// 018   ----------------------------------------
	BYTE	PATT
	 POIN2	Crownslayer_FINAL_8_002
// 019   ----------------------------------------
	BYTE	PATT
	 POIN2	Crownslayer_FINAL_8_002
// 020   ----------------------------------------
	BYTE	PATT
	 POIN2	Crownslayer_FINAL_8_004
// 021   ----------------------------------------
	BYTE	PATT
	 POIN2	Crownslayer_FINAL_8_004
// 022   ----------------------------------------
	BYTE	PATT
	 POIN2	Crownslayer_FINAL_8_004
// 023   ----------------------------------------
	BYTE	PATT
	 POIN2	Crownslayer_FINAL_8_004
// 024   ----------------------------------------
	BYTE	PATT
	 POIN2	Crownslayer_FINAL_8_004
// 025   ----------------------------------------
	BYTE	PATT
	 POIN2	Crownslayer_FINAL_8_004
// 026   ----------------------------------------
	BYTE	PATT
	 POIN2	Crownslayer_FINAL_8_004
// 027   ----------------------------------------
	BYTE		N11     Bn0   v127
	BYTE		N11     Cn1 
	BYTE		N11     Fs1 
	BYTE	W12
	BYTE		        Cs1 
	BYTE		N11     Gs1 
	BYTE	W12
	BYTE		        As1 
	BYTE	W12
	BYTE		        Dn1 
	BYTE		N11     En1 
	BYTE		N11     Gs1 
	BYTE	W12
	BYTE		N42     Cn1 
	BYTE		N42     As2 
	BYTE	W44
	BYTE	GoTo
	 POIN2	Crownslayer_FINAL_8_B1
Crownslayer_FINAL_8_B2:
	BYTE	FINE

//**************** Track 9 (Midi-Chn.9) ****************//

Crownslayer_FINAL_9:
	BYTE	KEYSH   Crownslayer_FINAL_key+0
Crownslayer_FINAL_9_B1:
// 000   ----------------------------------------
	BYTE		VOICE   127
	BYTE		MODT    0
	BYTE		LFOS    44
	BYTE		VOL     127*Crownslayer_FINAL_mvl/mxv
	BYTE		PAN     c_v+0
	BYTE		N20     Fn4   v127
	BYTE	W24
	BYTE		        En4 
	BYTE	W24
	BYTE		        Fn4 
	BYTE	W24
	BYTE		        En4 
	BYTE	W24
// 001   ----------------------------------------
Crownslayer_FINAL_9_001:
	BYTE		N20     Fn4   v127
	BYTE	W24
	BYTE		        En4 
	BYTE	W24
	BYTE		        Fn4 
	BYTE	W24
	BYTE		        En4 
	BYTE	W24
	BYTE	PEND
// 002   ----------------------------------------
	BYTE	PATT
	 POIN2	Crownslayer_FINAL_9_001
// 003   ----------------------------------------
	BYTE	PATT
	 POIN2	Crownslayer_FINAL_9_001
// 004   ----------------------------------------
Crownslayer_FINAL_9_004:
	BYTE		N11     Cs3   v127
	BYTE		N11     Fn4 
	BYTE	W12
	BYTE		        En3 
	BYTE	W12
	BYTE		        Cn3 
	BYTE		N11     En4 
	BYTE	W12
	BYTE		N05     Dn3 
	BYTE	W06
	BYTE		        Ds3 
	BYTE	W06
	BYTE		N11     Cs3 
	BYTE		N11     Fn4 
	BYTE	W12
	BYTE		        En3 
	BYTE	W12
	BYTE		        Cn3 
	BYTE		N11     En4 
	BYTE	W12
	BYTE		N05     Dn3 
	BYTE	W06
	BYTE		        Ds3 
	BYTE	W06
	BYTE	PEND
// 005   ----------------------------------------
	BYTE	PATT
	 POIN2	Crownslayer_FINAL_9_004
// 006   ----------------------------------------
	BYTE	PATT
	 POIN2	Crownslayer_FINAL_9_004
// 007   ----------------------------------------
	BYTE	PATT
	 POIN2	Crownslayer_FINAL_9_004
// 008   ----------------------------------------
	BYTE	PATT
	 POIN2	Crownslayer_FINAL_9_004
// 009   ----------------------------------------
	BYTE	PATT
	 POIN2	Crownslayer_FINAL_9_004
// 010   ----------------------------------------
	BYTE	PATT
	 POIN2	Crownslayer_FINAL_9_004
// 011   ----------------------------------------
	BYTE	PATT
	 POIN2	Crownslayer_FINAL_9_004
// 012   ----------------------------------------
	BYTE	PATT
	 POIN2	Crownslayer_FINAL_9_004
// 013   ----------------------------------------
	BYTE	PATT
	 POIN2	Crownslayer_FINAL_9_004
// 014   ----------------------------------------
	BYTE	PATT
	 POIN2	Crownslayer_FINAL_9_004
// 015   ----------------------------------------
	BYTE	PATT
	 POIN2	Crownslayer_FINAL_9_004
// 016   ----------------------------------------
	BYTE	PATT
	 POIN2	Crownslayer_FINAL_9_004
// 017   ----------------------------------------
	BYTE	PATT
	 POIN2	Crownslayer_FINAL_9_004
// 018   ----------------------------------------
	BYTE	PATT
	 POIN2	Crownslayer_FINAL_9_004
// 019   ----------------------------------------
	BYTE	PATT
	 POIN2	Crownslayer_FINAL_9_004
// 020   ----------------------------------------
	BYTE	PATT
	 POIN2	Crownslayer_FINAL_9_004
// 021   ----------------------------------------
	BYTE	PATT
	 POIN2	Crownslayer_FINAL_9_004
// 022   ----------------------------------------
	BYTE	PATT
	 POIN2	Crownslayer_FINAL_9_004
// 023   ----------------------------------------
	BYTE	PATT
	 POIN2	Crownslayer_FINAL_9_004
// 024   ----------------------------------------
	BYTE	PATT
	 POIN2	Crownslayer_FINAL_9_004
// 025   ----------------------------------------
	BYTE	PATT
	 POIN2	Crownslayer_FINAL_9_004
// 026   ----------------------------------------
	BYTE	PATT
	 POIN2	Crownslayer_FINAL_9_004
// 027   ----------------------------------------
	BYTE		N11     Cs3   v127
	BYTE		N11     Fn4 
	BYTE	W12
	BYTE		        En3 
	BYTE	W12
	BYTE		        Cn3 
	BYTE		N11     En4 
	BYTE	W12
	BYTE		N05     Dn3 
	BYTE	W06
	BYTE		        Ds3 
	BYTE	W06
	BYTE		N20     Fn4 
	BYTE	W24
	BYTE		        Ds4 
	BYTE	W20
	BYTE	GoTo
	 POIN2	Crownslayer_FINAL_9_B1
Crownslayer_FINAL_9_B2:
	BYTE	FINE

//******************************************************//
	ALIGN 4

Crownslayer_FINAL:
	BYTE	9	// NumTrks
	BYTE	0	// NumBlks
	BYTE	Crownslayer_FINAL_pri	// Priority
	BYTE	Crownslayer_FINAL_rev	// Reverb.

	POIN2	Crownslayer_FINAL_grp

	POIN2	Crownslayer_FINAL_1
	POIN2	Crownslayer_FINAL_2
	POIN2	Crownslayer_FINAL_3
	POIN2	Crownslayer_FINAL_4
	POIN2	Crownslayer_FINAL_5
	POIN2	Crownslayer_FINAL_6
	POIN2	Crownslayer_FINAL_7
	POIN2	Crownslayer_FINAL_8
	POIN2	Crownslayer_FINAL_9

	
