//Event file generated from Sappy .s format.
	#include "MPlayDef.event"

	#define	FaintGlow_grp  voicegroup000
	#define	FaintGlow_pri  0
	#define	FaintGlow_rev  0x94
	#define	FaintGlow_mvl  27
	#define	FaintGlow_key  0
	#define	FaintGlow_tbs  1
	#define	FaintGlow_exg  0
	#define	FaintGlow_cmp  1

	// .rodata
	//	FaintGlow
	ALIGN 4

//**************** Track 1 (Midi-Chn.1) ****************//

FaintGlow_1:
	BYTE	KEYSH   FaintGlow_key+0
FaintGlow_1_B1:
// 000   ----------------------------------------
	BYTE		VOICE   1
	BYTE		MODT    0
	BYTE		LFOS    44
	BYTE		VOL     127*FaintGlow_mvl/mxv
	BYTE		PAN     c_v-10
	BYTE		N11     Fn2   v100
	BYTE		N11     Fn3 
	BYTE	W12
	BYTE		        Gn3 
	BYTE	W12
	BYTE		        An3 
	BYTE	W12
	BYTE		N54     Fn3 
	BYTE		N54     An3 
	BYTE		N54     Cn4 
	BYTE	W60
// 001   ----------------------------------------
FaintGlow_1_001:
	BYTE		N11     En2   v100
	BYTE		N11     En3 
	BYTE	W12
	BYTE		        Fn3 
	BYTE	W12
	BYTE		        Gn3 
	BYTE	W12
	BYTE		N54     En3 
	BYTE		N54     Gn3 
	BYTE		N54     Bn3 
	BYTE	W60
	BYTE	PEND
// 002   ----------------------------------------
FaintGlow_1_002:
	BYTE		N11     Fn2   v100
	BYTE		N11     Fn3 
	BYTE	W12
	BYTE		        Gn3 
	BYTE	W12
	BYTE		        An3 
	BYTE	W12
	BYTE		N54     Fn3 
	BYTE		N54     An3 
	BYTE		N54     Cn4 
	BYTE	W60
	BYTE	PEND
// 003   ----------------------------------------
	BYTE	PATT
	 POIN2	FaintGlow_1_001
// 004   ----------------------------------------
	BYTE	PATT
	 POIN2	FaintGlow_1_002
// 005   ----------------------------------------
	BYTE	PATT
	 POIN2	FaintGlow_1_001
// 006   ----------------------------------------
	BYTE	PATT
	 POIN2	FaintGlow_1_002
// 007   ----------------------------------------
	BYTE	PATT
	 POIN2	FaintGlow_1_001
// 008   ----------------------------------------
	BYTE	PATT
	 POIN2	FaintGlow_1_002
// 009   ----------------------------------------
	BYTE	PATT
	 POIN2	FaintGlow_1_001
// 010   ----------------------------------------
	BYTE	PATT
	 POIN2	FaintGlow_1_002
// 011   ----------------------------------------
	BYTE	PATT
	 POIN2	FaintGlow_1_001
// 012   ----------------------------------------
	BYTE	PATT
	 POIN2	FaintGlow_1_002
// 013   ----------------------------------------
	BYTE	PATT
	 POIN2	FaintGlow_1_001
// 014   ----------------------------------------
	BYTE	PATT
	 POIN2	FaintGlow_1_002
// 015   ----------------------------------------
	BYTE	PATT
	 POIN2	FaintGlow_1_001
// 016   ----------------------------------------
FaintGlow_1_016:
	BYTE		N11     En2   v100
	BYTE		N11     En3 
	BYTE	W12
	BYTE		        Fn3 
	BYTE	W12
	BYTE		        Gn3 
	BYTE	W12
	BYTE		N54     En3 
	BYTE		N54     Gn3 
	BYTE		N54     As3 
	BYTE	W60
	BYTE	PEND
// 017   ----------------------------------------
	BYTE	PATT
	 POIN2	FaintGlow_1_016
// 018   ----------------------------------------
	BYTE	PATT
	 POIN2	FaintGlow_1_002
// 019   ----------------------------------------
	BYTE	PATT
	 POIN2	FaintGlow_1_002
// 020   ----------------------------------------
FaintGlow_1_020:
	BYTE		N11     Fn2   v100
	BYTE		N11     Fn3 
	BYTE	W12
	BYTE		        Gn3 
	BYTE	W12
	BYTE		        An3 
	BYTE	W12
	BYTE		N54     Fn3 
	BYTE		N54     An3 
	BYTE		N54     Dn4 
	BYTE	W60
	BYTE	PEND
// 021   ----------------------------------------
	BYTE	PATT
	 POIN2	FaintGlow_1_020
// 022   ----------------------------------------
FaintGlow_1_022:
	BYTE		N11     Gn3   v100
	BYTE	W12
	BYTE		        An3 
	BYTE	W12
	BYTE		        Bn3 
	BYTE	W12
	BYTE		N54     Gn3 
	BYTE		N54     Bn3 
	BYTE		N54     Dn4 
	BYTE	W60
	BYTE	PEND
// 023   ----------------------------------------
	BYTE	PATT
	 POIN2	FaintGlow_1_022
// 024   ----------------------------------------
	BYTE	PATT
	 POIN2	FaintGlow_1_002
// 025   ----------------------------------------
	BYTE	PATT
	 POIN2	FaintGlow_1_001
// 026   ----------------------------------------
	BYTE	PATT
	 POIN2	FaintGlow_1_002
// 027   ----------------------------------------
	BYTE	PATT
	 POIN2	FaintGlow_1_001
// 028   ----------------------------------------
	BYTE	PATT
	 POIN2	FaintGlow_1_002
// 029   ----------------------------------------
	BYTE	PATT
	 POIN2	FaintGlow_1_001
// 030   ----------------------------------------
	BYTE	PATT
	 POIN2	FaintGlow_1_002
// 031   ----------------------------------------
	BYTE	PATT
	 POIN2	FaintGlow_1_001
// 032   ----------------------------------------
	BYTE	PATT
	 POIN2	FaintGlow_1_016
// 033   ----------------------------------------
	BYTE	PATT
	 POIN2	FaintGlow_1_016
// 034   ----------------------------------------
	BYTE	PATT
	 POIN2	FaintGlow_1_002
// 035   ----------------------------------------
	BYTE	PATT
	 POIN2	FaintGlow_1_002
// 036   ----------------------------------------
	BYTE	PATT
	 POIN2	FaintGlow_1_020
// 037   ----------------------------------------
	BYTE	PATT
	 POIN2	FaintGlow_1_020
// 038   ----------------------------------------
	BYTE	PATT
	 POIN2	FaintGlow_1_022
// 039   ----------------------------------------
	BYTE	PATT
	 POIN2	FaintGlow_1_022
// 040   ----------------------------------------
	BYTE	W96
// 041   ----------------------------------------
	BYTE	W96
// 042   ----------------------------------------
	BYTE	W96
// 043   ----------------------------------------
	BYTE	W96
// 044   ----------------------------------------
	BYTE	W96
// 045   ----------------------------------------
	BYTE	W96
// 046   ----------------------------------------
	BYTE	W96
// 047   ----------------------------------------
	BYTE	W96
// 048   ----------------------------------------
	BYTE	W96
// 049   ----------------------------------------
	BYTE	W96
// 050   ----------------------------------------
	BYTE	W96
// 051   ----------------------------------------
	BYTE	W96
// 052   ----------------------------------------
	BYTE	W96
// 053   ----------------------------------------
	BYTE	W96
// 054   ----------------------------------------
	BYTE	W96
// 055   ----------------------------------------
	BYTE	W90
	BYTE	GoTo
	 POIN2	FaintGlow_1_B1
FaintGlow_1_B2:
	BYTE	FINE

//**************** Track 2 (Midi-Chn.2) ****************//

FaintGlow_2:
	BYTE	KEYSH   FaintGlow_key+0
FaintGlow_2_B1:
// 000   ----------------------------------------
	BYTE		VOICE   100
	BYTE		MODT    0
	BYTE		LFOS    44
	BYTE		VOL     127*FaintGlow_mvl/mxv
	BYTE		PAN     c_v+10
	BYTE		N11     Fn2   v100
	BYTE		N11     Fn3 
	BYTE	W12
	BYTE		        Gn3 
	BYTE	W12
	BYTE		        An3 
	BYTE	W12
	BYTE		N54     Fn3 
	BYTE		N54     An3 
	BYTE		N54     Cn4 
	BYTE	W60
// 001   ----------------------------------------
FaintGlow_2_001:
	BYTE		N11     En2   v100
	BYTE		N11     En3 
	BYTE	W12
	BYTE		        Fn3 
	BYTE	W12
	BYTE		        Gn3 
	BYTE	W12
	BYTE		N54     En3 
	BYTE		N54     Gn3 
	BYTE		N54     Bn3 
	BYTE	W60
	BYTE	PEND
// 002   ----------------------------------------
FaintGlow_2_002:
	BYTE		N11     Fn2   v100
	BYTE		N11     Fn3 
	BYTE	W12
	BYTE		        Gn3 
	BYTE	W12
	BYTE		        An3 
	BYTE	W12
	BYTE		N54     Fn3 
	BYTE		N54     An3 
	BYTE		N54     Cn4 
	BYTE	W60
	BYTE	PEND
// 003   ----------------------------------------
	BYTE	PATT
	 POIN2	FaintGlow_2_001
// 004   ----------------------------------------
	BYTE	PATT
	 POIN2	FaintGlow_2_002
// 005   ----------------------------------------
	BYTE	PATT
	 POIN2	FaintGlow_2_001
// 006   ----------------------------------------
	BYTE	PATT
	 POIN2	FaintGlow_2_002
// 007   ----------------------------------------
	BYTE	PATT
	 POIN2	FaintGlow_2_001
// 008   ----------------------------------------
	BYTE	PATT
	 POIN2	FaintGlow_2_002
// 009   ----------------------------------------
	BYTE	PATT
	 POIN2	FaintGlow_2_001
// 010   ----------------------------------------
	BYTE	PATT
	 POIN2	FaintGlow_2_002
// 011   ----------------------------------------
	BYTE	PATT
	 POIN2	FaintGlow_2_001
// 012   ----------------------------------------
	BYTE	PATT
	 POIN2	FaintGlow_2_002
// 013   ----------------------------------------
	BYTE	PATT
	 POIN2	FaintGlow_2_001
// 014   ----------------------------------------
	BYTE	PATT
	 POIN2	FaintGlow_2_002
// 015   ----------------------------------------
	BYTE	PATT
	 POIN2	FaintGlow_2_001
// 016   ----------------------------------------
FaintGlow_2_016:
	BYTE		N11     En2   v100
	BYTE		N11     En3 
	BYTE	W12
	BYTE		        Fn3 
	BYTE	W12
	BYTE		        Gn3 
	BYTE	W12
	BYTE		N54     En3 
	BYTE		N54     Gn3 
	BYTE		N54     As3 
	BYTE	W60
	BYTE	PEND
// 017   ----------------------------------------
	BYTE	PATT
	 POIN2	FaintGlow_2_016
// 018   ----------------------------------------
	BYTE	PATT
	 POIN2	FaintGlow_2_002
// 019   ----------------------------------------
	BYTE	PATT
	 POIN2	FaintGlow_2_002
// 020   ----------------------------------------
FaintGlow_2_020:
	BYTE		N11     Fn2   v100
	BYTE		N11     Fn3 
	BYTE	W12
	BYTE		        Gn3 
	BYTE	W12
	BYTE		        An3 
	BYTE	W12
	BYTE		N54     Fn3 
	BYTE		N54     An3 
	BYTE		N54     Dn4 
	BYTE	W60
	BYTE	PEND
// 021   ----------------------------------------
	BYTE	PATT
	 POIN2	FaintGlow_2_020
// 022   ----------------------------------------
FaintGlow_2_022:
	BYTE		N11     Gn3   v100
	BYTE	W12
	BYTE		        An3 
	BYTE	W12
	BYTE		        Bn3 
	BYTE	W12
	BYTE		N54     Gn3 
	BYTE		N54     Bn3 
	BYTE		N54     Dn4 
	BYTE	W60
	BYTE	PEND
// 023   ----------------------------------------
	BYTE	PATT
	 POIN2	FaintGlow_2_022
// 024   ----------------------------------------
	BYTE	PATT
	 POIN2	FaintGlow_2_002
// 025   ----------------------------------------
	BYTE	PATT
	 POIN2	FaintGlow_2_001
// 026   ----------------------------------------
	BYTE	PATT
	 POIN2	FaintGlow_2_002
// 027   ----------------------------------------
	BYTE	PATT
	 POIN2	FaintGlow_2_001
// 028   ----------------------------------------
	BYTE	PATT
	 POIN2	FaintGlow_2_002
// 029   ----------------------------------------
	BYTE	PATT
	 POIN2	FaintGlow_2_001
// 030   ----------------------------------------
	BYTE	PATT
	 POIN2	FaintGlow_2_002
// 031   ----------------------------------------
	BYTE	PATT
	 POIN2	FaintGlow_2_001
// 032   ----------------------------------------
	BYTE	PATT
	 POIN2	FaintGlow_2_016
// 033   ----------------------------------------
	BYTE	PATT
	 POIN2	FaintGlow_2_016
// 034   ----------------------------------------
	BYTE	PATT
	 POIN2	FaintGlow_2_002
// 035   ----------------------------------------
	BYTE	PATT
	 POIN2	FaintGlow_2_002
// 036   ----------------------------------------
	BYTE	PATT
	 POIN2	FaintGlow_2_020
// 037   ----------------------------------------
	BYTE	PATT
	 POIN2	FaintGlow_2_020
// 038   ----------------------------------------
	BYTE	PATT
	 POIN2	FaintGlow_2_022
// 039   ----------------------------------------
	BYTE	PATT
	 POIN2	FaintGlow_2_022
// 040   ----------------------------------------
	BYTE	W96
// 041   ----------------------------------------
	BYTE	W96
// 042   ----------------------------------------
	BYTE	W96
// 043   ----------------------------------------
	BYTE	W96
// 044   ----------------------------------------
	BYTE	W96
// 045   ----------------------------------------
	BYTE	W96
// 046   ----------------------------------------
	BYTE	W96
// 047   ----------------------------------------
	BYTE	W96
// 048   ----------------------------------------
	BYTE	W96
// 049   ----------------------------------------
	BYTE	W96
// 050   ----------------------------------------
	BYTE	W96
// 051   ----------------------------------------
	BYTE	W96
// 052   ----------------------------------------
	BYTE	W96
// 053   ----------------------------------------
	BYTE	W96
// 054   ----------------------------------------
	BYTE	W96
// 055   ----------------------------------------
	BYTE	W90
	BYTE	GoTo
	 POIN2	FaintGlow_2_B1
FaintGlow_2_B2:
	BYTE	FINE

//**************** Track 3 (Midi-Chn.3) ****************//

FaintGlow_3:
	BYTE	KEYSH   FaintGlow_key+0
FaintGlow_3_B1:
// 000   ----------------------------------------
	BYTE		VOICE   52
	BYTE		MODT    0
	BYTE		LFOS    44
	BYTE		PAN     c_v-10
	BYTE		VOL     127*FaintGlow_mvl/mxv
	BYTE	W96
// 001   ----------------------------------------
	BYTE	W96
// 002   ----------------------------------------
	BYTE	W96
// 003   ----------------------------------------
	BYTE	W96
// 004   ----------------------------------------
FaintGlow_3_004:
	BYTE		N06     Fn3   v004
	BYTE		N20     An3 
	BYTE		N20     Cn4 
	BYTE	W24
	BYTE		N06     Fn3   v012
	BYTE		N20     An3 
	BYTE		N20     Cn4 
	BYTE	W24
	BYTE		N06     Fn3   v028
	BYTE		N20     An3 
	BYTE		N20     Cn4 
	BYTE	W24
	BYTE		N06     Fn3   v044
	BYTE		N20     An3 
	BYTE		N20     Cn4 
	BYTE	W24
	BYTE	PEND
// 005   ----------------------------------------
FaintGlow_3_005:
	BYTE		N06     En3   v068
	BYTE		N06     Gn3 
	BYTE		N06     Bn3 
	BYTE	W24
	BYTE		        En3   v096
	BYTE		N06     Gn3 
	BYTE		N06     Bn3 
	BYTE	W24
	BYTE		        En3   v127
	BYTE		N06     Gn3 
	BYTE		N06     Bn3 
	BYTE	W24
	BYTE		        En3   v100
	BYTE		N06     Gn3 
	BYTE		N06     Bn3 
	BYTE	W24
	BYTE	PEND
// 006   ----------------------------------------
FaintGlow_3_006:
	BYTE		N06     Fn3   v072
	BYTE		N20     An3 
	BYTE		N20     Cn4 
	BYTE	W24
	BYTE		N06     Fn3   v048
	BYTE		N20     An3 
	BYTE		N20     Cn4 
	BYTE	W24
	BYTE		N06     Fn3   v028
	BYTE		N20     An3 
	BYTE		N20     Cn4 
	BYTE	W24
	BYTE		N06     Fn3   v012
	BYTE		N20     An3 
	BYTE		N20     Cn4 
	BYTE	W24
	BYTE	PEND
// 007   ----------------------------------------
	BYTE	W96
// 008   ----------------------------------------
	BYTE	W96
// 009   ----------------------------------------
	BYTE	W96
// 010   ----------------------------------------
	BYTE	W96
// 011   ----------------------------------------
	BYTE	W96
// 012   ----------------------------------------
	BYTE	PATT
	 POIN2	FaintGlow_3_004
// 013   ----------------------------------------
	BYTE	PATT
	 POIN2	FaintGlow_3_005
// 014   ----------------------------------------
	BYTE	PATT
	 POIN2	FaintGlow_3_006
// 015   ----------------------------------------
	BYTE	W96
// 016   ----------------------------------------
	BYTE	W96
// 017   ----------------------------------------
	BYTE	W96
// 018   ----------------------------------------
	BYTE	W96
// 019   ----------------------------------------
	BYTE	W96
// 020   ----------------------------------------
FaintGlow_3_020:
	BYTE		N06     Fn3   v004
	BYTE		N06     An3 
	BYTE		N06     Dn4 
	BYTE	W24
	BYTE		        Fn3   v012
	BYTE		N06     An3 
	BYTE		N06     Dn4 
	BYTE	W24
	BYTE		        Fn3   v028
	BYTE		N06     An3 
	BYTE		N06     Dn4 
	BYTE	W24
	BYTE		        Fn3   v044
	BYTE		N06     An3 
	BYTE		N06     Dn4 
	BYTE	W24
	BYTE	PEND
// 021   ----------------------------------------
FaintGlow_3_021:
	BYTE		N06     Fn3   v068
	BYTE		N06     An3 
	BYTE		N06     Dn4 
	BYTE	W24
	BYTE		        Fn3   v096
	BYTE		N06     An3 
	BYTE		N06     Dn4 
	BYTE	W24
	BYTE		        Fn3   v127
	BYTE		N06     An3 
	BYTE		N06     Dn4 
	BYTE	W24
	BYTE		        Fn3   v100
	BYTE		N06     An3 
	BYTE		N06     Dn4 
	BYTE	W24
	BYTE	PEND
// 022   ----------------------------------------
FaintGlow_3_022:
	BYTE		N06     Gn3   v072
	BYTE		N06     Bn3 
	BYTE		N06     Dn4 
	BYTE	W24
	BYTE		        Gn3   v048
	BYTE		N06     Bn3 
	BYTE		N06     Dn4 
	BYTE	W24
	BYTE		        Gn3   v028
	BYTE		N06     Bn3 
	BYTE		N06     Dn4 
	BYTE	W24
	BYTE		        Gn3   v012
	BYTE		N06     Bn3 
	BYTE		N06     Dn4 
	BYTE	W24
	BYTE	PEND
// 023   ----------------------------------------
	BYTE	W96
// 024   ----------------------------------------
	BYTE	W96
// 025   ----------------------------------------
	BYTE	W96
// 026   ----------------------------------------
	BYTE	W96
// 027   ----------------------------------------
	BYTE	W96
// 028   ----------------------------------------
	BYTE	PATT
	 POIN2	FaintGlow_3_004
// 029   ----------------------------------------
	BYTE	PATT
	 POIN2	FaintGlow_3_005
// 030   ----------------------------------------
	BYTE	PATT
	 POIN2	FaintGlow_3_006
// 031   ----------------------------------------
	BYTE	W96
// 032   ----------------------------------------
	BYTE	W96
// 033   ----------------------------------------
	BYTE	W96
// 034   ----------------------------------------
	BYTE	W96
// 035   ----------------------------------------
	BYTE	W96
// 036   ----------------------------------------
	BYTE	PATT
	 POIN2	FaintGlow_3_020
// 037   ----------------------------------------
	BYTE	PATT
	 POIN2	FaintGlow_3_021
// 038   ----------------------------------------
	BYTE	PATT
	 POIN2	FaintGlow_3_022
// 039   ----------------------------------------
	BYTE	W96
// 040   ----------------------------------------
	BYTE		N48     Cn4   v127
	BYTE	W48
	BYTE		        Ds4 
	BYTE	W48
// 041   ----------------------------------------
	BYTE		N24     Dn4 
	BYTE	W24
	BYTE		        Cn4 
	BYTE	W24
	BYTE		        As3 
	BYTE	W24
	BYTE		        Gn3 
	BYTE	W24
// 042   ----------------------------------------
	BYTE		N48     Gs3 
	BYTE	W48
	BYTE		        Cn4 
	BYTE	W48
// 043   ----------------------------------------
	BYTE		N96     As3 
	BYTE	W96
// 044   ----------------------------------------
	BYTE		N48     Gs3 
	BYTE	W48
	BYTE		        Gn3 
	BYTE	W48
// 045   ----------------------------------------
	BYTE		        Fn3 
	BYTE	W48
	BYTE		N24     Ds3 
	BYTE	W24
	BYTE		        Fn3 
	BYTE	W24
// 046   ----------------------------------------
	BYTE		N48     Gn3 
	BYTE	W48
	BYTE		        Gs3 
	BYTE	W48
// 047   ----------------------------------------
	BYTE		N96     Gn3 
	BYTE	W96
// 048   ----------------------------------------
	BYTE		N48     Ds4 
	BYTE	W48
	BYTE		        Dn4 
	BYTE	W48
// 049   ----------------------------------------
	BYTE		        Cn4 
	BYTE	W48
	BYTE		N24     Dn4 
	BYTE	W24
	BYTE		        Ds4 
	BYTE	W24
// 050   ----------------------------------------
	BYTE		N48     Fn4 
	BYTE	W48
	BYTE		        Ds4 
	BYTE	W48
// 051   ----------------------------------------
	BYTE		        Dn4 
	BYTE	W48
	BYTE		N24     Cn4 
	BYTE	W24
	BYTE		        As3 
	BYTE	W24
// 052   ----------------------------------------
	BYTE		TIE     Cn4 
	BYTE	W96
// 053   ----------------------------------------
	BYTE	W90
	BYTE		EOT   
	BYTE	W06
// 054   ----------------------------------------
	BYTE	W96
// 055   ----------------------------------------
	BYTE	W90
	BYTE	GoTo
	 POIN2	FaintGlow_3_B1
FaintGlow_3_B2:
	BYTE	FINE

//**************** Track 4 (Midi-Chn.4) ****************//

FaintGlow_4:
	BYTE	KEYSH   FaintGlow_key+0
FaintGlow_4_B1:
// 000   ----------------------------------------
	BYTE		VOICE   49
	BYTE		MODT    0
	BYTE		LFOS    44
	BYTE		PAN     c_v+20
	BYTE		VOL     127*FaintGlow_mvl/mxv
	BYTE	W96
// 001   ----------------------------------------
	BYTE	W96
// 002   ----------------------------------------
	BYTE	W96
// 003   ----------------------------------------
	BYTE	W96
// 004   ----------------------------------------
	BYTE	W96
// 005   ----------------------------------------
	BYTE	W96
// 006   ----------------------------------------
	BYTE	W96
// 007   ----------------------------------------
	BYTE	W72
	BYTE		N20     Gn4   v100
	BYTE	W24
// 008   ----------------------------------------
FaintGlow_4_008:
	BYTE		N42     Gn4   v100
	BYTE	W48
	BYTE		        Fn4 
	BYTE	W48
	BYTE	PEND
// 009   ----------------------------------------
FaintGlow_4_009:
	BYTE		N42     En4   v100
	BYTE	W48
	BYTE		N20     Dn4 
	BYTE	W24
	BYTE		        Cn4 
	BYTE	W24
	BYTE	PEND
// 010   ----------------------------------------
FaintGlow_4_010:
	BYTE		N80     An3   v100
	BYTE	W84
	BYTE		N05     Bn3 
	BYTE	W06
	BYTE		        An3 
	BYTE	W06
	BYTE	PEND
// 011   ----------------------------------------
FaintGlow_4_011:
	BYTE		N66     Gn3   v100
	BYTE	W72
	BYTE		N20     Gn4 
	BYTE	W24
	BYTE	PEND
// 012   ----------------------------------------
FaintGlow_4_012:
	BYTE		N42     An4   v100
	BYTE	W48
	BYTE		        Bn4 
	BYTE	W48
	BYTE	PEND
// 013   ----------------------------------------
FaintGlow_4_013:
	BYTE		N42     Cn5   v100
	BYTE	W48
	BYTE		N20     Bn4 
	BYTE	W24
	BYTE		        Gn4 
	BYTE	W24
	BYTE	PEND
// 014   ----------------------------------------
FaintGlow_4_014:
	BYTE		N42     Fn4   v100
	BYTE	W48
	BYTE		N20     Dn4 
	BYTE	W24
	BYTE		        Fn4 
	BYTE	W24
	BYTE	PEND
// 015   ----------------------------------------
FaintGlow_4_015:
	BYTE		N66     En4   v100
	BYTE	W72
	BYTE		N20   
	BYTE	W24
	BYTE	PEND
// 016   ----------------------------------------
FaintGlow_4_016:
	BYTE		N42     En4   v100
	BYTE	W48
	BYTE		        Dn4 
	BYTE	W48
	BYTE	PEND
// 017   ----------------------------------------
FaintGlow_4_017:
	BYTE		N42     Cn4   v100
	BYTE	W48
	BYTE		N20     Dn4 
	BYTE	W24
	BYTE		        En4 
	BYTE	W24
	BYTE	PEND
// 018   ----------------------------------------
FaintGlow_4_018:
	BYTE		N42     Fn4   v100
	BYTE	W48
	BYTE		        En4 
	BYTE	W48
	BYTE	PEND
// 019   ----------------------------------------
FaintGlow_4_019:
	BYTE		N42     Dn4   v100
	BYTE	W48
	BYTE		        Cn4 
	BYTE	W48
	BYTE	PEND
// 020   ----------------------------------------
FaintGlow_4_020:
	BYTE		N42     Dn4   v100
	BYTE	W48
	BYTE		        En4 
	BYTE	W48
	BYTE	PEND
// 021   ----------------------------------------
	BYTE	PATT
	 POIN2	FaintGlow_4_014
// 022   ----------------------------------------
FaintGlow_4_022:
	BYTE		N20     Gn4   v100
	BYTE	W24
	BYTE		        Fn4 
	BYTE	W24
	BYTE		        En4 
	BYTE	W24
	BYTE		N11     Dn4 
	BYTE	W12
	BYTE		        Cn4 
	BYTE	W12
	BYTE	PEND
// 023   ----------------------------------------
	BYTE		N66     Dn4 
	BYTE	W72
	BYTE		N20     Gn4 
	BYTE	W24
// 024   ----------------------------------------
	BYTE	PATT
	 POIN2	FaintGlow_4_008
// 025   ----------------------------------------
	BYTE	PATT
	 POIN2	FaintGlow_4_009
// 026   ----------------------------------------
	BYTE	PATT
	 POIN2	FaintGlow_4_010
// 027   ----------------------------------------
	BYTE	PATT
	 POIN2	FaintGlow_4_011
// 028   ----------------------------------------
	BYTE	PATT
	 POIN2	FaintGlow_4_012
// 029   ----------------------------------------
	BYTE	PATT
	 POIN2	FaintGlow_4_013
// 030   ----------------------------------------
	BYTE	PATT
	 POIN2	FaintGlow_4_014
// 031   ----------------------------------------
	BYTE	PATT
	 POIN2	FaintGlow_4_015
// 032   ----------------------------------------
	BYTE	PATT
	 POIN2	FaintGlow_4_016
// 033   ----------------------------------------
	BYTE	PATT
	 POIN2	FaintGlow_4_017
// 034   ----------------------------------------
	BYTE	PATT
	 POIN2	FaintGlow_4_018
// 035   ----------------------------------------
	BYTE	PATT
	 POIN2	FaintGlow_4_019
// 036   ----------------------------------------
	BYTE	PATT
	 POIN2	FaintGlow_4_020
// 037   ----------------------------------------
	BYTE	PATT
	 POIN2	FaintGlow_4_014
// 038   ----------------------------------------
	BYTE	PATT
	 POIN2	FaintGlow_4_022
// 039   ----------------------------------------
	BYTE		N90     Dn4   v100
	BYTE	W96
// 040   ----------------------------------------
	BYTE	W96
// 041   ----------------------------------------
	BYTE	W96
// 042   ----------------------------------------
	BYTE	W96
// 043   ----------------------------------------
	BYTE	W96
// 044   ----------------------------------------
	BYTE	W96
// 045   ----------------------------------------
	BYTE	W96
// 046   ----------------------------------------
	BYTE	W96
// 047   ----------------------------------------
	BYTE	W96
// 048   ----------------------------------------
	BYTE	W96
// 049   ----------------------------------------
	BYTE	W96
// 050   ----------------------------------------
	BYTE	W96
// 051   ----------------------------------------
	BYTE	W96
// 052   ----------------------------------------
	BYTE	W96
// 053   ----------------------------------------
	BYTE	W96
// 054   ----------------------------------------
	BYTE	W96
// 055   ----------------------------------------
	BYTE	W90
	BYTE	GoTo
	 POIN2	FaintGlow_4_B1
FaintGlow_4_B2:
	BYTE	FINE

//**************** Track 5 (Midi-Chn.5) ****************//

FaintGlow_5:
	BYTE	KEYSH   FaintGlow_key+0
FaintGlow_5_B1:
// 000   ----------------------------------------
	BYTE		VOICE   73
	BYTE		MODT    0
	BYTE		LFOS    44
	BYTE		PAN     c_v-23
	BYTE		VOL     127*FaintGlow_mvl/mxv
	BYTE		N96     Fn2   v100
	BYTE	W96
// 001   ----------------------------------------
	BYTE		        En2 
	BYTE	W96
// 002   ----------------------------------------
	BYTE		        Dn2 
	BYTE	W96
// 003   ----------------------------------------
	BYTE		        En2 
	BYTE	W96
// 004   ----------------------------------------
	BYTE		        Fn2 
	BYTE	W96
// 005   ----------------------------------------
	BYTE		        En2 
	BYTE	W96
// 006   ----------------------------------------
	BYTE		        Dn2 
	BYTE	W96
// 007   ----------------------------------------
	BYTE		        En2 
	BYTE	W96
// 008   ----------------------------------------
	BYTE		        Fn2 
	BYTE	W96
// 009   ----------------------------------------
	BYTE		        En2 
	BYTE	W96
// 010   ----------------------------------------
	BYTE		        Dn2 
	BYTE	W96
// 011   ----------------------------------------
	BYTE		        En2 
	BYTE	W96
// 012   ----------------------------------------
	BYTE		        Fn2 
	BYTE	W96
// 013   ----------------------------------------
	BYTE		        En2 
	BYTE	W96
// 014   ----------------------------------------
	BYTE		        Dn2 
	BYTE	W96
// 015   ----------------------------------------
	BYTE		        En2 
	BYTE	W96
// 016   ----------------------------------------
FaintGlow_5_016:
	BYTE		TIE     En2   v100
	BYTE		TIE     Gn2 
	BYTE		TIE     As2 
	BYTE	W96
	BYTE	PEND
// 017   ----------------------------------------
	BYTE	W96
	BYTE		EOT     En2 
	BYTE		        Gn2 
	BYTE		        As2 
// 018   ----------------------------------------
FaintGlow_5_018:
	BYTE		TIE     Cn2   v100
	BYTE		TIE     Fn2 
	BYTE		TIE     An2 
	BYTE	W96
	BYTE	PEND
// 019   ----------------------------------------
	BYTE	W96
	BYTE		EOT     Cn2 
	BYTE		        Fn2 
	BYTE		        An2 
// 020   ----------------------------------------
FaintGlow_5_020:
	BYTE		TIE     Dn2   v100
	BYTE		TIE     Fn2 
	BYTE		TIE     An2 
	BYTE	W96
	BYTE	PEND
// 021   ----------------------------------------
	BYTE	W96
	BYTE		EOT     Dn2 
	BYTE		        Fn2 
	BYTE		        An2 
// 022   ----------------------------------------
FaintGlow_5_022:
	BYTE		TIE     Dn2   v100
	BYTE		TIE     Gn2 
	BYTE		TIE     Bn2 
	BYTE	W96
	BYTE	PEND
// 023   ----------------------------------------
	BYTE	W96
	BYTE		EOT     Dn2 
	BYTE		        Gn2 
	BYTE		        Bn2 
// 024   ----------------------------------------
FaintGlow_5_024:
	BYTE		N96     Cn2   v100
	BYTE		N96     Fn2 
	BYTE		N96     An2 
	BYTE	W96
	BYTE	PEND
// 025   ----------------------------------------
FaintGlow_5_025:
	BYTE		N96     Bn1   v100
	BYTE		N96     En2 
	BYTE		N96     Gn2 
	BYTE	W96
	BYTE	PEND
// 026   ----------------------------------------
FaintGlow_5_026:
	BYTE		N96     An1   v100
	BYTE		N96     Dn2 
	BYTE		N96     Fn2 
	BYTE	W96
	BYTE	PEND
// 027   ----------------------------------------
	BYTE	PATT
	 POIN2	FaintGlow_5_025
// 028   ----------------------------------------
	BYTE	PATT
	 POIN2	FaintGlow_5_024
// 029   ----------------------------------------
	BYTE	PATT
	 POIN2	FaintGlow_5_025
// 030   ----------------------------------------
	BYTE	PATT
	 POIN2	FaintGlow_5_026
// 031   ----------------------------------------
	BYTE	PATT
	 POIN2	FaintGlow_5_025
// 032   ----------------------------------------
	BYTE	PATT
	 POIN2	FaintGlow_5_016
// 033   ----------------------------------------
	BYTE	W96
	BYTE		EOT     En2 
	BYTE		        Gn2 
	BYTE		        As2 
// 034   ----------------------------------------
	BYTE	PATT
	 POIN2	FaintGlow_5_018
// 035   ----------------------------------------
	BYTE	W96
	BYTE		EOT     Cn2 
	BYTE		        Fn2 
	BYTE		        An2 
// 036   ----------------------------------------
	BYTE	PATT
	 POIN2	FaintGlow_5_020
// 037   ----------------------------------------
	BYTE	W96
	BYTE		EOT     Dn2 
	BYTE		        Fn2 
	BYTE		        An2 
// 038   ----------------------------------------
	BYTE	PATT
	 POIN2	FaintGlow_5_022
// 039   ----------------------------------------
	BYTE	W90
	BYTE		EOT     Dn2 
	BYTE		        Gn2 
	BYTE		        Bn2 
	BYTE	W06
// 040   ----------------------------------------
FaintGlow_5_040:
	BYTE		N96     Gn4   v100
	BYTE		N96     Cn5 
	BYTE		N96     Ds5 
	BYTE		N96     Gn5 
	BYTE	W96
	BYTE	PEND
// 041   ----------------------------------------
FaintGlow_5_041:
	BYTE		N96     Gn4   v100
	BYTE		N96     As4 
	BYTE		N96     Dn5 
	BYTE		N96     Fn5 
	BYTE	W96
	BYTE	PEND
// 042   ----------------------------------------
FaintGlow_5_042:
	BYTE		N96     Ds4   v100
	BYTE		N96     Gs4 
	BYTE		N96     Cn5 
	BYTE		N96     Ds5 
	BYTE	W96
	BYTE	PEND
// 043   ----------------------------------------
FaintGlow_5_043:
	BYTE		N96     Ds4   v100
	BYTE		N96     Gn4 
	BYTE		N96     As4 
	BYTE		N96     Ds5 
	BYTE	W96
	BYTE	PEND
// 044   ----------------------------------------
	BYTE	PATT
	 POIN2	FaintGlow_5_042
// 045   ----------------------------------------
FaintGlow_5_045:
	BYTE		N96     Fn4   v100
	BYTE		N96     Gs4 
	BYTE		N96     Cn5 
	BYTE		N96     Fn5 
	BYTE	W96
	BYTE	PEND
// 046   ----------------------------------------
	BYTE		        Ds4 
	BYTE		N96     Gn4 
	BYTE		N96     Cn5 
	BYTE		N96     Ds5 
	BYTE	W96
// 047   ----------------------------------------
	BYTE		        Dn4 
	BYTE		N96     Gn4 
	BYTE		N96     Bn4 
	BYTE		N96     Dn5 
	BYTE	W96
// 048   ----------------------------------------
	BYTE	PATT
	 POIN2	FaintGlow_5_043
// 049   ----------------------------------------
	BYTE	PATT
	 POIN2	FaintGlow_5_040
// 050   ----------------------------------------
	BYTE	PATT
	 POIN2	FaintGlow_5_045
// 051   ----------------------------------------
	BYTE	PATT
	 POIN2	FaintGlow_5_041
// 052   ----------------------------------------
	BYTE	PATT
	 POIN2	FaintGlow_5_042
// 053   ----------------------------------------
	BYTE	PATT
	 POIN2	FaintGlow_5_045
// 054   ----------------------------------------
	BYTE		N96     Dn4   v100
	BYTE		N96     Gn4 
	BYTE		N96     Cn5 
	BYTE		N96     Dn5 
	BYTE	W96
// 055   ----------------------------------------
	BYTE		N90     Dn4 
	BYTE		N90     Gn4 
	BYTE		N90     Bn4 
	BYTE		N90     Dn5 
	BYTE	W90
	BYTE	GoTo
	 POIN2	FaintGlow_5_B1
FaintGlow_5_B2:
	BYTE	FINE

//**************** Track 6 (Midi-Chn.6) ****************//

FaintGlow_6:
	BYTE	KEYSH   FaintGlow_key+0
FaintGlow_6_B1:
// 000   ----------------------------------------
	BYTE		VOICE   79
	//BYTE		VOICE   77 //whistle?
	BYTE		MODT    0
	BYTE		LFOS    44
	BYTE		VOL     127*FaintGlow_mvl/mxv
	BYTE		PAN     c_v+0
	BYTE	W96
// 001   ----------------------------------------
	BYTE	W96
// 002   ----------------------------------------
	BYTE	W96
// 003   ----------------------------------------
	BYTE	W96
// 004   ----------------------------------------
	BYTE	W96
// 005   ----------------------------------------
	BYTE	W96
// 006   ----------------------------------------
	BYTE	W96
// 007   ----------------------------------------
	BYTE	W96
// 008   ----------------------------------------
	BYTE	W96
// 009   ----------------------------------------
	BYTE	W96
// 010   ----------------------------------------
	BYTE	W96
// 011   ----------------------------------------
	BYTE	W96
// 012   ----------------------------------------
	BYTE	W96
// 013   ----------------------------------------
	BYTE	W96
// 014   ----------------------------------------
	BYTE	W96
// 015   ----------------------------------------
	BYTE	W96
// 016   ----------------------------------------
	BYTE	W96
// 017   ----------------------------------------
	BYTE	W96
// 018   ----------------------------------------
	BYTE	W96
// 019   ----------------------------------------
	BYTE	W96
// 020   ----------------------------------------
	BYTE	W96
// 021   ----------------------------------------
	BYTE	W96
// 022   ----------------------------------------
	BYTE	W96
// 023   ----------------------------------------
	BYTE	W96
// 024   ----------------------------------------
FaintGlow_6_024:
	BYTE		N20     Fn2   v127
	BYTE	W24
	BYTE		N20   
	BYTE	W72
	BYTE	PEND
// 025   ----------------------------------------
FaintGlow_6_025:
	BYTE		N20     En2   v127
	BYTE	W24
	BYTE		N20   
	BYTE	W72
	BYTE	PEND
// 026   ----------------------------------------
FaintGlow_6_026:
	BYTE		N20     Dn2   v127
	BYTE	W24
	BYTE		N20   
	BYTE	W72
	BYTE	PEND
// 027   ----------------------------------------
	BYTE	PATT
	 POIN2	FaintGlow_6_025
// 028   ----------------------------------------
	BYTE	PATT
	 POIN2	FaintGlow_6_024
// 029   ----------------------------------------
	BYTE	PATT
	 POIN2	FaintGlow_6_025
// 030   ----------------------------------------
	BYTE	PATT
	 POIN2	FaintGlow_6_026
// 031   ----------------------------------------
	BYTE	PATT
	 POIN2	FaintGlow_6_025
// 032   ----------------------------------------
FaintGlow_6_032:
	BYTE		N20     As1   v127
	BYTE	W24
	BYTE		N20   
	BYTE	W24
	BYTE		N11   
	BYTE	W12
	BYTE		N11   
	BYTE	W12
	BYTE		N11   
	BYTE	W12
	BYTE		N11   
	BYTE	W12
	BYTE	PEND
// 033   ----------------------------------------
	BYTE	PATT
	 POIN2	FaintGlow_6_032
// 034   ----------------------------------------
FaintGlow_6_034:
	BYTE		N20     Cn2   v127
	BYTE	W24
	BYTE		N20   
	BYTE	W24
	BYTE		N11   
	BYTE	W12
	BYTE		N11   
	BYTE	W12
	BYTE		N11   
	BYTE	W12
	BYTE		N11   
	BYTE	W12
	BYTE	PEND
// 035   ----------------------------------------
	BYTE	PATT
	 POIN2	FaintGlow_6_034
// 036   ----------------------------------------
FaintGlow_6_036:
	BYTE		N20     Dn2   v127
	BYTE	W24
	BYTE		N20   
	BYTE	W24
	BYTE		N11   
	BYTE	W12
	BYTE		N11   
	BYTE	W12
	BYTE		N11   
	BYTE	W12
	BYTE		N11   
	BYTE	W12
	BYTE	PEND
// 037   ----------------------------------------
	BYTE	PATT
	 POIN2	FaintGlow_6_036
// 038   ----------------------------------------
	BYTE	PATT
	 POIN2	FaintGlow_6_036
// 039   ----------------------------------------
	BYTE	PATT
	 POIN2	FaintGlow_6_036
// 040   ----------------------------------------
	BYTE	PATT
	 POIN2	FaintGlow_6_034
// 041   ----------------------------------------
	BYTE	PATT
	 POIN2	FaintGlow_6_036
// 042   ----------------------------------------
FaintGlow_6_042:
	BYTE		N20     En2   v127
	BYTE	W24
	BYTE		N20   
	BYTE	W24
	BYTE		N11   
	BYTE	W12
	BYTE		N11   
	BYTE	W12
	BYTE		N11   
	BYTE	W12
	BYTE		N11   
	BYTE	W12
	BYTE	PEND
// 043   ----------------------------------------
	BYTE	PATT
	 POIN2	FaintGlow_6_042
// 044   ----------------------------------------
	BYTE	PATT
	 POIN2	FaintGlow_6_034
// 045   ----------------------------------------
	BYTE	PATT
	 POIN2	FaintGlow_6_034
// 046   ----------------------------------------
	BYTE	PATT
	 POIN2	FaintGlow_6_034
// 047   ----------------------------------------
	BYTE		N20     Bn1   v127
	BYTE	W24
	BYTE		N20   
	BYTE	W24
	BYTE		N11   
	BYTE	W12
	BYTE		N11   
	BYTE	W12
	BYTE		N11   
	BYTE	W12
	BYTE		N11   
	BYTE	W12
// 048   ----------------------------------------
	BYTE	PATT
	 POIN2	FaintGlow_6_042
// 049   ----------------------------------------
	BYTE	PATT
	 POIN2	FaintGlow_6_034
// 050   ----------------------------------------
	BYTE	PATT
	 POIN2	FaintGlow_6_034
// 051   ----------------------------------------
	BYTE	PATT
	 POIN2	FaintGlow_6_036
// 052   ----------------------------------------
	BYTE		N20     Cn2   v127
	BYTE	W24
	BYTE		        Cn2   v116
	BYTE	W24
	BYTE		N11     Cn2   v108
	BYTE	W12
	BYTE		        Cn2   v100
	BYTE	W12
	BYTE		        Cn2   v096
	BYTE	W12
	BYTE		        Cn2   v092
	BYTE	W12
// 053   ----------------------------------------
	BYTE		N20     Cn2   v088
	BYTE	W24
	BYTE		        Cn2   v080
	BYTE	W24
	BYTE		N11     Cn2   v068
	BYTE	W12
	BYTE		        Cn2   v064
	BYTE	W12
	BYTE		        Cn2   v060
	BYTE	W12
	BYTE		        Cn2   v056
	BYTE	W12
// 054   ----------------------------------------
	BYTE		N20     Cn2   v052
	BYTE	W24
	BYTE		        Cn2   v044
	BYTE	W24
	BYTE		N11     Cn2   v036
	BYTE	W12
	BYTE		        Cn2   v032
	BYTE	W12
	BYTE		        Cn2   v028
	BYTE	W12
	BYTE		        Cn2   v024
	BYTE	W12
// 055   ----------------------------------------
	BYTE		N20     Bn1   v020
	BYTE	W24
	BYTE		        Bn1   v016
	BYTE	W24
	BYTE		N42     Bn1   v012
	BYTE	W42
	BYTE	GoTo
	 POIN2	FaintGlow_6_B1
FaintGlow_6_B2:
	BYTE	FINE

//**************** Track 7 (Midi-Chn.7) ****************//

FaintGlow_7:
	BYTE	KEYSH   FaintGlow_key+0
FaintGlow_7_B1:
// 000   ----------------------------------------
	BYTE		VOICE   127
	BYTE		MODT    0
	BYTE		LFOS    44
	BYTE		VOL     127*FaintGlow_mvl/mxv
	BYTE		PAN     c_v+0
	BYTE	W96
// 001   ----------------------------------------
	BYTE	W96
// 002   ----------------------------------------
	BYTE	W96
// 003   ----------------------------------------
	BYTE	W96
// 004   ----------------------------------------
	BYTE	W96
// 005   ----------------------------------------
	BYTE	W96
// 006   ----------------------------------------
	BYTE	W96
// 007   ----------------------------------------
	BYTE	W96
// 008   ----------------------------------------
	BYTE	W96
// 009   ----------------------------------------
	BYTE	W96
// 010   ----------------------------------------
	BYTE	W96
// 011   ----------------------------------------
	BYTE	W96
// 012   ----------------------------------------
	BYTE	W96
// 013   ----------------------------------------
	BYTE	W96
// 014   ----------------------------------------
	BYTE	W96
// 015   ----------------------------------------
	BYTE	W96
// 016   ----------------------------------------
	BYTE	W96
// 017   ----------------------------------------
	BYTE	W96
// 018   ----------------------------------------
	BYTE	W96
// 019   ----------------------------------------
	BYTE	W96
// 020   ----------------------------------------
	BYTE	W96
// 021   ----------------------------------------
	BYTE	W96
// 022   ----------------------------------------
	BYTE	W96
// 023   ----------------------------------------
	BYTE	W96
// 024   ----------------------------------------
FaintGlow_7_024:
	BYTE		N20     Bn0   v127
	BYTE		N20     Cn1 
	BYTE		N20     Dn2 
	BYTE	W24
	BYTE		        Bn0 
	BYTE		N20     Cn1 
	BYTE		N20     Dn2 
	BYTE	W72
	BYTE	PEND
// 025   ----------------------------------------
	BYTE	PATT
	 POIN2	FaintGlow_7_024
// 026   ----------------------------------------
	BYTE	PATT
	 POIN2	FaintGlow_7_024
// 027   ----------------------------------------
	BYTE	PATT
	 POIN2	FaintGlow_7_024
// 028   ----------------------------------------
	BYTE	PATT
	 POIN2	FaintGlow_7_024
// 029   ----------------------------------------
	BYTE	PATT
	 POIN2	FaintGlow_7_024
// 030   ----------------------------------------
	BYTE	PATT
	 POIN2	FaintGlow_7_024
// 031   ----------------------------------------
	BYTE	PATT
	 POIN2	FaintGlow_7_024
// 032   ----------------------------------------
	BYTE	PATT
	 POIN2	FaintGlow_7_024
// 033   ----------------------------------------
	BYTE	PATT
	 POIN2	FaintGlow_7_024
// 034   ----------------------------------------
	BYTE	PATT
	 POIN2	FaintGlow_7_024
// 035   ----------------------------------------
	BYTE	PATT
	 POIN2	FaintGlow_7_024
// 036   ----------------------------------------
	BYTE	PATT
	 POIN2	FaintGlow_7_024
// 037   ----------------------------------------
	BYTE	PATT
	 POIN2	FaintGlow_7_024
// 038   ----------------------------------------
	BYTE	PATT
	 POIN2	FaintGlow_7_024
// 039   ----------------------------------------
	BYTE	PATT
	 POIN2	FaintGlow_7_024
// 040   ----------------------------------------
	BYTE	PATT
	 POIN2	FaintGlow_7_024
// 041   ----------------------------------------
	BYTE	PATT
	 POIN2	FaintGlow_7_024
// 042   ----------------------------------------
	BYTE	PATT
	 POIN2	FaintGlow_7_024
// 043   ----------------------------------------
	BYTE	PATT
	 POIN2	FaintGlow_7_024
// 044   ----------------------------------------
	BYTE	PATT
	 POIN2	FaintGlow_7_024
// 045   ----------------------------------------
	BYTE	PATT
	 POIN2	FaintGlow_7_024
// 046   ----------------------------------------
	BYTE	PATT
	 POIN2	FaintGlow_7_024
// 047   ----------------------------------------
	BYTE	PATT
	 POIN2	FaintGlow_7_024
// 048   ----------------------------------------
	BYTE	PATT
	 POIN2	FaintGlow_7_024
// 049   ----------------------------------------
	BYTE	PATT
	 POIN2	FaintGlow_7_024
// 050   ----------------------------------------
	BYTE	PATT
	 POIN2	FaintGlow_7_024
// 051   ----------------------------------------
	BYTE	PATT
	 POIN2	FaintGlow_7_024
// 052   ----------------------------------------
	BYTE	PATT
	 POIN2	FaintGlow_7_024
// 053   ----------------------------------------
	BYTE		N20     Bn0   v100
	BYTE		N20     Cn1 
	BYTE		N20     Cn2 
	BYTE	W24
	BYTE		        Bn0 
	BYTE		N20     Cn1 
	BYTE		N20     Cn2 
	BYTE	W72
// 054   ----------------------------------------
	BYTE		        Bn0   v056
	BYTE		N20     Cn1 
	BYTE		N20     Bn1 
	BYTE	W24
	BYTE		        Bn0 
	BYTE		N20     Cn1 
	BYTE		N20     Bn1 
	BYTE	W72
// 055   ----------------------------------------
	BYTE		        Bn0   v036
	BYTE		N20     Cn1 
	BYTE		N20     An1 
	BYTE	W24
	BYTE		        Bn0 
	BYTE		N20     Cn1 
	BYTE		N20     An1 
	BYTE	W66
	BYTE	GoTo
	 POIN2	FaintGlow_7_B1
FaintGlow_7_B2:
	BYTE	FINE

//******************************************************//
	ALIGN 4

FaintGlow:
	BYTE	7	// NumTrks
	BYTE	0	// NumBlks
	BYTE	FaintGlow_pri	// Priority
	BYTE	FaintGlow_rev	// Reverb.

	POIN2	FaintGlow_grp

	POIN2	FaintGlow_1
	POIN2	FaintGlow_2
	POIN2	FaintGlow_3
	POIN2	FaintGlow_4
	POIN2	FaintGlow_5
	POIN2	FaintGlow_6
	POIN2	FaintGlow_7

	
