//Event file generated from Sappy .s format.
	#include "MPlayDef.event"

	#define	Farewell_FINAL_grp  voicegroup000
	#define	Farewell_FINAL_pri  0
	#define	Farewell_FINAL_rev  0x94
	#define	Farewell_FINAL_mvl  29
	#define	Farewell_FINAL_key  0
	#define	Farewell_FINAL_tbs  1
	#define	Farewell_FINAL_exg  0
	#define	Farewell_FINAL_cmp  1

	// .rodata
	//	Farewell_FINAL
	ALIGN 4

//**************** Track 1 (Midi-Chn.1) ****************//

Farewell_FINAL_1:
	BYTE	KEYSH   Farewell_FINAL_key+0
Farewell_FINAL_1_B1:
// 000   ----------------------------------------
	BYTE	TEMPO   80*Farewell_FINAL_tbs/2
	BYTE		VOICE   0
	BYTE		MODT    0
	BYTE		LFOS    44
	BYTE		PAN     c_v-10
	BYTE		VOL     127*Farewell_FINAL_mvl/mxv
	BYTE		N24     Bn2   v100
	BYTE		N24     En3 
	BYTE		N24     Gn3 
	BYTE		N24     Gn4 
	BYTE	W24
	BYTE		N20     Bn2 
	BYTE		N20     En3 
	BYTE		N20     Gn3 
	BYTE		N12     Gn4 
	BYTE	W12
	BYTE		        Fs4 
	BYTE	W12
	BYTE		N24     Bn2 
	BYTE		N24     En3 
	BYTE		N24     Gn3 
	BYTE		N24     En4 
	BYTE	W24
	BYTE		N20     Bn2 
	BYTE		N20     En3 
	BYTE		N20     Gn3 
	BYTE		N12     Fs4 
	BYTE	W12
	BYTE		        Gn4 
	BYTE	W12
// 001   ----------------------------------------
Farewell_FINAL_1_001:
	BYTE		N24     Cn3   v100
	BYTE		N24     En3 
	BYTE		N24     An3 
	BYTE		N24     An4 
	BYTE	W24
	BYTE		        Cn3 
	BYTE		N24     En3 
	BYTE		N24     An3 
	BYTE		N24     Cn4 
	BYTE	W24
	BYTE		        Cn3 
	BYTE		N24     En3 
	BYTE		N24     An3 
	BYTE		N24     En4 
	BYTE	W24
	BYTE		        Cn3 
	BYTE		N24     En3 
	BYTE		N24     An3 
	BYTE		N24     Gn4 
	BYTE	W24
	BYTE	PEND
// 002   ----------------------------------------
Farewell_FINAL_1_002:
	BYTE		N24     Dn3   v100
	BYTE		N24     Fn3 
	BYTE		N24     An3 
	BYTE		N24     An4 
	BYTE	W24
	BYTE		N20     Dn3 
	BYTE		N20     Fn3 
	BYTE		N20     An3 
	BYTE		N12     An4 
	BYTE	W12
	BYTE		        Gn4 
	BYTE	W12
	BYTE		N24     Dn3 
	BYTE		N24     Fn3 
	BYTE		N24     An3 
	BYTE		N24     Fn4 
	BYTE	W24
	BYTE		N20     Dn3 
	BYTE		N20     Fn3 
	BYTE		N20     An3 
	BYTE		N12     Gn4 
	BYTE	W12
	BYTE		        An4 
	BYTE	W12
	BYTE	PEND
// 003   ----------------------------------------
Farewell_FINAL_1_003:
	BYTE		N24     Dn3   v100
	BYTE		N24     Gn3 
	BYTE		N24     Bn3 
	BYTE		N24     Bn4 
	BYTE	W24
	BYTE		        Dn3 
	BYTE		N24     Gn3 
	BYTE		N24     Bn3 
	BYTE		N24     Dn4 
	BYTE	W24
	BYTE		        Dn3 
	BYTE		N24     Gn3 
	BYTE		N24     Bn3 
	BYTE		N24     Gn4 
	BYTE	W24
	BYTE		N20     Dn3 
	BYTE		N20     Gn3 
	BYTE		N20     Bn3 
	BYTE		N20     Dn4 
	BYTE	W24
	BYTE	PEND
// 004   ----------------------------------------
Farewell_FINAL_1_004:
	BYTE		N20     Bn2   v100
	BYTE		N20     En3 
	BYTE		N20     Gn3 
	BYTE		N12     Gn4 
	BYTE	W12
	BYTE		        En4 
	BYTE	W12
	BYTE		N20     Bn2 
	BYTE		N20     En3 
	BYTE		N20     Gn3 
	BYTE		N12     Gn4 
	BYTE	W12
	BYTE		        An4 
	BYTE	W12
	BYTE		N24     Bn2 
	BYTE		N24     En3 
	BYTE		N24     Gn3 
	BYTE		N24     Bn4 
	BYTE	W24
	BYTE		        Bn2 
	BYTE		N24     En3 
	BYTE		N24     Gn3 
	BYTE		N24     Gn4 
	BYTE	W24
	BYTE	PEND
// 005   ----------------------------------------
Farewell_FINAL_1_005:
	BYTE		N20     Cn3   v100
	BYTE		N20     En3 
	BYTE		N20     An3 
	BYTE		N12     En4 
	BYTE	W12
	BYTE		        Dn4 
	BYTE	W12
	BYTE		N24     Cn3 
	BYTE		N24     En3 
	BYTE		N24     An3 
	BYTE		N24     Cn4 
	BYTE	W24
	BYTE		        Cn3 
	BYTE		N24     En3 
	BYTE		N24     An3 
	BYTE		N24     En4 
	BYTE	W24
	BYTE		        Cn3 
	BYTE		N24     En3 
	BYTE		N24     An3 
	BYTE		N24     Gn4 
	BYTE	W24
	BYTE	PEND
// 006   ----------------------------------------
Farewell_FINAL_1_006:
	BYTE		N20     Dn3   v100
	BYTE		N20     Fn3 
	BYTE		N20     An3 
	BYTE		N12     Gn4 
	BYTE	W12
	BYTE		        An4 
	BYTE	W12
	BYTE		N24     Dn3 
	BYTE		N24     Fn3 
	BYTE		N24     An3 
	BYTE		N24     Fn4 
	BYTE	W24
	BYTE		        Dn3 
	BYTE		N24     Fn3 
	BYTE		N24     An3 
	BYTE		N24     Dn4 
	BYTE	W24
	BYTE		        Dn3 
	BYTE		N24     Fn3 
	BYTE		N24     An3 
	BYTE		N24     Fn4 
	BYTE	W24
	BYTE	PEND
// 007   ----------------------------------------
Farewell_FINAL_1_007:
	BYTE		N24     Bn2   v100
	BYTE		N24     Dn3 
	BYTE		N24     Gn3 
	BYTE		N24     Gn4 
	BYTE	W24
	BYTE		        Bn2 
	BYTE		N24     Dn3 
	BYTE		N24     Gn3 
	BYTE		N24     Dn4 
	BYTE	W24
	BYTE		        Bn2 
	BYTE		N24     Dn3 
	BYTE		N24     Gn3 
	BYTE		N42     Bn3 
	BYTE	W24
	BYTE		N20     Bn2 
	BYTE		N20     Dn3 
	BYTE		N20     Gn3 
	BYTE	W24
	BYTE	PEND
// 008   ----------------------------------------
	BYTE		N24     Bn2 
	BYTE		N24     En3 
	BYTE		N24     Gn3 
	BYTE		N24     Gn4 
	BYTE	W24
	BYTE		N20     Bn2 
	BYTE		N20     En3 
	BYTE		N20     Gn3 
	BYTE		N12     Gn4 
	BYTE	W12
	BYTE		        Fs4 
	BYTE	W12
	BYTE		N24     Bn2 
	BYTE		N24     En3 
	BYTE		N24     Gn3 
	BYTE		N24     En4 
	BYTE	W24
	BYTE		N20     Bn2 
	BYTE		N20     En3 
	BYTE		N20     Gn3 
	BYTE		N12     Fs4 
	BYTE	W12
	BYTE		        Gn4 
	BYTE	W12
// 009   ----------------------------------------
	BYTE	PATT
	 POIN2	Farewell_FINAL_1_001
// 010   ----------------------------------------
	BYTE	PATT
	 POIN2	Farewell_FINAL_1_002
// 011   ----------------------------------------
	BYTE	PATT
	 POIN2	Farewell_FINAL_1_003
// 012   ----------------------------------------
	BYTE	PATT
	 POIN2	Farewell_FINAL_1_004
// 013   ----------------------------------------
	BYTE	PATT
	 POIN2	Farewell_FINAL_1_005
// 014   ----------------------------------------
	BYTE	PATT
	 POIN2	Farewell_FINAL_1_006
// 015   ----------------------------------------
	BYTE	PATT
	 POIN2	Farewell_FINAL_1_007
// 016   ----------------------------------------
	BYTE	W96
// 017   ----------------------------------------
	BYTE	W96
// 018   ----------------------------------------
	BYTE	W96
// 019   ----------------------------------------
	BYTE	W96
// 020   ----------------------------------------
	BYTE	W96
// 021   ----------------------------------------
	BYTE	W96
// 022   ----------------------------------------
	BYTE	W96
// 023   ----------------------------------------
	BYTE	W96
// 024   ----------------------------------------
Farewell_FINAL_1_024:
	BYTE		N24     Cn3   v100
	BYTE		N24     En3 
	BYTE		N24     An3 
	BYTE	W24
	BYTE		        Cn3 
	BYTE		N24     En3 
	BYTE		N24     An3 
	BYTE	W24
	BYTE		        Cn3 
	BYTE		N24     En3 
	BYTE		N24     An3 
	BYTE	W24
	BYTE		        Cn3 
	BYTE		N24     En3 
	BYTE		N24     An3 
	BYTE	W24
	BYTE	PEND
// 025   ----------------------------------------
Farewell_FINAL_1_025:
	BYTE		N24     Cn3   v100
	BYTE		N24     Fn3 
	BYTE		N24     An3 
	BYTE	W24
	BYTE		        Cn3 
	BYTE		N24     Fn3 
	BYTE		N24     An3 
	BYTE	W24
	BYTE		        Cn3 
	BYTE		N24     Fn3 
	BYTE		N24     An3 
	BYTE	W24
	BYTE		        Cn3 
	BYTE		N24     Fn3 
	BYTE		N24     An3 
	BYTE	W24
	BYTE	PEND
// 026   ----------------------------------------
Farewell_FINAL_1_026:
	BYTE		N24     Dn3   v100
	BYTE		N24     Gn3 
	BYTE		N24     Bn3 
	BYTE	W24
	BYTE		        Dn3 
	BYTE		N24     Gn3 
	BYTE		N24     Bn3 
	BYTE	W24
	BYTE		        Dn3 
	BYTE		N24     Gn3 
	BYTE		N24     Bn3 
	BYTE	W24
	BYTE		        Dn3 
	BYTE		N24     Gn3 
	BYTE		N24     Bn3 
	BYTE	W24
	BYTE	PEND
// 027   ----------------------------------------
	BYTE		        Dn3 
	BYTE		N24     Fs3 
	BYTE		N24     An3 
	BYTE	W24
	BYTE		        Dn3 
	BYTE		N24     Fs3 
	BYTE		N24     An3 
	BYTE	W24
	BYTE		        Dn3 
	BYTE		N24     Fs3 
	BYTE		N24     An3 
	BYTE	W24
	BYTE		        Dn3 
	BYTE		N24     Fs3 
	BYTE		N24     An3 
	BYTE	W24
// 028   ----------------------------------------
	BYTE	PATT
	 POIN2	Farewell_FINAL_1_024
// 029   ----------------------------------------
	BYTE	PATT
	 POIN2	Farewell_FINAL_1_025
// 030   ----------------------------------------
	BYTE	PATT
	 POIN2	Farewell_FINAL_1_026
// 031   ----------------------------------------
	BYTE		N24     Dn3   v100
	BYTE		N24     Fs3 
	BYTE		N24     An3 
	BYTE	W24
	BYTE		        Dn3 
	BYTE		N24     Fs3 
	BYTE		N24     An3 
	BYTE	W24
	BYTE		N42     Dn3 
	BYTE		N42     Fs3 
	BYTE		N42     An3 
	BYTE	W48
	BYTE	GoTo
	 POIN2	Farewell_FINAL_1_B1
Farewell_FINAL_1_B2:
// 032   ----------------------------------------
	BYTE	FINE

//**************** Track 2 (Midi-Chn.2) ****************//

Farewell_FINAL_2:
	BYTE	KEYSH   Farewell_FINAL_key+0
Farewell_FINAL_2_B1:
// 000   ----------------------------------------
	BYTE		VOICE   49
	BYTE		MODT    0
	BYTE		LFOS    44
	BYTE		PAN     c_v-29
	BYTE		VOL     127*Farewell_FINAL_mvl/mxv
	BYTE	W96
// 001   ----------------------------------------
	BYTE	W96
// 002   ----------------------------------------
	BYTE	W96
// 003   ----------------------------------------
	BYTE	W96
// 004   ----------------------------------------
	BYTE	W96
// 005   ----------------------------------------
	BYTE	W96
// 006   ----------------------------------------
	BYTE	W96
// 007   ----------------------------------------
	BYTE	W96
// 008   ----------------------------------------
	BYTE		N90     Gn2   v056
	BYTE		N90     Bn2 
	BYTE		TIE     En3 
	BYTE	W96
// 009   ----------------------------------------
Farewell_FINAL_2_009:
	BYTE		TIE     An2   v056
	BYTE		N90     Cn3 
	BYTE	W90
	BYTE	PEND
	BYTE		EOT     En3 
	BYTE	W06
// 010   ----------------------------------------
Farewell_FINAL_2_010:
	BYTE		TIE     Dn3   v056
	BYTE		N90     Fn3 
	BYTE	W90
	BYTE	PEND
	BYTE		EOT     An2 
	BYTE	W06
// 011   ----------------------------------------
	BYTE		TIE     Bn2 
	BYTE		N42     Gn3 
	BYTE	W48
	BYTE		        Fs3 
	BYTE	W42
	BYTE		EOT     Dn3 
	BYTE	W06
// 012   ----------------------------------------
	BYTE		N90     Gn2 
	BYTE		TIE     En3 
	BYTE	W90
	BYTE		EOT     Bn2 
	BYTE	W06
// 013   ----------------------------------------
	BYTE	PATT
	 POIN2	Farewell_FINAL_2_009
	BYTE		EOT     En3 
	BYTE	W06
// 014   ----------------------------------------
	BYTE	PATT
	 POIN2	Farewell_FINAL_2_010
	BYTE		EOT     An2 
	BYTE	W06
// 015   ----------------------------------------
	BYTE		N90     Bn2   v056
	BYTE		N90     Gn3 
	BYTE		N90     Bn3 
	BYTE	W90
	BYTE		EOT     Dn3 
	BYTE	W06
// 016   ----------------------------------------
Farewell_FINAL_2_016:
	BYTE		TIE     Cn3   v056
	BYTE		N96     En3 
	BYTE		TIE     An3 
	BYTE	W96
	BYTE	PEND
// 017   ----------------------------------------
	BYTE		N96     Fn3 
	BYTE	W96
	BYTE		EOT     Cn3 
	BYTE		        An3 
// 018   ----------------------------------------
Farewell_FINAL_2_018:
	BYTE		TIE     Dn3   v056
	BYTE		N96     Gn3 
	BYTE		N96     Bn3 
	BYTE	W96
	BYTE	PEND
// 019   ----------------------------------------
	BYTE		        Fs3 
	BYTE		N96     An3 
	BYTE	W96
	BYTE		EOT     Dn3 
// 020   ----------------------------------------
	BYTE	PATT
	 POIN2	Farewell_FINAL_2_016
// 021   ----------------------------------------
	BYTE		N96     Fn3   v056
	BYTE	W96
	BYTE		EOT     Cn3 
	BYTE		        An3 
// 022   ----------------------------------------
	BYTE	PATT
	 POIN2	Farewell_FINAL_2_018
// 023   ----------------------------------------
	BYTE		N96     Fs3   v056
	BYTE		N96     An3 
	BYTE	W96
	BYTE		EOT     Dn3 
// 024   ----------------------------------------
	BYTE	PATT
	 POIN2	Farewell_FINAL_2_016
// 025   ----------------------------------------
	BYTE		N96     Fn3   v056
	BYTE	W96
	BYTE		EOT     Cn3 
	BYTE		        An3 
// 026   ----------------------------------------
	BYTE	PATT
	 POIN2	Farewell_FINAL_2_018
// 027   ----------------------------------------
	BYTE		N96     Fs3   v056
	BYTE		N96     An3 
	BYTE	W96
	BYTE		EOT     Dn3 
// 028   ----------------------------------------
	BYTE	PATT
	 POIN2	Farewell_FINAL_2_016
// 029   ----------------------------------------
	BYTE		N96     Fn3   v056
	BYTE	W96
	BYTE		EOT     Cn3 
	BYTE		        An3 
// 030   ----------------------------------------
	BYTE	PATT
	 POIN2	Farewell_FINAL_2_018
// 031   ----------------------------------------
	BYTE		N90     Fs3   v056
	BYTE		N90     An3 
	BYTE	W90
	BYTE		EOT     Dn3 
	BYTE	W06
	BYTE	GoTo
	 POIN2	Farewell_FINAL_2_B1
Farewell_FINAL_2_B2:
// 032   ----------------------------------------
	BYTE	FINE

//**************** Track 3 (Midi-Chn.3) ****************//

Farewell_FINAL_3:
	BYTE	KEYSH   Farewell_FINAL_key+0
Farewell_FINAL_3_B1:
// 000   ----------------------------------------
	BYTE		VOICE   48
	BYTE		MODT    0
	BYTE		LFOS    44
	BYTE		PAN     c_v+30
	BYTE		VOL     127*Farewell_FINAL_mvl/mxv
	BYTE	W96
// 001   ----------------------------------------
	BYTE	W96
// 002   ----------------------------------------
	BYTE	W96
// 003   ----------------------------------------
	BYTE	W96
// 004   ----------------------------------------
	BYTE	W96
// 005   ----------------------------------------
	BYTE	W96
// 006   ----------------------------------------
	BYTE	W96
// 007   ----------------------------------------
	BYTE	W96
// 008   ----------------------------------------
	BYTE		TIE     En1   v100
	BYTE	W96
// 009   ----------------------------------------
	BYTE	W96
	BYTE		EOT   
// 010   ----------------------------------------
	BYTE		N96     Fn1 
	BYTE	W96
// 011   ----------------------------------------
	BYTE		N48     Gn1 
	BYTE	W48
	BYTE		        Fs1 
	BYTE	W48
// 012   ----------------------------------------
	BYTE		TIE     En1 
	BYTE	W96
// 013   ----------------------------------------
	BYTE	W96
	BYTE		EOT   
// 014   ----------------------------------------
	BYTE		N96     Fn1 
	BYTE	W96
// 015   ----------------------------------------
	BYTE		N90     Gn1 
	BYTE	W96
// 016   ----------------------------------------
	BYTE		N96     An1 
	BYTE	W96
// 017   ----------------------------------------
	BYTE		        Fn1 
	BYTE	W96
// 018   ----------------------------------------
	BYTE		        Gn1 
	BYTE	W96
// 019   ----------------------------------------
	BYTE		        Dn1 
	BYTE	W96
// 020   ----------------------------------------
	BYTE		        An1 
	BYTE	W96
// 021   ----------------------------------------
	BYTE		        Fn1 
	BYTE	W96
// 022   ----------------------------------------
	BYTE		        Gn1 
	BYTE	W96
// 023   ----------------------------------------
	BYTE		        Dn1 
	BYTE	W96
// 024   ----------------------------------------
	BYTE		        An1 
	BYTE	W96
// 025   ----------------------------------------
	BYTE		        Fn1 
	BYTE	W96
// 026   ----------------------------------------
	BYTE		        Gn1 
	BYTE	W96
// 027   ----------------------------------------
	BYTE		        Dn1 
	BYTE	W96
// 028   ----------------------------------------
	BYTE		        An1 
	BYTE	W96
// 029   ----------------------------------------
	BYTE		        Fn1 
	BYTE	W96
// 030   ----------------------------------------
	BYTE		        Gn1 
	BYTE	W96
// 031   ----------------------------------------
	BYTE		N90     Dn1 
	BYTE	W96
	BYTE	GoTo
	 POIN2	Farewell_FINAL_3_B1
Farewell_FINAL_3_B2:
// 032   ----------------------------------------
	BYTE	FINE

//**************** Track 4 (Midi-Chn.4) ****************//

Farewell_FINAL_4:
	BYTE	KEYSH   Farewell_FINAL_key+0
Farewell_FINAL_4_B1:
// 000   ----------------------------------------
	BYTE		VOICE   52
	BYTE		MODT    0
	BYTE		LFOS    44
	BYTE		PAN     c_v-29
	BYTE		VOL     127*Farewell_FINAL_mvl/mxv
	BYTE	W96
// 001   ----------------------------------------
	BYTE	W96
// 002   ----------------------------------------
	BYTE	W96
// 003   ----------------------------------------
	BYTE	W96
// 004   ----------------------------------------
	BYTE	W96
// 005   ----------------------------------------
	BYTE	W96
// 006   ----------------------------------------
	BYTE	W96
// 007   ----------------------------------------
	BYTE	W96
// 008   ----------------------------------------
	BYTE	W96
// 009   ----------------------------------------
	BYTE	W96
// 010   ----------------------------------------
	BYTE	W96
// 011   ----------------------------------------
	BYTE	W96
// 012   ----------------------------------------
	BYTE	W96
// 013   ----------------------------------------
	BYTE	W96
// 014   ----------------------------------------
	BYTE	W96
// 015   ----------------------------------------
	BYTE	W96
// 016   ----------------------------------------
Farewell_FINAL_4_016:
	BYTE		N48     Cn4   v127
	BYTE	W48
	BYTE		N24     Bn3 
	BYTE	W24
	BYTE		        Cn4 
	BYTE	W24
	BYTE	PEND
// 017   ----------------------------------------
Farewell_FINAL_4_017:
	BYTE		N48     An3   v127
	BYTE	W48
	BYTE		N24     Bn3 
	BYTE	W24
	BYTE		        Cn4 
	BYTE	W24
	BYTE	PEND
// 018   ----------------------------------------
Farewell_FINAL_4_018:
	BYTE		N48     Dn4   v127
	BYTE	W48
	BYTE		N96     Bn3 
	BYTE	W48
	BYTE	PEND
// 019   ----------------------------------------
	BYTE	W48
	BYTE		N42     An3 
	BYTE	W48
// 020   ----------------------------------------
Farewell_FINAL_4_020:
	BYTE		N48     Gn3   v127
	BYTE	W48
	BYTE		N24     An3 
	BYTE	W24
	BYTE		N72     Gn3 
	BYTE	W24
	BYTE	PEND
// 021   ----------------------------------------
	BYTE	W48
	BYTE		N48     Fn3 
	BYTE	W48
// 022   ----------------------------------------
Farewell_FINAL_4_022:
	BYTE		N24     Gn3   v127
	BYTE	W24
	BYTE		        Bn3 
	BYTE	W24
	BYTE		        An3 
	BYTE	W24
	BYTE		        Gn3 
	BYTE	W24
	BYTE	PEND
// 023   ----------------------------------------
	BYTE		N90     Dn3 
	BYTE	W96
// 024   ----------------------------------------
	BYTE	PATT
	 POIN2	Farewell_FINAL_4_016
// 025   ----------------------------------------
	BYTE	PATT
	 POIN2	Farewell_FINAL_4_017
// 026   ----------------------------------------
	BYTE	PATT
	 POIN2	Farewell_FINAL_4_018
// 027   ----------------------------------------
	BYTE	W48
	BYTE		N42     An3   v127
	BYTE	W48
// 028   ----------------------------------------
	BYTE	PATT
	 POIN2	Farewell_FINAL_4_020
// 029   ----------------------------------------
	BYTE	W48
	BYTE		N48     Fn3   v127
	BYTE	W48
// 030   ----------------------------------------
	BYTE	PATT
	 POIN2	Farewell_FINAL_4_022
// 031   ----------------------------------------
	BYTE		N90     Dn3   v127
	BYTE	W96
	BYTE	GoTo
	 POIN2	Farewell_FINAL_4_B1
Farewell_FINAL_4_B2:
// 032   ----------------------------------------
	BYTE	FINE

//**************** Track 5 (Midi-Chn.5) ****************//

Farewell_FINAL_5:
	BYTE	KEYSH   Farewell_FINAL_key+0
Farewell_FINAL_5_B1:
// 000   ----------------------------------------
	BYTE		VOICE   73
	BYTE		MODT    0
	BYTE		LFOS    44
	BYTE		PAN     c_v+21
	BYTE		VOL     127*Farewell_FINAL_mvl/mxv
	BYTE	W96
// 001   ----------------------------------------
	BYTE	W96
// 002   ----------------------------------------
	BYTE	W96
// 003   ----------------------------------------
	BYTE	W96
// 004   ----------------------------------------
	BYTE	W96
// 005   ----------------------------------------
	BYTE	W96
// 006   ----------------------------------------
	BYTE	W96
// 007   ----------------------------------------
	BYTE	W96
// 008   ----------------------------------------
	BYTE		N36     Gn4   v127
	BYTE	W36
	BYTE		N12     Fs4 
	BYTE	W12
	BYTE		N24     En4 
	BYTE	W24
	BYTE		N12     Fs4 
	BYTE	W12
	BYTE		        Gn4 
	BYTE	W12
// 009   ----------------------------------------
	BYTE		N24     An4 
	BYTE	W24
	BYTE		        Cn4 
	BYTE	W24
	BYTE		        En4 
	BYTE	W24
	BYTE		        Gn4 
	BYTE	W24
// 010   ----------------------------------------
	BYTE		N36     An4 
	BYTE	W36
	BYTE		N12     Gn4 
	BYTE	W12
	BYTE		N24     Fn4 
	BYTE	W24
	BYTE		N12     Gn4 
	BYTE	W12
	BYTE		        An4 
	BYTE	W12
// 011   ----------------------------------------
	BYTE		N24     Bn4 
	BYTE	W24
	BYTE		        Dn4 
	BYTE	W24
	BYTE		        Gn4 
	BYTE	W24
	BYTE		        Dn4 
	BYTE	W24
// 012   ----------------------------------------
	BYTE		N12     Gn4 
	BYTE	W12
	BYTE		        En4 
	BYTE	W12
	BYTE		        Gn4 
	BYTE	W12
	BYTE		        An4 
	BYTE	W12
	BYTE		N24     Bn4 
	BYTE	W24
	BYTE		        Gn4 
	BYTE	W24
// 013   ----------------------------------------
	BYTE		N12     En4 
	BYTE	W12
	BYTE		        Dn4 
	BYTE	W12
	BYTE		N24     Cn4 
	BYTE	W24
	BYTE		        En4 
	BYTE	W24
	BYTE		        Gn4 
	BYTE	W24
// 014   ----------------------------------------
	BYTE		N12   
	BYTE	W12
	BYTE		        An4 
	BYTE	W12
	BYTE		N24     Fn4 
	BYTE	W24
	BYTE		        Dn4 
	BYTE	W24
	BYTE		        Fn4 
	BYTE	W24
// 015   ----------------------------------------
	BYTE		        Gn4 
	BYTE	W24
	BYTE		        Dn4 
	BYTE	W24
	BYTE		N42     Bn3 
	BYTE	W48
// 016   ----------------------------------------
	BYTE	W96
// 017   ----------------------------------------
	BYTE	W96
// 018   ----------------------------------------
	BYTE	W96
// 019   ----------------------------------------
	BYTE	W96
// 020   ----------------------------------------
	BYTE	W96
// 021   ----------------------------------------
	BYTE	W96
// 022   ----------------------------------------
	BYTE	W96
// 023   ----------------------------------------
	BYTE	W96
// 024   ----------------------------------------
	BYTE		N48     En4 
	BYTE	W48
	BYTE		N24     Dn4 
	BYTE	W24
	BYTE		        En4 
	BYTE	W24
// 025   ----------------------------------------
	BYTE		N48     Cn4 
	BYTE	W48
	BYTE		N24     Dn4 
	BYTE	W24
	BYTE		        En4 
	BYTE	W24
// 026   ----------------------------------------
	BYTE		        Fs4 
	BYTE	W24
	BYTE		        En4 
	BYTE	W24
	BYTE		        Dn4 
	BYTE	W24
	BYTE		        Cn4 
	BYTE	W24
// 027   ----------------------------------------
	BYTE		N48     Dn4 
	BYTE	W48
	BYTE		        Cn4 
	BYTE	W48
// 028   ----------------------------------------
	BYTE		        Bn3 
	BYTE	W48
	BYTE		N24     Cn4 
	BYTE	W24
	BYTE		        Bn3 
	BYTE	W24
// 029   ----------------------------------------
	BYTE		N48   
	BYTE	W48
	BYTE		        An3 
	BYTE	W48
// 030   ----------------------------------------
	BYTE		N24     Bn3 
	BYTE	W24
	BYTE		        Dn4 
	BYTE	W24
	BYTE		        Cn4 
	BYTE	W24
	BYTE		        Bn3 
	BYTE	W24
// 031   ----------------------------------------
	BYTE		N90     An3 
	BYTE	W96
	BYTE	GoTo
	 POIN2	Farewell_FINAL_5_B1
Farewell_FINAL_5_B2:
// 032   ----------------------------------------
	BYTE	FINE

//**************** Track 6 (Midi-Chn.6) ****************//

Farewell_FINAL_6:
	BYTE	KEYSH   Farewell_FINAL_key+0
Farewell_FINAL_6_B1:
// 000   ----------------------------------------
	BYTE		VOICE   54
	BYTE		MODT    0
	BYTE		LFOS    44
	BYTE		VOL     127*Farewell_FINAL_mvl/mxv
	BYTE		PAN     c_v+0
	BYTE	W96
// 001   ----------------------------------------
	BYTE	W96
// 002   ----------------------------------------
	BYTE	W96
// 003   ----------------------------------------
	BYTE	W96
// 004   ----------------------------------------
	BYTE	W96
// 005   ----------------------------------------
	BYTE	W96
// 006   ----------------------------------------
	BYTE	W96
// 007   ----------------------------------------
	BYTE	W96
// 008   ----------------------------------------
	BYTE	W96
// 009   ----------------------------------------
	BYTE	W96
// 010   ----------------------------------------
	BYTE	W96
// 011   ----------------------------------------
	BYTE	W96
// 012   ----------------------------------------
	BYTE	W96
// 013   ----------------------------------------
	BYTE	W96
// 014   ----------------------------------------
	BYTE	W96
// 015   ----------------------------------------
	BYTE	W96
// 016   ----------------------------------------
Farewell_FINAL_6_016:
	BYTE		TIE     Cn2   v076
	BYTE		N96     En2 
	BYTE		TIE     An2 
	BYTE	W96
	BYTE	PEND
// 017   ----------------------------------------
	BYTE		N96     Fn2 
	BYTE	W96
	BYTE		EOT     Cn2 
	BYTE		        An2 
// 018   ----------------------------------------
Farewell_FINAL_6_018:
	BYTE		TIE     Dn2   v076
	BYTE		N96     Gn2 
	BYTE		N96     Bn2 
	BYTE	W96
	BYTE	PEND
// 019   ----------------------------------------
	BYTE		        Fs2 
	BYTE		N96     An2 
	BYTE	W96
	BYTE		EOT     Dn2 
// 020   ----------------------------------------
	BYTE	PATT
	 POIN2	Farewell_FINAL_6_016
// 021   ----------------------------------------
	BYTE		N96     Fn2   v076
	BYTE	W96
	BYTE		EOT     Cn2 
	BYTE		        An2 
// 022   ----------------------------------------
	BYTE	PATT
	 POIN2	Farewell_FINAL_6_018
// 023   ----------------------------------------
	BYTE		N96     Fs2   v076
	BYTE		N96     An2 
	BYTE	W96
	BYTE		EOT     Dn2 
// 024   ----------------------------------------
	BYTE	PATT
	 POIN2	Farewell_FINAL_6_016
// 025   ----------------------------------------
	BYTE		N96     Fn2   v076
	BYTE	W96
	BYTE		EOT     Cn2 
	BYTE		        An2 
// 026   ----------------------------------------
	BYTE	PATT
	 POIN2	Farewell_FINAL_6_018
// 027   ----------------------------------------
	BYTE		N96     Fs2   v076
	BYTE		N96     An2 
	BYTE	W96
	BYTE		EOT     Dn2 
// 028   ----------------------------------------
	BYTE	PATT
	 POIN2	Farewell_FINAL_6_016
// 029   ----------------------------------------
	BYTE		N96     Fn2   v076
	BYTE	W96
	BYTE		EOT     Cn2 
	BYTE		        An2 
// 030   ----------------------------------------
	BYTE	PATT
	 POIN2	Farewell_FINAL_6_018
// 031   ----------------------------------------
	BYTE		N90     Fs2   v076
	BYTE		N90     An2 
	BYTE	W90
	BYTE		EOT     Dn2 
	BYTE	W06
	BYTE	GoTo
	 POIN2	Farewell_FINAL_6_B1
Farewell_FINAL_6_B2:
// 032   ----------------------------------------
	BYTE	FINE

//******************************************************//
	ALIGN 4

Farewell_FINAL:
	BYTE	6	// NumTrks
	BYTE	0	// NumBlks
	BYTE	Farewell_FINAL_pri	// Priority
	BYTE	Farewell_FINAL_rev	// Reverb.

	POIN2	Farewell_FINAL_grp

	POIN2	Farewell_FINAL_1
	POIN2	Farewell_FINAL_2
	POIN2	Farewell_FINAL_3
	POIN2	Farewell_FINAL_4
	POIN2	Farewell_FINAL_5
	POIN2	Farewell_FINAL_6

	
