//Event file generated from Sappy .s format.
	#include "MPlayDef.event"

	#define	Fellowship_FINAL_grp  voicegroup000
	#define	Fellowship_FINAL_pri  0
	#define	Fellowship_FINAL_rev  94
	#define	Fellowship_FINAL_mvl  32
	#define	Fellowship_FINAL_key  0
	#define	Fellowship_FINAL_tbs  1
	#define	Fellowship_FINAL_exg  0
	#define	Fellowship_FINAL_cmp  1

	// .rodata
	//	Fellowship_FINAL
	ALIGN 4

//**************** Track 1 (Midi-Chn.1) ****************//

Fellowship_FINAL_1:
	BYTE	KEYSH   Fellowship_FINAL_key+0
Fellowship_FINAL_1_B1:
// 000   ----------------------------------------
	BYTE	TEMPO   93*Fellowship_FINAL_tbs/2
	BYTE		VOICE   60
	BYTE		MODT    0
	BYTE		LFOS    44
	BYTE		VOL     127*Fellowship_FINAL_mvl/mxv
	BYTE		PAN     c_v+0
	BYTE	W96
// 001   ----------------------------------------
	BYTE	W96
// 002   ----------------------------------------
	BYTE	W96
// 003   ----------------------------------------
	BYTE	W96
// 004   ----------------------------------------
	BYTE	W96
// 005   ----------------------------------------
	BYTE	W96
// 006   ----------------------------------------
	BYTE	W96
// 007   ----------------------------------------
	BYTE	W96
// 008   ----------------------------------------
	BYTE		N32     Cn3   v127
	BYTE	W36
	BYTE		N11     Fn3 
	BYTE	W12
	BYTE		N42   
	BYTE	W48
// 009   ----------------------------------------
	BYTE		N32     Cn3 
	BYTE	W36
	BYTE		N11     En3 
	BYTE	W12
	BYTE		N15   
	BYTE	W16
	BYTE		        Fn3 
	BYTE	W16
	BYTE		        Gn3 
	BYTE	W16
// 010   ----------------------------------------
	BYTE		N32     An3 
	BYTE	W36
	BYTE		N11     Fn3 
	BYTE	W12
	BYTE		N11   
	BYTE	W12
	BYTE		        Gn3 
	BYTE	W12
	BYTE		        An3 
	BYTE	W12
	BYTE		        Fn3 
	BYTE	W12
// 011   ----------------------------------------
	BYTE		        Gn3 
	BYTE	W12
	BYTE		        Fn3 
	BYTE	W12
	BYTE		        En3 
	BYTE	W12
	BYTE		        Fn3 
	BYTE	W12
	BYTE		        En3 
	BYTE	W12
	BYTE		        Cn3 
	BYTE	W12
	BYTE		        Dn3 
	BYTE	W12
	BYTE		        En3 
	BYTE	W12
// 012   ----------------------------------------
	BYTE		N32     Fn3 
	BYTE	W36
	BYTE		N11     An3 
	BYTE	W12
	BYTE		N42   
	BYTE	W48
// 013   ----------------------------------------
	BYTE		N32     Gn3 
	BYTE	W36
	BYTE		N11     As3 
	BYTE	W12
	BYTE		N15   
	BYTE	W16
	BYTE		        An3 
	BYTE	W16
	BYTE		        Gn3 
	BYTE	W16
// 014   ----------------------------------------
	BYTE		N11     Fn3 
	BYTE	W12
	BYTE		        Gn3 
	BYTE	W12
	BYTE		        An3 
	BYTE	W12
	BYTE		        As3 
	BYTE	W12
	BYTE		        Cn4 
	BYTE	W12
	BYTE		        Fn4 
	BYTE	W12
	BYTE		        En4 
	BYTE	W12
	BYTE		        Fn4 
	BYTE	W12
// 015   ----------------------------------------
	BYTE		        En4 
	BYTE	W12
	BYTE		        Dn4 
	BYTE	W12
	BYTE		        Cn4 
	BYTE	W12
	BYTE		        Dn4 
	BYTE	W12
	BYTE		N42     Cn4 
	BYTE	W48
// 016   ----------------------------------------
	BYTE		N32     Dn4 
	BYTE	W36
	BYTE		N11     As3 
	BYTE	W12
	BYTE		N42   
	BYTE	W48
// 017   ----------------------------------------
	BYTE		N32     Gn3 
	BYTE	W36
	BYTE		N11     Dn3 
	BYTE	W12
	BYTE		N15     Gn3 
	BYTE	W16
	BYTE		        An3 
	BYTE	W16
	BYTE		        As3 
	BYTE	W16
// 018   ----------------------------------------
	BYTE		N32     Cn4 
	BYTE	W36
	BYTE		N05     Dn4 
	BYTE	W06
	BYTE		        Cn4 
	BYTE	W06
	BYTE		N11     En4 
	BYTE	W12
	BYTE		        Cn4 
	BYTE	W12
	BYTE		        Dn4 
	BYTE	W12
	BYTE		        En4 
	BYTE	W12
// 019   ----------------------------------------
	BYTE		        Fn4 
	BYTE	W12
	BYTE		        Gn4 
	BYTE	W12
	BYTE		        An4 
	BYTE	W12
	BYTE		        As4 
	BYTE	W12
	BYTE		N42     An4 
	BYTE	W48
// 020   ----------------------------------------
	BYTE		N32     Gn4 
	BYTE	W36
	BYTE		N11     Ds4 
	BYTE	W12
	BYTE		N42   
	BYTE	W48
// 021   ----------------------------------------
	BYTE		N32     Gn4 
	BYTE	W36
	BYTE		N11     Dn4 
	BYTE	W12
	BYTE		        Bn3 
	BYTE	W12
	BYTE		        Cn4 
	BYTE	W12
	BYTE		        Dn4 
	BYTE	W12
	BYTE		        En4 
	BYTE	W12
// 022   ----------------------------------------
	BYTE		        Dn4 
	BYTE	W12
	BYTE		        Cn4 
	BYTE	W12
	BYTE		        Bn3 
	BYTE	W12
	BYTE		        Cn4 
	BYTE	W12
	BYTE		        En4 
	BYTE	W12
	BYTE		        Fn4 
	BYTE	W12
	BYTE		        Gn4 
	BYTE	W12
	BYTE		        Dn4 
	BYTE	W12
// 023   ----------------------------------------
	BYTE		N20     Cn4 
	BYTE	W24
	BYTE		        As3 
	BYTE	W24
	BYTE		        An3 
	BYTE	W24
	BYTE		        Gn3 
	BYTE	W24
// 024   ----------------------------------------
	BYTE		N90     An2 
	BYTE		N90     Dn3 
	BYTE		N90     Fn3 
	BYTE	W96
// 025   ----------------------------------------
	BYTE		        An2 
	BYTE		N90     Dn3 
	BYTE		N90     Fs3 
	BYTE	W96
// 026   ----------------------------------------
	BYTE		        Cn3 
	BYTE		N90     Ds3 
	BYTE		N90     Gn3 
	BYTE	W96
// 027   ----------------------------------------
	BYTE		        Bn2 
	BYTE		N90     Dn3 
	BYTE		N90     En3 
	BYTE		N90     Gn3 
	BYTE	W96
// 028   ----------------------------------------
	BYTE		N15     Fn3 
	BYTE	W16
	BYTE		        Dn3 
	BYTE	W16
	BYTE		        Fn3 
	BYTE	W16
	BYTE		        An3 
	BYTE	W16
	BYTE		        Gn3 
	BYTE	W16
	BYTE		        Fn3 
	BYTE	W16
// 029   ----------------------------------------
	BYTE		        Dn3 
	BYTE	W16
	BYTE		        An2 
	BYTE	W16
	BYTE		        Dn3 
	BYTE	W16
	BYTE		        Fs3 
	BYTE	W16
	BYTE		        Gn3 
	BYTE	W16
	BYTE		        An3 
	BYTE	W16
// 030   ----------------------------------------
	BYTE		        As3 
	BYTE	W16
	BYTE		        Gn3 
	BYTE	W16
	BYTE		        As3 
	BYTE	W16
	BYTE		        Cn4 
	BYTE	W16
	BYTE		        Dn4 
	BYTE	W16
	BYTE		        Ds4 
	BYTE	W16
// 031   ----------------------------------------
	BYTE		N66     En4 
	BYTE	W92
	BYTE	W03
	BYTE	GoTo
	 POIN2	Fellowship_FINAL_1_B1
Fellowship_FINAL_1_B2:
	BYTE	FINE

//**************** Track 2 (Midi-Chn.2) ****************//

Fellowship_FINAL_2:
	BYTE	KEYSH   Fellowship_FINAL_key+0
Fellowship_FINAL_2_B1:
// 000   ----------------------------------------
	BYTE		VOICE   0
	BYTE		MODT    0
	BYTE		LFOS    44
	BYTE		VOL     127*Fellowship_FINAL_mvl/mxv
	BYTE		PAN     c_v-32
	BYTE		N20     Cn3   v056
	BYTE		N20     Fn3 
	BYTE	W24
	BYTE		        Cn3 
	BYTE		N20     Fn3 
	BYTE	W24
	BYTE		N11     Fn2 
	BYTE	W12
	BYTE		N04     Cn3 
	BYTE		N04     Fn3 
	BYTE	W24
	BYTE		N11     Cn3 
	BYTE		N11     Fn3 
	BYTE	W12
// 001   ----------------------------------------
Fellowship_FINAL_2_001:
	BYTE		N20     Cn3   v056
	BYTE		N20     En3 
	BYTE	W24
	BYTE		        Cn3 
	BYTE		N20     En3 
	BYTE	W24
	BYTE		N11     Cn2 
	BYTE	W12
	BYTE		N04     Cn3 
	BYTE		N04     En3 
	BYTE	W24
	BYTE		N11     Cn3 
	BYTE		N11     En3 
	BYTE	W12
	BYTE	PEND
// 002   ----------------------------------------
Fellowship_FINAL_2_002:
	BYTE		N20     Cn3   v056
	BYTE		N20     Fn3 
	BYTE	W24
	BYTE		        Cn3 
	BYTE		N20     Fn3 
	BYTE	W24
	BYTE		N11     Fn2 
	BYTE	W12
	BYTE		N04     Cn3 
	BYTE		N04     Fn3 
	BYTE	W24
	BYTE		N11     Cn3 
	BYTE		N11     Fn3 
	BYTE	W12
	BYTE	PEND
// 003   ----------------------------------------
	BYTE	PATT
	 POIN2	Fellowship_FINAL_2_001
// 004   ----------------------------------------
	BYTE	PATT
	 POIN2	Fellowship_FINAL_2_002
// 005   ----------------------------------------
	BYTE	PATT
	 POIN2	Fellowship_FINAL_2_001
// 006   ----------------------------------------
	BYTE	PATT
	 POIN2	Fellowship_FINAL_2_002
// 007   ----------------------------------------
	BYTE	PATT
	 POIN2	Fellowship_FINAL_2_001
// 008   ----------------------------------------
	BYTE	PATT
	 POIN2	Fellowship_FINAL_2_002
// 009   ----------------------------------------
	BYTE	PATT
	 POIN2	Fellowship_FINAL_2_001
// 010   ----------------------------------------
	BYTE	PATT
	 POIN2	Fellowship_FINAL_2_002
// 011   ----------------------------------------
	BYTE	PATT
	 POIN2	Fellowship_FINAL_2_001
// 012   ----------------------------------------
	BYTE	PATT
	 POIN2	Fellowship_FINAL_2_002
// 013   ----------------------------------------
	BYTE	PATT
	 POIN2	Fellowship_FINAL_2_001
// 014   ----------------------------------------
	BYTE	PATT
	 POIN2	Fellowship_FINAL_2_002
// 015   ----------------------------------------
	BYTE	PATT
	 POIN2	Fellowship_FINAL_2_001
// 016   ----------------------------------------
	BYTE		N20     Dn3   v056
	BYTE		N20     Fn3 
	BYTE	W24
	BYTE		        Dn3 
	BYTE		N20     Fn3 
	BYTE	W24
	BYTE		N11     As1 
	BYTE	W12
	BYTE		N04     Dn3 
	BYTE		N04     Fn3 
	BYTE	W24
	BYTE		N11     Dn3 
	BYTE		N11     Fn3 
	BYTE	W12
// 017   ----------------------------------------
	BYTE		N20     Dn3 
	BYTE		N20     Gn3 
	BYTE	W24
	BYTE		        Dn3 
	BYTE		N20     Gn3 
	BYTE	W24
	BYTE		N11     As1 
	BYTE	W12
	BYTE		N04     Dn3 
	BYTE		N04     Gn3 
	BYTE	W24
	BYTE		N11     Dn3 
	BYTE		N11     Gn3 
	BYTE	W12
// 018   ----------------------------------------
	BYTE	PATT
	 POIN2	Fellowship_FINAL_2_001
// 019   ----------------------------------------
	BYTE		N20     Dn3   v056
	BYTE		N20     Fn3 
	BYTE	W24
	BYTE		        Dn3 
	BYTE		N20     Fn3 
	BYTE	W24
	BYTE		N11     Dn2 
	BYTE	W12
	BYTE		N04     Dn3 
	BYTE		N04     Fn3 
	BYTE	W24
	BYTE		N11     Dn3 
	BYTE		N11     Fn3 
	BYTE	W12
// 020   ----------------------------------------
	BYTE		N20     Ds3 
	BYTE		N20     Gn3 
	BYTE	W24
	BYTE		        Ds3 
	BYTE		N20     Gn3 
	BYTE	W24
	BYTE		N11     Cn2 
	BYTE	W12
	BYTE		N04     Ds3 
	BYTE		N04     Gn3 
	BYTE	W24
	BYTE		N11     Ds3 
	BYTE		N11     Gn3 
	BYTE	W12
// 021   ----------------------------------------
	BYTE		N20     Dn3 
	BYTE		N20     Gn3 
	BYTE	W24
	BYTE		        Dn3 
	BYTE		N20     Gn3 
	BYTE	W24
	BYTE		N11     Bn1 
	BYTE	W12
	BYTE		N04     Dn3 
	BYTE		N04     Gn3 
	BYTE	W24
	BYTE		N11     Dn3 
	BYTE		N11     Gn3 
	BYTE	W12
// 022   ----------------------------------------
	BYTE		N20     En3 
	BYTE		N20     An3 
	BYTE	W24
	BYTE		        En3 
	BYTE		N20     An3 
	BYTE	W24
	BYTE		N11     En2 
	BYTE	W12
	BYTE		N04     En3 
	BYTE		N04     An3 
	BYTE	W24
	BYTE		N11     En3 
	BYTE		N11     An3 
	BYTE	W12
// 023   ----------------------------------------
	BYTE		N20     En3 
	BYTE		N20     Gn3 
	BYTE	W24
	BYTE		        En3 
	BYTE		N20     Gn3 
	BYTE	W24
	BYTE		N11     Cn2 
	BYTE	W12
	BYTE		N04     En3 
	BYTE		N04     Gn3 
	BYTE	W24
	BYTE		N11     En3 
	BYTE		N11     Gn3 
	BYTE	W12
// 024   ----------------------------------------
Fellowship_FINAL_2_024:
	BYTE		N06     Dn3   v056
	BYTE	W06
	BYTE		        Fn3 
	BYTE	W06
	BYTE		        An3 
	BYTE	W06
	BYTE		        Dn4 
	BYTE	W06
	BYTE		        Dn3 
	BYTE	W06
	BYTE		        Fn3 
	BYTE	W06
	BYTE		        An3 
	BYTE	W06
	BYTE		        Dn4 
	BYTE	W06
	BYTE		        Dn3 
	BYTE	W06
	BYTE		        Fn3 
	BYTE	W06
	BYTE		        An3 
	BYTE	W06
	BYTE		        Dn4 
	BYTE	W06
	BYTE		        Dn3 
	BYTE	W06
	BYTE		        Fn3 
	BYTE	W06
	BYTE		        An3 
	BYTE	W06
	BYTE		        Dn4 
	BYTE	W06
	BYTE	PEND
// 025   ----------------------------------------
Fellowship_FINAL_2_025:
	BYTE		N06     Dn3   v056
	BYTE	W06
	BYTE		        Fs3 
	BYTE	W06
	BYTE		        An3 
	BYTE	W06
	BYTE		        Dn4 
	BYTE	W06
	BYTE		        Dn3 
	BYTE	W06
	BYTE		        Fs3 
	BYTE	W06
	BYTE		        An3 
	BYTE	W06
	BYTE		        Dn4 
	BYTE	W06
	BYTE		        Dn3 
	BYTE	W06
	BYTE		        Fs3 
	BYTE	W06
	BYTE		        An3 
	BYTE	W06
	BYTE		        Dn4 
	BYTE	W06
	BYTE		        Dn3 
	BYTE	W06
	BYTE		        Fs3 
	BYTE	W06
	BYTE		        An3 
	BYTE	W06
	BYTE		        Dn4 
	BYTE	W06
	BYTE	PEND
// 026   ----------------------------------------
Fellowship_FINAL_2_026:
	BYTE		N06     Ds3   v056
	BYTE	W06
	BYTE		        Gn3 
	BYTE	W06
	BYTE		        Cn4 
	BYTE	W06
	BYTE		        Ds4 
	BYTE	W06
	BYTE		        Ds3 
	BYTE	W06
	BYTE		        Gn3 
	BYTE	W06
	BYTE		        Cn4 
	BYTE	W06
	BYTE		        Ds4 
	BYTE	W06
	BYTE		        Ds3 
	BYTE	W06
	BYTE		        Gn3 
	BYTE	W06
	BYTE		        Cn4 
	BYTE	W06
	BYTE		        Ds4 
	BYTE	W06
	BYTE		        Ds3 
	BYTE	W06
	BYTE		        Gn3 
	BYTE	W06
	BYTE		        Cn4 
	BYTE	W06
	BYTE		        Ds4 
	BYTE	W06
	BYTE	PEND
// 027   ----------------------------------------
	BYTE		        En3 
	BYTE	W06
	BYTE		        Gn3 
	BYTE	W06
	BYTE		        Bn3 
	BYTE	W06
	BYTE		        Dn4 
	BYTE	W06
	BYTE		        En3 
	BYTE	W06
	BYTE		        Gn3 
	BYTE	W06
	BYTE		        Bn3 
	BYTE	W06
	BYTE		        Dn4 
	BYTE	W06
	BYTE		        En3 
	BYTE	W06
	BYTE		        Gn3 
	BYTE	W06
	BYTE		        Bn3 
	BYTE	W06
	BYTE		        Dn4 
	BYTE	W06
	BYTE		        En3 
	BYTE	W06
	BYTE		        Gn3 
	BYTE	W06
	BYTE		        Bn3 
	BYTE	W06
	BYTE		        Dn4 
	BYTE	W06
// 028   ----------------------------------------
	BYTE	PATT
	 POIN2	Fellowship_FINAL_2_024
// 029   ----------------------------------------
	BYTE	PATT
	 POIN2	Fellowship_FINAL_2_025
// 030   ----------------------------------------
	BYTE	PATT
	 POIN2	Fellowship_FINAL_2_026
// 031   ----------------------------------------
	BYTE		N06     Cn3   v056
	BYTE	W06
	BYTE		        En3 
	BYTE	W06
	BYTE		        Gn3 
	BYTE	W06
	BYTE		        As3 
	BYTE	W06
	BYTE		        Cn4 
	BYTE	W06
	BYTE		        En4 
	BYTE	W06
	BYTE		        Gn4 
	BYTE	W06
	BYTE		        As4 
	BYTE	W06
	BYTE		N20     Cn5 
	BYTE	W44
	BYTE	W03
	BYTE	GoTo
	 POIN2	Fellowship_FINAL_2_B1
Fellowship_FINAL_2_B2:
	BYTE	FINE

//**************** Track 3 (Midi-Chn.3) ****************//

Fellowship_FINAL_3:
	BYTE	KEYSH   Fellowship_FINAL_key+0
Fellowship_FINAL_3_B1:
// 000   ----------------------------------------
	BYTE		VOICE   32
	BYTE		MODT    0
	BYTE		LFOS    44
	BYTE		VOL     127*Fellowship_FINAL_mvl/mxv
	BYTE		PAN     c_v+0
	BYTE	W96
// 001   ----------------------------------------
	BYTE	W96
// 002   ----------------------------------------
	BYTE	W96
// 003   ----------------------------------------
	BYTE	W96
// 004   ----------------------------------------
Fellowship_FINAL_3_004:
	BYTE		N32     Fn1   v127
	BYTE	W36
	BYTE		N11     An1 
	BYTE	W12
	BYTE		N32     Cn2 
	BYTE	W36
	BYTE		N11     Fn1 
	BYTE	W12
	BYTE	PEND
// 005   ----------------------------------------
Fellowship_FINAL_3_005:
	BYTE		N32     En1   v127
	BYTE	W36
	BYTE		N11     Gn1 
	BYTE	W12
	BYTE		N20     As1 
	BYTE	W24
	BYTE		N11     An1 
	BYTE	W12
	BYTE		        Gn1 
	BYTE	W12
	BYTE	PEND
// 006   ----------------------------------------
	BYTE	PATT
	 POIN2	Fellowship_FINAL_3_004
// 007   ----------------------------------------
	BYTE	PATT
	 POIN2	Fellowship_FINAL_3_005
// 008   ----------------------------------------
	BYTE	PATT
	 POIN2	Fellowship_FINAL_3_004
// 009   ----------------------------------------
	BYTE	PATT
	 POIN2	Fellowship_FINAL_3_005
// 010   ----------------------------------------
	BYTE	PATT
	 POIN2	Fellowship_FINAL_3_004
// 011   ----------------------------------------
	BYTE	PATT
	 POIN2	Fellowship_FINAL_3_005
// 012   ----------------------------------------
	BYTE	PATT
	 POIN2	Fellowship_FINAL_3_004
// 013   ----------------------------------------
	BYTE	PATT
	 POIN2	Fellowship_FINAL_3_005
// 014   ----------------------------------------
	BYTE	PATT
	 POIN2	Fellowship_FINAL_3_004
// 015   ----------------------------------------
	BYTE	PATT
	 POIN2	Fellowship_FINAL_3_005
// 016   ----------------------------------------
	BYTE		N32     Fn1   v127
	BYTE	W36
	BYTE		N11     As1 
	BYTE	W12
	BYTE		N32     Dn2 
	BYTE	W36
	BYTE		N11     As1 
	BYTE	W12
// 017   ----------------------------------------
	BYTE		N32     Gn1 
	BYTE	W36
	BYTE		N11     As1 
	BYTE	W12
	BYTE		N20     Dn2 
	BYTE	W24
	BYTE		N11     Cn2 
	BYTE	W12
	BYTE		        As1 
	BYTE	W12
// 018   ----------------------------------------
	BYTE		N32     Gn1 
	BYTE	W36
	BYTE		N11     As1 
	BYTE	W12
	BYTE		N32     Cn2 
	BYTE	W36
	BYTE		N11     En2 
	BYTE	W12
// 019   ----------------------------------------
	BYTE		N32     Fn2 
	BYTE	W36
	BYTE		N11     Dn2 
	BYTE	W12
	BYTE		        An1 
	BYTE	W12
	BYTE		        Fn1 
	BYTE	W12
	BYTE		        Gn1 
	BYTE	W12
	BYTE		        Fn1 
	BYTE	W12
// 020   ----------------------------------------
	BYTE		N32     Ds1 
	BYTE	W36
	BYTE		N11     Gn1 
	BYTE	W12
	BYTE		N32     Cn2 
	BYTE	W36
	BYTE		N11     Gn1 
	BYTE	W12
// 021   ----------------------------------------
	BYTE		N32     Dn1 
	BYTE	W36
	BYTE		N11     Gn1 
	BYTE	W12
	BYTE		N20     Bn1 
	BYTE	W24
	BYTE		N11     An1 
	BYTE	W12
	BYTE		        Gn1 
	BYTE	W12
// 022   ----------------------------------------
	BYTE		N32     En1 
	BYTE	W36
	BYTE		N11     An1 
	BYTE	W12
	BYTE		N32     Cn2 
	BYTE	W36
	BYTE		N11     An1 
	BYTE	W12
// 023   ----------------------------------------
	BYTE		N32     Gn1 
	BYTE	W36
	BYTE		N11     As1 
	BYTE	W12
	BYTE		        Cn2 
	BYTE	W12
	BYTE		        Dn2 
	BYTE	W12
	BYTE		        En2 
	BYTE	W12
	BYTE		        Cn2 
	BYTE	W12
// 024   ----------------------------------------
Fellowship_FINAL_3_024:
	BYTE		N42     Dn2   v127
	BYTE	W48
	BYTE		        An1 
	BYTE	W48
	BYTE	PEND
// 025   ----------------------------------------
	BYTE	PATT
	 POIN2	Fellowship_FINAL_3_024
// 026   ----------------------------------------
	BYTE		N42     As1   v127
	BYTE	W48
	BYTE		        Gn1 
	BYTE	W48
// 027   ----------------------------------------
	BYTE		        Bn1 
	BYTE	W48
	BYTE		N15     Gn1 
	BYTE	W16
	BYTE		        Fn1 
	BYTE	W16
	BYTE		        En1 
	BYTE	W16
// 028   ----------------------------------------
	BYTE		N32     Dn1 
	BYTE	W36
	BYTE		N11     Fn1 
	BYTE	W12
	BYTE		N42   
	BYTE	W48
// 029   ----------------------------------------
	BYTE		N32     Dn1 
	BYTE	W36
	BYTE		N11     Fs1 
	BYTE	W12
	BYTE		N20   
	BYTE	W24
	BYTE		N11     Gn1 
	BYTE	W12
	BYTE		        An1 
	BYTE	W12
// 030   ----------------------------------------
	BYTE		N32     Gn1 
	BYTE	W36
	BYTE		N11     As1 
	BYTE	W12
	BYTE		N42   
	BYTE	W48
// 031   ----------------------------------------
	BYTE		N20     Cn2 
	BYTE	W24
	BYTE		        As1 
	BYTE	W24
	BYTE		        An1 
	BYTE	W24
	BYTE		        Gn1 
	BYTE	W23
	BYTE	GoTo
	 POIN2	Fellowship_FINAL_3_B1
Fellowship_FINAL_3_B2:
	BYTE	FINE

//**************** Track 4 (Midi-Chn.4) ****************//

Fellowship_FINAL_4:
	BYTE	KEYSH   Fellowship_FINAL_key+0
Fellowship_FINAL_4_B1:
// 000   ----------------------------------------
	BYTE		VOICE   1
	BYTE		MODT    0
	BYTE		LFOS    44
	BYTE		VOL     127*Fellowship_FINAL_mvl/mxv
	BYTE		PAN     c_v+32
	BYTE		N20     Cn3   v056
	BYTE		N20     Fn3 
	BYTE	W24
	BYTE		        Cn3 
	BYTE		N20     Fn3 
	BYTE	W24
	BYTE		N11     Fn2 
	BYTE	W12
	BYTE		N04     Cn3 
	BYTE		N04     Fn3 
	BYTE	W24
	BYTE		N11     Cn3 
	BYTE		N11     Fn3 
	BYTE	W12
// 001   ----------------------------------------
Fellowship_FINAL_4_001:
	BYTE		N20     Cn3   v056
	BYTE		N20     En3 
	BYTE	W24
	BYTE		        Cn3 
	BYTE		N20     En3 
	BYTE	W24
	BYTE		N11     Cn2 
	BYTE	W12
	BYTE		N04     Cn3 
	BYTE		N04     En3 
	BYTE	W24
	BYTE		N11     Cn3 
	BYTE		N11     En3 
	BYTE	W12
	BYTE	PEND
// 002   ----------------------------------------
Fellowship_FINAL_4_002:
	BYTE		N20     Cn3   v056
	BYTE		N20     Fn3 
	BYTE	W24
	BYTE		        Cn3 
	BYTE		N20     Fn3 
	BYTE	W24
	BYTE		N11     Fn2 
	BYTE	W12
	BYTE		N04     Cn3 
	BYTE		N04     Fn3 
	BYTE	W24
	BYTE		N11     Cn3 
	BYTE		N11     Fn3 
	BYTE	W12
	BYTE	PEND
// 003   ----------------------------------------
	BYTE	PATT
	 POIN2	Fellowship_FINAL_4_001
// 004   ----------------------------------------
	BYTE	PATT
	 POIN2	Fellowship_FINAL_4_002
// 005   ----------------------------------------
	BYTE	PATT
	 POIN2	Fellowship_FINAL_4_001
// 006   ----------------------------------------
	BYTE	PATT
	 POIN2	Fellowship_FINAL_4_002
// 007   ----------------------------------------
	BYTE	PATT
	 POIN2	Fellowship_FINAL_4_001
// 008   ----------------------------------------
	BYTE	PATT
	 POIN2	Fellowship_FINAL_4_002
// 009   ----------------------------------------
	BYTE	PATT
	 POIN2	Fellowship_FINAL_4_001
// 010   ----------------------------------------
	BYTE	PATT
	 POIN2	Fellowship_FINAL_4_002
// 011   ----------------------------------------
	BYTE	PATT
	 POIN2	Fellowship_FINAL_4_001
// 012   ----------------------------------------
	BYTE	PATT
	 POIN2	Fellowship_FINAL_4_002
// 013   ----------------------------------------
	BYTE	PATT
	 POIN2	Fellowship_FINAL_4_001
// 014   ----------------------------------------
	BYTE	PATT
	 POIN2	Fellowship_FINAL_4_002
// 015   ----------------------------------------
	BYTE	PATT
	 POIN2	Fellowship_FINAL_4_001
// 016   ----------------------------------------
	BYTE		N20     Dn3   v056
	BYTE		N20     Fn3 
	BYTE	W24
	BYTE		        Dn3 
	BYTE		N20     Fn3 
	BYTE	W24
	BYTE		N11     As1 
	BYTE	W12
	BYTE		N04     Dn3 
	BYTE		N04     Fn3 
	BYTE	W24
	BYTE		N11     Dn3 
	BYTE		N11     Fn3 
	BYTE	W12
// 017   ----------------------------------------
	BYTE		N20     Dn3 
	BYTE		N20     Gn3 
	BYTE	W24
	BYTE		        Dn3 
	BYTE		N20     Gn3 
	BYTE	W24
	BYTE		N11     As1 
	BYTE	W12
	BYTE		N04     Dn3 
	BYTE		N04     Gn3 
	BYTE	W24
	BYTE		N11     Dn3 
	BYTE		N11     Gn3 
	BYTE	W12
// 018   ----------------------------------------
	BYTE	PATT
	 POIN2	Fellowship_FINAL_4_001
// 019   ----------------------------------------
	BYTE		N20     Dn3   v056
	BYTE		N20     Fn3 
	BYTE	W24
	BYTE		        Dn3 
	BYTE		N20     Fn3 
	BYTE	W24
	BYTE		N11     Dn2 
	BYTE	W12
	BYTE		N04     Dn3 
	BYTE		N04     Fn3 
	BYTE	W24
	BYTE		N11     Dn3 
	BYTE		N11     Fn3 
	BYTE	W12
// 020   ----------------------------------------
	BYTE		N20     Ds3 
	BYTE		N20     Gn3 
	BYTE	W24
	BYTE		        Ds3 
	BYTE		N20     Gn3 
	BYTE	W24
	BYTE		N11     Cn2 
	BYTE	W12
	BYTE		N04     Ds3 
	BYTE		N04     Gn3 
	BYTE	W24
	BYTE		N11     Ds3 
	BYTE		N11     Gn3 
	BYTE	W12
// 021   ----------------------------------------
	BYTE		N20     Dn3 
	BYTE		N20     Gn3 
	BYTE	W24
	BYTE		        Dn3 
	BYTE		N20     Gn3 
	BYTE	W24
	BYTE		N11     Bn1 
	BYTE	W12
	BYTE		N04     Dn3 
	BYTE		N04     Gn3 
	BYTE	W24
	BYTE		N11     Dn3 
	BYTE		N11     Gn3 
	BYTE	W12
// 022   ----------------------------------------
	BYTE		N20     En3 
	BYTE		N20     An3 
	BYTE	W24
	BYTE		        En3 
	BYTE		N20     An3 
	BYTE	W24
	BYTE		N11     En2 
	BYTE	W12
	BYTE		N04     En3 
	BYTE		N04     An3 
	BYTE	W24
	BYTE		N11     En3 
	BYTE		N11     An3 
	BYTE	W12
// 023   ----------------------------------------
	BYTE		N20     En3 
	BYTE		N20     Gn3 
	BYTE	W24
	BYTE		        En3 
	BYTE		N20     Gn3 
	BYTE	W24
	BYTE		N11     Cn2 
	BYTE	W12
	BYTE		N04     En3 
	BYTE		N04     Gn3 
	BYTE	W24
	BYTE		N11     En3 
	BYTE		N11     Gn3 
	BYTE	W12
// 024   ----------------------------------------
Fellowship_FINAL_4_024:
	BYTE		N06     Dn4   v056
	BYTE	W06
	BYTE		        An3 
	BYTE	W06
	BYTE		        Fn3 
	BYTE	W06
	BYTE		        Dn3 
	BYTE	W06
	BYTE		        Dn4 
	BYTE	W06
	BYTE		        An3 
	BYTE	W06
	BYTE		        Fn3 
	BYTE	W06
	BYTE		        Dn3 
	BYTE	W06
	BYTE		        Dn4 
	BYTE	W06
	BYTE		        An3 
	BYTE	W06
	BYTE		        Fn3 
	BYTE	W06
	BYTE		        Dn3 
	BYTE	W06
	BYTE		        Dn4 
	BYTE	W06
	BYTE		        An3 
	BYTE	W06
	BYTE		        Fn3 
	BYTE	W06
	BYTE		        Dn3 
	BYTE	W06
	BYTE	PEND
// 025   ----------------------------------------
Fellowship_FINAL_4_025:
	BYTE		N06     Dn4   v056
	BYTE	W06
	BYTE		        An3 
	BYTE	W06
	BYTE		        Fs3 
	BYTE	W06
	BYTE		        Dn3 
	BYTE	W06
	BYTE		        Dn4 
	BYTE	W06
	BYTE		        An3 
	BYTE	W06
	BYTE		        Fs3 
	BYTE	W06
	BYTE		        Dn3 
	BYTE	W06
	BYTE		        Dn4 
	BYTE	W06
	BYTE		        An3 
	BYTE	W06
	BYTE		        Fs3 
	BYTE	W06
	BYTE		        Dn3 
	BYTE	W06
	BYTE		        Dn4 
	BYTE	W06
	BYTE		        An3 
	BYTE	W06
	BYTE		        Fs3 
	BYTE	W06
	BYTE		        Dn3 
	BYTE	W06
	BYTE	PEND
// 026   ----------------------------------------
Fellowship_FINAL_4_026:
	BYTE		N06     Ds4   v056
	BYTE	W06
	BYTE		        Cn4 
	BYTE	W06
	BYTE		        Gn3 
	BYTE	W06
	BYTE		        Ds3 
	BYTE	W06
	BYTE		        Ds4 
	BYTE	W06
	BYTE		        Cn4 
	BYTE	W06
	BYTE		        Gn3 
	BYTE	W06
	BYTE		        Ds3 
	BYTE	W06
	BYTE		        Ds4 
	BYTE	W06
	BYTE		        Cn4 
	BYTE	W06
	BYTE		        Gn3 
	BYTE	W06
	BYTE		        Ds3 
	BYTE	W06
	BYTE		        Ds4 
	BYTE	W06
	BYTE		        Cn4 
	BYTE	W06
	BYTE		        Gn3 
	BYTE	W06
	BYTE		        Ds3 
	BYTE	W06
	BYTE	PEND
// 027   ----------------------------------------
	BYTE		        Dn4 
	BYTE	W06
	BYTE		        Bn3 
	BYTE	W06
	BYTE		        Gn3 
	BYTE	W06
	BYTE		        En3 
	BYTE	W06
	BYTE		        Dn4 
	BYTE	W06
	BYTE		        Bn3 
	BYTE	W06
	BYTE		        Gn3 
	BYTE	W06
	BYTE		        En3 
	BYTE	W06
	BYTE		        Dn4 
	BYTE	W06
	BYTE		        Bn3 
	BYTE	W06
	BYTE		        Gn3 
	BYTE	W06
	BYTE		        En3 
	BYTE	W06
	BYTE		        Dn4 
	BYTE	W06
	BYTE		        Bn3 
	BYTE	W06
	BYTE		        Gn3 
	BYTE	W06
	BYTE		        En3 
	BYTE	W06
// 028   ----------------------------------------
	BYTE	PATT
	 POIN2	Fellowship_FINAL_4_024
// 029   ----------------------------------------
	BYTE	PATT
	 POIN2	Fellowship_FINAL_4_025
// 030   ----------------------------------------
	BYTE	PATT
	 POIN2	Fellowship_FINAL_4_026
// 031   ----------------------------------------
	BYTE		N06     Cn5   v056
	BYTE	W06
	BYTE		        As4 
	BYTE	W06
	BYTE		        Gn4 
	BYTE	W06
	BYTE		        En4 
	BYTE	W06
	BYTE		        Cn4 
	BYTE	W06
	BYTE		        As3 
	BYTE	W06
	BYTE		        Gn3 
	BYTE	W06
	BYTE		        En3 
	BYTE	W06
	BYTE		N20     Cn3 
	BYTE	W44
	BYTE	W03
	BYTE	GoTo
	 POIN2	Fellowship_FINAL_4_B1
Fellowship_FINAL_4_B2:
	BYTE	FINE

//**************** Track 5 (Midi-Chn.5) ****************//

Fellowship_FINAL_5:
	BYTE	KEYSH   Fellowship_FINAL_key+0
Fellowship_FINAL_5_B1:
// 000   ----------------------------------------
	BYTE		VOICE   122
	BYTE		MODT    0
	BYTE		LFOS    44
	BYTE		VOL     127*Fellowship_FINAL_mvl/mxv
	BYTE		PAN     c_v+0
	BYTE	W96
// 001   ----------------------------------------
	BYTE	W96
// 002   ----------------------------------------
Fellowship_FINAL_5_002:
	BYTE		N20     Fn4   v127
	BYTE	W24
	BYTE		N11     En4 
	BYTE	W12
	BYTE		        Fn4 
	BYTE	W12
	BYTE		N11   
	BYTE	W12
	BYTE		N11   
	BYTE	W12
	BYTE		        En4 
	BYTE	W12
	BYTE		        Fn4 
	BYTE	W12
	BYTE	PEND
// 003   ----------------------------------------
Fellowship_FINAL_5_003:
	BYTE		N20     Fn4   v127
	BYTE	W24
	BYTE		N11     En4 
	BYTE	W12
	BYTE		        Fn4 
	BYTE	W12
	BYTE		N11   
	BYTE	W12
	BYTE		N11   
	BYTE	W12
	BYTE		        En4 
	BYTE	W12
	BYTE		        Cs3 
	BYTE		N11     Fn4 
	BYTE	W12
	BYTE	PEND
// 004   ----------------------------------------
Fellowship_FINAL_5_004:
	BYTE		N11     Cs3   v127
	BYTE		N11     Gn3 
	BYTE		N20     Fn4 
	BYTE	W12
	BYTE		N11     Cs3 
	BYTE	W12
	BYTE		        Cn3 
	BYTE		N11     Gs3 
	BYTE		N11     En4 
	BYTE	W12
	BYTE		        Cs3 
	BYTE		N11     Gn3 
	BYTE		N11     Fn4 
	BYTE	W12
	BYTE		        Cs3 
	BYTE		N11     Gs3 
	BYTE		N11     Fn4 
	BYTE	W12
	BYTE		N11   
	BYTE	W12
	BYTE		        Cn3 
	BYTE		N11     Fn3 
	BYTE		N11     Gn3 
	BYTE		N11     En4 
	BYTE	W12
	BYTE		        Cs3 
	BYTE		N11     Gs3 
	BYTE		N11     Fn4 
	BYTE	W12
	BYTE	PEND
// 005   ----------------------------------------
	BYTE	PATT
	 POIN2	Fellowship_FINAL_5_004
// 006   ----------------------------------------
	BYTE	PATT
	 POIN2	Fellowship_FINAL_5_004
// 007   ----------------------------------------
	BYTE	PATT
	 POIN2	Fellowship_FINAL_5_003
// 008   ----------------------------------------
	BYTE	PATT
	 POIN2	Fellowship_FINAL_5_004
// 009   ----------------------------------------
	BYTE	PATT
	 POIN2	Fellowship_FINAL_5_004
// 010   ----------------------------------------
	BYTE	PATT
	 POIN2	Fellowship_FINAL_5_004
// 011   ----------------------------------------
	BYTE	PATT
	 POIN2	Fellowship_FINAL_5_004
// 012   ----------------------------------------
	BYTE	PATT
	 POIN2	Fellowship_FINAL_5_004
// 013   ----------------------------------------
	BYTE	PATT
	 POIN2	Fellowship_FINAL_5_004
// 014   ----------------------------------------
	BYTE	PATT
	 POIN2	Fellowship_FINAL_5_004
// 015   ----------------------------------------
	BYTE	PATT
	 POIN2	Fellowship_FINAL_5_004
// 016   ----------------------------------------
	BYTE	PATT
	 POIN2	Fellowship_FINAL_5_004
// 017   ----------------------------------------
	BYTE	PATT
	 POIN2	Fellowship_FINAL_5_004
// 018   ----------------------------------------
	BYTE	PATT
	 POIN2	Fellowship_FINAL_5_004
// 019   ----------------------------------------
	BYTE	PATT
	 POIN2	Fellowship_FINAL_5_004
// 020   ----------------------------------------
	BYTE	PATT
	 POIN2	Fellowship_FINAL_5_004
// 021   ----------------------------------------
	BYTE	PATT
	 POIN2	Fellowship_FINAL_5_004
// 022   ----------------------------------------
	BYTE	PATT
	 POIN2	Fellowship_FINAL_5_004
// 023   ----------------------------------------
	BYTE	PATT
	 POIN2	Fellowship_FINAL_5_004
// 024   ----------------------------------------
	BYTE	PATT
	 POIN2	Fellowship_FINAL_5_002
// 025   ----------------------------------------
	BYTE	PATT
	 POIN2	Fellowship_FINAL_5_002
// 026   ----------------------------------------
	BYTE	PATT
	 POIN2	Fellowship_FINAL_5_002
// 027   ----------------------------------------
	BYTE	PATT
	 POIN2	Fellowship_FINAL_5_003
// 028   ----------------------------------------
	BYTE	PATT
	 POIN2	Fellowship_FINAL_5_004
// 029   ----------------------------------------
	BYTE	PATT
	 POIN2	Fellowship_FINAL_5_004
// 030   ----------------------------------------
	BYTE	PATT
	 POIN2	Fellowship_FINAL_5_004
// 031   ----------------------------------------
	BYTE		N11     Cs3   v127
	BYTE		N11     Gn3 
	BYTE		N20     Fn4 
	BYTE	W12
	BYTE		N11     Cs3 
	BYTE	W12
	BYTE		        Cn3 
	BYTE		N11     Gs3 
	BYTE		N11     En4 
	BYTE	W12
	BYTE		        Cs3 
	BYTE		N11     Gn3 
	BYTE		N11     Fn4 
	BYTE	W12
	BYTE		        Cs3 
	BYTE		N11     Gs3 
	BYTE		N11     Fn4 
	BYTE	W12
	BYTE		N11   
	BYTE	W12
	BYTE		        Cn3 
	BYTE		N11     Fn3 
	BYTE		N11     Gn3 
	BYTE		N11     En4 
	BYTE	W12
	BYTE		        Cs3 
	BYTE		N11     Gs3 
	BYTE		N11     Fn4 
	BYTE	W11
	BYTE	GoTo
	 POIN2	Fellowship_FINAL_5_B1
Fellowship_FINAL_5_B2:
	BYTE	FINE

//**************** Track 6 (Midi-Chn.6) ****************//

Fellowship_FINAL_6:
	BYTE	KEYSH   Fellowship_FINAL_key+0
Fellowship_FINAL_6_B1:
// 000   ----------------------------------------
	BYTE		VOICE   124
	BYTE		MODT    0
	BYTE		LFOS    44
	BYTE		VOL     127*Fellowship_FINAL_mvl/mxv
	BYTE		PAN     c_v+0
	BYTE	W96
// 001   ----------------------------------------
	BYTE	W96
// 002   ----------------------------------------
	BYTE	W96
// 003   ----------------------------------------
	BYTE	W96
// 004   ----------------------------------------
	BYTE	W96
// 005   ----------------------------------------
	BYTE	W96
// 006   ----------------------------------------
	BYTE	W96
// 007   ----------------------------------------
Fellowship_FINAL_6_007:
	BYTE	W60
	BYTE		N05     Fs1   v127
	BYTE	W06
	BYTE		        Gs1 
	BYTE	W06
	BYTE		N11     Cn1 
	BYTE		N11     As1 
	BYTE	W12
	BYTE		        Cn1 
	BYTE	W12
	BYTE	PEND
// 008   ----------------------------------------
Fellowship_FINAL_6_008:
	BYTE		N20     Cn1   v127
	BYTE		N20     Fs1 
	BYTE	W24
	BYTE		N11     Cs1 
	BYTE		N11     Gs1 
	BYTE	W12
	BYTE		        Cn1 
	BYTE		N11     Fs1 
	BYTE	W12
	BYTE		N20     Cn1 
	BYTE		N20     Fs1 
	BYTE	W24
	BYTE		N11     Cs1 
	BYTE		N11     Gs1 
	BYTE	W12
	BYTE		        As1 
	BYTE	W12
	BYTE	PEND
// 009   ----------------------------------------
	BYTE	PATT
	 POIN2	Fellowship_FINAL_6_008
// 010   ----------------------------------------
	BYTE	PATT
	 POIN2	Fellowship_FINAL_6_008
// 011   ----------------------------------------
	BYTE	PATT
	 POIN2	Fellowship_FINAL_6_008
// 012   ----------------------------------------
	BYTE	PATT
	 POIN2	Fellowship_FINAL_6_008
// 013   ----------------------------------------
	BYTE	PATT
	 POIN2	Fellowship_FINAL_6_008
// 014   ----------------------------------------
	BYTE	PATT
	 POIN2	Fellowship_FINAL_6_008
// 015   ----------------------------------------
	BYTE	PATT
	 POIN2	Fellowship_FINAL_6_008
// 016   ----------------------------------------
	BYTE	PATT
	 POIN2	Fellowship_FINAL_6_008
// 017   ----------------------------------------
	BYTE	PATT
	 POIN2	Fellowship_FINAL_6_008
// 018   ----------------------------------------
	BYTE	PATT
	 POIN2	Fellowship_FINAL_6_008
// 019   ----------------------------------------
	BYTE	PATT
	 POIN2	Fellowship_FINAL_6_008
// 020   ----------------------------------------
	BYTE	PATT
	 POIN2	Fellowship_FINAL_6_008
// 021   ----------------------------------------
	BYTE	PATT
	 POIN2	Fellowship_FINAL_6_008
// 022   ----------------------------------------
	BYTE	PATT
	 POIN2	Fellowship_FINAL_6_008
// 023   ----------------------------------------
	BYTE	PATT
	 POIN2	Fellowship_FINAL_6_008
// 024   ----------------------------------------
	BYTE		N90     An2   v127
	BYTE	W96
// 025   ----------------------------------------
	BYTE	W96
// 026   ----------------------------------------
	BYTE	W96
// 027   ----------------------------------------
	BYTE	PATT
	 POIN2	Fellowship_FINAL_6_007
// 028   ----------------------------------------
	BYTE	PATT
	 POIN2	Fellowship_FINAL_6_008
// 029   ----------------------------------------
	BYTE	PATT
	 POIN2	Fellowship_FINAL_6_008
// 030   ----------------------------------------
	BYTE	PATT
	 POIN2	Fellowship_FINAL_6_008
// 031   ----------------------------------------
	BYTE		N20     Cn1   v127
	BYTE		N20     Fs1 
	BYTE	W24
	BYTE		N11     Cs1 
	BYTE		N11     Gs1 
	BYTE	W12
	BYTE		        Cn1 
	BYTE		N11     Fs1 
	BYTE	W12
	BYTE		        Cn1 
	BYTE		N11     Fs1 
	BYTE	W12
	BYTE		        Cs1 
	BYTE		N11     Gs1 
	BYTE	W12
	BYTE		N20     As1 
	BYTE	W23
	BYTE	GoTo
	 POIN2	Fellowship_FINAL_6_B1
Fellowship_FINAL_6_B2:
	BYTE	FINE

//******************************************************//
	ALIGN 4

Fellowship_FINAL:
	BYTE	6	// NumTrks
	BYTE	0	// NumBlks
	BYTE	Fellowship_FINAL_pri	// Priority
	BYTE	Fellowship_FINAL_rev	// Reverb.

	POIN2	Fellowship_FINAL_grp

	POIN2	Fellowship_FINAL_1
	POIN2	Fellowship_FINAL_2
	POIN2	Fellowship_FINAL_3
	POIN2	Fellowship_FINAL_4
	POIN2	Fellowship_FINAL_5
	POIN2	Fellowship_FINAL_6

	
