//Event file generated from Sappy .s format.
	#include "MPlayDef.event"

	#define	FinalMapTheme_grp  voicegroup000
	#define	FinalMapTheme_pri  0
	#define	FinalMapTheme_rev  0xA0
	#define	FinalMapTheme_mvl  34
	#define	FinalMapTheme_key  0
	#define	FinalMapTheme_tbs  1
	#define	FinalMapTheme_exg  0
	#define	FinalMapTheme_cmp  1

	// .rodata
	//	FinalMapTheme
	ALIGN 4

//**************** Track 1 (Midi-Chn.3) ****************//

FinalMapTheme_1:
	BYTE	KEYSH   FinalMapTheme_key+0
FinalMapTheme_1_B1:
// 000   ----------------------------------------
	BYTE	TEMPO   140*FinalMapTheme_tbs/2
	BYTE		VOICE   52
	BYTE		MODT    0
	BYTE		LFOS    44
	BYTE		VOL     112*FinalMapTheme_mvl/mxv
	BYTE		PAN     c_v-19
	BYTE	W96
// 001   ----------------------------------------
	BYTE	W96
// 002   ----------------------------------------
	BYTE	W96
// 003   ----------------------------------------
	BYTE	W96
// 004   ----------------------------------------
	BYTE		N96     Cn1   v100
	BYTE		N96     Cn2 
	BYTE	W96
// 005   ----------------------------------------
	BYTE		        As0 
	BYTE		N96     As1 
	BYTE	W96
// 006   ----------------------------------------
	BYTE		        Cn1 
	BYTE		N96     Cn2 
	BYTE	W96
// 007   ----------------------------------------
	BYTE		N90     As0 
	BYTE		N90     As1 
	BYTE	W96
// 008   ----------------------------------------
	BYTE		N48     Cn5 
	BYTE	W48
	BYTE		N12     Gn5 
	BYTE	W12
	BYTE		        Fn5 
	BYTE	W12
	BYTE		        Ds5 
	BYTE	W12
	BYTE		N60     Fn5 
	BYTE	W12
// 009   ----------------------------------------
	BYTE	W48
	BYTE		N12     Dn5 
	BYTE	W12
	BYTE		        Ds5 
	BYTE	W12
	BYTE		        Fn5 
	BYTE	W12
	BYTE		        As5 
	BYTE	W12
// 010   ----------------------------------------
	BYTE		N48     Gn5 
	BYTE	W48
	BYTE		N12     Ds5 
	BYTE	W12
	BYTE		        Dn5 
	BYTE	W12
	BYTE		        Ds5 
	BYTE	W12
	BYTE		N60     Fn5 
	BYTE	W12
// 011   ----------------------------------------
	BYTE	W48
	BYTE		N48     Gn5 
	BYTE	W48
// 012   ----------------------------------------
	BYTE		        Ds5 
	BYTE	W48
	BYTE		N12   
	BYTE	W12
	BYTE		        Dn5 
	BYTE	W12
	BYTE		        Cn5 
	BYTE	W12
	BYTE		N60     Dn5 
	BYTE	W12
// 013   ----------------------------------------
	BYTE	W48
	BYTE		N48     Ds5 
	BYTE	W48
// 014   ----------------------------------------
	BYTE		        Cn5 
	BYTE	W48
	BYTE		TIE     Gn4 
	BYTE	W48
// 015   ----------------------------------------
	BYTE	W90
	BYTE		EOT   
	BYTE	W06
// 016   ----------------------------------------
	BYTE		N36     Gn5 
	BYTE	W36
	BYTE		        Ds5 
	BYTE	W36
	BYTE		N24     Fn5 
	BYTE	W24
// 017   ----------------------------------------
	BYTE		N12     Gn5 
	BYTE	W12
	BYTE		        Gs5 
	BYTE	W12
	BYTE		        Gn5 
	BYTE	W12
	BYTE		N24     Fn5 
	BYTE	W24
	BYTE		N12     Ds5 
	BYTE	W12
	BYTE		        Dn5 
	BYTE	W12
	BYTE		        Ds5 
	BYTE	W12
// 018   ----------------------------------------
	BYTE		N36     Fn5 
	BYTE	W36
	BYTE		        As4 
	BYTE	W36
	BYTE		N24     Ds5 
	BYTE	W24
// 019   ----------------------------------------
	BYTE		N48     Dn5 
	BYTE	W48
	BYTE		        As4 
	BYTE	W48
// 020   ----------------------------------------
	BYTE		N12     Cn5 
	BYTE	W12
	BYTE		        As4 
	BYTE	W12
	BYTE		        Cn5 
	BYTE	W12
	BYTE		N60     Ds5 
	BYTE	W60
// 021   ----------------------------------------
	BYTE		N12     Fn5 
	BYTE	W12
	BYTE		        Dn5 
	BYTE	W12
	BYTE		        Fn5 
	BYTE	W12
	BYTE		N36     Gs5 
	BYTE	W36
	BYTE		N12     Gn5 
	BYTE	W12
	BYTE		        Fn5 
	BYTE	W12
// 022   ----------------------------------------
	BYTE		N96     Ds5 
	BYTE	W96
// 023   ----------------------------------------
	BYTE		N90     Dn5 
	BYTE	W96
// 024   ----------------------------------------
	BYTE	W96
// 025   ----------------------------------------
	BYTE	W96
// 026   ----------------------------------------
	BYTE	W96
// 027   ----------------------------------------
	BYTE	W96
// 028   ----------------------------------------
	BYTE	W96
// 029   ----------------------------------------
	BYTE	W96
// 030   ----------------------------------------
	BYTE	W96
// 031   ----------------------------------------
	BYTE	W96
// 032   ----------------------------------------
	BYTE		N96     Cn1 
	BYTE		N96     Cn2 
	BYTE	W96
// 033   ----------------------------------------
	BYTE		        As0 
	BYTE		N96     As1 
	BYTE	W96
// 034   ----------------------------------------
	BYTE		        Cn1 
	BYTE		N96     Cn2 
	BYTE	W96
// 035   ----------------------------------------
	BYTE		        As0 
	BYTE		N96     As1 
	BYTE	W96
// 036   ----------------------------------------
	BYTE		        Cn1 
	BYTE		N96     Cn2 
	BYTE	W96
// 037   ----------------------------------------
	BYTE		        As0 
	BYTE		N96     As1 
	BYTE	W96
// 038   ----------------------------------------
	BYTE		        Cn1 
	BYTE		N96     Cn2 
	BYTE	W96
// 039   ----------------------------------------
	BYTE		N90     As0 
	BYTE		N90     As1 
	BYTE	W96
// 040   ----------------------------------------
FinalMapTheme_1_040:
	BYTE		N32     Cn5   v100
	BYTE	W36
	BYTE		N05     As4 
	BYTE	W06
	BYTE		        Cn5 
	BYTE	W06
	BYTE		N15     Gs4 
	BYTE	W16
	BYTE		        Gn4 
	BYTE	W16
	BYTE		        Fn4 
	BYTE	W16
	BYTE	PEND
// 041   ----------------------------------------
FinalMapTheme_1_041:
	BYTE		N42     Gs4   v100
	BYTE	W48
	BYTE		N20     As4 
	BYTE	W24
	BYTE		        Cn5 
	BYTE	W24
	BYTE	PEND
// 042   ----------------------------------------
	BYTE		N32     Cs5 
	BYTE	W36
	BYTE		N05     As4 
	BYTE	W06
	BYTE		        Cn5 
	BYTE	W06
	BYTE		N15     Cs5 
	BYTE	W16
	BYTE		        Cn5 
	BYTE	W16
	BYTE		        As4 
	BYTE	W16
// 043   ----------------------------------------
FinalMapTheme_1_043:
	BYTE		N42     Cn5   v100
	BYTE	W48
	BYTE		        As4 
	BYTE	W48
	BYTE	PEND
// 044   ----------------------------------------
FinalMapTheme_1_044:
	BYTE		N15     Gs4   v100
	BYTE	W16
	BYTE		        Gn4 
	BYTE	W16
	BYTE		        Fn4 
	BYTE	W16
	BYTE		N42     Gs4 
	BYTE	W48
	BYTE	PEND
// 045   ----------------------------------------
FinalMapTheme_1_045:
	BYTE		N15     Gn4   v100
	BYTE	W16
	BYTE		        Fn4 
	BYTE	W16
	BYTE		        Ds4 
	BYTE	W16
	BYTE		        Gn4 
	BYTE	W16
	BYTE		        Gs4 
	BYTE	W16
	BYTE		        As4 
	BYTE	W16
	BYTE	PEND
// 046   ----------------------------------------
	BYTE		N42     Cn5 
	BYTE	W48
	BYTE		        Cs5 
	BYTE	W48
// 047   ----------------------------------------
	BYTE		        Ds5 
	BYTE	W48
	BYTE		        Cs5 
	BYTE	W48
// 048   ----------------------------------------
	BYTE	PATT
	 POIN2	FinalMapTheme_1_040
// 049   ----------------------------------------
	BYTE	PATT
	 POIN2	FinalMapTheme_1_041
// 050   ----------------------------------------
	BYTE		N32     Dn5   v100
	BYTE	W36
	BYTE		N05     As4 
	BYTE	W06
	BYTE		        Cn5 
	BYTE	W06
	BYTE		N15     Dn5 
	BYTE	W16
	BYTE		        Cn5 
	BYTE	W16
	BYTE		        As4 
	BYTE	W16
// 051   ----------------------------------------
	BYTE	PATT
	 POIN2	FinalMapTheme_1_043
// 052   ----------------------------------------
	BYTE	PATT
	 POIN2	FinalMapTheme_1_044
// 053   ----------------------------------------
	BYTE	PATT
	 POIN2	FinalMapTheme_1_045
// 054   ----------------------------------------
	BYTE		N42     Cn5   v100
	BYTE	W48
	BYTE		        Dn5 
	BYTE	W48
// 055   ----------------------------------------
	BYTE		        Ds5 
	BYTE	W48
	BYTE		        Dn5 
	BYTE	W48
	BYTE	GoTo
	 POIN2	FinalMapTheme_1_B1
FinalMapTheme_1_B2:
// 056   ----------------------------------------
	BYTE	FINE

//**************** Track 2 (Midi-Chn.4) ****************//

FinalMapTheme_2:
	BYTE	KEYSH   FinalMapTheme_key+0
FinalMapTheme_2_B1:
// 000   ----------------------------------------
	BYTE		VOICE   100
	BYTE		MODT    0
	BYTE		LFOS    44
	BYTE		PAN     c_v-39
	BYTE		VOL     127*FinalMapTheme_mvl/mxv
	BYTE	W12
	BYTE		N11     Cn3   v076
	BYTE	W12
	BYTE		        Ds3 
	BYTE	W12
	BYTE		N20   
	BYTE		N20     Gn3 
	BYTE		N20     As3 
	BYTE	W24
	BYTE		        Ds3 
	BYTE		N20     Gn3 
	BYTE		N20     As3 
	BYTE	W24
	BYTE		N04     Ds3 
	BYTE		N04     Gn3 
	BYTE		N04     As3 
	BYTE	W06
	BYTE		        Ds3 
	BYTE		N04     Gn3 
	BYTE		N04     As3 
	BYTE	W06
// 001   ----------------------------------------
FinalMapTheme_2_001:
	BYTE	W12
	BYTE		N11     As2   v076
	BYTE	W12
	BYTE		        Dn3 
	BYTE	W12
	BYTE		N20     Fn3 
	BYTE		N20     Gn3 
	BYTE		N20     As3 
	BYTE	W24
	BYTE		        Fn3 
	BYTE		N20     Gn3 
	BYTE		N20     As3 
	BYTE	W24
	BYTE		N04     Fn3 
	BYTE		N04     Gn3 
	BYTE		N04     As3 
	BYTE	W06
	BYTE		        Fn3 
	BYTE		N04     Gn3 
	BYTE		N04     As3 
	BYTE	W06
	BYTE	PEND
// 002   ----------------------------------------
FinalMapTheme_2_002:
	BYTE	W12
	BYTE		N11     Cn3   v076
	BYTE	W12
	BYTE		        Ds3 
	BYTE	W12
	BYTE		N20   
	BYTE		N20     Gn3 
	BYTE		N20     As3 
	BYTE	W24
	BYTE		        Ds3 
	BYTE		N20     Gn3 
	BYTE		N20     As3 
	BYTE	W24
	BYTE		N04     Ds3 
	BYTE		N04     Gn3 
	BYTE		N04     As3 
	BYTE	W06
	BYTE		        Ds3 
	BYTE		N04     Gn3 
	BYTE		N04     As3 
	BYTE	W06
	BYTE	PEND
// 003   ----------------------------------------
	BYTE	PATT
	 POIN2	FinalMapTheme_2_001
// 004   ----------------------------------------
	BYTE	PATT
	 POIN2	FinalMapTheme_2_002
// 005   ----------------------------------------
	BYTE	PATT
	 POIN2	FinalMapTheme_2_001
// 006   ----------------------------------------
	BYTE	PATT
	 POIN2	FinalMapTheme_2_002
// 007   ----------------------------------------
	BYTE	PATT
	 POIN2	FinalMapTheme_2_001
// 008   ----------------------------------------
	BYTE	W96
// 009   ----------------------------------------
	BYTE	W96
// 010   ----------------------------------------
	BYTE	W96
// 011   ----------------------------------------
	BYTE	W96
// 012   ----------------------------------------
	BYTE	W96
// 013   ----------------------------------------
	BYTE	W96
// 014   ----------------------------------------
	BYTE	W96
// 015   ----------------------------------------
	BYTE	W96
// 016   ----------------------------------------
	BYTE	W96
// 017   ----------------------------------------
	BYTE	W96
// 018   ----------------------------------------
	BYTE	W96
// 019   ----------------------------------------
	BYTE	W96
// 020   ----------------------------------------
	BYTE	W96
// 021   ----------------------------------------
	BYTE	W96
// 022   ----------------------------------------
	BYTE	W96
// 023   ----------------------------------------
	BYTE	W96
// 024   ----------------------------------------
	BYTE	PATT
	 POIN2	FinalMapTheme_2_002
// 025   ----------------------------------------
	BYTE	PATT
	 POIN2	FinalMapTheme_2_001
// 026   ----------------------------------------
	BYTE	PATT
	 POIN2	FinalMapTheme_2_002
// 027   ----------------------------------------
	BYTE	PATT
	 POIN2	FinalMapTheme_2_001
// 028   ----------------------------------------
	BYTE	PATT
	 POIN2	FinalMapTheme_2_002
// 029   ----------------------------------------
	BYTE	PATT
	 POIN2	FinalMapTheme_2_001
// 030   ----------------------------------------
	BYTE	PATT
	 POIN2	FinalMapTheme_2_002
// 031   ----------------------------------------
	BYTE	PATT
	 POIN2	FinalMapTheme_2_001
// 032   ----------------------------------------
	BYTE	PATT
	 POIN2	FinalMapTheme_2_002
// 033   ----------------------------------------
	BYTE	PATT
	 POIN2	FinalMapTheme_2_001
// 034   ----------------------------------------
	BYTE	PATT
	 POIN2	FinalMapTheme_2_002
// 035   ----------------------------------------
	BYTE	PATT
	 POIN2	FinalMapTheme_2_001
// 036   ----------------------------------------
	BYTE	PATT
	 POIN2	FinalMapTheme_2_002
// 037   ----------------------------------------
	BYTE	PATT
	 POIN2	FinalMapTheme_2_001
// 038   ----------------------------------------
	BYTE	PATT
	 POIN2	FinalMapTheme_2_002
// 039   ----------------------------------------
	BYTE	PATT
	 POIN2	FinalMapTheme_2_001
// 040   ----------------------------------------
	BYTE	W96
// 041   ----------------------------------------
	BYTE	W96
// 042   ----------------------------------------
	BYTE	W96
// 043   ----------------------------------------
	BYTE	W96
// 044   ----------------------------------------
	BYTE	W96
// 045   ----------------------------------------
	BYTE	W96
// 046   ----------------------------------------
	BYTE	W96
// 047   ----------------------------------------
	BYTE	W96
// 048   ----------------------------------------
	BYTE	W96
// 049   ----------------------------------------
	BYTE	W96
// 050   ----------------------------------------
	BYTE	W96
// 051   ----------------------------------------
	BYTE	W96
// 052   ----------------------------------------
	BYTE	W96
// 053   ----------------------------------------
	BYTE	W96
// 054   ----------------------------------------
	BYTE	W96
// 055   ----------------------------------------
	BYTE	W96
	BYTE	GoTo
	 POIN2	FinalMapTheme_2_B1
FinalMapTheme_2_B2:
// 056   ----------------------------------------
	BYTE	FINE

//**************** Track 3 (Midi-Chn.5) ****************//

FinalMapTheme_3:
	BYTE	KEYSH   FinalMapTheme_key+0
FinalMapTheme_3_B1:
// 000   ----------------------------------------
	BYTE		VOICE   73
	BYTE		MODT    0
	BYTE		LFOS    44
	BYTE		PAN     c_v-14
	BYTE		VOL     98*FinalMapTheme_mvl/mxv
	BYTE	W96
// 001   ----------------------------------------
	BYTE	W96
// 002   ----------------------------------------
	BYTE	W96
// 003   ----------------------------------------
	BYTE	W96
// 004   ----------------------------------------
	BYTE	W96
// 005   ----------------------------------------
	BYTE	W96
// 006   ----------------------------------------
	BYTE	W96
// 007   ----------------------------------------
	BYTE	W96
// 008   ----------------------------------------
	BYTE		N48     Gn4   v127
	BYTE	W48
	BYTE		N24     An4 
	BYTE	W24
	BYTE		        As4 
	BYTE	W24
// 009   ----------------------------------------
	BYTE		N72     An4 
	BYTE	W72
	BYTE		N24     Fn4 
	BYTE	W24
// 010   ----------------------------------------
	BYTE		N48     Cn4 
	BYTE	W48
	BYTE		        An4 
	BYTE	W48
// 011   ----------------------------------------
	BYTE		N24   
	BYTE	W24
	BYTE		        As4 
	BYTE	W24
	BYTE		N90     Gn4 
	BYTE	W48
// 012   ----------------------------------------
	BYTE	W48
	BYTE		N24     Fn4 
	BYTE	W24
	BYTE		        Ds4 
	BYTE	W24
// 013   ----------------------------------------
	BYTE		N72     Dn4 
	BYTE	W72
	BYTE		N24     En4 
	BYTE	W24
// 014   ----------------------------------------
	BYTE		N48     Fs4 
	BYTE	W48
	BYTE		N24     En4 
	BYTE	W24
	BYTE		        Dn4 
	BYTE	W24
// 015   ----------------------------------------
	BYTE		N96     En4 
	BYTE	W96
// 016   ----------------------------------------
	BYTE		N90     Gn4 
	BYTE	W96
// 017   ----------------------------------------
	BYTE		N24     An4 
	BYTE	W24
	BYTE		        Cn4 
	BYTE	W24
	BYTE		N24   
	BYTE	W24
	BYTE		        Fn4 
	BYTE	W24
// 018   ----------------------------------------
	BYTE		        An4 
	BYTE	W24
	BYTE		        As4 
	BYTE	W24
	BYTE		        Cn5 
	BYTE	W24
	BYTE		        Fn5 
	BYTE	W24
// 019   ----------------------------------------
	BYTE		N90   
	BYTE	W96
// 020   ----------------------------------------
	BYTE		N48     Ds5 
	BYTE	W48
	BYTE		N24     Dn5 
	BYTE	W24
	BYTE		N12     Cn5 
	BYTE	W12
	BYTE		        As4 
	BYTE	W12
// 021   ----------------------------------------
	BYTE		N48     An4 
	BYTE	W48
	BYTE		        Gn4 
	BYTE	W48
// 022   ----------------------------------------
	BYTE		N24     Fn4 
	BYTE	W24
	BYTE		        Ds4 
	BYTE	W24
	BYTE		N48     Cs4 
	BYTE	W48
// 023   ----------------------------------------
	BYTE		N24     En4 
	BYTE	W24
	BYTE		        Fn4 
	BYTE	W24
	BYTE		        Gn4 
	BYTE	W24
	BYTE		        An4 
	BYTE	W24
// 024   ----------------------------------------
	BYTE	W96
// 025   ----------------------------------------
	BYTE	W96
// 026   ----------------------------------------
	BYTE	W96
// 027   ----------------------------------------
	BYTE	W96
// 028   ----------------------------------------
	BYTE	W96
// 029   ----------------------------------------
	BYTE	W96
// 030   ----------------------------------------
	BYTE	W96
// 031   ----------------------------------------
	BYTE	W96
// 032   ----------------------------------------
	BYTE	W96
// 033   ----------------------------------------
	BYTE	W96
// 034   ----------------------------------------
	BYTE	W96
// 035   ----------------------------------------
	BYTE	W96
// 036   ----------------------------------------
	BYTE	W96
// 037   ----------------------------------------
	BYTE	W96
// 038   ----------------------------------------
	BYTE	W96
// 039   ----------------------------------------
	BYTE	W96
// 040   ----------------------------------------
	BYTE	W96
// 041   ----------------------------------------
	BYTE	W96
// 042   ----------------------------------------
	BYTE	W96
// 043   ----------------------------------------
	BYTE	W96
// 044   ----------------------------------------
	BYTE	W96
// 045   ----------------------------------------
	BYTE	W96
// 046   ----------------------------------------
	BYTE	W96
// 047   ----------------------------------------
	BYTE	W96
// 048   ----------------------------------------
	BYTE	W96
// 049   ----------------------------------------
	BYTE	W96
// 050   ----------------------------------------
	BYTE	W96
// 051   ----------------------------------------
	BYTE	W96
// 052   ----------------------------------------
	BYTE	W96
// 053   ----------------------------------------
	BYTE	W96
// 054   ----------------------------------------
	BYTE	W96
// 055   ----------------------------------------
	BYTE	W96
	BYTE	GoTo
	 POIN2	FinalMapTheme_3_B1
FinalMapTheme_3_B2:
// 056   ----------------------------------------
	BYTE	FINE

//**************** Track 4 (Midi-Chn.6) ****************//

FinalMapTheme_4:
	BYTE	KEYSH   FinalMapTheme_key+0
FinalMapTheme_4_B1:
// 000   ----------------------------------------
	BYTE		VOICE   30
	BYTE		MODT    0
	BYTE		LFOS    44
	BYTE		VOL     112*FinalMapTheme_mvl/mxv
	BYTE		PAN     c_v+11
	BYTE	W96
// 001   ----------------------------------------
	BYTE	W96
// 002   ----------------------------------------
	BYTE	W96
// 003   ----------------------------------------
	BYTE	W96
// 004   ----------------------------------------
	BYTE	W96
// 005   ----------------------------------------
	BYTE	W96
// 006   ----------------------------------------
	BYTE	W96
// 007   ----------------------------------------
	BYTE	W96
// 008   ----------------------------------------
FinalMapTheme_4_008:
	BYTE		N20     Cn1   v127
	BYTE	W24
	BYTE		N17   
	BYTE	W18
	BYTE		N05     Fn0 
	BYTE	W06
	BYTE		N11     Gn0 
	BYTE	W12
	BYTE		        Cn1 
	BYTE	W24
	BYTE		N11   
	BYTE	W12
	BYTE	PEND
// 009   ----------------------------------------
FinalMapTheme_4_009:
	BYTE		N20     As0   v127
	BYTE	W24
	BYTE		N17   
	BYTE	W18
	BYTE		N05     Ds0 
	BYTE	W06
	BYTE		N11     Fn0 
	BYTE	W12
	BYTE		        As0 
	BYTE	W24
	BYTE		N11   
	BYTE	W12
	BYTE	PEND
// 010   ----------------------------------------
	BYTE	PATT
	 POIN2	FinalMapTheme_4_008
// 011   ----------------------------------------
	BYTE	PATT
	 POIN2	FinalMapTheme_4_009
// 012   ----------------------------------------
	BYTE	PATT
	 POIN2	FinalMapTheme_4_008
// 013   ----------------------------------------
	BYTE	PATT
	 POIN2	FinalMapTheme_4_009
// 014   ----------------------------------------
	BYTE	PATT
	 POIN2	FinalMapTheme_4_008
// 015   ----------------------------------------
	BYTE	PATT
	 POIN2	FinalMapTheme_4_009
// 016   ----------------------------------------
	BYTE	PATT
	 POIN2	FinalMapTheme_4_008
// 017   ----------------------------------------
	BYTE	PATT
	 POIN2	FinalMapTheme_4_009
// 018   ----------------------------------------
	BYTE	PATT
	 POIN2	FinalMapTheme_4_008
// 019   ----------------------------------------
	BYTE	PATT
	 POIN2	FinalMapTheme_4_009
// 020   ----------------------------------------
	BYTE	PATT
	 POIN2	FinalMapTheme_4_008
// 021   ----------------------------------------
	BYTE	PATT
	 POIN2	FinalMapTheme_4_009
// 022   ----------------------------------------
	BYTE	PATT
	 POIN2	FinalMapTheme_4_008
// 023   ----------------------------------------
	BYTE	PATT
	 POIN2	FinalMapTheme_4_009
// 024   ----------------------------------------
	BYTE	PATT
	 POIN2	FinalMapTheme_4_008
// 025   ----------------------------------------
	BYTE	PATT
	 POIN2	FinalMapTheme_4_009
// 026   ----------------------------------------
	BYTE	PATT
	 POIN2	FinalMapTheme_4_008
// 027   ----------------------------------------
	BYTE	PATT
	 POIN2	FinalMapTheme_4_009
// 028   ----------------------------------------
	BYTE	PATT
	 POIN2	FinalMapTheme_4_008
// 029   ----------------------------------------
	BYTE	PATT
	 POIN2	FinalMapTheme_4_009
// 030   ----------------------------------------
	BYTE	PATT
	 POIN2	FinalMapTheme_4_008
// 031   ----------------------------------------
	BYTE	PATT
	 POIN2	FinalMapTheme_4_009
// 032   ----------------------------------------
	BYTE	PATT
	 POIN2	FinalMapTheme_4_008
// 033   ----------------------------------------
	BYTE	PATT
	 POIN2	FinalMapTheme_4_009
// 034   ----------------------------------------
	BYTE	PATT
	 POIN2	FinalMapTheme_4_008
// 035   ----------------------------------------
	BYTE	PATT
	 POIN2	FinalMapTheme_4_009
// 036   ----------------------------------------
	BYTE	PATT
	 POIN2	FinalMapTheme_4_008
// 037   ----------------------------------------
	BYTE	PATT
	 POIN2	FinalMapTheme_4_009
// 038   ----------------------------------------
	BYTE	PATT
	 POIN2	FinalMapTheme_4_008
// 039   ----------------------------------------
	BYTE	PATT
	 POIN2	FinalMapTheme_4_009
// 040   ----------------------------------------
	BYTE		N20     Gs0   v127
	BYTE	W24
	BYTE		N17   
	BYTE	W18
	BYTE		N05     Cs0 
	BYTE	W06
	BYTE		N11     Ds0 
	BYTE	W12
	BYTE		        Gs0 
	BYTE	W24
	BYTE		N11   
	BYTE	W12
// 041   ----------------------------------------
FinalMapTheme_4_041:
	BYTE		N20     Gs0   v127
	BYTE	W24
	BYTE		N17   
	BYTE	W18
	BYTE		N05     Ds0 
	BYTE	W06
	BYTE		N11     Fn0 
	BYTE	W12
	BYTE		        Gs0 
	BYTE	W24
	BYTE		N11   
	BYTE	W12
	BYTE	PEND
// 042   ----------------------------------------
FinalMapTheme_4_042:
	BYTE		N20     As0   v127
	BYTE	W24
	BYTE		N17   
	BYTE	W18
	BYTE		N05     Fn0 
	BYTE	W06
	BYTE		N11     Gn0 
	BYTE	W12
	BYTE		        As0 
	BYTE	W24
	BYTE		N11   
	BYTE	W12
	BYTE	PEND
// 043   ----------------------------------------
	BYTE	PATT
	 POIN2	FinalMapTheme_4_008
// 044   ----------------------------------------
	BYTE		N20     Cs1   v127
	BYTE	W24
	BYTE		N17   
	BYTE	W18
	BYTE		N05     Gs0 
	BYTE	W06
	BYTE		N11     As0 
	BYTE	W12
	BYTE		        Cs1 
	BYTE	W24
	BYTE		N11   
	BYTE	W12
// 045   ----------------------------------------
FinalMapTheme_4_045:
	BYTE		N20     Cn1   v127
	BYTE	W24
	BYTE		N17   
	BYTE	W18
	BYTE		N05     Ds0 
	BYTE	W06
	BYTE		N11     Fn0 
	BYTE	W12
	BYTE		        Cn1 
	BYTE	W24
	BYTE		N11   
	BYTE	W12
	BYTE	PEND
// 046   ----------------------------------------
	BYTE	PATT
	 POIN2	FinalMapTheme_4_009
// 047   ----------------------------------------
	BYTE		N11     Gs0   v127
	BYTE	W12
	BYTE		        Ds0 
	BYTE	W12
	BYTE		        Gs0 
	BYTE	W12
	BYTE		        Cn1 
	BYTE	W12
	BYTE		        As0 
	BYTE	W12
	BYTE		        Cn1 
	BYTE	W12
	BYTE		        Cs1 
	BYTE	W12
	BYTE		        As0 
	BYTE	W12
// 048   ----------------------------------------
	BYTE		N20     Gs0 
	BYTE	W24
	BYTE		N17   
	BYTE	W18
	BYTE		N05     Dn0 
	BYTE	W06
	BYTE		N11     Ds0 
	BYTE	W12
	BYTE		        Gs0 
	BYTE	W24
	BYTE		N11   
	BYTE	W12
// 049   ----------------------------------------
	BYTE	PATT
	 POIN2	FinalMapTheme_4_041
// 050   ----------------------------------------
	BYTE	PATT
	 POIN2	FinalMapTheme_4_042
// 051   ----------------------------------------
	BYTE	PATT
	 POIN2	FinalMapTheme_4_008
// 052   ----------------------------------------
	BYTE		N20     Dn1   v127
	BYTE	W24
	BYTE		N17   
	BYTE	W18
	BYTE		N05     Gs0 
	BYTE	W06
	BYTE		N11     As0 
	BYTE	W12
	BYTE		        Dn1 
	BYTE	W24
	BYTE		N11   
	BYTE	W12
// 053   ----------------------------------------
	BYTE	PATT
	 POIN2	FinalMapTheme_4_045
// 054   ----------------------------------------
	BYTE	PATT
	 POIN2	FinalMapTheme_4_009
// 055   ----------------------------------------
	BYTE		N11     Gs0   v127
	BYTE	W12
	BYTE		        Ds0 
	BYTE	W12
	BYTE		        Gs0 
	BYTE	W12
	BYTE		        Cn1 
	BYTE	W12
	BYTE		        As0 
	BYTE	W12
	BYTE		        Cn1 
	BYTE	W12
	BYTE		        Dn1 
	BYTE	W12
	BYTE		        As0 
	BYTE	W12
	BYTE	GoTo
	 POIN2	FinalMapTheme_4_B1
FinalMapTheme_4_B2:
// 056   ----------------------------------------
	BYTE	FINE

//**************** Track 5 (Midi-Chn.7) ****************//

FinalMapTheme_5:
	BYTE	KEYSH   FinalMapTheme_key+0
FinalMapTheme_5_B1:
// 000   ----------------------------------------
	BYTE		VOICE   0
	BYTE		MODT    0
	BYTE		LFOS    44
	BYTE		PAN     c_v+21
	BYTE		VOL     127*FinalMapTheme_mvl/mxv
	BYTE	W96
// 001   ----------------------------------------
	BYTE	W96
// 002   ----------------------------------------
	BYTE	W96
// 003   ----------------------------------------
	BYTE	W96
// 004   ----------------------------------------
	BYTE	W96
// 005   ----------------------------------------
	BYTE	W96
// 006   ----------------------------------------
	BYTE	W96
// 007   ----------------------------------------
	BYTE	W96
// 008   ----------------------------------------
	BYTE		N15     Cn5   v127
	BYTE	W16
	BYTE		        Cn5   v076
	BYTE	W16
	BYTE		        Cn5   v036
	BYTE	W16
	BYTE		N11     Gn5   v127
	BYTE	W12
	BYTE		        Fn5 
	BYTE	W12
	BYTE		        Ds5 
	BYTE	W12
	BYTE		N24     Fn5 
	BYTE	W12
// 009   ----------------------------------------
	BYTE	W16
	BYTE		N15     Fn5   v076
	BYTE	W16
	BYTE		        Fn5   v036
	BYTE	W16
	BYTE		N11     Dn5   v127
	BYTE	W12
	BYTE		        Ds5 
	BYTE	W12
	BYTE		        Fn5 
	BYTE	W12
	BYTE		        As5 
	BYTE	W12
// 010   ----------------------------------------
	BYTE		N15     Gn5 
	BYTE	W16
	BYTE		        Gn5   v076
	BYTE	W16
	BYTE		        Gn5   v036
	BYTE	W16
	BYTE		N11     Ds5   v127
	BYTE	W12
	BYTE		        Dn5 
	BYTE	W12
	BYTE		        Ds5 
	BYTE	W12
	BYTE		N24     Fn5 
	BYTE	W12
// 011   ----------------------------------------
	BYTE	W16
	BYTE		N15     Fn5   v076
	BYTE	W16
	BYTE		        Fn5   v036
	BYTE	W16
	BYTE		        Gn5   v127
	BYTE	W16
	BYTE		        Gn5   v076
	BYTE	W16
	BYTE		        Gn5   v036
	BYTE	W16
// 012   ----------------------------------------
	BYTE		        Ds5   v127
	BYTE	W16
	BYTE		        Ds5   v076
	BYTE	W16
	BYTE		        Ds5   v036
	BYTE	W16
	BYTE		N11     Ds5   v127
	BYTE	W12
	BYTE		        Dn5 
	BYTE	W12
	BYTE		        Cn5 
	BYTE	W12
	BYTE		N24     Dn5 
	BYTE	W12
// 013   ----------------------------------------
	BYTE	W16
	BYTE		N15     Dn5   v076
	BYTE	W16
	BYTE		        Dn5   v036
	BYTE	W16
	BYTE		        Ds5   v127
	BYTE	W16
	BYTE		        Ds5   v076
	BYTE	W16
	BYTE		        Ds5   v036
	BYTE	W16
// 014   ----------------------------------------
	BYTE		        Cn5   v127
	BYTE	W16
	BYTE		        Cn5   v076
	BYTE	W16
	BYTE		        Cn5   v036
	BYTE	W16
	BYTE		        Gn4   v127
	BYTE	W16
	BYTE		        Gn4   v076
	BYTE	W16
	BYTE		        Gn4   v036
	BYTE	W16
// 015   ----------------------------------------
	BYTE	W96
// 016   ----------------------------------------
	BYTE		N11     Gn5   v127
	BYTE	W12
	BYTE		        Gn5   v076
	BYTE	W12
	BYTE		        Gn5   v036
	BYTE	W12
	BYTE		        Ds5   v127
	BYTE	W12
	BYTE		        Ds5   v076
	BYTE	W12
	BYTE		        Ds5   v036
	BYTE	W12
	BYTE		N20     Fn5   v127
	BYTE	W24
// 017   ----------------------------------------
	BYTE		N11     Gn5 
	BYTE	W12
	BYTE		        Gs5 
	BYTE	W12
	BYTE		        Gn5 
	BYTE	W12
	BYTE		N20     Fn5 
	BYTE	W24
	BYTE		N11     Ds5 
	BYTE	W12
	BYTE		        Dn5 
	BYTE	W12
	BYTE		        Ds5 
	BYTE	W12
// 018   ----------------------------------------
	BYTE		        Fn5 
	BYTE	W12
	BYTE		        Fn5   v076
	BYTE	W12
	BYTE		        Fn5   v036
	BYTE	W12
	BYTE		        As4   v127
	BYTE	W12
	BYTE		        As4   v076
	BYTE	W12
	BYTE		        As4   v036
	BYTE	W12
	BYTE		N20     Ds5   v127
	BYTE	W24
// 019   ----------------------------------------
	BYTE		N15     Dn5 
	BYTE	W16
	BYTE		        Dn5   v076
	BYTE	W16
	BYTE		        Dn5   v036
	BYTE	W16
	BYTE		        As4   v127
	BYTE	W16
	BYTE		        As4   v076
	BYTE	W16
	BYTE		        As4   v036
	BYTE	W16
// 020   ----------------------------------------
	BYTE		N11     Cn5   v127
	BYTE	W12
	BYTE		        As4 
	BYTE	W12
	BYTE		        Cn5 
	BYTE	W12
	BYTE		N24     Ds5 
	BYTE	W28
	BYTE		N15     Ds5   v076
	BYTE	W16
	BYTE		        Ds5   v036
	BYTE	W16
// 021   ----------------------------------------
	BYTE		N11     Fn5   v127
	BYTE	W12
	BYTE		        Dn5 
	BYTE	W12
	BYTE		        Fn5 
	BYTE	W12
	BYTE		        Gs5 
	BYTE	W12
	BYTE		        Gs5   v076
	BYTE	W12
	BYTE		        Gs5   v036
	BYTE	W12
	BYTE		        Gn5   v127
	BYTE	W12
	BYTE		        Fn5 
	BYTE	W12
// 022   ----------------------------------------
	BYTE		N15     Ds5 
	BYTE	W16
	BYTE		        Ds5   v076
	BYTE	W16
	BYTE		        Ds5   v036
	BYTE	W64
// 023   ----------------------------------------
	BYTE		        Dn5   v127
	BYTE	W16
	BYTE		        Dn5   v076
	BYTE	W16
	BYTE		        Dn5   v036
	BYTE	W64
// 024   ----------------------------------------
	BYTE	W36
	BYTE		N02     Ds4   v127
	BYTE	W03
	BYTE		        Fn4 
	BYTE	W03
	BYTE		        Gn4 
	BYTE	W03
	BYTE		        Cn5 
	BYTE	W03
	BYTE		N15     Ds5 
	BYTE	W16
	BYTE		        Ds5   v076
	BYTE	W16
	BYTE		        Ds5   v036
	BYTE	W16
// 025   ----------------------------------------
	BYTE		N11     Dn5   v127
	BYTE	W12
	BYTE		        Cn5 
	BYTE	W12
	BYTE		        As4 
	BYTE	W12
	BYTE		N32     Dn5 
	BYTE	W36
	BYTE		N20     Ds5 
	BYTE	W24
// 026   ----------------------------------------
	BYTE		N15     Cn5 
	BYTE	W16
	BYTE		        Cn5   v076
	BYTE	W16
	BYTE		        Cn5   v036
	BYTE	W16
	BYTE		        Gn5   v127
	BYTE	W16
	BYTE		        Gn5   v076
	BYTE	W16
	BYTE		        Gn5   v036
	BYTE	W16
// 027   ----------------------------------------
	BYTE		        Fn5   v127
	BYTE	W16
	BYTE		        Fn5   v076
	BYTE	W16
	BYTE		        Fn5   v036
	BYTE	W40
	BYTE		N05     As5   v127
	BYTE	W06
	BYTE		        Gs5 
	BYTE	W06
	BYTE		        Gn5 
	BYTE	W06
	BYTE		        Fn5 
	BYTE	W06
// 028   ----------------------------------------
	BYTE		N11     Gn5 
	BYTE	W12
	BYTE		        Gn5   v076
	BYTE	W12
	BYTE		        Gn5   v036
	BYTE	W12
	BYTE		N05     Fn5   v127
	BYTE	W06
	BYTE		        Gn5 
	BYTE	W06
	BYTE		N15     Ds5 
	BYTE	W16
	BYTE		        Ds5   v076
	BYTE	W16
	BYTE		        Ds5   v036
	BYTE	W16
// 029   ----------------------------------------
	BYTE		N11     Fn5   v127
	BYTE	W12
	BYTE		        Fn5   v076
	BYTE	W12
	BYTE		        Fn5   v036
	BYTE	W12
	BYTE		N05     Ds5   v127
	BYTE	W06
	BYTE		        Fn5 
	BYTE	W06
	BYTE		N15     Dn5 
	BYTE	W16
	BYTE		        Ds5 
	BYTE	W16
	BYTE		        Fn5 
	BYTE	W16
// 030   ----------------------------------------
	BYTE		        Gn5 
	BYTE	W16
	BYTE		        Gn5   v076
	BYTE	W16
	BYTE		        Gn5   v036
	BYTE	W16
	BYTE		        As5   v127
	BYTE	W16
	BYTE		        As5   v076
	BYTE	W16
	BYTE		        As5   v036
	BYTE	W16
// 031   ----------------------------------------
	BYTE	W72
	BYTE		N05     As5   v127
	BYTE	W06
	BYTE		        Gs5 
	BYTE	W06
	BYTE		        Gn5 
	BYTE	W06
	BYTE		        Fn5 
	BYTE	W06
// 032   ----------------------------------------
	BYTE		N11     Ds5 
	BYTE	W12
	BYTE		        Cn5 
	BYTE	W12
	BYTE		N05     As4 
	BYTE	W06
	BYTE		N11     Ds5 
	BYTE	W12
	BYTE		N05   
	BYTE	W06
	BYTE		        Gn5 
	BYTE	W06
	BYTE		        Fn5 
	BYTE	W06
	BYTE		        Ds5 
	BYTE	W06
	BYTE		        Dn5 
	BYTE	W06
	BYTE		        Cn5 
	BYTE	W06
	BYTE		        As4 
	BYTE	W06
	BYTE		        Gs4 
	BYTE	W06
	BYTE		        Gn4 
	BYTE	W06
// 033   ----------------------------------------
	BYTE		N11     Fn4 
	BYTE	W12
	BYTE		        Ds4 
	BYTE	W12
	BYTE		        Dn4 
	BYTE	W12
	BYTE		        Gs4 
	BYTE	W12
	BYTE		        Gs4   v076
	BYTE	W12
	BYTE		        Gs4   v024
	BYTE	W12
	BYTE		        Gn4   v127
	BYTE	W12
	BYTE		        Fn4 
	BYTE	W12
// 034   ----------------------------------------
	BYTE		        Gn4 
	BYTE	W12
	BYTE		        Ds4 
	BYTE	W12
	BYTE		        Gn4 
	BYTE	W12
	BYTE		N24     As4 
	BYTE	W28
	BYTE		N15     As4   v076
	BYTE	W16
	BYTE		        As4   v036
	BYTE	W16
// 035   ----------------------------------------
	BYTE		N11     Dn5   v127
	BYTE	W12
	BYTE		        As4 
	BYTE	W12
	BYTE		        Dn5 
	BYTE	W12
	BYTE		N24     Fn5 
	BYTE	W28
	BYTE		N15     Fn5   v076
	BYTE	W16
	BYTE		        Fn5   v036
	BYTE	W16
// 036   ----------------------------------------
	BYTE		N05     Cn5   v127
	BYTE	W06
	BYTE		        As4 
	BYTE	W06
	BYTE		        Gn4 
	BYTE	W06
	BYTE		        Ds4 
	BYTE	W06
	BYTE		        Cn4 
	BYTE	W06
	BYTE		        Dn4 
	BYTE	W06
	BYTE		        Ds4 
	BYTE	W06
	BYTE		        Fn4 
	BYTE	W06
	BYTE		        Gn4 
	BYTE	W06
	BYTE		        Gs4 
	BYTE	W06
	BYTE		        As4 
	BYTE	W06
	BYTE		        Gn4 
	BYTE	W06
	BYTE		        Cn5 
	BYTE	W06
	BYTE		        As4 
	BYTE	W06
	BYTE		        Gs4 
	BYTE	W06
	BYTE		        Gn4 
	BYTE	W06
// 037   ----------------------------------------
	BYTE		        Fn4 
	BYTE	W06
	BYTE		        Ds4 
	BYTE	W06
	BYTE		        Dn4 
	BYTE	W06
	BYTE		        Ds4 
	BYTE	W06
	BYTE		        Fn4 
	BYTE	W06
	BYTE		        Gn4 
	BYTE	W06
	BYTE		        Gs4 
	BYTE	W06
	BYTE		        Fn4 
	BYTE	W06
	BYTE		        As4 
	BYTE	W06
	BYTE		        Cn5 
	BYTE	W06
	BYTE		        Dn5 
	BYTE	W06
	BYTE		        Ds5 
	BYTE	W06
	BYTE		        Fn5 
	BYTE	W06
	BYTE		        Ds5 
	BYTE	W06
	BYTE		        Dn5 
	BYTE	W06
	BYTE		        Fn5 
	BYTE	W06
// 038   ----------------------------------------
	BYTE		N15     Ds5 
	BYTE	W16
	BYTE		        Ds5   v076
	BYTE	W16
	BYTE		        Ds5   v036
	BYTE	W16
	BYTE		        Gn5   v127
	BYTE	W16
	BYTE		        Gn5   v076
	BYTE	W16
	BYTE		        Gn5   v036
	BYTE	W16
// 039   ----------------------------------------
	BYTE		        Fn5   v127
	BYTE	W16
	BYTE		        Fn5   v076
	BYTE	W16
	BYTE		        Fn5   v036
	BYTE	W40
	BYTE	W01
	BYTE		N01     As5   v127
	BYTE	W02
	BYTE		        Gs5 
	BYTE	W01
	BYTE		        Gn5 
	BYTE	W02
	BYTE		        Fn5 
	BYTE	W01
	BYTE		        Ds5 
	BYTE	W02
	BYTE		        Dn5 
	BYTE	W01
	BYTE		        Cn5 
	BYTE	W02
	BYTE		        As4 
	BYTE	W01
	BYTE		        Gs4 
	BYTE	W02
	BYTE		        Gn4 
	BYTE	W01
	BYTE		        Fn4 
	BYTE	W02
	BYTE		        Ds4 
	BYTE	W01
	BYTE		        Dn4 
	BYTE	W02
	BYTE		        Cn4 
	BYTE	W01
	BYTE		        As3 
	BYTE	W02
// 040   ----------------------------------------
FinalMapTheme_5_040:
	BYTE		N11     Cn5   v127
	BYTE	W12
	BYTE		        Cn5   v076
	BYTE	W12
	BYTE		        Cn5   v036
	BYTE	W12
	BYTE		N05     As4   v127
	BYTE	W06
	BYTE		        Cn5 
	BYTE	W06
	BYTE		N15     Gs4 
	BYTE	W16
	BYTE		        Gn4 
	BYTE	W16
	BYTE		        Fn4 
	BYTE	W16
	BYTE	PEND
// 041   ----------------------------------------
FinalMapTheme_5_041:
	BYTE		N15     Gs4   v127
	BYTE	W16
	BYTE		        Gs4   v076
	BYTE	W16
	BYTE		        Gs4   v036
	BYTE	W16
	BYTE		N20     As4   v127
	BYTE	W24
	BYTE		        Cn5 
	BYTE	W24
	BYTE	PEND
// 042   ----------------------------------------
	BYTE		N11     Cs5 
	BYTE	W12
	BYTE		        Cs5   v076
	BYTE	W12
	BYTE		        Cs5   v036
	BYTE	W12
	BYTE		N05     As4   v127
	BYTE	W06
	BYTE		        Cn5 
	BYTE	W06
	BYTE		N15     Cs5 
	BYTE	W16
	BYTE		        Cn5 
	BYTE	W16
	BYTE		        As4 
	BYTE	W16
// 043   ----------------------------------------
FinalMapTheme_5_043:
	BYTE		N15     Cn5   v127
	BYTE	W16
	BYTE		        Cn5   v076
	BYTE	W16
	BYTE		        Cn5   v036
	BYTE	W16
	BYTE		        As4   v127
	BYTE	W16
	BYTE		        As4   v076
	BYTE	W16
	BYTE		        As4   v036
	BYTE	W16
	BYTE	PEND
// 044   ----------------------------------------
FinalMapTheme_5_044:
	BYTE		N15     Gs4   v127
	BYTE	W16
	BYTE		        Gn4 
	BYTE	W16
	BYTE		        Fn4 
	BYTE	W16
	BYTE		        Gs4 
	BYTE	W16
	BYTE		        Gs4   v076
	BYTE	W16
	BYTE		        Gs4   v036
	BYTE	W16
	BYTE	PEND
// 045   ----------------------------------------
FinalMapTheme_5_045:
	BYTE		N15     Gn4   v127
	BYTE	W16
	BYTE		        Fn4 
	BYTE	W16
	BYTE		        Ds4 
	BYTE	W16
	BYTE		        Gn4 
	BYTE	W16
	BYTE		        Gs4 
	BYTE	W16
	BYTE		        As4 
	BYTE	W16
	BYTE	PEND
// 046   ----------------------------------------
	BYTE		        Cn5 
	BYTE	W16
	BYTE		        Cn5   v076
	BYTE	W16
	BYTE		        Cn5   v036
	BYTE	W16
	BYTE		        Cs5   v127
	BYTE	W16
	BYTE		        Cs5   v076
	BYTE	W16
	BYTE		        Cs5   v036
	BYTE	W16
// 047   ----------------------------------------
	BYTE		        Ds5   v127
	BYTE	W16
	BYTE		        Ds5   v076
	BYTE	W16
	BYTE		        Ds5   v036
	BYTE	W16
	BYTE		        Cs5   v127
	BYTE	W16
	BYTE		        Cs5   v056
	BYTE	W16
	BYTE		        Cs5   v036
	BYTE	W16
// 048   ----------------------------------------
	BYTE	PATT
	 POIN2	FinalMapTheme_5_040
// 049   ----------------------------------------
	BYTE	PATT
	 POIN2	FinalMapTheme_5_041
// 050   ----------------------------------------
	BYTE		N11     Dn5   v127
	BYTE	W12
	BYTE		        Dn5   v076
	BYTE	W12
	BYTE		        Dn5   v036
	BYTE	W12
	BYTE		N05     As4   v127
	BYTE	W06
	BYTE		        Cn5 
	BYTE	W06
	BYTE		N15     Dn5 
	BYTE	W16
	BYTE		        Cn5 
	BYTE	W16
	BYTE		        As4 
	BYTE	W16
// 051   ----------------------------------------
	BYTE	PATT
	 POIN2	FinalMapTheme_5_043
// 052   ----------------------------------------
	BYTE	PATT
	 POIN2	FinalMapTheme_5_044
// 053   ----------------------------------------
	BYTE	PATT
	 POIN2	FinalMapTheme_5_045
// 054   ----------------------------------------
	BYTE		N15     Cn5   v127
	BYTE	W16
	BYTE		        Cn5   v076
	BYTE	W16
	BYTE		        Cn5   v036
	BYTE	W16
	BYTE		        Dn5   v127
	BYTE	W16
	BYTE		        Dn5   v076
	BYTE	W16
	BYTE		        Dn5   v036
	BYTE	W16
// 055   ----------------------------------------
	BYTE		        Ds5   v127
	BYTE	W16
	BYTE		        Ds5   v076
	BYTE	W16
	BYTE		        Ds5   v036
	BYTE	W16
	BYTE		        Dn5   v127
	BYTE	W16
	BYTE		        Dn5   v056
	BYTE	W16
	BYTE		        Dn5   v036
	BYTE	W16
	BYTE	GoTo
	 POIN2	FinalMapTheme_5_B1
FinalMapTheme_5_B2:
// 056   ----------------------------------------
	BYTE	FINE

//**************** Track 6 (Midi-Chn.8) ****************//

FinalMapTheme_6:
	BYTE	KEYSH   FinalMapTheme_key+0
FinalMapTheme_6_B1:
// 000   ----------------------------------------
	BYTE		VOICE   122
	BYTE		MODT    0
	BYTE		LFOS    44
	BYTE		VOL     114*FinalMapTheme_mvl/mxv
	BYTE		PAN     c_v+0
	BYTE		N05     Fs1   v127
	BYTE		N05     An2 
	BYTE	W06
	BYTE		        Fs1 
	BYTE	W06
	BYTE		N05   
	BYTE	W06
	BYTE		N05   
	BYTE	W06
	BYTE		        Gs1 
	BYTE	W06
	BYTE		        Fs1 
	BYTE	W06
	BYTE		N05   
	BYTE	W06
	BYTE		N05   
	BYTE	W06
	BYTE		N05   
	BYTE	W06
	BYTE		        Gs1 
	BYTE	W06
	BYTE		        As1 
	BYTE	W06
	BYTE		        Gs1 
	BYTE	W06
	BYTE		        Fs1 
	BYTE	W06
	BYTE		        Gs1 
	BYTE	W06
	BYTE		        As1 
	BYTE	W06
	BYTE		        Gs1 
	BYTE	W06
// 001   ----------------------------------------
FinalMapTheme_6_001:
	BYTE		N05     Fs1   v127
	BYTE	W06
	BYTE		N05   
	BYTE	W06
	BYTE		N05   
	BYTE	W06
	BYTE		N05   
	BYTE	W06
	BYTE		        Gs1 
	BYTE	W06
	BYTE		        Fs1 
	BYTE	W06
	BYTE		N05   
	BYTE	W06
	BYTE		N05   
	BYTE	W06
	BYTE		N05   
	BYTE	W06
	BYTE		        Gs1 
	BYTE	W06
	BYTE		        As1 
	BYTE	W06
	BYTE		        Gs1 
	BYTE	W06
	BYTE		        Fs1 
	BYTE	W06
	BYTE		        Gs1 
	BYTE	W06
	BYTE		        As1 
	BYTE	W06
	BYTE		        Gs1 
	BYTE	W06
	BYTE	PEND
// 002   ----------------------------------------
	BYTE	PATT
	 POIN2	FinalMapTheme_6_001
// 003   ----------------------------------------
	BYTE	PATT
	 POIN2	FinalMapTheme_6_001
// 004   ----------------------------------------
FinalMapTheme_6_004:
	BYTE		N05     Bn0   v127
	BYTE		N05     Fs1 
	BYTE	W06
	BYTE		N05   
	BYTE	W06
	BYTE		N05   
	BYTE	W06
	BYTE		N05   
	BYTE	W06
	BYTE		        Bn0 
	BYTE		N05     Gs1 
	BYTE	W06
	BYTE		        Fs1 
	BYTE	W06
	BYTE		N05   
	BYTE	W06
	BYTE		N05   
	BYTE	W06
	BYTE		        Bn0 
	BYTE		N05     Fs1 
	BYTE	W06
	BYTE		        Gs1 
	BYTE	W06
	BYTE		        As1 
	BYTE	W06
	BYTE		        Gs1 
	BYTE	W06
	BYTE		        Bn0 
	BYTE		N05     Fs1 
	BYTE	W06
	BYTE		        Gs1 
	BYTE	W06
	BYTE		        As1 
	BYTE	W06
	BYTE		        Gs1 
	BYTE	W06
	BYTE	PEND
// 005   ----------------------------------------
	BYTE	PATT
	 POIN2	FinalMapTheme_6_004
// 006   ----------------------------------------
	BYTE	PATT
	 POIN2	FinalMapTheme_6_004
// 007   ----------------------------------------
FinalMapTheme_6_007:
	BYTE		N05     Bn0   v127
	BYTE		N05     Fs1 
	BYTE	W06
	BYTE		N05   
	BYTE	W06
	BYTE		N05   
	BYTE	W06
	BYTE		N05   
	BYTE	W06
	BYTE		        Bn0 
	BYTE		N05     Gs1 
	BYTE	W06
	BYTE		        Fs1 
	BYTE	W06
	BYTE		N05   
	BYTE	W06
	BYTE		N05   
	BYTE	W06
	BYTE		        Bn0 
	BYTE		N05     Fs1 
	BYTE		N05     Dn2 
	BYTE	W06
	BYTE		        Gs1 
	BYTE		N05     Dn2 
	BYTE	W06
	BYTE		        As1 
	BYTE		N05     Cn2 
	BYTE	W06
	BYTE		        Gs1 
	BYTE		N05     Cn2 
	BYTE	W06
	BYTE		        Bn0 
	BYTE		N05     En1 
	BYTE		N05     Fs1 
	BYTE		N05     Bn1 
	BYTE	W06
	BYTE		        En1 
	BYTE		N05     Gs1 
	BYTE		N05     Bn1 
	BYTE	W06
	BYTE		        En1 
	BYTE		N05     As1 
	BYTE	W06
	BYTE		        En1 
	BYTE		N05     Gs1 
	BYTE		N05     As1 
	BYTE	W06
	BYTE	PEND
// 008   ----------------------------------------
FinalMapTheme_6_008:
	BYTE		N05     Bn0   v127
	BYTE		N05     Fs1 
	BYTE		N05     An2 
	BYTE	W06
	BYTE		        Fs1 
	BYTE	W06
	BYTE		N05   
	BYTE	W06
	BYTE		N05   
	BYTE	W06
	BYTE		        Bn0 
	BYTE		N05     En1 
	BYTE		N05     Gs1 
	BYTE	W06
	BYTE		        Fs1 
	BYTE	W06
	BYTE		N05   
	BYTE	W06
	BYTE		N05   
	BYTE	W06
	BYTE		        Bn0 
	BYTE		N05     Fs1 
	BYTE	W06
	BYTE		        Gs1 
	BYTE	W06
	BYTE		        As1 
	BYTE	W06
	BYTE		        Gs1 
	BYTE	W06
	BYTE		        Bn0 
	BYTE		N05     En1 
	BYTE		N05     Fs1 
	BYTE	W06
	BYTE		        Gs1 
	BYTE	W06
	BYTE		        As1 
	BYTE	W06
	BYTE		        Gs1 
	BYTE	W06
	BYTE	PEND
// 009   ----------------------------------------
FinalMapTheme_6_009:
	BYTE		N05     Bn0   v127
	BYTE		N05     Fs1 
	BYTE	W06
	BYTE		N05   
	BYTE	W06
	BYTE		N05   
	BYTE	W06
	BYTE		N05   
	BYTE	W06
	BYTE		        Bn0 
	BYTE		N05     En1 
	BYTE		N05     Gs1 
	BYTE	W06
	BYTE		        Fs1 
	BYTE	W06
	BYTE		N05   
	BYTE	W06
	BYTE		N05   
	BYTE	W06
	BYTE		        Bn0 
	BYTE		N05     Fs1 
	BYTE	W06
	BYTE		        Gs1 
	BYTE	W06
	BYTE		        As1 
	BYTE	W06
	BYTE		        Bn0 
	BYTE		N05     Gs1 
	BYTE	W06
	BYTE		        Bn0 
	BYTE		N05     En1 
	BYTE		N05     Fs1 
	BYTE	W06
	BYTE		        Gs1 
	BYTE	W06
	BYTE		        Bn0 
	BYTE		N05     As1 
	BYTE	W06
	BYTE		        Gs1 
	BYTE	W06
	BYTE	PEND
// 010   ----------------------------------------
FinalMapTheme_6_010:
	BYTE		N05     Bn0   v127
	BYTE		N05     Fs1 
	BYTE	W06
	BYTE		N05   
	BYTE	W06
	BYTE		N05   
	BYTE	W06
	BYTE		N05   
	BYTE	W06
	BYTE		        Bn0 
	BYTE		N05     En1 
	BYTE		N05     Gs1 
	BYTE	W06
	BYTE		        Fs1 
	BYTE	W06
	BYTE		N05   
	BYTE	W06
	BYTE		N05   
	BYTE	W06
	BYTE		        Bn0 
	BYTE		N05     Fs1 
	BYTE	W06
	BYTE		        Gs1 
	BYTE	W06
	BYTE		        As1 
	BYTE	W06
	BYTE		        Gs1 
	BYTE	W06
	BYTE		        Bn0 
	BYTE		N05     En1 
	BYTE		N05     Fs1 
	BYTE	W06
	BYTE		        Gs1 
	BYTE	W06
	BYTE		        As1 
	BYTE	W06
	BYTE		        Gs1 
	BYTE	W06
	BYTE	PEND
// 011   ----------------------------------------
FinalMapTheme_6_011:
	BYTE		N05     Bn0   v127
	BYTE		N05     Fs1 
	BYTE	W06
	BYTE		N05   
	BYTE	W06
	BYTE		N05   
	BYTE	W06
	BYTE		N05   
	BYTE	W06
	BYTE		        Bn0 
	BYTE		N05     En1 
	BYTE		N05     Gs1 
	BYTE	W06
	BYTE		        Fs1 
	BYTE	W06
	BYTE		N05   
	BYTE	W06
	BYTE		N05   
	BYTE	W06
	BYTE		        Bn0 
	BYTE		N05     Fs1 
	BYTE	W06
	BYTE		        Gs1 
	BYTE	W06
	BYTE		        En1 
	BYTE		N05     As1 
	BYTE	W06
	BYTE		        Gs1 
	BYTE	W06
	BYTE		        Bn0 
	BYTE		N05     En1 
	BYTE		N05     Fs1 
	BYTE	W06
	BYTE		        Gs1 
	BYTE	W06
	BYTE		        En1 
	BYTE		N05     As1 
	BYTE	W06
	BYTE		        Gs1 
	BYTE	W06
	BYTE	PEND
// 012   ----------------------------------------
	BYTE	PATT
	 POIN2	FinalMapTheme_6_010
// 013   ----------------------------------------
	BYTE	PATT
	 POIN2	FinalMapTheme_6_009
// 014   ----------------------------------------
	BYTE	PATT
	 POIN2	FinalMapTheme_6_010
// 015   ----------------------------------------
	BYTE	PATT
	 POIN2	FinalMapTheme_6_011
// 016   ----------------------------------------
	BYTE	PATT
	 POIN2	FinalMapTheme_6_010
// 017   ----------------------------------------
	BYTE	PATT
	 POIN2	FinalMapTheme_6_009
// 018   ----------------------------------------
	BYTE	PATT
	 POIN2	FinalMapTheme_6_010
// 019   ----------------------------------------
	BYTE	PATT
	 POIN2	FinalMapTheme_6_011
// 020   ----------------------------------------
	BYTE	PATT
	 POIN2	FinalMapTheme_6_010
// 021   ----------------------------------------
	BYTE	PATT
	 POIN2	FinalMapTheme_6_009
// 022   ----------------------------------------
	BYTE	PATT
	 POIN2	FinalMapTheme_6_010
// 023   ----------------------------------------
FinalMapTheme_6_023:
	BYTE		N05     Bn0   v127
	BYTE		N05     Fs1 
	BYTE	W06
	BYTE		N05   
	BYTE	W06
	BYTE		N05   
	BYTE	W06
	BYTE		N05   
	BYTE	W06
	BYTE		        Bn0 
	BYTE		N05     En1 
	BYTE		N05     Gs1 
	BYTE	W06
	BYTE		        Fs1 
	BYTE	W06
	BYTE		N05   
	BYTE	W06
	BYTE		N05   
	BYTE	W06
	BYTE		        Bn0 
	BYTE		N05     Fs1 
	BYTE	W06
	BYTE		        Gs1 
	BYTE	W06
	BYTE		        En1 
	BYTE		N05     As1 
	BYTE	W06
	BYTE		        Gs1 
	BYTE	W06
	BYTE		        Bn0 
	BYTE		N05     En1 
	BYTE		N05     Fs1 
	BYTE		N05     Dn2 
	BYTE	W06
	BYTE		        En1 
	BYTE		N05     Gs1 
	BYTE		N05     Cn2 
	BYTE	W06
	BYTE		        En1 
	BYTE		N05     As1 
	BYTE		N05     Bn1 
	BYTE	W06
	BYTE		        En1 
	BYTE		N05     Gs1 
	BYTE		N05     An1 
	BYTE	W06
	BYTE	PEND
// 024   ----------------------------------------
	BYTE		        Fs1 
	BYTE		N05     An2 
	BYTE	W06
	BYTE		        Fs1 
	BYTE	W06
	BYTE		N05   
	BYTE	W06
	BYTE		N05   
	BYTE	W06
	BYTE		        Gs1 
	BYTE	W06
	BYTE		        Fs1 
	BYTE	W06
	BYTE		N05   
	BYTE	W06
	BYTE		N05   
	BYTE	W06
	BYTE		N05   
	BYTE	W06
	BYTE		        Gs1 
	BYTE	W06
	BYTE		        As1 
	BYTE	W06
	BYTE		        Gs1 
	BYTE	W06
	BYTE		        Fs1 
	BYTE	W06
	BYTE		        Gs1 
	BYTE	W06
	BYTE		        As1 
	BYTE	W06
	BYTE		        Gs1 
	BYTE	W06
// 025   ----------------------------------------
	BYTE	PATT
	 POIN2	FinalMapTheme_6_001
// 026   ----------------------------------------
	BYTE	PATT
	 POIN2	FinalMapTheme_6_001
// 027   ----------------------------------------
	BYTE	PATT
	 POIN2	FinalMapTheme_6_001
// 028   ----------------------------------------
	BYTE	PATT
	 POIN2	FinalMapTheme_6_001
// 029   ----------------------------------------
	BYTE	PATT
	 POIN2	FinalMapTheme_6_001
// 030   ----------------------------------------
	BYTE	PATT
	 POIN2	FinalMapTheme_6_001
// 031   ----------------------------------------
	BYTE	PATT
	 POIN2	FinalMapTheme_6_001
// 032   ----------------------------------------
	BYTE	PATT
	 POIN2	FinalMapTheme_6_004
// 033   ----------------------------------------
	BYTE	PATT
	 POIN2	FinalMapTheme_6_004
// 034   ----------------------------------------
	BYTE	PATT
	 POIN2	FinalMapTheme_6_004
// 035   ----------------------------------------
	BYTE	PATT
	 POIN2	FinalMapTheme_6_004
// 036   ----------------------------------------
	BYTE	PATT
	 POIN2	FinalMapTheme_6_004
// 037   ----------------------------------------
	BYTE	PATT
	 POIN2	FinalMapTheme_6_004
// 038   ----------------------------------------
	BYTE	PATT
	 POIN2	FinalMapTheme_6_004
// 039   ----------------------------------------
	BYTE	PATT
	 POIN2	FinalMapTheme_6_007
// 040   ----------------------------------------
	BYTE	PATT
	 POIN2	FinalMapTheme_6_008
// 041   ----------------------------------------
	BYTE	PATT
	 POIN2	FinalMapTheme_6_009
// 042   ----------------------------------------
	BYTE	PATT
	 POIN2	FinalMapTheme_6_010
// 043   ----------------------------------------
	BYTE	PATT
	 POIN2	FinalMapTheme_6_011
// 044   ----------------------------------------
	BYTE	PATT
	 POIN2	FinalMapTheme_6_010
// 045   ----------------------------------------
	BYTE	PATT
	 POIN2	FinalMapTheme_6_009
// 046   ----------------------------------------
	BYTE	PATT
	 POIN2	FinalMapTheme_6_010
// 047   ----------------------------------------
	BYTE	PATT
	 POIN2	FinalMapTheme_6_011
// 048   ----------------------------------------
	BYTE	PATT
	 POIN2	FinalMapTheme_6_010
// 049   ----------------------------------------
	BYTE	PATT
	 POIN2	FinalMapTheme_6_009
// 050   ----------------------------------------
	BYTE	PATT
	 POIN2	FinalMapTheme_6_010
// 051   ----------------------------------------
	BYTE	PATT
	 POIN2	FinalMapTheme_6_011
// 052   ----------------------------------------
	BYTE	PATT
	 POIN2	FinalMapTheme_6_010
// 053   ----------------------------------------
	BYTE	PATT
	 POIN2	FinalMapTheme_6_009
// 054   ----------------------------------------
	BYTE	PATT
	 POIN2	FinalMapTheme_6_010
// 055   ----------------------------------------
	BYTE	PATT
	 POIN2	FinalMapTheme_6_023
	BYTE	GoTo
	 POIN2	FinalMapTheme_6_B1
FinalMapTheme_6_B2:
// 056   ----------------------------------------
	BYTE	FINE

//**************** Track 7 (Midi-Chn.9) ****************//

FinalMapTheme_7:
	BYTE	KEYSH   FinalMapTheme_key+0
FinalMapTheme_7_B1:
// 000   ----------------------------------------
	BYTE		VOICE   61
	BYTE		MODT    0
	BYTE		LFOS    44
	BYTE		VOL     77*FinalMapTheme_mvl/mxv
	BYTE		PAN     c_v-19
	BYTE	W96
// 001   ----------------------------------------
	BYTE	W96
// 002   ----------------------------------------
	BYTE	W96
// 003   ----------------------------------------
	BYTE	W96
// 004   ----------------------------------------
	BYTE	W96
// 005   ----------------------------------------
	BYTE	W96
// 006   ----------------------------------------
	BYTE	W96
// 007   ----------------------------------------
	BYTE	W96
// 008   ----------------------------------------
	BYTE	W96
// 009   ----------------------------------------
	BYTE	W96
// 010   ----------------------------------------
	BYTE	W96
// 011   ----------------------------------------
	BYTE	W96
// 012   ----------------------------------------
	BYTE	W96
// 013   ----------------------------------------
	BYTE	W96
// 014   ----------------------------------------
	BYTE	W96
// 015   ----------------------------------------
	BYTE	W96
// 016   ----------------------------------------
	BYTE	W96
// 017   ----------------------------------------
	BYTE	W96
// 018   ----------------------------------------
	BYTE	W96
// 019   ----------------------------------------
	BYTE	W96
// 020   ----------------------------------------
	BYTE	W96
// 021   ----------------------------------------
	BYTE	W96
// 022   ----------------------------------------
	BYTE	W96
// 023   ----------------------------------------
	BYTE	W96
// 024   ----------------------------------------
	BYTE	W96
// 025   ----------------------------------------
	BYTE	W96
// 026   ----------------------------------------
	BYTE	W96
// 027   ----------------------------------------
	BYTE	W96
// 028   ----------------------------------------
	BYTE		        c_v+0
	BYTE	W96
// 029   ----------------------------------------
	BYTE	W96
// 030   ----------------------------------------
	BYTE	W96
// 031   ----------------------------------------
	BYTE	W96
// 032   ----------------------------------------
	BYTE	W96
// 033   ----------------------------------------
	BYTE	W96
// 034   ----------------------------------------
	BYTE	W96
// 035   ----------------------------------------
	BYTE	W96
// 036   ----------------------------------------
	BYTE	W96
// 037   ----------------------------------------
	BYTE	W96
// 038   ----------------------------------------
	BYTE	W96
// 039   ----------------------------------------
	BYTE	W96
// 040   ----------------------------------------
	BYTE		N48     Ds4   v127
	BYTE	W48
	BYTE		N24     Fn4 
	BYTE	W24
	BYTE		        Fs4 
	BYTE	W24
// 041   ----------------------------------------
	BYTE		N72     Fn4 
	BYTE	W72
	BYTE		N24     Cs4 
	BYTE	W24
// 042   ----------------------------------------
	BYTE		N48     Gs3 
	BYTE	W48
	BYTE		        Fn4 
	BYTE	W48
// 043   ----------------------------------------
	BYTE		N24   
	BYTE	W24
	BYTE		        Fs4 
	BYTE	W24
	BYTE		N90     Ds4 
	BYTE	W48
// 044   ----------------------------------------
	BYTE	W48
	BYTE		N24     Cs4 
	BYTE	W24
	BYTE		        Bn3 
	BYTE	W24
// 045   ----------------------------------------
	BYTE		N72     As3 
	BYTE	W72
	BYTE		N24     Cn4 
	BYTE	W24
// 046   ----------------------------------------
	BYTE		N48     Dn4 
	BYTE	W48
	BYTE		N24     Cn4 
	BYTE	W24
	BYTE		        As3 
	BYTE	W24
// 047   ----------------------------------------
	BYTE		N96     Cn4 
	BYTE	W96
// 048   ----------------------------------------
	BYTE		N24     Fn4 
	BYTE	W24
	BYTE		        Gs3 
	BYTE	W24
	BYTE		N24   
	BYTE	W24
	BYTE		        Cs4 
	BYTE	W24
// 049   ----------------------------------------
	BYTE		        Fn4 
	BYTE	W24
	BYTE		        Fs4 
	BYTE	W24
	BYTE		        Gs4 
	BYTE	W24
	BYTE		        Cs5 
	BYTE	W24
// 050   ----------------------------------------
	BYTE		N90   
	BYTE	W96
// 051   ----------------------------------------
	BYTE		N48     Bn4 
	BYTE	W48
	BYTE		N24     As4 
	BYTE	W24
	BYTE		N12     Gs4 
	BYTE	W12
	BYTE		        Fs4 
	BYTE	W12
// 052   ----------------------------------------
	BYTE		N48     Fn4 
	BYTE	W48
	BYTE		        Ds4 
	BYTE	W48
// 053   ----------------------------------------
	BYTE		        Dn4 
	BYTE	W48
	BYTE		        As3 
	BYTE	W48
// 054   ----------------------------------------
	BYTE		N24     Cn4 
	BYTE	W24
	BYTE		        Cs4 
	BYTE	W24
	BYTE		        Ds4 
	BYTE	W24
	BYTE		        Fn4 
	BYTE	W24
// 055   ----------------------------------------
	BYTE		        Gn4 
	BYTE	W24
	BYTE		        Gs4 
	BYTE	W24
	BYTE		N48     As4 
	BYTE	W48
	BYTE	GoTo
	 POIN2	FinalMapTheme_7_B1
FinalMapTheme_7_B2:
// 056   ----------------------------------------
	BYTE	FINE

//**************** Track 8 (Midi-Chn.11) ****************//

FinalMapTheme_8:
	BYTE	KEYSH   FinalMapTheme_key+0
FinalMapTheme_8_B1:
// 000   ----------------------------------------
	BYTE		VOICE   10
	BYTE		MODT    0
	BYTE		LFOS    44
	BYTE		VOL     127*FinalMapTheme_mvl/mxv
	BYTE		PAN     c_v+12
	BYTE	W96
// 001   ----------------------------------------
	BYTE	W96
// 002   ----------------------------------------
	BYTE	W96
// 003   ----------------------------------------
	BYTE	W96
// 004   ----------------------------------------
	BYTE		        c_v+32
	BYTE		N36     En5   v127
	BYTE	W36
	BYTE		        Cn5 
	BYTE	W36
	BYTE		N24     Dn5 
	BYTE	W24
// 005   ----------------------------------------
	BYTE		N12     En5 
	BYTE	W12
	BYTE		        Fn5 
	BYTE	W12
	BYTE		        En5 
	BYTE	W12
	BYTE		N24     Dn5 
	BYTE	W24
	BYTE		N12     Cn5 
	BYTE	W12
	BYTE		        Bn4 
	BYTE	W12
	BYTE		        Cn5 
	BYTE	W12
// 006   ----------------------------------------
	BYTE		N36     Dn5 
	BYTE	W36
	BYTE		        Gn4 
	BYTE	W36
	BYTE		N24     Cn5 
	BYTE	W24
// 007   ----------------------------------------
	BYTE		N48     Bn4 
	BYTE	W48
	BYTE		        Gn4 
	BYTE	W48
// 008   ----------------------------------------
	BYTE	W96
// 009   ----------------------------------------
	BYTE	W96
// 010   ----------------------------------------
	BYTE		PAN     c_v+12
	BYTE	W96
// 011   ----------------------------------------
	BYTE		        c_v+12
	BYTE	W96
// 012   ----------------------------------------
	BYTE		        c_v+12
	BYTE	W96
// 013   ----------------------------------------
	BYTE		        c_v+12
	BYTE	W96
// 014   ----------------------------------------
	BYTE		        c_v+12
	BYTE	W96
// 015   ----------------------------------------
	BYTE		        c_v+12
	BYTE	W96
// 016   ----------------------------------------
	BYTE		        c_v+12
	BYTE	W96
// 017   ----------------------------------------
	BYTE	W96
// 018   ----------------------------------------
	BYTE	W96
// 019   ----------------------------------------
	BYTE		        c_v-39
	BYTE	W96
// 020   ----------------------------------------
	BYTE	W96
// 021   ----------------------------------------
	BYTE		        c_v+12
	BYTE	W96
// 022   ----------------------------------------
	BYTE		        c_v+12
	BYTE	W96
// 023   ----------------------------------------
	BYTE	W96
// 024   ----------------------------------------
	BYTE	W96
// 025   ----------------------------------------
	BYTE		        c_v+12
	BYTE	W96
// 026   ----------------------------------------
	BYTE	W96
// 027   ----------------------------------------
	BYTE	W96
// 028   ----------------------------------------
	BYTE		        c_v+12
	BYTE	W96
// 029   ----------------------------------------
	BYTE		        c_v+12
	BYTE	W96
// 030   ----------------------------------------
	BYTE	W96
// 031   ----------------------------------------
	BYTE	W96
// 032   ----------------------------------------
FinalMapTheme_8_032:
	BYTE		PAN     c_v-39
	BYTE		N48     Cn5   v127
	BYTE	W48
	BYTE		N24     En5 
	BYTE	W24
	BYTE		        Cn5 
	BYTE	W24
	BYTE	PEND
// 033   ----------------------------------------
FinalMapTheme_8_033:
	BYTE		N48     Bn4   v127
	BYTE	W48
	BYTE		N24     Fn5 
	BYTE	W24
	BYTE		        En5 
	BYTE	W24
	BYTE	PEND
// 034   ----------------------------------------
FinalMapTheme_8_034:
	BYTE		N48     Dn5   v127
	BYTE	W48
	BYTE		N24     An4 
	BYTE	W24
	BYTE		        Dn5 
	BYTE	W24
	BYTE	PEND
// 035   ----------------------------------------
FinalMapTheme_8_035:
	BYTE		N36     En5   v127
	BYTE	W36
	BYTE		N12     Dn5 
	BYTE	W12
	BYTE		N48   
	BYTE	W48
	BYTE	PEND
// 036   ----------------------------------------
	BYTE	PATT
	 POIN2	FinalMapTheme_8_032
// 037   ----------------------------------------
	BYTE	PATT
	 POIN2	FinalMapTheme_8_033
// 038   ----------------------------------------
	BYTE	PATT
	 POIN2	FinalMapTheme_8_034
// 039   ----------------------------------------
	BYTE	PATT
	 POIN2	FinalMapTheme_8_035
// 040   ----------------------------------------
	BYTE		PAN     c_v-39
	BYTE	W96
// 041   ----------------------------------------
	BYTE	W96
// 042   ----------------------------------------
	BYTE	W96
// 043   ----------------------------------------
	BYTE	W96
// 044   ----------------------------------------
	BYTE	W96
// 045   ----------------------------------------
	BYTE	W96
// 046   ----------------------------------------
	BYTE	W96
// 047   ----------------------------------------
	BYTE	W96
// 048   ----------------------------------------
	BYTE	W96
// 049   ----------------------------------------
	BYTE	W96
// 050   ----------------------------------------
	BYTE	W96
// 051   ----------------------------------------
	BYTE	W96
// 052   ----------------------------------------
	BYTE	W96
// 053   ----------------------------------------
	BYTE	W96
// 054   ----------------------------------------
	BYTE	W96
// 055   ----------------------------------------
	BYTE	W96
	BYTE	GoTo
	 POIN2	FinalMapTheme_8_B1
FinalMapTheme_8_B2:
// 056   ----------------------------------------
	BYTE	FINE

//**************** Track 9 (Midi-Chn.12) ****************//

FinalMapTheme_9:
	BYTE	KEYSH   FinalMapTheme_key+0
FinalMapTheme_9_B1:
// 000   ----------------------------------------
	BYTE		VOICE   50
	BYTE		MODT    0
	BYTE		LFOS    44
	BYTE		VOL     94*FinalMapTheme_mvl/mxv
	BYTE		PAN     c_v+32
	BYTE		TIE     Gn3   v056
	BYTE	W96
// 001   ----------------------------------------
	BYTE		N96     Fn3 
	BYTE	W96
// 002   ----------------------------------------
	BYTE	W96
// 003   ----------------------------------------
	BYTE		N96   
	BYTE	W96
// 004   ----------------------------------------
	BYTE	W96
// 005   ----------------------------------------
	BYTE		N96   
	BYTE	W96
// 006   ----------------------------------------
	BYTE	W96
// 007   ----------------------------------------
	BYTE		N90   
	BYTE	W90
	BYTE		EOT     Gn3 
	BYTE	W06
// 008   ----------------------------------------
	BYTE		TIE   
	BYTE	W96
// 009   ----------------------------------------
	BYTE		N96     Fn3 
	BYTE	W96
// 010   ----------------------------------------
	BYTE	W96
// 011   ----------------------------------------
	BYTE		N96   
	BYTE	W96
// 012   ----------------------------------------
	BYTE	W96
// 013   ----------------------------------------
	BYTE		N96   
	BYTE	W96
// 014   ----------------------------------------
	BYTE	W96
// 015   ----------------------------------------
	BYTE		N90   
	BYTE	W90
	BYTE		EOT     Gn3 
	BYTE	W06
// 016   ----------------------------------------
	BYTE		TIE   
	BYTE	W96
// 017   ----------------------------------------
	BYTE		N96     Fn3 
	BYTE	W96
// 018   ----------------------------------------
	BYTE	W96
// 019   ----------------------------------------
	BYTE		N96   
	BYTE	W96
// 020   ----------------------------------------
	BYTE	W96
// 021   ----------------------------------------
	BYTE		N96   
	BYTE	W96
// 022   ----------------------------------------
	BYTE	W96
// 023   ----------------------------------------
	BYTE		N90   
	BYTE	W90
	BYTE		EOT     Gn3 
	BYTE	W06
// 024   ----------------------------------------
	BYTE		TIE   
	BYTE	W96
// 025   ----------------------------------------
	BYTE		N96     Fn3 
	BYTE	W96
// 026   ----------------------------------------
	BYTE	W96
// 027   ----------------------------------------
	BYTE		N96   
	BYTE	W96
// 028   ----------------------------------------
	BYTE	W96
// 029   ----------------------------------------
	BYTE		N96   
	BYTE	W96
// 030   ----------------------------------------
	BYTE	W96
// 031   ----------------------------------------
	BYTE		N90   
	BYTE	W90
	BYTE		EOT     Gn3 
	BYTE	W06
// 032   ----------------------------------------
	BYTE		TIE   
	BYTE	W96
// 033   ----------------------------------------
	BYTE		N96     Fn3 
	BYTE	W96
// 034   ----------------------------------------
	BYTE	W96
// 035   ----------------------------------------
	BYTE		N96   
	BYTE	W96
// 036   ----------------------------------------
	BYTE	W96
// 037   ----------------------------------------
	BYTE		N96   
	BYTE	W96
// 038   ----------------------------------------
	BYTE	W96
// 039   ----------------------------------------
	BYTE		N90   
	BYTE	W90
	BYTE		EOT     Gn3 
	BYTE	W06
// 040   ----------------------------------------
	BYTE	W96
// 041   ----------------------------------------
	BYTE	W96
// 042   ----------------------------------------
	BYTE		N96     As3 
	BYTE	W96
// 043   ----------------------------------------
	BYTE		        Cn4 
	BYTE	W96
// 044   ----------------------------------------
	BYTE		        As3 
	BYTE		N96     Cs4 
	BYTE	W96
// 045   ----------------------------------------
	BYTE		        Cn4 
	BYTE	W96
// 046   ----------------------------------------
	BYTE		TIE     As3 
	BYTE	W96
// 047   ----------------------------------------
	BYTE	W90
	BYTE		EOT   
	BYTE	W06
// 048   ----------------------------------------
	BYTE	W96
// 049   ----------------------------------------
	BYTE	W96
// 050   ----------------------------------------
	BYTE		N96   
	BYTE	W96
// 051   ----------------------------------------
	BYTE		        Cn4 
	BYTE	W96
// 052   ----------------------------------------
	BYTE		        As3 
	BYTE		N96     Dn4 
	BYTE	W96
// 053   ----------------------------------------
	BYTE		        Ds3 
	BYTE		N96     Cn4 
	BYTE	W96
// 054   ----------------------------------------
	BYTE		TIE     Gs3 
	BYTE		TIE     As3 
	BYTE	W96
// 055   ----------------------------------------
	BYTE	W48
	BYTE		EOT     Gs3 
	BYTE		N42     Gn3 
	BYTE	W42
	BYTE		EOT     As3 
	BYTE	W06
	BYTE	GoTo
	 POIN2	FinalMapTheme_9_B1
FinalMapTheme_9_B2:
// 056   ----------------------------------------
	BYTE	FINE

//**************** Track 10 (Midi-Chn.13) ****************//

FinalMapTheme_10:
	BYTE	KEYSH   FinalMapTheme_key+0
FinalMapTheme_10_B1:
// 000   ----------------------------------------
	BYTE		VOICE   48
	BYTE		MODT    0
	BYTE		LFOS    44
	BYTE		PAN     c_v-20
	BYTE		VOL     95*FinalMapTheme_mvl/mxv
	BYTE		TIE     As2   v056
	BYTE		N96     Cn3 
	BYTE		N96     Ds3 
	BYTE		TIE     Gn3 
	BYTE	W96
// 001   ----------------------------------------
	BYTE		N96     Dn3 
	BYTE		N96     Fn3 
	BYTE	W96
// 002   ----------------------------------------
	BYTE		        Cn3 
	BYTE		N96     Ds3 
	BYTE	W96
// 003   ----------------------------------------
	BYTE		        Dn3 
	BYTE		N96     Fn3 
	BYTE	W96
// 004   ----------------------------------------
	BYTE		        Cn3 
	BYTE		N96     Ds3 
	BYTE	W96
// 005   ----------------------------------------
	BYTE		        Dn3 
	BYTE		N96     Fn3 
	BYTE	W96
// 006   ----------------------------------------
	BYTE		        Cn3 
	BYTE		N96     Ds3 
	BYTE	W96
// 007   ----------------------------------------
	BYTE		N90     Dn3 
	BYTE		N90     Fn3 
	BYTE	W90
	BYTE		EOT     As2 
	BYTE		        Gn3 
	BYTE	W06
// 008   ----------------------------------------
FinalMapTheme_10_008:
	BYTE		TIE     As2   v056
	BYTE		N96     Cn3 
	BYTE		N96     Ds3 
	BYTE		TIE     Gn3 
	BYTE	W96
	BYTE	PEND
// 009   ----------------------------------------
	BYTE		N96     Dn3 
	BYTE		N96     Fn3 
	BYTE	W96
// 010   ----------------------------------------
	BYTE		        Cn3 
	BYTE		N96     Ds3 
	BYTE	W96
// 011   ----------------------------------------
	BYTE		        Dn3 
	BYTE		N96     Fn3 
	BYTE	W96
// 012   ----------------------------------------
	BYTE		        Cn3 
	BYTE		N96     Ds3 
	BYTE	W96
// 013   ----------------------------------------
	BYTE		        Dn3 
	BYTE		N96     Fn3 
	BYTE	W96
// 014   ----------------------------------------
	BYTE		        Cn3 
	BYTE		N96     Ds3 
	BYTE	W96
// 015   ----------------------------------------
	BYTE		N90     Dn3 
	BYTE		N90     Fn3 
	BYTE	W90
	BYTE		EOT     As2 
	BYTE		        Gn3 
	BYTE	W06
// 016   ----------------------------------------
	BYTE	PATT
	 POIN2	FinalMapTheme_10_008
// 017   ----------------------------------------
	BYTE		N96     Dn3   v056
	BYTE		N96     Fn3 
	BYTE	W96
// 018   ----------------------------------------
	BYTE		        Cn3 
	BYTE		N96     Ds3 
	BYTE	W96
// 019   ----------------------------------------
	BYTE		        Dn3 
	BYTE		N96     Fn3 
	BYTE	W96
// 020   ----------------------------------------
	BYTE		        Cn3 
	BYTE		N96     Ds3 
	BYTE	W96
// 021   ----------------------------------------
	BYTE		        Dn3 
	BYTE		N96     Fn3 
	BYTE	W96
// 022   ----------------------------------------
	BYTE		        Cn3 
	BYTE		N96     Ds3 
	BYTE	W96
// 023   ----------------------------------------
	BYTE		N90     Dn3 
	BYTE		N90     Fn3 
	BYTE	W90
	BYTE		EOT     As2 
	BYTE		        Gn3 
	BYTE	W06
// 024   ----------------------------------------
	BYTE	PATT
	 POIN2	FinalMapTheme_10_008
// 025   ----------------------------------------
	BYTE		N96     Dn3   v056
	BYTE		N96     Fn3 
	BYTE	W96
// 026   ----------------------------------------
	BYTE		        Cn3 
	BYTE		N96     Ds3 
	BYTE	W96
// 027   ----------------------------------------
	BYTE		        Dn3 
	BYTE		N96     Fn3 
	BYTE	W96
// 028   ----------------------------------------
	BYTE		        Cn3 
	BYTE		N96     Ds3 
	BYTE	W96
// 029   ----------------------------------------
	BYTE		        Dn3 
	BYTE		N96     Fn3 
	BYTE	W96
// 030   ----------------------------------------
	BYTE		        Cn3 
	BYTE		N96     Ds3 
	BYTE	W96
// 031   ----------------------------------------
	BYTE		N90     Dn3 
	BYTE		N90     Fn3 
	BYTE	W90
	BYTE		EOT     As2 
	BYTE		        Gn3 
	BYTE	W06
// 032   ----------------------------------------
	BYTE		N96     Cn3 
	BYTE		N96     Ds3 
	BYTE	W96
// 033   ----------------------------------------
	BYTE		        Dn3 
	BYTE		N96     Fn3 
	BYTE	W96
// 034   ----------------------------------------
	BYTE		        Cn3 
	BYTE		N96     Ds3 
	BYTE	W96
// 035   ----------------------------------------
	BYTE		        Dn3 
	BYTE		N96     Fn3 
	BYTE	W96
// 036   ----------------------------------------
	BYTE		        Cn3 
	BYTE		N96     Ds3 
	BYTE	W96
// 037   ----------------------------------------
	BYTE		        Dn3 
	BYTE		N96     Fn3 
	BYTE	W96
// 038   ----------------------------------------
	BYTE		        Cn3 
	BYTE		N96     Ds3 
	BYTE	W96
// 039   ----------------------------------------
	BYTE		N90     Dn3 
	BYTE		N90     Fn3 
	BYTE	W96
// 040   ----------------------------------------
	BYTE		N96     Gs2 
	BYTE		TIE     Cn3 
	BYTE		TIE     Ds3 
	BYTE		N96     Gn3 
	BYTE	W96
// 041   ----------------------------------------
FinalMapTheme_10_041:
	BYTE		TIE     Fn3   v056
	BYTE		N96     Gs3 
	BYTE	W96
	BYTE	PEND
	BYTE		EOT     Cn3 
	BYTE		        Ds3 
// 042   ----------------------------------------
	BYTE		N96     Cs3 
	BYTE		TIE     Gn3 
	BYTE		N96     As3 
	BYTE	W96
	BYTE		EOT     Fn3 
// 043   ----------------------------------------
FinalMapTheme_10_043:
	BYTE		N96     As2   v056
	BYTE		N96     Ds3 
	BYTE		N96     Cn4 
	BYTE	W96
	BYTE	PEND
	BYTE		EOT     Gn3 
// 044   ----------------------------------------
	BYTE		TIE     Fn3 
	BYTE		TIE     Gs3 
	BYTE		N96     As3 
	BYTE		N96     Cs4 
	BYTE	W96
// 045   ----------------------------------------
	BYTE		        Ds3 
	BYTE		N96     Cn4 
	BYTE	W96
// 046   ----------------------------------------
	BYTE		        Cs3 
	BYTE		TIE     As3 
	BYTE	W96
// 047   ----------------------------------------
	BYTE		N48     Cn3 
	BYTE		N48     Ds3 
	BYTE	W48
	BYTE		EOT     Gs3 
	BYTE		N42     As2 
	BYTE		N42     Cs3 
	BYTE		TIE     Gn3 
	BYTE	W42
	BYTE		EOT     Fn3 
	BYTE		        As3 
	BYTE	W06
// 048   ----------------------------------------
	BYTE		N96     Gs2 
	BYTE		TIE     Cn3 
	BYTE		TIE     Ds3 
	BYTE	W96
	BYTE		EOT     Gn3 
// 049   ----------------------------------------
	BYTE	PATT
	 POIN2	FinalMapTheme_10_041
	BYTE		EOT     Cn3 
	BYTE		        Ds3 
// 050   ----------------------------------------
	BYTE		N96     Dn3   v056
	BYTE		TIE     Gn3 
	BYTE		N96     As3 
	BYTE	W96
	BYTE		EOT     Fn3 
// 051   ----------------------------------------
	BYTE	PATT
	 POIN2	FinalMapTheme_10_043
	BYTE		EOT     Gn3 
// 052   ----------------------------------------
	BYTE		TIE     Fn3   v056
	BYTE		TIE     Gs3 
	BYTE		N96     As3 
	BYTE		N96     Dn4 
	BYTE	W96
// 053   ----------------------------------------
	BYTE		        Ds3 
	BYTE		N96     Cn4 
	BYTE	W96
	BYTE		EOT     Fn3 
	BYTE		        Gs3 
// 054   ----------------------------------------
	BYTE		N96     Dn3 
	BYTE		TIE     Fn3 
	BYTE		TIE     Gs3 
	BYTE		TIE     As3 
	BYTE	W96
// 055   ----------------------------------------
	BYTE		N48     Cn3 
	BYTE		N48     Ds3 
	BYTE	W48
	BYTE		EOT     Gs3 
	BYTE		N42     As2 
	BYTE		N42     Dn3 
	BYTE		N42     Gn3 
	BYTE	W42
	BYTE		EOT     Fn3 
	BYTE		        As3 
	BYTE	W06
	BYTE	GoTo
	 POIN2	FinalMapTheme_10_B1
FinalMapTheme_10_B2:
// 056   ----------------------------------------
	BYTE	FINE

//******************************************************//
	ALIGN 4

FinalMapTheme:
	BYTE	10	// NumTrks
	BYTE	0	// NumBlks
	BYTE	FinalMapTheme_pri	// Priority
	BYTE	FinalMapTheme_rev	// Reverb.

	POIN2	FinalMapTheme_grp

	POIN2	FinalMapTheme_1
	POIN2	FinalMapTheme_2
	POIN2	FinalMapTheme_3
	POIN2	FinalMapTheme_4
	POIN2	FinalMapTheme_5
	POIN2	FinalMapTheme_6
	POIN2	FinalMapTheme_7
	POIN2	FinalMapTheme_8
	POIN2	FinalMapTheme_9
	POIN2	FinalMapTheme_10

	
