//Event file generated from Sappy .s format.
	#include "MPlayDef.event"

	#define	HeartFlameSong_grp  voicegroup000
	#define	HeartFlameSong_pri  0
	#define	HeartFlameSong_rev  0xA0
	#define	HeartFlameSong_mvl  32
	#define	HeartFlameSong_key  0
	#define	HeartFlameSong_tbs  1
	#define	HeartFlameSong_exg  0
	#define	HeartFlameSong_cmp  1

	// .rodata
	//	HeartFlameSong
	ALIGN 4

//**************** Track 1 (Midi-Chn.1) ****************//

HeartFlameSong_1:
	BYTE	KEYSH   HeartFlameSong_key+0
HeartFlameSong_1_B1:
// 000   ----------------------------------------
	BYTE	TEMPO   85*HeartFlameSong_tbs/2
	BYTE		VOICE   0
	BYTE		MODT    0
	BYTE		LFOS    44
	BYTE		PAN     c_v-2
	BYTE		VOL     117*HeartFlameSong_mvl/mxv
	BYTE		N04     Fs1   v127
	BYTE	W06
	BYTE		N04   
	BYTE	W30
	BYTE		N05     Cs1 
	BYTE	W06
	BYTE		        En1 
	BYTE	W06
	BYTE		N04     Fs1 
	BYTE	W06
	BYTE		N04   
	BYTE	W06
	BYTE		        Cs1 
	BYTE	W12
	BYTE		        Fs1 
	BYTE	W12
	BYTE		N11     An1 
	BYTE	W12
// 001   ----------------------------------------
HeartFlameSong_1_001:
	BYTE		N04     Fs1   v127
	BYTE	W06
	BYTE		N04   
	BYTE	W30
	BYTE		N05     Cs1 
	BYTE	W06
	BYTE		        En1 
	BYTE	W06
	BYTE		N04     Fs1 
	BYTE	W06
	BYTE		N04   
	BYTE	W06
	BYTE		        Cs1 
	BYTE	W12
	BYTE		        Fs1 
	BYTE	W12
	BYTE		N11     An1 
	BYTE	W12
	BYTE	PEND
// 002   ----------------------------------------
	BYTE	PATT
	 POIN2	HeartFlameSong_1_001
// 003   ----------------------------------------
	BYTE	PATT
	 POIN2	HeartFlameSong_1_001
// 004   ----------------------------------------
	BYTE	PATT
	 POIN2	HeartFlameSong_1_001
// 005   ----------------------------------------
	BYTE	PATT
	 POIN2	HeartFlameSong_1_001
// 006   ----------------------------------------
	BYTE	PATT
	 POIN2	HeartFlameSong_1_001
// 007   ----------------------------------------
	BYTE	PATT
	 POIN2	HeartFlameSong_1_001
// 008   ----------------------------------------
	BYTE	PATT
	 POIN2	HeartFlameSong_1_001
// 009   ----------------------------------------
HeartFlameSong_1_009:
	BYTE		N04     Fs1   v127
	BYTE	W06
	BYTE		N04   
	BYTE	W30
	BYTE		N05     Dn1 
	BYTE	W06
	BYTE		        En1 
	BYTE	W06
	BYTE		N04     Fs1 
	BYTE	W06
	BYTE		N04   
	BYTE	W06
	BYTE		        Dn1 
	BYTE	W12
	BYTE		        Fs1 
	BYTE	W12
	BYTE		N11     An1 
	BYTE	W12
	BYTE	PEND
// 010   ----------------------------------------
	BYTE	PATT
	 POIN2	HeartFlameSong_1_001
// 011   ----------------------------------------
	BYTE	PATT
	 POIN2	HeartFlameSong_1_009
// 012   ----------------------------------------
	BYTE	PATT
	 POIN2	HeartFlameSong_1_001
// 013   ----------------------------------------
	BYTE	PATT
	 POIN2	HeartFlameSong_1_009
// 014   ----------------------------------------
	BYTE	PATT
	 POIN2	HeartFlameSong_1_001
// 015   ----------------------------------------
	BYTE	PATT
	 POIN2	HeartFlameSong_1_009
// 016   ----------------------------------------
HeartFlameSong_1_016:
	BYTE		N04     Dn1   v127
	BYTE	W06
	BYTE		N04   
	BYTE	W30
	BYTE		N05     Bn0 
	BYTE	W06
	BYTE		        Cs1 
	BYTE	W06
	BYTE		        Dn1 
	BYTE	W06
	BYTE		N04   
	BYTE	W06
	BYTE		        Bn0 
	BYTE	W12
	BYTE		        Dn1 
	BYTE	W12
	BYTE		N11     Fs1 
	BYTE	W12
	BYTE	PEND
// 017   ----------------------------------------
HeartFlameSong_1_017:
	BYTE		N04     Dn1   v127
	BYTE	W06
	BYTE		N04   
	BYTE	W30
	BYTE		N05     Bn0 
	BYTE	W06
	BYTE		        Cs1 
	BYTE	W06
	BYTE		        Dn1 
	BYTE	W06
	BYTE		N04   
	BYTE	W06
	BYTE		        Bn0 
	BYTE	W12
	BYTE		        Dn1 
	BYTE	W12
	BYTE		N11     Gs1 
	BYTE	W12
	BYTE	PEND
// 018   ----------------------------------------
	BYTE		N04     En1 
	BYTE	W06
	BYTE		N04   
	BYTE	W30
	BYTE		N05     Cs1 
	BYTE	W06
	BYTE		        En1 
	BYTE	W06
	BYTE		        An1 
	BYTE	W06
	BYTE		N04   
	BYTE	W06
	BYTE		        En1 
	BYTE	W12
	BYTE		        An1 
	BYTE	W12
	BYTE		N11     Cs2 
	BYTE	W12
// 019   ----------------------------------------
	BYTE		N04     En1 
	BYTE	W06
	BYTE		N04   
	BYTE	W30
	BYTE		N05     Cs1 
	BYTE	W06
	BYTE		        En1 
	BYTE	W06
	BYTE		N04     Gs1 
	BYTE	W06
	BYTE		N04   
	BYTE	W06
	BYTE		        En1 
	BYTE	W12
	BYTE		        Gs1 
	BYTE	W12
	BYTE		N11     Cs2 
	BYTE	W12
// 020   ----------------------------------------
	BYTE	PATT
	 POIN2	HeartFlameSong_1_016
// 021   ----------------------------------------
	BYTE	PATT
	 POIN2	HeartFlameSong_1_017
// 022   ----------------------------------------
HeartFlameSong_1_022:
	BYTE		N04     Fn1   v127
	BYTE	W06
	BYTE		N04   
	BYTE	W30
	BYTE		N05     Cs1 
	BYTE	W06
	BYTE		        Fn1 
	BYTE	W06
	BYTE		N04     Gs1 
	BYTE	W06
	BYTE		N04   
	BYTE	W06
	BYTE		        Fn1 
	BYTE	W12
	BYTE		        Gs1 
	BYTE	W12
	BYTE		N11     Cs2 
	BYTE	W12
	BYTE	PEND
// 023   ----------------------------------------
	BYTE	PATT
	 POIN2	HeartFlameSong_1_022
// 024   ----------------------------------------
HeartFlameSong_1_024:
	BYTE		N11     Dn1   v127
	BYTE	W12
	BYTE		        Fs1 
	BYTE	W12
	BYTE		        An1 
	BYTE	W12
	BYTE		        Fs1 
	BYTE	W12
	BYTE		        Dn1 
	BYTE	W12
	BYTE		        Fs1 
	BYTE	W12
	BYTE		        An1 
	BYTE	W12
	BYTE		        Fs1 
	BYTE	W12
	BYTE	PEND
// 025   ----------------------------------------
HeartFlameSong_1_025:
	BYTE		N11     En1   v127
	BYTE	W12
	BYTE		        Gs1 
	BYTE	W12
	BYTE		        Bn1 
	BYTE	W12
	BYTE		        Gs1 
	BYTE	W12
	BYTE		        En1 
	BYTE	W12
	BYTE		        Gs1 
	BYTE	W12
	BYTE		        Bn1 
	BYTE	W12
	BYTE		        Gs1 
	BYTE	W12
	BYTE	PEND
// 026   ----------------------------------------
HeartFlameSong_1_026:
	BYTE		N11     Cs1   v127
	BYTE	W12
	BYTE		        En1 
	BYTE	W12
	BYTE		        An1 
	BYTE	W12
	BYTE		        En1 
	BYTE	W12
	BYTE		        Cs1 
	BYTE	W12
	BYTE		        En1 
	BYTE	W12
	BYTE		        An1 
	BYTE	W12
	BYTE		        En1 
	BYTE	W12
	BYTE	PEND
// 027   ----------------------------------------
HeartFlameSong_1_027:
	BYTE		N11     Cs1   v127
	BYTE	W12
	BYTE		        Fs1 
	BYTE	W12
	BYTE		        An1 
	BYTE	W12
	BYTE		        Fs1 
	BYTE	W12
	BYTE		        Cs1 
	BYTE	W12
	BYTE		        Fs1 
	BYTE	W12
	BYTE		        An1 
	BYTE	W12
	BYTE		        Fs1 
	BYTE	W12
	BYTE	PEND
// 028   ----------------------------------------
	BYTE	PATT
	 POIN2	HeartFlameSong_1_024
// 029   ----------------------------------------
	BYTE	PATT
	 POIN2	HeartFlameSong_1_025
// 030   ----------------------------------------
	BYTE	PATT
	 POIN2	HeartFlameSong_1_026
// 031   ----------------------------------------
	BYTE	PATT
	 POIN2	HeartFlameSong_1_027
// 032   ----------------------------------------
	BYTE	PATT
	 POIN2	HeartFlameSong_1_024
// 033   ----------------------------------------
	BYTE	PATT
	 POIN2	HeartFlameSong_1_025
// 034   ----------------------------------------
	BYTE	PATT
	 POIN2	HeartFlameSong_1_026
// 035   ----------------------------------------
	BYTE	PATT
	 POIN2	HeartFlameSong_1_027
// 036   ----------------------------------------
	BYTE	PATT
	 POIN2	HeartFlameSong_1_024
// 037   ----------------------------------------
	BYTE	PATT
	 POIN2	HeartFlameSong_1_025
// 038   ----------------------------------------
	BYTE		N11     An1   v127
	BYTE	W12
	BYTE		        Fs1 
	BYTE	W12
	BYTE		        Cs1 
	BYTE	W12
	BYTE		        Fs1 
	BYTE	W12
	BYTE		        An1 
	BYTE	W12
	BYTE		        Fs1 
	BYTE	W12
	BYTE		        Cs1 
	BYTE	W12
	BYTE		        Fs1 
	BYTE	W12
// 039   ----------------------------------------
	BYTE		        Gs1 
	BYTE	W12
	BYTE		        Fs1 
	BYTE	W12
	BYTE		        En1 
	BYTE	W12
	BYTE		        Bn0 
	BYTE	W12
	BYTE		N42     En1 
	BYTE	W44
	BYTE	W03
	BYTE	GoTo
	 POIN2	HeartFlameSong_1_B1
HeartFlameSong_1_B2:
	BYTE	FINE

//**************** Track 2 (Midi-Chn.2) ****************//

HeartFlameSong_2:
	BYTE	KEYSH   HeartFlameSong_key+0
HeartFlameSong_2_B1:
// 000   ----------------------------------------
	BYTE		VOICE   4
	BYTE		MODT    0
	BYTE		LFOS    44
	BYTE		PAN     c_v-42
	BYTE		VOL     78*HeartFlameSong_mvl/mxv
	BYTE	W96
// 001   ----------------------------------------
	BYTE	W96
// 002   ----------------------------------------
	BYTE	W96
// 003   ----------------------------------------
	BYTE	W96
// 004   ----------------------------------------
	BYTE	W12
	BYTE		N11     Cs5   v024
	BYTE	W12
	BYTE		        Fs5 
	BYTE	W12
	BYTE		        Cs5   v028
	BYTE	W24
	BYTE		N11   
	BYTE	W12
	BYTE		        Gs5 
	BYTE	W12
	BYTE		        Cs5   v032
	BYTE	W12
// 005   ----------------------------------------
	BYTE	W12
	BYTE		N11   
	BYTE	W12
	BYTE		        Fs5 
	BYTE	W12
	BYTE		        Cs5 
	BYTE	W24
	BYTE		        Cs5   v036
	BYTE	W12
	BYTE		        Gs5 
	BYTE	W12
	BYTE		        Cs5 
	BYTE	W12
// 006   ----------------------------------------
	BYTE	W12
	BYTE		        Cs5   v040
	BYTE	W12
	BYTE		        Fs5   v044
	BYTE	W12
	BYTE		        Cs5 
	BYTE	W24
	BYTE		        Cs5   v048
	BYTE	W12
	BYTE		        Gs5   v052
	BYTE	W12
	BYTE		        Cs5 
	BYTE	W12
// 007   ----------------------------------------
	BYTE	W12
	BYTE		        Cs5   v056
	BYTE	W12
	BYTE		        Fs5   v060
	BYTE	W12
	BYTE		        Cs5   v064
	BYTE	W24
	BYTE		        Cs5   v068
	BYTE	W12
	BYTE		        Gs5   v072
	BYTE	W12
	BYTE		        Cs5 
	BYTE	W12
// 008   ----------------------------------------
HeartFlameSong_2_008:
	BYTE	W12
	BYTE		N11     Cs5   v076
	BYTE	W12
	BYTE		        Fs5 
	BYTE	W12
	BYTE		        Cs5 
	BYTE	W24
	BYTE		N11   
	BYTE	W12
	BYTE		        Gs5 
	BYTE	W12
	BYTE		        Cs5 
	BYTE	W12
	BYTE	PEND
// 009   ----------------------------------------
HeartFlameSong_2_009:
	BYTE	W12
	BYTE		N11     Dn5   v076
	BYTE	W12
	BYTE		        Fs5 
	BYTE	W12
	BYTE		        Dn5 
	BYTE	W24
	BYTE		N11   
	BYTE	W12
	BYTE		        An5 
	BYTE	W12
	BYTE		        Dn5 
	BYTE	W12
	BYTE	PEND
// 010   ----------------------------------------
	BYTE	PATT
	 POIN2	HeartFlameSong_2_008
// 011   ----------------------------------------
	BYTE	PATT
	 POIN2	HeartFlameSong_2_009
// 012   ----------------------------------------
	BYTE	PATT
	 POIN2	HeartFlameSong_2_008
// 013   ----------------------------------------
	BYTE	PATT
	 POIN2	HeartFlameSong_2_009
// 014   ----------------------------------------
	BYTE	PATT
	 POIN2	HeartFlameSong_2_008
// 015   ----------------------------------------
	BYTE	PATT
	 POIN2	HeartFlameSong_2_009
// 016   ----------------------------------------
HeartFlameSong_2_016:
	BYTE	W12
	BYTE		N11     Bn4   v076
	BYTE	W12
	BYTE		        Dn5 
	BYTE	W12
	BYTE		        Bn4 
	BYTE	W24
	BYTE		        Dn5 
	BYTE	W12
	BYTE		        Fs5 
	BYTE	W12
	BYTE		        Dn5 
	BYTE	W12
	BYTE	PEND
// 017   ----------------------------------------
HeartFlameSong_2_017:
	BYTE	W12
	BYTE		N11     Bn4   v076
	BYTE	W12
	BYTE		        Dn5 
	BYTE	W12
	BYTE		        Bn4 
	BYTE	W24
	BYTE		        Dn5 
	BYTE	W12
	BYTE		        Gs5 
	BYTE	W12
	BYTE		        Dn5 
	BYTE	W12
	BYTE	PEND
// 018   ----------------------------------------
	BYTE	W12
	BYTE		        An4 
	BYTE	W12
	BYTE		        Cs5 
	BYTE	W12
	BYTE		        An4 
	BYTE	W24
	BYTE		        Cs5 
	BYTE	W12
	BYTE		        En5 
	BYTE	W12
	BYTE		        Cs5 
	BYTE	W12
// 019   ----------------------------------------
	BYTE	W12
	BYTE		        Gs4 
	BYTE	W12
	BYTE		        Cs5 
	BYTE	W12
	BYTE		        Gs4 
	BYTE	W24
	BYTE		        Cs5 
	BYTE	W12
	BYTE		        En5 
	BYTE	W12
	BYTE		        Cs5 
	BYTE	W12
// 020   ----------------------------------------
	BYTE	PATT
	 POIN2	HeartFlameSong_2_016
// 021   ----------------------------------------
	BYTE	PATT
	 POIN2	HeartFlameSong_2_017
// 022   ----------------------------------------
HeartFlameSong_2_022:
	BYTE	W12
	BYTE		N11     Gs4   v076
	BYTE	W12
	BYTE		        Cs5 
	BYTE	W12
	BYTE		        Gs4 
	BYTE	W24
	BYTE		        Cs5 
	BYTE	W12
	BYTE		        Fn5 
	BYTE	W12
	BYTE		        Cs5 
	BYTE	W12
	BYTE	PEND
// 023   ----------------------------------------
	BYTE	PATT
	 POIN2	HeartFlameSong_2_022
// 024   ----------------------------------------
HeartFlameSong_2_024:
	BYTE	W06
	BYTE		N05     Dn4   v076
	BYTE	W06
	BYTE		        Fs4 
	BYTE	W06
	BYTE		        An4 
	BYTE	W06
	BYTE		        Cs5 
	BYTE	W06
	BYTE		        An4 
	BYTE	W06
	BYTE		        Fs4 
	BYTE	W06
	BYTE		        Dn4 
	BYTE	W12
	BYTE		N05   
	BYTE	W06
	BYTE		        Fs4 
	BYTE	W06
	BYTE		        An4 
	BYTE	W06
	BYTE		        Cs5 
	BYTE	W06
	BYTE		        An4 
	BYTE	W06
	BYTE		        Fs4 
	BYTE	W06
	BYTE		        Dn4 
	BYTE	W06
	BYTE	PEND
// 025   ----------------------------------------
HeartFlameSong_2_025:
	BYTE	W06
	BYTE		N05     En4   v076
	BYTE	W06
	BYTE		        Gs4 
	BYTE	W06
	BYTE		        Bn4 
	BYTE	W06
	BYTE		        Dn5 
	BYTE	W06
	BYTE		        Bn4 
	BYTE	W06
	BYTE		        Gs4 
	BYTE	W06
	BYTE		        En4 
	BYTE	W12
	BYTE		N05   
	BYTE	W06
	BYTE		        Gs4 
	BYTE	W06
	BYTE		        Bn4 
	BYTE	W06
	BYTE		        Dn5 
	BYTE	W06
	BYTE		        Bn4 
	BYTE	W06
	BYTE		        Gs4 
	BYTE	W06
	BYTE		        En4 
	BYTE	W06
	BYTE	PEND
// 026   ----------------------------------------
HeartFlameSong_2_026:
	BYTE	W06
	BYTE		N05     Cs4   v076
	BYTE	W06
	BYTE		        En4 
	BYTE	W06
	BYTE		        An4 
	BYTE	W06
	BYTE		        Cs5 
	BYTE	W06
	BYTE		        An4 
	BYTE	W06
	BYTE		        En4 
	BYTE	W06
	BYTE		        Cs4 
	BYTE	W12
	BYTE		N05   
	BYTE	W06
	BYTE		        En4 
	BYTE	W06
	BYTE		        An4 
	BYTE	W06
	BYTE		        Cs5 
	BYTE	W06
	BYTE		        An4 
	BYTE	W06
	BYTE		        En4 
	BYTE	W06
	BYTE		        Cs4 
	BYTE	W06
	BYTE	PEND
// 027   ----------------------------------------
HeartFlameSong_2_027:
	BYTE	W06
	BYTE		N05     Cs4   v076
	BYTE	W06
	BYTE		        Fs4 
	BYTE	W06
	BYTE		        An4 
	BYTE	W06
	BYTE		        Cs5 
	BYTE	W06
	BYTE		        An4 
	BYTE	W06
	BYTE		        Fs4 
	BYTE	W06
	BYTE		        Cs4 
	BYTE	W12
	BYTE		N05   
	BYTE	W06
	BYTE		        Fs4 
	BYTE	W06
	BYTE		        An4 
	BYTE	W06
	BYTE		        Cs5 
	BYTE	W06
	BYTE		        An4 
	BYTE	W06
	BYTE		        Fs4 
	BYTE	W06
	BYTE		        Cs4 
	BYTE	W06
	BYTE	PEND
// 028   ----------------------------------------
	BYTE	PATT
	 POIN2	HeartFlameSong_2_024
// 029   ----------------------------------------
	BYTE	PATT
	 POIN2	HeartFlameSong_2_025
// 030   ----------------------------------------
	BYTE	PATT
	 POIN2	HeartFlameSong_2_026
// 031   ----------------------------------------
	BYTE	PATT
	 POIN2	HeartFlameSong_2_027
// 032   ----------------------------------------
	BYTE	PATT
	 POIN2	HeartFlameSong_2_024
// 033   ----------------------------------------
	BYTE	PATT
	 POIN2	HeartFlameSong_2_025
// 034   ----------------------------------------
	BYTE	PATT
	 POIN2	HeartFlameSong_2_026
// 035   ----------------------------------------
	BYTE	PATT
	 POIN2	HeartFlameSong_2_027
// 036   ----------------------------------------
	BYTE	PATT
	 POIN2	HeartFlameSong_2_024
// 037   ----------------------------------------
	BYTE	PATT
	 POIN2	HeartFlameSong_2_025
// 038   ----------------------------------------
	BYTE	W06
	BYTE		N05     Cs5   v076
	BYTE	W06
	BYTE		        An4 
	BYTE	W06
	BYTE		        Fs4 
	BYTE	W06
	BYTE		        Cs4 
	BYTE	W06
	BYTE		        Fs4 
	BYTE	W06
	BYTE		        An4 
	BYTE	W06
	BYTE		        Cs5 
	BYTE	W12
	BYTE		N05   
	BYTE	W06
	BYTE		        An4 
	BYTE	W06
	BYTE		        Fs4 
	BYTE	W06
	BYTE		        Cs4 
	BYTE	W06
	BYTE		        Fs4 
	BYTE	W06
	BYTE		        An4 
	BYTE	W06
	BYTE		        Cs5 
	BYTE	W06
// 039   ----------------------------------------
	BYTE	W06
	BYTE		        Bn4 
	BYTE	W06
	BYTE		        Gs4 
	BYTE	W06
	BYTE		        En4 
	BYTE	W06
	BYTE		        Bn3 
	BYTE	W06
	BYTE		        En4 
	BYTE	W06
	BYTE		        Gs4 
	BYTE	W06
	BYTE		        Bn4 
	BYTE	W12
	BYTE		N05   
	BYTE	W06
	BYTE		        Gs4 
	BYTE	W06
	BYTE		        En4 
	BYTE	W06
	BYTE		        Bn3 
	BYTE	W06
	BYTE		        En4 
	BYTE	W06
	BYTE		        Gs4 
	BYTE	W06
	BYTE		        Bn4 
	BYTE	W05
	BYTE	GoTo
	 POIN2	HeartFlameSong_2_B1
HeartFlameSong_2_B2:
	BYTE	FINE

//**************** Track 3 (Midi-Chn.3) ****************//

HeartFlameSong_3:
	BYTE	KEYSH   HeartFlameSong_key+0
HeartFlameSong_3_B1:
// 000   ----------------------------------------
	BYTE		VOICE   124
	BYTE		MODT    0
	BYTE		LFOS    44
	BYTE		VOL     127*HeartFlameSong_mvl/mxv
	BYTE		PAN     c_v+0
	BYTE		N20     Cn1   v127
	BYTE	W24
	BYTE		N20   
	BYTE	W24
	BYTE		N20   
	BYTE	W24
	BYTE		N20   
	BYTE	W24
// 001   ----------------------------------------
HeartFlameSong_3_001:
	BYTE		N20     Cn1   v127
	BYTE	W24
	BYTE		N20   
	BYTE	W24
	BYTE		N20   
	BYTE	W24
	BYTE		N20   
	BYTE	W24
	BYTE	PEND
// 002   ----------------------------------------
	BYTE	PATT
	 POIN2	HeartFlameSong_3_001
// 003   ----------------------------------------
	BYTE	PATT
	 POIN2	HeartFlameSong_3_001
// 004   ----------------------------------------
	BYTE	PATT
	 POIN2	HeartFlameSong_3_001
// 005   ----------------------------------------
	BYTE	PATT
	 POIN2	HeartFlameSong_3_001
// 006   ----------------------------------------
	BYTE	PATT
	 POIN2	HeartFlameSong_3_001
// 007   ----------------------------------------
	BYTE	PATT
	 POIN2	HeartFlameSong_3_001
// 008   ----------------------------------------
HeartFlameSong_3_008:
	BYTE		N20     Cn1   v127
	BYTE	W24
	BYTE		N20   
	BYTE		N20     Cs1 
	BYTE	W24
	BYTE		        Cn1 
	BYTE	W24
	BYTE		N20   
	BYTE		N20     Cs1 
	BYTE	W24
	BYTE	PEND
// 009   ----------------------------------------
	BYTE	PATT
	 POIN2	HeartFlameSong_3_008
// 010   ----------------------------------------
	BYTE	PATT
	 POIN2	HeartFlameSong_3_008
// 011   ----------------------------------------
	BYTE	PATT
	 POIN2	HeartFlameSong_3_008
// 012   ----------------------------------------
	BYTE	PATT
	 POIN2	HeartFlameSong_3_008
// 013   ----------------------------------------
	BYTE	PATT
	 POIN2	HeartFlameSong_3_008
// 014   ----------------------------------------
	BYTE	PATT
	 POIN2	HeartFlameSong_3_008
// 015   ----------------------------------------
	BYTE	PATT
	 POIN2	HeartFlameSong_3_008
// 016   ----------------------------------------
	BYTE	PATT
	 POIN2	HeartFlameSong_3_008
// 017   ----------------------------------------
	BYTE	PATT
	 POIN2	HeartFlameSong_3_008
// 018   ----------------------------------------
	BYTE	PATT
	 POIN2	HeartFlameSong_3_008
// 019   ----------------------------------------
	BYTE	PATT
	 POIN2	HeartFlameSong_3_008
// 020   ----------------------------------------
	BYTE	PATT
	 POIN2	HeartFlameSong_3_008
// 021   ----------------------------------------
	BYTE	PATT
	 POIN2	HeartFlameSong_3_008
// 022   ----------------------------------------
	BYTE	PATT
	 POIN2	HeartFlameSong_3_008
// 023   ----------------------------------------
	BYTE		N20     Cn1   v127
	BYTE	W24
	BYTE		N20   
	BYTE		N20     Cs1 
	BYTE	W24
	BYTE		        Cn1 
	BYTE	W24
	BYTE		N11   
	BYTE		N11     Cs1 
	BYTE		N11     En1 
	BYTE	W12
	BYTE		N05   
	BYTE	W06
	BYTE		N05   
	BYTE	W06
// 024   ----------------------------------------
	BYTE		        Bn0 
	BYTE		N05     Cn1 
	BYTE		N05     Fs1 
	BYTE		N05     An2 
	BYTE	W06
	BYTE		        Fs1 
	BYTE	W06
	BYTE		N05   
	BYTE	W06
	BYTE		N05   
	BYTE	W06
	BYTE		        Bn0 
	BYTE		N05     Cn1 
	BYTE		N05     Dn1 
	BYTE		N05     En1 
	BYTE		N05     Gs1 
	BYTE	W06
	BYTE		        Fs1 
	BYTE	W06
	BYTE		N05   
	BYTE	W06
	BYTE		N05   
	BYTE	W06
	BYTE		        Bn0 
	BYTE		N05     Cn1 
	BYTE		N05     Fs1 
	BYTE	W06
	BYTE		        Gs1 
	BYTE	W06
	BYTE		        As1 
	BYTE	W06
	BYTE		        Gs1 
	BYTE	W06
	BYTE		        Bn0 
	BYTE		N05     Cn1 
	BYTE		N05     Dn1 
	BYTE		N05     En1 
	BYTE		N05     Fs1 
	BYTE	W06
	BYTE		        Gs1 
	BYTE	W06
	BYTE		        As1 
	BYTE	W06
	BYTE		        Gs1 
	BYTE	W06
// 025   ----------------------------------------
HeartFlameSong_3_025:
	BYTE		N05     Bn0   v127
	BYTE		N05     Cn1 
	BYTE		N05     Fs1 
	BYTE	W06
	BYTE		N05   
	BYTE	W06
	BYTE		N05   
	BYTE	W06
	BYTE		N05   
	BYTE	W06
	BYTE		        Bn0 
	BYTE		N05     Cn1 
	BYTE		N05     Dn1 
	BYTE		N05     En1 
	BYTE		N05     Gs1 
	BYTE	W06
	BYTE		        Fs1 
	BYTE	W06
	BYTE		N05   
	BYTE	W06
	BYTE		N05   
	BYTE	W06
	BYTE		        Bn0 
	BYTE		N05     Cn1 
	BYTE		N05     Fs1 
	BYTE	W06
	BYTE		        Gs1 
	BYTE	W06
	BYTE		        As1 
	BYTE	W06
	BYTE		        Bn0 
	BYTE		N05     Cn1 
	BYTE		N05     Gs1 
	BYTE	W06
	BYTE		        Bn0 
	BYTE		N05     Cn1 
	BYTE		N05     Dn1 
	BYTE		N05     En1 
	BYTE		N05     Fs1 
	BYTE	W06
	BYTE		        Gs1 
	BYTE	W06
	BYTE		        Bn0 
	BYTE		N05     Cn1 
	BYTE		N05     As1 
	BYTE	W06
	BYTE		        Gs1 
	BYTE	W06
	BYTE	PEND
// 026   ----------------------------------------
HeartFlameSong_3_026:
	BYTE		N05     Bn0   v127
	BYTE		N05     Cn1 
	BYTE		N05     Fs1 
	BYTE	W06
	BYTE		N05   
	BYTE	W06
	BYTE		N05   
	BYTE	W06
	BYTE		N05   
	BYTE	W06
	BYTE		        Bn0 
	BYTE		N05     Cn1 
	BYTE		N05     Dn1 
	BYTE		N05     En1 
	BYTE		N05     Gs1 
	BYTE	W06
	BYTE		        Fs1 
	BYTE	W06
	BYTE		N05   
	BYTE	W06
	BYTE		N05   
	BYTE	W06
	BYTE		        Bn0 
	BYTE		N05     Cn1 
	BYTE		N05     Fs1 
	BYTE	W06
	BYTE		        Gs1 
	BYTE	W06
	BYTE		        As1 
	BYTE	W06
	BYTE		        Gs1 
	BYTE	W06
	BYTE		        Bn0 
	BYTE		N05     Cn1 
	BYTE		N05     Dn1 
	BYTE		N05     En1 
	BYTE		N05     Fs1 
	BYTE	W06
	BYTE		        Gs1 
	BYTE	W06
	BYTE		        As1 
	BYTE	W06
	BYTE		        Gs1 
	BYTE	W06
	BYTE	PEND
// 027   ----------------------------------------
HeartFlameSong_3_027:
	BYTE		N05     Bn0   v127
	BYTE		N05     Cn1 
	BYTE		N05     Fs1 
	BYTE	W06
	BYTE		N05   
	BYTE	W06
	BYTE		N05   
	BYTE	W06
	BYTE		N05   
	BYTE	W06
	BYTE		        Bn0 
	BYTE		N05     Cn1 
	BYTE		N05     Dn1 
	BYTE		N05     En1 
	BYTE		N05     Gs1 
	BYTE	W06
	BYTE		        Fs1 
	BYTE	W06
	BYTE		N05   
	BYTE	W06
	BYTE		N05   
	BYTE	W06
	BYTE		        Bn0 
	BYTE		N05     Cn1 
	BYTE		N05     Fs1 
	BYTE	W06
	BYTE		        Gs1 
	BYTE	W06
	BYTE		        Dn1 
	BYTE		N05     En1 
	BYTE		N05     As1 
	BYTE	W06
	BYTE		        Gs1 
	BYTE	W06
	BYTE		        Bn0 
	BYTE		N05     Cn1 
	BYTE		N05     Dn1 
	BYTE		N05     En1 
	BYTE		N05     Fs1 
	BYTE	W06
	BYTE		        Gs1 
	BYTE	W06
	BYTE		        Dn1 
	BYTE		N05     En1 
	BYTE		N05     As1 
	BYTE	W06
	BYTE		        Gs1 
	BYTE	W06
	BYTE	PEND
// 028   ----------------------------------------
	BYTE	PATT
	 POIN2	HeartFlameSong_3_026
// 029   ----------------------------------------
	BYTE	PATT
	 POIN2	HeartFlameSong_3_025
// 030   ----------------------------------------
	BYTE	PATT
	 POIN2	HeartFlameSong_3_026
// 031   ----------------------------------------
	BYTE	PATT
	 POIN2	HeartFlameSong_3_027
// 032   ----------------------------------------
	BYTE	PATT
	 POIN2	HeartFlameSong_3_026
// 033   ----------------------------------------
	BYTE	PATT
	 POIN2	HeartFlameSong_3_025
// 034   ----------------------------------------
	BYTE	PATT
	 POIN2	HeartFlameSong_3_026
// 035   ----------------------------------------
	BYTE	PATT
	 POIN2	HeartFlameSong_3_027
// 036   ----------------------------------------
	BYTE	PATT
	 POIN2	HeartFlameSong_3_026
// 037   ----------------------------------------
	BYTE	PATT
	 POIN2	HeartFlameSong_3_025
// 038   ----------------------------------------
	BYTE		N05     Bn0   v127
	BYTE		N05     Cn1 
	BYTE		N05     Fs1 
	BYTE	W06
	BYTE		N05   
	BYTE	W06
	BYTE		N05   
	BYTE	W06
	BYTE		N05   
	BYTE	W06
	BYTE		        Bn0 
	BYTE		N05     Cn1 
	BYTE		N05     Dn1 
	BYTE		N05     En1 
	BYTE		N05     Gs1 
	BYTE	W06
	BYTE		        Fs1 
	BYTE	W06
	BYTE		N05   
	BYTE	W06
	BYTE		N05   
	BYTE	W06
	BYTE		        Bn0 
	BYTE		N05     Cn1 
	BYTE		N05     Fs1 
	BYTE	W06
	BYTE		        Gs1 
	BYTE	W06
	BYTE		        Dn1 
	BYTE		N05     En1 
	BYTE		N05     As1 
	BYTE	W06
	BYTE		        Gs1 
	BYTE	W06
	BYTE		        Bn0 
	BYTE		N05     Cn1 
	BYTE		N05     Dn1 
	BYTE		N05     En1 
	BYTE		N05     Fs1 
	BYTE		N05     Dn2 
	BYTE	W06
	BYTE		        Dn1 
	BYTE		N05     En1 
	BYTE		N05     Gs1 
	BYTE		N05     Cn2 
	BYTE	W06
	BYTE		        Dn1 
	BYTE		N05     En1 
	BYTE		N05     As1 
	BYTE		N05     Bn1 
	BYTE	W06
	BYTE		        Dn1 
	BYTE		N05     En1 
	BYTE		N05     Gs1 
	BYTE		N05     An1 
	BYTE	W06
// 039   ----------------------------------------
	BYTE		N20     Fs1 
	BYTE		N20     An1 
	BYTE		N20     Bn1 
	BYTE		N20     Cn2 
	BYTE		N20     Dn2 
	BYTE		N20     An2 
	BYTE	W24
	BYTE		        Fs1 
	BYTE	W24
	BYTE		N20   
	BYTE	W24
	BYTE		N20   
	BYTE	W23
	BYTE	GoTo
	 POIN2	HeartFlameSong_3_B1
HeartFlameSong_3_B2:
	BYTE	FINE

//**************** Track 4 (Midi-Chn.4) ****************//

HeartFlameSong_4:
	BYTE	KEYSH   HeartFlameSong_key+0
HeartFlameSong_4_B1:
// 000   ----------------------------------------
	BYTE		VOICE   60
	BYTE		MODT    0
	BYTE		LFOS    44
	BYTE		PAN     c_v+9
	BYTE		VOL     122*HeartFlameSong_mvl/mxv
	BYTE	W96
// 001   ----------------------------------------
	BYTE	W96
// 002   ----------------------------------------
	BYTE	W96
// 003   ----------------------------------------
	BYTE	W96
// 004   ----------------------------------------
	BYTE	W96
// 005   ----------------------------------------
	BYTE	W96
// 006   ----------------------------------------
	BYTE	W96
// 007   ----------------------------------------
	BYTE	W84
	BYTE		N12     An3   v127
	BYTE	W12
// 008   ----------------------------------------
	BYTE		N90     Gs3 
	BYTE	W96
// 009   ----------------------------------------
HeartFlameSong_4_009:
	BYTE	W48
	BYTE		N12     Fs3   v127
	BYTE	W12
	BYTE		        Gs3 
	BYTE	W12
	BYTE		        An3 
	BYTE	W12
	BYTE		        Bn3 
	BYTE	W12
	BYTE	PEND
// 010   ----------------------------------------
	BYTE		N36     Gs3 
	BYTE	W36
	BYTE		N12     En3 
	BYTE	W12
	BYTE		N90     Cs3 
	BYTE	W48
// 011   ----------------------------------------
	BYTE	W84
	BYTE		N12     An3 
	BYTE	W12
// 012   ----------------------------------------
	BYTE		N90     Gs3 
	BYTE	W96
// 013   ----------------------------------------
	BYTE	PATT
	 POIN2	HeartFlameSong_4_009
// 014   ----------------------------------------
	BYTE		N36     Cs4   v127
	BYTE	W36
	BYTE		N12     Fs3 
	BYTE	W12
	BYTE		N90     Cs4 
	BYTE	W48
// 015   ----------------------------------------
HeartFlameSong_4_015:
	BYTE	W48
	BYTE		N24     Dn4   v127
	BYTE	W24
	BYTE		        Cs4 
	BYTE	W24
	BYTE	PEND
// 016   ----------------------------------------
	BYTE		TIE     Bn3 
	BYTE	W96
// 017   ----------------------------------------
	BYTE	W48
	BYTE		EOT   
	BYTE		N12     Gs3 
	BYTE	W12
	BYTE		        An3 
	BYTE	W12
	BYTE		        Bn3 
	BYTE	W12
	BYTE		        Gs3 
	BYTE	W12
// 018   ----------------------------------------
	BYTE		N36     An3 
	BYTE	W36
	BYTE		N12     Bn3 
	BYTE	W12
	BYTE		N90     Cs4 
	BYTE	W48
// 019   ----------------------------------------
	BYTE	PATT
	 POIN2	HeartFlameSong_4_015
// 020   ----------------------------------------
	BYTE		TIE     Bn3   v127
	BYTE	W96
// 021   ----------------------------------------
	BYTE	W48
	BYTE		EOT   
	BYTE		N12   
	BYTE	W12
	BYTE		        Cs4 
	BYTE	W12
	BYTE		        Dn4 
	BYTE	W12
	BYTE		        Fs4 
	BYTE	W12
// 022   ----------------------------------------
	BYTE		N36     Fn4 
	BYTE	W36
	BYTE		N12     Dn4 
	BYTE	W12
	BYTE		TIE     Cs4 
	BYTE	W48
// 023   ----------------------------------------
	BYTE	W90
	BYTE		EOT   
	BYTE	W06
// 024   ----------------------------------------
	BYTE		N48     Fs3 
	BYTE	W48
	BYTE		N12     Cs4 
	BYTE	W12
	BYTE		        Bn3 
	BYTE	W12
	BYTE		        An3 
	BYTE	W12
	BYTE		N60     Bn3 
	BYTE	W12
// 025   ----------------------------------------
	BYTE	W48
	BYTE		N12     Gs3 
	BYTE	W12
	BYTE		        An3 
	BYTE	W12
	BYTE		        Bn3 
	BYTE	W12
	BYTE		        En4 
	BYTE	W12
// 026   ----------------------------------------
	BYTE		N48     Cs4 
	BYTE	W48
	BYTE		N12     An3 
	BYTE	W12
	BYTE		        Gs3 
	BYTE	W12
	BYTE		        An3 
	BYTE	W12
	BYTE		N60     Bn3 
	BYTE	W12
// 027   ----------------------------------------
	BYTE	W48
	BYTE		N48     Cs4 
	BYTE	W48
// 028   ----------------------------------------
	BYTE		        An3 
	BYTE	W48
	BYTE		N12   
	BYTE	W12
	BYTE		        Gs3 
	BYTE	W12
	BYTE		        Fs3 
	BYTE	W12
	BYTE		N60     Gs3 
	BYTE	W12
// 029   ----------------------------------------
	BYTE	W48
	BYTE		N48     An3 
	BYTE	W48
// 030   ----------------------------------------
	BYTE		        Fs3 
	BYTE	W48
	BYTE		TIE     Cs3 
	BYTE	W48
// 031   ----------------------------------------
	BYTE	W90
	BYTE		EOT   
	BYTE	W06
// 032   ----------------------------------------
	BYTE		N36     Cs4 
	BYTE	W36
	BYTE		        An3 
	BYTE	W36
	BYTE		N24     Bn3 
	BYTE	W24
// 033   ----------------------------------------
	BYTE		N12     Cs4 
	BYTE	W12
	BYTE		        Dn4 
	BYTE	W12
	BYTE		        Cs4 
	BYTE	W12
	BYTE		N24     Bn3 
	BYTE	W24
	BYTE		N12     An3 
	BYTE	W12
	BYTE		        Gs3 
	BYTE	W12
	BYTE		        An3 
	BYTE	W12
// 034   ----------------------------------------
	BYTE		N36     Bn3 
	BYTE	W36
	BYTE		        En3 
	BYTE	W36
	BYTE		N24     An3 
	BYTE	W24
// 035   ----------------------------------------
	BYTE		N48     Gs3 
	BYTE	W48
	BYTE		        En3 
	BYTE	W48
// 036   ----------------------------------------
	BYTE		N12     Fs3 
	BYTE	W12
	BYTE		        En3 
	BYTE	W12
	BYTE		        Fs3 
	BYTE	W12
	BYTE		N60     An3 
	BYTE	W60
// 037   ----------------------------------------
	BYTE		N12     Bn3 
	BYTE	W12
	BYTE		        Gs3 
	BYTE	W12
	BYTE		        Bn3 
	BYTE	W12
	BYTE		N24     Dn4 
	BYTE	W24
	BYTE		N12   
	BYTE	W12
	BYTE		        Cs4 
	BYTE	W12
	BYTE		        Bn3 
	BYTE	W12
// 038   ----------------------------------------
	BYTE		N96     An3 
	BYTE	W96
// 039   ----------------------------------------
	BYTE		N90     Gs3 
	BYTE	W92
	BYTE	W03
	BYTE	GoTo
	 POIN2	HeartFlameSong_4_B1
HeartFlameSong_4_B2:
	BYTE	FINE

//**************** Track 5 (Midi-Chn.5) ****************//

HeartFlameSong_5:
	BYTE	KEYSH   HeartFlameSong_key+0
HeartFlameSong_5_B1:
// 000   ----------------------------------------
	BYTE		VOICE   55
	BYTE		MODT    0
	BYTE		LFOS    44
	BYTE		PAN     c_v+30
	BYTE		VOL     112*HeartFlameSong_mvl/mxv
	BYTE	W96
// 001   ----------------------------------------
	BYTE	W96
// 002   ----------------------------------------
	BYTE	W96
// 003   ----------------------------------------
	BYTE	W96
// 004   ----------------------------------------
	BYTE	W96
// 005   ----------------------------------------
	BYTE	W96
// 006   ----------------------------------------
	BYTE	W96
// 007   ----------------------------------------
	BYTE	W96
// 008   ----------------------------------------
HeartFlameSong_5_008:
	BYTE		N20     Cs4   v056
	BYTE	W24
	BYTE		N20   
	BYTE	W24
	BYTE		N20   
	BYTE	W24
	BYTE		N20   
	BYTE	W24
	BYTE	PEND
// 009   ----------------------------------------
HeartFlameSong_5_009:
	BYTE		N20     Dn4   v056
	BYTE	W24
	BYTE		N20   
	BYTE	W24
	BYTE		N20   
	BYTE	W24
	BYTE		N20   
	BYTE	W24
	BYTE	PEND
// 010   ----------------------------------------
	BYTE	PATT
	 POIN2	HeartFlameSong_5_008
// 011   ----------------------------------------
	BYTE	PATT
	 POIN2	HeartFlameSong_5_009
// 012   ----------------------------------------
	BYTE	PATT
	 POIN2	HeartFlameSong_5_008
// 013   ----------------------------------------
	BYTE	PATT
	 POIN2	HeartFlameSong_5_009
// 014   ----------------------------------------
	BYTE	PATT
	 POIN2	HeartFlameSong_5_008
// 015   ----------------------------------------
	BYTE	PATT
	 POIN2	HeartFlameSong_5_009
// 016   ----------------------------------------
HeartFlameSong_5_016:
	BYTE		N20     Bn3   v056
	BYTE	W24
	BYTE		N20   
	BYTE	W24
	BYTE		N20   
	BYTE	W24
	BYTE		N20   
	BYTE	W24
	BYTE	PEND
// 017   ----------------------------------------
	BYTE	PATT
	 POIN2	HeartFlameSong_5_016
// 018   ----------------------------------------
	BYTE	PATT
	 POIN2	HeartFlameSong_5_008
// 019   ----------------------------------------
	BYTE	PATT
	 POIN2	HeartFlameSong_5_008
// 020   ----------------------------------------
	BYTE	PATT
	 POIN2	HeartFlameSong_5_016
// 021   ----------------------------------------
	BYTE	PATT
	 POIN2	HeartFlameSong_5_016
// 022   ----------------------------------------
HeartFlameSong_5_022:
	BYTE		N20     Fn4   v056
	BYTE	W24
	BYTE		N20   
	BYTE	W24
	BYTE		N20   
	BYTE	W24
	BYTE		N20   
	BYTE	W24
	BYTE	PEND
// 023   ----------------------------------------
	BYTE	PATT
	 POIN2	HeartFlameSong_5_022
// 024   ----------------------------------------
	BYTE	PATT
	 POIN2	HeartFlameSong_5_008
// 025   ----------------------------------------
	BYTE	PATT
	 POIN2	HeartFlameSong_5_009
// 026   ----------------------------------------
	BYTE	PATT
	 POIN2	HeartFlameSong_5_008
// 027   ----------------------------------------
	BYTE	PATT
	 POIN2	HeartFlameSong_5_008
// 028   ----------------------------------------
	BYTE	PATT
	 POIN2	HeartFlameSong_5_008
// 029   ----------------------------------------
	BYTE	PATT
	 POIN2	HeartFlameSong_5_009
// 030   ----------------------------------------
	BYTE	PATT
	 POIN2	HeartFlameSong_5_008
// 031   ----------------------------------------
	BYTE	PATT
	 POIN2	HeartFlameSong_5_008
// 032   ----------------------------------------
	BYTE	PATT
	 POIN2	HeartFlameSong_5_008
// 033   ----------------------------------------
	BYTE	PATT
	 POIN2	HeartFlameSong_5_009
// 034   ----------------------------------------
	BYTE	PATT
	 POIN2	HeartFlameSong_5_008
// 035   ----------------------------------------
	BYTE	PATT
	 POIN2	HeartFlameSong_5_008
// 036   ----------------------------------------
	BYTE	PATT
	 POIN2	HeartFlameSong_5_008
// 037   ----------------------------------------
	BYTE	PATT
	 POIN2	HeartFlameSong_5_009
// 038   ----------------------------------------
	BYTE	PATT
	 POIN2	HeartFlameSong_5_008
// 039   ----------------------------------------
	BYTE		N20     Bn3   v056
	BYTE	W24
	BYTE		N20   
	BYTE	W24
	BYTE		N42   
	BYTE	W44
	BYTE	W03
	BYTE	GoTo
	 POIN2	HeartFlameSong_5_B1
HeartFlameSong_5_B2:
	BYTE	FINE

//**************** Track 6 (Midi-Chn.6) ****************//

HeartFlameSong_6:
	BYTE	KEYSH   HeartFlameSong_key+0
HeartFlameSong_6_B1:
// 000   ----------------------------------------
	BYTE		VOICE   48
	BYTE		MODT    0
	BYTE		LFOS    44
	BYTE		PAN     c_v-22
	BYTE		VOL     122*HeartFlameSong_mvl/mxv
	BYTE	W96
// 001   ----------------------------------------
	BYTE	W96
// 002   ----------------------------------------
	BYTE	W96
// 003   ----------------------------------------
	BYTE	W96
// 004   ----------------------------------------
	BYTE	W96
// 005   ----------------------------------------
	BYTE	W96
// 006   ----------------------------------------
	BYTE	W96
// 007   ----------------------------------------
	BYTE	W96
// 008   ----------------------------------------
	BYTE		TIE     Fs2   v056
	BYTE		TIE     An2 
	BYTE		N96     Cs3 
	BYTE	W96
// 009   ----------------------------------------
	BYTE		        Dn3 
	BYTE	W96
// 010   ----------------------------------------
	BYTE		        Cs3 
	BYTE	W96
// 011   ----------------------------------------
	BYTE		        Dn3 
	BYTE	W96
// 012   ----------------------------------------
	BYTE		        Cs3 
	BYTE	W96
// 013   ----------------------------------------
	BYTE		        Dn3 
	BYTE	W96
// 014   ----------------------------------------
	BYTE		        Cs3 
	BYTE	W96
// 015   ----------------------------------------
	BYTE		        Dn3 
	BYTE	W96
	BYTE		EOT     An2 
// 016   ----------------------------------------
	BYTE		TIE     Dn2 
	BYTE		TIE     Bn2 
	BYTE	W96
	BYTE		EOT     Fs2 
// 017   ----------------------------------------
	BYTE		N96     Gs2 
	BYTE	W96
	BYTE		EOT     Dn2 
	BYTE		        Bn2 
// 018   ----------------------------------------
	BYTE		TIE     En2 
	BYTE		TIE     An2 
	BYTE		TIE     Cs3 
	BYTE	W96
// 019   ----------------------------------------
	BYTE		N96     Gs2 
	BYTE	W96
	BYTE		EOT     En2 
	BYTE		        An2 
	BYTE		        Cs3 
// 020   ----------------------------------------
	BYTE		TIE     Dn2 
	BYTE		N96     Fs2 
	BYTE		TIE     Bn2 
	BYTE	W96
// 021   ----------------------------------------
	BYTE		N96     Gs2 
	BYTE	W96
	BYTE		EOT     Dn2 
	BYTE		        Bn2 
// 022   ----------------------------------------
	BYTE		TIE     Gs2 
	BYTE		TIE     Cs3 
	BYTE		TIE     Fn3 
	BYTE	W96
// 023   ----------------------------------------
	BYTE	W90
	BYTE		EOT     Gs2 
	BYTE		        Cs3 
	BYTE		        Fn3 
	BYTE	W06
// 024   ----------------------------------------
	BYTE		N96     Dn2 
	BYTE		N96     Fs2 
	BYTE		N96     An2 
	BYTE		N96     Cs3 
	BYTE	W96
// 025   ----------------------------------------
HeartFlameSong_6_025:
	BYTE		TIE     En2   v056
	BYTE		N96     Gs2 
	BYTE		N96     Bn2 
	BYTE		N96     Dn3 
	BYTE	W96
	BYTE	PEND
// 026   ----------------------------------------
HeartFlameSong_6_026:
	BYTE		TIE     Cs2   v056
	BYTE		TIE     An2 
	BYTE		TIE     Cs3 
	BYTE	W96
	BYTE	PEND
	BYTE		EOT     En2 
// 027   ----------------------------------------
	BYTE		TIE     Fs2 
	BYTE	W96
	BYTE		EOT     Cs2 
// 028   ----------------------------------------
	BYTE		N96     Dn2 
	BYTE	W96
	BYTE		EOT     Fs2 
	BYTE		        An2 
	BYTE		        Cs3 
// 029   ----------------------------------------
	BYTE	PATT
	 POIN2	HeartFlameSong_6_025
// 030   ----------------------------------------
	BYTE	PATT
	 POIN2	HeartFlameSong_6_026
	BYTE		EOT     En2 
// 031   ----------------------------------------
	BYTE		TIE     Fs2   v056
	BYTE	W96
	BYTE		EOT     Cs2 
// 032   ----------------------------------------
	BYTE		N96     Dn2 
	BYTE	W96
	BYTE		EOT     Fs2 
	BYTE		        An2 
	BYTE		        Cs3 
// 033   ----------------------------------------
	BYTE	PATT
	 POIN2	HeartFlameSong_6_025
// 034   ----------------------------------------
	BYTE	PATT
	 POIN2	HeartFlameSong_6_026
	BYTE		EOT     En2 
// 035   ----------------------------------------
	BYTE		TIE     Fs2   v056
	BYTE	W96
	BYTE		EOT     Cs2 
// 036   ----------------------------------------
	BYTE		N96     Dn2 
	BYTE	W96
	BYTE		EOT     Fs2 
	BYTE		        An2 
	BYTE		        Cs3 
// 037   ----------------------------------------
	BYTE		N96     En2 
	BYTE		N96     Gs2 
	BYTE		N96     Bn2 
	BYTE		N96     Dn3 
	BYTE	W96
// 038   ----------------------------------------
	BYTE		        Cs2 
	BYTE		N96     Fs2 
	BYTE		N96     An2 
	BYTE		N96     Cs3 
	BYTE	W96
// 039   ----------------------------------------
	BYTE		N90     Bn1 
	BYTE		N90     En2 
	BYTE		N90     Gs2 
	BYTE		N90     Bn2 
	BYTE	W92
	BYTE	W03
	BYTE	GoTo
	 POIN2	HeartFlameSong_6_B1
HeartFlameSong_6_B2:
	BYTE	FINE

//******************************************************//
	ALIGN 4

HeartFlameSong:
	BYTE	6	// NumTrks
	BYTE	0	// NumBlks
	BYTE	HeartFlameSong_pri	// Priority
	BYTE	HeartFlameSong_rev	// Reverb.

	POIN2	HeartFlameSong_grp

	POIN2	HeartFlameSong_1
	POIN2	HeartFlameSong_2
	POIN2	HeartFlameSong_3
	POIN2	HeartFlameSong_4
	POIN2	HeartFlameSong_5
	POIN2	HeartFlameSong_6

	
