//Event file generated from Sappy .s format.
	#include "MPlayDef.event"

	#define	ImperiusTwins_FINAL_grp  voicegroup000
	#define	ImperiusTwins_FINAL_pri  0
	#define	ImperiusTwins_FINAL_rev  0
	#define	ImperiusTwins_FINAL_mvl  26
	#define	ImperiusTwins_FINAL_key  0
	#define	ImperiusTwins_FINAL_tbs  1
	#define	ImperiusTwins_FINAL_exg  0
	#define	ImperiusTwins_FINAL_cmp  1

	// .rodata
	//	ImperiusTwins_FINAL
	ALIGN 4

//**************** Track 1 (Midi-Chn.1) ****************//

ImperiusTwins_FINAL_1:
	BYTE	KEYSH   ImperiusTwins_FINAL_key+0
ImperiusTwins_FINAL_1_B1:
// 000   ----------------------------------------
	BYTE	TEMPO   140*ImperiusTwins_FINAL_tbs/2
	BYTE		VOICE   52
	BYTE		MODT    0
	BYTE		LFOS    44
	BYTE		PAN     c_v-19
	BYTE		VOL     127*ImperiusTwins_FINAL_mvl/mxv
	BYTE		TIE     An3   v076
	BYTE		TIE     Dn4 
	BYTE		TIE     Fn4 
	BYTE		N48     Dn5 
	BYTE	W48
	BYTE		        Cn5 
	BYTE	W48
// 001   ----------------------------------------
	BYTE		        As4 
	BYTE	W48
	BYTE		        An4 
	BYTE	W42
	BYTE		EOT     An3 
	BYTE	W06
// 002   ----------------------------------------
	BYTE		N90     As3 
	BYTE		N48     As4 
	BYTE	W48
	BYTE		        An4 
	BYTE	W48
// 003   ----------------------------------------
	BYTE		N90     Bn3 
	BYTE		N48     Gn4 
	BYTE	W48
	BYTE		EOT     Fn4 
	BYTE		N42   
	BYTE	W42
	BYTE		EOT     Dn4 
	BYTE	W06
// 004   ----------------------------------------
ImperiusTwins_FINAL_1_004:
	BYTE		N06     Cn4   v076
	BYTE		N06     En4 
	BYTE		N06     Gn4 
	BYTE	W18
	BYTE		        Cn4 
	BYTE		N06     En4 
	BYTE		N06     Gn4 
	BYTE	W18
	BYTE		N54     Cn4 
	BYTE		N54     En4 
	BYTE		N54     Gn4 
	BYTE	W60
	BYTE	PEND
// 005   ----------------------------------------
	BYTE	PATT
	 POIN2	ImperiusTwins_FINAL_1_004
// 006   ----------------------------------------
ImperiusTwins_FINAL_1_006:
	BYTE		N06     As3   v076
	BYTE		N06     Dn4 
	BYTE		N06     Fn4 
	BYTE		N06     Gn4 
	BYTE	W18
	BYTE		        As3 
	BYTE		N06     Dn4 
	BYTE		N06     Fn4 
	BYTE		N06     Gn4 
	BYTE	W18
	BYTE		N54     As3 
	BYTE		N54     Dn4 
	BYTE		N54     Fn4 
	BYTE		N54     Gn4 
	BYTE	W60
	BYTE	PEND
// 007   ----------------------------------------
	BYTE	PATT
	 POIN2	ImperiusTwins_FINAL_1_006
// 008   ----------------------------------------
	BYTE	PATT
	 POIN2	ImperiusTwins_FINAL_1_004
// 009   ----------------------------------------
	BYTE	PATT
	 POIN2	ImperiusTwins_FINAL_1_004
// 010   ----------------------------------------
	BYTE	PATT
	 POIN2	ImperiusTwins_FINAL_1_006
// 011   ----------------------------------------
	BYTE	PATT
	 POIN2	ImperiusTwins_FINAL_1_006
// 012   ----------------------------------------
	BYTE		N90     Bn3   v076
	BYTE		N90     Dn4 
	BYTE		N24     Gn4 
	BYTE	W24
	BYTE		        Bn4 
	BYTE	W24
	BYTE		        Dn5 
	BYTE	W24
	BYTE		        En5 
	BYTE	W24
// 013   ----------------------------------------
	BYTE		N90     An3 
	BYTE		N90     Dn4 
	BYTE		N36     Dn5 
	BYTE	W36
	BYTE		N12     An4 
	BYTE	W12
	BYTE		N48   
	BYTE	W48
// 014   ----------------------------------------
	BYTE		N90     An3 
	BYTE		N90     Cn4 
	BYTE		N24     Fn4 
	BYTE	W24
	BYTE		        An4 
	BYTE	W24
	BYTE		        Bn4 
	BYTE	W24
	BYTE		        Cn5 
	BYTE	W24
// 015   ----------------------------------------
	BYTE		N90     Bn3 
	BYTE		N90     Dn4 
	BYTE		N36     Bn4 
	BYTE	W36
	BYTE		N12     En4 
	BYTE	W12
	BYTE		N42   
	BYTE	W48
// 016   ----------------------------------------
	BYTE		N06     Cn4 
	BYTE		N06     En4 
	BYTE		N06     Gn4 
	BYTE	W18
	BYTE		        Cn4 
	BYTE		N06     En4 
	BYTE		N06     Gn4 
	BYTE	W18
	BYTE		N54     An3 
	BYTE		N54     Dn4 
	BYTE		N54     Fs4 
	BYTE	W60
// 017   ----------------------------------------
	BYTE		N06     Dn4 
	BYTE		N06     Fn4 
	BYTE		N06     An4 
	BYTE	W18
	BYTE		        Dn4 
	BYTE		N06     Fn4 
	BYTE		N06     An4 
	BYTE	W18
	BYTE		N54     Bn3 
	BYTE		N54     En4 
	BYTE		N54     Gn4 
	BYTE	W60
// 018   ----------------------------------------
	BYTE		TIE     An3 
	BYTE		TIE     Dn4 
	BYTE		N90     En4 
	BYTE		N90     Gn4 
	BYTE	W96
// 019   ----------------------------------------
	BYTE		        Fs4 
	BYTE	W90
	BYTE		EOT     An3 
	BYTE		        Dn4 
	BYTE	W06
// 020   ----------------------------------------
	BYTE		N06   
	BYTE		N06     Fn4 
	BYTE		N06     Gn4 
	BYTE		N06     An4 
	BYTE	W18
	BYTE		        Dn4 
	BYTE		N06     Fn4 
	BYTE		N06     Gn4 
	BYTE		N06     An4 
	BYTE	W18
	BYTE		N54     Dn4 
	BYTE		N54     Fn4 
	BYTE		N54     Gn4 
	BYTE		N54     An4 
	BYTE	W60
// 021   ----------------------------------------
	BYTE		N06     Cn4 
	BYTE		N06     En4 
	BYTE		N06     Gn4 
	BYTE		N06     As4 
	BYTE	W18
	BYTE		        Cn4 
	BYTE		N06     En4 
	BYTE		N06     Gn4 
	BYTE		N06     As4 
	BYTE	W18
	BYTE		N54     Cn4 
	BYTE		N54     En4 
	BYTE		N54     Gn4 
	BYTE		N54     As4 
	BYTE	W60
// 022   ----------------------------------------
	BYTE		N42     Dn4 
	BYTE		N42     Fn4 
	BYTE		N42     As4 
	BYTE	W48
	BYTE		        En4 
	BYTE		N42     Gn4 
	BYTE		TIE     Cn5 
	BYTE	W48
// 023   ----------------------------------------
	BYTE		N42     Fn4 
	BYTE		N90     An4 
	BYTE	W48
	BYTE		N42     En4 
	BYTE	W42
	BYTE		EOT     Cn5 
	BYTE	W06
// 024   ----------------------------------------
	BYTE		N06     Dn4 
	BYTE		N06     Fn4 
	BYTE		N06     Gn4 
	BYTE		N06     An4 
	BYTE	W18
	BYTE		        Dn4 
	BYTE		N06     Fn4 
	BYTE		N06     Gn4 
	BYTE		N06     An4 
	BYTE	W18
	BYTE		N54     Cn4 
	BYTE		N54     En4 
	BYTE		N54     Gn4 
	BYTE		N54     As4 
	BYTE	W60
// 025   ----------------------------------------
	BYTE		N06     Cn4 
	BYTE		N06     Dn4 
	BYTE		N06     Fn4 
	BYTE		N06     As4 
	BYTE	W18
	BYTE		        Cn4 
	BYTE		N06     Dn4 
	BYTE		N06     Fn4 
	BYTE		N06     As4 
	BYTE	W18
	BYTE		N54     Cn4 
	BYTE		N54     Dn4 
	BYTE		N54     Fn4 
	BYTE		N54     An4 
	BYTE	W60
// 026   ----------------------------------------
	BYTE		N90     Dn4 
	BYTE		N90     Fn4 
	BYTE		N90     As4 
	BYTE	W96
// 027   ----------------------------------------
	BYTE		        Dn4 
	BYTE		N90     Fn4 
	BYTE		N90     Gn4 
	BYTE		N90     Bn4 
	BYTE	W96
// 028   ----------------------------------------
	BYTE		TIE     En4 
	BYTE		TIE     Gn4 
	BYTE		N48     Cn5 
	BYTE	W48
	BYTE		        Dn5 
	BYTE	W48
// 029   ----------------------------------------
	BYTE		        En5 
	BYTE	W48
	BYTE		N42     Gn5 
	BYTE	W42
	BYTE		EOT     En4 
	BYTE	W06
// 030   ----------------------------------------
	BYTE		TIE     Dn4 
	BYTE		N42     Bn4 
	BYTE	W48
	BYTE		        Cn5 
	BYTE	W48
// 031   ----------------------------------------
	BYTE		        Dn5 
	BYTE	W48
	BYTE		        En5 
	BYTE	W42
	BYTE		EOT     Dn4 
	BYTE		        Gn4 
	BYTE	W06
	BYTE	GoTo
	 POIN2	ImperiusTwins_FINAL_1_B1
ImperiusTwins_FINAL_1_B2:
// 032   ----------------------------------------
	BYTE	W96
// 033   ----------------------------------------
	BYTE	W96
// 034   ----------------------------------------
	BYTE	W96
// 035   ----------------------------------------
	BYTE	W96
// 036   ----------------------------------------
	BYTE	W96
// 037   ----------------------------------------
	BYTE	W96
// 038   ----------------------------------------
	BYTE	W96
// 039   ----------------------------------------
	BYTE	W96
// 040   ----------------------------------------
	BYTE	W96
// 041   ----------------------------------------
	BYTE	W96
// 042   ----------------------------------------
	BYTE	W96
// 043   ----------------------------------------
	BYTE	W96
// 044   ----------------------------------------
	BYTE	W96
// 045   ----------------------------------------
	BYTE	W96
// 046   ----------------------------------------
	BYTE	FINE

//**************** Track 2 (Midi-Chn.2) ****************//

ImperiusTwins_FINAL_2:
	BYTE	KEYSH   ImperiusTwins_FINAL_key+0
ImperiusTwins_FINAL_2_B1:
// 000   ----------------------------------------
	BYTE		VOICE   61
	BYTE		MODT    0
	BYTE		LFOS    44
	BYTE		PAN     c_v-48
	BYTE		VOL     117*ImperiusTwins_FINAL_mvl/mxv
	BYTE	W96
// 001   ----------------------------------------
	BYTE	W96
// 002   ----------------------------------------
	BYTE	W96
// 003   ----------------------------------------
	BYTE	W96
// 004   ----------------------------------------
	BYTE		N48     Cn3   v127
	BYTE	W48
	BYTE		N12     Gn3 
	BYTE	W12
	BYTE		        Fn3 
	BYTE	W12
	BYTE		        Ds3 
	BYTE	W12
	BYTE		N60     Fn3 
	BYTE	W12
// 005   ----------------------------------------
	BYTE	W48
	BYTE		N12     Dn3 
	BYTE	W12
	BYTE		        Ds3 
	BYTE	W12
	BYTE		        Fn3 
	BYTE	W12
	BYTE		        As3 
	BYTE	W12
// 006   ----------------------------------------
	BYTE		N48     Gn3 
	BYTE	W48
	BYTE		N12     Ds3 
	BYTE	W12
	BYTE		        Dn3 
	BYTE	W12
	BYTE		        Ds3 
	BYTE	W12
	BYTE		N60     Fn3 
	BYTE	W12
// 007   ----------------------------------------
	BYTE	W48
	BYTE		N48     Gn3 
	BYTE	W48
// 008   ----------------------------------------
	BYTE		        Ds3 
	BYTE	W48
	BYTE		N12   
	BYTE	W12
	BYTE		        Dn3 
	BYTE	W12
	BYTE		        Cn3 
	BYTE	W12
	BYTE		N60     Dn3 
	BYTE	W12
// 009   ----------------------------------------
	BYTE	W48
	BYTE		N48     Ds3 
	BYTE	W48
// 010   ----------------------------------------
	BYTE		        Cn3 
	BYTE	W48
	BYTE		TIE     Gn2 
	BYTE	W48
// 011   ----------------------------------------
	BYTE	W90
	BYTE		EOT   
	BYTE	W06
// 012   ----------------------------------------
	BYTE		N36     Gn3 
	BYTE	W36
	BYTE		        Ds3 
	BYTE	W36
	BYTE		N24     Fn3 
	BYTE	W24
// 013   ----------------------------------------
	BYTE		N12     Gn3 
	BYTE	W12
	BYTE		        Gs3 
	BYTE	W12
	BYTE		        Gn3 
	BYTE	W12
	BYTE		N24     Fn3 
	BYTE	W24
	BYTE		N12     Ds3 
	BYTE	W12
	BYTE		        Dn3 
	BYTE	W12
	BYTE		        Ds3 
	BYTE	W12
// 014   ----------------------------------------
	BYTE		N36     Fn3 
	BYTE	W36
	BYTE		        As2 
	BYTE	W36
	BYTE		N24     Ds3 
	BYTE	W24
// 015   ----------------------------------------
	BYTE		N48     Dn3 
	BYTE	W48
	BYTE		        As2 
	BYTE	W48
// 016   ----------------------------------------
	BYTE		N12     Cn3 
	BYTE	W12
	BYTE		        As2 
	BYTE	W12
	BYTE		        Cn3 
	BYTE	W12
	BYTE		N60     Ds3 
	BYTE	W60
// 017   ----------------------------------------
	BYTE		N12     Fn3 
	BYTE	W12
	BYTE		        Dn3 
	BYTE	W12
	BYTE		        Fn3 
	BYTE	W12
	BYTE		N24     Gs3 
	BYTE	W24
	BYTE		N12   
	BYTE	W12
	BYTE		        Gn3 
	BYTE	W12
	BYTE		        Fn3 
	BYTE	W12
// 018   ----------------------------------------
	BYTE		N96     Ds3 
	BYTE	W96
// 019   ----------------------------------------
	BYTE		N90     Dn3 
	BYTE	W96
// 020   ----------------------------------------
	BYTE	W96
// 021   ----------------------------------------
	BYTE	W96
// 022   ----------------------------------------
	BYTE	W96
// 023   ----------------------------------------
	BYTE	W96
// 024   ----------------------------------------
	BYTE	W96
// 025   ----------------------------------------
	BYTE	W96
// 026   ----------------------------------------
	BYTE	W96
// 027   ----------------------------------------
	BYTE	W96
// 028   ----------------------------------------
	BYTE	W96
// 029   ----------------------------------------
	BYTE	W96
// 030   ----------------------------------------
	BYTE	W96
// 031   ----------------------------------------
	BYTE	W96
	BYTE	GoTo
	 POIN2	ImperiusTwins_FINAL_2_B1
ImperiusTwins_FINAL_2_B2:
// 032   ----------------------------------------
	BYTE	W96
// 033   ----------------------------------------
	BYTE	W96
// 034   ----------------------------------------
	BYTE	W96
// 035   ----------------------------------------
	BYTE	W96
// 036   ----------------------------------------
	BYTE	W96
// 037   ----------------------------------------
	BYTE	W96
// 038   ----------------------------------------
	BYTE	W96
// 039   ----------------------------------------
	BYTE	W96
// 040   ----------------------------------------
	BYTE	W96
// 041   ----------------------------------------
	BYTE	W96
// 042   ----------------------------------------
	BYTE	W96
// 043   ----------------------------------------
	BYTE	W96
// 044   ----------------------------------------
	BYTE	W96
// 045   ----------------------------------------
	BYTE	W96
// 046   ----------------------------------------
	BYTE	FINE

//**************** Track 3 (Midi-Chn.3) ****************//

ImperiusTwins_FINAL_3:
	BYTE	KEYSH   ImperiusTwins_FINAL_key+0
ImperiusTwins_FINAL_3_B1:
// 000   ----------------------------------------
	BYTE		VOICE   52
	BYTE		MODT    0
	BYTE		LFOS    44
	BYTE		PAN     c_v+46
	BYTE		VOL     103*ImperiusTwins_FINAL_mvl/mxv
	BYTE	W96
// 001   ----------------------------------------
	BYTE	W96
// 002   ----------------------------------------
	BYTE	W96
// 003   ----------------------------------------
	BYTE	W96
// 004   ----------------------------------------
	BYTE		N48     Cn4   v127
	BYTE	W48
	BYTE		N12     Gn4 
	BYTE	W12
	BYTE		        Fn4 
	BYTE	W12
	BYTE		        Ds4 
	BYTE	W12
	BYTE		N60     Fn4 
	BYTE	W12
// 005   ----------------------------------------
	BYTE	W48
	BYTE		N12     Dn4 
	BYTE	W12
	BYTE		        Ds4 
	BYTE	W12
	BYTE		        Fn4 
	BYTE	W12
	BYTE		        As4 
	BYTE	W12
// 006   ----------------------------------------
	BYTE		N48     Gn4 
	BYTE	W48
	BYTE		N12     Ds4 
	BYTE	W12
	BYTE		        Dn4 
	BYTE	W12
	BYTE		        Ds4 
	BYTE	W12
	BYTE		N60     Fn4 
	BYTE	W12
// 007   ----------------------------------------
	BYTE	W48
	BYTE		N48     Gn4 
	BYTE	W48
// 008   ----------------------------------------
	BYTE		        Ds4 
	BYTE	W48
	BYTE		N12   
	BYTE	W12
	BYTE		        Dn4 
	BYTE	W12
	BYTE		        Cn4 
	BYTE	W12
	BYTE		N60     Dn4 
	BYTE	W12
// 009   ----------------------------------------
	BYTE	W48
	BYTE		N48     Ds4 
	BYTE	W48
// 010   ----------------------------------------
	BYTE		        Cn4 
	BYTE	W48
	BYTE		TIE     Gn3 
	BYTE	W48
// 011   ----------------------------------------
	BYTE	W90
	BYTE		EOT   
	BYTE	W06
// 012   ----------------------------------------
	BYTE		N36     Gn4 
	BYTE	W36
	BYTE		        Ds4 
	BYTE	W36
	BYTE		N24     Fn4 
	BYTE	W24
// 013   ----------------------------------------
	BYTE		N12     Gn4 
	BYTE	W12
	BYTE		        Gs4 
	BYTE	W12
	BYTE		        Gn4 
	BYTE	W12
	BYTE		N24     Fn4 
	BYTE	W24
	BYTE		N12     Ds4 
	BYTE	W12
	BYTE		        Dn4 
	BYTE	W12
	BYTE		        Ds4 
	BYTE	W12
// 014   ----------------------------------------
	BYTE		N36     Fn4 
	BYTE	W36
	BYTE		        As3 
	BYTE	W36
	BYTE		N24     Ds4 
	BYTE	W24
// 015   ----------------------------------------
	BYTE		N48     Dn4 
	BYTE	W48
	BYTE		        As3 
	BYTE	W48
// 016   ----------------------------------------
	BYTE		N12     Cn4 
	BYTE	W12
	BYTE		        As3 
	BYTE	W12
	BYTE		        Cn4 
	BYTE	W12
	BYTE		N60     Ds4 
	BYTE	W60
// 017   ----------------------------------------
	BYTE		N12     Fn4 
	BYTE	W12
	BYTE		        Dn4 
	BYTE	W12
	BYTE		        Fn4 
	BYTE	W12
	BYTE		N24     Gs4 
	BYTE	W24
	BYTE		N12   
	BYTE	W12
	BYTE		        Gn4 
	BYTE	W12
	BYTE		        Fn4 
	BYTE	W12
// 018   ----------------------------------------
	BYTE		N96     Ds4 
	BYTE	W96
// 019   ----------------------------------------
	BYTE		N90     Dn4 
	BYTE	W96
// 020   ----------------------------------------
	BYTE	W96
// 021   ----------------------------------------
	BYTE	W96
// 022   ----------------------------------------
	BYTE	W96
// 023   ----------------------------------------
	BYTE	W96
// 024   ----------------------------------------
	BYTE	W96
// 025   ----------------------------------------
	BYTE	W96
// 026   ----------------------------------------
	BYTE	W96
// 027   ----------------------------------------
	BYTE	W96
// 028   ----------------------------------------
	BYTE	W96
// 029   ----------------------------------------
	BYTE	W96
// 030   ----------------------------------------
	BYTE	W96
// 031   ----------------------------------------
	BYTE	W96
	BYTE	GoTo
	 POIN2	ImperiusTwins_FINAL_3_B1
ImperiusTwins_FINAL_3_B2:
// 032   ----------------------------------------
	BYTE	W96
// 033   ----------------------------------------
	BYTE	W96
// 034   ----------------------------------------
	BYTE	W96
// 035   ----------------------------------------
	BYTE	W96
// 036   ----------------------------------------
	BYTE	W96
// 037   ----------------------------------------
	BYTE	W96
// 038   ----------------------------------------
	BYTE	W96
// 039   ----------------------------------------
	BYTE	W96
// 040   ----------------------------------------
	BYTE	W96
// 041   ----------------------------------------
	BYTE	W96
// 042   ----------------------------------------
	BYTE	W96
// 043   ----------------------------------------
	BYTE	W96
// 044   ----------------------------------------
	BYTE	W96
// 045   ----------------------------------------
	BYTE	W96
// 046   ----------------------------------------
	BYTE	FINE

//**************** Track 4 (Midi-Chn.4) ****************//

ImperiusTwins_FINAL_4:
	BYTE	KEYSH   ImperiusTwins_FINAL_key+0
ImperiusTwins_FINAL_4_B1:
// 000   ----------------------------------------
	BYTE		VOICE   0
	BYTE		MODT    0
	BYTE		LFOS    44
	BYTE		PAN     c_v-19
	BYTE		VOL     117*ImperiusTwins_FINAL_mvl/mxv
	BYTE		N05     Fn4   v076
	BYTE	W06
	BYTE		        En4 
	BYTE	W06
	BYTE		        Dn4 
	BYTE	W06
	BYTE		        En4 
	BYTE	W06
	BYTE		        Fn4 
	BYTE	W06
	BYTE		        An4 
	BYTE	W06
	BYTE		        Gn4 
	BYTE	W06
	BYTE		        An4 
	BYTE	W06
	BYTE		        Cn5 
	BYTE	W06
	BYTE		        As4 
	BYTE	W06
	BYTE		        An4 
	BYTE	W06
	BYTE		        Cn5 
	BYTE	W06
	BYTE		        Dn5 
	BYTE	W06
	BYTE		        An4 
	BYTE	W06
	BYTE		        Fn4 
	BYTE	W06
	BYTE		        Dn4 
	BYTE	W06
// 001   ----------------------------------------
	BYTE		        Fn4 
	BYTE	W06
	BYTE		        En4 
	BYTE	W06
	BYTE		        Dn4 
	BYTE	W06
	BYTE		        En4 
	BYTE	W06
	BYTE		        Fn4 
	BYTE	W06
	BYTE		        An4 
	BYTE	W06
	BYTE		        Gn4 
	BYTE	W06
	BYTE		        An4 
	BYTE	W06
	BYTE		        Cn5 
	BYTE	W06
	BYTE		        As4 
	BYTE	W06
	BYTE		        An4 
	BYTE	W06
	BYTE		        Cn5 
	BYTE	W06
	BYTE		        Dn5 
	BYTE	W06
	BYTE		        An4 
	BYTE	W06
	BYTE		        Fn4 
	BYTE	W06
	BYTE		        Dn4 
	BYTE	W06
// 002   ----------------------------------------
	BYTE		        Fn4 
	BYTE	W06
	BYTE		        En4 
	BYTE	W06
	BYTE		        Dn4 
	BYTE	W06
	BYTE		        En4 
	BYTE	W06
	BYTE		        Fn4 
	BYTE	W06
	BYTE		        As4 
	BYTE	W06
	BYTE		        An4 
	BYTE	W06
	BYTE		        As4 
	BYTE	W06
	BYTE		        Dn5 
	BYTE	W06
	BYTE		        Cn5 
	BYTE	W06
	BYTE		        As4 
	BYTE	W06
	BYTE		        Dn5 
	BYTE	W06
	BYTE		        Fn5 
	BYTE	W06
	BYTE		        En5 
	BYTE	W06
	BYTE		        Dn5 
	BYTE	W06
	BYTE		        As4 
	BYTE	W06
// 003   ----------------------------------------
	BYTE		        Fn4 
	BYTE	W06
	BYTE		        En4 
	BYTE	W06
	BYTE		        Dn4 
	BYTE	W06
	BYTE		        En4 
	BYTE	W06
	BYTE		        Fn4 
	BYTE	W06
	BYTE		        Bn4 
	BYTE	W06
	BYTE		        An4 
	BYTE	W06
	BYTE		        Bn4 
	BYTE	W06
	BYTE		        Dn5 
	BYTE	W06
	BYTE		        Cn5 
	BYTE	W06
	BYTE		        Bn4 
	BYTE	W06
	BYTE		        Dn5 
	BYTE	W06
	BYTE		        Fn5 
	BYTE	W06
	BYTE		        En5 
	BYTE	W06
	BYTE		        Dn5 
	BYTE	W06
	BYTE		        Bn4 
	BYTE	W06
// 004   ----------------------------------------
ImperiusTwins_FINAL_4_004:
	BYTE		N05     Gn4   v076
	BYTE	W06
	BYTE		        Fn4 
	BYTE	W06
	BYTE		        En4 
	BYTE	W06
	BYTE		        Fn4 
	BYTE	W06
	BYTE		        Gn4 
	BYTE	W06
	BYTE		        Cn5 
	BYTE	W06
	BYTE		        As4 
	BYTE	W06
	BYTE		        Cn5 
	BYTE	W06
	BYTE		        En5 
	BYTE	W06
	BYTE		        Dn5 
	BYTE	W06
	BYTE		        Cn5 
	BYTE	W06
	BYTE		        Gn4 
	BYTE	W06
	BYTE		        En4 
	BYTE	W06
	BYTE		        Dn4 
	BYTE	W06
	BYTE		        Cn4 
	BYTE	W06
	BYTE		        En4 
	BYTE	W06
	BYTE	PEND
// 005   ----------------------------------------
	BYTE	PATT
	 POIN2	ImperiusTwins_FINAL_4_004
// 006   ----------------------------------------
ImperiusTwins_FINAL_4_006:
	BYTE		N05     Fn4   v076
	BYTE	W06
	BYTE		        En4 
	BYTE	W06
	BYTE		        Dn4 
	BYTE	W06
	BYTE		        En4 
	BYTE	W06
	BYTE		        Fn4 
	BYTE	W06
	BYTE		        Gn4 
	BYTE	W06
	BYTE		        As4 
	BYTE	W06
	BYTE		        Gn4 
	BYTE	W06
	BYTE		        Dn5 
	BYTE	W06
	BYTE		        Cn5 
	BYTE	W06
	BYTE		        As4 
	BYTE	W06
	BYTE		        Cn5 
	BYTE	W06
	BYTE		        Dn5 
	BYTE	W06
	BYTE		        As4 
	BYTE	W06
	BYTE		        An4 
	BYTE	W06
	BYTE		        Gn4 
	BYTE	W06
	BYTE	PEND
// 007   ----------------------------------------
ImperiusTwins_FINAL_4_007:
	BYTE		N05     Fn4   v076
	BYTE	W06
	BYTE		        En4 
	BYTE	W06
	BYTE		        Dn4 
	BYTE	W06
	BYTE		        En4 
	BYTE	W06
	BYTE		        Fn4 
	BYTE	W06
	BYTE		        Gn4 
	BYTE	W06
	BYTE		        As4 
	BYTE	W06
	BYTE		        Gn4 
	BYTE	W06
	BYTE		        Dn5 
	BYTE	W06
	BYTE		        Cn5 
	BYTE	W06
	BYTE		        As4 
	BYTE	W06
	BYTE		        Cn5 
	BYTE	W06
	BYTE		        Dn5 
	BYTE	W06
	BYTE		        As4 
	BYTE	W06
	BYTE		        An4 
	BYTE	W06
	BYTE		        Fn4 
	BYTE	W06
	BYTE	PEND
// 008   ----------------------------------------
	BYTE	PATT
	 POIN2	ImperiusTwins_FINAL_4_004
// 009   ----------------------------------------
	BYTE	PATT
	 POIN2	ImperiusTwins_FINAL_4_004
// 010   ----------------------------------------
	BYTE	PATT
	 POIN2	ImperiusTwins_FINAL_4_006
// 011   ----------------------------------------
	BYTE	PATT
	 POIN2	ImperiusTwins_FINAL_4_007
// 012   ----------------------------------------
	BYTE		N05     Gn4   v076
	BYTE	W06
	BYTE		        Bn4 
	BYTE	W06
	BYTE		        Dn5 
	BYTE	W06
	BYTE		        Gn5 
	BYTE	W06
	BYTE		        Gn4 
	BYTE	W06
	BYTE		        Bn4 
	BYTE	W06
	BYTE		        Dn5 
	BYTE	W06
	BYTE		        Gn5 
	BYTE	W06
	BYTE		        Gn4 
	BYTE	W06
	BYTE		        Bn4 
	BYTE	W06
	BYTE		        Dn5 
	BYTE	W06
	BYTE		        Gn5 
	BYTE	W06
	BYTE		        Gn4 
	BYTE	W06
	BYTE		        Bn4 
	BYTE	W06
	BYTE		        Dn5 
	BYTE	W06
	BYTE		        Gn5 
	BYTE	W06
// 013   ----------------------------------------
	BYTE		        Fs4 
	BYTE	W06
	BYTE		        An4 
	BYTE	W06
	BYTE		        Dn5 
	BYTE	W06
	BYTE		        Fs5 
	BYTE	W06
	BYTE		        Fs4 
	BYTE	W06
	BYTE		        An4 
	BYTE	W06
	BYTE		        Dn5 
	BYTE	W06
	BYTE		        Fs5 
	BYTE	W06
	BYTE		        Fs4 
	BYTE	W06
	BYTE		        An4 
	BYTE	W06
	BYTE		        Dn5 
	BYTE	W06
	BYTE		        Fs5 
	BYTE	W06
	BYTE		        Fs4 
	BYTE	W06
	BYTE		        An4 
	BYTE	W06
	BYTE		        Dn5 
	BYTE	W06
	BYTE		        Fs5 
	BYTE	W06
// 014   ----------------------------------------
	BYTE		        Fn4 
	BYTE	W06
	BYTE		        An4 
	BYTE	W06
	BYTE		        Cn5 
	BYTE	W06
	BYTE		        Fn5 
	BYTE	W06
	BYTE		        Fn4 
	BYTE	W06
	BYTE		        An4 
	BYTE	W06
	BYTE		        Cn5 
	BYTE	W06
	BYTE		        Fn5 
	BYTE	W06
	BYTE		        Fn4 
	BYTE	W06
	BYTE		        An4 
	BYTE	W06
	BYTE		        Cn5 
	BYTE	W06
	BYTE		        Fn5 
	BYTE	W06
	BYTE		        Fn4 
	BYTE	W06
	BYTE		        An4 
	BYTE	W06
	BYTE		        Cn5 
	BYTE	W06
	BYTE		        Fn5 
	BYTE	W06
// 015   ----------------------------------------
	BYTE		        En4 
	BYTE	W06
	BYTE		        Gn4 
	BYTE	W06
	BYTE		        Bn4 
	BYTE	W06
	BYTE		        En5 
	BYTE	W06
	BYTE		        En4 
	BYTE	W06
	BYTE		        Gn4 
	BYTE	W06
	BYTE		        Bn4 
	BYTE	W06
	BYTE		        En5 
	BYTE	W06
	BYTE		        En4 
	BYTE	W06
	BYTE		        Gn4 
	BYTE	W06
	BYTE		        Bn4 
	BYTE	W06
	BYTE		        En5 
	BYTE	W06
	BYTE		        En4 
	BYTE	W06
	BYTE		        Gn4 
	BYTE	W06
	BYTE		        Bn4 
	BYTE	W06
	BYTE		        En5 
	BYTE	W06
// 016   ----------------------------------------
	BYTE		N06     Cn4 
	BYTE		N06     En4 
	BYTE		N06     Gn4 
	BYTE	W18
	BYTE		        Cn4 
	BYTE		N06     En4 
	BYTE		N06     Gn4 
	BYTE	W18
	BYTE		N54     An3 
	BYTE		N54     Dn4 
	BYTE		N54     Fs4 
	BYTE	W60
// 017   ----------------------------------------
	BYTE		N06     Dn4 
	BYTE		N06     Fn4 
	BYTE		N06     An4 
	BYTE	W18
	BYTE		        Dn4 
	BYTE		N06     Fn4 
	BYTE		N06     An4 
	BYTE	W18
	BYTE		N54     Bn3 
	BYTE		N54     En4 
	BYTE		N54     Gn4 
	BYTE	W60
// 018   ----------------------------------------
	BYTE		TIE     An3 
	BYTE		TIE     Dn4 
	BYTE		N90     En4 
	BYTE		N90     Gn4 
	BYTE	W96
// 019   ----------------------------------------
	BYTE		        Fs4 
	BYTE	W90
	BYTE		EOT     An3 
	BYTE		        Dn4 
	BYTE	W06
// 020   ----------------------------------------
	BYTE		N42     Dn6   v127
	BYTE	W48
	BYTE		N15     Fn6 
	BYTE	W16
	BYTE		        En6 
	BYTE	W16
	BYTE		        Dn6 
	BYTE	W16
// 021   ----------------------------------------
	BYTE		N05     Cn6 
	BYTE	W06
	BYTE		        Gn5 
	BYTE	W06
	BYTE		        En5 
	BYTE	W06
	BYTE		        Gn5 
	BYTE	W06
	BYTE		        En6 
	BYTE	W06
	BYTE		        Cn6 
	BYTE	W06
	BYTE		        Gn5 
	BYTE	W06
	BYTE		        Cn6 
	BYTE	W06
	BYTE		N15     En6 
	BYTE	W16
	BYTE		        Dn6 
	BYTE	W16
	BYTE		        Cn6 
	BYTE	W16
// 022   ----------------------------------------
	BYTE		        As5 
	BYTE	W16
	BYTE		        Cn6 
	BYTE	W16
	BYTE		        Dn6 
	BYTE	W16
	BYTE		        Cn6 
	BYTE	W16
	BYTE		        Dn6 
	BYTE	W16
	BYTE		        En6 
	BYTE	W16
// 023   ----------------------------------------
	BYTE		N05     Fn6 
	BYTE	W06
	BYTE		        Cn6 
	BYTE	W06
	BYTE		        An5 
	BYTE	W06
	BYTE		        Cn6 
	BYTE	W06
	BYTE		        Fn6 
	BYTE	W06
	BYTE		        Cn6 
	BYTE	W06
	BYTE		        An5 
	BYTE	W06
	BYTE		        Cn6 
	BYTE	W06
	BYTE		        En6 
	BYTE	W06
	BYTE		        Cn6 
	BYTE	W06
	BYTE		        An5 
	BYTE	W06
	BYTE		        Cn6 
	BYTE	W06
	BYTE		        En6 
	BYTE	W06
	BYTE		        Cn6 
	BYTE	W06
	BYTE		        An5 
	BYTE	W06
	BYTE		        Cn6 
	BYTE	W06
// 024   ----------------------------------------
	BYTE		N15     Dn6 
	BYTE	W16
	BYTE		        En6 
	BYTE	W16
	BYTE		        Fn6 
	BYTE	W16
	BYTE		N42     Cn6 
	BYTE	W48
// 025   ----------------------------------------
	BYTE		N15     As5 
	BYTE	W16
	BYTE		        Cn6 
	BYTE	W16
	BYTE		        Dn6 
	BYTE	W16
	BYTE		N42     An5 
	BYTE	W48
// 026   ----------------------------------------
	BYTE		N20     As5 
	BYTE	W24
	BYTE		        Dn6 
	BYTE	W24
	BYTE		        Fn6 
	BYTE	W24
	BYTE		        Dn6 
	BYTE	W24
// 027   ----------------------------------------
	BYTE		        Bn5 
	BYTE	W24
	BYTE		        Dn6 
	BYTE	W24
	BYTE		        Fn6 
	BYTE	W24
	BYTE		N05     Dn6 
	BYTE	W06
	BYTE		        Bn5   v116
	BYTE	W06
	BYTE		        Gn5   v100
	BYTE	W06
	BYTE		        Dn5   v088
	BYTE	W06
// 028   ----------------------------------------
ImperiusTwins_FINAL_4_028:
	BYTE		N05     Cn5   v076
	BYTE	W06
	BYTE		        An4 
	BYTE	W06
	BYTE		        Gn4 
	BYTE	W06
	BYTE		        En4 
	BYTE	W06
	BYTE		        Fn4 
	BYTE	W06
	BYTE		        Gn4 
	BYTE	W06
	BYTE		        Cn5 
	BYTE	W06
	BYTE		        An4 
	BYTE	W06
	BYTE		        Gn4 
	BYTE	W06
	BYTE		        Fn4 
	BYTE	W06
	BYTE		        En4 
	BYTE	W06
	BYTE		        Cn4 
	BYTE	W06
	BYTE		        Dn4 
	BYTE	W06
	BYTE		        Fn4 
	BYTE	W06
	BYTE		        En4 
	BYTE	W06
	BYTE		        Gn4 
	BYTE	W06
	BYTE	PEND
// 029   ----------------------------------------
	BYTE	PATT
	 POIN2	ImperiusTwins_FINAL_4_028
// 030   ----------------------------------------
ImperiusTwins_FINAL_4_030:
	BYTE		N05     Bn4   v076
	BYTE	W06
	BYTE		        An4 
	BYTE	W06
	BYTE		        Gn4 
	BYTE	W06
	BYTE		        En4 
	BYTE	W06
	BYTE		        Dn4 
	BYTE	W06
	BYTE		        Gn4 
	BYTE	W06
	BYTE		        An4 
	BYTE	W06
	BYTE		        Gn4 
	BYTE	W06
	BYTE		        Bn4 
	BYTE	W06
	BYTE		        An4 
	BYTE	W06
	BYTE		        Bn4 
	BYTE	W06
	BYTE		        Dn5 
	BYTE	W06
	BYTE		        Gn5 
	BYTE	W06
	BYTE		        Dn5 
	BYTE	W06
	BYTE		        Bn4 
	BYTE	W06
	BYTE		        Gn4 
	BYTE	W06
	BYTE	PEND
// 031   ----------------------------------------
	BYTE	PATT
	 POIN2	ImperiusTwins_FINAL_4_030
	BYTE	GoTo
	 POIN2	ImperiusTwins_FINAL_4_B1
ImperiusTwins_FINAL_4_B2:
// 032   ----------------------------------------
	BYTE	W96
// 033   ----------------------------------------
	BYTE	W96
// 034   ----------------------------------------
	BYTE	W96
// 035   ----------------------------------------
	BYTE	W96
// 036   ----------------------------------------
	BYTE	W96
// 037   ----------------------------------------
	BYTE	W96
// 038   ----------------------------------------
	BYTE	W96
// 039   ----------------------------------------
	BYTE	W96
// 040   ----------------------------------------
	BYTE	W96
// 041   ----------------------------------------
	BYTE	W96
// 042   ----------------------------------------
	BYTE	W96
// 043   ----------------------------------------
	BYTE	W96
// 044   ----------------------------------------
	BYTE	W96
// 045   ----------------------------------------
	BYTE	W96
// 046   ----------------------------------------
	BYTE	FINE

//**************** Track 5 (Midi-Chn.5) ****************//

ImperiusTwins_FINAL_5:
	BYTE	KEYSH   ImperiusTwins_FINAL_key+0
ImperiusTwins_FINAL_5_B1:
// 000   ----------------------------------------
	BYTE		VOICE   127
	BYTE		MODT    0
	BYTE		LFOS    44
	BYTE		VOL     127*ImperiusTwins_FINAL_mvl/mxv
	BYTE		PAN     c_v+0
	BYTE		N05     Bn0   v127
	BYTE		N05     Cn1 
	BYTE		N05     Fs1 
	BYTE		N05     An2 
	BYTE	W06
	BYTE		        Gs1 
	BYTE	W06
	BYTE		        Bn0 
	BYTE		N05     Cn1 
	BYTE		N05     As1 
	BYTE	W06
	BYTE		        Gs1 
	BYTE	W06
	BYTE		        Bn0 
	BYTE		N05     Cn1 
	BYTE		N05     Fs1 
	BYTE	W06
	BYTE		        Gs1 
	BYTE	W06
	BYTE		        Bn0 
	BYTE		N05     Cn1 
	BYTE		N05     As1 
	BYTE	W06
	BYTE		        Gs1 
	BYTE	W06
	BYTE		        Bn0 
	BYTE		N05     Cn1 
	BYTE		N05     Fs1 
	BYTE	W06
	BYTE		        Gs1 
	BYTE	W06
	BYTE		        Bn0 
	BYTE		N05     Cn1 
	BYTE		N05     As1 
	BYTE	W06
	BYTE		        Gs1 
	BYTE	W06
	BYTE		        Bn0 
	BYTE		N05     Cn1 
	BYTE		N05     Dn1 
	BYTE		N05     En1 
	BYTE		N05     Fs1 
	BYTE	W06
	BYTE		        Dn1 
	BYTE		N05     En1 
	BYTE		N05     Gs1 
	BYTE	W06
	BYTE		        Bn0 
	BYTE		N05     Cn1 
	BYTE		N05     As1 
	BYTE	W06
	BYTE		        Gs1 
	BYTE	W06
// 001   ----------------------------------------
ImperiusTwins_FINAL_5_001:
	BYTE		N05     Bn0   v127
	BYTE		N05     Cn1 
	BYTE		N05     Fs1 
	BYTE		N05     An2 
	BYTE	W06
	BYTE		        Gs1 
	BYTE	W06
	BYTE		        Bn0 
	BYTE		N05     Cn1 
	BYTE		N05     As1 
	BYTE	W06
	BYTE		        Gs1 
	BYTE	W06
	BYTE		        Bn0 
	BYTE		N05     Cn1 
	BYTE		N05     Fs1 
	BYTE	W06
	BYTE		        Gs1 
	BYTE	W06
	BYTE		        Bn0 
	BYTE		N05     Cn1 
	BYTE		N05     As1 
	BYTE	W06
	BYTE		        Gs1 
	BYTE	W06
	BYTE		        Bn0 
	BYTE		N05     Cn1 
	BYTE		N05     Fs1 
	BYTE	W06
	BYTE		        Gs1 
	BYTE	W06
	BYTE		        Bn0 
	BYTE		N05     Cn1 
	BYTE		N05     As1 
	BYTE	W06
	BYTE		        Gs1 
	BYTE	W06
	BYTE		        Bn0 
	BYTE		N05     Cn1 
	BYTE		N05     Dn1 
	BYTE		N05     En1 
	BYTE		N05     Fs1 
	BYTE	W06
	BYTE		        Dn1 
	BYTE		N05     En1 
	BYTE		N05     Gs1 
	BYTE	W06
	BYTE		        Bn0 
	BYTE		N05     Cn1 
	BYTE		N05     As1 
	BYTE	W06
	BYTE		        Gs1 
	BYTE	W06
	BYTE	PEND
// 002   ----------------------------------------
	BYTE	PATT
	 POIN2	ImperiusTwins_FINAL_5_001
// 003   ----------------------------------------
ImperiusTwins_FINAL_5_003:
	BYTE		N05     Bn0   v127
	BYTE		N05     Cn1 
	BYTE		N05     Fs1 
	BYTE		N05     An2 
	BYTE	W06
	BYTE		        Gs1 
	BYTE	W06
	BYTE		        Bn0 
	BYTE		N05     Cn1 
	BYTE		N05     As1 
	BYTE	W06
	BYTE		        Gs1 
	BYTE	W06
	BYTE		        Bn0 
	BYTE		N05     Cn1 
	BYTE		N05     Fs1 
	BYTE	W06
	BYTE		        Gs1 
	BYTE	W06
	BYTE		        Bn0 
	BYTE		N05     Cn1 
	BYTE		N05     As1 
	BYTE	W06
	BYTE		        Gs1 
	BYTE	W06
	BYTE		        Bn0 
	BYTE		N05     Cn1 
	BYTE		N05     Fs1 
	BYTE	W06
	BYTE		        Gs1 
	BYTE	W06
	BYTE		        Bn0 
	BYTE		N05     Cn1 
	BYTE		N05     As1 
	BYTE	W06
	BYTE		        Gs1 
	BYTE	W06
	BYTE		        Dn1 
	BYTE		N05     En1 
	BYTE		N05     Fn1 
	BYTE		N05     Dn2 
	BYTE		N05     An2 
	BYTE	W06
	BYTE		        Gn1 
	BYTE		N05     Cn2 
	BYTE	W06
	BYTE		        An1 
	BYTE		N05     Bn1 
	BYTE	W06
	BYTE		        Gn1 
	BYTE		N05     An1 
	BYTE	W06
	BYTE	PEND
// 004   ----------------------------------------
ImperiusTwins_FINAL_5_004:
	BYTE		N05     Bn0   v127
	BYTE		N05     Cn1 
	BYTE		N05     Fs1 
	BYTE		N05     An2 
	BYTE	W06
	BYTE		        Gs1 
	BYTE	W06
	BYTE		        As1 
	BYTE	W06
	BYTE		        Gs1 
	BYTE	W06
	BYTE		        Dn1 
	BYTE		N05     En1 
	BYTE		N05     Fs1 
	BYTE	W06
	BYTE		        Gs1 
	BYTE	W06
	BYTE		        As1 
	BYTE	W06
	BYTE		        Gs1 
	BYTE	W06
	BYTE		        Bn0 
	BYTE		N05     Cn1 
	BYTE		N05     Fs1 
	BYTE	W06
	BYTE		        Dn1 
	BYTE		N05     En1 
	BYTE		N05     Gs1 
	BYTE	W06
	BYTE		        As1 
	BYTE	W06
	BYTE		        Gs1 
	BYTE	W06
	BYTE		        Dn1 
	BYTE		N05     En1 
	BYTE		N05     Fs1 
	BYTE	W06
	BYTE		        Gs1 
	BYTE	W06
	BYTE		        As1 
	BYTE	W06
	BYTE		        Gs1 
	BYTE	W06
	BYTE	PEND
// 005   ----------------------------------------
ImperiusTwins_FINAL_5_005:
	BYTE		N05     Bn0   v127
	BYTE		N05     Cn1 
	BYTE		N05     Fs1 
	BYTE	W06
	BYTE		        Gs1 
	BYTE	W06
	BYTE		        As1 
	BYTE	W06
	BYTE		        Gs1 
	BYTE	W06
	BYTE		        Dn1 
	BYTE		N05     En1 
	BYTE		N05     Fs1 
	BYTE	W06
	BYTE		        Gs1 
	BYTE	W06
	BYTE		        As1 
	BYTE	W06
	BYTE		        Gs1 
	BYTE	W06
	BYTE		        Bn0 
	BYTE		N05     Cn1 
	BYTE		N05     Fs1 
	BYTE	W06
	BYTE		        Dn1 
	BYTE		N05     En1 
	BYTE		N05     Gs1 
	BYTE	W06
	BYTE		        As1 
	BYTE	W06
	BYTE		        Gs1 
	BYTE	W06
	BYTE		        Dn1 
	BYTE		N05     En1 
	BYTE		N05     Fs1 
	BYTE	W06
	BYTE		        Gs1 
	BYTE	W06
	BYTE		        As1 
	BYTE	W06
	BYTE		        Gs1 
	BYTE	W06
	BYTE	PEND
// 006   ----------------------------------------
	BYTE	PATT
	 POIN2	ImperiusTwins_FINAL_5_004
// 007   ----------------------------------------
ImperiusTwins_FINAL_5_007:
	BYTE		N05     Bn0   v127
	BYTE		N05     Cn1 
	BYTE		N05     Fs1 
	BYTE		N05     An2 
	BYTE	W06
	BYTE		        Gs1 
	BYTE	W06
	BYTE		        As1 
	BYTE	W06
	BYTE		        Gs1 
	BYTE	W06
	BYTE		        Dn1 
	BYTE		N05     En1 
	BYTE		N05     Fs1 
	BYTE	W06
	BYTE		        Gs1 
	BYTE	W06
	BYTE		        As1 
	BYTE	W06
	BYTE		        Gn1 
	BYTE		N05     An2 
	BYTE	W06
	BYTE		        Bn0 
	BYTE		N05     Cn1 
	BYTE		N05     Fs1 
	BYTE	W06
	BYTE		        Gs1 
	BYTE	W06
	BYTE		        As1 
	BYTE	W06
	BYTE		        Gs1 
	BYTE	W06
	BYTE		        Dn1 
	BYTE		N05     En1 
	BYTE		N05     Fs1 
	BYTE		N05     Dn2 
	BYTE	W06
	BYTE		        Gs1 
	BYTE		N05     Cn2 
	BYTE	W06
	BYTE		        As1 
	BYTE		N05     Bn1 
	BYTE	W06
	BYTE		        Gn1 
	BYTE		N05     An1 
	BYTE	W06
	BYTE	PEND
// 008   ----------------------------------------
	BYTE	PATT
	 POIN2	ImperiusTwins_FINAL_5_004
// 009   ----------------------------------------
	BYTE	PATT
	 POIN2	ImperiusTwins_FINAL_5_005
// 010   ----------------------------------------
	BYTE	PATT
	 POIN2	ImperiusTwins_FINAL_5_004
// 011   ----------------------------------------
	BYTE	PATT
	 POIN2	ImperiusTwins_FINAL_5_007
// 012   ----------------------------------------
	BYTE	PATT
	 POIN2	ImperiusTwins_FINAL_5_004
// 013   ----------------------------------------
	BYTE	PATT
	 POIN2	ImperiusTwins_FINAL_5_005
// 014   ----------------------------------------
	BYTE	PATT
	 POIN2	ImperiusTwins_FINAL_5_005
// 015   ----------------------------------------
	BYTE	PATT
	 POIN2	ImperiusTwins_FINAL_5_005
// 016   ----------------------------------------
ImperiusTwins_FINAL_5_016:
	BYTE		N05     Bn0   v127
	BYTE		N05     Cn1 
	BYTE		N05     Fs1 
	BYTE		N05     An2 
	BYTE	W06
	BYTE		        Gs1 
	BYTE	W06
	BYTE		        As1 
	BYTE	W06
	BYTE		        Gs1 
	BYTE	W06
	BYTE		        Dn1 
	BYTE		N05     En1 
	BYTE		N05     Fs1 
	BYTE		N05     Dn2 
	BYTE	W06
	BYTE		        Gs1 
	BYTE		N05     Cn2 
	BYTE	W06
	BYTE		        As1 
	BYTE		N05     Bn1 
	BYTE	W06
	BYTE		        Gn1 
	BYTE		N05     An1 
	BYTE	W06
	BYTE		        Bn0 
	BYTE		N05     Cn1 
	BYTE		N05     Fs1 
	BYTE		N05     An2 
	BYTE	W06
	BYTE		        Gs1 
	BYTE	W06
	BYTE		        As1 
	BYTE	W06
	BYTE		        Gs1 
	BYTE	W06
	BYTE		        Dn1 
	BYTE		N05     En1 
	BYTE		N05     Fs1 
	BYTE		N05     Dn2 
	BYTE	W06
	BYTE		        Gs1 
	BYTE		N05     Cn2 
	BYTE	W06
	BYTE		        As1 
	BYTE		N05     Bn1 
	BYTE	W06
	BYTE		        Gn1 
	BYTE		N05     An1 
	BYTE	W06
	BYTE	PEND
// 017   ----------------------------------------
	BYTE	PATT
	 POIN2	ImperiusTwins_FINAL_5_016
// 018   ----------------------------------------
	BYTE	PATT
	 POIN2	ImperiusTwins_FINAL_5_004
// 019   ----------------------------------------
	BYTE	PATT
	 POIN2	ImperiusTwins_FINAL_5_007
// 020   ----------------------------------------
ImperiusTwins_FINAL_5_020:
	BYTE		N05     Bn0   v127
	BYTE		N05     Cn1 
	BYTE		N05     Fs1 
	BYTE		N05     An2 
	BYTE	W06
	BYTE		        Gs1 
	BYTE	W06
	BYTE		        Dn1 
	BYTE		N05     En1 
	BYTE		N05     As1 
	BYTE	W06
	BYTE		        Gs1 
	BYTE	W06
	BYTE		        Bn0 
	BYTE		N05     Cn1 
	BYTE		N05     Fs1 
	BYTE	W06
	BYTE		        Gs1 
	BYTE	W06
	BYTE		        Dn1 
	BYTE		N05     En1 
	BYTE		N05     As1 
	BYTE	W06
	BYTE		        Fs1 
	BYTE	W06
	BYTE		        Bn0 
	BYTE		N05     Cn1 
	BYTE		N05     Fs1 
	BYTE	W06
	BYTE		        Gs1 
	BYTE	W06
	BYTE		        Dn1 
	BYTE		N05     En1 
	BYTE		N05     As1 
	BYTE	W06
	BYTE		        Fs1 
	BYTE	W06
	BYTE		        Bn0 
	BYTE		N05     Cn1 
	BYTE		N05     Fs1 
	BYTE	W06
	BYTE		        Gs1 
	BYTE	W06
	BYTE		        Dn1 
	BYTE		N05     En1 
	BYTE		N05     As1 
	BYTE	W06
	BYTE		        Fs1 
	BYTE	W06
	BYTE	PEND
// 021   ----------------------------------------
ImperiusTwins_FINAL_5_021:
	BYTE		N05     Bn0   v127
	BYTE		N05     Cn1 
	BYTE		N05     Fs1 
	BYTE	W06
	BYTE		        Gs1 
	BYTE	W06
	BYTE		        Dn1 
	BYTE		N05     En1 
	BYTE		N05     As1 
	BYTE	W06
	BYTE		        Gs1 
	BYTE	W06
	BYTE		        Bn0 
	BYTE		N05     Cn1 
	BYTE		N05     Fs1 
	BYTE	W06
	BYTE		        Gs1 
	BYTE	W06
	BYTE		        Dn1 
	BYTE		N05     En1 
	BYTE		N05     As1 
	BYTE	W06
	BYTE		        Fs1 
	BYTE	W06
	BYTE		        Bn0 
	BYTE		N05     Cn1 
	BYTE		N05     Fs1 
	BYTE	W06
	BYTE		        Gs1 
	BYTE	W06
	BYTE		        Dn1 
	BYTE		N05     En1 
	BYTE		N05     As1 
	BYTE	W06
	BYTE		        Fs1 
	BYTE	W06
	BYTE		        Bn0 
	BYTE		N05     Cn1 
	BYTE		N05     Fs1 
	BYTE	W06
	BYTE		        Gs1 
	BYTE	W06
	BYTE		        Dn1 
	BYTE		N05     En1 
	BYTE		N05     As1 
	BYTE	W06
	BYTE		        Fs1 
	BYTE	W06
	BYTE	PEND
// 022   ----------------------------------------
	BYTE	PATT
	 POIN2	ImperiusTwins_FINAL_5_021
// 023   ----------------------------------------
ImperiusTwins_FINAL_5_023:
	BYTE		N05     Bn0   v127
	BYTE		N05     Cn1 
	BYTE		N05     Fs1 
	BYTE	W06
	BYTE		        Gs1 
	BYTE	W06
	BYTE		        Dn1 
	BYTE		N05     En1 
	BYTE		N05     As1 
	BYTE	W06
	BYTE		        Gs1 
	BYTE	W06
	BYTE		        Bn0 
	BYTE		N05     Cn1 
	BYTE		N05     Fs1 
	BYTE	W06
	BYTE		        Gs1 
	BYTE	W06
	BYTE		        Dn1 
	BYTE		N05     En1 
	BYTE		N05     As1 
	BYTE	W06
	BYTE		        Fs1 
	BYTE	W06
	BYTE		        Bn0 
	BYTE		N05     Cn1 
	BYTE		N05     Fs1 
	BYTE	W06
	BYTE		        Gs1 
	BYTE	W06
	BYTE		        Dn1 
	BYTE		N05     En1 
	BYTE		N05     As1 
	BYTE	W06
	BYTE		        Fs1 
	BYTE	W06
	BYTE		        Bn0 
	BYTE		N05     Cn1 
	BYTE		N05     Dn1 
	BYTE		N05     En1 
	BYTE		N05     Fs1 
	BYTE	W06
	BYTE		        Dn1 
	BYTE		N05     En1 
	BYTE		N05     Gs1 
	BYTE	W06
	BYTE		        Dn1 
	BYTE		N05     En1 
	BYTE		N05     As1 
	BYTE	W06
	BYTE		        Dn1 
	BYTE		N05     En1 
	BYTE		N05     Fs1 
	BYTE	W06
	BYTE	PEND
// 024   ----------------------------------------
	BYTE	PATT
	 POIN2	ImperiusTwins_FINAL_5_020
// 025   ----------------------------------------
	BYTE	PATT
	 POIN2	ImperiusTwins_FINAL_5_021
// 026   ----------------------------------------
	BYTE	PATT
	 POIN2	ImperiusTwins_FINAL_5_021
// 027   ----------------------------------------
	BYTE	PATT
	 POIN2	ImperiusTwins_FINAL_5_023
// 028   ----------------------------------------
	BYTE	PATT
	 POIN2	ImperiusTwins_FINAL_5_001
// 029   ----------------------------------------
	BYTE	PATT
	 POIN2	ImperiusTwins_FINAL_5_001
// 030   ----------------------------------------
	BYTE	PATT
	 POIN2	ImperiusTwins_FINAL_5_001
// 031   ----------------------------------------
	BYTE	PATT
	 POIN2	ImperiusTwins_FINAL_5_003
	BYTE	GoTo
	 POIN2	ImperiusTwins_FINAL_5_B1
ImperiusTwins_FINAL_5_B2:
// 032   ----------------------------------------
	BYTE	W96
// 033   ----------------------------------------
	BYTE	W96
// 034   ----------------------------------------
	BYTE	W96
// 035   ----------------------------------------
	BYTE	W96
// 036   ----------------------------------------
	BYTE	W96
// 037   ----------------------------------------
	BYTE	W96
// 038   ----------------------------------------
	BYTE	W96
// 039   ----------------------------------------
	BYTE	W96
// 040   ----------------------------------------
	BYTE	W96
// 041   ----------------------------------------
	BYTE	W96
// 042   ----------------------------------------
	BYTE	W96
// 043   ----------------------------------------
	BYTE	W96
// 044   ----------------------------------------
	BYTE	W96
// 045   ----------------------------------------
	BYTE	W96
// 046   ----------------------------------------
	BYTE	FINE

//**************** Track 6 (Midi-Chn.6) ****************//

ImperiusTwins_FINAL_6:
	BYTE	KEYSH   ImperiusTwins_FINAL_key+0
ImperiusTwins_FINAL_6_B1:
// 000   ----------------------------------------
	BYTE		VOICE   47
	BYTE		MODT    0
	BYTE		LFOS    44
	BYTE		PAN     c_v+31
	BYTE		VOL     127*ImperiusTwins_FINAL_mvl/mxv
	BYTE		N24     As2   v084
	BYTE	W72
	BYTE		N12   
	BYTE	W12
	BYTE		N12   
	BYTE	W12
// 001   ----------------------------------------
ImperiusTwins_FINAL_6_001:
	BYTE		N24     As2   v084
	BYTE	W24
	BYTE		N24   
	BYTE	W72
	BYTE	PEND
// 002   ----------------------------------------
	BYTE	W72
	BYTE		N24   
	BYTE	W24
// 003   ----------------------------------------
	BYTE	PATT
	 POIN2	ImperiusTwins_FINAL_6_001
// 004   ----------------------------------------
ImperiusTwins_FINAL_6_004:
	BYTE		N24     As2   v084
	BYTE	W72
	BYTE		N12   
	BYTE	W12
	BYTE		N12   
	BYTE	W12
	BYTE	PEND
// 005   ----------------------------------------
	BYTE	PATT
	 POIN2	ImperiusTwins_FINAL_6_001
// 006   ----------------------------------------
	BYTE	W72
	BYTE		N24     As2   v084
	BYTE	W24
// 007   ----------------------------------------
	BYTE	PATT
	 POIN2	ImperiusTwins_FINAL_6_001
// 008   ----------------------------------------
	BYTE	PATT
	 POIN2	ImperiusTwins_FINAL_6_004
// 009   ----------------------------------------
	BYTE	PATT
	 POIN2	ImperiusTwins_FINAL_6_001
// 010   ----------------------------------------
	BYTE	W72
	BYTE		N24     As2   v084
	BYTE	W24
// 011   ----------------------------------------
	BYTE	PATT
	 POIN2	ImperiusTwins_FINAL_6_001
// 012   ----------------------------------------
	BYTE	PATT
	 POIN2	ImperiusTwins_FINAL_6_004
// 013   ----------------------------------------
	BYTE	PATT
	 POIN2	ImperiusTwins_FINAL_6_001
// 014   ----------------------------------------
	BYTE	W72
	BYTE		N24     As2   v084
	BYTE	W24
// 015   ----------------------------------------
	BYTE		N12     As2   v072
	BYTE	W12
	BYTE		        Gs2 
	BYTE	W12
	BYTE		        As2   v060
	BYTE	W12
	BYTE		        Gs2   v048
	BYTE	W24
	BYTE		        As2   v060
	BYTE	W12
	BYTE		        As2   v072
	BYTE	W12
	BYTE		        As2   v084
	BYTE	W12
// 016   ----------------------------------------
	BYTE	PATT
	 POIN2	ImperiusTwins_FINAL_6_004
// 017   ----------------------------------------
	BYTE	PATT
	 POIN2	ImperiusTwins_FINAL_6_001
// 018   ----------------------------------------
	BYTE	W72
	BYTE		N24     As2   v084
	BYTE	W24
// 019   ----------------------------------------
	BYTE	PATT
	 POIN2	ImperiusTwins_FINAL_6_001
// 020   ----------------------------------------
	BYTE	PATT
	 POIN2	ImperiusTwins_FINAL_6_004
// 021   ----------------------------------------
	BYTE	PATT
	 POIN2	ImperiusTwins_FINAL_6_001
// 022   ----------------------------------------
	BYTE	W72
	BYTE		N24     As2   v084
	BYTE	W24
// 023   ----------------------------------------
	BYTE	PATT
	 POIN2	ImperiusTwins_FINAL_6_001
// 024   ----------------------------------------
	BYTE	PATT
	 POIN2	ImperiusTwins_FINAL_6_004
// 025   ----------------------------------------
	BYTE	PATT
	 POIN2	ImperiusTwins_FINAL_6_001
// 026   ----------------------------------------
	BYTE	W72
	BYTE		N24     As2   v084
	BYTE	W24
// 027   ----------------------------------------
	BYTE	PATT
	 POIN2	ImperiusTwins_FINAL_6_001
// 028   ----------------------------------------
	BYTE	PATT
	 POIN2	ImperiusTwins_FINAL_6_004
// 029   ----------------------------------------
	BYTE	PATT
	 POIN2	ImperiusTwins_FINAL_6_001
// 030   ----------------------------------------
	BYTE	W72
	BYTE		N24     As2   v084
	BYTE	W24
// 031   ----------------------------------------
	BYTE		N12   
	BYTE	W12
	BYTE		        Gs2   v072
	BYTE	W12
	BYTE		        As2   v060
	BYTE	W12
	BYTE		        Gs2   v048
	BYTE	W24
	BYTE		        As2   v060
	BYTE	W12
	BYTE		        As2   v072
	BYTE	W12
	BYTE		        As2   v084
	BYTE	W12
	BYTE	GoTo
	 POIN2	ImperiusTwins_FINAL_6_B1
ImperiusTwins_FINAL_6_B2:
// 032   ----------------------------------------
	BYTE	W96
// 033   ----------------------------------------
	BYTE	W96
// 034   ----------------------------------------
	BYTE	W96
// 035   ----------------------------------------
	BYTE	W96
// 036   ----------------------------------------
	BYTE	W96
// 037   ----------------------------------------
	BYTE	W96
// 038   ----------------------------------------
	BYTE	W96
// 039   ----------------------------------------
	BYTE	W96
// 040   ----------------------------------------
	BYTE	W96
// 041   ----------------------------------------
	BYTE	W96
// 042   ----------------------------------------
	BYTE	W96
// 043   ----------------------------------------
	BYTE	W96
// 044   ----------------------------------------
	BYTE	W96
// 045   ----------------------------------------
	BYTE	W96
// 046   ----------------------------------------
	BYTE	FINE

//**************** Track 7 (Midi-Chn.7) ****************//

ImperiusTwins_FINAL_7:
	BYTE	KEYSH   ImperiusTwins_FINAL_key+0
ImperiusTwins_FINAL_7_B1:
// 000   ----------------------------------------
	BYTE		VOICE   48
	BYTE		MODT    0
	BYTE		LFOS    44
	BYTE		VOL     122*ImperiusTwins_FINAL_mvl/mxv
	BYTE		PAN     c_v+6
	BYTE		N17     Dn2   v127
	BYTE	W18
	BYTE		        An1 
	BYTE	W18
	BYTE		N20     Dn2 
	BYTE	W24
	BYTE		N11     En2 
	BYTE	W12
	BYTE		        Fn2 
	BYTE	W12
	BYTE		        En2 
	BYTE	W12
// 001   ----------------------------------------
	BYTE		N17     Dn2 
	BYTE	W18
	BYTE		        An1 
	BYTE	W18
	BYTE		N20     Dn2 
	BYTE	W24
	BYTE		N11     En2 
	BYTE	W12
	BYTE		        Fn2 
	BYTE	W12
	BYTE		        En2 
	BYTE	W12
// 002   ----------------------------------------
	BYTE		N17     Dn2 
	BYTE	W18
	BYTE		        As1 
	BYTE	W18
	BYTE		N20     Dn2 
	BYTE	W24
	BYTE		N11     En2 
	BYTE	W12
	BYTE		        Fn2 
	BYTE	W12
	BYTE		        En2 
	BYTE	W12
// 003   ----------------------------------------
	BYTE		N17     Dn2 
	BYTE	W18
	BYTE		        Bn1 
	BYTE	W18
	BYTE		N32     Dn2 
	BYTE	W36
	BYTE		N05     Cn2 
	BYTE	W06
	BYTE		        Bn1 
	BYTE	W06
	BYTE		        An1 
	BYTE	W06
	BYTE		        Gn1 
	BYTE	W06
// 004   ----------------------------------------
ImperiusTwins_FINAL_7_004:
	BYTE		N20     Cn2   v127
	BYTE	W24
	BYTE		N11     Gn1 
	BYTE	W12
	BYTE		        Cn2 
	BYTE	W36
	BYTE		N05   
	BYTE	W06
	BYTE		        Dn2 
	BYTE	W06
	BYTE		        En2 
	BYTE	W06
	BYTE		        Dn2 
	BYTE	W06
	BYTE	PEND
// 005   ----------------------------------------
	BYTE	PATT
	 POIN2	ImperiusTwins_FINAL_7_004
// 006   ----------------------------------------
ImperiusTwins_FINAL_7_006:
	BYTE		N20     As1   v127
	BYTE	W24
	BYTE		N11     Fn1 
	BYTE	W12
	BYTE		        As1 
	BYTE	W36
	BYTE		N05   
	BYTE	W06
	BYTE		        Cn2 
	BYTE	W06
	BYTE		        Dn2 
	BYTE	W06
	BYTE		        Cn2 
	BYTE	W06
	BYTE	PEND
// 007   ----------------------------------------
	BYTE	PATT
	 POIN2	ImperiusTwins_FINAL_7_006
// 008   ----------------------------------------
	BYTE	PATT
	 POIN2	ImperiusTwins_FINAL_7_004
// 009   ----------------------------------------
	BYTE	PATT
	 POIN2	ImperiusTwins_FINAL_7_004
// 010   ----------------------------------------
	BYTE	PATT
	 POIN2	ImperiusTwins_FINAL_7_006
// 011   ----------------------------------------
	BYTE	PATT
	 POIN2	ImperiusTwins_FINAL_7_006
// 012   ----------------------------------------
	BYTE		N15     Gn1   v127
	BYTE	W16
	BYTE		        Dn1 
	BYTE	W16
	BYTE		        Gn1 
	BYTE	W16
	BYTE		        Bn1 
	BYTE	W16
	BYTE		        An1 
	BYTE	W16
	BYTE		        Gn1 
	BYTE	W16
// 013   ----------------------------------------
	BYTE		        Fs1 
	BYTE	W16
	BYTE		        Dn1 
	BYTE	W16
	BYTE		        Fs1 
	BYTE	W16
	BYTE		        An1 
	BYTE	W16
	BYTE		        Gn1 
	BYTE	W16
	BYTE		        Fs1 
	BYTE	W16
// 014   ----------------------------------------
	BYTE		        Fn1 
	BYTE	W16
	BYTE		        Cn2 
	BYTE	W16
	BYTE		        An1 
	BYTE	W16
	BYTE		        Fn1 
	BYTE	W16
	BYTE		        Gn1 
	BYTE	W16
	BYTE		        An1 
	BYTE	W16
// 015   ----------------------------------------
	BYTE		        Gn1 
	BYTE	W16
	BYTE		        En1 
	BYTE	W16
	BYTE		        Gn1 
	BYTE	W16
	BYTE		        Bn1 
	BYTE	W16
	BYTE		        Cn2 
	BYTE	W16
	BYTE		        Dn2 
	BYTE	W16
// 016   ----------------------------------------
	BYTE		        Gn2 
	BYTE	W16
	BYTE		        Fs2 
	BYTE	W16
	BYTE		        En2 
	BYTE	W16
	BYTE		        Dn2 
	BYTE	W16
	BYTE		        Bn1 
	BYTE	W16
	BYTE		        An1 
	BYTE	W16
// 017   ----------------------------------------
	BYTE		        Fn1 
	BYTE	W16
	BYTE		        Gn1 
	BYTE	W16
	BYTE		        An1 
	BYTE	W16
	BYTE		        Cn2 
	BYTE	W16
	BYTE		        Dn2 
	BYTE	W16
	BYTE		        Fn2 
	BYTE	W16
// 018   ----------------------------------------
ImperiusTwins_FINAL_7_018:
	BYTE		N20     Dn2   v127
	BYTE	W24
	BYTE		        An1 
	BYTE	W24
	BYTE		        Dn2 
	BYTE	W24
	BYTE		        An1 
	BYTE	W24
	BYTE	PEND
// 019   ----------------------------------------
	BYTE	PATT
	 POIN2	ImperiusTwins_FINAL_7_018
// 020   ----------------------------------------
	BYTE		N05     An1   v127
	BYTE	W06
	BYTE		        Cn2 
	BYTE	W06
	BYTE		        Dn2 
	BYTE	W06
	BYTE		        Fn2 
	BYTE	W06
	BYTE		        An1 
	BYTE	W06
	BYTE		        Cn2 
	BYTE	W06
	BYTE		        Dn2 
	BYTE	W06
	BYTE		        Fn2 
	BYTE	W06
	BYTE		        An1 
	BYTE	W06
	BYTE		        Cn2 
	BYTE	W06
	BYTE		        Dn2 
	BYTE	W06
	BYTE		        Fn2 
	BYTE	W06
	BYTE		        An1 
	BYTE	W06
	BYTE		        Cn2 
	BYTE	W06
	BYTE		        Dn2 
	BYTE	W06
	BYTE		        Fn2 
	BYTE	W06
// 021   ----------------------------------------
	BYTE		        Gn1 
	BYTE	W06
	BYTE		        As1 
	BYTE	W06
	BYTE		        Cn2 
	BYTE	W06
	BYTE		        En2 
	BYTE	W06
	BYTE		        Gn1 
	BYTE	W06
	BYTE		        As1 
	BYTE	W06
	BYTE		        Cn2 
	BYTE	W06
	BYTE		        En2 
	BYTE	W06
	BYTE		        Gn1 
	BYTE	W06
	BYTE		        As1 
	BYTE	W06
	BYTE		        Cn2 
	BYTE	W06
	BYTE		        En2 
	BYTE	W06
	BYTE		        Gn1 
	BYTE	W06
	BYTE		        As1 
	BYTE	W06
	BYTE		        Cn2 
	BYTE	W06
	BYTE		        En2 
	BYTE	W06
// 022   ----------------------------------------
	BYTE		N15     As1 
	BYTE	W16
	BYTE		        Fn1 
	BYTE	W16
	BYTE		        As1 
	BYTE	W16
	BYTE		        Cn2 
	BYTE	W16
	BYTE		        An1 
	BYTE	W16
	BYTE		        Cn2 
	BYTE	W16
// 023   ----------------------------------------
	BYTE		N05     Fn1 
	BYTE	W06
	BYTE		        Gn1 
	BYTE	W06
	BYTE		        An1 
	BYTE	W06
	BYTE		        Cn2 
	BYTE	W06
	BYTE		        Fn1 
	BYTE	W06
	BYTE		        Gn1 
	BYTE	W06
	BYTE		        An1 
	BYTE	W06
	BYTE		        Cn2 
	BYTE	W06
	BYTE		        En1 
	BYTE	W06
	BYTE		        An1 
	BYTE	W06
	BYTE		        As1 
	BYTE	W06
	BYTE		        Cn2 
	BYTE	W06
	BYTE		        En1 
	BYTE	W06
	BYTE		        An1 
	BYTE	W06
	BYTE		        As1 
	BYTE	W06
	BYTE		        Cn2 
	BYTE	W06
// 024   ----------------------------------------
	BYTE		        As1 
	BYTE	W06
	BYTE		        An1 
	BYTE	W06
	BYTE		        Gn1 
	BYTE	W06
	BYTE		        An1 
	BYTE	W06
	BYTE		        As1 
	BYTE	W06
	BYTE		        Cn2 
	BYTE	W06
	BYTE		        Dn2 
	BYTE	W06
	BYTE		        En2 
	BYTE	W06
	BYTE		        Dn2 
	BYTE	W06
	BYTE		        Cn2 
	BYTE	W06
	BYTE		        An1 
	BYTE	W06
	BYTE		        Gn1 
	BYTE	W06
	BYTE		        En1 
	BYTE	W06
	BYTE		        Fn1 
	BYTE	W06
	BYTE		        Gn1 
	BYTE	W06
	BYTE		        Cn2 
	BYTE	W06
// 025   ----------------------------------------
	BYTE		        As1 
	BYTE	W06
	BYTE		        Fn1 
	BYTE	W06
	BYTE		        Dn1 
	BYTE	W06
	BYTE		        Fn1 
	BYTE	W06
	BYTE		        Gn1 
	BYTE	W06
	BYTE		        An1 
	BYTE	W06
	BYTE		        Cn2 
	BYTE	W06
	BYTE		        Dn2 
	BYTE	W06
	BYTE		        Fn2 
	BYTE	W06
	BYTE		        Dn2 
	BYTE	W06
	BYTE		        Cn2 
	BYTE	W06
	BYTE		        As1 
	BYTE	W06
	BYTE		        An1 
	BYTE	W06
	BYTE		        Fn1 
	BYTE	W06
	BYTE		        Dn1 
	BYTE	W06
	BYTE		        Fn1 
	BYTE	W06
// 026   ----------------------------------------
	BYTE		N15     As1 
	BYTE	W16
	BYTE		        Fn1 
	BYTE	W16
	BYTE		        Dn1 
	BYTE	W16
	BYTE		        Fn1 
	BYTE	W16
	BYTE		        As1 
	BYTE	W16
	BYTE		        Dn2 
	BYTE	W16
// 027   ----------------------------------------
	BYTE		        Bn1 
	BYTE	W16
	BYTE		        Fn1 
	BYTE	W16
	BYTE		        Dn1 
	BYTE	W16
	BYTE		        Fn1 
	BYTE	W16
	BYTE		        Bn1 
	BYTE	W16
	BYTE		        Dn2 
	BYTE	W16
// 028   ----------------------------------------
ImperiusTwins_FINAL_7_028:
	BYTE		N17     Cn2   v127
	BYTE	W18
	BYTE		        Gn1 
	BYTE	W18
	BYTE		N20     Cn2 
	BYTE	W24
	BYTE		N11     Dn2 
	BYTE	W12
	BYTE		        En2 
	BYTE	W12
	BYTE		        Dn2 
	BYTE	W12
	BYTE	PEND
// 029   ----------------------------------------
	BYTE	PATT
	 POIN2	ImperiusTwins_FINAL_7_028
// 030   ----------------------------------------
ImperiusTwins_FINAL_7_030:
	BYTE		N17     Bn1   v127
	BYTE	W18
	BYTE		        Gn1 
	BYTE	W18
	BYTE		N20     Bn1 
	BYTE	W24
	BYTE		N11     Cn2 
	BYTE	W12
	BYTE		        Dn2 
	BYTE	W12
	BYTE		        Cn2 
	BYTE	W12
	BYTE	PEND
// 031   ----------------------------------------
	BYTE	PATT
	 POIN2	ImperiusTwins_FINAL_7_030
	BYTE	GoTo
	 POIN2	ImperiusTwins_FINAL_7_B1
ImperiusTwins_FINAL_7_B2:
// 032   ----------------------------------------
	BYTE	W96
// 033   ----------------------------------------
	BYTE	W96
// 034   ----------------------------------------
	BYTE	W96
// 035   ----------------------------------------
	BYTE	W96
// 036   ----------------------------------------
	BYTE	W96
// 037   ----------------------------------------
	BYTE	W96
// 038   ----------------------------------------
	BYTE	W96
// 039   ----------------------------------------
	BYTE	W96
// 040   ----------------------------------------
	BYTE	W96
// 041   ----------------------------------------
	BYTE	W96
// 042   ----------------------------------------
	BYTE	W96
// 043   ----------------------------------------
	BYTE	W96
// 044   ----------------------------------------
	BYTE	W96
// 045   ----------------------------------------
	BYTE	W96
// 046   ----------------------------------------
	BYTE	FINE

//**************** Track 8 (Midi-Chn.8) ****************//

ImperiusTwins_FINAL_8:
	BYTE	KEYSH   ImperiusTwins_FINAL_key+0
ImperiusTwins_FINAL_8_B1:
// 000   ----------------------------------------
	BYTE		VOICE   55
	BYTE		MODT    0
	BYTE		LFOS    44
	BYTE		VOL     127*ImperiusTwins_FINAL_mvl/mxv
	BYTE		PAN     c_v+0
	BYTE	W96
// 001   ----------------------------------------
	BYTE	W96
// 002   ----------------------------------------
	BYTE	W96
// 003   ----------------------------------------
	BYTE	W96
// 004   ----------------------------------------
	BYTE	W96
// 005   ----------------------------------------
	BYTE	W96
// 006   ----------------------------------------
	BYTE	W96
// 007   ----------------------------------------
	BYTE	W96
// 008   ----------------------------------------
	BYTE	W96
// 009   ----------------------------------------
	BYTE	W96
// 010   ----------------------------------------
	BYTE	W96
// 011   ----------------------------------------
	BYTE	W96
// 012   ----------------------------------------
	BYTE	W96
// 013   ----------------------------------------
	BYTE	W96
// 014   ----------------------------------------
	BYTE	W96
// 015   ----------------------------------------
	BYTE	W96
// 016   ----------------------------------------
	BYTE	W96
// 017   ----------------------------------------
	BYTE	W96
// 018   ----------------------------------------
	BYTE	W96
// 019   ----------------------------------------
	BYTE	W96
// 020   ----------------------------------------
	BYTE		        c_v+32
	BYTE		N06     Dn3   v056
	BYTE		N06     Fn3 
	BYTE		N06     Gn3 
	BYTE		N06     An3 
	BYTE	W18
	BYTE		        Dn3 
	BYTE		N06     Fn3 
	BYTE		N06     Gn3 
	BYTE		N06     An3 
	BYTE	W18
	BYTE		N54     Dn3 
	BYTE		N54     Fn3 
	BYTE		N54     Gn3 
	BYTE		N54     An3 
	BYTE	W60
// 021   ----------------------------------------
	BYTE		N06     Cn3 
	BYTE		N06     En3 
	BYTE		N06     Gn3 
	BYTE		N06     As3 
	BYTE	W18
	BYTE		        Cn3 
	BYTE		N06     En3 
	BYTE		N06     Gn3 
	BYTE		N06     As3 
	BYTE	W18
	BYTE		N54     Cn3 
	BYTE		N54     En3 
	BYTE		N54     Gn3 
	BYTE		N54     As3 
	BYTE	W60
// 022   ----------------------------------------
	BYTE		N42     Dn3 
	BYTE		N42     Fn3 
	BYTE		N42     As3 
	BYTE	W48
	BYTE		        En3 
	BYTE		N42     Gn3 
	BYTE		TIE     Cn4 
	BYTE	W48
// 023   ----------------------------------------
	BYTE		N42     Fn3 
	BYTE		N90     An3 
	BYTE	W48
	BYTE		N42     En3 
	BYTE	W42
	BYTE		EOT     Cn4 
	BYTE	W06
// 024   ----------------------------------------
	BYTE		N06     Dn3 
	BYTE		N06     Fn3 
	BYTE		N06     Gn3 
	BYTE		N06     An3 
	BYTE	W18
	BYTE		        Dn3 
	BYTE		N06     Fn3 
	BYTE		N06     Gn3 
	BYTE		N06     An3 
	BYTE	W18
	BYTE		N54     Cn3 
	BYTE		N54     En3 
	BYTE		N54     Gn3 
	BYTE		N54     As3 
	BYTE	W60
// 025   ----------------------------------------
	BYTE		N06     Cn3 
	BYTE		N06     Dn3 
	BYTE		N06     Fn3 
	BYTE		N06     As3 
	BYTE	W18
	BYTE		        Cn3 
	BYTE		N06     Dn3 
	BYTE		N06     Fn3 
	BYTE		N06     As3 
	BYTE	W18
	BYTE		N54     Cn3 
	BYTE		N54     Dn3 
	BYTE		N54     Fn3 
	BYTE		N54     An3 
	BYTE	W60
// 026   ----------------------------------------
	BYTE		N90     Dn3 
	BYTE		N90     Fn3 
	BYTE		N90     As3 
	BYTE	W96
// 027   ----------------------------------------
	BYTE		        Dn3 
	BYTE		N90     Fn3 
	BYTE		N90     Gn3 
	BYTE		N90     Bn3 
	BYTE	W96
// 028   ----------------------------------------
	BYTE	W96
// 029   ----------------------------------------
	BYTE	W96
// 030   ----------------------------------------
	BYTE	W96
// 031   ----------------------------------------
	BYTE	W96
	BYTE	GoTo
	 POIN2	ImperiusTwins_FINAL_8_B1
ImperiusTwins_FINAL_8_B2:
// 032   ----------------------------------------
	BYTE	W96
// 033   ----------------------------------------
	BYTE	W96
// 034   ----------------------------------------
	BYTE	W96
// 035   ----------------------------------------
	BYTE	W96
// 036   ----------------------------------------
	BYTE	W96
// 037   ----------------------------------------
	BYTE	W96
// 038   ----------------------------------------
	BYTE	W96
// 039   ----------------------------------------
	BYTE	W96
// 040   ----------------------------------------
	BYTE	W96
// 041   ----------------------------------------
	BYTE	W96
// 042   ----------------------------------------
	BYTE	W96
// 043   ----------------------------------------
	BYTE	W96
// 044   ----------------------------------------
	BYTE	W96
// 045   ----------------------------------------
	BYTE	W96
// 046   ----------------------------------------
	BYTE	FINE

//**************** Track 9 (Midi-Chn.9) ****************//

ImperiusTwins_FINAL_9:
	BYTE	KEYSH   ImperiusTwins_FINAL_key+0
ImperiusTwins_FINAL_9_B1:
// 000   ----------------------------------------
	BYTE		VOICE   46
	BYTE		MODT    0
	BYTE		LFOS    44
	BYTE		VOL     117*ImperiusTwins_FINAL_mvl/mxv
	BYTE		PAN     c_v-19
	BYTE		VOL     117*ImperiusTwins_FINAL_mvl/mxv
	BYTE	W96
// 001   ----------------------------------------
	BYTE	W96
// 002   ----------------------------------------
	BYTE		PAN     c_v-11
	BYTE		VOL     114*ImperiusTwins_FINAL_mvl/mxv
	BYTE	W96
// 003   ----------------------------------------
	BYTE	W96
// 004   ----------------------------------------
	BYTE	W96
// 005   ----------------------------------------
	BYTE	W96
// 006   ----------------------------------------
	BYTE	W96
// 007   ----------------------------------------
	BYTE	W96
// 008   ----------------------------------------
	BYTE	W96
// 009   ----------------------------------------
	BYTE	W96
// 010   ----------------------------------------
	BYTE	W96
// 011   ----------------------------------------
	BYTE	W96
// 012   ----------------------------------------
	BYTE	W96
// 013   ----------------------------------------
	BYTE	W96
// 014   ----------------------------------------
	BYTE	W96
// 015   ----------------------------------------
	BYTE	W96
// 016   ----------------------------------------
	BYTE	W96
// 017   ----------------------------------------
	BYTE	W96
// 018   ----------------------------------------
	BYTE	W96
// 019   ----------------------------------------
	BYTE	W96
// 020   ----------------------------------------
ImperiusTwins_FINAL_9_020:
	BYTE		N05     Gn4   v127
	BYTE	W06
	BYTE		        Dn4 
	BYTE	W06
	BYTE		        Bn4 
	BYTE	W06
	BYTE		        Gn4 
	BYTE	W06
	BYTE		        An4 
	BYTE	W06
	BYTE		        Dn4 
	BYTE	W06
	BYTE		        Gn4 
	BYTE	W06
	BYTE		        Dn4 
	BYTE	W06
	BYTE		        Gn4 
	BYTE	W06
	BYTE		        Dn4 
	BYTE	W06
	BYTE		        Bn4 
	BYTE	W06
	BYTE		        Gn4 
	BYTE	W06
	BYTE		        An4 
	BYTE	W06
	BYTE		        Dn4 
	BYTE	W06
	BYTE		        Gn4 
	BYTE	W06
	BYTE		        Dn4 
	BYTE	W06
	BYTE	PEND
// 021   ----------------------------------------
ImperiusTwins_FINAL_9_021:
	BYTE		N05     Fs4   v127
	BYTE	W06
	BYTE		        Dn4 
	BYTE	W06
	BYTE		        An4 
	BYTE	W06
	BYTE		        Fs4 
	BYTE	W06
	BYTE		        Gn4 
	BYTE	W06
	BYTE		        Dn4 
	BYTE	W06
	BYTE		        Fs4 
	BYTE	W06
	BYTE		        Dn4 
	BYTE	W06
	BYTE		        Fs4 
	BYTE	W06
	BYTE		        Dn4 
	BYTE	W06
	BYTE		        An4 
	BYTE	W06
	BYTE		        Fs4 
	BYTE	W06
	BYTE		        Gn4 
	BYTE	W06
	BYTE		        Dn4 
	BYTE	W06
	BYTE		        Fs4 
	BYTE	W06
	BYTE		        Dn4 
	BYTE	W06
	BYTE	PEND
// 022   ----------------------------------------
ImperiusTwins_FINAL_9_022:
	BYTE		N05     Gn4   v127
	BYTE	W06
	BYTE		        En4 
	BYTE	W06
	BYTE		        Cn5 
	BYTE	W06
	BYTE		        Gn4 
	BYTE	W06
	BYTE		        Bn4 
	BYTE	W06
	BYTE		        En4 
	BYTE	W06
	BYTE		        An4 
	BYTE	W06
	BYTE		        En4 
	BYTE	W06
	BYTE		        Gn4 
	BYTE	W06
	BYTE		        En4 
	BYTE	W06
	BYTE		        Cn5 
	BYTE	W06
	BYTE		        Gn4 
	BYTE	W06
	BYTE		        Bn4 
	BYTE	W06
	BYTE		        En4 
	BYTE	W06
	BYTE		        An4 
	BYTE	W06
	BYTE		        En4 
	BYTE	W06
	BYTE	PEND
// 023   ----------------------------------------
ImperiusTwins_FINAL_9_023:
	BYTE		N05     Fs4   v127
	BYTE	W06
	BYTE		        Cn4 
	BYTE	W06
	BYTE		        En4 
	BYTE	W06
	BYTE		        Cn4 
	BYTE	W06
	BYTE		        Fs4 
	BYTE	W06
	BYTE		        Cn4 
	BYTE	W06
	BYTE		        Gn4 
	BYTE	W06
	BYTE		        Cn4 
	BYTE	W06
	BYTE		        An4 
	BYTE	W06
	BYTE		        Fs4 
	BYTE	W06
	BYTE		        Cn5 
	BYTE	W06
	BYTE		        Fs4 
	BYTE	W06
	BYTE		        Bn4 
	BYTE	W06
	BYTE		        Fs4 
	BYTE	W06
	BYTE		        An4 
	BYTE	W06
	BYTE		        Fs4 
	BYTE	W06
	BYTE	PEND
// 024   ----------------------------------------
	BYTE	PATT
	 POIN2	ImperiusTwins_FINAL_9_020
// 025   ----------------------------------------
	BYTE	PATT
	 POIN2	ImperiusTwins_FINAL_9_021
// 026   ----------------------------------------
	BYTE	PATT
	 POIN2	ImperiusTwins_FINAL_9_022
// 027   ----------------------------------------
	BYTE	PATT
	 POIN2	ImperiusTwins_FINAL_9_023
// 028   ----------------------------------------
	BYTE		N42     Gn4   v127
	BYTE	W96
// 029   ----------------------------------------
	BYTE	W96
// 030   ----------------------------------------
	BYTE	W96
// 031   ----------------------------------------
	BYTE	W96
	BYTE	GoTo
	 POIN2	ImperiusTwins_FINAL_9_B1
ImperiusTwins_FINAL_9_B2:
// 032   ----------------------------------------
	BYTE	W96
// 033   ----------------------------------------
	BYTE	W96
// 034   ----------------------------------------
	BYTE	W96
// 035   ----------------------------------------
	BYTE	W96
// 036   ----------------------------------------
	BYTE	W96
// 037   ----------------------------------------
	BYTE	W96
// 038   ----------------------------------------
	BYTE	W96
// 039   ----------------------------------------
	BYTE	W96
// 040   ----------------------------------------
	BYTE	W96
// 041   ----------------------------------------
	BYTE	W96
// 042   ----------------------------------------
	BYTE	W96
// 043   ----------------------------------------
	BYTE	W96
// 044   ----------------------------------------
	BYTE	W96
// 045   ----------------------------------------
	BYTE	W96
// 046   ----------------------------------------
	BYTE	FINE

//******************************************************//
	ALIGN 4

ImperiusTwins_FINAL:
	BYTE	9	// NumTrks
	BYTE	0	// NumBlks
	BYTE	ImperiusTwins_FINAL_pri	// Priority
	BYTE	ImperiusTwins_FINAL_rev	// Reverb.

	POIN2	ImperiusTwins_FINAL_grp

	POIN2	ImperiusTwins_FINAL_1
	POIN2	ImperiusTwins_FINAL_2
	POIN2	ImperiusTwins_FINAL_3
	POIN2	ImperiusTwins_FINAL_4
	POIN2	ImperiusTwins_FINAL_5
	POIN2	ImperiusTwins_FINAL_6
	POIN2	ImperiusTwins_FINAL_7
	POIN2	ImperiusTwins_FINAL_8
	POIN2	ImperiusTwins_FINAL_9

	
