//Event file generated from Sappy .s format.
	#include "MPlayDef.event"

	#define	LIBERATION_FINAL_grp  voicegroup000
	#define	LIBERATION_FINAL_pri  0
	#define	LIBERATION_FINAL_rev  0
	#define	LIBERATION_FINAL_mvl  40
	#define	LIBERATION_FINAL_key  0
	#define	LIBERATION_FINAL_tbs  1
	#define	LIBERATION_FINAL_exg  0
	#define	LIBERATION_FINAL_cmp  1

	// .rodata
	//	LIBERATION_FINAL
	ALIGN 4

//**************** Track 1 (Midi-Chn.1) ****************//

LIBERATION_FINAL_1:
	BYTE	KEYSH   LIBERATION_FINAL_key+0
LIBERATION_FINAL_1_B1:
// 000   ----------------------------------------
	BYTE	TEMPO   125*LIBERATION_FINAL_tbs/2
	BYTE		VOICE   0
	BYTE		MODT    0
	BYTE		LFOS    44
	BYTE		PAN     c_v+15
	BYTE		VOL     127*LIBERATION_FINAL_mvl/mxv
	BYTE		N05     An0   v076
	BYTE	W06
	BYTE		        Gn0 
	BYTE	W06
	BYTE		N11     An0 
	BYTE	W12
	BYTE		TIE     Cn1 
	BYTE	W72
// 001   ----------------------------------------
	BYTE	W90
	BYTE		EOT   
	BYTE	W06
// 002   ----------------------------------------
LIBERATION_FINAL_1_002:
	BYTE		N05     An0   v076
	BYTE	W06
	BYTE		        Gn0 
	BYTE	W06
	BYTE		N11     An0 
	BYTE	W12
	BYTE		N42     Dn1 
	BYTE	W48
	BYTE		N11     An0 
	BYTE	W12
	BYTE		        Bn0 
	BYTE	W12
	BYTE	PEND
// 003   ----------------------------------------
LIBERATION_FINAL_1_003:
	BYTE		N32     Cn1   v076
	BYTE	W36
	BYTE		        Bn0 
	BYTE	W36
	BYTE		N20     Gn0 
	BYTE	W24
	BYTE	PEND
// 004   ----------------------------------------
LIBERATION_FINAL_1_004:
	BYTE		N05     An0   v076
	BYTE	W06
	BYTE		        Gn0 
	BYTE	W06
	BYTE		N11     An0 
	BYTE	W12
	BYTE		TIE     Cn1 
	BYTE	W72
	BYTE	PEND
// 005   ----------------------------------------
	BYTE	W90
	BYTE		EOT   
	BYTE	W06
// 006   ----------------------------------------
	BYTE	PATT
	 POIN2	LIBERATION_FINAL_1_002
// 007   ----------------------------------------
	BYTE	PATT
	 POIN2	LIBERATION_FINAL_1_003
// 008   ----------------------------------------
	BYTE	PATT
	 POIN2	LIBERATION_FINAL_1_004
// 009   ----------------------------------------
	BYTE	W90
	BYTE		EOT     Cn1 
	BYTE	W06
// 010   ----------------------------------------
	BYTE	PATT
	 POIN2	LIBERATION_FINAL_1_002
// 011   ----------------------------------------
	BYTE	PATT
	 POIN2	LIBERATION_FINAL_1_003
// 012   ----------------------------------------
	BYTE	PATT
	 POIN2	LIBERATION_FINAL_1_004
// 013   ----------------------------------------
	BYTE	W90
	BYTE		EOT     Cn1 
	BYTE	W06
// 014   ----------------------------------------
	BYTE	PATT
	 POIN2	LIBERATION_FINAL_1_002
// 015   ----------------------------------------
	BYTE	PATT
	 POIN2	LIBERATION_FINAL_1_003
// 016   ----------------------------------------
LIBERATION_FINAL_1_016:
	BYTE		N42     An0   v076
	BYTE	W48
	BYTE		        Cn1 
	BYTE	W48
	BYTE	PEND
// 017   ----------------------------------------
LIBERATION_FINAL_1_017:
	BYTE		N42     Dn1   v076
	BYTE	W48
	BYTE		        An0 
	BYTE	W48
	BYTE	PEND
// 018   ----------------------------------------
LIBERATION_FINAL_1_018:
	BYTE		N42     Cn1   v076
	BYTE	W48
	BYTE		        Fn1 
	BYTE	W48
	BYTE	PEND
// 019   ----------------------------------------
LIBERATION_FINAL_1_019:
	BYTE		N42     Gn1   v076
	BYTE	W48
	BYTE		        Dn1 
	BYTE	W48
	BYTE	PEND
// 020   ----------------------------------------
	BYTE	PATT
	 POIN2	LIBERATION_FINAL_1_016
// 021   ----------------------------------------
	BYTE	PATT
	 POIN2	LIBERATION_FINAL_1_017
// 022   ----------------------------------------
	BYTE	PATT
	 POIN2	LIBERATION_FINAL_1_018
// 023   ----------------------------------------
	BYTE	PATT
	 POIN2	LIBERATION_FINAL_1_019
// 024   ----------------------------------------
	BYTE	PATT
	 POIN2	LIBERATION_FINAL_1_004
// 025   ----------------------------------------
	BYTE	W90
	BYTE		EOT     Cn1 
	BYTE	W06
// 026   ----------------------------------------
	BYTE	PATT
	 POIN2	LIBERATION_FINAL_1_002
// 027   ----------------------------------------
	BYTE	PATT
	 POIN2	LIBERATION_FINAL_1_003
// 028   ----------------------------------------
	BYTE	PATT
	 POIN2	LIBERATION_FINAL_1_004
// 029   ----------------------------------------
	BYTE	W90
	BYTE		EOT     Cn1 
	BYTE	W06
// 030   ----------------------------------------
	BYTE	PATT
	 POIN2	LIBERATION_FINAL_1_002
// 031   ----------------------------------------
	BYTE	PATT
	 POIN2	LIBERATION_FINAL_1_003
// 032   ----------------------------------------
	BYTE	PATT
	 POIN2	LIBERATION_FINAL_1_017
// 033   ----------------------------------------
	BYTE	PATT
	 POIN2	LIBERATION_FINAL_1_017
// 034   ----------------------------------------
LIBERATION_FINAL_1_034:
	BYTE		N42     Cn1   v076
	BYTE	W48
	BYTE		        Gn0 
	BYTE	W48
	BYTE	PEND
// 035   ----------------------------------------
	BYTE	PATT
	 POIN2	LIBERATION_FINAL_1_034
// 036   ----------------------------------------
LIBERATION_FINAL_1_036:
	BYTE		N42     En1   v076
	BYTE	W48
	BYTE		        Bn0 
	BYTE	W48
	BYTE	PEND
// 037   ----------------------------------------
	BYTE	PATT
	 POIN2	LIBERATION_FINAL_1_036
// 038   ----------------------------------------
LIBERATION_FINAL_1_038:
	BYTE		N42     Cn1   v076
	BYTE	W48
	BYTE		        An0 
	BYTE	W48
	BYTE	PEND
// 039   ----------------------------------------
LIBERATION_FINAL_1_039:
	BYTE		N42     Fn1   v076
	BYTE	W48
	BYTE		        Dn1 
	BYTE	W48
	BYTE	PEND
// 040   ----------------------------------------
	BYTE	PATT
	 POIN2	LIBERATION_FINAL_1_017
// 041   ----------------------------------------
	BYTE	PATT
	 POIN2	LIBERATION_FINAL_1_017
// 042   ----------------------------------------
	BYTE	PATT
	 POIN2	LIBERATION_FINAL_1_034
// 043   ----------------------------------------
	BYTE	PATT
	 POIN2	LIBERATION_FINAL_1_034
// 044   ----------------------------------------
	BYTE	PATT
	 POIN2	LIBERATION_FINAL_1_036
// 045   ----------------------------------------
	BYTE	PATT
	 POIN2	LIBERATION_FINAL_1_036
// 046   ----------------------------------------
	BYTE	PATT
	 POIN2	LIBERATION_FINAL_1_038
// 047   ----------------------------------------
	BYTE	PATT
	 POIN2	LIBERATION_FINAL_1_039
// 048   ----------------------------------------
	BYTE	PATT
	 POIN2	LIBERATION_FINAL_1_016
// 049   ----------------------------------------
	BYTE	PATT
	 POIN2	LIBERATION_FINAL_1_017
// 050   ----------------------------------------
	BYTE	PATT
	 POIN2	LIBERATION_FINAL_1_018
// 051   ----------------------------------------
	BYTE	PATT
	 POIN2	LIBERATION_FINAL_1_019
// 052   ----------------------------------------
	BYTE	PATT
	 POIN2	LIBERATION_FINAL_1_016
// 053   ----------------------------------------
	BYTE	PATT
	 POIN2	LIBERATION_FINAL_1_017
// 054   ----------------------------------------
	BYTE	PATT
	 POIN2	LIBERATION_FINAL_1_018
// 055   ----------------------------------------
	BYTE	PATT
	 POIN2	LIBERATION_FINAL_1_019
// 056   ----------------------------------------
	BYTE		N90     En1   v076
	BYTE	W96
// 057   ----------------------------------------
	BYTE		        Cn1 
	BYTE	W92
	BYTE	GoTo
	 POIN2	LIBERATION_FINAL_1_B1
LIBERATION_FINAL_1_B2:
	BYTE	FINE

//**************** Track 2 (Midi-Chn.2) ****************//

LIBERATION_FINAL_2:
	BYTE	KEYSH   LIBERATION_FINAL_key+0
LIBERATION_FINAL_2_B1:
// 000   ----------------------------------------
	BYTE		VOICE   36
	BYTE		MODT    0
	BYTE		LFOS    44
	BYTE		VOL     109*LIBERATION_FINAL_mvl/mxv
	BYTE		PAN     c_v-20
	BYTE	W96
// 001   ----------------------------------------
	BYTE	W96
// 002   ----------------------------------------
	BYTE	W96
// 003   ----------------------------------------
	BYTE	W96
// 004   ----------------------------------------
LIBERATION_FINAL_2_004:
	BYTE		N05     An0   v127
	BYTE	W06
	BYTE		        Gn0 
	BYTE	W06
	BYTE		N11     An0 
	BYTE	W12
	BYTE		TIE     Cn1 
	BYTE	W72
	BYTE	PEND
// 005   ----------------------------------------
	BYTE	W90
	BYTE		EOT   
	BYTE	W06
// 006   ----------------------------------------
LIBERATION_FINAL_2_006:
	BYTE		N05     An0   v127
	BYTE	W06
	BYTE		        Gn0 
	BYTE	W06
	BYTE		N11     An0 
	BYTE	W12
	BYTE		N42     Dn1 
	BYTE	W48
	BYTE		N11     An0 
	BYTE	W12
	BYTE		        Bn0 
	BYTE	W12
	BYTE	PEND
// 007   ----------------------------------------
LIBERATION_FINAL_2_007:
	BYTE		N32     Cn1   v127
	BYTE	W36
	BYTE		        Bn0 
	BYTE	W36
	BYTE		N20     Gn0 
	BYTE	W24
	BYTE	PEND
// 008   ----------------------------------------
	BYTE	PATT
	 POIN2	LIBERATION_FINAL_2_004
// 009   ----------------------------------------
	BYTE	W90
	BYTE		EOT     Cn1 
	BYTE	W06
// 010   ----------------------------------------
	BYTE	PATT
	 POIN2	LIBERATION_FINAL_2_006
// 011   ----------------------------------------
	BYTE	PATT
	 POIN2	LIBERATION_FINAL_2_007
// 012   ----------------------------------------
	BYTE	PATT
	 POIN2	LIBERATION_FINAL_2_004
// 013   ----------------------------------------
	BYTE	W90
	BYTE		EOT     Cn1 
	BYTE	W06
// 014   ----------------------------------------
	BYTE	PATT
	 POIN2	LIBERATION_FINAL_2_006
// 015   ----------------------------------------
	BYTE	PATT
	 POIN2	LIBERATION_FINAL_2_007
// 016   ----------------------------------------
LIBERATION_FINAL_2_016:
	BYTE		N42     An0   v127
	BYTE	W48
	BYTE		        Cn1 
	BYTE	W48
	BYTE	PEND
// 017   ----------------------------------------
LIBERATION_FINAL_2_017:
	BYTE		N42     Dn1   v127
	BYTE	W48
	BYTE		        An0 
	BYTE	W48
	BYTE	PEND
// 018   ----------------------------------------
LIBERATION_FINAL_2_018:
	BYTE		N42     Cn1   v127
	BYTE	W48
	BYTE		        Fn1 
	BYTE	W48
	BYTE	PEND
// 019   ----------------------------------------
LIBERATION_FINAL_2_019:
	BYTE		N42     Gn1   v127
	BYTE	W48
	BYTE		        Dn1 
	BYTE	W48
	BYTE	PEND
// 020   ----------------------------------------
	BYTE	PATT
	 POIN2	LIBERATION_FINAL_2_016
// 021   ----------------------------------------
	BYTE	PATT
	 POIN2	LIBERATION_FINAL_2_017
// 022   ----------------------------------------
	BYTE	PATT
	 POIN2	LIBERATION_FINAL_2_018
// 023   ----------------------------------------
	BYTE	PATT
	 POIN2	LIBERATION_FINAL_2_019
// 024   ----------------------------------------
	BYTE	PATT
	 POIN2	LIBERATION_FINAL_2_004
// 025   ----------------------------------------
	BYTE	W90
	BYTE		EOT     Cn1 
	BYTE	W06
// 026   ----------------------------------------
	BYTE	PATT
	 POIN2	LIBERATION_FINAL_2_006
// 027   ----------------------------------------
	BYTE	PATT
	 POIN2	LIBERATION_FINAL_2_007
// 028   ----------------------------------------
	BYTE	PATT
	 POIN2	LIBERATION_FINAL_2_004
// 029   ----------------------------------------
	BYTE	W90
	BYTE		EOT     Cn1 
	BYTE	W06
// 030   ----------------------------------------
	BYTE	PATT
	 POIN2	LIBERATION_FINAL_2_006
// 031   ----------------------------------------
	BYTE	PATT
	 POIN2	LIBERATION_FINAL_2_007
// 032   ----------------------------------------
	BYTE	W96
// 033   ----------------------------------------
	BYTE	W96
// 034   ----------------------------------------
	BYTE	W96
// 035   ----------------------------------------
	BYTE	W96
// 036   ----------------------------------------
	BYTE	W96
// 037   ----------------------------------------
	BYTE	W96
// 038   ----------------------------------------
	BYTE	W96
// 039   ----------------------------------------
	BYTE	W96
// 040   ----------------------------------------
	BYTE	PATT
	 POIN2	LIBERATION_FINAL_2_017
// 041   ----------------------------------------
	BYTE	PATT
	 POIN2	LIBERATION_FINAL_2_017
// 042   ----------------------------------------
LIBERATION_FINAL_2_042:
	BYTE		N42     Cn1   v127
	BYTE	W48
	BYTE		        Gn0 
	BYTE	W48
	BYTE	PEND
// 043   ----------------------------------------
	BYTE	PATT
	 POIN2	LIBERATION_FINAL_2_042
// 044   ----------------------------------------
LIBERATION_FINAL_2_044:
	BYTE		N42     En1   v127
	BYTE	W48
	BYTE		        Bn0 
	BYTE	W48
	BYTE	PEND
// 045   ----------------------------------------
	BYTE	PATT
	 POIN2	LIBERATION_FINAL_2_044
// 046   ----------------------------------------
	BYTE		N42     Cn1   v127
	BYTE	W48
	BYTE		        An0 
	BYTE	W48
// 047   ----------------------------------------
	BYTE		        Fn1 
	BYTE	W48
	BYTE		        Dn1 
	BYTE	W48
// 048   ----------------------------------------
	BYTE	PATT
	 POIN2	LIBERATION_FINAL_2_016
// 049   ----------------------------------------
	BYTE	PATT
	 POIN2	LIBERATION_FINAL_2_017
// 050   ----------------------------------------
	BYTE	PATT
	 POIN2	LIBERATION_FINAL_2_018
// 051   ----------------------------------------
	BYTE	PATT
	 POIN2	LIBERATION_FINAL_2_019
// 052   ----------------------------------------
	BYTE	PATT
	 POIN2	LIBERATION_FINAL_2_016
// 053   ----------------------------------------
	BYTE	PATT
	 POIN2	LIBERATION_FINAL_2_017
// 054   ----------------------------------------
	BYTE	PATT
	 POIN2	LIBERATION_FINAL_2_018
// 055   ----------------------------------------
	BYTE	PATT
	 POIN2	LIBERATION_FINAL_2_019
// 056   ----------------------------------------
	BYTE		N90     En1   v127
	BYTE	W96
// 057   ----------------------------------------
	BYTE		        Cn1 
	BYTE	W92
	BYTE	GoTo
	 POIN2	LIBERATION_FINAL_2_B1
LIBERATION_FINAL_2_B2:
	BYTE	FINE

//**************** Track 3 (Midi-Chn.4) ****************//

LIBERATION_FINAL_3:
	BYTE	KEYSH   LIBERATION_FINAL_key+0
LIBERATION_FINAL_3_B1:
// 000   ----------------------------------------
	BYTE		VOICE   48
	BYTE		MODT    0
	BYTE		LFOS    44
	BYTE		PAN     c_v+26
	BYTE		VOL     127*LIBERATION_FINAL_mvl/mxv
	BYTE	W96
// 001   ----------------------------------------
	BYTE	W96
// 002   ----------------------------------------
	BYTE	W96
// 003   ----------------------------------------
	BYTE	W96
// 004   ----------------------------------------
	BYTE	W96
// 005   ----------------------------------------
	BYTE	W96
// 006   ----------------------------------------
	BYTE	W96
// 007   ----------------------------------------
	BYTE	W96
// 008   ----------------------------------------
	BYTE		N56     En3   v127
	BYTE	W60
	BYTE		N11   
	BYTE	W12
	BYTE		        Dn3 
	BYTE	W12
	BYTE		        Cn3 
	BYTE	W12
// 009   ----------------------------------------
	BYTE		N66     An2 
	BYTE	W72
	BYTE		N11     Cn3 
	BYTE	W12
	BYTE		        Dn3 
	BYTE	W12
// 010   ----------------------------------------
	BYTE		N56     En3 
	BYTE	W60
	BYTE		N11     Cn3 
	BYTE	W12
	BYTE		        Fn3 
	BYTE	W12
	BYTE		        En3 
	BYTE	W12
// 011   ----------------------------------------
	BYTE		N32   
	BYTE	W36
	BYTE		N11     Dn3 
	BYTE	W12
	BYTE		N42   
	BYTE	W48
// 012   ----------------------------------------
	BYTE		N56     An2 
	BYTE	W60
	BYTE		N11     En2 
	BYTE	W12
	BYTE		        An2 
	BYTE	W12
	BYTE		        Bn2 
	BYTE	W12
// 013   ----------------------------------------
	BYTE		N56     Cn3 
	BYTE	W60
	BYTE		N11     An2 
	BYTE	W12
	BYTE		        Cn3 
	BYTE	W12
	BYTE		        Dn3 
	BYTE	W12
// 014   ----------------------------------------
	BYTE		        En3 
	BYTE	W12
	BYTE		        Dn3 
	BYTE	W12
	BYTE		        En3 
	BYTE	W12
	BYTE		N54     Fn3 
	BYTE	W60
// 015   ----------------------------------------
	BYTE		N11     En3 
	BYTE	W12
	BYTE		        Dn3 
	BYTE	W12
	BYTE		        En3 
	BYTE	W12
	BYTE		N54     Gn3 
	BYTE	W60
// 016   ----------------------------------------
LIBERATION_FINAL_3_016:
	BYTE		N11     An3   v127
	BYTE	W12
	BYTE		        En4 
	BYTE	W12
	BYTE		        Dn4 
	BYTE	W12
	BYTE		        Cn4 
	BYTE	W12
	BYTE		N20     An3 
	BYTE	W24
	BYTE		N11     Gn3 
	BYTE	W12
	BYTE		N23     An3 
	BYTE	W12
	BYTE	PEND
// 017   ----------------------------------------
LIBERATION_FINAL_3_017:
	BYTE	W12
	BYTE		N11     En4   v127
	BYTE	W12
	BYTE		        Dn4 
	BYTE	W12
	BYTE		        Cn4 
	BYTE	W12
	BYTE		N42     An3 
	BYTE	W48
	BYTE	PEND
// 018   ----------------------------------------
LIBERATION_FINAL_3_018:
	BYTE		N11     Cn4   v127
	BYTE	W12
	BYTE		        Fn4 
	BYTE	W12
	BYTE		        En4 
	BYTE	W12
	BYTE		        Dn4 
	BYTE	W12
	BYTE		N20     Cn4 
	BYTE	W24
	BYTE		N11     Bn3 
	BYTE	W12
	BYTE		N23     An3 
	BYTE	W12
	BYTE	PEND
// 019   ----------------------------------------
LIBERATION_FINAL_3_019:
	BYTE	W12
	BYTE		N11     Bn3   v127
	BYTE	W12
	BYTE		        Cn4 
	BYTE	W12
	BYTE		        An3 
	BYTE	W12
	BYTE		N42     Bn3 
	BYTE	W48
	BYTE	PEND
// 020   ----------------------------------------
	BYTE	PATT
	 POIN2	LIBERATION_FINAL_3_016
// 021   ----------------------------------------
	BYTE	PATT
	 POIN2	LIBERATION_FINAL_3_017
// 022   ----------------------------------------
	BYTE	PATT
	 POIN2	LIBERATION_FINAL_3_018
// 023   ----------------------------------------
LIBERATION_FINAL_3_023:
	BYTE	W12
	BYTE		N11     Bn3   v127
	BYTE	W12
	BYTE		        Cn4 
	BYTE	W12
	BYTE		        An3 
	BYTE	W12
	BYTE		        Bn3 
	BYTE	W12
	BYTE		        Cn4 
	BYTE	W12
	BYTE		        Dn4 
	BYTE	W12
	BYTE		        Fn4 
	BYTE	W12
	BYTE	PEND
// 024   ----------------------------------------
	BYTE		N56     En4 
	BYTE	W60
	BYTE		N11   
	BYTE	W12
	BYTE		        Dn4 
	BYTE	W12
	BYTE		        Cn4 
	BYTE	W12
// 025   ----------------------------------------
	BYTE		N66     An3 
	BYTE	W72
	BYTE		N11     Cn4 
	BYTE	W12
	BYTE		        Dn4 
	BYTE	W12
// 026   ----------------------------------------
	BYTE		N56     En4 
	BYTE	W60
	BYTE		N11     Cn4 
	BYTE	W12
	BYTE		        Fn4 
	BYTE	W12
	BYTE		        En4 
	BYTE	W12
// 027   ----------------------------------------
	BYTE		N32   
	BYTE	W36
	BYTE		N11     Dn4 
	BYTE	W12
	BYTE		N42   
	BYTE	W48
// 028   ----------------------------------------
LIBERATION_FINAL_3_028:
	BYTE		N56     An3   v127
	BYTE	W60
	BYTE		N11     En3 
	BYTE	W12
	BYTE		        An3 
	BYTE	W12
	BYTE		        Bn3 
	BYTE	W12
	BYTE	PEND
// 029   ----------------------------------------
	BYTE		N56     Cn4 
	BYTE	W60
	BYTE		N11     An3 
	BYTE	W12
	BYTE		        Cn4 
	BYTE	W12
	BYTE		        Dn4 
	BYTE	W12
// 030   ----------------------------------------
	BYTE		        En4 
	BYTE	W12
	BYTE		        Dn4 
	BYTE	W12
	BYTE		        En4 
	BYTE	W12
	BYTE		N54     Fn4 
	BYTE	W60
// 031   ----------------------------------------
	BYTE		N11     En4 
	BYTE	W12
	BYTE		        Dn4 
	BYTE	W12
	BYTE		        En4 
	BYTE	W12
	BYTE		N54     Gn4 
	BYTE	W60
// 032   ----------------------------------------
	BYTE	PATT
	 POIN2	LIBERATION_FINAL_3_028
// 033   ----------------------------------------
LIBERATION_FINAL_3_033:
	BYTE		N32     Cn4   v127
	BYTE	W36
	BYTE		        Bn3 
	BYTE	W36
	BYTE		N20     An3 
	BYTE	W24
	BYTE	PEND
// 034   ----------------------------------------
	BYTE		N32     Bn3 
	BYTE	W36
	BYTE		N11     Gn3 
	BYTE	W12
	BYTE		TIE     En3 
	BYTE	W48
// 035   ----------------------------------------
	BYTE	W90
	BYTE		EOT   
	BYTE	W06
// 036   ----------------------------------------
	BYTE		N11   
	BYTE	W12
	BYTE		        Dn3 
	BYTE	W12
	BYTE		        En3 
	BYTE	W12
	BYTE		N32     Gn3 
	BYTE	W36
	BYTE		N11     Fn3 
	BYTE	W12
	BYTE		N54     En3 
	BYTE	W12
// 037   ----------------------------------------
	BYTE	W48
	BYTE		N20     Fn3 
	BYTE	W24
	BYTE		        Gn3 
	BYTE	W24
// 038   ----------------------------------------
	BYTE		N11     An3 
	BYTE	W12
	BYTE		        Gn3 
	BYTE	W12
	BYTE		        An3 
	BYTE	W12
	BYTE		N54     Cn4 
	BYTE	W60
// 039   ----------------------------------------
	BYTE		N11     Dn4 
	BYTE	W12
	BYTE		        Cn4 
	BYTE	W12
	BYTE		        Dn4 
	BYTE	W12
	BYTE		N54     Fn4 
	BYTE	W60
// 040   ----------------------------------------
	BYTE		N56     En4 
	BYTE	W60
	BYTE		N11     Fn4 
	BYTE	W12
	BYTE		        En4 
	BYTE	W12
	BYTE		        Dn4 
	BYTE	W12
// 041   ----------------------------------------
	BYTE	PATT
	 POIN2	LIBERATION_FINAL_3_033
// 042   ----------------------------------------
	BYTE		N11     Bn3   v127
	BYTE	W12
	BYTE		        Gn3 
	BYTE	W12
	BYTE		        Bn3 
	BYTE	W12
	BYTE		        Cn4 
	BYTE	W12
	BYTE		N20     Dn4 
	BYTE	W24
	BYTE		N11     Cn4 
	BYTE	W12
	BYTE		TIE     Bn3 
	BYTE	W12
// 043   ----------------------------------------
	BYTE	W90
	BYTE		EOT   
	BYTE	W06
// 044   ----------------------------------------
	BYTE		N11     En4 
	BYTE	W12
	BYTE		        Fn4 
	BYTE	W12
	BYTE		        En4 
	BYTE	W12
	BYTE		        Dn4 
	BYTE	W12
	BYTE		        Cn4 
	BYTE	W12
	BYTE		        Bn3 
	BYTE	W12
	BYTE		        Cn4 
	BYTE	W12
	BYTE		        Dn4 
	BYTE	W12
// 045   ----------------------------------------
	BYTE		N32     En4 
	BYTE	W36
	BYTE		        Fn4 
	BYTE	W36
	BYTE		N20     Gn4 
	BYTE	W24
// 046   ----------------------------------------
	BYTE		        An4 
	BYTE	W24
	BYTE		        Gn4 
	BYTE	W24
	BYTE		        Fn4 
	BYTE	W24
	BYTE		        En4 
	BYTE	W24
// 047   ----------------------------------------
	BYTE		N90     Dn4 
	BYTE	W96
// 048   ----------------------------------------
	BYTE	PATT
	 POIN2	LIBERATION_FINAL_3_016
// 049   ----------------------------------------
	BYTE	PATT
	 POIN2	LIBERATION_FINAL_3_017
// 050   ----------------------------------------
	BYTE	PATT
	 POIN2	LIBERATION_FINAL_3_018
// 051   ----------------------------------------
	BYTE	PATT
	 POIN2	LIBERATION_FINAL_3_019
// 052   ----------------------------------------
	BYTE	PATT
	 POIN2	LIBERATION_FINAL_3_016
// 053   ----------------------------------------
	BYTE	PATT
	 POIN2	LIBERATION_FINAL_3_017
// 054   ----------------------------------------
	BYTE	PATT
	 POIN2	LIBERATION_FINAL_3_018
// 055   ----------------------------------------
	BYTE	PATT
	 POIN2	LIBERATION_FINAL_3_023
// 056   ----------------------------------------
	BYTE		TIE     En4   v127
	BYTE	W96
// 057   ----------------------------------------
	BYTE	W66
	BYTE		EOT   
	BYTE	W24
	BYTE	W02
	BYTE	GoTo
	 POIN2	LIBERATION_FINAL_3_B1
LIBERATION_FINAL_3_B2:
	BYTE	FINE

//**************** Track 4 (Midi-Chn.5) ****************//

LIBERATION_FINAL_4:
	BYTE	KEYSH   LIBERATION_FINAL_key+0
LIBERATION_FINAL_4_B1:
// 000   ----------------------------------------
	BYTE		VOICE   49
	BYTE		MODT    0
	BYTE		LFOS    44
	BYTE		VOL     100*LIBERATION_FINAL_mvl/mxv
	BYTE		PAN     c_v-14
	BYTE	W96
// 001   ----------------------------------------
	BYTE	W96
// 002   ----------------------------------------
	BYTE	W96
// 003   ----------------------------------------
	BYTE	W96
// 004   ----------------------------------------
	BYTE	W96
// 005   ----------------------------------------
	BYTE	W96
// 006   ----------------------------------------
	BYTE	W96
// 007   ----------------------------------------
	BYTE	W96
// 008   ----------------------------------------
	BYTE	W96
// 009   ----------------------------------------
	BYTE	W96
// 010   ----------------------------------------
	BYTE	W96
// 011   ----------------------------------------
	BYTE	W96
// 012   ----------------------------------------
	BYTE	W96
// 013   ----------------------------------------
	BYTE	W96
// 014   ----------------------------------------
	BYTE	W96
// 015   ----------------------------------------
	BYTE	W96
// 016   ----------------------------------------
LIBERATION_FINAL_4_016:
	BYTE		TIE     An2   v056
	BYTE		TIE     Cn3 
	BYTE		N96     En3 
	BYTE		N96     Gn3 
	BYTE	W96
	BYTE	PEND
// 017   ----------------------------------------
	BYTE		        Dn3 
	BYTE		N96     Fs3 
	BYTE	W96
// 018   ----------------------------------------
	BYTE		        Fn2 
	BYTE		N96     Gn3 
	BYTE	W96
	BYTE		EOT     An2 
	BYTE		        Cn3 
// 019   ----------------------------------------
	BYTE		N96     Gn2 
	BYTE		N96     Bn2 
	BYTE		N96     Dn3 
	BYTE		N96     Fn3 
	BYTE	W96
// 020   ----------------------------------------
	BYTE	PATT
	 POIN2	LIBERATION_FINAL_4_016
// 021   ----------------------------------------
	BYTE		N96     Dn3   v056
	BYTE		N96     Fs3 
	BYTE	W96
// 022   ----------------------------------------
	BYTE		        Fn2 
	BYTE		N96     Gn3 
	BYTE	W96
	BYTE		EOT     An2 
	BYTE		        Cn3 
// 023   ----------------------------------------
	BYTE		N90     Gn2 
	BYTE		N90     Bn2 
	BYTE		N90     Dn3 
	BYTE		N90     Fn3 
	BYTE	W96
// 024   ----------------------------------------
LIBERATION_FINAL_4_024:
	BYTE		N06     Cn4   v056
	BYTE		N06     En4 
	BYTE		N06     Gn4 
	BYTE		N06     An4 
	BYTE	W24
	BYTE		        Cn4 
	BYTE		N06     En4 
	BYTE		N06     Gn4 
	BYTE		N06     An4 
	BYTE	W24
	BYTE		        Cn4 
	BYTE		N06     En4 
	BYTE		N06     Gn4 
	BYTE		N06     An4 
	BYTE	W24
	BYTE		        Cn4 
	BYTE		N06     En4 
	BYTE		N06     Gn4 
	BYTE		N06     An4 
	BYTE	W24
	BYTE	PEND
// 025   ----------------------------------------
LIBERATION_FINAL_4_025:
	BYTE		N06     Cn4   v056
	BYTE		N06     Fs4 
	BYTE		N06     An4 
	BYTE	W24
	BYTE		        Cn4 
	BYTE		N06     Fs4 
	BYTE		N06     An4 
	BYTE	W24
	BYTE		        Cn4 
	BYTE		N06     Fs4 
	BYTE		N06     An4 
	BYTE	W24
	BYTE		        Cn4 
	BYTE		N06     Fs4 
	BYTE		N06     An4 
	BYTE	W24
	BYTE	PEND
// 026   ----------------------------------------
LIBERATION_FINAL_4_026:
	BYTE		N06     Cn4   v056
	BYTE		N06     Dn4 
	BYTE		N06     Fn4 
	BYTE		N06     An4 
	BYTE	W24
	BYTE		        Cn4 
	BYTE		N06     Dn4 
	BYTE		N06     Fn4 
	BYTE		N06     An4 
	BYTE	W24
	BYTE		        Cn4 
	BYTE		N06     Dn4 
	BYTE		N06     Fn4 
	BYTE		N06     An4 
	BYTE	W24
	BYTE		        Cn4 
	BYTE		N06     Dn4 
	BYTE		N06     Fn4 
	BYTE		N06     An4 
	BYTE	W24
	BYTE	PEND
// 027   ----------------------------------------
LIBERATION_FINAL_4_027:
	BYTE		N06     Cn4   v056
	BYTE		N06     En4 
	BYTE		N06     Gn4 
	BYTE		N06     An4 
	BYTE	W24
	BYTE		        Cn4 
	BYTE		N06     En4 
	BYTE		N06     Gn4 
	BYTE		N06     An4 
	BYTE	W24
	BYTE		        Bn3 
	BYTE		N06     Dn4 
	BYTE		N06     Fn4 
	BYTE		N06     Gn4 
	BYTE	W24
	BYTE		        Bn3 
	BYTE		N06     Dn4 
	BYTE		N06     Fn4 
	BYTE		N06     Gn4 
	BYTE	W24
	BYTE	PEND
// 028   ----------------------------------------
	BYTE	PATT
	 POIN2	LIBERATION_FINAL_4_024
// 029   ----------------------------------------
	BYTE	PATT
	 POIN2	LIBERATION_FINAL_4_025
// 030   ----------------------------------------
	BYTE	PATT
	 POIN2	LIBERATION_FINAL_4_026
// 031   ----------------------------------------
	BYTE	PATT
	 POIN2	LIBERATION_FINAL_4_027
// 032   ----------------------------------------
LIBERATION_FINAL_4_032:
	BYTE		TIE     Dn3   v056
	BYTE		TIE     Fn3 
	BYTE		TIE     An3 
	BYTE		TIE     Cn4 
	BYTE	W96
	BYTE	PEND
// 033   ----------------------------------------
	BYTE	W96
	BYTE		EOT     Dn3 
	BYTE		        Fn3 
	BYTE		        An3 
	BYTE		        Cn4 
// 034   ----------------------------------------
LIBERATION_FINAL_4_034:
	BYTE		TIE     Cn3   v056
	BYTE		TIE     En3 
	BYTE		TIE     Gn3 
	BYTE		TIE     Bn3 
	BYTE	W96
	BYTE	PEND
// 035   ----------------------------------------
	BYTE	W96
	BYTE		EOT     Cn3 
	BYTE		        En3 
	BYTE		        Gn3 
	BYTE		        Bn3 
// 036   ----------------------------------------
LIBERATION_FINAL_4_036:
	BYTE		TIE     En3   v056
	BYTE		TIE     Gn3 
	BYTE		TIE     Bn3 
	BYTE		TIE     Dn4 
	BYTE	W96
	BYTE	PEND
// 037   ----------------------------------------
	BYTE	W96
	BYTE		EOT     En3 
	BYTE		        Gn3 
	BYTE		        Bn3 
	BYTE		        Dn4 
// 038   ----------------------------------------
LIBERATION_FINAL_4_038:
	BYTE		N96     En3   v056
	BYTE		N96     Gn3 
	BYTE		N96     An3 
	BYTE		N96     Cn4 
	BYTE	W96
	BYTE	PEND
// 039   ----------------------------------------
	BYTE		        Dn3 
	BYTE		N96     Fn3 
	BYTE		N96     Gn3 
	BYTE		N96     Bn3 
	BYTE	W96
// 040   ----------------------------------------
	BYTE	PATT
	 POIN2	LIBERATION_FINAL_4_032
// 041   ----------------------------------------
	BYTE	W96
	BYTE		EOT     Dn3 
	BYTE		        Fn3 
	BYTE		        An3 
	BYTE		        Cn4 
// 042   ----------------------------------------
	BYTE	PATT
	 POIN2	LIBERATION_FINAL_4_034
// 043   ----------------------------------------
	BYTE	W96
	BYTE		EOT     Cn3 
	BYTE		        En3 
	BYTE		        Gn3 
	BYTE		        Bn3 
// 044   ----------------------------------------
	BYTE	PATT
	 POIN2	LIBERATION_FINAL_4_036
// 045   ----------------------------------------
	BYTE	W96
	BYTE		EOT     En3 
	BYTE		        Gn3 
	BYTE		        Bn3 
	BYTE		        Dn4 
// 046   ----------------------------------------
	BYTE	PATT
	 POIN2	LIBERATION_FINAL_4_038
// 047   ----------------------------------------
	BYTE		N90     Dn3   v056
	BYTE		N90     Fn3 
	BYTE		N90     Gn3 
	BYTE		N90     Bn3 
	BYTE	W96
// 048   ----------------------------------------
LIBERATION_FINAL_4_048:
	BYTE		N06     An3   v056
	BYTE		N06     Cn4 
	BYTE		N06     En4 
	BYTE		N06     Gn4 
	BYTE	W24
	BYTE		        An3 
	BYTE		N06     Cn4 
	BYTE		N06     En4 
	BYTE		N06     Gn4 
	BYTE	W24
	BYTE		        An3 
	BYTE		N06     Cn4 
	BYTE		N06     En4 
	BYTE		N06     Gn4 
	BYTE	W24
	BYTE		        An3 
	BYTE		N06     Cn4 
	BYTE		N06     En4 
	BYTE		N06     Gn4 
	BYTE	W24
	BYTE	PEND
// 049   ----------------------------------------
LIBERATION_FINAL_4_049:
	BYTE		N06     An3   v056
	BYTE		N06     Cn4 
	BYTE		N06     Dn4 
	BYTE		N06     Fs4 
	BYTE	W24
	BYTE		        An3 
	BYTE		N06     Cn4 
	BYTE		N06     Dn4 
	BYTE		N06     Fs4 
	BYTE	W24
	BYTE		        An3 
	BYTE		N06     Cn4 
	BYTE		N06     Dn4 
	BYTE		N06     Fs4 
	BYTE	W24
	BYTE		        An3 
	BYTE		N06     Cn4 
	BYTE		N06     Dn4 
	BYTE		N06     Fs4 
	BYTE	W24
	BYTE	PEND
// 050   ----------------------------------------
LIBERATION_FINAL_4_050:
	BYTE		N06     Fn3   v056
	BYTE		N06     An3 
	BYTE		N06     Cn4 
	BYTE		N06     Gn4 
	BYTE	W24
	BYTE		        Fn3 
	BYTE		N06     An3 
	BYTE		N06     Cn4 
	BYTE		N06     Gn4 
	BYTE	W24
	BYTE		        Fn3 
	BYTE		N06     An3 
	BYTE		N06     Cn4 
	BYTE		N06     Gn4 
	BYTE	W24
	BYTE		        Fn3 
	BYTE		N06     An3 
	BYTE		N06     Cn4 
	BYTE		N06     Gn4 
	BYTE	W24
	BYTE	PEND
// 051   ----------------------------------------
LIBERATION_FINAL_4_051:
	BYTE		N06     Gn3   v056
	BYTE		N06     Bn3 
	BYTE		N06     Dn4 
	BYTE		N06     Fn4 
	BYTE	W24
	BYTE		        Gn3 
	BYTE		N06     Bn3 
	BYTE		N06     Dn4 
	BYTE		N06     Fn4 
	BYTE	W24
	BYTE		        Gn3 
	BYTE		N06     Bn3 
	BYTE		N06     Dn4 
	BYTE		N06     Fn4 
	BYTE	W24
	BYTE		        Gn3 
	BYTE		N06     Bn3 
	BYTE		N06     Dn4 
	BYTE		N06     Fn4 
	BYTE	W24
	BYTE	PEND
// 052   ----------------------------------------
	BYTE	PATT
	 POIN2	LIBERATION_FINAL_4_048
// 053   ----------------------------------------
	BYTE	PATT
	 POIN2	LIBERATION_FINAL_4_049
// 054   ----------------------------------------
	BYTE	PATT
	 POIN2	LIBERATION_FINAL_4_050
// 055   ----------------------------------------
	BYTE	PATT
	 POIN2	LIBERATION_FINAL_4_051
// 056   ----------------------------------------
	BYTE		TIE     Fn3   v056
	BYTE		TIE     An3 
	BYTE		TIE     Cn4 
	BYTE		TIE     En4 
	BYTE	W96
// 057   ----------------------------------------
	BYTE	W66
	BYTE		EOT     Fn3 
	BYTE		        An3 
	BYTE		        Cn4 
	BYTE		        En4 
	BYTE	W24
	BYTE	W02
	BYTE	GoTo
	 POIN2	LIBERATION_FINAL_4_B1
LIBERATION_FINAL_4_B2:
	BYTE	FINE

//**************** Track 5 (Midi-Chn.6) ****************//

LIBERATION_FINAL_5:
	BYTE	KEYSH   LIBERATION_FINAL_key+0
LIBERATION_FINAL_5_B1:
// 000   ----------------------------------------
	BYTE		VOICE   81
	BYTE		MODT    0
	BYTE		LFOS    44
	BYTE		VOL     90*LIBERATION_FINAL_mvl/mxv
	BYTE		PAN     c_v-22
	BYTE	W96
// 001   ----------------------------------------
	BYTE	W96
// 002   ----------------------------------------
	BYTE	W96
// 003   ----------------------------------------
	BYTE	W96
// 004   ----------------------------------------
	BYTE	W96
// 005   ----------------------------------------
	BYTE	W96
// 006   ----------------------------------------
	BYTE	W96
// 007   ----------------------------------------
	BYTE	W96
// 008   ----------------------------------------
	BYTE	W96
// 009   ----------------------------------------
	BYTE	W96
// 010   ----------------------------------------
	BYTE	W96
// 011   ----------------------------------------
	BYTE	W96
// 012   ----------------------------------------
	BYTE	W96
// 013   ----------------------------------------
	BYTE	W96
// 014   ----------------------------------------
	BYTE	W96
// 015   ----------------------------------------
	BYTE	W96
// 016   ----------------------------------------
	BYTE	W96
// 017   ----------------------------------------
	BYTE	W96
// 018   ----------------------------------------
	BYTE	W96
// 019   ----------------------------------------
	BYTE	W96
// 020   ----------------------------------------
	BYTE	W96
// 021   ----------------------------------------
	BYTE	W96
// 022   ----------------------------------------
	BYTE	W96
// 023   ----------------------------------------
	BYTE	W96
// 024   ----------------------------------------
	BYTE		TIE     An0   v127
	BYTE	W96
// 025   ----------------------------------------
	BYTE	W96
	BYTE		EOT   
// 026   ----------------------------------------
	BYTE		TIE   
	BYTE	W96
// 027   ----------------------------------------
	BYTE	W48
	BYTE		EOT   
	BYTE		N48     Gn0 
	BYTE	W48
// 028   ----------------------------------------
	BYTE		TIE     An0 
	BYTE	W96
// 029   ----------------------------------------
	BYTE	W96
	BYTE		EOT   
// 030   ----------------------------------------
	BYTE		TIE   
	BYTE	W96
// 031   ----------------------------------------
	BYTE	W48
	BYTE		EOT   
	BYTE		N42     Gn0 
	BYTE	W48
// 032   ----------------------------------------
	BYTE	W96
// 033   ----------------------------------------
	BYTE	W96
// 034   ----------------------------------------
	BYTE	W96
// 035   ----------------------------------------
	BYTE	W96
// 036   ----------------------------------------
	BYTE	W96
// 037   ----------------------------------------
	BYTE	W96
// 038   ----------------------------------------
	BYTE	W96
// 039   ----------------------------------------
	BYTE	W96
// 040   ----------------------------------------
	BYTE	W96
// 041   ----------------------------------------
	BYTE	W96
// 042   ----------------------------------------
	BYTE	W96
// 043   ----------------------------------------
	BYTE	W96
// 044   ----------------------------------------
	BYTE	W96
// 045   ----------------------------------------
	BYTE	W96
// 046   ----------------------------------------
	BYTE	W96
// 047   ----------------------------------------
	BYTE	W96
// 048   ----------------------------------------
	BYTE		TIE     An0 
	BYTE	W96
// 049   ----------------------------------------
	BYTE	W96
	BYTE		EOT   
// 050   ----------------------------------------
	BYTE		N96   
	BYTE	W96
// 051   ----------------------------------------
	BYTE		        Gn0 
	BYTE	W96
// 052   ----------------------------------------
	BYTE		TIE     An0 
	BYTE	W96
// 053   ----------------------------------------
	BYTE	W96
	BYTE		EOT   
// 054   ----------------------------------------
	BYTE		N96   
	BYTE	W96
// 055   ----------------------------------------
	BYTE		N90     Gn0 
	BYTE	W96
// 056   ----------------------------------------
	BYTE		TIE     Fn0 
	BYTE	W96
// 057   ----------------------------------------
	BYTE	W66
	BYTE		EOT   
	BYTE	W24
	BYTE	W02
	BYTE	GoTo
	 POIN2	LIBERATION_FINAL_5_B1
LIBERATION_FINAL_5_B2:
	BYTE	FINE

//**************** Track 6 (Midi-Chn.7) ****************//

LIBERATION_FINAL_6:
	BYTE	KEYSH   LIBERATION_FINAL_key+0
LIBERATION_FINAL_6_B1:
// 000   ----------------------------------------
	BYTE		VOICE   30
	BYTE		MODT    0
	BYTE		LFOS    44
	BYTE		VOL     78*LIBERATION_FINAL_mvl/mxv
	BYTE		PAN     c_v+15
	BYTE	W96
// 001   ----------------------------------------
	BYTE	W96
// 002   ----------------------------------------
	BYTE	W96
// 003   ----------------------------------------
	BYTE	W96
// 004   ----------------------------------------
	BYTE	W96
// 005   ----------------------------------------
	BYTE	W96
// 006   ----------------------------------------
	BYTE	W96
// 007   ----------------------------------------
	BYTE	W96
// 008   ----------------------------------------
	BYTE	W96
// 009   ----------------------------------------
	BYTE	W96
// 010   ----------------------------------------
	BYTE	W96
// 011   ----------------------------------------
	BYTE	W96
// 012   ----------------------------------------
	BYTE	W96
// 013   ----------------------------------------
	BYTE	W96
// 014   ----------------------------------------
	BYTE	W96
// 015   ----------------------------------------
	BYTE	W96
// 016   ----------------------------------------
	BYTE	W96
// 017   ----------------------------------------
	BYTE	W96
// 018   ----------------------------------------
	BYTE	W96
// 019   ----------------------------------------
	BYTE	W96
// 020   ----------------------------------------
	BYTE	W96
// 021   ----------------------------------------
	BYTE	W96
// 022   ----------------------------------------
	BYTE	W96
// 023   ----------------------------------------
	BYTE	W96
// 024   ----------------------------------------
	BYTE		TIE     An0   v127
	BYTE	W96
// 025   ----------------------------------------
	BYTE	W96
	BYTE		EOT   
// 026   ----------------------------------------
	BYTE		TIE   
	BYTE	W96
// 027   ----------------------------------------
	BYTE	W48
	BYTE		EOT   
	BYTE		N48     Gn0 
	BYTE	W48
// 028   ----------------------------------------
	BYTE		TIE     An0 
	BYTE	W96
// 029   ----------------------------------------
	BYTE	W96
	BYTE		EOT   
// 030   ----------------------------------------
	BYTE		TIE   
	BYTE	W96
// 031   ----------------------------------------
	BYTE	W48
	BYTE		EOT   
	BYTE		N42     Gn0 
	BYTE	W48
// 032   ----------------------------------------
	BYTE	W96
// 033   ----------------------------------------
	BYTE	W96
// 034   ----------------------------------------
	BYTE	W96
// 035   ----------------------------------------
	BYTE	W96
// 036   ----------------------------------------
	BYTE	W96
// 037   ----------------------------------------
	BYTE	W96
// 038   ----------------------------------------
	BYTE	W96
// 039   ----------------------------------------
	BYTE	W96
// 040   ----------------------------------------
	BYTE	W96
// 041   ----------------------------------------
	BYTE	W96
// 042   ----------------------------------------
	BYTE	W96
// 043   ----------------------------------------
	BYTE	W96
// 044   ----------------------------------------
	BYTE	W96
// 045   ----------------------------------------
	BYTE	W96
// 046   ----------------------------------------
	BYTE	W96
// 047   ----------------------------------------
	BYTE	W96
// 048   ----------------------------------------
	BYTE		TIE     An0 
	BYTE	W96
// 049   ----------------------------------------
	BYTE	W96
	BYTE		EOT   
// 050   ----------------------------------------
	BYTE		N96   
	BYTE	W96
// 051   ----------------------------------------
	BYTE		        Gn0 
	BYTE	W96
// 052   ----------------------------------------
	BYTE		TIE     An0 
	BYTE	W96
// 053   ----------------------------------------
	BYTE	W96
	BYTE		EOT   
// 054   ----------------------------------------
	BYTE		N96   
	BYTE	W96
// 055   ----------------------------------------
	BYTE		N90     Gn0 
	BYTE	W96
// 056   ----------------------------------------
	BYTE		TIE     Fn0 
	BYTE	W96
// 057   ----------------------------------------
	BYTE	W66
	BYTE		EOT   
	BYTE	W24
	BYTE	W02
	BYTE	GoTo
	 POIN2	LIBERATION_FINAL_6_B1
LIBERATION_FINAL_6_B2:
	BYTE	FINE

//**************** Track 7 (Midi-Chn.8) ****************//

LIBERATION_FINAL_7:
	BYTE	KEYSH   LIBERATION_FINAL_key+0
LIBERATION_FINAL_7_B1:
// 000   ----------------------------------------
	BYTE		VOICE   124
	BYTE		MODT    0
	BYTE		LFOS    44
	BYTE		VOL     127*LIBERATION_FINAL_mvl/mxv
	BYTE		PAN     c_v+0
	BYTE		N20     Fs1   v127
	BYTE	W24
	BYTE		N11     Cs1 
	BYTE	W12
	BYTE		        Fs1 
	BYTE	W12
	BYTE		N20   
	BYTE	W24
	BYTE		        Cs1 
	BYTE	W24
// 001   ----------------------------------------
LIBERATION_FINAL_7_001:
	BYTE		N20     Fs1   v127
	BYTE	W24
	BYTE		N11     Cs1 
	BYTE	W12
	BYTE		        Fs1 
	BYTE	W12
	BYTE		N20   
	BYTE	W24
	BYTE		        Cs1 
	BYTE	W24
	BYTE	PEND
// 002   ----------------------------------------
	BYTE	PATT
	 POIN2	LIBERATION_FINAL_7_001
// 003   ----------------------------------------
	BYTE	PATT
	 POIN2	LIBERATION_FINAL_7_001
// 004   ----------------------------------------
	BYTE	PATT
	 POIN2	LIBERATION_FINAL_7_001
// 005   ----------------------------------------
	BYTE	PATT
	 POIN2	LIBERATION_FINAL_7_001
// 006   ----------------------------------------
	BYTE	PATT
	 POIN2	LIBERATION_FINAL_7_001
// 007   ----------------------------------------
	BYTE	PATT
	 POIN2	LIBERATION_FINAL_7_001
// 008   ----------------------------------------
LIBERATION_FINAL_7_008:
	BYTE		N20     Bn0   v127
	BYTE		N20     Fs1 
	BYTE	W24
	BYTE		N11     Cs1 
	BYTE	W12
	BYTE		        Bn0 
	BYTE		N11     Fs1 
	BYTE	W12
	BYTE		N20     Bn0 
	BYTE		N20     Fs1 
	BYTE	W24
	BYTE		        Cs1 
	BYTE	W24
	BYTE	PEND
// 009   ----------------------------------------
	BYTE	PATT
	 POIN2	LIBERATION_FINAL_7_008
// 010   ----------------------------------------
	BYTE	PATT
	 POIN2	LIBERATION_FINAL_7_008
// 011   ----------------------------------------
	BYTE	PATT
	 POIN2	LIBERATION_FINAL_7_008
// 012   ----------------------------------------
	BYTE	PATT
	 POIN2	LIBERATION_FINAL_7_008
// 013   ----------------------------------------
	BYTE	PATT
	 POIN2	LIBERATION_FINAL_7_008
// 014   ----------------------------------------
	BYTE	PATT
	 POIN2	LIBERATION_FINAL_7_008
// 015   ----------------------------------------
	BYTE	PATT
	 POIN2	LIBERATION_FINAL_7_008
// 016   ----------------------------------------
	BYTE	PATT
	 POIN2	LIBERATION_FINAL_7_001
// 017   ----------------------------------------
	BYTE	PATT
	 POIN2	LIBERATION_FINAL_7_001
// 018   ----------------------------------------
	BYTE	PATT
	 POIN2	LIBERATION_FINAL_7_001
// 019   ----------------------------------------
	BYTE	PATT
	 POIN2	LIBERATION_FINAL_7_001
// 020   ----------------------------------------
	BYTE	PATT
	 POIN2	LIBERATION_FINAL_7_001
// 021   ----------------------------------------
	BYTE	PATT
	 POIN2	LIBERATION_FINAL_7_001
// 022   ----------------------------------------
	BYTE	PATT
	 POIN2	LIBERATION_FINAL_7_001
// 023   ----------------------------------------
	BYTE		N20     Fs1   v127
	BYTE	W24
	BYTE		N11     Cs1 
	BYTE	W12
	BYTE		        Fs1 
	BYTE	W12
	BYTE		N20   
	BYTE	W24
	BYTE		N11     Cs1 
	BYTE		N11     En1 
	BYTE	W12
	BYTE		N05   
	BYTE	W06
	BYTE		N05   
	BYTE	W06
// 024   ----------------------------------------
LIBERATION_FINAL_7_024:
	BYTE		N11     Bn0   v127
	BYTE		N11     Fs1 
	BYTE		N11     An2 
	BYTE	W12
	BYTE		        Gs1 
	BYTE	W12
	BYTE		        Cs1 
	BYTE		N11     En1 
	BYTE		N11     As1 
	BYTE	W12
	BYTE		        Bn0 
	BYTE		N11     Fs1 
	BYTE		N11     Gs1 
	BYTE	W12
	BYTE		        Bn0 
	BYTE		N11     Fs1 
	BYTE	W12
	BYTE		        Gs1 
	BYTE	W12
	BYTE		        Cs1 
	BYTE		N11     En1 
	BYTE		N11     As1 
	BYTE	W12
	BYTE		        Gs1 
	BYTE	W12
	BYTE	PEND
// 025   ----------------------------------------
LIBERATION_FINAL_7_025:
	BYTE		N11     Bn0   v127
	BYTE		N11     Fs1 
	BYTE	W12
	BYTE		        Gs1 
	BYTE	W12
	BYTE		        Cs1 
	BYTE		N11     En1 
	BYTE		N11     As1 
	BYTE	W12
	BYTE		        Bn0 
	BYTE		N11     Fs1 
	BYTE		N11     Gs1 
	BYTE	W12
	BYTE		        Bn0 
	BYTE		N11     Fs1 
	BYTE	W12
	BYTE		        Gs1 
	BYTE	W12
	BYTE		        Cs1 
	BYTE		N11     En1 
	BYTE		N11     As1 
	BYTE	W12
	BYTE		        Gs1 
	BYTE	W12
	BYTE	PEND
// 026   ----------------------------------------
	BYTE	PATT
	 POIN2	LIBERATION_FINAL_7_025
// 027   ----------------------------------------
	BYTE	PATT
	 POIN2	LIBERATION_FINAL_7_025
// 028   ----------------------------------------
	BYTE	PATT
	 POIN2	LIBERATION_FINAL_7_025
// 029   ----------------------------------------
	BYTE	PATT
	 POIN2	LIBERATION_FINAL_7_025
// 030   ----------------------------------------
	BYTE	PATT
	 POIN2	LIBERATION_FINAL_7_025
// 031   ----------------------------------------
LIBERATION_FINAL_7_031:
	BYTE		N11     Bn0   v127
	BYTE		N11     Fs1 
	BYTE	W12
	BYTE		        Gs1 
	BYTE	W12
	BYTE		        Cs1 
	BYTE		N11     En1 
	BYTE		N11     As1 
	BYTE	W12
	BYTE		        Bn0 
	BYTE		N11     Fs1 
	BYTE		N11     Gs1 
	BYTE	W12
	BYTE		        Bn0 
	BYTE		N11     Fs1 
	BYTE	W12
	BYTE		        Gs1 
	BYTE	W12
	BYTE		        Cs1 
	BYTE		N11     En1 
	BYTE		N11     As1 
	BYTE	W12
	BYTE		N05     En1 
	BYTE		N05     Gs1 
	BYTE	W06
	BYTE		        En1 
	BYTE	W06
	BYTE	PEND
// 032   ----------------------------------------
	BYTE	W96
// 033   ----------------------------------------
	BYTE	W96
// 034   ----------------------------------------
	BYTE	W96
// 035   ----------------------------------------
	BYTE	W96
// 036   ----------------------------------------
	BYTE	W96
// 037   ----------------------------------------
	BYTE	W96
// 038   ----------------------------------------
	BYTE	W96
// 039   ----------------------------------------
	BYTE	W96
// 040   ----------------------------------------
	BYTE	PATT
	 POIN2	LIBERATION_FINAL_7_008
// 041   ----------------------------------------
	BYTE	PATT
	 POIN2	LIBERATION_FINAL_7_008
// 042   ----------------------------------------
	BYTE	PATT
	 POIN2	LIBERATION_FINAL_7_008
// 043   ----------------------------------------
	BYTE	PATT
	 POIN2	LIBERATION_FINAL_7_008
// 044   ----------------------------------------
	BYTE	PATT
	 POIN2	LIBERATION_FINAL_7_008
// 045   ----------------------------------------
	BYTE	PATT
	 POIN2	LIBERATION_FINAL_7_008
// 046   ----------------------------------------
	BYTE	PATT
	 POIN2	LIBERATION_FINAL_7_008
// 047   ----------------------------------------
	BYTE		N20     Bn0   v127
	BYTE		N20     Fs1 
	BYTE	W24
	BYTE		N11     Cs1 
	BYTE	W12
	BYTE		        Bn0 
	BYTE		N11     Fs1 
	BYTE	W12
	BYTE		N20     Bn0 
	BYTE		N20     Fs1 
	BYTE	W24
	BYTE		N11     Cs1 
	BYTE		N11     En1 
	BYTE	W12
	BYTE		N05   
	BYTE	W06
	BYTE		N05   
	BYTE	W06
// 048   ----------------------------------------
	BYTE	PATT
	 POIN2	LIBERATION_FINAL_7_024
// 049   ----------------------------------------
	BYTE	PATT
	 POIN2	LIBERATION_FINAL_7_025
// 050   ----------------------------------------
	BYTE	PATT
	 POIN2	LIBERATION_FINAL_7_025
// 051   ----------------------------------------
	BYTE	PATT
	 POIN2	LIBERATION_FINAL_7_025
// 052   ----------------------------------------
	BYTE	PATT
	 POIN2	LIBERATION_FINAL_7_025
// 053   ----------------------------------------
	BYTE	PATT
	 POIN2	LIBERATION_FINAL_7_025
// 054   ----------------------------------------
	BYTE	PATT
	 POIN2	LIBERATION_FINAL_7_025
// 055   ----------------------------------------
	BYTE	PATT
	 POIN2	LIBERATION_FINAL_7_025
// 056   ----------------------------------------
	BYTE	PATT
	 POIN2	LIBERATION_FINAL_7_031
// 057   ----------------------------------------
	BYTE		N20     Bn0   v127
	BYTE		N20     Fs1 
	BYTE		N20     An2 
	BYTE	W24
	BYTE		N11     Cs1 
	BYTE	W12
	BYTE		        Bn0 
	BYTE		N11     Fs1 
	BYTE	W12
	BYTE		N20     Bn0 
	BYTE		N20     Fs1 
	BYTE	W24
	BYTE		        Cs1 
	BYTE	W20
	BYTE	GoTo
	 POIN2	LIBERATION_FINAL_7_B1
LIBERATION_FINAL_7_B2:
	BYTE	FINE

//******************************************************//
	ALIGN 4

LIBERATION_FINAL:
	BYTE	7	// NumTrks
	BYTE	0	// NumBlks
	BYTE	LIBERATION_FINAL_pri	// Priority
	BYTE	LIBERATION_FINAL_rev	// Reverb.

	POIN2	LIBERATION_FINAL_grp

	POIN2	LIBERATION_FINAL_1
	POIN2	LIBERATION_FINAL_2
	POIN2	LIBERATION_FINAL_3
	POIN2	LIBERATION_FINAL_4
	POIN2	LIBERATION_FINAL_5
	POIN2	LIBERATION_FINAL_6
	POIN2	LIBERATION_FINAL_7

	
