//Event file generated from Sappy .s format.
	#include "MPlayDef.event"

	#define	LightSprinkles_FINAL_grp  voicegroup000
	#define	LightSprinkles_FINAL_pri  0
	#define	LightSprinkles_FINAL_rev  0xA0
	#define	LightSprinkles_FINAL_mvl  28
	#define	LightSprinkles_FINAL_key  0
	#define	LightSprinkles_FINAL_tbs  1
	#define	LightSprinkles_FINAL_exg  0
	#define	LightSprinkles_FINAL_cmp  1

	// .rodata
	//	LightSprinkles_FINAL
	ALIGN 4

//**************** Track 1 (Midi-Chn.1) ****************//

LightSprinkles_FINAL_1:
	BYTE	KEYSH   LightSprinkles_FINAL_key+0
LightSprinkles_FINAL_1_B1:
// 000   ----------------------------------------
	BYTE	TEMPO   100*LightSprinkles_FINAL_tbs/2
	BYTE		VOICE   48
	BYTE		MODT    0
	BYTE		LFOS    44
	BYTE		VOL     127*LightSprinkles_FINAL_mvl/mxv
	BYTE		PAN     c_v-64
	BYTE		TIE     Dn2   v056
	BYTE		TIE     Gn2 
	BYTE		TIE     Bn2 
	BYTE		TIE     Fs3 
	BYTE	W96
// 001   ----------------------------------------
	BYTE	W48
	BYTE		EOT   
	BYTE		N24     En3 
	BYTE	W24
	BYTE		        Dn3 
	BYTE	W18
	BYTE		EOT     Dn2 
	BYTE		        Gn2 
	BYTE		        Bn2 
	BYTE	W06
// 002   ----------------------------------------
LightSprinkles_FINAL_1_002:
	BYTE		TIE     Dn2   v056
	BYTE		TIE     Fs2 
	BYTE		TIE     An2 
	BYTE		N48     Cs3 
	BYTE	W48
	BYTE		        Dn3 
	BYTE	W48
	BYTE	PEND
// 003   ----------------------------------------
	BYTE		        En3 
	BYTE	W48
	BYTE		        An3 
	BYTE	W42
	BYTE		EOT     Dn2 
	BYTE		        Fs2 
	BYTE		        An2 
	BYTE	W06
// 004   ----------------------------------------
LightSprinkles_FINAL_1_004:
	BYTE		TIE     Dn2   v056
	BYTE		TIE     Gn2 
	BYTE		TIE     Bn2 
	BYTE		TIE     Fs3 
	BYTE	W96
	BYTE	PEND
// 005   ----------------------------------------
	BYTE	W48
	BYTE		EOT   
	BYTE		N24     En3 
	BYTE	W24
	BYTE		        Dn3 
	BYTE	W18
	BYTE		EOT     Dn2 
	BYTE		        Gn2 
	BYTE		        Bn2 
	BYTE	W06
// 006   ----------------------------------------
	BYTE	PATT
	 POIN2	LightSprinkles_FINAL_1_002
// 007   ----------------------------------------
	BYTE		N48     En3   v056
	BYTE	W48
	BYTE		        An3 
	BYTE	W42
	BYTE		EOT     Dn2 
	BYTE		        Fs2 
	BYTE		        An2 
	BYTE	W06
// 008   ----------------------------------------
	BYTE	PATT
	 POIN2	LightSprinkles_FINAL_1_004
// 009   ----------------------------------------
	BYTE	W48
	BYTE		EOT     Fs3 
	BYTE		N24     En3   v056
	BYTE	W24
	BYTE		        Dn3 
	BYTE	W18
	BYTE		EOT     Dn2 
	BYTE		        Gn2 
	BYTE		        Bn2 
	BYTE	W06
// 010   ----------------------------------------
	BYTE	PATT
	 POIN2	LightSprinkles_FINAL_1_002
// 011   ----------------------------------------
	BYTE		N48     En3   v056
	BYTE	W48
	BYTE		        An3 
	BYTE	W42
	BYTE		EOT     Dn2 
	BYTE		        Fs2 
	BYTE		        An2 
	BYTE	W06
// 012   ----------------------------------------
	BYTE	PATT
	 POIN2	LightSprinkles_FINAL_1_004
// 013   ----------------------------------------
	BYTE	W48
	BYTE		EOT     Fs3 
	BYTE		N24     En3   v056
	BYTE	W24
	BYTE		        Dn3 
	BYTE	W18
	BYTE		EOT     Dn2 
	BYTE		        Gn2 
	BYTE		        Bn2 
	BYTE	W06
// 014   ----------------------------------------
	BYTE	PATT
	 POIN2	LightSprinkles_FINAL_1_002
// 015   ----------------------------------------
	BYTE		N48     En3   v056
	BYTE	W48
	BYTE		        An3 
	BYTE	W42
	BYTE		EOT     Dn2 
	BYTE		        Fs2 
	BYTE		        An2 
	BYTE	W06
// 016   ----------------------------------------
	BYTE	PATT
	 POIN2	LightSprinkles_FINAL_1_004
// 017   ----------------------------------------
	BYTE	W48
	BYTE		EOT     Fs3 
	BYTE		N24     En3   v056
	BYTE	W24
	BYTE		        Dn3 
	BYTE	W18
	BYTE		EOT     Dn2 
	BYTE		        Gn2 
	BYTE		        Bn2 
	BYTE	W06
// 018   ----------------------------------------
	BYTE	PATT
	 POIN2	LightSprinkles_FINAL_1_002
// 019   ----------------------------------------
	BYTE		N48     En3   v056
	BYTE	W48
	BYTE		        An3 
	BYTE	W42
	BYTE		EOT     Dn2 
	BYTE		        Fs2 
	BYTE		        An2 
	BYTE	W06
// 020   ----------------------------------------
	BYTE	PATT
	 POIN2	LightSprinkles_FINAL_1_004
// 021   ----------------------------------------
	BYTE	W48
	BYTE		EOT     Fs3 
	BYTE		N24     En3   v056
	BYTE	W24
	BYTE		        Dn3 
	BYTE	W18
	BYTE		EOT     Dn2 
	BYTE		        Gn2 
	BYTE		        Bn2 
	BYTE	W06
// 022   ----------------------------------------
	BYTE	PATT
	 POIN2	LightSprinkles_FINAL_1_002
// 023   ----------------------------------------
	BYTE		N48     En3   v056
	BYTE	W48
	BYTE		N96     An3 
	BYTE	W42
	BYTE		EOT     Dn2 
	BYTE		        Fs2 
	BYTE		        An2 
	BYTE	W06
// 024   ----------------------------------------
	BYTE		N90     Fn2 
	BYTE		N90     An2 
	BYTE		TIE     Cn3 
	BYTE	W48
	BYTE		N48     Gn3 
	BYTE	W48
// 025   ----------------------------------------
	BYTE		N90     En2 
	BYTE		N90     Gn2 
	BYTE		N48     Fn3 
	BYTE	W48
	BYTE		        En3 
	BYTE	W42
	BYTE		EOT     Cn3 
	BYTE	W06
// 026   ----------------------------------------
	BYTE		N90     Dn2 
	BYTE		N90     Fn2 
	BYTE		N90     As2 
	BYTE		N48     Dn3 
	BYTE	W48
	BYTE		        Fn3 
	BYTE	W48
// 027   ----------------------------------------
	BYTE		N90     En2 
	BYTE		N90     Gn2 
	BYTE		N90     Cn3 
	BYTE		N48     Gn3 
	BYTE	W48
	BYTE		        As3 
	BYTE	W48
// 028   ----------------------------------------
	BYTE		N90     Gn2 
	BYTE		N90     Bn2 
	BYTE		N90     Dn3 
	BYTE		N48     An3 
	BYTE	W48
	BYTE		        Gn3 
	BYTE	W48
// 029   ----------------------------------------
	BYTE		N90     Ds2 
	BYTE		N90     Fs2 
	BYTE		N90     Bn2 
	BYTE		N48     Fs3 
	BYTE	W48
	BYTE		N24     En3 
	BYTE	W24
	BYTE		        Ds3 
	BYTE	W24
// 030   ----------------------------------------
	BYTE		N90     En2 
	BYTE		N90     Gs2 
	BYTE		N90     Bn2 
	BYTE		N48     En3 
	BYTE	W48
	BYTE		        Gs3 
	BYTE	W48
// 031   ----------------------------------------
	BYTE		N90     An2 
	BYTE		N90     Cs3 
	BYTE		N90     En3 
	BYTE		N48     An3 
	BYTE	W48
	BYTE		        Gn3 
	BYTE	W48
// 032   ----------------------------------------
	BYTE	PATT
	 POIN2	LightSprinkles_FINAL_1_004
// 033   ----------------------------------------
	BYTE	W48
	BYTE		EOT     Fs3 
	BYTE		N24     En3   v056
	BYTE	W24
	BYTE		        Dn3 
	BYTE	W18
	BYTE		EOT     Dn2 
	BYTE		        Gn2 
	BYTE		        Bn2 
	BYTE	W06
// 034   ----------------------------------------
	BYTE	PATT
	 POIN2	LightSprinkles_FINAL_1_002
// 035   ----------------------------------------
	BYTE		N48     En3   v056
	BYTE	W48
	BYTE		        An3 
	BYTE	W42
	BYTE		EOT     Dn2 
	BYTE		        Fs2 
	BYTE		        An2 
	BYTE	W06
// 036   ----------------------------------------
	BYTE	PATT
	 POIN2	LightSprinkles_FINAL_1_004
// 037   ----------------------------------------
	BYTE	W48
	BYTE		EOT     Fs3 
	BYTE		N24     En3   v056
	BYTE	W24
	BYTE		        Dn3 
	BYTE	W18
	BYTE		EOT     Dn2 
	BYTE		        Gn2 
	BYTE		        Bn2 
	BYTE	W06
// 038   ----------------------------------------
	BYTE	PATT
	 POIN2	LightSprinkles_FINAL_1_002
// 039   ----------------------------------------
	BYTE		N48     En3   v056
	BYTE	W48
	BYTE		        An3 
	BYTE	W42
	BYTE		EOT     Dn2 
	BYTE		        Fs2 
	BYTE		        An2 
	BYTE	W06
// 040   ----------------------------------------
	BYTE	PATT
	 POIN2	LightSprinkles_FINAL_1_004
// 041   ----------------------------------------
	BYTE	W48
	BYTE		EOT     Fs3 
	BYTE		N24     En3   v056
	BYTE	W24
	BYTE		        Dn3 
	BYTE	W18
	BYTE		EOT     Dn2 
	BYTE		        Gn2 
	BYTE		        Bn2 
	BYTE	W06
// 042   ----------------------------------------
	BYTE	PATT
	 POIN2	LightSprinkles_FINAL_1_002
// 043   ----------------------------------------
	BYTE		N48     En3   v056
	BYTE	W48
	BYTE		        An3 
	BYTE	W42
	BYTE		EOT     Dn2 
	BYTE		        Fs2 
	BYTE		        An2 
	BYTE	W06
// 044   ----------------------------------------
	BYTE	PATT
	 POIN2	LightSprinkles_FINAL_1_004
// 045   ----------------------------------------
	BYTE	W48
	BYTE		EOT     Fs3 
	BYTE		N24     En3   v056
	BYTE	W24
	BYTE		        Dn3 
	BYTE	W18
	BYTE		EOT     Dn2 
	BYTE		        Gn2 
	BYTE		        Bn2 
	BYTE	W06
// 046   ----------------------------------------
	BYTE	PATT
	 POIN2	LightSprinkles_FINAL_1_002
// 047   ----------------------------------------
	BYTE		N48     En3   v056
	BYTE	W48
	BYTE		        An3 
	BYTE	W42
	BYTE		EOT     Dn2 
	BYTE		        Fs2 
	BYTE		        An2 
	BYTE	W06
// 048   ----------------------------------------
LightSprinkles_FINAL_1_048:
	BYTE		N96     Fs2   v056
	BYTE		N96     Bn2 
	BYTE		N96     Dn3 
	BYTE	W96
	BYTE	PEND
// 049   ----------------------------------------
LightSprinkles_FINAL_1_049:
	BYTE		N96     An2   v056
	BYTE		N96     Cs3 
	BYTE		N96     En3 
	BYTE	W96
	BYTE	PEND
// 050   ----------------------------------------
LightSprinkles_FINAL_1_050:
	BYTE		N96     Bn2   v056
	BYTE		N96     Dn3 
	BYTE		N96     Fs3 
	BYTE	W96
	BYTE	PEND
// 051   ----------------------------------------
	BYTE		        Gn2 
	BYTE		N96     Bn2 
	BYTE		N96     En3 
	BYTE	W96
// 052   ----------------------------------------
	BYTE	PATT
	 POIN2	LightSprinkles_FINAL_1_048
// 053   ----------------------------------------
	BYTE	PATT
	 POIN2	LightSprinkles_FINAL_1_049
// 054   ----------------------------------------
	BYTE	PATT
	 POIN2	LightSprinkles_FINAL_1_050
// 055   ----------------------------------------
	BYTE		N90     Gn2   v056
	BYTE		N90     Bn2 
	BYTE		N90     En3 
	BYTE	W96
	BYTE	GoTo
	 POIN2	LightSprinkles_FINAL_1_B1
LightSprinkles_FINAL_1_B2:
// 056   ----------------------------------------
	BYTE	FINE

//**************** Track 2 (Midi-Chn.2) ****************//

LightSprinkles_FINAL_2:
	BYTE	KEYSH   LightSprinkles_FINAL_key+0
LightSprinkles_FINAL_2_B1:
// 000   ----------------------------------------
	BYTE		VOICE   50
	BYTE		MODT    0
	BYTE		LFOS    44
	BYTE		VOL     127*LightSprinkles_FINAL_mvl/mxv
	BYTE		PAN     c_v+63
	BYTE		TIE     Dn2   v056
	BYTE		TIE     Gn2 
	BYTE		TIE     Bn2 
	BYTE		TIE     Fs3 
	BYTE	W96
// 001   ----------------------------------------
	BYTE	W48
	BYTE		EOT   
	BYTE		N24     En3 
	BYTE	W24
	BYTE		        Dn3 
	BYTE	W18
	BYTE		EOT     Dn2 
	BYTE		        Gn2 
	BYTE		        Bn2 
	BYTE	W06
// 002   ----------------------------------------
LightSprinkles_FINAL_2_002:
	BYTE		TIE     Dn2   v056
	BYTE		TIE     Fs2 
	BYTE		TIE     An2 
	BYTE		N48     Cs3 
	BYTE	W48
	BYTE		        Dn3 
	BYTE	W48
	BYTE	PEND
// 003   ----------------------------------------
	BYTE		        En3 
	BYTE	W48
	BYTE		        An3 
	BYTE	W42
	BYTE		EOT     Dn2 
	BYTE		        Fs2 
	BYTE		        An2 
	BYTE	W06
// 004   ----------------------------------------
LightSprinkles_FINAL_2_004:
	BYTE		TIE     Dn2   v056
	BYTE		TIE     Gn2 
	BYTE		TIE     Bn2 
	BYTE		TIE     Fs3 
	BYTE	W96
	BYTE	PEND
// 005   ----------------------------------------
	BYTE	W48
	BYTE		EOT   
	BYTE		N24     En3 
	BYTE	W24
	BYTE		        Dn3 
	BYTE	W18
	BYTE		EOT     Dn2 
	BYTE		        Gn2 
	BYTE		        Bn2 
	BYTE	W06
// 006   ----------------------------------------
	BYTE	PATT
	 POIN2	LightSprinkles_FINAL_2_002
// 007   ----------------------------------------
	BYTE		N48     En3   v056
	BYTE	W48
	BYTE		        An3 
	BYTE	W42
	BYTE		EOT     Dn2 
	BYTE		        Fs2 
	BYTE		        An2 
	BYTE	W06
// 008   ----------------------------------------
	BYTE	PATT
	 POIN2	LightSprinkles_FINAL_2_004
// 009   ----------------------------------------
	BYTE	W48
	BYTE		EOT     Fs3 
	BYTE		N24     En3   v056
	BYTE	W24
	BYTE		        Dn3 
	BYTE	W18
	BYTE		EOT     Dn2 
	BYTE		        Gn2 
	BYTE		        Bn2 
	BYTE	W06
// 010   ----------------------------------------
	BYTE	PATT
	 POIN2	LightSprinkles_FINAL_2_002
// 011   ----------------------------------------
	BYTE		N48     En3   v056
	BYTE	W48
	BYTE		        An3 
	BYTE	W42
	BYTE		EOT     Dn2 
	BYTE		        Fs2 
	BYTE		        An2 
	BYTE	W06
// 012   ----------------------------------------
	BYTE	PATT
	 POIN2	LightSprinkles_FINAL_2_004
// 013   ----------------------------------------
	BYTE	W48
	BYTE		EOT     Fs3 
	BYTE		N24     En3   v056
	BYTE	W24
	BYTE		        Dn3 
	BYTE	W18
	BYTE		EOT     Dn2 
	BYTE		        Gn2 
	BYTE		        Bn2 
	BYTE	W06
// 014   ----------------------------------------
	BYTE	PATT
	 POIN2	LightSprinkles_FINAL_2_002
// 015   ----------------------------------------
	BYTE		N48     En3   v056
	BYTE	W48
	BYTE		        An3 
	BYTE	W42
	BYTE		EOT     Dn2 
	BYTE		        Fs2 
	BYTE		        An2 
	BYTE	W06
// 016   ----------------------------------------
	BYTE	PATT
	 POIN2	LightSprinkles_FINAL_2_004
// 017   ----------------------------------------
	BYTE	W48
	BYTE		EOT     Fs3 
	BYTE		N24     En3   v056
	BYTE	W24
	BYTE		        Dn3 
	BYTE	W18
	BYTE		EOT     Dn2 
	BYTE		        Gn2 
	BYTE		        Bn2 
	BYTE	W06
// 018   ----------------------------------------
	BYTE	PATT
	 POIN2	LightSprinkles_FINAL_2_002
// 019   ----------------------------------------
	BYTE		N48     En3   v056
	BYTE	W48
	BYTE		        An3 
	BYTE	W42
	BYTE		EOT     Dn2 
	BYTE		        Fs2 
	BYTE		        An2 
	BYTE	W06
// 020   ----------------------------------------
	BYTE	PATT
	 POIN2	LightSprinkles_FINAL_2_004
// 021   ----------------------------------------
	BYTE	W48
	BYTE		EOT     Fs3 
	BYTE		N24     En3   v056
	BYTE	W24
	BYTE		        Dn3 
	BYTE	W18
	BYTE		EOT     Dn2 
	BYTE		        Gn2 
	BYTE		        Bn2 
	BYTE	W06
// 022   ----------------------------------------
	BYTE	PATT
	 POIN2	LightSprinkles_FINAL_2_002
// 023   ----------------------------------------
	BYTE		N48     En3   v056
	BYTE	W48
	BYTE		        An3 
	BYTE	W42
	BYTE		EOT     Dn2 
	BYTE		        Fs2 
	BYTE		        An2 
	BYTE	W06
// 024   ----------------------------------------
	BYTE		N90     Fn2 
	BYTE		N90     An2 
	BYTE		TIE     Cn3 
	BYTE		N48     An3 
	BYTE	W48
	BYTE		        Gn3 
	BYTE	W48
// 025   ----------------------------------------
	BYTE		N90     En2 
	BYTE		N90     Gn2 
	BYTE		N48     Fn3 
	BYTE	W48
	BYTE		        En3 
	BYTE	W42
	BYTE		EOT     Cn3 
	BYTE	W06
// 026   ----------------------------------------
	BYTE		N90     Dn2 
	BYTE		N90     Fn2 
	BYTE		N90     As2 
	BYTE		N48     Dn3 
	BYTE	W48
	BYTE		        Fn3 
	BYTE	W48
// 027   ----------------------------------------
	BYTE		N90     En2 
	BYTE		N90     Gn2 
	BYTE		N90     Cn3 
	BYTE		N48     Gn3 
	BYTE	W48
	BYTE		        As3 
	BYTE	W48
// 028   ----------------------------------------
	BYTE		N90     Gn2 
	BYTE		N90     Bn2 
	BYTE		N90     Dn3 
	BYTE		N42     An3 
	BYTE	W48
	BYTE		        Gn3 
	BYTE	W48
// 029   ----------------------------------------
	BYTE		N90     Ds2 
	BYTE		N90     Fs2 
	BYTE		N90     Bn2 
	BYTE		N42     Fs3 
	BYTE	W48
	BYTE		N20     En3 
	BYTE	W24
	BYTE		        Ds3 
	BYTE	W24
// 030   ----------------------------------------
	BYTE		N90     En2 
	BYTE		N90     Gs2 
	BYTE		N90     Bn2 
	BYTE		N42     En3 
	BYTE	W48
	BYTE		        Gs3 
	BYTE	W48
// 031   ----------------------------------------
	BYTE		N90     An2 
	BYTE		N90     Cs3 
	BYTE		N90     En3 
	BYTE		N42     An3 
	BYTE	W48
	BYTE		        Gn3 
	BYTE	W48
// 032   ----------------------------------------
	BYTE	PATT
	 POIN2	LightSprinkles_FINAL_2_004
// 033   ----------------------------------------
	BYTE	W48
	BYTE		EOT     Fs3 
	BYTE		N24     En3   v056
	BYTE	W24
	BYTE		        Dn3 
	BYTE	W18
	BYTE		EOT     Dn2 
	BYTE		        Gn2 
	BYTE		        Bn2 
	BYTE	W06
// 034   ----------------------------------------
	BYTE	PATT
	 POIN2	LightSprinkles_FINAL_2_002
// 035   ----------------------------------------
	BYTE		N48     En3   v056
	BYTE	W48
	BYTE		        An3 
	BYTE	W42
	BYTE		EOT     Dn2 
	BYTE		        Fs2 
	BYTE		        An2 
	BYTE	W06
// 036   ----------------------------------------
	BYTE	PATT
	 POIN2	LightSprinkles_FINAL_2_004
// 037   ----------------------------------------
	BYTE	W48
	BYTE		EOT     Fs3 
	BYTE		N24     En3   v056
	BYTE	W24
	BYTE		        Dn3 
	BYTE	W18
	BYTE		EOT     Dn2 
	BYTE		        Gn2 
	BYTE		        Bn2 
	BYTE	W06
// 038   ----------------------------------------
	BYTE	PATT
	 POIN2	LightSprinkles_FINAL_2_002
// 039   ----------------------------------------
	BYTE		N48     En3   v056
	BYTE	W48
	BYTE		        An3 
	BYTE	W42
	BYTE		EOT     Dn2 
	BYTE		        Fs2 
	BYTE		        An2 
	BYTE	W06
// 040   ----------------------------------------
	BYTE	PATT
	 POIN2	LightSprinkles_FINAL_2_004
// 041   ----------------------------------------
	BYTE	W48
	BYTE		EOT     Fs3 
	BYTE		N24     En3   v056
	BYTE	W24
	BYTE		        Dn3 
	BYTE	W18
	BYTE		EOT     Dn2 
	BYTE		        Gn2 
	BYTE		        Bn2 
	BYTE	W06
// 042   ----------------------------------------
	BYTE	PATT
	 POIN2	LightSprinkles_FINAL_2_002
// 043   ----------------------------------------
	BYTE		N48     En3   v056
	BYTE	W48
	BYTE		        An3 
	BYTE	W42
	BYTE		EOT     Dn2 
	BYTE		        Fs2 
	BYTE		        An2 
	BYTE	W06
// 044   ----------------------------------------
	BYTE	PATT
	 POIN2	LightSprinkles_FINAL_2_004
// 045   ----------------------------------------
	BYTE	W48
	BYTE		EOT     Fs3 
	BYTE		N24     En3   v056
	BYTE	W24
	BYTE		        Dn3 
	BYTE	W18
	BYTE		EOT     Dn2 
	BYTE		        Gn2 
	BYTE		        Bn2 
	BYTE	W06
// 046   ----------------------------------------
	BYTE	PATT
	 POIN2	LightSprinkles_FINAL_2_002
// 047   ----------------------------------------
	BYTE		N48     En3   v056
	BYTE	W48
	BYTE		        An3 
	BYTE	W42
	BYTE		EOT     Dn2 
	BYTE		        Fs2 
	BYTE		        An2 
	BYTE	W06
// 048   ----------------------------------------
LightSprinkles_FINAL_2_048:
	BYTE		N96     Fs2   v056
	BYTE		N96     Bn2 
	BYTE		N96     Dn3 
	BYTE	W96
	BYTE	PEND
// 049   ----------------------------------------
LightSprinkles_FINAL_2_049:
	BYTE		N96     An2   v056
	BYTE		N96     Cs3 
	BYTE		N96     En3 
	BYTE	W96
	BYTE	PEND
// 050   ----------------------------------------
LightSprinkles_FINAL_2_050:
	BYTE		N96     Bn2   v056
	BYTE		N96     Dn3 
	BYTE		N96     Fs3 
	BYTE	W96
	BYTE	PEND
// 051   ----------------------------------------
	BYTE		        Gn2 
	BYTE		N96     Bn2 
	BYTE		N96     En3 
	BYTE	W96
// 052   ----------------------------------------
	BYTE	PATT
	 POIN2	LightSprinkles_FINAL_2_048
// 053   ----------------------------------------
	BYTE	PATT
	 POIN2	LightSprinkles_FINAL_2_049
// 054   ----------------------------------------
	BYTE	PATT
	 POIN2	LightSprinkles_FINAL_2_050
// 055   ----------------------------------------
	BYTE		N90     Gn2   v056
	BYTE		N90     Bn2 
	BYTE		N90     En3 
	BYTE	W96
	BYTE	GoTo
	 POIN2	LightSprinkles_FINAL_2_B1
LightSprinkles_FINAL_2_B2:
// 056   ----------------------------------------
	BYTE	FINE

//**************** Track 3 (Midi-Chn.4) ****************//

LightSprinkles_FINAL_3:
	BYTE	KEYSH   LightSprinkles_FINAL_key+0
LightSprinkles_FINAL_3_B1:
// 000   ----------------------------------------
	BYTE		VOICE   33
	BYTE		MODT    0
	BYTE		LFOS    44
	BYTE		PAN     c_v-25
	BYTE		VOL     127*LightSprinkles_FINAL_mvl/mxv
	BYTE		N05     Dn2   v127
	BYTE	W06
	BYTE		N05   
	BYTE	W30
	BYTE		        Bn1 
	BYTE	W06
	BYTE		N11     Dn2 
	BYTE	W12
	BYTE		N05   
	BYTE	W06
	BYTE		N11     Bn1 
	BYTE	W12
	BYTE		        Gn1 
	BYTE	W12
	BYTE		        Bn1 
	BYTE	W12
// 001   ----------------------------------------
LightSprinkles_FINAL_3_001:
	BYTE		N05     Dn2   v127
	BYTE	W06
	BYTE		N05   
	BYTE	W30
	BYTE		        Bn1 
	BYTE	W06
	BYTE		N11     Dn2 
	BYTE	W12
	BYTE		N05   
	BYTE	W06
	BYTE		N11     Bn1 
	BYTE	W12
	BYTE		        Gn1 
	BYTE	W12
	BYTE		        Bn1 
	BYTE	W12
	BYTE	PEND
// 002   ----------------------------------------
LightSprinkles_FINAL_3_002:
	BYTE		N05     Dn2   v127
	BYTE	W06
	BYTE		N05   
	BYTE	W30
	BYTE		        An1 
	BYTE	W06
	BYTE		N11     Dn2 
	BYTE	W12
	BYTE		N05   
	BYTE	W06
	BYTE		N11     An1 
	BYTE	W12
	BYTE		        Fs1 
	BYTE	W12
	BYTE		        An1 
	BYTE	W12
	BYTE	PEND
// 003   ----------------------------------------
	BYTE	PATT
	 POIN2	LightSprinkles_FINAL_3_002
// 004   ----------------------------------------
	BYTE	PATT
	 POIN2	LightSprinkles_FINAL_3_001
// 005   ----------------------------------------
	BYTE	PATT
	 POIN2	LightSprinkles_FINAL_3_001
// 006   ----------------------------------------
	BYTE	PATT
	 POIN2	LightSprinkles_FINAL_3_002
// 007   ----------------------------------------
	BYTE	PATT
	 POIN2	LightSprinkles_FINAL_3_002
// 008   ----------------------------------------
	BYTE	PATT
	 POIN2	LightSprinkles_FINAL_3_001
// 009   ----------------------------------------
	BYTE	PATT
	 POIN2	LightSprinkles_FINAL_3_001
// 010   ----------------------------------------
	BYTE	PATT
	 POIN2	LightSprinkles_FINAL_3_002
// 011   ----------------------------------------
	BYTE	PATT
	 POIN2	LightSprinkles_FINAL_3_002
// 012   ----------------------------------------
	BYTE	PATT
	 POIN2	LightSprinkles_FINAL_3_001
// 013   ----------------------------------------
	BYTE	PATT
	 POIN2	LightSprinkles_FINAL_3_001
// 014   ----------------------------------------
	BYTE	PATT
	 POIN2	LightSprinkles_FINAL_3_002
// 015   ----------------------------------------
	BYTE	PATT
	 POIN2	LightSprinkles_FINAL_3_002
// 016   ----------------------------------------
	BYTE	PATT
	 POIN2	LightSprinkles_FINAL_3_001
// 017   ----------------------------------------
	BYTE	PATT
	 POIN2	LightSprinkles_FINAL_3_001
// 018   ----------------------------------------
	BYTE	PATT
	 POIN2	LightSprinkles_FINAL_3_002
// 019   ----------------------------------------
	BYTE	PATT
	 POIN2	LightSprinkles_FINAL_3_002
// 020   ----------------------------------------
	BYTE	PATT
	 POIN2	LightSprinkles_FINAL_3_001
// 021   ----------------------------------------
	BYTE	PATT
	 POIN2	LightSprinkles_FINAL_3_001
// 022   ----------------------------------------
	BYTE	PATT
	 POIN2	LightSprinkles_FINAL_3_002
// 023   ----------------------------------------
	BYTE	PATT
	 POIN2	LightSprinkles_FINAL_3_002
// 024   ----------------------------------------
	BYTE		N42     Fn1   v127
	BYTE	W48
	BYTE		        An1 
	BYTE	W48
// 025   ----------------------------------------
	BYTE		        Gn1 
	BYTE	W48
	BYTE		        En1 
	BYTE	W48
// 026   ----------------------------------------
	BYTE		        Fn1 
	BYTE	W48
	BYTE		        As1 
	BYTE	W48
// 027   ----------------------------------------
	BYTE		        Cn2 
	BYTE	W48
	BYTE		        Gn1 
	BYTE	W48
// 028   ----------------------------------------
	BYTE		        Bn1 
	BYTE	W48
	BYTE		        Gn1 
	BYTE	W48
// 029   ----------------------------------------
	BYTE		        Fs1 
	BYTE	W48
	BYTE		        Ds1 
	BYTE	W48
// 030   ----------------------------------------
	BYTE		        En1 
	BYTE	W48
	BYTE		        Gs1 
	BYTE	W48
// 031   ----------------------------------------
LightSprinkles_FINAL_3_031:
	BYTE		N42     An1   v127
	BYTE	W48
	BYTE		        Cs2 
	BYTE	W48
	BYTE	PEND
// 032   ----------------------------------------
	BYTE	PATT
	 POIN2	LightSprinkles_FINAL_3_001
// 033   ----------------------------------------
	BYTE	PATT
	 POIN2	LightSprinkles_FINAL_3_001
// 034   ----------------------------------------
	BYTE	PATT
	 POIN2	LightSprinkles_FINAL_3_002
// 035   ----------------------------------------
	BYTE	PATT
	 POIN2	LightSprinkles_FINAL_3_002
// 036   ----------------------------------------
	BYTE	PATT
	 POIN2	LightSprinkles_FINAL_3_001
// 037   ----------------------------------------
	BYTE	PATT
	 POIN2	LightSprinkles_FINAL_3_001
// 038   ----------------------------------------
	BYTE	PATT
	 POIN2	LightSprinkles_FINAL_3_002
// 039   ----------------------------------------
	BYTE	PATT
	 POIN2	LightSprinkles_FINAL_3_002
// 040   ----------------------------------------
	BYTE	PATT
	 POIN2	LightSprinkles_FINAL_3_001
// 041   ----------------------------------------
	BYTE	PATT
	 POIN2	LightSprinkles_FINAL_3_001
// 042   ----------------------------------------
	BYTE	PATT
	 POIN2	LightSprinkles_FINAL_3_002
// 043   ----------------------------------------
	BYTE	PATT
	 POIN2	LightSprinkles_FINAL_3_002
// 044   ----------------------------------------
	BYTE	PATT
	 POIN2	LightSprinkles_FINAL_3_001
// 045   ----------------------------------------
	BYTE	PATT
	 POIN2	LightSprinkles_FINAL_3_001
// 046   ----------------------------------------
	BYTE	PATT
	 POIN2	LightSprinkles_FINAL_3_002
// 047   ----------------------------------------
	BYTE	PATT
	 POIN2	LightSprinkles_FINAL_3_002
// 048   ----------------------------------------
LightSprinkles_FINAL_3_048:
	BYTE		N42     Bn1   v127
	BYTE	W48
	BYTE		        Fs1 
	BYTE	W48
	BYTE	PEND
// 049   ----------------------------------------
	BYTE	PATT
	 POIN2	LightSprinkles_FINAL_3_031
// 050   ----------------------------------------
LightSprinkles_FINAL_3_050:
	BYTE		N42     Bn1   v127
	BYTE	W48
	BYTE		        Dn2 
	BYTE	W48
	BYTE	PEND
// 051   ----------------------------------------
LightSprinkles_FINAL_3_051:
	BYTE		N42     En2   v127
	BYTE	W48
	BYTE		        Gn1 
	BYTE	W48
	BYTE	PEND
// 052   ----------------------------------------
	BYTE	PATT
	 POIN2	LightSprinkles_FINAL_3_048
// 053   ----------------------------------------
	BYTE	PATT
	 POIN2	LightSprinkles_FINAL_3_031
// 054   ----------------------------------------
	BYTE	PATT
	 POIN2	LightSprinkles_FINAL_3_050
// 055   ----------------------------------------
	BYTE	PATT
	 POIN2	LightSprinkles_FINAL_3_051
	BYTE	GoTo
	 POIN2	LightSprinkles_FINAL_3_B1
LightSprinkles_FINAL_3_B2:
// 056   ----------------------------------------
	BYTE	FINE

//**************** Track 4 (Midi-Chn.5) ****************//

LightSprinkles_FINAL_4:
	BYTE	KEYSH   LightSprinkles_FINAL_key+0
LightSprinkles_FINAL_4_B1:
// 000   ----------------------------------------
	BYTE		VOICE   0
	BYTE		MODT    0
	BYTE		LFOS    44
	BYTE		PAN     c_v+18
	BYTE		VOL     127*LightSprinkles_FINAL_mvl/mxv
	BYTE	W96
// 001   ----------------------------------------
	BYTE	W96
// 002   ----------------------------------------
	BYTE	W96
// 003   ----------------------------------------
	BYTE	W96
// 004   ----------------------------------------
	BYTE	W96
// 005   ----------------------------------------
	BYTE	W96
// 006   ----------------------------------------
	BYTE	W96
// 007   ----------------------------------------
	BYTE	W96
// 008   ----------------------------------------
LightSprinkles_FINAL_4_008:
	BYTE		N11     Fs4   v127
	BYTE	W12
	BYTE		        Fs4   v100
	BYTE	W12
	BYTE		        Fs4   v076
	BYTE	W12
	BYTE		        Dn4   v127
	BYTE	W12
	BYTE		        An4 
	BYTE	W12
	BYTE		        An4   v100
	BYTE	W12
	BYTE		        An4   v076
	BYTE	W12
	BYTE		        An4   v056
	BYTE	W12
	BYTE	PEND
// 009   ----------------------------------------
LightSprinkles_FINAL_4_009:
	BYTE	W48
	BYTE		N11     Gn4   v127
	BYTE	W12
	BYTE		        Gn4   v100
	BYTE	W12
	BYTE		        An4   v127
	BYTE	W12
	BYTE		        Gn4 
	BYTE	W12
	BYTE	PEND
// 010   ----------------------------------------
LightSprinkles_FINAL_4_010:
	BYTE		N11     Fs4   v127
	BYTE	W12
	BYTE		        Fs4   v100
	BYTE	W12
	BYTE		        Fs4   v076
	BYTE	W12
	BYTE		        Dn4   v127
	BYTE	W12
	BYTE		        An3 
	BYTE	W12
	BYTE		        An3   v100
	BYTE	W12
	BYTE		        An3   v076
	BYTE	W12
	BYTE		        An3   v056
	BYTE	W12
	BYTE	PEND
// 011   ----------------------------------------
	BYTE	W96
// 012   ----------------------------------------
	BYTE	PATT
	 POIN2	LightSprinkles_FINAL_4_008
// 013   ----------------------------------------
LightSprinkles_FINAL_4_013:
	BYTE	W48
	BYTE		N11     Bn4   v127
	BYTE	W12
	BYTE		        Cs5 
	BYTE	W12
	BYTE		        Dn5 
	BYTE	W12
	BYTE		        En5 
	BYTE	W12
	BYTE	PEND
// 014   ----------------------------------------
LightSprinkles_FINAL_4_014:
	BYTE		N11     Fs5   v127
	BYTE	W12
	BYTE		        Fs5   v100
	BYTE	W12
	BYTE		        Fs5   v076
	BYTE	W12
	BYTE		        Dn5   v127
	BYTE	W12
	BYTE		        An4 
	BYTE	W12
	BYTE		        An4   v100
	BYTE	W12
	BYTE		        An4   v076
	BYTE	W12
	BYTE		        An4   v056
	BYTE	W12
	BYTE	PEND
// 015   ----------------------------------------
LightSprinkles_FINAL_4_015:
	BYTE	W48
	BYTE		N11     An4   v127
	BYTE	W12
	BYTE		        An4   v100
	BYTE	W12
	BYTE		        Gn4   v127
	BYTE	W12
	BYTE		        Gn4   v100
	BYTE	W12
	BYTE	PEND
// 016   ----------------------------------------
	BYTE	PATT
	 POIN2	LightSprinkles_FINAL_4_008
// 017   ----------------------------------------
	BYTE	PATT
	 POIN2	LightSprinkles_FINAL_4_009
// 018   ----------------------------------------
	BYTE	PATT
	 POIN2	LightSprinkles_FINAL_4_010
// 019   ----------------------------------------
	BYTE	W96
// 020   ----------------------------------------
	BYTE	PATT
	 POIN2	LightSprinkles_FINAL_4_008
// 021   ----------------------------------------
	BYTE	PATT
	 POIN2	LightSprinkles_FINAL_4_013
// 022   ----------------------------------------
	BYTE	PATT
	 POIN2	LightSprinkles_FINAL_4_014
// 023   ----------------------------------------
	BYTE	PATT
	 POIN2	LightSprinkles_FINAL_4_015
// 024   ----------------------------------------
	BYTE		N11     Fn4   v127
	BYTE	W12
	BYTE		        Gn4 
	BYTE	W12
	BYTE		        An4 
	BYTE	W12
	BYTE		        As4 
	BYTE	W12
	BYTE		        Cn5 
	BYTE	W12
	BYTE		        Cn5   v100
	BYTE	W12
	BYTE		        Fn5   v127
	BYTE	W12
	BYTE		        Fn5   v100
	BYTE	W12
// 025   ----------------------------------------
	BYTE		        En5   v127
	BYTE	W12
	BYTE		        Fn5 
	BYTE	W12
	BYTE		        En5 
	BYTE	W12
	BYTE		        Dn5 
	BYTE	W12
	BYTE		        Cn5 
	BYTE	W12
	BYTE		        Cn5   v100
	BYTE	W12
	BYTE		        As4   v127
	BYTE	W12
	BYTE		        As4   v100
	BYTE	W12
// 026   ----------------------------------------
	BYTE		        An4   v127
	BYTE	W12
	BYTE		        Gn4 
	BYTE	W12
	BYTE		        Fn4 
	BYTE	W12
	BYTE		        Gn4 
	BYTE	W12
	BYTE		        An4 
	BYTE	W12
	BYTE		        An4   v100
	BYTE	W12
	BYTE		        Cn5   v127
	BYTE	W12
	BYTE		        Cn5   v100
	BYTE	W12
// 027   ----------------------------------------
	BYTE		        As4   v127
	BYTE	W12
	BYTE		        An4 
	BYTE	W12
	BYTE		        Gn4 
	BYTE	W12
	BYTE		        Fn4 
	BYTE	W12
	BYTE		        Gn4 
	BYTE	W12
	BYTE		        Gn4   v100
	BYTE	W12
	BYTE		        En4   v127
	BYTE	W12
	BYTE		        En4   v100
	BYTE	W12
// 028   ----------------------------------------
	BYTE		        Dn4   v127
	BYTE	W12
	BYTE		        En4 
	BYTE	W12
	BYTE		        Fs4 
	BYTE	W12
	BYTE		        Gn4 
	BYTE	W12
	BYTE		        Bn4 
	BYTE	W12
	BYTE		        Bn4   v100
	BYTE	W12
	BYTE		        Gn4   v127
	BYTE	W12
	BYTE		        En4 
	BYTE	W12
// 029   ----------------------------------------
	BYTE		        Ds4 
	BYTE	W12
	BYTE		        En4 
	BYTE	W12
	BYTE		        Fs4 
	BYTE	W12
	BYTE		        Bn4 
	BYTE	W12
	BYTE		        Ds5 
	BYTE	W12
	BYTE		        Ds5   v100
	BYTE	W12
	BYTE		        Bn4   v127
	BYTE	W12
	BYTE		        An4 
	BYTE	W12
// 030   ----------------------------------------
	BYTE		        Gs4 
	BYTE	W12
	BYTE		        Fs4 
	BYTE	W12
	BYTE		        Gs4 
	BYTE	W12
	BYTE		        An4 
	BYTE	W12
	BYTE		        Bn4 
	BYTE	W12
	BYTE		        Bn4   v100
	BYTE	W12
	BYTE		        Gs4   v127
	BYTE	W12
	BYTE		N11   
	BYTE	W12
// 031   ----------------------------------------
	BYTE		        An4 
	BYTE	W12
	BYTE		        En4 
	BYTE	W12
	BYTE		        An4 
	BYTE	W12
	BYTE		        Bn4 
	BYTE	W12
	BYTE		        Cs5 
	BYTE	W12
	BYTE		        Bn4 
	BYTE	W12
	BYTE		        An4 
	BYTE	W12
	BYTE		        Gn4 
	BYTE	W12
// 032   ----------------------------------------
	BYTE	PATT
	 POIN2	LightSprinkles_FINAL_4_008
// 033   ----------------------------------------
	BYTE	PATT
	 POIN2	LightSprinkles_FINAL_4_009
// 034   ----------------------------------------
	BYTE	PATT
	 POIN2	LightSprinkles_FINAL_4_010
// 035   ----------------------------------------
	BYTE	W96
// 036   ----------------------------------------
	BYTE	PATT
	 POIN2	LightSprinkles_FINAL_4_008
// 037   ----------------------------------------
	BYTE	PATT
	 POIN2	LightSprinkles_FINAL_4_013
// 038   ----------------------------------------
	BYTE	PATT
	 POIN2	LightSprinkles_FINAL_4_014
// 039   ----------------------------------------
	BYTE	PATT
	 POIN2	LightSprinkles_FINAL_4_015
// 040   ----------------------------------------
	BYTE	PATT
	 POIN2	LightSprinkles_FINAL_4_008
// 041   ----------------------------------------
	BYTE	PATT
	 POIN2	LightSprinkles_FINAL_4_009
// 042   ----------------------------------------
	BYTE	PATT
	 POIN2	LightSprinkles_FINAL_4_010
// 043   ----------------------------------------
	BYTE	W96
// 044   ----------------------------------------
	BYTE	PATT
	 POIN2	LightSprinkles_FINAL_4_008
// 045   ----------------------------------------
	BYTE	PATT
	 POIN2	LightSprinkles_FINAL_4_013
// 046   ----------------------------------------
	BYTE	PATT
	 POIN2	LightSprinkles_FINAL_4_014
// 047   ----------------------------------------
	BYTE	PATT
	 POIN2	LightSprinkles_FINAL_4_015
// 048   ----------------------------------------
	BYTE		N90     Fs4   v127
	BYTE	W96
// 049   ----------------------------------------
	BYTE	W96
// 050   ----------------------------------------
	BYTE	W96
// 051   ----------------------------------------
	BYTE	W96
// 052   ----------------------------------------
	BYTE	W96
// 053   ----------------------------------------
	BYTE	W96
// 054   ----------------------------------------
	BYTE	W96
// 055   ----------------------------------------
	BYTE	W96
	BYTE	GoTo
	 POIN2	LightSprinkles_FINAL_4_B1
LightSprinkles_FINAL_4_B2:
// 056   ----------------------------------------
	BYTE	FINE

//**************** Track 5 (Midi-Chn.6) ****************//

LightSprinkles_FINAL_5:
	BYTE	KEYSH   LightSprinkles_FINAL_key+0
LightSprinkles_FINAL_5_B1:
// 000   ----------------------------------------
	BYTE		VOICE   100
	BYTE		MODT    0
	BYTE		LFOS    44
	BYTE		VOL     127*LightSprinkles_FINAL_mvl/mxv
	BYTE		PAN     c_v+0
	BYTE	W96
// 001   ----------------------------------------
	BYTE	W96
// 002   ----------------------------------------
	BYTE	W96
// 003   ----------------------------------------
	BYTE	W96
// 004   ----------------------------------------
	BYTE	W96
// 005   ----------------------------------------
	BYTE	W96
// 006   ----------------------------------------
	BYTE	W96
// 007   ----------------------------------------
	BYTE	W96
// 008   ----------------------------------------
	BYTE	W96
// 009   ----------------------------------------
	BYTE	W96
// 010   ----------------------------------------
	BYTE	W96
// 011   ----------------------------------------
	BYTE	W96
// 012   ----------------------------------------
	BYTE	W96
// 013   ----------------------------------------
	BYTE	W96
// 014   ----------------------------------------
	BYTE	W96
// 015   ----------------------------------------
	BYTE	W96
// 016   ----------------------------------------
LightSprinkles_FINAL_5_016:
	BYTE		PAN     c_v-63
	BYTE		N05     Bn3   v100
	BYTE	W01
	BYTE		PAN     c_v-62
	BYTE	W01
	BYTE		        c_v-61
	BYTE	W01
	BYTE		        c_v-59
	BYTE	W01
	BYTE		        c_v-58
	BYTE	W01
	BYTE		        c_v-57
	BYTE	W01
	BYTE		        c_v-55
	BYTE		N05     Dn4 
	BYTE	W01
	BYTE		PAN     c_v-54
	BYTE	W01
	BYTE		        c_v-53
	BYTE	W01
	BYTE		        c_v-51
	BYTE	W01
	BYTE		        c_v-50
	BYTE	W01
	BYTE		        c_v-49
	BYTE	W01
	BYTE		        c_v-47
	BYTE		N05     Fs4 
	BYTE	W01
	BYTE		PAN     c_v-46
	BYTE	W01
	BYTE		        c_v-45
	BYTE	W01
	BYTE		        c_v-43
	BYTE	W01
	BYTE		        c_v-42
	BYTE	W01
	BYTE		        c_v-41
	BYTE	W01
	BYTE		        c_v-39
	BYTE		N05     Bn4 
	BYTE	W01
	BYTE		PAN     c_v-38
	BYTE	W01
	BYTE		        c_v-37
	BYTE	W01
	BYTE		        c_v-35
	BYTE	W01
	BYTE		        c_v-34
	BYTE	W01
	BYTE		        c_v-33
	BYTE	W01
	BYTE		        c_v-31
	BYTE		N05     Bn3 
	BYTE	W01
	BYTE		PAN     c_v-30
	BYTE	W01
	BYTE		        c_v-29
	BYTE	W01
	BYTE		        c_v-27
	BYTE	W01
	BYTE		        c_v-26
	BYTE	W01
	BYTE		        c_v-25
	BYTE	W01
	BYTE		        c_v-23
	BYTE		N05     Dn4 
	BYTE	W01
	BYTE		PAN     c_v-22
	BYTE	W01
	BYTE		        c_v-21
	BYTE	W01
	BYTE		        c_v-20
	BYTE	W01
	BYTE		        c_v-18
	BYTE	W01
	BYTE		        c_v-17
	BYTE	W01
	BYTE		        c_v-16
	BYTE		N05     Fs4 
	BYTE	W01
	BYTE		PAN     c_v-14
	BYTE	W01
	BYTE		        c_v-13
	BYTE	W01
	BYTE		        c_v-12
	BYTE	W01
	BYTE		        c_v-10
	BYTE	W01
	BYTE		        c_v-9
	BYTE	W01
	BYTE		        c_v-8
	BYTE		N05     Bn4 
	BYTE	W01
	BYTE		PAN     c_v-6
	BYTE	W01
	BYTE		        c_v-5
	BYTE	W01
	BYTE		        c_v-4
	BYTE	W01
	BYTE		        c_v-2
	BYTE	W01
	BYTE		        c_v-1
	BYTE	W01
	BYTE		        c_v+0
	BYTE		N05     Bn3 
	BYTE	W01
	BYTE		PAN     c_v+2
	BYTE	W01
	BYTE		        c_v+3
	BYTE	W01
	BYTE		        c_v+4
	BYTE	W01
	BYTE		        c_v+6
	BYTE	W01
	BYTE		        c_v+7
	BYTE	W01
	BYTE		        c_v+8
	BYTE		N05     Dn4 
	BYTE	W01
	BYTE		PAN     c_v+10
	BYTE	W01
	BYTE		        c_v+11
	BYTE	W01
	BYTE		        c_v+12
	BYTE	W01
	BYTE		        c_v+14
	BYTE	W01
	BYTE		        c_v+15
	BYTE	W01
	BYTE		        c_v+16
	BYTE		N05     Fs4 
	BYTE	W01
	BYTE		PAN     c_v+18
	BYTE	W01
	BYTE		        c_v+19
	BYTE	W01
	BYTE		        c_v+20
	BYTE	W01
	BYTE		        c_v+21
	BYTE	W01
	BYTE		        c_v+23
	BYTE	W01
	BYTE		        c_v+24
	BYTE		N05     Bn4 
	BYTE	W01
	BYTE		PAN     c_v+25
	BYTE	W01
	BYTE		        c_v+27
	BYTE	W01
	BYTE		        c_v+28
	BYTE	W01
	BYTE		        c_v+29
	BYTE	W01
	BYTE		        c_v+31
	BYTE	W01
	BYTE		        c_v+32
	BYTE		N05     Bn3 
	BYTE	W01
	BYTE		PAN     c_v+33
	BYTE	W01
	BYTE		        c_v+35
	BYTE	W01
	BYTE		        c_v+36
	BYTE	W01
	BYTE		        c_v+37
	BYTE	W01
	BYTE		        c_v+39
	BYTE	W01
	BYTE		        c_v+40
	BYTE		N05     Dn4 
	BYTE	W01
	BYTE		PAN     c_v+41
	BYTE	W01
	BYTE		        c_v+43
	BYTE	W01
	BYTE		        c_v+44
	BYTE	W01
	BYTE		        c_v+45
	BYTE	W01
	BYTE		        c_v+47
	BYTE	W01
	BYTE		        c_v+48
	BYTE		N05     Fs4 
	BYTE	W01
	BYTE		PAN     c_v+49
	BYTE	W01
	BYTE		        c_v+51
	BYTE	W01
	BYTE		        c_v+52
	BYTE	W01
	BYTE		        c_v+53
	BYTE	W01
	BYTE		        c_v+55
	BYTE	W01
	BYTE		        c_v+56
	BYTE		N05     Bn4 
	BYTE	W01
	BYTE		PAN     c_v+57
	BYTE	W01
	BYTE		        c_v+59
	BYTE	W01
	BYTE		        c_v+60
	BYTE	W01
	BYTE		        c_v+61
	BYTE	W01
	BYTE		        c_v+62
	BYTE	W01
	BYTE	PEND
// 017   ----------------------------------------
LightSprinkles_FINAL_5_017:
	BYTE		PAN     c_v+62
	BYTE		N05     Bn3   v100
	BYTE	W01
	BYTE		PAN     c_v+61
	BYTE	W01
	BYTE		        c_v+60
	BYTE	W01
	BYTE		        c_v+58
	BYTE	W01
	BYTE		        c_v+57
	BYTE	W01
	BYTE		        c_v+56
	BYTE	W01
	BYTE		        c_v+54
	BYTE		N05     Dn4 
	BYTE	W01
	BYTE		PAN     c_v+53
	BYTE	W01
	BYTE		        c_v+52
	BYTE	W01
	BYTE		        c_v+50
	BYTE	W01
	BYTE		        c_v+49
	BYTE	W01
	BYTE		        c_v+48
	BYTE	W01
	BYTE		        c_v+46
	BYTE		N05     Fs4 
	BYTE	W01
	BYTE		PAN     c_v+45
	BYTE	W01
	BYTE		        c_v+44
	BYTE	W01
	BYTE		        c_v+42
	BYTE	W01
	BYTE		        c_v+41
	BYTE	W01
	BYTE		        c_v+40
	BYTE	W01
	BYTE		        c_v+38
	BYTE		N05     Bn4 
	BYTE	W01
	BYTE		PAN     c_v+37
	BYTE	W01
	BYTE		        c_v+36
	BYTE	W01
	BYTE		        c_v+34
	BYTE	W01
	BYTE		        c_v+33
	BYTE	W01
	BYTE		        c_v+32
	BYTE	W01
	BYTE		        c_v+30
	BYTE		N05     Bn3 
	BYTE	W01
	BYTE		PAN     c_v+29
	BYTE	W01
	BYTE		        c_v+28
	BYTE	W01
	BYTE		        c_v+26
	BYTE	W01
	BYTE		        c_v+25
	BYTE	W01
	BYTE		        c_v+24
	BYTE	W01
	BYTE		        c_v+22
	BYTE		N05     Dn4 
	BYTE	W01
	BYTE		PAN     c_v+21
	BYTE	W01
	BYTE		        c_v+20
	BYTE	W01
	BYTE		        c_v+19
	BYTE	W01
	BYTE		        c_v+17
	BYTE	W01
	BYTE		        c_v+16
	BYTE	W01
	BYTE		        c_v+15
	BYTE		N05     Fs4 
	BYTE	W01
	BYTE		PAN     c_v+13
	BYTE	W01
	BYTE		        c_v+12
	BYTE	W01
	BYTE		        c_v+11
	BYTE	W01
	BYTE		        c_v+9
	BYTE	W01
	BYTE		        c_v+8
	BYTE	W01
	BYTE		        c_v+7
	BYTE		N05     Bn4 
	BYTE	W01
	BYTE		PAN     c_v+5
	BYTE	W01
	BYTE		        c_v+4
	BYTE	W01
	BYTE		        c_v+3
	BYTE	W01
	BYTE		        c_v+1
	BYTE	W01
	BYTE		        c_v+0
	BYTE	W01
	BYTE		        c_v-1
	BYTE		N05     Bn3 
	BYTE	W01
	BYTE		PAN     c_v-3
	BYTE	W01
	BYTE		        c_v-4
	BYTE	W01
	BYTE		        c_v-5
	BYTE	W01
	BYTE		        c_v-7
	BYTE	W01
	BYTE		        c_v-8
	BYTE	W01
	BYTE		        c_v-9
	BYTE		N05     Dn4 
	BYTE	W01
	BYTE		PAN     c_v-11
	BYTE	W01
	BYTE		        c_v-12
	BYTE	W01
	BYTE		        c_v-13
	BYTE	W01
	BYTE		        c_v-15
	BYTE	W01
	BYTE		        c_v-16
	BYTE	W01
	BYTE		        c_v-17
	BYTE		N05     Fs4 
	BYTE	W01
	BYTE		PAN     c_v-19
	BYTE	W01
	BYTE		        c_v-20
	BYTE	W01
	BYTE		        c_v-21
	BYTE	W01
	BYTE		        c_v-22
	BYTE	W01
	BYTE		        c_v-24
	BYTE	W01
	BYTE		        c_v-25
	BYTE		N05     Bn4 
	BYTE	W01
	BYTE		PAN     c_v-26
	BYTE	W01
	BYTE		        c_v-28
	BYTE	W01
	BYTE		        c_v-29
	BYTE	W01
	BYTE		        c_v-30
	BYTE	W01
	BYTE		        c_v-32
	BYTE	W01
	BYTE		        c_v-33
	BYTE		N05     Bn3 
	BYTE	W01
	BYTE		PAN     c_v-34
	BYTE	W01
	BYTE		        c_v-36
	BYTE	W01
	BYTE		        c_v-37
	BYTE	W01
	BYTE		        c_v-38
	BYTE	W01
	BYTE		        c_v-40
	BYTE	W01
	BYTE		        c_v-41
	BYTE		N05     Dn4 
	BYTE	W01
	BYTE		PAN     c_v-42
	BYTE	W01
	BYTE		        c_v-44
	BYTE	W01
	BYTE		        c_v-45
	BYTE	W01
	BYTE		        c_v-46
	BYTE	W01
	BYTE		        c_v-48
	BYTE	W01
	BYTE		        c_v-49
	BYTE		N05     Fs4 
	BYTE	W01
	BYTE		PAN     c_v-50
	BYTE	W01
	BYTE		        c_v-52
	BYTE	W01
	BYTE		        c_v-53
	BYTE	W01
	BYTE		        c_v-54
	BYTE	W01
	BYTE		        c_v-56
	BYTE	W01
	BYTE		        c_v-57
	BYTE		N05     Bn4 
	BYTE	W01
	BYTE		PAN     c_v-58
	BYTE	W01
	BYTE		        c_v-60
	BYTE	W01
	BYTE		        c_v-61
	BYTE	W01
	BYTE		        c_v-62
	BYTE	W01
	BYTE		        c_v-63
	BYTE	W01
	BYTE	PEND
// 018   ----------------------------------------
LightSprinkles_FINAL_5_018:
	BYTE		PAN     c_v-63
	BYTE		N05     An3   v100
	BYTE	W01
	BYTE		PAN     c_v-62
	BYTE	W01
	BYTE		        c_v-61
	BYTE	W01
	BYTE		        c_v-59
	BYTE	W01
	BYTE		        c_v-58
	BYTE	W01
	BYTE		        c_v-57
	BYTE	W01
	BYTE		        c_v-55
	BYTE		N05     Dn4 
	BYTE	W01
	BYTE		PAN     c_v-54
	BYTE	W01
	BYTE		        c_v-53
	BYTE	W01
	BYTE		        c_v-51
	BYTE	W01
	BYTE		        c_v-50
	BYTE	W01
	BYTE		        c_v-49
	BYTE	W01
	BYTE		        c_v-47
	BYTE		N05     Fs4 
	BYTE	W01
	BYTE		PAN     c_v-46
	BYTE	W01
	BYTE		        c_v-45
	BYTE	W01
	BYTE		        c_v-43
	BYTE	W01
	BYTE		        c_v-42
	BYTE	W01
	BYTE		        c_v-41
	BYTE	W01
	BYTE		        c_v-39
	BYTE		N05     An4 
	BYTE	W01
	BYTE		PAN     c_v-38
	BYTE	W01
	BYTE		        c_v-37
	BYTE	W01
	BYTE		        c_v-35
	BYTE	W01
	BYTE		        c_v-34
	BYTE	W01
	BYTE		        c_v-33
	BYTE	W01
	BYTE		        c_v-31
	BYTE		N05     An3 
	BYTE	W01
	BYTE		PAN     c_v-30
	BYTE	W01
	BYTE		        c_v-29
	BYTE	W01
	BYTE		        c_v-27
	BYTE	W01
	BYTE		        c_v-26
	BYTE	W01
	BYTE		        c_v-25
	BYTE	W01
	BYTE		        c_v-23
	BYTE		N05     Dn4 
	BYTE	W01
	BYTE		PAN     c_v-22
	BYTE	W01
	BYTE		        c_v-21
	BYTE	W01
	BYTE		        c_v-20
	BYTE	W01
	BYTE		        c_v-18
	BYTE	W01
	BYTE		        c_v-17
	BYTE	W01
	BYTE		        c_v-16
	BYTE		N05     Fs4 
	BYTE	W01
	BYTE		PAN     c_v-14
	BYTE	W01
	BYTE		        c_v-13
	BYTE	W01
	BYTE		        c_v-12
	BYTE	W01
	BYTE		        c_v-10
	BYTE	W01
	BYTE		        c_v-9
	BYTE	W01
	BYTE		        c_v-8
	BYTE		N05     An4 
	BYTE	W01
	BYTE		PAN     c_v-6
	BYTE	W01
	BYTE		        c_v-5
	BYTE	W01
	BYTE		        c_v-4
	BYTE	W01
	BYTE		        c_v-2
	BYTE	W01
	BYTE		        c_v-1
	BYTE	W01
	BYTE		        c_v+0
	BYTE		N05     An3 
	BYTE	W01
	BYTE		PAN     c_v+2
	BYTE	W01
	BYTE		        c_v+3
	BYTE	W01
	BYTE		        c_v+4
	BYTE	W01
	BYTE		        c_v+6
	BYTE	W01
	BYTE		        c_v+7
	BYTE	W01
	BYTE		        c_v+8
	BYTE		N05     Dn4 
	BYTE	W01
	BYTE		PAN     c_v+10
	BYTE	W01
	BYTE		        c_v+11
	BYTE	W01
	BYTE		        c_v+12
	BYTE	W01
	BYTE		        c_v+14
	BYTE	W01
	BYTE		        c_v+15
	BYTE	W01
	BYTE		        c_v+16
	BYTE		N05     Fs4 
	BYTE	W01
	BYTE		PAN     c_v+18
	BYTE	W01
	BYTE		        c_v+19
	BYTE	W01
	BYTE		        c_v+20
	BYTE	W01
	BYTE		        c_v+21
	BYTE	W01
	BYTE		        c_v+23
	BYTE	W01
	BYTE		        c_v+24
	BYTE		N05     An4 
	BYTE	W01
	BYTE		PAN     c_v+25
	BYTE	W01
	BYTE		        c_v+27
	BYTE	W01
	BYTE		        c_v+28
	BYTE	W01
	BYTE		        c_v+29
	BYTE	W01
	BYTE		        c_v+31
	BYTE	W01
	BYTE		        c_v+32
	BYTE		N05     An3 
	BYTE	W01
	BYTE		PAN     c_v+33
	BYTE	W01
	BYTE		        c_v+35
	BYTE	W01
	BYTE		        c_v+36
	BYTE	W01
	BYTE		        c_v+37
	BYTE	W01
	BYTE		        c_v+39
	BYTE	W01
	BYTE		        c_v+40
	BYTE		N05     Dn4 
	BYTE	W01
	BYTE		PAN     c_v+41
	BYTE	W01
	BYTE		        c_v+43
	BYTE	W01
	BYTE		        c_v+44
	BYTE	W01
	BYTE		        c_v+45
	BYTE	W01
	BYTE		        c_v+47
	BYTE	W01
	BYTE		        c_v+48
	BYTE		N05     Fs4 
	BYTE	W01
	BYTE		PAN     c_v+49
	BYTE	W01
	BYTE		        c_v+51
	BYTE	W01
	BYTE		        c_v+52
	BYTE	W01
	BYTE		        c_v+53
	BYTE	W01
	BYTE		        c_v+55
	BYTE	W01
	BYTE		        c_v+56
	BYTE		N05     An4 
	BYTE	W01
	BYTE		PAN     c_v+57
	BYTE	W01
	BYTE		        c_v+59
	BYTE	W01
	BYTE		        c_v+60
	BYTE	W01
	BYTE		        c_v+61
	BYTE	W01
	BYTE		        c_v+62
	BYTE	W01
	BYTE	PEND
// 019   ----------------------------------------
LightSprinkles_FINAL_5_019:
	BYTE		PAN     c_v+62
	BYTE		N05     An3   v100
	BYTE	W01
	BYTE		PAN     c_v+61
	BYTE	W01
	BYTE		        c_v+60
	BYTE	W01
	BYTE		        c_v+58
	BYTE	W01
	BYTE		        c_v+57
	BYTE	W01
	BYTE		        c_v+56
	BYTE	W01
	BYTE		        c_v+54
	BYTE		N05     Dn4 
	BYTE	W01
	BYTE		PAN     c_v+53
	BYTE	W01
	BYTE		        c_v+52
	BYTE	W01
	BYTE		        c_v+50
	BYTE	W01
	BYTE		        c_v+49
	BYTE	W01
	BYTE		        c_v+48
	BYTE	W01
	BYTE		        c_v+46
	BYTE		N05     Fs4 
	BYTE	W01
	BYTE		PAN     c_v+45
	BYTE	W01
	BYTE		        c_v+44
	BYTE	W01
	BYTE		        c_v+42
	BYTE	W01
	BYTE		        c_v+41
	BYTE	W01
	BYTE		        c_v+40
	BYTE	W01
	BYTE		        c_v+38
	BYTE		N05     An4 
	BYTE	W01
	BYTE		PAN     c_v+37
	BYTE	W01
	BYTE		        c_v+36
	BYTE	W01
	BYTE		        c_v+34
	BYTE	W01
	BYTE		        c_v+33
	BYTE	W01
	BYTE		        c_v+32
	BYTE	W01
	BYTE		        c_v+30
	BYTE		N05     An3 
	BYTE	W01
	BYTE		PAN     c_v+29
	BYTE	W01
	BYTE		        c_v+28
	BYTE	W01
	BYTE		        c_v+26
	BYTE	W01
	BYTE		        c_v+25
	BYTE	W01
	BYTE		        c_v+24
	BYTE	W01
	BYTE		        c_v+22
	BYTE		N05     Dn4 
	BYTE	W01
	BYTE		PAN     c_v+21
	BYTE	W01
	BYTE		        c_v+20
	BYTE	W01
	BYTE		        c_v+19
	BYTE	W01
	BYTE		        c_v+17
	BYTE	W01
	BYTE		        c_v+16
	BYTE	W01
	BYTE		        c_v+15
	BYTE		N05     Fs4 
	BYTE	W01
	BYTE		PAN     c_v+13
	BYTE	W01
	BYTE		        c_v+12
	BYTE	W01
	BYTE		        c_v+11
	BYTE	W01
	BYTE		        c_v+9
	BYTE	W01
	BYTE		        c_v+8
	BYTE	W01
	BYTE		        c_v+7
	BYTE		N05     An4 
	BYTE	W01
	BYTE		PAN     c_v+5
	BYTE	W01
	BYTE		        c_v+4
	BYTE	W01
	BYTE		        c_v+3
	BYTE	W01
	BYTE		        c_v+1
	BYTE	W01
	BYTE		        c_v+0
	BYTE	W01
	BYTE		        c_v-1
	BYTE		N05     An3 
	BYTE	W01
	BYTE		PAN     c_v-3
	BYTE	W01
	BYTE		        c_v-4
	BYTE	W01
	BYTE		        c_v-5
	BYTE	W01
	BYTE		        c_v-7
	BYTE	W01
	BYTE		        c_v-8
	BYTE	W01
	BYTE		        c_v-9
	BYTE		N05     Dn4 
	BYTE	W01
	BYTE		PAN     c_v-11
	BYTE	W01
	BYTE		        c_v-12
	BYTE	W01
	BYTE		        c_v-13
	BYTE	W01
	BYTE		        c_v-15
	BYTE	W01
	BYTE		        c_v-16
	BYTE	W01
	BYTE		        c_v-17
	BYTE		N05     Fs4 
	BYTE	W01
	BYTE		PAN     c_v-19
	BYTE	W01
	BYTE		        c_v-20
	BYTE	W01
	BYTE		        c_v-21
	BYTE	W01
	BYTE		        c_v-22
	BYTE	W01
	BYTE		        c_v-24
	BYTE	W01
	BYTE		        c_v-25
	BYTE		N05     An4 
	BYTE	W01
	BYTE		PAN     c_v-26
	BYTE	W01
	BYTE		        c_v-28
	BYTE	W01
	BYTE		        c_v-29
	BYTE	W01
	BYTE		        c_v-30
	BYTE	W01
	BYTE		        c_v-32
	BYTE	W01
	BYTE		        c_v-33
	BYTE		N05     An3 
	BYTE	W01
	BYTE		PAN     c_v-34
	BYTE	W01
	BYTE		        c_v-36
	BYTE	W01
	BYTE		        c_v-37
	BYTE	W01
	BYTE		        c_v-38
	BYTE	W01
	BYTE		        c_v-40
	BYTE	W01
	BYTE		        c_v-41
	BYTE		N05     Dn4 
	BYTE	W01
	BYTE		PAN     c_v-42
	BYTE	W01
	BYTE		        c_v-44
	BYTE	W01
	BYTE		        c_v-45
	BYTE	W01
	BYTE		        c_v-46
	BYTE	W01
	BYTE		        c_v-48
	BYTE	W01
	BYTE		        c_v-49
	BYTE		N05     Fs4 
	BYTE	W01
	BYTE		PAN     c_v-50
	BYTE	W01
	BYTE		        c_v-52
	BYTE	W01
	BYTE		        c_v-53
	BYTE	W01
	BYTE		        c_v-54
	BYTE	W01
	BYTE		        c_v-56
	BYTE	W01
	BYTE		        c_v-57
	BYTE		N05     An4 
	BYTE	W01
	BYTE		PAN     c_v-58
	BYTE	W01
	BYTE		        c_v-60
	BYTE	W01
	BYTE		        c_v-61
	BYTE	W01
	BYTE		        c_v-62
	BYTE	W01
	BYTE		        c_v-63
	BYTE	W01
	BYTE	PEND
// 020   ----------------------------------------
	BYTE	PATT
	 POIN2	LightSprinkles_FINAL_5_016
// 021   ----------------------------------------
	BYTE	PATT
	 POIN2	LightSprinkles_FINAL_5_017
// 022   ----------------------------------------
	BYTE	PATT
	 POIN2	LightSprinkles_FINAL_5_018
// 023   ----------------------------------------
	BYTE	PATT
	 POIN2	LightSprinkles_FINAL_5_019
// 024   ----------------------------------------
	BYTE		PAN     c_v-64
	BYTE	W96
// 025   ----------------------------------------
	BYTE	W96
// 026   ----------------------------------------
	BYTE	W96
// 027   ----------------------------------------
	BYTE	W96
// 028   ----------------------------------------
	BYTE	W96
// 029   ----------------------------------------
	BYTE	W96
// 030   ----------------------------------------
	BYTE	W96
// 031   ----------------------------------------
	BYTE	W96
// 032   ----------------------------------------
	BYTE	W96
// 033   ----------------------------------------
	BYTE	W96
// 034   ----------------------------------------
	BYTE	W96
// 035   ----------------------------------------
	BYTE	W96
// 036   ----------------------------------------
	BYTE	W96
// 037   ----------------------------------------
	BYTE	W96
// 038   ----------------------------------------
	BYTE	W96
// 039   ----------------------------------------
	BYTE	W96
// 040   ----------------------------------------
	BYTE	PATT
	 POIN2	LightSprinkles_FINAL_5_016
// 041   ----------------------------------------
	BYTE	PATT
	 POIN2	LightSprinkles_FINAL_5_017
// 042   ----------------------------------------
	BYTE	PATT
	 POIN2	LightSprinkles_FINAL_5_018
// 043   ----------------------------------------
	BYTE	PATT
	 POIN2	LightSprinkles_FINAL_5_019
// 044   ----------------------------------------
	BYTE	PATT
	 POIN2	LightSprinkles_FINAL_5_016
// 045   ----------------------------------------
	BYTE	PATT
	 POIN2	LightSprinkles_FINAL_5_017
// 046   ----------------------------------------
	BYTE	PATT
	 POIN2	LightSprinkles_FINAL_5_018
// 047   ----------------------------------------
	BYTE	PATT
	 POIN2	LightSprinkles_FINAL_5_019
// 048   ----------------------------------------
	BYTE		PAN     c_v-64
	BYTE	W96
// 049   ----------------------------------------
	BYTE	W96
// 050   ----------------------------------------
	BYTE	W96
// 051   ----------------------------------------
	BYTE	W96
// 052   ----------------------------------------
	BYTE	W96
// 053   ----------------------------------------
	BYTE	W96
// 054   ----------------------------------------
	BYTE	W96
// 055   ----------------------------------------
	BYTE	W96
	BYTE	GoTo
	 POIN2	LightSprinkles_FINAL_5_B1
LightSprinkles_FINAL_5_B2:
// 056   ----------------------------------------
	BYTE	FINE

//**************** Track 6 (Midi-Chn.7) ****************//

LightSprinkles_FINAL_6:
	BYTE	KEYSH   LightSprinkles_FINAL_key+0
LightSprinkles_FINAL_6_B1:
// 000   ----------------------------------------
	BYTE		VOICE   22
	BYTE		MODT    0
	BYTE		LFOS    44
	BYTE		PAN     c_v+9
	BYTE		VOL     127*LightSprinkles_FINAL_mvl/mxv
	BYTE		PAN     c_v+9
	BYTE	W96
// 001   ----------------------------------------
	BYTE	W96
// 002   ----------------------------------------
	BYTE	W96
// 003   ----------------------------------------
	BYTE	W96
// 004   ----------------------------------------
	BYTE	W96
// 005   ----------------------------------------
	BYTE	W96
// 006   ----------------------------------------
	BYTE	W96
// 007   ----------------------------------------
	BYTE	W96
// 008   ----------------------------------------
	BYTE	W96
// 009   ----------------------------------------
	BYTE	W96
// 010   ----------------------------------------
	BYTE	W96
// 011   ----------------------------------------
	BYTE	W96
// 012   ----------------------------------------
	BYTE	W96
// 013   ----------------------------------------
	BYTE	W96
// 014   ----------------------------------------
	BYTE	W96
// 015   ----------------------------------------
	BYTE	W96
// 016   ----------------------------------------
	BYTE	W96
// 017   ----------------------------------------
	BYTE	W96
// 018   ----------------------------------------
	BYTE	W96
// 019   ----------------------------------------
	BYTE	W96
// 020   ----------------------------------------
	BYTE	W96
// 021   ----------------------------------------
	BYTE	W96
// 022   ----------------------------------------
	BYTE	W96
// 023   ----------------------------------------
	BYTE	W96
// 024   ----------------------------------------
	BYTE		VOL     127*LightSprinkles_FINAL_mvl/mxv
	BYTE		PAN     c_v+0
	BYTE		N48     An2   v127
	BYTE	W48
	BYTE		        En3 
	BYTE	W48
// 025   ----------------------------------------
LightSprinkles_FINAL_6_025:
	BYTE		N48     Bn2   v127
	BYTE	W48
	BYTE		N16     Gn2 
	BYTE	W16
	BYTE		        Fn2 
	BYTE	W16
	BYTE		        En2 
	BYTE	W16
	BYTE	PEND
// 026   ----------------------------------------
LightSprinkles_FINAL_6_026:
	BYTE		N48     An2   v127
	BYTE	W48
	BYTE		        Cn3 
	BYTE	W48
	BYTE	PEND
// 027   ----------------------------------------
	BYTE		N24     Bn2 
	BYTE	W24
	BYTE		        Cn3 
	BYTE	W24
	BYTE		N42     Dn3 
	BYTE	W48
// 028   ----------------------------------------
	BYTE		N48     An2 
	BYTE	W48
	BYTE		        En3 
	BYTE	W48
// 029   ----------------------------------------
	BYTE	PATT
	 POIN2	LightSprinkles_FINAL_6_025
// 030   ----------------------------------------
	BYTE	PATT
	 POIN2	LightSprinkles_FINAL_6_026
// 031   ----------------------------------------
	BYTE		N90     Bn2   v127
	BYTE	W96
// 032   ----------------------------------------
	BYTE	W96
// 033   ----------------------------------------
	BYTE	W96
// 034   ----------------------------------------
	BYTE	W96
// 035   ----------------------------------------
	BYTE	W96
// 036   ----------------------------------------
	BYTE	W96
// 037   ----------------------------------------
	BYTE	W96
// 038   ----------------------------------------
	BYTE	W96
// 039   ----------------------------------------
	BYTE	W96
// 040   ----------------------------------------
	BYTE	W96
// 041   ----------------------------------------
	BYTE	W96
// 042   ----------------------------------------
	BYTE	W96
// 043   ----------------------------------------
	BYTE	W96
// 044   ----------------------------------------
	BYTE	W96
// 045   ----------------------------------------
	BYTE	W96
// 046   ----------------------------------------
	BYTE	W96
// 047   ----------------------------------------
	BYTE	W96
// 048   ----------------------------------------
	BYTE		N80     Bn4 
	BYTE	W84
	BYTE		N05   
	BYTE	W06
	BYTE		        Cs5 
	BYTE	W06
// 049   ----------------------------------------
	BYTE		N15     Dn5 
	BYTE	W16
	BYTE		        Cs5 
	BYTE	W16
	BYTE		        Bn4 
	BYTE	W16
	BYTE		        Cs5 
	BYTE	W16
	BYTE		        An4 
	BYTE	W16
	BYTE		        Fs4 
	BYTE	W16
// 050   ----------------------------------------
	BYTE		N42     Bn4 
	BYTE	W48
	BYTE		        Dn5 
	BYTE	W48
// 051   ----------------------------------------
	BYTE		N32     En5 
	BYTE	W36
	BYTE		        Bn4 
	BYTE	W36
	BYTE		N20     Gn4 
	BYTE	W24
// 052   ----------------------------------------
	BYTE		N15     Fs4 
	BYTE	W16
	BYTE		        En4 
	BYTE	W16
	BYTE		        Dn4 
	BYTE	W16
	BYTE		        An4 
	BYTE	W16
	BYTE		        Bn4 
	BYTE	W16
	BYTE		        An4 
	BYTE	W16
// 053   ----------------------------------------
	BYTE		        Fs4 
	BYTE	W16
	BYTE		        Gn4 
	BYTE	W16
	BYTE		        Fs4 
	BYTE	W16
	BYTE		N20     En4 
	BYTE	W24
	BYTE		        Cs4 
	BYTE	W24
// 054   ----------------------------------------
	BYTE		N32     Dn4 
	BYTE	W36
	BYTE		        Fs4 
	BYTE	W36
	BYTE		N20     Dn4 
	BYTE	W24
// 055   ----------------------------------------
	BYTE		N90     En4 
	BYTE	W96
	BYTE	GoTo
	 POIN2	LightSprinkles_FINAL_6_B1
LightSprinkles_FINAL_6_B2:
// 056   ----------------------------------------
	BYTE	FINE

//**************** Track 7 (Midi-Chn.8) ****************//

LightSprinkles_FINAL_7:
	BYTE	KEYSH   LightSprinkles_FINAL_key+0
LightSprinkles_FINAL_7_B1:
// 000   ----------------------------------------
	BYTE		VOICE   124
	BYTE		MODT    0
	BYTE		LFOS    44
	BYTE		VOL     127*LightSprinkles_FINAL_mvl/mxv
	BYTE		PAN     c_v+0
	BYTE		N20     Bn0   v127
	BYTE		N20     Cn1 
	BYTE	W24
	BYTE		        Bn0 
	BYTE		N20     Cn1 
	BYTE	W24
	BYTE		        Bn0 
	BYTE		N20     Cn1 
	BYTE	W24
	BYTE		        Bn0 
	BYTE		N20     Cn1 
	BYTE	W24
// 001   ----------------------------------------
LightSprinkles_FINAL_7_001:
	BYTE		N20     Bn0   v127
	BYTE		N20     Cn1 
	BYTE	W24
	BYTE		        Bn0 
	BYTE		N20     Cn1 
	BYTE	W24
	BYTE		        Bn0 
	BYTE		N20     Cn1 
	BYTE	W24
	BYTE		        Bn0 
	BYTE		N20     Cn1 
	BYTE	W24
	BYTE	PEND
// 002   ----------------------------------------
	BYTE	PATT
	 POIN2	LightSprinkles_FINAL_7_001
// 003   ----------------------------------------
	BYTE	PATT
	 POIN2	LightSprinkles_FINAL_7_001
// 004   ----------------------------------------
	BYTE	PATT
	 POIN2	LightSprinkles_FINAL_7_001
// 005   ----------------------------------------
	BYTE	PATT
	 POIN2	LightSprinkles_FINAL_7_001
// 006   ----------------------------------------
	BYTE	PATT
	 POIN2	LightSprinkles_FINAL_7_001
// 007   ----------------------------------------
	BYTE	PATT
	 POIN2	LightSprinkles_FINAL_7_001
// 008   ----------------------------------------
LightSprinkles_FINAL_7_008:
	BYTE		N05     Bn0   v127
	BYTE		N05     Cn1 
	BYTE		N05     Fs1 
	BYTE	W06
	BYTE		N05   
	BYTE	W06
	BYTE		N05   
	BYTE	W06
	BYTE		N05   
	BYTE	W06
	BYTE		        Bn0 
	BYTE		N05     Cn1 
	BYTE		N05     Gs1 
	BYTE	W06
	BYTE		        Fs1 
	BYTE	W06
	BYTE		N05   
	BYTE	W06
	BYTE		N05   
	BYTE	W06
	BYTE		        Bn0 
	BYTE		N05     Cn1 
	BYTE		N05     Fs1 
	BYTE	W06
	BYTE		        Gs1 
	BYTE	W06
	BYTE		        As1 
	BYTE	W06
	BYTE		        Gs1 
	BYTE	W06
	BYTE		        Bn0 
	BYTE		N05     Cn1 
	BYTE		N05     Fs1 
	BYTE	W06
	BYTE		        Gs1 
	BYTE	W06
	BYTE		        As1 
	BYTE	W06
	BYTE		        Gs1 
	BYTE	W06
	BYTE	PEND
// 009   ----------------------------------------
	BYTE	PATT
	 POIN2	LightSprinkles_FINAL_7_008
// 010   ----------------------------------------
	BYTE	PATT
	 POIN2	LightSprinkles_FINAL_7_008
// 011   ----------------------------------------
	BYTE	PATT
	 POIN2	LightSprinkles_FINAL_7_008
// 012   ----------------------------------------
	BYTE	PATT
	 POIN2	LightSprinkles_FINAL_7_008
// 013   ----------------------------------------
	BYTE	PATT
	 POIN2	LightSprinkles_FINAL_7_008
// 014   ----------------------------------------
	BYTE	PATT
	 POIN2	LightSprinkles_FINAL_7_008
// 015   ----------------------------------------
	BYTE	PATT
	 POIN2	LightSprinkles_FINAL_7_008
// 016   ----------------------------------------
	BYTE	PATT
	 POIN2	LightSprinkles_FINAL_7_008
// 017   ----------------------------------------
	BYTE	PATT
	 POIN2	LightSprinkles_FINAL_7_008
// 018   ----------------------------------------
	BYTE	PATT
	 POIN2	LightSprinkles_FINAL_7_008
// 019   ----------------------------------------
	BYTE	PATT
	 POIN2	LightSprinkles_FINAL_7_008
// 020   ----------------------------------------
	BYTE	PATT
	 POIN2	LightSprinkles_FINAL_7_008
// 021   ----------------------------------------
	BYTE	PATT
	 POIN2	LightSprinkles_FINAL_7_008
// 022   ----------------------------------------
	BYTE	PATT
	 POIN2	LightSprinkles_FINAL_7_008
// 023   ----------------------------------------
	BYTE	PATT
	 POIN2	LightSprinkles_FINAL_7_008
// 024   ----------------------------------------
	BYTE	PATT
	 POIN2	LightSprinkles_FINAL_7_001
// 025   ----------------------------------------
	BYTE	PATT
	 POIN2	LightSprinkles_FINAL_7_001
// 026   ----------------------------------------
	BYTE	PATT
	 POIN2	LightSprinkles_FINAL_7_001
// 027   ----------------------------------------
	BYTE	PATT
	 POIN2	LightSprinkles_FINAL_7_001
// 028   ----------------------------------------
	BYTE	PATT
	 POIN2	LightSprinkles_FINAL_7_001
// 029   ----------------------------------------
	BYTE	PATT
	 POIN2	LightSprinkles_FINAL_7_001
// 030   ----------------------------------------
	BYTE	PATT
	 POIN2	LightSprinkles_FINAL_7_001
// 031   ----------------------------------------
	BYTE		N20     Bn0   v127
	BYTE		N20     Cn1 
	BYTE	W24
	BYTE		        Bn0 
	BYTE		N20     Cn1 
	BYTE	W24
	BYTE		        Bn0 
	BYTE		N20     Cn1 
	BYTE	W24
	BYTE		N11     Bn0 
	BYTE		N11     Cn1 
	BYTE		N11     En1 
	BYTE	W12
	BYTE		N05   
	BYTE	W06
	BYTE		N05   
	BYTE	W06
// 032   ----------------------------------------
LightSprinkles_FINAL_7_032:
	BYTE		N05     Bn0   v127
	BYTE		N05     Cn1 
	BYTE		N05     Fs1 
	BYTE	W06
	BYTE		N05   
	BYTE	W06
	BYTE		N05   
	BYTE	W06
	BYTE		N05   
	BYTE	W06
	BYTE		        Bn0 
	BYTE		N05     Cn1 
	BYTE		N05     Dn1 
	BYTE		N05     En1 
	BYTE		N05     Gs1 
	BYTE	W06
	BYTE		        Fs1 
	BYTE	W06
	BYTE		N05   
	BYTE	W06
	BYTE		N05   
	BYTE	W06
	BYTE		        Bn0 
	BYTE		N05     Cn1 
	BYTE		N05     Fs1 
	BYTE	W06
	BYTE		        Gs1 
	BYTE	W06
	BYTE		        As1 
	BYTE	W06
	BYTE		        Bn0 
	BYTE		N05     Cn1 
	BYTE		N05     Gs1 
	BYTE	W06
	BYTE		        Bn0 
	BYTE		N05     Cn1 
	BYTE		N05     Dn1 
	BYTE		N05     En1 
	BYTE		N05     Fs1 
	BYTE	W06
	BYTE		        Gs1 
	BYTE	W06
	BYTE		        Bn0 
	BYTE		N05     Cn1 
	BYTE		N05     As1 
	BYTE	W06
	BYTE		        Gs1 
	BYTE	W06
	BYTE	PEND
// 033   ----------------------------------------
	BYTE	PATT
	 POIN2	LightSprinkles_FINAL_7_032
// 034   ----------------------------------------
	BYTE	PATT
	 POIN2	LightSprinkles_FINAL_7_032
// 035   ----------------------------------------
	BYTE	PATT
	 POIN2	LightSprinkles_FINAL_7_032
// 036   ----------------------------------------
	BYTE	PATT
	 POIN2	LightSprinkles_FINAL_7_032
// 037   ----------------------------------------
	BYTE	PATT
	 POIN2	LightSprinkles_FINAL_7_032
// 038   ----------------------------------------
	BYTE	PATT
	 POIN2	LightSprinkles_FINAL_7_032
// 039   ----------------------------------------
	BYTE	PATT
	 POIN2	LightSprinkles_FINAL_7_032
// 040   ----------------------------------------
	BYTE	PATT
	 POIN2	LightSprinkles_FINAL_7_032
// 041   ----------------------------------------
	BYTE	PATT
	 POIN2	LightSprinkles_FINAL_7_032
// 042   ----------------------------------------
	BYTE	PATT
	 POIN2	LightSprinkles_FINAL_7_032
// 043   ----------------------------------------
	BYTE	PATT
	 POIN2	LightSprinkles_FINAL_7_032
// 044   ----------------------------------------
	BYTE	PATT
	 POIN2	LightSprinkles_FINAL_7_032
// 045   ----------------------------------------
	BYTE	PATT
	 POIN2	LightSprinkles_FINAL_7_032
// 046   ----------------------------------------
	BYTE	PATT
	 POIN2	LightSprinkles_FINAL_7_032
// 047   ----------------------------------------
	BYTE	PATT
	 POIN2	LightSprinkles_FINAL_7_032
// 048   ----------------------------------------
	BYTE	PATT
	 POIN2	LightSprinkles_FINAL_7_008
// 049   ----------------------------------------
	BYTE	PATT
	 POIN2	LightSprinkles_FINAL_7_008
// 050   ----------------------------------------
	BYTE	PATT
	 POIN2	LightSprinkles_FINAL_7_008
// 051   ----------------------------------------
	BYTE	PATT
	 POIN2	LightSprinkles_FINAL_7_008
// 052   ----------------------------------------
	BYTE	PATT
	 POIN2	LightSprinkles_FINAL_7_008
// 053   ----------------------------------------
	BYTE	PATT
	 POIN2	LightSprinkles_FINAL_7_008
// 054   ----------------------------------------
	BYTE	PATT
	 POIN2	LightSprinkles_FINAL_7_008
// 055   ----------------------------------------
	BYTE	PATT
	 POIN2	LightSprinkles_FINAL_7_008
	BYTE	GoTo
	 POIN2	LightSprinkles_FINAL_7_B1
LightSprinkles_FINAL_7_B2:
// 056   ----------------------------------------
	BYTE	FINE

//******************************************************//
	ALIGN 4

LightSprinkles_FINAL:
	BYTE	7	// NumTrks
	BYTE	0	// NumBlks
	BYTE	LightSprinkles_FINAL_pri	// Priority
	BYTE	LightSprinkles_FINAL_rev	// Reverb.

	POIN2	LightSprinkles_FINAL_grp

	POIN2	LightSprinkles_FINAL_1
	POIN2	LightSprinkles_FINAL_2
	POIN2	LightSprinkles_FINAL_3
	POIN2	LightSprinkles_FINAL_4
	POIN2	LightSprinkles_FINAL_5
	POIN2	LightSprinkles_FINAL_6
	POIN2	LightSprinkles_FINAL_7

	
