//Event file generated from Sappy .s format.
	#include "MPlayDef.event"

	#define	ToniSong_grp  voicegroup000
	#define	ToniSong_pri  0
	#define	ToniSong_rev  0
	#define	ToniSong_mvl  33
	#define	ToniSong_key  0
	#define	ToniSong_tbs  1
	#define	ToniSong_exg  0
	#define	ToniSong_cmp  1

	// .rodata
	//	ToniSong
	ALIGN 4

//**************** Track 1 (Midi-Chn.1) ****************//

ToniSong_1:
	BYTE	KEYSH   ToniSong_key+0
ToniSong_1_B1:
// 000   ----------------------------------------
	BYTE	TEMPO   105*ToniSong_tbs/2
	BYTE		VOICE   1
	BYTE		MODT    0
	BYTE		LFOS    44
	BYTE		PAN     c_v+33
	BYTE		VOL     127*ToniSong_mvl/mxv
	BYTE	W96
// 001   ----------------------------------------
	BYTE	W96
// 002   ----------------------------------------
	BYTE	W96
// 003   ----------------------------------------
	BYTE	W96
// 004   ----------------------------------------
	BYTE	W96
// 005   ----------------------------------------
	BYTE	W96
// 006   ----------------------------------------
	BYTE	W96
// 007   ----------------------------------------
	BYTE	W96
// 008   ----------------------------------------
	BYTE	W96
// 009   ----------------------------------------
	BYTE	W96
// 010   ----------------------------------------
	BYTE	W96
// 011   ----------------------------------------
	BYTE	W96
// 012   ----------------------------------------
	BYTE	W96
// 013   ----------------------------------------
	BYTE	W96
// 014   ----------------------------------------
	BYTE	W96
// 015   ----------------------------------------
	BYTE	W96
// 016   ----------------------------------------
	BYTE	W96
// 017   ----------------------------------------
	BYTE	W96
// 018   ----------------------------------------
	BYTE	W96
// 019   ----------------------------------------
	BYTE	W96
// 020   ----------------------------------------
	BYTE	W96
// 021   ----------------------------------------
	BYTE	W96
// 022   ----------------------------------------
	BYTE	W96
// 023   ----------------------------------------
	BYTE	W96
// 024   ----------------------------------------
	BYTE	W96
// 025   ----------------------------------------
	BYTE	W96
// 026   ----------------------------------------
	BYTE	W96
// 027   ----------------------------------------
	BYTE	W96
// 028   ----------------------------------------
	BYTE	W96
// 029   ----------------------------------------
	BYTE	W96
// 030   ----------------------------------------
	BYTE	W96
// 031   ----------------------------------------
	BYTE	W72
	BYTE		N05     Fn3   v127
	BYTE	W06
	BYTE		        Gn3 
	BYTE	W06
	BYTE		        Gs3 
	BYTE	W06
	BYTE		        As3 
	BYTE	W06
	BYTE	GoTo
	 POIN2	ToniSong_1_B1
ToniSong_1_B2:
// 032   ----------------------------------------
	BYTE		N42     Cn4   v127
	BYTE	W48
	BYTE		N15     Ds4 
	BYTE	W16
	BYTE		        Cs4 
	BYTE	W16
	BYTE		        Cn4 
	BYTE	W16
// 033   ----------------------------------------
	BYTE		N32     As3 
	BYTE	W36
	BYTE		N11     Gs3 
	BYTE	W12
	BYTE		N20     Gn3 
	BYTE	W24
	BYTE		N05     Fn3 
	BYTE	W06
	BYTE		        Gn3 
	BYTE	W06
	BYTE		        Gs3 
	BYTE	W06
	BYTE		        As3 
	BYTE	W06
// 034   ----------------------------------------
	BYTE		N42     Cn4 
	BYTE	W48
	BYTE		N15     Cs4 
	BYTE	W16
	BYTE		        Ds4 
	BYTE	W16
	BYTE		        Fn4 
	BYTE	W16
// 035   ----------------------------------------
	BYTE		N32     Ds4 
	BYTE	W36
	BYTE		N11     Cs4 
	BYTE	W12
	BYTE		N15     Cn4 
	BYTE	W16
	BYTE		        As3 
	BYTE	W16
	BYTE		        Gn3 
	BYTE	W16
// 036   ----------------------------------------
	BYTE		N32     Gs3 
	BYTE	W36
	BYTE		N11     Gn3 
	BYTE	W12
	BYTE		N04     Fn3 
	BYTE	W12
	BYTE		        Cn3 
	BYTE	W12
	BYTE		        Fn3 
	BYTE	W06
	BYTE		N11     Gs3 
	BYTE	W12
	BYTE		N36     Gn3 
	BYTE	W06
// 037   ----------------------------------------
	BYTE	W36
	BYTE		N11     Gs3 
	BYTE	W12
	BYTE		N15     As3 
	BYTE	W16
	BYTE		        Gs3 
	BYTE	W16
	BYTE		        Gn3 
	BYTE	W16
// 038   ----------------------------------------
	BYTE		N42     Fn3 
	BYTE	W48
	BYTE		        Gs3 
	BYTE	W48
// 039   ----------------------------------------
	BYTE		        Gn3 
	BYTE	W48
	BYTE		        Ds3 
	BYTE	W48
// 040   ----------------------------------------
	BYTE		N90     Fn3 
	BYTE	W96
// 041   ----------------------------------------
	BYTE	W96
// 042   ----------------------------------------
	BYTE	W96
// 043   ----------------------------------------
	BYTE	W96
// 044   ----------------------------------------
	BYTE	W96
// 045   ----------------------------------------
	BYTE	W96
// 046   ----------------------------------------
	BYTE	W96
// 047   ----------------------------------------
	BYTE	W96
// 048   ----------------------------------------
	BYTE	W96
// 049   ----------------------------------------
	BYTE	W96
// 050   ----------------------------------------
	BYTE	W96
// 051   ----------------------------------------
	BYTE	W96
// 052   ----------------------------------------
	BYTE	W96
// 053   ----------------------------------------
	BYTE	W96
// 054   ----------------------------------------
	BYTE	W96
// 055   ----------------------------------------
	BYTE	W96
// 056   ----------------------------------------
	BYTE	W48
	BYTE	FINE

//**************** Track 2 (Midi-Chn.2) ****************//

ToniSong_2:
	BYTE	KEYSH   ToniSong_key+0
ToniSong_2_B1:
// 000   ----------------------------------------
	BYTE		VOICE   60
	BYTE		MODT    0
	BYTE		LFOS    44
	BYTE		VOL     127*ToniSong_mvl/mxv
	BYTE		PAN     c_v-32
	BYTE	W96
// 001   ----------------------------------------
	BYTE	W96
// 002   ----------------------------------------
	BYTE	W96
// 003   ----------------------------------------
	BYTE	W96
// 004   ----------------------------------------
ToniSong_2_004:
	BYTE		N42     Gs3   v100
	BYTE	W48
	BYTE		N20     As3 
	BYTE	W30
	BYTE		N04     Gn3 
	BYTE	W12
	BYTE		N10   
	BYTE	W06
	BYTE	PEND
// 005   ----------------------------------------
	BYTE	W12
	BYTE		N04     Gs3 
	BYTE	W84
// 006   ----------------------------------------
	BYTE	PATT
	 POIN2	ToniSong_2_004
// 007   ----------------------------------------
	BYTE	W12
	BYTE		N04     Gs3   v100
	BYTE	W84
// 008   ----------------------------------------
ToniSong_2_008:
	BYTE		N24     Fn3   v100
	BYTE	W24
	BYTE		        Cn4 
	BYTE	W24
	BYTE		        As3 
	BYTE	W24
	BYTE		        Ds4 
	BYTE	W24
	BYTE	PEND
// 009   ----------------------------------------
ToniSong_2_009:
	BYTE		N24     Cn4   v100
	BYTE	W24
	BYTE		        As3 
	BYTE	W24
	BYTE		        Gs3 
	BYTE	W24
	BYTE		N06     Gn3 
	BYTE	W06
	BYTE		N04   
	BYTE	W12
	BYTE		N10   
	BYTE	W06
	BYTE	PEND
// 010   ----------------------------------------
ToniSong_2_010:
	BYTE	W12
	BYTE		N04     Gs3   v100
	BYTE	W66
	BYTE		        Gn3 
	BYTE	W12
	BYTE		N10   
	BYTE	W06
	BYTE	PEND
// 011   ----------------------------------------
	BYTE	W12
	BYTE		N04     Gs3 
	BYTE	W84
// 012   ----------------------------------------
	BYTE	PATT
	 POIN2	ToniSong_2_004
// 013   ----------------------------------------
	BYTE	W12
	BYTE		N04     Gs3   v100
	BYTE	W84
// 014   ----------------------------------------
	BYTE	PATT
	 POIN2	ToniSong_2_004
// 015   ----------------------------------------
	BYTE	W12
	BYTE		N04     Gs3   v100
	BYTE	W84
// 016   ----------------------------------------
	BYTE	PATT
	 POIN2	ToniSong_2_008
// 017   ----------------------------------------
	BYTE	PATT
	 POIN2	ToniSong_2_009
// 018   ----------------------------------------
	BYTE	PATT
	 POIN2	ToniSong_2_010
// 019   ----------------------------------------
	BYTE	W12
	BYTE		N04     Gs3   v100
	BYTE	W84
// 020   ----------------------------------------
ToniSong_2_020:
	BYTE		N42     Ds3   v100
	BYTE	W48
	BYTE		        Gs3 
	BYTE	W48
	BYTE	PEND
// 021   ----------------------------------------
ToniSong_2_021:
	BYTE		N42     Gn3   v100
	BYTE	W48
	BYTE		        Ds3 
	BYTE	W48
	BYTE	PEND
// 022   ----------------------------------------
ToniSong_2_022:
	BYTE		N42     Fn3   v100
	BYTE	W48
	BYTE		        Cn3 
	BYTE	W48
	BYTE	PEND
// 023   ----------------------------------------
ToniSong_2_023:
	BYTE		N42     Ds3   v100
	BYTE	W48
	BYTE		        Cn3 
	BYTE	W48
	BYTE	PEND
// 024   ----------------------------------------
ToniSong_2_024:
	BYTE		N42     Cs3   v100
	BYTE	W48
	BYTE		        Fn3 
	BYTE	W48
	BYTE	PEND
// 025   ----------------------------------------
ToniSong_2_025:
	BYTE		N42     Gn3   v100
	BYTE	W48
	BYTE		        As3 
	BYTE	W48
	BYTE	PEND
// 026   ----------------------------------------
ToniSong_2_026:
	BYTE		N42     Gs3   v100
	BYTE	W48
	BYTE		        Fn3 
	BYTE	W48
	BYTE	PEND
// 027   ----------------------------------------
ToniSong_2_027:
	BYTE		N42     Ds3   v100
	BYTE	W48
	BYTE		        Gn3 
	BYTE	W48
	BYTE	PEND
// 028   ----------------------------------------
	BYTE	PATT
	 POIN2	ToniSong_2_004
// 029   ----------------------------------------
	BYTE	W12
	BYTE		N04     Gs3   v100
	BYTE	W84
// 030   ----------------------------------------
	BYTE	PATT
	 POIN2	ToniSong_2_004
// 031   ----------------------------------------
	BYTE	W12
	BYTE		N04     Gs3   v100
	BYTE	W84
	BYTE	GoTo
	 POIN2	ToniSong_2_B1
ToniSong_2_B2:
// 032   ----------------------------------------
	BYTE	PATT
	 POIN2	ToniSong_2_020
// 033   ----------------------------------------
	BYTE	PATT
	 POIN2	ToniSong_2_021
// 034   ----------------------------------------
	BYTE	PATT
	 POIN2	ToniSong_2_022
// 035   ----------------------------------------
	BYTE	PATT
	 POIN2	ToniSong_2_023
// 036   ----------------------------------------
	BYTE	PATT
	 POIN2	ToniSong_2_024
// 037   ----------------------------------------
	BYTE	PATT
	 POIN2	ToniSong_2_025
// 038   ----------------------------------------
	BYTE	PATT
	 POIN2	ToniSong_2_026
// 039   ----------------------------------------
	BYTE	PATT
	 POIN2	ToniSong_2_027
// 040   ----------------------------------------
	BYTE	PATT
	 POIN2	ToniSong_2_004
// 041   ----------------------------------------
	BYTE	W12
	BYTE		N04     Gs3   v100
	BYTE	W84
// 042   ----------------------------------------
	BYTE	PATT
	 POIN2	ToniSong_2_004
// 043   ----------------------------------------
	BYTE	W12
	BYTE		N04     Gs3   v100
	BYTE	W84
// 044   ----------------------------------------
	BYTE	W96
// 045   ----------------------------------------
	BYTE	W96
// 046   ----------------------------------------
	BYTE	W96
// 047   ----------------------------------------
	BYTE	W96
// 048   ----------------------------------------
	BYTE	W96
// 049   ----------------------------------------
	BYTE	W96
// 050   ----------------------------------------
	BYTE	W96
// 051   ----------------------------------------
	BYTE	W96
// 052   ----------------------------------------
	BYTE	W96
// 053   ----------------------------------------
	BYTE	W96
// 054   ----------------------------------------
	BYTE	W96
// 055   ----------------------------------------
	BYTE	W96
// 056   ----------------------------------------
	BYTE	W48
	BYTE	FINE

//**************** Track 3 (Midi-Chn.3) ****************//

ToniSong_3:
	BYTE	KEYSH   ToniSong_key+0
ToniSong_3_B1:
// 000   ----------------------------------------
	BYTE		VOICE   61
	BYTE		MODT    0
	BYTE		LFOS    44
	BYTE		VOL     119*ToniSong_mvl/mxv
	BYTE		PAN     c_v+32
	BYTE	W96
// 001   ----------------------------------------
	BYTE	W96
// 002   ----------------------------------------
	BYTE	W96
// 003   ----------------------------------------
	BYTE	W96
// 004   ----------------------------------------
ToniSong_3_004:
	BYTE	W78
	BYTE		N04     As2   v100
	BYTE		N04     Ds3 
	BYTE		N04     Gn3 
	BYTE	W12
	BYTE		N10     As2 
	BYTE		N10     Ds3 
	BYTE		N10     Gn3 
	BYTE	W06
	BYTE	PEND
// 005   ----------------------------------------
ToniSong_3_005:
	BYTE	W12
	BYTE		N04     Cn3   v100
	BYTE		N04     Fn3 
	BYTE		N04     Gs3 
	BYTE	W84
	BYTE	PEND
// 006   ----------------------------------------
	BYTE	PATT
	 POIN2	ToniSong_3_004
// 007   ----------------------------------------
	BYTE	PATT
	 POIN2	ToniSong_3_005
// 008   ----------------------------------------
ToniSong_3_008:
	BYTE		N90     As2   v100
	BYTE		N90     Cs3 
	BYTE		N90     Fn3 
	BYTE	W96
	BYTE	PEND
// 009   ----------------------------------------
ToniSong_3_009:
	BYTE		N76     As2   v100
	BYTE		N76     Ds3 
	BYTE		N76     Gn3 
	BYTE	W78
	BYTE		N04     As2 
	BYTE		N04     Ds3 
	BYTE		N04     Gn3 
	BYTE	W12
	BYTE		N10     As2 
	BYTE		N10     Ds3 
	BYTE		N10     Gn3 
	BYTE	W06
	BYTE	PEND
// 010   ----------------------------------------
ToniSong_3_010:
	BYTE	W12
	BYTE		N04     Cn3   v100
	BYTE		N04     Fn3 
	BYTE		N04     Gs3 
	BYTE	W66
	BYTE		        As2 
	BYTE		N04     Ds3 
	BYTE		N04     Gn3 
	BYTE	W12
	BYTE		N10     As2 
	BYTE		N10     Ds3 
	BYTE		N10     Gn3 
	BYTE	W06
	BYTE	PEND
// 011   ----------------------------------------
	BYTE	PATT
	 POIN2	ToniSong_3_005
// 012   ----------------------------------------
	BYTE	PATT
	 POIN2	ToniSong_3_004
// 013   ----------------------------------------
	BYTE	PATT
	 POIN2	ToniSong_3_005
// 014   ----------------------------------------
	BYTE	PATT
	 POIN2	ToniSong_3_004
// 015   ----------------------------------------
	BYTE	PATT
	 POIN2	ToniSong_3_005
// 016   ----------------------------------------
	BYTE	PATT
	 POIN2	ToniSong_3_008
// 017   ----------------------------------------
	BYTE	PATT
	 POIN2	ToniSong_3_009
// 018   ----------------------------------------
	BYTE	PATT
	 POIN2	ToniSong_3_010
// 019   ----------------------------------------
	BYTE	PATT
	 POIN2	ToniSong_3_005
// 020   ----------------------------------------
ToniSong_3_020:
	BYTE	W72
	BYTE		N04     Ds3   v100
	BYTE	W12
	BYTE		N04   
	BYTE		N04     Gs3 
	BYTE		N04     Cn4 
	BYTE	W06
	BYTE		        Ds3 
	BYTE		N04     Gs3 
	BYTE		N04     Cn4 
	BYTE	W06
	BYTE	PEND
// 021   ----------------------------------------
ToniSong_3_021:
	BYTE	W72
	BYTE		N04     Ds3   v100
	BYTE	W12
	BYTE		N04   
	BYTE		N04     Gn3 
	BYTE		N04     As3 
	BYTE	W06
	BYTE		        Ds3 
	BYTE		N04     Gn3 
	BYTE		N04     As3 
	BYTE	W06
	BYTE	PEND
// 022   ----------------------------------------
ToniSong_3_022:
	BYTE	W72
	BYTE		N04     Fn3   v100
	BYTE	W12
	BYTE		N04   
	BYTE		N04     Gs3 
	BYTE		N04     Cn4 
	BYTE	W06
	BYTE		        Fn3 
	BYTE		N04     Gs3 
	BYTE		N04     Cn4 
	BYTE	W06
	BYTE	PEND
// 023   ----------------------------------------
ToniSong_3_023:
	BYTE	W36
	BYTE		N04     Ds3   v100
	BYTE	W06
	BYTE		N04   
	BYTE		N04     Gn3 
	BYTE	W06
	BYTE		        Ds3 
	BYTE		N04     Gn3 
	BYTE		N04     Cn4 
	BYTE	W06
	BYTE		        Ds3 
	BYTE		N04     Gn3 
	BYTE		N04     Cn4 
	BYTE	W12
	BYTE		N06     Ds3 
	BYTE		N06     Gn3 
	BYTE		N06     Cn4 
	BYTE	W18
	BYTE		N04     Ds3 
	BYTE		N04     Gn3 
	BYTE		N04     Cn4 
	BYTE	W12
	BYTE	PEND
// 024   ----------------------------------------
ToniSong_3_024:
	BYTE	W72
	BYTE		N04     Cs3   v100
	BYTE	W12
	BYTE		N04   
	BYTE		N04     Fn3 
	BYTE		N04     Gs3 
	BYTE	W06
	BYTE		        Cs3 
	BYTE		N04     Fn3 
	BYTE		N04     Gs3 
	BYTE	W06
	BYTE	PEND
// 025   ----------------------------------------
	BYTE	PATT
	 POIN2	ToniSong_3_021
// 026   ----------------------------------------
	BYTE	PATT
	 POIN2	ToniSong_3_022
// 027   ----------------------------------------
	BYTE	PATT
	 POIN2	ToniSong_3_023
// 028   ----------------------------------------
	BYTE	PATT
	 POIN2	ToniSong_3_004
// 029   ----------------------------------------
	BYTE	PATT
	 POIN2	ToniSong_3_005
// 030   ----------------------------------------
	BYTE	PATT
	 POIN2	ToniSong_3_004
// 031   ----------------------------------------
	BYTE	PATT
	 POIN2	ToniSong_3_005
	BYTE	GoTo
	 POIN2	ToniSong_3_B1
ToniSong_3_B2:
// 032   ----------------------------------------
	BYTE	PATT
	 POIN2	ToniSong_3_020
// 033   ----------------------------------------
	BYTE	PATT
	 POIN2	ToniSong_3_021
// 034   ----------------------------------------
	BYTE	PATT
	 POIN2	ToniSong_3_022
// 035   ----------------------------------------
	BYTE	PATT
	 POIN2	ToniSong_3_023
// 036   ----------------------------------------
	BYTE	PATT
	 POIN2	ToniSong_3_024
// 037   ----------------------------------------
	BYTE	PATT
	 POIN2	ToniSong_3_021
// 038   ----------------------------------------
	BYTE	PATT
	 POIN2	ToniSong_3_022
// 039   ----------------------------------------
	BYTE	PATT
	 POIN2	ToniSong_3_023
// 040   ----------------------------------------
	BYTE	PATT
	 POIN2	ToniSong_3_004
// 041   ----------------------------------------
	BYTE	PATT
	 POIN2	ToniSong_3_005
// 042   ----------------------------------------
	BYTE	PATT
	 POIN2	ToniSong_3_004
// 043   ----------------------------------------
	BYTE	PATT
	 POIN2	ToniSong_3_005
// 044   ----------------------------------------
	BYTE	W96
// 045   ----------------------------------------
	BYTE	W96
// 046   ----------------------------------------
	BYTE	W96
// 047   ----------------------------------------
	BYTE	W96
// 048   ----------------------------------------
	BYTE	W96
// 049   ----------------------------------------
	BYTE	W96
// 050   ----------------------------------------
	BYTE	W96
// 051   ----------------------------------------
	BYTE	W96
// 052   ----------------------------------------
	BYTE	W96
// 053   ----------------------------------------
	BYTE	W96
// 054   ----------------------------------------
	BYTE	W96
// 055   ----------------------------------------
	BYTE	W96
// 056   ----------------------------------------
	BYTE	W48
	BYTE	FINE

//**************** Track 4 (Midi-Chn.4) ****************//

ToniSong_4:
	BYTE	KEYSH   ToniSong_key+0
ToniSong_4_B1:
// 000   ----------------------------------------
	BYTE		VOICE   48
	BYTE		MODT    0
	BYTE		LFOS    44
	BYTE		VOL     127*ToniSong_mvl/mxv
	BYTE		PAN     c_v-17
	BYTE	W96
// 001   ----------------------------------------
	BYTE	W96
// 002   ----------------------------------------
	BYTE	W96
// 003   ----------------------------------------
	BYTE	W96
// 004   ----------------------------------------
	BYTE	W96
// 005   ----------------------------------------
	BYTE	W36
	BYTE		N05     Cn3   v127
	BYTE	W06
	BYTE		        Ds3 
	BYTE	W06
	BYTE		N04     Fn3 
	BYTE	W12
	BYTE		        Cn3 
	BYTE	W12
	BYTE		        Fn3 
	BYTE	W06
	BYTE		        Gs3 
	BYTE	W12
	BYTE		N48     Gn3 
	BYTE	W06
// 006   ----------------------------------------
ToniSong_4_006:
	BYTE	W48
	BYTE		N28     Ds3   v127
	BYTE	W30
	BYTE		N05     Cs3 
	BYTE	W06
	BYTE		        Cn3 
	BYTE	W06
	BYTE		        Cs3 
	BYTE	W06
	BYTE	PEND
// 007   ----------------------------------------
	BYTE		N90     Ds3 
	BYTE	W96
// 008   ----------------------------------------
ToniSong_4_008:
	BYTE		N32     Cs3   v127
	BYTE	W36
	BYTE		N11     Ds3 
	BYTE	W12
	BYTE		        Fn3 
	BYTE	W12
	BYTE		        Cs3 
	BYTE	W12
	BYTE		        Fn3 
	BYTE	W12
	BYTE		        Gs3 
	BYTE	W12
	BYTE	PEND
// 009   ----------------------------------------
ToniSong_4_009:
	BYTE		N32     Gn3   v127
	BYTE	W36
	BYTE		N11     Fn3 
	BYTE	W12
	BYTE		        Ds3 
	BYTE	W12
	BYTE		        Cs3 
	BYTE	W12
	BYTE		        Cn3 
	BYTE	W12
	BYTE		        Cs3 
	BYTE	W12
	BYTE	PEND
// 010   ----------------------------------------
	BYTE		VOL     127*ToniSong_mvl/mxv
	BYTE		PAN     c_v-17
	BYTE		N20     Ds3 
	BYTE	W24
	BYTE		N05   
	BYTE	W06
	BYTE		N05   
	BYTE	W06
	BYTE		        Fn3 
	BYTE	W06
	BYTE		N17     Ds3 
	BYTE	W18
	BYTE		N04     Cs3 
	BYTE	W12
	BYTE		        As2 
	BYTE	W12
	BYTE		        Cs3 
	BYTE	W12
// 011   ----------------------------------------
	BYTE		N11     Ds3 
	BYTE	W12
	BYTE		N04     Fn3 
	BYTE	W06
	BYTE		N66   
	BYTE	W78
// 012   ----------------------------------------
	BYTE	W96
// 013   ----------------------------------------
	BYTE		PAN     c_v-17
	BYTE		VOL     127*ToniSong_mvl/mxv
	BYTE	W36
	BYTE		N05     Cn3 
	BYTE	W06
	BYTE		        Ds3 
	BYTE	W06
	BYTE		N04     Fn3 
	BYTE	W12
	BYTE		        Cn3 
	BYTE	W12
	BYTE		        Fn3 
	BYTE	W06
	BYTE		        Gs3 
	BYTE	W12
	BYTE		N48     Gn3 
	BYTE	W06
// 014   ----------------------------------------
	BYTE	PATT
	 POIN2	ToniSong_4_006
// 015   ----------------------------------------
	BYTE		N90     Ds3   v127
	BYTE	W96
// 016   ----------------------------------------
	BYTE	PATT
	 POIN2	ToniSong_4_008
// 017   ----------------------------------------
	BYTE	PATT
	 POIN2	ToniSong_4_009
// 018   ----------------------------------------
	BYTE		N42     Ds3   v127
	BYTE	W48
	BYTE		TIE     Fn3 
	BYTE	W48
// 019   ----------------------------------------
	BYTE	W66
	BYTE		EOT   
	BYTE	W30
// 020   ----------------------------------------
	BYTE	W96
// 021   ----------------------------------------
	BYTE	W96
// 022   ----------------------------------------
	BYTE	W96
// 023   ----------------------------------------
	BYTE	W96
// 024   ----------------------------------------
	BYTE	W96
// 025   ----------------------------------------
	BYTE	W96
// 026   ----------------------------------------
ToniSong_4_026:
	BYTE		N42     Fn3   v127
	BYTE	W48
	BYTE		        Gs3 
	BYTE	W48
	BYTE	PEND
// 027   ----------------------------------------
ToniSong_4_027:
	BYTE		N42     Gn3   v127
	BYTE	W48
	BYTE		        Ds3 
	BYTE	W48
	BYTE	PEND
// 028   ----------------------------------------
	BYTE		N90     Fn3 
	BYTE	W96
// 029   ----------------------------------------
	BYTE	W96
// 030   ----------------------------------------
	BYTE	W96
// 031   ----------------------------------------
	BYTE	W72
	BYTE		N05   
	BYTE	W06
	BYTE		        Gn3 
	BYTE	W06
	BYTE		        Gs3 
	BYTE	W06
	BYTE		        As3 
	BYTE	W06
	BYTE	GoTo
	 POIN2	ToniSong_4_B1
ToniSong_4_B2:
// 032   ----------------------------------------
	BYTE		N42     Cn4   v127
	BYTE	W48
	BYTE		N15     Ds4 
	BYTE	W16
	BYTE		        Cs4 
	BYTE	W16
	BYTE		        Cn4 
	BYTE	W16
// 033   ----------------------------------------
	BYTE		N32     As3 
	BYTE	W36
	BYTE		N11     Gs3 
	BYTE	W12
	BYTE		N20     Gn3 
	BYTE	W24
	BYTE		N05     Fn3 
	BYTE	W06
	BYTE		        Gn3 
	BYTE	W06
	BYTE		        Gs3 
	BYTE	W06
	BYTE		        As3 
	BYTE	W06
// 034   ----------------------------------------
	BYTE		N42     Cn4 
	BYTE	W48
	BYTE		N15     Cs4 
	BYTE	W16
	BYTE		        Ds4 
	BYTE	W16
	BYTE		        Fn4 
	BYTE	W16
// 035   ----------------------------------------
	BYTE		N32     Ds4 
	BYTE	W36
	BYTE		N11     Cs4 
	BYTE	W12
	BYTE		N15     Cn4 
	BYTE	W16
	BYTE		        As3 
	BYTE	W16
	BYTE		        Gn3 
	BYTE	W16
// 036   ----------------------------------------
	BYTE		N32     Gs3 
	BYTE	W36
	BYTE		N11     Gn3 
	BYTE	W12
	BYTE		N04     Fn3 
	BYTE	W12
	BYTE		        Cn3 
	BYTE	W12
	BYTE		        Fn3 
	BYTE	W06
	BYTE		N11     Gs3 
	BYTE	W12
	BYTE		N36     Gn3 
	BYTE	W06
// 037   ----------------------------------------
	BYTE	W36
	BYTE		N11     Gs3 
	BYTE	W12
	BYTE		N15     As3 
	BYTE	W16
	BYTE		        Gs3 
	BYTE	W16
	BYTE		        Gn3 
	BYTE	W16
// 038   ----------------------------------------
	BYTE	PATT
	 POIN2	ToniSong_4_026
// 039   ----------------------------------------
	BYTE	PATT
	 POIN2	ToniSong_4_027
// 040   ----------------------------------------
	BYTE		N90     Fn3   v127
	BYTE	W96
// 041   ----------------------------------------
	BYTE	W96
// 042   ----------------------------------------
	BYTE	W96
// 043   ----------------------------------------
	BYTE	W96
// 044   ----------------------------------------
	BYTE	W96
// 045   ----------------------------------------
	BYTE	W96
// 046   ----------------------------------------
	BYTE	W96
// 047   ----------------------------------------
	BYTE	W96
// 048   ----------------------------------------
	BYTE	W96
// 049   ----------------------------------------
	BYTE	W96
// 050   ----------------------------------------
	BYTE	W96
// 051   ----------------------------------------
	BYTE	W96
// 052   ----------------------------------------
	BYTE	W96
// 053   ----------------------------------------
	BYTE	W96
// 054   ----------------------------------------
	BYTE	W96
// 055   ----------------------------------------
	BYTE	W96
// 056   ----------------------------------------
	BYTE	W48
	BYTE	FINE

//**************** Track 5 (Midi-Chn.5) ****************//

ToniSong_5:
	BYTE	KEYSH   ToniSong_key+0
ToniSong_5_B1:
// 000   ----------------------------------------
	BYTE		VOICE   0
	BYTE		MODT    0
	BYTE		LFOS    44
	BYTE		PAN     c_v+32
	BYTE		VOL     127*ToniSong_mvl/mxv
	BYTE		PAN     c_v-32
	BYTE	W96
// 001   ----------------------------------------
	BYTE	W96
// 002   ----------------------------------------
	BYTE	W96
// 003   ----------------------------------------
	BYTE	W96
// 004   ----------------------------------------
	BYTE	W96
// 005   ----------------------------------------
	BYTE	W96
// 006   ----------------------------------------
	BYTE	W96
// 007   ----------------------------------------
	BYTE	W96
// 008   ----------------------------------------
	BYTE	W96
// 009   ----------------------------------------
	BYTE	W96
// 010   ----------------------------------------
	BYTE	W96
// 011   ----------------------------------------
	BYTE	W96
// 012   ----------------------------------------
ToniSong_5_012:
	BYTE	W12
	BYTE		N05     Gs3   v076
	BYTE		N05     Cn4 
	BYTE		N05     Fn4 
	BYTE	W06
	BYTE		        Gs3 
	BYTE		N05     Cn4 
	BYTE		N05     Fn4 
	BYTE	W18
	BYTE		        Cn4 
	BYTE		N05     Fn4 
	BYTE		N05     Gs4 
	BYTE	W06
	BYTE		        Cn4 
	BYTE		N05     Fn4 
	BYTE		N05     Gs4 
	BYTE	W18
	BYTE		        Gs3 
	BYTE		N05     Cn4 
	BYTE		N05     Fn4 
	BYTE	W06
	BYTE		        Cn4 
	BYTE		N05     Fn4 
	BYTE		N05     Gs4 
	BYTE	W06
	BYTE		        Gn3 
	BYTE		N05     As3 
	BYTE		N05     Ds4 
	BYTE	W06
	BYTE		        As3 
	BYTE		N05     Ds4 
	BYTE		N05     Gn4 
	BYTE	W06
	BYTE		N11     Gn3 
	BYTE		N11     As3 
	BYTE		N11     Ds4 
	BYTE	W12
	BYTE	PEND
// 013   ----------------------------------------
ToniSong_5_013:
	BYTE	W12
	BYTE		N05     Gs3   v076
	BYTE		N05     Cn4 
	BYTE		N05     Fn4 
	BYTE	W06
	BYTE		        Gs3 
	BYTE		N05     Cn4 
	BYTE		N05     Fn4 
	BYTE	W18
	BYTE		        Cn4 
	BYTE		N05     Fn4 
	BYTE		N05     Gs4 
	BYTE	W06
	BYTE		        Cn4 
	BYTE		N05     Fn4 
	BYTE		N05     Gs4 
	BYTE	W18
	BYTE		        Gs3 
	BYTE		N05     Cn4 
	BYTE		N05     Fn4 
	BYTE	W06
	BYTE		        Cn4 
	BYTE		N05     Fn4 
	BYTE		N05     Gs4 
	BYTE	W06
	BYTE		        Gs3 
	BYTE		N05     Cn4 
	BYTE		N05     Fn4 
	BYTE	W06
	BYTE		        Cn4 
	BYTE		N05     Fn4 
	BYTE		N05     Gs4 
	BYTE	W06
	BYTE		N11     Gs3 
	BYTE		N11     Cn4 
	BYTE		N11     Fn4 
	BYTE	W12
	BYTE	PEND
// 014   ----------------------------------------
	BYTE	PATT
	 POIN2	ToniSong_5_012
// 015   ----------------------------------------
	BYTE	PATT
	 POIN2	ToniSong_5_013
// 016   ----------------------------------------
	BYTE		N20     Fn3   v076
	BYTE		N20     Gs3 
	BYTE		N20     Cs4 
	BYTE	W24
	BYTE		        Fn3 
	BYTE		N20     Gs3 
	BYTE		N20     Cs4 
	BYTE	W24
	BYTE		        Fn3 
	BYTE		N20     Gs3 
	BYTE		N20     Cs4 
	BYTE	W24
	BYTE		        Fn3 
	BYTE		N20     Gs3 
	BYTE		N20     Cs4 
	BYTE	W24
// 017   ----------------------------------------
	BYTE		        Gn3 
	BYTE		N20     As3 
	BYTE		N20     Ds4 
	BYTE	W24
	BYTE		        Gn3 
	BYTE		N20     As3 
	BYTE		N20     Ds4 
	BYTE	W24
	BYTE		        Gn3 
	BYTE		N20     As3 
	BYTE		N20     Ds4 
	BYTE	W24
	BYTE		        Gn3 
	BYTE		N20     As3 
	BYTE		N20     Ds4 
	BYTE	W24
// 018   ----------------------------------------
	BYTE	PATT
	 POIN2	ToniSong_5_012
// 019   ----------------------------------------
	BYTE	PATT
	 POIN2	ToniSong_5_013
// 020   ----------------------------------------
	BYTE	W96
// 021   ----------------------------------------
	BYTE	W96
// 022   ----------------------------------------
	BYTE	W96
// 023   ----------------------------------------
	BYTE	W96
// 024   ----------------------------------------
	BYTE	W96
// 025   ----------------------------------------
	BYTE	W96
// 026   ----------------------------------------
	BYTE	W96
// 027   ----------------------------------------
	BYTE	W96
// 028   ----------------------------------------
	BYTE	PATT
	 POIN2	ToniSong_5_012
// 029   ----------------------------------------
	BYTE	PATT
	 POIN2	ToniSong_5_013
// 030   ----------------------------------------
	BYTE	PATT
	 POIN2	ToniSong_5_012
// 031   ----------------------------------------
	BYTE	PATT
	 POIN2	ToniSong_5_013
	BYTE	GoTo
	 POIN2	ToniSong_5_B1
ToniSong_5_B2:
// 032   ----------------------------------------
	BYTE		PAN     c_v+32
	BYTE		VOL     127*ToniSong_mvl/mxv
	BYTE		PAN     c_v-32
	BYTE	W96
// 033   ----------------------------------------
	BYTE	W96
// 034   ----------------------------------------
	BYTE	W96
// 035   ----------------------------------------
	BYTE	W96
// 036   ----------------------------------------
	BYTE	W96
// 037   ----------------------------------------
	BYTE	W96
// 038   ----------------------------------------
	BYTE	W96
// 039   ----------------------------------------
	BYTE	W96
// 040   ----------------------------------------
	BYTE	PATT
	 POIN2	ToniSong_5_012
// 041   ----------------------------------------
	BYTE	PATT
	 POIN2	ToniSong_5_013
// 042   ----------------------------------------
	BYTE	PATT
	 POIN2	ToniSong_5_012
// 043   ----------------------------------------
	BYTE	PATT
	 POIN2	ToniSong_5_013
// 044   ----------------------------------------
	BYTE	W96
// 045   ----------------------------------------
	BYTE	W96
// 046   ----------------------------------------
	BYTE	W96
// 047   ----------------------------------------
	BYTE	W96
// 048   ----------------------------------------
	BYTE	W96
// 049   ----------------------------------------
	BYTE	W96
// 050   ----------------------------------------
	BYTE	W96
// 051   ----------------------------------------
	BYTE	W96
// 052   ----------------------------------------
	BYTE	W96
// 053   ----------------------------------------
	BYTE	W96
// 054   ----------------------------------------
	BYTE	W96
// 055   ----------------------------------------
	BYTE	W96
// 056   ----------------------------------------
	BYTE	W48
	BYTE	FINE

//**************** Track 6 (Midi-Chn.6) ****************//

ToniSong_6:
	BYTE	KEYSH   ToniSong_key+0
ToniSong_6_B1:
// 000   ----------------------------------------
	BYTE		VOICE   54
	BYTE		MODT    0
	BYTE		LFOS    44
	BYTE		PAN     c_v+0
	BYTE		VOL     127*ToniSong_mvl/mxv
	BYTE	W96
// 001   ----------------------------------------
	BYTE	W96
// 002   ----------------------------------------
	BYTE	W96
// 003   ----------------------------------------
	BYTE	W96
// 004   ----------------------------------------
	BYTE	W96
// 005   ----------------------------------------
	BYTE	W96
// 006   ----------------------------------------
	BYTE	W96
// 007   ----------------------------------------
	BYTE	W96
// 008   ----------------------------------------
	BYTE	W96
// 009   ----------------------------------------
	BYTE	W96
// 010   ----------------------------------------
	BYTE	W96
// 011   ----------------------------------------
	BYTE	W96
// 012   ----------------------------------------
	BYTE	W96
// 013   ----------------------------------------
	BYTE	W96
// 014   ----------------------------------------
	BYTE	W96
// 015   ----------------------------------------
	BYTE	W96
// 016   ----------------------------------------
	BYTE	W96
// 017   ----------------------------------------
	BYTE	W96
// 018   ----------------------------------------
	BYTE	W96
// 019   ----------------------------------------
	BYTE	W96
// 020   ----------------------------------------
ToniSong_6_020:
	BYTE		N96     Cn3   v076
	BYTE		TIE     Ds3 
	BYTE		N96     Gs3 
	BYTE	W96
	BYTE	PEND
// 021   ----------------------------------------
	BYTE		        As2 
	BYTE		N96     Gn3 
	BYTE	W96
	BYTE		EOT     Ds3 
// 022   ----------------------------------------
ToniSong_6_022:
	BYTE		N96     Gs2   v076
	BYTE		TIE     Cn3 
	BYTE		N96     Fn3 
	BYTE	W96
	BYTE	PEND
// 023   ----------------------------------------
	BYTE		        Ds3 
	BYTE		N96     Gn3 
	BYTE	W96
	BYTE		EOT     Cn3 
// 024   ----------------------------------------
ToniSong_6_024:
	BYTE		N96     Cs3   v076
	BYTE		N96     Fn3 
	BYTE		N96     Gs3 
	BYTE	W96
	BYTE	PEND
// 025   ----------------------------------------
ToniSong_6_025:
	BYTE		N96     Ds3   v076
	BYTE		N96     Gn3 
	BYTE		N96     As3 
	BYTE	W96
	BYTE	PEND
// 026   ----------------------------------------
	BYTE		        Fn3 
	BYTE		N96     Gs3 
	BYTE		TIE     Cn4 
	BYTE	W96
// 027   ----------------------------------------
	BYTE		N90     Ds3 
	BYTE		N90     Gn3 
	BYTE	W90
	BYTE		EOT     Cn4 
	BYTE	W06
// 028   ----------------------------------------
	BYTE	W96
// 029   ----------------------------------------
	BYTE	W96
// 030   ----------------------------------------
	BYTE	W96
// 031   ----------------------------------------
	BYTE	W96
	BYTE	GoTo
	 POIN2	ToniSong_6_B1
ToniSong_6_B2:
// 032   ----------------------------------------
	BYTE	PATT
	 POIN2	ToniSong_6_020
// 033   ----------------------------------------
	BYTE		N96     As2   v076
	BYTE		N96     Gn3 
	BYTE	W96
	BYTE		EOT     Ds3 
// 034   ----------------------------------------
	BYTE	PATT
	 POIN2	ToniSong_6_022
// 035   ----------------------------------------
	BYTE		N96     Ds3   v076
	BYTE		N96     Gn3 
	BYTE	W96
	BYTE		EOT     Cn3 
// 036   ----------------------------------------
	BYTE	PATT
	 POIN2	ToniSong_6_024
// 037   ----------------------------------------
	BYTE	PATT
	 POIN2	ToniSong_6_025
// 038   ----------------------------------------
	BYTE		N96     Fn3   v076
	BYTE		N96     Gs3 
	BYTE	W96
// 039   ----------------------------------------
	BYTE	W96
// 040   ----------------------------------------
	BYTE	W96
// 041   ----------------------------------------
	BYTE	W96
// 042   ----------------------------------------
	BYTE	W96
// 043   ----------------------------------------
	BYTE	W96
// 044   ----------------------------------------
	BYTE	W96
// 045   ----------------------------------------
	BYTE	W96
// 046   ----------------------------------------
	BYTE	W96
// 047   ----------------------------------------
	BYTE	W96
// 048   ----------------------------------------
	BYTE	W96
// 049   ----------------------------------------
	BYTE	W96
// 050   ----------------------------------------
	BYTE	W96
// 051   ----------------------------------------
	BYTE	W96
// 052   ----------------------------------------
	BYTE	W96
// 053   ----------------------------------------
	BYTE	W96
// 054   ----------------------------------------
	BYTE	W96
// 055   ----------------------------------------
	BYTE	W96
// 056   ----------------------------------------
	BYTE	W48
	BYTE	FINE

//**************** Track 7 (Midi-Chn.7) ****************//

ToniSong_7:
	BYTE	KEYSH   ToniSong_key+0
ToniSong_7_B1:
// 000   ----------------------------------------
	BYTE		VOICE   50
	BYTE		MODT    0
	BYTE		LFOS    44
	BYTE		VOL     108*ToniSong_mvl/mxv
	BYTE		PAN     c_v-11
	BYTE	W96
// 001   ----------------------------------------
	BYTE	W96
// 002   ----------------------------------------
	BYTE	W96
// 003   ----------------------------------------
	BYTE	W96
// 004   ----------------------------------------
	BYTE	W96
// 005   ----------------------------------------
	BYTE	W96
// 006   ----------------------------------------
	BYTE	W96
// 007   ----------------------------------------
	BYTE	W96
// 008   ----------------------------------------
	BYTE	W96
// 009   ----------------------------------------
	BYTE	W96
// 010   ----------------------------------------
	BYTE	W96
// 011   ----------------------------------------
	BYTE	W96
// 012   ----------------------------------------
	BYTE	W96
// 013   ----------------------------------------
	BYTE	W96
// 014   ----------------------------------------
	BYTE	W96
// 015   ----------------------------------------
	BYTE	W96
// 016   ----------------------------------------
	BYTE	W96
// 017   ----------------------------------------
	BYTE	W96
// 018   ----------------------------------------
	BYTE	W96
// 019   ----------------------------------------
	BYTE	W96
// 020   ----------------------------------------
	BYTE		N96     Gs3   v076
	BYTE	W96
// 021   ----------------------------------------
	BYTE		        Gn3 
	BYTE	W96
// 022   ----------------------------------------
	BYTE	W96
// 023   ----------------------------------------
	BYTE		N96   
	BYTE	W96
// 024   ----------------------------------------
	BYTE		        Gs3 
	BYTE	W96
// 025   ----------------------------------------
	BYTE		        As3 
	BYTE	W96
// 026   ----------------------------------------
	BYTE		TIE     Cn4 
	BYTE	W96
// 027   ----------------------------------------
	BYTE	W90
	BYTE		EOT   
	BYTE	W06
// 028   ----------------------------------------
	BYTE	W96
// 029   ----------------------------------------
	BYTE	W96
// 030   ----------------------------------------
	BYTE	W96
// 031   ----------------------------------------
	BYTE	W96
	BYTE	GoTo
	 POIN2	ToniSong_7_B1
ToniSong_7_B2:
// 032   ----------------------------------------
	BYTE		N96     Gs3   v076
	BYTE	W96
// 033   ----------------------------------------
	BYTE		        Gn3 
	BYTE	W96
// 034   ----------------------------------------
	BYTE	W96
// 035   ----------------------------------------
	BYTE		N96   
	BYTE	W96
// 036   ----------------------------------------
	BYTE		        Gs3 
	BYTE	W96
// 037   ----------------------------------------
	BYTE		        As3 
	BYTE	W96
// 038   ----------------------------------------
	BYTE		TIE     Cn4 
	BYTE	W96
// 039   ----------------------------------------
	BYTE	W90
	BYTE		EOT   
	BYTE	W06
// 040   ----------------------------------------
	BYTE	W96
// 041   ----------------------------------------
	BYTE	W96
// 042   ----------------------------------------
	BYTE	W96
// 043   ----------------------------------------
	BYTE	W96
// 044   ----------------------------------------
	BYTE	W96
// 045   ----------------------------------------
	BYTE	W96
// 046   ----------------------------------------
	BYTE	W96
// 047   ----------------------------------------
	BYTE	W96
// 048   ----------------------------------------
	BYTE	W96
// 049   ----------------------------------------
	BYTE	W96
// 050   ----------------------------------------
	BYTE	W96
// 051   ----------------------------------------
	BYTE	W96
// 052   ----------------------------------------
	BYTE	W96
// 053   ----------------------------------------
	BYTE	W96
// 054   ----------------------------------------
	BYTE	W96
// 055   ----------------------------------------
	BYTE	W96
// 056   ----------------------------------------
	BYTE	W48
	BYTE	FINE

//**************** Track 8 (Midi-Chn.8) ****************//

ToniSong_8:
	BYTE	KEYSH   ToniSong_key+0
ToniSong_8_B1:
// 000   ----------------------------------------
	BYTE		VOICE   124
	BYTE		MODT    0
	BYTE		LFOS    44
	BYTE		VOL     108*ToniSong_mvl/mxv
	BYTE		PAN     c_v+0
	BYTE		N05     Bn0   v127
	BYTE		N05     Cn1 
	BYTE		N05     Fs1 
	BYTE	W06
	BYTE		N05   
	BYTE	W06
	BYTE		        Gs1 
	BYTE	W06
	BYTE		        Fs1 
	BYTE	W06
	BYTE		        Dn1 
	BYTE		N05     En1 
	BYTE		N05     As1 
	BYTE	W06
	BYTE		        Gs1 
	BYTE	W06
	BYTE		N05   
	BYTE	W06
	BYTE		        Bn0 
	BYTE		N05     Cn1 
	BYTE		N05     Fs1 
	BYTE	W06
	BYTE		        Bn0 
	BYTE		N05     Cn1 
	BYTE		N05     Fs1 
	BYTE	W06
	BYTE		N05   
	BYTE	W06
	BYTE		        Bn0 
	BYTE		N05     Cn1 
	BYTE		N05     Gs1 
	BYTE	W06
	BYTE		        Fs1 
	BYTE	W06
	BYTE		        Dn1 
	BYTE		N05     En1 
	BYTE		N05     As1 
	BYTE	W06
	BYTE		        Gs1 
	BYTE	W06
	BYTE		        Bn0 
	BYTE		N05     Cn1 
	BYTE		N05     Fs1 
	BYTE	W06
	BYTE		N05   
	BYTE	W06
// 001   ----------------------------------------
ToniSong_8_001:
	BYTE		N05     Bn0   v127
	BYTE		N05     Cn1 
	BYTE		N05     Fs1 
	BYTE	W06
	BYTE		N05   
	BYTE	W06
	BYTE		        Gs1 
	BYTE	W06
	BYTE		        Fs1 
	BYTE	W06
	BYTE		        Dn1 
	BYTE		N05     En1 
	BYTE		N05     As1 
	BYTE	W06
	BYTE		        Gs1 
	BYTE	W06
	BYTE		N05   
	BYTE	W06
	BYTE		        Bn0 
	BYTE		N05     Cn1 
	BYTE		N05     Fs1 
	BYTE	W06
	BYTE		        Bn0 
	BYTE		N05     Cn1 
	BYTE		N05     Fs1 
	BYTE	W06
	BYTE		N05   
	BYTE	W06
	BYTE		        Bn0 
	BYTE		N05     Cn1 
	BYTE		N05     Gs1 
	BYTE	W06
	BYTE		        Fs1 
	BYTE	W06
	BYTE		        Dn1 
	BYTE		N05     En1 
	BYTE		N05     As1 
	BYTE	W06
	BYTE		        Gs1 
	BYTE	W06
	BYTE		        Bn0 
	BYTE		N05     Cn1 
	BYTE		N05     Fs1 
	BYTE	W06
	BYTE		N05   
	BYTE	W06
	BYTE	PEND
// 002   ----------------------------------------
	BYTE	PATT
	 POIN2	ToniSong_8_001
// 003   ----------------------------------------
ToniSong_8_003:
	BYTE		N05     Bn0   v127
	BYTE		N05     Cn1 
	BYTE		N05     Fs1 
	BYTE	W06
	BYTE		N05   
	BYTE	W06
	BYTE		        Gs1 
	BYTE	W06
	BYTE		        Fs1 
	BYTE	W06
	BYTE		        Dn1 
	BYTE		N05     En1 
	BYTE		N05     As1 
	BYTE	W06
	BYTE		        Gs1 
	BYTE	W06
	BYTE		N05   
	BYTE	W06
	BYTE		        Bn0 
	BYTE		N05     Cn1 
	BYTE		N05     Fs1 
	BYTE	W06
	BYTE		        Bn0 
	BYTE		N05     Cn1 
	BYTE		N05     Fs1 
	BYTE	W06
	BYTE		N05   
	BYTE	W06
	BYTE		        Bn0 
	BYTE		N05     Cn1 
	BYTE		N05     Gs1 
	BYTE	W06
	BYTE		        Fs1 
	BYTE	W06
	BYTE		        Dn1 
	BYTE		N05     En1 
	BYTE		N05     As1 
	BYTE	W06
	BYTE		        Gs1 
	BYTE	W06
	BYTE		        Bn0 
	BYTE		N05     Cn1 
	BYTE		N05     Fs1 
	BYTE	W06
	BYTE		        Bn0 
	BYTE		N05     Cn1 
	BYTE		N05     Fs1 
	BYTE	W06
	BYTE	PEND
// 004   ----------------------------------------
ToniSong_8_004:
	BYTE		N05     Bn0   v127
	BYTE		N05     Cn1 
	BYTE		N05     Fs1 
	BYTE		N05     An2 
	BYTE	W06
	BYTE		        Fs1 
	BYTE	W06
	BYTE		        Gs1 
	BYTE	W06
	BYTE		        Fs1 
	BYTE	W06
	BYTE		        Dn1 
	BYTE		N05     En1 
	BYTE		N05     As1 
	BYTE	W06
	BYTE		        Gs1 
	BYTE	W06
	BYTE		N05   
	BYTE	W06
	BYTE		        Bn0 
	BYTE		N05     Cn1 
	BYTE		N05     Fs1 
	BYTE	W06
	BYTE		        Bn0 
	BYTE		N05     Cn1 
	BYTE		N05     Fs1 
	BYTE	W06
	BYTE		N05   
	BYTE	W06
	BYTE		        Bn0 
	BYTE		N05     Cn1 
	BYTE		N05     Gs1 
	BYTE	W06
	BYTE		        Fs1 
	BYTE	W06
	BYTE		        Dn1 
	BYTE		N05     En1 
	BYTE		N05     As1 
	BYTE	W06
	BYTE		        Gs1 
	BYTE	W06
	BYTE		        Bn0 
	BYTE		N05     Cn1 
	BYTE		N05     Fs1 
	BYTE	W06
	BYTE		N05   
	BYTE	W06
	BYTE	PEND
// 005   ----------------------------------------
	BYTE	PATT
	 POIN2	ToniSong_8_001
// 006   ----------------------------------------
	BYTE	PATT
	 POIN2	ToniSong_8_001
// 007   ----------------------------------------
	BYTE	PATT
	 POIN2	ToniSong_8_001
// 008   ----------------------------------------
	BYTE	PATT
	 POIN2	ToniSong_8_001
// 009   ----------------------------------------
	BYTE	PATT
	 POIN2	ToniSong_8_001
// 010   ----------------------------------------
	BYTE	PATT
	 POIN2	ToniSong_8_001
// 011   ----------------------------------------
	BYTE	PATT
	 POIN2	ToniSong_8_003
// 012   ----------------------------------------
	BYTE	PATT
	 POIN2	ToniSong_8_004
// 013   ----------------------------------------
	BYTE	PATT
	 POIN2	ToniSong_8_001
// 014   ----------------------------------------
	BYTE	PATT
	 POIN2	ToniSong_8_001
// 015   ----------------------------------------
	BYTE	PATT
	 POIN2	ToniSong_8_001
// 016   ----------------------------------------
	BYTE	PATT
	 POIN2	ToniSong_8_001
// 017   ----------------------------------------
	BYTE	PATT
	 POIN2	ToniSong_8_001
// 018   ----------------------------------------
	BYTE	PATT
	 POIN2	ToniSong_8_001
// 019   ----------------------------------------
	BYTE	PATT
	 POIN2	ToniSong_8_003
// 020   ----------------------------------------
	BYTE	PATT
	 POIN2	ToniSong_8_004
// 021   ----------------------------------------
	BYTE	PATT
	 POIN2	ToniSong_8_001
// 022   ----------------------------------------
	BYTE	PATT
	 POIN2	ToniSong_8_001
// 023   ----------------------------------------
	BYTE	PATT
	 POIN2	ToniSong_8_001
// 024   ----------------------------------------
	BYTE	PATT
	 POIN2	ToniSong_8_001
// 025   ----------------------------------------
	BYTE	PATT
	 POIN2	ToniSong_8_001
// 026   ----------------------------------------
	BYTE	PATT
	 POIN2	ToniSong_8_001
// 027   ----------------------------------------
	BYTE	PATT
	 POIN2	ToniSong_8_003
// 028   ----------------------------------------
ToniSong_8_028:
	BYTE		N05     Fs1   v127
	BYTE		N05     An2 
	BYTE	W06
	BYTE		        Fs1 
	BYTE	W06
	BYTE		        Gs1 
	BYTE	W06
	BYTE		        Fs1 
	BYTE	W06
	BYTE		        As1 
	BYTE	W06
	BYTE		        Gs1 
	BYTE	W06
	BYTE		N05   
	BYTE	W06
	BYTE		        Fs1 
	BYTE	W06
	BYTE		N05   
	BYTE	W06
	BYTE		N05   
	BYTE	W06
	BYTE		        Gs1 
	BYTE	W06
	BYTE		        Fs1 
	BYTE	W06
	BYTE		        As1 
	BYTE	W06
	BYTE		        Gs1 
	BYTE	W06
	BYTE		N05   
	BYTE	W06
	BYTE		        Fs1 
	BYTE	W06
	BYTE	PEND
// 029   ----------------------------------------
ToniSong_8_029:
	BYTE		N05     Fs1   v127
	BYTE	W06
	BYTE		N05   
	BYTE	W06
	BYTE		        Gs1 
	BYTE	W06
	BYTE		        Fs1 
	BYTE	W06
	BYTE		        As1 
	BYTE	W06
	BYTE		        Gs1 
	BYTE	W06
	BYTE		N05   
	BYTE	W06
	BYTE		        Fs1 
	BYTE	W06
	BYTE		N05   
	BYTE	W06
	BYTE		N05   
	BYTE	W06
	BYTE		        Gs1 
	BYTE	W06
	BYTE		        Fs1 
	BYTE	W06
	BYTE		        As1 
	BYTE	W06
	BYTE		        Gs1 
	BYTE	W06
	BYTE		N05   
	BYTE	W06
	BYTE		        Fs1 
	BYTE	W06
	BYTE	PEND
// 030   ----------------------------------------
	BYTE	PATT
	 POIN2	ToniSong_8_029
// 031   ----------------------------------------
	BYTE	PATT
	 POIN2	ToniSong_8_029
	BYTE	GoTo
	 POIN2	ToniSong_8_B1
ToniSong_8_B2:
// 032   ----------------------------------------
	BYTE	PATT
	 POIN2	ToniSong_8_004
// 033   ----------------------------------------
	BYTE	PATT
	 POIN2	ToniSong_8_001
// 034   ----------------------------------------
	BYTE	PATT
	 POIN2	ToniSong_8_001
// 035   ----------------------------------------
	BYTE	PATT
	 POIN2	ToniSong_8_001
// 036   ----------------------------------------
	BYTE	PATT
	 POIN2	ToniSong_8_001
// 037   ----------------------------------------
	BYTE	PATT
	 POIN2	ToniSong_8_001
// 038   ----------------------------------------
	BYTE	PATT
	 POIN2	ToniSong_8_001
// 039   ----------------------------------------
	BYTE	PATT
	 POIN2	ToniSong_8_003
// 040   ----------------------------------------
	BYTE	PATT
	 POIN2	ToniSong_8_028
// 041   ----------------------------------------
	BYTE	PATT
	 POIN2	ToniSong_8_029
// 042   ----------------------------------------
	BYTE	PATT
	 POIN2	ToniSong_8_029
// 043   ----------------------------------------
	BYTE	PATT
	 POIN2	ToniSong_8_029
// 044   ----------------------------------------
	BYTE	W96
// 045   ----------------------------------------
	BYTE	W96
// 046   ----------------------------------------
	BYTE	W96
// 047   ----------------------------------------
	BYTE	W96
// 048   ----------------------------------------
	BYTE	W96
// 049   ----------------------------------------
	BYTE	W96
// 050   ----------------------------------------
	BYTE	W96
// 051   ----------------------------------------
	BYTE	W96
// 052   ----------------------------------------
	BYTE	W96
// 053   ----------------------------------------
	BYTE	W96
// 054   ----------------------------------------
	BYTE	W96
// 055   ----------------------------------------
	BYTE	W96
// 056   ----------------------------------------
	BYTE	W48
	BYTE	FINE

//**************** Track 9 (Midi-Chn.9) ****************//

ToniSong_9:
	BYTE	KEYSH   ToniSong_key+0
ToniSong_9_B1:
// 000   ----------------------------------------
	BYTE		VOICE   33
	BYTE		MODT    0
	BYTE		LFOS    44
	BYTE		VOL     127*ToniSong_mvl/mxv
	BYTE		PAN     c_v+0
	BYTE		N11     Fn1   v127
	BYTE	W12
	BYTE		N05   
	BYTE	W06
	BYTE		        Cn1 
	BYTE	W06
	BYTE		        Fn1 
	BYTE	W06
	BYTE		N04     Gs1 
	BYTE	W12
	BYTE		N04   
	BYTE	W24
	BYTE		        Ds1 
	BYTE	W06
	BYTE		        Gn1 
	BYTE	W12
	BYTE		N11     Ds1 
	BYTE	W12
// 001   ----------------------------------------
ToniSong_9_001:
	BYTE		N11     Fn1   v127
	BYTE	W12
	BYTE		N05   
	BYTE	W06
	BYTE		        Cn1 
	BYTE	W06
	BYTE		        Fn1 
	BYTE	W06
	BYTE		N04     Gs1 
	BYTE	W12
	BYTE		N04   
	BYTE	W24
	BYTE		        Fn1 
	BYTE	W06
	BYTE		        Gs1 
	BYTE	W12
	BYTE		N11     Fn1 
	BYTE	W12
	BYTE	PEND
// 002   ----------------------------------------
ToniSong_9_002:
	BYTE		N11     Fn1   v127
	BYTE	W12
	BYTE		N05   
	BYTE	W06
	BYTE		        Cn1 
	BYTE	W06
	BYTE		        Fn1 
	BYTE	W06
	BYTE		N04     Gs1 
	BYTE	W12
	BYTE		N04   
	BYTE	W24
	BYTE		        Ds1 
	BYTE	W06
	BYTE		        Gn1 
	BYTE	W12
	BYTE		N11     Ds1 
	BYTE	W12
	BYTE	PEND
// 003   ----------------------------------------
	BYTE	PATT
	 POIN2	ToniSong_9_001
// 004   ----------------------------------------
	BYTE	PATT
	 POIN2	ToniSong_9_002
// 005   ----------------------------------------
	BYTE	PATT
	 POIN2	ToniSong_9_001
// 006   ----------------------------------------
	BYTE	PATT
	 POIN2	ToniSong_9_002
// 007   ----------------------------------------
	BYTE	PATT
	 POIN2	ToniSong_9_001
// 008   ----------------------------------------
ToniSong_9_008:
	BYTE		N11     Fn1   v127
	BYTE	W12
	BYTE		N05   
	BYTE	W06
	BYTE		        Cs1 
	BYTE	W06
	BYTE		        Fn1 
	BYTE	W06
	BYTE		N04     Gs1 
	BYTE	W12
	BYTE		N04   
	BYTE	W24
	BYTE		        Fn1 
	BYTE	W06
	BYTE		        Gs1 
	BYTE	W12
	BYTE		N11     Fn1 
	BYTE	W12
	BYTE	PEND
// 009   ----------------------------------------
ToniSong_9_009:
	BYTE		N11     Gn1   v127
	BYTE	W12
	BYTE		N05   
	BYTE	W06
	BYTE		        Ds1 
	BYTE	W06
	BYTE		        Gn1 
	BYTE	W06
	BYTE		N04     As1 
	BYTE	W12
	BYTE		N04   
	BYTE	W24
	BYTE		        Gn1 
	BYTE	W06
	BYTE		        As1 
	BYTE	W12
	BYTE		N11     Gn1 
	BYTE	W12
	BYTE	PEND
// 010   ----------------------------------------
	BYTE	PATT
	 POIN2	ToniSong_9_002
// 011   ----------------------------------------
	BYTE	PATT
	 POIN2	ToniSong_9_001
// 012   ----------------------------------------
	BYTE	PATT
	 POIN2	ToniSong_9_002
// 013   ----------------------------------------
	BYTE	PATT
	 POIN2	ToniSong_9_001
// 014   ----------------------------------------
	BYTE	PATT
	 POIN2	ToniSong_9_002
// 015   ----------------------------------------
	BYTE	PATT
	 POIN2	ToniSong_9_001
// 016   ----------------------------------------
	BYTE	PATT
	 POIN2	ToniSong_9_008
// 017   ----------------------------------------
	BYTE	PATT
	 POIN2	ToniSong_9_009
// 018   ----------------------------------------
	BYTE	PATT
	 POIN2	ToniSong_9_002
// 019   ----------------------------------------
	BYTE	PATT
	 POIN2	ToniSong_9_001
// 020   ----------------------------------------
ToniSong_9_020:
	BYTE		N04     Gs1   v127
	BYTE	W12
	BYTE		        Ds1 
	BYTE	W12
	BYTE		        Cn1 
	BYTE	W12
	BYTE		        Ds1 
	BYTE	W12
	BYTE		        Gs1 
	BYTE	W12
	BYTE		        Ds1 
	BYTE	W12
	BYTE		        Cn1 
	BYTE	W12
	BYTE		        Ds1 
	BYTE	W12
	BYTE	PEND
// 021   ----------------------------------------
ToniSong_9_021:
	BYTE		N04     Gn1   v127
	BYTE	W12
	BYTE		        Ds1 
	BYTE	W12
	BYTE		        As0 
	BYTE	W12
	BYTE		        Ds1 
	BYTE	W12
	BYTE		        Gn1 
	BYTE	W12
	BYTE		        Ds1 
	BYTE	W12
	BYTE		        As0 
	BYTE	W12
	BYTE		        Ds1 
	BYTE	W12
	BYTE	PEND
// 022   ----------------------------------------
ToniSong_9_022:
	BYTE		N04     Gs1   v127
	BYTE	W12
	BYTE		        Fn1 
	BYTE	W12
	BYTE		        Cn1 
	BYTE	W12
	BYTE		        Fn1 
	BYTE	W12
	BYTE		        Gs1 
	BYTE	W12
	BYTE		        Fn1 
	BYTE	W12
	BYTE		        Cn1 
	BYTE	W12
	BYTE		        Fn1 
	BYTE	W12
	BYTE	PEND
// 023   ----------------------------------------
ToniSong_9_023:
	BYTE		N04     Gn1   v127
	BYTE	W12
	BYTE		        Ds1 
	BYTE	W12
	BYTE		        Cn1 
	BYTE	W12
	BYTE		        Ds1 
	BYTE	W12
	BYTE		        Gn1 
	BYTE	W12
	BYTE		        Ds1 
	BYTE	W12
	BYTE		        Cn1 
	BYTE	W12
	BYTE		        Ds1 
	BYTE	W12
	BYTE	PEND
// 024   ----------------------------------------
ToniSong_9_024:
	BYTE		N04     Gs1   v127
	BYTE	W12
	BYTE		        Fn1 
	BYTE	W12
	BYTE		        Cs1 
	BYTE	W12
	BYTE		        Fn1 
	BYTE	W12
	BYTE		        Gs1 
	BYTE	W12
	BYTE		        Fn1 
	BYTE	W12
	BYTE		        Cs1 
	BYTE	W12
	BYTE		        Fn1 
	BYTE	W12
	BYTE	PEND
// 025   ----------------------------------------
	BYTE	PATT
	 POIN2	ToniSong_9_021
// 026   ----------------------------------------
	BYTE	PATT
	 POIN2	ToniSong_9_022
// 027   ----------------------------------------
	BYTE	PATT
	 POIN2	ToniSong_9_023
// 028   ----------------------------------------
ToniSong_9_028:
	BYTE		N42     Fn1   v127
	BYTE	W48
	BYTE		        Ds1 
	BYTE	W48
	BYTE	PEND
// 029   ----------------------------------------
ToniSong_9_029:
	BYTE		N20     Fn1   v127
	BYTE	W24
	BYTE		        Gs1 
	BYTE	W24
	BYTE		        Gn1 
	BYTE	W24
	BYTE		        Fn1 
	BYTE	W24
	BYTE	PEND
// 030   ----------------------------------------
	BYTE	PATT
	 POIN2	ToniSong_9_028
// 031   ----------------------------------------
	BYTE	PATT
	 POIN2	ToniSong_9_029
	BYTE	GoTo
	 POIN2	ToniSong_9_B1
ToniSong_9_B2:
// 032   ----------------------------------------
	BYTE	PATT
	 POIN2	ToniSong_9_020
// 033   ----------------------------------------
	BYTE	PATT
	 POIN2	ToniSong_9_021
// 034   ----------------------------------------
	BYTE	PATT
	 POIN2	ToniSong_9_022
// 035   ----------------------------------------
	BYTE	PATT
	 POIN2	ToniSong_9_023
// 036   ----------------------------------------
	BYTE	PATT
	 POIN2	ToniSong_9_024
// 037   ----------------------------------------
	BYTE	PATT
	 POIN2	ToniSong_9_021
// 038   ----------------------------------------
	BYTE	PATT
	 POIN2	ToniSong_9_022
// 039   ----------------------------------------
	BYTE	PATT
	 POIN2	ToniSong_9_023
// 040   ----------------------------------------
	BYTE	PATT
	 POIN2	ToniSong_9_028
// 041   ----------------------------------------
	BYTE	PATT
	 POIN2	ToniSong_9_029
// 042   ----------------------------------------
	BYTE	PATT
	 POIN2	ToniSong_9_028
// 043   ----------------------------------------
	BYTE	PATT
	 POIN2	ToniSong_9_029
// 044   ----------------------------------------
	BYTE	W96
// 045   ----------------------------------------
	BYTE	W96
// 046   ----------------------------------------
	BYTE	W96
// 047   ----------------------------------------
	BYTE	W96
// 048   ----------------------------------------
	BYTE	W96
// 049   ----------------------------------------
	BYTE	W96
// 050   ----------------------------------------
	BYTE	W96
// 051   ----------------------------------------
	BYTE	W96
// 052   ----------------------------------------
	BYTE	W96
// 053   ----------------------------------------
	BYTE	W96
// 054   ----------------------------------------
	BYTE	W96
// 055   ----------------------------------------
	BYTE	W96
// 056   ----------------------------------------
	BYTE	W48
	BYTE	FINE

//**************** Track 10 (Midi-Chn.11) ****************//

ToniSong_10:
	BYTE	KEYSH   ToniSong_key+0
ToniSong_10_B1:
// 000   ----------------------------------------
	BYTE		VOICE   50
	BYTE		MODT    0
	BYTE		LFOS    44
	BYTE		VOL     103*ToniSong_mvl/mxv
	BYTE		PAN     c_v+9
	BYTE	W96
// 001   ----------------------------------------
	BYTE	W96
// 002   ----------------------------------------
	BYTE	W96
// 003   ----------------------------------------
	BYTE	W96
// 004   ----------------------------------------
	BYTE	W96
// 005   ----------------------------------------
	BYTE	W96
// 006   ----------------------------------------
	BYTE	W96
// 007   ----------------------------------------
	BYTE	W96
// 008   ----------------------------------------
	BYTE	W96
// 009   ----------------------------------------
	BYTE	W96
// 010   ----------------------------------------
	BYTE	W96
// 011   ----------------------------------------
	BYTE	W96
// 012   ----------------------------------------
	BYTE	W96
// 013   ----------------------------------------
	BYTE	W96
// 014   ----------------------------------------
	BYTE	W96
// 015   ----------------------------------------
	BYTE	W96
// 016   ----------------------------------------
	BYTE	W96
// 017   ----------------------------------------
	BYTE	W96
// 018   ----------------------------------------
	BYTE	W96
// 019   ----------------------------------------
	BYTE	W96
// 020   ----------------------------------------
	BYTE	W96
// 021   ----------------------------------------
	BYTE		N96     As2   v076
	BYTE	W96
// 022   ----------------------------------------
	BYTE		        Gs2 
	BYTE	W96
// 023   ----------------------------------------
	BYTE		        Ds3 
	BYTE	W96
// 024   ----------------------------------------
	BYTE		        Cs3 
	BYTE	W96
// 025   ----------------------------------------
	BYTE		        Ds3 
	BYTE	W96
// 026   ----------------------------------------
	BYTE	W96
// 027   ----------------------------------------
	BYTE		N90   
	BYTE	W96
// 028   ----------------------------------------
	BYTE	W96
// 029   ----------------------------------------
	BYTE	W96
// 030   ----------------------------------------
	BYTE	W96
// 031   ----------------------------------------
	BYTE	W96
	BYTE	GoTo
	 POIN2	ToniSong_10_B1
ToniSong_10_B2:
// 032   ----------------------------------------
	BYTE	W96
// 033   ----------------------------------------
	BYTE		N96     As2   v076
	BYTE	W96
// 034   ----------------------------------------
	BYTE		        Gs2 
	BYTE	W96
// 035   ----------------------------------------
	BYTE		        Ds3 
	BYTE	W96
// 036   ----------------------------------------
	BYTE		        Cs3 
	BYTE	W96
// 037   ----------------------------------------
	BYTE		        Ds3 
	BYTE	W96
// 038   ----------------------------------------
	BYTE	W96
// 039   ----------------------------------------
	BYTE		N90   
	BYTE	W96
// 040   ----------------------------------------
	BYTE	W96
// 041   ----------------------------------------
	BYTE	W96
// 042   ----------------------------------------
	BYTE	W96
// 043   ----------------------------------------
	BYTE	W96
// 044   ----------------------------------------
	BYTE	W96
// 045   ----------------------------------------
	BYTE	W96
// 046   ----------------------------------------
	BYTE	W96
// 047   ----------------------------------------
	BYTE	W96
// 048   ----------------------------------------
	BYTE	W96
// 049   ----------------------------------------
	BYTE	W96
// 050   ----------------------------------------
	BYTE	W96
// 051   ----------------------------------------
	BYTE	W96
// 052   ----------------------------------------
	BYTE	W96
// 053   ----------------------------------------
	BYTE	W96
// 054   ----------------------------------------
	BYTE	W96
// 055   ----------------------------------------
	BYTE	W96
// 056   ----------------------------------------
	BYTE	W48
	BYTE	FINE

//**************** Track 11 (Midi-Chn.13) ****************//

ToniSong_11:
	BYTE	KEYSH   ToniSong_key+0
ToniSong_11_B1:
// 000   ----------------------------------------
	BYTE		VOICE   61
	BYTE		MODT    0
	BYTE		LFOS    44
	BYTE		PAN     c_v+0
	BYTE		VOL     127*ToniSong_mvl/mxv
	BYTE	W96
// 001   ----------------------------------------
	BYTE	W96
// 002   ----------------------------------------
	BYTE	W96
// 003   ----------------------------------------
	BYTE	W96
// 004   ----------------------------------------
	BYTE	W96
// 005   ----------------------------------------
	BYTE	W96
// 006   ----------------------------------------
	BYTE	W96
// 007   ----------------------------------------
	BYTE	W96
// 008   ----------------------------------------
	BYTE	W96
// 009   ----------------------------------------
	BYTE	W96
// 010   ----------------------------------------
	BYTE	W96
// 011   ----------------------------------------
	BYTE	W96
// 012   ----------------------------------------
	BYTE	W96
// 013   ----------------------------------------
	BYTE	W96
// 014   ----------------------------------------
	BYTE	W96
// 015   ----------------------------------------
	BYTE	W96
// 016   ----------------------------------------
	BYTE	W96
// 017   ----------------------------------------
	BYTE		N32     Gn3   v080
	BYTE	W36
	BYTE		N11     Fn3 
	BYTE	W12
	BYTE		        Ds3 
	BYTE	W12
	BYTE		        Cs3 
	BYTE	W12
	BYTE		        Cn3 
	BYTE	W12
	BYTE		        Cs3 
	BYTE	W12
// 018   ----------------------------------------
	BYTE		N42     Ds3   v088
	BYTE	W48
	BYTE		TIE     Fn3   v100
	BYTE	W48
// 019   ----------------------------------------
	BYTE	W66
	BYTE		EOT   
	BYTE	W06
	BYTE		N05     Fn3   v127
	BYTE	W06
	BYTE		        Gn3 
	BYTE	W06
	BYTE		        Gs3 
	BYTE	W06
	BYTE		        As3 
	BYTE	W06
// 020   ----------------------------------------
	BYTE		N42     Cn4 
	BYTE	W48
	BYTE		N15     Ds4 
	BYTE	W16
	BYTE		        Cs4 
	BYTE	W16
	BYTE		        Cn4 
	BYTE	W16
// 021   ----------------------------------------
	BYTE		N32     As3 
	BYTE	W36
	BYTE		N11     Gs3 
	BYTE	W12
	BYTE		N20     Gn3 
	BYTE	W24
	BYTE		N05     Fn3 
	BYTE	W06
	BYTE		        Gn3 
	BYTE	W06
	BYTE		        Gs3 
	BYTE	W06
	BYTE		        As3 
	BYTE	W06
// 022   ----------------------------------------
	BYTE		N42     Cn4 
	BYTE	W48
	BYTE		N15     Cs4 
	BYTE	W16
	BYTE		        Ds4 
	BYTE	W16
	BYTE		        Fn4 
	BYTE	W16
// 023   ----------------------------------------
	BYTE		N32     Ds4 
	BYTE	W36
	BYTE		N11     Cs4 
	BYTE	W12
	BYTE		N15     Cn4 
	BYTE	W16
	BYTE		        As3 
	BYTE	W16
	BYTE		        Gn3 
	BYTE	W16
// 024   ----------------------------------------
	BYTE		N32     Gs3 
	BYTE	W36
	BYTE		N11     Gn3 
	BYTE	W12
	BYTE		N04     Fn3 
	BYTE	W12
	BYTE		        Cn3 
	BYTE	W12
	BYTE		        Fn3 
	BYTE	W06
	BYTE		N11     Gs3 
	BYTE	W12
	BYTE		N36     Gn3 
	BYTE	W06
// 025   ----------------------------------------
	BYTE	W36
	BYTE		N11     Gs3 
	BYTE	W12
	BYTE		N15     As3 
	BYTE	W16
	BYTE		        Gs3 
	BYTE	W16
	BYTE		        Gn3 
	BYTE	W16
// 026   ----------------------------------------
	BYTE		N42     Fn3 
	BYTE	W48
	BYTE		        Gs3 
	BYTE	W48
// 027   ----------------------------------------
	BYTE		        Gn3 
	BYTE	W48
	BYTE		        Ds3 
	BYTE	W48
// 028   ----------------------------------------
	BYTE		N90     Fn3 
	BYTE	W96
// 029   ----------------------------------------
	BYTE	W96
// 030   ----------------------------------------
	BYTE	W96
// 031   ----------------------------------------
	BYTE	W96
	BYTE	GoTo
	 POIN2	ToniSong_11_B1
ToniSong_11_B2:
// 032   ----------------------------------------
	BYTE	W96
// 033   ----------------------------------------
	BYTE	W96
// 034   ----------------------------------------
	BYTE	W96
// 035   ----------------------------------------
	BYTE	W96
// 036   ----------------------------------------
	BYTE	W96
// 037   ----------------------------------------
	BYTE	W96
// 038   ----------------------------------------
	BYTE	W96
// 039   ----------------------------------------
	BYTE	W96
// 040   ----------------------------------------
	BYTE	W96
// 041   ----------------------------------------
	BYTE	W96
// 042   ----------------------------------------
	BYTE	W96
// 043   ----------------------------------------
	BYTE	W96
// 044   ----------------------------------------
	BYTE	W96
// 045   ----------------------------------------
	BYTE	W96
// 046   ----------------------------------------
	BYTE	W96
// 047   ----------------------------------------
	BYTE	W96
// 048   ----------------------------------------
	BYTE	W96
// 049   ----------------------------------------
	BYTE	W96
// 050   ----------------------------------------
	BYTE	W96
// 051   ----------------------------------------
	BYTE	W96
// 052   ----------------------------------------
	BYTE	W96
// 053   ----------------------------------------
	BYTE	W96
// 054   ----------------------------------------
	BYTE	W96
// 055   ----------------------------------------
	BYTE	W96
// 056   ----------------------------------------
	BYTE	W48
	BYTE	FINE

//******************************************************//
	ALIGN 4

ToniSong:
	BYTE	11	// NumTrks
	BYTE	0	// NumBlks
	BYTE	ToniSong_pri	// Priority
	BYTE	ToniSong_rev	// Reverb.

	POIN2	ToniSong_grp

	POIN2	ToniSong_1
	POIN2	ToniSong_2
	POIN2	ToniSong_3
	POIN2	ToniSong_4
	POIN2	ToniSong_5
	POIN2	ToniSong_6
	POIN2	ToniSong_7
	POIN2	ToniSong_8
	POIN2	ToniSong_9
	POIN2	ToniSong_10
	POIN2	ToniSong_11

	
