	.include "MPlayDef.s"

	.equ	feb20260402153456_grp, voicegroup000
	.equ	feb20260402153456_pri, 0
	.equ	feb20260402153456_rev, 0
	.equ	feb20260402153456_mvl, 33
	.equ	feb20260402153456_key, 0
	.equ	feb20260402153456_tbs, 1
	.equ	feb20260402153456_exg, 0
	.equ	feb20260402153456_cmp, 1

	.section .rodata
	.global	feb20260402153456
	.align	2

@**************** Track 1 (Midi-Chn.1) ****************@

feb20260402153456_1:
	.byte	KEYSH , feb20260402153456_key+0
feb20260402153456_1_B1:
@ 000   ----------------------------------------
	.byte	TEMPO , 105*feb20260402153456_tbs/2
	.byte		VOICE , 1
	.byte		MODT  , 0
	.byte		LFOS  , 44
	.byte		PAN   , c_v+33
	.byte		VOL   , 127*feb20260402153456_mvl/mxv
	.byte	W96
@ 001   ----------------------------------------
	.byte	W96
@ 002   ----------------------------------------
	.byte	W96
@ 003   ----------------------------------------
	.byte	W96
@ 004   ----------------------------------------
	.byte	W96
@ 005   ----------------------------------------
	.byte	W96
@ 006   ----------------------------------------
	.byte	W96
@ 007   ----------------------------------------
	.byte	W96
@ 008   ----------------------------------------
	.byte	W96
@ 009   ----------------------------------------
	.byte	W96
@ 010   ----------------------------------------
	.byte	W96
@ 011   ----------------------------------------
	.byte	W96
@ 012   ----------------------------------------
	.byte	W96
@ 013   ----------------------------------------
	.byte	W96
@ 014   ----------------------------------------
	.byte	W96
@ 015   ----------------------------------------
	.byte	W96
@ 016   ----------------------------------------
	.byte	W96
@ 017   ----------------------------------------
	.byte	W96
@ 018   ----------------------------------------
	.byte	W96
@ 019   ----------------------------------------
	.byte	W96
@ 020   ----------------------------------------
	.byte	W96
@ 021   ----------------------------------------
	.byte	W96
@ 022   ----------------------------------------
	.byte	W96
@ 023   ----------------------------------------
	.byte	W96
@ 024   ----------------------------------------
	.byte	W96
@ 025   ----------------------------------------
	.byte	W96
@ 026   ----------------------------------------
	.byte	W96
@ 027   ----------------------------------------
	.byte	W96
@ 028   ----------------------------------------
	.byte	W96
@ 029   ----------------------------------------
	.byte	W96
@ 030   ----------------------------------------
	.byte	W96
@ 031   ----------------------------------------
	.byte	W72
	.byte		N05   , Fn3 , v127
	.byte	W06
	.byte		        Gn3 
	.byte	W06
	.byte		        Gs3 
	.byte	W06
	.byte		        As3 
	.byte	W06
	.byte	GOTO
	 .word	feb20260402153456_1_B1
feb20260402153456_1_B2:
@ 032   ----------------------------------------
	.byte		N42   , Cn4 , v127
	.byte	W48
	.byte		N15   , Ds4 
	.byte	W16
	.byte		        Cs4 
	.byte	W16
	.byte		        Cn4 
	.byte	W16
@ 033   ----------------------------------------
	.byte		N32   , As3 
	.byte	W36
	.byte		N11   , Gs3 
	.byte	W12
	.byte		N20   , Gn3 
	.byte	W24
	.byte		N05   , Fn3 
	.byte	W06
	.byte		        Gn3 
	.byte	W06
	.byte		        Gs3 
	.byte	W06
	.byte		        As3 
	.byte	W06
@ 034   ----------------------------------------
	.byte		N42   , Cn4 
	.byte	W48
	.byte		N15   , Cs4 
	.byte	W16
	.byte		        Ds4 
	.byte	W16
	.byte		        Fn4 
	.byte	W16
@ 035   ----------------------------------------
	.byte		N32   , Ds4 
	.byte	W36
	.byte		N11   , Cs4 
	.byte	W12
	.byte		N15   , Cn4 
	.byte	W16
	.byte		        As3 
	.byte	W16
	.byte		        Gn3 
	.byte	W16
@ 036   ----------------------------------------
	.byte		N32   , Gs3 
	.byte	W36
	.byte		N11   , Gn3 
	.byte	W12
	.byte		N04   , Fn3 
	.byte	W12
	.byte		        Cn3 
	.byte	W12
	.byte		        Fn3 
	.byte	W06
	.byte		N11   , Gs3 
	.byte	W12
	.byte		N36   , Gn3 
	.byte	W06
@ 037   ----------------------------------------
	.byte	W36
	.byte		N11   , Gs3 
	.byte	W12
	.byte		N15   , As3 
	.byte	W16
	.byte		        Gs3 
	.byte	W16
	.byte		        Gn3 
	.byte	W16
@ 038   ----------------------------------------
	.byte		N42   , Fn3 
	.byte	W48
	.byte		        Gs3 
	.byte	W48
@ 039   ----------------------------------------
	.byte		        Gn3 
	.byte	W48
	.byte		        Ds3 
	.byte	W48
@ 040   ----------------------------------------
	.byte		N90   , Fn3 
	.byte	W96
@ 041   ----------------------------------------
	.byte	W96
@ 042   ----------------------------------------
	.byte	W96
@ 043   ----------------------------------------
	.byte	W96
@ 044   ----------------------------------------
	.byte	W96
@ 045   ----------------------------------------
	.byte	W96
@ 046   ----------------------------------------
	.byte	W96
@ 047   ----------------------------------------
	.byte	W96
@ 048   ----------------------------------------
	.byte	W96
@ 049   ----------------------------------------
	.byte	W96
@ 050   ----------------------------------------
	.byte	W96
@ 051   ----------------------------------------
	.byte	W96
@ 052   ----------------------------------------
	.byte	W96
@ 053   ----------------------------------------
	.byte	W96
@ 054   ----------------------------------------
	.byte	W96
@ 055   ----------------------------------------
	.byte	W96
@ 056   ----------------------------------------
	.byte	W48
	.byte	FINE

@**************** Track 2 (Midi-Chn.2) ****************@

feb20260402153456_2:
	.byte	KEYSH , feb20260402153456_key+0
feb20260402153456_2_B1:
@ 000   ----------------------------------------
	.byte		VOICE , 60
	.byte		MODT  , 0
	.byte		LFOS  , 44
	.byte		VOL   , 127*feb20260402153456_mvl/mxv
	.byte		PAN   , c_v-32
	.byte	W96
@ 001   ----------------------------------------
	.byte	W96
@ 002   ----------------------------------------
	.byte	W96
@ 003   ----------------------------------------
	.byte	W96
@ 004   ----------------------------------------
feb20260402153456_2_004:
	.byte		N42   , Gs3 , v100
	.byte	W48
	.byte		N20   , As3 
	.byte	W30
	.byte		N04   , Gn3 
	.byte	W12
	.byte		N10   
	.byte	W06
	.byte	PEND
@ 005   ----------------------------------------
	.byte	W12
	.byte		N04   , Gs3 
	.byte	W84
@ 006   ----------------------------------------
	.byte	PATT
	 .word	feb20260402153456_2_004
@ 007   ----------------------------------------
	.byte	W12
	.byte		N04   , Gs3 , v100
	.byte	W84
@ 008   ----------------------------------------
feb20260402153456_2_008:
	.byte		N24   , Fn3 , v100
	.byte	W24
	.byte		        Cn4 
	.byte	W24
	.byte		        As3 
	.byte	W24
	.byte		        Ds4 
	.byte	W24
	.byte	PEND
@ 009   ----------------------------------------
feb20260402153456_2_009:
	.byte		N24   , Cn4 , v100
	.byte	W24
	.byte		        As3 
	.byte	W24
	.byte		        Gs3 
	.byte	W24
	.byte		N06   , Gn3 
	.byte	W06
	.byte		N04   
	.byte	W12
	.byte		N10   
	.byte	W06
	.byte	PEND
@ 010   ----------------------------------------
feb20260402153456_2_010:
	.byte	W12
	.byte		N04   , Gs3 , v100
	.byte	W66
	.byte		        Gn3 
	.byte	W12
	.byte		N10   
	.byte	W06
	.byte	PEND
@ 011   ----------------------------------------
	.byte	W12
	.byte		N04   , Gs3 
	.byte	W84
@ 012   ----------------------------------------
	.byte	PATT
	 .word	feb20260402153456_2_004
@ 013   ----------------------------------------
	.byte	W12
	.byte		N04   , Gs3 , v100
	.byte	W84
@ 014   ----------------------------------------
	.byte	PATT
	 .word	feb20260402153456_2_004
@ 015   ----------------------------------------
	.byte	W12
	.byte		N04   , Gs3 , v100
	.byte	W84
@ 016   ----------------------------------------
	.byte	PATT
	 .word	feb20260402153456_2_008
@ 017   ----------------------------------------
	.byte	PATT
	 .word	feb20260402153456_2_009
@ 018   ----------------------------------------
	.byte	PATT
	 .word	feb20260402153456_2_010
@ 019   ----------------------------------------
	.byte	W12
	.byte		N04   , Gs3 , v100
	.byte	W84
@ 020   ----------------------------------------
feb20260402153456_2_020:
	.byte		N42   , Ds3 , v100
	.byte	W48
	.byte		        Gs3 
	.byte	W48
	.byte	PEND
@ 021   ----------------------------------------
feb20260402153456_2_021:
	.byte		N42   , Gn3 , v100
	.byte	W48
	.byte		        Ds3 
	.byte	W48
	.byte	PEND
@ 022   ----------------------------------------
feb20260402153456_2_022:
	.byte		N42   , Fn3 , v100
	.byte	W48
	.byte		        Cn3 
	.byte	W48
	.byte	PEND
@ 023   ----------------------------------------
feb20260402153456_2_023:
	.byte		N42   , Ds3 , v100
	.byte	W48
	.byte		        Cn3 
	.byte	W48
	.byte	PEND
@ 024   ----------------------------------------
feb20260402153456_2_024:
	.byte		N42   , Cs3 , v100
	.byte	W48
	.byte		        Fn3 
	.byte	W48
	.byte	PEND
@ 025   ----------------------------------------
feb20260402153456_2_025:
	.byte		N42   , Gn3 , v100
	.byte	W48
	.byte		        As3 
	.byte	W48
	.byte	PEND
@ 026   ----------------------------------------
feb20260402153456_2_026:
	.byte		N42   , Gs3 , v100
	.byte	W48
	.byte		        Fn3 
	.byte	W48
	.byte	PEND
@ 027   ----------------------------------------
feb20260402153456_2_027:
	.byte		N42   , Ds3 , v100
	.byte	W48
	.byte		        Gn3 
	.byte	W48
	.byte	PEND
@ 028   ----------------------------------------
	.byte	PATT
	 .word	feb20260402153456_2_004
@ 029   ----------------------------------------
	.byte	W12
	.byte		N04   , Gs3 , v100
	.byte	W84
@ 030   ----------------------------------------
	.byte	PATT
	 .word	feb20260402153456_2_004
@ 031   ----------------------------------------
	.byte	W12
	.byte		N04   , Gs3 , v100
	.byte	W84
	.byte	GOTO
	 .word	feb20260402153456_2_B1
feb20260402153456_2_B2:
@ 032   ----------------------------------------
	.byte	PATT
	 .word	feb20260402153456_2_020
@ 033   ----------------------------------------
	.byte	PATT
	 .word	feb20260402153456_2_021
@ 034   ----------------------------------------
	.byte	PATT
	 .word	feb20260402153456_2_022
@ 035   ----------------------------------------
	.byte	PATT
	 .word	feb20260402153456_2_023
@ 036   ----------------------------------------
	.byte	PATT
	 .word	feb20260402153456_2_024
@ 037   ----------------------------------------
	.byte	PATT
	 .word	feb20260402153456_2_025
@ 038   ----------------------------------------
	.byte	PATT
	 .word	feb20260402153456_2_026
@ 039   ----------------------------------------
	.byte	PATT
	 .word	feb20260402153456_2_027
@ 040   ----------------------------------------
	.byte	PATT
	 .word	feb20260402153456_2_004
@ 041   ----------------------------------------
	.byte	W12
	.byte		N04   , Gs3 , v100
	.byte	W84
@ 042   ----------------------------------------
	.byte	PATT
	 .word	feb20260402153456_2_004
@ 043   ----------------------------------------
	.byte	W12
	.byte		N04   , Gs3 , v100
	.byte	W84
@ 044   ----------------------------------------
	.byte	W96
@ 045   ----------------------------------------
	.byte	W96
@ 046   ----------------------------------------
	.byte	W96
@ 047   ----------------------------------------
	.byte	W96
@ 048   ----------------------------------------
	.byte	W96
@ 049   ----------------------------------------
	.byte	W96
@ 050   ----------------------------------------
	.byte	W96
@ 051   ----------------------------------------
	.byte	W96
@ 052   ----------------------------------------
	.byte	W96
@ 053   ----------------------------------------
	.byte	W96
@ 054   ----------------------------------------
	.byte	W96
@ 055   ----------------------------------------
	.byte	W96
@ 056   ----------------------------------------
	.byte	W48
	.byte	FINE

@**************** Track 3 (Midi-Chn.3) ****************@

feb20260402153456_3:
	.byte	KEYSH , feb20260402153456_key+0
feb20260402153456_3_B1:
@ 000   ----------------------------------------
	.byte		VOICE , 61
	.byte		MODT  , 0
	.byte		LFOS  , 44
	.byte		VOL   , 119*feb20260402153456_mvl/mxv
	.byte		PAN   , c_v+32
	.byte	W96
@ 001   ----------------------------------------
	.byte	W96
@ 002   ----------------------------------------
	.byte	W96
@ 003   ----------------------------------------
	.byte	W96
@ 004   ----------------------------------------
feb20260402153456_3_004:
	.byte	W78
	.byte		N04   , As2 , v100
	.byte		N04   , Ds3 
	.byte		N04   , Gn3 
	.byte	W12
	.byte		N10   , As2 
	.byte		N10   , Ds3 
	.byte		N10   , Gn3 
	.byte	W06
	.byte	PEND
@ 005   ----------------------------------------
feb20260402153456_3_005:
	.byte	W12
	.byte		N04   , Cn3 , v100
	.byte		N04   , Fn3 
	.byte		N04   , Gs3 
	.byte	W84
	.byte	PEND
@ 006   ----------------------------------------
	.byte	PATT
	 .word	feb20260402153456_3_004
@ 007   ----------------------------------------
	.byte	PATT
	 .word	feb20260402153456_3_005
@ 008   ----------------------------------------
feb20260402153456_3_008:
	.byte		N90   , As2 , v100
	.byte		N90   , Cs3 
	.byte		N90   , Fn3 
	.byte	W96
	.byte	PEND
@ 009   ----------------------------------------
feb20260402153456_3_009:
	.byte		N76   , As2 , v100
	.byte		N76   , Ds3 
	.byte		N76   , Gn3 
	.byte	W78
	.byte		N04   , As2 
	.byte		N04   , Ds3 
	.byte		N04   , Gn3 
	.byte	W12
	.byte		N10   , As2 
	.byte		N10   , Ds3 
	.byte		N10   , Gn3 
	.byte	W06
	.byte	PEND
@ 010   ----------------------------------------
feb20260402153456_3_010:
	.byte	W12
	.byte		N04   , Cn3 , v100
	.byte		N04   , Fn3 
	.byte		N04   , Gs3 
	.byte	W66
	.byte		        As2 
	.byte		N04   , Ds3 
	.byte		N04   , Gn3 
	.byte	W12
	.byte		N10   , As2 
	.byte		N10   , Ds3 
	.byte		N10   , Gn3 
	.byte	W06
	.byte	PEND
@ 011   ----------------------------------------
	.byte	PATT
	 .word	feb20260402153456_3_005
@ 012   ----------------------------------------
	.byte	PATT
	 .word	feb20260402153456_3_004
@ 013   ----------------------------------------
	.byte	PATT
	 .word	feb20260402153456_3_005
@ 014   ----------------------------------------
	.byte	PATT
	 .word	feb20260402153456_3_004
@ 015   ----------------------------------------
	.byte	PATT
	 .word	feb20260402153456_3_005
@ 016   ----------------------------------------
	.byte	PATT
	 .word	feb20260402153456_3_008
@ 017   ----------------------------------------
	.byte	PATT
	 .word	feb20260402153456_3_009
@ 018   ----------------------------------------
	.byte	PATT
	 .word	feb20260402153456_3_010
@ 019   ----------------------------------------
	.byte	PATT
	 .word	feb20260402153456_3_005
@ 020   ----------------------------------------
feb20260402153456_3_020:
	.byte	W72
	.byte		N04   , Ds3 , v100
	.byte	W12
	.byte		N04   
	.byte		N04   , Gs3 
	.byte		N04   , Cn4 
	.byte	W06
	.byte		        Ds3 
	.byte		N04   , Gs3 
	.byte		N04   , Cn4 
	.byte	W06
	.byte	PEND
@ 021   ----------------------------------------
feb20260402153456_3_021:
	.byte	W72
	.byte		N04   , Ds3 , v100
	.byte	W12
	.byte		N04   
	.byte		N04   , Gn3 
	.byte		N04   , As3 
	.byte	W06
	.byte		        Ds3 
	.byte		N04   , Gn3 
	.byte		N04   , As3 
	.byte	W06
	.byte	PEND
@ 022   ----------------------------------------
feb20260402153456_3_022:
	.byte	W72
	.byte		N04   , Fn3 , v100
	.byte	W12
	.byte		N04   
	.byte		N04   , Gs3 
	.byte		N04   , Cn4 
	.byte	W06
	.byte		        Fn3 
	.byte		N04   , Gs3 
	.byte		N04   , Cn4 
	.byte	W06
	.byte	PEND
@ 023   ----------------------------------------
feb20260402153456_3_023:
	.byte	W36
	.byte		N04   , Ds3 , v100
	.byte	W06
	.byte		N04   
	.byte		N04   , Gn3 
	.byte	W06
	.byte		        Ds3 
	.byte		N04   , Gn3 
	.byte		N04   , Cn4 
	.byte	W06
	.byte		        Ds3 
	.byte		N04   , Gn3 
	.byte		N04   , Cn4 
	.byte	W12
	.byte		N06   , Ds3 
	.byte		N06   , Gn3 
	.byte		N06   , Cn4 
	.byte	W18
	.byte		N04   , Ds3 
	.byte		N04   , Gn3 
	.byte		N04   , Cn4 
	.byte	W12
	.byte	PEND
@ 024   ----------------------------------------
feb20260402153456_3_024:
	.byte	W72
	.byte		N04   , Cs3 , v100
	.byte	W12
	.byte		N04   
	.byte		N04   , Fn3 
	.byte		N04   , Gs3 
	.byte	W06
	.byte		        Cs3 
	.byte		N04   , Fn3 
	.byte		N04   , Gs3 
	.byte	W06
	.byte	PEND
@ 025   ----------------------------------------
	.byte	PATT
	 .word	feb20260402153456_3_021
@ 026   ----------------------------------------
	.byte	PATT
	 .word	feb20260402153456_3_022
@ 027   ----------------------------------------
	.byte	PATT
	 .word	feb20260402153456_3_023
@ 028   ----------------------------------------
	.byte	PATT
	 .word	feb20260402153456_3_004
@ 029   ----------------------------------------
	.byte	PATT
	 .word	feb20260402153456_3_005
@ 030   ----------------------------------------
	.byte	PATT
	 .word	feb20260402153456_3_004
@ 031   ----------------------------------------
	.byte	PATT
	 .word	feb20260402153456_3_005
	.byte	GOTO
	 .word	feb20260402153456_3_B1
feb20260402153456_3_B2:
@ 032   ----------------------------------------
	.byte	PATT
	 .word	feb20260402153456_3_020
@ 033   ----------------------------------------
	.byte	PATT
	 .word	feb20260402153456_3_021
@ 034   ----------------------------------------
	.byte	PATT
	 .word	feb20260402153456_3_022
@ 035   ----------------------------------------
	.byte	PATT
	 .word	feb20260402153456_3_023
@ 036   ----------------------------------------
	.byte	PATT
	 .word	feb20260402153456_3_024
@ 037   ----------------------------------------
	.byte	PATT
	 .word	feb20260402153456_3_021
@ 038   ----------------------------------------
	.byte	PATT
	 .word	feb20260402153456_3_022
@ 039   ----------------------------------------
	.byte	PATT
	 .word	feb20260402153456_3_023
@ 040   ----------------------------------------
	.byte	PATT
	 .word	feb20260402153456_3_004
@ 041   ----------------------------------------
	.byte	PATT
	 .word	feb20260402153456_3_005
@ 042   ----------------------------------------
	.byte	PATT
	 .word	feb20260402153456_3_004
@ 043   ----------------------------------------
	.byte	PATT
	 .word	feb20260402153456_3_005
@ 044   ----------------------------------------
	.byte	W96
@ 045   ----------------------------------------
	.byte	W96
@ 046   ----------------------------------------
	.byte	W96
@ 047   ----------------------------------------
	.byte	W96
@ 048   ----------------------------------------
	.byte	W96
@ 049   ----------------------------------------
	.byte	W96
@ 050   ----------------------------------------
	.byte	W96
@ 051   ----------------------------------------
	.byte	W96
@ 052   ----------------------------------------
	.byte	W96
@ 053   ----------------------------------------
	.byte	W96
@ 054   ----------------------------------------
	.byte	W96
@ 055   ----------------------------------------
	.byte	W96
@ 056   ----------------------------------------
	.byte	W48
	.byte	FINE

@**************** Track 4 (Midi-Chn.4) ****************@

feb20260402153456_4:
	.byte	KEYSH , feb20260402153456_key+0
feb20260402153456_4_B1:
@ 000   ----------------------------------------
	.byte		VOICE , 48
	.byte		MODT  , 0
	.byte		LFOS  , 44
	.byte		VOL   , 127*feb20260402153456_mvl/mxv
	.byte		PAN   , c_v-17
	.byte	W96
@ 001   ----------------------------------------
	.byte	W96
@ 002   ----------------------------------------
	.byte	W96
@ 003   ----------------------------------------
	.byte	W96
@ 004   ----------------------------------------
	.byte	W96
@ 005   ----------------------------------------
	.byte	W36
	.byte		N05   , Cn3 , v127
	.byte	W06
	.byte		        Ds3 
	.byte	W06
	.byte		N04   , Fn3 
	.byte	W12
	.byte		        Cn3 
	.byte	W12
	.byte		        Fn3 
	.byte	W06
	.byte		        Gs3 
	.byte	W12
	.byte		N48   , Gn3 
	.byte	W06
@ 006   ----------------------------------------
feb20260402153456_4_006:
	.byte	W48
	.byte		N28   , Ds3 , v127
	.byte	W30
	.byte		N05   , Cs3 
	.byte	W06
	.byte		        Cn3 
	.byte	W06
	.byte		        Cs3 
	.byte	W06
	.byte	PEND
@ 007   ----------------------------------------
	.byte		N90   , Ds3 
	.byte	W96
@ 008   ----------------------------------------
feb20260402153456_4_008:
	.byte		N32   , Cs3 , v127
	.byte	W36
	.byte		N11   , Ds3 
	.byte	W12
	.byte		        Fn3 
	.byte	W12
	.byte		        Cs3 
	.byte	W12
	.byte		        Fn3 
	.byte	W12
	.byte		        Gs3 
	.byte	W12
	.byte	PEND
@ 009   ----------------------------------------
feb20260402153456_4_009:
	.byte		N32   , Gn3 , v127
	.byte	W36
	.byte		N11   , Fn3 
	.byte	W12
	.byte		        Ds3 
	.byte	W12
	.byte		        Cs3 
	.byte	W12
	.byte		        Cn3 
	.byte	W12
	.byte		        Cs3 
	.byte	W12
	.byte	PEND
@ 010   ----------------------------------------
	.byte		VOL   , 127*feb20260402153456_mvl/mxv
	.byte		PAN   , c_v-17
	.byte		N20   , Ds3 
	.byte	W24
	.byte		N05   
	.byte	W06
	.byte		N05   
	.byte	W06
	.byte		        Fn3 
	.byte	W06
	.byte		N17   , Ds3 
	.byte	W18
	.byte		N04   , Cs3 
	.byte	W12
	.byte		        As2 
	.byte	W12
	.byte		        Cs3 
	.byte	W12
@ 011   ----------------------------------------
	.byte		N11   , Ds3 
	.byte	W12
	.byte		N04   , Fn3 
	.byte	W06
	.byte		N66   
	.byte	W78
@ 012   ----------------------------------------
	.byte	W96
@ 013   ----------------------------------------
	.byte		PAN   , c_v-17
	.byte		VOL   , 127*feb20260402153456_mvl/mxv
	.byte	W36
	.byte		N05   , Cn3 
	.byte	W06
	.byte		        Ds3 
	.byte	W06
	.byte		N04   , Fn3 
	.byte	W12
	.byte		        Cn3 
	.byte	W12
	.byte		        Fn3 
	.byte	W06
	.byte		        Gs3 
	.byte	W12
	.byte		N48   , Gn3 
	.byte	W06
@ 014   ----------------------------------------
	.byte	PATT
	 .word	feb20260402153456_4_006
@ 015   ----------------------------------------
	.byte		N90   , Ds3 , v127
	.byte	W96
@ 016   ----------------------------------------
	.byte	PATT
	 .word	feb20260402153456_4_008
@ 017   ----------------------------------------
	.byte	PATT
	 .word	feb20260402153456_4_009
@ 018   ----------------------------------------
	.byte		N42   , Ds3 , v127
	.byte	W48
	.byte		TIE   , Fn3 
	.byte	W48
@ 019   ----------------------------------------
	.byte	W66
	.byte		EOT   
	.byte	W30
@ 020   ----------------------------------------
	.byte	W96
@ 021   ----------------------------------------
	.byte	W96
@ 022   ----------------------------------------
	.byte	W96
@ 023   ----------------------------------------
	.byte	W96
@ 024   ----------------------------------------
	.byte	W96
@ 025   ----------------------------------------
	.byte	W96
@ 026   ----------------------------------------
feb20260402153456_4_026:
	.byte		N42   , Fn3 , v127
	.byte	W48
	.byte		        Gs3 
	.byte	W48
	.byte	PEND
@ 027   ----------------------------------------
feb20260402153456_4_027:
	.byte		N42   , Gn3 , v127
	.byte	W48
	.byte		        Ds3 
	.byte	W48
	.byte	PEND
@ 028   ----------------------------------------
	.byte		N90   , Fn3 
	.byte	W96
@ 029   ----------------------------------------
	.byte	W96
@ 030   ----------------------------------------
	.byte	W96
@ 031   ----------------------------------------
	.byte	W72
	.byte		N05   
	.byte	W06
	.byte		        Gn3 
	.byte	W06
	.byte		        Gs3 
	.byte	W06
	.byte		        As3 
	.byte	W06
	.byte	GOTO
	 .word	feb20260402153456_4_B1
feb20260402153456_4_B2:
@ 032   ----------------------------------------
	.byte		N42   , Cn4 , v127
	.byte	W48
	.byte		N15   , Ds4 
	.byte	W16
	.byte		        Cs4 
	.byte	W16
	.byte		        Cn4 
	.byte	W16
@ 033   ----------------------------------------
	.byte		N32   , As3 
	.byte	W36
	.byte		N11   , Gs3 
	.byte	W12
	.byte		N20   , Gn3 
	.byte	W24
	.byte		N05   , Fn3 
	.byte	W06
	.byte		        Gn3 
	.byte	W06
	.byte		        Gs3 
	.byte	W06
	.byte		        As3 
	.byte	W06
@ 034   ----------------------------------------
	.byte		N42   , Cn4 
	.byte	W48
	.byte		N15   , Cs4 
	.byte	W16
	.byte		        Ds4 
	.byte	W16
	.byte		        Fn4 
	.byte	W16
@ 035   ----------------------------------------
	.byte		N32   , Ds4 
	.byte	W36
	.byte		N11   , Cs4 
	.byte	W12
	.byte		N15   , Cn4 
	.byte	W16
	.byte		        As3 
	.byte	W16
	.byte		        Gn3 
	.byte	W16
@ 036   ----------------------------------------
	.byte		N32   , Gs3 
	.byte	W36
	.byte		N11   , Gn3 
	.byte	W12
	.byte		N04   , Fn3 
	.byte	W12
	.byte		        Cn3 
	.byte	W12
	.byte		        Fn3 
	.byte	W06
	.byte		N11   , Gs3 
	.byte	W12
	.byte		N36   , Gn3 
	.byte	W06
@ 037   ----------------------------------------
	.byte	W36
	.byte		N11   , Gs3 
	.byte	W12
	.byte		N15   , As3 
	.byte	W16
	.byte		        Gs3 
	.byte	W16
	.byte		        Gn3 
	.byte	W16
@ 038   ----------------------------------------
	.byte	PATT
	 .word	feb20260402153456_4_026
@ 039   ----------------------------------------
	.byte	PATT
	 .word	feb20260402153456_4_027
@ 040   ----------------------------------------
	.byte		N90   , Fn3 , v127
	.byte	W96
@ 041   ----------------------------------------
	.byte	W96
@ 042   ----------------------------------------
	.byte	W96
@ 043   ----------------------------------------
	.byte	W96
@ 044   ----------------------------------------
	.byte	W96
@ 045   ----------------------------------------
	.byte	W96
@ 046   ----------------------------------------
	.byte	W96
@ 047   ----------------------------------------
	.byte	W96
@ 048   ----------------------------------------
	.byte	W96
@ 049   ----------------------------------------
	.byte	W96
@ 050   ----------------------------------------
	.byte	W96
@ 051   ----------------------------------------
	.byte	W96
@ 052   ----------------------------------------
	.byte	W96
@ 053   ----------------------------------------
	.byte	W96
@ 054   ----------------------------------------
	.byte	W96
@ 055   ----------------------------------------
	.byte	W96
@ 056   ----------------------------------------
	.byte	W48
	.byte	FINE

@**************** Track 5 (Midi-Chn.5) ****************@

feb20260402153456_5:
	.byte	KEYSH , feb20260402153456_key+0
feb20260402153456_5_B1:
@ 000   ----------------------------------------
	.byte		VOICE , 0
	.byte		MODT  , 0
	.byte		LFOS  , 44
	.byte		PAN   , c_v+32
	.byte		VOL   , 127*feb20260402153456_mvl/mxv
	.byte		PAN   , c_v-32
	.byte	W96
@ 001   ----------------------------------------
	.byte	W96
@ 002   ----------------------------------------
	.byte	W96
@ 003   ----------------------------------------
	.byte	W96
@ 004   ----------------------------------------
	.byte	W96
@ 005   ----------------------------------------
	.byte	W96
@ 006   ----------------------------------------
	.byte	W96
@ 007   ----------------------------------------
	.byte	W96
@ 008   ----------------------------------------
	.byte	W96
@ 009   ----------------------------------------
	.byte	W96
@ 010   ----------------------------------------
	.byte	W96
@ 011   ----------------------------------------
	.byte	W96
@ 012   ----------------------------------------
feb20260402153456_5_012:
	.byte	W12
	.byte		N05   , Gs3 , v076
	.byte		N05   , Cn4 
	.byte		N05   , Fn4 
	.byte	W06
	.byte		        Gs3 
	.byte		N05   , Cn4 
	.byte		N05   , Fn4 
	.byte	W18
	.byte		        Cn4 
	.byte		N05   , Fn4 
	.byte		N05   , Gs4 
	.byte	W06
	.byte		        Cn4 
	.byte		N05   , Fn4 
	.byte		N05   , Gs4 
	.byte	W18
	.byte		        Gs3 
	.byte		N05   , Cn4 
	.byte		N05   , Fn4 
	.byte	W06
	.byte		        Cn4 
	.byte		N05   , Fn4 
	.byte		N05   , Gs4 
	.byte	W06
	.byte		        Gn3 
	.byte		N05   , As3 
	.byte		N05   , Ds4 
	.byte	W06
	.byte		        As3 
	.byte		N05   , Ds4 
	.byte		N05   , Gn4 
	.byte	W06
	.byte		N11   , Gn3 
	.byte		N11   , As3 
	.byte		N11   , Ds4 
	.byte	W12
	.byte	PEND
@ 013   ----------------------------------------
feb20260402153456_5_013:
	.byte	W12
	.byte		N05   , Gs3 , v076
	.byte		N05   , Cn4 
	.byte		N05   , Fn4 
	.byte	W06
	.byte		        Gs3 
	.byte		N05   , Cn4 
	.byte		N05   , Fn4 
	.byte	W18
	.byte		        Cn4 
	.byte		N05   , Fn4 
	.byte		N05   , Gs4 
	.byte	W06
	.byte		        Cn4 
	.byte		N05   , Fn4 
	.byte		N05   , Gs4 
	.byte	W18
	.byte		        Gs3 
	.byte		N05   , Cn4 
	.byte		N05   , Fn4 
	.byte	W06
	.byte		        Cn4 
	.byte		N05   , Fn4 
	.byte		N05   , Gs4 
	.byte	W06
	.byte		        Gs3 
	.byte		N05   , Cn4 
	.byte		N05   , Fn4 
	.byte	W06
	.byte		        Cn4 
	.byte		N05   , Fn4 
	.byte		N05   , Gs4 
	.byte	W06
	.byte		N11   , Gs3 
	.byte		N11   , Cn4 
	.byte		N11   , Fn4 
	.byte	W12
	.byte	PEND
@ 014   ----------------------------------------
	.byte	PATT
	 .word	feb20260402153456_5_012
@ 015   ----------------------------------------
	.byte	PATT
	 .word	feb20260402153456_5_013
@ 016   ----------------------------------------
	.byte		N20   , Fn3 , v076
	.byte		N20   , Gs3 
	.byte		N20   , Cs4 
	.byte	W24
	.byte		        Fn3 
	.byte		N20   , Gs3 
	.byte		N20   , Cs4 
	.byte	W24
	.byte		        Fn3 
	.byte		N20   , Gs3 
	.byte		N20   , Cs4 
	.byte	W24
	.byte		        Fn3 
	.byte		N20   , Gs3 
	.byte		N20   , Cs4 
	.byte	W24
@ 017   ----------------------------------------
	.byte		        Gn3 
	.byte		N20   , As3 
	.byte		N20   , Ds4 
	.byte	W24
	.byte		        Gn3 
	.byte		N20   , As3 
	.byte		N20   , Ds4 
	.byte	W24
	.byte		        Gn3 
	.byte		N20   , As3 
	.byte		N20   , Ds4 
	.byte	W24
	.byte		        Gn3 
	.byte		N20   , As3 
	.byte		N20   , Ds4 
	.byte	W24
@ 018   ----------------------------------------
	.byte	PATT
	 .word	feb20260402153456_5_012
@ 019   ----------------------------------------
	.byte	PATT
	 .word	feb20260402153456_5_013
@ 020   ----------------------------------------
	.byte	W96
@ 021   ----------------------------------------
	.byte	W96
@ 022   ----------------------------------------
	.byte	W96
@ 023   ----------------------------------------
	.byte	W96
@ 024   ----------------------------------------
	.byte	W96
@ 025   ----------------------------------------
	.byte	W96
@ 026   ----------------------------------------
	.byte	W96
@ 027   ----------------------------------------
	.byte	W96
@ 028   ----------------------------------------
	.byte	PATT
	 .word	feb20260402153456_5_012
@ 029   ----------------------------------------
	.byte	PATT
	 .word	feb20260402153456_5_013
@ 030   ----------------------------------------
	.byte	PATT
	 .word	feb20260402153456_5_012
@ 031   ----------------------------------------
	.byte	PATT
	 .word	feb20260402153456_5_013
	.byte	GOTO
	 .word	feb20260402153456_5_B1
feb20260402153456_5_B2:
@ 032   ----------------------------------------
	.byte		PAN   , c_v+32
	.byte		VOL   , 127*feb20260402153456_mvl/mxv
	.byte		PAN   , c_v-32
	.byte	W96
@ 033   ----------------------------------------
	.byte	W96
@ 034   ----------------------------------------
	.byte	W96
@ 035   ----------------------------------------
	.byte	W96
@ 036   ----------------------------------------
	.byte	W96
@ 037   ----------------------------------------
	.byte	W96
@ 038   ----------------------------------------
	.byte	W96
@ 039   ----------------------------------------
	.byte	W96
@ 040   ----------------------------------------
	.byte	PATT
	 .word	feb20260402153456_5_012
@ 041   ----------------------------------------
	.byte	PATT
	 .word	feb20260402153456_5_013
@ 042   ----------------------------------------
	.byte	PATT
	 .word	feb20260402153456_5_012
@ 043   ----------------------------------------
	.byte	PATT
	 .word	feb20260402153456_5_013
@ 044   ----------------------------------------
	.byte	W96
@ 045   ----------------------------------------
	.byte	W96
@ 046   ----------------------------------------
	.byte	W96
@ 047   ----------------------------------------
	.byte	W96
@ 048   ----------------------------------------
	.byte	W96
@ 049   ----------------------------------------
	.byte	W96
@ 050   ----------------------------------------
	.byte	W96
@ 051   ----------------------------------------
	.byte	W96
@ 052   ----------------------------------------
	.byte	W96
@ 053   ----------------------------------------
	.byte	W96
@ 054   ----------------------------------------
	.byte	W96
@ 055   ----------------------------------------
	.byte	W96
@ 056   ----------------------------------------
	.byte	W48
	.byte	FINE

@**************** Track 6 (Midi-Chn.6) ****************@

feb20260402153456_6:
	.byte	KEYSH , feb20260402153456_key+0
feb20260402153456_6_B1:
@ 000   ----------------------------------------
	.byte		VOICE , 54
	.byte		MODT  , 0
	.byte		LFOS  , 44
	.byte		PAN   , c_v+0
	.byte		VOL   , 127*feb20260402153456_mvl/mxv
	.byte	W96
@ 001   ----------------------------------------
	.byte	W96
@ 002   ----------------------------------------
	.byte	W96
@ 003   ----------------------------------------
	.byte	W96
@ 004   ----------------------------------------
	.byte	W96
@ 005   ----------------------------------------
	.byte	W96
@ 006   ----------------------------------------
	.byte	W96
@ 007   ----------------------------------------
	.byte	W96
@ 008   ----------------------------------------
	.byte	W96
@ 009   ----------------------------------------
	.byte	W96
@ 010   ----------------------------------------
	.byte	W96
@ 011   ----------------------------------------
	.byte	W96
@ 012   ----------------------------------------
	.byte	W96
@ 013   ----------------------------------------
	.byte	W96
@ 014   ----------------------------------------
	.byte	W96
@ 015   ----------------------------------------
	.byte	W96
@ 016   ----------------------------------------
	.byte	W96
@ 017   ----------------------------------------
	.byte	W96
@ 018   ----------------------------------------
	.byte	W96
@ 019   ----------------------------------------
	.byte	W96
@ 020   ----------------------------------------
feb20260402153456_6_020:
	.byte		N96   , Cn3 , v076
	.byte		TIE   , Ds3 
	.byte		N96   , Gs3 
	.byte	W96
	.byte	PEND
@ 021   ----------------------------------------
	.byte		        As2 
	.byte		N96   , Gn3 
	.byte	W96
	.byte		EOT   , Ds3 
@ 022   ----------------------------------------
feb20260402153456_6_022:
	.byte		N96   , Gs2 , v076
	.byte		TIE   , Cn3 
	.byte		N96   , Fn3 
	.byte	W96
	.byte	PEND
@ 023   ----------------------------------------
	.byte		        Ds3 
	.byte		N96   , Gn3 
	.byte	W96
	.byte		EOT   , Cn3 
@ 024   ----------------------------------------
feb20260402153456_6_024:
	.byte		N96   , Cs3 , v076
	.byte		N96   , Fn3 
	.byte		N96   , Gs3 
	.byte	W96
	.byte	PEND
@ 025   ----------------------------------------
feb20260402153456_6_025:
	.byte		N96   , Ds3 , v076
	.byte		N96   , Gn3 
	.byte		N96   , As3 
	.byte	W96
	.byte	PEND
@ 026   ----------------------------------------
	.byte		        Fn3 
	.byte		N96   , Gs3 
	.byte		TIE   , Cn4 
	.byte	W96
@ 027   ----------------------------------------
	.byte		N90   , Ds3 
	.byte		N90   , Gn3 
	.byte	W90
	.byte		EOT   , Cn4 
	.byte	W06
@ 028   ----------------------------------------
	.byte	W96
@ 029   ----------------------------------------
	.byte	W96
@ 030   ----------------------------------------
	.byte	W96
@ 031   ----------------------------------------
	.byte	W96
	.byte	GOTO
	 .word	feb20260402153456_6_B1
feb20260402153456_6_B2:
@ 032   ----------------------------------------
	.byte	PATT
	 .word	feb20260402153456_6_020
@ 033   ----------------------------------------
	.byte		N96   , As2 , v076
	.byte		N96   , Gn3 
	.byte	W96
	.byte		EOT   , Ds3 
@ 034   ----------------------------------------
	.byte	PATT
	 .word	feb20260402153456_6_022
@ 035   ----------------------------------------
	.byte		N96   , Ds3 , v076
	.byte		N96   , Gn3 
	.byte	W96
	.byte		EOT   , Cn3 
@ 036   ----------------------------------------
	.byte	PATT
	 .word	feb20260402153456_6_024
@ 037   ----------------------------------------
	.byte	PATT
	 .word	feb20260402153456_6_025
@ 038   ----------------------------------------
	.byte		N96   , Fn3 , v076
	.byte		N96   , Gs3 
	.byte	W96
@ 039   ----------------------------------------
	.byte	W96
@ 040   ----------------------------------------
	.byte	W96
@ 041   ----------------------------------------
	.byte	W96
@ 042   ----------------------------------------
	.byte	W96
@ 043   ----------------------------------------
	.byte	W96
@ 044   ----------------------------------------
	.byte	W96
@ 045   ----------------------------------------
	.byte	W96
@ 046   ----------------------------------------
	.byte	W96
@ 047   ----------------------------------------
	.byte	W96
@ 048   ----------------------------------------
	.byte	W96
@ 049   ----------------------------------------
	.byte	W96
@ 050   ----------------------------------------
	.byte	W96
@ 051   ----------------------------------------
	.byte	W96
@ 052   ----------------------------------------
	.byte	W96
@ 053   ----------------------------------------
	.byte	W96
@ 054   ----------------------------------------
	.byte	W96
@ 055   ----------------------------------------
	.byte	W96
@ 056   ----------------------------------------
	.byte	W48
	.byte	FINE

@**************** Track 7 (Midi-Chn.7) ****************@

feb20260402153456_7:
	.byte	KEYSH , feb20260402153456_key+0
feb20260402153456_7_B1:
@ 000   ----------------------------------------
	.byte		VOICE , 50
	.byte		MODT  , 0
	.byte		LFOS  , 44
	.byte		VOL   , 108*feb20260402153456_mvl/mxv
	.byte		PAN   , c_v-11
	.byte	W96
@ 001   ----------------------------------------
	.byte	W96
@ 002   ----------------------------------------
	.byte	W96
@ 003   ----------------------------------------
	.byte	W96
@ 004   ----------------------------------------
	.byte	W96
@ 005   ----------------------------------------
	.byte	W96
@ 006   ----------------------------------------
	.byte	W96
@ 007   ----------------------------------------
	.byte	W96
@ 008   ----------------------------------------
	.byte	W96
@ 009   ----------------------------------------
	.byte	W96
@ 010   ----------------------------------------
	.byte	W96
@ 011   ----------------------------------------
	.byte	W96
@ 012   ----------------------------------------
	.byte	W96
@ 013   ----------------------------------------
	.byte	W96
@ 014   ----------------------------------------
	.byte	W96
@ 015   ----------------------------------------
	.byte	W96
@ 016   ----------------------------------------
	.byte	W96
@ 017   ----------------------------------------
	.byte	W96
@ 018   ----------------------------------------
	.byte	W96
@ 019   ----------------------------------------
	.byte	W96
@ 020   ----------------------------------------
	.byte		N96   , Gs3 , v076
	.byte	W96
@ 021   ----------------------------------------
	.byte		        Gn3 
	.byte	W96
@ 022   ----------------------------------------
	.byte	W96
@ 023   ----------------------------------------
	.byte		N96   
	.byte	W96
@ 024   ----------------------------------------
	.byte		        Gs3 
	.byte	W96
@ 025   ----------------------------------------
	.byte		        As3 
	.byte	W96
@ 026   ----------------------------------------
	.byte		TIE   , Cn4 
	.byte	W96
@ 027   ----------------------------------------
	.byte	W90
	.byte		EOT   
	.byte	W06
@ 028   ----------------------------------------
	.byte	W96
@ 029   ----------------------------------------
	.byte	W96
@ 030   ----------------------------------------
	.byte	W96
@ 031   ----------------------------------------
	.byte	W96
	.byte	GOTO
	 .word	feb20260402153456_7_B1
feb20260402153456_7_B2:
@ 032   ----------------------------------------
	.byte		N96   , Gs3 , v076
	.byte	W96
@ 033   ----------------------------------------
	.byte		        Gn3 
	.byte	W96
@ 034   ----------------------------------------
	.byte	W96
@ 035   ----------------------------------------
	.byte		N96   
	.byte	W96
@ 036   ----------------------------------------
	.byte		        Gs3 
	.byte	W96
@ 037   ----------------------------------------
	.byte		        As3 
	.byte	W96
@ 038   ----------------------------------------
	.byte		TIE   , Cn4 
	.byte	W96
@ 039   ----------------------------------------
	.byte	W90
	.byte		EOT   
	.byte	W06
@ 040   ----------------------------------------
	.byte	W96
@ 041   ----------------------------------------
	.byte	W96
@ 042   ----------------------------------------
	.byte	W96
@ 043   ----------------------------------------
	.byte	W96
@ 044   ----------------------------------------
	.byte	W96
@ 045   ----------------------------------------
	.byte	W96
@ 046   ----------------------------------------
	.byte	W96
@ 047   ----------------------------------------
	.byte	W96
@ 048   ----------------------------------------
	.byte	W96
@ 049   ----------------------------------------
	.byte	W96
@ 050   ----------------------------------------
	.byte	W96
@ 051   ----------------------------------------
	.byte	W96
@ 052   ----------------------------------------
	.byte	W96
@ 053   ----------------------------------------
	.byte	W96
@ 054   ----------------------------------------
	.byte	W96
@ 055   ----------------------------------------
	.byte	W96
@ 056   ----------------------------------------
	.byte	W48
	.byte	FINE

@**************** Track 8 (Midi-Chn.8) ****************@

feb20260402153456_8:
	.byte	KEYSH , feb20260402153456_key+0
feb20260402153456_8_B1:
@ 000   ----------------------------------------
	.byte		VOICE , 124
	.byte		MODT  , 0
	.byte		LFOS  , 44
	.byte		VOL   , 108*feb20260402153456_mvl/mxv
	.byte		PAN   , c_v+0
	.byte		N05   , Bn0 , v127
	.byte		N05   , Cn1 
	.byte		N05   , Fs1 
	.byte	W06
	.byte		N05   
	.byte	W06
	.byte		        Gs1 
	.byte	W06
	.byte		        Fs1 
	.byte	W06
	.byte		        Dn1 
	.byte		N05   , En1 
	.byte		N05   , As1 
	.byte	W06
	.byte		        Gs1 
	.byte	W06
	.byte		N05   
	.byte	W06
	.byte		        Bn0 
	.byte		N05   , Cn1 
	.byte		N05   , Fs1 
	.byte	W06
	.byte		        Bn0 
	.byte		N05   , Cn1 
	.byte		N05   , Fs1 
	.byte	W06
	.byte		N05   
	.byte	W06
	.byte		        Bn0 
	.byte		N05   , Cn1 
	.byte		N05   , Gs1 
	.byte	W06
	.byte		        Fs1 
	.byte	W06
	.byte		        Dn1 
	.byte		N05   , En1 
	.byte		N05   , As1 
	.byte	W06
	.byte		        Gs1 
	.byte	W06
	.byte		        Bn0 
	.byte		N05   , Cn1 
	.byte		N05   , Fs1 
	.byte	W06
	.byte		N05   
	.byte	W06
@ 001   ----------------------------------------
feb20260402153456_8_001:
	.byte		N05   , Bn0 , v127
	.byte		N05   , Cn1 
	.byte		N05   , Fs1 
	.byte	W06
	.byte		N05   
	.byte	W06
	.byte		        Gs1 
	.byte	W06
	.byte		        Fs1 
	.byte	W06
	.byte		        Dn1 
	.byte		N05   , En1 
	.byte		N05   , As1 
	.byte	W06
	.byte		        Gs1 
	.byte	W06
	.byte		N05   
	.byte	W06
	.byte		        Bn0 
	.byte		N05   , Cn1 
	.byte		N05   , Fs1 
	.byte	W06
	.byte		        Bn0 
	.byte		N05   , Cn1 
	.byte		N05   , Fs1 
	.byte	W06
	.byte		N05   
	.byte	W06
	.byte		        Bn0 
	.byte		N05   , Cn1 
	.byte		N05   , Gs1 
	.byte	W06
	.byte		        Fs1 
	.byte	W06
	.byte		        Dn1 
	.byte		N05   , En1 
	.byte		N05   , As1 
	.byte	W06
	.byte		        Gs1 
	.byte	W06
	.byte		        Bn0 
	.byte		N05   , Cn1 
	.byte		N05   , Fs1 
	.byte	W06
	.byte		N05   
	.byte	W06
	.byte	PEND
@ 002   ----------------------------------------
	.byte	PATT
	 .word	feb20260402153456_8_001
@ 003   ----------------------------------------
feb20260402153456_8_003:
	.byte		N05   , Bn0 , v127
	.byte		N05   , Cn1 
	.byte		N05   , Fs1 
	.byte	W06
	.byte		N05   
	.byte	W06
	.byte		        Gs1 
	.byte	W06
	.byte		        Fs1 
	.byte	W06
	.byte		        Dn1 
	.byte		N05   , En1 
	.byte		N05   , As1 
	.byte	W06
	.byte		        Gs1 
	.byte	W06
	.byte		N05   
	.byte	W06
	.byte		        Bn0 
	.byte		N05   , Cn1 
	.byte		N05   , Fs1 
	.byte	W06
	.byte		        Bn0 
	.byte		N05   , Cn1 
	.byte		N05   , Fs1 
	.byte	W06
	.byte		N05   
	.byte	W06
	.byte		        Bn0 
	.byte		N05   , Cn1 
	.byte		N05   , Gs1 
	.byte	W06
	.byte		        Fs1 
	.byte	W06
	.byte		        Dn1 
	.byte		N05   , En1 
	.byte		N05   , As1 
	.byte	W06
	.byte		        Gs1 
	.byte	W06
	.byte		        Bn0 
	.byte		N05   , Cn1 
	.byte		N05   , Fs1 
	.byte	W06
	.byte		        Bn0 
	.byte		N05   , Cn1 
	.byte		N05   , Fs1 
	.byte	W06
	.byte	PEND
@ 004   ----------------------------------------
feb20260402153456_8_004:
	.byte		N05   , Bn0 , v127
	.byte		N05   , Cn1 
	.byte		N05   , Fs1 
	.byte		N05   , An2 
	.byte	W06
	.byte		        Fs1 
	.byte	W06
	.byte		        Gs1 
	.byte	W06
	.byte		        Fs1 
	.byte	W06
	.byte		        Dn1 
	.byte		N05   , En1 
	.byte		N05   , As1 
	.byte	W06
	.byte		        Gs1 
	.byte	W06
	.byte		N05   
	.byte	W06
	.byte		        Bn0 
	.byte		N05   , Cn1 
	.byte		N05   , Fs1 
	.byte	W06
	.byte		        Bn0 
	.byte		N05   , Cn1 
	.byte		N05   , Fs1 
	.byte	W06
	.byte		N05   
	.byte	W06
	.byte		        Bn0 
	.byte		N05   , Cn1 
	.byte		N05   , Gs1 
	.byte	W06
	.byte		        Fs1 
	.byte	W06
	.byte		        Dn1 
	.byte		N05   , En1 
	.byte		N05   , As1 
	.byte	W06
	.byte		        Gs1 
	.byte	W06
	.byte		        Bn0 
	.byte		N05   , Cn1 
	.byte		N05   , Fs1 
	.byte	W06
	.byte		N05   
	.byte	W06
	.byte	PEND
@ 005   ----------------------------------------
	.byte	PATT
	 .word	feb20260402153456_8_001
@ 006   ----------------------------------------
	.byte	PATT
	 .word	feb20260402153456_8_001
@ 007   ----------------------------------------
	.byte	PATT
	 .word	feb20260402153456_8_001
@ 008   ----------------------------------------
	.byte	PATT
	 .word	feb20260402153456_8_001
@ 009   ----------------------------------------
	.byte	PATT
	 .word	feb20260402153456_8_001
@ 010   ----------------------------------------
	.byte	PATT
	 .word	feb20260402153456_8_001
@ 011   ----------------------------------------
	.byte	PATT
	 .word	feb20260402153456_8_003
@ 012   ----------------------------------------
	.byte	PATT
	 .word	feb20260402153456_8_004
@ 013   ----------------------------------------
	.byte	PATT
	 .word	feb20260402153456_8_001
@ 014   ----------------------------------------
	.byte	PATT
	 .word	feb20260402153456_8_001
@ 015   ----------------------------------------
	.byte	PATT
	 .word	feb20260402153456_8_001
@ 016   ----------------------------------------
	.byte	PATT
	 .word	feb20260402153456_8_001
@ 017   ----------------------------------------
	.byte	PATT
	 .word	feb20260402153456_8_001
@ 018   ----------------------------------------
	.byte	PATT
	 .word	feb20260402153456_8_001
@ 019   ----------------------------------------
	.byte	PATT
	 .word	feb20260402153456_8_003
@ 020   ----------------------------------------
	.byte	PATT
	 .word	feb20260402153456_8_004
@ 021   ----------------------------------------
	.byte	PATT
	 .word	feb20260402153456_8_001
@ 022   ----------------------------------------
	.byte	PATT
	 .word	feb20260402153456_8_001
@ 023   ----------------------------------------
	.byte	PATT
	 .word	feb20260402153456_8_001
@ 024   ----------------------------------------
	.byte	PATT
	 .word	feb20260402153456_8_001
@ 025   ----------------------------------------
	.byte	PATT
	 .word	feb20260402153456_8_001
@ 026   ----------------------------------------
	.byte	PATT
	 .word	feb20260402153456_8_001
@ 027   ----------------------------------------
	.byte	PATT
	 .word	feb20260402153456_8_003
@ 028   ----------------------------------------
feb20260402153456_8_028:
	.byte		N05   , Fs1 , v127
	.byte		N05   , An2 
	.byte	W06
	.byte		        Fs1 
	.byte	W06
	.byte		        Gs1 
	.byte	W06
	.byte		        Fs1 
	.byte	W06
	.byte		        As1 
	.byte	W06
	.byte		        Gs1 
	.byte	W06
	.byte		N05   
	.byte	W06
	.byte		        Fs1 
	.byte	W06
	.byte		N05   
	.byte	W06
	.byte		N05   
	.byte	W06
	.byte		        Gs1 
	.byte	W06
	.byte		        Fs1 
	.byte	W06
	.byte		        As1 
	.byte	W06
	.byte		        Gs1 
	.byte	W06
	.byte		N05   
	.byte	W06
	.byte		        Fs1 
	.byte	W06
	.byte	PEND
@ 029   ----------------------------------------
feb20260402153456_8_029:
	.byte		N05   , Fs1 , v127
	.byte	W06
	.byte		N05   
	.byte	W06
	.byte		        Gs1 
	.byte	W06
	.byte		        Fs1 
	.byte	W06
	.byte		        As1 
	.byte	W06
	.byte		        Gs1 
	.byte	W06
	.byte		N05   
	.byte	W06
	.byte		        Fs1 
	.byte	W06
	.byte		N05   
	.byte	W06
	.byte		N05   
	.byte	W06
	.byte		        Gs1 
	.byte	W06
	.byte		        Fs1 
	.byte	W06
	.byte		        As1 
	.byte	W06
	.byte		        Gs1 
	.byte	W06
	.byte		N05   
	.byte	W06
	.byte		        Fs1 
	.byte	W06
	.byte	PEND
@ 030   ----------------------------------------
	.byte	PATT
	 .word	feb20260402153456_8_029
@ 031   ----------------------------------------
	.byte	PATT
	 .word	feb20260402153456_8_029
	.byte	GOTO
	 .word	feb20260402153456_8_B1
feb20260402153456_8_B2:
@ 032   ----------------------------------------
	.byte	PATT
	 .word	feb20260402153456_8_004
@ 033   ----------------------------------------
	.byte	PATT
	 .word	feb20260402153456_8_001
@ 034   ----------------------------------------
	.byte	PATT
	 .word	feb20260402153456_8_001
@ 035   ----------------------------------------
	.byte	PATT
	 .word	feb20260402153456_8_001
@ 036   ----------------------------------------
	.byte	PATT
	 .word	feb20260402153456_8_001
@ 037   ----------------------------------------
	.byte	PATT
	 .word	feb20260402153456_8_001
@ 038   ----------------------------------------
	.byte	PATT
	 .word	feb20260402153456_8_001
@ 039   ----------------------------------------
	.byte	PATT
	 .word	feb20260402153456_8_003
@ 040   ----------------------------------------
	.byte	PATT
	 .word	feb20260402153456_8_028
@ 041   ----------------------------------------
	.byte	PATT
	 .word	feb20260402153456_8_029
@ 042   ----------------------------------------
	.byte	PATT
	 .word	feb20260402153456_8_029
@ 043   ----------------------------------------
	.byte	PATT
	 .word	feb20260402153456_8_029
@ 044   ----------------------------------------
	.byte	W96
@ 045   ----------------------------------------
	.byte	W96
@ 046   ----------------------------------------
	.byte	W96
@ 047   ----------------------------------------
	.byte	W96
@ 048   ----------------------------------------
	.byte	W96
@ 049   ----------------------------------------
	.byte	W96
@ 050   ----------------------------------------
	.byte	W96
@ 051   ----------------------------------------
	.byte	W96
@ 052   ----------------------------------------
	.byte	W96
@ 053   ----------------------------------------
	.byte	W96
@ 054   ----------------------------------------
	.byte	W96
@ 055   ----------------------------------------
	.byte	W96
@ 056   ----------------------------------------
	.byte	W48
	.byte	FINE

@**************** Track 9 (Midi-Chn.9) ****************@

feb20260402153456_9:
	.byte	KEYSH , feb20260402153456_key+0
feb20260402153456_9_B1:
@ 000   ----------------------------------------
	.byte		VOICE , 33
	.byte		MODT  , 0
	.byte		LFOS  , 44
	.byte		VOL   , 127*feb20260402153456_mvl/mxv
	.byte		PAN   , c_v+0
	.byte		N11   , Fn1 , v127
	.byte	W12
	.byte		N05   
	.byte	W06
	.byte		        Cn1 
	.byte	W06
	.byte		        Fn1 
	.byte	W06
	.byte		N04   , Gs1 
	.byte	W12
	.byte		N04   
	.byte	W24
	.byte		        Ds1 
	.byte	W06
	.byte		        Gn1 
	.byte	W12
	.byte		N11   , Ds1 
	.byte	W12
@ 001   ----------------------------------------
feb20260402153456_9_001:
	.byte		N11   , Fn1 , v127
	.byte	W12
	.byte		N05   
	.byte	W06
	.byte		        Cn1 
	.byte	W06
	.byte		        Fn1 
	.byte	W06
	.byte		N04   , Gs1 
	.byte	W12
	.byte		N04   
	.byte	W24
	.byte		        Fn1 
	.byte	W06
	.byte		        Gs1 
	.byte	W12
	.byte		N11   , Fn1 
	.byte	W12
	.byte	PEND
@ 002   ----------------------------------------
feb20260402153456_9_002:
	.byte		N11   , Fn1 , v127
	.byte	W12
	.byte		N05   
	.byte	W06
	.byte		        Cn1 
	.byte	W06
	.byte		        Fn1 
	.byte	W06
	.byte		N04   , Gs1 
	.byte	W12
	.byte		N04   
	.byte	W24
	.byte		        Ds1 
	.byte	W06
	.byte		        Gn1 
	.byte	W12
	.byte		N11   , Ds1 
	.byte	W12
	.byte	PEND
@ 003   ----------------------------------------
	.byte	PATT
	 .word	feb20260402153456_9_001
@ 004   ----------------------------------------
	.byte	PATT
	 .word	feb20260402153456_9_002
@ 005   ----------------------------------------
	.byte	PATT
	 .word	feb20260402153456_9_001
@ 006   ----------------------------------------
	.byte	PATT
	 .word	feb20260402153456_9_002
@ 007   ----------------------------------------
	.byte	PATT
	 .word	feb20260402153456_9_001
@ 008   ----------------------------------------
feb20260402153456_9_008:
	.byte		N11   , Fn1 , v127
	.byte	W12
	.byte		N05   
	.byte	W06
	.byte		        Cs1 
	.byte	W06
	.byte		        Fn1 
	.byte	W06
	.byte		N04   , Gs1 
	.byte	W12
	.byte		N04   
	.byte	W24
	.byte		        Fn1 
	.byte	W06
	.byte		        Gs1 
	.byte	W12
	.byte		N11   , Fn1 
	.byte	W12
	.byte	PEND
@ 009   ----------------------------------------
feb20260402153456_9_009:
	.byte		N11   , Gn1 , v127
	.byte	W12
	.byte		N05   
	.byte	W06
	.byte		        Ds1 
	.byte	W06
	.byte		        Gn1 
	.byte	W06
	.byte		N04   , As1 
	.byte	W12
	.byte		N04   
	.byte	W24
	.byte		        Gn1 
	.byte	W06
	.byte		        As1 
	.byte	W12
	.byte		N11   , Gn1 
	.byte	W12
	.byte	PEND
@ 010   ----------------------------------------
	.byte	PATT
	 .word	feb20260402153456_9_002
@ 011   ----------------------------------------
	.byte	PATT
	 .word	feb20260402153456_9_001
@ 012   ----------------------------------------
	.byte	PATT
	 .word	feb20260402153456_9_002
@ 013   ----------------------------------------
	.byte	PATT
	 .word	feb20260402153456_9_001
@ 014   ----------------------------------------
	.byte	PATT
	 .word	feb20260402153456_9_002
@ 015   ----------------------------------------
	.byte	PATT
	 .word	feb20260402153456_9_001
@ 016   ----------------------------------------
	.byte	PATT
	 .word	feb20260402153456_9_008
@ 017   ----------------------------------------
	.byte	PATT
	 .word	feb20260402153456_9_009
@ 018   ----------------------------------------
	.byte	PATT
	 .word	feb20260402153456_9_002
@ 019   ----------------------------------------
	.byte	PATT
	 .word	feb20260402153456_9_001
@ 020   ----------------------------------------
feb20260402153456_9_020:
	.byte		N04   , Gs1 , v127
	.byte	W12
	.byte		        Ds1 
	.byte	W12
	.byte		        Cn1 
	.byte	W12
	.byte		        Ds1 
	.byte	W12
	.byte		        Gs1 
	.byte	W12
	.byte		        Ds1 
	.byte	W12
	.byte		        Cn1 
	.byte	W12
	.byte		        Ds1 
	.byte	W12
	.byte	PEND
@ 021   ----------------------------------------
feb20260402153456_9_021:
	.byte		N04   , Gn1 , v127
	.byte	W12
	.byte		        Ds1 
	.byte	W12
	.byte		        As0 
	.byte	W12
	.byte		        Ds1 
	.byte	W12
	.byte		        Gn1 
	.byte	W12
	.byte		        Ds1 
	.byte	W12
	.byte		        As0 
	.byte	W12
	.byte		        Ds1 
	.byte	W12
	.byte	PEND
@ 022   ----------------------------------------
feb20260402153456_9_022:
	.byte		N04   , Gs1 , v127
	.byte	W12
	.byte		        Fn1 
	.byte	W12
	.byte		        Cn1 
	.byte	W12
	.byte		        Fn1 
	.byte	W12
	.byte		        Gs1 
	.byte	W12
	.byte		        Fn1 
	.byte	W12
	.byte		        Cn1 
	.byte	W12
	.byte		        Fn1 
	.byte	W12
	.byte	PEND
@ 023   ----------------------------------------
feb20260402153456_9_023:
	.byte		N04   , Gn1 , v127
	.byte	W12
	.byte		        Ds1 
	.byte	W12
	.byte		        Cn1 
	.byte	W12
	.byte		        Ds1 
	.byte	W12
	.byte		        Gn1 
	.byte	W12
	.byte		        Ds1 
	.byte	W12
	.byte		        Cn1 
	.byte	W12
	.byte		        Ds1 
	.byte	W12
	.byte	PEND
@ 024   ----------------------------------------
feb20260402153456_9_024:
	.byte		N04   , Gs1 , v127
	.byte	W12
	.byte		        Fn1 
	.byte	W12
	.byte		        Cs1 
	.byte	W12
	.byte		        Fn1 
	.byte	W12
	.byte		        Gs1 
	.byte	W12
	.byte		        Fn1 
	.byte	W12
	.byte		        Cs1 
	.byte	W12
	.byte		        Fn1 
	.byte	W12
	.byte	PEND
@ 025   ----------------------------------------
	.byte	PATT
	 .word	feb20260402153456_9_021
@ 026   ----------------------------------------
	.byte	PATT
	 .word	feb20260402153456_9_022
@ 027   ----------------------------------------
	.byte	PATT
	 .word	feb20260402153456_9_023
@ 028   ----------------------------------------
feb20260402153456_9_028:
	.byte		N42   , Fn1 , v127
	.byte	W48
	.byte		        Ds1 
	.byte	W48
	.byte	PEND
@ 029   ----------------------------------------
feb20260402153456_9_029:
	.byte		N20   , Fn1 , v127
	.byte	W24
	.byte		        Gs1 
	.byte	W24
	.byte		        Gn1 
	.byte	W24
	.byte		        Fn1 
	.byte	W24
	.byte	PEND
@ 030   ----------------------------------------
	.byte	PATT
	 .word	feb20260402153456_9_028
@ 031   ----------------------------------------
	.byte	PATT
	 .word	feb20260402153456_9_029
	.byte	GOTO
	 .word	feb20260402153456_9_B1
feb20260402153456_9_B2:
@ 032   ----------------------------------------
	.byte	PATT
	 .word	feb20260402153456_9_020
@ 033   ----------------------------------------
	.byte	PATT
	 .word	feb20260402153456_9_021
@ 034   ----------------------------------------
	.byte	PATT
	 .word	feb20260402153456_9_022
@ 035   ----------------------------------------
	.byte	PATT
	 .word	feb20260402153456_9_023
@ 036   ----------------------------------------
	.byte	PATT
	 .word	feb20260402153456_9_024
@ 037   ----------------------------------------
	.byte	PATT
	 .word	feb20260402153456_9_021
@ 038   ----------------------------------------
	.byte	PATT
	 .word	feb20260402153456_9_022
@ 039   ----------------------------------------
	.byte	PATT
	 .word	feb20260402153456_9_023
@ 040   ----------------------------------------
	.byte	PATT
	 .word	feb20260402153456_9_028
@ 041   ----------------------------------------
	.byte	PATT
	 .word	feb20260402153456_9_029
@ 042   ----------------------------------------
	.byte	PATT
	 .word	feb20260402153456_9_028
@ 043   ----------------------------------------
	.byte	PATT
	 .word	feb20260402153456_9_029
@ 044   ----------------------------------------
	.byte	W96
@ 045   ----------------------------------------
	.byte	W96
@ 046   ----------------------------------------
	.byte	W96
@ 047   ----------------------------------------
	.byte	W96
@ 048   ----------------------------------------
	.byte	W96
@ 049   ----------------------------------------
	.byte	W96
@ 050   ----------------------------------------
	.byte	W96
@ 051   ----------------------------------------
	.byte	W96
@ 052   ----------------------------------------
	.byte	W96
@ 053   ----------------------------------------
	.byte	W96
@ 054   ----------------------------------------
	.byte	W96
@ 055   ----------------------------------------
	.byte	W96
@ 056   ----------------------------------------
	.byte	W48
	.byte	FINE

@**************** Track 10 (Midi-Chn.11) ****************@

feb20260402153456_10:
	.byte	KEYSH , feb20260402153456_key+0
feb20260402153456_10_B1:
@ 000   ----------------------------------------
	.byte		VOICE , 50
	.byte		MODT  , 0
	.byte		LFOS  , 44
	.byte		VOL   , 103*feb20260402153456_mvl/mxv
	.byte		PAN   , c_v+9
	.byte	W96
@ 001   ----------------------------------------
	.byte	W96
@ 002   ----------------------------------------
	.byte	W96
@ 003   ----------------------------------------
	.byte	W96
@ 004   ----------------------------------------
	.byte	W96
@ 005   ----------------------------------------
	.byte	W96
@ 006   ----------------------------------------
	.byte	W96
@ 007   ----------------------------------------
	.byte	W96
@ 008   ----------------------------------------
	.byte	W96
@ 009   ----------------------------------------
	.byte	W96
@ 010   ----------------------------------------
	.byte	W96
@ 011   ----------------------------------------
	.byte	W96
@ 012   ----------------------------------------
	.byte	W96
@ 013   ----------------------------------------
	.byte	W96
@ 014   ----------------------------------------
	.byte	W96
@ 015   ----------------------------------------
	.byte	W96
@ 016   ----------------------------------------
	.byte	W96
@ 017   ----------------------------------------
	.byte	W96
@ 018   ----------------------------------------
	.byte	W96
@ 019   ----------------------------------------
	.byte	W96
@ 020   ----------------------------------------
	.byte	W96
@ 021   ----------------------------------------
	.byte		N96   , As2 , v076
	.byte	W96
@ 022   ----------------------------------------
	.byte		        Gs2 
	.byte	W96
@ 023   ----------------------------------------
	.byte		        Ds3 
	.byte	W96
@ 024   ----------------------------------------
	.byte		        Cs3 
	.byte	W96
@ 025   ----------------------------------------
	.byte		        Ds3 
	.byte	W96
@ 026   ----------------------------------------
	.byte	W96
@ 027   ----------------------------------------
	.byte		N90   
	.byte	W96
@ 028   ----------------------------------------
	.byte	W96
@ 029   ----------------------------------------
	.byte	W96
@ 030   ----------------------------------------
	.byte	W96
@ 031   ----------------------------------------
	.byte	W96
	.byte	GOTO
	 .word	feb20260402153456_10_B1
feb20260402153456_10_B2:
@ 032   ----------------------------------------
	.byte	W96
@ 033   ----------------------------------------
	.byte		N96   , As2 , v076
	.byte	W96
@ 034   ----------------------------------------
	.byte		        Gs2 
	.byte	W96
@ 035   ----------------------------------------
	.byte		        Ds3 
	.byte	W96
@ 036   ----------------------------------------
	.byte		        Cs3 
	.byte	W96
@ 037   ----------------------------------------
	.byte		        Ds3 
	.byte	W96
@ 038   ----------------------------------------
	.byte	W96
@ 039   ----------------------------------------
	.byte		N90   
	.byte	W96
@ 040   ----------------------------------------
	.byte	W96
@ 041   ----------------------------------------
	.byte	W96
@ 042   ----------------------------------------
	.byte	W96
@ 043   ----------------------------------------
	.byte	W96
@ 044   ----------------------------------------
	.byte	W96
@ 045   ----------------------------------------
	.byte	W96
@ 046   ----------------------------------------
	.byte	W96
@ 047   ----------------------------------------
	.byte	W96
@ 048   ----------------------------------------
	.byte	W96
@ 049   ----------------------------------------
	.byte	W96
@ 050   ----------------------------------------
	.byte	W96
@ 051   ----------------------------------------
	.byte	W96
@ 052   ----------------------------------------
	.byte	W96
@ 053   ----------------------------------------
	.byte	W96
@ 054   ----------------------------------------
	.byte	W96
@ 055   ----------------------------------------
	.byte	W96
@ 056   ----------------------------------------
	.byte	W48
	.byte	FINE

@**************** Track 11 (Midi-Chn.13) ****************@

feb20260402153456_11:
	.byte	KEYSH , feb20260402153456_key+0
feb20260402153456_11_B1:
@ 000   ----------------------------------------
	.byte		VOICE , 61
	.byte		MODT  , 0
	.byte		LFOS  , 44
	.byte		PAN   , c_v+0
	.byte		VOL   , 127*feb20260402153456_mvl/mxv
	.byte	W96
@ 001   ----------------------------------------
	.byte	W96
@ 002   ----------------------------------------
	.byte	W96
@ 003   ----------------------------------------
	.byte	W96
@ 004   ----------------------------------------
	.byte	W96
@ 005   ----------------------------------------
	.byte	W96
@ 006   ----------------------------------------
	.byte	W96
@ 007   ----------------------------------------
	.byte	W96
@ 008   ----------------------------------------
	.byte	W96
@ 009   ----------------------------------------
	.byte	W96
@ 010   ----------------------------------------
	.byte	W96
@ 011   ----------------------------------------
	.byte	W96
@ 012   ----------------------------------------
	.byte	W96
@ 013   ----------------------------------------
	.byte	W96
@ 014   ----------------------------------------
	.byte	W96
@ 015   ----------------------------------------
	.byte	W96
@ 016   ----------------------------------------
	.byte	W96
@ 017   ----------------------------------------
	.byte		N32   , Gn3 , v080
	.byte	W36
	.byte		N11   , Fn3 
	.byte	W12
	.byte		        Ds3 
	.byte	W12
	.byte		        Cs3 
	.byte	W12
	.byte		        Cn3 
	.byte	W12
	.byte		        Cs3 
	.byte	W12
@ 018   ----------------------------------------
	.byte		N42   , Ds3 , v088
	.byte	W48
	.byte		TIE   , Fn3 , v100
	.byte	W48
@ 019   ----------------------------------------
	.byte	W66
	.byte		EOT   
	.byte	W06
	.byte		N05   , Fn3 , v127
	.byte	W06
	.byte		        Gn3 
	.byte	W06
	.byte		        Gs3 
	.byte	W06
	.byte		        As3 
	.byte	W06
@ 020   ----------------------------------------
	.byte		N42   , Cn4 
	.byte	W48
	.byte		N15   , Ds4 
	.byte	W16
	.byte		        Cs4 
	.byte	W16
	.byte		        Cn4 
	.byte	W16
@ 021   ----------------------------------------
	.byte		N32   , As3 
	.byte	W36
	.byte		N11   , Gs3 
	.byte	W12
	.byte		N20   , Gn3 
	.byte	W24
	.byte		N05   , Fn3 
	.byte	W06
	.byte		        Gn3 
	.byte	W06
	.byte		        Gs3 
	.byte	W06
	.byte		        As3 
	.byte	W06
@ 022   ----------------------------------------
	.byte		N42   , Cn4 
	.byte	W48
	.byte		N15   , Cs4 
	.byte	W16
	.byte		        Ds4 
	.byte	W16
	.byte		        Fn4 
	.byte	W16
@ 023   ----------------------------------------
	.byte		N32   , Ds4 
	.byte	W36
	.byte		N11   , Cs4 
	.byte	W12
	.byte		N15   , Cn4 
	.byte	W16
	.byte		        As3 
	.byte	W16
	.byte		        Gn3 
	.byte	W16
@ 024   ----------------------------------------
	.byte		N32   , Gs3 
	.byte	W36
	.byte		N11   , Gn3 
	.byte	W12
	.byte		N04   , Fn3 
	.byte	W12
	.byte		        Cn3 
	.byte	W12
	.byte		        Fn3 
	.byte	W06
	.byte		N11   , Gs3 
	.byte	W12
	.byte		N36   , Gn3 
	.byte	W06
@ 025   ----------------------------------------
	.byte	W36
	.byte		N11   , Gs3 
	.byte	W12
	.byte		N15   , As3 
	.byte	W16
	.byte		        Gs3 
	.byte	W16
	.byte		        Gn3 
	.byte	W16
@ 026   ----------------------------------------
	.byte		N42   , Fn3 
	.byte	W48
	.byte		        Gs3 
	.byte	W48
@ 027   ----------------------------------------
	.byte		        Gn3 
	.byte	W48
	.byte		        Ds3 
	.byte	W48
@ 028   ----------------------------------------
	.byte		N90   , Fn3 
	.byte	W96
@ 029   ----------------------------------------
	.byte	W96
@ 030   ----------------------------------------
	.byte	W96
@ 031   ----------------------------------------
	.byte	W96
	.byte	GOTO
	 .word	feb20260402153456_11_B1
feb20260402153456_11_B2:
@ 032   ----------------------------------------
	.byte	W96
@ 033   ----------------------------------------
	.byte	W96
@ 034   ----------------------------------------
	.byte	W96
@ 035   ----------------------------------------
	.byte	W96
@ 036   ----------------------------------------
	.byte	W96
@ 037   ----------------------------------------
	.byte	W96
@ 038   ----------------------------------------
	.byte	W96
@ 039   ----------------------------------------
	.byte	W96
@ 040   ----------------------------------------
	.byte	W96
@ 041   ----------------------------------------
	.byte	W96
@ 042   ----------------------------------------
	.byte	W96
@ 043   ----------------------------------------
	.byte	W96
@ 044   ----------------------------------------
	.byte	W96
@ 045   ----------------------------------------
	.byte	W96
@ 046   ----------------------------------------
	.byte	W96
@ 047   ----------------------------------------
	.byte	W96
@ 048   ----------------------------------------
	.byte	W96
@ 049   ----------------------------------------
	.byte	W96
@ 050   ----------------------------------------
	.byte	W96
@ 051   ----------------------------------------
	.byte	W96
@ 052   ----------------------------------------
	.byte	W96
@ 053   ----------------------------------------
	.byte	W96
@ 054   ----------------------------------------
	.byte	W96
@ 055   ----------------------------------------
	.byte	W96
@ 056   ----------------------------------------
	.byte	W48
	.byte	FINE

@******************************************************@
	.align	2

feb20260402153456:
	.byte	11	@ NumTrks
	.byte	0	@ NumBlks
	.byte	feb20260402153456_pri	@ Priority
	.byte	feb20260402153456_rev	@ Reverb.

	.word	feb20260402153456_grp

	.word	feb20260402153456_1
	.word	feb20260402153456_2
	.word	feb20260402153456_3
	.word	feb20260402153456_4
	.word	feb20260402153456_5
	.word	feb20260402153456_6
	.word	feb20260402153456_7
	.word	feb20260402153456_8
	.word	feb20260402153456_9
	.word	feb20260402153456_10
	.word	feb20260402153456_11

	.end
