//Event file generated from Sappy .s format.
	#include "MPlayDef.event"

	#define	NoctumOrder_FINAL_grp  voicegroup000
	#define	NoctumOrder_FINAL_pri  0
	#define	NoctumOrder_FINAL_rev  0xA0
	#define	NoctumOrder_FINAL_mvl  31
	#define	NoctumOrder_FINAL_key  0
	#define	NoctumOrder_FINAL_tbs  1
	#define	NoctumOrder_FINAL_exg  0
	#define	NoctumOrder_FINAL_cmp  1

	// .rodata
	//	NoctumOrder_FINAL
	ALIGN 4

//**************** Track 1 (Midi-Chn.1) ****************//

NoctumOrder_FINAL_1:
	BYTE	KEYSH   NoctumOrder_FINAL_key+0
NoctumOrder_FINAL_1_B1:
// 000   ----------------------------------------
	BYTE	TEMPO   85*NoctumOrder_FINAL_tbs/2
	BYTE		VOICE   40
	BYTE		MODT    0
	BYTE		LFOS    44
	BYTE		VOL     117*NoctumOrder_FINAL_mvl/mxv
	BYTE		PAN     c_v+32
	BYTE		N36     Cs4   v127
	BYTE	W36
	BYTE		N12     An3 
	BYTE	W12
	BYTE		N16     Gs3 
	BYTE	W16
	BYTE		        An3 
	BYTE	W16
	BYTE		        Gs3 
	BYTE	W16
// 001   ----------------------------------------
NoctumOrder_FINAL_1_001:
	BYTE		N36     Fs3   v127
	BYTE	W36
	BYTE		N12     Cs3 
	BYTE	W12
	BYTE		N16     Fs3 
	BYTE	W16
	BYTE		        Gs3 
	BYTE	W16
	BYTE		        An3 
	BYTE	W16
	BYTE	PEND
// 002   ----------------------------------------
NoctumOrder_FINAL_1_002:
	BYTE		N16     Bn3   v127
	BYTE	W16
	BYTE		        Fs3 
	BYTE	W16
	BYTE		        Dn3 
	BYTE	W16
	BYTE		        Bn3 
	BYTE	W16
	BYTE		        Cs4 
	BYTE	W16
	BYTE		        Dn4 
	BYTE	W16
	BYTE	PEND
// 003   ----------------------------------------
NoctumOrder_FINAL_1_003:
	BYTE		N36     En4   v127
	BYTE	W36
	BYTE		N12     Bn3 
	BYTE	W12
	BYTE		N42   
	BYTE	W48
	BYTE	PEND
// 004   ----------------------------------------
NoctumOrder_FINAL_1_004:
	BYTE		N36     Cs4   v127
	BYTE	W36
	BYTE		N12     An3 
	BYTE	W12
	BYTE		N16     Gs3 
	BYTE	W16
	BYTE		        An3 
	BYTE	W16
	BYTE		        Gs3 
	BYTE	W16
	BYTE	PEND
// 005   ----------------------------------------
	BYTE	PATT
	 POIN2	NoctumOrder_FINAL_1_001
// 006   ----------------------------------------
NoctumOrder_FINAL_1_006:
	BYTE		N16     Bn3   v127
	BYTE	W16
	BYTE		        Fs3 
	BYTE	W16
	BYTE		        Dn3 
	BYTE	W16
	BYTE		        Cs4 
	BYTE	W16
	BYTE		        Dn4 
	BYTE	W16
	BYTE		        Ds4 
	BYTE	W16
	BYTE	PEND
// 007   ----------------------------------------
NoctumOrder_FINAL_1_007:
	BYTE		N16     En4   v127
	BYTE	W16
	BYTE		        Gs4 
	BYTE	W16
	BYTE		        Fs4 
	BYTE	W16
	BYTE		N24     En4 
	BYTE	W24
	BYTE		N20     Bn3 
	BYTE	W24
	BYTE	PEND
// 008   ----------------------------------------
NoctumOrder_FINAL_1_008:
	BYTE		N16     Fs3   v127
	BYTE	W16
	BYTE		        An3 
	BYTE	W16
	BYTE		        Fs3 
	BYTE	W16
	BYTE		        Dn4 
	BYTE	W16
	BYTE		        Cs4 
	BYTE	W16
	BYTE		        Bn3 
	BYTE	W16
	BYTE	PEND
// 009   ----------------------------------------
NoctumOrder_FINAL_1_009:
	BYTE		N16     An3   v127
	BYTE	W16
	BYTE		        Gs3 
	BYTE	W16
	BYTE		        Fs3 
	BYTE	W16
	BYTE		N24     En3 
	BYTE	W24
	BYTE		        Cs3 
	BYTE	W24
	BYTE	PEND
// 010   ----------------------------------------
NoctumOrder_FINAL_1_010:
	BYTE		N16     Fn3   v127
	BYTE	W16
	BYTE		        Fs3 
	BYTE	W16
	BYTE		        Gs3 
	BYTE	W16
	BYTE		        Bn3 
	BYTE	W16
	BYTE		        An3 
	BYTE	W16
	BYTE		        Gs3 
	BYTE	W16
	BYTE	PEND
// 011   ----------------------------------------
NoctumOrder_FINAL_1_011:
	BYTE		N16     An3   v127
	BYTE	W16
	BYTE		        Dn4 
	BYTE	W16
	BYTE		        Bn3 
	BYTE	W16
	BYTE		N48     Cs4 
	BYTE	W48
	BYTE	PEND
// 012   ----------------------------------------
	BYTE	PATT
	 POIN2	NoctumOrder_FINAL_1_008
// 013   ----------------------------------------
	BYTE	PATT
	 POIN2	NoctumOrder_FINAL_1_009
// 014   ----------------------------------------
NoctumOrder_FINAL_1_014:
	BYTE		N16     Bn3   v127
	BYTE	W16
	BYTE		        Fs3 
	BYTE	W16
	BYTE		        Dn3 
	BYTE	W16
	BYTE		        Fn3 
	BYTE	W16
	BYTE		        Gs3 
	BYTE	W16
	BYTE		        Cn4 
	BYTE	W16
	BYTE	PEND
// 015   ----------------------------------------
NoctumOrder_FINAL_1_015:
	BYTE		N30     Cs4   v127
	BYTE	W30
	BYTE		N06     Bn3 
	BYTE	W06
	BYTE		        Cs4 
	BYTE	W06
	BYTE		        Dn4 
	BYTE	W06
	BYTE		N03     Cs4 
	BYTE	W03
	BYTE		        Dn4 
	BYTE	W03
	BYTE		        Cs4 
	BYTE	W03
	BYTE		        Dn4 
	BYTE	W03
	BYTE		        Cs4 
	BYTE	W03
	BYTE		        Dn4 
	BYTE	W03
	BYTE		        Cs4 
	BYTE	W03
	BYTE		        Dn4 
	BYTE	W03
	BYTE		        Cs4 
	BYTE	W03
	BYTE		        Dn4 
	BYTE	W03
	BYTE		        Cs4 
	BYTE	W03
	BYTE		        Dn4 
	BYTE	W03
	BYTE		        Cs4 
	BYTE	W03
	BYTE		        Dn4 
	BYTE	W03
	BYTE		        Cs4 
	BYTE	W03
	BYTE		        Dn4 
	BYTE	W03
	BYTE	PEND
// 016   ----------------------------------------
	BYTE	PATT
	 POIN2	NoctumOrder_FINAL_1_004
// 017   ----------------------------------------
	BYTE	PATT
	 POIN2	NoctumOrder_FINAL_1_001
// 018   ----------------------------------------
	BYTE	PATT
	 POIN2	NoctumOrder_FINAL_1_002
// 019   ----------------------------------------
	BYTE	PATT
	 POIN2	NoctumOrder_FINAL_1_003
// 020   ----------------------------------------
	BYTE	PATT
	 POIN2	NoctumOrder_FINAL_1_004
// 021   ----------------------------------------
	BYTE	PATT
	 POIN2	NoctumOrder_FINAL_1_001
// 022   ----------------------------------------
	BYTE	PATT
	 POIN2	NoctumOrder_FINAL_1_006
// 023   ----------------------------------------
	BYTE	PATT
	 POIN2	NoctumOrder_FINAL_1_007
// 024   ----------------------------------------
	BYTE	PATT
	 POIN2	NoctumOrder_FINAL_1_008
// 025   ----------------------------------------
	BYTE	PATT
	 POIN2	NoctumOrder_FINAL_1_009
// 026   ----------------------------------------
	BYTE	PATT
	 POIN2	NoctumOrder_FINAL_1_010
// 027   ----------------------------------------
	BYTE	PATT
	 POIN2	NoctumOrder_FINAL_1_011
// 028   ----------------------------------------
	BYTE	PATT
	 POIN2	NoctumOrder_FINAL_1_008
// 029   ----------------------------------------
	BYTE	PATT
	 POIN2	NoctumOrder_FINAL_1_009
// 030   ----------------------------------------
	BYTE	PATT
	 POIN2	NoctumOrder_FINAL_1_014
// 031   ----------------------------------------
	BYTE	PATT
	 POIN2	NoctumOrder_FINAL_1_015
	BYTE	GoTo
	 POIN2	NoctumOrder_FINAL_1_B1
NoctumOrder_FINAL_1_B2:
// 032   ----------------------------------------
	BYTE	FINE

//**************** Track 2 (Midi-Chn.2) ****************//

NoctumOrder_FINAL_2:
	BYTE	KEYSH   NoctumOrder_FINAL_key+0
NoctumOrder_FINAL_2_B1:
// 000   ----------------------------------------
	BYTE		VOICE   50
	BYTE		MODT    0
	BYTE		LFOS    44
	BYTE		VOL     127*NoctumOrder_FINAL_mvl/mxv
	BYTE		PAN     c_v-22
	BYTE		N36     Fs3   v127
	BYTE		N36     An3 
	BYTE		N36     Cs4 
	BYTE	W36
	BYTE		N12     Cs3 
	BYTE		N12     Fs3 
	BYTE		N12     An3 
	BYTE	W12
	BYTE		N16     Cs3 
	BYTE		N16     En3 
	BYTE		N16     Gs3 
	BYTE	W16
	BYTE		        An2 
	BYTE		N16     Cs3 
	BYTE		N16     An3 
	BYTE	W16
	BYTE		        Cs3 
	BYTE		N16     En3 
	BYTE		N16     Gs3 
	BYTE	W16
// 001   ----------------------------------------
NoctumOrder_FINAL_2_001:
	BYTE		N36     An2   v127
	BYTE		N36     Dn3 
	BYTE		N36     Fs3 
	BYTE	W36
	BYTE		N12     Fs2 
	BYTE		N12     An2 
	BYTE		N12     Cs3 
	BYTE	W12
	BYTE		N16     An2 
	BYTE		N16     Dn3 
	BYTE		N16     Fs3 
	BYTE	W16
	BYTE		        Bn2 
	BYTE		N16     Dn3 
	BYTE		N16     Gs3 
	BYTE	W16
	BYTE		        Dn3 
	BYTE		N16     Fs3 
	BYTE		N16     An3 
	BYTE	W16
	BYTE	PEND
// 002   ----------------------------------------
NoctumOrder_FINAL_2_002:
	BYTE		N16     Dn3   v127
	BYTE		N16     Fs3 
	BYTE		N16     Bn3 
	BYTE	W16
	BYTE		        Bn2 
	BYTE		N16     Dn3 
	BYTE		N16     Fs3 
	BYTE	W16
	BYTE		        Fs2 
	BYTE		N16     Bn2 
	BYTE		N16     Dn3 
	BYTE	W16
	BYTE		N16   
	BYTE		N16     Fs3 
	BYTE		N16     Bn3 
	BYTE	W16
	BYTE		        En3 
	BYTE		N16     Gs3 
	BYTE		N16     Cs4 
	BYTE	W16
	BYTE		        Fs3 
	BYTE		N16     An3 
	BYTE		N16     Dn4 
	BYTE	W16
	BYTE	PEND
// 003   ----------------------------------------
NoctumOrder_FINAL_2_003:
	BYTE		N36     En3   v127
	BYTE		N36     An3 
	BYTE		N36     Bn3 
	BYTE	W36
	BYTE		N12     Bn2 
	BYTE		N12     En3 
	BYTE		N12     Gs3 
	BYTE	W12
	BYTE		N42     Bn2 
	BYTE		N42     En3 
	BYTE		N42     Gs3 
	BYTE	W48
	BYTE	PEND
// 004   ----------------------------------------
NoctumOrder_FINAL_2_004:
	BYTE		N36     Fs3   v127
	BYTE		N36     An3 
	BYTE		N36     Cs4 
	BYTE	W36
	BYTE		N12     Cs3 
	BYTE		N12     Fs3 
	BYTE		N12     An3 
	BYTE	W12
	BYTE		N16     Cs3 
	BYTE		N16     En3 
	BYTE		N16     Gs3 
	BYTE	W16
	BYTE		        An2 
	BYTE		N16     Cs3 
	BYTE		N16     An3 
	BYTE	W16
	BYTE		        Cs3 
	BYTE		N16     En3 
	BYTE		N16     Gs3 
	BYTE	W16
	BYTE	PEND
// 005   ----------------------------------------
	BYTE	PATT
	 POIN2	NoctumOrder_FINAL_2_001
// 006   ----------------------------------------
NoctumOrder_FINAL_2_006:
	BYTE		N16     Dn3   v127
	BYTE		N16     Fs3 
	BYTE		N16     Bn3 
	BYTE	W16
	BYTE		        Bn2 
	BYTE		N16     Dn3 
	BYTE		N16     Fs3 
	BYTE	W16
	BYTE		        Fs2 
	BYTE		N16     Bn2 
	BYTE		N16     Dn3 
	BYTE	W16
	BYTE		        Fs3 
	BYTE		N16     An3 
	BYTE		N16     Cs4 
	BYTE	W16
	BYTE		        Fs3 
	BYTE		N16     Bn3 
	BYTE		N16     Dn4 
	BYTE	W16
	BYTE		        Fs3 
	BYTE		N16     Bn3 
	BYTE		N16     Ds4 
	BYTE	W16
	BYTE	PEND
// 007   ----------------------------------------
	BYTE	PATT
	 POIN2	NoctumOrder_FINAL_2_003
// 008   ----------------------------------------
NoctumOrder_FINAL_2_008:
	BYTE		N16     An2   v127
	BYTE		N16     Dn3 
	BYTE		N16     Fs3 
	BYTE	W16
	BYTE		        Dn3 
	BYTE		N16     Fs3 
	BYTE		N16     An3 
	BYTE	W16
	BYTE		        An2 
	BYTE		N16     Dn3 
	BYTE		N16     Fs3 
	BYTE	W16
	BYTE		N16   
	BYTE		N16     An3 
	BYTE		N16     Dn4 
	BYTE	W16
	BYTE		        Dn3 
	BYTE		N16     Fs3 
	BYTE		N16     Cs4 
	BYTE	W16
	BYTE		        An2 
	BYTE		N16     Fs3 
	BYTE		N16     Bn3 
	BYTE	W16
	BYTE	PEND
// 009   ----------------------------------------
NoctumOrder_FINAL_2_009:
	BYTE		N16     Cs3   v127
	BYTE		N16     Fs3 
	BYTE		N16     An3 
	BYTE	W16
	BYTE		        Bn2 
	BYTE		N16     En3 
	BYTE		N16     Gs3 
	BYTE	W16
	BYTE		        An2 
	BYTE		N16     Cs3 
	BYTE		N16     Fs3 
	BYTE	W16
	BYTE		N24     An2 
	BYTE		N24     Cs3 
	BYTE		N24     En3 
	BYTE	W24
	BYTE		        Fs2 
	BYTE		N24     An2 
	BYTE		N24     Cs3 
	BYTE	W24
	BYTE	PEND
// 010   ----------------------------------------
NoctumOrder_FINAL_2_010:
	BYTE		N16     Gs2   v127
	BYTE		N16     Cs3 
	BYTE		N16     Fn3 
	BYTE	W16
	BYTE		        An2 
	BYTE		N16     Ds3 
	BYTE		N16     Fs3 
	BYTE	W16
	BYTE		        Cs3 
	BYTE		N16     Fn3 
	BYTE		N16     Gs3 
	BYTE	W16
	BYTE		        Fn3 
	BYTE		N16     Gs3 
	BYTE		N16     Bn3 
	BYTE	W16
	BYTE		        Cs3 
	BYTE		N16     Fn3 
	BYTE		N16     An3 
	BYTE	W16
	BYTE		        Gs2 
	BYTE		N16     Cs3 
	BYTE		N16     Gs3 
	BYTE	W16
	BYTE	PEND
// 011   ----------------------------------------
NoctumOrder_FINAL_2_011:
	BYTE		N16     Cs3   v127
	BYTE		N16     Fs3 
	BYTE		N16     An3 
	BYTE	W16
	BYTE		        Dn3 
	BYTE		N16     An3 
	BYTE		N16     Dn4 
	BYTE	W16
	BYTE		        Cs3 
	BYTE		N16     En3 
	BYTE		N16     Bn3 
	BYTE	W16
	BYTE		N48     Fs3 
	BYTE		N48     An3 
	BYTE		N48     Cs4 
	BYTE	W48
	BYTE	PEND
// 012   ----------------------------------------
	BYTE	PATT
	 POIN2	NoctumOrder_FINAL_2_008
// 013   ----------------------------------------
	BYTE	PATT
	 POIN2	NoctumOrder_FINAL_2_009
// 014   ----------------------------------------
NoctumOrder_FINAL_2_014:
	BYTE		N16     Dn3   v127
	BYTE		N16     Fs3 
	BYTE		N16     Bn3 
	BYTE	W16
	BYTE		        Bn2 
	BYTE		N16     Dn3 
	BYTE		N16     Fs3 
	BYTE	W16
	BYTE		        Fs2 
	BYTE		N16     Bn2 
	BYTE		N16     Dn3 
	BYTE	W16
	BYTE		        Gs2 
	BYTE		N16     Cn3 
	BYTE		N16     Fn3 
	BYTE	W16
	BYTE		        Cn3 
	BYTE		N16     Fn3 
	BYTE		N16     Gs3 
	BYTE	W16
	BYTE		        Fn3 
	BYTE		N16     Gs3 
	BYTE		N16     Cn4 
	BYTE	W16
	BYTE	PEND
// 015   ----------------------------------------
NoctumOrder_FINAL_2_015:
	BYTE		N32     Fs3   v127
	BYTE		N32     An3 
	BYTE		N30     Cs4 
	BYTE	W30
	BYTE		N06     Bn3 
	BYTE	W06
	BYTE		N11     Cs3 
	BYTE		N11     Fs3 
	BYTE		N06     Cs4 
	BYTE	W06
	BYTE		        Dn4 
	BYTE	W06
	BYTE		N24     Cs3 
	BYTE		N24     Fs3 
	BYTE		N24     Gs3 
	BYTE	W24
	BYTE		        Cs3 
	BYTE		N24     Fn3 
	BYTE		N24     Gs3 
	BYTE	W24
	BYTE	PEND
// 016   ----------------------------------------
	BYTE	PATT
	 POIN2	NoctumOrder_FINAL_2_004
// 017   ----------------------------------------
	BYTE	PATT
	 POIN2	NoctumOrder_FINAL_2_001
// 018   ----------------------------------------
	BYTE	PATT
	 POIN2	NoctumOrder_FINAL_2_002
// 019   ----------------------------------------
	BYTE	PATT
	 POIN2	NoctumOrder_FINAL_2_003
// 020   ----------------------------------------
	BYTE	PATT
	 POIN2	NoctumOrder_FINAL_2_004
// 021   ----------------------------------------
	BYTE	PATT
	 POIN2	NoctumOrder_FINAL_2_001
// 022   ----------------------------------------
	BYTE	PATT
	 POIN2	NoctumOrder_FINAL_2_006
// 023   ----------------------------------------
	BYTE	PATT
	 POIN2	NoctumOrder_FINAL_2_003
// 024   ----------------------------------------
	BYTE	PATT
	 POIN2	NoctumOrder_FINAL_2_008
// 025   ----------------------------------------
	BYTE	PATT
	 POIN2	NoctumOrder_FINAL_2_009
// 026   ----------------------------------------
	BYTE	PATT
	 POIN2	NoctumOrder_FINAL_2_010
// 027   ----------------------------------------
	BYTE	PATT
	 POIN2	NoctumOrder_FINAL_2_011
// 028   ----------------------------------------
	BYTE	PATT
	 POIN2	NoctumOrder_FINAL_2_008
// 029   ----------------------------------------
	BYTE	PATT
	 POIN2	NoctumOrder_FINAL_2_009
// 030   ----------------------------------------
	BYTE	PATT
	 POIN2	NoctumOrder_FINAL_2_014
// 031   ----------------------------------------
	BYTE	PATT
	 POIN2	NoctumOrder_FINAL_2_015
	BYTE	GoTo
	 POIN2	NoctumOrder_FINAL_2_B1
NoctumOrder_FINAL_2_B2:
// 032   ----------------------------------------
	BYTE	FINE

//**************** Track 3 (Midi-Chn.3) ****************//

NoctumOrder_FINAL_3:
	BYTE	KEYSH   NoctumOrder_FINAL_key+0
NoctumOrder_FINAL_3_B1:
// 000   ----------------------------------------
	BYTE		VOICE   54
	BYTE		MODT    0
	BYTE		LFOS    44
	BYTE		PAN     c_v+18
	BYTE		VOL     95*NoctumOrder_FINAL_mvl/mxv
	BYTE	W96
// 001   ----------------------------------------
	BYTE	W96
// 002   ----------------------------------------
	BYTE	W96
// 003   ----------------------------------------
	BYTE	W96
// 004   ----------------------------------------
	BYTE	W96
// 005   ----------------------------------------
	BYTE	W96
// 006   ----------------------------------------
	BYTE	W96
// 007   ----------------------------------------
	BYTE	W96
// 008   ----------------------------------------
	BYTE	W96
// 009   ----------------------------------------
	BYTE	W96
// 010   ----------------------------------------
	BYTE	W96
// 011   ----------------------------------------
	BYTE	W96
// 012   ----------------------------------------
	BYTE	W96
// 013   ----------------------------------------
	BYTE	W96
// 014   ----------------------------------------
	BYTE	W96
// 015   ----------------------------------------
	BYTE	W96
// 016   ----------------------------------------
NoctumOrder_FINAL_3_016:
	BYTE		N96     Cs3   v100
	BYTE		N96     Fs3 
	BYTE		N96     An3 
	BYTE	W96
	BYTE	PEND
// 017   ----------------------------------------
NoctumOrder_FINAL_3_017:
	BYTE		N96     Dn3   v100
	BYTE		N96     Fs3 
	BYTE		N96     An3 
	BYTE	W96
	BYTE	PEND
// 018   ----------------------------------------
	BYTE		        Dn3 
	BYTE		N96     Fs3 
	BYTE		N96     Bn3 
	BYTE	W96
// 019   ----------------------------------------
NoctumOrder_FINAL_3_019:
	BYTE		N48     En3   v100
	BYTE		N48     An3 
	BYTE		N48     Bn3 
	BYTE	W48
	BYTE		N42     Bn2 
	BYTE		N42     En3 
	BYTE		N42     Gs3 
	BYTE	W48
	BYTE	PEND
// 020   ----------------------------------------
	BYTE	PATT
	 POIN2	NoctumOrder_FINAL_3_016
// 021   ----------------------------------------
	BYTE	PATT
	 POIN2	NoctumOrder_FINAL_3_017
// 022   ----------------------------------------
	BYTE		N48     Dn3   v100
	BYTE		N48     Fs3 
	BYTE		N48     Bn3 
	BYTE	W48
	BYTE		N24     Fs3 
	BYTE		N24     An3 
	BYTE		N24     Cs4 
	BYTE	W24
	BYTE		        Fs3 
	BYTE		N24     Bn3 
	BYTE		N24     Ds4 
	BYTE	W24
// 023   ----------------------------------------
	BYTE	PATT
	 POIN2	NoctumOrder_FINAL_3_019
// 024   ----------------------------------------
	BYTE	PATT
	 POIN2	NoctumOrder_FINAL_3_017
// 025   ----------------------------------------
	BYTE	PATT
	 POIN2	NoctumOrder_FINAL_3_016
// 026   ----------------------------------------
	BYTE		N96     Cs3   v100
	BYTE		N96     Fn3 
	BYTE		N96     Gs3 
	BYTE	W96
// 027   ----------------------------------------
	BYTE	PATT
	 POIN2	NoctumOrder_FINAL_3_016
// 028   ----------------------------------------
	BYTE	PATT
	 POIN2	NoctumOrder_FINAL_3_017
// 029   ----------------------------------------
	BYTE	PATT
	 POIN2	NoctumOrder_FINAL_3_016
// 030   ----------------------------------------
	BYTE		N48     Dn3   v100
	BYTE		N48     Fs3 
	BYTE		N48     Bn3 
	BYTE	W48
	BYTE		        Ds3 
	BYTE		N48     Gs3 
	BYTE		N48     Cn4 
	BYTE	W48
// 031   ----------------------------------------
	BYTE		        Fs3 
	BYTE		N96     Gs3 
	BYTE		N48     An3 
	BYTE		N90     Cs4 
	BYTE	W48
	BYTE		N48     Fn3 
	BYTE	W48
	BYTE	GoTo
	 POIN2	NoctumOrder_FINAL_3_B1
NoctumOrder_FINAL_3_B2:
// 032   ----------------------------------------
	BYTE	FINE

//**************** Track 4 (Midi-Chn.4) ****************//

NoctumOrder_FINAL_4:
	BYTE	KEYSH   NoctumOrder_FINAL_key+0
NoctumOrder_FINAL_4_B1:
// 000   ----------------------------------------
	BYTE		VOICE   46
	BYTE		MODT    0
	BYTE		LFOS    44
	BYTE		PAN     c_v-14
	BYTE		VOL     112*NoctumOrder_FINAL_mvl/mxv
	BYTE		N15     Fs2   v127
	BYTE	W16
	BYTE		        Fs3 
	BYTE	W16
	BYTE		        Cs3 
	BYTE	W16
	BYTE		        Fs2 
	BYTE	W16
	BYTE		        Fs3 
	BYTE	W16
	BYTE		        Cs3 
	BYTE	W16
// 001   ----------------------------------------
NoctumOrder_FINAL_4_001:
	BYTE		N15     Dn2   v127
	BYTE	W16
	BYTE		        Dn3 
	BYTE	W16
	BYTE		        An2 
	BYTE	W16
	BYTE		        Dn2 
	BYTE	W16
	BYTE		        Dn3 
	BYTE	W16
	BYTE		        An2 
	BYTE	W16
	BYTE	PEND
// 002   ----------------------------------------
NoctumOrder_FINAL_4_002:
	BYTE		N15     Bn1   v127
	BYTE	W16
	BYTE		        Bn2 
	BYTE	W16
	BYTE		        Fs2 
	BYTE	W16
	BYTE		        Bn1 
	BYTE	W16
	BYTE		        Bn2 
	BYTE	W16
	BYTE		        Fs2 
	BYTE	W16
	BYTE	PEND
// 003   ----------------------------------------
NoctumOrder_FINAL_4_003:
	BYTE		N15     En2   v127
	BYTE	W16
	BYTE		        Gs2 
	BYTE	W16
	BYTE		        En2 
	BYTE	W16
	BYTE		        Bn1 
	BYTE	W16
	BYTE		        En2 
	BYTE	W16
	BYTE		        Gs2 
	BYTE	W16
	BYTE	PEND
// 004   ----------------------------------------
NoctumOrder_FINAL_4_004:
	BYTE		N15     Fs2   v127
	BYTE	W16
	BYTE		        Fs3 
	BYTE	W16
	BYTE		        Cs3 
	BYTE	W16
	BYTE		        Fs2 
	BYTE	W16
	BYTE		        Fs3 
	BYTE	W16
	BYTE		        Cs3 
	BYTE	W16
	BYTE	PEND
// 005   ----------------------------------------
	BYTE	PATT
	 POIN2	NoctumOrder_FINAL_4_001
// 006   ----------------------------------------
NoctumOrder_FINAL_4_006:
	BYTE		N15     Bn1   v127
	BYTE	W16
	BYTE		        Bn2 
	BYTE	W16
	BYTE		        Fs2 
	BYTE	W16
	BYTE		        Dn2 
	BYTE	W16
	BYTE		        Fs2 
	BYTE	W16
	BYTE		        Ds2 
	BYTE	W16
	BYTE	PEND
// 007   ----------------------------------------
	BYTE	PATT
	 POIN2	NoctumOrder_FINAL_4_003
// 008   ----------------------------------------
	BYTE	PATT
	 POIN2	NoctumOrder_FINAL_4_001
// 009   ----------------------------------------
NoctumOrder_FINAL_4_009:
	BYTE		N15     Fs2   v127
	BYTE	W16
	BYTE		        Cs3 
	BYTE	W16
	BYTE		        An2 
	BYTE	W16
	BYTE		        Fs2 
	BYTE	W16
	BYTE		        Cs3 
	BYTE	W16
	BYTE		        An2 
	BYTE	W16
	BYTE	PEND
// 010   ----------------------------------------
NoctumOrder_FINAL_4_010:
	BYTE		N15     Fn2   v127
	BYTE	W16
	BYTE		        Bn2 
	BYTE	W16
	BYTE		        Gs2 
	BYTE	W16
	BYTE		        Fn2 
	BYTE	W16
	BYTE		        Bn2 
	BYTE	W16
	BYTE		        Gs2 
	BYTE	W16
	BYTE	PEND
// 011   ----------------------------------------
NoctumOrder_FINAL_4_011:
	BYTE		N15     Fs2   v127
	BYTE	W16
	BYTE		        An2 
	BYTE	W16
	BYTE		        Gs2 
	BYTE	W16
	BYTE		        Fs2 
	BYTE	W16
	BYTE		        En2 
	BYTE	W16
	BYTE		        Cs2 
	BYTE	W16
	BYTE	PEND
// 012   ----------------------------------------
	BYTE	PATT
	 POIN2	NoctumOrder_FINAL_4_001
// 013   ----------------------------------------
	BYTE	PATT
	 POIN2	NoctumOrder_FINAL_4_009
// 014   ----------------------------------------
NoctumOrder_FINAL_4_014:
	BYTE		N15     Bn1   v127
	BYTE	W16
	BYTE		        Bn2 
	BYTE	W16
	BYTE		        Fs2 
	BYTE	W16
	BYTE		        Cn2 
	BYTE	W16
	BYTE		        Cn3 
	BYTE	W16
	BYTE		        Gs2 
	BYTE	W16
	BYTE	PEND
// 015   ----------------------------------------
NoctumOrder_FINAL_4_015:
	BYTE		N15     Fs2   v127
	BYTE	W16
	BYTE		        Cs3 
	BYTE	W16
	BYTE		        Gs2 
	BYTE	W16
	BYTE		        Cs2 
	BYTE	W16
	BYTE		        Cs3 
	BYTE	W16
	BYTE		        Gs2 
	BYTE	W16
	BYTE	PEND
// 016   ----------------------------------------
	BYTE	PATT
	 POIN2	NoctumOrder_FINAL_4_004
// 017   ----------------------------------------
	BYTE	PATT
	 POIN2	NoctumOrder_FINAL_4_001
// 018   ----------------------------------------
	BYTE	PATT
	 POIN2	NoctumOrder_FINAL_4_002
// 019   ----------------------------------------
NoctumOrder_FINAL_4_019:
	BYTE		N15     En2   v127
	BYTE	W16
	BYTE		        Bn1 
	BYTE	W16
	BYTE		        En2 
	BYTE	W16
	BYTE		        Gs2 
	BYTE	W16
	BYTE		        Fs2 
	BYTE	W16
	BYTE		        En2 
	BYTE	W16
	BYTE	PEND
// 020   ----------------------------------------
	BYTE	PATT
	 POIN2	NoctumOrder_FINAL_4_004
// 021   ----------------------------------------
	BYTE	PATT
	 POIN2	NoctumOrder_FINAL_4_001
// 022   ----------------------------------------
	BYTE	PATT
	 POIN2	NoctumOrder_FINAL_4_006
// 023   ----------------------------------------
	BYTE	PATT
	 POIN2	NoctumOrder_FINAL_4_019
// 024   ----------------------------------------
	BYTE	PATT
	 POIN2	NoctumOrder_FINAL_4_001
// 025   ----------------------------------------
	BYTE	PATT
	 POIN2	NoctumOrder_FINAL_4_009
// 026   ----------------------------------------
	BYTE	PATT
	 POIN2	NoctumOrder_FINAL_4_010
// 027   ----------------------------------------
	BYTE	PATT
	 POIN2	NoctumOrder_FINAL_4_011
// 028   ----------------------------------------
	BYTE	PATT
	 POIN2	NoctumOrder_FINAL_4_001
// 029   ----------------------------------------
	BYTE	PATT
	 POIN2	NoctumOrder_FINAL_4_009
// 030   ----------------------------------------
	BYTE	PATT
	 POIN2	NoctumOrder_FINAL_4_014
// 031   ----------------------------------------
	BYTE	PATT
	 POIN2	NoctumOrder_FINAL_4_015
	BYTE	GoTo
	 POIN2	NoctumOrder_FINAL_4_B1
NoctumOrder_FINAL_4_B2:
// 032   ----------------------------------------
	BYTE	FINE

//**************** Track 5 (Midi-Chn.5) ****************//

NoctumOrder_FINAL_5:
	BYTE	KEYSH   NoctumOrder_FINAL_key+0
NoctumOrder_FINAL_5_B1:
// 000   ----------------------------------------
	BYTE		VOICE   14
	BYTE		MODT    0
	BYTE		LFOS    44
	BYTE		PAN     c_v-22
	BYTE		VOL     127*NoctumOrder_FINAL_mvl/mxv
	BYTE		N96     An3   v127
	BYTE	W96
// 001   ----------------------------------------
	BYTE		        An3   v100
	BYTE	W96
// 002   ----------------------------------------
	BYTE		        Bn3 
	BYTE	W96
// 003   ----------------------------------------
	BYTE		N96   
	BYTE	W96
// 004   ----------------------------------------
	BYTE		        An3 
	BYTE	W96
// 005   ----------------------------------------
	BYTE		N96   
	BYTE	W96
// 006   ----------------------------------------
	BYTE		        Bn3 
	BYTE	W96
// 007   ----------------------------------------
	BYTE		N96   
	BYTE	W96
// 008   ----------------------------------------
	BYTE		        An3 
	BYTE	W96
// 009   ----------------------------------------
	BYTE		N96   
	BYTE	W96
// 010   ----------------------------------------
	BYTE		        Gs3 
	BYTE	W96
// 011   ----------------------------------------
	BYTE		        An3 
	BYTE	W96
// 012   ----------------------------------------
	BYTE		N96   
	BYTE	W96
// 013   ----------------------------------------
	BYTE		N96   
	BYTE	W96
// 014   ----------------------------------------
	BYTE		N48     Bn3 
	BYTE	W48
	BYTE		        Cn4 
	BYTE	W48
// 015   ----------------------------------------
	BYTE		N90     Cs4 
	BYTE	W96
// 016   ----------------------------------------
	BYTE	W96
// 017   ----------------------------------------
	BYTE	W96
// 018   ----------------------------------------
	BYTE	W96
// 019   ----------------------------------------
	BYTE	W96
// 020   ----------------------------------------
	BYTE	W96
// 021   ----------------------------------------
	BYTE	W96
// 022   ----------------------------------------
	BYTE	W96
// 023   ----------------------------------------
	BYTE	W96
// 024   ----------------------------------------
	BYTE	W96
// 025   ----------------------------------------
	BYTE	W96
// 026   ----------------------------------------
	BYTE	W96
// 027   ----------------------------------------
	BYTE	W96
// 028   ----------------------------------------
	BYTE	W96
// 029   ----------------------------------------
	BYTE	W96
// 030   ----------------------------------------
	BYTE	W96
// 031   ----------------------------------------
	BYTE	W96
	BYTE	GoTo
	 POIN2	NoctumOrder_FINAL_5_B1
NoctumOrder_FINAL_5_B2:
// 032   ----------------------------------------
	BYTE	FINE

//**************** Track 6 (Midi-Chn.6) ****************//

NoctumOrder_FINAL_6:
	BYTE	KEYSH   NoctumOrder_FINAL_key+0
NoctumOrder_FINAL_6_B1:
// 000   ----------------------------------------
	BYTE		VOICE   14
	BYTE		MODT    0
	BYTE		LFOS    44
	BYTE		PAN     c_v-33
	BYTE		VOL     108*NoctumOrder_FINAL_mvl/mxv
	BYTE		TIE     An2   v127
	BYTE	W96
// 001   ----------------------------------------
	BYTE	W84
	BYTE		EOT   
	BYTE	W12
// 002   ----------------------------------------
	BYTE	W96
// 003   ----------------------------------------
	BYTE	W96
// 004   ----------------------------------------
	BYTE	W96
// 005   ----------------------------------------
	BYTE	W96
// 006   ----------------------------------------
	BYTE	W96
// 007   ----------------------------------------
	BYTE	W96
// 008   ----------------------------------------
	BYTE	W96
// 009   ----------------------------------------
	BYTE	W96
// 010   ----------------------------------------
	BYTE	W96
// 011   ----------------------------------------
	BYTE	W96
// 012   ----------------------------------------
	BYTE	W96
// 013   ----------------------------------------
	BYTE	W96
// 014   ----------------------------------------
	BYTE	W96
// 015   ----------------------------------------
	BYTE	W96
// 016   ----------------------------------------
	BYTE		N96     An3   v100
	BYTE	W96
// 017   ----------------------------------------
	BYTE		N96   
	BYTE	W96
// 018   ----------------------------------------
	BYTE		        Bn3 
	BYTE	W96
// 019   ----------------------------------------
NoctumOrder_FINAL_6_019:
	BYTE		N48     Bn3   v100
	BYTE	W48
	BYTE		N42     Gs3 
	BYTE	W48
	BYTE	PEND
// 020   ----------------------------------------
	BYTE		N96     An3 
	BYTE	W96
// 021   ----------------------------------------
	BYTE		N96   
	BYTE	W96
// 022   ----------------------------------------
	BYTE		N48     Bn3 
	BYTE	W48
	BYTE		N24     Cs4 
	BYTE	W24
	BYTE		        Ds4 
	BYTE	W24
// 023   ----------------------------------------
	BYTE	PATT
	 POIN2	NoctumOrder_FINAL_6_019
// 024   ----------------------------------------
	BYTE		N96     An3   v100
	BYTE	W96
// 025   ----------------------------------------
	BYTE		N96   
	BYTE	W96
// 026   ----------------------------------------
	BYTE		        Gs3 
	BYTE	W96
// 027   ----------------------------------------
	BYTE		        An3 
	BYTE	W96
// 028   ----------------------------------------
	BYTE		N96   
	BYTE	W96
// 029   ----------------------------------------
	BYTE		N96   
	BYTE	W96
// 030   ----------------------------------------
	BYTE		N48     Bn3 
	BYTE	W48
	BYTE		        Cn4 
	BYTE	W48
// 031   ----------------------------------------
	BYTE		N90     Cs4 
	BYTE	W96
	BYTE	GoTo
	 POIN2	NoctumOrder_FINAL_6_B1
NoctumOrder_FINAL_6_B2:
// 032   ----------------------------------------
	BYTE	FINE

//**************** Track 7 (Midi-Chn.7) ****************//

NoctumOrder_FINAL_7:
	BYTE	KEYSH   NoctumOrder_FINAL_key+0
NoctumOrder_FINAL_7_B1:
// 000   ----------------------------------------
	BYTE		VOICE   1
	BYTE		MODT    0
	BYTE		LFOS    44
	BYTE		VOL     105*NoctumOrder_FINAL_mvl/mxv
	BYTE		PAN     c_v+33
	BYTE	W96
// 001   ----------------------------------------
	BYTE	W96
// 002   ----------------------------------------
	BYTE	W96
// 003   ----------------------------------------
	BYTE	W96
// 004   ----------------------------------------
	BYTE	W96
// 005   ----------------------------------------
	BYTE	W96
// 006   ----------------------------------------
	BYTE	W96
// 007   ----------------------------------------
	BYTE	W96
// 008   ----------------------------------------
	BYTE	W96
// 009   ----------------------------------------
	BYTE	W96
// 010   ----------------------------------------
	BYTE	W96
// 011   ----------------------------------------
	BYTE	W96
// 012   ----------------------------------------
	BYTE	W96
// 013   ----------------------------------------
	BYTE	W96
// 014   ----------------------------------------
	BYTE	W96
// 015   ----------------------------------------
	BYTE	W96
// 016   ----------------------------------------
	BYTE	W96
// 017   ----------------------------------------
	BYTE	W96
// 018   ----------------------------------------
	BYTE	W96
// 019   ----------------------------------------
	BYTE	W96
// 020   ----------------------------------------
	BYTE	W96
// 021   ----------------------------------------
	BYTE	W96
// 022   ----------------------------------------
	BYTE	W96
// 023   ----------------------------------------
	BYTE	W96
// 024   ----------------------------------------
	BYTE		N42     Gn4   v127
	BYTE	W48
	BYTE		N15     As4 
	BYTE	W16
	BYTE		        Gs4 
	BYTE	W16
	BYTE		        Gn4 
	BYTE	W16
// 025   ----------------------------------------
	BYTE		N32     Fn4 
	BYTE	W36
	BYTE		N11     Ds4 
	BYTE	W12
	BYTE		N20     Dn4 
	BYTE	W24
	BYTE		N12     Ds4 
	BYTE	W12
	BYTE		        Fn4 
	BYTE	W12
// 026   ----------------------------------------
	BYTE		N42     Gn4 
	BYTE	W48
	BYTE		N15     Gs4 
	BYTE	W16
	BYTE		        As4 
	BYTE	W16
	BYTE		        Cn5 
	BYTE	W16
// 027   ----------------------------------------
	BYTE		N32     As4 
	BYTE	W36
	BYTE		N11     Gs4 
	BYTE	W12
	BYTE		N15     Gn4 
	BYTE	W16
	BYTE		        Fn4 
	BYTE	W16
	BYTE		        Dn4 
	BYTE	W16
// 028   ----------------------------------------
	BYTE		N32     Ds4 
	BYTE	W36
	BYTE		N11     Dn4 
	BYTE	W12
	BYTE		N24     Cn4 
	BYTE	W24
	BYTE		        Ds4 
	BYTE	W24
// 029   ----------------------------------------
	BYTE		N36     Dn4 
	BYTE	W36
	BYTE		N11     Ds4 
	BYTE	W12
	BYTE		N15     Fn4 
	BYTE	W16
	BYTE		        Ds4 
	BYTE	W16
	BYTE		        Dn4 
	BYTE	W16
// 030   ----------------------------------------
	BYTE		N42     Cn4 
	BYTE	W48
	BYTE		        Ds4 
	BYTE	W48
// 031   ----------------------------------------
	BYTE		N96     Dn4 
	BYTE	W96
	BYTE	GoTo
	 POIN2	NoctumOrder_FINAL_7_B1
NoctumOrder_FINAL_7_B2:
// 032   ----------------------------------------
	BYTE	FINE

//**************** Track 8 (Midi-Chn.8) ****************//

NoctumOrder_FINAL_8:
	BYTE	KEYSH   NoctumOrder_FINAL_key+0
NoctumOrder_FINAL_8_B1:
// 000   ----------------------------------------
	BYTE		VOICE   122
	BYTE		MODT    0
	BYTE		LFOS    44
	BYTE		VOL     114*NoctumOrder_FINAL_mvl/mxv
	BYTE		PAN     c_v+0
	BYTE		N11     Fs1   v076
	BYTE	W12
	BYTE		N05     Gs1 
	BYTE	W06
	BYTE		N05   
	BYTE	W06
	BYTE		N20     As1 
	BYTE	W24
	BYTE		N11     Cn1 
	BYTE		N11     Fs1 
	BYTE	W12
	BYTE		        Gs1 
	BYTE	W12
	BYTE		        Cs1 
	BYTE		N11     As1 
	BYTE	W12
	BYTE		        Cn1 
	BYTE		N11     Gs1 
	BYTE	W12
// 001   ----------------------------------------
NoctumOrder_FINAL_8_001:
	BYTE		N11     Cn1   v076
	BYTE		N11     Fs1 
	BYTE	W12
	BYTE		        Gs1 
	BYTE	W12
	BYTE		        Cs1 
	BYTE		N11     As1 
	BYTE	W12
	BYTE		        Gs1 
	BYTE	W12
	BYTE		        Cn1 
	BYTE		N11     Fs1 
	BYTE	W12
	BYTE		        Gs1 
	BYTE	W12
	BYTE		        Cs1 
	BYTE		N11     As1 
	BYTE	W12
	BYTE		        Cn1 
	BYTE		N11     Gs1 
	BYTE	W12
	BYTE	PEND
// 002   ----------------------------------------
	BYTE	PATT
	 POIN2	NoctumOrder_FINAL_8_001
// 003   ----------------------------------------
	BYTE	PATT
	 POIN2	NoctumOrder_FINAL_8_001
// 004   ----------------------------------------
	BYTE	PATT
	 POIN2	NoctumOrder_FINAL_8_001
// 005   ----------------------------------------
	BYTE	PATT
	 POIN2	NoctumOrder_FINAL_8_001
// 006   ----------------------------------------
	BYTE	PATT
	 POIN2	NoctumOrder_FINAL_8_001
// 007   ----------------------------------------
	BYTE	PATT
	 POIN2	NoctumOrder_FINAL_8_001
// 008   ----------------------------------------
	BYTE		N11     Cn1   v076
	BYTE		N11     Fs1 
	BYTE	W12
	BYTE		N05     Gs1 
	BYTE	W06
	BYTE		N05   
	BYTE	W06
	BYTE		N11     Cs1 
	BYTE		N11     As1 
	BYTE	W12
	BYTE		        Cn1 
	BYTE		N11     Gs1 
	BYTE	W12
	BYTE		        Cn1 
	BYTE		N11     Fs1 
	BYTE	W12
	BYTE		        Gs1 
	BYTE	W12
	BYTE		        Cs1 
	BYTE		N11     As1 
	BYTE	W12
	BYTE		        Cn1 
	BYTE		N11     Gs1 
	BYTE	W12
// 009   ----------------------------------------
	BYTE	PATT
	 POIN2	NoctumOrder_FINAL_8_001
// 010   ----------------------------------------
	BYTE	PATT
	 POIN2	NoctumOrder_FINAL_8_001
// 011   ----------------------------------------
	BYTE	PATT
	 POIN2	NoctumOrder_FINAL_8_001
// 012   ----------------------------------------
	BYTE	PATT
	 POIN2	NoctumOrder_FINAL_8_001
// 013   ----------------------------------------
	BYTE	PATT
	 POIN2	NoctumOrder_FINAL_8_001
// 014   ----------------------------------------
	BYTE	PATT
	 POIN2	NoctumOrder_FINAL_8_001
// 015   ----------------------------------------
	BYTE	PATT
	 POIN2	NoctumOrder_FINAL_8_001
// 016   ----------------------------------------
	BYTE		N11     Cn1   v076
	BYTE		N11     Fs1 
	BYTE	W12
	BYTE		N05     Gs1 
	BYTE	W06
	BYTE		N05   
	BYTE	W06
	BYTE		N11     Cs1 
	BYTE		N11     As1 
	BYTE	W12
	BYTE		        Cn1 
	BYTE		N11     Gs1 
	BYTE	W12
	BYTE		N20     Fs1 
	BYTE	W24
	BYTE		N20   
	BYTE	W24
// 017   ----------------------------------------
NoctumOrder_FINAL_8_017:
	BYTE		N11     Fs1   v076
	BYTE	W12
	BYTE		N05   
	BYTE	W06
	BYTE		        Gs1 
	BYTE	W06
	BYTE		N11     As1 
	BYTE	W12
	BYTE		        Gs1 
	BYTE	W12
	BYTE		N20     Fs1 
	BYTE	W24
	BYTE		N20   
	BYTE	W24
	BYTE	PEND
// 018   ----------------------------------------
	BYTE	PATT
	 POIN2	NoctumOrder_FINAL_8_017
// 019   ----------------------------------------
	BYTE	PATT
	 POIN2	NoctumOrder_FINAL_8_017
// 020   ----------------------------------------
	BYTE	PATT
	 POIN2	NoctumOrder_FINAL_8_017
// 021   ----------------------------------------
	BYTE	PATT
	 POIN2	NoctumOrder_FINAL_8_017
// 022   ----------------------------------------
	BYTE	PATT
	 POIN2	NoctumOrder_FINAL_8_017
// 023   ----------------------------------------
	BYTE	PATT
	 POIN2	NoctumOrder_FINAL_8_017
// 024   ----------------------------------------
	BYTE		N11     Fs1   v076
	BYTE	W12
	BYTE		N05     Gs1 
	BYTE	W06
	BYTE		N05   
	BYTE	W06
	BYTE		N20     As1 
	BYTE	W24
	BYTE		N11     Cn1 
	BYTE		N11     Fs1 
	BYTE	W12
	BYTE		        Gs1 
	BYTE	W12
	BYTE		        Cs1 
	BYTE		N11     As1 
	BYTE	W12
	BYTE		        Cn1 
	BYTE		N11     Gs1 
	BYTE	W12
// 025   ----------------------------------------
	BYTE	PATT
	 POIN2	NoctumOrder_FINAL_8_001
// 026   ----------------------------------------
	BYTE	PATT
	 POIN2	NoctumOrder_FINAL_8_001
// 027   ----------------------------------------
	BYTE	PATT
	 POIN2	NoctumOrder_FINAL_8_001
// 028   ----------------------------------------
	BYTE	PATT
	 POIN2	NoctumOrder_FINAL_8_001
// 029   ----------------------------------------
	BYTE	PATT
	 POIN2	NoctumOrder_FINAL_8_001
// 030   ----------------------------------------
	BYTE	PATT
	 POIN2	NoctumOrder_FINAL_8_001
// 031   ----------------------------------------
	BYTE	PATT
	 POIN2	NoctumOrder_FINAL_8_001
	BYTE	GoTo
	 POIN2	NoctumOrder_FINAL_8_B1
NoctumOrder_FINAL_8_B2:
// 032   ----------------------------------------
	BYTE	FINE

//******************************************************//
	ALIGN 4

NoctumOrder_FINAL:
	BYTE	8	// NumTrks
	BYTE	0	// NumBlks
	BYTE	NoctumOrder_FINAL_pri	// Priority
	BYTE	NoctumOrder_FINAL_rev	// Reverb.

	POIN2	NoctumOrder_FINAL_grp

	POIN2	NoctumOrder_FINAL_1
	POIN2	NoctumOrder_FINAL_2
	POIN2	NoctumOrder_FINAL_3
	POIN2	NoctumOrder_FINAL_4
	POIN2	NoctumOrder_FINAL_5
	POIN2	NoctumOrder_FINAL_6
	POIN2	NoctumOrder_FINAL_7
	POIN2	NoctumOrder_FINAL_8

	
