//Event file generated from Sappy .s format.
	#include "MPlayDef.event"

	#define	Part3Battle_FINAL_grp  voicegroup000
	#define	Part3Battle_FINAL_pri  0
	#define	Part3Battle_FINAL_rev  0x94
	#define	Part3Battle_FINAL_mvl  28
	#define	Part3Battle_FINAL_key  0
	#define	Part3Battle_FINAL_tbs  1
	#define	Part3Battle_FINAL_exg  0
	#define	Part3Battle_FINAL_cmp  1

	// .rodata
	//	Part3Battle_FINAL
	ALIGN 4

//**************** Track 1 (Midi-Chn.1) ****************//

Part3Battle_FINAL_1:
	BYTE	KEYSH   Part3Battle_FINAL_key+0
Part3Battle_FINAL_1_B1:
// 000   ----------------------------------------
	BYTE	TEMPO   145*Part3Battle_FINAL_tbs/2
	BYTE		VOICE   40
	BYTE		MODT    0
	BYTE		LFOS    44
	BYTE		VOL     109*Part3Battle_FINAL_mvl/mxv
	BYTE		PAN     c_v+14
	BYTE		N32     Cn4   v127
	BYTE	W36
	BYTE		N11     En4 
	BYTE	W12
	BYTE		N20     Bn3 
	BYTE	W24
	BYTE		N11     Cn4 
	BYTE	W12
	BYTE		        Dn4 
	BYTE	W12
// 001   ----------------------------------------
	BYTE		N32     Cn4 
	BYTE	W36
	BYTE		N11     An3 
	BYTE	W12
	BYTE		        Fn3 
	BYTE	W12
	BYTE		        Gn3 
	BYTE	W12
	BYTE		        An3 
	BYTE	W12
	BYTE		        Cn4 
	BYTE	W12
// 002   ----------------------------------------
	BYTE		N32     Bn3 
	BYTE	W36
	BYTE		N11     An3 
	BYTE	W12
	BYTE		N20     Gn3 
	BYTE	W24
	BYTE		        Fs3 
	BYTE	W24
// 003   ----------------------------------------
	BYTE		N11     En3 
	BYTE	W12
	BYTE		        Dn3 
	BYTE	W12
	BYTE		        En3 
	BYTE	W12
	BYTE		        Gn3 
	BYTE	W12
	BYTE		        Fn3 
	BYTE	W12
	BYTE		        Gn3 
	BYTE	W12
	BYTE		        An3 
	BYTE	W12
	BYTE		        Bn3 
	BYTE	W12
// 004   ----------------------------------------
	BYTE		        Cn4 
	BYTE	W12
	BYTE		        Bn3 
	BYTE	W12
	BYTE		        An3 
	BYTE	W12
	BYTE		        Gn3 
	BYTE	W12
	BYTE		N20     Bn3 
	BYTE	W24
	BYTE		N11     Cn4 
	BYTE	W12
	BYTE		        Dn4 
	BYTE	W12
// 005   ----------------------------------------
	BYTE		N20     Cn4 
	BYTE	W24
	BYTE		        An3 
	BYTE	W24
	BYTE		N11     Fn3 
	BYTE	W12
	BYTE		        Gn3 
	BYTE	W12
	BYTE		        An3 
	BYTE	W12
	BYTE		        Fn3 
	BYTE	W12
// 006   ----------------------------------------
	BYTE		N20     En3 
	BYTE	W24
	BYTE		        Gn3 
	BYTE	W24
	BYTE		N11     Fs3 
	BYTE	W12
	BYTE		        Gn3 
	BYTE	W12
	BYTE		        An3 
	BYTE	W12
	BYTE		        Cn4 
	BYTE	W12
// 007   ----------------------------------------
	BYTE		N20     Bn3 
	BYTE	W24
	BYTE		        Cn4 
	BYTE	W24
	BYTE		N42     Dn4 
	BYTE	W48
// 008   ----------------------------------------
	BYTE		PAN     c_v+14
	BYTE		N32     Cn4 
	BYTE	W36
	BYTE		N11     En4 
	BYTE	W12
	BYTE		N20     Bn3 
	BYTE	W24
	BYTE		N11     Cn4 
	BYTE	W12
	BYTE		        Dn4 
	BYTE	W12
// 009   ----------------------------------------
	BYTE		N32     Cn4 
	BYTE	W36
	BYTE		N11     An3 
	BYTE	W12
	BYTE		        Fn3 
	BYTE	W12
	BYTE		        Gn3 
	BYTE	W12
	BYTE		        An3 
	BYTE	W12
	BYTE		        Gn3 
	BYTE	W12
// 010   ----------------------------------------
	BYTE		N32     Fn3 
	BYTE	W36
	BYTE		N11     Gn3 
	BYTE	W12
	BYTE		N20     An3 
	BYTE	W24
	BYTE		        Cn4 
	BYTE	W24
// 011   ----------------------------------------
	BYTE		N11     Bn3 
	BYTE	W12
	BYTE		        Gn3 
	BYTE	W12
	BYTE		        Bn3 
	BYTE	W12
	BYTE		        Cn4 
	BYTE	W12
	BYTE		N20     Bn3 
	BYTE	W24
	BYTE		N11     Gn3 
	BYTE	W12
	BYTE		        An3 
	BYTE	W12
// 012   ----------------------------------------
	BYTE		N32     As3 
	BYTE	W36
	BYTE		N11     Cn4 
	BYTE	W12
	BYTE		        Dn4 
	BYTE	W12
	BYTE		        En4 
	BYTE	W12
	BYTE		        Fn4 
	BYTE	W12
	BYTE		        Dn4 
	BYTE	W12
// 013   ----------------------------------------
	BYTE		N32     Cn4 
	BYTE	W36
	BYTE		N11     Gn3 
	BYTE	W12
	BYTE		        En3 
	BYTE	W12
	BYTE		        Fn3 
	BYTE	W12
	BYTE		        Gn3 
	BYTE	W12
	BYTE		        Cn4 
	BYTE	W12
// 014   ----------------------------------------
	BYTE		        An3 
	BYTE	W12
	BYTE		        Gn3 
	BYTE	W12
	BYTE		        Fn3 
	BYTE	W12
	BYTE		        Gn3 
	BYTE	W12
	BYTE		N20     An3 
	BYTE	W24
	BYTE		N11     Cn4 
	BYTE	W12
	BYTE		        An3 
	BYTE	W12
// 015   ----------------------------------------
	BYTE		        Fn3 
	BYTE	W12
	BYTE		        Gn3 
	BYTE	W12
	BYTE		        An3 
	BYTE	W12
	BYTE		        Cn4 
	BYTE	W12
	BYTE		N42     Dn4 
	BYTE	W48
// 016   ----------------------------------------
	BYTE	W96
// 017   ----------------------------------------
	BYTE	W96
// 018   ----------------------------------------
	BYTE	W96
// 019   ----------------------------------------
	BYTE	W96
// 020   ----------------------------------------
	BYTE	W96
// 021   ----------------------------------------
	BYTE	W96
// 022   ----------------------------------------
	BYTE	W96
// 023   ----------------------------------------
	BYTE	W96
// 024   ----------------------------------------
	BYTE	W96
// 025   ----------------------------------------
	BYTE	W96
// 026   ----------------------------------------
	BYTE	W96
// 027   ----------------------------------------
	BYTE	W96
// 028   ----------------------------------------
	BYTE	W96
// 029   ----------------------------------------
	BYTE	W96
// 030   ----------------------------------------
	BYTE	W96
// 031   ----------------------------------------
	BYTE	W96
// 032   ----------------------------------------
	BYTE	W96
// 033   ----------------------------------------
	BYTE	W96
// 034   ----------------------------------------
	BYTE	W96
// 035   ----------------------------------------
	BYTE	W96
	BYTE	GoTo
	 POIN2	Part3Battle_FINAL_1_B1
Part3Battle_FINAL_1_B2:
// 036   ----------------------------------------
	BYTE	FINE

//**************** Track 2 (Midi-Chn.2) ****************//

Part3Battle_FINAL_2:
	BYTE	KEYSH   Part3Battle_FINAL_key+0
Part3Battle_FINAL_2_B1:
// 000   ----------------------------------------
	BYTE		VOICE   124
	BYTE		MODT    0
	BYTE		LFOS    44
	BYTE		VOL     95*Part3Battle_FINAL_mvl/mxv
	BYTE		PAN     c_v+0
	BYTE		        c_v+12
	BYTE		BEND    c_v+0
	BYTE		N05     En1   v127
	BYTE		N96     Cs2 
	BYTE		N05     Dn2 
	BYTE		N12     An2 
	BYTE	W06
	BYTE		N05     Cn2 
	BYTE	W06
	BYTE		        En1 
	BYTE		N05     Bn1 
	BYTE		N12     An2 
	BYTE	W06
	BYTE		N05     En1 
	BYTE		N05     Bn1 
	BYTE	W06
	BYTE		N11     Bn0 
	BYTE		N11     Cn1 
	BYTE		N11     As1 
	BYTE		N72     An2 
	BYTE	W12
	BYTE		N05     Fs1 
	BYTE	W06
	BYTE		N05   
	BYTE	W06
	BYTE		N11     Dn1 
	BYTE		N11     En1 
	BYTE		N11     As1 
	BYTE	W12
	BYTE		N05     Fs1 
	BYTE	W06
	BYTE		        Bn0 
	BYTE		N05     Cn1 
	BYTE		N05     Fs1 
	BYTE	W06
	BYTE		N11     Bn0 
	BYTE		N11     Cn1 
	BYTE		N11     As1 
	BYTE	W12
	BYTE		N05     Bn0 
	BYTE		N05     Cn1 
	BYTE		N05     Fs1 
	BYTE	W06
	BYTE		N05   
	BYTE	W06
// 001   ----------------------------------------
Part3Battle_FINAL_2_001:
	BYTE		N11     Dn1   v127
	BYTE		N11     En1 
	BYTE		N11     As1 
	BYTE	W12
	BYTE		N05     Bn0 
	BYTE		N05     Cn1 
	BYTE		N05     Fs1 
	BYTE	W06
	BYTE		N05   
	BYTE	W06
	BYTE		N11     Bn0 
	BYTE		N11     Cn1 
	BYTE		N11     As1 
	BYTE	W12
	BYTE		N05     Fs1 
	BYTE	W06
	BYTE		N05   
	BYTE	W06
	BYTE		N11     Dn1 
	BYTE		N11     En1 
	BYTE		N11     As1 
	BYTE	W12
	BYTE		N05     Fs1 
	BYTE	W06
	BYTE		        Bn0 
	BYTE		N05     Cn1 
	BYTE		N05     Fs1 
	BYTE	W06
	BYTE		N11     Bn0 
	BYTE		N11     Cn1 
	BYTE		N11     As1 
	BYTE	W12
	BYTE		N05     Bn0 
	BYTE		N05     Cn1 
	BYTE		N05     Fs1 
	BYTE	W06
	BYTE		N05   
	BYTE	W06
	BYTE	PEND
// 002   ----------------------------------------
Part3Battle_FINAL_2_002:
	BYTE		N05     Dn1   v127
	BYTE		N05     En1 
	BYTE		N05     As1 
	BYTE	W06
	BYTE		        Bn0 
	BYTE		N05     Cn1 
	BYTE	W06
	BYTE		        Fs1 
	BYTE	W06
	BYTE		        Bn0 
	BYTE		N05     Cn1 
	BYTE		N05     Fs1 
	BYTE	W06
	BYTE		N11     Bn0 
	BYTE		N11     Cn1 
	BYTE		N11     As1 
	BYTE	W12
	BYTE		N05     Fs1 
	BYTE	W06
	BYTE		N05   
	BYTE	W06
	BYTE		N11     Dn1 
	BYTE		N11     En1 
	BYTE		N11     As1 
	BYTE	W12
	BYTE		N05     Fs1 
	BYTE	W06
	BYTE		        Bn0 
	BYTE		N05     Cn1 
	BYTE		N05     Fs1 
	BYTE	W06
	BYTE		N11     Bn0 
	BYTE		N11     Cn1 
	BYTE		N11     As1 
	BYTE	W12
	BYTE		N05     Bn0 
	BYTE		N05     Cn1 
	BYTE		N05     Fs1 
	BYTE	W06
	BYTE		N05   
	BYTE	W06
	BYTE	PEND
// 003   ----------------------------------------
	BYTE	PATT
	 POIN2	Part3Battle_FINAL_2_001
// 004   ----------------------------------------
	BYTE	PATT
	 POIN2	Part3Battle_FINAL_2_002
// 005   ----------------------------------------
	BYTE	PATT
	 POIN2	Part3Battle_FINAL_2_001
// 006   ----------------------------------------
	BYTE	PATT
	 POIN2	Part3Battle_FINAL_2_002
// 007   ----------------------------------------
	BYTE	PATT
	 POIN2	Part3Battle_FINAL_2_001
// 008   ----------------------------------------
Part3Battle_FINAL_2_008:
	BYTE		N05     Dn1   v127
	BYTE		N05     En1 
	BYTE		N05     As1 
	BYTE	W06
	BYTE		        Bn0 
	BYTE		N05     Cn1 
	BYTE	W06
	BYTE		        Dn1 
	BYTE		N05     En1 
	BYTE		N05     Fs1 
	BYTE	W06
	BYTE		        Bn0 
	BYTE		N05     Cn1 
	BYTE		N05     Dn1 
	BYTE		N05     En1 
	BYTE		N05     Fs1 
	BYTE	W06
	BYTE		N11     Bn0 
	BYTE		N11     Cn1 
	BYTE		N11     As1 
	BYTE		N11     An2 
	BYTE	W12
	BYTE		N05     Fs1 
	BYTE	W06
	BYTE		N05   
	BYTE	W06
	BYTE		N11     Dn1 
	BYTE		N11     En1 
	BYTE		N11     As1 
	BYTE	W12
	BYTE		N05     Fs1 
	BYTE	W06
	BYTE		        Bn0 
	BYTE		N05     Cn1 
	BYTE		N05     Fs1 
	BYTE	W06
	BYTE		N11     Bn0 
	BYTE		N11     Cn1 
	BYTE		N11     As1 
	BYTE	W12
	BYTE		N05     Bn0 
	BYTE		N05     Cn1 
	BYTE		N05     Fs1 
	BYTE	W06
	BYTE		N05   
	BYTE	W06
	BYTE	PEND
// 009   ----------------------------------------
	BYTE	PATT
	 POIN2	Part3Battle_FINAL_2_001
// 010   ----------------------------------------
	BYTE	PATT
	 POIN2	Part3Battle_FINAL_2_002
// 011   ----------------------------------------
	BYTE	PATT
	 POIN2	Part3Battle_FINAL_2_001
// 012   ----------------------------------------
	BYTE	PATT
	 POIN2	Part3Battle_FINAL_2_002
// 013   ----------------------------------------
	BYTE	PATT
	 POIN2	Part3Battle_FINAL_2_001
// 014   ----------------------------------------
	BYTE	PATT
	 POIN2	Part3Battle_FINAL_2_002
// 015   ----------------------------------------
	BYTE	PATT
	 POIN2	Part3Battle_FINAL_2_001
// 016   ----------------------------------------
	BYTE	PATT
	 POIN2	Part3Battle_FINAL_2_008
// 017   ----------------------------------------
	BYTE	PATT
	 POIN2	Part3Battle_FINAL_2_001
// 018   ----------------------------------------
	BYTE	PATT
	 POIN2	Part3Battle_FINAL_2_002
// 019   ----------------------------------------
	BYTE	PATT
	 POIN2	Part3Battle_FINAL_2_001
// 020   ----------------------------------------
	BYTE	PATT
	 POIN2	Part3Battle_FINAL_2_002
// 021   ----------------------------------------
	BYTE	PATT
	 POIN2	Part3Battle_FINAL_2_001
// 022   ----------------------------------------
	BYTE	PATT
	 POIN2	Part3Battle_FINAL_2_002
// 023   ----------------------------------------
	BYTE	PATT
	 POIN2	Part3Battle_FINAL_2_001
// 024   ----------------------------------------
	BYTE		N05     Dn1   v127
	BYTE		N05     En1 
	BYTE		N05     As1 
	BYTE	W06
	BYTE		        Bn0 
	BYTE		N05     Cn1 
	BYTE	W06
	BYTE		        Dn1 
	BYTE		N05     En1 
	BYTE		N05     Fs1 
	BYTE	W06
	BYTE		        Bn0 
	BYTE		N05     Cn1 
	BYTE		N05     Dn1 
	BYTE		N05     En1 
	BYTE		N05     Fs1 
	BYTE	W06
	BYTE		N11     Bn0 
	BYTE		N11     Cn1 
	BYTE		N11     As1 
	BYTE		N90     An2 
	BYTE	W12
	BYTE		N05     Fs1 
	BYTE	W06
	BYTE		N05   
	BYTE	W06
	BYTE		N11     As1 
	BYTE	W12
	BYTE		N05     Fs1 
	BYTE	W06
	BYTE		N05   
	BYTE	W06
	BYTE		N11     As1 
	BYTE	W12
	BYTE		N05     Fs1 
	BYTE	W06
	BYTE		N05   
	BYTE	W06
// 025   ----------------------------------------
Part3Battle_FINAL_2_025:
	BYTE		N11     As1   v127
	BYTE	W12
	BYTE		N05     Fs1 
	BYTE	W06
	BYTE		N05   
	BYTE	W06
	BYTE		N11     As1 
	BYTE	W12
	BYTE		N05     Fs1 
	BYTE	W06
	BYTE		N05   
	BYTE	W06
	BYTE		N11     As1 
	BYTE	W12
	BYTE		N05     Fs1 
	BYTE	W06
	BYTE		N05   
	BYTE	W06
	BYTE		N11     As1 
	BYTE	W12
	BYTE		N05     Fs1 
	BYTE	W06
	BYTE		N05   
	BYTE	W06
	BYTE	PEND
// 026   ----------------------------------------
	BYTE		N11     As1 
	BYTE	W12
	BYTE		N05     Bn0 
	BYTE		N05     Cn1 
	BYTE		N05     Fs1 
	BYTE	W06
	BYTE		N05   
	BYTE	W06
	BYTE		N11     Bn0 
	BYTE		N11     Cn1 
	BYTE		N11     As1 
	BYTE	W12
	BYTE		N05     Fs1 
	BYTE	W06
	BYTE		N05   
	BYTE	W06
	BYTE		N11     As1 
	BYTE	W12
	BYTE		N05     Fs1 
	BYTE	W06
	BYTE		N05   
	BYTE	W06
	BYTE		N11     As1 
	BYTE	W12
	BYTE		N05     Fs1 
	BYTE	W06
	BYTE		N05   
	BYTE	W06
// 027   ----------------------------------------
	BYTE	PATT
	 POIN2	Part3Battle_FINAL_2_025
// 028   ----------------------------------------
	BYTE		N05     As1   v127
	BYTE		N05     Dn2 
	BYTE	W06
	BYTE		        Cn2 
	BYTE	W06
	BYTE		        Bn0 
	BYTE		N05     Cn1 
	BYTE		N05     Fs1 
	BYTE		N05     Bn1 
	BYTE	W06
	BYTE		        Fs1 
	BYTE		N05     An1 
	BYTE	W06
	BYTE		N11     Bn0 
	BYTE		N11     Cn1 
	BYTE		N11     As1 
	BYTE		N11     An2 
	BYTE	W12
	BYTE		N05     Fs1 
	BYTE	W06
	BYTE		N05   
	BYTE	W06
	BYTE		N11     Dn1 
	BYTE		N11     En1 
	BYTE		N11     As1 
	BYTE	W12
	BYTE		N05     Fs1 
	BYTE	W06
	BYTE		        Bn0 
	BYTE		N05     Cn1 
	BYTE		N05     Fs1 
	BYTE	W06
	BYTE		N11     Bn0 
	BYTE		N11     Cn1 
	BYTE		N11     As1 
	BYTE	W12
	BYTE		N05     Bn0 
	BYTE		N05     Cn1 
	BYTE		N05     Fs1 
	BYTE	W06
	BYTE		N05   
	BYTE	W06
// 029   ----------------------------------------
	BYTE	PATT
	 POIN2	Part3Battle_FINAL_2_001
// 030   ----------------------------------------
	BYTE	PATT
	 POIN2	Part3Battle_FINAL_2_002
// 031   ----------------------------------------
	BYTE	PATT
	 POIN2	Part3Battle_FINAL_2_001
// 032   ----------------------------------------
	BYTE		N05     Dn1   v127
	BYTE		N05     En1 
	BYTE		N05     As1 
	BYTE	W06
	BYTE		        Bn0 
	BYTE		N05     Cn1 
	BYTE	W06
	BYTE		        Fs1 
	BYTE	W06
	BYTE		        Bn0 
	BYTE		N05     Cn1 
	BYTE		N05     Fs1 
	BYTE	W06
	BYTE		N11     Bn0 
	BYTE		N11     Cn1 
	BYTE		N11     As1 
	BYTE	W12
	BYTE		N05     Fs1 
	BYTE	W06
	BYTE		N05   
	BYTE	W06
	BYTE		N11     Dn1 
	BYTE		N11     En1 
	BYTE		N11     As1 
	BYTE	W12
	BYTE		N05     Fs1 
	BYTE	W06
	BYTE		        Bn0 
	BYTE		N05     Cn1 
	BYTE		N05     Fs1 
	BYTE	W06
	BYTE		N11     Bn0 
	BYTE		N11     Cn1 
	BYTE		N11     As1 
	BYTE	W12
	BYTE		N05     Bn0 
	BYTE		N05     Cn1 
	BYTE		N05     Fs1 
	BYTE	W06
	BYTE		N05   
	BYTE	W05
	BYTE		BEND    c_v+0
	BYTE	W01
// 033   ----------------------------------------
	BYTE	PATT
	 POIN2	Part3Battle_FINAL_2_001
// 034   ----------------------------------------
	BYTE	PATT
	 POIN2	Part3Battle_FINAL_2_002
// 035   ----------------------------------------
	BYTE		N11     Dn1   v127
	BYTE		N11     En1 
	BYTE		N11     As1 
	BYTE	W12
	BYTE		N05     Bn0 
	BYTE		N05     Cn1 
	BYTE		N05     Fs1 
	BYTE	W06
	BYTE		N05   
	BYTE	W06
	BYTE		N11     Bn0 
	BYTE		N11     Cn1 
	BYTE		N11     As1 
	BYTE	W12
	BYTE		N05     Fs1 
	BYTE	W06
	BYTE		N05   
	BYTE	W06
	BYTE		N11     Dn1 
	BYTE		N11     En1 
	BYTE		N11     As1 
	BYTE	W12
	BYTE		N05     Fs1 
	BYTE	W06
	BYTE		        Bn0 
	BYTE		N05     Cn1 
	BYTE		N05     Fs1 
	BYTE	W06
	BYTE		        En1 
	BYTE		N05     Dn2 
	BYTE		N05     An2 
	BYTE	W06
	BYTE		        Dn2 
	BYTE	W06
	BYTE		        Cn1 
	BYTE		N05     Cn2 
	BYTE	W06
	BYTE		N05   
	BYTE	W05
	BYTE		BEND    c_v+0
	BYTE	W01
	BYTE	GoTo
	 POIN2	Part3Battle_FINAL_2_B1
Part3Battle_FINAL_2_B2:
// 036   ----------------------------------------
	BYTE		PAN     c_v+0
	BYTE	FINE

//**************** Track 3 (Midi-Chn.3) ****************//

Part3Battle_FINAL_3:
	BYTE	KEYSH   Part3Battle_FINAL_key+0
Part3Battle_FINAL_3_B1:
// 000   ----------------------------------------
	BYTE		VOICE   100
	BYTE		MODT    0
	BYTE		LFOS    44
	BYTE		PAN     c_v-14
	BYTE		VOL     85*Part3Battle_FINAL_mvl/mxv
	BYTE		PAN     c_v-14
	BYTE		N32     Cn4   v127
	BYTE	W36
	BYTE		N11     En4 
	BYTE	W12
	BYTE		N20     Bn3 
	BYTE	W24
	BYTE		N11     Cn4 
	BYTE	W12
	BYTE		        Dn4 
	BYTE	W12
// 001   ----------------------------------------
	BYTE		N32     Cn4 
	BYTE	W36
	BYTE		N11     An3 
	BYTE	W12
	BYTE		        Fn3 
	BYTE	W12
	BYTE		        Gn3 
	BYTE	W12
	BYTE		        An3 
	BYTE	W12
	BYTE		        Cn4 
	BYTE	W12
// 002   ----------------------------------------
	BYTE		N32     Bn3 
	BYTE	W36
	BYTE		N11     An3 
	BYTE	W12
	BYTE		N20     Gn3 
	BYTE	W24
	BYTE		        Fs3 
	BYTE	W24
// 003   ----------------------------------------
	BYTE		N11     En3 
	BYTE	W12
	BYTE		        Dn3 
	BYTE	W12
	BYTE		        En3 
	BYTE	W12
	BYTE		        Gn3 
	BYTE	W12
	BYTE		        Fn3 
	BYTE	W12
	BYTE		        Gn3 
	BYTE	W12
	BYTE		        An3 
	BYTE	W12
	BYTE		        Bn3 
	BYTE	W12
// 004   ----------------------------------------
	BYTE		        Cn4 
	BYTE	W12
	BYTE		        Bn3 
	BYTE	W12
	BYTE		        An3 
	BYTE	W12
	BYTE		        Gn3 
	BYTE	W12
	BYTE		N20     Bn3 
	BYTE	W24
	BYTE		N11     Cn4 
	BYTE	W12
	BYTE		        Dn4 
	BYTE	W12
// 005   ----------------------------------------
	BYTE		N20     Cn4 
	BYTE	W24
	BYTE		        An3 
	BYTE	W24
	BYTE		N11     Fn3 
	BYTE	W12
	BYTE		        Gn3 
	BYTE	W12
	BYTE		        An3 
	BYTE	W12
	BYTE		        Fn3 
	BYTE	W12
// 006   ----------------------------------------
	BYTE		N20     En3 
	BYTE	W24
	BYTE		        Gn3 
	BYTE	W24
	BYTE		N11     Fs3 
	BYTE	W12
	BYTE		        Gn3 
	BYTE	W12
	BYTE		        An3 
	BYTE	W12
	BYTE		        Cn4 
	BYTE	W12
// 007   ----------------------------------------
	BYTE		N20     Bn3 
	BYTE	W24
	BYTE		        Cn4 
	BYTE	W24
	BYTE		N42     Dn4 
	BYTE	W48
// 008   ----------------------------------------
	BYTE		VOL     85*Part3Battle_FINAL_mvl/mxv
	BYTE		PAN     c_v+14
	BYTE		N32     Cn4 
	BYTE	W36
	BYTE		N11     En4 
	BYTE	W12
	BYTE		N20     Bn3 
	BYTE	W24
	BYTE		N11     Cn4 
	BYTE	W12
	BYTE		        Dn4 
	BYTE	W12
// 009   ----------------------------------------
	BYTE		N32     Cn4 
	BYTE	W36
	BYTE		N11     An3 
	BYTE	W12
	BYTE		        Fn3 
	BYTE	W12
	BYTE		        Gn3 
	BYTE	W12
	BYTE		        An3 
	BYTE	W12
	BYTE		        Gn3 
	BYTE	W12
// 010   ----------------------------------------
	BYTE		N32     Fn3 
	BYTE	W36
	BYTE		N11     Gn3 
	BYTE	W12
	BYTE		N20     An3 
	BYTE	W24
	BYTE		        Cn4 
	BYTE	W24
// 011   ----------------------------------------
	BYTE		N11     Bn3 
	BYTE	W12
	BYTE		        Gn3 
	BYTE	W12
	BYTE		        Bn3 
	BYTE	W12
	BYTE		        Cn4 
	BYTE	W12
	BYTE		N20     Bn3 
	BYTE	W24
	BYTE		N11     Gn3 
	BYTE	W12
	BYTE		        An3 
	BYTE	W12
// 012   ----------------------------------------
	BYTE		N32     As3 
	BYTE	W36
	BYTE		N11     Cn4 
	BYTE	W12
	BYTE		        Dn4 
	BYTE	W12
	BYTE		        En4 
	BYTE	W12
	BYTE		        Fn4 
	BYTE	W12
	BYTE		        Dn4 
	BYTE	W12
// 013   ----------------------------------------
	BYTE		N32     Cn4 
	BYTE	W36
	BYTE		N11     Gn3 
	BYTE	W12
	BYTE		        En3 
	BYTE	W12
	BYTE		        Fn3 
	BYTE	W12
	BYTE		        Gn3 
	BYTE	W12
	BYTE		        Cn4 
	BYTE	W12
// 014   ----------------------------------------
	BYTE		        An3 
	BYTE	W12
	BYTE		        Gn3 
	BYTE	W12
	BYTE		        Fn3 
	BYTE	W12
	BYTE		        Gn3 
	BYTE	W12
	BYTE		N20     An3 
	BYTE	W24
	BYTE		N11     Cn4 
	BYTE	W12
	BYTE		        An3 
	BYTE	W12
// 015   ----------------------------------------
	BYTE		        Fn3 
	BYTE	W12
	BYTE		        Gn3 
	BYTE	W12
	BYTE		        An3 
	BYTE	W12
	BYTE		        Cn4 
	BYTE	W12
	BYTE		N42     Dn4 
	BYTE	W48
// 016   ----------------------------------------
	BYTE	W96
// 017   ----------------------------------------
	BYTE	W96
// 018   ----------------------------------------
	BYTE	W96
// 019   ----------------------------------------
	BYTE	W96
// 020   ----------------------------------------
	BYTE	W96
// 021   ----------------------------------------
	BYTE	W96
// 022   ----------------------------------------
	BYTE	W96
// 023   ----------------------------------------
	BYTE	W96
// 024   ----------------------------------------
	BYTE	W96
// 025   ----------------------------------------
	BYTE	W96
// 026   ----------------------------------------
	BYTE	W96
// 027   ----------------------------------------
	BYTE	W96
// 028   ----------------------------------------
	BYTE	W96
// 029   ----------------------------------------
	BYTE	W96
// 030   ----------------------------------------
	BYTE	W96
// 031   ----------------------------------------
	BYTE	W96
// 032   ----------------------------------------
	BYTE	W96
// 033   ----------------------------------------
	BYTE	W96
// 034   ----------------------------------------
	BYTE	W96
// 035   ----------------------------------------
	BYTE	W96
	BYTE	GoTo
	 POIN2	Part3Battle_FINAL_3_B1
Part3Battle_FINAL_3_B2:
// 036   ----------------------------------------
	BYTE	FINE

//**************** Track 4 (Midi-Chn.4) ****************//

Part3Battle_FINAL_4:
	BYTE	KEYSH   Part3Battle_FINAL_key+0
Part3Battle_FINAL_4_B1:
// 000   ----------------------------------------
	BYTE		VOICE   2
	BYTE		MODT    0
	BYTE		LFOS    44
	BYTE		PAN     c_v-5
	BYTE		VOL     108*Part3Battle_FINAL_mvl/mxv
	BYTE		N11     An1   v127
	BYTE	W12
	BYTE		N11   
	BYTE	W12
	BYTE		N05     Cn2 
	BYTE	W06
	BYTE		N11     An1 
	BYTE	W12
	BYTE		N05   
	BYTE	W06
	BYTE		N11   
	BYTE	W12
	BYTE		        En2 
	BYTE	W12
	BYTE		        Cn2 
	BYTE	W12
	BYTE		        En2 
	BYTE	W12
// 001   ----------------------------------------
Part3Battle_FINAL_4_001:
	BYTE		N11     Fn1   v127
	BYTE	W12
	BYTE		N11   
	BYTE	W12
	BYTE		N05     An1 
	BYTE	W06
	BYTE		N11     Fn1 
	BYTE	W12
	BYTE		N05   
	BYTE	W06
	BYTE		N11     Dn2 
	BYTE	W12
	BYTE		        Cn2 
	BYTE	W12
	BYTE		        Bn1 
	BYTE	W12
	BYTE		        An1 
	BYTE	W12
	BYTE	PEND
// 002   ----------------------------------------
Part3Battle_FINAL_4_002:
	BYTE		N11     Gn1   v127
	BYTE	W12
	BYTE		N11   
	BYTE	W12
	BYTE		N05     Bn1 
	BYTE	W06
	BYTE		N11     Gn1 
	BYTE	W12
	BYTE		N05   
	BYTE	W06
	BYTE		N11     Bn1 
	BYTE	W12
	BYTE		        En2 
	BYTE	W12
	BYTE		        Bn1 
	BYTE	W12
	BYTE		        En2 
	BYTE	W12
	BYTE	PEND
// 003   ----------------------------------------
Part3Battle_FINAL_4_003:
	BYTE		N11     Cn2   v127
	BYTE	W12
	BYTE		        An1 
	BYTE	W12
	BYTE		        Fn1 
	BYTE	W12
	BYTE		        An1 
	BYTE	W12
	BYTE		        Bn1 
	BYTE	W12
	BYTE		        An1 
	BYTE	W12
	BYTE		        Gn1 
	BYTE	W12
	BYTE		        Bn1 
	BYTE	W12
	BYTE	PEND
// 004   ----------------------------------------
	BYTE		        An1 
	BYTE	W12
	BYTE		N11   
	BYTE	W12
	BYTE		N05     Cn2 
	BYTE	W06
	BYTE		N11     An1 
	BYTE	W12
	BYTE		N05   
	BYTE	W06
	BYTE		N11   
	BYTE	W12
	BYTE		        En2 
	BYTE	W12
	BYTE		        Cn2 
	BYTE	W12
	BYTE		        En2 
	BYTE	W12
// 005   ----------------------------------------
	BYTE	PATT
	 POIN2	Part3Battle_FINAL_4_001
// 006   ----------------------------------------
	BYTE	PATT
	 POIN2	Part3Battle_FINAL_4_002
// 007   ----------------------------------------
	BYTE	PATT
	 POIN2	Part3Battle_FINAL_4_003
// 008   ----------------------------------------
Part3Battle_FINAL_4_008:
	BYTE		N05     Cn2   v127
	BYTE	W06
	BYTE		N11     Cn1 
	BYTE	W12
	BYTE		N05   
	BYTE	W06
	BYTE		        Cn2 
	BYTE	W06
	BYTE		N11     Cn1 
	BYTE	W12
	BYTE		N05   
	BYTE	W06
	BYTE		N11     Gn1 
	BYTE	W12
	BYTE		        Cn2 
	BYTE	W12
	BYTE		        En1 
	BYTE	W12
	BYTE		        Gn1 
	BYTE	W12
	BYTE	PEND
// 009   ----------------------------------------
Part3Battle_FINAL_4_009:
	BYTE		N05     As1   v127
	BYTE	W06
	BYTE		N11     As0 
	BYTE	W12
	BYTE		N05   
	BYTE	W06
	BYTE		        As1 
	BYTE	W06
	BYTE		N11     As0 
	BYTE	W12
	BYTE		N05   
	BYTE	W06
	BYTE		N11     Fn1 
	BYTE	W12
	BYTE		        As1 
	BYTE	W12
	BYTE		        Dn1 
	BYTE	W12
	BYTE		        Fn1 
	BYTE	W12
	BYTE	PEND
// 010   ----------------------------------------
Part3Battle_FINAL_4_010:
	BYTE		N11     An1   v127
	BYTE	W12
	BYTE		        Fn1 
	BYTE	W12
	BYTE		        Cn1 
	BYTE	W12
	BYTE		        Fn1 
	BYTE	W12
	BYTE		        An1 
	BYTE	W12
	BYTE		        Cn2 
	BYTE	W12
	BYTE		        As1 
	BYTE	W12
	BYTE		        An1 
	BYTE	W12
	BYTE	PEND
// 011   ----------------------------------------
Part3Battle_FINAL_4_011:
	BYTE		N11     Gn1   v127
	BYTE	W12
	BYTE		        Dn1 
	BYTE	W12
	BYTE		        Gn1 
	BYTE	W12
	BYTE		        An1 
	BYTE	W12
	BYTE		        Bn1 
	BYTE	W12
	BYTE		        Dn2 
	BYTE	W12
	BYTE		        Bn1 
	BYTE	W12
	BYTE		        Gn1 
	BYTE	W12
	BYTE	PEND
// 012   ----------------------------------------
	BYTE	PATT
	 POIN2	Part3Battle_FINAL_4_008
// 013   ----------------------------------------
	BYTE	PATT
	 POIN2	Part3Battle_FINAL_4_009
// 014   ----------------------------------------
	BYTE	PATT
	 POIN2	Part3Battle_FINAL_4_010
// 015   ----------------------------------------
	BYTE	PATT
	 POIN2	Part3Battle_FINAL_4_011
// 016   ----------------------------------------
Part3Battle_FINAL_4_016:
	BYTE		N04     En1   v127
	BYTE	W12
	BYTE		N04   
	BYTE	W12
	BYTE		        En2 
	BYTE	W06
	BYTE		        En1 
	BYTE	W12
	BYTE		N04   
	BYTE	W06
	BYTE		N04   
	BYTE	W12
	BYTE		N04   
	BYTE	W12
	BYTE		        En2 
	BYTE	W06
	BYTE		        En1 
	BYTE	W12
	BYTE		N04   
	BYTE	W06
	BYTE	PEND
// 017   ----------------------------------------
Part3Battle_FINAL_4_017:
	BYTE		N04     Fn1   v127
	BYTE	W12
	BYTE		N04   
	BYTE	W12
	BYTE		        Fn2 
	BYTE	W06
	BYTE		        Fn1 
	BYTE	W12
	BYTE		N04   
	BYTE	W06
	BYTE		N04   
	BYTE	W12
	BYTE		N04   
	BYTE	W12
	BYTE		        Fn2 
	BYTE	W06
	BYTE		        Fn1 
	BYTE	W12
	BYTE		N04   
	BYTE	W06
	BYTE	PEND
// 018   ----------------------------------------
	BYTE	PATT
	 POIN2	Part3Battle_FINAL_4_016
// 019   ----------------------------------------
	BYTE	PATT
	 POIN2	Part3Battle_FINAL_4_017
// 020   ----------------------------------------
Part3Battle_FINAL_4_020:
	BYTE		N11     En1   v127
	BYTE	W12
	BYTE		N11   
	BYTE	W12
	BYTE		N05     En2 
	BYTE	W06
	BYTE		N11     En1 
	BYTE	W12
	BYTE		N05   
	BYTE	W06
	BYTE		N11   
	BYTE	W12
	BYTE		N11   
	BYTE	W12
	BYTE		N05     En2 
	BYTE	W06
	BYTE		N11     En1 
	BYTE	W12
	BYTE		N05   
	BYTE	W06
	BYTE	PEND
// 021   ----------------------------------------
	BYTE	PATT
	 POIN2	Part3Battle_FINAL_4_020
// 022   ----------------------------------------
	BYTE	PATT
	 POIN2	Part3Battle_FINAL_4_020
// 023   ----------------------------------------
	BYTE	PATT
	 POIN2	Part3Battle_FINAL_4_020
// 024   ----------------------------------------
	BYTE	PATT
	 POIN2	Part3Battle_FINAL_4_020
// 025   ----------------------------------------
	BYTE	PATT
	 POIN2	Part3Battle_FINAL_4_020
// 026   ----------------------------------------
	BYTE	PATT
	 POIN2	Part3Battle_FINAL_4_020
// 027   ----------------------------------------
	BYTE	PATT
	 POIN2	Part3Battle_FINAL_4_020
// 028   ----------------------------------------
	BYTE	PATT
	 POIN2	Part3Battle_FINAL_4_008
// 029   ----------------------------------------
	BYTE	PATT
	 POIN2	Part3Battle_FINAL_4_009
// 030   ----------------------------------------
	BYTE	PATT
	 POIN2	Part3Battle_FINAL_4_010
// 031   ----------------------------------------
	BYTE	PATT
	 POIN2	Part3Battle_FINAL_4_011
// 032   ----------------------------------------
	BYTE	PATT
	 POIN2	Part3Battle_FINAL_4_008
// 033   ----------------------------------------
	BYTE	PATT
	 POIN2	Part3Battle_FINAL_4_009
// 034   ----------------------------------------
	BYTE	PATT
	 POIN2	Part3Battle_FINAL_4_010
// 035   ----------------------------------------
	BYTE	PATT
	 POIN2	Part3Battle_FINAL_4_011
	BYTE	GoTo
	 POIN2	Part3Battle_FINAL_4_B1
Part3Battle_FINAL_4_B2:
// 036   ----------------------------------------
	BYTE	FINE

//**************** Track 5 (Midi-Chn.5) ****************//

Part3Battle_FINAL_5:
	BYTE	KEYSH   Part3Battle_FINAL_key+0
Part3Battle_FINAL_5_B1:
// 000   ----------------------------------------
	BYTE		VOICE   49
	BYTE		MODT    0
	BYTE		LFOS    44
	BYTE		VOL     95*Part3Battle_FINAL_mvl/mxv
	BYTE		PAN     c_v+15
	BYTE		VOL     95*Part3Battle_FINAL_mvl/mxv
	BYTE	W96
// 001   ----------------------------------------
	BYTE	W96
// 002   ----------------------------------------
	BYTE	W96
// 003   ----------------------------------------
	BYTE	W96
// 004   ----------------------------------------
	BYTE	W96
// 005   ----------------------------------------
	BYTE	W96
// 006   ----------------------------------------
	BYTE	W96
// 007   ----------------------------------------
	BYTE	W96
// 008   ----------------------------------------
	BYTE	W96
// 009   ----------------------------------------
	BYTE	W96
// 010   ----------------------------------------
	BYTE	W96
// 011   ----------------------------------------
	BYTE	W96
// 012   ----------------------------------------
	BYTE	W96
// 013   ----------------------------------------
	BYTE	W96
// 014   ----------------------------------------
	BYTE	W96
// 015   ----------------------------------------
	BYTE	W96
// 016   ----------------------------------------
	BYTE		N96     En4   v127
	BYTE	W96
// 017   ----------------------------------------
	BYTE		        Fn4 
	BYTE	W96
// 018   ----------------------------------------
	BYTE		        En4 
	BYTE	W96
// 019   ----------------------------------------
	BYTE		N90     Fn4 
	BYTE	W96
// 020   ----------------------------------------
	BYTE		VOL     127*Part3Battle_FINAL_mvl/mxv
	BYTE		PAN     c_v+0
	BYTE		N48     An2 
	BYTE	W48
	BYTE		        En3 
	BYTE	W48
// 021   ----------------------------------------
Part3Battle_FINAL_5_021:
	BYTE		N48     Bn2   v127
	BYTE	W48
	BYTE		N16     Gn2 
	BYTE	W16
	BYTE		        Fn2 
	BYTE	W16
	BYTE		        En2 
	BYTE	W16
	BYTE	PEND
// 022   ----------------------------------------
Part3Battle_FINAL_5_022:
	BYTE		N48     An2   v127
	BYTE	W48
	BYTE		        Cn3 
	BYTE	W48
	BYTE	PEND
// 023   ----------------------------------------
	BYTE		N24     Bn2 
	BYTE	W24
	BYTE		        Cn3 
	BYTE	W24
	BYTE		N42     Dn3 
	BYTE	W48
// 024   ----------------------------------------
	BYTE		N48     An2 
	BYTE	W48
	BYTE		        En3 
	BYTE	W48
// 025   ----------------------------------------
	BYTE	PATT
	 POIN2	Part3Battle_FINAL_5_021
// 026   ----------------------------------------
	BYTE	PATT
	 POIN2	Part3Battle_FINAL_5_022
// 027   ----------------------------------------
	BYTE		N90     Bn2   v127
	BYTE	W96
// 028   ----------------------------------------
	BYTE		N15     Cn4 
	BYTE	W16
	BYTE		        Gn4 
	BYTE	W16
	BYTE		        Fn4 
	BYTE	W16
	BYTE		        En4 
	BYTE	W16
	BYTE		        Dn4 
	BYTE	W16
	BYTE		        En4 
	BYTE	W16
// 029   ----------------------------------------
	BYTE		        Fn4 
	BYTE	W16
	BYTE		        Dn4 
	BYTE	W16
	BYTE		        Fn4 
	BYTE	W16
	BYTE		        As4 
	BYTE	W16
	BYTE		        An4 
	BYTE	W16
	BYTE		        Gn4 
	BYTE	W16
// 030   ----------------------------------------
	BYTE		N32     Fn4 
	BYTE	W36
	BYTE		N05     Cn4 
	BYTE	W06
	BYTE		        Fn4 
	BYTE	W06
	BYTE		N15     An4 
	BYTE	W16
	BYTE		        Gn4 
	BYTE	W16
	BYTE		        Fn4 
	BYTE	W16
// 031   ----------------------------------------
	BYTE		N32     Gn4 
	BYTE	W36
	BYTE		N05     Dn4 
	BYTE	W06
	BYTE		        Bn3 
	BYTE	W06
	BYTE		N42     Dn4 
	BYTE	W48
// 032   ----------------------------------------
	BYTE		N05     Cn4 
	BYTE	W06
	BYTE		        Gn3 
	BYTE	W06
	BYTE		        An3 
	BYTE	W06
	BYTE		        Gn3 
	BYTE	W06
	BYTE		        Cn4 
	BYTE	W06
	BYTE		        Dn4 
	BYTE	W06
	BYTE		        En4 
	BYTE	W06
	BYTE		        Cn4 
	BYTE	W06
	BYTE		N11     Gn4 
	BYTE	W12
	BYTE		        Fn4 
	BYTE	W12
	BYTE		        En4 
	BYTE	W12
	BYTE		        Dn4 
	BYTE	W12
// 033   ----------------------------------------
	BYTE		N32     Cn4 
	BYTE	W36
	BYTE		N05     Dn4 
	BYTE	W06
	BYTE		        Cn4 
	BYTE	W06
	BYTE		N15     As3 
	BYTE	W16
	BYTE		        An3 
	BYTE	W16
	BYTE		        As3 
	BYTE	W16
// 034   ----------------------------------------
	BYTE		        An3 
	BYTE	W16
	BYTE		        Fn3 
	BYTE	W16
	BYTE		        An3 
	BYTE	W16
	BYTE		        Cn4 
	BYTE	W16
	BYTE		        An3 
	BYTE	W16
	BYTE		        Cn4 
	BYTE	W16
// 035   ----------------------------------------
	BYTE		        Dn4 
	BYTE	W16
	BYTE		        Cn4 
	BYTE	W16
	BYTE		        Dn4 
	BYTE	W16
	BYTE		        Fn4 
	BYTE	W16
	BYTE		        En4 
	BYTE	W16
	BYTE		        Fn4 
	BYTE	W16
	BYTE	GoTo
	 POIN2	Part3Battle_FINAL_5_B1
Part3Battle_FINAL_5_B2:
// 036   ----------------------------------------
	BYTE	FINE

//**************** Track 6 (Midi-Chn.6) ****************//

Part3Battle_FINAL_6:
	BYTE	KEYSH   Part3Battle_FINAL_key+0
Part3Battle_FINAL_6_B1:
// 000   ----------------------------------------
	BYTE		VOICE   81
	BYTE		MODT    0
	BYTE		LFOS    44
	BYTE		VOL     87*Part3Battle_FINAL_mvl/mxv
	BYTE		PAN     c_v-11
	BYTE	W96
// 001   ----------------------------------------
	BYTE	W96
// 002   ----------------------------------------
	BYTE	W96
// 003   ----------------------------------------
	BYTE	W96
// 004   ----------------------------------------
	BYTE	W96
// 005   ----------------------------------------
	BYTE	W96
// 006   ----------------------------------------
	BYTE	W96
// 007   ----------------------------------------
	BYTE	W96
// 008   ----------------------------------------
	BYTE	W96
// 009   ----------------------------------------
	BYTE	W96
// 010   ----------------------------------------
	BYTE	W96
// 011   ----------------------------------------
	BYTE	W96
// 012   ----------------------------------------
	BYTE	W96
// 013   ----------------------------------------
	BYTE	W96
// 014   ----------------------------------------
	BYTE	W96
// 015   ----------------------------------------
	BYTE	W96
// 016   ----------------------------------------
	BYTE		N80     Bn2   v127
	BYTE	W84
	BYTE		N05     An2 
	BYTE	W06
	BYTE		        Bn2 
	BYTE	W06
// 017   ----------------------------------------
	BYTE		N80     Cn3 
	BYTE	W84
	BYTE		N05     Fn3 
	BYTE	W06
	BYTE		        Gn3 
	BYTE	W06
// 018   ----------------------------------------
	BYTE		N80     En3 
	BYTE	W84
	BYTE		N05     Gn3 
	BYTE	W06
	BYTE		        Bn3 
	BYTE	W06
// 019   ----------------------------------------
	BYTE		N80     An3 
	BYTE	W84
	BYTE		N03     Cn4 
	BYTE	W03
	BYTE		        Fn4 
	BYTE	W03
	BYTE		        Gn4 
	BYTE	W03
	BYTE		        An4 
	BYTE	W03
// 020   ----------------------------------------
	BYTE		N32     Bn4 
	BYTE	W36
	BYTE		N05     An4 
	BYTE	W06
	BYTE		        Bn4 
	BYTE	W06
	BYTE		N04     Gn4 
	BYTE	W12
	BYTE		        En4 
	BYTE	W12
	BYTE		        Fs4 
	BYTE	W06
	BYTE		        An4 
	BYTE	W12
	BYTE		N04   
	BYTE	W06
// 021   ----------------------------------------
	BYTE		N05     Gn4 
	BYTE	W06
	BYTE		        Fs4 
	BYTE	W06
	BYTE		        En4 
	BYTE	W06
	BYTE		        Gn4 
	BYTE	W06
	BYTE		        An4 
	BYTE	W06
	BYTE		        Gn4 
	BYTE	W06
	BYTE		        Fs4 
	BYTE	W06
	BYTE		        An4 
	BYTE	W06
	BYTE		N04     Bn4 
	BYTE	W06
	BYTE		        Cn5 
	BYTE	W12
	BYTE		N04   
	BYTE	W06
	BYTE		        Bn4 
	BYTE	W06
	BYTE		        Cn5 
	BYTE	W12
	BYTE		N04   
	BYTE	W06
// 022   ----------------------------------------
	BYTE		N15     Bn4 
	BYTE	W16
	BYTE		        An4 
	BYTE	W16
	BYTE		        Gn4 
	BYTE	W16
	BYTE		        Dn5 
	BYTE	W16
	BYTE		        Cn5 
	BYTE	W16
	BYTE		        Bn4 
	BYTE	W16
// 023   ----------------------------------------
	BYTE		N06     Gn4 
	BYTE	W06
	BYTE		        Fs4 
	BYTE	W06
	BYTE		        En4 
	BYTE	W06
	BYTE		        Gn4 
	BYTE	W06
	BYTE		        Fs4 
	BYTE	W06
	BYTE		        En4 
	BYTE	W06
	BYTE		        Dn4 
	BYTE	W06
	BYTE		        Fs4 
	BYTE	W06
	BYTE		        Gn4 
	BYTE	W06
	BYTE		        An4 
	BYTE	W06
	BYTE		        Bn4 
	BYTE	W06
	BYTE		        An4 
	BYTE	W06
	BYTE		        Gn4 
	BYTE	W06
	BYTE		        En4 
	BYTE	W06
	BYTE		        Fs4 
	BYTE	W06
	BYTE		N42     En4 
	BYTE	W06
// 024   ----------------------------------------
	BYTE	W36
	BYTE		N06     Dn4 
	BYTE	W06
	BYTE		        En4 
	BYTE	W06
	BYTE		N36     Bn3 
	BYTE	W36
	BYTE		N06     Cn4 
	BYTE	W06
	BYTE		        An3 
	BYTE	W06
// 025   ----------------------------------------
	BYTE		        Gn3 
	BYTE	W06
	BYTE		        An3 
	BYTE	W06
	BYTE		        Bn3 
	BYTE	W06
	BYTE		        Gn3 
	BYTE	W06
	BYTE		        Bn3 
	BYTE	W06
	BYTE		        Dn4 
	BYTE	W06
	BYTE		        En4 
	BYTE	W06
	BYTE		        Dn4 
	BYTE	W06
	BYTE		        En4 
	BYTE	W06
	BYTE		        Fs4 
	BYTE	W06
	BYTE		        Gn4 
	BYTE	W06
	BYTE		        En4 
	BYTE	W06
	BYTE		        Gn4 
	BYTE	W06
	BYTE		        An4 
	BYTE	W06
	BYTE		        Bn4 
	BYTE	W06
	BYTE		N05     Gn4 
	BYTE	W06
// 026   ----------------------------------------
	BYTE		N15     En5 
	BYTE	W16
	BYTE		        Dn5 
	BYTE	W16
	BYTE		        Cn5 
	BYTE	W16
	BYTE		        Dn5 
	BYTE	W16
	BYTE		        Cn5 
	BYTE	W16
	BYTE		        Bn4 
	BYTE	W16
// 027   ----------------------------------------
	BYTE		        Cn5 
	BYTE	W16
	BYTE		        Bn4 
	BYTE	W16
	BYTE		        An4 
	BYTE	W16
	BYTE		N11     Gn4 
	BYTE	W12
	BYTE		        En4 
	BYTE	W12
	BYTE		        Fs4 
	BYTE	W12
	BYTE		        En4 
	BYTE	W12
// 028   ----------------------------------------
	BYTE	W96
// 029   ----------------------------------------
	BYTE	W96
// 030   ----------------------------------------
	BYTE	W96
// 031   ----------------------------------------
	BYTE	W96
// 032   ----------------------------------------
	BYTE	W96
// 033   ----------------------------------------
	BYTE	W96
// 034   ----------------------------------------
	BYTE	W96
// 035   ----------------------------------------
	BYTE	W96
	BYTE	GoTo
	 POIN2	Part3Battle_FINAL_6_B1
Part3Battle_FINAL_6_B2:
// 036   ----------------------------------------
	BYTE	FINE

//**************** Track 7 (Midi-Chn.7) ****************//

Part3Battle_FINAL_7:
	BYTE	KEYSH   Part3Battle_FINAL_key+0
Part3Battle_FINAL_7_B1:
// 000   ----------------------------------------
	BYTE		VOICE   0
	BYTE		MODT    0
	BYTE		LFOS    44
	BYTE		VOL     95*Part3Battle_FINAL_mvl/mxv
	BYTE		PAN     c_v-19
	BYTE	W96
// 001   ----------------------------------------
	BYTE	W96
// 002   ----------------------------------------
	BYTE	W96
// 003   ----------------------------------------
	BYTE	W96
// 004   ----------------------------------------
	BYTE	W96
// 005   ----------------------------------------
	BYTE	W96
// 006   ----------------------------------------
	BYTE	W96
// 007   ----------------------------------------
	BYTE	W96
// 008   ----------------------------------------
	BYTE	W96
// 009   ----------------------------------------
	BYTE	W96
// 010   ----------------------------------------
	BYTE	W96
// 011   ----------------------------------------
	BYTE	W96
// 012   ----------------------------------------
	BYTE	W96
// 013   ----------------------------------------
	BYTE	W96
// 014   ----------------------------------------
	BYTE	W96
// 015   ----------------------------------------
	BYTE	W96
// 016   ----------------------------------------
	BYTE	W96
// 017   ----------------------------------------
	BYTE	W96
// 018   ----------------------------------------
	BYTE	W96
// 019   ----------------------------------------
	BYTE	W96
// 020   ----------------------------------------
	BYTE	W96
// 021   ----------------------------------------
	BYTE	W96
// 022   ----------------------------------------
	BYTE	W96
// 023   ----------------------------------------
	BYTE	W96
// 024   ----------------------------------------
	BYTE	W96
// 025   ----------------------------------------
	BYTE	W96
// 026   ----------------------------------------
	BYTE	W96
// 027   ----------------------------------------
	BYTE	W96
// 028   ----------------------------------------
	BYTE		N15     Cn4   v127
	BYTE	W16
	BYTE		        Gn4 
	BYTE	W16
	BYTE		        Fn4 
	BYTE	W16
	BYTE		        En4 
	BYTE	W16
	BYTE		        Dn4 
	BYTE	W16
	BYTE		        En4 
	BYTE	W16
// 029   ----------------------------------------
	BYTE		        Fn4 
	BYTE	W16
	BYTE		        Dn4 
	BYTE	W16
	BYTE		        Fn4 
	BYTE	W16
	BYTE		        As4 
	BYTE	W16
	BYTE		        An4 
	BYTE	W16
	BYTE		        Gn4 
	BYTE	W16
// 030   ----------------------------------------
	BYTE		N32     Fn4 
	BYTE	W36
	BYTE		N05     Cn4 
	BYTE	W06
	BYTE		        Fn4 
	BYTE	W06
	BYTE		N15     An4 
	BYTE	W16
	BYTE		        Gn4 
	BYTE	W16
	BYTE		        Fn4 
	BYTE	W16
// 031   ----------------------------------------
	BYTE		N32     Gn4 
	BYTE	W36
	BYTE		N05     Dn4 
	BYTE	W06
	BYTE		        Bn3 
	BYTE	W06
	BYTE		N42     Dn4 
	BYTE	W48
// 032   ----------------------------------------
	BYTE		N05     Cn4 
	BYTE	W06
	BYTE		        Gn3 
	BYTE	W06
	BYTE		        An3 
	BYTE	W06
	BYTE		        Gn3 
	BYTE	W06
	BYTE		        Cn4 
	BYTE	W06
	BYTE		        Dn4 
	BYTE	W06
	BYTE		        En4 
	BYTE	W06
	BYTE		        Cn4 
	BYTE	W06
	BYTE		N11     Gn4 
	BYTE	W12
	BYTE		        Fn4 
	BYTE	W12
	BYTE		        En4 
	BYTE	W12
	BYTE		        Dn4 
	BYTE	W12
// 033   ----------------------------------------
	BYTE		N32     Cn4 
	BYTE	W36
	BYTE		N05     Dn4 
	BYTE	W06
	BYTE		        Cn4 
	BYTE	W06
	BYTE		N15     As3 
	BYTE	W16
	BYTE		        An3 
	BYTE	W16
	BYTE		        As3 
	BYTE	W16
// 034   ----------------------------------------
	BYTE		        An3 
	BYTE	W16
	BYTE		        Fn3 
	BYTE	W16
	BYTE		        An3 
	BYTE	W16
	BYTE		        Cn4 
	BYTE	W16
	BYTE		        An3 
	BYTE	W16
	BYTE		        Cn4 
	BYTE	W16
// 035   ----------------------------------------
	BYTE		        Dn4 
	BYTE	W16
	BYTE		        Cn4 
	BYTE	W16
	BYTE		        Dn4 
	BYTE	W16
	BYTE		        Fn4 
	BYTE	W16
	BYTE		        En4 
	BYTE	W16
	BYTE		        Fn4 
	BYTE	W16
	BYTE	GoTo
	 POIN2	Part3Battle_FINAL_7_B1
Part3Battle_FINAL_7_B2:
// 036   ----------------------------------------
	BYTE	FINE

//**************** Track 8 (Midi-Chn.8) ****************//

Part3Battle_FINAL_8:
	BYTE	KEYSH   Part3Battle_FINAL_key+0
Part3Battle_FINAL_8_B1:
// 000   ----------------------------------------
	BYTE		VOICE   60
	BYTE		MODT    0
	BYTE		LFOS    44
	BYTE		VOL     73*Part3Battle_FINAL_mvl/mxv
	BYTE		PAN     c_v-23
	BYTE		MOD     5
	BYTE		        5
	BYTE		        5
	BYTE		        5
	BYTE		N42     An2   v127
	BYTE		N42     Cn3 
	BYTE	W48
	BYTE		        Gn2 
	BYTE		N42     Bn2 
	BYTE	W48
// 001   ----------------------------------------
Part3Battle_FINAL_8_001:
	BYTE		N42     Fn2   v127
	BYTE		N42     An2 
	BYTE	W48
	BYTE		        Dn2 
	BYTE		N42     Fn2 
	BYTE	W48
	BYTE	PEND
// 002   ----------------------------------------
Part3Battle_FINAL_8_002:
	BYTE		N42     En2   v127
	BYTE		N42     Gn2 
	BYTE	W48
	BYTE		        Fs2 
	BYTE		N42     An2 
	BYTE	W48
	BYTE	PEND
// 003   ----------------------------------------
Part3Battle_FINAL_8_003:
	BYTE		N42     En2   v127
	BYTE		N42     Bn2 
	BYTE	W48
	BYTE		        Fn2 
	BYTE		N42     Bn2 
	BYTE	W48
	BYTE	PEND
// 004   ----------------------------------------
Part3Battle_FINAL_8_004:
	BYTE		N42     An2   v127
	BYTE		N42     Cn3 
	BYTE	W48
	BYTE		        Gn2 
	BYTE		N42     Bn2 
	BYTE	W48
	BYTE	PEND
// 005   ----------------------------------------
	BYTE	PATT
	 POIN2	Part3Battle_FINAL_8_001
// 006   ----------------------------------------
	BYTE	PATT
	 POIN2	Part3Battle_FINAL_8_002
// 007   ----------------------------------------
	BYTE	PATT
	 POIN2	Part3Battle_FINAL_8_003
// 008   ----------------------------------------
	BYTE	PATT
	 POIN2	Part3Battle_FINAL_8_004
// 009   ----------------------------------------
	BYTE	PATT
	 POIN2	Part3Battle_FINAL_8_001
// 010   ----------------------------------------
	BYTE	PATT
	 POIN2	Part3Battle_FINAL_8_002
// 011   ----------------------------------------
	BYTE	PATT
	 POIN2	Part3Battle_FINAL_8_003
// 012   ----------------------------------------
	BYTE	PATT
	 POIN2	Part3Battle_FINAL_8_004
// 013   ----------------------------------------
	BYTE	PATT
	 POIN2	Part3Battle_FINAL_8_001
// 014   ----------------------------------------
	BYTE	PATT
	 POIN2	Part3Battle_FINAL_8_002
// 015   ----------------------------------------
	BYTE	PATT
	 POIN2	Part3Battle_FINAL_8_003
// 016   ----------------------------------------
	BYTE	W96
// 017   ----------------------------------------
	BYTE	W96
// 018   ----------------------------------------
	BYTE	W96
// 019   ----------------------------------------
	BYTE	W96
// 020   ----------------------------------------
	BYTE	W96
// 021   ----------------------------------------
	BYTE	W96
// 022   ----------------------------------------
	BYTE	W96
// 023   ----------------------------------------
	BYTE	W96
// 024   ----------------------------------------
	BYTE	W96
// 025   ----------------------------------------
	BYTE	W96
// 026   ----------------------------------------
	BYTE	W96
// 027   ----------------------------------------
	BYTE	W96
// 028   ----------------------------------------
	BYTE		N96     En3   v112
	BYTE		N96     An3 
	BYTE		N96     Cn4 
	BYTE	W96
// 029   ----------------------------------------
	BYTE		        Dn3 
	BYTE		N96     Gn3 
	BYTE		N96     Bn3 
	BYTE	W96
// 030   ----------------------------------------
	BYTE		TIE     Fn3 
	BYTE		TIE     An3 
	BYTE		N96     Cn4 
	BYTE	W96
// 031   ----------------------------------------
	BYTE		        Dn4 
	BYTE	W96
	BYTE		EOT     Fn3 
	BYTE		        An3 
// 032   ----------------------------------------
	BYTE		N96     En3 
	BYTE		N96     Gn3 
	BYTE		N96     Bn3 
	BYTE		N96     En4 
	BYTE	W96
// 033   ----------------------------------------
	BYTE		N90     Fs3 
	BYTE		N90     An3 
	BYTE		N48     Dn4 
	BYTE	W48
	BYTE		        Cn4 
	BYTE	W48
// 034   ----------------------------------------
	BYTE		N96     En3 
	BYTE		N96     Gn3 
	BYTE		TIE     Bn3 
	BYTE	W96
// 035   ----------------------------------------
	BYTE		N90     Dn3 
	BYTE		N90     Fn3 
	BYTE	W90
	BYTE		EOT     Bn3 
	BYTE	W06
	BYTE	GoTo
	 POIN2	Part3Battle_FINAL_8_B1
Part3Battle_FINAL_8_B2:
// 036   ----------------------------------------
	BYTE	FINE

//**************** Track 9 (Midi-Chn.9) ****************//

Part3Battle_FINAL_9:
	BYTE	KEYSH   Part3Battle_FINAL_key+0
Part3Battle_FINAL_9_B1:
// 000   ----------------------------------------
	BYTE		VOICE   33
	BYTE		MODT    0
	BYTE		LFOS    44
	BYTE		PAN     c_v+0
	BYTE		VOL     103*Part3Battle_FINAL_mvl/mxv
	BYTE		N32     An2   v127
	BYTE	W36
	BYTE		N11     En2 
	BYTE	W12
	BYTE		N32     Gn2 
	BYTE	W36
	BYTE		N11     En2 
	BYTE	W12
// 001   ----------------------------------------
Part3Battle_FINAL_9_001:
	BYTE		N32     Fn2   v127
	BYTE	W36
	BYTE		N11     En2 
	BYTE	W12
	BYTE		N20     Dn2 
	BYTE	W24
	BYTE		N11     En2 
	BYTE	W12
	BYTE		        Fn2 
	BYTE	W12
	BYTE	PEND
// 002   ----------------------------------------
Part3Battle_FINAL_9_002:
	BYTE		N32     En2   v127
	BYTE	W36
	BYTE		N11     Gn2 
	BYTE	W12
	BYTE		N32     Fs2 
	BYTE	W36
	BYTE		N11     Dn2 
	BYTE	W12
	BYTE	PEND
// 003   ----------------------------------------
Part3Battle_FINAL_9_003:
	BYTE		N20     En2   v127
	BYTE	W24
	BYTE		N11     Fs2 
	BYTE	W12
	BYTE		        Gn2 
	BYTE	W12
	BYTE		        Fn2 
	BYTE	W12
	BYTE		N20     Gn2 
	BYTE	W24
	BYTE		N11     Bn2 
	BYTE	W12
	BYTE	PEND
// 004   ----------------------------------------
Part3Battle_FINAL_9_004:
	BYTE		N32     An2   v127
	BYTE	W36
	BYTE		N11     En2 
	BYTE	W12
	BYTE		N32     Gn2 
	BYTE	W36
	BYTE		N11     En2 
	BYTE	W12
	BYTE	PEND
// 005   ----------------------------------------
	BYTE	PATT
	 POIN2	Part3Battle_FINAL_9_001
// 006   ----------------------------------------
	BYTE	PATT
	 POIN2	Part3Battle_FINAL_9_002
// 007   ----------------------------------------
Part3Battle_FINAL_9_007:
	BYTE		N20     En2   v127
	BYTE	W24
	BYTE		N11     Fs2 
	BYTE	W12
	BYTE		        Gn2 
	BYTE	W12
	BYTE		        Fn2 
	BYTE	W12
	BYTE		        An2 
	BYTE	W12
	BYTE		        Gn2 
	BYTE	W12
	BYTE		        Bn2 
	BYTE	W12
	BYTE	PEND
// 008   ----------------------------------------
	BYTE	PATT
	 POIN2	Part3Battle_FINAL_9_004
// 009   ----------------------------------------
	BYTE	PATT
	 POIN2	Part3Battle_FINAL_9_001
// 010   ----------------------------------------
	BYTE	PATT
	 POIN2	Part3Battle_FINAL_9_002
// 011   ----------------------------------------
	BYTE	PATT
	 POIN2	Part3Battle_FINAL_9_003
// 012   ----------------------------------------
	BYTE	PATT
	 POIN2	Part3Battle_FINAL_9_004
// 013   ----------------------------------------
	BYTE	PATT
	 POIN2	Part3Battle_FINAL_9_001
// 014   ----------------------------------------
	BYTE	PATT
	 POIN2	Part3Battle_FINAL_9_002
// 015   ----------------------------------------
	BYTE	PATT
	 POIN2	Part3Battle_FINAL_9_007
// 016   ----------------------------------------
Part3Battle_FINAL_9_016:
	BYTE		N11     Cn2   v127
	BYTE	W12
	BYTE		N11   
	BYTE	W24
	BYTE		        Cn3 
	BYTE	W12
	BYTE		        Cn2 
	BYTE	W12
	BYTE		N11   
	BYTE	W24
	BYTE		        Cn3 
	BYTE	W12
	BYTE	PEND
// 017   ----------------------------------------
	BYTE	PATT
	 POIN2	Part3Battle_FINAL_9_016
// 018   ----------------------------------------
	BYTE	PATT
	 POIN2	Part3Battle_FINAL_9_016
// 019   ----------------------------------------
Part3Battle_FINAL_9_019:
	BYTE		N11     Dn2   v127
	BYTE	W12
	BYTE		N11   
	BYTE	W24
	BYTE		        Dn3 
	BYTE	W12
	BYTE		        Dn2 
	BYTE	W12
	BYTE		N11   
	BYTE	W24
	BYTE		        Dn3 
	BYTE	W12
	BYTE	PEND
// 020   ----------------------------------------
	BYTE	PATT
	 POIN2	Part3Battle_FINAL_9_019
// 021   ----------------------------------------
Part3Battle_FINAL_9_021:
	BYTE		N11     Ds2   v127
	BYTE	W12
	BYTE		N11   
	BYTE	W24
	BYTE		        Ds3 
	BYTE	W12
	BYTE		        Ds2 
	BYTE	W12
	BYTE		N11   
	BYTE	W24
	BYTE		        Ds3 
	BYTE	W12
	BYTE	PEND
// 022   ----------------------------------------
Part3Battle_FINAL_9_022:
	BYTE		N11     Fn2   v127
	BYTE	W12
	BYTE		N11   
	BYTE	W24
	BYTE		        Fn3 
	BYTE	W12
	BYTE		        Fn2 
	BYTE	W12
	BYTE		N11   
	BYTE	W24
	BYTE		        Fn3 
	BYTE	W12
	BYTE	PEND
// 023   ----------------------------------------
	BYTE	PATT
	 POIN2	Part3Battle_FINAL_9_019
// 024   ----------------------------------------
	BYTE	PATT
	 POIN2	Part3Battle_FINAL_9_019
// 025   ----------------------------------------
	BYTE	PATT
	 POIN2	Part3Battle_FINAL_9_021
// 026   ----------------------------------------
	BYTE	PATT
	 POIN2	Part3Battle_FINAL_9_022
// 027   ----------------------------------------
	BYTE		N11     Gn2   v127
	BYTE	W12
	BYTE		        Dn2 
	BYTE	W12
	BYTE		        Gn2 
	BYTE	W12
	BYTE		        An2 
	BYTE	W12
	BYTE		        Gn2 
	BYTE	W12
	BYTE		        Fn2 
	BYTE	W12
	BYTE		        En2 
	BYTE	W12
	BYTE		        Dn2 
	BYTE	W12
// 028   ----------------------------------------
	BYTE		VOL     103*Part3Battle_FINAL_mvl/mxv
	BYTE		N32     An2 
	BYTE	W36
	BYTE		N11     En2 
	BYTE	W12
	BYTE		N32     Gn2 
	BYTE	W36
	BYTE		N11     En2 
	BYTE	W12
// 029   ----------------------------------------
	BYTE	PATT
	 POIN2	Part3Battle_FINAL_9_001
// 030   ----------------------------------------
	BYTE	PATT
	 POIN2	Part3Battle_FINAL_9_002
// 031   ----------------------------------------
	BYTE	PATT
	 POIN2	Part3Battle_FINAL_9_003
// 032   ----------------------------------------
	BYTE	PATT
	 POIN2	Part3Battle_FINAL_9_004
// 033   ----------------------------------------
	BYTE	PATT
	 POIN2	Part3Battle_FINAL_9_001
// 034   ----------------------------------------
	BYTE	PATT
	 POIN2	Part3Battle_FINAL_9_002
// 035   ----------------------------------------
	BYTE	PATT
	 POIN2	Part3Battle_FINAL_9_007
	BYTE	GoTo
	 POIN2	Part3Battle_FINAL_9_B1
Part3Battle_FINAL_9_B2:
// 036   ----------------------------------------
	BYTE	FINE

//******************************************************//
	ALIGN 4

Part3Battle_FINAL:
	BYTE	9	// NumTrks
	BYTE	0	// NumBlks
	BYTE	Part3Battle_FINAL_pri	// Priority
	BYTE	Part3Battle_FINAL_rev	// Reverb.

	POIN2	Part3Battle_FINAL_grp

	POIN2	Part3Battle_FINAL_1
	POIN2	Part3Battle_FINAL_2
	POIN2	Part3Battle_FINAL_3
	POIN2	Part3Battle_FINAL_4
	POIN2	Part3Battle_FINAL_5
	POIN2	Part3Battle_FINAL_6
	POIN2	Part3Battle_FINAL_7
	POIN2	Part3Battle_FINAL_8
	POIN2	Part3Battle_FINAL_9

	
