//Event file generated from Sappy .s format.
	#include "MPlayDef.event"

	#define	Phase5_FINAL_grp  voicegroup000
	#define	Phase5_FINAL_pri  0
	#define	Phase5_FINAL_rev  0xC0
	#define	Phase5_FINAL_mvl  30
	#define	Phase5_FINAL_key  0
	#define	Phase5_FINAL_tbs  1
	#define	Phase5_FINAL_exg  0
	#define	Phase5_FINAL_cmp  1

	// .rodata
	//	Phase5_FINAL
	ALIGN 4

//**************** Track 1 (Midi-Chn.1) ****************//

Phase5_FINAL_1:
	BYTE	KEYSH   Phase5_FINAL_key+0
Phase5_FINAL_1_B1:
// 000   ----------------------------------------
	BYTE	TEMPO   70*Phase5_FINAL_tbs/2
	BYTE		VOICE   54
	BYTE		MODT    0
	BYTE		LFOS    44
	BYTE		PAN     c_v+0
	BYTE		VOL     127*Phase5_FINAL_mvl/mxv
	BYTE		N90     An3   v100
	BYTE	W96
// 001   ----------------------------------------
	BYTE		        Gn3 
	BYTE	W96
// 002   ----------------------------------------
	BYTE		        An3 
	BYTE	W96
// 003   ----------------------------------------
	BYTE		        As3 
	BYTE	W96
// 004   ----------------------------------------
	BYTE		TIE     An3 
	BYTE	W96
// 005   ----------------------------------------
	BYTE	W90
	BYTE		EOT   
	BYTE	W06
// 006   ----------------------------------------
	BYTE		N90     Bn3 
	BYTE	W96
// 007   ----------------------------------------
	BYTE		        An3 
	BYTE	W96
// 008   ----------------------------------------
	BYTE		N90   
	BYTE	W96
// 009   ----------------------------------------
	BYTE		        Gn3 
	BYTE	W96
// 010   ----------------------------------------
	BYTE		        An3 
	BYTE	W96
// 011   ----------------------------------------
	BYTE		        As3 
	BYTE	W96
// 012   ----------------------------------------
	BYTE		TIE     An3 
	BYTE	W96
// 013   ----------------------------------------
	BYTE	W90
	BYTE		EOT   
	BYTE	W06
// 014   ----------------------------------------
	BYTE		N90     Bn3 
	BYTE	W96
// 015   ----------------------------------------
	BYTE		TIE     An3 
	BYTE	W96
// 016   ----------------------------------------
	BYTE	W96
// 017   ----------------------------------------
	BYTE	W90
	BYTE		EOT   
	BYTE	GoTo
	 POIN2	Phase5_FINAL_1_B1
Phase5_FINAL_1_B2:
	BYTE	FINE

//**************** Track 2 (Midi-Chn.2) ****************//

Phase5_FINAL_2:
	BYTE	KEYSH   Phase5_FINAL_key+0
Phase5_FINAL_2_B1:
// 000   ----------------------------------------
	BYTE		VOICE   52
	BYTE		MODT    0
	BYTE		LFOS    44
	BYTE		PAN     c_v-28
	BYTE		VOL     127*Phase5_FINAL_mvl/mxv
	BYTE		N90     Fn3   v100
	BYTE	W96
// 001   ----------------------------------------
	BYTE		        En3 
	BYTE	W96
// 002   ----------------------------------------
	BYTE		TIE     Fn3 
	BYTE	W96
// 003   ----------------------------------------
	BYTE	W96
// 004   ----------------------------------------
	BYTE	W90
	BYTE		EOT   
	BYTE	W06
// 005   ----------------------------------------
	BYTE		N90     En3 
	BYTE	W96
// 006   ----------------------------------------
	BYTE		        Gn3 
	BYTE	W96
// 007   ----------------------------------------
	BYTE		        Fs3 
	BYTE	W96
// 008   ----------------------------------------
	BYTE		        Fn3 
	BYTE	W96
// 009   ----------------------------------------
	BYTE		        En3 
	BYTE	W96
// 010   ----------------------------------------
	BYTE		TIE     Fn3 
	BYTE	W96
// 011   ----------------------------------------
	BYTE	W96
// 012   ----------------------------------------
	BYTE	W90
	BYTE		EOT   
	BYTE	W06
// 013   ----------------------------------------
	BYTE		N90     En3 
	BYTE	W96
// 014   ----------------------------------------
	BYTE		        Gn3 
	BYTE	W96
// 015   ----------------------------------------
	BYTE		TIE     Fs3 
	BYTE	W96
// 016   ----------------------------------------
	BYTE	W96
// 017   ----------------------------------------
	BYTE	W90
	BYTE		EOT   
	BYTE	GoTo
	 POIN2	Phase5_FINAL_2_B1
Phase5_FINAL_2_B2:
	BYTE	FINE

//**************** Track 3 (Midi-Chn.3) ****************//

Phase5_FINAL_3:
	BYTE	KEYSH   Phase5_FINAL_key+0
Phase5_FINAL_3_B1:
// 000   ----------------------------------------
	BYTE		VOICE   53
	BYTE		MODT    0
	BYTE		LFOS    44
	BYTE		PAN     c_v+27
	BYTE		VOL     127*Phase5_FINAL_mvl/mxv
	BYTE		N90     Dn3   v100
	BYTE	W96
// 001   ----------------------------------------
	BYTE		TIE     Cn3 
	BYTE	W96
// 002   ----------------------------------------
	BYTE	W90
	BYTE		EOT   
	BYTE	W06
// 003   ----------------------------------------
	BYTE		N90     Dn3 
	BYTE	W96
// 004   ----------------------------------------
	BYTE		TIE     Cn3 
	BYTE	W96
// 005   ----------------------------------------
	BYTE	W90
	BYTE		EOT   
	BYTE	W06
// 006   ----------------------------------------
	BYTE		TIE     Dn3 
	BYTE	W96
// 007   ----------------------------------------
	BYTE	W90
	BYTE		EOT   
	BYTE	W06
// 008   ----------------------------------------
	BYTE		N90   
	BYTE	W96
// 009   ----------------------------------------
	BYTE		TIE     Cn3 
	BYTE	W96
// 010   ----------------------------------------
	BYTE	W90
	BYTE		EOT   
	BYTE	W06
// 011   ----------------------------------------
	BYTE		N90     Dn3 
	BYTE	W96
// 012   ----------------------------------------
	BYTE		TIE     Cn3 
	BYTE	W96
// 013   ----------------------------------------
	BYTE	W90
	BYTE		EOT   
	BYTE	W06
// 014   ----------------------------------------
	BYTE		TIE     Dn3 
	BYTE	W96
// 015   ----------------------------------------
	BYTE	W96
// 016   ----------------------------------------
	BYTE	W96
// 017   ----------------------------------------
	BYTE	W90
	BYTE		EOT   
	BYTE	GoTo
	 POIN2	Phase5_FINAL_3_B1
Phase5_FINAL_3_B2:
	BYTE	FINE

//**************** Track 4 (Midi-Chn.4) ****************//

Phase5_FINAL_4:
	BYTE	KEYSH   Phase5_FINAL_key+0
Phase5_FINAL_4_B1:
// 000   ----------------------------------------
	BYTE		VOICE   0
	BYTE		MODT    0
	BYTE		LFOS    44
	BYTE		PAN     c_v-25
	BYTE		VOL     127*Phase5_FINAL_mvl/mxv
	BYTE		N11     Dn2   v100
	BYTE	W12
	BYTE		N11   
	BYTE	W24
	BYTE		N05     An1 
	BYTE	W06
	BYTE		        Cn2 
	BYTE	W06
	BYTE		N11     Dn2 
	BYTE	W12
	BYTE		N11   
	BYTE	W24
	BYTE		N05     En2 
	BYTE	W06
	BYTE		        Dn2 
	BYTE	W06
// 001   ----------------------------------------
Phase5_FINAL_4_001:
	BYTE		N11     Cn2   v100
	BYTE	W12
	BYTE		N11   
	BYTE	W24
	BYTE		N05     Gn1 
	BYTE	W06
	BYTE		        An1 
	BYTE	W06
	BYTE		N11     Cn2 
	BYTE	W12
	BYTE		N11   
	BYTE	W24
	BYTE		N05     Dn2 
	BYTE	W06
	BYTE		        En2 
	BYTE	W06
	BYTE	PEND
// 002   ----------------------------------------
Phase5_FINAL_4_002:
	BYTE		N11     Fn2   v100
	BYTE	W12
	BYTE		N11   
	BYTE	W24
	BYTE		N05     Cn2 
	BYTE	W06
	BYTE		        En2 
	BYTE	W06
	BYTE		N11     Fn2 
	BYTE	W12
	BYTE		N11   
	BYTE	W24
	BYTE		N05     Dn2 
	BYTE	W06
	BYTE		        Cn2 
	BYTE	W06
	BYTE	PEND
// 003   ----------------------------------------
Phase5_FINAL_4_003:
	BYTE		N11     As1   v100
	BYTE	W12
	BYTE		N11   
	BYTE	W24
	BYTE		N05   
	BYTE	W06
	BYTE		        Dn2 
	BYTE	W06
	BYTE		N11     As1 
	BYTE	W12
	BYTE		N11   
	BYTE	W24
	BYTE		N05     Dn2 
	BYTE	W06
	BYTE		        En2 
	BYTE	W06
	BYTE	PEND
// 004   ----------------------------------------
Phase5_FINAL_4_004:
	BYTE		N11     Fn2   v100
	BYTE	W12
	BYTE		N11   
	BYTE	W24
	BYTE		N05     Cn2 
	BYTE	W06
	BYTE		        En2 
	BYTE	W06
	BYTE		N11     Fn2 
	BYTE	W12
	BYTE		N11   
	BYTE	W24
	BYTE		N05     Cn2 
	BYTE	W06
	BYTE		        Dn2 
	BYTE	W06
	BYTE	PEND
// 005   ----------------------------------------
Phase5_FINAL_4_005:
	BYTE		N11     En2   v100
	BYTE	W12
	BYTE		N11   
	BYTE	W24
	BYTE		N05     Cn2 
	BYTE	W06
	BYTE		        Dn2 
	BYTE	W06
	BYTE		N11     En2 
	BYTE	W12
	BYTE		N11   
	BYTE	W24
	BYTE		N05     Cn2 
	BYTE	W06
	BYTE		        En2 
	BYTE	W06
	BYTE	PEND
// 006   ----------------------------------------
Phase5_FINAL_4_006:
	BYTE		N11     Dn2   v100
	BYTE	W12
	BYTE		N11   
	BYTE	W24
	BYTE		N05     Bn1 
	BYTE	W06
	BYTE		        Cn2 
	BYTE	W06
	BYTE		N11     Dn2 
	BYTE	W12
	BYTE		N11   
	BYTE	W24
	BYTE		N05   
	BYTE	W06
	BYTE		        En2 
	BYTE	W06
	BYTE	PEND
// 007   ----------------------------------------
Phase5_FINAL_4_007:
	BYTE		N11     Dn2   v100
	BYTE	W12
	BYTE		N11   
	BYTE	W24
	BYTE		N05     An1 
	BYTE	W06
	BYTE		        Cn2 
	BYTE	W06
	BYTE		N11     Dn2 
	BYTE	W12
	BYTE		N11   
	BYTE	W36
	BYTE	PEND
// 008   ----------------------------------------
	BYTE		N11   
	BYTE	W12
	BYTE		N11   
	BYTE	W24
	BYTE		N05     An1 
	BYTE	W06
	BYTE		        Cn2 
	BYTE	W06
	BYTE		N11     Dn2 
	BYTE	W12
	BYTE		N11   
	BYTE	W24
	BYTE		N05     En2 
	BYTE	W06
	BYTE		        Dn2 
	BYTE	W06
// 009   ----------------------------------------
	BYTE	PATT
	 POIN2	Phase5_FINAL_4_001
// 010   ----------------------------------------
	BYTE	PATT
	 POIN2	Phase5_FINAL_4_002
// 011   ----------------------------------------
	BYTE	PATT
	 POIN2	Phase5_FINAL_4_003
// 012   ----------------------------------------
	BYTE	PATT
	 POIN2	Phase5_FINAL_4_004
// 013   ----------------------------------------
	BYTE	PATT
	 POIN2	Phase5_FINAL_4_005
// 014   ----------------------------------------
	BYTE	PATT
	 POIN2	Phase5_FINAL_4_006
// 015   ----------------------------------------
	BYTE	PATT
	 POIN2	Phase5_FINAL_4_007
// 016   ----------------------------------------
	BYTE	W96
// 017   ----------------------------------------
	BYTE	W90
	BYTE	GoTo
	 POIN2	Phase5_FINAL_4_B1
Phase5_FINAL_4_B2:
	BYTE	FINE

//**************** Track 5 (Midi-Chn.5) ****************//

Phase5_FINAL_5:
	BYTE	KEYSH   Phase5_FINAL_key+0
Phase5_FINAL_5_B1:
// 000   ----------------------------------------
	BYTE		VOICE   4
	BYTE		MODT    0
	BYTE		LFOS    44
	BYTE		PAN     c_v-16
	BYTE		VOL     78*Phase5_FINAL_mvl/mxv
	BYTE		N11     Dn3   v100
	BYTE	W12
	BYTE		        An2 
	BYTE	W12
	BYTE		        Fn3 
	BYTE	W12
	BYTE		N05     An2 
	BYTE	W06
	BYTE		        Cn3 
	BYTE	W06
	BYTE		N11     Dn3 
	BYTE	W12
	BYTE		        An2 
	BYTE	W12
	BYTE		        Fn3 
	BYTE	W12
	BYTE		N05     Gn3 
	BYTE	W06
	BYTE		        Fn3 
	BYTE	W06
// 001   ----------------------------------------
Phase5_FINAL_5_001:
	BYTE		N11     En3   v100
	BYTE	W12
	BYTE		        Dn3 
	BYTE	W12
	BYTE		        Cn3 
	BYTE	W12
	BYTE		N05     Gn2 
	BYTE	W06
	BYTE		        Cn3 
	BYTE	W06
	BYTE		N11     En3 
	BYTE	W12
	BYTE		        Fn3 
	BYTE	W12
	BYTE		        Gn3 
	BYTE	W12
	BYTE		N05     En3 
	BYTE	W06
	BYTE		        Cn3 
	BYTE	W06
	BYTE	PEND
// 002   ----------------------------------------
Phase5_FINAL_5_002:
	BYTE		N11     Fn3   v100
	BYTE	W12
	BYTE		        Dn3 
	BYTE	W12
	BYTE		        Cn3 
	BYTE	W12
	BYTE		N05     An2 
	BYTE	W06
	BYTE		        Cn3 
	BYTE	W06
	BYTE		N11     Fn3 
	BYTE	W12
	BYTE		        Gn3 
	BYTE	W12
	BYTE		        An3 
	BYTE	W12
	BYTE		N05     Fn3 
	BYTE	W06
	BYTE		        Cn3 
	BYTE	W06
	BYTE	PEND
// 003   ----------------------------------------
Phase5_FINAL_5_003:
	BYTE		N11     As2   v100
	BYTE	W12
	BYTE		        Cn3 
	BYTE	W12
	BYTE		        Dn3 
	BYTE	W12
	BYTE		N05     As2 
	BYTE	W06
	BYTE		        Fn2 
	BYTE	W06
	BYTE		N11     As2 
	BYTE	W12
	BYTE		        Cn3 
	BYTE	W12
	BYTE		        Dn3 
	BYTE	W12
	BYTE		N05     En3 
	BYTE	W06
	BYTE		        Gn3 
	BYTE	W06
	BYTE	PEND
// 004   ----------------------------------------
Phase5_FINAL_5_004:
	BYTE		N11     An3   v100
	BYTE	W12
	BYTE		        Gn3 
	BYTE	W12
	BYTE		        Fn3 
	BYTE	W12
	BYTE		N05     Dn3 
	BYTE	W06
	BYTE		        Cn3 
	BYTE	W06
	BYTE		N11     Fn3 
	BYTE	W12
	BYTE		        Gn3 
	BYTE	W12
	BYTE		        An3 
	BYTE	W12
	BYTE		N05     Fn3 
	BYTE	W06
	BYTE		        Dn3 
	BYTE	W06
	BYTE	PEND
// 005   ----------------------------------------
Phase5_FINAL_5_005:
	BYTE		N11     Cn3   v100
	BYTE	W12
	BYTE		        Dn3 
	BYTE	W12
	BYTE		        En3 
	BYTE	W12
	BYTE		N05     Cn3 
	BYTE	W06
	BYTE		        An2 
	BYTE	W06
	BYTE		N11     Cn3 
	BYTE	W12
	BYTE		        Dn3 
	BYTE	W12
	BYTE		        En3 
	BYTE	W12
	BYTE		N05     Cn3 
	BYTE	W06
	BYTE		        En3 
	BYTE	W06
	BYTE	PEND
// 006   ----------------------------------------
Phase5_FINAL_5_006:
	BYTE		N11     Dn3   v100
	BYTE	W12
	BYTE		        Cn3 
	BYTE	W12
	BYTE		        Bn2 
	BYTE	W12
	BYTE		N05     Gn2 
	BYTE	W06
	BYTE		        Bn2 
	BYTE	W06
	BYTE		N11     Dn3 
	BYTE	W12
	BYTE		        Gn3 
	BYTE	W12
	BYTE		        Bn3 
	BYTE	W12
	BYTE		N05     Gn3 
	BYTE	W06
	BYTE		        En3 
	BYTE	W06
	BYTE	PEND
// 007   ----------------------------------------
Phase5_FINAL_5_007:
	BYTE		N11     Dn3   v100
	BYTE	W12
	BYTE		        En3 
	BYTE	W12
	BYTE		        Fs3 
	BYTE	W12
	BYTE		N05     Dn3 
	BYTE	W06
	BYTE		        An2 
	BYTE	W06
	BYTE		N11     Fs3 
	BYTE	W12
	BYTE		        Gn3 
	BYTE	W12
	BYTE		        An3 
	BYTE	W12
	BYTE		        Fs3 
	BYTE	W12
	BYTE	PEND
// 008   ----------------------------------------
	BYTE		        Dn3 
	BYTE	W12
	BYTE		        An2 
	BYTE	W12
	BYTE		        Fn3 
	BYTE	W12
	BYTE		N05     An2 
	BYTE	W06
	BYTE		        Cn3 
	BYTE	W06
	BYTE		N11     Dn3 
	BYTE	W12
	BYTE		        An2 
	BYTE	W12
	BYTE		        Fn3 
	BYTE	W12
	BYTE		N05     Gn3 
	BYTE	W06
	BYTE		        Fn3 
	BYTE	W06
// 009   ----------------------------------------
	BYTE	PATT
	 POIN2	Phase5_FINAL_5_001
// 010   ----------------------------------------
	BYTE	PATT
	 POIN2	Phase5_FINAL_5_002
// 011   ----------------------------------------
	BYTE	PATT
	 POIN2	Phase5_FINAL_5_003
// 012   ----------------------------------------
	BYTE	PATT
	 POIN2	Phase5_FINAL_5_004
// 013   ----------------------------------------
	BYTE	PATT
	 POIN2	Phase5_FINAL_5_005
// 014   ----------------------------------------
	BYTE	PATT
	 POIN2	Phase5_FINAL_5_006
// 015   ----------------------------------------
	BYTE	PATT
	 POIN2	Phase5_FINAL_5_007
// 016   ----------------------------------------
	BYTE		N90     Dn3   v100
	BYTE	W96
// 017   ----------------------------------------
	BYTE	W90
	BYTE	GoTo
	 POIN2	Phase5_FINAL_5_B1
Phase5_FINAL_5_B2:
	BYTE	FINE

//**************** Track 6 (Midi-Chn.6) ****************//

Phase5_FINAL_6:
	BYTE	KEYSH   Phase5_FINAL_key+0
Phase5_FINAL_6_B1:
// 000   ----------------------------------------
	BYTE		VOICE   48
	BYTE		MODT    0
	BYTE		LFOS    44
	BYTE		PAN     c_v+17
	BYTE		VOL     127*Phase5_FINAL_mvl/mxv
	BYTE	W96
// 001   ----------------------------------------
	BYTE	W96
// 002   ----------------------------------------
	BYTE	W96
// 003   ----------------------------------------
	BYTE	W96
// 004   ----------------------------------------
	BYTE	W96
// 005   ----------------------------------------
	BYTE	W96
// 006   ----------------------------------------
	BYTE	W96
// 007   ----------------------------------------
	BYTE	W96
// 008   ----------------------------------------
	BYTE		N90     An4   v100
	BYTE		N90     Dn5 
	BYTE		N90     Fn5 
	BYTE	W96
// 009   ----------------------------------------
	BYTE		        Gn4 
	BYTE		N90     Cn5 
	BYTE		N90     En5 
	BYTE	W96
// 010   ----------------------------------------
Phase5_FINAL_6_010:
	BYTE		N90     An4   v100
	BYTE		N90     Cn5 
	BYTE		N90     Fn5 
	BYTE	W96
	BYTE	PEND
// 011   ----------------------------------------
	BYTE		        As4 
	BYTE		N90     Dn5 
	BYTE		N90     Fn5 
	BYTE	W96
// 012   ----------------------------------------
	BYTE	PATT
	 POIN2	Phase5_FINAL_6_010
// 013   ----------------------------------------
	BYTE		N90     An4   v100
	BYTE		N90     Cn5 
	BYTE		N90     En5 
	BYTE	W96
// 014   ----------------------------------------
	BYTE		        Bn4 
	BYTE		N90     Dn5 
	BYTE		N90     Gn5 
	BYTE	W96
// 015   ----------------------------------------
	BYTE		TIE     An4 
	BYTE		TIE     Dn5 
	BYTE		TIE     Fs5 
	BYTE	W96
// 016   ----------------------------------------
	BYTE	W96
// 017   ----------------------------------------
	BYTE	W90
	BYTE		EOT     An4 
	BYTE		        Dn5 
	BYTE		        Fs5 
	BYTE	GoTo
	 POIN2	Phase5_FINAL_6_B1
Phase5_FINAL_6_B2:
	BYTE	FINE

//**************** Track 7 (Midi-Chn.7) ****************//

Phase5_FINAL_7:
	BYTE	KEYSH   Phase5_FINAL_key+0
Phase5_FINAL_7_B1:
// 000   ----------------------------------------
	BYTE		VOICE   30
	BYTE		MODT    0
	BYTE		LFOS    44
	BYTE		VOL     98*Phase5_FINAL_mvl/mxv
	BYTE		PAN     c_v-16
	BYTE		N56     Dn2   v100
	BYTE	W60
	BYTE		N05   
	BYTE	W06
	BYTE		N05   
	BYTE	W06
	BYTE		N11   
	BYTE	W12
	BYTE		N11   
	BYTE	W12
// 001   ----------------------------------------
Phase5_FINAL_7_001:
	BYTE		N56     Cn2   v100
	BYTE	W60
	BYTE		N05   
	BYTE	W06
	BYTE		N05   
	BYTE	W06
	BYTE		N11   
	BYTE	W12
	BYTE		N11   
	BYTE	W12
	BYTE	PEND
// 002   ----------------------------------------
Phase5_FINAL_7_002:
	BYTE		N56     Fn2   v100
	BYTE	W60
	BYTE		N05   
	BYTE	W06
	BYTE		N05   
	BYTE	W06
	BYTE		N11   
	BYTE	W12
	BYTE		N11   
	BYTE	W12
	BYTE	PEND
// 003   ----------------------------------------
Phase5_FINAL_7_003:
	BYTE		N56     Dn2   v100
	BYTE	W60
	BYTE		N05   
	BYTE	W06
	BYTE		N05   
	BYTE	W06
	BYTE		N11   
	BYTE	W12
	BYTE		N11   
	BYTE	W12
	BYTE	PEND
// 004   ----------------------------------------
	BYTE	PATT
	 POIN2	Phase5_FINAL_7_001
// 005   ----------------------------------------
	BYTE	PATT
	 POIN2	Phase5_FINAL_7_001
// 006   ----------------------------------------
	BYTE	PATT
	 POIN2	Phase5_FINAL_7_003
// 007   ----------------------------------------
Phase5_FINAL_7_007:
	BYTE		N05     Dn2   v100
	BYTE	W06
	BYTE		N04     An1 
	BYTE	W06
	BYTE		N04   
	BYTE	W06
	BYTE		N05     Dn2 
	BYTE	W06
	BYTE		N05   
	BYTE	W06
	BYTE		N04     An1 
	BYTE	W06
	BYTE		N05     Dn2 
	BYTE	W06
	BYTE		N04     An1 
	BYTE	W06
	BYTE		N05     Dn2 
	BYTE	W06
	BYTE		N04     An1 
	BYTE	W06
	BYTE		N04   
	BYTE	W06
	BYTE		N05     Dn2 
	BYTE	W06
	BYTE		N05   
	BYTE	W06
	BYTE		N04     An1 
	BYTE	W06
	BYTE		N05     Dn2 
	BYTE	W06
	BYTE		N04     An1 
	BYTE	W06
	BYTE	PEND
// 008   ----------------------------------------
	BYTE	PATT
	 POIN2	Phase5_FINAL_7_003
// 009   ----------------------------------------
	BYTE	PATT
	 POIN2	Phase5_FINAL_7_001
// 010   ----------------------------------------
	BYTE	PATT
	 POIN2	Phase5_FINAL_7_002
// 011   ----------------------------------------
	BYTE	PATT
	 POIN2	Phase5_FINAL_7_003
// 012   ----------------------------------------
	BYTE	PATT
	 POIN2	Phase5_FINAL_7_001
// 013   ----------------------------------------
	BYTE	PATT
	 POIN2	Phase5_FINAL_7_001
// 014   ----------------------------------------
	BYTE	PATT
	 POIN2	Phase5_FINAL_7_003
// 015   ----------------------------------------
	BYTE	PATT
	 POIN2	Phase5_FINAL_7_007
// 016   ----------------------------------------
	BYTE		TIE     Dn2   v100
	BYTE	W96
// 017   ----------------------------------------
	BYTE	W90
	BYTE		EOT   
	BYTE	GoTo
	 POIN2	Phase5_FINAL_7_B1
Phase5_FINAL_7_B2:
	BYTE	FINE

//**************** Track 8 (Midi-Chn.8) ****************//

Phase5_FINAL_8:
	BYTE	KEYSH   Phase5_FINAL_key+0
Phase5_FINAL_8_B1:
// 000   ----------------------------------------
	BYTE		VOICE   52
	BYTE		MODT    0
	BYTE		LFOS    44
	BYTE		VOL     109*Phase5_FINAL_mvl/mxv
	BYTE		PAN     c_v+30
	BYTE		VOL     109*Phase5_FINAL_mvl/mxv
	BYTE	W24
	BYTE		PAN     c_v+17
	BYTE		VOL     127*Phase5_FINAL_mvl/mxv
	BYTE		N20     Dn5   v127
	BYTE	W24
	BYTE		N66     An4 
	BYTE	W48
// 001   ----------------------------------------
Phase5_FINAL_8_001:
	BYTE	W24
	BYTE		N11     Fn4   v127
	BYTE	W12
	BYTE		        Gn4 
	BYTE	W12
	BYTE		        An4 
	BYTE	W12
	BYTE		N05     As4 
	BYTE	W06
	BYTE		N17     An4 
	BYTE	W18
	BYTE		N11     Gn4 
	BYTE	W12
	BYTE	PEND
// 002   ----------------------------------------
Phase5_FINAL_8_002:
	BYTE		N20     Fn4   v127
	BYTE	W24
	BYTE		        Dn5 
	BYTE	W24
	BYTE		N66     An4 
	BYTE	W48
	BYTE	PEND
// 003   ----------------------------------------
Phase5_FINAL_8_003:
	BYTE	W24
	BYTE		N11     As4   v127
	BYTE	W12
	BYTE		        Cn5 
	BYTE	W12
	BYTE		        Dn5 
	BYTE	W12
	BYTE		N05     En5 
	BYTE	W06
	BYTE		N17     Fn5 
	BYTE	W18
	BYTE		N11     En5 
	BYTE	W12
	BYTE	PEND
// 004   ----------------------------------------
Phase5_FINAL_8_004:
	BYTE		N20     Dn5   v127
	BYTE	W24
	BYTE		        Cn5 
	BYTE	W24
	BYTE		N11   
	BYTE	W12
	BYTE		N05     As4 
	BYTE	W06
	BYTE		        An4 
	BYTE	W06
	BYTE		N42     As4 
	BYTE	W24
	BYTE	PEND
// 005   ----------------------------------------
Phase5_FINAL_8_005:
	BYTE	W24
	BYTE		N20     An4   v127
	BYTE	W24
	BYTE		N11     Gn4 
	BYTE	W12
	BYTE		N05     An4 
	BYTE	W06
	BYTE		N17     As4 
	BYTE	W18
	BYTE		N11     An4 
	BYTE	W12
	BYTE	PEND
// 006   ----------------------------------------
Phase5_FINAL_8_006:
	BYTE		N20     Gn4   v127
	BYTE	W24
	BYTE		N11     Fn4 
	BYTE	W12
	BYTE		        Gn4 
	BYTE	W12
	BYTE		N32     An4 
	BYTE	W36
	BYTE		N05     Fn4 
	BYTE	W06
	BYTE		        Gn4 
	BYTE	W06
	BYTE	PEND
// 007   ----------------------------------------
	BYTE		N11     An4 
	BYTE	W12
	BYTE		N20     As4 
	BYTE	W24
	BYTE		N11     An4 
	BYTE	W12
	BYTE		N66     Gn4 
	BYTE	W48
// 008   ----------------------------------------
	BYTE	W24
	BYTE		N20     Dn5 
	BYTE	W24
	BYTE		N66     An4 
	BYTE	W48
// 009   ----------------------------------------
	BYTE	PATT
	 POIN2	Phase5_FINAL_8_001
// 010   ----------------------------------------
	BYTE	PATT
	 POIN2	Phase5_FINAL_8_002
// 011   ----------------------------------------
	BYTE	PATT
	 POIN2	Phase5_FINAL_8_003
// 012   ----------------------------------------
	BYTE	PATT
	 POIN2	Phase5_FINAL_8_004
// 013   ----------------------------------------
	BYTE	PATT
	 POIN2	Phase5_FINAL_8_005
// 014   ----------------------------------------
	BYTE	PATT
	 POIN2	Phase5_FINAL_8_006
// 015   ----------------------------------------
	BYTE		N11     An4   v127
	BYTE	W12
	BYTE		N20     As4 
	BYTE	W24
	BYTE		N11     An4 
	BYTE	W12
	BYTE		N96     Gn4 
	BYTE	W48
// 016   ----------------------------------------
	BYTE	W96
// 017   ----------------------------------------
	BYTE	W90
	BYTE	GoTo
	 POIN2	Phase5_FINAL_8_B1
Phase5_FINAL_8_B2:
	BYTE	FINE

//**************** Track 9 (Midi-Chn.9) ****************//

Phase5_FINAL_9:
	BYTE	KEYSH   Phase5_FINAL_key+0
Phase5_FINAL_9_B1:
// 000   ----------------------------------------
	BYTE		VOICE   124
	BYTE		MODT    0
	BYTE		LFOS    44
	BYTE		VOL     127*Phase5_FINAL_mvl/mxv
	BYTE		PAN     c_v+0
	BYTE		N11     Bn0   v100
	BYTE		N11     Cn1 
	BYTE		N11     As1 
	BYTE		N11     Fs2 
	BYTE		N11     An2 
	BYTE	W12
	BYTE		        Fs1 
	BYTE	W12
	BYTE		        Dn1 
	BYTE		N11     En1 
	BYTE		N11     As1 
	BYTE		N11     Fs2 
	BYTE	W12
	BYTE		N05     Fs1 
	BYTE	W06
	BYTE		        Bn0 
	BYTE		N05     Cn1 
	BYTE	W06
	BYTE		N11     Bn0 
	BYTE		N11     Cn1 
	BYTE		N11     As1 
	BYTE		N11     Fs2 
	BYTE	W12
	BYTE		        Fs1 
	BYTE	W12
	BYTE		        Dn1 
	BYTE		N11     En1 
	BYTE		N11     As1 
	BYTE		N11     Fs2 
	BYTE	W12
	BYTE		N05     Fs1 
	BYTE	W06
	BYTE		        Bn0 
	BYTE		N05     Cn1 
	BYTE	W06
// 001   ----------------------------------------
Phase5_FINAL_9_001:
	BYTE		N11     Bn0   v100
	BYTE		N11     Cn1 
	BYTE		N11     As1 
	BYTE		N11     Fs2 
	BYTE	W12
	BYTE		        Fs1 
	BYTE	W12
	BYTE		        Dn1 
	BYTE		N11     En1 
	BYTE		N11     As1 
	BYTE		N11     Fs2 
	BYTE	W12
	BYTE		N05     Fs1 
	BYTE	W06
	BYTE		        Bn0 
	BYTE		N05     Cn1 
	BYTE	W06
	BYTE		N11     Bn0 
	BYTE		N11     Cn1 
	BYTE		N11     As1 
	BYTE		N11     Fs2 
	BYTE	W12
	BYTE		        Fs1 
	BYTE	W12
	BYTE		        Dn1 
	BYTE		N11     En1 
	BYTE		N11     As1 
	BYTE		N11     Fs2 
	BYTE	W12
	BYTE		N05     Fs1 
	BYTE	W06
	BYTE		        Bn0 
	BYTE		N05     Cn1 
	BYTE	W06
	BYTE	PEND
// 002   ----------------------------------------
	BYTE	PATT
	 POIN2	Phase5_FINAL_9_001
// 003   ----------------------------------------
	BYTE	PATT
	 POIN2	Phase5_FINAL_9_001
// 004   ----------------------------------------
	BYTE	PATT
	 POIN2	Phase5_FINAL_9_001
// 005   ----------------------------------------
	BYTE	PATT
	 POIN2	Phase5_FINAL_9_001
// 006   ----------------------------------------
	BYTE	PATT
	 POIN2	Phase5_FINAL_9_001
// 007   ----------------------------------------
Phase5_FINAL_9_007:
	BYTE		N11     Bn0   v100
	BYTE		N11     Cn1 
	BYTE		N11     As1 
	BYTE		N11     Fs2 
	BYTE	W12
	BYTE		        Fs1 
	BYTE	W12
	BYTE		        Dn1 
	BYTE		N11     En1 
	BYTE		N11     As1 
	BYTE		N11     Fs2 
	BYTE	W12
	BYTE		N05     Fs1 
	BYTE	W06
	BYTE		        Bn0 
	BYTE		N05     Cn1 
	BYTE	W06
	BYTE		        Bn0 
	BYTE		N05     Cn1 
	BYTE		N05     As1 
	BYTE		N05     Dn2 
	BYTE		N05     Fs2 
	BYTE	W06
	BYTE		        Cn2 
	BYTE	W06
	BYTE		        Bn0 
	BYTE		N05     Cn1 
	BYTE	W06
	BYTE		        Bn1 
	BYTE	W06
	BYTE		        Dn1 
	BYTE		N05     En1 
	BYTE		N05     As1 
	BYTE		N05     Bn1 
	BYTE		N05     Fs2 
	BYTE	W06
	BYTE		        Bn0 
	BYTE		N05     Cn1 
	BYTE		N05     Dn1 
	BYTE		N05     En1 
	BYTE		N05     An1 
	BYTE	W06
	BYTE		        Bn0 
	BYTE		N05     Cn1 
	BYTE		N05     Dn1 
	BYTE		N05     En1 
	BYTE		N05     An1 
	BYTE	W06
	BYTE		        Bn0 
	BYTE		N05     Cn1 
	BYTE		N05     Dn1 
	BYTE		N05     En1 
	BYTE	W06
	BYTE	PEND
// 008   ----------------------------------------
	BYTE		N11     Bn0 
	BYTE		N11     Cn1 
	BYTE		N11     As1 
	BYTE		N11     Fs2 
	BYTE		N11     An2 
	BYTE	W12
	BYTE		        Fs1 
	BYTE	W12
	BYTE		        Dn1 
	BYTE		N11     En1 
	BYTE		N11     As1 
	BYTE		N11     Fs2 
	BYTE	W12
	BYTE		N05     Fs1 
	BYTE	W06
	BYTE		        Bn0 
	BYTE		N05     Cn1 
	BYTE	W06
	BYTE		        Bn0 
	BYTE		N05     Cn1 
	BYTE		N05     Dn1 
	BYTE		N05     En1 
	BYTE		N05     As1 
	BYTE		N05     Fs2 
	BYTE		N05     Gn2 
	BYTE	W06
	BYTE		        Bn0 
	BYTE		N05     Cn1 
	BYTE	W06
	BYTE		        Bn0 
	BYTE		N05     Cn1 
	BYTE		N05     Fs1 
	BYTE	W06
	BYTE		        Dn1 
	BYTE		N05     En1 
	BYTE		N05     Gn2 
	BYTE	W06
	BYTE		        Bn0 
	BYTE		N05     Cn1 
	BYTE		N05     Dn1 
	BYTE		N05     En1 
	BYTE		N05     As1 
	BYTE		N05     Fs2 
	BYTE		N05     Gn2 
	BYTE	W06
	BYTE		        Bn0 
	BYTE		N05     Cn1 
	BYTE	W06
	BYTE		        Dn1 
	BYTE		N05     En1 
	BYTE		N05     Fs1 
	BYTE		N05     Gn2 
	BYTE	W06
	BYTE		        Bn0 
	BYTE		N05     Cn1 
	BYTE	W06
// 009   ----------------------------------------
Phase5_FINAL_9_009:
	BYTE		N11     Bn0   v100
	BYTE		N11     Cn1 
	BYTE		N11     As1 
	BYTE		N11     Fs2 
	BYTE		N11     Gn2 
	BYTE	W12
	BYTE		        Fs1 
	BYTE	W12
	BYTE		        Dn1 
	BYTE		N11     En1 
	BYTE		N11     As1 
	BYTE		N11     Fs2 
	BYTE	W12
	BYTE		N05     Fs1 
	BYTE	W06
	BYTE		        Bn0 
	BYTE		N05     Cn1 
	BYTE	W06
	BYTE		N11     Bn0 
	BYTE		N11     Cn1 
	BYTE		N11     As1 
	BYTE		N11     Fs2 
	BYTE		N11     Gn2 
	BYTE	W12
	BYTE		        Bn0 
	BYTE		N11     Cn1 
	BYTE		N11     Fs1 
	BYTE	W12
	BYTE		N05     Dn1 
	BYTE		N05     En1 
	BYTE	W06
	BYTE		        Dn1 
	BYTE		N05     En1 
	BYTE		N05     Fs1 
	BYTE		N05     Gn2 
	BYTE	W06
	BYTE		        Dn1 
	BYTE		N05     En1 
	BYTE	W06
	BYTE		N02     Bn0 
	BYTE		N02     Cn1 
	BYTE		N02     Dn1 
	BYTE		N02     En1 
	BYTE	W03
	BYTE		        Dn1 
	BYTE		N02     En1 
	BYTE	W03
	BYTE	PEND
// 010   ----------------------------------------
	BYTE		N11     Bn0 
	BYTE		N11     Cn1 
	BYTE		N11     As1 
	BYTE		N11     Fs2 
	BYTE		N11     Gn2 
	BYTE	W12
	BYTE		        Fs1 
	BYTE	W12
	BYTE		        Dn1 
	BYTE		N11     En1 
	BYTE		N11     As1 
	BYTE		N11     Fs2 
	BYTE	W12
	BYTE		N05     Fs1 
	BYTE	W06
	BYTE		        Bn0 
	BYTE		N05     Cn1 
	BYTE	W06
	BYTE		N11     Bn0 
	BYTE		N11     Cn1 
	BYTE		N11     As1 
	BYTE		N11     Fs2 
	BYTE	W12
	BYTE		        Fs1 
	BYTE	W12
	BYTE		        Dn1 
	BYTE		N11     En1 
	BYTE		N11     As1 
	BYTE		N11     Fs2 
	BYTE	W12
	BYTE		N05     Fs1 
	BYTE	W06
	BYTE		        Bn0 
	BYTE		N05     Cn1 
	BYTE	W06
// 011   ----------------------------------------
	BYTE		        Bn0 
	BYTE		N05     Cn1 
	BYTE		N05     Dn1 
	BYTE		N05     En1 
	BYTE		N05     As1 
	BYTE		N05     Fs2 
	BYTE		N05     Gn2 
	BYTE	W06
	BYTE		        Bn0 
	BYTE		N05     Cn1 
	BYTE	W06
	BYTE		        Bn0 
	BYTE		N05     Cn1 
	BYTE		N05     Fs1 
	BYTE	W06
	BYTE		        Dn1 
	BYTE		N05     En1 
	BYTE		N05     Gn2 
	BYTE	W06
	BYTE		        Bn0 
	BYTE		N05     Cn1 
	BYTE		N05     Dn1 
	BYTE		N05     En1 
	BYTE		N05     As1 
	BYTE		N05     Fs2 
	BYTE		N05     Gn2 
	BYTE	W06
	BYTE		        Bn0 
	BYTE		N05     Cn1 
	BYTE	W06
	BYTE		        Dn1 
	BYTE		N05     En1 
	BYTE		N05     Fs1 
	BYTE		N05     Gn2 
	BYTE	W06
	BYTE		N02     Bn0 
	BYTE		N02     Cn1 
	BYTE	W03
	BYTE		        Bn0 
	BYTE		N02     Cn1 
	BYTE	W03
	BYTE		N11     Bn0 
	BYTE		N11     Cn1 
	BYTE		N11     As1 
	BYTE		N11     Fs2 
	BYTE	W12
	BYTE		        Fs1 
	BYTE	W12
	BYTE		        Dn1 
	BYTE		N11     En1 
	BYTE		N11     As1 
	BYTE		N11     Fs2 
	BYTE	W12
	BYTE		N05     Fs1 
	BYTE	W06
	BYTE		        Bn0 
	BYTE		N05     Cn1 
	BYTE	W06
// 012   ----------------------------------------
	BYTE		N11     Bn0 
	BYTE		N11     Cn1 
	BYTE		N11     As1 
	BYTE		N11     Fs2 
	BYTE		N11     Gn2 
	BYTE	W12
	BYTE		        Fs1 
	BYTE	W12
	BYTE		        Dn1 
	BYTE		N11     En1 
	BYTE		N11     As1 
	BYTE		N11     Fs2 
	BYTE	W12
	BYTE		N05     Fs1 
	BYTE	W06
	BYTE		        Bn0 
	BYTE		N05     Cn1 
	BYTE	W06
	BYTE		        Bn0 
	BYTE		N05     Cn1 
	BYTE		N05     Dn1 
	BYTE		N05     En1 
	BYTE		N05     As1 
	BYTE		N05     Fs2 
	BYTE		N05     Gn2 
	BYTE	W06
	BYTE		        Bn0 
	BYTE		N05     Cn1 
	BYTE	W06
	BYTE		        Bn0 
	BYTE		N05     Cn1 
	BYTE		N05     Fs1 
	BYTE	W06
	BYTE		        Dn1 
	BYTE		N05     En1 
	BYTE		N05     Gn2 
	BYTE	W06
	BYTE		        Bn0 
	BYTE		N05     Cn1 
	BYTE		N05     Dn1 
	BYTE		N05     En1 
	BYTE		N05     As1 
	BYTE		N05     Fs2 
	BYTE		N05     Gn2 
	BYTE	W06
	BYTE		        Bn0 
	BYTE		N05     Cn1 
	BYTE	W06
	BYTE		        Dn1 
	BYTE		N05     En1 
	BYTE		N05     Fs1 
	BYTE		N05     Gn2 
	BYTE	W06
	BYTE		        Bn0 
	BYTE		N05     Cn1 
	BYTE	W06
// 013   ----------------------------------------
	BYTE	PATT
	 POIN2	Phase5_FINAL_9_009
// 014   ----------------------------------------
	BYTE	PATT
	 POIN2	Phase5_FINAL_9_009
// 015   ----------------------------------------
	BYTE	PATT
	 POIN2	Phase5_FINAL_9_007
// 016   ----------------------------------------
	BYTE		N90     En2   v100
	BYTE		N90     Gn2 
	BYTE		N90     An2 
	BYTE	W96
// 017   ----------------------------------------
	BYTE	W90
	BYTE	GoTo
	 POIN2	Phase5_FINAL_9_B1
Phase5_FINAL_9_B2:
	BYTE	FINE

//**************** Track 10 (Midi-Chn.11) ****************//

Phase5_FINAL_10:
	BYTE	KEYSH   Phase5_FINAL_key+0
Phase5_FINAL_10_B1:
// 000   ----------------------------------------
	BYTE		VOICE   16
	BYTE		MODT    0
	BYTE		LFOS    44
	BYTE		VOL     69*Phase5_FINAL_mvl/mxv
	BYTE		PAN     c_v-8
	BYTE		N90     Dn3   v100
	BYTE		N90     Fn3 
	BYTE		N90     An3 
	BYTE		N90     Dn4 
	BYTE		N90     Fn4 
	BYTE		N90     An4 
	BYTE	W96
// 001   ----------------------------------------
Phase5_FINAL_10_001:
	BYTE		N90     Cn3   v100
	BYTE		N90     En3 
	BYTE		N90     Gn3 
	BYTE		N90     Cn4 
	BYTE		N90     En4 
	BYTE		N90     Gn4 
	BYTE	W96
	BYTE	PEND
// 002   ----------------------------------------
Phase5_FINAL_10_002:
	BYTE		N90     Cn3   v100
	BYTE		N90     Fn3 
	BYTE		N90     An3 
	BYTE		N90     Cn4 
	BYTE		N90     Fn4 
	BYTE		N90     An4 
	BYTE	W96
	BYTE	PEND
// 003   ----------------------------------------
Phase5_FINAL_10_003:
	BYTE		N90     Dn3   v100
	BYTE		N90     Fn3 
	BYTE		N90     As3 
	BYTE		N90     Dn4 
	BYTE		N90     Fn4 
	BYTE		N90     As4 
	BYTE	W96
	BYTE	PEND
// 004   ----------------------------------------
	BYTE	PATT
	 POIN2	Phase5_FINAL_10_002
// 005   ----------------------------------------
Phase5_FINAL_10_005:
	BYTE		N90     Cn3   v100
	BYTE		N90     En3 
	BYTE		N90     An3 
	BYTE		N90     Cn4 
	BYTE		N90     En4 
	BYTE		N90     An4 
	BYTE	W96
	BYTE	PEND
// 006   ----------------------------------------
Phase5_FINAL_10_006:
	BYTE		N90     Dn3   v100
	BYTE		N90     Gn3 
	BYTE		N90     Bn3 
	BYTE		N90     Dn4 
	BYTE		N90     Gn4 
	BYTE		N90     Bn4 
	BYTE	W96
	BYTE	PEND
// 007   ----------------------------------------
	BYTE		        Dn3 
	BYTE		N90     Fs3 
	BYTE		N90     An3 
	BYTE		N90     Dn4 
	BYTE		N90     Fs4 
	BYTE		N90     An4 
	BYTE	W96
// 008   ----------------------------------------
	BYTE		        Dn3 
	BYTE		N90     Fn3 
	BYTE		N90     An3 
	BYTE		N90     Dn4 
	BYTE		N90     Fn4 
	BYTE		N90     An4 
	BYTE	W96
// 009   ----------------------------------------
	BYTE	PATT
	 POIN2	Phase5_FINAL_10_001
// 010   ----------------------------------------
	BYTE	PATT
	 POIN2	Phase5_FINAL_10_002
// 011   ----------------------------------------
	BYTE	PATT
	 POIN2	Phase5_FINAL_10_003
// 012   ----------------------------------------
	BYTE	PATT
	 POIN2	Phase5_FINAL_10_002
// 013   ----------------------------------------
	BYTE	PATT
	 POIN2	Phase5_FINAL_10_005
// 014   ----------------------------------------
	BYTE	PATT
	 POIN2	Phase5_FINAL_10_006
// 015   ----------------------------------------
	BYTE		TIE     Dn3   v100
	BYTE		TIE     Fs3 
	BYTE		TIE     An3 
	BYTE		TIE     Dn4 
	BYTE		TIE     Fs4 
	BYTE		TIE     An4 
	BYTE	W96
// 016   ----------------------------------------
	BYTE	W96
// 017   ----------------------------------------
	BYTE	W90
	BYTE		EOT     Dn3 
	BYTE		        Fs3 
	BYTE		        An3 
	BYTE		        Dn4 
	BYTE		        Fs4 
	BYTE		        An4 
	BYTE	GoTo
	 POIN2	Phase5_FINAL_10_B1
Phase5_FINAL_10_B2:
	BYTE	FINE

//******************************************************//
	ALIGN 4

Phase5_FINAL:
	BYTE	10	// NumTrks
	BYTE	0	// NumBlks
	BYTE	Phase5_FINAL_pri	// Priority
	BYTE	Phase5_FINAL_rev	// Reverb.

	POIN2	Phase5_FINAL_grp

	POIN2	Phase5_FINAL_1
	POIN2	Phase5_FINAL_2
	POIN2	Phase5_FINAL_3
	POIN2	Phase5_FINAL_4
	POIN2	Phase5_FINAL_5
	POIN2	Phase5_FINAL_6
	POIN2	Phase5_FINAL_7
	POIN2	Phase5_FINAL_8
	POIN2	Phase5_FINAL_9
	POIN2	Phase5_FINAL_10

	
