//Event file generated from Sappy .s format.
	#include "MPlayDef.event"

	#define	PressOnSong_grp  voicegroup000
	#define	PressOnSong_pri  0
	#define	PressOnSong_rev  94
	#define	PressOnSong_mvl  33
	#define	PressOnSong_key  0
	#define	PressOnSong_tbs  1
	#define	PressOnSong_exg  0
	#define	PressOnSong_cmp  1

	// .rodata
	//	PressOnSong
	ALIGN 4

//**************** Track 1 (Midi-Chn.1) ****************//

PressOnSong_1:
	BYTE	KEYSH   PressOnSong_key+0
// 000   ----------------------------------------
	BYTE	TEMPO   100*PressOnSong_tbs/2
	BYTE		VOICE   1
	BYTE		MODT    0
	BYTE		LFOS    44
	BYTE		PAN     c_v+5
	BYTE		VOL     127*PressOnSong_mvl/mxv
	BYTE	W24
	BYTE		N24     En2   v056
	BYTE	W12
	BYTE		N12     Gn2 
	BYTE		N12     Bn2 
	BYTE		N12     En3 
	BYTE	W12
	BYTE		N24     En2 
	BYTE	W12
	BYTE		N12     Gn2 
	BYTE		N12     Bn2 
	BYTE		N12     En3 
	BYTE	W12
	BYTE		N24     En2 
	BYTE	W12
	BYTE		N12     Gn2 
	BYTE		N12     Bn2 
	BYTE		N12     En3 
	BYTE	W12
// 001   ----------------------------------------
PressOnSong_1_001:
	BYTE		N24     En2   v056
	BYTE	W12
	BYTE		N12     Gn2 
	BYTE		N12     Bn2 
	BYTE		N12     En3 
	BYTE	W12
	BYTE		N24     En2 
	BYTE	W12
	BYTE		N12     An2 
	BYTE		N12     Cn3 
	BYTE		N12     En3 
	BYTE	W12
	BYTE		N24     En2 
	BYTE	W12
	BYTE		N12     An2 
	BYTE		N12     Cn3 
	BYTE		N12     En3 
	BYTE	W12
	BYTE		N24     En2 
	BYTE	W12
	BYTE		N12     An2 
	BYTE		N12     Cn3 
	BYTE		N12     En3 
	BYTE	W12
	BYTE	PEND
// 002   ----------------------------------------
	BYTE		N24     En2 
	BYTE	W12
	BYTE		N12     An2 
	BYTE		N12     Cn3 
	BYTE		N12     En3 
	BYTE	W12
	BYTE		N24     En2 
	BYTE	W12
	BYTE		N12     Gn2 
	BYTE		N12     Bn2 
	BYTE		N12     En3 
	BYTE	W12
	BYTE		N24     En2 
	BYTE	W12
	BYTE		N12     Gn2 
	BYTE		N12     Bn2 
	BYTE		N12     En3 
	BYTE	W12
	BYTE		N24     En2 
	BYTE	W12
	BYTE		N12     Gn2 
	BYTE		N12     Bn2 
	BYTE		N12     En3 
	BYTE	W12
// 003   ----------------------------------------
	BYTE		N24     En2 
	BYTE	W12
	BYTE		N12     Gn2 
	BYTE		N12     Bn2 
	BYTE		N12     En3 
	BYTE	W12
	BYTE		N90     En2 
	BYTE	W03
	BYTE		N84     An2 
	BYTE	W03
	BYTE		        Cn3 
	BYTE	W03
	BYTE		N80     En3 
	BYTE	W36
	BYTE	W03
PressOnSong_1_B1:
	BYTE	W24
// 004   ----------------------------------------
	BYTE	W24
	BYTE		N24     En2   v056
	BYTE	W12
	BYTE		N12     Gn2 
	BYTE		N12     Bn2 
	BYTE		N12     En3 
	BYTE	W12
	BYTE		N24     En2 
	BYTE	W12
	BYTE		N12     Gn2 
	BYTE		N12     Bn2 
	BYTE		N12     En3 
	BYTE	W12
	BYTE		N24     En2 
	BYTE	W12
	BYTE		N12     Gn2 
	BYTE		N12     Bn2 
	BYTE		N12     En3 
	BYTE	W12
// 005   ----------------------------------------
	BYTE	PATT
	 POIN2	PressOnSong_1_001
// 006   ----------------------------------------
PressOnSong_1_006:
	BYTE		N24     En2   v056
	BYTE	W12
	BYTE		N12     An2 
	BYTE		N12     Cn3 
	BYTE		N12     En3 
	BYTE	W12
	BYTE		N24     Fn2 
	BYTE	W12
	BYTE		N12     An2 
	BYTE		N12     Dn3 
	BYTE		N12     Fn3 
	BYTE	W12
	BYTE		N24     Fn2 
	BYTE	W12
	BYTE		N12     An2 
	BYTE		N12     Dn3 
	BYTE		N12     Fn3 
	BYTE	W12
	BYTE		N24     Fn2 
	BYTE	W12
	BYTE		N12     An2 
	BYTE		N12     Dn3 
	BYTE		N12     Fn3 
	BYTE	W12
	BYTE	PEND
// 007   ----------------------------------------
	BYTE		N24     Fn2 
	BYTE	W12
	BYTE		N12     An2 
	BYTE		N12     Dn3 
	BYTE		N12     Fn3 
	BYTE	W12
	BYTE		N24     Gn2 
	BYTE	W12
	BYTE		N12     Bn2 
	BYTE		N12     Dn3 
	BYTE		N12     Gn3 
	BYTE	W12
	BYTE		N24     Gn2 
	BYTE	W12
	BYTE		N12     Bn2 
	BYTE		N12     Dn3 
	BYTE		N12     Gn3 
	BYTE	W12
	BYTE		N24     Fs2 
	BYTE	W12
	BYTE		N12     Bn2 
	BYTE		N12     Dn3 
	BYTE		N12     Fs3 
	BYTE	W12
// 008   ----------------------------------------
	BYTE		N24     Fs2 
	BYTE	W12
	BYTE		N12     Bn2 
	BYTE		N12     Dn3 
	BYTE		N12     Fs3 
	BYTE	W12
	BYTE		N24     En2 
	BYTE	W12
	BYTE		N12     Gn2 
	BYTE		N12     Bn2 
	BYTE		N12     En3 
	BYTE	W12
	BYTE		N24     En2 
	BYTE	W12
	BYTE		N12     Gn2 
	BYTE		N12     Bn2 
	BYTE		N12     En3 
	BYTE	W12
	BYTE		N24     En2 
	BYTE	W12
	BYTE		N12     Gn2 
	BYTE		N12     Bn2 
	BYTE		N12     En3 
	BYTE	W12
// 009   ----------------------------------------
	BYTE	PATT
	 POIN2	PressOnSong_1_001
// 010   ----------------------------------------
	BYTE	PATT
	 POIN2	PressOnSong_1_006
// 011   ----------------------------------------
	BYTE		N24     Fn2   v056
	BYTE	W12
	BYTE		N12     An2 
	BYTE		N12     Dn3 
	BYTE		N12     Fn3 
	BYTE	W12
	BYTE		N24     Gn2 
	BYTE	W12
	BYTE		N12     Bn2 
	BYTE		N12     Dn3 
	BYTE		N12     Gn3 
	BYTE	W12
	BYTE		N24     Gn2 
	BYTE	W12
	BYTE		N12     Bn2 
	BYTE		N12     Dn3 
	BYTE		N12     Gn3 
	BYTE	W12
	BYTE		N24     Fs2 
	BYTE	W12
	BYTE		N12     Bn2 
	BYTE		N12     Dn3 
	BYTE		N12     Fs3 
	BYTE		N12     Bn3 
	BYTE	W12
// 012   ----------------------------------------
	BYTE		N24     Fs2 
	BYTE	W12
	BYTE		N12     Bn2 
	BYTE		N12     Dn3 
	BYTE		N12     Fs3 
	BYTE		N12     Bn3 
	BYTE	W12
	BYTE		N24     An2 
	BYTE	W12
	BYTE		N12     Cn3 
	BYTE		N12     En3 
	BYTE		N12     An3 
	BYTE	W12
	BYTE		N24     An2 
	BYTE	W12
	BYTE		N12     Cn3 
	BYTE		N12     En3 
	BYTE		N12     An3 
	BYTE	W12
	BYTE		N24     An2 
	BYTE	W12
	BYTE		N12     Cn3 
	BYTE		N12     En3 
	BYTE		N12     An3 
	BYTE	W12
// 013   ----------------------------------------
PressOnSong_1_013:
	BYTE		N24     An2   v056
	BYTE	W12
	BYTE		N12     Cn3 
	BYTE		N12     En3 
	BYTE		N12     An3 
	BYTE	W12
	BYTE		N24     An2 
	BYTE	W12
	BYTE		N12     Cn3 
	BYTE		N12     Fn3 
	BYTE		N12     An3 
	BYTE	W12
	BYTE		N24     An2 
	BYTE	W12
	BYTE		N12     Cn3 
	BYTE		N12     Fn3 
	BYTE		N12     An3 
	BYTE	W12
	BYTE		N24     An2 
	BYTE	W12
	BYTE		N12     Cn3 
	BYTE		N12     Fn3 
	BYTE		N12     An3 
	BYTE	W12
	BYTE	PEND
// 014   ----------------------------------------
PressOnSong_1_014:
	BYTE		N24     An2   v056
	BYTE	W12
	BYTE		N12     Cn3 
	BYTE		N12     Fn3 
	BYTE		N12     An3 
	BYTE	W12
	BYTE		N24     Bn2 
	BYTE	W12
	BYTE		N12     Dn3 
	BYTE		N12     Gn3 
	BYTE		N12     Bn3 
	BYTE	W12
	BYTE		N24     Bn2 
	BYTE	W12
	BYTE		N12     Dn3 
	BYTE		N12     Gn3 
	BYTE		N12     Bn3 
	BYTE	W12
	BYTE		N24     Bn2 
	BYTE	W12
	BYTE		N12     Dn3 
	BYTE		N12     Gn3 
	BYTE		N12     Bn3 
	BYTE	W12
	BYTE	PEND
// 015   ----------------------------------------
	BYTE		N24     Bn2 
	BYTE	W12
	BYTE		N12     Dn3 
	BYTE		N12     Gn3 
	BYTE		N12     Bn3 
	BYTE	W12
	BYTE		N24     An2 
	BYTE	W12
	BYTE		N12     Dn3 
	BYTE		N12     Fs3 
	BYTE		N12     An3 
	BYTE	W12
	BYTE		N24     An2 
	BYTE	W12
	BYTE		N12     Dn3 
	BYTE		N12     Fs3 
	BYTE		N12     An3 
	BYTE	W12
	BYTE		N24     An2 
	BYTE	W12
	BYTE		N12     Dn3 
	BYTE		N12     Fs3 
	BYTE		N12     An3 
	BYTE	W12
// 016   ----------------------------------------
	BYTE		N24     An2 
	BYTE	W12
	BYTE		N12     Dn3 
	BYTE		N12     Fs3 
	BYTE		N12     An3 
	BYTE	W12
	BYTE		N24     An2 
	BYTE	W12
	BYTE		N12     Cn3 
	BYTE		N12     En3 
	BYTE		N12     An3 
	BYTE	W12
	BYTE		N24     An2 
	BYTE	W12
	BYTE		N12     Cn3 
	BYTE		N12     En3 
	BYTE		N12     An3 
	BYTE	W12
	BYTE		N24     An2 
	BYTE	W12
	BYTE		N12     Cn3 
	BYTE		N12     En3 
	BYTE		N12     An3 
	BYTE	W12
// 017   ----------------------------------------
	BYTE	PATT
	 POIN2	PressOnSong_1_013
// 018   ----------------------------------------
	BYTE	PATT
	 POIN2	PressOnSong_1_014
// 019   ----------------------------------------
	BYTE		N24     Bn2   v056
	BYTE	W12
	BYTE		N12     Dn3 
	BYTE		N12     Gn3 
	BYTE		N12     Bn3 
	BYTE	W12
	BYTE		N24     Fs2 
	BYTE	W12
	BYTE		N12     Bn2 
	BYTE		N12     Dn3 
	BYTE		N12     Fs3 
	BYTE		N12     Bn3 
	BYTE	W12
	BYTE		N24     Fs2 
	BYTE	W12
	BYTE		N12     Bn2 
	BYTE		N12     Dn3 
	BYTE		N12     Fs3 
	BYTE		N12     Bn3 
	BYTE	W12
	BYTE		N24     Fs2 
	BYTE	W12
	BYTE		N12     Bn2 
	BYTE		N12     Dn3 
	BYTE		N12     Fs3 
	BYTE		N12     Bn3 
	BYTE	W12
// 020   ----------------------------------------
	BYTE		N24     Fs2 
	BYTE	W12
	BYTE		N12     Bn2 
	BYTE		N12     Dn3 
	BYTE		N12     Fs3 
	BYTE		N12     Bn3 
	BYTE	W24
	BYTE		N78     An2 
	BYTE	W12
	BYTE		N66     Cn3 
	BYTE	W12
	BYTE		N54     En3 
	BYTE	W36
// 021   ----------------------------------------
PressOnSong_1_021:
	BYTE	W36
	BYTE		N78     Dn3   v056
	BYTE	W12
	BYTE		N66     Gn3 
	BYTE	W12
	BYTE		N54     Bn3 
	BYTE	W36
	BYTE	PEND
// 022   ----------------------------------------
	BYTE	W36
	BYTE		N78     Gn2 
	BYTE	W12
	BYTE		N66     Bn2 
	BYTE	W12
	BYTE		N54     En3 
	BYTE	W36
// 023   ----------------------------------------
	BYTE	W36
	BYTE		N78     Dn3 
	BYTE	W12
	BYTE		N66     Fs3 
	BYTE	W12
	BYTE		N54     An3 
	BYTE	W36
// 024   ----------------------------------------
	BYTE	W36
	BYTE		N78     Cn3 
	BYTE	W12
	BYTE		N66     En3 
	BYTE	W12
	BYTE		N54     An3 
	BYTE	W36
// 025   ----------------------------------------
	BYTE	PATT
	 POIN2	PressOnSong_1_021
// 026   ----------------------------------------
	BYTE	W36
	BYTE		N32     An2   v056
	BYTE	W12
	BYTE		N23     Cn3 
	BYTE	W12
	BYTE		N11     En3 
	BYTE	W12
	BYTE		N32     Dn3 
	BYTE	W12
	BYTE		N23     Fs3 
	BYTE	W12
// 027   ----------------------------------------
	BYTE		N11     An3 
	BYTE	W12
	BYTE		N78     Bn2 
	BYTE		N78     En3 
	BYTE		N78     Gn3 
	BYTE	W80
	BYTE	GoTo
	 POIN2	PressOnSong_1_B1
PressOnSong_1_B2:
	BYTE	FINE

//**************** Track 2 (Midi-Chn.2) ****************//

PressOnSong_2:
	BYTE	KEYSH   PressOnSong_key+0
// 000   ----------------------------------------
	BYTE		VOICE   33
	BYTE		MODT    0
	BYTE		LFOS    44
	BYTE		PAN     c_v-14
	BYTE		VOL     127*PressOnSong_mvl/mxv
	BYTE		N11     Bn0   v127
	BYTE		N11     Bn1 
	BYTE	W12
	BYTE		        Dn1 
	BYTE		N11     Dn2 
	BYTE	W12
	BYTE		N20     En1 
	BYTE		N20     En2 
	BYTE	W24
	BYTE		        Bn0 
	BYTE		N20     Bn1 
	BYTE	W24
	BYTE		        En1 
	BYTE		N20     En2 
	BYTE	W24
// 001   ----------------------------------------
PressOnSong_2_001:
	BYTE		N11     Bn0   v127
	BYTE		N11     Bn1 
	BYTE	W12
	BYTE		        Dn1 
	BYTE		N11     Dn2 
	BYTE	W12
	BYTE		N20     En1 
	BYTE		N20     En2 
	BYTE	W24
	BYTE		        Cn1 
	BYTE		N20     Cn2 
	BYTE	W24
	BYTE		        En1 
	BYTE		N20     En2 
	BYTE	W24
	BYTE	PEND
// 002   ----------------------------------------
	BYTE		N11     Cn1 
	BYTE		N11     Cn2 
	BYTE	W12
	BYTE		        Dn1 
	BYTE		N11     Dn2 
	BYTE	W12
	BYTE		N20     En1 
	BYTE		N20     En2 
	BYTE	W24
	BYTE		        Bn0 
	BYTE		N20     Bn1 
	BYTE	W24
	BYTE		        En1 
	BYTE		N20     En2 
	BYTE	W24
// 003   ----------------------------------------
	BYTE		N11     Bn0 
	BYTE		N11     Bn1 
	BYTE	W12
	BYTE		        Dn1 
	BYTE		N11     Dn2 
	BYTE	W12
	BYTE		N66     En1 
	BYTE		N66     En2 
	BYTE	W48
PressOnSong_2_B1:
	BYTE	W24
// 004   ----------------------------------------
	BYTE		N11     Bn0   v127
	BYTE		N11     Bn1 
	BYTE	W12
	BYTE		        Dn1 
	BYTE		N11     Dn2 
	BYTE	W12
	BYTE		N20     En1 
	BYTE		N20     En2 
	BYTE	W24
	BYTE		        Bn0 
	BYTE		N20     Bn1 
	BYTE	W24
	BYTE		        En1 
	BYTE		N20     En2 
	BYTE	W24
// 005   ----------------------------------------
	BYTE	PATT
	 POIN2	PressOnSong_2_001
// 006   ----------------------------------------
PressOnSong_2_006:
	BYTE		N11     Cn1   v127
	BYTE		N11     Cn2 
	BYTE	W12
	BYTE		        En1 
	BYTE		N11     En2 
	BYTE	W12
	BYTE		N20     Fn1 
	BYTE		N20     Fn2 
	BYTE	W24
	BYTE		        Dn1 
	BYTE		N20     Dn2 
	BYTE	W24
	BYTE		        Fn1 
	BYTE		N20     Fn2 
	BYTE	W24
	BYTE	PEND
// 007   ----------------------------------------
PressOnSong_2_007:
	BYTE		N11     Dn1   v127
	BYTE		N11     Dn2 
	BYTE	W12
	BYTE		        Fn1 
	BYTE		N11     Fn2 
	BYTE	W12
	BYTE		N20     Gn1 
	BYTE		N20     Gn2 
	BYTE	W24
	BYTE		        Dn1 
	BYTE		N20     Dn2 
	BYTE	W24
	BYTE		        Fs1 
	BYTE		N20     Fs2 
	BYTE	W24
	BYTE	PEND
// 008   ----------------------------------------
	BYTE		N11     En1 
	BYTE		N11     En2 
	BYTE	W12
	BYTE		        Dn1 
	BYTE		N11     Dn2 
	BYTE	W12
	BYTE		N20     En1 
	BYTE		N20     En2 
	BYTE	W24
	BYTE		        Bn0 
	BYTE		N20     Bn1 
	BYTE	W24
	BYTE		        En1 
	BYTE		N20     En2 
	BYTE	W24
// 009   ----------------------------------------
	BYTE	PATT
	 POIN2	PressOnSong_2_001
// 010   ----------------------------------------
	BYTE	PATT
	 POIN2	PressOnSong_2_006
// 011   ----------------------------------------
	BYTE	PATT
	 POIN2	PressOnSong_2_007
// 012   ----------------------------------------
PressOnSong_2_012:
	BYTE		N11     En1   v127
	BYTE		N11     En2 
	BYTE	W12
	BYTE		        Dn1 
	BYTE		N11     Dn2 
	BYTE	W12
	BYTE		N20     Cn1 
	BYTE		N20     Cn2 
	BYTE	W24
	BYTE		        En1 
	BYTE		N20     En2 
	BYTE	W24
	BYTE		        Cn1 
	BYTE		N20     Cn2 
	BYTE	W24
	BYTE	PEND
// 013   ----------------------------------------
PressOnSong_2_013:
	BYTE		N11     En1   v127
	BYTE		N11     En2 
	BYTE	W12
	BYTE		        Dn1 
	BYTE		N11     Dn2 
	BYTE	W12
	BYTE		N20     Cn1 
	BYTE		N20     Cn2 
	BYTE	W24
	BYTE		        Fn1 
	BYTE		N20     Fn2 
	BYTE	W24
	BYTE		        Cn1 
	BYTE		N20     Cn2 
	BYTE	W24
	BYTE	PEND
// 014   ----------------------------------------
PressOnSong_2_014:
	BYTE		N11     Fn1   v127
	BYTE		N11     Fn2 
	BYTE	W12
	BYTE		        An1 
	BYTE		N11     An2 
	BYTE	W12
	BYTE		N20     Gn1 
	BYTE		N20     Gn2 
	BYTE	W24
	BYTE		        Dn1 
	BYTE		N20     Dn2 
	BYTE	W24
	BYTE		        Gn1 
	BYTE		N20     Gn2 
	BYTE	W24
	BYTE	PEND
// 015   ----------------------------------------
	BYTE		N11     Fs1 
	BYTE		N11     Fs2 
	BYTE	W12
	BYTE		        En1 
	BYTE		N11     En2 
	BYTE	W12
	BYTE		N20     Dn1 
	BYTE		N20     Dn2 
	BYTE	W24
	BYTE		        Fs1 
	BYTE		N20     Fs2 
	BYTE	W24
	BYTE		N11     An1 
	BYTE		N11     An2 
	BYTE	W12
	BYTE		        Fs1 
	BYTE		N11     Fs2 
	BYTE	W12
// 016   ----------------------------------------
	BYTE	PATT
	 POIN2	PressOnSong_2_012
// 017   ----------------------------------------
	BYTE	PATT
	 POIN2	PressOnSong_2_013
// 018   ----------------------------------------
	BYTE	PATT
	 POIN2	PressOnSong_2_014
// 019   ----------------------------------------
	BYTE		N11     Fs1   v127
	BYTE		N11     Fs2 
	BYTE	W12
	BYTE		        En1 
	BYTE		N11     En2 
	BYTE	W12
	BYTE		N20     Dn1 
	BYTE		N20     Dn2 
	BYTE	W24
	BYTE		        Fs1 
	BYTE		N20     Fs2 
	BYTE	W24
	BYTE		        Bn1 
	BYTE		N20     Bn2 
	BYTE	W24
// 020   ----------------------------------------
	BYTE		N11     Fs1 
	BYTE		N11     Fs2 
	BYTE	W12
	BYTE		        Dn1 
	BYTE		N11     Dn2 
	BYTE	W12
	BYTE		N42     Cn1 
	BYTE		N42     Cn2 
	BYTE	W48
	BYTE		        En1 
	BYTE		N42     En2 
	BYTE	W24
// 021   ----------------------------------------
PressOnSong_2_021:
	BYTE	W24
	BYTE		N42     Gn1   v127
	BYTE		N42     Gn2 
	BYTE	W48
	BYTE		        Dn1 
	BYTE		N42     Dn2 
	BYTE	W24
	BYTE	PEND
// 022   ----------------------------------------
	BYTE	W24
	BYTE		        En1 
	BYTE		N42     En2 
	BYTE	W48
	BYTE		        Gn1 
	BYTE		N42     Gn2 
	BYTE	W24
// 023   ----------------------------------------
	BYTE	W24
	BYTE		        Fs1 
	BYTE		N42     Fs2 
	BYTE	W48
	BYTE		        Dn1 
	BYTE		N42     Dn2 
	BYTE	W24
// 024   ----------------------------------------
	BYTE	W24
	BYTE		        En1 
	BYTE		N42     En2 
	BYTE	W48
	BYTE		        An1 
	BYTE		N42     An2 
	BYTE	W24
// 025   ----------------------------------------
	BYTE	PATT
	 POIN2	PressOnSong_2_021
// 026   ----------------------------------------
	BYTE	W24
	BYTE		N20     En1   v127
	BYTE		N20     En2 
	BYTE	W24
	BYTE		        Gn1 
	BYTE		N20     Gn2 
	BYTE	W24
	BYTE		        Fs1 
	BYTE		N20     Fs2 
	BYTE	W24
// 027   ----------------------------------------
	BYTE		N11     Dn1 
	BYTE		N11     Dn2 
	BYTE	W12
	BYTE		N78     En1 
	BYTE		N78     En2 
	BYTE	W80
	BYTE	GoTo
	 POIN2	PressOnSong_2_B1
PressOnSong_2_B2:
	BYTE	FINE

//**************** Track 3 (Midi-Chn.3) ****************//

PressOnSong_3:
	BYTE	KEYSH   PressOnSong_key+0
// 000   ----------------------------------------
	BYTE		VOICE   49
	BYTE		MODT    0
	BYTE		LFOS    44
	BYTE		PAN     c_v-39
	BYTE		VOL     127*PressOnSong_mvl/mxv
	BYTE	W96
// 001   ----------------------------------------
	BYTE	W96
// 002   ----------------------------------------
	BYTE	W96
// 003   ----------------------------------------
	BYTE	W72
PressOnSong_3_B1:
	BYTE	W24
// 004   ----------------------------------------
PressOnSong_3_004:
	BYTE	W36
	BYTE		N78     Gn2   v056
	BYTE	W12
	BYTE		N66     Bn2 
	BYTE	W12
	BYTE		N54     En3 
	BYTE	W36
	BYTE	PEND
// 005   ----------------------------------------
PressOnSong_3_005:
	BYTE	W36
	BYTE		N78     An2   v056
	BYTE	W12
	BYTE		N66     Cn3 
	BYTE	W12
	BYTE		N54     En3 
	BYTE	W36
	BYTE	PEND
// 006   ----------------------------------------
PressOnSong_3_006:
	BYTE	W36
	BYTE		N78     An2   v056
	BYTE	W12
	BYTE		N66     Dn3 
	BYTE	W12
	BYTE		N54     Fn3 
	BYTE	W36
	BYTE	PEND
// 007   ----------------------------------------
PressOnSong_3_007:
	BYTE	W36
	BYTE		N60     Bn2   v056
	BYTE	W12
	BYTE		N48     Dn3 
	BYTE	W12
	BYTE		N36     Gn3 
	BYTE	W36
	BYTE	PEND
// 008   ----------------------------------------
	BYTE		N20     Bn2 
	BYTE		N20     Dn3 
	BYTE		N20     Fs3 
	BYTE	W36
	BYTE		N78     Gn2 
	BYTE	W12
	BYTE		N66     Bn2 
	BYTE	W12
	BYTE		N54     En3 
	BYTE	W36
// 009   ----------------------------------------
	BYTE	PATT
	 POIN2	PressOnSong_3_005
// 010   ----------------------------------------
	BYTE	PATT
	 POIN2	PressOnSong_3_006
// 011   ----------------------------------------
	BYTE	PATT
	 POIN2	PressOnSong_3_007
// 012   ----------------------------------------
	BYTE		N20     Bn2   v056
	BYTE		N20     Dn3 
	BYTE		N20     Fs3 
	BYTE	W36
	BYTE		N78     Cn3 
	BYTE	W12
	BYTE		N66     En3 
	BYTE	W12
	BYTE		N54     An3 
	BYTE	W36
// 013   ----------------------------------------
PressOnSong_3_013:
	BYTE	W36
	BYTE		N78     Cn3   v056
	BYTE	W12
	BYTE		N66     Fn3 
	BYTE	W12
	BYTE		N54     An3 
	BYTE	W36
	BYTE	PEND
// 014   ----------------------------------------
PressOnSong_3_014:
	BYTE	W36
	BYTE		N78     Dn3   v056
	BYTE	W12
	BYTE		N66     Gn3 
	BYTE	W12
	BYTE		N54     Bn3 
	BYTE	W36
	BYTE	PEND
// 015   ----------------------------------------
PressOnSong_3_015:
	BYTE	W36
	BYTE		N78     Dn3   v056
	BYTE	W12
	BYTE		N66     Fs3 
	BYTE	W12
	BYTE		N54     An3 
	BYTE	W36
	BYTE	PEND
// 016   ----------------------------------------
PressOnSong_3_016:
	BYTE	W36
	BYTE		N78     Cn3   v056
	BYTE	W12
	BYTE		N66     En3 
	BYTE	W12
	BYTE		N54     An3 
	BYTE	W36
	BYTE	PEND
// 017   ----------------------------------------
	BYTE	PATT
	 POIN2	PressOnSong_3_013
// 018   ----------------------------------------
	BYTE	PATT
	 POIN2	PressOnSong_3_014
// 019   ----------------------------------------
	BYTE	W36
	BYTE		N78     Bn2   v056
	BYTE	W12
	BYTE		N66     Dn3 
	BYTE	W12
	BYTE		N54     Fs3 
	BYTE	W36
// 020   ----------------------------------------
	BYTE	PATT
	 POIN2	PressOnSong_3_005
// 021   ----------------------------------------
	BYTE	PATT
	 POIN2	PressOnSong_3_014
// 022   ----------------------------------------
	BYTE	PATT
	 POIN2	PressOnSong_3_004
// 023   ----------------------------------------
	BYTE	PATT
	 POIN2	PressOnSong_3_015
// 024   ----------------------------------------
	BYTE	PATT
	 POIN2	PressOnSong_3_016
// 025   ----------------------------------------
	BYTE	PATT
	 POIN2	PressOnSong_3_014
// 026   ----------------------------------------
	BYTE	W36
	BYTE		N32     An2   v056
	BYTE	W12
	BYTE		N23     Cn3 
	BYTE	W12
	BYTE		N11     En3 
	BYTE	W12
	BYTE		N32     Dn3 
	BYTE	W12
	BYTE		N23     Fs3 
	BYTE	W12
// 027   ----------------------------------------
	BYTE		N11     An3 
	BYTE	W12
	BYTE		N78     Bn2 
	BYTE		N78     En3 
	BYTE		N78     Gn3 
	BYTE	W80
	BYTE	GoTo
	 POIN2	PressOnSong_3_B1
PressOnSong_3_B2:
	BYTE	FINE

//**************** Track 4 (Midi-Chn.4) ****************//

PressOnSong_4:
	BYTE	KEYSH   PressOnSong_key+0
// 000   ----------------------------------------
	BYTE		VOICE   61
	BYTE		MODT    0
	BYTE		LFOS    44
	BYTE		PAN     c_v+23
	BYTE		VOL     127*PressOnSong_mvl/mxv
	BYTE	W96
// 001   ----------------------------------------
	BYTE	W96
// 002   ----------------------------------------
	BYTE	W96
// 003   ----------------------------------------
	BYTE	W72
PressOnSong_4_B1:
	BYTE	W24
// 004   ----------------------------------------
	BYTE	W24
	BYTE		N36     Gn3   v127
	BYTE	W36
	BYTE		N12     Fs3 
	BYTE	W12
	BYTE		N16     En3 
	BYTE	W16
	BYTE		        Fs3 
	BYTE	W08
// 005   ----------------------------------------
	BYTE	W08
	BYTE		        Gn3 
	BYTE	W16
	BYTE		N24     An3 
	BYTE	W24
	BYTE		        Cn3 
	BYTE	W24
	BYTE		        En3 
	BYTE	W24
// 006   ----------------------------------------
	BYTE		        Gn3 
	BYTE	W24
	BYTE		N36     An3 
	BYTE	W36
	BYTE		N12     Gn3 
	BYTE	W12
	BYTE		N16     Fn3 
	BYTE	W16
	BYTE		        Gn3 
	BYTE	W08
// 007   ----------------------------------------
	BYTE	W08
	BYTE		        An3 
	BYTE	W16
	BYTE		N36     Bn3 
	BYTE	W36
	BYTE		N12     Dn3 
	BYTE	W12
	BYTE		        Gn3 
	BYTE	W12
	BYTE		        Fs3 
	BYTE	W12
// 008   ----------------------------------------
	BYTE		        En3 
	BYTE	W12
	BYTE		        Fs3 
	BYTE	W12
	BYTE		        Gn3 
	BYTE	W12
	BYTE		        En3 
	BYTE	W12
	BYTE		        Gn3 
	BYTE	W12
	BYTE		        An3 
	BYTE	W12
	BYTE		N24     Bn3 
	BYTE	W24
// 009   ----------------------------------------
	BYTE		N12     An3 
	BYTE	W12
	BYTE		        Gn3 
	BYTE	W12
	BYTE		        En3 
	BYTE	W12
	BYTE		        Dn3 
	BYTE	W12
	BYTE		N36     Cn3 
	BYTE	W36
	BYTE		N12   
	BYTE	W12
// 010   ----------------------------------------
	BYTE		        En3 
	BYTE	W12
	BYTE		        Gn3 
	BYTE	W12
	BYTE		N12   
	BYTE	W12
	BYTE		        An3 
	BYTE	W12
	BYTE		        Fn3 
	BYTE	W12
	BYTE		N36     Dn3 
	BYTE	W36
// 011   ----------------------------------------
	BYTE		N12     En3 
	BYTE	W12
	BYTE		        Fn3 
	BYTE	W12
	BYTE		        Gn3 
	BYTE	W12
	BYTE		        Dn3 
	BYTE	W12
	BYTE		        Bn2 
	BYTE	W12
	BYTE		        An2 
	BYTE	W12
	BYTE		N42     Bn2 
	BYTE	W24
// 012   ----------------------------------------
	BYTE	W24
	BYTE		N36     Cn4 
	BYTE	W36
	BYTE		N12   
	BYTE	W12
	BYTE		N16     Bn3 
	BYTE	W16
	BYTE		        Cn4 
	BYTE	W08
// 013   ----------------------------------------
	BYTE	W08
	BYTE		        Bn3 
	BYTE	W16
	BYTE		N36     An3 
	BYTE	W36
	BYTE		N12     Fn3 
	BYTE	W12
	BYTE		        Gn3 
	BYTE	W12
	BYTE		        An3 
	BYTE	W12
// 014   ----------------------------------------
	BYTE		        Bn3 
	BYTE	W12
	BYTE		        Cn4 
	BYTE	W12
	BYTE		N36     Dn4 
	BYTE	W36
	BYTE		N12     Cn4 
	BYTE	W12
	BYTE		        Bn3 
	BYTE	W12
	BYTE		        An3 
	BYTE	W12
// 015   ----------------------------------------
	BYTE		        Gn3 
	BYTE	W12
	BYTE		        An3 
	BYTE	W12
	BYTE		N36     Bn3 
	BYTE	W36
	BYTE		N06     Cn4 
	BYTE	W06
	BYTE		        Bn3 
	BYTE	W06
	BYTE		N48     An3 
	BYTE	W24
// 016   ----------------------------------------
	BYTE	W24
	BYTE		N12     Gn3 
	BYTE	W12
	BYTE		        Fs3 
	BYTE	W12
	BYTE		        En3 
	BYTE	W12
	BYTE		        Dn3 
	BYTE	W12
	BYTE		        En3 
	BYTE	W12
	BYTE		        Gn3 
	BYTE	W12
// 017   ----------------------------------------
	BYTE		        An3 
	BYTE	W12
	BYTE		N48     Gn3 
	BYTE	W48
	BYTE		N06     An3 
	BYTE	W06
	BYTE		        Gn3 
	BYTE	W06
	BYTE		N48     Fn3 
	BYTE	W24
// 018   ----------------------------------------
	BYTE	W24
	BYTE		N12     Gn3 
	BYTE	W12
	BYTE		        Dn3 
	BYTE	W12
	BYTE		        Gn3 
	BYTE	W12
	BYTE		N24     Bn3 
	BYTE	W24
	BYTE		N12   
	BYTE	W12
// 019   ----------------------------------------
	BYTE		        An3 
	BYTE	W12
	BYTE		        Gn3 
	BYTE	W12
	BYTE		N90     Dn3 
	BYTE	W72
// 020   ----------------------------------------
	BYTE	W24
	BYTE		N12     Cn3 
	BYTE	W12
	BYTE		        Dn3 
	BYTE	W12
	BYTE		        En3 
	BYTE	W12
	BYTE		N24     An3 
	BYTE	W24
	BYTE		N12   
	BYTE	W12
// 021   ----------------------------------------
	BYTE		        Gn3 
	BYTE	W12
	BYTE		        Fs3 
	BYTE	W12
	BYTE		        Gn3 
	BYTE	W12
	BYTE		        Dn3 
	BYTE	W12
	BYTE		        Gn3 
	BYTE	W12
	BYTE		N54     Bn3 
	BYTE	W36
// 022   ----------------------------------------
	BYTE	W24
	BYTE		N12   
	BYTE	W12
	BYTE		        An3 
	BYTE	W12
	BYTE		        Gn3 
	BYTE	W12
	BYTE		N24     Bn3 
	BYTE	W24
	BYTE		N12   
	BYTE	W12
// 023   ----------------------------------------
	BYTE		        Cn4 
	BYTE	W12
	BYTE		        Bn3 
	BYTE	W12
	BYTE		        Cn4 
	BYTE	W12
	BYTE		        Bn3 
	BYTE	W12
	BYTE		        An3 
	BYTE	W12
	BYTE		        Bn3 
	BYTE	W12
	BYTE		N42     Cn4 
	BYTE	W24
// 024   ----------------------------------------
	BYTE	W24
	BYTE		N12     An3 
	BYTE	W12
	BYTE		        En3 
	BYTE	W12
	BYTE		        An3 
	BYTE	W12
	BYTE		N24     Cn4 
	BYTE	W24
	BYTE		N12   
	BYTE	W12
// 025   ----------------------------------------
	BYTE		        Bn3 
	BYTE	W12
	BYTE		        An3 
	BYTE	W12
	BYTE		        Gn3 
	BYTE	W12
	BYTE		        An3 
	BYTE	W12
	BYTE		        Bn3 
	BYTE	W12
	BYTE		        An3 
	BYTE	W12
	BYTE		N20     Gn3 
	BYTE	W24
// 026   ----------------------------------------
	BYTE		        Dn3 
	BYTE	W24
	BYTE		N12     En3 
	BYTE	W12
	BYTE		        Gn3 
	BYTE	W12
	BYTE		        An3 
	BYTE	W12
	BYTE		        Bn3 
	BYTE	W12
	BYTE		        Cn4 
	BYTE	W12
	BYTE		        Bn3 
	BYTE	W12
// 027   ----------------------------------------
	BYTE		        An3 
	BYTE	W12
	BYTE		N78     Bn3 
	BYTE	W80
	BYTE	GoTo
	 POIN2	PressOnSong_4_B1
PressOnSong_4_B2:
	BYTE	FINE

//**************** Track 5 (Midi-Chn.5) ****************//

PressOnSong_5:
	BYTE	KEYSH   PressOnSong_key+0
// 000   ----------------------------------------
	BYTE		VOICE   124
	BYTE		MODT    0
	BYTE		LFOS    44
	BYTE		VOL     127*PressOnSong_mvl/mxv
	BYTE		PAN     c_v+0
	BYTE		N11     Fs1   v127
	BYTE	W12
	BYTE		N05   
	BYTE	W06
	BYTE		N05   
	BYTE	W06
	BYTE		N11     Cn1 
	BYTE		N11     Fs1 
	BYTE	W12
	BYTE		N11   
	BYTE	W12
	BYTE		        Cn1 
	BYTE		N11     Gs1 
	BYTE	W12
	BYTE		        Fs1 
	BYTE	W12
	BYTE		        Cn1 
	BYTE		N11     Fs1 
	BYTE	W12
	BYTE		N11   
	BYTE	W12
// 001   ----------------------------------------
PressOnSong_5_001:
	BYTE		N11     Cn1   v127
	BYTE		N11     Gs1 
	BYTE	W12
	BYTE		        As1 
	BYTE	W12
	BYTE		        Cn1 
	BYTE		N11     Fs1 
	BYTE	W12
	BYTE		N11   
	BYTE	W12
	BYTE		        Cn1 
	BYTE		N11     Gs1 
	BYTE	W12
	BYTE		        Fs1 
	BYTE	W12
	BYTE		        Cn1 
	BYTE		N11     Fs1 
	BYTE	W12
	BYTE		N11   
	BYTE	W12
	BYTE	PEND
// 002   ----------------------------------------
	BYTE	PATT
	 POIN2	PressOnSong_5_001
// 003   ----------------------------------------
	BYTE		N11     Cn1   v127
	BYTE		N11     Gs1 
	BYTE	W12
	BYTE		        As1 
	BYTE	W12
	BYTE		N20     Fs1 
	BYTE		N20     An2 
	BYTE	W24
	BYTE		        Fs1 
	BYTE	W24
PressOnSong_5_B1:
	BYTE		N05     Dn1   v127
	BYTE		N05     Fs1 
	BYTE		N05     Dn2 
	BYTE	W06
	BYTE		N11     Dn1 
	BYTE		N11     Cn2 
	BYTE	W12
	BYTE		N05     Dn1 
	BYTE		N05     Bn1 
	BYTE	W06
// 004   ----------------------------------------
	BYTE		N11     Dn1 
	BYTE		N11     An1 
	BYTE	W12
	BYTE		        Dn1 
	BYTE		N11     An1 
	BYTE	W12
	BYTE		        Cn1 
	BYTE		N11     Fs1 
	BYTE		N11     An2 
	BYTE	W12
	BYTE		        Fs1 
	BYTE	W12
	BYTE		        Cn1 
	BYTE		N11     Dn1 
	BYTE		N11     Gs1 
	BYTE	W12
	BYTE		        Fs1 
	BYTE	W12
	BYTE		        Cn1 
	BYTE		N11     Fs1 
	BYTE	W12
	BYTE		N11   
	BYTE	W12
// 005   ----------------------------------------
PressOnSong_5_005:
	BYTE		N11     Cn1   v127
	BYTE		N11     Dn1 
	BYTE		N11     Gs1 
	BYTE	W12
	BYTE		        As1 
	BYTE	W12
	BYTE		        Cn1 
	BYTE		N11     Fs1 
	BYTE	W12
	BYTE		N11   
	BYTE	W12
	BYTE		        Cn1 
	BYTE		N11     Dn1 
	BYTE		N11     Gs1 
	BYTE	W12
	BYTE		        Fs1 
	BYTE	W12
	BYTE		        Cn1 
	BYTE		N11     Fs1 
	BYTE	W12
	BYTE		N11   
	BYTE	W12
	BYTE	PEND
// 006   ----------------------------------------
	BYTE	PATT
	 POIN2	PressOnSong_5_005
// 007   ----------------------------------------
	BYTE	PATT
	 POIN2	PressOnSong_5_005
// 008   ----------------------------------------
	BYTE	PATT
	 POIN2	PressOnSong_5_005
// 009   ----------------------------------------
	BYTE	PATT
	 POIN2	PressOnSong_5_005
// 010   ----------------------------------------
	BYTE	PATT
	 POIN2	PressOnSong_5_005
// 011   ----------------------------------------
	BYTE	PATT
	 POIN2	PressOnSong_5_005
// 012   ----------------------------------------
	BYTE		N11     Cn1   v127
	BYTE		N11     Dn1 
	BYTE		N11     Gs1 
	BYTE	W12
	BYTE		N05     Dn1 
	BYTE		N05     As1 
	BYTE	W06
	BYTE		        Dn1 
	BYTE	W06
	BYTE		N11     Cn1 
	BYTE		N11     Fs1 
	BYTE		N11     An2 
	BYTE	W12
	BYTE		        Fs1 
	BYTE	W12
	BYTE		        Cn1 
	BYTE		N11     Dn1 
	BYTE		N11     Gs1 
	BYTE	W12
	BYTE		        Fs1 
	BYTE	W12
	BYTE		        Cn1 
	BYTE		N11     Fs1 
	BYTE	W12
	BYTE		N11   
	BYTE	W12
// 013   ----------------------------------------
	BYTE	PATT
	 POIN2	PressOnSong_5_005
// 014   ----------------------------------------
	BYTE	PATT
	 POIN2	PressOnSong_5_005
// 015   ----------------------------------------
	BYTE	PATT
	 POIN2	PressOnSong_5_005
// 016   ----------------------------------------
	BYTE	PATT
	 POIN2	PressOnSong_5_005
// 017   ----------------------------------------
	BYTE	PATT
	 POIN2	PressOnSong_5_005
// 018   ----------------------------------------
	BYTE	PATT
	 POIN2	PressOnSong_5_005
// 019   ----------------------------------------
	BYTE	PATT
	 POIN2	PressOnSong_5_005
// 020   ----------------------------------------
	BYTE		N11     Cn1   v127
	BYTE		N11     Dn1 
	BYTE		N11     Gs1 
	BYTE	W12
	BYTE		N05     Dn1 
	BYTE		N05     As1 
	BYTE	W06
	BYTE		        Dn1 
	BYTE	W06
	BYTE		N20     Cn1 
	BYTE		N20     Fs1 
	BYTE		N20     An2 
	BYTE	W24
	BYTE		        Fs1 
	BYTE	W24
	BYTE		N20   
	BYTE	W24
// 021   ----------------------------------------
PressOnSong_5_021:
	BYTE		N11     Fs1   v127
	BYTE	W12
	BYTE		        Cn1 
	BYTE	W12
	BYTE		N20   
	BYTE		N20     Fs1 
	BYTE	W24
	BYTE		N20   
	BYTE	W24
	BYTE		N20   
	BYTE	W24
	BYTE	PEND
// 022   ----------------------------------------
	BYTE	PATT
	 POIN2	PressOnSong_5_021
// 023   ----------------------------------------
	BYTE	PATT
	 POIN2	PressOnSong_5_021
// 024   ----------------------------------------
	BYTE	PATT
	 POIN2	PressOnSong_5_021
// 025   ----------------------------------------
	BYTE	PATT
	 POIN2	PressOnSong_5_021
// 026   ----------------------------------------
	BYTE	PATT
	 POIN2	PressOnSong_5_021
// 027   ----------------------------------------
	BYTE		N11     Fs1   v127
	BYTE	W12
	BYTE		        Cn1 
	BYTE		N32     An2 
	BYTE	W12
	BYTE		N20     Fs1 
	BYTE	W24
	BYTE		N20   
	BYTE	W24
	BYTE		N20   
	BYTE	W20
	BYTE	GoTo
	 POIN2	PressOnSong_5_B1
PressOnSong_5_B2:
	BYTE	FINE

//******************************************************//
	ALIGN 4

PressOnSong:
	BYTE	5	// NumTrks
	BYTE	0	// NumBlks
	BYTE	PressOnSong_pri	// Priority
	BYTE	PressOnSong_rev	// Reverb.

	POIN2	PressOnSong_grp

	POIN2	PressOnSong_1
	POIN2	PressOnSong_2
	POIN2	PressOnSong_3
	POIN2	PressOnSong_4
	POIN2	PressOnSong_5

	
