//Event file generated from Sappy .s format.
	#include "MPlayDef.event"

	#define	RelentlessWarden_FINAL_grp  voicegroup000
	#define	RelentlessWarden_FINAL_pri  0
	#define	RelentlessWarden_FINAL_rev  0x3C
	#define	RelentlessWarden_FINAL_mvl  26
	#define	RelentlessWarden_FINAL_key  0
	#define	RelentlessWarden_FINAL_tbs  1
	#define	RelentlessWarden_FINAL_exg  0
	#define	RelentlessWarden_FINAL_cmp  1

	// .rodata
	//	RelentlessWarden_FINAL
	ALIGN 4

//**************** Track 1 (Midi-Chn.1) ****************//

RelentlessWarden_FINAL_1:
	BYTE	KEYSH   RelentlessWarden_FINAL_key+0
RelentlessWarden_FINAL_1_B1:
// 000   ----------------------------------------
	BYTE	TEMPO   145*RelentlessWarden_FINAL_tbs/2
	BYTE		VOICE   80
	BYTE		MODT    0
	BYTE		LFOS    44
	BYTE		VOL     94*RelentlessWarden_FINAL_mvl/mxv
	BYTE		PAN     c_v-64
	BYTE		N05     Cn1   v080
	BYTE	W06
	BYTE		        Cn1   v092
	BYTE	W06
	BYTE		        Cn1   v104
	BYTE	W06
	BYTE		        Cn1   v116
	BYTE	W06
	BYTE		        Cn1   v127
	BYTE	W06
	BYTE		        Cn1   v116
	BYTE	W06
	BYTE		        Cn1   v108
	BYTE	W06
	BYTE		        Cn1   v096
	BYTE	W06
	BYTE		        Cn1   v084
	BYTE	W06
	BYTE		        Cn1   v076
	BYTE	W06
	BYTE		        Cn1   v068
	BYTE	W06
	BYTE		        Cn1   v056
	BYTE	W06
	BYTE		        Cn1   v048
	BYTE	W06
	BYTE		        Cn1   v044
	BYTE	W06
	BYTE		        Cn1   v036
	BYTE	W06
	BYTE		        Cn1   v028
	BYTE	W06
// 001   ----------------------------------------
RelentlessWarden_FINAL_1_001:
	BYTE		N05     Cn1   v020
	BYTE	W06
	BYTE		        Cn1   v016
	BYTE	W06
	BYTE		        Cn1   v012
	BYTE	W06
	BYTE		        Cn1   v008
	BYTE	W06
	BYTE		        Cn1   v004
	BYTE	W06
	BYTE		N05   
	BYTE	W06
	BYTE		        Cn1   v008
	BYTE	W06
	BYTE		        Cn1   v012
	BYTE	W06
	BYTE		        Cn1   v020
	BYTE	W06
	BYTE		        Cn1   v024
	BYTE	W06
	BYTE		        Cn1   v032
	BYTE	W06
	BYTE		        Cn1   v036
	BYTE	W06
	BYTE		        Cn1   v044
	BYTE	W06
	BYTE		        Cn1   v052
	BYTE	W06
	BYTE		        Cn1   v060
	BYTE	W06
	BYTE		        Cn1   v068
	BYTE	W06
	BYTE	PEND
// 002   ----------------------------------------
RelentlessWarden_FINAL_1_002:
	BYTE		N05     Cn1   v080
	BYTE	W06
	BYTE		        Cn1   v092
	BYTE	W06
	BYTE		        Cn1   v104
	BYTE	W06
	BYTE		        Cn1   v116
	BYTE	W06
	BYTE		        Cn1   v127
	BYTE	W06
	BYTE		        Cn1   v116
	BYTE	W06
	BYTE		        Cn1   v108
	BYTE	W06
	BYTE		        Cn1   v096
	BYTE	W06
	BYTE		        Cn1   v084
	BYTE	W06
	BYTE		        Cn1   v076
	BYTE	W06
	BYTE		        Cn1   v068
	BYTE	W06
	BYTE		        Cn1   v056
	BYTE	W06
	BYTE		        Cn1   v048
	BYTE	W06
	BYTE		        Cn1   v044
	BYTE	W06
	BYTE		        Cn1   v036
	BYTE	W06
	BYTE		        Cn1   v028
	BYTE	W06
	BYTE	PEND
// 003   ----------------------------------------
	BYTE	PATT
	 POIN2	RelentlessWarden_FINAL_1_001
// 004   ----------------------------------------
	BYTE	PATT
	 POIN2	RelentlessWarden_FINAL_1_002
// 005   ----------------------------------------
	BYTE	PATT
	 POIN2	RelentlessWarden_FINAL_1_001
// 006   ----------------------------------------
	BYTE	PATT
	 POIN2	RelentlessWarden_FINAL_1_002
// 007   ----------------------------------------
	BYTE	PATT
	 POIN2	RelentlessWarden_FINAL_1_001
// 008   ----------------------------------------
RelentlessWarden_FINAL_1_008:
	BYTE		N05     Cn1   v080
	BYTE	W06
	BYTE		        Cn1   v092
	BYTE	W06
	BYTE		        Cn1   v104
	BYTE	W06
	BYTE		        Cn1   v116
	BYTE	W06
	BYTE		        Gs0   v127
	BYTE	W06
	BYTE		        Gs0   v116
	BYTE	W06
	BYTE		        Gs0   v108
	BYTE	W06
	BYTE		        Gs0   v096
	BYTE	W06
	BYTE		        Gs0   v084
	BYTE	W06
	BYTE		        Gs0   v076
	BYTE	W06
	BYTE		        Gs0   v068
	BYTE	W06
	BYTE		        Gs0   v056
	BYTE	W06
	BYTE		        Gs0   v048
	BYTE	W06
	BYTE		        Gs0   v044
	BYTE	W06
	BYTE		        Gs0   v036
	BYTE	W06
	BYTE		        Gs0   v028
	BYTE	W06
	BYTE	PEND
// 009   ----------------------------------------
RelentlessWarden_FINAL_1_009:
	BYTE		N05     Gs0   v020
	BYTE	W06
	BYTE		        Gs0   v016
	BYTE	W06
	BYTE		        Gs0   v012
	BYTE	W06
	BYTE		        Gs0   v008
	BYTE	W06
	BYTE		        As0   v004
	BYTE	W06
	BYTE		N05   
	BYTE	W06
	BYTE		        As0   v008
	BYTE	W06
	BYTE		        As0   v012
	BYTE	W06
	BYTE		        As0   v020
	BYTE	W06
	BYTE		        As0   v024
	BYTE	W06
	BYTE		        As0   v032
	BYTE	W06
	BYTE		        As0   v036
	BYTE	W06
	BYTE		        As0   v044
	BYTE	W06
	BYTE		        As0   v052
	BYTE	W06
	BYTE		        As0   v060
	BYTE	W06
	BYTE		        As0   v068
	BYTE	W06
	BYTE	PEND
// 010   ----------------------------------------
RelentlessWarden_FINAL_1_010:
	BYTE		N05     As0   v080
	BYTE	W06
	BYTE		        As0   v092
	BYTE	W06
	BYTE		        As0   v104
	BYTE	W06
	BYTE		        As0   v116
	BYTE	W06
	BYTE		        Cn1   v127
	BYTE	W06
	BYTE		        Cn1   v116
	BYTE	W06
	BYTE		        Cn1   v108
	BYTE	W06
	BYTE		        Cn1   v096
	BYTE	W06
	BYTE		        Cn1   v084
	BYTE	W06
	BYTE		        Cn1   v076
	BYTE	W06
	BYTE		        Cn1   v068
	BYTE	W06
	BYTE		        Cn1   v056
	BYTE	W06
	BYTE		        Cn1   v048
	BYTE	W06
	BYTE		        Cn1   v044
	BYTE	W06
	BYTE		        Cn1   v036
	BYTE	W06
	BYTE		        Cn1   v028
	BYTE	W06
	BYTE	PEND
// 011   ----------------------------------------
	BYTE	PATT
	 POIN2	RelentlessWarden_FINAL_1_001
// 012   ----------------------------------------
	BYTE	PATT
	 POIN2	RelentlessWarden_FINAL_1_008
// 013   ----------------------------------------
	BYTE	PATT
	 POIN2	RelentlessWarden_FINAL_1_009
// 014   ----------------------------------------
	BYTE	PATT
	 POIN2	RelentlessWarden_FINAL_1_010
// 015   ----------------------------------------
	BYTE	PATT
	 POIN2	RelentlessWarden_FINAL_1_001
// 016   ----------------------------------------
	BYTE	PATT
	 POIN2	RelentlessWarden_FINAL_1_008
// 017   ----------------------------------------
	BYTE	PATT
	 POIN2	RelentlessWarden_FINAL_1_009
// 018   ----------------------------------------
	BYTE	PATT
	 POIN2	RelentlessWarden_FINAL_1_010
// 019   ----------------------------------------
	BYTE	PATT
	 POIN2	RelentlessWarden_FINAL_1_001
// 020   ----------------------------------------
	BYTE	PATT
	 POIN2	RelentlessWarden_FINAL_1_008
// 021   ----------------------------------------
	BYTE	PATT
	 POIN2	RelentlessWarden_FINAL_1_009
// 022   ----------------------------------------
RelentlessWarden_FINAL_1_022:
	BYTE		N05     As0   v080
	BYTE	W06
	BYTE		        As0   v092
	BYTE	W06
	BYTE		        As0   v104
	BYTE	W06
	BYTE		        As0   v116
	BYTE	W06
	BYTE		        Gs0   v127
	BYTE	W06
	BYTE		        Gs0   v116
	BYTE	W06
	BYTE		        Gs0   v108
	BYTE	W06
	BYTE		        Gs0   v096
	BYTE	W06
	BYTE		        Gs0   v084
	BYTE	W06
	BYTE		        Gs0   v076
	BYTE	W06
	BYTE		        Gs0   v068
	BYTE	W06
	BYTE		        Gs0   v056
	BYTE	W06
	BYTE		        Gs0   v048
	BYTE	W06
	BYTE		        Gs0   v044
	BYTE	W06
	BYTE		        Gs0   v036
	BYTE	W06
	BYTE		        Gs0   v028
	BYTE	W06
	BYTE	PEND
// 023   ----------------------------------------
RelentlessWarden_FINAL_1_023:
	BYTE		N05     Gs0   v020
	BYTE	W06
	BYTE		        Gs0   v016
	BYTE	W06
	BYTE		        Gs0   v012
	BYTE	W06
	BYTE		        Gs0   v008
	BYTE	W06
	BYTE		        Gs0   v004
	BYTE	W06
	BYTE		N05   
	BYTE	W06
	BYTE		        Gs0   v008
	BYTE	W06
	BYTE		        Gs0   v012
	BYTE	W06
	BYTE		        Gs0   v020
	BYTE	W06
	BYTE		        Gs0   v024
	BYTE	W06
	BYTE		        Gs0   v032
	BYTE	W06
	BYTE		        Gs0   v036
	BYTE	W06
	BYTE		        Gs0   v044
	BYTE	W06
	BYTE		        Gs0   v052
	BYTE	W06
	BYTE		        Gs0   v060
	BYTE	W06
	BYTE		        Gs0   v068
	BYTE	W06
	BYTE	PEND
// 024   ----------------------------------------
RelentlessWarden_FINAL_1_024:
	BYTE		N05     Gs0   v080
	BYTE	W06
	BYTE		        Gs0   v092
	BYTE	W06
	BYTE		        Gs0   v104
	BYTE	W06
	BYTE		        Gs0   v116
	BYTE	W06
	BYTE		        As0   v127
	BYTE	W06
	BYTE		        As0   v116
	BYTE	W06
	BYTE		        As0   v108
	BYTE	W06
	BYTE		        As0   v096
	BYTE	W06
	BYTE		        As0   v084
	BYTE	W06
	BYTE		        As0   v076
	BYTE	W06
	BYTE		        As0   v068
	BYTE	W06
	BYTE		        As0   v056
	BYTE	W06
	BYTE		        As0   v048
	BYTE	W06
	BYTE		        As0   v044
	BYTE	W06
	BYTE		        As0   v036
	BYTE	W06
	BYTE		        As0   v028
	BYTE	W06
	BYTE	PEND
// 025   ----------------------------------------
RelentlessWarden_FINAL_1_025:
	BYTE		N05     As0   v020
	BYTE	W06
	BYTE		        As0   v016
	BYTE	W06
	BYTE		        As0   v012
	BYTE	W06
	BYTE		        As0   v008
	BYTE	W06
	BYTE		        As0   v004
	BYTE	W06
	BYTE		N05   
	BYTE	W06
	BYTE		        As0   v008
	BYTE	W06
	BYTE		        As0   v012
	BYTE	W06
	BYTE		        As0   v020
	BYTE	W06
	BYTE		        As0   v024
	BYTE	W06
	BYTE		        As0   v032
	BYTE	W06
	BYTE		        As0   v036
	BYTE	W06
	BYTE		        As0   v044
	BYTE	W06
	BYTE		        As0   v052
	BYTE	W06
	BYTE		        As0   v060
	BYTE	W06
	BYTE		        As0   v068
	BYTE	W06
	BYTE	PEND
// 026   ----------------------------------------
	BYTE	PATT
	 POIN2	RelentlessWarden_FINAL_1_022
// 027   ----------------------------------------
	BYTE	PATT
	 POIN2	RelentlessWarden_FINAL_1_023
// 028   ----------------------------------------
	BYTE	PATT
	 POIN2	RelentlessWarden_FINAL_1_024
// 029   ----------------------------------------
	BYTE	PATT
	 POIN2	RelentlessWarden_FINAL_1_025
// 030   ----------------------------------------
	BYTE	PATT
	 POIN2	RelentlessWarden_FINAL_1_010
// 031   ----------------------------------------
	BYTE	PATT
	 POIN2	RelentlessWarden_FINAL_1_001
// 032   ----------------------------------------
	BYTE	PATT
	 POIN2	RelentlessWarden_FINAL_1_002
// 033   ----------------------------------------
	BYTE	PATT
	 POIN2	RelentlessWarden_FINAL_1_001
// 034   ----------------------------------------
	BYTE	PATT
	 POIN2	RelentlessWarden_FINAL_1_008
// 035   ----------------------------------------
	BYTE	PATT
	 POIN2	RelentlessWarden_FINAL_1_023
// 036   ----------------------------------------
	BYTE	PATT
	 POIN2	RelentlessWarden_FINAL_1_024
// 037   ----------------------------------------
	BYTE	PATT
	 POIN2	RelentlessWarden_FINAL_1_025
// 038   ----------------------------------------
	BYTE	PATT
	 POIN2	RelentlessWarden_FINAL_1_010
// 039   ----------------------------------------
	BYTE	PATT
	 POIN2	RelentlessWarden_FINAL_1_001
// 040   ----------------------------------------
	BYTE	PATT
	 POIN2	RelentlessWarden_FINAL_1_002
// 041   ----------------------------------------
	BYTE	PATT
	 POIN2	RelentlessWarden_FINAL_1_001
// 042   ----------------------------------------
	BYTE		N05     Cn1   v080
	BYTE	W06
	BYTE		        Cn1   v092
	BYTE	W06
	BYTE		        Cn1   v104
	BYTE	W06
	BYTE		        Cn1   v116
	BYTE	W06
	BYTE	GoTo
	 POIN2	RelentlessWarden_FINAL_1_B1
RelentlessWarden_FINAL_1_B2:
	BYTE	FINE

//**************** Track 2 (Midi-Chn.2) ****************//

RelentlessWarden_FINAL_2:
	BYTE	KEYSH   RelentlessWarden_FINAL_key+0
RelentlessWarden_FINAL_2_B1:
// 000   ----------------------------------------
	BYTE		VOICE   31
	BYTE		MODT    0
	BYTE		LFOS    44
	BYTE		VOL     94*RelentlessWarden_FINAL_mvl/mxv
	BYTE		PAN     c_v+63
	BYTE		N05     Cn1   v020
	BYTE	W06
	BYTE		        Cn1   v016
	BYTE	W06
	BYTE		        Cn1   v012
	BYTE	W06
	BYTE		        Cn1   v008
	BYTE	W06
	BYTE		        Cn1   v004
	BYTE	W06
	BYTE		N05   
	BYTE	W06
	BYTE		        Cn1   v008
	BYTE	W06
	BYTE		        Cn1   v012
	BYTE	W06
	BYTE		        Cn1   v020
	BYTE	W06
	BYTE		        Cn1   v024
	BYTE	W06
	BYTE		        Cn1   v032
	BYTE	W06
	BYTE		        Cn1   v036
	BYTE	W06
	BYTE		        Cn1   v044
	BYTE	W06
	BYTE		        Cn1   v052
	BYTE	W06
	BYTE		        Cn1   v060
	BYTE	W06
	BYTE		        Cn1   v068
	BYTE	W06
// 001   ----------------------------------------
RelentlessWarden_FINAL_2_001:
	BYTE		N05     Cn1   v080
	BYTE	W06
	BYTE		        Cn1   v092
	BYTE	W06
	BYTE		        Cn1   v104
	BYTE	W06
	BYTE		        Cn1   v116
	BYTE	W06
	BYTE		        Cn1   v127
	BYTE	W06
	BYTE		        Cn1   v116
	BYTE	W06
	BYTE		        Cn1   v108
	BYTE	W06
	BYTE		        Cn1   v096
	BYTE	W06
	BYTE		        Cn1   v084
	BYTE	W06
	BYTE		        Cn1   v076
	BYTE	W06
	BYTE		        Cn1   v068
	BYTE	W06
	BYTE		        Cn1   v056
	BYTE	W06
	BYTE		        Cn1   v048
	BYTE	W06
	BYTE		        Cn1   v044
	BYTE	W06
	BYTE		        Cn1   v036
	BYTE	W06
	BYTE		        Cn1   v028
	BYTE	W06
	BYTE	PEND
// 002   ----------------------------------------
RelentlessWarden_FINAL_2_002:
	BYTE		N05     Cn1   v020
	BYTE	W06
	BYTE		        Cn1   v016
	BYTE	W06
	BYTE		        Cn1   v012
	BYTE	W06
	BYTE		        Cn1   v008
	BYTE	W06
	BYTE		        Cn1   v004
	BYTE	W06
	BYTE		N05   
	BYTE	W06
	BYTE		        Cn1   v008
	BYTE	W06
	BYTE		        Cn1   v012
	BYTE	W06
	BYTE		        Cn1   v020
	BYTE	W06
	BYTE		        Cn1   v024
	BYTE	W06
	BYTE		        Cn1   v032
	BYTE	W06
	BYTE		        Cn1   v036
	BYTE	W06
	BYTE		        Cn1   v044
	BYTE	W06
	BYTE		        Cn1   v052
	BYTE	W06
	BYTE		        Cn1   v060
	BYTE	W06
	BYTE		        Cn1   v068
	BYTE	W06
	BYTE	PEND
// 003   ----------------------------------------
	BYTE	PATT
	 POIN2	RelentlessWarden_FINAL_2_001
// 004   ----------------------------------------
	BYTE	PATT
	 POIN2	RelentlessWarden_FINAL_2_002
// 005   ----------------------------------------
	BYTE	PATT
	 POIN2	RelentlessWarden_FINAL_2_001
// 006   ----------------------------------------
	BYTE	PATT
	 POIN2	RelentlessWarden_FINAL_2_002
// 007   ----------------------------------------
	BYTE	PATT
	 POIN2	RelentlessWarden_FINAL_2_001
// 008   ----------------------------------------
RelentlessWarden_FINAL_2_008:
	BYTE		N05     Cn1   v020
	BYTE	W06
	BYTE		        Cn1   v016
	BYTE	W06
	BYTE		        Cn1   v012
	BYTE	W06
	BYTE		        Cn1   v008
	BYTE	W06
	BYTE		        Gs0   v004
	BYTE	W06
	BYTE		N05   
	BYTE	W06
	BYTE		        Gs0   v008
	BYTE	W06
	BYTE		        Gs0   v012
	BYTE	W06
	BYTE		        Gs0   v020
	BYTE	W06
	BYTE		        Gs0   v024
	BYTE	W06
	BYTE		        Gs0   v032
	BYTE	W06
	BYTE		        Gs0   v036
	BYTE	W06
	BYTE		        Gs0   v044
	BYTE	W06
	BYTE		        Gs0   v052
	BYTE	W06
	BYTE		        Gs0   v060
	BYTE	W06
	BYTE		        Gs0   v068
	BYTE	W06
	BYTE	PEND
// 009   ----------------------------------------
RelentlessWarden_FINAL_2_009:
	BYTE		N05     Gs0   v080
	BYTE	W06
	BYTE		        Gs0   v092
	BYTE	W06
	BYTE		        Gs0   v104
	BYTE	W06
	BYTE		        Gs0   v116
	BYTE	W06
	BYTE		        As0   v127
	BYTE	W06
	BYTE		        As0   v116
	BYTE	W06
	BYTE		        As0   v108
	BYTE	W06
	BYTE		        As0   v096
	BYTE	W06
	BYTE		        As0   v084
	BYTE	W06
	BYTE		        As0   v076
	BYTE	W06
	BYTE		        As0   v068
	BYTE	W06
	BYTE		        As0   v056
	BYTE	W06
	BYTE		        As0   v048
	BYTE	W06
	BYTE		        As0   v044
	BYTE	W06
	BYTE		        As0   v036
	BYTE	W06
	BYTE		        As0   v028
	BYTE	W06
	BYTE	PEND
// 010   ----------------------------------------
RelentlessWarden_FINAL_2_010:
	BYTE		N05     As0   v020
	BYTE	W06
	BYTE		        As0   v016
	BYTE	W06
	BYTE		        As0   v012
	BYTE	W06
	BYTE		        As0   v008
	BYTE	W06
	BYTE		        Cn1   v004
	BYTE	W06
	BYTE		N05   
	BYTE	W06
	BYTE		        Cn1   v008
	BYTE	W06
	BYTE		        Cn1   v012
	BYTE	W06
	BYTE		        Cn1   v020
	BYTE	W06
	BYTE		        Cn1   v024
	BYTE	W06
	BYTE		        Cn1   v032
	BYTE	W06
	BYTE		        Cn1   v036
	BYTE	W06
	BYTE		        Cn1   v044
	BYTE	W06
	BYTE		        Cn1   v052
	BYTE	W06
	BYTE		        Cn1   v060
	BYTE	W06
	BYTE		        Cn1   v068
	BYTE	W06
	BYTE	PEND
// 011   ----------------------------------------
	BYTE	PATT
	 POIN2	RelentlessWarden_FINAL_2_001
// 012   ----------------------------------------
	BYTE	PATT
	 POIN2	RelentlessWarden_FINAL_2_008
// 013   ----------------------------------------
	BYTE	PATT
	 POIN2	RelentlessWarden_FINAL_2_009
// 014   ----------------------------------------
	BYTE	PATT
	 POIN2	RelentlessWarden_FINAL_2_010
// 015   ----------------------------------------
	BYTE	PATT
	 POIN2	RelentlessWarden_FINAL_2_001
// 016   ----------------------------------------
	BYTE	PATT
	 POIN2	RelentlessWarden_FINAL_2_008
// 017   ----------------------------------------
	BYTE	PATT
	 POIN2	RelentlessWarden_FINAL_2_009
// 018   ----------------------------------------
	BYTE	PATT
	 POIN2	RelentlessWarden_FINAL_2_010
// 019   ----------------------------------------
	BYTE	PATT
	 POIN2	RelentlessWarden_FINAL_2_001
// 020   ----------------------------------------
	BYTE	PATT
	 POIN2	RelentlessWarden_FINAL_2_008
// 021   ----------------------------------------
	BYTE	PATT
	 POIN2	RelentlessWarden_FINAL_2_009
// 022   ----------------------------------------
RelentlessWarden_FINAL_2_022:
	BYTE		N05     As0   v020
	BYTE	W06
	BYTE		        As0   v016
	BYTE	W06
	BYTE		        As0   v012
	BYTE	W06
	BYTE		        As0   v008
	BYTE	W06
	BYTE		        Gs0   v004
	BYTE	W06
	BYTE		N05   
	BYTE	W06
	BYTE		        Gs0   v008
	BYTE	W06
	BYTE		        Gs0   v012
	BYTE	W06
	BYTE		        Gs0   v020
	BYTE	W06
	BYTE		        Gs0   v024
	BYTE	W06
	BYTE		        Gs0   v032
	BYTE	W06
	BYTE		        Gs0   v036
	BYTE	W06
	BYTE		        Gs0   v044
	BYTE	W06
	BYTE		        Gs0   v052
	BYTE	W06
	BYTE		        Gs0   v060
	BYTE	W06
	BYTE		        Gs0   v068
	BYTE	W06
	BYTE	PEND
// 023   ----------------------------------------
RelentlessWarden_FINAL_2_023:
	BYTE		N05     Gs0   v080
	BYTE	W06
	BYTE		        Gs0   v092
	BYTE	W06
	BYTE		        Gs0   v104
	BYTE	W06
	BYTE		        Gs0   v116
	BYTE	W06
	BYTE		        Gs0   v127
	BYTE	W06
	BYTE		        Gs0   v116
	BYTE	W06
	BYTE		        Gs0   v108
	BYTE	W06
	BYTE		        Gs0   v096
	BYTE	W06
	BYTE		        Gs0   v084
	BYTE	W06
	BYTE		        Gs0   v076
	BYTE	W06
	BYTE		        Gs0   v068
	BYTE	W06
	BYTE		        Gs0   v056
	BYTE	W06
	BYTE		        Gs0   v048
	BYTE	W06
	BYTE		        Gs0   v044
	BYTE	W06
	BYTE		        Gs0   v036
	BYTE	W06
	BYTE		        Gs0   v028
	BYTE	W06
	BYTE	PEND
// 024   ----------------------------------------
RelentlessWarden_FINAL_2_024:
	BYTE		N05     Gs0   v020
	BYTE	W06
	BYTE		        Gs0   v016
	BYTE	W06
	BYTE		        Gs0   v012
	BYTE	W06
	BYTE		        Gs0   v008
	BYTE	W06
	BYTE		        As0   v004
	BYTE	W06
	BYTE		N05   
	BYTE	W06
	BYTE		        As0   v008
	BYTE	W06
	BYTE		        As0   v012
	BYTE	W06
	BYTE		        As0   v020
	BYTE	W06
	BYTE		        As0   v024
	BYTE	W06
	BYTE		        As0   v032
	BYTE	W06
	BYTE		        As0   v036
	BYTE	W06
	BYTE		        As0   v044
	BYTE	W06
	BYTE		        As0   v052
	BYTE	W06
	BYTE		        As0   v060
	BYTE	W06
	BYTE		        As0   v068
	BYTE	W06
	BYTE	PEND
// 025   ----------------------------------------
RelentlessWarden_FINAL_2_025:
	BYTE		N05     As0   v080
	BYTE	W06
	BYTE		        As0   v092
	BYTE	W06
	BYTE		        As0   v104
	BYTE	W06
	BYTE		        As0   v116
	BYTE	W06
	BYTE		        As0   v127
	BYTE	W06
	BYTE		        As0   v116
	BYTE	W06
	BYTE		        As0   v108
	BYTE	W06
	BYTE		        As0   v096
	BYTE	W06
	BYTE		        As0   v084
	BYTE	W06
	BYTE		        As0   v076
	BYTE	W06
	BYTE		        As0   v068
	BYTE	W06
	BYTE		        As0   v056
	BYTE	W06
	BYTE		        As0   v048
	BYTE	W06
	BYTE		        As0   v044
	BYTE	W06
	BYTE		        As0   v036
	BYTE	W06
	BYTE		        As0   v028
	BYTE	W06
	BYTE	PEND
// 026   ----------------------------------------
	BYTE	PATT
	 POIN2	RelentlessWarden_FINAL_2_022
// 027   ----------------------------------------
	BYTE	PATT
	 POIN2	RelentlessWarden_FINAL_2_023
// 028   ----------------------------------------
	BYTE	PATT
	 POIN2	RelentlessWarden_FINAL_2_024
// 029   ----------------------------------------
	BYTE	PATT
	 POIN2	RelentlessWarden_FINAL_2_025
// 030   ----------------------------------------
	BYTE	PATT
	 POIN2	RelentlessWarden_FINAL_2_010
// 031   ----------------------------------------
	BYTE	PATT
	 POIN2	RelentlessWarden_FINAL_2_001
// 032   ----------------------------------------
	BYTE	PATT
	 POIN2	RelentlessWarden_FINAL_2_002
// 033   ----------------------------------------
	BYTE	PATT
	 POIN2	RelentlessWarden_FINAL_2_001
// 034   ----------------------------------------
	BYTE	PATT
	 POIN2	RelentlessWarden_FINAL_2_008
// 035   ----------------------------------------
	BYTE	PATT
	 POIN2	RelentlessWarden_FINAL_2_023
// 036   ----------------------------------------
	BYTE	PATT
	 POIN2	RelentlessWarden_FINAL_2_024
// 037   ----------------------------------------
	BYTE	PATT
	 POIN2	RelentlessWarden_FINAL_2_025
// 038   ----------------------------------------
	BYTE	PATT
	 POIN2	RelentlessWarden_FINAL_2_010
// 039   ----------------------------------------
	BYTE	PATT
	 POIN2	RelentlessWarden_FINAL_2_001
// 040   ----------------------------------------
	BYTE	PATT
	 POIN2	RelentlessWarden_FINAL_2_002
// 041   ----------------------------------------
	BYTE	PATT
	 POIN2	RelentlessWarden_FINAL_2_001
// 042   ----------------------------------------
	BYTE		N05     Cn1   v020
	BYTE	W06
	BYTE		        Cn1   v016
	BYTE	W06
	BYTE		        Cn1   v012
	BYTE	W06
	BYTE		        Cn1   v008
	BYTE	W06
	BYTE	GoTo
	 POIN2	RelentlessWarden_FINAL_2_B1
RelentlessWarden_FINAL_2_B2:
	BYTE	FINE

//**************** Track 3 (Midi-Chn.3) ****************//

RelentlessWarden_FINAL_3:
	BYTE	KEYSH   RelentlessWarden_FINAL_key+0
RelentlessWarden_FINAL_3_B1:
// 000   ----------------------------------------
	BYTE		VOICE   30
	BYTE		MODT    0
	BYTE		LFOS    44
	BYTE		PAN     c_v+12
	BYTE		VOL     108*RelentlessWarden_FINAL_mvl/mxv
	BYTE		N01     Cn1   v127
	BYTE	W01
	BYTE		        Dn1 
	BYTE	W02
	BYTE		        Ds1 
	BYTE	W01
	BYTE		        Fn1 
	BYTE	W02
	BYTE		        Gn1 
	BYTE	W01
	BYTE		        Gs1 
	BYTE	W02
	BYTE		        As1 
	BYTE	W01
	BYTE		        Cn2 
	BYTE	W02
	BYTE		        As1 
	BYTE	W01
	BYTE		        Gs1 
	BYTE	W02
	BYTE		        Gn1 
	BYTE	W01
	BYTE		        Fn1 
	BYTE	W02
	BYTE		        Ds1 
	BYTE	W01
	BYTE		        Dn1 
	BYTE	W02
	BYTE		        Cn1 
	BYTE	W03
	BYTE		N05   
	BYTE	W06
	BYTE		N05   
	BYTE	W06
	BYTE		N05   
	BYTE	W06
	BYTE		N05   
	BYTE	W06
	BYTE		N11     Cn2 
	BYTE	W12
	BYTE		N05     Cn1 
	BYTE	W06
	BYTE		N05   
	BYTE	W06
	BYTE		N05   
	BYTE	W06
	BYTE		N05   
	BYTE	W06
	BYTE		N11     Cn2 
	BYTE	W12
// 001   ----------------------------------------
RelentlessWarden_FINAL_3_001:
	BYTE		N05     Cn1   v127
	BYTE	W06
	BYTE		N05   
	BYTE	W06
	BYTE		N11     Cn2 
	BYTE	W12
	BYTE		N05     Cn1 
	BYTE	W06
	BYTE		N05   
	BYTE	W06
	BYTE		N05   
	BYTE	W06
	BYTE		N05   
	BYTE	W06
	BYTE		N11     Cn2 
	BYTE	W12
	BYTE		N05     Cn1 
	BYTE	W06
	BYTE		N05   
	BYTE	W06
	BYTE		N05   
	BYTE	W06
	BYTE		N05   
	BYTE	W06
	BYTE		N11     Cn2 
	BYTE	W12
	BYTE	PEND
// 002   ----------------------------------------
	BYTE	PATT
	 POIN2	RelentlessWarden_FINAL_3_001
// 003   ----------------------------------------
	BYTE	PATT
	 POIN2	RelentlessWarden_FINAL_3_001
// 004   ----------------------------------------
	BYTE	PATT
	 POIN2	RelentlessWarden_FINAL_3_001
// 005   ----------------------------------------
	BYTE	PATT
	 POIN2	RelentlessWarden_FINAL_3_001
// 006   ----------------------------------------
	BYTE	PATT
	 POIN2	RelentlessWarden_FINAL_3_001
// 007   ----------------------------------------
	BYTE	PATT
	 POIN2	RelentlessWarden_FINAL_3_001
// 008   ----------------------------------------
RelentlessWarden_FINAL_3_008:
	BYTE		N05     Cn1   v127
	BYTE	W06
	BYTE		N05   
	BYTE	W06
	BYTE		N11     Cn2 
	BYTE	W12
	BYTE		        Gs1 
	BYTE	W12
	BYTE		N05     Ds1 
	BYTE	W06
	BYTE		N05   
	BYTE	W06
	BYTE		N11     Gs1 
	BYTE	W12
	BYTE		N05     Ds1 
	BYTE	W06
	BYTE		N05   
	BYTE	W06
	BYTE		N11     Gs1 
	BYTE	W12
	BYTE		N05     Ds1 
	BYTE	W06
	BYTE		N05   
	BYTE	W06
	BYTE	PEND
// 009   ----------------------------------------
RelentlessWarden_FINAL_3_009:
	BYTE		N11     Gs1   v127
	BYTE	W12
	BYTE		N05     Ds1 
	BYTE	W06
	BYTE		N05   
	BYTE	W06
	BYTE		N11     As1 
	BYTE	W12
	BYTE		N05     Fn1 
	BYTE	W06
	BYTE		N05   
	BYTE	W06
	BYTE		N11     As1 
	BYTE	W12
	BYTE		N05     Fn1 
	BYTE	W06
	BYTE		N05   
	BYTE	W06
	BYTE		N11     As1 
	BYTE	W12
	BYTE		N05     Fn1 
	BYTE	W06
	BYTE		N05   
	BYTE	W06
	BYTE	PEND
// 010   ----------------------------------------
RelentlessWarden_FINAL_3_010:
	BYTE		N11     As1   v127
	BYTE	W12
	BYTE		N05     Fn1 
	BYTE	W06
	BYTE		N05   
	BYTE	W06
	BYTE		        Cn1 
	BYTE	W06
	BYTE		N05   
	BYTE	W06
	BYTE		N05   
	BYTE	W06
	BYTE		N05   
	BYTE	W06
	BYTE		N11     Cn2 
	BYTE	W12
	BYTE		N05     Cn1 
	BYTE	W06
	BYTE		N05   
	BYTE	W06
	BYTE		N05   
	BYTE	W06
	BYTE		N05   
	BYTE	W06
	BYTE		N11     Cn2 
	BYTE	W12
	BYTE	PEND
// 011   ----------------------------------------
	BYTE	PATT
	 POIN2	RelentlessWarden_FINAL_3_001
// 012   ----------------------------------------
	BYTE	PATT
	 POIN2	RelentlessWarden_FINAL_3_008
// 013   ----------------------------------------
	BYTE	PATT
	 POIN2	RelentlessWarden_FINAL_3_009
// 014   ----------------------------------------
	BYTE	PATT
	 POIN2	RelentlessWarden_FINAL_3_010
// 015   ----------------------------------------
	BYTE	PATT
	 POIN2	RelentlessWarden_FINAL_3_001
// 016   ----------------------------------------
	BYTE	PATT
	 POIN2	RelentlessWarden_FINAL_3_008
// 017   ----------------------------------------
	BYTE	PATT
	 POIN2	RelentlessWarden_FINAL_3_009
// 018   ----------------------------------------
	BYTE	PATT
	 POIN2	RelentlessWarden_FINAL_3_010
// 019   ----------------------------------------
	BYTE	PATT
	 POIN2	RelentlessWarden_FINAL_3_001
// 020   ----------------------------------------
	BYTE	PATT
	 POIN2	RelentlessWarden_FINAL_3_008
// 021   ----------------------------------------
	BYTE	PATT
	 POIN2	RelentlessWarden_FINAL_3_009
// 022   ----------------------------------------
	BYTE		N11     As1   v127
	BYTE	W12
	BYTE		N05     Fn1 
	BYTE	W06
	BYTE		N05   
	BYTE	W06
	BYTE		TIE     Gs1 
	BYTE	W72
// 023   ----------------------------------------
	BYTE	W90
	BYTE		EOT   
	BYTE	W06
// 024   ----------------------------------------
RelentlessWarden_FINAL_3_024:
	BYTE	W12
	BYTE		N05     Gs1   v127
	BYTE	W06
	BYTE		N05   
	BYTE	W06
	BYTE		TIE     As1 
	BYTE	W72
	BYTE	PEND
// 025   ----------------------------------------
	BYTE	W90
	BYTE		EOT   
	BYTE	W06
// 026   ----------------------------------------
	BYTE	W12
	BYTE		N05   
	BYTE	W06
	BYTE		N05   
	BYTE	W06
	BYTE		TIE     Gs1 
	BYTE	W72
// 027   ----------------------------------------
	BYTE	W90
	BYTE		EOT   
	BYTE	W06
// 028   ----------------------------------------
	BYTE	PATT
	 POIN2	RelentlessWarden_FINAL_3_024
// 029   ----------------------------------------
	BYTE	W90
	BYTE		EOT     As1 
	BYTE	W06
// 030   ----------------------------------------
	BYTE	W12
	BYTE		N05     As1   v127
	BYTE	W06
	BYTE		N05   
	BYTE	W06
	BYTE		        Cn1 
	BYTE	W06
	BYTE		N05   
	BYTE	W06
	BYTE		N05   
	BYTE	W06
	BYTE		N05   
	BYTE	W06
	BYTE		N11     Cn2 
	BYTE	W12
	BYTE		N05     Cn1 
	BYTE	W06
	BYTE		N05   
	BYTE	W06
	BYTE		N05   
	BYTE	W06
	BYTE		N05   
	BYTE	W06
	BYTE		N11     Cn2 
	BYTE	W12
// 031   ----------------------------------------
	BYTE	PATT
	 POIN2	RelentlessWarden_FINAL_3_001
// 032   ----------------------------------------
	BYTE	PATT
	 POIN2	RelentlessWarden_FINAL_3_001
// 033   ----------------------------------------
	BYTE	PATT
	 POIN2	RelentlessWarden_FINAL_3_001
// 034   ----------------------------------------
	BYTE	PATT
	 POIN2	RelentlessWarden_FINAL_3_001
// 035   ----------------------------------------
	BYTE	PATT
	 POIN2	RelentlessWarden_FINAL_3_001
// 036   ----------------------------------------
	BYTE		N05     Cn1   v127
	BYTE	W06
	BYTE		N05   
	BYTE	W06
	BYTE		N11     Cn2 
	BYTE	W12
	BYTE		N05     As0 
	BYTE	W06
	BYTE		N05   
	BYTE	W06
	BYTE		N05   
	BYTE	W06
	BYTE		N05   
	BYTE	W06
	BYTE		N11     As1 
	BYTE	W12
	BYTE		N05     As0 
	BYTE	W06
	BYTE		N05   
	BYTE	W06
	BYTE		N05   
	BYTE	W06
	BYTE		N05   
	BYTE	W06
	BYTE		N11     As1 
	BYTE	W12
// 037   ----------------------------------------
	BYTE		N05     As0 
	BYTE	W06
	BYTE		N05   
	BYTE	W06
	BYTE		N11     As1 
	BYTE	W12
	BYTE		N05     As0 
	BYTE	W06
	BYTE		N05   
	BYTE	W06
	BYTE		N05   
	BYTE	W06
	BYTE		N05   
	BYTE	W06
	BYTE		N11     As1 
	BYTE	W12
	BYTE		N05     As0 
	BYTE	W06
	BYTE		N05   
	BYTE	W06
	BYTE		N05   
	BYTE	W06
	BYTE		N05   
	BYTE	W06
	BYTE		N11     As1 
	BYTE	W12
// 038   ----------------------------------------
	BYTE		N05     As0 
	BYTE	W06
	BYTE		N05   
	BYTE	W06
	BYTE		N11     As1 
	BYTE	W84
// 039   ----------------------------------------
	BYTE	W96
// 040   ----------------------------------------
	BYTE	W96
// 041   ----------------------------------------
	BYTE	W96
// 042   ----------------------------------------
	BYTE	W24
	BYTE	GoTo
	 POIN2	RelentlessWarden_FINAL_3_B1
RelentlessWarden_FINAL_3_B2:
	BYTE	FINE

//**************** Track 4 (Midi-Chn.4) ****************//

RelentlessWarden_FINAL_4:
	BYTE	KEYSH   RelentlessWarden_FINAL_key+0
RelentlessWarden_FINAL_4_B1:
// 000   ----------------------------------------
	BYTE		VOICE   120
	BYTE		MODT    0
	BYTE		LFOS    44
	BYTE		VOL     90*RelentlessWarden_FINAL_mvl/mxv
	BYTE		PAN     c_v-32
	BYTE		N04     Ds3   v127
	BYTE	W12
	BYTE		        Cn3 
	BYTE	W12
	BYTE		        Ds3 
	BYTE	W12
	BYTE		        Cn3 
	BYTE	W06
	BYTE		N04   
	BYTE	W06
	BYTE		N04   
	BYTE	W12
	BYTE		N06     Ds3 
	BYTE	W24
	BYTE		N04     Cn3 
	BYTE	W12
// 001   ----------------------------------------
RelentlessWarden_FINAL_4_001:
	BYTE		N04     Ds3   v127
	BYTE	W12
	BYTE		        Cn3 
	BYTE	W12
	BYTE		        Ds3 
	BYTE	W12
	BYTE		        Cn3 
	BYTE	W06
	BYTE		N04   
	BYTE	W06
	BYTE		N04   
	BYTE	W12
	BYTE		N06     Ds3 
	BYTE	W24
	BYTE		N04     Cn3 
	BYTE	W12
	BYTE	PEND
// 002   ----------------------------------------
	BYTE	PATT
	 POIN2	RelentlessWarden_FINAL_4_001
// 003   ----------------------------------------
	BYTE	PATT
	 POIN2	RelentlessWarden_FINAL_4_001
// 004   ----------------------------------------
	BYTE	PATT
	 POIN2	RelentlessWarden_FINAL_4_001
// 005   ----------------------------------------
	BYTE	PATT
	 POIN2	RelentlessWarden_FINAL_4_001
// 006   ----------------------------------------
	BYTE	PATT
	 POIN2	RelentlessWarden_FINAL_4_001
// 007   ----------------------------------------
	BYTE	PATT
	 POIN2	RelentlessWarden_FINAL_4_001
// 008   ----------------------------------------
RelentlessWarden_FINAL_4_008:
	BYTE		N04     Ds3   v127
	BYTE	W12
	BYTE		        Cn3 
	BYTE	W12
	BYTE		N04   
	BYTE	W12
	BYTE		N04   
	BYTE	W12
	BYTE		N04   
	BYTE	W12
	BYTE		N04   
	BYTE	W12
	BYTE		N04   
	BYTE	W12
	BYTE		N04   
	BYTE	W12
	BYTE	PEND
// 009   ----------------------------------------
RelentlessWarden_FINAL_4_009:
	BYTE		N04     Cn3   v127
	BYTE	W12
	BYTE		N04   
	BYTE	W12
	BYTE		        Dn3 
	BYTE	W12
	BYTE		N04   
	BYTE	W12
	BYTE		N04   
	BYTE	W12
	BYTE		N04   
	BYTE	W12
	BYTE		N04   
	BYTE	W12
	BYTE		N04   
	BYTE	W12
	BYTE	PEND
// 010   ----------------------------------------
RelentlessWarden_FINAL_4_010:
	BYTE		N04     Dn3   v127
	BYTE	W12
	BYTE		N04   
	BYTE	W12
	BYTE		        Ds3 
	BYTE	W12
	BYTE		        Cn3 
	BYTE	W06
	BYTE		N04   
	BYTE	W06
	BYTE		N04   
	BYTE	W12
	BYTE		N06     Ds3 
	BYTE	W24
	BYTE		N04     Cn3 
	BYTE	W12
	BYTE	PEND
// 011   ----------------------------------------
	BYTE	PATT
	 POIN2	RelentlessWarden_FINAL_4_001
// 012   ----------------------------------------
	BYTE	PATT
	 POIN2	RelentlessWarden_FINAL_4_008
// 013   ----------------------------------------
	BYTE	PATT
	 POIN2	RelentlessWarden_FINAL_4_009
// 014   ----------------------------------------
	BYTE	PATT
	 POIN2	RelentlessWarden_FINAL_4_010
// 015   ----------------------------------------
	BYTE	PATT
	 POIN2	RelentlessWarden_FINAL_4_001
// 016   ----------------------------------------
	BYTE	PATT
	 POIN2	RelentlessWarden_FINAL_4_008
// 017   ----------------------------------------
	BYTE	PATT
	 POIN2	RelentlessWarden_FINAL_4_009
// 018   ----------------------------------------
	BYTE	PATT
	 POIN2	RelentlessWarden_FINAL_4_010
// 019   ----------------------------------------
	BYTE	PATT
	 POIN2	RelentlessWarden_FINAL_4_001
// 020   ----------------------------------------
	BYTE	PATT
	 POIN2	RelentlessWarden_FINAL_4_008
// 021   ----------------------------------------
	BYTE	PATT
	 POIN2	RelentlessWarden_FINAL_4_009
// 022   ----------------------------------------
	BYTE	PATT
	 POIN2	RelentlessWarden_FINAL_4_010
// 023   ----------------------------------------
	BYTE	PATT
	 POIN2	RelentlessWarden_FINAL_4_001
// 024   ----------------------------------------
RelentlessWarden_FINAL_4_024:
	BYTE		N04     Ds3   v127
	BYTE	W12
	BYTE		        Cn3 
	BYTE	W12
	BYTE		        Dn3 
	BYTE	W12
	BYTE		        As2 
	BYTE	W06
	BYTE		N04   
	BYTE	W06
	BYTE		N04   
	BYTE	W12
	BYTE		N06     Dn3 
	BYTE	W24
	BYTE		N04     As2 
	BYTE	W12
	BYTE	PEND
// 025   ----------------------------------------
RelentlessWarden_FINAL_4_025:
	BYTE		N04     Dn3   v127
	BYTE	W12
	BYTE		        As2 
	BYTE	W12
	BYTE		        Dn3 
	BYTE	W12
	BYTE		        As2 
	BYTE	W06
	BYTE		N04   
	BYTE	W06
	BYTE		N04   
	BYTE	W12
	BYTE		N06     Dn3 
	BYTE	W24
	BYTE		N04     As2 
	BYTE	W12
	BYTE	PEND
// 026   ----------------------------------------
	BYTE		        Dn3 
	BYTE	W12
	BYTE		        As2 
	BYTE	W12
	BYTE		        Ds3 
	BYTE	W12
	BYTE		        Cn3 
	BYTE	W06
	BYTE		N04   
	BYTE	W06
	BYTE		N04   
	BYTE	W12
	BYTE		N06     Ds3 
	BYTE	W24
	BYTE		N04     Cn3 
	BYTE	W12
// 027   ----------------------------------------
	BYTE	PATT
	 POIN2	RelentlessWarden_FINAL_4_001
// 028   ----------------------------------------
	BYTE	PATT
	 POIN2	RelentlessWarden_FINAL_4_024
// 029   ----------------------------------------
	BYTE	PATT
	 POIN2	RelentlessWarden_FINAL_4_025
// 030   ----------------------------------------
	BYTE		N04     Dn3   v127
	BYTE	W12
	BYTE		        As2 
	BYTE	W12
	BYTE		        Gn3 
	BYTE	W12
	BYTE		N04   
	BYTE	W12
	BYTE		N04   
	BYTE	W12
	BYTE		N04   
	BYTE	W12
	BYTE		N04   
	BYTE	W12
	BYTE		N04   
	BYTE	W12
// 031   ----------------------------------------
RelentlessWarden_FINAL_4_031:
	BYTE		N04     Gn3   v127
	BYTE	W12
	BYTE		N04   
	BYTE	W06
	BYTE		N04   
	BYTE	W06
	BYTE		        Fs3 
	BYTE	W12
	BYTE		N04   
	BYTE	W12
	BYTE		N04   
	BYTE	W12
	BYTE		N04   
	BYTE	W12
	BYTE		N04   
	BYTE	W12
	BYTE		N04   
	BYTE	W12
	BYTE	PEND
// 032   ----------------------------------------
	BYTE		N04   
	BYTE	W12
	BYTE		N04   
	BYTE	W06
	BYTE		N04   
	BYTE	W06
	BYTE		        Gn3 
	BYTE	W12
	BYTE		N04   
	BYTE	W12
	BYTE		N04   
	BYTE	W12
	BYTE		N04   
	BYTE	W12
	BYTE		N04   
	BYTE	W12
	BYTE		N04   
	BYTE	W12
// 033   ----------------------------------------
	BYTE	PATT
	 POIN2	RelentlessWarden_FINAL_4_031
// 034   ----------------------------------------
	BYTE		N04     Fs3   v127
	BYTE	W12
	BYTE		N04   
	BYTE	W06
	BYTE		N04   
	BYTE	W06
	BYTE		        Cn3 
	BYTE	W12
	BYTE		N04   
	BYTE	W12
	BYTE		N04   
	BYTE	W12
	BYTE		N04   
	BYTE	W12
	BYTE		N04   
	BYTE	W12
	BYTE		N04   
	BYTE	W12
// 035   ----------------------------------------
	BYTE		N04   
	BYTE	W12
	BYTE		N04   
	BYTE	W12
	BYTE		N04   
	BYTE	W12
	BYTE		N04   
	BYTE	W12
	BYTE		N04   
	BYTE	W12
	BYTE		N04   
	BYTE	W12
	BYTE		N04   
	BYTE	W12
	BYTE		N04   
	BYTE	W12
// 036   ----------------------------------------
	BYTE	PATT
	 POIN2	RelentlessWarden_FINAL_4_009
// 037   ----------------------------------------
	BYTE		N04     Dn3   v127
	BYTE	W12
	BYTE		N04   
	BYTE	W12
	BYTE		N04   
	BYTE	W12
	BYTE		N04   
	BYTE	W12
	BYTE		N04   
	BYTE	W12
	BYTE		N04   
	BYTE	W12
	BYTE		N04   
	BYTE	W12
	BYTE		N04   
	BYTE	W12
// 038   ----------------------------------------
	BYTE		N04   
	BYTE	W12
	BYTE		N04   
	BYTE	W84
// 039   ----------------------------------------
	BYTE	W96
// 040   ----------------------------------------
	BYTE	W96
// 041   ----------------------------------------
	BYTE	W96
// 042   ----------------------------------------
	BYTE	W24
	BYTE	GoTo
	 POIN2	RelentlessWarden_FINAL_4_B1
RelentlessWarden_FINAL_4_B2:
	BYTE	FINE

//**************** Track 5 (Midi-Chn.5) ****************//

RelentlessWarden_FINAL_5:
	BYTE	KEYSH   RelentlessWarden_FINAL_key+0
RelentlessWarden_FINAL_5_B1:
// 000   ----------------------------------------
	BYTE		VOICE   54
	BYTE		MODT    0
	BYTE		LFOS    44
	BYTE		PAN     c_v+31
	BYTE		VOL     100*RelentlessWarden_FINAL_mvl/mxv
	BYTE		N11     Gn3   v127
	BYTE		N11     Cn4 
	BYTE	W12
	BYTE		TIE     Gn3 
	BYTE		TIE     As3 
	BYTE	W84
// 001   ----------------------------------------
	BYTE	W66
	BYTE		EOT     Gn3 
	BYTE		        As3 
	BYTE	W06
	BYTE		N11     Gn3 
	BYTE		N11     Cn4 
	BYTE	W24
// 002   ----------------------------------------
RelentlessWarden_FINAL_5_002:
	BYTE	W12
	BYTE		TIE     Gn3   v127
	BYTE		TIE     As3 
	BYTE	W84
	BYTE	PEND
// 003   ----------------------------------------
	BYTE	W90
	BYTE		EOT     Gn3 
	BYTE		        As3 
	BYTE	W06
// 004   ----------------------------------------
RelentlessWarden_FINAL_5_004:
	BYTE		N11     Gn3   v127
	BYTE		N11     Cn4 
	BYTE	W12
	BYTE		TIE     Gn3 
	BYTE		TIE     As3 
	BYTE	W84
	BYTE	PEND
// 005   ----------------------------------------
	BYTE	W66
	BYTE		EOT     Gn3 
	BYTE		        As3 
	BYTE	W06
	BYTE		N11     Gn3 
	BYTE		N11     Cn4 
	BYTE	W24
// 006   ----------------------------------------
	BYTE	PATT
	 POIN2	RelentlessWarden_FINAL_5_002
// 007   ----------------------------------------
	BYTE	W96
// 008   ----------------------------------------
	BYTE	W18
	BYTE		EOT     Gn3 
	BYTE		        As3 
	BYTE	W06
	BYTE		N90     Gs3   v127
	BYTE		N90     Cn4 
	BYTE	W72
// 009   ----------------------------------------
RelentlessWarden_FINAL_5_009:
	BYTE	W24
	BYTE		N66     Gn3   v127
	BYTE		N66     As3 
	BYTE	W72
	BYTE	PEND
// 010   ----------------------------------------
	BYTE	PATT
	 POIN2	RelentlessWarden_FINAL_5_004
// 011   ----------------------------------------
	BYTE	W96
// 012   ----------------------------------------
	BYTE	W18
	BYTE		EOT     Gn3 
	BYTE		        As3 
	BYTE	W06
	BYTE		N90     Gs3   v127
	BYTE		N90     Cn4 
	BYTE	W72
// 013   ----------------------------------------
	BYTE	PATT
	 POIN2	RelentlessWarden_FINAL_5_009
// 014   ----------------------------------------
	BYTE	PATT
	 POIN2	RelentlessWarden_FINAL_5_004
// 015   ----------------------------------------
	BYTE	W96
// 016   ----------------------------------------
	BYTE	W18
	BYTE		EOT     Gn3 
	BYTE		        As3 
	BYTE	W06
	BYTE		N90     Gs3   v127
	BYTE		N90     Cn4 
	BYTE	W72
// 017   ----------------------------------------
	BYTE	PATT
	 POIN2	RelentlessWarden_FINAL_5_009
// 018   ----------------------------------------
	BYTE	PATT
	 POIN2	RelentlessWarden_FINAL_5_004
// 019   ----------------------------------------
	BYTE	W96
// 020   ----------------------------------------
	BYTE	W18
	BYTE		EOT     Gn3 
	BYTE		        As3 
	BYTE	W06
	BYTE		N90     Gs3   v127
	BYTE		N90     Cn4 
	BYTE	W72
// 021   ----------------------------------------
	BYTE	W24
	BYTE		        Gn3 
	BYTE		N90     As3 
	BYTE		N90     Dn4 
	BYTE	W48
	BYTE		N42     Fn4 
	BYTE	W24
// 022   ----------------------------------------
	BYTE	W24
	BYTE		TIE     Gs3 
	BYTE		TIE     Cn4 
	BYTE		TIE     Ds4 
	BYTE		TIE     Gn4 
	BYTE	W72
// 023   ----------------------------------------
	BYTE	W96
// 024   ----------------------------------------
	BYTE	W18
	BYTE		EOT     Gs3 
	BYTE		        Cn4 
	BYTE		        Ds4 
	BYTE	W06
	BYTE		TIE     As3 
	BYTE		TIE     Dn4 
	BYTE		TIE     Fn4 
	BYTE	W72
// 025   ----------------------------------------
	BYTE	W96
// 026   ----------------------------------------
	BYTE	W18
	BYTE		EOT     As3 
	BYTE		        Dn4 
	BYTE		        Fn4 
	BYTE	W06
	BYTE		TIE     Gs3 
	BYTE		TIE     Cn4 
	BYTE		TIE     Ds4 
	BYTE	W72
// 027   ----------------------------------------
	BYTE	W96
// 028   ----------------------------------------
	BYTE	W18
	BYTE		EOT     Gs3 
	BYTE		        Cn4 
	BYTE		        Ds4 
	BYTE	W06
	BYTE		TIE     As3 
	BYTE		TIE     Dn4 
	BYTE		TIE     Fn4 
	BYTE	W72
// 029   ----------------------------------------
	BYTE	W96
// 030   ----------------------------------------
	BYTE	W18
	BYTE		EOT     Dn4 
	BYTE		        Fn4 
	BYTE	W06
	BYTE		TIE     Cn4 
	BYTE		TIE     Ds4 
	BYTE	W72
// 031   ----------------------------------------
	BYTE	W18
	BYTE		EOT     Gn4 
	BYTE	W06
	BYTE		N90     Fs4 
	BYTE	W72
// 032   ----------------------------------------
	BYTE	W24
	BYTE		        Gn4 
	BYTE	W72
// 033   ----------------------------------------
	BYTE	W24
	BYTE		        Fs4 
	BYTE	W72
// 034   ----------------------------------------
	BYTE	W18
	BYTE		EOT     As3 
	BYTE	W06
	BYTE		TIE     Gs3 
	BYTE	W72
// 035   ----------------------------------------
	BYTE	W96
// 036   ----------------------------------------
	BYTE	W18
	BYTE		EOT   
	BYTE		EOT     Cn4 
	BYTE		        Ds4 
	BYTE	W06
	BYTE		TIE     Gn3 
	BYTE		TIE     As3 
	BYTE		TIE     Dn4 
	BYTE		TIE     Fn4 
	BYTE	W72
// 037   ----------------------------------------
	BYTE	W96
// 038   ----------------------------------------
	BYTE	W18
	BYTE		EOT     Gn3 
	BYTE		        As3 
	BYTE		        Dn4 
	BYTE		        Fn4 
	BYTE	W78
// 039   ----------------------------------------
	BYTE	W96
// 040   ----------------------------------------
	BYTE	W96
// 041   ----------------------------------------
	BYTE	W96
// 042   ----------------------------------------
	BYTE	W24
	BYTE	GoTo
	 POIN2	RelentlessWarden_FINAL_5_B1
RelentlessWarden_FINAL_5_B2:
	BYTE	FINE

//**************** Track 6 (Midi-Chn.6) ****************//

RelentlessWarden_FINAL_6:
	BYTE	KEYSH   RelentlessWarden_FINAL_key+0
RelentlessWarden_FINAL_6_B1:
// 000   ----------------------------------------
	BYTE		VOICE   30
	BYTE		MODT    0
	BYTE		LFOS    44
	BYTE		VOL     117*RelentlessWarden_FINAL_mvl/mxv
	BYTE		PAN     c_v-26
	BYTE		LFOS    44
	BYTE		MODT    0
	BYTE	W96
// 001   ----------------------------------------
	BYTE	W96
// 002   ----------------------------------------
	BYTE	W96
// 003   ----------------------------------------
	BYTE	W96
// 004   ----------------------------------------
	BYTE	W96
// 005   ----------------------------------------
	BYTE	W96
// 006   ----------------------------------------
	BYTE	W96
// 007   ----------------------------------------
	BYTE	W96
// 008   ----------------------------------------
	BYTE	W24
	BYTE		N20     Cn3   v127
	BYTE	W24
	BYTE		N11     An2 
	BYTE	W12
	BYTE		        Cn3 
	BYTE	W12
	BYTE		N17     Bn2 
	BYTE	W18
	BYTE		N05     An2 
	BYTE	W06
// 009   ----------------------------------------
	BYTE		N11     Gn2 
	BYTE	W12
	BYTE		        Bn2 
	BYTE	W12
	BYTE		N20     An2 
	BYTE	W24
	BYTE		N66     Fn2 
	BYTE	W48
// 010   ----------------------------------------
	BYTE	W24
	BYTE		N20     Cn3 
	BYTE	W24
	BYTE		N11     En3 
	BYTE	W12
	BYTE		        Cn3 
	BYTE	W12
	BYTE		N17     Dn3 
	BYTE	W18
	BYTE		N05     En3 
	BYTE	W06
// 011   ----------------------------------------
	BYTE		N11     Fn3 
	BYTE	W12
	BYTE		        Dn3 
	BYTE	W12
	BYTE		        En3 
	BYTE	W12
	BYTE		        Fn3 
	BYTE	W12
	BYTE		        Gn3 
	BYTE	W12
	BYTE		        Fn3 
	BYTE	W12
	BYTE		N42     En3 
	BYTE	W24
// 012   ----------------------------------------
	BYTE	W24
	BYTE		N05   
	BYTE	W06
	BYTE		        Dn3 
	BYTE	W06
	BYTE		        Cn3 
	BYTE	W06
	BYTE		        En3 
	BYTE	W06
	BYTE		N11     An3 
	BYTE	W12
	BYTE		        Gn3 
	BYTE	W12
	BYTE		        En3 
	BYTE	W12
	BYTE		N20     Cn3 
	BYTE	W12
// 013   ----------------------------------------
	BYTE	W12
	BYTE		N11     En3 
	BYTE	W12
	BYTE		N05     An3 
	BYTE	W06
	BYTE		        Gn3 
	BYTE	W06
	BYTE		        Fn3 
	BYTE	W06
	BYTE		        An3 
	BYTE	W06
	BYTE		N11     Cn4 
	BYTE	W12
	BYTE		        Bn3 
	BYTE	W12
	BYTE		        An3 
	BYTE	W12
	BYTE		N20     Fn3 
	BYTE	W12
// 014   ----------------------------------------
	BYTE	W12
	BYTE		N11     En3 
	BYTE	W12
	BYTE		N17     Dn3 
	BYTE	W18
	BYTE		N05     En3 
	BYTE	W06
	BYTE		N11     Fn3 
	BYTE	W12
	BYTE		        Gn3 
	BYTE	W12
	BYTE		        An3 
	BYTE	W12
	BYTE		        Gn3 
	BYTE	W12
// 015   ----------------------------------------
	BYTE		        Fn3 
	BYTE	W12
	BYTE		        An3 
	BYTE	W12
	BYTE		        Gn3 
	BYTE	W12
	BYTE		        Fn3 
	BYTE	W12
	BYTE		        En3 
	BYTE	W12
	BYTE		N05     Fn3 
	BYTE	W06
	BYTE		        En3 
	BYTE	W06
	BYTE		N42     Dn3 
	BYTE	W24
// 016   ----------------------------------------
	BYTE	W24
	BYTE		N05     En3 
	BYTE	W06
	BYTE		        Dn3 
	BYTE	W06
	BYTE		        En3 
	BYTE	W06
	BYTE		        Fn3 
	BYTE	W06
	BYTE		N11     Gn3 
	BYTE	W12
	BYTE		        Fn3 
	BYTE	W12
	BYTE		N32     En3 
	BYTE	W24
// 017   ----------------------------------------
	BYTE	W12
	BYTE		N11     Dn3 
	BYTE	W12
	BYTE		N05     En3 
	BYTE	W06
	BYTE		        Dn3 
	BYTE	W06
	BYTE		        En3 
	BYTE	W06
	BYTE		        Fn3 
	BYTE	W06
	BYTE		N11     Gn3 
	BYTE	W12
	BYTE		        Fn3 
	BYTE	W12
	BYTE		N32     En3 
	BYTE	W24
// 018   ----------------------------------------
	BYTE	W12
	BYTE		N11     Gn3 
	BYTE	W12
	BYTE		        An3 
	BYTE	W12
	BYTE		        Fn3 
	BYTE	W12
	BYTE		N11   
	BYTE	W12
	BYTE		        En3 
	BYTE	W12
	BYTE		N17     Fn3 
	BYTE	W18
	BYTE		N05     En3 
	BYTE	W06
// 019   ----------------------------------------
	BYTE		N11     Dn3 
	BYTE	W12
	BYTE		        Fn3 
	BYTE	W12
	BYTE		        Gn3 
	BYTE	W12
	BYTE		        An3 
	BYTE	W12
	BYTE		        Bn3 
	BYTE	W12
	BYTE		        An3 
	BYTE	W12
	BYTE		N42     Gn3 
	BYTE	W24
// 020   ----------------------------------------
	BYTE	W24
	BYTE		N05   
	BYTE	W06
	BYTE		        Fn3 
	BYTE	W06
	BYTE		        En3 
	BYTE	W06
	BYTE		        Fn3 
	BYTE	W06
	BYTE		N11     Gn3 
	BYTE	W12
	BYTE		        Fn3 
	BYTE	W12
	BYTE		N32     En3 
	BYTE	W24
// 021   ----------------------------------------
	BYTE	W12
	BYTE		N11     Gn3 
	BYTE	W12
	BYTE		N05     An3 
	BYTE	W06
	BYTE		        Gn3 
	BYTE	W06
	BYTE		        En3 
	BYTE	W06
	BYTE		        An3 
	BYTE	W06
	BYTE		N11     Cn4 
	BYTE	W12
	BYTE		        Bn3 
	BYTE	W12
	BYTE		N32     An3 
	BYTE	W24
// 022   ----------------------------------------
	BYTE	W12
	BYTE		N11     Gn3 
	BYTE	W12
	BYTE		        Fn3 
	BYTE	W12
	BYTE		        En3 
	BYTE	W12
	BYTE		        Fn3 
	BYTE	W12
	BYTE		        Gn3 
	BYTE	W12
	BYTE		N05     An3 
	BYTE	W06
	BYTE		        Gn3 
	BYTE	W06
	BYTE		        Fn3 
	BYTE	W06
	BYTE		        Gn3 
	BYTE	W06
// 023   ----------------------------------------
	BYTE		        An3 
	BYTE	W06
	BYTE		        Gn3 
	BYTE	W06
	BYTE		        Fn3 
	BYTE	W06
	BYTE		        Gn3 
	BYTE	W06
	BYTE		        Bn3 
	BYTE	W06
	BYTE		        An3 
	BYTE	W06
	BYTE		        Gn3 
	BYTE	W06
	BYTE		        Fn3 
	BYTE	W06
	BYTE		N11     En3 
	BYTE	W12
	BYTE		N05     Dn3 
	BYTE	W06
	BYTE		        Cn3 
	BYTE	W06
	BYTE		N42     Dn3 
	BYTE	W24
// 024   ----------------------------------------
	BYTE	W24
	BYTE		N20     Fn3 
	BYTE	W24
	BYTE		N11     An3 
	BYTE	W12
	BYTE		        Fn3 
	BYTE	W12
	BYTE		N17     Gn3 
	BYTE	W18
	BYTE		N05     Fn3 
	BYTE	W06
// 025   ----------------------------------------
	BYTE		N11     En3 
	BYTE	W12
	BYTE		        Dn3 
	BYTE	W12
	BYTE		        Cn3 
	BYTE	W12
	BYTE		        Bn2 
	BYTE	W12
	BYTE		N66     An2 
	BYTE	W48
// 026   ----------------------------------------
	BYTE	W24
	BYTE		N11     Cn3 
	BYTE	W12
	BYTE		        En3 
	BYTE	W12
	BYTE		N20     Fn3 
	BYTE	W24
	BYTE		N17     Gn3 
	BYTE	W18
	BYTE		N05     An3 
	BYTE	W06
// 027   ----------------------------------------
	BYTE		N11     Bn3 
	BYTE	W12
	BYTE		        Dn4 
	BYTE	W12
	BYTE		N48     Cn4 
	BYTE	W48
	BYTE		        Bn3 
	BYTE	W24
// 028   ----------------------------------------
	BYTE	W24
	BYTE		N36     Fn4 
	BYTE	W36
	BYTE		N12     Ds4 
	BYTE	W12
	BYTE		        Dn4 
	BYTE	W12
	BYTE		        Ds4 
	BYTE	W12
// 029   ----------------------------------------
	BYTE		N48     As2 
	BYTE		N90     Fn4 
	BYTE	W48
	BYTE		N48     Dn3 
	BYTE	W48
// 030   ----------------------------------------
	BYTE		        Ds3 
	BYTE	W48
	BYTE		        Gn3 
	BYTE	W48
// 031   ----------------------------------------
	BYTE		        Fs3 
	BYTE	W48
	BYTE		        Cn4 
	BYTE	W48
// 032   ----------------------------------------
	BYTE		        Ds4 
	BYTE	W48
	BYTE		        Gn4 
	BYTE	W48
// 033   ----------------------------------------
	BYTE		        Fs4 
	BYTE	W48
	BYTE		N12     Cn5 
	BYTE	W12
	BYTE		        As4 
	BYTE	W12
	BYTE		        Gs4 
	BYTE	W12
	BYTE		        Gn4 
	BYTE	W12
// 034   ----------------------------------------
	BYTE		N72     Ds4 
	BYTE	W72
	BYTE		N24     Fn4 
	BYTE	W24
// 035   ----------------------------------------
	BYTE		N96     Gn4 
	BYTE	W96
// 036   ----------------------------------------
	BYTE		N72     Dn4 
	BYTE	W72
	BYTE		N24     Ds4 
	BYTE	W24
// 037   ----------------------------------------
	BYTE		N90     Fn4 
	BYTE	W96
// 038   ----------------------------------------
	BYTE	W96
// 039   ----------------------------------------
	BYTE	W96
// 040   ----------------------------------------
	BYTE	W96
// 041   ----------------------------------------
	BYTE	W96
// 042   ----------------------------------------
	BYTE	W24
	BYTE	GoTo
	 POIN2	RelentlessWarden_FINAL_6_B1
RelentlessWarden_FINAL_6_B2:
	BYTE	FINE

//**************** Track 7 (Midi-Chn.8) ****************//

RelentlessWarden_FINAL_7:
	BYTE	KEYSH   RelentlessWarden_FINAL_key+0
RelentlessWarden_FINAL_7_B1:
// 000   ----------------------------------------
	BYTE		VOICE   124
	BYTE		MODT    0
	BYTE		LFOS    44
	BYTE		VOL     122*RelentlessWarden_FINAL_mvl/mxv
	BYTE		PAN     c_v+0
	BYTE		N11     Dn1   v127
	BYTE	W12
	BYTE		        Cn1 
	BYTE	W12
	BYTE		N05   
	BYTE		N05     Fs1 
	BYTE		N05     An2 
	BYTE	W06
	BYTE		        Fs1 
	BYTE	W06
	BYTE		N05   
	BYTE	W06
	BYTE		N05   
	BYTE	W06
	BYTE		        Dn1 
	BYTE		N05     Gs1 
	BYTE	W06
	BYTE		        Fs1 
	BYTE	W06
	BYTE		N05   
	BYTE	W06
	BYTE		        Dn1 
	BYTE		N05     Fs1 
	BYTE	W06
	BYTE		        Cn1 
	BYTE		N05     Fs1 
	BYTE	W06
	BYTE		        Gs1 
	BYTE	W06
	BYTE		        Cn1 
	BYTE		N05     As1 
	BYTE	W06
	BYTE		        Gs1 
	BYTE	W06
// 001   ----------------------------------------
RelentlessWarden_FINAL_7_001:
	BYTE		N05     Dn1   v127
	BYTE		N05     Fs1 
	BYTE	W06
	BYTE		        Gs1 
	BYTE	W06
	BYTE		        Cn1 
	BYTE		N05     As1 
	BYTE	W06
	BYTE		        Gs1 
	BYTE	W06
	BYTE		        Cn1 
	BYTE		N05     Fs1 
	BYTE	W06
	BYTE		N05   
	BYTE	W06
	BYTE		N05   
	BYTE	W06
	BYTE		N05   
	BYTE	W06
	BYTE		        Dn1 
	BYTE		N05     Gs1 
	BYTE	W06
	BYTE		        Fs1 
	BYTE	W06
	BYTE		N05   
	BYTE	W06
	BYTE		        Dn1 
	BYTE		N05     Fs1 
	BYTE	W06
	BYTE		        Cn1 
	BYTE		N05     Fs1 
	BYTE	W06
	BYTE		        Gs1 
	BYTE	W06
	BYTE		        Cn1 
	BYTE		N05     As1 
	BYTE	W06
	BYTE		        Gs1 
	BYTE	W06
	BYTE	PEND
// 002   ----------------------------------------
	BYTE	PATT
	 POIN2	RelentlessWarden_FINAL_7_001
// 003   ----------------------------------------
	BYTE	PATT
	 POIN2	RelentlessWarden_FINAL_7_001
// 004   ----------------------------------------
	BYTE	PATT
	 POIN2	RelentlessWarden_FINAL_7_001
// 005   ----------------------------------------
	BYTE	PATT
	 POIN2	RelentlessWarden_FINAL_7_001
// 006   ----------------------------------------
	BYTE	PATT
	 POIN2	RelentlessWarden_FINAL_7_001
// 007   ----------------------------------------
	BYTE	PATT
	 POIN2	RelentlessWarden_FINAL_7_001
// 008   ----------------------------------------
	BYTE		N05     Dn1   v127
	BYTE		N05     Fs1 
	BYTE	W06
	BYTE		        Dn1 
	BYTE		N05     Gs1 
	BYTE	W06
	BYTE		        Cn1 
	BYTE		N05     Dn1 
	BYTE		N05     As1 
	BYTE	W06
	BYTE		        Dn1 
	BYTE		N05     Gs1 
	BYTE	W06
	BYTE		        Cn1 
	BYTE		N05     Fs1 
	BYTE	W06
	BYTE		N05   
	BYTE	W06
	BYTE		N05   
	BYTE	W06
	BYTE		N05   
	BYTE	W06
	BYTE		        Cn1 
	BYTE		N05     Gs1 
	BYTE	W06
	BYTE		        Fs1 
	BYTE	W06
	BYTE		N05   
	BYTE	W06
	BYTE		N05   
	BYTE	W06
	BYTE		        Cn1 
	BYTE		N05     Fs1 
	BYTE	W06
	BYTE		        Gs1 
	BYTE	W06
	BYTE		        As1 
	BYTE	W06
	BYTE		        Gs1 
	BYTE	W06
// 009   ----------------------------------------
RelentlessWarden_FINAL_7_009:
	BYTE		N05     Cn1   v127
	BYTE		N05     Fs1 
	BYTE	W06
	BYTE		        Gs1 
	BYTE	W06
	BYTE		        As1 
	BYTE	W06
	BYTE		        Gs1 
	BYTE	W06
	BYTE		        Cn1 
	BYTE		N05     Fs1 
	BYTE	W06
	BYTE		N05   
	BYTE	W06
	BYTE		N05   
	BYTE	W06
	BYTE		N05   
	BYTE	W06
	BYTE		        Cn1 
	BYTE		N05     Gs1 
	BYTE	W06
	BYTE		        Fs1 
	BYTE	W06
	BYTE		N05   
	BYTE	W06
	BYTE		N05   
	BYTE	W06
	BYTE		        Cn1 
	BYTE		N05     Fs1 
	BYTE	W06
	BYTE		        Gs1 
	BYTE	W06
	BYTE		        As1 
	BYTE	W06
	BYTE		        Gs1 
	BYTE	W06
	BYTE	PEND
// 010   ----------------------------------------
RelentlessWarden_FINAL_7_010:
	BYTE		N05     Cn1   v127
	BYTE		N05     Dn1 
	BYTE		N05     Fs1 
	BYTE	W06
	BYTE		        Dn1 
	BYTE		N05     Gs1 
	BYTE	W06
	BYTE		        Dn1 
	BYTE		N05     As1 
	BYTE	W06
	BYTE		        Dn1 
	BYTE		N05     Gs1 
	BYTE	W06
	BYTE		        Cn1 
	BYTE		N05     Fs1 
	BYTE	W06
	BYTE		N05   
	BYTE	W06
	BYTE		N05   
	BYTE	W06
	BYTE		N05   
	BYTE	W06
	BYTE		        Dn1 
	BYTE		N05     Gs1 
	BYTE	W06
	BYTE		        Fs1 
	BYTE	W06
	BYTE		N05   
	BYTE	W06
	BYTE		        Dn1 
	BYTE		N05     Fs1 
	BYTE	W06
	BYTE		        Cn1 
	BYTE		N05     Fs1 
	BYTE	W06
	BYTE		        Gs1 
	BYTE	W06
	BYTE		        Cn1 
	BYTE		N05     As1 
	BYTE	W06
	BYTE		        Gs1 
	BYTE	W06
	BYTE	PEND
// 011   ----------------------------------------
	BYTE	PATT
	 POIN2	RelentlessWarden_FINAL_7_001
// 012   ----------------------------------------
RelentlessWarden_FINAL_7_012:
	BYTE		N05     Dn1   v127
	BYTE		N05     Fs1 
	BYTE	W06
	BYTE		        Gs1 
	BYTE	W06
	BYTE		        Cn1 
	BYTE		N05     As1 
	BYTE	W06
	BYTE		        Gs1 
	BYTE	W06
	BYTE		        Cn1 
	BYTE		N05     Fs1 
	BYTE	W06
	BYTE		N05   
	BYTE	W06
	BYTE		N05   
	BYTE	W06
	BYTE		N05   
	BYTE	W06
	BYTE		        Cn1 
	BYTE		N05     Gs1 
	BYTE	W06
	BYTE		        Fs1 
	BYTE	W06
	BYTE		N05   
	BYTE	W06
	BYTE		N05   
	BYTE	W06
	BYTE		        Cn1 
	BYTE		N05     Fs1 
	BYTE	W06
	BYTE		        Gs1 
	BYTE	W06
	BYTE		        As1 
	BYTE	W06
	BYTE		        Gs1 
	BYTE	W06
	BYTE	PEND
// 013   ----------------------------------------
	BYTE	PATT
	 POIN2	RelentlessWarden_FINAL_7_009
// 014   ----------------------------------------
	BYTE	PATT
	 POIN2	RelentlessWarden_FINAL_7_010
// 015   ----------------------------------------
	BYTE	PATT
	 POIN2	RelentlessWarden_FINAL_7_001
// 016   ----------------------------------------
	BYTE	PATT
	 POIN2	RelentlessWarden_FINAL_7_012
// 017   ----------------------------------------
	BYTE	PATT
	 POIN2	RelentlessWarden_FINAL_7_009
// 018   ----------------------------------------
	BYTE	PATT
	 POIN2	RelentlessWarden_FINAL_7_010
// 019   ----------------------------------------
	BYTE	PATT
	 POIN2	RelentlessWarden_FINAL_7_001
// 020   ----------------------------------------
	BYTE	PATT
	 POIN2	RelentlessWarden_FINAL_7_012
// 021   ----------------------------------------
	BYTE	PATT
	 POIN2	RelentlessWarden_FINAL_7_009
// 022   ----------------------------------------
	BYTE	PATT
	 POIN2	RelentlessWarden_FINAL_7_010
// 023   ----------------------------------------
	BYTE	PATT
	 POIN2	RelentlessWarden_FINAL_7_001
// 024   ----------------------------------------
	BYTE	PATT
	 POIN2	RelentlessWarden_FINAL_7_001
// 025   ----------------------------------------
	BYTE	PATT
	 POIN2	RelentlessWarden_FINAL_7_001
// 026   ----------------------------------------
	BYTE	PATT
	 POIN2	RelentlessWarden_FINAL_7_001
// 027   ----------------------------------------
	BYTE	PATT
	 POIN2	RelentlessWarden_FINAL_7_001
// 028   ----------------------------------------
	BYTE	PATT
	 POIN2	RelentlessWarden_FINAL_7_001
// 029   ----------------------------------------
	BYTE	PATT
	 POIN2	RelentlessWarden_FINAL_7_001
// 030   ----------------------------------------
RelentlessWarden_FINAL_7_030:
	BYTE		N05     Dn1   v127
	BYTE		N05     Fs1 
	BYTE	W06
	BYTE		        Gs1 
	BYTE	W06
	BYTE		        Cn1 
	BYTE		N05     Dn1 
	BYTE		N05     As1 
	BYTE	W06
	BYTE		        Dn1 
	BYTE		N05     Gs1 
	BYTE	W06
	BYTE		N11     Dn1 
	BYTE		N11     Dn2 
	BYTE		N11     An2 
	BYTE	W12
	BYTE		        Cn1 
	BYTE	W12
	BYTE		N11   
	BYTE	W12
	BYTE		        Dn1 
	BYTE		N11     Cn2 
	BYTE		N11     An2 
	BYTE	W12
	BYTE		        Cn1 
	BYTE	W12
	BYTE		N11   
	BYTE	W12
	BYTE	PEND
// 031   ----------------------------------------
RelentlessWarden_FINAL_7_031:
	BYTE		N11     Dn1   v127
	BYTE		N11     Bn1 
	BYTE		N11     An2 
	BYTE	W12
	BYTE		        Cn1 
	BYTE		N11     An1 
	BYTE	W12
	BYTE		N05     Cn1 
	BYTE		N05     Fs1 
	BYTE	W06
	BYTE		N05   
	BYTE	W06
	BYTE		N05   
	BYTE	W06
	BYTE		N05   
	BYTE	W06
	BYTE		        Dn1 
	BYTE		N05     Gs1 
	BYTE	W06
	BYTE		        Fs1 
	BYTE	W06
	BYTE		N05   
	BYTE	W06
	BYTE		        Dn1 
	BYTE		N05     Fs1 
	BYTE	W06
	BYTE		        Cn1 
	BYTE		N05     Fs1 
	BYTE	W06
	BYTE		        Gs1 
	BYTE	W06
	BYTE		        Cn1 
	BYTE		N05     As1 
	BYTE	W06
	BYTE		        Gs1 
	BYTE	W06
	BYTE	PEND
// 032   ----------------------------------------
	BYTE	PATT
	 POIN2	RelentlessWarden_FINAL_7_030
// 033   ----------------------------------------
	BYTE	PATT
	 POIN2	RelentlessWarden_FINAL_7_031
// 034   ----------------------------------------
	BYTE		N05     Dn1   v127
	BYTE		N05     Fs1 
	BYTE	W06
	BYTE		        Gs1 
	BYTE	W06
	BYTE		        Cn1 
	BYTE		N05     Dn1 
	BYTE		N05     As1 
	BYTE	W06
	BYTE		        Dn1 
	BYTE		N05     Gs1 
	BYTE	W06
	BYTE		        Cn1 
	BYTE		N05     Fs1 
	BYTE	W06
	BYTE		N05   
	BYTE	W06
	BYTE		N05   
	BYTE	W06
	BYTE		N05   
	BYTE	W06
	BYTE		        Cn1 
	BYTE		N05     Gs1 
	BYTE	W06
	BYTE		        Fs1 
	BYTE	W06
	BYTE		N05   
	BYTE	W06
	BYTE		N05   
	BYTE	W06
	BYTE		        Cn1 
	BYTE		N05     Fs1 
	BYTE	W06
	BYTE		        Gs1 
	BYTE	W06
	BYTE		        As1 
	BYTE	W06
	BYTE		        Gs1 
	BYTE	W06
// 035   ----------------------------------------
	BYTE		        Cn1 
	BYTE		N05     Dn1 
	BYTE		N05     Fs1 
	BYTE		N05     Bn1 
	BYTE		N05     Cn2 
	BYTE		N05     Dn2 
	BYTE	W06
	BYTE		        Gs1 
	BYTE	W06
	BYTE		        As1 
	BYTE	W06
	BYTE		        Gs1 
	BYTE	W06
	BYTE		        Cn1 
	BYTE		N05     Fs1 
	BYTE	W06
	BYTE		N05   
	BYTE	W06
	BYTE		N05   
	BYTE	W06
	BYTE		N05   
	BYTE	W06
	BYTE		        Cn1 
	BYTE		N05     Gs1 
	BYTE	W06
	BYTE		        Fs1 
	BYTE	W06
	BYTE		N05   
	BYTE	W06
	BYTE		N05   
	BYTE	W06
	BYTE		        Cn1 
	BYTE		N05     Fs1 
	BYTE	W06
	BYTE		        Gs1 
	BYTE	W06
	BYTE		        As1 
	BYTE	W06
	BYTE		        Gs1 
	BYTE	W06
// 036   ----------------------------------------
	BYTE		        Cn1 
	BYTE		N05     Dn1 
	BYTE		N05     Fs1 
	BYTE		N05     Bn1 
	BYTE		N05     Cn2 
	BYTE		N05     Dn2 
	BYTE	W06
	BYTE		        Gs1 
	BYTE	W06
	BYTE		        Dn1 
	BYTE		N05     As1 
	BYTE		N05     Bn1 
	BYTE		N05     Cn2 
	BYTE		N05     Dn2 
	BYTE	W06
	BYTE		        Gs1 
	BYTE	W06
	BYTE		        Cn1 
	BYTE		N05     Fs1 
	BYTE	W06
	BYTE		N05   
	BYTE	W06
	BYTE		N05   
	BYTE	W06
	BYTE		N05   
	BYTE	W06
	BYTE		        Cn1 
	BYTE		N05     Gs1 
	BYTE	W06
	BYTE		        Fs1 
	BYTE	W06
	BYTE		N05   
	BYTE	W06
	BYTE		N05   
	BYTE	W06
	BYTE		        Cn1 
	BYTE		N05     Fs1 
	BYTE	W06
	BYTE		        Gs1 
	BYTE	W06
	BYTE		        As1 
	BYTE	W06
	BYTE		        Gs1 
	BYTE	W06
// 037   ----------------------------------------
	BYTE		        Cn1 
	BYTE		N05     Fs1 
	BYTE		N05     Bn1 
	BYTE		N05     Cn2 
	BYTE		N05     Dn2 
	BYTE	W06
	BYTE		        Gs1 
	BYTE	W06
	BYTE		        As1 
	BYTE	W06
	BYTE		        Gs1 
	BYTE	W06
	BYTE		        Cn1 
	BYTE		N05     Fs1 
	BYTE	W06
	BYTE		N05   
	BYTE	W06
	BYTE		N05   
	BYTE	W06
	BYTE		N05   
	BYTE	W06
	BYTE		        Cn1 
	BYTE		N05     Gs1 
	BYTE	W06
	BYTE		        Fs1 
	BYTE	W06
	BYTE		N05   
	BYTE	W06
	BYTE		N05   
	BYTE	W06
	BYTE		        Cn1 
	BYTE		N05     Fs1 
	BYTE	W06
	BYTE		        Gs1 
	BYTE	W06
	BYTE		        As1 
	BYTE	W06
	BYTE		        Gs1 
	BYTE	W06
// 038   ----------------------------------------
	BYTE		        Cn1 
	BYTE		N05     Dn1 
	BYTE		N05     Fs1 
	BYTE		N05     Bn1 
	BYTE		N05     Cn2 
	BYTE		N05     Dn2 
	BYTE	W06
	BYTE		        Dn1 
	BYTE		N05     Gs1 
	BYTE		N05     Cn2 
	BYTE	W06
	BYTE		        Dn1 
	BYTE		N05     As1 
	BYTE		N05     Bn1 
	BYTE	W06
	BYTE		        Dn1 
	BYTE		N05     Gs1 
	BYTE		N05     An1 
	BYTE	W06
	BYTE		N90     An2 
	BYTE	W72
// 039   ----------------------------------------
	BYTE	W96
// 040   ----------------------------------------
	BYTE	W96
// 041   ----------------------------------------
	BYTE	W96
// 042   ----------------------------------------
	BYTE	W24
	BYTE	GoTo
	 POIN2	RelentlessWarden_FINAL_7_B1
RelentlessWarden_FINAL_7_B2:
	BYTE	FINE

//**************** Track 8 (Midi-Chn.9) ****************//

RelentlessWarden_FINAL_8:
	BYTE	KEYSH   RelentlessWarden_FINAL_key+0
RelentlessWarden_FINAL_8_B1:
// 000   ----------------------------------------
	BYTE		VOICE   81
	BYTE		MODT    0
	BYTE		LFOS    44
	BYTE		VOL     114*RelentlessWarden_FINAL_mvl/mxv
	BYTE		PAN     c_v+33
	BYTE		MODT    0
	BYTE		LFOS    44
	BYTE	W96
// 001   ----------------------------------------
	BYTE	W96
// 002   ----------------------------------------
	BYTE	W96
// 003   ----------------------------------------
	BYTE	W96
// 004   ----------------------------------------
	BYTE	W96
// 005   ----------------------------------------
	BYTE	W96
// 006   ----------------------------------------
	BYTE	W96
// 007   ----------------------------------------
	BYTE	W96
// 008   ----------------------------------------
	BYTE	W24
	BYTE		N20     Cn5   v100
	BYTE	W24
	BYTE		N11     An4 
	BYTE	W12
	BYTE		        Cn5 
	BYTE	W12
	BYTE		N17     Bn4 
	BYTE	W18
	BYTE		N05     An4 
	BYTE	W06
// 009   ----------------------------------------
	BYTE		N11     Gn4 
	BYTE	W12
	BYTE		        Bn4 
	BYTE	W12
	BYTE		N20     An4 
	BYTE	W24
	BYTE		N66     Fn4 
	BYTE	W48
// 010   ----------------------------------------
	BYTE	W24
	BYTE		N20     Cn5 
	BYTE	W24
	BYTE		N11     En5 
	BYTE	W12
	BYTE		        Cn5 
	BYTE	W12
	BYTE		N17     Dn5 
	BYTE	W18
	BYTE		N05     En5 
	BYTE	W06
// 011   ----------------------------------------
	BYTE		N11     Fn5 
	BYTE	W12
	BYTE		        Dn5 
	BYTE	W12
	BYTE		        En5 
	BYTE	W12
	BYTE		        Fn5 
	BYTE	W12
	BYTE		        Gn5 
	BYTE	W12
	BYTE		        Fn5 
	BYTE	W12
	BYTE		N42     En5 
	BYTE	W24
// 012   ----------------------------------------
	BYTE	W24
	BYTE		N05   
	BYTE	W06
	BYTE		        Dn5 
	BYTE	W06
	BYTE		        Cn5 
	BYTE	W06
	BYTE		        En5 
	BYTE	W06
	BYTE		N11     An5 
	BYTE	W12
	BYTE		        Gn5 
	BYTE	W12
	BYTE		        En5 
	BYTE	W12
	BYTE		N20     Cn5 
	BYTE	W12
// 013   ----------------------------------------
	BYTE	W12
	BYTE		N11     En5 
	BYTE	W12
	BYTE		N05     An5 
	BYTE	W06
	BYTE		        Gn5 
	BYTE	W06
	BYTE		        Fn5 
	BYTE	W06
	BYTE		        An5 
	BYTE	W06
	BYTE		N11     Cn6 
	BYTE	W12
	BYTE		        Bn5 
	BYTE	W12
	BYTE		        An5 
	BYTE	W12
	BYTE		N20     Fn5 
	BYTE	W12
// 014   ----------------------------------------
	BYTE	W12
	BYTE		N11     En5 
	BYTE	W12
	BYTE		N17     Dn5 
	BYTE	W18
	BYTE		N05     En5 
	BYTE	W06
	BYTE		N11     Fn5 
	BYTE	W12
	BYTE		        Gn5 
	BYTE	W12
	BYTE		        An5 
	BYTE	W12
	BYTE		        Gn5 
	BYTE	W12
// 015   ----------------------------------------
	BYTE		        Fn5 
	BYTE	W12
	BYTE		        An5 
	BYTE	W12
	BYTE		        Gn5 
	BYTE	W12
	BYTE		        Fn5 
	BYTE	W12
	BYTE		        En5 
	BYTE	W12
	BYTE		N05     Fn5 
	BYTE	W06
	BYTE		        En5 
	BYTE	W06
	BYTE		N42     Dn5 
	BYTE	W24
// 016   ----------------------------------------
	BYTE	W24
	BYTE		N05     En5 
	BYTE	W06
	BYTE		        Dn5 
	BYTE	W06
	BYTE		        En5 
	BYTE	W06
	BYTE		        Fn5 
	BYTE	W06
	BYTE		N11     Gn5 
	BYTE	W12
	BYTE		        Fn5 
	BYTE	W12
	BYTE		N32     En5 
	BYTE	W24
// 017   ----------------------------------------
	BYTE	W12
	BYTE		N11     Dn5 
	BYTE	W12
	BYTE		N05     En5 
	BYTE	W06
	BYTE		        Dn5 
	BYTE	W06
	BYTE		        En5 
	BYTE	W06
	BYTE		        Fn5 
	BYTE	W06
	BYTE		N11     Gn5 
	BYTE	W12
	BYTE		        Fn5 
	BYTE	W12
	BYTE		N32     En5 
	BYTE	W24
// 018   ----------------------------------------
	BYTE	W12
	BYTE		N11     Gn5 
	BYTE	W12
	BYTE		        An5 
	BYTE	W12
	BYTE		        Fn5 
	BYTE	W12
	BYTE		N11   
	BYTE	W12
	BYTE		        En5 
	BYTE	W12
	BYTE		N17     Fn5 
	BYTE	W18
	BYTE		N05     En5 
	BYTE	W06
// 019   ----------------------------------------
	BYTE		N11     Dn5 
	BYTE	W12
	BYTE		        Fn5 
	BYTE	W12
	BYTE		        Gn5 
	BYTE	W12
	BYTE		        An5 
	BYTE	W12
	BYTE		        Bn5 
	BYTE	W12
	BYTE		        An5 
	BYTE	W12
	BYTE		N42     Gn5 
	BYTE	W24
// 020   ----------------------------------------
	BYTE	W24
	BYTE		N05   
	BYTE	W06
	BYTE		        Fn5 
	BYTE	W06
	BYTE		        En5 
	BYTE	W06
	BYTE		        Fn5 
	BYTE	W06
	BYTE		N11     Gn5 
	BYTE	W12
	BYTE		        Fn5 
	BYTE	W12
	BYTE		N32     En5 
	BYTE	W24
// 021   ----------------------------------------
	BYTE	W12
	BYTE		N11     Gn5 
	BYTE	W12
	BYTE		N05     An5 
	BYTE	W06
	BYTE		        Gn5 
	BYTE	W06
	BYTE		        En5 
	BYTE	W06
	BYTE		        An5 
	BYTE	W06
	BYTE		N11     Cn6 
	BYTE	W12
	BYTE		        Bn5 
	BYTE	W12
	BYTE		N32     An5 
	BYTE	W24
// 022   ----------------------------------------
	BYTE	W12
	BYTE		N11     Gn5 
	BYTE	W12
	BYTE		        Fn5 
	BYTE	W12
	BYTE		        En5 
	BYTE	W12
	BYTE		        Fn5 
	BYTE	W12
	BYTE		        Gn5 
	BYTE	W12
	BYTE		N05     An5 
	BYTE	W06
	BYTE		        Gn5 
	BYTE	W06
	BYTE		        Fn5 
	BYTE	W06
	BYTE		        Gn5 
	BYTE	W06
// 023   ----------------------------------------
	BYTE		        An5 
	BYTE	W06
	BYTE		        Gn5 
	BYTE	W06
	BYTE		        Fn5 
	BYTE	W06
	BYTE		        Gn5 
	BYTE	W06
	BYTE		        Bn5 
	BYTE	W06
	BYTE		        An5 
	BYTE	W06
	BYTE		        Gn5 
	BYTE	W06
	BYTE		        Fn5 
	BYTE	W06
	BYTE		N11     En5 
	BYTE	W12
	BYTE		N05     Dn5 
	BYTE	W06
	BYTE		        Cn5 
	BYTE	W06
	BYTE		N42     Dn5 
	BYTE	W24
// 024   ----------------------------------------
	BYTE	W24
	BYTE		N20     Fn5 
	BYTE	W24
	BYTE		N11     An5 
	BYTE	W12
	BYTE		        Fn5 
	BYTE	W12
	BYTE		N17     Gn5 
	BYTE	W18
	BYTE		N05     Fn5 
	BYTE	W06
// 025   ----------------------------------------
	BYTE		N11     En5 
	BYTE	W12
	BYTE		        Dn5 
	BYTE	W12
	BYTE		        Cn5 
	BYTE	W12
	BYTE		        Bn4 
	BYTE	W12
	BYTE		N66     An4 
	BYTE	W48
// 026   ----------------------------------------
	BYTE	W24
	BYTE		N11     Cn5 
	BYTE	W12
	BYTE		        En5 
	BYTE	W12
	BYTE		N20     Fn5 
	BYTE	W24
	BYTE		N17     Gn5 
	BYTE	W18
	BYTE		N05     An5 
	BYTE	W06
// 027   ----------------------------------------
	BYTE		N11     Bn5 
	BYTE	W12
	BYTE		        Dn6 
	BYTE	W12
	BYTE		N42     Cn6 
	BYTE	W48
	BYTE		N48     Bn5 
	BYTE	W24
// 028   ----------------------------------------
	BYTE	W24
	BYTE		N36     Fn4   v127
	BYTE	W36
	BYTE		N12     Ds4 
	BYTE	W12
	BYTE		        Dn4 
	BYTE	W12
	BYTE		        Ds4 
	BYTE	W12
// 029   ----------------------------------------
	BYTE		N48     As2 
	BYTE		N90     Fn4 
	BYTE	W48
	BYTE		N48     Dn3 
	BYTE	W48
// 030   ----------------------------------------
	BYTE		        Ds3 
	BYTE	W48
	BYTE		        Gn3 
	BYTE	W48
// 031   ----------------------------------------
	BYTE		        Fs3 
	BYTE	W48
	BYTE		        Cn4 
	BYTE	W48
// 032   ----------------------------------------
	BYTE		        Ds4 
	BYTE	W48
	BYTE		        Gn4 
	BYTE	W48
// 033   ----------------------------------------
	BYTE		        Fs4 
	BYTE	W48
	BYTE		N12     Cn5 
	BYTE	W12
	BYTE		        As4 
	BYTE	W12
	BYTE		        Gs4 
	BYTE	W12
	BYTE		        Gn4 
	BYTE	W12
// 034   ----------------------------------------
	BYTE		N72     Ds4 
	BYTE	W72
	BYTE		N24     Fn4 
	BYTE	W24
// 035   ----------------------------------------
	BYTE		N96     Gn4 
	BYTE	W96
// 036   ----------------------------------------
	BYTE		N72     Dn4 
	BYTE	W72
	BYTE		N24     Ds4 
	BYTE	W24
// 037   ----------------------------------------
	BYTE		N90     Fn4 
	BYTE	W96
// 038   ----------------------------------------
	BYTE	W96
// 039   ----------------------------------------
	BYTE	W96
// 040   ----------------------------------------
	BYTE	W96
// 041   ----------------------------------------
	BYTE	W96
// 042   ----------------------------------------
	BYTE	W24
	BYTE	GoTo
	 POIN2	RelentlessWarden_FINAL_8_B1
RelentlessWarden_FINAL_8_B2:
	BYTE	FINE

//******************************************************//
	ALIGN 4

RelentlessWarden_FINAL:
	BYTE	8	// NumTrks
	BYTE	0	// NumBlks
	BYTE	RelentlessWarden_FINAL_pri	// Priority
	BYTE	RelentlessWarden_FINAL_rev	// Reverb.

	POIN2	RelentlessWarden_FINAL_grp

	POIN2	RelentlessWarden_FINAL_1
	POIN2	RelentlessWarden_FINAL_2
	POIN2	RelentlessWarden_FINAL_3
	POIN2	RelentlessWarden_FINAL_4
	POIN2	RelentlessWarden_FINAL_5
	POIN2	RelentlessWarden_FINAL_6
	POIN2	RelentlessWarden_FINAL_7
	POIN2	RelentlessWarden_FINAL_8

	
