//Event file generated from Sappy .s format.
	#include "MPlayDef.event"

	#define	Respite_FINAL_grp  voicegroup000
	#define	Respite_FINAL_pri  0
	#define	Respite_FINAL_rev  0xB0
	#define	Respite_FINAL_mvl  37
	#define	Respite_FINAL_key  0
	#define	Respite_FINAL_tbs  1
	#define	Respite_FINAL_exg  0
	#define	Respite_FINAL_cmp  1

	// .rodata
	//	Respite_FINAL
	ALIGN 4

//**************** Track 1 (Midi-Chn.1) ****************//

Respite_FINAL_1:
	BYTE	KEYSH   Respite_FINAL_key+0
Respite_FINAL_1_B1:
// 000   ----------------------------------------
	BYTE	TEMPO   95*Respite_FINAL_tbs/2
	BYTE		VOICE   49
	BYTE		MODT    0
	BYTE		LFOS    44
	BYTE		PAN     c_v-22
	BYTE		VOL     127*Respite_FINAL_mvl/mxv
	BYTE		N36     Fs2   v056
	BYTE		N36     Bn2 
	BYTE	W36
	BYTE		N60     Fs2 
	BYTE		N60     An2 
	BYTE	W60
// 001   ----------------------------------------
Respite_FINAL_1_001:
	BYTE		N36     Fs2   v056
	BYTE		N36     Gs2 
	BYTE	W36
	BYTE		N60     Fs2 
	BYTE		N60     An2 
	BYTE	W60
	BYTE	PEND
// 002   ----------------------------------------
Respite_FINAL_1_002:
	BYTE		N36     Fs2   v056
	BYTE		N36     Bn2 
	BYTE	W36
	BYTE		N60     Fs2 
	BYTE		N60     An2 
	BYTE	W60
	BYTE	PEND
// 003   ----------------------------------------
	BYTE	PATT
	 POIN2	Respite_FINAL_1_001
// 004   ----------------------------------------
	BYTE	PATT
	 POIN2	Respite_FINAL_1_002
// 005   ----------------------------------------
	BYTE	PATT
	 POIN2	Respite_FINAL_1_001
// 006   ----------------------------------------
Respite_FINAL_1_006:
	BYTE		N36     Fs2   v056
	BYTE		N36     Bn2 
	BYTE		N36     En3 
	BYTE	W36
	BYTE		N60     Fs2 
	BYTE		N60     Bn2 
	BYTE		N60     Dn3 
	BYTE	W60
	BYTE	PEND
// 007   ----------------------------------------
Respite_FINAL_1_007:
	BYTE		N36     Fn2   v056
	BYTE		N36     Gs2 
	BYTE		N36     Cs3 
	BYTE	W36
	BYTE		N60     Fn2 
	BYTE		N60     Gs2 
	BYTE		N60     Bn2 
	BYTE	W60
	BYTE	PEND
// 008   ----------------------------------------
	BYTE	PATT
	 POIN2	Respite_FINAL_1_002
// 009   ----------------------------------------
	BYTE	PATT
	 POIN2	Respite_FINAL_1_001
// 010   ----------------------------------------
Respite_FINAL_1_010:
	BYTE		N36     Fs2   v056
	BYTE		N36     Bn2 
	BYTE		N36     En3 
	BYTE	W36
	BYTE		N60     Fn2 
	BYTE		N60     Gs2 
	BYTE		N60     Bn2 
	BYTE		N60     Dn3 
	BYTE	W60
	BYTE	PEND
// 011   ----------------------------------------
Respite_FINAL_1_011:
	BYTE		N36     Fs2   v056
	BYTE		N36     An2 
	BYTE		N36     Bn2 
	BYTE	W36
	BYTE		N60     Fs2 
	BYTE		N60     An2 
	BYTE		N60     Cs3 
	BYTE	W60
	BYTE	PEND
// 012   ----------------------------------------
	BYTE	PATT
	 POIN2	Respite_FINAL_1_002
// 013   ----------------------------------------
	BYTE	PATT
	 POIN2	Respite_FINAL_1_001
// 014   ----------------------------------------
	BYTE	PATT
	 POIN2	Respite_FINAL_1_006
// 015   ----------------------------------------
	BYTE	PATT
	 POIN2	Respite_FINAL_1_007
// 016   ----------------------------------------
	BYTE	PATT
	 POIN2	Respite_FINAL_1_002
// 017   ----------------------------------------
	BYTE	PATT
	 POIN2	Respite_FINAL_1_001
// 018   ----------------------------------------
	BYTE	PATT
	 POIN2	Respite_FINAL_1_010
// 019   ----------------------------------------
	BYTE	PATT
	 POIN2	Respite_FINAL_1_011
// 020   ----------------------------------------
	BYTE		N96     Cs2   v056
	BYTE		N96     En2 
	BYTE		N96     An2 
	BYTE	W96
// 021   ----------------------------------------
	BYTE		N90     Bn1 
	BYTE		N90     Dn2 
	BYTE		N48     An2 
	BYTE	W48
	BYTE		        Gs2 
	BYTE	W48
// 022   ----------------------------------------
	BYTE		N96     Cs2 
	BYTE		N96     Fs2 
	BYTE		N96     An2 
	BYTE	W96
// 023   ----------------------------------------
	BYTE		N90     En2 
	BYTE		N90     Gs2 
	BYTE		N48     Cs3 
	BYTE	W48
	BYTE		        Bn2 
	BYTE	W48
// 024   ----------------------------------------
	BYTE		N96     Dn2 
	BYTE		N96     Fs2 
	BYTE		N96     An2 
	BYTE	W96
// 025   ----------------------------------------
	BYTE		N90     Cs2 
	BYTE		N90     En2 
	BYTE		N48     An2 
	BYTE	W48
	BYTE		        Gs2 
	BYTE	W48
// 026   ----------------------------------------
	BYTE		N96     Bn1 
	BYTE		N96     Fs2 
	BYTE		N96     An2 
	BYTE	W96
// 027   ----------------------------------------
	BYTE		N90     Bn1 
	BYTE		N90     En2 
	BYTE		N48     An2 
	BYTE	W48
	BYTE		        Gs2 
	BYTE	W48
// 028   ----------------------------------------
	BYTE	PATT
	 POIN2	Respite_FINAL_1_002
// 029   ----------------------------------------
	BYTE	PATT
	 POIN2	Respite_FINAL_1_006
// 030   ----------------------------------------
	BYTE		N32     En2   v056
	BYTE		N32     Gs2 
	BYTE		N32     Cs3 
	BYTE	W36
	BYTE		N56     En2 
	BYTE		N56     Gs2 
	BYTE		N56     Bn2 
	BYTE	W60
// 031   ----------------------------------------
	BYTE		N32     En2 
	BYTE		N32     An2 
	BYTE		N32     Cs3 
	BYTE	W36
	BYTE		N56     En2 
	BYTE		N56     Gs2 
	BYTE		N56     Dn3 
	BYTE	W60
// 032   ----------------------------------------
	BYTE	PATT
	 POIN2	Respite_FINAL_1_002
// 033   ----------------------------------------
	BYTE	PATT
	 POIN2	Respite_FINAL_1_006
// 034   ----------------------------------------
	BYTE		N36     En2   v056
	BYTE		N36     Gs2 
	BYTE		N36     Cs3 
	BYTE	W36
	BYTE		N60     En2 
	BYTE		N60     Gs2 
	BYTE		N60     Bn2 
	BYTE	W60
// 035   ----------------------------------------
	BYTE		N36     En2 
	BYTE		N36     Gs2 
	BYTE		N36     Cs3 
	BYTE	W36
	BYTE		N56     En2 
	BYTE		N56     Gs2 
	BYTE		N56     Bn2 
	BYTE	W60
	BYTE	GoTo
	 POIN2	Respite_FINAL_1_B1
Respite_FINAL_1_B2:
// 036   ----------------------------------------
	BYTE	FINE

//**************** Track 2 (Midi-Chn.2) ****************//

Respite_FINAL_2:
	BYTE	KEYSH   Respite_FINAL_key+0
Respite_FINAL_2_B1:
// 000   ----------------------------------------
	BYTE		VOICE   4
	BYTE		MODT    0
	BYTE		LFOS    44
	BYTE		PAN     c_v+20
	BYTE		VOL     127*Respite_FINAL_mvl/mxv
	BYTE	W96
// 001   ----------------------------------------
	BYTE	W96
// 002   ----------------------------------------
	BYTE	W96
// 003   ----------------------------------------
	BYTE	W60
	BYTE		N11     Bn3   v100
	BYTE	W12
	BYTE		        Cs4 
	BYTE	W12
	BYTE		        An4 
	BYTE	W12
// 004   ----------------------------------------
Respite_FINAL_2_004:
	BYTE		N11     Gs4   v100
	BYTE	W12
	BYTE		N20     Fs4 
	BYTE	W24
	BYTE		        Cs4 
	BYTE	W24
	BYTE		N11     Bn3 
	BYTE	W12
	BYTE		        Cs4 
	BYTE	W12
	BYTE		        An4 
	BYTE	W12
	BYTE	PEND
// 005   ----------------------------------------
Respite_FINAL_2_005:
	BYTE		N11     Gs4   v100
	BYTE	W12
	BYTE		N20     Fs4 
	BYTE	W24
	BYTE		        Cs4 
	BYTE	W24
	BYTE		N11     Bn3 
	BYTE	W12
	BYTE		        Cs4 
	BYTE	W12
	BYTE		        En4 
	BYTE	W12
	BYTE	PEND
// 006   ----------------------------------------
Respite_FINAL_2_006:
	BYTE		N11     En4   v100
	BYTE	W12
	BYTE		N20     Dn4 
	BYTE	W24
	BYTE		        Cs4 
	BYTE	W24
	BYTE		N11     Bn3 
	BYTE	W12
	BYTE		        An3 
	BYTE	W12
	BYTE		        Bn3 
	BYTE	W12
	BYTE	PEND
// 007   ----------------------------------------
Respite_FINAL_2_007:
	BYTE		N56     Cs4   v100
	BYTE	W60
	BYTE		N11     Bn3 
	BYTE	W12
	BYTE		        Cs4 
	BYTE	W12
	BYTE		        An4 
	BYTE	W12
	BYTE	PEND
// 008   ----------------------------------------
	BYTE	PATT
	 POIN2	Respite_FINAL_2_004
// 009   ----------------------------------------
	BYTE	PATT
	 POIN2	Respite_FINAL_2_005
// 010   ----------------------------------------
Respite_FINAL_2_010:
	BYTE		N11     En4   v100
	BYTE	W12
	BYTE		N20     Dn4 
	BYTE	W24
	BYTE		        Cs4 
	BYTE	W24
	BYTE		N11     Bn3 
	BYTE	W12
	BYTE		        An3 
	BYTE	W12
	BYTE		        Gs3 
	BYTE	W12
	BYTE	PEND
// 011   ----------------------------------------
	BYTE		N56     Fs3 
	BYTE	W60
	BYTE		N11     Bn3 
	BYTE	W12
	BYTE		        Cs4 
	BYTE	W12
	BYTE		        An4 
	BYTE	W12
// 012   ----------------------------------------
	BYTE	PATT
	 POIN2	Respite_FINAL_2_004
// 013   ----------------------------------------
	BYTE	PATT
	 POIN2	Respite_FINAL_2_005
// 014   ----------------------------------------
	BYTE	PATT
	 POIN2	Respite_FINAL_2_006
// 015   ----------------------------------------
	BYTE	PATT
	 POIN2	Respite_FINAL_2_007
// 016   ----------------------------------------
	BYTE	PATT
	 POIN2	Respite_FINAL_2_004
// 017   ----------------------------------------
	BYTE	PATT
	 POIN2	Respite_FINAL_2_005
// 018   ----------------------------------------
	BYTE	PATT
	 POIN2	Respite_FINAL_2_010
// 019   ----------------------------------------
	BYTE		N90     Fs3   v100
	BYTE	W96
// 020   ----------------------------------------
Respite_FINAL_2_020:
	BYTE	W12
	BYTE		N11     Gs4   v036
	BYTE	W12
	BYTE		        An4 
	BYTE	W12
	BYTE		        Gs4 
	BYTE	W24
	BYTE		N11   
	BYTE	W12
	BYTE		        An4 
	BYTE	W12
	BYTE		        Gs4 
	BYTE	W12
	BYTE	PEND
// 021   ----------------------------------------
	BYTE	PATT
	 POIN2	Respite_FINAL_2_020
// 022   ----------------------------------------
	BYTE	W12
	BYTE		N11     Fs4   v036
	BYTE	W12
	BYTE		        Cs4 
	BYTE	W12
	BYTE		        Fs4 
	BYTE	W24
	BYTE		N11   
	BYTE	W12
	BYTE		        Cs4 
	BYTE	W12
	BYTE		        Fs4 
	BYTE	W12
// 023   ----------------------------------------
	BYTE	PATT
	 POIN2	Respite_FINAL_2_020
// 024   ----------------------------------------
	BYTE	W12
	BYTE		N11     Fs4   v036
	BYTE	W12
	BYTE		        Gs4 
	BYTE	W12
	BYTE		        Fs4 
	BYTE	W24
	BYTE		N11   
	BYTE	W12
	BYTE		        Gs4 
	BYTE	W12
	BYTE		        Fs4 
	BYTE	W12
// 025   ----------------------------------------
	BYTE	W12
	BYTE		        En4 
	BYTE	W12
	BYTE		        Fs4 
	BYTE	W12
	BYTE		        En4 
	BYTE	W24
	BYTE		N11   
	BYTE	W12
	BYTE		        Fs4 
	BYTE	W12
	BYTE		        En4 
	BYTE	W12
// 026   ----------------------------------------
	BYTE	W12
	BYTE		        Bn3 
	BYTE	W12
	BYTE		        Cs4 
	BYTE	W12
	BYTE		        Dn4 
	BYTE	W24
	BYTE		        Bn3 
	BYTE	W12
	BYTE		        Cs4 
	BYTE	W12
	BYTE		        Dn4 
	BYTE	W12
// 027   ----------------------------------------
	BYTE	W12
	BYTE		        En4 
	BYTE	W12
	BYTE		        Fs4 
	BYTE	W12
	BYTE		        Gs4 
	BYTE	W24
	BYTE		        En4 
	BYTE	W12
	BYTE		        Fs4 
	BYTE	W12
	BYTE		        Gs4 
	BYTE	W12
// 028   ----------------------------------------
	BYTE	W96
// 029   ----------------------------------------
	BYTE	W96
// 030   ----------------------------------------
	BYTE	W96
// 031   ----------------------------------------
	BYTE	W96
// 032   ----------------------------------------
	BYTE		N42   
	BYTE	W48
	BYTE		        Fs4 
	BYTE	W48
// 033   ----------------------------------------
	BYTE		        En4 
	BYTE	W48
	BYTE		        Dn4 
	BYTE	W48
// 034   ----------------------------------------
	BYTE		        Cs4 
	BYTE	W48
	BYTE		        Bn3 
	BYTE	W48
// 035   ----------------------------------------
	BYTE		N20     Cs4 
	BYTE	W24
	BYTE		        Dn4 
	BYTE	W24
	BYTE		N42     En4 
	BYTE	W48
	BYTE	GoTo
	 POIN2	Respite_FINAL_2_B1
Respite_FINAL_2_B2:
// 036   ----------------------------------------
	BYTE	FINE

//**************** Track 3 (Midi-Chn.3) ****************//

Respite_FINAL_3:
	BYTE	KEYSH   Respite_FINAL_key+0
Respite_FINAL_3_B1:
// 000   ----------------------------------------
	BYTE		VOICE   2
	BYTE		MODT    0
	BYTE		LFOS    44
	BYTE		PAN     c_v-11
	BYTE		VOL     127*Respite_FINAL_mvl/mxv
	BYTE	W96
// 001   ----------------------------------------
	BYTE	W96
// 002   ----------------------------------------
	BYTE	W96
// 003   ----------------------------------------
	BYTE	W96
// 004   ----------------------------------------
Respite_FINAL_3_004:
	BYTE		N36     Fs1   v076
	BYTE	W42
	BYTE		N05   
	BYTE	W06
	BYTE		N04   
	BYTE	W12
	BYTE		N04   
	BYTE	W36
	BYTE	PEND
// 005   ----------------------------------------
	BYTE	PATT
	 POIN2	Respite_FINAL_3_004
// 006   ----------------------------------------
	BYTE	PATT
	 POIN2	Respite_FINAL_3_004
// 007   ----------------------------------------
Respite_FINAL_3_007:
	BYTE		N36     Fn1   v076
	BYTE	W42
	BYTE		N05   
	BYTE	W06
	BYTE		N04   
	BYTE	W12
	BYTE		N04   
	BYTE	W36
	BYTE	PEND
// 008   ----------------------------------------
	BYTE	PATT
	 POIN2	Respite_FINAL_3_004
// 009   ----------------------------------------
	BYTE	PATT
	 POIN2	Respite_FINAL_3_004
// 010   ----------------------------------------
Respite_FINAL_3_010:
	BYTE		N36     Fs1   v076
	BYTE	W42
	BYTE		N05   
	BYTE	W06
	BYTE		N04     Fn1 
	BYTE	W12
	BYTE		N04   
	BYTE	W36
	BYTE	PEND
// 011   ----------------------------------------
	BYTE	PATT
	 POIN2	Respite_FINAL_3_004
// 012   ----------------------------------------
	BYTE	PATT
	 POIN2	Respite_FINAL_3_004
// 013   ----------------------------------------
	BYTE	PATT
	 POIN2	Respite_FINAL_3_004
// 014   ----------------------------------------
	BYTE	PATT
	 POIN2	Respite_FINAL_3_004
// 015   ----------------------------------------
	BYTE	PATT
	 POIN2	Respite_FINAL_3_007
// 016   ----------------------------------------
	BYTE	PATT
	 POIN2	Respite_FINAL_3_004
// 017   ----------------------------------------
	BYTE	PATT
	 POIN2	Respite_FINAL_3_004
// 018   ----------------------------------------
	BYTE	PATT
	 POIN2	Respite_FINAL_3_010
// 019   ----------------------------------------
	BYTE	PATT
	 POIN2	Respite_FINAL_3_004
// 020   ----------------------------------------
	BYTE		N06     An1   v076
	BYTE	W24
	BYTE		N04   
	BYTE	W12
	BYTE		N11     Bn1 
	BYTE	W12
	BYTE		N06     An1 
	BYTE	W24
	BYTE		N04   
	BYTE	W12
	BYTE		N11     Bn1 
	BYTE	W12
// 021   ----------------------------------------
Respite_FINAL_3_021:
	BYTE		N06     En1   v076
	BYTE	W24
	BYTE		N04   
	BYTE	W12
	BYTE		N11     Fs1 
	BYTE	W12
	BYTE		N06     En1 
	BYTE	W24
	BYTE		N04   
	BYTE	W12
	BYTE		N11     Fs1 
	BYTE	W12
	BYTE	PEND
// 022   ----------------------------------------
	BYTE		N06     An1 
	BYTE	W24
	BYTE		N04   
	BYTE	W12
	BYTE		N11     Fs1 
	BYTE	W12
	BYTE		N06     An1 
	BYTE	W24
	BYTE		N04   
	BYTE	W12
	BYTE		N11     Fs1 
	BYTE	W12
// 023   ----------------------------------------
	BYTE		N06     Gs1 
	BYTE	W24
	BYTE		N04   
	BYTE	W12
	BYTE		N11     An1 
	BYTE	W12
	BYTE		N06     Gs1 
	BYTE	W24
	BYTE		N04   
	BYTE	W12
	BYTE		N11     An1 
	BYTE	W12
// 024   ----------------------------------------
	BYTE		N06     Fs1 
	BYTE	W24
	BYTE		N04   
	BYTE	W12
	BYTE		N11     Dn1 
	BYTE	W12
	BYTE		N06     Fs1 
	BYTE	W24
	BYTE		N04   
	BYTE	W12
	BYTE		N11     Dn1 
	BYTE	W12
// 025   ----------------------------------------
	BYTE	PATT
	 POIN2	Respite_FINAL_3_021
// 026   ----------------------------------------
	BYTE		N06     Bn1   v076
	BYTE	W24
	BYTE		N04   
	BYTE	W12
	BYTE		N11     An1 
	BYTE	W12
	BYTE		N06     Bn1 
	BYTE	W24
	BYTE		N04   
	BYTE	W12
	BYTE		N11     An1 
	BYTE	W12
// 027   ----------------------------------------
	BYTE	PATT
	 POIN2	Respite_FINAL_3_021
// 028   ----------------------------------------
	BYTE	PATT
	 POIN2	Respite_FINAL_3_004
// 029   ----------------------------------------
	BYTE	PATT
	 POIN2	Respite_FINAL_3_004
// 030   ----------------------------------------
Respite_FINAL_3_030:
	BYTE		N36     En1   v076
	BYTE	W42
	BYTE		N05   
	BYTE	W06
	BYTE		N04   
	BYTE	W12
	BYTE		N04   
	BYTE	W36
	BYTE	PEND
// 031   ----------------------------------------
	BYTE	PATT
	 POIN2	Respite_FINAL_3_030
// 032   ----------------------------------------
	BYTE	PATT
	 POIN2	Respite_FINAL_3_004
// 033   ----------------------------------------
	BYTE	PATT
	 POIN2	Respite_FINAL_3_004
// 034   ----------------------------------------
	BYTE	PATT
	 POIN2	Respite_FINAL_3_030
// 035   ----------------------------------------
	BYTE		N90     En1   v076
	BYTE	W96
	BYTE	GoTo
	 POIN2	Respite_FINAL_3_B1
Respite_FINAL_3_B2:
// 036   ----------------------------------------
	BYTE	FINE

//**************** Track 4 (Midi-Chn.4) ****************//

Respite_FINAL_4:
	BYTE	KEYSH   Respite_FINAL_key+0
Respite_FINAL_4_B1:
// 000   ----------------------------------------
	BYTE		VOICE   33
	BYTE		MODT    0
	BYTE		LFOS    44
	BYTE		PAN     c_v-19
	BYTE		VOL     127*Respite_FINAL_mvl/mxv
	BYTE	W96
// 001   ----------------------------------------
	BYTE	W96
// 002   ----------------------------------------
	BYTE	W96
// 003   ----------------------------------------
	BYTE	W96
// 004   ----------------------------------------
	BYTE	W96
// 005   ----------------------------------------
	BYTE	W96
// 006   ----------------------------------------
	BYTE	W96
// 007   ----------------------------------------
	BYTE	W96
// 008   ----------------------------------------
	BYTE	W96
// 009   ----------------------------------------
	BYTE	W96
// 010   ----------------------------------------
	BYTE	W96
// 011   ----------------------------------------
	BYTE	W96
// 012   ----------------------------------------
Respite_FINAL_4_012:
	BYTE		N36     Fs1   v100
	BYTE	W42
	BYTE		N05   
	BYTE	W06
	BYTE		N04   
	BYTE	W12
	BYTE		N04   
	BYTE	W36
	BYTE	PEND
// 013   ----------------------------------------
	BYTE	PATT
	 POIN2	Respite_FINAL_4_012
// 014   ----------------------------------------
	BYTE	PATT
	 POIN2	Respite_FINAL_4_012
// 015   ----------------------------------------
	BYTE		N36     Fn1   v100
	BYTE	W42
	BYTE		N05   
	BYTE	W06
	BYTE		N04   
	BYTE	W12
	BYTE		N04   
	BYTE	W36
// 016   ----------------------------------------
	BYTE	PATT
	 POIN2	Respite_FINAL_4_012
// 017   ----------------------------------------
	BYTE	PATT
	 POIN2	Respite_FINAL_4_012
// 018   ----------------------------------------
	BYTE		N36     Fs1   v100
	BYTE	W42
	BYTE		N05   
	BYTE	W06
	BYTE		N04     Fn1 
	BYTE	W12
	BYTE		N04   
	BYTE	W36
// 019   ----------------------------------------
	BYTE	PATT
	 POIN2	Respite_FINAL_4_012
// 020   ----------------------------------------
	BYTE		N06     An1   v100
	BYTE	W24
	BYTE		N04   
	BYTE	W12
	BYTE		N11     Bn1 
	BYTE	W12
	BYTE		N06     An1 
	BYTE	W24
	BYTE		N04   
	BYTE	W12
	BYTE		N11     Bn1 
	BYTE	W12
// 021   ----------------------------------------
Respite_FINAL_4_021:
	BYTE		N06     En1   v100
	BYTE	W24
	BYTE		N04   
	BYTE	W12
	BYTE		N11     Fs1 
	BYTE	W12
	BYTE		N06     En1 
	BYTE	W24
	BYTE		N04   
	BYTE	W12
	BYTE		N11     Fs1 
	BYTE	W12
	BYTE	PEND
// 022   ----------------------------------------
	BYTE		N06     An1 
	BYTE	W24
	BYTE		N04   
	BYTE	W12
	BYTE		N11     Fs1 
	BYTE	W12
	BYTE		N06     An1 
	BYTE	W24
	BYTE		N04   
	BYTE	W12
	BYTE		N11     Fs1 
	BYTE	W12
// 023   ----------------------------------------
	BYTE		N06     Gs1 
	BYTE	W24
	BYTE		N04   
	BYTE	W12
	BYTE		N11     An1 
	BYTE	W12
	BYTE		N06     Gs1 
	BYTE	W24
	BYTE		N04   
	BYTE	W12
	BYTE		N11     An1 
	BYTE	W12
// 024   ----------------------------------------
	BYTE		N06     Fs1 
	BYTE	W24
	BYTE		N04   
	BYTE	W12
	BYTE		N11     Dn1 
	BYTE	W12
	BYTE		N06     Fs1 
	BYTE	W24
	BYTE		N04   
	BYTE	W12
	BYTE		N11     Dn1 
	BYTE	W12
// 025   ----------------------------------------
	BYTE	PATT
	 POIN2	Respite_FINAL_4_021
// 026   ----------------------------------------
	BYTE		N06     Bn1   v100
	BYTE	W24
	BYTE		N04   
	BYTE	W12
	BYTE		N11     An1 
	BYTE	W12
	BYTE		N06     Bn1 
	BYTE	W24
	BYTE		N04   
	BYTE	W12
	BYTE		N11     An1 
	BYTE	W12
// 027   ----------------------------------------
	BYTE	PATT
	 POIN2	Respite_FINAL_4_021
// 028   ----------------------------------------
	BYTE	W96
// 029   ----------------------------------------
	BYTE	W96
// 030   ----------------------------------------
	BYTE	W96
// 031   ----------------------------------------
	BYTE	W96
// 032   ----------------------------------------
	BYTE	PATT
	 POIN2	Respite_FINAL_4_012
// 033   ----------------------------------------
	BYTE	PATT
	 POIN2	Respite_FINAL_4_012
// 034   ----------------------------------------
	BYTE		N36     En1   v100
	BYTE	W42
	BYTE		N05   
	BYTE	W06
	BYTE		N04   
	BYTE	W12
	BYTE		N04   
	BYTE	W36
// 035   ----------------------------------------
	BYTE		N90   
	BYTE	W96
	BYTE	GoTo
	 POIN2	Respite_FINAL_4_B1
Respite_FINAL_4_B2:
// 036   ----------------------------------------
	BYTE	FINE

//**************** Track 5 (Midi-Chn.5) ****************//

Respite_FINAL_5:
	BYTE	KEYSH   Respite_FINAL_key+0
Respite_FINAL_5_B1:
// 000   ----------------------------------------
	BYTE		VOICE   54
	BYTE		MODT    0
	BYTE		LFOS    44
	BYTE		PAN     c_v+18
	BYTE		VOL     127*Respite_FINAL_mvl/mxv
	BYTE	W96
// 001   ----------------------------------------
	BYTE	W96
// 002   ----------------------------------------
	BYTE	W96
// 003   ----------------------------------------
	BYTE	W96
// 004   ----------------------------------------
	BYTE	W96
// 005   ----------------------------------------
	BYTE	W96
// 006   ----------------------------------------
	BYTE	W96
// 007   ----------------------------------------
	BYTE	W96
// 008   ----------------------------------------
	BYTE	W96
// 009   ----------------------------------------
	BYTE	W96
// 010   ----------------------------------------
	BYTE	W96
// 011   ----------------------------------------
	BYTE	W96
// 012   ----------------------------------------
Respite_FINAL_5_012:
	BYTE		TIE     Cs3   v036
	BYTE		TIE     Fs3 
	BYTE		TIE     An3 
	BYTE	W96
	BYTE	PEND
// 013   ----------------------------------------
	BYTE	W96
	BYTE		EOT     Cs3 
	BYTE		        Fs3 
	BYTE		        An3 
// 014   ----------------------------------------
Respite_FINAL_5_014:
	BYTE		N96     Dn3   v036
	BYTE		N96     Fs3 
	BYTE		N96     An3 
	BYTE	W96
	BYTE	PEND
// 015   ----------------------------------------
	BYTE		        Cs3 
	BYTE		N96     Fn3 
	BYTE		N96     Gs3 
	BYTE	W96
// 016   ----------------------------------------
	BYTE	PATT
	 POIN2	Respite_FINAL_5_012
// 017   ----------------------------------------
	BYTE	W96
	BYTE		EOT     Cs3 
	BYTE		        Fs3 
	BYTE		        An3 
// 018   ----------------------------------------
	BYTE		N48     Dn3   v036
	BYTE		N48     Fs3 
	BYTE		N48     An3 
	BYTE	W48
	BYTE		        Cs3 
	BYTE		N48     Fn3 
	BYTE		N48     Gs3 
	BYTE	W48
// 019   ----------------------------------------
Respite_FINAL_5_019:
	BYTE		N96     Cs3   v036
	BYTE		N96     Fs3 
	BYTE		N96     An3 
	BYTE	W96
	BYTE	PEND
// 020   ----------------------------------------
	BYTE		        Cs3 
	BYTE		N96     En3 
	BYTE		N96     An3 
	BYTE	W96
// 021   ----------------------------------------
	BYTE		N90     Bn2 
	BYTE		N90     Dn3 
	BYTE		N48     An3 
	BYTE	W48
	BYTE		        Gs3 
	BYTE	W48
// 022   ----------------------------------------
	BYTE	PATT
	 POIN2	Respite_FINAL_5_019
// 023   ----------------------------------------
	BYTE		N90     En3   v036
	BYTE		N90     Gs3 
	BYTE		N48     Cs4 
	BYTE	W48
	BYTE		        Bn3 
	BYTE	W48
// 024   ----------------------------------------
	BYTE	PATT
	 POIN2	Respite_FINAL_5_014
// 025   ----------------------------------------
	BYTE		N90     Cs3   v036
	BYTE		N90     En3 
	BYTE		N48     An3 
	BYTE	W48
	BYTE		        Gs3 
	BYTE	W48
// 026   ----------------------------------------
	BYTE		N96     Bn2 
	BYTE		N96     Fs3 
	BYTE		N96     An3 
	BYTE	W96
// 027   ----------------------------------------
	BYTE		N90     Bn2 
	BYTE		N90     En3 
	BYTE		N48     An3 
	BYTE	W48
	BYTE		        Gs3 
	BYTE	W48
// 028   ----------------------------------------
	BYTE	W96
// 029   ----------------------------------------
	BYTE	W96
// 030   ----------------------------------------
	BYTE	W96
// 031   ----------------------------------------
	BYTE	W96
// 032   ----------------------------------------
	BYTE	PATT
	 POIN2	Respite_FINAL_5_019
// 033   ----------------------------------------
	BYTE	PATT
	 POIN2	Respite_FINAL_5_014
// 034   ----------------------------------------
	BYTE		TIE     Bn2   v036
	BYTE		TIE     En3 
	BYTE		N48     Cs4 
	BYTE	W48
	BYTE		        Bn3 
	BYTE	W48
// 035   ----------------------------------------
	BYTE		        An3 
	BYTE	W48
	BYTE		N42     Gs3 
	BYTE	W42
	BYTE		EOT     Bn2 
	BYTE		        En3 
	BYTE	W06
	BYTE	GoTo
	 POIN2	Respite_FINAL_5_B1
Respite_FINAL_5_B2:
// 036   ----------------------------------------
	BYTE	FINE

//**************** Track 6 (Midi-Chn.6) ****************//

Respite_FINAL_6:
	BYTE	KEYSH   Respite_FINAL_key+0
Respite_FINAL_6_B1:
// 000   ----------------------------------------
	BYTE		VOICE   48
	BYTE		MODT    0
	BYTE		LFOS    44
	BYTE		VOL     87*Respite_FINAL_mvl/mxv
	BYTE		PAN     c_v-13
	BYTE	W96
// 001   ----------------------------------------
	BYTE	W96
// 002   ----------------------------------------
	BYTE	W96
// 003   ----------------------------------------
	BYTE	W60
	BYTE		N11     Bn3   v100
	BYTE	W12
	BYTE		        Cs4 
	BYTE	W12
	BYTE		        An4 
	BYTE	W12
// 004   ----------------------------------------
Respite_FINAL_6_004:
	BYTE		N11     Gs4   v100
	BYTE	W12
	BYTE		N20     Fs4 
	BYTE	W24
	BYTE		        Cs4 
	BYTE	W24
	BYTE		N11     Bn3 
	BYTE	W12
	BYTE		        Cs4 
	BYTE	W12
	BYTE		        An4 
	BYTE	W12
	BYTE	PEND
// 005   ----------------------------------------
Respite_FINAL_6_005:
	BYTE		N11     Gs4   v100
	BYTE	W12
	BYTE		N20     Fs4 
	BYTE	W24
	BYTE		        Cs4 
	BYTE	W24
	BYTE		N11     Bn3 
	BYTE	W12
	BYTE		        Cs4 
	BYTE	W12
	BYTE		        En4 
	BYTE	W12
	BYTE	PEND
// 006   ----------------------------------------
Respite_FINAL_6_006:
	BYTE		N11     En4   v100
	BYTE	W12
	BYTE		N20     Dn4 
	BYTE	W24
	BYTE		        Cs4 
	BYTE	W24
	BYTE		N11     Bn3 
	BYTE	W12
	BYTE		        An3 
	BYTE	W12
	BYTE		        Bn3 
	BYTE	W12
	BYTE	PEND
// 007   ----------------------------------------
Respite_FINAL_6_007:
	BYTE		N56     Cs4   v100
	BYTE	W60
	BYTE		N11     Bn3 
	BYTE	W12
	BYTE		        Cs4 
	BYTE	W12
	BYTE		        An4 
	BYTE	W12
	BYTE	PEND
// 008   ----------------------------------------
	BYTE	PATT
	 POIN2	Respite_FINAL_6_004
// 009   ----------------------------------------
	BYTE	PATT
	 POIN2	Respite_FINAL_6_005
// 010   ----------------------------------------
Respite_FINAL_6_010:
	BYTE		N11     En4   v100
	BYTE	W12
	BYTE		N20     Dn4 
	BYTE	W24
	BYTE		        Cs4 
	BYTE	W24
	BYTE		N11     Bn3 
	BYTE	W12
	BYTE		        An3 
	BYTE	W12
	BYTE		        Gs3 
	BYTE	W12
	BYTE	PEND
// 011   ----------------------------------------
	BYTE		N56     Fs3 
	BYTE	W60
	BYTE		N11     Bn3 
	BYTE	W12
	BYTE		        Cs4 
	BYTE	W12
	BYTE		        An4 
	BYTE	W12
// 012   ----------------------------------------
	BYTE	PATT
	 POIN2	Respite_FINAL_6_004
// 013   ----------------------------------------
	BYTE	PATT
	 POIN2	Respite_FINAL_6_005
// 014   ----------------------------------------
	BYTE	PATT
	 POIN2	Respite_FINAL_6_006
// 015   ----------------------------------------
	BYTE	PATT
	 POIN2	Respite_FINAL_6_007
// 016   ----------------------------------------
	BYTE	PATT
	 POIN2	Respite_FINAL_6_004
// 017   ----------------------------------------
	BYTE	PATT
	 POIN2	Respite_FINAL_6_005
// 018   ----------------------------------------
	BYTE	PATT
	 POIN2	Respite_FINAL_6_010
// 019   ----------------------------------------
	BYTE		N90     Fs3   v100
	BYTE	W96
// 020   ----------------------------------------
Respite_FINAL_6_020:
	BYTE	W12
	BYTE		N11     Gs4   v036
	BYTE	W12
	BYTE		        An4 
	BYTE	W12
	BYTE		        Gs4 
	BYTE	W24
	BYTE		N11   
	BYTE	W12
	BYTE		        An4 
	BYTE	W12
	BYTE		        Gs4 
	BYTE	W12
	BYTE	PEND
// 021   ----------------------------------------
	BYTE	PATT
	 POIN2	Respite_FINAL_6_020
// 022   ----------------------------------------
	BYTE	W12
	BYTE		N11     Fs4   v036
	BYTE	W12
	BYTE		        Cs4 
	BYTE	W12
	BYTE		        Fs4 
	BYTE	W24
	BYTE		N11   
	BYTE	W12
	BYTE		        Cs4 
	BYTE	W12
	BYTE		        Fs4 
	BYTE	W12
// 023   ----------------------------------------
	BYTE	PATT
	 POIN2	Respite_FINAL_6_020
// 024   ----------------------------------------
	BYTE	W12
	BYTE		N11     Fs4   v036
	BYTE	W12
	BYTE		        Gs4 
	BYTE	W12
	BYTE		        Fs4 
	BYTE	W24
	BYTE		N11   
	BYTE	W12
	BYTE		        Gs4 
	BYTE	W12
	BYTE		        Fs4 
	BYTE	W12
// 025   ----------------------------------------
	BYTE	W12
	BYTE		        En4 
	BYTE	W12
	BYTE		        Fs4 
	BYTE	W12
	BYTE		        En4 
	BYTE	W24
	BYTE		N11   
	BYTE	W12
	BYTE		        Fs4 
	BYTE	W12
	BYTE		        En4 
	BYTE	W12
// 026   ----------------------------------------
	BYTE	W12
	BYTE		        Bn3 
	BYTE	W12
	BYTE		        Cs4 
	BYTE	W12
	BYTE		        Dn4 
	BYTE	W24
	BYTE		        Bn3 
	BYTE	W12
	BYTE		        Cs4 
	BYTE	W12
	BYTE		        Dn4 
	BYTE	W12
// 027   ----------------------------------------
	BYTE	W12
	BYTE		        En4 
	BYTE	W12
	BYTE		        Fs4 
	BYTE	W12
	BYTE		        Gs4 
	BYTE	W24
	BYTE		        En4 
	BYTE	W12
	BYTE		        Fs4 
	BYTE	W12
	BYTE		        Gs4 
	BYTE	W12
// 028   ----------------------------------------
	BYTE	W96
// 029   ----------------------------------------
	BYTE	W96
// 030   ----------------------------------------
	BYTE	W96
// 031   ----------------------------------------
	BYTE	W96
// 032   ----------------------------------------
	BYTE		N42   
	BYTE	W48
	BYTE		        Fs4 
	BYTE	W48
// 033   ----------------------------------------
	BYTE		        En4 
	BYTE	W48
	BYTE		        Dn4 
	BYTE	W48
// 034   ----------------------------------------
	BYTE		        Cs4 
	BYTE	W48
	BYTE		        Bn3 
	BYTE	W48
// 035   ----------------------------------------
	BYTE		N20     Cs4 
	BYTE	W24
	BYTE		        Dn4 
	BYTE	W24
	BYTE		N42     En4 
	BYTE	W48
	BYTE	GoTo
	 POIN2	Respite_FINAL_6_B1
Respite_FINAL_6_B2:
// 036   ----------------------------------------
	BYTE	FINE

//**************** Track 7 (Midi-Chn.7) ****************//

Respite_FINAL_7:
	BYTE	KEYSH   Respite_FINAL_key+0
Respite_FINAL_7_B1:
// 000   ----------------------------------------
	BYTE		VOICE   81
	BYTE		MODT    0
	BYTE		LFOS    44
	BYTE		VOL     108*Respite_FINAL_mvl/mxv
	BYTE		PAN     c_v+0
	BYTE	W96
// 001   ----------------------------------------
	BYTE	W96
// 002   ----------------------------------------
	BYTE	W96
// 003   ----------------------------------------
	BYTE	W96
// 004   ----------------------------------------
	BYTE	W96
// 005   ----------------------------------------
	BYTE	W96
// 006   ----------------------------------------
	BYTE	W96
// 007   ----------------------------------------
	BYTE	W96
// 008   ----------------------------------------
	BYTE	W96
// 009   ----------------------------------------
	BYTE	W96
// 010   ----------------------------------------
	BYTE	W96
// 011   ----------------------------------------
	BYTE	W96
// 012   ----------------------------------------
	BYTE	W96
// 013   ----------------------------------------
	BYTE	W96
// 014   ----------------------------------------
	BYTE	W96
// 015   ----------------------------------------
	BYTE	W96
// 016   ----------------------------------------
	BYTE	W96
// 017   ----------------------------------------
	BYTE	W96
// 018   ----------------------------------------
	BYTE	W96
// 019   ----------------------------------------
	BYTE	W48
	BYTE		N12     An3   v127
	BYTE	W12
	BYTE		        Gs3 
	BYTE	W12
	BYTE		        Fs3 
	BYTE	W12
	BYTE		        En3 
	BYTE	W12
// 020   ----------------------------------------
Respite_FINAL_7_020:
	BYTE		N48     Cs3   v127
	BYTE	W48
	BYTE		N12     An2 
	BYTE	W12
	BYTE		        Cs3 
	BYTE	W12
	BYTE		        En3 
	BYTE	W12
	BYTE		        An3 
	BYTE	W12
	BYTE	PEND
// 021   ----------------------------------------
Respite_FINAL_7_021:
	BYTE		N12     An3   v127
	BYTE	W12
	BYTE		N36     Gs3 
	BYTE	W36
	BYTE		N12     An3 
	BYTE	W12
	BYTE		        Gs3 
	BYTE	W12
	BYTE		        Fs3 
	BYTE	W12
	BYTE		        En3 
	BYTE	W12
	BYTE	PEND
// 022   ----------------------------------------
Respite_FINAL_7_022:
	BYTE		N48     Cs3   v127
	BYTE	W48
	BYTE		N12     En3 
	BYTE	W12
	BYTE		        Gs3 
	BYTE	W12
	BYTE		        An3 
	BYTE	W12
	BYTE		        Cs4 
	BYTE	W12
	BYTE	PEND
// 023   ----------------------------------------
	BYTE		N12   
	BYTE	W12
	BYTE		N36     Bn3 
	BYTE	W36
	BYTE		N12     An3 
	BYTE	W12
	BYTE		        Gs3 
	BYTE	W12
	BYTE		        Fs3 
	BYTE	W12
	BYTE		        En3 
	BYTE	W12
// 024   ----------------------------------------
	BYTE	PATT
	 POIN2	Respite_FINAL_7_020
// 025   ----------------------------------------
	BYTE	PATT
	 POIN2	Respite_FINAL_7_021
// 026   ----------------------------------------
	BYTE	PATT
	 POIN2	Respite_FINAL_7_022
// 027   ----------------------------------------
	BYTE		N12     Cs4   v127
	BYTE	W12
	BYTE		N78     Bn3 
	BYTE	W84
// 028   ----------------------------------------
	BYTE	W96
// 029   ----------------------------------------
	BYTE	W96
// 030   ----------------------------------------
	BYTE	W96
// 031   ----------------------------------------
	BYTE	W96
// 032   ----------------------------------------
	BYTE	W96
// 033   ----------------------------------------
	BYTE	W96
// 034   ----------------------------------------
	BYTE	W96
// 035   ----------------------------------------
	BYTE	W96
	BYTE	GoTo
	 POIN2	Respite_FINAL_7_B1
Respite_FINAL_7_B2:
// 036   ----------------------------------------
	BYTE	FINE

//**************** Track 8 (Midi-Chn.8) ****************//

Respite_FINAL_8:
	BYTE	KEYSH   Respite_FINAL_key+0
Respite_FINAL_8_B1:
// 000   ----------------------------------------
	BYTE		VOICE   42
	BYTE		MODT    0
	BYTE		LFOS    44
	BYTE		VOL     127*Respite_FINAL_mvl/mxv
	BYTE		PAN     c_v-10
	BYTE	W96
// 001   ----------------------------------------
	BYTE	W96
// 002   ----------------------------------------
	BYTE	W96
// 003   ----------------------------------------
	BYTE	W96
// 004   ----------------------------------------
	BYTE	W96
// 005   ----------------------------------------
	BYTE	W96
// 006   ----------------------------------------
	BYTE	W96
// 007   ----------------------------------------
	BYTE	W96
// 008   ----------------------------------------
	BYTE	W96
// 009   ----------------------------------------
	BYTE	W96
// 010   ----------------------------------------
	BYTE	W96
// 011   ----------------------------------------
	BYTE	W96
// 012   ----------------------------------------
	BYTE	W96
// 013   ----------------------------------------
	BYTE	W96
// 014   ----------------------------------------
	BYTE	W96
// 015   ----------------------------------------
	BYTE	W96
// 016   ----------------------------------------
	BYTE	W96
// 017   ----------------------------------------
	BYTE	W96
// 018   ----------------------------------------
	BYTE	W96
// 019   ----------------------------------------
	BYTE	W96
// 020   ----------------------------------------
	BYTE	W96
// 021   ----------------------------------------
	BYTE	W96
// 022   ----------------------------------------
	BYTE	W96
// 023   ----------------------------------------
	BYTE	W96
// 024   ----------------------------------------
	BYTE	W96
// 025   ----------------------------------------
	BYTE	W96
// 026   ----------------------------------------
	BYTE	W96
// 027   ----------------------------------------
	BYTE	W96
// 028   ----------------------------------------
Respite_FINAL_8_028:
	BYTE		N48     Cs3   v100
	BYTE	W48
	BYTE		        En3 
	BYTE	W48
	BYTE	PEND
// 029   ----------------------------------------
Respite_FINAL_8_029:
	BYTE		N48     Dn3   v100
	BYTE	W48
	BYTE		        Fs3 
	BYTE	W48
	BYTE	PEND
// 030   ----------------------------------------
	BYTE		        En3 
	BYTE	W48
	BYTE		        Dn3 
	BYTE	W48
// 031   ----------------------------------------
	BYTE		N24     Cs3 
	BYTE	W24
	BYTE		        Bn2 
	BYTE	W24
	BYTE		        An2 
	BYTE	W24
	BYTE		        Bn2 
	BYTE	W24
// 032   ----------------------------------------
	BYTE	PATT
	 POIN2	Respite_FINAL_8_028
// 033   ----------------------------------------
	BYTE	PATT
	 POIN2	Respite_FINAL_8_029
// 034   ----------------------------------------
	BYTE		N48     En3   v100
	BYTE	W48
	BYTE		        Dn3 
	BYTE	W48
// 035   ----------------------------------------
	BYTE		N90     En3 
	BYTE	W96
	BYTE	GoTo
	 POIN2	Respite_FINAL_8_B1
Respite_FINAL_8_B2:
// 036   ----------------------------------------
	BYTE	FINE

//**************** Track 9 (Midi-Chn.14) ****************//

Respite_FINAL_9:
	BYTE	KEYSH   Respite_FINAL_key+0
Respite_FINAL_9_B1:
// 000   ----------------------------------------
	BYTE		VOICE   122
	BYTE		MODT    0
	BYTE		LFOS    44
	BYTE		VOL     127*Respite_FINAL_mvl/mxv
	BYTE		PAN     c_v+0
	BYTE		N11     Fs1   v076
	BYTE	W12
	BYTE		N11   
	BYTE	W12
	BYTE		        Gs1 
	BYTE	W12
	BYTE		        Fs1 
	BYTE	W12
	BYTE		N11   
	BYTE	W12
	BYTE		N11   
	BYTE	W12
	BYTE		        Gs1 
	BYTE	W12
	BYTE		        Fs1 
	BYTE	W12
// 001   ----------------------------------------
Respite_FINAL_9_001:
	BYTE		N11     Fs1   v076
	BYTE	W12
	BYTE		N11   
	BYTE	W12
	BYTE		        Gs1 
	BYTE	W12
	BYTE		        Fs1 
	BYTE	W12
	BYTE		N11   
	BYTE	W12
	BYTE		N11   
	BYTE	W12
	BYTE		        Gs1 
	BYTE	W12
	BYTE		        Fs1 
	BYTE	W12
	BYTE	PEND
// 002   ----------------------------------------
	BYTE	PATT
	 POIN2	Respite_FINAL_9_001
// 003   ----------------------------------------
	BYTE	PATT
	 POIN2	Respite_FINAL_9_001
// 004   ----------------------------------------
Respite_FINAL_9_004:
	BYTE		N11     Cn1   v076
	BYTE		N11     Fs1 
	BYTE	W12
	BYTE		N11   
	BYTE	W12
	BYTE		        Cs1 
	BYTE		N11     Gs1 
	BYTE	W12
	BYTE		        Cn1 
	BYTE		N11     Fs1 
	BYTE	W12
	BYTE		        Cn1 
	BYTE		N11     Fs1 
	BYTE	W12
	BYTE		N11   
	BYTE	W12
	BYTE		        Cs1 
	BYTE		N11     Gs1 
	BYTE	W12
	BYTE		        Fs1 
	BYTE	W12
	BYTE	PEND
// 005   ----------------------------------------
	BYTE	PATT
	 POIN2	Respite_FINAL_9_004
// 006   ----------------------------------------
	BYTE	PATT
	 POIN2	Respite_FINAL_9_004
// 007   ----------------------------------------
	BYTE	PATT
	 POIN2	Respite_FINAL_9_004
// 008   ----------------------------------------
	BYTE	PATT
	 POIN2	Respite_FINAL_9_004
// 009   ----------------------------------------
	BYTE	PATT
	 POIN2	Respite_FINAL_9_004
// 010   ----------------------------------------
	BYTE	PATT
	 POIN2	Respite_FINAL_9_004
// 011   ----------------------------------------
	BYTE		N11     Cn1   v076
	BYTE		N11     Fs1 
	BYTE	W12
	BYTE		N11   
	BYTE	W12
	BYTE		        Cs1 
	BYTE		N11     Gs1 
	BYTE	W12
	BYTE		        Cn1 
	BYTE		N11     Fs1 
	BYTE	W12
	BYTE		        Cn1 
	BYTE		N11     Fs1 
	BYTE	W12
	BYTE		N11   
	BYTE	W12
	BYTE		        Cs1   v100
	BYTE		N11     En1 
	BYTE		N11     Gs1 
	BYTE	W12
	BYTE		N05     En1 
	BYTE		N05     Fs1 
	BYTE	W06
	BYTE		        En1 
	BYTE	W06
// 012   ----------------------------------------
Respite_FINAL_9_012:
	BYTE		N11     Bn0   v100
	BYTE		N11     Cn1 
	BYTE		N11     Fs1 
	BYTE	W12
	BYTE		N11   
	BYTE	W12
	BYTE		        Cs1 
	BYTE		N11     En1 
	BYTE		N11     Gs1 
	BYTE	W12
	BYTE		N05     Fs1 
	BYTE	W06
	BYTE		        Bn0 
	BYTE		N05     Cn1 
	BYTE	W06
	BYTE		N11     Bn0 
	BYTE		N11     Cn1 
	BYTE		N11     Fs1 
	BYTE	W12
	BYTE		        Bn0 
	BYTE		N11     Cn1 
	BYTE		N11     Fs1 
	BYTE	W12
	BYTE		        Cs1 
	BYTE		N11     En1 
	BYTE		N11     Gs1 
	BYTE	W12
	BYTE		        Bn0 
	BYTE		N11     Cn1 
	BYTE		N11     Fs1 
	BYTE	W12
	BYTE	PEND
// 013   ----------------------------------------
	BYTE	PATT
	 POIN2	Respite_FINAL_9_012
// 014   ----------------------------------------
	BYTE	PATT
	 POIN2	Respite_FINAL_9_012
// 015   ----------------------------------------
	BYTE	PATT
	 POIN2	Respite_FINAL_9_012
// 016   ----------------------------------------
	BYTE	PATT
	 POIN2	Respite_FINAL_9_012
// 017   ----------------------------------------
	BYTE	PATT
	 POIN2	Respite_FINAL_9_012
// 018   ----------------------------------------
	BYTE	PATT
	 POIN2	Respite_FINAL_9_012
// 019   ----------------------------------------
	BYTE		N11     Bn0   v100
	BYTE		N11     Cn1 
	BYTE		N11     Fs1 
	BYTE	W12
	BYTE		N11   
	BYTE	W12
	BYTE		        Cs1 
	BYTE		N11     En1 
	BYTE		N11     Gs1 
	BYTE	W12
	BYTE		N05     Fs1 
	BYTE	W06
	BYTE		        Bn0 
	BYTE		N05     Cn1 
	BYTE	W06
	BYTE		N11     Bn0 
	BYTE		N11     Cn1 
	BYTE		N11     Fs1 
	BYTE	W12
	BYTE		        Bn0 
	BYTE		N11     Cn1 
	BYTE		N11     Fs1 
	BYTE	W12
	BYTE		        Cs1 
	BYTE		N11     En1 
	BYTE		N11     Gs1 
	BYTE	W12
	BYTE		N05     Bn0 
	BYTE		N05     Cn1 
	BYTE		N05     Cs1 
	BYTE		N05     En1 
	BYTE		N05     Fs1 
	BYTE	W06
	BYTE		        Cs1 
	BYTE		N05     En1 
	BYTE	W06
// 020   ----------------------------------------
Respite_FINAL_9_020:
	BYTE		N11     Bn0   v100
	BYTE		N11     Cn1 
	BYTE		N11     Fs1 
	BYTE	W12
	BYTE		        Bn0 
	BYTE		N11     Cn1 
	BYTE		N11     Fs1 
	BYTE	W12
	BYTE		        Dn1 
	BYTE		N11     En1 
	BYTE		N11     Gs1 
	BYTE	W12
	BYTE		N05     As1 
	BYTE		N05     Bn2 
	BYTE	W06
	BYTE		        Bn0 
	BYTE		N05     Cn1 
	BYTE	W06
	BYTE		N11     Bn0 
	BYTE		N11     Cn1 
	BYTE		N11     Fs1 
	BYTE	W12
	BYTE		        Bn0 
	BYTE		N11     Cn1 
	BYTE		N11     Fs1 
	BYTE	W12
	BYTE		        Dn1 
	BYTE		N11     En1 
	BYTE		N11     Gs1 
	BYTE	W12
	BYTE		N05     Bn0 
	BYTE		N05     Cn1 
	BYTE		N05     As1 
	BYTE		N05     Bn2 
	BYTE	W06
	BYTE		        Dn1 
	BYTE		N05     En1 
	BYTE	W06
	BYTE	PEND
// 021   ----------------------------------------
	BYTE	PATT
	 POIN2	Respite_FINAL_9_020
// 022   ----------------------------------------
	BYTE	PATT
	 POIN2	Respite_FINAL_9_020
// 023   ----------------------------------------
	BYTE	PATT
	 POIN2	Respite_FINAL_9_020
// 024   ----------------------------------------
	BYTE	PATT
	 POIN2	Respite_FINAL_9_020
// 025   ----------------------------------------
	BYTE	PATT
	 POIN2	Respite_FINAL_9_020
// 026   ----------------------------------------
	BYTE	PATT
	 POIN2	Respite_FINAL_9_020
// 027   ----------------------------------------
	BYTE	PATT
	 POIN2	Respite_FINAL_9_020
// 028   ----------------------------------------
	BYTE	PATT
	 POIN2	Respite_FINAL_9_001
// 029   ----------------------------------------
	BYTE	PATT
	 POIN2	Respite_FINAL_9_001
// 030   ----------------------------------------
	BYTE	PATT
	 POIN2	Respite_FINAL_9_001
// 031   ----------------------------------------
	BYTE	PATT
	 POIN2	Respite_FINAL_9_001
// 032   ----------------------------------------
	BYTE	PATT
	 POIN2	Respite_FINAL_9_004
// 033   ----------------------------------------
	BYTE	PATT
	 POIN2	Respite_FINAL_9_004
// 034   ----------------------------------------
	BYTE	PATT
	 POIN2	Respite_FINAL_9_004
// 035   ----------------------------------------
	BYTE		N11     Cn1   v076
	BYTE		N11     Fs1 
	BYTE	W12
	BYTE		N11   
	BYTE	W12
	BYTE		        Cs1 
	BYTE		N11     Gs1 
	BYTE	W12
	BYTE		        Cn1 
	BYTE		N11     Fs1 
	BYTE	W12
	BYTE		N42     Bn0 
	BYTE		N42     Cn1 
	BYTE		N42     As1 
	BYTE		N42     Bn2 
	BYTE	W48
	BYTE	GoTo
	 POIN2	Respite_FINAL_9_B1
Respite_FINAL_9_B2:
// 036   ----------------------------------------
	BYTE	FINE

//******************************************************//
	ALIGN 4

Respite_FINAL:
	BYTE	9	// NumTrks
	BYTE	0	// NumBlks
	BYTE	Respite_FINAL_pri	// Priority
	BYTE	Respite_FINAL_rev	// Reverb.

	POIN2	Respite_FINAL_grp

	POIN2	Respite_FINAL_1
	POIN2	Respite_FINAL_2
	POIN2	Respite_FINAL_3
	POIN2	Respite_FINAL_4
	POIN2	Respite_FINAL_5
	POIN2	Respite_FINAL_6
	POIN2	Respite_FINAL_7
	POIN2	Respite_FINAL_8
	POIN2	Respite_FINAL_9

	
