//Event file generated from Sappy .s format.
	#include "MPlayDef.event"

	#define	SelwynNotesCut_FINAL_grp  voicegroup000
	#define	SelwynNotesCut_FINAL_pri  0
	#define	SelwynNotesCut_FINAL_rev  0xA0
	#define	SelwynNotesCut_FINAL_mvl  30
	#define	SelwynNotesCut_FINAL_key  0
	#define	SelwynNotesCut_FINAL_tbs  1
	#define	SelwynNotesCut_FINAL_exg  0
	#define	SelwynNotesCut_FINAL_cmp  1

	// .rodata
	//	SelwynNotesCut_FINAL
	ALIGN 4

//**************** Track 1 (Midi-Chn.1) ****************//

SelwynNotesCut_FINAL_1:
	BYTE	KEYSH   SelwynNotesCut_FINAL_key+0
SelwynNotesCut_FINAL_1_B1:
// 000   ----------------------------------------
	BYTE	TEMPO   80*SelwynNotesCut_FINAL_tbs/2
	BYTE		VOICE   61
	BYTE		MODT    0
	BYTE		LFOS    44
	BYTE		PAN     c_v-16
	BYTE		VOL     114*SelwynNotesCut_FINAL_mvl/mxv
	BYTE		N04     Fs1   v127
	BYTE	W06
	BYTE		N04   
	BYTE	W30
	BYTE		N05     Cs1 
	BYTE	W06
	BYTE		        En1 
	BYTE	W06
	BYTE		N04     Fs1 
	BYTE	W06
	BYTE		N04   
	BYTE	W06
	BYTE		        Cs1 
	BYTE	W12
	BYTE		        Fs1 
	BYTE	W12
	BYTE		N11     An1 
	BYTE	W12
// 001   ----------------------------------------
SelwynNotesCut_FINAL_1_001:
	BYTE		N04     Fs1   v127
	BYTE	W06
	BYTE		N04   
	BYTE	W30
	BYTE		N05     Dn1 
	BYTE	W06
	BYTE		        En1 
	BYTE	W06
	BYTE		N04     Fs1 
	BYTE	W06
	BYTE		N04   
	BYTE	W06
	BYTE		        Dn1 
	BYTE	W12
	BYTE		        Fs1 
	BYTE	W12
	BYTE		N11     An1 
	BYTE	W12
	BYTE	PEND
// 002   ----------------------------------------
SelwynNotesCut_FINAL_1_002:
	BYTE		N04     Fs1   v127
	BYTE	W06
	BYTE		N04   
	BYTE	W30
	BYTE		N05     Cs1 
	BYTE	W06
	BYTE		        En1 
	BYTE	W06
	BYTE		N04     Fs1 
	BYTE	W06
	BYTE		N04   
	BYTE	W06
	BYTE		        Cs1 
	BYTE	W12
	BYTE		        Fs1 
	BYTE	W12
	BYTE		N11     An1 
	BYTE	W12
	BYTE	PEND
// 003   ----------------------------------------
	BYTE	PATT
	 POIN2	SelwynNotesCut_FINAL_1_001
// 004   ----------------------------------------
	BYTE	PATT
	 POIN2	SelwynNotesCut_FINAL_1_002
// 005   ----------------------------------------
	BYTE	PATT
	 POIN2	SelwynNotesCut_FINAL_1_001
// 006   ----------------------------------------
	BYTE	PATT
	 POIN2	SelwynNotesCut_FINAL_1_002
// 007   ----------------------------------------
	BYTE	PATT
	 POIN2	SelwynNotesCut_FINAL_1_001
// 008   ----------------------------------------
SelwynNotesCut_FINAL_1_008:
	BYTE		N04     Dn1   v127
	BYTE	W06
	BYTE		N04   
	BYTE	W30
	BYTE		N05     Bn0 
	BYTE	W06
	BYTE		        Cs1 
	BYTE	W06
	BYTE		        Dn1 
	BYTE	W06
	BYTE		N04   
	BYTE	W06
	BYTE		        Bn0 
	BYTE	W12
	BYTE		        Dn1 
	BYTE	W12
	BYTE		N11     Fs1 
	BYTE	W12
	BYTE	PEND
// 009   ----------------------------------------
SelwynNotesCut_FINAL_1_009:
	BYTE		N04     Dn1   v127
	BYTE	W06
	BYTE		N04   
	BYTE	W30
	BYTE		N05     Bn0 
	BYTE	W06
	BYTE		        Cs1 
	BYTE	W06
	BYTE		        Dn1 
	BYTE	W06
	BYTE		N04   
	BYTE	W06
	BYTE		        Bn0 
	BYTE	W12
	BYTE		        Dn1 
	BYTE	W12
	BYTE		N11     Gs1 
	BYTE	W12
	BYTE	PEND
// 010   ----------------------------------------
	BYTE		N04     En1 
	BYTE	W06
	BYTE		N04   
	BYTE	W30
	BYTE		N05     Cs1 
	BYTE	W06
	BYTE		        En1 
	BYTE	W06
	BYTE		        An1 
	BYTE	W06
	BYTE		N04   
	BYTE	W06
	BYTE		        En1 
	BYTE	W12
	BYTE		        An1 
	BYTE	W12
	BYTE		N11     Cs2 
	BYTE	W12
// 011   ----------------------------------------
	BYTE		N04     En1 
	BYTE	W06
	BYTE		N04   
	BYTE	W30
	BYTE		N05     Cs1 
	BYTE	W06
	BYTE		        En1 
	BYTE	W06
	BYTE		N04     Gs1 
	BYTE	W06
	BYTE		N04   
	BYTE	W06
	BYTE		        En1 
	BYTE	W12
	BYTE		        Gs1 
	BYTE	W12
	BYTE		N11     Cs2 
	BYTE	W12
// 012   ----------------------------------------
	BYTE	PATT
	 POIN2	SelwynNotesCut_FINAL_1_008
// 013   ----------------------------------------
	BYTE	PATT
	 POIN2	SelwynNotesCut_FINAL_1_009
// 014   ----------------------------------------
SelwynNotesCut_FINAL_1_014:
	BYTE		N04     Fn1   v127
	BYTE	W06
	BYTE		N04   
	BYTE	W30
	BYTE		N05     Cs1 
	BYTE	W06
	BYTE		        Fn1 
	BYTE	W06
	BYTE		N04     Gs1 
	BYTE	W06
	BYTE		N04   
	BYTE	W06
	BYTE		        Fn1 
	BYTE	W12
	BYTE		        Gs1 
	BYTE	W12
	BYTE		N11     Cs2 
	BYTE	W12
	BYTE	PEND
// 015   ----------------------------------------
	BYTE	PATT
	 POIN2	SelwynNotesCut_FINAL_1_014
// 016   ----------------------------------------
SelwynNotesCut_FINAL_1_016:
	BYTE		N11     Dn1   v127
	BYTE	W12
	BYTE		        Fs1 
	BYTE	W12
	BYTE		        An1 
	BYTE	W12
	BYTE		        Fs1 
	BYTE	W12
	BYTE		        Dn1 
	BYTE	W12
	BYTE		        Fs1 
	BYTE	W12
	BYTE		        An1 
	BYTE	W12
	BYTE		        Fs1 
	BYTE	W12
	BYTE	PEND
// 017   ----------------------------------------
SelwynNotesCut_FINAL_1_017:
	BYTE		N11     En1   v127
	BYTE	W12
	BYTE		        Gs1 
	BYTE	W12
	BYTE		        Bn1 
	BYTE	W12
	BYTE		        Gs1 
	BYTE	W12
	BYTE		        En1 
	BYTE	W12
	BYTE		        Gs1 
	BYTE	W12
	BYTE		        Bn1 
	BYTE	W12
	BYTE		        Gs1 
	BYTE	W12
	BYTE	PEND
// 018   ----------------------------------------
SelwynNotesCut_FINAL_1_018:
	BYTE		N11     Cs1   v127
	BYTE	W12
	BYTE		        En1 
	BYTE	W12
	BYTE		        An1 
	BYTE	W12
	BYTE		        En1 
	BYTE	W12
	BYTE		        Cs1 
	BYTE	W12
	BYTE		        En1 
	BYTE	W12
	BYTE		        An1 
	BYTE	W12
	BYTE		        En1 
	BYTE	W12
	BYTE	PEND
// 019   ----------------------------------------
SelwynNotesCut_FINAL_1_019:
	BYTE		N11     Cs1   v127
	BYTE	W12
	BYTE		        Fs1 
	BYTE	W12
	BYTE		        An1 
	BYTE	W12
	BYTE		        Fs1 
	BYTE	W12
	BYTE		        Cs1 
	BYTE	W12
	BYTE		        Fs1 
	BYTE	W12
	BYTE		        An1 
	BYTE	W12
	BYTE		        Fs1 
	BYTE	W12
	BYTE	PEND
// 020   ----------------------------------------
	BYTE	PATT
	 POIN2	SelwynNotesCut_FINAL_1_016
// 021   ----------------------------------------
	BYTE	PATT
	 POIN2	SelwynNotesCut_FINAL_1_017
// 022   ----------------------------------------
	BYTE	PATT
	 POIN2	SelwynNotesCut_FINAL_1_018
// 023   ----------------------------------------
	BYTE	PATT
	 POIN2	SelwynNotesCut_FINAL_1_019
// 024   ----------------------------------------
	BYTE	PATT
	 POIN2	SelwynNotesCut_FINAL_1_016
// 025   ----------------------------------------
	BYTE	PATT
	 POIN2	SelwynNotesCut_FINAL_1_017
// 026   ----------------------------------------
	BYTE	PATT
	 POIN2	SelwynNotesCut_FINAL_1_018
// 027   ----------------------------------------
	BYTE	PATT
	 POIN2	SelwynNotesCut_FINAL_1_019
// 028   ----------------------------------------
	BYTE	PATT
	 POIN2	SelwynNotesCut_FINAL_1_016
// 029   ----------------------------------------
	BYTE	PATT
	 POIN2	SelwynNotesCut_FINAL_1_017
// 030   ----------------------------------------
	BYTE		N11     An1   v127
	BYTE	W12
	BYTE		        Fs1 
	BYTE	W12
	BYTE		        Cs1 
	BYTE	W12
	BYTE		        Fs1 
	BYTE	W12
	BYTE		        An1 
	BYTE	W12
	BYTE		        Fs1 
	BYTE	W12
	BYTE		        Cs1 
	BYTE	W12
	BYTE		        Fs1 
	BYTE	W12
// 031   ----------------------------------------
	BYTE		        Gs1 
	BYTE	W12
	BYTE		        Fs1 
	BYTE	W12
	BYTE		        En1 
	BYTE	W12
	BYTE		        Bn0 
	BYTE	W12
	BYTE		N42     En1 
	BYTE	W44
	BYTE	W03
	BYTE	GoTo
	 POIN2	SelwynNotesCut_FINAL_1_B1
SelwynNotesCut_FINAL_1_B2:
	BYTE	FINE

//**************** Track 2 (Midi-Chn.2) ****************//

SelwynNotesCut_FINAL_2:
	BYTE	KEYSH   SelwynNotesCut_FINAL_key+0
SelwynNotesCut_FINAL_2_B1:
// 000   ----------------------------------------
	BYTE		VOICE   52
	BYTE		MODT    0
	BYTE		LFOS    44
	BYTE		PAN     c_v+14
	BYTE		VOL     127*SelwynNotesCut_FINAL_mvl/mxv
	BYTE		N90     Gs3   v127
	BYTE	W96
// 001   ----------------------------------------
SelwynNotesCut_FINAL_2_001:
	BYTE	W48
	BYTE		N12     Fs3   v127
	BYTE	W12
	BYTE		        Gs3 
	BYTE	W12
	BYTE		        An3 
	BYTE	W12
	BYTE		        Bn3 
	BYTE	W12
	BYTE	PEND
// 002   ----------------------------------------
	BYTE		N36     Gs3 
	BYTE	W36
	BYTE		N12     En3 
	BYTE	W12
	BYTE		N90     Cs3 
	BYTE	W48
// 003   ----------------------------------------
	BYTE	W84
	BYTE		N12     An3 
	BYTE	W12
// 004   ----------------------------------------
	BYTE		N90     Gs3 
	BYTE	W96
// 005   ----------------------------------------
	BYTE	PATT
	 POIN2	SelwynNotesCut_FINAL_2_001
// 006   ----------------------------------------
	BYTE		N36     Cs4   v127
	BYTE	W36
	BYTE		N12     Fs3 
	BYTE	W12
	BYTE		N90     Cs4 
	BYTE	W48
// 007   ----------------------------------------
SelwynNotesCut_FINAL_2_007:
	BYTE	W48
	BYTE		N24     Dn4   v127
	BYTE	W24
	BYTE		        Cs4 
	BYTE	W24
	BYTE	PEND
// 008   ----------------------------------------
	BYTE		TIE     Bn3 
	BYTE	W96
// 009   ----------------------------------------
	BYTE	W48
	BYTE		EOT   
	BYTE		N12     Gs3 
	BYTE	W12
	BYTE		        An3 
	BYTE	W12
	BYTE		        Bn3 
	BYTE	W12
	BYTE		        Gs3 
	BYTE	W12
// 010   ----------------------------------------
	BYTE		N36     An3 
	BYTE	W36
	BYTE		N12     Bn3 
	BYTE	W12
	BYTE		N90     Cs4 
	BYTE	W48
// 011   ----------------------------------------
	BYTE	PATT
	 POIN2	SelwynNotesCut_FINAL_2_007
// 012   ----------------------------------------
	BYTE		TIE     Bn3   v127
	BYTE	W96
// 013   ----------------------------------------
	BYTE	W48
	BYTE		EOT   
	BYTE		N12   
	BYTE	W12
	BYTE		        Cs4 
	BYTE	W12
	BYTE		        Dn4 
	BYTE	W12
	BYTE		        Fs4 
	BYTE	W12
// 014   ----------------------------------------
	BYTE		N36     Fn4 
	BYTE	W36
	BYTE		N12     Dn4 
	BYTE	W12
	BYTE		TIE     Cs4 
	BYTE	W48
// 015   ----------------------------------------
	BYTE	W90
	BYTE		EOT   
	BYTE	W06
// 016   ----------------------------------------
	BYTE		N48     Fs3 
	BYTE	W48
	BYTE		N12     Cs4 
	BYTE	W12
	BYTE		        Bn3 
	BYTE	W12
	BYTE		        An3 
	BYTE	W12
	BYTE		N60     Bn3 
	BYTE	W12
// 017   ----------------------------------------
	BYTE	W48
	BYTE		N12     Gs3 
	BYTE	W12
	BYTE		        An3 
	BYTE	W12
	BYTE		        Bn3 
	BYTE	W12
	BYTE		        En4 
	BYTE	W12
// 018   ----------------------------------------
	BYTE		N48     Cs4 
	BYTE	W48
	BYTE		N12     An3 
	BYTE	W12
	BYTE		        Gs3 
	BYTE	W12
	BYTE		        An3 
	BYTE	W12
	BYTE		N60     Bn3 
	BYTE	W12
// 019   ----------------------------------------
	BYTE	W48
	BYTE		N48     Cs4 
	BYTE	W48
// 020   ----------------------------------------
	BYTE		        An3 
	BYTE	W48
	BYTE		N12   
	BYTE	W12
	BYTE		        Gs3 
	BYTE	W12
	BYTE		        Fs3 
	BYTE	W12
	BYTE		N60     Gs3 
	BYTE	W12
// 021   ----------------------------------------
	BYTE	W48
	BYTE		N48     An3 
	BYTE	W48
// 022   ----------------------------------------
	BYTE		        Fs3 
	BYTE	W48
	BYTE		TIE     Cs3 
	BYTE	W48
// 023   ----------------------------------------
	BYTE	W90
	BYTE		EOT   
	BYTE	W06
// 024   ----------------------------------------
	BYTE		N36     Cs4 
	BYTE	W36
	BYTE		        An3 
	BYTE	W36
	BYTE		N24     Bn3 
	BYTE	W24
// 025   ----------------------------------------
	BYTE		N12     Cs4 
	BYTE	W12
	BYTE		        Dn4 
	BYTE	W12
	BYTE		        Cs4 
	BYTE	W12
	BYTE		N24     Bn3 
	BYTE	W24
	BYTE		N12     An3 
	BYTE	W12
	BYTE		        Gs3 
	BYTE	W12
	BYTE		        An3 
	BYTE	W12
// 026   ----------------------------------------
	BYTE		N36     Bn3 
	BYTE	W36
	BYTE		        En3 
	BYTE	W36
	BYTE		N24     An3 
	BYTE	W24
// 027   ----------------------------------------
	BYTE		N48     Gs3 
	BYTE	W48
	BYTE		        En3 
	BYTE	W48
// 028   ----------------------------------------
	BYTE		N12     Fs3 
	BYTE	W12
	BYTE		        En3 
	BYTE	W12
	BYTE		        Fs3 
	BYTE	W12
	BYTE		N60     An3 
	BYTE	W60
// 029   ----------------------------------------
	BYTE		N12     Bn3 
	BYTE	W12
	BYTE		        Gs3 
	BYTE	W12
	BYTE		        Bn3 
	BYTE	W12
	BYTE		N24     Dn4 
	BYTE	W24
	BYTE		N12   
	BYTE	W12
	BYTE		        Cs4 
	BYTE	W12
	BYTE		        Bn3 
	BYTE	W12
// 030   ----------------------------------------
	BYTE		N96     An3 
	BYTE	W96
// 031   ----------------------------------------
	BYTE		N90     Gs3 
	BYTE	W92
	BYTE	W03
	BYTE	GoTo
	 POIN2	SelwynNotesCut_FINAL_2_B1
SelwynNotesCut_FINAL_2_B2:
	BYTE	FINE

//**************** Track 3 (Midi-Chn.3) ****************//

SelwynNotesCut_FINAL_3:
	BYTE	KEYSH   SelwynNotesCut_FINAL_key+0
SelwynNotesCut_FINAL_3_B1:
// 000   ----------------------------------------
	BYTE		VOICE   127
	BYTE		MODT    0
	BYTE		LFOS    44
	BYTE		PAN     c_v-1
	BYTE		VOL     119*SelwynNotesCut_FINAL_mvl/mxv
	BYTE		N20     Cn1   v127
	BYTE		N12     En1   v044
	BYTE		TIE     En2   v127
	BYTE		N96     An2 
	BYTE	W24
	BYTE		N20     Cn1 
	BYTE		N20     Cs1 
	BYTE	W24
	BYTE		        Cn1 
	BYTE	W24
	BYTE		N20   
	BYTE		N20     Cs1 
	BYTE	W24
// 001   ----------------------------------------
	BYTE		        Cn1 
	BYTE	W06
	BYTE		EOT     En2 
	BYTE	W18
	BYTE		N20     Cn1 
	BYTE		N20     Cs1 
	BYTE	W24
	BYTE		        Cn1 
	BYTE	W24
	BYTE		N20   
	BYTE		N20     Cs1 
	BYTE	W24
// 002   ----------------------------------------
SelwynNotesCut_FINAL_3_002:
	BYTE		N20     Cn1   v127
	BYTE	W24
	BYTE		N20   
	BYTE		N20     Cs1 
	BYTE	W24
	BYTE		        Cn1 
	BYTE	W24
	BYTE		N20   
	BYTE		N20     Cs1 
	BYTE	W24
	BYTE	PEND
// 003   ----------------------------------------
	BYTE	PATT
	 POIN2	SelwynNotesCut_FINAL_3_002
// 004   ----------------------------------------
	BYTE	PATT
	 POIN2	SelwynNotesCut_FINAL_3_002
// 005   ----------------------------------------
	BYTE	PATT
	 POIN2	SelwynNotesCut_FINAL_3_002
// 006   ----------------------------------------
	BYTE	PATT
	 POIN2	SelwynNotesCut_FINAL_3_002
// 007   ----------------------------------------
	BYTE	PATT
	 POIN2	SelwynNotesCut_FINAL_3_002
// 008   ----------------------------------------
	BYTE	PATT
	 POIN2	SelwynNotesCut_FINAL_3_002
// 009   ----------------------------------------
	BYTE	PATT
	 POIN2	SelwynNotesCut_FINAL_3_002
// 010   ----------------------------------------
	BYTE	PATT
	 POIN2	SelwynNotesCut_FINAL_3_002
// 011   ----------------------------------------
	BYTE	PATT
	 POIN2	SelwynNotesCut_FINAL_3_002
// 012   ----------------------------------------
	BYTE	PATT
	 POIN2	SelwynNotesCut_FINAL_3_002
// 013   ----------------------------------------
	BYTE	PATT
	 POIN2	SelwynNotesCut_FINAL_3_002
// 014   ----------------------------------------
	BYTE	PATT
	 POIN2	SelwynNotesCut_FINAL_3_002
// 015   ----------------------------------------
	BYTE		N20     Cn1   v127
	BYTE	W24
	BYTE		N20   
	BYTE		N20     Cs1 
	BYTE	W24
	BYTE		        Cn1 
	BYTE	W24
	BYTE		N11   
	BYTE		N11     Cs1 
	BYTE		N11     En1 
	BYTE	W12
	BYTE		N05   
	BYTE	W06
	BYTE		N05   
	BYTE	W06
// 016   ----------------------------------------
	BYTE		        Bn0 
	BYTE		N05     Cn1 
	BYTE		N05     Fs1 
	BYTE		N24     Cs2 
	BYTE		N24     An2 
	BYTE	W06
	BYTE		N05     Fs1 
	BYTE	W06
	BYTE		N05   
	BYTE	W06
	BYTE		N05   
	BYTE	W06
	BYTE		        Bn0 
	BYTE		N05     Cn1 
	BYTE		N05     En1 
	BYTE		N05     Gs1 
	BYTE		N05     Cs2 
	BYTE	W06
	BYTE		        Fs1 
	BYTE	W06
	BYTE		N05   
	BYTE	W06
	BYTE		N05   
	BYTE	W06
	BYTE		        Bn0 
	BYTE		N05     Cn1 
	BYTE		N05     Fs1 
	BYTE	W06
	BYTE		        Gs1 
	BYTE	W06
	BYTE		        As1 
	BYTE	W06
	BYTE		        Gs1 
	BYTE	W06
	BYTE		        Bn0 
	BYTE		N05     Cn1 
	BYTE		N05     En1 
	BYTE		N05     Fs1 
	BYTE		N05     Cs2 
	BYTE	W06
	BYTE		        Gs1 
	BYTE	W06
	BYTE		        As1 
	BYTE	W06
	BYTE		        Gs1 
	BYTE	W06
// 017   ----------------------------------------
SelwynNotesCut_FINAL_3_017:
	BYTE		N05     Bn0   v127
	BYTE		N05     Cn1 
	BYTE		N05     Fs1 
	BYTE	W06
	BYTE		N05   
	BYTE	W06
	BYTE		N05   
	BYTE	W06
	BYTE		N05   
	BYTE	W06
	BYTE		        Bn0 
	BYTE		N05     Cn1 
	BYTE		N05     En1 
	BYTE		N05     Gs1 
	BYTE		N05     Cs2 
	BYTE	W06
	BYTE		        Fs1 
	BYTE	W06
	BYTE		N05   
	BYTE	W06
	BYTE		N05   
	BYTE	W06
	BYTE		        Bn0 
	BYTE		N05     Cn1 
	BYTE		N05     Fs1 
	BYTE	W06
	BYTE		        Gs1 
	BYTE	W06
	BYTE		        As1 
	BYTE	W06
	BYTE		        Bn0 
	BYTE		N05     Cn1 
	BYTE		N05     Gs1 
	BYTE	W06
	BYTE		        Bn0 
	BYTE		N05     Cn1 
	BYTE		N05     En1 
	BYTE		N05     Fs1 
	BYTE		N05     Cs2 
	BYTE	W06
	BYTE		        Gs1 
	BYTE	W06
	BYTE		        Bn0 
	BYTE		N05     Cn1 
	BYTE		N05     As1 
	BYTE	W06
	BYTE		        Gs1 
	BYTE	W06
	BYTE	PEND
// 018   ----------------------------------------
SelwynNotesCut_FINAL_3_018:
	BYTE		N05     Bn0   v127
	BYTE		N05     Cn1 
	BYTE		N05     Fs1 
	BYTE	W06
	BYTE		N05   
	BYTE	W06
	BYTE		N05   
	BYTE	W06
	BYTE		N05   
	BYTE	W06
	BYTE		        Bn0 
	BYTE		N05     Cn1 
	BYTE		N05     En1 
	BYTE		N05     Gs1 
	BYTE		N05     Cs2 
	BYTE	W06
	BYTE		        Fs1 
	BYTE	W06
	BYTE		N05   
	BYTE	W06
	BYTE		N05   
	BYTE	W06
	BYTE		        Bn0 
	BYTE		N05     Cn1 
	BYTE		N05     Fs1 
	BYTE	W06
	BYTE		        Gs1 
	BYTE	W06
	BYTE		        As1 
	BYTE	W06
	BYTE		        Gs1 
	BYTE	W06
	BYTE		        Bn0 
	BYTE		N05     Cn1 
	BYTE		N05     En1 
	BYTE		N05     Fs1 
	BYTE		N05     Cs2 
	BYTE	W06
	BYTE		        Gs1 
	BYTE	W06
	BYTE		        As1 
	BYTE	W06
	BYTE		        Gs1 
	BYTE	W06
	BYTE	PEND
// 019   ----------------------------------------
SelwynNotesCut_FINAL_3_019:
	BYTE		N05     Bn0   v127
	BYTE		N05     Cn1 
	BYTE		N05     Fs1 
	BYTE	W06
	BYTE		N05   
	BYTE	W06
	BYTE		N05   
	BYTE	W06
	BYTE		N05   
	BYTE	W06
	BYTE		        Bn0 
	BYTE		N05     Cn1 
	BYTE		N05     En1 
	BYTE		N05     Gs1 
	BYTE		N05     Cs2 
	BYTE	W06
	BYTE		        Fs1 
	BYTE	W06
	BYTE		N05   
	BYTE	W06
	BYTE		N05   
	BYTE	W06
	BYTE		        Bn0 
	BYTE		N05     Cn1 
	BYTE		N05     Fs1 
	BYTE	W06
	BYTE		        Gs1 
	BYTE	W06
	BYTE		        En1 
	BYTE		N05     As1 
	BYTE		N05     Cs2 
	BYTE	W06
	BYTE		        Gs1 
	BYTE	W06
	BYTE		        Bn0 
	BYTE		N05     Cn1 
	BYTE		N05     En1 
	BYTE		N05     Fs1 
	BYTE		N05     Cs2 
	BYTE	W06
	BYTE		        Gs1 
	BYTE	W06
	BYTE		        En1 
	BYTE		N05     As1 
	BYTE		N05     Cs2 
	BYTE	W06
	BYTE		        Gs1 
	BYTE	W06
	BYTE	PEND
// 020   ----------------------------------------
	BYTE	PATT
	 POIN2	SelwynNotesCut_FINAL_3_018
// 021   ----------------------------------------
	BYTE	PATT
	 POIN2	SelwynNotesCut_FINAL_3_017
// 022   ----------------------------------------
	BYTE	PATT
	 POIN2	SelwynNotesCut_FINAL_3_018
// 023   ----------------------------------------
	BYTE	PATT
	 POIN2	SelwynNotesCut_FINAL_3_019
// 024   ----------------------------------------
	BYTE	PATT
	 POIN2	SelwynNotesCut_FINAL_3_018
// 025   ----------------------------------------
	BYTE	PATT
	 POIN2	SelwynNotesCut_FINAL_3_017
// 026   ----------------------------------------
	BYTE	PATT
	 POIN2	SelwynNotesCut_FINAL_3_018
// 027   ----------------------------------------
	BYTE	PATT
	 POIN2	SelwynNotesCut_FINAL_3_019
// 028   ----------------------------------------
	BYTE	PATT
	 POIN2	SelwynNotesCut_FINAL_3_018
// 029   ----------------------------------------
	BYTE	PATT
	 POIN2	SelwynNotesCut_FINAL_3_017
// 030   ----------------------------------------
	BYTE		N05     Bn0   v127
	BYTE		N05     Cn1 
	BYTE		N05     Fs1 
	BYTE	W06
	BYTE		N05   
	BYTE	W06
	BYTE		N05   
	BYTE	W06
	BYTE		N05   
	BYTE	W06
	BYTE		        Bn0 
	BYTE		N05     Cn1 
	BYTE		N05     En1 
	BYTE		N05     Gs1 
	BYTE		N05     Cs2 
	BYTE	W06
	BYTE		        Fs1 
	BYTE	W06
	BYTE		N05   
	BYTE	W06
	BYTE		N05   
	BYTE	W06
	BYTE		        Bn0 
	BYTE		N05     Cn1 
	BYTE		N05     Fs1 
	BYTE	W06
	BYTE		        Gs1 
	BYTE	W06
	BYTE		        En1 
	BYTE		N05     As1 
	BYTE		N05     Cs2 
	BYTE	W06
	BYTE		        Gs1 
	BYTE	W06
	BYTE		        Bn0 
	BYTE		N05     Cn1 
	BYTE		N05     En1 
	BYTE		N05     Fs1 
	BYTE		N05     Cs2 
	BYTE		N05     Dn2 
	BYTE	W06
	BYTE		        En1 
	BYTE		N05     Gs1 
	BYTE		N05     Cn2 
	BYTE		N05     Cs2 
	BYTE	W06
	BYTE		        En1 
	BYTE		N05     As1 
	BYTE		N05     Bn1 
	BYTE		N05     Cs2 
	BYTE	W06
	BYTE		        En1 
	BYTE		N05     Gs1 
	BYTE		N05     An1 
	BYTE		N05     Cs2 
	BYTE	W06
// 031   ----------------------------------------
	BYTE		N20     Fs1 
	BYTE		N20     An1 
	BYTE		N20     Bn1 
	BYTE		N20     Cn2 
	BYTE		N20     Dn2 
	BYTE		N20     An2 
	BYTE	W24
	BYTE		        Fs1 
	BYTE	W24
	BYTE		N20   
	BYTE	W24
	BYTE		N20   
	BYTE	W23
	BYTE	GoTo
	 POIN2	SelwynNotesCut_FINAL_3_B1
SelwynNotesCut_FINAL_3_B2:
	BYTE	FINE

//**************** Track 4 (Midi-Chn.4) ****************//

SelwynNotesCut_FINAL_4:
	BYTE	KEYSH   SelwynNotesCut_FINAL_key+0
SelwynNotesCut_FINAL_4_B1:
// 000   ----------------------------------------
	BYTE		VOICE   10
	BYTE		MODT    0
	BYTE		LFOS    44
	BYTE		PAN     c_v+42
	BYTE		VOL     114*SelwynNotesCut_FINAL_mvl/mxv
	BYTE	W12
	BYTE		N11     Cs5   v076
	BYTE	W12
	BYTE		        Fs5 
	BYTE	W12
	BYTE		        Cs5 
	BYTE	W24
	BYTE		N11   
	BYTE	W12
	BYTE		        Gs5 
	BYTE	W12
	BYTE		        Cs5 
	BYTE	W12
// 001   ----------------------------------------
SelwynNotesCut_FINAL_4_001:
	BYTE	W12
	BYTE		N11     Dn5   v076
	BYTE	W12
	BYTE		        Fs5 
	BYTE	W12
	BYTE		        Dn5 
	BYTE	W24
	BYTE		N11   
	BYTE	W12
	BYTE		        An5 
	BYTE	W12
	BYTE		        Dn5 
	BYTE	W12
	BYTE	PEND
// 002   ----------------------------------------
SelwynNotesCut_FINAL_4_002:
	BYTE	W12
	BYTE		N11     Cs5   v076
	BYTE	W12
	BYTE		        Fs5 
	BYTE	W12
	BYTE		        Cs5 
	BYTE	W24
	BYTE		N11   
	BYTE	W12
	BYTE		        Gs5 
	BYTE	W12
	BYTE		        Cs5 
	BYTE	W12
	BYTE	PEND
// 003   ----------------------------------------
	BYTE	PATT
	 POIN2	SelwynNotesCut_FINAL_4_001
// 004   ----------------------------------------
	BYTE	PATT
	 POIN2	SelwynNotesCut_FINAL_4_002
// 005   ----------------------------------------
	BYTE	PATT
	 POIN2	SelwynNotesCut_FINAL_4_001
// 006   ----------------------------------------
	BYTE	PATT
	 POIN2	SelwynNotesCut_FINAL_4_002
// 007   ----------------------------------------
	BYTE	PATT
	 POIN2	SelwynNotesCut_FINAL_4_001
// 008   ----------------------------------------
SelwynNotesCut_FINAL_4_008:
	BYTE	W12
	BYTE		N11     Bn4   v076
	BYTE	W12
	BYTE		        Dn5 
	BYTE	W12
	BYTE		        Bn4 
	BYTE	W24
	BYTE		        Dn5 
	BYTE	W12
	BYTE		        Fs5 
	BYTE	W12
	BYTE		        Dn5 
	BYTE	W12
	BYTE	PEND
// 009   ----------------------------------------
SelwynNotesCut_FINAL_4_009:
	BYTE	W12
	BYTE		N11     Bn4   v076
	BYTE	W12
	BYTE		        Dn5 
	BYTE	W12
	BYTE		        Bn4 
	BYTE	W24
	BYTE		        Dn5 
	BYTE	W12
	BYTE		        Gs5 
	BYTE	W12
	BYTE		        Dn5 
	BYTE	W12
	BYTE	PEND
// 010   ----------------------------------------
	BYTE	W12
	BYTE		        An4 
	BYTE	W12
	BYTE		        Cs5 
	BYTE	W12
	BYTE		        An4 
	BYTE	W24
	BYTE		        Cs5 
	BYTE	W12
	BYTE		        En5 
	BYTE	W12
	BYTE		        Cs5 
	BYTE	W12
// 011   ----------------------------------------
	BYTE	W12
	BYTE		        Gs4 
	BYTE	W12
	BYTE		        Cs5 
	BYTE	W12
	BYTE		        Gs4 
	BYTE	W24
	BYTE		        Cs5 
	BYTE	W12
	BYTE		        En5 
	BYTE	W12
	BYTE		        Cs5 
	BYTE	W12
// 012   ----------------------------------------
	BYTE	PATT
	 POIN2	SelwynNotesCut_FINAL_4_008
// 013   ----------------------------------------
	BYTE	PATT
	 POIN2	SelwynNotesCut_FINAL_4_009
// 014   ----------------------------------------
SelwynNotesCut_FINAL_4_014:
	BYTE	W12
	BYTE		N11     Gs4   v076
	BYTE	W12
	BYTE		        Cs5 
	BYTE	W12
	BYTE		        Gs4 
	BYTE	W24
	BYTE		        Cs5 
	BYTE	W12
	BYTE		        Fn5 
	BYTE	W12
	BYTE		        Cs5 
	BYTE	W12
	BYTE	PEND
// 015   ----------------------------------------
	BYTE	PATT
	 POIN2	SelwynNotesCut_FINAL_4_014
// 016   ----------------------------------------
SelwynNotesCut_FINAL_4_016:
	BYTE	W06
	BYTE		N05     Dn4   v076
	BYTE	W06
	BYTE		        Fs4 
	BYTE	W06
	BYTE		        An4 
	BYTE	W06
	BYTE		        Cs5 
	BYTE	W06
	BYTE		        An4 
	BYTE	W06
	BYTE		        Fs4 
	BYTE	W06
	BYTE		        Dn4 
	BYTE	W12
	BYTE		N05   
	BYTE	W06
	BYTE		        Fs4 
	BYTE	W06
	BYTE		        An4 
	BYTE	W06
	BYTE		        Cs5 
	BYTE	W06
	BYTE		        An4 
	BYTE	W06
	BYTE		        Fs4 
	BYTE	W06
	BYTE		        Dn4 
	BYTE	W06
	BYTE	PEND
// 017   ----------------------------------------
SelwynNotesCut_FINAL_4_017:
	BYTE	W06
	BYTE		N05     En4   v076
	BYTE	W06
	BYTE		        Gs4 
	BYTE	W06
	BYTE		        Bn4 
	BYTE	W06
	BYTE		        Dn5 
	BYTE	W06
	BYTE		        Bn4 
	BYTE	W06
	BYTE		        Gs4 
	BYTE	W06
	BYTE		        En4 
	BYTE	W12
	BYTE		N05   
	BYTE	W06
	BYTE		        Gs4 
	BYTE	W06
	BYTE		        Bn4 
	BYTE	W06
	BYTE		        Dn5 
	BYTE	W06
	BYTE		        Bn4 
	BYTE	W06
	BYTE		        Gs4 
	BYTE	W06
	BYTE		        En4 
	BYTE	W06
	BYTE	PEND
// 018   ----------------------------------------
SelwynNotesCut_FINAL_4_018:
	BYTE	W06
	BYTE		N05     Cs4   v076
	BYTE	W06
	BYTE		        En4 
	BYTE	W06
	BYTE		        An4 
	BYTE	W06
	BYTE		        Cs5 
	BYTE	W06
	BYTE		        An4 
	BYTE	W06
	BYTE		        En4 
	BYTE	W06
	BYTE		        Cs4 
	BYTE	W12
	BYTE		N05   
	BYTE	W06
	BYTE		        En4 
	BYTE	W06
	BYTE		        An4 
	BYTE	W06
	BYTE		        Cs5 
	BYTE	W06
	BYTE		        An4 
	BYTE	W06
	BYTE		        En4 
	BYTE	W06
	BYTE		        Cs4 
	BYTE	W06
	BYTE	PEND
// 019   ----------------------------------------
SelwynNotesCut_FINAL_4_019:
	BYTE	W06
	BYTE		N05     Cs4   v076
	BYTE	W06
	BYTE		        Fs4 
	BYTE	W06
	BYTE		        An4 
	BYTE	W06
	BYTE		        Cs5 
	BYTE	W06
	BYTE		        An4 
	BYTE	W06
	BYTE		        Fs4 
	BYTE	W06
	BYTE		        Cs4 
	BYTE	W12
	BYTE		N05   
	BYTE	W06
	BYTE		        Fs4 
	BYTE	W06
	BYTE		        An4 
	BYTE	W06
	BYTE		        Cs5 
	BYTE	W06
	BYTE		        An4 
	BYTE	W06
	BYTE		        Fs4 
	BYTE	W06
	BYTE		        Cs4 
	BYTE	W06
	BYTE	PEND
// 020   ----------------------------------------
	BYTE	PATT
	 POIN2	SelwynNotesCut_FINAL_4_016
// 021   ----------------------------------------
	BYTE	PATT
	 POIN2	SelwynNotesCut_FINAL_4_017
// 022   ----------------------------------------
	BYTE	PATT
	 POIN2	SelwynNotesCut_FINAL_4_018
// 023   ----------------------------------------
	BYTE	PATT
	 POIN2	SelwynNotesCut_FINAL_4_019
// 024   ----------------------------------------
	BYTE	PATT
	 POIN2	SelwynNotesCut_FINAL_4_016
// 025   ----------------------------------------
	BYTE	PATT
	 POIN2	SelwynNotesCut_FINAL_4_017
// 026   ----------------------------------------
	BYTE	PATT
	 POIN2	SelwynNotesCut_FINAL_4_018
// 027   ----------------------------------------
	BYTE	PATT
	 POIN2	SelwynNotesCut_FINAL_4_019
// 028   ----------------------------------------
	BYTE	PATT
	 POIN2	SelwynNotesCut_FINAL_4_016
// 029   ----------------------------------------
	BYTE	PATT
	 POIN2	SelwynNotesCut_FINAL_4_017
// 030   ----------------------------------------
	BYTE	W06
	BYTE		N05     Cs5   v076
	BYTE	W06
	BYTE		        An4 
	BYTE	W06
	BYTE		        Fs4 
	BYTE	W06
	BYTE		        Cs4 
	BYTE	W06
	BYTE		        Fs4 
	BYTE	W06
	BYTE		        An4 
	BYTE	W06
	BYTE		        Cs5 
	BYTE	W12
	BYTE		N05   
	BYTE	W06
	BYTE		        An4 
	BYTE	W06
	BYTE		        Fs4 
	BYTE	W06
	BYTE		        Cs4 
	BYTE	W06
	BYTE		        Fs4 
	BYTE	W06
	BYTE		        An4 
	BYTE	W06
	BYTE		        Cs5 
	BYTE	W06
// 031   ----------------------------------------
	BYTE	W06
	BYTE		        Bn4 
	BYTE	W06
	BYTE		        Gs4 
	BYTE	W06
	BYTE		        En4 
	BYTE	W06
	BYTE		        Bn3 
	BYTE	W06
	BYTE		        En4 
	BYTE	W06
	BYTE		        Gs4 
	BYTE	W06
	BYTE		        Bn4 
	BYTE	W12
	BYTE		N05   
	BYTE	W06
	BYTE		        Gs4 
	BYTE	W06
	BYTE		        En4 
	BYTE	W06
	BYTE		        Bn3 
	BYTE	W06
	BYTE		        En4 
	BYTE	W06
	BYTE		        Gs4 
	BYTE	W06
	BYTE		        Bn4 
	BYTE	W05
	BYTE	GoTo
	 POIN2	SelwynNotesCut_FINAL_4_B1
SelwynNotesCut_FINAL_4_B2:
	BYTE	FINE

//**************** Track 5 (Midi-Chn.5) ****************//

SelwynNotesCut_FINAL_5:
	BYTE	KEYSH   SelwynNotesCut_FINAL_key+0
SelwynNotesCut_FINAL_5_B1:
// 000   ----------------------------------------
	BYTE		VOICE   47
	BYTE		MODT    0
	BYTE		LFOS    44
	BYTE		PAN     c_v-51
	BYTE		VOL     127*SelwynNotesCut_FINAL_mvl/mxv
	BYTE		N11     Cs3   v127
	BYTE		N11     En3 
	BYTE		N11     As3 
	BYTE	W12
	BYTE		N05     Cn3 
	BYTE	W06
	BYTE		        Cs3 
	BYTE	W06
	BYTE		N11     Cn3 
	BYTE		N11     Dn3 
	BYTE		N11     As3 
	BYTE	W12
	BYTE		        Cs3 
	BYTE	W12
	BYTE		        Cn3 
	BYTE		N11     Ds3 
	BYTE		N11     As3 
	BYTE	W12
	BYTE		N05     Cs3 
	BYTE	W06
	BYTE		        Cn3 
	BYTE	W06
	BYTE		N11     Cs3 
	BYTE		N11     As3 
	BYTE	W12
	BYTE		        Cn3 
	BYTE	W12
// 001   ----------------------------------------
SelwynNotesCut_FINAL_5_001:
	BYTE		N11     Cs3   v127
	BYTE		N11     En3 
	BYTE		N11     As3 
	BYTE	W12
	BYTE		N05     Cn3 
	BYTE	W06
	BYTE		        Cs3 
	BYTE	W06
	BYTE		N11     Cn3 
	BYTE		N11     Dn3 
	BYTE		N11     As3 
	BYTE	W12
	BYTE		        Cs3 
	BYTE	W12
	BYTE		        Cn3 
	BYTE		N11     Ds3 
	BYTE		N11     As3 
	BYTE	W12
	BYTE		N05     Cs3 
	BYTE	W06
	BYTE		        Cn3 
	BYTE	W06
	BYTE		N11     Cs3 
	BYTE		N11     As3 
	BYTE	W12
	BYTE		        Cn3 
	BYTE	W12
	BYTE	PEND
// 002   ----------------------------------------
	BYTE	PATT
	 POIN2	SelwynNotesCut_FINAL_5_001
// 003   ----------------------------------------
	BYTE	PATT
	 POIN2	SelwynNotesCut_FINAL_5_001
// 004   ----------------------------------------
	BYTE	PATT
	 POIN2	SelwynNotesCut_FINAL_5_001
// 005   ----------------------------------------
	BYTE	PATT
	 POIN2	SelwynNotesCut_FINAL_5_001
// 006   ----------------------------------------
	BYTE	PATT
	 POIN2	SelwynNotesCut_FINAL_5_001
// 007   ----------------------------------------
	BYTE	PATT
	 POIN2	SelwynNotesCut_FINAL_5_001
// 008   ----------------------------------------
	BYTE	PATT
	 POIN2	SelwynNotesCut_FINAL_5_001
// 009   ----------------------------------------
	BYTE	PATT
	 POIN2	SelwynNotesCut_FINAL_5_001
// 010   ----------------------------------------
	BYTE	PATT
	 POIN2	SelwynNotesCut_FINAL_5_001
// 011   ----------------------------------------
	BYTE	PATT
	 POIN2	SelwynNotesCut_FINAL_5_001
// 012   ----------------------------------------
	BYTE	PATT
	 POIN2	SelwynNotesCut_FINAL_5_001
// 013   ----------------------------------------
	BYTE	PATT
	 POIN2	SelwynNotesCut_FINAL_5_001
// 014   ----------------------------------------
	BYTE	PATT
	 POIN2	SelwynNotesCut_FINAL_5_001
// 015   ----------------------------------------
	BYTE	PATT
	 POIN2	SelwynNotesCut_FINAL_5_001
// 016   ----------------------------------------
	BYTE	PATT
	 POIN2	SelwynNotesCut_FINAL_5_001
// 017   ----------------------------------------
	BYTE	PATT
	 POIN2	SelwynNotesCut_FINAL_5_001
// 018   ----------------------------------------
	BYTE	PATT
	 POIN2	SelwynNotesCut_FINAL_5_001
// 019   ----------------------------------------
	BYTE	PATT
	 POIN2	SelwynNotesCut_FINAL_5_001
// 020   ----------------------------------------
	BYTE	PATT
	 POIN2	SelwynNotesCut_FINAL_5_001
// 021   ----------------------------------------
	BYTE	PATT
	 POIN2	SelwynNotesCut_FINAL_5_001
// 022   ----------------------------------------
	BYTE	PATT
	 POIN2	SelwynNotesCut_FINAL_5_001
// 023   ----------------------------------------
	BYTE	PATT
	 POIN2	SelwynNotesCut_FINAL_5_001
// 024   ----------------------------------------
	BYTE	PATT
	 POIN2	SelwynNotesCut_FINAL_5_001
// 025   ----------------------------------------
	BYTE	PATT
	 POIN2	SelwynNotesCut_FINAL_5_001
// 026   ----------------------------------------
	BYTE	PATT
	 POIN2	SelwynNotesCut_FINAL_5_001
// 027   ----------------------------------------
	BYTE	PATT
	 POIN2	SelwynNotesCut_FINAL_5_001
// 028   ----------------------------------------
	BYTE	PATT
	 POIN2	SelwynNotesCut_FINAL_5_001
// 029   ----------------------------------------
	BYTE	PATT
	 POIN2	SelwynNotesCut_FINAL_5_001
// 030   ----------------------------------------
	BYTE	PATT
	 POIN2	SelwynNotesCut_FINAL_5_001
// 031   ----------------------------------------
	BYTE		N11     Cs3   v127
	BYTE		N11     En3 
	BYTE		N11     As3 
	BYTE	W12
	BYTE		N05     Cn3 
	BYTE	W06
	BYTE		        Cs3 
	BYTE	W06
	BYTE		N11     Cn3 
	BYTE		N11     Dn3 
	BYTE		N11     As3 
	BYTE	W12
	BYTE		        Cs3 
	BYTE	W12
	BYTE		        Cn3 
	BYTE		N11     Ds3 
	BYTE		N11     As3 
	BYTE	W12
	BYTE		N05     Cs3 
	BYTE	W06
	BYTE		        Cn3 
	BYTE	W06
	BYTE		N11     Cs3 
	BYTE		N11     As3 
	BYTE	W12
	BYTE		        Cn3 
	BYTE	W11
	BYTE	GoTo
	 POIN2	SelwynNotesCut_FINAL_5_B1
SelwynNotesCut_FINAL_5_B2:
	BYTE	FINE

//**************** Track 6 (Midi-Chn.6) ****************//

SelwynNotesCut_FINAL_6:
	BYTE	KEYSH   SelwynNotesCut_FINAL_key+0
SelwynNotesCut_FINAL_6_B1:
// 000   ----------------------------------------
	BYTE		VOICE   0
	BYTE		MODT    0
	BYTE		LFOS    44
	BYTE		PAN     c_v-28
	BYTE		VOL     117*SelwynNotesCut_FINAL_mvl/mxv
	BYTE		N20     An3   v056
	BYTE		N20     Cs4 
	BYTE	W24
	BYTE		        An3 
	BYTE		N20     Cs4 
	BYTE	W24
	BYTE		        An3 
	BYTE		N20     Cs4 
	BYTE	W24
	BYTE		        An3 
	BYTE		N20     Cs4 
	BYTE	W24
// 001   ----------------------------------------
SelwynNotesCut_FINAL_6_001:
	BYTE		N20     An3   v056
	BYTE		N20     Dn4 
	BYTE	W24
	BYTE		        An3 
	BYTE		N20     Dn4 
	BYTE	W24
	BYTE		        An3 
	BYTE		N20     Dn4 
	BYTE	W24
	BYTE		        An3 
	BYTE		N20     Dn4 
	BYTE	W24
	BYTE	PEND
// 002   ----------------------------------------
SelwynNotesCut_FINAL_6_002:
	BYTE		N20     An3   v056
	BYTE		N20     Cs4 
	BYTE	W24
	BYTE		        An3 
	BYTE		N20     Cs4 
	BYTE	W24
	BYTE		        An3 
	BYTE		N20     Cs4 
	BYTE	W24
	BYTE		        An3 
	BYTE		N20     Cs4 
	BYTE	W24
	BYTE	PEND
// 003   ----------------------------------------
	BYTE	PATT
	 POIN2	SelwynNotesCut_FINAL_6_001
// 004   ----------------------------------------
	BYTE	PATT
	 POIN2	SelwynNotesCut_FINAL_6_002
// 005   ----------------------------------------
	BYTE	PATT
	 POIN2	SelwynNotesCut_FINAL_6_001
// 006   ----------------------------------------
	BYTE	PATT
	 POIN2	SelwynNotesCut_FINAL_6_002
// 007   ----------------------------------------
	BYTE	PATT
	 POIN2	SelwynNotesCut_FINAL_6_001
// 008   ----------------------------------------
SelwynNotesCut_FINAL_6_008:
	BYTE		N20     Fs3   v056
	BYTE		N20     Bn3 
	BYTE	W24
	BYTE		        Fs3 
	BYTE		N20     Bn3 
	BYTE	W24
	BYTE		        Fs3 
	BYTE		N20     Bn3 
	BYTE	W24
	BYTE		        Fs3 
	BYTE		N20     Bn3 
	BYTE	W24
	BYTE	PEND
// 009   ----------------------------------------
SelwynNotesCut_FINAL_6_009:
	BYTE		N20     Gs3   v056
	BYTE		N20     Bn3 
	BYTE	W24
	BYTE		        Gs3 
	BYTE		N20     Bn3 
	BYTE	W24
	BYTE		        Gs3 
	BYTE		N20     Bn3 
	BYTE	W24
	BYTE		        Gs3 
	BYTE		N20     Bn3 
	BYTE	W24
	BYTE	PEND
// 010   ----------------------------------------
	BYTE	PATT
	 POIN2	SelwynNotesCut_FINAL_6_002
// 011   ----------------------------------------
	BYTE	PATT
	 POIN2	SelwynNotesCut_FINAL_6_002
// 012   ----------------------------------------
	BYTE	PATT
	 POIN2	SelwynNotesCut_FINAL_6_008
// 013   ----------------------------------------
	BYTE	PATT
	 POIN2	SelwynNotesCut_FINAL_6_009
// 014   ----------------------------------------
SelwynNotesCut_FINAL_6_014:
	BYTE		N20     Cs4   v056
	BYTE		N20     Fn4 
	BYTE	W24
	BYTE		        Cs4 
	BYTE		N20     Fn4 
	BYTE	W24
	BYTE		        Cs4 
	BYTE		N20     Fn4 
	BYTE	W24
	BYTE		        Cs4 
	BYTE		N20     Fn4 
	BYTE	W24
	BYTE	PEND
// 015   ----------------------------------------
	BYTE	PATT
	 POIN2	SelwynNotesCut_FINAL_6_014
// 016   ----------------------------------------
	BYTE	PATT
	 POIN2	SelwynNotesCut_FINAL_6_002
// 017   ----------------------------------------
SelwynNotesCut_FINAL_6_017:
	BYTE		N20     Bn3   v056
	BYTE		N20     Dn4 
	BYTE	W24
	BYTE		        Bn3 
	BYTE		N20     Dn4 
	BYTE	W24
	BYTE		        Bn3 
	BYTE		N20     Dn4 
	BYTE	W24
	BYTE		        Bn3 
	BYTE		N20     Dn4 
	BYTE	W24
	BYTE	PEND
// 018   ----------------------------------------
	BYTE	PATT
	 POIN2	SelwynNotesCut_FINAL_6_002
// 019   ----------------------------------------
	BYTE	PATT
	 POIN2	SelwynNotesCut_FINAL_6_002
// 020   ----------------------------------------
	BYTE	PATT
	 POIN2	SelwynNotesCut_FINAL_6_002
// 021   ----------------------------------------
	BYTE	PATT
	 POIN2	SelwynNotesCut_FINAL_6_017
// 022   ----------------------------------------
	BYTE	PATT
	 POIN2	SelwynNotesCut_FINAL_6_002
// 023   ----------------------------------------
	BYTE	PATT
	 POIN2	SelwynNotesCut_FINAL_6_002
// 024   ----------------------------------------
	BYTE	PATT
	 POIN2	SelwynNotesCut_FINAL_6_002
// 025   ----------------------------------------
	BYTE	PATT
	 POIN2	SelwynNotesCut_FINAL_6_017
// 026   ----------------------------------------
	BYTE	PATT
	 POIN2	SelwynNotesCut_FINAL_6_002
// 027   ----------------------------------------
	BYTE	PATT
	 POIN2	SelwynNotesCut_FINAL_6_002
// 028   ----------------------------------------
	BYTE	PATT
	 POIN2	SelwynNotesCut_FINAL_6_002
// 029   ----------------------------------------
	BYTE	PATT
	 POIN2	SelwynNotesCut_FINAL_6_017
// 030   ----------------------------------------
	BYTE	PATT
	 POIN2	SelwynNotesCut_FINAL_6_002
// 031   ----------------------------------------
	BYTE		N20     Gs3   v056
	BYTE		N20     Bn3 
	BYTE	W24
	BYTE		        Gs3 
	BYTE		N20     Bn3 
	BYTE	W24
	BYTE		N42     Gs3 
	BYTE		N42     Bn3 
	BYTE	W44
	BYTE	W03
	BYTE	GoTo
	 POIN2	SelwynNotesCut_FINAL_6_B1
SelwynNotesCut_FINAL_6_B2:
	BYTE	FINE

//**************** Track 7 (Midi-Chn.7) ****************//

SelwynNotesCut_FINAL_7:
	BYTE	KEYSH   SelwynNotesCut_FINAL_key+0
SelwynNotesCut_FINAL_7_B1:
// 000   ----------------------------------------
	BYTE		VOICE   48
	BYTE		MODT    0
	BYTE		LFOS    44
	BYTE		PAN     c_v+18
	BYTE		VOL     108*SelwynNotesCut_FINAL_mvl/mxv
	BYTE		TIE     Fs2   v056
	BYTE		TIE     An2 
	BYTE		N96     Cs3 
	BYTE	W96
// 001   ----------------------------------------
	BYTE		        Dn3 
	BYTE	W96
// 002   ----------------------------------------
	BYTE		        Cs3 
	BYTE	W96
// 003   ----------------------------------------
	BYTE		        Dn3 
	BYTE	W96
// 004   ----------------------------------------
	BYTE		        Cs3 
	BYTE	W96
// 005   ----------------------------------------
	BYTE		        Dn3 
	BYTE	W96
// 006   ----------------------------------------
	BYTE		        Cs3 
	BYTE	W96
// 007   ----------------------------------------
	BYTE		        Dn3 
	BYTE	W96
	BYTE		EOT     An2 
// 008   ----------------------------------------
	BYTE		TIE     Dn2 
	BYTE		TIE     Bn2 
	BYTE	W96
	BYTE		EOT     Fs2 
// 009   ----------------------------------------
	BYTE		N96     Gs2 
	BYTE	W96
	BYTE		EOT     Dn2 
	BYTE		        Bn2 
// 010   ----------------------------------------
	BYTE		TIE     En2 
	BYTE		TIE     An2 
	BYTE		TIE     Cs3 
	BYTE	W96
// 011   ----------------------------------------
	BYTE		N96     Gs2 
	BYTE	W96
	BYTE		EOT     En2 
	BYTE		        An2 
	BYTE		        Cs3 
// 012   ----------------------------------------
	BYTE		TIE     Dn2 
	BYTE		N96     Fs2 
	BYTE		TIE     Bn2 
	BYTE	W96
// 013   ----------------------------------------
	BYTE		N96     Gs2 
	BYTE	W96
	BYTE		EOT     Dn2 
	BYTE		        Bn2 
// 014   ----------------------------------------
	BYTE		TIE     Gs2 
	BYTE		TIE     Cs3 
	BYTE		TIE     Fn3 
	BYTE	W96
// 015   ----------------------------------------
	BYTE	W90
	BYTE		EOT     Gs2 
	BYTE		        Cs3 
	BYTE		        Fn3 
	BYTE	W06
// 016   ----------------------------------------
	BYTE	W96
// 017   ----------------------------------------
	BYTE	W96
// 018   ----------------------------------------
	BYTE	W96
// 019   ----------------------------------------
	BYTE	W96
// 020   ----------------------------------------
	BYTE	W96
// 021   ----------------------------------------
	BYTE	W96
// 022   ----------------------------------------
	BYTE	W96
// 023   ----------------------------------------
	BYTE	W96
// 024   ----------------------------------------
	BYTE	W96
// 025   ----------------------------------------
	BYTE	W96
// 026   ----------------------------------------
	BYTE	W96
// 027   ----------------------------------------
	BYTE	W96
// 028   ----------------------------------------
	BYTE	W96
// 029   ----------------------------------------
	BYTE	W96
// 030   ----------------------------------------
	BYTE	W96
// 031   ----------------------------------------
	BYTE	W92
	BYTE	W03
	BYTE	GoTo
	 POIN2	SelwynNotesCut_FINAL_7_B1
SelwynNotesCut_FINAL_7_B2:
	BYTE	FINE

//******************************************************//
	ALIGN 4

SelwynNotesCut_FINAL:
	BYTE	7	// NumTrks
	BYTE	0	// NumBlks
	BYTE	SelwynNotesCut_FINAL_pri	// Priority
	BYTE	SelwynNotesCut_FINAL_rev	// Reverb.

	POIN2	SelwynNotesCut_FINAL_grp

	POIN2	SelwynNotesCut_FINAL_1
	POIN2	SelwynNotesCut_FINAL_2
	POIN2	SelwynNotesCut_FINAL_3
	POIN2	SelwynNotesCut_FINAL_4
	POIN2	SelwynNotesCut_FINAL_5
	POIN2	SelwynNotesCut_FINAL_6
	POIN2	SelwynNotesCut_FINAL_7

	
