//Event file generated from Sappy .s format.
	#include "MPlayDef.event"

	#define	SelwynMapNotesCut_FINAL_grp  voicegroup000
	#define	SelwynMapNotesCut_FINAL_pri  0
	#define	SelwynMapNotesCut_FINAL_rev  0xB0
	#define	SelwynMapNotesCut_FINAL_mvl  28
	#define	SelwynMapNotesCut_FINAL_key  0
	#define	SelwynMapNotesCut_FINAL_tbs  1
	#define	SelwynMapNotesCut_FINAL_exg  0
	#define	SelwynMapNotesCut_FINAL_cmp  1

	// .rodata
	//	SelwynMapNotesCut_FINAL
	ALIGN 4

//**************** Track 1 (Midi-Chn.1) ****************//

SelwynMapNotesCut_FINAL_1:
	BYTE	KEYSH   SelwynMapNotesCut_FINAL_key+0
SelwynMapNotesCut_FINAL_1_B1:
// 000   ----------------------------------------
	BYTE	TEMPO   89*SelwynMapNotesCut_FINAL_tbs/2
	BYTE		VOICE   61
	BYTE		MODT    0
	BYTE		LFOS    44
	BYTE		PAN     c_v+26
	BYTE		VOL     127*SelwynMapNotesCut_FINAL_mvl/mxv
	BYTE	W96
// 001   ----------------------------------------
	BYTE	W96
// 002   ----------------------------------------
	BYTE	W96
// 003   ----------------------------------------
	BYTE	W84
	BYTE		N12     Gn3   v127
	BYTE	W12
// 004   ----------------------------------------
SelwynMapNotesCut_FINAL_1_004:
	BYTE		N48     Gn3   v127
	BYTE	W48
	BYTE		N12     Cn3 
	BYTE	W12
	BYTE		        Dn3 
	BYTE	W12
	BYTE		        En3 
	BYTE	W12
	BYTE		        An3 
	BYTE	W12
	BYTE	PEND
// 005   ----------------------------------------
SelwynMapNotesCut_FINAL_1_005:
	BYTE		N66     Gn3   v127
	BYTE	W84
	BYTE		N06     An3 
	BYTE	W06
	BYTE		        Bn3 
	BYTE	W06
	BYTE	PEND
// 006   ----------------------------------------
SelwynMapNotesCut_FINAL_1_006:
	BYTE		N16     Cn4   v127
	BYTE	W16
	BYTE		        Bn3 
	BYTE	W16
	BYTE		        Cn4 
	BYTE	W16
	BYTE		        Gn3 
	BYTE	W16
	BYTE		        Fn3 
	BYTE	W16
	BYTE		        En3 
	BYTE	W16
	BYTE	PEND
// 007   ----------------------------------------
SelwynMapNotesCut_FINAL_1_007:
	BYTE		N66     Gn3   v127
	BYTE	W84
	BYTE		N12     Bn3 
	BYTE	W12
	BYTE	PEND
// 008   ----------------------------------------
SelwynMapNotesCut_FINAL_1_008:
	BYTE		N48     Cn4   v127
	BYTE	W48
	BYTE		N12     Gn3 
	BYTE	W12
	BYTE		        Bn3 
	BYTE	W12
	BYTE		        Cn4 
	BYTE	W12
	BYTE		        Dn4 
	BYTE	W12
	BYTE	PEND
// 009   ----------------------------------------
SelwynMapNotesCut_FINAL_1_009:
	BYTE		N48     Bn3   v127
	BYTE	W48
	BYTE		N08     Gn3 
	BYTE	W08
	BYTE		        Bn3 
	BYTE	W08
	BYTE		        Gn3 
	BYTE	W08
	BYTE		        Dn4 
	BYTE	W08
	BYTE		        Fn4 
	BYTE	W08
	BYTE		        Dn4 
	BYTE	W08
	BYTE	PEND
// 010   ----------------------------------------
SelwynMapNotesCut_FINAL_1_010:
	BYTE		N12     En4   v127
	BYTE	W12
	BYTE		        Fn4 
	BYTE	W12
	BYTE		N48     Gn4 
	BYTE	W48
	BYTE		N06     Cn5 
	BYTE	W06
	BYTE		        Bn4 
	BYTE	W06
	BYTE		        An4 
	BYTE	W06
	BYTE		        Gn4 
	BYTE	W06
	BYTE	PEND
// 011   ----------------------------------------
SelwynMapNotesCut_FINAL_1_011:
	BYTE		N36     Fn4   v127
	BYTE	W36
	BYTE		N12     En4 
	BYTE	W12
	BYTE		N42     Dn4 
	BYTE	W48
	BYTE	PEND
// 012   ----------------------------------------
SelwynMapNotesCut_FINAL_1_012:
	BYTE		N48     An3   v127
	BYTE	W48
	BYTE		N12     En4 
	BYTE	W12
	BYTE		        Dn4 
	BYTE	W12
	BYTE		        Cn4 
	BYTE	W12
	BYTE		N60     Dn4 
	BYTE	W12
	BYTE	PEND
// 013   ----------------------------------------
SelwynMapNotesCut_FINAL_1_013:
	BYTE	W48
	BYTE		N12     Bn3   v127
	BYTE	W12
	BYTE		        Cn4 
	BYTE	W12
	BYTE		        Dn4 
	BYTE	W12
	BYTE		        Gn4 
	BYTE	W12
	BYTE	PEND
// 014   ----------------------------------------
SelwynMapNotesCut_FINAL_1_014:
	BYTE		N48     En4   v127
	BYTE	W48
	BYTE		N12     Cn4 
	BYTE	W12
	BYTE		        Bn3 
	BYTE	W12
	BYTE		        Cn4 
	BYTE	W12
	BYTE		N60     Dn4 
	BYTE	W12
	BYTE	PEND
// 015   ----------------------------------------
	BYTE	W48
	BYTE		N48     En4 
	BYTE	W48
// 016   ----------------------------------------
SelwynMapNotesCut_FINAL_1_016:
	BYTE		N48     Cn4   v127
	BYTE	W48
	BYTE		N12   
	BYTE	W12
	BYTE		        Bn3 
	BYTE	W12
	BYTE		        An3 
	BYTE	W12
	BYTE		N60     Bn3 
	BYTE	W12
	BYTE	PEND
// 017   ----------------------------------------
	BYTE	W48
	BYTE		N48     Cn4 
	BYTE	W48
// 018   ----------------------------------------
SelwynMapNotesCut_FINAL_1_018:
	BYTE		N48     An3   v127
	BYTE	W48
	BYTE		        En3 
	BYTE	W48
	BYTE	PEND
// 019   ----------------------------------------
	BYTE		N66     Gn3 
	BYTE	W84
	BYTE		N12   
	BYTE	W12
// 020   ----------------------------------------
	BYTE	PATT
	 POIN2	SelwynMapNotesCut_FINAL_1_004
// 021   ----------------------------------------
	BYTE	PATT
	 POIN2	SelwynMapNotesCut_FINAL_1_005
// 022   ----------------------------------------
	BYTE	PATT
	 POIN2	SelwynMapNotesCut_FINAL_1_006
// 023   ----------------------------------------
	BYTE	PATT
	 POIN2	SelwynMapNotesCut_FINAL_1_007
// 024   ----------------------------------------
	BYTE	PATT
	 POIN2	SelwynMapNotesCut_FINAL_1_008
// 025   ----------------------------------------
	BYTE	PATT
	 POIN2	SelwynMapNotesCut_FINAL_1_009
// 026   ----------------------------------------
	BYTE	PATT
	 POIN2	SelwynMapNotesCut_FINAL_1_010
// 027   ----------------------------------------
	BYTE	PATT
	 POIN2	SelwynMapNotesCut_FINAL_1_011
// 028   ----------------------------------------
	BYTE	W96
// 029   ----------------------------------------
	BYTE	W96
// 030   ----------------------------------------
	BYTE	W96
// 031   ----------------------------------------
	BYTE	W96
// 032   ----------------------------------------
	BYTE		N48     An3   v127
	BYTE	W48
	BYTE		        Cn4 
	BYTE	W48
// 033   ----------------------------------------
	BYTE		N16     Bn3 
	BYTE	W16
	BYTE		        An3 
	BYTE	W16
	BYTE		        Bn3 
	BYTE	W16
	BYTE		        Gn3 
	BYTE	W16
	BYTE		        Fn3 
	BYTE	W16
	BYTE		        En3 
	BYTE	W16
// 034   ----------------------------------------
	BYTE		N48     Fn3 
	BYTE	W48
	BYTE		        An3 
	BYTE	W48
// 035   ----------------------------------------
	BYTE		N12     Gn3 
	BYTE	W12
	BYTE		        Fn3 
	BYTE	W12
	BYTE		        Gn3 
	BYTE	W12
	BYTE		        An3 
	BYTE	W12
	BYTE		        Bn3 
	BYTE	W12
	BYTE		        Cn4 
	BYTE	W12
	BYTE		        Dn4 
	BYTE	W12
	BYTE		N11     Bn3 
	BYTE	W12
// 036   ----------------------------------------
	BYTE	PATT
	 POIN2	SelwynMapNotesCut_FINAL_1_012
// 037   ----------------------------------------
	BYTE	PATT
	 POIN2	SelwynMapNotesCut_FINAL_1_013
// 038   ----------------------------------------
	BYTE	PATT
	 POIN2	SelwynMapNotesCut_FINAL_1_014
// 039   ----------------------------------------
	BYTE	W48
	BYTE		N48     En4   v127
	BYTE	W48
// 040   ----------------------------------------
	BYTE	PATT
	 POIN2	SelwynMapNotesCut_FINAL_1_016
// 041   ----------------------------------------
	BYTE	W48
	BYTE		N48     Cn4   v127
	BYTE	W48
// 042   ----------------------------------------
	BYTE	PATT
	 POIN2	SelwynMapNotesCut_FINAL_1_018
// 043   ----------------------------------------
	BYTE		N90     Gn3   v127
	BYTE	W92
	BYTE	W03
	BYTE	GoTo
	 POIN2	SelwynMapNotesCut_FINAL_1_B1
SelwynMapNotesCut_FINAL_1_B2:
	BYTE	FINE

//**************** Track 2 (Midi-Chn.2) ****************//

SelwynMapNotesCut_FINAL_2:
	BYTE	KEYSH   SelwynMapNotesCut_FINAL_key+0
SelwynMapNotesCut_FINAL_2_B1:
// 000   ----------------------------------------
	BYTE		VOICE   81
	BYTE		MODT    0
	BYTE		LFOS    44
	BYTE		VOL     122*SelwynMapNotesCut_FINAL_mvl/mxv
	BYTE		PAN     c_v-31
	BYTE	W96
// 001   ----------------------------------------
	BYTE	W96
// 002   ----------------------------------------
	BYTE	W96
// 003   ----------------------------------------
	BYTE	W96
// 004   ----------------------------------------
	BYTE	W96
// 005   ----------------------------------------
	BYTE	W96
// 006   ----------------------------------------
	BYTE	W96
// 007   ----------------------------------------
	BYTE	W96
// 008   ----------------------------------------
	BYTE	W96
// 009   ----------------------------------------
	BYTE	W96
// 010   ----------------------------------------
	BYTE	W96
// 011   ----------------------------------------
	BYTE	W96
// 012   ----------------------------------------
	BYTE	W96
// 013   ----------------------------------------
	BYTE	W96
// 014   ----------------------------------------
	BYTE	W96
// 015   ----------------------------------------
	BYTE	W96
// 016   ----------------------------------------
	BYTE	W96
// 017   ----------------------------------------
	BYTE	W96
// 018   ----------------------------------------
	BYTE	W96
// 019   ----------------------------------------
	BYTE	W96
// 020   ----------------------------------------
	BYTE	W96
// 021   ----------------------------------------
	BYTE	W96
// 022   ----------------------------------------
	BYTE	W96
// 023   ----------------------------------------
	BYTE	W96
// 024   ----------------------------------------
	BYTE	W96
// 025   ----------------------------------------
	BYTE	W96
// 026   ----------------------------------------
	BYTE	W96
// 027   ----------------------------------------
	BYTE	W96
// 028   ----------------------------------------
	BYTE	W06
	BYTE		N05     Bn3   v076
	BYTE	W06
	BYTE		        Ds4 
	BYTE	W06
	BYTE		        Fs4 
	BYTE	W06
	BYTE		        As4 
	BYTE	W06
	BYTE		        Fs4 
	BYTE	W06
	BYTE		        Ds4 
	BYTE	W06
	BYTE		        Bn3 
	BYTE	W12
	BYTE		N05   
	BYTE	W06
	BYTE		        Ds4 
	BYTE	W06
	BYTE		        Fs4 
	BYTE	W06
	BYTE		        As4 
	BYTE	W06
	BYTE		        Fs4 
	BYTE	W06
	BYTE		        Ds4 
	BYTE	W06
	BYTE		        Bn3 
	BYTE	W06
// 029   ----------------------------------------
	BYTE	W06
	BYTE		        Cs4 
	BYTE	W06
	BYTE		        Fn4 
	BYTE	W06
	BYTE		        Gs4 
	BYTE	W06
	BYTE		        Bn4 
	BYTE	W06
	BYTE		        Gs4 
	BYTE	W06
	BYTE		        Fn4 
	BYTE	W06
	BYTE		        Cs4 
	BYTE	W12
	BYTE		N05   
	BYTE	W06
	BYTE		        Fn4 
	BYTE	W06
	BYTE		        Gs4 
	BYTE	W06
	BYTE		        Bn4 
	BYTE	W06
	BYTE		        Gs4 
	BYTE	W06
	BYTE		        Fn4 
	BYTE	W06
	BYTE		        Cs4 
	BYTE	W06
// 030   ----------------------------------------
	BYTE	W06
	BYTE		        As3 
	BYTE	W06
	BYTE		        Cs4 
	BYTE	W06
	BYTE		        Fs4 
	BYTE	W06
	BYTE		        As4 
	BYTE	W06
	BYTE		        Fs4 
	BYTE	W06
	BYTE		        Cs4 
	BYTE	W06
	BYTE		        As3 
	BYTE	W12
	BYTE		N05   
	BYTE	W06
	BYTE		        Cs4 
	BYTE	W06
	BYTE		        Fs4 
	BYTE	W06
	BYTE		        As4 
	BYTE	W06
	BYTE		        Fs4 
	BYTE	W06
	BYTE		        Cs4 
	BYTE	W06
	BYTE		        As3 
	BYTE	W06
// 031   ----------------------------------------
	BYTE	W06
	BYTE		N05   
	BYTE	W06
	BYTE		        Ds4 
	BYTE	W06
	BYTE		        Fs4 
	BYTE	W06
	BYTE		        As4 
	BYTE	W06
	BYTE		        Fs4 
	BYTE	W06
	BYTE		        Ds4 
	BYTE	W06
	BYTE		        As3 
	BYTE	W12
	BYTE		N05   
	BYTE	W06
	BYTE		        Ds4 
	BYTE	W06
	BYTE		        Fs4 
	BYTE	W06
	BYTE		        As4 
	BYTE	W06
	BYTE		        Fs4 
	BYTE	W06
	BYTE		        Ds4 
	BYTE	W06
	BYTE		        As3 
	BYTE	W06
// 032   ----------------------------------------
	BYTE	W96
// 033   ----------------------------------------
	BYTE	W96
// 034   ----------------------------------------
	BYTE	W96
// 035   ----------------------------------------
	BYTE	W96
// 036   ----------------------------------------
	BYTE	W96
// 037   ----------------------------------------
	BYTE	W96
// 038   ----------------------------------------
	BYTE	W96
// 039   ----------------------------------------
	BYTE	W96
// 040   ----------------------------------------
	BYTE	W96
// 041   ----------------------------------------
	BYTE	W96
// 042   ----------------------------------------
	BYTE	W96
// 043   ----------------------------------------
	BYTE	W92
	BYTE	W03
	BYTE	GoTo
	 POIN2	SelwynMapNotesCut_FINAL_2_B1
SelwynMapNotesCut_FINAL_2_B2:
	BYTE	FINE

//**************** Track 3 (Midi-Chn.3) ****************//

SelwynMapNotesCut_FINAL_3:
	BYTE	KEYSH   SelwynMapNotesCut_FINAL_key+0
SelwynMapNotesCut_FINAL_3_B1:
// 000   ----------------------------------------
	BYTE		VOICE   14
	BYTE		MODT    0
	BYTE		LFOS    44
	BYTE		VOL     122*SelwynMapNotesCut_FINAL_mvl/mxv
	BYTE		PAN     c_v-64
	BYTE	W96
// 001   ----------------------------------------
	BYTE	W96
// 002   ----------------------------------------
	BYTE	W96
// 003   ----------------------------------------
	BYTE	W96
// 004   ----------------------------------------
	BYTE	W96
// 005   ----------------------------------------
	BYTE	W96
// 006   ----------------------------------------
	BYTE	W96
// 007   ----------------------------------------
	BYTE	W96
// 008   ----------------------------------------
	BYTE	W96
// 009   ----------------------------------------
	BYTE	W96
// 010   ----------------------------------------
	BYTE	W96
// 011   ----------------------------------------
	BYTE	W96
// 012   ----------------------------------------
	BYTE	W96
// 013   ----------------------------------------
	BYTE	W96
// 014   ----------------------------------------
	BYTE	W96
// 015   ----------------------------------------
	BYTE	W96
// 016   ----------------------------------------
	BYTE	W96
// 017   ----------------------------------------
	BYTE	W96
// 018   ----------------------------------------
	BYTE	W96
// 019   ----------------------------------------
	BYTE	W96
// 020   ----------------------------------------
	BYTE	W96
// 021   ----------------------------------------
	BYTE	W96
// 022   ----------------------------------------
	BYTE	W96
// 023   ----------------------------------------
	BYTE	W96
// 024   ----------------------------------------
	BYTE	W96
// 025   ----------------------------------------
	BYTE	W96
// 026   ----------------------------------------
	BYTE	W96
// 027   ----------------------------------------
	BYTE	W96
// 028   ----------------------------------------
	BYTE		N48     Ds4   v127
	BYTE	W48
	BYTE		N12     As4 
	BYTE	W12
	BYTE		        Gs4 
	BYTE	W12
	BYTE		        Fs4 
	BYTE	W12
	BYTE		N60     Gs4 
	BYTE	W12
// 029   ----------------------------------------
	BYTE	W48
	BYTE		N12     Fn4 
	BYTE	W12
	BYTE		        Fs4 
	BYTE	W12
	BYTE		        Gs4 
	BYTE	W12
	BYTE		        Cs5 
	BYTE	W12
// 030   ----------------------------------------
	BYTE		N48     As4 
	BYTE	W48
	BYTE		N12     Fs4 
	BYTE	W12
	BYTE		        Fn4 
	BYTE	W12
	BYTE		        Fs4 
	BYTE	W12
	BYTE		N60     Gs4 
	BYTE	W12
// 031   ----------------------------------------
	BYTE	W48
	BYTE		N48     As4 
	BYTE	W48
// 032   ----------------------------------------
	BYTE	W96
// 033   ----------------------------------------
	BYTE	W96
// 034   ----------------------------------------
	BYTE	W96
// 035   ----------------------------------------
	BYTE	W96
// 036   ----------------------------------------
	BYTE	W96
// 037   ----------------------------------------
	BYTE	W96
// 038   ----------------------------------------
	BYTE	W96
// 039   ----------------------------------------
	BYTE	W96
// 040   ----------------------------------------
	BYTE	W96
// 041   ----------------------------------------
	BYTE	W96
// 042   ----------------------------------------
	BYTE	W96
// 043   ----------------------------------------
	BYTE	W92
	BYTE	W03
	BYTE	GoTo
	 POIN2	SelwynMapNotesCut_FINAL_3_B1
SelwynMapNotesCut_FINAL_3_B2:
	BYTE	FINE

//**************** Track 4 (Midi-Chn.4) ****************//

SelwynMapNotesCut_FINAL_4:
	BYTE	KEYSH   SelwynMapNotesCut_FINAL_key+0
SelwynMapNotesCut_FINAL_4_B1:
// 000   ----------------------------------------
	BYTE		VOICE   49
	BYTE		MODT    0
	BYTE		LFOS    44
	BYTE		PAN     c_v+15
	BYTE		VOL     127*SelwynMapNotesCut_FINAL_mvl/mxv
	BYTE		TIE     Gn4   v056
	BYTE	W96
// 001   ----------------------------------------
	BYTE	W96
// 002   ----------------------------------------
	BYTE	W96
// 003   ----------------------------------------
	BYTE	W90
	BYTE		EOT   
	BYTE	W06
// 004   ----------------------------------------
	BYTE		TIE   
	BYTE	W96
// 005   ----------------------------------------
	BYTE	W96
// 006   ----------------------------------------
	BYTE	W96
// 007   ----------------------------------------
	BYTE	W96
	BYTE		EOT   
// 008   ----------------------------------------
	BYTE		TIE   
	BYTE	W96
// 009   ----------------------------------------
	BYTE	W96
// 010   ----------------------------------------
	BYTE	W96
// 011   ----------------------------------------
	BYTE	W90
	BYTE		EOT   
	BYTE	W06
// 012   ----------------------------------------
	BYTE		N96     Fn4 
	BYTE	W96
// 013   ----------------------------------------
	BYTE		        Gn4 
	BYTE	W96
// 014   ----------------------------------------
	BYTE		        An4 
	BYTE	W96
// 015   ----------------------------------------
	BYTE		        Bn4 
	BYTE	W96
// 016   ----------------------------------------
	BYTE		        Cn5 
	BYTE	W96
// 017   ----------------------------------------
	BYTE		        Bn4 
	BYTE	W96
// 018   ----------------------------------------
	BYTE		        An4 
	BYTE	W96
// 019   ----------------------------------------
	BYTE		N60     Gn4 
	BYTE	W60
	BYTE		N12     Fn4 
	BYTE	W12
	BYTE		        En4 
	BYTE	W12
	BYTE		        Fn4 
	BYTE	W12
// 020   ----------------------------------------
	BYTE		TIE     Gn4 
	BYTE	W96
// 021   ----------------------------------------
	BYTE	W96
// 022   ----------------------------------------
	BYTE	W96
// 023   ----------------------------------------
	BYTE	W90
	BYTE		EOT   
	BYTE	W06
// 024   ----------------------------------------
	BYTE		TIE   
	BYTE	W96
// 025   ----------------------------------------
	BYTE	W96
// 026   ----------------------------------------
	BYTE	W96
// 027   ----------------------------------------
	BYTE	W90
	BYTE		EOT   
	BYTE	W06
// 028   ----------------------------------------
	BYTE	W96
// 029   ----------------------------------------
	BYTE	W96
// 030   ----------------------------------------
	BYTE	W96
// 031   ----------------------------------------
	BYTE	W96
// 032   ----------------------------------------
	BYTE		TIE   
	BYTE	W96
// 033   ----------------------------------------
	BYTE	W96
	BYTE		EOT   
// 034   ----------------------------------------
	BYTE		N96     Fn4 
	BYTE	W96
// 035   ----------------------------------------
	BYTE		N90     Gn4 
	BYTE	W96
// 036   ----------------------------------------
	BYTE		N96     Fn4 
	BYTE	W96
// 037   ----------------------------------------
	BYTE		        Gn4 
	BYTE	W96
// 038   ----------------------------------------
	BYTE		        An4 
	BYTE	W96
// 039   ----------------------------------------
	BYTE		        Bn4 
	BYTE	W96
// 040   ----------------------------------------
	BYTE		        Cn5 
	BYTE	W96
// 041   ----------------------------------------
	BYTE		        Bn4 
	BYTE	W96
// 042   ----------------------------------------
	BYTE		        An4 
	BYTE	W96
// 043   ----------------------------------------
	BYTE		N60     Gn4 
	BYTE	W60
	BYTE		N12     Fn4 
	BYTE	W12
	BYTE		        En4 
	BYTE	W12
	BYTE		N11     Fn4 
	BYTE	W11
	BYTE	GoTo
	 POIN2	SelwynMapNotesCut_FINAL_4_B1
SelwynMapNotesCut_FINAL_4_B2:
	BYTE	FINE

//**************** Track 5 (Midi-Chn.5) ****************//

SelwynMapNotesCut_FINAL_5:
	BYTE	KEYSH   SelwynMapNotesCut_FINAL_key+0
SelwynMapNotesCut_FINAL_5_B1:
// 000   ----------------------------------------
	BYTE		VOICE   19
	BYTE		MODT    0
	BYTE		LFOS    44
	BYTE		PAN     c_v-1
	BYTE		VOL     105*SelwynMapNotesCut_FINAL_mvl/mxv
	BYTE	W96
// 001   ----------------------------------------
	BYTE	W96
// 002   ----------------------------------------
	BYTE	W96
// 003   ----------------------------------------
	BYTE	W96
// 004   ----------------------------------------
	BYTE	W96
// 005   ----------------------------------------
	BYTE	W96
// 006   ----------------------------------------
	BYTE	W96
// 007   ----------------------------------------
	BYTE	W96
// 008   ----------------------------------------
	BYTE	W96
// 009   ----------------------------------------
	BYTE	W96
// 010   ----------------------------------------
	BYTE	W96
// 011   ----------------------------------------
	BYTE	W96
// 012   ----------------------------------------
	BYTE	W96
// 013   ----------------------------------------
	BYTE	W96
// 014   ----------------------------------------
	BYTE	W96
// 015   ----------------------------------------
	BYTE	W96
// 016   ----------------------------------------
	BYTE	W96
// 017   ----------------------------------------
	BYTE	W96
// 018   ----------------------------------------
	BYTE	W96
// 019   ----------------------------------------
	BYTE	W96
// 020   ----------------------------------------
	BYTE	W96
// 021   ----------------------------------------
	BYTE	W96
// 022   ----------------------------------------
	BYTE	W96
// 023   ----------------------------------------
	BYTE	W96
// 024   ----------------------------------------
	BYTE	W96
// 025   ----------------------------------------
	BYTE	W96
// 026   ----------------------------------------
	BYTE	W96
// 027   ----------------------------------------
	BYTE	W96
// 028   ----------------------------------------
	BYTE		N48     Ds3   v127
	BYTE	W48
	BYTE		N12     As3 
	BYTE	W12
	BYTE		        Gs3 
	BYTE	W12
	BYTE		        Fs3 
	BYTE	W12
	BYTE		N60     Gs3 
	BYTE	W12
// 029   ----------------------------------------
	BYTE	W48
	BYTE		N12     Fn3 
	BYTE	W12
	BYTE		        Fs3 
	BYTE	W12
	BYTE		        Gs3 
	BYTE	W12
	BYTE		        Cs4 
	BYTE	W12
// 030   ----------------------------------------
	BYTE		N48     As3 
	BYTE	W48
	BYTE		N12     Fs3 
	BYTE	W12
	BYTE		        Fn3 
	BYTE	W12
	BYTE		        Fs3 
	BYTE	W12
	BYTE		N60     Gs3 
	BYTE	W12
// 031   ----------------------------------------
	BYTE	W48
	BYTE		N48     As3 
	BYTE	W48
// 032   ----------------------------------------
	BYTE	W96
// 033   ----------------------------------------
	BYTE	W96
// 034   ----------------------------------------
	BYTE	W96
// 035   ----------------------------------------
	BYTE	W96
// 036   ----------------------------------------
	BYTE	W96
// 037   ----------------------------------------
	BYTE	W96
// 038   ----------------------------------------
	BYTE	W96
// 039   ----------------------------------------
	BYTE	W96
// 040   ----------------------------------------
	BYTE	W96
// 041   ----------------------------------------
	BYTE	W96
// 042   ----------------------------------------
	BYTE	W96
// 043   ----------------------------------------
	BYTE	W92
	BYTE	W03
	BYTE	GoTo
	 POIN2	SelwynMapNotesCut_FINAL_5_B1
SelwynMapNotesCut_FINAL_5_B2:
	BYTE	FINE

//**************** Track 6 (Midi-Chn.6) ****************//

SelwynMapNotesCut_FINAL_6:
	BYTE	KEYSH   SelwynMapNotesCut_FINAL_key+0
SelwynMapNotesCut_FINAL_6_B1:
// 000   ----------------------------------------
	BYTE		VOICE   54
	BYTE		MODT    0
	BYTE		LFOS    44
	BYTE		VOL     122*SelwynMapNotesCut_FINAL_mvl/mxv
	BYTE		PAN     c_v-33
	BYTE		N96     En2   v056
	BYTE		TIE     Gn2 
	BYTE		N96     Cn3 
	BYTE		N96     Dn3 
	BYTE	W96
// 001   ----------------------------------------
SelwynMapNotesCut_FINAL_6_001:
	BYTE		N96     Dn2   v056
	BYTE		N96     Bn2 
	BYTE		N96     En3 
	BYTE	W96
	BYTE	PEND
// 002   ----------------------------------------
SelwynMapNotesCut_FINAL_6_002:
	BYTE		N96     En2   v056
	BYTE		N96     Cn3 
	BYTE		N96     Dn3 
	BYTE	W96
	BYTE	PEND
// 003   ----------------------------------------
SelwynMapNotesCut_FINAL_6_003:
	BYTE		N90     Dn2   v056
	BYTE		N90     Bn2 
	BYTE		N90     En3 
	BYTE	W90
	BYTE	PEND
	BYTE		EOT     Gn2 
	BYTE	W06
// 004   ----------------------------------------
SelwynMapNotesCut_FINAL_6_004:
	BYTE		N96     En2   v056
	BYTE		TIE     Gn2 
	BYTE		N96     Cn3 
	BYTE		N96     Dn3 
	BYTE	W96
	BYTE	PEND
// 005   ----------------------------------------
	BYTE	PATT
	 POIN2	SelwynMapNotesCut_FINAL_6_001
// 006   ----------------------------------------
	BYTE	PATT
	 POIN2	SelwynMapNotesCut_FINAL_6_002
// 007   ----------------------------------------
	BYTE	PATT
	 POIN2	SelwynMapNotesCut_FINAL_6_001
	BYTE		EOT     Gn2 
// 008   ----------------------------------------
	BYTE	PATT
	 POIN2	SelwynMapNotesCut_FINAL_6_004
// 009   ----------------------------------------
	BYTE	PATT
	 POIN2	SelwynMapNotesCut_FINAL_6_001
// 010   ----------------------------------------
	BYTE	PATT
	 POIN2	SelwynMapNotesCut_FINAL_6_002
// 011   ----------------------------------------
	BYTE	PATT
	 POIN2	SelwynMapNotesCut_FINAL_6_003
	BYTE		EOT     Gn2 
	BYTE	W06
// 012   ----------------------------------------
SelwynMapNotesCut_FINAL_6_012:
	BYTE		N96     An2   v056
	BYTE		N96     Cn3 
	BYTE		TIE     En3 
	BYTE		N96     Fn3 
	BYTE	W96
	BYTE	PEND
// 013   ----------------------------------------
SelwynMapNotesCut_FINAL_6_013:
	BYTE		N96     Bn2   v056
	BYTE		TIE     Dn3 
	BYTE		N96     Gn3 
	BYTE	W96
	BYTE	PEND
	BYTE		EOT     En3 
// 014   ----------------------------------------
SelwynMapNotesCut_FINAL_6_014:
	BYTE		N96     Cn3   v056
	BYTE		TIE     Fn3 
	BYTE		N96     An3 
	BYTE	W96
	BYTE	PEND
// 015   ----------------------------------------
SelwynMapNotesCut_FINAL_6_015:
	BYTE		TIE     Gn3   v056
	BYTE		N96     Bn3 
	BYTE	W96
	BYTE	PEND
	BYTE		EOT     Dn3 
	BYTE		        Fn3 
// 016   ----------------------------------------
SelwynMapNotesCut_FINAL_6_016:
	BYTE		TIE     En3   v056
	BYTE		N96     An3 
	BYTE		N96     Cn4 
	BYTE	W96
	BYTE	PEND
// 017   ----------------------------------------
	BYTE		        Dn3 
	BYTE		N96     Bn3 
	BYTE	W96
// 018   ----------------------------------------
	BYTE		        Cn3 
	BYTE		N96     An3 
	BYTE	W96
	BYTE		EOT     En3 
// 019   ----------------------------------------
	BYTE		N90     Bn2 
	BYTE		N90     Dn3 
	BYTE		N90     Fn3 
	BYTE	W90
	BYTE		EOT     Gn3 
	BYTE	W06
// 020   ----------------------------------------
	BYTE	PATT
	 POIN2	SelwynMapNotesCut_FINAL_6_004
// 021   ----------------------------------------
	BYTE	PATT
	 POIN2	SelwynMapNotesCut_FINAL_6_001
// 022   ----------------------------------------
	BYTE	PATT
	 POIN2	SelwynMapNotesCut_FINAL_6_002
// 023   ----------------------------------------
	BYTE	PATT
	 POIN2	SelwynMapNotesCut_FINAL_6_001
	BYTE		EOT     Gn2 
// 024   ----------------------------------------
	BYTE	PATT
	 POIN2	SelwynMapNotesCut_FINAL_6_004
// 025   ----------------------------------------
	BYTE	PATT
	 POIN2	SelwynMapNotesCut_FINAL_6_001
// 026   ----------------------------------------
	BYTE	PATT
	 POIN2	SelwynMapNotesCut_FINAL_6_002
// 027   ----------------------------------------
	BYTE	PATT
	 POIN2	SelwynMapNotesCut_FINAL_6_003
	BYTE		EOT     Gn2 
	BYTE	W06
// 028   ----------------------------------------
SelwynMapNotesCut_FINAL_6_028:
	BYTE		TIE     Gn2   v056
	BYTE		N96     An2 
	BYTE		N96     Cn3 
	BYTE		N96     En3 
	BYTE	W96
	BYTE	PEND
// 029   ----------------------------------------
SelwynMapNotesCut_FINAL_6_029:
	BYTE		TIE     Fn2   v056
	BYTE		N96     Bn2 
	BYTE		N96     Dn3 
	BYTE	W96
	BYTE	PEND
	BYTE		EOT     Gn2 
// 030   ----------------------------------------
SelwynMapNotesCut_FINAL_6_030:
	BYTE		N96     An2   v056
	BYTE		N96     Cn3 
	BYTE		N96     En3 
	BYTE	W96
	BYTE	PEND
	BYTE		EOT     Fn2 
// 031   ----------------------------------------
	BYTE		N96     Bn2 
	BYTE		N96     Dn3 
	BYTE		N96     Fn3 
	BYTE		N96     Gn3 
	BYTE	W96
// 032   ----------------------------------------
	BYTE	PATT
	 POIN2	SelwynMapNotesCut_FINAL_6_028
// 033   ----------------------------------------
	BYTE	PATT
	 POIN2	SelwynMapNotesCut_FINAL_6_029
	BYTE		EOT     Gn2 
// 034   ----------------------------------------
	BYTE	PATT
	 POIN2	SelwynMapNotesCut_FINAL_6_030
	BYTE		EOT     Fn2 
// 035   ----------------------------------------
	BYTE		N90     Bn2   v056
	BYTE		N90     Dn3 
	BYTE		N90     Fn3 
	BYTE		N90     Gn3 
	BYTE	W96
// 036   ----------------------------------------
	BYTE	PATT
	 POIN2	SelwynMapNotesCut_FINAL_6_012
// 037   ----------------------------------------
	BYTE	PATT
	 POIN2	SelwynMapNotesCut_FINAL_6_013
	BYTE		EOT     En3 
// 038   ----------------------------------------
	BYTE	PATT
	 POIN2	SelwynMapNotesCut_FINAL_6_014
// 039   ----------------------------------------
	BYTE	PATT
	 POIN2	SelwynMapNotesCut_FINAL_6_015
	BYTE		EOT     Dn3 
	BYTE		        Fn3 
// 040   ----------------------------------------
	BYTE	PATT
	 POIN2	SelwynMapNotesCut_FINAL_6_016
// 041   ----------------------------------------
	BYTE		N96     Dn3   v056
	BYTE		N96     Bn3 
	BYTE	W96
// 042   ----------------------------------------
	BYTE		        Cn3 
	BYTE		N96     An3 
	BYTE	W96
	BYTE		EOT     En3 
// 043   ----------------------------------------
	BYTE		N66     Bn2 
	BYTE		N66     Dn3 
	BYTE		N66     Fn3 
	BYTE	W66
	BYTE		EOT     Gn3 
	BYTE	W28
	BYTE	W01
	BYTE	GoTo
	 POIN2	SelwynMapNotesCut_FINAL_6_B1
SelwynMapNotesCut_FINAL_6_B2:
	BYTE	FINE

//**************** Track 7 (Midi-Chn.7) ****************//

SelwynMapNotesCut_FINAL_7:
	BYTE	KEYSH   SelwynMapNotesCut_FINAL_key+0
SelwynMapNotesCut_FINAL_7_B1:
// 000   ----------------------------------------
	BYTE		VOICE   30
	BYTE		MODT    0
	BYTE		LFOS    44
	BYTE		VOL     108*SelwynMapNotesCut_FINAL_mvl/mxv
	BYTE		PAN     c_v-19
	BYTE	W96
// 001   ----------------------------------------
	BYTE	W96
// 002   ----------------------------------------
	BYTE	W96
// 003   ----------------------------------------
	BYTE	W96
// 004   ----------------------------------------
SelwynMapNotesCut_FINAL_7_004:
	BYTE		N04     En0   v127
	BYTE		N04     En1 
	BYTE	W12
	BYTE		        Gn0 
	BYTE		N04     Gn1 
	BYTE	W12
	BYTE		N11     Cn1 
	BYTE		N11     Cn2 
	BYTE	W12
	BYTE		        Dn0 
	BYTE		N11     Dn1 
	BYTE	W12
	BYTE		N04     En0 
	BYTE		N04     En1 
	BYTE	W12
	BYTE		N11     Cn1 
	BYTE		N11     Cn2 
	BYTE	W12
	BYTE		        Gn0 
	BYTE		N11     Gn1 
	BYTE	W12
	BYTE		N04     Cn1 
	BYTE		N04     Cn2 
	BYTE	W12
	BYTE	PEND
// 005   ----------------------------------------
SelwynMapNotesCut_FINAL_7_005:
	BYTE		N04     Dn0   v127
	BYTE		N04     Dn1 
	BYTE	W12
	BYTE		        Gn0 
	BYTE		N04     Gn1 
	BYTE	W12
	BYTE		N11     Bn0 
	BYTE		N11     Bn1 
	BYTE	W12
	BYTE		        Cn0 
	BYTE		N11     Cn1 
	BYTE	W12
	BYTE		N04     Dn0 
	BYTE		N04     Dn1 
	BYTE	W12
	BYTE		N11     Gn0 
	BYTE		N11     Gn1 
	BYTE	W12
	BYTE		        Dn0 
	BYTE		N11     Dn1 
	BYTE	W12
	BYTE		N04     Gn0 
	BYTE		N04     Gn1 
	BYTE	W12
	BYTE	PEND
// 006   ----------------------------------------
	BYTE	PATT
	 POIN2	SelwynMapNotesCut_FINAL_7_004
// 007   ----------------------------------------
	BYTE	PATT
	 POIN2	SelwynMapNotesCut_FINAL_7_005
// 008   ----------------------------------------
	BYTE	PATT
	 POIN2	SelwynMapNotesCut_FINAL_7_004
// 009   ----------------------------------------
	BYTE	PATT
	 POIN2	SelwynMapNotesCut_FINAL_7_005
// 010   ----------------------------------------
	BYTE	PATT
	 POIN2	SelwynMapNotesCut_FINAL_7_004
// 011   ----------------------------------------
	BYTE	PATT
	 POIN2	SelwynMapNotesCut_FINAL_7_005
// 012   ----------------------------------------
SelwynMapNotesCut_FINAL_7_012:
	BYTE		N06     Fn0   v127
	BYTE		N06     Fn1 
	BYTE	W36
	BYTE		N05     Dn0 
	BYTE		N05     Dn1 
	BYTE	W06
	BYTE		        En0 
	BYTE		N05     En1 
	BYTE	W06
	BYTE		N11     Fn0 
	BYTE		N11     Fn1 
	BYTE	W12
	BYTE		N04     En0 
	BYTE		N04     En1 
	BYTE	W12
	BYTE		N11     Dn0 
	BYTE		N11     Dn1 
	BYTE	W12
	BYTE		N04     Fn0 
	BYTE		N04     Fn1 
	BYTE	W12
	BYTE	PEND
// 013   ----------------------------------------
SelwynMapNotesCut_FINAL_7_013:
	BYTE		N06     Gn0   v127
	BYTE		N06     Gn1 
	BYTE	W36
	BYTE		N05     En0 
	BYTE		N05     En1 
	BYTE	W06
	BYTE		        Fn0 
	BYTE		N05     Fn1 
	BYTE	W06
	BYTE		N11     Gn0 
	BYTE		N11     Gn1 
	BYTE	W12
	BYTE		N04     Fn0 
	BYTE		N04     Fn1 
	BYTE	W12
	BYTE		N11     En0 
	BYTE		N11     En1 
	BYTE	W12
	BYTE		N04     Gn0 
	BYTE		N04     Gn1 
	BYTE	W12
	BYTE	PEND
// 014   ----------------------------------------
	BYTE	PATT
	 POIN2	SelwynMapNotesCut_FINAL_7_012
// 015   ----------------------------------------
SelwynMapNotesCut_FINAL_7_015:
	BYTE		N06     Gn0   v127
	BYTE		N06     Gn1 
	BYTE	W36
	BYTE		N05     Dn0 
	BYTE		N05     Dn1 
	BYTE	W06
	BYTE		        En0 
	BYTE		N05     En1 
	BYTE	W06
	BYTE		N11     Fn0 
	BYTE		N11     Fn1 
	BYTE	W12
	BYTE		N04     En0 
	BYTE		N04     En1 
	BYTE	W12
	BYTE		N11     Dn0 
	BYTE		N11     Dn1 
	BYTE	W12
	BYTE		N04     Gn0 
	BYTE		N04     Gn1 
	BYTE	W12
	BYTE	PEND
// 016   ----------------------------------------
SelwynMapNotesCut_FINAL_7_016:
	BYTE		N06     An0   v127
	BYTE		N06     An1 
	BYTE	W36
	BYTE		N05     En0 
	BYTE		N05     En1 
	BYTE	W06
	BYTE		        Fn0 
	BYTE		N05     Fn1 
	BYTE	W06
	BYTE		N11     Gn0 
	BYTE		N11     Gn1 
	BYTE	W12
	BYTE		N04     An0 
	BYTE		N04     An1 
	BYTE	W12
	BYTE		N11     En0 
	BYTE		N11     En1 
	BYTE	W12
	BYTE		N04     An0 
	BYTE		N04     An1 
	BYTE	W12
	BYTE	PEND
// 017   ----------------------------------------
SelwynMapNotesCut_FINAL_7_017:
	BYTE		N06     Gn0   v127
	BYTE		N06     Gn1 
	BYTE	W36
	BYTE		N05     BnM1
	BYTE		N05     Bn0 
	BYTE	W06
	BYTE		        Cn0 
	BYTE		N05     Cn1 
	BYTE	W06
	BYTE		N11     Dn0 
	BYTE		N11     Dn1 
	BYTE	W12
	BYTE		N04     Gn0 
	BYTE		N04     Gn1 
	BYTE	W12
	BYTE		N11     En0 
	BYTE		N11     En1 
	BYTE	W12
	BYTE		N04     Gn0 
	BYTE		N04     Gn1 
	BYTE	W12
	BYTE	PEND
// 018   ----------------------------------------
	BYTE	PATT
	 POIN2	SelwynMapNotesCut_FINAL_7_016
// 019   ----------------------------------------
	BYTE	PATT
	 POIN2	SelwynMapNotesCut_FINAL_7_015
// 020   ----------------------------------------
	BYTE	PATT
	 POIN2	SelwynMapNotesCut_FINAL_7_004
// 021   ----------------------------------------
	BYTE	PATT
	 POIN2	SelwynMapNotesCut_FINAL_7_005
// 022   ----------------------------------------
	BYTE	PATT
	 POIN2	SelwynMapNotesCut_FINAL_7_004
// 023   ----------------------------------------
	BYTE	PATT
	 POIN2	SelwynMapNotesCut_FINAL_7_005
// 024   ----------------------------------------
	BYTE	PATT
	 POIN2	SelwynMapNotesCut_FINAL_7_004
// 025   ----------------------------------------
	BYTE	PATT
	 POIN2	SelwynMapNotesCut_FINAL_7_005
// 026   ----------------------------------------
	BYTE	PATT
	 POIN2	SelwynMapNotesCut_FINAL_7_004
// 027   ----------------------------------------
	BYTE	PATT
	 POIN2	SelwynMapNotesCut_FINAL_7_005
// 028   ----------------------------------------
	BYTE		N90     An0   v127
	BYTE	W96
// 029   ----------------------------------------
	BYTE		        Gn0 
	BYTE	W96
// 030   ----------------------------------------
	BYTE		        Fn0 
	BYTE	W96
// 031   ----------------------------------------
	BYTE		        Gn0 
	BYTE	W96
// 032   ----------------------------------------
	BYTE		N06     An0 
	BYTE		N06     An1 
	BYTE	W24
	BYTE		N04     An0 
	BYTE		N04     An1 
	BYTE	W12
	BYTE		N11     En0 
	BYTE		N11     En1 
	BYTE	W12
	BYTE		        An0 
	BYTE		N11     An1 
	BYTE	W12
	BYTE		N04     An0 
	BYTE		N04     An1 
	BYTE	W12
	BYTE		N11     En0 
	BYTE		N11     En1 
	BYTE	W12
	BYTE		N04     An0 
	BYTE		N04     An1 
	BYTE	W12
// 033   ----------------------------------------
SelwynMapNotesCut_FINAL_7_033:
	BYTE		N06     Gn0   v127
	BYTE		N06     Gn1 
	BYTE	W24
	BYTE		N04     Gn0 
	BYTE		N04     Gn1 
	BYTE	W12
	BYTE		N11     Dn0 
	BYTE		N11     Dn1 
	BYTE	W12
	BYTE		        Gn0 
	BYTE		N11     Gn1 
	BYTE	W12
	BYTE		N04     Gn0 
	BYTE		N04     Gn1 
	BYTE	W12
	BYTE		N11     Dn0 
	BYTE		N11     Dn1 
	BYTE	W12
	BYTE		N04     Gn0 
	BYTE		N04     Gn1 
	BYTE	W12
	BYTE	PEND
// 034   ----------------------------------------
	BYTE		N06     Fn0 
	BYTE		N06     Fn1 
	BYTE	W24
	BYTE		N04     Fn0 
	BYTE		N04     Fn1 
	BYTE	W12
	BYTE		N11     Cn0 
	BYTE		N11     Cn1 
	BYTE	W12
	BYTE		        Fn0 
	BYTE		N11     Fn1 
	BYTE	W12
	BYTE		N04     Fn0 
	BYTE		N04     Fn1 
	BYTE	W12
	BYTE		N11     Cn0 
	BYTE		N11     Cn1 
	BYTE	W12
	BYTE		N04     Fn0 
	BYTE		N04     Fn1 
	BYTE	W12
// 035   ----------------------------------------
	BYTE	PATT
	 POIN2	SelwynMapNotesCut_FINAL_7_033
// 036   ----------------------------------------
	BYTE	PATT
	 POIN2	SelwynMapNotesCut_FINAL_7_012
// 037   ----------------------------------------
	BYTE	PATT
	 POIN2	SelwynMapNotesCut_FINAL_7_013
// 038   ----------------------------------------
	BYTE	PATT
	 POIN2	SelwynMapNotesCut_FINAL_7_012
// 039   ----------------------------------------
	BYTE	PATT
	 POIN2	SelwynMapNotesCut_FINAL_7_015
// 040   ----------------------------------------
	BYTE	PATT
	 POIN2	SelwynMapNotesCut_FINAL_7_016
// 041   ----------------------------------------
	BYTE	PATT
	 POIN2	SelwynMapNotesCut_FINAL_7_017
// 042   ----------------------------------------
	BYTE	PATT
	 POIN2	SelwynMapNotesCut_FINAL_7_016
// 043   ----------------------------------------
	BYTE		N06     Gn0   v127
	BYTE		N06     Gn1 
	BYTE	W36
	BYTE		N05     Dn0 
	BYTE		N05     Dn1 
	BYTE	W06
	BYTE		        En0 
	BYTE		N05     En1 
	BYTE	W06
	BYTE		N11     Fn0 
	BYTE		N11     Fn1 
	BYTE	W12
	BYTE		N04     En0 
	BYTE		N04     En1 
	BYTE	W12
	BYTE		N11     Dn0 
	BYTE		N11     Dn1 
	BYTE	W12
	BYTE		N04     Gn0 
	BYTE		N04     Gn1 
	BYTE	W11
	BYTE	GoTo
	 POIN2	SelwynMapNotesCut_FINAL_7_B1
SelwynMapNotesCut_FINAL_7_B2:
	BYTE	FINE

//**************** Track 8 (Midi-Chn.8) ****************//

SelwynMapNotesCut_FINAL_8:
	BYTE	KEYSH   SelwynMapNotesCut_FINAL_key+0
SelwynMapNotesCut_FINAL_8_B1:
// 000   ----------------------------------------
	BYTE		VOICE   127
	BYTE		MODT    0
	BYTE		LFOS    44
	BYTE		VOL     114*SelwynMapNotesCut_FINAL_mvl/mxv
	BYTE		PAN     c_v+0
	BYTE		N11     Bn0   v127
	BYTE		N11     Cn1 
	BYTE		N11     As1 
	BYTE		TIE     En2 
	BYTE		N48     An2 
	BYTE	W12
	BYTE		N05     Fs1 
	BYTE	W06
	BYTE		N05   
	BYTE	W06
	BYTE		N11     As1 
	BYTE	W12
	BYTE		N05     Fs1 
	BYTE	W06
	BYTE		N05   
	BYTE	W06
	BYTE		N11     As1 
	BYTE	W12
	BYTE		N05     Fs1 
	BYTE	W06
	BYTE		N05   
	BYTE	W06
	BYTE		N11     As1 
	BYTE	W12
	BYTE		N05     Bn0 
	BYTE		N05     Cn1 
	BYTE		N05     Fs1 
	BYTE	W06
	BYTE		N05   
	BYTE	W06
// 001   ----------------------------------------
SelwynMapNotesCut_FINAL_8_001:
	BYTE		N11     Bn0   v127
	BYTE		N11     Cn1 
	BYTE		N11     As1 
	BYTE	W12
	BYTE		N05     Fs1 
	BYTE	W06
	BYTE		N05   
	BYTE	W06
	BYTE		N11     As1 
	BYTE	W12
	BYTE		N05     Fs1 
	BYTE	W06
	BYTE		N05   
	BYTE	W06
	BYTE		N11     As1 
	BYTE	W12
	BYTE		N05     Fs1 
	BYTE	W06
	BYTE		N05   
	BYTE	W06
	BYTE		N11     As1 
	BYTE	W12
	BYTE		N05     Bn0 
	BYTE		N05     Cn1 
	BYTE		N05     Fs1 
	BYTE	W06
	BYTE		N05   
	BYTE	W06
	BYTE	PEND
	BYTE		EOT     En2 
// 002   ----------------------------------------
	BYTE	PATT
	 POIN2	SelwynMapNotesCut_FINAL_8_001
// 003   ----------------------------------------
SelwynMapNotesCut_FINAL_8_003:
	BYTE		N11     Bn0   v127
	BYTE		N11     Cn1 
	BYTE		N11     As1 
	BYTE	W12
	BYTE		N05     Fs1 
	BYTE	W06
	BYTE		N05   
	BYTE	W06
	BYTE		N11     As1 
	BYTE	W12
	BYTE		N05     Fs1 
	BYTE	W06
	BYTE		N05   
	BYTE	W06
	BYTE		N11     As1 
	BYTE	W12
	BYTE		N05     Fs1 
	BYTE	W06
	BYTE		N05   
	BYTE	W06
	BYTE		        As1 
	BYTE		N05     Dn2 
	BYTE	W06
	BYTE		        Cn2 
	BYTE	W06
	BYTE		        Bn0 
	BYTE		N05     Cn1 
	BYTE		N05     Fs1 
	BYTE		N05     Bn1 
	BYTE	W06
	BYTE		        Fs1 
	BYTE		N05     An1 
	BYTE	W06
	BYTE	PEND
// 004   ----------------------------------------
SelwynMapNotesCut_FINAL_8_004:
	BYTE		N11     Bn0   v127
	BYTE		N11     Cn1 
	BYTE		N11     As1 
	BYTE	W12
	BYTE		N05     Fs1 
	BYTE	W06
	BYTE		N05   
	BYTE	W06
	BYTE		N11     As1 
	BYTE	W12
	BYTE		N05     Bn0 
	BYTE		N05     Cn1 
	BYTE		N05     Fs1 
	BYTE	W06
	BYTE		N05   
	BYTE	W06
	BYTE		N11     Bn0 
	BYTE		N11     Cn1 
	BYTE		N11     As1 
	BYTE	W12
	BYTE		N05     Fs1 
	BYTE	W06
	BYTE		N05   
	BYTE	W06
	BYTE		N11     Dn1 
	BYTE		N11     En1 
	BYTE		N11     As1 
	BYTE	W12
	BYTE		N05     Bn0 
	BYTE		N05     Cn1 
	BYTE		N05     Fs1 
	BYTE	W06
	BYTE		N05   
	BYTE	W06
	BYTE	PEND
// 005   ----------------------------------------
	BYTE	PATT
	 POIN2	SelwynMapNotesCut_FINAL_8_004
// 006   ----------------------------------------
	BYTE	PATT
	 POIN2	SelwynMapNotesCut_FINAL_8_004
// 007   ----------------------------------------
	BYTE	PATT
	 POIN2	SelwynMapNotesCut_FINAL_8_004
// 008   ----------------------------------------
	BYTE	PATT
	 POIN2	SelwynMapNotesCut_FINAL_8_004
// 009   ----------------------------------------
	BYTE	PATT
	 POIN2	SelwynMapNotesCut_FINAL_8_004
// 010   ----------------------------------------
	BYTE	PATT
	 POIN2	SelwynMapNotesCut_FINAL_8_004
// 011   ----------------------------------------
	BYTE	PATT
	 POIN2	SelwynMapNotesCut_FINAL_8_004
// 012   ----------------------------------------
	BYTE	PATT
	 POIN2	SelwynMapNotesCut_FINAL_8_004
// 013   ----------------------------------------
	BYTE	PATT
	 POIN2	SelwynMapNotesCut_FINAL_8_004
// 014   ----------------------------------------
	BYTE	PATT
	 POIN2	SelwynMapNotesCut_FINAL_8_004
// 015   ----------------------------------------
	BYTE	PATT
	 POIN2	SelwynMapNotesCut_FINAL_8_004
// 016   ----------------------------------------
	BYTE	PATT
	 POIN2	SelwynMapNotesCut_FINAL_8_004
// 017   ----------------------------------------
	BYTE	PATT
	 POIN2	SelwynMapNotesCut_FINAL_8_004
// 018   ----------------------------------------
	BYTE	PATT
	 POIN2	SelwynMapNotesCut_FINAL_8_004
// 019   ----------------------------------------
SelwynMapNotesCut_FINAL_8_019:
	BYTE		N11     Bn0   v127
	BYTE		N11     Cn1 
	BYTE		N11     As1 
	BYTE	W12
	BYTE		N05     Fs1 
	BYTE	W06
	BYTE		N05   
	BYTE	W06
	BYTE		N11     As1 
	BYTE	W12
	BYTE		N05     Bn0 
	BYTE		N05     Cn1 
	BYTE		N05     Fs1 
	BYTE	W06
	BYTE		N05   
	BYTE	W06
	BYTE		N11     Bn0 
	BYTE		N11     Cn1 
	BYTE		N11     As1 
	BYTE	W12
	BYTE		N05     Fs1 
	BYTE	W06
	BYTE		N05   
	BYTE	W06
	BYTE		        Dn1 
	BYTE		N05     En1 
	BYTE		N05     As1 
	BYTE	W06
	BYTE		        Dn1 
	BYTE		N05     En1 
	BYTE	W06
	BYTE		        Bn0 
	BYTE		N05     Cn1 
	BYTE		N05     Dn1 
	BYTE		N05     En1 
	BYTE		N05     Fs1 
	BYTE	W06
	BYTE		        Dn1 
	BYTE		N05     En1 
	BYTE		N05     Fs1 
	BYTE	W06
	BYTE	PEND
// 020   ----------------------------------------
SelwynMapNotesCut_FINAL_8_020:
	BYTE		N11     Bn0   v127
	BYTE		N11     Cn1 
	BYTE		N11     As1 
	BYTE	W12
	BYTE		N05     Bn0 
	BYTE		N05     Cn1 
	BYTE		N05     Fs1 
	BYTE	W06
	BYTE		N05   
	BYTE	W06
	BYTE		N11     Dn1 
	BYTE		N11     En1 
	BYTE		N11     As1 
	BYTE		N11     Bn1 
	BYTE		N11     Cn2 
	BYTE		N11     Dn2 
	BYTE	W12
	BYTE		N05     Bn0 
	BYTE		N05     Cn1 
	BYTE		N05     Fs1 
	BYTE	W06
	BYTE		        Bn0 
	BYTE		N05     Cn1 
	BYTE		N05     Fs1 
	BYTE	W06
	BYTE		        Bn0 
	BYTE		N05     Cn1 
	BYTE		N05     As1 
	BYTE	W06
	BYTE		        Bn0 
	BYTE		N05     Cn1 
	BYTE	W06
	BYTE		N05   
	BYTE		N05     Dn1 
	BYTE		N05     Fs1 
	BYTE	W06
	BYTE		N05   
	BYTE	W06
	BYTE		N11     Dn1 
	BYTE		N11     En1 
	BYTE		N11     As1 
	BYTE		N11     Bn1 
	BYTE		N11     Cn2 
	BYTE		N11     Dn2 
	BYTE	W12
	BYTE		N05     Bn0 
	BYTE		N05     Cn1 
	BYTE		N05     Fs1 
	BYTE	W06
	BYTE		N05   
	BYTE	W06
	BYTE	PEND
// 021   ----------------------------------------
	BYTE	PATT
	 POIN2	SelwynMapNotesCut_FINAL_8_020
// 022   ----------------------------------------
	BYTE	PATT
	 POIN2	SelwynMapNotesCut_FINAL_8_020
// 023   ----------------------------------------
	BYTE	PATT
	 POIN2	SelwynMapNotesCut_FINAL_8_020
// 024   ----------------------------------------
	BYTE	PATT
	 POIN2	SelwynMapNotesCut_FINAL_8_020
// 025   ----------------------------------------
	BYTE	PATT
	 POIN2	SelwynMapNotesCut_FINAL_8_020
// 026   ----------------------------------------
	BYTE	PATT
	 POIN2	SelwynMapNotesCut_FINAL_8_020
// 027   ----------------------------------------
	BYTE	PATT
	 POIN2	SelwynMapNotesCut_FINAL_8_020
// 028   ----------------------------------------
	BYTE	PATT
	 POIN2	SelwynMapNotesCut_FINAL_8_001
// 029   ----------------------------------------
	BYTE	PATT
	 POIN2	SelwynMapNotesCut_FINAL_8_001
// 030   ----------------------------------------
	BYTE	PATT
	 POIN2	SelwynMapNotesCut_FINAL_8_001
// 031   ----------------------------------------
	BYTE	PATT
	 POIN2	SelwynMapNotesCut_FINAL_8_003
// 032   ----------------------------------------
	BYTE	PATT
	 POIN2	SelwynMapNotesCut_FINAL_8_004
// 033   ----------------------------------------
	BYTE	PATT
	 POIN2	SelwynMapNotesCut_FINAL_8_004
// 034   ----------------------------------------
	BYTE	PATT
	 POIN2	SelwynMapNotesCut_FINAL_8_004
// 035   ----------------------------------------
	BYTE	PATT
	 POIN2	SelwynMapNotesCut_FINAL_8_019
// 036   ----------------------------------------
	BYTE	PATT
	 POIN2	SelwynMapNotesCut_FINAL_8_020
// 037   ----------------------------------------
	BYTE	PATT
	 POIN2	SelwynMapNotesCut_FINAL_8_020
// 038   ----------------------------------------
	BYTE	PATT
	 POIN2	SelwynMapNotesCut_FINAL_8_020
// 039   ----------------------------------------
	BYTE	PATT
	 POIN2	SelwynMapNotesCut_FINAL_8_020
// 040   ----------------------------------------
	BYTE	PATT
	 POIN2	SelwynMapNotesCut_FINAL_8_020
// 041   ----------------------------------------
	BYTE	PATT
	 POIN2	SelwynMapNotesCut_FINAL_8_020
// 042   ----------------------------------------
	BYTE	PATT
	 POIN2	SelwynMapNotesCut_FINAL_8_020
// 043   ----------------------------------------
	BYTE		N11     Bn0   v127
	BYTE		N11     Cn1 
	BYTE		N11     As1 
	BYTE	W12
	BYTE		N05     Bn0 
	BYTE		N05     Cn1 
	BYTE		N05     Fs1 
	BYTE	W06
	BYTE		N05   
	BYTE	W06
	BYTE		N11     Dn1 
	BYTE		N11     En1 
	BYTE		N11     As1 
	BYTE		N11     Bn1 
	BYTE		N11     Cn2 
	BYTE		N11     Dn2 
	BYTE	W12
	BYTE		N05     Bn0 
	BYTE		N05     Cn1 
	BYTE		N05     Fs1 
	BYTE	W06
	BYTE		        Bn0 
	BYTE		N05     Cn1 
	BYTE		N05     Fs1 
	BYTE	W06
	BYTE		        Bn0 
	BYTE		N05     Cn1 
	BYTE		N05     As1 
	BYTE	W06
	BYTE		        Bn0 
	BYTE		N05     Cn1 
	BYTE	W06
	BYTE		N05   
	BYTE		N05     Dn1 
	BYTE		N05     Fs1 
	BYTE	W06
	BYTE		N05   
	BYTE	W06
	BYTE		        Dn1 
	BYTE		N05     En1 
	BYTE		N05     As1 
	BYTE		N05     Bn1 
	BYTE		N05     Cn2 
	BYTE		N05     Dn2 
	BYTE	W06
	BYTE		        Dn1 
	BYTE		N05     En1 
	BYTE	W06
	BYTE		        Bn0 
	BYTE		N05     Cn1 
	BYTE		N05     Dn1 
	BYTE		N05     En1 
	BYTE		N05     Fs1 
	BYTE	W06
	BYTE		        Dn1 
	BYTE		N05     En1 
	BYTE		N05     Fs1 
	BYTE	W05
	BYTE	GoTo
	 POIN2	SelwynMapNotesCut_FINAL_8_B1
SelwynMapNotesCut_FINAL_8_B2:
	BYTE	FINE

//**************** Track 9 (Midi-Chn.9) ****************//

SelwynMapNotesCut_FINAL_9:
	BYTE	KEYSH   SelwynMapNotesCut_FINAL_key+0
SelwynMapNotesCut_FINAL_9_B1:
// 000   ----------------------------------------
	BYTE		VOICE   100
	BYTE		MODT    0
	BYTE		LFOS    44
	BYTE		PAN     c_v+63
	BYTE		VOL     114*SelwynMapNotesCut_FINAL_mvl/mxv
	BYTE	W96
// 001   ----------------------------------------
	BYTE	W96
// 002   ----------------------------------------
	BYTE	W96
// 003   ----------------------------------------
	BYTE	W96
// 004   ----------------------------------------
	BYTE	W96
// 005   ----------------------------------------
	BYTE	W96
// 006   ----------------------------------------
	BYTE	W96
// 007   ----------------------------------------
	BYTE	W96
// 008   ----------------------------------------
	BYTE	W96
// 009   ----------------------------------------
	BYTE	W96
// 010   ----------------------------------------
	BYTE	W96
// 011   ----------------------------------------
	BYTE	W96
// 012   ----------------------------------------
	BYTE	W96
// 013   ----------------------------------------
	BYTE	W96
// 014   ----------------------------------------
	BYTE	W96
// 015   ----------------------------------------
	BYTE	W96
// 016   ----------------------------------------
	BYTE	W96
// 017   ----------------------------------------
	BYTE	W96
// 018   ----------------------------------------
	BYTE	W96
// 019   ----------------------------------------
	BYTE	W96
// 020   ----------------------------------------
	BYTE	W96
// 021   ----------------------------------------
	BYTE	W96
// 022   ----------------------------------------
	BYTE	W96
// 023   ----------------------------------------
	BYTE	W96
// 024   ----------------------------------------
	BYTE	W96
// 025   ----------------------------------------
	BYTE	W96
// 026   ----------------------------------------
	BYTE	W96
// 027   ----------------------------------------
	BYTE	W96
// 028   ----------------------------------------
	BYTE		N48     Ds3   v127
	BYTE	W48
	BYTE		N12     As3 
	BYTE	W12
	BYTE		        Gs3 
	BYTE	W12
	BYTE		        Fs3 
	BYTE	W12
	BYTE		N60     Gs3 
	BYTE	W12
// 029   ----------------------------------------
	BYTE	W48
	BYTE		N12     Fn3 
	BYTE	W12
	BYTE		        Fs3 
	BYTE	W12
	BYTE		        Gs3 
	BYTE	W12
	BYTE		        Cs4 
	BYTE	W12
// 030   ----------------------------------------
	BYTE		N48     As3 
	BYTE	W48
	BYTE		N12     Fs3 
	BYTE	W12
	BYTE		        Fn3 
	BYTE	W12
	BYTE		        Fs3 
	BYTE	W12
	BYTE		N60     Gs3 
	BYTE	W12
// 031   ----------------------------------------
	BYTE	W48
	BYTE		N48     As3 
	BYTE	W48
// 032   ----------------------------------------
	BYTE	W96
// 033   ----------------------------------------
	BYTE	W96
// 034   ----------------------------------------
	BYTE	W96
// 035   ----------------------------------------
	BYTE	W96
// 036   ----------------------------------------
	BYTE	W96
// 037   ----------------------------------------
	BYTE	W96
// 038   ----------------------------------------
	BYTE	W96
// 039   ----------------------------------------
	BYTE	W96
// 040   ----------------------------------------
	BYTE	W96
// 041   ----------------------------------------
	BYTE	W96
// 042   ----------------------------------------
	BYTE	W96
// 043   ----------------------------------------
	BYTE	W92
	BYTE	W03
	BYTE	GoTo
	 POIN2	SelwynMapNotesCut_FINAL_9_B1
SelwynMapNotesCut_FINAL_9_B2:
	BYTE	FINE

//******************************************************//
	ALIGN 4

SelwynMapNotesCut_FINAL:
	BYTE	9	// NumTrks
	BYTE	0	// NumBlks
	BYTE	SelwynMapNotesCut_FINAL_pri	// Priority
	BYTE	SelwynMapNotesCut_FINAL_rev	// Reverb.

	POIN2	SelwynMapNotesCut_FINAL_grp

	POIN2	SelwynMapNotesCut_FINAL_1
	POIN2	SelwynMapNotesCut_FINAL_2
	POIN2	SelwynMapNotesCut_FINAL_3
	POIN2	SelwynMapNotesCut_FINAL_4
	POIN2	SelwynMapNotesCut_FINAL_5
	POIN2	SelwynMapNotesCut_FINAL_6
	POIN2	SelwynMapNotesCut_FINAL_7
	POIN2	SelwynMapNotesCut_FINAL_8
	POIN2	SelwynMapNotesCut_FINAL_9

	
