//Event file generated from Sappy .s format.
	#include "MPlayDef.event"

	#define	Unity_FINAL_grp  voicegroup000
	#define	Unity_FINAL_pri  0
	#define	Unity_FINAL_rev  94
	#define	Unity_FINAL_mvl  33
	#define	Unity_FINAL_key  0
	#define	Unity_FINAL_tbs  1
	#define	Unity_FINAL_exg  0
	#define	Unity_FINAL_cmp  1

	// .rodata
	//	Unity_FINAL
	ALIGN 4

//**************** Track 1 (Midi-Chn.1) ****************//

Unity_FINAL_1:
	BYTE	KEYSH   Unity_FINAL_key+0
Unity_FINAL_1_B1:
// 000   ----------------------------------------
	BYTE	TEMPO   100*Unity_FINAL_tbs/2
	BYTE		VOICE   61
	BYTE		MODT    0
	BYTE		LFOS    44
	BYTE		VOL     94*Unity_FINAL_mvl/mxv
	BYTE		PAN     c_v-13
	BYTE	W96
// 001   ----------------------------------------
	BYTE	W96
// 002   ----------------------------------------
	BYTE	W96
// 003   ----------------------------------------
	BYTE	W96
// 004   ----------------------------------------
Unity_FINAL_1_004:
	BYTE		N96     Fn3   v056
	BYTE		N96     An3 
	BYTE		TIE     Cn4 
	BYTE	W96
	BYTE	PEND
// 005   ----------------------------------------
	BYTE		N96     En3 
	BYTE		N96     Gn3 
	BYTE		N96     As3 
	BYTE	W96
// 006   ----------------------------------------
	BYTE		        Fn3 
	BYTE		N96     An3 
	BYTE	W96
	BYTE		EOT     Cn4 
// 007   ----------------------------------------
	BYTE		N96     En3 
	BYTE		N96     Gn3 
	BYTE		N96     As3 
	BYTE	W96
// 008   ----------------------------------------
	BYTE	PATT
	 POIN2	Unity_FINAL_1_004
// 009   ----------------------------------------
	BYTE		N96     En3   v056
	BYTE		N96     Gn3 
	BYTE		N96     As3 
	BYTE	W96
// 010   ----------------------------------------
	BYTE		        Fn3 
	BYTE		N96     An3 
	BYTE	W96
	BYTE		EOT     Cn4 
// 011   ----------------------------------------
	BYTE		N90     En3 
	BYTE		N90     Gn3 
	BYTE		N90     As3 
	BYTE	W96
// 012   ----------------------------------------
	BYTE		TIE     Dn3 
	BYTE		N96     Fn3 
	BYTE		TIE     As3 
	BYTE	W96
// 013   ----------------------------------------
	BYTE		        Gn3 
	BYTE	W96
	BYTE		EOT     Dn3 
// 014   ----------------------------------------
	BYTE		N96     En3 
	BYTE		N96     Cn4 
	BYTE	W96
	BYTE		EOT     Gn3 
	BYTE		        As3 
// 015   ----------------------------------------
	BYTE		N96     Fn3 
	BYTE		N96     An3 
	BYTE		N96     Dn4 
	BYTE	W96
// 016   ----------------------------------------
	BYTE		        Gn3 
	BYTE		N96     Cn4 
	BYTE		N96     Ds4 
	BYTE	W96
// 017   ----------------------------------------
	BYTE		        Gn3 
	BYTE		N96     Bn3 
	BYTE		N96     Dn4 
	BYTE	W96
// 018   ----------------------------------------
	BYTE		TIE     En3 
	BYTE		N96     An3 
	BYTE		TIE     Cn4 
	BYTE	W96
// 019   ----------------------------------------
	BYTE		N90     Gn3 
	BYTE		N90     As3 
	BYTE	W90
	BYTE		EOT     En3 
	BYTE		        Cn4 
	BYTE	W06
// 020   ----------------------------------------
Unity_FINAL_1_020:
	BYTE		N04     Dn3   v056
	BYTE		N04     Fn3 
	BYTE		N04     An3 
	BYTE		N04     Dn4 
	BYTE	W12
	BYTE		        Dn3 
	BYTE		N04     Fn3 
	BYTE		N04     An3 
	BYTE		N04     Dn4 
	BYTE	W12
	BYTE		        Dn3 
	BYTE		N04     Fn3 
	BYTE		N04     An3 
	BYTE		N04     Dn4 
	BYTE	W12
	BYTE		        Dn3 
	BYTE		N04     Fn3 
	BYTE		N04     An3 
	BYTE		N04     Dn4 
	BYTE	W12
	BYTE		        Dn3 
	BYTE		N04     Fn3 
	BYTE		N04     An3 
	BYTE		N04     Dn4 
	BYTE	W12
	BYTE		        Dn3 
	BYTE		N04     Fn3 
	BYTE		N04     An3 
	BYTE		N04     Dn4 
	BYTE	W12
	BYTE		        Dn3 
	BYTE		N04     Fn3 
	BYTE		N04     An3 
	BYTE		N04     Dn4 
	BYTE	W12
	BYTE		        Dn3 
	BYTE		N04     Fn3 
	BYTE		N04     An3 
	BYTE		N04     Dn4 
	BYTE	W12
	BYTE	PEND
// 021   ----------------------------------------
Unity_FINAL_1_021:
	BYTE		N04     Dn3   v056
	BYTE		N04     Fs3 
	BYTE		N04     An3 
	BYTE		N04     Dn4 
	BYTE	W12
	BYTE		        Dn3 
	BYTE		N04     Fs3 
	BYTE		N04     An3 
	BYTE		N04     Dn4 
	BYTE	W12
	BYTE		        Dn3 
	BYTE		N04     Fs3 
	BYTE		N04     An3 
	BYTE		N04     Dn4 
	BYTE	W12
	BYTE		        Dn3 
	BYTE		N04     Fs3 
	BYTE		N04     An3 
	BYTE		N04     Dn4 
	BYTE	W12
	BYTE		        Dn3 
	BYTE		N04     Fs3 
	BYTE		N04     An3 
	BYTE		N04     Dn4 
	BYTE	W12
	BYTE		        Dn3 
	BYTE		N04     Fs3 
	BYTE		N04     An3 
	BYTE		N04     Dn4 
	BYTE	W12
	BYTE		        Dn3 
	BYTE		N04     Fs3 
	BYTE		N04     An3 
	BYTE		N04     Dn4 
	BYTE	W12
	BYTE		        Dn3 
	BYTE		N04     Fs3 
	BYTE		N04     An3 
	BYTE		N04     Dn4 
	BYTE	W12
	BYTE	PEND
// 022   ----------------------------------------
Unity_FINAL_1_022:
	BYTE		N04     Ds3   v056
	BYTE		N04     Gn3 
	BYTE		N04     Cn4 
	BYTE		N04     Ds4 
	BYTE	W12
	BYTE		        Ds3 
	BYTE		N04     Gn3 
	BYTE		N04     Cn4 
	BYTE		N04     Ds4 
	BYTE	W12
	BYTE		        Ds3 
	BYTE		N04     Gn3 
	BYTE		N04     Cn4 
	BYTE		N04     Ds4 
	BYTE	W12
	BYTE		        Ds3 
	BYTE		N04     Gn3 
	BYTE		N04     Cn4 
	BYTE		N04     Ds4 
	BYTE	W12
	BYTE		        Ds3 
	BYTE		N04     Gn3 
	BYTE		N04     Cn4 
	BYTE		N04     Ds4 
	BYTE	W12
	BYTE		        Ds3 
	BYTE		N04     Gn3 
	BYTE		N04     Cn4 
	BYTE		N04     Ds4 
	BYTE	W12
	BYTE		        Ds3 
	BYTE		N04     Gn3 
	BYTE		N04     Cn4 
	BYTE		N04     Ds4 
	BYTE	W12
	BYTE		        Ds3 
	BYTE		N04     Gn3 
	BYTE		N04     Cn4 
	BYTE		N04     Ds4 
	BYTE	W12
	BYTE	PEND
// 023   ----------------------------------------
	BYTE		        En3 
	BYTE		N04     Gn3 
	BYTE		N04     Bn3 
	BYTE		N04     Dn4 
	BYTE	W12
	BYTE		        En3 
	BYTE		N04     Gn3 
	BYTE		N04     Bn3 
	BYTE		N04     Dn4 
	BYTE	W12
	BYTE		        En3 
	BYTE		N04     Gn3 
	BYTE		N04     Bn3 
	BYTE		N04     Dn4 
	BYTE	W12
	BYTE		        En3 
	BYTE		N04     Gn3 
	BYTE		N04     Bn3 
	BYTE		N04     Dn4 
	BYTE	W12
	BYTE		        En3 
	BYTE		N04     Gn3 
	BYTE		N04     Bn3 
	BYTE		N04     Dn4 
	BYTE	W12
	BYTE		        En3 
	BYTE		N04     Gn3 
	BYTE		N04     Bn3 
	BYTE		N04     Dn4 
	BYTE	W12
	BYTE		        En3 
	BYTE		N04     Gn3 
	BYTE		N04     Bn3 
	BYTE		N04     Dn4 
	BYTE	W12
	BYTE		        En3 
	BYTE		N04     Gn3 
	BYTE		N04     Bn3 
	BYTE		N04     Dn4 
	BYTE	W12
// 024   ----------------------------------------
	BYTE	PATT
	 POIN2	Unity_FINAL_1_020
// 025   ----------------------------------------
	BYTE	PATT
	 POIN2	Unity_FINAL_1_021
// 026   ----------------------------------------
	BYTE	PATT
	 POIN2	Unity_FINAL_1_022
// 027   ----------------------------------------
	BYTE		N04     Cn3   v056
	BYTE		N04     En3 
	BYTE		N04     Gn3 
	BYTE		N04     As3 
	BYTE		N04     Cn4 
	BYTE		N04     En4 
	BYTE	W12
	BYTE		        Cn3 
	BYTE		N04     En3 
	BYTE		N04     Gn3 
	BYTE		N04     As3 
	BYTE		N04     Cn4 
	BYTE		N04     En4 
	BYTE	W12
	BYTE		        Cn3 
	BYTE		N04     En3 
	BYTE		N04     Gn3 
	BYTE		N04     As3 
	BYTE		N04     Cn4 
	BYTE		N04     En4 
	BYTE	W12
	BYTE		        Cn3 
	BYTE		N04     En3 
	BYTE		N04     Gn3 
	BYTE		N04     As3 
	BYTE		N04     Cn4 
	BYTE		N04     En4 
	BYTE	W12
	BYTE		N12     Cn3 
	BYTE		N12     En3 
	BYTE		N12     Gn3 
	BYTE		N12     As3 
	BYTE		N12     Cn4 
	BYTE		N12     En4 
	BYTE	W12
	BYTE		        Gn4 
	BYTE	W12
	BYTE		        An4 
	BYTE	W12
	BYTE		N11     As4 
	BYTE	W11
	BYTE	GoTo
	 POIN2	Unity_FINAL_1_B1
Unity_FINAL_1_B2:
	BYTE	FINE

//**************** Track 2 (Midi-Chn.2) ****************//

Unity_FINAL_2:
	BYTE	KEYSH   Unity_FINAL_key+0
Unity_FINAL_2_B1:
// 000   ----------------------------------------
	BYTE		VOICE   48
	BYTE		MODT    0
	BYTE		LFOS    44
	BYTE		VOL     119*Unity_FINAL_mvl/mxv
	BYTE		PAN     c_v+15
	BYTE	W96
// 001   ----------------------------------------
	BYTE	W96
// 002   ----------------------------------------
	BYTE	W96
// 003   ----------------------------------------
	BYTE	W96
// 004   ----------------------------------------
	BYTE		N32     Cn3   v127
	BYTE	W36
	BYTE		N11     Fn3 
	BYTE	W12
	BYTE		N42   
	BYTE	W48
// 005   ----------------------------------------
	BYTE		N32     Cn3 
	BYTE	W36
	BYTE		N11     En3 
	BYTE	W12
	BYTE		N15   
	BYTE	W16
	BYTE		        Fn3 
	BYTE	W16
	BYTE		        Gn3 
	BYTE	W16
// 006   ----------------------------------------
	BYTE		N32     An3 
	BYTE	W36
	BYTE		N11     Fn3 
	BYTE	W12
	BYTE		N11   
	BYTE	W12
	BYTE		        Gn3 
	BYTE	W12
	BYTE		        An3 
	BYTE	W12
	BYTE		        Fn3 
	BYTE	W12
// 007   ----------------------------------------
	BYTE		        Gn3 
	BYTE	W12
	BYTE		        Fn3 
	BYTE	W12
	BYTE		        En3 
	BYTE	W12
	BYTE		        Fn3 
	BYTE	W12
	BYTE		        En3 
	BYTE	W12
	BYTE		        Cn3 
	BYTE	W12
	BYTE		        Dn3 
	BYTE	W12
	BYTE		        En3 
	BYTE	W12
// 008   ----------------------------------------
	BYTE		N32     Fn3 
	BYTE	W36
	BYTE		N11     An3 
	BYTE	W12
	BYTE		N42   
	BYTE	W48
// 009   ----------------------------------------
	BYTE		N32     Gn3 
	BYTE	W36
	BYTE		N11     As3 
	BYTE	W12
	BYTE		N15   
	BYTE	W16
	BYTE		        An3 
	BYTE	W16
	BYTE		        Gn3 
	BYTE	W16
// 010   ----------------------------------------
	BYTE		N11     Fn3 
	BYTE	W12
	BYTE		        Gn3 
	BYTE	W12
	BYTE		        An3 
	BYTE	W12
	BYTE		        As3 
	BYTE	W12
	BYTE		        Cn4 
	BYTE	W12
	BYTE		        Fn4 
	BYTE	W12
	BYTE		        En4 
	BYTE	W12
	BYTE		        Fn4 
	BYTE	W12
// 011   ----------------------------------------
	BYTE		        En4 
	BYTE	W12
	BYTE		        Dn4 
	BYTE	W12
	BYTE		        Cn4 
	BYTE	W12
	BYTE		        Dn4 
	BYTE	W12
	BYTE		N42     Cn4 
	BYTE	W48
// 012   ----------------------------------------
	BYTE		N32     Dn4 
	BYTE	W36
	BYTE		N11     As3 
	BYTE	W12
	BYTE		N42   
	BYTE	W48
// 013   ----------------------------------------
	BYTE		N32     Gn3 
	BYTE	W36
	BYTE		N11     Dn3 
	BYTE	W12
	BYTE		N15     Gn3 
	BYTE	W16
	BYTE		        An3 
	BYTE	W16
	BYTE		        As3 
	BYTE	W16
// 014   ----------------------------------------
	BYTE		N32     Cn4 
	BYTE	W36
	BYTE		N05     Dn4 
	BYTE	W06
	BYTE		        Cn4 
	BYTE	W06
	BYTE		N11     En4 
	BYTE	W12
	BYTE		        Cn4 
	BYTE	W12
	BYTE		        Dn4 
	BYTE	W12
	BYTE		        En4 
	BYTE	W12
// 015   ----------------------------------------
	BYTE		        Fn4 
	BYTE	W12
	BYTE		        Gn4 
	BYTE	W12
	BYTE		        An4 
	BYTE	W12
	BYTE		        As4 
	BYTE	W12
	BYTE		N42     An4 
	BYTE	W48
// 016   ----------------------------------------
	BYTE		N32     Gn4 
	BYTE	W36
	BYTE		N11     Ds4 
	BYTE	W12
	BYTE		N42   
	BYTE	W48
// 017   ----------------------------------------
	BYTE		N32     Gn4 
	BYTE	W36
	BYTE		N11     Dn4 
	BYTE	W12
	BYTE		        Bn3 
	BYTE	W12
	BYTE		        Cn4 
	BYTE	W12
	BYTE		        Dn4 
	BYTE	W12
	BYTE		        En4 
	BYTE	W12
// 018   ----------------------------------------
	BYTE		        Dn4 
	BYTE	W12
	BYTE		        Cn4 
	BYTE	W12
	BYTE		        Bn3 
	BYTE	W12
	BYTE		        Cn4 
	BYTE	W12
	BYTE		        En4 
	BYTE	W12
	BYTE		        Fn4 
	BYTE	W12
	BYTE		        Gn4 
	BYTE	W12
	BYTE		        Dn4 
	BYTE	W12
// 019   ----------------------------------------
	BYTE		N20     Cn4 
	BYTE	W24
	BYTE		        As3 
	BYTE	W24
	BYTE		        An3 
	BYTE	W24
	BYTE		        Gn3 
	BYTE	W24
// 020   ----------------------------------------
	BYTE		N66     Fn3 
	BYTE	W96
// 021   ----------------------------------------
	BYTE	W96
// 022   ----------------------------------------
	BYTE	W96
// 023   ----------------------------------------
	BYTE	W96
// 024   ----------------------------------------
	BYTE		N15   
	BYTE	W16
	BYTE		        Dn3 
	BYTE	W16
	BYTE		        Fn3 
	BYTE	W16
	BYTE		        An3 
	BYTE	W16
	BYTE		        Gn3 
	BYTE	W16
	BYTE		        Fn3 
	BYTE	W16
// 025   ----------------------------------------
	BYTE		        Dn3 
	BYTE	W16
	BYTE		        An2 
	BYTE	W16
	BYTE		        Dn3 
	BYTE	W16
	BYTE		        Fs3 
	BYTE	W16
	BYTE		        Gn3 
	BYTE	W16
	BYTE		        An3 
	BYTE	W16
// 026   ----------------------------------------
	BYTE		        As3 
	BYTE	W16
	BYTE		        Gn3 
	BYTE	W16
	BYTE		        As3 
	BYTE	W16
	BYTE		        Cn4 
	BYTE	W16
	BYTE		        Dn4 
	BYTE	W16
	BYTE		        Ds4 
	BYTE	W16
// 027   ----------------------------------------
	BYTE		N66     En4 
	BYTE	W92
	BYTE	W03
	BYTE	GoTo
	 POIN2	Unity_FINAL_2_B1
Unity_FINAL_2_B2:
	BYTE	FINE

//**************** Track 3 (Midi-Chn.3) ****************//

Unity_FINAL_3:
	BYTE	KEYSH   Unity_FINAL_key+0
Unity_FINAL_3_B1:
// 000   ----------------------------------------
	BYTE		VOICE   122
	BYTE		MODT    0
	BYTE		LFOS    44
	BYTE		VOL     114*Unity_FINAL_mvl/mxv
	BYTE		PAN     c_v+0
	BYTE	W96
// 001   ----------------------------------------
	BYTE	W96
// 002   ----------------------------------------
	BYTE	W96
// 003   ----------------------------------------
Unity_FINAL_3_003:
	BYTE	W72
	BYTE		N11     Cn1   v127
	BYTE		N11     Cs1 
	BYTE	W12
	BYTE		        Cn1 
	BYTE		N11     Cs1 
	BYTE	W12
	BYTE	PEND
// 004   ----------------------------------------
Unity_FINAL_3_004:
	BYTE		N07     Cn1   v127
	BYTE		N07     Gs1 
	BYTE	W08
	BYTE		N03     Fs1 
	BYTE	W04
	BYTE		N11     Cn1 
	BYTE		N11     Gs1 
	BYTE	W12
	BYTE		        En1 
	BYTE		N11     As1 
	BYTE	W12
	BYTE		N07     Fs1 
	BYTE	W08
	BYTE		N03     Cn1 
	BYTE		N03     As1 
	BYTE	W04
	BYTE		N07     Cn1 
	BYTE		N07     Gs1 
	BYTE	W08
	BYTE		N03     Fs1 
	BYTE	W04
	BYTE		N11     Cn1 
	BYTE		N11     Gs1 
	BYTE	W12
	BYTE		        En1 
	BYTE		N11     Fs1 
	BYTE	W12
	BYTE		N07     Cn1 
	BYTE		N07     Fs1 
	BYTE	W08
	BYTE		N03     As1 
	BYTE	W04
	BYTE	PEND
// 005   ----------------------------------------
	BYTE	PATT
	 POIN2	Unity_FINAL_3_004
// 006   ----------------------------------------
	BYTE	PATT
	 POIN2	Unity_FINAL_3_004
// 007   ----------------------------------------
Unity_FINAL_3_007:
	BYTE		N07     Cn1   v127
	BYTE		N07     Gs1 
	BYTE	W08
	BYTE		N03     Fs1 
	BYTE	W04
	BYTE		N11     Cn1 
	BYTE		N11     Gs1 
	BYTE	W12
	BYTE		        En1 
	BYTE		N11     As1 
	BYTE	W12
	BYTE		N07     Fs1 
	BYTE	W08
	BYTE		N03     Cn1 
	BYTE		N03     As1 
	BYTE	W04
	BYTE		N07     Cn1 
	BYTE		N07     Gs1 
	BYTE	W08
	BYTE		N03     Fs1 
	BYTE	W04
	BYTE		N11     Cn1 
	BYTE		N11     Gs1 
	BYTE	W12
	BYTE		        En1 
	BYTE		N11     Fs1 
	BYTE	W12
	BYTE		N07     Cn1 
	BYTE		N07     Fs1 
	BYTE	W08
	BYTE		N03     En1 
	BYTE		N03     As1 
	BYTE	W04
	BYTE	PEND
// 008   ----------------------------------------
	BYTE	PATT
	 POIN2	Unity_FINAL_3_004
// 009   ----------------------------------------
	BYTE	PATT
	 POIN2	Unity_FINAL_3_004
// 010   ----------------------------------------
	BYTE	PATT
	 POIN2	Unity_FINAL_3_004
// 011   ----------------------------------------
	BYTE	PATT
	 POIN2	Unity_FINAL_3_007
// 012   ----------------------------------------
	BYTE	PATT
	 POIN2	Unity_FINAL_3_004
// 013   ----------------------------------------
	BYTE	PATT
	 POIN2	Unity_FINAL_3_004
// 014   ----------------------------------------
	BYTE	PATT
	 POIN2	Unity_FINAL_3_004
// 015   ----------------------------------------
	BYTE	PATT
	 POIN2	Unity_FINAL_3_007
// 016   ----------------------------------------
	BYTE	PATT
	 POIN2	Unity_FINAL_3_004
// 017   ----------------------------------------
	BYTE	PATT
	 POIN2	Unity_FINAL_3_004
// 018   ----------------------------------------
	BYTE	PATT
	 POIN2	Unity_FINAL_3_004
// 019   ----------------------------------------
	BYTE	PATT
	 POIN2	Unity_FINAL_3_007
// 020   ----------------------------------------
	BYTE	W96
// 021   ----------------------------------------
	BYTE	W96
// 022   ----------------------------------------
	BYTE	W96
// 023   ----------------------------------------
	BYTE	PATT
	 POIN2	Unity_FINAL_3_003
// 024   ----------------------------------------
	BYTE	PATT
	 POIN2	Unity_FINAL_3_004
// 025   ----------------------------------------
	BYTE	PATT
	 POIN2	Unity_FINAL_3_004
// 026   ----------------------------------------
	BYTE	PATT
	 POIN2	Unity_FINAL_3_004
// 027   ----------------------------------------
	BYTE		N07     Cn1   v127
	BYTE		N07     Gs1 
	BYTE	W08
	BYTE		N03     Fs1 
	BYTE	W04
	BYTE		N11     Cn1 
	BYTE		N11     Gs1 
	BYTE	W12
	BYTE		        En1 
	BYTE		N11     As1 
	BYTE	W12
	BYTE		N07     Fs1 
	BYTE	W08
	BYTE		N03     Cn1 
	BYTE		N03     As1 
	BYTE	W04
	BYTE		N20     Cn1 
	BYTE		N20     An2 
	BYTE	W24
	BYTE		        Cn1 
	BYTE	W23
	BYTE	GoTo
	 POIN2	Unity_FINAL_3_B1
Unity_FINAL_3_B2:
	BYTE	FINE

//**************** Track 4 (Midi-Chn.4) ****************//

Unity_FINAL_4:
	BYTE	KEYSH   Unity_FINAL_key+0
Unity_FINAL_4_B1:
// 000   ----------------------------------------
	BYTE		VOICE   60
	BYTE		MODT    0
	BYTE		LFOS    44
	BYTE		VOL     98*Unity_FINAL_mvl/mxv
	BYTE		PAN     c_v+11
	BYTE	W36
	BYTE		N05     An4   v076
	BYTE	W06
	BYTE		        Gn4 
	BYTE	W06
	BYTE		N20     An4 
	BYTE	W48
// 001   ----------------------------------------
Unity_FINAL_4_001:
	BYTE	W36
	BYTE		N05     Cn5   v076
	BYTE	W06
	BYTE		        Bn4 
	BYTE	W06
	BYTE		N20     Cn5 
	BYTE	W24
	BYTE		        Gn4 
	BYTE	W24
	BYTE	PEND
// 002   ----------------------------------------
Unity_FINAL_4_002:
	BYTE	W36
	BYTE		N05     An4   v076
	BYTE	W06
	BYTE		        Gn4 
	BYTE	W06
	BYTE		N20     An4 
	BYTE	W48
	BYTE	PEND
// 003   ----------------------------------------
	BYTE	PATT
	 POIN2	Unity_FINAL_4_001
// 004   ----------------------------------------
	BYTE	PATT
	 POIN2	Unity_FINAL_4_002
// 005   ----------------------------------------
	BYTE	PATT
	 POIN2	Unity_FINAL_4_001
// 006   ----------------------------------------
	BYTE	PATT
	 POIN2	Unity_FINAL_4_002
// 007   ----------------------------------------
	BYTE	PATT
	 POIN2	Unity_FINAL_4_001
// 008   ----------------------------------------
	BYTE	PATT
	 POIN2	Unity_FINAL_4_002
// 009   ----------------------------------------
	BYTE	PATT
	 POIN2	Unity_FINAL_4_001
// 010   ----------------------------------------
	BYTE	PATT
	 POIN2	Unity_FINAL_4_002
// 011   ----------------------------------------
	BYTE	PATT
	 POIN2	Unity_FINAL_4_001
// 012   ----------------------------------------
	BYTE	W96
// 013   ----------------------------------------
	BYTE	W96
// 014   ----------------------------------------
	BYTE	W96
// 015   ----------------------------------------
	BYTE	W96
// 016   ----------------------------------------
	BYTE	W96
// 017   ----------------------------------------
	BYTE	W96
// 018   ----------------------------------------
	BYTE	W96
// 019   ----------------------------------------
	BYTE	W96
// 020   ----------------------------------------
Unity_FINAL_4_020:
	BYTE		N96     Dn3   v076
	BYTE		N96     Fn3 
	BYTE		N96     An3 
	BYTE		N96     Dn4 
	BYTE	W96
	BYTE	PEND
// 021   ----------------------------------------
Unity_FINAL_4_021:
	BYTE		N96     Dn3   v076
	BYTE		N96     Fs3 
	BYTE		N96     An3 
	BYTE		N96     Dn4 
	BYTE	W96
	BYTE	PEND
// 022   ----------------------------------------
Unity_FINAL_4_022:
	BYTE		N96     Ds3   v076
	BYTE		N96     Gn3 
	BYTE		N96     Cn4 
	BYTE		N96     Ds4 
	BYTE	W96
	BYTE	PEND
// 023   ----------------------------------------
	BYTE		        En3 
	BYTE		N96     Gn3 
	BYTE		N96     Bn3 
	BYTE		N96     Dn4 
	BYTE	W96
// 024   ----------------------------------------
	BYTE	PATT
	 POIN2	Unity_FINAL_4_020
// 025   ----------------------------------------
	BYTE	PATT
	 POIN2	Unity_FINAL_4_021
// 026   ----------------------------------------
	BYTE	PATT
	 POIN2	Unity_FINAL_4_022
// 027   ----------------------------------------
	BYTE		N66     Cn3   v076
	BYTE		N66     En3 
	BYTE		N66     Gn3 
	BYTE		N66     As3 
	BYTE		N66     Cn4 
	BYTE		N66     En4 
	BYTE	W92
	BYTE	W03
	BYTE	GoTo
	 POIN2	Unity_FINAL_4_B1
Unity_FINAL_4_B2:
	BYTE	FINE

//**************** Track 5 (Midi-Chn.5) ****************//

Unity_FINAL_5:
	BYTE	KEYSH   Unity_FINAL_key+0
Unity_FINAL_5_B1:
// 000   ----------------------------------------
	BYTE		VOICE   32
	BYTE		MODT    0
	BYTE		LFOS    44
	BYTE		VOL     112*Unity_FINAL_mvl/mxv
	BYTE		PAN     c_v-16
	BYTE		N32     Fn1   v127
	BYTE	W36
	BYTE		N11     An1 
	BYTE	W12
	BYTE		N32     Cn2 
	BYTE	W36
	BYTE		N11     Fn1 
	BYTE	W12
// 001   ----------------------------------------
Unity_FINAL_5_001:
	BYTE		N32     En1   v127
	BYTE	W36
	BYTE		N11     Gn1 
	BYTE	W12
	BYTE		N20     As1 
	BYTE	W24
	BYTE		N11     An1 
	BYTE	W12
	BYTE		        Gn1 
	BYTE	W12
	BYTE	PEND
// 002   ----------------------------------------
Unity_FINAL_5_002:
	BYTE		N32     Fn1   v127
	BYTE	W36
	BYTE		N11     An1 
	BYTE	W12
	BYTE		N32     Cn2 
	BYTE	W36
	BYTE		N11     Fn1 
	BYTE	W12
	BYTE	PEND
// 003   ----------------------------------------
	BYTE	PATT
	 POIN2	Unity_FINAL_5_001
// 004   ----------------------------------------
	BYTE	PATT
	 POIN2	Unity_FINAL_5_002
// 005   ----------------------------------------
	BYTE	PATT
	 POIN2	Unity_FINAL_5_001
// 006   ----------------------------------------
	BYTE	PATT
	 POIN2	Unity_FINAL_5_002
// 007   ----------------------------------------
	BYTE	PATT
	 POIN2	Unity_FINAL_5_001
// 008   ----------------------------------------
	BYTE	PATT
	 POIN2	Unity_FINAL_5_002
// 009   ----------------------------------------
	BYTE	PATT
	 POIN2	Unity_FINAL_5_001
// 010   ----------------------------------------
	BYTE	PATT
	 POIN2	Unity_FINAL_5_002
// 011   ----------------------------------------
	BYTE	PATT
	 POIN2	Unity_FINAL_5_001
// 012   ----------------------------------------
	BYTE		N32     Fn1   v127
	BYTE	W36
	BYTE		N11     As1 
	BYTE	W12
	BYTE		N32     Dn2 
	BYTE	W36
	BYTE		N11     As1 
	BYTE	W12
// 013   ----------------------------------------
	BYTE		N32     Gn1 
	BYTE	W36
	BYTE		N11     As1 
	BYTE	W12
	BYTE		N20     Dn2 
	BYTE	W24
	BYTE		N11     Cn2 
	BYTE	W12
	BYTE		        As1 
	BYTE	W12
// 014   ----------------------------------------
	BYTE		N32     Gn1 
	BYTE	W36
	BYTE		N11     As1 
	BYTE	W12
	BYTE		N32     Cn2 
	BYTE	W36
	BYTE		N11     En2 
	BYTE	W12
// 015   ----------------------------------------
	BYTE		N32     Fn2 
	BYTE	W36
	BYTE		N11     Dn2 
	BYTE	W12
	BYTE		        An1 
	BYTE	W12
	BYTE		        Fn1 
	BYTE	W12
	BYTE		        Gn1 
	BYTE	W12
	BYTE		        Fn1 
	BYTE	W12
// 016   ----------------------------------------
	BYTE		N32     Ds1 
	BYTE	W36
	BYTE		N11     Gn1 
	BYTE	W12
	BYTE		N32     Cn2 
	BYTE	W36
	BYTE		N11     Gn1 
	BYTE	W12
// 017   ----------------------------------------
	BYTE		N32     Dn1 
	BYTE	W36
	BYTE		N11     Gn1 
	BYTE	W12
	BYTE		N20     Bn1 
	BYTE	W24
	BYTE		N11     An1 
	BYTE	W12
	BYTE		        Gn1 
	BYTE	W12
// 018   ----------------------------------------
	BYTE		N32     En1 
	BYTE	W36
	BYTE		N11     An1 
	BYTE	W12
	BYTE		N32     Cn2 
	BYTE	W36
	BYTE		N11     An1 
	BYTE	W12
// 019   ----------------------------------------
	BYTE		N32     Gn1 
	BYTE	W36
	BYTE		N11     As1 
	BYTE	W12
	BYTE		        Cn2 
	BYTE	W12
	BYTE		        Dn2 
	BYTE	W12
	BYTE		        En2 
	BYTE	W12
	BYTE		        Cn2 
	BYTE	W12
// 020   ----------------------------------------
	BYTE	W96
// 021   ----------------------------------------
	BYTE	W96
// 022   ----------------------------------------
	BYTE	W96
// 023   ----------------------------------------
	BYTE	W96
// 024   ----------------------------------------
	BYTE		N32     Dn1 
	BYTE	W36
	BYTE		N11     Fn1 
	BYTE	W12
	BYTE		N42   
	BYTE	W48
// 025   ----------------------------------------
	BYTE		N32     Dn1 
	BYTE	W36
	BYTE		N11     Fs1 
	BYTE	W12
	BYTE		N20   
	BYTE	W24
	BYTE		N11     Gn1 
	BYTE	W12
	BYTE		        An1 
	BYTE	W12
// 026   ----------------------------------------
	BYTE		N32     Gn1 
	BYTE	W36
	BYTE		N11     As1 
	BYTE	W12
	BYTE		N42   
	BYTE	W48
// 027   ----------------------------------------
	BYTE		N20     Cn2 
	BYTE	W24
	BYTE		        As1 
	BYTE	W24
	BYTE		        An1 
	BYTE	W24
	BYTE		        Gn1 
	BYTE	W23
	BYTE	GoTo
	 POIN2	Unity_FINAL_5_B1
Unity_FINAL_5_B2:
	BYTE	FINE

//**************** Track 6 (Midi-Chn.6) ****************//

Unity_FINAL_6:
	BYTE	KEYSH   Unity_FINAL_key+0
Unity_FINAL_6_B1:
// 000   ----------------------------------------
	BYTE		VOICE   0
	BYTE		MODT    0
	BYTE		LFOS    44
	BYTE		VOL     117*Unity_FINAL_mvl/mxv
	BYTE		PAN     c_v+0
	BYTE	W96
// 001   ----------------------------------------
	BYTE	W96
// 002   ----------------------------------------
	BYTE	W96
// 003   ----------------------------------------
	BYTE	W96
// 004   ----------------------------------------
	BYTE	W96
// 005   ----------------------------------------
	BYTE	W96
// 006   ----------------------------------------
	BYTE	W96
// 007   ----------------------------------------
	BYTE	W96
// 008   ----------------------------------------
	BYTE	W96
// 009   ----------------------------------------
	BYTE	W96
// 010   ----------------------------------------
	BYTE	W96
// 011   ----------------------------------------
	BYTE	W96
// 012   ----------------------------------------
	BYTE	W96
// 013   ----------------------------------------
	BYTE	W96
// 014   ----------------------------------------
	BYTE	W96
// 015   ----------------------------------------
	BYTE	W96
// 016   ----------------------------------------
	BYTE	W96
// 017   ----------------------------------------
	BYTE	W96
// 018   ----------------------------------------
	BYTE	W96
// 019   ----------------------------------------
	BYTE	W96
// 020   ----------------------------------------
	BYTE		N32     Dn4   v127
	BYTE	W36
	BYTE		N05     En4 
	BYTE	W06
	BYTE		        Fn4 
	BYTE	W06
	BYTE		N32     Cn4 
	BYTE	W36
	BYTE		N05   
	BYTE	W06
	BYTE		        As3 
	BYTE	W06
// 021   ----------------------------------------
	BYTE		N15     An3 
	BYTE	W16
	BYTE		        Gn3 
	BYTE	W16
	BYTE		        Fn3 
	BYTE	W16
	BYTE		N42     An3 
	BYTE	W48
// 022   ----------------------------------------
	BYTE		N15     Dn4 
	BYTE	W16
	BYTE		        Cn4 
	BYTE	W16
	BYTE		        Dn4 
	BYTE	W16
	BYTE		        Fn4 
	BYTE	W16
	BYTE		        Gn4 
	BYTE	W16
	BYTE		        An4 
	BYTE	W16
// 023   ----------------------------------------
	BYTE		        As4 
	BYTE	W16
	BYTE		        An4 
	BYTE	W16
	BYTE		        As4 
	BYTE	W16
	BYTE		N42     Gn4 
	BYTE	W48
// 024   ----------------------------------------
	BYTE	W96
// 025   ----------------------------------------
	BYTE	W96
// 026   ----------------------------------------
	BYTE		MODT    0
	BYTE		LFOS    44
	BYTE		PAN     c_v+18
	BYTE	W96
// 027   ----------------------------------------
	BYTE	W92
	BYTE	W03
	BYTE	GoTo
	 POIN2	Unity_FINAL_6_B1
Unity_FINAL_6_B2:
	BYTE	FINE

//******************************************************//
	ALIGN 4

Unity_FINAL:
	BYTE	6	// NumTrks
	BYTE	0	// NumBlks
	BYTE	Unity_FINAL_pri	// Priority
	BYTE	Unity_FINAL_rev	// Reverb.

	POIN2	Unity_FINAL_grp

	POIN2	Unity_FINAL_1
	POIN2	Unity_FINAL_2
	POIN2	Unity_FINAL_3
	POIN2	Unity_FINAL_4
	POIN2	Unity_FINAL_5
	POIN2	Unity_FINAL_6

	
