//Event file generated from Sappy .s format.
	#include "MPlayDef.event"

	#define	UnshackledWreyvianP_FINAL_grp  voicegroup000
	#define	UnshackledWreyvianP_FINAL_pri  0
	#define	UnshackledWreyvianP_FINAL_rev  0xA0
	#define	UnshackledWreyvianP_FINAL_mvl  29
	#define	UnshackledWreyvianP_FINAL_key  0
	#define	UnshackledWreyvianP_FINAL_tbs  1
	#define	UnshackledWreyvianP_FINAL_exg  0
	#define	UnshackledWreyvianP_FINAL_cmp  1

	// .rodata
	//	UnshackledWreyvianP_FINAL
	ALIGN 4

//**************** Track 1 (Midi-Chn.1) ****************//

UnshackledWreyvianP_FINAL_1:
	BYTE	KEYSH   UnshackledWreyvianP_FINAL_key+0
// 000   ----------------------------------------
	BYTE	TEMPO   120*UnshackledWreyvianP_FINAL_tbs/2
	BYTE		VOICE   18
	BYTE		MODT    0
	BYTE		LFOS    44
	BYTE		PAN     c_v-5
	BYTE		VOL     98*UnshackledWreyvianP_FINAL_mvl/mxv
	BYTE		N15     Ds3   v127
	BYTE		N15     Gn3 
	BYTE		N15     Cn4 
	BYTE	W16
	BYTE		N28     Ds4 
	BYTE		N28     Gn4 
	BYTE		N28     Cn5 
	BYTE	W32
	BYTE		N15     Dn3 
	BYTE		N15     Gn3 
	BYTE		N15     Bn3 
	BYTE	W16
	BYTE		N28     Dn4 
	BYTE		N28     Gn4 
	BYTE		N28     Bn4 
	BYTE	W32
// 001   ----------------------------------------
UnshackledWreyvianP_FINAL_1_001:
	BYTE		N15     Ds3   v127
	BYTE		N15     Gn3 
	BYTE		N15     As3 
	BYTE	W16
	BYTE		N28     Ds4 
	BYTE		N28     Gn4 
	BYTE		N28     As4 
	BYTE	W32
	BYTE		N15     Cn4 
	BYTE		N15     Fn4 
	BYTE		N15     An4 
	BYTE	W16
	BYTE		N28     An3 
	BYTE		N28     Cn4 
	BYTE		N28     Fn4 
	BYTE	W32
	BYTE	PEND
// 002   ----------------------------------------
	BYTE		N15     Ds3 
	BYTE		N15     Gn3 
	BYTE		N15     Cn4 
	BYTE	W16
	BYTE		N28     Ds4 
	BYTE		N28     Gn4 
	BYTE		N28     Cn5 
	BYTE	W32
	BYTE		N15     Dn3 
	BYTE		N15     Gn3 
	BYTE		N15     Bn3 
	BYTE	W16
	BYTE		N28     Dn4 
	BYTE		N28     Gn4 
	BYTE		N28     Bn4 
	BYTE	W32
// 003   ----------------------------------------
	BYTE	PATT
	 POIN2	UnshackledWreyvianP_FINAL_1_001
// 004   ----------------------------------------
	BYTE		N05     Fn4   v127
	BYTE	W06
	BYTE		        Gn4 
	BYTE	W06
	BYTE		N05   
	BYTE	W06
	BYTE		        Fn4 
	BYTE	W06
	BYTE		        Gn4 
	BYTE	W06
	BYTE		N05   
	BYTE	W06
	BYTE		        Fn4 
	BYTE	W06
	BYTE		        Gn4 
	BYTE	W06
	BYTE		        Fn4 
	BYTE	W06
	BYTE		        Gn4 
	BYTE	W06
	BYTE		N05   
	BYTE	W06
	BYTE		        Fn4 
	BYTE	W06
	BYTE		        Gn4 
	BYTE	W06
	BYTE		N05   
	BYTE	W06
	BYTE		        Fn4 
	BYTE	W06
	BYTE		        Gn4 
	BYTE	W06
// 005   ----------------------------------------
	BYTE		        Fn4 
	BYTE		N05     As4 
	BYTE	W06
	BYTE		        Gn4 
	BYTE		N05     Cn5 
	BYTE	W06
	BYTE		        Gn4 
	BYTE		N05     Cn5 
	BYTE	W06
	BYTE		        Fn4 
	BYTE		N05     As4 
	BYTE	W06
	BYTE		        Gn4 
	BYTE		N05     Cn5 
	BYTE	W06
	BYTE		        Gn4 
	BYTE		N05     Cn5 
	BYTE	W06
	BYTE		        Fn4 
	BYTE		N05     As4 
	BYTE	W06
	BYTE		        Gn4 
	BYTE		N05     Cn5 
	BYTE	W06
	BYTE		        Fn4 
	BYTE		N05     As4 
	BYTE	W06
	BYTE		        Gn4 
	BYTE		N05     Cn5 
	BYTE	W06
	BYTE		        Gn4 
	BYTE		N05     Cn5 
	BYTE	W06
	BYTE		        Fn4 
	BYTE		N05     As4 
	BYTE	W06
	BYTE		        Gn4 
	BYTE		N05     Cn5 
	BYTE	W06
	BYTE		        Gn4 
	BYTE		N05     Cn5 
	BYTE	W06
	BYTE		        Fn4 
	BYTE		N05     As4 
	BYTE	W06
	BYTE		        Gn4 
	BYTE		N05     Cn5 
	BYTE	W06
UnshackledWreyvianP_FINAL_1_B1:
// 006   ----------------------------------------
UnshackledWreyvianP_FINAL_1_006:
	BYTE		N36     Gn4   v127
	BYTE	W36
	BYTE		N12     Ds4 
	BYTE	W12
	BYTE		N16     Dn4 
	BYTE	W16
	BYTE		        Ds4 
	BYTE	W16
	BYTE		        Dn4 
	BYTE	W16
	BYTE	PEND
// 007   ----------------------------------------
UnshackledWreyvianP_FINAL_1_007:
	BYTE		N36     Cn4   v127
	BYTE	W36
	BYTE		N12     Gn3 
	BYTE	W12
	BYTE		N16     Cn4 
	BYTE	W16
	BYTE		        Dn4 
	BYTE	W16
	BYTE		        Ds4 
	BYTE	W16
	BYTE	PEND
// 008   ----------------------------------------
UnshackledWreyvianP_FINAL_1_008:
	BYTE		N16     Fn4   v127
	BYTE	W16
	BYTE		        Cn4 
	BYTE	W16
	BYTE		        Gs3 
	BYTE	W16
	BYTE		        Fn4 
	BYTE	W16
	BYTE		        Gn4 
	BYTE	W16
	BYTE		        Gs4 
	BYTE	W16
	BYTE	PEND
// 009   ----------------------------------------
UnshackledWreyvianP_FINAL_1_009:
	BYTE		N36     As4   v127
	BYTE	W36
	BYTE		N12     Fn4 
	BYTE	W12
	BYTE		N42   
	BYTE	W48
	BYTE	PEND
// 010   ----------------------------------------
	BYTE	PATT
	 POIN2	UnshackledWreyvianP_FINAL_1_006
// 011   ----------------------------------------
	BYTE	PATT
	 POIN2	UnshackledWreyvianP_FINAL_1_007
// 012   ----------------------------------------
UnshackledWreyvianP_FINAL_1_012:
	BYTE		N16     Fn4   v127
	BYTE	W16
	BYTE		        Cn4 
	BYTE	W16
	BYTE		        Gs3 
	BYTE	W16
	BYTE		        Gn4 
	BYTE	W16
	BYTE		        Gs4 
	BYTE	W16
	BYTE		        An4 
	BYTE	W16
	BYTE	PEND
// 013   ----------------------------------------
UnshackledWreyvianP_FINAL_1_013:
	BYTE		N16     As4   v127
	BYTE	W16
	BYTE		        Dn5 
	BYTE	W16
	BYTE		        Cn5 
	BYTE	W16
	BYTE		N24     As4 
	BYTE	W24
	BYTE		N20     Fn4 
	BYTE	W24
	BYTE	PEND
// 014   ----------------------------------------
UnshackledWreyvianP_FINAL_1_014:
	BYTE		N16     Cn4   v127
	BYTE	W16
	BYTE		        Ds4 
	BYTE	W16
	BYTE		        Cn4 
	BYTE	W16
	BYTE		        Gs4 
	BYTE	W16
	BYTE		        Gn4 
	BYTE	W16
	BYTE		        Fn4 
	BYTE	W16
	BYTE	PEND
// 015   ----------------------------------------
UnshackledWreyvianP_FINAL_1_015:
	BYTE		N16     Ds4   v127
	BYTE	W16
	BYTE		        Dn4 
	BYTE	W16
	BYTE		        Cn4 
	BYTE	W16
	BYTE		N24     As3 
	BYTE	W24
	BYTE		        Gn3 
	BYTE	W24
	BYTE	PEND
// 016   ----------------------------------------
UnshackledWreyvianP_FINAL_1_016:
	BYTE		N16     Bn3   v127
	BYTE	W16
	BYTE		        Cn4 
	BYTE	W16
	BYTE		        Dn4 
	BYTE	W16
	BYTE		        Fn4 
	BYTE	W16
	BYTE		        Ds4 
	BYTE	W16
	BYTE		        Dn4 
	BYTE	W16
	BYTE	PEND
// 017   ----------------------------------------
UnshackledWreyvianP_FINAL_1_017:
	BYTE		N16     Ds4   v127
	BYTE	W16
	BYTE		        Gs4 
	BYTE	W16
	BYTE		        Fn4 
	BYTE	W16
	BYTE		N48     Gn4 
	BYTE	W48
	BYTE	PEND
// 018   ----------------------------------------
	BYTE	PATT
	 POIN2	UnshackledWreyvianP_FINAL_1_014
// 019   ----------------------------------------
	BYTE	PATT
	 POIN2	UnshackledWreyvianP_FINAL_1_015
// 020   ----------------------------------------
UnshackledWreyvianP_FINAL_1_020:
	BYTE		N16     Fn4   v127
	BYTE	W16
	BYTE		        Cn4 
	BYTE	W16
	BYTE		        Gs3 
	BYTE	W16
	BYTE		        Bn3 
	BYTE	W16
	BYTE		        Dn4 
	BYTE	W16
	BYTE		        Fs4 
	BYTE	W16
	BYTE	PEND
// 021   ----------------------------------------
UnshackledWreyvianP_FINAL_1_021:
	BYTE		N30     Gn4   v127
	BYTE	W30
	BYTE		N06     Fn4 
	BYTE	W06
	BYTE		        Gn4 
	BYTE	W06
	BYTE		        Gs4 
	BYTE	W06
	BYTE		N03     Gn4 
	BYTE	W03
	BYTE		        Gs4 
	BYTE	W03
	BYTE		        Gn4 
	BYTE	W03
	BYTE		        Gs4 
	BYTE	W03
	BYTE		        Gn4 
	BYTE	W03
	BYTE		        Gs4 
	BYTE	W03
	BYTE		        Gn4 
	BYTE	W03
	BYTE		        Gs4 
	BYTE	W03
	BYTE		        Gn4 
	BYTE	W03
	BYTE		        Gs4 
	BYTE	W03
	BYTE		        Gn4 
	BYTE	W03
	BYTE		        Gs4 
	BYTE	W03
	BYTE		        Gn4 
	BYTE	W03
	BYTE		        Gs4 
	BYTE	W03
	BYTE		        Gn4 
	BYTE	W03
	BYTE		        Gs4 
	BYTE	W03
	BYTE	PEND
// 022   ----------------------------------------
	BYTE	PATT
	 POIN2	UnshackledWreyvianP_FINAL_1_006
// 023   ----------------------------------------
	BYTE	PATT
	 POIN2	UnshackledWreyvianP_FINAL_1_007
// 024   ----------------------------------------
	BYTE	PATT
	 POIN2	UnshackledWreyvianP_FINAL_1_008
// 025   ----------------------------------------
	BYTE	PATT
	 POIN2	UnshackledWreyvianP_FINAL_1_009
// 026   ----------------------------------------
	BYTE	PATT
	 POIN2	UnshackledWreyvianP_FINAL_1_006
// 027   ----------------------------------------
	BYTE	PATT
	 POIN2	UnshackledWreyvianP_FINAL_1_007
// 028   ----------------------------------------
	BYTE	PATT
	 POIN2	UnshackledWreyvianP_FINAL_1_012
// 029   ----------------------------------------
	BYTE	PATT
	 POIN2	UnshackledWreyvianP_FINAL_1_013
// 030   ----------------------------------------
	BYTE	PATT
	 POIN2	UnshackledWreyvianP_FINAL_1_014
// 031   ----------------------------------------
	BYTE	PATT
	 POIN2	UnshackledWreyvianP_FINAL_1_015
// 032   ----------------------------------------
	BYTE	PATT
	 POIN2	UnshackledWreyvianP_FINAL_1_016
// 033   ----------------------------------------
	BYTE	PATT
	 POIN2	UnshackledWreyvianP_FINAL_1_017
// 034   ----------------------------------------
	BYTE	PATT
	 POIN2	UnshackledWreyvianP_FINAL_1_014
// 035   ----------------------------------------
	BYTE	PATT
	 POIN2	UnshackledWreyvianP_FINAL_1_015
// 036   ----------------------------------------
	BYTE	PATT
	 POIN2	UnshackledWreyvianP_FINAL_1_020
// 037   ----------------------------------------
	BYTE	PATT
	 POIN2	UnshackledWreyvianP_FINAL_1_021
// 038   ----------------------------------------
	BYTE	TEMPO   150*UnshackledWreyvianP_FINAL_tbs/2
	BYTE		N28     Cn4   v127
	BYTE	W32
	BYTE		N15     Ds4 
	BYTE	W16
	BYTE		        Fn4 
	BYTE	W16
	BYTE		        Ds4 
	BYTE	W16
	BYTE		        Dn4 
	BYTE	W16
// 039   ----------------------------------------
UnshackledWreyvianP_FINAL_1_039:
	BYTE		N07     Ds4   v127
	BYTE	W08
	BYTE		        Dn4 
	BYTE	W08
	BYTE		N72     Cn4 
	BYTE	W80
	BYTE	PEND
// 040   ----------------------------------------
UnshackledWreyvianP_FINAL_1_040:
	BYTE		N28     Cn4   v127
	BYTE	W32
	BYTE		N15     Ds4 
	BYTE	W16
	BYTE		        Fn4 
	BYTE	W16
	BYTE		        Ds4 
	BYTE	W16
	BYTE		        Dn4 
	BYTE	W16
	BYTE	PEND
// 041   ----------------------------------------
UnshackledWreyvianP_FINAL_1_041:
	BYTE		N07     Ds4   v127
	BYTE	W08
	BYTE		        Dn4 
	BYTE	W08
	BYTE		N60     Cn4 
	BYTE	W64
	BYTE		N15     Ds4 
	BYTE	W16
	BYTE	PEND
// 042   ----------------------------------------
UnshackledWreyvianP_FINAL_1_042:
	BYTE		N15     Gs4   v127
	BYTE	W16
	BYTE		N15   
	BYTE	W16
	BYTE		N07   
	BYTE	W08
	BYTE		        Gn4 
	BYTE	W08
	BYTE		N28     Fn4 
	BYTE	W32
	BYTE		N15     Gs4 
	BYTE	W16
	BYTE	PEND
// 043   ----------------------------------------
UnshackledWreyvianP_FINAL_1_043:
	BYTE		N15     Gn4   v127
	BYTE	W16
	BYTE		N15   
	BYTE	W16
	BYTE		N07   
	BYTE	W08
	BYTE		        Fn4 
	BYTE	W08
	BYTE		N28     Ds4 
	BYTE	W32
	BYTE		N15     Gn4 
	BYTE	W16
	BYTE	PEND
// 044   ----------------------------------------
UnshackledWreyvianP_FINAL_1_044:
	BYTE		N28     Fn4   v127
	BYTE	W32
	BYTE		N15     Ds4 
	BYTE	W16
	BYTE		        Dn4 
	BYTE	W16
	BYTE		        Cn4 
	BYTE	W16
	BYTE		        As3 
	BYTE	W16
	BYTE	PEND
// 045   ----------------------------------------
	BYTE		N90     Cn4 
	BYTE	W96
// 046   ----------------------------------------
	BYTE	PATT
	 POIN2	UnshackledWreyvianP_FINAL_1_040
// 047   ----------------------------------------
	BYTE	PATT
	 POIN2	UnshackledWreyvianP_FINAL_1_039
// 048   ----------------------------------------
	BYTE	PATT
	 POIN2	UnshackledWreyvianP_FINAL_1_040
// 049   ----------------------------------------
	BYTE	PATT
	 POIN2	UnshackledWreyvianP_FINAL_1_041
// 050   ----------------------------------------
	BYTE	PATT
	 POIN2	UnshackledWreyvianP_FINAL_1_042
// 051   ----------------------------------------
	BYTE	PATT
	 POIN2	UnshackledWreyvianP_FINAL_1_043
// 052   ----------------------------------------
	BYTE	PATT
	 POIN2	UnshackledWreyvianP_FINAL_1_044
// 053   ----------------------------------------
	BYTE	TEMPO   120*UnshackledWreyvianP_FINAL_tbs/2
	BYTE		N16     Cn4   v127
	BYTE	W16
	BYTE		        Ds4 
	BYTE	W16
	BYTE		        Cn4 
	BYTE	W16
	BYTE		        Gs4 
	BYTE	W16
	BYTE		        Gn4 
	BYTE	W16
	BYTE		        Fn4 
	BYTE	W16
// 054   ----------------------------------------
	BYTE	PATT
	 POIN2	UnshackledWreyvianP_FINAL_1_015
// 055   ----------------------------------------
	BYTE	PATT
	 POIN2	UnshackledWreyvianP_FINAL_1_016
// 056   ----------------------------------------
	BYTE	PATT
	 POIN2	UnshackledWreyvianP_FINAL_1_017
// 057   ----------------------------------------
	BYTE	PATT
	 POIN2	UnshackledWreyvianP_FINAL_1_014
// 058   ----------------------------------------
	BYTE	PATT
	 POIN2	UnshackledWreyvianP_FINAL_1_015
// 059   ----------------------------------------
	BYTE	PATT
	 POIN2	UnshackledWreyvianP_FINAL_1_020
// 060   ----------------------------------------
	BYTE	PATT
	 POIN2	UnshackledWreyvianP_FINAL_1_021
// 061   ----------------------------------------
	BYTE		N15     Bn1   v127
	BYTE		N15     Dn2 
	BYTE		N15     Gn2 
	BYTE	W16
	BYTE		        Dn2 
	BYTE		N15     Gn2 
	BYTE		N15     Bn2 
	BYTE	W16
	BYTE		        Gn2 
	BYTE		N15     Bn2 
	BYTE		N15     Dn3 
	BYTE	W16
	BYTE		        Bn2 
	BYTE		N15     Dn3 
	BYTE		N15     Gn3 
	BYTE	W16
	BYTE		        Dn3 
	BYTE		N15     Gn3 
	BYTE		N15     Bn3 
	BYTE	W16
	BYTE		        Gn3 
	BYTE		N15     Bn3 
	BYTE		N15     Dn4 
	BYTE	W15
	BYTE	GoTo
	 POIN2	UnshackledWreyvianP_FINAL_1_B1
UnshackledWreyvianP_FINAL_1_B2:
	BYTE	FINE

//**************** Track 2 (Midi-Chn.2) ****************//

UnshackledWreyvianP_FINAL_2:
	BYTE	KEYSH   UnshackledWreyvianP_FINAL_key+0
// 000   ----------------------------------------
	BYTE		VOICE   4
	BYTE		MODT    0
	BYTE		LFOS    44
	BYTE		PAN     c_v-16
	BYTE		VOL     95*UnshackledWreyvianP_FINAL_mvl/mxv
	BYTE		N15     Ds3   v127
	BYTE		N15     Gn3 
	BYTE		N15     Cn4 
	BYTE	W16
	BYTE		N28     Ds4 
	BYTE		N28     Gn4 
	BYTE		N28     Cn5 
	BYTE	W32
	BYTE		N15     Dn3 
	BYTE		N15     Gn3 
	BYTE		N15     Bn3 
	BYTE	W16
	BYTE		N28     Dn4 
	BYTE		N28     Gn4 
	BYTE		N28     Bn4 
	BYTE	W32
// 001   ----------------------------------------
UnshackledWreyvianP_FINAL_2_001:
	BYTE		N15     Ds3   v127
	BYTE		N15     Gn3 
	BYTE		N15     As3 
	BYTE	W16
	BYTE		N28     Ds4 
	BYTE		N28     Gn4 
	BYTE		N28     As4 
	BYTE	W32
	BYTE		N15     Cn4 
	BYTE		N15     Fn4 
	BYTE		N15     An4 
	BYTE	W16
	BYTE		N28     An3 
	BYTE		N28     Cn4 
	BYTE		N28     Fn4 
	BYTE	W32
	BYTE	PEND
// 002   ----------------------------------------
	BYTE		N15     Ds3 
	BYTE		N15     Gn3 
	BYTE		N15     Cn4 
	BYTE	W16
	BYTE		N28     Ds4 
	BYTE		N28     Gn4 
	BYTE		N28     Cn5 
	BYTE	W32
	BYTE		N15     Dn3 
	BYTE		N15     Gn3 
	BYTE		N15     Bn3 
	BYTE	W16
	BYTE		N28     Dn4 
	BYTE		N28     Gn4 
	BYTE		N28     Bn4 
	BYTE	W32
// 003   ----------------------------------------
	BYTE	PATT
	 POIN2	UnshackledWreyvianP_FINAL_2_001
// 004   ----------------------------------------
UnshackledWreyvianP_FINAL_2_004:
	BYTE		N42     Ds3   v127
	BYTE		N42     Gn3 
	BYTE		N42     Cn4 
	BYTE	W48
	BYTE		        Ds3 
	BYTE		N42     Gn3 
	BYTE		N42     As3 
	BYTE	W48
	BYTE	PEND
// 005   ----------------------------------------
	BYTE	PATT
	 POIN2	UnshackledWreyvianP_FINAL_2_004
UnshackledWreyvianP_FINAL_2_B1:
// 006   ----------------------------------------
	BYTE	W96
// 007   ----------------------------------------
	BYTE	W96
// 008   ----------------------------------------
	BYTE	W96
// 009   ----------------------------------------
	BYTE	W96
// 010   ----------------------------------------
	BYTE	W96
// 011   ----------------------------------------
	BYTE	W96
// 012   ----------------------------------------
	BYTE	W96
// 013   ----------------------------------------
	BYTE	W96
// 014   ----------------------------------------
UnshackledWreyvianP_FINAL_2_014:
	BYTE		N16     Ds3   v127
	BYTE		N16     Gs3 
	BYTE		N16     Cn4 
	BYTE	W16
	BYTE		        Gs3 
	BYTE		N16     Cn4 
	BYTE		N16     Ds4 
	BYTE	W16
	BYTE		        Ds3 
	BYTE		N16     Gs3 
	BYTE		N16     Cn4 
	BYTE	W16
	BYTE		N16   
	BYTE		N16     Ds4 
	BYTE		N16     Gs4 
	BYTE	W16
	BYTE		        Gs3 
	BYTE		N16     Cn4 
	BYTE		N16     Gn4 
	BYTE	W16
	BYTE		        Ds3 
	BYTE		N16     Cn4 
	BYTE		N16     Fn4 
	BYTE	W16
	BYTE	PEND
// 015   ----------------------------------------
UnshackledWreyvianP_FINAL_2_015:
	BYTE		N16     Gn3   v127
	BYTE		N16     Cn4 
	BYTE		N16     Ds4 
	BYTE	W16
	BYTE		        Fn3 
	BYTE		N16     As3 
	BYTE		N16     Dn4 
	BYTE	W16
	BYTE		        Ds3 
	BYTE		N16     Gn3 
	BYTE		N16     Cn4 
	BYTE	W16
	BYTE		N24     Ds3 
	BYTE		N24     Gn3 
	BYTE		N24     As3 
	BYTE	W24
	BYTE		        Cn3 
	BYTE		N24     Ds3 
	BYTE		N24     Gn3 
	BYTE	W24
	BYTE	PEND
// 016   ----------------------------------------
UnshackledWreyvianP_FINAL_2_016:
	BYTE		N16     Dn3   v127
	BYTE		N16     Gn3 
	BYTE		N16     Bn3 
	BYTE	W16
	BYTE		        Ds3 
	BYTE		N16     An3 
	BYTE		N16     Cn4 
	BYTE	W16
	BYTE		        Gn3 
	BYTE		N16     Bn3 
	BYTE		N16     Dn4 
	BYTE	W16
	BYTE		        Bn3 
	BYTE		N16     Dn4 
	BYTE		N16     Fn4 
	BYTE	W16
	BYTE		        Gn3 
	BYTE		N16     Bn3 
	BYTE		N16     Ds4 
	BYTE	W16
	BYTE		        Dn3 
	BYTE		N16     Gn3 
	BYTE		N16     Dn4 
	BYTE	W16
	BYTE	PEND
// 017   ----------------------------------------
UnshackledWreyvianP_FINAL_2_017:
	BYTE		N16     Gn3   v127
	BYTE		N16     Cn4 
	BYTE		N16     Ds4 
	BYTE	W16
	BYTE		        Gs3 
	BYTE		N16     Ds4 
	BYTE		N16     Gs4 
	BYTE	W16
	BYTE		        Gn3 
	BYTE		N16     As3 
	BYTE		N16     Fn4 
	BYTE	W16
	BYTE		N48     Cn4 
	BYTE		N48     Ds4 
	BYTE		N48     Gn4 
	BYTE	W48
	BYTE	PEND
// 018   ----------------------------------------
	BYTE	PATT
	 POIN2	UnshackledWreyvianP_FINAL_2_014
// 019   ----------------------------------------
	BYTE	PATT
	 POIN2	UnshackledWreyvianP_FINAL_2_015
// 020   ----------------------------------------
UnshackledWreyvianP_FINAL_2_020:
	BYTE		N16     Gs3   v127
	BYTE		N16     Cn4 
	BYTE		N16     Fn4 
	BYTE	W16
	BYTE		        Fn3 
	BYTE		N16     Gs3 
	BYTE		N16     Cn4 
	BYTE	W16
	BYTE		        Cn3 
	BYTE		N16     Fn3 
	BYTE		N16     Gs3 
	BYTE	W16
	BYTE		        Dn3 
	BYTE		N16     Fs3 
	BYTE		N16     Bn3 
	BYTE	W16
	BYTE		        Fs3 
	BYTE		N16     Bn3 
	BYTE		N16     Dn4 
	BYTE	W16
	BYTE		        Bn3 
	BYTE		N16     Dn4 
	BYTE		N16     Fs4 
	BYTE	W16
	BYTE	PEND
// 021   ----------------------------------------
UnshackledWreyvianP_FINAL_2_021:
	BYTE		N32     Cn4   v127
	BYTE		N32     Ds4 
	BYTE		N30     Gn4 
	BYTE	W30
	BYTE		N06     Fn4 
	BYTE	W06
	BYTE		N11     Gn3 
	BYTE		N11     Cn4 
	BYTE		N06     Gn4 
	BYTE	W06
	BYTE		        Gs4 
	BYTE	W06
	BYTE		N24     Gn3 
	BYTE		N24     Cn4 
	BYTE		N24     Dn4 
	BYTE	W24
	BYTE		        Gn3 
	BYTE		N24     Bn3 
	BYTE		N24     Dn4 
	BYTE	W24
	BYTE	PEND
// 022   ----------------------------------------
UnshackledWreyvianP_FINAL_2_022:
	BYTE		N36     Cn4   v127
	BYTE		N36     Ds4 
	BYTE		N36     Gn4 
	BYTE	W36
	BYTE		N12     Gn3 
	BYTE		N12     Cn4 
	BYTE		N12     Ds4 
	BYTE	W12
	BYTE		N16     Gn3 
	BYTE		N16     As3 
	BYTE		N16     Dn4 
	BYTE	W16
	BYTE		        Ds3 
	BYTE		N16     Gn3 
	BYTE		N16     Ds4 
	BYTE	W16
	BYTE		        Gn3 
	BYTE		N16     As3 
	BYTE		N16     Dn4 
	BYTE	W16
	BYTE	PEND
// 023   ----------------------------------------
UnshackledWreyvianP_FINAL_2_023:
	BYTE		N36     Ds3   v127
	BYTE		N36     Gs3 
	BYTE		N36     Cn4 
	BYTE	W36
	BYTE		N12     Cn3 
	BYTE		N12     Ds3 
	BYTE		N12     Gn3 
	BYTE	W12
	BYTE		N16     Ds3 
	BYTE		N16     Gs3 
	BYTE		N16     Cn4 
	BYTE	W16
	BYTE		        Fn3 
	BYTE		N16     Gs3 
	BYTE		N16     Dn4 
	BYTE	W16
	BYTE		        Gs3 
	BYTE		N16     Cn4 
	BYTE		N16     Ds4 
	BYTE	W16
	BYTE	PEND
// 024   ----------------------------------------
	BYTE		        Gs3 
	BYTE		N16     Cn4 
	BYTE		N16     Fn4 
	BYTE	W16
	BYTE		        Fn3 
	BYTE		N16     Gs3 
	BYTE		N16     Cn4 
	BYTE	W16
	BYTE		        Cn3 
	BYTE		N16     Fn3 
	BYTE		N16     Gs3 
	BYTE	W16
	BYTE		N16   
	BYTE		N16     Cn4 
	BYTE		N16     Fn4 
	BYTE	W16
	BYTE		        As3 
	BYTE		N16     Dn4 
	BYTE		N16     Gn4 
	BYTE	W16
	BYTE		        Cn4 
	BYTE		N16     Ds4 
	BYTE		N16     Gs4 
	BYTE	W16
// 025   ----------------------------------------
UnshackledWreyvianP_FINAL_2_025:
	BYTE		N36     As3   v127
	BYTE		N36     Ds4 
	BYTE		N36     Fn4 
	BYTE	W36
	BYTE		N12     Fn3 
	BYTE		N12     As3 
	BYTE		N12     Dn4 
	BYTE	W12
	BYTE		N42     Fn3 
	BYTE		N42     As3 
	BYTE		N42     Dn4 
	BYTE	W48
	BYTE	PEND
// 026   ----------------------------------------
	BYTE	PATT
	 POIN2	UnshackledWreyvianP_FINAL_2_022
// 027   ----------------------------------------
	BYTE	PATT
	 POIN2	UnshackledWreyvianP_FINAL_2_023
// 028   ----------------------------------------
	BYTE		N16     Gs3   v127
	BYTE		N16     Cn4 
	BYTE		N16     Fn4 
	BYTE	W16
	BYTE		        Fn3 
	BYTE		N16     Gs3 
	BYTE		N16     Cn4 
	BYTE	W16
	BYTE		        Cn3 
	BYTE		N16     Fn3 
	BYTE		N16     Gs3 
	BYTE	W16
	BYTE		        Cn4 
	BYTE		N16     Ds4 
	BYTE		N16     Gn4 
	BYTE	W16
	BYTE		        Cn4 
	BYTE		N16     Fn4 
	BYTE		N16     Gs4 
	BYTE	W16
	BYTE		        Cn4 
	BYTE		N16     Fn4 
	BYTE		N16     An4 
	BYTE	W16
// 029   ----------------------------------------
	BYTE	PATT
	 POIN2	UnshackledWreyvianP_FINAL_2_025
// 030   ----------------------------------------
	BYTE	PATT
	 POIN2	UnshackledWreyvianP_FINAL_2_014
// 031   ----------------------------------------
	BYTE	PATT
	 POIN2	UnshackledWreyvianP_FINAL_2_015
// 032   ----------------------------------------
	BYTE	PATT
	 POIN2	UnshackledWreyvianP_FINAL_2_016
// 033   ----------------------------------------
	BYTE	PATT
	 POIN2	UnshackledWreyvianP_FINAL_2_017
// 034   ----------------------------------------
	BYTE	PATT
	 POIN2	UnshackledWreyvianP_FINAL_2_014
// 035   ----------------------------------------
	BYTE	PATT
	 POIN2	UnshackledWreyvianP_FINAL_2_015
// 036   ----------------------------------------
	BYTE	PATT
	 POIN2	UnshackledWreyvianP_FINAL_2_020
// 037   ----------------------------------------
	BYTE	PATT
	 POIN2	UnshackledWreyvianP_FINAL_2_021
// 038   ----------------------------------------
UnshackledWreyvianP_FINAL_2_038:
	BYTE		N28     Cn4   v127
	BYTE	W32
	BYTE		N15     Ds4 
	BYTE	W16
	BYTE		        Fn4 
	BYTE	W16
	BYTE		        Ds4 
	BYTE	W16
	BYTE		        Dn4 
	BYTE	W16
	BYTE	PEND
// 039   ----------------------------------------
UnshackledWreyvianP_FINAL_2_039:
	BYTE		N07     Ds4   v127
	BYTE	W08
	BYTE		        Dn4 
	BYTE	W08
	BYTE		N72     Cn4 
	BYTE	W80
	BYTE	PEND
// 040   ----------------------------------------
	BYTE	PATT
	 POIN2	UnshackledWreyvianP_FINAL_2_038
// 041   ----------------------------------------
UnshackledWreyvianP_FINAL_2_041:
	BYTE		N07     Ds4   v127
	BYTE	W08
	BYTE		        Dn4 
	BYTE	W08
	BYTE		N60     Cn4 
	BYTE	W64
	BYTE		N15     Ds4 
	BYTE	W16
	BYTE	PEND
// 042   ----------------------------------------
UnshackledWreyvianP_FINAL_2_042:
	BYTE		N15     Gs4   v127
	BYTE	W16
	BYTE		N15   
	BYTE	W16
	BYTE		N07   
	BYTE	W08
	BYTE		        Gn4 
	BYTE	W08
	BYTE		N28     Fn4 
	BYTE	W32
	BYTE		N15     Gs4 
	BYTE	W16
	BYTE	PEND
// 043   ----------------------------------------
UnshackledWreyvianP_FINAL_2_043:
	BYTE		N15     Gn4   v127
	BYTE	W16
	BYTE		N15   
	BYTE	W16
	BYTE		N07   
	BYTE	W08
	BYTE		        Fn4 
	BYTE	W08
	BYTE		N28     Ds4 
	BYTE	W32
	BYTE		N15     Gn4 
	BYTE	W16
	BYTE	PEND
// 044   ----------------------------------------
UnshackledWreyvianP_FINAL_2_044:
	BYTE		N28     Fn4   v127
	BYTE	W32
	BYTE		N15     Ds4 
	BYTE	W16
	BYTE		        Dn4 
	BYTE	W16
	BYTE		        Cn4 
	BYTE	W16
	BYTE		        As3 
	BYTE	W16
	BYTE	PEND
// 045   ----------------------------------------
	BYTE		N90     Cn4 
	BYTE	W96
// 046   ----------------------------------------
	BYTE	PATT
	 POIN2	UnshackledWreyvianP_FINAL_2_038
// 047   ----------------------------------------
	BYTE	PATT
	 POIN2	UnshackledWreyvianP_FINAL_2_039
// 048   ----------------------------------------
	BYTE	PATT
	 POIN2	UnshackledWreyvianP_FINAL_2_038
// 049   ----------------------------------------
	BYTE	PATT
	 POIN2	UnshackledWreyvianP_FINAL_2_041
// 050   ----------------------------------------
	BYTE	PATT
	 POIN2	UnshackledWreyvianP_FINAL_2_042
// 051   ----------------------------------------
	BYTE	PATT
	 POIN2	UnshackledWreyvianP_FINAL_2_043
// 052   ----------------------------------------
	BYTE	PATT
	 POIN2	UnshackledWreyvianP_FINAL_2_044
// 053   ----------------------------------------
	BYTE	PATT
	 POIN2	UnshackledWreyvianP_FINAL_2_014
// 054   ----------------------------------------
	BYTE	PATT
	 POIN2	UnshackledWreyvianP_FINAL_2_015
// 055   ----------------------------------------
	BYTE	PATT
	 POIN2	UnshackledWreyvianP_FINAL_2_016
// 056   ----------------------------------------
	BYTE	PATT
	 POIN2	UnshackledWreyvianP_FINAL_2_017
// 057   ----------------------------------------
	BYTE	PATT
	 POIN2	UnshackledWreyvianP_FINAL_2_014
// 058   ----------------------------------------
	BYTE	PATT
	 POIN2	UnshackledWreyvianP_FINAL_2_015
// 059   ----------------------------------------
	BYTE	PATT
	 POIN2	UnshackledWreyvianP_FINAL_2_020
// 060   ----------------------------------------
	BYTE	PATT
	 POIN2	UnshackledWreyvianP_FINAL_2_021
// 061   ----------------------------------------
	BYTE		N90     Gn2   v127
	BYTE	W92
	BYTE	W03
	BYTE	GoTo
	 POIN2	UnshackledWreyvianP_FINAL_2_B1
UnshackledWreyvianP_FINAL_2_B2:
	BYTE	FINE

//**************** Track 3 (Midi-Chn.3) ****************//

UnshackledWreyvianP_FINAL_3:
	BYTE	KEYSH   UnshackledWreyvianP_FINAL_key+0
// 000   ----------------------------------------
	BYTE		VOICE   61
	BYTE		MODT    0
	BYTE		LFOS    44
	BYTE		PAN     c_v+12
	BYTE		VOL     85*UnshackledWreyvianP_FINAL_mvl/mxv
	BYTE		N90     Gn3   v100
	BYTE		N48     Cn4 
	BYTE		N48     Ds4 
	BYTE	W48
	BYTE		        Bn3 
	BYTE		N48     Dn4 
	BYTE	W48
// 001   ----------------------------------------
UnshackledWreyvianP_FINAL_3_001:
	BYTE		N48     Gn3   v100
	BYTE		N48     As3 
	BYTE		N48     Ds4 
	BYTE	W48
	BYTE		        An3 
	BYTE		N48     Cn4 
	BYTE		N48     Fn4 
	BYTE	W48
	BYTE	PEND
// 002   ----------------------------------------
	BYTE		N90     Gn3 
	BYTE		N48     Cn4 
	BYTE		N48     Ds4 
	BYTE	W48
	BYTE		        Bn3 
	BYTE		N48     Dn4 
	BYTE	W48
// 003   ----------------------------------------
	BYTE	PATT
	 POIN2	UnshackledWreyvianP_FINAL_3_001
// 004   ----------------------------------------
	BYTE		TIE     Cn4   v100
	BYTE	W48
	BYTE		        Ds4 
	BYTE	W48
// 005   ----------------------------------------
	BYTE		N90     Gn4 
	BYTE	W48
	BYTE		N42     As4 
	BYTE	W42
	BYTE		EOT     Cn4 
	BYTE		        Ds4 
	BYTE	W06
UnshackledWreyvianP_FINAL_3_B1:
// 006   ----------------------------------------
	BYTE	W96
// 007   ----------------------------------------
	BYTE	W96
// 008   ----------------------------------------
	BYTE	W96
// 009   ----------------------------------------
	BYTE	W96
// 010   ----------------------------------------
	BYTE	W96
// 011   ----------------------------------------
	BYTE	W96
// 012   ----------------------------------------
	BYTE	W96
// 013   ----------------------------------------
	BYTE	W96
// 014   ----------------------------------------
	BYTE	W96
// 015   ----------------------------------------
	BYTE	W96
// 016   ----------------------------------------
	BYTE	W96
// 017   ----------------------------------------
	BYTE	W96
// 018   ----------------------------------------
	BYTE	W96
// 019   ----------------------------------------
	BYTE	W96
// 020   ----------------------------------------
	BYTE	W96
// 021   ----------------------------------------
	BYTE	W96
// 022   ----------------------------------------
UnshackledWreyvianP_FINAL_3_022:
	BYTE		N96     Gn3   v100
	BYTE		N96     Cn4 
	BYTE		N96     Ds4 
	BYTE	W96
	BYTE	PEND
// 023   ----------------------------------------
UnshackledWreyvianP_FINAL_3_023:
	BYTE		N96     Gs3   v100
	BYTE		N96     Cn4 
	BYTE		N96     Ds4 
	BYTE	W96
	BYTE	PEND
// 024   ----------------------------------------
	BYTE		        Gs3 
	BYTE		N96     Cn4 
	BYTE		N96     Fn4 
	BYTE	W96
// 025   ----------------------------------------
UnshackledWreyvianP_FINAL_3_025:
	BYTE		N48     As3   v100
	BYTE		N48     Ds4 
	BYTE		N48     Fn4 
	BYTE	W48
	BYTE		N42     Fn3 
	BYTE		N42     As3 
	BYTE		N42     Dn4 
	BYTE	W48
	BYTE	PEND
// 026   ----------------------------------------
	BYTE	PATT
	 POIN2	UnshackledWreyvianP_FINAL_3_022
// 027   ----------------------------------------
	BYTE	PATT
	 POIN2	UnshackledWreyvianP_FINAL_3_023
// 028   ----------------------------------------
	BYTE		N48     Gs3   v100
	BYTE		N48     Cn4 
	BYTE		N48     Fn4 
	BYTE	W48
	BYTE		N24     Cn4 
	BYTE		N24     Ds4 
	BYTE		N24     Gn4 
	BYTE	W24
	BYTE		        Cn4 
	BYTE		N24     Fn4 
	BYTE		N24     An4 
	BYTE	W24
// 029   ----------------------------------------
	BYTE	PATT
	 POIN2	UnshackledWreyvianP_FINAL_3_025
// 030   ----------------------------------------
	BYTE	PATT
	 POIN2	UnshackledWreyvianP_FINAL_3_023
// 031   ----------------------------------------
	BYTE	PATT
	 POIN2	UnshackledWreyvianP_FINAL_3_022
// 032   ----------------------------------------
UnshackledWreyvianP_FINAL_3_032:
	BYTE		N96     Gn3   v100
	BYTE		N96     Bn3 
	BYTE		N96     Dn4 
	BYTE	W96
	BYTE	PEND
// 033   ----------------------------------------
	BYTE	PATT
	 POIN2	UnshackledWreyvianP_FINAL_3_022
// 034   ----------------------------------------
	BYTE	PATT
	 POIN2	UnshackledWreyvianP_FINAL_3_023
// 035   ----------------------------------------
	BYTE	PATT
	 POIN2	UnshackledWreyvianP_FINAL_3_022
// 036   ----------------------------------------
UnshackledWreyvianP_FINAL_3_036:
	BYTE		N48     Gs3   v100
	BYTE		N48     Cn4 
	BYTE		N48     Fn4 
	BYTE	W48
	BYTE		        An3 
	BYTE		N48     Dn4 
	BYTE		N48     Fs4 
	BYTE	W48
	BYTE	PEND
// 037   ----------------------------------------
UnshackledWreyvianP_FINAL_3_037:
	BYTE		N48     Cn4   v100
	BYTE		N96     Dn4 
	BYTE		N48     Ds4 
	BYTE		N90     Gn4 
	BYTE	W48
	BYTE		N48     Bn3 
	BYTE	W48
	BYTE	PEND
// 038   ----------------------------------------
UnshackledWreyvianP_FINAL_3_038:
	BYTE		TIE     Gn3   v100
	BYTE		TIE     Cn4 
	BYTE		TIE     Ds4 
	BYTE	W96
	BYTE	PEND
// 039   ----------------------------------------
	BYTE	W96
	BYTE		EOT     Gn3 
	BYTE		        Cn4 
	BYTE		        Ds4 
// 040   ----------------------------------------
UnshackledWreyvianP_FINAL_3_040:
	BYTE		N96     Gn3   v100
	BYTE		N96     As3 
	BYTE		N96     Dn4 
	BYTE	W96
	BYTE	PEND
// 041   ----------------------------------------
UnshackledWreyvianP_FINAL_3_041:
	BYTE		N96     Gn3   v100
	BYTE		N96     As3 
	BYTE		N96     Ds4 
	BYTE	W96
	BYTE	PEND
// 042   ----------------------------------------
	BYTE	PATT
	 POIN2	UnshackledWreyvianP_FINAL_3_023
// 043   ----------------------------------------
	BYTE	PATT
	 POIN2	UnshackledWreyvianP_FINAL_3_041
// 044   ----------------------------------------
	BYTE		N96     Fn3   v100
	BYTE		N96     As3 
	BYTE		N96     Dn4 
	BYTE	W96
// 045   ----------------------------------------
	BYTE		N48     Ds3 
	BYTE		N48     Gs3 
	BYTE		N48     Cn4 
	BYTE	W48
	BYTE		        Fn3 
	BYTE		N48     As3 
	BYTE		N48     Dn4 
	BYTE	W48
// 046   ----------------------------------------
	BYTE	PATT
	 POIN2	UnshackledWreyvianP_FINAL_3_038
// 047   ----------------------------------------
	BYTE	W96
	BYTE		EOT     Gn3 
	BYTE		        Cn4 
	BYTE		        Ds4 
// 048   ----------------------------------------
	BYTE	PATT
	 POIN2	UnshackledWreyvianP_FINAL_3_040
// 049   ----------------------------------------
	BYTE	PATT
	 POIN2	UnshackledWreyvianP_FINAL_3_041
// 050   ----------------------------------------
	BYTE	PATT
	 POIN2	UnshackledWreyvianP_FINAL_3_023
// 051   ----------------------------------------
	BYTE	PATT
	 POIN2	UnshackledWreyvianP_FINAL_3_041
// 052   ----------------------------------------
	BYTE		N90     Fn3   v100
	BYTE		N90     As3 
	BYTE		N90     Dn4 
	BYTE	W96
// 053   ----------------------------------------
	BYTE	PATT
	 POIN2	UnshackledWreyvianP_FINAL_3_023
// 054   ----------------------------------------
	BYTE	PATT
	 POIN2	UnshackledWreyvianP_FINAL_3_022
// 055   ----------------------------------------
	BYTE	PATT
	 POIN2	UnshackledWreyvianP_FINAL_3_032
// 056   ----------------------------------------
	BYTE	PATT
	 POIN2	UnshackledWreyvianP_FINAL_3_022
// 057   ----------------------------------------
	BYTE	PATT
	 POIN2	UnshackledWreyvianP_FINAL_3_023
// 058   ----------------------------------------
	BYTE	PATT
	 POIN2	UnshackledWreyvianP_FINAL_3_022
// 059   ----------------------------------------
	BYTE	PATT
	 POIN2	UnshackledWreyvianP_FINAL_3_036
// 060   ----------------------------------------
	BYTE	PATT
	 POIN2	UnshackledWreyvianP_FINAL_3_037
// 061   ----------------------------------------
	BYTE	W92
	BYTE	W03
	BYTE	GoTo
	 POIN2	UnshackledWreyvianP_FINAL_3_B1
UnshackledWreyvianP_FINAL_3_B2:
	BYTE	FINE

//**************** Track 4 (Midi-Chn.4) ****************//

UnshackledWreyvianP_FINAL_4:
	BYTE	KEYSH   UnshackledWreyvianP_FINAL_key+0
// 000   ----------------------------------------
	BYTE		VOICE   30
	BYTE		MODT    0
	BYTE		LFOS    44
	BYTE		PAN     c_v+24
	BYTE		VOL     114*UnshackledWreyvianP_FINAL_mvl/mxv
	BYTE		N15     Cn1   v127
	BYTE	W16
	BYTE		        Gn0 
	BYTE	W16
	BYTE		        Cn1 
	BYTE	W16
	BYTE		        Bn0 
	BYTE	W16
	BYTE		        Gn0 
	BYTE	W16
	BYTE		        Bn0 
	BYTE	W16
// 001   ----------------------------------------
UnshackledWreyvianP_FINAL_4_001:
	BYTE		N15     As0   v127
	BYTE	W16
	BYTE		        Gn0 
	BYTE	W16
	BYTE		        As0 
	BYTE	W16
	BYTE		        An0 
	BYTE	W16
	BYTE		        Fn0 
	BYTE	W16
	BYTE		        An0 
	BYTE	W16
	BYTE	PEND
// 002   ----------------------------------------
	BYTE		        Cn1 
	BYTE	W16
	BYTE		        Gn0 
	BYTE	W16
	BYTE		        Cn1 
	BYTE	W16
	BYTE		        Bn0 
	BYTE	W16
	BYTE		        Gn0 
	BYTE	W16
	BYTE		        Bn0 
	BYTE	W16
// 003   ----------------------------------------
	BYTE	PATT
	 POIN2	UnshackledWreyvianP_FINAL_4_001
// 004   ----------------------------------------
UnshackledWreyvianP_FINAL_4_004:
	BYTE		N04     Cn1   v127
	BYTE	W12
	BYTE		N04   
	BYTE	W12
	BYTE		N04   
	BYTE	W12
	BYTE		N11     As0 
	BYTE	W12
	BYTE		N04     Cn1 
	BYTE	W12
	BYTE		N04   
	BYTE	W12
	BYTE		N04   
	BYTE	W06
	BYTE		N04   
	BYTE	W06
	BYTE		N11     As0 
	BYTE	W12
	BYTE	PEND
// 005   ----------------------------------------
	BYTE	PATT
	 POIN2	UnshackledWreyvianP_FINAL_4_004
UnshackledWreyvianP_FINAL_4_B1:
// 006   ----------------------------------------
UnshackledWreyvianP_FINAL_4_006:
	BYTE		N15     Cn1   v127
	BYTE	W16
	BYTE		        Cn2 
	BYTE	W16
	BYTE		        Gn1 
	BYTE	W16
	BYTE		        Cn1 
	BYTE	W16
	BYTE		        Cn2 
	BYTE	W16
	BYTE		        Gn1 
	BYTE	W16
	BYTE	PEND
// 007   ----------------------------------------
UnshackledWreyvianP_FINAL_4_007:
	BYTE		N15     Gs0   v127
	BYTE	W16
	BYTE		        Gs1 
	BYTE	W16
	BYTE		        Ds1 
	BYTE	W16
	BYTE		        Gs0 
	BYTE	W16
	BYTE		        Gs1 
	BYTE	W16
	BYTE		        Ds1 
	BYTE	W16
	BYTE	PEND
// 008   ----------------------------------------
UnshackledWreyvianP_FINAL_4_008:
	BYTE		N15     Fn0   v127
	BYTE	W16
	BYTE		        Fn1 
	BYTE	W16
	BYTE		        Cn1 
	BYTE	W16
	BYTE		        Fn0 
	BYTE	W16
	BYTE		        Fn1 
	BYTE	W16
	BYTE		        Cn1 
	BYTE	W16
	BYTE	PEND
// 009   ----------------------------------------
UnshackledWreyvianP_FINAL_4_009:
	BYTE		N15     As0   v127
	BYTE	W16
	BYTE		        Dn1 
	BYTE	W16
	BYTE		        As0 
	BYTE	W16
	BYTE		        Fn0 
	BYTE	W16
	BYTE		        As0 
	BYTE	W16
	BYTE		        Dn1 
	BYTE	W16
	BYTE	PEND
// 010   ----------------------------------------
	BYTE	PATT
	 POIN2	UnshackledWreyvianP_FINAL_4_006
// 011   ----------------------------------------
	BYTE	PATT
	 POIN2	UnshackledWreyvianP_FINAL_4_007
// 012   ----------------------------------------
UnshackledWreyvianP_FINAL_4_012:
	BYTE		N15     Fn0   v127
	BYTE	W16
	BYTE		        Fn1 
	BYTE	W16
	BYTE		        Cn1 
	BYTE	W16
	BYTE		        Gs0 
	BYTE	W16
	BYTE		        Cn1 
	BYTE	W16
	BYTE		        An0 
	BYTE	W16
	BYTE	PEND
// 013   ----------------------------------------
	BYTE	PATT
	 POIN2	UnshackledWreyvianP_FINAL_4_009
// 014   ----------------------------------------
	BYTE	PATT
	 POIN2	UnshackledWreyvianP_FINAL_4_007
// 015   ----------------------------------------
UnshackledWreyvianP_FINAL_4_015:
	BYTE		N15     Cn1   v127
	BYTE	W16
	BYTE		        Gn1 
	BYTE	W16
	BYTE		        Ds1 
	BYTE	W16
	BYTE		        Cn1 
	BYTE	W16
	BYTE		        Gn1 
	BYTE	W16
	BYTE		        Ds1 
	BYTE	W16
	BYTE	PEND
// 016   ----------------------------------------
UnshackledWreyvianP_FINAL_4_016:
	BYTE		N15     Bn0   v127
	BYTE	W16
	BYTE		        Fn1 
	BYTE	W16
	BYTE		        Dn1 
	BYTE	W16
	BYTE		        Bn0 
	BYTE	W16
	BYTE		        Fn1 
	BYTE	W16
	BYTE		        Dn1 
	BYTE	W16
	BYTE	PEND
// 017   ----------------------------------------
UnshackledWreyvianP_FINAL_4_017:
	BYTE		N15     Cn1   v127
	BYTE	W16
	BYTE		        Ds1 
	BYTE	W16
	BYTE		        Dn1 
	BYTE	W16
	BYTE		        Cn1 
	BYTE	W16
	BYTE		        As0 
	BYTE	W16
	BYTE		        Gn0 
	BYTE	W16
	BYTE	PEND
// 018   ----------------------------------------
	BYTE	PATT
	 POIN2	UnshackledWreyvianP_FINAL_4_007
// 019   ----------------------------------------
	BYTE	PATT
	 POIN2	UnshackledWreyvianP_FINAL_4_015
// 020   ----------------------------------------
UnshackledWreyvianP_FINAL_4_020:
	BYTE		N15     Fn0   v127
	BYTE	W16
	BYTE		        Fn1 
	BYTE	W16
	BYTE		        Cn1 
	BYTE	W16
	BYTE		        Fs0 
	BYTE	W16
	BYTE		        Fs1 
	BYTE	W16
	BYTE		        Dn1 
	BYTE	W16
	BYTE	PEND
// 021   ----------------------------------------
UnshackledWreyvianP_FINAL_4_021:
	BYTE		N15     Cn1   v127
	BYTE	W16
	BYTE		        Gn1 
	BYTE	W16
	BYTE		        Dn1 
	BYTE	W16
	BYTE		        Gn0 
	BYTE	W16
	BYTE		        Gn1 
	BYTE	W16
	BYTE		        Dn1 
	BYTE	W16
	BYTE	PEND
// 022   ----------------------------------------
	BYTE	PATT
	 POIN2	UnshackledWreyvianP_FINAL_4_006
// 023   ----------------------------------------
	BYTE	PATT
	 POIN2	UnshackledWreyvianP_FINAL_4_007
// 024   ----------------------------------------
	BYTE	PATT
	 POIN2	UnshackledWreyvianP_FINAL_4_008
// 025   ----------------------------------------
UnshackledWreyvianP_FINAL_4_025:
	BYTE		N15     As0   v127
	BYTE	W16
	BYTE		        Fn0 
	BYTE	W16
	BYTE		        As0 
	BYTE	W16
	BYTE		        Dn1 
	BYTE	W16
	BYTE		        Cn1 
	BYTE	W16
	BYTE		        As0 
	BYTE	W16
	BYTE	PEND
// 026   ----------------------------------------
	BYTE	PATT
	 POIN2	UnshackledWreyvianP_FINAL_4_006
// 027   ----------------------------------------
	BYTE	PATT
	 POIN2	UnshackledWreyvianP_FINAL_4_007
// 028   ----------------------------------------
	BYTE	PATT
	 POIN2	UnshackledWreyvianP_FINAL_4_012
// 029   ----------------------------------------
	BYTE	PATT
	 POIN2	UnshackledWreyvianP_FINAL_4_025
// 030   ----------------------------------------
	BYTE	PATT
	 POIN2	UnshackledWreyvianP_FINAL_4_007
// 031   ----------------------------------------
	BYTE	PATT
	 POIN2	UnshackledWreyvianP_FINAL_4_015
// 032   ----------------------------------------
	BYTE	PATT
	 POIN2	UnshackledWreyvianP_FINAL_4_016
// 033   ----------------------------------------
	BYTE	PATT
	 POIN2	UnshackledWreyvianP_FINAL_4_017
// 034   ----------------------------------------
	BYTE	PATT
	 POIN2	UnshackledWreyvianP_FINAL_4_007
// 035   ----------------------------------------
	BYTE	PATT
	 POIN2	UnshackledWreyvianP_FINAL_4_015
// 036   ----------------------------------------
	BYTE	PATT
	 POIN2	UnshackledWreyvianP_FINAL_4_020
// 037   ----------------------------------------
	BYTE	PATT
	 POIN2	UnshackledWreyvianP_FINAL_4_021
// 038   ----------------------------------------
UnshackledWreyvianP_FINAL_4_038:
	BYTE		N15     Cn1   v127
	BYTE	W16
	BYTE		        Gn0 
	BYTE	W16
	BYTE		        Cn1 
	BYTE	W16
	BYTE		        Ds1 
	BYTE	W16
	BYTE		        Dn1 
	BYTE	W16
	BYTE		        Cn1 
	BYTE	W16
	BYTE	PEND
// 039   ----------------------------------------
	BYTE	PATT
	 POIN2	UnshackledWreyvianP_FINAL_4_038
// 040   ----------------------------------------
UnshackledWreyvianP_FINAL_4_040:
	BYTE		N15     As0   v127
	BYTE	W16
	BYTE		        Gn0 
	BYTE	W16
	BYTE		        As0 
	BYTE	W16
	BYTE		        Dn1 
	BYTE	W16
	BYTE		        Cn1 
	BYTE	W16
	BYTE		        As0 
	BYTE	W16
	BYTE	PEND
// 041   ----------------------------------------
UnshackledWreyvianP_FINAL_4_041:
	BYTE		N15     Ds1   v127
	BYTE	W16
	BYTE		        As0 
	BYTE	W16
	BYTE		        Ds1 
	BYTE	W16
	BYTE		        Gn1 
	BYTE	W16
	BYTE		        Fn1 
	BYTE	W16
	BYTE		        Ds1 
	BYTE	W16
	BYTE	PEND
// 042   ----------------------------------------
UnshackledWreyvianP_FINAL_4_042:
	BYTE		N15     Cn1   v127
	BYTE	W16
	BYTE		        Dn1 
	BYTE	W16
	BYTE		        Ds1 
	BYTE	W16
	BYTE		        Gs1 
	BYTE	W16
	BYTE		        Gn1 
	BYTE	W16
	BYTE		        Gs1 
	BYTE	W16
	BYTE	PEND
// 043   ----------------------------------------
	BYTE	PATT
	 POIN2	UnshackledWreyvianP_FINAL_4_041
// 044   ----------------------------------------
UnshackledWreyvianP_FINAL_4_044:
	BYTE		N15     Dn1   v127
	BYTE	W16
	BYTE		        As0 
	BYTE	W16
	BYTE		        Dn1 
	BYTE	W16
	BYTE		        Fn1 
	BYTE	W16
	BYTE		        Ds1 
	BYTE	W16
	BYTE		        Dn1 
	BYTE	W16
	BYTE	PEND
// 045   ----------------------------------------
	BYTE		        Cn1 
	BYTE	W16
	BYTE		        Ds1 
	BYTE	W16
	BYTE		        Cn1 
	BYTE	W16
	BYTE		        Dn1 
	BYTE	W16
	BYTE		        Fn1 
	BYTE	W16
	BYTE		        Dn1 
	BYTE	W16
// 046   ----------------------------------------
	BYTE	PATT
	 POIN2	UnshackledWreyvianP_FINAL_4_038
// 047   ----------------------------------------
	BYTE	PATT
	 POIN2	UnshackledWreyvianP_FINAL_4_038
// 048   ----------------------------------------
	BYTE	PATT
	 POIN2	UnshackledWreyvianP_FINAL_4_040
// 049   ----------------------------------------
	BYTE	PATT
	 POIN2	UnshackledWreyvianP_FINAL_4_041
// 050   ----------------------------------------
	BYTE	PATT
	 POIN2	UnshackledWreyvianP_FINAL_4_042
// 051   ----------------------------------------
	BYTE	PATT
	 POIN2	UnshackledWreyvianP_FINAL_4_041
// 052   ----------------------------------------
	BYTE	PATT
	 POIN2	UnshackledWreyvianP_FINAL_4_044
// 053   ----------------------------------------
	BYTE	PATT
	 POIN2	UnshackledWreyvianP_FINAL_4_007
// 054   ----------------------------------------
	BYTE	PATT
	 POIN2	UnshackledWreyvianP_FINAL_4_015
// 055   ----------------------------------------
	BYTE	PATT
	 POIN2	UnshackledWreyvianP_FINAL_4_016
// 056   ----------------------------------------
	BYTE	PATT
	 POIN2	UnshackledWreyvianP_FINAL_4_017
// 057   ----------------------------------------
	BYTE	PATT
	 POIN2	UnshackledWreyvianP_FINAL_4_007
// 058   ----------------------------------------
	BYTE	PATT
	 POIN2	UnshackledWreyvianP_FINAL_4_015
// 059   ----------------------------------------
	BYTE	PATT
	 POIN2	UnshackledWreyvianP_FINAL_4_020
// 060   ----------------------------------------
	BYTE	PATT
	 POIN2	UnshackledWreyvianP_FINAL_4_021
// 061   ----------------------------------------
	BYTE		N90     Gn0   v127
	BYTE	W92
	BYTE	W03
	BYTE	GoTo
	 POIN2	UnshackledWreyvianP_FINAL_4_B1
UnshackledWreyvianP_FINAL_4_B2:
	BYTE	FINE

//**************** Track 5 (Midi-Chn.5) ****************//

UnshackledWreyvianP_FINAL_5:
	BYTE	KEYSH   UnshackledWreyvianP_FINAL_key+0
// 000   ----------------------------------------
	BYTE		VOICE   49
	BYTE		MODT    0
	BYTE		LFOS    44
	BYTE		PAN     c_v+23
	BYTE		VOL     127*UnshackledWreyvianP_FINAL_mvl/mxv
	BYTE	W96
// 001   ----------------------------------------
	BYTE	W96
// 002   ----------------------------------------
	BYTE	W96
// 003   ----------------------------------------
	BYTE	W96
// 004   ----------------------------------------
	BYTE	W96
// 005   ----------------------------------------
	BYTE	W96
UnshackledWreyvianP_FINAL_5_B1:
// 006   ----------------------------------------
	BYTE	W96
// 007   ----------------------------------------
	BYTE	W96
// 008   ----------------------------------------
	BYTE	W96
// 009   ----------------------------------------
	BYTE	W96
// 010   ----------------------------------------
	BYTE	W96
// 011   ----------------------------------------
	BYTE	W96
// 012   ----------------------------------------
	BYTE	W96
// 013   ----------------------------------------
	BYTE	W96
// 014   ----------------------------------------
	BYTE	W96
// 015   ----------------------------------------
	BYTE	W96
// 016   ----------------------------------------
	BYTE	W96
// 017   ----------------------------------------
	BYTE	W96
// 018   ----------------------------------------
	BYTE	W96
// 019   ----------------------------------------
	BYTE	W96
// 020   ----------------------------------------
	BYTE	W96
// 021   ----------------------------------------
	BYTE	W96
// 022   ----------------------------------------
	BYTE		N15     Cn4   v127
	BYTE	W16
	BYTE		        An3 
	BYTE	W16
	BYTE		        Cn4 
	BYTE	W16
	BYTE		        En4 
	BYTE	W16
	BYTE		        Dn4 
	BYTE	W16
	BYTE		        Cn4 
	BYTE	W16
// 023   ----------------------------------------
	BYTE		        Fn4 
	BYTE	W16
	BYTE		        Cn4 
	BYTE	W16
	BYTE		        Fn4 
	BYTE	W16
	BYTE		        An4 
	BYTE	W16
	BYTE		        Gn4 
	BYTE	W16
	BYTE		        Fn4 
	BYTE	W16
// 024   ----------------------------------------
	BYTE		N07     Dn4 
	BYTE	W08
	BYTE		        An3 
	BYTE	W08
	BYTE		        Dn4 
	BYTE	W08
	BYTE		        Fs4 
	BYTE	W08
	BYTE		        Dn4 
	BYTE	W08
	BYTE		        Fs4 
	BYTE	W08
	BYTE		N15     An4 
	BYTE	W16
	BYTE		        Gn4 
	BYTE	W16
	BYTE		        Fs4 
	BYTE	W16
// 025   ----------------------------------------
	BYTE		        Gn4 
	BYTE	W16
	BYTE		        En4 
	BYTE	W16
	BYTE		        Gn4 
	BYTE	W16
	BYTE		N20     Dn4 
	BYTE	W24
	BYTE		        Bn3 
	BYTE	W24
// 026   ----------------------------------------
	BYTE		N15     An3 
	BYTE	W16
	BYTE		        Gn3 
	BYTE	W16
	BYTE		        An3 
	BYTE	W16
	BYTE		        En3 
	BYTE	W16
	BYTE		        Dn3 
	BYTE	W16
	BYTE		        En3 
	BYTE	W16
// 027   ----------------------------------------
	BYTE		        Fn3 
	BYTE	W16
	BYTE		        An3 
	BYTE	W16
	BYTE		        Gn3 
	BYTE	W16
	BYTE		        Fn3 
	BYTE	W16
	BYTE		        Cn3 
	BYTE	W16
	BYTE		        Fn3 
	BYTE	W16
// 028   ----------------------------------------
	BYTE		N32     En3   v076
	BYTE		N32     Gn3 
	BYTE	W36
	BYTE		N11   
	BYTE		N11     Cn4 
	BYTE	W12
	BYTE		N15     Bn3 
	BYTE	W16
	BYTE		        Cn4 
	BYTE	W16
	BYTE		        Dn4 
	BYTE	W16
// 029   ----------------------------------------
	BYTE		N72     En4 
	BYTE	W96
// 030   ----------------------------------------
	BYTE	W96
// 031   ----------------------------------------
	BYTE	W96
// 032   ----------------------------------------
	BYTE	W96
// 033   ----------------------------------------
	BYTE	W96
// 034   ----------------------------------------
	BYTE	W96
// 035   ----------------------------------------
	BYTE	W96
// 036   ----------------------------------------
	BYTE	W96
// 037   ----------------------------------------
	BYTE	W96
// 038   ----------------------------------------
	BYTE	W96
// 039   ----------------------------------------
	BYTE	W96
// 040   ----------------------------------------
	BYTE	W96
// 041   ----------------------------------------
	BYTE	W96
// 042   ----------------------------------------
	BYTE	W96
// 043   ----------------------------------------
	BYTE	W96
// 044   ----------------------------------------
	BYTE	W96
// 045   ----------------------------------------
	BYTE	W96
// 046   ----------------------------------------
	BYTE	W96
// 047   ----------------------------------------
	BYTE	W96
// 048   ----------------------------------------
	BYTE	W96
// 049   ----------------------------------------
	BYTE	W96
// 050   ----------------------------------------
	BYTE	W96
// 051   ----------------------------------------
	BYTE	W96
// 052   ----------------------------------------
	BYTE	W96
// 053   ----------------------------------------
	BYTE	W96
// 054   ----------------------------------------
	BYTE	W96
// 055   ----------------------------------------
	BYTE	W96
// 056   ----------------------------------------
	BYTE	W96
// 057   ----------------------------------------
	BYTE	W96
// 058   ----------------------------------------
	BYTE	W96
// 059   ----------------------------------------
	BYTE	W96
// 060   ----------------------------------------
	BYTE	W96
// 061   ----------------------------------------
	BYTE	W92
	BYTE	W03
	BYTE	GoTo
	 POIN2	UnshackledWreyvianP_FINAL_5_B1
UnshackledWreyvianP_FINAL_5_B2:
	BYTE	FINE

//**************** Track 6 (Midi-Chn.6) ****************//

UnshackledWreyvianP_FINAL_6:
	BYTE	KEYSH   UnshackledWreyvianP_FINAL_key+0
// 000   ----------------------------------------
	BYTE		VOICE   80
	BYTE		MODT    0
	BYTE		LFOS    44
	BYTE		PAN     c_v-7
	BYTE		VOL     95*UnshackledWreyvianP_FINAL_mvl/mxv
	BYTE	W96
// 001   ----------------------------------------
	BYTE	W96
// 002   ----------------------------------------
	BYTE	W96
// 003   ----------------------------------------
	BYTE	W96
// 004   ----------------------------------------
	BYTE	W96
// 005   ----------------------------------------
	BYTE	W96
UnshackledWreyvianP_FINAL_6_B1:
// 006   ----------------------------------------
	BYTE	W96
// 007   ----------------------------------------
	BYTE	W96
// 008   ----------------------------------------
	BYTE	W96
// 009   ----------------------------------------
	BYTE	W96
// 010   ----------------------------------------
	BYTE	W96
// 011   ----------------------------------------
	BYTE	W96
// 012   ----------------------------------------
	BYTE	W96
// 013   ----------------------------------------
	BYTE	W96
// 014   ----------------------------------------
	BYTE	W96
// 015   ----------------------------------------
	BYTE	W96
// 016   ----------------------------------------
	BYTE	W96
// 017   ----------------------------------------
	BYTE	W96
// 018   ----------------------------------------
	BYTE	W96
// 019   ----------------------------------------
	BYTE	W96
// 020   ----------------------------------------
	BYTE	W96
// 021   ----------------------------------------
	BYTE	W96
// 022   ----------------------------------------
	BYTE	W96
// 023   ----------------------------------------
	BYTE	W96
// 024   ----------------------------------------
	BYTE	W96
// 025   ----------------------------------------
	BYTE	W96
// 026   ----------------------------------------
	BYTE	W96
// 027   ----------------------------------------
	BYTE	W96
// 028   ----------------------------------------
	BYTE	W96
// 029   ----------------------------------------
	BYTE		N12     As4   v076
	BYTE	W12
	BYTE		        Gs4 
	BYTE	W12
	BYTE		        Gn4 
	BYTE	W12
	BYTE		        Fn4 
	BYTE	W12
	BYTE		        Ds4 
	BYTE	W12
	BYTE		        Dn4 
	BYTE	W12
	BYTE		        Cn4 
	BYTE	W12
	BYTE		N11     As3 
	BYTE	W12
// 030   ----------------------------------------
UnshackledWreyvianP_FINAL_6_030:
	BYTE		N05     Cn4   v076
	BYTE	W06
	BYTE		        Gn3 
	BYTE	W06
	BYTE		        Cn4 
	BYTE	W06
	BYTE		        Dn4 
	BYTE	W06
	BYTE		        Ds4 
	BYTE	W06
	BYTE		        Dn4 
	BYTE	W06
	BYTE		        Cn4 
	BYTE	W06
	BYTE		        Gn3 
	BYTE	W06
	BYTE		        Cn4 
	BYTE	W06
	BYTE		        Gn3 
	BYTE	W06
	BYTE		        Cn4 
	BYTE	W06
	BYTE		        Dn4 
	BYTE	W06
	BYTE		        Ds4 
	BYTE	W06
	BYTE		        Dn4 
	BYTE	W06
	BYTE		        Cn4 
	BYTE	W06
	BYTE		        Gn3 
	BYTE	W06
	BYTE	PEND
// 031   ----------------------------------------
UnshackledWreyvianP_FINAL_6_031:
	BYTE		N05     Ds4   v076
	BYTE	W06
	BYTE		        Cn4 
	BYTE	W06
	BYTE		        Ds4 
	BYTE	W06
	BYTE		        Fn4 
	BYTE	W06
	BYTE		        Gn4 
	BYTE	W06
	BYTE		        Ds4 
	BYTE	W06
	BYTE		        Cn4 
	BYTE	W06
	BYTE		        As3 
	BYTE	W06
	BYTE		        Ds4 
	BYTE	W06
	BYTE		        Cn4 
	BYTE	W06
	BYTE		        Ds4 
	BYTE	W06
	BYTE		        Fn4 
	BYTE	W06
	BYTE		        Gn4 
	BYTE	W06
	BYTE		        Ds4 
	BYTE	W06
	BYTE		        Cn4 
	BYTE	W06
	BYTE		        As3 
	BYTE	W06
	BYTE	PEND
// 032   ----------------------------------------
	BYTE		        Dn4 
	BYTE	W06
	BYTE		        Bn3 
	BYTE	W06
	BYTE		        Dn4 
	BYTE	W06
	BYTE		        Ds4 
	BYTE	W06
	BYTE		        Fn4 
	BYTE	W06
	BYTE		        Dn4 
	BYTE	W06
	BYTE		        Cn4 
	BYTE	W06
	BYTE		        Bn3 
	BYTE	W06
	BYTE		        Dn4 
	BYTE	W06
	BYTE		        Bn3 
	BYTE	W06
	BYTE		        Dn4 
	BYTE	W06
	BYTE		        Ds4 
	BYTE	W06
	BYTE		        Fn4 
	BYTE	W06
	BYTE		        Dn4 
	BYTE	W06
	BYTE		        Cn4 
	BYTE	W06
	BYTE		        Bn3 
	BYTE	W06
// 033   ----------------------------------------
	BYTE		        Cn4 
	BYTE	W06
	BYTE		        Dn4 
	BYTE	W06
	BYTE		        Ds4 
	BYTE	W06
	BYTE		        Cn4 
	BYTE	W06
	BYTE		        Gs4 
	BYTE	W06
	BYTE		        Gn4 
	BYTE	W06
	BYTE		        Fn4 
	BYTE	W06
	BYTE		        Gs4 
	BYTE	W06
	BYTE		        Gn4 
	BYTE	W06
	BYTE		        Fn4 
	BYTE	W06
	BYTE		        Ds4 
	BYTE	W06
	BYTE		        Dn4 
	BYTE	W06
	BYTE		        Gn4 
	BYTE	W06
	BYTE		        Fn4 
	BYTE	W06
	BYTE		        Ds4 
	BYTE	W06
	BYTE		        Dn4 
	BYTE	W06
// 034   ----------------------------------------
	BYTE	PATT
	 POIN2	UnshackledWreyvianP_FINAL_6_030
// 035   ----------------------------------------
	BYTE	PATT
	 POIN2	UnshackledWreyvianP_FINAL_6_031
// 036   ----------------------------------------
	BYTE		N05     Fn4   v076
	BYTE	W06
	BYTE		        Cn4 
	BYTE	W06
	BYTE		        Gs3 
	BYTE	W06
	BYTE		        Fn3 
	BYTE	W06
	BYTE		        Fn4 
	BYTE	W06
	BYTE		        Cn4 
	BYTE	W06
	BYTE		        Gs3 
	BYTE	W06
	BYTE		        Fn3 
	BYTE	W06
	BYTE		        Fs4 
	BYTE	W06
	BYTE		        Dn4 
	BYTE	W06
	BYTE		        Bn3 
	BYTE	W06
	BYTE		        Gn3 
	BYTE	W06
	BYTE		        Fs4 
	BYTE	W06
	BYTE		        Dn4 
	BYTE	W06
	BYTE		        Bn3 
	BYTE	W06
	BYTE		        Gn3 
	BYTE	W06
// 037   ----------------------------------------
	BYTE		        Gn4 
	BYTE	W06
	BYTE		        Ds4 
	BYTE	W06
	BYTE		        Cn4 
	BYTE	W06
	BYTE		        Gs3 
	BYTE	W06
	BYTE		        Cn4 
	BYTE	W06
	BYTE		        Ds4 
	BYTE	W06
	BYTE		        Gn4 
	BYTE	W06
	BYTE		        Gs4 
	BYTE	W06
	BYTE		        Gn4 
	BYTE	W06
	BYTE		        Fn4 
	BYTE	W06
	BYTE		        Ds4 
	BYTE	W06
	BYTE		        Dn4 
	BYTE	W06
	BYTE		        Cn4 
	BYTE	W06
	BYTE		        Bn3 
	BYTE	W06
	BYTE		        Gs3 
	BYTE	W06
	BYTE		        Gn3 
	BYTE	W06
// 038   ----------------------------------------
	BYTE	W96
// 039   ----------------------------------------
	BYTE	W96
// 040   ----------------------------------------
	BYTE	W96
// 041   ----------------------------------------
	BYTE	W96
// 042   ----------------------------------------
	BYTE	W96
// 043   ----------------------------------------
	BYTE	W96
// 044   ----------------------------------------
	BYTE	W96
// 045   ----------------------------------------
	BYTE	W96
// 046   ----------------------------------------
	BYTE	W96
// 047   ----------------------------------------
	BYTE	W96
// 048   ----------------------------------------
	BYTE	W96
// 049   ----------------------------------------
	BYTE	W96
// 050   ----------------------------------------
	BYTE	W96
// 051   ----------------------------------------
	BYTE	W96
// 052   ----------------------------------------
	BYTE	W96
// 053   ----------------------------------------
	BYTE	W96
// 054   ----------------------------------------
	BYTE	W96
// 055   ----------------------------------------
	BYTE	W96
// 056   ----------------------------------------
	BYTE	W96
// 057   ----------------------------------------
	BYTE	W96
// 058   ----------------------------------------
	BYTE	W96
// 059   ----------------------------------------
	BYTE	W96
// 060   ----------------------------------------
	BYTE	W96
// 061   ----------------------------------------
	BYTE	W92
	BYTE	W03
	BYTE	GoTo
	 POIN2	UnshackledWreyvianP_FINAL_6_B1
UnshackledWreyvianP_FINAL_6_B2:
	BYTE	FINE

//**************** Track 7 (Midi-Chn.7) ****************//

UnshackledWreyvianP_FINAL_7:
	BYTE	KEYSH   UnshackledWreyvianP_FINAL_key+0
// 000   ----------------------------------------
	BYTE		VOICE   122
	BYTE		MODT    0
	BYTE		LFOS    44
	BYTE		PAN     c_v-1
	BYTE		VOL     127*UnshackledWreyvianP_FINAL_mvl/mxv
	BYTE		N15     Cn1   v127
	BYTE		N15     An2 
	BYTE	W16
	BYTE		        Cn1 
	BYTE		N15     An2 
	BYTE	W16
	BYTE		        Cn1 
	BYTE		N15     An2 
	BYTE	W16
	BYTE		N11     En1 
	BYTE		N11     Dn2 
	BYTE		N11     An2 
	BYTE	W12
	BYTE		        En1 
	BYTE		N11     Cn2 
	BYTE	W12
	BYTE		N05     En1 
	BYTE		N05     Bn1 
	BYTE	W06
	BYTE		        En1 
	BYTE		N05     Bn1 
	BYTE	W06
	BYTE		N11     En1 
	BYTE		N11     An1 
	BYTE	W12
// 001   ----------------------------------------
	BYTE		N15     Cn1 
	BYTE		N15     An2 
	BYTE	W16
	BYTE		        Cn1 
	BYTE		N15     An2 
	BYTE	W16
	BYTE		        Cn1 
	BYTE		N15     An2 
	BYTE	W16
	BYTE		N11     En1 
	BYTE		N11     Dn2 
	BYTE		N11     An2 
	BYTE	W12
	BYTE		        En1 
	BYTE		N11     Cn2 
	BYTE	W12
	BYTE		N05     En1 
	BYTE		N05     Bn1 
	BYTE	W06
	BYTE		        En1 
	BYTE		N05     Bn1 
	BYTE	W06
	BYTE		N11     En1 
	BYTE		N11     An1 
	BYTE	W12
// 002   ----------------------------------------
	BYTE		N05     Cn1 
	BYTE		N05     En1 
	BYTE		N05     Dn2 
	BYTE		N05     An2 
	BYTE	W06
	BYTE		        Cn2 
	BYTE	W06
	BYTE		        Bn1 
	BYTE	W06
	BYTE		        An1 
	BYTE	W06
	BYTE		        Cn1 
	BYTE		N05     En1 
	BYTE		N05     Dn2 
	BYTE		N05     An2 
	BYTE	W06
	BYTE		        Cn2 
	BYTE	W06
	BYTE		        Bn1 
	BYTE	W06
	BYTE		        An1 
	BYTE	W06
	BYTE		        Cn1 
	BYTE		N05     En1 
	BYTE		N05     Dn2 
	BYTE		N05     An2 
	BYTE	W06
	BYTE		        Cn2 
	BYTE	W06
	BYTE		        Bn1 
	BYTE	W06
	BYTE		        An1 
	BYTE	W06
	BYTE		        Cn1 
	BYTE		N05     En1 
	BYTE		N05     Dn2 
	BYTE		N05     An2 
	BYTE	W06
	BYTE		        Cn2 
	BYTE	W06
	BYTE		        Bn1 
	BYTE	W06
	BYTE		        An1 
	BYTE	W06
// 003   ----------------------------------------
	BYTE		        Cn1 
	BYTE		N05     En1 
	BYTE		N05     Dn2 
	BYTE		N05     An2 
	BYTE	W06
	BYTE		        Cn2 
	BYTE	W06
	BYTE		        Bn1 
	BYTE	W06
	BYTE		        An1 
	BYTE	W06
	BYTE		        Cn1 
	BYTE		N05     En1 
	BYTE		N05     Dn2 
	BYTE		N05     An2 
	BYTE	W06
	BYTE		        Cn2 
	BYTE	W06
	BYTE		        Bn1 
	BYTE	W06
	BYTE		        An1 
	BYTE	W06
	BYTE		        Cn1 
	BYTE		N05     En1 
	BYTE		N05     Dn2 
	BYTE		N05     An2 
	BYTE	W06
	BYTE		        Cn2 
	BYTE	W06
	BYTE		        Bn1 
	BYTE	W06
	BYTE		        An1 
	BYTE	W06
	BYTE		        Cn1 
	BYTE		N05     En1 
	BYTE		N05     Dn2 
	BYTE		N05     An2 
	BYTE	W06
	BYTE		        Cn2 
	BYTE	W06
	BYTE		        En1 
	BYTE		N05     Bn1 
	BYTE	W06
	BYTE		        En1 
	BYTE		N05     An1 
	BYTE	W06
// 004   ----------------------------------------
	BYTE		N11     Cn1 
	BYTE		N11     Fs1 
	BYTE	W12
	BYTE		        Cn1 
	BYTE		N11     Fs1 
	BYTE	W12
	BYTE		N05     Cn1 
	BYTE		N05     Fs1 
	BYTE	W06
	BYTE		        En1 
	BYTE		N05     Gs1 
	BYTE	W06
	BYTE		        As1 
	BYTE	W06
	BYTE		        Gs1 
	BYTE	W06
	BYTE		N11     Cn1 
	BYTE		N11     Fs1 
	BYTE	W12
	BYTE		        Cn1 
	BYTE		N11     Fs1 
	BYTE	W12
	BYTE		N05     Cn1 
	BYTE		N05     Fs1 
	BYTE	W06
	BYTE		        En1 
	BYTE		N05     Gs1 
	BYTE	W06
	BYTE		        As1 
	BYTE	W06
	BYTE		        Gs1 
	BYTE	W06
// 005   ----------------------------------------
	BYTE		N11     Cn1 
	BYTE		N11     Fs1 
	BYTE	W12
	BYTE		        Cn1 
	BYTE		N11     Fs1 
	BYTE	W12
	BYTE		N05     Cn1 
	BYTE		N05     Fs1 
	BYTE	W06
	BYTE		        En1 
	BYTE		N05     Gs1 
	BYTE	W06
	BYTE		        As1 
	BYTE	W06
	BYTE		        Gs1 
	BYTE	W06
	BYTE		N11     Cn1 
	BYTE		N11     En1 
	BYTE		N11     Fs1 
	BYTE	W12
	BYTE		        Cn1 
	BYTE		N11     Fs1 
	BYTE	W12
	BYTE		N05     Cn1 
	BYTE		N05     En1 
	BYTE		N05     Fs1 
	BYTE	W06
	BYTE		        En1 
	BYTE		N05     Gs1 
	BYTE	W06
	BYTE		        En1 
	BYTE		N05     As1 
	BYTE	W06
	BYTE		        En1 
	BYTE		N05     Gs1 
	BYTE	W06
UnshackledWreyvianP_FINAL_7_B1:
// 006   ----------------------------------------
	BYTE		VOL     127*UnshackledWreyvianP_FINAL_mvl/mxv
	BYTE		N11     Cn1   v127
	BYTE		N11     Fs1 
	BYTE		N11     An2 
	BYTE	W12
	BYTE		N05     Gs1 
	BYTE	W06
	BYTE		        Cn1 
	BYTE	W06
	BYTE		N11     En1 
	BYTE		N11     As1 
	BYTE	W12
	BYTE		        Cn1 
	BYTE		N11     Gs1 
	BYTE	W12
	BYTE		        Cn1 
	BYTE		N11     Fs1 
	BYTE	W12
	BYTE		N05     Gs1 
	BYTE	W06
	BYTE		        Cn1 
	BYTE	W06
	BYTE		N11     En1 
	BYTE		N11     As1 
	BYTE	W12
	BYTE		        Cn1 
	BYTE		N11     Gs1 
	BYTE	W12
// 007   ----------------------------------------
UnshackledWreyvianP_FINAL_7_007:
	BYTE		N11     Cn1   v127
	BYTE		N11     Fs1 
	BYTE	W12
	BYTE		N05     Gs1 
	BYTE	W06
	BYTE		        Cn1 
	BYTE	W06
	BYTE		N11     En1 
	BYTE		N11     As1 
	BYTE	W12
	BYTE		        Cn1 
	BYTE		N11     Gs1 
	BYTE	W12
	BYTE		        Cn1 
	BYTE		N11     Fs1 
	BYTE	W12
	BYTE		N05     Gs1 
	BYTE	W06
	BYTE		        Cn1 
	BYTE	W06
	BYTE		N11     En1 
	BYTE		N11     As1 
	BYTE	W12
	BYTE		        Cn1 
	BYTE		N11     Gs1 
	BYTE	W12
	BYTE	PEND
// 008   ----------------------------------------
	BYTE	PATT
	 POIN2	UnshackledWreyvianP_FINAL_7_007
// 009   ----------------------------------------
UnshackledWreyvianP_FINAL_7_009:
	BYTE		N11     Cn1   v127
	BYTE		N11     Fs1 
	BYTE	W12
	BYTE		N05     Gs1 
	BYTE	W06
	BYTE		        Cn1 
	BYTE	W06
	BYTE		N11     En1 
	BYTE		N11     As1 
	BYTE	W12
	BYTE		        Cn1 
	BYTE		N11     Gs1 
	BYTE	W12
	BYTE		        Cn1 
	BYTE		N11     Fs1 
	BYTE	W12
	BYTE		N05     Gs1 
	BYTE	W06
	BYTE		        Cn1 
	BYTE	W06
	BYTE		N11     En1 
	BYTE		N11     As1 
	BYTE	W12
	BYTE		        Cn1 
	BYTE		N11     En1 
	BYTE		N11     Gs1 
	BYTE	W12
	BYTE	PEND
// 010   ----------------------------------------
UnshackledWreyvianP_FINAL_7_010:
	BYTE		N11     Cn1   v127
	BYTE		N11     Fs1 
	BYTE		N11     An2 
	BYTE	W12
	BYTE		N05     Gs1 
	BYTE	W06
	BYTE		        Cn1 
	BYTE	W06
	BYTE		N11     En1 
	BYTE		N11     As1 
	BYTE	W12
	BYTE		        Cn1 
	BYTE		N11     Gs1 
	BYTE	W12
	BYTE		        Cn1 
	BYTE		N11     Fs1 
	BYTE	W12
	BYTE		N05     Gs1 
	BYTE	W06
	BYTE		        Cn1 
	BYTE	W06
	BYTE		N11     En1 
	BYTE		N11     As1 
	BYTE	W12
	BYTE		        Cn1 
	BYTE		N11     Gs1 
	BYTE	W12
	BYTE	PEND
// 011   ----------------------------------------
	BYTE	PATT
	 POIN2	UnshackledWreyvianP_FINAL_7_007
// 012   ----------------------------------------
	BYTE	PATT
	 POIN2	UnshackledWreyvianP_FINAL_7_007
// 013   ----------------------------------------
UnshackledWreyvianP_FINAL_7_013:
	BYTE		N11     Cn1   v127
	BYTE		N11     Fs1 
	BYTE	W12
	BYTE		N05     Gs1 
	BYTE	W06
	BYTE		        Cn1 
	BYTE	W06
	BYTE		N11     En1 
	BYTE		N11     As1 
	BYTE	W12
	BYTE		        Cn1 
	BYTE		N11     Gs1 
	BYTE	W12
	BYTE		        Cn1 
	BYTE		N11     Fs1 
	BYTE	W12
	BYTE		N05     Gs1 
	BYTE	W06
	BYTE		        Cn1 
	BYTE	W06
	BYTE		N11     En1 
	BYTE		N11     As1 
	BYTE	W12
	BYTE		N05     Cn1 
	BYTE		N05     En1 
	BYTE		N05     Gs1 
	BYTE	W06
	BYTE		        En1 
	BYTE	W06
	BYTE	PEND
// 014   ----------------------------------------
	BYTE	PATT
	 POIN2	UnshackledWreyvianP_FINAL_7_010
// 015   ----------------------------------------
	BYTE	PATT
	 POIN2	UnshackledWreyvianP_FINAL_7_007
// 016   ----------------------------------------
	BYTE	PATT
	 POIN2	UnshackledWreyvianP_FINAL_7_007
// 017   ----------------------------------------
	BYTE	PATT
	 POIN2	UnshackledWreyvianP_FINAL_7_009
// 018   ----------------------------------------
	BYTE	PATT
	 POIN2	UnshackledWreyvianP_FINAL_7_010
// 019   ----------------------------------------
	BYTE	PATT
	 POIN2	UnshackledWreyvianP_FINAL_7_007
// 020   ----------------------------------------
	BYTE	PATT
	 POIN2	UnshackledWreyvianP_FINAL_7_007
// 021   ----------------------------------------
	BYTE	PATT
	 POIN2	UnshackledWreyvianP_FINAL_7_013
// 022   ----------------------------------------
	BYTE	PATT
	 POIN2	UnshackledWreyvianP_FINAL_7_010
// 023   ----------------------------------------
	BYTE	PATT
	 POIN2	UnshackledWreyvianP_FINAL_7_007
// 024   ----------------------------------------
	BYTE	PATT
	 POIN2	UnshackledWreyvianP_FINAL_7_007
// 025   ----------------------------------------
	BYTE	PATT
	 POIN2	UnshackledWreyvianP_FINAL_7_009
// 026   ----------------------------------------
	BYTE	PATT
	 POIN2	UnshackledWreyvianP_FINAL_7_010
// 027   ----------------------------------------
	BYTE	PATT
	 POIN2	UnshackledWreyvianP_FINAL_7_007
// 028   ----------------------------------------
	BYTE	PATT
	 POIN2	UnshackledWreyvianP_FINAL_7_007
// 029   ----------------------------------------
	BYTE	PATT
	 POIN2	UnshackledWreyvianP_FINAL_7_013
// 030   ----------------------------------------
	BYTE	PATT
	 POIN2	UnshackledWreyvianP_FINAL_7_010
// 031   ----------------------------------------
	BYTE	PATT
	 POIN2	UnshackledWreyvianP_FINAL_7_007
// 032   ----------------------------------------
	BYTE	PATT
	 POIN2	UnshackledWreyvianP_FINAL_7_007
// 033   ----------------------------------------
	BYTE	PATT
	 POIN2	UnshackledWreyvianP_FINAL_7_009
// 034   ----------------------------------------
	BYTE	PATT
	 POIN2	UnshackledWreyvianP_FINAL_7_010
// 035   ----------------------------------------
	BYTE	PATT
	 POIN2	UnshackledWreyvianP_FINAL_7_007
// 036   ----------------------------------------
	BYTE	PATT
	 POIN2	UnshackledWreyvianP_FINAL_7_007
// 037   ----------------------------------------
	BYTE	PATT
	 POIN2	UnshackledWreyvianP_FINAL_7_013
// 038   ----------------------------------------
UnshackledWreyvianP_FINAL_7_038:
	BYTE		N15     Cn1   v127
	BYTE		N15     Fs1 
	BYTE	W16
	BYTE		N07     Cn1 
	BYTE		N07     Gs1 
	BYTE	W08
	BYTE		        Cn1 
	BYTE	W08
	BYTE		N15   
	BYTE		N15     Fs1 
	BYTE	W16
	BYTE		        En1 
	BYTE		N15     As1 
	BYTE	W16
	BYTE		        Cn1 
	BYTE		N15     Gs1 
	BYTE	W16
	BYTE		        Cn1 
	BYTE		N15     Fs1 
	BYTE	W16
	BYTE	PEND
// 039   ----------------------------------------
	BYTE	PATT
	 POIN2	UnshackledWreyvianP_FINAL_7_038
// 040   ----------------------------------------
	BYTE	PATT
	 POIN2	UnshackledWreyvianP_FINAL_7_038
// 041   ----------------------------------------
	BYTE	PATT
	 POIN2	UnshackledWreyvianP_FINAL_7_038
// 042   ----------------------------------------
	BYTE	PATT
	 POIN2	UnshackledWreyvianP_FINAL_7_038
// 043   ----------------------------------------
	BYTE	PATT
	 POIN2	UnshackledWreyvianP_FINAL_7_038
// 044   ----------------------------------------
	BYTE	PATT
	 POIN2	UnshackledWreyvianP_FINAL_7_038
// 045   ----------------------------------------
	BYTE	PATT
	 POIN2	UnshackledWreyvianP_FINAL_7_038
// 046   ----------------------------------------
	BYTE	PATT
	 POIN2	UnshackledWreyvianP_FINAL_7_038
// 047   ----------------------------------------
	BYTE	PATT
	 POIN2	UnshackledWreyvianP_FINAL_7_038
// 048   ----------------------------------------
	BYTE	PATT
	 POIN2	UnshackledWreyvianP_FINAL_7_038
// 049   ----------------------------------------
	BYTE	PATT
	 POIN2	UnshackledWreyvianP_FINAL_7_038
// 050   ----------------------------------------
	BYTE	PATT
	 POIN2	UnshackledWreyvianP_FINAL_7_038
// 051   ----------------------------------------
	BYTE	PATT
	 POIN2	UnshackledWreyvianP_FINAL_7_038
// 052   ----------------------------------------
	BYTE		N15     Cn1   v127
	BYTE		N15     Fs1 
	BYTE	W16
	BYTE		N07     Cn1 
	BYTE		N07     Gs1 
	BYTE	W08
	BYTE		        Cn1 
	BYTE	W08
	BYTE		N15   
	BYTE		N15     Fs1 
	BYTE	W16
	BYTE		        En1 
	BYTE		N15     As1 
	BYTE	W16
	BYTE		        Cn1 
	BYTE		N15     Gs1 
	BYTE	W16
	BYTE		N03     Cn1 
	BYTE		N03     Fs1 
	BYTE	W04
	BYTE		        Cn1 
	BYTE		N03     Fs1 
	BYTE	W04
	BYTE		        Cn1 
	BYTE		N03     Fs1 
	BYTE	W04
	BYTE		        Cn1 
	BYTE		N03     Fs1 
	BYTE	W04
// 053   ----------------------------------------
	BYTE	PATT
	 POIN2	UnshackledWreyvianP_FINAL_7_010
// 054   ----------------------------------------
	BYTE	PATT
	 POIN2	UnshackledWreyvianP_FINAL_7_007
// 055   ----------------------------------------
	BYTE	PATT
	 POIN2	UnshackledWreyvianP_FINAL_7_007
// 056   ----------------------------------------
	BYTE	PATT
	 POIN2	UnshackledWreyvianP_FINAL_7_009
// 057   ----------------------------------------
	BYTE	PATT
	 POIN2	UnshackledWreyvianP_FINAL_7_010
// 058   ----------------------------------------
	BYTE	PATT
	 POIN2	UnshackledWreyvianP_FINAL_7_007
// 059   ----------------------------------------
	BYTE	PATT
	 POIN2	UnshackledWreyvianP_FINAL_7_007
// 060   ----------------------------------------
	BYTE	PATT
	 POIN2	UnshackledWreyvianP_FINAL_7_013
// 061   ----------------------------------------
	BYTE		N90     Bn0   v127
	BYTE		N90     Cn1 
	BYTE		N90     Dn1 
	BYTE		N90     En1 
	BYTE		N90     An1 
	BYTE		N90     Bn1 
	BYTE		N90     Cn2 
	BYTE		N90     Dn2 
	BYTE		N90     An2 
	BYTE	W90
	BYTE		VOL     114*UnshackledWreyvianP_FINAL_mvl/mxv
	BYTE	W05
	BYTE	GoTo
	 POIN2	UnshackledWreyvianP_FINAL_7_B1
UnshackledWreyvianP_FINAL_7_B2:
	BYTE	FINE

//**************** Track 8 (Midi-Chn.8) ****************//

UnshackledWreyvianP_FINAL_8:
	BYTE	KEYSH   UnshackledWreyvianP_FINAL_key+0
// 000   ----------------------------------------
	BYTE		VOICE   48
	BYTE		MODT    0
	BYTE		LFOS    44
	BYTE		PAN     c_v+27
	BYTE		VOL     127*UnshackledWreyvianP_FINAL_mvl/mxv
	BYTE	W96
// 001   ----------------------------------------
	BYTE	W96
// 002   ----------------------------------------
	BYTE	W96
// 003   ----------------------------------------
	BYTE	W96
// 004   ----------------------------------------
	BYTE	W96
// 005   ----------------------------------------
	BYTE	W96
UnshackledWreyvianP_FINAL_8_B1:
// 006   ----------------------------------------
	BYTE		N32     Cn4   v127
	BYTE	W36
	BYTE		N05     Dn4 
	BYTE	W06
	BYTE		        Ds4 
	BYTE	W06
	BYTE		N32     As3 
	BYTE	W36
	BYTE		N05   
	BYTE	W06
	BYTE		        Gs3 
	BYTE	W06
// 007   ----------------------------------------
	BYTE		N15     Gn3 
	BYTE	W16
	BYTE		        Fn3 
	BYTE	W16
	BYTE		        Ds3 
	BYTE	W16
	BYTE		N42     Gn3 
	BYTE	W48
// 008   ----------------------------------------
	BYTE		N15     Cn4 
	BYTE	W16
	BYTE		        As3 
	BYTE	W16
	BYTE		        Cn4 
	BYTE	W16
	BYTE		        Ds4 
	BYTE	W16
	BYTE		        Fn4 
	BYTE	W16
	BYTE		        Gn4 
	BYTE	W16
// 009   ----------------------------------------
	BYTE		        Gs4 
	BYTE	W16
	BYTE		        Gn4 
	BYTE	W16
	BYTE		        Gs4 
	BYTE	W16
	BYTE		N42     Fn4 
	BYTE	W48
// 010   ----------------------------------------
	BYTE		N32     Ds4 
	BYTE	W36
	BYTE		N05     Dn4 
	BYTE	W06
	BYTE		        Ds4 
	BYTE	W06
	BYTE		N32     Cn4 
	BYTE	W36
	BYTE		N05     Dn4 
	BYTE	W06
	BYTE		        Ds4 
	BYTE	W06
// 011   ----------------------------------------
	BYTE		N15     Gn4 
	BYTE	W16
	BYTE		        Fn4 
	BYTE	W16
	BYTE		        Ds4 
	BYTE	W16
	BYTE		        Cn4 
	BYTE	W16
	BYTE		        As3 
	BYTE	W16
	BYTE		        Cn4 
	BYTE	W16
// 012   ----------------------------------------
	BYTE		N07     Gn3 
	BYTE	W08
	BYTE		        Ds3 
	BYTE	W08
	BYTE		        Gn3 
	BYTE	W08
	BYTE		        Cn4 
	BYTE	W08
	BYTE		        Gn3 
	BYTE	W08
	BYTE		        Cn4 
	BYTE	W08
	BYTE		        Ds4 
	BYTE	W08
	BYTE		        Cn4 
	BYTE	W08
	BYTE		        Ds4 
	BYTE	W08
	BYTE		        Gn4 
	BYTE	W08
	BYTE		        Ds4 
	BYTE	W08
	BYTE		        Gn4 
	BYTE	W08
// 013   ----------------------------------------
	BYTE		N90     Gs4 
	BYTE	W96
// 014   ----------------------------------------
	BYTE	W96
// 015   ----------------------------------------
	BYTE	W96
// 016   ----------------------------------------
	BYTE	W96
// 017   ----------------------------------------
	BYTE	W96
// 018   ----------------------------------------
	BYTE	W96
// 019   ----------------------------------------
	BYTE	W96
// 020   ----------------------------------------
	BYTE	W96
// 021   ----------------------------------------
	BYTE	W96
// 022   ----------------------------------------
	BYTE	W96
// 023   ----------------------------------------
	BYTE	W96
// 024   ----------------------------------------
	BYTE	W96
// 025   ----------------------------------------
	BYTE	W96
// 026   ----------------------------------------
	BYTE	W96
// 027   ----------------------------------------
	BYTE	W96
// 028   ----------------------------------------
	BYTE	W96
// 029   ----------------------------------------
	BYTE	W96
// 030   ----------------------------------------
	BYTE	W96
// 031   ----------------------------------------
	BYTE	W96
// 032   ----------------------------------------
	BYTE	W96
// 033   ----------------------------------------
	BYTE	W96
// 034   ----------------------------------------
	BYTE	W96
// 035   ----------------------------------------
	BYTE	W96
// 036   ----------------------------------------
	BYTE	W96
// 037   ----------------------------------------
	BYTE	W96
// 038   ----------------------------------------
	BYTE	W96
// 039   ----------------------------------------
	BYTE	W96
// 040   ----------------------------------------
	BYTE	W96
// 041   ----------------------------------------
	BYTE	W96
// 042   ----------------------------------------
	BYTE	W96
// 043   ----------------------------------------
	BYTE	W96
// 044   ----------------------------------------
	BYTE	W96
// 045   ----------------------------------------
	BYTE	W96
// 046   ----------------------------------------
	BYTE	W96
// 047   ----------------------------------------
	BYTE	W96
// 048   ----------------------------------------
	BYTE	W96
// 049   ----------------------------------------
	BYTE	W96
// 050   ----------------------------------------
	BYTE	W96
// 051   ----------------------------------------
	BYTE	W96
// 052   ----------------------------------------
	BYTE	W96
// 053   ----------------------------------------
	BYTE	W96
// 054   ----------------------------------------
	BYTE	W96
// 055   ----------------------------------------
	BYTE	W96
// 056   ----------------------------------------
	BYTE	W96
// 057   ----------------------------------------
	BYTE	W96
// 058   ----------------------------------------
	BYTE	W96
// 059   ----------------------------------------
	BYTE	W96
// 060   ----------------------------------------
	BYTE	W96
// 061   ----------------------------------------
	BYTE	W92
	BYTE	W03
	BYTE	GoTo
	 POIN2	UnshackledWreyvianP_FINAL_8_B1
UnshackledWreyvianP_FINAL_8_B2:
	BYTE	FINE

//******************************************************//
	ALIGN 4

UnshackledWreyvianP_FINAL:
	BYTE	8	// NumTrks
	BYTE	0	// NumBlks
	BYTE	UnshackledWreyvianP_FINAL_pri	// Priority
	BYTE	UnshackledWreyvianP_FINAL_rev	// Reverb.

	POIN2	UnshackledWreyvianP_FINAL_grp

	POIN2	UnshackledWreyvianP_FINAL_1
	POIN2	UnshackledWreyvianP_FINAL_2
	POIN2	UnshackledWreyvianP_FINAL_3
	POIN2	UnshackledWreyvianP_FINAL_4
	POIN2	UnshackledWreyvianP_FINAL_5
	POIN2	UnshackledWreyvianP_FINAL_6
	POIN2	UnshackledWreyvianP_FINAL_7
	POIN2	UnshackledWreyvianP_FINAL_8

	
