//Event file generated from Sappy .s format.
	#include "MPlayDef.event"

	#define	VictoryThemeYay_grp  voicegroup000
	#define	VictoryThemeYay_pri  0
	#define	VictoryThemeYay_rev  0x94
	#define	VictoryThemeYay_mvl  30
	#define	VictoryThemeYay_key  0
	#define	VictoryThemeYay_tbs  1
	#define	VictoryThemeYay_exg  0
	#define	VictoryThemeYay_cmp  1

	// .rodata
	//	VictoryThemeYay
	ALIGN 4

//**************** Track 1 (Midi-Chn.1) ****************//

VictoryThemeYay_1:
	BYTE	KEYSH   VictoryThemeYay_key+0
VictoryThemeYay_1_B1:
// 000   ----------------------------------------
	BYTE	TEMPO   110*VictoryThemeYay_tbs/2
	BYTE		VOICE   48
	BYTE		MODT    0
	BYTE		LFOS    44
	BYTE		VOL     117*VictoryThemeYay_mvl/mxv
	BYTE		PAN     c_v-19
	BYTE		N96     Gn3   v076
	BYTE		N96     Cn4 
	BYTE		N96     Ds4 
	BYTE	W96
// 001   ----------------------------------------
	BYTE		        Fn3 
	BYTE		N96     As3 
	BYTE		N96     Dn4 
	BYTE	W96
// 002   ----------------------------------------
VictoryThemeYay_1_002:
	BYTE		N96     Ds3   v076
	BYTE		N96     Gs3 
	BYTE		N96     Cn4 
	BYTE	W96
	BYTE	PEND
// 003   ----------------------------------------
	BYTE		N66     Dn3 
	BYTE		N66     Gn3 
	BYTE		N66     As3 
	BYTE	W96
// 004   ----------------------------------------
VictoryThemeYay_1_004:
	BYTE		N96     Ds3   v076
	BYTE		N96     Gn3 
	BYTE		N96     Cn4 
	BYTE	W96
	BYTE	PEND
// 005   ----------------------------------------
	BYTE		        Dn3 
	BYTE		N96     Fn3 
	BYTE		N96     As3 
	BYTE	W96
// 006   ----------------------------------------
VictoryThemeYay_1_006:
	BYTE		N96     Ds3   v076
	BYTE		N96     Gn3 
	BYTE		N96     As3 
	BYTE	W96
	BYTE	PEND
// 007   ----------------------------------------
	BYTE	PATT
	 POIN2	VictoryThemeYay_1_002
// 008   ----------------------------------------
VictoryThemeYay_1_008:
	BYTE		N96     Fn3   v076
	BYTE		N96     Gs3 
	BYTE		N96     Cn4 
	BYTE	W96
	BYTE	PEND
// 009   ----------------------------------------
	BYTE		        Dn3 
	BYTE		N96     Gn3 
	BYTE		N96     Bn3 
	BYTE	W96
// 010   ----------------------------------------
	BYTE	PATT
	 POIN2	VictoryThemeYay_1_004
// 011   ----------------------------------------
	BYTE		N90     Fn3   v076
	BYTE		N90     Gs3 
	BYTE		N90     As3 
	BYTE		N90     Dn4 
	BYTE	W96
// 012   ----------------------------------------
	BYTE	PATT
	 POIN2	VictoryThemeYay_1_006
// 013   ----------------------------------------
	BYTE	PATT
	 POIN2	VictoryThemeYay_1_008
// 014   ----------------------------------------
	BYTE		N96     Dn3   v076
	BYTE		N96     Fn3 
	BYTE		N96     Gs3 
	BYTE	W96
// 015   ----------------------------------------
	BYTE	PATT
	 POIN2	VictoryThemeYay_1_006
// 016   ----------------------------------------
	BYTE		N96     Dn3   v076
	BYTE		N96     Fn3 
	BYTE		N96     An3 
	BYTE	W96
// 017   ----------------------------------------
	BYTE		        Ds3 
	BYTE		N96     An3 
	BYTE		N96     Cn4 
	BYTE	W96
// 018   ----------------------------------------
	BYTE		        Gn3 
	BYTE		N96     As3 
	BYTE		N96     Dn4 
	BYTE	W96
// 019   ----------------------------------------
	BYTE		N90     Dn3 
	BYTE		N90     Fn3 
	BYTE		N90     As3 
	BYTE	W96
// 020   ----------------------------------------
	BYTE	W12
	BYTE		N04     Ds3 
	BYTE		N04     Gn3 
	BYTE		N04     Cn4 
	BYTE	W12
	BYTE		        Ds3 
	BYTE		N04     Gn3 
	BYTE		N04     Cn4 
	BYTE	W36
	BYTE		        Ds3 
	BYTE		N04     Gn3 
	BYTE		N04     Cn4 
	BYTE	W12
	BYTE		        Ds3 
	BYTE		N04     Gn3 
	BYTE		N04     Cn4 
	BYTE	W24
// 021   ----------------------------------------
	BYTE	W12
	BYTE		        Dn3 
	BYTE		N04     Fn3 
	BYTE		N04     As3 
	BYTE	W12
	BYTE		        Dn3 
	BYTE		N04     Fn3 
	BYTE		N04     As3 
	BYTE	W36
	BYTE		        Dn3 
	BYTE		N04     Fn3 
	BYTE		N04     As3 
	BYTE	W12
	BYTE		        Dn3 
	BYTE		N04     Fn3 
	BYTE		N04     As3 
	BYTE	W24
// 022   ----------------------------------------
	BYTE	W12
	BYTE		        Ds3 
	BYTE		N04     Gn3 
	BYTE		N04     As3 
	BYTE	W12
	BYTE		        Ds3 
	BYTE		N04     Gn3 
	BYTE		N04     As3 
	BYTE	W36
	BYTE		        Ds3 
	BYTE		N04     Gn3 
	BYTE		N04     As3 
	BYTE	W12
	BYTE		        Ds3 
	BYTE		N04     Gn3 
	BYTE		N04     As3 
	BYTE	W24
// 023   ----------------------------------------
	BYTE	W12
	BYTE		        Ds3 
	BYTE		N04     Gs3 
	BYTE		N04     Cn4 
	BYTE	W12
	BYTE		        Ds3 
	BYTE		N04     Gs3 
	BYTE		N04     Cn4 
	BYTE	W36
	BYTE		        Ds3 
	BYTE		N04     Gs3 
	BYTE		N04     Cn4 
	BYTE	W12
	BYTE		        Ds3 
	BYTE		N04     Gs3 
	BYTE		N04     Cn4 
	BYTE	W24
// 024   ----------------------------------------
	BYTE	W12
	BYTE		        Fn3 
	BYTE		N04     Gs3 
	BYTE		N04     Cn4 
	BYTE	W12
	BYTE		        Fn3 
	BYTE		N04     Gs3 
	BYTE		N04     Cn4 
	BYTE	W36
	BYTE		        Fn3 
	BYTE		N04     Gs3 
	BYTE		N04     Cn4 
	BYTE	W12
	BYTE		        Fn3 
	BYTE		N04     Gs3 
	BYTE		N04     Cn4 
	BYTE	W24
// 025   ----------------------------------------
	BYTE	W12
	BYTE		        Dn3 
	BYTE		N04     Gn3 
	BYTE		N04     Bn3 
	BYTE	W12
	BYTE		        Dn3 
	BYTE		N04     Gn3 
	BYTE		N04     Bn3 
	BYTE	W36
	BYTE		        Dn3 
	BYTE		N04     Gn3 
	BYTE		N04     Bn3 
	BYTE	W12
	BYTE		        Dn3 
	BYTE		N04     Gn3 
	BYTE		N04     Bn3 
	BYTE	W24
// 026   ----------------------------------------
	BYTE	W12
	BYTE		        Ds3 
	BYTE		N04     Gn3 
	BYTE		N04     Cn4 
	BYTE	W12
	BYTE		        Ds3 
	BYTE		N04     Gn3 
	BYTE		N04     Cn4 
	BYTE	W36
	BYTE		        Fn3 
	BYTE		N04     Gs3 
	BYTE		N04     Cn4 
	BYTE	W12
	BYTE		        Fn3 
	BYTE		N04     Gs3 
	BYTE		N04     Cn4 
	BYTE	W24
// 027   ----------------------------------------
	BYTE	W12
	BYTE		        Ds3 
	BYTE		N04     Gn3 
	BYTE		N04     Cn4 
	BYTE	W12
	BYTE		        Ds3 
	BYTE		N04     Gn3 
	BYTE		N04     Cn4 
	BYTE	W12
	BYTE		        Ds3 
	BYTE		N04     Gn3 
	BYTE		N04     Cn4 
	BYTE	W12
	BYTE		        Ds3 
	BYTE		N04     Gn3 
	BYTE		N04     Cn4 
	BYTE	W48
	BYTE	GoTo
	 POIN2	VictoryThemeYay_1_B1
VictoryThemeYay_1_B2:
// 028   ----------------------------------------
	BYTE	FINE

//**************** Track 2 (Midi-Chn.2) ****************//

VictoryThemeYay_2:
	BYTE	KEYSH   VictoryThemeYay_key+0
VictoryThemeYay_2_B1:
// 000   ----------------------------------------
	BYTE		VOICE   60
	BYTE		MODT    0
	BYTE		LFOS    44
	BYTE		PAN     c_v+15
	BYTE		VOL     127*VictoryThemeYay_mvl/mxv
	BYTE		N11     Cn4   v127
	BYTE	W12
	BYTE		N05   
	BYTE	W06
	BYTE		N05   
	BYTE	W06
	BYTE		TIE     Gn4 
	BYTE	W72
// 001   ----------------------------------------
	BYTE	W32
	BYTE		EOT   
	BYTE	W04
	BYTE		N11     Ds4 
	BYTE	W12
	BYTE		N15     Fn4 
	BYTE	W16
	BYTE		        Ds4 
	BYTE	W16
	BYTE		        Dn4 
	BYTE	W16
// 002   ----------------------------------------
	BYTE		N11     Cn4 
	BYTE	W12
	BYTE		N05   
	BYTE	W06
	BYTE		N05   
	BYTE	W06
	BYTE		TIE     Gn4 
	BYTE	W72
// 003   ----------------------------------------
	BYTE	W66
	BYTE		EOT   
	BYTE	W30
// 004   ----------------------------------------
	BYTE	W96
// 005   ----------------------------------------
	BYTE	W96
// 006   ----------------------------------------
	BYTE	W96
// 007   ----------------------------------------
	BYTE	W96
// 008   ----------------------------------------
	BYTE	W96
// 009   ----------------------------------------
	BYTE	W96
// 010   ----------------------------------------
	BYTE	W96
// 011   ----------------------------------------
	BYTE	W60
	BYTE		N11     As3 
	BYTE	W12
	BYTE		        Cn4 
	BYTE	W12
	BYTE		        Dn4 
	BYTE	W12
// 012   ----------------------------------------
	BYTE		N32     Ds4 
	BYTE	W36
	BYTE		N11     As3 
	BYTE	W12
	BYTE		        Gn3 
	BYTE	W12
	BYTE		        Gs3 
	BYTE	W12
	BYTE		        As3 
	BYTE	W12
	BYTE		        Ds4 
	BYTE	W12
// 013   ----------------------------------------
	BYTE		        Cn4 
	BYTE	W12
	BYTE		        As3 
	BYTE	W12
	BYTE		        Gs3 
	BYTE	W12
	BYTE		        Gn3 
	BYTE	W12
	BYTE		N20     Fn3 
	BYTE	W24
	BYTE		        Cn4 
	BYTE	W24
// 014   ----------------------------------------
	BYTE		N11     Gs3 
	BYTE	W12
	BYTE		        Gn3 
	BYTE	W12
	BYTE		        Gs3 
	BYTE	W12
	BYTE		        Dn4 
	BYTE	W12
	BYTE		        Fn4 
	BYTE	W12
	BYTE		        Ds4 
	BYTE	W12
	BYTE		N20     Dn4 
	BYTE	W24
// 015   ----------------------------------------
	BYTE		N11     Ds4 
	BYTE	W12
	BYTE		        As3 
	BYTE	W12
	BYTE		        Ds4 
	BYTE	W12
	BYTE		        Fn4 
	BYTE	W12
	BYTE		N42     Ds4 
	BYTE	W48
// 016   ----------------------------------------
	BYTE		N11     Dn4 
	BYTE	W12
	BYTE		        En4 
	BYTE	W12
	BYTE		        Fn4 
	BYTE	W12
	BYTE		        Gn4 
	BYTE	W12
	BYTE		        An4 
	BYTE	W12
	BYTE		        Gn4 
	BYTE	W12
	BYTE		N20     Fn4 
	BYTE	W24
// 017   ----------------------------------------
	BYTE		N11     Ds4 
	BYTE	W12
	BYTE		        Dn4 
	BYTE	W12
	BYTE		        Cn4 
	BYTE	W12
	BYTE		        Dn4 
	BYTE	W12
	BYTE		        Ds4 
	BYTE	W12
	BYTE		        Fn4 
	BYTE	W12
	BYTE		N20     Ds4 
	BYTE	W24
// 018   ----------------------------------------
	BYTE		N42     Gn4 
	BYTE	W48
	BYTE		N20     Fn4 
	BYTE	W24
	BYTE		        Ds4 
	BYTE	W24
// 019   ----------------------------------------
	BYTE		N90     Dn4 
	BYTE	W96
// 020   ----------------------------------------
	BYTE	W96
// 021   ----------------------------------------
	BYTE	W96
// 022   ----------------------------------------
	BYTE	W96
// 023   ----------------------------------------
	BYTE	W96
// 024   ----------------------------------------
	BYTE	W96
// 025   ----------------------------------------
	BYTE	W96
// 026   ----------------------------------------
	BYTE	W96
// 027   ----------------------------------------
	BYTE	W96
	BYTE	GoTo
	 POIN2	VictoryThemeYay_2_B1
VictoryThemeYay_2_B2:
// 028   ----------------------------------------
	BYTE	FINE

//**************** Track 3 (Midi-Chn.3) ****************//

VictoryThemeYay_3:
	BYTE	KEYSH   VictoryThemeYay_key+0
VictoryThemeYay_3_B1:
// 000   ----------------------------------------
	BYTE		VOICE   61
	BYTE		MODT    0
	BYTE		LFOS    44
	BYTE		PAN     c_v-13
	BYTE		VOL     127*VictoryThemeYay_mvl/mxv
	BYTE	W96
// 001   ----------------------------------------
	BYTE	W96
// 002   ----------------------------------------
	BYTE	W96
// 003   ----------------------------------------
	BYTE	W60
	BYTE		N11     Fn3   v100
	BYTE	W12
	BYTE		        Ds3 
	BYTE	W12
	BYTE		        Dn3 
	BYTE	W12
// 004   ----------------------------------------
	BYTE		        Cn3 
	BYTE	W12
	BYTE		N20     Ds3 
	BYTE	W24
	BYTE		N11     Fn3 
	BYTE	W12
	BYTE		N15     Gn3 
	BYTE	W16
	BYTE		        Fn3 
	BYTE	W16
	BYTE		        Ds3 
	BYTE	W16
// 005   ----------------------------------------
	BYTE		N11     Dn3 
	BYTE	W12
	BYTE		        Cn3 
	BYTE	W12
	BYTE		        Dn3 
	BYTE	W12
	BYTE		        Ds3 
	BYTE	W12
	BYTE		N20     Fn3 
	BYTE	W24
	BYTE		        Dn3 
	BYTE	W24
// 006   ----------------------------------------
	BYTE		N11     Ds3 
	BYTE	W12
	BYTE		        Fn3 
	BYTE	W12
	BYTE		        Gn3 
	BYTE	W12
	BYTE		        Gs3 
	BYTE	W12
	BYTE		N20     As3 
	BYTE	W24
	BYTE		N11     Ds4 
	BYTE	W12
	BYTE		        Dn4 
	BYTE	W12
// 007   ----------------------------------------
	BYTE		        Cn4 
	BYTE	W12
	BYTE		        As3 
	BYTE	W12
	BYTE		        Gs3 
	BYTE	W12
	BYTE		        As3 
	BYTE	W12
	BYTE		N42     Cn4 
	BYTE	W48
// 008   ----------------------------------------
	BYTE		N11     Fn3 
	BYTE	W12
	BYTE		        Gn3 
	BYTE	W12
	BYTE		        Gs3 
	BYTE	W12
	BYTE		        As3 
	BYTE	W12
	BYTE		N15     Cn4 
	BYTE	W16
	BYTE		        Gs3 
	BYTE	W16
	BYTE		        Fn3 
	BYTE	W16
// 009   ----------------------------------------
	BYTE		N11     Gn3 
	BYTE	W12
	BYTE		        An3 
	BYTE	W12
	BYTE		        Bn3 
	BYTE	W12
	BYTE		        Cn4 
	BYTE	W12
	BYTE		N15     Dn4 
	BYTE	W16
	BYTE		        Bn3 
	BYTE	W16
	BYTE		        Gn3 
	BYTE	W16
// 010   ----------------------------------------
	BYTE		N32     Ds3 
	BYTE	W36
	BYTE		N11     Fn3 
	BYTE	W12
	BYTE		        Gn3 
	BYTE	W12
	BYTE		        Gs3 
	BYTE	W12
	BYTE		        As3 
	BYTE	W12
	BYTE		        Gn3 
	BYTE	W12
// 011   ----------------------------------------
	BYTE		        Gs3 
	BYTE	W12
	BYTE		        Gn3 
	BYTE	W12
	BYTE		        Fn3 
	BYTE	W12
	BYTE		N05     Gs3 
	BYTE	W06
	BYTE		        Gn3 
	BYTE	W06
	BYTE		N42     Fn3 
	BYTE	W48
// 012   ----------------------------------------
VictoryThemeYay_3_012:
	BYTE		N66     Ds3   v100
	BYTE	W72
	BYTE		N11     Fn3 
	BYTE	W12
	BYTE		        Gn3 
	BYTE	W12
	BYTE	PEND
// 013   ----------------------------------------
	BYTE		N66     Gs3 
	BYTE	W72
	BYTE		N11     Dn3 
	BYTE	W12
	BYTE		        Cn3 
	BYTE	W12
// 014   ----------------------------------------
	BYTE		N66     Dn3 
	BYTE	W72
	BYTE		N11     Ds3 
	BYTE	W12
	BYTE		        Fn3 
	BYTE	W12
// 015   ----------------------------------------
	BYTE	PATT
	 POIN2	VictoryThemeYay_3_012
// 016   ----------------------------------------
	BYTE		N66     An3   v100
	BYTE	W72
	BYTE		N11     Fn3 
	BYTE	W12
	BYTE		        Gn3 
	BYTE	W12
// 017   ----------------------------------------
	BYTE		N66     An3 
	BYTE	W72
	BYTE		N11     As3 
	BYTE	W12
	BYTE		        Cn4 
	BYTE	W12
// 018   ----------------------------------------
	BYTE		N66     Dn4 
	BYTE	W72
	BYTE		N11     Cn4 
	BYTE	W12
	BYTE		        As3 
	BYTE	W12
// 019   ----------------------------------------
	BYTE		N20     Dn4 
	BYTE	W24
	BYTE		        Cn4 
	BYTE	W24
	BYTE		        As3 
	BYTE	W24
	BYTE		        Gs3 
	BYTE	W24
// 020   ----------------------------------------
	BYTE	W96
// 021   ----------------------------------------
	BYTE	W96
// 022   ----------------------------------------
	BYTE	W96
// 023   ----------------------------------------
	BYTE	W96
// 024   ----------------------------------------
	BYTE	W96
// 025   ----------------------------------------
	BYTE	W96
// 026   ----------------------------------------
	BYTE	W96
// 027   ----------------------------------------
	BYTE	W96
	BYTE	GoTo
	 POIN2	VictoryThemeYay_3_B1
VictoryThemeYay_3_B2:
// 028   ----------------------------------------
	BYTE	FINE

//**************** Track 4 (Midi-Chn.4) ****************//

VictoryThemeYay_4:
	BYTE	KEYSH   VictoryThemeYay_key+0
VictoryThemeYay_4_B1:
// 000   ----------------------------------------
	BYTE		VOICE   73
	BYTE		MODT    0
	BYTE		LFOS    44
	BYTE		PAN     c_v+12
	BYTE		VOL     127*VictoryThemeYay_mvl/mxv
	BYTE	W96
// 001   ----------------------------------------
	BYTE	W96
// 002   ----------------------------------------
	BYTE	W96
// 003   ----------------------------------------
	BYTE	W96
// 004   ----------------------------------------
	BYTE	W96
// 005   ----------------------------------------
	BYTE	W96
// 006   ----------------------------------------
	BYTE	W96
// 007   ----------------------------------------
	BYTE	W96
// 008   ----------------------------------------
	BYTE	W96
// 009   ----------------------------------------
	BYTE	W96
// 010   ----------------------------------------
	BYTE	W96
// 011   ----------------------------------------
	BYTE	W96
// 012   ----------------------------------------
	BYTE	W96
// 013   ----------------------------------------
	BYTE	W96
// 014   ----------------------------------------
	BYTE	W96
// 015   ----------------------------------------
	BYTE	W96
// 016   ----------------------------------------
	BYTE	W96
// 017   ----------------------------------------
	BYTE	W96
// 018   ----------------------------------------
	BYTE	W96
// 019   ----------------------------------------
	BYTE	W72
	BYTE		N11     Cn4   v100
	BYTE	W12
	BYTE		        Dn4 
	BYTE	W12
// 020   ----------------------------------------
	BYTE		N32     Ds4 
	BYTE	W36
	BYTE		N11     Dn4 
	BYTE	W12
	BYTE		        Cn4 
	BYTE	W12
	BYTE		N11   
	BYTE	W12
	BYTE		        Dn4 
	BYTE	W12
	BYTE		        Ds4 
	BYTE	W12
// 021   ----------------------------------------
	BYTE		        Fn4 
	BYTE	W12
	BYTE		        Ds4 
	BYTE	W12
	BYTE		        Fn4 
	BYTE	W12
	BYTE		        Gn4 
	BYTE	W12
	BYTE		N20     Gs4 
	BYTE	W24
	BYTE		N11     As4 
	BYTE	W12
	BYTE		        Gs4 
	BYTE	W12
// 022   ----------------------------------------
	BYTE		        Gn4 
	BYTE	W12
	BYTE		        Fn4 
	BYTE	W12
	BYTE		        Ds4 
	BYTE	W12
	BYTE		        Fn4 
	BYTE	W12
	BYTE		N20     Gn4 
	BYTE	W24
	BYTE		        As4 
	BYTE	W24
// 023   ----------------------------------------
	BYTE		N11     Cn5 
	BYTE	W12
	BYTE		        Gs4 
	BYTE	W12
	BYTE		        Cn5 
	BYTE	W12
	BYTE		        Dn5 
	BYTE	W12
	BYTE		N42     Cn5 
	BYTE	W48
// 024   ----------------------------------------
	BYTE		N11     Fn4 
	BYTE	W12
	BYTE		        Gn4 
	BYTE	W12
	BYTE		        Gs4 
	BYTE	W12
	BYTE		        As4 
	BYTE	W12
	BYTE		        Cn5 
	BYTE	W12
	BYTE		        As4 
	BYTE	W12
	BYTE		        Gs4 
	BYTE	W12
	BYTE		        Fn4 
	BYTE	W12
// 025   ----------------------------------------
	BYTE		        Gn4 
	BYTE	W12
	BYTE		        Gs4 
	BYTE	W12
	BYTE		        Bn4 
	BYTE	W12
	BYTE		        Cn5 
	BYTE	W12
	BYTE		N20     Bn4 
	BYTE	W24
	BYTE		        Gn4 
	BYTE	W24
// 026   ----------------------------------------
	BYTE		N66     Cn5 
	BYTE	W72
	BYTE		N11     Ds5 
	BYTE	W12
	BYTE		        Dn5 
	BYTE	W12
// 027   ----------------------------------------
	BYTE		N90     Cn5 
	BYTE	W96
	BYTE	GoTo
	 POIN2	VictoryThemeYay_4_B1
VictoryThemeYay_4_B2:
// 028   ----------------------------------------
	BYTE	FINE

//**************** Track 5 (Midi-Chn.5) ****************//

VictoryThemeYay_5:
	BYTE	KEYSH   VictoryThemeYay_key+0
VictoryThemeYay_5_B1:
// 000   ----------------------------------------
	BYTE		VOICE   33
	BYTE		MODT    0
	BYTE		LFOS    44
	BYTE		PAN     c_v-11
	BYTE		VOL     127*VictoryThemeYay_mvl/mxv
	BYTE		N20     Cn2   v100
	BYTE	W24
	BYTE		N20   
	BYTE	W36
	BYTE		N11     Ds1 
	BYTE	W12
	BYTE		        Gn1 
	BYTE	W12
	BYTE		        Cn2 
	BYTE	W12
// 001   ----------------------------------------
	BYTE		N20     As1 
	BYTE	W24
	BYTE		N20   
	BYTE	W36
	BYTE		N11     Dn1 
	BYTE	W12
	BYTE		        Fn1 
	BYTE	W12
	BYTE		        As1 
	BYTE	W12
// 002   ----------------------------------------
	BYTE		N20     Gs1 
	BYTE	W24
	BYTE		N20   
	BYTE	W36
	BYTE		N11     Cn1 
	BYTE	W12
	BYTE		        Ds1 
	BYTE	W12
	BYTE		        Gs1 
	BYTE	W12
// 003   ----------------------------------------
	BYTE		N20     Gn1 
	BYTE	W24
	BYTE		N20   
	BYTE	W24
	BYTE		N20   
	BYTE	W48
// 004   ----------------------------------------
	BYTE		N11     Ds1 
	BYTE	W12
	BYTE		        Fn1 
	BYTE	W12
	BYTE		        Gn1 
	BYTE	W12
	BYTE		        Cn2 
	BYTE	W12
	BYTE		        Ds1 
	BYTE	W12
	BYTE		        Fn1 
	BYTE	W12
	BYTE		        Gn1 
	BYTE	W12
	BYTE		        Cn2 
	BYTE	W12
// 005   ----------------------------------------
	BYTE		        Dn1 
	BYTE	W12
	BYTE		        Fn1 
	BYTE	W12
	BYTE		        As1 
	BYTE	W12
	BYTE		        Dn2 
	BYTE	W12
	BYTE		        Dn1 
	BYTE	W12
	BYTE		        Fn1 
	BYTE	W12
	BYTE		        As1 
	BYTE	W12
	BYTE		        Dn2 
	BYTE	W12
// 006   ----------------------------------------
	BYTE		        Ds1 
	BYTE	W12
	BYTE		        Gn1 
	BYTE	W12
	BYTE		        As1 
	BYTE	W12
	BYTE		        Ds2 
	BYTE	W12
	BYTE		        Ds1 
	BYTE	W12
	BYTE		        Gn1 
	BYTE	W12
	BYTE		        As1 
	BYTE	W12
	BYTE		        Ds2 
	BYTE	W12
// 007   ----------------------------------------
	BYTE		        Ds1 
	BYTE	W12
	BYTE		        Gs1 
	BYTE	W12
	BYTE		        Cn2 
	BYTE	W12
	BYTE		        Ds2 
	BYTE	W12
	BYTE		        Ds1 
	BYTE	W12
	BYTE		        Gs1 
	BYTE	W12
	BYTE		        Cn2 
	BYTE	W12
	BYTE		        Ds2 
	BYTE	W12
// 008   ----------------------------------------
	BYTE		        Fn1 
	BYTE	W12
	BYTE		        Gs1 
	BYTE	W12
	BYTE		        Cn2 
	BYTE	W12
	BYTE		        Fn2 
	BYTE	W12
	BYTE		        Fn1 
	BYTE	W12
	BYTE		        Gs1 
	BYTE	W12
	BYTE		        Cn2 
	BYTE	W12
	BYTE		        Fn2 
	BYTE	W12
// 009   ----------------------------------------
	BYTE		        Dn1 
	BYTE	W12
	BYTE		        Gn1 
	BYTE	W12
	BYTE		        Bn1 
	BYTE	W12
	BYTE		        Dn2 
	BYTE	W12
	BYTE		        Dn1 
	BYTE	W12
	BYTE		        Gn1 
	BYTE	W12
	BYTE		        Bn1 
	BYTE	W12
	BYTE		        Dn2 
	BYTE	W12
// 010   ----------------------------------------
	BYTE		        Ds1 
	BYTE	W12
	BYTE		        Gn1 
	BYTE	W12
	BYTE		        Cn2 
	BYTE	W12
	BYTE		        Ds2 
	BYTE	W12
	BYTE		        Ds1 
	BYTE	W12
	BYTE		        Gn1 
	BYTE	W12
	BYTE		        Cn2 
	BYTE	W12
	BYTE		        Ds2 
	BYTE	W12
// 011   ----------------------------------------
	BYTE		        Dn1 
	BYTE	W12
	BYTE		        Fn1 
	BYTE	W12
	BYTE		        Gs1 
	BYTE	W12
	BYTE		        As1 
	BYTE	W12
	BYTE		        Dn1 
	BYTE	W12
	BYTE		        Fn1 
	BYTE	W12
	BYTE		        Gs1 
	BYTE	W12
	BYTE		        As1 
	BYTE	W12
// 012   ----------------------------------------
	BYTE		N20     Ds1 
	BYTE	W24
	BYTE		N20   
	BYTE	W36
	BYTE		N11     Fn1 
	BYTE	W12
	BYTE		        Gn1 
	BYTE	W12
	BYTE		        As1 
	BYTE	W12
// 013   ----------------------------------------
	BYTE		N20     Fn1 
	BYTE	W24
	BYTE		N20   
	BYTE	W36
	BYTE		N11     Gs1 
	BYTE	W12
	BYTE		        Cn2 
	BYTE	W12
	BYTE		        Fn2 
	BYTE	W12
// 014   ----------------------------------------
	BYTE		N20     Dn1 
	BYTE	W24
	BYTE		N20   
	BYTE	W36
	BYTE		N11     Fn1 
	BYTE	W12
	BYTE		        Gs1 
	BYTE	W12
	BYTE		        Dn2 
	BYTE	W12
// 015   ----------------------------------------
	BYTE		        Ds1 
	BYTE	W12
	BYTE		        Fn1 
	BYTE	W12
	BYTE		        Gn1 
	BYTE	W12
	BYTE		        As1 
	BYTE	W12
	BYTE		        Ds1 
	BYTE	W12
	BYTE		        Fn1 
	BYTE	W12
	BYTE		        Gn1 
	BYTE	W12
	BYTE		        As1 
	BYTE	W12
// 016   ----------------------------------------
	BYTE		N20     Dn1 
	BYTE	W24
	BYTE		N20   
	BYTE	W36
	BYTE		N11     Fn1 
	BYTE	W12
	BYTE		        An1 
	BYTE	W12
	BYTE		        Dn2 
	BYTE	W12
// 017   ----------------------------------------
	BYTE		N20     Ds1 
	BYTE	W24
	BYTE		N20   
	BYTE	W36
	BYTE		N11     An1 
	BYTE	W12
	BYTE		        Cn2 
	BYTE	W12
	BYTE		        Ds2 
	BYTE	W12
// 018   ----------------------------------------
	BYTE		N20     Dn1 
	BYTE	W24
	BYTE		N20   
	BYTE	W36
	BYTE		N11     Gn1 
	BYTE	W12
	BYTE		        As1 
	BYTE	W12
	BYTE		        Dn2 
	BYTE	W12
// 019   ----------------------------------------
	BYTE		        Dn1 
	BYTE	W12
	BYTE		N11   
	BYTE	W12
	BYTE		        Fn1 
	BYTE	W12
	BYTE		        As1 
	BYTE	W12
	BYTE		        Dn1 
	BYTE	W12
	BYTE		N11   
	BYTE	W12
	BYTE		        Fn1 
	BYTE	W12
	BYTE		        As1 
	BYTE	W12
// 020   ----------------------------------------
VictoryThemeYay_5_020:
	BYTE		N20     Ds1   v100
	BYTE	W24
	BYTE		N20   
	BYTE	W24
	BYTE		N20   
	BYTE	W24
	BYTE		N20   
	BYTE	W24
	BYTE	PEND
// 021   ----------------------------------------
VictoryThemeYay_5_021:
	BYTE		N20     Dn1   v100
	BYTE	W24
	BYTE		N20   
	BYTE	W24
	BYTE		N20   
	BYTE	W24
	BYTE		N20   
	BYTE	W24
	BYTE	PEND
// 022   ----------------------------------------
	BYTE	PATT
	 POIN2	VictoryThemeYay_5_020
// 023   ----------------------------------------
	BYTE	PATT
	 POIN2	VictoryThemeYay_5_020
// 024   ----------------------------------------
	BYTE		N20     Fn1   v100
	BYTE	W24
	BYTE		N20   
	BYTE	W24
	BYTE		N20   
	BYTE	W24
	BYTE		N20   
	BYTE	W24
// 025   ----------------------------------------
	BYTE	PATT
	 POIN2	VictoryThemeYay_5_021
// 026   ----------------------------------------
	BYTE		N20     Ds1   v100
	BYTE	W24
	BYTE		N20   
	BYTE	W24
	BYTE		N20   
	BYTE	W24
	BYTE		        Dn1 
	BYTE	W24
// 027   ----------------------------------------
	BYTE		        Cn1 
	BYTE	W24
	BYTE		N20   
	BYTE	W24
	BYTE		N20   
	BYTE	W48
	BYTE	GoTo
	 POIN2	VictoryThemeYay_5_B1
VictoryThemeYay_5_B2:
// 028   ----------------------------------------
	BYTE	FINE

//**************** Track 6 (Midi-Chn.6) ****************//

VictoryThemeYay_6:
	BYTE	KEYSH   VictoryThemeYay_key+0
VictoryThemeYay_6_B1:
// 000   ----------------------------------------
	BYTE		VOICE   124
	BYTE		MODT    0
	BYTE		LFOS    44
	BYTE		VOL     127*VictoryThemeYay_mvl/mxv
	BYTE		PAN     c_v+0
	BYTE		N11     Cn1   v100
	BYTE		N11     Gs1 
	BYTE		N11     An2 
	BYTE	W12
	BYTE		        Gs1 
	BYTE	W12
	BYTE		N11   
	BYTE	W12
	BYTE		        Cn1 
	BYTE		N11     Gs1 
	BYTE	W12
	BYTE		        Cn1 
	BYTE		N11     Gs1 
	BYTE	W12
	BYTE		N05     Cn1 
	BYTE		N05     Gs1 
	BYTE	W06
	BYTE		        Cn1 
	BYTE		N05     Dn1 
	BYTE	W06
	BYTE		N11     Cn1 
	BYTE		N11     Dn1 
	BYTE		N11     En1 
	BYTE		N11     Gs1 
	BYTE	W12
	BYTE		        Cn1 
	BYTE		N11     Gs1 
	BYTE	W12
// 001   ----------------------------------------
VictoryThemeYay_6_001:
	BYTE		N11     Cn1   v100
	BYTE		N11     Gs1 
	BYTE	W12
	BYTE		N11   
	BYTE	W12
	BYTE		N11   
	BYTE	W12
	BYTE		        Cn1 
	BYTE		N11     Gs1 
	BYTE	W12
	BYTE		        Cn1 
	BYTE		N11     Gs1 
	BYTE	W12
	BYTE		N05     Cn1 
	BYTE		N05     Gs1 
	BYTE	W06
	BYTE		        Cn1 
	BYTE		N05     Dn1 
	BYTE	W06
	BYTE		N11     Cn1 
	BYTE		N11     Dn1 
	BYTE		N11     En1 
	BYTE		N11     Gs1 
	BYTE	W12
	BYTE		        Cn1 
	BYTE		N11     Gs1 
	BYTE	W12
	BYTE	PEND
// 002   ----------------------------------------
	BYTE	PATT
	 POIN2	VictoryThemeYay_6_001
// 003   ----------------------------------------
	BYTE		N11     Cn1   v100
	BYTE		N11     Gs1 
	BYTE	W12
	BYTE		N11   
	BYTE	W12
	BYTE		N11   
	BYTE	W12
	BYTE		        Cn1 
	BYTE		N11     Gs1 
	BYTE	W12
	BYTE		        Cn1 
	BYTE		N11     Gs1 
	BYTE	W12
	BYTE		N05     Cn1 
	BYTE		N05     Gs1 
	BYTE	W06
	BYTE		        Cn1 
	BYTE		N05     Dn1 
	BYTE	W06
	BYTE		        Cn1 
	BYTE		N05     Dn1 
	BYTE		N05     En1 
	BYTE		N05     Gs1 
	BYTE	W06
	BYTE		        Cn1 
	BYTE		N05     Dn1 
	BYTE		N05     En1 
	BYTE		N05     Gs1 
	BYTE	W06
	BYTE		        Cn1 
	BYTE		N05     Dn1 
	BYTE		N05     En1 
	BYTE		N05     Gs1 
	BYTE	W06
	BYTE		        Cn1 
	BYTE		N05     Dn1 
	BYTE		N05     En1 
	BYTE		N05     Gs1 
	BYTE	W06
// 004   ----------------------------------------
VictoryThemeYay_6_004:
	BYTE		N11     Cn1   v100
	BYTE		N11     Gs1 
	BYTE		N11     An2 
	BYTE	W12
	BYTE		        Gs1 
	BYTE	W12
	BYTE		        Dn1 
	BYTE		N11     En1 
	BYTE		N11     Gs1 
	BYTE	W12
	BYTE		N11   
	BYTE	W12
	BYTE		        Cn1 
	BYTE		N11     Gs1 
	BYTE	W12
	BYTE		N11   
	BYTE	W12
	BYTE		        Dn1 
	BYTE		N11     En1 
	BYTE		N11     Gs1 
	BYTE		N11     An1 
	BYTE		N11     Bn1 
	BYTE		N11     Cn2 
	BYTE		N11     Dn2 
	BYTE	W12
	BYTE		        Gs1 
	BYTE	W12
	BYTE	PEND
// 005   ----------------------------------------
VictoryThemeYay_6_005:
	BYTE		N11     Cn1   v100
	BYTE		N11     Gs1 
	BYTE	W12
	BYTE		N11   
	BYTE	W12
	BYTE		        Dn1 
	BYTE		N11     En1 
	BYTE		N11     Gs1 
	BYTE	W12
	BYTE		N11   
	BYTE	W12
	BYTE		        Cn1 
	BYTE		N11     Gs1 
	BYTE	W12
	BYTE		N11   
	BYTE	W12
	BYTE		        Dn1 
	BYTE		N11     En1 
	BYTE		N11     Gs1 
	BYTE		N11     An1 
	BYTE		N11     Bn1 
	BYTE		N11     Cn2 
	BYTE		N11     Dn2 
	BYTE	W12
	BYTE		        Gs1 
	BYTE	W12
	BYTE	PEND
// 006   ----------------------------------------
	BYTE	PATT
	 POIN2	VictoryThemeYay_6_005
// 007   ----------------------------------------
	BYTE	PATT
	 POIN2	VictoryThemeYay_6_005
// 008   ----------------------------------------
	BYTE	PATT
	 POIN2	VictoryThemeYay_6_005
// 009   ----------------------------------------
	BYTE	PATT
	 POIN2	VictoryThemeYay_6_005
// 010   ----------------------------------------
	BYTE	PATT
	 POIN2	VictoryThemeYay_6_005
// 011   ----------------------------------------
VictoryThemeYay_6_011:
	BYTE		N11     Cn1   v100
	BYTE		N11     Gs1 
	BYTE	W12
	BYTE		N11   
	BYTE	W12
	BYTE		        Dn1 
	BYTE		N11     En1 
	BYTE		N11     Gs1 
	BYTE	W12
	BYTE		N11   
	BYTE	W12
	BYTE		        Cn1 
	BYTE		N11     Gs1 
	BYTE	W12
	BYTE		N11   
	BYTE	W12
	BYTE		        Dn1 
	BYTE		N11     En1 
	BYTE		N11     Gs1 
	BYTE		N11     An1 
	BYTE		N11     Bn1 
	BYTE		N11     Cn2 
	BYTE		N11     Dn2 
	BYTE	W12
	BYTE		N05     Dn1 
	BYTE		N05     En1 
	BYTE		N05     Gs1 
	BYTE		N05     An1 
	BYTE		N05     Bn1 
	BYTE		N05     Cn2 
	BYTE		N05     Dn2 
	BYTE	W06
	BYTE		        Dn1 
	BYTE		N05     En1 
	BYTE		N05     Gs1 
	BYTE		N05     An1 
	BYTE		N05     Bn1 
	BYTE		N05     Cn2 
	BYTE		N05     Dn2 
	BYTE	W06
	BYTE	PEND
// 012   ----------------------------------------
	BYTE	PATT
	 POIN2	VictoryThemeYay_6_004
// 013   ----------------------------------------
	BYTE	PATT
	 POIN2	VictoryThemeYay_6_005
// 014   ----------------------------------------
	BYTE	PATT
	 POIN2	VictoryThemeYay_6_005
// 015   ----------------------------------------
	BYTE	PATT
	 POIN2	VictoryThemeYay_6_005
// 016   ----------------------------------------
	BYTE	PATT
	 POIN2	VictoryThemeYay_6_005
// 017   ----------------------------------------
	BYTE	PATT
	 POIN2	VictoryThemeYay_6_005
// 018   ----------------------------------------
	BYTE	PATT
	 POIN2	VictoryThemeYay_6_005
// 019   ----------------------------------------
	BYTE	PATT
	 POIN2	VictoryThemeYay_6_011
// 020   ----------------------------------------
	BYTE		N11     Cn1   v100
	BYTE		N11     Gs1 
	BYTE		N11     An2 
	BYTE	W12
	BYTE		        Gs1 
	BYTE	W12
	BYTE		N11   
	BYTE	W12
	BYTE		        Cn1 
	BYTE		N11     Gs1 
	BYTE	W12
	BYTE		        Cn1 
	BYTE		N11     Gs1 
	BYTE	W12
	BYTE		N05     Cn1 
	BYTE		N05     Gs1 
	BYTE	W06
	BYTE		        Cn1 
	BYTE		N05     Dn1 
	BYTE	W06
	BYTE		N11     Cn1 
	BYTE		N11     Dn1 
	BYTE		N11     En1 
	BYTE		N11     Gs1 
	BYTE	W12
	BYTE		        Cn1 
	BYTE		N11     Gs1 
	BYTE	W12
// 021   ----------------------------------------
	BYTE	PATT
	 POIN2	VictoryThemeYay_6_001
// 022   ----------------------------------------
	BYTE	PATT
	 POIN2	VictoryThemeYay_6_001
// 023   ----------------------------------------
	BYTE	PATT
	 POIN2	VictoryThemeYay_6_001
// 024   ----------------------------------------
	BYTE	PATT
	 POIN2	VictoryThemeYay_6_001
// 025   ----------------------------------------
	BYTE	PATT
	 POIN2	VictoryThemeYay_6_001
// 026   ----------------------------------------
	BYTE	PATT
	 POIN2	VictoryThemeYay_6_001
// 027   ----------------------------------------
	BYTE		N11     Cn1   v100
	BYTE		N11     Gs1 
	BYTE	W12
	BYTE		N11   
	BYTE	W12
	BYTE		N11   
	BYTE	W12
	BYTE		        Cn1 
	BYTE		N11     Gs1 
	BYTE	W12
	BYTE		        Cn1 
	BYTE		N11     Gs1 
	BYTE	W12
	BYTE		N05     Cn1 
	BYTE		N05     Gs1 
	BYTE	W06
	BYTE		        Cn1 
	BYTE		N05     Dn1 
	BYTE	W06
	BYTE		N20     Cn1 
	BYTE		N20     Dn1 
	BYTE		N20     En1 
	BYTE		N20     Gs1 
	BYTE	W24
	BYTE	GoTo
	 POIN2	VictoryThemeYay_6_B1
VictoryThemeYay_6_B2:
// 028   ----------------------------------------
	BYTE	FINE

//**************** Track 7 (Midi-Chn.7) ****************//

VictoryThemeYay_7:
	BYTE	KEYSH   VictoryThemeYay_key+0
VictoryThemeYay_7_B1:
// 000   ----------------------------------------
	BYTE		VOICE   49
	BYTE		MODT    0
	BYTE		LFOS    44
	BYTE		PAN     c_v-8
	BYTE		VOL     127*VictoryThemeYay_mvl/mxv
	BYTE	W96
// 001   ----------------------------------------
	BYTE	W96
// 002   ----------------------------------------
	BYTE	W96
// 003   ----------------------------------------
	BYTE	W96
// 004   ----------------------------------------
	BYTE	W96
// 005   ----------------------------------------
	BYTE	W96
// 006   ----------------------------------------
	BYTE	W96
// 007   ----------------------------------------
	BYTE	W96
// 008   ----------------------------------------
	BYTE	W96
// 009   ----------------------------------------
	BYTE	W96
// 010   ----------------------------------------
	BYTE	W96
// 011   ----------------------------------------
	BYTE	W96
// 012   ----------------------------------------
	BYTE	W96
// 013   ----------------------------------------
	BYTE	W96
// 014   ----------------------------------------
	BYTE	W96
// 015   ----------------------------------------
	BYTE	W96
// 016   ----------------------------------------
	BYTE	W96
// 017   ----------------------------------------
	BYTE	W96
// 018   ----------------------------------------
	BYTE	W96
// 019   ----------------------------------------
	BYTE	W96
// 020   ----------------------------------------
	BYTE		        127*VictoryThemeYay_mvl/mxv
	BYTE		N48     Ds3   v056
	BYTE	W48
	BYTE		        As3 
	BYTE	W48
// 021   ----------------------------------------
VictoryThemeYay_7_021:
	BYTE		N48     Fn3   v056
	BYTE	W48
	BYTE		N16     Cs3 
	BYTE	W16
	BYTE		        Bn2 
	BYTE	W16
	BYTE		        As2 
	BYTE	W16
	BYTE	PEND
// 022   ----------------------------------------
VictoryThemeYay_7_022:
	BYTE		N48     Ds3   v056
	BYTE	W48
	BYTE		        Fs3 
	BYTE	W48
	BYTE	PEND
// 023   ----------------------------------------
	BYTE		N24     Fn3 
	BYTE	W24
	BYTE		        Fs3 
	BYTE	W24
	BYTE		N48     Gs3 
	BYTE	W48
// 024   ----------------------------------------
	BYTE		        Ds3 
	BYTE	W48
	BYTE		        As3 
	BYTE	W48
// 025   ----------------------------------------
	BYTE	PATT
	 POIN2	VictoryThemeYay_7_021
// 026   ----------------------------------------
	BYTE	PATT
	 POIN2	VictoryThemeYay_7_022
// 027   ----------------------------------------
	BYTE		N90     Fn3   v056
	BYTE	W96
	BYTE	GoTo
	 POIN2	VictoryThemeYay_7_B1
VictoryThemeYay_7_B2:
// 028   ----------------------------------------
	BYTE		VOL     127*VictoryThemeYay_mvl/mxv
	BYTE	FINE

//******************************************************//
	ALIGN 4

VictoryThemeYay:
	BYTE	7	// NumTrks
	BYTE	0	// NumBlks
	BYTE	VictoryThemeYay_pri	// Priority
	BYTE	VictoryThemeYay_rev	// Reverb.

	POIN2	VictoryThemeYay_grp

	POIN2	VictoryThemeYay_1
	POIN2	VictoryThemeYay_2
	POIN2	VictoryThemeYay_3
	POIN2	VictoryThemeYay_4
	POIN2	VictoryThemeYay_5
	POIN2	VictoryThemeYay_6
	POIN2	VictoryThemeYay_7

	
