//Event file generated from Sappy .s format.
	#include "MPlayDef.event"

	#define	ViolentManualFox_grp  voicegroup000
	#define	ViolentManualFox_pri  0
	#define	ViolentManualFox_rev  0x94
	#define	ViolentManualFox_mvl  28
	#define	ViolentManualFox_key  0
	#define	ViolentManualFox_tbs  1
	#define	ViolentManualFox_exg  0
	#define	ViolentManualFox_cmp  1

	// .rodata
	//	ViolentManualFox
	ALIGN 4

//**************** Track 1 (Midi-Chn.1) ****************//

ViolentManualFox_1:
	BYTE	KEYSH   ViolentManualFox_key+0
ViolentManualFox_1_B1:
// 000   ----------------------------------------
	BYTE	TEMPO   120*ViolentManualFox_tbs/2
	BYTE		VOICE   81
	BYTE		MODT    0
	BYTE		LFOS    44
	BYTE		PAN     c_v-23
	BYTE		VOL     127*ViolentManualFox_mvl/mxv
	BYTE		PAN     c_v-23
	BYTE		N04     Cn4   v076
	BYTE	W12
	BYTE		N04   
	BYTE	W06
	BYTE		N04   
	BYTE	W06
	BYTE		N04   
	BYTE	W12
	BYTE		N04   
	BYTE	W06
	BYTE		N04   
	BYTE	W06
	BYTE		N04   
	BYTE	W06
	BYTE		        Cn5 
	BYTE	W12
	BYTE		N04   
	BYTE	W06
	BYTE		        Cn4 
	BYTE	W06
	BYTE		        Cn5 
	BYTE	W12
	BYTE		N04   
	BYTE	W06
// 001   ----------------------------------------
ViolentManualFox_1_001:
	BYTE		N04     Cn4   v076
	BYTE	W12
	BYTE		N04   
	BYTE	W06
	BYTE		N04   
	BYTE	W06
	BYTE		N04   
	BYTE	W12
	BYTE		N04   
	BYTE	W06
	BYTE		N04   
	BYTE	W06
	BYTE		N04   
	BYTE	W06
	BYTE		        Cn5 
	BYTE	W12
	BYTE		N04   
	BYTE	W06
	BYTE		        Cn4 
	BYTE	W06
	BYTE		        Cn5 
	BYTE	W12
	BYTE		N04   
	BYTE	W06
	BYTE	PEND
// 002   ----------------------------------------
	BYTE	PATT
	 POIN2	ViolentManualFox_1_001
// 003   ----------------------------------------
	BYTE	PATT
	 POIN2	ViolentManualFox_1_001
// 004   ----------------------------------------
ViolentManualFox_1_004:
	BYTE		N04     Cn3   v076
	BYTE		N04     Cn4 
	BYTE	W12
	BYTE		        Cn2 
	BYTE		N04     Cn4 
	BYTE	W06
	BYTE		        Cn2 
	BYTE		N04     Cn4 
	BYTE	W06
	BYTE		        Cn3 
	BYTE		N04     Cn4 
	BYTE	W12
	BYTE		        Cn2 
	BYTE		N04     Cn4 
	BYTE	W06
	BYTE		        Cn2 
	BYTE		N04     Cn4 
	BYTE	W06
	BYTE		        Cn3 
	BYTE		N04     Cn4 
	BYTE	W06
	BYTE		        Cn2 
	BYTE		N04     Cn5 
	BYTE	W06
	BYTE		        Cn2 
	BYTE	W06
	BYTE		N04   
	BYTE		N04     Cn5 
	BYTE	W06
	BYTE		        Cn3 
	BYTE		N04     Cn4 
	BYTE	W06
	BYTE		        Cn2 
	BYTE		N04     Cn5 
	BYTE	W06
	BYTE		        Cn2 
	BYTE	W06
	BYTE		N04   
	BYTE		N04     Cn5 
	BYTE	W06
	BYTE	PEND
// 005   ----------------------------------------
	BYTE	PATT
	 POIN2	ViolentManualFox_1_004
// 006   ----------------------------------------
	BYTE	PATT
	 POIN2	ViolentManualFox_1_004
// 007   ----------------------------------------
	BYTE	PATT
	 POIN2	ViolentManualFox_1_004
// 008   ----------------------------------------
	BYTE	W96
// 009   ----------------------------------------
	BYTE	W96
// 010   ----------------------------------------
	BYTE	W96
// 011   ----------------------------------------
	BYTE	W96
// 012   ----------------------------------------
	BYTE	W96
// 013   ----------------------------------------
	BYTE	W96
// 014   ----------------------------------------
	BYTE	W96
// 015   ----------------------------------------
	BYTE	W96
// 016   ----------------------------------------
	BYTE	W96
// 017   ----------------------------------------
	BYTE	W96
// 018   ----------------------------------------
	BYTE	W96
// 019   ----------------------------------------
	BYTE	W96
// 020   ----------------------------------------
	BYTE	W96
// 021   ----------------------------------------
	BYTE	W96
// 022   ----------------------------------------
	BYTE	W96
// 023   ----------------------------------------
	BYTE	W96
// 024   ----------------------------------------
	BYTE	PATT
	 POIN2	ViolentManualFox_1_001
// 025   ----------------------------------------
	BYTE	PATT
	 POIN2	ViolentManualFox_1_001
// 026   ----------------------------------------
	BYTE	PATT
	 POIN2	ViolentManualFox_1_001
// 027   ----------------------------------------
	BYTE	PATT
	 POIN2	ViolentManualFox_1_001
// 028   ----------------------------------------
	BYTE	PATT
	 POIN2	ViolentManualFox_1_004
// 029   ----------------------------------------
	BYTE	PATT
	 POIN2	ViolentManualFox_1_004
// 030   ----------------------------------------
	BYTE	PATT
	 POIN2	ViolentManualFox_1_004
// 031   ----------------------------------------
	BYTE	PATT
	 POIN2	ViolentManualFox_1_004
// 032   ----------------------------------------
ViolentManualFox_1_032:
	BYTE		N04     As3   v076
	BYTE	W12
	BYTE		N04   
	BYTE	W06
	BYTE		N04   
	BYTE	W06
	BYTE		N04   
	BYTE	W12
	BYTE		N04   
	BYTE	W06
	BYTE		N04   
	BYTE	W06
	BYTE		N04   
	BYTE	W06
	BYTE		        As4 
	BYTE	W12
	BYTE		N04   
	BYTE	W06
	BYTE		        As3 
	BYTE	W06
	BYTE		        As4 
	BYTE	W12
	BYTE		N04   
	BYTE	W06
	BYTE	PEND
// 033   ----------------------------------------
	BYTE		        Ds4 
	BYTE	W12
	BYTE		N04   
	BYTE	W06
	BYTE		N04   
	BYTE	W06
	BYTE		N04   
	BYTE	W12
	BYTE		N04   
	BYTE	W06
	BYTE		N04   
	BYTE	W06
	BYTE		N04   
	BYTE	W06
	BYTE		        Ds5 
	BYTE	W12
	BYTE		N04   
	BYTE	W06
	BYTE		        Ds4 
	BYTE	W06
	BYTE		        Ds5 
	BYTE	W12
	BYTE		N04   
	BYTE	W06
// 034   ----------------------------------------
	BYTE		        As3 
	BYTE	W12
	BYTE		N04   
	BYTE	W06
	BYTE		N04   
	BYTE	W06
	BYTE		N04   
	BYTE	W12
	BYTE		N04   
	BYTE	W06
	BYTE		N04   
	BYTE	W06
	BYTE		N04   
	BYTE	W06
	BYTE		        Gs4 
	BYTE	W12
	BYTE		N04   
	BYTE	W06
	BYTE		        As3 
	BYTE	W06
	BYTE		        Gs4 
	BYTE	W12
	BYTE		N04   
	BYTE	W06
// 035   ----------------------------------------
	BYTE		        Gn3 
	BYTE	W12
	BYTE		N04   
	BYTE	W06
	BYTE		N04   
	BYTE	W06
	BYTE		N04   
	BYTE	W12
	BYTE		N04   
	BYTE	W06
	BYTE		N04   
	BYTE	W06
	BYTE		N04   
	BYTE	W06
	BYTE		        Gn4 
	BYTE	W12
	BYTE		N04   
	BYTE	W06
	BYTE		        Gn3 
	BYTE	W06
	BYTE		        Gn4 
	BYTE	W12
	BYTE		N04   
	BYTE	W06
// 036   ----------------------------------------
	BYTE		        Gs3 
	BYTE	W12
	BYTE		N04   
	BYTE	W06
	BYTE		N04   
	BYTE	W06
	BYTE		N04   
	BYTE	W12
	BYTE		N04   
	BYTE	W06
	BYTE		N04   
	BYTE	W06
	BYTE		N04   
	BYTE	W06
	BYTE		        Gs4 
	BYTE	W12
	BYTE		N04   
	BYTE	W06
	BYTE		        Gs3 
	BYTE	W06
	BYTE		        Gs4 
	BYTE	W12
	BYTE		N04   
	BYTE	W06
// 037   ----------------------------------------
	BYTE		        An3 
	BYTE	W12
	BYTE		N04   
	BYTE	W06
	BYTE		N04   
	BYTE	W06
	BYTE		N04   
	BYTE	W12
	BYTE		N04   
	BYTE	W06
	BYTE		N04   
	BYTE	W06
	BYTE		N04   
	BYTE	W06
	BYTE		        An4 
	BYTE	W12
	BYTE		N04   
	BYTE	W06
	BYTE		        An3 
	BYTE	W06
	BYTE		        An4 
	BYTE	W12
	BYTE		N04   
	BYTE	W06
// 038   ----------------------------------------
	BYTE	PATT
	 POIN2	ViolentManualFox_1_032
// 039   ----------------------------------------
	BYTE		N04     As3   v076
	BYTE	W12
	BYTE		N04   
	BYTE	W06
	BYTE		N04   
	BYTE	W06
	BYTE		N04   
	BYTE	W12
	BYTE		N04   
	BYTE	W06
	BYTE		N04   
	BYTE	W06
	BYTE		N04   
	BYTE	W06
	BYTE		        Gs4 
	BYTE	W12
	BYTE		N04   
	BYTE	W06
	BYTE		        As3 
	BYTE	W06
	BYTE		        Gs4 
	BYTE	W12
	BYTE		N04   
	BYTE	W04
	BYTE		VOL     127*ViolentManualFox_mvl/mxv
	BYTE		PAN     c_v+32
	BYTE		VOL     127*ViolentManualFox_mvl/mxv
	BYTE		PAN     c_v+32
	BYTE	W02
// 040   ----------------------------------------
	BYTE	W96
// 041   ----------------------------------------
	BYTE	W96
// 042   ----------------------------------------
	BYTE	W96
// 043   ----------------------------------------
	BYTE	W96
// 044   ----------------------------------------
	BYTE	W96
// 045   ----------------------------------------
	BYTE	W96
// 046   ----------------------------------------
	BYTE	W96
// 047   ----------------------------------------
	BYTE	W90
	BYTE	GoTo
	 POIN2	ViolentManualFox_1_B1
ViolentManualFox_1_B2:
	BYTE	FINE

//**************** Track 2 (Midi-Chn.2) ****************//

ViolentManualFox_2:
	BYTE	KEYSH   ViolentManualFox_key+0
ViolentManualFox_2_B1:
// 000   ----------------------------------------
	BYTE		VOICE   48
	BYTE		MODT    0
	BYTE		LFOS    44
	BYTE		PAN     c_v-11
	BYTE		VOL     127*ViolentManualFox_mvl/mxv
	BYTE		N90     Cn3   v100
	BYTE		N90     Ds3 
	BYTE		N90     Gn3 
	BYTE	W96
// 001   ----------------------------------------
ViolentManualFox_2_001:
	BYTE		N90     Cn3   v100
	BYTE		N90     Ds3 
	BYTE		N90     Fs3 
	BYTE	W96
	BYTE	PEND
// 002   ----------------------------------------
ViolentManualFox_2_002:
	BYTE		N90     Cn3   v100
	BYTE		N90     Ds3 
	BYTE		N90     Fn3 
	BYTE	W96
	BYTE	PEND
// 003   ----------------------------------------
ViolentManualFox_2_003:
	BYTE		N90     Gn2   v100
	BYTE		N90     Cn3 
	BYTE		N90     Ds3 
	BYTE	W96
	BYTE	PEND
// 004   ----------------------------------------
ViolentManualFox_2_004:
	BYTE		N90     Cn3   v100
	BYTE		N90     Ds3 
	BYTE		N90     Gn3 
	BYTE	W96
	BYTE	PEND
// 005   ----------------------------------------
	BYTE	PATT
	 POIN2	ViolentManualFox_2_001
// 006   ----------------------------------------
	BYTE	PATT
	 POIN2	ViolentManualFox_2_002
// 007   ----------------------------------------
	BYTE	PATT
	 POIN2	ViolentManualFox_2_003
// 008   ----------------------------------------
	BYTE	PATT
	 POIN2	ViolentManualFox_2_004
// 009   ----------------------------------------
	BYTE	PATT
	 POIN2	ViolentManualFox_2_001
// 010   ----------------------------------------
	BYTE		N90     As2   v100
	BYTE		N90     Dn3 
	BYTE		N90     Fn3 
	BYTE	W96
// 011   ----------------------------------------
	BYTE		        Cn3 
	BYTE		N90     Fn3 
	BYTE		N90     An3 
	BYTE	W96
// 012   ----------------------------------------
ViolentManualFox_2_012:
	BYTE		N90     As2   v100
	BYTE		N90     Dn3 
	BYTE		N90     Gn3 
	BYTE	W96
	BYTE	PEND
// 013   ----------------------------------------
	BYTE		        Dn3 
	BYTE		N90     Fn3 
	BYTE		N90     An3 
	BYTE	W96
// 014   ----------------------------------------
	BYTE	PATT
	 POIN2	ViolentManualFox_2_004
// 015   ----------------------------------------
	BYTE		N90     Bn2   v100
	BYTE		N90     Dn3 
	BYTE		N90     Gn3 
	BYTE	W96
// 016   ----------------------------------------
	BYTE		        Bn2 
	BYTE		N90     En3 
	BYTE		N90     Gn3 
	BYTE	W96
// 017   ----------------------------------------
	BYTE		        Cn3 
	BYTE		N90     En3 
	BYTE		N90     An3 
	BYTE	W96
// 018   ----------------------------------------
	BYTE		        Cn3 
	BYTE		N90     Dn3 
	BYTE		N90     Fs3 
	BYTE	W96
// 019   ----------------------------------------
	BYTE	PATT
	 POIN2	ViolentManualFox_2_012
// 020   ----------------------------------------
ViolentManualFox_2_020:
	BYTE		N90     Dn3   v100
	BYTE		N90     Fn3 
	BYTE		N90     As3 
	BYTE	W96
	BYTE	PEND
// 021   ----------------------------------------
ViolentManualFox_2_021:
	BYTE		N90     Dn3   v100
	BYTE		N90     Fn3 
	BYTE		N90     Gs3 
	BYTE	W96
	BYTE	PEND
// 022   ----------------------------------------
ViolentManualFox_2_022:
	BYTE		N90     As2   v100
	BYTE		N90     Ds3 
	BYTE		N90     Gn3 
	BYTE	W96
	BYTE	PEND
// 023   ----------------------------------------
	BYTE	PATT
	 POIN2	ViolentManualFox_2_020
// 024   ----------------------------------------
	BYTE	PATT
	 POIN2	ViolentManualFox_2_004
// 025   ----------------------------------------
	BYTE	PATT
	 POIN2	ViolentManualFox_2_001
// 026   ----------------------------------------
	BYTE	PATT
	 POIN2	ViolentManualFox_2_002
// 027   ----------------------------------------
	BYTE	PATT
	 POIN2	ViolentManualFox_2_003
// 028   ----------------------------------------
	BYTE	PATT
	 POIN2	ViolentManualFox_2_004
// 029   ----------------------------------------
	BYTE	PATT
	 POIN2	ViolentManualFox_2_001
// 030   ----------------------------------------
	BYTE	PATT
	 POIN2	ViolentManualFox_2_002
// 031   ----------------------------------------
	BYTE	PATT
	 POIN2	ViolentManualFox_2_003
// 032   ----------------------------------------
	BYTE	PATT
	 POIN2	ViolentManualFox_2_020
// 033   ----------------------------------------
	BYTE	PATT
	 POIN2	ViolentManualFox_2_022
// 034   ----------------------------------------
	BYTE	PATT
	 POIN2	ViolentManualFox_2_021
// 035   ----------------------------------------
	BYTE	PATT
	 POIN2	ViolentManualFox_2_012
// 036   ----------------------------------------
	BYTE		N90     Cn3   v100
	BYTE		N90     Ds3 
	BYTE		N90     Gs3 
	BYTE	W96
// 037   ----------------------------------------
	BYTE		        Cn3 
	BYTE		N90     Ds3 
	BYTE		N90     An3 
	BYTE	W96
// 038   ----------------------------------------
	BYTE	PATT
	 POIN2	ViolentManualFox_2_020
// 039   ----------------------------------------
	BYTE		N90     Dn3   v100
	BYTE		N90     Fn3 
	BYTE		N90     Gs3 
	BYTE		N90     As3 
	BYTE	W96
// 040   ----------------------------------------
	BYTE	PATT
	 POIN2	ViolentManualFox_2_004
// 041   ----------------------------------------
	BYTE	PATT
	 POIN2	ViolentManualFox_2_001
// 042   ----------------------------------------
	BYTE	PATT
	 POIN2	ViolentManualFox_2_002
// 043   ----------------------------------------
	BYTE	PATT
	 POIN2	ViolentManualFox_2_003
// 044   ----------------------------------------
	BYTE	PATT
	 POIN2	ViolentManualFox_2_004
// 045   ----------------------------------------
	BYTE	PATT
	 POIN2	ViolentManualFox_2_001
// 046   ----------------------------------------
	BYTE	PATT
	 POIN2	ViolentManualFox_2_002
// 047   ----------------------------------------
	BYTE		N90     Gn2   v100
	BYTE		N90     Cn3 
	BYTE		N90     Ds3 
	BYTE	W90
	BYTE	GoTo
	 POIN2	ViolentManualFox_2_B1
ViolentManualFox_2_B2:
	BYTE		VOL     127*ViolentManualFox_mvl/mxv
	BYTE	FINE

//**************** Track 3 (Midi-Chn.3) ****************//

ViolentManualFox_3:
	BYTE	KEYSH   ViolentManualFox_key+0
ViolentManualFox_3_B1:
// 000   ----------------------------------------
	BYTE		VOICE   33
	BYTE		MODT    0
	BYTE		LFOS    44
	BYTE		PAN     c_v+8
	BYTE		VOL     127*ViolentManualFox_mvl/mxv
	BYTE		PAN     c_v-23
	BYTE		VOL     127*ViolentManualFox_mvl/mxv
	BYTE		PAN     c_v-10
	BYTE	W96
// 001   ----------------------------------------
	BYTE	W96
// 002   ----------------------------------------
	BYTE	W96
// 003   ----------------------------------------
	BYTE	W96
// 004   ----------------------------------------
ViolentManualFox_3_004:
	BYTE		N20     Cn1   v127
	BYTE	W24
	BYTE		N20   
	BYTE	W24
	BYTE		N20   
	BYTE	W24
	BYTE		N20   
	BYTE	W24
	BYTE	PEND
// 005   ----------------------------------------
	BYTE	PATT
	 POIN2	ViolentManualFox_3_004
// 006   ----------------------------------------
	BYTE	PATT
	 POIN2	ViolentManualFox_3_004
// 007   ----------------------------------------
	BYTE	PATT
	 POIN2	ViolentManualFox_3_004
// 008   ----------------------------------------
ViolentManualFox_3_008:
	BYTE		N20     Ds1   v127
	BYTE	W24
	BYTE		        Cn1 
	BYTE	W24
	BYTE		        Ds1 
	BYTE	W24
	BYTE		        Cn1 
	BYTE	W24
	BYTE	PEND
// 009   ----------------------------------------
	BYTE	PATT
	 POIN2	ViolentManualFox_3_008
// 010   ----------------------------------------
ViolentManualFox_3_010:
	BYTE		N20     Fn1   v127
	BYTE	W24
	BYTE		        Dn1 
	BYTE	W24
	BYTE		        Fn1 
	BYTE	W24
	BYTE		        Dn1 
	BYTE	W24
	BYTE	PEND
// 011   ----------------------------------------
	BYTE		        Fn1 
	BYTE	W24
	BYTE		        Cn1 
	BYTE	W24
	BYTE		        Fn1 
	BYTE	W24
	BYTE		        Cn1 
	BYTE	W24
// 012   ----------------------------------------
ViolentManualFox_3_012:
	BYTE		N20     Gn1   v127
	BYTE	W24
	BYTE		        Dn1 
	BYTE	W24
	BYTE		        Gn1 
	BYTE	W24
	BYTE		        Dn1 
	BYTE	W24
	BYTE	PEND
// 013   ----------------------------------------
	BYTE	PATT
	 POIN2	ViolentManualFox_3_010
// 014   ----------------------------------------
	BYTE	PATT
	 POIN2	ViolentManualFox_3_008
// 015   ----------------------------------------
	BYTE	PATT
	 POIN2	ViolentManualFox_3_012
// 016   ----------------------------------------
	BYTE		N20     Gn1   v127
	BYTE	W24
	BYTE		        En1 
	BYTE	W24
	BYTE		        Gn1 
	BYTE	W24
	BYTE		        En1 
	BYTE	W24
// 017   ----------------------------------------
	BYTE		        An1 
	BYTE	W24
	BYTE		        En1 
	BYTE	W24
	BYTE		        An1 
	BYTE	W24
	BYTE		        En1 
	BYTE	W24
// 018   ----------------------------------------
	BYTE		        Fs1 
	BYTE	W24
	BYTE		        Dn1 
	BYTE	W24
	BYTE		        Fs1 
	BYTE	W24
	BYTE		        Dn1 
	BYTE	W24
// 019   ----------------------------------------
	BYTE	PATT
	 POIN2	ViolentManualFox_3_012
// 020   ----------------------------------------
ViolentManualFox_3_020:
	BYTE		N20     As1   v127
	BYTE	W24
	BYTE		        Fn1 
	BYTE	W24
	BYTE		        As1 
	BYTE	W24
	BYTE		        Fn1 
	BYTE	W24
	BYTE	PEND
// 021   ----------------------------------------
	BYTE		        Gs1 
	BYTE	W24
	BYTE		        Fn1 
	BYTE	W24
	BYTE		        Gs1 
	BYTE	W24
	BYTE		        Fn1 
	BYTE	W24
// 022   ----------------------------------------
ViolentManualFox_3_022:
	BYTE		N20     Gn1   v127
	BYTE	W24
	BYTE		        Ds1 
	BYTE	W24
	BYTE		        Gn1 
	BYTE	W24
	BYTE		        Ds1 
	BYTE	W24
	BYTE	PEND
// 023   ----------------------------------------
	BYTE		        Fn1 
	BYTE	W24
	BYTE		        Gn1 
	BYTE	W24
	BYTE		        Gs1 
	BYTE	W24
	BYTE		        Fn1 
	BYTE	W24
// 024   ----------------------------------------
	BYTE	PATT
	 POIN2	ViolentManualFox_3_004
// 025   ----------------------------------------
	BYTE	PATT
	 POIN2	ViolentManualFox_3_004
// 026   ----------------------------------------
	BYTE	PATT
	 POIN2	ViolentManualFox_3_004
// 027   ----------------------------------------
	BYTE	PATT
	 POIN2	ViolentManualFox_3_004
// 028   ----------------------------------------
	BYTE	PATT
	 POIN2	ViolentManualFox_3_004
// 029   ----------------------------------------
	BYTE	PATT
	 POIN2	ViolentManualFox_3_004
// 030   ----------------------------------------
	BYTE	PATT
	 POIN2	ViolentManualFox_3_004
// 031   ----------------------------------------
	BYTE	PATT
	 POIN2	ViolentManualFox_3_004
// 032   ----------------------------------------
	BYTE	PATT
	 POIN2	ViolentManualFox_3_020
// 033   ----------------------------------------
	BYTE	PATT
	 POIN2	ViolentManualFox_3_022
// 034   ----------------------------------------
	BYTE	PATT
	 POIN2	ViolentManualFox_3_010
// 035   ----------------------------------------
	BYTE	PATT
	 POIN2	ViolentManualFox_3_012
// 036   ----------------------------------------
	BYTE		N20     Gs1   v127
	BYTE	W24
	BYTE		        Ds1 
	BYTE	W24
	BYTE		        Gs1 
	BYTE	W24
	BYTE		        Ds1 
	BYTE	W24
// 037   ----------------------------------------
	BYTE		        An1 
	BYTE	W24
	BYTE		        Ds1 
	BYTE	W24
	BYTE		        An1 
	BYTE	W24
	BYTE		        Ds1 
	BYTE	W24
// 038   ----------------------------------------
	BYTE	PATT
	 POIN2	ViolentManualFox_3_020
// 039   ----------------------------------------
	BYTE		N20     Gs1   v127
	BYTE	W24
	BYTE		        Fn1 
	BYTE	W24
	BYTE		        Gs1 
	BYTE	W24
	BYTE		N05     Fn1 
	BYTE	W06
	BYTE		        Ds1 
	BYTE	W06
	BYTE		N11     Dn1 
	BYTE	W12
// 040   ----------------------------------------
	BYTE		N90     Cn1 
	BYTE	W96
// 041   ----------------------------------------
	BYTE		N90   
	BYTE	W96
// 042   ----------------------------------------
	BYTE		N90   
	BYTE	W96
// 043   ----------------------------------------
	BYTE		N90   
	BYTE	W96
// 044   ----------------------------------------
	BYTE		N90   
	BYTE	W96
// 045   ----------------------------------------
	BYTE		N90   
	BYTE	W96
// 046   ----------------------------------------
	BYTE		N90   
	BYTE	W96
// 047   ----------------------------------------
	BYTE		N90   
	BYTE	W90
	BYTE	GoTo
	 POIN2	ViolentManualFox_3_B1
ViolentManualFox_3_B2:
	BYTE		VOL     127*ViolentManualFox_mvl/mxv
	BYTE		PAN     c_v+32
	BYTE		VOL     127*ViolentManualFox_mvl/mxv
	BYTE		PAN     c_v+32
	BYTE	FINE

//**************** Track 4 (Midi-Chn.4) ****************//

ViolentManualFox_4:
	BYTE	KEYSH   ViolentManualFox_key+0
ViolentManualFox_4_B1:
// 000   ----------------------------------------
	BYTE		VOICE   60
	BYTE		MODT    0
	BYTE		LFOS    44
	BYTE		PAN     c_v+27
	BYTE		VOL     127*ViolentManualFox_mvl/mxv
	BYTE	W96
// 001   ----------------------------------------
	BYTE	W96
// 002   ----------------------------------------
	BYTE	W96
// 003   ----------------------------------------
	BYTE	W96
// 004   ----------------------------------------
	BYTE	W96
// 005   ----------------------------------------
	BYTE	W96
// 006   ----------------------------------------
	BYTE	W96
// 007   ----------------------------------------
	BYTE	W72
	BYTE		N05     Cn4   v127
	BYTE	W06
	BYTE		        Dn4 
	BYTE	W06
	BYTE		        Ds4 
	BYTE	W06
	BYTE		        Fn4 
	BYTE	W06
// 008   ----------------------------------------
	BYTE		N32     Gn4 
	BYTE	W36
	BYTE		        Ds4 
	BYTE	W36
	BYTE		N20     Gn4 
	BYTE	W24
// 009   ----------------------------------------
	BYTE		        Fs4 
	BYTE	W24
	BYTE		N42     Dn4 
	BYTE	W48
	BYTE		N11   
	BYTE	W12
	BYTE		        Ds4 
	BYTE	W12
// 010   ----------------------------------------
	BYTE		N32     Fn4 
	BYTE	W36
	BYTE		        Dn4 
	BYTE	W36
	BYTE		N20     As3 
	BYTE	W24
// 011   ----------------------------------------
	BYTE		N11     An3 
	BYTE	W12
	BYTE		        As3 
	BYTE	W12
	BYTE		N66     Cn4 
	BYTE	W72
// 012   ----------------------------------------
	BYTE		N32     Dn4 
	BYTE	W36
	BYTE		        As3 
	BYTE	W36
	BYTE		N20     Gn3 
	BYTE	W24
// 013   ----------------------------------------
	BYTE		N11     Fn3 
	BYTE	W12
	BYTE		        En3 
	BYTE	W12
	BYTE		N42     Dn3 
	BYTE	W48
	BYTE		N11     Gn3 
	BYTE	W12
	BYTE		        Fn3 
	BYTE	W12
// 014   ----------------------------------------
	BYTE		        Ds3 
	BYTE	W12
	BYTE		        Fn3 
	BYTE	W12
	BYTE		        Gn3 
	BYTE	W12
	BYTE		        Gs3 
	BYTE	W12
	BYTE		N20     As3 
	BYTE	W24
	BYTE		N11     Gs3 
	BYTE	W12
	BYTE		N05     As3 
	BYTE	W06
	BYTE		        Gs3 
	BYTE	W06
// 015   ----------------------------------------
	BYTE		N90     Gn3 
	BYTE	W96
// 016   ----------------------------------------
	BYTE		N32   
	BYTE	W36
	BYTE		        Bn3 
	BYTE	W36
	BYTE		N20     En4 
	BYTE	W24
// 017   ----------------------------------------
	BYTE		N11     Cn4 
	BYTE	W12
	BYTE		        Bn3 
	BYTE	W12
	BYTE		        An3 
	BYTE	W12
	BYTE		        Gn3 
	BYTE	W12
	BYTE		N42     An3 
	BYTE	W48
// 018   ----------------------------------------
	BYTE		N32     Cn4 
	BYTE	W36
	BYTE		        As3 
	BYTE	W36
	BYTE		N20     An3 
	BYTE	W24
// 019   ----------------------------------------
	BYTE		N11     Gn3 
	BYTE	W12
	BYTE		        Gs3 
	BYTE	W12
	BYTE		        As3 
	BYTE	W12
	BYTE		        Gs3 
	BYTE	W12
	BYTE		N42     Gn3 
	BYTE	W48
// 020   ----------------------------------------
	BYTE		N05     Dn4 
	BYTE	W06
	BYTE		        Cn4 
	BYTE	W06
	BYTE		        As3 
	BYTE	W06
	BYTE		        Dn4 
	BYTE	W06
	BYTE		N11     Fn4 
	BYTE	W12
	BYTE		N05     Ds4 
	BYTE	W06
	BYTE		        Fn4 
	BYTE	W06
	BYTE		N11     Dn4 
	BYTE	W12
	BYTE		        Cn4 
	BYTE	W12
	BYTE		        As3 
	BYTE	W12
	BYTE		        Fn3 
	BYTE	W12
// 021   ----------------------------------------
	BYTE		N05     Gs3 
	BYTE	W06
	BYTE		        Gn3 
	BYTE	W06
	BYTE		        Fn3 
	BYTE	W06
	BYTE		        Gs3 
	BYTE	W06
	BYTE		N11     Dn4 
	BYTE	W12
	BYTE		        Cn4 
	BYTE	W12
	BYTE		        As3 
	BYTE	W12
	BYTE		        Gs3 
	BYTE	W12
	BYTE		        Fn3 
	BYTE	W12
	BYTE		        Dn3 
	BYTE	W12
// 022   ----------------------------------------
	BYTE		N05     Ds3 
	BYTE	W06
	BYTE		        Fn3 
	BYTE	W06
	BYTE		N20     Gn3 
	BYTE	W24
	BYTE		N11     Gs3 
	BYTE	W12
	BYTE		N05     Ds4 
	BYTE	W06
	BYTE		        Cn4 
	BYTE	W06
	BYTE		N20     As3 
	BYTE	W24
	BYTE		N11     Gn3 
	BYTE	W12
// 023   ----------------------------------------
	BYTE		N05     As3 
	BYTE	W06
	BYTE		        Cn4 
	BYTE	W06
	BYTE		N20     Dn4 
	BYTE	W24
	BYTE		N11     Ds4 
	BYTE	W12
	BYTE		N42     Fn4 
	BYTE	W48
// 024   ----------------------------------------
	BYTE		N05     Cn4 
	BYTE	W06
	BYTE		        Dn4 
	BYTE	W06
	BYTE		N20     Ds4 
	BYTE	W24
	BYTE		N11     Fn4 
	BYTE	W12
	BYTE		        Gn4 
	BYTE	W12
	BYTE		        Fn4 
	BYTE	W12
	BYTE		        Ds4 
	BYTE	W12
	BYTE		        Dn4 
	BYTE	W12
// 025   ----------------------------------------
	BYTE		N05     Cn4 
	BYTE	W06
	BYTE		        Dn4 
	BYTE	W06
	BYTE		N20     Ds4 
	BYTE	W24
	BYTE		N11     Dn4 
	BYTE	W12
	BYTE		        Cn4 
	BYTE	W12
	BYTE		        Gn3 
	BYTE	W12
	BYTE		        Gs3 
	BYTE	W12
	BYTE		        Gn3 
	BYTE	W12
// 026   ----------------------------------------
	BYTE		N05     Fn3 
	BYTE	W06
	BYTE		        Gn3 
	BYTE	W06
	BYTE		N20     Gs3 
	BYTE	W24
	BYTE		N11     Gn3 
	BYTE	W12
	BYTE		        Fn3 
	BYTE	W12
	BYTE		        Gs3 
	BYTE	W12
	BYTE		        Cn4 
	BYTE	W12
	BYTE		        Fn4 
	BYTE	W12
// 027   ----------------------------------------
	BYTE		        Ds4 
	BYTE	W12
	BYTE		        Dn4 
	BYTE	W12
	BYTE		        Cn4 
	BYTE	W12
	BYTE		        Dn4 
	BYTE	W12
	BYTE		N05     Ds4 
	BYTE	W06
	BYTE		        Fn4 
	BYTE	W06
	BYTE		        Ds4 
	BYTE	W06
	BYTE		        Fn4 
	BYTE	W06
	BYTE		N20     Ds4 
	BYTE	W24
// 028   ----------------------------------------
	BYTE		N05     Cn4 
	BYTE		N05     Ds4 
	BYTE	W06
	BYTE		        Dn4 
	BYTE		N05     Fn4 
	BYTE	W06
	BYTE		N20     Ds4 
	BYTE		N20     Gn4 
	BYTE	W24
	BYTE		N11     Fn4 
	BYTE		N11     Gs4 
	BYTE	W12
	BYTE		        Gn4 
	BYTE		N11     As4 
	BYTE	W12
	BYTE		        Fn4 
	BYTE		N11     Gs4 
	BYTE	W12
	BYTE		        Ds4 
	BYTE		N11     Gn4 
	BYTE	W12
	BYTE		        Dn4 
	BYTE		N11     Fn4 
	BYTE	W12
// 029   ----------------------------------------
	BYTE		N05     Cn4 
	BYTE		N05     Ds4 
	BYTE	W06
	BYTE		        Dn4 
	BYTE		N05     Fn4 
	BYTE	W06
	BYTE		N20     Ds4 
	BYTE		N20     Gn4 
	BYTE	W24
	BYTE		N11     Dn4 
	BYTE		N11     Fn4 
	BYTE	W12
	BYTE		        Cn4 
	BYTE		N11     Ds4 
	BYTE	W12
	BYTE		        Gn3 
	BYTE		N11     Cn4 
	BYTE	W12
	BYTE		        Gs3 
	BYTE		N11     Dn4 
	BYTE	W12
	BYTE		        Gn3 
	BYTE		N11     Cn4 
	BYTE	W12
// 030   ----------------------------------------
	BYTE		N05     Fn3 
	BYTE		N05     Gs3 
	BYTE	W06
	BYTE		        Gn3 
	BYTE		N05     As3 
	BYTE	W06
	BYTE		N20     Gs3 
	BYTE		N20     Cn4 
	BYTE	W24
	BYTE		N11     Gn3 
	BYTE		N11     As3 
	BYTE	W12
	BYTE		        Fn3 
	BYTE		N11     Gs3 
	BYTE	W12
	BYTE		N11   
	BYTE		N11     Cn4 
	BYTE	W12
	BYTE		N11   
	BYTE		N11     Ds4 
	BYTE	W12
	BYTE		        Fn4 
	BYTE		N11     Gs4 
	BYTE	W12
// 031   ----------------------------------------
	BYTE		        Ds4 
	BYTE		N11     Gn4 
	BYTE	W12
	BYTE		        Dn4 
	BYTE		N11     Fn4 
	BYTE	W12
	BYTE		        Cn4 
	BYTE		N11     Ds4 
	BYTE	W12
	BYTE		        Dn4 
	BYTE		N11     Fn4 
	BYTE	W12
	BYTE		N05     Ds4 
	BYTE		N05     Gn4 
	BYTE	W06
	BYTE		        Fn4 
	BYTE		N05     Gs4 
	BYTE	W06
	BYTE		        Ds4 
	BYTE		N05     Gn4 
	BYTE	W06
	BYTE		        Fn4 
	BYTE		N05     Gs4 
	BYTE	W06
	BYTE		N20     Ds4 
	BYTE		N20     Gn4 
	BYTE	W20
	BYTE		VOL     127*ViolentManualFox_mvl/mxv
	BYTE	W04
// 032   ----------------------------------------
	BYTE	W96
// 033   ----------------------------------------
	BYTE	W96
// 034   ----------------------------------------
	BYTE	W96
// 035   ----------------------------------------
	BYTE	W96
// 036   ----------------------------------------
	BYTE	W96
// 037   ----------------------------------------
	BYTE	W96
// 038   ----------------------------------------
	BYTE	W96
// 039   ----------------------------------------
	BYTE	W96
// 040   ----------------------------------------
	BYTE	W96
// 041   ----------------------------------------
	BYTE	W96
// 042   ----------------------------------------
	BYTE	W96
// 043   ----------------------------------------
	BYTE	W96
// 044   ----------------------------------------
	BYTE	W96
// 045   ----------------------------------------
	BYTE	W96
// 046   ----------------------------------------
	BYTE	W96
// 047   ----------------------------------------
	BYTE	W90
	BYTE	GoTo
	 POIN2	ViolentManualFox_4_B1
ViolentManualFox_4_B2:
	BYTE	FINE

//**************** Track 5 (Midi-Chn.5) ****************//

ViolentManualFox_5:
	BYTE	KEYSH   ViolentManualFox_key+0
ViolentManualFox_5_B1:
// 000   ----------------------------------------
	BYTE		VOICE   1
	BYTE		MODT    0
	BYTE		LFOS    44
	BYTE		PAN     c_v-11
	BYTE		VOL     127*ViolentManualFox_mvl/mxv
	BYTE	W96
// 001   ----------------------------------------
	BYTE	W96
// 002   ----------------------------------------
	BYTE	W96
// 003   ----------------------------------------
	BYTE	W96
// 004   ----------------------------------------
	BYTE	W96
// 005   ----------------------------------------
	BYTE	W96
// 006   ----------------------------------------
	BYTE	W96
// 007   ----------------------------------------
	BYTE	W96
// 008   ----------------------------------------
	BYTE	W96
// 009   ----------------------------------------
	BYTE	W96
// 010   ----------------------------------------
	BYTE	W96
// 011   ----------------------------------------
	BYTE	W96
// 012   ----------------------------------------
	BYTE	W96
// 013   ----------------------------------------
	BYTE	W96
// 014   ----------------------------------------
	BYTE	W96
// 015   ----------------------------------------
	BYTE	W96
// 016   ----------------------------------------
	BYTE	W96
// 017   ----------------------------------------
	BYTE	W96
// 018   ----------------------------------------
	BYTE	W96
// 019   ----------------------------------------
	BYTE	W96
// 020   ----------------------------------------
	BYTE	W96
// 021   ----------------------------------------
	BYTE	W96
// 022   ----------------------------------------
	BYTE	W96
// 023   ----------------------------------------
	BYTE	W96
// 024   ----------------------------------------
	BYTE	W96
// 025   ----------------------------------------
	BYTE	W96
// 026   ----------------------------------------
	BYTE	W96
// 027   ----------------------------------------
	BYTE	W96
// 028   ----------------------------------------
	BYTE	W96
// 029   ----------------------------------------
	BYTE	W96
// 030   ----------------------------------------
	BYTE	W96
// 031   ----------------------------------------
	BYTE	W96
// 032   ----------------------------------------
	BYTE		N32     Dn5   v127
	BYTE	W36
	BYTE		        Cn5 
	BYTE	W36
	BYTE		N20     As4 
	BYTE	W24
// 033   ----------------------------------------
	BYTE		N11     Gn4 
	BYTE	W12
	BYTE		        Fn4 
	BYTE	W12
	BYTE		        Ds4 
	BYTE	W12
	BYTE		        Fn4 
	BYTE	W12
	BYTE		N05     Gn4 
	BYTE	W06
	BYTE		        Gs4 
	BYTE	W06
	BYTE		        Gn4 
	BYTE	W06
	BYTE		        Gs4 
	BYTE	W06
	BYTE		N20     Gn4 
	BYTE	W24
// 034   ----------------------------------------
	BYTE		N32     Gs4 
	BYTE	W36
	BYTE		        Fn4 
	BYTE	W36
	BYTE		N20     Dn4 
	BYTE	W24
// 035   ----------------------------------------
	BYTE		N11     Gn4 
	BYTE	W12
	BYTE		        Ds4 
	BYTE	W12
	BYTE		        Dn4 
	BYTE	W12
	BYTE		        Gn4 
	BYTE	W12
	BYTE		N05     As4 
	BYTE	W06
	BYTE		        Gs4 
	BYTE	W06
	BYTE		        Gn4 
	BYTE	W06
	BYTE		        Gs4 
	BYTE	W06
	BYTE		N20     As4 
	BYTE	W24
// 036   ----------------------------------------
	BYTE		N05     Gs4 
	BYTE	W06
	BYTE		        Gn4 
	BYTE	W06
	BYTE		        Gs4 
	BYTE	W06
	BYTE		        As4 
	BYTE	W06
	BYTE		        Gs4 
	BYTE	W06
	BYTE		        Gn4 
	BYTE	W06
	BYTE		        Gs4 
	BYTE	W06
	BYTE		        As4 
	BYTE	W06
	BYTE		N11     Cn5 
	BYTE	W12
	BYTE		        As4 
	BYTE	W12
	BYTE		        Gs4 
	BYTE	W12
	BYTE		        Cn5 
	BYTE	W12
// 037   ----------------------------------------
	BYTE		N05     An4 
	BYTE	W06
	BYTE		        Gn4 
	BYTE	W06
	BYTE		        An4 
	BYTE	W06
	BYTE		        As4 
	BYTE	W06
	BYTE		        An4 
	BYTE	W06
	BYTE		        Gn4 
	BYTE	W06
	BYTE		        An4 
	BYTE	W06
	BYTE		        As4 
	BYTE	W06
	BYTE		N11     Cn5 
	BYTE	W12
	BYTE		        As4 
	BYTE	W12
	BYTE		        An4 
	BYTE	W12
	BYTE		        Cn5 
	BYTE	W12
// 038   ----------------------------------------
	BYTE		N05     As4 
	BYTE	W06
	BYTE		        Cn5 
	BYTE	W06
	BYTE		N20     Dn5 
	BYTE	W24
	BYTE		N11     Ds5 
	BYTE	W12
	BYTE		N20     Fn5 
	BYTE	W24
	BYTE		N11     Ds5 
	BYTE	W12
	BYTE		N05     Fn5 
	BYTE	W06
	BYTE		        Ds5 
	BYTE	W06
// 039   ----------------------------------------
	BYTE		N20     Dn5 
	BYTE	W24
	BYTE		        Cn5 
	BYTE	W24
	BYTE		        As4 
	BYTE	W24
	BYTE		        Gs4 
	BYTE	W24
// 040   ----------------------------------------
	BYTE		N90     Gn4 
	BYTE	W90
	BYTE		VOL     127*ViolentManualFox_mvl/mxv
	BYTE	W06
// 041   ----------------------------------------
	BYTE	W96
// 042   ----------------------------------------
	BYTE	W96
// 043   ----------------------------------------
	BYTE	W96
// 044   ----------------------------------------
	BYTE	W96
// 045   ----------------------------------------
	BYTE	W96
// 046   ----------------------------------------
	BYTE	W96
// 047   ----------------------------------------
	BYTE	W90
	BYTE	GoTo
	 POIN2	ViolentManualFox_5_B1
ViolentManualFox_5_B2:
	BYTE	FINE

//**************** Track 6 (Midi-Chn.6) ****************//

ViolentManualFox_6:
	BYTE	KEYSH   ViolentManualFox_key+0
ViolentManualFox_6_B1:
// 000   ----------------------------------------
	BYTE		VOICE   49
	BYTE		MODT    0
	BYTE		LFOS    44
	BYTE		PAN     c_v+12
	BYTE		VOL     127*ViolentManualFox_mvl/mxv
	BYTE	W96
// 001   ----------------------------------------
	BYTE	W96
// 002   ----------------------------------------
	BYTE	W96
// 003   ----------------------------------------
	BYTE	W96
// 004   ----------------------------------------
	BYTE	W96
// 005   ----------------------------------------
	BYTE	W96
// 006   ----------------------------------------
	BYTE	W96
// 007   ----------------------------------------
	BYTE	W96
// 008   ----------------------------------------
	BYTE	W96
// 009   ----------------------------------------
	BYTE	W96
// 010   ----------------------------------------
	BYTE	W96
// 011   ----------------------------------------
	BYTE	W96
// 012   ----------------------------------------
	BYTE	W96
// 013   ----------------------------------------
	BYTE	W96
// 014   ----------------------------------------
	BYTE	W96
// 015   ----------------------------------------
	BYTE	W96
// 016   ----------------------------------------
	BYTE	W96
// 017   ----------------------------------------
	BYTE	W96
// 018   ----------------------------------------
	BYTE	W96
// 019   ----------------------------------------
	BYTE	W96
// 020   ----------------------------------------
	BYTE	W96
// 021   ----------------------------------------
	BYTE	W96
// 022   ----------------------------------------
	BYTE	W96
// 023   ----------------------------------------
	BYTE	W96
// 024   ----------------------------------------
	BYTE	W96
// 025   ----------------------------------------
	BYTE	W96
// 026   ----------------------------------------
	BYTE	W96
// 027   ----------------------------------------
	BYTE	W96
// 028   ----------------------------------------
	BYTE	W96
// 029   ----------------------------------------
	BYTE	W96
// 030   ----------------------------------------
	BYTE	W96
// 031   ----------------------------------------
	BYTE	W96
// 032   ----------------------------------------
	BYTE	W96
// 033   ----------------------------------------
	BYTE	W96
// 034   ----------------------------------------
	BYTE	W96
// 035   ----------------------------------------
	BYTE	W96
// 036   ----------------------------------------
	BYTE	W96
// 037   ----------------------------------------
	BYTE	W96
// 038   ----------------------------------------
	BYTE	W96
// 039   ----------------------------------------
	BYTE	W96
// 040   ----------------------------------------
ViolentManualFox_6_040:
	BYTE		N12     Cn4   v127
	BYTE	W12
	BYTE		N24     Cn5 
	BYTE	W24
	BYTE		N12     Cn4 
	BYTE	W12
	BYTE		N24     As4 
	BYTE	W24
	BYTE		N12     Cn4 
	BYTE	W12
	BYTE		N24     Gs4 
	BYTE	W12
	BYTE	PEND
// 041   ----------------------------------------
ViolentManualFox_6_041:
	BYTE	W12
	BYTE		N12     Cn4   v127
	BYTE	W12
	BYTE		N24     Gn4 
	BYTE	W24
	BYTE		N12     Cn4 
	BYTE	W12
	BYTE		N24     Fn4 
	BYTE	W24
	BYTE		N12     Ds4 
	BYTE	W12
	BYTE	PEND
// 042   ----------------------------------------
	BYTE	PATT
	 POIN2	ViolentManualFox_6_040
// 043   ----------------------------------------
	BYTE	PATT
	 POIN2	ViolentManualFox_6_041
// 044   ----------------------------------------
	BYTE	PATT
	 POIN2	ViolentManualFox_6_040
// 045   ----------------------------------------
	BYTE	PATT
	 POIN2	ViolentManualFox_6_041
// 046   ----------------------------------------
	BYTE	PATT
	 POIN2	ViolentManualFox_6_040
// 047   ----------------------------------------
	BYTE	W12
	BYTE		N12     Cn4   v127
	BYTE	W12
	BYTE		N66   
	BYTE		N66     Ds4 
	BYTE		N66     Gn4 
	BYTE	W66
	BYTE	GoTo
	 POIN2	ViolentManualFox_6_B1
ViolentManualFox_6_B2:
	BYTE		VOL     127*ViolentManualFox_mvl/mxv
	BYTE	FINE

//**************** Track 7 (Midi-Chn.7) ****************//

ViolentManualFox_7:
	BYTE	KEYSH   ViolentManualFox_key+0
ViolentManualFox_7_B1:
// 000   ----------------------------------------
	BYTE		VOICE   124
	BYTE		MODT    0
	BYTE		LFOS    44
	BYTE		PAN     c_v-1
	BYTE		VOL     127*ViolentManualFox_mvl/mxv
	BYTE		N05     Fs1   v127
	BYTE	W06
	BYTE		N05   
	BYTE	W06
	BYTE		N05   
	BYTE	W06
	BYTE		N05   
	BYTE	W06
	BYTE		N05   
	BYTE	W06
	BYTE		N05   
	BYTE	W06
	BYTE		N05   
	BYTE	W06
	BYTE		N05   
	BYTE	W06
	BYTE		N05   
	BYTE	W06
	BYTE		N05   
	BYTE	W06
	BYTE		        Gs1 
	BYTE	W06
	BYTE		        Fs1 
	BYTE	W06
	BYTE		N05   
	BYTE	W06
	BYTE		N05   
	BYTE	W06
	BYTE		        Gs1 
	BYTE	W06
	BYTE		        Fs1 
	BYTE	W06
// 001   ----------------------------------------
ViolentManualFox_7_001:
	BYTE		N05     Fs1   v127
	BYTE	W06
	BYTE		N05   
	BYTE	W06
	BYTE		N05   
	BYTE	W06
	BYTE		N05   
	BYTE	W06
	BYTE		N05   
	BYTE	W06
	BYTE		N05   
	BYTE	W06
	BYTE		N05   
	BYTE	W06
	BYTE		N05   
	BYTE	W06
	BYTE		N05   
	BYTE	W06
	BYTE		N05   
	BYTE	W06
	BYTE		        Gs1 
	BYTE	W06
	BYTE		        Fs1 
	BYTE	W06
	BYTE		N05   
	BYTE	W06
	BYTE		N05   
	BYTE	W06
	BYTE		        Gs1 
	BYTE	W06
	BYTE		        Fs1 
	BYTE	W06
	BYTE	PEND
// 002   ----------------------------------------
	BYTE	PATT
	 POIN2	ViolentManualFox_7_001
// 003   ----------------------------------------
	BYTE	PATT
	 POIN2	ViolentManualFox_7_001
// 004   ----------------------------------------
ViolentManualFox_7_004:
	BYTE		N05     Bn0   v127
	BYTE		N05     Fs1 
	BYTE	W06
	BYTE		N05   
	BYTE	W06
	BYTE		N05   
	BYTE	W06
	BYTE		N05   
	BYTE	W06
	BYTE		        Bn0 
	BYTE		N05     Fs1 
	BYTE	W06
	BYTE		N05   
	BYTE	W06
	BYTE		N05   
	BYTE	W06
	BYTE		N05   
	BYTE	W06
	BYTE		        Bn0 
	BYTE		N05     Fs1 
	BYTE	W06
	BYTE		N05   
	BYTE	W06
	BYTE		        Gs1 
	BYTE	W06
	BYTE		        Bn0 
	BYTE		N05     Fs1 
	BYTE	W06
	BYTE		        Dn1 
	BYTE		N05     En1 
	BYTE		N05     Fs1 
	BYTE	W06
	BYTE		N05   
	BYTE	W06
	BYTE		        Bn0 
	BYTE		N05     Gs1 
	BYTE	W06
	BYTE		        Fs1 
	BYTE	W06
	BYTE	PEND
// 005   ----------------------------------------
	BYTE	PATT
	 POIN2	ViolentManualFox_7_004
// 006   ----------------------------------------
	BYTE	PATT
	 POIN2	ViolentManualFox_7_004
// 007   ----------------------------------------
ViolentManualFox_7_007:
	BYTE		N05     Bn0   v127
	BYTE		N05     Fs1 
	BYTE	W06
	BYTE		N05   
	BYTE	W06
	BYTE		N05   
	BYTE	W06
	BYTE		N05   
	BYTE	W06
	BYTE		        Bn0 
	BYTE		N05     Fs1 
	BYTE	W06
	BYTE		N05   
	BYTE	W06
	BYTE		N05   
	BYTE	W06
	BYTE		N05   
	BYTE	W06
	BYTE		        Bn0 
	BYTE		N05     Fs1 
	BYTE	W06
	BYTE		N05   
	BYTE	W06
	BYTE		        Gs1 
	BYTE	W06
	BYTE		        Bn0 
	BYTE		N05     Fs1 
	BYTE	W06
	BYTE		        Dn1 
	BYTE		N05     En1 
	BYTE		N05     Fs1 
	BYTE	W06
	BYTE		N05   
	BYTE	W06
	BYTE		        Dn1 
	BYTE		N05     En1 
	BYTE		N05     Fs1 
	BYTE	W06
	BYTE		        Dn1 
	BYTE		N05     En1 
	BYTE		N05     Fs1 
	BYTE	W06
	BYTE	PEND
// 008   ----------------------------------------
ViolentManualFox_7_008:
	BYTE		N05     Bn0   v127
	BYTE		N05     Fs1 
	BYTE		N05     An2 
	BYTE	W06
	BYTE		        Fs1 
	BYTE	W06
	BYTE		N05   
	BYTE	W06
	BYTE		N05   
	BYTE	W06
	BYTE		        Dn1 
	BYTE		N05     En1 
	BYTE		N05     Fs1 
	BYTE	W06
	BYTE		N05   
	BYTE	W06
	BYTE		N05   
	BYTE	W06
	BYTE		N05   
	BYTE	W06
	BYTE		        Bn0 
	BYTE		N05     Fs1 
	BYTE	W06
	BYTE		N05   
	BYTE	W06
	BYTE		N05   
	BYTE	W06
	BYTE		N05   
	BYTE	W06
	BYTE		        Dn1 
	BYTE		N05     En1 
	BYTE		N05     Fs1 
	BYTE	W06
	BYTE		N05   
	BYTE	W06
	BYTE		N05   
	BYTE	W06
	BYTE		N05   
	BYTE	W06
	BYTE	PEND
// 009   ----------------------------------------
ViolentManualFox_7_009:
	BYTE		N05     Bn0   v127
	BYTE		N05     Fs1 
	BYTE	W06
	BYTE		N05   
	BYTE	W06
	BYTE		N05   
	BYTE	W06
	BYTE		N05   
	BYTE	W06
	BYTE		        Dn1 
	BYTE		N05     En1 
	BYTE		N05     Fs1 
	BYTE	W06
	BYTE		N05   
	BYTE	W06
	BYTE		N05   
	BYTE	W06
	BYTE		N05   
	BYTE	W06
	BYTE		        Bn0 
	BYTE		N05     Fs1 
	BYTE	W06
	BYTE		N05   
	BYTE	W06
	BYTE		N05   
	BYTE	W06
	BYTE		N05   
	BYTE	W06
	BYTE		        Dn1 
	BYTE		N05     En1 
	BYTE		N05     Fs1 
	BYTE	W06
	BYTE		N05   
	BYTE	W06
	BYTE		N05   
	BYTE	W06
	BYTE		N05   
	BYTE	W06
	BYTE	PEND
// 010   ----------------------------------------
	BYTE	PATT
	 POIN2	ViolentManualFox_7_009
// 011   ----------------------------------------
	BYTE	PATT
	 POIN2	ViolentManualFox_7_009
// 012   ----------------------------------------
	BYTE	PATT
	 POIN2	ViolentManualFox_7_009
// 013   ----------------------------------------
	BYTE	PATT
	 POIN2	ViolentManualFox_7_009
// 014   ----------------------------------------
	BYTE	PATT
	 POIN2	ViolentManualFox_7_009
// 015   ----------------------------------------
	BYTE	PATT
	 POIN2	ViolentManualFox_7_009
// 016   ----------------------------------------
	BYTE	PATT
	 POIN2	ViolentManualFox_7_009
// 017   ----------------------------------------
	BYTE	PATT
	 POIN2	ViolentManualFox_7_009
// 018   ----------------------------------------
	BYTE	PATT
	 POIN2	ViolentManualFox_7_009
// 019   ----------------------------------------
	BYTE	PATT
	 POIN2	ViolentManualFox_7_009
// 020   ----------------------------------------
	BYTE	PATT
	 POIN2	ViolentManualFox_7_009
// 021   ----------------------------------------
	BYTE	PATT
	 POIN2	ViolentManualFox_7_009
// 022   ----------------------------------------
	BYTE	PATT
	 POIN2	ViolentManualFox_7_009
// 023   ----------------------------------------
	BYTE		N05     Bn0   v127
	BYTE		N05     Fs1 
	BYTE	W06
	BYTE		N05   
	BYTE	W06
	BYTE		N05   
	BYTE	W06
	BYTE		N05   
	BYTE	W06
	BYTE		        Dn1 
	BYTE		N05     En1 
	BYTE		N05     Fs1 
	BYTE	W06
	BYTE		N05   
	BYTE	W06
	BYTE		N05   
	BYTE	W06
	BYTE		N05   
	BYTE	W06
	BYTE		        Bn0 
	BYTE		N05     Fs1 
	BYTE	W06
	BYTE		N05   
	BYTE	W06
	BYTE		N05   
	BYTE	W06
	BYTE		N05   
	BYTE	W06
	BYTE		        Dn1 
	BYTE		N05     En1 
	BYTE		N05     Fs1 
	BYTE	W06
	BYTE		N05   
	BYTE	W06
	BYTE		        Dn1 
	BYTE		N05     En1 
	BYTE		N05     Fs1 
	BYTE	W06
	BYTE		        Dn1 
	BYTE		N05     En1 
	BYTE		N05     Fs1 
	BYTE	W06
// 024   ----------------------------------------
	BYTE		        Bn0 
	BYTE		N05     Fs1 
	BYTE		N05     An2 
	BYTE	W06
	BYTE		        Fs1 
	BYTE	W06
	BYTE		N05   
	BYTE	W06
	BYTE		N05   
	BYTE	W06
	BYTE		        Bn0 
	BYTE		N05     Fs1 
	BYTE	W06
	BYTE		N05   
	BYTE	W06
	BYTE		N05   
	BYTE	W06
	BYTE		N05   
	BYTE	W06
	BYTE		        Bn0 
	BYTE		N05     Fs1 
	BYTE	W06
	BYTE		N05   
	BYTE	W06
	BYTE		        Gs1 
	BYTE	W06
	BYTE		        Bn0 
	BYTE		N05     Fs1 
	BYTE	W06
	BYTE		        Dn1 
	BYTE		N05     En1 
	BYTE		N05     Fs1 
	BYTE	W06
	BYTE		N05   
	BYTE	W06
	BYTE		        Bn0 
	BYTE		N05     Gs1 
	BYTE	W06
	BYTE		        Fs1 
	BYTE	W06
// 025   ----------------------------------------
	BYTE	PATT
	 POIN2	ViolentManualFox_7_004
// 026   ----------------------------------------
	BYTE	PATT
	 POIN2	ViolentManualFox_7_004
// 027   ----------------------------------------
	BYTE	PATT
	 POIN2	ViolentManualFox_7_007
// 028   ----------------------------------------
	BYTE	PATT
	 POIN2	ViolentManualFox_7_004
// 029   ----------------------------------------
	BYTE	PATT
	 POIN2	ViolentManualFox_7_004
// 030   ----------------------------------------
	BYTE	PATT
	 POIN2	ViolentManualFox_7_004
// 031   ----------------------------------------
	BYTE	PATT
	 POIN2	ViolentManualFox_7_007
// 032   ----------------------------------------
	BYTE	PATT
	 POIN2	ViolentManualFox_7_008
// 033   ----------------------------------------
	BYTE	PATT
	 POIN2	ViolentManualFox_7_009
// 034   ----------------------------------------
	BYTE	PATT
	 POIN2	ViolentManualFox_7_009
// 035   ----------------------------------------
	BYTE	PATT
	 POIN2	ViolentManualFox_7_009
// 036   ----------------------------------------
	BYTE	PATT
	 POIN2	ViolentManualFox_7_009
// 037   ----------------------------------------
	BYTE	PATT
	 POIN2	ViolentManualFox_7_009
// 038   ----------------------------------------
	BYTE	PATT
	 POIN2	ViolentManualFox_7_009
// 039   ----------------------------------------
	BYTE	PATT
	 POIN2	ViolentManualFox_7_009
// 040   ----------------------------------------
	BYTE		N90     An2   v127
	BYTE	W90
	BYTE		VOL     127*ViolentManualFox_mvl/mxv
	BYTE	W06
// 041   ----------------------------------------
	BYTE	W96
// 042   ----------------------------------------
	BYTE	W96
// 043   ----------------------------------------
	BYTE	W96
// 044   ----------------------------------------
	BYTE	W96
// 045   ----------------------------------------
	BYTE	W96
// 046   ----------------------------------------
	BYTE	W96
// 047   ----------------------------------------
	BYTE	W90
	BYTE	GoTo
	 POIN2	ViolentManualFox_7_B1
ViolentManualFox_7_B2:
	BYTE	FINE

//******************************************************//
	ALIGN 4

ViolentManualFox:
	BYTE	7	// NumTrks
	BYTE	0	// NumBlks
	BYTE	ViolentManualFox_pri	// Priority
	BYTE	ViolentManualFox_rev	// Reverb.

	POIN2	ViolentManualFox_grp

	POIN2	ViolentManualFox_1
	POIN2	ViolentManualFox_2
	POIN2	ViolentManualFox_3
	POIN2	ViolentManualFox_4
	POIN2	ViolentManualFox_5
	POIN2	ViolentManualFox_6
	POIN2	ViolentManualFox_7

	
