//Event file generated from Sappy .s format.
	#include "MPlayDef.event"

	#define	ToProtectYou_FINAL_grp  voicegroup000
	#define	ToProtectYou_FINAL_pri  0
	#define	ToProtectYou_FINAL_rev  94
	#define	ToProtectYou_FINAL_mvl  30
	#define	ToProtectYou_FINAL_key  0
	#define	ToProtectYou_FINAL_tbs  1
	#define	ToProtectYou_FINAL_exg  0
	#define	ToProtectYou_FINAL_cmp  1

	// .rodata
	//	ToProtectYou_FINAL
	ALIGN 4

//**************** Track 1 (Midi-Chn.1) ****************//

ToProtectYou_FINAL_1:
	BYTE	KEYSH   ToProtectYou_FINAL_key+0
ToProtectYou_FINAL_1_B1:
// 000   ----------------------------------------
	BYTE	TEMPO   140*ToProtectYou_FINAL_tbs/2
	BYTE		VOICE   31
	BYTE		MODT    0
	BYTE		LFOS    44
	BYTE		VOL     122*ToProtectYou_FINAL_mvl/mxv
	BYTE		PAN     c_v+0
	BYTE		N11     Fn0   v100
	BYTE	W12
	BYTE		        Cs0 
	BYTE	W12
	BYTE		N11   
	BYTE	W12
	BYTE		N11   
	BYTE	W24
	BYTE		N05     Ds0 
	BYTE	W06
	BYTE		N11   
	BYTE	W12
	BYTE		N05   
	BYTE	W06
	BYTE		N11   
	BYTE	W12
// 001   ----------------------------------------
ToProtectYou_FINAL_1_001:
	BYTE		N11     Ds0   v100
	BYTE	W12
	BYTE		        Cs0 
	BYTE	W12
	BYTE		N11   
	BYTE	W12
	BYTE		N11   
	BYTE	W24
	BYTE		N05   
	BYTE	W06
	BYTE		N11   
	BYTE	W12
	BYTE		N05   
	BYTE	W06
	BYTE		N11   
	BYTE	W12
	BYTE	PEND
// 002   ----------------------------------------
	BYTE		N11   
	BYTE	W12
	BYTE		N11   
	BYTE	W12
	BYTE		N11   
	BYTE	W12
	BYTE		N11   
	BYTE	W24
	BYTE		N05     Ds0 
	BYTE	W06
	BYTE		N11   
	BYTE	W12
	BYTE		N05   
	BYTE	W06
	BYTE		N11   
	BYTE	W12
// 003   ----------------------------------------
	BYTE		N11   
	BYTE	W12
	BYTE		        Gs0 
	BYTE	W12
	BYTE		N11   
	BYTE	W12
	BYTE		N11   
	BYTE	W24
	BYTE		N05     Gn0 
	BYTE	W06
	BYTE		N11   
	BYTE	W12
	BYTE		N05   
	BYTE	W06
	BYTE		N11   
	BYTE	W12
// 004   ----------------------------------------
	BYTE		N11   
	BYTE	W12
	BYTE		        Fn0 
	BYTE	W12
	BYTE		N11   
	BYTE	W12
	BYTE		N11   
	BYTE	W24
	BYTE		N05   
	BYTE	W06
	BYTE		N11   
	BYTE	W12
	BYTE		N05   
	BYTE	W06
	BYTE		N11   
	BYTE	W12
// 005   ----------------------------------------
	BYTE		N11   
	BYTE	W12
	BYTE		        Cs0 
	BYTE	W12
	BYTE		N11   
	BYTE	W12
	BYTE		N11   
	BYTE	W24
	BYTE		N05   
	BYTE	W06
	BYTE		N11   
	BYTE	W12
	BYTE		N05   
	BYTE	W06
	BYTE		N11   
	BYTE	W12
// 006   ----------------------------------------
	BYTE		N11   
	BYTE	W12
	BYTE		N11   
	BYTE	W12
	BYTE		N11   
	BYTE	W12
	BYTE		N11   
	BYTE	W24
	BYTE		N05   
	BYTE	W06
	BYTE		N11   
	BYTE	W12
	BYTE		N05   
	BYTE	W06
	BYTE		N11   
	BYTE	W12
// 007   ----------------------------------------
	BYTE		N11   
	BYTE	W12
	BYTE		        Ds0 
	BYTE	W12
	BYTE		N11   
	BYTE	W12
	BYTE		N11   
	BYTE	W24
	BYTE		N05   
	BYTE	W06
	BYTE		N11   
	BYTE	W12
	BYTE		N05   
	BYTE	W06
	BYTE		N11   
	BYTE	W12
// 008   ----------------------------------------
	BYTE		N11   
	BYTE	W12
	BYTE		        Gs0 
	BYTE	W12
	BYTE		N11   
	BYTE	W12
	BYTE		N11   
	BYTE	W24
	BYTE		N17   
	BYTE	W18
	BYTE		N05   
	BYTE	W06
	BYTE		N11   
	BYTE	W12
// 009   ----------------------------------------
ToProtectYou_FINAL_1_009:
	BYTE		N11     Gn0   v100
	BYTE	W12
	BYTE		        Fn0 
	BYTE	W12
	BYTE		N11   
	BYTE	W12
	BYTE		N11   
	BYTE	W24
	BYTE		N17   
	BYTE	W18
	BYTE		N05   
	BYTE	W06
	BYTE		N11   
	BYTE	W12
	BYTE	PEND
// 010   ----------------------------------------
ToProtectYou_FINAL_1_010:
	BYTE		N11     Ds0   v100
	BYTE	W12
	BYTE		        Cs0 
	BYTE	W12
	BYTE		N11   
	BYTE	W12
	BYTE		N11   
	BYTE	W24
	BYTE		N17   
	BYTE	W18
	BYTE		N05     Ds0 
	BYTE	W06
	BYTE		N11     Fn0 
	BYTE	W12
	BYTE	PEND
// 011   ----------------------------------------
ToProtectYou_FINAL_1_011:
	BYTE		N11     Cs0   v100
	BYTE	W12
	BYTE		        Ds0 
	BYTE	W12
	BYTE		N11   
	BYTE	W12
	BYTE		N11   
	BYTE	W24
	BYTE		N17   
	BYTE	W18
	BYTE		N05     Fn0 
	BYTE	W06
	BYTE		N11     Gn0 
	BYTE	W12
	BYTE	PEND
// 012   ----------------------------------------
	BYTE		        As0 
	BYTE	W12
	BYTE		        Gs0 
	BYTE	W12
	BYTE		N11   
	BYTE	W12
	BYTE		N11   
	BYTE	W24
	BYTE		N17   
	BYTE	W18
	BYTE		N05   
	BYTE	W06
	BYTE		N11   
	BYTE	W12
// 013   ----------------------------------------
	BYTE	PATT
	 POIN2	ToProtectYou_FINAL_1_009
// 014   ----------------------------------------
	BYTE	PATT
	 POIN2	ToProtectYou_FINAL_1_010
// 015   ----------------------------------------
	BYTE	PATT
	 POIN2	ToProtectYou_FINAL_1_011
// 016   ----------------------------------------
	BYTE		N11     As0   v100
	BYTE	W12
	BYTE		N20     Fn0 
	BYTE	W24
	BYTE		N20   
	BYTE	W24
	BYTE		N20   
	BYTE	W24
	BYTE		N20   
	BYTE	W12
// 017   ----------------------------------------
	BYTE	W12
	BYTE		        Ds0 
	BYTE	W24
	BYTE		N20   
	BYTE	W24
	BYTE		        Fn0 
	BYTE	W24
	BYTE		N20   
	BYTE	W12
// 018   ----------------------------------------
	BYTE	W12
	BYTE		        Ds0 
	BYTE	W24
	BYTE		N20   
	BYTE	W24
	BYTE		        Cs0 
	BYTE	W24
	BYTE		N20   
	BYTE	W12
// 019   ----------------------------------------
	BYTE	W12
	BYTE		        Fn0 
	BYTE	W24
	BYTE		N20   
	BYTE	W24
	BYTE		        En0 
	BYTE	W24
	BYTE		N20   
	BYTE	W12
// 020   ----------------------------------------
	BYTE	W12
	BYTE		N11     Fn0 
	BYTE	W12
	BYTE		        Cn0 
	BYTE	W12
	BYTE		        Fn0 
	BYTE	W12
	BYTE		        Cn0 
	BYTE	W12
	BYTE		        Fn0 
	BYTE	W12
	BYTE		        Cs0 
	BYTE	W12
	BYTE		        Fn0 
	BYTE	W12
// 021   ----------------------------------------
	BYTE		        Cs0 
	BYTE	W12
	BYTE		        Ds0 
	BYTE	W12
	BYTE		        Cn0 
	BYTE	W12
	BYTE		        Ds0 
	BYTE	W12
	BYTE		        Cn0 
	BYTE	W12
	BYTE		        Fn0 
	BYTE	W12
	BYTE		        Cs0 
	BYTE	W12
	BYTE		        Fn0 
	BYTE	W12
// 022   ----------------------------------------
	BYTE		        Cs0 
	BYTE	W12
	BYTE		        Ds0 
	BYTE	W12
	BYTE		        Cn0 
	BYTE	W12
	BYTE		        Ds0 
	BYTE	W12
	BYTE		        Cn0 
	BYTE	W12
	BYTE		        Cs0 
	BYTE	W12
	BYTE		        AsM1
	BYTE	W12
	BYTE		        Cs0 
	BYTE	W12
// 023   ----------------------------------------
	BYTE		        AsM1
	BYTE	W12
	BYTE		        Fn0 
	BYTE	W12
	BYTE		        Cn0 
	BYTE	W12
	BYTE		        Fn0 
	BYTE	W12
	BYTE		        Cn0 
	BYTE	W12
	BYTE		        En0 
	BYTE	W12
	BYTE		        Cn0 
	BYTE	W12
	BYTE		        En0 
	BYTE	W12
// 024   ----------------------------------------
	BYTE		        Cn0 
	BYTE	W12
	BYTE		        Cs0 
	BYTE	W12
	BYTE		N11   
	BYTE	W12
	BYTE		N11   
	BYTE	W24
	BYTE		N05     Ds0 
	BYTE	W06
	BYTE		N11   
	BYTE	W12
	BYTE		N05   
	BYTE	W06
	BYTE		N11   
	BYTE	W12
// 025   ----------------------------------------
	BYTE	PATT
	 POIN2	ToProtectYou_FINAL_1_001
// 026   ----------------------------------------
	BYTE	W30
	BYTE	GoTo
	 POIN2	ToProtectYou_FINAL_1_B1
ToProtectYou_FINAL_1_B2:
	BYTE	FINE

//**************** Track 2 (Midi-Chn.2) ****************//

ToProtectYou_FINAL_2:
	BYTE	KEYSH   ToProtectYou_FINAL_key+0
ToProtectYou_FINAL_2_B1:
// 000   ----------------------------------------
	BYTE		VOICE   30
	BYTE		MODT    0
	BYTE		LFOS    44
	BYTE		VOL     124*ToProtectYou_FINAL_mvl/mxv
	BYTE		PAN     c_v-19
	BYTE		N11     Ds1   v100
	BYTE	W12
	BYTE		        Cs1 
	BYTE	W12
	BYTE		N05   
	BYTE	W06
	BYTE		N05   
	BYTE	W06
	BYTE		N11   
	BYTE	W12
	BYTE		N05   
	BYTE	W06
	BYTE		N05   
	BYTE	W06
	BYTE		N11     Ds1 
	BYTE	W12
	BYTE		N05   
	BYTE	W06
	BYTE		N05   
	BYTE	W06
	BYTE		N11   
	BYTE	W12
// 001   ----------------------------------------
ToProtectYou_FINAL_2_001:
	BYTE		N05     Ds1   v100
	BYTE	W06
	BYTE		N05   
	BYTE	W06
	BYTE		N11     Cs1 
	BYTE	W12
	BYTE		N05   
	BYTE	W06
	BYTE		N05   
	BYTE	W06
	BYTE		N11   
	BYTE	W12
	BYTE		N05   
	BYTE	W06
	BYTE		N05   
	BYTE	W06
	BYTE		N11   
	BYTE	W12
	BYTE		N05   
	BYTE	W06
	BYTE		N05   
	BYTE	W06
	BYTE		N11   
	BYTE	W12
	BYTE	PEND
// 002   ----------------------------------------
ToProtectYou_FINAL_2_002:
	BYTE		N05     Cs1   v100
	BYTE	W06
	BYTE		N05   
	BYTE	W06
	BYTE		N11   
	BYTE	W12
	BYTE		N05   
	BYTE	W06
	BYTE		N05   
	BYTE	W06
	BYTE		N11   
	BYTE	W12
	BYTE		N05   
	BYTE	W06
	BYTE		N05   
	BYTE	W06
	BYTE		N11     Ds1 
	BYTE	W12
	BYTE		N05   
	BYTE	W06
	BYTE		N05   
	BYTE	W06
	BYTE		N11   
	BYTE	W12
	BYTE	PEND
// 003   ----------------------------------------
ToProtectYou_FINAL_2_003:
	BYTE		N05     Ds1   v100
	BYTE	W06
	BYTE		N05   
	BYTE	W06
	BYTE		N11     Gs1 
	BYTE	W12
	BYTE		N05   
	BYTE	W06
	BYTE		N05   
	BYTE	W06
	BYTE		N11   
	BYTE	W12
	BYTE		N05   
	BYTE	W06
	BYTE		N05   
	BYTE	W06
	BYTE		N11     Gn1 
	BYTE	W12
	BYTE		N05   
	BYTE	W06
	BYTE		N05   
	BYTE	W06
	BYTE		N11   
	BYTE	W12
	BYTE	PEND
// 004   ----------------------------------------
ToProtectYou_FINAL_2_004:
	BYTE		N05     Gn1   v100
	BYTE	W06
	BYTE		N05   
	BYTE	W06
	BYTE		N11     Fn1 
	BYTE	W12
	BYTE		N05   
	BYTE	W06
	BYTE		N05   
	BYTE	W06
	BYTE		N11   
	BYTE	W12
	BYTE		N05   
	BYTE	W06
	BYTE		N05   
	BYTE	W06
	BYTE		N11   
	BYTE	W12
	BYTE		N05   
	BYTE	W06
	BYTE		N05   
	BYTE	W06
	BYTE		N11   
	BYTE	W12
	BYTE	PEND
// 005   ----------------------------------------
ToProtectYou_FINAL_2_005:
	BYTE		N05     Fn1   v100
	BYTE	W06
	BYTE		N05   
	BYTE	W06
	BYTE		N11     Cs1 
	BYTE	W12
	BYTE		N05   
	BYTE	W06
	BYTE		N05   
	BYTE	W06
	BYTE		N11   
	BYTE	W12
	BYTE		N05   
	BYTE	W06
	BYTE		N05   
	BYTE	W06
	BYTE		N11   
	BYTE	W12
	BYTE		N05   
	BYTE	W06
	BYTE		N05   
	BYTE	W06
	BYTE		N11   
	BYTE	W12
	BYTE	PEND
// 006   ----------------------------------------
ToProtectYou_FINAL_2_006:
	BYTE		N05     Cs1   v100
	BYTE	W06
	BYTE		N05   
	BYTE	W06
	BYTE		N11     As0 
	BYTE	W12
	BYTE		N05   
	BYTE	W06
	BYTE		N05   
	BYTE	W06
	BYTE		N11   
	BYTE	W12
	BYTE		N05   
	BYTE	W06
	BYTE		N05   
	BYTE	W06
	BYTE		N11   
	BYTE	W12
	BYTE		N05   
	BYTE	W06
	BYTE		N05   
	BYTE	W06
	BYTE		N11   
	BYTE	W12
	BYTE	PEND
// 007   ----------------------------------------
ToProtectYou_FINAL_2_007:
	BYTE		N05     As0   v100
	BYTE	W06
	BYTE		N05   
	BYTE	W06
	BYTE		N11     Ds1 
	BYTE	W12
	BYTE		N05   
	BYTE	W06
	BYTE		N05   
	BYTE	W06
	BYTE		N11   
	BYTE	W12
	BYTE		N05   
	BYTE	W06
	BYTE		N05   
	BYTE	W06
	BYTE		N11   
	BYTE	W12
	BYTE		N05   
	BYTE	W06
	BYTE		N05   
	BYTE	W06
	BYTE		N11   
	BYTE	W12
	BYTE	PEND
// 008   ----------------------------------------
ToProtectYou_FINAL_2_008:
	BYTE		N05     Ds1   v100
	BYTE	W06
	BYTE		N05   
	BYTE	W06
	BYTE		N11     Gs1 
	BYTE	W12
	BYTE		N05   
	BYTE	W06
	BYTE		N05   
	BYTE	W06
	BYTE		N11   
	BYTE	W12
	BYTE		N05   
	BYTE	W06
	BYTE		N05   
	BYTE	W06
	BYTE		N11   
	BYTE	W12
	BYTE		N05   
	BYTE	W06
	BYTE		N05   
	BYTE	W06
	BYTE		N11   
	BYTE	W12
	BYTE	PEND
// 009   ----------------------------------------
ToProtectYou_FINAL_2_009:
	BYTE		N05     Gs1   v100
	BYTE	W06
	BYTE		N05   
	BYTE	W06
	BYTE		N11     Fn1 
	BYTE	W12
	BYTE		N05   
	BYTE	W06
	BYTE		N05   
	BYTE	W06
	BYTE		N11   
	BYTE	W12
	BYTE		N05   
	BYTE	W06
	BYTE		N05   
	BYTE	W06
	BYTE		N11   
	BYTE	W12
	BYTE		N05   
	BYTE	W06
	BYTE		N05   
	BYTE	W06
	BYTE		N11   
	BYTE	W12
	BYTE	PEND
// 010   ----------------------------------------
	BYTE	PATT
	 POIN2	ToProtectYou_FINAL_2_005
// 011   ----------------------------------------
ToProtectYou_FINAL_2_011:
	BYTE		N05     Cs1   v100
	BYTE	W06
	BYTE		N05   
	BYTE	W06
	BYTE		N11     Ds1 
	BYTE	W12
	BYTE		N05   
	BYTE	W06
	BYTE		N05   
	BYTE	W06
	BYTE		N11   
	BYTE	W12
	BYTE		N05   
	BYTE	W06
	BYTE		N05   
	BYTE	W06
	BYTE		N11   
	BYTE	W12
	BYTE		N05   
	BYTE	W06
	BYTE		N05   
	BYTE	W06
	BYTE		N11   
	BYTE	W12
	BYTE	PEND
// 012   ----------------------------------------
	BYTE	PATT
	 POIN2	ToProtectYou_FINAL_2_008
// 013   ----------------------------------------
	BYTE	PATT
	 POIN2	ToProtectYou_FINAL_2_009
// 014   ----------------------------------------
	BYTE	PATT
	 POIN2	ToProtectYou_FINAL_2_005
// 015   ----------------------------------------
	BYTE	PATT
	 POIN2	ToProtectYou_FINAL_2_011
// 016   ----------------------------------------
	BYTE		N05     Ds1   v100
	BYTE	W06
	BYTE		N05   
	BYTE	W06
	BYTE		N11     Cs1 
	BYTE	W12
	BYTE		N05   
	BYTE	W06
	BYTE		N05   
	BYTE	W06
	BYTE		N11   
	BYTE	W12
	BYTE		N05   
	BYTE	W06
	BYTE		N05   
	BYTE	W06
	BYTE		N11     Ds1 
	BYTE	W12
	BYTE		N05   
	BYTE	W06
	BYTE		N05   
	BYTE	W06
	BYTE		N11   
	BYTE	W12
// 017   ----------------------------------------
	BYTE	PATT
	 POIN2	ToProtectYou_FINAL_2_001
// 018   ----------------------------------------
	BYTE	PATT
	 POIN2	ToProtectYou_FINAL_2_002
// 019   ----------------------------------------
	BYTE	PATT
	 POIN2	ToProtectYou_FINAL_2_003
// 020   ----------------------------------------
	BYTE	PATT
	 POIN2	ToProtectYou_FINAL_2_004
// 021   ----------------------------------------
	BYTE	PATT
	 POIN2	ToProtectYou_FINAL_2_005
// 022   ----------------------------------------
	BYTE	PATT
	 POIN2	ToProtectYou_FINAL_2_006
// 023   ----------------------------------------
	BYTE	PATT
	 POIN2	ToProtectYou_FINAL_2_007
// 024   ----------------------------------------
	BYTE		N05     Ds1   v100
	BYTE	W06
	BYTE		N05   
	BYTE	W90
// 025   ----------------------------------------
	BYTE	W96
// 026   ----------------------------------------
	BYTE	W30
	BYTE	GoTo
	 POIN2	ToProtectYou_FINAL_2_B1
ToProtectYou_FINAL_2_B2:
	BYTE	FINE

//**************** Track 3 (Midi-Chn.3) ****************//

ToProtectYou_FINAL_3:
	BYTE	KEYSH   ToProtectYou_FINAL_key+0
ToProtectYou_FINAL_3_B1:
// 000   ----------------------------------------
	BYTE		VOICE   19
	BYTE		MODT    0
	BYTE		LFOS    44
	BYTE		PAN     c_v+21
	BYTE		VOL     127*ToProtectYou_FINAL_mvl/mxv
	BYTE	W12
	BYTE		N20     Gs3   v100
	BYTE	W24
	BYTE		N11     Fn3 
	BYTE	W12
	BYTE		        Gs3 
	BYTE	W12
	BYTE		N17     Gn3 
	BYTE	W18
	BYTE		N05     Fn3 
	BYTE	W06
	BYTE		N11     Ds3 
	BYTE	W12
// 001   ----------------------------------------
	BYTE		        Gn3 
	BYTE	W12
	BYTE		N20     Fn3 
	BYTE	W24
	BYTE		N66     Cs3 
	BYTE	W60
// 002   ----------------------------------------
	BYTE	W12
	BYTE		N20     Gs3 
	BYTE	W24
	BYTE		N11     Cn4 
	BYTE	W12
	BYTE		        Gs3 
	BYTE	W12
	BYTE		N17     As3 
	BYTE	W18
	BYTE		N05     Cn4 
	BYTE	W06
	BYTE		N11     Cs4 
	BYTE	W12
// 003   ----------------------------------------
	BYTE		        As3 
	BYTE	W12
	BYTE		        Cn4 
	BYTE	W12
	BYTE		        Cs4 
	BYTE	W12
	BYTE		        Ds4 
	BYTE	W12
	BYTE		        Cs4 
	BYTE	W12
	BYTE		N42     Cn4 
	BYTE	W36
// 004   ----------------------------------------
	BYTE	W12
	BYTE		N05   
	BYTE	W06
	BYTE		        As3 
	BYTE	W06
	BYTE		        Gs3 
	BYTE	W06
	BYTE		        Cn4 
	BYTE	W06
	BYTE		N11     Fn4 
	BYTE	W12
	BYTE		        Ds4 
	BYTE	W12
	BYTE		        Cn4 
	BYTE	W12
	BYTE		N20     Gs3 
	BYTE	W24
// 005   ----------------------------------------
	BYTE		N11     Cn4 
	BYTE	W12
	BYTE		N05     Fn4 
	BYTE	W06
	BYTE		        Ds4 
	BYTE	W06
	BYTE		        Cs4 
	BYTE	W06
	BYTE		        Fn4 
	BYTE	W06
	BYTE		N11     Gs4 
	BYTE	W12
	BYTE		        Gn4 
	BYTE	W12
	BYTE		        Fn4 
	BYTE	W12
	BYTE		N20     Cs4 
	BYTE	W24
// 006   ----------------------------------------
	BYTE		N11     Cn4 
	BYTE	W12
	BYTE		N17     As3 
	BYTE	W18
	BYTE		N05     Cn4 
	BYTE	W06
	BYTE		N11     Cs4 
	BYTE	W12
	BYTE		        Ds4 
	BYTE	W12
	BYTE		        Fn4 
	BYTE	W12
	BYTE		        Ds4 
	BYTE	W12
	BYTE		        Cs4 
	BYTE	W12
// 007   ----------------------------------------
	BYTE		        Fn4 
	BYTE	W12
	BYTE		        Ds4 
	BYTE	W12
	BYTE		        Cs4 
	BYTE	W12
	BYTE		        Cn4 
	BYTE	W12
	BYTE		N05     Cs4 
	BYTE	W06
	BYTE		        Cn4 
	BYTE	W06
	BYTE		N42     As3 
	BYTE	W36
// 008   ----------------------------------------
	BYTE	W12
	BYTE		N05     Cn4 
	BYTE	W06
	BYTE		        As3 
	BYTE	W06
	BYTE		        Cn4 
	BYTE	W06
	BYTE		        Cs4 
	BYTE	W06
	BYTE		N11     Ds4 
	BYTE	W12
	BYTE		        Cs4 
	BYTE	W12
	BYTE		N32     Cn4 
	BYTE	W36
// 009   ----------------------------------------
	BYTE		N11     As3 
	BYTE	W12
	BYTE		N05     Cn4 
	BYTE	W06
	BYTE		        As3 
	BYTE	W06
	BYTE		        Cn4 
	BYTE	W06
	BYTE		        Cs4 
	BYTE	W06
	BYTE		N11     Ds4 
	BYTE	W12
	BYTE		        Cs4 
	BYTE	W12
	BYTE		N32     Cn4 
	BYTE	W36
// 010   ----------------------------------------
	BYTE		N11     Ds4 
	BYTE	W12
	BYTE		        Fn4 
	BYTE	W12
	BYTE		        Cs4 
	BYTE	W12
	BYTE		N11   
	BYTE	W12
	BYTE		        Cn4 
	BYTE	W12
	BYTE		N17     Cs4 
	BYTE	W18
	BYTE		N05     Cn4 
	BYTE	W06
	BYTE		N11     As3 
	BYTE	W12
// 011   ----------------------------------------
	BYTE		        Cs4 
	BYTE	W12
	BYTE		        Ds4 
	BYTE	W12
	BYTE		        Fn4 
	BYTE	W12
	BYTE		        Gn4 
	BYTE	W12
	BYTE		        Fn4 
	BYTE	W12
	BYTE		N42     Ds4 
	BYTE	W36
// 012   ----------------------------------------
	BYTE	W12
	BYTE		N05   
	BYTE	W06
	BYTE		        Cs4 
	BYTE	W06
	BYTE		        Cn4 
	BYTE	W06
	BYTE		        Cs4 
	BYTE	W06
	BYTE		N11     Ds4 
	BYTE	W12
	BYTE		        Cs4 
	BYTE	W12
	BYTE		N32     Cn4 
	BYTE	W36
// 013   ----------------------------------------
	BYTE		N11     Ds4 
	BYTE	W12
	BYTE		N05     Fn4 
	BYTE	W06
	BYTE		        Ds4 
	BYTE	W06
	BYTE		        Cn4 
	BYTE	W06
	BYTE		        Fn4 
	BYTE	W06
	BYTE		N11     Gs4 
	BYTE	W12
	BYTE		        Gn4 
	BYTE	W12
	BYTE		N32     Fn4 
	BYTE	W36
// 014   ----------------------------------------
	BYTE		N11     Ds4 
	BYTE	W12
	BYTE		        Cs4 
	BYTE	W12
	BYTE		        Cn4 
	BYTE	W12
	BYTE		        Cs4 
	BYTE	W12
	BYTE		        Ds4 
	BYTE	W12
	BYTE		N05     Fn4 
	BYTE	W06
	BYTE		        Ds4 
	BYTE	W06
	BYTE		        Cs4 
	BYTE	W06
	BYTE		        Ds4 
	BYTE	W06
	BYTE		        Fn4 
	BYTE	W06
	BYTE		        Ds4 
	BYTE	W06
// 015   ----------------------------------------
	BYTE		        Cs4 
	BYTE	W06
	BYTE		        Ds4 
	BYTE	W06
	BYTE		        Gn4 
	BYTE	W06
	BYTE		        Fn4 
	BYTE	W06
	BYTE		        Ds4 
	BYTE	W06
	BYTE		        Cs4 
	BYTE	W06
	BYTE		N11     Cn4 
	BYTE	W12
	BYTE		N05     As3 
	BYTE	W06
	BYTE		        Gs3 
	BYTE	W06
	BYTE		N42     As3 
	BYTE	W36
// 016   ----------------------------------------
	BYTE	W12
	BYTE		N20     Cs4 
	BYTE	W24
	BYTE		N11     Fn4 
	BYTE	W12
	BYTE		        Cs4 
	BYTE	W12
	BYTE		N17     Ds4 
	BYTE	W18
	BYTE		N05     Cs4 
	BYTE	W06
	BYTE		N11     Cn4 
	BYTE	W12
// 017   ----------------------------------------
	BYTE		        As3 
	BYTE	W12
	BYTE		        Gs3 
	BYTE	W12
	BYTE		        Gn3 
	BYTE	W12
	BYTE		N66     Fn3 
	BYTE	W60
// 018   ----------------------------------------
	BYTE	W12
	BYTE		N11     Gs3 
	BYTE	W12
	BYTE		        Cn4 
	BYTE	W12
	BYTE		N20     Cs4 
	BYTE	W24
	BYTE		N17     Ds4 
	BYTE	W18
	BYTE		N05     Fn4 
	BYTE	W06
	BYTE		N11     Gn4 
	BYTE	W12
// 019   ----------------------------------------
	BYTE		        As4 
	BYTE	W12
	BYTE		N42     Gs4 
	BYTE	W48
	BYTE		        Gn4 
	BYTE	W36
// 020   ----------------------------------------
	BYTE	W12
	BYTE		N05     Fn4 
	BYTE	W06
	BYTE		        Ds4 
	BYTE	W06
	BYTE		        Cn4 
	BYTE	W06
	BYTE		        As3 
	BYTE	W06
	BYTE		        Gs3 
	BYTE	W06
	BYTE		        As3 
	BYTE	W06
	BYTE		        Cn4 
	BYTE	W06
	BYTE		        Cs4 
	BYTE	W06
	BYTE		        Ds4 
	BYTE	W06
	BYTE		        Fn4 
	BYTE	W06
	BYTE		        Ds4 
	BYTE	W06
	BYTE		        Fn4 
	BYTE	W06
	BYTE		N20     Gs4 
	BYTE	W12
// 021   ----------------------------------------
	BYTE	W12
	BYTE		N05     Fn4 
	BYTE	W06
	BYTE		        Ds4 
	BYTE	W06
	BYTE		        Cs4 
	BYTE	W06
	BYTE		        Cn4 
	BYTE	W06
	BYTE		        Gs3 
	BYTE	W06
	BYTE		        As3 
	BYTE	W06
	BYTE		        Cs4 
	BYTE	W06
	BYTE		        Fn4 
	BYTE	W06
	BYTE		        Ds4 
	BYTE	W06
	BYTE		        Cs4 
	BYTE	W06
	BYTE		        Ds4 
	BYTE	W06
	BYTE		        Cs4 
	BYTE	W06
	BYTE		N20     Fn4 
	BYTE	W12
// 022   ----------------------------------------
	BYTE	W12
	BYTE		N05     Cs4 
	BYTE	W06
	BYTE		        Cn4 
	BYTE	W06
	BYTE		        As3 
	BYTE	W06
	BYTE		        Gs3 
	BYTE	W06
	BYTE		        As3 
	BYTE	W06
	BYTE		        Cn4 
	BYTE	W06
	BYTE		        Cs4 
	BYTE	W06
	BYTE		        Fn4 
	BYTE	W06
	BYTE		        Gs4 
	BYTE	W06
	BYTE		        As4 
	BYTE	W06
	BYTE		        Gs4 
	BYTE	W06
	BYTE		        As4 
	BYTE	W06
	BYTE		N20     Cs5 
	BYTE	W12
// 023   ----------------------------------------
	BYTE	W12
	BYTE		N05     As4 
	BYTE	W06
	BYTE		        Gs4 
	BYTE	W06
	BYTE		        Gn4 
	BYTE	W06
	BYTE		        Fn4 
	BYTE	W06
	BYTE		        Ds4 
	BYTE	W06
	BYTE		        Cs4 
	BYTE	W06
	BYTE		        Cn4 
	BYTE	W06
	BYTE		        As3 
	BYTE	W06
	BYTE		        Gn3 
	BYTE	W06
	BYTE		        Gs3 
	BYTE	W06
	BYTE		        As3 
	BYTE	W06
	BYTE		        Ds4 
	BYTE	W06
	BYTE		        Gn4 
	BYTE	W06
	BYTE		        Fn4 
	BYTE	W06
// 024   ----------------------------------------
	BYTE		        Ds4 
	BYTE	W06
	BYTE		        Gn4 
	BYTE	W90
// 025   ----------------------------------------
	BYTE	W96
// 026   ----------------------------------------
	BYTE	W30
	BYTE	GoTo
	 POIN2	ToProtectYou_FINAL_3_B1
ToProtectYou_FINAL_3_B2:
	BYTE	FINE

//**************** Track 4 (Midi-Chn.5) ****************//

ToProtectYou_FINAL_4:
	BYTE	KEYSH   ToProtectYou_FINAL_key+0
ToProtectYou_FINAL_4_B1:
// 000   ----------------------------------------
	BYTE		VOICE   124
	BYTE		MODT    0
	BYTE		LFOS    44
	BYTE		VOL     124*ToProtectYou_FINAL_mvl/mxv
	BYTE		PAN     c_v+0
	BYTE		N11     Bn0   v100
	BYTE		N11     Cn1 
	BYTE		N11     Gs1 
	BYTE		TIE     En2   v127
	BYTE		N90     An2 
	BYTE	W12
	BYTE		N11     Bn0   v100
	BYTE		N11     Cn1 
	BYTE		N11     Gs1 
	BYTE	W12
	BYTE		N11   
	BYTE	W12
	BYTE		        Dn1 
	BYTE		N11     En1 
	BYTE		N11     Gs1 
	BYTE	W12
	BYTE		N11   
	BYTE	W12
	BYTE		N05     Bn0 
	BYTE		N05     Cn1 
	BYTE		N05     Gs1 
	BYTE	W18
	BYTE		        Bn0 
	BYTE		N05     Cn1 
	BYTE	W06
	BYTE		N11     Dn1 
	BYTE		N11     En1 
	BYTE		N11     Gs1 
	BYTE	W12
// 001   ----------------------------------------
	BYTE		        Bn0 
	BYTE		N11     Cn1 
	BYTE		N11     Gs1 
	BYTE	W12
	BYTE		        Bn0 
	BYTE		N11     Cn1 
	BYTE		N11     Gs1 
	BYTE	W12
	BYTE		N11   
	BYTE	W12
	BYTE		        Dn1 
	BYTE		N11     En1 
	BYTE		N11     Gs1 
	BYTE	W12
	BYTE		N11   
	BYTE	W12
	BYTE		N05     Bn0 
	BYTE		N05     Cn1 
	BYTE		N05     Gs1 
	BYTE	W18
	BYTE		        Bn0 
	BYTE		N05     Cn1 
	BYTE	W06
	BYTE		N11     Dn1 
	BYTE		N11     En1 
	BYTE		N11     Gs1 
	BYTE	W06
	BYTE		EOT     En2 
	BYTE	W06
// 002   ----------------------------------------
ToProtectYou_FINAL_4_002:
	BYTE		N11     Bn0   v100
	BYTE		N11     Cn1 
	BYTE		N11     Gs1 
	BYTE	W12
	BYTE		        Bn0 
	BYTE		N11     Cn1 
	BYTE		N11     Gs1 
	BYTE	W12
	BYTE		N11   
	BYTE	W12
	BYTE		        Dn1 
	BYTE		N11     En1 
	BYTE		N11     Gs1 
	BYTE	W12
	BYTE		N11   
	BYTE	W12
	BYTE		N05     Bn0 
	BYTE		N05     Cn1 
	BYTE		N05     Gs1 
	BYTE	W18
	BYTE		        Bn0 
	BYTE		N05     Cn1 
	BYTE	W06
	BYTE		N11     Dn1 
	BYTE		N11     En1 
	BYTE		N11     Gs1 
	BYTE	W12
	BYTE	PEND
// 003   ----------------------------------------
	BYTE	PATT
	 POIN2	ToProtectYou_FINAL_4_002
// 004   ----------------------------------------
	BYTE	PATT
	 POIN2	ToProtectYou_FINAL_4_002
// 005   ----------------------------------------
	BYTE	PATT
	 POIN2	ToProtectYou_FINAL_4_002
// 006   ----------------------------------------
	BYTE	PATT
	 POIN2	ToProtectYou_FINAL_4_002
// 007   ----------------------------------------
	BYTE	PATT
	 POIN2	ToProtectYou_FINAL_4_002
// 008   ----------------------------------------
	BYTE	PATT
	 POIN2	ToProtectYou_FINAL_4_002
// 009   ----------------------------------------
	BYTE	PATT
	 POIN2	ToProtectYou_FINAL_4_002
// 010   ----------------------------------------
	BYTE	PATT
	 POIN2	ToProtectYou_FINAL_4_002
// 011   ----------------------------------------
	BYTE	PATT
	 POIN2	ToProtectYou_FINAL_4_002
// 012   ----------------------------------------
	BYTE	PATT
	 POIN2	ToProtectYou_FINAL_4_002
// 013   ----------------------------------------
	BYTE	PATT
	 POIN2	ToProtectYou_FINAL_4_002
// 014   ----------------------------------------
	BYTE	PATT
	 POIN2	ToProtectYou_FINAL_4_002
// 015   ----------------------------------------
	BYTE	PATT
	 POIN2	ToProtectYou_FINAL_4_002
// 016   ----------------------------------------
	BYTE		N11     Bn0   v100
	BYTE		N11     Cn1 
	BYTE		N11     Gs1 
	BYTE	W12
	BYTE		        Bn0 
	BYTE		N11     Cn1 
	BYTE		N11     Gs1 
	BYTE	W12
	BYTE		N11   
	BYTE	W12
	BYTE		        Bn0 
	BYTE		N11     Cn1 
	BYTE		N11     Gs1 
	BYTE	W12
	BYTE		N11   
	BYTE	W12
	BYTE		        Bn0 
	BYTE		N11     Cn1 
	BYTE		N11     Gs1 
	BYTE	W12
	BYTE		N11   
	BYTE	W12
	BYTE		        Bn0 
	BYTE		N11     Cn1 
	BYTE		N11     Gs1 
	BYTE	W12
// 017   ----------------------------------------
ToProtectYou_FINAL_4_017:
	BYTE		N11     Gs1   v100
	BYTE	W12
	BYTE		        Bn0 
	BYTE		N11     Cn1 
	BYTE		N11     Gs1 
	BYTE	W12
	BYTE		N11   
	BYTE	W12
	BYTE		        Bn0 
	BYTE		N11     Cn1 
	BYTE		N11     Gs1 
	BYTE	W12
	BYTE		N11   
	BYTE	W12
	BYTE		        Bn0 
	BYTE		N11     Cn1 
	BYTE		N11     Gs1 
	BYTE	W12
	BYTE		N11   
	BYTE	W12
	BYTE		        Bn0 
	BYTE		N11     Cn1 
	BYTE		N11     Gs1 
	BYTE	W12
	BYTE	PEND
// 018   ----------------------------------------
	BYTE	PATT
	 POIN2	ToProtectYou_FINAL_4_017
// 019   ----------------------------------------
	BYTE	PATT
	 POIN2	ToProtectYou_FINAL_4_017
// 020   ----------------------------------------
	BYTE		N11     Gs1   v100
	BYTE	W12
	BYTE		        Bn0 
	BYTE		N11     Cn1 
	BYTE		N11     Gs1 
	BYTE	W12
	BYTE		N11   
	BYTE	W12
	BYTE		        Dn1 
	BYTE		N11     En1 
	BYTE		N11     Gs1 
	BYTE	W12
	BYTE		N11   
	BYTE	W12
	BYTE		N05     Bn0 
	BYTE		N05     Cn1 
	BYTE		N05     Gs1 
	BYTE	W18
	BYTE		        Bn0 
	BYTE		N05     Cn1 
	BYTE	W06
	BYTE		N11     Dn1 
	BYTE		N11     En1 
	BYTE		N11     Gs1 
	BYTE	W12
// 021   ----------------------------------------
	BYTE	PATT
	 POIN2	ToProtectYou_FINAL_4_002
// 022   ----------------------------------------
	BYTE	PATT
	 POIN2	ToProtectYou_FINAL_4_002
// 023   ----------------------------------------
	BYTE	PATT
	 POIN2	ToProtectYou_FINAL_4_002
// 024   ----------------------------------------
	BYTE	PATT
	 POIN2	ToProtectYou_FINAL_4_002
// 025   ----------------------------------------
	BYTE	PATT
	 POIN2	ToProtectYou_FINAL_4_002
// 026   ----------------------------------------
	BYTE	W30
	BYTE	GoTo
	 POIN2	ToProtectYou_FINAL_4_B1
ToProtectYou_FINAL_4_B2:
	BYTE	FINE

//**************** Track 5 (Midi-Chn.6) ****************//

ToProtectYou_FINAL_5:
	BYTE	KEYSH   ToProtectYou_FINAL_key+0
ToProtectYou_FINAL_5_B1:
// 000   ----------------------------------------
	BYTE		VOICE   46
	BYTE		MODT    0
	BYTE		LFOS    44
	BYTE		VOL     100*ToProtectYou_FINAL_mvl/mxv
	BYTE		PAN     c_v-41
	BYTE	W12
	BYTE		N05     Cn5   v100
	BYTE	W06
	BYTE		        As4 
	BYTE	W06
	BYTE		        Gs4 
	BYTE	W06
	BYTE		        As4 
	BYTE	W06
	BYTE		        Cn5 
	BYTE	W06
	BYTE		        As4 
	BYTE	W06
	BYTE		        Gs4 
	BYTE	W06
	BYTE		        As4 
	BYTE	W06
	BYTE		        Cs5 
	BYTE	W06
	BYTE		        Cn5 
	BYTE	W06
	BYTE		        As4 
	BYTE	W06
	BYTE		        Cn5 
	BYTE	W06
	BYTE		        Cs5 
	BYTE	W06
	BYTE		        Cn5 
	BYTE	W06
// 001   ----------------------------------------
ToProtectYou_FINAL_5_001:
	BYTE		N05     As4   v100
	BYTE	W06
	BYTE		        Cn5 
	BYTE	W06
	BYTE		        Ds5 
	BYTE	W06
	BYTE		        Cs5 
	BYTE	W06
	BYTE		        Cn5 
	BYTE	W06
	BYTE		        Cs5 
	BYTE	W06
	BYTE		        Ds5 
	BYTE	W06
	BYTE		        Cs5 
	BYTE	W06
	BYTE		        Cn5 
	BYTE	W06
	BYTE		        Cs5 
	BYTE	W06
	BYTE		        Fn5 
	BYTE	W06
	BYTE		        Ds5 
	BYTE	W06
	BYTE		        Cs5 
	BYTE	W06
	BYTE		        Ds5 
	BYTE	W06
	BYTE		        Fn5 
	BYTE	W06
	BYTE		        Ds5 
	BYTE	W06
	BYTE	PEND
// 002   ----------------------------------------
ToProtectYou_FINAL_5_002:
	BYTE		N05     Cs5   v100
	BYTE	W06
	BYTE		        Ds5 
	BYTE	W06
	BYTE		N05   
	BYTE	W06
	BYTE		        Cs5 
	BYTE	W06
	BYTE		        Cn5 
	BYTE	W06
	BYTE		        Cs5 
	BYTE	W06
	BYTE		        Ds5 
	BYTE	W06
	BYTE		        Cs5 
	BYTE	W06
	BYTE		        Cn5 
	BYTE	W06
	BYTE		        Cs5 
	BYTE	W06
	BYTE		N05   
	BYTE	W06
	BYTE		        Cn5 
	BYTE	W06
	BYTE		        As4 
	BYTE	W06
	BYTE		        Cn5 
	BYTE	W06
	BYTE		        Cs5 
	BYTE	W06
	BYTE		        Cn5 
	BYTE	W06
	BYTE	PEND
// 003   ----------------------------------------
ToProtectYou_FINAL_5_003:
	BYTE		N05     As4   v100
	BYTE	W06
	BYTE		        Cn5 
	BYTE	W06
	BYTE		N05   
	BYTE	W06
	BYTE		        As4 
	BYTE	W06
	BYTE		        Gs4 
	BYTE	W06
	BYTE		        As4 
	BYTE	W06
	BYTE		        Cn5 
	BYTE	W06
	BYTE		        As4 
	BYTE	W06
	BYTE		        Gs4 
	BYTE	W06
	BYTE		        As4 
	BYTE	W06
	BYTE		        Cn5 
	BYTE	W06
	BYTE		        Bn4 
	BYTE	W06
	BYTE		        An4 
	BYTE	W06
	BYTE		        Bn4 
	BYTE	W06
	BYTE		        Cn5 
	BYTE	W06
	BYTE		        Bn4 
	BYTE	W06
	BYTE	PEND
// 004   ----------------------------------------
	BYTE		        An4 
	BYTE	W06
	BYTE		        Bn4 
	BYTE	W06
	BYTE		        Cn5 
	BYTE	W06
	BYTE		        As4 
	BYTE	W06
	BYTE		        Gs4 
	BYTE	W06
	BYTE		        As4 
	BYTE	W06
	BYTE		        Cn5 
	BYTE	W06
	BYTE		        As4 
	BYTE	W06
	BYTE		        Gs4 
	BYTE	W06
	BYTE		        As4 
	BYTE	W06
	BYTE		        Cs5 
	BYTE	W06
	BYTE		        Cn5 
	BYTE	W06
	BYTE		        As4 
	BYTE	W06
	BYTE		        Cn5 
	BYTE	W06
	BYTE		        Cs5 
	BYTE	W06
	BYTE		        Cn5 
	BYTE	W06
// 005   ----------------------------------------
	BYTE	PATT
	 POIN2	ToProtectYou_FINAL_5_001
// 006   ----------------------------------------
	BYTE	PATT
	 POIN2	ToProtectYou_FINAL_5_002
// 007   ----------------------------------------
	BYTE	PATT
	 POIN2	ToProtectYou_FINAL_5_003
// 008   ----------------------------------------
ToProtectYou_FINAL_5_008:
	BYTE		N05     Cn5   v100
	BYTE	W06
	BYTE		        As4 
	BYTE	W06
	BYTE		        Gs4 
	BYTE	W06
	BYTE		        As4 
	BYTE	W06
	BYTE		        Cn5 
	BYTE	W06
	BYTE		        As4 
	BYTE	W06
	BYTE		        Gs4 
	BYTE	W06
	BYTE		        As4 
	BYTE	W06
	BYTE		        Cs5 
	BYTE	W06
	BYTE		        Cn5 
	BYTE	W06
	BYTE		        As4 
	BYTE	W06
	BYTE		        Cn5 
	BYTE	W06
	BYTE		        Cs5 
	BYTE	W06
	BYTE		        Cn5 
	BYTE	W06
	BYTE		        As4 
	BYTE	W06
	BYTE		        Cn5 
	BYTE	W06
	BYTE	PEND
// 009   ----------------------------------------
ToProtectYou_FINAL_5_009:
	BYTE		N05     Ds5   v100
	BYTE	W06
	BYTE		        Cs5 
	BYTE	W06
	BYTE		        Cn5 
	BYTE	W06
	BYTE		        Cs5 
	BYTE	W06
	BYTE		        Ds5 
	BYTE	W06
	BYTE		        Cs5 
	BYTE	W06
	BYTE		        Cn5 
	BYTE	W06
	BYTE		        Cs5 
	BYTE	W06
	BYTE		        Fn5 
	BYTE	W06
	BYTE		        Ds5 
	BYTE	W06
	BYTE		        Cs5 
	BYTE	W06
	BYTE		        Ds5 
	BYTE	W06
	BYTE		        Fn5 
	BYTE	W06
	BYTE		        Ds5 
	BYTE	W06
	BYTE		        Cs5 
	BYTE	W06
	BYTE		        Ds5 
	BYTE	W06
	BYTE	PEND
// 010   ----------------------------------------
ToProtectYou_FINAL_5_010:
	BYTE		N05     Ds5   v100
	BYTE	W06
	BYTE		        Cs5 
	BYTE	W06
	BYTE		        Cn5 
	BYTE	W06
	BYTE		        Cs5 
	BYTE	W06
	BYTE		        Ds5 
	BYTE	W06
	BYTE		        Cs5 
	BYTE	W06
	BYTE		        Cn5 
	BYTE	W06
	BYTE		        Cs5 
	BYTE	W06
	BYTE		N05   
	BYTE	W06
	BYTE		        Cn5 
	BYTE	W06
	BYTE		        As4 
	BYTE	W06
	BYTE		        Cn5 
	BYTE	W06
	BYTE		        Cs5 
	BYTE	W06
	BYTE		        Cn5 
	BYTE	W06
	BYTE		        As4 
	BYTE	W06
	BYTE		        Cn5 
	BYTE	W06
	BYTE	PEND
// 011   ----------------------------------------
ToProtectYou_FINAL_5_011:
	BYTE		N05     Cn5   v100
	BYTE	W06
	BYTE		        As4 
	BYTE	W06
	BYTE		        Gs4 
	BYTE	W06
	BYTE		        As4 
	BYTE	W06
	BYTE		        Cn5 
	BYTE	W06
	BYTE		        As4 
	BYTE	W06
	BYTE		        Gs4 
	BYTE	W06
	BYTE		        As4 
	BYTE	W06
	BYTE		        Cn5 
	BYTE	W06
	BYTE		        Bn4 
	BYTE	W06
	BYTE		        An4 
	BYTE	W06
	BYTE		        Bn4 
	BYTE	W06
	BYTE		        Cn5 
	BYTE	W06
	BYTE		        Bn4 
	BYTE	W06
	BYTE		        An4 
	BYTE	W06
	BYTE		        Bn4 
	BYTE	W06
	BYTE	PEND
// 012   ----------------------------------------
	BYTE	PATT
	 POIN2	ToProtectYou_FINAL_5_008
// 013   ----------------------------------------
	BYTE	PATT
	 POIN2	ToProtectYou_FINAL_5_009
// 014   ----------------------------------------
	BYTE	PATT
	 POIN2	ToProtectYou_FINAL_5_010
// 015   ----------------------------------------
	BYTE	PATT
	 POIN2	ToProtectYou_FINAL_5_011
// 016   ----------------------------------------
	BYTE	W96
// 017   ----------------------------------------
	BYTE	W96
// 018   ----------------------------------------
	BYTE	W96
// 019   ----------------------------------------
	BYTE	W96
// 020   ----------------------------------------
	BYTE	W96
// 021   ----------------------------------------
	BYTE	W96
// 022   ----------------------------------------
	BYTE	W96
// 023   ----------------------------------------
	BYTE	W96
// 024   ----------------------------------------
	BYTE	W96
// 025   ----------------------------------------
	BYTE	W96
// 026   ----------------------------------------
	BYTE	W30
	BYTE	GoTo
	 POIN2	ToProtectYou_FINAL_5_B1
ToProtectYou_FINAL_5_B2:
	BYTE	FINE

//**************** Track 6 (Midi-Chn.7) ****************//

ToProtectYou_FINAL_6:
	BYTE	KEYSH   ToProtectYou_FINAL_key+0
ToProtectYou_FINAL_6_B1:
// 000   ----------------------------------------
	BYTE		VOICE   52
	BYTE		MODT    0
	BYTE		LFOS    44
	BYTE		VOL     109*ToProtectYou_FINAL_mvl/mxv
	BYTE		PAN     c_v+39
	BYTE	W12
	BYTE		N48     Gs2   v100
	BYTE		N48     Cs3 
	BYTE		N48     Fn3 
	BYTE	W48
	BYTE		        As2 
	BYTE		N48     Ds3 
	BYTE		N48     Gn3 
	BYTE	W36
// 001   ----------------------------------------
ToProtectYou_FINAL_6_001:
	BYTE	W12
	BYTE		TIE     Gs2   v100
	BYTE		TIE     Cs3 
	BYTE		TIE     Fn3 
	BYTE	W84
	BYTE	PEND
// 002   ----------------------------------------
	BYTE	W60
	BYTE		EOT     Gs2 
	BYTE		        Cs3 
	BYTE		        Fn3 
	BYTE		N42     As2 
	BYTE		N96     Ds3 
	BYTE		N42     Gn3 
	BYTE	W36
// 003   ----------------------------------------
ToProtectYou_FINAL_6_003:
	BYTE	W12
	BYTE		N48     Cn3   v100
	BYTE		N48     Gs3 
	BYTE	W48
	BYTE		        Cn3 
	BYTE		N48     En3 
	BYTE		N48     Gn3 
	BYTE	W36
	BYTE	PEND
// 004   ----------------------------------------
ToProtectYou_FINAL_6_004:
	BYTE	W12
	BYTE		TIE     Gs2   v100
	BYTE		N90     Cn3 
	BYTE		TIE     Fn3 
	BYTE	W84
	BYTE	PEND
// 005   ----------------------------------------
ToProtectYou_FINAL_6_005:
	BYTE	W12
	BYTE		TIE     Cs3   v100
	BYTE	W84
	BYTE	PEND
// 006   ----------------------------------------
	BYTE	W06
	BYTE		EOT     Gs2 
	BYTE	W06
	BYTE		TIE     As2 
	BYTE	W84
// 007   ----------------------------------------
	BYTE	W06
	BYTE		EOT     Cs3 
	BYTE		        Fn3 
	BYTE	W06
	BYTE		TIE     Ds3 
	BYTE		N90     Gn3 
	BYTE	W84
// 008   ----------------------------------------
	BYTE	W06
	BYTE		EOT     As2 
	BYTE	W06
	BYTE		TIE     Cn3 
	BYTE		TIE     Gs3 
	BYTE	W84
// 009   ----------------------------------------
	BYTE	W06
	BYTE		EOT     Ds3 
	BYTE	W06
	BYTE		TIE     Fn3 
	BYTE	W84
// 010   ----------------------------------------
	BYTE	W06
	BYTE		EOT     Cn3 
	BYTE	W06
	BYTE		N96     Cs3 
	BYTE	W84
// 011   ----------------------------------------
	BYTE	W12
	BYTE		EOT     Fn3 
	BYTE		        Gs3 
	BYTE		N90     As2 
	BYTE		TIE     Ds3 
	BYTE		N90     Gn3 
	BYTE	W84
// 012   ----------------------------------------
	BYTE	W12
	BYTE		TIE     Cn3 
	BYTE		TIE     Gs3 
	BYTE	W84
// 013   ----------------------------------------
	BYTE	W06
	BYTE		EOT     Ds3 
	BYTE	W06
	BYTE		TIE     Fn3 
	BYTE	W84
// 014   ----------------------------------------
	BYTE	W06
	BYTE		EOT     Cn3 
	BYTE	W06
	BYTE		N96     Cs3 
	BYTE	W84
// 015   ----------------------------------------
	BYTE	W12
	BYTE		EOT     Fn3 
	BYTE		        Gs3 
	BYTE	W84
// 016   ----------------------------------------
	BYTE	W12
	BYTE		N48     Gs2 
	BYTE		N48     Cs3 
	BYTE		N48     Fn3 
	BYTE	W48
	BYTE		        As2 
	BYTE		N48     Ds3 
	BYTE		N48     Gn3 
	BYTE	W36
// 017   ----------------------------------------
	BYTE	PATT
	 POIN2	ToProtectYou_FINAL_6_001
// 018   ----------------------------------------
	BYTE	W60
	BYTE		EOT     Gs2 
	BYTE		        Cs3 
	BYTE		        Fn3 
	BYTE		N42     As2   v100
	BYTE		N96     Ds3 
	BYTE		N42     Gn3 
	BYTE	W36
// 019   ----------------------------------------
	BYTE	PATT
	 POIN2	ToProtectYou_FINAL_6_003
// 020   ----------------------------------------
	BYTE	PATT
	 POIN2	ToProtectYou_FINAL_6_004
// 021   ----------------------------------------
	BYTE	PATT
	 POIN2	ToProtectYou_FINAL_6_005
// 022   ----------------------------------------
	BYTE	W06
	BYTE		EOT     Gs2 
	BYTE	W06
	BYTE		TIE     As2   v100
	BYTE	W84
// 023   ----------------------------------------
	BYTE	W06
	BYTE		EOT     Cs3 
	BYTE		        Fn3 
	BYTE	W06
	BYTE		N90     Ds3 
	BYTE		N90     Gn3 
	BYTE	W84
// 024   ----------------------------------------
	BYTE	W06
	BYTE		EOT     As2 
	BYTE	W06
	BYTE		TIE     Gs2   v127
	BYTE		TIE     Cn3 
	BYTE		TIE     Fn3 
	BYTE	W84
// 025   ----------------------------------------
	BYTE	W96
// 026   ----------------------------------------
	BYTE	W06
	BYTE		EOT     Gs2 
	BYTE		        Cn3 
	BYTE		        Fn3 
	BYTE	W24
	BYTE	GoTo
	 POIN2	ToProtectYou_FINAL_6_B1
ToProtectYou_FINAL_6_B2:
	BYTE	FINE

//******************************************************//
	ALIGN 4

ToProtectYou_FINAL:
	BYTE	6	// NumTrks
	BYTE	0	// NumBlks
	BYTE	ToProtectYou_FINAL_pri	// Priority
	BYTE	ToProtectYou_FINAL_rev	// Reverb.

	POIN2	ToProtectYou_FINAL_grp

	POIN2	ToProtectYou_FINAL_1
	POIN2	ToProtectYou_FINAL_2
	POIN2	ToProtectYou_FINAL_3
	POIN2	ToProtectYou_FINAL_4
	POIN2	ToProtectYou_FINAL_5
	POIN2	ToProtectYou_FINAL_6

	
