//Event file generated from Sappy .s format.
	#include "MPlayDef.event"

	#define	WardenThemeSong_grp  voicegroup000
	#define	WardenThemeSong_pri  0
	#define	WardenThemeSong_rev  94
	#define	WardenThemeSong_mvl  30
	#define	WardenThemeSong_key  0
	#define	WardenThemeSong_tbs  1
	#define	WardenThemeSong_exg  0
	#define	WardenThemeSong_cmp  1

	// .rodata
	//	WardenThemeSong
	ALIGN 4

//**************** Track 1 (Midi-Chn.1) ****************//

WardenThemeSong_1:
	BYTE	KEYSH   WardenThemeSong_key+0
WardenThemeSong_1_B1:
// 000   ----------------------------------------
	BYTE	TEMPO   100*WardenThemeSong_tbs/2
	BYTE		VOICE   31
	BYTE		MODT    0
	BYTE		LFOS    44
	BYTE		VOL     94*WardenThemeSong_mvl/mxv
	BYTE		PAN     c_v-32
	BYTE		N11     An0   v100
	BYTE	W12
	BYTE		N11   
	BYTE	W12
	BYTE		N11   
	BYTE	W24
	BYTE		N05   
	BYTE	W06
	BYTE		N11   
	BYTE	W12
	BYTE		N05   
	BYTE	W06
	BYTE		N11   
	BYTE	W12
	BYTE		N11   
	BYTE	W12
// 001   ----------------------------------------
WardenThemeSong_1_001:
	BYTE		N11     An0   v100
	BYTE	W12
	BYTE		N11   
	BYTE	W12
	BYTE		N11   
	BYTE	W24
	BYTE		N05   
	BYTE	W06
	BYTE		N11   
	BYTE	W12
	BYTE		N05   
	BYTE	W06
	BYTE		N11   
	BYTE	W12
	BYTE		N11   
	BYTE	W12
	BYTE	PEND
// 002   ----------------------------------------
	BYTE	PATT
	 POIN2	WardenThemeSong_1_001
// 003   ----------------------------------------
	BYTE	PATT
	 POIN2	WardenThemeSong_1_001
// 004   ----------------------------------------
WardenThemeSong_1_004:
	BYTE		N11     Fn0   v100
	BYTE	W12
	BYTE		N11   
	BYTE	W12
	BYTE		N11   
	BYTE	W24
	BYTE		N05     Gn0 
	BYTE	W06
	BYTE		N11   
	BYTE	W12
	BYTE		N05   
	BYTE	W06
	BYTE		N11   
	BYTE	W12
	BYTE		N11   
	BYTE	W12
	BYTE	PEND
// 005   ----------------------------------------
WardenThemeSong_1_005:
	BYTE		N11     Fn0   v100
	BYTE	W12
	BYTE		N11   
	BYTE	W12
	BYTE		N11   
	BYTE	W24
	BYTE		N05   
	BYTE	W06
	BYTE		N11   
	BYTE	W12
	BYTE		N05   
	BYTE	W06
	BYTE		N11   
	BYTE	W12
	BYTE		N11   
	BYTE	W12
	BYTE	PEND
// 006   ----------------------------------------
	BYTE	PATT
	 POIN2	WardenThemeSong_1_004
// 007   ----------------------------------------
WardenThemeSong_1_007:
	BYTE		N11     Cn1   v100
	BYTE	W12
	BYTE		N11   
	BYTE	W12
	BYTE		N11   
	BYTE	W24
	BYTE		N05     Bn0 
	BYTE	W06
	BYTE		N11   
	BYTE	W12
	BYTE		N05   
	BYTE	W06
	BYTE		N11   
	BYTE	W12
	BYTE		N11   
	BYTE	W12
	BYTE	PEND
// 008   ----------------------------------------
	BYTE	PATT
	 POIN2	WardenThemeSong_1_001
// 009   ----------------------------------------
	BYTE	PATT
	 POIN2	WardenThemeSong_1_005
// 010   ----------------------------------------
	BYTE	PATT
	 POIN2	WardenThemeSong_1_005
// 011   ----------------------------------------
WardenThemeSong_1_011:
	BYTE		N11     Gn0   v100
	BYTE	W12
	BYTE		N11   
	BYTE	W12
	BYTE		N11   
	BYTE	W24
	BYTE		N05   
	BYTE	W06
	BYTE		N11   
	BYTE	W12
	BYTE		N05   
	BYTE	W06
	BYTE		N11   
	BYTE	W12
	BYTE		N11   
	BYTE	W12
	BYTE	PEND
// 012   ----------------------------------------
WardenThemeSong_1_012:
	BYTE		N11     Cn1   v100
	BYTE	W12
	BYTE		N11   
	BYTE	W12
	BYTE		N11   
	BYTE	W24
	BYTE		N17   
	BYTE	W18
	BYTE		N05   
	BYTE	W06
	BYTE		N11   
	BYTE	W12
	BYTE		        Bn0 
	BYTE	W12
	BYTE	PEND
// 013   ----------------------------------------
WardenThemeSong_1_013:
	BYTE		N11     An0   v100
	BYTE	W12
	BYTE		N11   
	BYTE	W12
	BYTE		N11   
	BYTE	W24
	BYTE		N17   
	BYTE	W18
	BYTE		N05   
	BYTE	W06
	BYTE		N11   
	BYTE	W12
	BYTE		        Gn0 
	BYTE	W12
	BYTE	PEND
// 014   ----------------------------------------
WardenThemeSong_1_014:
	BYTE		N11     Fn0   v100
	BYTE	W12
	BYTE		N11   
	BYTE	W12
	BYTE		N11   
	BYTE	W24
	BYTE		N17   
	BYTE	W18
	BYTE		N05     Gn0 
	BYTE	W06
	BYTE		N11     An0 
	BYTE	W12
	BYTE		        Fn0 
	BYTE	W12
	BYTE	PEND
// 015   ----------------------------------------
WardenThemeSong_1_015:
	BYTE		N11     Gn0   v100
	BYTE	W12
	BYTE		N11   
	BYTE	W12
	BYTE		N11   
	BYTE	W24
	BYTE		N17   
	BYTE	W18
	BYTE		N05     An0 
	BYTE	W06
	BYTE		N11     Bn0 
	BYTE	W12
	BYTE		        Dn1 
	BYTE	W12
	BYTE	PEND
// 016   ----------------------------------------
	BYTE	PATT
	 POIN2	WardenThemeSong_1_012
// 017   ----------------------------------------
	BYTE	PATT
	 POIN2	WardenThemeSong_1_013
// 018   ----------------------------------------
	BYTE	PATT
	 POIN2	WardenThemeSong_1_014
// 019   ----------------------------------------
	BYTE	PATT
	 POIN2	WardenThemeSong_1_015
// 020   ----------------------------------------
	BYTE		N20     An0   v100
	BYTE	W24
	BYTE		N20   
	BYTE	W24
	BYTE		N20   
	BYTE	W24
	BYTE		N20   
	BYTE	W24
// 021   ----------------------------------------
	BYTE		        Gn0 
	BYTE	W24
	BYTE		N20   
	BYTE	W24
	BYTE		        An0 
	BYTE	W24
	BYTE		N20   
	BYTE	W24
// 022   ----------------------------------------
	BYTE		        Gn0 
	BYTE	W24
	BYTE		N20   
	BYTE	W24
	BYTE		        Fn0 
	BYTE	W24
	BYTE		N20   
	BYTE	W24
// 023   ----------------------------------------
	BYTE		        An0 
	BYTE	W24
	BYTE		N20   
	BYTE	W24
	BYTE		        Gs0 
	BYTE	W24
	BYTE		N20   
	BYTE	W24
// 024   ----------------------------------------
	BYTE		N11     An0 
	BYTE	W12
	BYTE		        En0 
	BYTE	W12
	BYTE		        An0 
	BYTE	W12
	BYTE		        En0 
	BYTE	W12
	BYTE		        An0 
	BYTE	W12
	BYTE		        Fn0 
	BYTE	W12
	BYTE		        An0 
	BYTE	W12
	BYTE		        Fn0 
	BYTE	W12
// 025   ----------------------------------------
	BYTE		        Gn0 
	BYTE	W12
	BYTE		        En0 
	BYTE	W12
	BYTE		        Gn0 
	BYTE	W12
	BYTE		        En0 
	BYTE	W12
	BYTE		        An0 
	BYTE	W12
	BYTE		        Fn0 
	BYTE	W12
	BYTE		        An0 
	BYTE	W12
	BYTE		        Fn0 
	BYTE	W12
// 026   ----------------------------------------
	BYTE		        Gn0 
	BYTE	W12
	BYTE		        En0 
	BYTE	W12
	BYTE		        Gn0 
	BYTE	W12
	BYTE		        En0 
	BYTE	W12
	BYTE		        Fn0 
	BYTE	W12
	BYTE		        Dn0 
	BYTE	W12
	BYTE		        Fn0 
	BYTE	W12
	BYTE		        Dn0 
	BYTE	W12
// 027   ----------------------------------------
	BYTE		        An0 
	BYTE	W12
	BYTE		        En0 
	BYTE	W12
	BYTE		        An0 
	BYTE	W12
	BYTE		        En0 
	BYTE	W12
	BYTE		        Gs0 
	BYTE	W12
	BYTE		        En0 
	BYTE	W12
	BYTE		        Gs0 
	BYTE	W12
	BYTE		        En0 
	BYTE	W12
// 028   ----------------------------------------
	BYTE	PATT
	 POIN2	WardenThemeSong_1_004
// 029   ----------------------------------------
	BYTE	PATT
	 POIN2	WardenThemeSong_1_005
// 030   ----------------------------------------
	BYTE	PATT
	 POIN2	WardenThemeSong_1_004
// 031   ----------------------------------------
	BYTE	PATT
	 POIN2	WardenThemeSong_1_007
// 032   ----------------------------------------
	BYTE	PATT
	 POIN2	WardenThemeSong_1_001
// 033   ----------------------------------------
	BYTE	PATT
	 POIN2	WardenThemeSong_1_005
// 034   ----------------------------------------
	BYTE	PATT
	 POIN2	WardenThemeSong_1_005
// 035   ----------------------------------------
	BYTE	PATT
	 POIN2	WardenThemeSong_1_011
// 036   ----------------------------------------
	BYTE		N11     An0   v100
	BYTE	W12
	BYTE		        En0 
	BYTE	W12
	BYTE		        An0 
	BYTE	W12
	BYTE		        En0 
	BYTE	W12
	BYTE		        An0 
	BYTE	W12
	BYTE		        En0 
	BYTE	W12
	BYTE		        An0 
	BYTE	W12
	BYTE		        En0 
	BYTE	W12
// 037   ----------------------------------------
	BYTE		        An0 
	BYTE	W12
	BYTE		        En0 
	BYTE	W12
	BYTE		        An0 
	BYTE	W12
	BYTE		        En0 
	BYTE	W12
	BYTE		N42     An0 
	BYTE	W44
	BYTE	GoTo
	 POIN2	WardenThemeSong_1_B1
WardenThemeSong_1_B2:
	BYTE	FINE

//**************** Track 2 (Midi-Chn.2) ****************//

WardenThemeSong_2:
	BYTE	KEYSH   WardenThemeSong_key+0
WardenThemeSong_2_B1:
// 000   ----------------------------------------
	BYTE		VOICE   30
	BYTE		MODT    0
	BYTE		LFOS    44
	BYTE		PAN     c_v-19
	BYTE		VOL     127*WardenThemeSong_mvl/mxv
	BYTE	W96
// 001   ----------------------------------------
	BYTE	W84
	BYTE		N11     Gn1   v100
	BYTE	W12
// 002   ----------------------------------------
	BYTE		N20     An1 
	BYTE	W96
// 003   ----------------------------------------
	BYTE	W84
	BYTE		N11     Gn1 
	BYTE	W12
// 004   ----------------------------------------
WardenThemeSong_2_004:
	BYTE		N11     Fn1   v100
	BYTE	W12
	BYTE		N05   
	BYTE	W06
	BYTE		N05   
	BYTE	W06
	BYTE		N11   
	BYTE	W12
	BYTE		N05   
	BYTE	W06
	BYTE		N05   
	BYTE	W06
	BYTE		N11     Gn1 
	BYTE	W12
	BYTE		N05   
	BYTE	W06
	BYTE		N05   
	BYTE	W06
	BYTE		N11   
	BYTE	W12
	BYTE		N05   
	BYTE	W06
	BYTE		N05   
	BYTE	W06
	BYTE	PEND
// 005   ----------------------------------------
WardenThemeSong_2_005:
	BYTE		N11     Fn1   v100
	BYTE	W12
	BYTE		N05   
	BYTE	W06
	BYTE		N05   
	BYTE	W06
	BYTE		N11   
	BYTE	W12
	BYTE		N05   
	BYTE	W06
	BYTE		N05   
	BYTE	W06
	BYTE		N11   
	BYTE	W12
	BYTE		N05   
	BYTE	W06
	BYTE		N05   
	BYTE	W06
	BYTE		N11   
	BYTE	W12
	BYTE		N05   
	BYTE	W06
	BYTE		N05   
	BYTE	W06
	BYTE	PEND
// 006   ----------------------------------------
	BYTE	PATT
	 POIN2	WardenThemeSong_2_004
// 007   ----------------------------------------
WardenThemeSong_2_007:
	BYTE		N11     Cn2   v100
	BYTE	W12
	BYTE		N05   
	BYTE	W06
	BYTE		N05   
	BYTE	W06
	BYTE		N11   
	BYTE	W12
	BYTE		N05   
	BYTE	W06
	BYTE		N05   
	BYTE	W06
	BYTE		N11     Bn1 
	BYTE	W12
	BYTE		N05   
	BYTE	W06
	BYTE		N05   
	BYTE	W06
	BYTE		N11   
	BYTE	W12
	BYTE		N05   
	BYTE	W06
	BYTE		N05   
	BYTE	W06
	BYTE	PEND
// 008   ----------------------------------------
WardenThemeSong_2_008:
	BYTE		N11     An1   v100
	BYTE	W12
	BYTE		N05   
	BYTE	W06
	BYTE		N05   
	BYTE	W06
	BYTE		N11   
	BYTE	W12
	BYTE		N05   
	BYTE	W06
	BYTE		N05   
	BYTE	W06
	BYTE		N11   
	BYTE	W12
	BYTE		N05   
	BYTE	W06
	BYTE		N05   
	BYTE	W06
	BYTE		N11   
	BYTE	W12
	BYTE		N05   
	BYTE	W06
	BYTE		N05   
	BYTE	W06
	BYTE	PEND
// 009   ----------------------------------------
	BYTE	PATT
	 POIN2	WardenThemeSong_2_005
// 010   ----------------------------------------
WardenThemeSong_2_010:
	BYTE		N11     Dn1   v100
	BYTE	W12
	BYTE		N05   
	BYTE	W06
	BYTE		N05   
	BYTE	W06
	BYTE		N11   
	BYTE	W12
	BYTE		N05   
	BYTE	W06
	BYTE		N05   
	BYTE	W06
	BYTE		N11   
	BYTE	W12
	BYTE		N05   
	BYTE	W06
	BYTE		N05   
	BYTE	W06
	BYTE		N11   
	BYTE	W12
	BYTE		N05   
	BYTE	W06
	BYTE		N05   
	BYTE	W06
	BYTE	PEND
// 011   ----------------------------------------
WardenThemeSong_2_011:
	BYTE		N11     Gn1   v100
	BYTE	W12
	BYTE		N05   
	BYTE	W06
	BYTE		N05   
	BYTE	W06
	BYTE		N11   
	BYTE	W12
	BYTE		N05   
	BYTE	W06
	BYTE		N05   
	BYTE	W06
	BYTE		N11   
	BYTE	W12
	BYTE		N05   
	BYTE	W06
	BYTE		N05   
	BYTE	W06
	BYTE		N11   
	BYTE	W12
	BYTE		N05   
	BYTE	W06
	BYTE		N05   
	BYTE	W06
	BYTE	PEND
// 012   ----------------------------------------
WardenThemeSong_2_012:
	BYTE		N11     Cn2   v100
	BYTE	W12
	BYTE		N05   
	BYTE	W06
	BYTE		N05   
	BYTE	W06
	BYTE		N11   
	BYTE	W12
	BYTE		N05   
	BYTE	W06
	BYTE		N05   
	BYTE	W06
	BYTE		N11   
	BYTE	W12
	BYTE		N05   
	BYTE	W06
	BYTE		N05   
	BYTE	W06
	BYTE		N11   
	BYTE	W12
	BYTE		N05   
	BYTE	W06
	BYTE		N05   
	BYTE	W06
	BYTE	PEND
// 013   ----------------------------------------
	BYTE	PATT
	 POIN2	WardenThemeSong_2_008
// 014   ----------------------------------------
	BYTE	PATT
	 POIN2	WardenThemeSong_2_005
// 015   ----------------------------------------
	BYTE	PATT
	 POIN2	WardenThemeSong_2_011
// 016   ----------------------------------------
	BYTE	PATT
	 POIN2	WardenThemeSong_2_012
// 017   ----------------------------------------
	BYTE	PATT
	 POIN2	WardenThemeSong_2_008
// 018   ----------------------------------------
	BYTE	PATT
	 POIN2	WardenThemeSong_2_005
// 019   ----------------------------------------
	BYTE	PATT
	 POIN2	WardenThemeSong_2_011
// 020   ----------------------------------------
	BYTE	W96
// 021   ----------------------------------------
	BYTE	W96
// 022   ----------------------------------------
	BYTE	W96
// 023   ----------------------------------------
	BYTE	W96
// 024   ----------------------------------------
	BYTE	W96
// 025   ----------------------------------------
	BYTE	W96
// 026   ----------------------------------------
	BYTE	W96
// 027   ----------------------------------------
	BYTE	W96
// 028   ----------------------------------------
	BYTE	PATT
	 POIN2	WardenThemeSong_2_004
// 029   ----------------------------------------
	BYTE	PATT
	 POIN2	WardenThemeSong_2_005
// 030   ----------------------------------------
	BYTE	PATT
	 POIN2	WardenThemeSong_2_004
// 031   ----------------------------------------
	BYTE	PATT
	 POIN2	WardenThemeSong_2_007
// 032   ----------------------------------------
	BYTE	PATT
	 POIN2	WardenThemeSong_2_008
// 033   ----------------------------------------
	BYTE	PATT
	 POIN2	WardenThemeSong_2_005
// 034   ----------------------------------------
	BYTE	PATT
	 POIN2	WardenThemeSong_2_010
// 035   ----------------------------------------
	BYTE	PATT
	 POIN2	WardenThemeSong_2_011
// 036   ----------------------------------------
	BYTE		TIE     An1   v100
	BYTE	W96
// 037   ----------------------------------------
	BYTE	W90
	BYTE		EOT   
	BYTE	W02
	BYTE	GoTo
	 POIN2	WardenThemeSong_2_B1
WardenThemeSong_2_B2:
	BYTE	FINE

//**************** Track 3 (Midi-Chn.3) ****************//

WardenThemeSong_3:
	BYTE	KEYSH   WardenThemeSong_key+0
WardenThemeSong_3_B1:
// 000   ----------------------------------------
	BYTE		VOICE   61
	BYTE		MODT    0
	BYTE		LFOS    44
	BYTE		PAN     c_v+21
	BYTE		VOL     127*WardenThemeSong_mvl/mxv
	BYTE	W96
// 001   ----------------------------------------
	BYTE	W96
// 002   ----------------------------------------
	BYTE	W96
// 003   ----------------------------------------
	BYTE	W96
// 004   ----------------------------------------
	BYTE		N20     Cn4   v100
	BYTE	W24
	BYTE		N11     An3 
	BYTE	W12
	BYTE		        Cn4 
	BYTE	W12
	BYTE		N17     Bn3 
	BYTE	W18
	BYTE		N05     An3 
	BYTE	W06
	BYTE		N11     Gn3 
	BYTE	W12
	BYTE		        Bn3 
	BYTE	W12
// 005   ----------------------------------------
	BYTE		N20     An3 
	BYTE	W24
	BYTE		N66     Fn3 
	BYTE	W72
// 006   ----------------------------------------
	BYTE		N20     Cn4 
	BYTE	W24
	BYTE		N11     En4 
	BYTE	W12
	BYTE		        Cn4 
	BYTE	W12
	BYTE		N17     Dn4 
	BYTE	W18
	BYTE		N05     En4 
	BYTE	W06
	BYTE		N11     Fn4 
	BYTE	W12
	BYTE		        Dn4 
	BYTE	W12
// 007   ----------------------------------------
	BYTE		        En4 
	BYTE	W12
	BYTE		        Fn4 
	BYTE	W12
	BYTE		        Gn4 
	BYTE	W12
	BYTE		        Fn4 
	BYTE	W12
	BYTE		N42     En4 
	BYTE	W48
// 008   ----------------------------------------
	BYTE		N05   
	BYTE	W06
	BYTE		        Dn4 
	BYTE	W06
	BYTE		        Cn4 
	BYTE	W06
	BYTE		        En4 
	BYTE	W06
	BYTE		N11     An4 
	BYTE	W12
	BYTE		        Gn4 
	BYTE	W12
	BYTE		        En4 
	BYTE	W12
	BYTE		N20     Cn4 
	BYTE	W24
	BYTE		N11     En4 
	BYTE	W12
// 009   ----------------------------------------
	BYTE		N05     An4 
	BYTE	W06
	BYTE		        Gn4 
	BYTE	W06
	BYTE		        Fn4 
	BYTE	W06
	BYTE		        An4 
	BYTE	W06
	BYTE		N11     Cn5 
	BYTE	W12
	BYTE		        Bn4 
	BYTE	W12
	BYTE		        An4 
	BYTE	W12
	BYTE		N20     Fn4 
	BYTE	W24
	BYTE		N11     En4 
	BYTE	W12
// 010   ----------------------------------------
	BYTE		N17     Dn4 
	BYTE	W18
	BYTE		N05     En4 
	BYTE	W06
	BYTE		N11     Fn4 
	BYTE	W12
	BYTE		        Gn4 
	BYTE	W12
	BYTE		        An4 
	BYTE	W12
	BYTE		        Gn4 
	BYTE	W12
	BYTE		        Fn4 
	BYTE	W12
	BYTE		        An4 
	BYTE	W12
// 011   ----------------------------------------
	BYTE		        Gn4 
	BYTE	W12
	BYTE		        Fn4 
	BYTE	W12
	BYTE		        En4 
	BYTE	W12
	BYTE		N05     Fn4 
	BYTE	W06
	BYTE		        En4 
	BYTE	W06
	BYTE		N42     Dn4 
	BYTE	W48
// 012   ----------------------------------------
	BYTE		N05     En4 
	BYTE	W06
	BYTE		        Dn4 
	BYTE	W06
	BYTE		        En4 
	BYTE	W06
	BYTE		        Fn4 
	BYTE	W06
	BYTE		N11     Gn4 
	BYTE	W12
	BYTE		        Fn4 
	BYTE	W12
	BYTE		N32     En4 
	BYTE	W36
	BYTE		N11     Dn4 
	BYTE	W12
// 013   ----------------------------------------
	BYTE		N05     En4 
	BYTE	W06
	BYTE		        Dn4 
	BYTE	W06
	BYTE		        En4 
	BYTE	W06
	BYTE		        Fn4 
	BYTE	W06
	BYTE		N11     Gn4 
	BYTE	W12
	BYTE		        Fn4 
	BYTE	W12
	BYTE		N32     En4 
	BYTE	W36
	BYTE		N11     Gn4 
	BYTE	W12
// 014   ----------------------------------------
	BYTE		        An4 
	BYTE	W12
	BYTE		        Fn4 
	BYTE	W12
	BYTE		N11   
	BYTE	W12
	BYTE		        En4 
	BYTE	W12
	BYTE		N17     Fn4 
	BYTE	W18
	BYTE		N05     En4 
	BYTE	W06
	BYTE		N11     Dn4 
	BYTE	W12
	BYTE		        Fn4 
	BYTE	W12
// 015   ----------------------------------------
	BYTE		        Gn4 
	BYTE	W12
	BYTE		        An4 
	BYTE	W12
	BYTE		        Bn4 
	BYTE	W12
	BYTE		        An4 
	BYTE	W12
	BYTE		N42     Gn4 
	BYTE	W48
// 016   ----------------------------------------
	BYTE		N05   
	BYTE	W06
	BYTE		        Fn4 
	BYTE	W06
	BYTE		        En4 
	BYTE	W06
	BYTE		        Fn4 
	BYTE	W06
	BYTE		N11     Gn4 
	BYTE	W12
	BYTE		        Fn4 
	BYTE	W12
	BYTE		N32     En4 
	BYTE	W36
	BYTE		N11     Gn4 
	BYTE	W12
// 017   ----------------------------------------
	BYTE		N05     An4 
	BYTE	W06
	BYTE		        Gn4 
	BYTE	W06
	BYTE		        En4 
	BYTE	W06
	BYTE		        An4 
	BYTE	W06
	BYTE		N11     Cn5 
	BYTE	W12
	BYTE		        Bn4 
	BYTE	W12
	BYTE		N32     An4 
	BYTE	W36
	BYTE		N11     Gn4 
	BYTE	W12
// 018   ----------------------------------------
	BYTE		        Fn4 
	BYTE	W12
	BYTE		        En4 
	BYTE	W12
	BYTE		        Fn4 
	BYTE	W12
	BYTE		        Gn4 
	BYTE	W12
	BYTE		N05     An4 
	BYTE	W06
	BYTE		        Gn4 
	BYTE	W06
	BYTE		        Fn4 
	BYTE	W06
	BYTE		        Gn4 
	BYTE	W06
	BYTE		        An4 
	BYTE	W06
	BYTE		        Gn4 
	BYTE	W06
	BYTE		        Fn4 
	BYTE	W06
	BYTE		        Gn4 
	BYTE	W06
// 019   ----------------------------------------
	BYTE		        Bn4 
	BYTE	W06
	BYTE		        An4 
	BYTE	W06
	BYTE		        Gn4 
	BYTE	W06
	BYTE		        Fn4 
	BYTE	W06
	BYTE		N11     En4 
	BYTE	W12
	BYTE		N05     Dn4 
	BYTE	W06
	BYTE		        Cn4 
	BYTE	W06
	BYTE		N42     Dn4 
	BYTE	W48
// 020   ----------------------------------------
	BYTE	W96
// 021   ----------------------------------------
	BYTE	W96
// 022   ----------------------------------------
	BYTE	W96
// 023   ----------------------------------------
	BYTE	W96
// 024   ----------------------------------------
	BYTE	W96
// 025   ----------------------------------------
	BYTE	W96
// 026   ----------------------------------------
	BYTE	W96
// 027   ----------------------------------------
	BYTE	W96
// 028   ----------------------------------------
	BYTE		N20     Fn4 
	BYTE	W24
	BYTE		N11     An4 
	BYTE	W12
	BYTE		        Fn4 
	BYTE	W12
	BYTE		N17     Gn4 
	BYTE	W18
	BYTE		N05     Fn4 
	BYTE	W06
	BYTE		N11     En4 
	BYTE	W12
	BYTE		        Dn4 
	BYTE	W12
// 029   ----------------------------------------
	BYTE		        Cn4 
	BYTE	W12
	BYTE		        Bn3 
	BYTE	W12
	BYTE		N66     An3 
	BYTE	W72
// 030   ----------------------------------------
	BYTE		N11     Cn4 
	BYTE	W12
	BYTE		        En4 
	BYTE	W12
	BYTE		N20     Fn4 
	BYTE	W24
	BYTE		N17     Gn4 
	BYTE	W18
	BYTE		N05     An4 
	BYTE	W06
	BYTE		N11     Bn4 
	BYTE	W12
	BYTE		        Dn5 
	BYTE	W12
// 031   ----------------------------------------
	BYTE		N42     Cn5 
	BYTE	W48
	BYTE		        Bn4 
	BYTE	W48
// 032   ----------------------------------------
	BYTE		N05     An4 
	BYTE	W06
	BYTE		        Gn4 
	BYTE	W06
	BYTE		        En4 
	BYTE	W06
	BYTE		        Dn4 
	BYTE	W06
	BYTE		        Cn4 
	BYTE	W06
	BYTE		        Dn4 
	BYTE	W06
	BYTE		        En4 
	BYTE	W06
	BYTE		        Fn4 
	BYTE	W06
	BYTE		        Gn4 
	BYTE	W06
	BYTE		        An4 
	BYTE	W06
	BYTE		        Gn4 
	BYTE	W06
	BYTE		        An4 
	BYTE	W06
	BYTE		N20     Cn5 
	BYTE	W24
// 033   ----------------------------------------
	BYTE		N05     An4 
	BYTE	W06
	BYTE		        Gn4 
	BYTE	W06
	BYTE		        Fn4 
	BYTE	W06
	BYTE		        En4 
	BYTE	W06
	BYTE		        Cn4 
	BYTE	W06
	BYTE		        Dn4 
	BYTE	W06
	BYTE		        Fn4 
	BYTE	W06
	BYTE		        An4 
	BYTE	W06
	BYTE		        Gn4 
	BYTE	W06
	BYTE		        Fn4 
	BYTE	W06
	BYTE		        Gn4 
	BYTE	W06
	BYTE		        Fn4 
	BYTE	W06
	BYTE		N20     An4 
	BYTE	W24
// 034   ----------------------------------------
	BYTE		N05     Fn4 
	BYTE	W06
	BYTE		        En4 
	BYTE	W06
	BYTE		        Dn4 
	BYTE	W06
	BYTE		        Cn4 
	BYTE	W06
	BYTE		        Dn4 
	BYTE	W06
	BYTE		        En4 
	BYTE	W06
	BYTE		        Fn4 
	BYTE	W06
	BYTE		        An4 
	BYTE	W06
	BYTE		        Cn5 
	BYTE	W06
	BYTE		        Dn5 
	BYTE	W06
	BYTE		        Cn5 
	BYTE	W06
	BYTE		        Dn5 
	BYTE	W06
	BYTE		N20     Fn5 
	BYTE	W24
// 035   ----------------------------------------
	BYTE		N05     Dn5 
	BYTE	W06
	BYTE		        Cn5 
	BYTE	W06
	BYTE		        Bn4 
	BYTE	W06
	BYTE		        An4 
	BYTE	W06
	BYTE		        Gn4 
	BYTE	W06
	BYTE		        Fn4 
	BYTE	W06
	BYTE		        En4 
	BYTE	W06
	BYTE		        Dn4 
	BYTE	W06
	BYTE		        Bn3 
	BYTE	W06
	BYTE		        Cn4 
	BYTE	W06
	BYTE		        Dn4 
	BYTE	W06
	BYTE		        Gn4 
	BYTE	W06
	BYTE		        Bn4 
	BYTE	W06
	BYTE		        An4 
	BYTE	W06
	BYTE		        Gn4 
	BYTE	W06
	BYTE		        Bn4 
	BYTE	W06
// 036   ----------------------------------------
	BYTE		TIE     An4 
	BYTE	W96
// 037   ----------------------------------------
	BYTE	W90
	BYTE		EOT   
	BYTE	W02
	BYTE	GoTo
	 POIN2	WardenThemeSong_3_B1
WardenThemeSong_3_B2:
	BYTE	FINE

//**************** Track 4 (Midi-Chn.4) ****************//

WardenThemeSong_4:
	BYTE	KEYSH   WardenThemeSong_key+0
WardenThemeSong_4_B1:
// 000   ----------------------------------------
	BYTE		VOICE   48
	BYTE		MODT    0
	BYTE		LFOS    44
	BYTE		PAN     c_v-8
	BYTE		VOL     127*WardenThemeSong_mvl/mxv
	BYTE	W96
// 001   ----------------------------------------
	BYTE	W96
// 002   ----------------------------------------
	BYTE	W96
// 003   ----------------------------------------
	BYTE	W96
// 004   ----------------------------------------
WardenThemeSong_4_004:
	BYTE		N48     Cn3   v100
	BYTE		N48     Fn3 
	BYTE		N48     An3 
	BYTE	W48
	BYTE		        Dn3 
	BYTE		N48     Gn3 
	BYTE		N48     Bn3 
	BYTE	W48
	BYTE	PEND
// 005   ----------------------------------------
WardenThemeSong_4_005:
	BYTE		TIE     Cn3   v100
	BYTE		TIE     Fn3 
	BYTE		TIE     An3 
	BYTE	W96
	BYTE	PEND
// 006   ----------------------------------------
	BYTE	W48
	BYTE		EOT     Cn3 
	BYTE		        Fn3 
	BYTE		        An3 
	BYTE		N42     Dn3 
	BYTE		N96     Gn3 
	BYTE		N42     Bn3 
	BYTE	W48
// 007   ----------------------------------------
WardenThemeSong_4_007:
	BYTE		N48     En3   v100
	BYTE		N48     Cn4 
	BYTE	W48
	BYTE		        En3 
	BYTE		N48     Gs3 
	BYTE		N48     Bn3 
	BYTE	W48
	BYTE	PEND
// 008   ----------------------------------------
WardenThemeSong_4_008:
	BYTE		TIE     Cn3   v100
	BYTE		N90     En3 
	BYTE		TIE     An3 
	BYTE	W96
	BYTE	PEND
// 009   ----------------------------------------
	BYTE		        Fn3 
	BYTE	W90
	BYTE		EOT     Cn3 
	BYTE	W06
// 010   ----------------------------------------
	BYTE		TIE     Dn3 
	BYTE	W90
	BYTE		EOT     Fn3 
	BYTE		        An3 
	BYTE	W06
// 011   ----------------------------------------
	BYTE		TIE     Gn3 
	BYTE		N90     Bn3 
	BYTE	W90
	BYTE		EOT     Dn3 
	BYTE	W06
// 012   ----------------------------------------
WardenThemeSong_4_012:
	BYTE		TIE     En3   v100
	BYTE		TIE     Cn4 
	BYTE	W90
	BYTE	PEND
	BYTE		EOT     Gn3 
	BYTE	W06
// 013   ----------------------------------------
	BYTE		TIE     An3 
	BYTE	W90
	BYTE		EOT     En3 
	BYTE	W06
// 014   ----------------------------------------
	BYTE		N96     Fn3 
	BYTE	W96
	BYTE		EOT     An3 
	BYTE		        Cn4 
// 015   ----------------------------------------
	BYTE		N90     Dn3 
	BYTE		TIE     Gn3 
	BYTE		N90     Bn3 
	BYTE	W96
// 016   ----------------------------------------
	BYTE	PATT
	 POIN2	WardenThemeSong_4_012
	BYTE		EOT     Gn3 
	BYTE	W06
// 017   ----------------------------------------
	BYTE		TIE     An3   v100
	BYTE	W90
	BYTE		EOT     En3 
	BYTE	W06
// 018   ----------------------------------------
	BYTE		N96     Fn3 
	BYTE	W96
	BYTE		EOT     An3 
	BYTE		        Cn4 
// 019   ----------------------------------------
	BYTE		N90     Dn3 
	BYTE		N90     Gn3 
	BYTE		N90     Bn3 
	BYTE	W96
// 020   ----------------------------------------
WardenThemeSong_4_020:
	BYTE		N06     An3   v100
	BYTE		N06     Cn4 
	BYTE		N06     En4 
	BYTE	W24
	BYTE		        An3 
	BYTE		N06     Cn4 
	BYTE		N06     En4 
	BYTE	W24
	BYTE		        An3 
	BYTE		N06     Cn4 
	BYTE		N06     Fn4 
	BYTE	W24
	BYTE		        An3 
	BYTE		N06     Cn4 
	BYTE		N06     Fn4 
	BYTE	W24
	BYTE	PEND
// 021   ----------------------------------------
WardenThemeSong_4_021:
	BYTE		N06     Cn4   v100
	BYTE		N06     En4 
	BYTE		N06     Gn4 
	BYTE	W24
	BYTE		        Cn4 
	BYTE		N06     En4 
	BYTE		N06     Gn4 
	BYTE	W24
	BYTE		        An3 
	BYTE		N06     Cn4 
	BYTE		N06     Fn4 
	BYTE	W24
	BYTE		        An3 
	BYTE		N06     Cn4 
	BYTE		N06     Fn4 
	BYTE	W24
	BYTE	PEND
// 022   ----------------------------------------
WardenThemeSong_4_022:
	BYTE		N06     Gn3   v100
	BYTE		N06     Cn4 
	BYTE		N06     En4 
	BYTE	W24
	BYTE		        Gn3 
	BYTE		N06     Cn4 
	BYTE		N06     En4 
	BYTE	W24
	BYTE		        Fn3 
	BYTE		N06     An3 
	BYTE		N06     Dn4 
	BYTE	W24
	BYTE		        Fn3 
	BYTE		N06     An3 
	BYTE		N06     Dn4 
	BYTE	W24
	BYTE	PEND
// 023   ----------------------------------------
WardenThemeSong_4_023:
	BYTE		N06     En3   v100
	BYTE		N06     An3 
	BYTE		N06     Cn4 
	BYTE	W24
	BYTE		        En3 
	BYTE		N06     An3 
	BYTE		N06     Cn4 
	BYTE	W24
	BYTE		        Gs3 
	BYTE		N06     Bn3 
	BYTE		N06     En4 
	BYTE	W24
	BYTE		        Gs3 
	BYTE		N06     Bn3 
	BYTE		N06     En4 
	BYTE	W24
	BYTE	PEND
// 024   ----------------------------------------
	BYTE	PATT
	 POIN2	WardenThemeSong_4_020
// 025   ----------------------------------------
	BYTE	PATT
	 POIN2	WardenThemeSong_4_021
// 026   ----------------------------------------
	BYTE	PATT
	 POIN2	WardenThemeSong_4_022
// 027   ----------------------------------------
	BYTE	PATT
	 POIN2	WardenThemeSong_4_023
// 028   ----------------------------------------
	BYTE	PATT
	 POIN2	WardenThemeSong_4_004
// 029   ----------------------------------------
	BYTE	PATT
	 POIN2	WardenThemeSong_4_005
// 030   ----------------------------------------
	BYTE	W48
	BYTE		EOT     Cn3 
	BYTE		        Fn3 
	BYTE		        An3 
	BYTE		N42     Dn3   v100
	BYTE		N96     Gn3 
	BYTE		N42     Bn3 
	BYTE	W48
// 031   ----------------------------------------
	BYTE	PATT
	 POIN2	WardenThemeSong_4_007
// 032   ----------------------------------------
	BYTE	PATT
	 POIN2	WardenThemeSong_4_008
// 033   ----------------------------------------
	BYTE		TIE     Fn3   v100
	BYTE	W90
	BYTE		EOT     Cn3 
	BYTE	W06
// 034   ----------------------------------------
	BYTE		TIE     Dn3 
	BYTE	W90
	BYTE		EOT     Fn3 
	BYTE		        An3 
	BYTE	W06
// 035   ----------------------------------------
	BYTE		N90     Gn3 
	BYTE		N90     Bn3 
	BYTE	W90
	BYTE		EOT     Dn3 
	BYTE	W06
// 036   ----------------------------------------
	BYTE		TIE     Cn3 
	BYTE		TIE     En3 
	BYTE		TIE     An3 
	BYTE	W96
// 037   ----------------------------------------
	BYTE	W90
	BYTE		EOT     Cn3 
	BYTE		        En3 
	BYTE		        An3 
	BYTE	W02
	BYTE	GoTo
	 POIN2	WardenThemeSong_4_B1
WardenThemeSong_4_B2:
	BYTE	FINE

//**************** Track 5 (Midi-Chn.5) ****************//

WardenThemeSong_5:
	BYTE	KEYSH   WardenThemeSong_key+0
WardenThemeSong_5_B1:
// 000   ----------------------------------------
	BYTE		VOICE   127
	BYTE		MODT    0
	BYTE		LFOS    44
	BYTE		VOL     127*WardenThemeSong_mvl/mxv
	BYTE		PAN     c_v+0
	BYTE		N11     Bn0   v100
	BYTE		N11     Cn1 
	BYTE		N11     Gs1 
	BYTE	W12
	BYTE		N11   
	BYTE	W12
	BYTE		        Dn1 
	BYTE		N11     En1 
	BYTE		N11     Gs1 
	BYTE	W12
	BYTE		N11   
	BYTE	W12
	BYTE		N05     Bn0 
	BYTE		N05     Cn1 
	BYTE		N05     Gs1 
	BYTE	W18
	BYTE		        Bn0 
	BYTE		N05     Cn1 
	BYTE	W06
	BYTE		N11     Dn1 
	BYTE		N11     En1 
	BYTE		N11     Gs1 
	BYTE	W12
	BYTE		        Bn0 
	BYTE		N11     Cn1 
	BYTE		N11     Gs1 
	BYTE	W12
// 001   ----------------------------------------
WardenThemeSong_5_001:
	BYTE		N11     Bn0   v100
	BYTE		N11     Cn1 
	BYTE		N11     Gs1 
	BYTE	W12
	BYTE		N11   
	BYTE	W12
	BYTE		        Dn1 
	BYTE		N11     En1 
	BYTE		N11     Gs1 
	BYTE	W12
	BYTE		N11   
	BYTE	W12
	BYTE		N05     Bn0 
	BYTE		N05     Cn1 
	BYTE		N05     Gs1 
	BYTE	W18
	BYTE		        Bn0 
	BYTE		N05     Cn1 
	BYTE	W06
	BYTE		N11     Dn1 
	BYTE		N11     En1 
	BYTE		N11     Gs1 
	BYTE	W12
	BYTE		        Bn0 
	BYTE		N11     Cn1 
	BYTE		N11     Gs1 
	BYTE	W12
	BYTE	PEND
// 002   ----------------------------------------
	BYTE	PATT
	 POIN2	WardenThemeSong_5_001
// 003   ----------------------------------------
	BYTE	PATT
	 POIN2	WardenThemeSong_5_001
// 004   ----------------------------------------
	BYTE		N11     Bn0   v100
	BYTE		N11     Cn1 
	BYTE		N11     Gs1 
	BYTE		TIE     En2   v088
	BYTE		N60     An2   v127
	BYTE	W12
	BYTE		N11     Gs1   v100
	BYTE	W12
	BYTE		        Dn1 
	BYTE		N11     En1 
	BYTE		N11     Gs1 
	BYTE	W12
	BYTE		N11   
	BYTE	W12
	BYTE		N05     Bn0 
	BYTE		N05     Cn1 
	BYTE		N05     Gs1 
	BYTE	W18
	BYTE		        Bn0 
	BYTE		N05     Cn1 
	BYTE	W06
	BYTE		N11     Dn1 
	BYTE		N11     En1 
	BYTE		N11     Gs1 
	BYTE	W12
	BYTE		        Bn0 
	BYTE		N11     Cn1 
	BYTE		N11     Gs1 
	BYTE	W12
// 005   ----------------------------------------
	BYTE		        Bn0 
	BYTE		N11     Cn1 
	BYTE		N11     Gs1 
	BYTE	W12
	BYTE		N11   
	BYTE	W12
	BYTE		EOT     En2 
	BYTE		N11     Dn1 
	BYTE		N11     En1 
	BYTE		N11     Gs1 
	BYTE	W12
	BYTE		N11   
	BYTE	W12
	BYTE		N05     Bn0 
	BYTE		N05     Cn1 
	BYTE		N05     Gs1 
	BYTE	W18
	BYTE		        Bn0 
	BYTE		N05     Cn1 
	BYTE	W06
	BYTE		N11     Dn1 
	BYTE		N11     En1 
	BYTE		N11     Gs1 
	BYTE	W12
	BYTE		        Bn0 
	BYTE		N11     Cn1 
	BYTE		N11     Gs1 
	BYTE	W12
// 006   ----------------------------------------
	BYTE	PATT
	 POIN2	WardenThemeSong_5_001
// 007   ----------------------------------------
	BYTE	PATT
	 POIN2	WardenThemeSong_5_001
// 008   ----------------------------------------
	BYTE	PATT
	 POIN2	WardenThemeSong_5_001
// 009   ----------------------------------------
	BYTE	PATT
	 POIN2	WardenThemeSong_5_001
// 010   ----------------------------------------
	BYTE	PATT
	 POIN2	WardenThemeSong_5_001
// 011   ----------------------------------------
	BYTE	PATT
	 POIN2	WardenThemeSong_5_001
// 012   ----------------------------------------
	BYTE	PATT
	 POIN2	WardenThemeSong_5_001
// 013   ----------------------------------------
	BYTE	PATT
	 POIN2	WardenThemeSong_5_001
// 014   ----------------------------------------
	BYTE	PATT
	 POIN2	WardenThemeSong_5_001
// 015   ----------------------------------------
	BYTE	PATT
	 POIN2	WardenThemeSong_5_001
// 016   ----------------------------------------
	BYTE	PATT
	 POIN2	WardenThemeSong_5_001
// 017   ----------------------------------------
	BYTE	PATT
	 POIN2	WardenThemeSong_5_001
// 018   ----------------------------------------
	BYTE	PATT
	 POIN2	WardenThemeSong_5_001
// 019   ----------------------------------------
	BYTE	PATT
	 POIN2	WardenThemeSong_5_001
// 020   ----------------------------------------
WardenThemeSong_5_020:
	BYTE		N11     Bn0   v100
	BYTE		N11     Cn1 
	BYTE		N11     Gs1 
	BYTE	W12
	BYTE		N11   
	BYTE	W12
	BYTE		        Bn0 
	BYTE		N11     Cn1 
	BYTE		N11     Gs1 
	BYTE	W12
	BYTE		N11   
	BYTE	W12
	BYTE		        Bn0 
	BYTE		N11     Cn1 
	BYTE		N11     Gs1 
	BYTE	W12
	BYTE		N11   
	BYTE	W12
	BYTE		        Bn0 
	BYTE		N11     Cn1 
	BYTE		N11     Gs1 
	BYTE	W12
	BYTE		N11   
	BYTE	W12
	BYTE	PEND
// 021   ----------------------------------------
	BYTE	PATT
	 POIN2	WardenThemeSong_5_020
// 022   ----------------------------------------
	BYTE	PATT
	 POIN2	WardenThemeSong_5_020
// 023   ----------------------------------------
	BYTE	PATT
	 POIN2	WardenThemeSong_5_020
// 024   ----------------------------------------
	BYTE	PATT
	 POIN2	WardenThemeSong_5_001
// 025   ----------------------------------------
	BYTE	PATT
	 POIN2	WardenThemeSong_5_001
// 026   ----------------------------------------
	BYTE	PATT
	 POIN2	WardenThemeSong_5_001
// 027   ----------------------------------------
	BYTE	PATT
	 POIN2	WardenThemeSong_5_001
// 028   ----------------------------------------
	BYTE	PATT
	 POIN2	WardenThemeSong_5_001
// 029   ----------------------------------------
	BYTE	PATT
	 POIN2	WardenThemeSong_5_001
// 030   ----------------------------------------
	BYTE	PATT
	 POIN2	WardenThemeSong_5_001
// 031   ----------------------------------------
	BYTE	PATT
	 POIN2	WardenThemeSong_5_001
// 032   ----------------------------------------
	BYTE	PATT
	 POIN2	WardenThemeSong_5_001
// 033   ----------------------------------------
	BYTE	PATT
	 POIN2	WardenThemeSong_5_001
// 034   ----------------------------------------
	BYTE	PATT
	 POIN2	WardenThemeSong_5_001
// 035   ----------------------------------------
	BYTE	PATT
	 POIN2	WardenThemeSong_5_001
// 036   ----------------------------------------
	BYTE	PATT
	 POIN2	WardenThemeSong_5_001
// 037   ----------------------------------------
	BYTE		N11     Bn0   v100
	BYTE		N11     Cn1 
	BYTE		N11     Gs1 
	BYTE	W12
	BYTE		N11   
	BYTE	W12
	BYTE		        Dn1 
	BYTE		N11     En1 
	BYTE		N11     Gs1 
	BYTE	W12
	BYTE		N11   
	BYTE	W12
	BYTE		        Bn0 
	BYTE		N11     Cn1 
	BYTE		N11     Gs1 
	BYTE	W12
	BYTE		N11   
	BYTE	W12
	BYTE		N20     Bn0 
	BYTE		N20     Cn1 
	BYTE		N20     Dn1 
	BYTE		N20     En1 
	BYTE		N20     Gs1 
	BYTE		N20     An1 
	BYTE		N20     Bn1 
	BYTE		N20     Cn2 
	BYTE		N20     An2 
	BYTE	W20
	BYTE	GoTo
	 POIN2	WardenThemeSong_5_B1
WardenThemeSong_5_B2:
	BYTE	FINE

//**************** Track 6 (Midi-Chn.6) ****************//

WardenThemeSong_6:
	BYTE	KEYSH   WardenThemeSong_key+0
WardenThemeSong_6_B1:
// 000   ----------------------------------------
	BYTE		VOICE   46
	BYTE		MODT    0
	BYTE		LFOS    44
	BYTE		PAN     c_v-22
	BYTE		VOL     127*WardenThemeSong_mvl/mxv
	BYTE	W96
// 001   ----------------------------------------
	BYTE	W96
// 002   ----------------------------------------
	BYTE	W96
// 003   ----------------------------------------
	BYTE	W96
// 004   ----------------------------------------
	BYTE	W96
// 005   ----------------------------------------
	BYTE	W96
// 006   ----------------------------------------
	BYTE	W96
// 007   ----------------------------------------
	BYTE	W96
// 008   ----------------------------------------
	BYTE	W96
// 009   ----------------------------------------
	BYTE	W96
// 010   ----------------------------------------
	BYTE	W96
// 011   ----------------------------------------
	BYTE	W96
// 012   ----------------------------------------
	BYTE	W96
// 013   ----------------------------------------
	BYTE	W96
// 014   ----------------------------------------
	BYTE	W96
// 015   ----------------------------------------
	BYTE	W96
// 016   ----------------------------------------
	BYTE	W96
// 017   ----------------------------------------
	BYTE	W96
// 018   ----------------------------------------
	BYTE	W96
// 019   ----------------------------------------
	BYTE	W96
// 020   ----------------------------------------
WardenThemeSong_6_020:
	BYTE		N05     En4   v100
	BYTE	W06
	BYTE		        Dn4 
	BYTE	W06
	BYTE		        Cn4 
	BYTE	W06
	BYTE		        Dn4 
	BYTE	W06
	BYTE		        En4 
	BYTE	W06
	BYTE		        Dn4 
	BYTE	W06
	BYTE		        Cn4 
	BYTE	W06
	BYTE		        Dn4 
	BYTE	W06
	BYTE		        Fn4 
	BYTE	W06
	BYTE		        En4 
	BYTE	W06
	BYTE		        Dn4 
	BYTE	W06
	BYTE		        En4 
	BYTE	W06
	BYTE		        Fn4 
	BYTE	W06
	BYTE		        En4 
	BYTE	W06
	BYTE		        Dn4 
	BYTE	W06
	BYTE		        En4 
	BYTE	W06
	BYTE	PEND
// 021   ----------------------------------------
WardenThemeSong_6_021:
	BYTE		N05     Gn4   v100
	BYTE	W06
	BYTE		        Fn4 
	BYTE	W06
	BYTE		        En4 
	BYTE	W06
	BYTE		        Fn4 
	BYTE	W06
	BYTE		        Gn4 
	BYTE	W06
	BYTE		        Fn4 
	BYTE	W06
	BYTE		        En4 
	BYTE	W06
	BYTE		        Fn4 
	BYTE	W06
	BYTE		        An4 
	BYTE	W06
	BYTE		        Gn4 
	BYTE	W06
	BYTE		        Fn4 
	BYTE	W06
	BYTE		        Gn4 
	BYTE	W06
	BYTE		        An4 
	BYTE	W06
	BYTE		        Gn4 
	BYTE	W06
	BYTE		        Fn4 
	BYTE	W06
	BYTE		        Gn4 
	BYTE	W06
	BYTE	PEND
// 022   ----------------------------------------
WardenThemeSong_6_022:
	BYTE		N05     Gn4   v100
	BYTE	W06
	BYTE		        Fn4 
	BYTE	W06
	BYTE		        En4 
	BYTE	W06
	BYTE		        Fn4 
	BYTE	W06
	BYTE		        Gn4 
	BYTE	W06
	BYTE		        Fn4 
	BYTE	W06
	BYTE		        En4 
	BYTE	W06
	BYTE		        Fn4 
	BYTE	W06
	BYTE		N05   
	BYTE	W06
	BYTE		        En4 
	BYTE	W06
	BYTE		        Dn4 
	BYTE	W06
	BYTE		        En4 
	BYTE	W06
	BYTE		        Fn4 
	BYTE	W06
	BYTE		        En4 
	BYTE	W06
	BYTE		        Dn4 
	BYTE	W06
	BYTE		        En4 
	BYTE	W06
	BYTE	PEND
// 023   ----------------------------------------
WardenThemeSong_6_023:
	BYTE		N05     En4   v100
	BYTE	W06
	BYTE		        Dn4 
	BYTE	W06
	BYTE		        Cn4 
	BYTE	W06
	BYTE		        Dn4 
	BYTE	W06
	BYTE		        En4 
	BYTE	W06
	BYTE		        Dn4 
	BYTE	W06
	BYTE		        Cn4 
	BYTE	W06
	BYTE		        Dn4 
	BYTE	W06
	BYTE		        En4 
	BYTE	W06
	BYTE		        Ds4 
	BYTE	W06
	BYTE		        Cs4 
	BYTE	W06
	BYTE		        Ds4 
	BYTE	W06
	BYTE		        En4 
	BYTE	W06
	BYTE		        Ds4 
	BYTE	W06
	BYTE		        Cs4 
	BYTE	W06
	BYTE		        Ds4 
	BYTE	W06
	BYTE	PEND
// 024   ----------------------------------------
	BYTE	PATT
	 POIN2	WardenThemeSong_6_020
// 025   ----------------------------------------
	BYTE	PATT
	 POIN2	WardenThemeSong_6_021
// 026   ----------------------------------------
	BYTE	PATT
	 POIN2	WardenThemeSong_6_022
// 027   ----------------------------------------
	BYTE	PATT
	 POIN2	WardenThemeSong_6_023
// 028   ----------------------------------------
	BYTE	W96
// 029   ----------------------------------------
	BYTE	W96
// 030   ----------------------------------------
	BYTE	W96
// 031   ----------------------------------------
	BYTE	W96
// 032   ----------------------------------------
	BYTE	W96
// 033   ----------------------------------------
	BYTE	W96
// 034   ----------------------------------------
	BYTE	W96
// 035   ----------------------------------------
	BYTE	W96
// 036   ----------------------------------------
	BYTE	W96
// 037   ----------------------------------------
	BYTE	W92
	BYTE	GoTo
	 POIN2	WardenThemeSong_6_B1
WardenThemeSong_6_B2:
	BYTE	FINE

//**************** Track 7 (Midi-Chn.7) ****************//

WardenThemeSong_7:
	BYTE	KEYSH   WardenThemeSong_key+0
WardenThemeSong_7_B1:
// 000   ----------------------------------------
	BYTE		VOICE   55
	BYTE		MODT    0
	BYTE		LFOS    44
	BYTE		VOL     119*WardenThemeSong_mvl/mxv
	BYTE		PAN     c_v+39
	BYTE	W96
// 001   ----------------------------------------
	BYTE	W96
// 002   ----------------------------------------
	BYTE	W96
// 003   ----------------------------------------
	BYTE	W96
// 004   ----------------------------------------
WardenThemeSong_7_004:
	BYTE		N48     Cn3   v100
	BYTE		N48     Fn3 
	BYTE		N48     An3 
	BYTE	W48
	BYTE		        Dn3 
	BYTE		N48     Gn3 
	BYTE		N48     Bn3 
	BYTE	W48
	BYTE	PEND
// 005   ----------------------------------------
WardenThemeSong_7_005:
	BYTE		TIE     Cn3   v100
	BYTE		TIE     Fn3 
	BYTE		TIE     An3 
	BYTE	W96
	BYTE	PEND
// 006   ----------------------------------------
	BYTE	W48
	BYTE		EOT     Cn3 
	BYTE		        Fn3 
	BYTE		        An3 
	BYTE		N42     Dn3 
	BYTE		N96     Gn3 
	BYTE		N42     Bn3 
	BYTE	W48
// 007   ----------------------------------------
WardenThemeSong_7_007:
	BYTE		N48     En3   v100
	BYTE		N48     Cn4 
	BYTE	W48
	BYTE		        En3 
	BYTE		N48     Gs3 
	BYTE		N48     Bn3 
	BYTE	W48
	BYTE	PEND
// 008   ----------------------------------------
WardenThemeSong_7_008:
	BYTE		TIE     Cn3   v100
	BYTE		N90     En3 
	BYTE		TIE     An3 
	BYTE	W96
	BYTE	PEND
// 009   ----------------------------------------
	BYTE		        Fn3 
	BYTE	W90
	BYTE		EOT     Cn3 
	BYTE	W06
// 010   ----------------------------------------
	BYTE		TIE     Dn3 
	BYTE	W90
	BYTE		EOT     Fn3 
	BYTE		        An3 
	BYTE	W06
// 011   ----------------------------------------
	BYTE		TIE     Gn3 
	BYTE		N90     Bn3 
	BYTE	W90
	BYTE		EOT     Dn3 
	BYTE	W06
// 012   ----------------------------------------
WardenThemeSong_7_012:
	BYTE		TIE     En3   v100
	BYTE		TIE     Cn4 
	BYTE	W90
	BYTE	PEND
	BYTE		EOT     Gn3 
	BYTE	W06
// 013   ----------------------------------------
	BYTE		TIE     An3 
	BYTE	W90
	BYTE		EOT     En3 
	BYTE	W06
// 014   ----------------------------------------
	BYTE		N96     Fn3 
	BYTE	W96
	BYTE		EOT     An3 
	BYTE		        Cn4 
// 015   ----------------------------------------
	BYTE		N90     Dn3 
	BYTE		TIE     Gn3 
	BYTE		N90     Bn3 
	BYTE	W96
// 016   ----------------------------------------
	BYTE	PATT
	 POIN2	WardenThemeSong_7_012
	BYTE		EOT     Gn3 
	BYTE	W06
// 017   ----------------------------------------
	BYTE		TIE     An3   v100
	BYTE	W90
	BYTE		EOT     En3 
	BYTE	W06
// 018   ----------------------------------------
	BYTE		N96     Fn3 
	BYTE	W96
	BYTE		EOT     An3 
	BYTE		        Cn4 
// 019   ----------------------------------------
	BYTE		N90     Dn3 
	BYTE		N90     Gn3 
	BYTE		N90     Bn3 
	BYTE	W96
// 020   ----------------------------------------
WardenThemeSong_7_020:
	BYTE		N06     An3   v100
	BYTE		N06     Cn4 
	BYTE		N06     En4 
	BYTE	W24
	BYTE		        An3 
	BYTE		N06     Cn4 
	BYTE		N06     En4 
	BYTE	W24
	BYTE		        An3 
	BYTE		N06     Cn4 
	BYTE		N06     Fn4 
	BYTE	W24
	BYTE		        An3 
	BYTE		N06     Cn4 
	BYTE		N06     Fn4 
	BYTE	W24
	BYTE	PEND
// 021   ----------------------------------------
WardenThemeSong_7_021:
	BYTE		N06     Cn4   v100
	BYTE		N06     En4 
	BYTE		N06     Gn4 
	BYTE	W24
	BYTE		        Cn4 
	BYTE		N06     En4 
	BYTE		N06     Gn4 
	BYTE	W24
	BYTE		        An3 
	BYTE		N06     Cn4 
	BYTE		N06     Fn4 
	BYTE	W24
	BYTE		        An3 
	BYTE		N06     Cn4 
	BYTE		N06     Fn4 
	BYTE	W24
	BYTE	PEND
// 022   ----------------------------------------
WardenThemeSong_7_022:
	BYTE		N06     Gn3   v100
	BYTE		N06     Cn4 
	BYTE		N06     En4 
	BYTE	W24
	BYTE		        Gn3 
	BYTE		N06     Cn4 
	BYTE		N06     En4 
	BYTE	W24
	BYTE		        Fn3 
	BYTE		N06     An3 
	BYTE		N06     Dn4 
	BYTE	W24
	BYTE		        Fn3 
	BYTE		N06     An3 
	BYTE		N06     Dn4 
	BYTE	W24
	BYTE	PEND
// 023   ----------------------------------------
WardenThemeSong_7_023:
	BYTE		N06     En3   v100
	BYTE		N06     An3 
	BYTE		N06     Cn4 
	BYTE	W24
	BYTE		        En3 
	BYTE		N06     An3 
	BYTE		N06     Cn4 
	BYTE	W24
	BYTE		        Gs3 
	BYTE		N06     Bn3 
	BYTE		N06     En4 
	BYTE	W24
	BYTE		        Gs3 
	BYTE		N06     Bn3 
	BYTE		N06     En4 
	BYTE	W24
	BYTE	PEND
// 024   ----------------------------------------
	BYTE	PATT
	 POIN2	WardenThemeSong_7_020
// 025   ----------------------------------------
	BYTE	PATT
	 POIN2	WardenThemeSong_7_021
// 026   ----------------------------------------
	BYTE	PATT
	 POIN2	WardenThemeSong_7_022
// 027   ----------------------------------------
	BYTE	PATT
	 POIN2	WardenThemeSong_7_023
// 028   ----------------------------------------
	BYTE	PATT
	 POIN2	WardenThemeSong_7_004
// 029   ----------------------------------------
	BYTE	PATT
	 POIN2	WardenThemeSong_7_005
// 030   ----------------------------------------
	BYTE	W48
	BYTE		EOT     Cn3 
	BYTE		        Fn3 
	BYTE		        An3 
	BYTE		N42     Dn3   v100
	BYTE		N96     Gn3 
	BYTE		N42     Bn3 
	BYTE	W48
// 031   ----------------------------------------
	BYTE	PATT
	 POIN2	WardenThemeSong_7_007
// 032   ----------------------------------------
	BYTE	PATT
	 POIN2	WardenThemeSong_7_008
// 033   ----------------------------------------
	BYTE		TIE     Fn3   v100
	BYTE	W90
	BYTE		EOT     Cn3 
	BYTE	W06
// 034   ----------------------------------------
	BYTE		TIE     Dn3 
	BYTE	W90
	BYTE		EOT     Fn3 
	BYTE		        An3 
	BYTE	W06
// 035   ----------------------------------------
	BYTE		N90     Gn3 
	BYTE		N90     Bn3 
	BYTE	W90
	BYTE		EOT     Dn3 
	BYTE	W06
// 036   ----------------------------------------
	BYTE		TIE     Cn3 
	BYTE		TIE     En3 
	BYTE		TIE     An3 
	BYTE	W96
// 037   ----------------------------------------
	BYTE	W90
	BYTE		EOT     Cn3 
	BYTE		        En3 
	BYTE		        An3 
	BYTE	W02
	BYTE	GoTo
	 POIN2	WardenThemeSong_7_B1
WardenThemeSong_7_B2:
	BYTE	FINE

//**************** Track 8 (Midi-Chn.8) ****************//

WardenThemeSong_8:
	BYTE	KEYSH   WardenThemeSong_key+0
WardenThemeSong_8_B1:
// 000   ----------------------------------------
	BYTE		VOICE   10
	BYTE		MODT    0
	BYTE		LFOS    44
	BYTE		PAN     c_v-64
	BYTE		VOL     69*WardenThemeSong_mvl/mxv
	BYTE	W96
// 001   ----------------------------------------
	BYTE	W96
// 002   ----------------------------------------
	BYTE	W96
// 003   ----------------------------------------
	BYTE	W96
// 004   ----------------------------------------
	BYTE	W96
// 005   ----------------------------------------
	BYTE	W96
// 006   ----------------------------------------
	BYTE	W96
// 007   ----------------------------------------
	BYTE	W96
// 008   ----------------------------------------
	BYTE	W96
// 009   ----------------------------------------
	BYTE	W96
// 010   ----------------------------------------
	BYTE	W96
// 011   ----------------------------------------
	BYTE	W96
// 012   ----------------------------------------
	BYTE	W96
// 013   ----------------------------------------
	BYTE	W96
// 014   ----------------------------------------
	BYTE	W96
// 015   ----------------------------------------
	BYTE	W96
// 016   ----------------------------------------
	BYTE	W96
// 017   ----------------------------------------
	BYTE	W96
// 018   ----------------------------------------
	BYTE	W96
// 019   ----------------------------------------
	BYTE	W96
// 020   ----------------------------------------
	BYTE	W24
	BYTE		N20     An3   v127
	BYTE	W24
	BYTE		N66     En3 
	BYTE	W48
// 021   ----------------------------------------
	BYTE	W24
	BYTE		N11     Cn3 
	BYTE	W12
	BYTE		        Dn3 
	BYTE	W12
	BYTE		        En3 
	BYTE	W12
	BYTE		N05     Fn3 
	BYTE	W06
	BYTE		N17     En3 
	BYTE	W18
	BYTE		N11     Dn3 
	BYTE	W12
// 022   ----------------------------------------
	BYTE		N20     Cn3 
	BYTE	W24
	BYTE		        An3 
	BYTE	W24
	BYTE		N66     En3 
	BYTE	W48
// 023   ----------------------------------------
	BYTE	W24
	BYTE		N11     Fn3 
	BYTE	W12
	BYTE		        Gn3 
	BYTE	W12
	BYTE		        An3 
	BYTE	W12
	BYTE		N05     Bn3 
	BYTE	W06
	BYTE		N17     Cn4 
	BYTE	W18
	BYTE		N11     Bn3 
	BYTE	W12
// 024   ----------------------------------------
	BYTE		N20     An3 
	BYTE	W24
	BYTE		        Gn3 
	BYTE	W24
	BYTE		N11   
	BYTE	W12
	BYTE		N05     Fn3 
	BYTE	W06
	BYTE		        En3 
	BYTE	W06
	BYTE		N42     Fn3 
	BYTE	W24
// 025   ----------------------------------------
	BYTE	W24
	BYTE		N20     En3 
	BYTE	W24
	BYTE		N11     Dn3 
	BYTE	W12
	BYTE		N05     En3 
	BYTE	W06
	BYTE		N17     Fn3 
	BYTE	W18
	BYTE		N11     En3 
	BYTE	W12
// 026   ----------------------------------------
	BYTE		N20     Dn3 
	BYTE	W24
	BYTE		N11     Cn3 
	BYTE	W12
	BYTE		        Dn3 
	BYTE	W12
	BYTE		N32     En3 
	BYTE	W36
	BYTE		N05     Cn3 
	BYTE	W06
	BYTE		        Dn3 
	BYTE	W06
// 027   ----------------------------------------
	BYTE		N11     En3 
	BYTE	W12
	BYTE		N20     Fn3 
	BYTE	W24
	BYTE		N11     En3 
	BYTE	W12
	BYTE		N66     Dn3 
	BYTE	W48
// 028   ----------------------------------------
	BYTE	W96
// 029   ----------------------------------------
	BYTE	W96
// 030   ----------------------------------------
	BYTE	W96
// 031   ----------------------------------------
	BYTE	W96
// 032   ----------------------------------------
	BYTE	W96
// 033   ----------------------------------------
	BYTE	W96
// 034   ----------------------------------------
	BYTE	W96
// 035   ----------------------------------------
	BYTE	W96
// 036   ----------------------------------------
	BYTE	W96
// 037   ----------------------------------------
	BYTE	W92
	BYTE	GoTo
	 POIN2	WardenThemeSong_8_B1
WardenThemeSong_8_B2:
	BYTE	FINE

//******************************************************//
	ALIGN 4

WardenThemeSong:
	BYTE	8	// NumTrks
	BYTE	0	// NumBlks
	BYTE	WardenThemeSong_pri	// Priority
	BYTE	WardenThemeSong_rev	// Reverb.

	POIN2	WardenThemeSong_grp

	POIN2	WardenThemeSong_1
	POIN2	WardenThemeSong_2
	POIN2	WardenThemeSong_3
	POIN2	WardenThemeSong_4
	POIN2	WardenThemeSong_5
	POIN2	WardenThemeSong_6
	POIN2	WardenThemeSong_7
	POIN2	WardenThemeSong_8

	
