//Event file generated from Sappy .s format.
	#include "MPlayDef.event"

	#define	WreyvineRecruitTheme_grp  voicegroup000
	#define	WreyvineRecruitTheme_pri  0
	#define	WreyvineRecruitTheme_rev  0x94
	#define	WreyvineRecruitTheme_mvl  30
	#define	WreyvineRecruitTheme_key  0
	#define	WreyvineRecruitTheme_tbs  1
	#define	WreyvineRecruitTheme_exg  0
	#define	WreyvineRecruitTheme_cmp  1

	// .rodata
	//	WreyvineRecruitTheme
	ALIGN 4

//**************** Track 1 (Midi-Chn.1) ****************//

WreyvineRecruitTheme_1:
	BYTE	KEYSH   WreyvineRecruitTheme_key+0
// 000   ----------------------------------------
	BYTE	TEMPO   100*WreyvineRecruitTheme_tbs/2
	BYTE		VOICE   60
	BYTE		MODT    0
	BYTE		LFOS    44
	BYTE		PAN     c_v+20
	BYTE		VOL     114*WreyvineRecruitTheme_mvl/mxv
	BYTE		BEND    c_v+0
	BYTE	W30
WreyvineRecruitTheme_1_B1:
	BYTE		N16     Cn4   v127
	BYTE	W16
	BYTE		        Bn3 
	BYTE	W16
	BYTE		        Cn4 
	BYTE	W16
	BYTE		N42     En3 
	BYTE	W18
// 001   ----------------------------------------
	BYTE	W30
	BYTE		N16     An3 
	BYTE	W16
	BYTE		        Bn3 
	BYTE	W16
	BYTE		        Cn4 
	BYTE	W16
	BYTE		        Dn4 
	BYTE	W16
	BYTE		        Cn4 
	BYTE	W02
// 002   ----------------------------------------
	BYTE	W14
	BYTE		        An3 
	BYTE	W16
	BYTE		        Bn3 
	BYTE	W16
	BYTE		        An3 
	BYTE	W16
	BYTE		        Bn3 
	BYTE	W16
	BYTE		N42     Gn3 
	BYTE	W18
// 003   ----------------------------------------
	BYTE	W30
	BYTE		N16     An3 
	BYTE	W16
	BYTE		        Fn3 
	BYTE	W16
	BYTE		        An3 
	BYTE	W16
	BYTE		        Bn3 
	BYTE	W16
	BYTE		        Cn4 
	BYTE	W02
// 004   ----------------------------------------
	BYTE	W14
	BYTE		N15     Dn4 
	BYTE	W16
	BYTE		        Cn4 
	BYTE	W16
	BYTE		        Bn3 
	BYTE	W16
	BYTE		        Cn4 
	BYTE	W16
	BYTE		N42     En4 
	BYTE	W18
// 005   ----------------------------------------
	BYTE	W30
	BYTE		N15     Fn4 
	BYTE	W16
	BYTE		        En4 
	BYTE	W16
	BYTE		        Dn4 
	BYTE	W16
	BYTE		        Cn4 
	BYTE	W16
	BYTE		        Dn4 
	BYTE	W02
// 006   ----------------------------------------
	BYTE	W14
	BYTE		        Fs4 
	BYTE	W16
	BYTE		        Gn4 
	BYTE	W16
	BYTE		        Fs4 
	BYTE	W16
	BYTE		        Gn4 
	BYTE	W16
	BYTE		N42     En4 
	BYTE	W18
// 007   ----------------------------------------
	BYTE	W30
	BYTE		N15     Cn4 
	BYTE	W16
	BYTE		        Dn4 
	BYTE	W16
	BYTE		        En4 
	BYTE	W16
	BYTE		        Bn3 
	BYTE	W16
	BYTE		        An3 
	BYTE	W02
// 008   ----------------------------------------
	BYTE	W14
	BYTE		        Bn3 
	BYTE	W16
	BYTE		N32     Cn4 
	BYTE	W36
	BYTE		N05     Bn3 
	BYTE	W06
	BYTE		        Cn4 
	BYTE	W06
	BYTE		N15     Dn4 
	BYTE	W16
	BYTE		        En4 
	BYTE	W02
// 009   ----------------------------------------
	BYTE	W14
	BYTE		        Fn4 
	BYTE	W16
	BYTE		        En4 
	BYTE	W16
	BYTE		        Dn4 
	BYTE	W16
	BYTE		        Cn4 
	BYTE	W16
	BYTE		N32     Fn4 
	BYTE	W18
// 010   ----------------------------------------
	BYTE	W18
	BYTE		N05     En4 
	BYTE	W06
	BYTE		        Dn4 
	BYTE	W06
	BYTE		N32     Cn4 
	BYTE	W36
	BYTE		N05     An3 
	BYTE	W06
	BYTE		        Bn3 
	BYTE	W06
	BYTE		N15     Cn4 
	BYTE	W16
	BYTE		        Bn3 
	BYTE	W02
// 011   ----------------------------------------
	BYTE	W14
	BYTE		        An3 
	BYTE	W16
	BYTE		        Bn3 
	BYTE	W16
	BYTE		        Cn4 
	BYTE	W16
	BYTE		        Dn4 
	BYTE	W16
	BYTE		        Fn4 
	BYTE	W16
	BYTE		        En4 
	BYTE	W02
// 012   ----------------------------------------
	BYTE	W14
	BYTE		        Dn4 
	BYTE	W16
	BYTE		N32     En4 
	BYTE	W36
	BYTE		N05     Cn4 
	BYTE	W06
	BYTE		        Dn4 
	BYTE	W06
	BYTE		N15     En4 
	BYTE	W16
	BYTE		        Fn4 
	BYTE	W02
// 013   ----------------------------------------
	BYTE	W14
	BYTE		        Gn4 
	BYTE	W16
	BYTE		        As4 
	BYTE	W16
	BYTE		        An4 
	BYTE	W16
	BYTE		        As4 
	BYTE	W16
	BYTE		N32     Fn4 
	BYTE	W18
// 014   ----------------------------------------
	BYTE	W18
	BYTE		N05     En4 
	BYTE	W06
	BYTE		        Dn4 
	BYTE	W06
	BYTE		N15     Cn4 
	BYTE	W16
	BYTE		        Fn4 
	BYTE	W16
	BYTE		        Cn4 
	BYTE	W16
	BYTE		        An4 
	BYTE	W16
	BYTE		        Fn4 
	BYTE	W02
// 015   ----------------------------------------
	BYTE	W14
	BYTE		        An4 
	BYTE	W16
	BYTE		N32     Gn4 
	BYTE	W36
	BYTE		N05     Fn4 
	BYTE	W06
	BYTE		        En4 
	BYTE	W06
	BYTE		N15     Fn4 
	BYTE	W16
	BYTE		        En4 
	BYTE	W02
// 016   ----------------------------------------
	BYTE	W14
	BYTE		        Dn4 
	BYTE	W16
	BYTE		N96     En4 
	BYTE	W66
// 017   ----------------------------------------
	BYTE	W30
	BYTE		        Fn4 
	BYTE	W66
// 018   ----------------------------------------
	BYTE	W30
	BYTE		        En4 
	BYTE	W66
// 019   ----------------------------------------
	BYTE	W30
	BYTE		N90     Fn4 
	BYTE	W66
// 020   ----------------------------------------
	BYTE	W96
// 021   ----------------------------------------
	BYTE	W96
// 022   ----------------------------------------
	BYTE	W96
// 023   ----------------------------------------
	BYTE	W96
// 024   ----------------------------------------
	BYTE	W96
// 025   ----------------------------------------
	BYTE	W96
// 026   ----------------------------------------
	BYTE	W96
// 027   ----------------------------------------
	BYTE	W96
// 028   ----------------------------------------
	BYTE	W30
	BYTE		N15     Cn4 
	BYTE	W16
	BYTE		        Gn4 
	BYTE	W16
	BYTE		        Fn4 
	BYTE	W16
	BYTE		        En4 
	BYTE	W16
	BYTE		        Dn4 
	BYTE	W02
// 029   ----------------------------------------
	BYTE	W14
	BYTE		        En4 
	BYTE	W16
	BYTE		        Fn4 
	BYTE	W16
	BYTE		        Dn4 
	BYTE	W16
	BYTE		        Fn4 
	BYTE	W16
	BYTE		        As4 
	BYTE	W16
	BYTE		        An4 
	BYTE	W02
// 030   ----------------------------------------
	BYTE	W14
	BYTE		        Gn4 
	BYTE	W16
	BYTE		N32     Fn4 
	BYTE	W36
	BYTE		N05     Cn4 
	BYTE	W06
	BYTE		        Fn4 
	BYTE	W06
	BYTE		N15     An4 
	BYTE	W16
	BYTE		        Gn4 
	BYTE	W02
// 031   ----------------------------------------
	BYTE	W14
	BYTE		        Fn4 
	BYTE	W16
	BYTE		N32     Gn4 
	BYTE	W36
	BYTE		N05     Dn4 
	BYTE	W06
	BYTE		        Bn3 
	BYTE	W06
	BYTE		N42     Dn4 
	BYTE	W18
// 032   ----------------------------------------
	BYTE	W30
	BYTE		N05     Cn4 
	BYTE	W06
	BYTE		        Gn3 
	BYTE	W06
	BYTE		        An3 
	BYTE	W06
	BYTE		        Gn3 
	BYTE	W06
	BYTE		        Cn4 
	BYTE	W06
	BYTE		        Dn4 
	BYTE	W06
	BYTE		        En4 
	BYTE	W06
	BYTE		        Cn4 
	BYTE	W06
	BYTE		N11     Gn4 
	BYTE	W12
	BYTE		        Fn4 
	BYTE	W06
// 033   ----------------------------------------
	BYTE	W06
	BYTE		        En4 
	BYTE	W12
	BYTE		        Dn4 
	BYTE	W12
	BYTE		N32     Cn4 
	BYTE	W36
	BYTE		N05     Dn4 
	BYTE	W06
	BYTE		        Cn4 
	BYTE	W06
	BYTE		N15     As3 
	BYTE	W16
	BYTE		        An3 
	BYTE	W02
// 034   ----------------------------------------
	BYTE	W14
	BYTE		        As3 
	BYTE	W16
	BYTE		        An3 
	BYTE	W16
	BYTE		        Fn3 
	BYTE	W16
	BYTE		        An3 
	BYTE	W16
	BYTE		        Cn4 
	BYTE	W16
	BYTE		        An3 
	BYTE	W02
// 035   ----------------------------------------
	BYTE	W14
	BYTE		        Cn4 
	BYTE	W16
	BYTE		        Dn4 
	BYTE	W16
	BYTE		        Cn4 
	BYTE	W16
	BYTE		        Dn4 
	BYTE	W16
	BYTE		        Fn4 
	BYTE	W16
	BYTE		        En4 
	BYTE	W02
// 036   ----------------------------------------
	BYTE	W14
	BYTE		        Fn4 
	BYTE	W16
	BYTE		N90     En4 
	BYTE	W66
// 037   ----------------------------------------
	BYTE	W96
// 038   ----------------------------------------
	BYTE	W96
// 039   ----------------------------------------
	BYTE	W96
// 040   ----------------------------------------
	BYTE	W30
	BYTE	GoTo
	 POIN2	WreyvineRecruitTheme_1_B1
WreyvineRecruitTheme_1_B2:
	BYTE		VOL     127*WreyvineRecruitTheme_mvl/mxv
	BYTE		BEND    c_v+0
	BYTE	FINE

//**************** Track 2 (Midi-Chn.2) ****************//

WreyvineRecruitTheme_2:
	BYTE	KEYSH   WreyvineRecruitTheme_key+0
// 000   ----------------------------------------
	BYTE		VOICE   30
	BYTE		MODT    0
	BYTE		LFOS    44
	BYTE		VOL     87*WreyvineRecruitTheme_mvl/mxv
	BYTE		PAN     c_v-13
	BYTE		BEND    c_v+0
	BYTE	W30
WreyvineRecruitTheme_2_B1:
	BYTE		N11     An1   v127
	BYTE	W12
	BYTE		N11   
	BYTE	W12
	BYTE		N05     Cn2 
	BYTE	W06
	BYTE		N11     An1 
	BYTE	W12
	BYTE		N05   
	BYTE	W06
	BYTE		N11   
	BYTE	W12
	BYTE		        En2 
	BYTE	W06
// 001   ----------------------------------------
WreyvineRecruitTheme_2_001:
	BYTE	W06
	BYTE		N11     Cn2   v127
	BYTE	W12
	BYTE		        En2 
	BYTE	W12
	BYTE		        Fn1 
	BYTE	W12
	BYTE		N11   
	BYTE	W12
	BYTE		N05     An1 
	BYTE	W06
	BYTE		N11     Fn1 
	BYTE	W12
	BYTE		N05   
	BYTE	W06
	BYTE		N11     Dn2 
	BYTE	W12
	BYTE		        Cn2 
	BYTE	W06
	BYTE	PEND
// 002   ----------------------------------------
WreyvineRecruitTheme_2_002:
	BYTE	W06
	BYTE		N11     Bn1   v127
	BYTE	W12
	BYTE		        An1 
	BYTE	W12
	BYTE		        Gn1 
	BYTE	W12
	BYTE		N11   
	BYTE	W12
	BYTE		N05     Bn1 
	BYTE	W06
	BYTE		N11     Gn1 
	BYTE	W12
	BYTE		N05   
	BYTE	W06
	BYTE		N11     Bn1 
	BYTE	W12
	BYTE		        En2 
	BYTE	W06
	BYTE	PEND
// 003   ----------------------------------------
WreyvineRecruitTheme_2_003:
	BYTE	W06
	BYTE		N11     Bn1   v127
	BYTE	W12
	BYTE		        En2 
	BYTE	W12
	BYTE		        Cn2 
	BYTE	W12
	BYTE		        An1 
	BYTE	W12
	BYTE		        Fn1 
	BYTE	W12
	BYTE		        An1 
	BYTE	W12
	BYTE		        Bn1 
	BYTE	W12
	BYTE		        An1 
	BYTE	W06
	BYTE	PEND
// 004   ----------------------------------------
	BYTE	W06
	BYTE		        Gn1 
	BYTE	W12
	BYTE		        Bn1 
	BYTE	W12
	BYTE		        An1 
	BYTE	W12
	BYTE		N11   
	BYTE	W12
	BYTE		N05     Cn2 
	BYTE	W06
	BYTE		N11     An1 
	BYTE	W12
	BYTE		N05   
	BYTE	W06
	BYTE		N11   
	BYTE	W12
	BYTE		        En2 
	BYTE	W06
// 005   ----------------------------------------
	BYTE	PATT
	 POIN2	WreyvineRecruitTheme_2_001
// 006   ----------------------------------------
	BYTE	PATT
	 POIN2	WreyvineRecruitTheme_2_002
// 007   ----------------------------------------
	BYTE	PATT
	 POIN2	WreyvineRecruitTheme_2_003
// 008   ----------------------------------------
	BYTE	W06
	BYTE		N11     Gn1   v127
	BYTE	W12
	BYTE		        Bn1 
	BYTE	W12
	BYTE		N05     Cn2 
	BYTE	W06
	BYTE		N11     Cn1 
	BYTE	W12
	BYTE		N05   
	BYTE	W06
	BYTE		        Cn2 
	BYTE	W06
	BYTE		N11     Cn1 
	BYTE	W12
	BYTE		N05   
	BYTE	W06
	BYTE		N11     Gn1 
	BYTE	W12
	BYTE		        Cn2 
	BYTE	W06
// 009   ----------------------------------------
WreyvineRecruitTheme_2_009:
	BYTE	W06
	BYTE		N11     En1   v127
	BYTE	W12
	BYTE		        Gn1 
	BYTE	W12
	BYTE		N05     As1 
	BYTE	W06
	BYTE		N11     As0 
	BYTE	W12
	BYTE		N05   
	BYTE	W06
	BYTE		        As1 
	BYTE	W06
	BYTE		N11     As0 
	BYTE	W12
	BYTE		N05   
	BYTE	W06
	BYTE		N11     Fn1 
	BYTE	W12
	BYTE		        As1 
	BYTE	W06
	BYTE	PEND
// 010   ----------------------------------------
WreyvineRecruitTheme_2_010:
	BYTE	W06
	BYTE		N11     Dn1   v127
	BYTE	W12
	BYTE		        Fn1 
	BYTE	W12
	BYTE		        An1 
	BYTE	W12
	BYTE		        Fn1 
	BYTE	W12
	BYTE		        Cn1 
	BYTE	W12
	BYTE		        Fn1 
	BYTE	W12
	BYTE		        An1 
	BYTE	W12
	BYTE		        Cn2 
	BYTE	W06
	BYTE	PEND
// 011   ----------------------------------------
WreyvineRecruitTheme_2_011:
	BYTE	W06
	BYTE		N11     As1   v127
	BYTE	W12
	BYTE		        An1 
	BYTE	W12
	BYTE		        Gn1 
	BYTE	W12
	BYTE		        Dn1 
	BYTE	W12
	BYTE		        Gn1 
	BYTE	W12
	BYTE		        An1 
	BYTE	W12
	BYTE		        Bn1 
	BYTE	W12
	BYTE		        Dn2 
	BYTE	W06
	BYTE	PEND
// 012   ----------------------------------------
WreyvineRecruitTheme_2_012:
	BYTE	W06
	BYTE		N11     Bn1   v127
	BYTE	W12
	BYTE		        Gn1 
	BYTE	W12
	BYTE		N05     Cn2 
	BYTE	W06
	BYTE		N11     Cn1 
	BYTE	W12
	BYTE		N05   
	BYTE	W06
	BYTE		        Cn2 
	BYTE	W06
	BYTE		N11     Cn1 
	BYTE	W12
	BYTE		N05   
	BYTE	W06
	BYTE		N11     Gn1 
	BYTE	W12
	BYTE		        Cn2 
	BYTE	W06
	BYTE	PEND
// 013   ----------------------------------------
	BYTE	PATT
	 POIN2	WreyvineRecruitTheme_2_009
// 014   ----------------------------------------
	BYTE	PATT
	 POIN2	WreyvineRecruitTheme_2_010
// 015   ----------------------------------------
	BYTE	PATT
	 POIN2	WreyvineRecruitTheme_2_011
// 016   ----------------------------------------
	BYTE	W06
	BYTE		N11     Bn1   v127
	BYTE	W12
	BYTE		        Gn1 
	BYTE	W12
	BYTE		N04     En1 
	BYTE	W12
	BYTE		N04   
	BYTE	W12
	BYTE		N02     En2 
	BYTE	W06
	BYTE		N04     En1 
	BYTE	W12
	BYTE		N02   
	BYTE	W06
	BYTE		N04   
	BYTE	W12
	BYTE		N04   
	BYTE	W06
// 017   ----------------------------------------
WreyvineRecruitTheme_2_017:
	BYTE	W06
	BYTE		N02     En2   v127
	BYTE	W06
	BYTE		N04     En1 
	BYTE	W12
	BYTE		N02   
	BYTE	W06
	BYTE		N04     Fn1 
	BYTE	W12
	BYTE		N04   
	BYTE	W12
	BYTE		N02     Fn2 
	BYTE	W06
	BYTE		N04     Fn1 
	BYTE	W12
	BYTE		N02   
	BYTE	W06
	BYTE		N04   
	BYTE	W12
	BYTE		N04   
	BYTE	W06
	BYTE	PEND
// 018   ----------------------------------------
	BYTE	W06
	BYTE		N02     Fn2 
	BYTE	W06
	BYTE		N04     Fn1 
	BYTE	W12
	BYTE		N02   
	BYTE	W06
	BYTE		N04     En1 
	BYTE	W12
	BYTE		N04   
	BYTE	W12
	BYTE		N02     En2 
	BYTE	W06
	BYTE		N04     En1 
	BYTE	W12
	BYTE		N02   
	BYTE	W06
	BYTE		N04   
	BYTE	W12
	BYTE		N04   
	BYTE	W06
// 019   ----------------------------------------
	BYTE	PATT
	 POIN2	WreyvineRecruitTheme_2_017
// 020   ----------------------------------------
	BYTE	W06
	BYTE		N02     Fn2   v127
	BYTE	W06
	BYTE		N04     Fn1 
	BYTE	W12
	BYTE		N02   
	BYTE	W06
	BYTE		N11     En1 
	BYTE	W12
	BYTE		N11   
	BYTE	W12
	BYTE		N05     En2 
	BYTE	W06
	BYTE		N11     En1 
	BYTE	W12
	BYTE		N05   
	BYTE	W06
	BYTE		N11   
	BYTE	W12
	BYTE		N11   
	BYTE	W06
// 021   ----------------------------------------
WreyvineRecruitTheme_2_021:
	BYTE	W06
	BYTE		N05     En2   v127
	BYTE	W06
	BYTE		N11     En1 
	BYTE	W12
	BYTE		N05   
	BYTE	W06
	BYTE		N11   
	BYTE	W12
	BYTE		N11   
	BYTE	W12
	BYTE		N05     En2 
	BYTE	W06
	BYTE		N11     En1 
	BYTE	W12
	BYTE		N05   
	BYTE	W06
	BYTE		N11   
	BYTE	W12
	BYTE		N11   
	BYTE	W06
	BYTE	PEND
// 022   ----------------------------------------
	BYTE	PATT
	 POIN2	WreyvineRecruitTheme_2_021
// 023   ----------------------------------------
	BYTE	PATT
	 POIN2	WreyvineRecruitTheme_2_021
// 024   ----------------------------------------
	BYTE	PATT
	 POIN2	WreyvineRecruitTheme_2_021
// 025   ----------------------------------------
	BYTE	PATT
	 POIN2	WreyvineRecruitTheme_2_021
// 026   ----------------------------------------
	BYTE	PATT
	 POIN2	WreyvineRecruitTheme_2_021
// 027   ----------------------------------------
	BYTE	PATT
	 POIN2	WreyvineRecruitTheme_2_021
// 028   ----------------------------------------
	BYTE	W06
	BYTE		N05     En2   v127
	BYTE	W06
	BYTE		N11     En1 
	BYTE	W12
	BYTE		N05   
	BYTE	W06
	BYTE		        Cn2 
	BYTE	W06
	BYTE		N11     Cn1 
	BYTE	W12
	BYTE		N05   
	BYTE	W06
	BYTE		        Cn2 
	BYTE	W06
	BYTE		N11     Cn1 
	BYTE	W12
	BYTE		N05   
	BYTE	W06
	BYTE		N11     Gn1 
	BYTE	W12
	BYTE		        Cn2 
	BYTE	W06
// 029   ----------------------------------------
	BYTE	PATT
	 POIN2	WreyvineRecruitTheme_2_009
// 030   ----------------------------------------
	BYTE	PATT
	 POIN2	WreyvineRecruitTheme_2_010
// 031   ----------------------------------------
	BYTE	PATT
	 POIN2	WreyvineRecruitTheme_2_011
// 032   ----------------------------------------
	BYTE	PATT
	 POIN2	WreyvineRecruitTheme_2_012
// 033   ----------------------------------------
	BYTE	PATT
	 POIN2	WreyvineRecruitTheme_2_009
// 034   ----------------------------------------
	BYTE	PATT
	 POIN2	WreyvineRecruitTheme_2_010
// 035   ----------------------------------------
	BYTE	PATT
	 POIN2	WreyvineRecruitTheme_2_011
// 036   ----------------------------------------
	BYTE	W06
	BYTE		N11     Bn1   v127
	BYTE	W12
	BYTE		        Gn1 
	BYTE	W12
	BYTE		        En1 
	BYTE	W12
	BYTE		N11   
	BYTE	W12
	BYTE		N11   
	BYTE	W12
	BYTE		N11   
	BYTE	W12
	BYTE		N11   
	BYTE	W12
	BYTE		N11   
	BYTE	W06
// 037   ----------------------------------------
	BYTE	W06
	BYTE		N11   
	BYTE	W12
	BYTE		N11   
	BYTE	W12
	BYTE		N11   
	BYTE	W12
	BYTE		N11   
	BYTE	W12
	BYTE		N11   
	BYTE	W12
	BYTE		N11   
	BYTE	W12
	BYTE		N11   
	BYTE	W12
	BYTE		N11   
	BYTE	W06
// 038   ----------------------------------------
	BYTE	W06
	BYTE		N11   
	BYTE	W12
	BYTE		N11   
	BYTE	W12
	BYTE		        Fn1 
	BYTE	W12
	BYTE		N11   
	BYTE	W12
	BYTE		N11   
	BYTE	W12
	BYTE		N11   
	BYTE	W12
	BYTE		N11   
	BYTE	W12
	BYTE		N11   
	BYTE	W06
// 039   ----------------------------------------
	BYTE	W06
	BYTE		N11   
	BYTE	W12
	BYTE		N11   
	BYTE	W12
	BYTE		        En1 
	BYTE	W12
	BYTE		N11   
	BYTE	W12
	BYTE		N11   
	BYTE	W12
	BYTE		N11   
	BYTE	W12
	BYTE		N11   
	BYTE	W12
	BYTE		N11   
	BYTE	W06
// 040   ----------------------------------------
	BYTE	W06
	BYTE		N11   
	BYTE	W12
	BYTE		N11   
	BYTE	W12
	BYTE	GoTo
	 POIN2	WreyvineRecruitTheme_2_B1
WreyvineRecruitTheme_2_B2:
	BYTE	FINE

//**************** Track 3 (Midi-Chn.3) ****************//

WreyvineRecruitTheme_3:
	BYTE	KEYSH   WreyvineRecruitTheme_key+0
// 000   ----------------------------------------
	BYTE		VOICE   48
	BYTE		MODT    0
	BYTE		LFOS    44
	BYTE		VOL     114*WreyvineRecruitTheme_mvl/mxv
	BYTE		PAN     c_v-16
	BYTE		BEND    c_v+0
	BYTE	W30
WreyvineRecruitTheme_3_B1:
	BYTE		N96     En3   v076
	BYTE		TIE     An3 
	BYTE		TIE     Cn4 
	BYTE	W66
// 001   ----------------------------------------
WreyvineRecruitTheme_3_001:
	BYTE	W30
	BYTE		N48     Fn3   v076
	BYTE	W48
	BYTE		        Fs3 
	BYTE		N48     Dn4 
	BYTE	W18
	BYTE	PEND
// 002   ----------------------------------------
	BYTE	W24
	BYTE		EOT     An3 
	BYTE		        Cn4 
	BYTE	W06
	BYTE		N96     Gn3 
	BYTE		N96     Bn3 
	BYTE		N96     En4 
	BYTE	W66
// 003   ----------------------------------------
	BYTE	W30
	BYTE		N48     Fn3 
	BYTE		N48     An3 
	BYTE		N48     Cn4 
	BYTE	W48
	BYTE		        Dn3 
	BYTE		N48     Gn3 
	BYTE		N48     Bn3 
	BYTE	W18
// 004   ----------------------------------------
	BYTE	W30
	BYTE		N96     En3 
	BYTE		TIE     An3 
	BYTE		TIE     Cn4 
	BYTE	W66
// 005   ----------------------------------------
	BYTE	PATT
	 POIN2	WreyvineRecruitTheme_3_001
// 006   ----------------------------------------
	BYTE	W24
	BYTE		EOT     An3 
	BYTE		        Cn4 
	BYTE	W06
	BYTE		N96     Gn3   v076
	BYTE		N96     Bn3 
	BYTE		N96     En4 
	BYTE	W66
// 007   ----------------------------------------
	BYTE	W30
	BYTE		N48     Fn3 
	BYTE		N48     An3 
	BYTE		N48     Cn4 
	BYTE	W48
	BYTE		N42     Dn3 
	BYTE		N42     Gn3 
	BYTE		N42     Bn3 
	BYTE	W18
// 008   ----------------------------------------
WreyvineRecruitTheme_3_008:
	BYTE	W30
	BYTE		N96     En3   v076
	BYTE		N96     Gn3 
	BYTE		TIE     Cn4 
	BYTE	W66
	BYTE	PEND
// 009   ----------------------------------------
WreyvineRecruitTheme_3_009:
	BYTE	W30
	BYTE		N96     Dn3   v076
	BYTE		TIE     Fn3 
	BYTE		N96     As3 
	BYTE	W66
	BYTE	PEND
// 010   ----------------------------------------
	BYTE	W30
	BYTE		        An3 
	BYTE	W66
// 011   ----------------------------------------
	BYTE	W30
	BYTE		EOT     Fn3 
	BYTE		        Cn4 
	BYTE		N48     Gn3 
	BYTE		N90     Bn3 
	BYTE		N90     Dn4 
	BYTE	W48
	BYTE		N48     Fn3 
	BYTE	W18
// 012   ----------------------------------------
	BYTE	PATT
	 POIN2	WreyvineRecruitTheme_3_008
// 013   ----------------------------------------
	BYTE	PATT
	 POIN2	WreyvineRecruitTheme_3_009
// 014   ----------------------------------------
	BYTE	W30
	BYTE		N96     An3   v076
	BYTE	W66
// 015   ----------------------------------------
	BYTE	W30
	BYTE		EOT     Fn3 
	BYTE		        Cn4 
	BYTE		N48     Gn3 
	BYTE		N90     Bn3 
	BYTE		N90     Dn4 
	BYTE	W48
	BYTE		N42     Fn3 
	BYTE	W18
// 016   ----------------------------------------
WreyvineRecruitTheme_3_016:
	BYTE	W30
	BYTE		N96     Gn3   v076
	BYTE		N96     Bn3 
	BYTE		N96     En4 
	BYTE	W66
	BYTE	PEND
// 017   ----------------------------------------
	BYTE	W30
	BYTE		        An3 
	BYTE		N96     Cn4 
	BYTE		N96     Fn4 
	BYTE	W66
// 018   ----------------------------------------
	BYTE	PATT
	 POIN2	WreyvineRecruitTheme_3_016
// 019   ----------------------------------------
	BYTE	W30
	BYTE		N90     An3   v076
	BYTE		N90     Cn4 
	BYTE		N90     Fn4 
	BYTE	W66
// 020   ----------------------------------------
	BYTE	W96
// 021   ----------------------------------------
	BYTE	W96
// 022   ----------------------------------------
	BYTE	W96
// 023   ----------------------------------------
	BYTE	W96
// 024   ----------------------------------------
	BYTE	W96
// 025   ----------------------------------------
	BYTE	W96
// 026   ----------------------------------------
	BYTE	W96
// 027   ----------------------------------------
	BYTE	W96
// 028   ----------------------------------------
	BYTE	PATT
	 POIN2	WreyvineRecruitTheme_3_008
// 029   ----------------------------------------
	BYTE	PATT
	 POIN2	WreyvineRecruitTheme_3_009
// 030   ----------------------------------------
	BYTE	W30
	BYTE		N96     An3   v076
	BYTE	W66
// 031   ----------------------------------------
	BYTE	W30
	BYTE		EOT     Fn3 
	BYTE		        Cn4 
	BYTE		N48     Gn3 
	BYTE		N90     Bn3 
	BYTE		N90     Dn4 
	BYTE	W48
	BYTE		N48     Fn3 
	BYTE	W18
// 032   ----------------------------------------
	BYTE	PATT
	 POIN2	WreyvineRecruitTheme_3_008
// 033   ----------------------------------------
	BYTE	PATT
	 POIN2	WreyvineRecruitTheme_3_009
// 034   ----------------------------------------
	BYTE	W30
	BYTE		N96     An3   v076
	BYTE	W66
// 035   ----------------------------------------
	BYTE	W30
	BYTE		EOT     Fn3 
	BYTE		        Cn4 
	BYTE		N48     Gn3 
	BYTE		N90     Bn3 
	BYTE		N90     Dn4 
	BYTE	W48
	BYTE		N42     Fn3 
	BYTE	W18
// 036   ----------------------------------------
	BYTE	W30
	BYTE		TIE     En3 
	BYTE		N90     Gn3 
	BYTE		N90     Bn3 
	BYTE	W66
// 037   ----------------------------------------
	BYTE	W30
	BYTE		TIE     An3 
	BYTE		TIE     Cn4 
	BYTE	W66
// 038   ----------------------------------------
	BYTE	W24
	BYTE		EOT     En3 
	BYTE	W06
	BYTE		N90     Fn3 
	BYTE	W66
// 039   ----------------------------------------
	BYTE	W24
	BYTE		EOT     An3 
	BYTE		        Cn4 
	BYTE	W06
	BYTE		N90     En3 
	BYTE		N90     Gs3 
	BYTE		N90     Bn3 
	BYTE	W66
// 040   ----------------------------------------
	BYTE	W30
	BYTE	GoTo
	 POIN2	WreyvineRecruitTheme_3_B1
WreyvineRecruitTheme_3_B2:
	BYTE	FINE

//**************** Track 4 (Midi-Chn.4) ****************//

WreyvineRecruitTheme_4:
	BYTE	KEYSH   WreyvineRecruitTheme_key+0
// 000   ----------------------------------------
	BYTE		VOICE   124
	BYTE		MODT    0
	BYTE		LFOS    44
	BYTE		VOL     127*WreyvineRecruitTheme_mvl/mxv
	BYTE		PAN     c_v+0
	BYTE		N05     Fs1   v076
	BYTE		N12     An1   v127
	BYTE	W06
	BYTE		N05     Bn0   v076
	BYTE		N05     Cn1 
	BYTE		N05     Dn1 
	BYTE		N05     En1 
	BYTE		N05     As1 
	BYTE		N05     Dn2 
	BYTE	W06
	BYTE		        Dn1 
	BYTE		N05     En1 
	BYTE		N05     Cn2 
	BYTE	W06
	BYTE		        Dn1 
	BYTE		N05     En1 
	BYTE		N05     Fs1 
	BYTE		N05     Bn1 
	BYTE	W06
	BYTE		        Dn1 
	BYTE		N05     En1 
	BYTE		N05     Fs1 
	BYTE		N05     An1 
	BYTE	W06
WreyvineRecruitTheme_4_B1:
	BYTE		N05     Bn0   v076
	BYTE		N05     Cn1 
	BYTE		N05     Fs1 
	BYTE		N42     An2 
	BYTE	W06
	BYTE		N05     Gs1 
	BYTE	W06
	BYTE		        Bn0 
	BYTE		N05     Cn1 
	BYTE		N05     As1 
	BYTE	W06
	BYTE		        Gs1 
	BYTE	W06
	BYTE		        Dn1 
	BYTE		N05     En1 
	BYTE		N05     Fs1 
	BYTE		N05     Bn1 
	BYTE		N05     Cn2 
	BYTE		N05     Dn2 
	BYTE	W06
	BYTE		        Bn0 
	BYTE		N05     Cn1 
	BYTE		N05     Gs1 
	BYTE	W06
	BYTE		        As1 
	BYTE	W06
	BYTE		        Bn0 
	BYTE		N05     Cn1 
	BYTE		N05     Gs1 
	BYTE	W06
	BYTE		        Bn0 
	BYTE		N05     Cn1 
	BYTE		N05     Fs1 
	BYTE	W06
	BYTE		        Gs1 
	BYTE	W06
	BYTE		        Bn0 
	BYTE		N05     Cn1 
	BYTE		N05     As1 
	BYTE	W06
// 001   ----------------------------------------
WreyvineRecruitTheme_4_001:
	BYTE		N05     Gs1   v076
	BYTE	W06
	BYTE		        Dn1 
	BYTE		N05     En1 
	BYTE		N05     Fs1 
	BYTE		N05     Bn1 
	BYTE		N05     Cn2 
	BYTE		N05     Dn2 
	BYTE	W06
	BYTE		        Bn0 
	BYTE		N05     Cn1 
	BYTE		N05     Gs1 
	BYTE	W06
	BYTE		        As1 
	BYTE	W06
	BYTE		        Bn0 
	BYTE		N05     Cn1 
	BYTE		N05     Gs1 
	BYTE	W06
	BYTE		        Bn0 
	BYTE		N05     Cn1 
	BYTE		N05     Fs1 
	BYTE	W06
	BYTE		        Gs1 
	BYTE	W06
	BYTE		        Bn0 
	BYTE		N05     Cn1 
	BYTE		N05     As1 
	BYTE	W06
	BYTE		        Gs1 
	BYTE	W06
	BYTE		        Dn1 
	BYTE		N05     En1 
	BYTE		N05     Fs1 
	BYTE		N05     Bn1 
	BYTE		N05     Cn2 
	BYTE		N05     Dn2 
	BYTE	W06
	BYTE		        Bn0 
	BYTE		N05     Cn1 
	BYTE		N05     Gs1 
	BYTE	W06
	BYTE		        As1 
	BYTE	W06
	BYTE		        Bn0 
	BYTE		N05     Cn1 
	BYTE		N05     Gs1 
	BYTE	W06
	BYTE		        Bn0 
	BYTE		N05     Cn1 
	BYTE		N05     Fs1 
	BYTE	W06
	BYTE		        Gs1 
	BYTE	W06
	BYTE		        Bn0 
	BYTE		N05     Cn1 
	BYTE		N05     As1 
	BYTE	W06
	BYTE	PEND
// 002   ----------------------------------------
	BYTE	PATT
	 POIN2	WreyvineRecruitTheme_4_001
// 003   ----------------------------------------
	BYTE	PATT
	 POIN2	WreyvineRecruitTheme_4_001
// 004   ----------------------------------------
WreyvineRecruitTheme_4_004:
	BYTE		N05     Gs1   v076
	BYTE	W06
	BYTE		        Dn1 
	BYTE		N05     En1 
	BYTE		N05     Fs1 
	BYTE		N05     Bn1 
	BYTE		N05     Cn2 
	BYTE		N05     Dn2 
	BYTE	W06
	BYTE		        Bn0 
	BYTE		N05     Cn1 
	BYTE		N05     Gs1 
	BYTE	W06
	BYTE		        Dn1 
	BYTE		N05     En1 
	BYTE		N05     As1 
	BYTE		N05     Bn1 
	BYTE		N05     Cn2 
	BYTE		N05     Dn2 
	BYTE	W06
	BYTE		        Bn0 
	BYTE		N05     Cn1 
	BYTE		N05     Gs1 
	BYTE	W06
	BYTE		        Bn0 
	BYTE		N05     Cn1 
	BYTE		N05     Fs1 
	BYTE	W06
	BYTE		        Gs1 
	BYTE	W06
	BYTE		        Bn0 
	BYTE		N05     Cn1 
	BYTE		N05     As1 
	BYTE	W06
	BYTE		        Gs1 
	BYTE	W06
	BYTE		        Dn1 
	BYTE		N05     En1 
	BYTE		N05     Fs1 
	BYTE		N05     Bn1 
	BYTE		N05     Cn2 
	BYTE		N05     Dn2 
	BYTE	W06
	BYTE		        Bn0 
	BYTE		N05     Cn1 
	BYTE		N05     Gs1 
	BYTE	W06
	BYTE		        As1 
	BYTE	W06
	BYTE		        Bn0 
	BYTE		N05     Cn1 
	BYTE		N05     Gs1 
	BYTE	W06
	BYTE		        Bn0 
	BYTE		N05     Cn1 
	BYTE		N05     Fs1 
	BYTE	W06
	BYTE		        Gs1 
	BYTE	W06
	BYTE		        Bn0 
	BYTE		N05     Cn1 
	BYTE		N05     As1 
	BYTE	W06
	BYTE	PEND
// 005   ----------------------------------------
	BYTE	PATT
	 POIN2	WreyvineRecruitTheme_4_001
// 006   ----------------------------------------
	BYTE	PATT
	 POIN2	WreyvineRecruitTheme_4_001
// 007   ----------------------------------------
	BYTE	PATT
	 POIN2	WreyvineRecruitTheme_4_001
// 008   ----------------------------------------
	BYTE		N05     Gs1   v076
	BYTE	W06
	BYTE		        Dn1 
	BYTE		N05     En1 
	BYTE		N05     Fs1 
	BYTE		N05     Bn1 
	BYTE		N05     Cn2 
	BYTE		N05     Dn2 
	BYTE	W06
	BYTE		        Bn0 
	BYTE		N05     Cn1 
	BYTE		N05     Dn1 
	BYTE		N05     En1 
	BYTE		N05     Gs1 
	BYTE		N05     Bn1 
	BYTE		N05     Cn2 
	BYTE		N05     Dn2 
	BYTE	W06
	BYTE		        Dn1 
	BYTE		N05     En1 
	BYTE		N05     As1 
	BYTE		N05     Bn1 
	BYTE		N05     Cn2 
	BYTE		N05     Dn2 
	BYTE	W06
	BYTE		        Bn0 
	BYTE		N05     Cn1 
	BYTE		N05     Dn1 
	BYTE		N05     En1 
	BYTE		N05     Gs1 
	BYTE		N05     Bn1 
	BYTE		N05     Cn2 
	BYTE		N05     Dn2 
	BYTE	W06
	BYTE		        Bn0 
	BYTE		N05     Cn1 
	BYTE		N05     Fs1 
	BYTE		N05     An2 
	BYTE	W06
	BYTE		        Gs1 
	BYTE	W06
	BYTE		        Bn0 
	BYTE		N05     Cn1 
	BYTE		N05     As1 
	BYTE	W06
	BYTE		        Gs1 
	BYTE	W06
	BYTE		        Dn1 
	BYTE		N05     En1 
	BYTE		N05     Fs1 
	BYTE		N05     Bn1 
	BYTE		N05     Cn2 
	BYTE		N05     Dn2 
	BYTE	W06
	BYTE		        Bn0 
	BYTE		N05     Cn1 
	BYTE		N05     Gs1 
	BYTE	W06
	BYTE		        As1 
	BYTE	W06
	BYTE		        Bn0 
	BYTE		N05     Cn1 
	BYTE		N05     Gs1 
	BYTE	W06
	BYTE		        Bn0 
	BYTE		N05     Cn1 
	BYTE		N05     Fs1 
	BYTE	W06
	BYTE		        Gs1 
	BYTE	W06
	BYTE		        Bn0 
	BYTE		N05     Cn1 
	BYTE		N05     As1 
	BYTE	W06
// 009   ----------------------------------------
	BYTE	PATT
	 POIN2	WreyvineRecruitTheme_4_001
// 010   ----------------------------------------
	BYTE	PATT
	 POIN2	WreyvineRecruitTheme_4_001
// 011   ----------------------------------------
	BYTE	PATT
	 POIN2	WreyvineRecruitTheme_4_001
// 012   ----------------------------------------
	BYTE	PATT
	 POIN2	WreyvineRecruitTheme_4_004
// 013   ----------------------------------------
	BYTE	PATT
	 POIN2	WreyvineRecruitTheme_4_001
// 014   ----------------------------------------
	BYTE	PATT
	 POIN2	WreyvineRecruitTheme_4_001
// 015   ----------------------------------------
	BYTE	PATT
	 POIN2	WreyvineRecruitTheme_4_001
// 016   ----------------------------------------
	BYTE		N05     Gs1   v076
	BYTE	W06
	BYTE		        Dn1 
	BYTE		N05     En1 
	BYTE		N05     Fs1 
	BYTE		N05     Bn1 
	BYTE		N05     Cn2 
	BYTE		N05     Dn2 
	BYTE	W06
	BYTE		        Bn0 
	BYTE		N05     Cn1 
	BYTE		N05     Dn1 
	BYTE		N05     En1 
	BYTE		N05     Gs1 
	BYTE		N05     Bn1 
	BYTE		N05     Cn2 
	BYTE		N05     Dn2 
	BYTE	W06
	BYTE		        Dn1 
	BYTE		N05     En1 
	BYTE		N05     As1 
	BYTE		N05     Bn1 
	BYTE		N05     Cn2 
	BYTE		N05     Dn2 
	BYTE	W06
	BYTE		        Bn0 
	BYTE		N05     Cn1 
	BYTE		N05     Dn1 
	BYTE		N05     En1 
	BYTE		N05     Gs1 
	BYTE		N05     Bn1 
	BYTE		N05     Cn2 
	BYTE		N05     Dn2 
	BYTE	W06
	BYTE		N11     Bn0 
	BYTE		N11     Cn1 
	BYTE		N11     As1 
	BYTE	W12
	BYTE		N05     Fs1 
	BYTE	W06
	BYTE		N05   
	BYTE	W06
	BYTE		N11     Bn0 
	BYTE		N11     Cn1 
	BYTE		N11     As1 
	BYTE	W12
	BYTE		N05     Fs1 
	BYTE	W06
	BYTE		N05   
	BYTE	W06
	BYTE		N11     Bn0 
	BYTE		N11     Cn1 
	BYTE		N11     As1 
	BYTE	W12
	BYTE		N05     Fs1 
	BYTE	W06
// 017   ----------------------------------------
WreyvineRecruitTheme_4_017:
	BYTE		N05     Fs1   v076
	BYTE	W06
	BYTE		N11     Bn0 
	BYTE		N11     Cn1 
	BYTE		N11     Dn1 
	BYTE		N11     En1 
	BYTE		N11     As1 
	BYTE	W12
	BYTE		N05     Fs1 
	BYTE	W06
	BYTE		N05   
	BYTE	W06
	BYTE		N11     Bn0 
	BYTE		N11     Cn1 
	BYTE		N11     As1 
	BYTE	W12
	BYTE		N05     Fs1 
	BYTE	W06
	BYTE		N05   
	BYTE	W06
	BYTE		N11     Bn0 
	BYTE		N11     Cn1 
	BYTE		N11     As1 
	BYTE	W12
	BYTE		N05     Fs1 
	BYTE	W06
	BYTE		N05   
	BYTE	W06
	BYTE		N11     Bn0 
	BYTE		N11     Cn1 
	BYTE		N11     As1 
	BYTE	W12
	BYTE		N05     Fs1 
	BYTE	W06
	BYTE	PEND
// 018   ----------------------------------------
	BYTE		N05   
	BYTE	W06
	BYTE		N11     Bn0 
	BYTE		N11     Cn1 
	BYTE		N11     Dn1 
	BYTE		N11     En1 
	BYTE		N11     As1 
	BYTE	W12
	BYTE		N05     Dn1 
	BYTE		N05     En1 
	BYTE		N05     Fs1 
	BYTE	W06
	BYTE		N05   
	BYTE	W06
	BYTE		N11     Bn0 
	BYTE		N11     Cn1 
	BYTE		N11     As1 
	BYTE	W12
	BYTE		N05     Fs1 
	BYTE	W06
	BYTE		N05   
	BYTE	W06
	BYTE		N11     Bn0 
	BYTE		N11     Cn1 
	BYTE		N11     As1 
	BYTE	W12
	BYTE		N05     Fs1 
	BYTE	W06
	BYTE		N05   
	BYTE	W06
	BYTE		N11     Bn0 
	BYTE		N11     Cn1 
	BYTE		N11     As1 
	BYTE	W12
	BYTE		N05     Fs1 
	BYTE	W06
// 019   ----------------------------------------
	BYTE	PATT
	 POIN2	WreyvineRecruitTheme_4_017
// 020   ----------------------------------------
	BYTE		N05     Fs1   v076
	BYTE	W06
	BYTE		        Bn0 
	BYTE		N05     Cn1 
	BYTE		N05     Dn1 
	BYTE		N05     En1 
	BYTE		N05     As1 
	BYTE		N05     Dn2 
	BYTE	W06
	BYTE		        Dn1 
	BYTE		N05     En1 
	BYTE		N05     Cn2 
	BYTE	W06
	BYTE		        Dn1 
	BYTE		N05     En1 
	BYTE		N05     Fs1 
	BYTE		N05     Bn1 
	BYTE	W06
	BYTE		        Dn1 
	BYTE		N05     En1 
	BYTE		N05     Fs1 
	BYTE		N05     An1 
	BYTE	W06
	BYTE		        Cn1 
	BYTE		N05     Fs1 
	BYTE	W06
	BYTE		        Gs1 
	BYTE	W06
	BYTE		        As1 
	BYTE	W06
	BYTE		        Gs1 
	BYTE	W06
	BYTE		        En1 
	BYTE		N05     Fs1 
	BYTE	W06
	BYTE		        Gs1 
	BYTE	W06
	BYTE		        As1 
	BYTE	W06
	BYTE		        Gs1 
	BYTE	W06
	BYTE		        Cn1 
	BYTE		N05     Fs1 
	BYTE	W06
	BYTE		        Gs1 
	BYTE	W06
	BYTE		        As1 
	BYTE	W06
// 021   ----------------------------------------
WreyvineRecruitTheme_4_021:
	BYTE		N05     Gs1   v076
	BYTE	W06
	BYTE		        En1 
	BYTE		N05     Fs1 
	BYTE	W06
	BYTE		        Gs1 
	BYTE	W06
	BYTE		        En1 
	BYTE		N05     As1 
	BYTE	W06
	BYTE		        Gs1 
	BYTE	W06
	BYTE		        Cn1 
	BYTE		N05     Fs1 
	BYTE	W06
	BYTE		        Gs1 
	BYTE	W06
	BYTE		        As1 
	BYTE	W06
	BYTE		        Gs1 
	BYTE	W06
	BYTE		        En1 
	BYTE		N05     Fs1 
	BYTE	W06
	BYTE		        Gs1 
	BYTE	W06
	BYTE		        As1 
	BYTE	W06
	BYTE		        Gs1 
	BYTE	W06
	BYTE		        Cn1 
	BYTE		N05     Fs1 
	BYTE	W06
	BYTE		        En1 
	BYTE		N05     Gs1 
	BYTE	W06
	BYTE		        As1 
	BYTE	W06
	BYTE	PEND
// 022   ----------------------------------------
WreyvineRecruitTheme_4_022:
	BYTE		N05     Gs1   v076
	BYTE	W06
	BYTE		        En1 
	BYTE		N05     Fs1 
	BYTE	W06
	BYTE		        Gs1 
	BYTE	W06
	BYTE		        Dn1 
	BYTE		N05     As1 
	BYTE	W06
	BYTE		        Gs1 
	BYTE	W06
	BYTE		        Cn1 
	BYTE		N05     Fs1 
	BYTE	W06
	BYTE		        Gs1 
	BYTE	W06
	BYTE		        As1 
	BYTE	W06
	BYTE		        Gs1 
	BYTE	W06
	BYTE		        En1 
	BYTE		N05     Fs1 
	BYTE	W06
	BYTE		        Gs1 
	BYTE	W06
	BYTE		        As1 
	BYTE	W06
	BYTE		        Gs1 
	BYTE	W06
	BYTE		        Cn1 
	BYTE		N05     Fs1 
	BYTE	W06
	BYTE		        Gs1 
	BYTE	W06
	BYTE		        As1 
	BYTE	W06
	BYTE	PEND
// 023   ----------------------------------------
	BYTE	PATT
	 POIN2	WreyvineRecruitTheme_4_021
// 024   ----------------------------------------
	BYTE	PATT
	 POIN2	WreyvineRecruitTheme_4_022
// 025   ----------------------------------------
	BYTE	PATT
	 POIN2	WreyvineRecruitTheme_4_021
// 026   ----------------------------------------
	BYTE	PATT
	 POIN2	WreyvineRecruitTheme_4_022
// 027   ----------------------------------------
	BYTE	PATT
	 POIN2	WreyvineRecruitTheme_4_021
// 028   ----------------------------------------
	BYTE		N05     Gs1   v076
	BYTE	W06
	BYTE		        En1 
	BYTE		N05     Fs1 
	BYTE	W06
	BYTE		        En1 
	BYTE		N05     Gs1 
	BYTE	W06
	BYTE		        Dn1 
	BYTE		N05     En1 
	BYTE		N05     As1 
	BYTE	W06
	BYTE		        En1 
	BYTE		N05     Gs1 
	BYTE	W06
	BYTE		        Bn0 
	BYTE		N05     Cn1 
	BYTE		N05     Fs1 
	BYTE		N05     An2 
	BYTE	W06
	BYTE		        Gs1 
	BYTE	W06
	BYTE		        Bn0 
	BYTE		N05     Cn1 
	BYTE		N05     As1 
	BYTE	W06
	BYTE		        Gs1 
	BYTE	W06
	BYTE		        Dn1 
	BYTE		N05     En1 
	BYTE		N05     Fs1 
	BYTE		N05     Bn1 
	BYTE		N05     Cn2 
	BYTE		N05     Dn2 
	BYTE	W06
	BYTE		        Bn0 
	BYTE		N05     Cn1 
	BYTE		N05     Gs1 
	BYTE	W06
	BYTE		        As1 
	BYTE	W06
	BYTE		        Bn0 
	BYTE		N05     Cn1 
	BYTE		N05     Gs1 
	BYTE	W06
	BYTE		        Bn0 
	BYTE		N05     Cn1 
	BYTE		N05     Fs1 
	BYTE	W06
	BYTE		        Gs1 
	BYTE	W06
	BYTE		        Bn0 
	BYTE		N05     Cn1 
	BYTE		N05     As1 
	BYTE	W06
// 029   ----------------------------------------
	BYTE	PATT
	 POIN2	WreyvineRecruitTheme_4_001
// 030   ----------------------------------------
	BYTE	PATT
	 POIN2	WreyvineRecruitTheme_4_001
// 031   ----------------------------------------
	BYTE	PATT
	 POIN2	WreyvineRecruitTheme_4_001
// 032   ----------------------------------------
	BYTE	PATT
	 POIN2	WreyvineRecruitTheme_4_004
// 033   ----------------------------------------
	BYTE	PATT
	 POIN2	WreyvineRecruitTheme_4_001
// 034   ----------------------------------------
	BYTE	PATT
	 POIN2	WreyvineRecruitTheme_4_001
// 035   ----------------------------------------
	BYTE	PATT
	 POIN2	WreyvineRecruitTheme_4_001
// 036   ----------------------------------------
	BYTE		N05     Gs1   v076
	BYTE	W06
	BYTE		        Dn1 
	BYTE		N05     En1 
	BYTE		N05     Fs1 
	BYTE		N05     Bn1 
	BYTE		N05     Cn2 
	BYTE		N05     Dn2 
	BYTE	W06
	BYTE		        Bn0 
	BYTE		N05     Cn1 
	BYTE		N05     Dn1 
	BYTE		N05     En1 
	BYTE		N05     Gs1 
	BYTE		N05     Bn1 
	BYTE		N05     Cn2 
	BYTE		N05     Dn2 
	BYTE	W06
	BYTE		        Dn1 
	BYTE		N05     En1 
	BYTE		N05     As1 
	BYTE		N05     Bn1 
	BYTE		N05     Cn2 
	BYTE		N05     Dn2 
	BYTE	W06
	BYTE		        Bn0 
	BYTE		N05     Cn1 
	BYTE		N05     Dn1 
	BYTE		N05     En1 
	BYTE		N05     Gs1 
	BYTE		N05     Bn1 
	BYTE		N05     Cn2 
	BYTE		N05     Dn2 
	BYTE	W06
	BYTE		N11     Cn1 
	BYTE		N11     As1 
	BYTE	W12
	BYTE		N05     Fs1 
	BYTE	W06
	BYTE		N05   
	BYTE	W06
	BYTE		N11     As1 
	BYTE	W12
	BYTE		N05     Cn1 
	BYTE		N05     Fs1 
	BYTE	W06
	BYTE		N05   
	BYTE	W06
	BYTE		N11     En1 
	BYTE		N11     As1 
	BYTE	W12
	BYTE		N05     Fs1 
	BYTE	W06
// 037   ----------------------------------------
WreyvineRecruitTheme_4_037:
	BYTE		N05     Fs1   v076
	BYTE	W06
	BYTE		N11     Cn1 
	BYTE		N11     As1 
	BYTE	W12
	BYTE		N05     Fs1 
	BYTE	W06
	BYTE		N05   
	BYTE	W06
	BYTE		N11     Cn1 
	BYTE		N11     As1 
	BYTE	W12
	BYTE		N05     Fs1 
	BYTE	W06
	BYTE		N05   
	BYTE	W06
	BYTE		N11     As1 
	BYTE	W12
	BYTE		N05     Cn1 
	BYTE		N05     Fs1 
	BYTE	W06
	BYTE		N05   
	BYTE	W06
	BYTE		N11     En1 
	BYTE		N11     As1 
	BYTE	W12
	BYTE		N05     Fs1 
	BYTE	W06
	BYTE	PEND
// 038   ----------------------------------------
	BYTE	PATT
	 POIN2	WreyvineRecruitTheme_4_037
// 039   ----------------------------------------
	BYTE	PATT
	 POIN2	WreyvineRecruitTheme_4_037
// 040   ----------------------------------------
	BYTE		N05     Fs1   v076
	BYTE	W06
	BYTE		N11     Cn1 
	BYTE		N11     En1 
	BYTE		N11     As1 
	BYTE	W12
	BYTE		N05     En1 
	BYTE		N05     Fs1 
	BYTE	W06
	BYTE		N05   
	BYTE	W06
	BYTE	GoTo
	 POIN2	WreyvineRecruitTheme_4_B1
WreyvineRecruitTheme_4_B2:
	BYTE	FINE

//**************** Track 5 (Midi-Chn.5) ****************//

WreyvineRecruitTheme_5:
	BYTE	KEYSH   WreyvineRecruitTheme_key+0
// 000   ----------------------------------------
	BYTE		VOICE   73
	BYTE		MODT    0
	BYTE		LFOS    44
	BYTE		VOL     119*WreyvineRecruitTheme_mvl/mxv
	BYTE		PAN     c_v+21
	BYTE		BEND    c_v+0
	BYTE	W30
WreyvineRecruitTheme_5_B1:
	BYTE		PAN     c_v+21
	BYTE	W66
// 001   ----------------------------------------
	BYTE		        c_v+20
	BYTE		BEND    c_v+0
	BYTE	W96
// 002   ----------------------------------------
	BYTE	W96
// 003   ----------------------------------------
	BYTE	W96
// 004   ----------------------------------------
	BYTE	W96
// 005   ----------------------------------------
	BYTE	W96
// 006   ----------------------------------------
	BYTE	W96
// 007   ----------------------------------------
	BYTE	W96
// 008   ----------------------------------------
	BYTE	W96
// 009   ----------------------------------------
	BYTE	W96
// 010   ----------------------------------------
	BYTE	W96
// 011   ----------------------------------------
	BYTE	W96
// 012   ----------------------------------------
	BYTE	W96
// 013   ----------------------------------------
	BYTE	W96
// 014   ----------------------------------------
	BYTE	W96
// 015   ----------------------------------------
	BYTE	W96
// 016   ----------------------------------------
	BYTE	W96
// 017   ----------------------------------------
	BYTE	W96
// 018   ----------------------------------------
	BYTE	W96
// 019   ----------------------------------------
	BYTE	W96
// 020   ----------------------------------------
	BYTE	W30
	BYTE		N32     Cs4   v127
	BYTE	W36
	BYTE		N05     Ds4 
	BYTE	W06
	BYTE		        En4 
	BYTE	W06
	BYTE		N32     Bn3 
	BYTE	W18
// 021   ----------------------------------------
	BYTE	W18
	BYTE		N05   
	BYTE	W06
	BYTE		        An3 
	BYTE	W06
	BYTE		N15     Gs3 
	BYTE	W16
	BYTE		        Fs3 
	BYTE	W16
	BYTE		        En3 
	BYTE	W16
	BYTE		N42     Gs3 
	BYTE	W18
// 022   ----------------------------------------
	BYTE	W30
	BYTE		N15     Cs4 
	BYTE	W16
	BYTE		        Bn3 
	BYTE	W16
	BYTE		        Cs4 
	BYTE	W16
	BYTE		        En4 
	BYTE	W16
	BYTE		        Fs4 
	BYTE	W02
// 023   ----------------------------------------
	BYTE	W14
	BYTE		        Gs4 
	BYTE	W16
	BYTE		        An4 
	BYTE	W16
	BYTE		        Gs4 
	BYTE	W16
	BYTE		        An4 
	BYTE	W16
	BYTE		N42     Fs4 
	BYTE	W18
// 024   ----------------------------------------
	BYTE	W30
	BYTE		N32     En4 
	BYTE	W36
	BYTE		N05     Ds4 
	BYTE	W06
	BYTE		        En4 
	BYTE	W06
	BYTE		N32     Cs4 
	BYTE	W18
// 025   ----------------------------------------
	BYTE	W18
	BYTE		N05     Ds4 
	BYTE	W06
	BYTE		        En4 
	BYTE	W06
	BYTE		N15     Gs4 
	BYTE	W16
	BYTE		        Fs4 
	BYTE	W16
	BYTE		        En4 
	BYTE	W16
	BYTE		        Cs4 
	BYTE	W16
	BYTE		        Bn3 
	BYTE	W02
// 026   ----------------------------------------
	BYTE	W14
	BYTE		        Cs4 
	BYTE	W16
	BYTE		N07     Gs3 
	BYTE	W08
	BYTE		        En3 
	BYTE	W08
	BYTE		        Gs3 
	BYTE	W08
	BYTE		        Cs4 
	BYTE	W08
	BYTE		        Gs3 
	BYTE	W08
	BYTE		        Cs4 
	BYTE	W08
	BYTE		        En4 
	BYTE	W08
	BYTE		        Cs4 
	BYTE	W08
	BYTE		        En4 
	BYTE	W02
// 027   ----------------------------------------
	BYTE	W06
	BYTE		        Gs4 
	BYTE	W08
	BYTE		        En4 
	BYTE	W08
	BYTE		        Gs4 
	BYTE	W08
	BYTE		N90     An4 
	BYTE	W66
// 028   ----------------------------------------
	BYTE	W30
	BYTE		BEND    c_v+0
	BYTE	W66
// 029   ----------------------------------------
	BYTE	W96
// 030   ----------------------------------------
	BYTE	W96
// 031   ----------------------------------------
	BYTE	W96
// 032   ----------------------------------------
	BYTE	W96
// 033   ----------------------------------------
	BYTE	W96
// 034   ----------------------------------------
	BYTE	W96
// 035   ----------------------------------------
	BYTE	W96
// 036   ----------------------------------------
	BYTE	W96
// 037   ----------------------------------------
	BYTE	W96
// 038   ----------------------------------------
	BYTE	W96
// 039   ----------------------------------------
	BYTE	W96
// 040   ----------------------------------------
	BYTE	W30
	BYTE	GoTo
	 POIN2	WreyvineRecruitTheme_5_B1
WreyvineRecruitTheme_5_B2:
	BYTE	FINE

//**************** Track 6 (Midi-Chn.6) ****************//

WreyvineRecruitTheme_6:
	BYTE	KEYSH   WreyvineRecruitTheme_key+0
// 000   ----------------------------------------
	BYTE		VOICE   61
	BYTE		MODT    0
	BYTE		LFOS    44
	BYTE		PAN     c_v-19
	BYTE		VOL     127*WreyvineRecruitTheme_mvl/mxv
	BYTE		BEND    c_v+0
	BYTE	W30
WreyvineRecruitTheme_6_B1:
	BYTE		N16     Cn4   v127
	BYTE	W16
	BYTE		        Bn3 
	BYTE	W16
	BYTE		        Cn4 
	BYTE	W16
	BYTE		N42     En3 
	BYTE	W18
// 001   ----------------------------------------
	BYTE	W30
	BYTE		N16     An3 
	BYTE	W16
	BYTE		        Bn3 
	BYTE	W16
	BYTE		        Cn4 
	BYTE	W16
	BYTE		        Dn4 
	BYTE	W16
	BYTE		        Cn4 
	BYTE	W02
// 002   ----------------------------------------
	BYTE	W14
	BYTE		        An3 
	BYTE	W16
	BYTE		        Bn3 
	BYTE	W16
	BYTE		        An3 
	BYTE	W16
	BYTE		        Bn3 
	BYTE	W16
	BYTE		N42     Gn3 
	BYTE	W18
// 003   ----------------------------------------
	BYTE	W30
	BYTE		N16     An3 
	BYTE	W16
	BYTE		        Fn3 
	BYTE	W16
	BYTE		        An3 
	BYTE	W16
	BYTE		        Bn3 
	BYTE	W16
	BYTE		        Cn4 
	BYTE	W02
// 004   ----------------------------------------
	BYTE	W14
	BYTE		N15     Dn4 
	BYTE	W16
	BYTE		        Cn4 
	BYTE	W16
	BYTE		        Bn3 
	BYTE	W16
	BYTE		        Cn4 
	BYTE	W16
	BYTE		N42     En4 
	BYTE	W18
// 005   ----------------------------------------
	BYTE	W30
	BYTE		N15     Fn4 
	BYTE	W16
	BYTE		        En4 
	BYTE	W16
	BYTE		        Dn4 
	BYTE	W16
	BYTE		        Cn4 
	BYTE	W16
	BYTE		        Dn4 
	BYTE	W02
// 006   ----------------------------------------
	BYTE	W14
	BYTE		        Fs4 
	BYTE	W16
	BYTE		        Gn4 
	BYTE	W16
	BYTE		        Fs4 
	BYTE	W16
	BYTE		        Gn4 
	BYTE	W16
	BYTE		N42     En4 
	BYTE	W18
// 007   ----------------------------------------
	BYTE	W30
	BYTE		N15     Cn4 
	BYTE	W16
	BYTE		        Dn4 
	BYTE	W16
	BYTE		        En4 
	BYTE	W16
	BYTE		        Bn3 
	BYTE	W16
	BYTE		        An3 
	BYTE	W02
// 008   ----------------------------------------
	BYTE	W14
	BYTE		        Bn3 
	BYTE	W16
	BYTE		N32     Cn4 
	BYTE	W36
	BYTE		N05     Bn3 
	BYTE	W06
	BYTE		        Cn4 
	BYTE	W06
	BYTE		N15     Dn4 
	BYTE	W16
	BYTE		        En4 
	BYTE	W02
// 009   ----------------------------------------
	BYTE	W14
	BYTE		        Fn4 
	BYTE	W16
	BYTE		        En4 
	BYTE	W16
	BYTE		        Dn4 
	BYTE	W16
	BYTE		        Cn4 
	BYTE	W16
	BYTE		N32     Fn4 
	BYTE	W18
// 010   ----------------------------------------
	BYTE	W18
	BYTE		N05     En4 
	BYTE	W06
	BYTE		        Dn4 
	BYTE	W06
	BYTE		N32     Cn4 
	BYTE	W36
	BYTE		N05     An3 
	BYTE	W06
	BYTE		        Bn3 
	BYTE	W06
	BYTE		N15     Cn4 
	BYTE	W16
	BYTE		        Bn3 
	BYTE	W02
// 011   ----------------------------------------
	BYTE	W14
	BYTE		        An3 
	BYTE	W16
	BYTE		        Bn3 
	BYTE	W16
	BYTE		        Cn4 
	BYTE	W16
	BYTE		        Dn4 
	BYTE	W16
	BYTE		        Fn4 
	BYTE	W16
	BYTE		        En4 
	BYTE	W02
// 012   ----------------------------------------
	BYTE	W14
	BYTE		        Dn4 
	BYTE	W16
	BYTE		N32     En4 
	BYTE	W36
	BYTE		N05     Cn4 
	BYTE	W06
	BYTE		        Dn4 
	BYTE	W06
	BYTE		N15     En4 
	BYTE	W16
	BYTE		        Fn4 
	BYTE	W02
// 013   ----------------------------------------
	BYTE	W14
	BYTE		        Gn4 
	BYTE	W16
	BYTE		        As4 
	BYTE	W16
	BYTE		        An4 
	BYTE	W16
	BYTE		        As4 
	BYTE	W16
	BYTE		N32     Fn4 
	BYTE	W18
// 014   ----------------------------------------
	BYTE	W18
	BYTE		N05     En4 
	BYTE	W06
	BYTE		        Dn4 
	BYTE	W06
	BYTE		N15     Cn4 
	BYTE	W16
	BYTE		        Fn4 
	BYTE	W16
	BYTE		        Cn4 
	BYTE	W16
	BYTE		        An4 
	BYTE	W16
	BYTE		        Fn4 
	BYTE	W02
// 015   ----------------------------------------
	BYTE	W14
	BYTE		        An4 
	BYTE	W16
	BYTE		N32     Gn4 
	BYTE	W36
	BYTE		N05     Fn4 
	BYTE	W06
	BYTE		        En4 
	BYTE	W06
	BYTE		N15     Fn4 
	BYTE	W16
	BYTE		        En4 
	BYTE	W02
// 016   ----------------------------------------
	BYTE	W14
	BYTE		        Dn4 
	BYTE	W16
	BYTE		N96     En4 
	BYTE	W66
// 017   ----------------------------------------
	BYTE	W30
	BYTE		        Fn4 
	BYTE	W66
// 018   ----------------------------------------
	BYTE	W30
	BYTE		        En4 
	BYTE	W66
// 019   ----------------------------------------
	BYTE	W30
	BYTE		N90     Fn4 
	BYTE	W66
// 020   ----------------------------------------
	BYTE	W96
// 021   ----------------------------------------
	BYTE	W96
// 022   ----------------------------------------
	BYTE	W96
// 023   ----------------------------------------
	BYTE	W96
// 024   ----------------------------------------
	BYTE	W96
// 025   ----------------------------------------
	BYTE	W96
// 026   ----------------------------------------
	BYTE	W96
// 027   ----------------------------------------
	BYTE	W96
// 028   ----------------------------------------
	BYTE	W30
	BYTE		N15     Cn4 
	BYTE	W16
	BYTE		        Gn4 
	BYTE	W16
	BYTE		        Fn4 
	BYTE	W16
	BYTE		        En4 
	BYTE	W16
	BYTE		        Dn4 
	BYTE	W02
// 029   ----------------------------------------
	BYTE	W14
	BYTE		        En4 
	BYTE	W16
	BYTE		        Fn4 
	BYTE	W16
	BYTE		        Dn4 
	BYTE	W16
	BYTE		        Fn4 
	BYTE	W16
	BYTE		        As4 
	BYTE	W16
	BYTE		        An4 
	BYTE	W02
// 030   ----------------------------------------
	BYTE	W14
	BYTE		        Gn4 
	BYTE	W16
	BYTE		N32     Fn4 
	BYTE	W36
	BYTE		N05     Cn4 
	BYTE	W06
	BYTE		        Fn4 
	BYTE	W06
	BYTE		N15     An4 
	BYTE	W16
	BYTE		        Gn4 
	BYTE	W02
// 031   ----------------------------------------
	BYTE	W14
	BYTE		        Fn4 
	BYTE	W16
	BYTE		N32     Gn4 
	BYTE	W36
	BYTE		N05     Dn4 
	BYTE	W06
	BYTE		        Bn3 
	BYTE	W06
	BYTE		N42     Dn4 
	BYTE	W18
// 032   ----------------------------------------
	BYTE	W30
	BYTE		N05     Cn4 
	BYTE	W06
	BYTE		        Gn3 
	BYTE	W06
	BYTE		        An3 
	BYTE	W06
	BYTE		        Gn3 
	BYTE	W06
	BYTE		        Cn4 
	BYTE	W06
	BYTE		        Dn4 
	BYTE	W06
	BYTE		        En4 
	BYTE	W06
	BYTE		        Cn4 
	BYTE	W06
	BYTE		N11     Gn4 
	BYTE	W12
	BYTE		        Fn4 
	BYTE	W06
// 033   ----------------------------------------
	BYTE	W06
	BYTE		        En4 
	BYTE	W12
	BYTE		        Dn4 
	BYTE	W12
	BYTE		N32     Cn4 
	BYTE	W36
	BYTE		N05     Dn4 
	BYTE	W06
	BYTE		        Cn4 
	BYTE	W06
	BYTE		N15     As3 
	BYTE	W16
	BYTE		        An3 
	BYTE	W02
// 034   ----------------------------------------
	BYTE	W14
	BYTE		        As3 
	BYTE	W16
	BYTE		        An3 
	BYTE	W16
	BYTE		        Fn3 
	BYTE	W16
	BYTE		        An3 
	BYTE	W16
	BYTE		        Cn4 
	BYTE	W16
	BYTE		        An3 
	BYTE	W02
// 035   ----------------------------------------
	BYTE	W14
	BYTE		        Cn4 
	BYTE	W16
	BYTE		        Dn4 
	BYTE	W16
	BYTE		        Cn4 
	BYTE	W16
	BYTE		        Dn4 
	BYTE	W16
	BYTE		        Fn4 
	BYTE	W16
	BYTE		        En4 
	BYTE	W02
// 036   ----------------------------------------
	BYTE	W14
	BYTE		        Fn4 
	BYTE	W16
	BYTE		N90     En4 
	BYTE	W66
// 037   ----------------------------------------
	BYTE	W96
// 038   ----------------------------------------
	BYTE	W96
// 039   ----------------------------------------
	BYTE	W96
// 040   ----------------------------------------
	BYTE	W30
	BYTE	GoTo
	 POIN2	WreyvineRecruitTheme_6_B1
WreyvineRecruitTheme_6_B2:
	BYTE		VOL     127*WreyvineRecruitTheme_mvl/mxv
	BYTE		BEND    c_v+0
	BYTE	FINE

//**************** Track 7 (Midi-Chn.7) ****************//

WreyvineRecruitTheme_7:
	BYTE	KEYSH   WreyvineRecruitTheme_key+0
// 000   ----------------------------------------
	BYTE		VOICE   49
	BYTE		MODT    0
	BYTE		LFOS    44
	BYTE		VOL     87*WreyvineRecruitTheme_mvl/mxv
	BYTE		PAN     c_v-7
	BYTE		BEND    c_v+0
	BYTE	W30
WreyvineRecruitTheme_7_B1:
	BYTE	W66
// 001   ----------------------------------------
	BYTE		BEND    c_v+0
	BYTE	W96
// 002   ----------------------------------------
	BYTE	W96
// 003   ----------------------------------------
	BYTE	W96
// 004   ----------------------------------------
	BYTE	W96
// 005   ----------------------------------------
	BYTE	W96
// 006   ----------------------------------------
	BYTE	W96
// 007   ----------------------------------------
	BYTE	W96
// 008   ----------------------------------------
	BYTE	W96
// 009   ----------------------------------------
	BYTE	W96
// 010   ----------------------------------------
	BYTE	W96
// 011   ----------------------------------------
	BYTE	W96
// 012   ----------------------------------------
	BYTE	W96
// 013   ----------------------------------------
	BYTE	W96
// 014   ----------------------------------------
	BYTE	W96
// 015   ----------------------------------------
	BYTE	W96
// 016   ----------------------------------------
	BYTE	W96
// 017   ----------------------------------------
	BYTE	W96
// 018   ----------------------------------------
	BYTE	W96
// 019   ----------------------------------------
	BYTE	W96
// 020   ----------------------------------------
	BYTE	W30
	BYTE		N32     Cs4   v127
	BYTE	W36
	BYTE		N05     Ds4 
	BYTE	W06
	BYTE		        En4 
	BYTE	W06
	BYTE		N32     Bn3 
	BYTE	W18
// 021   ----------------------------------------
	BYTE	W18
	BYTE		N05   
	BYTE	W06
	BYTE		        An3 
	BYTE	W06
	BYTE		N15     Gs3 
	BYTE	W16
	BYTE		        Fs3 
	BYTE	W16
	BYTE		        En3 
	BYTE	W16
	BYTE		N42     Gs3 
	BYTE	W18
// 022   ----------------------------------------
	BYTE	W30
	BYTE		N15     Cs4 
	BYTE	W16
	BYTE		        Bn3 
	BYTE	W16
	BYTE		        Cs4 
	BYTE	W16
	BYTE		        En4 
	BYTE	W16
	BYTE		        Fs4 
	BYTE	W02
// 023   ----------------------------------------
	BYTE	W14
	BYTE		        Gs4 
	BYTE	W16
	BYTE		        An4 
	BYTE	W16
	BYTE		        Gs4 
	BYTE	W16
	BYTE		        An4 
	BYTE	W16
	BYTE		N42     Fs4 
	BYTE	W18
// 024   ----------------------------------------
	BYTE	W30
	BYTE		N32     En4 
	BYTE	W36
	BYTE		N05     Ds4 
	BYTE	W06
	BYTE		        En4 
	BYTE	W06
	BYTE		N32     Cs4 
	BYTE	W18
// 025   ----------------------------------------
	BYTE	W18
	BYTE		N05     Ds4 
	BYTE	W06
	BYTE		        En4 
	BYTE	W06
	BYTE		N15     Gs4 
	BYTE	W16
	BYTE		        Fs4 
	BYTE	W16
	BYTE		        En4 
	BYTE	W16
	BYTE		        Cs4 
	BYTE	W16
	BYTE		        Bn3 
	BYTE	W02
// 026   ----------------------------------------
	BYTE	W14
	BYTE		        Cs4 
	BYTE	W16
	BYTE		N07     Gs3 
	BYTE	W08
	BYTE		        En3 
	BYTE	W08
	BYTE		        Gs3 
	BYTE	W08
	BYTE		        Cs4 
	BYTE	W08
	BYTE		        Gs3 
	BYTE	W08
	BYTE		        Cs4 
	BYTE	W08
	BYTE		        En4 
	BYTE	W08
	BYTE		        Cs4 
	BYTE	W08
	BYTE		        En4 
	BYTE	W02
// 027   ----------------------------------------
	BYTE	W06
	BYTE		        Gs4 
	BYTE	W08
	BYTE		        En4 
	BYTE	W08
	BYTE		        Gs4 
	BYTE	W08
	BYTE		N90     An4 
	BYTE	W66
// 028   ----------------------------------------
	BYTE	W30
	BYTE		BEND    c_v+0
	BYTE	W66
// 029   ----------------------------------------
	BYTE	W96
// 030   ----------------------------------------
	BYTE	W96
// 031   ----------------------------------------
	BYTE	W96
// 032   ----------------------------------------
	BYTE	W96
// 033   ----------------------------------------
	BYTE	W96
// 034   ----------------------------------------
	BYTE	W96
// 035   ----------------------------------------
	BYTE	W96
// 036   ----------------------------------------
	BYTE	W96
// 037   ----------------------------------------
	BYTE	W96
// 038   ----------------------------------------
	BYTE	W96
// 039   ----------------------------------------
	BYTE	W96
// 040   ----------------------------------------
	BYTE	W30
	BYTE	GoTo
	 POIN2	WreyvineRecruitTheme_7_B1
WreyvineRecruitTheme_7_B2:
	BYTE	FINE

//******************************************************//
	ALIGN 4

WreyvineRecruitTheme:
	BYTE	7	// NumTrks
	BYTE	0	// NumBlks
	BYTE	WreyvineRecruitTheme_pri	// Priority
	BYTE	WreyvineRecruitTheme_rev	// Reverb.

	POIN2	WreyvineRecruitTheme_grp

	POIN2	WreyvineRecruitTheme_1
	POIN2	WreyvineRecruitTheme_2
	POIN2	WreyvineRecruitTheme_3
	POIN2	WreyvineRecruitTheme_4
	POIN2	WreyvineRecruitTheme_5
	POIN2	WreyvineRecruitTheme_6
	POIN2	WreyvineRecruitTheme_7

	
