//Event file generated from Sappy .s format.
	#include "MPlayDef.event"

	#define	Snowfall_grp  voicegroup000
	#define	Snowfall_pri  0
	#define	Snowfall_rev  148
	#define	Snowfall_mvl  27
	#define	Snowfall_key  0
	#define	Snowfall_tbs  1
	#define	Snowfall_exg  0
	#define	Snowfall_cmp  1

	// .rodata
	//	Snowfall
	ALIGN 4

//**************** Track 1 (Midi-Chn.1) ****************//

Snowfall_1:
	BYTE	KEYSH   Snowfall_key+0
Snowfall_1_B1:
// 000   ----------------------------------------
	BYTE	TEMPO   110*Snowfall_tbs/2
	BYTE		VOICE   60
	BYTE		MODT    0
	BYTE		LFOS    44
	BYTE		PAN     c_v-20
	BYTE		VOL     127*Snowfall_mvl/mxv
	BYTE		N32     Gn3   v127
	BYTE	W36
	BYTE		        Dn3 
	BYTE	W36
	BYTE		N20     Gn3 
	BYTE	W24
// 001   ----------------------------------------
Snowfall_1_001:
	BYTE		N32     Gn3   v127
	BYTE	W36
	BYTE		N05     An3 
	BYTE	W06
	BYTE		        Gn3 
	BYTE	W06
	BYTE		N15     Fs3 
	BYTE	W16
	BYTE		        En3 
	BYTE	W16
	BYTE		        Dn3 
	BYTE	W16
	BYTE	PEND
// 002   ----------------------------------------
Snowfall_1_002:
	BYTE		N32     Fn3   v127
	BYTE	W36
	BYTE		        Cn3 
	BYTE	W36
	BYTE		N20     Fn3 
	BYTE	W24
	BYTE	PEND
// 003   ----------------------------------------
Snowfall_1_003:
	BYTE		N32     En3   v127
	BYTE	W36
	BYTE		N11     Bn2 
	BYTE	W12
	BYTE		N42   
	BYTE	W48
	BYTE	PEND
// 004   ----------------------------------------
Snowfall_1_004:
	BYTE		N32     Gn3   v127
	BYTE	W36
	BYTE		        Dn3 
	BYTE	W36
	BYTE		N20     Gn3 
	BYTE	W24
	BYTE	PEND
// 005   ----------------------------------------
	BYTE	PATT
	 POIN2	Snowfall_1_001
// 006   ----------------------------------------
	BYTE	PATT
	 POIN2	Snowfall_1_002
// 007   ----------------------------------------
	BYTE	PATT
	 POIN2	Snowfall_1_003
// 008   ----------------------------------------
	BYTE	W96
// 009   ----------------------------------------
	BYTE	W96
// 010   ----------------------------------------
	BYTE	W96
// 011   ----------------------------------------
	BYTE	W96
// 012   ----------------------------------------
	BYTE	W96
// 013   ----------------------------------------
	BYTE	W96
// 014   ----------------------------------------
	BYTE	W96
// 015   ----------------------------------------
	BYTE	W96
// 016   ----------------------------------------
	BYTE	PATT
	 POIN2	Snowfall_1_004
// 017   ----------------------------------------
	BYTE	PATT
	 POIN2	Snowfall_1_001
// 018   ----------------------------------------
	BYTE	PATT
	 POIN2	Snowfall_1_002
// 019   ----------------------------------------
	BYTE	PATT
	 POIN2	Snowfall_1_003
// 020   ----------------------------------------
	BYTE	PATT
	 POIN2	Snowfall_1_004
// 021   ----------------------------------------
	BYTE	PATT
	 POIN2	Snowfall_1_001
// 022   ----------------------------------------
	BYTE	PATT
	 POIN2	Snowfall_1_002
// 023   ----------------------------------------
	BYTE	PATT
	 POIN2	Snowfall_1_003
// 024   ----------------------------------------
	BYTE	W72
// 025   ----------------------------------------
	BYTE	W72
// 026   ----------------------------------------
	BYTE	W72
// 027   ----------------------------------------
	BYTE	W72
// 028   ----------------------------------------
	BYTE	W72
// 029   ----------------------------------------
	BYTE	W72
// 030   ----------------------------------------
	BYTE	W72
// 031   ----------------------------------------
	BYTE	W72
// 032   ----------------------------------------
	BYTE	W72
// 033   ----------------------------------------
	BYTE	W72
// 034   ----------------------------------------
	BYTE	W72
// 035   ----------------------------------------
	BYTE	W72
// 036   ----------------------------------------
	BYTE	W72
// 037   ----------------------------------------
	BYTE	W72
// 038   ----------------------------------------
	BYTE	W72
// 039   ----------------------------------------
	BYTE	W72
// 040   ----------------------------------------
	BYTE		N16     Cn3   v127
	BYTE	W16
	BYTE		        En3 
	BYTE	W16
	BYTE		        Fs3 
	BYTE	W16
	BYTE		        Gn3 
	BYTE	W16
	BYTE		        Fs3 
	BYTE	W16
	BYTE		N15     En3 
	BYTE	W16
// 041   ----------------------------------------
	BYTE		N32     Dn3 
	BYTE	W36
	BYTE		N11     Cn3 
	BYTE	W12
	BYTE		N42   
	BYTE	W48
// 042   ----------------------------------------
	BYTE		N16     Gn2 
	BYTE	W16
	BYTE		        Bn2 
	BYTE	W16
	BYTE		        Cn3 
	BYTE	W16
	BYTE		        En3 
	BYTE	W16
	BYTE		        Dn3 
	BYTE	W16
	BYTE		N15     Cn3 
	BYTE	W16
// 043   ----------------------------------------
	BYTE		N32     An2 
	BYTE	W36
	BYTE		N11     En2 
	BYTE	W12
	BYTE		N42   
	BYTE	W48
// 044   ----------------------------------------
	BYTE		N16     Fn2 
	BYTE	W16
	BYTE		        An2 
	BYTE	W16
	BYTE		        Bn2 
	BYTE	W16
	BYTE		N42     Cn3 
	BYTE	W48
// 045   ----------------------------------------
	BYTE		N16     Bn2 
	BYTE	W16
	BYTE		        En3 
	BYTE	W16
	BYTE		        Fs3 
	BYTE	W16
	BYTE		N42     Gn3 
	BYTE	W48
// 046   ----------------------------------------
	BYTE		N16     Fn3 
	BYTE	W16
	BYTE		        Dn3 
	BYTE	W16
	BYTE		N15   
	BYTE	W16
	BYTE		N16     Cn3 
	BYTE	W16
	BYTE		        An2 
	BYTE	W16
	BYTE		N15   
	BYTE	W16
// 047   ----------------------------------------
	BYTE		N16     Fs2 
	BYTE	W16
	BYTE		        An2 
	BYTE	W16
	BYTE		        Cn3 
	BYTE	W16
	BYTE		        Dn3 
	BYTE	W16
	BYTE		        En3 
	BYTE	W16
	BYTE		        Fs3 
	BYTE	W16
// 048   ----------------------------------------
	BYTE		TIE     Gn3 
	BYTE	W96
// 049   ----------------------------------------
	BYTE	W90
	BYTE		EOT   
	BYTE	GoTo
	 POIN2	Snowfall_1_B1
Snowfall_1_B2:
	BYTE	FINE

//**************** Track 2 (Midi-Chn.2) ****************//

Snowfall_2:
	BYTE	KEYSH   Snowfall_key+0
Snowfall_2_B1:
// 000   ----------------------------------------
	BYTE		VOICE   73
	BYTE		MODT    0
	BYTE		LFOS    44
	BYTE		PAN     c_v+18
	BYTE		VOL     127*Snowfall_mvl/mxv
	BYTE	W96
// 001   ----------------------------------------
	BYTE	W96
// 002   ----------------------------------------
	BYTE	W96
// 003   ----------------------------------------
	BYTE	W96
// 004   ----------------------------------------
	BYTE	W96
// 005   ----------------------------------------
	BYTE	W96
// 006   ----------------------------------------
	BYTE	W96
// 007   ----------------------------------------
	BYTE	W96
// 008   ----------------------------------------
Snowfall_2_008:
	BYTE		N16     Cn4   v127
	BYTE	W16
	BYTE		        En4 
	BYTE	W16
	BYTE		        Fs4 
	BYTE	W16
	BYTE		        Gn4 
	BYTE	W16
	BYTE		        Fs4 
	BYTE	W16
	BYTE		N15     En4 
	BYTE	W16
	BYTE	PEND
// 009   ----------------------------------------
Snowfall_2_009:
	BYTE		N32     Dn4   v127
	BYTE	W36
	BYTE		N11     Cn4 
	BYTE	W12
	BYTE		N42   
	BYTE	W48
	BYTE	PEND
// 010   ----------------------------------------
Snowfall_2_010:
	BYTE		N16     Gn3   v127
	BYTE	W16
	BYTE		        Bn3 
	BYTE	W16
	BYTE		        Cn4 
	BYTE	W16
	BYTE		        En4 
	BYTE	W16
	BYTE		        Dn4 
	BYTE	W16
	BYTE		N15     Cn4 
	BYTE	W16
	BYTE	PEND
// 011   ----------------------------------------
Snowfall_2_011:
	BYTE		N32     An3   v127
	BYTE	W36
	BYTE		N11     En3 
	BYTE	W12
	BYTE		N42   
	BYTE	W48
	BYTE	PEND
// 012   ----------------------------------------
Snowfall_2_012:
	BYTE		N16     Fn3   v127
	BYTE	W16
	BYTE		        An3 
	BYTE	W16
	BYTE		        Bn3 
	BYTE	W16
	BYTE		N42     Cn4 
	BYTE	W48
	BYTE	PEND
// 013   ----------------------------------------
Snowfall_2_013:
	BYTE		N16     Bn3   v127
	BYTE	W16
	BYTE		        En4 
	BYTE	W16
	BYTE		        Fs4 
	BYTE	W16
	BYTE		N42     Gn4 
	BYTE	W48
	BYTE	PEND
// 014   ----------------------------------------
Snowfall_2_014:
	BYTE		N16     Fn4   v127
	BYTE	W16
	BYTE		        Dn4 
	BYTE	W16
	BYTE		N15   
	BYTE	W16
	BYTE		N16     Cn4 
	BYTE	W16
	BYTE		        An3 
	BYTE	W16
	BYTE		N15   
	BYTE	W16
	BYTE	PEND
// 015   ----------------------------------------
Snowfall_2_015:
	BYTE		N16     Fs3   v127
	BYTE	W16
	BYTE		        An3 
	BYTE	W16
	BYTE		        Cn4 
	BYTE	W16
	BYTE		        Dn4 
	BYTE	W16
	BYTE		        En4 
	BYTE	W16
	BYTE		        Fs4 
	BYTE	W16
	BYTE	PEND
// 016   ----------------------------------------
	BYTE		N90     Gn4 
	BYTE	W96
// 017   ----------------------------------------
	BYTE	W96
// 018   ----------------------------------------
	BYTE	W96
// 019   ----------------------------------------
	BYTE	W96
// 020   ----------------------------------------
	BYTE	W96
// 021   ----------------------------------------
	BYTE	W96
// 022   ----------------------------------------
	BYTE	W96
// 023   ----------------------------------------
	BYTE	W96
// 024   ----------------------------------------
	BYTE	W72
// 025   ----------------------------------------
	BYTE	W72
// 026   ----------------------------------------
	BYTE	W72
// 027   ----------------------------------------
	BYTE	W72
// 028   ----------------------------------------
	BYTE	W72
// 029   ----------------------------------------
	BYTE	W72
// 030   ----------------------------------------
	BYTE	W72
// 031   ----------------------------------------
	BYTE	W72
// 032   ----------------------------------------
	BYTE	W72
// 033   ----------------------------------------
	BYTE	W72
// 034   ----------------------------------------
	BYTE	W72
// 035   ----------------------------------------
	BYTE	W72
// 036   ----------------------------------------
	BYTE	W72
// 037   ----------------------------------------
	BYTE	W72
// 038   ----------------------------------------
	BYTE	W72
// 039   ----------------------------------------
	BYTE	W72
// 040   ----------------------------------------
	BYTE	PATT
	 POIN2	Snowfall_2_008
// 041   ----------------------------------------
	BYTE	PATT
	 POIN2	Snowfall_2_009
// 042   ----------------------------------------
	BYTE	PATT
	 POIN2	Snowfall_2_010
// 043   ----------------------------------------
	BYTE	PATT
	 POIN2	Snowfall_2_011
// 044   ----------------------------------------
	BYTE	PATT
	 POIN2	Snowfall_2_012
// 045   ----------------------------------------
	BYTE	PATT
	 POIN2	Snowfall_2_013
// 046   ----------------------------------------
	BYTE	PATT
	 POIN2	Snowfall_2_014
// 047   ----------------------------------------
	BYTE	PATT
	 POIN2	Snowfall_2_015
// 048   ----------------------------------------
	BYTE		TIE     Gn4   v127
	BYTE	W96
// 049   ----------------------------------------
	BYTE	W90
	BYTE		EOT   
	BYTE	GoTo
	 POIN2	Snowfall_2_B1
Snowfall_2_B2:
	BYTE	FINE

//**************** Track 3 (Midi-Chn.3) ****************//

Snowfall_3:
	BYTE	KEYSH   Snowfall_key+0
Snowfall_3_B1:
// 000   ----------------------------------------
	BYTE		VOICE   48
	BYTE		MODT    0
	BYTE		LFOS    44
	BYTE		VOL     105*Snowfall_mvl/mxv
	BYTE		PAN     c_v+0
	BYTE		N96     Gn1   v127
	BYTE	W96
// 001   ----------------------------------------
	BYTE		        Dn2 
	BYTE	W96
// 002   ----------------------------------------
	BYTE		        Cn2 
	BYTE	W96
// 003   ----------------------------------------
Snowfall_3_003:
	BYTE		N72     Bn1   v127
	BYTE	W72
	BYTE		N24     An1 
	BYTE	W24
	BYTE	PEND
// 004   ----------------------------------------
	BYTE		N96     Gn1 
	BYTE	W96
// 005   ----------------------------------------
	BYTE		        Dn2 
	BYTE	W96
// 006   ----------------------------------------
	BYTE		        Cn2 
	BYTE	W96
// 007   ----------------------------------------
	BYTE		        Bn1 
	BYTE	W96
// 008   ----------------------------------------
	BYTE		        Cn2 
	BYTE	W96
// 009   ----------------------------------------
	BYTE		        An1 
	BYTE	W96
// 010   ----------------------------------------
	BYTE		        Gn1 
	BYTE	W96
// 011   ----------------------------------------
	BYTE		        Fs1 
	BYTE	W96
// 012   ----------------------------------------
	BYTE		        Fn1 
	BYTE	W96
// 013   ----------------------------------------
	BYTE		        Gn1 
	BYTE	W96
// 014   ----------------------------------------
	BYTE		        An1 
	BYTE	W96
// 015   ----------------------------------------
Snowfall_3_015:
	BYTE		N48     Cn2   v127
	BYTE	W48
	BYTE		N24     Bn1 
	BYTE	W24
	BYTE		        An1 
	BYTE	W24
	BYTE	PEND
// 016   ----------------------------------------
	BYTE		N96     Gn1 
	BYTE	W96
// 017   ----------------------------------------
	BYTE		        Dn2 
	BYTE	W96
// 018   ----------------------------------------
	BYTE		        Cn2 
	BYTE	W96
// 019   ----------------------------------------
	BYTE	PATT
	 POIN2	Snowfall_3_003
// 020   ----------------------------------------
	BYTE		N96     Gn1   v127
	BYTE	W96
// 021   ----------------------------------------
	BYTE		        Dn2 
	BYTE	W96
// 022   ----------------------------------------
	BYTE		        Cn2 
	BYTE	W96
// 023   ----------------------------------------
	BYTE		N90     Bn1 
	BYTE	W96
// 024   ----------------------------------------
	BYTE		N72     An1 
	BYTE	W72
// 025   ----------------------------------------
	BYTE		        Cs2 
	BYTE	W72
// 026   ----------------------------------------
	BYTE		        Bn1 
	BYTE	W72
// 027   ----------------------------------------
	BYTE		        An1 
	BYTE	W72
// 028   ----------------------------------------
	BYTE		        Gn1 
	BYTE	W72
// 029   ----------------------------------------
	BYTE		        An1 
	BYTE	W72
// 030   ----------------------------------------
	BYTE		        Bn1 
	BYTE	W72
// 031   ----------------------------------------
	BYTE		N48     Cs2 
	BYTE	W48
	BYTE		N24     Bn1 
	BYTE	W24
// 032   ----------------------------------------
	BYTE		N72     An1 
	BYTE	W72
// 033   ----------------------------------------
	BYTE		        Cs2 
	BYTE	W72
// 034   ----------------------------------------
	BYTE		        Bn1 
	BYTE	W72
// 035   ----------------------------------------
	BYTE		        An1 
	BYTE	W72
// 036   ----------------------------------------
	BYTE		        Gn1 
	BYTE	W72
// 037   ----------------------------------------
	BYTE		        Bn1 
	BYTE	W72
// 038   ----------------------------------------
	BYTE		        Cn2 
	BYTE	W72
// 039   ----------------------------------------
	BYTE		N66     Dn2 
	BYTE	W72
// 040   ----------------------------------------
	BYTE		N96     Cn2 
	BYTE	W96
// 041   ----------------------------------------
	BYTE		        An1 
	BYTE	W96
// 042   ----------------------------------------
	BYTE		        Gn1 
	BYTE	W96
// 043   ----------------------------------------
	BYTE		        Fs1 
	BYTE	W96
// 044   ----------------------------------------
	BYTE		        Fn1 
	BYTE	W96
// 045   ----------------------------------------
	BYTE		        Gn1 
	BYTE	W96
// 046   ----------------------------------------
	BYTE		        An1 
	BYTE	W96
// 047   ----------------------------------------
	BYTE	PATT
	 POIN2	Snowfall_3_015
// 048   ----------------------------------------
	BYTE		TIE     Gn1   v127
	BYTE	W96
// 049   ----------------------------------------
	BYTE	W90
	BYTE		EOT   
	BYTE	GoTo
	 POIN2	Snowfall_3_B1
Snowfall_3_B2:
	BYTE	FINE

//**************** Track 4 (Midi-Chn.4) ****************//

Snowfall_4:
	BYTE	KEYSH   Snowfall_key+0
Snowfall_4_B1:
// 000   ----------------------------------------
	BYTE		VOICE   49
	BYTE		MODT    0
	BYTE		LFOS    44
	BYTE		VOL     98*Snowfall_mvl/mxv
	BYTE		PAN     c_v+0
	BYTE		TIE     Dn3   v056
	BYTE		N96     Gn3 
	BYTE		N96     Bn3 
	BYTE		TIE     Dn4 
	BYTE	W96
// 001   ----------------------------------------
	BYTE		N96     Fs3 
	BYTE		N96     An3 
	BYTE	W96
	BYTE		EOT     Dn3 
	BYTE		        Dn4 
// 002   ----------------------------------------
Snowfall_4_002:
	BYTE		N96     Cn3   v056
	BYTE		N96     Fn3 
	BYTE		N96     An3 
	BYTE		N96     Cn4 
	BYTE	W96
	BYTE	PEND
// 003   ----------------------------------------
Snowfall_4_003:
	BYTE		N96     Bn2   v056
	BYTE		N96     En3 
	BYTE		N96     Gn3 
	BYTE		N96     Bn3 
	BYTE	W96
	BYTE	PEND
// 004   ----------------------------------------
Snowfall_4_004:
	BYTE		TIE     Dn3   v056
	BYTE		N96     Gn3 
	BYTE		N96     Bn3 
	BYTE		TIE     Dn4 
	BYTE	W96
	BYTE	PEND
// 005   ----------------------------------------
	BYTE		N96     Fs3 
	BYTE		N96     An3 
	BYTE	W96
	BYTE		EOT     Dn3 
	BYTE		        Dn4 
// 006   ----------------------------------------
	BYTE	PATT
	 POIN2	Snowfall_4_002
// 007   ----------------------------------------
	BYTE	PATT
	 POIN2	Snowfall_4_003
// 008   ----------------------------------------
	BYTE		TIE     Cn3   v056
	BYTE		TIE     En3 
	BYTE		N96     Gn3 
	BYTE		TIE     Cn4 
	BYTE	W96
// 009   ----------------------------------------
	BYTE		N96     An3 
	BYTE	W96
// 010   ----------------------------------------
	BYTE		        Gn3 
	BYTE	W96
// 011   ----------------------------------------
	BYTE		        Fs3 
	BYTE		N96     An3 
	BYTE	W96
	BYTE		EOT     Cn3 
	BYTE		        En3 
	BYTE		        Cn4 
// 012   ----------------------------------------
	BYTE	PATT
	 POIN2	Snowfall_4_002
// 013   ----------------------------------------
	BYTE	PATT
	 POIN2	Snowfall_4_003
// 014   ----------------------------------------
	BYTE		N96     Dn3   v056
	BYTE		N96     Fn3 
	BYTE		N96     An3 
	BYTE		N96     Cn4 
	BYTE		N96     Dn4 
	BYTE	W96
// 015   ----------------------------------------
	BYTE		        Dn3 
	BYTE		N96     Fs3 
	BYTE		N96     An3 
	BYTE		N96     Cn4 
	BYTE		N96     Dn4 
	BYTE	W96
// 016   ----------------------------------------
	BYTE	PATT
	 POIN2	Snowfall_4_004
// 017   ----------------------------------------
	BYTE		N96     Fs3   v056
	BYTE		N96     An3 
	BYTE	W96
	BYTE		EOT     Dn3 
	BYTE		        Dn4 
// 018   ----------------------------------------
	BYTE	PATT
	 POIN2	Snowfall_4_002
// 019   ----------------------------------------
	BYTE	PATT
	 POIN2	Snowfall_4_003
// 020   ----------------------------------------
	BYTE	PATT
	 POIN2	Snowfall_4_004
// 021   ----------------------------------------
	BYTE		N96     Fs3   v056
	BYTE		N96     An3 
	BYTE	W96
	BYTE		EOT     Dn3 
	BYTE		        Dn4 
// 022   ----------------------------------------
	BYTE	PATT
	 POIN2	Snowfall_4_002
// 023   ----------------------------------------
	BYTE	PATT
	 POIN2	Snowfall_4_003
// 024   ----------------------------------------
	BYTE		N24     Fs4   v127
	BYTE	W24
	BYTE		        Gn4 
	BYTE	W24
	BYTE		        An4 
	BYTE	W24
// 025   ----------------------------------------
	BYTE		N48     En4 
	BYTE	W48
	BYTE		N12     Fs4 
	BYTE	W12
	BYTE		        Gn4 
	BYTE	W12
// 026   ----------------------------------------
	BYTE		N36     Fs4 
	BYTE	W36
	BYTE		N12     En4 
	BYTE	W12
	BYTE		N24     Dn4 
	BYTE	W24
// 027   ----------------------------------------
	BYTE		        En4 
	BYTE	W24
	BYTE		        Fs4 
	BYTE	W24
	BYTE		        Gn4 
	BYTE	W24
// 028   ----------------------------------------
	BYTE		N48     Dn4 
	BYTE	W48
	BYTE		N24     Bn3 
	BYTE	W24
// 029   ----------------------------------------
	BYTE		        An3 
	BYTE	W24
	BYTE		        Dn4 
	BYTE	W24
	BYTE		        Fs4 
	BYTE	W24
// 030   ----------------------------------------
	BYTE		N48   
	BYTE	W48
	BYTE		N12     Gn4 
	BYTE	W12
	BYTE		        Fs4 
	BYTE	W12
// 031   ----------------------------------------
	BYTE		N66     En4 
	BYTE	W72
// 032   ----------------------------------------
	BYTE		N36     Dn4 
	BYTE	W36
	BYTE		N12     En4 
	BYTE	W12
	BYTE		        Fs4 
	BYTE	W12
	BYTE		        Gn4 
	BYTE	W12
// 033   ----------------------------------------
Snowfall_4_033:
	BYTE		N48     Fs4   v127
	BYTE	W48
	BYTE		N24     En4 
	BYTE	W24
	BYTE	PEND
// 034   ----------------------------------------
	BYTE		N72     Dn4 
	BYTE	W72
// 035   ----------------------------------------
	BYTE	PATT
	 POIN2	Snowfall_4_033
// 036   ----------------------------------------
	BYTE		N48     Dn4   v127
	BYTE	W48
	BYTE		N12     En4 
	BYTE	W12
	BYTE		        Fs4 
	BYTE	W12
// 037   ----------------------------------------
	BYTE		N66     En4 
	BYTE	W72
// 038   ----------------------------------------
	BYTE		N48     Cn4 
	BYTE	W48
	BYTE		N12     Dn4 
	BYTE	W12
	BYTE		        En4 
	BYTE	W12
// 039   ----------------------------------------
	BYTE		N66     Fs4 
	BYTE	W72
// 040   ----------------------------------------
	BYTE		N16     Cn4 
	BYTE	W16
	BYTE		        En4 
	BYTE	W16
	BYTE		        Fs4 
	BYTE	W16
	BYTE		        Gn4 
	BYTE	W16
	BYTE		        Fs4 
	BYTE	W16
	BYTE		N15     En4 
	BYTE	W16
// 041   ----------------------------------------
	BYTE		N32     Dn4 
	BYTE	W36
	BYTE		N11     Cn4 
	BYTE	W12
	BYTE		N42   
	BYTE	W48
// 042   ----------------------------------------
	BYTE		N16     Gn3 
	BYTE	W16
	BYTE		        Bn3 
	BYTE	W16
	BYTE		        Cn4 
	BYTE	W16
	BYTE		        En4 
	BYTE	W16
	BYTE		        Dn4 
	BYTE	W16
	BYTE		N15     Cn4 
	BYTE	W16
// 043   ----------------------------------------
	BYTE		N32     An3 
	BYTE	W36
	BYTE		N11     En3 
	BYTE	W12
	BYTE		N42   
	BYTE	W48
// 044   ----------------------------------------
	BYTE		N16     Fn3 
	BYTE	W16
	BYTE		        An3 
	BYTE	W16
	BYTE		        Bn3 
	BYTE	W16
	BYTE		N42     Cn4 
	BYTE	W48
// 045   ----------------------------------------
	BYTE		N16     Bn3 
	BYTE	W16
	BYTE		        En4 
	BYTE	W16
	BYTE		        Fs4 
	BYTE	W16
	BYTE		N42     Gn4 
	BYTE	W48
// 046   ----------------------------------------
	BYTE		N16     Fn4 
	BYTE	W16
	BYTE		        Dn4 
	BYTE	W16
	BYTE		N15   
	BYTE	W16
	BYTE		N16     Cn4 
	BYTE	W16
	BYTE		        An3 
	BYTE	W16
	BYTE		N15   
	BYTE	W16
// 047   ----------------------------------------
	BYTE		N16     Fs3 
	BYTE	W16
	BYTE		        An3 
	BYTE	W16
	BYTE		        Cn4 
	BYTE	W16
	BYTE		        Dn4 
	BYTE	W16
	BYTE		        En4 
	BYTE	W16
	BYTE		        Fs4 
	BYTE	W16
// 048   ----------------------------------------
	BYTE		TIE     Gn4 
	BYTE	W96
// 049   ----------------------------------------
	BYTE	W90
	BYTE		EOT   
	BYTE	GoTo
	 POIN2	Snowfall_4_B1
Snowfall_4_B2:
	BYTE	FINE

//**************** Track 5 (Midi-Chn.5) ****************//

Snowfall_5:
	BYTE	KEYSH   Snowfall_key+0
Snowfall_5_B1:
// 000   ----------------------------------------
	BYTE		VOICE   124
	BYTE		MODT    0
	BYTE		LFOS    44
	BYTE		VOL     127*Snowfall_mvl/mxv
	BYTE		PAN     c_v+0
	BYTE		N11     Bn0   v127
	BYTE		N11     Cn1 
	BYTE		N11     As1 
	BYTE		N11     Bn1 
	BYTE		N11     Cn2 
	BYTE		N11     Dn2 
	BYTE		N11     An2 
	BYTE	W12
	BYTE		N05     Fs1 
	BYTE	W06
	BYTE		N05   
	BYTE	W06
	BYTE		N11     As1 
	BYTE	W12
	BYTE		N05     Fs1 
	BYTE	W06
	BYTE		N05   
	BYTE	W06
	BYTE		N11     As1 
	BYTE	W12
	BYTE		N05     Fs1 
	BYTE	W06
	BYTE		N05   
	BYTE	W06
	BYTE		N11     As1 
	BYTE	W12
	BYTE		N05     Bn0 
	BYTE		N05     Cn1 
	BYTE		N05     Fs1 
	BYTE	W06
	BYTE		N05   
	BYTE	W06
// 001   ----------------------------------------
Snowfall_5_001:
	BYTE		N11     Bn0   v127
	BYTE		N11     Cn1 
	BYTE		N11     As1 
	BYTE	W12
	BYTE		N05     Fs1 
	BYTE	W06
	BYTE		N05   
	BYTE	W06
	BYTE		N11     As1 
	BYTE	W12
	BYTE		N05     Fs1 
	BYTE	W06
	BYTE		N05   
	BYTE	W06
	BYTE		N11     As1 
	BYTE	W12
	BYTE		N05     Fs1 
	BYTE	W06
	BYTE		N05   
	BYTE	W06
	BYTE		N11     As1 
	BYTE	W12
	BYTE		N05     Bn0 
	BYTE		N05     Cn1 
	BYTE		N05     Fs1 
	BYTE	W06
	BYTE		N05   
	BYTE	W06
	BYTE	PEND
// 002   ----------------------------------------
	BYTE	PATT
	 POIN2	Snowfall_5_001
// 003   ----------------------------------------
Snowfall_5_003:
	BYTE		N11     Bn0   v127
	BYTE		N11     Cn1 
	BYTE		N11     As1 
	BYTE		N11     Bn1 
	BYTE		N11     Cn2 
	BYTE		N11     Dn2 
	BYTE		N11     An2 
	BYTE	W12
	BYTE		N05     Fs1 
	BYTE	W06
	BYTE		N05   
	BYTE	W06
	BYTE		N11     As1 
	BYTE	W12
	BYTE		N05     Fs1 
	BYTE	W06
	BYTE		N05   
	BYTE	W06
	BYTE		N11     Bn0 
	BYTE		N11     Cn1 
	BYTE		N11     As1 
	BYTE		N11     Bn1 
	BYTE		N11     Cn2 
	BYTE		N11     Dn2 
	BYTE		N11     An2 
	BYTE	W12
	BYTE		N05     Fs1 
	BYTE	W06
	BYTE		N05   
	BYTE	W06
	BYTE		N11     As1 
	BYTE	W12
	BYTE		N05     Bn0 
	BYTE		N05     Cn1 
	BYTE		N05     Fs1 
	BYTE	W06
	BYTE		N05   
	BYTE	W06
	BYTE	PEND
// 004   ----------------------------------------
Snowfall_5_004:
	BYTE		N11     Bn0   v127
	BYTE		N11     Cn1 
	BYTE		N11     As1 
	BYTE		N11     Bn1 
	BYTE		N11     Cn2 
	BYTE		N11     Dn2 
	BYTE		N11     An2 
	BYTE	W12
	BYTE		N05     Fs1 
	BYTE	W06
	BYTE		N05   
	BYTE	W06
	BYTE		N11     As1 
	BYTE	W12
	BYTE		N05     Fs1 
	BYTE	W06
	BYTE		N05   
	BYTE	W06
	BYTE		N11     As1 
	BYTE	W12
	BYTE		N05     Fs1 
	BYTE	W06
	BYTE		N05   
	BYTE	W06
	BYTE		N11     As1 
	BYTE	W12
	BYTE		N05     Bn0 
	BYTE		N05     Cn1 
	BYTE		N05     Fs1 
	BYTE	W06
	BYTE		N05   
	BYTE	W06
	BYTE	PEND
// 005   ----------------------------------------
	BYTE	PATT
	 POIN2	Snowfall_5_001
// 006   ----------------------------------------
	BYTE	PATT
	 POIN2	Snowfall_5_001
// 007   ----------------------------------------
	BYTE	PATT
	 POIN2	Snowfall_5_003
// 008   ----------------------------------------
	BYTE	PATT
	 POIN2	Snowfall_5_004
// 009   ----------------------------------------
	BYTE	PATT
	 POIN2	Snowfall_5_001
// 010   ----------------------------------------
	BYTE	PATT
	 POIN2	Snowfall_5_001
// 011   ----------------------------------------
	BYTE	PATT
	 POIN2	Snowfall_5_003
// 012   ----------------------------------------
	BYTE	PATT
	 POIN2	Snowfall_5_004
// 013   ----------------------------------------
	BYTE	PATT
	 POIN2	Snowfall_5_001
// 014   ----------------------------------------
	BYTE	PATT
	 POIN2	Snowfall_5_001
// 015   ----------------------------------------
	BYTE		N11     Bn0   v127
	BYTE		N11     Cn1 
	BYTE		N11     As1 
	BYTE		N11     Bn1 
	BYTE		N11     Cn2 
	BYTE		N11     Dn2 
	BYTE		N11     An2 
	BYTE	W12
	BYTE		N05     Fs1 
	BYTE	W06
	BYTE		N05   
	BYTE	W06
	BYTE		N11     As1 
	BYTE	W12
	BYTE		N05     Fs1 
	BYTE	W06
	BYTE		N05   
	BYTE	W06
	BYTE		N11     Bn0 
	BYTE		N11     Cn1 
	BYTE		N11     As1 
	BYTE		N11     Bn1 
	BYTE		N11     Cn2 
	BYTE		N11     Dn2 
	BYTE		N11     An2 
	BYTE	W12
	BYTE		N05     Fs1 
	BYTE	W06
	BYTE		N05   
	BYTE	W06
	BYTE		N11     Dn1 
	BYTE		N11     En1 
	BYTE		N11     As1 
	BYTE	W12
	BYTE		N05     Bn0 
	BYTE		N05     Cn1 
	BYTE		N05     Dn1 
	BYTE		N05     En1 
	BYTE		N05     Fs1 
	BYTE	W06
	BYTE		        Dn1 
	BYTE		N05     En1 
	BYTE		N05     Fs1 
	BYTE	W06
// 016   ----------------------------------------
Snowfall_5_016:
	BYTE		N11     Bn0   v127
	BYTE		N11     Cn1 
	BYTE		N11     As1 
	BYTE		N11     Bn1 
	BYTE		N11     Cn2 
	BYTE		N11     Dn2 
	BYTE		N11     An2 
	BYTE	W12
	BYTE		N05     Fs1 
	BYTE	W06
	BYTE		N05   
	BYTE	W06
	BYTE		N11     Dn1 
	BYTE		N11     En1 
	BYTE		N11     As1 
	BYTE	W12
	BYTE		N05     Fs1 
	BYTE	W06
	BYTE		N05   
	BYTE	W06
	BYTE		N11     As1 
	BYTE	W12
	BYTE		N05     Fs1 
	BYTE	W06
	BYTE		N05   
	BYTE	W06
	BYTE		N11     Dn1 
	BYTE		N11     En1 
	BYTE		N11     As1 
	BYTE	W12
	BYTE		N05     Bn0 
	BYTE		N05     Cn1 
	BYTE		N05     Fs1 
	BYTE	W06
	BYTE		N05   
	BYTE	W06
	BYTE	PEND
// 017   ----------------------------------------
Snowfall_5_017:
	BYTE		N11     Bn0   v127
	BYTE		N11     Cn1 
	BYTE		N11     As1 
	BYTE	W12
	BYTE		N05     Fs1 
	BYTE	W06
	BYTE		N05   
	BYTE	W06
	BYTE		N11     Dn1 
	BYTE		N11     En1 
	BYTE		N11     As1 
	BYTE	W12
	BYTE		N05     Fs1 
	BYTE	W06
	BYTE		N05   
	BYTE	W06
	BYTE		N11     As1 
	BYTE	W12
	BYTE		N05     Fs1 
	BYTE	W06
	BYTE		N05   
	BYTE	W06
	BYTE		N11     Dn1 
	BYTE		N11     En1 
	BYTE		N11     As1 
	BYTE	W12
	BYTE		N05     Bn0 
	BYTE		N05     Cn1 
	BYTE		N05     Fs1 
	BYTE	W06
	BYTE		N05   
	BYTE	W06
	BYTE	PEND
// 018   ----------------------------------------
	BYTE	PATT
	 POIN2	Snowfall_5_017
// 019   ----------------------------------------
Snowfall_5_019:
	BYTE		N11     Bn0   v127
	BYTE		N11     Cn1 
	BYTE		N11     As1 
	BYTE		N11     Bn1 
	BYTE		N11     Cn2 
	BYTE		N11     Dn2 
	BYTE		N11     An2 
	BYTE	W12
	BYTE		N05     Fs1 
	BYTE	W06
	BYTE		N05   
	BYTE	W06
	BYTE		N11     Dn1 
	BYTE		N11     En1 
	BYTE		N11     As1 
	BYTE	W12
	BYTE		N05     Fs1 
	BYTE	W06
	BYTE		N05   
	BYTE	W06
	BYTE		N11     Bn0 
	BYTE		N11     Cn1 
	BYTE		N11     As1 
	BYTE		N11     Bn1 
	BYTE		N11     Cn2 
	BYTE		N11     Dn2 
	BYTE		N11     An2 
	BYTE	W12
	BYTE		N05     Fs1 
	BYTE	W06
	BYTE		N05   
	BYTE	W06
	BYTE		N11     Dn1 
	BYTE		N11     En1 
	BYTE		N11     As1 
	BYTE	W12
	BYTE		N05     Bn0 
	BYTE		N05     Cn1 
	BYTE		N05     Dn1 
	BYTE		N05     En1 
	BYTE		N05     Fs1 
	BYTE	W06
	BYTE		        Dn1 
	BYTE		N05     En1 
	BYTE		N05     Fs1 
	BYTE	W06
	BYTE	PEND
// 020   ----------------------------------------
	BYTE	PATT
	 POIN2	Snowfall_5_016
// 021   ----------------------------------------
	BYTE	PATT
	 POIN2	Snowfall_5_017
// 022   ----------------------------------------
	BYTE	PATT
	 POIN2	Snowfall_5_017
// 023   ----------------------------------------
	BYTE	PATT
	 POIN2	Snowfall_5_019
// 024   ----------------------------------------
Snowfall_5_024:
	BYTE		N11     Bn0   v127
	BYTE		N11     Cn1 
	BYTE		N11     As1 
	BYTE		N11     Cn2 
	BYTE		N11     Dn2 
	BYTE		N11     An2 
	BYTE	W12
	BYTE		N05     Fs1 
	BYTE	W06
	BYTE		N05   
	BYTE	W06
	BYTE		N11     As1 
	BYTE	W12
	BYTE		N05     Fs1 
	BYTE	W06
	BYTE		N05   
	BYTE	W06
	BYTE		N11     Dn1 
	BYTE		N11     En1 
	BYTE		N11     As1 
	BYTE	W12
	BYTE		N05     Fs1 
	BYTE	W06
	BYTE		N05   
	BYTE	W06
	BYTE	PEND
// 025   ----------------------------------------
Snowfall_5_025:
	BYTE		N11     Bn0   v127
	BYTE		N11     Cn1 
	BYTE		N11     As1 
	BYTE	W12
	BYTE		N05     Fs1 
	BYTE	W06
	BYTE		N05   
	BYTE	W06
	BYTE		N11     As1 
	BYTE	W12
	BYTE		N05     Fs1 
	BYTE	W06
	BYTE		N05   
	BYTE	W06
	BYTE		N11     Dn1 
	BYTE		N11     En1 
	BYTE		N11     As1 
	BYTE	W12
	BYTE		N05     Fs1 
	BYTE	W06
	BYTE		N05   
	BYTE	W06
	BYTE	PEND
// 026   ----------------------------------------
	BYTE	PATT
	 POIN2	Snowfall_5_025
// 027   ----------------------------------------
Snowfall_5_027:
	BYTE		N11     Bn0   v127
	BYTE		N11     Cn1 
	BYTE		N11     As1 
	BYTE	W12
	BYTE		N05     Fs1 
	BYTE	W06
	BYTE		N05   
	BYTE	W06
	BYTE		N11     As1 
	BYTE	W12
	BYTE		N05     Fs1 
	BYTE	W06
	BYTE		N05   
	BYTE	W06
	BYTE		N11     As1 
	BYTE	W12
	BYTE		N05     Dn1 
	BYTE		N05     En1 
	BYTE		N05     Fs1 
	BYTE	W06
	BYTE		        Dn1 
	BYTE		N05     En1 
	BYTE		N05     Fs1 
	BYTE	W06
	BYTE	PEND
// 028   ----------------------------------------
	BYTE	PATT
	 POIN2	Snowfall_5_024
// 029   ----------------------------------------
	BYTE	PATT
	 POIN2	Snowfall_5_025
// 030   ----------------------------------------
Snowfall_5_030:
	BYTE		N11     Bn0   v127
	BYTE		N11     Cn1 
	BYTE		N11     As1 
	BYTE		N11     Bn1 
	BYTE		N11     Cn2 
	BYTE		N11     Dn2 
	BYTE		N11     An2 
	BYTE	W12
	BYTE		N05     Fs1 
	BYTE	W06
	BYTE		N05   
	BYTE	W06
	BYTE		N11     As1 
	BYTE	W12
	BYTE		N05     Fs1 
	BYTE	W06
	BYTE		N05   
	BYTE	W06
	BYTE		N11     Dn1 
	BYTE		N11     En1 
	BYTE		N11     As1 
	BYTE	W12
	BYTE		N05     Fs1 
	BYTE	W06
	BYTE		N05   
	BYTE	W06
	BYTE	PEND
// 031   ----------------------------------------
	BYTE		N11     Bn0 
	BYTE		N11     Cn1 
	BYTE		N11     As1 
	BYTE		N11     Bn1 
	BYTE		N11     Cn2 
	BYTE		N11     Dn2 
	BYTE		N11     An2 
	BYTE	W12
	BYTE		N05     Fs1 
	BYTE	W06
	BYTE		N05   
	BYTE	W06
	BYTE		N11     As1 
	BYTE	W12
	BYTE		N05     Fs1 
	BYTE	W06
	BYTE		N05   
	BYTE	W06
	BYTE		N11     As1 
	BYTE	W12
	BYTE		N05     Dn1 
	BYTE		N05     En1 
	BYTE		N05     Fs1 
	BYTE	W06
	BYTE		        Dn1 
	BYTE		N05     En1 
	BYTE		N05     Fs1 
	BYTE	W06
// 032   ----------------------------------------
	BYTE	PATT
	 POIN2	Snowfall_5_024
// 033   ----------------------------------------
	BYTE	PATT
	 POIN2	Snowfall_5_025
// 034   ----------------------------------------
	BYTE	PATT
	 POIN2	Snowfall_5_025
// 035   ----------------------------------------
	BYTE	PATT
	 POIN2	Snowfall_5_027
// 036   ----------------------------------------
	BYTE	PATT
	 POIN2	Snowfall_5_024
// 037   ----------------------------------------
	BYTE	PATT
	 POIN2	Snowfall_5_025
// 038   ----------------------------------------
	BYTE	PATT
	 POIN2	Snowfall_5_030
// 039   ----------------------------------------
	BYTE		N11     Bn0   v127
	BYTE		N11     Cn1 
	BYTE		N11     As1 
	BYTE		N11     Bn1 
	BYTE		N11     Cn2 
	BYTE		N11     Dn2 
	BYTE		N11     An2 
	BYTE	W12
	BYTE		N05     Fs1 
	BYTE	W06
	BYTE		N05   
	BYTE	W06
	BYTE		N11     As1 
	BYTE	W12
	BYTE		N05     Fs1 
	BYTE	W06
	BYTE		N05   
	BYTE	W06
	BYTE		        Dn1 
	BYTE		N05     En1 
	BYTE		N05     As1 
	BYTE	W06
	BYTE		        Dn1 
	BYTE		N05     En1 
	BYTE	W06
	BYTE		        Dn1 
	BYTE		N05     En1 
	BYTE		N05     Fs1 
	BYTE	W06
	BYTE		        Dn1 
	BYTE		N05     En1 
	BYTE		N05     Fs1 
	BYTE	W06
// 040   ----------------------------------------
	BYTE	PATT
	 POIN2	Snowfall_5_016
// 041   ----------------------------------------
	BYTE	PATT
	 POIN2	Snowfall_5_017
// 042   ----------------------------------------
	BYTE	PATT
	 POIN2	Snowfall_5_017
// 043   ----------------------------------------
	BYTE	PATT
	 POIN2	Snowfall_5_019
// 044   ----------------------------------------
	BYTE	PATT
	 POIN2	Snowfall_5_016
// 045   ----------------------------------------
	BYTE	PATT
	 POIN2	Snowfall_5_017
// 046   ----------------------------------------
	BYTE	PATT
	 POIN2	Snowfall_5_017
// 047   ----------------------------------------
	BYTE	PATT
	 POIN2	Snowfall_5_019
// 048   ----------------------------------------
	BYTE	PATT
	 POIN2	Snowfall_5_004
// 049   ----------------------------------------
	BYTE		N11     Bn0   v127
	BYTE		N11     Cn1 
	BYTE		N11     As1 
	BYTE		N11     Bn1 
	BYTE		N11     Cn2 
	BYTE		N11     Dn2 
	BYTE		N11     An2 
	BYTE	W12
	BYTE		N05     Fs1 
	BYTE	W06
	BYTE		N05   
	BYTE	W06
	BYTE		N11     As1 
	BYTE	W12
	BYTE		N05     Fs1 
	BYTE	W06
	BYTE		N05   
	BYTE	W06
	BYTE		N42     Bn0 
	BYTE		N42     Cn1 
	BYTE		N42     An1 
	BYTE		N42     Bn1 
	BYTE		N42     Cn2 
	BYTE		N42     Dn2 
	BYTE		N42     An2 
	BYTE	W42
	BYTE	GoTo
	 POIN2	Snowfall_5_B1
Snowfall_5_B2:
	BYTE	FINE

//**************** Track 6 (Midi-Chn.6) ****************//

Snowfall_6:
	BYTE	KEYSH   Snowfall_key+0
Snowfall_6_B1:
// 000   ----------------------------------------
	BYTE		VOICE   52
	BYTE		MODT    0
	BYTE		LFOS    44
	BYTE		VOL     119*Snowfall_mvl/mxv
	BYTE		PAN     c_v-22
	BYTE	W96
// 001   ----------------------------------------
	BYTE	W96
// 002   ----------------------------------------
	BYTE	W96
// 003   ----------------------------------------
	BYTE	W96
// 004   ----------------------------------------
	BYTE	W96
// 005   ----------------------------------------
	BYTE	W96
// 006   ----------------------------------------
	BYTE	W96
// 007   ----------------------------------------
	BYTE	W96
// 008   ----------------------------------------
	BYTE	W96
// 009   ----------------------------------------
	BYTE	W96
// 010   ----------------------------------------
	BYTE	W96
// 011   ----------------------------------------
	BYTE	W96
// 012   ----------------------------------------
	BYTE	W96
// 013   ----------------------------------------
	BYTE	W96
// 014   ----------------------------------------
	BYTE	W96
// 015   ----------------------------------------
Snowfall_6_015:
	BYTE		N96     Dn3   v056
	BYTE		N96     Fs3 
	BYTE		N96     An3 
	BYTE		N96     Cn4 
	BYTE		N96     Dn4 
	BYTE	W96
	BYTE	PEND
// 016   ----------------------------------------
Snowfall_6_016:
	BYTE		TIE     Dn3   v056
	BYTE		N96     Gn3 
	BYTE		N96     Bn3 
	BYTE		TIE     Dn4 
	BYTE	W96
	BYTE	PEND
// 017   ----------------------------------------
	BYTE		N96     Fs3 
	BYTE		N96     An3 
	BYTE	W96
	BYTE		EOT     Dn3 
	BYTE		        Dn4 
// 018   ----------------------------------------
Snowfall_6_018:
	BYTE		N96     Cn3   v056
	BYTE		N96     Fn3 
	BYTE		N96     An3 
	BYTE		N96     Cn4 
	BYTE	W96
	BYTE	PEND
// 019   ----------------------------------------
Snowfall_6_019:
	BYTE		N96     Bn2   v056
	BYTE		N96     En3 
	BYTE		N96     Gn3 
	BYTE		N96     Bn3 
	BYTE	W96
	BYTE	PEND
// 020   ----------------------------------------
	BYTE	PATT
	 POIN2	Snowfall_6_016
// 021   ----------------------------------------
	BYTE		N96     Fs3   v056
	BYTE		N96     An3 
	BYTE	W96
	BYTE		EOT     Dn3 
	BYTE		        Dn4 
// 022   ----------------------------------------
	BYTE	PATT
	 POIN2	Snowfall_6_018
// 023   ----------------------------------------
	BYTE	PATT
	 POIN2	Snowfall_6_019
// 024   ----------------------------------------
Snowfall_6_024:
	BYTE		N72     Dn3   v056
	BYTE		N72     Fs3 
	BYTE		N72     An3 
	BYTE		N72     Dn4 
	BYTE	W72
	BYTE	PEND
// 025   ----------------------------------------
Snowfall_6_025:
	BYTE		N72     Cs3   v056
	BYTE		N72     En3 
	BYTE		N72     An3 
	BYTE		N72     Cs4 
	BYTE	W72
	BYTE	PEND
// 026   ----------------------------------------
Snowfall_6_026:
	BYTE		N72     Dn3   v056
	BYTE		N72     Fs3 
	BYTE		N72     Bn3 
	BYTE		N72     Dn4 
	BYTE	W72
	BYTE	PEND
// 027   ----------------------------------------
Snowfall_6_027:
	BYTE		N72     Cn3   v056
	BYTE		N72     Fs3 
	BYTE		N72     An3 
	BYTE		N72     Cn4 
	BYTE	W72
	BYTE	PEND
// 028   ----------------------------------------
	BYTE		        Bn2 
	BYTE		N72     Dn3 
	BYTE		N72     Gn3 
	BYTE		N72     Bn3 
	BYTE	W72
// 029   ----------------------------------------
	BYTE		        An2 
	BYTE		N72     Dn3 
	BYTE		N72     Fs3 
	BYTE		N72     An3 
	BYTE	W72
// 030   ----------------------------------------
	BYTE		        Bn2 
	BYTE		N72     Dn3 
	BYTE		N72     Fs3 
	BYTE		N72     Bn3 
	BYTE	W72
// 031   ----------------------------------------
	BYTE	PATT
	 POIN2	Snowfall_6_025
// 032   ----------------------------------------
	BYTE	PATT
	 POIN2	Snowfall_6_024
// 033   ----------------------------------------
	BYTE	PATT
	 POIN2	Snowfall_6_025
// 034   ----------------------------------------
	BYTE	PATT
	 POIN2	Snowfall_6_026
// 035   ----------------------------------------
	BYTE	PATT
	 POIN2	Snowfall_6_027
// 036   ----------------------------------------
	BYTE		N72     Bn2   v056
	BYTE		N72     Dn3 
	BYTE		TIE     Gn3 
	BYTE		TIE     Bn3 
	BYTE	W72
// 037   ----------------------------------------
	BYTE		        En3 
	BYTE		TIE     En4 
	BYTE	W72
	BYTE		EOT     Bn3 
// 038   ----------------------------------------
	BYTE		TIE     An3 
	BYTE		N72     Cn4 
	BYTE	W72
	BYTE		EOT     En3 
	BYTE		        Gn3 
	BYTE		        En4 
// 039   ----------------------------------------
	BYTE		N66     Dn3 
	BYTE		N66     Fs3 
	BYTE		N66     Dn4 
	BYTE	W66
	BYTE		EOT     An3 
	BYTE	W06
// 040   ----------------------------------------
	BYTE		TIE     Cn3 
	BYTE		TIE     En3 
	BYTE		N96     Gn3 
	BYTE		TIE     Cn4 
	BYTE	W96
// 041   ----------------------------------------
	BYTE		N96     An3 
	BYTE	W96
// 042   ----------------------------------------
	BYTE		        Gn3 
	BYTE	W96
// 043   ----------------------------------------
	BYTE		        Fs3 
	BYTE		N96     An3 
	BYTE	W96
	BYTE		EOT     Cn3 
	BYTE		        En3 
	BYTE		        Cn4 
// 044   ----------------------------------------
	BYTE	PATT
	 POIN2	Snowfall_6_018
// 045   ----------------------------------------
	BYTE	PATT
	 POIN2	Snowfall_6_019
// 046   ----------------------------------------
	BYTE		N96     Dn3   v056
	BYTE		N96     Fn3 
	BYTE		N96     An3 
	BYTE		N96     Cn4 
	BYTE		N96     Dn4 
	BYTE	W96
// 047   ----------------------------------------
	BYTE	PATT
	 POIN2	Snowfall_6_015
// 048   ----------------------------------------
	BYTE		TIE     En3   v056
	BYTE		TIE     Gn3 
	BYTE		TIE     Bn3 
	BYTE		TIE     En4 
	BYTE	W96
// 049   ----------------------------------------
	BYTE	W90
	BYTE		EOT     En3 
	BYTE		        Gn3 
	BYTE		        Bn3 
	BYTE		        En4 
	BYTE	GoTo
	 POIN2	Snowfall_6_B1
Snowfall_6_B2:
	BYTE	FINE

//**************** Track 7 (Midi-Chn.7) ****************//

Snowfall_7:
	BYTE	KEYSH   Snowfall_key+0
Snowfall_7_B1:
// 000   ----------------------------------------
	BYTE		VOICE   47
	BYTE		MODT    0
	BYTE		LFOS    44
	BYTE		PAN     c_v+5
	BYTE		VOL     127*Snowfall_mvl/mxv
	BYTE		N20     Gn1   v127
	BYTE	W84
	BYTE		N11   
	BYTE	W12
// 001   ----------------------------------------
Snowfall_7_001:
	BYTE		N20     Dn2   v127
	BYTE	W84
	BYTE		N11   
	BYTE	W12
	BYTE	PEND
// 002   ----------------------------------------
Snowfall_7_002:
	BYTE		N20     Cn2   v127
	BYTE	W84
	BYTE		N11   
	BYTE	W12
	BYTE	PEND
// 003   ----------------------------------------
Snowfall_7_003:
	BYTE		N20     Bn1   v127
	BYTE	W72
	BYTE		N11   
	BYTE	W12
	BYTE		        An1 
	BYTE	W12
	BYTE	PEND
// 004   ----------------------------------------
Snowfall_7_004:
	BYTE		N20     Gn1   v127
	BYTE	W84
	BYTE		N11   
	BYTE	W12
	BYTE	PEND
// 005   ----------------------------------------
	BYTE	PATT
	 POIN2	Snowfall_7_001
// 006   ----------------------------------------
	BYTE	PATT
	 POIN2	Snowfall_7_002
// 007   ----------------------------------------
	BYTE	PATT
	 POIN2	Snowfall_7_003
// 008   ----------------------------------------
Snowfall_7_008:
	BYTE		N20     Cn2   v127
	BYTE	W84
	BYTE		N11     Gn1 
	BYTE	W12
	BYTE	PEND
// 009   ----------------------------------------
Snowfall_7_009:
	BYTE		N20     An1   v127
	BYTE	W84
	BYTE		N11     Gn1 
	BYTE	W12
	BYTE	PEND
// 010   ----------------------------------------
	BYTE	PATT
	 POIN2	Snowfall_7_008
// 011   ----------------------------------------
Snowfall_7_011:
	BYTE		N20     An1   v127
	BYTE	W84
	BYTE		N11     Fs1 
	BYTE	W12
	BYTE	PEND
// 012   ----------------------------------------
Snowfall_7_012:
	BYTE		N20     Fn1   v127
	BYTE	W84
	BYTE		N11     Cn2 
	BYTE	W12
	BYTE	PEND
// 013   ----------------------------------------
Snowfall_7_013:
	BYTE		N20     Bn1   v127
	BYTE	W84
	BYTE		N11     Gn1 
	BYTE	W12
	BYTE	PEND
// 014   ----------------------------------------
Snowfall_7_014:
	BYTE		N20     An1   v127
	BYTE	W84
	BYTE		N11     Cn2 
	BYTE	W12
	BYTE	PEND
// 015   ----------------------------------------
Snowfall_7_015:
	BYTE		N20     Dn2   v127
	BYTE	W60
	BYTE		N11     Cn2 
	BYTE	W12
	BYTE		        Bn1 
	BYTE	W12
	BYTE		        An1 
	BYTE	W12
	BYTE	PEND
// 016   ----------------------------------------
	BYTE	PATT
	 POIN2	Snowfall_7_004
// 017   ----------------------------------------
	BYTE	PATT
	 POIN2	Snowfall_7_001
// 018   ----------------------------------------
	BYTE	PATT
	 POIN2	Snowfall_7_002
// 019   ----------------------------------------
	BYTE	PATT
	 POIN2	Snowfall_7_003
// 020   ----------------------------------------
	BYTE	PATT
	 POIN2	Snowfall_7_004
// 021   ----------------------------------------
	BYTE	PATT
	 POIN2	Snowfall_7_001
// 022   ----------------------------------------
	BYTE	PATT
	 POIN2	Snowfall_7_002
// 023   ----------------------------------------
	BYTE	PATT
	 POIN2	Snowfall_7_003
// 024   ----------------------------------------
	BYTE	W72
// 025   ----------------------------------------
	BYTE	W72
// 026   ----------------------------------------
	BYTE	W72
// 027   ----------------------------------------
	BYTE	W72
// 028   ----------------------------------------
	BYTE	W72
// 029   ----------------------------------------
	BYTE	W72
// 030   ----------------------------------------
	BYTE	W72
// 031   ----------------------------------------
	BYTE	W72
// 032   ----------------------------------------
	BYTE	W72
// 033   ----------------------------------------
	BYTE	W72
// 034   ----------------------------------------
	BYTE	W72
// 035   ----------------------------------------
	BYTE	W72
// 036   ----------------------------------------
	BYTE	W72
// 037   ----------------------------------------
	BYTE	W72
// 038   ----------------------------------------
	BYTE	W72
// 039   ----------------------------------------
	BYTE	W72
// 040   ----------------------------------------
	BYTE	PATT
	 POIN2	Snowfall_7_008
// 041   ----------------------------------------
	BYTE	PATT
	 POIN2	Snowfall_7_009
// 042   ----------------------------------------
	BYTE	PATT
	 POIN2	Snowfall_7_008
// 043   ----------------------------------------
	BYTE	PATT
	 POIN2	Snowfall_7_011
// 044   ----------------------------------------
	BYTE	PATT
	 POIN2	Snowfall_7_012
// 045   ----------------------------------------
	BYTE	PATT
	 POIN2	Snowfall_7_013
// 046   ----------------------------------------
	BYTE	PATT
	 POIN2	Snowfall_7_014
// 047   ----------------------------------------
	BYTE	PATT
	 POIN2	Snowfall_7_015
// 048   ----------------------------------------
	BYTE		N20     Gn1   v127
	BYTE	W24
	BYTE		        En1 
	BYTE	W24
	BYTE		        Fs1 
	BYTE	W24
	BYTE		        En1 
	BYTE	W24
// 049   ----------------------------------------
	BYTE		        Gn1 
	BYTE	W24
	BYTE		        Fs1 
	BYTE	W24
	BYTE		N42     En1 
	BYTE	W42
	BYTE	GoTo
	 POIN2	Snowfall_7_B1
Snowfall_7_B2:
	BYTE	FINE

//******************************************************//
	ALIGN 4

Snowfall:
	BYTE	7	// NumTrks
	BYTE	0	// NumBlks
	BYTE	Snowfall_pri	// Priority
	BYTE	Snowfall_rev	// Reverb.

	POIN2	Snowfall_grp

	POIN2	Snowfall_1
	POIN2	Snowfall_2
	POIN2	Snowfall_3
	POIN2	Snowfall_4
	POIN2	Snowfall_5
	POIN2	Snowfall_6
	POIN2	Snowfall_7

	
