//Event file generated from Sappy .s format.
	#include "MPlayDef.event"

	#define	IdeonsFate_grp  voicegroup000
	#define	IdeonsFate_pri  0
	#define	IdeonsFate_rev  176
	#define	IdeonsFate_mvl  30
	#define	IdeonsFate_key  0
	#define	IdeonsFate_tbs  1
	#define	IdeonsFate_exg  0
	#define	IdeonsFate_cmp  1

	// .rodata
	//	IdeonsFate
	ALIGN 4

//**************** Track 1 (Midi-Chn.1) ****************//

IdeonsFate_1:
	BYTE	KEYSH   IdeonsFate_key+0
IdeonsFate_1_B1:
// 000   ----------------------------------------
	BYTE	TEMPO   90*IdeonsFate_tbs/2
	BYTE		VOICE   0
	BYTE		MODT    0
	BYTE		LFOS    44
	BYTE		VOL     127*IdeonsFate_mvl/mxv
	BYTE		PAN     c_v+0
	BYTE	W96
// 001   ----------------------------------------
IdeonsFate_1_001:
	BYTE		N12     An2   v100
	BYTE		N20     An3 
	BYTE	W12
	BYTE		N12     Bn2 
	BYTE	W12
	BYTE		        Cn3 
	BYTE		N12     An3 
	BYTE	W12
	BYTE		        Dn3 
	BYTE		N12     Bn3 
	BYTE	W12
	BYTE		        En3 
	BYTE		N12     Cn4 
	BYTE	W12
	BYTE		        Dn3 
	BYTE		N12     Bn3 
	BYTE	W12
	BYTE		        Cn3 
	BYTE		N12     An3 
	BYTE	W12
	BYTE		        Bn2 
	BYTE		N12     Bn3 
	BYTE	W12
	BYTE		        An2 
	BYTE		N20     An3 
	BYTE	W12
	BYTE		N12     Cn3 
	BYTE	W12
	BYTE	PEND
// 002   ----------------------------------------
	BYTE		        Dn3 
	BYTE		N12     Bn3 
	BYTE	W12
	BYTE		        Cn3 
	BYTE		N12     An3 
	BYTE	W12
	BYTE		        Dn3 
	BYTE		N12     Bn3 
	BYTE	W12
	BYTE		        En3 
	BYTE		N12     Cn4 
	BYTE	W12
	BYTE		        Gn3 
	BYTE		N20     Dn4 
	BYTE	W12
	BYTE		N12     Dn3 
	BYTE	W12
	BYTE		        Bn2 
	BYTE		N20     Gn3 
	BYTE	W12
	BYTE		N12     Gn2 
	BYTE	W12
// 003   ----------------------------------------
	BYTE	PATT
	 POIN2	IdeonsFate_1_001
// 004   ----------------------------------------
	BYTE		N12     Dn3   v100
	BYTE		N12     Bn3 
	BYTE	W12
	BYTE		        Cn3 
	BYTE		N12     An3 
	BYTE	W12
	BYTE		        Bn2 
	BYTE		N12     Gn3 
	BYTE	W12
	BYTE		        Dn3 
	BYTE		N12     An3 
	BYTE	W12
	BYTE		        Cn3 
	BYTE		N12     Gn3 
	BYTE	W12
	BYTE		        Gn2 
	BYTE		N12     En3 
	BYTE	W12
// 005   ----------------------------------------
	BYTE		        Cn3 
	BYTE		N20     Fn3 
	BYTE	W12
	BYTE		N12     An2 
	BYTE	W12
	BYTE		        Cn3 
	BYTE		N42     An3 
	BYTE	W12
	BYTE		N12     Fn3 
	BYTE	W12
	BYTE		        En3 
	BYTE	W12
	BYTE		        Cn3 
	BYTE	W12
// 006   ----------------------------------------
	BYTE		        Dn3 
	BYTE		N12     An3 
	BYTE	W12
	BYTE		        En3 
	BYTE		N12     Bn3 
	BYTE	W12
	BYTE		        Fn3 
	BYTE		N12     Cn4 
	BYTE	W12
	BYTE		        En3 
	BYTE		N12     Bn3 
	BYTE	W12
	BYTE		        Dn3 
	BYTE		N20     An3 
	BYTE	W12
	BYTE		N12     An2 
	BYTE	W12
// 007   ----------------------------------------
	BYTE		        En3 
	BYTE		N20     Bn3 
	BYTE	W12
	BYTE		N12     Bn2 
	BYTE	W12
	BYTE		        Gs2 
	BYTE		N20     En3 
	BYTE	W12
	BYTE		N12     An2 
	BYTE	W12
	BYTE		        Bn2 
	BYTE		N20     An3 
	BYTE	W12
	BYTE		N12     Dn3 
	BYTE	W12
// 008   ----------------------------------------
	BYTE		N72     En3 
	BYTE		TIE     Gs3 
	BYTE	W72
	BYTE		N66     En2 
	BYTE	W66
	BYTE		EOT     Gs3 
	BYTE	W06
// 009   ----------------------------------------
	BYTE	W96
// 010   ----------------------------------------
IdeonsFate_1_010:
	BYTE		N12     An3   v100
	BYTE		N20     An4 
	BYTE	W12
	BYTE		N12     Bn3 
	BYTE	W12
	BYTE		        Cn4 
	BYTE		N12     An4 
	BYTE	W12
	BYTE		        Dn4 
	BYTE		N12     Bn4 
	BYTE	W12
	BYTE		        En4 
	BYTE		N12     Cn5 
	BYTE	W12
	BYTE		        Dn4 
	BYTE		N12     Bn4 
	BYTE	W12
	BYTE		        Cn4 
	BYTE		N12     An4 
	BYTE	W12
	BYTE		        Bn3 
	BYTE		N12     Bn4 
	BYTE	W12
	BYTE		        An3 
	BYTE		N20     An4 
	BYTE	W12
	BYTE		N12     Cn4 
	BYTE	W12
	BYTE	PEND
// 011   ----------------------------------------
	BYTE		        Dn4 
	BYTE		N12     Bn4 
	BYTE	W12
	BYTE		        Cn4 
	BYTE		N12     An4 
	BYTE	W12
	BYTE		        Dn4 
	BYTE		N12     Bn4 
	BYTE	W12
	BYTE		        En4 
	BYTE		N12     Cn5 
	BYTE	W12
	BYTE		        Gn4 
	BYTE		N20     Dn5 
	BYTE	W12
	BYTE		N12     Dn4 
	BYTE	W12
	BYTE		        Bn3 
	BYTE		N20     Gn4 
	BYTE	W12
	BYTE		N12     Gn3 
	BYTE	W12
// 012   ----------------------------------------
	BYTE	PATT
	 POIN2	IdeonsFate_1_010
// 013   ----------------------------------------
	BYTE		N12     Dn4   v100
	BYTE		N12     Bn4 
	BYTE	W12
	BYTE		        Cn4 
	BYTE		N12     An4 
	BYTE	W12
	BYTE		        Bn3 
	BYTE		N12     Gn4 
	BYTE	W12
	BYTE		        Dn4 
	BYTE		N12     An4 
	BYTE	W12
	BYTE		        Cn4 
	BYTE		N12     Gn4 
	BYTE	W12
	BYTE		        Gn3 
	BYTE		N12     En4 
	BYTE	W12
// 014   ----------------------------------------
	BYTE		        Cn4 
	BYTE		N20     Fn4 
	BYTE	W12
	BYTE		N12     An3 
	BYTE	W12
	BYTE		        Cn4 
	BYTE		N42     An4 
	BYTE	W12
	BYTE		N12     Fn4 
	BYTE	W12
	BYTE		        En4 
	BYTE	W12
	BYTE		        Cn4 
	BYTE	W12
// 015   ----------------------------------------
	BYTE		        Dn4 
	BYTE		N12     An4 
	BYTE	W12
	BYTE		        En4 
	BYTE		N12     Bn4 
	BYTE	W12
	BYTE		        Fn4 
	BYTE		N12     Cn5 
	BYTE	W12
	BYTE		        En4 
	BYTE		N12     Bn4 
	BYTE	W12
	BYTE		        Dn4 
	BYTE		N20     An4 
	BYTE	W12
	BYTE		N12     An3 
	BYTE	W12
// 016   ----------------------------------------
	BYTE		        En4 
	BYTE		N20     Bn4 
	BYTE	W12
	BYTE		N12     Bn3 
	BYTE	W12
	BYTE		        Gs3 
	BYTE		N20     En4 
	BYTE	W12
	BYTE		N12     An3 
	BYTE	W12
	BYTE		        Bn3 
	BYTE		N20     An4 
	BYTE	W12
	BYTE		N12     Dn4 
	BYTE	W12
// 017   ----------------------------------------
	BYTE		N72     En4 
	BYTE		TIE     Gs4 
	BYTE	W72
	BYTE		N66     En3 
	BYTE	W66
	BYTE		EOT     Gs4 
	BYTE	W06
// 018   ----------------------------------------
IdeonsFate_1_018:
	BYTE		N24     Dn3   v100
	BYTE		N24     Gn3 
	BYTE		N24     Bn3 
	BYTE	W24
	BYTE		        Dn3 
	BYTE		N24     Gn3 
	BYTE		N24     Bn3 
	BYTE	W24
	BYTE		        Dn3 
	BYTE		N24     Gn3 
	BYTE		N24     Bn3 
	BYTE	W24
	BYTE		        Dn3 
	BYTE		N24     Gn3 
	BYTE		N24     Bn3 
	BYTE	W24
	BYTE	PEND
// 019   ----------------------------------------
IdeonsFate_1_019:
	BYTE		N24     En3   v100
	BYTE		N24     Gn3 
	BYTE		N24     Bn3 
	BYTE	W24
	BYTE		        En3 
	BYTE		N24     Gn3 
	BYTE		N24     Bn3 
	BYTE	W24
	BYTE		        En3 
	BYTE		N24     Gn3 
	BYTE		N24     Bn3 
	BYTE	W24
	BYTE		        En3 
	BYTE		N24     Gn3 
	BYTE		N24     Bn3 
	BYTE	W24
	BYTE	PEND
// 020   ----------------------------------------
IdeonsFate_1_020:
	BYTE		N24     En3   v100
	BYTE		N24     Gn3 
	BYTE		N24     Cn4 
	BYTE	W24
	BYTE		        En3 
	BYTE		N24     Gn3 
	BYTE		N24     Cn4 
	BYTE	W24
	BYTE		        En3 
	BYTE		N24     Gn3 
	BYTE		N24     Cn4 
	BYTE	W24
	BYTE		        En3 
	BYTE		N24     Gn3 
	BYTE		N24     Cn4 
	BYTE	W24
	BYTE	PEND
// 021   ----------------------------------------
	BYTE		        En3 
	BYTE		N24     An3 
	BYTE		N24     Dn4 
	BYTE	W24
	BYTE		        En3 
	BYTE		N24     An3 
	BYTE		N24     Dn4 
	BYTE	W24
	BYTE		        Fs3 
	BYTE		N24     An3 
	BYTE		N24     Dn4 
	BYTE	W24
	BYTE		        Fs3 
	BYTE		N24     An3 
	BYTE		N24     Dn4 
	BYTE	W24
// 022   ----------------------------------------
	BYTE	PATT
	 POIN2	IdeonsFate_1_018
// 023   ----------------------------------------
	BYTE	PATT
	 POIN2	IdeonsFate_1_019
// 024   ----------------------------------------
	BYTE	PATT
	 POIN2	IdeonsFate_1_020
// 025   ----------------------------------------
	BYTE		N12     Fn3   v100
	BYTE		N12     An3 
	BYTE		N12     Cn4 
	BYTE	W12
	BYTE		        As3 
	BYTE	W12
	BYTE		        Cn3 
	BYTE		N12     Fn3 
	BYTE		N12     An3 
	BYTE	W12
	BYTE		        Gn3 
	BYTE	W12
	BYTE		        An2 
	BYTE		N12     Cn3 
	BYTE		N12     Fn3 
	BYTE	W12
	BYTE		        Cn3 
	BYTE	W12
	BYTE		        Fn3 
	BYTE		N12     An3 
	BYTE		N12     Dn4 
	BYTE	W12
	BYTE		        As3 
	BYTE	W12
// 026   ----------------------------------------
	BYTE		        Dn3 
	BYTE		N12     Fn3 
	BYTE		N12     An3 
	BYTE	W12
	BYTE		        Gn3 
	BYTE	W12
	BYTE		        An2 
	BYTE		N12     Dn3 
	BYTE		N12     Fn3 
	BYTE	W12
	BYTE		        Dn3 
	BYTE	W12
	BYTE		        An3 
	BYTE		N12     Dn4 
	BYTE		N12     Fs4 
	BYTE	W12
	BYTE		        En4 
	BYTE	W12
	BYTE		        Fs3 
	BYTE		N12     An3 
	BYTE		N12     Dn4 
	BYTE	W12
	BYTE		        Bn3 
	BYTE	W12
// 027   ----------------------------------------
	BYTE		        Dn3 
	BYTE		N12     Fs3 
	BYTE		N12     An3 
	BYTE	W12
	BYTE		        Fs3 
	BYTE	W12
	BYTE		TIE     Dn3 
	BYTE		TIE     Fs3 
	BYTE		TIE     An3 
	BYTE		TIE     Dn4 
	BYTE		TIE     Fs4 
	BYTE		TIE     An4 
	BYTE	W72
// 028   ----------------------------------------
	BYTE	W24
	BYTE		N90     Dn2 
	BYTE	W72
// 029   ----------------------------------------
	BYTE	W18
	BYTE		EOT     Dn3 
	BYTE		        Fs3 
	BYTE		        An3 
	BYTE		        Dn4 
	BYTE		        Fs4 
	BYTE		        An4 
	BYTE	W09
	BYTE	GoTo
	 POIN2	IdeonsFate_1_B1
IdeonsFate_1_B2:
	BYTE	W68
	BYTE	W01
// 030   ----------------------------------------
	BYTE	FINE

//**************** Track 2 (Midi-Chn.2) ****************//

IdeonsFate_2:
	BYTE	KEYSH   IdeonsFate_key+0
IdeonsFate_2_B1:
// 000   ----------------------------------------
	BYTE		VOICE   48
	BYTE		MODT    0
	BYTE		LFOS    44
	BYTE		VOL     127*IdeonsFate_mvl/mxv
	BYTE		PAN     c_v-32
	BYTE		TIE     An1   v100
	BYTE	W96
// 001   ----------------------------------------
	BYTE	W96
	BYTE	W24
	BYTE		EOT   
// 002   ----------------------------------------
	BYTE		N96     Gn1 
	BYTE	W96
// 003   ----------------------------------------
IdeonsFate_2_003:
	BYTE		TIE     An1   v100
	BYTE	W96
	BYTE	W24
	BYTE	PEND
	BYTE		EOT   
// 004   ----------------------------------------
IdeonsFate_2_004:
	BYTE		N24     Gn1   v100
	BYTE	W24
	BYTE		        Bn1 
	BYTE	W24
	BYTE		        Cn2 
	BYTE	W24
	BYTE	PEND
// 005   ----------------------------------------
IdeonsFate_2_005:
	BYTE		N24     An1   v100
	BYTE	W24
	BYTE		N48     Fn1 
	BYTE	W48
	BYTE	PEND
// 006   ----------------------------------------
	BYTE		N72     Dn1 
	BYTE	W72
// 007   ----------------------------------------
	BYTE		        Bn0 
	BYTE	W72
// 008   ----------------------------------------
IdeonsFate_2_008:
	BYTE		TIE     En1   v100
	BYTE	W96
	BYTE	W42
	BYTE	PEND
	BYTE		EOT   
	BYTE	W06
// 009   ----------------------------------------
	BYTE	W96
// 010   ----------------------------------------
	BYTE	PATT
	 POIN2	IdeonsFate_2_003
	BYTE		EOT     An1 
// 011   ----------------------------------------
	BYTE		N96     Gn1   v100
	BYTE	W96
// 012   ----------------------------------------
	BYTE	PATT
	 POIN2	IdeonsFate_2_003
	BYTE		EOT     An1 
// 013   ----------------------------------------
	BYTE	PATT
	 POIN2	IdeonsFate_2_004
// 014   ----------------------------------------
	BYTE	PATT
	 POIN2	IdeonsFate_2_005
// 015   ----------------------------------------
	BYTE		N72     Dn1   v100
	BYTE	W72
// 016   ----------------------------------------
	BYTE		        Bn0 
	BYTE	W72
// 017   ----------------------------------------
	BYTE	PATT
	 POIN2	IdeonsFate_2_008
	BYTE		EOT     En1 
	BYTE	W06
// 018   ----------------------------------------
	BYTE		TIE     Gn1   v100
	BYTE	W96
// 019   ----------------------------------------
	BYTE	W96
	BYTE		EOT   
// 020   ----------------------------------------
	BYTE		TIE     An1 
	BYTE	W96
// 021   ----------------------------------------
	BYTE	W96
	BYTE		EOT   
// 022   ----------------------------------------
	BYTE		TIE     Gn1 
	BYTE	W96
// 023   ----------------------------------------
	BYTE	W96
	BYTE		EOT   
// 024   ----------------------------------------
	BYTE		N96     An1 
	BYTE	W96
// 025   ----------------------------------------
	BYTE		N72     Fn1 
	BYTE	W72
	BYTE		        Dn1 
	BYTE	W24
// 026   ----------------------------------------
	BYTE	W48
	BYTE		        Fs1 
	BYTE	W48
// 027   ----------------------------------------
	BYTE	W24
	BYTE		TIE     Dn1 
	BYTE	W72
// 028   ----------------------------------------
	BYTE	W96
// 029   ----------------------------------------
	BYTE	W18
	BYTE		EOT   
	BYTE	W09
	BYTE	GoTo
	 POIN2	IdeonsFate_2_B1
IdeonsFate_2_B2:
	BYTE	W68
	BYTE	W01
// 030   ----------------------------------------
	BYTE	FINE

//**************** Track 3 (Midi-Chn.3) ****************//

IdeonsFate_3:
	BYTE	KEYSH   IdeonsFate_key+0
IdeonsFate_3_B1:
// 000   ----------------------------------------
	BYTE		VOICE   49
	BYTE		MODT    0
	BYTE		LFOS    44
	BYTE		VOL     127*IdeonsFate_mvl/mxv
	BYTE		PAN     c_v+32
	BYTE	W96
// 001   ----------------------------------------
	BYTE	W96
	BYTE	W24
// 002   ----------------------------------------
	BYTE	W96
// 003   ----------------------------------------
	BYTE	W96
	BYTE	W24
// 004   ----------------------------------------
	BYTE	W72
// 005   ----------------------------------------
	BYTE	W72
// 006   ----------------------------------------
	BYTE	W72
// 007   ----------------------------------------
	BYTE	W72
// 008   ----------------------------------------
	BYTE	W96
	BYTE	W48
// 009   ----------------------------------------
	BYTE		TIE     An3   v100
	BYTE	W96
// 010   ----------------------------------------
	BYTE		        En3 
	BYTE		TIE     Cn4 
	BYTE	W96
	BYTE	W24
	BYTE		EOT     En3 
	BYTE		        An3 
	BYTE		        Cn4 
// 011   ----------------------------------------
	BYTE		N96     Dn3 
	BYTE		N96     Gn3 
	BYTE		N96     Bn3 
	BYTE	W96
// 012   ----------------------------------------
	BYTE		TIE     En3 
	BYTE		TIE     An3 
	BYTE		TIE     Cn4 
	BYTE	W96
	BYTE	W24
	BYTE		EOT     En3 
	BYTE		        An3 
	BYTE		        Cn4 
// 013   ----------------------------------------
	BYTE		N48     Dn3 
	BYTE		N72     Gn3 
	BYTE		N48     Bn3 
	BYTE	W48
	BYTE		N24     En3 
	BYTE		N96     Cn4 
	BYTE	W24
// 014   ----------------------------------------
	BYTE		TIE     Fn3 
	BYTE		TIE     An3 
	BYTE	W72
// 015   ----------------------------------------
	BYTE		N72     Dn4 
	BYTE	W72
	BYTE		EOT     Fn3 
	BYTE		        An3 
// 016   ----------------------------------------
	BYTE		N72   
	BYTE		TIE     Bn3 
	BYTE		TIE     En4 
	BYTE	W72
// 017   ----------------------------------------
	BYTE		        Gs3 
	BYTE	W96
	BYTE	W42
	BYTE		EOT   
	BYTE		EOT     Bn3 
	BYTE		        En4 
	BYTE	W06
// 018   ----------------------------------------
IdeonsFate_3_018:
	BYTE		N90     Dn3   v100
	BYTE		TIE     Gn3 
	BYTE		TIE     Bn3 
	BYTE	W96
	BYTE	PEND
// 019   ----------------------------------------
	BYTE		        En3 
	BYTE	W90
	BYTE		EOT     Bn3 
	BYTE	W06
// 020   ----------------------------------------
	BYTE		N90     Cn4 
	BYTE	W90
	BYTE		EOT     Gn3 
	BYTE	W06
// 021   ----------------------------------------
	BYTE		N90     An3 
	BYTE		N90     Dn4 
	BYTE	W48
	BYTE		EOT     En3 
	BYTE		N48     Fs3 
	BYTE	W48
// 022   ----------------------------------------
	BYTE	PATT
	 POIN2	IdeonsFate_3_018
// 023   ----------------------------------------
	BYTE		TIE     En3   v100
	BYTE	W90
	BYTE		EOT     Bn3 
	BYTE	W06
// 024   ----------------------------------------
	BYTE		TIE     Cn4 
	BYTE	W90
	BYTE		EOT     En3 
	BYTE		        Gn3 
	BYTE	W06
// 025   ----------------------------------------
	BYTE		TIE     Fn3 
	BYTE		TIE     An3 
	BYTE	W66
	BYTE		EOT     Cn4 
	BYTE	W06
	BYTE		TIE     Dn4 
	BYTE	W24
// 026   ----------------------------------------
	BYTE	W42
	BYTE		EOT     Fn3 
	BYTE	W06
	BYTE		TIE     Dn3 
	BYTE		TIE     Fs4 
	BYTE	W48
// 027   ----------------------------------------
	BYTE	W96
// 028   ----------------------------------------
	BYTE	W96
// 029   ----------------------------------------
	BYTE	W18
	BYTE		EOT     Dn3 
	BYTE		        An3 
	BYTE		        Dn4 
	BYTE		        Fs4 
	BYTE	W09
	BYTE	GoTo
	 POIN2	IdeonsFate_3_B1
IdeonsFate_3_B2:
	BYTE	W68
	BYTE	W01
// 030   ----------------------------------------
	BYTE	FINE

//**************** Track 4 (Midi-Chn.4) ****************//

IdeonsFate_4:
	BYTE	KEYSH   IdeonsFate_key+0
IdeonsFate_4_B1:
// 000   ----------------------------------------
	BYTE		VOICE   71
	BYTE		MODT    0
	BYTE		LFOS    44
	BYTE		VOL     127*IdeonsFate_mvl/mxv
	BYTE		PAN     c_v-63
	BYTE	W96
// 001   ----------------------------------------
	BYTE	W96
	BYTE	W24
// 002   ----------------------------------------
	BYTE	W96
// 003   ----------------------------------------
	BYTE	W96
	BYTE	W24
// 004   ----------------------------------------
	BYTE	W72
// 005   ----------------------------------------
	BYTE	W72
// 006   ----------------------------------------
	BYTE	W72
// 007   ----------------------------------------
	BYTE	W72
// 008   ----------------------------------------
	BYTE	W96
	BYTE	W48
// 009   ----------------------------------------
	BYTE	W96
// 010   ----------------------------------------
IdeonsFate_4_010:
	BYTE		N24     An3   v100
	BYTE	W24
	BYTE		N12   
	BYTE	W12
	BYTE		        Bn3 
	BYTE	W12
	BYTE		        Cn4 
	BYTE	W12
	BYTE		        Bn3 
	BYTE	W12
	BYTE		        An3 
	BYTE	W12
	BYTE		        Bn3 
	BYTE	W12
	BYTE		N24     An3 
	BYTE	W24
	BYTE	PEND
// 011   ----------------------------------------
	BYTE		N12     Bn3 
	BYTE	W12
	BYTE		        An3 
	BYTE	W12
	BYTE		        Bn3 
	BYTE	W12
	BYTE		        Cn4 
	BYTE	W12
	BYTE		N24     Dn4 
	BYTE	W24
	BYTE		        Gn3 
	BYTE	W24
// 012   ----------------------------------------
	BYTE	PATT
	 POIN2	IdeonsFate_4_010
// 013   ----------------------------------------
	BYTE		N12     Bn3   v100
	BYTE	W12
	BYTE		        An3 
	BYTE	W12
	BYTE		        Gn3 
	BYTE	W12
	BYTE		        An3 
	BYTE	W12
	BYTE		        Gn3 
	BYTE	W12
	BYTE		        En3 
	BYTE	W12
// 014   ----------------------------------------
	BYTE		N24     Fn3 
	BYTE	W24
	BYTE		N48     An3 
	BYTE	W48
// 015   ----------------------------------------
	BYTE		N12   
	BYTE	W12
	BYTE		        Bn3 
	BYTE	W12
	BYTE		        Cn4 
	BYTE	W12
	BYTE		        Bn3 
	BYTE	W12
	BYTE		N24     An3 
	BYTE	W24
// 016   ----------------------------------------
	BYTE		        Bn3 
	BYTE	W24
	BYTE		        En3 
	BYTE	W24
	BYTE		        An3 
	BYTE	W24
// 017   ----------------------------------------
	BYTE		TIE     Gs3 
	BYTE	W96
	BYTE	W42
	BYTE		EOT   
	BYTE	W06
// 018   ----------------------------------------
	BYTE	W12
	BYTE		N12     Dn3 
	BYTE	W12
	BYTE		        Fs3 
	BYTE	W12
	BYTE		        Gn3 
	BYTE	W12
	BYTE		N24     Fs3 
	BYTE	W24
	BYTE		        En3 
	BYTE	W24
// 019   ----------------------------------------
	BYTE		N48     Dn3 
	BYTE	W48
	BYTE		N16     Fs3 
	BYTE	W16
	BYTE		        En3 
	BYTE	W16
	BYTE		        Dn3 
	BYTE	W16
// 020   ----------------------------------------
	BYTE		N36     En3 
	BYTE	W36
	BYTE		N12     Fs3 
	BYTE	W12
	BYTE		N24     Gn3 
	BYTE	W24
	BYTE		        Cn4 
	BYTE	W24
// 021   ----------------------------------------
	BYTE		N90     An3 
	BYTE	W96
// 022   ----------------------------------------
	BYTE	W12
	BYTE		N12     Gn3 
	BYTE	W12
	BYTE		        Bn3 
	BYTE	W12
	BYTE		        Cn4 
	BYTE	W12
	BYTE		N24     Dn4 
	BYTE	W24
	BYTE		        Cn4 
	BYTE	W24
// 023   ----------------------------------------
	BYTE		N48     Bn3 
	BYTE	W48
	BYTE		N16   
	BYTE	W16
	BYTE		        Cn4 
	BYTE	W16
	BYTE		        Dn4 
	BYTE	W16
// 024   ----------------------------------------
	BYTE		N12     En4 
	BYTE	W12
	BYTE		        Dn4 
	BYTE	W12
	BYTE		        Cn4 
	BYTE	W12
	BYTE		        Bn3 
	BYTE	W12
	BYTE		N24     Cn4 
	BYTE	W24
	BYTE		        Bn3 
	BYTE	W24
// 025   ----------------------------------------
	BYTE		        An3 
	BYTE	W24
	BYTE		        Fn3 
	BYTE	W24
	BYTE		        Cn3 
	BYTE	W24
	BYTE		        Dn3 
	BYTE	W24
// 026   ----------------------------------------
	BYTE		        En3 
	BYTE	W24
	BYTE		        Fn3 
	BYTE	W24
	BYTE		        An3 
	BYTE	W24
	BYTE		        Fs3 
	BYTE	W24
// 027   ----------------------------------------
	BYTE		        En3 
	BYTE	W24
	BYTE		TIE     Dn3 
	BYTE	W72
// 028   ----------------------------------------
	BYTE	W96
// 029   ----------------------------------------
	BYTE	W18
	BYTE		EOT   
	BYTE	W09
	BYTE	GoTo
	 POIN2	IdeonsFate_4_B1
IdeonsFate_4_B2:
	BYTE	W68
	BYTE	W01
// 030   ----------------------------------------
	BYTE	FINE

//**************** Track 5 (Midi-Chn.5) ****************//

IdeonsFate_5:
	BYTE	KEYSH   IdeonsFate_key+0
IdeonsFate_5_B1:
// 000   ----------------------------------------
	BYTE		VOICE   68
	BYTE		MODT    0
	BYTE		LFOS    44
	BYTE		VOL     127*IdeonsFate_mvl/mxv
	BYTE		PAN     c_v+61
	BYTE	W96
// 001   ----------------------------------------
	BYTE	W96
	BYTE	W24
// 002   ----------------------------------------
	BYTE	W96
// 003   ----------------------------------------
	BYTE	W96
	BYTE	W24
// 004   ----------------------------------------
	BYTE	W72
// 005   ----------------------------------------
	BYTE	W72
// 006   ----------------------------------------
	BYTE	W72
// 007   ----------------------------------------
	BYTE	W72
// 008   ----------------------------------------
	BYTE	W96
	BYTE	W48
// 009   ----------------------------------------
	BYTE	W96
// 010   ----------------------------------------
IdeonsFate_5_010:
	BYTE		N24     An3   v100
	BYTE	W24
	BYTE		N12   
	BYTE	W12
	BYTE		        Bn3 
	BYTE	W12
	BYTE		        Cn4 
	BYTE	W12
	BYTE		        Bn3 
	BYTE	W12
	BYTE		        An3 
	BYTE	W12
	BYTE		        Bn3 
	BYTE	W12
	BYTE		N24     An3 
	BYTE	W24
	BYTE	PEND
// 011   ----------------------------------------
	BYTE		N12     Bn3 
	BYTE	W12
	BYTE		        An3 
	BYTE	W12
	BYTE		        Bn3 
	BYTE	W12
	BYTE		        Cn4 
	BYTE	W12
	BYTE		N24     Dn4 
	BYTE	W24
	BYTE		        Gn3 
	BYTE	W24
// 012   ----------------------------------------
	BYTE	PATT
	 POIN2	IdeonsFate_5_010
// 013   ----------------------------------------
	BYTE		N12     Bn3   v100
	BYTE	W12
	BYTE		        An3 
	BYTE	W12
	BYTE		        Gn3 
	BYTE	W12
	BYTE		        An3 
	BYTE	W12
	BYTE		        Gn3 
	BYTE	W12
	BYTE		        En3 
	BYTE	W12
// 014   ----------------------------------------
	BYTE		N24     Fn3 
	BYTE	W24
	BYTE		N48     An3 
	BYTE	W48
// 015   ----------------------------------------
	BYTE		N12   
	BYTE	W12
	BYTE		        Bn3 
	BYTE	W12
	BYTE		        Cn4 
	BYTE	W12
	BYTE		        Bn3 
	BYTE	W12
	BYTE		N24     An3 
	BYTE	W24
// 016   ----------------------------------------
	BYTE		        Bn3 
	BYTE	W24
	BYTE		        En3 
	BYTE	W24
	BYTE		        An3 
	BYTE	W24
// 017   ----------------------------------------
	BYTE		TIE     Gs3 
	BYTE	W96
	BYTE	W42
	BYTE		EOT   
	BYTE	W06
// 018   ----------------------------------------
	BYTE	W12
	BYTE		N12     Dn3 
	BYTE	W12
	BYTE		        Fs3 
	BYTE	W12
	BYTE		        Gn3 
	BYTE	W12
	BYTE		N24     Fs3 
	BYTE	W24
	BYTE		        En3 
	BYTE	W24
// 019   ----------------------------------------
	BYTE		N48     Dn3 
	BYTE	W48
	BYTE		N16     Fs3 
	BYTE	W16
	BYTE		        En3 
	BYTE	W16
	BYTE		        Dn3 
	BYTE	W16
// 020   ----------------------------------------
	BYTE		N36     En3 
	BYTE	W36
	BYTE		N12     Fs3 
	BYTE	W12
	BYTE		N24     Gn3 
	BYTE	W24
	BYTE		        Cn4 
	BYTE	W24
// 021   ----------------------------------------
	BYTE		N90     An3 
	BYTE	W96
// 022   ----------------------------------------
	BYTE	W12
	BYTE		N12     Gn3 
	BYTE	W12
	BYTE		        Bn3 
	BYTE	W12
	BYTE		        Cn4 
	BYTE	W12
	BYTE		N24     Dn4 
	BYTE	W24
	BYTE		        Cn4 
	BYTE	W24
// 023   ----------------------------------------
	BYTE		N48     Bn3 
	BYTE	W48
	BYTE		N16   
	BYTE	W16
	BYTE		        Cn4 
	BYTE	W16
	BYTE		        Dn4 
	BYTE	W16
// 024   ----------------------------------------
	BYTE		N12     En4 
	BYTE	W12
	BYTE		        Dn4 
	BYTE	W12
	BYTE		        Cn4 
	BYTE	W12
	BYTE		        Bn3 
	BYTE	W12
	BYTE		N24     Cn4 
	BYTE	W24
	BYTE		        Bn3 
	BYTE	W24
// 025   ----------------------------------------
	BYTE		        An3 
	BYTE	W24
	BYTE		        Fn3 
	BYTE	W24
	BYTE		        Cn3 
	BYTE	W24
	BYTE		        Dn3 
	BYTE	W24
// 026   ----------------------------------------
	BYTE		        En3 
	BYTE	W24
	BYTE		        Fn3 
	BYTE	W24
	BYTE		        An3 
	BYTE	W24
	BYTE		        Fs3 
	BYTE	W24
// 027   ----------------------------------------
	BYTE		        En3 
	BYTE	W24
	BYTE		TIE     Dn3 
	BYTE	W72
// 028   ----------------------------------------
	BYTE	W96
// 029   ----------------------------------------
	BYTE	W18
	BYTE		EOT   
	BYTE	W09
	BYTE	GoTo
	 POIN2	IdeonsFate_5_B1
IdeonsFate_5_B2:
	BYTE	W68
	BYTE	W01
// 030   ----------------------------------------
	BYTE	FINE

//**************** Track 6 (Midi-Chn.6) ****************//

IdeonsFate_6:
	BYTE	KEYSH   IdeonsFate_key+0
IdeonsFate_6_B1:
// 000   ----------------------------------------
	BYTE		VOICE   73
	BYTE		MODT    0
	BYTE		LFOS    44
	BYTE		VOL     127*IdeonsFate_mvl/mxv
	BYTE		PAN     c_v+0
	BYTE	W96
// 001   ----------------------------------------
	BYTE	W96
	BYTE	W24
// 002   ----------------------------------------
	BYTE	W96
// 003   ----------------------------------------
	BYTE	W96
	BYTE	W24
// 004   ----------------------------------------
	BYTE	W72
// 005   ----------------------------------------
	BYTE	W72
// 006   ----------------------------------------
	BYTE	W72
// 007   ----------------------------------------
	BYTE	W72
// 008   ----------------------------------------
	BYTE	W96
	BYTE	W48
// 009   ----------------------------------------
	BYTE	W96
// 010   ----------------------------------------
IdeonsFate_6_010:
	BYTE		N24     An3   v100
	BYTE	W24
	BYTE		N12   
	BYTE	W12
	BYTE		        Bn3 
	BYTE	W12
	BYTE		        Cn4 
	BYTE	W12
	BYTE		        Bn3 
	BYTE	W12
	BYTE		        An3 
	BYTE	W12
	BYTE		        Bn3 
	BYTE	W12
	BYTE		N24     An3 
	BYTE	W24
	BYTE	PEND
// 011   ----------------------------------------
	BYTE		N12     Bn3 
	BYTE	W12
	BYTE		        An3 
	BYTE	W12
	BYTE		        Bn3 
	BYTE	W12
	BYTE		        Cn4 
	BYTE	W12
	BYTE		N24     Dn4 
	BYTE	W24
	BYTE		        Gn3 
	BYTE	W24
// 012   ----------------------------------------
	BYTE	PATT
	 POIN2	IdeonsFate_6_010
// 013   ----------------------------------------
	BYTE		N12     Bn3   v100
	BYTE	W12
	BYTE		        An3 
	BYTE	W12
	BYTE		        Gn3 
	BYTE	W12
	BYTE		        An3 
	BYTE	W12
	BYTE		        Gn3 
	BYTE	W12
	BYTE		        En3 
	BYTE	W12
// 014   ----------------------------------------
	BYTE		N24     Fn3 
	BYTE	W24
	BYTE		N48     An3 
	BYTE	W48
// 015   ----------------------------------------
	BYTE		N12   
	BYTE	W12
	BYTE		        Bn3 
	BYTE	W12
	BYTE		        Cn4 
	BYTE	W12
	BYTE		        Bn3 
	BYTE	W12
	BYTE		N24     An3 
	BYTE	W24
// 016   ----------------------------------------
	BYTE		        Bn3 
	BYTE	W24
	BYTE		        En3 
	BYTE	W24
	BYTE		        An3 
	BYTE	W24
// 017   ----------------------------------------
	BYTE		TIE     Gs3 
	BYTE	W96
	BYTE	W42
	BYTE		EOT   
	BYTE	W06
// 018   ----------------------------------------
	BYTE	W12
	BYTE		N12     Dn3 
	BYTE	W12
	BYTE		        Fs3 
	BYTE	W12
	BYTE		        Gn3 
	BYTE	W12
	BYTE		N24     Fs3 
	BYTE	W24
	BYTE		        En3 
	BYTE	W24
// 019   ----------------------------------------
	BYTE		N48     Dn3 
	BYTE	W48
	BYTE		N16     Fs3 
	BYTE	W16
	BYTE		        En3 
	BYTE	W16
	BYTE		        Dn3 
	BYTE	W16
// 020   ----------------------------------------
	BYTE		N36     En3 
	BYTE	W36
	BYTE		N12     Fs3 
	BYTE	W12
	BYTE		N24     Gn3 
	BYTE	W24
	BYTE		        Cn4 
	BYTE	W24
// 021   ----------------------------------------
	BYTE		N90     An3 
	BYTE	W96
// 022   ----------------------------------------
	BYTE	W12
	BYTE		N12     Gn3 
	BYTE	W12
	BYTE		        Bn3 
	BYTE	W12
	BYTE		        Cn4 
	BYTE	W12
	BYTE		N24     Dn4 
	BYTE	W24
	BYTE		        Cn4 
	BYTE	W24
// 023   ----------------------------------------
	BYTE		N48     Bn3 
	BYTE	W48
	BYTE		N16   
	BYTE	W16
	BYTE		        Cn4 
	BYTE	W16
	BYTE		        Dn4 
	BYTE	W16
// 024   ----------------------------------------
	BYTE		N12     En4 
	BYTE	W12
	BYTE		        Dn4 
	BYTE	W12
	BYTE		        Cn4 
	BYTE	W12
	BYTE		        Bn3 
	BYTE	W12
	BYTE		N24     Cn4 
	BYTE	W24
	BYTE		        Bn3 
	BYTE	W24
// 025   ----------------------------------------
	BYTE		        An3 
	BYTE	W24
	BYTE		        Fn3 
	BYTE	W24
	BYTE		        Cn3 
	BYTE	W24
	BYTE		        Dn3 
	BYTE	W24
// 026   ----------------------------------------
	BYTE		        En3 
	BYTE	W24
	BYTE		        Fn3 
	BYTE	W24
	BYTE		        An3 
	BYTE	W24
	BYTE		        Fs3 
	BYTE	W24
// 027   ----------------------------------------
	BYTE		        En3 
	BYTE	W24
	BYTE		TIE     Dn3 
	BYTE	W72
// 028   ----------------------------------------
	BYTE	W96
// 029   ----------------------------------------
	BYTE	W18
	BYTE		EOT   
	BYTE	W09
	BYTE	GoTo
	 POIN2	IdeonsFate_6_B1
IdeonsFate_6_B2:
	BYTE	W68
	BYTE	W01
// 030   ----------------------------------------
	BYTE	FINE

//******************************************************//
	ALIGN 4

IdeonsFate:
	BYTE	6	// NumTrks
	BYTE	0	// NumBlks
	BYTE	IdeonsFate_pri	// Priority
	BYTE	IdeonsFate_rev	// Reverb.

	POIN2	IdeonsFate_grp

	POIN2	IdeonsFate_1
	POIN2	IdeonsFate_2
	POIN2	IdeonsFate_3
	POIN2	IdeonsFate_4
	POIN2	IdeonsFate_5
	POIN2	IdeonsFate_6

	
