//Event file generated from Sappy .s format.
	#include "MPlayDef.event"

	#define	HayesThemeAlt_grp  voicegroup000
	#define	HayesThemeAlt_pri  0
	#define	HayesThemeAlt_rev  196
	#define	HayesThemeAlt_mvl  35
	#define	HayesThemeAlt_key  0
	#define	HayesThemeAlt_tbs  1
	#define	HayesThemeAlt_exg  0
	#define	HayesThemeAlt_cmp  1

	// .rodata
	//	HayesThemeAlt
	ALIGN 4

//**************** Track 1 (Midi-Chn.1) ****************//

HayesThemeAlt_1:
	BYTE	KEYSH   HayesThemeAlt_key+0
HayesThemeAlt_1_B1:
// 000   ----------------------------------------
	BYTE	TEMPO   64*HayesThemeAlt_tbs/2
	BYTE		VOICE   18
	BYTE		MODT    0
	BYTE		LFOS    44
	BYTE		VOL     103*HayesThemeAlt_mvl/mxv
	BYTE		PAN     c_v+0
	BYTE	W96
// 001   ----------------------------------------
	BYTE	W96
// 002   ----------------------------------------
	BYTE	W96
// 003   ----------------------------------------
	BYTE	W96
// 004   ----------------------------------------
	BYTE	W96
// 005   ----------------------------------------
	BYTE	W96
// 006   ----------------------------------------
	BYTE	W96
// 007   ----------------------------------------
	BYTE	W96
// 008   ----------------------------------------
	BYTE	W96
// 009   ----------------------------------------
	BYTE	W96
// 010   ----------------------------------------
	BYTE	W96
// 011   ----------------------------------------
	BYTE	W96
// 012   ----------------------------------------
	BYTE		        c_v+32
	BYTE		TIE     En3   v100
	BYTE		N96     Gn3 
	BYTE		TIE     Cn4 
	BYTE	W96
// 013   ----------------------------------------
	BYTE		        An3 
	BYTE	W96
	BYTE		EOT     En3 
	BYTE		        Cn4 
// 014   ----------------------------------------
	BYTE		N96     Fs3 
	BYTE		N96     Dn4 
	BYTE	W96
// 015   ----------------------------------------
	BYTE		        En3 
	BYTE		N96     Gn3 
	BYTE		N96     Cs4 
	BYTE	W96
	BYTE		EOT     An3 
// 016   ----------------------------------------
	BYTE		N96     Fs3 
	BYTE		N96     Bn3 
	BYTE		N96     Dn4 
	BYTE	W96
// 017   ----------------------------------------
	BYTE		TIE     En3 
	BYTE		N96     Gn3 
	BYTE		TIE     Cn4 
	BYTE	W96
// 018   ----------------------------------------
	BYTE		N96     An3 
	BYTE	W96
	BYTE		EOT     En3 
	BYTE		        Cn4 
// 019   ----------------------------------------
	BYTE		N48     Dn3 
	BYTE		N48     Fs3 
	BYTE		N48     An3 
	BYTE	W48
	BYTE		N42     An2 
	BYTE		N42     Ds3 
	BYTE		N42     Fs3 
	BYTE		N42     Bn3 
	BYTE	W48
	BYTE	GoTo
	 POIN2	HayesThemeAlt_1_B1
HayesThemeAlt_1_B2:
// 020   ----------------------------------------
	BYTE		PAN     c_v+0
	BYTE	FINE

//**************** Track 2 (Midi-Chn.2) ****************//

HayesThemeAlt_2:
	BYTE	KEYSH   HayesThemeAlt_key+0
HayesThemeAlt_2_B1:
// 000   ----------------------------------------
	BYTE		VOICE   48
	BYTE		MODT    0
	BYTE		LFOS    44
	BYTE		VOL     127*HayesThemeAlt_mvl/mxv
	BYTE		PAN     c_v+32
	BYTE	W96
// 001   ----------------------------------------
	BYTE	W96
// 002   ----------------------------------------
	BYTE		TIE     En4   v100
	BYTE	W48
	BYTE		        Bn3 
	BYTE	W48
// 003   ----------------------------------------
	BYTE		        Gn3 
	BYTE	W48
	BYTE		N96     En3 
	BYTE	W48
	BYTE		EOT     Bn3 
	BYTE		        En4 
// 004   ----------------------------------------
	BYTE		N48     Bn2 
	BYTE	W48
	BYTE		EOT     Gn3 
	BYTE		N48     An2 
	BYTE		N48     Dn3 
	BYTE		N48     Fs3 
	BYTE	W48
// 005   ----------------------------------------
HayesThemeAlt_2_005:
	BYTE		N96     Cn3   v100
	BYTE		N96     En3 
	BYTE		N48     Gn3 
	BYTE	W48
	BYTE		TIE     An3 
	BYTE	W48
	BYTE	PEND
// 006   ----------------------------------------
HayesThemeAlt_2_006:
	BYTE		N48     Dn3   v100
	BYTE		N96     Fs3 
	BYTE	W48
	BYTE		N48     Cn3 
	BYTE	W48
	BYTE	PEND
	BYTE		EOT     An3 
// 007   ----------------------------------------
	BYTE		N48     Dn3 
	BYTE		N48     Gn3 
	BYTE		N48     Bn3 
	BYTE	W48
	BYTE		        Bn2 
	BYTE		N48     Ds3 
	BYTE		N48     Fs3 
	BYTE		N48     An3 
	BYTE	W48
// 008   ----------------------------------------
	BYTE		        Bn2 
	BYTE		N48     En3 
	BYTE		N48     Gn3 
	BYTE	W48
	BYTE		        An2 
	BYTE		N48     Dn3 
	BYTE		N48     Fs3 
	BYTE	W48
// 009   ----------------------------------------
	BYTE	PATT
	 POIN2	HayesThemeAlt_2_005
// 010   ----------------------------------------
	BYTE	PATT
	 POIN2	HayesThemeAlt_2_006
	BYTE		EOT     An3 
// 011   ----------------------------------------
	BYTE		N48     Dn3   v100
	BYTE		N48     Gn3 
	BYTE		N48     Bn3 
	BYTE	W48
	BYTE		PAN     c_v+32
	BYTE		N42     Bn2 
	BYTE		N42     Ds3 
	BYTE		N42     Fs3 
	BYTE		N42     An3 
	BYTE	W01
	BYTE		PAN     c_v+31
	BYTE	W02
	BYTE		        c_v+30
	BYTE	W01
	BYTE		        c_v+29
	BYTE	W02
	BYTE		        c_v+28
	BYTE	W01
	BYTE		        c_v+27
	BYTE	W02
	BYTE		        c_v+26
	BYTE	W01
	BYTE		        c_v+25
	BYTE	W02
	BYTE		        c_v+24
	BYTE	W01
	BYTE		        c_v+23
	BYTE	W02
	BYTE		        c_v+22
	BYTE	W01
	BYTE		        c_v+21
	BYTE	W02
	BYTE		        c_v+20
	BYTE	W01
	BYTE		        c_v+19
	BYTE	W02
	BYTE		        c_v+18
	BYTE	W01
	BYTE		        c_v+17
	BYTE	W02
	BYTE		        c_v+16
	BYTE	W01
	BYTE		        c_v+15
	BYTE	W02
	BYTE		        c_v+14
	BYTE	W01
	BYTE		        c_v+13
	BYTE	W02
	BYTE		        c_v+12
	BYTE	W01
	BYTE		        c_v+11
	BYTE	W02
	BYTE		        c_v+10
	BYTE	W01
	BYTE		        c_v+9
	BYTE	W02
	BYTE		        c_v+8
	BYTE	W01
	BYTE		        c_v+7
	BYTE	W02
	BYTE		        c_v+6
	BYTE	W01
	BYTE		        c_v+5
	BYTE	W02
	BYTE		        c_v+4
	BYTE	W01
	BYTE		        c_v+3
	BYTE	W02
	BYTE		        c_v+2
	BYTE	W01
	BYTE		        c_v+1
	BYTE	W02
// 012   ----------------------------------------
	BYTE		        c_v+0
	BYTE		N24     Gn3   v127
	BYTE	W24
	BYTE		        Bn3 
	BYTE	W24
	BYTE		        An3 
	BYTE	W24
	BYTE		        Gn3 
	BYTE	W24
// 013   ----------------------------------------
	BYTE		        Cn4 
	BYTE	W24
	BYTE		        Bn3 
	BYTE	W24
	BYTE		        An3 
	BYTE	W24
	BYTE		        Gn3 
	BYTE	W24
// 014   ----------------------------------------
	BYTE		        Dn4 
	BYTE	W24
	BYTE		        Fs4 
	BYTE	W24
	BYTE		        En4 
	BYTE	W24
	BYTE		        Dn4 
	BYTE	W24
// 015   ----------------------------------------
	BYTE		        Cs4 
	BYTE	W24
	BYTE		        Dn4 
	BYTE	W24
	BYTE		        En4 
	BYTE	W24
	BYTE		        Cs4 
	BYTE	W24
// 016   ----------------------------------------
	BYTE		        Bn3 
	BYTE	W24
	BYTE		        An3 
	BYTE	W24
	BYTE		N48     Fs3 
	BYTE	W48
// 017   ----------------------------------------
	BYTE		N24     Gn3 
	BYTE	W24
	BYTE		        Fs3 
	BYTE	W24
	BYTE		N48     En3 
	BYTE	W48
// 018   ----------------------------------------
	BYTE		N06     An3 
	BYTE	W06
	BYTE		        En3 
	BYTE	W06
	BYTE		N06   
	BYTE	W06
	BYTE		        Cn4 
	BYTE	W06
	BYTE		        An3 
	BYTE	W06
	BYTE		N06   
	BYTE	W06
	BYTE		        En4 
	BYTE	W06
	BYTE		        Cn4 
	BYTE	W06
	BYTE		N06   
	BYTE	W06
	BYTE		        An4 
	BYTE	W06
	BYTE		        En4 
	BYTE	W06
	BYTE		N06   
	BYTE	W06
	BYTE		        Cn4 
	BYTE	W06
	BYTE		        An3 
	BYTE	W06
	BYTE		        En3 
	BYTE	W06
	BYTE		        Cn3 
	BYTE	W06
// 019   ----------------------------------------
	BYTE		        Fs3 
	BYTE	W06
	BYTE		        Dn3 
	BYTE	W06
	BYTE		N06   
	BYTE	W06
	BYTE		        An3 
	BYTE	W06
	BYTE		        Fs3 
	BYTE	W06
	BYTE		N06   
	BYTE	W06
	BYTE		        Dn4 
	BYTE	W06
	BYTE		        An3 
	BYTE	W06
	BYTE		        Fs4 
	BYTE	W06
	BYTE		        Ds4 
	BYTE	W06
	BYTE		N06   
	BYTE	W06
	BYTE		        Bn3 
	BYTE	W06
	BYTE		        An3 
	BYTE	W06
	BYTE		N06   
	BYTE	W06
	BYTE		        Fs3 
	BYTE	W06
	BYTE		N05     Ds3 
	BYTE	W06
	BYTE	GoTo
	 POIN2	HayesThemeAlt_2_B1
HayesThemeAlt_2_B2:
// 020   ----------------------------------------
	BYTE		PAN     c_v+32
	BYTE	FINE

//**************** Track 3 (Midi-Chn.3) ****************//

HayesThemeAlt_3:
	BYTE	KEYSH   HayesThemeAlt_key+0
HayesThemeAlt_3_B1:
// 000   ----------------------------------------
	BYTE		VOICE   122
	BYTE		MODT    0
	BYTE		LFOS    44
	BYTE		VOL     87*HayesThemeAlt_mvl/mxv
	BYTE		PAN     c_v+0
	BYTE		N11     Bn0   v127
	BYTE		N11     Cn1 
	BYTE		N11     Fs1 
	BYTE		N11     Bn2 
	BYTE	W12
	BYTE		        As1 
	BYTE		N11     Bn2 
	BYTE	W12
	BYTE		        Dn1 
	BYTE		N11     En1 
	BYTE		N11     Fs1 
	BYTE		N11     Bn1 
	BYTE		N11     Cn2 
	BYTE		N11     Dn2 
	BYTE		N11     Bn2 
	BYTE	W12
	BYTE		N05     As1 
	BYTE		N05     Bn2 
	BYTE	W06
	BYTE		        Bn0 
	BYTE		N05     Cn1 
	BYTE	W06
	BYTE		N11     Bn0 
	BYTE		N11     Cn1 
	BYTE		N11     Fs1 
	BYTE		N11     Bn2 
	BYTE	W12
	BYTE		        Bn0 
	BYTE		N11     Cn1 
	BYTE		N11     As1 
	BYTE		N11     Bn2 
	BYTE	W12
	BYTE		        Dn1 
	BYTE		N11     En1 
	BYTE		N11     Fs1 
	BYTE		N11     Bn1 
	BYTE		N11     Cn2 
	BYTE		N11     Dn2 
	BYTE		N11     Bn2 
	BYTE	W12
	BYTE		        As1 
	BYTE		N11     Bn2 
	BYTE	W12
// 001   ----------------------------------------
HayesThemeAlt_3_001:
	BYTE		N11     Bn0   v127
	BYTE		N11     Cn1 
	BYTE		N11     Fs1 
	BYTE		N11     Bn2 
	BYTE	W12
	BYTE		        As1 
	BYTE		N11     Bn2 
	BYTE	W12
	BYTE		        Dn1 
	BYTE		N11     En1 
	BYTE		N11     Fs1 
	BYTE		N11     Bn1 
	BYTE		N11     Cn2 
	BYTE		N11     Dn2 
	BYTE		N11     Bn2 
	BYTE	W12
	BYTE		N05     As1 
	BYTE		N05     Bn2 
	BYTE	W06
	BYTE		        Bn0 
	BYTE		N05     Cn1 
	BYTE	W06
	BYTE		N11     Bn0 
	BYTE		N11     Cn1 
	BYTE		N11     Fs1 
	BYTE		N11     Bn2 
	BYTE	W12
	BYTE		        Bn0 
	BYTE		N11     Cn1 
	BYTE		N11     As1 
	BYTE		N11     Bn2 
	BYTE	W12
	BYTE		        Dn1 
	BYTE		N11     En1 
	BYTE		N11     Fs1 
	BYTE		N11     Bn1 
	BYTE		N11     Cn2 
	BYTE		N11     Dn2 
	BYTE		N11     Bn2 
	BYTE	W12
	BYTE		        As1 
	BYTE		N11     Bn2 
	BYTE	W12
	BYTE	PEND
// 002   ----------------------------------------
	BYTE	PATT
	 POIN2	HayesThemeAlt_3_001
// 003   ----------------------------------------
HayesThemeAlt_3_003:
	BYTE		N11     Bn0   v127
	BYTE		N11     Cn1 
	BYTE		N11     Fs1 
	BYTE		N11     Bn2 
	BYTE	W12
	BYTE		        As1 
	BYTE		N11     Bn2 
	BYTE	W12
	BYTE		        Dn1 
	BYTE		N11     En1 
	BYTE		N11     Fs1 
	BYTE		N11     Bn1 
	BYTE		N11     Cn2 
	BYTE		N11     Dn2 
	BYTE		N11     Bn2 
	BYTE	W12
	BYTE		N05     As1 
	BYTE		N05     Bn2 
	BYTE	W06
	BYTE		        Bn0 
	BYTE		N05     Cn1 
	BYTE	W06
	BYTE		N11     Bn0 
	BYTE		N11     Cn1 
	BYTE		N11     Fs1 
	BYTE		N11     Bn2 
	BYTE	W12
	BYTE		        Bn0 
	BYTE		N11     Cn1 
	BYTE		N11     As1 
	BYTE		N11     Bn2 
	BYTE	W12
	BYTE		        Dn1 
	BYTE		N11     En1 
	BYTE		N11     Fs1 
	BYTE		N11     Bn1 
	BYTE		N11     Cn2 
	BYTE		N11     Dn2 
	BYTE		N11     Bn2 
	BYTE	W12
	BYTE		N05     Bn0 
	BYTE		N05     Cn1 
	BYTE		N05     Dn1 
	BYTE		N05     En1 
	BYTE		N05     Fs1 
	BYTE		N05     Bn1 
	BYTE		N05     Cn2 
	BYTE		N05     Dn2 
	BYTE		N05     Bn2 
	BYTE	W06
	BYTE		        Bn0 
	BYTE		N05     Cn1 
	BYTE		N05     Dn1 
	BYTE		N05     En1 
	BYTE		N05     Fs1 
	BYTE		N05     Bn1 
	BYTE		N05     Cn2 
	BYTE		N05     Dn2 
	BYTE		N05     Bn2 
	BYTE	W06
	BYTE	PEND
// 004   ----------------------------------------
HayesThemeAlt_3_004:
	BYTE		N11     Bn0   v127
	BYTE		N11     Cn1 
	BYTE		N11     Fs1 
	BYTE		N11     An2 
	BYTE		N11     Bn2 
	BYTE	W12
	BYTE		        As1 
	BYTE		N11     Bn2 
	BYTE	W12
	BYTE		        Dn1 
	BYTE		N11     En1 
	BYTE		N11     Fs1 
	BYTE		N11     Bn1 
	BYTE		N11     Cn2 
	BYTE		N11     Dn2 
	BYTE		N11     Bn2 
	BYTE	W12
	BYTE		N05     As1 
	BYTE		N05     Bn2 
	BYTE	W06
	BYTE		        Bn0 
	BYTE		N05     Cn1 
	BYTE	W06
	BYTE		N11     Bn0 
	BYTE		N11     Cn1 
	BYTE		N11     Fs1 
	BYTE		N11     Bn2 
	BYTE	W12
	BYTE		        Bn0 
	BYTE		N11     Cn1 
	BYTE		N11     As1 
	BYTE		N11     Bn2 
	BYTE	W12
	BYTE		        Dn1 
	BYTE		N11     En1 
	BYTE		N11     Fs1 
	BYTE		N11     Bn1 
	BYTE		N11     Cn2 
	BYTE		N11     Dn2 
	BYTE		N11     Bn2 
	BYTE	W12
	BYTE		        As1 
	BYTE		N11     Bn2 
	BYTE	W12
	BYTE	PEND
// 005   ----------------------------------------
	BYTE	PATT
	 POIN2	HayesThemeAlt_3_001
// 006   ----------------------------------------
	BYTE	PATT
	 POIN2	HayesThemeAlt_3_001
// 007   ----------------------------------------
	BYTE	PATT
	 POIN2	HayesThemeAlt_3_003
// 008   ----------------------------------------
	BYTE	PATT
	 POIN2	HayesThemeAlt_3_004
// 009   ----------------------------------------
	BYTE	PATT
	 POIN2	HayesThemeAlt_3_001
// 010   ----------------------------------------
	BYTE	PATT
	 POIN2	HayesThemeAlt_3_001
// 011   ----------------------------------------
	BYTE	PATT
	 POIN2	HayesThemeAlt_3_003
// 012   ----------------------------------------
	BYTE	PATT
	 POIN2	HayesThemeAlt_3_004
// 013   ----------------------------------------
	BYTE	PATT
	 POIN2	HayesThemeAlt_3_001
// 014   ----------------------------------------
	BYTE	PATT
	 POIN2	HayesThemeAlt_3_001
// 015   ----------------------------------------
	BYTE	PATT
	 POIN2	HayesThemeAlt_3_003
// 016   ----------------------------------------
	BYTE	PATT
	 POIN2	HayesThemeAlt_3_004
// 017   ----------------------------------------
	BYTE	PATT
	 POIN2	HayesThemeAlt_3_001
// 018   ----------------------------------------
	BYTE	PATT
	 POIN2	HayesThemeAlt_3_001
// 019   ----------------------------------------
	BYTE	PATT
	 POIN2	HayesThemeAlt_3_003
	BYTE	GoTo
	 POIN2	HayesThemeAlt_3_B1
HayesThemeAlt_3_B2:
// 020   ----------------------------------------
	BYTE	FINE

//**************** Track 4 (Midi-Chn.4) ****************//

HayesThemeAlt_4:
	BYTE	KEYSH   HayesThemeAlt_key+0
HayesThemeAlt_4_B1:
// 000   ----------------------------------------
	BYTE		VOICE   81
	BYTE		MODT    0
	BYTE		LFOS    44
	BYTE		VOL     112*HayesThemeAlt_mvl/mxv
	BYTE		PAN     c_v-32
	BYTE		N11     En1   v100
	BYTE	W12
	BYTE		N11   
	BYTE	W12
	BYTE		        En2 
	BYTE	W12
	BYTE		        En1 
	BYTE	W12
	BYTE		N11   
	BYTE	W12
	BYTE		N05   
	BYTE	W06
	BYTE		N05   
	BYTE	W06
	BYTE		        Bn1 
	BYTE		N05     En2 
	BYTE		N05     Gn2 
	BYTE	W06
	BYTE		N17     Cn2 
	BYTE		N17     Fs2 
	BYTE		N17     An2 
	BYTE	W18
// 001   ----------------------------------------
HayesThemeAlt_4_001:
	BYTE		N11     En1   v100
	BYTE	W12
	BYTE		N11   
	BYTE	W12
	BYTE		        En2 
	BYTE	W12
	BYTE		        En1 
	BYTE	W12
	BYTE		N11   
	BYTE	W12
	BYTE		N05   
	BYTE	W06
	BYTE		N05   
	BYTE	W06
	BYTE		        Bn1 
	BYTE		N05     En2 
	BYTE		N05     Gn2 
	BYTE	W06
	BYTE		N17     Cn2 
	BYTE		N17     Fs2 
	BYTE		N17     An2 
	BYTE	W18
	BYTE	PEND
// 002   ----------------------------------------
	BYTE	PATT
	 POIN2	HayesThemeAlt_4_001
// 003   ----------------------------------------
	BYTE	PATT
	 POIN2	HayesThemeAlt_4_001
// 004   ----------------------------------------
HayesThemeAlt_4_004:
	BYTE		N04     En1   v100
	BYTE	W12
	BYTE		N04   
	BYTE	W06
	BYTE		N04   
	BYTE	W06
	BYTE		N11   
	BYTE		N11     Gn1 
	BYTE		N11     Bn1 
	BYTE	W12
	BYTE		N04     En1 
	BYTE	W06
	BYTE		N04   
	BYTE	W06
	BYTE		        Dn1 
	BYTE	W12
	BYTE		N04   
	BYTE	W06
	BYTE		N04   
	BYTE	W06
	BYTE		N11   
	BYTE		N11     Fs1 
	BYTE		N11     An1 
	BYTE	W12
	BYTE		N04     Dn1 
	BYTE	W06
	BYTE		N04   
	BYTE	W06
	BYTE	PEND
// 005   ----------------------------------------
HayesThemeAlt_4_005:
	BYTE		N04     Cn1   v100
	BYTE	W12
	BYTE		N04   
	BYTE	W06
	BYTE		N04   
	BYTE	W06
	BYTE		N11   
	BYTE		N11     En1 
	BYTE		N11     Gn1 
	BYTE	W12
	BYTE		N04     Cn1 
	BYTE	W06
	BYTE		N04   
	BYTE	W06
	BYTE		        An1 
	BYTE	W12
	BYTE		N04   
	BYTE	W06
	BYTE		N04   
	BYTE	W06
	BYTE		N11   
	BYTE		N11     Cn2 
	BYTE		N11     En2 
	BYTE	W12
	BYTE		N04     An1 
	BYTE	W06
	BYTE		N04   
	BYTE	W06
	BYTE	PEND
// 006   ----------------------------------------
HayesThemeAlt_4_006:
	BYTE		N04     Dn1   v100
	BYTE	W12
	BYTE		N04   
	BYTE	W06
	BYTE		N04   
	BYTE	W06
	BYTE		N11   
	BYTE		N11     Fs1 
	BYTE		N11     An1 
	BYTE	W12
	BYTE		N04     Dn1 
	BYTE	W06
	BYTE		N04   
	BYTE	W06
	BYTE		        Cn1 
	BYTE	W12
	BYTE		N04   
	BYTE	W06
	BYTE		N04   
	BYTE	W06
	BYTE		N11   
	BYTE		N11     Fs1 
	BYTE		N11     An1 
	BYTE	W12
	BYTE		N04     Cn1 
	BYTE	W06
	BYTE		N04   
	BYTE	W06
	BYTE	PEND
// 007   ----------------------------------------
HayesThemeAlt_4_007:
	BYTE		N04     Gn1   v100
	BYTE	W12
	BYTE		N04   
	BYTE	W06
	BYTE		N04   
	BYTE	W06
	BYTE		N11   
	BYTE		N11     Bn1 
	BYTE		N11     Dn2 
	BYTE	W12
	BYTE		N04     Gn1 
	BYTE	W06
	BYTE		N04   
	BYTE	W06
	BYTE		        Fs1 
	BYTE	W12
	BYTE		N04   
	BYTE	W06
	BYTE		N04   
	BYTE	W06
	BYTE		N11   
	BYTE		N11     An1 
	BYTE		N11     Bn1 
	BYTE		N11     Ds2 
	BYTE	W12
	BYTE		N04     Fs1 
	BYTE	W06
	BYTE		N04   
	BYTE	W06
	BYTE	PEND
// 008   ----------------------------------------
	BYTE	PATT
	 POIN2	HayesThemeAlt_4_004
// 009   ----------------------------------------
	BYTE	PATT
	 POIN2	HayesThemeAlt_4_005
// 010   ----------------------------------------
	BYTE	PATT
	 POIN2	HayesThemeAlt_4_006
// 011   ----------------------------------------
	BYTE	PATT
	 POIN2	HayesThemeAlt_4_007
// 012   ----------------------------------------
HayesThemeAlt_4_012:
	BYTE		N11     En1   v100
	BYTE		N11     Gn1 
	BYTE		N11     Cn2 
	BYTE	W12
	BYTE		N04     En1 
	BYTE	W06
	BYTE		N04   
	BYTE	W06
	BYTE		N11   
	BYTE		N11     Gn1 
	BYTE		N11     Cn2 
	BYTE	W12
	BYTE		N04     En1 
	BYTE	W06
	BYTE		N04   
	BYTE	W06
	BYTE		N11   
	BYTE		N11     Gn1 
	BYTE		N11     Cn2 
	BYTE	W12
	BYTE		N04     En1 
	BYTE	W06
	BYTE		N04   
	BYTE	W06
	BYTE		N11   
	BYTE		N11     Gn1 
	BYTE		N11     Cn2 
	BYTE	W12
	BYTE		N04     En1 
	BYTE	W06
	BYTE		N04   
	BYTE	W06
	BYTE	PEND
// 013   ----------------------------------------
HayesThemeAlt_4_013:
	BYTE		N11     En1   v100
	BYTE		N11     An1 
	BYTE		N11     Cn2 
	BYTE	W12
	BYTE		N04     En1 
	BYTE	W06
	BYTE		N04   
	BYTE	W06
	BYTE		N11   
	BYTE		N11     An1 
	BYTE		N11     Cn2 
	BYTE	W12
	BYTE		N04     En1 
	BYTE	W06
	BYTE		N04   
	BYTE	W06
	BYTE		N11   
	BYTE		N11     An1 
	BYTE		N11     Cn2 
	BYTE	W12
	BYTE		N04     En1 
	BYTE	W06
	BYTE		N04   
	BYTE	W06
	BYTE		N11   
	BYTE		N11     An1 
	BYTE		N11     Cn2 
	BYTE	W12
	BYTE		N04     En1 
	BYTE	W06
	BYTE		N04   
	BYTE	W06
	BYTE	PEND
// 014   ----------------------------------------
	BYTE		N11     Dn1 
	BYTE		N11     Fs1 
	BYTE		N11     An1 
	BYTE	W12
	BYTE		N04     Dn1 
	BYTE	W06
	BYTE		N04   
	BYTE	W06
	BYTE		N11   
	BYTE		N11     Fs1 
	BYTE		N11     An1 
	BYTE	W12
	BYTE		N04     Dn1 
	BYTE	W06
	BYTE		N04   
	BYTE	W06
	BYTE		N11   
	BYTE		N11     Fs1 
	BYTE		N11     An1 
	BYTE	W12
	BYTE		N04     Dn1 
	BYTE	W06
	BYTE		N04   
	BYTE	W06
	BYTE		N11   
	BYTE		N11     Fs1 
	BYTE		N11     An1 
	BYTE	W12
	BYTE		N04     Dn1 
	BYTE	W06
	BYTE		N04   
	BYTE	W06
// 015   ----------------------------------------
	BYTE		N11     Cs1 
	BYTE		N11     En1 
	BYTE		N11     Gn1 
	BYTE		N11     An1 
	BYTE	W12
	BYTE		N04     Cs1 
	BYTE	W06
	BYTE		N04   
	BYTE	W06
	BYTE		N11   
	BYTE		N11     En1 
	BYTE		N11     Gn1 
	BYTE		N11     An1 
	BYTE	W12
	BYTE		N04     Cs1 
	BYTE	W06
	BYTE		N04   
	BYTE	W06
	BYTE		N11   
	BYTE		N11     En1 
	BYTE		N11     Gn1 
	BYTE		N11     An1 
	BYTE	W12
	BYTE		N04     Cs1 
	BYTE	W06
	BYTE		N04   
	BYTE	W06
	BYTE		N11   
	BYTE		N11     En1 
	BYTE		N11     Gn1 
	BYTE		N11     An1 
	BYTE	W12
	BYTE		N04     Cs1 
	BYTE	W06
	BYTE		N04   
	BYTE	W06
// 016   ----------------------------------------
	BYTE		N11     Dn1 
	BYTE		N11     Fs1 
	BYTE		N11     Bn1 
	BYTE	W12
	BYTE		N04     Dn1 
	BYTE	W06
	BYTE		N04   
	BYTE	W06
	BYTE		N11   
	BYTE		N11     Fs1 
	BYTE		N11     Bn1 
	BYTE	W12
	BYTE		N04     Dn1 
	BYTE	W06
	BYTE		N04   
	BYTE	W06
	BYTE		N11   
	BYTE		N11     Fs1 
	BYTE		N11     Bn1 
	BYTE	W12
	BYTE		N04     Dn1 
	BYTE	W06
	BYTE		N04   
	BYTE	W06
	BYTE		N11   
	BYTE		N11     Fs1 
	BYTE		N11     Bn1 
	BYTE	W12
	BYTE		N04     Dn1 
	BYTE	W06
	BYTE		N04   
	BYTE	W06
// 017   ----------------------------------------
	BYTE	PATT
	 POIN2	HayesThemeAlt_4_012
// 018   ----------------------------------------
	BYTE	PATT
	 POIN2	HayesThemeAlt_4_013
// 019   ----------------------------------------
	BYTE		N11     Dn1   v100
	BYTE		N11     Fs1 
	BYTE		N11     An1 
	BYTE	W12
	BYTE		N04     Dn1 
	BYTE	W06
	BYTE		N04   
	BYTE	W06
	BYTE		N11   
	BYTE		N11     Fs1 
	BYTE		N11     An1 
	BYTE	W12
	BYTE		N04     Dn1 
	BYTE	W06
	BYTE		N04   
	BYTE	W06
	BYTE		N11     Ds1 
	BYTE		N11     Fs1 
	BYTE		N11     An1 
	BYTE		N11     Bn1 
	BYTE	W12
	BYTE		N04     Ds1 
	BYTE	W06
	BYTE		N04   
	BYTE	W06
	BYTE		N11   
	BYTE		N11     Fs1 
	BYTE		N11     An1 
	BYTE		N11     Bn1 
	BYTE	W12
	BYTE		N04     Ds1 
	BYTE	W06
	BYTE		N04   
	BYTE	W06
	BYTE	GoTo
	 POIN2	HayesThemeAlt_4_B1
HayesThemeAlt_4_B2:
// 020   ----------------------------------------
	BYTE	FINE

//**************** Track 5 (Midi-Chn.5) ****************//

HayesThemeAlt_5:
	BYTE	KEYSH   HayesThemeAlt_key+0
HayesThemeAlt_5_B1:
// 000   ----------------------------------------
	BYTE		VOICE   0
	BYTE		MODT    0
	BYTE		LFOS    44
	BYTE		VOL     117*HayesThemeAlt_mvl/mxv
	BYTE		PAN     c_v+0
	BYTE		N20     En1   v127
	BYTE	W24
	BYTE		        En2 
	BYTE	W24
	BYTE		        En1 
	BYTE	W24
	BYTE		        En2 
	BYTE	W24
// 001   ----------------------------------------
HayesThemeAlt_5_001:
	BYTE		N20     En1   v127
	BYTE	W24
	BYTE		        En2 
	BYTE	W24
	BYTE		        En1 
	BYTE	W24
	BYTE		        En2 
	BYTE	W24
	BYTE	PEND
// 002   ----------------------------------------
	BYTE	PATT
	 POIN2	HayesThemeAlt_5_001
// 003   ----------------------------------------
	BYTE	PATT
	 POIN2	HayesThemeAlt_5_001
// 004   ----------------------------------------
HayesThemeAlt_5_004:
	BYTE		N20     En1   v127
	BYTE	W24
	BYTE		        En2 
	BYTE	W24
	BYTE		        Dn1 
	BYTE	W24
	BYTE		        Dn2 
	BYTE	W24
	BYTE	PEND
// 005   ----------------------------------------
HayesThemeAlt_5_005:
	BYTE		N20     Cn1   v127
	BYTE	W24
	BYTE		        Cn2 
	BYTE	W24
	BYTE		        An0 
	BYTE	W24
	BYTE		        An1 
	BYTE	W24
	BYTE	PEND
// 006   ----------------------------------------
HayesThemeAlt_5_006:
	BYTE		N20     Fs1   v127
	BYTE	W24
	BYTE		        Fs2 
	BYTE	W24
	BYTE		        Dn1 
	BYTE	W24
	BYTE		        Dn2 
	BYTE	W24
	BYTE	PEND
// 007   ----------------------------------------
HayesThemeAlt_5_007:
	BYTE		N20     Gn1   v127
	BYTE	W24
	BYTE		        Gn2 
	BYTE	W24
	BYTE		        Ds1 
	BYTE	W24
	BYTE		        Ds2 
	BYTE	W24
	BYTE	PEND
// 008   ----------------------------------------
	BYTE	PATT
	 POIN2	HayesThemeAlt_5_004
// 009   ----------------------------------------
	BYTE	PATT
	 POIN2	HayesThemeAlt_5_005
// 010   ----------------------------------------
	BYTE	PATT
	 POIN2	HayesThemeAlt_5_006
// 011   ----------------------------------------
	BYTE	PATT
	 POIN2	HayesThemeAlt_5_007
// 012   ----------------------------------------
HayesThemeAlt_5_012:
	BYTE		N20     Cn1   v127
	BYTE	W24
	BYTE		        Cn2 
	BYTE	W24
	BYTE		        Cn1 
	BYTE	W24
	BYTE		        Cn2 
	BYTE	W24
	BYTE	PEND
// 013   ----------------------------------------
	BYTE	PATT
	 POIN2	HayesThemeAlt_5_001
// 014   ----------------------------------------
HayesThemeAlt_5_014:
	BYTE		N20     Dn1   v127
	BYTE	W24
	BYTE		        Dn2 
	BYTE	W24
	BYTE		        Dn1 
	BYTE	W24
	BYTE		        Dn2 
	BYTE	W24
	BYTE	PEND
// 015   ----------------------------------------
	BYTE		        An0 
	BYTE	W24
	BYTE		        An1 
	BYTE	W24
	BYTE		        An0 
	BYTE	W24
	BYTE		        An1 
	BYTE	W24
// 016   ----------------------------------------
	BYTE	PATT
	 POIN2	HayesThemeAlt_5_014
// 017   ----------------------------------------
	BYTE	PATT
	 POIN2	HayesThemeAlt_5_012
// 018   ----------------------------------------
	BYTE	PATT
	 POIN2	HayesThemeAlt_5_001
// 019   ----------------------------------------
	BYTE		N20     Fs1   v127
	BYTE	W24
	BYTE		        Fs2 
	BYTE	W24
	BYTE		        Ds1 
	BYTE	W24
	BYTE		        Ds2 
	BYTE	W24
	BYTE	GoTo
	 POIN2	HayesThemeAlt_5_B1
HayesThemeAlt_5_B2:
// 020   ----------------------------------------
	BYTE	FINE

//******************************************************//
	ALIGN 4

HayesThemeAlt:
	BYTE	5	// NumTrks
	BYTE	0	// NumBlks
	BYTE	HayesThemeAlt_pri	// Priority
	BYTE	HayesThemeAlt_rev	// Reverb.

	POIN2	HayesThemeAlt_grp

	POIN2	HayesThemeAlt_1
	POIN2	HayesThemeAlt_2
	POIN2	HayesThemeAlt_3
	POIN2	HayesThemeAlt_4
	POIN2	HayesThemeAlt_5

	
