//Event file generated from Sappy .s format.
	#include "MPlayDef.event"

	#define	TheSerpent_grp  voicegroup000
	#define	TheSerpent_pri  0
	#define	TheSerpent_rev  148
	#define	TheSerpent_mvl  127
	#define	TheSerpent_key  0
	#define	TheSerpent_tbs  1
	#define	TheSerpent_exg  0
	#define	TheSerpent_cmp  1

	// .rodata
	//	TheSerpent
	ALIGN 4


//**************** Track 1 (Midi-Chn.0) ****************//

TheSerpent_001:
//  #01 //000   ----------------------------------------
 BYTE   KEYSH   TheSerpent_key+0
Label_01A560FE:
 BYTE   TEMPO   84*TheSerpent_tbs/2
 BYTE   VOICE   30
 BYTE   MODT 0
 BYTE   LFOS 44
 BYTE   VOL   26*TheSerpent_mvl/mxv
 BYTE   PAN   c_v+0
 BYTE   W96
//  #01 //001   ----------------------------------------
 BYTE   W96
//  #01 //002   ----------------------------------------
 BYTE   W96
//  #01 //003   ----------------------------------------
 BYTE   W72
 BYTE   N06  Gn3  v127
 BYTE   W06
 BYTE   An3
 BYTE   W06
 BYTE   As3
 BYTE   W06
 BYTE   Cn4
 BYTE   W06
//  #01 //004   ----------------------------------------
 BYTE   Dn4
 BYTE   W06
 BYTE   Cn4
 BYTE   W06
 BYTE   N18  As3
 BYTE   W18
 BYTE   N06  Gn3
 BYTE   W06
 BYTE   An3
 BYTE   W06
 BYTE   As3
 BYTE   W06
 BYTE   Cn4
 BYTE   W06
 BYTE   As3
 BYTE   W06
 BYTE   N18  An3
 BYTE   W18
 BYTE   N06  As3
 BYTE   W06
 BYTE   An3
 BYTE   W06
 BYTE   Fn3
 BYTE   W06
//  #01 //005   ----------------------------------------
 BYTE   Ds3
 BYTE   W06
 BYTE   As2
 BYTE   W06
 BYTE   Ds3
 BYTE   W06
 BYTE   Fn3
 BYTE   W06
 BYTE   Gn3
 BYTE   W06
 BYTE   Ds3
 BYTE   W06
 BYTE   Gn3
 BYTE   W06
 BYTE   As3
 BYTE   W06
 BYTE   Cn4
 BYTE   W06
 BYTE   Dn4
 BYTE   W06
 BYTE   Ds4
 BYTE   W06
 BYTE   Dn4
 BYTE   W06
 BYTE   N12  Cn4
 BYTE   W12
 BYTE   As3
 BYTE   W12
//  #01 //006   ----------------------------------------
 BYTE   N06  Cn4
 BYTE   W06
 BYTE   Fn3
 BYTE   W06
 BYTE   N06
 BYTE   W06
 BYTE   An3
 BYTE   W06
 BYTE   Cn3
 BYTE   W06
 BYTE   N06
 BYTE   W06
 BYTE   Cn4
 BYTE   W06
 BYTE   An3
 BYTE   W06
 BYTE   Ds4
 BYTE   W06
 BYTE   Cn4
 BYTE   W06
 BYTE   N06
 BYTE   W06
 BYTE   Fn4
 BYTE   W06
 BYTE   Ds4
 BYTE   W06
 BYTE   N06
 BYTE   W06
 BYTE   An4
 BYTE   W06
 BYTE   Fn4
 BYTE   W06
//  #01 //007   ----------------------------------------
 BYTE   Dn4
 BYTE   W06
 BYTE   As3
 BYTE   W06
 BYTE   Fn3
 BYTE   W06
 BYTE   Dn3
 BYTE   W06
 BYTE   Fn4
 BYTE   W06
 BYTE   As4
 BYTE   W06
 BYTE   An4
 BYTE   W06
 BYTE   Fn4
 BYTE   W06
 BYTE   Dn4
 BYTE   W06
 BYTE   Cn4
 BYTE   W06
 BYTE   An3
 BYTE   W06
 BYTE   Gn3
 BYTE   W06
 BYTE   Fs3
 BYTE   W06
 BYTE   Gn3
 BYTE   W06
 BYTE   An3
 BYTE   W06
 BYTE   Cn4
 BYTE   W06
//  #01 //008   ----------------------------------------
 BYTE   N36  Dn4
 BYTE   W36
 BYTE   N06  Fn4
 BYTE   W06
 BYTE   Ds4
 BYTE   W06
 BYTE   Dn4
 BYTE   W06
 BYTE   Cn4
 BYTE   W06
 BYTE   N18
 BYTE   W18
 BYTE   N06  As3
 BYTE   W06
 BYTE   An3
 BYTE   W06
 BYTE   Fn3
 BYTE   W06
//  #01 //009   ----------------------------------------
 BYTE   Gn3
 BYTE   W06
 BYTE   An3
 BYTE   W06
 BYTE   As3
 BYTE   W06
 BYTE   Ds3
 BYTE   W06
 BYTE   As3
 BYTE   W06
 BYTE   Ds4
 BYTE   W06
 BYTE   Gn4
 BYTE   W06
 BYTE   Gn3
 BYTE   W06
 BYTE   Cn4
 BYTE   W06
 BYTE   Gn3
 BYTE   W06
 BYTE   N06
 BYTE   W06
 BYTE   Ds4
 BYTE   W06
 BYTE   Cn4
 BYTE   W06
 BYTE   N06
 BYTE   W06
 BYTE   Gn4
 BYTE   W06
 BYTE   Ds4
 BYTE   W06
//  #01 //010   ----------------------------------------
 BYTE   N36  An4
 BYTE   W36
 BYTE   N06  As4
 BYTE   W06
 BYTE   Cn5
 BYTE   W06
 BYTE   N24  As4
 BYTE   W24
 BYTE   An4
 BYTE   W18
 BYTE   N06  Gn4
 BYTE   W06
//  #01 //011   ----------------------------------------
 BYTE   N24  Fn4
 BYTE   W24
 BYTE   As4
 BYTE   W24
 BYTE   An4
 BYTE   W24
 BYTE   PAN   c_v+1
 BYTE   N06  Gn4
 BYTE   W01
 BYTE   PAN   c_v+2
 BYTE   W01
 BYTE   PAN   c_v+3
 BYTE   W01
 BYTE   PAN   c_v+5
 BYTE   W01
 BYTE   PAN   c_v+6
 BYTE   W01
 BYTE   PAN   c_v+7
 BYTE   W01
 BYTE   PAN   c_v+9
 BYTE   N06  Fs4  v120
 BYTE   W01
 BYTE   PAN   c_v+10
 BYTE   W01
 BYTE   PAN   c_v+11
 BYTE   W01
 BYTE   PAN   c_v+13
 BYTE   W01
 BYTE   PAN   c_v+14
 BYTE   W01
 BYTE   PAN   c_v+15
 BYTE   W01
 BYTE   PAN   c_v+17
 BYTE   N06  Ds4  v112
 BYTE   W01
 BYTE   PAN   c_v+18
 BYTE   W01
 BYTE   PAN   c_v+19
 BYTE   W01
 BYTE   PAN   c_v+21
 BYTE   W01
 BYTE   PAN   c_v+22
 BYTE   W01
 BYTE   PAN   c_v+23
 BYTE   W01
 BYTE   PAN   c_v+25
 BYTE   N06  Dn4  v108
 BYTE   W01
 BYTE   PAN   c_v+26
 BYTE   W01
 BYTE   PAN   c_v+27
 BYTE   W01
 BYTE   PAN   c_v+29
 BYTE   W01
 BYTE   PAN   c_v+30
 BYTE   W01
 BYTE   PAN   c_v+31
 BYTE   W01
//  #01 //012   ----------------------------------------
 BYTE   PAN   c_v+32
 BYTE   TIE  Gn3  v100
 BYTE   N96  As3
 BYTE   TIE  Ds4
 BYTE   W96
//  #01 //013   ----------------------------------------
 BYTE   Cn4
 BYTE   W96
//  #01 //014   ----------------------------------------
 BYTE   EOT
 BYTE   Gn3  v075
 BYTE   N96  An3
 BYTE   N96  Fn4
 BYTE   W96
//  #01 //015   ----------------------------------------
 BYTE   Gn3
 BYTE   N96  As3
 BYTE   N96  En4
 BYTE   W96
//  #01 //016   ----------------------------------------
 BYTE   EOT
 BYTE   Cn4
 BYTE   N96  An3
 BYTE   N96  Dn4
 BYTE   N96  Fn4
 BYTE   W96
//  #01 //017   ----------------------------------------
 BYTE   TIE  Gn3
 BYTE   N96  As3
 BYTE   TIE  Ds4
 BYTE   W96
//  #01 //018   ----------------------------------------
 BYTE   N96  Cn4
 BYTE   W96
//  #01 //019   ----------------------------------------
 BYTE   EOT
 BYTE   Gn3  v075
 BYTE   N48  Fn3
 BYTE   N48  An3
 BYTE   N48  Cn4
 BYTE   W48
 BYTE   N42  Cn3
 BYTE   N42  Fs3
 BYTE   N42  An3
 BYTE   N42  Dn4
 BYTE   W48
//  #01 //020   ----------------------------------------
 BYTE   GoTo
  POIN2 Label_01A560FE
//  #01 //021   ----------------------------------------
 BYTE   PAN   c_v+0
 BYTE   FINE

//**************** Track 2 (Midi-Chn.1) ****************//

TheSerpent_002:
//  #02 //000   ----------------------------------------
 BYTE   KEYSH   TheSerpent_key+0
Label_019BAE76:
 BYTE   VOICE   50
 BYTE   MODT 0
 BYTE   LFOS 44
 BYTE   VOL   26*TheSerpent_mvl/mxv
 BYTE   PAN   c_v+32
 BYTE   W96
//  #02 //001   ----------------------------------------
 BYTE   W96
//  #02 //002   ----------------------------------------
 BYTE   TIE  Gn4  v100
 BYTE   W48
 BYTE   Dn4
 BYTE   W48
//  #02 //003   ----------------------------------------
 BYTE   As3
 BYTE   W48
 BYTE   N96  Gn3
 BYTE   W48
//  #02 //004   ----------------------------------------
 BYTE   EOT
 BYTE   Dn4  v079
 BYTE   N48  Dn3
 BYTE   W48
 BYTE   EOT
 BYTE   As3
 BYTE   N48  Cn3
 BYTE   N48  Fn3
 BYTE   N48  An3
 BYTE   W48
//  #02 //005   ----------------------------------------
Label_019BAE9C:
 BYTE   N96  Ds3  v100
 BYTE   N96  Gn3
 BYTE   N48  As3
 BYTE   W48
 BYTE   TIE  Cn4
 BYTE   W48
 BYTE   PEND 
//  #02 //006   ----------------------------------------
Label_019BAEA8:
 BYTE   N48  Fn3  v100
 BYTE   N96  An3
 BYTE   W48
 BYTE   N48  Ds3
 BYTE   W48
 BYTE   PEND 
//  #02 //007   ----------------------------------------
 BYTE   EOT
 BYTE   Cn4
 BYTE   N48  Fn3
 BYTE   N48  As3
 BYTE   N48  Dn4
 BYTE   W48
 BYTE   Dn3
 BYTE   N48  Fs3
 BYTE   N48  An3
 BYTE   N48  Cn4
 BYTE   W48
//  #02 //008   ----------------------------------------
 BYTE   Dn3
 BYTE   N48  Gn3
 BYTE   N48  As3
 BYTE   W48
 BYTE   Cn3
 BYTE   N48  Fn3
 BYTE   N48  An3
 BYTE   W48
//  #02 //009   ----------------------------------------
 BYTE   PATT
  POIN2 Label_019BAE9C
//  #02 //010   ----------------------------------------
 BYTE   PATT
  POIN2 Label_019BAEA8
//  #02 //011   ----------------------------------------
 BYTE   EOT
 BYTE   Cn4
 BYTE   N48  Fn3  v100
 BYTE   N48  As3
 BYTE   N48  Dn4
 BYTE   W48
 BYTE   PAN   c_v+32
 BYTE   N42  Dn3
 BYTE   N42  Fs3
 BYTE   N42  An3
 BYTE   N42  Cn4
 BYTE   W01
 BYTE   PAN   c_v+31
 BYTE   W02
 BYTE   PAN   c_v+30
 BYTE   W01
 BYTE   PAN   c_v+29
 BYTE   W02
 BYTE   PAN   c_v+28
 BYTE   W01
 BYTE   PAN   c_v+27
 BYTE   W02
 BYTE   PAN   c_v+26
 BYTE   W01
 BYTE   PAN   c_v+25
 BYTE   W02
 BYTE   PAN   c_v+24
 BYTE   W01
 BYTE   PAN   c_v+23
 BYTE   W02
 BYTE   PAN   c_v+22
 BYTE   W01
 BYTE   PAN   c_v+21
 BYTE   W02
 BYTE   PAN   c_v+20
 BYTE   W01
 BYTE   PAN   c_v+19
 BYTE   W02
 BYTE   PAN   c_v+18
 BYTE   W01
 BYTE   PAN   c_v+17
 BYTE   W02
 BYTE   PAN   c_v+16
 BYTE   W01
 BYTE   PAN   c_v+15
 BYTE   W02
 BYTE   PAN   c_v+14
 BYTE   W01
 BYTE   PAN   c_v+13
 BYTE   W02
 BYTE   PAN   c_v+12
 BYTE   W01
 BYTE   PAN   c_v+11
 BYTE   W02
 BYTE   PAN   c_v+10
 BYTE   W01
 BYTE   PAN   c_v+9
 BYTE   W02
 BYTE   PAN   c_v+8
 BYTE   W01
 BYTE   PAN   c_v+7
 BYTE   W02
 BYTE   PAN   c_v+6
 BYTE   W01
 BYTE   PAN   c_v+5
 BYTE   W02
 BYTE   PAN   c_v+4
 BYTE   W01
 BYTE   PAN   c_v+3
 BYTE   W02
 BYTE   PAN   c_v+2
 BYTE   W01
 BYTE   PAN   c_v+1
 BYTE   W02
//  #02 //012   ----------------------------------------
 BYTE   PAN   c_v+0
 BYTE   N24  As3  v127
 BYTE   W24
 BYTE   Dn4
 BYTE   W24
 BYTE   Cn4
 BYTE   W24
 BYTE   As3
 BYTE   W24
//  #02 //013   ----------------------------------------
 BYTE   Ds4
 BYTE   W24
 BYTE   Dn4
 BYTE   W24
 BYTE   Cn4
 BYTE   W24
 BYTE   As3
 BYTE   W24
//  #02 //014   ----------------------------------------
 BYTE   Fn4
 BYTE   W24
 BYTE   An4
 BYTE   W24
 BYTE   Gn4
 BYTE   W24
 BYTE   Fn4
 BYTE   W24
//  #02 //015   ----------------------------------------
 BYTE   En4
 BYTE   W24
 BYTE   Fn4
 BYTE   W24
 BYTE   Gn4
 BYTE   W24
 BYTE   En4
 BYTE   W24
//  #02 //016   ----------------------------------------
 BYTE   Dn4
 BYTE   W24
 BYTE   Cn4
 BYTE   W24
 BYTE   N48  An3
 BYTE   W48
//  #02 //017   ----------------------------------------
 BYTE   N24  As3
 BYTE   W24
 BYTE   An3
 BYTE   W24
 BYTE   N48  Gn3
 BYTE   W48
//  #02 //018   ----------------------------------------
 BYTE   N06  Cn4
 BYTE   W06
 BYTE   Gn3
 BYTE   W06
 BYTE   N06
 BYTE   W06
 BYTE   Ds4
 BYTE   W06
 BYTE   Cn4
 BYTE   W06
 BYTE   N06
 BYTE   W06
 BYTE   Gn4
 BYTE   W06
 BYTE   Ds4
 BYTE   W06
 BYTE   N06
 BYTE   W06
 BYTE   Cn5
 BYTE   W06
 BYTE   Gn4
 BYTE   W06
 BYTE   N06
 BYTE   W06
 BYTE   Ds4
 BYTE   W06
 BYTE   Cn4
 BYTE   W06
 BYTE   Gn3
 BYTE   W06
 BYTE   Ds3
 BYTE   W06
//  #02 //019   ----------------------------------------
 BYTE   An3
 BYTE   W06
 BYTE   Fn3
 BYTE   W06
 BYTE   N06
 BYTE   W06
 BYTE   Cn4
 BYTE   W06
 BYTE   An3
 BYTE   W06
 BYTE   N06
 BYTE   W06
 BYTE   Fn4
 BYTE   W06
 BYTE   Cn4
 BYTE   W06
 BYTE   An4
 BYTE   W06
 BYTE   Fs4
 BYTE   W06
 BYTE   N06
 BYTE   W06
 BYTE   Dn4
 BYTE   W06
 BYTE   Cn4
 BYTE   W06
 BYTE   N06
 BYTE   W06
 BYTE   An3
 BYTE   W06
 BYTE   N05  Fs3
 BYTE   W06
//  #02 //020   ----------------------------------------
 BYTE   GoTo
  POIN2 Label_019BAE76
//  #02 //021   ----------------------------------------
 BYTE   PAN   c_v+32
 BYTE   FINE

//**************** Track 3 (Midi-Chn.2) ****************//

TheSerpent_003:
//  #03 //000   ----------------------------------------
 BYTE   KEYSH   TheSerpent_key+0
Label_01A55B96:
 BYTE   VOICE   127
 BYTE   MODT 0
 BYTE   LFOS 44
 BYTE   VOL   26*TheSerpent_mvl/mxv
 BYTE   PAN   c_v+0
 BYTE   N11  Bn0  v127
 BYTE   N11  Cn1
 BYTE   N11  Fs1
 BYTE   N11  Bn2
 BYTE   W12
 BYTE   As1
 BYTE   N11  Bn2
 BYTE   W12
 BYTE   Dn1
 BYTE   N11  En1
 BYTE   N11  Fs1
 BYTE   N11  Bn1
 BYTE   N11  Cn2
 BYTE   N11  Dn2
 BYTE   N11  Bn2
 BYTE   W12
 BYTE   N05  As1
 BYTE   N05  Bn2
 BYTE   W06
 BYTE   Bn0
 BYTE   N05  Cn1
 BYTE   W06
 BYTE   N11  Bn0
 BYTE   N11  Cn1
 BYTE   N11  Fs1
 BYTE   N11  Bn2
 BYTE   W12
 BYTE   Bn0
 BYTE   N11  Cn1
 BYTE   N11  As1
 BYTE   N11  Bn2
 BYTE   W12
 BYTE   Dn1
 BYTE   N11  En1
 BYTE   N11  Fs1
 BYTE   N11  Bn1
 BYTE   N11  Cn2
 BYTE   N11  Dn2
 BYTE   N11  Bn2
 BYTE   W12
 BYTE   As1
 BYTE   N11  Bn2
 BYTE   W12
//  #03 //001   ----------------------------------------
Label_01A55BE8:
 BYTE   N11  Bn0  v127
 BYTE   N11  Cn1
 BYTE   N11  Fs1
 BYTE   N11  Bn2
 BYTE   W12
 BYTE   As1
 BYTE   N11  Bn2
 BYTE   W12
 BYTE   Dn1
 BYTE   N11  En1
 BYTE   N11  Fs1
 BYTE   N11  Bn1
 BYTE   N11  Cn2
 BYTE   N11  Dn2
 BYTE   N11  Bn2
 BYTE   W12
 BYTE   N05  As1
 BYTE   N05  Bn2
 BYTE   W06
 BYTE   Bn0
 BYTE   N05  Cn1
 BYTE   W06
 BYTE   N11  Bn0
 BYTE   N11  Cn1
 BYTE   N11  Fs1
 BYTE   N11  Bn2
 BYTE   W12
 BYTE   Bn0
 BYTE   N11  Cn1
 BYTE   N11  As1
 BYTE   N11  Bn2
 BYTE   W12
 BYTE   Dn1
 BYTE   N11  En1
 BYTE   N11  Fs1
 BYTE   N11  Bn1
 BYTE   N11  Cn2
 BYTE   N11  Dn2
 BYTE   N11  Bn2
 BYTE   W12
 BYTE   As1
 BYTE   N11  Bn2
 BYTE   W12
 BYTE   PEND 
//  #03 //002   ----------------------------------------
 BYTE   PATT
  POIN2 Label_01A55BE8
//  #03 //003   ----------------------------------------
Label_01A55C36:
 BYTE   N11  Bn0  v127
 BYTE   N11  Cn1
 BYTE   N11  Fs1
 BYTE   N11  Bn2
 BYTE   W12
 BYTE   As1
 BYTE   N11  Bn2
 BYTE   W12
 BYTE   Dn1
 BYTE   N11  En1
 BYTE   N11  Fs1
 BYTE   N11  Bn1
 BYTE   N11  Cn2
 BYTE   N11  Dn2
 BYTE   N11  Bn2
 BYTE   W12
 BYTE   N05  As1
 BYTE   N05  Bn2
 BYTE   W06
 BYTE   Bn0
 BYTE   N05  Cn1
 BYTE   W06
 BYTE   N11  Bn0
 BYTE   N11  Cn1
 BYTE   N11  Fs1
 BYTE   N11  Bn2
 BYTE   W12
 BYTE   Bn0
 BYTE   N11  Cn1
 BYTE   N11  As1
 BYTE   N11  Bn2
 BYTE   W12
 BYTE   Dn1
 BYTE   N11  En1
 BYTE   N11  Fs1
 BYTE   N11  Bn1
 BYTE   N11  Cn2
 BYTE   N11  Dn2
 BYTE   N11  Bn2
 BYTE   W12
 BYTE   N05  Bn0
 BYTE   N05  Cn1
 BYTE   N05  Dn1
 BYTE   N05  En1
 BYTE   N05  Fs1
 BYTE   N05  Bn1
 BYTE   N05  Cn2
 BYTE   N05  Dn2
 BYTE   N05  Bn2
 BYTE   W06
 BYTE   Bn0
 BYTE   N05  Cn1
 BYTE   N05  Dn1
 BYTE   N05  En1
 BYTE   N05  Fs1
 BYTE   N05  Bn1
 BYTE   N05  Cn2
 BYTE   N05  Dn2
 BYTE   N05  Bn2
 BYTE   W06
 BYTE   PEND 
//  #03 //004   ----------------------------------------
Label_01A55CA0:
 BYTE   N11  Bn0  v127
 BYTE   N11  Cn1
 BYTE   N11  Fs1
 BYTE   N11  An2
 BYTE   N11  Bn2
 BYTE   W12
 BYTE   As1
 BYTE   N11  Bn2
 BYTE   W12
 BYTE   Dn1
 BYTE   N11  En1
 BYTE   N11  Fs1
 BYTE   N11  Bn1
 BYTE   N11  Cn2
 BYTE   N11  Dn2
 BYTE   N11  Bn2
 BYTE   W12
 BYTE   N05  As1
 BYTE   N05  Bn2
 BYTE   W06
 BYTE   Bn0
 BYTE   N05  Cn1
 BYTE   W06
 BYTE   N11  Bn0
 BYTE   N11  Cn1
 BYTE   N11  Fs1
 BYTE   N11  Bn2
 BYTE   W12
 BYTE   Bn0
 BYTE   N11  Cn1
 BYTE   N11  As1
 BYTE   N11  Bn2
 BYTE   W12
 BYTE   Dn1
 BYTE   N11  En1
 BYTE   N11  Fs1
 BYTE   N11  Bn1
 BYTE   N11  Cn2
 BYTE   N11  Dn2
 BYTE   N11  Bn2
 BYTE   W12
 BYTE   As1
 BYTE   N11  Bn2
 BYTE   W12
 BYTE   PEND 
//  #03 //005   ----------------------------------------
 BYTE   PATT
  POIN2 Label_01A55BE8
//  #03 //006   ----------------------------------------
 BYTE   PATT
  POIN2 Label_01A55BE8
//  #03 //007   ----------------------------------------
 BYTE   PATT
  POIN2 Label_01A55C36
//  #03 //008   ----------------------------------------
 BYTE   PATT
  POIN2 Label_01A55CA0
//  #03 //009   ----------------------------------------
 BYTE   PATT
  POIN2 Label_01A55BE8
//  #03 //010   ----------------------------------------
 BYTE   PATT
  POIN2 Label_01A55BE8
//  #03 //011   ----------------------------------------
 BYTE   PATT
  POIN2 Label_01A55C36
//  #03 //012   ----------------------------------------
 BYTE   PATT
  POIN2 Label_01A55CA0
//  #03 //013   ----------------------------------------
 BYTE   PATT
  POIN2 Label_01A55BE8
//  #03 //014   ----------------------------------------
 BYTE   PATT
  POIN2 Label_01A55BE8
//  #03 //015   ----------------------------------------
 BYTE   PATT
  POIN2 Label_01A55C36
//  #03 //016   ----------------------------------------
 BYTE   PATT
  POIN2 Label_01A55CA0
//  #03 //017   ----------------------------------------
 BYTE   PATT
  POIN2 Label_01A55BE8
//  #03 //018   ----------------------------------------
 BYTE   PATT
  POIN2 Label_01A55BE8
//  #03 //019   ----------------------------------------
 BYTE   PATT
  POIN2 Label_01A55C36
//  #03 //020   ----------------------------------------
 BYTE   GoTo
  POIN2 Label_01A55B96
 BYTE   FINE

//**************** Track 4 (Midi-Chn.3) ****************//

TheSerpent_004:
//  #04 //000   ----------------------------------------
 BYTE   KEYSH   TheSerpent_key+0
Label_01A5636A:
 BYTE   VOICE   30
 BYTE   MODT 0
 BYTE   LFOS 44
 BYTE   VOL   26*TheSerpent_mvl/mxv
 BYTE   PAN   c_v-32
 BYTE   N11  Gn1  v100
 BYTE   W12
 BYTE   N11
 BYTE   W12
 BYTE   Gn2
 BYTE   W12
 BYTE   Gn1
 BYTE   W12
 BYTE   N11
 BYTE   W12
 BYTE   N05
 BYTE   W06
 BYTE   N05
 BYTE   W06
 BYTE   Dn2
 BYTE   N05  Gn2
 BYTE   N05  As2
 BYTE   W06
 BYTE   N17  Ds2
 BYTE   N17  An2
 BYTE   N17  Cn3
 BYTE   W18
//  #04 //001   ----------------------------------------
Label_01A56391:
 BYTE   N11  Gn1  v100
 BYTE   W12
 BYTE   N11
 BYTE   W12
 BYTE   Gn2
 BYTE   W12
 BYTE   Gn1
 BYTE   W12
 BYTE   N11
 BYTE   W12
 BYTE   N05
 BYTE   W06
 BYTE   N05
 BYTE   W06
 BYTE   Dn2
 BYTE   N05  Gn2
 BYTE   N05  As2
 BYTE   W06
 BYTE   N17  Ds2
 BYTE   N17  An2
 BYTE   N17  Cn3
 BYTE   W18
 BYTE   PEND 
//  #04 //002   ----------------------------------------
 BYTE   PATT
  POIN2 Label_01A56391
//  #04 //003   ----------------------------------------
 BYTE   PATT
  POIN2 Label_01A56391
//  #04 //004   ----------------------------------------
Label_01A563B9:
 BYTE   N04  Gn1  v100
 BYTE   W12
 BYTE   N04
 BYTE   W06
 BYTE   N04
 BYTE   W06
 BYTE   N11
 BYTE   N11  As1
 BYTE   N11  Dn2
 BYTE   W12
 BYTE   N04  Gn1
 BYTE   W06
 BYTE   N04
 BYTE   W06
 BYTE   Fn1
 BYTE   W12
 BYTE   N04
 BYTE   W06
 BYTE   N04
 BYTE   W06
 BYTE   N11
 BYTE   N11  An1
 BYTE   N11  Cn2
 BYTE   W12
 BYTE   N04  Fn1
 BYTE   W06
 BYTE   N04
 BYTE   W06
 BYTE   PEND 
//  #04 //005   ----------------------------------------
Label_01A563DE:
 BYTE   N04  Ds1  v100
 BYTE   W12
 BYTE   N04
 BYTE   W06
 BYTE   N04
 BYTE   W06
 BYTE   N11
 BYTE   N11  Gn1
 BYTE   N11  As1
 BYTE   W12
 BYTE   N04  Ds1
 BYTE   W06
 BYTE   N04
 BYTE   W06
 BYTE   Cn2
 BYTE   W12
 BYTE   N04
 BYTE   W06
 BYTE   N04
 BYTE   W06
 BYTE   N11
 BYTE   N11  Ds2
 BYTE   N11  Gn2
 BYTE   W12
 BYTE   N04  Cn2
 BYTE   W06
 BYTE   N04
 BYTE   W06
 BYTE   PEND 
//  #04 //006   ----------------------------------------
Label_01A56403:
 BYTE   N04  Fn1  v100
 BYTE   W12
 BYTE   N04
 BYTE   W06
 BYTE   N04
 BYTE   W06
 BYTE   N11
 BYTE   N11  An1
 BYTE   N11  Cn2
 BYTE   W12
 BYTE   N04  Fn1
 BYTE   W06
 BYTE   N04
 BYTE   W06
 BYTE   Ds1
 BYTE   W12
 BYTE   N04
 BYTE   W06
 BYTE   N04
 BYTE   W06
 BYTE   N11
 BYTE   N11  An1
 BYTE   N11  Cn2
 BYTE   W12
 BYTE   N04  Ds1
 BYTE   W06
 BYTE   N04
 BYTE   W06
 BYTE   PEND 
//  #04 //007   ----------------------------------------
Label_01A56428:
 BYTE   N04  As1  v100
 BYTE   W12
 BYTE   N04
 BYTE   W06
 BYTE   N04
 BYTE   W06
 BYTE   N11
 BYTE   N11  Dn2
 BYTE   N11  Fn2
 BYTE   W12
 BYTE   N04  As1
 BYTE   W06
 BYTE   N04
 BYTE   W06
 BYTE   An1
 BYTE   W12
 BYTE   N04
 BYTE   W06
 BYTE   N04
 BYTE   W06
 BYTE   N11
 BYTE   N11  Cn2
 BYTE   N11  Dn2
 BYTE   N11  Fs2
 BYTE   W12
 BYTE   N04  An1
 BYTE   W06
 BYTE   N04
 BYTE   W06
 BYTE   PEND 
//  #04 //008   ----------------------------------------
 BYTE   PATT
  POIN2 Label_01A563B9
//  #04 //009   ----------------------------------------
 BYTE   PATT
  POIN2 Label_01A563DE
//  #04 //010   ----------------------------------------
 BYTE   PATT
  POIN2 Label_01A56403
//  #04 //011   ----------------------------------------
 BYTE   PATT
  POIN2 Label_01A56428
//  #04 //012   ----------------------------------------
Label_01A56463:
 BYTE   N11  Gn1  v100
 BYTE   N11  As1
 BYTE   N11  Ds2
 BYTE   W12
 BYTE   N04  Gn1
 BYTE   W06
 BYTE   N04
 BYTE   W06
 BYTE   N11
 BYTE   N11  As1
 BYTE   N11  Ds2
 BYTE   W12
 BYTE   N04  Gn1
 BYTE   W06
 BYTE   N04
 BYTE   W06
 BYTE   N11
 BYTE   N11  As1
 BYTE   N11  Ds2
 BYTE   W12
 BYTE   N04  Gn1
 BYTE   W06
 BYTE   N04
 BYTE   W06
 BYTE   N11
 BYTE   N11  As1
 BYTE   N11  Ds2
 BYTE   W12
 BYTE   N04  Gn1
 BYTE   W06
 BYTE   N04
 BYTE   W06
 BYTE   PEND 
//  #04 //013   ----------------------------------------
Label_01A56492:
 BYTE   N11  Gn1  v100
 BYTE   N11  Cn2
 BYTE   N11  Ds2
 BYTE   W12
 BYTE   N04  Gn1
 BYTE   W06
 BYTE   N04
 BYTE   W06
 BYTE   N11
 BYTE   N11  Cn2
 BYTE   N11  Ds2
 BYTE   W12
 BYTE   N04  Gn1
 BYTE   W06
 BYTE   N04
 BYTE   W06
 BYTE   N11
 BYTE   N11  Cn2
 BYTE   N11  Ds2
 BYTE   W12
 BYTE   N04  Gn1
 BYTE   W06
 BYTE   N04
 BYTE   W06
 BYTE   N11
 BYTE   N11  Cn2
 BYTE   N11  Ds2
 BYTE   W12
 BYTE   N04  Gn1
 BYTE   W06
 BYTE   N04
 BYTE   W06
 BYTE   PEND 
//  #04 //014   ----------------------------------------
 BYTE   N11  Fn1
 BYTE   N11  An1
 BYTE   N11  Cn2
 BYTE   W12
 BYTE   N04  Fn1
 BYTE   W06
 BYTE   N04
 BYTE   W06
 BYTE   N11
 BYTE   N11  An1
 BYTE   N11  Cn2
 BYTE   W12
 BYTE   N04  Fn1
 BYTE   W06
 BYTE   N04
 BYTE   W06
 BYTE   N11
 BYTE   N11  An1
 BYTE   N11  Cn2
 BYTE   W12
 BYTE   N04  Fn1
 BYTE   W06
 BYTE   N04
 BYTE   W06
 BYTE   N11
 BYTE   N11  An1
 BYTE   N11  Cn2
 BYTE   W12
 BYTE   N04  Fn1
 BYTE   W06
 BYTE   N04
 BYTE   W06
//  #04 //015   ----------------------------------------
 BYTE   N11  En1
 BYTE   N11  Gn1
 BYTE   N11  As1
 BYTE   N11  Cn2
 BYTE   W12
 BYTE   N04  En1
 BYTE   W06
 BYTE   N04
 BYTE   W06
 BYTE   N11
 BYTE   N11  Gn1
 BYTE   N11  As1
 BYTE   N11  Cn2
 BYTE   W12
 BYTE   N04  En1
 BYTE   W06
 BYTE   N04
 BYTE   W06
 BYTE   N11
 BYTE   N11  Gn1
 BYTE   N11  As1
 BYTE   N11  Cn2
 BYTE   W12
 BYTE   N04  En1
 BYTE   W06
 BYTE   N04
 BYTE   W06
 BYTE   N11
 BYTE   N11  Gn1
 BYTE   N11  As1
 BYTE   N11  Cn2
 BYTE   W12
 BYTE   N04  En1
 BYTE   W06
 BYTE   N04
 BYTE   W06
//  #04 //016   ----------------------------------------
 BYTE   N11  Fn1
 BYTE   N11  An1
 BYTE   N11  Dn2
 BYTE   W12
 BYTE   N04  Fn1
 BYTE   W06
 BYTE   N04
 BYTE   W06
 BYTE   N11
 BYTE   N11  An1
 BYTE   N11  Dn2
 BYTE   W12
 BYTE   N04  Fn1
 BYTE   W06
 BYTE   N04
 BYTE   W06
 BYTE   N11
 BYTE   N11  An1
 BYTE   N11  Dn2
 BYTE   W12
 BYTE   N04  Fn1
 BYTE   W06
 BYTE   N04
 BYTE   W06
 BYTE   N11
 BYTE   N11  An1
 BYTE   N11  Dn2
 BYTE   W12
 BYTE   N04  Fn1
 BYTE   W06
 BYTE   N04
 BYTE   W06
//  #04 //017   ----------------------------------------
 BYTE   PATT
  POIN2 Label_01A56463
//  #04 //018   ----------------------------------------
 BYTE   PATT
  POIN2 Label_01A56492
//  #04 //019   ----------------------------------------
 BYTE   N11  Fn1  v100
 BYTE   N11  An1
 BYTE   N11  Cn2
 BYTE   W12
 BYTE   N04  Fn1
 BYTE   W06
 BYTE   N04
 BYTE   W06
 BYTE   N11
 BYTE   N11  An1
 BYTE   N11  Cn2
 BYTE   W12
 BYTE   N04  Fn1
 BYTE   W06
 BYTE   N04
 BYTE   W06
 BYTE   N11  Fs1
 BYTE   N11  An1
 BYTE   N11  Cn2
 BYTE   N11  Dn2
 BYTE   W12
 BYTE   N04  Fs1
 BYTE   W06
 BYTE   N04
 BYTE   W06
 BYTE   N11
 BYTE   N11  An1
 BYTE   N11  Cn2
 BYTE   N11  Dn2
 BYTE   W12
 BYTE   N04  Fs1
 BYTE   W06
 BYTE   N04
 BYTE   W06
//  #04 //020   ----------------------------------------
 BYTE   GoTo
  POIN2 Label_01A5636A
 BYTE   FINE

//**************** Track 5 (Midi-Chn.4) ****************//

TheSerpent_005:
//  #05 //000   ----------------------------------------
 BYTE   KEYSH   TheSerpent_key+0
Label_019BABA6:
 BYTE   VOICE   36
 BYTE   MODT 0
 BYTE   LFOS 44
 BYTE   VOL   26*TheSerpent_mvl/mxv
 BYTE   PAN   c_v+0
 BYTE   N20  Gn1  v127
 BYTE   W24
 BYTE   Gn2
 BYTE   W24
 BYTE   Gn1
 BYTE   W24
 BYTE   Gn2
 BYTE   W24
//  #05 //001   ----------------------------------------
Label_019BABBA:
 BYTE   N20  Gn1  v127
 BYTE   W24
 BYTE   Gn2
 BYTE   W24
 BYTE   Gn1
 BYTE   W24
 BYTE   Gn2
 BYTE   W24
 BYTE   PEND 
//  #05 //002   ----------------------------------------
 BYTE   PATT
  POIN2 Label_019BABBA
//  #05 //003   ----------------------------------------
 BYTE   PATT
  POIN2 Label_019BABBA
//  #05 //004   ----------------------------------------
Label_019BABCF:
 BYTE   N20  Gn1  v127
 BYTE   W24
 BYTE   Gn2
 BYTE   W24
 BYTE   Fn1
 BYTE   W24
 BYTE   Fn2
 BYTE   W24
 BYTE   PEND 
//  #05 //005   ----------------------------------------
Label_019BABDA:
 BYTE   N20  Ds1  v127
 BYTE   W24
 BYTE   Ds2
 BYTE   W24
 BYTE   Cn1
 BYTE   W24
 BYTE   Cn2
 BYTE   W24
 BYTE   PEND 
//  #05 //006   ----------------------------------------
Label_019BABE5:
 BYTE   N20  An1  v127
 BYTE   W24
 BYTE   An2
 BYTE   W24
 BYTE   Fn1
 BYTE   W24
 BYTE   Fn2
 BYTE   W24
 BYTE   PEND 
//  #05 //007   ----------------------------------------
Label_019BABF0:
 BYTE   N20  As1  v127
 BYTE   W24
 BYTE   As2
 BYTE   W24
 BYTE   Fs1
 BYTE   W24
 BYTE   Fs2
 BYTE   W24
 BYTE   PEND 
//  #05 //008   ----------------------------------------
 BYTE   PATT
  POIN2 Label_019BABCF
//  #05 //009   ----------------------------------------
 BYTE   PATT
  POIN2 Label_019BABDA
//  #05 //010   ----------------------------------------
 BYTE   PATT
  POIN2 Label_019BABE5
//  #05 //011   ----------------------------------------
 BYTE   PATT
  POIN2 Label_019BABF0
//  #05 //012   ----------------------------------------
Label_019BAC0F:
 BYTE   N20  Ds1  v127
 BYTE   W24
 BYTE   Ds2
 BYTE   W24
 BYTE   Ds1
 BYTE   W24
 BYTE   Ds2
 BYTE   W24
 BYTE   PEND 
//  #05 //013   ----------------------------------------
 BYTE   PATT
  POIN2 Label_019BABBA
//  #05 //014   ----------------------------------------
Label_019BAC1F:
 BYTE   N20  Fn1  v127
 BYTE   W24
 BYTE   Fn2
 BYTE   W24
 BYTE   Fn1
 BYTE   W24
 BYTE   Fn2
 BYTE   W24
 BYTE   PEND 
//  #05 //015   ----------------------------------------
 BYTE   Cn1
 BYTE   W24
 BYTE   Cn2
 BYTE   W24
 BYTE   Cn1
 BYTE   W24
 BYTE   Cn2
 BYTE   W24
//  #05 //016   ----------------------------------------
 BYTE   PATT
  POIN2 Label_019BAC1F
//  #05 //017   ----------------------------------------
 BYTE   PATT
  POIN2 Label_019BAC0F
//  #05 //018   ----------------------------------------
 BYTE   PATT
  POIN2 Label_019BABBA
//  #05 //019   ----------------------------------------
 BYTE   N20  An1  v127
 BYTE   W24
 BYTE   An2
 BYTE   W24
 BYTE   Fs1
 BYTE   W24
 BYTE   Fs2
 BYTE   W24
//  #05 //020   ----------------------------------------
 BYTE   GoTo
  POIN2 Label_019BABA6
 BYTE   FINE

//******************************************************//
	ALIGN 4

TheSerpent:
	BYTE	5	// NumTrks
	BYTE	0	// NumBlks
	BYTE	TheSerpent_pri	// Priority
	BYTE	TheSerpent_rev	// Reverb.
    
	POIN2	TheSerpent_grp
    
	POIN2	TheSerpent_001
	POIN2	TheSerpent_002
	POIN2	TheSerpent_003
	POIN2	TheSerpent_004
	POIN2	TheSerpent_005

	
