//Event file generated from Sappy .s format.
	#include "MPlayDef.event"

	#define	SerpentsFangs_grp  voicegroup000
	#define	SerpentsFangs_pri  0
	#define	SerpentsFangs_rev  176
	#define	SerpentsFangs_mvl  32
	#define	SerpentsFangs_key  0
	#define	SerpentsFangs_tbs  1
	#define	SerpentsFangs_exg  0
	#define	SerpentsFangs_cmp  1

	// .rodata
	//	SerpentsFangs
	ALIGN 4

//**************** Track 1 (Midi-Chn.1) ****************//

SerpentsFangs_1:
	BYTE	KEYSH   SerpentsFangs_key+0
SerpentsFangs_1_B1:
// 000   ----------------------------------------
	BYTE	TEMPO   155*SerpentsFangs_tbs/2
	BYTE		VOICE   30
	BYTE		MODT    0
	BYTE		LFOS    44
	BYTE		PAN     c_v-13
	BYTE		VOL     68*SerpentsFangs_mvl/mxv
	BYTE	W96
// 001   ----------------------------------------
	BYTE	W96
// 002   ----------------------------------------
	BYTE	W96
// 003   ----------------------------------------
	BYTE	W72
	BYTE		N08     Gn3   v127
	BYTE	W08
	BYTE		        As3 
	BYTE	W08
	BYTE		        Cn4 
	BYTE	W08
// 004   ----------------------------------------
	BYTE		        Dn4 
	BYTE	W08
	BYTE		        Cn4 
	BYTE	W08
	BYTE		        As3 
	BYTE	W08
	BYTE		        Gn3 
	BYTE	W08
	BYTE		        An3 
	BYTE	W08
	BYTE		        As3 
	BYTE	W08
	BYTE		        Cn4 
	BYTE	W08
	BYTE		        As3 
	BYTE	W08
	BYTE		        An3 
	BYTE	W08
	BYTE		        As3 
	BYTE	W08
	BYTE		        An3 
	BYTE	W08
	BYTE		        Fn3 
	BYTE	W08
// 005   ----------------------------------------
	BYTE		        Ds3 
	BYTE	W08
	BYTE		        As2 
	BYTE	W08
	BYTE		        Ds3 
	BYTE	W08
	BYTE		        Gn3 
	BYTE	W08
	BYTE		        As3 
	BYTE	W08
	BYTE		        Cn4 
	BYTE	W08
	BYTE		        Dn4 
	BYTE	W08
	BYTE		        Ds4 
	BYTE	W08
	BYTE		        Dn4 
	BYTE	W08
	BYTE		N16     Cn4 
	BYTE	W16
	BYTE		N08     As3 
	BYTE	W08
// 006   ----------------------------------------
	BYTE		        Cn4 
	BYTE	W08
	BYTE		        Fn3 
	BYTE	W08
	BYTE		        An3 
	BYTE	W08
	BYTE		        Cn3 
	BYTE	W08
	BYTE		        Cn4 
	BYTE	W08
	BYTE		        An3 
	BYTE	W08
	BYTE		        Ds4 
	BYTE	W08
	BYTE		        Cn4 
	BYTE	W08
	BYTE		        Fn4 
	BYTE	W08
	BYTE		        Ds4 
	BYTE	W08
	BYTE		        An4 
	BYTE	W08
	BYTE		        Fn4 
	BYTE	W08
// 007   ----------------------------------------
	BYTE		        Dn4 
	BYTE	W08
	BYTE		        As3 
	BYTE	W08
	BYTE		        Fn3 
	BYTE	W08
	BYTE		        Fn4 
	BYTE	W08
	BYTE		        As4 
	BYTE	W08
	BYTE		        An4 
	BYTE	W08
	BYTE		        Dn4 
	BYTE	W08
	BYTE		        Cn4 
	BYTE	W08
	BYTE		        An3 
	BYTE	W08
	BYTE		        Fs3 
	BYTE	W08
	BYTE		        An3 
	BYTE	W08
	BYTE		        Cn4 
	BYTE	W08
// 008   ----------------------------------------
	BYTE		N24     Dn4 
	BYTE	W24
	BYTE		N08     As3 
	BYTE	W08
	BYTE		        Cn4 
	BYTE	W08
	BYTE		        Dn4 
	BYTE	W08
	BYTE		        Fn4 
	BYTE	W08
	BYTE		        Dn4 
	BYTE	W08
	BYTE		        Cn4 
	BYTE	W08
	BYTE		        As3 
	BYTE	W08
	BYTE		        An3 
	BYTE	W08
	BYTE		        Fn3 
	BYTE	W08
// 009   ----------------------------------------
	BYTE		        Gn3 
	BYTE	W08
	BYTE		        An3 
	BYTE	W08
	BYTE		        As3 
	BYTE	W08
	BYTE		N08   
	BYTE	W08
	BYTE		        Ds4 
	BYTE	W08
	BYTE		        Gn4 
	BYTE	W08
	BYTE		        Gn3 
	BYTE	W08
	BYTE		        Cn4 
	BYTE	W08
	BYTE		        Gn3 
	BYTE	W08
	BYTE		        Ds4 
	BYTE	W08
	BYTE		        Cn4 
	BYTE	W08
	BYTE		        Gn4 
	BYTE	W08
// 010   ----------------------------------------
	BYTE		N24     An4 
	BYTE	W24
	BYTE		N16     As4 
	BYTE	W16
	BYTE		N08     Cn5 
	BYTE	W08
	BYTE		N24     As4 
	BYTE	W24
	BYTE		        An4 
	BYTE	W16
	BYTE		N08     Gn4 
	BYTE	W08
// 011   ----------------------------------------
	BYTE		N24     Fn4 
	BYTE	W24
	BYTE		        As4 
	BYTE	W24
	BYTE		        An4 
	BYTE	W24
	BYTE		N06     Gn4 
	BYTE	W06
	BYTE		        Fs4 
	BYTE	W06
	BYTE		        Ds4 
	BYTE	W06
	BYTE		        Dn4 
	BYTE	W06
// 012   ----------------------------------------
	BYTE		N24     As3 
	BYTE	W24
	BYTE		        Dn4 
	BYTE	W24
	BYTE		        Cn4 
	BYTE	W24
	BYTE		        As3 
	BYTE	W24
// 013   ----------------------------------------
	BYTE		        Ds4 
	BYTE	W24
	BYTE		        Dn4 
	BYTE	W24
	BYTE		        Cn4 
	BYTE	W24
	BYTE		        As3 
	BYTE	W24
// 014   ----------------------------------------
	BYTE		        Fn4 
	BYTE	W24
	BYTE		        An4 
	BYTE	W24
	BYTE		        Gn4 
	BYTE	W24
	BYTE		        Fn4 
	BYTE	W24
// 015   ----------------------------------------
	BYTE		        En4 
	BYTE	W24
	BYTE		        Fn4 
	BYTE	W24
	BYTE		        Gn4 
	BYTE	W24
	BYTE		        En4 
	BYTE	W24
// 016   ----------------------------------------
	BYTE		        Dn4 
	BYTE	W24
	BYTE		        Cn4 
	BYTE	W24
	BYTE		N48     An3 
	BYTE	W48
// 017   ----------------------------------------
	BYTE		N24     As3 
	BYTE	W24
	BYTE		        An3 
	BYTE	W24
	BYTE		N48     Gn3 
	BYTE	W48
// 018   ----------------------------------------
	BYTE		N08     Cn4 
	BYTE	W08
	BYTE		        Gn3 
	BYTE	W08
	BYTE		        Ds4 
	BYTE	W08
	BYTE		        Cn4 
	BYTE	W08
	BYTE		        Gn4 
	BYTE	W08
	BYTE		        Ds4 
	BYTE	W08
	BYTE		        Cn5 
	BYTE	W08
	BYTE		        Gn4 
	BYTE	W08
	BYTE		        Ds4 
	BYTE	W08
	BYTE		        Cn4 
	BYTE	W08
	BYTE		        Gn3 
	BYTE	W08
	BYTE		        Ds3 
	BYTE	W08
// 019   ----------------------------------------
	BYTE		        An3 
	BYTE	W08
	BYTE		        Fn3 
	BYTE	W08
	BYTE		        Cn4 
	BYTE	W08
	BYTE		        An3 
	BYTE	W08
	BYTE		        Fn4 
	BYTE	W08
	BYTE		        An4 
	BYTE	W08
	BYTE		        Fs4 
	BYTE	W08
	BYTE		N08   
	BYTE	W08
	BYTE		        Dn4 
	BYTE	W08
	BYTE		        Cn4 
	BYTE	W08
	BYTE		        An3 
	BYTE	W08
	BYTE		N07     Fs3 
	BYTE	W08
// 020   ----------------------------------------
	BYTE	W96
// 021   ----------------------------------------
	BYTE	W96
// 022   ----------------------------------------
	BYTE	W96
// 023   ----------------------------------------
	BYTE	W96
// 024   ----------------------------------------
	BYTE		        As3 
	BYTE	W08
	BYTE		        Gn3 
	BYTE	W08
	BYTE		        As3 
	BYTE	W08
	BYTE		        Dn4 
	BYTE	W08
	BYTE		        Cn4 
	BYTE	W08
	BYTE		        As3 
	BYTE	W08
	BYTE		        An3 
	BYTE	W08
	BYTE		        Fn3 
	BYTE	W08
	BYTE		        An3 
	BYTE	W08
	BYTE		        Cn4 
	BYTE	W08
	BYTE		        As3 
	BYTE	W08
	BYTE		        An3 
	BYTE	W08
// 025   ----------------------------------------
	BYTE		        Ds3 
	BYTE	W08
	BYTE		        As2 
	BYTE	W08
	BYTE		        Ds3 
	BYTE	W08
	BYTE		        Gn3 
	BYTE	W08
	BYTE		        Fn3 
	BYTE	W08
	BYTE		        Ds3 
	BYTE	W08
	BYTE		        Fs3 
	BYTE	W08
	BYTE		        Gn3 
	BYTE	W08
	BYTE		        An3 
	BYTE	W08
	BYTE		        Bn3 
	BYTE	W08
	BYTE		        Cn4 
	BYTE	W08
	BYTE		        Dn4 
	BYTE	W08
// 026   ----------------------------------------
	BYTE		        As4 
	BYTE	W08
	BYTE		        Gn4 
	BYTE	W08
	BYTE		        As4 
	BYTE	W08
	BYTE		        Dn5 
	BYTE	W08
	BYTE		        Cn5 
	BYTE	W08
	BYTE		        As4 
	BYTE	W08
	BYTE		        An4 
	BYTE	W08
	BYTE		        Fn4 
	BYTE	W08
	BYTE		        An4 
	BYTE	W08
	BYTE		        Cn5 
	BYTE	W08
	BYTE		        As4 
	BYTE	W08
	BYTE		        An4 
	BYTE	W08
// 027   ----------------------------------------
	BYTE		        Ds4 
	BYTE	W08
	BYTE		        As3 
	BYTE	W08
	BYTE		        Ds4 
	BYTE	W08
	BYTE		        Gn4 
	BYTE	W08
	BYTE		        Fn4 
	BYTE	W08
	BYTE		        Ds4 
	BYTE	W08
	BYTE		        Fs4 
	BYTE	W08
	BYTE		        Gn4 
	BYTE	W08
	BYTE		        An4 
	BYTE	W08
	BYTE		        Bn4 
	BYTE	W08
	BYTE		        Cn5 
	BYTE	W08
	BYTE		        Dn5 
	BYTE	W08
// 028   ----------------------------------------
	BYTE	W96
// 029   ----------------------------------------
	BYTE	W96
// 030   ----------------------------------------
	BYTE	W96
// 031   ----------------------------------------
	BYTE	W92
	BYTE	W03
	BYTE	GoTo
	 POIN2	SerpentsFangs_1_B1
SerpentsFangs_1_B2:
	BYTE	FINE

//**************** Track 2 (Midi-Chn.2) ****************//

SerpentsFangs_2:
	BYTE	KEYSH   SerpentsFangs_key+0
SerpentsFangs_2_B1:
// 000   ----------------------------------------
	BYTE		VOICE   81
	BYTE		MODT    0
	BYTE		LFOS    44
	BYTE		PAN     c_v+15
	BYTE		VOL     119*SerpentsFangs_mvl/mxv
	BYTE	W96
// 001   ----------------------------------------
	BYTE	W96
// 002   ----------------------------------------
	BYTE	W96
// 003   ----------------------------------------
	BYTE	W72
	BYTE		N08     Gn3   v127
	BYTE	W08
	BYTE		        As3 
	BYTE	W08
	BYTE		        Cn4 
	BYTE	W08
// 004   ----------------------------------------
	BYTE		        Dn4 
	BYTE	W08
	BYTE		        Cn4 
	BYTE	W08
	BYTE		        As3 
	BYTE	W08
	BYTE		        Gn3 
	BYTE	W08
	BYTE		        An3 
	BYTE	W08
	BYTE		        As3 
	BYTE	W08
	BYTE		        Cn4 
	BYTE	W08
	BYTE		        As3 
	BYTE	W08
	BYTE		        An3 
	BYTE	W08
	BYTE		        As3 
	BYTE	W08
	BYTE		        An3 
	BYTE	W08
	BYTE		        Fn3 
	BYTE	W08
// 005   ----------------------------------------
	BYTE		        Ds3 
	BYTE	W08
	BYTE		        As2 
	BYTE	W08
	BYTE		        Ds3 
	BYTE	W08
	BYTE		        Gn3 
	BYTE	W08
	BYTE		        As3 
	BYTE	W08
	BYTE		        Cn4 
	BYTE	W08
	BYTE		        Dn4 
	BYTE	W08
	BYTE		        Ds4 
	BYTE	W08
	BYTE		        Dn4 
	BYTE	W08
	BYTE		N16     Cn4 
	BYTE	W16
	BYTE		N08     As3 
	BYTE	W08
// 006   ----------------------------------------
	BYTE		        Cn4 
	BYTE	W08
	BYTE		        Fn3 
	BYTE	W08
	BYTE		        An3 
	BYTE	W08
	BYTE		        Cn3 
	BYTE	W08
	BYTE		        Cn4 
	BYTE	W08
	BYTE		        An3 
	BYTE	W08
	BYTE		        Ds4 
	BYTE	W08
	BYTE		        Cn4 
	BYTE	W08
	BYTE		        Fn4 
	BYTE	W08
	BYTE		        Ds4 
	BYTE	W08
	BYTE		        An4 
	BYTE	W08
	BYTE		        Fn4 
	BYTE	W08
// 007   ----------------------------------------
	BYTE		        Dn4 
	BYTE	W08
	BYTE		        As3 
	BYTE	W08
	BYTE		        Fn3 
	BYTE	W08
	BYTE		        Fn4 
	BYTE	W08
	BYTE		        As4 
	BYTE	W08
	BYTE		        An4 
	BYTE	W08
	BYTE		        Dn4 
	BYTE	W08
	BYTE		        Cn4 
	BYTE	W08
	BYTE		        An3 
	BYTE	W08
	BYTE		        Fs3 
	BYTE	W08
	BYTE		        An3 
	BYTE	W08
	BYTE		        Cn4 
	BYTE	W08
// 008   ----------------------------------------
	BYTE		N24     Dn4 
	BYTE	W24
	BYTE		N08     As3 
	BYTE	W08
	BYTE		        Cn4 
	BYTE	W08
	BYTE		        Dn4 
	BYTE	W08
	BYTE		        Fn4 
	BYTE	W08
	BYTE		        Dn4 
	BYTE	W08
	BYTE		        Cn4 
	BYTE	W08
	BYTE		        As3 
	BYTE	W08
	BYTE		        An3 
	BYTE	W08
	BYTE		        Fn3 
	BYTE	W08
// 009   ----------------------------------------
	BYTE		        Gn3 
	BYTE	W08
	BYTE		        An3 
	BYTE	W08
	BYTE		        As3 
	BYTE	W08
	BYTE		N08   
	BYTE	W08
	BYTE		        Ds4 
	BYTE	W08
	BYTE		        Gn4 
	BYTE	W08
	BYTE		        Gn3 
	BYTE	W08
	BYTE		        Cn4 
	BYTE	W08
	BYTE		        Gn3 
	BYTE	W08
	BYTE		        Ds4 
	BYTE	W08
	BYTE		        Cn4 
	BYTE	W08
	BYTE		        Gn4 
	BYTE	W08
// 010   ----------------------------------------
	BYTE		N24     An4 
	BYTE	W24
	BYTE		N16     As4 
	BYTE	W16
	BYTE		N08     Cn5 
	BYTE	W08
	BYTE		N24     As4 
	BYTE	W24
	BYTE		        An4 
	BYTE	W16
	BYTE		N08     Gn4 
	BYTE	W08
// 011   ----------------------------------------
	BYTE		N24     Fn4 
	BYTE	W24
	BYTE		        As4 
	BYTE	W24
	BYTE		        An4 
	BYTE	W24
	BYTE		N06     Gn4 
	BYTE	W06
	BYTE		        Fs4 
	BYTE	W06
	BYTE		        Ds4 
	BYTE	W06
	BYTE		        Dn4 
	BYTE	W06
// 012   ----------------------------------------
	BYTE		N24     As3 
	BYTE	W24
	BYTE		        Dn4 
	BYTE	W24
	BYTE		        Cn4 
	BYTE	W24
	BYTE		        As3 
	BYTE	W24
// 013   ----------------------------------------
	BYTE		        Ds4 
	BYTE	W24
	BYTE		        Dn4 
	BYTE	W24
	BYTE		        Cn4 
	BYTE	W24
	BYTE		        As3 
	BYTE	W24
// 014   ----------------------------------------
	BYTE		        Fn4 
	BYTE	W24
	BYTE		        An4 
	BYTE	W24
	BYTE		        Gn4 
	BYTE	W24
	BYTE		        Fn4 
	BYTE	W24
// 015   ----------------------------------------
	BYTE		        En4 
	BYTE	W24
	BYTE		        Fn4 
	BYTE	W24
	BYTE		        Gn4 
	BYTE	W24
	BYTE		        En4 
	BYTE	W24
// 016   ----------------------------------------
	BYTE		        Dn4 
	BYTE	W24
	BYTE		        Cn4 
	BYTE	W24
	BYTE		N48     An3 
	BYTE	W48
// 017   ----------------------------------------
	BYTE		N24     As3 
	BYTE	W24
	BYTE		        An3 
	BYTE	W24
	BYTE		N48     Gn3 
	BYTE	W48
// 018   ----------------------------------------
	BYTE		N08     Cn4 
	BYTE	W08
	BYTE		        Gn3 
	BYTE	W08
	BYTE		        Ds4 
	BYTE	W08
	BYTE		        Cn4 
	BYTE	W08
	BYTE		        Gn4 
	BYTE	W08
	BYTE		        Ds4 
	BYTE	W08
	BYTE		        Cn5 
	BYTE	W08
	BYTE		        Gn4 
	BYTE	W08
	BYTE		        Ds4 
	BYTE	W08
	BYTE		        Cn4 
	BYTE	W08
	BYTE		        Gn3 
	BYTE	W08
	BYTE		        Ds3 
	BYTE	W08
// 019   ----------------------------------------
	BYTE		        An3 
	BYTE	W08
	BYTE		        Fn3 
	BYTE	W08
	BYTE		        Cn4 
	BYTE	W08
	BYTE		        An3 
	BYTE	W08
	BYTE		        Fn4 
	BYTE	W08
	BYTE		        An4 
	BYTE	W08
	BYTE		        Fs4 
	BYTE	W08
	BYTE		N08   
	BYTE	W08
	BYTE		        Dn4 
	BYTE	W08
	BYTE		        Cn4 
	BYTE	W08
	BYTE		        An3 
	BYTE	W08
	BYTE		N07     Fs3 
	BYTE	W08
// 020   ----------------------------------------
	BYTE	W96
// 021   ----------------------------------------
	BYTE	W96
// 022   ----------------------------------------
	BYTE	W96
// 023   ----------------------------------------
	BYTE	W96
// 024   ----------------------------------------
	BYTE		        As3 
	BYTE	W08
	BYTE		        Gn3 
	BYTE	W08
	BYTE		        As3 
	BYTE	W08
	BYTE		        Dn4 
	BYTE	W08
	BYTE		        Cn4 
	BYTE	W08
	BYTE		        As3 
	BYTE	W08
	BYTE		        An3 
	BYTE	W08
	BYTE		        Fn3 
	BYTE	W08
	BYTE		        An3 
	BYTE	W08
	BYTE		        Cn4 
	BYTE	W08
	BYTE		        As3 
	BYTE	W08
	BYTE		        An3 
	BYTE	W08
// 025   ----------------------------------------
	BYTE		        Ds3 
	BYTE	W08
	BYTE		        As2 
	BYTE	W08
	BYTE		        Ds3 
	BYTE	W08
	BYTE		        Gn3 
	BYTE	W08
	BYTE		        Fn3 
	BYTE	W08
	BYTE		        Ds3 
	BYTE	W08
	BYTE		        Fs3 
	BYTE	W08
	BYTE		        Gn3 
	BYTE	W08
	BYTE		        An3 
	BYTE	W08
	BYTE		        Bn3 
	BYTE	W08
	BYTE		        Cn4 
	BYTE	W08
	BYTE		        Dn4 
	BYTE	W08
// 026   ----------------------------------------
	BYTE		        As4 
	BYTE	W08
	BYTE		        Gn4 
	BYTE	W08
	BYTE		        As4 
	BYTE	W08
	BYTE		        Dn5 
	BYTE	W08
	BYTE		        Cn5 
	BYTE	W08
	BYTE		        As4 
	BYTE	W08
	BYTE		        An4 
	BYTE	W08
	BYTE		        Fn4 
	BYTE	W08
	BYTE		        An4 
	BYTE	W08
	BYTE		        Cn5 
	BYTE	W08
	BYTE		        As4 
	BYTE	W08
	BYTE		        An4 
	BYTE	W08
// 027   ----------------------------------------
	BYTE		        Ds4 
	BYTE	W08
	BYTE		        As3 
	BYTE	W08
	BYTE		        Ds4 
	BYTE	W08
	BYTE		        Gn4 
	BYTE	W08
	BYTE		        Fn4 
	BYTE	W08
	BYTE		        Ds4 
	BYTE	W08
	BYTE		        Fs4 
	BYTE	W08
	BYTE		        Gn4 
	BYTE	W08
	BYTE		        An4 
	BYTE	W08
	BYTE		        Bn4 
	BYTE	W08
	BYTE		        Cn5 
	BYTE	W08
	BYTE		        Dn5 
	BYTE	W08
// 028   ----------------------------------------
	BYTE	W96
// 029   ----------------------------------------
	BYTE	W96
// 030   ----------------------------------------
	BYTE	W96
// 031   ----------------------------------------
	BYTE	W92
	BYTE	W03
	BYTE	GoTo
	 POIN2	SerpentsFangs_2_B1
SerpentsFangs_2_B2:
	BYTE	FINE

//**************** Track 3 (Midi-Chn.3) ****************//

SerpentsFangs_3:
	BYTE	KEYSH   SerpentsFangs_key+0
SerpentsFangs_3_B1:
// 000   ----------------------------------------
	BYTE		VOICE   16
	BYTE		MODT    0
	BYTE		LFOS    44
	BYTE		VOL     94*SerpentsFangs_mvl/mxv
	BYTE		PAN     c_v-32
	BYTE		N05     Dn4   v100
	BYTE	W08
	BYTE		        An3 
	BYTE	W08
	BYTE		        Cn4 
	BYTE	W08
	BYTE		N06     Dn4 
	BYTE	W24
	BYTE		N05     Ds4 
	BYTE	W08
	BYTE		        Cn4 
	BYTE	W08
	BYTE		        Dn4 
	BYTE	W08
	BYTE		        An3 
	BYTE	W08
	BYTE		        As3 
	BYTE	W08
	BYTE		        Cn4 
	BYTE	W08
// 001   ----------------------------------------
	BYTE		        As3 
	BYTE	W08
	BYTE		        Gn3 
	BYTE	W08
	BYTE		        An3 
	BYTE	W08
	BYTE		N06     As3 
	BYTE	W24
	BYTE		N05     Cn4 
	BYTE	W08
	BYTE		        Gn3 
	BYTE	W08
	BYTE		        As3 
	BYTE	W08
	BYTE		        Gn3 
	BYTE	W08
	BYTE		        An3 
	BYTE	W08
	BYTE		        As3 
	BYTE	W08
// 002   ----------------------------------------
	BYTE		N90     En3 
	BYTE		N96     An3 
	BYTE	W48
	BYTE		N48     Cs4 
	BYTE	W48
// 003   ----------------------------------------
	BYTE		        As3 
	BYTE		N90     Dn4 
	BYTE		N48     Gn4 
	BYTE	W48
	BYTE		N42     An3 
	BYTE		N42     Fs4 
	BYTE	W48
// 004   ----------------------------------------
	BYTE		N05     Dn3 
	BYTE		N05     Gn3 
	BYTE		N05     As3 
	BYTE	W08
	BYTE		        As2 
	BYTE		N05     Dn3 
	BYTE		N05     Gn3 
	BYTE	W08
	BYTE		        Dn3 
	BYTE		N05     Gn3 
	BYTE		N05     As3 
	BYTE	W08
	BYTE		        Dn3 
	BYTE		N05     Gn3 
	BYTE		N05     As3 
	BYTE	W08
	BYTE		        As2 
	BYTE		N05     Dn3 
	BYTE		N05     Gn3 
	BYTE	W08
	BYTE		        Dn3 
	BYTE		N05     Gn3 
	BYTE		N05     As3 
	BYTE	W08
	BYTE		        Cn3 
	BYTE		N05     Fn3 
	BYTE		N05     An3 
	BYTE	W08
	BYTE		        An2 
	BYTE		N05     Cn3 
	BYTE		N05     Fn3 
	BYTE	W08
	BYTE		        Cn3 
	BYTE		N05     Fn3 
	BYTE		N05     An3 
	BYTE	W08
	BYTE		        Cn3 
	BYTE		N05     Fn3 
	BYTE		N05     An3 
	BYTE	W08
	BYTE		        An2 
	BYTE		N05     Cn3 
	BYTE		N05     Fn3 
	BYTE	W08
	BYTE		        Cn3 
	BYTE		N05     Fn3 
	BYTE		N05     An3 
	BYTE	W08
// 005   ----------------------------------------
	BYTE		        Ds3 
	BYTE		N05     Gn3 
	BYTE		N05     As3 
	BYTE	W08
	BYTE		        As2 
	BYTE		N05     Ds3 
	BYTE		N05     Gn3 
	BYTE	W08
	BYTE		        Ds3 
	BYTE		N05     Gn3 
	BYTE		N05     As3 
	BYTE	W08
	BYTE		        Ds3 
	BYTE		N05     Gn3 
	BYTE		N05     As3 
	BYTE	W08
	BYTE		        As2 
	BYTE		N05     Ds3 
	BYTE		N05     Gn3 
	BYTE	W08
	BYTE		        Ds3 
	BYTE		N05     Gn3 
	BYTE		N05     As3 
	BYTE	W08
	BYTE		        Ds3 
	BYTE		N05     Gn3 
	BYTE		N05     Cn4 
	BYTE	W08
	BYTE		        Cn3 
	BYTE		N05     Ds3 
	BYTE		N05     Gn3 
	BYTE	W08
	BYTE		        Ds3 
	BYTE		N05     Gn3 
	BYTE		N05     Cn4 
	BYTE	W08
	BYTE		        Ds3 
	BYTE		N05     Gn3 
	BYTE		N05     Cn4 
	BYTE	W08
	BYTE		        Cn3 
	BYTE		N05     Ds3 
	BYTE		N05     Gn3 
	BYTE	W08
	BYTE		        Ds3 
	BYTE		N05     Gn3 
	BYTE		N05     Cn4 
	BYTE	W08
// 006   ----------------------------------------
SerpentsFangs_3_006:
	BYTE		N05     Fn3   v100
	BYTE		N05     An3 
	BYTE		N05     Cn4 
	BYTE	W08
	BYTE		        Cn3 
	BYTE		N05     Fn3 
	BYTE		N05     An3 
	BYTE	W08
	BYTE		        Fn3 
	BYTE		N05     An3 
	BYTE		N05     Cn4 
	BYTE	W08
	BYTE		        Fn3 
	BYTE		N05     An3 
	BYTE		N05     Cn4 
	BYTE	W08
	BYTE		        Cn3 
	BYTE		N05     Fn3 
	BYTE		N05     An3 
	BYTE	W08
	BYTE		        Fn3 
	BYTE		N05     An3 
	BYTE		N05     Cn4 
	BYTE	W08
	BYTE		        Ds3 
	BYTE		N05     An3 
	BYTE		N05     Cn4 
	BYTE	W08
	BYTE		N07     Cn3 
	BYTE		N07     Ds3 
	BYTE		N07     An3 
	BYTE	W08
	BYTE		N05     Ds3 
	BYTE		N05     An3 
	BYTE		N05     Cn4 
	BYTE	W08
	BYTE		        Ds3 
	BYTE		N05     An3 
	BYTE		N05     Cn4 
	BYTE	W08
	BYTE		N07     Cn3 
	BYTE		N07     Ds3 
	BYTE		N07     An3 
	BYTE	W08
	BYTE		N05     Ds3 
	BYTE		N05     An3 
	BYTE		N05     Cn4 
	BYTE	W08
	BYTE	PEND
// 007   ----------------------------------------
SerpentsFangs_3_007:
	BYTE		N05     Fn3   v100
	BYTE		N05     As3 
	BYTE		N05     Dn4 
	BYTE	W08
	BYTE		        Dn3 
	BYTE		N05     Fn3 
	BYTE		N05     As3 
	BYTE	W08
	BYTE		        Fn3 
	BYTE		N05     As3 
	BYTE		N05     Dn4 
	BYTE	W08
	BYTE		        Fn3 
	BYTE		N05     As3 
	BYTE		N05     Dn4 
	BYTE	W08
	BYTE		        Dn3 
	BYTE		N05     Fn3 
	BYTE		N05     As3 
	BYTE	W08
	BYTE		        Fn3 
	BYTE		N05     As3 
	BYTE		N05     Dn4 
	BYTE	W08
	BYTE		        Dn3 
	BYTE		N05     Fs3 
	BYTE		N05     An3 
	BYTE		N05     Cn4 
	BYTE	W08
	BYTE		        Cn3 
	BYTE		N05     Dn3 
	BYTE		N05     Fs3 
	BYTE		N05     An3 
	BYTE	W08
	BYTE		        Dn3 
	BYTE		N05     Fs3 
	BYTE		N05     An3 
	BYTE		N05     Cn4 
	BYTE	W08
	BYTE		        Dn3 
	BYTE		N05     Fs3 
	BYTE		N05     An3 
	BYTE		N05     Cn4 
	BYTE	W08
	BYTE		        Cn3 
	BYTE		N05     Dn3 
	BYTE		N05     Fs3 
	BYTE		N05     An3 
	BYTE	W08
	BYTE		        Dn3 
	BYTE		N05     Fs3 
	BYTE		N05     An3 
	BYTE		N05     Cn4 
	BYTE	W08
	BYTE	PEND
// 008   ----------------------------------------
	BYTE		N12     Dn3 
	BYTE		N12     Gn3 
	BYTE		N12     As3 
	BYTE	W48
	BYTE		        Cn3 
	BYTE		N12     Fn3 
	BYTE		N12     An3 
	BYTE	W48
// 009   ----------------------------------------
	BYTE		        Ds3 
	BYTE		N12     Gn3 
	BYTE		N12     As3 
	BYTE	W48
	BYTE		        Ds3 
	BYTE		N12     Gn3 
	BYTE		N12     Cn4 
	BYTE	W48
// 010   ----------------------------------------
	BYTE	PATT
	 POIN2	SerpentsFangs_3_006
// 011   ----------------------------------------
	BYTE	PATT
	 POIN2	SerpentsFangs_3_007
// 012   ----------------------------------------
SerpentsFangs_3_012:
	BYTE		TIE     Gn3   v100
	BYTE		N96     As3 
	BYTE		TIE     Ds4 
	BYTE	W96
	BYTE	PEND
// 013   ----------------------------------------
	BYTE		        Cn4 
	BYTE	W96
	BYTE		EOT     Gn3 
	BYTE		        Ds4 
// 014   ----------------------------------------
	BYTE		N96     An3 
	BYTE		N96     Fn4 
	BYTE	W96
// 015   ----------------------------------------
	BYTE		        Gn3 
	BYTE		N96     As3 
	BYTE		N96     En4 
	BYTE	W96
	BYTE		EOT     Cn4 
// 016   ----------------------------------------
	BYTE		N96     An3 
	BYTE		N96     Dn4 
	BYTE		N96     Fn4 
	BYTE	W96
// 017   ----------------------------------------
	BYTE	PATT
	 POIN2	SerpentsFangs_3_012
// 018   ----------------------------------------
	BYTE		N96     Cn4   v100
	BYTE	W96
	BYTE		EOT     Gn3 
	BYTE		        Ds4 
// 019   ----------------------------------------
	BYTE		N48     Fn3 
	BYTE		N48     An3 
	BYTE		N48     Cn4 
	BYTE	W48
	BYTE		N42     Cn3 
	BYTE		N42     Fs3 
	BYTE		N42     An3 
	BYTE		N42     Dn4 
	BYTE	W48
// 020   ----------------------------------------
SerpentsFangs_3_020:
	BYTE		N15     As3   v100
	BYTE		N15     Dn4 
	BYTE		N15     Gn4 
	BYTE	W16
	BYTE		        Gn3 
	BYTE		N15     As3 
	BYTE		N15     Dn4 
	BYTE	W16
	BYTE		        As3 
	BYTE		N15     Dn4 
	BYTE		N15     Gn4 
	BYTE	W16
	BYTE		        An3 
	BYTE		N15     Cn4 
	BYTE		N15     Fn4 
	BYTE	W16
	BYTE		        Fn3 
	BYTE		N15     An3 
	BYTE		N15     Cn4 
	BYTE	W16
	BYTE		        An3 
	BYTE		N15     Cn4 
	BYTE		N15     Fn4 
	BYTE	W16
	BYTE	PEND
// 021   ----------------------------------------
SerpentsFangs_3_021:
	BYTE		N15     Gn3   v100
	BYTE		N15     As3 
	BYTE		N15     Ds4 
	BYTE	W16
	BYTE		        Ds3 
	BYTE		N15     Gn3 
	BYTE		N15     As3 
	BYTE	W16
	BYTE		        Gn3 
	BYTE		N15     As3 
	BYTE		N15     Ds4 
	BYTE	W16
	BYTE		        Fs3 
	BYTE		N15     An3 
	BYTE		N15     Dn4 
	BYTE	W16
	BYTE		        Gn3 
	BYTE		N15     Bn3 
	BYTE		N15     En4 
	BYTE	W16
	BYTE		        An3 
	BYTE		N15     Cn4 
	BYTE		N15     Fs4 
	BYTE	W16
	BYTE	PEND
// 022   ----------------------------------------
	BYTE	PATT
	 POIN2	SerpentsFangs_3_020
// 023   ----------------------------------------
	BYTE	PATT
	 POIN2	SerpentsFangs_3_021
// 024   ----------------------------------------
	BYTE	PATT
	 POIN2	SerpentsFangs_3_020
// 025   ----------------------------------------
	BYTE	PATT
	 POIN2	SerpentsFangs_3_021
// 026   ----------------------------------------
	BYTE	PATT
	 POIN2	SerpentsFangs_3_020
// 027   ----------------------------------------
	BYTE	PATT
	 POIN2	SerpentsFangs_3_021
// 028   ----------------------------------------
	BYTE		TIE     Ds3   v100
	BYTE		TIE     Gn3 
	BYTE		TIE     As3 
	BYTE		N48     As4 
	BYTE	W48
	BYTE		        An4 
	BYTE	W48
// 029   ----------------------------------------
	BYTE		        Gn4 
	BYTE	W48
	BYTE		N24     An4 
	BYTE	W24
	BYTE		        As4 
	BYTE	W18
	BYTE		EOT     Ds3 
	BYTE		        Gn3 
	BYTE		        As3 
	BYTE	W06
// 030   ----------------------------------------
	BYTE		TIE     Ds3 
	BYTE		TIE     Gn3 
	BYTE		TIE     Cn4 
	BYTE		N48     As4 
	BYTE	W48
	BYTE		        An4 
	BYTE	W48
// 031   ----------------------------------------
	BYTE		        Gn4 
	BYTE	W48
	BYTE		EOT     Ds3 
	BYTE		        Gn3 
	BYTE		        Cn4 
	BYTE		N08     Ds3 
	BYTE		N08     Gn3 
	BYTE		N08     Cn4 
	BYTE		N08     Gn4 
	BYTE	W08
	BYTE		        Ds3 
	BYTE		N08     Gn3 
	BYTE		N08     Cn4 
	BYTE		N08     Fn4 
	BYTE	W08
	BYTE		        Ds3 
	BYTE		N08     Gn3 
	BYTE		N08     Cn4 
	BYTE		N08     Ds4 
	BYTE	W08
	BYTE		        Cn3 
	BYTE		N08     Ds3 
	BYTE		N08     Gn3 
	BYTE		N08     Dn4 
	BYTE	W08
	BYTE		        Cn3 
	BYTE		N08     Ds3 
	BYTE		N08     Gn3 
	BYTE		N08     Cn4 
	BYTE	W08
	BYTE		N07     Cn3 
	BYTE		N07     Ds3 
	BYTE		N07     Gn3 
	BYTE		N07     As3 
	BYTE	W07
	BYTE	GoTo
	 POIN2	SerpentsFangs_3_B1
SerpentsFangs_3_B2:
	BYTE	FINE

//**************** Track 4 (Midi-Chn.4) ****************//

SerpentsFangs_4:
	BYTE	KEYSH   SerpentsFangs_key+0
SerpentsFangs_4_B1:
// 000   ----------------------------------------
	BYTE		VOICE   122
	BYTE		MODT    0
	BYTE		LFOS    44
	BYTE		VOL     122*SerpentsFangs_mvl/mxv
	BYTE		PAN     c_v+0
	BYTE		N17     Cn1   v127
	BYTE		N17     Ds1 
	BYTE		N17     Dn2 
	BYTE		N17     An2 
	BYTE	W18
	BYTE		        Cn1 
	BYTE		N17     Ds1 
	BYTE		N17     Cn2 
	BYTE		N17     An2 
	BYTE	W30
	BYTE		N07     Bn0 
	BYTE		N07     Cn1 
	BYTE		N07     Ds2 
	BYTE	W08
	BYTE		        Bn0 
	BYTE		N07     Cn1 
	BYTE		N07     Ds2 
	BYTE	W08
	BYTE		        Bn0 
	BYTE		N07     Cn1 
	BYTE		N07     Cn2 
	BYTE	W08
	BYTE		        Bn0 
	BYTE		N07     Cn1 
	BYTE		N07     Bn1 
	BYTE	W08
	BYTE		        Bn0 
	BYTE		N07     Cn1 
	BYTE		N07     Bn1 
	BYTE	W08
	BYTE		        Bn0 
	BYTE		N07     Cn1 
	BYTE		N07     An1 
	BYTE	W08
// 001   ----------------------------------------
	BYTE		N17     Cn1 
	BYTE		N17     Ds1 
	BYTE		N17     Dn2 
	BYTE		N17     An2 
	BYTE	W18
	BYTE		        Cn1 
	BYTE		N17     Ds1 
	BYTE		N17     Cn2 
	BYTE		N17     An2 
	BYTE	W30
	BYTE		N07     Bn0 
	BYTE		N07     Cn1 
	BYTE		N07     Ds2 
	BYTE	W08
	BYTE		        Bn0 
	BYTE		N07     Cn1 
	BYTE		N07     Ds2 
	BYTE	W08
	BYTE		        Bn0 
	BYTE		N07     Cn1 
	BYTE		N07     Cn2 
	BYTE	W08
	BYTE		        Bn0 
	BYTE		N07     Cn1 
	BYTE		N07     Ds1 
	BYTE		N07     En1 
	BYTE		N07     Bn1 
	BYTE	W08
	BYTE		        Bn0 
	BYTE		N07     Cn1 
	BYTE		N07     Ds1 
	BYTE		N07     En1 
	BYTE		N07     Bn1 
	BYTE	W08
	BYTE		        Bn0 
	BYTE		N07     Cn1 
	BYTE		N07     Ds1 
	BYTE		N07     En1 
	BYTE		N07     An1 
	BYTE	W08
// 002   ----------------------------------------
SerpentsFangs_4_002:
	BYTE		N07     Bn0   v127
	BYTE		N07     Cn1 
	BYTE		N07     Fs1 
	BYTE	W08
	BYTE		        Gs1 
	BYTE	W08
	BYTE		        Bn0 
	BYTE		N07     Cn1 
	BYTE		N07     Fs1 
	BYTE	W08
	BYTE		        Dn1 
	BYTE		N07     En1 
	BYTE		N07     As1 
	BYTE	W08
	BYTE		        Fs1 
	BYTE	W08
	BYTE		        Bn0 
	BYTE		N07     Cn1 
	BYTE		N07     As1 
	BYTE	W08
	BYTE		        Bn0 
	BYTE		N07     Cn1 
	BYTE		N07     Fs1 
	BYTE	W08
	BYTE		        Bn0 
	BYTE		N07     Cn1 
	BYTE		N07     Gs1 
	BYTE	W08
	BYTE		        Bn0 
	BYTE		N07     Cn1 
	BYTE		N07     Fs1 
	BYTE	W08
	BYTE		        Dn1 
	BYTE		N07     En1 
	BYTE		N07     As1 
	BYTE	W08
	BYTE		        Fs1 
	BYTE	W08
	BYTE		        Dn1 
	BYTE		N07     En1 
	BYTE		N07     As1 
	BYTE	W08
	BYTE	PEND
// 003   ----------------------------------------
SerpentsFangs_4_003:
	BYTE		N07     Bn0   v127
	BYTE		N07     Cn1 
	BYTE		N07     Fs1 
	BYTE	W08
	BYTE		        Gs1 
	BYTE	W08
	BYTE		        Bn0 
	BYTE		N07     Cn1 
	BYTE		N07     Fs1 
	BYTE	W08
	BYTE		        Dn1 
	BYTE		N07     En1 
	BYTE		N07     As1 
	BYTE	W08
	BYTE		        Fs1 
	BYTE	W08
	BYTE		        Bn0 
	BYTE		N07     Cn1 
	BYTE		N07     As1 
	BYTE	W08
	BYTE		N17     Cn1 
	BYTE		N17     Ds1 
	BYTE		N17     Dn2 
	BYTE		N17     An2 
	BYTE	W18
	BYTE		        Cn1 
	BYTE		N17     Ds1 
	BYTE		N17     Cn2 
	BYTE		N17     An2 
	BYTE	W18
	BYTE		N05     Cn1 
	BYTE		N05     Ds1 
	BYTE		N05     Bn1 
	BYTE		N05     An2 
	BYTE	W06
	BYTE		        Cn1 
	BYTE		N05     Ds1 
	BYTE		N05     An1 
	BYTE		N05     An2 
	BYTE	W06
	BYTE	PEND
// 004   ----------------------------------------
	BYTE	PATT
	 POIN2	SerpentsFangs_4_002
// 005   ----------------------------------------
	BYTE	PATT
	 POIN2	SerpentsFangs_4_002
// 006   ----------------------------------------
	BYTE	PATT
	 POIN2	SerpentsFangs_4_002
// 007   ----------------------------------------
	BYTE	PATT
	 POIN2	SerpentsFangs_4_002
// 008   ----------------------------------------
	BYTE	PATT
	 POIN2	SerpentsFangs_4_002
// 009   ----------------------------------------
	BYTE	PATT
	 POIN2	SerpentsFangs_4_002
// 010   ----------------------------------------
	BYTE	PATT
	 POIN2	SerpentsFangs_4_002
// 011   ----------------------------------------
	BYTE	PATT
	 POIN2	SerpentsFangs_4_003
// 012   ----------------------------------------
	BYTE	PATT
	 POIN2	SerpentsFangs_4_002
// 013   ----------------------------------------
	BYTE	PATT
	 POIN2	SerpentsFangs_4_002
// 014   ----------------------------------------
	BYTE	PATT
	 POIN2	SerpentsFangs_4_002
// 015   ----------------------------------------
	BYTE	PATT
	 POIN2	SerpentsFangs_4_002
// 016   ----------------------------------------
	BYTE	PATT
	 POIN2	SerpentsFangs_4_002
// 017   ----------------------------------------
	BYTE	PATT
	 POIN2	SerpentsFangs_4_002
// 018   ----------------------------------------
	BYTE	PATT
	 POIN2	SerpentsFangs_4_002
// 019   ----------------------------------------
	BYTE	PATT
	 POIN2	SerpentsFangs_4_003
// 020   ----------------------------------------
SerpentsFangs_4_020:
	BYTE		N07     Bn0   v127
	BYTE		N07     Cn1 
	BYTE		N07     Fs1 
	BYTE	W08
	BYTE		        Gs1 
	BYTE	W08
	BYTE		        Bn0 
	BYTE		N07     Cn1 
	BYTE		N07     Fs1 
	BYTE	W08
	BYTE		        Dn1 
	BYTE		N07     En1 
	BYTE		N07     As1 
	BYTE		N07     An2 
	BYTE	W08
	BYTE		        Fs1 
	BYTE	W08
	BYTE		        Bn0 
	BYTE		N07     Cn1 
	BYTE		N07     As1 
	BYTE	W08
	BYTE		        Bn0 
	BYTE		N07     Cn1 
	BYTE		N07     Fs1 
	BYTE	W08
	BYTE		        Gs1 
	BYTE	W08
	BYTE		        Bn0 
	BYTE		N07     Cn1 
	BYTE		N07     Fs1 
	BYTE	W08
	BYTE		        Dn1 
	BYTE		N07     En1 
	BYTE		N07     As1 
	BYTE		N07     An2 
	BYTE	W08
	BYTE		        Fs1 
	BYTE	W08
	BYTE		        Bn0 
	BYTE		N07     Cn1 
	BYTE		N07     As1 
	BYTE	W08
	BYTE	PEND
// 021   ----------------------------------------
	BYTE	PATT
	 POIN2	SerpentsFangs_4_020
// 022   ----------------------------------------
	BYTE	PATT
	 POIN2	SerpentsFangs_4_020
// 023   ----------------------------------------
	BYTE	PATT
	 POIN2	SerpentsFangs_4_020
// 024   ----------------------------------------
	BYTE	PATT
	 POIN2	SerpentsFangs_4_020
// 025   ----------------------------------------
	BYTE	PATT
	 POIN2	SerpentsFangs_4_020
// 026   ----------------------------------------
	BYTE	PATT
	 POIN2	SerpentsFangs_4_020
// 027   ----------------------------------------
	BYTE		N07     Bn0   v127
	BYTE		N07     Cn1 
	BYTE		N07     Fs1 
	BYTE	W08
	BYTE		        Gs1 
	BYTE	W08
	BYTE		        Bn0 
	BYTE		N07     Cn1 
	BYTE		N07     Fs1 
	BYTE	W08
	BYTE		        Dn1 
	BYTE		N07     En1 
	BYTE		N07     As1 
	BYTE		N07     An2 
	BYTE	W08
	BYTE		        Fs1 
	BYTE	W08
	BYTE		        Bn0 
	BYTE		N07     Cn1 
	BYTE		N07     As1 
	BYTE	W08
	BYTE		        Bn0 
	BYTE		N07     Cn1 
	BYTE		N07     Fs1 
	BYTE	W08
	BYTE		        Gs1 
	BYTE	W08
	BYTE		        Bn0 
	BYTE		N07     Cn1 
	BYTE		N07     Fs1 
	BYTE	W08
	BYTE		        Dn1 
	BYTE		N07     En1 
	BYTE		N07     As1 
	BYTE		N07     An2 
	BYTE	W08
	BYTE		        Dn1 
	BYTE		N07     En1 
	BYTE		N07     Fs1 
	BYTE	W08
	BYTE		        Bn0 
	BYTE		N07     Cn1 
	BYTE		N07     Dn1 
	BYTE		N07     En1 
	BYTE		N07     As1 
	BYTE	W08
// 028   ----------------------------------------
	BYTE	PATT
	 POIN2	SerpentsFangs_4_002
// 029   ----------------------------------------
	BYTE	PATT
	 POIN2	SerpentsFangs_4_002
// 030   ----------------------------------------
	BYTE	PATT
	 POIN2	SerpentsFangs_4_002
// 031   ----------------------------------------
	BYTE		N07     Bn0   v127
	BYTE		N07     Cn1 
	BYTE		N07     Fs1 
	BYTE	W08
	BYTE		        Gs1 
	BYTE	W08
	BYTE		        Bn0 
	BYTE		N07     Cn1 
	BYTE		N07     Fs1 
	BYTE	W08
	BYTE		        Dn1 
	BYTE		N07     En1 
	BYTE		N07     As1 
	BYTE	W08
	BYTE		        Fs1 
	BYTE	W08
	BYTE		        Bn0 
	BYTE		N07     Cn1 
	BYTE		N07     As1 
	BYTE	W08
	BYTE		        Bn0 
	BYTE		N07     Cn1 
	BYTE		N07     Fs1 
	BYTE	W08
	BYTE		        Bn0 
	BYTE		N07     Cn1 
	BYTE		N07     Gs1 
	BYTE	W08
	BYTE		        Bn0 
	BYTE		N07     Cn1 
	BYTE		N07     Fs1 
	BYTE	W08
	BYTE		        Dn1 
	BYTE		N07     En1 
	BYTE		N07     As1 
	BYTE	W08
	BYTE		        Fs1 
	BYTE	W08
	BYTE		        Dn1 
	BYTE		N07     En1 
	BYTE		N07     As1 
	BYTE	W07
	BYTE	GoTo
	 POIN2	SerpentsFangs_4_B1
SerpentsFangs_4_B2:
	BYTE	FINE

//**************** Track 5 (Midi-Chn.5) ****************//

SerpentsFangs_5:
	BYTE	KEYSH   SerpentsFangs_key+0
SerpentsFangs_5_B1:
// 000   ----------------------------------------
	BYTE		VOICE   18
	BYTE		MODT    0
	BYTE		LFOS    44
	BYTE		VOL     94*SerpentsFangs_mvl/mxv
	BYTE		PAN     c_v+32
	BYTE		N05     Dn5   v100
	BYTE	W08
	BYTE		        An4 
	BYTE	W08
	BYTE		        Cn5 
	BYTE	W08
	BYTE		N06     Dn5 
	BYTE	W24
	BYTE		N05     Ds5 
	BYTE	W08
	BYTE		        Cn5 
	BYTE	W08
	BYTE		        Dn5 
	BYTE	W08
	BYTE		        An4 
	BYTE	W08
	BYTE		        As4 
	BYTE	W08
	BYTE		        Cn5 
	BYTE	W08
// 001   ----------------------------------------
	BYTE		        As4 
	BYTE	W08
	BYTE		        Gn4 
	BYTE	W08
	BYTE		        An4 
	BYTE	W08
	BYTE		N06     As4 
	BYTE	W24
	BYTE		N05     Cn5 
	BYTE	W08
	BYTE		        Gn4 
	BYTE	W08
	BYTE		        As4 
	BYTE	W08
	BYTE		        Gn4 
	BYTE	W08
	BYTE		        An4 
	BYTE	W08
	BYTE		        As4 
	BYTE	W08
// 002   ----------------------------------------
	BYTE		N90     En4 
	BYTE		N96     An4 
	BYTE	W48
	BYTE		N48     Cs5 
	BYTE	W48
// 003   ----------------------------------------
	BYTE		        As4 
	BYTE		N90     Dn5 
	BYTE		N48     Gn5 
	BYTE	W48
	BYTE		N42     An4 
	BYTE		N42     Fs5 
	BYTE	W48
// 004   ----------------------------------------
	BYTE		N05     Dn4 
	BYTE		N05     Gn4 
	BYTE		N05     As4 
	BYTE	W08
	BYTE		        As3 
	BYTE		N05     Dn4 
	BYTE		N05     Gn4 
	BYTE	W08
	BYTE		        Dn4 
	BYTE		N05     Gn4 
	BYTE		N05     As4 
	BYTE	W08
	BYTE		        Dn4 
	BYTE		N05     Gn4 
	BYTE		N05     As4 
	BYTE	W08
	BYTE		        As3 
	BYTE		N05     Dn4 
	BYTE		N05     Gn4 
	BYTE	W08
	BYTE		        Dn4 
	BYTE		N05     Gn4 
	BYTE		N05     As4 
	BYTE	W08
	BYTE		        Cn4 
	BYTE		N05     Fn4 
	BYTE		N05     An4 
	BYTE	W08
	BYTE		        An3 
	BYTE		N05     Cn4 
	BYTE		N05     Fn4 
	BYTE	W08
	BYTE		        Cn4 
	BYTE		N05     Fn4 
	BYTE		N05     An4 
	BYTE	W08
	BYTE		        Cn4 
	BYTE		N05     Fn4 
	BYTE		N05     An4 
	BYTE	W08
	BYTE		        An3 
	BYTE		N05     Cn4 
	BYTE		N05     Fn4 
	BYTE	W08
	BYTE		        Cn4 
	BYTE		N05     Fn4 
	BYTE		N05     An4 
	BYTE	W08
// 005   ----------------------------------------
	BYTE		        Ds4 
	BYTE		N05     Gn4 
	BYTE		N05     As4 
	BYTE	W08
	BYTE		        As3 
	BYTE		N05     Ds4 
	BYTE		N05     Gn4 
	BYTE	W08
	BYTE		        Ds4 
	BYTE		N05     Gn4 
	BYTE		N05     As4 
	BYTE	W08
	BYTE		        Ds4 
	BYTE		N05     Gn4 
	BYTE		N05     As4 
	BYTE	W08
	BYTE		        As3 
	BYTE		N05     Ds4 
	BYTE		N05     Gn4 
	BYTE	W08
	BYTE		        Ds4 
	BYTE		N05     Gn4 
	BYTE		N05     As4 
	BYTE	W08
	BYTE		        Ds4 
	BYTE		N05     Gn4 
	BYTE		N05     Cn5 
	BYTE	W08
	BYTE		        Cn4 
	BYTE		N05     Ds4 
	BYTE		N05     Gn4 
	BYTE	W08
	BYTE		        Ds4 
	BYTE		N05     Gn4 
	BYTE		N05     Cn5 
	BYTE	W08
	BYTE		        Ds4 
	BYTE		N05     Gn4 
	BYTE		N05     Cn5 
	BYTE	W08
	BYTE		        Cn4 
	BYTE		N05     Ds4 
	BYTE		N05     Gn4 
	BYTE	W08
	BYTE		        Ds4 
	BYTE		N05     Gn4 
	BYTE		N05     Cn5 
	BYTE	W08
// 006   ----------------------------------------
SerpentsFangs_5_006:
	BYTE		N05     Fn4   v100
	BYTE		N05     An4 
	BYTE		N05     Cn5 
	BYTE	W08
	BYTE		        Cn4 
	BYTE		N05     Fn4 
	BYTE		N05     An4 
	BYTE	W08
	BYTE		        Fn4 
	BYTE		N05     An4 
	BYTE		N05     Cn5 
	BYTE	W08
	BYTE		        Fn4 
	BYTE		N05     An4 
	BYTE		N05     Cn5 
	BYTE	W08
	BYTE		        Cn4 
	BYTE		N05     Fn4 
	BYTE		N05     An4 
	BYTE	W08
	BYTE		        Fn4 
	BYTE		N05     An4 
	BYTE		N05     Cn5 
	BYTE	W08
	BYTE		        Ds4 
	BYTE		N05     An4 
	BYTE		N05     Cn5 
	BYTE	W08
	BYTE		N07     Cn4 
	BYTE		N07     Ds4 
	BYTE		N07     An4 
	BYTE	W08
	BYTE		N05     Ds4 
	BYTE		N05     An4 
	BYTE		N05     Cn5 
	BYTE	W08
	BYTE		        Ds4 
	BYTE		N05     An4 
	BYTE		N05     Cn5 
	BYTE	W08
	BYTE		N07     Cn4 
	BYTE		N07     Ds4 
	BYTE		N07     An4 
	BYTE	W08
	BYTE		N05     Ds4 
	BYTE		N05     An4 
	BYTE		N05     Cn5 
	BYTE	W08
	BYTE	PEND
// 007   ----------------------------------------
SerpentsFangs_5_007:
	BYTE		N05     Fn4   v100
	BYTE		N05     As4 
	BYTE		N05     Dn5 
	BYTE	W08
	BYTE		        Dn4 
	BYTE		N05     Fn4 
	BYTE		N05     As4 
	BYTE	W08
	BYTE		        Fn4 
	BYTE		N05     As4 
	BYTE		N05     Dn5 
	BYTE	W08
	BYTE		        Fn4 
	BYTE		N05     As4 
	BYTE		N05     Dn5 
	BYTE	W08
	BYTE		        Dn4 
	BYTE		N05     Fn4 
	BYTE		N05     As4 
	BYTE	W08
	BYTE		        Fn4 
	BYTE		N05     As4 
	BYTE		N05     Dn5 
	BYTE	W08
	BYTE		        Dn4 
	BYTE		N05     Fs4 
	BYTE		N05     An4 
	BYTE		N05     Cn5 
	BYTE	W08
	BYTE		        Cn4 
	BYTE		N05     Dn4 
	BYTE		N05     Fs4 
	BYTE		N05     An4 
	BYTE	W08
	BYTE		        Dn4 
	BYTE		N05     Fs4 
	BYTE		N05     An4 
	BYTE		N05     Cn5 
	BYTE	W08
	BYTE		        Dn4 
	BYTE		N05     Fs4 
	BYTE		N05     An4 
	BYTE		N05     Cn5 
	BYTE	W08
	BYTE		        Cn4 
	BYTE		N05     Dn4 
	BYTE		N05     Fs4 
	BYTE		N05     An4 
	BYTE	W08
	BYTE		        Dn4 
	BYTE		N05     Fs4 
	BYTE		N05     An4 
	BYTE		N05     Cn5 
	BYTE	W08
	BYTE	PEND
// 008   ----------------------------------------
	BYTE		N12     Dn4 
	BYTE		N12     Gn4 
	BYTE		N12     As4 
	BYTE	W48
	BYTE		        Cn4 
	BYTE		N12     Fn4 
	BYTE		N12     An4 
	BYTE	W48
// 009   ----------------------------------------
	BYTE		        Ds4 
	BYTE		N12     Gn4 
	BYTE		N12     As4 
	BYTE	W48
	BYTE		        Ds4 
	BYTE		N12     Gn4 
	BYTE		N12     Cn5 
	BYTE	W48
// 010   ----------------------------------------
	BYTE	PATT
	 POIN2	SerpentsFangs_5_006
// 011   ----------------------------------------
	BYTE	PATT
	 POIN2	SerpentsFangs_5_007
// 012   ----------------------------------------
SerpentsFangs_5_012:
	BYTE		TIE     Gn4   v100
	BYTE		N96     As4 
	BYTE		TIE     Ds5 
	BYTE	W96
	BYTE	PEND
// 013   ----------------------------------------
	BYTE		        Cn5 
	BYTE	W96
	BYTE		EOT     Gn4 
	BYTE		        Ds5 
// 014   ----------------------------------------
	BYTE		N96     An4 
	BYTE		N96     Fn5 
	BYTE	W96
// 015   ----------------------------------------
	BYTE		        Gn4 
	BYTE		N96     As4 
	BYTE		N96     En5 
	BYTE	W96
	BYTE		EOT     Cn5 
// 016   ----------------------------------------
	BYTE		N96     An4 
	BYTE		N96     Dn5 
	BYTE		N96     Fn5 
	BYTE	W96
// 017   ----------------------------------------
	BYTE	PATT
	 POIN2	SerpentsFangs_5_012
// 018   ----------------------------------------
	BYTE		N96     Cn5   v100
	BYTE	W96
	BYTE		EOT     Gn4 
	BYTE		        Ds5 
// 019   ----------------------------------------
	BYTE		N48     Fn4 
	BYTE		N48     An4 
	BYTE		N48     Cn5 
	BYTE	W48
	BYTE		N42     Cn4 
	BYTE		N42     Fs4 
	BYTE		N42     An4 
	BYTE		N42     Dn5 
	BYTE	W48
// 020   ----------------------------------------
SerpentsFangs_5_020:
	BYTE		N15     As4   v100
	BYTE		N15     Dn5 
	BYTE		N15     Gn5 
	BYTE	W16
	BYTE		        Gn4 
	BYTE		N15     As4 
	BYTE		N15     Dn5 
	BYTE	W16
	BYTE		        As4 
	BYTE		N15     Dn5 
	BYTE		N15     Gn5 
	BYTE	W16
	BYTE		        An4 
	BYTE		N15     Cn5 
	BYTE		N15     Fn5 
	BYTE	W16
	BYTE		        Fn4 
	BYTE		N15     An4 
	BYTE		N15     Cn5 
	BYTE	W16
	BYTE		        An4 
	BYTE		N15     Cn5 
	BYTE		N15     Fn5 
	BYTE	W16
	BYTE	PEND
// 021   ----------------------------------------
SerpentsFangs_5_021:
	BYTE		N15     Gn4   v100
	BYTE		N15     As4 
	BYTE		N15     Ds5 
	BYTE	W16
	BYTE		        Ds4 
	BYTE		N15     Gn4 
	BYTE		N15     As4 
	BYTE	W16
	BYTE		        Gn4 
	BYTE		N15     As4 
	BYTE		N15     Ds5 
	BYTE	W16
	BYTE		        Fs4 
	BYTE		N15     An4 
	BYTE		N15     Dn5 
	BYTE	W16
	BYTE		        Gn4 
	BYTE		N15     Bn4 
	BYTE		N15     En5 
	BYTE	W16
	BYTE		        An4 
	BYTE		N15     Cn5 
	BYTE		N15     Fs5 
	BYTE	W16
	BYTE	PEND
// 022   ----------------------------------------
	BYTE	PATT
	 POIN2	SerpentsFangs_5_020
// 023   ----------------------------------------
	BYTE	PATT
	 POIN2	SerpentsFangs_5_021
// 024   ----------------------------------------
	BYTE	PATT
	 POIN2	SerpentsFangs_5_020
// 025   ----------------------------------------
	BYTE	PATT
	 POIN2	SerpentsFangs_5_021
// 026   ----------------------------------------
	BYTE	PATT
	 POIN2	SerpentsFangs_5_020
// 027   ----------------------------------------
	BYTE	PATT
	 POIN2	SerpentsFangs_5_021
// 028   ----------------------------------------
	BYTE		TIE     Ds4   v100
	BYTE		TIE     Gn4 
	BYTE		TIE     As4 
	BYTE		N48     As5 
	BYTE	W48
	BYTE		        An5 
	BYTE	W48
// 029   ----------------------------------------
	BYTE		        Gn5 
	BYTE	W48
	BYTE		N24     An5 
	BYTE	W24
	BYTE		        As5 
	BYTE	W18
	BYTE		EOT     Ds4 
	BYTE		        Gn4 
	BYTE		        As4 
	BYTE	W06
// 030   ----------------------------------------
	BYTE		TIE     Ds4 
	BYTE		TIE     Gn4 
	BYTE		TIE     Cn5 
	BYTE		N48     As5 
	BYTE	W48
	BYTE		        An5 
	BYTE	W48
// 031   ----------------------------------------
	BYTE		        Gn5 
	BYTE	W48
	BYTE		EOT     Ds4 
	BYTE		        Gn4 
	BYTE		        Cn5 
	BYTE		N08     Ds4 
	BYTE		N08     Gn4 
	BYTE		N08     Cn5 
	BYTE		N08     Gn5 
	BYTE	W08
	BYTE		        Ds4 
	BYTE		N08     Gn4 
	BYTE		N08     Cn5 
	BYTE		N08     Fn5 
	BYTE	W08
	BYTE		        Ds4 
	BYTE		N08     Gn4 
	BYTE		N08     Cn5 
	BYTE		N08     Ds5 
	BYTE	W08
	BYTE		        Cn4 
	BYTE		N08     Ds4 
	BYTE		N08     Gn4 
	BYTE		N08     Dn5 
	BYTE	W08
	BYTE		        Cn4 
	BYTE		N08     Ds4 
	BYTE		N08     Gn4 
	BYTE		N08     Cn5 
	BYTE	W08
	BYTE		N07     Cn4 
	BYTE		N07     Ds4 
	BYTE		N07     Gn4 
	BYTE		N07     As4 
	BYTE	W07
	BYTE	GoTo
	 POIN2	SerpentsFangs_5_B1
SerpentsFangs_5_B2:
	BYTE	FINE

//**************** Track 6 (Midi-Chn.6) ****************//

SerpentsFangs_6:
	BYTE	KEYSH   SerpentsFangs_key+0
SerpentsFangs_6_B1:
// 000   ----------------------------------------
	BYTE		VOICE   50
	BYTE		MODT    0
	BYTE		LFOS    44
	BYTE		PAN     c_v-8
	BYTE		VOL     119*SerpentsFangs_mvl/mxv
	BYTE	W96
// 001   ----------------------------------------
	BYTE	W72
	BYTE		N07     Gn1   v127
	BYTE	W08
	BYTE		        An1 
	BYTE	W08
	BYTE		        As1 
	BYTE	W08
// 002   ----------------------------------------
	BYTE		N20     An1 
	BYTE	W24
	BYTE		        Cs2 
	BYTE	W24
	BYTE		        An1 
	BYTE	W24
	BYTE		        Cs2 
	BYTE	W24
// 003   ----------------------------------------
	BYTE		        An1 
	BYTE	W24
	BYTE		        Dn2 
	BYTE	W24
	BYTE		        An1 
	BYTE	W24
	BYTE		        Dn2 
	BYTE	W24
// 004   ----------------------------------------
SerpentsFangs_6_004:
	BYTE		N20     Gn1   v127
	BYTE	W24
	BYTE		        Gn2 
	BYTE	W24
	BYTE		        Fn1 
	BYTE	W24
	BYTE		        Fn2 
	BYTE	W24
	BYTE	PEND
// 005   ----------------------------------------
SerpentsFangs_6_005:
	BYTE		N20     Ds1   v127
	BYTE	W24
	BYTE		        Ds2 
	BYTE	W24
	BYTE		        Cn1 
	BYTE	W24
	BYTE		        Cn2 
	BYTE	W24
	BYTE	PEND
// 006   ----------------------------------------
SerpentsFangs_6_006:
	BYTE		N20     An1   v127
	BYTE	W24
	BYTE		        An2 
	BYTE	W24
	BYTE		        Fn1 
	BYTE	W24
	BYTE		        Fn2 
	BYTE	W24
	BYTE	PEND
// 007   ----------------------------------------
SerpentsFangs_6_007:
	BYTE		N20     As1   v127
	BYTE	W24
	BYTE		        As2 
	BYTE	W24
	BYTE		        Fs1 
	BYTE	W24
	BYTE		        Fs2 
	BYTE	W24
	BYTE	PEND
// 008   ----------------------------------------
	BYTE	PATT
	 POIN2	SerpentsFangs_6_004
// 009   ----------------------------------------
	BYTE	PATT
	 POIN2	SerpentsFangs_6_005
// 010   ----------------------------------------
	BYTE	PATT
	 POIN2	SerpentsFangs_6_006
// 011   ----------------------------------------
	BYTE	PATT
	 POIN2	SerpentsFangs_6_007
// 012   ----------------------------------------
SerpentsFangs_6_012:
	BYTE		N20     Ds1   v127
	BYTE	W24
	BYTE		        Ds2 
	BYTE	W24
	BYTE		        Ds1 
	BYTE	W24
	BYTE		        Ds2 
	BYTE	W24
	BYTE	PEND
// 013   ----------------------------------------
SerpentsFangs_6_013:
	BYTE		N20     Gn1   v127
	BYTE	W24
	BYTE		        Gn2 
	BYTE	W24
	BYTE		        Gn1 
	BYTE	W24
	BYTE		        Gn2 
	BYTE	W24
	BYTE	PEND
// 014   ----------------------------------------
SerpentsFangs_6_014:
	BYTE		N20     Fn1   v127
	BYTE	W24
	BYTE		        Fn2 
	BYTE	W24
	BYTE		        Fn1 
	BYTE	W24
	BYTE		        Fn2 
	BYTE	W24
	BYTE	PEND
// 015   ----------------------------------------
	BYTE		        Cn1 
	BYTE	W24
	BYTE		        Cn2 
	BYTE	W24
	BYTE		        Cn1 
	BYTE	W24
	BYTE		        Cn2 
	BYTE	W24
// 016   ----------------------------------------
	BYTE	PATT
	 POIN2	SerpentsFangs_6_014
// 017   ----------------------------------------
	BYTE	PATT
	 POIN2	SerpentsFangs_6_012
// 018   ----------------------------------------
	BYTE	PATT
	 POIN2	SerpentsFangs_6_013
// 019   ----------------------------------------
	BYTE		N20     An1   v127
	BYTE	W24
	BYTE		        An2 
	BYTE	W24
	BYTE		        Fs1 
	BYTE	W24
	BYTE		        Fs2 
	BYTE	W24
// 020   ----------------------------------------
	BYTE	PATT
	 POIN2	SerpentsFangs_6_004
// 021   ----------------------------------------
SerpentsFangs_6_021:
	BYTE		N20     Ds1   v127
	BYTE	W24
	BYTE		        Ds2 
	BYTE	W24
	BYTE		        Dn1 
	BYTE	W24
	BYTE		        Dn2 
	BYTE	W24
	BYTE	PEND
// 022   ----------------------------------------
	BYTE	PATT
	 POIN2	SerpentsFangs_6_004
// 023   ----------------------------------------
	BYTE	PATT
	 POIN2	SerpentsFangs_6_021
// 024   ----------------------------------------
	BYTE	PATT
	 POIN2	SerpentsFangs_6_004
// 025   ----------------------------------------
	BYTE	PATT
	 POIN2	SerpentsFangs_6_021
// 026   ----------------------------------------
	BYTE	PATT
	 POIN2	SerpentsFangs_6_004
// 027   ----------------------------------------
	BYTE	PATT
	 POIN2	SerpentsFangs_6_021
// 028   ----------------------------------------
SerpentsFangs_6_028:
	BYTE		N20     Ds1   v127
	BYTE	W24
	BYTE		        As1 
	BYTE	W24
	BYTE		        Ds1 
	BYTE	W24
	BYTE		        As1 
	BYTE	W24
	BYTE	PEND
// 029   ----------------------------------------
	BYTE	PATT
	 POIN2	SerpentsFangs_6_028
// 030   ----------------------------------------
	BYTE		N20     Gn1   v127
	BYTE	W24
	BYTE		        Cn2 
	BYTE	W24
	BYTE		        Gn1 
	BYTE	W24
	BYTE		        Cn2 
	BYTE	W24
// 031   ----------------------------------------
	BYTE		        Gn1 
	BYTE	W24
	BYTE		        Cn2 
	BYTE	W24
	BYTE		        Gn1 
	BYTE	W24
	BYTE		        Cn2 
	BYTE	W23
	BYTE	GoTo
	 POIN2	SerpentsFangs_6_B1
SerpentsFangs_6_B2:
	BYTE	FINE

//******************************************************//
	ALIGN 4

SerpentsFangs:
	BYTE	6	// NumTrks
	BYTE	0	// NumBlks
	BYTE	SerpentsFangs_pri	// Priority
	BYTE	SerpentsFangs_rev	// Reverb.

	POIN2	SerpentsFangs_grp

	POIN2	SerpentsFangs_1
	POIN2	SerpentsFangs_2
	POIN2	SerpentsFangs_3
	POIN2	SerpentsFangs_4
	POIN2	SerpentsFangs_5
	POIN2	SerpentsFangs_6

	
