	.include "MPlayDef.s"

	.equ	feb20250128191355_grp, voicegroup000
	.equ	feb20250128191355_pri, 0
	.equ	feb20250128191355_rev, 0
	.equ	feb20250128191355_mvl, 31
	.equ	feb20250128191355_key, 0
	.equ	feb20250128191355_tbs, 1
	.equ	feb20250128191355_exg, 0
	.equ	feb20250128191355_cmp, 1

	.section .rodata
	.global	feb20250128191355
	.align	2

@**************** Track 1 (Midi-Chn.1) ****************@

feb20250128191355_1:
	.byte	KEYSH , feb20250128191355_key+0
feb20250128191355_1_B1:
@ 000   ----------------------------------------
	.byte	TEMPO , 95*feb20250128191355_tbs/2
	.byte		VOICE , 60
	.byte		MODT  , 0
	.byte		LFOS  , 44
	.byte		VOL   , 127*feb20250128191355_mvl/mxv
	.byte		PAN   , c_v+0
	.byte		N36   , Cn3 , v127
	.byte	W36
	.byte		N12   , Gn3 
	.byte	W12
	.byte		TIE   
	.byte	W48
@ 001   ----------------------------------------
	.byte	W90
	.byte		EOT   
	.byte	W06
@ 002   ----------------------------------------
feb20250128191355_1_002:
	.byte		N36   , Fn3 , v127
	.byte	W36
	.byte		N12   , Dn3 
	.byte	W12
	.byte		TIE   
	.byte	W48
	.byte	PEND
@ 003   ----------------------------------------
	.byte	W90
	.byte		EOT   
	.byte	W06
@ 004   ----------------------------------------
feb20250128191355_1_004:
	.byte		N36   , Cn3 , v127
	.byte	W36
	.byte		N12   , Gn3 
	.byte	W12
	.byte		TIE   
	.byte	W48
	.byte	PEND
@ 005   ----------------------------------------
	.byte	W90
	.byte		EOT   
	.byte	W06
@ 006   ----------------------------------------
	.byte	PATT
	 .word	feb20250128191355_1_002
@ 007   ----------------------------------------
	.byte	W90
	.byte		EOT   , Dn3 
	.byte	W06
@ 008   ----------------------------------------
	.byte	PATT
	 .word	feb20250128191355_1_004
@ 009   ----------------------------------------
	.byte	W90
	.byte		EOT   , Gn3 
	.byte	W06
@ 010   ----------------------------------------
	.byte	PATT
	 .word	feb20250128191355_1_002
@ 011   ----------------------------------------
	.byte	W90
	.byte		EOT   , Dn3 
	.byte	W06
@ 012   ----------------------------------------
	.byte	PATT
	 .word	feb20250128191355_1_004
@ 013   ----------------------------------------
	.byte	W90
	.byte		EOT   , Gn3 
	.byte	W06
@ 014   ----------------------------------------
	.byte	PATT
	 .word	feb20250128191355_1_002
@ 015   ----------------------------------------
	.byte	W90
	.byte		EOT   , Dn3 
	.byte	W06
@ 016   ----------------------------------------
feb20250128191355_1_016:
	.byte		N60   , Gn3 , v127
	.byte	W60
	.byte		N12   , Fn3 
	.byte	W12
	.byte		        Ds3 
	.byte	W12
	.byte		        Fn3 
	.byte	W12
	.byte	PEND
@ 017   ----------------------------------------
feb20250128191355_1_017:
	.byte		N48   , Gn3 , v127
	.byte	W48
	.byte		N24   , As3 
	.byte	W24
	.byte		        Cn4 
	.byte	W24
	.byte	PEND
@ 018   ----------------------------------------
feb20250128191355_1_018:
	.byte		N60   , As3 , v127
	.byte	W60
	.byte		N12   , Gs3 
	.byte	W12
	.byte		        Gn3 
	.byte	W12
	.byte		        Fn3 
	.byte	W12
	.byte	PEND
@ 019   ----------------------------------------
feb20250128191355_1_019:
	.byte		N48   , Ds3 , v127
	.byte	W48
	.byte		N42   , Dn3 
	.byte	W48
	.byte	PEND
@ 020   ----------------------------------------
feb20250128191355_1_020:
	.byte		N60   , Cn3 , v127
	.byte	W60
	.byte		N12   , Dn3 
	.byte	W12
	.byte		        Ds3 
	.byte	W12
	.byte		        Fn3 
	.byte	W12
	.byte	PEND
@ 021   ----------------------------------------
feb20250128191355_1_021:
	.byte		N24   , Gn3 , v127
	.byte	W24
	.byte		        As3 
	.byte	W24
	.byte		        Gs3 
	.byte	W24
	.byte		        Gn3 
	.byte	W24
	.byte	PEND
@ 022   ----------------------------------------
feb20250128191355_1_022:
	.byte		N36   , Fn3 , v127
	.byte	W36
	.byte		N12   , Gn3 
	.byte	W12
	.byte		N24   , Gs3 
	.byte	W24
	.byte		        Gn3 
	.byte	W24
	.byte	PEND
@ 023   ----------------------------------------
	.byte		N90   , Fn3 
	.byte	W96
@ 024   ----------------------------------------
	.byte	PATT
	 .word	feb20250128191355_1_016
@ 025   ----------------------------------------
	.byte	PATT
	 .word	feb20250128191355_1_017
@ 026   ----------------------------------------
	.byte	PATT
	 .word	feb20250128191355_1_018
@ 027   ----------------------------------------
	.byte	PATT
	 .word	feb20250128191355_1_019
@ 028   ----------------------------------------
	.byte	PATT
	 .word	feb20250128191355_1_020
@ 029   ----------------------------------------
	.byte	PATT
	 .word	feb20250128191355_1_021
@ 030   ----------------------------------------
	.byte	PATT
	 .word	feb20250128191355_1_022
@ 031   ----------------------------------------
	.byte		N90   , Fn3 , v127
	.byte	W96
@ 032   ----------------------------------------
	.byte		N48   , Gn3 
	.byte	W48
	.byte		        Fn3 
	.byte	W48
@ 033   ----------------------------------------
	.byte		        En3 
	.byte	W48
	.byte		N24   , Fn3 
	.byte	W24
	.byte		        Gn3 
	.byte	W24
@ 034   ----------------------------------------
	.byte		N12   , As3 
	.byte	W12
	.byte		        Gs3 
	.byte	W12
	.byte		        Gn3 
	.byte	W12
	.byte		        Fn3 
	.byte	W12
	.byte		N36   , Ds3 
	.byte	W36
	.byte		N12   , Fn3 
	.byte	W12
@ 035   ----------------------------------------
	.byte		N90   , Gn3 
	.byte	W96
@ 036   ----------------------------------------
	.byte		N48   , Fn3 
	.byte	W48
	.byte		        En3 
	.byte	W48
@ 037   ----------------------------------------
	.byte		        Dn3 
	.byte	W48
	.byte		N24   , En3 
	.byte	W24
	.byte		        Fn3 
	.byte	W24
@ 038   ----------------------------------------
	.byte		N12   , Dn3 
	.byte	W12
	.byte		        Cn3 
	.byte	W12
	.byte		        As2 
	.byte	W12
	.byte		        Cn3 
	.byte	W12
	.byte		N24   , Dn3 
	.byte	W24
	.byte		        Ds3 
	.byte	W24
@ 039   ----------------------------------------
	.byte		N90   , Fn3 
	.byte	W96
@ 040   ----------------------------------------
	.byte		N48   , Gs3 
	.byte	W48
	.byte		        Gn3 
	.byte	W48
@ 041   ----------------------------------------
	.byte		        Fn3 
	.byte	W48
	.byte		N24   , Gn3 
	.byte	W24
	.byte		        Gs3 
	.byte	W24
@ 042   ----------------------------------------
	.byte		N12   , As3 
	.byte	W12
	.byte		        Gs3 
	.byte	W12
	.byte		        Gn3 
	.byte	W12
	.byte		        Fn3 
	.byte	W12
	.byte		N36   , Gn3 
	.byte	W36
	.byte		N12   , Gs3 
	.byte	W12
@ 043   ----------------------------------------
	.byte		N90   , As3 
	.byte	W96
@ 044   ----------------------------------------
	.byte		N36   , Cn4 
	.byte	W36
	.byte		N12   , Dn4 
	.byte	W12
	.byte		N24   , Ds4 
	.byte	W24
	.byte		        Dn4 
	.byte	W24
@ 045   ----------------------------------------
	.byte		N90   , Cn4 
	.byte	W96
@ 046   ----------------------------------------
	.byte		N36   , Dn4 
	.byte	W36
	.byte		N12   , Ds4 
	.byte	W12
	.byte		N24   , Fn4 
	.byte	W24
	.byte		        Ds4 
	.byte	W24
@ 047   ----------------------------------------
	.byte		N90   , Dn4 
	.byte	W92
	.byte	GOTO
	 .word	feb20250128191355_1_B1
feb20250128191355_1_B2:
	.byte	FINE

@**************** Track 2 (Midi-Chn.2) ****************@

feb20250128191355_2:
	.byte	KEYSH , feb20250128191355_key+0
feb20250128191355_2_B1:
@ 000   ----------------------------------------
	.byte		VOICE , 62
	.byte		MODT  , 0
	.byte		LFOS  , 44
	.byte		VOL   , 127*feb20250128191355_mvl/mxv
	.byte		PAN   , c_v-64
	.byte	W48
	.byte		N36   , Cn3 , v076
	.byte	W36
	.byte		N12   , Gn3 
	.byte	W12
@ 001   ----------------------------------------
	.byte		N90   
	.byte	W96
@ 002   ----------------------------------------
feb20250128191355_2_002:
	.byte	W48
	.byte		N36   , Fn3 , v076
	.byte	W36
	.byte		N12   , Dn3 
	.byte	W12
	.byte	PEND
@ 003   ----------------------------------------
	.byte		N90   
	.byte	W96
@ 004   ----------------------------------------
feb20250128191355_2_004:
	.byte	W48
	.byte		N36   , Cn3 , v076
	.byte	W36
	.byte		N12   , Gn3 
	.byte	W12
	.byte	PEND
@ 005   ----------------------------------------
	.byte		N90   
	.byte	W96
@ 006   ----------------------------------------
	.byte	PATT
	 .word	feb20250128191355_2_002
@ 007   ----------------------------------------
	.byte		N90   , Dn3 , v076
	.byte	W96
@ 008   ----------------------------------------
	.byte	PATT
	 .word	feb20250128191355_2_004
@ 009   ----------------------------------------
	.byte		N90   , Gn3 , v076
	.byte	W96
@ 010   ----------------------------------------
	.byte	PATT
	 .word	feb20250128191355_2_002
@ 011   ----------------------------------------
	.byte		N90   , Dn3 , v076
	.byte	W96
@ 012   ----------------------------------------
	.byte	PATT
	 .word	feb20250128191355_2_004
@ 013   ----------------------------------------
	.byte		N90   , Gn3 , v076
	.byte	W96
@ 014   ----------------------------------------
	.byte	PATT
	 .word	feb20250128191355_2_002
@ 015   ----------------------------------------
	.byte		N90   , Dn3 , v076
	.byte	W96
@ 016   ----------------------------------------
	.byte	W96
@ 017   ----------------------------------------
	.byte	W96
@ 018   ----------------------------------------
	.byte	W96
@ 019   ----------------------------------------
	.byte	W96
@ 020   ----------------------------------------
	.byte	W96
@ 021   ----------------------------------------
	.byte	W96
@ 022   ----------------------------------------
	.byte	W96
@ 023   ----------------------------------------
	.byte	W96
@ 024   ----------------------------------------
feb20250128191355_2_024:
	.byte		N72   , Cn4 , v076
	.byte	W72
	.byte		N24   , Dn4 
	.byte	W24
	.byte	PEND
@ 025   ----------------------------------------
	.byte		N90   , Ds4 
	.byte	W96
@ 026   ----------------------------------------
	.byte		N72   , As3 
	.byte	W72
	.byte		N24   , Cn4 
	.byte	W24
@ 027   ----------------------------------------
	.byte		N90   , Dn4 
	.byte	W96
@ 028   ----------------------------------------
	.byte	PATT
	 .word	feb20250128191355_2_024
@ 029   ----------------------------------------
	.byte		N90   , Ds4 , v076
	.byte	W96
@ 030   ----------------------------------------
	.byte		N72   , Fn4 
	.byte	W72
	.byte		N24   , Gn4 
	.byte	W24
@ 031   ----------------------------------------
	.byte		N90   , Gs4 
	.byte	W96
@ 032   ----------------------------------------
	.byte	W96
@ 033   ----------------------------------------
	.byte	W96
@ 034   ----------------------------------------
feb20250128191355_2_034:
	.byte		N06   , Ds3 , v076
	.byte	W24
	.byte		        As2 
	.byte	W24
	.byte		        Ds3 
	.byte	W24
	.byte		        As2 
	.byte	W24
	.byte	PEND
@ 035   ----------------------------------------
	.byte	PATT
	 .word	feb20250128191355_2_034
@ 036   ----------------------------------------
	.byte	W96
@ 037   ----------------------------------------
	.byte	W96
@ 038   ----------------------------------------
feb20250128191355_2_038:
	.byte		N06   , As2 , v076
	.byte	W24
	.byte		        Fn2 
	.byte	W24
	.byte		        As2 
	.byte	W24
	.byte		        Fn2 
	.byte	W24
	.byte	PEND
@ 039   ----------------------------------------
	.byte	PATT
	 .word	feb20250128191355_2_038
@ 040   ----------------------------------------
	.byte	W96
@ 041   ----------------------------------------
	.byte	W96
@ 042   ----------------------------------------
feb20250128191355_2_042:
	.byte		N06   , Dn3 , v076
	.byte	W24
	.byte		        As2 
	.byte	W24
	.byte		        Dn3 
	.byte	W24
	.byte		        As2 
	.byte	W24
	.byte	PEND
@ 043   ----------------------------------------
	.byte	PATT
	 .word	feb20250128191355_2_042
@ 044   ----------------------------------------
	.byte	W96
@ 045   ----------------------------------------
	.byte	W96
@ 046   ----------------------------------------
	.byte		N06   , Fn3 , v076
	.byte	W24
	.byte		        Dn3 
	.byte	W24
	.byte		        Fn3 
	.byte	W24
	.byte		        Dn3 
	.byte	W24
@ 047   ----------------------------------------
	.byte		        Fn3 
	.byte	W24
	.byte		        Dn3 
	.byte	W24
	.byte		        Fn3 
	.byte	W24
	.byte		        Dn3 
	.byte	W20
	.byte	GOTO
	 .word	feb20250128191355_2_B1
feb20250128191355_2_B2:
	.byte	FINE

@**************** Track 3 (Midi-Chn.3) ****************@

feb20250128191355_3:
	.byte	KEYSH , feb20250128191355_key+0
feb20250128191355_3_B1:
@ 000   ----------------------------------------
	.byte		VOICE , 61
	.byte		MODT  , 0
	.byte		LFOS  , 44
	.byte		VOL   , 127*feb20250128191355_mvl/mxv
	.byte		PAN   , c_v+63
	.byte	W96
@ 001   ----------------------------------------
feb20250128191355_3_001:
	.byte		N36   , Cn4 , v076
	.byte	W36
	.byte		N12   , Gn4 
	.byte	W12
	.byte		N42   
	.byte	W48
	.byte	PEND
@ 002   ----------------------------------------
	.byte	W96
@ 003   ----------------------------------------
feb20250128191355_3_003:
	.byte		N36   , Fn4 , v076
	.byte	W36
	.byte		N12   , Dn4 
	.byte	W12
	.byte		N42   
	.byte	W48
	.byte	PEND
@ 004   ----------------------------------------
	.byte	W96
@ 005   ----------------------------------------
	.byte	PATT
	 .word	feb20250128191355_3_001
@ 006   ----------------------------------------
	.byte	W96
@ 007   ----------------------------------------
	.byte	PATT
	 .word	feb20250128191355_3_003
@ 008   ----------------------------------------
	.byte	W96
@ 009   ----------------------------------------
	.byte	PATT
	 .word	feb20250128191355_3_001
@ 010   ----------------------------------------
	.byte	W96
@ 011   ----------------------------------------
	.byte	PATT
	 .word	feb20250128191355_3_003
@ 012   ----------------------------------------
	.byte	W96
@ 013   ----------------------------------------
	.byte	PATT
	 .word	feb20250128191355_3_001
@ 014   ----------------------------------------
	.byte	W96
@ 015   ----------------------------------------
	.byte	PATT
	 .word	feb20250128191355_3_003
@ 016   ----------------------------------------
	.byte	W96
@ 017   ----------------------------------------
	.byte	W96
@ 018   ----------------------------------------
	.byte	W96
@ 019   ----------------------------------------
	.byte	W96
@ 020   ----------------------------------------
	.byte	W96
@ 021   ----------------------------------------
	.byte	W96
@ 022   ----------------------------------------
	.byte	W96
@ 023   ----------------------------------------
	.byte	W96
@ 024   ----------------------------------------
	.byte	W96
@ 025   ----------------------------------------
feb20250128191355_3_025:
	.byte		N12   , Gn4 , v076
	.byte	W12
	.byte		        Fn4 
	.byte	W12
	.byte		        Ds4 
	.byte	W12
	.byte		        Fn4 
	.byte	W12
	.byte		N42   , Gn4 
	.byte	W48
	.byte	PEND
@ 026   ----------------------------------------
	.byte	W96
@ 027   ----------------------------------------
feb20250128191355_3_027:
	.byte		N12   , Gs4 , v076
	.byte	W12
	.byte		        Gn4 
	.byte	W12
	.byte		        Fn4 
	.byte	W12
	.byte		        Gn4 
	.byte	W12
	.byte		N42   , Gs4 
	.byte	W48
	.byte	PEND
@ 028   ----------------------------------------
	.byte	W96
@ 029   ----------------------------------------
	.byte	PATT
	 .word	feb20250128191355_3_025
@ 030   ----------------------------------------
	.byte	W96
@ 031   ----------------------------------------
	.byte	PATT
	 .word	feb20250128191355_3_027
@ 032   ----------------------------------------
	.byte	W96
@ 033   ----------------------------------------
	.byte	W96
@ 034   ----------------------------------------
feb20250128191355_3_034:
	.byte	W12
	.byte		N12   , As3 , v076
	.byte	W12
	.byte		        Gn3 
	.byte	W12
	.byte		N04   , As3 
	.byte	W24
	.byte		N12   
	.byte	W12
	.byte		        Gn3 
	.byte	W12
	.byte		N04   , As3 
	.byte	W12
	.byte	PEND
@ 035   ----------------------------------------
	.byte	PATT
	 .word	feb20250128191355_3_034
@ 036   ----------------------------------------
	.byte	W96
@ 037   ----------------------------------------
	.byte	W96
@ 038   ----------------------------------------
feb20250128191355_3_038:
	.byte	W12
	.byte		N12   , Dn4 , v076
	.byte	W12
	.byte		        As3 
	.byte	W12
	.byte		N04   , Dn4 
	.byte	W24
	.byte		N12   
	.byte	W12
	.byte		        As3 
	.byte	W12
	.byte		N04   , Dn4 
	.byte	W12
	.byte	PEND
@ 039   ----------------------------------------
	.byte	PATT
	 .word	feb20250128191355_3_038
@ 040   ----------------------------------------
	.byte	W96
@ 041   ----------------------------------------
	.byte	W96
@ 042   ----------------------------------------
	.byte	PATT
	 .word	feb20250128191355_3_038
@ 043   ----------------------------------------
	.byte	PATT
	 .word	feb20250128191355_3_038
@ 044   ----------------------------------------
	.byte	W96
@ 045   ----------------------------------------
	.byte	W96
@ 046   ----------------------------------------
	.byte	W12
	.byte		N12   , Fn4 , v076
	.byte	W12
	.byte		        Dn4 
	.byte	W12
	.byte		N04   , Fn4 
	.byte	W24
	.byte		N12   
	.byte	W12
	.byte		        Dn4 
	.byte	W12
	.byte		N04   , Fn4 
	.byte	W12
@ 047   ----------------------------------------
	.byte	W12
	.byte		N12   
	.byte	W12
	.byte		        Dn4 
	.byte	W12
	.byte		N04   , Fn4 
	.byte	W24
	.byte		N12   
	.byte	W12
	.byte		        Dn4 
	.byte	W12
	.byte		N04   , Fn4 
	.byte	W08
	.byte	GOTO
	 .word	feb20250128191355_3_B1
feb20250128191355_3_B2:
	.byte	FINE

@**************** Track 4 (Midi-Chn.4) ****************@

feb20250128191355_4:
	.byte	KEYSH , feb20250128191355_key+0
feb20250128191355_4_B1:
@ 000   ----------------------------------------
	.byte		VOICE , 48
	.byte		MODT  , 0
	.byte		LFOS  , 44
	.byte		VOL   , 127*feb20250128191355_mvl/mxv
	.byte		PAN   , c_v+0
	.byte	W96
@ 001   ----------------------------------------
	.byte	W96
@ 002   ----------------------------------------
	.byte	W96
@ 003   ----------------------------------------
	.byte	W96
@ 004   ----------------------------------------
	.byte		TIE   , Cn1 , v127
	.byte	W96
@ 005   ----------------------------------------
	.byte	W90
	.byte		EOT   
	.byte	W06
@ 006   ----------------------------------------
	.byte		TIE   , As0 
	.byte	W96
@ 007   ----------------------------------------
	.byte	W90
	.byte		EOT   
	.byte	W06
@ 008   ----------------------------------------
	.byte		TIE   , Cn1 
	.byte	W96
@ 009   ----------------------------------------
	.byte	W90
	.byte		EOT   
	.byte	W06
@ 010   ----------------------------------------
	.byte		TIE   , As0 
	.byte	W96
@ 011   ----------------------------------------
	.byte	W90
	.byte		EOT   
	.byte	W06
@ 012   ----------------------------------------
	.byte		N96   , Gs0 
	.byte	W96
@ 013   ----------------------------------------
	.byte		N90   
	.byte	W96
@ 014   ----------------------------------------
	.byte		N96   
	.byte	W96
@ 015   ----------------------------------------
	.byte		N90   
	.byte	W96
@ 016   ----------------------------------------
	.byte		TIE   , Cn1 
	.byte	W96
@ 017   ----------------------------------------
	.byte	W90
	.byte		EOT   
	.byte	W06
@ 018   ----------------------------------------
	.byte		TIE   , As0 
	.byte	W96
@ 019   ----------------------------------------
	.byte	W90
	.byte		EOT   
	.byte	W06
@ 020   ----------------------------------------
	.byte		TIE   , Cn1 
	.byte	W96
@ 021   ----------------------------------------
	.byte	W90
	.byte		EOT   
	.byte	W06
@ 022   ----------------------------------------
	.byte		TIE   , As0 
	.byte	W96
@ 023   ----------------------------------------
	.byte	W90
	.byte		EOT   
	.byte	W06
@ 024   ----------------------------------------
	.byte		TIE   , Cn1 
	.byte	W96
@ 025   ----------------------------------------
	.byte	W90
	.byte		EOT   
	.byte	W06
@ 026   ----------------------------------------
	.byte		TIE   , As0 
	.byte	W96
@ 027   ----------------------------------------
	.byte	W90
	.byte		EOT   
	.byte	W06
@ 028   ----------------------------------------
	.byte		N96   , Gs0 
	.byte	W96
@ 029   ----------------------------------------
	.byte		N90   
	.byte	W96
@ 030   ----------------------------------------
	.byte		N96   
	.byte	W96
@ 031   ----------------------------------------
	.byte		N90   
	.byte	W96
@ 032   ----------------------------------------
	.byte		TIE   , Cn1 
	.byte	W96
@ 033   ----------------------------------------
	.byte	W90
	.byte		EOT   
	.byte	W06
@ 034   ----------------------------------------
	.byte		TIE   , As0 
	.byte	W96
@ 035   ----------------------------------------
	.byte	W90
	.byte		EOT   
	.byte	W06
@ 036   ----------------------------------------
	.byte		TIE   , An0 
	.byte	W96
@ 037   ----------------------------------------
	.byte	W90
	.byte		EOT   
	.byte	W06
@ 038   ----------------------------------------
	.byte		TIE   , As0 
	.byte	W96
@ 039   ----------------------------------------
	.byte	W90
	.byte		EOT   
	.byte	W06
@ 040   ----------------------------------------
	.byte		TIE   , Cn1 
	.byte	W96
@ 041   ----------------------------------------
	.byte	W90
	.byte		EOT   
	.byte	W06
@ 042   ----------------------------------------
	.byte		TIE   , Dn1 
	.byte	W96
@ 043   ----------------------------------------
	.byte	W90
	.byte		EOT   
	.byte	W06
@ 044   ----------------------------------------
	.byte		TIE   , Cn1 
	.byte	W96
@ 045   ----------------------------------------
	.byte	W90
	.byte		EOT   
	.byte	W06
@ 046   ----------------------------------------
	.byte		N48   , Dn1 
	.byte	W48
	.byte		        Ds1 
	.byte	W48
@ 047   ----------------------------------------
	.byte		N90   , Fn1 
	.byte	W92
	.byte	GOTO
	 .word	feb20250128191355_4_B1
feb20250128191355_4_B2:
	.byte	FINE

@**************** Track 5 (Midi-Chn.5) ****************@

feb20250128191355_5:
	.byte	KEYSH , feb20250128191355_key+0
feb20250128191355_5_B1:
@ 000   ----------------------------------------
	.byte		VOICE , 49
	.byte		MODT  , 0
	.byte		LFOS  , 44
	.byte		VOL   , 127*feb20250128191355_mvl/mxv
	.byte		PAN   , c_v+32
	.byte	W96
@ 001   ----------------------------------------
	.byte	W96
@ 002   ----------------------------------------
	.byte	W96
@ 003   ----------------------------------------
	.byte	W96
@ 004   ----------------------------------------
	.byte	W96
@ 005   ----------------------------------------
	.byte	W96
@ 006   ----------------------------------------
	.byte	W96
@ 007   ----------------------------------------
	.byte	W96
@ 008   ----------------------------------------
	.byte		TIE   , Gn4 , v076
	.byte		TIE   , Cn5 
	.byte		TIE   , Ds5 
	.byte	W96
@ 009   ----------------------------------------
	.byte	W96
	.byte		EOT   , Gn4 
	.byte		        Cn5 
	.byte		        Ds5 
@ 010   ----------------------------------------
	.byte		TIE   , Fn4 
	.byte		TIE   , As4 
	.byte		TIE   , Dn5 
	.byte	W96
@ 011   ----------------------------------------
	.byte	W90
	.byte		EOT   , Fn4 
	.byte		        As4 
	.byte		        Dn5 
	.byte	W06
@ 012   ----------------------------------------
feb20250128191355_5_012:
	.byte		TIE   , Gs4 , v076
	.byte		TIE   , Cn5 
	.byte		TIE   , Ds5 
	.byte	W96
	.byte	PEND
@ 013   ----------------------------------------
	.byte	W90
	.byte		EOT   , Cn5 
	.byte		        Ds5 
	.byte	W06
@ 014   ----------------------------------------
	.byte		TIE   , Dn5 
	.byte		TIE   , Fn5 
	.byte	W96
@ 015   ----------------------------------------
	.byte	W90
	.byte		EOT   , Gs4 
	.byte		        Dn5 
	.byte		        Fn5 
	.byte	W06
@ 016   ----------------------------------------
feb20250128191355_5_016:
	.byte		N06   , Gn3 , v076
	.byte		N06   , Cn4 
	.byte		N06   , Ds4 
	.byte	W24
	.byte		        Gn3 
	.byte		N06   , Cn4 
	.byte		N06   , Ds4 
	.byte	W24
	.byte		        Gn3 
	.byte		N06   , Cn4 
	.byte		N06   , Ds4 
	.byte	W24
	.byte		        Gn3 
	.byte		N06   , Cn4 
	.byte		N06   , Ds4 
	.byte	W24
	.byte	PEND
@ 017   ----------------------------------------
	.byte	PATT
	 .word	feb20250128191355_5_016
@ 018   ----------------------------------------
feb20250128191355_5_018:
	.byte		N06   , Fn3 , v076
	.byte		N06   , As3 
	.byte		N06   , Dn4 
	.byte	W24
	.byte		        Fn3 
	.byte		N06   , As3 
	.byte		N06   , Dn4 
	.byte	W24
	.byte		        Fn3 
	.byte		N06   , As3 
	.byte		N06   , Dn4 
	.byte	W24
	.byte		        Fn3 
	.byte		N06   , As3 
	.byte		N06   , Dn4 
	.byte	W24
	.byte	PEND
@ 019   ----------------------------------------
	.byte	PATT
	 .word	feb20250128191355_5_018
@ 020   ----------------------------------------
	.byte	PATT
	 .word	feb20250128191355_5_016
@ 021   ----------------------------------------
	.byte	PATT
	 .word	feb20250128191355_5_016
@ 022   ----------------------------------------
	.byte	PATT
	 .word	feb20250128191355_5_018
@ 023   ----------------------------------------
	.byte	PATT
	 .word	feb20250128191355_5_018
@ 024   ----------------------------------------
	.byte	PATT
	 .word	feb20250128191355_5_016
@ 025   ----------------------------------------
	.byte	PATT
	 .word	feb20250128191355_5_016
@ 026   ----------------------------------------
	.byte	PATT
	 .word	feb20250128191355_5_018
@ 027   ----------------------------------------
	.byte	PATT
	 .word	feb20250128191355_5_018
@ 028   ----------------------------------------
feb20250128191355_5_028:
	.byte		N06   , Gs3 , v076
	.byte		N06   , Cn4 
	.byte		N06   , Ds4 
	.byte	W24
	.byte		        Gs3 
	.byte		N06   , Cn4 
	.byte		N06   , Ds4 
	.byte	W24
	.byte		        Gs3 
	.byte		N06   , Cn4 
	.byte		N06   , Ds4 
	.byte	W24
	.byte		        Gs3 
	.byte		N06   , Cn4 
	.byte		N06   , Ds4 
	.byte	W24
	.byte	PEND
@ 029   ----------------------------------------
	.byte	PATT
	 .word	feb20250128191355_5_028
@ 030   ----------------------------------------
feb20250128191355_5_030:
	.byte		N06   , Gs3 , v076
	.byte		N06   , Dn4 
	.byte		N06   , Fn4 
	.byte	W24
	.byte		        Gs3 
	.byte		N06   , Dn4 
	.byte		N06   , Fn4 
	.byte	W24
	.byte		        Gs3 
	.byte		N06   , Dn4 
	.byte		N06   , Fn4 
	.byte	W24
	.byte		        Gs3 
	.byte		N06   , Dn4 
	.byte		N06   , Fn4 
	.byte	W24
	.byte	PEND
@ 031   ----------------------------------------
	.byte	PATT
	 .word	feb20250128191355_5_030
@ 032   ----------------------------------------
	.byte		TIE   , En4 , v076
	.byte		TIE   , Gn4 
	.byte		TIE   , Cn5 
	.byte	W96
@ 033   ----------------------------------------
	.byte	W90
	.byte		EOT   , En4 
	.byte		        Gn4 
	.byte		        Cn5 
	.byte	W06
@ 034   ----------------------------------------
	.byte		TIE   , Ds4 
	.byte		TIE   , Gn4 
	.byte		TIE   , As4 
	.byte	W96
@ 035   ----------------------------------------
	.byte	W90
	.byte		EOT   , Ds4 
	.byte		        Gn4 
	.byte		        As4 
	.byte	W06
@ 036   ----------------------------------------
	.byte		TIE   , Dn4 
	.byte		TIE   , Fn4 
	.byte		TIE   , An4 
	.byte	W96
@ 037   ----------------------------------------
	.byte	W90
	.byte		EOT   , Dn4 
	.byte		        Fn4 
	.byte		        An4 
	.byte	W06
@ 038   ----------------------------------------
	.byte		TIE   , Dn4 
	.byte		TIE   , Fn4 
	.byte		TIE   , As4 
	.byte	W96
@ 039   ----------------------------------------
	.byte		N90   , Dn5 
	.byte	W90
	.byte		EOT   , Dn4 
	.byte		        Fn4 
	.byte		        As4 
	.byte	W06
@ 040   ----------------------------------------
	.byte	PATT
	 .word	feb20250128191355_5_012
@ 041   ----------------------------------------
	.byte	W90
	.byte		EOT   , Gs4 
	.byte		        Cn5 
	.byte		        Ds5 
	.byte	W06
@ 042   ----------------------------------------
	.byte		TIE   , Gn4 , v076
	.byte		TIE   , As4 
	.byte		TIE   , Dn5 
	.byte	W96
@ 043   ----------------------------------------
	.byte	W90
	.byte		EOT   , Gn4 
	.byte		        As4 
	.byte		        Dn5 
	.byte	W06
@ 044   ----------------------------------------
	.byte		TIE   , Fn4 
	.byte		TIE   , Gs4 
	.byte		TIE   , Cn5 
	.byte	W96
@ 045   ----------------------------------------
	.byte	W90
	.byte		EOT   , Fn4 
	.byte		        Gs4 
	.byte		        Cn5 
	.byte	W06
@ 046   ----------------------------------------
	.byte		TIE   , Fn4 
	.byte		TIE   , Gs4 
	.byte		TIE   , Dn5 
	.byte	W96
@ 047   ----------------------------------------
	.byte	W90
	.byte		EOT   , Fn4 
	.byte		        Gs4 
	.byte		        Dn5 
	.byte	W02
	.byte	GOTO
	 .word	feb20250128191355_5_B1
feb20250128191355_5_B2:
	.byte	FINE

@**************** Track 6 (Midi-Chn.6) ****************@

feb20250128191355_6:
	.byte	KEYSH , feb20250128191355_key+0
feb20250128191355_6_B1:
@ 000   ----------------------------------------
	.byte		VOICE , 127
	.byte		MODT  , 0
	.byte		LFOS  , 44
	.byte		VOL   , 127*feb20250128191355_mvl/mxv
	.byte		PAN   , c_v+0
	.byte	W96
@ 001   ----------------------------------------
	.byte	W96
@ 002   ----------------------------------------
	.byte	W96
@ 003   ----------------------------------------
	.byte	W96
@ 004   ----------------------------------------
	.byte	W96
@ 005   ----------------------------------------
	.byte	W96
@ 006   ----------------------------------------
	.byte	W96
@ 007   ----------------------------------------
	.byte	W96
@ 008   ----------------------------------------
feb20250128191355_6_008:
	.byte		N05   , Cn1 , v056
	.byte		N05   , En1 
	.byte		N05   , An2 
	.byte	W06
	.byte		        En1 
	.byte	W06
	.byte		N05   
	.byte	W06
	.byte		N05   
	.byte	W06
	.byte		N11   
	.byte	W12
	.byte		N11   
	.byte	W12
	.byte		N01   
	.byte	W01
	.byte		N01   
	.byte	W02
	.byte		N01   
	.byte	W01
	.byte		N01   
	.byte	W02
	.byte		N01   
	.byte	W01
	.byte		N01   
	.byte	W02
	.byte		N01   
	.byte	W01
	.byte		N01   
	.byte	W02
	.byte		N01   
	.byte	W01
	.byte		N01   
	.byte	W02
	.byte		N01   
	.byte	W01
	.byte		N01   
	.byte	W02
	.byte		N01   
	.byte	W01
	.byte		N01   
	.byte	W02
	.byte		N01   
	.byte	W01
	.byte		N01   
	.byte	W02
	.byte		N20   
	.byte	W24
	.byte	PEND
@ 009   ----------------------------------------
feb20250128191355_6_009:
	.byte		N05   , En1 , v056
	.byte	W06
	.byte		N05   
	.byte	W06
	.byte		N05   
	.byte	W06
	.byte		N05   
	.byte	W06
	.byte		N11   
	.byte	W12
	.byte		N11   
	.byte	W12
	.byte		N01   
	.byte	W01
	.byte		N01   
	.byte	W02
	.byte		N01   
	.byte	W01
	.byte		N01   
	.byte	W02
	.byte		N01   
	.byte	W01
	.byte		N01   
	.byte	W02
	.byte		N01   
	.byte	W01
	.byte		N01   
	.byte	W02
	.byte		N01   
	.byte	W01
	.byte		N01   
	.byte	W02
	.byte		N01   
	.byte	W01
	.byte		N01   
	.byte	W02
	.byte		N01   
	.byte	W01
	.byte		N01   
	.byte	W02
	.byte		N01   
	.byte	W01
	.byte		N01   
	.byte	W02
	.byte		N20   
	.byte	W24
	.byte	PEND
@ 010   ----------------------------------------
	.byte	PATT
	 .word	feb20250128191355_6_009
@ 011   ----------------------------------------
	.byte	PATT
	 .word	feb20250128191355_6_009
@ 012   ----------------------------------------
	.byte	PATT
	 .word	feb20250128191355_6_009
@ 013   ----------------------------------------
	.byte	PATT
	 .word	feb20250128191355_6_009
@ 014   ----------------------------------------
	.byte	PATT
	 .word	feb20250128191355_6_009
@ 015   ----------------------------------------
	.byte	PATT
	 .word	feb20250128191355_6_009
@ 016   ----------------------------------------
	.byte	W96
@ 017   ----------------------------------------
	.byte	W96
@ 018   ----------------------------------------
	.byte	W96
@ 019   ----------------------------------------
	.byte	W96
@ 020   ----------------------------------------
	.byte	W96
@ 021   ----------------------------------------
	.byte	W96
@ 022   ----------------------------------------
	.byte	W96
@ 023   ----------------------------------------
	.byte	W96
@ 024   ----------------------------------------
	.byte	W96
@ 025   ----------------------------------------
	.byte	W96
@ 026   ----------------------------------------
	.byte	W96
@ 027   ----------------------------------------
	.byte	W96
@ 028   ----------------------------------------
	.byte	W96
@ 029   ----------------------------------------
	.byte	W96
@ 030   ----------------------------------------
	.byte	W96
@ 031   ----------------------------------------
	.byte	W96
@ 032   ----------------------------------------
	.byte	PATT
	 .word	feb20250128191355_6_008
@ 033   ----------------------------------------
	.byte	PATT
	 .word	feb20250128191355_6_009
@ 034   ----------------------------------------
	.byte	PATT
	 .word	feb20250128191355_6_009
@ 035   ----------------------------------------
	.byte	PATT
	 .word	feb20250128191355_6_009
@ 036   ----------------------------------------
	.byte	PATT
	 .word	feb20250128191355_6_009
@ 037   ----------------------------------------
	.byte	PATT
	 .word	feb20250128191355_6_009
@ 038   ----------------------------------------
	.byte	PATT
	 .word	feb20250128191355_6_009
@ 039   ----------------------------------------
	.byte	PATT
	 .word	feb20250128191355_6_009
@ 040   ----------------------------------------
	.byte	PATT
	 .word	feb20250128191355_6_008
@ 041   ----------------------------------------
	.byte	PATT
	 .word	feb20250128191355_6_009
@ 042   ----------------------------------------
	.byte	PATT
	 .word	feb20250128191355_6_009
@ 043   ----------------------------------------
	.byte	PATT
	 .word	feb20250128191355_6_009
@ 044   ----------------------------------------
	.byte	PATT
	 .word	feb20250128191355_6_009
@ 045   ----------------------------------------
	.byte	PATT
	 .word	feb20250128191355_6_009
@ 046   ----------------------------------------
	.byte	PATT
	 .word	feb20250128191355_6_009
@ 047   ----------------------------------------
	.byte		N05   , En1 , v056
	.byte	W06
	.byte		N05   
	.byte	W06
	.byte		N05   
	.byte	W06
	.byte		N05   
	.byte	W06
	.byte		N11   
	.byte	W12
	.byte		N11   
	.byte	W12
	.byte		N01   
	.byte	W01
	.byte		N01   
	.byte	W02
	.byte		N01   
	.byte	W01
	.byte		N01   
	.byte	W02
	.byte		N01   
	.byte	W01
	.byte		N01   
	.byte	W02
	.byte		N01   
	.byte	W01
	.byte		N01   
	.byte	W02
	.byte		N01   
	.byte	W01
	.byte		N01   
	.byte	W02
	.byte		N01   
	.byte	W01
	.byte		N01   
	.byte	W02
	.byte		N01   
	.byte	W01
	.byte		N01   
	.byte	W02
	.byte		N01   
	.byte	W01
	.byte		N01   
	.byte	W02
	.byte		N20   
	.byte	W20
	.byte	GOTO
	 .word	feb20250128191355_6_B1
feb20250128191355_6_B2:
	.byte	FINE

@**************** Track 7 (Midi-Chn.11) ****************@

feb20250128191355_7:
	.byte	KEYSH , feb20250128191355_key+0
feb20250128191355_7_B1:
@ 000   ----------------------------------------
	.byte		VOICE , 52
	.byte		MODT  , 0
	.byte		LFOS  , 44
	.byte		VOL   , 127*feb20250128191355_mvl/mxv
	.byte		PAN   , c_v-32
	.byte	W96
@ 001   ----------------------------------------
	.byte	W96
@ 002   ----------------------------------------
	.byte	W96
@ 003   ----------------------------------------
	.byte	W96
@ 004   ----------------------------------------
	.byte	W96
@ 005   ----------------------------------------
	.byte	W96
@ 006   ----------------------------------------
	.byte	W96
@ 007   ----------------------------------------
	.byte	W96
@ 008   ----------------------------------------
	.byte		TIE   , Gn3 , v076
	.byte		TIE   , Cn4 
	.byte		TIE   , Ds4 
	.byte	W96
@ 009   ----------------------------------------
	.byte	W96
	.byte		EOT   , Gn3 
	.byte		        Cn4 
	.byte		        Ds4 
@ 010   ----------------------------------------
	.byte		TIE   , Fn3 
	.byte		TIE   , As3 
	.byte		TIE   , Dn4 
	.byte	W96
@ 011   ----------------------------------------
	.byte	W90
	.byte		EOT   , Fn3 
	.byte		        As3 
	.byte		        Dn4 
	.byte	W06
@ 012   ----------------------------------------
feb20250128191355_7_012:
	.byte		TIE   , Gs3 , v076
	.byte		TIE   , Cn4 
	.byte		TIE   , Ds4 
	.byte	W96
	.byte	PEND
@ 013   ----------------------------------------
	.byte	W90
	.byte		EOT   , Cn4 
	.byte		        Ds4 
	.byte	W06
@ 014   ----------------------------------------
	.byte		TIE   , Dn4 
	.byte		TIE   , Fn4 
	.byte	W96
@ 015   ----------------------------------------
	.byte	W90
	.byte		EOT   , Gs3 
	.byte		        Dn4 
	.byte		        Fn4 
	.byte	W06
@ 016   ----------------------------------------
feb20250128191355_7_016:
	.byte		N04   , Gn3 , v076
	.byte		N04   , Cn4 
	.byte		N04   , Ds4 
	.byte	W12
	.byte		        Gn3 
	.byte		N04   , Cn4 
	.byte		N04   , Ds4 
	.byte	W24
	.byte		        Gn3 
	.byte		N04   , Cn4 
	.byte		N04   , Ds4 
	.byte	W12
	.byte		        Gn3 
	.byte		N04   , Cn4 
	.byte		N04   , Ds4 
	.byte	W12
	.byte		        Gn3 
	.byte		N04   , Cn4 
	.byte		N04   , Ds4 
	.byte	W36
	.byte	PEND
@ 017   ----------------------------------------
	.byte	PATT
	 .word	feb20250128191355_7_016
@ 018   ----------------------------------------
feb20250128191355_7_018:
	.byte		N04   , Fn3 , v076
	.byte		N04   , As3 
	.byte		N04   , Dn4 
	.byte	W12
	.byte		        Fn3 
	.byte		N04   , As3 
	.byte		N04   , Dn4 
	.byte	W24
	.byte		        Fn3 
	.byte		N04   , As3 
	.byte		N04   , Dn4 
	.byte	W12
	.byte		        Fn3 
	.byte		N04   , As3 
	.byte		N04   , Dn4 
	.byte	W12
	.byte		        Fn3 
	.byte		N04   , As3 
	.byte		N04   , Dn4 
	.byte	W36
	.byte	PEND
@ 019   ----------------------------------------
	.byte	PATT
	 .word	feb20250128191355_7_018
@ 020   ----------------------------------------
	.byte	PATT
	 .word	feb20250128191355_7_016
@ 021   ----------------------------------------
	.byte	PATT
	 .word	feb20250128191355_7_016
@ 022   ----------------------------------------
	.byte	PATT
	 .word	feb20250128191355_7_018
@ 023   ----------------------------------------
	.byte	PATT
	 .word	feb20250128191355_7_018
@ 024   ----------------------------------------
	.byte	PATT
	 .word	feb20250128191355_7_016
@ 025   ----------------------------------------
	.byte	PATT
	 .word	feb20250128191355_7_016
@ 026   ----------------------------------------
	.byte	PATT
	 .word	feb20250128191355_7_018
@ 027   ----------------------------------------
	.byte	PATT
	 .word	feb20250128191355_7_018
@ 028   ----------------------------------------
feb20250128191355_7_028:
	.byte		N04   , Gs3 , v076
	.byte		N04   , Cn4 
	.byte		N04   , Ds4 
	.byte	W12
	.byte		        Gs3 
	.byte		N04   , Cn4 
	.byte		N04   , Ds4 
	.byte	W24
	.byte		        Gs3 
	.byte		N04   , Cn4 
	.byte		N04   , Ds4 
	.byte	W12
	.byte		        Gs3 
	.byte		N04   , Cn4 
	.byte		N04   , Ds4 
	.byte	W12
	.byte		        Gs3 
	.byte		N04   , Cn4 
	.byte		N04   , Ds4 
	.byte	W36
	.byte	PEND
@ 029   ----------------------------------------
	.byte	PATT
	 .word	feb20250128191355_7_028
@ 030   ----------------------------------------
feb20250128191355_7_030:
	.byte		N04   , Gs3 , v076
	.byte		N04   , Dn4 
	.byte		N04   , Fn4 
	.byte	W12
	.byte		        Gs3 
	.byte		N04   , Dn4 
	.byte		N04   , Fn4 
	.byte	W24
	.byte		        Gs3 
	.byte		N04   , Dn4 
	.byte		N04   , Fn4 
	.byte	W12
	.byte		        Gs3 
	.byte		N04   , Dn4 
	.byte		N04   , Fn4 
	.byte	W12
	.byte		        Gs3 
	.byte		N04   , Dn4 
	.byte		N04   , Fn4 
	.byte	W36
	.byte	PEND
@ 031   ----------------------------------------
	.byte	PATT
	 .word	feb20250128191355_7_030
@ 032   ----------------------------------------
	.byte		TIE   , En3 , v076
	.byte		TIE   , Gn3 
	.byte		TIE   , Cn4 
	.byte	W96
@ 033   ----------------------------------------
	.byte	W90
	.byte		EOT   , En3 
	.byte		        Gn3 
	.byte		        Cn4 
	.byte	W06
@ 034   ----------------------------------------
	.byte		TIE   , Ds3 
	.byte		TIE   , Gn3 
	.byte		TIE   , As3 
	.byte	W96
@ 035   ----------------------------------------
	.byte	W90
	.byte		EOT   , Ds3 
	.byte		        Gn3 
	.byte		        As3 
	.byte	W06
@ 036   ----------------------------------------
	.byte		TIE   , Dn3 
	.byte		TIE   , Fn3 
	.byte		TIE   , An3 
	.byte	W96
@ 037   ----------------------------------------
	.byte	W90
	.byte		EOT   , Dn3 
	.byte		        Fn3 
	.byte		        An3 
	.byte	W06
@ 038   ----------------------------------------
	.byte		TIE   , Dn3 
	.byte		TIE   , Fn3 
	.byte		TIE   , As3 
	.byte	W96
@ 039   ----------------------------------------
	.byte		N90   , Dn4 
	.byte	W90
	.byte		EOT   , Dn3 
	.byte		        Fn3 
	.byte		        As3 
	.byte	W06
@ 040   ----------------------------------------
	.byte	PATT
	 .word	feb20250128191355_7_012
@ 041   ----------------------------------------
	.byte	W90
	.byte		EOT   , Gs3 
	.byte		        Cn4 
	.byte		        Ds4 
	.byte	W06
@ 042   ----------------------------------------
	.byte		TIE   , Gn3 , v076
	.byte		TIE   , As3 
	.byte		TIE   , Dn4 
	.byte	W96
@ 043   ----------------------------------------
	.byte	W90
	.byte		EOT   , Gn3 
	.byte		        As3 
	.byte		        Dn4 
	.byte	W06
@ 044   ----------------------------------------
	.byte		TIE   , Fn3 
	.byte		TIE   , Gs3 
	.byte		TIE   , Cn4 
	.byte	W96
@ 045   ----------------------------------------
	.byte	W90
	.byte		EOT   , Fn3 
	.byte		        Gs3 
	.byte		        Cn4 
	.byte	W06
@ 046   ----------------------------------------
	.byte		TIE   , Fn3 
	.byte		TIE   , Gs3 
	.byte		TIE   , Dn4 
	.byte	W96
@ 047   ----------------------------------------
	.byte	W90
	.byte		EOT   , Fn3 
	.byte		        Gs3 
	.byte		        Dn4 
	.byte	W02
	.byte	GOTO
	 .word	feb20250128191355_7_B1
feb20250128191355_7_B2:
	.byte	FINE

@******************************************************@
	.align	2

feb20250128191355:
	.byte	7	@ NumTrks
	.byte	0	@ NumBlks
	.byte	feb20250128191355_pri	@ Priority
	.byte	feb20250128191355_rev	@ Reverb.

	.word	feb20250128191355_grp

	.word	feb20250128191355_1
	.word	feb20250128191355_2
	.word	feb20250128191355_3
	.word	feb20250128191355_4
	.word	feb20250128191355_5
	.word	feb20250128191355_6
	.word	feb20250128191355_7

	.end
