//Event file generated from Sappy .s format.
	#include "MPlayDef.event"

	#define	TheyCallHimTheHarbinger_grp  voicegroup000
	#define	TheyCallHimTheHarbinger_pri  0
	#define	TheyCallHimTheHarbinger_rev  160
	#define	TheyCallHimTheHarbinger_mvl  127
	#define	TheyCallHimTheHarbinger_key  0
	#define	TheyCallHimTheHarbinger_tbs  1
	#define	TheyCallHimTheHarbinger_exg  0
	#define	TheyCallHimTheHarbinger_cmp  1

	// .rodata
	//	TheyCallHimTheHarbinger
	ALIGN 4


//**************** Track 1 (Midi-Chn.0) ****************//

TheyCallHimTheHarbinger_001:
//  #01 //000   ----------------------------------------
 BYTE   KEYSH   TheyCallHimTheHarbinger_key+0
HARBINGER1:
 BYTE   TEMPO   90*TheyCallHimTheHarbinger_tbs/2
 BYTE   VOICE   60
 BYTE   MODT 0
 BYTE   LFOS 44
 BYTE   VOL   30*TheyCallHimTheHarbinger_mvl/mxv
 BYTE   PAN   c_v+0
 BYTE   N42  En3  v127
 BYTE   W48
 BYTE   N15  Gn3
 BYTE   W16
 BYTE   An3
 BYTE   W16
 BYTE   Bn3
 BYTE   W16
//  #01 //001   ----------------------------------------
 BYTE   N42  An3
 BYTE   W48
 BYTE   N15  Cn4
 BYTE   W16
 BYTE   Bn3
 BYTE   W16
 BYTE   An3
 BYTE   W16
//  #01 //002   ----------------------------------------
 BYTE   Gn3
 BYTE   W16
 BYTE   Fs3
 BYTE   W16
 BYTE   Gn3
 BYTE   W16
 BYTE   Bn3
 BYTE   W16
 BYTE   An3
 BYTE   W16
 BYTE   Gn3
 BYTE   W16
//  #01 //003   ----------------------------------------
 BYTE   N32
 BYTE   W36
 BYTE   N05  An3
 BYTE   W06
 BYTE   Gn3
 BYTE   W06
 BYTE   N15  Fs3
 BYTE   W16
 BYTE   En3
 BYTE   W16
 BYTE   Dn3
 BYTE   W16
//  #01 //004   ----------------------------------------
 BYTE   N42  En3
 BYTE   W48
 BYTE   N15  Gn3
 BYTE   W16
 BYTE   An3
 BYTE   W16
 BYTE   Bn3
 BYTE   W16
//  #01 //005   ----------------------------------------
 BYTE   Cn4
 BYTE   W16
 BYTE   Bn3
 BYTE   W16
 BYTE   Cn4
 BYTE   W16
 BYTE   En4
 BYTE   W16
 BYTE   Fs4
 BYTE   W16
 BYTE   En4
 BYTE   W16
//  #01 //006   ----------------------------------------
 BYTE   Dn4
 BYTE   W16
 BYTE   Cn4
 BYTE   W16
 BYTE   Bn3
 BYTE   W16
 BYTE   An3
 BYTE   W16
 BYTE   Bn3
 BYTE   W16
 BYTE   Gn3
 BYTE   W16
//  #01 //007   ----------------------------------------
 BYTE   N32  An3
 BYTE   W36
 BYTE   N05  Bn3
 BYTE   W06
 BYTE   Cn4
 BYTE   W06
 BYTE   N42  Dn4
 BYTE   W48
//  #01 //008   ----------------------------------------
 BYTE   N15  Cn4
 BYTE   W16
 BYTE   An3
 BYTE   W16
 BYTE   Cn4
 BYTE   W16
 BYTE   En4
 BYTE   W16
 BYTE   Dn4
 BYTE   W16
 BYTE   Cn4
 BYTE   W16
//  #01 //009   ----------------------------------------
 BYTE   Bn3
 BYTE   W16
 BYTE   An3
 BYTE   W16
 BYTE   Bn3
 BYTE   W16
 BYTE   N20  Gn3
 BYTE   W24
 BYTE   Dn3
 BYTE   W24
//  #01 //010   ----------------------------------------
 BYTE   N15  Fs3
 BYTE   W16
 BYTE   En3
 BYTE   W16
 BYTE   Fs3
 BYTE   W16
 BYTE   N42  An3
 BYTE   W48
//  #01 //011   ----------------------------------------
 BYTE   N15  Bn3
 BYTE   W16
 BYTE   An3
 BYTE   W16
 BYTE   Gn3
 BYTE   W16
 BYTE   N42  Dn4
 BYTE   W48
//  #01 //012   ----------------------------------------
 BYTE   N15  En4
 BYTE   W16
 BYTE   Dn4
 BYTE   W16
 BYTE   En4
 BYTE   W16
 BYTE   An4
 BYTE   W16
 BYTE   Bn4
 BYTE   W16
 BYTE   An4
 BYTE   W16
//  #01 //013   ----------------------------------------
 BYTE   Gn4
 BYTE   W16
 BYTE   Fs4
 BYTE   W16
 BYTE   En4
 BYTE   W16
 BYTE   Dn4
 BYTE   W16
 BYTE   Cn4
 BYTE   W16
 BYTE   Bn3
 BYTE   W16
//  #01 //014   ----------------------------------------
 BYTE   Cn4
 BYTE   W16
 BYTE   Dn4
 BYTE   W16
 BYTE   Fs4
 BYTE   W16
 BYTE   An4
 BYTE   W16
 BYTE   Gn4
 BYTE   W16
 BYTE   Fs4
 BYTE   W16
//  #01 //015   ----------------------------------------
 BYTE   N42  En4
 BYTE   W48
 BYTE   Dn4
 BYTE   W48
//  #01 //016   ----------------------------------------
 BYTE   TEMPO   90*TheyCallHimTheHarbinger_tbs/2
 BYTE   W96
//  #01 //017   ----------------------------------------
 BYTE   W96
//  #01 //018   ----------------------------------------
 BYTE   W96
//  #01 //019   ----------------------------------------
 BYTE   W96
//  #01 //020   ----------------------------------------
 BYTE   W96
//  #01 //021   ----------------------------------------
 BYTE   W96
//  #01 //022   ----------------------------------------
 BYTE   W96
//  #01 //023   ----------------------------------------
 BYTE   W96
//  #01 //024   ----------------------------------------
 BYTE   W96
//  #01 //025   ----------------------------------------
 BYTE   W96
//  #01 //026   ----------------------------------------
 BYTE   W96
//  #01 //027   ----------------------------------------
 BYTE   W96
//  #01 //028   ----------------------------------------
 BYTE   W96
//  #01 //029   ----------------------------------------
 BYTE   W96
//  #01 //030   ----------------------------------------
 BYTE   W96
//  #01 //031   ----------------------------------------
 BYTE   W96
//  #01 //032   ----------------------------------------
 BYTE   N15  En3
 BYTE   W16
 BYTE   Gs3
 BYTE   W16
 BYTE   En3
 BYTE   W16
 BYTE   Bn3
 BYTE   W16
 BYTE   An3
 BYTE   W16
 BYTE   Gs3
 BYTE   W16
//  #01 //033   ----------------------------------------
 BYTE   N42  An3
 BYTE   W48
 BYTE   Cs4
 BYTE   W48
//  #01 //034   ----------------------------------------
 BYTE   N15  Bn3
 BYTE   W16
 BYTE   An3
 BYTE   W16
 BYTE   Gs3
 BYTE   W16
 BYTE   An3
 BYTE   W16
 BYTE   Gs3
 BYTE   W16
 BYTE   Fs3
 BYTE   W16
//  #01 //035   ----------------------------------------
 BYTE   N42  Gs3
 BYTE   W48
 BYTE   Bn3
 BYTE   W48
//  #01 //036   ----------------------------------------
 BYTE   W96
//  #01 //037   ----------------------------------------
 BYTE   W96
//  #01 //038   ----------------------------------------
 BYTE   W96
//  #01 //039   ----------------------------------------
 BYTE   W96
//  #01 //040   ----------------------------------------
 BYTE   W92
 BYTE   W03
 BYTE   GoTo
  POIN2 HARBINGER1
 BYTE   FINE

//**************** Track 2 (Midi-Chn.1) ****************//

TheyCallHimTheHarbinger_002:
//  #02 //000   ----------------------------------------
 BYTE   KEYSH   TheyCallHimTheHarbinger_key+0
Label_01A563CE:
 BYTE   VOICE   52
 BYTE   MODT 0
 BYTE   LFOS 44
 BYTE   PAN   c_v+17
 BYTE   VOL   30*TheyCallHimTheHarbinger_mvl/mxv
 BYTE   W96
//  #02 //001   ----------------------------------------
 BYTE   W96
//  #02 //002   ----------------------------------------
 BYTE   W96
//  #02 //003   ----------------------------------------
 BYTE   W96
//  #02 //004   ----------------------------------------
 BYTE   W96
//  #02 //005   ----------------------------------------
 BYTE   W96
//  #02 //006   ----------------------------------------
 BYTE   W96
//  #02 //007   ----------------------------------------
 BYTE   W96
//  #02 //008   ----------------------------------------
 BYTE   W96
//  #02 //009   ----------------------------------------
 BYTE   W96
//  #02 //010   ----------------------------------------
 BYTE   W96
//  #02 //011   ----------------------------------------
 BYTE   W96
//  #02 //012   ----------------------------------------
 BYTE   W96
//  #02 //013   ----------------------------------------
 BYTE   W96
//  #02 //014   ----------------------------------------
 BYTE   W96
//  #02 //015   ----------------------------------------
 BYTE   W96
//  #02 //016   ----------------------------------------
HARBINGER2:
 BYTE   N42  En3  v127
 BYTE   W48
 BYTE   N15  Gn3
 BYTE   W16
 BYTE   An3
 BYTE   W16
 BYTE   Bn3
 BYTE   W16
 BYTE   PEND 
//  #02 //017   ----------------------------------------
 BYTE   N42  An3
 BYTE   W48
 BYTE   N15  Cn4
 BYTE   W16
 BYTE   Bn3
 BYTE   W16
 BYTE   An3
 BYTE   W16
//  #02 //018   ----------------------------------------
 BYTE   Gn3
 BYTE   W16
 BYTE   Fs3
 BYTE   W16
 BYTE   Gn3
 BYTE   W16
 BYTE   Bn3
 BYTE   W16
 BYTE   An3
 BYTE   W16
 BYTE   Gn3
 BYTE   W16
//  #02 //019   ----------------------------------------
 BYTE   N32
 BYTE   W36
 BYTE   N05  An3
 BYTE   W06
 BYTE   Gn3
 BYTE   W06
 BYTE   N15  Fs3
 BYTE   W16
 BYTE   En3
 BYTE   W16
 BYTE   Dn3
 BYTE   W16
//  #02 //020   ----------------------------------------
 BYTE   PATT
  POIN2 HARBINGER2
//  #02 //021   ----------------------------------------
 BYTE   N15  Cn4  v127
 BYTE   W16
 BYTE   Bn3
 BYTE   W16
 BYTE   Cn4
 BYTE   W16
 BYTE   En4
 BYTE   W16
 BYTE   Fs4
 BYTE   W16
 BYTE   En4
 BYTE   W16
//  #02 //022   ----------------------------------------
 BYTE   Dn4
 BYTE   W16
 BYTE   Cn4
 BYTE   W16
 BYTE   Bn3
 BYTE   W16
 BYTE   An3
 BYTE   W16
 BYTE   Bn3
 BYTE   W16
 BYTE   Gn3
 BYTE   W16
//  #02 //023   ----------------------------------------
 BYTE   N32  An3
 BYTE   W36
 BYTE   N05  Bn3
 BYTE   W06
 BYTE   Cn4
 BYTE   W06
 BYTE   N42  Dn4
 BYTE   W48
//  #02 //024   ----------------------------------------
 BYTE   N15  Cn4
 BYTE   W16
 BYTE   An3
 BYTE   W16
 BYTE   Cn4
 BYTE   W16
 BYTE   En4
 BYTE   W16
 BYTE   Dn4
 BYTE   W16
 BYTE   Cn4
 BYTE   W16
//  #02 //025   ----------------------------------------
 BYTE   Bn3
 BYTE   W16
 BYTE   An3
 BYTE   W16
 BYTE   Bn3
 BYTE   W16
 BYTE   N20  Gn3
 BYTE   W24
 BYTE   Dn3
 BYTE   W24
//  #02 //026   ----------------------------------------
 BYTE   N15  Fs3
 BYTE   W16
 BYTE   En3
 BYTE   W16
 BYTE   Fs3
 BYTE   W16
 BYTE   N42  An3
 BYTE   W48
//  #02 //027   ----------------------------------------
 BYTE   N15  Bn3
 BYTE   W16
 BYTE   An3
 BYTE   W16
 BYTE   Gn3
 BYTE   W16
 BYTE   N42  Dn4
 BYTE   W48
//  #02 //028   ----------------------------------------
 BYTE   N15  En4
 BYTE   W16
 BYTE   Dn4
 BYTE   W16
 BYTE   En4
 BYTE   W16
 BYTE   An4
 BYTE   W16
 BYTE   Bn4
 BYTE   W16
 BYTE   An4
 BYTE   W16
//  #02 //029   ----------------------------------------
 BYTE   Gn4
 BYTE   W16
 BYTE   Fs4
 BYTE   W16
 BYTE   En4
 BYTE   W16
 BYTE   Dn4
 BYTE   W16
 BYTE   Cn4
 BYTE   W16
 BYTE   Bn3
 BYTE   W16
//  #02 //030   ----------------------------------------
 BYTE   Cn4
 BYTE   W16
 BYTE   Dn4
 BYTE   W16
 BYTE   Fs4
 BYTE   W16
 BYTE   An4
 BYTE   W16
 BYTE   Gn4
 BYTE   W16
 BYTE   Fs4
 BYTE   W16
//  #02 //031   ----------------------------------------
 BYTE   N42  En4
 BYTE   W48
 BYTE   Dn4
 BYTE   W48
//  #02 //032   ----------------------------------------
 BYTE   W96
//  #02 //033   ----------------------------------------
 BYTE   W96
//  #02 //034   ----------------------------------------
 BYTE   W96
//  #02 //035   ----------------------------------------
 BYTE   W96
//  #02 //036   ----------------------------------------
 BYTE   N15  Cn4
 BYTE   W16
 BYTE   Bn3
 BYTE   W16
 BYTE   An3
 BYTE   W16
 BYTE   Gn3
 BYTE   W16
 BYTE   Fs3
 BYTE   W16
 BYTE   En3
 BYTE   W16
//  #02 //037   ----------------------------------------
 BYTE   N42  Dn3
 BYTE   W48
 BYTE   N15  Gn3
 BYTE   W16
 BYTE   An3
 BYTE   W16
 BYTE   Bn3
 BYTE   W16
//  #02 //038   ----------------------------------------
 BYTE   N42  An3
 BYTE   W48
 BYTE   Cn4
 BYTE   W48
//  #02 //039   ----------------------------------------
 BYTE   TIE  Bn3
 BYTE   W96
//  #02 //040   ----------------------------------------
 BYTE   W90
 BYTE   EOT
 BYTE   W05
 BYTE   GoTo
  POIN2 Label_01A563CE
 BYTE   FINE

//**************** Track 3 (Midi-Chn.2) ****************//

TheyCallHimTheHarbinger_003:
//  #03 //000   ----------------------------------------
 BYTE   KEYSH   TheyCallHimTheHarbinger_key+0
HARBINGER3:
 BYTE   VOICE   61
 BYTE   MODT 0
 BYTE   LFOS 44
 BYTE   VOL   29*TheyCallHimTheHarbinger_mvl/mxv
 BYTE   PAN   c_v+0
 BYTE   TIE  En1  v127
 BYTE   W96
//  #03 //001   ----------------------------------------
 BYTE   W96
//  #03 //002   ----------------------------------------
 BYTE   EOT
 BYTE   TIE  Dn1
 BYTE   W96
//  #03 //003   ----------------------------------------
 BYTE   W96
//  #03 //004   ----------------------------------------
 BYTE   EOT
 BYTE   TIE  En1
 BYTE   W96
//  #03 //005   ----------------------------------------
 BYTE   W96
//  #03 //006   ----------------------------------------
 BYTE   EOT
 BYTE   TIE  Dn1
 BYTE   W96
//  #03 //007   ----------------------------------------
 BYTE   W96
//  #03 //008   ----------------------------------------
 BYTE   EOT
 BYTE   N96  Cn1
 BYTE   W96
//  #03 //009   ----------------------------------------
 BYTE   Bn0
 BYTE   W96
//  #03 //010   ----------------------------------------
 BYTE   Dn1
 BYTE   W96
//  #03 //011   ----------------------------------------
Label_01A55BBC:
 BYTE   N48  En1  v127
 BYTE   W48
 BYTE   Dn1
 BYTE   W48
 BYTE   PEND 
//  #03 //012   ----------------------------------------
 BYTE   N96  Cn1
 BYTE   W96
//  #03 //013   ----------------------------------------
 BYTE   Bn0
 BYTE   W96
//  #03 //014   ----------------------------------------
 BYTE   Dn1
 BYTE   W96
//  #03 //015   ----------------------------------------
 BYTE   PATT
  POIN2 Label_01A55BBC
//  #03 //016   ----------------------------------------
 BYTE   TIE  En1  v127
 BYTE   W96
//  #03 //017   ----------------------------------------
 BYTE   W96
//  #03 //018   ----------------------------------------
 BYTE   EOT
 BYTE   TIE  Dn1
 BYTE   W96
//  #03 //019   ----------------------------------------
 BYTE   W96
//  #03 //020   ----------------------------------------
 BYTE   EOT
 BYTE   TIE  En1
 BYTE   W96
//  #03 //021   ----------------------------------------
 BYTE   W96
//  #03 //022   ----------------------------------------
 BYTE   EOT
 BYTE   TIE  Dn1
 BYTE   W96
//  #03 //023   ----------------------------------------
 BYTE   W96
//  #03 //024   ----------------------------------------
 BYTE   EOT
 BYTE   N96  Cn1
 BYTE   W96
//  #03 //025   ----------------------------------------
 BYTE   Bn0
 BYTE   W96
//  #03 //026   ----------------------------------------
 BYTE   Dn1
 BYTE   W96
//  #03 //027   ----------------------------------------
 BYTE   PATT
  POIN2 Label_01A55BBC
//  #03 //028   ----------------------------------------
 BYTE   N96  Cn1  v127
 BYTE   W96
//  #03 //029   ----------------------------------------
 BYTE   Bn0
 BYTE   W96
//  #03 //030   ----------------------------------------
 BYTE   Dn1
 BYTE   W96
//  #03 //031   ----------------------------------------
 BYTE   N48  En1
 BYTE   W48
 BYTE   N42  Dn1
 BYTE   W48
//  #03 //032   ----------------------------------------
 BYTE   N96  En1
 BYTE   W96
//  #03 //033   ----------------------------------------
 BYTE   An0
 BYTE   W96
//  #03 //034   ----------------------------------------
 BYTE   Bn0
 BYTE   W96
//  #03 //035   ----------------------------------------
 BYTE   En1
 BYTE   W96
//  #03 //036   ----------------------------------------
 BYTE   Cn1
 BYTE   W96
//  #03 //037   ----------------------------------------
 BYTE   Bn0
 BYTE   W96
//  #03 //038   ----------------------------------------
 BYTE   An0
 BYTE   W96
//  #03 //039   ----------------------------------------
 BYTE   Bn0
 BYTE   W96
//  #03 //040   ----------------------------------------
 BYTE   N90  Ds1
 BYTE   W92
 BYTE   W03
 BYTE   GoTo
  POIN2 HARBINGER3
 BYTE   FINE

//**************** Track 4 (Midi-Chn.3) ****************//

TheyCallHimTheHarbinger_004:
//  #04 //000   ----------------------------------------
 BYTE   KEYSH   TheyCallHimTheHarbinger_key+0
HARBINGER4:
 BYTE   VOICE   48
 BYTE   MODT 0
 BYTE   LFOS 44
 BYTE   VOL   23*TheyCallHimTheHarbinger_mvl/mxv
 BYTE   PAN   c_v-32
 BYTE   N96  En3  v076
 BYTE   N96  Gn3
 BYTE   N96  Bn3
 BYTE   W96
//  #04 //001   ----------------------------------------
 BYTE   En3
 BYTE   N96  An3
 BYTE   N96  Cn4
 BYTE   W96
//  #04 //002   ----------------------------------------
HARBINGER5:
 BYTE   N96  Gn3  v076
 BYTE   N96  Bn3
 BYTE   N96  Dn4
 BYTE   W96
 BYTE   PEND 
//  #04 //003   ----------------------------------------
Label_01A5D17B:
 BYTE   N96  Fs3  v076
 BYTE   N96  An3
 BYTE   N96  Dn4
 BYTE   W96
 BYTE   PEND 
//  #04 //004   ----------------------------------------
 BYTE   En3
 BYTE   N96  Gn3
 BYTE   N96  Bn3
 BYTE   W96
//  #04 //005   ----------------------------------------
 BYTE   En3
 BYTE   N96  An3
 BYTE   N96  Cn4
 BYTE   W96
//  #04 //006   ----------------------------------------
 BYTE   PATT
  POIN2 HARBINGER5
//  #04 //007   ----------------------------------------
 BYTE   PATT
  POIN2 Label_01A5D17B
//  #04 //008   ----------------------------------------
 BYTE   N96  En3  v076
 BYTE   N96  An3
 BYTE   N96  Cn4
 BYTE   W96
//  #04 //009   ----------------------------------------
Label_01A5D1A2:
 BYTE   N96  Dn3  v076
 BYTE   N96  Gn3
 BYTE   N96  Bn3
 BYTE   W96
 BYTE   PEND 
//  #04 //010   ----------------------------------------
Label_01A5D1AB:
 BYTE   N96  Cn3  v076
 BYTE   N96  Dn3
 BYTE   N96  Fs3
 BYTE   N96  An3
 BYTE   W96
 BYTE   PEND 
//  #04 //011   ----------------------------------------
Label_01A5D1B6:
 BYTE   N48  En3  v076
 BYTE   N48  Gn3
 BYTE   N48  Bn3
 BYTE   W48
 BYTE   Dn3
 BYTE   N48  Fs3
 BYTE   N48  An3
 BYTE   W48
 BYTE   PEND 
//  #04 //012   ----------------------------------------
 BYTE   N96  En3
 BYTE   N96  An3
 BYTE   N96  Cn4
 BYTE   W96
//  #04 //013   ----------------------------------------
 BYTE   PATT
  POIN2 Label_01A5D1A2
//  #04 //014   ----------------------------------------
 BYTE   PATT
  POIN2 Label_01A5D1AB
//  #04 //015   ----------------------------------------
 BYTE   PATT
  POIN2 Label_01A5D1B6
//  #04 //016   ----------------------------------------
 BYTE   N96  En3  v076
 BYTE   N96  Gn3
 BYTE   N96  Bn3
 BYTE   W96
//  #04 //017   ----------------------------------------
 BYTE   En3
 BYTE   N96  An3
 BYTE   N96  Cn4
 BYTE   W96
//  #04 //018   ----------------------------------------
 BYTE   PATT
  POIN2 HARBINGER5
//  #04 //019   ----------------------------------------
 BYTE   PATT
  POIN2 Label_01A5D17B
//  #04 //020   ----------------------------------------
 BYTE   N96  En3  v076
 BYTE   N96  Gn3
 BYTE   N96  Bn3
 BYTE   W96
//  #04 //021   ----------------------------------------
 BYTE   En3
 BYTE   N96  An3
 BYTE   N96  Cn4
 BYTE   W96
//  #04 //022   ----------------------------------------
 BYTE   PATT
  POIN2 HARBINGER5
//  #04 //023   ----------------------------------------
 BYTE   PATT
  POIN2 Label_01A5D17B
//  #04 //024   ----------------------------------------
 BYTE   N96  En3  v076
 BYTE   N96  An3
 BYTE   N96  Cn4
 BYTE   W96
//  #04 //025   ----------------------------------------
 BYTE   PATT
  POIN2 Label_01A5D1A2
//  #04 //026   ----------------------------------------
 BYTE   PATT
  POIN2 Label_01A5D1AB
//  #04 //027   ----------------------------------------
 BYTE   PATT
  POIN2 Label_01A5D1B6
//  #04 //028   ----------------------------------------
 BYTE   N96  En3  v076
 BYTE   N96  An3
 BYTE   N96  Cn4
 BYTE   W96
//  #04 //029   ----------------------------------------
 BYTE   PATT
  POIN2 Label_01A5D1A2
//  #04 //030   ----------------------------------------
 BYTE   PATT
  POIN2 Label_01A5D1AB
//  #04 //031   ----------------------------------------
 BYTE   PATT
  POIN2 Label_01A5D1B6
//  #04 //032   ----------------------------------------
 BYTE   N90  Bn2  v076
 BYTE   TIE  En3
 BYTE   N90  Gs3
 BYTE   W96
//  #04 //033   ----------------------------------------
 BYTE   Cs3
 BYTE   TIE  An3
 BYTE   W90
 BYTE   EOT
 BYTE   En3
 BYTE   W06
//  #04 //034   ----------------------------------------
 BYTE   N90  Ds3
 BYTE   N90  Fs3
 BYTE   TIE  Bn3
 BYTE   W90
 BYTE   EOT
 BYTE   An3
 BYTE   W06
//  #04 //035   ----------------------------------------
 BYTE   N90  En3
 BYTE   N90  Gs3
 BYTE   W90
 BYTE   EOT
 BYTE   Bn3
 BYTE   W06
//  #04 //036   ----------------------------------------
 BYTE   N96  En3
 BYTE   N96  An3
 BYTE   N96  Cn4
 BYTE   W96
//  #04 //037   ----------------------------------------
 BYTE   PATT
  POIN2 Label_01A5D1A2
//  #04 //038   ----------------------------------------
 BYTE   N96  Cn3  v076
 BYTE   N96  En3
 BYTE   N96  An3
 BYTE   W96
//  #04 //039   ----------------------------------------
 BYTE   N90  En3
 BYTE   N90  Gn3
 BYTE   TIE  Bn3
 BYTE   W96
//  #04 //040   ----------------------------------------
 BYTE   N90  Ds3
 BYTE   N90  Fs3
 BYTE   W90
 BYTE   EOT
 BYTE   Bn3
 BYTE   W05
 BYTE   GoTo
  POIN2 HARBINGER4
 BYTE   FINE

//**************** Track 5 (Midi-Chn.4) ****************//

TheyCallHimTheHarbinger_005:
//  #05 //000   ----------------------------------------
 BYTE   KEYSH   TheyCallHimTheHarbinger_key+0
HARBINGER6:
 BYTE   VOICE   52
 BYTE   MODT 0
 BYTE   LFOS 44
 BYTE   VOL   26*TheyCallHimTheHarbinger_mvl/mxv
 BYTE   PAN   c_v-32
 BYTE   W96
//  #05 //001   ----------------------------------------
 BYTE   W96
//  #05 //002   ----------------------------------------
 BYTE   W96
//  #05 //003   ----------------------------------------
 BYTE   W96
//  #05 //004   ----------------------------------------
 BYTE   W96
//  #05 //005   ----------------------------------------
 BYTE   W96
//  #05 //006   ----------------------------------------
 BYTE   W96
//  #05 //007   ----------------------------------------
 BYTE   W96
//  #05 //008   ----------------------------------------
 BYTE   W96
//  #05 //009   ----------------------------------------
 BYTE   W96
//  #05 //010   ----------------------------------------
 BYTE   W96
//  #05 //011   ----------------------------------------
 BYTE   W96
//  #05 //012   ----------------------------------------
 BYTE   W96
//  #05 //013   ----------------------------------------
 BYTE   W96
//  #05 //014   ----------------------------------------
 BYTE   W96
//  #05 //015   ----------------------------------------
 BYTE   W96
//  #05 //016   ----------------------------------------
 BYTE   N96  En3  v076
 BYTE   N96  Gn3
 BYTE   N96  Bn3
 BYTE   W96
//  #05 //017   ----------------------------------------
 BYTE   En3
 BYTE   N96  An3
 BYTE   N96  Cn4
 BYTE   W96
//  #05 //018   ----------------------------------------
Label_01A5C536:
 BYTE   N96  Gn3  v076
 BYTE   N96  Bn3
 BYTE   N96  Dn4
 BYTE   W96
 BYTE   PEND 
//  #05 //019   ----------------------------------------
Label_01A5C53F:
 BYTE   N96  Fs3  v076
 BYTE   N96  An3
 BYTE   N96  Dn4
 BYTE   W96
 BYTE   PEND 
//  #05 //020   ----------------------------------------
 BYTE   En3
 BYTE   N96  Gn3
 BYTE   N96  Bn3
 BYTE   W96
//  #05 //021   ----------------------------------------
 BYTE   En3
 BYTE   N96  An3
 BYTE   N96  Cn4
 BYTE   W96
//  #05 //022   ----------------------------------------
 BYTE   PATT
  POIN2 Label_01A5C536
//  #05 //023   ----------------------------------------
 BYTE   PATT
  POIN2 Label_01A5C53F
//  #05 //024   ----------------------------------------
 BYTE   N96  En3  v076
 BYTE   N96  An3
 BYTE   N96  Cn4
 BYTE   W96
//  #05 //025   ----------------------------------------
Label_01A5C566:
 BYTE   N96  Dn3  v076
 BYTE   N96  Gn3
 BYTE   N96  Bn3
 BYTE   W96
 BYTE   PEND 
//  #05 //026   ----------------------------------------
Label_01A5C56F:
 BYTE   N96  Cn3  v076
 BYTE   N96  Dn3
 BYTE   N96  Fs3
 BYTE   N96  An3
 BYTE   W96
 BYTE   PEND 
//  #05 //027   ----------------------------------------
 BYTE   N48  En3
 BYTE   N48  Gn3
 BYTE   N48  Bn3
 BYTE   W48
 BYTE   Dn3
 BYTE   N48  Fs3
 BYTE   N48  An3
 BYTE   W48
//  #05 //028   ----------------------------------------
 BYTE   N96  En3
 BYTE   N96  An3
 BYTE   N96  Cn4
 BYTE   W96
//  #05 //029   ----------------------------------------
 BYTE   PATT
  POIN2 Label_01A5C566
//  #05 //030   ----------------------------------------
 BYTE   PATT
  POIN2 Label_01A5C56F
//  #05 //031   ----------------------------------------
 BYTE   N48  En3  v076
 BYTE   N48  Gn3
 BYTE   N48  Bn3
 BYTE   W48
 BYTE   N42  Dn3
 BYTE   N42  Fs3
 BYTE   N42  An3
 BYTE   W48
//  #05 //032   ----------------------------------------
 BYTE   W96
//  #05 //033   ----------------------------------------
 BYTE   W96
//  #05 //034   ----------------------------------------
 BYTE   W96
//  #05 //035   ----------------------------------------
 BYTE   W96
//  #05 //036   ----------------------------------------
 BYTE   N96  En3
 BYTE   N96  An3
 BYTE   N96  Cn4
 BYTE   W96
//  #05 //037   ----------------------------------------
 BYTE   PATT
  POIN2 Label_01A5C566
//  #05 //038   ----------------------------------------
 BYTE   N96  Cn3  v076
 BYTE   N96  En3
 BYTE   N96  An3
 BYTE   W96
//  #05 //039   ----------------------------------------
 BYTE   N90  En3
 BYTE   N90  Gn3
 BYTE   TIE  Bn3
 BYTE   W96
//  #05 //040   ----------------------------------------
 BYTE   N90  Ds3
 BYTE   N90  Fs3
 BYTE   W90
 BYTE   EOT
 BYTE   Bn3
 BYTE   W05
 BYTE   GoTo
  POIN2 HARBINGER6
 BYTE   FINE

//**************** Track 6 (Midi-Chn.5) ****************//

TheyCallHimTheHarbinger_006:
//  #06 //000   ----------------------------------------
 BYTE   KEYSH   TheyCallHimTheHarbinger_key+0
Label_01A59492:
 BYTE   VOICE   127
 BYTE   MODT 0
 BYTE   LFOS 44
 BYTE   VOL   30*TheyCallHimTheHarbinger_mvl/mxv
 BYTE   PAN   c_v+0
 BYTE   N20  Bn0  v127
 BYTE   N20  Cn1
 BYTE   N20  Dn1
 BYTE   N20  En1
 BYTE   N20  An1
 BYTE   N20  Bn1
 BYTE   N20  Cn2
 BYTE   N20  Dn2
 BYTE   N20  An2
 BYTE   W36
 BYTE   N05  En1
 BYTE   W06
 BYTE   N05
 BYTE   W06
 BYTE   N11
 BYTE   W12
 BYTE   N11
 BYTE   W36
//  #06 //001   ----------------------------------------
Label_01A594B9:
 BYTE   N20  En1  v127
 BYTE   W36
 BYTE   N05
 BYTE   W06
 BYTE   N05
 BYTE   W06
 BYTE   N11
 BYTE   W12
 BYTE   N11
 BYTE   W12
 BYTE   N20
 BYTE   W24
 BYTE   PEND 
//  #06 //002   ----------------------------------------
Label_01A594C8:
 BYTE   N20  Bn0  v127
 BYTE   N20  Cn1
 BYTE   N20  Dn1
 BYTE   N20  En1
 BYTE   N20  An1
 BYTE   N20  Bn1
 BYTE   N20  Cn2
 BYTE   N20  Dn2
 BYTE   N20  An2
 BYTE   W36
 BYTE   N05  En1
 BYTE   W06
 BYTE   N05
 BYTE   W06
 BYTE   N11
 BYTE   W12
 BYTE   N11
 BYTE   W36
 BYTE   PEND 
//  #06 //003   ----------------------------------------
Label_01A594E6:
 BYTE   N20  En1  v127
 BYTE   W36
 BYTE   N05
 BYTE   W06
 BYTE   N05
 BYTE   W06
 BYTE   N11
 BYTE   W12
 BYTE   N11
 BYTE   W12
 BYTE   N11
 BYTE   W12
 BYTE   N05
 BYTE   W06
 BYTE   N02
 BYTE   W03
 BYTE   N01
 BYTE   W01
 BYTE   N01
 BYTE   W02
 BYTE   PEND 
//  #06 //004   ----------------------------------------
 BYTE   PATT
  POIN2 Label_01A594C8
//  #06 //005   ----------------------------------------
 BYTE   PATT
  POIN2 Label_01A594B9
//  #06 //006   ----------------------------------------
 BYTE   PATT
  POIN2 Label_01A594C8
//  #06 //007   ----------------------------------------
 BYTE   PATT
  POIN2 Label_01A594E6
//  #06 //008   ----------------------------------------
 BYTE   PATT
  POIN2 Label_01A594C8
//  #06 //009   ----------------------------------------
 BYTE   PATT
  POIN2 Label_01A594B9
//  #06 //010   ----------------------------------------
 BYTE   PATT
  POIN2 Label_01A594C8
//  #06 //011   ----------------------------------------
 BYTE   PATT
  POIN2 Label_01A594E6
//  #06 //012   ----------------------------------------
 BYTE   PATT
  POIN2 Label_01A594C8
//  #06 //013   ----------------------------------------
 BYTE   PATT
  POIN2 Label_01A594B9
//  #06 //014   ----------------------------------------
 BYTE   PATT
  POIN2 Label_01A594C8
//  #06 //015   ----------------------------------------
 BYTE   PATT
  POIN2 Label_01A594E6
//  #06 //016   ----------------------------------------
Label_01A59539:
 BYTE   N11  Bn0  v127
 BYTE   N11  Cn1
 BYTE   N11  Dn1
 BYTE   N11  En1
 BYTE   N11  An1
 BYTE   N11  Bn1
 BYTE   N11  Cn2
 BYTE   N11  Dn2
 BYTE   N11  An2
 BYTE   W12
 BYTE   N05  En1
 BYTE   W06
 BYTE   N05
 BYTE   W06
 BYTE   N11  Cn1
 BYTE   N11  En1
 BYTE   W12
 BYTE   N05
 BYTE   W06
 BYTE   N05
 BYTE   W06
 BYTE   N11  Cn1
 BYTE   N11  En1
 BYTE   W12
 BYTE   N05
 BYTE   W06
 BYTE   N05
 BYTE   W06
 BYTE   N11  Cn1
 BYTE   N11  En1
 BYTE   W12
 BYTE   N11
 BYTE   W12
 BYTE   PEND 
//  #06 //017   ----------------------------------------
Label_01A5956C:
 BYTE   N11  Cn1  v127
 BYTE   N11  En1
 BYTE   W12
 BYTE   N05
 BYTE   W06
 BYTE   N05
 BYTE   W06
 BYTE   N11  Cn1
 BYTE   N11  En1
 BYTE   W12
 BYTE   N05
 BYTE   W06
 BYTE   N05
 BYTE   W06
 BYTE   N11  Cn1
 BYTE   N11  En1
 BYTE   W12
 BYTE   N05
 BYTE   W06
 BYTE   N05
 BYTE   W06
 BYTE   Cn1
 BYTE   N05  En1
 BYTE   W06
 BYTE   N05
 BYTE   W06
 BYTE   N05
 BYTE   W06
 BYTE   N02
 BYTE   W03
 BYTE   N01
 BYTE   W01
 BYTE   N01
 BYTE   W02
 BYTE   PEND 
//  #06 //018   ----------------------------------------
 BYTE   PATT
  POIN2 Label_01A59539
//  #06 //019   ----------------------------------------
 BYTE   PATT
  POIN2 Label_01A5956C
//  #06 //020   ----------------------------------------
 BYTE   PATT
  POIN2 Label_01A59539
//  #06 //021   ----------------------------------------
 BYTE   PATT
  POIN2 Label_01A5956C
//  #06 //022   ----------------------------------------
 BYTE   PATT
  POIN2 Label_01A59539
//  #06 //023   ----------------------------------------
 BYTE   PATT
  POIN2 Label_01A5956C
//  #06 //024   ----------------------------------------
 BYTE   PATT
  POIN2 Label_01A59539
//  #06 //025   ----------------------------------------
 BYTE   PATT
  POIN2 Label_01A5956C
//  #06 //026   ----------------------------------------
 BYTE   PATT
  POIN2 Label_01A59539
//  #06 //027   ----------------------------------------
 BYTE   PATT
  POIN2 Label_01A5956C
//  #06 //028   ----------------------------------------
 BYTE   PATT
  POIN2 Label_01A59539
//  #06 //029   ----------------------------------------
 BYTE   PATT
  POIN2 Label_01A5956C
//  #06 //030   ----------------------------------------
 BYTE   PATT
  POIN2 Label_01A59539
//  #06 //031   ----------------------------------------
 BYTE   PATT
  POIN2 Label_01A5956C
//  #06 //032   ----------------------------------------
 BYTE   N90  Bn0  v127
 BYTE   N90  Cn1
 BYTE   N90  Dn1
 BYTE   N90  En1
 BYTE   N90  An1
 BYTE   N90  Bn1
 BYTE   N90  Cn2
 BYTE   N90  Dn2
 BYTE   N90  An2
 BYTE   W96
//  #06 //033   ----------------------------------------
 BYTE   W96
//  #06 //034   ----------------------------------------
 BYTE   W96
//  #06 //035   ----------------------------------------
 BYTE   N01  En1  v004
 BYTE   W01
 BYTE   N01
 BYTE   W02
 BYTE   N01
 BYTE   W01
 BYTE   N01
 BYTE   W02
 BYTE   N01
 BYTE   W01
 BYTE   N01
 BYTE   W02
 BYTE   N01
 BYTE   W01
 BYTE   N01
 BYTE   W02
 BYTE   En1  v008
 BYTE   W01
 BYTE   N01
 BYTE   W02
 BYTE   N01
 BYTE   W01
 BYTE   N01
 BYTE   W02
 BYTE   N01
 BYTE   W01
 BYTE   N01
 BYTE   W02
 BYTE   En1  v012
 BYTE   W01
 BYTE   N01
 BYTE   W02
 BYTE   N01
 BYTE   W01
 BYTE   En1  v016
 BYTE   W02
 BYTE   N01
 BYTE   W01
 BYTE   N01
 BYTE   W02
 BYTE   En1  v020
 BYTE   W01
 BYTE   N01
 BYTE   W02
 BYTE   N01
 BYTE   W01
 BYTE   En1  v024
 BYTE   W02
 BYTE   N01
 BYTE   W01
 BYTE   En1  v028
 BYTE   W02
 BYTE   N01
 BYTE   W01
 BYTE   En1  v032
 BYTE   W02
 BYTE   N01
 BYTE   W01
 BYTE   N01
 BYTE   W02
 BYTE   En1  v036
 BYTE   W01
 BYTE   N01
 BYTE   W02
 BYTE   En1  v040
 BYTE   W01
 BYTE   En1  v044
 BYTE   W02
 BYTE   N01
 BYTE   W01
 BYTE   En1  v048
 BYTE   W02
 BYTE   N01
 BYTE   W01
 BYTE   En1  v052
 BYTE   W02
 BYTE   N01
 BYTE   W01
 BYTE   En1  v056
 BYTE   W02
 BYTE   N01
 BYTE   W01
 BYTE   En1  v060
 BYTE   W02
 BYTE   En1  v064
 BYTE   W01
 BYTE   N01
 BYTE   W02
 BYTE   En1  v068
 BYTE   W01
 BYTE   En1  v072
 BYTE   W02
 BYTE   N01
 BYTE   W01
 BYTE   En1  v076
 BYTE   W02
 BYTE   En1  v080
 BYTE   W01
 BYTE   N01
 BYTE   W02
 BYTE   En1  v084
 BYTE   W01
 BYTE   En1  v088
 BYTE   W02
 BYTE   N01
 BYTE   W01
 BYTE   En1  v092
 BYTE   W02
 BYTE   En1  v096
 BYTE   W01
 BYTE   En1  v100
 BYTE   W02
 BYTE   N01
 BYTE   W01
 BYTE   En1  v104
 BYTE   W02
 BYTE   En1  v108
 BYTE   W01
 BYTE   En1  v112
 BYTE   W02
 BYTE   N01
 BYTE   W01
 BYTE   En1  v116
 BYTE   W02
 BYTE   En1  v120
 BYTE   W01
 BYTE   En1  v124
 BYTE   W02
//  #06 //036   ----------------------------------------
 BYTE   PATT
  POIN2 Label_01A59539
//  #06 //037   ----------------------------------------
 BYTE   PATT
  POIN2 Label_01A5956C
//  #06 //038   ----------------------------------------
 BYTE   PATT
  POIN2 Label_01A59539
//  #06 //039   ----------------------------------------
 BYTE   PATT
  POIN2 Label_01A5956C
//  #06 //040   ----------------------------------------
 BYTE   N11  Bn0  v127
 BYTE   N11  Cn1
 BYTE   N11  Dn1
 BYTE   N11  En1
 BYTE   N11  An1
 BYTE   N11  Bn1
 BYTE   N11  Cn2
 BYTE   N11  Dn2
 BYTE   N11  An2
 BYTE   W12
 BYTE   N05  En1
 BYTE   W06
 BYTE   N05
 BYTE   W06
 BYTE   N11  Cn1
 BYTE   N11  En1
 BYTE   W12
 BYTE   N05
 BYTE   W06
 BYTE   N05
 BYTE   W06
 BYTE   N01  Bn0
 BYTE   N01  Cn1
 BYTE   N01  Dn1
 BYTE   N01  En1
 BYTE   N01  An1
 BYTE   N01  Bn1
 BYTE   N01  Cn2
 BYTE   N01  Dn2
 BYTE   N01  An2
 BYTE   W01
 BYTE   En1  v004
 BYTE   W02
 BYTE   N01
 BYTE   W01
 BYTE   N01
 BYTE   W02
 BYTE   En1  v008
 BYTE   W01
 BYTE   N01
 BYTE   W02
 BYTE   N01
 BYTE   W01
 BYTE   En1  v012
 BYTE   W02
 BYTE   N01
 BYTE   W01
 BYTE   En1  v016
 BYTE   W02
 BYTE   En1  v020
 BYTE   W01
 BYTE   En1  v024
 BYTE   W02
 BYTE   N01
 BYTE   W01
 BYTE   En1  v028
 BYTE   W02
 BYTE   En1  v032
 BYTE   W01
 BYTE   En1  v036
 BYTE   W02
 BYTE   En1  v040
 BYTE   W01
 BYTE   En1  v044
 BYTE   W02
 BYTE   En1  v048
 BYTE   W01
 BYTE   En1  v056
 BYTE   W02
 BYTE   En1  v060
 BYTE   W01
 BYTE   En1  v064
 BYTE   W02
 BYTE   En1  v068
 BYTE   W01
 BYTE   En1  v076
 BYTE   W02
 BYTE   En1  v080
 BYTE   W01
 BYTE   En1  v084
 BYTE   W02
 BYTE   En1  v092
 BYTE   W01
 BYTE   En1  v096
 BYTE   W02
 BYTE   En1  v104
 BYTE   W01
 BYTE   En1  v108
 BYTE   W02
 BYTE   En1  v116
 BYTE   W01
 BYTE   En1  v120
 BYTE   W01
 BYTE   GoTo
  POIN2 Label_01A59492
 BYTE   FINE

//**************** Track 7 (Midi-Chn.6) ****************//

TheyCallHimTheHarbinger_007:
//  #07 //000   ----------------------------------------
 BYTE   KEYSH   TheyCallHimTheHarbinger_key+0
HARBINGER7:
 BYTE   VOICE   53
 BYTE   MODT 0
 BYTE   LFOS 44
 BYTE   PAN   c_v-8
 BYTE   VOL   30*TheyCallHimTheHarbinger_mvl/mxv
 BYTE   W96
//  #07 //001   ----------------------------------------
 BYTE   W96
//  #07 //002   ----------------------------------------
 BYTE   W96
//  #07 //003   ----------------------------------------
 BYTE   W96
//  #07 //004   ----------------------------------------
 BYTE   W96
//  #07 //005   ----------------------------------------
 BYTE   W96
//  #07 //006   ----------------------------------------
 BYTE   W96
//  #07 //007   ----------------------------------------
 BYTE   W96
//  #07 //008   ----------------------------------------
 BYTE   W96
//  #07 //009   ----------------------------------------
 BYTE   W96
//  #07 //010   ----------------------------------------
 BYTE   W96
//  #07 //011   ----------------------------------------
 BYTE   W96
//  #07 //012   ----------------------------------------
 BYTE   W96
//  #07 //013   ----------------------------------------
 BYTE   W96
//  #07 //014   ----------------------------------------
 BYTE   W96
//  #07 //015   ----------------------------------------
 BYTE   W96
//  #07 //016   ----------------------------------------
 BYTE   TIE  En1  v127
 BYTE   W96
//  #07 //017   ----------------------------------------
 BYTE   W96
//  #07 //018   ----------------------------------------
 BYTE   EOT
 BYTE   TIE  Dn1
 BYTE   W96
//  #07 //019   ----------------------------------------
 BYTE   W96
//  #07 //020   ----------------------------------------
 BYTE   EOT
 BYTE   TIE  En1
 BYTE   W96
//  #07 //021   ----------------------------------------
 BYTE   W96
//  #07 //022   ----------------------------------------
 BYTE   EOT
 BYTE   TIE  Dn1
 BYTE   W96
//  #07 //023   ----------------------------------------
 BYTE   W96
//  #07 //024   ----------------------------------------
 BYTE   EOT
 BYTE   N96  Cn1
 BYTE   W96
//  #07 //025   ----------------------------------------
 BYTE   Bn0
 BYTE   W96
//  #07 //026   ----------------------------------------
 BYTE   Dn1
 BYTE   W96
//  #07 //027   ----------------------------------------
 BYTE   N48  En1
 BYTE   W48
 BYTE   Dn1
 BYTE   W48
//  #07 //028   ----------------------------------------
 BYTE   N96  Cn1
 BYTE   W96
//  #07 //029   ----------------------------------------
 BYTE   Bn0
 BYTE   W96
//  #07 //030   ----------------------------------------
 BYTE   Dn1
 BYTE   W96
//  #07 //031   ----------------------------------------
 BYTE   N48  En1
 BYTE   W48
 BYTE   N42  Dn1
 BYTE   W48
//  #07 //032   ----------------------------------------
 BYTE   W96
//  #07 //033   ----------------------------------------
 BYTE   W96
//  #07 //034   ----------------------------------------
 BYTE   W96
//  #07 //035   ----------------------------------------
 BYTE   W96
//  #07 //036   ----------------------------------------
 BYTE   N96  Cn1
 BYTE   W96
//  #07 //037   ----------------------------------------
 BYTE   Bn0
 BYTE   W96
//  #07 //038   ----------------------------------------
 BYTE   An0
 BYTE   W96
//  #07 //039   ----------------------------------------
 BYTE   Bn0
 BYTE   W96
//  #07 //040   ----------------------------------------
 BYTE   N90  Ds1
 BYTE   W92
 BYTE   W03
 BYTE   GoTo
  POIN2 HARBINGER7
 BYTE   FINE

//**************** Track 8 (Midi-Chn.7) ****************//

TheyCallHimTheHarbinger_008:
//  #08 //000   ----------------------------------------
 BYTE   KEYSH   TheyCallHimTheHarbinger_key+0
HARBINGER8:
 BYTE   VOICE   49
 BYTE   MODT 0
 BYTE   LFOS 44
 BYTE   VOL   27*TheyCallHimTheHarbinger_mvl/mxv
 BYTE   PAN   c_v+32
 BYTE   TIE  En5  v076
 BYTE   W96
//  #08 //001   ----------------------------------------
 BYTE   W96
//  #08 //002   ----------------------------------------
 BYTE   EOT
 BYTE   TIE  Dn5
 BYTE   W96
//  #08 //003   ----------------------------------------
 BYTE   W96
//  #08 //004   ----------------------------------------
 BYTE   EOT
 BYTE   TIE  En5
 BYTE   W96
//  #08 //005   ----------------------------------------
 BYTE   W96
//  #08 //006   ----------------------------------------
 BYTE   EOT
 BYTE   TIE  Dn5
 BYTE   W96
//  #08 //007   ----------------------------------------
 BYTE   W96
//  #08 //008   ----------------------------------------
 BYTE   EOT
 BYTE   N96  Cn5
 BYTE   W96
//  #08 //009   ----------------------------------------
 BYTE   Bn4
 BYTE   W96
//  #08 //010   ----------------------------------------
 BYTE   Dn5
 BYTE   W96
//  #08 //011   ----------------------------------------
Label_01A55C94:
 BYTE   N48  En5  v076
 BYTE   W48
 BYTE   Dn5
 BYTE   W48
 BYTE   PEND 
//  #08 //012   ----------------------------------------
 BYTE   N96  Cn5
 BYTE   W96
//  #08 //013   ----------------------------------------
 BYTE   Bn4
 BYTE   W96
//  #08 //014   ----------------------------------------
 BYTE   Dn5
 BYTE   W96
//  #08 //015   ----------------------------------------
 BYTE   PATT
  POIN2 Label_01A55C94
//  #08 //016   ----------------------------------------
 BYTE   TIE  En5  v076
 BYTE   W96
//  #08 //017   ----------------------------------------
 BYTE   W96
//  #08 //018   ----------------------------------------
 BYTE   EOT
 BYTE   TIE  Dn5
 BYTE   W96
//  #08 //019   ----------------------------------------
 BYTE   W96
//  #08 //020   ----------------------------------------
 BYTE   EOT
 BYTE   TIE  En5
 BYTE   W96
//  #08 //021   ----------------------------------------
 BYTE   W96
//  #08 //022   ----------------------------------------
 BYTE   EOT
 BYTE   TIE  Dn5
 BYTE   W96
//  #08 //023   ----------------------------------------
 BYTE   W96
//  #08 //024   ----------------------------------------
 BYTE   EOT
 BYTE   N96  Cn5
 BYTE   W96
//  #08 //025   ----------------------------------------
 BYTE   Bn4
 BYTE   W96
//  #08 //026   ----------------------------------------
 BYTE   Dn5
 BYTE   W96
//  #08 //027   ----------------------------------------
 BYTE   PATT
  POIN2 Label_01A55C94
//  #08 //028   ----------------------------------------
 BYTE   N96  Cn5  v076
 BYTE   W96
//  #08 //029   ----------------------------------------
 BYTE   Bn4
 BYTE   W96
//  #08 //030   ----------------------------------------
 BYTE   Dn5
 BYTE   W96
//  #08 //031   ----------------------------------------
 BYTE   N48  En5
 BYTE   W48
 BYTE   N42  Dn5
 BYTE   W48
//  #08 //032   ----------------------------------------
 BYTE   W96
//  #08 //033   ----------------------------------------
 BYTE   W96
//  #08 //034   ----------------------------------------
 BYTE   W96
//  #08 //035   ----------------------------------------
 BYTE   W96
//  #08 //036   ----------------------------------------
 BYTE   N96  Cn5
 BYTE   W96
//  #08 //037   ----------------------------------------
 BYTE   Dn5
 BYTE   W96
//  #08 //038   ----------------------------------------
 BYTE   TIE  En5
 BYTE   W96
//  #08 //039   ----------------------------------------
 BYTE   W96
//  #08 //040   ----------------------------------------
 BYTE   EOT
 BYTE   N90  Ds5
 BYTE   W92
 BYTE   W03
 BYTE   GoTo
  POIN2 HARBINGER8
 BYTE   FINE

//******************************************************//
	ALIGN 4

TheyCallHimTheHarbinger:
	BYTE	8	// NumTrks
	BYTE	0	// NumBlks
	BYTE	TheyCallHimTheHarbinger_pri	// Priority
	BYTE	TheyCallHimTheHarbinger_rev	// Reverb.
    
	POIN2	TheyCallHimTheHarbinger_grp
    
	POIN2	TheyCallHimTheHarbinger_001
	POIN2	TheyCallHimTheHarbinger_002
	POIN2	TheyCallHimTheHarbinger_003
	POIN2	TheyCallHimTheHarbinger_004
	POIN2	TheyCallHimTheHarbinger_005
	POIN2	TheyCallHimTheHarbinger_006
	POIN2	TheyCallHimTheHarbinger_007
	POIN2	TheyCallHimTheHarbinger_008

	
