//Event file generated from Sappy .s format.
	#include "MPlayDef.event"

	#define	MyNameIsApsiel_grp  voicegroup000
	#define	MyNameIsApsiel_pri  0
	#define	MyNameIsApsiel_rev  192
	#define	MyNameIsApsiel_mvl  127
	#define	MyNameIsApsiel_key  0
	#define	MyNameIsApsiel_tbs  1
	#define	MyNameIsApsiel_exg  0
	#define	MyNameIsApsiel_cmp  1

	// .rodata
	//	MyNameIsApsiel
	ALIGN 4


//**************** Track 1 (Midi-Chn.0) ****************//

MyNameIsApsiel_001:
//  #01 //000   ----------------------------------------
 BYTE   KEYSH   MyNameIsApsiel_key+0
 BYTE   TEMPO   124*MyNameIsApsiel_tbs/2
 BYTE   VOICE   60
 BYTE   MODT 0
 BYTE   LFOS 44
 BYTE   VOL   30*MyNameIsApsiel_mvl/mxv
 BYTE   PAN   c_v+0
 BYTE   W96
//  #01 //001   ----------------------------------------
 BYTE   W96
//  #01 //002   ----------------------------------------
 BYTE   W96
//  #01 //003   ----------------------------------------
 BYTE   W96
//  #01 //004   ----------------------------------------
Label_01A5E166:
 BYTE   N42  En3  v127
 BYTE   W48
 BYTE   N15  Gn3
 BYTE   W16
 BYTE   An3
 BYTE   W16
 BYTE   Bn3
 BYTE   W16
 BYTE   PEND 
//  #01 //005   ----------------------------------------
 BYTE   N42  An3
 BYTE   W48
 BYTE   N15  Cn4
 BYTE   W16
 BYTE   Bn3
 BYTE   W16
 BYTE   An3
 BYTE   W16
//  #01 //006   ----------------------------------------
 BYTE   Gn3
 BYTE   W16
 BYTE   Fs3
 BYTE   W16
 BYTE   Gn3
 BYTE   W16
 BYTE   Bn3
 BYTE   W16
 BYTE   An3
 BYTE   W16
 BYTE   Gn3
 BYTE   W16
//  #01 //007   ----------------------------------------
 BYTE   N32
 BYTE   W36
 BYTE   N05  An3
 BYTE   W06
 BYTE   Gn3
 BYTE   W06
 BYTE   N15  Fs3
 BYTE   W16
 BYTE   En3
 BYTE   W16
 BYTE   Dn3
 BYTE   W16
//  #01 //008   ----------------------------------------
 BYTE   PATT
  POIN2 Label_01A5E166
//  #01 //009   ----------------------------------------
 BYTE   N15  Cn4  v127
 BYTE   W16
 BYTE   Bn3
 BYTE   W16
 BYTE   Cn4
 BYTE   W16
 BYTE   En4
 BYTE   W16
 BYTE   Fs4
 BYTE   W16
 BYTE   En4
 BYTE   W16
//  #01 //010   ----------------------------------------
 BYTE   Dn4
 BYTE   W16
 BYTE   Cn4
 BYTE   W16
 BYTE   Bn3
 BYTE   W16
 BYTE   An3
 BYTE   W16
 BYTE   Bn3
 BYTE   W16
 BYTE   Gn3
 BYTE   W16
//  #01 //011   ----------------------------------------
 BYTE   N32  An3
 BYTE   W36
 BYTE   N05  Bn3
 BYTE   W06
 BYTE   Cn4
 BYTE   W06
 BYTE   N42  Dn4
 BYTE   W48
//  #01 //012   ----------------------------------------
 BYTE   N15  Cn4
 BYTE   W16
 BYTE   An3
 BYTE   W16
 BYTE   Cn4
 BYTE   W16
 BYTE   En4
 BYTE   W16
 BYTE   Dn4
 BYTE   W16
 BYTE   Cn4
 BYTE   W16
//  #01 //013   ----------------------------------------
 BYTE   Bn3
 BYTE   W16
 BYTE   An3
 BYTE   W16
 BYTE   Bn3
 BYTE   W16
 BYTE   N20  Gn3
 BYTE   W24
 BYTE   Dn3
 BYTE   W24
//  #01 //014   ----------------------------------------
 BYTE   N15  Fs3
 BYTE   W16
 BYTE   En3
 BYTE   W16
 BYTE   Fs3
 BYTE   W16
 BYTE   N42  An3
 BYTE   W48
//  #01 //015   ----------------------------------------
 BYTE   N15  Bn3
 BYTE   W16
 BYTE   An3
 BYTE   W16
 BYTE   Gn3
 BYTE   W16
 BYTE   N42  Dn4
 BYTE   W48
//  #01 //016   ----------------------------------------
 BYTE   N15  En4
 BYTE   W16
 BYTE   Dn4
 BYTE   W16
 BYTE   En4
 BYTE   W16
 BYTE   An4
 BYTE   W16
 BYTE   Bn4
 BYTE   W16
 BYTE   An4
 BYTE   W16
//  #01 //017   ----------------------------------------
 BYTE   Gn4
 BYTE   W16
 BYTE   Fs4
 BYTE   W16
 BYTE   En4
 BYTE   W16
 BYTE   Dn4
 BYTE   W16
 BYTE   Cn4
 BYTE   W16
 BYTE   Bn3
 BYTE   W16
//  #01 //018   ----------------------------------------
 BYTE   Cn4
 BYTE   W16
 BYTE   Dn4
 BYTE   W16
 BYTE   Fs4
 BYTE   W16
 BYTE   An4
 BYTE   W16
 BYTE   Gn4
 BYTE   W16
 BYTE   Fs4
 BYTE   W16
//  #01 //019   ----------------------------------------
 BYTE   N42  En4
 BYTE   W48
 BYTE   N24  Fs4
 BYTE   W24
 BYTE   PAN   c_v+1
 BYTE   N02
 BYTE   W01
 BYTE   PAN   c_v+2
 BYTE   W01
 BYTE   PAN   c_v+3
 BYTE   W01
 BYTE   PAN   c_v+5
 BYTE   N02  En4
 BYTE   W01
 BYTE   PAN   c_v+6
 BYTE   W01
 BYTE   PAN   c_v+7
 BYTE   W01
 BYTE   PAN   c_v+9
 BYTE   N02  Dn4
 BYTE   W01
 BYTE   PAN   c_v+10
 BYTE   W01
 BYTE   PAN   c_v+11
 BYTE   W01
 BYTE   PAN   c_v+13
 BYTE   N02  Cn4
 BYTE   W01
 BYTE   PAN   c_v+14
 BYTE   W01
 BYTE   PAN   c_v+15
 BYTE   W01
 BYTE   PAN   c_v+17
 BYTE   N02  Bn3
 BYTE   W01
 BYTE   PAN   c_v+18
 BYTE   W01
 BYTE   PAN   c_v+19
 BYTE   W01
 BYTE   PAN   c_v+21
 BYTE   N02  An3
 BYTE   W01
 BYTE   PAN   c_v+22
 BYTE   W01
 BYTE   PAN   c_v+23
 BYTE   W01
 BYTE   PAN   c_v+25
 BYTE   N02  Gn3
 BYTE   W01
 BYTE   PAN   c_v+26
 BYTE   W01
 BYTE   PAN   c_v+27
 BYTE   W01
 BYTE   PAN   c_v+29
 BYTE   N02  Fs3
 BYTE   W01
 BYTE   PAN   c_v+30
 BYTE   W01
 BYTE   PAN   c_v+31
 BYTE   W01
//  #01 //020   ----------------------------------------
 BYTE   PAN   c_v+32
 BYTE   N11  Gn2  v076
 BYTE   N11  Bn2
 BYTE   N11  En3
 BYTE   W12
 BYTE   N05  Bn2
 BYTE   W06
 BYTE   N05
 BYTE   W06
 BYTE   N11  Gn2
 BYTE   N11  Bn2
 BYTE   N11  En3
 BYTE   W12
 BYTE   N05  Bn2
 BYTE   W06
 BYTE   N05
 BYTE   W06
 BYTE   N11  Gn2
 BYTE   N11  Bn2
 BYTE   N11  En3
 BYTE   W12
 BYTE   N05  Bn2
 BYTE   W06
 BYTE   N05
 BYTE   W06
 BYTE   N11  Gn2
 BYTE   N11  Bn2
 BYTE   N11  En3
 BYTE   W12
 BYTE   N05  Bn2
 BYTE   W06
 BYTE   N05
 BYTE   W06
//  #01 //021   ----------------------------------------
Label_01A5E291:
 BYTE   N11  An2  v076
 BYTE   N11  Cn3
 BYTE   N11  En3
 BYTE   W12
 BYTE   N05  Cn3
 BYTE   W06
 BYTE   N05
 BYTE   W06
 BYTE   N11  An2
 BYTE   N11  Cn3
 BYTE   N11  En3
 BYTE   W12
 BYTE   N05  Cn3
 BYTE   W06
 BYTE   N05
 BYTE   W06
 BYTE   N11  An2
 BYTE   N11  Cn3
 BYTE   N11  En3
 BYTE   W12
 BYTE   N05  Cn3
 BYTE   W06
 BYTE   N05
 BYTE   W06
 BYTE   N11  An2
 BYTE   N11  Cn3
 BYTE   N11  En3
 BYTE   W12
 BYTE   N05  Cn3
 BYTE   W06
 BYTE   N05
 BYTE   W06
 BYTE   PEND 
//  #01 //022   ----------------------------------------
Label_01A5E2C3:
 BYTE   N11  Gn2  v076
 BYTE   N11  Bn2
 BYTE   N11  Dn3
 BYTE   W12
 BYTE   N05  Bn2
 BYTE   W06
 BYTE   N05
 BYTE   W06
 BYTE   N11  Gn2
 BYTE   N11  Bn2
 BYTE   N11  Dn3
 BYTE   W12
 BYTE   N05  Bn2
 BYTE   W06
 BYTE   N05
 BYTE   W06
 BYTE   N11  Gn2
 BYTE   N11  Bn2
 BYTE   N11  Dn3
 BYTE   W12
 BYTE   N05  Bn2
 BYTE   W06
 BYTE   N05
 BYTE   W06
 BYTE   N11  Gn2
 BYTE   N11  Bn2
 BYTE   N11  Dn3
 BYTE   W12
 BYTE   N05  Bn2
 BYTE   W06
 BYTE   N05
 BYTE   W06
 BYTE   PEND 
//  #01 //023   ----------------------------------------
Label_01A5E2F5:
 BYTE   N11  Fs2  v076
 BYTE   N11  An2
 BYTE   N11  Dn3
 BYTE   W12
 BYTE   N05  An2
 BYTE   W06
 BYTE   N05
 BYTE   W06
 BYTE   N11  Fs2
 BYTE   N11  An2
 BYTE   N11  Dn3
 BYTE   W12
 BYTE   N05  An2
 BYTE   W06
 BYTE   N05
 BYTE   W06
 BYTE   N11  Fs2
 BYTE   N11  An2
 BYTE   N11  Dn3
 BYTE   W12
 BYTE   N05  An2
 BYTE   W06
 BYTE   N05
 BYTE   W06
 BYTE   N11  Fs2
 BYTE   N11  An2
 BYTE   N11  Dn3
 BYTE   W12
 BYTE   N05  An2
 BYTE   W06
 BYTE   N05
 BYTE   W06
 BYTE   PEND 
//  #01 //024   ----------------------------------------
 BYTE   N11  Gn2
 BYTE   N11  Bn2
 BYTE   N11  En3
 BYTE   W12
 BYTE   N05  Bn2
 BYTE   W06
 BYTE   N05
 BYTE   W06
 BYTE   N11  Gn2
 BYTE   N11  Bn2
 BYTE   N11  En3
 BYTE   W12
 BYTE   N05  Bn2
 BYTE   W06
 BYTE   N05
 BYTE   W06
 BYTE   N11  Gn2
 BYTE   N11  Bn2
 BYTE   N11  En3
 BYTE   W12
 BYTE   N05  Bn2
 BYTE   W06
 BYTE   N05
 BYTE   W06
 BYTE   N11  Gn2
 BYTE   N11  Bn2
 BYTE   N11  En3
 BYTE   W12
 BYTE   N05  Bn2
 BYTE   W06
 BYTE   N05
 BYTE   W06
//  #01 //025   ----------------------------------------
 BYTE   PATT
  POIN2 Label_01A5E291
//  #01 //026   ----------------------------------------
 BYTE   PATT
  POIN2 Label_01A5E2C3
//  #01 //027   ----------------------------------------
 BYTE   PATT
  POIN2 Label_01A5E2F5
//  #01 //028   ----------------------------------------
Label_01A5E366:
 BYTE   N96  En2  v076
 BYTE   N96  An2
 BYTE   N96  Cn3
 BYTE   W96
 BYTE   PEND 
//  #01 //029   ----------------------------------------
Label_01A5E36F:
 BYTE   N96  Dn2  v076
 BYTE   N96  Gn2
 BYTE   N96  Bn2
 BYTE   W96
 BYTE   PEND 
//  #01 //030   ----------------------------------------
Label_01A5E378:
 BYTE   N96  Cn2  v076
 BYTE   N96  Dn2
 BYTE   N96  Fs2
 BYTE   N96  An2
 BYTE   W96
 BYTE   PEND 
//  #01 //031   ----------------------------------------
 BYTE   N48  En2
 BYTE   N48  Gn2
 BYTE   N48  Bn2
 BYTE   W48
 BYTE   Dn2
 BYTE   N48  Fs2
 BYTE   N48  An2
 BYTE   W48
//  #01 //032   ----------------------------------------
 BYTE   PATT
  POIN2 Label_01A5E366
//  #01 //033   ----------------------------------------
 BYTE   PATT
  POIN2 Label_01A5E36F
//  #01 //034   ----------------------------------------
 BYTE   PATT
  POIN2 Label_01A5E378
//  #01 //035   ----------------------------------------
 BYTE   N48  En2  v076
 BYTE   N48  Gn2
 BYTE   N48  Bn2
 BYTE   W48
 BYTE   N24  Dn2
 BYTE   N24  Fs2
 BYTE   N24  An2
 BYTE   W24
 BYTE   PAN   c_v+31
 BYTE   N05  An2  v127
 BYTE   W01
 BYTE   PAN   c_v+30
 BYTE   W01
 BYTE   PAN   c_v+29
 BYTE   W01
 BYTE   PAN   c_v+27
 BYTE   W01
 BYTE   PAN   c_v+26
 BYTE   W01
 BYTE   PAN   c_v+25
 BYTE   W01
 BYTE   PAN   c_v+23
 BYTE   N05  Bn2
 BYTE   W01
 BYTE   PAN   c_v+22
 BYTE   W01
 BYTE   PAN   c_v+21
 BYTE   W01
 BYTE   PAN   c_v+19
 BYTE   W01
 BYTE   PAN   c_v+18
 BYTE   W01
 BYTE   PAN   c_v+17
 BYTE   W01
 BYTE   PAN   c_v+15
 BYTE   N05  Cn3
 BYTE   W01
 BYTE   PAN   c_v+14
 BYTE   W01
 BYTE   PAN   c_v+13
 BYTE   W01
 BYTE   PAN   c_v+11
 BYTE   W01
 BYTE   PAN   c_v+10
 BYTE   W01
 BYTE   PAN   c_v+9
 BYTE   W01
 BYTE   PAN   c_v+7
 BYTE   N05  Dn3
 BYTE   W01
 BYTE   PAN   c_v+6
 BYTE   W01
 BYTE   PAN   c_v+5
 BYTE   W01
 BYTE   PAN   c_v+3
 BYTE   W01
 BYTE   PAN   c_v+2
 BYTE   W01
 BYTE   PAN   c_v+1
 BYTE   W01
//  #01 //036   ----------------------------------------
 BYTE   PAN   c_v+0
 BYTE   N15  En3
 BYTE   W16
 BYTE   Gs3
 BYTE   W16
 BYTE   En3
 BYTE   W16
 BYTE   Bn3
 BYTE   W16
 BYTE   An3
 BYTE   W16
 BYTE   Gs3
 BYTE   W16
//  #01 //037   ----------------------------------------
 BYTE   N42  An3
 BYTE   W48
 BYTE   Cs4
 BYTE   W48
//  #01 //038   ----------------------------------------
 BYTE   N15  Bn3
 BYTE   W16
 BYTE   An3
 BYTE   W16
 BYTE   Gs3
 BYTE   W16
 BYTE   An3
 BYTE   W16
 BYTE   Gs3
 BYTE   W16
 BYTE   Fs3
 BYTE   W16
//  #01 //039   ----------------------------------------
 BYTE   N42  Gs3
 BYTE   W48
 BYTE   Bn3
 BYTE   W48
//  #01 //040   ----------------------------------------
 BYTE   N15  Cn4
 BYTE   W16
 BYTE   Bn3
 BYTE   W16
 BYTE   An3
 BYTE   W16
 BYTE   Gn3
 BYTE   W16
 BYTE   Fs3
 BYTE   W16
 BYTE   En3
 BYTE   W16
//  #01 //041   ----------------------------------------
 BYTE   N42  Dn3
 BYTE   W48
 BYTE   N15  Gn3
 BYTE   W16
 BYTE   An3
 BYTE   W16
 BYTE   Bn3
 BYTE   W16
//  #01 //042   ----------------------------------------
 BYTE   N42  An3
 BYTE   W48
 BYTE   Cn4
 BYTE   W48
//  #01 //043   ----------------------------------------
 BYTE   N66  Bn3
 BYTE   W72
 BYTE   N02  An3
 BYTE   W03
 BYTE   Gn3
 BYTE   W03
 BYTE   Fs3
 BYTE   W03
 BYTE   En3
 BYTE   W03
 BYTE   Ds3
 BYTE   W03
 BYTE   Cn3
 BYTE   W03
 BYTE   Bn2
 BYTE   W03
 BYTE   An2
 BYTE   W02
 BYTE   GoTo
  POIN2 Label_01A5E166
 BYTE   FINE

//**************** Track 2 (Midi-Chn.1) ****************//

MyNameIsApsiel_002:
//  #02 //000   ----------------------------------------
 BYTE   KEYSH   MyNameIsApsiel_key+0
 BYTE   VOICE   30
 BYTE   MODT 0
 BYTE   LFOS 44
 BYTE   VOL   24*MyNameIsApsiel_mvl/mxv
 BYTE   PAN   c_v-32
 BYTE   N04  Gn2  v076
 BYTE   N04  Bn2
 BYTE   N04  En3
 BYTE   W12
 BYTE   Gn2
 BYTE   N04  Bn2
 BYTE   N04  En3
 BYTE   W12
 BYTE   Gn2
 BYTE   N04  Bn2
 BYTE   N04  En3
 BYTE   W12
 BYTE   Gn2
 BYTE   N04  Bn2
 BYTE   N04  En3
 BYTE   W12
 BYTE   Gn2
 BYTE   N04  Bn2
 BYTE   N04  En3
 BYTE   W12
 BYTE   Gn2
 BYTE   N04  Bn2
 BYTE   N04  En3
 BYTE   W12
 BYTE   Gn2
 BYTE   N04  Bn2
 BYTE   N04  En3
 BYTE   W12
 BYTE   Gn2
 BYTE   N04  Bn2
 BYTE   N04  En3
 BYTE   W12
//  #02 //001   ----------------------------------------
 BYTE   Gn2
 BYTE   N04  As2
 BYTE   N04  En3
 BYTE   W12
 BYTE   Gn2
 BYTE   N04  As2
 BYTE   N04  En3
 BYTE   W12
 BYTE   Gn2
 BYTE   N04  As2
 BYTE   N04  En3
 BYTE   W12
 BYTE   Gn2
 BYTE   N04  As2
 BYTE   N04  En3
 BYTE   W12
 BYTE   Gn2
 BYTE   N04  As2
 BYTE   N04  En3
 BYTE   W12
 BYTE   Gn2
 BYTE   N04  As2
 BYTE   N04  En3
 BYTE   W12
 BYTE   Gn2
 BYTE   N04  As2
 BYTE   N04  En3
 BYTE   W12
 BYTE   Gn2
 BYTE   N04  As2
 BYTE   N04  En3
 BYTE   W12
//  #02 //002   ----------------------------------------
 BYTE   Gn2
 BYTE   N04  Bn2
 BYTE   N04  En3
 BYTE   W12
 BYTE   Gn2
 BYTE   N04  Bn2
 BYTE   N04  En3
 BYTE   W12
 BYTE   Gn2
 BYTE   N04  Bn2
 BYTE   N04  En3
 BYTE   W12
 BYTE   Gn2
 BYTE   N04  Bn2
 BYTE   N04  En3
 BYTE   W12
 BYTE   Gn2
 BYTE   N04  Bn2
 BYTE   N04  En3
 BYTE   W12
 BYTE   Gn2
 BYTE   N04  Bn2
 BYTE   N04  En3
 BYTE   W12
 BYTE   Gn2
 BYTE   N04  Bn2
 BYTE   N04  En3
 BYTE   W12
 BYTE   Gn2
 BYTE   N04  Bn2
 BYTE   N04  En3
 BYTE   W12
//  #02 //003   ----------------------------------------
 BYTE   Gn2
 BYTE   N04  An2
 BYTE   N04  Dn3
 BYTE   W12
 BYTE   Gn2
 BYTE   N04  An2
 BYTE   N04  Dn3
 BYTE   W12
 BYTE   Gn2
 BYTE   N04  An2
 BYTE   N04  Dn3
 BYTE   W12
 BYTE   Gn2
 BYTE   N04  An2
 BYTE   N04  Dn3
 BYTE   W12
 BYTE   Fs2
 BYTE   N04  An2
 BYTE   N04  Dn3
 BYTE   W12
 BYTE   Fs2
 BYTE   N04  An2
 BYTE   N04  Dn3
 BYTE   W12
 BYTE   Fs2
 BYTE   N04  An2
 BYTE   N04  Dn3
 BYTE   W12
 BYTE   Fs2
 BYTE   N04  An2
 BYTE   N04  Dn3
 BYTE   W12
//  #02 //004   ----------------------------------------
Label_01A5E516:
 BYTE   N11  Gn2  v076
 BYTE   N11  Bn2
 BYTE   N11  En3
 BYTE   W12
 BYTE   N05  Bn2
 BYTE   W06
 BYTE   N05
 BYTE   W06
 BYTE   N11  Gn2
 BYTE   N11  Bn2
 BYTE   N11  En3
 BYTE   W12
 BYTE   N05  Bn2
 BYTE   W06
 BYTE   N05
 BYTE   W06
 BYTE   N11  Gn2
 BYTE   N11  Bn2
 BYTE   N11  En3
 BYTE   W12
 BYTE   N05  Bn2
 BYTE   W06
 BYTE   N05
 BYTE   W06
 BYTE   N11  Gn2
 BYTE   N11  Bn2
 BYTE   N11  En3
 BYTE   W12
 BYTE   N05  Bn2
 BYTE   W06
 BYTE   N05
 BYTE   W06
 BYTE   PEND 
//  #02 //005   ----------------------------------------
Label_01A5E548:
 BYTE   N11  An2  v076
 BYTE   N11  Cn3
 BYTE   N11  En3
 BYTE   W12
 BYTE   N05  Cn3
 BYTE   W06
 BYTE   N05
 BYTE   W06
 BYTE   N11  An2
 BYTE   N11  Cn3
 BYTE   N11  En3
 BYTE   W12
 BYTE   N05  Cn3
 BYTE   W06
 BYTE   N05
 BYTE   W06
 BYTE   N11  An2
 BYTE   N11  Cn3
 BYTE   N11  En3
 BYTE   W12
 BYTE   N05  Cn3
 BYTE   W06
 BYTE   N05
 BYTE   W06
 BYTE   N11  An2
 BYTE   N11  Cn3
 BYTE   N11  En3
 BYTE   W12
 BYTE   N05  Cn3
 BYTE   W06
 BYTE   N05
 BYTE   W06
 BYTE   PEND 
//  #02 //006   ----------------------------------------
Label_01A5E57A:
 BYTE   N11  Gn2  v076
 BYTE   N11  Bn2
 BYTE   N11  Dn3
 BYTE   W12
 BYTE   N05  Bn2
 BYTE   W06
 BYTE   N05
 BYTE   W06
 BYTE   N11  Gn2
 BYTE   N11  Bn2
 BYTE   N11  Dn3
 BYTE   W12
 BYTE   N05  Bn2
 BYTE   W06
 BYTE   N05
 BYTE   W06
 BYTE   N11  Gn2
 BYTE   N11  Bn2
 BYTE   N11  Dn3
 BYTE   W12
 BYTE   N05  Bn2
 BYTE   W06
 BYTE   N05
 BYTE   W06
 BYTE   N11  Gn2
 BYTE   N11  Bn2
 BYTE   N11  Dn3
 BYTE   W12
 BYTE   N05  Bn2
 BYTE   W06
 BYTE   N05
 BYTE   W06
 BYTE   PEND 
//  #02 //007   ----------------------------------------
Label_01A5E5AC:
 BYTE   N11  Fs2  v076
 BYTE   N11  An2
 BYTE   N11  Dn3
 BYTE   W12
 BYTE   N05  An2
 BYTE   W06
 BYTE   N05
 BYTE   W06
 BYTE   N11  Fs2
 BYTE   N11  An2
 BYTE   N11  Dn3
 BYTE   W12
 BYTE   N05  An2
 BYTE   W06
 BYTE   N05
 BYTE   W06
 BYTE   N11  Fs2
 BYTE   N11  An2
 BYTE   N11  Dn3
 BYTE   W12
 BYTE   N05  An2
 BYTE   W06
 BYTE   N05
 BYTE   W06
 BYTE   N11  Fs2
 BYTE   N11  An2
 BYTE   N11  Dn3
 BYTE   W12
 BYTE   N05  An2
 BYTE   W06
 BYTE   N05
 BYTE   W06
 BYTE   PEND 
//  #02 //008   ----------------------------------------
 BYTE   PATT
  POIN2 Label_01A5E516
//  #02 //009   ----------------------------------------
 BYTE   PATT
  POIN2 Label_01A5E548
//  #02 //010   ----------------------------------------
 BYTE   PATT
  POIN2 Label_01A5E57A
//  #02 //011   ----------------------------------------
 BYTE   PATT
  POIN2 Label_01A5E5AC
//  #02 //012   ----------------------------------------
Label_01A5E5F2:
 BYTE   N96  En2  v076
 BYTE   N96  An2
 BYTE   N96  Cn3
 BYTE   W96
 BYTE   PEND 
//  #02 //013   ----------------------------------------
Label_01A5E5FB:
 BYTE   N96  Dn2  v076
 BYTE   N96  Gn2
 BYTE   N96  Bn2
 BYTE   W96
 BYTE   PEND 
//  #02 //014   ----------------------------------------
Label_01A5E604:
 BYTE   N96  Cn2  v076
 BYTE   N96  Dn2
 BYTE   N96  Fs2
 BYTE   N96  An2
 BYTE   W96
 BYTE   PEND 
//  #02 //015   ----------------------------------------
Label_01A5E60F:
 BYTE   N48  En2  v076
 BYTE   N48  Gn2
 BYTE   N48  Bn2
 BYTE   W48
 BYTE   Dn2
 BYTE   N48  Fs2
 BYTE   N48  An2
 BYTE   W48
 BYTE   PEND 
//  #02 //016   ----------------------------------------
 BYTE   PATT
  POIN2 Label_01A5E5F2
//  #02 //017   ----------------------------------------
 BYTE   PATT
  POIN2 Label_01A5E5FB
//  #02 //018   ----------------------------------------
 BYTE   PATT
  POIN2 Label_01A5E604
//  #02 //019   ----------------------------------------
 BYTE   PATT
  POIN2 Label_01A5E60F
//  #02 //020   ----------------------------------------
 BYTE   PATT
  POIN2 Label_01A5E516
//  #02 //021   ----------------------------------------
 BYTE   PATT
  POIN2 Label_01A5E548
//  #02 //022   ----------------------------------------
 BYTE   PATT
  POIN2 Label_01A5E57A
//  #02 //023   ----------------------------------------
 BYTE   PATT
  POIN2 Label_01A5E5AC
//  #02 //024   ----------------------------------------
 BYTE   PATT
  POIN2 Label_01A5E516
//  #02 //025   ----------------------------------------
 BYTE   PATT
  POIN2 Label_01A5E548
//  #02 //026   ----------------------------------------
 BYTE   PATT
  POIN2 Label_01A5E57A
//  #02 //027   ----------------------------------------
 BYTE   PATT
  POIN2 Label_01A5E5AC
//  #02 //028   ----------------------------------------
 BYTE   PATT
  POIN2 Label_01A5E5F2
//  #02 //029   ----------------------------------------
 BYTE   PATT
  POIN2 Label_01A5E5FB
//  #02 //030   ----------------------------------------
 BYTE   PATT
  POIN2 Label_01A5E604
//  #02 //031   ----------------------------------------
 BYTE   PATT
  POIN2 Label_01A5E60F
//  #02 //032   ----------------------------------------
 BYTE   PATT
  POIN2 Label_01A5E5F2
//  #02 //033   ----------------------------------------
 BYTE   PATT
  POIN2 Label_01A5E5FB
//  #02 //034   ----------------------------------------
 BYTE   PATT
  POIN2 Label_01A5E604
//  #02 //035   ----------------------------------------
 BYTE   PATT
  POIN2 Label_01A5E60F
//  #02 //036   ----------------------------------------
Label_01A5E682:
 BYTE   N11  Gs2  v076
 BYTE   N11  Bn2
 BYTE   N11  En3
 BYTE   W12
 BYTE   N05  Bn2
 BYTE   W06
 BYTE   N05
 BYTE   W06
 BYTE   N11  Gs2
 BYTE   N11  Bn2
 BYTE   N11  En3
 BYTE   W12
 BYTE   N05  Bn2
 BYTE   W06
 BYTE   N05
 BYTE   W06
 BYTE   N11  Gs2
 BYTE   N11  Bn2
 BYTE   N11  En3
 BYTE   W12
 BYTE   N05  Bn2
 BYTE   W06
 BYTE   N05
 BYTE   W06
 BYTE   N11  Gs2
 BYTE   N11  Bn2
 BYTE   N11  En3
 BYTE   W12
 BYTE   N05  Bn2
 BYTE   W06
 BYTE   N05
 BYTE   W06
 BYTE   PEND 
//  #02 //037   ----------------------------------------
 BYTE   N11  An2
 BYTE   N11  Cs3
 BYTE   N11  En3
 BYTE   W12
 BYTE   N05  Cs3
 BYTE   W06
 BYTE   N05
 BYTE   W06
 BYTE   N11  An2
 BYTE   N11  Cs3
 BYTE   N11  En3
 BYTE   W12
 BYTE   N05  Cs3
 BYTE   W06
 BYTE   N05
 BYTE   W06
 BYTE   N11  An2
 BYTE   N11  Cs3
 BYTE   N11  En3
 BYTE   W12
 BYTE   N05  Cs3
 BYTE   W06
 BYTE   N05
 BYTE   W06
 BYTE   N11  An2
 BYTE   N11  Cs3
 BYTE   N11  En3
 BYTE   W12
 BYTE   N05  Cs3
 BYTE   W06
 BYTE   N05
 BYTE   W06
//  #02 //038   ----------------------------------------
 BYTE   N11  Fs2
 BYTE   N11  Bn2
 BYTE   N11  Ds3
 BYTE   W12
 BYTE   N05  Bn2
 BYTE   W06
 BYTE   N05
 BYTE   W06
 BYTE   N11  Fs2
 BYTE   N11  Bn2
 BYTE   N11  Ds3
 BYTE   W12
 BYTE   N05  Bn2
 BYTE   W06
 BYTE   N05
 BYTE   W06
 BYTE   N11  Fs2
 BYTE   N11  Bn2
 BYTE   N11  Ds3
 BYTE   W12
 BYTE   N05  Bn2
 BYTE   W06
 BYTE   N05
 BYTE   W06
 BYTE   N11  Fs2
 BYTE   N11  Bn2
 BYTE   N11  Ds3
 BYTE   W12
 BYTE   N05  Bn2
 BYTE   W06
 BYTE   N05
 BYTE   W06
//  #02 //039   ----------------------------------------
 BYTE   PATT
  POIN2 Label_01A5E682
//  #02 //040   ----------------------------------------
 BYTE   N11  Gn2  v076
 BYTE   N11  Cn3
 BYTE   N11  En3
 BYTE   W12
 BYTE   N05  Cn3
 BYTE   W06
 BYTE   N05
 BYTE   W06
 BYTE   N11  Gn2
 BYTE   N11  Cn3
 BYTE   N11  En3
 BYTE   W12
 BYTE   N05  Cn3
 BYTE   W06
 BYTE   N05
 BYTE   W06
 BYTE   N11  Gn2
 BYTE   N11  Cn3
 BYTE   N11  En3
 BYTE   W12
 BYTE   N05  Cn3
 BYTE   W06
 BYTE   N05
 BYTE   W06
 BYTE   N11  Gn2
 BYTE   N11  Cn3
 BYTE   N11  En3
 BYTE   W12
 BYTE   N05  Cn3
 BYTE   W06
 BYTE   N05
 BYTE   W06
//  #02 //041   ----------------------------------------
 BYTE   N11  Bn2
 BYTE   N11  Dn3
 BYTE   N11  Gn3
 BYTE   W12
 BYTE   N05  Dn3
 BYTE   W06
 BYTE   N05
 BYTE   W06
 BYTE   N11  Bn2
 BYTE   N11  Dn3
 BYTE   N11  Gn3
 BYTE   W12
 BYTE   N05  Dn3
 BYTE   W06
 BYTE   N05
 BYTE   W06
 BYTE   N11  Bn2
 BYTE   N11  Dn3
 BYTE   N11  Gn3
 BYTE   W12
 BYTE   N05  Dn3
 BYTE   W06
 BYTE   N05
 BYTE   W06
 BYTE   N11  Bn2
 BYTE   N11  Dn3
 BYTE   N11  Gn3
 BYTE   W12
 BYTE   N05  Dn3
 BYTE   W06
 BYTE   N05
 BYTE   W06
//  #02 //042   ----------------------------------------
 BYTE   N11  Cn3
 BYTE   N11  En3
 BYTE   N11  An3
 BYTE   W12
 BYTE   N05  En3
 BYTE   W06
 BYTE   N05
 BYTE   W06
 BYTE   N11  Cn3
 BYTE   N11  En3
 BYTE   N11  An3
 BYTE   W12
 BYTE   N05  En3
 BYTE   W06
 BYTE   N05
 BYTE   W06
 BYTE   N11  Cn3
 BYTE   N11  En3
 BYTE   N11  An3
 BYTE   W12
 BYTE   N05  En3
 BYTE   W06
 BYTE   N05
 BYTE   W06
 BYTE   N11  Cn3
 BYTE   N11  En3
 BYTE   N11  An3
 BYTE   W12
 BYTE   N05  En3
 BYTE   W06
 BYTE   N05
 BYTE   W06
//  #02 //043   ----------------------------------------
 BYTE   N11
 BYTE   N11  Gn3
 BYTE   N11  Bn3
 BYTE   W12
 BYTE   N05  Gn3
 BYTE   W06
 BYTE   N05
 BYTE   W06
 BYTE   N11  En3
 BYTE   N11  Gn3
 BYTE   N11  Bn3
 BYTE   W12
 BYTE   N05  Gn3
 BYTE   W06
 BYTE   N05
 BYTE   W06
 BYTE   N04  Ds3
 BYTE   N04  Fs3
 BYTE   N04  Bn3
 BYTE   W12
 BYTE   Ds3
 BYTE   N04  Fs3
 BYTE   N04  Bn3
 BYTE   W12
 BYTE   Ds3
 BYTE   N04  Fs3
 BYTE   N04  Bn3
 BYTE   W06
 BYTE   Ds3
 BYTE   N04  Fs3
 BYTE   N04  Bn3
 BYTE   W06
 BYTE   Ds3
 BYTE   N04  Fs3
 BYTE   N04  Bn3
 BYTE   W06
 BYTE   Ds3
 BYTE   N04  Fs3
 BYTE   N04  Bn3
 BYTE   W05
 BYTE   GoTo
  POIN2 Label_01A5E516
 BYTE   FINE

//**************** Track 3 (Midi-Chn.2) ****************//

MyNameIsApsiel_003:
//  #03 //000   ----------------------------------------
 BYTE   KEYSH   MyNameIsApsiel_key+0
 BYTE   VOICE   127
 BYTE   MODT 0
 BYTE   LFOS 44
 BYTE   VOL   30*MyNameIsApsiel_mvl/mxv
 BYTE   PAN   c_v+0
 BYTE   N11  Bn0  v127
 BYTE   N11  Cn1
 BYTE   N11  Dn1
 BYTE   N11  En1
 BYTE   N11  As1
 BYTE   N11  Bn1
 BYTE   N11  Cn2
 BYTE   N11  Dn2
 BYTE   N11  An2
 BYTE   W12
 BYTE   N05  Fs1
 BYTE   W06
 BYTE   N05
 BYTE   W06
 BYTE   N11  As1
 BYTE   W12
 BYTE   N05  Fs1
 BYTE   W06
 BYTE   N05
 BYTE   W06
 BYTE   N11  As1
 BYTE   W12
 BYTE   N05  Fs1
 BYTE   W06
 BYTE   N05
 BYTE   W06
 BYTE   N11  As1
 BYTE   W12
 BYTE   N05  Fs1
 BYTE   W06
 BYTE   N05
 BYTE   W06
//  #03 //001   ----------------------------------------
Label_01A5EB45:
 BYTE   N11  Bn0  v127
 BYTE   N11  Cn1
 BYTE   N11  Dn1
 BYTE   N11  En1
 BYTE   N11  As1
 BYTE   N11  Bn1
 BYTE   N11  Cn2
 BYTE   N11  Dn2
 BYTE   N11  An2
 BYTE   W12
 BYTE   N05  Fs1
 BYTE   W06
 BYTE   N05
 BYTE   W06
 BYTE   N11  As1
 BYTE   W12
 BYTE   N05  Fs1
 BYTE   W06
 BYTE   N05
 BYTE   W06
 BYTE   N11  Bn0
 BYTE   N11  Cn1
 BYTE   N11  Dn1
 BYTE   N11  En1
 BYTE   N11  As1
 BYTE   N11  Bn1
 BYTE   N11  Cn2
 BYTE   N11  Dn2
 BYTE   N11  An2
 BYTE   W12
 BYTE   N05  Fs1
 BYTE   W06
 BYTE   N05
 BYTE   W06
 BYTE   N11  As1
 BYTE   W12
 BYTE   N05  Fs1
 BYTE   W06
 BYTE   N05
 BYTE   W06
 BYTE   PEND 
//  #03 //002   ----------------------------------------
Label_01A5EB87:
 BYTE   N11  Bn0  v127
 BYTE   N11  Cn1
 BYTE   N11  Dn1
 BYTE   N11  En1
 BYTE   N11  As1
 BYTE   N11  Bn1
 BYTE   N11  Cn2
 BYTE   N11  Dn2
 BYTE   N11  An2
 BYTE   W12
 BYTE   N05  Fs1
 BYTE   W06
 BYTE   N05
 BYTE   W06
 BYTE   N11  As1
 BYTE   W12
 BYTE   N05  Fs1
 BYTE   W06
 BYTE   N05
 BYTE   W06
 BYTE   N11  As1
 BYTE   W12
 BYTE   N05  Fs1
 BYTE   W06
 BYTE   N05
 BYTE   W06
 BYTE   N11  As1
 BYTE   W12
 BYTE   N05  Fs1
 BYTE   W06
 BYTE   N05
 BYTE   W06
 BYTE   PEND 
//  #03 //003   ----------------------------------------
 BYTE   N11  En1
 BYTE   N11  As1
 BYTE   W12
 BYTE   N05  Cn1
 BYTE   N05  Fs1
 BYTE   W06
 BYTE   N05
 BYTE   W06
 BYTE   N11  En1
 BYTE   N11  As1
 BYTE   W12
 BYTE   N05  Cn1
 BYTE   N05  Fs1
 BYTE   W06
 BYTE   N05
 BYTE   W06
 BYTE   N11  En1
 BYTE   N11  As1
 BYTE   W12
 BYTE   N05  Cn1
 BYTE   N05  Fs1
 BYTE   W06
 BYTE   N05
 BYTE   W06
 BYTE   En1
 BYTE   N05  As1
 BYTE   N05  Dn2
 BYTE   W06
 BYTE   En1
 BYTE   N05  Gs1
 BYTE   N05  Cn2
 BYTE   W06
 BYTE   Cn1
 BYTE   N05  En1
 BYTE   N05  Fs1
 BYTE   N05  Bn1
 BYTE   W06
 BYTE   En1
 BYTE   N05  Fs1
 BYTE   N05  An1
 BYTE   W06
//  #03 //004   ----------------------------------------
Label_01A5EBF7:
 BYTE   N05  Bn0  v127
 BYTE   N05  Cn1
 BYTE   N05  Dn1
 BYTE   N05  En1
 BYTE   N05  Fs1
 BYTE   N05  As1
 BYTE   N05  Bn1
 BYTE   N05  Cn2
 BYTE   N05  Dn2
 BYTE   N05  An2
 BYTE   W06
 BYTE   Gs1
 BYTE   W06
 BYTE   As1
 BYTE   W06
 BYTE   Gs1
 BYTE   W06
 BYTE   N20  Dn1
 BYTE   N20  En1
 BYTE   N05  Fs1
 BYTE   W06
 BYTE   Gs1
 BYTE   W06
 BYTE   As1
 BYTE   W06
 BYTE   Gs1
 BYTE   W06
 BYTE   N20  Bn0
 BYTE   N20  Cn1
 BYTE   N05  Fs1
 BYTE   W06
 BYTE   Gs1
 BYTE   W06
 BYTE   As1
 BYTE   W06
 BYTE   Gs1
 BYTE   W06
 BYTE   Dn1
 BYTE   N05  En1
 BYTE   N05  Fs1
 BYTE   W06
 BYTE   Gs1
 BYTE   W06
 BYTE   Dn1
 BYTE   N05  En1
 BYTE   N05  As1
 BYTE   W06
 BYTE   Gs1
 BYTE   W06
 BYTE   PEND 
//  #03 //005   ----------------------------------------
Label_01A5EC3E:
 BYTE   N20  Bn0  v127
 BYTE   N20  Cn1
 BYTE   N05  Fs1
 BYTE   W06
 BYTE   Gs1
 BYTE   W06
 BYTE   As1
 BYTE   W06
 BYTE   Gs1
 BYTE   W06
 BYTE   N20  Dn1
 BYTE   N20  En1
 BYTE   N05  Fs1
 BYTE   W06
 BYTE   Gs1
 BYTE   W06
 BYTE   As1
 BYTE   W06
 BYTE   Gs1
 BYTE   W06
 BYTE   N20  Bn0
 BYTE   N20  Cn1
 BYTE   N05  Fs1
 BYTE   W06
 BYTE   Dn1
 BYTE   N05  En1
 BYTE   N05  Gs1
 BYTE   W06
 BYTE   As1
 BYTE   W06
 BYTE   Gs1
 BYTE   W06
 BYTE   N20  Dn1
 BYTE   N20  En1
 BYTE   N05  Fs1
 BYTE   W06
 BYTE   Gs1
 BYTE   W06
 BYTE   Bn0
 BYTE   N05  Cn1
 BYTE   N05  As1
 BYTE   W06
 BYTE   Gs1
 BYTE   W06
 BYTE   PEND 
//  #03 //006   ----------------------------------------
Label_01A5EC7C:
 BYTE   N20  Bn0  v127
 BYTE   N20  Cn1
 BYTE   N05  Fs1
 BYTE   W06
 BYTE   Gs1
 BYTE   W06
 BYTE   As1
 BYTE   W06
 BYTE   Gs1
 BYTE   W06
 BYTE   N20  Dn1
 BYTE   N20  En1
 BYTE   N05  Fs1
 BYTE   W06
 BYTE   Gs1
 BYTE   W06
 BYTE   As1
 BYTE   W06
 BYTE   Gs1
 BYTE   W06
 BYTE   N20  Bn0
 BYTE   N20  Cn1
 BYTE   N05  Fs1
 BYTE   W06
 BYTE   Gs1
 BYTE   W06
 BYTE   As1
 BYTE   W06
 BYTE   Gs1
 BYTE   W06
 BYTE   Dn1
 BYTE   N05  En1
 BYTE   N05  Fs1
 BYTE   W06
 BYTE   Gs1
 BYTE   W06
 BYTE   Dn1
 BYTE   N05  En1
 BYTE   N05  As1
 BYTE   W06
 BYTE   Gs1
 BYTE   W06
 BYTE   PEND 
//  #03 //007   ----------------------------------------
Label_01A5ECB5:
 BYTE   N20  Bn0  v127
 BYTE   N20  Cn1
 BYTE   N05  Fs1
 BYTE   W06
 BYTE   Gs1
 BYTE   W06
 BYTE   As1
 BYTE   W06
 BYTE   Gs1
 BYTE   W06
 BYTE   N20  Dn1
 BYTE   N20  En1
 BYTE   N05  Fs1
 BYTE   W06
 BYTE   Gs1
 BYTE   W06
 BYTE   As1
 BYTE   W06
 BYTE   Gs1
 BYTE   W06
 BYTE   N20  Bn0
 BYTE   N20  Cn1
 BYTE   N05  Fs1
 BYTE   W06
 BYTE   Gs1
 BYTE   W06
 BYTE   As1
 BYTE   W06
 BYTE   Gs1
 BYTE   W06
 BYTE   Dn1
 BYTE   N05  En1
 BYTE   N05  Fs1
 BYTE   W06
 BYTE   Dn1
 BYTE   N05  En1
 BYTE   N05  Gs1
 BYTE   W06
 BYTE   Dn1
 BYTE   N05  En1
 BYTE   N05  As1
 BYTE   W06
 BYTE   Dn1
 BYTE   N05  En1
 BYTE   N05  Gs1
 BYTE   W06
 BYTE   PEND 
//  #03 //008   ----------------------------------------
Label_01A5ECF6:
 BYTE   N20  Bn0  v127
 BYTE   N20  Cn1
 BYTE   N05  Fs1
 BYTE   N05  An2
 BYTE   W06
 BYTE   Gs1
 BYTE   W06
 BYTE   As1
 BYTE   W06
 BYTE   Gs1
 BYTE   W06
 BYTE   N20  Dn1
 BYTE   N20  En1
 BYTE   N05  Fs1
 BYTE   W06
 BYTE   Gs1
 BYTE   W06
 BYTE   As1
 BYTE   W06
 BYTE   Gs1
 BYTE   W06
 BYTE   N20  Bn0
 BYTE   N20  Cn1
 BYTE   N05  Fs1
 BYTE   W06
 BYTE   Gs1
 BYTE   W06
 BYTE   As1
 BYTE   W06
 BYTE   Gs1
 BYTE   W06
 BYTE   Dn1
 BYTE   N05  En1
 BYTE   N05  Fs1
 BYTE   W06
 BYTE   Gs1
 BYTE   W06
 BYTE   Dn1
 BYTE   N05  En1
 BYTE   N05  As1
 BYTE   W06
 BYTE   Gs1
 BYTE   W06
 BYTE   PEND 
//  #03 //009   ----------------------------------------
 BYTE   PATT
  POIN2 Label_01A5EC3E
//  #03 //010   ----------------------------------------
 BYTE   PATT
  POIN2 Label_01A5EC7C
//  #03 //011   ----------------------------------------
Label_01A5ED3B:
 BYTE   N05  Dn1  v127
 BYTE   N05  En1
 BYTE   N05  Fs1
 BYTE   W06
 BYTE   Gs1
 BYTE   W06
 BYTE   Bn0
 BYTE   N05  Cn1
 BYTE   N05  As1
 BYTE   W06
 BYTE   Gs1
 BYTE   W06
 BYTE   Dn1
 BYTE   N05  En1
 BYTE   N05  Fs1
 BYTE   W06
 BYTE   Gs1
 BYTE   W06
 BYTE   Bn0
 BYTE   N05  Cn1
 BYTE   N05  As1
 BYTE   W06
 BYTE   Gs1
 BYTE   W06
 BYTE   Dn1
 BYTE   N05  En1
 BYTE   N05  Fs1
 BYTE   W06
 BYTE   Gs1
 BYTE   W06
 BYTE   Bn0
 BYTE   N05  Cn1
 BYTE   N05  As1
 BYTE   W06
 BYTE   Gs1
 BYTE   W06
 BYTE   En1
 BYTE   N05  Fs1
 BYTE   N05  Dn2
 BYTE   W06
 BYTE   En1
 BYTE   N05  Gs1
 BYTE   N05  Cn2
 BYTE   W06
 BYTE   En1
 BYTE   N05  As1
 BYTE   N05  Bn1
 BYTE   W06
 BYTE   En1
 BYTE   N05  Gs1
 BYTE   N05  An1
 BYTE   W06
 BYTE   PEND 
//  #03 //012   ----------------------------------------
Label_01A5ED86:
 BYTE   N11  Cn1  v127
 BYTE   N11  Fs1
 BYTE   N11  An2
 BYTE   W12
 BYTE   As1
 BYTE   W12
 BYTE   En1
 BYTE   N11  Fs1
 BYTE   W12
 BYTE   As1
 BYTE   W12
 BYTE   Cn1
 BYTE   N11  Fs1
 BYTE   W12
 BYTE   As1
 BYTE   W12
 BYTE   En1
 BYTE   N11  Fs1
 BYTE   W12
 BYTE   En1
 BYTE   N11  As1
 BYTE   W12
 BYTE   PEND 
//  #03 //013   ----------------------------------------
Label_01A5EDA5:
 BYTE   N11  Cn1  v127
 BYTE   N11  Fs1
 BYTE   W12
 BYTE   As1
 BYTE   W12
 BYTE   En1
 BYTE   N11  Fs1
 BYTE   W12
 BYTE   As1
 BYTE   W12
 BYTE   N05  Cn1
 BYTE   N05  Fs1
 BYTE   W06
 BYTE   En1
 BYTE   W06
 BYTE   N11  As1
 BYTE   W12
 BYTE   En1
 BYTE   N11  Fs1
 BYTE   W12
 BYTE   Cn1
 BYTE   N11  As1
 BYTE   W12
 BYTE   PEND 
//  #03 //014   ----------------------------------------
Label_01A5EDC6:
 BYTE   N11  Cn1  v127
 BYTE   N11  Fs1
 BYTE   W12
 BYTE   As1
 BYTE   W12
 BYTE   En1
 BYTE   N11  Fs1
 BYTE   W12
 BYTE   As1
 BYTE   W12
 BYTE   Cn1
 BYTE   N11  Fs1
 BYTE   W12
 BYTE   As1
 BYTE   W12
 BYTE   En1
 BYTE   N11  Fs1
 BYTE   W12
 BYTE   En1
 BYTE   N11  As1
 BYTE   W12
 BYTE   PEND 
//  #03 //015   ----------------------------------------
Label_01A5EDE3:
 BYTE   N11  Cn1  v127
 BYTE   N11  Fs1
 BYTE   W12
 BYTE   As1
 BYTE   W12
 BYTE   En1
 BYTE   N11  Fs1
 BYTE   W12
 BYTE   As1
 BYTE   W12
 BYTE   N05  Cn1
 BYTE   N05  Fs1
 BYTE   W06
 BYTE   En1
 BYTE   W06
 BYTE   N11  As1
 BYTE   W12
 BYTE   N05  En1
 BYTE   N05  Fs1
 BYTE   N05  Dn2
 BYTE   W06
 BYTE   Cn2
 BYTE   W06
 BYTE   Cn1
 BYTE   N05  As1
 BYTE   N05  Bn1
 BYTE   W06
 BYTE   An1
 BYTE   W06
 BYTE   PEND 
//  #03 //016   ----------------------------------------
 BYTE   PATT
  POIN2 Label_01A5ED86
//  #03 //017   ----------------------------------------
 BYTE   PATT
  POIN2 Label_01A5EDA5
//  #03 //018   ----------------------------------------
 BYTE   PATT
  POIN2 Label_01A5EDC6
//  #03 //019   ----------------------------------------
Label_01A5EE1C:
 BYTE   N11  En1  v127
 BYTE   N11  An2
 BYTE   W12
 BYTE   Cn1
 BYTE   W12
 BYTE   En1
 BYTE   N11  An2
 BYTE   W12
 BYTE   Cn1
 BYTE   W12
 BYTE   En1
 BYTE   N11  An2
 BYTE   W12
 BYTE   Cn1
 BYTE   W12
 BYTE   N05  En1
 BYTE   N05  Dn2
 BYTE   N05  An2
 BYTE   W06
 BYTE   En1
 BYTE   N05  Cn2
 BYTE   W06
 BYTE   En1
 BYTE   N05  Bn1
 BYTE   W06
 BYTE   En1
 BYTE   N05  An1
 BYTE   W06
 BYTE   PEND 
//  #03 //020   ----------------------------------------
 BYTE   PATT
  POIN2 Label_01A5EBF7
//  #03 //021   ----------------------------------------
 BYTE   PATT
  POIN2 Label_01A5EC3E
//  #03 //022   ----------------------------------------
 BYTE   PATT
  POIN2 Label_01A5EC7C
//  #03 //023   ----------------------------------------
 BYTE   PATT
  POIN2 Label_01A5ECB5
//  #03 //024   ----------------------------------------
 BYTE   PATT
  POIN2 Label_01A5ECF6
//  #03 //025   ----------------------------------------
 BYTE   PATT
  POIN2 Label_01A5EC3E
//  #03 //026   ----------------------------------------
 BYTE   PATT
  POIN2 Label_01A5EC7C
//  #03 //027   ----------------------------------------
 BYTE   PATT
  POIN2 Label_01A5ED3B
//  #03 //028   ----------------------------------------
 BYTE   PATT
  POIN2 Label_01A5ED86
//  #03 //029   ----------------------------------------
 BYTE   PATT
  POIN2 Label_01A5EDA5
//  #03 //030   ----------------------------------------
 BYTE   PATT
  POIN2 Label_01A5EDC6
//  #03 //031   ----------------------------------------
 BYTE   PATT
  POIN2 Label_01A5EDE3
//  #03 //032   ----------------------------------------
 BYTE   PATT
  POIN2 Label_01A5ED86
//  #03 //033   ----------------------------------------
 BYTE   PATT
  POIN2 Label_01A5EDA5
//  #03 //034   ----------------------------------------
 BYTE   PATT
  POIN2 Label_01A5EDC6
//  #03 //035   ----------------------------------------
 BYTE   PATT
  POIN2 Label_01A5EE1C
//  #03 //036   ----------------------------------------
 BYTE   PATT
  POIN2 Label_01A5EB87
//  #03 //037   ----------------------------------------
 BYTE   PATT
  POIN2 Label_01A5EB45
//  #03 //038   ----------------------------------------
 BYTE   PATT
  POIN2 Label_01A5EB87
//  #03 //039   ----------------------------------------
 BYTE   N11  Bn0  v127
 BYTE   N11  Cn1
 BYTE   N11  Dn1
 BYTE   N11  En1
 BYTE   N11  As1
 BYTE   N11  Bn1
 BYTE   N11  Cn2
 BYTE   N11  Dn2
 BYTE   N11  An2
 BYTE   W12
 BYTE   N05  Fs1
 BYTE   W06
 BYTE   N05
 BYTE   W06
 BYTE   N11  As1
 BYTE   W12
 BYTE   N05  Fs1
 BYTE   W06
 BYTE   N05
 BYTE   W06
 BYTE   N11  Bn0
 BYTE   N11  Cn1
 BYTE   N11  Dn1
 BYTE   N11  En1
 BYTE   N11  As1
 BYTE   N11  Bn1
 BYTE   N11  Cn2
 BYTE   N11  Dn2
 BYTE   N11  An2
 BYTE   W12
 BYTE   N05  Fs1
 BYTE   W06
 BYTE   N05
 BYTE   W06
 BYTE   En1
 BYTE   N05  An1
 BYTE   N05  Dn2
 BYTE   W06
 BYTE   En1
 BYTE   N05  Gs1
 BYTE   N05  Cn2
 BYTE   W06
 BYTE   Cn1
 BYTE   N05  En1
 BYTE   N05  Fs1
 BYTE   N05  Bn1
 BYTE   W06
 BYTE   En1
 BYTE   N05  Fs1
 BYTE   N05  An1
 BYTE   W06
//  #03 //040   ----------------------------------------
 BYTE   PATT
  POIN2 Label_01A5EBF7
//  #03 //041   ----------------------------------------
 BYTE   PATT
  POIN2 Label_01A5EC3E
//  #03 //042   ----------------------------------------
 BYTE   PATT
  POIN2 Label_01A5EC7C
//  #03 //043   ----------------------------------------
 BYTE   N20  Bn0  v127
 BYTE   N20  Cn1
 BYTE   N05  Fs1
 BYTE   W06
 BYTE   Gs1
 BYTE   W06
 BYTE   As1
 BYTE   W06
 BYTE   Gs1
 BYTE   W06
 BYTE   N20  Dn1
 BYTE   N20  En1
 BYTE   N05  Fs1
 BYTE   W06
 BYTE   Gs1
 BYTE   W06
 BYTE   As1
 BYTE   W06
 BYTE   Gs1
 BYTE   W06
 BYTE   N20  Bn0
 BYTE   N20  Cn1
 BYTE   N05  Fs1
 BYTE   W06
 BYTE   Gs1
 BYTE   W06
 BYTE   As1
 BYTE   W06
 BYTE   Gs1
 BYTE   W06
 BYTE   Dn1
 BYTE   N05  En1
 BYTE   N05  Fs1
 BYTE   W06
 BYTE   Dn1
 BYTE   N05  En1
 BYTE   N05  Gs1
 BYTE   W06
 BYTE   Dn1
 BYTE   N05  En1
 BYTE   N05  As1
 BYTE   W06
 BYTE   Dn1
 BYTE   N05  En1
 BYTE   N05  Gs1
 BYTE   W05
 BYTE   GoTo
  POIN2 Label_01A5EBF7
 BYTE   FINE

//**************** Track 4 (Midi-Chn.3) ****************//

MyNameIsApsiel_004:
//  #04 //000   ----------------------------------------
 BYTE   KEYSH   MyNameIsApsiel_key+0
 BYTE   VOICE   18
 BYTE   MODT 0
 BYTE   LFOS 44
 BYTE   VOL   23*MyNameIsApsiel_mvl/mxv
 BYTE   PAN   c_v+32
 BYTE   N90  En4  v076
 BYTE   N90  Gn4
 BYTE   N90  Bn4
 BYTE   W96
//  #04 //001   ----------------------------------------
 BYTE   En4
 BYTE   N90  Gn4
 BYTE   N90  As4
 BYTE   W96
//  #04 //002   ----------------------------------------
 BYTE   En4
 BYTE   N90  Gn4
 BYTE   N90  Bn4
 BYTE   W96
//  #04 //003   ----------------------------------------
 BYTE   N42  Gn4
 BYTE   N90  An4
 BYTE   N90  Dn5
 BYTE   W48
 BYTE   N42  Fs4
 BYTE   W48
//  #04 //004   ----------------------------------------
Label_01A5E816:
 BYTE   N96  En4  v076
 BYTE   N96  Gn4
 BYTE   N96  Bn4
 BYTE   W96
 BYTE   PEND 
//  #04 //005   ----------------------------------------
Label_01A5E81F:
 BYTE   N96  En4  v076
 BYTE   N96  An4
 BYTE   N96  Cn5
 BYTE   W96
 BYTE   PEND 
//  #04 //006   ----------------------------------------
Label_01A5E828:
 BYTE   N96  Gn4  v076
 BYTE   N96  Bn4
 BYTE   N96  Dn5
 BYTE   W96
 BYTE   PEND 
//  #04 //007   ----------------------------------------
Label_01A5E831:
 BYTE   N96  Fs4  v076
 BYTE   N96  An4
 BYTE   N96  Dn5
 BYTE   W96
 BYTE   PEND 
//  #04 //008   ----------------------------------------
 BYTE   PATT
  POIN2 Label_01A5E816
//  #04 //009   ----------------------------------------
 BYTE   PATT
  POIN2 Label_01A5E81F
//  #04 //010   ----------------------------------------
 BYTE   PATT
  POIN2 Label_01A5E828
//  #04 //011   ----------------------------------------
 BYTE   PATT
  POIN2 Label_01A5E831
//  #04 //012   ----------------------------------------
 BYTE   PATT
  POIN2 Label_01A5E81F
//  #04 //013   ----------------------------------------
Label_01A5E853:
 BYTE   N96  Dn4  v076
 BYTE   N96  Gn4
 BYTE   N96  Bn4
 BYTE   W96
 BYTE   PEND 
//  #04 //014   ----------------------------------------
Label_01A5E85C:
 BYTE   N96  Cn4  v076
 BYTE   N96  Dn4
 BYTE   N96  Fs4
 BYTE   N96  An4
 BYTE   W96
 BYTE   PEND 
//  #04 //015   ----------------------------------------
 BYTE   N48  En4
 BYTE   N48  Gn4
 BYTE   N48  Bn4
 BYTE   W48
 BYTE   Dn4
 BYTE   N48  Fs4
 BYTE   N48  An4
 BYTE   W48
//  #04 //016   ----------------------------------------
 BYTE   PATT
  POIN2 Label_01A5E81F
//  #04 //017   ----------------------------------------
 BYTE   PATT
  POIN2 Label_01A5E853
//  #04 //018   ----------------------------------------
 BYTE   PATT
  POIN2 Label_01A5E85C
//  #04 //019   ----------------------------------------
 BYTE   N48  En4  v076
 BYTE   N48  Gn4
 BYTE   N48  Bn4
 BYTE   W48
 BYTE   N36  Dn4
 BYTE   N36  Fs4
 BYTE   N36  An4
 BYTE   W36
 BYTE   PAN   c_v+31
 BYTE   N02  An4  v127
 BYTE   W01
 BYTE   PAN   c_v+30
 BYTE   W01
 BYTE   PAN   c_v+29
 BYTE   W01
 BYTE   PAN   c_v+27
 BYTE   N02  Bn4
 BYTE   W01
 BYTE   PAN   c_v+26
 BYTE   W01
 BYTE   PAN   c_v+25
 BYTE   W01
 BYTE   PAN   c_v+23
 BYTE   N02  Cn5
 BYTE   W01
 BYTE   PAN   c_v+22
 BYTE   W01
 BYTE   PAN   c_v+21
 BYTE   W01
 BYTE   PAN   c_v+19
 BYTE   N02  Dn5
 BYTE   W01
 BYTE   PAN   c_v+18
 BYTE   W01
 BYTE   PAN   c_v+17
 BYTE   W01
//  #04 //020   ----------------------------------------
 BYTE   PAN   c_v+15
 BYTE   N42  En5
 BYTE   W01
 BYTE   PAN   c_v+14
 BYTE   W01
 BYTE   PAN   c_v+13
 BYTE   W01
 BYTE   PAN   c_v+11
 BYTE   W01
 BYTE   PAN   c_v+10
 BYTE   W01
 BYTE   PAN   c_v+9
 BYTE   W01
 BYTE   PAN   c_v+7
 BYTE   W01
 BYTE   PAN   c_v+6
 BYTE   W01
 BYTE   PAN   c_v+5
 BYTE   W01
 BYTE   PAN   c_v+3
 BYTE   W01
 BYTE   PAN   c_v+2
 BYTE   W01
 BYTE   PAN   c_v+1
 BYTE   W01
 BYTE   PAN   c_v+0
 BYTE   W36
 BYTE   N05  Dn5
 BYTE   W06
 BYTE   En5
 BYTE   W06
 BYTE   Cn5
 BYTE   W06
 BYTE   Dn5
 BYTE   W06
 BYTE   Bn4
 BYTE   W06
 BYTE   Cn5
 BYTE   W06
 BYTE   An4
 BYTE   W06
 BYTE   Bn4
 BYTE   W06
//  #04 //021   ----------------------------------------
 BYTE   N15  Cn5
 BYTE   W16
 BYTE   Bn4
 BYTE   W16
 BYTE   An4
 BYTE   W16
 BYTE   N32  Cn5
 BYTE   W36
 BYTE   N05  Dn5
 BYTE   W06
 BYTE   En5
 BYTE   W06
//  #04 //022   ----------------------------------------
 BYTE   Gn5
 BYTE   W06
 BYTE   An5
 BYTE   W06
 BYTE   Fs5
 BYTE   W06
 BYTE   Gn5
 BYTE   W06
 BYTE   Dn5
 BYTE   W06
 BYTE   Cn5
 BYTE   W06
 BYTE   Bn4
 BYTE   W06
 BYTE   An4
 BYTE   W06
 BYTE   Gn4
 BYTE   W06
 BYTE   Fs4
 BYTE   W06
 BYTE   En4
 BYTE   W06
 BYTE   Dn4
 BYTE   W06
 BYTE   N07  Gn4
 BYTE   W08
 BYTE   An4
 BYTE   W08
 BYTE   Bn4
 BYTE   W08
//  #04 //023   ----------------------------------------
 BYTE   N42  Dn5
 BYTE   W48
 BYTE   N05  An4
 BYTE   N05  Dn5
 BYTE   N05  Fs5
 BYTE   W06
 BYTE   N04  An4
 BYTE   N04  Dn5
 BYTE   N04  Fs5
 BYTE   W12
 BYTE   N05  An4
 BYTE   N05  Dn5
 BYTE   N05  Fs5
 BYTE   W06
 BYTE   An4
 BYTE   N05  Dn5
 BYTE   N05  Fs5
 BYTE   W06
 BYTE   N04  An4
 BYTE   N04  Dn5
 BYTE   N04  Fs5
 BYTE   W12
 BYTE   N05  An4
 BYTE   N05  Dn5
 BYTE   N05  Fs5
 BYTE   W06
//  #04 //024   ----------------------------------------
 BYTE   N15  En5
 BYTE   W16
 BYTE   Dn5
 BYTE   W16
 BYTE   Cn5
 BYTE   W16
 BYTE   Bn4
 BYTE   W16
 BYTE   An4
 BYTE   W16
 BYTE   Gn4
 BYTE   W16
//  #04 //025   ----------------------------------------
 BYTE   An4
 BYTE   W16
 BYTE   Bn4
 BYTE   W16
 BYTE   N36  Cn5
 BYTE   W16
 BYTE   N20  An4
 BYTE   N20  En5
 BYTE   W24
 BYTE   N02  An5
 BYTE   W03
 BYTE   Gn5
 BYTE   W03
 BYTE   Fs5
 BYTE   W03
 BYTE   En5
 BYTE   W03
 BYTE   Dn5
 BYTE   W03
 BYTE   Cn5
 BYTE   W03
 BYTE   Bn4
 BYTE   W03
 BYTE   An4
 BYTE   W03
//  #04 //026   ----------------------------------------
 BYTE   N07  Gn4
 BYTE   W08
 BYTE   Dn4
 BYTE   W08
 BYTE   Gn4
 BYTE   W08
 BYTE   Bn4
 BYTE   W08
 BYTE   Gn4
 BYTE   W08
 BYTE   Bn4
 BYTE   W08
 BYTE   Dn5
 BYTE   W08
 BYTE   Bn4
 BYTE   W08
 BYTE   Dn5
 BYTE   W08
 BYTE   Gn5
 BYTE   W08
 BYTE   Fs5
 BYTE   W08
 BYTE   En5
 BYTE   W08
//  #04 //027   ----------------------------------------
 BYTE   N42  Dn5
 BYTE   W48
 BYTE   Cn5
 BYTE   W48
//  #04 //028   ----------------------------------------
 BYTE   N05  An4
 BYTE   N05  Cn5
 BYTE   N05  En5
 BYTE   W16
 BYTE   An4
 BYTE   N05  Cn5
 BYTE   N05  En5
 BYTE   W16
 BYTE   N48  An4
 BYTE   N48  Cn5
 BYTE   N48  En5
 BYTE   W52
 BYTE   N05  Bn4
 BYTE   W06
 BYTE   Cn5
 BYTE   W06
//  #04 //029   ----------------------------------------
 BYTE   Gn4
 BYTE   N05  Bn4
 BYTE   N05  Dn5
 BYTE   W16
 BYTE   Gn4
 BYTE   N05  Bn4
 BYTE   N05  Dn5
 BYTE   W16
 BYTE   N15  Fs4
 BYTE   N15  An4
 BYTE   N15  Cn5
 BYTE   W16
 BYTE   N05  En4
 BYTE   N05  Gn4
 BYTE   N05  Bn4
 BYTE   W16
 BYTE   Dn4
 BYTE   N05  Fs4
 BYTE   N05  An4
 BYTE   W16
 BYTE   N15  Bn3
 BYTE   N15  Dn4
 BYTE   N15  Gn4
 BYTE   W16
//  #04 //030   ----------------------------------------
 BYTE   N05  An4
 BYTE   W06
 BYTE   Gn4
 BYTE   W06
 BYTE   Fs4
 BYTE   W06
 BYTE   An4
 BYTE   W06
 BYTE   Cn5
 BYTE   W06
 BYTE   Bn4
 BYTE   W06
 BYTE   An4
 BYTE   W06
 BYTE   Cn5
 BYTE   W06
 BYTE   Dn5
 BYTE   W06
 BYTE   Cn5
 BYTE   W06
 BYTE   Bn4
 BYTE   W06
 BYTE   An4
 BYTE   W06
 BYTE   Fs5
 BYTE   W06
 BYTE   En5
 BYTE   W06
 BYTE   Dn5
 BYTE   W06
 BYTE   Cn5
 BYTE   W06
//  #04 //031   ----------------------------------------
 BYTE   N15  Bn4
 BYTE   W16
 BYTE   An4
 BYTE   W16
 BYTE   Bn4
 BYTE   W16
 BYTE   N05  Fs4
 BYTE   N05  An4
 BYTE   N05  Dn5
 BYTE   W16
 BYTE   Fs4
 BYTE   N05  An4
 BYTE   N05  Dn5
 BYTE   W16
 BYTE   Fs4
 BYTE   N05  An4
 BYTE   N05  Dn5
 BYTE   W16
//  #04 //032   ----------------------------------------
 BYTE   N42  An4
 BYTE   N42  Cn5
 BYTE   N42  En5
 BYTE   W48
 BYTE   Cn5
 BYTE   N42  En5
 BYTE   N42  An5
 BYTE   W48
//  #04 //033   ----------------------------------------
 BYTE   Bn4
 BYTE   N42  Dn5
 BYTE   N42  Gn5
 BYTE   W48
 BYTE   N15  Gn4
 BYTE   N15  Bn4
 BYTE   N15  Dn5
 BYTE   W16
 BYTE   An4
 BYTE   N15  Dn5
 BYTE   N15  Fs5
 BYTE   W16
 BYTE   Bn4
 BYTE   N15  Dn5
 BYTE   N15  Gn5
 BYTE   W16
//  #04 //034   ----------------------------------------
 BYTE   N05  An4
 BYTE   N05  Dn5
 BYTE   N05  Fs5
 BYTE   W06
 BYTE   N04  An4
 BYTE   N04  Dn5
 BYTE   N04  Fs5
 BYTE   W12
 BYTE   N05  Dn5
 BYTE   W06
 BYTE   An4
 BYTE   N05  Dn5
 BYTE   N05  Fs5
 BYTE   W06
 BYTE   N04  An4
 BYTE   N04  Dn5
 BYTE   N04  Fs5
 BYTE   W12
 BYTE   N05  Dn5
 BYTE   W06
 BYTE   N05
 BYTE   N05  Fs5
 BYTE   N05  An5
 BYTE   W06
 BYTE   N04  Dn5
 BYTE   N04  Fs5
 BYTE   N04  An5
 BYTE   W12
 BYTE   N05  Fs5
 BYTE   W06
 BYTE   Dn5
 BYTE   N05  Fs5
 BYTE   N05  An5
 BYTE   W06
 BYTE   N04  Dn5
 BYTE   N04  Fs5
 BYTE   N04  An5
 BYTE   W12
 BYTE   N05  Fs5
 BYTE   W06
//  #04 //035   ----------------------------------------
 BYTE   N42  Bn4
 BYTE   N42  En5
 BYTE   N42  Gn5
 BYTE   W48
 BYTE   N20  An4
 BYTE   N20  Cn5
 BYTE   N20  Dn5
 BYTE   N24  Fs5
 BYTE   W24
 BYTE   PAN   c_v+1
 BYTE   W01
 BYTE   PAN   c_v+2
 BYTE   W01
 BYTE   PAN   c_v+3
 BYTE   W01
 BYTE   PAN   c_v+5
 BYTE   N02  En5
 BYTE   W01
 BYTE   PAN   c_v+6
 BYTE   W01
 BYTE   PAN   c_v+7
 BYTE   W01
 BYTE   PAN   c_v+9
 BYTE   N02  Dn5
 BYTE   W01
 BYTE   PAN   c_v+10
 BYTE   W01
 BYTE   PAN   c_v+11
 BYTE   W01
 BYTE   PAN   c_v+13
 BYTE   N02  Cn5
 BYTE   W01
 BYTE   PAN   c_v+14
 BYTE   W01
 BYTE   PAN   c_v+15
 BYTE   W01
 BYTE   PAN   c_v+17
 BYTE   N02  Bn4
 BYTE   W01
 BYTE   PAN   c_v+18
 BYTE   W01
 BYTE   PAN   c_v+19
 BYTE   W01
 BYTE   PAN   c_v+21
 BYTE   N02  An4
 BYTE   W01
 BYTE   PAN   c_v+22
 BYTE   W01
 BYTE   PAN   c_v+23
 BYTE   W01
 BYTE   PAN   c_v+25
 BYTE   N02  Gn4
 BYTE   W01
 BYTE   PAN   c_v+26
 BYTE   W01
 BYTE   PAN   c_v+27
 BYTE   W01
 BYTE   PAN   c_v+29
 BYTE   N02  Fs4
 BYTE   W01
 BYTE   PAN   c_v+30
 BYTE   W01
 BYTE   PAN   c_v+31
 BYTE   W01
//  #04 //036   ----------------------------------------
 BYTE   PAN   c_v+32
 BYTE   N90  Bn3  v076
 BYTE   TIE  En4
 BYTE   N90  Gs4
 BYTE   W96
//  #04 //037   ----------------------------------------
 BYTE   Cs4
 BYTE   TIE  An4
 BYTE   W90
 BYTE   EOT
 BYTE   En4
 BYTE   W06
//  #04 //038   ----------------------------------------
 BYTE   N90  Ds4
 BYTE   N90  Fs4
 BYTE   TIE  Bn4
 BYTE   W90
 BYTE   EOT
 BYTE   An4
 BYTE   W06
//  #04 //039   ----------------------------------------
 BYTE   N90  En4
 BYTE   N90  Gs4
 BYTE   W90
 BYTE   EOT
 BYTE   Bn4
 BYTE   W06
//  #04 //040   ----------------------------------------
 BYTE   PATT
  POIN2 Label_01A5E81F
//  #04 //041   ----------------------------------------
 BYTE   PATT
  POIN2 Label_01A5E853
//  #04 //042   ----------------------------------------
 BYTE   N96  Cn4  v076
 BYTE   N96  En4
 BYTE   N96  An4
 BYTE   W96
//  #04 //043   ----------------------------------------
 BYTE   N48  En4
 BYTE   N48  Gn4
 BYTE   N90  Bn4
 BYTE   W48
 BYTE   N42  Ds4
 BYTE   N42  Fs4
 BYTE   W44
 BYTE   W03
 BYTE   GoTo
  POIN2 Label_01A5E816
 BYTE   FINE

//**************** Track 5 (Midi-Chn.4) ****************//

MyNameIsApsiel_005:
//  #05 //000   ----------------------------------------
 BYTE   KEYSH   MyNameIsApsiel_key+0
 BYTE   VOICE   36
 BYTE   MODT 0
 BYTE   LFOS 44
 BYTE   VOL   29*MyNameIsApsiel_mvl/mxv
 BYTE   PAN   c_v+0
 BYTE   N90  En1  v127
 BYTE   W96
//  #05 //001   ----------------------------------------
 BYTE   N42
 BYTE   W48
 BYTE   N42
 BYTE   W48
//  #05 //002   ----------------------------------------
 BYTE   N90
 BYTE   W96
//  #05 //003   ----------------------------------------
 BYTE   N11  Dn1
 BYTE   W12
 BYTE   N11
 BYTE   W12
 BYTE   N11
 BYTE   W12
 BYTE   N11
 BYTE   W12
 BYTE   N11
 BYTE   W12
 BYTE   N11
 BYTE   W12
 BYTE   N11
 BYTE   W12
 BYTE   N11
 BYTE   W12
//  #05 //004   ----------------------------------------
Label_01A594B7:
 BYTE   N15  En1  v127
 BYTE   W16
 BYTE   N15
 BYTE   W16
 BYTE   Bn0
 BYTE   W16
 BYTE   N05  En1
 BYTE   W06
 BYTE   N11  En2
 BYTE   W12
 BYTE   N05  En1
 BYTE   W06
 BYTE   N11  En2
 BYTE   W12
 BYTE   En1
 BYTE   W12
 BYTE   PEND 
//  #05 //005   ----------------------------------------
Label_01A594CE:
 BYTE   N15  En1  v127
 BYTE   W16
 BYTE   N15
 BYTE   W16
 BYTE   Cn1
 BYTE   W16
 BYTE   N05  En1
 BYTE   W06
 BYTE   N11  En2
 BYTE   W12
 BYTE   N05  En1
 BYTE   W06
 BYTE   N11  En2
 BYTE   W12
 BYTE   En1
 BYTE   W12
 BYTE   PEND 
//  #05 //006   ----------------------------------------
Label_01A594E5:
 BYTE   N15  Gn1  v127
 BYTE   W16
 BYTE   N15
 BYTE   W16
 BYTE   Dn1
 BYTE   W16
 BYTE   N05  Gn1
 BYTE   W06
 BYTE   N11  Gn2
 BYTE   W12
 BYTE   N05  Gn1
 BYTE   W06
 BYTE   N11  Gn2
 BYTE   W12
 BYTE   Gn1
 BYTE   W12
 BYTE   PEND 
//  #05 //007   ----------------------------------------
Label_01A594FC:
 BYTE   N15  Dn1  v127
 BYTE   W16
 BYTE   N15
 BYTE   W16
 BYTE   An0
 BYTE   W16
 BYTE   N05  Dn1
 BYTE   W06
 BYTE   N11  Dn2
 BYTE   W12
 BYTE   N05  Dn1
 BYTE   W06
 BYTE   N11  Dn2
 BYTE   W12
 BYTE   Dn1
 BYTE   W12
 BYTE   PEND 
//  #05 //008   ----------------------------------------
 BYTE   PATT
  POIN2 Label_01A594B7
//  #05 //009   ----------------------------------------
 BYTE   PATT
  POIN2 Label_01A594CE
//  #05 //010   ----------------------------------------
 BYTE   PATT
  POIN2 Label_01A594E5
//  #05 //011   ----------------------------------------
 BYTE   PATT
  POIN2 Label_01A594FC
//  #05 //012   ----------------------------------------
Label_01A59527:
 BYTE   N15  An1  v127
 BYTE   W16
 BYTE   An2
 BYTE   W16
 BYTE   An1
 BYTE   W16
 BYTE   N15
 BYTE   W16
 BYTE   An2
 BYTE   W16
 BYTE   An1
 BYTE   W16
 BYTE   PEND 
//  #05 //013   ----------------------------------------
Label_01A59536:
 BYTE   N15  Gn1  v127
 BYTE   W16
 BYTE   Gn2
 BYTE   W16
 BYTE   Gn1
 BYTE   W16
 BYTE   N15
 BYTE   W16
 BYTE   Gn2
 BYTE   W16
 BYTE   Gn1
 BYTE   W16
 BYTE   PEND 
//  #05 //014   ----------------------------------------
Label_01A59545:
 BYTE   N15  Dn1  v127
 BYTE   W16
 BYTE   Dn2
 BYTE   W16
 BYTE   Dn1
 BYTE   W16
 BYTE   N15
 BYTE   W16
 BYTE   Dn2
 BYTE   W16
 BYTE   Dn1
 BYTE   W16
 BYTE   PEND 
//  #05 //015   ----------------------------------------
Label_01A59554:
 BYTE   N15  En1  v127
 BYTE   W16
 BYTE   Fs1
 BYTE   W16
 BYTE   Gn1
 BYTE   W16
 BYTE   Fs1
 BYTE   W16
 BYTE   En1
 BYTE   W16
 BYTE   Dn1
 BYTE   W16
 BYTE   PEND 
//  #05 //016   ----------------------------------------
 BYTE   PATT
  POIN2 Label_01A59527
//  #05 //017   ----------------------------------------
 BYTE   PATT
  POIN2 Label_01A59536
//  #05 //018   ----------------------------------------
 BYTE   PATT
  POIN2 Label_01A59545
//  #05 //019   ----------------------------------------
Label_01A59572:
 BYTE   N04  En2  v127
 BYTE   W12
 BYTE   Bn1
 BYTE   W12
 BYTE   En2
 BYTE   W12
 BYTE   Bn1
 BYTE   W12
 BYTE   Dn2
 BYTE   W12
 BYTE   An1
 BYTE   W12
 BYTE   Dn2
 BYTE   W12
 BYTE   An1
 BYTE   W12
 BYTE   PEND 
//  #05 //020   ----------------------------------------
 BYTE   PATT
  POIN2 Label_01A594B7
//  #05 //021   ----------------------------------------
 BYTE   PATT
  POIN2 Label_01A594CE
//  #05 //022   ----------------------------------------
 BYTE   PATT
  POIN2 Label_01A594E5
//  #05 //023   ----------------------------------------
 BYTE   PATT
  POIN2 Label_01A594FC
//  #05 //024   ----------------------------------------
 BYTE   PATT
  POIN2 Label_01A594B7
//  #05 //025   ----------------------------------------
 BYTE   PATT
  POIN2 Label_01A594CE
//  #05 //026   ----------------------------------------
 BYTE   PATT
  POIN2 Label_01A594E5
//  #05 //027   ----------------------------------------
 BYTE   PATT
  POIN2 Label_01A594FC
//  #05 //028   ----------------------------------------
 BYTE   PATT
  POIN2 Label_01A59527
//  #05 //029   ----------------------------------------
 BYTE   PATT
  POIN2 Label_01A59536
//  #05 //030   ----------------------------------------
 BYTE   PATT
  POIN2 Label_01A59545
//  #05 //031   ----------------------------------------
 BYTE   PATT
  POIN2 Label_01A59554
//  #05 //032   ----------------------------------------
 BYTE   PATT
  POIN2 Label_01A59527
//  #05 //033   ----------------------------------------
 BYTE   PATT
  POIN2 Label_01A59536
//  #05 //034   ----------------------------------------
 BYTE   PATT
  POIN2 Label_01A59545
//  #05 //035   ----------------------------------------
 BYTE   PATT
  POIN2 Label_01A59572
//  #05 //036   ----------------------------------------
 BYTE   N42  En1  v127
 BYTE   W48
 BYTE   Gs1
 BYTE   W48
//  #05 //037   ----------------------------------------
 BYTE   An1
 BYTE   W48
 BYTE   Fs1
 BYTE   W48
//  #05 //038   ----------------------------------------
 BYTE   Ds1
 BYTE   W48
 BYTE   Fs1
 BYTE   W48
//  #05 //039   ----------------------------------------
 BYTE   Gs1
 BYTE   W48
 BYTE   N11  En1
 BYTE   W12
 BYTE   N11
 BYTE   W12
 BYTE   N11
 BYTE   W12
 BYTE   N11
 BYTE   W12
//  #05 //040   ----------------------------------------
 BYTE   N15
 BYTE   W16
 BYTE   N15
 BYTE   W16
 BYTE   Cn1
 BYTE   W16
 BYTE   N05  En1
 BYTE   W06
 BYTE   N11  Gn1
 BYTE   W12
 BYTE   N05
 BYTE   W06
 BYTE   En1
 BYTE   W06
 BYTE   N11  Gn1
 BYTE   W12
 BYTE   N05
 BYTE   W06
//  #05 //041   ----------------------------------------
 BYTE   N15
 BYTE   W16
 BYTE   N15
 BYTE   W16
 BYTE   Dn1
 BYTE   W16
 BYTE   N05  Gn1
 BYTE   W06
 BYTE   N11  Bn1
 BYTE   W12
 BYTE   N05
 BYTE   W06
 BYTE   Gn1
 BYTE   W06
 BYTE   N11  Bn1
 BYTE   W12
 BYTE   N05
 BYTE   W06
//  #05 //042   ----------------------------------------
 BYTE   N15  An1
 BYTE   W16
 BYTE   N15
 BYTE   W16
 BYTE   En1
 BYTE   W16
 BYTE   N05  An1
 BYTE   W06
 BYTE   N11  Cn2
 BYTE   W12
 BYTE   N05
 BYTE   W06
 BYTE   An1
 BYTE   W06
 BYTE   N11  Cn2
 BYTE   W12
 BYTE   N05
 BYTE   W06
//  #05 //043   ----------------------------------------
 BYTE   N11  Bn1
 BYTE   W12
 BYTE   Gn1
 BYTE   W12
 BYTE   Bn1
 BYTE   W12
 BYTE   Gn1
 BYTE   W12
 BYTE   Bn1
 BYTE   W12
 BYTE   Fs1
 BYTE   W12
 BYTE   Bn1
 BYTE   W12
 BYTE   Fs1
 BYTE   W11
 BYTE   GoTo
  POIN2 Label_01A594B7
 BYTE   FINE

//**************** Track 6 (Midi-Chn.5) ****************//

MyNameIsApsiel_006:
//  #06 //000   ----------------------------------------
 BYTE   KEYSH   MyNameIsApsiel_key+0
 BYTE   VOICE   52
 BYTE   MODT 0
 BYTE   LFOS 44
 BYTE   VOL   25*MyNameIsApsiel_mvl/mxv
 BYTE   PAN   c_v-10
 BYTE   W96
//  #06 //001   ----------------------------------------
 BYTE   W96
//  #06 //002   ----------------------------------------
 BYTE   W96
//  #06 //003   ----------------------------------------
 BYTE   W96
//  #06 //004   ----------------------------------------
Label_01A563DC:
 BYTE   W96
//  #06 //005   ----------------------------------------
 BYTE   W96
//  #06 //006   ----------------------------------------
 BYTE   W96
//  #06 //007   ----------------------------------------
 BYTE   W96
//  #06 //008   ----------------------------------------
 BYTE   W96
//  #06 //009   ----------------------------------------
 BYTE   W96
//  #06 //010   ----------------------------------------
 BYTE   W96
//  #06 //011   ----------------------------------------
 BYTE   W96
//  #06 //012   ----------------------------------------
 BYTE   W96
//  #06 //013   ----------------------------------------
 BYTE   W96
//  #06 //014   ----------------------------------------
 BYTE   W96
//  #06 //015   ----------------------------------------
 BYTE   W96
//  #06 //016   ----------------------------------------
 BYTE   W96
//  #06 //017   ----------------------------------------
 BYTE   W96
//  #06 //018   ----------------------------------------
 BYTE   W96
//  #06 //019   ----------------------------------------
 BYTE   W96
//  #06 //020   ----------------------------------------
 BYTE   N96  En3  v076
 BYTE   N96  Gn3
 BYTE   N96  Bn3
 BYTE   W96
//  #06 //021   ----------------------------------------
 BYTE   En3
 BYTE   N96  An3
 BYTE   N96  Cn4
 BYTE   W96
//  #06 //022   ----------------------------------------
Label_01A563FA:
 BYTE   N96  Gn3  v076
 BYTE   N96  Bn3
 BYTE   N96  Dn4
 BYTE   W96
 BYTE   PEND 
//  #06 //023   ----------------------------------------
APSIEL1:
 BYTE   N96  Fs3  v076
 BYTE   N96  An3
 BYTE   N96  Dn4
 BYTE   W96
 BYTE   PEND 
//  #06 //024   ----------------------------------------
 BYTE   En3
 BYTE   N96  Gn3
 BYTE   N96  Bn3
 BYTE   W96
//  #06 //025   ----------------------------------------
 BYTE   En3
 BYTE   N96  An3
 BYTE   N96  Cn4
 BYTE   W96
//  #06 //026   ----------------------------------------
 BYTE   PATT
  POIN2 Label_01A563FA
//  #06 //027   ----------------------------------------
 BYTE   PATT
  POIN2 APSIEL1
//  #06 //028   ----------------------------------------
 BYTE   N96  En3  v076
 BYTE   N96  An3
 BYTE   N96  Cn4
 BYTE   W96
//  #06 //029   ----------------------------------------
Label_01A5642A:
 BYTE   N96  Dn3  v076
 BYTE   N96  Gn3
 BYTE   N96  Bn3
 BYTE   W96
 BYTE   PEND 
//  #06 //030   ----------------------------------------
Label_01A56433:
 BYTE   N96  Cn3  v076
 BYTE   N96  Dn3
 BYTE   N96  Fs3
 BYTE   N96  An3
 BYTE   W96
 BYTE   PEND 
//  #06 //031   ----------------------------------------
Label_01A5643E:
 BYTE   N48  En3  v076
 BYTE   N48  Gn3
 BYTE   N48  Bn3
 BYTE   W48
 BYTE   Dn3
 BYTE   N48  Fs3
 BYTE   N48  An3
 BYTE   W48
 BYTE   PEND 
//  #06 //032   ----------------------------------------
 BYTE   N96  En3
 BYTE   N96  An3
 BYTE   N96  Cn4
 BYTE   W96
//  #06 //033   ----------------------------------------
 BYTE   PATT
  POIN2 Label_01A5642A
//  #06 //034   ----------------------------------------
 BYTE   PATT
  POIN2 Label_01A56433
//  #06 //035   ----------------------------------------
 BYTE   PATT
  POIN2 Label_01A5643E
//  #06 //036   ----------------------------------------
 BYTE   N90  Bn2  v076
 BYTE   TIE  En3
 BYTE   N90  Gs3
 BYTE   W96
//  #06 //037   ----------------------------------------
 BYTE   Cs3
 BYTE   TIE  An3
 BYTE   W90
 BYTE   EOT
 BYTE   En3
 BYTE   W06
//  #06 //038   ----------------------------------------
 BYTE   N90  Ds3
 BYTE   N90  Fs3
 BYTE   TIE  Bn3
 BYTE   W90
 BYTE   EOT
 BYTE   An3
 BYTE   W06
//  #06 //039   ----------------------------------------
 BYTE   N90  En3
 BYTE   N90  Gs3
 BYTE   W90
 BYTE   EOT
 BYTE   Bn3
 BYTE   W06
//  #06 //040   ----------------------------------------
 BYTE   N96  En3
 BYTE   N96  An3
 BYTE   N96  Cn4
 BYTE   W96
//  #06 //041   ----------------------------------------
 BYTE   PATT
  POIN2 Label_01A5642A
//  #06 //042   ----------------------------------------
 BYTE   N96  Cn3  v076
 BYTE   N96  En3
 BYTE   N96  An3
 BYTE   W96
//  #06 //043   ----------------------------------------
 BYTE   N48  En3
 BYTE   N48  Gn3
 BYTE   N90  Bn3
 BYTE   W48
 BYTE   N42  Ds3
 BYTE   N42  Fs3
 BYTE   W44
 BYTE   W03
 BYTE   GoTo
  POIN2 Label_01A563DC
 BYTE   FINE

//******************************************************//
	ALIGN 4

MyNameIsApsiel:
	BYTE	6	// NumTrks
	BYTE	0	// NumBlks
	BYTE	MyNameIsApsiel_pri	// Priority
	BYTE	MyNameIsApsiel_rev	// Reverb.
    
	POIN2	MyNameIsApsiel_grp
    
	POIN2	MyNameIsApsiel_001
	POIN2	MyNameIsApsiel_002
	POIN2	MyNameIsApsiel_003
	POIN2	MyNameIsApsiel_004
	POIN2	MyNameIsApsiel_005
	POIN2	MyNameIsApsiel_006

	
