//Event file generated from Sappy .s format.
	#include "MPlayDef.event"

	#define	EternalWinter_grp  voicegroup000
	#define	EternalWinter_pri  0
	#define	EternalWinter_rev  208
	#define	EternalWinter_mvl  127
	#define	EternalWinter_key  0
	#define	EternalWinter_tbs  1
	#define	EternalWinter_exg  0
	#define	EternalWinter_cmp  1

	// .rodata
	//	EternalWinter
	ALIGN 4


//**************** Track 1 (Midi-Chn.0) ****************//

EternalWinter_001:
//  #01 //000   ----------------------------------------
 BYTE   KEYSH   EternalWinter_key+0
Label_01A576B2:
 BYTE   TEMPO   80*EternalWinter_tbs/2
 BYTE   VOICE   0
 BYTE   MODT 0
 BYTE   LFOS 44
 BYTE   VOL   23*EternalWinter_mvl/mxv
 BYTE   PAN   c_v-30
 BYTE   N42  An3  v127
 BYTE   N42  Cn4
 BYTE   N32  Cn5
 BYTE   W36
 BYTE   N11  En5
 BYTE   W12
 BYTE   N42  Gn3
 BYTE   N42  Bn3
 BYTE   N20  Bn4
 BYTE   W24
 BYTE   N11  Cn5
 BYTE   W12
 BYTE   Dn5
 BYTE   W12
//  #01 //001   ----------------------------------------
Label_01A576D5:
 BYTE   N42  Fn3  v127
 BYTE   N42  An3
 BYTE   N32  Cn5
 BYTE   W36
 BYTE   N11  An4
 BYTE   W12
 BYTE   N42  Dn3
 BYTE   N42  Fn3
 BYTE   N11  Fn4
 BYTE   W12
 BYTE   Gn4
 BYTE   W12
 BYTE   An4
 BYTE   W12
 BYTE   Cn5
 BYTE   W12
 BYTE   PEND 
//  #01 //002   ----------------------------------------
Label_01A576EE:
 BYTE   N42  En3  v127
 BYTE   N42  Gn3
 BYTE   N32  Bn4
 BYTE   W36
 BYTE   N11  An4
 BYTE   W12
 BYTE   N42  Fs3
 BYTE   N42  An3
 BYTE   N20  Gn4
 BYTE   W24
 BYTE   Fs4
 BYTE   W24
 BYTE   PEND 
//  #01 //003   ----------------------------------------
Label_01A57703:
 BYTE   N42  En3  v127
 BYTE   N42  Bn3
 BYTE   N11  En4
 BYTE   W12
 BYTE   Dn4
 BYTE   W12
 BYTE   En4
 BYTE   W12
 BYTE   Gn4
 BYTE   W12
 BYTE   N42  Fn3
 BYTE   N42  Bn3
 BYTE   N11  Fn4
 BYTE   W12
 BYTE   Gn4
 BYTE   W12
 BYTE   An4
 BYTE   W12
 BYTE   Bn4
 BYTE   W12
 BYTE   PEND 
//  #01 //004   ----------------------------------------
Label_01A5771F:
 BYTE   N42  An3  v127
 BYTE   N42  Cn4
 BYTE   N11  Cn5
 BYTE   W12
 BYTE   Bn4
 BYTE   W12
 BYTE   An4
 BYTE   W12
 BYTE   Gn4
 BYTE   W12
 BYTE   N42  Gn3
 BYTE   N42  Bn3
 BYTE   N20  Bn4
 BYTE   W24
 BYTE   N11  Cn5
 BYTE   W12
 BYTE   Dn5
 BYTE   W12
 BYTE   PEND 
//  #01 //005   ----------------------------------------
Label_01A5773A:
 BYTE   N42  Fn3  v127
 BYTE   N42  An3
 BYTE   N20  Cn5
 BYTE   W24
 BYTE   An4
 BYTE   W24
 BYTE   N42  Dn3
 BYTE   N42  Fn3
 BYTE   N11  Fn4
 BYTE   W12
 BYTE   Gn4
 BYTE   W12
 BYTE   An4
 BYTE   W12
 BYTE   Fn4
 BYTE   W12
 BYTE   PEND 
//  #01 //006   ----------------------------------------
Label_01A57752:
 BYTE   N42  En3  v127
 BYTE   N42  Gn3
 BYTE   N20  En4
 BYTE   W24
 BYTE   Gn4
 BYTE   W24
 BYTE   N42  Fs3
 BYTE   N42  An3
 BYTE   N11  Fs4
 BYTE   W12
 BYTE   Gn4
 BYTE   W12
 BYTE   An4
 BYTE   W12
 BYTE   Cn5
 BYTE   W12
 BYTE   PEND 
//  #01 //007   ----------------------------------------
 BYTE   N42  En3
 BYTE   N42  Bn3
 BYTE   N20  Bn4
 BYTE   W24
 BYTE   Cn5
 BYTE   W24
 BYTE   TIE  Fn3
 BYTE   TIE  Bn3
 BYTE   TIE  Dn5
 BYTE   W48
//  #01 //008   ----------------------------------------
 BYTE   W90
 BYTE   EOT
 BYTE   Fn3  v071
 BYTE   Dn5
 BYTE   W06
//  #01 //009   ----------------------------------------
 BYTE   N42  An3
 BYTE   N42  Cn4
 BYTE   N32  Cn5
 BYTE   W36
 BYTE   N11  En5
 BYTE   W12
 BYTE   N42  Gn3
 BYTE   N42  Bn3
 BYTE   N20  Bn4
 BYTE   W24
 BYTE   N11  Cn5
 BYTE   W12
 BYTE   Dn5
 BYTE   W12
//  #01 //010   ----------------------------------------
 BYTE   PATT
  POIN2 Label_01A576D5
//  #01 //011   ----------------------------------------
 BYTE   PATT
  POIN2 Label_01A576EE
//  #01 //012   ----------------------------------------
 BYTE   PATT
  POIN2 Label_01A57703
//  #01 //013   ----------------------------------------
 BYTE   PATT
  POIN2 Label_01A5771F
//  #01 //014   ----------------------------------------
 BYTE   PATT
  POIN2 Label_01A5773A
//  #01 //015   ----------------------------------------
 BYTE   PATT
  POIN2 Label_01A57752
//  #01 //016   ----------------------------------------
 BYTE   N42  En3  v127
 BYTE   N42  Bn3
 BYTE   N20  Bn4
 BYTE   W24
 BYTE   Cn5
 BYTE   W24
 BYTE   N42  Fn3
 BYTE   N42  Bn3
 BYTE   N42  Dn5
 BYTE   W48
//  #01 //017   ----------------------------------------
 BYTE   N20  En3
 BYTE   N20  Gn3
 BYTE   N20  Cn4
 BYTE   W24
 BYTE   En3
 BYTE   N20  Gn3
 BYTE   N20  Cn4
 BYTE   W24
 BYTE   En3
 BYTE   N20  Gn3
 BYTE   N20  Cn4
 BYTE   W24
 BYTE   En3
 BYTE   N20  Gn3
 BYTE   N20  Cn4
 BYTE   W24
//  #01 //018   ----------------------------------------
 BYTE   Dn3
 BYTE   N20  Fs3
 BYTE   N20  An3
 BYTE   N20  Cn4
 BYTE   W24
 BYTE   Dn3
 BYTE   N20  Fs3
 BYTE   N20  An3
 BYTE   N20  Cn4
 BYTE   W24
 BYTE   Dn3
 BYTE   N20  Fs3
 BYTE   N20  An3
 BYTE   N20  Cn4
 BYTE   W24
 BYTE   Dn3
 BYTE   N20  Fs3
 BYTE   N20  An3
 BYTE   N20  Cn4
 BYTE   W24
//  #01 //019   ----------------------------------------
 BYTE   Cn3
 BYTE   N20  Fn3
 BYTE   N20  An3
 BYTE   N20  Cn4
 BYTE   W24
 BYTE   Cn3
 BYTE   N20  Fn3
 BYTE   N20  An3
 BYTE   N20  Cn4
 BYTE   W24
 BYTE   Cn3
 BYTE   N20  Fn3
 BYTE   N20  An3
 BYTE   N20  Cn4
 BYTE   W24
 BYTE   Cn3
 BYTE   N20  Fn3
 BYTE   N20  An3
 BYTE   N20  Cn4
 BYTE   W24
//  #01 //020   ----------------------------------------
 BYTE   Dn3
 BYTE   N20  Fn3
 BYTE   N20  An3
 BYTE   N20  Dn4
 BYTE   W24
 BYTE   Dn3
 BYTE   N20  Fn3
 BYTE   N20  An3
 BYTE   N20  Dn4
 BYTE   W24
 BYTE   Dn3
 BYTE   N20  Fn3
 BYTE   N20  An3
 BYTE   N20  Dn4
 BYTE   W24
 BYTE   Dn3
 BYTE   N20  Fn3
 BYTE   N20  An3
 BYTE   N20  Dn4
 BYTE   W24
//  #01 //021   ----------------------------------------
 BYTE   Dn3
 BYTE   N20  Gn3
 BYTE   N20  As3
 BYTE   N20  Dn4
 BYTE   W24
 BYTE   Dn3
 BYTE   N20  Gn3
 BYTE   N20  As3
 BYTE   N20  Dn4
 BYTE   W24
 BYTE   Dn3
 BYTE   N20  Gn3
 BYTE   N20  As3
 BYTE   N20  Dn4
 BYTE   W24
 BYTE   Dn3
 BYTE   N20  Gn3
 BYTE   N20  As3
 BYTE   N20  Dn4
 BYTE   W24
//  #01 //022   ----------------------------------------
 BYTE   Ds3
 BYTE   N20  Gn3
 BYTE   N20  Cn4
 BYTE   N20  Ds4
 BYTE   W24
 BYTE   Ds3
 BYTE   N20  Gn3
 BYTE   N20  Cn4
 BYTE   N20  Ds4
 BYTE   W24
 BYTE   Ds3
 BYTE   N20  Gn3
 BYTE   N20  Cn4
 BYTE   N20  Ds4
 BYTE   W24
 BYTE   Ds3
 BYTE   N20  Gn3
 BYTE   N20  Cn4
 BYTE   N20  Ds4
 BYTE   W24
//  #01 //023   ----------------------------------------
 BYTE   Fn3
 BYTE   N20  Gs3
 BYTE   N20  Cn4
 BYTE   N20  Fn4
 BYTE   W24
 BYTE   Fn3
 BYTE   N20  Gs3
 BYTE   N20  Cn4
 BYTE   N20  Fn4
 BYTE   W24
 BYTE   Fn3
 BYTE   N20  Gs3
 BYTE   N20  Cn4
 BYTE   N20  Fn4
 BYTE   W24
 BYTE   Fn3
 BYTE   N20  Gs3
 BYTE   N20  Cn4
 BYTE   N20  Fn4
 BYTE   W24
//  #01 //024   ----------------------------------------
 BYTE   TIE  Dn3
 BYTE   TIE  Gn3
 BYTE   TIE  Bn3
 BYTE   N11  Gn4
 BYTE   W12
 BYTE   Dn4
 BYTE   W12
 BYTE   Gn4
 BYTE   W12
 BYTE   An4
 BYTE   W12
 BYTE   Gn4
 BYTE   W12
 BYTE   Dn4
 BYTE   W12
 BYTE   Gn4
 BYTE   W12
 BYTE   An4
 BYTE   W12
//  #01 //025   ----------------------------------------
 BYTE   Gn4
 BYTE   W12
 BYTE   Dn4
 BYTE   W12
 BYTE   Gn4
 BYTE   W12
 BYTE   An4
 BYTE   W12
 BYTE   N42  Gn4
 BYTE   W42
 BYTE   EOT
 BYTE   Dn3  v067
 BYTE   Bn3
 BYTE   GoTo
  POIN2 Label_01A576B2
 BYTE   FINE

//**************** Track 2 (Midi-Chn.1) ****************//

EternalWinter_002:
//  #02 //000   ----------------------------------------
 BYTE   KEYSH   EternalWinter_key+0
Label_01A578CE:
 BYTE   VOICE   48
 BYTE   MODT 0
 BYTE   LFOS 44
 BYTE   VOL   27*EternalWinter_mvl/mxv
 BYTE   PAN   c_v+32
 BYTE   W96
//  #02 //001   ----------------------------------------
 BYTE   W96
//  #02 //002   ----------------------------------------
 BYTE   W96
//  #02 //003   ----------------------------------------
 BYTE   W96
//  #02 //004   ----------------------------------------
 BYTE   W96
//  #02 //005   ----------------------------------------
 BYTE   W96
//  #02 //006   ----------------------------------------
 BYTE   W96
//  #02 //007   ----------------------------------------
 BYTE   W96
//  #02 //008   ----------------------------------------
 BYTE   VOL   0*EternalWinter_mvl/mxv
 BYTE   N96  Dn3  v076
 BYTE   N96  Gn3
 BYTE   N96  Bn3
 BYTE   W01
 BYTE   VOL   0*EternalWinter_mvl/mxv
 BYTE   W01
 BYTE   VOL   0*EternalWinter_mvl/mxv
 BYTE   W01
 BYTE   VOL   0*EternalWinter_mvl/mxv
 BYTE   W01
 BYTE   VOL   0*EternalWinter_mvl/mxv
 BYTE   W01
 BYTE   VOL   0*EternalWinter_mvl/mxv
 BYTE   W01
 BYTE   VOL   0*EternalWinter_mvl/mxv
 BYTE   W01
 BYTE   VOL   0*EternalWinter_mvl/mxv
 BYTE   W01
 BYTE   VOL   0*EternalWinter_mvl/mxv
 BYTE   W01
 BYTE   VOL   0*EternalWinter_mvl/mxv
 BYTE   W01
 BYTE   VOL   0*EternalWinter_mvl/mxv
 BYTE   W01
 BYTE   VOL   0*EternalWinter_mvl/mxv
 BYTE   W01
 BYTE   VOL   0*EternalWinter_mvl/mxv
 BYTE   W01
 BYTE   VOL   1*EternalWinter_mvl/mxv
 BYTE   W01
 BYTE   VOL   1*EternalWinter_mvl/mxv
 BYTE   W01
 BYTE   VOL   1*EternalWinter_mvl/mxv
 BYTE   W01
 BYTE   VOL   1*EternalWinter_mvl/mxv
 BYTE   W01
 BYTE   VOL   1*EternalWinter_mvl/mxv
 BYTE   W01
 BYTE   VOL   1*EternalWinter_mvl/mxv
 BYTE   W01
 BYTE   VOL   1*EternalWinter_mvl/mxv
 BYTE   W01
 BYTE   VOL   2*EternalWinter_mvl/mxv
 BYTE   W01
 BYTE   VOL   2*EternalWinter_mvl/mxv
 BYTE   W01
 BYTE   VOL   2*EternalWinter_mvl/mxv
 BYTE   W01
 BYTE   VOL   2*EternalWinter_mvl/mxv
 BYTE   W01
 BYTE   VOL   2*EternalWinter_mvl/mxv
 BYTE   W01
 BYTE   VOL   2*EternalWinter_mvl/mxv
 BYTE   W01
 BYTE   VOL   3*EternalWinter_mvl/mxv
 BYTE   W01
 BYTE   VOL   3*EternalWinter_mvl/mxv
 BYTE   W01
 BYTE   VOL   3*EternalWinter_mvl/mxv
 BYTE   W01
 BYTE   VOL   3*EternalWinter_mvl/mxv
 BYTE   W01
 BYTE   VOL   4*EternalWinter_mvl/mxv
 BYTE   W01
 BYTE   VOL   4*EternalWinter_mvl/mxv
 BYTE   W01
 BYTE   VOL   4*EternalWinter_mvl/mxv
 BYTE   W01
 BYTE   VOL   4*EternalWinter_mvl/mxv
 BYTE   W01
 BYTE   VOL   4*EternalWinter_mvl/mxv
 BYTE   W01
 BYTE   VOL   5*EternalWinter_mvl/mxv
 BYTE   W01
 BYTE   VOL   5*EternalWinter_mvl/mxv
 BYTE   W01
 BYTE   VOL   5*EternalWinter_mvl/mxv
 BYTE   W01
 BYTE   VOL   5*EternalWinter_mvl/mxv
 BYTE   W01
 BYTE   VOL   6*EternalWinter_mvl/mxv
 BYTE   W01
 BYTE   VOL   6*EternalWinter_mvl/mxv
 BYTE   W01
 BYTE   VOL   6*EternalWinter_mvl/mxv
 BYTE   W01
 BYTE   VOL   6*EternalWinter_mvl/mxv
 BYTE   W01
 BYTE   VOL   7*EternalWinter_mvl/mxv
 BYTE   W01
 BYTE   VOL   7*EternalWinter_mvl/mxv
 BYTE   W01
 BYTE   VOL   7*EternalWinter_mvl/mxv
 BYTE   W01
 BYTE   VOL   8*EternalWinter_mvl/mxv
 BYTE   W01
 BYTE   VOL   8*EternalWinter_mvl/mxv
 BYTE   W01
 BYTE   VOL   8*EternalWinter_mvl/mxv
 BYTE   W01
 BYTE   VOL   9*EternalWinter_mvl/mxv
 BYTE   W01
 BYTE   VOL   9*EternalWinter_mvl/mxv
 BYTE   W01
 BYTE   VOL   9*EternalWinter_mvl/mxv
 BYTE   W01
 BYTE   VOL   9*EternalWinter_mvl/mxv
 BYTE   W01
 BYTE   VOL   10*EternalWinter_mvl/mxv
 BYTE   W01
 BYTE   VOL   10*EternalWinter_mvl/mxv
 BYTE   W01
 BYTE   VOL   11*EternalWinter_mvl/mxv
 BYTE   W01
 BYTE   VOL   11*EternalWinter_mvl/mxv
 BYTE   W01
 BYTE   VOL   11*EternalWinter_mvl/mxv
 BYTE   W01
 BYTE   VOL   11*EternalWinter_mvl/mxv
 BYTE   W01
 BYTE   VOL   12*EternalWinter_mvl/mxv
 BYTE   W01
 BYTE   VOL   12*EternalWinter_mvl/mxv
 BYTE   W01
 BYTE   VOL   12*EternalWinter_mvl/mxv
 BYTE   W01
 BYTE   VOL   13*EternalWinter_mvl/mxv
 BYTE   W01
 BYTE   VOL   13*EternalWinter_mvl/mxv
 BYTE   W01
 BYTE   VOL   13*EternalWinter_mvl/mxv
 BYTE   W01
 BYTE   VOL   14*EternalWinter_mvl/mxv
 BYTE   W01
 BYTE   VOL   14*EternalWinter_mvl/mxv
 BYTE   W01
 BYTE   VOL   14*EternalWinter_mvl/mxv
 BYTE   W01
 BYTE   VOL   15*EternalWinter_mvl/mxv
 BYTE   W01
 BYTE   VOL   15*EternalWinter_mvl/mxv
 BYTE   W01
 BYTE   VOL   16*EternalWinter_mvl/mxv
 BYTE   W01
 BYTE   VOL   16*EternalWinter_mvl/mxv
 BYTE   W01
 BYTE   VOL   17*EternalWinter_mvl/mxv
 BYTE   W01
 BYTE   VOL   17*EternalWinter_mvl/mxv
 BYTE   W01
 BYTE   VOL   17*EternalWinter_mvl/mxv
 BYTE   W01
 BYTE   VOL   18*EternalWinter_mvl/mxv
 BYTE   W01
 BYTE   VOL   18*EternalWinter_mvl/mxv
 BYTE   W01
 BYTE   VOL   19*EternalWinter_mvl/mxv
 BYTE   W01
 BYTE   VOL   19*EternalWinter_mvl/mxv
 BYTE   W01
 BYTE   VOL   19*EternalWinter_mvl/mxv
 BYTE   W01
 BYTE   VOL   20*EternalWinter_mvl/mxv
 BYTE   W01
 BYTE   VOL   20*EternalWinter_mvl/mxv
 BYTE   W01
 BYTE   VOL   20*EternalWinter_mvl/mxv
 BYTE   W01
 BYTE   VOL   21*EternalWinter_mvl/mxv
 BYTE   W01
 BYTE   VOL   21*EternalWinter_mvl/mxv
 BYTE   W01
 BYTE   VOL   22*EternalWinter_mvl/mxv
 BYTE   W01
 BYTE   VOL   22*EternalWinter_mvl/mxv
 BYTE   W01
 BYTE   VOL   23*EternalWinter_mvl/mxv
 BYTE   W01
 BYTE   VOL   23*EternalWinter_mvl/mxv
 BYTE   W01
 BYTE   VOL   24*EternalWinter_mvl/mxv
 BYTE   W01
 BYTE   VOL   24*EternalWinter_mvl/mxv
 BYTE   W01
 BYTE   VOL   24*EternalWinter_mvl/mxv
 BYTE   W01
 BYTE   VOL   25*EternalWinter_mvl/mxv
 BYTE   W01
 BYTE   VOL   25*EternalWinter_mvl/mxv
 BYTE   W01
 BYTE   VOL   26*EternalWinter_mvl/mxv
 BYTE   W01
 BYTE   VOL   26*EternalWinter_mvl/mxv
 BYTE   W01
//  #02 //009   ----------------------------------------
 BYTE   VOL   27*EternalWinter_mvl/mxv
 BYTE   N42  An3
 BYTE   N42  Cn4
 BYTE   N36  Cn5
 BYTE   W36
 BYTE   N12  En5
 BYTE   W12
 BYTE   N42  Gn3
 BYTE   N42  Bn3
 BYTE   N24  Bn4
 BYTE   W24
 BYTE   N12  Cn5
 BYTE   W12
 BYTE   Dn5
 BYTE   W12
//  #02 //010   ----------------------------------------
 BYTE   N42  Fn3
 BYTE   N42  An3
 BYTE   N36  Cn5
 BYTE   W36
 BYTE   N12  An4
 BYTE   W12
 BYTE   N42  Dn3
 BYTE   N42  Fn3
 BYTE   N12  Fn4
 BYTE   W12
 BYTE   Gn4
 BYTE   W12
 BYTE   An4
 BYTE   W12
 BYTE   Cn5
 BYTE   W12
//  #02 //011   ----------------------------------------
 BYTE   N42  En3
 BYTE   N42  Gn3
 BYTE   N36  Bn4
 BYTE   W36
 BYTE   N12  An4
 BYTE   W12
 BYTE   N42  Fs3
 BYTE   N42  An3
 BYTE   N24  Gn4
 BYTE   W24
 BYTE   Fs4
 BYTE   W24
//  #02 //012   ----------------------------------------
 BYTE   N42  En3
 BYTE   N42  Bn3
 BYTE   N12  En4
 BYTE   W12
 BYTE   Dn4
 BYTE   W12
 BYTE   En4
 BYTE   W12
 BYTE   Gn4
 BYTE   W12
 BYTE   N42  Fn3
 BYTE   N42  Bn3
 BYTE   N12  Fn4
 BYTE   W12
 BYTE   Gn4
 BYTE   W12
 BYTE   An4
 BYTE   W12
 BYTE   Bn4
 BYTE   W12
//  #02 //013   ----------------------------------------
 BYTE   N42  An3
 BYTE   N42  Cn4
 BYTE   N12  Cn5
 BYTE   W12
 BYTE   Bn4
 BYTE   W12
 BYTE   An4
 BYTE   W12
 BYTE   Gn4
 BYTE   W12
 BYTE   N42  Gn3
 BYTE   N42  Bn3
 BYTE   N24  Bn4
 BYTE   W24
 BYTE   N12  Cn5
 BYTE   W12
 BYTE   Dn5
 BYTE   W12
//  #02 //014   ----------------------------------------
 BYTE   N42  Fn3
 BYTE   N42  An3
 BYTE   N24  Cn5
 BYTE   W24
 BYTE   An4
 BYTE   W24
 BYTE   N42  Dn3
 BYTE   N42  Fn3
 BYTE   N12  Fn4
 BYTE   W12
 BYTE   Gn4
 BYTE   W12
 BYTE   An4
 BYTE   W12
 BYTE   Fn4
 BYTE   W12
//  #02 //015   ----------------------------------------
 BYTE   N42  En3
 BYTE   N42  Gn3
 BYTE   N24  En4
 BYTE   W24
 BYTE   Gn4
 BYTE   W24
 BYTE   N42  Fs3
 BYTE   N42  An3
 BYTE   N12  Fs4
 BYTE   W12
 BYTE   Gn4
 BYTE   W12
 BYTE   An4
 BYTE   W12
 BYTE   Cn5
 BYTE   W12
//  #02 //016   ----------------------------------------
 BYTE   N42  En3
 BYTE   N42  Bn3
 BYTE   N24  Bn4
 BYTE   W24
 BYTE   Cn5
 BYTE   W24
 BYTE   N42  Fn3
 BYTE   N42  Bn3
 BYTE   N42  Dn5
 BYTE   W48
//  #02 //017   ----------------------------------------
 BYTE   N11  En3
 BYTE   N11  Gn3
 BYTE   N11  Cn4
 BYTE   W12
 BYTE   En3
 BYTE   N11  Gn3
 BYTE   N11  Cn4
 BYTE   W24
 BYTE   En3
 BYTE   N11  Gn3
 BYTE   N11  Cn4
 BYTE   W12
 BYTE   En3
 BYTE   N11  Gn3
 BYTE   N11  Cn4
 BYTE   W12
 BYTE   En3
 BYTE   N11  Gn3
 BYTE   N11  Cn4
 BYTE   W24
 BYTE   En3
 BYTE   N11  Gn3
 BYTE   N11  Cn4
 BYTE   W12
//  #02 //018   ----------------------------------------
 BYTE   Dn3
 BYTE   N11  Fs3
 BYTE   N11  An3
 BYTE   N11  Cn4
 BYTE   W12
 BYTE   Dn3
 BYTE   N11  Fs3
 BYTE   N11  An3
 BYTE   N11  Cn4
 BYTE   W24
 BYTE   Dn3
 BYTE   N11  Fs3
 BYTE   N11  An3
 BYTE   N11  Cn4
 BYTE   W12
 BYTE   Dn3
 BYTE   N11  Fs3
 BYTE   N11  An3
 BYTE   N11  Cn4
 BYTE   W12
 BYTE   Dn3
 BYTE   N11  Fs3
 BYTE   N11  An3
 BYTE   N11  Cn4
 BYTE   W24
 BYTE   Dn3
 BYTE   N11  Fs3
 BYTE   N11  An3
 BYTE   N11  Cn4
 BYTE   W12
//  #02 //019   ----------------------------------------
 BYTE   Cn3
 BYTE   N11  Fn3
 BYTE   N11  An3
 BYTE   N11  Cn4
 BYTE   W12
 BYTE   Cn3
 BYTE   N11  Fn3
 BYTE   N11  An3
 BYTE   N11  Cn4
 BYTE   W24
 BYTE   Cn3
 BYTE   N11  Fn3
 BYTE   N11  An3
 BYTE   N11  Cn4
 BYTE   W12
 BYTE   Cn3
 BYTE   N11  Fn3
 BYTE   N11  An3
 BYTE   N11  Cn4
 BYTE   W12
 BYTE   Cn3
 BYTE   N11  Fn3
 BYTE   N11  An3
 BYTE   N11  Cn4
 BYTE   W24
 BYTE   Cn3
 BYTE   N11  Fn3
 BYTE   N11  An3
 BYTE   N11  Cn4
 BYTE   W12
//  #02 //020   ----------------------------------------
 BYTE   Dn3
 BYTE   N11  Fn3
 BYTE   N11  An3
 BYTE   N11  Dn4
 BYTE   W12
 BYTE   Dn3
 BYTE   N11  Fn3
 BYTE   N11  An3
 BYTE   N11  Dn4
 BYTE   W24
 BYTE   Dn3
 BYTE   N11  Fn3
 BYTE   N11  An3
 BYTE   N11  Dn4
 BYTE   W12
 BYTE   Dn3
 BYTE   N11  Fn3
 BYTE   N11  An3
 BYTE   N11  Dn4
 BYTE   W12
 BYTE   Dn3
 BYTE   N11  Fn3
 BYTE   N11  An3
 BYTE   N11  Dn4
 BYTE   W24
 BYTE   Dn3
 BYTE   N11  Fn3
 BYTE   N11  An3
 BYTE   N11  Dn4
 BYTE   W12
//  #02 //021   ----------------------------------------
 BYTE   Dn3
 BYTE   N11  Gn3
 BYTE   N11  As3
 BYTE   N11  Dn4
 BYTE   W12
 BYTE   Dn3
 BYTE   N11  Gn3
 BYTE   N11  As3
 BYTE   N11  Dn4
 BYTE   W24
 BYTE   Dn3
 BYTE   N11  Gn3
 BYTE   N11  As3
 BYTE   N11  Dn4
 BYTE   W12
 BYTE   Dn3
 BYTE   N11  Gn3
 BYTE   N11  As3
 BYTE   N11  Dn4
 BYTE   W12
 BYTE   Dn3
 BYTE   N11  Gn3
 BYTE   N11  As3
 BYTE   N11  Dn4
 BYTE   W24
 BYTE   Dn3
 BYTE   N11  Gn3
 BYTE   N11  As3
 BYTE   N11  Dn4
 BYTE   W12
//  #02 //022   ----------------------------------------
 BYTE   Ds3
 BYTE   N11  Gn3
 BYTE   N11  Cn4
 BYTE   N11  Ds4
 BYTE   W12
 BYTE   Ds3
 BYTE   N11  Gn3
 BYTE   N11  Cn4
 BYTE   N11  Ds4
 BYTE   W24
 BYTE   Ds3
 BYTE   N11  Gn3
 BYTE   N11  Cn4
 BYTE   N11  Ds4
 BYTE   W12
 BYTE   Ds3
 BYTE   N11  Gn3
 BYTE   N11  Cn4
 BYTE   N11  Ds4
 BYTE   W12
 BYTE   Ds3
 BYTE   N11  Gn3
 BYTE   N11  Cn4
 BYTE   N11  Ds4
 BYTE   W24
 BYTE   Ds3
 BYTE   N11  Gn3
 BYTE   N11  Cn4
 BYTE   N11  Ds4
 BYTE   W12
//  #02 //023   ----------------------------------------
 BYTE   Fn3
 BYTE   N11  Gs3
 BYTE   N11  Cn4
 BYTE   N11  Fn4
 BYTE   W12
 BYTE   Fn3
 BYTE   N11  Gs3
 BYTE   N11  Cn4
 BYTE   N11  Fn4
 BYTE   W24
 BYTE   Fn3
 BYTE   N11  Gs3
 BYTE   N11  Cn4
 BYTE   N11  Fn4
 BYTE   W12
 BYTE   Fn3
 BYTE   N11  Gs3
 BYTE   N11  Cn4
 BYTE   N11  Fn4
 BYTE   W12
 BYTE   Fn3
 BYTE   N11  Gs3
 BYTE   N11  Cn4
 BYTE   N11  Fn4
 BYTE   W24
 BYTE   Fn3
 BYTE   N11  Gs3
 BYTE   N11  Cn4
 BYTE   N11  Fn4
 BYTE   W12
//  #02 //024   ----------------------------------------
 BYTE   TIE  Gn3
 BYTE   TIE  Bn3
 BYTE   TIE  Dn4
 BYTE   TIE  Gn4
 BYTE   W96
//  #02 //025   ----------------------------------------
 BYTE   N90  Fn3
 BYTE   W90
 BYTE   EOT
 BYTE   Gn3  v071
 BYTE   Dn4  v079
 BYTE   GoTo
  POIN2 Label_01A578CE
 BYTE   FINE

//**************** Track 3 (Midi-Chn.2) ****************//

EternalWinter_003:
//  #03 //000   ----------------------------------------
 BYTE   KEYSH   EternalWinter_key+0
Label_019B4A1A:
 BYTE   VOICE   49
 BYTE   MODT 0
 BYTE   LFOS 44
 BYTE   VOL   27*EternalWinter_mvl/mxv
 BYTE   PAN   c_v+32
 BYTE   W96
//  #03 //001   ----------------------------------------
 BYTE   W96
//  #03 //002   ----------------------------------------
 BYTE   W96
//  #03 //003   ----------------------------------------
 BYTE   W96
//  #03 //004   ----------------------------------------
 BYTE   W96
//  #03 //005   ----------------------------------------
 BYTE   W96
//  #03 //006   ----------------------------------------
 BYTE   W96
//  #03 //007   ----------------------------------------
 BYTE   W96
//  #03 //008   ----------------------------------------
 BYTE   VOL   0*EternalWinter_mvl/mxv
 BYTE   N96  Gn1  v076
 BYTE   W01
 BYTE   VOL   0*EternalWinter_mvl/mxv
 BYTE   W01
 BYTE   VOL   0*EternalWinter_mvl/mxv
 BYTE   W01
 BYTE   VOL   0*EternalWinter_mvl/mxv
 BYTE   W01
 BYTE   VOL   0*EternalWinter_mvl/mxv
 BYTE   W01
 BYTE   VOL   0*EternalWinter_mvl/mxv
 BYTE   W01
 BYTE   VOL   0*EternalWinter_mvl/mxv
 BYTE   W01
 BYTE   VOL   0*EternalWinter_mvl/mxv
 BYTE   W01
 BYTE   VOL   0*EternalWinter_mvl/mxv
 BYTE   W01
 BYTE   VOL   0*EternalWinter_mvl/mxv
 BYTE   W01
 BYTE   VOL   0*EternalWinter_mvl/mxv
 BYTE   W01
 BYTE   VOL   0*EternalWinter_mvl/mxv
 BYTE   W01
 BYTE   VOL   0*EternalWinter_mvl/mxv
 BYTE   W01
 BYTE   VOL   1*EternalWinter_mvl/mxv
 BYTE   W01
 BYTE   VOL   1*EternalWinter_mvl/mxv
 BYTE   W01
 BYTE   VOL   1*EternalWinter_mvl/mxv
 BYTE   W01
 BYTE   VOL   1*EternalWinter_mvl/mxv
 BYTE   W01
 BYTE   VOL   1*EternalWinter_mvl/mxv
 BYTE   W01
 BYTE   VOL   1*EternalWinter_mvl/mxv
 BYTE   W01
 BYTE   VOL   1*EternalWinter_mvl/mxv
 BYTE   W01
 BYTE   VOL   2*EternalWinter_mvl/mxv
 BYTE   W01
 BYTE   VOL   2*EternalWinter_mvl/mxv
 BYTE   W01
 BYTE   VOL   2*EternalWinter_mvl/mxv
 BYTE   W01
 BYTE   VOL   2*EternalWinter_mvl/mxv
 BYTE   W01
 BYTE   VOL   2*EternalWinter_mvl/mxv
 BYTE   W01
 BYTE   VOL   2*EternalWinter_mvl/mxv
 BYTE   W01
 BYTE   VOL   3*EternalWinter_mvl/mxv
 BYTE   W01
 BYTE   VOL   3*EternalWinter_mvl/mxv
 BYTE   W01
 BYTE   VOL   3*EternalWinter_mvl/mxv
 BYTE   W01
 BYTE   VOL   3*EternalWinter_mvl/mxv
 BYTE   W01
 BYTE   VOL   4*EternalWinter_mvl/mxv
 BYTE   W01
 BYTE   VOL   4*EternalWinter_mvl/mxv
 BYTE   W01
 BYTE   VOL   4*EternalWinter_mvl/mxv
 BYTE   W01
 BYTE   VOL   4*EternalWinter_mvl/mxv
 BYTE   W01
 BYTE   VOL   4*EternalWinter_mvl/mxv
 BYTE   W01
 BYTE   VOL   5*EternalWinter_mvl/mxv
 BYTE   W01
 BYTE   VOL   5*EternalWinter_mvl/mxv
 BYTE   W01
 BYTE   VOL   5*EternalWinter_mvl/mxv
 BYTE   W01
 BYTE   VOL   5*EternalWinter_mvl/mxv
 BYTE   W01
 BYTE   VOL   6*EternalWinter_mvl/mxv
 BYTE   W01
 BYTE   VOL   6*EternalWinter_mvl/mxv
 BYTE   W01
 BYTE   VOL   6*EternalWinter_mvl/mxv
 BYTE   W01
 BYTE   VOL   6*EternalWinter_mvl/mxv
 BYTE   W01
 BYTE   VOL   7*EternalWinter_mvl/mxv
 BYTE   W01
 BYTE   VOL   7*EternalWinter_mvl/mxv
 BYTE   W01
 BYTE   VOL   7*EternalWinter_mvl/mxv
 BYTE   W01
 BYTE   VOL   8*EternalWinter_mvl/mxv
 BYTE   W01
 BYTE   VOL   8*EternalWinter_mvl/mxv
 BYTE   W01
 BYTE   VOL   8*EternalWinter_mvl/mxv
 BYTE   W01
 BYTE   VOL   9*EternalWinter_mvl/mxv
 BYTE   W01
 BYTE   VOL   9*EternalWinter_mvl/mxv
 BYTE   W01
 BYTE   VOL   9*EternalWinter_mvl/mxv
 BYTE   W01
 BYTE   VOL   9*EternalWinter_mvl/mxv
 BYTE   W01
 BYTE   VOL   10*EternalWinter_mvl/mxv
 BYTE   W01
 BYTE   VOL   10*EternalWinter_mvl/mxv
 BYTE   W01
 BYTE   VOL   11*EternalWinter_mvl/mxv
 BYTE   W01
 BYTE   VOL   11*EternalWinter_mvl/mxv
 BYTE   W01
 BYTE   VOL   11*EternalWinter_mvl/mxv
 BYTE   W01
 BYTE   VOL   11*EternalWinter_mvl/mxv
 BYTE   W01
 BYTE   VOL   12*EternalWinter_mvl/mxv
 BYTE   W01
 BYTE   VOL   12*EternalWinter_mvl/mxv
 BYTE   W01
 BYTE   VOL   12*EternalWinter_mvl/mxv
 BYTE   W01
 BYTE   VOL   13*EternalWinter_mvl/mxv
 BYTE   W01
 BYTE   VOL   13*EternalWinter_mvl/mxv
 BYTE   W01
 BYTE   VOL   13*EternalWinter_mvl/mxv
 BYTE   W01
 BYTE   VOL   14*EternalWinter_mvl/mxv
 BYTE   W01
 BYTE   VOL   14*EternalWinter_mvl/mxv
 BYTE   W01
 BYTE   VOL   14*EternalWinter_mvl/mxv
 BYTE   W01
 BYTE   VOL   15*EternalWinter_mvl/mxv
 BYTE   W01
 BYTE   VOL   15*EternalWinter_mvl/mxv
 BYTE   W01
 BYTE   VOL   16*EternalWinter_mvl/mxv
 BYTE   W01
 BYTE   VOL   16*EternalWinter_mvl/mxv
 BYTE   W01
 BYTE   VOL   17*EternalWinter_mvl/mxv
 BYTE   W01
 BYTE   VOL   17*EternalWinter_mvl/mxv
 BYTE   W01
 BYTE   VOL   17*EternalWinter_mvl/mxv
 BYTE   W01
 BYTE   VOL   18*EternalWinter_mvl/mxv
 BYTE   W01
 BYTE   VOL   18*EternalWinter_mvl/mxv
 BYTE   W01
 BYTE   VOL   19*EternalWinter_mvl/mxv
 BYTE   W01
 BYTE   VOL   19*EternalWinter_mvl/mxv
 BYTE   W01
 BYTE   VOL   19*EternalWinter_mvl/mxv
 BYTE   W01
 BYTE   VOL   20*EternalWinter_mvl/mxv
 BYTE   W01
 BYTE   VOL   20*EternalWinter_mvl/mxv
 BYTE   W01
 BYTE   VOL   20*EternalWinter_mvl/mxv
 BYTE   W01
 BYTE   VOL   21*EternalWinter_mvl/mxv
 BYTE   W01
 BYTE   VOL   21*EternalWinter_mvl/mxv
 BYTE   W01
 BYTE   VOL   22*EternalWinter_mvl/mxv
 BYTE   W01
 BYTE   VOL   22*EternalWinter_mvl/mxv
 BYTE   W01
 BYTE   VOL   23*EternalWinter_mvl/mxv
 BYTE   W01
 BYTE   VOL   23*EternalWinter_mvl/mxv
 BYTE   W01
 BYTE   VOL   24*EternalWinter_mvl/mxv
 BYTE   W01
 BYTE   VOL   24*EternalWinter_mvl/mxv
 BYTE   W01
 BYTE   VOL   24*EternalWinter_mvl/mxv
 BYTE   W01
 BYTE   VOL   25*EternalWinter_mvl/mxv
 BYTE   W01
 BYTE   VOL   25*EternalWinter_mvl/mxv
 BYTE   W01
 BYTE   VOL   26*EternalWinter_mvl/mxv
 BYTE   W01
 BYTE   VOL   26*EternalWinter_mvl/mxv
 BYTE   W01
//  #03 //009   ----------------------------------------
 BYTE   VOL   27*EternalWinter_mvl/mxv
 BYTE   N48  An1
 BYTE   W48
 BYTE   Gn1
 BYTE   W48
//  #03 //010   ----------------------------------------
 BYTE   N96  Fn1
 BYTE   W96
//  #03 //011   ----------------------------------------
Label_019B4AFA:
 BYTE   N48  En1  v076
 BYTE   W48
 BYTE   Fs1
 BYTE   W48
 BYTE   PEND 
//  #03 //012   ----------------------------------------
 BYTE   N96  Gn1
 BYTE   W96
//  #03 //013   ----------------------------------------
 BYTE   N48  An1
 BYTE   W48
 BYTE   Gn1
 BYTE   W48
//  #03 //014   ----------------------------------------
 BYTE   N96  Fn1
 BYTE   W96
//  #03 //015   ----------------------------------------
 BYTE   PATT
  POIN2 Label_019B4AFA
//  #03 //016   ----------------------------------------
 BYTE   N48  Gn1  v076
 BYTE   W48
 BYTE   N42  Fn1
 BYTE   W48
//  #03 //017   ----------------------------------------
 BYTE   TIE  Cn1
 BYTE   W96
//  #03 //018   ----------------------------------------
 BYTE   W96
//  #03 //019   ----------------------------------------
 BYTE   W90
 BYTE   EOT
 BYTE   W06
//  #03 //020   ----------------------------------------
 BYTE   TIE  Dn1
 BYTE   W96
//  #03 //021   ----------------------------------------
 BYTE   W90
 BYTE   EOT
 BYTE   W06
//  #03 //022   ----------------------------------------
 BYTE   N90  Ds1
 BYTE   W96
//  #03 //023   ----------------------------------------
 BYTE   Fn1
 BYTE   W96
//  #03 //024   ----------------------------------------
 BYTE   TIE  Gn1
 BYTE   W96
//  #03 //025   ----------------------------------------
 BYTE   W90
 BYTE   EOT
 BYTE   GoTo
  POIN2 Label_019B4A1A
 BYTE   FINE

//**************** Track 4 (Midi-Chn.3) ****************//

EternalWinter_004:
//  #04 //000   ----------------------------------------
 BYTE   KEYSH   EternalWinter_key+0
Label_019B4872:
 BYTE   VOICE   61
 BYTE   MODT 0
 BYTE   LFOS 44
 BYTE   PAN   c_v-5
 BYTE   VOL   27*EternalWinter_mvl/mxv
 BYTE   W96
//  #04 //001   ----------------------------------------
 BYTE   W96
//  #04 //002   ----------------------------------------
 BYTE   W96
//  #04 //003   ----------------------------------------
 BYTE   W96
//  #04 //004   ----------------------------------------
 BYTE   W96
//  #04 //005   ----------------------------------------
 BYTE   W96
//  #04 //006   ----------------------------------------
 BYTE   W96
//  #04 //007   ----------------------------------------
 BYTE   W96
//  #04 //008   ----------------------------------------
 BYTE   W96
//  #04 //009   ----------------------------------------
 BYTE   W96
//  #04 //010   ----------------------------------------
 BYTE   W96
//  #04 //011   ----------------------------------------
 BYTE   W96
//  #04 //012   ----------------------------------------
 BYTE   W96
//  #04 //013   ----------------------------------------
 BYTE   W96
//  #04 //014   ----------------------------------------
 BYTE   W96
//  #04 //015   ----------------------------------------
 BYTE   W96
//  #04 //016   ----------------------------------------
 BYTE   W96
//  #04 //017   ----------------------------------------
 BYTE   N36  Cn3  v127
 BYTE   W36
 BYTE   N12  Dn3
 BYTE   W12
 BYTE   N24  En3
 BYTE   W24
 BYTE   Gn3
 BYTE   W24
//  #04 //018   ----------------------------------------
 BYTE   N12  Fs3
 BYTE   W12
 BYTE   Dn3
 BYTE   W12
 BYTE   Fs3
 BYTE   W12
 BYTE   Gn3
 BYTE   W12
 BYTE   N24  Fs3
 BYTE   W24
 BYTE   N12  Dn3
 BYTE   W12
 BYTE   En3
 BYTE   W12
//  #04 //019   ----------------------------------------
 BYTE   N36  Fn3
 BYTE   W36
 BYTE   N12  Cn3
 BYTE   W12
 BYTE   Fn3
 BYTE   W12
 BYTE   Gn3
 BYTE   W12
 BYTE   An3
 BYTE   W12
 BYTE   Cn4
 BYTE   W12
//  #04 //020   ----------------------------------------
 BYTE   Dn4
 BYTE   W12
 BYTE   An3
 BYTE   W12
 BYTE   Dn4
 BYTE   W12
 BYTE   En4
 BYTE   W12
 BYTE   N42  Dn4
 BYTE   W48
//  #04 //021   ----------------------------------------
 BYTE   N36  Gn3
 BYTE   W36
 BYTE   N12  An3
 BYTE   W12
 BYTE   As3
 BYTE   W12
 BYTE   An3
 BYTE   W12
 BYTE   Gn3
 BYTE   W12
 BYTE   Dn3
 BYTE   W12
//  #04 //022   ----------------------------------------
 BYTE   Gn3
 BYTE   W12
 BYTE   Fn3
 BYTE   W12
 BYTE   Ds3
 BYTE   W12
 BYTE   Fn3
 BYTE   W12
 BYTE   N24  Gn3
 BYTE   W24
 BYTE   As3
 BYTE   W24
//  #04 //023   ----------------------------------------
 BYTE   N12  Gs3
 BYTE   W12
 BYTE   Gn3
 BYTE   W12
 BYTE   Gs3
 BYTE   W12
 BYTE   As3
 BYTE   W12
 BYTE   N24  Cn4
 BYTE   W24
 BYTE   Ds4
 BYTE   W24
//  #04 //024   ----------------------------------------
 BYTE   Dn4
 BYTE   W24
 BYTE   Cn4
 BYTE   W24
 BYTE   Bn3
 BYTE   W24
 BYTE   An3
 BYTE   W24
//  #04 //025   ----------------------------------------
 BYTE   N90  Gn3
 BYTE   W48
 BYTE   N42  Fn3
 BYTE   W42
 BYTE   GoTo
  POIN2 Label_019B4872
 BYTE   FINE

//**************** Track 5 (Midi-Chn.4) ****************//

EternalWinter_005:
//  #05 //000   ----------------------------------------
 BYTE   KEYSH   EternalWinter_key+0
Label_01A57BBA:
 BYTE   VOICE   54
 BYTE   MODT 0
 BYTE   LFOS 44
 BYTE   PAN   c_v+32
 BYTE   VOL   27*EternalWinter_mvl/mxv
 BYTE   W96
//  #05 //001   ----------------------------------------
 BYTE   W96
//  #05 //002   ----------------------------------------
 BYTE   W96
//  #05 //003   ----------------------------------------
 BYTE   W96
//  #05 //004   ----------------------------------------
 BYTE   W96
//  #05 //005   ----------------------------------------
 BYTE   W96
//  #05 //006   ----------------------------------------
 BYTE   W96
//  #05 //007   ----------------------------------------
 BYTE   W96
//  #05 //008   ----------------------------------------
 BYTE   VOL   0*EternalWinter_mvl/mxv
 BYTE   N96  Gn1  v076
 BYTE   W01
 BYTE   VOL   0*EternalWinter_mvl/mxv
 BYTE   W01
 BYTE   VOL   0*EternalWinter_mvl/mxv
 BYTE   W01
 BYTE   VOL   0*EternalWinter_mvl/mxv
 BYTE   W01
 BYTE   VOL   0*EternalWinter_mvl/mxv
 BYTE   W01
 BYTE   VOL   0*EternalWinter_mvl/mxv
 BYTE   W01
 BYTE   VOL   0*EternalWinter_mvl/mxv
 BYTE   W01
 BYTE   VOL   0*EternalWinter_mvl/mxv
 BYTE   W01
 BYTE   VOL   0*EternalWinter_mvl/mxv
 BYTE   W01
 BYTE   VOL   0*EternalWinter_mvl/mxv
 BYTE   W01
 BYTE   VOL   0*EternalWinter_mvl/mxv
 BYTE   W01
 BYTE   VOL   0*EternalWinter_mvl/mxv
 BYTE   W01
 BYTE   VOL   0*EternalWinter_mvl/mxv
 BYTE   W01
 BYTE   VOL   1*EternalWinter_mvl/mxv
 BYTE   W01
 BYTE   VOL   1*EternalWinter_mvl/mxv
 BYTE   W01
 BYTE   VOL   1*EternalWinter_mvl/mxv
 BYTE   W01
 BYTE   VOL   1*EternalWinter_mvl/mxv
 BYTE   W01
 BYTE   VOL   1*EternalWinter_mvl/mxv
 BYTE   W01
 BYTE   VOL   1*EternalWinter_mvl/mxv
 BYTE   W01
 BYTE   VOL   1*EternalWinter_mvl/mxv
 BYTE   W01
 BYTE   VOL   2*EternalWinter_mvl/mxv
 BYTE   W01
 BYTE   VOL   2*EternalWinter_mvl/mxv
 BYTE   W01
 BYTE   VOL   2*EternalWinter_mvl/mxv
 BYTE   W01
 BYTE   VOL   2*EternalWinter_mvl/mxv
 BYTE   W01
 BYTE   VOL   2*EternalWinter_mvl/mxv
 BYTE   W01
 BYTE   VOL   2*EternalWinter_mvl/mxv
 BYTE   W01
 BYTE   VOL   3*EternalWinter_mvl/mxv
 BYTE   W01
 BYTE   VOL   3*EternalWinter_mvl/mxv
 BYTE   W01
 BYTE   VOL   3*EternalWinter_mvl/mxv
 BYTE   W01
 BYTE   VOL   3*EternalWinter_mvl/mxv
 BYTE   W01
 BYTE   VOL   4*EternalWinter_mvl/mxv
 BYTE   W01
 BYTE   VOL   4*EternalWinter_mvl/mxv
 BYTE   W01
 BYTE   VOL   4*EternalWinter_mvl/mxv
 BYTE   W01
 BYTE   VOL   4*EternalWinter_mvl/mxv
 BYTE   W01
 BYTE   VOL   4*EternalWinter_mvl/mxv
 BYTE   W01
 BYTE   VOL   5*EternalWinter_mvl/mxv
 BYTE   W01
 BYTE   VOL   5*EternalWinter_mvl/mxv
 BYTE   W01
 BYTE   VOL   5*EternalWinter_mvl/mxv
 BYTE   W01
 BYTE   VOL   5*EternalWinter_mvl/mxv
 BYTE   W01
 BYTE   VOL   6*EternalWinter_mvl/mxv
 BYTE   W01
 BYTE   VOL   6*EternalWinter_mvl/mxv
 BYTE   W01
 BYTE   VOL   6*EternalWinter_mvl/mxv
 BYTE   W01
 BYTE   VOL   6*EternalWinter_mvl/mxv
 BYTE   W01
 BYTE   VOL   7*EternalWinter_mvl/mxv
 BYTE   W01
 BYTE   VOL   7*EternalWinter_mvl/mxv
 BYTE   W01
 BYTE   VOL   7*EternalWinter_mvl/mxv
 BYTE   W01
 BYTE   VOL   8*EternalWinter_mvl/mxv
 BYTE   W01
 BYTE   VOL   8*EternalWinter_mvl/mxv
 BYTE   W01
 BYTE   VOL   8*EternalWinter_mvl/mxv
 BYTE   W01
 BYTE   VOL   9*EternalWinter_mvl/mxv
 BYTE   W01
 BYTE   VOL   9*EternalWinter_mvl/mxv
 BYTE   W01
 BYTE   VOL   9*EternalWinter_mvl/mxv
 BYTE   W01
 BYTE   VOL   9*EternalWinter_mvl/mxv
 BYTE   W01
 BYTE   VOL   10*EternalWinter_mvl/mxv
 BYTE   W01
 BYTE   VOL   10*EternalWinter_mvl/mxv
 BYTE   W01
 BYTE   VOL   11*EternalWinter_mvl/mxv
 BYTE   W01
 BYTE   VOL   11*EternalWinter_mvl/mxv
 BYTE   W01
 BYTE   VOL   11*EternalWinter_mvl/mxv
 BYTE   W01
 BYTE   VOL   11*EternalWinter_mvl/mxv
 BYTE   W01
 BYTE   VOL   12*EternalWinter_mvl/mxv
 BYTE   W01
 BYTE   VOL   12*EternalWinter_mvl/mxv
 BYTE   W01
 BYTE   VOL   12*EternalWinter_mvl/mxv
 BYTE   W01
 BYTE   VOL   13*EternalWinter_mvl/mxv
 BYTE   W01
 BYTE   VOL   13*EternalWinter_mvl/mxv
 BYTE   W01
 BYTE   VOL   13*EternalWinter_mvl/mxv
 BYTE   W01
 BYTE   VOL   14*EternalWinter_mvl/mxv
 BYTE   W01
 BYTE   VOL   14*EternalWinter_mvl/mxv
 BYTE   W01
 BYTE   VOL   14*EternalWinter_mvl/mxv
 BYTE   W01
 BYTE   VOL   15*EternalWinter_mvl/mxv
 BYTE   W01
 BYTE   VOL   15*EternalWinter_mvl/mxv
 BYTE   W01
 BYTE   VOL   16*EternalWinter_mvl/mxv
 BYTE   W01
 BYTE   VOL   16*EternalWinter_mvl/mxv
 BYTE   W01
 BYTE   VOL   17*EternalWinter_mvl/mxv
 BYTE   W01
 BYTE   VOL   17*EternalWinter_mvl/mxv
 BYTE   W01
 BYTE   VOL   17*EternalWinter_mvl/mxv
 BYTE   W01
 BYTE   VOL   18*EternalWinter_mvl/mxv
 BYTE   W01
 BYTE   VOL   18*EternalWinter_mvl/mxv
 BYTE   W01
 BYTE   VOL   19*EternalWinter_mvl/mxv
 BYTE   W01
 BYTE   VOL   19*EternalWinter_mvl/mxv
 BYTE   W01
 BYTE   VOL   19*EternalWinter_mvl/mxv
 BYTE   W01
 BYTE   VOL   20*EternalWinter_mvl/mxv
 BYTE   W01
 BYTE   VOL   20*EternalWinter_mvl/mxv
 BYTE   W01
 BYTE   VOL   20*EternalWinter_mvl/mxv
 BYTE   W01
 BYTE   VOL   21*EternalWinter_mvl/mxv
 BYTE   W01
 BYTE   VOL   21*EternalWinter_mvl/mxv
 BYTE   W01
 BYTE   VOL   22*EternalWinter_mvl/mxv
 BYTE   W01
 BYTE   VOL   22*EternalWinter_mvl/mxv
 BYTE   W01
 BYTE   VOL   23*EternalWinter_mvl/mxv
 BYTE   W01
 BYTE   VOL   23*EternalWinter_mvl/mxv
 BYTE   W01
 BYTE   VOL   24*EternalWinter_mvl/mxv
 BYTE   W01
 BYTE   VOL   24*EternalWinter_mvl/mxv
 BYTE   W01
 BYTE   VOL   24*EternalWinter_mvl/mxv
 BYTE   W01
 BYTE   VOL   25*EternalWinter_mvl/mxv
 BYTE   W01
 BYTE   VOL   25*EternalWinter_mvl/mxv
 BYTE   W01
 BYTE   VOL   26*EternalWinter_mvl/mxv
 BYTE   W01
 BYTE   VOL   26*EternalWinter_mvl/mxv
 BYTE   W01
//  #05 //009   ----------------------------------------
 BYTE   VOL   27*EternalWinter_mvl/mxv
 BYTE   N48  An1
 BYTE   W48
 BYTE   Gn1
 BYTE   W48
//  #05 //010   ----------------------------------------
 BYTE   N96  Fn1
 BYTE   W96
//  #05 //011   ----------------------------------------
Label_01A57C99:
 BYTE   N48  En1  v076
 BYTE   W48
 BYTE   Fs1
 BYTE   W48
 BYTE   PEND 
//  #05 //012   ----------------------------------------
 BYTE   N96  Gn1
 BYTE   W96
//  #05 //013   ----------------------------------------
 BYTE   N48  An1
 BYTE   W48
 BYTE   Gn1
 BYTE   W48
//  #05 //014   ----------------------------------------
 BYTE   N96  Fn1
 BYTE   W96
//  #05 //015   ----------------------------------------
 BYTE   PATT
  POIN2 Label_01A57C99
//  #05 //016   ----------------------------------------
 BYTE   N48  Gn1  v076
 BYTE   W48
 BYTE   N42  Fn1
 BYTE   W48
//  #05 //017   ----------------------------------------
 BYTE   TIE  Cn1
 BYTE   W96
//  #05 //018   ----------------------------------------
 BYTE   W96
//  #05 //019   ----------------------------------------
 BYTE   W90
 BYTE   EOT
 BYTE   W06
//  #05 //020   ----------------------------------------
 BYTE   TIE  Dn1
 BYTE   W96
//  #05 //021   ----------------------------------------
 BYTE   W90
 BYTE   EOT
 BYTE   W06
//  #05 //022   ----------------------------------------
 BYTE   N90  Ds1
 BYTE   W96
//  #05 //023   ----------------------------------------
 BYTE   Fn1
 BYTE   W96
//  #05 //024   ----------------------------------------
 BYTE   TIE  Gn1
 BYTE   W96
//  #05 //025   ----------------------------------------
 BYTE   W90
 BYTE   EOT
 BYTE   GoTo
  POIN2 Label_01A57BBA
 BYTE   FINE

//**************** Track 6 (Midi-Chn.5) ****************//

EternalWinter_006:
//  #06 //000   ----------------------------------------
 BYTE   KEYSH   EternalWinter_key+0
Label_01A57CD6:
 BYTE   VOICE   1
 BYTE   MODT 0
 BYTE   LFOS 44
 BYTE   PAN   c_v+18
 BYTE   VOL   18*EternalWinter_mvl/mxv
 BYTE   N42  An3  v127
 BYTE   N42  Cn4
 BYTE   N32  Cn5
 BYTE   W36
 BYTE   N11  En5
 BYTE   W12
 BYTE   N42  Gn3
 BYTE   N42  Bn3
 BYTE   N20  Bn4
 BYTE   W24
 BYTE   N11  Cn5
 BYTE   W12
 BYTE   Dn5
 BYTE   W12
//  #06 //001   ----------------------------------------
Label_01A57CF7:
 BYTE   N42  Fn3  v127
 BYTE   N42  An3
 BYTE   N32  Cn5
 BYTE   W36
 BYTE   N11  An4
 BYTE   W12
 BYTE   N42  Dn3
 BYTE   N42  Fn3
 BYTE   N11  Fn4
 BYTE   W12
 BYTE   Gn4
 BYTE   W12
 BYTE   An4
 BYTE   W12
 BYTE   Cn5
 BYTE   W12
 BYTE   PEND 
//  #06 //002   ----------------------------------------
Label_01A57D10:
 BYTE   N42  En3  v127
 BYTE   N42  Gn3
 BYTE   N32  Bn4
 BYTE   W36
 BYTE   N11  An4
 BYTE   W12
 BYTE   N42  Fs3
 BYTE   N42  An3
 BYTE   N20  Gn4
 BYTE   W24
 BYTE   Fs4
 BYTE   W24
 BYTE   PEND 
//  #06 //003   ----------------------------------------
Label_01A57D25:
 BYTE   N42  En3  v127
 BYTE   N42  Bn3
 BYTE   N11  En4
 BYTE   W12
 BYTE   Dn4
 BYTE   W12
 BYTE   En4
 BYTE   W12
 BYTE   Gn4
 BYTE   W12
 BYTE   N42  Fn3
 BYTE   N42  Bn3
 BYTE   N11  Fn4
 BYTE   W12
 BYTE   Gn4
 BYTE   W12
 BYTE   An4
 BYTE   W12
 BYTE   Bn4
 BYTE   W12
 BYTE   PEND 
//  #06 //004   ----------------------------------------
Label_01A57D41:
 BYTE   N42  An3  v127
 BYTE   N42  Cn4
 BYTE   N11  Cn5
 BYTE   W12
 BYTE   Bn4
 BYTE   W12
 BYTE   An4
 BYTE   W12
 BYTE   Gn4
 BYTE   W12
 BYTE   N42  Gn3
 BYTE   N42  Bn3
 BYTE   N20  Bn4
 BYTE   W24
 BYTE   N11  Cn5
 BYTE   W12
 BYTE   Dn5
 BYTE   W12
 BYTE   PEND 
//  #06 //005   ----------------------------------------
Label_01A57D5C:
 BYTE   N42  Fn3  v127
 BYTE   N42  An3
 BYTE   N20  Cn5
 BYTE   W24
 BYTE   An4
 BYTE   W24
 BYTE   N42  Dn3
 BYTE   N42  Fn3
 BYTE   N11  Fn4
 BYTE   W12
 BYTE   Gn4
 BYTE   W12
 BYTE   An4
 BYTE   W12
 BYTE   Fn4
 BYTE   W12
 BYTE   PEND 
//  #06 //006   ----------------------------------------
Label_01A57D74:
 BYTE   N42  En3  v127
 BYTE   N42  Gn3
 BYTE   N20  En4
 BYTE   W24
 BYTE   Gn4
 BYTE   W24
 BYTE   N42  Fs3
 BYTE   N42  An3
 BYTE   N11  Fs4
 BYTE   W12
 BYTE   Gn4
 BYTE   W12
 BYTE   An4
 BYTE   W12
 BYTE   Cn5
 BYTE   W12
 BYTE   PEND 
//  #06 //007   ----------------------------------------
 BYTE   N42  En3
 BYTE   N42  Bn3
 BYTE   N20  Bn4
 BYTE   W24
 BYTE   Cn5
 BYTE   W24
 BYTE   TIE  Fn3
 BYTE   TIE  Bn3
 BYTE   TIE  Dn5
 BYTE   W48
//  #06 //008   ----------------------------------------
 BYTE   W90
 BYTE   EOT
 BYTE   Fn3  v071
 BYTE   Dn5
 BYTE   W06
//  #06 //009   ----------------------------------------
 BYTE   N42  An3
 BYTE   N42  Cn4
 BYTE   N32  Cn5
 BYTE   W36
 BYTE   N11  En5
 BYTE   W12
 BYTE   N42  Gn3
 BYTE   N42  Bn3
 BYTE   N20  Bn4
 BYTE   W24
 BYTE   N11  Cn5
 BYTE   W12
 BYTE   Dn5
 BYTE   W12
//  #06 //010   ----------------------------------------
 BYTE   PATT
  POIN2 Label_01A57CF7
//  #06 //011   ----------------------------------------
 BYTE   PATT
  POIN2 Label_01A57D10
//  #06 //012   ----------------------------------------
 BYTE   PATT
  POIN2 Label_01A57D25
//  #06 //013   ----------------------------------------
 BYTE   PATT
  POIN2 Label_01A57D41
//  #06 //014   ----------------------------------------
 BYTE   PATT
  POIN2 Label_01A57D5C
//  #06 //015   ----------------------------------------
 BYTE   PATT
  POIN2 Label_01A57D74
//  #06 //016   ----------------------------------------
 BYTE   N42  En3  v127
 BYTE   N42  Bn3
 BYTE   N20  Bn4
 BYTE   W24
 BYTE   Cn5
 BYTE   W24
 BYTE   N42  Fn3
 BYTE   N42  Bn3
 BYTE   N42  Dn5
 BYTE   W48
//  #06 //017   ----------------------------------------
 BYTE   N20  En3
 BYTE   N20  Gn3
 BYTE   N20  Cn4
 BYTE   W24
 BYTE   En3
 BYTE   N20  Gn3
 BYTE   N20  Cn4
 BYTE   W24
 BYTE   En3
 BYTE   N20  Gn3
 BYTE   N20  Cn4
 BYTE   W24
 BYTE   En3
 BYTE   N20  Gn3
 BYTE   N20  Cn4
 BYTE   W24
//  #06 //018   ----------------------------------------
 BYTE   Dn3
 BYTE   N20  Fs3
 BYTE   N20  An3
 BYTE   N20  Cn4
 BYTE   W24
 BYTE   Dn3
 BYTE   N20  Fs3
 BYTE   N20  An3
 BYTE   N20  Cn4
 BYTE   W24
 BYTE   Dn3
 BYTE   N20  Fs3
 BYTE   N20  An3
 BYTE   N20  Cn4
 BYTE   W24
 BYTE   Dn3
 BYTE   N20  Fs3
 BYTE   N20  An3
 BYTE   N20  Cn4
 BYTE   W24
//  #06 //019   ----------------------------------------
 BYTE   Cn3
 BYTE   N20  Fn3
 BYTE   N20  An3
 BYTE   N20  Cn4
 BYTE   W24
 BYTE   Cn3
 BYTE   N20  Fn3
 BYTE   N20  An3
 BYTE   N20  Cn4
 BYTE   W24
 BYTE   Cn3
 BYTE   N20  Fn3
 BYTE   N20  An3
 BYTE   N20  Cn4
 BYTE   W24
 BYTE   Cn3
 BYTE   N20  Fn3
 BYTE   N20  An3
 BYTE   N20  Cn4
 BYTE   W24
//  #06 //020   ----------------------------------------
 BYTE   Dn3
 BYTE   N20  Fn3
 BYTE   N20  An3
 BYTE   N20  Dn4
 BYTE   W24
 BYTE   Dn3
 BYTE   N20  Fn3
 BYTE   N20  An3
 BYTE   N20  Dn4
 BYTE   W24
 BYTE   Dn3
 BYTE   N20  Fn3
 BYTE   N20  An3
 BYTE   N20  Dn4
 BYTE   W24
 BYTE   Dn3
 BYTE   N20  Fn3
 BYTE   N20  An3
 BYTE   N20  Dn4
 BYTE   W24
//  #06 //021   ----------------------------------------
 BYTE   Dn3
 BYTE   N20  Gn3
 BYTE   N20  As3
 BYTE   N20  Dn4
 BYTE   W24
 BYTE   Dn3
 BYTE   N20  Gn3
 BYTE   N20  As3
 BYTE   N20  Dn4
 BYTE   W24
 BYTE   Dn3
 BYTE   N20  Gn3
 BYTE   N20  As3
 BYTE   N20  Dn4
 BYTE   W24
 BYTE   Dn3
 BYTE   N20  Gn3
 BYTE   N20  As3
 BYTE   N20  Dn4
 BYTE   W24
//  #06 //022   ----------------------------------------
 BYTE   Ds3
 BYTE   N20  Gn3
 BYTE   N20  Cn4
 BYTE   N20  Ds4
 BYTE   W24
 BYTE   Ds3
 BYTE   N20  Gn3
 BYTE   N20  Cn4
 BYTE   N20  Ds4
 BYTE   W24
 BYTE   Ds3
 BYTE   N20  Gn3
 BYTE   N20  Cn4
 BYTE   N20  Ds4
 BYTE   W24
 BYTE   Ds3
 BYTE   N20  Gn3
 BYTE   N20  Cn4
 BYTE   N20  Ds4
 BYTE   W24
//  #06 //023   ----------------------------------------
 BYTE   Fn3
 BYTE   N20  Gs3
 BYTE   N20  Cn4
 BYTE   N20  Fn4
 BYTE   W24
 BYTE   Fn3
 BYTE   N20  Gs3
 BYTE   N20  Cn4
 BYTE   N20  Fn4
 BYTE   W24
 BYTE   Fn3
 BYTE   N20  Gs3
 BYTE   N20  Cn4
 BYTE   N20  Fn4
 BYTE   W24
 BYTE   Fn3
 BYTE   N20  Gs3
 BYTE   N20  Cn4
 BYTE   N20  Fn4
 BYTE   W24
//  #06 //024   ----------------------------------------
 BYTE   TIE  Dn3
 BYTE   TIE  Gn3
 BYTE   TIE  Bn3
 BYTE   N11  Gn4
 BYTE   W12
 BYTE   Dn4
 BYTE   W12
 BYTE   Gn4
 BYTE   W12
 BYTE   An4
 BYTE   W12
 BYTE   Gn4
 BYTE   W12
 BYTE   Dn4
 BYTE   W12
 BYTE   Gn4
 BYTE   W12
 BYTE   An4
 BYTE   W12
//  #06 //025   ----------------------------------------
 BYTE   Gn4
 BYTE   W12
 BYTE   Dn4
 BYTE   W12
 BYTE   Gn4
 BYTE   W12
 BYTE   An4
 BYTE   W12
 BYTE   N42  Gn4
 BYTE   W42
 BYTE   EOT
 BYTE   Dn3  v067
 BYTE   Bn3
 BYTE   GoTo
  POIN2 Label_01A57CD6
 BYTE   FINE

//******************************************************//
	ALIGN 4

EternalWinter:
	BYTE	6	// NumTrks
	BYTE	0	// NumBlks
	BYTE	EternalWinter_pri	// Priority
	BYTE	EternalWinter_rev	// Reverb.
    
	POIN2	EternalWinter_grp
    
	POIN2	EternalWinter_001
	POIN2	EternalWinter_002
	POIN2	EternalWinter_003
	POIN2	EternalWinter_004
	POIN2	EternalWinter_005
	POIN2	EternalWinter_006

	
