//Event file generated from Sappy .s format.
	#include "MPlayDef.event"

	#define	AwakeningSong_grp  voicegroup000
	#define	AwakeningSong_pri  0
	#define	AwakeningSong_rev  208
	#define	AwakeningSong_mvl  30
	#define	AwakeningSong_key  0
	#define	AwakeningSong_tbs  1
	#define	AwakeningSong_exg  0
	#define	AwakeningSong_cmp  1

	// .rodata
	//	AwakeningSong
	ALIGN 4

//**************** Track 1 (Midi-Chn.1) ****************//

AwakeningSong_1:
	BYTE	KEYSH   AwakeningSong_key+0
AwakeningSong_1_B1:
// 000   ----------------------------------------
	BYTE	TEMPO   95*AwakeningSong_tbs/2
	BYTE		VOICE   73
	BYTE		MODT    0
	BYTE		LFOS    44
	BYTE		VOL     127*AwakeningSong_mvl/mxv
	BYTE		PAN     c_v+0
	BYTE	W96
// 001   ----------------------------------------
	BYTE	W96
// 002   ----------------------------------------
AwakeningSong_1_002:
	BYTE		N24     En3   v127
	BYTE	W24
	BYTE		        Gn3 
	BYTE	W24
	BYTE		        Fs3 
	BYTE	W24
	BYTE		N72     Dn3 
	BYTE	W24
	BYTE	PEND
// 003   ----------------------------------------
AwakeningSong_1_003:
	BYTE	W48
	BYTE		N24     En3   v127
	BYTE	W24
	BYTE		        Gn3 
	BYTE	W24
	BYTE	PEND
// 004   ----------------------------------------
AwakeningSong_1_004:
	BYTE		N24     Fs3   v127
	BYTE	W24
	BYTE		        Dn3 
	BYTE	W24
	BYTE		        Bn2 
	BYTE	W24
	BYTE		N72     An2 
	BYTE	W24
	BYTE	PEND
// 005   ----------------------------------------
	BYTE	PATT
	 POIN2	AwakeningSong_1_003
// 006   ----------------------------------------
AwakeningSong_1_006:
	BYTE		N24     Fs3   v127
	BYTE	W24
	BYTE		        Gn3 
	BYTE	W24
	BYTE		N72     Cn4 
	BYTE	W48
	BYTE	PEND
// 007   ----------------------------------------
AwakeningSong_1_007:
	BYTE	W24
	BYTE		N24     Bn3   v127
	BYTE	W24
	BYTE		        An3 
	BYTE	W24
	BYTE		        Gn3 
	BYTE	W24
	BYTE	PEND
// 008   ----------------------------------------
	BYTE		N48     En3 
	BYTE	W48
	BYTE		        Fs3 
	BYTE	W48
// 009   ----------------------------------------
AwakeningSong_1_009:
	BYTE		N48     Gn3   v127
	BYTE	W48
	BYTE		N42     Fs3 
	BYTE	W48
	BYTE	PEND
// 010   ----------------------------------------
	BYTE	PATT
	 POIN2	AwakeningSong_1_002
// 011   ----------------------------------------
	BYTE	PATT
	 POIN2	AwakeningSong_1_003
// 012   ----------------------------------------
	BYTE	PATT
	 POIN2	AwakeningSong_1_004
// 013   ----------------------------------------
	BYTE	PATT
	 POIN2	AwakeningSong_1_003
// 014   ----------------------------------------
	BYTE	PATT
	 POIN2	AwakeningSong_1_006
// 015   ----------------------------------------
	BYTE	PATT
	 POIN2	AwakeningSong_1_007
// 016   ----------------------------------------
	BYTE		N48     En3   v127
	BYTE	W48
	BYTE		        Fs3 
	BYTE	W48
// 017   ----------------------------------------
	BYTE	PATT
	 POIN2	AwakeningSong_1_009
// 018   ----------------------------------------
	BYTE	W96
// 019   ----------------------------------------
	BYTE	W96
// 020   ----------------------------------------
	BYTE	W96
// 021   ----------------------------------------
	BYTE	W96
// 022   ----------------------------------------
	BYTE	W96
// 023   ----------------------------------------
	BYTE	W96
// 024   ----------------------------------------
	BYTE	W96
// 025   ----------------------------------------
	BYTE	W96
// 026   ----------------------------------------
	BYTE	W96
// 027   ----------------------------------------
	BYTE	W96
// 028   ----------------------------------------
	BYTE	W96
// 029   ----------------------------------------
	BYTE	W96
// 030   ----------------------------------------
	BYTE	W96
// 031   ----------------------------------------
	BYTE	W96
// 032   ----------------------------------------
	BYTE	W96
// 033   ----------------------------------------
	BYTE	W96
// 034   ----------------------------------------
	BYTE	W18
	BYTE	GoTo
	 POIN2	AwakeningSong_1_B1
AwakeningSong_1_B2:
	BYTE	FINE

//**************** Track 2 (Midi-Chn.2) ****************//

AwakeningSong_2:
	BYTE	KEYSH   AwakeningSong_key+0
AwakeningSong_2_B1:
// 000   ----------------------------------------
	BYTE		VOICE   52
	BYTE		MODT    0
	BYTE		LFOS    44
	BYTE		VOL     127*AwakeningSong_mvl/mxv
	BYTE		PAN     c_v-63
	BYTE	W96
// 001   ----------------------------------------
	BYTE	W96
// 002   ----------------------------------------
	BYTE	W96
// 003   ----------------------------------------
	BYTE	W96
// 004   ----------------------------------------
	BYTE	W96
// 005   ----------------------------------------
	BYTE	W96
// 006   ----------------------------------------
	BYTE	W96
// 007   ----------------------------------------
	BYTE	W96
// 008   ----------------------------------------
	BYTE	W96
// 009   ----------------------------------------
	BYTE		VOL     0*AwakeningSong_mvl/mxv
	BYTE		N90     En3   v076
	BYTE		N90     Gn3 
	BYTE		N90     Cn4 
	BYTE	W01
	BYTE		VOL     0*AwakeningSong_mvl/mxv
	BYTE	W01
	BYTE		        0*AwakeningSong_mvl/mxv
	BYTE	W01
	BYTE		        1*AwakeningSong_mvl/mxv
	BYTE	W01
	BYTE		        1*AwakeningSong_mvl/mxv
	BYTE	W01
	BYTE		        1*AwakeningSong_mvl/mxv
	BYTE	W01
	BYTE		        2*AwakeningSong_mvl/mxv
	BYTE	W01
	BYTE		        2*AwakeningSong_mvl/mxv
	BYTE	W01
	BYTE		        2*AwakeningSong_mvl/mxv
	BYTE	W01
	BYTE		        3*AwakeningSong_mvl/mxv
	BYTE	W01
	BYTE		        3*AwakeningSong_mvl/mxv
	BYTE	W01
	BYTE		        4*AwakeningSong_mvl/mxv
	BYTE	W01
	BYTE		        4*AwakeningSong_mvl/mxv
	BYTE	W01
	BYTE		        5*AwakeningSong_mvl/mxv
	BYTE	W01
	BYTE		        5*AwakeningSong_mvl/mxv
	BYTE	W01
	BYTE		        6*AwakeningSong_mvl/mxv
	BYTE	W01
	BYTE		        7*AwakeningSong_mvl/mxv
	BYTE	W01
	BYTE		        7*AwakeningSong_mvl/mxv
	BYTE	W01
	BYTE		        8*AwakeningSong_mvl/mxv
	BYTE	W01
	BYTE		        9*AwakeningSong_mvl/mxv
	BYTE	W01
	BYTE		        10*AwakeningSong_mvl/mxv
	BYTE	W01
	BYTE		        11*AwakeningSong_mvl/mxv
	BYTE	W01
	BYTE		        11*AwakeningSong_mvl/mxv
	BYTE	W01
	BYTE		        12*AwakeningSong_mvl/mxv
	BYTE	W01
	BYTE		        13*AwakeningSong_mvl/mxv
	BYTE	W01
	BYTE		        14*AwakeningSong_mvl/mxv
	BYTE	W01
	BYTE		        15*AwakeningSong_mvl/mxv
	BYTE	W01
	BYTE		        16*AwakeningSong_mvl/mxv
	BYTE	W01
	BYTE		        17*AwakeningSong_mvl/mxv
	BYTE	W01
	BYTE		        18*AwakeningSong_mvl/mxv
	BYTE	W01
	BYTE		        19*AwakeningSong_mvl/mxv
	BYTE	W01
	BYTE		        20*AwakeningSong_mvl/mxv
	BYTE	W01
	BYTE		        21*AwakeningSong_mvl/mxv
	BYTE	W01
	BYTE		        22*AwakeningSong_mvl/mxv
	BYTE	W01
	BYTE		        23*AwakeningSong_mvl/mxv
	BYTE	W01
	BYTE		        24*AwakeningSong_mvl/mxv
	BYTE	W01
	BYTE		        25*AwakeningSong_mvl/mxv
	BYTE	W01
	BYTE		        27*AwakeningSong_mvl/mxv
	BYTE	W01
	BYTE		        28*AwakeningSong_mvl/mxv
	BYTE	W01
	BYTE		        29*AwakeningSong_mvl/mxv
	BYTE	W01
	BYTE		        31*AwakeningSong_mvl/mxv
	BYTE	W01
	BYTE		        31*AwakeningSong_mvl/mxv
	BYTE	W01
	BYTE		        32*AwakeningSong_mvl/mxv
	BYTE	W01
	BYTE		        34*AwakeningSong_mvl/mxv
	BYTE	W01
	BYTE		        35*AwakeningSong_mvl/mxv
	BYTE	W01
	BYTE		        36*AwakeningSong_mvl/mxv
	BYTE	W01
	BYTE		        38*AwakeningSong_mvl/mxv
	BYTE	W01
	BYTE		        39*AwakeningSong_mvl/mxv
	BYTE	W01
	BYTE		        41*AwakeningSong_mvl/mxv
	BYTE	W01
	BYTE		        43*AwakeningSong_mvl/mxv
	BYTE	W01
	BYTE		        44*AwakeningSong_mvl/mxv
	BYTE	W01
	BYTE		        45*AwakeningSong_mvl/mxv
	BYTE	W01
	BYTE		        47*AwakeningSong_mvl/mxv
	BYTE	W01
	BYTE		        48*AwakeningSong_mvl/mxv
	BYTE	W01
	BYTE		        49*AwakeningSong_mvl/mxv
	BYTE	W01
	BYTE		        52*AwakeningSong_mvl/mxv
	BYTE	W01
	BYTE		        53*AwakeningSong_mvl/mxv
	BYTE	W01
	BYTE		        54*AwakeningSong_mvl/mxv
	BYTE	W01
	BYTE		        56*AwakeningSong_mvl/mxv
	BYTE	W01
	BYTE		        58*AwakeningSong_mvl/mxv
	BYTE	W01
	BYTE		        59*AwakeningSong_mvl/mxv
	BYTE	W01
	BYTE		        61*AwakeningSong_mvl/mxv
	BYTE	W01
	BYTE		        63*AwakeningSong_mvl/mxv
	BYTE	W01
	BYTE		        64*AwakeningSong_mvl/mxv
	BYTE	W01
	BYTE		        65*AwakeningSong_mvl/mxv
	BYTE	W01
	BYTE		        68*AwakeningSong_mvl/mxv
	BYTE	W01
	BYTE		        69*AwakeningSong_mvl/mxv
	BYTE	W01
	BYTE		        70*AwakeningSong_mvl/mxv
	BYTE	W01
	BYTE		        73*AwakeningSong_mvl/mxv
	BYTE	W01
	BYTE		        74*AwakeningSong_mvl/mxv
	BYTE	W01
	BYTE		        76*AwakeningSong_mvl/mxv
	BYTE	W01
	BYTE		        78*AwakeningSong_mvl/mxv
	BYTE	W01
	BYTE		        80*AwakeningSong_mvl/mxv
	BYTE	W01
	BYTE		        81*AwakeningSong_mvl/mxv
	BYTE	W01
	BYTE		        84*AwakeningSong_mvl/mxv
	BYTE	W01
	BYTE		        85*AwakeningSong_mvl/mxv
	BYTE	W01
	BYTE		        87*AwakeningSong_mvl/mxv
	BYTE	W01
	BYTE		        90*AwakeningSong_mvl/mxv
	BYTE	W01
	BYTE		        91*AwakeningSong_mvl/mxv
	BYTE	W01
	BYTE		        92*AwakeningSong_mvl/mxv
	BYTE	W01
	BYTE		        95*AwakeningSong_mvl/mxv
	BYTE	W01
	BYTE		        97*AwakeningSong_mvl/mxv
	BYTE	W01
	BYTE		        98*AwakeningSong_mvl/mxv
	BYTE	W01
	BYTE		        101*AwakeningSong_mvl/mxv
	BYTE	W01
	BYTE		        103*AwakeningSong_mvl/mxv
	BYTE	W01
	BYTE		        105*AwakeningSong_mvl/mxv
	BYTE	W01
	BYTE		        108*AwakeningSong_mvl/mxv
	BYTE	W01
	BYTE		        109*AwakeningSong_mvl/mxv
	BYTE	W01
	BYTE		        111*AwakeningSong_mvl/mxv
	BYTE	W01
	BYTE		        114*AwakeningSong_mvl/mxv
	BYTE	W01
	BYTE		        116*AwakeningSong_mvl/mxv
	BYTE	W01
	BYTE		        117*AwakeningSong_mvl/mxv
	BYTE	W01
	BYTE		        120*AwakeningSong_mvl/mxv
	BYTE	W01
	BYTE		        122*AwakeningSong_mvl/mxv
	BYTE	W01
	BYTE		        124*AwakeningSong_mvl/mxv
	BYTE	W01
	BYTE		        125*AwakeningSong_mvl/mxv
	BYTE	W01
// 010   ----------------------------------------
	BYTE		        127*AwakeningSong_mvl/mxv
	BYTE		N72     Gn3 
	BYTE		N72     Bn3 
	BYTE		N72     En4 
	BYTE	W72
	BYTE		        Gn3 
	BYTE		N72     An3 
	BYTE		N72     Dn4 
	BYTE		N72     En4 
	BYTE	W24
// 011   ----------------------------------------
	BYTE	W48
	BYTE		N96     En3 
	BYTE		N96     An3 
	BYTE		N96     Cn4 
	BYTE	W48
// 012   ----------------------------------------
	BYTE	W48
	BYTE		        Fs3 
	BYTE		N96     Bn3 
	BYTE		N96     Cn4 
	BYTE		N96     Dn4 
	BYTE	W48
// 013   ----------------------------------------
	BYTE	W48
	BYTE		        Gn3 
	BYTE		N96     Bn3 
	BYTE		N96     En4 
	BYTE	W48
// 014   ----------------------------------------
	BYTE	W48
	BYTE		N72     An3 
	BYTE		N72     Cn4 
	BYTE		N72     Dn4 
	BYTE		N72     Gn4 
	BYTE	W48
// 015   ----------------------------------------
	BYTE	W24
	BYTE		        An3 
	BYTE		N72     Cn4 
	BYTE		N72     En4 
	BYTE		N72     Gn4 
	BYTE	W72
// 016   ----------------------------------------
	BYTE		TIE     Gn3 
	BYTE		TIE     Bn3 
	BYTE		N90     Dn4 
	BYTE		TIE     En4 
	BYTE	W48
	BYTE		        Fs4   v088
	BYTE	W48
// 017   ----------------------------------------
	BYTE		N90     Gn4   v100
	BYTE	W48
	BYTE		N42     An4   v112
	BYTE	W42
	BYTE		EOT     Gn3 
	BYTE		        Bn3 
	BYTE		        En4 
	BYTE		        Fs4 
	BYTE	W06
// 018   ----------------------------------------
	BYTE		N24     Gn4   v076
	BYTE	W24
	BYTE		        Fs4 
	BYTE	W24
	BYTE		        En4 
	BYTE	W24
	BYTE		        Dn4 
	BYTE	W24
// 019   ----------------------------------------
	BYTE		N48     En4 
	BYTE	W48
	BYTE		N24     Dn4 
	BYTE	W24
	BYTE		        Cn4 
	BYTE	W24
// 020   ----------------------------------------
	BYTE		        Bn3 
	BYTE	W24
	BYTE		        Cn4 
	BYTE	W24
	BYTE		        Dn4 
	BYTE	W24
	BYTE		        Cn4 
	BYTE	W24
// 021   ----------------------------------------
	BYTE		N48     Bn3 
	BYTE	W48
	BYTE		        An3 
	BYTE	W48
// 022   ----------------------------------------
	BYTE		N24     Gn3 
	BYTE	W24
	BYTE		        Bn3 
	BYTE	W24
	BYTE		        An3 
	BYTE	W24
	BYTE		        Bn3 
	BYTE	W24
// 023   ----------------------------------------
	BYTE		        Cn4 
	BYTE	W24
	BYTE		        Bn3 
	BYTE	W24
	BYTE		        An3 
	BYTE	W24
	BYTE		        Gn3 
	BYTE	W24
// 024   ----------------------------------------
	BYTE		N48     Fs3 
	BYTE	W48
	BYTE		        An3 
	BYTE	W48
// 025   ----------------------------------------
	BYTE		        Gn3 
	BYTE	W48
	BYTE		        En3 
	BYTE	W48
// 026   ----------------------------------------
	BYTE		TIE     Ds3 
	BYTE	W48
	BYTE		        Fs3   v088
	BYTE	W48
// 027   ----------------------------------------
	BYTE		N90     An3   v100
	BYTE	W48
	BYTE		N42     Cn4   v112
	BYTE	W42
	BYTE		EOT     Ds3 
	BYTE		        Fs3 
	BYTE	W06
// 028   ----------------------------------------
	BYTE		N42     En3   v127
	BYTE		N42     Gn3 
	BYTE		N42     Bn3 
	BYTE		N42     Dn4 
	BYTE		N42     En4 
	BYTE	W48
	BYTE		N20     Bn2 
	BYTE		N20     En3 
	BYTE		N20     Gn3 
	BYTE		N20     An3 
	BYTE		N20     Bn3 
	BYTE	W24
	BYTE		N66     En3 
	BYTE		N66     Gn3 
	BYTE		N66     An3 
	BYTE		N66     Cn4 
	BYTE	W24
// 029   ----------------------------------------
	BYTE	W48
	BYTE		N42     Bn3 
	BYTE		N42     En4 
	BYTE		N42     Fs4 
	BYTE		N42     Gn4 
	BYTE	W48
// 030   ----------------------------------------
	BYTE		N20     Gn3 
	BYTE		N20     An3 
	BYTE		N20     Bn3 
	BYTE		N20     Dn4 
	BYTE		N20     En4 
	BYTE	W24
	BYTE		N66     An3 
	BYTE		N66     Cn4 
	BYTE		N66     Dn4 
	BYTE		N66     Fs4 
	BYTE	W72
// 031   ----------------------------------------
	BYTE		N20     En4 
	BYTE		N20     An4 
	BYTE		N20     Cn5 
	BYTE	W24
	BYTE		N06     Ds4 
	BYTE		N06     Fs4 
	BYTE		N06     Bn4 
	BYTE	W24
	BYTE		N20     En4 
	BYTE		N20     An4 
	BYTE		N20     Cn5 
	BYTE	W24
	BYTE		N06     Ds4 
	BYTE		N06     Fs4 
	BYTE		N06     Bn4 
	BYTE	W24
// 032   ----------------------------------------
	BYTE		N20     En4 
	BYTE		N20     An4 
	BYTE		N20     Cn5 
	BYTE	W24
	BYTE		N06     Ds4 
	BYTE		N06     Fs4 
	BYTE		N06     Bn4 
	BYTE	W24
	BYTE		TIE     Cs4 
	BYTE		TIE     En4 
	BYTE		TIE     Gn4 
	BYTE		TIE     An4 
	BYTE	W48
// 033   ----------------------------------------
	BYTE	W90
	BYTE		EOT     Cs4 
	BYTE		        En4 
	BYTE		        Gn4 
	BYTE		        An4 
	BYTE	W06
// 034   ----------------------------------------
	BYTE	W18
	BYTE	GoTo
	 POIN2	AwakeningSong_2_B1
AwakeningSong_2_B2:
	BYTE	FINE

//**************** Track 3 (Midi-Chn.3) ****************//

AwakeningSong_3:
	BYTE	KEYSH   AwakeningSong_key+0
AwakeningSong_3_B1:
// 000   ----------------------------------------
	BYTE		VOICE   49
	BYTE		MODT    0
	BYTE		LFOS    44
	BYTE		VOL     127*AwakeningSong_mvl/mxv
	BYTE		PAN     c_v+63
	BYTE	W96
// 001   ----------------------------------------
	BYTE	W96
// 002   ----------------------------------------
	BYTE	W96
// 003   ----------------------------------------
	BYTE	W96
// 004   ----------------------------------------
	BYTE	W96
// 005   ----------------------------------------
	BYTE	W96
// 006   ----------------------------------------
	BYTE	W96
// 007   ----------------------------------------
	BYTE	W96
// 008   ----------------------------------------
	BYTE	W96
// 009   ----------------------------------------
	BYTE		VOL     0*AwakeningSong_mvl/mxv
	BYTE		N90     En3   v076
	BYTE		N90     Gn3 
	BYTE		N90     Cn4 
	BYTE	W01
	BYTE		VOL     0*AwakeningSong_mvl/mxv
	BYTE	W01
	BYTE		        0*AwakeningSong_mvl/mxv
	BYTE	W01
	BYTE		        1*AwakeningSong_mvl/mxv
	BYTE	W01
	BYTE		        1*AwakeningSong_mvl/mxv
	BYTE	W01
	BYTE		        1*AwakeningSong_mvl/mxv
	BYTE	W01
	BYTE		        2*AwakeningSong_mvl/mxv
	BYTE	W01
	BYTE		        2*AwakeningSong_mvl/mxv
	BYTE	W01
	BYTE		        2*AwakeningSong_mvl/mxv
	BYTE	W01
	BYTE		        3*AwakeningSong_mvl/mxv
	BYTE	W01
	BYTE		        3*AwakeningSong_mvl/mxv
	BYTE	W01
	BYTE		        4*AwakeningSong_mvl/mxv
	BYTE	W01
	BYTE		        4*AwakeningSong_mvl/mxv
	BYTE	W01
	BYTE		        5*AwakeningSong_mvl/mxv
	BYTE	W01
	BYTE		        5*AwakeningSong_mvl/mxv
	BYTE	W01
	BYTE		        6*AwakeningSong_mvl/mxv
	BYTE	W01
	BYTE		        7*AwakeningSong_mvl/mxv
	BYTE	W01
	BYTE		        7*AwakeningSong_mvl/mxv
	BYTE	W01
	BYTE		        8*AwakeningSong_mvl/mxv
	BYTE	W01
	BYTE		        9*AwakeningSong_mvl/mxv
	BYTE	W01
	BYTE		        10*AwakeningSong_mvl/mxv
	BYTE	W01
	BYTE		        11*AwakeningSong_mvl/mxv
	BYTE	W01
	BYTE		        11*AwakeningSong_mvl/mxv
	BYTE	W01
	BYTE		        12*AwakeningSong_mvl/mxv
	BYTE	W01
	BYTE		        13*AwakeningSong_mvl/mxv
	BYTE	W01
	BYTE		        14*AwakeningSong_mvl/mxv
	BYTE	W01
	BYTE		        15*AwakeningSong_mvl/mxv
	BYTE	W01
	BYTE		        16*AwakeningSong_mvl/mxv
	BYTE	W01
	BYTE		        17*AwakeningSong_mvl/mxv
	BYTE	W01
	BYTE		        18*AwakeningSong_mvl/mxv
	BYTE	W01
	BYTE		        19*AwakeningSong_mvl/mxv
	BYTE	W01
	BYTE		        20*AwakeningSong_mvl/mxv
	BYTE	W01
	BYTE		        21*AwakeningSong_mvl/mxv
	BYTE	W01
	BYTE		        22*AwakeningSong_mvl/mxv
	BYTE	W01
	BYTE		        23*AwakeningSong_mvl/mxv
	BYTE	W01
	BYTE		        24*AwakeningSong_mvl/mxv
	BYTE	W01
	BYTE		        25*AwakeningSong_mvl/mxv
	BYTE	W01
	BYTE		        27*AwakeningSong_mvl/mxv
	BYTE	W01
	BYTE		        28*AwakeningSong_mvl/mxv
	BYTE	W01
	BYTE		        29*AwakeningSong_mvl/mxv
	BYTE	W01
	BYTE		        31*AwakeningSong_mvl/mxv
	BYTE	W01
	BYTE		        31*AwakeningSong_mvl/mxv
	BYTE	W01
	BYTE		        32*AwakeningSong_mvl/mxv
	BYTE	W01
	BYTE		        34*AwakeningSong_mvl/mxv
	BYTE	W01
	BYTE		        35*AwakeningSong_mvl/mxv
	BYTE	W01
	BYTE		        36*AwakeningSong_mvl/mxv
	BYTE	W01
	BYTE		        38*AwakeningSong_mvl/mxv
	BYTE	W01
	BYTE		        39*AwakeningSong_mvl/mxv
	BYTE	W01
	BYTE		        41*AwakeningSong_mvl/mxv
	BYTE	W01
	BYTE		        43*AwakeningSong_mvl/mxv
	BYTE	W01
	BYTE		        44*AwakeningSong_mvl/mxv
	BYTE	W01
	BYTE		        45*AwakeningSong_mvl/mxv
	BYTE	W01
	BYTE		        47*AwakeningSong_mvl/mxv
	BYTE	W01
	BYTE		        48*AwakeningSong_mvl/mxv
	BYTE	W01
	BYTE		        49*AwakeningSong_mvl/mxv
	BYTE	W01
	BYTE		        52*AwakeningSong_mvl/mxv
	BYTE	W01
	BYTE		        53*AwakeningSong_mvl/mxv
	BYTE	W01
	BYTE		        54*AwakeningSong_mvl/mxv
	BYTE	W01
	BYTE		        56*AwakeningSong_mvl/mxv
	BYTE	W01
	BYTE		        58*AwakeningSong_mvl/mxv
	BYTE	W01
	BYTE		        59*AwakeningSong_mvl/mxv
	BYTE	W01
	BYTE		        61*AwakeningSong_mvl/mxv
	BYTE	W01
	BYTE		        63*AwakeningSong_mvl/mxv
	BYTE	W01
	BYTE		        64*AwakeningSong_mvl/mxv
	BYTE	W01
	BYTE		        65*AwakeningSong_mvl/mxv
	BYTE	W01
	BYTE		        68*AwakeningSong_mvl/mxv
	BYTE	W01
	BYTE		        69*AwakeningSong_mvl/mxv
	BYTE	W01
	BYTE		        70*AwakeningSong_mvl/mxv
	BYTE	W01
	BYTE		        73*AwakeningSong_mvl/mxv
	BYTE	W01
	BYTE		        74*AwakeningSong_mvl/mxv
	BYTE	W01
	BYTE		        76*AwakeningSong_mvl/mxv
	BYTE	W01
	BYTE		        78*AwakeningSong_mvl/mxv
	BYTE	W01
	BYTE		        80*AwakeningSong_mvl/mxv
	BYTE	W01
	BYTE		        81*AwakeningSong_mvl/mxv
	BYTE	W01
	BYTE		        84*AwakeningSong_mvl/mxv
	BYTE	W01
	BYTE		        85*AwakeningSong_mvl/mxv
	BYTE	W01
	BYTE		        87*AwakeningSong_mvl/mxv
	BYTE	W01
	BYTE		        90*AwakeningSong_mvl/mxv
	BYTE	W01
	BYTE		        91*AwakeningSong_mvl/mxv
	BYTE	W01
	BYTE		        92*AwakeningSong_mvl/mxv
	BYTE	W01
	BYTE		        95*AwakeningSong_mvl/mxv
	BYTE	W01
	BYTE		        97*AwakeningSong_mvl/mxv
	BYTE	W01
	BYTE		        98*AwakeningSong_mvl/mxv
	BYTE	W01
	BYTE		        101*AwakeningSong_mvl/mxv
	BYTE	W01
	BYTE		        103*AwakeningSong_mvl/mxv
	BYTE	W01
	BYTE		        105*AwakeningSong_mvl/mxv
	BYTE	W01
	BYTE		        108*AwakeningSong_mvl/mxv
	BYTE	W01
	BYTE		        109*AwakeningSong_mvl/mxv
	BYTE	W01
	BYTE		        111*AwakeningSong_mvl/mxv
	BYTE	W01
	BYTE		        114*AwakeningSong_mvl/mxv
	BYTE	W01
	BYTE		        116*AwakeningSong_mvl/mxv
	BYTE	W01
	BYTE		        117*AwakeningSong_mvl/mxv
	BYTE	W01
	BYTE		        120*AwakeningSong_mvl/mxv
	BYTE	W01
	BYTE		        122*AwakeningSong_mvl/mxv
	BYTE	W01
	BYTE		        124*AwakeningSong_mvl/mxv
	BYTE	W01
	BYTE		        125*AwakeningSong_mvl/mxv
	BYTE	W01
// 010   ----------------------------------------
	BYTE		        127*AwakeningSong_mvl/mxv
	BYTE		N72     Gn3 
	BYTE		N72     Bn3 
	BYTE		N72     En4 
	BYTE	W72
	BYTE		        Gn3 
	BYTE		N72     An3 
	BYTE		N72     Dn4 
	BYTE		N72     En4 
	BYTE	W24
// 011   ----------------------------------------
	BYTE	W48
	BYTE		N96     En3 
	BYTE		N96     An3 
	BYTE		N96     Cn4 
	BYTE	W48
// 012   ----------------------------------------
	BYTE	W48
	BYTE		        Fs3 
	BYTE		N96     Bn3 
	BYTE		N96     Cn4 
	BYTE		N96     Dn4 
	BYTE	W48
// 013   ----------------------------------------
	BYTE	W48
	BYTE		        Gn3 
	BYTE		N96     Bn3 
	BYTE		N96     En4 
	BYTE	W48
// 014   ----------------------------------------
	BYTE	W48
	BYTE		N72     An3 
	BYTE		N72     Cn4 
	BYTE		N72     Dn4 
	BYTE		N72     Gn4 
	BYTE	W48
// 015   ----------------------------------------
	BYTE	W24
	BYTE		        An3 
	BYTE		N72     Cn4 
	BYTE		N72     En4 
	BYTE		N72     Gn4 
	BYTE	W72
// 016   ----------------------------------------
	BYTE		TIE     Gn3 
	BYTE		TIE     Bn3 
	BYTE		N90     Dn4 
	BYTE		TIE     En4 
	BYTE	W48
	BYTE		        Fs4   v088
	BYTE	W48
// 017   ----------------------------------------
	BYTE		N90     Gn4   v100
	BYTE	W48
	BYTE		N42     An4   v112
	BYTE	W42
	BYTE		EOT     Gn3 
	BYTE		        Bn3 
	BYTE		        En4 
	BYTE		        Fs4 
	BYTE	W06
// 018   ----------------------------------------
	BYTE		N24     Gn4   v076
	BYTE	W24
	BYTE		        Fs4 
	BYTE	W24
	BYTE		        En4 
	BYTE	W24
	BYTE		        Dn4 
	BYTE	W24
// 019   ----------------------------------------
	BYTE		N48     En4 
	BYTE	W48
	BYTE		N24     Dn4 
	BYTE	W24
	BYTE		        Cn4 
	BYTE	W24
// 020   ----------------------------------------
	BYTE		        Bn3 
	BYTE	W24
	BYTE		        Cn4 
	BYTE	W24
	BYTE		        Dn4 
	BYTE	W24
	BYTE		        Cn4 
	BYTE	W24
// 021   ----------------------------------------
	BYTE		N48     Bn3 
	BYTE	W48
	BYTE		        An3 
	BYTE	W06
	BYTE		N24     Cs2   v044
	BYTE	W42
// 022   ----------------------------------------
	BYTE		        Gn3   v076
	BYTE	W24
	BYTE		        Bn3 
	BYTE	W24
	BYTE		        An3 
	BYTE	W24
	BYTE		        Bn3 
	BYTE	W24
// 023   ----------------------------------------
	BYTE		        Cn4 
	BYTE	W24
	BYTE		        Bn3 
	BYTE	W24
	BYTE		        An3 
	BYTE	W24
	BYTE		        Gn3 
	BYTE	W24
// 024   ----------------------------------------
	BYTE		N48     Fs3 
	BYTE	W48
	BYTE		        An3 
	BYTE	W48
// 025   ----------------------------------------
	BYTE		        Gn3 
	BYTE	W48
	BYTE		        En3 
	BYTE	W48
// 026   ----------------------------------------
	BYTE		TIE     Ds3 
	BYTE	W48
	BYTE		        Fs3   v088
	BYTE	W48
// 027   ----------------------------------------
	BYTE		N90     An3   v100
	BYTE	W48
	BYTE		N42     Cn4   v112
	BYTE	W42
	BYTE		EOT     Ds3 
	BYTE		        Fs3 
	BYTE	W06
// 028   ----------------------------------------
	BYTE		N42     En3   v127
	BYTE		N42     Gn3 
	BYTE		N42     Bn3 
	BYTE		N42     Dn4 
	BYTE		N42     En4 
	BYTE	W48
	BYTE		N20     Bn2 
	BYTE		N20     En3 
	BYTE		N20     Gn3 
	BYTE		N20     An3 
	BYTE		N20     Bn3 
	BYTE	W24
	BYTE		N66     En3 
	BYTE		N66     Gn3 
	BYTE		N66     An3 
	BYTE		N66     Cn4 
	BYTE	W24
// 029   ----------------------------------------
	BYTE	W48
	BYTE		N42     Bn3 
	BYTE		N42     En4 
	BYTE		N42     Fs4 
	BYTE		N42     Gn4 
	BYTE	W48
// 030   ----------------------------------------
	BYTE		N20     Gn3 
	BYTE		N20     An3 
	BYTE		N20     Bn3 
	BYTE		N20     Dn4 
	BYTE		N20     En4 
	BYTE	W24
	BYTE		N66     An3 
	BYTE		N66     Cn4 
	BYTE		N66     Dn4 
	BYTE		N66     Fs4 
	BYTE	W72
// 031   ----------------------------------------
	BYTE		N20     En4 
	BYTE		N20     An4 
	BYTE		N20     Cn5 
	BYTE	W24
	BYTE		N06     Ds4 
	BYTE		N06     Fs4 
	BYTE		N06     Bn4 
	BYTE	W24
	BYTE		N20     En4 
	BYTE		N20     An4 
	BYTE		N20     Cn5 
	BYTE	W24
	BYTE		N06     Ds4 
	BYTE		N06     Fs4 
	BYTE		N06     Bn4 
	BYTE	W24
// 032   ----------------------------------------
	BYTE		N20     En4 
	BYTE		N20     An4 
	BYTE		N20     Cn5 
	BYTE	W24
	BYTE		N06     Ds4 
	BYTE		N06     Fs4 
	BYTE		N06     Bn4 
	BYTE	W24
	BYTE		TIE     Cs4 
	BYTE		TIE     En4 
	BYTE		TIE     Gn4 
	BYTE		TIE     An4 
	BYTE	W48
// 033   ----------------------------------------
	BYTE	W90
	BYTE		EOT     Cs4 
	BYTE		        En4 
	BYTE		        Gn4 
	BYTE		        An4 
	BYTE	W06
// 034   ----------------------------------------
	BYTE	W18
	BYTE	GoTo
	 POIN2	AwakeningSong_3_B1
AwakeningSong_3_B2:
	BYTE	FINE

//**************** Track 4 (Midi-Chn.4) ****************//

AwakeningSong_4:
	BYTE	KEYSH   AwakeningSong_key+0
AwakeningSong_4_B1:
// 000   ----------------------------------------
	BYTE		VOICE   127
	BYTE		MODT    0
	BYTE		LFOS    44
	BYTE		VOL     127*AwakeningSong_mvl/mxv
	BYTE		PAN     c_v+0
	BYTE	W96
// 001   ----------------------------------------
	BYTE	W96
// 002   ----------------------------------------
	BYTE	W96
// 003   ----------------------------------------
	BYTE	W96
// 004   ----------------------------------------
	BYTE	W96
// 005   ----------------------------------------
	BYTE	W96
// 006   ----------------------------------------
	BYTE	W96
// 007   ----------------------------------------
	BYTE	W96
// 008   ----------------------------------------
	BYTE	W96
// 009   ----------------------------------------
	BYTE		N02     Bn0   v004
	BYTE		N02     Cn1 
	BYTE		N02     Dn1 
	BYTE		N02     En1 
	BYTE	W03
	BYTE		        Bn0 
	BYTE		N02     Cn1 
	BYTE		N02     Dn1 
	BYTE		N02     En1 
	BYTE	W03
	BYTE		        Bn0 
	BYTE		N02     Cn1 
	BYTE		N02     Dn1 
	BYTE		N02     En1 
	BYTE	W03
	BYTE		        Bn0 
	BYTE		N02     Cn1 
	BYTE		N02     Dn1 
	BYTE		N02     En1 
	BYTE	W03
	BYTE		        Bn0   v008
	BYTE		N02     Cn1 
	BYTE		N02     Dn1 
	BYTE		N02     En1 
	BYTE	W03
	BYTE		        Bn0 
	BYTE		N02     Cn1 
	BYTE		N02     Dn1 
	BYTE		N02     En1 
	BYTE	W03
	BYTE		        Bn0 
	BYTE		N02     Cn1 
	BYTE		N02     Dn1 
	BYTE		N02     En1 
	BYTE	W03
	BYTE		        Bn0 
	BYTE		N02     Cn1 
	BYTE		N02     Dn1 
	BYTE		N02     En1 
	BYTE	W03
	BYTE		        Bn0   v012
	BYTE		N02     Cn1 
	BYTE		N02     Dn1 
	BYTE		N02     En1 
	BYTE	W03
	BYTE		        Bn0 
	BYTE		N02     Cn1 
	BYTE		N02     Dn1 
	BYTE		N02     En1 
	BYTE	W03
	BYTE		        Bn0 
	BYTE		N02     Cn1 
	BYTE		N02     Dn1 
	BYTE		N02     En1 
	BYTE	W03
	BYTE		        Bn0   v016
	BYTE		N02     Cn1 
	BYTE		N02     Dn1 
	BYTE		N02     En1 
	BYTE	W03
	BYTE		        Bn0 
	BYTE		N02     Cn1 
	BYTE		N02     Dn1 
	BYTE		N02     En1 
	BYTE	W03
	BYTE		        Bn0 
	BYTE		N02     Cn1 
	BYTE		N02     Dn1 
	BYTE		N02     En1 
	BYTE	W03
	BYTE		        Bn0   v020
	BYTE		N02     Cn1 
	BYTE		N02     Dn1 
	BYTE		N02     En1 
	BYTE	W03
	BYTE		        Bn0 
	BYTE		N02     Cn1 
	BYTE		N02     Dn1 
	BYTE		N02     En1 
	BYTE	W03
	BYTE		        Bn0   v024
	BYTE		N02     Cn1 
	BYTE		N02     Dn1 
	BYTE		N02     En1 
	BYTE	W03
	BYTE		        Bn0 
	BYTE		N02     Cn1 
	BYTE		N02     Dn1 
	BYTE		N02     En1 
	BYTE	W03
	BYTE		        Bn0   v028
	BYTE		N02     Cn1 
	BYTE		N02     Dn1 
	BYTE		N02     En1 
	BYTE	W03
	BYTE		        Bn0   v032
	BYTE		N02     Cn1 
	BYTE		N02     Dn1 
	BYTE		N02     En1 
	BYTE	W03
	BYTE		        Bn0 
	BYTE		N02     Cn1 
	BYTE		N02     Dn1 
	BYTE		N02     En1 
	BYTE	W03
	BYTE		        Bn0   v036
	BYTE		N02     Cn1 
	BYTE		N02     Dn1 
	BYTE		N02     En1 
	BYTE	W03
	BYTE		        Bn0   v040
	BYTE		N02     Cn1 
	BYTE		N02     Dn1 
	BYTE		N02     En1 
	BYTE	W03
	BYTE		        Bn0   v044
	BYTE		N02     Cn1 
	BYTE		N02     Dn1 
	BYTE		N02     En1 
	BYTE	W03
	BYTE		        Bn0   v048
	BYTE		N02     Cn1 
	BYTE		N02     Dn1 
	BYTE		N02     En1 
	BYTE	W03
	BYTE		        Bn0 
	BYTE		N02     Cn1 
	BYTE		N02     Dn1 
	BYTE		N02     En1 
	BYTE	W03
	BYTE		        Bn0   v052
	BYTE		N02     Cn1 
	BYTE		N02     Dn1 
	BYTE		N02     En1 
	BYTE	W03
	BYTE		        Bn0   v056
	BYTE		N02     Cn1 
	BYTE		N02     Dn1 
	BYTE		N02     En1 
	BYTE	W03
	BYTE		        Bn0   v060
	BYTE		N02     Cn1 
	BYTE		N02     Dn1 
	BYTE		N02     En1 
	BYTE	W03
	BYTE		        Bn0   v064
	BYTE		N02     Cn1 
	BYTE		N02     Dn1 
	BYTE		N02     En1 
	BYTE	W03
	BYTE		        Bn0   v068
	BYTE		N02     Cn1 
	BYTE		N02     Dn1 
	BYTE		N02     En1 
	BYTE	W03
	BYTE		        Bn0   v072
	BYTE		N02     Cn1 
	BYTE		N02     Dn1 
	BYTE		N02     En1 
	BYTE	W03
// 010   ----------------------------------------
	BYTE		N04     En1   v076
	BYTE		N66     An2 
	BYTE	W12
	BYTE		N04     En1 
	BYTE	W12
	BYTE		N04   
	BYTE	W12
	BYTE		N02   
	BYTE	W04
	BYTE		N02   
	BYTE	W04
	BYTE		N02   
	BYTE	W04
	BYTE		N04   
	BYTE	W12
	BYTE		N04   
	BYTE	W12
	BYTE		N04   
	BYTE		N20     An2 
	BYTE	W12
	BYTE		N02     En1 
	BYTE	W04
	BYTE		N02   
	BYTE	W04
	BYTE		N02   
	BYTE	W04
// 011   ----------------------------------------
AwakeningSong_4_011:
	BYTE		N04     En1   v076
	BYTE	W12
	BYTE		N04   
	BYTE	W12
	BYTE		N04   
	BYTE	W12
	BYTE		N02   
	BYTE	W04
	BYTE		N02   
	BYTE	W04
	BYTE		N02   
	BYTE	W04
	BYTE		N04   
	BYTE		N42     An2 
	BYTE	W12
	BYTE		N04     En1 
	BYTE	W12
	BYTE		N04   
	BYTE	W12
	BYTE		N02   
	BYTE	W04
	BYTE		N02   
	BYTE	W04
	BYTE		N02   
	BYTE	W04
	BYTE	PEND
// 012   ----------------------------------------
	BYTE	PATT
	 POIN2	AwakeningSong_4_011
// 013   ----------------------------------------
	BYTE	PATT
	 POIN2	AwakeningSong_4_011
// 014   ----------------------------------------
	BYTE	PATT
	 POIN2	AwakeningSong_4_011
// 015   ----------------------------------------
	BYTE		N04     En1   v076
	BYTE	W12
	BYTE		N04   
	BYTE	W12
	BYTE		N04   
	BYTE		N66     An2 
	BYTE	W12
	BYTE		N02     En1 
	BYTE	W04
	BYTE		N02   
	BYTE	W04
	BYTE		N02   
	BYTE	W04
	BYTE		N04   
	BYTE	W12
	BYTE		N04   
	BYTE	W12
	BYTE		N04   
	BYTE	W12
	BYTE		N02   
	BYTE	W04
	BYTE		N02   
	BYTE	W04
	BYTE		N02   
	BYTE	W04
// 016   ----------------------------------------
	BYTE		N04   
	BYTE		N42     An2 
	BYTE	W12
	BYTE		N04     En1   v080
	BYTE	W12
	BYTE		N04   
	BYTE	W12
	BYTE		N02     En1   v084
	BYTE	W04
	BYTE		N02   
	BYTE	W04
	BYTE		N02   
	BYTE	W04
	BYTE		N04   
	BYTE		N42     An2 
	BYTE	W12
	BYTE		N04     En1   v088
	BYTE	W12
	BYTE		N04   
	BYTE	W12
	BYTE		N02     En1   v092
	BYTE	W04
	BYTE		N02   
	BYTE	W04
	BYTE		N02   
	BYTE	W04
// 017   ----------------------------------------
	BYTE		N04   
	BYTE		N42     An2 
	BYTE	W12
	BYTE		N04     En1   v096
	BYTE	W12
	BYTE		        En1   v100
	BYTE	W12
	BYTE		N02     En1   v104
	BYTE	W04
	BYTE		        En1   v108
	BYTE	W04
	BYTE		N02   
	BYTE	W04
	BYTE		N04   
	BYTE		N42     An2 
	BYTE	W12
	BYTE		N04     En1   v112
	BYTE	W12
	BYTE		N02     Bn0   v120
	BYTE		N02     Cn1 
	BYTE		N02     Dn1 
	BYTE		N02     En1 
	BYTE	W03
	BYTE		        Bn0 
	BYTE		N02     Cn1 
	BYTE		N02     Dn1 
	BYTE		N02     En1 
	BYTE	W03
	BYTE		        Bn0 
	BYTE		N02     Cn1 
	BYTE		N02     Dn1 
	BYTE		N02     En1 
	BYTE	W03
	BYTE		        Bn0 
	BYTE		N02     Cn1 
	BYTE		N02     Dn1 
	BYTE		N02     En1 
	BYTE	W03
	BYTE		        Bn0 
	BYTE		N02     Cn1 
	BYTE		N02     Dn1 
	BYTE		N02     En1 
	BYTE	W03
	BYTE		        Bn0   v124
	BYTE		N02     Cn1 
	BYTE		N02     Dn1 
	BYTE		N02     En1 
	BYTE	W03
	BYTE		        Bn0 
	BYTE		N02     Cn1 
	BYTE		N02     Dn1 
	BYTE		N02     En1 
	BYTE	W03
	BYTE		        Bn0   v127
	BYTE		N02     Cn1 
	BYTE		N02     Dn1 
	BYTE		N02     En1 
	BYTE	W03
// 018   ----------------------------------------
	BYTE		N11   
	BYTE		N90     An1 
	BYTE		N90     Bn1 
	BYTE		N90     Cn2 
	BYTE		N90     Dn2 
	BYTE		N90     An2 
	BYTE	W12
	BYTE		N04     En1   v076
	BYTE	W12
	BYTE		N04   
	BYTE	W12
	BYTE		N02   
	BYTE	W04
	BYTE		N02   
	BYTE	W04
	BYTE		N02   
	BYTE	W04
	BYTE		N04   
	BYTE	W12
	BYTE		N04   
	BYTE	W12
	BYTE		N04   
	BYTE	W12
	BYTE		N02   
	BYTE	W04
	BYTE		N02   
	BYTE	W04
	BYTE		N02   
	BYTE	W04
// 019   ----------------------------------------
AwakeningSong_4_019:
	BYTE		N04     En1   v076
	BYTE	W12
	BYTE		N04   
	BYTE	W12
	BYTE		N04   
	BYTE	W12
	BYTE		N02   
	BYTE	W04
	BYTE		N02   
	BYTE	W04
	BYTE		N02   
	BYTE	W04
	BYTE		N04   
	BYTE	W12
	BYTE		N04   
	BYTE	W12
	BYTE		N04   
	BYTE	W12
	BYTE		N02   
	BYTE	W04
	BYTE		N02   
	BYTE	W04
	BYTE		N02   
	BYTE	W04
	BYTE	PEND
// 020   ----------------------------------------
	BYTE	PATT
	 POIN2	AwakeningSong_4_019
// 021   ----------------------------------------
	BYTE	PATT
	 POIN2	AwakeningSong_4_019
// 022   ----------------------------------------
	BYTE	PATT
	 POIN2	AwakeningSong_4_019
// 023   ----------------------------------------
	BYTE	PATT
	 POIN2	AwakeningSong_4_019
// 024   ----------------------------------------
	BYTE	PATT
	 POIN2	AwakeningSong_4_019
// 025   ----------------------------------------
	BYTE	PATT
	 POIN2	AwakeningSong_4_019
// 026   ----------------------------------------
	BYTE		N04     En1   v076
	BYTE	W12
	BYTE		        En1   v080
	BYTE	W12
	BYTE		N04   
	BYTE	W12
	BYTE		N02     En1   v084
	BYTE	W04
	BYTE		N02   
	BYTE	W04
	BYTE		N02   
	BYTE	W04
	BYTE		N04   
	BYTE	W12
	BYTE		        En1   v088
	BYTE	W12
	BYTE		N04   
	BYTE	W12
	BYTE		N02     En1   v092
	BYTE	W04
	BYTE		N02   
	BYTE	W04
	BYTE		N02   
	BYTE	W04
// 027   ----------------------------------------
	BYTE		N04   
	BYTE	W12
	BYTE		        En1   v096
	BYTE	W12
	BYTE		        En1   v100
	BYTE	W12
	BYTE		N02     En1   v104
	BYTE	W04
	BYTE		        En1   v108
	BYTE	W04
	BYTE		N02   
	BYTE	W04
	BYTE		N04   
	BYTE	W12
	BYTE		        En1   v112
	BYTE	W12
	BYTE		N02     Bn0   v120
	BYTE		N02     Cn1 
	BYTE		N02     Dn1 
	BYTE		N02     En1 
	BYTE	W03
	BYTE		        Bn0 
	BYTE		N02     Cn1 
	BYTE		N02     Dn1 
	BYTE		N02     En1 
	BYTE	W03
	BYTE		        Bn0 
	BYTE		N02     Cn1 
	BYTE		N02     Dn1 
	BYTE		N02     En1 
	BYTE	W03
	BYTE		        Bn0 
	BYTE		N02     Cn1 
	BYTE		N02     Dn1 
	BYTE		N02     En1 
	BYTE	W03
	BYTE		        Bn0 
	BYTE		N02     Cn1 
	BYTE		N02     Dn1 
	BYTE		N02     En1 
	BYTE	W03
	BYTE		        Bn0   v124
	BYTE		N02     Cn1 
	BYTE		N02     Dn1 
	BYTE		N02     En1 
	BYTE	W03
	BYTE		        Bn0 
	BYTE		N02     Cn1 
	BYTE		N02     Dn1 
	BYTE		N02     En1 
	BYTE	W03
	BYTE		        Bn0   v127
	BYTE		N02     Cn1 
	BYTE		N02     Dn1 
	BYTE		N02     En1 
	BYTE	W03
// 028   ----------------------------------------
	BYTE		N04   
	BYTE		N66     An2 
	BYTE	W12
	BYTE		N04     En1 
	BYTE	W12
	BYTE		N04   
	BYTE	W12
	BYTE		N02   
	BYTE	W04
	BYTE		N02   
	BYTE	W04
	BYTE		N02   
	BYTE	W04
	BYTE		N04   
	BYTE	W12
	BYTE		N04   
	BYTE	W12
	BYTE		N04   
	BYTE		N20     An2 
	BYTE	W12
	BYTE		N02     En1 
	BYTE	W04
	BYTE		N02   
	BYTE	W04
	BYTE		N02   
	BYTE	W04
// 029   ----------------------------------------
	BYTE		N04   
	BYTE	W12
	BYTE		N04   
	BYTE	W12
	BYTE		N04   
	BYTE	W12
	BYTE		N02   
	BYTE	W04
	BYTE		N02   
	BYTE	W04
	BYTE		N02   
	BYTE	W04
	BYTE		N04   
	BYTE		N42     An2 
	BYTE	W12
	BYTE		N04     En1 
	BYTE	W12
	BYTE		N04   
	BYTE	W12
	BYTE		N02   
	BYTE	W04
	BYTE		N02   
	BYTE	W04
	BYTE		N02   
	BYTE	W04
// 030   ----------------------------------------
	BYTE		N04   
	BYTE	W12
	BYTE		N04   
	BYTE	W12
	BYTE		N04   
	BYTE		N66     An2 
	BYTE	W12
	BYTE		N02     En1 
	BYTE	W04
	BYTE		N02   
	BYTE	W04
	BYTE		N02   
	BYTE	W04
	BYTE		N04   
	BYTE	W12
	BYTE		N04   
	BYTE	W12
	BYTE		N04   
	BYTE	W12
	BYTE		N02   
	BYTE	W04
	BYTE		N02   
	BYTE	W04
	BYTE		N02   
	BYTE	W04
// 031   ----------------------------------------
	BYTE		N04   
	BYTE		N20     An2 
	BYTE	W12
	BYTE		N04     En1 
	BYTE	W12
	BYTE		N04   
	BYTE		N20     An2 
	BYTE	W12
	BYTE		N02     En1 
	BYTE	W04
	BYTE		N02   
	BYTE	W04
	BYTE		N02   
	BYTE	W04
	BYTE		N04   
	BYTE		N20     An2 
	BYTE	W12
	BYTE		N04     En1 
	BYTE	W12
	BYTE		N04   
	BYTE		N20     An2 
	BYTE	W12
	BYTE		N02     En1 
	BYTE	W04
	BYTE		N02   
	BYTE	W04
	BYTE		N02   
	BYTE	W04
// 032   ----------------------------------------
	BYTE		N02   
	BYTE		N02     An2 
	BYTE	W04
	BYTE		        En1 
	BYTE	W04
	BYTE		N02   
	BYTE	W04
	BYTE		N02   
	BYTE	W04
	BYTE		N02   
	BYTE	W04
	BYTE		N02   
	BYTE	W04
	BYTE		N02   
	BYTE		N02     An2 
	BYTE	W04
	BYTE		        En1 
	BYTE	W04
	BYTE		N02   
	BYTE	W04
	BYTE		N02   
	BYTE	W04
	BYTE		N02   
	BYTE	W04
	BYTE		N02   
	BYTE	W04
	BYTE		TIE     Bn0 
	BYTE		TIE     Cn1 
	BYTE		TIE     An1 
	BYTE		TIE     Bn1 
	BYTE		TIE     Cn2 
	BYTE		TIE     Dn2 
	BYTE		TIE     An2 
	BYTE	W48
// 033   ----------------------------------------
	BYTE	W90
	BYTE		EOT     Bn0 
	BYTE		        Cn1 
	BYTE		        An1 
	BYTE		        Bn1 
	BYTE		        Cn2 
	BYTE		        Dn2 
	BYTE		        An2 
	BYTE	W06
// 034   ----------------------------------------
	BYTE	W18
	BYTE	GoTo
	 POIN2	AwakeningSong_4_B1
AwakeningSong_4_B2:
	BYTE	FINE

//**************** Track 5 (Midi-Chn.5) ****************//

AwakeningSong_5:
	BYTE	KEYSH   AwakeningSong_key+0
AwakeningSong_5_B1:
// 000   ----------------------------------------
	BYTE		VOICE   48
	BYTE		MODT    0
	BYTE		LFOS    44
	BYTE		VOL     127*AwakeningSong_mvl/mxv
	BYTE		PAN     c_v+0
	BYTE		N04     En1   v076
	BYTE	W12
	BYTE		N04   
	BYTE	W12
	BYTE		N04   
	BYTE	W12
	BYTE		N02   
	BYTE	W04
	BYTE		N02   
	BYTE	W04
	BYTE		N02   
	BYTE	W04
	BYTE		N04   
	BYTE	W12
	BYTE		N04   
	BYTE	W12
	BYTE		N04   
	BYTE	W12
	BYTE		N02   
	BYTE	W04
	BYTE		N02   
	BYTE	W04
	BYTE		N02   
	BYTE	W04
// 001   ----------------------------------------
AwakeningSong_5_001:
	BYTE		N04     En1   v076
	BYTE	W12
	BYTE		N04   
	BYTE	W12
	BYTE		N04   
	BYTE	W12
	BYTE		N02   
	BYTE	W04
	BYTE		N02   
	BYTE	W04
	BYTE		N02   
	BYTE	W04
	BYTE		N04   
	BYTE	W12
	BYTE		N04   
	BYTE	W12
	BYTE		N04   
	BYTE	W12
	BYTE		N02   
	BYTE	W04
	BYTE		N02   
	BYTE	W04
	BYTE		N02   
	BYTE	W04
	BYTE	PEND
// 002   ----------------------------------------
	BYTE	PATT
	 POIN2	AwakeningSong_5_001
// 003   ----------------------------------------
	BYTE	PATT
	 POIN2	AwakeningSong_5_001
// 004   ----------------------------------------
	BYTE	PATT
	 POIN2	AwakeningSong_5_001
// 005   ----------------------------------------
	BYTE	PATT
	 POIN2	AwakeningSong_5_001
// 006   ----------------------------------------
	BYTE	PATT
	 POIN2	AwakeningSong_5_001
// 007   ----------------------------------------
	BYTE	PATT
	 POIN2	AwakeningSong_5_001
// 008   ----------------------------------------
	BYTE	PATT
	 POIN2	AwakeningSong_5_001
// 009   ----------------------------------------
	BYTE	PATT
	 POIN2	AwakeningSong_5_001
// 010   ----------------------------------------
	BYTE	PATT
	 POIN2	AwakeningSong_5_001
// 011   ----------------------------------------
	BYTE	PATT
	 POIN2	AwakeningSong_5_001
// 012   ----------------------------------------
	BYTE	PATT
	 POIN2	AwakeningSong_5_001
// 013   ----------------------------------------
	BYTE	PATT
	 POIN2	AwakeningSong_5_001
// 014   ----------------------------------------
	BYTE	PATT
	 POIN2	AwakeningSong_5_001
// 015   ----------------------------------------
	BYTE	PATT
	 POIN2	AwakeningSong_5_001
// 016   ----------------------------------------
	BYTE		N04     En1   v076
	BYTE	W12
	BYTE		        En1   v080
	BYTE	W12
	BYTE		N04   
	BYTE	W12
	BYTE		N02     En1   v084
	BYTE	W04
	BYTE		N02   
	BYTE	W04
	BYTE		N02   
	BYTE	W04
	BYTE		N04   
	BYTE	W12
	BYTE		        En1   v088
	BYTE	W12
	BYTE		N04   
	BYTE	W12
	BYTE		N02     En1   v092
	BYTE	W04
	BYTE		N02   
	BYTE	W04
	BYTE		N02   
	BYTE	W04
// 017   ----------------------------------------
	BYTE		N04   
	BYTE	W12
	BYTE		        En1   v096
	BYTE	W12
	BYTE		        En1   v100
	BYTE	W12
	BYTE		N02     En1   v104
	BYTE	W04
	BYTE		        En1   v108
	BYTE	W04
	BYTE		N02   
	BYTE	W04
	BYTE		N04   
	BYTE	W12
	BYTE		        En1   v112
	BYTE	W12
	BYTE		        En1   v120
	BYTE	W12
	BYTE		N02     En1   v124
	BYTE	W04
	BYTE		N02   
	BYTE	W04
	BYTE		        En1   v127
	BYTE	W04
// 018   ----------------------------------------
AwakeningSong_5_018:
	BYTE		N96     Bn1   v076
	BYTE		TIE     En2 
	BYTE		TIE     Gn2 
	BYTE	W96
	BYTE	PEND
// 019   ----------------------------------------
	BYTE		N96     Cn2 
	BYTE	W96
	BYTE		EOT     En2 
// 020   ----------------------------------------
	BYTE		TIE     Bn1 
	BYTE		TIE     Dn2 
	BYTE	W96
	BYTE		EOT     Gn2 
// 021   ----------------------------------------
	BYTE		N90     Fs2 
	BYTE	W48
	BYTE		EOT     Bn1 
	BYTE		N48     An1 
	BYTE	W42
	BYTE		EOT     Dn2 
	BYTE	W06
// 022   ----------------------------------------
	BYTE	PATT
	 POIN2	AwakeningSong_5_018
// 023   ----------------------------------------
	BYTE		N96     Cn2   v076
	BYTE	W96
	BYTE		EOT     En2 
	BYTE		        Gn2 
// 024   ----------------------------------------
	BYTE		N96     An1 
	BYTE		N96     Dn2 
	BYTE		N96     Fs2 
	BYTE	W96
// 025   ----------------------------------------
	BYTE		N90     Cn2 
	BYTE		N90     En2 
	BYTE		N90     Gn2 
	BYTE	W96
// 026   ----------------------------------------
	BYTE		TIE     Fs2 
	BYTE	W48
	BYTE		        Dn2   v088
	BYTE	W48
// 027   ----------------------------------------
	BYTE		N90     Bn1   v100
	BYTE	W48
	BYTE		N42     An1   v112
	BYTE	W42
	BYTE		EOT     Dn2 
	BYTE		        Fs2 
	BYTE	W06
// 028   ----------------------------------------
AwakeningSong_5_028:
	BYTE		N04     En1   v127
	BYTE	W12
	BYTE		N04   
	BYTE	W12
	BYTE		N04   
	BYTE	W12
	BYTE		N02   
	BYTE	W04
	BYTE		N02   
	BYTE	W04
	BYTE		N02   
	BYTE	W04
	BYTE		N04   
	BYTE	W12
	BYTE		N04   
	BYTE	W12
	BYTE		N04   
	BYTE	W12
	BYTE		N02   
	BYTE	W04
	BYTE		N02   
	BYTE	W04
	BYTE		N02   
	BYTE	W04
	BYTE	PEND
// 029   ----------------------------------------
	BYTE	PATT
	 POIN2	AwakeningSong_5_028
// 030   ----------------------------------------
	BYTE	PATT
	 POIN2	AwakeningSong_5_028
// 031   ----------------------------------------
	BYTE	PATT
	 POIN2	AwakeningSong_5_028
// 032   ----------------------------------------
	BYTE		N02     En1   v127
	BYTE	W04
	BYTE		N02   
	BYTE	W04
	BYTE		N02   
	BYTE	W04
	BYTE		N02   
	BYTE	W04
	BYTE		N02   
	BYTE	W04
	BYTE		N02   
	BYTE	W04
	BYTE		N02   
	BYTE	W04
	BYTE		N02   
	BYTE	W04
	BYTE		N02   
	BYTE	W04
	BYTE		N02   
	BYTE	W04
	BYTE		N02   
	BYTE	W04
	BYTE		N02   
	BYTE	W04
	BYTE		TIE   
	BYTE	W48
// 033   ----------------------------------------
	BYTE	W90
	BYTE		EOT   
	BYTE	W06
// 034   ----------------------------------------
	BYTE	W18
	BYTE	GoTo
	 POIN2	AwakeningSong_5_B1
AwakeningSong_5_B2:
	BYTE	FINE

//**************** Track 6 (Midi-Chn.6) ****************//

AwakeningSong_6:
	BYTE	KEYSH   AwakeningSong_key+0
AwakeningSong_6_B1:
// 000   ----------------------------------------
	BYTE		VOICE   46
	BYTE		MODT    0
	BYTE		LFOS    44
	BYTE		VOL     127*AwakeningSong_mvl/mxv
	BYTE		PAN     c_v+0
	BYTE	W96
// 001   ----------------------------------------
	BYTE	W96
// 002   ----------------------------------------
	BYTE	W96
// 003   ----------------------------------------
	BYTE	W96
// 004   ----------------------------------------
	BYTE	W96
// 005   ----------------------------------------
	BYTE	W96
// 006   ----------------------------------------
	BYTE	W96
// 007   ----------------------------------------
	BYTE	W96
// 008   ----------------------------------------
	BYTE	W96
// 009   ----------------------------------------
	BYTE	W96
// 010   ----------------------------------------
	BYTE	W96
// 011   ----------------------------------------
	BYTE	W96
// 012   ----------------------------------------
	BYTE	W96
// 013   ----------------------------------------
	BYTE	W96
// 014   ----------------------------------------
	BYTE	W96
// 015   ----------------------------------------
	BYTE	W96
// 016   ----------------------------------------
	BYTE	W96
// 017   ----------------------------------------
	BYTE	W96
// 018   ----------------------------------------
AwakeningSong_6_018:
	BYTE		PAN     c_v-63
	BYTE		N06     Gn3   v056
	BYTE	W01
	BYTE		PAN     c_v-62
	BYTE	W01
	BYTE		        c_v-61
	BYTE	W01
	BYTE		        c_v-59
	BYTE	W01
	BYTE		        c_v-58
	BYTE	W01
	BYTE		        c_v-57
	BYTE	W01
	BYTE		        c_v-55
	BYTE		N06     Fs3 
	BYTE	W01
	BYTE		PAN     c_v-54
	BYTE	W01
	BYTE		        c_v-53
	BYTE	W01
	BYTE		        c_v-51
	BYTE	W01
	BYTE		        c_v-50
	BYTE	W01
	BYTE		        c_v-49
	BYTE	W01
	BYTE		        c_v-47
	BYTE		N06     En3 
	BYTE	W01
	BYTE		PAN     c_v-46
	BYTE	W01
	BYTE		        c_v-45
	BYTE	W01
	BYTE		        c_v-43
	BYTE	W01
	BYTE		        c_v-42
	BYTE	W01
	BYTE		        c_v-41
	BYTE	W01
	BYTE		        c_v-39
	BYTE		N06     Gn3 
	BYTE	W01
	BYTE		PAN     c_v-38
	BYTE	W01
	BYTE		        c_v-37
	BYTE	W01
	BYTE		        c_v-35
	BYTE	W01
	BYTE		        c_v-34
	BYTE	W01
	BYTE		        c_v-33
	BYTE	W01
	BYTE		        c_v-31
	BYTE		N06     Bn3 
	BYTE	W01
	BYTE		PAN     c_v-30
	BYTE	W01
	BYTE		        c_v-29
	BYTE	W01
	BYTE		        c_v-27
	BYTE	W01
	BYTE		        c_v-26
	BYTE	W01
	BYTE		        c_v-25
	BYTE	W01
	BYTE		        c_v-23
	BYTE		N06     An3 
	BYTE	W01
	BYTE		PAN     c_v-22
	BYTE	W01
	BYTE		        c_v-21
	BYTE	W01
	BYTE		        c_v-20
	BYTE	W01
	BYTE		        c_v-18
	BYTE	W01
	BYTE		        c_v-17
	BYTE	W01
	BYTE		        c_v-16
	BYTE		N06     Gn3 
	BYTE	W01
	BYTE		PAN     c_v-14
	BYTE	W01
	BYTE		        c_v-13
	BYTE	W01
	BYTE		        c_v-12
	BYTE	W01
	BYTE		        c_v-10
	BYTE	W01
	BYTE		        c_v-9
	BYTE	W01
	BYTE		        c_v-8
	BYTE		N06     En3 
	BYTE	W01
	BYTE		PAN     c_v-6
	BYTE	W01
	BYTE		        c_v-5
	BYTE	W01
	BYTE		        c_v-4
	BYTE	W01
	BYTE		        c_v-2
	BYTE	W01
	BYTE		        c_v-1
	BYTE	W01
	BYTE		        c_v+0
	BYTE		N06     Gn3 
	BYTE	W01
	BYTE		PAN     c_v+2
	BYTE	W01
	BYTE		        c_v+3
	BYTE	W01
	BYTE		        c_v+4
	BYTE	W01
	BYTE		        c_v+6
	BYTE	W01
	BYTE		        c_v+7
	BYTE	W01
	BYTE		        c_v+8
	BYTE		N06     Fs3 
	BYTE	W01
	BYTE		PAN     c_v+10
	BYTE	W01
	BYTE		        c_v+11
	BYTE	W01
	BYTE		        c_v+12
	BYTE	W01
	BYTE		        c_v+14
	BYTE	W01
	BYTE		        c_v+15
	BYTE	W01
	BYTE		        c_v+16
	BYTE		N06     En3 
	BYTE	W01
	BYTE		PAN     c_v+18
	BYTE	W01
	BYTE		        c_v+19
	BYTE	W01
	BYTE		        c_v+20
	BYTE	W01
	BYTE		        c_v+21
	BYTE	W01
	BYTE		        c_v+23
	BYTE	W01
	BYTE		        c_v+24
	BYTE		N06     Gn3 
	BYTE	W01
	BYTE		PAN     c_v+25
	BYTE	W01
	BYTE		        c_v+27
	BYTE	W01
	BYTE		        c_v+28
	BYTE	W01
	BYTE		        c_v+29
	BYTE	W01
	BYTE		        c_v+31
	BYTE	W01
	BYTE		        c_v+32
	BYTE		N06     Bn3 
	BYTE	W01
	BYTE		PAN     c_v+33
	BYTE	W01
	BYTE		        c_v+35
	BYTE	W01
	BYTE		        c_v+36
	BYTE	W01
	BYTE		        c_v+37
	BYTE	W01
	BYTE		        c_v+39
	BYTE	W01
	BYTE		        c_v+40
	BYTE		N06     An3 
	BYTE	W01
	BYTE		PAN     c_v+41
	BYTE	W01
	BYTE		        c_v+43
	BYTE	W01
	BYTE		        c_v+44
	BYTE	W01
	BYTE		        c_v+45
	BYTE	W01
	BYTE		        c_v+47
	BYTE	W01
	BYTE		        c_v+48
	BYTE		N06     Gn3 
	BYTE	W01
	BYTE		PAN     c_v+49
	BYTE	W01
	BYTE		        c_v+51
	BYTE	W01
	BYTE		        c_v+52
	BYTE	W01
	BYTE		        c_v+53
	BYTE	W01
	BYTE		        c_v+55
	BYTE	W01
	BYTE		        c_v+56
	BYTE		N06     En3 
	BYTE	W01
	BYTE		PAN     c_v+57
	BYTE	W01
	BYTE		        c_v+59
	BYTE	W01
	BYTE		        c_v+60
	BYTE	W01
	BYTE		        c_v+61
	BYTE	W01
	BYTE		        c_v+62
	BYTE	W01
	BYTE	PEND
// 019   ----------------------------------------
AwakeningSong_6_019:
	BYTE		PAN     c_v+62
	BYTE		N06     Cn3   v056
	BYTE	W01
	BYTE		PAN     c_v+61
	BYTE	W01
	BYTE		        c_v+60
	BYTE	W01
	BYTE		        c_v+58
	BYTE	W01
	BYTE		        c_v+57
	BYTE	W01
	BYTE		        c_v+56
	BYTE	W01
	BYTE		        c_v+54
	BYTE		N06     Dn3 
	BYTE	W01
	BYTE		PAN     c_v+53
	BYTE	W01
	BYTE		        c_v+52
	BYTE	W01
	BYTE		        c_v+50
	BYTE	W01
	BYTE		        c_v+49
	BYTE	W01
	BYTE		        c_v+48
	BYTE	W01
	BYTE		        c_v+46
	BYTE		N06     En3 
	BYTE	W01
	BYTE		PAN     c_v+45
	BYTE	W01
	BYTE		        c_v+44
	BYTE	W01
	BYTE		        c_v+42
	BYTE	W01
	BYTE		        c_v+41
	BYTE	W01
	BYTE		        c_v+40
	BYTE	W01
	BYTE		        c_v+38
	BYTE		N06     Gn3 
	BYTE	W01
	BYTE		PAN     c_v+37
	BYTE	W01
	BYTE		        c_v+36
	BYTE	W01
	BYTE		        c_v+34
	BYTE	W01
	BYTE		        c_v+33
	BYTE	W01
	BYTE		        c_v+32
	BYTE	W01
	BYTE		        c_v+30
	BYTE		N06     Cn4 
	BYTE	W01
	BYTE		PAN     c_v+29
	BYTE	W01
	BYTE		        c_v+28
	BYTE	W01
	BYTE		        c_v+26
	BYTE	W01
	BYTE		        c_v+25
	BYTE	W01
	BYTE		        c_v+24
	BYTE	W01
	BYTE		        c_v+22
	BYTE		N06     Gn3 
	BYTE	W01
	BYTE		PAN     c_v+21
	BYTE	W01
	BYTE		        c_v+20
	BYTE	W01
	BYTE		        c_v+19
	BYTE	W01
	BYTE		        c_v+17
	BYTE	W01
	BYTE		        c_v+16
	BYTE	W01
	BYTE		        c_v+15
	BYTE		N06     En3 
	BYTE	W01
	BYTE		PAN     c_v+13
	BYTE	W01
	BYTE		        c_v+12
	BYTE	W01
	BYTE		        c_v+11
	BYTE	W01
	BYTE		        c_v+9
	BYTE	W01
	BYTE		        c_v+8
	BYTE	W01
	BYTE		        c_v+7
	BYTE		N06     Cn3 
	BYTE	W01
	BYTE		PAN     c_v+5
	BYTE	W01
	BYTE		        c_v+4
	BYTE	W01
	BYTE		        c_v+3
	BYTE	W01
	BYTE		        c_v+1
	BYTE	W01
	BYTE		        c_v+0
	BYTE	W01
	BYTE		        c_v-1
	BYTE		N06   
	BYTE	W01
	BYTE		PAN     c_v-3
	BYTE	W01
	BYTE		        c_v-4
	BYTE	W01
	BYTE		        c_v-5
	BYTE	W01
	BYTE		        c_v-7
	BYTE	W01
	BYTE		        c_v-8
	BYTE	W01
	BYTE		        c_v-9
	BYTE		N06     Dn3 
	BYTE	W01
	BYTE		PAN     c_v-11
	BYTE	W01
	BYTE		        c_v-12
	BYTE	W01
	BYTE		        c_v-13
	BYTE	W01
	BYTE		        c_v-15
	BYTE	W01
	BYTE		        c_v-16
	BYTE	W01
	BYTE		        c_v-17
	BYTE		N06     En3 
	BYTE	W01
	BYTE		PAN     c_v-19
	BYTE	W01
	BYTE		        c_v-20
	BYTE	W01
	BYTE		        c_v-21
	BYTE	W01
	BYTE		        c_v-22
	BYTE	W01
	BYTE		        c_v-24
	BYTE	W01
	BYTE		        c_v-25
	BYTE		N06     Gn3 
	BYTE	W01
	BYTE		PAN     c_v-26
	BYTE	W01
	BYTE		        c_v-28
	BYTE	W01
	BYTE		        c_v-29
	BYTE	W01
	BYTE		        c_v-30
	BYTE	W01
	BYTE		        c_v-32
	BYTE	W01
	BYTE		        c_v-33
	BYTE		N06     Cn4 
	BYTE	W01
	BYTE		PAN     c_v-34
	BYTE	W01
	BYTE		        c_v-36
	BYTE	W01
	BYTE		        c_v-37
	BYTE	W01
	BYTE		        c_v-38
	BYTE	W01
	BYTE		        c_v-40
	BYTE	W01
	BYTE		        c_v-41
	BYTE		N06     Gn3 
	BYTE	W01
	BYTE		PAN     c_v-42
	BYTE	W01
	BYTE		        c_v-44
	BYTE	W01
	BYTE		        c_v-45
	BYTE	W01
	BYTE		        c_v-46
	BYTE	W01
	BYTE		        c_v-48
	BYTE	W01
	BYTE		        c_v-49
	BYTE		N06     En3 
	BYTE	W01
	BYTE		PAN     c_v-50
	BYTE	W01
	BYTE		        c_v-52
	BYTE	W01
	BYTE		        c_v-53
	BYTE	W01
	BYTE		        c_v-54
	BYTE	W01
	BYTE		        c_v-56
	BYTE	W01
	BYTE		        c_v-57
	BYTE		N06     Cn3 
	BYTE	W01
	BYTE		PAN     c_v-58
	BYTE	W01
	BYTE		        c_v-60
	BYTE	W01
	BYTE		        c_v-61
	BYTE	W01
	BYTE		        c_v-62
	BYTE	W01
	BYTE		        c_v-63
	BYTE	W01
	BYTE	PEND
// 020   ----------------------------------------
	BYTE		        c_v-63
	BYTE		N06     Bn2 
	BYTE	W01
	BYTE		PAN     c_v-62
	BYTE	W01
	BYTE		        c_v-61
	BYTE	W01
	BYTE		        c_v-59
	BYTE	W01
	BYTE		        c_v-58
	BYTE	W01
	BYTE		        c_v-57
	BYTE	W01
	BYTE		        c_v-55
	BYTE		N06     Cn3 
	BYTE	W01
	BYTE		PAN     c_v-54
	BYTE	W01
	BYTE		        c_v-53
	BYTE	W01
	BYTE		        c_v-51
	BYTE	W01
	BYTE		        c_v-50
	BYTE	W01
	BYTE		        c_v-49
	BYTE	W01
	BYTE		        c_v-47
	BYTE		N06     Dn3 
	BYTE	W01
	BYTE		PAN     c_v-46
	BYTE	W01
	BYTE		        c_v-45
	BYTE	W01
	BYTE		        c_v-43
	BYTE	W01
	BYTE		        c_v-42
	BYTE	W01
	BYTE		        c_v-41
	BYTE	W01
	BYTE		        c_v-39
	BYTE		N06     Gn3 
	BYTE	W01
	BYTE		PAN     c_v-38
	BYTE	W01
	BYTE		        c_v-37
	BYTE	W01
	BYTE		        c_v-35
	BYTE	W01
	BYTE		        c_v-34
	BYTE	W01
	BYTE		        c_v-33
	BYTE	W01
	BYTE		        c_v-31
	BYTE		N06     Bn3 
	BYTE	W01
	BYTE		PAN     c_v-30
	BYTE	W01
	BYTE		        c_v-29
	BYTE	W01
	BYTE		        c_v-27
	BYTE	W01
	BYTE		        c_v-26
	BYTE	W01
	BYTE		        c_v-25
	BYTE	W01
	BYTE		        c_v-23
	BYTE		N06     An3 
	BYTE	W01
	BYTE		PAN     c_v-22
	BYTE	W01
	BYTE		        c_v-21
	BYTE	W01
	BYTE		        c_v-20
	BYTE	W01
	BYTE		        c_v-18
	BYTE	W01
	BYTE		        c_v-17
	BYTE	W01
	BYTE		        c_v-16
	BYTE		N06     Gn3 
	BYTE	W01
	BYTE		PAN     c_v-14
	BYTE	W01
	BYTE		        c_v-13
	BYTE	W01
	BYTE		        c_v-12
	BYTE	W01
	BYTE		        c_v-10
	BYTE	W01
	BYTE		        c_v-9
	BYTE	W01
	BYTE		        c_v-8
	BYTE		N06     Bn3 
	BYTE	W01
	BYTE		PAN     c_v-6
	BYTE	W01
	BYTE		        c_v-5
	BYTE	W01
	BYTE		        c_v-4
	BYTE	W01
	BYTE		        c_v-2
	BYTE	W01
	BYTE		        c_v-1
	BYTE	W01
	BYTE		        c_v+0
	BYTE		N06     Bn2 
	BYTE	W01
	BYTE		PAN     c_v+2
	BYTE	W01
	BYTE		        c_v+3
	BYTE	W01
	BYTE		        c_v+4
	BYTE	W01
	BYTE		        c_v+6
	BYTE	W01
	BYTE		        c_v+7
	BYTE	W01
	BYTE		        c_v+8
	BYTE		N06     Cn3 
	BYTE	W01
	BYTE		PAN     c_v+10
	BYTE	W01
	BYTE		        c_v+11
	BYTE	W01
	BYTE		        c_v+12
	BYTE	W01
	BYTE		        c_v+14
	BYTE	W01
	BYTE		        c_v+15
	BYTE	W01
	BYTE		        c_v+16
	BYTE		N06     Dn3 
	BYTE	W01
	BYTE		PAN     c_v+18
	BYTE	W01
	BYTE		        c_v+19
	BYTE	W01
	BYTE		        c_v+20
	BYTE	W01
	BYTE		        c_v+21
	BYTE	W01
	BYTE		        c_v+23
	BYTE	W01
	BYTE		        c_v+24
	BYTE		N06     Gn3 
	BYTE	W01
	BYTE		PAN     c_v+25
	BYTE	W01
	BYTE		        c_v+27
	BYTE	W01
	BYTE		        c_v+28
	BYTE	W01
	BYTE		        c_v+29
	BYTE	W01
	BYTE		        c_v+31
	BYTE	W01
	BYTE		        c_v+32
	BYTE		N06     Bn3 
	BYTE	W01
	BYTE		PAN     c_v+33
	BYTE	W01
	BYTE		        c_v+35
	BYTE	W01
	BYTE		        c_v+36
	BYTE	W01
	BYTE		        c_v+37
	BYTE	W01
	BYTE		        c_v+39
	BYTE	W01
	BYTE		        c_v+40
	BYTE		N06     An3 
	BYTE	W01
	BYTE		PAN     c_v+41
	BYTE	W01
	BYTE		        c_v+43
	BYTE	W01
	BYTE		        c_v+44
	BYTE	W01
	BYTE		        c_v+45
	BYTE	W01
	BYTE		        c_v+47
	BYTE	W01
	BYTE		        c_v+48
	BYTE		N06     Gn3 
	BYTE	W01
	BYTE		PAN     c_v+49
	BYTE	W01
	BYTE		        c_v+51
	BYTE	W01
	BYTE		        c_v+52
	BYTE	W01
	BYTE		        c_v+53
	BYTE	W01
	BYTE		        c_v+55
	BYTE	W01
	BYTE		        c_v+56
	BYTE		N06     Bn3 
	BYTE	W01
	BYTE		PAN     c_v+57
	BYTE	W01
	BYTE		        c_v+59
	BYTE	W01
	BYTE		        c_v+60
	BYTE	W01
	BYTE		        c_v+61
	BYTE	W01
	BYTE		        c_v+62
	BYTE	W01
// 021   ----------------------------------------
	BYTE		        c_v+62
	BYTE		N06     Cn4 
	BYTE	W01
	BYTE		PAN     c_v+61
	BYTE	W01
	BYTE		        c_v+60
	BYTE	W01
	BYTE		        c_v+58
	BYTE	W01
	BYTE		        c_v+57
	BYTE	W01
	BYTE		        c_v+56
	BYTE	W01
	BYTE		        c_v+54
	BYTE		N06     Bn3 
	BYTE	W01
	BYTE		PAN     c_v+53
	BYTE	W01
	BYTE		        c_v+52
	BYTE	W01
	BYTE		        c_v+50
	BYTE	W01
	BYTE		        c_v+49
	BYTE	W01
	BYTE		        c_v+48
	BYTE	W01
	BYTE		        c_v+46
	BYTE		N06     An3 
	BYTE	W01
	BYTE		PAN     c_v+45
	BYTE	W01
	BYTE		        c_v+44
	BYTE	W01
	BYTE		        c_v+42
	BYTE	W01
	BYTE		        c_v+41
	BYTE	W01
	BYTE		        c_v+40
	BYTE	W01
	BYTE		        c_v+38
	BYTE		N06     Cn4 
	BYTE	W01
	BYTE		PAN     c_v+37
	BYTE	W01
	BYTE		        c_v+36
	BYTE	W01
	BYTE		        c_v+34
	BYTE	W01
	BYTE		        c_v+33
	BYTE	W01
	BYTE		        c_v+32
	BYTE	W01
	BYTE		        c_v+30
	BYTE		N06     Dn4 
	BYTE	W01
	BYTE		PAN     c_v+29
	BYTE	W01
	BYTE		        c_v+28
	BYTE	W01
	BYTE		        c_v+26
	BYTE	W01
	BYTE		        c_v+25
	BYTE	W01
	BYTE		        c_v+24
	BYTE	W01
	BYTE		        c_v+22
	BYTE		N06     Cn4 
	BYTE	W01
	BYTE		PAN     c_v+21
	BYTE	W01
	BYTE		        c_v+20
	BYTE	W01
	BYTE		        c_v+19
	BYTE	W01
	BYTE		        c_v+17
	BYTE	W01
	BYTE		        c_v+16
	BYTE	W01
	BYTE		        c_v+15
	BYTE		N06     Bn3 
	BYTE	W01
	BYTE		PAN     c_v+13
	BYTE	W01
	BYTE		        c_v+12
	BYTE	W01
	BYTE		        c_v+11
	BYTE	W01
	BYTE		        c_v+9
	BYTE	W01
	BYTE		        c_v+8
	BYTE	W01
	BYTE		        c_v+7
	BYTE		N06     An3 
	BYTE	W01
	BYTE		PAN     c_v+5
	BYTE	W01
	BYTE		        c_v+4
	BYTE	W01
	BYTE		        c_v+3
	BYTE	W01
	BYTE		        c_v+1
	BYTE	W01
	BYTE		        c_v+0
	BYTE	W01
	BYTE		        c_v-1
	BYTE		N06     Cn4 
	BYTE	W01
	BYTE		PAN     c_v-3
	BYTE	W01
	BYTE		        c_v-4
	BYTE	W01
	BYTE		        c_v-5
	BYTE	W01
	BYTE		        c_v-7
	BYTE	W01
	BYTE		        c_v-8
	BYTE	W01
	BYTE		        c_v-9
	BYTE		N06     Bn3 
	BYTE	W01
	BYTE		PAN     c_v-11
	BYTE	W01
	BYTE		        c_v-12
	BYTE	W01
	BYTE		        c_v-13
	BYTE	W01
	BYTE		        c_v-15
	BYTE	W01
	BYTE		        c_v-16
	BYTE	W01
	BYTE		        c_v-17
	BYTE		N06     An3 
	BYTE	W01
	BYTE		PAN     c_v-19
	BYTE	W01
	BYTE		        c_v-20
	BYTE	W01
	BYTE		        c_v-21
	BYTE	W01
	BYTE		        c_v-22
	BYTE	W01
	BYTE		        c_v-24
	BYTE	W01
	BYTE		        c_v-25
	BYTE		N06     Cn4 
	BYTE	W01
	BYTE		PAN     c_v-26
	BYTE	W01
	BYTE		        c_v-28
	BYTE	W01
	BYTE		        c_v-29
	BYTE	W01
	BYTE		        c_v-30
	BYTE	W01
	BYTE		        c_v-32
	BYTE	W01
	BYTE		        c_v-33
	BYTE		N06     Dn4 
	BYTE	W01
	BYTE		PAN     c_v-34
	BYTE	W01
	BYTE		        c_v-36
	BYTE	W01
	BYTE		        c_v-37
	BYTE	W01
	BYTE		        c_v-38
	BYTE	W01
	BYTE		        c_v-40
	BYTE	W01
	BYTE		        c_v-41
	BYTE		N06     Cn4 
	BYTE	W01
	BYTE		PAN     c_v-42
	BYTE	W01
	BYTE		        c_v-44
	BYTE	W01
	BYTE		        c_v-45
	BYTE	W01
	BYTE		        c_v-46
	BYTE	W01
	BYTE		        c_v-48
	BYTE	W01
	BYTE		        c_v-49
	BYTE		N06     Bn3 
	BYTE	W01
	BYTE		PAN     c_v-50
	BYTE	W01
	BYTE		        c_v-52
	BYTE	W01
	BYTE		        c_v-53
	BYTE	W01
	BYTE		        c_v-54
	BYTE	W01
	BYTE		        c_v-56
	BYTE	W01
	BYTE		        c_v-57
	BYTE		N06     An3 
	BYTE	W01
	BYTE		PAN     c_v-58
	BYTE	W01
	BYTE		        c_v-60
	BYTE	W01
	BYTE		        c_v-61
	BYTE	W01
	BYTE		        c_v-62
	BYTE	W01
	BYTE		        c_v-63
	BYTE	W01
// 022   ----------------------------------------
	BYTE	PATT
	 POIN2	AwakeningSong_6_018
// 023   ----------------------------------------
	BYTE	PATT
	 POIN2	AwakeningSong_6_019
// 024   ----------------------------------------
	BYTE		PAN     c_v-63
	BYTE		N06     Dn3   v056
	BYTE	W01
	BYTE		PAN     c_v-62
	BYTE	W01
	BYTE		        c_v-61
	BYTE	W01
	BYTE		        c_v-59
	BYTE	W01
	BYTE		        c_v-58
	BYTE	W01
	BYTE		        c_v-57
	BYTE	W01
	BYTE		        c_v-55
	BYTE		N06     En3 
	BYTE	W01
	BYTE		PAN     c_v-54
	BYTE	W01
	BYTE		        c_v-53
	BYTE	W01
	BYTE		        c_v-51
	BYTE	W01
	BYTE		        c_v-50
	BYTE	W01
	BYTE		        c_v-49
	BYTE	W01
	BYTE		        c_v-47
	BYTE		N06     Fs3 
	BYTE	W01
	BYTE		PAN     c_v-46
	BYTE	W01
	BYTE		        c_v-45
	BYTE	W01
	BYTE		        c_v-43
	BYTE	W01
	BYTE		        c_v-42
	BYTE	W01
	BYTE		        c_v-41
	BYTE	W01
	BYTE		        c_v-39
	BYTE		N06     Dn3 
	BYTE	W01
	BYTE		PAN     c_v-38
	BYTE	W01
	BYTE		        c_v-37
	BYTE	W01
	BYTE		        c_v-35
	BYTE	W01
	BYTE		        c_v-34
	BYTE	W01
	BYTE		        c_v-33
	BYTE	W01
	BYTE		        c_v-31
	BYTE		N06     Fs3 
	BYTE	W01
	BYTE		PAN     c_v-30
	BYTE	W01
	BYTE		        c_v-29
	BYTE	W01
	BYTE		        c_v-27
	BYTE	W01
	BYTE		        c_v-26
	BYTE	W01
	BYTE		        c_v-25
	BYTE	W01
	BYTE		        c_v-23
	BYTE		N06     Gn3 
	BYTE	W01
	BYTE		PAN     c_v-22
	BYTE	W01
	BYTE		        c_v-21
	BYTE	W01
	BYTE		        c_v-20
	BYTE	W01
	BYTE		        c_v-18
	BYTE	W01
	BYTE		        c_v-17
	BYTE	W01
	BYTE		        c_v-16
	BYTE		N06     An3 
	BYTE	W01
	BYTE		PAN     c_v-14
	BYTE	W01
	BYTE		        c_v-13
	BYTE	W01
	BYTE		        c_v-12
	BYTE	W01
	BYTE		        c_v-10
	BYTE	W01
	BYTE		        c_v-9
	BYTE	W01
	BYTE		        c_v-8
	BYTE		N06     Fs3 
	BYTE	W01
	BYTE		PAN     c_v-6
	BYTE	W01
	BYTE		        c_v-5
	BYTE	W01
	BYTE		        c_v-4
	BYTE	W01
	BYTE		        c_v-2
	BYTE	W01
	BYTE		        c_v-1
	BYTE	W01
	BYTE		        c_v+0
	BYTE		N06     Dn3 
	BYTE	W01
	BYTE		PAN     c_v+2
	BYTE	W01
	BYTE		        c_v+3
	BYTE	W01
	BYTE		        c_v+4
	BYTE	W01
	BYTE		        c_v+6
	BYTE	W01
	BYTE		        c_v+7
	BYTE	W01
	BYTE		        c_v+8
	BYTE		N06     En3 
	BYTE	W01
	BYTE		PAN     c_v+10
	BYTE	W01
	BYTE		        c_v+11
	BYTE	W01
	BYTE		        c_v+12
	BYTE	W01
	BYTE		        c_v+14
	BYTE	W01
	BYTE		        c_v+15
	BYTE	W01
	BYTE		        c_v+16
	BYTE		N06     Fs3 
	BYTE	W01
	BYTE		PAN     c_v+18
	BYTE	W01
	BYTE		        c_v+19
	BYTE	W01
	BYTE		        c_v+20
	BYTE	W01
	BYTE		        c_v+21
	BYTE	W01
	BYTE		        c_v+23
	BYTE	W01
	BYTE		        c_v+24
	BYTE		N06     Dn3 
	BYTE	W01
	BYTE		PAN     c_v+25
	BYTE	W01
	BYTE		        c_v+27
	BYTE	W01
	BYTE		        c_v+28
	BYTE	W01
	BYTE		        c_v+29
	BYTE	W01
	BYTE		        c_v+31
	BYTE	W01
	BYTE		        c_v+32
	BYTE		N06     Fs3 
	BYTE	W01
	BYTE		PAN     c_v+33
	BYTE	W01
	BYTE		        c_v+35
	BYTE	W01
	BYTE		        c_v+36
	BYTE	W01
	BYTE		        c_v+37
	BYTE	W01
	BYTE		        c_v+39
	BYTE	W01
	BYTE		        c_v+40
	BYTE		N06     Gn3 
	BYTE	W01
	BYTE		PAN     c_v+41
	BYTE	W01
	BYTE		        c_v+43
	BYTE	W01
	BYTE		        c_v+44
	BYTE	W01
	BYTE		        c_v+45
	BYTE	W01
	BYTE		        c_v+47
	BYTE	W01
	BYTE		        c_v+48
	BYTE		N06     An3 
	BYTE	W01
	BYTE		PAN     c_v+49
	BYTE	W01
	BYTE		        c_v+51
	BYTE	W01
	BYTE		        c_v+52
	BYTE	W01
	BYTE		        c_v+53
	BYTE	W01
	BYTE		        c_v+55
	BYTE	W01
	BYTE		        c_v+56
	BYTE		N06     Fs3 
	BYTE	W01
	BYTE		PAN     c_v+57
	BYTE	W01
	BYTE		        c_v+59
	BYTE	W01
	BYTE		        c_v+60
	BYTE	W01
	BYTE		        c_v+61
	BYTE	W01
	BYTE		        c_v+62
	BYTE	W01
// 025   ----------------------------------------
	BYTE		        c_v+62
	BYTE		N06     Gn3 
	BYTE	W01
	BYTE		PAN     c_v+61
	BYTE	W01
	BYTE		        c_v+60
	BYTE	W01
	BYTE		        c_v+58
	BYTE	W01
	BYTE		        c_v+57
	BYTE	W01
	BYTE		        c_v+56
	BYTE	W01
	BYTE		        c_v+54
	BYTE		N06     En3 
	BYTE	W01
	BYTE		PAN     c_v+53
	BYTE	W01
	BYTE		        c_v+52
	BYTE	W01
	BYTE		        c_v+50
	BYTE	W01
	BYTE		        c_v+49
	BYTE	W01
	BYTE		        c_v+48
	BYTE	W01
	BYTE		        c_v+46
	BYTE		N06     Cn4 
	BYTE	W01
	BYTE		PAN     c_v+45
	BYTE	W01
	BYTE		        c_v+44
	BYTE	W01
	BYTE		        c_v+42
	BYTE	W01
	BYTE		        c_v+41
	BYTE	W01
	BYTE		        c_v+40
	BYTE	W01
	BYTE		        c_v+38
	BYTE		N06     Gn3 
	BYTE	W01
	BYTE		PAN     c_v+37
	BYTE	W01
	BYTE		        c_v+36
	BYTE	W01
	BYTE		        c_v+34
	BYTE	W01
	BYTE		        c_v+33
	BYTE	W01
	BYTE		        c_v+32
	BYTE	W01
	BYTE		        c_v+30
	BYTE		N06     En4 
	BYTE	W01
	BYTE		PAN     c_v+29
	BYTE	W01
	BYTE		        c_v+28
	BYTE	W01
	BYTE		        c_v+26
	BYTE	W01
	BYTE		        c_v+25
	BYTE	W01
	BYTE		        c_v+24
	BYTE	W01
	BYTE		        c_v+22
	BYTE		N06     Dn4 
	BYTE	W01
	BYTE		PAN     c_v+21
	BYTE	W01
	BYTE		        c_v+20
	BYTE	W01
	BYTE		        c_v+19
	BYTE	W01
	BYTE		        c_v+17
	BYTE	W01
	BYTE		        c_v+16
	BYTE	W01
	BYTE		        c_v+15
	BYTE		N06     Cn4 
	BYTE	W01
	BYTE		PAN     c_v+13
	BYTE	W01
	BYTE		        c_v+12
	BYTE	W01
	BYTE		        c_v+11
	BYTE	W01
	BYTE		        c_v+9
	BYTE	W01
	BYTE		        c_v+8
	BYTE	W01
	BYTE		        c_v+7
	BYTE		N06     An3 
	BYTE	W01
	BYTE		PAN     c_v+5
	BYTE	W01
	BYTE		        c_v+4
	BYTE	W01
	BYTE		        c_v+3
	BYTE	W01
	BYTE		        c_v+1
	BYTE	W01
	BYTE		        c_v+0
	BYTE	W01
	BYTE		        c_v-1
	BYTE		N06     Gn3 
	BYTE	W01
	BYTE		PAN     c_v-3
	BYTE	W01
	BYTE		        c_v-4
	BYTE	W01
	BYTE		        c_v-5
	BYTE	W01
	BYTE		        c_v-7
	BYTE	W01
	BYTE		        c_v-8
	BYTE	W01
	BYTE		        c_v-9
	BYTE		N06     En3 
	BYTE	W01
	BYTE		PAN     c_v-11
	BYTE	W01
	BYTE		        c_v-12
	BYTE	W01
	BYTE		        c_v-13
	BYTE	W01
	BYTE		        c_v-15
	BYTE	W01
	BYTE		        c_v-16
	BYTE	W01
	BYTE		        c_v-17
	BYTE		N06     Cn4 
	BYTE	W01
	BYTE		PAN     c_v-19
	BYTE	W01
	BYTE		        c_v-20
	BYTE	W01
	BYTE		        c_v-21
	BYTE	W01
	BYTE		        c_v-22
	BYTE	W01
	BYTE		        c_v-24
	BYTE	W01
	BYTE		        c_v-25
	BYTE		N06     Gn3 
	BYTE	W01
	BYTE		PAN     c_v-26
	BYTE	W01
	BYTE		        c_v-28
	BYTE	W01
	BYTE		        c_v-29
	BYTE	W01
	BYTE		        c_v-30
	BYTE	W01
	BYTE		        c_v-32
	BYTE	W01
	BYTE		        c_v-33
	BYTE		N06     En4 
	BYTE	W01
	BYTE		PAN     c_v-34
	BYTE	W01
	BYTE		        c_v-36
	BYTE	W01
	BYTE		        c_v-37
	BYTE	W01
	BYTE		        c_v-38
	BYTE	W01
	BYTE		        c_v-40
	BYTE	W01
	BYTE		        c_v-41
	BYTE		N06     Dn4 
	BYTE	W01
	BYTE		PAN     c_v-42
	BYTE	W01
	BYTE		        c_v-44
	BYTE	W01
	BYTE		        c_v-45
	BYTE	W01
	BYTE		        c_v-46
	BYTE	W01
	BYTE		        c_v-48
	BYTE	W01
	BYTE		        c_v-49
	BYTE		N06     Cn4 
	BYTE	W01
	BYTE		PAN     c_v-50
	BYTE	W01
	BYTE		        c_v-52
	BYTE	W01
	BYTE		        c_v-53
	BYTE	W01
	BYTE		        c_v-54
	BYTE	W01
	BYTE		        c_v-56
	BYTE	W01
	BYTE		        c_v-57
	BYTE		N06     An3 
	BYTE	W01
	BYTE		PAN     c_v-58
	BYTE	W01
	BYTE		        c_v-60
	BYTE	W01
	BYTE		        c_v-61
	BYTE	W01
	BYTE		        c_v-62
	BYTE	W01
	BYTE		        c_v-63
	BYTE	W01
// 026   ----------------------------------------
	BYTE		        c_v-63
	BYTE		N06     Ds3 
	BYTE	W01
	BYTE		PAN     c_v-62
	BYTE	W01
	BYTE		        c_v-61
	BYTE	W01
	BYTE		        c_v-59
	BYTE	W01
	BYTE		        c_v-58
	BYTE	W01
	BYTE		        c_v-57
	BYTE	W01
	BYTE		        c_v-55
	BYTE		N06     Fs3 
	BYTE	W01
	BYTE		PAN     c_v-54
	BYTE	W01
	BYTE		        c_v-53
	BYTE	W01
	BYTE		        c_v-51
	BYTE	W01
	BYTE		        c_v-50
	BYTE	W01
	BYTE		        c_v-49
	BYTE	W01
	BYTE		        c_v-47
	BYTE		N06     An3 
	BYTE	W01
	BYTE		PAN     c_v-46
	BYTE	W01
	BYTE		        c_v-45
	BYTE	W01
	BYTE		        c_v-43
	BYTE	W01
	BYTE		        c_v-42
	BYTE	W01
	BYTE		        c_v-41
	BYTE	W01
	BYTE		        c_v-39
	BYTE		N06     Fs3 
	BYTE	W01
	BYTE		PAN     c_v-38
	BYTE	W01
	BYTE		        c_v-37
	BYTE	W01
	BYTE		        c_v-35
	BYTE	W01
	BYTE		        c_v-34
	BYTE	W01
	BYTE		        c_v-33
	BYTE	W01
	BYTE		        c_v-31
	BYTE		N06     Ds3   v060
	BYTE	W01
	BYTE		PAN     c_v-30
	BYTE	W01
	BYTE		        c_v-29
	BYTE	W01
	BYTE		        c_v-27
	BYTE	W01
	BYTE		        c_v-26
	BYTE	W01
	BYTE		        c_v-25
	BYTE	W01
	BYTE		        c_v-23
	BYTE		N06     Fs3 
	BYTE	W01
	BYTE		PAN     c_v-22
	BYTE	W01
	BYTE		        c_v-21
	BYTE	W01
	BYTE		        c_v-20
	BYTE	W01
	BYTE		        c_v-18
	BYTE	W01
	BYTE		        c_v-17
	BYTE	W01
	BYTE		        c_v-16
	BYTE		N06     An3 
	BYTE	W01
	BYTE		PAN     c_v-14
	BYTE	W01
	BYTE		        c_v-13
	BYTE	W01
	BYTE		        c_v-12
	BYTE	W01
	BYTE		        c_v-10
	BYTE	W01
	BYTE		        c_v-9
	BYTE	W01
	BYTE		        c_v-8
	BYTE		N06     Fs3   v064
	BYTE	W01
	BYTE		PAN     c_v-6
	BYTE	W01
	BYTE		        c_v-5
	BYTE	W01
	BYTE		        c_v-4
	BYTE	W01
	BYTE		        c_v-2
	BYTE	W01
	BYTE		        c_v-1
	BYTE	W01
	BYTE		        c_v+0
	BYTE		N06     Ds3 
	BYTE	W01
	BYTE		PAN     c_v+2
	BYTE	W01
	BYTE		        c_v+3
	BYTE	W01
	BYTE		        c_v+4
	BYTE	W01
	BYTE		        c_v+6
	BYTE	W01
	BYTE		        c_v+7
	BYTE	W01
	BYTE		        c_v+8
	BYTE		N06     Fs3 
	BYTE	W01
	BYTE		PAN     c_v+10
	BYTE	W01
	BYTE		        c_v+11
	BYTE	W01
	BYTE		        c_v+12
	BYTE	W01
	BYTE		        c_v+14
	BYTE	W01
	BYTE		        c_v+15
	BYTE	W01
	BYTE		        c_v+16
	BYTE		N06     An3   v068
	BYTE	W01
	BYTE		PAN     c_v+18
	BYTE	W01
	BYTE		        c_v+19
	BYTE	W01
	BYTE		        c_v+20
	BYTE	W01
	BYTE		        c_v+21
	BYTE	W01
	BYTE		        c_v+23
	BYTE	W01
	BYTE		        c_v+24
	BYTE		N06     Fs3 
	BYTE	W01
	BYTE		PAN     c_v+25
	BYTE	W01
	BYTE		        c_v+27
	BYTE	W01
	BYTE		        c_v+28
	BYTE	W01
	BYTE		        c_v+29
	BYTE	W01
	BYTE		        c_v+31
	BYTE	W01
	BYTE		        c_v+32
	BYTE		N06     Ds3 
	BYTE	W01
	BYTE		PAN     c_v+33
	BYTE	W01
	BYTE		        c_v+35
	BYTE	W01
	BYTE		        c_v+36
	BYTE	W01
	BYTE		        c_v+37
	BYTE	W01
	BYTE		        c_v+39
	BYTE	W01
	BYTE		        c_v+40
	BYTE		N06     Fs3   v072
	BYTE	W01
	BYTE		PAN     c_v+41
	BYTE	W01
	BYTE		        c_v+43
	BYTE	W01
	BYTE		        c_v+44
	BYTE	W01
	BYTE		        c_v+45
	BYTE	W01
	BYTE		        c_v+47
	BYTE	W01
	BYTE		        c_v+48
	BYTE		N06     An3   v076
	BYTE	W01
	BYTE		PAN     c_v+49
	BYTE	W01
	BYTE		        c_v+51
	BYTE	W01
	BYTE		        c_v+52
	BYTE	W01
	BYTE		        c_v+53
	BYTE	W01
	BYTE		        c_v+55
	BYTE	W01
	BYTE		        c_v+56
	BYTE		N06     Fs3 
	BYTE	W01
	BYTE		PAN     c_v+57
	BYTE	W01
	BYTE		        c_v+59
	BYTE	W01
	BYTE		        c_v+60
	BYTE	W01
	BYTE		        c_v+61
	BYTE	W01
	BYTE		        c_v+62
	BYTE	W01
// 027   ----------------------------------------
	BYTE		        c_v+62
	BYTE		N06     Ds3   v080
	BYTE	W01
	BYTE		PAN     c_v+61
	BYTE	W01
	BYTE		        c_v+60
	BYTE	W01
	BYTE		        c_v+58
	BYTE	W01
	BYTE		        c_v+57
	BYTE	W01
	BYTE		        c_v+56
	BYTE	W01
	BYTE		        c_v+54
	BYTE		N06     Fs3   v084
	BYTE	W01
	BYTE		PAN     c_v+53
	BYTE	W01
	BYTE		        c_v+52
	BYTE	W01
	BYTE		        c_v+50
	BYTE	W01
	BYTE		        c_v+49
	BYTE	W01
	BYTE		        c_v+48
	BYTE	W01
	BYTE		        c_v+46
	BYTE		N06     An3 
	BYTE	W01
	BYTE		PAN     c_v+45
	BYTE	W01
	BYTE		        c_v+44
	BYTE	W01
	BYTE		        c_v+42
	BYTE	W01
	BYTE		        c_v+41
	BYTE	W01
	BYTE		        c_v+40
	BYTE	W01
	BYTE		        c_v+38
	BYTE		N06     Fs3   v088
	BYTE	W01
	BYTE		PAN     c_v+37
	BYTE	W01
	BYTE		        c_v+36
	BYTE	W01
	BYTE		        c_v+34
	BYTE	W01
	BYTE		        c_v+33
	BYTE	W01
	BYTE		        c_v+32
	BYTE	W01
	BYTE		        c_v+30
	BYTE		N06     Ds3   v092
	BYTE	W01
	BYTE		PAN     c_v+29
	BYTE	W01
	BYTE		        c_v+28
	BYTE	W01
	BYTE		        c_v+26
	BYTE	W01
	BYTE		        c_v+25
	BYTE	W01
	BYTE		        c_v+24
	BYTE	W01
	BYTE		        c_v+22
	BYTE		N06     Fs3 
	BYTE	W01
	BYTE		PAN     c_v+21
	BYTE	W01
	BYTE		        c_v+20
	BYTE	W01
	BYTE		        c_v+19
	BYTE	W01
	BYTE		        c_v+17
	BYTE	W01
	BYTE		        c_v+16
	BYTE	W01
	BYTE		        c_v+15
	BYTE		N06     An3   v096
	BYTE	W01
	BYTE		PAN     c_v+13
	BYTE	W01
	BYTE		        c_v+12
	BYTE	W01
	BYTE		        c_v+11
	BYTE	W01
	BYTE		        c_v+9
	BYTE	W01
	BYTE		        c_v+8
	BYTE	W01
	BYTE		        c_v+7
	BYTE		N06     Fs3   v100
	BYTE	W01
	BYTE		PAN     c_v+5
	BYTE	W01
	BYTE		        c_v+4
	BYTE	W01
	BYTE		        c_v+3
	BYTE	W01
	BYTE		        c_v+1
	BYTE	W01
	BYTE		        c_v+0
	BYTE	W01
	BYTE		        c_v-1
	BYTE		N06     Ds3   v104
	BYTE	W01
	BYTE		PAN     c_v-3
	BYTE	W01
	BYTE		        c_v-4
	BYTE	W01
	BYTE		        c_v-5
	BYTE	W01
	BYTE		        c_v-7
	BYTE	W01
	BYTE		        c_v-8
	BYTE	W01
	BYTE		        c_v-9
	BYTE		N06     Fs3   v108
	BYTE	W01
	BYTE		PAN     c_v-11
	BYTE	W01
	BYTE		        c_v-12
	BYTE	W01
	BYTE		        c_v-13
	BYTE	W01
	BYTE		        c_v-15
	BYTE	W01
	BYTE		        c_v-16
	BYTE	W01
	BYTE		        c_v-17
	BYTE		N06     An3 
	BYTE	W01
	BYTE		PAN     c_v-19
	BYTE	W01
	BYTE		        c_v-20
	BYTE	W01
	BYTE		        c_v-21
	BYTE	W01
	BYTE		        c_v-22
	BYTE	W01
	BYTE		        c_v-24
	BYTE	W01
	BYTE		        c_v-25
	BYTE		N06     Fs3   v112
	BYTE	W01
	BYTE		PAN     c_v-26
	BYTE	W01
	BYTE		        c_v-28
	BYTE	W01
	BYTE		        c_v-29
	BYTE	W01
	BYTE		        c_v-30
	BYTE	W01
	BYTE		        c_v-32
	BYTE	W01
	BYTE		        c_v-33
	BYTE		N06     Ds3   v116
	BYTE	W01
	BYTE		PAN     c_v-34
	BYTE	W01
	BYTE		        c_v-36
	BYTE	W01
	BYTE		        c_v-37
	BYTE	W01
	BYTE		        c_v-38
	BYTE	W01
	BYTE		        c_v-40
	BYTE	W01
	BYTE		        c_v-41
	BYTE		N06     Fs3   v120
	BYTE	W01
	BYTE		PAN     c_v-42
	BYTE	W01
	BYTE		        c_v-44
	BYTE	W01
	BYTE		        c_v-45
	BYTE	W01
	BYTE		        c_v-46
	BYTE	W01
	BYTE		        c_v-48
	BYTE	W01
	BYTE		        c_v-49
	BYTE		N06     An3 
	BYTE	W01
	BYTE		PAN     c_v-50
	BYTE	W01
	BYTE		        c_v-52
	BYTE	W01
	BYTE		        c_v-53
	BYTE	W01
	BYTE		        c_v-54
	BYTE	W01
	BYTE		        c_v-56
	BYTE	W01
	BYTE		        c_v-57
	BYTE		N05     Fs3   v124
	BYTE	W01
	BYTE		PAN     c_v-58
	BYTE	W01
	BYTE		        c_v-60
	BYTE	W01
	BYTE		        c_v-61
	BYTE	W01
	BYTE		        c_v-62
	BYTE	W01
	BYTE		        c_v-63
	BYTE	W01
// 028   ----------------------------------------
	BYTE		        c_v-64
	BYTE	W96
// 029   ----------------------------------------
	BYTE	W96
// 030   ----------------------------------------
	BYTE	W96
// 031   ----------------------------------------
	BYTE	W96
// 032   ----------------------------------------
	BYTE	W96
// 033   ----------------------------------------
	BYTE	W96
// 034   ----------------------------------------
	BYTE	W18
	BYTE	GoTo
	 POIN2	AwakeningSong_6_B1
AwakeningSong_6_B2:
	BYTE	FINE

//**************** Track 7 (Midi-Chn.7) ****************//

AwakeningSong_7:
	BYTE	KEYSH   AwakeningSong_key+0
AwakeningSong_7_B1:
// 000   ----------------------------------------
	BYTE		VOICE   47
	BYTE		MODT    0
	BYTE		LFOS    44
	BYTE		VOL     127*AwakeningSong_mvl/mxv
	BYTE		PAN     c_v+0
	BYTE		N04     En1   v076
	BYTE	W12
	BYTE		N04   
	BYTE	W12
	BYTE		N04   
	BYTE	W12
	BYTE		N02   
	BYTE	W04
	BYTE		N02   
	BYTE	W04
	BYTE		N02   
	BYTE	W04
	BYTE		N04   
	BYTE	W12
	BYTE		N04   
	BYTE	W12
	BYTE		N04   
	BYTE	W12
	BYTE		N02   
	BYTE	W04
	BYTE		N02   
	BYTE	W04
	BYTE		N02   
	BYTE	W04
// 001   ----------------------------------------
AwakeningSong_7_001:
	BYTE		N04     En1   v076
	BYTE	W12
	BYTE		N04   
	BYTE	W12
	BYTE		N04   
	BYTE	W12
	BYTE		N02   
	BYTE	W04
	BYTE		N02   
	BYTE	W04
	BYTE		N02   
	BYTE	W04
	BYTE		N04   
	BYTE	W12
	BYTE		N04   
	BYTE	W12
	BYTE		N04   
	BYTE	W12
	BYTE		N02   
	BYTE	W04
	BYTE		N02   
	BYTE	W04
	BYTE		N02   
	BYTE	W04
	BYTE	PEND
// 002   ----------------------------------------
	BYTE	PATT
	 POIN2	AwakeningSong_7_001
// 003   ----------------------------------------
	BYTE	PATT
	 POIN2	AwakeningSong_7_001
// 004   ----------------------------------------
	BYTE	PATT
	 POIN2	AwakeningSong_7_001
// 005   ----------------------------------------
	BYTE	PATT
	 POIN2	AwakeningSong_7_001
// 006   ----------------------------------------
	BYTE	PATT
	 POIN2	AwakeningSong_7_001
// 007   ----------------------------------------
	BYTE	PATT
	 POIN2	AwakeningSong_7_001
// 008   ----------------------------------------
	BYTE	PATT
	 POIN2	AwakeningSong_7_001
// 009   ----------------------------------------
	BYTE	PATT
	 POIN2	AwakeningSong_7_001
// 010   ----------------------------------------
	BYTE	PATT
	 POIN2	AwakeningSong_7_001
// 011   ----------------------------------------
	BYTE	PATT
	 POIN2	AwakeningSong_7_001
// 012   ----------------------------------------
	BYTE	PATT
	 POIN2	AwakeningSong_7_001
// 013   ----------------------------------------
	BYTE	PATT
	 POIN2	AwakeningSong_7_001
// 014   ----------------------------------------
	BYTE	PATT
	 POIN2	AwakeningSong_7_001
// 015   ----------------------------------------
	BYTE	PATT
	 POIN2	AwakeningSong_7_001
// 016   ----------------------------------------
	BYTE		N04     En1   v076
	BYTE	W12
	BYTE		        En1   v080
	BYTE	W12
	BYTE		N04   
	BYTE	W12
	BYTE		N02     En1   v084
	BYTE	W04
	BYTE		N02   
	BYTE	W04
	BYTE		N02   
	BYTE	W04
	BYTE		N04   
	BYTE	W12
	BYTE		        En1   v088
	BYTE	W12
	BYTE		N04   
	BYTE	W12
	BYTE		N02     En1   v092
	BYTE	W04
	BYTE		N02   
	BYTE	W04
	BYTE		N02   
	BYTE	W04
// 017   ----------------------------------------
	BYTE		N04   
	BYTE	W12
	BYTE		        En1   v096
	BYTE	W12
	BYTE		        En1   v100
	BYTE	W12
	BYTE		N02     En1   v104
	BYTE	W04
	BYTE		        En1   v108
	BYTE	W04
	BYTE		N02   
	BYTE	W04
	BYTE		N04   
	BYTE	W12
	BYTE		        En1   v112
	BYTE	W12
	BYTE		        En1   v120
	BYTE	W12
	BYTE		N02     En1   v124
	BYTE	W04
	BYTE		N02   
	BYTE	W04
	BYTE		        En1   v127
	BYTE	W04
// 018   ----------------------------------------
AwakeningSong_7_018:
	BYTE		N96     Bn1   v076
	BYTE		TIE     En2 
	BYTE		TIE     Gn2 
	BYTE	W96
	BYTE	PEND
// 019   ----------------------------------------
	BYTE		N96     Cn2 
	BYTE	W96
	BYTE		EOT     En2 
// 020   ----------------------------------------
	BYTE		TIE     Bn1 
	BYTE		TIE     Dn2 
	BYTE	W96
	BYTE		EOT     Gn2 
// 021   ----------------------------------------
	BYTE		N90     Fs2 
	BYTE	W48
	BYTE		EOT     Bn1 
	BYTE		N48     An1 
	BYTE	W42
	BYTE		EOT     Dn2 
	BYTE	W06
// 022   ----------------------------------------
	BYTE	PATT
	 POIN2	AwakeningSong_7_018
// 023   ----------------------------------------
	BYTE		N96     Cn2   v076
	BYTE	W96
	BYTE		EOT     En2 
	BYTE		        Gn2 
// 024   ----------------------------------------
	BYTE		N96     An1 
	BYTE		N96     Dn2 
	BYTE		N96     Fs2 
	BYTE	W96
// 025   ----------------------------------------
	BYTE		N90     Cn2 
	BYTE		N90     En2 
	BYTE		N90     Gn2 
	BYTE	W96
// 026   ----------------------------------------
	BYTE		TIE     Fs2 
	BYTE	W48
	BYTE		        Dn2   v088
	BYTE	W48
// 027   ----------------------------------------
	BYTE		N90     Bn1   v100
	BYTE	W48
	BYTE		N42     An1   v112
	BYTE	W42
	BYTE		EOT     Dn2 
	BYTE		        Fs2 
	BYTE	W06
// 028   ----------------------------------------
AwakeningSong_7_028:
	BYTE		N04     En1   v127
	BYTE	W12
	BYTE		N04   
	BYTE	W12
	BYTE		N04   
	BYTE	W12
	BYTE		N02   
	BYTE	W04
	BYTE		N02   
	BYTE	W04
	BYTE		N02   
	BYTE	W04
	BYTE		N04   
	BYTE	W12
	BYTE		N04   
	BYTE	W12
	BYTE		N04   
	BYTE	W12
	BYTE		N02   
	BYTE	W04
	BYTE		N02   
	BYTE	W04
	BYTE		N02   
	BYTE	W04
	BYTE	PEND
// 029   ----------------------------------------
	BYTE	PATT
	 POIN2	AwakeningSong_7_028
// 030   ----------------------------------------
	BYTE	PATT
	 POIN2	AwakeningSong_7_028
// 031   ----------------------------------------
	BYTE	PATT
	 POIN2	AwakeningSong_7_028
// 032   ----------------------------------------
	BYTE		N02     En1   v127
	BYTE	W04
	BYTE		N02   
	BYTE	W04
	BYTE		N02   
	BYTE	W04
	BYTE		N02   
	BYTE	W04
	BYTE		N02   
	BYTE	W04
	BYTE		N02   
	BYTE	W04
	BYTE		N02   
	BYTE	W04
	BYTE		N02   
	BYTE	W04
	BYTE		N02   
	BYTE	W04
	BYTE		N02   
	BYTE	W04
	BYTE		N02   
	BYTE	W04
	BYTE		N02   
	BYTE	W04
	BYTE		TIE   
	BYTE	W48
// 033   ----------------------------------------
	BYTE	W90
	BYTE		EOT   
	BYTE	W06
// 034   ----------------------------------------
	BYTE	W18
	BYTE	GoTo
	 POIN2	AwakeningSong_7_B1
AwakeningSong_7_B2:
	BYTE	FINE

//******************************************************//
	ALIGN 4

AwakeningSong:
	BYTE	7	// NumTrks
	BYTE	0	// NumBlks
	BYTE	AwakeningSong_pri	// Priority
	BYTE	AwakeningSong_rev	// Reverb.

	POIN2	AwakeningSong_grp

	POIN2	AwakeningSong_1
	POIN2	AwakeningSong_2
	POIN2	AwakeningSong_3
	POIN2	AwakeningSong_4
	POIN2	AwakeningSong_5
	POIN2	AwakeningSong_6
	POIN2	AwakeningSong_7

	
