	.include "MPlayDef.s"

	.equ	Distrust_grp, voicegroup000
	.equ	Distrust_pri, 0
	.equ	Distrust_rev, 192
	.equ	Distrust_mvl, 35
	.equ	Distrust_key, 0
	.equ	Distrust_tbs, 1
	.equ	Distrust_exg, 0
	.equ	Distrust_cmp, 1

	.section .rodata
	.global	Distrust
	.align	2

@**************** Track 1 (Midi-Chn.1) ****************@

Distrust_1:
	.byte	KEYSH , Distrust_key+0
Distrust_1_B1:
@ 000   ----------------------------------------
	.byte	TEMPO , 75*Distrust_tbs/2
	.byte		VOICE , 1
	.byte		MODT  , 0
	.byte		LFOS  , 44
	.byte		PAN   , c_v+3
	.byte		VOL   , 127*Distrust_mvl/mxv
	.byte	W96
@ 001   ----------------------------------------
	.byte	W96
@ 002   ----------------------------------------
	.byte	W96
@ 003   ----------------------------------------
	.byte	W96
@ 004   ----------------------------------------
	.byte	W96
@ 005   ----------------------------------------
	.byte	W96
@ 006   ----------------------------------------
	.byte	W96
@ 007   ----------------------------------------
	.byte	W96
@ 008   ----------------------------------------
	.byte	W96
@ 009   ----------------------------------------
	.byte	W96
@ 010   ----------------------------------------
	.byte	W96
@ 011   ----------------------------------------
	.byte	W96
@ 012   ----------------------------------------
	.byte	W96
@ 013   ----------------------------------------
	.byte	W96
@ 014   ----------------------------------------
	.byte	W96
@ 015   ----------------------------------------
	.byte	W96
@ 016   ----------------------------------------
	.byte	W96
@ 017   ----------------------------------------
	.byte	W96
@ 018   ----------------------------------------
	.byte	W96
@ 019   ----------------------------------------
	.byte	W96
@ 020   ----------------------------------------
Distrust_1_020:
	.byte		N15   , En4 , v127
	.byte	W16
	.byte		        Ds4 
	.byte	W16
	.byte		        Cs4 
	.byte	W16
	.byte		        Bn3 
	.byte	W16
	.byte		        As3 
	.byte	W16
	.byte		        Gs3 
	.byte	W16
	.byte	PEND
@ 021   ----------------------------------------
Distrust_1_021:
	.byte		N42   , Fs3 , v127
	.byte	W48
	.byte		N15   , Bn3 
	.byte	W16
	.byte		        Cs4 
	.byte	W16
	.byte		        Ds4 
	.byte	W16
	.byte	PEND
@ 022   ----------------------------------------
Distrust_1_022:
	.byte		N42   , Cs4 , v127
	.byte	W48
	.byte		        En4 
	.byte	W48
	.byte	PEND
@ 023   ----------------------------------------
	.byte		N96   , Ds4 
	.byte	W96
@ 024   ----------------------------------------
	.byte	PATT
	 .word	Distrust_1_020
@ 025   ----------------------------------------
	.byte	PATT
	 .word	Distrust_1_021
@ 026   ----------------------------------------
	.byte	PATT
	 .word	Distrust_1_022
@ 027   ----------------------------------------
	.byte		N24   , Ds4 , v127
	.byte	W24
	.byte		N48   , Cs4 
	.byte	W24
	.byte		N30   , Bn3 
	.byte	W24
	.byte		N42   , Ds4 
	.byte	W24
@ 028   ----------------------------------------
	.byte		N72   , Cs4 
	.byte	W96
@ 029   ----------------------------------------
	.byte	W96
@ 030   ----------------------------------------
	.byte	W96
@ 031   ----------------------------------------
	.byte	W96
@ 032   ----------------------------------------
	.byte	W96
@ 033   ----------------------------------------
	.byte	W96
@ 034   ----------------------------------------
	.byte	W96
@ 035   ----------------------------------------
	.byte	W96
@ 036   ----------------------------------------
	.byte	W96
@ 037   ----------------------------------------
	.byte	W96
@ 038   ----------------------------------------
	.byte	W96
@ 039   ----------------------------------------
	.byte	W96
@ 040   ----------------------------------------
	.byte	W92
	.byte	W03
	.byte	GOTO
	 .word	Distrust_1_B1
Distrust_1_B2:
	.byte	FINE

@**************** Track 2 (Midi-Chn.2) ****************@

Distrust_2:
	.byte	KEYSH , Distrust_key+0
Distrust_2_B1:
@ 000   ----------------------------------------
	.byte		VOICE , 42
	.byte		MODT  , 0
	.byte		LFOS  , 44
	.byte		VOL   , 100*Distrust_mvl/mxv
	.byte		PAN   , c_v+0
	.byte		N42   , Gs3 , v127
	.byte	W48
	.byte		N15   , Bn3 
	.byte	W16
	.byte		        Cs4 
	.byte	W16
	.byte		        Ds4 
	.byte	W16
@ 001   ----------------------------------------
	.byte		N42   , Cs4 
	.byte	W48
	.byte		N15   , En4 
	.byte	W16
	.byte		        Ds4 
	.byte	W16
	.byte		        Cs4 
	.byte	W16
@ 002   ----------------------------------------
	.byte		        Bn3 
	.byte	W16
	.byte		        As3 
	.byte	W16
	.byte		        Bn3 
	.byte	W16
	.byte		        Ds4 
	.byte	W16
	.byte		        Cs4 
	.byte	W16
	.byte		        Bn3 
	.byte	W16
@ 003   ----------------------------------------
	.byte		N32   
	.byte	W36
	.byte		N05   , Cs4 
	.byte	W06
	.byte		        Bn3 
	.byte	W06
	.byte		N15   , As3 
	.byte	W16
	.byte		        Gs3 
	.byte	W16
	.byte		        Fs3 
	.byte	W16
@ 004   ----------------------------------------
	.byte		N42   , Gs3 
	.byte	W48
	.byte		N15   , Bn3 
	.byte	W16
	.byte		        Cs4 
	.byte	W16
	.byte		        Ds4 
	.byte	W16
@ 005   ----------------------------------------
	.byte		        En4 
	.byte	W16
	.byte		        Ds4 
	.byte	W16
	.byte		        En4 
	.byte	W16
	.byte		        Gs4 
	.byte	W16
	.byte		        As4 
	.byte	W16
	.byte		        Gs4 
	.byte	W16
@ 006   ----------------------------------------
	.byte		        Fs4 
	.byte	W16
	.byte		        En4 
	.byte	W16
	.byte		        Ds4 
	.byte	W16
	.byte		        Cs4 
	.byte	W16
	.byte		        Ds4 
	.byte	W16
	.byte		        Bn3 
	.byte	W16
@ 007   ----------------------------------------
	.byte		N32   , Cs4 
	.byte	W36
	.byte		N05   , Ds4 
	.byte	W06
	.byte		        En4 
	.byte	W06
	.byte		N42   , Fs4 
	.byte	W48
@ 008   ----------------------------------------
	.byte		N15   , En4 
	.byte	W16
	.byte		        Cs4 
	.byte	W16
	.byte		        En4 
	.byte	W16
	.byte		        Gs4 
	.byte	W16
	.byte		        Fs4 
	.byte	W16
	.byte		        En4 
	.byte	W16
@ 009   ----------------------------------------
	.byte		        Ds4 
	.byte	W16
	.byte		        Cs4 
	.byte	W16
	.byte		        Ds4 
	.byte	W16
	.byte		N20   , Bn3 
	.byte	W24
	.byte		        Fs3 
	.byte	W24
@ 010   ----------------------------------------
	.byte		N15   , As3 
	.byte	W16
	.byte		        Gs3 
	.byte	W16
	.byte		        As3 
	.byte	W16
	.byte		N42   , Cs4 
	.byte	W48
@ 011   ----------------------------------------
	.byte		N15   , Ds4 
	.byte	W16
	.byte		        Cs4 
	.byte	W16
	.byte		        Bn3 
	.byte	W16
	.byte		N42   , Fs4 
	.byte	W48
@ 012   ----------------------------------------
	.byte		N15   , Gs4 
	.byte	W16
	.byte		        Fs4 
	.byte	W16
	.byte		        Gs4 
	.byte	W16
	.byte		        Cs5 
	.byte	W16
	.byte		        Ds5 
	.byte	W16
	.byte		        Cs5 
	.byte	W16
@ 013   ----------------------------------------
	.byte		        Bn4 
	.byte	W16
	.byte		        As4 
	.byte	W16
	.byte		        Gs4 
	.byte	W16
	.byte		        Fs4 
	.byte	W16
	.byte		        En4 
	.byte	W16
	.byte		        Ds4 
	.byte	W16
@ 014   ----------------------------------------
	.byte		        En4 
	.byte	W16
	.byte		        Fs4 
	.byte	W16
	.byte		        As4 
	.byte	W16
	.byte		        Cs5 
	.byte	W16
	.byte		        Bn4 
	.byte	W16
	.byte		        As4 
	.byte	W16
@ 015   ----------------------------------------
	.byte		N42   , Gs4 
	.byte	W48
	.byte		        Fs4 
	.byte	W48
@ 016   ----------------------------------------
	.byte	W96
@ 017   ----------------------------------------
	.byte	W96
@ 018   ----------------------------------------
	.byte	W96
@ 019   ----------------------------------------
	.byte	W96
@ 020   ----------------------------------------
	.byte	W96
@ 021   ----------------------------------------
	.byte	W96
@ 022   ----------------------------------------
	.byte	W96
@ 023   ----------------------------------------
	.byte	W96
@ 024   ----------------------------------------
	.byte	W96
@ 025   ----------------------------------------
	.byte	W23
	.byte		PAN   , c_v+17
	.byte	W72
	.byte	W01
@ 026   ----------------------------------------
	.byte	W96
@ 027   ----------------------------------------
	.byte	W96
@ 028   ----------------------------------------
	.byte	W96
@ 029   ----------------------------------------
	.byte	W96
@ 030   ----------------------------------------
	.byte	W96
@ 031   ----------------------------------------
	.byte	W96
@ 032   ----------------------------------------
	.byte	W96
@ 033   ----------------------------------------
	.byte	W96
@ 034   ----------------------------------------
	.byte	W96
@ 035   ----------------------------------------
	.byte	W96
@ 036   ----------------------------------------
	.byte	W96
@ 037   ----------------------------------------
	.byte	W96
@ 038   ----------------------------------------
	.byte	W96
@ 039   ----------------------------------------
	.byte	W96
@ 040   ----------------------------------------
	.byte	W23
	.byte		        c_v+17
	.byte	W72
	.byte	GOTO
	 .word	Distrust_2_B1
Distrust_2_B2:
	.byte	FINE

@**************** Track 3 (Midi-Chn.3) ****************@

Distrust_3:
	.byte	KEYSH , Distrust_key+0
Distrust_3_B1:
@ 000   ----------------------------------------
	.byte		VOICE , 51
	.byte		MODT  , 0
	.byte		LFOS  , 44
	.byte		VOL   , 124*Distrust_mvl/mxv
	.byte		PAN   , c_v+0
	.byte		TIE   , Gs1 , v127
	.byte	W96
@ 001   ----------------------------------------
	.byte	W96
	.byte		EOT   
@ 002   ----------------------------------------
	.byte		TIE   , Fs1 
	.byte	W96
@ 003   ----------------------------------------
	.byte	W96
	.byte		EOT   
@ 004   ----------------------------------------
	.byte		TIE   , Gs1 
	.byte	W96
@ 005   ----------------------------------------
	.byte	W96
	.byte		EOT   
@ 006   ----------------------------------------
	.byte		TIE   , Fs1 
	.byte	W96
@ 007   ----------------------------------------
	.byte	W96
	.byte		EOT   
@ 008   ----------------------------------------
	.byte		N96   , En1 
	.byte	W96
@ 009   ----------------------------------------
	.byte		        Ds1 
	.byte	W96
@ 010   ----------------------------------------
	.byte		        Fs1 
	.byte	W96
@ 011   ----------------------------------------
Distrust_3_011:
	.byte		N48   , Gs1 , v127
	.byte	W48
	.byte		        Fs1 
	.byte	W48
	.byte	PEND
@ 012   ----------------------------------------
	.byte		N96   , En1 
	.byte	W96
@ 013   ----------------------------------------
	.byte		        Ds1 
	.byte	W96
@ 014   ----------------------------------------
	.byte		        Fs1 
	.byte	W96
@ 015   ----------------------------------------
	.byte	PATT
	 .word	Distrust_3_011
@ 016   ----------------------------------------
	.byte		TIE   , Gs1 , v127
	.byte	W96
@ 017   ----------------------------------------
	.byte	W96
	.byte		EOT   
@ 018   ----------------------------------------
	.byte		TIE   , Fs1 
	.byte	W96
@ 019   ----------------------------------------
	.byte	W96
	.byte		EOT   
@ 020   ----------------------------------------
	.byte		TIE   , Gs1 
	.byte	W96
@ 021   ----------------------------------------
	.byte	W96
	.byte		EOT   
@ 022   ----------------------------------------
	.byte		TIE   , Fs1 
	.byte	W96
@ 023   ----------------------------------------
	.byte	W96
	.byte		EOT   
@ 024   ----------------------------------------
	.byte		N96   , En1 
	.byte	W96
@ 025   ----------------------------------------
	.byte		        Ds1 
	.byte	W96
@ 026   ----------------------------------------
	.byte		        Fs1 
	.byte	W96
@ 027   ----------------------------------------
	.byte	PATT
	 .word	Distrust_3_011
@ 028   ----------------------------------------
	.byte		N96   , En1 , v127
	.byte	W96
@ 029   ----------------------------------------
	.byte		        Ds1 
	.byte	W96
@ 030   ----------------------------------------
	.byte		        Fs1 
	.byte	W96
@ 031   ----------------------------------------
	.byte		N48   , Gs1 
	.byte	W48
	.byte		N42   , Fs1 
	.byte	W48
@ 032   ----------------------------------------
	.byte		N96   , Gs1 
	.byte	W96
@ 033   ----------------------------------------
	.byte		        Cs1 
	.byte	W96
@ 034   ----------------------------------------
	.byte		        Ds1 
	.byte	W96
@ 035   ----------------------------------------
	.byte		        Gs1 
	.byte	W96
@ 036   ----------------------------------------
	.byte		        En1 
	.byte	W96
@ 037   ----------------------------------------
	.byte		        Ds1 
	.byte	W96
@ 038   ----------------------------------------
	.byte		        Cs1 
	.byte	W96
@ 039   ----------------------------------------
	.byte		        Ds1 
	.byte	W96
@ 040   ----------------------------------------
	.byte		N90   , Gn1 
	.byte	W92
	.byte	W03
	.byte	GOTO
	 .word	Distrust_3_B1
Distrust_3_B2:
	.byte	FINE

@**************** Track 4 (Midi-Chn.4) ****************@

Distrust_4:
	.byte	KEYSH , Distrust_key+0
Distrust_4_B1:
@ 000   ----------------------------------------
	.byte		VOICE , 50
	.byte		MODT  , 0
	.byte		LFOS  , 44
	.byte		PAN   , c_v+18
	.byte		VOL   , 100*Distrust_mvl/mxv
	.byte		N96   , Gs3 , v076
	.byte		N96   , Bn3 
	.byte		N96   , Ds4 
	.byte	W96
@ 001   ----------------------------------------
Distrust_4_001:
	.byte		N96   , Gs3 , v076
	.byte		N96   , Cs4 
	.byte		N96   , En4 
	.byte	W96
	.byte	PEND
@ 002   ----------------------------------------
Distrust_4_002:
	.byte		N96   , Bn3 , v076
	.byte		N96   , Ds4 
	.byte		N96   , Fs4 
	.byte	W96
	.byte	PEND
@ 003   ----------------------------------------
Distrust_4_003:
	.byte		N96   , As3 , v076
	.byte		N96   , Cs4 
	.byte		N96   , Fs4 
	.byte	W96
	.byte	PEND
@ 004   ----------------------------------------
Distrust_4_004:
	.byte		N96   , Gs3 , v076
	.byte		N96   , Bn3 
	.byte		N96   , Ds4 
	.byte	W96
	.byte	PEND
@ 005   ----------------------------------------
	.byte	PATT
	 .word	Distrust_4_001
@ 006   ----------------------------------------
	.byte	PATT
	 .word	Distrust_4_002
@ 007   ----------------------------------------
	.byte	PATT
	 .word	Distrust_4_003
@ 008   ----------------------------------------
	.byte	PATT
	 .word	Distrust_4_001
@ 009   ----------------------------------------
Distrust_4_009:
	.byte		N96   , Fs3 , v076
	.byte		N96   , Bn3 
	.byte		N96   , Ds4 
	.byte	W96
	.byte	PEND
@ 010   ----------------------------------------
Distrust_4_010:
	.byte		N96   , En3 , v076
	.byte		N96   , Fs3 
	.byte		N96   , As3 
	.byte		N96   , Cs4 
	.byte	W96
	.byte	PEND
@ 011   ----------------------------------------
Distrust_4_011:
	.byte		N48   , Gs3 , v076
	.byte		N48   , Bn3 
	.byte		N48   , Ds4 
	.byte	W48
	.byte		        Fs3 
	.byte		N48   , As3 
	.byte		N48   , Cs4 
	.byte	W48
	.byte	PEND
@ 012   ----------------------------------------
	.byte	PATT
	 .word	Distrust_4_001
@ 013   ----------------------------------------
	.byte	PATT
	 .word	Distrust_4_009
@ 014   ----------------------------------------
	.byte	PATT
	 .word	Distrust_4_010
@ 015   ----------------------------------------
	.byte	PATT
	 .word	Distrust_4_011
@ 016   ----------------------------------------
	.byte	PATT
	 .word	Distrust_4_004
@ 017   ----------------------------------------
	.byte	PATT
	 .word	Distrust_4_001
@ 018   ----------------------------------------
	.byte	PATT
	 .word	Distrust_4_002
@ 019   ----------------------------------------
	.byte	PATT
	 .word	Distrust_4_003
@ 020   ----------------------------------------
	.byte	PATT
	 .word	Distrust_4_004
@ 021   ----------------------------------------
	.byte	PATT
	 .word	Distrust_4_001
@ 022   ----------------------------------------
	.byte	PATT
	 .word	Distrust_4_002
@ 023   ----------------------------------------
	.byte	PATT
	 .word	Distrust_4_003
@ 024   ----------------------------------------
	.byte	PATT
	 .word	Distrust_4_001
@ 025   ----------------------------------------
	.byte	PATT
	 .word	Distrust_4_009
@ 026   ----------------------------------------
	.byte	PATT
	 .word	Distrust_4_010
@ 027   ----------------------------------------
	.byte	PATT
	 .word	Distrust_4_011
@ 028   ----------------------------------------
	.byte	PATT
	 .word	Distrust_4_001
@ 029   ----------------------------------------
	.byte	PATT
	 .word	Distrust_4_009
@ 030   ----------------------------------------
	.byte	PATT
	 .word	Distrust_4_010
@ 031   ----------------------------------------
	.byte	PATT
	 .word	Distrust_4_011
@ 032   ----------------------------------------
	.byte		N90   , Ds3 , v076
	.byte		TIE   , Gs3 
	.byte		N90   , Cn4 
	.byte	W96
@ 033   ----------------------------------------
	.byte		        Fn3 
	.byte		TIE   , Cs4 
	.byte	W90
	.byte		EOT   , Gs3 
	.byte	W06
@ 034   ----------------------------------------
	.byte		N90   , Gn3 
	.byte		N90   , As3 
	.byte		TIE   , Ds4 
	.byte	W90
	.byte		EOT   , Cs4 
	.byte	W06
@ 035   ----------------------------------------
	.byte		N90   , Gs3 
	.byte		N90   , Cn4 
	.byte	W90
	.byte		EOT   , Ds4 
	.byte	W06
@ 036   ----------------------------------------
	.byte	PATT
	 .word	Distrust_4_001
@ 037   ----------------------------------------
	.byte	PATT
	 .word	Distrust_4_009
@ 038   ----------------------------------------
	.byte		N96   , En3 , v076
	.byte		N96   , Gs3 
	.byte		N96   , Cs4 
	.byte	W96
@ 039   ----------------------------------------
	.byte		N90   , Gs3 
	.byte		N90   , Bn3 
	.byte		TIE   , Ds4 
	.byte	W96
@ 040   ----------------------------------------
	.byte		N90   , Gn3 
	.byte		N90   , As3 
	.byte	W90
	.byte		EOT   , Ds4 
	.byte	W05
	.byte	GOTO
	 .word	Distrust_4_B1
Distrust_4_B2:
	.byte	FINE

@**************** Track 5 (Midi-Chn.5) ****************@

Distrust_5:
	.byte	KEYSH , Distrust_key+0
Distrust_5_B1:
@ 000   ----------------------------------------
	.byte		VOICE , 54
	.byte		MODT  , 0
	.byte		LFOS  , 44
	.byte		PAN   , c_v-8
	.byte		VOL   , 112*Distrust_mvl/mxv
	.byte	W96
@ 001   ----------------------------------------
	.byte	W96
@ 002   ----------------------------------------
	.byte	W96
@ 003   ----------------------------------------
	.byte	W96
@ 004   ----------------------------------------
	.byte	W96
@ 005   ----------------------------------------
	.byte	W96
@ 006   ----------------------------------------
	.byte	W96
@ 007   ----------------------------------------
	.byte	W96
@ 008   ----------------------------------------
	.byte	W96
@ 009   ----------------------------------------
	.byte	W96
@ 010   ----------------------------------------
	.byte	W96
@ 011   ----------------------------------------
	.byte	W96
@ 012   ----------------------------------------
	.byte	W96
@ 013   ----------------------------------------
	.byte	W96
@ 014   ----------------------------------------
	.byte	W96
@ 015   ----------------------------------------
	.byte	W96
@ 016   ----------------------------------------
Distrust_5_016:
	.byte		N96   , Gs3 , v076
	.byte		N96   , Bn3 
	.byte		N96   , Ds4 
	.byte	W96
	.byte	PEND
@ 017   ----------------------------------------
Distrust_5_017:
	.byte		N96   , Gs3 , v076
	.byte		N96   , Cs4 
	.byte		N96   , En4 
	.byte	W96
	.byte	PEND
@ 018   ----------------------------------------
Distrust_5_018:
	.byte		N96   , Bn3 , v076
	.byte		N96   , Ds4 
	.byte		N96   , Fs4 
	.byte	W96
	.byte	PEND
@ 019   ----------------------------------------
Distrust_5_019:
	.byte		N96   , As3 , v076
	.byte		N96   , Cs4 
	.byte		N96   , Fs4 
	.byte	W96
	.byte	PEND
@ 020   ----------------------------------------
	.byte	PATT
	 .word	Distrust_5_016
@ 021   ----------------------------------------
	.byte	PATT
	 .word	Distrust_5_017
@ 022   ----------------------------------------
	.byte	PATT
	 .word	Distrust_5_018
@ 023   ----------------------------------------
	.byte	PATT
	 .word	Distrust_5_019
@ 024   ----------------------------------------
	.byte	PATT
	 .word	Distrust_5_017
@ 025   ----------------------------------------
Distrust_5_025:
	.byte		N96   , Fs3 , v076
	.byte		N96   , Bn3 
	.byte		N96   , Ds4 
	.byte	W96
	.byte	PEND
@ 026   ----------------------------------------
Distrust_5_026:
	.byte		N96   , En3 , v076
	.byte		N96   , Fs3 
	.byte		N96   , As3 
	.byte		N96   , Cs4 
	.byte	W96
	.byte	PEND
@ 027   ----------------------------------------
	.byte		N48   , Gs3 
	.byte		N48   , Bn3 
	.byte		N48   , Ds4 
	.byte	W48
	.byte		        Fs3 
	.byte		N48   , As3 
	.byte		N48   , Cs4 
	.byte	W48
@ 028   ----------------------------------------
	.byte	PATT
	 .word	Distrust_5_017
@ 029   ----------------------------------------
	.byte	PATT
	 .word	Distrust_5_025
@ 030   ----------------------------------------
	.byte	PATT
	 .word	Distrust_5_026
@ 031   ----------------------------------------
	.byte		N48   , Gs3 , v076
	.byte		N48   , Bn3 
	.byte		N48   , Ds4 
	.byte	W48
	.byte		N42   , Fs3 
	.byte		N42   , As3 
	.byte		N42   , Cs4 
	.byte	W48
@ 032   ----------------------------------------
	.byte	W96
@ 033   ----------------------------------------
	.byte	W96
@ 034   ----------------------------------------
	.byte	W96
@ 035   ----------------------------------------
	.byte	W96
@ 036   ----------------------------------------
	.byte	PATT
	 .word	Distrust_5_017
@ 037   ----------------------------------------
	.byte	PATT
	 .word	Distrust_5_025
@ 038   ----------------------------------------
	.byte		N96   , En3 , v076
	.byte		N96   , Gs3 
	.byte		N96   , Cs4 
	.byte	W96
@ 039   ----------------------------------------
	.byte		N90   , Gs3 
	.byte		N90   , Bn3 
	.byte		TIE   , Ds4 
	.byte	W96
@ 040   ----------------------------------------
	.byte		N90   , Gn3 
	.byte		N90   , As3 
	.byte	W90
	.byte		EOT   , Ds4 
	.byte	W05
	.byte	GOTO
	 .word	Distrust_5_B1
Distrust_5_B2:
	.byte	FINE

@**************** Track 6 (Midi-Chn.7) ****************@

Distrust_6:
	.byte	KEYSH , Distrust_key+0
Distrust_6_B1:
@ 000   ----------------------------------------
	.byte		VOICE , 73
	.byte		MODT  , 0
	.byte		LFOS  , 44
	.byte		PAN   , c_v+18
	.byte		VOL   , 127*Distrust_mvl/mxv
	.byte	W96
@ 001   ----------------------------------------
	.byte	W96
@ 002   ----------------------------------------
	.byte	W96
@ 003   ----------------------------------------
	.byte	W96
@ 004   ----------------------------------------
	.byte	W96
@ 005   ----------------------------------------
	.byte	W96
@ 006   ----------------------------------------
	.byte	W96
@ 007   ----------------------------------------
	.byte	W96
@ 008   ----------------------------------------
	.byte	W96
@ 009   ----------------------------------------
	.byte	W96
@ 010   ----------------------------------------
	.byte	W96
@ 011   ----------------------------------------
	.byte	W96
@ 012   ----------------------------------------
	.byte	W96
@ 013   ----------------------------------------
	.byte	W96
@ 014   ----------------------------------------
	.byte	W96
@ 015   ----------------------------------------
	.byte	W96
@ 016   ----------------------------------------
	.byte		TIE   , Gs1 , v127
	.byte	W96
@ 017   ----------------------------------------
	.byte	W96
	.byte		EOT   
@ 018   ----------------------------------------
	.byte		TIE   , Fs1 
	.byte	W96
@ 019   ----------------------------------------
	.byte	W96
	.byte		EOT   
@ 020   ----------------------------------------
	.byte		TIE   , Gs1 
	.byte	W96
@ 021   ----------------------------------------
	.byte	W96
	.byte		EOT   
@ 022   ----------------------------------------
	.byte		TIE   , Fs1 
	.byte	W96
@ 023   ----------------------------------------
	.byte	W96
	.byte		EOT   
@ 024   ----------------------------------------
	.byte		N96   , En1 
	.byte	W96
@ 025   ----------------------------------------
	.byte		        Ds1 
	.byte	W96
@ 026   ----------------------------------------
	.byte		        Fs1 
	.byte	W96
@ 027   ----------------------------------------
	.byte		N48   , Gs1 
	.byte	W48
	.byte		        Fs1 
	.byte	W48
@ 028   ----------------------------------------
	.byte		N96   , En1 
	.byte	W96
@ 029   ----------------------------------------
	.byte		        Ds1 
	.byte	W96
@ 030   ----------------------------------------
	.byte		        Fs1 
	.byte	W96
@ 031   ----------------------------------------
	.byte		N48   , Gs1 
	.byte	W48
	.byte		N42   , Fs1 
	.byte	W48
@ 032   ----------------------------------------
	.byte	W96
@ 033   ----------------------------------------
	.byte	W96
@ 034   ----------------------------------------
	.byte	W96
@ 035   ----------------------------------------
	.byte	W96
@ 036   ----------------------------------------
	.byte		N96   , En1 
	.byte	W96
@ 037   ----------------------------------------
	.byte		        Ds1 
	.byte	W96
@ 038   ----------------------------------------
	.byte		        Cs1 
	.byte	W96
@ 039   ----------------------------------------
	.byte		        Ds1 
	.byte	W96
@ 040   ----------------------------------------
	.byte		N90   , Gn1 
	.byte	W92
	.byte	W03
	.byte	GOTO
	 .word	Distrust_6_B1
Distrust_6_B2:
	.byte	FINE

@**************** Track 7 (Midi-Chn.8) ****************@

Distrust_7:
	.byte	KEYSH , Distrust_key+0
Distrust_7_B1:
@ 000   ----------------------------------------
	.byte		VOICE , 40
	.byte		MODT  , 0
	.byte		LFOS  , 44
	.byte		PAN   , c_v-8
	.byte		VOL   , 127*Distrust_mvl/mxv
	.byte		N42   , Gs3 , v127
	.byte	W48
	.byte		N15   , Bn3 
	.byte	W16
	.byte		        Cs4 
	.byte	W16
	.byte		        Ds4 
	.byte	W16
@ 001   ----------------------------------------
	.byte		N42   , Cs4 
	.byte	W48
	.byte		N15   , En4 
	.byte	W16
	.byte		        Ds4 
	.byte	W16
	.byte		        Cs4 
	.byte	W16
@ 002   ----------------------------------------
	.byte		        Bn3 
	.byte	W16
	.byte		        As3 
	.byte	W16
	.byte		        Bn3 
	.byte	W16
	.byte		        Ds4 
	.byte	W16
	.byte		        Cs4 
	.byte	W16
	.byte		        Bn3 
	.byte	W16
@ 003   ----------------------------------------
	.byte		N32   
	.byte	W36
	.byte		N05   , Cs4 
	.byte	W06
	.byte		        Bn3 
	.byte	W06
	.byte		N15   , As3 
	.byte	W16
	.byte		        Gs3 
	.byte	W16
	.byte		        Fs3 
	.byte	W16
@ 004   ----------------------------------------
	.byte		N42   , Gs3 
	.byte	W48
	.byte		N15   , Bn3 
	.byte	W16
	.byte		        Cs4 
	.byte	W16
	.byte		        Ds4 
	.byte	W16
@ 005   ----------------------------------------
	.byte		        En4 
	.byte	W16
	.byte		        Ds4 
	.byte	W16
	.byte		        En4 
	.byte	W16
	.byte		        Gs4 
	.byte	W16
	.byte		        As4 
	.byte	W16
	.byte		        Gs4 
	.byte	W16
@ 006   ----------------------------------------
	.byte		        Fs4 
	.byte	W16
	.byte		        En4 
	.byte	W16
	.byte		        Ds4 
	.byte	W16
	.byte		        Cs4 
	.byte	W16
	.byte		        Ds4 
	.byte	W16
	.byte		        Bn3 
	.byte	W16
@ 007   ----------------------------------------
	.byte		N32   , Cs4 
	.byte	W36
	.byte		N05   , Ds4 
	.byte	W06
	.byte		        En4 
	.byte	W06
	.byte		N42   , Fs4 
	.byte	W48
@ 008   ----------------------------------------
	.byte		N15   , En4 
	.byte	W16
	.byte		        Cs4 
	.byte	W16
	.byte		        En4 
	.byte	W16
	.byte		        Gs4 
	.byte	W16
	.byte		        Fs4 
	.byte	W16
	.byte		        En4 
	.byte	W16
@ 009   ----------------------------------------
	.byte		        Ds4 
	.byte	W16
	.byte		        Cs4 
	.byte	W16
	.byte		        Ds4 
	.byte	W16
	.byte		N20   , Bn3 
	.byte	W24
	.byte		        Fs3 
	.byte	W24
@ 010   ----------------------------------------
	.byte		N15   , As3 
	.byte	W16
	.byte		        Gs3 
	.byte	W16
	.byte		        As3 
	.byte	W16
	.byte		N42   , Cs4 
	.byte	W48
@ 011   ----------------------------------------
	.byte		N15   , Ds4 
	.byte	W16
	.byte		        Cs4 
	.byte	W16
	.byte		        Bn3 
	.byte	W16
	.byte		N42   , Fs4 
	.byte	W48
@ 012   ----------------------------------------
	.byte		N15   , Gs4 
	.byte	W16
	.byte		        Fs4 
	.byte	W16
	.byte		        Gs4 
	.byte	W16
	.byte		        Cs5 
	.byte	W16
	.byte		        Ds5 
	.byte	W16
	.byte		        Cs5 
	.byte	W16
@ 013   ----------------------------------------
	.byte		        Bn4 
	.byte	W16
	.byte		        As4 
	.byte	W16
	.byte		        Gs4 
	.byte	W16
	.byte		        Fs4 
	.byte	W16
	.byte		        En4 
	.byte	W16
	.byte		        Ds4 
	.byte	W16
@ 014   ----------------------------------------
	.byte		        En4 
	.byte	W16
	.byte		        Fs4 
	.byte	W16
	.byte		        As4 
	.byte	W16
	.byte		        Cs5 
	.byte	W16
	.byte		        Bn4 
	.byte	W16
	.byte		        As4 
	.byte	W16
@ 015   ----------------------------------------
	.byte		N42   , Gs4 
	.byte	W48
	.byte		        Fs4 
	.byte	W48
@ 016   ----------------------------------------
	.byte	W96
@ 017   ----------------------------------------
	.byte	W96
@ 018   ----------------------------------------
	.byte	W96
@ 019   ----------------------------------------
	.byte	W96
@ 020   ----------------------------------------
	.byte	W96
@ 021   ----------------------------------------
	.byte	W96
@ 022   ----------------------------------------
	.byte	W96
@ 023   ----------------------------------------
	.byte	W96
@ 024   ----------------------------------------
	.byte	W96
@ 025   ----------------------------------------
	.byte	W96
@ 026   ----------------------------------------
	.byte	W96
@ 027   ----------------------------------------
	.byte	W96
@ 028   ----------------------------------------
	.byte	W96
@ 029   ----------------------------------------
	.byte	W96
@ 030   ----------------------------------------
	.byte	W96
@ 031   ----------------------------------------
	.byte	W96
@ 032   ----------------------------------------
	.byte		N15   , Gs3 
	.byte	W16
	.byte		        Cn4 
	.byte	W16
	.byte		        Gs3 
	.byte	W16
	.byte		        Ds4 
	.byte	W16
	.byte		        Cs4 
	.byte	W16
	.byte		        Cn4 
	.byte	W16
@ 033   ----------------------------------------
	.byte		N42   , Cs4 
	.byte	W48
	.byte		        Fn4 
	.byte	W48
@ 034   ----------------------------------------
	.byte		N15   , Ds4 
	.byte	W16
	.byte		        Cs4 
	.byte	W16
	.byte		        Cn4 
	.byte	W16
	.byte		        Cs4 
	.byte	W16
	.byte		        Cn4 
	.byte	W16
	.byte		        As3 
	.byte	W16
@ 035   ----------------------------------------
	.byte		N42   , Cn4 
	.byte	W48
	.byte		        Ds4 
	.byte	W48
@ 036   ----------------------------------------
	.byte	W96
@ 037   ----------------------------------------
	.byte	W96
@ 038   ----------------------------------------
	.byte	W96
@ 039   ----------------------------------------
	.byte	W96
@ 040   ----------------------------------------
	.byte	W92
	.byte	W03
	.byte	GOTO
	 .word	Distrust_7_B1
Distrust_7_B2:
	.byte	FINE

@**************** Track 8 (Midi-Chn.9) ****************@

Distrust_8:
	.byte	KEYSH , Distrust_key+0
Distrust_8_B1:
@ 000   ----------------------------------------
	.byte		VOICE , 41
	.byte		MODT  , 0
	.byte		LFOS  , 44
	.byte		PAN   , c_v+21
	.byte		VOL   , 117*Distrust_mvl/mxv
	.byte		TIE   , Gs5 , v076
	.byte	W96
@ 001   ----------------------------------------
	.byte	W96
	.byte		EOT   
@ 002   ----------------------------------------
	.byte		TIE   , Fs5 
	.byte	W96
@ 003   ----------------------------------------
	.byte	W96
	.byte		EOT   
@ 004   ----------------------------------------
	.byte		TIE   , Gs5 
	.byte	W96
@ 005   ----------------------------------------
	.byte	W96
	.byte		EOT   
@ 006   ----------------------------------------
	.byte		TIE   , Fs5 
	.byte	W96
@ 007   ----------------------------------------
	.byte	W96
	.byte		EOT   
@ 008   ----------------------------------------
	.byte		N96   , En5 
	.byte	W96
@ 009   ----------------------------------------
	.byte		        Ds5 
	.byte	W96
@ 010   ----------------------------------------
	.byte		        Fs5 
	.byte	W96
@ 011   ----------------------------------------
Distrust_8_011:
	.byte		N48   , Gs5 , v076
	.byte	W48
	.byte		        Fs5 
	.byte	W48
	.byte	PEND
@ 012   ----------------------------------------
	.byte		N96   , En5 
	.byte	W96
@ 013   ----------------------------------------
	.byte		        Ds5 
	.byte	W96
@ 014   ----------------------------------------
	.byte		        Fs5 
	.byte	W96
@ 015   ----------------------------------------
	.byte	PATT
	 .word	Distrust_8_011
@ 016   ----------------------------------------
	.byte		TIE   , Gs5 , v076
	.byte	W96
@ 017   ----------------------------------------
	.byte	W96
	.byte		EOT   
@ 018   ----------------------------------------
	.byte		TIE   , Fs5 
	.byte	W96
@ 019   ----------------------------------------
	.byte	W96
	.byte		EOT   
@ 020   ----------------------------------------
	.byte		TIE   , Gs5 
	.byte	W96
@ 021   ----------------------------------------
	.byte	W96
	.byte		EOT   
@ 022   ----------------------------------------
	.byte		TIE   , Fs5 
	.byte	W96
@ 023   ----------------------------------------
	.byte	W96
	.byte		EOT   
@ 024   ----------------------------------------
	.byte		N96   , En5 
	.byte	W96
@ 025   ----------------------------------------
	.byte		        Ds5 
	.byte	W96
@ 026   ----------------------------------------
	.byte		        Fs5 
	.byte	W96
@ 027   ----------------------------------------
	.byte	PATT
	 .word	Distrust_8_011
@ 028   ----------------------------------------
	.byte		N96   , En5 , v076
	.byte	W96
@ 029   ----------------------------------------
	.byte		        Ds5 
	.byte	W96
@ 030   ----------------------------------------
	.byte		        Fs5 
	.byte	W96
@ 031   ----------------------------------------
	.byte		N48   , Gs5 
	.byte	W48
	.byte		N42   , Fs5 
	.byte	W48
@ 032   ----------------------------------------
	.byte	W96
@ 033   ----------------------------------------
	.byte	W96
@ 034   ----------------------------------------
	.byte	W96
@ 035   ----------------------------------------
	.byte	W96
@ 036   ----------------------------------------
	.byte		N96   , En5 
	.byte	W96
@ 037   ----------------------------------------
	.byte		        Fs5 
	.byte	W96
@ 038   ----------------------------------------
	.byte		TIE   , Gs5 
	.byte	W96
@ 039   ----------------------------------------
	.byte	W96
	.byte		EOT   
@ 040   ----------------------------------------
	.byte		N90   , Gn5 
	.byte	W92
	.byte	W03
	.byte	GOTO
	 .word	Distrust_8_B1
Distrust_8_B2:
	.byte	FINE

@******************************************************@
	.align	2

Distrust:
	.byte	8	@ NumTrks
	.byte	0	@ NumBlks
	.byte	Distrust_pri	@ Priority
	.byte	Distrust_rev	@ Reverb.

	.word	Distrust_grp

	.word	Distrust_1
	.word	Distrust_2
	.word	Distrust_3
	.word	Distrust_4
	.word	Distrust_5
	.word	Distrust_6
	.word	Distrust_7
	.word	Distrust_8

	.end
