//Event file generated from Sappy .s format.
	#include "MPlayDef.event"

	#define	Distrust_grp  voicegroup000
	#define	Distrust_pri  0
	#define	Distrust_rev  192
	#define	Distrust_mvl  35
	#define	Distrust_key  0
	#define	Distrust_tbs  1
	#define	Distrust_exg  0
	#define	Distrust_cmp  1

	// .rodata
	//	Distrust
	ALIGN 4

//**************** Track 1 (Midi-Chn.1) ****************//

Distrust_1:
	BYTE	KEYSH   Distrust_key+0
Distrust_1_B1:
// 000   ----------------------------------------
	BYTE	TEMPO   75*Distrust_tbs/2
	BYTE		VOICE   1
	BYTE		MODT    0
	BYTE		LFOS    44
	BYTE		PAN     c_v+3
	BYTE		VOL     127*Distrust_mvl/mxv
	BYTE	W96
// 001   ----------------------------------------
	BYTE	W96
// 002   ----------------------------------------
	BYTE	W96
// 003   ----------------------------------------
	BYTE	W96
// 004   ----------------------------------------
	BYTE	W96
// 005   ----------------------------------------
	BYTE	W96
// 006   ----------------------------------------
	BYTE	W96
// 007   ----------------------------------------
	BYTE	W96
// 008   ----------------------------------------
	BYTE	W96
// 009   ----------------------------------------
	BYTE	W96
// 010   ----------------------------------------
	BYTE	W96
// 011   ----------------------------------------
	BYTE	W96
// 012   ----------------------------------------
	BYTE	W96
// 013   ----------------------------------------
	BYTE	W96
// 014   ----------------------------------------
	BYTE	W96
// 015   ----------------------------------------
	BYTE	W96
// 016   ----------------------------------------
	BYTE	W96
// 017   ----------------------------------------
	BYTE	W96
// 018   ----------------------------------------
	BYTE	W96
// 019   ----------------------------------------
	BYTE	W96
// 020   ----------------------------------------
Distrust_1_020:
	BYTE		N15     En4   v127
	BYTE	W16
	BYTE		        Ds4 
	BYTE	W16
	BYTE		        Cs4 
	BYTE	W16
	BYTE		        Bn3 
	BYTE	W16
	BYTE		        As3 
	BYTE	W16
	BYTE		        Gs3 
	BYTE	W16
	BYTE	PEND
// 021   ----------------------------------------
Distrust_1_021:
	BYTE		N42     Fs3   v127
	BYTE	W48
	BYTE		N15     Bn3 
	BYTE	W16
	BYTE		        Cs4 
	BYTE	W16
	BYTE		        Ds4 
	BYTE	W16
	BYTE	PEND
// 022   ----------------------------------------
Distrust_1_022:
	BYTE		N42     Cs4   v127
	BYTE	W48
	BYTE		        En4 
	BYTE	W48
	BYTE	PEND
// 023   ----------------------------------------
	BYTE		N96     Ds4 
	BYTE	W96
// 024   ----------------------------------------
	BYTE	PATT
	 POIN2	Distrust_1_020
// 025   ----------------------------------------
	BYTE	PATT
	 POIN2	Distrust_1_021
// 026   ----------------------------------------
	BYTE	PATT
	 POIN2	Distrust_1_022
// 027   ----------------------------------------
	BYTE		N24     Ds4   v127
	BYTE	W24
	BYTE		N48     Cs4 
	BYTE	W24
	BYTE		N30     Bn3 
	BYTE	W24
	BYTE		N42     Ds4 
	BYTE	W24
// 028   ----------------------------------------
	BYTE		N72     Cs4 
	BYTE	W96
// 029   ----------------------------------------
	BYTE	W96
// 030   ----------------------------------------
	BYTE	W96
// 031   ----------------------------------------
	BYTE	W96
// 032   ----------------------------------------
	BYTE	W96
// 033   ----------------------------------------
	BYTE	W96
// 034   ----------------------------------------
	BYTE	W96
// 035   ----------------------------------------
	BYTE	W96
// 036   ----------------------------------------
	BYTE	W96
// 037   ----------------------------------------
	BYTE	W96
// 038   ----------------------------------------
	BYTE	W96
// 039   ----------------------------------------
	BYTE	W96
// 040   ----------------------------------------
	BYTE	W92
	BYTE	W03
	BYTE	GoTo
	 POIN2	Distrust_1_B1
Distrust_1_B2:
	BYTE	FINE

//**************** Track 2 (Midi-Chn.2) ****************//

Distrust_2:
	BYTE	KEYSH   Distrust_key+0
Distrust_2_B1:
// 000   ----------------------------------------
	BYTE		VOICE   42
	BYTE		MODT    0
	BYTE		LFOS    44
	BYTE		VOL     100*Distrust_mvl/mxv
	BYTE		PAN     c_v+0
	BYTE		N42     Gs3   v127
	BYTE	W48
	BYTE		N15     Bn3 
	BYTE	W16
	BYTE		        Cs4 
	BYTE	W16
	BYTE		        Ds4 
	BYTE	W16
// 001   ----------------------------------------
	BYTE		N42     Cs4 
	BYTE	W48
	BYTE		N15     En4 
	BYTE	W16
	BYTE		        Ds4 
	BYTE	W16
	BYTE		        Cs4 
	BYTE	W16
// 002   ----------------------------------------
	BYTE		        Bn3 
	BYTE	W16
	BYTE		        As3 
	BYTE	W16
	BYTE		        Bn3 
	BYTE	W16
	BYTE		        Ds4 
	BYTE	W16
	BYTE		        Cs4 
	BYTE	W16
	BYTE		        Bn3 
	BYTE	W16
// 003   ----------------------------------------
	BYTE		N32   
	BYTE	W36
	BYTE		N05     Cs4 
	BYTE	W06
	BYTE		        Bn3 
	BYTE	W06
	BYTE		N15     As3 
	BYTE	W16
	BYTE		        Gs3 
	BYTE	W16
	BYTE		        Fs3 
	BYTE	W16
// 004   ----------------------------------------
	BYTE		N42     Gs3 
	BYTE	W48
	BYTE		N15     Bn3 
	BYTE	W16
	BYTE		        Cs4 
	BYTE	W16
	BYTE		        Ds4 
	BYTE	W16
// 005   ----------------------------------------
	BYTE		        En4 
	BYTE	W16
	BYTE		        Ds4 
	BYTE	W16
	BYTE		        En4 
	BYTE	W16
	BYTE		        Gs4 
	BYTE	W16
	BYTE		        As4 
	BYTE	W16
	BYTE		        Gs4 
	BYTE	W16
// 006   ----------------------------------------
	BYTE		        Fs4 
	BYTE	W16
	BYTE		        En4 
	BYTE	W16
	BYTE		        Ds4 
	BYTE	W16
	BYTE		        Cs4 
	BYTE	W16
	BYTE		        Ds4 
	BYTE	W16
	BYTE		        Bn3 
	BYTE	W16
// 007   ----------------------------------------
	BYTE		N32     Cs4 
	BYTE	W36
	BYTE		N05     Ds4 
	BYTE	W06
	BYTE		        En4 
	BYTE	W06
	BYTE		N42     Fs4 
	BYTE	W48
// 008   ----------------------------------------
	BYTE		N15     En4 
	BYTE	W16
	BYTE		        Cs4 
	BYTE	W16
	BYTE		        En4 
	BYTE	W16
	BYTE		        Gs4 
	BYTE	W16
	BYTE		        Fs4 
	BYTE	W16
	BYTE		        En4 
	BYTE	W16
// 009   ----------------------------------------
	BYTE		        Ds4 
	BYTE	W16
	BYTE		        Cs4 
	BYTE	W16
	BYTE		        Ds4 
	BYTE	W16
	BYTE		N20     Bn3 
	BYTE	W24
	BYTE		        Fs3 
	BYTE	W24
// 010   ----------------------------------------
	BYTE		N15     As3 
	BYTE	W16
	BYTE		        Gs3 
	BYTE	W16
	BYTE		        As3 
	BYTE	W16
	BYTE		N42     Cs4 
	BYTE	W48
// 011   ----------------------------------------
	BYTE		N15     Ds4 
	BYTE	W16
	BYTE		        Cs4 
	BYTE	W16
	BYTE		        Bn3 
	BYTE	W16
	BYTE		N42     Fs4 
	BYTE	W48
// 012   ----------------------------------------
	BYTE		N15     Gs4 
	BYTE	W16
	BYTE		        Fs4 
	BYTE	W16
	BYTE		        Gs4 
	BYTE	W16
	BYTE		        Cs5 
	BYTE	W16
	BYTE		        Ds5 
	BYTE	W16
	BYTE		        Cs5 
	BYTE	W16
// 013   ----------------------------------------
	BYTE		        Bn4 
	BYTE	W16
	BYTE		        As4 
	BYTE	W16
	BYTE		        Gs4 
	BYTE	W16
	BYTE		        Fs4 
	BYTE	W16
	BYTE		        En4 
	BYTE	W16
	BYTE		        Ds4 
	BYTE	W16
// 014   ----------------------------------------
	BYTE		        En4 
	BYTE	W16
	BYTE		        Fs4 
	BYTE	W16
	BYTE		        As4 
	BYTE	W16
	BYTE		        Cs5 
	BYTE	W16
	BYTE		        Bn4 
	BYTE	W16
	BYTE		        As4 
	BYTE	W16
// 015   ----------------------------------------
	BYTE		N42     Gs4 
	BYTE	W48
	BYTE		        Fs4 
	BYTE	W48
// 016   ----------------------------------------
	BYTE	W96
// 017   ----------------------------------------
	BYTE	W96
// 018   ----------------------------------------
	BYTE	W96
// 019   ----------------------------------------
	BYTE	W96
// 020   ----------------------------------------
	BYTE	W96
// 021   ----------------------------------------
	BYTE	W96
// 022   ----------------------------------------
	BYTE	W96
// 023   ----------------------------------------
	BYTE	W96
// 024   ----------------------------------------
	BYTE	W96
// 025   ----------------------------------------
	BYTE	W23
	BYTE		PAN     c_v+17
	BYTE	W72
	BYTE	W01
// 026   ----------------------------------------
	BYTE	W96
// 027   ----------------------------------------
	BYTE	W96
// 028   ----------------------------------------
	BYTE	W96
// 029   ----------------------------------------
	BYTE	W96
// 030   ----------------------------------------
	BYTE	W96
// 031   ----------------------------------------
	BYTE	W96
// 032   ----------------------------------------
	BYTE	W96
// 033   ----------------------------------------
	BYTE	W96
// 034   ----------------------------------------
	BYTE	W96
// 035   ----------------------------------------
	BYTE	W96
// 036   ----------------------------------------
	BYTE	W96
// 037   ----------------------------------------
	BYTE	W96
// 038   ----------------------------------------
	BYTE	W96
// 039   ----------------------------------------
	BYTE	W96
// 040   ----------------------------------------
	BYTE	W23
	BYTE		        c_v+17
	BYTE	W72
	BYTE	GoTo
	 POIN2	Distrust_2_B1
Distrust_2_B2:
	BYTE	FINE

//**************** Track 3 (Midi-Chn.3) ****************//

Distrust_3:
	BYTE	KEYSH   Distrust_key+0
Distrust_3_B1:
// 000   ----------------------------------------
	BYTE		VOICE   51
	BYTE		MODT    0
	BYTE		LFOS    44
	BYTE		VOL     124*Distrust_mvl/mxv
	BYTE		PAN     c_v+0
	BYTE		TIE     Gs1   v127
	BYTE	W96
// 001   ----------------------------------------
	BYTE	W96
	BYTE		EOT   
// 002   ----------------------------------------
	BYTE		TIE     Fs1 
	BYTE	W96
// 003   ----------------------------------------
	BYTE	W96
	BYTE		EOT   
// 004   ----------------------------------------
	BYTE		TIE     Gs1 
	BYTE	W96
// 005   ----------------------------------------
	BYTE	W96
	BYTE		EOT   
// 006   ----------------------------------------
	BYTE		TIE     Fs1 
	BYTE	W96
// 007   ----------------------------------------
	BYTE	W96
	BYTE		EOT   
// 008   ----------------------------------------
	BYTE		N96     En1 
	BYTE	W96
// 009   ----------------------------------------
	BYTE		        Ds1 
	BYTE	W96
// 010   ----------------------------------------
	BYTE		        Fs1 
	BYTE	W96
// 011   ----------------------------------------
Distrust_3_011:
	BYTE		N48     Gs1   v127
	BYTE	W48
	BYTE		        Fs1 
	BYTE	W48
	BYTE	PEND
// 012   ----------------------------------------
	BYTE		N96     En1 
	BYTE	W96
// 013   ----------------------------------------
	BYTE		        Ds1 
	BYTE	W96
// 014   ----------------------------------------
	BYTE		        Fs1 
	BYTE	W96
// 015   ----------------------------------------
	BYTE	PATT
	 POIN2	Distrust_3_011
// 016   ----------------------------------------
	BYTE		TIE     Gs1   v127
	BYTE	W96
// 017   ----------------------------------------
	BYTE	W96
	BYTE		EOT   
// 018   ----------------------------------------
	BYTE		TIE     Fs1 
	BYTE	W96
// 019   ----------------------------------------
	BYTE	W96
	BYTE		EOT   
// 020   ----------------------------------------
	BYTE		TIE     Gs1 
	BYTE	W96
// 021   ----------------------------------------
	BYTE	W96
	BYTE		EOT   
// 022   ----------------------------------------
	BYTE		TIE     Fs1 
	BYTE	W96
// 023   ----------------------------------------
	BYTE	W96
	BYTE		EOT   
// 024   ----------------------------------------
	BYTE		N96     En1 
	BYTE	W96
// 025   ----------------------------------------
	BYTE		        Ds1 
	BYTE	W96
// 026   ----------------------------------------
	BYTE		        Fs1 
	BYTE	W96
// 027   ----------------------------------------
	BYTE	PATT
	 POIN2	Distrust_3_011
// 028   ----------------------------------------
	BYTE		N96     En1   v127
	BYTE	W96
// 029   ----------------------------------------
	BYTE		        Ds1 
	BYTE	W96
// 030   ----------------------------------------
	BYTE		        Fs1 
	BYTE	W96
// 031   ----------------------------------------
	BYTE		N48     Gs1 
	BYTE	W48
	BYTE		N42     Fs1 
	BYTE	W48
// 032   ----------------------------------------
	BYTE		N96     Gs1 
	BYTE	W96
// 033   ----------------------------------------
	BYTE		        Cs1 
	BYTE	W96
// 034   ----------------------------------------
	BYTE		        Ds1 
	BYTE	W96
// 035   ----------------------------------------
	BYTE		        Gs1 
	BYTE	W96
// 036   ----------------------------------------
	BYTE		        En1 
	BYTE	W96
// 037   ----------------------------------------
	BYTE		        Ds1 
	BYTE	W96
// 038   ----------------------------------------
	BYTE		        Cs1 
	BYTE	W96
// 039   ----------------------------------------
	BYTE		        Ds1 
	BYTE	W96
// 040   ----------------------------------------
	BYTE		N90     Gn1 
	BYTE	W92
	BYTE	W03
	BYTE	GoTo
	 POIN2	Distrust_3_B1
Distrust_3_B2:
	BYTE	FINE

//**************** Track 4 (Midi-Chn.4) ****************//

Distrust_4:
	BYTE	KEYSH   Distrust_key+0
Distrust_4_B1:
// 000   ----------------------------------------
	BYTE		VOICE   50
	BYTE		MODT    0
	BYTE		LFOS    44
	BYTE		PAN     c_v+18
	BYTE		VOL     100*Distrust_mvl/mxv
	BYTE		N96     Gs3   v076
	BYTE		N96     Bn3 
	BYTE		N96     Ds4 
	BYTE	W96
// 001   ----------------------------------------
Distrust_4_001:
	BYTE		N96     Gs3   v076
	BYTE		N96     Cs4 
	BYTE		N96     En4 
	BYTE	W96
	BYTE	PEND
// 002   ----------------------------------------
Distrust_4_002:
	BYTE		N96     Bn3   v076
	BYTE		N96     Ds4 
	BYTE		N96     Fs4 
	BYTE	W96
	BYTE	PEND
// 003   ----------------------------------------
Distrust_4_003:
	BYTE		N96     As3   v076
	BYTE		N96     Cs4 
	BYTE		N96     Fs4 
	BYTE	W96
	BYTE	PEND
// 004   ----------------------------------------
Distrust_4_004:
	BYTE		N96     Gs3   v076
	BYTE		N96     Bn3 
	BYTE		N96     Ds4 
	BYTE	W96
	BYTE	PEND
// 005   ----------------------------------------
	BYTE	PATT
	 POIN2	Distrust_4_001
// 006   ----------------------------------------
	BYTE	PATT
	 POIN2	Distrust_4_002
// 007   ----------------------------------------
	BYTE	PATT
	 POIN2	Distrust_4_003
// 008   ----------------------------------------
	BYTE	PATT
	 POIN2	Distrust_4_001
// 009   ----------------------------------------
Distrust_4_009:
	BYTE		N96     Fs3   v076
	BYTE		N96     Bn3 
	BYTE		N96     Ds4 
	BYTE	W96
	BYTE	PEND
// 010   ----------------------------------------
Distrust_4_010:
	BYTE		N96     En3   v076
	BYTE		N96     Fs3 
	BYTE		N96     As3 
	BYTE		N96     Cs4 
	BYTE	W96
	BYTE	PEND
// 011   ----------------------------------------
Distrust_4_011:
	BYTE		N48     Gs3   v076
	BYTE		N48     Bn3 
	BYTE		N48     Ds4 
	BYTE	W48
	BYTE		        Fs3 
	BYTE		N48     As3 
	BYTE		N48     Cs4 
	BYTE	W48
	BYTE	PEND
// 012   ----------------------------------------
	BYTE	PATT
	 POIN2	Distrust_4_001
// 013   ----------------------------------------
	BYTE	PATT
	 POIN2	Distrust_4_009
// 014   ----------------------------------------
	BYTE	PATT
	 POIN2	Distrust_4_010
// 015   ----------------------------------------
	BYTE	PATT
	 POIN2	Distrust_4_011
// 016   ----------------------------------------
	BYTE	PATT
	 POIN2	Distrust_4_004
// 017   ----------------------------------------
	BYTE	PATT
	 POIN2	Distrust_4_001
// 018   ----------------------------------------
	BYTE	PATT
	 POIN2	Distrust_4_002
// 019   ----------------------------------------
	BYTE	PATT
	 POIN2	Distrust_4_003
// 020   ----------------------------------------
	BYTE	PATT
	 POIN2	Distrust_4_004
// 021   ----------------------------------------
	BYTE	PATT
	 POIN2	Distrust_4_001
// 022   ----------------------------------------
	BYTE	PATT
	 POIN2	Distrust_4_002
// 023   ----------------------------------------
	BYTE	PATT
	 POIN2	Distrust_4_003
// 024   ----------------------------------------
	BYTE	PATT
	 POIN2	Distrust_4_001
// 025   ----------------------------------------
	BYTE	PATT
	 POIN2	Distrust_4_009
// 026   ----------------------------------------
	BYTE	PATT
	 POIN2	Distrust_4_010
// 027   ----------------------------------------
	BYTE	PATT
	 POIN2	Distrust_4_011
// 028   ----------------------------------------
	BYTE	PATT
	 POIN2	Distrust_4_001
// 029   ----------------------------------------
	BYTE	PATT
	 POIN2	Distrust_4_009
// 030   ----------------------------------------
	BYTE	PATT
	 POIN2	Distrust_4_010
// 031   ----------------------------------------
	BYTE	PATT
	 POIN2	Distrust_4_011
// 032   ----------------------------------------
	BYTE		N90     Ds3   v076
	BYTE		TIE     Gs3 
	BYTE		N90     Cn4 
	BYTE	W96
// 033   ----------------------------------------
	BYTE		        Fn3 
	BYTE		TIE     Cs4 
	BYTE	W90
	BYTE		EOT     Gs3 
	BYTE	W06
// 034   ----------------------------------------
	BYTE		N90     Gn3 
	BYTE		N90     As3 
	BYTE		TIE     Ds4 
	BYTE	W90
	BYTE		EOT     Cs4 
	BYTE	W06
// 035   ----------------------------------------
	BYTE		N90     Gs3 
	BYTE		N90     Cn4 
	BYTE	W90
	BYTE		EOT     Ds4 
	BYTE	W06
// 036   ----------------------------------------
	BYTE	PATT
	 POIN2	Distrust_4_001
// 037   ----------------------------------------
	BYTE	PATT
	 POIN2	Distrust_4_009
// 038   ----------------------------------------
	BYTE		N96     En3   v076
	BYTE		N96     Gs3 
	BYTE		N96     Cs4 
	BYTE	W96
// 039   ----------------------------------------
	BYTE		N90     Gs3 
	BYTE		N90     Bn3 
	BYTE		TIE     Ds4 
	BYTE	W96
// 040   ----------------------------------------
	BYTE		N90     Gn3 
	BYTE		N90     As3 
	BYTE	W90
	BYTE		EOT     Ds4 
	BYTE	W05
	BYTE	GoTo
	 POIN2	Distrust_4_B1
Distrust_4_B2:
	BYTE	FINE

//**************** Track 5 (Midi-Chn.5) ****************//

Distrust_5:
	BYTE	KEYSH   Distrust_key+0
Distrust_5_B1:
// 000   ----------------------------------------
	BYTE		VOICE   54
	BYTE		MODT    0
	BYTE		LFOS    44
	BYTE		PAN     c_v-8
	BYTE		VOL     112*Distrust_mvl/mxv
	BYTE	W96
// 001   ----------------------------------------
	BYTE	W96
// 002   ----------------------------------------
	BYTE	W96
// 003   ----------------------------------------
	BYTE	W96
// 004   ----------------------------------------
	BYTE	W96
// 005   ----------------------------------------
	BYTE	W96
// 006   ----------------------------------------
	BYTE	W96
// 007   ----------------------------------------
	BYTE	W96
// 008   ----------------------------------------
	BYTE	W96
// 009   ----------------------------------------
	BYTE	W96
// 010   ----------------------------------------
	BYTE	W96
// 011   ----------------------------------------
	BYTE	W96
// 012   ----------------------------------------
	BYTE	W96
// 013   ----------------------------------------
	BYTE	W96
// 014   ----------------------------------------
	BYTE	W96
// 015   ----------------------------------------
	BYTE	W96
// 016   ----------------------------------------
Distrust_5_016:
	BYTE		N96     Gs3   v076
	BYTE		N96     Bn3 
	BYTE		N96     Ds4 
	BYTE	W96
	BYTE	PEND
// 017   ----------------------------------------
Distrust_5_017:
	BYTE		N96     Gs3   v076
	BYTE		N96     Cs4 
	BYTE		N96     En4 
	BYTE	W96
	BYTE	PEND
// 018   ----------------------------------------
Distrust_5_018:
	BYTE		N96     Bn3   v076
	BYTE		N96     Ds4 
	BYTE		N96     Fs4 
	BYTE	W96
	BYTE	PEND
// 019   ----------------------------------------
Distrust_5_019:
	BYTE		N96     As3   v076
	BYTE		N96     Cs4 
	BYTE		N96     Fs4 
	BYTE	W96
	BYTE	PEND
// 020   ----------------------------------------
	BYTE	PATT
	 POIN2	Distrust_5_016
// 021   ----------------------------------------
	BYTE	PATT
	 POIN2	Distrust_5_017
// 022   ----------------------------------------
	BYTE	PATT
	 POIN2	Distrust_5_018
// 023   ----------------------------------------
	BYTE	PATT
	 POIN2	Distrust_5_019
// 024   ----------------------------------------
	BYTE	PATT
	 POIN2	Distrust_5_017
// 025   ----------------------------------------
Distrust_5_025:
	BYTE		N96     Fs3   v076
	BYTE		N96     Bn3 
	BYTE		N96     Ds4 
	BYTE	W96
	BYTE	PEND
// 026   ----------------------------------------
Distrust_5_026:
	BYTE		N96     En3   v076
	BYTE		N96     Fs3 
	BYTE		N96     As3 
	BYTE		N96     Cs4 
	BYTE	W96
	BYTE	PEND
// 027   ----------------------------------------
	BYTE		N48     Gs3 
	BYTE		N48     Bn3 
	BYTE		N48     Ds4 
	BYTE	W48
	BYTE		        Fs3 
	BYTE		N48     As3 
	BYTE		N48     Cs4 
	BYTE	W48
// 028   ----------------------------------------
	BYTE	PATT
	 POIN2	Distrust_5_017
// 029   ----------------------------------------
	BYTE	PATT
	 POIN2	Distrust_5_025
// 030   ----------------------------------------
	BYTE	PATT
	 POIN2	Distrust_5_026
// 031   ----------------------------------------
	BYTE		N48     Gs3   v076
	BYTE		N48     Bn3 
	BYTE		N48     Ds4 
	BYTE	W48
	BYTE		N42     Fs3 
	BYTE		N42     As3 
	BYTE		N42     Cs4 
	BYTE	W48
// 032   ----------------------------------------
	BYTE	W96
// 033   ----------------------------------------
	BYTE	W96
// 034   ----------------------------------------
	BYTE	W96
// 035   ----------------------------------------
	BYTE	W96
// 036   ----------------------------------------
	BYTE	PATT
	 POIN2	Distrust_5_017
// 037   ----------------------------------------
	BYTE	PATT
	 POIN2	Distrust_5_025
// 038   ----------------------------------------
	BYTE		N96     En3   v076
	BYTE		N96     Gs3 
	BYTE		N96     Cs4 
	BYTE	W96
// 039   ----------------------------------------
	BYTE		N90     Gs3 
	BYTE		N90     Bn3 
	BYTE		TIE     Ds4 
	BYTE	W96
// 040   ----------------------------------------
	BYTE		N90     Gn3 
	BYTE		N90     As3 
	BYTE	W90
	BYTE		EOT     Ds4 
	BYTE	W05
	BYTE	GoTo
	 POIN2	Distrust_5_B1
Distrust_5_B2:
	BYTE	FINE

//**************** Track 6 (Midi-Chn.7) ****************//

Distrust_6:
	BYTE	KEYSH   Distrust_key+0
Distrust_6_B1:
// 000   ----------------------------------------
	BYTE		VOICE   73
	BYTE		MODT    0
	BYTE		LFOS    44
	BYTE		PAN     c_v+18
	BYTE		VOL     127*Distrust_mvl/mxv
	BYTE	W96
// 001   ----------------------------------------
	BYTE	W96
// 002   ----------------------------------------
	BYTE	W96
// 003   ----------------------------------------
	BYTE	W96
// 004   ----------------------------------------
	BYTE	W96
// 005   ----------------------------------------
	BYTE	W96
// 006   ----------------------------------------
	BYTE	W96
// 007   ----------------------------------------
	BYTE	W96
// 008   ----------------------------------------
	BYTE	W96
// 009   ----------------------------------------
	BYTE	W96
// 010   ----------------------------------------
	BYTE	W96
// 011   ----------------------------------------
	BYTE	W96
// 012   ----------------------------------------
	BYTE	W96
// 013   ----------------------------------------
	BYTE	W96
// 014   ----------------------------------------
	BYTE	W96
// 015   ----------------------------------------
	BYTE	W96
// 016   ----------------------------------------
	BYTE		TIE     Gs1   v127
	BYTE	W96
// 017   ----------------------------------------
	BYTE	W96
	BYTE		EOT   
// 018   ----------------------------------------
	BYTE		TIE     Fs1 
	BYTE	W96
// 019   ----------------------------------------
	BYTE	W96
	BYTE		EOT   
// 020   ----------------------------------------
	BYTE		TIE     Gs1 
	BYTE	W96
// 021   ----------------------------------------
	BYTE	W96
	BYTE		EOT   
// 022   ----------------------------------------
	BYTE		TIE     Fs1 
	BYTE	W96
// 023   ----------------------------------------
	BYTE	W96
	BYTE		EOT   
// 024   ----------------------------------------
	BYTE		N96     En1 
	BYTE	W96
// 025   ----------------------------------------
	BYTE		        Ds1 
	BYTE	W96
// 026   ----------------------------------------
	BYTE		        Fs1 
	BYTE	W96
// 027   ----------------------------------------
	BYTE		N48     Gs1 
	BYTE	W48
	BYTE		        Fs1 
	BYTE	W48
// 028   ----------------------------------------
	BYTE		N96     En1 
	BYTE	W96
// 029   ----------------------------------------
	BYTE		        Ds1 
	BYTE	W96
// 030   ----------------------------------------
	BYTE		        Fs1 
	BYTE	W96
// 031   ----------------------------------------
	BYTE		N48     Gs1 
	BYTE	W48
	BYTE		N42     Fs1 
	BYTE	W48
// 032   ----------------------------------------
	BYTE	W96
// 033   ----------------------------------------
	BYTE	W96
// 034   ----------------------------------------
	BYTE	W96
// 035   ----------------------------------------
	BYTE	W96
// 036   ----------------------------------------
	BYTE		N96     En1 
	BYTE	W96
// 037   ----------------------------------------
	BYTE		        Ds1 
	BYTE	W96
// 038   ----------------------------------------
	BYTE		        Cs1 
	BYTE	W96
// 039   ----------------------------------------
	BYTE		        Ds1 
	BYTE	W96
// 040   ----------------------------------------
	BYTE		N90     Gn1 
	BYTE	W92
	BYTE	W03
	BYTE	GoTo
	 POIN2	Distrust_6_B1
Distrust_6_B2:
	BYTE	FINE

//**************** Track 7 (Midi-Chn.8) ****************//

Distrust_7:
	BYTE	KEYSH   Distrust_key+0
Distrust_7_B1:
// 000   ----------------------------------------
	BYTE		VOICE   40
	BYTE		MODT    0
	BYTE		LFOS    44
	BYTE		PAN     c_v-8
	BYTE		VOL     127*Distrust_mvl/mxv
	BYTE		N42     Gs3   v127
	BYTE	W48
	BYTE		N15     Bn3 
	BYTE	W16
	BYTE		        Cs4 
	BYTE	W16
	BYTE		        Ds4 
	BYTE	W16
// 001   ----------------------------------------
	BYTE		N42     Cs4 
	BYTE	W48
	BYTE		N15     En4 
	BYTE	W16
	BYTE		        Ds4 
	BYTE	W16
	BYTE		        Cs4 
	BYTE	W16
// 002   ----------------------------------------
	BYTE		        Bn3 
	BYTE	W16
	BYTE		        As3 
	BYTE	W16
	BYTE		        Bn3 
	BYTE	W16
	BYTE		        Ds4 
	BYTE	W16
	BYTE		        Cs4 
	BYTE	W16
	BYTE		        Bn3 
	BYTE	W16
// 003   ----------------------------------------
	BYTE		N32   
	BYTE	W36
	BYTE		N05     Cs4 
	BYTE	W06
	BYTE		        Bn3 
	BYTE	W06
	BYTE		N15     As3 
	BYTE	W16
	BYTE		        Gs3 
	BYTE	W16
	BYTE		        Fs3 
	BYTE	W16
// 004   ----------------------------------------
	BYTE		N42     Gs3 
	BYTE	W48
	BYTE		N15     Bn3 
	BYTE	W16
	BYTE		        Cs4 
	BYTE	W16
	BYTE		        Ds4 
	BYTE	W16
// 005   ----------------------------------------
	BYTE		        En4 
	BYTE	W16
	BYTE		        Ds4 
	BYTE	W16
	BYTE		        En4 
	BYTE	W16
	BYTE		        Gs4 
	BYTE	W16
	BYTE		        As4 
	BYTE	W16
	BYTE		        Gs4 
	BYTE	W16
// 006   ----------------------------------------
	BYTE		        Fs4 
	BYTE	W16
	BYTE		        En4 
	BYTE	W16
	BYTE		        Ds4 
	BYTE	W16
	BYTE		        Cs4 
	BYTE	W16
	BYTE		        Ds4 
	BYTE	W16
	BYTE		        Bn3 
	BYTE	W16
// 007   ----------------------------------------
	BYTE		N32     Cs4 
	BYTE	W36
	BYTE		N05     Ds4 
	BYTE	W06
	BYTE		        En4 
	BYTE	W06
	BYTE		N42     Fs4 
	BYTE	W48
// 008   ----------------------------------------
	BYTE		N15     En4 
	BYTE	W16
	BYTE		        Cs4 
	BYTE	W16
	BYTE		        En4 
	BYTE	W16
	BYTE		        Gs4 
	BYTE	W16
	BYTE		        Fs4 
	BYTE	W16
	BYTE		        En4 
	BYTE	W16
// 009   ----------------------------------------
	BYTE		        Ds4 
	BYTE	W16
	BYTE		        Cs4 
	BYTE	W16
	BYTE		        Ds4 
	BYTE	W16
	BYTE		N20     Bn3 
	BYTE	W24
	BYTE		        Fs3 
	BYTE	W24
// 010   ----------------------------------------
	BYTE		N15     As3 
	BYTE	W16
	BYTE		        Gs3 
	BYTE	W16
	BYTE		        As3 
	BYTE	W16
	BYTE		N42     Cs4 
	BYTE	W48
// 011   ----------------------------------------
	BYTE		N15     Ds4 
	BYTE	W16
	BYTE		        Cs4 
	BYTE	W16
	BYTE		        Bn3 
	BYTE	W16
	BYTE		N42     Fs4 
	BYTE	W48
// 012   ----------------------------------------
	BYTE		N15     Gs4 
	BYTE	W16
	BYTE		        Fs4 
	BYTE	W16
	BYTE		        Gs4 
	BYTE	W16
	BYTE		        Cs5 
	BYTE	W16
	BYTE		        Ds5 
	BYTE	W16
	BYTE		        Cs5 
	BYTE	W16
// 013   ----------------------------------------
	BYTE		        Bn4 
	BYTE	W16
	BYTE		        As4 
	BYTE	W16
	BYTE		        Gs4 
	BYTE	W16
	BYTE		        Fs4 
	BYTE	W16
	BYTE		        En4 
	BYTE	W16
	BYTE		        Ds4 
	BYTE	W16
// 014   ----------------------------------------
	BYTE		        En4 
	BYTE	W16
	BYTE		        Fs4 
	BYTE	W16
	BYTE		        As4 
	BYTE	W16
	BYTE		        Cs5 
	BYTE	W16
	BYTE		        Bn4 
	BYTE	W16
	BYTE		        As4 
	BYTE	W16
// 015   ----------------------------------------
	BYTE		N42     Gs4 
	BYTE	W48
	BYTE		        Fs4 
	BYTE	W48
// 016   ----------------------------------------
	BYTE	W96
// 017   ----------------------------------------
	BYTE	W96
// 018   ----------------------------------------
	BYTE	W96
// 019   ----------------------------------------
	BYTE	W96
// 020   ----------------------------------------
	BYTE	W96
// 021   ----------------------------------------
	BYTE	W96
// 022   ----------------------------------------
	BYTE	W96
// 023   ----------------------------------------
	BYTE	W96
// 024   ----------------------------------------
	BYTE	W96
// 025   ----------------------------------------
	BYTE	W96
// 026   ----------------------------------------
	BYTE	W96
// 027   ----------------------------------------
	BYTE	W96
// 028   ----------------------------------------
	BYTE	W96
// 029   ----------------------------------------
	BYTE	W96
// 030   ----------------------------------------
	BYTE	W96
// 031   ----------------------------------------
	BYTE	W96
// 032   ----------------------------------------
	BYTE		N15     Gs3 
	BYTE	W16
	BYTE		        Cn4 
	BYTE	W16
	BYTE		        Gs3 
	BYTE	W16
	BYTE		        Ds4 
	BYTE	W16
	BYTE		        Cs4 
	BYTE	W16
	BYTE		        Cn4 
	BYTE	W16
// 033   ----------------------------------------
	BYTE		N42     Cs4 
	BYTE	W48
	BYTE		        Fn4 
	BYTE	W48
// 034   ----------------------------------------
	BYTE		N15     Ds4 
	BYTE	W16
	BYTE		        Cs4 
	BYTE	W16
	BYTE		        Cn4 
	BYTE	W16
	BYTE		        Cs4 
	BYTE	W16
	BYTE		        Cn4 
	BYTE	W16
	BYTE		        As3 
	BYTE	W16
// 035   ----------------------------------------
	BYTE		N42     Cn4 
	BYTE	W48
	BYTE		        Ds4 
	BYTE	W48
// 036   ----------------------------------------
	BYTE	W96
// 037   ----------------------------------------
	BYTE	W96
// 038   ----------------------------------------
	BYTE	W96
// 039   ----------------------------------------
	BYTE	W96
// 040   ----------------------------------------
	BYTE	W92
	BYTE	W03
	BYTE	GoTo
	 POIN2	Distrust_7_B1
Distrust_7_B2:
	BYTE	FINE

//**************** Track 8 (Midi-Chn.9) ****************//

Distrust_8:
	BYTE	KEYSH   Distrust_key+0
Distrust_8_B1:
// 000   ----------------------------------------
	BYTE		VOICE   41
	BYTE		MODT    0
	BYTE		LFOS    44
	BYTE		PAN     c_v+21
	BYTE		VOL     117*Distrust_mvl/mxv
	BYTE		TIE     Gs5   v076
	BYTE	W96
// 001   ----------------------------------------
	BYTE	W96
	BYTE		EOT   
// 002   ----------------------------------------
	BYTE		TIE     Fs5 
	BYTE	W96
// 003   ----------------------------------------
	BYTE	W96
	BYTE		EOT   
// 004   ----------------------------------------
	BYTE		TIE     Gs5 
	BYTE	W96
// 005   ----------------------------------------
	BYTE	W96
	BYTE		EOT   
// 006   ----------------------------------------
	BYTE		TIE     Fs5 
	BYTE	W96
// 007   ----------------------------------------
	BYTE	W96
	BYTE		EOT   
// 008   ----------------------------------------
	BYTE		N96     En5 
	BYTE	W96
// 009   ----------------------------------------
	BYTE		        Ds5 
	BYTE	W96
// 010   ----------------------------------------
	BYTE		        Fs5 
	BYTE	W96
// 011   ----------------------------------------
Distrust_8_011:
	BYTE		N48     Gs5   v076
	BYTE	W48
	BYTE		        Fs5 
	BYTE	W48
	BYTE	PEND
// 012   ----------------------------------------
	BYTE		N96     En5 
	BYTE	W96
// 013   ----------------------------------------
	BYTE		        Ds5 
	BYTE	W96
// 014   ----------------------------------------
	BYTE		        Fs5 
	BYTE	W96
// 015   ----------------------------------------
	BYTE	PATT
	 POIN2	Distrust_8_011
// 016   ----------------------------------------
	BYTE		TIE     Gs5   v076
	BYTE	W96
// 017   ----------------------------------------
	BYTE	W96
	BYTE		EOT   
// 018   ----------------------------------------
	BYTE		TIE     Fs5 
	BYTE	W96
// 019   ----------------------------------------
	BYTE	W96
	BYTE		EOT   
// 020   ----------------------------------------
	BYTE		TIE     Gs5 
	BYTE	W96
// 021   ----------------------------------------
	BYTE	W96
	BYTE		EOT   
// 022   ----------------------------------------
	BYTE		TIE     Fs5 
	BYTE	W96
// 023   ----------------------------------------
	BYTE	W96
	BYTE		EOT   
// 024   ----------------------------------------
	BYTE		N96     En5 
	BYTE	W96
// 025   ----------------------------------------
	BYTE		        Ds5 
	BYTE	W96
// 026   ----------------------------------------
	BYTE		        Fs5 
	BYTE	W96
// 027   ----------------------------------------
	BYTE	PATT
	 POIN2	Distrust_8_011
// 028   ----------------------------------------
	BYTE		N96     En5   v076
	BYTE	W96
// 029   ----------------------------------------
	BYTE		        Ds5 
	BYTE	W96
// 030   ----------------------------------------
	BYTE		        Fs5 
	BYTE	W96
// 031   ----------------------------------------
	BYTE		N48     Gs5 
	BYTE	W48
	BYTE		N42     Fs5 
	BYTE	W48
// 032   ----------------------------------------
	BYTE	W96
// 033   ----------------------------------------
	BYTE	W96
// 034   ----------------------------------------
	BYTE	W96
// 035   ----------------------------------------
	BYTE	W96
// 036   ----------------------------------------
	BYTE		N96     En5 
	BYTE	W96
// 037   ----------------------------------------
	BYTE		        Fs5 
	BYTE	W96
// 038   ----------------------------------------
	BYTE		TIE     Gs5 
	BYTE	W96
// 039   ----------------------------------------
	BYTE	W96
	BYTE		EOT   
// 040   ----------------------------------------
	BYTE		N90     Gn5 
	BYTE	W92
	BYTE	W03
	BYTE	GoTo
	 POIN2	Distrust_8_B1
Distrust_8_B2:
	BYTE	FINE

//******************************************************//
	ALIGN 4

Distrust:
	BYTE	8	// NumTrks
	BYTE	0	// NumBlks
	BYTE	Distrust_pri	// Priority
	BYTE	Distrust_rev	// Reverb.

	POIN2	Distrust_grp

	POIN2	Distrust_1
	POIN2	Distrust_2
	POIN2	Distrust_3
	POIN2	Distrust_4
	POIN2	Distrust_5
	POIN2	Distrust_6
	POIN2	Distrust_7
	POIN2	Distrust_8

	
