//Event file generated from Sappy .s format.
	#include "MPlayDef.event"

	#define	VergeOfDeath_grp  voicegroup000
	#define	VergeOfDeath_pri  0
	#define	VergeOfDeath_rev  94
	#define	VergeOfDeath_mvl  26
	#define	VergeOfDeath_key  0
	#define	VergeOfDeath_tbs  1
	#define	VergeOfDeath_exg  0
	#define	VergeOfDeath_cmp  1

	// .rodata
	//	VergeOfDeath
	ALIGN 4

//**************** Track 1 (Midi-Chn.1) ****************//

VergeOfDeath_1:
	BYTE	KEYSH   VergeOfDeath_key+0
// 000   ----------------------------------------
	BYTE	TEMPO   90*VergeOfDeath_tbs/2
	BYTE		VOICE   48
	BYTE		MODT    0
	BYTE		LFOS    44
	BYTE		PAN     c_v-10
	BYTE		VOL     103*VergeOfDeath_mvl/mxv
	BYTE	W96
VergeOfDeath_1_B1:
// 001   ----------------------------------------
VergeOfDeath_1_001:
	BYTE		N06     Fn4   v076
	BYTE		N06     An4 
	BYTE		N06     Dn5 
	BYTE	W36
	BYTE		N04     Dn4 
	BYTE	W06
	BYTE		        En4 
	BYTE	W06
	BYTE		        Fn4 
	BYTE	W06
	BYTE		N04   
	BYTE	W06
	BYTE		        En4 
	BYTE	W06
	BYTE		N04   
	BYTE	W06
	BYTE		        As4 
	BYTE	W06
	BYTE		N04   
	BYTE	W06
	BYTE		        An4 
	BYTE	W06
	BYTE		N04   
	BYTE	W06
	BYTE	PEND
// 002   ----------------------------------------
VergeOfDeath_1_002:
	BYTE		N04     An4   v076
	BYTE	W18
	BYTE		        Gn4 
	BYTE	W18
	BYTE		        As4 
	BYTE	W18
	BYTE		        Gn4 
	BYTE	W18
	BYTE		N11     An4 
	BYTE	W12
	BYTE		N04     Gn4 
	BYTE	W12
	BYTE	PEND
// 003   ----------------------------------------
	BYTE	PATT
	 POIN2	VergeOfDeath_1_001
// 004   ----------------------------------------
	BYTE	PATT
	 POIN2	VergeOfDeath_1_002
// 005   ----------------------------------------
VergeOfDeath_1_005:
	BYTE		N05     Dn5   v076
	BYTE	W06
	BYTE		        An4 
	BYTE	W06
	BYTE		        En5 
	BYTE	W06
	BYTE		        Cn5 
	BYTE	W06
	BYTE		        Dn5 
	BYTE	W06
	BYTE		        An4 
	BYTE	W06
	BYTE		        En5 
	BYTE	W06
	BYTE		        Cn5 
	BYTE	W06
	BYTE		        Dn5 
	BYTE	W06
	BYTE		        An4 
	BYTE	W06
	BYTE		        En5 
	BYTE	W06
	BYTE		        Cn5 
	BYTE	W06
	BYTE		        Dn5 
	BYTE	W06
	BYTE		        An4 
	BYTE	W06
	BYTE		        En5 
	BYTE	W06
	BYTE		        Cs5 
	BYTE	W06
	BYTE	PEND
// 006   ----------------------------------------
VergeOfDeath_1_006:
	BYTE		N05     Dn5   v076
	BYTE	W06
	BYTE		        An4 
	BYTE	W06
	BYTE		        En5 
	BYTE	W06
	BYTE		        Cn5 
	BYTE	W06
	BYTE		        Dn5 
	BYTE	W06
	BYTE		        An4 
	BYTE	W06
	BYTE		        En5 
	BYTE	W06
	BYTE		        Cn5 
	BYTE	W06
	BYTE		        Fn5 
	BYTE	W06
	BYTE		        Dn5 
	BYTE	W06
	BYTE		        Gn5 
	BYTE	W06
	BYTE		        Dn5 
	BYTE	W06
	BYTE		        En5 
	BYTE	W06
	BYTE		        Cn5 
	BYTE	W06
	BYTE		        Gn5 
	BYTE	W06
	BYTE		        En5 
	BYTE	W06
	BYTE	PEND
// 007   ----------------------------------------
	BYTE	PATT
	 POIN2	VergeOfDeath_1_005
// 008   ----------------------------------------
	BYTE	PATT
	 POIN2	VergeOfDeath_1_006
// 009   ----------------------------------------
	BYTE		N90     Dn5   v076
	BYTE	W96
// 010   ----------------------------------------
	BYTE		        En5 
	BYTE	W96
// 011   ----------------------------------------
	BYTE		        Fn5 
	BYTE	W96
// 012   ----------------------------------------
	BYTE		        Gn5 
	BYTE	W96
// 013   ----------------------------------------
	BYTE		        Dn5 
	BYTE	W96
// 014   ----------------------------------------
	BYTE		        En5 
	BYTE	W96
// 015   ----------------------------------------
	BYTE		        Fs5 
	BYTE	W96
// 016   ----------------------------------------
	BYTE		TIE     Gn5 
	BYTE	W96
// 017   ----------------------------------------
	BYTE	W90
	BYTE		EOT   
	BYTE	W06
// 018   ----------------------------------------
VergeOfDeath_1_018:
	BYTE		N96     Gn3   v076
	BYTE		N96     Bn3 
	BYTE		N96     Dn4 
	BYTE	W96
	BYTE	PEND
// 019   ----------------------------------------
VergeOfDeath_1_019:
	BYTE		N96     Bn3   v076
	BYTE		N96     Dn4 
	BYTE		N96     Fn4 
	BYTE	W96
	BYTE	PEND
// 020   ----------------------------------------
	BYTE		        An3 
	BYTE		N96     Cn4 
	BYTE		N48     En4 
	BYTE	W48
	BYTE		        Fs4 
	BYTE	W48
// 021   ----------------------------------------
	BYTE		        Bn3 
	BYTE		N96     Dn4 
	BYTE		N96     Fs4 
	BYTE	W48
	BYTE		N48     An3 
	BYTE	W48
// 022   ----------------------------------------
VergeOfDeath_1_022:
	BYTE		N96     Gn3   v076
	BYTE		N96     Bn3 
	BYTE		N96     En4 
	BYTE	W96
	BYTE	PEND
// 023   ----------------------------------------
VergeOfDeath_1_023:
	BYTE		N48     Gn3   v076
	BYTE		N48     Cn4 
	BYTE		N48     En4 
	BYTE	W48
	BYTE		        An3 
	BYTE		N48     Cn4 
	BYTE		N48     En4 
	BYTE	W48
	BYTE	PEND
// 024   ----------------------------------------
	BYTE		N96     An3 
	BYTE		N48     Cn4 
	BYTE		N96     Fn4 
	BYTE	W48
	BYTE		N48     Dn4 
	BYTE	W48
// 025   ----------------------------------------
	BYTE		N96     An3 
	BYTE		N48     Bn3 
	BYTE		N96     Dn4 
	BYTE	W48
	BYTE		N48     Cn4 
	BYTE	W48
// 026   ----------------------------------------
	BYTE	PATT
	 POIN2	VergeOfDeath_1_018
// 027   ----------------------------------------
	BYTE	PATT
	 POIN2	VergeOfDeath_1_019
// 028   ----------------------------------------
	BYTE		N48     An3   v076
	BYTE		N48     Cn4 
	BYTE		N48     En4 
	BYTE	W48
	BYTE		        An3 
	BYTE		N48     Cn4 
	BYTE		N48     Fs4 
	BYTE	W48
// 029   ----------------------------------------
	BYTE		        Bn3 
	BYTE		N48     Dn4 
	BYTE		N48     Fs4 
	BYTE	W48
	BYTE		        An3 
	BYTE		N48     Dn4 
	BYTE		N48     Fs4 
	BYTE	W48
// 030   ----------------------------------------
	BYTE	PATT
	 POIN2	VergeOfDeath_1_022
// 031   ----------------------------------------
	BYTE	PATT
	 POIN2	VergeOfDeath_1_023
// 032   ----------------------------------------
	BYTE		N48     Gn3   v076
	BYTE		N48     Bn3 
	BYTE		N48     Dn4 
	BYTE	W48
	BYTE		        An3 
	BYTE		N48     Cn4 
	BYTE		N48     Fs4 
	BYTE	W48
// 033   ----------------------------------------
	BYTE		        An3 
	BYTE		N48     Cn4 
	BYTE		N48     En4 
	BYTE	W48
	BYTE		N42     Gn3 
	BYTE		N42     Bn3 
	BYTE		N42     Dn4 
	BYTE	W48
// 034   ----------------------------------------
	BYTE		N96     An3 
	BYTE		N96     Cn4 
	BYTE		N96     Fn4 
	BYTE	W96
// 035   ----------------------------------------
	BYTE		N48     Fn3 
	BYTE		N48     An3 
	BYTE		N48     En4 
	BYTE	W48
	BYTE		        Fn3 
	BYTE		N48     An3 
	BYTE		N48     Dn4 
	BYTE	W48
// 036   ----------------------------------------
	BYTE		        Gn3 
	BYTE		N48     As3 
	BYTE		N48     Dn4 
	BYTE	W48
	BYTE		        Gn3 
	BYTE		N48     As3 
	BYTE		N48     En4 
	BYTE	W48
// 037   ----------------------------------------
	BYTE		        As3 
	BYTE		N48     Dn4 
	BYTE		N48     Fn4 
	BYTE	W48
	BYTE		        As3 
	BYTE		N48     Cn4 
	BYTE		N48     En4 
	BYTE	W48
// 038   ----------------------------------------
	BYTE		        An3 
	BYTE		N48     Cn4 
	BYTE		N48     Fn4 
	BYTE	W48
	BYTE		N24     An3 
	BYTE		N24     Cn4 
	BYTE		N24     En4 
	BYTE	W24
	BYTE		        Fn3 
	BYTE		N24     An3 
	BYTE		N24     Cn4 
	BYTE	W24
// 039   ----------------------------------------
	BYTE		N48     Fn3 
	BYTE		N48     As3 
	BYTE		N48     Dn4 
	BYTE	W48
	BYTE		        Gn3 
	BYTE		N48     As3 
	BYTE		N48     Dn4 
	BYTE	W48
// 040   ----------------------------------------
	BYTE	PATT
	 POIN2	VergeOfDeath_1_023
// 041   ----------------------------------------
	BYTE		N48     An3   v076
	BYTE		N48     Dn4 
	BYTE		N90     Fs4 
	BYTE	W48
	BYTE		N42     An3 
	BYTE		N42     Cn4 
	BYTE	W48
// 042   ----------------------------------------
VergeOfDeath_1_042:
	BYTE		N05     Gn5   v076
	BYTE	W06
	BYTE		        Dn5 
	BYTE	W06
	BYTE		        Bn5 
	BYTE	W06
	BYTE		        Gn5 
	BYTE	W06
	BYTE		        An5 
	BYTE	W06
	BYTE		        Dn5 
	BYTE	W06
	BYTE		        Gn5 
	BYTE	W06
	BYTE		        Dn5 
	BYTE	W06
	BYTE		        Gn5 
	BYTE	W06
	BYTE		        Dn5 
	BYTE	W06
	BYTE		        Bn5 
	BYTE	W06
	BYTE		        Gn5 
	BYTE	W06
	BYTE		        An5 
	BYTE	W06
	BYTE		        Dn5 
	BYTE	W06
	BYTE		        Gn5 
	BYTE	W06
	BYTE		        Dn5 
	BYTE	W06
	BYTE	PEND
// 043   ----------------------------------------
VergeOfDeath_1_043:
	BYTE		N05     Fs5   v076
	BYTE	W06
	BYTE		        Dn5 
	BYTE	W06
	BYTE		        An5 
	BYTE	W06
	BYTE		        Fs5 
	BYTE	W06
	BYTE		        Gn5 
	BYTE	W06
	BYTE		        Dn5 
	BYTE	W06
	BYTE		        Fs5 
	BYTE	W06
	BYTE		        Dn5 
	BYTE	W06
	BYTE		        Fs5 
	BYTE	W06
	BYTE		        Dn5 
	BYTE	W06
	BYTE		        An5 
	BYTE	W06
	BYTE		        Fs5 
	BYTE	W06
	BYTE		        Gn5 
	BYTE	W06
	BYTE		        Dn5 
	BYTE	W06
	BYTE		        Fs5 
	BYTE	W06
	BYTE		        Dn5 
	BYTE	W06
	BYTE	PEND
// 044   ----------------------------------------
VergeOfDeath_1_044:
	BYTE		N05     Gn5   v076
	BYTE	W06
	BYTE		        En5 
	BYTE	W06
	BYTE		        Cn6 
	BYTE	W06
	BYTE		        Gn5 
	BYTE	W06
	BYTE		        Bn5 
	BYTE	W06
	BYTE		        En5 
	BYTE	W06
	BYTE		        An5 
	BYTE	W06
	BYTE		        En5 
	BYTE	W06
	BYTE		        Gn5 
	BYTE	W06
	BYTE		        En5 
	BYTE	W06
	BYTE		        Cn6 
	BYTE	W06
	BYTE		        Gn5 
	BYTE	W06
	BYTE		        Bn5 
	BYTE	W06
	BYTE		        En5 
	BYTE	W06
	BYTE		        An5 
	BYTE	W06
	BYTE		        En5 
	BYTE	W06
	BYTE	PEND
// 045   ----------------------------------------
VergeOfDeath_1_045:
	BYTE		N05     Fs5   v076
	BYTE	W06
	BYTE		        Cn5 
	BYTE	W06
	BYTE		        En5 
	BYTE	W06
	BYTE		        Cn5 
	BYTE	W06
	BYTE		        Fs5 
	BYTE	W06
	BYTE		        Cn5 
	BYTE	W06
	BYTE		        Gn5 
	BYTE	W06
	BYTE		        Cn5 
	BYTE	W06
	BYTE		        An5 
	BYTE	W06
	BYTE		        Fs5 
	BYTE	W06
	BYTE		        Cn6 
	BYTE	W06
	BYTE		        Fs5 
	BYTE	W06
	BYTE		        Bn5 
	BYTE	W06
	BYTE		        Fs5 
	BYTE	W06
	BYTE		        An5 
	BYTE	W06
	BYTE		        Fs5 
	BYTE	W06
	BYTE	PEND
// 046   ----------------------------------------
	BYTE	PATT
	 POIN2	VergeOfDeath_1_042
// 047   ----------------------------------------
	BYTE	PATT
	 POIN2	VergeOfDeath_1_043
// 048   ----------------------------------------
	BYTE	PATT
	 POIN2	VergeOfDeath_1_044
// 049   ----------------------------------------
	BYTE	PATT
	 POIN2	VergeOfDeath_1_045
// 050   ----------------------------------------
	BYTE		N42     Gn5   v076
	BYTE	W48
	BYTE		        Fs5 
	BYTE	W48
// 051   ----------------------------------------
	BYTE		N90     Gn4 
	BYTE		N90     Bn4 
	BYTE		N90     En5 
	BYTE	W96
	BYTE	GoTo
	 POIN2	VergeOfDeath_1_B1
VergeOfDeath_1_B2:
// 052   ----------------------------------------
	BYTE	FINE

//**************** Track 2 (Midi-Chn.2) ****************//

VergeOfDeath_2:
	BYTE	KEYSH   VergeOfDeath_key+0
// 000   ----------------------------------------
	BYTE		VOICE   61
	BYTE		MODT    0
	BYTE		LFOS    44
	BYTE		PAN     c_v-16
	BYTE		VOL     124*VergeOfDeath_mvl/mxv
	BYTE	W96
VergeOfDeath_2_B1:
// 001   ----------------------------------------
VergeOfDeath_2_001:
	BYTE		N04     Fn3   v100
	BYTE		N04     An3 
	BYTE		N04     Dn4 
	BYTE	W18
	BYTE		        Fn3 
	BYTE		N04     An3 
	BYTE		N04     Dn4 
	BYTE	W18
	BYTE		        Fn3 
	BYTE		N04     An3 
	BYTE		N04     Dn4 
	BYTE	W18
	BYTE		        Fn3 
	BYTE		N04     An3 
	BYTE		N04     Dn4 
	BYTE	W18
	BYTE		N11     Fn3 
	BYTE		N11     An3 
	BYTE		N11     Dn4 
	BYTE	W12
	BYTE		        En3 
	BYTE		N11     An3 
	BYTE		N11     Cs4 
	BYTE	W12
	BYTE	PEND
// 002   ----------------------------------------
VergeOfDeath_2_002:
	BYTE		N04     Fn3   v100
	BYTE		N04     An3 
	BYTE		N04     Dn4 
	BYTE	W18
	BYTE		        Fn3 
	BYTE		N04     An3 
	BYTE		N04     Dn4 
	BYTE	W18
	BYTE		        Fn3 
	BYTE		N04     An3 
	BYTE		N04     Dn4 
	BYTE	W06
	BYTE		N05     En3 
	BYTE		N05     Gn3 
	BYTE		N05     En4 
	BYTE	W06
	BYTE		N11     An3 
	BYTE		N11     Dn4 
	BYTE		N11     Fn4 
	BYTE	W12
	BYTE		        As3 
	BYTE		N11     En4 
	BYTE		N11     Gn4 
	BYTE	W12
	BYTE		        Gn3 
	BYTE		N11     Cn4 
	BYTE		N11     En4 
	BYTE	W12
	BYTE		        En3 
	BYTE		N11     Gn3 
	BYTE		N11     Cn4 
	BYTE	W12
	BYTE	PEND
// 003   ----------------------------------------
	BYTE	PATT
	 POIN2	VergeOfDeath_2_001
// 004   ----------------------------------------
	BYTE	PATT
	 POIN2	VergeOfDeath_2_002
// 005   ----------------------------------------
	BYTE	PATT
	 POIN2	VergeOfDeath_2_001
// 006   ----------------------------------------
	BYTE	PATT
	 POIN2	VergeOfDeath_2_002
// 007   ----------------------------------------
	BYTE	PATT
	 POIN2	VergeOfDeath_2_001
// 008   ----------------------------------------
	BYTE	PATT
	 POIN2	VergeOfDeath_2_002
// 009   ----------------------------------------
	BYTE		N32     Fn3   v100
	BYTE		N32     An3 
	BYTE		N32     Dn4 
	BYTE	W36
	BYTE		N04     Fn3 
	BYTE		N04     An3 
	BYTE		N04     Dn4 
	BYTE	W06
	BYTE		        Gn3 
	BYTE		N04     As3 
	BYTE		N04     En4 
	BYTE	W06
	BYTE		N11     As3 
	BYTE		N11     Dn4 
	BYTE		N11     Fn4 
	BYTE	W12
	BYTE		        An3 
	BYTE		N11     Cn4 
	BYTE		N11     En4 
	BYTE	W12
	BYTE		        Gn3 
	BYTE		N11     As3 
	BYTE		N11     Dn4 
	BYTE	W12
	BYTE		        As3 
	BYTE		N11     Dn4 
	BYTE		N11     Fn4 
	BYTE	W12
// 010   ----------------------------------------
	BYTE		N32     An3 
	BYTE		N32     Cn4 
	BYTE		N32     En4 
	BYTE	W36
	BYTE		N04     An3 
	BYTE		N04     Cn4 
	BYTE		N04     En4 
	BYTE	W06
	BYTE		        An3 
	BYTE		N04     Cn4 
	BYTE		N04     Fn4 
	BYTE	W06
	BYTE		N11     Cn4 
	BYTE		N11     En4 
	BYTE		N11     Gn4 
	BYTE	W12
	BYTE		        An3 
	BYTE		N11     Dn4 
	BYTE		N11     Fn4 
	BYTE	W12
	BYTE		        An3 
	BYTE		N11     Cn4 
	BYTE		N11     En4 
	BYTE	W12
	BYTE		        Cn4 
	BYTE		N11     En4 
	BYTE		N11     Gn4 
	BYTE	W12
// 011   ----------------------------------------
	BYTE		N32     An3 
	BYTE		N32     Cn4 
	BYTE		N32     Fn4 
	BYTE	W36
	BYTE		N04     An3 
	BYTE		N04     Cn4 
	BYTE		N04     Fn4 
	BYTE	W06
	BYTE		        Cn4 
	BYTE		N04     En4 
	BYTE		N04     Gn4 
	BYTE	W06
	BYTE		N11     Cn4 
	BYTE		N11     Fn4 
	BYTE		N11     An4 
	BYTE	W12
	BYTE		        Cn4 
	BYTE		N11     En4 
	BYTE		N11     Gn4 
	BYTE	W12
	BYTE		        An3 
	BYTE		N11     Cn4 
	BYTE		N11     Fn4 
	BYTE	W12
	BYTE		        Cn4 
	BYTE		N11     Fn4 
	BYTE		N11     An4 
	BYTE	W12
// 012   ----------------------------------------
	BYTE		N20     As3 
	BYTE		N20     Dn4 
	BYTE		N20     Gn4 
	BYTE	W24
	BYTE		        An3 
	BYTE		N20     Cn4 
	BYTE		N20     Fn4 
	BYTE	W24
	BYTE		N42     Gn3 
	BYTE		N42     Cn4 
	BYTE		N42     En4 
	BYTE	W48
// 013   ----------------------------------------
	BYTE		N32     Fs3 
	BYTE		N32     An3 
	BYTE		N32     Dn4 
	BYTE	W36
	BYTE		N04     Fs3 
	BYTE		N04     An3 
	BYTE		N04     Dn4 
	BYTE	W06
	BYTE		        Gn3 
	BYTE		N04     Bn3 
	BYTE		N04     En4 
	BYTE	W06
	BYTE		N11     An3 
	BYTE		N11     Dn4 
	BYTE		N11     Fs4 
	BYTE	W12
	BYTE		        An3 
	BYTE		N11     Cn4 
	BYTE		N11     En4 
	BYTE	W12
	BYTE		        Fs3 
	BYTE		N11     An3 
	BYTE		N11     Dn4 
	BYTE	W12
	BYTE		        An3 
	BYTE		N11     Dn4 
	BYTE		N11     Fs4 
	BYTE	W12
// 014   ----------------------------------------
	BYTE		N32     Gn3 
	BYTE		N32     Bn3 
	BYTE		N32     En4 
	BYTE	W36
	BYTE		N04     Gn3 
	BYTE		N04     Bn3 
	BYTE		N04     En4 
	BYTE	W06
	BYTE		        An3 
	BYTE		N04     Dn4 
	BYTE		N04     Fs4 
	BYTE	W06
	BYTE		N11     Cn4 
	BYTE		N11     En4 
	BYTE		N11     Gn4 
	BYTE	W12
	BYTE		        An3 
	BYTE		N11     Dn4 
	BYTE		N11     Fs4 
	BYTE	W12
	BYTE		        Gn3 
	BYTE		N11     Cn4 
	BYTE		N11     En4 
	BYTE	W12
	BYTE		        Cn4 
	BYTE		N11     En4 
	BYTE		N11     Gn4 
	BYTE	W12
// 015   ----------------------------------------
	BYTE		N32     An3 
	BYTE		N32     Dn4 
	BYTE		N32     Fs4 
	BYTE	W36
	BYTE		N04     An3 
	BYTE		N04     Dn4 
	BYTE		N04     Fs4 
	BYTE	W06
	BYTE		N05     Cn4 
	BYTE		N05     En4 
	BYTE		N05     Gn4 
	BYTE	W06
	BYTE		N11     Dn4 
	BYTE		N11     Fs4 
	BYTE		N11     An4 
	BYTE	W12
	BYTE		        Cn4 
	BYTE		N11     En4 
	BYTE		N11     Gn4 
	BYTE	W12
	BYTE		        An3 
	BYTE		N11     Dn4 
	BYTE		N11     Fs4 
	BYTE	W12
	BYTE		        Dn4 
	BYTE		N11     Fs4 
	BYTE		N11     An4 
	BYTE	W12
// 016   ----------------------------------------
	BYTE		TIE     Bn3 
	BYTE		TIE     Dn4 
	BYTE		TIE     Gn4 
	BYTE	W96
// 017   ----------------------------------------
	BYTE	W90
	BYTE		EOT     Bn3 
	BYTE		        Dn4 
	BYTE		        Gn4 
	BYTE	W06
// 018   ----------------------------------------
VergeOfDeath_2_018:
	BYTE		N05     Gn3   v100
	BYTE	W06
	BYTE		N02   
	BYTE	W03
	BYTE		N02   
	BYTE	W03
	BYTE		N05     Bn3 
	BYTE	W06
	BYTE		N02     Gn3 
	BYTE	W03
	BYTE		N02   
	BYTE	W03
	BYTE		N05     Dn4 
	BYTE	W06
	BYTE		N02     Gn3 
	BYTE	W03
	BYTE		N02   
	BYTE	W03
	BYTE		        Bn3 
	BYTE	W03
	BYTE		        An3 
	BYTE	W03
	BYTE		        Gn3 
	BYTE	W03
	BYTE		        Fs3 
	BYTE	W03
	BYTE		N05     Gn3 
	BYTE	W06
	BYTE		N02   
	BYTE	W03
	BYTE		N02   
	BYTE	W03
	BYTE		N05     Bn3 
	BYTE	W06
	BYTE		N02     Gn3 
	BYTE	W03
	BYTE		N02   
	BYTE	W03
	BYTE		N05     Dn4 
	BYTE	W06
	BYTE		N02     Gn3 
	BYTE	W03
	BYTE		N02   
	BYTE	W03
	BYTE		        Bn3 
	BYTE	W03
	BYTE		        An3 
	BYTE	W03
	BYTE		        Gn3 
	BYTE	W03
	BYTE		        Fs3 
	BYTE	W03
	BYTE	PEND
// 019   ----------------------------------------
VergeOfDeath_2_019:
	BYTE		N05     Fn3   v100
	BYTE	W06
	BYTE		N02   
	BYTE	W03
	BYTE		N02   
	BYTE	W03
	BYTE		N05     Bn3 
	BYTE	W06
	BYTE		N02     Fn3 
	BYTE	W03
	BYTE		N02   
	BYTE	W03
	BYTE		N05     Dn4 
	BYTE	W06
	BYTE		N02     Fn3 
	BYTE	W03
	BYTE		N02   
	BYTE	W03
	BYTE		        Bn3 
	BYTE	W03
	BYTE		        An3 
	BYTE	W03
	BYTE		        Gn3 
	BYTE	W03
	BYTE		        Fn3 
	BYTE	W03
	BYTE		N05   
	BYTE	W06
	BYTE		N02   
	BYTE	W03
	BYTE		N02   
	BYTE	W03
	BYTE		N05     Bn3 
	BYTE	W06
	BYTE		N02     Fn3 
	BYTE	W03
	BYTE		N02   
	BYTE	W03
	BYTE		N05     Dn4 
	BYTE	W06
	BYTE		N02     Fn3 
	BYTE	W03
	BYTE		N02   
	BYTE	W03
	BYTE		        Bn3 
	BYTE	W03
	BYTE		        An3 
	BYTE	W03
	BYTE		        Gn3 
	BYTE	W03
	BYTE		        Fn3 
	BYTE	W03
	BYTE	PEND
// 020   ----------------------------------------
VergeOfDeath_2_020:
	BYTE		N02     Cn3   v100
	BYTE	W03
	BYTE		        En3 
	BYTE	W03
	BYTE		        An3 
	BYTE	W03
	BYTE		        En3 
	BYTE	W03
	BYTE		        Cn3 
	BYTE	W03
	BYTE		        An2 
	BYTE	W03
	BYTE		        Cn3 
	BYTE	W03
	BYTE		        Dn3 
	BYTE	W03
	BYTE		        En3 
	BYTE	W03
	BYTE		        An3 
	BYTE	W03
	BYTE		        Cn4 
	BYTE	W03
	BYTE		        Bn3 
	BYTE	W03
	BYTE		        An3 
	BYTE	W03
	BYTE		        En3 
	BYTE	W03
	BYTE		        Cn3 
	BYTE	W03
	BYTE		        En3 
	BYTE	W03
	BYTE		        Cn3 
	BYTE	W03
	BYTE		        Fs3 
	BYTE	W03
	BYTE		        An3 
	BYTE	W03
	BYTE		        Fs3 
	BYTE	W03
	BYTE		        Cn3 
	BYTE	W03
	BYTE		        An2 
	BYTE	W03
	BYTE		        Cn3 
	BYTE	W03
	BYTE		        Fs3 
	BYTE	W03
	BYTE		        An3 
	BYTE	W03
	BYTE		        Bn3 
	BYTE	W03
	BYTE		        Cn4 
	BYTE	W03
	BYTE		        Bn3 
	BYTE	W03
	BYTE		        An3 
	BYTE	W03
	BYTE		        Gn3 
	BYTE	W03
	BYTE		        Fs3 
	BYTE	W03
	BYTE		        An3 
	BYTE	W03
	BYTE	PEND
// 021   ----------------------------------------
VergeOfDeath_2_021:
	BYTE		N02     Fs3   v100
	BYTE	W03
	BYTE		        Bn3 
	BYTE	W03
	BYTE		        Dn4 
	BYTE	W03
	BYTE		        Bn3 
	BYTE	W03
	BYTE		        Fs3 
	BYTE	W03
	BYTE		        Dn3 
	BYTE	W03
	BYTE		        Bn2 
	BYTE	W03
	BYTE		        Dn3 
	BYTE	W03
	BYTE		        Fs3 
	BYTE	W03
	BYTE		        Bn3 
	BYTE	W03
	BYTE		        Dn4 
	BYTE	W03
	BYTE		        Bn3 
	BYTE	W03
	BYTE		        Fs3 
	BYTE	W03
	BYTE		        Dn3 
	BYTE	W03
	BYTE		        Bn2 
	BYTE	W03
	BYTE		        Dn3 
	BYTE	W03
	BYTE		        Fs3 
	BYTE	W03
	BYTE		        En3 
	BYTE	W03
	BYTE		        Dn3 
	BYTE	W03
	BYTE		        En3 
	BYTE	W03
	BYTE		        Fs3 
	BYTE	W03
	BYTE		        Gn3 
	BYTE	W03
	BYTE		        An3 
	BYTE	W03
	BYTE		        Dn3 
	BYTE	W03
	BYTE		        Fs3 
	BYTE	W03
	BYTE		        En3 
	BYTE	W03
	BYTE		        Dn3 
	BYTE	W03
	BYTE		        En3 
	BYTE	W03
	BYTE		        Fs3 
	BYTE	W03
	BYTE		        Gn3 
	BYTE	W03
	BYTE		        An3 
	BYTE	W03
	BYTE		        Dn3 
	BYTE	W03
	BYTE	PEND
// 022   ----------------------------------------
VergeOfDeath_2_022:
	BYTE		N05     Gn3   v100
	BYTE	W06
	BYTE		N02   
	BYTE	W03
	BYTE		N02   
	BYTE	W03
	BYTE		N05     Bn3 
	BYTE	W06
	BYTE		N02     Gn3 
	BYTE	W03
	BYTE		N02   
	BYTE	W03
	BYTE		N05     En4 
	BYTE	W06
	BYTE		N02     Gn3 
	BYTE	W03
	BYTE		N02   
	BYTE	W03
	BYTE		        Bn3 
	BYTE	W03
	BYTE		        An3 
	BYTE	W03
	BYTE		        Gn3 
	BYTE	W03
	BYTE		        En3 
	BYTE	W03
	BYTE		N05     Gn3 
	BYTE	W06
	BYTE		N02   
	BYTE	W03
	BYTE		N02   
	BYTE	W03
	BYTE		N05     Bn3 
	BYTE	W06
	BYTE		N02     Gn3 
	BYTE	W03
	BYTE		N02   
	BYTE	W03
	BYTE		N05     En4 
	BYTE	W06
	BYTE		N02     Gn3 
	BYTE	W03
	BYTE		N02   
	BYTE	W03
	BYTE		        Bn3 
	BYTE	W03
	BYTE		        An3 
	BYTE	W03
	BYTE		        Gn3 
	BYTE	W03
	BYTE		        En3 
	BYTE	W03
	BYTE	PEND
// 023   ----------------------------------------
VergeOfDeath_2_023:
	BYTE		N05     Gn3   v100
	BYTE	W06
	BYTE		N02   
	BYTE	W03
	BYTE		N02   
	BYTE	W03
	BYTE		N05     Cn4 
	BYTE	W06
	BYTE		N02     Gn3 
	BYTE	W03
	BYTE		N02   
	BYTE	W03
	BYTE		N05     En4 
	BYTE	W06
	BYTE		N02     Gn3 
	BYTE	W03
	BYTE		N02   
	BYTE	W03
	BYTE		        Cn4 
	BYTE	W03
	BYTE		        Gn3 
	BYTE	W03
	BYTE		        En3 
	BYTE	W03
	BYTE		        Cn3 
	BYTE	W03
	BYTE		N05     An3 
	BYTE	W06
	BYTE		N02   
	BYTE	W03
	BYTE		N02   
	BYTE	W03
	BYTE		N05     Cn4 
	BYTE	W06
	BYTE		N02     An3 
	BYTE	W03
	BYTE		N02   
	BYTE	W03
	BYTE		N05     En4 
	BYTE	W06
	BYTE		N02     An3 
	BYTE	W03
	BYTE		N02   
	BYTE	W03
	BYTE		        Cn4 
	BYTE	W03
	BYTE		        Bn3 
	BYTE	W03
	BYTE		        An3 
	BYTE	W03
	BYTE		        En3 
	BYTE	W03
	BYTE	PEND
// 024   ----------------------------------------
	BYTE		        Fn3 
	BYTE	W03
	BYTE		        Gn3 
	BYTE	W03
	BYTE		        An3 
	BYTE	W03
	BYTE		        Gn3 
	BYTE	W03
	BYTE		        An3 
	BYTE	W03
	BYTE		        As3 
	BYTE	W03
	BYTE		        Cn4 
	BYTE	W03
	BYTE		        An3 
	BYTE	W03
	BYTE		        Cn4 
	BYTE	W03
	BYTE		        As3 
	BYTE	W03
	BYTE		        An3 
	BYTE	W03
	BYTE		        Gn3 
	BYTE	W03
	BYTE		        Fn3 
	BYTE	W03
	BYTE		        Cn3 
	BYTE	W03
	BYTE		        Dn3 
	BYTE	W03
	BYTE		        Cn3 
	BYTE	W03
	BYTE		        Fn3 
	BYTE	W03
	BYTE		        Gn3 
	BYTE	W03
	BYTE		        An3 
	BYTE	W03
	BYTE		        Gn3 
	BYTE	W03
	BYTE		        Dn3 
	BYTE	W03
	BYTE		        En3 
	BYTE	W03
	BYTE		        Fn3 
	BYTE	W03
	BYTE		        Dn3 
	BYTE	W03
	BYTE		        An3 
	BYTE	W03
	BYTE		        Dn4 
	BYTE	W03
	BYTE		        Fn4 
	BYTE	W03
	BYTE		        Dn4 
	BYTE	W03
	BYTE		        An3 
	BYTE	W03
	BYTE		        Fn3 
	BYTE	W03
	BYTE		        Dn3 
	BYTE	W03
	BYTE		        Fn3 
	BYTE	W03
// 025   ----------------------------------------
	BYTE		        Gn3 
	BYTE	W03
	BYTE		        An3 
	BYTE	W03
	BYTE		        Dn3 
	BYTE	W03
	BYTE		        Gn3 
	BYTE	W03
	BYTE		        An3 
	BYTE	W03
	BYTE		        Bn3 
	BYTE	W03
	BYTE		        Dn4 
	BYTE	W03
	BYTE		        Bn3 
	BYTE	W03
	BYTE		        Gn3 
	BYTE	W03
	BYTE		        An3 
	BYTE	W03
	BYTE		        Dn3 
	BYTE	W03
	BYTE		        Gn3 
	BYTE	W03
	BYTE		        An3 
	BYTE	W03
	BYTE		        Bn3 
	BYTE	W03
	BYTE		        Dn4 
	BYTE	W03
	BYTE		        Bn3 
	BYTE	W03
	BYTE		        An3 
	BYTE	W03
	BYTE		        Cn4 
	BYTE	W03
	BYTE		        Dn4 
	BYTE	W03
	BYTE		        Cn4 
	BYTE	W03
	BYTE		        An3 
	BYTE	W03
	BYTE		        Cn4 
	BYTE	W03
	BYTE		        Dn4 
	BYTE	W03
	BYTE		        Cn4 
	BYTE	W03
	BYTE		        Dn4 
	BYTE	W03
	BYTE		        Fs4 
	BYTE	W03
	BYTE		        Dn4 
	BYTE	W03
	BYTE		        Cn4 
	BYTE	W03
	BYTE		        Dn4 
	BYTE	W03
	BYTE		        Fs4 
	BYTE	W03
	BYTE		        Dn4 
	BYTE	W03
	BYTE		        Cn4 
	BYTE	W03
// 026   ----------------------------------------
	BYTE	PATT
	 POIN2	VergeOfDeath_2_018
// 027   ----------------------------------------
	BYTE	PATT
	 POIN2	VergeOfDeath_2_019
// 028   ----------------------------------------
	BYTE	PATT
	 POIN2	VergeOfDeath_2_020
// 029   ----------------------------------------
	BYTE	PATT
	 POIN2	VergeOfDeath_2_021
// 030   ----------------------------------------
	BYTE	PATT
	 POIN2	VergeOfDeath_2_022
// 031   ----------------------------------------
	BYTE	PATT
	 POIN2	VergeOfDeath_2_023
// 032   ----------------------------------------
	BYTE		N02     Gn3   v100
	BYTE	W03
	BYTE		        Bn3 
	BYTE	W03
	BYTE		        Dn4 
	BYTE	W03
	BYTE		        Bn3 
	BYTE	W03
	BYTE		        Gn3 
	BYTE	W03
	BYTE		        Dn3 
	BYTE	W03
	BYTE		        Bn2 
	BYTE	W03
	BYTE		        Dn3 
	BYTE	W03
	BYTE		        Gn3 
	BYTE	W03
	BYTE		        Bn3 
	BYTE	W03
	BYTE		        Dn4 
	BYTE	W03
	BYTE		        Bn3 
	BYTE	W03
	BYTE		        Gn3 
	BYTE	W03
	BYTE		        Dn3 
	BYTE	W03
	BYTE		        Bn2 
	BYTE	W03
	BYTE		        Dn3 
	BYTE	W03
	BYTE		        Fs3 
	BYTE	W03
	BYTE		        An3 
	BYTE	W03
	BYTE		        Cn4 
	BYTE	W03
	BYTE		        An3 
	BYTE	W03
	BYTE		        Fs3 
	BYTE	W03
	BYTE		        Cn3 
	BYTE	W03
	BYTE		        An2 
	BYTE	W03
	BYTE		        Cn3 
	BYTE	W03
	BYTE		        Fs3 
	BYTE	W03
	BYTE		        An3 
	BYTE	W03
	BYTE		        Cn4 
	BYTE	W03
	BYTE		        An3 
	BYTE	W03
	BYTE		        Fs3 
	BYTE	W03
	BYTE		        Cn3 
	BYTE	W03
	BYTE		        An2 
	BYTE	W03
	BYTE		        Cn3 
	BYTE	W03
// 033   ----------------------------------------
	BYTE		        En3 
	BYTE	W03
	BYTE		        An3 
	BYTE	W03
	BYTE		        Cn4 
	BYTE	W03
	BYTE		        An3 
	BYTE	W03
	BYTE		        Cn4 
	BYTE	W03
	BYTE		        En4 
	BYTE	W03
	BYTE		        An4 
	BYTE	W03
	BYTE		        En4 
	BYTE	W03
	BYTE		        En3 
	BYTE	W03
	BYTE		        An3 
	BYTE	W03
	BYTE		        Cn4 
	BYTE	W03
	BYTE		        An3 
	BYTE	W03
	BYTE		        Cn4 
	BYTE	W03
	BYTE		        En4 
	BYTE	W03
	BYTE		        An4 
	BYTE	W03
	BYTE		        En4 
	BYTE	W03
	BYTE		        Dn4 
	BYTE	W03
	BYTE		        Bn3 
	BYTE	W03
	BYTE		        Gn3 
	BYTE	W03
	BYTE		        Bn3 
	BYTE	W03
	BYTE		        Dn4 
	BYTE	W03
	BYTE		        Bn3 
	BYTE	W03
	BYTE		        Gn3 
	BYTE	W03
	BYTE		        Dn3 
	BYTE	W03
	BYTE		N05     Gn3 
	BYTE	W06
	BYTE		        An3 
	BYTE	W06
	BYTE		N11     Gn3 
	BYTE	W12
// 034   ----------------------------------------
	BYTE		        Cn4 
	BYTE	W18
	BYTE		        Dn4 
	BYTE	W18
	BYTE		        Cn4 
	BYTE	W18
	BYTE		        Dn4 
	BYTE	W18
	BYTE		        Cn4 
	BYTE	W12
	BYTE		        Dn4 
	BYTE	W12
// 035   ----------------------------------------
	BYTE		        En4 
	BYTE	W18
	BYTE		        Dn4 
	BYTE	W18
	BYTE		        En4 
	BYTE	W18
	BYTE		        Dn4 
	BYTE	W18
	BYTE		        En4 
	BYTE	W12
	BYTE		        Dn4 
	BYTE	W12
// 036   ----------------------------------------
	BYTE		        As3 
	BYTE	W18
	BYTE		        Cn4 
	BYTE	W18
	BYTE		        Dn4 
	BYTE	W18
	BYTE		        Fn4 
	BYTE	W18
	BYTE		        As4 
	BYTE	W12
	BYTE		        En4 
	BYTE	W12
// 037   ----------------------------------------
	BYTE		N05     Dn4 
	BYTE	W06
	BYTE		N02     An3 
	BYTE	W03
	BYTE		N02   
	BYTE	W03
	BYTE		N05     Dn4 
	BYTE	W06
	BYTE		        En4 
	BYTE	W06
	BYTE		N20     Dn4 
	BYTE	W24
	BYTE		N05     Cn4 
	BYTE	W06
	BYTE		N02     As3 
	BYTE	W03
	BYTE		N02   
	BYTE	W03
	BYTE		N05     Cn4 
	BYTE	W06
	BYTE		        Dn4 
	BYTE	W06
	BYTE		N20     Cn4 
	BYTE	W24
// 038   ----------------------------------------
	BYTE		N11   
	BYTE	W18
	BYTE		        Dn4 
	BYTE	W18
	BYTE		        Cn4 
	BYTE	W18
	BYTE		        Dn4 
	BYTE	W18
	BYTE		        Cn4 
	BYTE	W12
	BYTE		        En4 
	BYTE	W12
// 039   ----------------------------------------
	BYTE		        Fn4 
	BYTE	W18
	BYTE		        Dn4 
	BYTE	W18
	BYTE		        As3 
	BYTE	W18
	BYTE		        Gn3 
	BYTE	W18
	BYTE		        As3 
	BYTE	W12
	BYTE		        Gn3 
	BYTE	W12
// 040   ----------------------------------------
	BYTE		N05   
	BYTE	W06
	BYTE		N02   
	BYTE	W03
	BYTE		N02   
	BYTE	W03
	BYTE		N05     Cn4 
	BYTE	W06
	BYTE		        En4 
	BYTE	W06
	BYTE		N20     Gn4 
	BYTE	W24
	BYTE		N05     An3 
	BYTE	W06
	BYTE		N02   
	BYTE	W03
	BYTE		N02   
	BYTE	W03
	BYTE		N05     Cn4 
	BYTE	W06
	BYTE		        En4 
	BYTE	W06
	BYTE		N20     An4 
	BYTE	W24
// 041   ----------------------------------------
	BYTE		N05     An3 
	BYTE	W06
	BYTE		N02     Dn4 
	BYTE	W03
	BYTE		N02   
	BYTE	W03
	BYTE		N05     En4 
	BYTE	W06
	BYTE		N05   
	BYTE	W06
	BYTE		N20     Fs4 
	BYTE	W24
	BYTE		N11   
	BYTE	W12
	BYTE		        En4 
	BYTE	W12
	BYTE		        Dn4 
	BYTE	W12
	BYTE		        Cn4 
	BYTE	W12
// 042   ----------------------------------------
	BYTE	W96
// 043   ----------------------------------------
	BYTE	W96
// 044   ----------------------------------------
	BYTE	W96
// 045   ----------------------------------------
	BYTE	W96
// 046   ----------------------------------------
	BYTE		N96     Dn3 
	BYTE		N96     Gn3 
	BYTE		N96     Bn3 
	BYTE	W96
// 047   ----------------------------------------
	BYTE		        Dn3 
	BYTE		N96     Fs3 
	BYTE		N96     An3 
	BYTE	W96
// 048   ----------------------------------------
	BYTE		        Cn3 
	BYTE		N96     En3 
	BYTE		N96     An3 
	BYTE	W96
// 049   ----------------------------------------
	BYTE		        Cn3 
	BYTE		N96     Fs3 
	BYTE		N96     An3 
	BYTE	W96
// 050   ----------------------------------------
	BYTE		        En3 
	BYTE		N96     Gn3 
	BYTE		N96     Bn3 
	BYTE	W96
// 051   ----------------------------------------
	BYTE		N90     Gn2 
	BYTE		N90     Bn2 
	BYTE		N90     En3 
	BYTE	W96
	BYTE	GoTo
	 POIN2	VergeOfDeath_2_B1
VergeOfDeath_2_B2:
// 052   ----------------------------------------
	BYTE	FINE

//**************** Track 3 (Midi-Chn.3) ****************//

VergeOfDeath_3:
	BYTE	KEYSH   VergeOfDeath_key+0
// 000   ----------------------------------------
	BYTE		VOICE   60
	BYTE		MODT    0
	BYTE		LFOS    44
	BYTE		PAN     c_v+17
	BYTE		VOL     117*VergeOfDeath_mvl/mxv
	BYTE	W96
VergeOfDeath_3_B1:
// 001   ----------------------------------------
VergeOfDeath_3_001:
	BYTE		N06     Fn3   v100
	BYTE		N06     An3 
	BYTE		N06     Dn4 
	BYTE	W36
	BYTE		N04     Dn3 
	BYTE	W06
	BYTE		        En3 
	BYTE	W06
	BYTE		        Fn3 
	BYTE	W06
	BYTE		N04   
	BYTE	W06
	BYTE		        En3 
	BYTE	W06
	BYTE		N04   
	BYTE	W06
	BYTE		        As3 
	BYTE	W06
	BYTE		N04   
	BYTE	W06
	BYTE		        An3 
	BYTE	W06
	BYTE		N04   
	BYTE	W06
	BYTE	PEND
// 002   ----------------------------------------
VergeOfDeath_3_002:
	BYTE		N04     An3   v100
	BYTE	W18
	BYTE		        Gn3 
	BYTE	W18
	BYTE		        As3 
	BYTE	W18
	BYTE		        Gn3 
	BYTE	W18
	BYTE		N11     An3 
	BYTE	W12
	BYTE		N04     Gn3 
	BYTE	W12
	BYTE	PEND
// 003   ----------------------------------------
	BYTE	PATT
	 POIN2	VergeOfDeath_3_001
// 004   ----------------------------------------
	BYTE	PATT
	 POIN2	VergeOfDeath_3_002
// 005   ----------------------------------------
	BYTE	PATT
	 POIN2	VergeOfDeath_3_001
// 006   ----------------------------------------
	BYTE	PATT
	 POIN2	VergeOfDeath_3_002
// 007   ----------------------------------------
	BYTE	PATT
	 POIN2	VergeOfDeath_3_001
// 008   ----------------------------------------
	BYTE	PATT
	 POIN2	VergeOfDeath_3_002
// 009   ----------------------------------------
	BYTE		N90     Dn3   v100
	BYTE		N90     Fn3 
	BYTE		N90     An3 
	BYTE	W96
// 010   ----------------------------------------
	BYTE		        Cn3 
	BYTE		N90     En3 
	BYTE		N90     Gn3 
	BYTE	W96
// 011   ----------------------------------------
	BYTE		        Cn3 
	BYTE		N90     Fn3 
	BYTE		N90     An3 
	BYTE	W96
// 012   ----------------------------------------
	BYTE		        En3 
	BYTE		N90     Gn3 
	BYTE		N90     As3 
	BYTE	W96
// 013   ----------------------------------------
VergeOfDeath_3_013:
	BYTE		N90     Dn3   v100
	BYTE		N90     Fs3 
	BYTE		N90     An3 
	BYTE	W96
	BYTE	PEND
// 014   ----------------------------------------
	BYTE		        En3 
	BYTE		N90     Gn3 
	BYTE		N90     Bn3 
	BYTE	W96
// 015   ----------------------------------------
	BYTE	PATT
	 POIN2	VergeOfDeath_3_013
// 016   ----------------------------------------
	BYTE		TIE     Dn3   v100
	BYTE		TIE     Gn3 
	BYTE		TIE     Bn3 
	BYTE	W96
// 017   ----------------------------------------
	BYTE	W90
	BYTE		EOT     Dn3 
	BYTE		        Gn3 
	BYTE		        Bn3 
	BYTE	W06
// 018   ----------------------------------------
VergeOfDeath_3_018:
	BYTE	W12
	BYTE		N04     Gn2   v100
	BYTE		N04     Bn2 
	BYTE		N04     Dn3 
	BYTE	W06
	BYTE		        Gn2 
	BYTE		N04     Bn2 
	BYTE		N04     Dn3 
	BYTE	W06
	BYTE		        Gn2 
	BYTE		N04     Bn2 
	BYTE		N04     Dn3 
	BYTE	W12
	BYTE		        Gn2 
	BYTE		N04     Bn2 
	BYTE		N04     Dn3 
	BYTE	W12
	BYTE		N42     Gn2 
	BYTE		N42     Bn2 
	BYTE		N42     Dn3 
	BYTE	W48
	BYTE	PEND
// 019   ----------------------------------------
VergeOfDeath_3_019:
	BYTE	W12
	BYTE		N04     Bn2   v100
	BYTE		N04     Dn3 
	BYTE		N04     Fn3 
	BYTE	W06
	BYTE		        Bn2 
	BYTE		N04     Dn3 
	BYTE		N04     Fn3 
	BYTE	W06
	BYTE		        Bn2 
	BYTE		N04     Dn3 
	BYTE		N04     Fn3 
	BYTE	W12
	BYTE		        Bn2 
	BYTE		N04     Dn3 
	BYTE		N04     Fn3 
	BYTE	W12
	BYTE		N42     Bn2 
	BYTE		N42     Dn3 
	BYTE		N42     Fn3 
	BYTE	W48
	BYTE	PEND
// 020   ----------------------------------------
VergeOfDeath_3_020:
	BYTE	W12
	BYTE		N04     An2   v100
	BYTE		N04     Cn3 
	BYTE		N04     En3 
	BYTE	W06
	BYTE		        An2 
	BYTE		N04     Cn3 
	BYTE		N04     En3 
	BYTE	W06
	BYTE		        An2 
	BYTE		N04     Cn3 
	BYTE		N04     En3 
	BYTE	W12
	BYTE		        An2 
	BYTE		N04     Cn3 
	BYTE		N04     En3 
	BYTE	W24
	BYTE		        An2 
	BYTE		N04     Cn3 
	BYTE		N04     Fs3 
	BYTE	W06
	BYTE		        An2 
	BYTE		N04     Cn3 
	BYTE		N04     Fs3 
	BYTE	W06
	BYTE		        An2 
	BYTE		N04     Cn3 
	BYTE		N04     Fs3 
	BYTE	W12
	BYTE		        An2 
	BYTE		N04     Cn3 
	BYTE		N04     Fs3 
	BYTE	W12
	BYTE	PEND
// 021   ----------------------------------------
VergeOfDeath_3_021:
	BYTE		N32     Bn2   v100
	BYTE		N32     Dn3 
	BYTE		N32     Fs3 
	BYTE	W36
	BYTE		N04     Bn2 
	BYTE		N04     Dn3 
	BYTE		N04     Fs3 
	BYTE	W06
	BYTE		        Bn2 
	BYTE		N04     Dn3 
	BYTE		N04     Fs3 
	BYTE	W06
	BYTE		N42     An2 
	BYTE		N42     Dn3 
	BYTE		N42     Fs3 
	BYTE	W48
	BYTE	PEND
// 022   ----------------------------------------
VergeOfDeath_3_022:
	BYTE	W12
	BYTE		N04     Gn2   v100
	BYTE		N04     Bn2 
	BYTE		N04     En3 
	BYTE	W06
	BYTE		        Gn2 
	BYTE		N04     Bn2 
	BYTE		N04     En3 
	BYTE	W06
	BYTE		        Gn2 
	BYTE		N04     Bn2 
	BYTE		N04     En3 
	BYTE	W12
	BYTE		        Gn2 
	BYTE		N04     Bn2 
	BYTE		N04     En3 
	BYTE	W12
	BYTE		N42     Gn2 
	BYTE		N42     Bn2 
	BYTE		N42     En3 
	BYTE	W48
	BYTE	PEND
// 023   ----------------------------------------
	BYTE	W12
	BYTE		N05     Gn2 
	BYTE		N05     Cn3 
	BYTE		N05     En3 
	BYTE	W06
	BYTE		        Gn2 
	BYTE		N05     Cn3 
	BYTE		N05     En3 
	BYTE	W06
	BYTE		N11     Gn2 
	BYTE		N11     Cn3 
	BYTE		N11     En3 
	BYTE	W12
	BYTE		        Gn2 
	BYTE		N11     Cn3 
	BYTE		N11     En3 
	BYTE	W12
	BYTE		N42     An2 
	BYTE		N42     Cn3 
	BYTE		N42     En3 
	BYTE	W48
// 024   ----------------------------------------
	BYTE	W12
	BYTE		N04     An2 
	BYTE		N04     Cn3 
	BYTE		N04     Fn3 
	BYTE	W06
	BYTE		        An2 
	BYTE		N04     Cn3 
	BYTE		N04     Fn3 
	BYTE	W06
	BYTE		        An2 
	BYTE		N04     Cn3 
	BYTE		N04     Fn3 
	BYTE	W12
	BYTE		        An2 
	BYTE		N04     Cn3 
	BYTE		N04     Fn3 
	BYTE	W24
	BYTE		        An2 
	BYTE		N04     Dn3 
	BYTE		N04     Fn3 
	BYTE	W06
	BYTE		        An2 
	BYTE		N04     Dn3 
	BYTE		N04     Fn3 
	BYTE	W06
	BYTE		        An2 
	BYTE		N04     Dn3 
	BYTE		N04     Fn3 
	BYTE	W12
	BYTE		        An2 
	BYTE		N04     Dn3 
	BYTE		N04     Fn3 
	BYTE	W12
// 025   ----------------------------------------
	BYTE		N32     An2 
	BYTE		N32     Bn2 
	BYTE		N32     Dn3 
	BYTE	W36
	BYTE		N05     An2 
	BYTE		N05     Bn2 
	BYTE		N05     Dn3 
	BYTE	W06
	BYTE		        An2 
	BYTE		N05     Bn2 
	BYTE		N05     Dn3 
	BYTE	W06
	BYTE		N42     An2 
	BYTE		N42     Cn3 
	BYTE		N42     Dn3 
	BYTE	W48
// 026   ----------------------------------------
	BYTE	PATT
	 POIN2	VergeOfDeath_3_018
// 027   ----------------------------------------
	BYTE	PATT
	 POIN2	VergeOfDeath_3_019
// 028   ----------------------------------------
	BYTE	PATT
	 POIN2	VergeOfDeath_3_020
// 029   ----------------------------------------
	BYTE	PATT
	 POIN2	VergeOfDeath_3_021
// 030   ----------------------------------------
	BYTE	PATT
	 POIN2	VergeOfDeath_3_022
// 031   ----------------------------------------
	BYTE	W12
	BYTE		N04     Gn2   v100
	BYTE		N04     Cn3 
	BYTE		N04     En3 
	BYTE	W06
	BYTE		        Gn2 
	BYTE		N04     Cn3 
	BYTE		N04     En3 
	BYTE	W06
	BYTE		        Gn2 
	BYTE		N04     Cn3 
	BYTE		N04     En3 
	BYTE	W12
	BYTE		        Gn2 
	BYTE		N04     Cn3 
	BYTE		N04     En3 
	BYTE	W12
	BYTE		N42     An2 
	BYTE		N42     Cn3 
	BYTE		N42     En3 
	BYTE	W48
// 032   ----------------------------------------
	BYTE	W12
	BYTE		N04     Gn2 
	BYTE		N04     Bn2 
	BYTE		N04     Dn3 
	BYTE	W06
	BYTE		        Gn2 
	BYTE		N04     Bn2 
	BYTE		N04     Dn3 
	BYTE	W06
	BYTE		        Gn2 
	BYTE		N04     Bn2 
	BYTE		N04     Dn3 
	BYTE	W12
	BYTE		        Gn2 
	BYTE		N04     Bn2 
	BYTE		N04     Dn3 
	BYTE	W24
	BYTE		        An2 
	BYTE		N04     Cn3 
	BYTE		N04     Fs3 
	BYTE	W06
	BYTE		        An2 
	BYTE		N04     Cn3 
	BYTE		N04     Fs3 
	BYTE	W06
	BYTE		        An2 
	BYTE		N04     Cn3 
	BYTE		N04     Fs3 
	BYTE	W12
	BYTE		        An2 
	BYTE		N04     Cn3 
	BYTE		N04     Fs3 
	BYTE	W12
// 033   ----------------------------------------
	BYTE		N32     An2 
	BYTE		N32     Cn3 
	BYTE		N32     En3 
	BYTE	W36
	BYTE		N04     An2 
	BYTE		N04     Cn3 
	BYTE		N04     En3 
	BYTE	W06
	BYTE		        An2 
	BYTE		N04     Cn3 
	BYTE		N04     En3 
	BYTE	W06
	BYTE		N42     Gn2 
	BYTE		N42     Bn2 
	BYTE		N42     Dn3 
	BYTE	W48
// 034   ----------------------------------------
	BYTE		N96     An2 
	BYTE		N96     Cn3 
	BYTE		N96     Fn3 
	BYTE	W96
// 035   ----------------------------------------
	BYTE		N48     Fn2 
	BYTE		N48     An2 
	BYTE		N48     En3 
	BYTE	W48
	BYTE		        Fn2 
	BYTE		N48     An2 
	BYTE		N48     Dn3 
	BYTE	W48
// 036   ----------------------------------------
	BYTE		        Gn2 
	BYTE		N48     As2 
	BYTE		N48     Dn3 
	BYTE	W48
	BYTE		        Gn2 
	BYTE		N48     As2 
	BYTE		N48     En3 
	BYTE	W48
// 037   ----------------------------------------
	BYTE		        As2 
	BYTE		N48     Dn3 
	BYTE		N48     Fn3 
	BYTE	W48
	BYTE		        As2 
	BYTE		N48     Cn3 
	BYTE		N48     En3 
	BYTE	W48
// 038   ----------------------------------------
	BYTE		        An2 
	BYTE		N48     Cn3 
	BYTE		N48     Fn3 
	BYTE	W48
	BYTE		N24     An2 
	BYTE		N24     Cn3 
	BYTE		N24     En3 
	BYTE	W24
	BYTE		        Fn2 
	BYTE		N24     An2 
	BYTE		N24     Cn3 
	BYTE	W24
// 039   ----------------------------------------
	BYTE		N48     Fn2 
	BYTE		N48     As2 
	BYTE		N48     Dn3 
	BYTE	W48
	BYTE		        Gn2 
	BYTE		N48     As2 
	BYTE		N48     Dn3 
	BYTE	W48
// 040   ----------------------------------------
	BYTE		        Gn2 
	BYTE		N48     Cn3 
	BYTE		N48     En3 
	BYTE	W48
	BYTE		        An2 
	BYTE		N48     Cn3 
	BYTE		N48     En3 
	BYTE	W48
// 041   ----------------------------------------
	BYTE		        An2 
	BYTE		N48     Dn3 
	BYTE		N90     Fs3 
	BYTE	W48
	BYTE		N42     An2 
	BYTE		N42     Cn3 
	BYTE	W48
// 042   ----------------------------------------
VergeOfDeath_3_042:
	BYTE		N96     Dn3   v100
	BYTE		N96     Gn3 
	BYTE		N96     Bn3 
	BYTE	W96
	BYTE	PEND
// 043   ----------------------------------------
VergeOfDeath_3_043:
	BYTE		N96     Dn3   v100
	BYTE		N96     Fs3 
	BYTE		N96     An3 
	BYTE	W96
	BYTE	PEND
// 044   ----------------------------------------
VergeOfDeath_3_044:
	BYTE		N96     Cn3   v100
	BYTE		N96     En3 
	BYTE		N96     An3 
	BYTE	W96
	BYTE	PEND
// 045   ----------------------------------------
VergeOfDeath_3_045:
	BYTE		N96     Cn3   v100
	BYTE		N96     Fs3 
	BYTE		N96     An3 
	BYTE	W96
	BYTE	PEND
// 046   ----------------------------------------
	BYTE	PATT
	 POIN2	VergeOfDeath_3_042
// 047   ----------------------------------------
	BYTE	PATT
	 POIN2	VergeOfDeath_3_043
// 048   ----------------------------------------
	BYTE	PATT
	 POIN2	VergeOfDeath_3_044
// 049   ----------------------------------------
	BYTE	PATT
	 POIN2	VergeOfDeath_3_045
// 050   ----------------------------------------
	BYTE		N96     En3   v100
	BYTE		N96     Gn3 
	BYTE		N96     Bn3 
	BYTE	W96
// 051   ----------------------------------------
	BYTE		N90     Gn2 
	BYTE		N90     Bn2 
	BYTE		N90     En3 
	BYTE	W96
	BYTE	GoTo
	 POIN2	VergeOfDeath_3_B1
VergeOfDeath_3_B2:
// 052   ----------------------------------------
	BYTE	FINE

//**************** Track 4 (Midi-Chn.4) ****************//

VergeOfDeath_4:
	BYTE	KEYSH   VergeOfDeath_key+0
// 000   ----------------------------------------
	BYTE		VOICE   47
	BYTE		MODT    0
	BYTE		LFOS    44
	BYTE		VOL     127*VergeOfDeath_mvl/mxv
	BYTE		PAN     c_v+0
	BYTE		N02     Dn2   v004
	BYTE	W03
	BYTE		N02   
	BYTE	W03
	BYTE		N02   
	BYTE	W03
	BYTE		        Dn2   v008
	BYTE	W03
	BYTE		N02   
	BYTE	W03
	BYTE		N02   
	BYTE	W03
	BYTE		        Dn2   v012
	BYTE	W03
	BYTE		N02   
	BYTE	W03
	BYTE		        Dn2   v016
	BYTE	W03
	BYTE		N02   
	BYTE	W03
	BYTE		        Dn2   v020
	BYTE	W03
	BYTE		        Dn2   v024
	BYTE	W03
	BYTE		N02   
	BYTE	W03
	BYTE		        Dn2   v028
	BYTE	W03
	BYTE		        Dn2   v032
	BYTE	W03
	BYTE		        Dn2   v036
	BYTE	W03
	BYTE		        Dn2   v040
	BYTE	W03
	BYTE		        Dn2   v044
	BYTE	W03
	BYTE		        Dn2   v048
	BYTE	W03
	BYTE		        Dn2   v056
	BYTE	W03
	BYTE		        Dn2   v060
	BYTE	W03
	BYTE		        Dn2   v064
	BYTE	W03
	BYTE		        Dn2   v068
	BYTE	W03
	BYTE		        Dn2   v076
	BYTE	W03
	BYTE		        Dn2   v080
	BYTE	W03
	BYTE		        Dn2   v084
	BYTE	W03
	BYTE		        Dn2   v092
	BYTE	W03
	BYTE		        Dn2   v096
	BYTE	W03
	BYTE		        Dn2   v104
	BYTE	W03
	BYTE		        Dn2   v108
	BYTE	W03
	BYTE		        Dn2   v116
	BYTE	W03
	BYTE		        Dn2   v120
	BYTE	W03
VergeOfDeath_4_B1:
// 001   ----------------------------------------
VergeOfDeath_4_001:
	BYTE		N20     Dn2   v127
	BYTE	W42
	BYTE		N05     An1 
	BYTE	W06
	BYTE		N11     Dn2 
	BYTE	W12
	BYTE		        An1 
	BYTE	W12
	BYTE		        Dn2 
	BYTE	W12
	BYTE		        An1 
	BYTE	W12
	BYTE	PEND
// 002   ----------------------------------------
VergeOfDeath_4_002:
	BYTE		N11     Dn2   v127
	BYTE	W18
	BYTE		        An1 
	BYTE	W18
	BYTE		        Dn2 
	BYTE	W18
	BYTE		        An1 
	BYTE	W18
	BYTE		        Dn2 
	BYTE	W12
	BYTE		        Cs2 
	BYTE	W12
	BYTE	PEND
// 003   ----------------------------------------
	BYTE	PATT
	 POIN2	VergeOfDeath_4_001
// 004   ----------------------------------------
	BYTE	PATT
	 POIN2	VergeOfDeath_4_002
// 005   ----------------------------------------
	BYTE	PATT
	 POIN2	VergeOfDeath_4_001
// 006   ----------------------------------------
	BYTE	PATT
	 POIN2	VergeOfDeath_4_002
// 007   ----------------------------------------
	BYTE	PATT
	 POIN2	VergeOfDeath_4_001
// 008   ----------------------------------------
	BYTE	PATT
	 POIN2	VergeOfDeath_4_002
// 009   ----------------------------------------
VergeOfDeath_4_009:
	BYTE		N05     Dn2   v127
	BYTE	W06
	BYTE		N05   
	BYTE	W18
	BYTE		        An1 
	BYTE	W06
	BYTE		N05   
	BYTE	W18
	BYTE		        Dn2 
	BYTE	W06
	BYTE		N05   
	BYTE	W18
	BYTE		        An1 
	BYTE	W06
	BYTE		N05   
	BYTE	W18
	BYTE	PEND
// 010   ----------------------------------------
	BYTE		        Cn2 
	BYTE	W06
	BYTE		N05   
	BYTE	W18
	BYTE		        Gn1 
	BYTE	W06
	BYTE		N05   
	BYTE	W18
	BYTE		        Cn2 
	BYTE	W06
	BYTE		N05   
	BYTE	W18
	BYTE		        Gn1 
	BYTE	W06
	BYTE		N05   
	BYTE	W18
// 011   ----------------------------------------
	BYTE		        Cn2 
	BYTE	W06
	BYTE		N05   
	BYTE	W18
	BYTE		        An1 
	BYTE	W06
	BYTE		N05   
	BYTE	W18
	BYTE		        Cn2 
	BYTE	W06
	BYTE		N05   
	BYTE	W18
	BYTE		        An1 
	BYTE	W06
	BYTE		N05   
	BYTE	W18
// 012   ----------------------------------------
	BYTE		        As1 
	BYTE	W06
	BYTE		N05   
	BYTE	W18
	BYTE		        Gn1 
	BYTE	W06
	BYTE		N05   
	BYTE	W18
	BYTE		        As1 
	BYTE	W06
	BYTE		N05   
	BYTE	W18
	BYTE		        Gn1 
	BYTE	W06
	BYTE		N05   
	BYTE	W18
// 013   ----------------------------------------
	BYTE	PATT
	 POIN2	VergeOfDeath_4_009
// 014   ----------------------------------------
	BYTE		N05     En2   v127
	BYTE	W06
	BYTE		N05   
	BYTE	W18
	BYTE		        Bn1 
	BYTE	W06
	BYTE		N05   
	BYTE	W18
	BYTE		        En2 
	BYTE	W06
	BYTE		N05   
	BYTE	W18
	BYTE		        Bn1 
	BYTE	W06
	BYTE		N05   
	BYTE	W18
// 015   ----------------------------------------
	BYTE	PATT
	 POIN2	VergeOfDeath_4_009
// 016   ----------------------------------------
VergeOfDeath_4_016:
	BYTE		N11     Gn1   v127
	BYTE	W18
	BYTE		        Dn2 
	BYTE	W18
	BYTE		        Gn1 
	BYTE	W18
	BYTE		        Dn2 
	BYTE	W18
	BYTE		        Gn1 
	BYTE	W12
	BYTE		        Dn2 
	BYTE	W12
	BYTE	PEND
// 017   ----------------------------------------
	BYTE	PATT
	 POIN2	VergeOfDeath_4_016
// 018   ----------------------------------------
VergeOfDeath_4_018:
	BYTE		N05     Gn1   v127
	BYTE	W06
	BYTE		N05   
	BYTE	W12
	BYTE		        Dn2 
	BYTE	W06
	BYTE		        Gn1 
	BYTE	W06
	BYTE		N05   
	BYTE	W12
	BYTE		        Dn2 
	BYTE	W06
	BYTE		        Gn1 
	BYTE	W06
	BYTE		N05   
	BYTE	W12
	BYTE		        Dn2 
	BYTE	W06
	BYTE		        Gn1 
	BYTE	W06
	BYTE		        Bn1 
	BYTE	W06
	BYTE		        Dn2 
	BYTE	W06
	BYTE		        Gn1 
	BYTE	W06
	BYTE	PEND
// 019   ----------------------------------------
VergeOfDeath_4_019:
	BYTE		N05     Gn1   v127
	BYTE	W06
	BYTE		N05   
	BYTE	W12
	BYTE		        Fn2 
	BYTE	W06
	BYTE		        Gn1 
	BYTE	W06
	BYTE		N05   
	BYTE	W12
	BYTE		        Fn2 
	BYTE	W06
	BYTE		        Gn1 
	BYTE	W06
	BYTE		N05   
	BYTE	W12
	BYTE		        Fn2 
	BYTE	W06
	BYTE		        Bn1 
	BYTE	W06
	BYTE		        Dn2 
	BYTE	W06
	BYTE		        Fn2 
	BYTE	W06
	BYTE		        Dn2 
	BYTE	W06
	BYTE	PEND
// 020   ----------------------------------------
VergeOfDeath_4_020:
	BYTE		N05     An1   v127
	BYTE	W06
	BYTE		N05   
	BYTE	W12
	BYTE		        Cn2 
	BYTE	W06
	BYTE		        An1 
	BYTE	W06
	BYTE		N05   
	BYTE	W12
	BYTE		        Cn2 
	BYTE	W06
	BYTE		        An1 
	BYTE	W06
	BYTE		N05   
	BYTE	W12
	BYTE		        Cn2 
	BYTE	W06
	BYTE		        Dn2 
	BYTE	W06
	BYTE		        Cn2 
	BYTE	W06
	BYTE		        Bn1 
	BYTE	W06
	BYTE		        An1 
	BYTE	W06
	BYTE	PEND
// 021   ----------------------------------------
VergeOfDeath_4_021:
	BYTE		N05     Fs1   v127
	BYTE	W06
	BYTE		N05   
	BYTE	W12
	BYTE		        Dn2 
	BYTE	W06
	BYTE		        Fs1 
	BYTE	W06
	BYTE		N05   
	BYTE	W12
	BYTE		        Dn2 
	BYTE	W06
	BYTE		        An1 
	BYTE	W06
	BYTE		N05   
	BYTE	W12
	BYTE		        Dn2 
	BYTE	W06
	BYTE		        Fs2 
	BYTE	W06
	BYTE		        Dn2 
	BYTE	W06
	BYTE		        Cn2 
	BYTE	W06
	BYTE		        An1 
	BYTE	W06
	BYTE	PEND
// 022   ----------------------------------------
VergeOfDeath_4_022:
	BYTE		N05     Gn1   v127
	BYTE	W06
	BYTE		N05   
	BYTE	W12
	BYTE		        En1 
	BYTE	W06
	BYTE		        Gn1 
	BYTE	W06
	BYTE		N05   
	BYTE	W12
	BYTE		        En1 
	BYTE	W06
	BYTE		        Gn1 
	BYTE	W06
	BYTE		N05   
	BYTE	W12
	BYTE		        En1 
	BYTE	W06
	BYTE		        Gn1 
	BYTE	W06
	BYTE		        An1 
	BYTE	W06
	BYTE		        Bn1 
	BYTE	W06
	BYTE		        Gn1 
	BYTE	W06
	BYTE	PEND
// 023   ----------------------------------------
VergeOfDeath_4_023:
	BYTE		N05     Gn1   v127
	BYTE	W06
	BYTE		N05   
	BYTE	W12
	BYTE		        Cn2 
	BYTE	W06
	BYTE		        Gn1 
	BYTE	W06
	BYTE		N05   
	BYTE	W12
	BYTE		        Cn2 
	BYTE	W06
	BYTE		        Gn1 
	BYTE	W06
	BYTE		N05   
	BYTE	W12
	BYTE		        Cn2 
	BYTE	W06
	BYTE		        En2 
	BYTE	W06
	BYTE		        Cn2 
	BYTE	W06
	BYTE		        Bn1 
	BYTE	W06
	BYTE		        An1 
	BYTE	W06
	BYTE	PEND
// 024   ----------------------------------------
	BYTE		        Cn2 
	BYTE	W06
	BYTE		N05   
	BYTE	W12
	BYTE		        An1 
	BYTE	W06
	BYTE		        Cn2 
	BYTE	W06
	BYTE		N05   
	BYTE	W12
	BYTE		        An1 
	BYTE	W06
	BYTE		        Dn2 
	BYTE	W06
	BYTE		N05   
	BYTE	W12
	BYTE		        An1 
	BYTE	W06
	BYTE		        Dn2 
	BYTE	W06
	BYTE		N05   
	BYTE	W12
	BYTE		        An1 
	BYTE	W06
// 025   ----------------------------------------
	BYTE		N11     Gn1 
	BYTE	W18
	BYTE		        An1 
	BYTE	W18
	BYTE		        Gn1 
	BYTE	W18
	BYTE		        An1 
	BYTE	W18
	BYTE		        Fs1 
	BYTE	W12
	BYTE		        An1 
	BYTE	W12
// 026   ----------------------------------------
	BYTE	PATT
	 POIN2	VergeOfDeath_4_018
// 027   ----------------------------------------
	BYTE	PATT
	 POIN2	VergeOfDeath_4_019
// 028   ----------------------------------------
	BYTE	PATT
	 POIN2	VergeOfDeath_4_020
// 029   ----------------------------------------
	BYTE	PATT
	 POIN2	VergeOfDeath_4_021
// 030   ----------------------------------------
	BYTE	PATT
	 POIN2	VergeOfDeath_4_022
// 031   ----------------------------------------
	BYTE	PATT
	 POIN2	VergeOfDeath_4_023
// 032   ----------------------------------------
	BYTE		N05     Gn1   v127
	BYTE	W06
	BYTE		N05   
	BYTE	W12
	BYTE		        Dn2 
	BYTE	W06
	BYTE		        Gn1 
	BYTE	W06
	BYTE		N05   
	BYTE	W12
	BYTE		        Dn2 
	BYTE	W06
	BYTE		        Fs1 
	BYTE	W06
	BYTE		N05   
	BYTE	W12
	BYTE		        Dn2 
	BYTE	W06
	BYTE		        Fs1 
	BYTE	W06
	BYTE		N05   
	BYTE	W12
	BYTE		        Dn2 
	BYTE	W06
// 033   ----------------------------------------
	BYTE		N11     An1 
	BYTE	W18
	BYTE		        En1 
	BYTE	W18
	BYTE		        An1 
	BYTE	W18
	BYTE		        Dn1 
	BYTE	W18
	BYTE		        Gn1 
	BYTE	W12
	BYTE		        Dn1 
	BYTE	W12
// 034   ----------------------------------------
	BYTE		N05     Fn1 
	BYTE	W06
	BYTE		N05   
	BYTE	W12
	BYTE		        Cn2 
	BYTE	W06
	BYTE		        Fn1 
	BYTE	W06
	BYTE		N05   
	BYTE	W12
	BYTE		        Cn2 
	BYTE	W06
	BYTE		        Fn1 
	BYTE	W06
	BYTE		N05   
	BYTE	W12
	BYTE		        Cn2 
	BYTE	W06
	BYTE		N05   
	BYTE	W06
	BYTE		        As1 
	BYTE	W06
	BYTE		        An1 
	BYTE	W06
	BYTE		        Fn1 
	BYTE	W06
// 035   ----------------------------------------
	BYTE		        En1 
	BYTE	W06
	BYTE		N05   
	BYTE	W12
	BYTE		        Cn2 
	BYTE	W06
	BYTE		        En1 
	BYTE	W06
	BYTE		N05   
	BYTE	W12
	BYTE		        Cn2 
	BYTE	W06
	BYTE		        Dn2 
	BYTE	W06
	BYTE		N05   
	BYTE	W12
	BYTE		        An1 
	BYTE	W06
	BYTE		        Fn1 
	BYTE	W06
	BYTE		        Gn1 
	BYTE	W06
	BYTE		        An1 
	BYTE	W06
	BYTE		        Fn1 
	BYTE	W06
// 036   ----------------------------------------
	BYTE		        As1 
	BYTE	W06
	BYTE		N05   
	BYTE	W12
	BYTE		        Fn1 
	BYTE	W06
	BYTE		        As1 
	BYTE	W06
	BYTE		        An1 
	BYTE	W06
	BYTE		        Gn1 
	BYTE	W06
	BYTE		        Fn1 
	BYTE	W06
	BYTE		        As1 
	BYTE	W06
	BYTE		N05   
	BYTE	W12
	BYTE		        En1 
	BYTE	W06
	BYTE		        As1 
	BYTE	W06
	BYTE		        An1 
	BYTE	W06
	BYTE		        Gn1 
	BYTE	W06
	BYTE		        En1 
	BYTE	W06
// 037   ----------------------------------------
	BYTE		N11     Fn1 
	BYTE	W18
	BYTE		        Dn1 
	BYTE	W18
	BYTE		        Fn1 
	BYTE	W18
	BYTE		        En1 
	BYTE	W18
	BYTE		        Cn2 
	BYTE	W12
	BYTE		        As1 
	BYTE	W12
// 038   ----------------------------------------
	BYTE		N05     An1 
	BYTE	W06
	BYTE		N05   
	BYTE	W12
	BYTE		        Fn1 
	BYTE	W06
	BYTE		        An1 
	BYTE	W06
	BYTE		N05   
	BYTE	W12
	BYTE		        Fn1 
	BYTE	W06
	BYTE		        An1 
	BYTE	W06
	BYTE		N05   
	BYTE	W12
	BYTE		        En1 
	BYTE	W06
	BYTE		        Fn1 
	BYTE	W06
	BYTE		N05   
	BYTE	W12
	BYTE		        Cn2 
	BYTE	W06
// 039   ----------------------------------------
	BYTE		        Fn1 
	BYTE	W06
	BYTE		N05   
	BYTE	W12
	BYTE		        As1 
	BYTE	W06
	BYTE		        Fn1 
	BYTE	W06
	BYTE		N05   
	BYTE	W12
	BYTE		        As1 
	BYTE	W06
	BYTE		        Gn1 
	BYTE	W06
	BYTE		N05   
	BYTE	W12
	BYTE		        As1 
	BYTE	W06
	BYTE		        Gn1 
	BYTE	W06
	BYTE		N05   
	BYTE	W12
	BYTE		        As1 
	BYTE	W06
// 040   ----------------------------------------
	BYTE		        Cn2 
	BYTE	W06
	BYTE		N05   
	BYTE	W12
	BYTE		        Gn1 
	BYTE	W06
	BYTE		        Cn2 
	BYTE	W06
	BYTE		        As1 
	BYTE	W06
	BYTE		        An1 
	BYTE	W06
	BYTE		        Gn1 
	BYTE	W06
	BYTE		        Cn2 
	BYTE	W06
	BYTE		N05   
	BYTE	W12
	BYTE		        An1 
	BYTE	W06
	BYTE		        Cn2 
	BYTE	W06
	BYTE		        An1 
	BYTE	W06
	BYTE		        En1 
	BYTE	W06
	BYTE		        An1 
	BYTE	W06
// 041   ----------------------------------------
	BYTE		N11   
	BYTE	W18
	BYTE		        Fs1 
	BYTE	W18
	BYTE		        Dn1 
	BYTE	W18
	BYTE		        Fs1 
	BYTE	W18
	BYTE		        An1 
	BYTE	W12
	BYTE		        Fs1 
	BYTE	W12
// 042   ----------------------------------------
	BYTE	W96
// 043   ----------------------------------------
	BYTE	W96
// 044   ----------------------------------------
	BYTE	W96
// 045   ----------------------------------------
	BYTE	W96
// 046   ----------------------------------------
	BYTE		N05     Gn1 
	BYTE	W06
	BYTE		N05   
	BYTE	W12
	BYTE		        Dn1 
	BYTE	W06
	BYTE		        Gn1 
	BYTE	W06
	BYTE		N05   
	BYTE	W12
	BYTE		        Dn1 
	BYTE	W06
	BYTE		        Gn1 
	BYTE	W06
	BYTE		N05   
	BYTE	W12
	BYTE		        Dn1 
	BYTE	W06
	BYTE		        Gn1 
	BYTE	W06
	BYTE		N05   
	BYTE	W12
	BYTE		        Dn1 
	BYTE	W06
// 047   ----------------------------------------
	BYTE		        Fs1 
	BYTE	W06
	BYTE		N05   
	BYTE	W12
	BYTE		        Dn1 
	BYTE	W06
	BYTE		        Fs1 
	BYTE	W06
	BYTE		N05   
	BYTE	W12
	BYTE		        Dn1 
	BYTE	W06
	BYTE		        Fs1 
	BYTE	W06
	BYTE		N05   
	BYTE	W12
	BYTE		        Dn1 
	BYTE	W06
	BYTE		        Fs1 
	BYTE	W06
	BYTE		N05   
	BYTE	W12
	BYTE		        Dn1 
	BYTE	W06
// 048   ----------------------------------------
	BYTE		        An1 
	BYTE	W06
	BYTE		N05   
	BYTE	W12
	BYTE		        En1 
	BYTE	W06
	BYTE		        An1 
	BYTE	W06
	BYTE		N05   
	BYTE	W12
	BYTE		        En1 
	BYTE	W06
	BYTE		        An1 
	BYTE	W06
	BYTE		N05   
	BYTE	W12
	BYTE		        En1 
	BYTE	W06
	BYTE		        An1 
	BYTE	W06
	BYTE		N05   
	BYTE	W12
	BYTE		        En1 
	BYTE	W06
// 049   ----------------------------------------
	BYTE		        An1 
	BYTE	W06
	BYTE		N05   
	BYTE	W12
	BYTE		        Fs1 
	BYTE	W06
	BYTE		        An1 
	BYTE	W06
	BYTE		N05   
	BYTE	W12
	BYTE		        Fs1 
	BYTE	W06
	BYTE		        An1 
	BYTE	W06
	BYTE		N05   
	BYTE	W12
	BYTE		        Fs1 
	BYTE	W06
	BYTE		        An1 
	BYTE	W06
	BYTE		N05   
	BYTE	W12
	BYTE		        Fs1 
	BYTE	W06
// 050   ----------------------------------------
	BYTE		        Gn1 
	BYTE	W06
	BYTE		N05   
	BYTE	W12
	BYTE		        En1 
	BYTE	W06
	BYTE		        Gn1 
	BYTE	W06
	BYTE		N05   
	BYTE	W12
	BYTE		        En1 
	BYTE	W06
	BYTE		        Gn1 
	BYTE	W06
	BYTE		N05   
	BYTE	W12
	BYTE		        En1 
	BYTE	W06
	BYTE		        Gn1 
	BYTE	W06
	BYTE		N05   
	BYTE	W12
	BYTE		        En1 
	BYTE	W06
// 051   ----------------------------------------
	BYTE		N11     Gn1 
	BYTE	W18
	BYTE		        En1 
	BYTE	W18
	BYTE		        Gn1 
	BYTE	W18
	BYTE		N11   
	BYTE	W18
	BYTE		        En1 
	BYTE	W12
	BYTE		        Gn1 
	BYTE	W12
	BYTE	GoTo
	 POIN2	VergeOfDeath_4_B1
VergeOfDeath_4_B2:
// 052   ----------------------------------------
	BYTE	FINE

//**************** Track 5 (Midi-Chn.5) ****************//

VergeOfDeath_5:
	BYTE	KEYSH   VergeOfDeath_key+0
// 000   ----------------------------------------
	BYTE		VOICE   52
	BYTE		MODT    0
	BYTE		LFOS    44
	BYTE		PAN     c_v-16
	BYTE		VOL     127*VergeOfDeath_mvl/mxv
	BYTE	W96
VergeOfDeath_5_B1:
// 001   ----------------------------------------
	BYTE	W96
// 002   ----------------------------------------
	BYTE	W96
// 003   ----------------------------------------
	BYTE	W96
// 004   ----------------------------------------
	BYTE	W96
// 005   ----------------------------------------
	BYTE	W96
// 006   ----------------------------------------
	BYTE	W96
// 007   ----------------------------------------
	BYTE	W96
// 008   ----------------------------------------
	BYTE	W96
// 009   ----------------------------------------
	BYTE	W96
// 010   ----------------------------------------
	BYTE	W96
// 011   ----------------------------------------
	BYTE	W96
// 012   ----------------------------------------
	BYTE	W96
// 013   ----------------------------------------
	BYTE	W96
// 014   ----------------------------------------
	BYTE	W96
// 015   ----------------------------------------
	BYTE	W96
// 016   ----------------------------------------
	BYTE	W96
// 017   ----------------------------------------
	BYTE	W96
// 018   ----------------------------------------
	BYTE		N11     Gn3   v127
	BYTE	W12
	BYTE		        Fs3 
	BYTE	W12
	BYTE		        Gn3 
	BYTE	W12
	BYTE		        An3 
	BYTE	W12
	BYTE		N20     Bn3 
	BYTE	W24
	BYTE		N11     An3 
	BYTE	W12
	BYTE		        Gn3 
	BYTE	W12
// 019   ----------------------------------------
	BYTE		        Bn3 
	BYTE	W12
	BYTE		        Dn4 
	BYTE	W12
	BYTE		N42   
	BYTE	W48
	BYTE		N11     En4 
	BYTE	W12
	BYTE		        Dn4 
	BYTE	W12
// 020   ----------------------------------------
	BYTE		        Cn4 
	BYTE	W12
	BYTE		        Bn3 
	BYTE	W12
	BYTE		        An3 
	BYTE	W12
	BYTE		        Cn4 
	BYTE	W12
	BYTE		N20     Dn4 
	BYTE	W24
	BYTE		N11     Cn4 
	BYTE	W12
	BYTE		        An3 
	BYTE	W12
// 021   ----------------------------------------
	BYTE		        Bn3 
	BYTE	W12
	BYTE		        An3 
	BYTE	W12
	BYTE		        Bn3 
	BYTE	W12
	BYTE		        Cn4 
	BYTE	W12
	BYTE		N42     An3 
	BYTE	W48
// 022   ----------------------------------------
	BYTE		N11     Gn3 
	BYTE	W12
	BYTE		        An3 
	BYTE	W12
	BYTE		        Bn3 
	BYTE	W12
	BYTE		        An3 
	BYTE	W12
	BYTE		N20     Gn3 
	BYTE	W24
	BYTE		N11     An3 
	BYTE	W12
	BYTE		        Bn3 
	BYTE	W12
// 023   ----------------------------------------
	BYTE		        Cn4 
	BYTE	W12
	BYTE		        Bn3 
	BYTE	W12
	BYTE		        An3 
	BYTE	W12
	BYTE		        Gn3 
	BYTE	W12
	BYTE		N20     An3 
	BYTE	W24
	BYTE		N11     Gn3 
	BYTE	W12
	BYTE		        An3 
	BYTE	W12
// 024   ----------------------------------------
	BYTE		        Cn4 
	BYTE	W12
	BYTE		        Dn4 
	BYTE	W12
	BYTE		        En4 
	BYTE	W12
	BYTE		        Cn4 
	BYTE	W12
	BYTE		N20     Dn4 
	BYTE	W24
	BYTE		        An3 
	BYTE	W24
// 025   ----------------------------------------
	BYTE		        Gn3 
	BYTE	W24
	BYTE		N11     An3 
	BYTE	W12
	BYTE		        Gn3 
	BYTE	W12
	BYTE		N42     Fs3 
	BYTE	W48
// 026   ----------------------------------------
	BYTE		N20     Gn3 
	BYTE	W24
	BYTE		N11     Bn3 
	BYTE	W12
	BYTE		        Cn4 
	BYTE	W12
	BYTE		        Dn4 
	BYTE	W12
	BYTE		        Cn4 
	BYTE	W12
	BYTE		N20     Bn3 
	BYTE	W24
// 027   ----------------------------------------
	BYTE		N11   
	BYTE	W12
	BYTE		        An3 
	BYTE	W12
	BYTE		        Gn3 
	BYTE	W12
	BYTE		        An3 
	BYTE	W12
	BYTE		N20     Bn3 
	BYTE	W24
	BYTE		        Dn4 
	BYTE	W24
// 028   ----------------------------------------
	BYTE		N11     En4 
	BYTE	W12
	BYTE		        Dn4 
	BYTE	W12
	BYTE		        Cn4 
	BYTE	W12
	BYTE		        En4 
	BYTE	W12
	BYTE		        Fs4 
	BYTE	W12
	BYTE		        En4 
	BYTE	W12
	BYTE		        Dn4 
	BYTE	W12
	BYTE		        Cn4 
	BYTE	W12
// 029   ----------------------------------------
	BYTE		N20     Bn3 
	BYTE	W24
	BYTE		N11     Gn3 
	BYTE	W12
	BYTE		        Bn3 
	BYTE	W12
	BYTE		N20     An3 
	BYTE	W24
	BYTE		        Dn4 
	BYTE	W24
// 030   ----------------------------------------
	BYTE		N11     En4 
	BYTE	W12
	BYTE		        Dn4 
	BYTE	W12
	BYTE		        Bn3 
	BYTE	W12
	BYTE		        An3 
	BYTE	W12
	BYTE		        Gn3 
	BYTE	W12
	BYTE		        An3 
	BYTE	W12
	BYTE		N20     Bn3 
	BYTE	W24
// 031   ----------------------------------------
	BYTE		N11     Cn4 
	BYTE	W12
	BYTE		        Bn3 
	BYTE	W12
	BYTE		N20     An3 
	BYTE	W24
	BYTE		N11     Cn4 
	BYTE	W12
	BYTE		        Bn3 
	BYTE	W12
	BYTE		N20     An3 
	BYTE	W24
// 032   ----------------------------------------
	BYTE		N11     Gn3 
	BYTE	W12
	BYTE		        An3 
	BYTE	W12
	BYTE		        Bn3 
	BYTE	W12
	BYTE		        Gn3 
	BYTE	W12
	BYTE		        An3 
	BYTE	W12
	BYTE		        Cn4 
	BYTE	W12
	BYTE		        Bn3 
	BYTE	W12
	BYTE		        An3 
	BYTE	W12
// 033   ----------------------------------------
	BYTE		N90     Gn3 
	BYTE	W96
// 034   ----------------------------------------
	BYTE		N11     An3 
	BYTE	W12
	BYTE		        As3 
	BYTE	W12
	BYTE		        Cn4 
	BYTE	W12
	BYTE		        As3 
	BYTE	W12
	BYTE		N20     Cn4 
	BYTE	W24
	BYTE		        Fn4 
	BYTE	W24
// 035   ----------------------------------------
	BYTE		        En4 
	BYTE	W24
	BYTE		N11     Fn4 
	BYTE	W12
	BYTE		        En4 
	BYTE	W12
	BYTE		        Dn4 
	BYTE	W12
	BYTE		        Cn4 
	BYTE	W12
	BYTE		        An3 
	BYTE	W12
	BYTE		        Fn3 
	BYTE	W12
// 036   ----------------------------------------
	BYTE		        Gn3 
	BYTE	W12
	BYTE		        An3 
	BYTE	W12
	BYTE		        As3 
	BYTE	W12
	BYTE		        An3 
	BYTE	W12
	BYTE		N20     As3 
	BYTE	W24
	BYTE		N11     En4 
	BYTE	W12
	BYTE		        Dn4 
	BYTE	W12
// 037   ----------------------------------------
	BYTE		        Cn4 
	BYTE	W12
	BYTE		        As3 
	BYTE	W12
	BYTE		        An3 
	BYTE	W12
	BYTE		        As3 
	BYTE	W12
	BYTE		N42     Cn4 
	BYTE	W48
// 038   ----------------------------------------
	BYTE		N11     Fn4 
	BYTE	W12
	BYTE		        En4 
	BYTE	W12
	BYTE		        Dn4 
	BYTE	W12
	BYTE		        Cn4 
	BYTE	W12
	BYTE		        En4 
	BYTE	W12
	BYTE		        Dn4 
	BYTE	W12
	BYTE		N20     Cn4 
	BYTE	W24
// 039   ----------------------------------------
	BYTE		N11     As3 
	BYTE	W12
	BYTE		        An3 
	BYTE	W12
	BYTE		        Gn3 
	BYTE	W12
	BYTE		        Fn3 
	BYTE	W12
	BYTE		N20     Gn3 
	BYTE	W24
	BYTE		N11     An3 
	BYTE	W12
	BYTE		        As3 
	BYTE	W12
// 040   ----------------------------------------
	BYTE		N20     Cn4 
	BYTE	W24
	BYTE		        Gn3 
	BYTE	W24
	BYTE		        En4 
	BYTE	W24
	BYTE		        Cn4 
	BYTE	W24
// 041   ----------------------------------------
	BYTE		        Dn4 
	BYTE	W24
	BYTE		        Cn4 
	BYTE	W24
	BYTE		        Bn3 
	BYTE	W24
	BYTE		        An3 
	BYTE	W24
// 042   ----------------------------------------
VergeOfDeath_5_042:
	BYTE		N42     Gn3   v127
	BYTE	W48
	BYTE		N24     Bn3 
	BYTE	W24
	BYTE		N20     Gn3 
	BYTE	W24
	BYTE	PEND
// 043   ----------------------------------------
VergeOfDeath_5_043:
	BYTE		N42     Fs3   v127
	BYTE	W48
	BYTE		N24     Cn4 
	BYTE	W24
	BYTE		N20     Bn3 
	BYTE	W24
	BYTE	PEND
// 044   ----------------------------------------
VergeOfDeath_5_044:
	BYTE		N42     An3   v127
	BYTE	W48
	BYTE		N24     En3 
	BYTE	W24
	BYTE		N20     An3 
	BYTE	W24
	BYTE	PEND
// 045   ----------------------------------------
	BYTE		N32     Bn3 
	BYTE	W36
	BYTE		N06     Cn4 
	BYTE	W06
	BYTE		        Bn3 
	BYTE	W06
	BYTE		N42     An3 
	BYTE	W48
// 046   ----------------------------------------
	BYTE	PATT
	 POIN2	VergeOfDeath_5_042
// 047   ----------------------------------------
	BYTE	PATT
	 POIN2	VergeOfDeath_5_043
// 048   ----------------------------------------
	BYTE	PATT
	 POIN2	VergeOfDeath_5_044
// 049   ----------------------------------------
	BYTE		N32     Bn3   v127
	BYTE	W36
	BYTE		N06     Cn4 
	BYTE	W06
	BYTE		        Bn3 
	BYTE	W06
	BYTE		N20     An3 
	BYTE	W24
	BYTE		N11     Gn3 
	BYTE	W12
	BYTE		        Fs3 
	BYTE	W12
// 050   ----------------------------------------
	BYTE		TIE     En3 
	BYTE	W96
// 051   ----------------------------------------
	BYTE	W90
	BYTE		EOT   
	BYTE	W06
	BYTE	GoTo
	 POIN2	VergeOfDeath_5_B1
VergeOfDeath_5_B2:
// 052   ----------------------------------------
	BYTE	FINE

//**************** Track 6 (Midi-Chn.6) ****************//

VergeOfDeath_6:
	BYTE	KEYSH   VergeOfDeath_key+0
// 000   ----------------------------------------
	BYTE		VOICE   49
	BYTE		MODT    0
	BYTE		LFOS    44
	BYTE		PAN     c_v+8
	BYTE		VOL     105*VergeOfDeath_mvl/mxv
	BYTE	W96
VergeOfDeath_6_B1:
// 001   ----------------------------------------
	BYTE	W96
// 002   ----------------------------------------
	BYTE	W96
// 003   ----------------------------------------
	BYTE	W96
// 004   ----------------------------------------
	BYTE	W96
// 005   ----------------------------------------
	BYTE	W96
// 006   ----------------------------------------
	BYTE	W96
// 007   ----------------------------------------
	BYTE	W96
// 008   ----------------------------------------
	BYTE	W96
// 009   ----------------------------------------
	BYTE		N96     Dn2   v127
	BYTE	W96
// 010   ----------------------------------------
	BYTE		TIE     Cn2 
	BYTE	W96
// 011   ----------------------------------------
	BYTE	W96
// 012   ----------------------------------------
	BYTE	W90
	BYTE		EOT   
	BYTE	W06
// 013   ----------------------------------------
	BYTE		N96     Dn1 
	BYTE	W96
// 014   ----------------------------------------
	BYTE		        En1 
	BYTE	W96
// 015   ----------------------------------------
	BYTE		        Fs1 
	BYTE	W96
// 016   ----------------------------------------
	BYTE		TIE     Gn1 
	BYTE	W96
// 017   ----------------------------------------
	BYTE	W96
	BYTE		EOT   
// 018   ----------------------------------------
VergeOfDeath_6_018:
	BYTE		N48     Gn1   v127
	BYTE	W48
	BYTE		N24     Dn2 
	BYTE	W24
	BYTE		        Cn2 
	BYTE	W24
	BYTE	PEND
// 019   ----------------------------------------
VergeOfDeath_6_019:
	BYTE		N48     Bn1   v127
	BYTE	W48
	BYTE		N42     Gn1 
	BYTE	W48
	BYTE	PEND
// 020   ----------------------------------------
VergeOfDeath_6_020:
	BYTE		N48     An1   v127
	BYTE	W48
	BYTE		N24     Cn2 
	BYTE	W24
	BYTE		        An1 
	BYTE	W24
	BYTE	PEND
// 021   ----------------------------------------
VergeOfDeath_6_021:
	BYTE		N48     Bn1   v127
	BYTE	W48
	BYTE		N42     An1 
	BYTE	W48
	BYTE	PEND
// 022   ----------------------------------------
VergeOfDeath_6_022:
	BYTE		N48     Gn1   v127
	BYTE	W48
	BYTE		N24     En1 
	BYTE	W24
	BYTE		        Gn1 
	BYTE	W24
	BYTE	PEND
// 023   ----------------------------------------
VergeOfDeath_6_023:
	BYTE		N48     Cn2   v127
	BYTE	W48
	BYTE		N42     An1 
	BYTE	W48
	BYTE	PEND
// 024   ----------------------------------------
	BYTE		N48     Fn1 
	BYTE	W48
	BYTE		N24     An1 
	BYTE	W24
	BYTE		        Fn1 
	BYTE	W24
// 025   ----------------------------------------
	BYTE		N48     Gn1 
	BYTE	W48
	BYTE		N42     Fs1 
	BYTE	W48
// 026   ----------------------------------------
	BYTE	PATT
	 POIN2	VergeOfDeath_6_018
// 027   ----------------------------------------
	BYTE	PATT
	 POIN2	VergeOfDeath_6_019
// 028   ----------------------------------------
	BYTE	PATT
	 POIN2	VergeOfDeath_6_020
// 029   ----------------------------------------
	BYTE	PATT
	 POIN2	VergeOfDeath_6_021
// 030   ----------------------------------------
	BYTE	PATT
	 POIN2	VergeOfDeath_6_022
// 031   ----------------------------------------
	BYTE	PATT
	 POIN2	VergeOfDeath_6_023
// 032   ----------------------------------------
	BYTE		N48     Gn1   v127
	BYTE	W48
	BYTE		N24     An1 
	BYTE	W24
	BYTE		        Fs1 
	BYTE	W24
// 033   ----------------------------------------
	BYTE		N48     An1 
	BYTE	W48
	BYTE		N42     Gn1 
	BYTE	W48
// 034   ----------------------------------------
	BYTE		N48     Fn1 
	BYTE	W48
	BYTE		N24     Cn2 
	BYTE	W24
	BYTE		        As1 
	BYTE	W24
// 035   ----------------------------------------
	BYTE		N48     An1 
	BYTE	W48
	BYTE		N42     Fn1 
	BYTE	W48
// 036   ----------------------------------------
	BYTE		N48     Dn1 
	BYTE	W48
	BYTE		N24     En1 
	BYTE	W24
	BYTE		        Gn1 
	BYTE	W24
// 037   ----------------------------------------
	BYTE		N48     Fn1 
	BYTE	W48
	BYTE		N42     As1 
	BYTE	W48
// 038   ----------------------------------------
	BYTE		N48     An1 
	BYTE	W48
	BYTE		N24     En1 
	BYTE	W24
	BYTE		        Fn1 
	BYTE	W24
// 039   ----------------------------------------
	BYTE		N48     As1 
	BYTE	W48
	BYTE		N42     Gn1 
	BYTE	W48
// 040   ----------------------------------------
	BYTE		N48     Cn2 
	BYTE	W48
	BYTE		N24     An1 
	BYTE	W24
	BYTE		        En1 
	BYTE	W24
// 041   ----------------------------------------
	BYTE		N90     Dn1 
	BYTE	W96
// 042   ----------------------------------------
VergeOfDeath_6_042:
	BYTE		N42     Gn1   v127
	BYTE	W48
	BYTE		        Dn1 
	BYTE	W48
	BYTE	PEND
// 043   ----------------------------------------
VergeOfDeath_6_043:
	BYTE		N42     Fs1   v127
	BYTE	W48
	BYTE		        An1 
	BYTE	W48
	BYTE	PEND
// 044   ----------------------------------------
VergeOfDeath_6_044:
	BYTE		N42     An1   v127
	BYTE	W48
	BYTE		        En1 
	BYTE	W48
	BYTE	PEND
// 045   ----------------------------------------
VergeOfDeath_6_045:
	BYTE		N42     Fs1   v127
	BYTE	W48
	BYTE		        Dn1 
	BYTE	W48
	BYTE	PEND
// 046   ----------------------------------------
	BYTE	PATT
	 POIN2	VergeOfDeath_6_042
// 047   ----------------------------------------
	BYTE	PATT
	 POIN2	VergeOfDeath_6_043
// 048   ----------------------------------------
	BYTE	PATT
	 POIN2	VergeOfDeath_6_044
// 049   ----------------------------------------
	BYTE	PATT
	 POIN2	VergeOfDeath_6_045
// 050   ----------------------------------------
VergeOfDeath_6_050:
	BYTE		N20     Gn1   v127
	BYTE	W24
	BYTE		        En1 
	BYTE	W24
	BYTE		        Fs1 
	BYTE	W24
	BYTE		        En1 
	BYTE	W24
	BYTE	PEND
// 051   ----------------------------------------
	BYTE	PATT
	 POIN2	VergeOfDeath_6_050
	BYTE	GoTo
	 POIN2	VergeOfDeath_6_B1
VergeOfDeath_6_B2:
// 052   ----------------------------------------
	BYTE	FINE

//**************** Track 7 (Midi-Chn.7) ****************//

VergeOfDeath_7:
	BYTE	KEYSH   VergeOfDeath_key+0
// 000   ----------------------------------------
	BYTE		VOICE   127
	BYTE		MODT    0
	BYTE		LFOS    44
	BYTE		VOL     127*VergeOfDeath_mvl/mxv
	BYTE		PAN     c_v+0
	BYTE		N02     En1   v004
	BYTE	W03
	BYTE		N02   
	BYTE	W03
	BYTE		N02   
	BYTE	W03
	BYTE		        En1   v008
	BYTE	W03
	BYTE		N02   
	BYTE	W03
	BYTE		N02   
	BYTE	W03
	BYTE		        En1   v012
	BYTE	W03
	BYTE		N02   
	BYTE	W03
	BYTE		        En1   v016
	BYTE	W03
	BYTE		N02   
	BYTE	W03
	BYTE		        En1   v020
	BYTE	W03
	BYTE		        En1   v024
	BYTE	W03
	BYTE		N02   
	BYTE	W03
	BYTE		        En1   v028
	BYTE	W03
	BYTE		        En1   v032
	BYTE	W03
	BYTE		        En1   v036
	BYTE	W03
	BYTE		        En1   v040
	BYTE	W03
	BYTE		        En1   v044
	BYTE	W03
	BYTE		        En1   v048
	BYTE	W03
	BYTE		        En1   v056
	BYTE	W03
	BYTE		        En1   v060
	BYTE	W03
	BYTE		        En1   v064
	BYTE	W03
	BYTE		        En1   v068
	BYTE	W03
	BYTE		        En1   v076
	BYTE	W03
	BYTE		        En1   v080
	BYTE	W03
	BYTE		        En1   v084
	BYTE	W03
	BYTE		        En1   v092
	BYTE	W03
	BYTE		        En1   v096
	BYTE	W03
	BYTE		        En1   v104
	BYTE	W03
	BYTE		        En1   v108
	BYTE	W03
	BYTE		        En1   v116
	BYTE	W03
	BYTE		        En1   v120
	BYTE	W03
VergeOfDeath_7_B1:
// 001   ----------------------------------------
VergeOfDeath_7_001:
	BYTE		N05     En1   v127
	BYTE		N05     An2 
	BYTE	W06
	BYTE		        En1 
	BYTE	W06
	BYTE		N05   
	BYTE	W06
	BYTE		N05   
	BYTE	W06
	BYTE		N05   
	BYTE	W06
	BYTE		N02   
	BYTE	W03
	BYTE		N01   
	BYTE	W01
	BYTE		N01   
	BYTE	W02
	BYTE		N05   
	BYTE	W06
	BYTE		N05   
	BYTE	W06
	BYTE		N05   
	BYTE	W06
	BYTE		N05   
	BYTE	W06
	BYTE		N05   
	BYTE	W06
	BYTE		N02   
	BYTE	W03
	BYTE		N01   
	BYTE	W01
	BYTE		N01   
	BYTE	W02
	BYTE		N05   
	BYTE	W06
	BYTE		N05   
	BYTE	W06
	BYTE		N05   
	BYTE		N05     An2 
	BYTE	W06
	BYTE		N02     En1 
	BYTE	W03
	BYTE		N01   
	BYTE	W01
	BYTE		N01   
	BYTE	W02
	BYTE	PEND
// 002   ----------------------------------------
VergeOfDeath_7_002:
	BYTE		N05     En1   v127
	BYTE		N05     An2 
	BYTE	W06
	BYTE		        En1 
	BYTE	W06
	BYTE		N05   
	BYTE	W06
	BYTE		N05   
	BYTE		N05     An2 
	BYTE	W06
	BYTE		        En1 
	BYTE	W06
	BYTE		N02   
	BYTE	W03
	BYTE		N01   
	BYTE	W01
	BYTE		N01   
	BYTE	W02
	BYTE		N05   
	BYTE		N05     An2 
	BYTE	W06
	BYTE		        En1 
	BYTE	W06
	BYTE		N05   
	BYTE	W06
	BYTE		N05   
	BYTE	W06
	BYTE		N05   
	BYTE	W06
	BYTE		N02   
	BYTE	W03
	BYTE		N01   
	BYTE	W01
	BYTE		N01   
	BYTE	W02
	BYTE		N05   
	BYTE		N05     An2 
	BYTE	W06
	BYTE		        En1 
	BYTE	W06
	BYTE		N05   
	BYTE		N05     An2 
	BYTE	W06
	BYTE		N02     En1 
	BYTE	W03
	BYTE		N01   
	BYTE	W01
	BYTE		N01   
	BYTE	W02
	BYTE	PEND
// 003   ----------------------------------------
	BYTE	PATT
	 POIN2	VergeOfDeath_7_001
// 004   ----------------------------------------
	BYTE	PATT
	 POIN2	VergeOfDeath_7_002
// 005   ----------------------------------------
	BYTE	PATT
	 POIN2	VergeOfDeath_7_001
// 006   ----------------------------------------
	BYTE	PATT
	 POIN2	VergeOfDeath_7_002
// 007   ----------------------------------------
	BYTE	PATT
	 POIN2	VergeOfDeath_7_001
// 008   ----------------------------------------
	BYTE	PATT
	 POIN2	VergeOfDeath_7_002
// 009   ----------------------------------------
VergeOfDeath_7_009:
	BYTE		N05     Bn0   v127
	BYTE		N05     Cn1 
	BYTE		N05     Dn1 
	BYTE		N05     En1 
	BYTE	W06
	BYTE		        Bn0 
	BYTE		N05     Cn1 
	BYTE		N05     Dn1 
	BYTE		N05     En1 
	BYTE	W06
	BYTE		N05   
	BYTE	W06
	BYTE		N02   
	BYTE	W03
	BYTE		N01   
	BYTE	W01
	BYTE		N01   
	BYTE	W02
	BYTE		N05     Bn0 
	BYTE		N05     Cn1 
	BYTE		N05     Dn1 
	BYTE		N05     En1 
	BYTE		N05     An1 
	BYTE		N05     Bn1 
	BYTE		N05     Cn2 
	BYTE		N05     Dn2 
	BYTE		N05     An2 
	BYTE	W06
	BYTE		        En1 
	BYTE	W06
	BYTE		N05   
	BYTE	W06
	BYTE		N02     Bn0 
	BYTE		N02     Cn1 
	BYTE		N02     Dn1 
	BYTE		N02     En1 
	BYTE	W03
	BYTE		N01   
	BYTE	W01
	BYTE		N01   
	BYTE	W02
	BYTE		N05     Bn0 
	BYTE		N05     Cn1 
	BYTE		N05     Dn1 
	BYTE		N05     En1 
	BYTE	W06
	BYTE		        Bn0 
	BYTE		N05     Cn1 
	BYTE		N05     Dn1 
	BYTE		N05     En1 
	BYTE	W06
	BYTE		N05   
	BYTE	W06
	BYTE		N02   
	BYTE	W03
	BYTE		N01   
	BYTE	W01
	BYTE		N01   
	BYTE	W02
	BYTE		N05     Bn0 
	BYTE		N05     Cn1 
	BYTE		N05     Dn1 
	BYTE		N05     En1 
	BYTE		N05     An1 
	BYTE		N05     Bn1 
	BYTE		N05     Cn2 
	BYTE		N05     Dn2 
	BYTE		N05     An2 
	BYTE	W06
	BYTE		        En1 
	BYTE	W06
	BYTE		N05   
	BYTE	W06
	BYTE		N02     Bn0 
	BYTE		N02     Cn1 
	BYTE		N02     Dn1 
	BYTE		N02     En1 
	BYTE	W03
	BYTE		N01   
	BYTE	W01
	BYTE		N01   
	BYTE	W02
	BYTE	PEND
// 010   ----------------------------------------
	BYTE	PATT
	 POIN2	VergeOfDeath_7_009
// 011   ----------------------------------------
	BYTE	PATT
	 POIN2	VergeOfDeath_7_009
// 012   ----------------------------------------
	BYTE	PATT
	 POIN2	VergeOfDeath_7_009
// 013   ----------------------------------------
	BYTE	PATT
	 POIN2	VergeOfDeath_7_009
// 014   ----------------------------------------
	BYTE	PATT
	 POIN2	VergeOfDeath_7_009
// 015   ----------------------------------------
	BYTE	PATT
	 POIN2	VergeOfDeath_7_009
// 016   ----------------------------------------
	BYTE	PATT
	 POIN2	VergeOfDeath_7_009
// 017   ----------------------------------------
	BYTE		N05     Bn0   v127
	BYTE		N05     Cn1 
	BYTE		N05     Dn1 
	BYTE		N05     En1 
	BYTE		N05     An2 
	BYTE	W06
	BYTE		        En1 
	BYTE	W06
	BYTE		N05   
	BYTE	W06
	BYTE		        Bn0 
	BYTE		N05     Cn1 
	BYTE		N05     Dn1 
	BYTE		N05     En1 
	BYTE		N05     An2 
	BYTE	W06
	BYTE		        En1 
	BYTE	W06
	BYTE		N02   
	BYTE	W03
	BYTE		N01   
	BYTE	W01
	BYTE		N01   
	BYTE	W02
	BYTE		N05     Bn0 
	BYTE		N05     Cn1 
	BYTE		N05     Dn1 
	BYTE		N05     En1 
	BYTE		N05     An2 
	BYTE	W06
	BYTE		        En1 
	BYTE	W06
	BYTE		N05   
	BYTE	W06
	BYTE		N05   
	BYTE	W06
	BYTE		N05   
	BYTE	W06
	BYTE		N02   
	BYTE	W03
	BYTE		N01   
	BYTE	W01
	BYTE		N01   
	BYTE	W02
	BYTE		N05     Bn0 
	BYTE		N05     Cn1 
	BYTE		N05     Dn1 
	BYTE		N05     En1 
	BYTE		N05     An2 
	BYTE	W06
	BYTE		        En1 
	BYTE	W06
	BYTE		        Bn0 
	BYTE		N05     Cn1 
	BYTE		N05     Dn1 
	BYTE		N05     En1 
	BYTE		N05     An2 
	BYTE	W06
	BYTE		N02     En1 
	BYTE	W03
	BYTE		N01   
	BYTE	W01
	BYTE		N01   
	BYTE	W02
// 018   ----------------------------------------
	BYTE	PATT
	 POIN2	VergeOfDeath_7_001
// 019   ----------------------------------------
	BYTE	PATT
	 POIN2	VergeOfDeath_7_001
// 020   ----------------------------------------
	BYTE	PATT
	 POIN2	VergeOfDeath_7_001
// 021   ----------------------------------------
	BYTE	PATT
	 POIN2	VergeOfDeath_7_001
// 022   ----------------------------------------
	BYTE	PATT
	 POIN2	VergeOfDeath_7_001
// 023   ----------------------------------------
	BYTE	PATT
	 POIN2	VergeOfDeath_7_001
// 024   ----------------------------------------
	BYTE	PATT
	 POIN2	VergeOfDeath_7_001
// 025   ----------------------------------------
	BYTE	PATT
	 POIN2	VergeOfDeath_7_001
// 026   ----------------------------------------
	BYTE	PATT
	 POIN2	VergeOfDeath_7_001
// 027   ----------------------------------------
	BYTE	PATT
	 POIN2	VergeOfDeath_7_001
// 028   ----------------------------------------
	BYTE	PATT
	 POIN2	VergeOfDeath_7_001
// 029   ----------------------------------------
	BYTE	PATT
	 POIN2	VergeOfDeath_7_001
// 030   ----------------------------------------
	BYTE	PATT
	 POIN2	VergeOfDeath_7_001
// 031   ----------------------------------------
	BYTE	PATT
	 POIN2	VergeOfDeath_7_001
// 032   ----------------------------------------
	BYTE	PATT
	 POIN2	VergeOfDeath_7_001
// 033   ----------------------------------------
	BYTE	PATT
	 POIN2	VergeOfDeath_7_001
// 034   ----------------------------------------
	BYTE	PATT
	 POIN2	VergeOfDeath_7_009
// 035   ----------------------------------------
	BYTE	PATT
	 POIN2	VergeOfDeath_7_009
// 036   ----------------------------------------
	BYTE	PATT
	 POIN2	VergeOfDeath_7_009
// 037   ----------------------------------------
	BYTE	PATT
	 POIN2	VergeOfDeath_7_009
// 038   ----------------------------------------
	BYTE	PATT
	 POIN2	VergeOfDeath_7_009
// 039   ----------------------------------------
	BYTE	PATT
	 POIN2	VergeOfDeath_7_009
// 040   ----------------------------------------
	BYTE	PATT
	 POIN2	VergeOfDeath_7_009
// 041   ----------------------------------------
	BYTE	PATT
	 POIN2	VergeOfDeath_7_009
// 042   ----------------------------------------
	BYTE	PATT
	 POIN2	VergeOfDeath_7_001
// 043   ----------------------------------------
	BYTE	PATT
	 POIN2	VergeOfDeath_7_001
// 044   ----------------------------------------
	BYTE	PATT
	 POIN2	VergeOfDeath_7_001
// 045   ----------------------------------------
	BYTE	PATT
	 POIN2	VergeOfDeath_7_001
// 046   ----------------------------------------
	BYTE	PATT
	 POIN2	VergeOfDeath_7_009
// 047   ----------------------------------------
	BYTE	PATT
	 POIN2	VergeOfDeath_7_009
// 048   ----------------------------------------
	BYTE	PATT
	 POIN2	VergeOfDeath_7_009
// 049   ----------------------------------------
	BYTE	PATT
	 POIN2	VergeOfDeath_7_009
// 050   ----------------------------------------
	BYTE	PATT
	 POIN2	VergeOfDeath_7_009
// 051   ----------------------------------------
	BYTE		N05     Bn0   v127
	BYTE		N05     Cn1 
	BYTE		N05     Dn1 
	BYTE		N05     En1 
	BYTE		N05     An2 
	BYTE	W06
	BYTE		        En1 
	BYTE	W06
	BYTE		N05   
	BYTE	W06
	BYTE		        Bn0 
	BYTE		N05     Cn1 
	BYTE		N05     Dn1 
	BYTE		N05     En1 
	BYTE		N05     An2 
	BYTE	W06
	BYTE		        En1 
	BYTE	W06
	BYTE		N02   
	BYTE	W03
	BYTE		N01   
	BYTE	W01
	BYTE		N01   
	BYTE	W02
	BYTE		N05     Bn0 
	BYTE		N05     Cn1 
	BYTE		N05     Dn1 
	BYTE		N05     En1 
	BYTE		N05     An2 
	BYTE	W06
	BYTE		        En1 
	BYTE	W06
	BYTE		N05   
	BYTE	W06
	BYTE		N02   
	BYTE	W03
	BYTE		N02   
	BYTE	W03
	BYTE		N02   
	BYTE	W03
	BYTE		N02   
	BYTE	W03
	BYTE		N02   
	BYTE	W03
	BYTE		N02   
	BYTE	W03
	BYTE		N02   
	BYTE	W03
	BYTE		N02   
	BYTE	W03
	BYTE		N02   
	BYTE	W03
	BYTE		N02   
	BYTE	W03
	BYTE		N02   
	BYTE	W03
	BYTE		N02   
	BYTE	W03
	BYTE		N02   
	BYTE	W03
	BYTE		N02   
	BYTE	W03
	BYTE	GoTo
	 POIN2	VergeOfDeath_7_B1
VergeOfDeath_7_B2:
// 052   ----------------------------------------
	BYTE	FINE

//******************************************************//
	ALIGN 4

VergeOfDeath:
	BYTE	7	// NumTrks
	BYTE	0	// NumBlks
	BYTE	VergeOfDeath_pri	// Priority
	BYTE	VergeOfDeath_rev	// Reverb.

	POIN2	VergeOfDeath_grp

	POIN2	VergeOfDeath_1
	POIN2	VergeOfDeath_2
	POIN2	VergeOfDeath_3
	POIN2	VergeOfDeath_4
	POIN2	VergeOfDeath_5
	POIN2	VergeOfDeath_6
	POIN2	VergeOfDeath_7

	
