//Event file generated from Sappy .s format.
	#include "MPlayDef.event"

	#define	RangersSong_grp  voicegroup000
	#define	RangersSong_pri  0
	#define	RangersSong_rev  120
	#define	RangersSong_mvl  31
	#define	RangersSong_key  0
	#define	RangersSong_tbs  1
	#define	RangersSong_exg  0
	#define	RangersSong_cmp  1

	// .rodata
	//	RangersSong
	ALIGN 4

//**************** Track 1 (Midi-Chn.1) ****************//

RangersSong_1:
	BYTE	KEYSH   RangersSong_key+0
RangersSong_1_B1:
// 000   ----------------------------------------
	BYTE	TEMPO   94*RangersSong_tbs/2
	BYTE		VOICE   48
	BYTE		MODT    0
	BYTE		LFOS    44
	BYTE		VOL     119*RangersSong_mvl/mxv
	BYTE		PAN     c_v+23
	BYTE		VOL     127*RangersSong_mvl/mxv
	BYTE		PAN     c_v+0
	BYTE	W12
	BYTE		N11     En4   v056
	BYTE	W24
	BYTE		N11   
	BYTE	W24
	BYTE		N11   
	BYTE	W12
	BYTE		N05   
	BYTE	W06
	BYTE		N17     Fn4 
	BYTE	W18
// 001   ----------------------------------------
	BYTE	W12
	BYTE		N11     En4 
	BYTE	W24
	BYTE		N11   
	BYTE	W24
	BYTE		N11   
	BYTE	W12
	BYTE		N05   
	BYTE	W06
	BYTE		N17     Gn4 
	BYTE	W18
// 002   ----------------------------------------
	BYTE	W12
	BYTE		N11     Dn4 
	BYTE	W24
	BYTE		N11   
	BYTE	W24
	BYTE		N11   
	BYTE	W12
	BYTE		N05   
	BYTE	W06
	BYTE		N17     Gn4 
	BYTE	W18
// 003   ----------------------------------------
	BYTE	W12
	BYTE		N11     Dn4 
	BYTE	W18
	BYTE		N05   
	BYTE	W06
	BYTE		N11   
	BYTE	W24
	BYTE		N11   
	BYTE	W12
	BYTE		N05   
	BYTE	W06
	BYTE		N17     Gn4 
	BYTE	W18
// 004   ----------------------------------------
	BYTE	W12
	BYTE		N05     En4 
	BYTE	W06
	BYTE		N17   
	BYTE	W18
	BYTE		N05   
	BYTE	W06
	BYTE		N17   
	BYTE	W18
	BYTE		N05   
	BYTE	W06
	BYTE		        Dn4 
	BYTE	W06
	BYTE		        En4 
	BYTE	W06
	BYTE		N17     Gn4 
	BYTE	W18
// 005   ----------------------------------------
	BYTE	W12
	BYTE		N05     En4 
	BYTE	W06
	BYTE		N11   
	BYTE	W12
	BYTE		N05   
	BYTE	W06
	BYTE		N05   
	BYTE	W06
	BYTE		N11   
	BYTE	W12
	BYTE		N05   
	BYTE	W06
	BYTE		N05   
	BYTE	W06
	BYTE		        Dn4 
	BYTE	W06
	BYTE		        En4 
	BYTE	W06
	BYTE		        Gn4 
	BYTE	W06
	BYTE		        Bn4 
	BYTE	W06
	BYTE		        Gn4 
	BYTE	W06
// 006   ----------------------------------------
	BYTE		        An4 
	BYTE	W06
	BYTE		N05   
	BYTE	W06
	BYTE		N05   
	BYTE	W06
	BYTE		N11   
	BYTE	W12
	BYTE		N05     Cn5 
	BYTE	W06
	BYTE		        Bn4 
	BYTE	W06
	BYTE		        Gn4 
	BYTE	W06
	BYTE		        An4 
	BYTE	W06
	BYTE		N05   
	BYTE	W06
	BYTE		N05   
	BYTE	W06
	BYTE		N11   
	BYTE	W12
	BYTE		N05     Dn5 
	BYTE	W06
	BYTE		        Bn4 
	BYTE	W06
	BYTE		        Fn4 
	BYTE	W06
// 007   ----------------------------------------
	BYTE		        Gn4 
	BYTE	W06
	BYTE		N05   
	BYTE	W06
	BYTE		N05   
	BYTE	W06
	BYTE		N11   
	BYTE	W12
	BYTE		N05     Dn5 
	BYTE	W06
	BYTE		        Bn4 
	BYTE	W06
	BYTE		        Fn4 
	BYTE	W06
	BYTE		        Gn4 
	BYTE	W06
	BYTE		N05   
	BYTE	W06
	BYTE		N05   
	BYTE	W06
	BYTE		N11   
	BYTE	W12
	BYTE		N05     Gn5 
	BYTE	W06
	BYTE		        En5 
	BYTE	W06
	BYTE		        Gn4 
	BYTE	W06
// 008   ----------------------------------------
RangersSong_1_008:
	BYTE		N05     An3   v056
	BYTE	W06
	BYTE		        An4 
	BYTE	W06
	BYTE		        Gs4 
	BYTE	W06
	BYTE		        An4 
	BYTE	W06
	BYTE		        En4 
	BYTE	W06
	BYTE		        Dn4 
	BYTE	W06
	BYTE		        Cn4 
	BYTE	W06
	BYTE		        Bn3 
	BYTE	W06
	BYTE		        An3 
	BYTE	W06
	BYTE		        An4 
	BYTE	W06
	BYTE		        Gs4 
	BYTE	W06
	BYTE		        An4 
	BYTE	W06
	BYTE		        En4 
	BYTE	W06
	BYTE		        Dn4 
	BYTE	W06
	BYTE		        Cn4 
	BYTE	W06
	BYTE		        Bn3 
	BYTE	W06
	BYTE	PEND
// 009   ----------------------------------------
	BYTE	PATT
	 POIN2	RangersSong_1_008
// 010   ----------------------------------------
	BYTE	PATT
	 POIN2	RangersSong_1_008
// 011   ----------------------------------------
	BYTE	PATT
	 POIN2	RangersSong_1_008
// 012   ----------------------------------------
RangersSong_1_012:
	BYTE		N05     Gn3   v056
	BYTE	W06
	BYTE		        Gn4 
	BYTE	W06
	BYTE		        Fs4 
	BYTE	W06
	BYTE		        Gn4 
	BYTE	W06
	BYTE		        Dn4 
	BYTE	W06
	BYTE		        Cn4 
	BYTE	W06
	BYTE		        Bn3 
	BYTE	W06
	BYTE		        An3 
	BYTE	W06
	BYTE		        Gn3 
	BYTE	W06
	BYTE		        Gn4 
	BYTE	W06
	BYTE		        Fs4 
	BYTE	W06
	BYTE		        Gn4 
	BYTE	W06
	BYTE		        Dn4 
	BYTE	W06
	BYTE		        Cn4 
	BYTE	W06
	BYTE		        Bn3 
	BYTE	W06
	BYTE		        An3 
	BYTE	W06
	BYTE	PEND
// 013   ----------------------------------------
	BYTE	PATT
	 POIN2	RangersSong_1_012
// 014   ----------------------------------------
	BYTE	PATT
	 POIN2	RangersSong_1_008
// 015   ----------------------------------------
	BYTE	PATT
	 POIN2	RangersSong_1_008
// 016   ----------------------------------------
	BYTE	PATT
	 POIN2	RangersSong_1_012
// 017   ----------------------------------------
	BYTE	PATT
	 POIN2	RangersSong_1_012
// 018   ----------------------------------------
	BYTE	PATT
	 POIN2	RangersSong_1_008
// 019   ----------------------------------------
	BYTE	PATT
	 POIN2	RangersSong_1_008
// 020   ----------------------------------------
	BYTE		N05     En3   v056
	BYTE	W06
	BYTE		        En4 
	BYTE	W06
	BYTE		        Ds4 
	BYTE	W06
	BYTE		        En4 
	BYTE	W06
	BYTE		        Bn3 
	BYTE	W06
	BYTE		        An3 
	BYTE	W06
	BYTE		        Gn3 
	BYTE	W06
	BYTE		        Fs3 
	BYTE	W06
	BYTE		        En3 
	BYTE	W06
	BYTE		        En4 
	BYTE	W06
	BYTE		        Ds4 
	BYTE	W06
	BYTE		        En4 
	BYTE	W06
	BYTE		        Bn3 
	BYTE	W06
	BYTE		        An3 
	BYTE	W06
	BYTE		        Gs3 
	BYTE	W06
	BYTE		        Fn3 
	BYTE	W06
// 021   ----------------------------------------
	BYTE	PATT
	 POIN2	RangersSong_1_012
// 022   ----------------------------------------
	BYTE		N05     Fn3   v056
	BYTE	W06
	BYTE		        Fn4 
	BYTE	W06
	BYTE		        En4 
	BYTE	W06
	BYTE		        Fn4 
	BYTE	W06
	BYTE		        Cn4 
	BYTE	W06
	BYTE		        Bn3 
	BYTE	W06
	BYTE		        An3 
	BYTE	W06
	BYTE		        Fn3 
	BYTE	W06
	BYTE		N05   
	BYTE	W06
	BYTE		        Fn4 
	BYTE	W06
	BYTE		        En4 
	BYTE	W06
	BYTE		        Fn4 
	BYTE	W06
	BYTE		        Cn4 
	BYTE	W06
	BYTE		        Bn3 
	BYTE	W06
	BYTE		        An3 
	BYTE	W06
	BYTE		        Fn3 
	BYTE	W06
// 023   ----------------------------------------
	BYTE		        Cn3 
	BYTE	W06
	BYTE		        Cn5 
	BYTE	W06
	BYTE		        Bn4 
	BYTE	W06
	BYTE		        Cn5 
	BYTE	W06
	BYTE		        Gn4 
	BYTE	W06
	BYTE		        Fn4 
	BYTE	W06
	BYTE		        En4 
	BYTE	W06
	BYTE		        Dn4 
	BYTE	W06
	BYTE		        Cn4 
	BYTE	W06
	BYTE		        Cn5 
	BYTE	W06
	BYTE		        Bn4 
	BYTE	W06
	BYTE		        Cn5 
	BYTE	W06
	BYTE		        Gn4 
	BYTE	W06
	BYTE		        Fn4 
	BYTE	W06
	BYTE		        En4 
	BYTE	W06
	BYTE		        Cn4 
	BYTE	W06
// 024   ----------------------------------------
	BYTE		        Fn3 
	BYTE	W06
	BYTE		        Fn4 
	BYTE	W06
	BYTE		        En4 
	BYTE	W06
	BYTE		        Fn4 
	BYTE	W06
	BYTE		        Cn4 
	BYTE	W06
	BYTE		        Bn3 
	BYTE	W06
	BYTE		        An3 
	BYTE	W06
	BYTE		        Gn3 
	BYTE	W06
	BYTE		        Fn3 
	BYTE	W06
	BYTE		        Fn4 
	BYTE	W06
	BYTE		        En4 
	BYTE	W06
	BYTE		        Fn4 
	BYTE	W06
	BYTE		        Cn4 
	BYTE	W06
	BYTE		        Bn3 
	BYTE	W06
	BYTE		        An3 
	BYTE	W06
	BYTE		        Fn3 
	BYTE	W06
// 025   ----------------------------------------
	BYTE		        Gn3 
	BYTE	W06
	BYTE		        Gn4 
	BYTE	W06
	BYTE		        Fs4 
	BYTE	W06
	BYTE		        Gn4 
	BYTE	W06
	BYTE		        Dn4 
	BYTE	W06
	BYTE		        Cn4 
	BYTE	W06
	BYTE		        Bn3 
	BYTE	W06
	BYTE		        An3 
	BYTE	W06
	BYTE		        Gn3 
	BYTE	W06
	BYTE		        Gn4 
	BYTE	W06
	BYTE		        Fs4 
	BYTE	W06
	BYTE		        Gn4 
	BYTE	W06
	BYTE		        Dn4 
	BYTE	W06
	BYTE		        Cn4 
	BYTE	W06
	BYTE		        Bn3 
	BYTE	W06
	BYTE		        Gn3 
	BYTE	W06
// 026   ----------------------------------------
	BYTE		        An3 
	BYTE	W06
	BYTE		        An4 
	BYTE	W06
	BYTE		        Gs4 
	BYTE	W06
	BYTE		        An4 
	BYTE	W06
	BYTE		        En4 
	BYTE	W06
	BYTE		        Dn4 
	BYTE	W06
	BYTE		        Cn4 
	BYTE	W06
	BYTE		        Dn4 
	BYTE	W06
	BYTE		        Cn4 
	BYTE	W06
	BYTE		        Bn3 
	BYTE	W06
	BYTE		        Cn4 
	BYTE	W06
	BYTE		        Dn4 
	BYTE	W06
	BYTE		        En4 
	BYTE	W06
	BYTE		        Dn4 
	BYTE	W06
	BYTE		        Gn3 
	BYTE	W06
	BYTE		        An3 
	BYTE	W06
// 027   ----------------------------------------
	BYTE		N05   
	BYTE	W06
	BYTE		        An4 
	BYTE	W06
	BYTE		        Gs4 
	BYTE	W06
	BYTE		        An4 
	BYTE	W06
	BYTE		        En4 
	BYTE	W06
	BYTE		        Dn4 
	BYTE	W06
	BYTE		        Cn4 
	BYTE	W06
	BYTE		        Dn4 
	BYTE	W06
	BYTE		N42     Bn3 
	BYTE		N42     En4 
	BYTE		N42     Gs4 
	BYTE	W44
	BYTE	W03
	BYTE	GoTo
	 POIN2	RangersSong_1_B1
RangersSong_1_B2:
	BYTE	FINE

//**************** Track 2 (Midi-Chn.2) ****************//

RangersSong_2:
	BYTE	KEYSH   RangersSong_key+0
RangersSong_2_B1:
// 000   ----------------------------------------
	BYTE		VOICE   18
	BYTE		MODT    0
	BYTE		LFOS    44
	BYTE		PAN     c_v-28
	BYTE		VOL     100*RangersSong_mvl/mxv
	BYTE	W96
// 001   ----------------------------------------
	BYTE	W96
// 002   ----------------------------------------
	BYTE	W96
// 003   ----------------------------------------
	BYTE	W96
// 004   ----------------------------------------
	BYTE	W96
// 005   ----------------------------------------
	BYTE	W96
// 006   ----------------------------------------
	BYTE	W96
// 007   ----------------------------------------
	BYTE	W96
// 008   ----------------------------------------
	BYTE	W06
	BYTE		N05     An3   v056
	BYTE	W06
	BYTE		        An4 
	BYTE	W06
	BYTE		        Gs4 
	BYTE	W06
	BYTE		        An4 
	BYTE	W06
	BYTE		        En4 
	BYTE	W06
	BYTE		        Dn4 
	BYTE	W06
	BYTE		        Cn4 
	BYTE	W06
	BYTE		        Bn3 
	BYTE	W06
	BYTE		        An3 
	BYTE	W06
	BYTE		        An4 
	BYTE	W06
	BYTE		        Gs4 
	BYTE	W06
	BYTE		        An4 
	BYTE	W06
	BYTE		        En4 
	BYTE	W06
	BYTE		        Dn4 
	BYTE	W06
	BYTE		        Cn4 
	BYTE	W06
// 009   ----------------------------------------
RangersSong_2_009:
	BYTE		N05     Bn3   v056
	BYTE	W06
	BYTE		        An3 
	BYTE	W06
	BYTE		        An4 
	BYTE	W06
	BYTE		        Gs4 
	BYTE	W06
	BYTE		        An4 
	BYTE	W06
	BYTE		        En4 
	BYTE	W06
	BYTE		        Dn4 
	BYTE	W06
	BYTE		        Cn4 
	BYTE	W06
	BYTE		        Bn3 
	BYTE	W06
	BYTE		        An3 
	BYTE	W06
	BYTE		        An4 
	BYTE	W06
	BYTE		        Gs4 
	BYTE	W06
	BYTE		        An4 
	BYTE	W06
	BYTE		        En4 
	BYTE	W06
	BYTE		        Dn4 
	BYTE	W06
	BYTE		        Cn4 
	BYTE	W06
	BYTE	PEND
// 010   ----------------------------------------
RangersSong_2_010:
	BYTE		N05     An3   v056
	BYTE	W06
	BYTE		N05   
	BYTE	W06
	BYTE		        An4 
	BYTE	W06
	BYTE		        Gs4 
	BYTE	W06
	BYTE		        An4 
	BYTE	W06
	BYTE		        En4 
	BYTE	W06
	BYTE		        Dn4 
	BYTE	W06
	BYTE		        Cn4 
	BYTE	W06
	BYTE		        Bn3 
	BYTE	W06
	BYTE		        An3 
	BYTE	W06
	BYTE		        An4 
	BYTE	W06
	BYTE		        Gs4 
	BYTE	W06
	BYTE		        An4 
	BYTE	W06
	BYTE		        En4 
	BYTE	W06
	BYTE		        Dn4 
	BYTE	W06
	BYTE		        Cn4 
	BYTE	W06
	BYTE	PEND
// 011   ----------------------------------------
	BYTE	PATT
	 POIN2	RangersSong_2_009
// 012   ----------------------------------------
RangersSong_2_012:
	BYTE		N05     Bn3   v056
	BYTE	W06
	BYTE		        Gn3 
	BYTE	W06
	BYTE		        Gn4 
	BYTE	W06
	BYTE		        Fs4 
	BYTE	W06
	BYTE		        Gn4 
	BYTE	W06
	BYTE		        Dn4 
	BYTE	W06
	BYTE		        Cn4 
	BYTE	W06
	BYTE		        Bn3 
	BYTE	W06
	BYTE		        An3 
	BYTE	W06
	BYTE		        Gn3 
	BYTE	W06
	BYTE		        Gn4 
	BYTE	W06
	BYTE		        Fs4 
	BYTE	W06
	BYTE		        Gn4 
	BYTE	W06
	BYTE		        Dn4 
	BYTE	W06
	BYTE		        Cn4 
	BYTE	W06
	BYTE		        Bn3 
	BYTE	W06
	BYTE	PEND
// 013   ----------------------------------------
RangersSong_2_013:
	BYTE		N05     An3   v056
	BYTE	W06
	BYTE		        Gn3 
	BYTE	W06
	BYTE		        Gn4 
	BYTE	W06
	BYTE		        Fs4 
	BYTE	W06
	BYTE		        Gn4 
	BYTE	W06
	BYTE		        Dn4 
	BYTE	W06
	BYTE		        Cn4 
	BYTE	W06
	BYTE		        Bn3 
	BYTE	W06
	BYTE		        An3 
	BYTE	W06
	BYTE		        Gn3 
	BYTE	W06
	BYTE		        Gn4 
	BYTE	W06
	BYTE		        Fs4 
	BYTE	W06
	BYTE		        Gn4 
	BYTE	W06
	BYTE		        Dn4 
	BYTE	W06
	BYTE		        Cn4 
	BYTE	W06
	BYTE		        Bn3 
	BYTE	W06
	BYTE	PEND
// 014   ----------------------------------------
	BYTE	PATT
	 POIN2	RangersSong_2_010
// 015   ----------------------------------------
	BYTE	PATT
	 POIN2	RangersSong_2_009
// 016   ----------------------------------------
	BYTE	PATT
	 POIN2	RangersSong_2_012
// 017   ----------------------------------------
	BYTE	PATT
	 POIN2	RangersSong_2_013
// 018   ----------------------------------------
	BYTE	PATT
	 POIN2	RangersSong_2_010
// 019   ----------------------------------------
	BYTE	PATT
	 POIN2	RangersSong_2_009
// 020   ----------------------------------------
	BYTE		N05     Bn3   v056
	BYTE	W06
	BYTE		        En3 
	BYTE	W06
	BYTE		        En4 
	BYTE	W06
	BYTE		        Ds4 
	BYTE	W06
	BYTE		        En4 
	BYTE	W06
	BYTE		        Bn3 
	BYTE	W06
	BYTE		        An3 
	BYTE	W06
	BYTE		        Gn3 
	BYTE	W06
	BYTE		        Fs3 
	BYTE	W06
	BYTE		        En3 
	BYTE	W06
	BYTE		        En4 
	BYTE	W06
	BYTE		        Ds4 
	BYTE	W06
	BYTE		        En4 
	BYTE	W06
	BYTE		        Bn3 
	BYTE	W06
	BYTE		        An3 
	BYTE	W06
	BYTE		        Gs3 
	BYTE	W06
// 021   ----------------------------------------
RangersSong_2_021:
	BYTE		N05     Fn3   v056
	BYTE	W06
	BYTE		        Gn3 
	BYTE	W06
	BYTE		        Gn4 
	BYTE	W06
	BYTE		        Fs4 
	BYTE	W06
	BYTE		        Gn4 
	BYTE	W06
	BYTE		        Dn4 
	BYTE	W06
	BYTE		        Cn4 
	BYTE	W06
	BYTE		        Bn3 
	BYTE	W06
	BYTE		        An3 
	BYTE	W06
	BYTE		        Gn3 
	BYTE	W06
	BYTE		        Gn4 
	BYTE	W06
	BYTE		        Fs4 
	BYTE	W06
	BYTE		        Gn4 
	BYTE	W06
	BYTE		        Dn4 
	BYTE	W06
	BYTE		        Cn4 
	BYTE	W06
	BYTE		        Bn3 
	BYTE	W06
	BYTE	PEND
// 022   ----------------------------------------
	BYTE		        An3 
	BYTE	W06
	BYTE		        Fn3 
	BYTE	W06
	BYTE		        Fn4 
	BYTE	W06
	BYTE		        En4 
	BYTE	W06
	BYTE		        Fn4 
	BYTE	W06
	BYTE		        Cn4 
	BYTE	W06
	BYTE		        Bn3 
	BYTE	W06
	BYTE		        An3 
	BYTE	W06
	BYTE		        Fn3 
	BYTE	W06
	BYTE		N05   
	BYTE	W06
	BYTE		        Fn4 
	BYTE	W06
	BYTE		        En4 
	BYTE	W06
	BYTE		        Fn4 
	BYTE	W06
	BYTE		        Cn4 
	BYTE	W06
	BYTE		        Bn3 
	BYTE	W06
	BYTE		        An3 
	BYTE	W06
// 023   ----------------------------------------
	BYTE		        Fn3 
	BYTE	W06
	BYTE		        Cn3 
	BYTE	W06
	BYTE		        Cn5 
	BYTE	W06
	BYTE		        Bn4 
	BYTE	W06
	BYTE		        Cn5 
	BYTE	W06
	BYTE		        Gn4 
	BYTE	W06
	BYTE		        Fn4 
	BYTE	W06
	BYTE		        En4 
	BYTE	W06
	BYTE		        Dn4 
	BYTE	W06
	BYTE		        Cn4 
	BYTE	W06
	BYTE		        Cn5 
	BYTE	W06
	BYTE		        Bn4 
	BYTE	W06
	BYTE		        Cn5 
	BYTE	W06
	BYTE		        Gn4 
	BYTE	W06
	BYTE		        Fn4 
	BYTE	W06
	BYTE		        En4 
	BYTE	W06
// 024   ----------------------------------------
	BYTE		        Cn4 
	BYTE	W06
	BYTE		        Fn3 
	BYTE	W06
	BYTE		        Fn4 
	BYTE	W06
	BYTE		        En4 
	BYTE	W06
	BYTE		        Fn4 
	BYTE	W06
	BYTE		        Cn4 
	BYTE	W06
	BYTE		        Bn3 
	BYTE	W06
	BYTE		        An3 
	BYTE	W06
	BYTE		        Gn3 
	BYTE	W06
	BYTE		        Fn3 
	BYTE	W06
	BYTE		        Fn4 
	BYTE	W06
	BYTE		        En4 
	BYTE	W06
	BYTE		        Fn4 
	BYTE	W06
	BYTE		        Cn4 
	BYTE	W06
	BYTE		        Bn3 
	BYTE	W06
	BYTE		        An3 
	BYTE	W06
// 025   ----------------------------------------
	BYTE	PATT
	 POIN2	RangersSong_2_021
// 026   ----------------------------------------
	BYTE		N05     Gn3   v056
	BYTE	W06
	BYTE		        An3 
	BYTE	W06
	BYTE		        An4 
	BYTE	W06
	BYTE		        Gs4 
	BYTE	W06
	BYTE		        An4 
	BYTE	W06
	BYTE		        En4 
	BYTE	W06
	BYTE		        Dn4 
	BYTE	W06
	BYTE		        Cn4 
	BYTE	W06
	BYTE		        Dn4 
	BYTE	W06
	BYTE		        Cn4 
	BYTE	W06
	BYTE		        Bn3 
	BYTE	W06
	BYTE		        Cn4 
	BYTE	W06
	BYTE		        Dn4 
	BYTE	W06
	BYTE		        En4 
	BYTE	W06
	BYTE		        Dn4 
	BYTE	W06
	BYTE		        Gn3 
	BYTE	W06
// 027   ----------------------------------------
	BYTE		N05   
	BYTE	W06
	BYTE		        An3 
	BYTE	W06
	BYTE		        An4 
	BYTE	W06
	BYTE		        Gs4 
	BYTE	W06
	BYTE		        An4 
	BYTE	W06
	BYTE		        En4 
	BYTE	W06
	BYTE		        Dn4 
	BYTE	W06
	BYTE		        Cn4 
	BYTE	W06
	BYTE		N42     En3 
	BYTE		N42     Gs3 
	BYTE	W44
	BYTE	W03
	BYTE	GoTo
	 POIN2	RangersSong_2_B1
RangersSong_2_B2:
	BYTE	FINE

//**************** Track 3 (Midi-Chn.3) ****************//

RangersSong_3:
	BYTE	KEYSH   RangersSong_key+0
RangersSong_3_B1:
// 000   ----------------------------------------
	BYTE		VOICE   55
	BYTE		MODT    0
	BYTE		LFOS    44
	BYTE		PAN     c_v-13
	BYTE		VOL     127*RangersSong_mvl/mxv
	BYTE	W96
// 001   ----------------------------------------
	BYTE	W96
// 002   ----------------------------------------
	BYTE	W96
// 003   ----------------------------------------
	BYTE	W96
// 004   ----------------------------------------
	BYTE	W96
// 005   ----------------------------------------
	BYTE	W96
// 006   ----------------------------------------
	BYTE	W96
// 007   ----------------------------------------
	BYTE	W96
// 008   ----------------------------------------
	BYTE	W96
// 009   ----------------------------------------
	BYTE	W96
// 010   ----------------------------------------
	BYTE	W96
// 011   ----------------------------------------
	BYTE	W96
// 012   ----------------------------------------
	BYTE	W96
// 013   ----------------------------------------
	BYTE	W96
// 014   ----------------------------------------
	BYTE		N90     En3   v127
	BYTE	W96
// 015   ----------------------------------------
	BYTE		N90   
	BYTE	W96
// 016   ----------------------------------------
	BYTE		        Dn3 
	BYTE	W96
// 017   ----------------------------------------
	BYTE	W90
	BYTE		        En3 
	BYTE	W06
// 018   ----------------------------------------
	BYTE	W90
	BYTE		N90   
	BYTE	W06
// 019   ----------------------------------------
	BYTE	W90
	BYTE		        Dn3 
	BYTE	W06
// 020   ----------------------------------------
	BYTE	W96
// 021   ----------------------------------------
	BYTE	W96
// 022   ----------------------------------------
	BYTE	W96
// 023   ----------------------------------------
	BYTE	W96
// 024   ----------------------------------------
	BYTE	W96
// 025   ----------------------------------------
	BYTE	W96
// 026   ----------------------------------------
	BYTE	W96
// 027   ----------------------------------------
	BYTE	W92
	BYTE	W03
	BYTE	GoTo
	 POIN2	RangersSong_3_B1
RangersSong_3_B2:
	BYTE	FINE

//**************** Track 4 (Midi-Chn.4) ****************//

RangersSong_4:
	BYTE	KEYSH   RangersSong_key+0
RangersSong_4_B1:
// 000   ----------------------------------------
	BYTE		VOICE   60
	BYTE		MODT    0
	BYTE		LFOS    44
	BYTE		VOL     124*RangersSong_mvl/mxv
	BYTE		PAN     c_v+18
	BYTE		N66     An3   v127
	BYTE	W72
	BYTE		N11   
	BYTE	W12
	BYTE		N05     En3 
	BYTE	W06
	BYTE		        An3 
	BYTE	W06
// 001   ----------------------------------------
RangersSong_4_001:
	BYTE		N56     Cn4   v127
	BYTE	W60
	BYTE		N11     An3 
	BYTE	W12
	BYTE		        Bn3 
	BYTE	W12
	BYTE		        Cn4 
	BYTE	W12
	BYTE	PEND
// 002   ----------------------------------------
	BYTE		N05     Bn3 
	BYTE	W06
	BYTE		        An3 
	BYTE	W06
	BYTE		N56     Gn3 
	BYTE	W60
	BYTE		N11   
	BYTE	W12
	BYTE		N05     An3 
	BYTE	W06
	BYTE		        Gn3 
	BYTE	W06
// 003   ----------------------------------------
	BYTE		N90     Dn3 
	BYTE	W96
// 004   ----------------------------------------
	BYTE		N66     An3 
	BYTE	W72
	BYTE		N11   
	BYTE	W12
	BYTE		N05     En3 
	BYTE	W06
	BYTE		        An3 
	BYTE	W06
// 005   ----------------------------------------
	BYTE	PATT
	 POIN2	RangersSong_4_001
// 006   ----------------------------------------
	BYTE		N05     Fn4   v127
	BYTE	W06
	BYTE		        En4 
	BYTE	W06
	BYTE		N54     Dn4 
	BYTE	W60
	BYTE		N05     Cn4 
	BYTE	W06
	BYTE		        Dn4 
	BYTE	W06
	BYTE		        En4 
	BYTE	W06
	BYTE		        Fn4 
	BYTE	W06
// 007   ----------------------------------------
	BYTE		N42     Gn4 
	BYTE	W48
	BYTE		N05   
	BYTE	W06
	BYTE		        Dn4 
	BYTE	W06
	BYTE		        Bn3 
	BYTE	W06
	BYTE		        Gn3 
	BYTE	W06
	BYTE		        Dn3 
	BYTE	W06
	BYTE		        Gn3 
	BYTE	W06
	BYTE		        Bn3 
	BYTE	W06
	BYTE		        Gn3 
	BYTE	W06
// 008   ----------------------------------------
	BYTE		N90     An3 
	BYTE	W96
// 009   ----------------------------------------
	BYTE	W96
// 010   ----------------------------------------
RangersSong_4_010:
	BYTE		N42     An3   v127
	BYTE	W60
	BYTE		N11   
	BYTE	W12
	BYTE		        Bn3 
	BYTE	W12
	BYTE		        Cn4 
	BYTE	W12
	BYTE	PEND
// 011   ----------------------------------------
RangersSong_4_011:
	BYTE		N20     En4   v127
	BYTE	W24
	BYTE		N11     Dn4 
	BYTE	W12
	BYTE		N05     Cn4 
	BYTE	W06
	BYTE		        Bn3 
	BYTE	W06
	BYTE		N20     An3 
	BYTE	W24
	BYTE		N05     Cn4 
	BYTE	W06
	BYTE		        Bn3 
	BYTE	W06
	BYTE		N11     An3 
	BYTE	W12
	BYTE	PEND
// 012   ----------------------------------------
RangersSong_4_012:
	BYTE		N20     Gn3   v127
	BYTE	W24
	BYTE		N11     Dn4 
	BYTE	W12
	BYTE		TIE   
	BYTE	W60
	BYTE	PEND
// 013   ----------------------------------------
	BYTE	W66
	BYTE		EOT   
	BYTE	W30
// 014   ----------------------------------------
	BYTE	PATT
	 POIN2	RangersSong_4_010
// 015   ----------------------------------------
	BYTE	PATT
	 POIN2	RangersSong_4_011
// 016   ----------------------------------------
	BYTE	PATT
	 POIN2	RangersSong_4_012
// 017   ----------------------------------------
	BYTE	W66
	BYTE		EOT     Dn4 
	BYTE	W30
// 018   ----------------------------------------
	BYTE	PATT
	 POIN2	RangersSong_4_010
// 019   ----------------------------------------
	BYTE	PATT
	 POIN2	RangersSong_4_011
// 020   ----------------------------------------
	BYTE		N20     Gn3   v127
	BYTE	W36
	BYTE		N11     En4 
	BYTE	W12
	BYTE		N42   
	BYTE	W48
// 021   ----------------------------------------
	BYTE		N66     Dn4 
	BYTE	W96
// 022   ----------------------------------------
	BYTE		N20     Fn4 
	BYTE	W24
	BYTE		N11     En4 
	BYTE	W12
	BYTE		N32     Dn4 
	BYTE	W48
	BYTE		N05     Cn4 
	BYTE	W06
	BYTE		        Dn4 
	BYTE	W06
// 023   ----------------------------------------
	BYTE		N32     Bn3 
	BYTE	W36
	BYTE		N44     Cn4 
	BYTE	W48
	BYTE		N11     Bn3 
	BYTE	W12
// 024   ----------------------------------------
	BYTE		N66     An3 
	BYTE	W72
	BYTE		N05     Fn3 
	BYTE	W06
	BYTE		        Gn3 
	BYTE	W06
	BYTE		N11     An3 
	BYTE	W12
// 025   ----------------------------------------
	BYTE		N20     Gn3 
	BYTE	W24
	BYTE		N11     Dn4 
	BYTE	W12
	BYTE		N32   
	BYTE	W36
	BYTE		N20     Gn3 
	BYTE	W24
// 026   ----------------------------------------
	BYTE		N90     An3 
	BYTE	W96
// 027   ----------------------------------------
	BYTE	W92
	BYTE	W03
	BYTE	GoTo
	 POIN2	RangersSong_4_B1
RangersSong_4_B2:
	BYTE	FINE

//**************** Track 5 (Midi-Chn.5) ****************//

RangersSong_5:
	BYTE	KEYSH   RangersSong_key+0
RangersSong_5_B1:
// 000   ----------------------------------------
	BYTE		VOICE   0
	BYTE		MODT    0
	BYTE		LFOS    44
	BYTE		VOL     117*RangersSong_mvl/mxv
	BYTE		PAN     c_v-20
	BYTE		N05     Cn3   v056
	BYTE	W06
	BYTE		N05   
	BYTE	W06
	BYTE		N05   
	BYTE	W06
	BYTE		N05   
	BYTE	W06
	BYTE		N05   
	BYTE	W06
	BYTE		N05   
	BYTE	W06
	BYTE		N05   
	BYTE	W06
	BYTE		N05   
	BYTE	W06
	BYTE		N05   
	BYTE	W06
	BYTE		N05   
	BYTE	W06
	BYTE		N05   
	BYTE	W06
	BYTE		N05   
	BYTE	W06
	BYTE		N05   
	BYTE	W06
	BYTE		N05   
	BYTE	W06
	BYTE		N05   
	BYTE	W06
	BYTE		N05   
	BYTE	W06
// 001   ----------------------------------------
RangersSong_5_001:
	BYTE		N05     Cn3   v056
	BYTE	W06
	BYTE		N05   
	BYTE	W06
	BYTE		N05   
	BYTE	W06
	BYTE		N05   
	BYTE	W06
	BYTE		N05   
	BYTE	W06
	BYTE		N05   
	BYTE	W06
	BYTE		N05   
	BYTE	W06
	BYTE		N05   
	BYTE	W06
	BYTE		N05   
	BYTE	W06
	BYTE		N05   
	BYTE	W06
	BYTE		N05   
	BYTE	W06
	BYTE		N05   
	BYTE	W06
	BYTE		N05   
	BYTE	W06
	BYTE		N05   
	BYTE	W06
	BYTE		N05   
	BYTE	W06
	BYTE		N05   
	BYTE	W06
	BYTE	PEND
// 002   ----------------------------------------
RangersSong_5_002:
	BYTE		N05     Bn2   v056
	BYTE	W06
	BYTE		N05   
	BYTE	W06
	BYTE		N05   
	BYTE	W06
	BYTE		N05   
	BYTE	W06
	BYTE		N05   
	BYTE	W06
	BYTE		N05   
	BYTE	W06
	BYTE		N05   
	BYTE	W06
	BYTE		N05   
	BYTE	W06
	BYTE		N05   
	BYTE	W06
	BYTE		N05   
	BYTE	W06
	BYTE		N05   
	BYTE	W06
	BYTE		N05   
	BYTE	W06
	BYTE		N05   
	BYTE	W06
	BYTE		N05   
	BYTE	W06
	BYTE		N05   
	BYTE	W06
	BYTE		N05   
	BYTE	W06
	BYTE	PEND
// 003   ----------------------------------------
	BYTE	PATT
	 POIN2	RangersSong_5_002
// 004   ----------------------------------------
	BYTE	PATT
	 POIN2	RangersSong_5_001
// 005   ----------------------------------------
	BYTE	PATT
	 POIN2	RangersSong_5_001
// 006   ----------------------------------------
	BYTE		N05     An2   v056
	BYTE	W06
	BYTE		N05   
	BYTE	W06
	BYTE		N05   
	BYTE	W06
	BYTE		N05   
	BYTE	W06
	BYTE		N05   
	BYTE	W06
	BYTE		N05   
	BYTE	W06
	BYTE		N05   
	BYTE	W06
	BYTE		N05   
	BYTE	W06
	BYTE		N05   
	BYTE	W06
	BYTE		N05   
	BYTE	W06
	BYTE		N05   
	BYTE	W06
	BYTE		N05   
	BYTE	W06
	BYTE		N05   
	BYTE	W06
	BYTE		N05   
	BYTE	W06
	BYTE		N05   
	BYTE	W06
	BYTE		N05   
	BYTE	W06
// 007   ----------------------------------------
	BYTE	PATT
	 POIN2	RangersSong_5_002
// 008   ----------------------------------------
	BYTE		N90     An2   v056
	BYTE		N90     Cn3 
	BYTE		N90     En3 
	BYTE	W96
// 009   ----------------------------------------
	BYTE	W96
// 010   ----------------------------------------
	BYTE	W96
// 011   ----------------------------------------
	BYTE	W96
// 012   ----------------------------------------
	BYTE	W96
// 013   ----------------------------------------
	BYTE	W96
// 014   ----------------------------------------
	BYTE	W96
// 015   ----------------------------------------
	BYTE	W96
// 016   ----------------------------------------
	BYTE	W96
// 017   ----------------------------------------
	BYTE	W96
// 018   ----------------------------------------
	BYTE		N56   
	BYTE	W60
	BYTE		N11   
	BYTE	W12
	BYTE		        Gn3 
	BYTE	W12
	BYTE		        An3 
	BYTE	W12
// 019   ----------------------------------------
	BYTE		N20     Cn4 
	BYTE	W24
	BYTE		N11     Bn3 
	BYTE	W12
	BYTE		N05     An3 
	BYTE	W06
	BYTE		        Gn3 
	BYTE	W06
	BYTE		N20     En3 
	BYTE	W24
	BYTE		N05     An3 
	BYTE	W06
	BYTE		        Gn3 
	BYTE	W06
	BYTE		N11     Cn3 
	BYTE	W12
// 020   ----------------------------------------
	BYTE		N32     En3 
	BYTE	W36
	BYTE		N11     Gn3 
	BYTE	W12
	BYTE		N42   
	BYTE	W48
// 021   ----------------------------------------
	BYTE		N90   
	BYTE	W96
// 022   ----------------------------------------
	BYTE		N20     Dn4 
	BYTE	W24
	BYTE		N11     Cn4 
	BYTE	W12
	BYTE		N44     Bn3 
	BYTE	W48
	BYTE		N05     Gn3 
	BYTE	W06
	BYTE		        An3 
	BYTE	W06
// 023   ----------------------------------------
	BYTE		N32     Gn3 
	BYTE	W36
	BYTE		N44     En3 
	BYTE	W48
	BYTE		N11     Gn3 
	BYTE	W12
// 024   ----------------------------------------
	BYTE		N66     Fn3 
	BYTE	W72
	BYTE		N05     Cn4 
	BYTE	W06
	BYTE		        Bn3 
	BYTE	W06
	BYTE		N11     Cn4 
	BYTE	W12
// 025   ----------------------------------------
	BYTE		N20     Bn3 
	BYTE	W24
	BYTE		N11     Gn3 
	BYTE	W12
	BYTE		N32   
	BYTE	W36
	BYTE		N20     En3 
	BYTE	W24
// 026   ----------------------------------------
	BYTE		N90   
	BYTE	W96
// 027   ----------------------------------------
	BYTE	W48
	BYTE		N11     Cn3 
	BYTE	W12
	BYTE		N05     An2 
	BYTE	W06
	BYTE		        Bn2 
	BYTE	W06
	BYTE		N05   
	BYTE	W06
	BYTE		N05   
	BYTE	W06
	BYTE		N05   
	BYTE	W06
	BYTE		N05   
	BYTE	W05
	BYTE	GoTo
	 POIN2	RangersSong_5_B1
RangersSong_5_B2:
	BYTE	FINE

//**************** Track 6 (Midi-Chn.6) ****************//

RangersSong_6:
	BYTE	KEYSH   RangersSong_key+0
RangersSong_6_B1:
// 000   ----------------------------------------
	BYTE		VOICE   48
	BYTE		MODT    0
	BYTE		LFOS    44
	BYTE		VOL     119*RangersSong_mvl/mxv
	BYTE		PAN     c_v-11
	BYTE	W96
// 001   ----------------------------------------
	BYTE	W96
// 002   ----------------------------------------
	BYTE	W96
// 003   ----------------------------------------
	BYTE	W96
// 004   ----------------------------------------
	BYTE	W96
// 005   ----------------------------------------
	BYTE	W96
// 006   ----------------------------------------
	BYTE	W96
// 007   ----------------------------------------
	BYTE	W96
// 008   ----------------------------------------
	BYTE	W96
// 009   ----------------------------------------
	BYTE	W96
// 010   ----------------------------------------
	BYTE		TIE     An3   v076
	BYTE		TIE     Cn4 
	BYTE		TIE     En4 
	BYTE	W96
// 011   ----------------------------------------
	BYTE	W96
	BYTE		EOT     An3 
	BYTE		        Cn4 
	BYTE		        En4 
// 012   ----------------------------------------
	BYTE		TIE     Bn3 
	BYTE		TIE     Dn4 
	BYTE	W96
// 013   ----------------------------------------
	BYTE	W96
	BYTE		EOT     Bn3 
	BYTE		        Dn4 
// 014   ----------------------------------------
RangersSong_6_014:
	BYTE		N96     An3   v076
	BYTE		TIE     Cn4 
	BYTE		TIE     En4 
	BYTE	W96
	BYTE	PEND
// 015   ----------------------------------------
	BYTE	W96
	BYTE		EOT     Cn4 
	BYTE		        En4 
// 016   ----------------------------------------
	BYTE		TIE     Gn3 
	BYTE		TIE     Bn3 
	BYTE		TIE     Dn4 
	BYTE	W96
// 017   ----------------------------------------
	BYTE	W96
	BYTE		EOT     Gn3 
	BYTE		        Bn3 
	BYTE		        Dn4 
// 018   ----------------------------------------
	BYTE	PATT
	 POIN2	RangersSong_6_014
// 019   ----------------------------------------
	BYTE	W96
	BYTE		EOT     Cn4 
// 020   ----------------------------------------
	BYTE		TIE     Gn3   v076
	BYTE		TIE     Bn3 
	BYTE	W96
	BYTE		EOT     En4 
// 021   ----------------------------------------
	BYTE		N96     Gn4 
	BYTE	W96
	BYTE		EOT     Gn3 
	BYTE		        Bn3 
// 022   ----------------------------------------
	BYTE		N96     Fn3 
	BYTE		TIE     Cn4 
	BYTE		N96     Fn4 
	BYTE	W96
// 023   ----------------------------------------
	BYTE		        Gn3 
	BYTE		N96     En4 
	BYTE	W96
// 024   ----------------------------------------
	BYTE		        Fn3 
	BYTE		N96     An3 
	BYTE	W96
	BYTE		EOT     Cn4 
// 025   ----------------------------------------
	BYTE		N96     Gn3 
	BYTE		N96     Bn3 
	BYTE		N96     Dn4 
	BYTE	W96
// 026   ----------------------------------------
	BYTE		TIE     An2 
	BYTE		TIE     En3 
	BYTE		TIE     An3 
	BYTE	W96
// 027   ----------------------------------------
	BYTE	W48
	BYTE		EOT     An2 
	BYTE		        An3 
	BYTE		N42     Gs2 
	BYTE		N42     Gs3 
	BYTE	W42
	BYTE		EOT     En3 
	BYTE	W05
	BYTE	GoTo
	 POIN2	RangersSong_6_B1
RangersSong_6_B2:
	BYTE	FINE

//**************** Track 7 (Midi-Chn.7) ****************//

RangersSong_7:
	BYTE	KEYSH   RangersSong_key+0
RangersSong_7_B1:
// 000   ----------------------------------------
	BYTE		VOICE   61
	BYTE		MODT    0
	BYTE		LFOS    44
	BYTE		VOL     109*RangersSong_mvl/mxv
	BYTE		PAN     c_v+14
	BYTE	W12
	BYTE		N11     En2   v056
	BYTE	W24
	BYTE		N11   
	BYTE	W24
	BYTE		N11   
	BYTE	W12
	BYTE		N05   
	BYTE	W06
	BYTE		N17     Fn2 
	BYTE	W18
// 001   ----------------------------------------
	BYTE	W12
	BYTE		N11     En2 
	BYTE	W24
	BYTE		N11   
	BYTE	W24
	BYTE		N11   
	BYTE	W12
	BYTE		N05   
	BYTE	W06
	BYTE		N17     Gn2 
	BYTE	W18
// 002   ----------------------------------------
	BYTE	W12
	BYTE		N11     Dn2 
	BYTE	W24
	BYTE		N11   
	BYTE	W24
	BYTE		N11   
	BYTE	W12
	BYTE		N05   
	BYTE	W06
	BYTE		N17     Gn2 
	BYTE	W18
// 003   ----------------------------------------
	BYTE	W12
	BYTE		N11     Dn2 
	BYTE	W18
	BYTE		N05   
	BYTE	W06
	BYTE		N11   
	BYTE	W24
	BYTE		N11   
	BYTE	W12
	BYTE		N05   
	BYTE	W06
	BYTE		N17     Gn2 
	BYTE	W18
// 004   ----------------------------------------
	BYTE	W12
	BYTE		N05     En2 
	BYTE	W06
	BYTE		N17   
	BYTE	W18
	BYTE		N05   
	BYTE	W06
	BYTE		N17   
	BYTE	W18
	BYTE		N05   
	BYTE	W06
	BYTE		        Dn2 
	BYTE	W06
	BYTE		        En2 
	BYTE	W06
	BYTE		N17     Gn2 
	BYTE	W18
// 005   ----------------------------------------
	BYTE	W12
	BYTE		N05     En2 
	BYTE	W06
	BYTE		N11   
	BYTE	W12
	BYTE		N05   
	BYTE	W06
	BYTE		N05   
	BYTE	W06
	BYTE		N11   
	BYTE	W12
	BYTE		N05   
	BYTE	W06
	BYTE		N05   
	BYTE	W06
	BYTE		        Dn2 
	BYTE	W06
	BYTE		        En2 
	BYTE	W06
	BYTE		        Gn2 
	BYTE	W06
	BYTE		        Bn2 
	BYTE	W06
	BYTE		        Gn2 
	BYTE	W06
// 006   ----------------------------------------
	BYTE		        An2 
	BYTE	W06
	BYTE		N05   
	BYTE	W06
	BYTE		N05   
	BYTE	W06
	BYTE		N11   
	BYTE	W12
	BYTE		N05     Cn3 
	BYTE	W06
	BYTE		        Bn2 
	BYTE	W06
	BYTE		        Gn2 
	BYTE	W06
	BYTE		        An2 
	BYTE	W06
	BYTE		N05   
	BYTE	W06
	BYTE		N05   
	BYTE	W06
	BYTE		N11   
	BYTE	W12
	BYTE		N05     Dn3 
	BYTE	W06
	BYTE		        Bn2 
	BYTE	W06
	BYTE		        Fn2 
	BYTE	W06
// 007   ----------------------------------------
	BYTE		        Gn2 
	BYTE	W06
	BYTE		N05   
	BYTE	W06
	BYTE		N05   
	BYTE	W06
	BYTE		N11   
	BYTE	W12
	BYTE		N05     Dn3 
	BYTE	W06
	BYTE		        Bn2 
	BYTE	W06
	BYTE		        Fn2 
	BYTE	W06
	BYTE		        Gn2 
	BYTE	W06
	BYTE		N05   
	BYTE	W06
	BYTE		N05   
	BYTE	W06
	BYTE		N11   
	BYTE	W12
	BYTE		N05     Gn3 
	BYTE	W06
	BYTE		        En3 
	BYTE	W06
	BYTE		        Gn2 
	BYTE	W06
// 008   ----------------------------------------
	BYTE		N90     An2 
	BYTE	W96
// 009   ----------------------------------------
	BYTE	W96
// 010   ----------------------------------------
	BYTE	W96
// 011   ----------------------------------------
	BYTE	W96
// 012   ----------------------------------------
	BYTE	W96
// 013   ----------------------------------------
	BYTE	W96
// 014   ----------------------------------------
	BYTE	W96
// 015   ----------------------------------------
	BYTE	W96
// 016   ----------------------------------------
	BYTE	W96
// 017   ----------------------------------------
	BYTE	W96
// 018   ----------------------------------------
	BYTE	W96
// 019   ----------------------------------------
	BYTE	W96
// 020   ----------------------------------------
	BYTE	W96
// 021   ----------------------------------------
	BYTE	W96
// 022   ----------------------------------------
	BYTE	W96
// 023   ----------------------------------------
	BYTE	W96
// 024   ----------------------------------------
	BYTE	W96
// 025   ----------------------------------------
	BYTE	W96
// 026   ----------------------------------------
	BYTE	W96
// 027   ----------------------------------------
	BYTE	W92
	BYTE	W03
	BYTE	GoTo
	 POIN2	RangersSong_7_B1
RangersSong_7_B2:
	BYTE	FINE

//**************** Track 8 (Midi-Chn.8) ****************//

RangersSong_8:
	BYTE	KEYSH   RangersSong_key+0
RangersSong_8_B1:
// 000   ----------------------------------------
	BYTE		VOICE   36
	BYTE		MODT    0
	BYTE		LFOS    44
	BYTE		PAN     c_v-4
	BYTE		VOL     98*RangersSong_mvl/mxv
	BYTE		N05     An1   v127
	BYTE	W06
	BYTE		N05   
	BYTE	W06
	BYTE		N05   
	BYTE	W06
	BYTE		N05   
	BYTE	W06
	BYTE		N05   
	BYTE	W06
	BYTE		N05   
	BYTE	W06
	BYTE		N05   
	BYTE	W06
	BYTE		N05   
	BYTE	W06
	BYTE		N05   
	BYTE	W06
	BYTE		N05   
	BYTE	W06
	BYTE		N05   
	BYTE	W06
	BYTE		N05   
	BYTE	W06
	BYTE		N05   
	BYTE	W06
	BYTE		N05   
	BYTE	W06
	BYTE		N05   
	BYTE	W06
	BYTE		N05   
	BYTE	W06
// 001   ----------------------------------------
RangersSong_8_001:
	BYTE		N05     An1   v127
	BYTE	W06
	BYTE		N05   
	BYTE	W06
	BYTE		N05   
	BYTE	W06
	BYTE		N05   
	BYTE	W06
	BYTE		N05   
	BYTE	W06
	BYTE		N05   
	BYTE	W06
	BYTE		N05   
	BYTE	W06
	BYTE		N05   
	BYTE	W06
	BYTE		N05   
	BYTE	W06
	BYTE		N05   
	BYTE	W06
	BYTE		N05   
	BYTE	W06
	BYTE		N05   
	BYTE	W06
	BYTE		N05   
	BYTE	W06
	BYTE		N05   
	BYTE	W06
	BYTE		N05   
	BYTE	W06
	BYTE		N05   
	BYTE	W06
	BYTE	PEND
// 002   ----------------------------------------
RangersSong_8_002:
	BYTE		N05     Gn1   v127
	BYTE	W06
	BYTE		N05   
	BYTE	W06
	BYTE		N05   
	BYTE	W06
	BYTE		N05   
	BYTE	W06
	BYTE		N05   
	BYTE	W06
	BYTE		N05   
	BYTE	W06
	BYTE		N05   
	BYTE	W06
	BYTE		N05   
	BYTE	W06
	BYTE		N05   
	BYTE	W06
	BYTE		N05   
	BYTE	W06
	BYTE		N05   
	BYTE	W06
	BYTE		N05   
	BYTE	W06
	BYTE		N05   
	BYTE	W06
	BYTE		N05   
	BYTE	W06
	BYTE		N05   
	BYTE	W06
	BYTE		N05   
	BYTE	W06
	BYTE	PEND
// 003   ----------------------------------------
	BYTE	PATT
	 POIN2	RangersSong_8_002
// 004   ----------------------------------------
	BYTE	PATT
	 POIN2	RangersSong_8_001
// 005   ----------------------------------------
	BYTE	PATT
	 POIN2	RangersSong_8_001
// 006   ----------------------------------------
RangersSong_8_006:
	BYTE		N05     Fn1   v127
	BYTE	W06
	BYTE		N05   
	BYTE	W06
	BYTE		N05   
	BYTE	W06
	BYTE		N05   
	BYTE	W06
	BYTE		N05   
	BYTE	W06
	BYTE		N05   
	BYTE	W06
	BYTE		N05   
	BYTE	W06
	BYTE		N05   
	BYTE	W06
	BYTE		N05   
	BYTE	W06
	BYTE		N05   
	BYTE	W06
	BYTE		N05   
	BYTE	W06
	BYTE		N05   
	BYTE	W06
	BYTE		N05   
	BYTE	W06
	BYTE		N05   
	BYTE	W06
	BYTE		N05   
	BYTE	W06
	BYTE		N05   
	BYTE	W06
	BYTE	PEND
// 007   ----------------------------------------
	BYTE	PATT
	 POIN2	RangersSong_8_002
// 008   ----------------------------------------
	BYTE		N90     An1   v127
	BYTE	W96
// 009   ----------------------------------------
	BYTE	W96
// 010   ----------------------------------------
	BYTE	PATT
	 POIN2	RangersSong_8_001
// 011   ----------------------------------------
	BYTE	PATT
	 POIN2	RangersSong_8_001
// 012   ----------------------------------------
	BYTE	PATT
	 POIN2	RangersSong_8_002
// 013   ----------------------------------------
	BYTE	PATT
	 POIN2	RangersSong_8_002
// 014   ----------------------------------------
	BYTE	PATT
	 POIN2	RangersSong_8_001
// 015   ----------------------------------------
	BYTE	PATT
	 POIN2	RangersSong_8_001
// 016   ----------------------------------------
	BYTE	PATT
	 POIN2	RangersSong_8_002
// 017   ----------------------------------------
	BYTE	PATT
	 POIN2	RangersSong_8_002
// 018   ----------------------------------------
	BYTE	PATT
	 POIN2	RangersSong_8_001
// 019   ----------------------------------------
	BYTE	PATT
	 POIN2	RangersSong_8_001
// 020   ----------------------------------------
	BYTE	PATT
	 POIN2	RangersSong_8_002
// 021   ----------------------------------------
	BYTE	PATT
	 POIN2	RangersSong_8_002
// 022   ----------------------------------------
	BYTE	PATT
	 POIN2	RangersSong_8_006
// 023   ----------------------------------------
	BYTE		N05     Cn2   v127
	BYTE	W06
	BYTE		N05   
	BYTE	W06
	BYTE		N05   
	BYTE	W06
	BYTE		N05   
	BYTE	W06
	BYTE		N05   
	BYTE	W06
	BYTE		N05   
	BYTE	W06
	BYTE		N05   
	BYTE	W06
	BYTE		N05   
	BYTE	W06
	BYTE		N05   
	BYTE	W06
	BYTE		N05   
	BYTE	W06
	BYTE		N05   
	BYTE	W06
	BYTE		N05   
	BYTE	W06
	BYTE		N05   
	BYTE	W06
	BYTE		N05   
	BYTE	W06
	BYTE		N05   
	BYTE	W06
	BYTE		N05   
	BYTE	W06
// 024   ----------------------------------------
	BYTE	PATT
	 POIN2	RangersSong_8_006
// 025   ----------------------------------------
	BYTE	PATT
	 POIN2	RangersSong_8_002
// 026   ----------------------------------------
	BYTE	PATT
	 POIN2	RangersSong_8_001
// 027   ----------------------------------------
	BYTE	W48
	BYTE		N11     An1   v127
	BYTE	W12
	BYTE		N05     En1 
	BYTE	W06
	BYTE		        An1 
	BYTE	W06
	BYTE		        Gs1 
	BYTE	W06
	BYTE		N05   
	BYTE	W06
	BYTE		N05   
	BYTE	W06
	BYTE		N05   
	BYTE	W05
	BYTE	GoTo
	 POIN2	RangersSong_8_B1
RangersSong_8_B2:
	BYTE	FINE

//**************** Track 9 (Midi-Chn.9) ****************//

RangersSong_9:
	BYTE	KEYSH   RangersSong_key+0
RangersSong_9_B1:
// 000   ----------------------------------------
	BYTE		VOICE   36
	BYTE		MODT    0
	BYTE		LFOS    44
	BYTE		PAN     c_v+6
	BYTE		VOL     103*RangersSong_mvl/mxv
	BYTE	W96
// 001   ----------------------------------------
	BYTE	W96
// 002   ----------------------------------------
	BYTE	W96
// 003   ----------------------------------------
	BYTE	W96
// 004   ----------------------------------------
	BYTE	W96
// 005   ----------------------------------------
	BYTE	W96
// 006   ----------------------------------------
	BYTE	W96
// 007   ----------------------------------------
	BYTE	W96
// 008   ----------------------------------------
	BYTE	W96
// 009   ----------------------------------------
	BYTE	W96
// 010   ----------------------------------------
RangersSong_9_010:
	BYTE		N20     An1   v127
	BYTE	W24
	BYTE		        An2 
	BYTE	W30
	BYTE		N11     An1 
	BYTE	W12
	BYTE		N05   
	BYTE	W06
	BYTE		N11     An2 
	BYTE	W12
	BYTE		        An1 
	BYTE	W12
	BYTE	PEND
// 011   ----------------------------------------
	BYTE	PATT
	 POIN2	RangersSong_9_010
// 012   ----------------------------------------
RangersSong_9_012:
	BYTE		N20     Gn1   v127
	BYTE	W24
	BYTE		        Gn2 
	BYTE	W30
	BYTE		N11     Gn1 
	BYTE	W12
	BYTE		N05   
	BYTE	W06
	BYTE		N11     Gn2 
	BYTE	W12
	BYTE		        Gn1 
	BYTE	W12
	BYTE	PEND
// 013   ----------------------------------------
	BYTE	PATT
	 POIN2	RangersSong_9_012
// 014   ----------------------------------------
	BYTE	PATT
	 POIN2	RangersSong_9_010
// 015   ----------------------------------------
	BYTE		N20     Fn1   v127
	BYTE	W24
	BYTE		        Fn2 
	BYTE	W30
	BYTE		N11     Fn1 
	BYTE	W12
	BYTE		N05   
	BYTE	W06
	BYTE		N11     Fn2 
	BYTE	W12
	BYTE		        Fn1 
	BYTE	W12
// 016   ----------------------------------------
	BYTE	PATT
	 POIN2	RangersSong_9_012
// 017   ----------------------------------------
	BYTE	PATT
	 POIN2	RangersSong_9_012
// 018   ----------------------------------------
	BYTE	PATT
	 POIN2	RangersSong_9_010
// 019   ----------------------------------------
	BYTE	PATT
	 POIN2	RangersSong_9_010
// 020   ----------------------------------------
	BYTE		N20     En1   v127
	BYTE	W24
	BYTE		        En2 
	BYTE	W30
	BYTE		N11     En1 
	BYTE	W12
	BYTE		N05   
	BYTE	W06
	BYTE		N11     En2 
	BYTE	W12
	BYTE		        En1 
	BYTE	W12
// 021   ----------------------------------------
	BYTE	PATT
	 POIN2	RangersSong_9_012
// 022   ----------------------------------------
RangersSong_9_022:
	BYTE		N20     Fn1   v127
	BYTE	W24
	BYTE		        Fn2 
	BYTE	W36
	BYTE		N11     Fn1 
	BYTE	W12
	BYTE		        An1 
	BYTE	W12
	BYTE		        Cn2 
	BYTE	W12
	BYTE	PEND
// 023   ----------------------------------------
	BYTE		N20     Cn1 
	BYTE	W24
	BYTE		        Cn3 
	BYTE	W36
	BYTE		N11     Cn2 
	BYTE	W12
	BYTE		        En2 
	BYTE	W12
	BYTE		        Gn1 
	BYTE	W12
// 024   ----------------------------------------
	BYTE	PATT
	 POIN2	RangersSong_9_022
// 025   ----------------------------------------
	BYTE		N20     Gn1   v127
	BYTE	W24
	BYTE		        Gn2 
	BYTE	W30
	BYTE		N11     Gn1 
	BYTE	W12
	BYTE		N05   
	BYTE	W06
	BYTE		N11     Bn1 
	BYTE	W12
	BYTE		        Gn2 
	BYTE	W12
// 026   ----------------------------------------
	BYTE		N90     An1 
	BYTE		N90     An2 
	BYTE	W96
// 027   ----------------------------------------
	BYTE	W92
	BYTE	W03
	BYTE	GoTo
	 POIN2	RangersSong_9_B1
RangersSong_9_B2:
	BYTE	FINE

//**************** Track 10 (Midi-Chn.11) ****************//

RangersSong_10:
	BYTE	KEYSH   RangersSong_key+0
RangersSong_10_B1:
// 000   ----------------------------------------
	BYTE		VOICE   121
	BYTE		MODT    0
	BYTE		LFOS    44
	BYTE		VOL     127*RangersSong_mvl/mxv
	BYTE		PAN     c_v+0
	BYTE		N11     Cn1   v127
	BYTE		N11     Gs1 
	BYTE		N11     An2 
	BYTE	W12
	BYTE		N05     Gs1 
	BYTE	W06
	BYTE		N05   
	BYTE	W06
	BYTE		N11     Cn1 
	BYTE		N11     Gs1 
	BYTE	W12
	BYTE		N05   
	BYTE	W06
	BYTE		N05   
	BYTE	W06
	BYTE		N11     Cn1 
	BYTE		N11     Gs1 
	BYTE	W12
	BYTE		N05   
	BYTE	W06
	BYTE		N05   
	BYTE	W06
	BYTE		N11     Cn1 
	BYTE		N11     Gs1 
	BYTE	W12
	BYTE		N05   
	BYTE	W06
	BYTE		N05   
	BYTE	W06
// 001   ----------------------------------------
RangersSong_10_001:
	BYTE		N11     Cn1   v127
	BYTE		N11     Gs1 
	BYTE	W12
	BYTE		N05   
	BYTE	W06
	BYTE		N05   
	BYTE	W06
	BYTE		N11     Cn1 
	BYTE		N11     Gs1 
	BYTE	W12
	BYTE		N05   
	BYTE	W06
	BYTE		N05   
	BYTE	W06
	BYTE		N11     Cn1 
	BYTE		N11     Gs1 
	BYTE	W12
	BYTE		N05   
	BYTE	W06
	BYTE		N05   
	BYTE	W06
	BYTE		N11     Cn1 
	BYTE		N11     Gs1 
	BYTE	W12
	BYTE		N05   
	BYTE	W06
	BYTE		N05   
	BYTE	W06
	BYTE	PEND
// 002   ----------------------------------------
	BYTE	PATT
	 POIN2	RangersSong_10_001
// 003   ----------------------------------------
	BYTE	PATT
	 POIN2	RangersSong_10_001
// 004   ----------------------------------------
	BYTE	PATT
	 POIN2	RangersSong_10_001
// 005   ----------------------------------------
	BYTE	PATT
	 POIN2	RangersSong_10_001
// 006   ----------------------------------------
	BYTE	PATT
	 POIN2	RangersSong_10_001
// 007   ----------------------------------------
	BYTE	PATT
	 POIN2	RangersSong_10_001
// 008   ----------------------------------------
	BYTE	PATT
	 POIN2	RangersSong_10_001
// 009   ----------------------------------------
	BYTE		N11     Cn1   v127
	BYTE		N11     Gs1 
	BYTE	W12
	BYTE		N05   
	BYTE	W06
	BYTE		N05   
	BYTE	W06
	BYTE		N11     Cn1 
	BYTE		N11     Gs1 
	BYTE	W12
	BYTE		N05   
	BYTE	W06
	BYTE		N05   
	BYTE	W06
	BYTE		N11     Cn1 
	BYTE		N11     Gs1 
	BYTE		N11     Cn2 
	BYTE	W12
	BYTE		N05     Gs1 
	BYTE		N05     Bn1 
	BYTE	W06
	BYTE		        Gs1 
	BYTE	W06
	BYTE		N11     Cn1 
	BYTE		N11     Gs1 
	BYTE		N11     An1 
	BYTE	W12
	BYTE		N05     En1 
	BYTE		N05     Gs1 
	BYTE		N05     An1 
	BYTE	W06
	BYTE		        En1 
	BYTE		N05     Gs1 
	BYTE		N05     An1 
	BYTE	W06
// 010   ----------------------------------------
RangersSong_10_010:
	BYTE		N11     Cn1   v127
	BYTE		N11     Gs1 
	BYTE	W12
	BYTE		N05   
	BYTE	W06
	BYTE		N05   
	BYTE	W06
	BYTE		N11     Cn1 
	BYTE		N11     En1 
	BYTE		N11     Gs1 
	BYTE	W12
	BYTE		N05   
	BYTE	W06
	BYTE		N05   
	BYTE	W06
	BYTE		N11     Cn1 
	BYTE		N11     Gs1 
	BYTE	W12
	BYTE		N05   
	BYTE	W06
	BYTE		N05   
	BYTE	W06
	BYTE		N11     Cn1 
	BYTE		N11     En1 
	BYTE		N11     Gs1 
	BYTE	W12
	BYTE		N05   
	BYTE	W06
	BYTE		N05   
	BYTE	W06
	BYTE	PEND
// 011   ----------------------------------------
	BYTE	PATT
	 POIN2	RangersSong_10_010
// 012   ----------------------------------------
	BYTE	PATT
	 POIN2	RangersSong_10_010
// 013   ----------------------------------------
	BYTE	PATT
	 POIN2	RangersSong_10_010
// 014   ----------------------------------------
	BYTE	PATT
	 POIN2	RangersSong_10_010
// 015   ----------------------------------------
	BYTE	PATT
	 POIN2	RangersSong_10_010
// 016   ----------------------------------------
	BYTE	PATT
	 POIN2	RangersSong_10_010
// 017   ----------------------------------------
	BYTE	PATT
	 POIN2	RangersSong_10_010
// 018   ----------------------------------------
	BYTE	PATT
	 POIN2	RangersSong_10_010
// 019   ----------------------------------------
	BYTE	PATT
	 POIN2	RangersSong_10_010
// 020   ----------------------------------------
	BYTE	PATT
	 POIN2	RangersSong_10_010
// 021   ----------------------------------------
	BYTE	PATT
	 POIN2	RangersSong_10_010
// 022   ----------------------------------------
	BYTE	PATT
	 POIN2	RangersSong_10_010
// 023   ----------------------------------------
	BYTE	PATT
	 POIN2	RangersSong_10_010
// 024   ----------------------------------------
	BYTE	PATT
	 POIN2	RangersSong_10_010
// 025   ----------------------------------------
	BYTE	PATT
	 POIN2	RangersSong_10_010
// 026   ----------------------------------------
	BYTE	PATT
	 POIN2	RangersSong_10_010
// 027   ----------------------------------------
	BYTE		N11     Cn1   v127
	BYTE		N11     Gs1 
	BYTE	W12
	BYTE		N05   
	BYTE	W06
	BYTE		N05   
	BYTE	W06
	BYTE		N11     Cn1 
	BYTE		N11     En1 
	BYTE		N11     Gs1 
	BYTE	W12
	BYTE		N05   
	BYTE	W06
	BYTE		N05   
	BYTE	W06
	BYTE		N11     Cn1 
	BYTE		N11     Gs1 
	BYTE		N11     Cn2 
	BYTE	W12
	BYTE		N05     Gs1 
	BYTE		N05     Bn1 
	BYTE	W06
	BYTE		        Gs1 
	BYTE	W06
	BYTE		N11     Cn1 
	BYTE		N11     En1 
	BYTE		N11     Gs1 
	BYTE		N11     An1 
	BYTE	W12
	BYTE		N05     En1 
	BYTE		N05     Gs1 
	BYTE		N05     An1 
	BYTE	W06
	BYTE		        En1 
	BYTE		N05     Gs1 
	BYTE		N05     An1 
	BYTE	W05
	BYTE	GoTo
	 POIN2	RangersSong_10_B1
RangersSong_10_B2:
	BYTE	FINE

//******************************************************//
	ALIGN 4

RangersSong:
	BYTE	10	// NumTrks
	BYTE	0	// NumBlks
	BYTE	RangersSong_pri	// Priority
	BYTE	RangersSong_rev	// Reverb.

	POIN2	RangersSong_grp

	POIN2	RangersSong_1
	POIN2	RangersSong_2
	POIN2	RangersSong_3
	POIN2	RangersSong_4
	POIN2	RangersSong_5
	POIN2	RangersSong_6
	POIN2	RangersSong_7
	POIN2	RangersSong_8
	POIN2	RangersSong_9
	POIN2	RangersSong_10

	
