//Event file generated from Sappy .s format.
	#include "MPlayDef.event"

	#define	WarmthOfANewAge_grp  voicegroup000
	#define	WarmthOfANewAge_pri  0
	#define	WarmthOfANewAge_rev  0xC0
	#define	WarmthOfANewAge_mvl  27
	#define	WarmthOfANewAge_key  0
	#define	WarmthOfANewAge_tbs  1
	#define	WarmthOfANewAge_exg  0
	#define	WarmthOfANewAge_cmp  1

	// .rodata
	//	WarmthOfANewAge
	ALIGN 4

//**************** Track 1 (Midi-Chn.1) ****************//

WarmthOfANewAge_1:
	BYTE	KEYSH   WarmthOfANewAge_key+0
// 000   ----------------------------------------
	BYTE	TEMPO   95*WarmthOfANewAge_tbs/2
	BYTE		VOICE   0
	BYTE		MODT    0
	BYTE		LFOS    44
	BYTE		PAN     c_v-17
	BYTE		VOL     127*WarmthOfANewAge_mvl/mxv
	BYTE	W96
// 001   ----------------------------------------
	BYTE	W96
// 002   ----------------------------------------
	BYTE	W96
// 003   ----------------------------------------
	BYTE	W96
// 004   ----------------------------------------
	BYTE	W96
// 005   ----------------------------------------
	BYTE	W96
// 006   ----------------------------------------
	BYTE	W96
// 007   ----------------------------------------
	BYTE	W96
// 008   ----------------------------------------
	BYTE	W96
// 009   ----------------------------------------
	BYTE	W48
	BYTE		N20     Dn4   v127
	BYTE	W24
	BYTE		        En4 
	BYTE	W24
// 010   ----------------------------------------
WarmthOfANewAge_1_010:
	BYTE		N32     Fn4   v127
	BYTE	W36
	BYTE		N11     Gn4 
	BYTE	W12
	BYTE		N15     En4 
	BYTE	W16
	BYTE		        Dn4 
	BYTE	W16
	BYTE		        En4 
	BYTE	W16
	BYTE	PEND
// 011   ----------------------------------------
WarmthOfANewAge_1_011:
	BYTE		N42     Dn4   v127
	BYTE	W48
	BYTE		N20     Gn3 
	BYTE	W24
	BYTE		        An3 
	BYTE	W24
	BYTE	PEND
// 012   ----------------------------------------
WarmthOfANewAge_1_012:
	BYTE		N32     Bn3   v127
	BYTE	W36
	BYTE		N11     An3 
	BYTE	W12
	BYTE		N15     Bn3 
	BYTE	W16
	BYTE		        Cn4 
	BYTE	W16
	BYTE		        Dn4 
	BYTE	W16
	BYTE	PEND
// 013   ----------------------------------------
WarmthOfANewAge_1_013:
	BYTE		N42     An3   v127
	BYTE	W48
	BYTE		N20     En4 
	BYTE	W24
	BYTE		        Fs4 
	BYTE	W24
	BYTE	PEND
// 014   ----------------------------------------
WarmthOfANewAge_1_014:
	BYTE		N32     Gn4   v127
	BYTE	W36
	BYTE		N11     En4 
	BYTE	W12
	BYTE		N15     Fs4 
	BYTE	W16
	BYTE		        Gn4 
	BYTE	W16
	BYTE		        An4 
	BYTE	W16
	BYTE	PEND
// 015   ----------------------------------------
WarmthOfANewAge_1_015:
	BYTE		N42     Bn4   v127
	BYTE	W48
	BYTE		N20   
	BYTE	W24
	BYTE		        An4 
	BYTE	W24
	BYTE	PEND
// 016   ----------------------------------------
WarmthOfANewAge_1_016:
	BYTE		N15     Gn4   v127
	BYTE	W16
	BYTE		        An4 
	BYTE	W16
	BYTE		        Bn4 
	BYTE	W16
	BYTE		N20     Dn5 
	BYTE	W24
	BYTE		        En5 
	BYTE	W24
	BYTE	PEND
// 017   ----------------------------------------
WarmthOfANewAge_1_017:
	BYTE		N11     Dn5   v127
	BYTE	W12
	BYTE		N20     An4 
	BYTE	W24
	BYTE		N11     Fs4 
	BYTE	W12
	BYTE		N20     Dn4 
	BYTE	W24
	BYTE		        En4 
	BYTE	W24
	BYTE	PEND
// 018   ----------------------------------------
	BYTE	PATT
	 POIN2	WarmthOfANewAge_1_010
// 019   ----------------------------------------
	BYTE	PATT
	 POIN2	WarmthOfANewAge_1_011
// 020   ----------------------------------------
	BYTE	PATT
	 POIN2	WarmthOfANewAge_1_012
// 021   ----------------------------------------
	BYTE	PATT
	 POIN2	WarmthOfANewAge_1_013
// 022   ----------------------------------------
	BYTE	PATT
	 POIN2	WarmthOfANewAge_1_014
// 023   ----------------------------------------
	BYTE	PATT
	 POIN2	WarmthOfANewAge_1_015
// 024   ----------------------------------------
	BYTE	PATT
	 POIN2	WarmthOfANewAge_1_016
// 025   ----------------------------------------
WarmthOfANewAge_1_025:
	BYTE		N11     Dn5   v127
	BYTE	W12
	BYTE		N20     An4 
	BYTE	W24
	BYTE		N11     Fs4 
	BYTE	W12
	BYTE		N20     Bn4 
	BYTE	W24
	BYTE		        An4 
	BYTE	W24
	BYTE	PEND
// 026   ----------------------------------------
WarmthOfANewAge_1_026:
	BYTE		N32     Gn4   v127
	BYTE	W36
	BYTE		N11     En4 
	BYTE	W12
	BYTE		N15     Gn4 
	BYTE	W16
	BYTE		        An4 
	BYTE	W16
	BYTE		        Bn4 
	BYTE	W16
	BYTE	PEND
// 027   ----------------------------------------
WarmthOfANewAge_1_027:
	BYTE		N42     An4   v127
	BYTE	W48
	BYTE		N20     Bn4 
	BYTE	W24
	BYTE		        Cn5 
	BYTE	W24
	BYTE	PEND
// 028   ----------------------------------------
WarmthOfANewAge_1_028:
	BYTE		N32     Bn4   v127
	BYTE	W36
	BYTE		N11     Gn4 
	BYTE	W12
	BYTE		N15     An4 
	BYTE	W16
	BYTE		        Gn4 
	BYTE	W16
	BYTE		        An4 
	BYTE	W16
	BYTE	PEND
// 029   ----------------------------------------
	BYTE	PATT
	 POIN2	WarmthOfANewAge_1_015
// 030   ----------------------------------------
	BYTE	PATT
	 POIN2	WarmthOfANewAge_1_026
// 031   ----------------------------------------
WarmthOfANewAge_1_031:
	BYTE		N42     An4   v127
	BYTE	W48
	BYTE		N20     Gn4 
	BYTE	W24
	BYTE		        Fs4 
	BYTE	W24
	BYTE	PEND
// 032   ----------------------------------------
	BYTE		TIE     Gn4 
	BYTE	W96
// 033   ----------------------------------------
	BYTE	W42
	BYTE		EOT   
	BYTE	W06
	BYTE		N20     Dn4 
	BYTE	W24
	BYTE		        En4 
	BYTE	W24
// 034   ----------------------------------------
	BYTE	PATT
	 POIN2	WarmthOfANewAge_1_010
// 035   ----------------------------------------
	BYTE	PATT
	 POIN2	WarmthOfANewAge_1_011
// 036   ----------------------------------------
	BYTE	PATT
	 POIN2	WarmthOfANewAge_1_012
// 037   ----------------------------------------
	BYTE	PATT
	 POIN2	WarmthOfANewAge_1_013
// 038   ----------------------------------------
	BYTE	PATT
	 POIN2	WarmthOfANewAge_1_014
// 039   ----------------------------------------
	BYTE	PATT
	 POIN2	WarmthOfANewAge_1_015
// 040   ----------------------------------------
	BYTE	PATT
	 POIN2	WarmthOfANewAge_1_016
// 041   ----------------------------------------
	BYTE	PATT
	 POIN2	WarmthOfANewAge_1_017
// 042   ----------------------------------------
	BYTE	PATT
	 POIN2	WarmthOfANewAge_1_010
// 043   ----------------------------------------
	BYTE	PATT
	 POIN2	WarmthOfANewAge_1_011
// 044   ----------------------------------------
	BYTE	PATT
	 POIN2	WarmthOfANewAge_1_012
// 045   ----------------------------------------
	BYTE	PATT
	 POIN2	WarmthOfANewAge_1_013
// 046   ----------------------------------------
	BYTE	PATT
	 POIN2	WarmthOfANewAge_1_014
// 047   ----------------------------------------
	BYTE	PATT
	 POIN2	WarmthOfANewAge_1_015
// 048   ----------------------------------------
	BYTE	PATT
	 POIN2	WarmthOfANewAge_1_016
// 049   ----------------------------------------
	BYTE	PATT
	 POIN2	WarmthOfANewAge_1_025
// 050   ----------------------------------------
	BYTE	PATT
	 POIN2	WarmthOfANewAge_1_026
// 051   ----------------------------------------
	BYTE	PATT
	 POIN2	WarmthOfANewAge_1_027
// 052   ----------------------------------------
	BYTE	PATT
	 POIN2	WarmthOfANewAge_1_028
// 053   ----------------------------------------
	BYTE	PATT
	 POIN2	WarmthOfANewAge_1_015
// 054   ----------------------------------------
	BYTE	PATT
	 POIN2	WarmthOfANewAge_1_026
// 055   ----------------------------------------
	BYTE	PATT
	 POIN2	WarmthOfANewAge_1_031
// 056   ----------------------------------------
	BYTE		TIE     Gn4   v127
	BYTE	W96
// 057   ----------------------------------------
	BYTE	W90
	BYTE		EOT   
	BYTE	W06
// 058   ----------------------------------------
	BYTE	W96
// 059   ----------------------------------------
	BYTE	W96
// 060   ----------------------------------------
	BYTE	W96
// 061   ----------------------------------------
	BYTE	W96
// 062   ----------------------------------------
	BYTE	W96
// 063   ----------------------------------------
	BYTE	W96
// 064   ----------------------------------------
	BYTE	W96
// 065   ----------------------------------------
	BYTE	W48
	BYTE		N20     Bn4 
	BYTE	W24
	BYTE		        An4 
	BYTE	W24
// 066   ----------------------------------------
	BYTE	PATT
	 POIN2	WarmthOfANewAge_1_026
// 067   ----------------------------------------
	BYTE	PATT
	 POIN2	WarmthOfANewAge_1_027
// 068   ----------------------------------------
	BYTE	PATT
	 POIN2	WarmthOfANewAge_1_028
// 069   ----------------------------------------
	BYTE	PATT
	 POIN2	WarmthOfANewAge_1_015
// 070   ----------------------------------------
	BYTE	PATT
	 POIN2	WarmthOfANewAge_1_026
// 071   ----------------------------------------
	BYTE	PATT
	 POIN2	WarmthOfANewAge_1_031
// 072   ----------------------------------------
	BYTE		TIE     Gn4   v127
	BYTE	W96
// 073   ----------------------------------------
	BYTE	W42
	BYTE		EOT   
	BYTE	W06
	BYTE		N20     Bn4 
	BYTE	W24
	BYTE		        An4 
	BYTE	W24
// 074   ----------------------------------------
	BYTE	PATT
	 POIN2	WarmthOfANewAge_1_026
// 075   ----------------------------------------
	BYTE	PATT
	 POIN2	WarmthOfANewAge_1_027
// 076   ----------------------------------------
	BYTE	PATT
	 POIN2	WarmthOfANewAge_1_028
// 077   ----------------------------------------
	BYTE	PATT
	 POIN2	WarmthOfANewAge_1_015
// 078   ----------------------------------------
	BYTE	PATT
	 POIN2	WarmthOfANewAge_1_026
// 079   ----------------------------------------
	BYTE	PATT
	 POIN2	WarmthOfANewAge_1_031
// 080   ----------------------------------------
	BYTE		TIE     Gn4   v127
	BYTE	W96
// 081   ----------------------------------------
	BYTE	W42
	BYTE		EOT   
	BYTE	W06
	BYTE		N20     Bn4 
	BYTE	W24
	BYTE		        An4 
	BYTE	W24
// 082   ----------------------------------------
	BYTE		N32     Gn4 
	BYTE	W36
	BYTE		N11     En4   v120
	BYTE	W12
	BYTE		N15     Gn4 
	BYTE	W16
	BYTE		        An4   v116
	BYTE	W16
	BYTE		        Bn4   v112
	BYTE	W16
// 083   ----------------------------------------
	BYTE		N42     An4   v108
	BYTE	W48
	BYTE		N20     Bn4   v100
	BYTE	W24
	BYTE		        Cn5   v092
	BYTE	W24
// 084   ----------------------------------------
	BYTE		N32     Bn4   v088
	BYTE	W36
	BYTE		N11     Gn4   v084
	BYTE	W12
	BYTE		N15     An4   v080
	BYTE	W16
	BYTE		        Gn4 
	BYTE	W16
	BYTE		        An4   v076
	BYTE	W16
// 085   ----------------------------------------
	BYTE		N42     Bn4   v072
	BYTE	W48
	BYTE		N20     Bn4   v064
	BYTE	W24
	BYTE		        An4   v056
	BYTE	W24
// 086   ----------------------------------------
	BYTE		N32     Gn4   v052
	BYTE	W36
	BYTE		N11     En4   v048
	BYTE	W12
	BYTE		N15     Gn4   v044
	BYTE	W16
	BYTE		        An4 
	BYTE	W16
	BYTE		        Bn4   v040
	BYTE	W16
// 087   ----------------------------------------
	BYTE		N42     An4 
	BYTE	W48
	BYTE		N20     Gn4   v032
	BYTE	W24
	BYTE		        Fs4   v028
	BYTE	W24
// 088   ----------------------------------------
	BYTE		TIE     Gn4   v024
	BYTE	W96
// 089   ----------------------------------------
	BYTE	W90
	BYTE		EOT   
	BYTE	FINE

//**************** Track 2 (Midi-Chn.6) ****************//

WarmthOfANewAge_2:
	BYTE	KEYSH   WarmthOfANewAge_key+0
// 000   ----------------------------------------
	BYTE		VOICE   33
	BYTE		MODT    0
	BYTE		LFOS    44
	BYTE		PAN     c_v-11
	BYTE		VOL     127*WarmthOfANewAge_mvl/mxv
	BYTE	W96
// 001   ----------------------------------------
	BYTE	W96
// 002   ----------------------------------------
WarmthOfANewAge_2_002:
	BYTE		N11     Gn1   v127
	BYTE	W12
	BYTE		N11   
	BYTE	W12
	BYTE		N11   
	BYTE	W12
	BYTE		N11   
	BYTE	W12
	BYTE		N11   
	BYTE	W12
	BYTE		N11   
	BYTE	W12
	BYTE		N11   
	BYTE	W12
	BYTE		N11   
	BYTE	W12
	BYTE	PEND
// 003   ----------------------------------------
	BYTE	PATT
	 POIN2	WarmthOfANewAge_2_002
// 004   ----------------------------------------
	BYTE	PATT
	 POIN2	WarmthOfANewAge_2_002
// 005   ----------------------------------------
WarmthOfANewAge_2_005:
	BYTE		N11     An1   v127
	BYTE	W12
	BYTE		N11   
	BYTE	W12
	BYTE		N11   
	BYTE	W12
	BYTE		N11   
	BYTE	W12
	BYTE		N11   
	BYTE	W12
	BYTE		N11   
	BYTE	W12
	BYTE		N11   
	BYTE	W12
	BYTE		N11   
	BYTE	W12
	BYTE	PEND
// 006   ----------------------------------------
	BYTE	PATT
	 POIN2	WarmthOfANewAge_2_002
// 007   ----------------------------------------
	BYTE	PATT
	 POIN2	WarmthOfANewAge_2_002
// 008   ----------------------------------------
	BYTE	PATT
	 POIN2	WarmthOfANewAge_2_002
// 009   ----------------------------------------
WarmthOfANewAge_2_009:
	BYTE		N11     An1   v127
	BYTE	W12
	BYTE		N11   
	BYTE	W12
	BYTE		N11   
	BYTE	W12
	BYTE		N11   
	BYTE	W12
	BYTE		N11   
	BYTE	W12
	BYTE		N11   
	BYTE	W12
	BYTE		N05     Gn1 
	BYTE	W06
	BYTE		        An1 
	BYTE	W06
	BYTE		        Bn1 
	BYTE	W06
	BYTE		        Gn1 
	BYTE	W06
	BYTE	PEND
// 010   ----------------------------------------
WarmthOfANewAge_2_010:
	BYTE		N11     An1   v127
	BYTE	W12
	BYTE		N11   
	BYTE	W12
	BYTE		N05   
	BYTE	W06
	BYTE		        Fn1 
	BYTE	W06
	BYTE		        Cn1 
	BYTE	W06
	BYTE		        Fn1 
	BYTE	W18
	BYTE		N11     An1 
	BYTE	W12
	BYTE		        Gn1 
	BYTE	W12
	BYTE		        En1 
	BYTE	W12
	BYTE	PEND
// 011   ----------------------------------------
WarmthOfANewAge_2_011:
	BYTE		N11     Gn1   v127
	BYTE	W12
	BYTE		N11   
	BYTE	W12
	BYTE		N05   
	BYTE	W06
	BYTE		        Dn1 
	BYTE	W06
	BYTE		        En1 
	BYTE	W06
	BYTE		        Gn1 
	BYTE	W18
	BYTE		N11   
	BYTE	W12
	BYTE		        Dn1 
	BYTE	W12
	BYTE		        Gn1 
	BYTE	W12
	BYTE	PEND
// 012   ----------------------------------------
WarmthOfANewAge_2_012:
	BYTE		N11     Gn1   v127
	BYTE	W12
	BYTE		N11   
	BYTE	W12
	BYTE		N05   
	BYTE	W06
	BYTE		        Fs1 
	BYTE	W06
	BYTE		        En1 
	BYTE	W06
	BYTE		        Gn1 
	BYTE	W18
	BYTE		N11   
	BYTE	W12
	BYTE		        En1 
	BYTE	W12
	BYTE		        Gn1 
	BYTE	W12
	BYTE	PEND
// 013   ----------------------------------------
WarmthOfANewAge_2_013:
	BYTE		N11     Fs1   v127
	BYTE	W12
	BYTE		N11   
	BYTE	W12
	BYTE		N05   
	BYTE	W06
	BYTE		        En1 
	BYTE	W06
	BYTE		        Fs1 
	BYTE	W06
	BYTE		        Gn1 
	BYTE	W06
	BYTE		N11     An1 
	BYTE	W12
	BYTE		        Fs1 
	BYTE	W12
	BYTE		        En1 
	BYTE	W12
	BYTE		        Dn1 
	BYTE	W12
	BYTE	PEND
// 014   ----------------------------------------
WarmthOfANewAge_2_014:
	BYTE		N11     Cn2   v127
	BYTE	W12
	BYTE		N11   
	BYTE	W12
	BYTE		N05   
	BYTE	W06
	BYTE		        An1 
	BYTE	W06
	BYTE		        Gn1 
	BYTE	W06
	BYTE		        Cn2 
	BYTE	W18
	BYTE		N11   
	BYTE	W12
	BYTE		        Gn1 
	BYTE	W12
	BYTE		        En1 
	BYTE	W12
	BYTE	PEND
// 015   ----------------------------------------
WarmthOfANewAge_2_015:
	BYTE		N11     Gn1   v127
	BYTE	W12
	BYTE		N11   
	BYTE	W12
	BYTE		N05   
	BYTE	W06
	BYTE		        An1 
	BYTE	W06
	BYTE		        Bn1 
	BYTE	W06
	BYTE		        Gn1 
	BYTE	W18
	BYTE		N11     Bn1 
	BYTE	W12
	BYTE		        An1 
	BYTE	W12
	BYTE		        Gn1 
	BYTE	W12
	BYTE	PEND
// 016   ----------------------------------------
WarmthOfANewAge_2_016:
	BYTE		N11     En1   v127
	BYTE	W12
	BYTE		N11   
	BYTE	W12
	BYTE		N05   
	BYTE	W06
	BYTE		        Fs1 
	BYTE	W06
	BYTE		        Gn1 
	BYTE	W06
	BYTE		        En1 
	BYTE	W18
	BYTE		N11     Gn1 
	BYTE	W12
	BYTE		        Fs1 
	BYTE	W12
	BYTE		        En1 
	BYTE	W12
	BYTE	PEND
// 017   ----------------------------------------
WarmthOfANewAge_2_017:
	BYTE		N11     Fs1   v127
	BYTE	W12
	BYTE		N11   
	BYTE	W12
	BYTE		N05   
	BYTE	W06
	BYTE		        En1 
	BYTE	W06
	BYTE		        Dn1 
	BYTE	W06
	BYTE		        En1 
	BYTE	W06
	BYTE		N11     Fs1 
	BYTE	W12
	BYTE		N11   
	BYTE	W12
	BYTE		N05   
	BYTE	W06
	BYTE		        Gn1 
	BYTE	W06
	BYTE		        An1 
	BYTE	W06
	BYTE		        Gn1 
	BYTE	W06
	BYTE	PEND
// 018   ----------------------------------------
	BYTE	PATT
	 POIN2	WarmthOfANewAge_2_010
// 019   ----------------------------------------
	BYTE	PATT
	 POIN2	WarmthOfANewAge_2_011
// 020   ----------------------------------------
	BYTE	PATT
	 POIN2	WarmthOfANewAge_2_012
// 021   ----------------------------------------
	BYTE	PATT
	 POIN2	WarmthOfANewAge_2_013
// 022   ----------------------------------------
	BYTE	PATT
	 POIN2	WarmthOfANewAge_2_014
// 023   ----------------------------------------
	BYTE	PATT
	 POIN2	WarmthOfANewAge_2_015
// 024   ----------------------------------------
	BYTE	PATT
	 POIN2	WarmthOfANewAge_2_016
// 025   ----------------------------------------
	BYTE	PATT
	 POIN2	WarmthOfANewAge_2_017
// 026   ----------------------------------------
WarmthOfANewAge_2_026:
	BYTE		N11     Cn2   v127
	BYTE	W12
	BYTE		N11   
	BYTE	W12
	BYTE		N05   
	BYTE	W06
	BYTE		        Gn1 
	BYTE	W06
	BYTE		        En1 
	BYTE	W06
	BYTE		        Cn2 
	BYTE	W18
	BYTE		N11     Gn1 
	BYTE	W12
	BYTE		        Cn2 
	BYTE	W12
	BYTE		        En2 
	BYTE	W12
	BYTE	PEND
// 027   ----------------------------------------
WarmthOfANewAge_2_027:
	BYTE		N11     Dn2   v127
	BYTE	W12
	BYTE		N11   
	BYTE	W12
	BYTE		N05   
	BYTE	W06
	BYTE		        An1 
	BYTE	W06
	BYTE		        Fs1 
	BYTE	W06
	BYTE		        Dn2 
	BYTE	W18
	BYTE		N11     An1 
	BYTE	W12
	BYTE		        Dn2 
	BYTE	W12
	BYTE		        Fs2 
	BYTE	W12
	BYTE	PEND
// 028   ----------------------------------------
WarmthOfANewAge_2_028:
	BYTE		N11     En2   v127
	BYTE	W12
	BYTE		N11   
	BYTE	W12
	BYTE		N05   
	BYTE	W06
	BYTE		        Bn1 
	BYTE	W06
	BYTE		        Gn1 
	BYTE	W06
	BYTE		        En2 
	BYTE	W18
	BYTE		N11     Gn1 
	BYTE	W12
	BYTE		        Bn1 
	BYTE	W12
	BYTE		        En2 
	BYTE	W12
	BYTE	PEND
// 029   ----------------------------------------
WarmthOfANewAge_2_029:
	BYTE		N11     Fn2   v127
	BYTE	W12
	BYTE		N11   
	BYTE	W12
	BYTE		N05   
	BYTE	W06
	BYTE		        Cn2 
	BYTE	W06
	BYTE		        An1 
	BYTE	W06
	BYTE		        Fn2 
	BYTE	W06
	BYTE		N11   
	BYTE	W12
	BYTE		N11   
	BYTE	W12
	BYTE		N05   
	BYTE	W06
	BYTE		        Dn2 
	BYTE	W06
	BYTE		        Cn2 
	BYTE	W06
	BYTE		        Bn1 
	BYTE	W06
	BYTE	PEND
// 030   ----------------------------------------
	BYTE	PATT
	 POIN2	WarmthOfANewAge_2_026
// 031   ----------------------------------------
	BYTE	PATT
	 POIN2	WarmthOfANewAge_2_027
// 032   ----------------------------------------
WarmthOfANewAge_2_032:
	BYTE		N11     Fn2   v127
	BYTE	W12
	BYTE		N11   
	BYTE	W12
	BYTE		N05   
	BYTE	W06
	BYTE		        Cn2 
	BYTE	W06
	BYTE		        An1 
	BYTE	W06
	BYTE		        Fn2 
	BYTE	W06
	BYTE		N11     En2 
	BYTE	W12
	BYTE		N11   
	BYTE	W12
	BYTE		N05   
	BYTE	W06
	BYTE		        Dn2 
	BYTE	W06
	BYTE		        Cn2 
	BYTE	W06
	BYTE		        En2 
	BYTE	W06
	BYTE	PEND
// 033   ----------------------------------------
WarmthOfANewAge_2_033:
	BYTE		N11     Dn2   v127
	BYTE	W12
	BYTE		N11   
	BYTE	W12
	BYTE		N05   
	BYTE	W06
	BYTE		        Cn2 
	BYTE	W06
	BYTE		        Bn1 
	BYTE	W06
	BYTE		        An1 
	BYTE	W06
	BYTE		N11     Gn1 
	BYTE	W12
	BYTE		        Dn1 
	BYTE	W12
	BYTE		N20     Gn1 
	BYTE	W24
	BYTE	PEND
// 034   ----------------------------------------
	BYTE	PATT
	 POIN2	WarmthOfANewAge_2_010
// 035   ----------------------------------------
	BYTE	PATT
	 POIN2	WarmthOfANewAge_2_011
// 036   ----------------------------------------
	BYTE	PATT
	 POIN2	WarmthOfANewAge_2_012
// 037   ----------------------------------------
	BYTE	PATT
	 POIN2	WarmthOfANewAge_2_013
// 038   ----------------------------------------
	BYTE	PATT
	 POIN2	WarmthOfANewAge_2_014
// 039   ----------------------------------------
	BYTE	PATT
	 POIN2	WarmthOfANewAge_2_015
// 040   ----------------------------------------
	BYTE	PATT
	 POIN2	WarmthOfANewAge_2_016
// 041   ----------------------------------------
	BYTE	PATT
	 POIN2	WarmthOfANewAge_2_017
// 042   ----------------------------------------
	BYTE	PATT
	 POIN2	WarmthOfANewAge_2_010
// 043   ----------------------------------------
	BYTE	PATT
	 POIN2	WarmthOfANewAge_2_011
// 044   ----------------------------------------
	BYTE	PATT
	 POIN2	WarmthOfANewAge_2_012
// 045   ----------------------------------------
	BYTE	PATT
	 POIN2	WarmthOfANewAge_2_013
// 046   ----------------------------------------
	BYTE	PATT
	 POIN2	WarmthOfANewAge_2_014
// 047   ----------------------------------------
	BYTE	PATT
	 POIN2	WarmthOfANewAge_2_015
// 048   ----------------------------------------
	BYTE	PATT
	 POIN2	WarmthOfANewAge_2_016
// 049   ----------------------------------------
	BYTE	PATT
	 POIN2	WarmthOfANewAge_2_017
// 050   ----------------------------------------
	BYTE	PATT
	 POIN2	WarmthOfANewAge_2_026
// 051   ----------------------------------------
	BYTE	PATT
	 POIN2	WarmthOfANewAge_2_027
// 052   ----------------------------------------
	BYTE	PATT
	 POIN2	WarmthOfANewAge_2_028
// 053   ----------------------------------------
	BYTE	PATT
	 POIN2	WarmthOfANewAge_2_029
// 054   ----------------------------------------
	BYTE	PATT
	 POIN2	WarmthOfANewAge_2_026
// 055   ----------------------------------------
	BYTE	PATT
	 POIN2	WarmthOfANewAge_2_027
// 056   ----------------------------------------
	BYTE	PATT
	 POIN2	WarmthOfANewAge_2_032
// 057   ----------------------------------------
	BYTE	PATT
	 POIN2	WarmthOfANewAge_2_033
// 058   ----------------------------------------
	BYTE	PATT
	 POIN2	WarmthOfANewAge_2_002
// 059   ----------------------------------------
	BYTE	PATT
	 POIN2	WarmthOfANewAge_2_002
// 060   ----------------------------------------
	BYTE	PATT
	 POIN2	WarmthOfANewAge_2_002
// 061   ----------------------------------------
	BYTE	PATT
	 POIN2	WarmthOfANewAge_2_005
// 062   ----------------------------------------
	BYTE	PATT
	 POIN2	WarmthOfANewAge_2_002
// 063   ----------------------------------------
	BYTE	PATT
	 POIN2	WarmthOfANewAge_2_002
// 064   ----------------------------------------
	BYTE	PATT
	 POIN2	WarmthOfANewAge_2_002
// 065   ----------------------------------------
	BYTE	PATT
	 POIN2	WarmthOfANewAge_2_009
// 066   ----------------------------------------
	BYTE	PATT
	 POIN2	WarmthOfANewAge_2_026
// 067   ----------------------------------------
	BYTE	PATT
	 POIN2	WarmthOfANewAge_2_027
// 068   ----------------------------------------
	BYTE	PATT
	 POIN2	WarmthOfANewAge_2_028
// 069   ----------------------------------------
	BYTE	PATT
	 POIN2	WarmthOfANewAge_2_029
// 070   ----------------------------------------
	BYTE	PATT
	 POIN2	WarmthOfANewAge_2_026
// 071   ----------------------------------------
	BYTE	PATT
	 POIN2	WarmthOfANewAge_2_027
// 072   ----------------------------------------
	BYTE	PATT
	 POIN2	WarmthOfANewAge_2_032
// 073   ----------------------------------------
	BYTE	PATT
	 POIN2	WarmthOfANewAge_2_033
// 074   ----------------------------------------
	BYTE	PATT
	 POIN2	WarmthOfANewAge_2_026
// 075   ----------------------------------------
	BYTE	PATT
	 POIN2	WarmthOfANewAge_2_027
// 076   ----------------------------------------
	BYTE	PATT
	 POIN2	WarmthOfANewAge_2_028
// 077   ----------------------------------------
	BYTE	PATT
	 POIN2	WarmthOfANewAge_2_029
// 078   ----------------------------------------
	BYTE	PATT
	 POIN2	WarmthOfANewAge_2_026
// 079   ----------------------------------------
	BYTE	PATT
	 POIN2	WarmthOfANewAge_2_027
// 080   ----------------------------------------
	BYTE	PATT
	 POIN2	WarmthOfANewAge_2_032
// 081   ----------------------------------------
	BYTE	PATT
	 POIN2	WarmthOfANewAge_2_033
// 082   ----------------------------------------
	BYTE		N11     Cn2   v127
	BYTE	W12
	BYTE		N11   
	BYTE	W12
	BYTE		N05     Cn2   v124
	BYTE	W06
	BYTE		        Gn1 
	BYTE	W06
	BYTE		        En1 
	BYTE	W06
	BYTE		        Cn2 
	BYTE	W18
	BYTE		N11     Gn1 
	BYTE	W12
	BYTE		        Cn2   v120
	BYTE	W12
	BYTE		        En2 
	BYTE	W12
// 083   ----------------------------------------
	BYTE		        Dn2 
	BYTE	W12
	BYTE		        Dn2   v116
	BYTE	W12
	BYTE		N05   
	BYTE	W06
	BYTE		        An1   v112
	BYTE	W06
	BYTE		        Fs1 
	BYTE	W06
	BYTE		        Dn2 
	BYTE	W18
	BYTE		N11     An1   v108
	BYTE	W12
	BYTE		        Dn2   v104
	BYTE	W12
	BYTE		        Fs2   v100
	BYTE	W12
// 084   ----------------------------------------
	BYTE		        En2   v096
	BYTE	W12
	BYTE		        En2   v092
	BYTE	W12
	BYTE		N05   
	BYTE	W06
	BYTE		        Bn1   v088
	BYTE	W06
	BYTE		        Gn1 
	BYTE	W06
	BYTE		        En2 
	BYTE	W18
	BYTE		N11     Gn1   v084
	BYTE	W12
	BYTE		        Bn1   v080
	BYTE	W12
	BYTE		        En2   v076
	BYTE	W12
// 085   ----------------------------------------
	BYTE		        Fn2 
	BYTE	W12
	BYTE		        Fn2   v072
	BYTE	W12
	BYTE		N05     Fn2   v068
	BYTE	W06
	BYTE		        Cn2 
	BYTE	W06
	BYTE		        An1 
	BYTE	W06
	BYTE		        Fn2   v064
	BYTE	W06
	BYTE		N11   
	BYTE	W12
	BYTE		        Fn2   v060
	BYTE	W12
	BYTE		N05   
	BYTE	W06
	BYTE		        Dn2   v056
	BYTE	W06
	BYTE		        Cn2 
	BYTE	W06
	BYTE		        Bn1 
	BYTE	W06
// 086   ----------------------------------------
	BYTE		N11     Cn2 
	BYTE	W12
	BYTE		        Cn2   v052
	BYTE	W12
	BYTE		N05     Cn2   v048
	BYTE	W06
	BYTE		        Gn1 
	BYTE	W06
	BYTE		        En1 
	BYTE	W06
	BYTE		        Cn2 
	BYTE	W18
	BYTE		N11     Gn1   v044
	BYTE	W12
	BYTE		        Cn2   v040
	BYTE	W12
	BYTE		        En2 
	BYTE	W12
// 087   ----------------------------------------
	BYTE		        Dn2   v036
	BYTE	W12
	BYTE		N11   
	BYTE	W12
	BYTE		N05     Dn2   v032
	BYTE	W06
	BYTE		        An1 
	BYTE	W06
	BYTE		        Fs1 
	BYTE	W06
	BYTE		        Dn2 
	BYTE	W18
	BYTE		N11     An1   v028
	BYTE	W12
	BYTE		        Dn2   v024
	BYTE	W12
	BYTE		        Fs2 
	BYTE	W12
// 088   ----------------------------------------
	BYTE		        Fn2 
	BYTE	W12
	BYTE		        Fn2   v020
	BYTE	W12
	BYTE		N05   
	BYTE	W06
	BYTE		        Cn2 
	BYTE	W06
	BYTE		        An1   v016
	BYTE	W06
	BYTE		        Fn2 
	BYTE	W06
	BYTE		N11     En2 
	BYTE	W12
	BYTE		N11   
	BYTE	W12
	BYTE		N05     En2   v012
	BYTE	W06
	BYTE		        Dn2 
	BYTE	W06
	BYTE		        Cn2 
	BYTE	W06
	BYTE		        En2 
	BYTE	W06
// 089   ----------------------------------------
	BYTE		N11     Dn2 
	BYTE	W12
	BYTE		        Dn2   v008
	BYTE	W12
	BYTE		N05   
	BYTE	W06
	BYTE		        Cn2 
	BYTE	W06
	BYTE		        Bn1 
	BYTE	W06
	BYTE		        An1 
	BYTE	W06
	BYTE		N11     Gn1 
	BYTE	W12
	BYTE		        Dn1   v004
	BYTE	W12
	BYTE		N20     Gn1 
	BYTE	W20
	BYTE	FINE

//**************** Track 3 (Midi-Chn.4) ****************//

WarmthOfANewAge_3:
	BYTE	KEYSH   WarmthOfANewAge_key+0
// 000   ----------------------------------------
	BYTE		VOICE   50
	BYTE		MODT    0
	BYTE		LFOS    44
	BYTE		PAN     c_v-7
	BYTE		VOL     127*WarmthOfANewAge_mvl/mxv
	BYTE	W96
// 001   ----------------------------------------
	BYTE	W96
// 002   ----------------------------------------
	BYTE	W96
// 003   ----------------------------------------
	BYTE	W96
// 004   ----------------------------------------
	BYTE	W96
// 005   ----------------------------------------
	BYTE	W96
// 006   ----------------------------------------
WarmthOfANewAge_3_006:
	BYTE		TIE     Gn2   v100
	BYTE		TIE     Bn2 
	BYTE		TIE     Dn3 
	BYTE		TIE     Gn3 
	BYTE	W96
	BYTE	PEND
// 007   ----------------------------------------
	BYTE	W90
	BYTE		EOT     Gn2 
	BYTE		        Bn2 
	BYTE		        Dn3 
	BYTE		        Gn3 
	BYTE	W06
// 008   ----------------------------------------
WarmthOfANewAge_3_008:
	BYTE		N90     An2   v100
	BYTE		N90     Cn3 
	BYTE		N90     En3 
	BYTE		N90     Gn3 
	BYTE	W96
	BYTE	PEND
// 009   ----------------------------------------
WarmthOfANewAge_3_009:
	BYTE		N90     An2   v100
	BYTE		N90     Dn3 
	BYTE		N90     Fs3 
	BYTE		N90     Gn3 
	BYTE	W96
	BYTE	PEND
// 010   ----------------------------------------
WarmthOfANewAge_3_010:
	BYTE		N04     Cn3   v100
	BYTE		N04     Fn3 
	BYTE		N04     An3 
	BYTE	W12
	BYTE		        Cn3 
	BYTE		N04     Fn3 
	BYTE		N04     An3 
	BYTE	W12
	BYTE		        Cn3 
	BYTE		N04     Fn3 
	BYTE		N04     An3 
	BYTE	W12
	BYTE		        Cn3 
	BYTE		N04     Fn3 
	BYTE		N04     An3 
	BYTE	W12
	BYTE		        Cn3 
	BYTE		N04     En3 
	BYTE		N04     An3 
	BYTE	W12
	BYTE		        Cn3 
	BYTE		N04     En3 
	BYTE		N04     An3 
	BYTE	W12
	BYTE		        Cn3 
	BYTE		N04     En3 
	BYTE		N04     An3 
	BYTE	W12
	BYTE		        Cn3 
	BYTE		N04     En3 
	BYTE		N04     An3 
	BYTE	W12
	BYTE	PEND
// 011   ----------------------------------------
WarmthOfANewAge_3_011:
	BYTE		N04     Bn2   v100
	BYTE		N04     Dn3 
	BYTE		N04     Gn3 
	BYTE	W12
	BYTE		        Bn2 
	BYTE		N04     Dn3 
	BYTE		N04     Gn3 
	BYTE	W12
	BYTE		        Bn2 
	BYTE		N04     Dn3 
	BYTE		N04     Gn3 
	BYTE	W12
	BYTE		        Bn2 
	BYTE		N04     Dn3 
	BYTE		N04     Gn3 
	BYTE	W12
	BYTE		        Bn2 
	BYTE		N04     Dn3 
	BYTE		N04     Gn3 
	BYTE	W12
	BYTE		        Bn2 
	BYTE		N04     Dn3 
	BYTE		N04     Gn3 
	BYTE	W12
	BYTE		        Bn2 
	BYTE		N04     Dn3 
	BYTE		N04     Gn3 
	BYTE	W12
	BYTE		        Bn2 
	BYTE		N04     Dn3 
	BYTE		N04     Gn3 
	BYTE	W12
	BYTE	PEND
// 012   ----------------------------------------
WarmthOfANewAge_3_012:
	BYTE		N04     Bn2   v100
	BYTE		N04     En3 
	BYTE		N04     Gn3 
	BYTE	W12
	BYTE		        Bn2 
	BYTE		N04     En3 
	BYTE		N04     Gn3 
	BYTE	W12
	BYTE		        Bn2 
	BYTE		N04     En3 
	BYTE		N04     Gn3 
	BYTE	W12
	BYTE		        Bn2 
	BYTE		N04     En3 
	BYTE		N04     Gn3 
	BYTE	W12
	BYTE		        Bn2 
	BYTE		N04     En3 
	BYTE		N04     Gn3 
	BYTE	W12
	BYTE		        Bn2 
	BYTE		N04     En3 
	BYTE		N04     Gn3 
	BYTE	W12
	BYTE		        Bn2 
	BYTE		N04     En3 
	BYTE		N04     Gn3 
	BYTE	W12
	BYTE		        Bn2 
	BYTE		N04     En3 
	BYTE		N04     Gn3 
	BYTE	W12
	BYTE	PEND
// 013   ----------------------------------------
WarmthOfANewAge_3_013:
	BYTE		N04     Bn2   v100
	BYTE		N04     Dn3 
	BYTE		N04     Fs3 
	BYTE	W12
	BYTE		        Bn2 
	BYTE		N04     Dn3 
	BYTE		N04     Fs3 
	BYTE	W12
	BYTE		        Bn2 
	BYTE		N04     Dn3 
	BYTE		N04     Fs3 
	BYTE	W12
	BYTE		        Bn2 
	BYTE		N04     Dn3 
	BYTE		N04     Fs3 
	BYTE	W12
	BYTE		        An2 
	BYTE		N04     Dn3 
	BYTE		N04     Fs3 
	BYTE	W12
	BYTE		        An2 
	BYTE		N04     Dn3 
	BYTE		N04     Fs3 
	BYTE	W12
	BYTE		        An2 
	BYTE		N04     Dn3 
	BYTE		N04     Fs3 
	BYTE	W12
	BYTE		        An2 
	BYTE		N04     Dn3 
	BYTE		N04     Fs3 
	BYTE	W12
	BYTE	PEND
// 014   ----------------------------------------
WarmthOfANewAge_3_014:
	BYTE		N04     Cn3   v100
	BYTE		N04     En3 
	BYTE		N04     Gn3 
	BYTE	W12
	BYTE		        Cn3 
	BYTE		N04     En3 
	BYTE		N04     Gn3 
	BYTE	W12
	BYTE		        Cn3 
	BYTE		N04     En3 
	BYTE		N04     Gn3 
	BYTE	W12
	BYTE		        Cn3 
	BYTE		N04     En3 
	BYTE		N04     Gn3 
	BYTE	W12
	BYTE		        Cn3 
	BYTE		N04     En3 
	BYTE		N04     Gn3 
	BYTE	W12
	BYTE		        Cn3 
	BYTE		N04     En3 
	BYTE		N04     Gn3 
	BYTE	W12
	BYTE		        Cn3 
	BYTE		N04     En3 
	BYTE		N04     Gn3 
	BYTE	W12
	BYTE		        Cn3 
	BYTE		N04     En3 
	BYTE		N04     Gn3 
	BYTE	W12
	BYTE	PEND
// 015   ----------------------------------------
	BYTE	PATT
	 POIN2	WarmthOfANewAge_3_011
// 016   ----------------------------------------
	BYTE	PATT
	 POIN2	WarmthOfANewAge_3_012
// 017   ----------------------------------------
WarmthOfANewAge_3_017:
	BYTE		N04     An2   v100
	BYTE		N04     Dn3 
	BYTE		N04     Fs3 
	BYTE	W12
	BYTE		        An2 
	BYTE		N04     Dn3 
	BYTE		N04     Fs3 
	BYTE	W12
	BYTE		        An2 
	BYTE		N04     Dn3 
	BYTE		N04     Fs3 
	BYTE	W12
	BYTE		        An2 
	BYTE		N04     Dn3 
	BYTE		N04     Fs3 
	BYTE	W12
	BYTE		        An2 
	BYTE		N04     Dn3 
	BYTE		N04     Fs3 
	BYTE	W12
	BYTE		        An2 
	BYTE		N04     Dn3 
	BYTE		N04     Fs3 
	BYTE	W12
	BYTE		        An2 
	BYTE		N04     Dn3 
	BYTE		N04     Fs3 
	BYTE	W12
	BYTE		        An2 
	BYTE		N04     Dn3 
	BYTE		N04     Fs3 
	BYTE	W12
	BYTE	PEND
// 018   ----------------------------------------
WarmthOfANewAge_3_018:
	BYTE		N42     Cn3   v100
	BYTE		N42     Fn3 
	BYTE		N42     An3 
	BYTE	W48
	BYTE		        Cn3 
	BYTE		N42     En3 
	BYTE		N42     An3 
	BYTE	W48
	BYTE	PEND
// 019   ----------------------------------------
WarmthOfANewAge_3_019:
	BYTE		N90     Bn2   v100
	BYTE		N90     Dn3 
	BYTE		N90     Gn3 
	BYTE	W96
	BYTE	PEND
// 020   ----------------------------------------
WarmthOfANewAge_3_020:
	BYTE		N90     Bn2   v100
	BYTE		N90     En3 
	BYTE		N90     Gn3 
	BYTE	W96
	BYTE	PEND
// 021   ----------------------------------------
WarmthOfANewAge_3_021:
	BYTE		N42     Bn2   v100
	BYTE		N42     Dn3 
	BYTE		N42     Fs3 
	BYTE	W48
	BYTE		        An2 
	BYTE		N42     Dn3 
	BYTE		N42     Fs3 
	BYTE	W48
	BYTE	PEND
// 022   ----------------------------------------
WarmthOfANewAge_3_022:
	BYTE		N90     Cn3   v100
	BYTE		N90     En3 
	BYTE		N90     Gn3 
	BYTE	W96
	BYTE	PEND
// 023   ----------------------------------------
	BYTE	PATT
	 POIN2	WarmthOfANewAge_3_019
// 024   ----------------------------------------
	BYTE	PATT
	 POIN2	WarmthOfANewAge_3_020
// 025   ----------------------------------------
WarmthOfANewAge_3_025:
	BYTE		N90     An2   v100
	BYTE		N90     Dn3 
	BYTE		N90     Fs3 
	BYTE	W96
	BYTE	PEND
// 026   ----------------------------------------
WarmthOfANewAge_3_026:
	BYTE		N96     Gn2   v100
	BYTE		N96     Cn3 
	BYTE		N96     En3 
	BYTE	W96
	BYTE	PEND
// 027   ----------------------------------------
WarmthOfANewAge_3_027:
	BYTE		N90     Fs2   v100
	BYTE		N90     An2 
	BYTE		N48     Dn3 
	BYTE	W48
	BYTE		        Fs3 
	BYTE	W48
	BYTE	PEND
// 028   ----------------------------------------
WarmthOfANewAge_3_028:
	BYTE		N96     Gn2   v100
	BYTE		N96     Bn2 
	BYTE		N96     En3 
	BYTE	W96
	BYTE	PEND
// 029   ----------------------------------------
WarmthOfANewAge_3_029:
	BYTE		N90     Gn2   v100
	BYTE		N90     Bn2 
	BYTE		N48     Dn3 
	BYTE	W48
	BYTE		        Fn3 
	BYTE	W48
	BYTE	PEND
// 030   ----------------------------------------
	BYTE	PATT
	 POIN2	WarmthOfANewAge_3_026
// 031   ----------------------------------------
	BYTE	PATT
	 POIN2	WarmthOfANewAge_3_027
// 032   ----------------------------------------
WarmthOfANewAge_3_032:
	BYTE		N90     An2   v100
	BYTE		N90     Cn3 
	BYTE		N48     Fn3 
	BYTE	W48
	BYTE		        En3 
	BYTE	W48
	BYTE	PEND
// 033   ----------------------------------------
WarmthOfANewAge_3_033:
	BYTE		N90     Gn2   v100
	BYTE		N90     Bn2 
	BYTE		N90     Dn3 
	BYTE	W96
	BYTE	PEND
// 034   ----------------------------------------
	BYTE	PATT
	 POIN2	WarmthOfANewAge_3_010
// 035   ----------------------------------------
	BYTE	PATT
	 POIN2	WarmthOfANewAge_3_011
// 036   ----------------------------------------
	BYTE	PATT
	 POIN2	WarmthOfANewAge_3_012
// 037   ----------------------------------------
	BYTE	PATT
	 POIN2	WarmthOfANewAge_3_013
// 038   ----------------------------------------
	BYTE	PATT
	 POIN2	WarmthOfANewAge_3_014
// 039   ----------------------------------------
	BYTE	PATT
	 POIN2	WarmthOfANewAge_3_011
// 040   ----------------------------------------
	BYTE	PATT
	 POIN2	WarmthOfANewAge_3_012
// 041   ----------------------------------------
	BYTE	PATT
	 POIN2	WarmthOfANewAge_3_017
// 042   ----------------------------------------
	BYTE	PATT
	 POIN2	WarmthOfANewAge_3_018
// 043   ----------------------------------------
	BYTE	PATT
	 POIN2	WarmthOfANewAge_3_019
// 044   ----------------------------------------
	BYTE	PATT
	 POIN2	WarmthOfANewAge_3_020
// 045   ----------------------------------------
	BYTE	PATT
	 POIN2	WarmthOfANewAge_3_021
// 046   ----------------------------------------
	BYTE	PATT
	 POIN2	WarmthOfANewAge_3_022
// 047   ----------------------------------------
	BYTE	PATT
	 POIN2	WarmthOfANewAge_3_019
// 048   ----------------------------------------
	BYTE	PATT
	 POIN2	WarmthOfANewAge_3_020
// 049   ----------------------------------------
	BYTE	PATT
	 POIN2	WarmthOfANewAge_3_025
// 050   ----------------------------------------
	BYTE	PATT
	 POIN2	WarmthOfANewAge_3_026
// 051   ----------------------------------------
	BYTE	PATT
	 POIN2	WarmthOfANewAge_3_027
// 052   ----------------------------------------
	BYTE	PATT
	 POIN2	WarmthOfANewAge_3_028
// 053   ----------------------------------------
	BYTE	PATT
	 POIN2	WarmthOfANewAge_3_029
// 054   ----------------------------------------
	BYTE	PATT
	 POIN2	WarmthOfANewAge_3_026
// 055   ----------------------------------------
	BYTE	PATT
	 POIN2	WarmthOfANewAge_3_027
// 056   ----------------------------------------
	BYTE	PATT
	 POIN2	WarmthOfANewAge_3_032
// 057   ----------------------------------------
	BYTE	PATT
	 POIN2	WarmthOfANewAge_3_033
// 058   ----------------------------------------
	BYTE	PATT
	 POIN2	WarmthOfANewAge_3_006
// 059   ----------------------------------------
	BYTE	W90
	BYTE		EOT     Gn2 
	BYTE		        Bn2 
	BYTE		        Dn3 
	BYTE		        Gn3 
	BYTE	W06
// 060   ----------------------------------------
	BYTE	PATT
	 POIN2	WarmthOfANewAge_3_008
// 061   ----------------------------------------
	BYTE	PATT
	 POIN2	WarmthOfANewAge_3_009
// 062   ----------------------------------------
	BYTE	PATT
	 POIN2	WarmthOfANewAge_3_006
// 063   ----------------------------------------
	BYTE	W90
	BYTE		EOT     Gn2 
	BYTE		        Bn2 
	BYTE		        Dn3 
	BYTE		        Gn3 
	BYTE	W06
// 064   ----------------------------------------
	BYTE	PATT
	 POIN2	WarmthOfANewAge_3_008
// 065   ----------------------------------------
	BYTE	PATT
	 POIN2	WarmthOfANewAge_3_009
// 066   ----------------------------------------
	BYTE	PATT
	 POIN2	WarmthOfANewAge_3_026
// 067   ----------------------------------------
	BYTE	PATT
	 POIN2	WarmthOfANewAge_3_027
// 068   ----------------------------------------
	BYTE	PATT
	 POIN2	WarmthOfANewAge_3_028
// 069   ----------------------------------------
	BYTE	PATT
	 POIN2	WarmthOfANewAge_3_029
// 070   ----------------------------------------
	BYTE	PATT
	 POIN2	WarmthOfANewAge_3_026
// 071   ----------------------------------------
	BYTE	PATT
	 POIN2	WarmthOfANewAge_3_027
// 072   ----------------------------------------
	BYTE	PATT
	 POIN2	WarmthOfANewAge_3_032
// 073   ----------------------------------------
	BYTE	PATT
	 POIN2	WarmthOfANewAge_3_033
// 074   ----------------------------------------
	BYTE	PATT
	 POIN2	WarmthOfANewAge_3_026
// 075   ----------------------------------------
	BYTE	PATT
	 POIN2	WarmthOfANewAge_3_027
// 076   ----------------------------------------
	BYTE	PATT
	 POIN2	WarmthOfANewAge_3_028
// 077   ----------------------------------------
	BYTE	PATT
	 POIN2	WarmthOfANewAge_3_029
// 078   ----------------------------------------
	BYTE	PATT
	 POIN2	WarmthOfANewAge_3_026
// 079   ----------------------------------------
	BYTE	PATT
	 POIN2	WarmthOfANewAge_3_027
// 080   ----------------------------------------
	BYTE	PATT
	 POIN2	WarmthOfANewAge_3_032
// 081   ----------------------------------------
	BYTE	PATT
	 POIN2	WarmthOfANewAge_3_033
// 082   ----------------------------------------
	BYTE	PATT
	 POIN2	WarmthOfANewAge_3_026
// 083   ----------------------------------------
	BYTE		N90     Fs2   v080
	BYTE		N90     An2 
	BYTE		N48     Dn3 
	BYTE	W48
	BYTE		        Fs3   v072
	BYTE	W48
// 084   ----------------------------------------
	BYTE		N96     Gn2   v064
	BYTE		N96     Bn2 
	BYTE		N96     En3 
	BYTE	W96
// 085   ----------------------------------------
	BYTE		N90     Gn2   v052
	BYTE		N90     Bn2 
	BYTE		N48     Dn3 
	BYTE	W48
	BYTE		        Fn3   v044
	BYTE	W48
// 086   ----------------------------------------
	BYTE		N96     Gn2   v036
	BYTE		N96     Cn3 
	BYTE		N96     En3 
	BYTE	W96
// 087   ----------------------------------------
	BYTE		N90     Fs2   v028
	BYTE		N90     An2 
	BYTE		N48     Dn3 
	BYTE	W48
	BYTE		        Fs3   v020
	BYTE	W48
// 088   ----------------------------------------
	BYTE		N90     An2   v016
	BYTE		N90     Cn3 
	BYTE		N48     Fn3 
	BYTE	W48
	BYTE		        En3   v012
	BYTE	W48
// 089   ----------------------------------------
	BYTE		N90     Gn2   v008
	BYTE		N90     Bn2 
	BYTE		N90     Dn3 
	BYTE	W90
	BYTE	FINE

//**************** Track 4 (Midi-Chn.5) ****************//

WarmthOfANewAge_4:
	BYTE	KEYSH   WarmthOfANewAge_key+0
// 000   ----------------------------------------
	BYTE		VOICE   18
	BYTE		MODT    0
	BYTE		LFOS    44
	BYTE		PAN     c_v+8
	BYTE		VOL     127*WarmthOfANewAge_mvl/mxv
	BYTE		N12     Gn2   v004
	BYTE	W12
	BYTE		N12   
	BYTE	W12
	BYTE		        Gn2   v008
	BYTE	W12
	BYTE		        Gn2   v012
	BYTE	W12
	BYTE		        Gn2   v016
	BYTE	W12
	BYTE		        Gn2   v020
	BYTE	W12
	BYTE		        Gn2   v024
	BYTE	W12
	BYTE		        Gn2   v032
	BYTE	W12
// 001   ----------------------------------------
	BYTE		        Gn2   v036
	BYTE	W12
	BYTE		        Gn2   v044
	BYTE	W12
	BYTE		        Gn2   v048
	BYTE	W12
	BYTE		        Gn2   v056
	BYTE	W12
	BYTE		        Gn2   v064
	BYTE	W12
	BYTE		        Gn2   v072
	BYTE	W12
	BYTE		        Gn2   v080
	BYTE	W12
	BYTE		        Gn2   v088
	BYTE	W12
// 002   ----------------------------------------
WarmthOfANewAge_4_002:
	BYTE		TIE     Gn1   v100
	BYTE		TIE     Bn1 
	BYTE		TIE     Dn2 
	BYTE		TIE     Gn2 
	BYTE	W96
	BYTE	PEND
// 003   ----------------------------------------
	BYTE	W90
	BYTE		EOT     Gn1 
	BYTE		        Bn1 
	BYTE		        Dn2 
	BYTE		        Gn2 
	BYTE	W06
// 004   ----------------------------------------
WarmthOfANewAge_4_004:
	BYTE		N90     An1   v100
	BYTE		N90     Cn2 
	BYTE		N90     En2 
	BYTE		N90     Gn2 
	BYTE	W96
	BYTE	PEND
// 005   ----------------------------------------
WarmthOfANewAge_4_005:
	BYTE		N90     An1   v100
	BYTE		N90     Dn2 
	BYTE		N90     Fs2 
	BYTE		N90     Gn2 
	BYTE	W96
	BYTE	PEND
// 006   ----------------------------------------
	BYTE	PATT
	 POIN2	WarmthOfANewAge_4_002
// 007   ----------------------------------------
	BYTE	W90
	BYTE		EOT     Gn1 
	BYTE		        Bn1 
	BYTE		        Dn2 
	BYTE		        Gn2 
	BYTE	W06
// 008   ----------------------------------------
	BYTE	PATT
	 POIN2	WarmthOfANewAge_4_004
// 009   ----------------------------------------
	BYTE	PATT
	 POIN2	WarmthOfANewAge_4_005
// 010   ----------------------------------------
WarmthOfANewAge_4_010:
	BYTE		N04     Fn2   v100
	BYTE	W12
	BYTE		        Dn2 
	BYTE	W06
	BYTE		N04   
	BYTE	W06
	BYTE		        Fn2 
	BYTE	W12
	BYTE		        Dn2 
	BYTE	W06
	BYTE		N04   
	BYTE	W06
	BYTE		        En2 
	BYTE	W12
	BYTE		        Cn2 
	BYTE	W06
	BYTE		N04   
	BYTE	W06
	BYTE		        En2 
	BYTE	W12
	BYTE		        Cn2 
	BYTE	W06
	BYTE		N04   
	BYTE	W06
	BYTE	PEND
// 011   ----------------------------------------
WarmthOfANewAge_4_011:
	BYTE		N04     Dn2   v100
	BYTE	W12
	BYTE		        Bn1 
	BYTE	W06
	BYTE		N04   
	BYTE	W06
	BYTE		        Dn2 
	BYTE	W12
	BYTE		        Bn1 
	BYTE	W06
	BYTE		N04   
	BYTE	W06
	BYTE		        Dn2 
	BYTE	W12
	BYTE		        Bn1 
	BYTE	W06
	BYTE		N04   
	BYTE	W06
	BYTE		        Dn2 
	BYTE	W12
	BYTE		        Bn1 
	BYTE	W06
	BYTE		N04   
	BYTE	W06
	BYTE	PEND
// 012   ----------------------------------------
WarmthOfANewAge_4_012:
	BYTE		N04     En2   v100
	BYTE	W12
	BYTE		        Bn1 
	BYTE	W06
	BYTE		N04   
	BYTE	W06
	BYTE		        En2 
	BYTE	W12
	BYTE		        Bn1 
	BYTE	W06
	BYTE		N04   
	BYTE	W06
	BYTE		        En2 
	BYTE	W12
	BYTE		        Bn1 
	BYTE	W06
	BYTE		N04   
	BYTE	W06
	BYTE		        En2 
	BYTE	W12
	BYTE		        Bn1 
	BYTE	W06
	BYTE		N04   
	BYTE	W06
	BYTE	PEND
// 013   ----------------------------------------
WarmthOfANewAge_4_013:
	BYTE		N04     Dn2   v100
	BYTE	W12
	BYTE		        An1 
	BYTE	W06
	BYTE		N04   
	BYTE	W06
	BYTE		        Dn2 
	BYTE	W12
	BYTE		        An1 
	BYTE	W06
	BYTE		N04   
	BYTE	W06
	BYTE		        Fs2 
	BYTE	W12
	BYTE		        Dn2 
	BYTE	W06
	BYTE		N04   
	BYTE	W06
	BYTE		        Fs2 
	BYTE	W12
	BYTE		        Dn2 
	BYTE	W06
	BYTE		N04   
	BYTE	W06
	BYTE	PEND
// 014   ----------------------------------------
WarmthOfANewAge_4_014:
	BYTE		N04     En2   v100
	BYTE	W12
	BYTE		        Cn2 
	BYTE	W06
	BYTE		N04   
	BYTE	W06
	BYTE		        En2 
	BYTE	W12
	BYTE		        Cn2 
	BYTE	W06
	BYTE		N04   
	BYTE	W06
	BYTE		        En2 
	BYTE	W12
	BYTE		        Cn2 
	BYTE	W06
	BYTE		N04   
	BYTE	W06
	BYTE		        En2 
	BYTE	W12
	BYTE		        Cn2 
	BYTE	W06
	BYTE		N04   
	BYTE	W06
	BYTE	PEND
// 015   ----------------------------------------
WarmthOfANewAge_4_015:
	BYTE		N04     Gn2   v100
	BYTE	W12
	BYTE		        Dn2 
	BYTE	W06
	BYTE		N04   
	BYTE	W06
	BYTE		        Gn2 
	BYTE	W12
	BYTE		        Dn2 
	BYTE	W06
	BYTE		N04   
	BYTE	W06
	BYTE		        Gn2 
	BYTE	W12
	BYTE		        Dn2 
	BYTE	W06
	BYTE		N04   
	BYTE	W06
	BYTE		        Gn2 
	BYTE	W12
	BYTE		        Dn2 
	BYTE	W06
	BYTE		N04   
	BYTE	W06
	BYTE	PEND
// 016   ----------------------------------------
WarmthOfANewAge_4_016:
	BYTE		N04     Gn2   v100
	BYTE	W12
	BYTE		        En2 
	BYTE	W06
	BYTE		N04   
	BYTE	W06
	BYTE		        Gn2 
	BYTE	W12
	BYTE		        En2 
	BYTE	W06
	BYTE		N04   
	BYTE	W06
	BYTE		        Gn2 
	BYTE	W12
	BYTE		        En2 
	BYTE	W06
	BYTE		N04   
	BYTE	W06
	BYTE		        Gn2 
	BYTE	W12
	BYTE		        En2 
	BYTE	W06
	BYTE		N04   
	BYTE	W06
	BYTE	PEND
// 017   ----------------------------------------
WarmthOfANewAge_4_017:
	BYTE		N04     Fs2   v100
	BYTE	W12
	BYTE		        Dn2 
	BYTE	W06
	BYTE		N04   
	BYTE	W06
	BYTE		        Fs2 
	BYTE	W12
	BYTE		        Dn2 
	BYTE	W06
	BYTE		N04   
	BYTE	W06
	BYTE		        Fs2 
	BYTE	W12
	BYTE		        Dn2 
	BYTE	W06
	BYTE		N04   
	BYTE	W06
	BYTE		        Fs2 
	BYTE	W12
	BYTE		        Dn2 
	BYTE	W06
	BYTE		N04   
	BYTE	W06
	BYTE	PEND
// 018   ----------------------------------------
	BYTE	PATT
	 POIN2	WarmthOfANewAge_4_010
// 019   ----------------------------------------
	BYTE	PATT
	 POIN2	WarmthOfANewAge_4_011
// 020   ----------------------------------------
	BYTE	PATT
	 POIN2	WarmthOfANewAge_4_012
// 021   ----------------------------------------
	BYTE	PATT
	 POIN2	WarmthOfANewAge_4_013
// 022   ----------------------------------------
	BYTE	PATT
	 POIN2	WarmthOfANewAge_4_014
// 023   ----------------------------------------
	BYTE	PATT
	 POIN2	WarmthOfANewAge_4_015
// 024   ----------------------------------------
	BYTE	PATT
	 POIN2	WarmthOfANewAge_4_016
// 025   ----------------------------------------
	BYTE	PATT
	 POIN2	WarmthOfANewAge_4_017
// 026   ----------------------------------------
WarmthOfANewAge_4_026:
	BYTE		N96     Gn1   v100
	BYTE		N96     Cn2 
	BYTE		N96     En2 
	BYTE	W96
	BYTE	PEND
// 027   ----------------------------------------
WarmthOfANewAge_4_027:
	BYTE		N90     Fs1   v100
	BYTE		N90     An1 
	BYTE		N48     Dn2 
	BYTE	W48
	BYTE		        Fs2 
	BYTE	W48
	BYTE	PEND
// 028   ----------------------------------------
WarmthOfANewAge_4_028:
	BYTE		N96     Gn1   v100
	BYTE		N96     Bn1 
	BYTE		N96     En2 
	BYTE	W96
	BYTE	PEND
// 029   ----------------------------------------
WarmthOfANewAge_4_029:
	BYTE		N90     Gn1   v100
	BYTE		N90     Bn1 
	BYTE		N48     Dn2 
	BYTE	W48
	BYTE		        Fn2 
	BYTE	W48
	BYTE	PEND
// 030   ----------------------------------------
	BYTE	PATT
	 POIN2	WarmthOfANewAge_4_026
// 031   ----------------------------------------
	BYTE	PATT
	 POIN2	WarmthOfANewAge_4_027
// 032   ----------------------------------------
WarmthOfANewAge_4_032:
	BYTE		N90     An1   v100
	BYTE		N90     Cn2 
	BYTE		N48     Fn2 
	BYTE	W48
	BYTE		        En2 
	BYTE	W48
	BYTE	PEND
// 033   ----------------------------------------
WarmthOfANewAge_4_033:
	BYTE		N90     Gn1   v100
	BYTE		N90     Bn1 
	BYTE		N90     Dn2 
	BYTE	W96
	BYTE	PEND
// 034   ----------------------------------------
	BYTE	PATT
	 POIN2	WarmthOfANewAge_4_010
// 035   ----------------------------------------
	BYTE	PATT
	 POIN2	WarmthOfANewAge_4_011
// 036   ----------------------------------------
	BYTE	PATT
	 POIN2	WarmthOfANewAge_4_012
// 037   ----------------------------------------
	BYTE	PATT
	 POIN2	WarmthOfANewAge_4_013
// 038   ----------------------------------------
	BYTE	PATT
	 POIN2	WarmthOfANewAge_4_014
// 039   ----------------------------------------
	BYTE	PATT
	 POIN2	WarmthOfANewAge_4_015
// 040   ----------------------------------------
	BYTE	PATT
	 POIN2	WarmthOfANewAge_4_016
// 041   ----------------------------------------
	BYTE	PATT
	 POIN2	WarmthOfANewAge_4_017
// 042   ----------------------------------------
	BYTE	PATT
	 POIN2	WarmthOfANewAge_4_010
// 043   ----------------------------------------
	BYTE	PATT
	 POIN2	WarmthOfANewAge_4_011
// 044   ----------------------------------------
	BYTE	PATT
	 POIN2	WarmthOfANewAge_4_012
// 045   ----------------------------------------
	BYTE	PATT
	 POIN2	WarmthOfANewAge_4_013
// 046   ----------------------------------------
	BYTE	PATT
	 POIN2	WarmthOfANewAge_4_014
// 047   ----------------------------------------
	BYTE	PATT
	 POIN2	WarmthOfANewAge_4_015
// 048   ----------------------------------------
	BYTE	PATT
	 POIN2	WarmthOfANewAge_4_016
// 049   ----------------------------------------
	BYTE	PATT
	 POIN2	WarmthOfANewAge_4_017
// 050   ----------------------------------------
	BYTE	PATT
	 POIN2	WarmthOfANewAge_4_026
// 051   ----------------------------------------
	BYTE	PATT
	 POIN2	WarmthOfANewAge_4_027
// 052   ----------------------------------------
	BYTE	PATT
	 POIN2	WarmthOfANewAge_4_028
// 053   ----------------------------------------
	BYTE	PATT
	 POIN2	WarmthOfANewAge_4_029
// 054   ----------------------------------------
	BYTE	PATT
	 POIN2	WarmthOfANewAge_4_026
// 055   ----------------------------------------
	BYTE	PATT
	 POIN2	WarmthOfANewAge_4_027
// 056   ----------------------------------------
	BYTE	PATT
	 POIN2	WarmthOfANewAge_4_032
// 057   ----------------------------------------
	BYTE	PATT
	 POIN2	WarmthOfANewAge_4_033
// 058   ----------------------------------------
	BYTE	PATT
	 POIN2	WarmthOfANewAge_4_002
// 059   ----------------------------------------
	BYTE	W90
	BYTE		EOT     Gn1 
	BYTE		        Bn1 
	BYTE		        Dn2 
	BYTE		        Gn2 
	BYTE	W06
// 060   ----------------------------------------
	BYTE	PATT
	 POIN2	WarmthOfANewAge_4_004
// 061   ----------------------------------------
	BYTE	PATT
	 POIN2	WarmthOfANewAge_4_005
// 062   ----------------------------------------
	BYTE	PATT
	 POIN2	WarmthOfANewAge_4_002
// 063   ----------------------------------------
	BYTE	W90
	BYTE		EOT     Gn1 
	BYTE		        Bn1 
	BYTE		        Dn2 
	BYTE		        Gn2 
	BYTE	W06
// 064   ----------------------------------------
	BYTE	PATT
	 POIN2	WarmthOfANewAge_4_004
// 065   ----------------------------------------
	BYTE	PATT
	 POIN2	WarmthOfANewAge_4_005
// 066   ----------------------------------------
	BYTE	PATT
	 POIN2	WarmthOfANewAge_4_026
// 067   ----------------------------------------
	BYTE	PATT
	 POIN2	WarmthOfANewAge_4_027
// 068   ----------------------------------------
	BYTE	PATT
	 POIN2	WarmthOfANewAge_4_028
// 069   ----------------------------------------
	BYTE	PATT
	 POIN2	WarmthOfANewAge_4_029
// 070   ----------------------------------------
	BYTE	PATT
	 POIN2	WarmthOfANewAge_4_026
// 071   ----------------------------------------
	BYTE	PATT
	 POIN2	WarmthOfANewAge_4_027
// 072   ----------------------------------------
	BYTE	PATT
	 POIN2	WarmthOfANewAge_4_032
// 073   ----------------------------------------
	BYTE	PATT
	 POIN2	WarmthOfANewAge_4_033
// 074   ----------------------------------------
	BYTE	PATT
	 POIN2	WarmthOfANewAge_4_026
// 075   ----------------------------------------
	BYTE	PATT
	 POIN2	WarmthOfANewAge_4_027
// 076   ----------------------------------------
	BYTE	PATT
	 POIN2	WarmthOfANewAge_4_028
// 077   ----------------------------------------
	BYTE	PATT
	 POIN2	WarmthOfANewAge_4_029
// 078   ----------------------------------------
	BYTE	PATT
	 POIN2	WarmthOfANewAge_4_026
// 079   ----------------------------------------
	BYTE	PATT
	 POIN2	WarmthOfANewAge_4_027
// 080   ----------------------------------------
	BYTE	PATT
	 POIN2	WarmthOfANewAge_4_032
// 081   ----------------------------------------
	BYTE	PATT
	 POIN2	WarmthOfANewAge_4_033
// 082   ----------------------------------------
	BYTE	PATT
	 POIN2	WarmthOfANewAge_4_026
// 083   ----------------------------------------
	BYTE		N90     Fs1   v080
	BYTE		N90     An1 
	BYTE		N48     Dn2 
	BYTE	W48
	BYTE		        Fs2   v072
	BYTE	W48
// 084   ----------------------------------------
	BYTE		N96     Gn1   v064
	BYTE		N96     Bn1 
	BYTE		N96     En2 
	BYTE	W96
// 085   ----------------------------------------
	BYTE		N90     Gn1   v052
	BYTE		N90     Bn1 
	BYTE		N48     Dn2 
	BYTE	W48
	BYTE		        Fn2   v044
	BYTE	W48
// 086   ----------------------------------------
	BYTE		N96     Gn1   v036
	BYTE		N96     Cn2 
	BYTE		N96     En2 
	BYTE	W96
// 087   ----------------------------------------
	BYTE		N90     Fs1   v028
	BYTE		N90     An1 
	BYTE		N48     Dn2 
	BYTE	W48
	BYTE		        Fs2   v020
	BYTE	W48
// 088   ----------------------------------------
	BYTE		N90     An1   v016
	BYTE		N90     Cn2 
	BYTE		N48     Fn2 
	BYTE	W48
	BYTE		        En2   v012
	BYTE	W48
// 089   ----------------------------------------
	BYTE		N90     Gn1   v008
	BYTE		N90     Bn1 
	BYTE		N90     Dn2 
	BYTE	W90
	BYTE	FINE

//**************** Track 5 (Midi-Chn.3) ****************//

WarmthOfANewAge_5:
	BYTE	KEYSH   WarmthOfANewAge_key+0
// 000   ----------------------------------------
	BYTE		VOICE   121
	BYTE		MODT    0
	BYTE		LFOS    44
	BYTE		VOL     127*WarmthOfANewAge_mvl/mxv
	BYTE		PAN     c_v+0
	BYTE	W96
// 001   ----------------------------------------
	BYTE	W96
// 002   ----------------------------------------
WarmthOfANewAge_5_002:
	BYTE		N07     Bn0   v127
	BYTE		N07     Gs1 
	BYTE		N07     An2 
	BYTE	W08
	BYTE		N03     Gs1 
	BYTE	W04
	BYTE		N07   
	BYTE	W08
	BYTE		N03   
	BYTE	W04
	BYTE		N07   
	BYTE	W08
	BYTE		N03   
	BYTE	W04
	BYTE		N07   
	BYTE	W08
	BYTE		N03   
	BYTE	W04
	BYTE		N07     Bn0 
	BYTE		N07     Gs1 
	BYTE	W08
	BYTE		N03   
	BYTE	W04
	BYTE		N07   
	BYTE	W08
	BYTE		N03   
	BYTE	W04
	BYTE		N07     Bn0 
	BYTE		N07     Gs1 
	BYTE	W08
	BYTE		N03   
	BYTE	W04
	BYTE		N07     Bn0 
	BYTE		N07     Gs1 
	BYTE	W08
	BYTE		N03   
	BYTE	W04
	BYTE	PEND
// 003   ----------------------------------------
WarmthOfANewAge_5_003:
	BYTE		N07     Bn0   v127
	BYTE		N07     Gs1 
	BYTE	W08
	BYTE		N03   
	BYTE	W04
	BYTE		N07   
	BYTE	W08
	BYTE		N03   
	BYTE	W04
	BYTE		N07   
	BYTE	W08
	BYTE		N03   
	BYTE	W04
	BYTE		N07   
	BYTE	W08
	BYTE		N03   
	BYTE	W04
	BYTE		N07     Bn0 
	BYTE		N07     Gs1 
	BYTE	W08
	BYTE		N03   
	BYTE	W04
	BYTE		N07   
	BYTE	W08
	BYTE		N03   
	BYTE	W04
	BYTE		N07     Bn0 
	BYTE		N07     Gs1 
	BYTE	W08
	BYTE		N03   
	BYTE	W04
	BYTE		N07     Bn0 
	BYTE		N07     Gs1 
	BYTE	W08
	BYTE		N03   
	BYTE	W04
	BYTE	PEND
// 004   ----------------------------------------
	BYTE	PATT
	 POIN2	WarmthOfANewAge_5_003
// 005   ----------------------------------------
	BYTE	PATT
	 POIN2	WarmthOfANewAge_5_003
// 006   ----------------------------------------
	BYTE	PATT
	 POIN2	WarmthOfANewAge_5_003
// 007   ----------------------------------------
	BYTE	PATT
	 POIN2	WarmthOfANewAge_5_003
// 008   ----------------------------------------
	BYTE	PATT
	 POIN2	WarmthOfANewAge_5_003
// 009   ----------------------------------------
	BYTE		N07     Bn0   v127
	BYTE		N07     Gs1 
	BYTE	W08
	BYTE		N03   
	BYTE	W04
	BYTE		N07   
	BYTE	W08
	BYTE		N03   
	BYTE	W04
	BYTE		N07   
	BYTE	W08
	BYTE		N03   
	BYTE	W04
	BYTE		N07     Bn0 
	BYTE		N07     Gs1 
	BYTE	W08
	BYTE		N03   
	BYTE	W04
	BYTE		N07     Bn0 
	BYTE		N07     Gs1 
	BYTE	W08
	BYTE		N03   
	BYTE	W04
	BYTE		N07   
	BYTE	W08
	BYTE		N03     Bn0 
	BYTE		N03     Gs1 
	BYTE	W04
	BYTE		N07     Bn0 
	BYTE		N07     Dn2 
	BYTE	W08
	BYTE		N03     Bn0 
	BYTE		N03     Cn2 
	BYTE	W04
	BYTE		N07     Bn0 
	BYTE		N07     Dn1 
	BYTE		N07     En1 
	BYTE	W08
	BYTE		N03     Bn0 
	BYTE		N03     Dn1 
	BYTE		N03     En1 
	BYTE	W04
// 010   ----------------------------------------
WarmthOfANewAge_5_010:
	BYTE		N07     Bn0   v127
	BYTE		N07     Gs1 
	BYTE		N07     An2 
	BYTE	W08
	BYTE		N03     Gs1 
	BYTE	W04
	BYTE		N07   
	BYTE	W08
	BYTE		N03     Bn0 
	BYTE		N03     Gs1 
	BYTE	W04
	BYTE		N07     Dn1 
	BYTE		N07     En1 
	BYTE		N07     Gs1 
	BYTE		N07     Cn2 
	BYTE		N07     Dn2 
	BYTE	W08
	BYTE		N03     Gs1 
	BYTE	W04
	BYTE		N07     Bn0 
	BYTE		N07     Gs1 
	BYTE	W08
	BYTE		N03   
	BYTE	W04
	BYTE		N07     Bn0 
	BYTE		N07     Gs1 
	BYTE	W08
	BYTE		N03   
	BYTE	W04
	BYTE		N07   
	BYTE	W08
	BYTE		N03     Bn0 
	BYTE		N03     Gs1 
	BYTE	W04
	BYTE		N07     Dn1 
	BYTE		N07     En1 
	BYTE		N07     Gs1 
	BYTE		N07     Cn2 
	BYTE		N07     Dn2 
	BYTE	W08
	BYTE		N03     Gs1 
	BYTE	W04
	BYTE		N07     Bn0 
	BYTE		N07     Gs1 
	BYTE	W08
	BYTE		N03   
	BYTE	W04
	BYTE	PEND
// 011   ----------------------------------------
WarmthOfANewAge_5_011:
	BYTE		N07     Bn0   v127
	BYTE		N07     Gs1 
	BYTE	W08
	BYTE		N03   
	BYTE	W04
	BYTE		N07   
	BYTE	W08
	BYTE		N03     Bn0 
	BYTE		N03     Gs1 
	BYTE	W04
	BYTE		N07     Dn1 
	BYTE		N07     En1 
	BYTE		N07     Gs1 
	BYTE		N07     Cn2 
	BYTE		N07     Dn2 
	BYTE	W08
	BYTE		N03     Gs1 
	BYTE	W04
	BYTE		N07     Bn0 
	BYTE		N07     Gs1 
	BYTE	W08
	BYTE		N03   
	BYTE	W04
	BYTE		N07     Bn0 
	BYTE		N07     Gs1 
	BYTE	W08
	BYTE		N03   
	BYTE	W04
	BYTE		N07   
	BYTE	W08
	BYTE		N03     Bn0 
	BYTE		N03     Gs1 
	BYTE	W04
	BYTE		N07     Dn1 
	BYTE		N07     En1 
	BYTE		N07     Gs1 
	BYTE		N07     Cn2 
	BYTE		N07     Dn2 
	BYTE	W08
	BYTE		N03     Gs1 
	BYTE	W04
	BYTE		N07     Bn0 
	BYTE		N07     Gs1 
	BYTE	W08
	BYTE		N03   
	BYTE	W04
	BYTE	PEND
// 012   ----------------------------------------
	BYTE	PATT
	 POIN2	WarmthOfANewAge_5_011
// 013   ----------------------------------------
	BYTE	PATT
	 POIN2	WarmthOfANewAge_5_011
// 014   ----------------------------------------
	BYTE	PATT
	 POIN2	WarmthOfANewAge_5_011
// 015   ----------------------------------------
	BYTE	PATT
	 POIN2	WarmthOfANewAge_5_011
// 016   ----------------------------------------
	BYTE	PATT
	 POIN2	WarmthOfANewAge_5_011
// 017   ----------------------------------------
	BYTE	PATT
	 POIN2	WarmthOfANewAge_5_011
// 018   ----------------------------------------
	BYTE	PATT
	 POIN2	WarmthOfANewAge_5_011
// 019   ----------------------------------------
	BYTE	PATT
	 POIN2	WarmthOfANewAge_5_011
// 020   ----------------------------------------
	BYTE	PATT
	 POIN2	WarmthOfANewAge_5_011
// 021   ----------------------------------------
	BYTE	PATT
	 POIN2	WarmthOfANewAge_5_011
// 022   ----------------------------------------
	BYTE	PATT
	 POIN2	WarmthOfANewAge_5_011
// 023   ----------------------------------------
	BYTE	PATT
	 POIN2	WarmthOfANewAge_5_011
// 024   ----------------------------------------
	BYTE	PATT
	 POIN2	WarmthOfANewAge_5_011
// 025   ----------------------------------------
	BYTE	PATT
	 POIN2	WarmthOfANewAge_5_011
// 026   ----------------------------------------
	BYTE	PATT
	 POIN2	WarmthOfANewAge_5_010
// 027   ----------------------------------------
	BYTE	PATT
	 POIN2	WarmthOfANewAge_5_011
// 028   ----------------------------------------
	BYTE	PATT
	 POIN2	WarmthOfANewAge_5_011
// 029   ----------------------------------------
	BYTE	PATT
	 POIN2	WarmthOfANewAge_5_011
// 030   ----------------------------------------
	BYTE	PATT
	 POIN2	WarmthOfANewAge_5_011
// 031   ----------------------------------------
	BYTE	PATT
	 POIN2	WarmthOfANewAge_5_011
// 032   ----------------------------------------
	BYTE	PATT
	 POIN2	WarmthOfANewAge_5_011
// 033   ----------------------------------------
	BYTE	PATT
	 POIN2	WarmthOfANewAge_5_011
// 034   ----------------------------------------
	BYTE	PATT
	 POIN2	WarmthOfANewAge_5_010
// 035   ----------------------------------------
	BYTE	PATT
	 POIN2	WarmthOfANewAge_5_011
// 036   ----------------------------------------
	BYTE	PATT
	 POIN2	WarmthOfANewAge_5_011
// 037   ----------------------------------------
	BYTE	PATT
	 POIN2	WarmthOfANewAge_5_011
// 038   ----------------------------------------
	BYTE	PATT
	 POIN2	WarmthOfANewAge_5_011
// 039   ----------------------------------------
	BYTE	PATT
	 POIN2	WarmthOfANewAge_5_011
// 040   ----------------------------------------
	BYTE	PATT
	 POIN2	WarmthOfANewAge_5_011
// 041   ----------------------------------------
	BYTE	PATT
	 POIN2	WarmthOfANewAge_5_011
// 042   ----------------------------------------
	BYTE	PATT
	 POIN2	WarmthOfANewAge_5_011
// 043   ----------------------------------------
	BYTE	PATT
	 POIN2	WarmthOfANewAge_5_011
// 044   ----------------------------------------
	BYTE	PATT
	 POIN2	WarmthOfANewAge_5_011
// 045   ----------------------------------------
	BYTE	PATT
	 POIN2	WarmthOfANewAge_5_011
// 046   ----------------------------------------
	BYTE	PATT
	 POIN2	WarmthOfANewAge_5_011
// 047   ----------------------------------------
	BYTE	PATT
	 POIN2	WarmthOfANewAge_5_011
// 048   ----------------------------------------
	BYTE	PATT
	 POIN2	WarmthOfANewAge_5_011
// 049   ----------------------------------------
	BYTE	PATT
	 POIN2	WarmthOfANewAge_5_011
// 050   ----------------------------------------
	BYTE	PATT
	 POIN2	WarmthOfANewAge_5_010
// 051   ----------------------------------------
	BYTE	PATT
	 POIN2	WarmthOfANewAge_5_011
// 052   ----------------------------------------
	BYTE	PATT
	 POIN2	WarmthOfANewAge_5_011
// 053   ----------------------------------------
	BYTE	PATT
	 POIN2	WarmthOfANewAge_5_011
// 054   ----------------------------------------
	BYTE	PATT
	 POIN2	WarmthOfANewAge_5_011
// 055   ----------------------------------------
	BYTE	PATT
	 POIN2	WarmthOfANewAge_5_011
// 056   ----------------------------------------
	BYTE	PATT
	 POIN2	WarmthOfANewAge_5_011
// 057   ----------------------------------------
	BYTE	PATT
	 POIN2	WarmthOfANewAge_5_011
// 058   ----------------------------------------
	BYTE	PATT
	 POIN2	WarmthOfANewAge_5_002
// 059   ----------------------------------------
	BYTE	PATT
	 POIN2	WarmthOfANewAge_5_003
// 060   ----------------------------------------
	BYTE	PATT
	 POIN2	WarmthOfANewAge_5_003
// 061   ----------------------------------------
	BYTE	PATT
	 POIN2	WarmthOfANewAge_5_003
// 062   ----------------------------------------
	BYTE	PATT
	 POIN2	WarmthOfANewAge_5_011
// 063   ----------------------------------------
	BYTE	PATT
	 POIN2	WarmthOfANewAge_5_011
// 064   ----------------------------------------
	BYTE	PATT
	 POIN2	WarmthOfANewAge_5_011
// 065   ----------------------------------------
	BYTE		N07     Bn0   v127
	BYTE		N07     Gs1 
	BYTE	W08
	BYTE		N03   
	BYTE	W04
	BYTE		N07   
	BYTE	W08
	BYTE		N03     Bn0 
	BYTE		N03     Gs1 
	BYTE	W04
	BYTE		N07     Dn1 
	BYTE		N07     En1 
	BYTE		N07     Gs1 
	BYTE		N07     Cn2 
	BYTE		N07     Dn2 
	BYTE	W08
	BYTE		N03     Gs1 
	BYTE	W04
	BYTE		N07     Bn0 
	BYTE		N07     Gs1 
	BYTE	W08
	BYTE		N03   
	BYTE	W04
	BYTE		N07     Bn0 
	BYTE		N07     Gs1 
	BYTE	W08
	BYTE		N03   
	BYTE	W04
	BYTE		N07   
	BYTE	W08
	BYTE		N03     Bn0 
	BYTE		N03     Gs1 
	BYTE	W04
	BYTE		N07     Bn0 
	BYTE		N07     Dn2 
	BYTE	W08
	BYTE		N03     Bn0 
	BYTE		N03     Cn2 
	BYTE	W04
	BYTE		N07     Bn0 
	BYTE		N07     Dn1 
	BYTE		N07     En1 
	BYTE	W08
	BYTE		N03     Bn0 
	BYTE		N03     Dn1 
	BYTE		N03     En1 
	BYTE	W04
// 066   ----------------------------------------
	BYTE	PATT
	 POIN2	WarmthOfANewAge_5_010
// 067   ----------------------------------------
	BYTE	PATT
	 POIN2	WarmthOfANewAge_5_011
// 068   ----------------------------------------
	BYTE	PATT
	 POIN2	WarmthOfANewAge_5_011
// 069   ----------------------------------------
	BYTE	PATT
	 POIN2	WarmthOfANewAge_5_011
// 070   ----------------------------------------
	BYTE	PATT
	 POIN2	WarmthOfANewAge_5_011
// 071   ----------------------------------------
	BYTE	PATT
	 POIN2	WarmthOfANewAge_5_011
// 072   ----------------------------------------
	BYTE	PATT
	 POIN2	WarmthOfANewAge_5_011
// 073   ----------------------------------------
	BYTE	PATT
	 POIN2	WarmthOfANewAge_5_011
// 074   ----------------------------------------
	BYTE	PATT
	 POIN2	WarmthOfANewAge_5_010
// 075   ----------------------------------------
	BYTE	PATT
	 POIN2	WarmthOfANewAge_5_011
// 076   ----------------------------------------
	BYTE	PATT
	 POIN2	WarmthOfANewAge_5_011
// 077   ----------------------------------------
	BYTE	PATT
	 POIN2	WarmthOfANewAge_5_011
// 078   ----------------------------------------
	BYTE	PATT
	 POIN2	WarmthOfANewAge_5_011
// 079   ----------------------------------------
	BYTE	PATT
	 POIN2	WarmthOfANewAge_5_011
// 080   ----------------------------------------
	BYTE	PATT
	 POIN2	WarmthOfANewAge_5_011
// 081   ----------------------------------------
	BYTE	PATT
	 POIN2	WarmthOfANewAge_5_011
// 082   ----------------------------------------
	BYTE		N07     Bn0   v127
	BYTE		N07     Gs1 
	BYTE		N07     An2 
	BYTE	W08
	BYTE		N03     Gs1 
	BYTE	W04
	BYTE		N07   
	BYTE	W08
	BYTE		N03     Bn0   v124
	BYTE		N03     Gs1 
	BYTE	W04
	BYTE		N07     Dn1 
	BYTE		N07     En1 
	BYTE		N07     Gs1 
	BYTE		N07     Cn2 
	BYTE		N07     Dn2 
	BYTE	W08
	BYTE		N03     Gs1 
	BYTE	W04
	BYTE		N07     Bn0 
	BYTE		N07     Gs1 
	BYTE	W08
	BYTE		N03     Gs1   v120
	BYTE	W04
	BYTE		N07     Bn0 
	BYTE		N07     Gs1 
	BYTE	W08
	BYTE		N03   
	BYTE	W04
	BYTE		N07   
	BYTE	W08
	BYTE		N03     Bn0 
	BYTE		N03     Gs1 
	BYTE	W04
	BYTE		N07     Dn1 
	BYTE		N07     En1 
	BYTE		N07     Gs1 
	BYTE		N07     Cn2 
	BYTE		N07     Dn2 
	BYTE	W08
	BYTE		N03     Gs1   v116
	BYTE	W04
	BYTE		N07     Bn0 
	BYTE		N07     Gs1 
	BYTE	W08
	BYTE		N03   
	BYTE	W04
// 083   ----------------------------------------
	BYTE		N07     Bn0 
	BYTE		N07     Gs1 
	BYTE	W08
	BYTE		N03     Gs1   v112
	BYTE	W04
	BYTE		N07   
	BYTE	W08
	BYTE		N03     Bn0 
	BYTE		N03     Gs1 
	BYTE	W04
	BYTE		N07     Dn1 
	BYTE		N07     En1 
	BYTE		N07     Gs1 
	BYTE		N07     Cn2 
	BYTE		N07     Dn2 
	BYTE	W08
	BYTE		N03     Gs1 
	BYTE	W04
	BYTE		N07     Bn0 
	BYTE		N07     Gs1 
	BYTE	W08
	BYTE		N03     Gs1   v108
	BYTE	W04
	BYTE		N07     Bn0 
	BYTE		N07     Gs1 
	BYTE	W08
	BYTE		N03   
	BYTE	W04
	BYTE		N07   
	BYTE	W08
	BYTE		N03     Bn0 
	BYTE		N03     Gs1 
	BYTE	W04
	BYTE		N07     Dn1 
	BYTE		N07     En1 
	BYTE		N07     Gs1 
	BYTE		N07     Cn2 
	BYTE		N07     Dn2 
	BYTE	W08
	BYTE		N03     Gs1   v104
	BYTE	W04
	BYTE		N07     Bn0 
	BYTE		N07     Gs1 
	BYTE	W08
	BYTE		N03   
	BYTE	W04
// 084   ----------------------------------------
	BYTE		N07     Bn0 
	BYTE		N07     Gs1 
	BYTE	W08
	BYTE		N03     Gs1   v100
	BYTE	W04
	BYTE		N07   
	BYTE	W08
	BYTE		N03     Bn0 
	BYTE		N03     Gs1 
	BYTE	W04
	BYTE		N07     Dn1 
	BYTE		N07     En1 
	BYTE		N07     Gs1 
	BYTE		N07     Cn2 
	BYTE		N07     Dn2 
	BYTE	W08
	BYTE		N03     Gs1 
	BYTE	W04
	BYTE		N07     Bn0 
	BYTE		N07     Gs1 
	BYTE	W08
	BYTE		N03     Gs1   v096
	BYTE	W04
	BYTE		N07     Bn0 
	BYTE		N07     Gs1 
	BYTE	W08
	BYTE		N03   
	BYTE	W04
	BYTE		N07   
	BYTE	W08
	BYTE		N03     Bn0   v092
	BYTE		N03     Gs1 
	BYTE	W04
	BYTE		N07     Dn1 
	BYTE		N07     En1 
	BYTE		N07     Gs1 
	BYTE		N07     Cn2 
	BYTE		N07     Dn2 
	BYTE	W08
	BYTE		N03     Gs1 
	BYTE	W04
	BYTE		N07     Bn0 
	BYTE		N07     Gs1 
	BYTE	W08
	BYTE		N03   
	BYTE	W04
// 085   ----------------------------------------
	BYTE		N07     Bn0 
	BYTE		N07     Gs1 
	BYTE	W08
	BYTE		N03     Gs1   v088
	BYTE	W04
	BYTE		N07   
	BYTE	W08
	BYTE		N03     Bn0 
	BYTE		N03     Gs1 
	BYTE	W04
	BYTE		N07     Dn1 
	BYTE		N07     En1 
	BYTE		N07     Gs1 
	BYTE		N07     Cn2 
	BYTE		N07     Dn2 
	BYTE	W08
	BYTE		N03     Gs1 
	BYTE	W04
	BYTE		N07     Bn0 
	BYTE		N07     Gs1 
	BYTE	W08
	BYTE		N03     Gs1   v084
	BYTE	W04
	BYTE		N07     Bn0 
	BYTE		N07     Gs1 
	BYTE	W08
	BYTE		N03   
	BYTE	W04
	BYTE		N07   
	BYTE	W08
	BYTE		N03     Bn0 
	BYTE		N03     Gs1 
	BYTE	W04
	BYTE		N07     Dn1 
	BYTE		N07     En1 
	BYTE		N07     Gs1 
	BYTE		N07     Cn2 
	BYTE		N07     Dn2 
	BYTE	W08
	BYTE		N03     Gs1   v080
	BYTE	W04
	BYTE		N07     Bn0 
	BYTE		N07     Gs1 
	BYTE	W08
	BYTE		N03   
	BYTE	W04
// 086   ----------------------------------------
	BYTE		N07     Bn0 
	BYTE		N07     Gs1 
	BYTE	W08
	BYTE		N03   
	BYTE	W04
	BYTE		N07   
	BYTE	W08
	BYTE		N03     Bn0   v076
	BYTE		N03     Gs1 
	BYTE	W04
	BYTE		N07     Dn1 
	BYTE		N07     En1 
	BYTE		N07     Gs1 
	BYTE		N07     Cn2 
	BYTE		N07     Dn2 
	BYTE	W08
	BYTE		N03     Gs1 
	BYTE	W04
	BYTE		N07     Bn0 
	BYTE		N07     Gs1 
	BYTE	W08
	BYTE		N03   
	BYTE	W04
	BYTE		N07     Bn0 
	BYTE		N07     Gs1 
	BYTE	W08
	BYTE		N03     Gs1   v072
	BYTE	W04
	BYTE		N07   
	BYTE	W08
	BYTE		N03     Bn0 
	BYTE		N03     Gs1 
	BYTE	W04
	BYTE		N07     Dn1 
	BYTE		N07     En1 
	BYTE		N07     Gs1 
	BYTE		N07     Cn2 
	BYTE		N07     Dn2 
	BYTE	W08
	BYTE		N03     Gs1   v068
	BYTE	W04
	BYTE		N07     Bn0 
	BYTE		N07     Gs1 
	BYTE	W08
	BYTE		N03     Gs1   v064
	BYTE	W04
// 087   ----------------------------------------
	BYTE		N07     Bn0 
	BYTE		N07     Gs1 
	BYTE	W08
	BYTE		N03     Gs1   v060
	BYTE	W04
	BYTE		N07   
	BYTE	W08
	BYTE		N03     Bn0   v056
	BYTE		N03     Gs1 
	BYTE	W04
	BYTE		N07     Dn1 
	BYTE		N07     En1 
	BYTE		N07     Gs1 
	BYTE		N07     Cn2 
	BYTE		N07     Dn2 
	BYTE	W08
	BYTE		N03     Gs1 
	BYTE	W04
	BYTE		N07     Bn0   v052
	BYTE		N07     Gs1 
	BYTE	W08
	BYTE		N03   
	BYTE	W04
	BYTE		N07     Bn0   v048
	BYTE		N07     Gs1 
	BYTE	W08
	BYTE		N03   
	BYTE	W04
	BYTE		N07   
	BYTE	W08
	BYTE		N03     Bn0   v044
	BYTE		N03     Gs1 
	BYTE	W04
	BYTE		N07     Dn1 
	BYTE		N07     En1 
	BYTE		N07     Gs1 
	BYTE		N07     Cn2 
	BYTE		N07     Dn2 
	BYTE	W08
	BYTE		N03     Gs1   v040
	BYTE	W04
	BYTE		N07     Bn0 
	BYTE		N07     Gs1 
	BYTE	W08
	BYTE		N03     Gs1   v036
	BYTE	W04
// 088   ----------------------------------------
	BYTE		N07     Bn0 
	BYTE		N07     Gs1 
	BYTE	W08
	BYTE		N03   
	BYTE	W04
	BYTE		N07     Gs1   v032
	BYTE	W08
	BYTE		N03     Bn0 
	BYTE		N03     Gs1 
	BYTE	W04
	BYTE		N07     Dn1 
	BYTE		N07     En1 
	BYTE		N07     Gs1 
	BYTE		N07     Cn2 
	BYTE		N07     Dn2 
	BYTE	W08
	BYTE		N03     Gs1   v028
	BYTE	W04
	BYTE		N07     Bn0 
	BYTE		N07     Gs1 
	BYTE	W08
	BYTE		N03   
	BYTE	W04
	BYTE		N07     Bn0   v024
	BYTE		N07     Gs1 
	BYTE	W08
	BYTE		N03   
	BYTE	W04
	BYTE		N07   
	BYTE	W08
	BYTE		N03     Bn0   v020
	BYTE		N03     Gs1 
	BYTE	W04
	BYTE		N07     Dn1 
	BYTE		N07     En1 
	BYTE		N07     Gs1 
	BYTE		N07     Cn2 
	BYTE		N07     Dn2 
	BYTE	W08
	BYTE		N03     Gs1 
	BYTE	W04
	BYTE		N07     Bn0 
	BYTE		N07     Gs1 
	BYTE	W08
	BYTE		N03     Gs1   v016
	BYTE	W04
// 089   ----------------------------------------
	BYTE		N07     Bn0 
	BYTE		N07     Gs1 
	BYTE	W08
	BYTE		N03   
	BYTE	W04
	BYTE		N07   
	BYTE	W08
	BYTE		N03     Bn0   v012
	BYTE		N03     Gs1 
	BYTE	W04
	BYTE		N07     Dn1 
	BYTE		N07     En1 
	BYTE		N07     Gs1 
	BYTE		N07     Cn2 
	BYTE		N07     Dn2 
	BYTE	W08
	BYTE		N03     Gs1 
	BYTE	W04
	BYTE		N07     Bn0 
	BYTE		N07     Gs1 
	BYTE	W08
	BYTE		N03     Gs1   v008
	BYTE	W04
	BYTE		N07     Bn0 
	BYTE		N07     Gs1 
	BYTE	W08
	BYTE		N03   
	BYTE	W04
	BYTE		N07   
	BYTE	W08
	BYTE		N03     Bn0 
	BYTE		N03     Gs1 
	BYTE	W04
	BYTE		N07     Dn1   v004
	BYTE		N07     En1 
	BYTE		N07     Gs1 
	BYTE		N07     Cn2 
	BYTE		N07     Dn2 
	BYTE	W08
	BYTE		N03     Gs1 
	BYTE	W04
	BYTE		N07     Bn0 
	BYTE		N07     Gs1 
	BYTE	W08
	BYTE		N03   
	BYTE	W03
	BYTE	FINE

//**************** Track 6 (Midi-Chn.2) ****************//

WarmthOfANewAge_6:
	BYTE	KEYSH   WarmthOfANewAge_key+0
// 000   ----------------------------------------
	BYTE		VOICE   49
	BYTE		MODT    0
	BYTE		LFOS    44
	BYTE		PAN     c_v+15
	BYTE		VOL     127*WarmthOfANewAge_mvl/mxv
	BYTE	W96
// 001   ----------------------------------------
	BYTE	W96
// 002   ----------------------------------------
	BYTE	W96
// 003   ----------------------------------------
	BYTE	W96
// 004   ----------------------------------------
	BYTE	W96
// 005   ----------------------------------------
	BYTE	W96
// 006   ----------------------------------------
	BYTE	W96
// 007   ----------------------------------------
	BYTE	W96
// 008   ----------------------------------------
	BYTE	W96
// 009   ----------------------------------------
	BYTE	W48
	BYTE		N20     Dn4   v100
	BYTE	W24
	BYTE		        En4 
	BYTE	W24
// 010   ----------------------------------------
WarmthOfANewAge_6_010:
	BYTE		N32     Fn4   v100
	BYTE	W36
	BYTE		N11     Gn4 
	BYTE	W12
	BYTE		N15     En4 
	BYTE	W16
	BYTE		        Dn4 
	BYTE	W16
	BYTE		        En4 
	BYTE	W16
	BYTE	PEND
// 011   ----------------------------------------
WarmthOfANewAge_6_011:
	BYTE		N42     Dn4   v100
	BYTE	W48
	BYTE		N20     Gn3 
	BYTE	W24
	BYTE		        An3 
	BYTE	W24
	BYTE	PEND
// 012   ----------------------------------------
WarmthOfANewAge_6_012:
	BYTE		N32     Bn3   v100
	BYTE	W36
	BYTE		N11     An3 
	BYTE	W12
	BYTE		N15     Bn3 
	BYTE	W16
	BYTE		        Cn4 
	BYTE	W16
	BYTE		        Dn4 
	BYTE	W16
	BYTE	PEND
// 013   ----------------------------------------
WarmthOfANewAge_6_013:
	BYTE		N42     An3   v100
	BYTE	W48
	BYTE		N20     En4 
	BYTE	W24
	BYTE		        Fs4 
	BYTE	W24
	BYTE	PEND
// 014   ----------------------------------------
WarmthOfANewAge_6_014:
	BYTE		N32     Gn4   v100
	BYTE	W36
	BYTE		N11     En4 
	BYTE	W12
	BYTE		N15     Fs4 
	BYTE	W16
	BYTE		        Gn4 
	BYTE	W16
	BYTE		        An4 
	BYTE	W16
	BYTE	PEND
// 015   ----------------------------------------
WarmthOfANewAge_6_015:
	BYTE		N42     Bn4   v100
	BYTE	W48
	BYTE		N20   
	BYTE	W24
	BYTE		        An4 
	BYTE	W24
	BYTE	PEND
// 016   ----------------------------------------
WarmthOfANewAge_6_016:
	BYTE		N15     Gn4   v100
	BYTE	W16
	BYTE		        An4 
	BYTE	W16
	BYTE		        Bn4 
	BYTE	W16
	BYTE		N20     Dn5 
	BYTE	W24
	BYTE		        En5 
	BYTE	W24
	BYTE	PEND
// 017   ----------------------------------------
WarmthOfANewAge_6_017:
	BYTE		N11     Dn5   v100
	BYTE	W12
	BYTE		N20     An4 
	BYTE	W24
	BYTE		N11     Fs4 
	BYTE	W12
	BYTE		N20     Dn4 
	BYTE	W24
	BYTE		        En4 
	BYTE	W24
	BYTE	PEND
// 018   ----------------------------------------
	BYTE	PATT
	 POIN2	WarmthOfANewAge_6_010
// 019   ----------------------------------------
	BYTE	PATT
	 POIN2	WarmthOfANewAge_6_011
// 020   ----------------------------------------
	BYTE	PATT
	 POIN2	WarmthOfANewAge_6_012
// 021   ----------------------------------------
	BYTE	PATT
	 POIN2	WarmthOfANewAge_6_013
// 022   ----------------------------------------
	BYTE	PATT
	 POIN2	WarmthOfANewAge_6_014
// 023   ----------------------------------------
	BYTE	PATT
	 POIN2	WarmthOfANewAge_6_015
// 024   ----------------------------------------
	BYTE	PATT
	 POIN2	WarmthOfANewAge_6_016
// 025   ----------------------------------------
WarmthOfANewAge_6_025:
	BYTE		N11     Dn5   v100
	BYTE	W12
	BYTE		N20     An4 
	BYTE	W24
	BYTE		N11     Fs4 
	BYTE	W12
	BYTE		N20     Bn4 
	BYTE	W24
	BYTE		        An4 
	BYTE	W24
	BYTE	PEND
// 026   ----------------------------------------
WarmthOfANewAge_6_026:
	BYTE		N32     Gn4   v100
	BYTE	W36
	BYTE		N11     En4 
	BYTE	W12
	BYTE		N15     Gn4 
	BYTE	W16
	BYTE		        An4 
	BYTE	W16
	BYTE		        Bn4 
	BYTE	W16
	BYTE	PEND
// 027   ----------------------------------------
WarmthOfANewAge_6_027:
	BYTE		N42     An4   v100
	BYTE	W48
	BYTE		N20     Bn4 
	BYTE	W24
	BYTE		        Cn5 
	BYTE	W24
	BYTE	PEND
// 028   ----------------------------------------
WarmthOfANewAge_6_028:
	BYTE		N32     Bn4   v100
	BYTE	W36
	BYTE		N11     Gn4 
	BYTE	W12
	BYTE		N15     An4 
	BYTE	W16
	BYTE		        Gn4 
	BYTE	W16
	BYTE		        An4 
	BYTE	W16
	BYTE	PEND
// 029   ----------------------------------------
	BYTE	PATT
	 POIN2	WarmthOfANewAge_6_015
// 030   ----------------------------------------
	BYTE	PATT
	 POIN2	WarmthOfANewAge_6_026
// 031   ----------------------------------------
WarmthOfANewAge_6_031:
	BYTE		N42     An4   v100
	BYTE	W48
	BYTE		N20     Gn4 
	BYTE	W24
	BYTE		        Fs4 
	BYTE	W24
	BYTE	PEND
// 032   ----------------------------------------
	BYTE		TIE     Gn4 
	BYTE	W96
// 033   ----------------------------------------
	BYTE	W42
	BYTE		EOT   
	BYTE	W06
	BYTE		N20     Dn4 
	BYTE	W24
	BYTE		        En4 
	BYTE	W24
// 034   ----------------------------------------
	BYTE	PATT
	 POIN2	WarmthOfANewAge_6_010
// 035   ----------------------------------------
	BYTE	PATT
	 POIN2	WarmthOfANewAge_6_011
// 036   ----------------------------------------
	BYTE	PATT
	 POIN2	WarmthOfANewAge_6_012
// 037   ----------------------------------------
	BYTE	PATT
	 POIN2	WarmthOfANewAge_6_013
// 038   ----------------------------------------
	BYTE	PATT
	 POIN2	WarmthOfANewAge_6_014
// 039   ----------------------------------------
	BYTE	PATT
	 POIN2	WarmthOfANewAge_6_015
// 040   ----------------------------------------
	BYTE	PATT
	 POIN2	WarmthOfANewAge_6_016
// 041   ----------------------------------------
	BYTE	PATT
	 POIN2	WarmthOfANewAge_6_017
// 042   ----------------------------------------
	BYTE	PATT
	 POIN2	WarmthOfANewAge_6_010
// 043   ----------------------------------------
	BYTE	PATT
	 POIN2	WarmthOfANewAge_6_011
// 044   ----------------------------------------
	BYTE	PATT
	 POIN2	WarmthOfANewAge_6_012
// 045   ----------------------------------------
	BYTE	PATT
	 POIN2	WarmthOfANewAge_6_013
// 046   ----------------------------------------
	BYTE	PATT
	 POIN2	WarmthOfANewAge_6_014
// 047   ----------------------------------------
	BYTE	PATT
	 POIN2	WarmthOfANewAge_6_015
// 048   ----------------------------------------
	BYTE	PATT
	 POIN2	WarmthOfANewAge_6_016
// 049   ----------------------------------------
	BYTE	PATT
	 POIN2	WarmthOfANewAge_6_025
// 050   ----------------------------------------
	BYTE	PATT
	 POIN2	WarmthOfANewAge_6_026
// 051   ----------------------------------------
	BYTE	PATT
	 POIN2	WarmthOfANewAge_6_027
// 052   ----------------------------------------
	BYTE	PATT
	 POIN2	WarmthOfANewAge_6_028
// 053   ----------------------------------------
	BYTE	PATT
	 POIN2	WarmthOfANewAge_6_015
// 054   ----------------------------------------
	BYTE	PATT
	 POIN2	WarmthOfANewAge_6_026
// 055   ----------------------------------------
	BYTE	PATT
	 POIN2	WarmthOfANewAge_6_031
// 056   ----------------------------------------
	BYTE		TIE     Gn4   v100
	BYTE	W96
// 057   ----------------------------------------
	BYTE	W90
	BYTE		EOT   
	BYTE	W06
// 058   ----------------------------------------
	BYTE	W96
// 059   ----------------------------------------
	BYTE	W96
// 060   ----------------------------------------
	BYTE	W96
// 061   ----------------------------------------
	BYTE	W96
// 062   ----------------------------------------
	BYTE	W96
// 063   ----------------------------------------
	BYTE	W96
// 064   ----------------------------------------
	BYTE	W96
// 065   ----------------------------------------
	BYTE	W48
	BYTE		N20     Bn4 
	BYTE	W24
	BYTE		        An4 
	BYTE	W24
// 066   ----------------------------------------
	BYTE	PATT
	 POIN2	WarmthOfANewAge_6_026
// 067   ----------------------------------------
	BYTE	PATT
	 POIN2	WarmthOfANewAge_6_027
// 068   ----------------------------------------
	BYTE	PATT
	 POIN2	WarmthOfANewAge_6_028
// 069   ----------------------------------------
	BYTE	PATT
	 POIN2	WarmthOfANewAge_6_015
// 070   ----------------------------------------
	BYTE	PATT
	 POIN2	WarmthOfANewAge_6_026
// 071   ----------------------------------------
	BYTE	PATT
	 POIN2	WarmthOfANewAge_6_031
// 072   ----------------------------------------
	BYTE		TIE     Gn4   v100
	BYTE	W96
// 073   ----------------------------------------
	BYTE	W42
	BYTE		EOT   
	BYTE	W06
	BYTE		N20     Bn4 
	BYTE	W24
	BYTE		        An4 
	BYTE	W24
// 074   ----------------------------------------
	BYTE	PATT
	 POIN2	WarmthOfANewAge_6_026
// 075   ----------------------------------------
	BYTE	PATT
	 POIN2	WarmthOfANewAge_6_027
// 076   ----------------------------------------
	BYTE	PATT
	 POIN2	WarmthOfANewAge_6_028
// 077   ----------------------------------------
	BYTE	PATT
	 POIN2	WarmthOfANewAge_6_015
// 078   ----------------------------------------
	BYTE	PATT
	 POIN2	WarmthOfANewAge_6_026
// 079   ----------------------------------------
	BYTE	PATT
	 POIN2	WarmthOfANewAge_6_031
// 080   ----------------------------------------
	BYTE		TIE     Gn4   v100
	BYTE	W96
// 081   ----------------------------------------
	BYTE	W42
	BYTE		EOT   
	BYTE	W06
	BYTE		N20     Bn4 
	BYTE	W24
	BYTE		        An4 
	BYTE	W24
// 082   ----------------------------------------
	BYTE		N32     Gn4 
	BYTE	W36
	BYTE		N11     En4   v092
	BYTE	W12
	BYTE		N15     Gn4 
	BYTE	W16
	BYTE		        An4   v088
	BYTE	W16
	BYTE		        Bn4   v084
	BYTE	W16
// 083   ----------------------------------------
	BYTE		N42     An4 
	BYTE	W48
	BYTE		N20     Bn4   v076
	BYTE	W24
	BYTE		        Cn5   v072
	BYTE	W24
// 084   ----------------------------------------
	BYTE		N32     Bn4   v068
	BYTE	W36
	BYTE		N11     Gn4   v060
	BYTE	W12
	BYTE		N15     An4 
	BYTE	W16
	BYTE		        Gn4   v056
	BYTE	W16
	BYTE		        An4 
	BYTE	W16
// 085   ----------------------------------------
	BYTE		N42     Bn4   v052
	BYTE	W48
	BYTE		N20     Bn4   v048
	BYTE	W24
	BYTE		        An4   v044
	BYTE	W24
// 086   ----------------------------------------
	BYTE		N32     Gn4   v040
	BYTE	W36
	BYTE		N11     En4   v036
	BYTE	W12
	BYTE		N15     Gn4 
	BYTE	W16
	BYTE		        An4   v032
	BYTE	W16
	BYTE		        Bn4 
	BYTE	W16
// 087   ----------------------------------------
	BYTE		N42     An4   v028
	BYTE	W48
	BYTE		N20     Gn4   v024
	BYTE	W24
	BYTE		        Fs4   v020
	BYTE	W24
// 088   ----------------------------------------
	BYTE		TIE     Gn4 
	BYTE	W96
// 089   ----------------------------------------
	BYTE	W90
	BYTE		EOT   
	BYTE	FINE

//******************************************************//
	ALIGN 4

WarmthOfANewAge:
	BYTE	6	// NumTrks
	BYTE	0	// NumBlks
	BYTE	WarmthOfANewAge_pri	// Priority
	BYTE	WarmthOfANewAge_rev	// Reverb.

	POIN2	WarmthOfANewAge_grp

	POIN2	WarmthOfANewAge_1
	POIN2	WarmthOfANewAge_2
	POIN2	WarmthOfANewAge_3
	POIN2	WarmthOfANewAge_4
	POIN2	WarmthOfANewAge_5
	POIN2	WarmthOfANewAge_6

	
