//Event file generated from Sappy .s format.
	#include "MPlayDef.event"

	#define	WreyvineBattle_grp  voicegroup000
	#define	WreyvineBattle_pri  0
	#define	WreyvineBattle_rev  5
	#define	WreyvineBattle_mvl  30
	#define	WreyvineBattle_key  0
	#define	WreyvineBattle_tbs  1
	#define	WreyvineBattle_exg  0
	#define	WreyvineBattle_cmp  1

	// .rodata
	//	WreyvineBattle
	ALIGN 4

//**************** Track 1 (Midi-Chn.1) ****************//

WreyvineBattle_1:
	BYTE	KEYSH   WreyvineBattle_key+0
WreyvineBattle_1_B1:
// 000   ----------------------------------------
	BYTE	TEMPO   140*WreyvineBattle_tbs/2
	BYTE		VOICE   61
	BYTE		MODT    0
	BYTE		LFOS    44
	BYTE		VOL     112*WreyvineBattle_mvl/mxv
	BYTE		PAN     c_v+15
	BYTE		N36     Cn4   v127
	BYTE	W36
	BYTE		N05     Dn4 
	BYTE	W06
	BYTE		        Ds4 
	BYTE	W06
	BYTE		N32     As3 
	BYTE	W36
	BYTE		N05   
	BYTE	W06
	BYTE		        Gs3 
	BYTE	W06
// 001   ----------------------------------------
	BYTE		N15     Gn3 
	BYTE	W16
	BYTE		        Fn3 
	BYTE	W14
	BYTE		        Ds3 
	BYTE	W18
	BYTE		N48     Gn3 
	BYTE	W48
// 002   ----------------------------------------
	BYTE		N15   
	BYTE	W16
	BYTE		        Ds3 
	BYTE	W16
	BYTE		        Gn3 
	BYTE	W16
	BYTE		        Cn4 
	BYTE	W16
	BYTE		        Gn3 
	BYTE	W16
	BYTE		        Cn4 
	BYTE	W16
// 003   ----------------------------------------
	BYTE		        Dn4 
	BYTE	W16
	BYTE		        Cn4 
	BYTE	W16
	BYTE		        Ds4 
	BYTE	W16
	BYTE		N42     Dn4 
	BYTE	W48
// 004   ----------------------------------------
	BYTE		VOL     112*WreyvineBattle_mvl/mxv
	BYTE		PAN     c_v+15
	BYTE		N36     Ds4 
	BYTE	W36
	BYTE		N05     Dn4 
	BYTE	W06
	BYTE		        Ds4 
	BYTE	W06
	BYTE		N32     Cn4 
	BYTE	W36
	BYTE		N05     As3 
	BYTE	W06
	BYTE		        Gs3 
	BYTE	W06
// 005   ----------------------------------------
	BYTE		N15     Gn3 
	BYTE	W16
	BYTE		        Fn3 
	BYTE	W16
	BYTE		        Gn3 
	BYTE	W16
	BYTE		N48     Gs3 
	BYTE	W48
// 006   ----------------------------------------
	BYTE		N36     Gn3   v108
	BYTE	W36
	BYTE		N06     Ds3 
	BYTE	W06
	BYTE		        Gn3 
	BYTE	W06
	BYTE		N36     Gs3 
	BYTE	W36
	BYTE		N06     Gn3 
	BYTE	W06
	BYTE		        Ds3 
	BYTE	W06
// 007   ----------------------------------------
	BYTE		N96     Cn3 
	BYTE	W96
// 008   ----------------------------------------
	BYTE		N15     Gs3   v127
	BYTE	W16
	BYTE		        Fn3 
	BYTE	W16
	BYTE		        Gs3 
	BYTE	W16
	BYTE		        Cn4 
	BYTE	W16
	BYTE		        As3 
	BYTE	W16
	BYTE		        Gs3 
	BYTE	W16
// 009   ----------------------------------------
	BYTE		        Cs4 
	BYTE	W16
	BYTE		        Gs3 
	BYTE	W16
	BYTE		        Cs4 
	BYTE	W16
	BYTE		        Fn4 
	BYTE	W16
	BYTE		        Ds4 
	BYTE	W16
	BYTE		        Cs4 
	BYTE	W16
// 010   ----------------------------------------
	BYTE		N07     As3 
	BYTE	W08
	BYTE		        Fn3 
	BYTE	W08
	BYTE		        As3 
	BYTE	W08
	BYTE		        Dn4 
	BYTE	W08
	BYTE		        As3 
	BYTE	W08
	BYTE		        Dn4 
	BYTE	W08
	BYTE		N15     Fn4 
	BYTE	W16
	BYTE		        Ds4 
	BYTE	W16
	BYTE		        Dn4 
	BYTE	W16
// 011   ----------------------------------------
	BYTE		        Ds4 
	BYTE	W16
	BYTE		        Cn4 
	BYTE	W16
	BYTE		        Ds4 
	BYTE	W16
	BYTE		N20     As3 
	BYTE	W24
	BYTE		        Gn3 
	BYTE	W24
// 012   ----------------------------------------
	BYTE		N15     Fn3 
	BYTE	W16
	BYTE		        Ds3 
	BYTE	W16
	BYTE		        Fn3 
	BYTE	W16
	BYTE		        Cn3 
	BYTE	W16
	BYTE		        As2 
	BYTE	W16
	BYTE		        Cn3 
	BYTE	W16
// 013   ----------------------------------------
	BYTE		        Cs3 
	BYTE	W16
	BYTE		        Fn3 
	BYTE	W16
	BYTE		        Ds3 
	BYTE	W16
	BYTE		        Cs3 
	BYTE	W16
	BYTE		        Gs2 
	BYTE	W16
	BYTE		        Cs3 
	BYTE	W16
// 014   ----------------------------------------
	BYTE		N07     Dn3 
	BYTE	W08
	BYTE		        As2 
	BYTE	W08
	BYTE		        Dn3 
	BYTE	W08
	BYTE		        Fn3 
	BYTE	W08
	BYTE		        Dn3 
	BYTE	W08
	BYTE		        Fn3 
	BYTE	W08
	BYTE		        As3 
	BYTE	W08
	BYTE		        Gs3 
	BYTE	W08
	BYTE		        Gn3 
	BYTE	W08
	BYTE		        Fn3 
	BYTE	W08
	BYTE		        Ds3 
	BYTE	W08
	BYTE		        Dn3 
	BYTE	W08
// 015   ----------------------------------------
	BYTE		N20     Ds3 
	BYTE	W24
	BYTE		        Fn3 
	BYTE	W24
	BYTE		N42     Gn3 
	BYTE	W48
// 016   ----------------------------------------
	BYTE		N20     Fn3 
	BYTE	W24
	BYTE		        Dn3 
	BYTE	W24
	BYTE		        Fn3 
	BYTE	W24
	BYTE		        As3 
	BYTE	W24
// 017   ----------------------------------------
	BYTE		N11     Cn4 
	BYTE	W12
	BYTE		        As3 
	BYTE	W12
	BYTE		        An3 
	BYTE	W12
	BYTE		        Gn3 
	BYTE	W12
	BYTE		N20     Fn3 
	BYTE	W24
	BYTE		        Gn3 
	BYTE	W24
// 018   ----------------------------------------
	BYTE		        Gs3 
	BYTE	W24
	BYTE		N11     As3 
	BYTE	W12
	BYTE		        Gs3 
	BYTE	W12
	BYTE		        Gn3 
	BYTE	W12
	BYTE		        Fn3 
	BYTE	W12
	BYTE		        Ds3 
	BYTE	W12
	BYTE		        Dn3 
	BYTE	W12
// 019   ----------------------------------------
	BYTE		N20     As2 
	BYTE	W24
	BYTE		        Fn3 
	BYTE	W24
	BYTE		        Gn3 
	BYTE	W24
	BYTE		        Fn3 
	BYTE	W18
	BYTE		N18     En3   v044
	BYTE	W06
// 020   ----------------------------------------
	BYTE		N72     Gs3 
	BYTE		N72     Cn4   v127
	BYTE	W12
	BYTE		N54     En3   v044
	BYTE	W84
// 021   ----------------------------------------
	BYTE	W96
// 022   ----------------------------------------
	BYTE	W96
// 023   ----------------------------------------
	BYTE	W96
// 024   ----------------------------------------
	BYTE	W96
// 025   ----------------------------------------
	BYTE	W96
// 026   ----------------------------------------
	BYTE	W96
// 027   ----------------------------------------
	BYTE	W96
// 028   ----------------------------------------
	BYTE	W96
// 029   ----------------------------------------
	BYTE	W96
// 030   ----------------------------------------
	BYTE	W96
// 031   ----------------------------------------
	BYTE	W96
// 032   ----------------------------------------
	BYTE	W96
// 033   ----------------------------------------
	BYTE	W96
// 034   ----------------------------------------
	BYTE	W96
// 035   ----------------------------------------
	BYTE	W96
// 036   ----------------------------------------
	BYTE	W96
// 037   ----------------------------------------
	BYTE	W96
// 038   ----------------------------------------
	BYTE	W96
// 039   ----------------------------------------
	BYTE	W92
	BYTE	W03
	BYTE	GoTo
	 POIN2	WreyvineBattle_1_B1
WreyvineBattle_1_B2:
	BYTE	FINE

//**************** Track 2 (Midi-Chn.2) ****************//

WreyvineBattle_2:
	BYTE	KEYSH   WreyvineBattle_key+0
WreyvineBattle_2_B1:
// 000   ----------------------------------------
	BYTE		VOICE   127
	BYTE		MODT    0
	BYTE		LFOS    44
	BYTE		VOL     82*WreyvineBattle_mvl/mxv
	BYTE		PAN     c_v+0
	BYTE		N84     Gn0   v127
	BYTE		N05     Cn1 
	BYTE		N05     Fs1 
	BYTE		N90     Cs2 
	BYTE		N84     Gn2 
	BYTE		N05     An2 
	BYTE	W06
	BYTE		        Gs1 
	BYTE	W06
	BYTE		        Cn1 
	BYTE		N05     As1 
	BYTE	W06
	BYTE		        Gs1 
	BYTE	W06
	BYTE		        Dn1 
	BYTE		N05     En1 
	BYTE		N05     Fs1 
	BYTE		N05     Bn1 
	BYTE		N05     Cn2 
	BYTE		N05     Dn2 
	BYTE	W06
	BYTE		        Cn1 
	BYTE		N05     Gs1 
	BYTE	W06
	BYTE		        As1 
	BYTE	W06
	BYTE		        Cn1 
	BYTE		N05     Gs1 
	BYTE	W06
	BYTE		        Cn1 
	BYTE		N05     Fs1 
	BYTE	W06
	BYTE		        Gs1 
	BYTE	W06
	BYTE		        Cn1 
	BYTE		N05     As1 
	BYTE	W06
	BYTE		        Gs1 
	BYTE	W06
	BYTE		        Dn1 
	BYTE		N05     En1 
	BYTE		N05     Fs1 
	BYTE		N05     Bn1 
	BYTE		N05     Cn2 
	BYTE		N05     Dn2 
	BYTE	W06
	BYTE		        Cn1 
	BYTE		N05     Gs1 
	BYTE	W06
	BYTE		        As1 
	BYTE	W06
	BYTE		        Cn1 
	BYTE		N05     Gs1 
	BYTE	W06
// 001   ----------------------------------------
WreyvineBattle_2_001:
	BYTE		N05     Cn1   v127
	BYTE		N05     Fs1 
	BYTE	W06
	BYTE		        Gs1 
	BYTE	W06
	BYTE		        Cn1 
	BYTE		N05     As1 
	BYTE	W06
	BYTE		        Gs1 
	BYTE	W06
	BYTE		        Dn1 
	BYTE		N05     En1 
	BYTE		N05     Fs1 
	BYTE		N05     Bn1 
	BYTE		N05     Cn2 
	BYTE		N05     Dn2 
	BYTE	W06
	BYTE		        Cn1 
	BYTE		N05     Gs1 
	BYTE	W06
	BYTE		        As1 
	BYTE	W06
	BYTE		        Cn1 
	BYTE		N05     Gs1 
	BYTE	W06
	BYTE		        Cn1 
	BYTE		N05     Fs1 
	BYTE	W06
	BYTE		        Gs1 
	BYTE	W06
	BYTE		        Cn1 
	BYTE		N05     As1 
	BYTE	W06
	BYTE		        Gs1 
	BYTE	W06
	BYTE		        Dn1 
	BYTE		N05     En1 
	BYTE		N05     Fs1 
	BYTE		N05     Bn1 
	BYTE		N05     Cn2 
	BYTE		N05     Dn2 
	BYTE	W06
	BYTE		        Cn1 
	BYTE		N05     Gs1 
	BYTE	W06
	BYTE		        As1 
	BYTE	W06
	BYTE		        Cn1 
	BYTE		N05     Gs1 
	BYTE	W06
	BYTE	PEND
// 002   ----------------------------------------
	BYTE	PATT
	 POIN2	WreyvineBattle_2_001
// 003   ----------------------------------------
WreyvineBattle_2_003:
	BYTE		N05     Cn1   v127
	BYTE		N05     Fs1 
	BYTE	W06
	BYTE		        Gs1 
	BYTE	W06
	BYTE		        Cn1 
	BYTE		N05     As1 
	BYTE	W06
	BYTE		        Gs1 
	BYTE	W06
	BYTE		        Dn1 
	BYTE		N05     En1 
	BYTE		N05     Fs1 
	BYTE		N05     Bn1 
	BYTE		N05     Cn2 
	BYTE		N05     Dn2 
	BYTE	W06
	BYTE		        Cn1 
	BYTE		N05     Gs1 
	BYTE	W06
	BYTE		        As1 
	BYTE	W06
	BYTE		        Cn1 
	BYTE		N05     Gs1 
	BYTE	W06
	BYTE		        Cn1 
	BYTE		N05     Fs1 
	BYTE	W06
	BYTE		        Gs1 
	BYTE	W06
	BYTE		        Cn1 
	BYTE		N05     As1 
	BYTE	W06
	BYTE		        Gs1 
	BYTE	W06
	BYTE		        Dn1 
	BYTE		N05     En1 
	BYTE		N05     Fs1 
	BYTE		N05     Bn1 
	BYTE		N05     Cn2 
	BYTE		N05     Dn2 
	BYTE	W06
	BYTE		        Cn1 
	BYTE		N05     Gs1 
	BYTE	W06
	BYTE		        Dn1 
	BYTE		N05     En1 
	BYTE		N05     As1 
	BYTE		N05     Bn1 
	BYTE		N05     Cn2 
	BYTE		N05     Dn2 
	BYTE	W06
	BYTE		        Cn1 
	BYTE		N05     Gs1 
	BYTE	W06
	BYTE	PEND
// 004   ----------------------------------------
	BYTE	PATT
	 POIN2	WreyvineBattle_2_001
// 005   ----------------------------------------
	BYTE	PATT
	 POIN2	WreyvineBattle_2_001
// 006   ----------------------------------------
	BYTE	PATT
	 POIN2	WreyvineBattle_2_001
// 007   ----------------------------------------
WreyvineBattle_2_007:
	BYTE		N05     Cn1   v127
	BYTE		N05     Fs1 
	BYTE	W06
	BYTE		        Gs1 
	BYTE	W06
	BYTE		        Cn1 
	BYTE		N05     As1 
	BYTE	W06
	BYTE		        Gs1 
	BYTE	W06
	BYTE		        Dn1 
	BYTE		N05     En1 
	BYTE		N05     Fs1 
	BYTE		N05     Bn1 
	BYTE		N05     Cn2 
	BYTE		N05     Dn2 
	BYTE	W06
	BYTE		        Cn1 
	BYTE		N05     Gs1 
	BYTE	W06
	BYTE		        As1 
	BYTE	W06
	BYTE		        Cn1 
	BYTE		N05     Gs1 
	BYTE	W06
	BYTE		        Cn1 
	BYTE		N05     Fs1 
	BYTE	W06
	BYTE		        Gs1 
	BYTE	W06
	BYTE		        Cn1 
	BYTE		N05     As1 
	BYTE	W06
	BYTE		        Gs1 
	BYTE	W06
	BYTE		        Dn1 
	BYTE		N05     En1 
	BYTE		N05     Fs1 
	BYTE		N05     Bn1 
	BYTE		N05     Cn2 
	BYTE		N05     Dn2 
	BYTE	W06
	BYTE		        Cn1 
	BYTE		N05     Dn1 
	BYTE		N05     En1 
	BYTE		N05     Gs1 
	BYTE		N05     Bn1 
	BYTE		N05     Cn2 
	BYTE		N05     Dn2 
	BYTE	W06
	BYTE		        Dn1 
	BYTE		N05     En1 
	BYTE		N05     As1 
	BYTE		N05     Bn1 
	BYTE		N05     Cn2 
	BYTE		N05     Dn2 
	BYTE	W06
	BYTE		        Cn1 
	BYTE		N05     Dn1 
	BYTE		N05     En1 
	BYTE		N05     Gs1 
	BYTE		N05     Bn1 
	BYTE		N05     Cn2 
	BYTE		N05     Dn2 
	BYTE	W06
	BYTE	PEND
// 008   ----------------------------------------
WreyvineBattle_2_008:
	BYTE		N05     Cn1   v127
	BYTE		N05     Fs1 
	BYTE		N05     An2 
	BYTE	W06
	BYTE		        Gs1 
	BYTE	W06
	BYTE		        Cn1 
	BYTE		N05     As1 
	BYTE	W06
	BYTE		        Gs1 
	BYTE	W06
	BYTE		        Dn1 
	BYTE		N05     En1 
	BYTE		N05     Fs1 
	BYTE		N05     Bn1 
	BYTE		N05     Cn2 
	BYTE		N05     Dn2 
	BYTE	W06
	BYTE		        Cn1 
	BYTE		N05     Gs1 
	BYTE	W06
	BYTE		        As1 
	BYTE	W06
	BYTE		        Cn1 
	BYTE		N05     Gs1 
	BYTE	W06
	BYTE		        Cn1 
	BYTE		N05     Fs1 
	BYTE	W06
	BYTE		        Gs1 
	BYTE	W06
	BYTE		        Cn1 
	BYTE		N05     As1 
	BYTE	W06
	BYTE		        Gs1 
	BYTE	W06
	BYTE		        Dn1 
	BYTE		N05     En1 
	BYTE		N05     Fs1 
	BYTE		N05     Bn1 
	BYTE		N05     Cn2 
	BYTE		N05     Dn2 
	BYTE	W06
	BYTE		        Cn1 
	BYTE		N05     Gs1 
	BYTE	W06
	BYTE		        As1 
	BYTE	W06
	BYTE		        Cn1 
	BYTE		N05     Gs1 
	BYTE	W06
	BYTE	PEND
// 009   ----------------------------------------
	BYTE	PATT
	 POIN2	WreyvineBattle_2_001
// 010   ----------------------------------------
	BYTE	PATT
	 POIN2	WreyvineBattle_2_001
// 011   ----------------------------------------
	BYTE	PATT
	 POIN2	WreyvineBattle_2_003
// 012   ----------------------------------------
	BYTE	PATT
	 POIN2	WreyvineBattle_2_001
// 013   ----------------------------------------
	BYTE	PATT
	 POIN2	WreyvineBattle_2_001
// 014   ----------------------------------------
	BYTE	PATT
	 POIN2	WreyvineBattle_2_001
// 015   ----------------------------------------
	BYTE	PATT
	 POIN2	WreyvineBattle_2_007
// 016   ----------------------------------------
WreyvineBattle_2_016:
	BYTE		N11     Cn1   v127
	BYTE		N11     As1 
	BYTE	W12
	BYTE		N05     Fs1 
	BYTE	W06
	BYTE		N05   
	BYTE	W06
	BYTE		N11     Cn1 
	BYTE		N11     As1 
	BYTE	W12
	BYTE		N05     Fs1 
	BYTE	W06
	BYTE		N05   
	BYTE	W06
	BYTE		N11     Cn1 
	BYTE		N11     As1 
	BYTE	W12
	BYTE		N05     Fs1 
	BYTE	W06
	BYTE		N05   
	BYTE	W06
	BYTE		N11     Cn1 
	BYTE		N11     Dn1 
	BYTE		N11     En1 
	BYTE		N11     As1 
	BYTE	W12
	BYTE		N05     Fs1 
	BYTE	W06
	BYTE		N05   
	BYTE	W06
	BYTE	PEND
// 017   ----------------------------------------
	BYTE		N11     Cn1 
	BYTE		N11     As1 
	BYTE	W12
	BYTE		N05     Fs1 
	BYTE	W06
	BYTE		N05   
	BYTE	W06
	BYTE		N11     Cn1 
	BYTE		N11     As1 
	BYTE	W12
	BYTE		N05     Fs1 
	BYTE	W06
	BYTE		N05   
	BYTE	W06
	BYTE		N11     Cn1 
	BYTE		N11     As1 
	BYTE	W12
	BYTE		N05     Fs1 
	BYTE	W06
	BYTE		N05   
	BYTE	W06
	BYTE		N11     Cn1 
	BYTE		N11     Dn1 
	BYTE		N11     En1 
	BYTE		N11     As1 
	BYTE	W12
	BYTE		N05     Dn1 
	BYTE		N05     En1 
	BYTE		N05     Fs1 
	BYTE	W06
	BYTE		N05   
	BYTE	W06
// 018   ----------------------------------------
	BYTE	PATT
	 POIN2	WreyvineBattle_2_016
// 019   ----------------------------------------
	BYTE		N11     Cn1   v127
	BYTE		N11     As1 
	BYTE	W12
	BYTE		N05     Fs1 
	BYTE	W06
	BYTE		N05   
	BYTE	W06
	BYTE		N11     Cn1 
	BYTE		N11     As1 
	BYTE	W12
	BYTE		N05     Fs1 
	BYTE	W06
	BYTE		N05   
	BYTE	W06
	BYTE		N11     Cn1 
	BYTE		N11     As1 
	BYTE	W12
	BYTE		N05     Fs1 
	BYTE	W06
	BYTE		N05   
	BYTE	W06
	BYTE		        Cn1 
	BYTE		N05     Dn1 
	BYTE		N05     En1 
	BYTE		N05     As1 
	BYTE		N05     Dn2 
	BYTE	W06
	BYTE		        Dn1 
	BYTE		N05     En1 
	BYTE		N05     Cn2 
	BYTE	W06
	BYTE		        Dn1 
	BYTE		N05     En1 
	BYTE		N05     Fs1 
	BYTE		N05     Bn1 
	BYTE	W06
	BYTE		        Dn1 
	BYTE		N05     En1 
	BYTE		N05     Fs1 
	BYTE		N05     An1 
	BYTE	W06
// 020   ----------------------------------------
WreyvineBattle_2_020:
	BYTE		N05     Cn1   v127
	BYTE		N05     Fs1 
	BYTE	W06
	BYTE		        Gs1 
	BYTE	W06
	BYTE		        As1 
	BYTE	W06
	BYTE		        Gs1 
	BYTE	W06
	BYTE		        En1 
	BYTE		N05     Fs1 
	BYTE	W06
	BYTE		        Gs1 
	BYTE	W06
	BYTE		        As1 
	BYTE	W06
	BYTE		        Gs1 
	BYTE	W06
	BYTE		        Cn1 
	BYTE		N05     Fs1 
	BYTE	W06
	BYTE		        Gs1 
	BYTE	W06
	BYTE		        As1 
	BYTE	W06
	BYTE		        Gs1 
	BYTE	W06
	BYTE		        En1 
	BYTE		N05     Fs1 
	BYTE	W06
	BYTE		        Gs1 
	BYTE	W06
	BYTE		        En1 
	BYTE		N05     As1 
	BYTE	W06
	BYTE		        Gs1 
	BYTE	W06
	BYTE	PEND
// 021   ----------------------------------------
WreyvineBattle_2_021:
	BYTE		N05     Cn1   v127
	BYTE		N05     Fs1 
	BYTE	W06
	BYTE		        Gs1 
	BYTE	W06
	BYTE		        As1 
	BYTE	W06
	BYTE		        Gs1 
	BYTE	W06
	BYTE		        En1 
	BYTE		N05     Fs1 
	BYTE	W06
	BYTE		        Gs1 
	BYTE	W06
	BYTE		        As1 
	BYTE	W06
	BYTE		        Gs1 
	BYTE	W06
	BYTE		        Cn1 
	BYTE		N05     Fs1 
	BYTE	W06
	BYTE		        En1 
	BYTE		N05     Gs1 
	BYTE	W06
	BYTE		        As1 
	BYTE	W06
	BYTE		        Gs1 
	BYTE	W06
	BYTE		        En1 
	BYTE		N05     Fs1 
	BYTE	W06
	BYTE		        Gs1 
	BYTE	W06
	BYTE		        Dn1 
	BYTE		N05     As1 
	BYTE	W06
	BYTE		        Gs1 
	BYTE	W06
	BYTE	PEND
// 022   ----------------------------------------
	BYTE	PATT
	 POIN2	WreyvineBattle_2_020
// 023   ----------------------------------------
	BYTE	PATT
	 POIN2	WreyvineBattle_2_021
// 024   ----------------------------------------
	BYTE	PATT
	 POIN2	WreyvineBattle_2_020
// 025   ----------------------------------------
	BYTE	PATT
	 POIN2	WreyvineBattle_2_021
// 026   ----------------------------------------
	BYTE	PATT
	 POIN2	WreyvineBattle_2_020
// 027   ----------------------------------------
	BYTE		N05     Cn1   v127
	BYTE		N05     Fs1 
	BYTE	W06
	BYTE		        Gs1 
	BYTE	W06
	BYTE		        As1 
	BYTE	W06
	BYTE		        Gs1 
	BYTE	W06
	BYTE		        En1 
	BYTE		N05     Fs1 
	BYTE	W06
	BYTE		        Gs1 
	BYTE	W06
	BYTE		        As1 
	BYTE	W06
	BYTE		        Gs1 
	BYTE	W06
	BYTE		        Cn1 
	BYTE		N05     Fs1 
	BYTE	W06
	BYTE		        En1 
	BYTE		N05     Gs1 
	BYTE	W06
	BYTE		        As1 
	BYTE	W06
	BYTE		        Gs1 
	BYTE	W06
	BYTE		        En1 
	BYTE		N05     Fs1 
	BYTE	W06
	BYTE		        En1 
	BYTE		N05     Gs1 
	BYTE	W06
	BYTE		        Dn1 
	BYTE		N05     En1 
	BYTE		N05     As1 
	BYTE	W06
	BYTE		        En1 
	BYTE		N05     Gs1 
	BYTE	W06
// 028   ----------------------------------------
	BYTE	PATT
	 POIN2	WreyvineBattle_2_008
// 029   ----------------------------------------
	BYTE	PATT
	 POIN2	WreyvineBattle_2_001
// 030   ----------------------------------------
	BYTE	PATT
	 POIN2	WreyvineBattle_2_001
// 031   ----------------------------------------
	BYTE	PATT
	 POIN2	WreyvineBattle_2_003
// 032   ----------------------------------------
	BYTE	PATT
	 POIN2	WreyvineBattle_2_001
// 033   ----------------------------------------
	BYTE	PATT
	 POIN2	WreyvineBattle_2_001
// 034   ----------------------------------------
	BYTE	PATT
	 POIN2	WreyvineBattle_2_001
// 035   ----------------------------------------
	BYTE	PATT
	 POIN2	WreyvineBattle_2_007
// 036   ----------------------------------------
WreyvineBattle_2_036:
	BYTE		N11     Cn1   v127
	BYTE		N11     As1 
	BYTE	W12
	BYTE		N05     Fs1 
	BYTE	W06
	BYTE		N05   
	BYTE	W06
	BYTE		N11     As1 
	BYTE	W12
	BYTE		N05     Cn1 
	BYTE		N05     Fs1 
	BYTE	W06
	BYTE		N05   
	BYTE	W06
	BYTE		N11     En1 
	BYTE		N11     As1 
	BYTE	W12
	BYTE		N05     Fs1 
	BYTE	W06
	BYTE		N05   
	BYTE	W06
	BYTE		N11     Cn1 
	BYTE		N11     As1 
	BYTE	W12
	BYTE		N05     Fs1 
	BYTE	W06
	BYTE		N05   
	BYTE	W06
	BYTE	PEND
// 037   ----------------------------------------
	BYTE	PATT
	 POIN2	WreyvineBattle_2_036
// 038   ----------------------------------------
	BYTE	PATT
	 POIN2	WreyvineBattle_2_036
// 039   ----------------------------------------
	BYTE		N11     Cn1   v127
	BYTE		N11     As1 
	BYTE	W12
	BYTE		N05     Fs1 
	BYTE	W06
	BYTE		N05   
	BYTE	W06
	BYTE		N11     As1 
	BYTE	W12
	BYTE		N05     Cn1 
	BYTE		N05     Fs1 
	BYTE	W06
	BYTE		N05   
	BYTE	W06
	BYTE		N11     En1 
	BYTE		N11     As1 
	BYTE	W12
	BYTE		N05     Fs1 
	BYTE	W06
	BYTE		N05   
	BYTE	W06
	BYTE		N11     Cn1 
	BYTE		N11     En1 
	BYTE		N11     As1 
	BYTE	W12
	BYTE		N05     En1 
	BYTE		N05     Fs1 
	BYTE	W06
	BYTE		N05   
	BYTE	W05
	BYTE	GoTo
	 POIN2	WreyvineBattle_2_B1
WreyvineBattle_2_B2:
	BYTE	FINE

//**************** Track 3 (Midi-Chn.3) ****************//

WreyvineBattle_3:
	BYTE	KEYSH   WreyvineBattle_key+0
WreyvineBattle_3_B1:
// 000   ----------------------------------------
	BYTE		VOICE   48
	BYTE		MODT    0
	BYTE		LFOS    44
	BYTE		VOL     127*WreyvineBattle_mvl/mxv
	BYTE		PAN     c_v-14
	BYTE		N96     En3   v076
	BYTE		N48     An3 
	BYTE		N48     Cn4 
	BYTE	W48
	BYTE		PAN     c_v-14
	BYTE		N48     Gs3 
	BYTE		N48     Cn4 
	BYTE	W48
// 001   ----------------------------------------
	BYTE		PAN     c_v-14
	BYTE		N48     Fn3 
	BYTE		N96     An3 
	BYTE		N48     Cn4 
	BYTE	W48
	BYTE		PAN     c_v-14
	BYTE		N48     Fs3 
	BYTE		N48     Dn4 
	BYTE	W48
// 002   ----------------------------------------
	BYTE		        Ds3   v100
	BYTE		N96     Gn3   v076
	BYTE		N96     Cn4 
	BYTE	W48
	BYTE		N48     Ds4 
	BYTE	W48
// 003   ----------------------------------------
	BYTE		N36     An3   v088
	BYTE		N36     Cn4 
	BYTE		N36     Fn4 
	BYTE	W48
	BYTE		        Gn3 
	BYTE		N36     Bn3 
	BYTE		N36     Dn4 
	BYTE	W48
// 004   ----------------------------------------
	BYTE		VOL     127*WreyvineBattle_mvl/mxv
	BYTE		PAN     c_v-14
	BYTE		N96     En3   v076
	BYTE		N48     An3 
	BYTE		N48     Cn4 
	BYTE	W48
	BYTE		PAN     c_v-14
	BYTE		N48     Gs3 
	BYTE		N48     Cn4 
	BYTE	W48
// 005   ----------------------------------------
	BYTE		PAN     c_v-14
	BYTE		N48     Fn3 
	BYTE		N96     An3 
	BYTE		N48     Cn4 
	BYTE	W48
	BYTE		PAN     c_v-14
	BYTE		N48     Gs3 
	BYTE		N48     Dn4 
	BYTE	W48
// 006   ----------------------------------------
	BYTE		N96     Gn3 
	BYTE		N96     Cn4 
	BYTE		N48     Ds4   v100
	BYTE	W48
	BYTE		        Bn3   v076
	BYTE	W48
// 007   ----------------------------------------
	BYTE		VOL     127*WreyvineBattle_mvl/mxv
	BYTE		PAN     c_v-14
	BYTE		N96     Cn3 
	BYTE		N48     Gn3 
	BYTE		N48     Cn4 
	BYTE	W48
	BYTE		PAN     c_v-14
	BYTE	W48
// 008   ----------------------------------------
WreyvineBattle_3_008:
	BYTE		N96     En3   v076
	BYTE		N96     Gn3 
	BYTE		TIE     Cn4 
	BYTE	W96
	BYTE	PEND
// 009   ----------------------------------------
WreyvineBattle_3_009:
	BYTE		N96     Dn3   v076
	BYTE		TIE     Fn3 
	BYTE		N96     As3 
	BYTE	W96
	BYTE	PEND
// 010   ----------------------------------------
	BYTE		        An3 
	BYTE	W96
	BYTE		EOT     Fn3 
	BYTE		        Cn4 
// 011   ----------------------------------------
WreyvineBattle_3_011:
	BYTE		N48     Gn3   v076
	BYTE		N90     Bn3 
	BYTE		N90     Dn4 
	BYTE	W48
	BYTE		N48     Fn3 
	BYTE	W48
	BYTE	PEND
// 012   ----------------------------------------
	BYTE	PATT
	 POIN2	WreyvineBattle_3_008
// 013   ----------------------------------------
	BYTE	PATT
	 POIN2	WreyvineBattle_3_009
// 014   ----------------------------------------
	BYTE		N96     An3   v076
	BYTE	W96
	BYTE		EOT     Fn3 
	BYTE		        Cn4 
// 015   ----------------------------------------
WreyvineBattle_3_015:
	BYTE		N48     Gn3   v076
	BYTE		N90     Bn3 
	BYTE		N90     Dn4 
	BYTE	W48
	BYTE		N42     Fn3 
	BYTE	W48
	BYTE	PEND
// 016   ----------------------------------------
WreyvineBattle_3_016:
	BYTE		N96     Gn3   v076
	BYTE		N96     Bn3 
	BYTE		N96     En4 
	BYTE	W96
	BYTE	PEND
// 017   ----------------------------------------
	BYTE		        An3 
	BYTE		N96     Cn4 
	BYTE		N96     Fn4 
	BYTE	W96
// 018   ----------------------------------------
	BYTE	PATT
	 POIN2	WreyvineBattle_3_016
// 019   ----------------------------------------
	BYTE		N90     An3   v076
	BYTE		N90     Cn4 
	BYTE		N90     Fn4 
	BYTE	W96
// 020   ----------------------------------------
	BYTE	W96
// 021   ----------------------------------------
	BYTE	W96
// 022   ----------------------------------------
	BYTE	W96
// 023   ----------------------------------------
	BYTE	W96
// 024   ----------------------------------------
	BYTE	W96
// 025   ----------------------------------------
	BYTE	W96
// 026   ----------------------------------------
	BYTE	W96
// 027   ----------------------------------------
	BYTE	W96
// 028   ----------------------------------------
	BYTE	PATT
	 POIN2	WreyvineBattle_3_008
// 029   ----------------------------------------
	BYTE	PATT
	 POIN2	WreyvineBattle_3_009
// 030   ----------------------------------------
	BYTE		N96     An3   v076
	BYTE	W96
	BYTE		EOT     Fn3 
	BYTE		        Cn4 
// 031   ----------------------------------------
	BYTE	PATT
	 POIN2	WreyvineBattle_3_011
// 032   ----------------------------------------
	BYTE	PATT
	 POIN2	WreyvineBattle_3_008
// 033   ----------------------------------------
	BYTE	PATT
	 POIN2	WreyvineBattle_3_009
// 034   ----------------------------------------
	BYTE		N96     An3   v076
	BYTE	W96
	BYTE		EOT     Fn3 
	BYTE		        Cn4 
// 035   ----------------------------------------
	BYTE	PATT
	 POIN2	WreyvineBattle_3_015
// 036   ----------------------------------------
	BYTE		TIE     En3   v076
	BYTE		N90     Gn3 
	BYTE		N90     Bn3 
	BYTE	W96
// 037   ----------------------------------------
	BYTE		TIE     An3 
	BYTE		TIE     Cn4 
	BYTE	W90
	BYTE		EOT     En3 
	BYTE	W06
// 038   ----------------------------------------
	BYTE		N90     Fn3 
	BYTE	W90
	BYTE		EOT     An3 
	BYTE		        Cn4 
	BYTE	W06
// 039   ----------------------------------------
	BYTE		N90     En3 
	BYTE		N90     Gs3 
	BYTE		N90     Bn3 
	BYTE	W92
	BYTE	W03
	BYTE	GoTo
	 POIN2	WreyvineBattle_3_B1
WreyvineBattle_3_B2:
	BYTE	FINE

//**************** Track 4 (Midi-Chn.4) ****************//

WreyvineBattle_4:
	BYTE	KEYSH   WreyvineBattle_key+0
WreyvineBattle_4_B1:
// 000   ----------------------------------------
	BYTE		VOICE   36
	BYTE		MODT    0
	BYTE		LFOS    44
	BYTE		VOL     98*WreyvineBattle_mvl/mxv
	BYTE		PAN     c_v-8
	BYTE	W96
// 001   ----------------------------------------
	BYTE	W96
// 002   ----------------------------------------
	BYTE	W96
// 003   ----------------------------------------
	BYTE	W96
// 004   ----------------------------------------
	BYTE	W96
// 005   ----------------------------------------
	BYTE	W96
// 006   ----------------------------------------
	BYTE	W96
// 007   ----------------------------------------
	BYTE		N11     Cn2   v127
	BYTE	W12
	BYTE		        An1 
	BYTE	W12
	BYTE		        Fn1 
	BYTE	W12
	BYTE		        An1 
	BYTE	W12
	BYTE		        Bn1 
	BYTE	W12
	BYTE		        An1 
	BYTE	W12
	BYTE		        Gn1 
	BYTE	W12
	BYTE		        Bn1 
	BYTE	W12
// 008   ----------------------------------------
WreyvineBattle_4_008:
	BYTE		N05     Cn2   v127
	BYTE	W06
	BYTE		N11     Cn1 
	BYTE	W12
	BYTE		N05   
	BYTE	W06
	BYTE		        Cn2 
	BYTE	W06
	BYTE		N11     Cn1 
	BYTE	W12
	BYTE		N05   
	BYTE	W06
	BYTE		N11     Gn1 
	BYTE	W12
	BYTE		        Cn2 
	BYTE	W12
	BYTE		        En1 
	BYTE	W12
	BYTE		        Gn1 
	BYTE	W12
	BYTE	PEND
// 009   ----------------------------------------
WreyvineBattle_4_009:
	BYTE		N05     As1   v127
	BYTE	W06
	BYTE		N11     As0 
	BYTE	W12
	BYTE		N05   
	BYTE	W06
	BYTE		        As1 
	BYTE	W06
	BYTE		N11     As0 
	BYTE	W12
	BYTE		N05   
	BYTE	W06
	BYTE		N11     Fn1 
	BYTE	W12
	BYTE		        As1 
	BYTE	W12
	BYTE		        Dn1 
	BYTE	W12
	BYTE		        Fn1 
	BYTE	W12
	BYTE	PEND
// 010   ----------------------------------------
WreyvineBattle_4_010:
	BYTE		N11     An1   v127
	BYTE	W12
	BYTE		        Fn1 
	BYTE	W12
	BYTE		        Cn1 
	BYTE	W12
	BYTE		        Fn1 
	BYTE	W12
	BYTE		        An1 
	BYTE	W12
	BYTE		        Cn2 
	BYTE	W12
	BYTE		        As1 
	BYTE	W12
	BYTE		        An1 
	BYTE	W12
	BYTE	PEND
// 011   ----------------------------------------
WreyvineBattle_4_011:
	BYTE		N11     Gn1   v127
	BYTE	W12
	BYTE		        Dn1 
	BYTE	W12
	BYTE		        Gn1 
	BYTE	W12
	BYTE		        An1 
	BYTE	W12
	BYTE		        Bn1 
	BYTE	W12
	BYTE		        Dn2 
	BYTE	W12
	BYTE		        Bn1 
	BYTE	W12
	BYTE		        Gn1 
	BYTE	W12
	BYTE	PEND
// 012   ----------------------------------------
	BYTE	PATT
	 POIN2	WreyvineBattle_4_008
// 013   ----------------------------------------
	BYTE	PATT
	 POIN2	WreyvineBattle_4_009
// 014   ----------------------------------------
	BYTE	PATT
	 POIN2	WreyvineBattle_4_010
// 015   ----------------------------------------
	BYTE	PATT
	 POIN2	WreyvineBattle_4_011
// 016   ----------------------------------------
WreyvineBattle_4_016:
	BYTE		N04     En1   v127
	BYTE	W12
	BYTE		N04   
	BYTE	W12
	BYTE		        En2 
	BYTE	W06
	BYTE		        En1 
	BYTE	W12
	BYTE		N04   
	BYTE	W06
	BYTE		N04   
	BYTE	W12
	BYTE		N04   
	BYTE	W12
	BYTE		        En2 
	BYTE	W06
	BYTE		        En1 
	BYTE	W12
	BYTE		N04   
	BYTE	W06
	BYTE	PEND
// 017   ----------------------------------------
WreyvineBattle_4_017:
	BYTE		N04     Fn1   v127
	BYTE	W12
	BYTE		N04   
	BYTE	W12
	BYTE		        Fn2 
	BYTE	W06
	BYTE		        Fn1 
	BYTE	W12
	BYTE		N04   
	BYTE	W06
	BYTE		N04   
	BYTE	W12
	BYTE		N04   
	BYTE	W12
	BYTE		        Fn2 
	BYTE	W06
	BYTE		        Fn1 
	BYTE	W12
	BYTE		N04   
	BYTE	W06
	BYTE	PEND
// 018   ----------------------------------------
	BYTE	PATT
	 POIN2	WreyvineBattle_4_016
// 019   ----------------------------------------
	BYTE	PATT
	 POIN2	WreyvineBattle_4_017
// 020   ----------------------------------------
WreyvineBattle_4_020:
	BYTE		N11     En1   v127
	BYTE	W12
	BYTE		N11   
	BYTE	W12
	BYTE		N05     En2 
	BYTE	W06
	BYTE		N11     En1 
	BYTE	W12
	BYTE		N05   
	BYTE	W06
	BYTE		N11   
	BYTE	W12
	BYTE		N11   
	BYTE	W12
	BYTE		N05     En2 
	BYTE	W06
	BYTE		N11     En1 
	BYTE	W12
	BYTE		N05   
	BYTE	W06
	BYTE	PEND
// 021   ----------------------------------------
	BYTE	PATT
	 POIN2	WreyvineBattle_4_020
// 022   ----------------------------------------
	BYTE	PATT
	 POIN2	WreyvineBattle_4_020
// 023   ----------------------------------------
	BYTE	PATT
	 POIN2	WreyvineBattle_4_020
// 024   ----------------------------------------
	BYTE	PATT
	 POIN2	WreyvineBattle_4_020
// 025   ----------------------------------------
	BYTE	PATT
	 POIN2	WreyvineBattle_4_020
// 026   ----------------------------------------
	BYTE	PATT
	 POIN2	WreyvineBattle_4_020
// 027   ----------------------------------------
	BYTE	PATT
	 POIN2	WreyvineBattle_4_020
// 028   ----------------------------------------
	BYTE	PATT
	 POIN2	WreyvineBattle_4_008
// 029   ----------------------------------------
	BYTE	PATT
	 POIN2	WreyvineBattle_4_009
// 030   ----------------------------------------
	BYTE	PATT
	 POIN2	WreyvineBattle_4_010
// 031   ----------------------------------------
	BYTE	PATT
	 POIN2	WreyvineBattle_4_011
// 032   ----------------------------------------
	BYTE	PATT
	 POIN2	WreyvineBattle_4_008
// 033   ----------------------------------------
	BYTE	PATT
	 POIN2	WreyvineBattle_4_009
// 034   ----------------------------------------
	BYTE	PATT
	 POIN2	WreyvineBattle_4_010
// 035   ----------------------------------------
	BYTE	PATT
	 POIN2	WreyvineBattle_4_011
// 036   ----------------------------------------
WreyvineBattle_4_036:
	BYTE		N11     En1   v127
	BYTE	W12
	BYTE		N11   
	BYTE	W12
	BYTE		N11   
	BYTE	W12
	BYTE		N11   
	BYTE	W12
	BYTE		N11   
	BYTE	W12
	BYTE		N11   
	BYTE	W12
	BYTE		N11   
	BYTE	W12
	BYTE		N11   
	BYTE	W12
	BYTE	PEND
// 037   ----------------------------------------
	BYTE	PATT
	 POIN2	WreyvineBattle_4_036
// 038   ----------------------------------------
	BYTE		N11     Fn1   v127
	BYTE	W12
	BYTE		N11   
	BYTE	W12
	BYTE		N11   
	BYTE	W12
	BYTE		N11   
	BYTE	W12
	BYTE		N11   
	BYTE	W12
	BYTE		N11   
	BYTE	W12
	BYTE		N11   
	BYTE	W12
	BYTE		N11   
	BYTE	W12
// 039   ----------------------------------------
	BYTE		        En1 
	BYTE	W12
	BYTE		N11   
	BYTE	W12
	BYTE		N11   
	BYTE	W12
	BYTE		N11   
	BYTE	W12
	BYTE		N11   
	BYTE	W12
	BYTE		N11   
	BYTE	W12
	BYTE		N11   
	BYTE	W12
	BYTE		N11   
	BYTE	W11
	BYTE	GoTo
	 POIN2	WreyvineBattle_4_B1
WreyvineBattle_4_B2:
	BYTE	FINE

//**************** Track 5 (Midi-Chn.5) ****************//

WreyvineBattle_5:
	BYTE	KEYSH   WreyvineBattle_key+0
WreyvineBattle_5_B1:
// 000   ----------------------------------------
	BYTE		VOICE   60
	BYTE		MODT    0
	BYTE		LFOS    44
	BYTE		VOL     95*WreyvineBattle_mvl/mxv
	BYTE		PAN     c_v+15
	BYTE	W96
// 001   ----------------------------------------
	BYTE	W96
// 002   ----------------------------------------
	BYTE	W96
// 003   ----------------------------------------
	BYTE	W96
// 004   ----------------------------------------
	BYTE	W96
// 005   ----------------------------------------
	BYTE	W96
// 006   ----------------------------------------
	BYTE	W96
// 007   ----------------------------------------
	BYTE	W96
// 008   ----------------------------------------
	BYTE	W96
// 009   ----------------------------------------
	BYTE	W96
// 010   ----------------------------------------
	BYTE	W96
// 011   ----------------------------------------
	BYTE	W96
// 012   ----------------------------------------
	BYTE	W96
// 013   ----------------------------------------
	BYTE	W96
// 014   ----------------------------------------
	BYTE	W96
// 015   ----------------------------------------
	BYTE	W96
// 016   ----------------------------------------
	BYTE		N96     En4   v127
	BYTE	W96
// 017   ----------------------------------------
	BYTE		        Fn4 
	BYTE	W96
// 018   ----------------------------------------
	BYTE		        En4 
	BYTE	W96
// 019   ----------------------------------------
	BYTE		N90     Fn4 
	BYTE	W96
// 020   ----------------------------------------
	BYTE	W96
// 021   ----------------------------------------
	BYTE	W96
// 022   ----------------------------------------
	BYTE	W96
// 023   ----------------------------------------
	BYTE	W96
// 024   ----------------------------------------
	BYTE	W96
// 025   ----------------------------------------
	BYTE	W96
// 026   ----------------------------------------
	BYTE	W96
// 027   ----------------------------------------
	BYTE	W96
// 028   ----------------------------------------
	BYTE		N15     Cn4 
	BYTE	W16
	BYTE		        Gn4 
	BYTE	W16
	BYTE		        Fn4 
	BYTE	W16
	BYTE		        En4 
	BYTE	W16
	BYTE		        Dn4 
	BYTE	W16
	BYTE		        En4 
	BYTE	W16
// 029   ----------------------------------------
	BYTE		        Fn4 
	BYTE	W16
	BYTE		        Dn4 
	BYTE	W16
	BYTE		        Fn4 
	BYTE	W16
	BYTE		        As4 
	BYTE	W16
	BYTE		        An4 
	BYTE	W16
	BYTE		        Gn4 
	BYTE	W16
// 030   ----------------------------------------
	BYTE		N32     Fn4 
	BYTE	W36
	BYTE		N05     Cn4 
	BYTE	W06
	BYTE		        Fn4 
	BYTE	W06
	BYTE		N15     An4 
	BYTE	W16
	BYTE		        Gn4 
	BYTE	W16
	BYTE		        Fn4 
	BYTE	W16
// 031   ----------------------------------------
	BYTE		N32     Gn4 
	BYTE	W36
	BYTE		N05     Dn4 
	BYTE	W06
	BYTE		        Bn3 
	BYTE	W06
	BYTE		N42     Dn4 
	BYTE	W48
// 032   ----------------------------------------
	BYTE		N05     Cn4 
	BYTE	W06
	BYTE		        Gn3 
	BYTE	W06
	BYTE		        An3 
	BYTE	W06
	BYTE		        Gn3 
	BYTE	W06
	BYTE		        Cn4 
	BYTE	W06
	BYTE		        Dn4 
	BYTE	W06
	BYTE		        En4 
	BYTE	W06
	BYTE		        Cn4 
	BYTE	W06
	BYTE		N11     Gn4 
	BYTE	W12
	BYTE		        Fn4 
	BYTE	W12
	BYTE		        En4 
	BYTE	W12
	BYTE		        Dn4 
	BYTE	W12
// 033   ----------------------------------------
	BYTE		N32     Cn4 
	BYTE	W36
	BYTE		N05     Dn4 
	BYTE	W06
	BYTE		        Cn4 
	BYTE	W06
	BYTE		N15     As3 
	BYTE	W16
	BYTE		        An3 
	BYTE	W16
	BYTE		        As3 
	BYTE	W16
// 034   ----------------------------------------
	BYTE		        An3 
	BYTE	W16
	BYTE		        Fn3 
	BYTE	W16
	BYTE		        An3 
	BYTE	W16
	BYTE		        Cn4 
	BYTE	W16
	BYTE		        An3 
	BYTE	W16
	BYTE		        Cn4 
	BYTE	W16
// 035   ----------------------------------------
	BYTE		        Dn4 
	BYTE	W16
	BYTE		        Cn4 
	BYTE	W16
	BYTE		        Dn4 
	BYTE	W16
	BYTE		        Fn4 
	BYTE	W16
	BYTE		        En4 
	BYTE	W16
	BYTE		        Fn4 
	BYTE	W16
// 036   ----------------------------------------
	BYTE		N90     En4 
	BYTE	W96
// 037   ----------------------------------------
	BYTE	W96
// 038   ----------------------------------------
	BYTE	W96
// 039   ----------------------------------------
	BYTE	W92
	BYTE	W03
	BYTE	GoTo
	 POIN2	WreyvineBattle_5_B1
WreyvineBattle_5_B2:
	BYTE	FINE

//**************** Track 6 (Midi-Chn.6) ****************//

WreyvineBattle_6:
	BYTE	KEYSH   WreyvineBattle_key+0
WreyvineBattle_6_B1:
// 000   ----------------------------------------
	BYTE		VOICE   40
	BYTE		MODT    0
	BYTE		LFOS    44
	BYTE		VOL     95*WreyvineBattle_mvl/mxv
	BYTE		PAN     c_v-16
	BYTE	W96
// 001   ----------------------------------------
	BYTE	W96
// 002   ----------------------------------------
	BYTE	W96
// 003   ----------------------------------------
	BYTE	W96
// 004   ----------------------------------------
	BYTE	W96
// 005   ----------------------------------------
	BYTE	W96
// 006   ----------------------------------------
	BYTE	W96
// 007   ----------------------------------------
	BYTE	W96
// 008   ----------------------------------------
	BYTE	W96
// 009   ----------------------------------------
	BYTE	W96
// 010   ----------------------------------------
	BYTE	W96
// 011   ----------------------------------------
	BYTE	W96
// 012   ----------------------------------------
	BYTE	W96
// 013   ----------------------------------------
	BYTE	W96
// 014   ----------------------------------------
	BYTE	W96
// 015   ----------------------------------------
	BYTE	W96
// 016   ----------------------------------------
	BYTE		N80     Bn2   v127
	BYTE	W84
	BYTE		N05     An2 
	BYTE	W06
	BYTE		        Bn2 
	BYTE	W06
// 017   ----------------------------------------
	BYTE		N80     Cn3 
	BYTE	W84
	BYTE		N05     Fn3 
	BYTE	W06
	BYTE		        Gn3 
	BYTE	W06
// 018   ----------------------------------------
	BYTE		N80     En3 
	BYTE	W84
	BYTE		N05     Gn3 
	BYTE	W06
	BYTE		        Bn3 
	BYTE	W06
// 019   ----------------------------------------
	BYTE		N80     An3 
	BYTE	W84
	BYTE		N03     Cn4 
	BYTE	W03
	BYTE		        Fn4 
	BYTE	W03
	BYTE		        Gn4 
	BYTE	W03
	BYTE		        An4 
	BYTE	W03
// 020   ----------------------------------------
	BYTE		N32     Bn4 
	BYTE	W36
	BYTE		N05     An4 
	BYTE	W06
	BYTE		        Bn4 
	BYTE	W06
	BYTE		N04     Gn4 
	BYTE	W12
	BYTE		        En4 
	BYTE	W12
	BYTE		        Fs4 
	BYTE	W06
	BYTE		        An4 
	BYTE	W12
	BYTE		N04   
	BYTE	W06
// 021   ----------------------------------------
	BYTE		N05     Gn4 
	BYTE	W06
	BYTE		        Fs4 
	BYTE	W06
	BYTE		        En4 
	BYTE	W06
	BYTE		        Gn4 
	BYTE	W06
	BYTE		        An4 
	BYTE	W06
	BYTE		        Gn4 
	BYTE	W06
	BYTE		        Fs4 
	BYTE	W06
	BYTE		        An4 
	BYTE	W06
	BYTE		N04     Bn4 
	BYTE	W06
	BYTE		        Cn5 
	BYTE	W12
	BYTE		N04   
	BYTE	W06
	BYTE		        Bn4 
	BYTE	W06
	BYTE		        Cn5 
	BYTE	W12
	BYTE		N04   
	BYTE	W06
// 022   ----------------------------------------
	BYTE		N15     Bn4 
	BYTE	W16
	BYTE		        An4 
	BYTE	W16
	BYTE		        Gn4 
	BYTE	W16
	BYTE		        Dn5 
	BYTE	W16
	BYTE		        Cn5 
	BYTE	W16
	BYTE		        Bn4 
	BYTE	W16
// 023   ----------------------------------------
	BYTE		N06     Gn4 
	BYTE	W06
	BYTE		        Fs4 
	BYTE	W06
	BYTE		        En4 
	BYTE	W06
	BYTE		        Gn4 
	BYTE	W06
	BYTE		        Fs4 
	BYTE	W06
	BYTE		        En4 
	BYTE	W06
	BYTE		        Dn4 
	BYTE	W06
	BYTE		        Fs4 
	BYTE	W06
	BYTE		        Gn4 
	BYTE	W06
	BYTE		        An4 
	BYTE	W06
	BYTE		        Bn4 
	BYTE	W06
	BYTE		        An4 
	BYTE	W06
	BYTE		        Gn4 
	BYTE	W06
	BYTE		        En4 
	BYTE	W06
	BYTE		        Fs4 
	BYTE	W06
	BYTE		N42     En4 
	BYTE	W06
// 024   ----------------------------------------
	BYTE	W36
	BYTE		N06     Dn4 
	BYTE	W06
	BYTE		        En4 
	BYTE	W06
	BYTE		N36     Bn3 
	BYTE	W36
	BYTE		N06     Cn4 
	BYTE	W06
	BYTE		        An3 
	BYTE	W06
// 025   ----------------------------------------
	BYTE		        Gn3 
	BYTE	W06
	BYTE		        An3 
	BYTE	W06
	BYTE		        Bn3 
	BYTE	W06
	BYTE		        Gn3 
	BYTE	W06
	BYTE		        Bn3 
	BYTE	W06
	BYTE		        Dn4 
	BYTE	W06
	BYTE		        En4 
	BYTE	W06
	BYTE		        Dn4 
	BYTE	W06
	BYTE		        En4 
	BYTE	W06
	BYTE		        Fs4 
	BYTE	W06
	BYTE		        Gn4 
	BYTE	W06
	BYTE		        En4 
	BYTE	W06
	BYTE		        Gn4 
	BYTE	W06
	BYTE		        An4 
	BYTE	W06
	BYTE		        Bn4 
	BYTE	W06
	BYTE		N05     Gn4 
	BYTE	W06
// 026   ----------------------------------------
	BYTE		N15     En5 
	BYTE	W16
	BYTE		        Dn5 
	BYTE	W16
	BYTE		        Cn5 
	BYTE	W16
	BYTE		        Dn5 
	BYTE	W16
	BYTE		        Cn5 
	BYTE	W16
	BYTE		        Bn4 
	BYTE	W16
// 027   ----------------------------------------
	BYTE		        Cn5 
	BYTE	W16
	BYTE		        Bn4 
	BYTE	W16
	BYTE		        An4 
	BYTE	W16
	BYTE		N11     Gn4 
	BYTE	W12
	BYTE		        En4 
	BYTE	W12
	BYTE		        Fs4 
	BYTE	W12
	BYTE		        En4 
	BYTE	W12
// 028   ----------------------------------------
	BYTE	W96
// 029   ----------------------------------------
	BYTE	W96
// 030   ----------------------------------------
	BYTE	W96
// 031   ----------------------------------------
	BYTE	W96
// 032   ----------------------------------------
	BYTE	W96
// 033   ----------------------------------------
	BYTE	W96
// 034   ----------------------------------------
	BYTE	W96
// 035   ----------------------------------------
	BYTE	W96
// 036   ----------------------------------------
	BYTE	W96
// 037   ----------------------------------------
	BYTE	W96
// 038   ----------------------------------------
	BYTE	W96
// 039   ----------------------------------------
	BYTE	W92
	BYTE	W03
	BYTE	GoTo
	 POIN2	WreyvineBattle_6_B1
WreyvineBattle_6_B2:
	BYTE	FINE

//**************** Track 7 (Midi-Chn.7) ****************//

WreyvineBattle_7:
	BYTE	KEYSH   WreyvineBattle_key+0
WreyvineBattle_7_B1:
// 000   ----------------------------------------
	BYTE		VOICE   46
	BYTE		MODT    0
	BYTE		LFOS    44
	BYTE		VOL     77*WreyvineBattle_mvl/mxv
	BYTE		PAN     c_v-63
	BYTE	W01
	BYTE		        c_v-62
	BYTE	W01
	BYTE		        c_v-61
	BYTE	W01
	BYTE		        c_v-59
	BYTE	W01
	BYTE		        c_v-58
	BYTE	W01
	BYTE		        c_v-57
	BYTE	W01
	BYTE		        c_v-55
	BYTE	W01
	BYTE		        c_v-54
	BYTE	W01
	BYTE		        c_v-53
	BYTE	W01
	BYTE		        c_v-51
	BYTE	W01
	BYTE		        c_v-50
	BYTE	W01
	BYTE		        c_v-49
	BYTE	W01
	BYTE		        c_v-47
	BYTE	W01
	BYTE		        c_v-46
	BYTE	W01
	BYTE		        c_v-45
	BYTE	W01
	BYTE		        c_v-43
	BYTE	W01
	BYTE		        c_v-42
	BYTE	W01
	BYTE		        c_v-41
	BYTE	W01
	BYTE		        c_v-39
	BYTE	W01
	BYTE		        c_v-38
	BYTE	W01
	BYTE		        c_v-37
	BYTE	W01
	BYTE		        c_v-35
	BYTE	W01
	BYTE		        c_v-34
	BYTE	W01
	BYTE		        c_v-33
	BYTE	W01
	BYTE		        c_v-31
	BYTE	W01
	BYTE		        c_v-30
	BYTE	W01
	BYTE		        c_v-29
	BYTE	W01
	BYTE		        c_v-27
	BYTE	W01
	BYTE		        c_v-26
	BYTE	W01
	BYTE		        c_v-25
	BYTE	W01
	BYTE		        c_v-23
	BYTE	W01
	BYTE		        c_v-22
	BYTE	W01
	BYTE		        c_v-21
	BYTE	W01
	BYTE		        c_v-20
	BYTE	W01
	BYTE		        c_v-18
	BYTE	W01
	BYTE		        c_v-17
	BYTE	W01
	BYTE		        c_v-16
	BYTE	W01
	BYTE		        c_v-14
	BYTE	W01
	BYTE		        c_v-13
	BYTE	W01
	BYTE		        c_v-12
	BYTE	W01
	BYTE		        c_v-10
	BYTE	W01
	BYTE		        c_v-9
	BYTE	W01
	BYTE		        c_v-8
	BYTE	W01
	BYTE		        c_v-6
	BYTE	W01
	BYTE		        c_v-5
	BYTE	W01
	BYTE		        c_v-4
	BYTE	W01
	BYTE		        c_v-2
	BYTE	W01
	BYTE		        c_v-1
	BYTE	W01
	BYTE		        c_v+0
	BYTE	W01
	BYTE		        c_v+2
	BYTE	W01
	BYTE		        c_v+3
	BYTE	W01
	BYTE		        c_v+4
	BYTE	W01
	BYTE		        c_v+6
	BYTE	W01
	BYTE		        c_v+7
	BYTE	W01
	BYTE		        c_v+8
	BYTE	W01
	BYTE		        c_v+10
	BYTE	W01
	BYTE		        c_v+11
	BYTE	W01
	BYTE		        c_v+12
	BYTE	W01
	BYTE		        c_v+14
	BYTE	W01
	BYTE		        c_v+15
	BYTE	W01
	BYTE		        c_v+16
	BYTE	W01
	BYTE		        c_v+18
	BYTE	W01
	BYTE		        c_v+19
	BYTE	W01
	BYTE		        c_v+20
	BYTE	W01
	BYTE		        c_v+21
	BYTE	W01
	BYTE		        c_v+23
	BYTE	W01
	BYTE		        c_v+24
	BYTE	W01
	BYTE		        c_v+25
	BYTE	W01
	BYTE		        c_v+27
	BYTE	W01
	BYTE		        c_v+28
	BYTE	W01
	BYTE		        c_v+29
	BYTE	W01
	BYTE		        c_v+31
	BYTE	W01
	BYTE		        c_v+32
	BYTE	W01
	BYTE		        c_v+33
	BYTE	W01
	BYTE		        c_v+35
	BYTE	W01
	BYTE		        c_v+36
	BYTE	W01
	BYTE		        c_v+37
	BYTE	W01
	BYTE		        c_v+39
	BYTE	W01
	BYTE		        c_v+40
	BYTE	W01
	BYTE		        c_v+41
	BYTE	W01
	BYTE		        c_v+43
	BYTE	W01
	BYTE		        c_v+44
	BYTE	W01
	BYTE		        c_v+45
	BYTE	W01
	BYTE		        c_v+47
	BYTE	W01
	BYTE		        c_v+48
	BYTE	W01
	BYTE		        c_v+49
	BYTE	W01
	BYTE		        c_v+51
	BYTE	W01
	BYTE		        c_v+52
	BYTE	W01
	BYTE		        c_v+53
	BYTE	W01
	BYTE		        c_v+55
	BYTE	W01
	BYTE		        c_v+56
	BYTE	W01
	BYTE		        c_v+57
	BYTE	W01
	BYTE		        c_v+59
	BYTE	W01
	BYTE		        c_v+60
	BYTE	W01
	BYTE		        c_v+61
	BYTE	W01
	BYTE		        c_v+62
	BYTE	W01
// 001   ----------------------------------------
	BYTE		        c_v+63
	BYTE	W96
// 002   ----------------------------------------
	BYTE	W96
// 003   ----------------------------------------
	BYTE	W96
// 004   ----------------------------------------
	BYTE	W96
// 005   ----------------------------------------
	BYTE	W96
// 006   ----------------------------------------
	BYTE	W12
	BYTE		        c_v-48
	BYTE	W72
	BYTE		        c_v+48
	BYTE	W01
	BYTE		        c_v+49
	BYTE	W01
	BYTE		        c_v+51
	BYTE	W01
	BYTE		        c_v+52
	BYTE	W01
	BYTE		        c_v+53
	BYTE	W01
	BYTE		        c_v+55
	BYTE	W01
	BYTE		        c_v+56
	BYTE	W01
	BYTE		        c_v+57
	BYTE	W01
	BYTE		        c_v+59
	BYTE	W01
	BYTE		        c_v+60
	BYTE	W01
	BYTE		        c_v+61
	BYTE	W01
	BYTE		        c_v+62
	BYTE	W01
// 007   ----------------------------------------
WreyvineBattle_7_007:
	BYTE		PAN     c_v+62
	BYTE		N05     Cn3   v076
	BYTE	W01
	BYTE		PAN     c_v+61
	BYTE	W01
	BYTE		        c_v+60
	BYTE	W01
	BYTE		        c_v+58
	BYTE	W01
	BYTE		        c_v+57
	BYTE	W01
	BYTE		        c_v+56
	BYTE	W01
	BYTE		        c_v+54
	BYTE		N05     Fn3 
	BYTE	W01
	BYTE		PAN     c_v+53
	BYTE	W01
	BYTE		        c_v+52
	BYTE	W01
	BYTE		        c_v+50
	BYTE	W01
	BYTE		        c_v+49
	BYTE	W01
	BYTE		        c_v+48
	BYTE	W01
	BYTE		        c_v+46
	BYTE		N05     Gn3 
	BYTE	W01
	BYTE		PAN     c_v+45
	BYTE	W01
	BYTE		        c_v+44
	BYTE	W01
	BYTE		        c_v+42
	BYTE	W01
	BYTE		        c_v+41
	BYTE	W01
	BYTE		        c_v+40
	BYTE	W01
	BYTE		        c_v+38
	BYTE		N05     An3 
	BYTE	W01
	BYTE		PAN     c_v+37
	BYTE	W01
	BYTE		        c_v+36
	BYTE	W01
	BYTE		        c_v+34
	BYTE	W01
	BYTE		        c_v+33
	BYTE	W01
	BYTE		        c_v+32
	BYTE	W01
	BYTE		        c_v+30
	BYTE		N05     Cn4 
	BYTE	W01
	BYTE		PAN     c_v+29
	BYTE	W01
	BYTE		        c_v+28
	BYTE	W01
	BYTE		        c_v+26
	BYTE	W01
	BYTE		        c_v+25
	BYTE	W01
	BYTE		        c_v+24
	BYTE	W01
	BYTE		        c_v+22
	BYTE		N05     Fn4 
	BYTE	W01
	BYTE		PAN     c_v+21
	BYTE	W01
	BYTE		        c_v+20
	BYTE	W01
	BYTE		        c_v+19
	BYTE	W01
	BYTE		        c_v+17
	BYTE	W01
	BYTE		        c_v+16
	BYTE	W01
	BYTE		        c_v+15
	BYTE		N05     Gn4 
	BYTE	W01
	BYTE		PAN     c_v+13
	BYTE	W01
	BYTE		        c_v+12
	BYTE	W01
	BYTE		        c_v+11
	BYTE	W01
	BYTE		        c_v+9
	BYTE	W01
	BYTE		        c_v+8
	BYTE	W01
	BYTE		        c_v+7
	BYTE		N05     An4 
	BYTE	W01
	BYTE		PAN     c_v+5
	BYTE	W01
	BYTE		        c_v+4
	BYTE	W01
	BYTE		        c_v+3
	BYTE	W01
	BYTE		        c_v+1
	BYTE	W01
	BYTE		        c_v+0
	BYTE	W01
	BYTE		        c_v-1
	BYTE		N05     Bn4 
	BYTE	W01
	BYTE		PAN     c_v-3
	BYTE	W01
	BYTE		        c_v-4
	BYTE	W01
	BYTE		        c_v-5
	BYTE	W01
	BYTE		        c_v-7
	BYTE	W01
	BYTE		        c_v-8
	BYTE	W01
	BYTE		        c_v-9
	BYTE		N05     Gn4 
	BYTE	W01
	BYTE		PAN     c_v-11
	BYTE	W01
	BYTE		        c_v-12
	BYTE	W01
	BYTE		        c_v-13
	BYTE	W01
	BYTE		        c_v-15
	BYTE	W01
	BYTE		        c_v-16
	BYTE	W01
	BYTE		        c_v-17
	BYTE		N05     Dn4 
	BYTE	W01
	BYTE		PAN     c_v-19
	BYTE	W01
	BYTE		        c_v-20
	BYTE	W01
	BYTE		        c_v-21
	BYTE	W01
	BYTE		        c_v-22
	BYTE	W01
	BYTE		        c_v-24
	BYTE	W01
	BYTE		        c_v-25
	BYTE		N05     Cn4 
	BYTE	W01
	BYTE		PAN     c_v-26
	BYTE	W01
	BYTE		        c_v-28
	BYTE	W01
	BYTE		        c_v-29
	BYTE	W01
	BYTE		        c_v-30
	BYTE	W01
	BYTE		        c_v-32
	BYTE	W01
	BYTE		        c_v-33
	BYTE		N05     Bn3 
	BYTE	W01
	BYTE		PAN     c_v-34
	BYTE	W01
	BYTE		        c_v-36
	BYTE	W01
	BYTE		        c_v-37
	BYTE	W01
	BYTE		        c_v-38
	BYTE	W01
	BYTE		        c_v-40
	BYTE	W01
	BYTE		        c_v-41
	BYTE		N05     Gn3 
	BYTE	W01
	BYTE		PAN     c_v-42
	BYTE	W01
	BYTE		        c_v-44
	BYTE	W01
	BYTE		        c_v-45
	BYTE	W01
	BYTE		        c_v-46
	BYTE	W01
	BYTE		        c_v-48
	BYTE	W01
	BYTE		        c_v-49
	BYTE		N05     Dn3 
	BYTE	W01
	BYTE		PAN     c_v-50
	BYTE	W01
	BYTE		        c_v-52
	BYTE	W01
	BYTE		        c_v-53
	BYTE	W01
	BYTE		        c_v-54
	BYTE	W01
	BYTE		        c_v-56
	BYTE	W01
	BYTE		        c_v-57
	BYTE		N05     Bn2 
	BYTE	W01
	BYTE		PAN     c_v-58
	BYTE	W01
	BYTE		        c_v-60
	BYTE	W01
	BYTE		        c_v-61
	BYTE	W01
	BYTE		        c_v-62
	BYTE	W01
	BYTE		        c_v-63
	BYTE	W01
	BYTE	PEND
// 008   ----------------------------------------
WreyvineBattle_7_008:
	BYTE		PAN     c_v-63
	BYTE		N05     Cn3   v076
	BYTE	W01
	BYTE		PAN     c_v-62
	BYTE	W01
	BYTE		        c_v-61
	BYTE	W01
	BYTE		        c_v-59
	BYTE	W01
	BYTE		        c_v-58
	BYTE	W01
	BYTE		        c_v-57
	BYTE	W01
	BYTE		        c_v-55
	BYTE		N05     En3 
	BYTE	W01
	BYTE		PAN     c_v-54
	BYTE	W01
	BYTE		        c_v-53
	BYTE	W01
	BYTE		        c_v-51
	BYTE	W01
	BYTE		        c_v-50
	BYTE	W01
	BYTE		        c_v-49
	BYTE	W01
	BYTE		        c_v-47
	BYTE		N05     Gn3 
	BYTE	W01
	BYTE		PAN     c_v-46
	BYTE	W01
	BYTE		        c_v-45
	BYTE	W01
	BYTE		        c_v-43
	BYTE	W01
	BYTE		        c_v-42
	BYTE	W01
	BYTE		        c_v-41
	BYTE	W01
	BYTE		        c_v-39
	BYTE		N05     Cn4 
	BYTE	W01
	BYTE		PAN     c_v-38
	BYTE	W01
	BYTE		        c_v-37
	BYTE	W01
	BYTE		        c_v-35
	BYTE	W01
	BYTE		        c_v-34
	BYTE	W01
	BYTE		        c_v-33
	BYTE	W01
	BYTE		        c_v-31
	BYTE		N05     Gn3 
	BYTE	W01
	BYTE		PAN     c_v-30
	BYTE	W01
	BYTE		        c_v-29
	BYTE	W01
	BYTE		        c_v-27
	BYTE	W01
	BYTE		        c_v-26
	BYTE	W01
	BYTE		        c_v-25
	BYTE	W01
	BYTE		        c_v-23
	BYTE		N05     En3 
	BYTE	W01
	BYTE		PAN     c_v-22
	BYTE	W01
	BYTE		        c_v-21
	BYTE	W01
	BYTE		        c_v-20
	BYTE	W01
	BYTE		        c_v-18
	BYTE	W01
	BYTE		        c_v-17
	BYTE	W01
	BYTE		        c_v-16
	BYTE		N05     Cn3 
	BYTE	W01
	BYTE		PAN     c_v-14
	BYTE	W01
	BYTE		        c_v-13
	BYTE	W01
	BYTE		        c_v-12
	BYTE	W01
	BYTE		        c_v-10
	BYTE	W01
	BYTE		        c_v-9
	BYTE	W01
	BYTE		        c_v-8
	BYTE		N05     Gn2 
	BYTE	W01
	BYTE		PAN     c_v-6
	BYTE	W01
	BYTE		        c_v-5
	BYTE	W01
	BYTE		        c_v-4
	BYTE	W01
	BYTE		        c_v-2
	BYTE	W01
	BYTE		        c_v-1
	BYTE	W01
	BYTE		        c_v+0
	BYTE		N05     Cn3 
	BYTE	W01
	BYTE		PAN     c_v+2
	BYTE	W01
	BYTE		        c_v+3
	BYTE	W01
	BYTE		        c_v+4
	BYTE	W01
	BYTE		        c_v+6
	BYTE	W01
	BYTE		        c_v+7
	BYTE	W01
	BYTE		        c_v+8
	BYTE		N05     En3 
	BYTE	W01
	BYTE		PAN     c_v+10
	BYTE	W01
	BYTE		        c_v+11
	BYTE	W01
	BYTE		        c_v+12
	BYTE	W01
	BYTE		        c_v+14
	BYTE	W01
	BYTE		        c_v+15
	BYTE	W01
	BYTE		        c_v+16
	BYTE		N05     Gn3 
	BYTE	W01
	BYTE		PAN     c_v+18
	BYTE	W01
	BYTE		        c_v+19
	BYTE	W01
	BYTE		        c_v+20
	BYTE	W01
	BYTE		        c_v+21
	BYTE	W01
	BYTE		        c_v+23
	BYTE	W01
	BYTE		        c_v+24
	BYTE		N05     Cn4 
	BYTE	W01
	BYTE		PAN     c_v+25
	BYTE	W01
	BYTE		        c_v+27
	BYTE	W01
	BYTE		        c_v+28
	BYTE	W01
	BYTE		        c_v+29
	BYTE	W01
	BYTE		        c_v+31
	BYTE	W01
	BYTE		        c_v+32
	BYTE		N05     Gn3 
	BYTE	W01
	BYTE		PAN     c_v+33
	BYTE	W01
	BYTE		        c_v+35
	BYTE	W01
	BYTE		        c_v+36
	BYTE	W01
	BYTE		        c_v+37
	BYTE	W01
	BYTE		        c_v+39
	BYTE	W01
	BYTE		        c_v+40
	BYTE		N05     En3 
	BYTE	W01
	BYTE		PAN     c_v+41
	BYTE	W01
	BYTE		        c_v+43
	BYTE	W01
	BYTE		        c_v+44
	BYTE	W01
	BYTE		        c_v+45
	BYTE	W01
	BYTE		        c_v+47
	BYTE	W01
	BYTE		        c_v+48
	BYTE		N05     Cn3 
	BYTE	W01
	BYTE		PAN     c_v+49
	BYTE	W01
	BYTE		        c_v+51
	BYTE	W01
	BYTE		        c_v+52
	BYTE	W01
	BYTE		        c_v+53
	BYTE	W01
	BYTE		        c_v+55
	BYTE	W01
	BYTE		        c_v+56
	BYTE		N05     Gn2 
	BYTE	W01
	BYTE		PAN     c_v+57
	BYTE	W01
	BYTE		        c_v+59
	BYTE	W01
	BYTE		        c_v+60
	BYTE	W01
	BYTE		        c_v+61
	BYTE	W01
	BYTE		        c_v+62
	BYTE	W01
	BYTE	PEND
// 009   ----------------------------------------
WreyvineBattle_7_009:
	BYTE		PAN     c_v+62
	BYTE		N05     As2   v076
	BYTE	W01
	BYTE		PAN     c_v+61
	BYTE	W01
	BYTE		        c_v+60
	BYTE	W01
	BYTE		        c_v+58
	BYTE	W01
	BYTE		        c_v+57
	BYTE	W01
	BYTE		        c_v+56
	BYTE	W01
	BYTE		        c_v+54
	BYTE		N05     Cn3 
	BYTE	W01
	BYTE		PAN     c_v+53
	BYTE	W01
	BYTE		        c_v+52
	BYTE	W01
	BYTE		        c_v+50
	BYTE	W01
	BYTE		        c_v+49
	BYTE	W01
	BYTE		        c_v+48
	BYTE	W01
	BYTE		        c_v+46
	BYTE		N05     Dn3 
	BYTE	W01
	BYTE		PAN     c_v+45
	BYTE	W01
	BYTE		        c_v+44
	BYTE	W01
	BYTE		        c_v+42
	BYTE	W01
	BYTE		        c_v+41
	BYTE	W01
	BYTE		        c_v+40
	BYTE	W01
	BYTE		        c_v+38
	BYTE		N05     Fn3 
	BYTE	W01
	BYTE		PAN     c_v+37
	BYTE	W01
	BYTE		        c_v+36
	BYTE	W01
	BYTE		        c_v+34
	BYTE	W01
	BYTE		        c_v+33
	BYTE	W01
	BYTE		        c_v+32
	BYTE	W01
	BYTE		        c_v+30
	BYTE		N05     As3 
	BYTE	W01
	BYTE		PAN     c_v+29
	BYTE	W01
	BYTE		        c_v+28
	BYTE	W01
	BYTE		        c_v+26
	BYTE	W01
	BYTE		        c_v+25
	BYTE	W01
	BYTE		        c_v+24
	BYTE	W01
	BYTE		        c_v+22
	BYTE		N05     Fn3 
	BYTE	W01
	BYTE		PAN     c_v+21
	BYTE	W01
	BYTE		        c_v+20
	BYTE	W01
	BYTE		        c_v+19
	BYTE	W01
	BYTE		        c_v+17
	BYTE	W01
	BYTE		        c_v+16
	BYTE	W01
	BYTE		        c_v+15
	BYTE		N05     Dn3 
	BYTE	W01
	BYTE		PAN     c_v+13
	BYTE	W01
	BYTE		        c_v+12
	BYTE	W01
	BYTE		        c_v+11
	BYTE	W01
	BYTE		        c_v+9
	BYTE	W01
	BYTE		        c_v+8
	BYTE	W01
	BYTE		        c_v+7
	BYTE		N05     Cn3 
	BYTE	W01
	BYTE		PAN     c_v+5
	BYTE	W01
	BYTE		        c_v+4
	BYTE	W01
	BYTE		        c_v+3
	BYTE	W01
	BYTE		        c_v+1
	BYTE	W01
	BYTE		        c_v+0
	BYTE	W01
	BYTE		        c_v-1
	BYTE		N05     As2 
	BYTE	W01
	BYTE		PAN     c_v-3
	BYTE	W01
	BYTE		        c_v-4
	BYTE	W01
	BYTE		        c_v-5
	BYTE	W01
	BYTE		        c_v-7
	BYTE	W01
	BYTE		        c_v-8
	BYTE	W01
	BYTE		        c_v-9
	BYTE		N05     Cn3 
	BYTE	W01
	BYTE		PAN     c_v-11
	BYTE	W01
	BYTE		        c_v-12
	BYTE	W01
	BYTE		        c_v-13
	BYTE	W01
	BYTE		        c_v-15
	BYTE	W01
	BYTE		        c_v-16
	BYTE	W01
	BYTE		        c_v-17
	BYTE		N05     Dn3 
	BYTE	W01
	BYTE		PAN     c_v-19
	BYTE	W01
	BYTE		        c_v-20
	BYTE	W01
	BYTE		        c_v-21
	BYTE	W01
	BYTE		        c_v-22
	BYTE	W01
	BYTE		        c_v-24
	BYTE	W01
	BYTE		        c_v-25
	BYTE		N05     Fn3 
	BYTE	W01
	BYTE		PAN     c_v-26
	BYTE	W01
	BYTE		        c_v-28
	BYTE	W01
	BYTE		        c_v-29
	BYTE	W01
	BYTE		        c_v-30
	BYTE	W01
	BYTE		        c_v-32
	BYTE	W01
	BYTE		        c_v-33
	BYTE		N05     As3 
	BYTE	W01
	BYTE		PAN     c_v-34
	BYTE	W01
	BYTE		        c_v-36
	BYTE	W01
	BYTE		        c_v-37
	BYTE	W01
	BYTE		        c_v-38
	BYTE	W01
	BYTE		        c_v-40
	BYTE	W01
	BYTE		        c_v-41
	BYTE		N05     Fn3 
	BYTE	W01
	BYTE		PAN     c_v-42
	BYTE	W01
	BYTE		        c_v-44
	BYTE	W01
	BYTE		        c_v-45
	BYTE	W01
	BYTE		        c_v-46
	BYTE	W01
	BYTE		        c_v-48
	BYTE	W01
	BYTE		        c_v-49
	BYTE		N05     Dn3 
	BYTE	W01
	BYTE		PAN     c_v-50
	BYTE	W01
	BYTE		        c_v-52
	BYTE	W01
	BYTE		        c_v-53
	BYTE	W01
	BYTE		        c_v-54
	BYTE	W01
	BYTE		        c_v-56
	BYTE	W01
	BYTE		        c_v-57
	BYTE		N05     Cn3 
	BYTE	W01
	BYTE		PAN     c_v-58
	BYTE	W01
	BYTE		        c_v-60
	BYTE	W01
	BYTE		        c_v-61
	BYTE	W01
	BYTE		        c_v-62
	BYTE	W01
	BYTE		        c_v-63
	BYTE	W01
	BYTE	PEND
// 010   ----------------------------------------
WreyvineBattle_7_010:
	BYTE		PAN     c_v-63
	BYTE		N05     Cn3   v076
	BYTE	W01
	BYTE		PAN     c_v-62
	BYTE	W01
	BYTE		        c_v-61
	BYTE	W01
	BYTE		        c_v-59
	BYTE	W01
	BYTE		        c_v-58
	BYTE	W01
	BYTE		        c_v-57
	BYTE	W01
	BYTE		        c_v-55
	BYTE		N05     Fn3 
	BYTE	W01
	BYTE		PAN     c_v-54
	BYTE	W01
	BYTE		        c_v-53
	BYTE	W01
	BYTE		        c_v-51
	BYTE	W01
	BYTE		        c_v-50
	BYTE	W01
	BYTE		        c_v-49
	BYTE	W01
	BYTE		        c_v-47
	BYTE		N05     An3 
	BYTE	W01
	BYTE		PAN     c_v-46
	BYTE	W01
	BYTE		        c_v-45
	BYTE	W01
	BYTE		        c_v-43
	BYTE	W01
	BYTE		        c_v-42
	BYTE	W01
	BYTE		        c_v-41
	BYTE	W01
	BYTE		        c_v-39
	BYTE		N05     Cn4 
	BYTE	W01
	BYTE		PAN     c_v-38
	BYTE	W01
	BYTE		        c_v-37
	BYTE	W01
	BYTE		        c_v-35
	BYTE	W01
	BYTE		        c_v-34
	BYTE	W01
	BYTE		        c_v-33
	BYTE	W01
	BYTE		        c_v-31
	BYTE		N05     An3 
	BYTE	W01
	BYTE		PAN     c_v-30
	BYTE	W01
	BYTE		        c_v-29
	BYTE	W01
	BYTE		        c_v-27
	BYTE	W01
	BYTE		        c_v-26
	BYTE	W01
	BYTE		        c_v-25
	BYTE	W01
	BYTE		        c_v-23
	BYTE		N05     Fn3 
	BYTE	W01
	BYTE		PAN     c_v-22
	BYTE	W01
	BYTE		        c_v-21
	BYTE	W01
	BYTE		        c_v-20
	BYTE	W01
	BYTE		        c_v-18
	BYTE	W01
	BYTE		        c_v-17
	BYTE	W01
	BYTE		        c_v-16
	BYTE		N05     Cn3 
	BYTE	W01
	BYTE		PAN     c_v-14
	BYTE	W01
	BYTE		        c_v-13
	BYTE	W01
	BYTE		        c_v-12
	BYTE	W01
	BYTE		        c_v-10
	BYTE	W01
	BYTE		        c_v-9
	BYTE	W01
	BYTE		        c_v-8
	BYTE		N05     An2 
	BYTE	W01
	BYTE		PAN     c_v-6
	BYTE	W01
	BYTE		        c_v-5
	BYTE	W01
	BYTE		        c_v-4
	BYTE	W01
	BYTE		        c_v-2
	BYTE	W01
	BYTE		        c_v-1
	BYTE	W01
	BYTE		        c_v+0
	BYTE		N05     Cn3 
	BYTE	W01
	BYTE		PAN     c_v+2
	BYTE	W01
	BYTE		        c_v+3
	BYTE	W01
	BYTE		        c_v+4
	BYTE	W01
	BYTE		        c_v+6
	BYTE	W01
	BYTE		        c_v+7
	BYTE	W01
	BYTE		        c_v+8
	BYTE		N05     Fn3 
	BYTE	W01
	BYTE		PAN     c_v+10
	BYTE	W01
	BYTE		        c_v+11
	BYTE	W01
	BYTE		        c_v+12
	BYTE	W01
	BYTE		        c_v+14
	BYTE	W01
	BYTE		        c_v+15
	BYTE	W01
	BYTE		        c_v+16
	BYTE		N05     An3 
	BYTE	W01
	BYTE		PAN     c_v+18
	BYTE	W01
	BYTE		        c_v+19
	BYTE	W01
	BYTE		        c_v+20
	BYTE	W01
	BYTE		        c_v+21
	BYTE	W01
	BYTE		        c_v+23
	BYTE	W01
	BYTE		        c_v+24
	BYTE		N05     Cn4 
	BYTE	W01
	BYTE		PAN     c_v+25
	BYTE	W01
	BYTE		        c_v+27
	BYTE	W01
	BYTE		        c_v+28
	BYTE	W01
	BYTE		        c_v+29
	BYTE	W01
	BYTE		        c_v+31
	BYTE	W01
	BYTE		        c_v+32
	BYTE		N05     An3 
	BYTE	W01
	BYTE		PAN     c_v+33
	BYTE	W01
	BYTE		        c_v+35
	BYTE	W01
	BYTE		        c_v+36
	BYTE	W01
	BYTE		        c_v+37
	BYTE	W01
	BYTE		        c_v+39
	BYTE	W01
	BYTE		        c_v+40
	BYTE		N05     Fn3 
	BYTE	W01
	BYTE		PAN     c_v+41
	BYTE	W01
	BYTE		        c_v+43
	BYTE	W01
	BYTE		        c_v+44
	BYTE	W01
	BYTE		        c_v+45
	BYTE	W01
	BYTE		        c_v+47
	BYTE	W01
	BYTE		        c_v+48
	BYTE		N05     Cn3 
	BYTE	W01
	BYTE		PAN     c_v+49
	BYTE	W01
	BYTE		        c_v+51
	BYTE	W01
	BYTE		        c_v+52
	BYTE	W01
	BYTE		        c_v+53
	BYTE	W01
	BYTE		        c_v+55
	BYTE	W01
	BYTE		        c_v+56
	BYTE		N05     An2 
	BYTE	W01
	BYTE		PAN     c_v+57
	BYTE	W01
	BYTE		        c_v+59
	BYTE	W01
	BYTE		        c_v+60
	BYTE	W01
	BYTE		        c_v+61
	BYTE	W01
	BYTE		        c_v+62
	BYTE	W01
	BYTE	PEND
// 011   ----------------------------------------
WreyvineBattle_7_011:
	BYTE		PAN     c_v+62
	BYTE		N05     Bn2   v076
	BYTE	W01
	BYTE		PAN     c_v+61
	BYTE	W01
	BYTE		        c_v+60
	BYTE	W01
	BYTE		        c_v+58
	BYTE	W01
	BYTE		        c_v+57
	BYTE	W01
	BYTE		        c_v+56
	BYTE	W01
	BYTE		        c_v+54
	BYTE		N05     Dn3 
	BYTE	W01
	BYTE		PAN     c_v+53
	BYTE	W01
	BYTE		        c_v+52
	BYTE	W01
	BYTE		        c_v+50
	BYTE	W01
	BYTE		        c_v+49
	BYTE	W01
	BYTE		        c_v+48
	BYTE	W01
	BYTE		        c_v+46
	BYTE		N05     Gn3 
	BYTE	W01
	BYTE		PAN     c_v+45
	BYTE	W01
	BYTE		        c_v+44
	BYTE	W01
	BYTE		        c_v+42
	BYTE	W01
	BYTE		        c_v+41
	BYTE	W01
	BYTE		        c_v+40
	BYTE	W01
	BYTE		        c_v+38
	BYTE		N05     Bn3 
	BYTE	W01
	BYTE		PAN     c_v+37
	BYTE	W01
	BYTE		        c_v+36
	BYTE	W01
	BYTE		        c_v+34
	BYTE	W01
	BYTE		        c_v+33
	BYTE	W01
	BYTE		        c_v+32
	BYTE	W01
	BYTE		        c_v+30
	BYTE		N05     Gn3 
	BYTE	W01
	BYTE		PAN     c_v+29
	BYTE	W01
	BYTE		        c_v+28
	BYTE	W01
	BYTE		        c_v+26
	BYTE	W01
	BYTE		        c_v+25
	BYTE	W01
	BYTE		        c_v+24
	BYTE	W01
	BYTE		        c_v+22
	BYTE		N05     Dn3 
	BYTE	W01
	BYTE		PAN     c_v+21
	BYTE	W01
	BYTE		        c_v+20
	BYTE	W01
	BYTE		        c_v+19
	BYTE	W01
	BYTE		        c_v+17
	BYTE	W01
	BYTE		        c_v+16
	BYTE	W01
	BYTE		        c_v+15
	BYTE		N05     Bn2 
	BYTE	W01
	BYTE		PAN     c_v+13
	BYTE	W01
	BYTE		        c_v+12
	BYTE	W01
	BYTE		        c_v+11
	BYTE	W01
	BYTE		        c_v+9
	BYTE	W01
	BYTE		        c_v+8
	BYTE	W01
	BYTE		        c_v+7
	BYTE		N05     Gn2 
	BYTE	W01
	BYTE		PAN     c_v+5
	BYTE	W01
	BYTE		        c_v+4
	BYTE	W01
	BYTE		        c_v+3
	BYTE	W01
	BYTE		        c_v+1
	BYTE	W01
	BYTE		        c_v+0
	BYTE	W01
	BYTE		        c_v-1
	BYTE		N05     Bn2 
	BYTE	W01
	BYTE		PAN     c_v-3
	BYTE	W01
	BYTE		        c_v-4
	BYTE	W01
	BYTE		        c_v-5
	BYTE	W01
	BYTE		        c_v-7
	BYTE	W01
	BYTE		        c_v-8
	BYTE	W01
	BYTE		        c_v-9
	BYTE		N05     Dn3 
	BYTE	W01
	BYTE		PAN     c_v-11
	BYTE	W01
	BYTE		        c_v-12
	BYTE	W01
	BYTE		        c_v-13
	BYTE	W01
	BYTE		        c_v-15
	BYTE	W01
	BYTE		        c_v-16
	BYTE	W01
	BYTE		        c_v-17
	BYTE		N05     Fn3 
	BYTE	W01
	BYTE		PAN     c_v-19
	BYTE	W01
	BYTE		        c_v-20
	BYTE	W01
	BYTE		        c_v-21
	BYTE	W01
	BYTE		        c_v-22
	BYTE	W01
	BYTE		        c_v-24
	BYTE	W01
	BYTE		        c_v-25
	BYTE		N05     Bn3 
	BYTE	W01
	BYTE		PAN     c_v-26
	BYTE	W01
	BYTE		        c_v-28
	BYTE	W01
	BYTE		        c_v-29
	BYTE	W01
	BYTE		        c_v-30
	BYTE	W01
	BYTE		        c_v-32
	BYTE	W01
	BYTE		        c_v-33
	BYTE		N05     Fn3 
	BYTE	W01
	BYTE		PAN     c_v-34
	BYTE	W01
	BYTE		        c_v-36
	BYTE	W01
	BYTE		        c_v-37
	BYTE	W01
	BYTE		        c_v-38
	BYTE	W01
	BYTE		        c_v-40
	BYTE	W01
	BYTE		        c_v-41
	BYTE		N05     Dn3 
	BYTE	W01
	BYTE		PAN     c_v-42
	BYTE	W01
	BYTE		        c_v-44
	BYTE	W01
	BYTE		        c_v-45
	BYTE	W01
	BYTE		        c_v-46
	BYTE	W01
	BYTE		        c_v-48
	BYTE	W01
	BYTE		        c_v-49
	BYTE		N05     Bn2 
	BYTE	W01
	BYTE		PAN     c_v-50
	BYTE	W01
	BYTE		        c_v-52
	BYTE	W01
	BYTE		        c_v-53
	BYTE	W01
	BYTE		        c_v-54
	BYTE	W01
	BYTE		        c_v-56
	BYTE	W01
	BYTE		        c_v-57
	BYTE		N05     Fn2 
	BYTE	W01
	BYTE		PAN     c_v-58
	BYTE	W01
	BYTE		        c_v-60
	BYTE	W01
	BYTE		        c_v-61
	BYTE	W01
	BYTE		        c_v-62
	BYTE	W01
	BYTE		        c_v-63
	BYTE	W01
	BYTE	PEND
// 012   ----------------------------------------
	BYTE	PATT
	 POIN2	WreyvineBattle_7_008
// 013   ----------------------------------------
	BYTE	PATT
	 POIN2	WreyvineBattle_7_009
// 014   ----------------------------------------
	BYTE	PATT
	 POIN2	WreyvineBattle_7_010
// 015   ----------------------------------------
	BYTE	PATT
	 POIN2	WreyvineBattle_7_011
// 016   ----------------------------------------
	BYTE		VOL     77*WreyvineBattle_mvl/mxv
	BYTE		PAN     c_v-63
	BYTE		N05     An2   v076
	BYTE	W01
	BYTE		PAN     c_v-62
	BYTE	W01
	BYTE		        c_v-61
	BYTE	W01
	BYTE		        c_v-59
	BYTE	W01
	BYTE		        c_v-58
	BYTE	W01
	BYTE		        c_v-57
	BYTE	W01
	BYTE		        c_v-55
	BYTE		N05     Bn2 
	BYTE	W01
	BYTE		PAN     c_v-54
	BYTE	W01
	BYTE		        c_v-53
	BYTE	W01
	BYTE		        c_v-51
	BYTE	W01
	BYTE		        c_v-50
	BYTE	W01
	BYTE		        c_v-49
	BYTE	W01
	BYTE		        c_v-47
	BYTE		N05     Cn3 
	BYTE	W01
	BYTE		PAN     c_v-46
	BYTE	W01
	BYTE		        c_v-45
	BYTE	W01
	BYTE		        c_v-43
	BYTE	W01
	BYTE		        c_v-42
	BYTE	W01
	BYTE		        c_v-41
	BYTE	W01
	BYTE		        c_v-39
	BYTE		N05     En3 
	BYTE	W01
	BYTE		PAN     c_v-38
	BYTE	W01
	BYTE		        c_v-37
	BYTE	W01
	BYTE		        c_v-35
	BYTE	W01
	BYTE		        c_v-34
	BYTE	W01
	BYTE		        c_v-33
	BYTE	W01
	BYTE		        c_v-31
	BYTE		N05     An3 
	BYTE	W01
	BYTE		PAN     c_v-30
	BYTE	W01
	BYTE		        c_v-29
	BYTE	W01
	BYTE		        c_v-27
	BYTE	W01
	BYTE		        c_v-26
	BYTE	W01
	BYTE		        c_v-25
	BYTE	W01
	BYTE		        c_v-23
	BYTE		N05     Bn3 
	BYTE	W01
	BYTE		PAN     c_v-22
	BYTE	W01
	BYTE		        c_v-21
	BYTE	W01
	BYTE		        c_v-20
	BYTE	W01
	BYTE		        c_v-18
	BYTE	W01
	BYTE		        c_v-17
	BYTE	W01
	BYTE		        c_v-16
	BYTE		N05     Cn4 
	BYTE	W01
	BYTE		PAN     c_v-14
	BYTE	W01
	BYTE		        c_v-13
	BYTE	W01
	BYTE		        c_v-12
	BYTE	W01
	BYTE		        c_v-10
	BYTE	W01
	BYTE		        c_v-9
	BYTE	W01
	BYTE		        c_v-8
	BYTE		N05     En4 
	BYTE	W01
	BYTE		PAN     c_v-6
	BYTE	W01
	BYTE		        c_v-5
	BYTE	W01
	BYTE		        c_v-4
	BYTE	W01
	BYTE		        c_v-2
	BYTE	W01
	BYTE		        c_v-1
	BYTE	W01
	BYTE		        c_v+0
	BYTE		N05     An4 
	BYTE	W01
	BYTE		PAN     c_v+2
	BYTE	W01
	BYTE		        c_v+3
	BYTE	W01
	BYTE		        c_v+4
	BYTE	W01
	BYTE		        c_v+6
	BYTE	W01
	BYTE		        c_v+7
	BYTE	W01
	BYTE		        c_v+8
	BYTE		N05     En4 
	BYTE	W01
	BYTE		PAN     c_v+10
	BYTE	W01
	BYTE		        c_v+11
	BYTE	W01
	BYTE		        c_v+12
	BYTE	W01
	BYTE		        c_v+14
	BYTE	W01
	BYTE		        c_v+15
	BYTE	W01
	BYTE		        c_v+16
	BYTE		N05     Cn4 
	BYTE	W01
	BYTE		PAN     c_v+18
	BYTE	W01
	BYTE		        c_v+19
	BYTE	W01
	BYTE		        c_v+20
	BYTE	W01
	BYTE		        c_v+21
	BYTE	W01
	BYTE		        c_v+23
	BYTE	W01
	BYTE		        c_v+24
	BYTE		N05     Bn3 
	BYTE	W01
	BYTE		PAN     c_v+25
	BYTE	W01
	BYTE		        c_v+27
	BYTE	W01
	BYTE		        c_v+28
	BYTE	W01
	BYTE		        c_v+29
	BYTE	W01
	BYTE		        c_v+31
	BYTE	W01
	BYTE		        c_v+32
	BYTE		N05     An3 
	BYTE	W01
	BYTE		PAN     c_v+33
	BYTE	W01
	BYTE		        c_v+35
	BYTE	W01
	BYTE		        c_v+36
	BYTE	W01
	BYTE		        c_v+37
	BYTE	W01
	BYTE		        c_v+39
	BYTE	W01
	BYTE		        c_v+40
	BYTE		N05     En3 
	BYTE	W01
	BYTE		PAN     c_v+41
	BYTE	W01
	BYTE		        c_v+43
	BYTE	W01
	BYTE		        c_v+44
	BYTE	W01
	BYTE		        c_v+45
	BYTE	W01
	BYTE		        c_v+47
	BYTE	W01
	BYTE		        c_v+48
	BYTE		N05     Cn3 
	BYTE	W01
	BYTE		PAN     c_v+49
	BYTE	W01
	BYTE		        c_v+51
	BYTE	W01
	BYTE		        c_v+52
	BYTE	W01
	BYTE		        c_v+53
	BYTE	W01
	BYTE		        c_v+55
	BYTE	W01
	BYTE		        c_v+56
	BYTE		N05     An2 
	BYTE	W01
	BYTE		PAN     c_v+57
	BYTE	W01
	BYTE		        c_v+59
	BYTE	W01
	BYTE		        c_v+60
	BYTE	W01
	BYTE		        c_v+61
	BYTE	W01
	BYTE		        c_v+62
	BYTE	W01
// 017   ----------------------------------------
WreyvineBattle_7_017:
	BYTE		PAN     c_v+62
	BYTE		N05     An2   v076
	BYTE	W01
	BYTE		PAN     c_v+61
	BYTE	W01
	BYTE		        c_v+60
	BYTE	W01
	BYTE		        c_v+58
	BYTE	W01
	BYTE		        c_v+57
	BYTE	W01
	BYTE		        c_v+56
	BYTE	W01
	BYTE		        c_v+54
	BYTE		N05     Cn3 
	BYTE	W01
	BYTE		PAN     c_v+53
	BYTE	W01
	BYTE		        c_v+52
	BYTE	W01
	BYTE		        c_v+50
	BYTE	W01
	BYTE		        c_v+49
	BYTE	W01
	BYTE		        c_v+48
	BYTE	W01
	BYTE		        c_v+46
	BYTE		N05     Fn3 
	BYTE	W01
	BYTE		PAN     c_v+45
	BYTE	W01
	BYTE		        c_v+44
	BYTE	W01
	BYTE		        c_v+42
	BYTE	W01
	BYTE		        c_v+41
	BYTE	W01
	BYTE		        c_v+40
	BYTE	W01
	BYTE		        c_v+38
	BYTE		N05     Gn3 
	BYTE	W01
	BYTE		PAN     c_v+37
	BYTE	W01
	BYTE		        c_v+36
	BYTE	W01
	BYTE		        c_v+34
	BYTE	W01
	BYTE		        c_v+33
	BYTE	W01
	BYTE		        c_v+32
	BYTE	W01
	BYTE		        c_v+30
	BYTE		N05     An3 
	BYTE	W01
	BYTE		PAN     c_v+29
	BYTE	W01
	BYTE		        c_v+28
	BYTE	W01
	BYTE		        c_v+26
	BYTE	W01
	BYTE		        c_v+25
	BYTE	W01
	BYTE		        c_v+24
	BYTE	W01
	BYTE		        c_v+22
	BYTE		N05     Cn4 
	BYTE	W01
	BYTE		PAN     c_v+21
	BYTE	W01
	BYTE		        c_v+20
	BYTE	W01
	BYTE		        c_v+19
	BYTE	W01
	BYTE		        c_v+17
	BYTE	W01
	BYTE		        c_v+16
	BYTE	W01
	BYTE		        c_v+15
	BYTE		N05     Fn4 
	BYTE	W01
	BYTE		PAN     c_v+13
	BYTE	W01
	BYTE		        c_v+12
	BYTE	W01
	BYTE		        c_v+11
	BYTE	W01
	BYTE		        c_v+9
	BYTE	W01
	BYTE		        c_v+8
	BYTE	W01
	BYTE		        c_v+7
	BYTE		N05     Gn4 
	BYTE	W01
	BYTE		PAN     c_v+5
	BYTE	W01
	BYTE		        c_v+4
	BYTE	W01
	BYTE		        c_v+3
	BYTE	W01
	BYTE		        c_v+1
	BYTE	W01
	BYTE		        c_v+0
	BYTE	W01
	BYTE		        c_v-1
	BYTE		N05     An4 
	BYTE	W01
	BYTE		PAN     c_v-3
	BYTE	W01
	BYTE		        c_v-4
	BYTE	W01
	BYTE		        c_v-5
	BYTE	W01
	BYTE		        c_v-7
	BYTE	W01
	BYTE		        c_v-8
	BYTE	W01
	BYTE		        c_v-9
	BYTE		N05     Fs4 
	BYTE	W01
	BYTE		PAN     c_v-11
	BYTE	W01
	BYTE		        c_v-12
	BYTE	W01
	BYTE		        c_v-13
	BYTE	W01
	BYTE		        c_v-15
	BYTE	W01
	BYTE		        c_v-16
	BYTE	W01
	BYTE		        c_v-17
	BYTE		N05     En4 
	BYTE	W01
	BYTE		PAN     c_v-19
	BYTE	W01
	BYTE		        c_v-20
	BYTE	W01
	BYTE		        c_v-21
	BYTE	W01
	BYTE		        c_v-22
	BYTE	W01
	BYTE		        c_v-24
	BYTE	W01
	BYTE		        c_v-25
	BYTE		N05     Dn4 
	BYTE	W01
	BYTE		PAN     c_v-26
	BYTE	W01
	BYTE		        c_v-28
	BYTE	W01
	BYTE		        c_v-29
	BYTE	W01
	BYTE		        c_v-30
	BYTE	W01
	BYTE		        c_v-32
	BYTE	W01
	BYTE		        c_v-33
	BYTE		N05     An3 
	BYTE	W01
	BYTE		PAN     c_v-34
	BYTE	W01
	BYTE		        c_v-36
	BYTE	W01
	BYTE		        c_v-37
	BYTE	W01
	BYTE		        c_v-38
	BYTE	W01
	BYTE		        c_v-40
	BYTE	W01
	BYTE		        c_v-41
	BYTE		N05     Fs3 
	BYTE	W01
	BYTE		PAN     c_v-42
	BYTE	W01
	BYTE		        c_v-44
	BYTE	W01
	BYTE		        c_v-45
	BYTE	W01
	BYTE		        c_v-46
	BYTE	W01
	BYTE		        c_v-48
	BYTE	W01
	BYTE		        c_v-49
	BYTE		N05     En3 
	BYTE	W01
	BYTE		PAN     c_v-50
	BYTE	W01
	BYTE		        c_v-52
	BYTE	W01
	BYTE		        c_v-53
	BYTE	W01
	BYTE		        c_v-54
	BYTE	W01
	BYTE		        c_v-56
	BYTE	W01
	BYTE		        c_v-57
	BYTE		N05     Dn3 
	BYTE	W01
	BYTE		PAN     c_v-58
	BYTE	W01
	BYTE		        c_v-60
	BYTE	W01
	BYTE		        c_v-61
	BYTE	W01
	BYTE		        c_v-62
	BYTE	W01
	BYTE		        c_v-63
	BYTE	W01
	BYTE	PEND
// 018   ----------------------------------------
WreyvineBattle_7_018:
	BYTE		PAN     c_v-63
	BYTE		N05     Bn2   v076
	BYTE	W01
	BYTE		PAN     c_v-62
	BYTE	W01
	BYTE		        c_v-61
	BYTE	W01
	BYTE		        c_v-59
	BYTE	W01
	BYTE		        c_v-58
	BYTE	W01
	BYTE		        c_v-57
	BYTE	W01
	BYTE		        c_v-55
	BYTE		N05     En3 
	BYTE	W01
	BYTE		PAN     c_v-54
	BYTE	W01
	BYTE		        c_v-53
	BYTE	W01
	BYTE		        c_v-51
	BYTE	W01
	BYTE		        c_v-50
	BYTE	W01
	BYTE		        c_v-49
	BYTE	W01
	BYTE		        c_v-47
	BYTE		N05     Gn3 
	BYTE	W01
	BYTE		PAN     c_v-46
	BYTE	W01
	BYTE		        c_v-45
	BYTE	W01
	BYTE		        c_v-43
	BYTE	W01
	BYTE		        c_v-42
	BYTE	W01
	BYTE		        c_v-41
	BYTE	W01
	BYTE		        c_v-39
	BYTE		N05     An3 
	BYTE	W01
	BYTE		PAN     c_v-38
	BYTE	W01
	BYTE		        c_v-37
	BYTE	W01
	BYTE		        c_v-35
	BYTE	W01
	BYTE		        c_v-34
	BYTE	W01
	BYTE		        c_v-33
	BYTE	W01
	BYTE		        c_v-31
	BYTE		N05     Bn3 
	BYTE	W01
	BYTE		PAN     c_v-30
	BYTE	W01
	BYTE		        c_v-29
	BYTE	W01
	BYTE		        c_v-27
	BYTE	W01
	BYTE		        c_v-26
	BYTE	W01
	BYTE		        c_v-25
	BYTE	W01
	BYTE		        c_v-23
	BYTE		N05     En4 
	BYTE	W01
	BYTE		PAN     c_v-22
	BYTE	W01
	BYTE		        c_v-21
	BYTE	W01
	BYTE		        c_v-20
	BYTE	W01
	BYTE		        c_v-18
	BYTE	W01
	BYTE		        c_v-17
	BYTE	W01
	BYTE		        c_v-16
	BYTE		N05     Gn4 
	BYTE	W01
	BYTE		PAN     c_v-14
	BYTE	W01
	BYTE		        c_v-13
	BYTE	W01
	BYTE		        c_v-12
	BYTE	W01
	BYTE		        c_v-10
	BYTE	W01
	BYTE		        c_v-9
	BYTE	W01
	BYTE		        c_v-8
	BYTE		N05     Bn4 
	BYTE	W01
	BYTE		PAN     c_v-6
	BYTE	W01
	BYTE		        c_v-5
	BYTE	W01
	BYTE		        c_v-4
	BYTE	W01
	BYTE		        c_v-2
	BYTE	W01
	BYTE		        c_v-1
	BYTE	W01
	BYTE		        c_v+0
	BYTE		N05     En5 
	BYTE	W01
	BYTE		PAN     c_v+2
	BYTE	W01
	BYTE		        c_v+3
	BYTE	W01
	BYTE		        c_v+4
	BYTE	W01
	BYTE		        c_v+6
	BYTE	W01
	BYTE		        c_v+7
	BYTE	W01
	BYTE		        c_v+8
	BYTE		N05     An4 
	BYTE	W01
	BYTE		PAN     c_v+10
	BYTE	W01
	BYTE		        c_v+11
	BYTE	W01
	BYTE		        c_v+12
	BYTE	W01
	BYTE		        c_v+14
	BYTE	W01
	BYTE		        c_v+15
	BYTE	W01
	BYTE		        c_v+16
	BYTE		N05     Gn4 
	BYTE	W01
	BYTE		PAN     c_v+18
	BYTE	W01
	BYTE		        c_v+19
	BYTE	W01
	BYTE		        c_v+20
	BYTE	W01
	BYTE		        c_v+21
	BYTE	W01
	BYTE		        c_v+23
	BYTE	W01
	BYTE		        c_v+24
	BYTE		N05     En4 
	BYTE	W01
	BYTE		PAN     c_v+25
	BYTE	W01
	BYTE		        c_v+27
	BYTE	W01
	BYTE		        c_v+28
	BYTE	W01
	BYTE		        c_v+29
	BYTE	W01
	BYTE		        c_v+31
	BYTE	W01
	BYTE		        c_v+32
	BYTE		N05     Bn3 
	BYTE	W01
	BYTE		PAN     c_v+33
	BYTE	W01
	BYTE		        c_v+35
	BYTE	W01
	BYTE		        c_v+36
	BYTE	W01
	BYTE		        c_v+37
	BYTE	W01
	BYTE		        c_v+39
	BYTE	W01
	BYTE		        c_v+40
	BYTE		N05     An3 
	BYTE	W01
	BYTE		PAN     c_v+41
	BYTE	W01
	BYTE		        c_v+43
	BYTE	W01
	BYTE		        c_v+44
	BYTE	W01
	BYTE		        c_v+45
	BYTE	W01
	BYTE		        c_v+47
	BYTE	W01
	BYTE		        c_v+48
	BYTE		N05     Gn3 
	BYTE	W01
	BYTE		PAN     c_v+49
	BYTE	W01
	BYTE		        c_v+51
	BYTE	W01
	BYTE		        c_v+52
	BYTE	W01
	BYTE		        c_v+53
	BYTE	W01
	BYTE		        c_v+55
	BYTE	W01
	BYTE		        c_v+56
	BYTE		N05     En3 
	BYTE	W01
	BYTE		PAN     c_v+57
	BYTE	W01
	BYTE		        c_v+59
	BYTE	W01
	BYTE		        c_v+60
	BYTE	W01
	BYTE		        c_v+61
	BYTE	W01
	BYTE		        c_v+62
	BYTE	W01
	BYTE	PEND
// 019   ----------------------------------------
	BYTE	PATT
	 POIN2	WreyvineBattle_7_007
// 020   ----------------------------------------
	BYTE		PAN     c_v-63
	BYTE		N05     An2   v076
	BYTE	W01
	BYTE		PAN     c_v-62
	BYTE	W01
	BYTE		        c_v-61
	BYTE	W01
	BYTE		        c_v-59
	BYTE	W01
	BYTE		        c_v-58
	BYTE	W01
	BYTE		        c_v-57
	BYTE	W01
	BYTE		        c_v-55
	BYTE		N05     Bn2 
	BYTE	W01
	BYTE		PAN     c_v-54
	BYTE	W01
	BYTE		        c_v-53
	BYTE	W01
	BYTE		        c_v-51
	BYTE	W01
	BYTE		        c_v-50
	BYTE	W01
	BYTE		        c_v-49
	BYTE	W01
	BYTE		        c_v-47
	BYTE		N05     Cn3 
	BYTE	W01
	BYTE		PAN     c_v-46
	BYTE	W01
	BYTE		        c_v-45
	BYTE	W01
	BYTE		        c_v-43
	BYTE	W01
	BYTE		        c_v-42
	BYTE	W01
	BYTE		        c_v-41
	BYTE	W01
	BYTE		        c_v-39
	BYTE		N05     En3 
	BYTE	W01
	BYTE		PAN     c_v-38
	BYTE	W01
	BYTE		        c_v-37
	BYTE	W01
	BYTE		        c_v-35
	BYTE	W01
	BYTE		        c_v-34
	BYTE	W01
	BYTE		        c_v-33
	BYTE	W01
	BYTE		        c_v-31
	BYTE		N05     An3 
	BYTE	W01
	BYTE		PAN     c_v-30
	BYTE	W01
	BYTE		        c_v-29
	BYTE	W01
	BYTE		        c_v-27
	BYTE	W01
	BYTE		        c_v-26
	BYTE	W01
	BYTE		        c_v-25
	BYTE	W01
	BYTE		        c_v-23
	BYTE		N05     Bn3 
	BYTE	W01
	BYTE		PAN     c_v-22
	BYTE	W01
	BYTE		        c_v-21
	BYTE	W01
	BYTE		        c_v-20
	BYTE	W01
	BYTE		        c_v-18
	BYTE	W01
	BYTE		        c_v-17
	BYTE	W01
	BYTE		        c_v-16
	BYTE		N05     Cn4 
	BYTE	W01
	BYTE		PAN     c_v-14
	BYTE	W01
	BYTE		        c_v-13
	BYTE	W01
	BYTE		        c_v-12
	BYTE	W01
	BYTE		        c_v-10
	BYTE	W01
	BYTE		        c_v-9
	BYTE	W01
	BYTE		        c_v-8
	BYTE		N05     En4 
	BYTE	W01
	BYTE		PAN     c_v-6
	BYTE	W01
	BYTE		        c_v-5
	BYTE	W01
	BYTE		        c_v-4
	BYTE	W01
	BYTE		        c_v-2
	BYTE	W01
	BYTE		        c_v-1
	BYTE	W01
	BYTE		        c_v+0
	BYTE		N05     An4 
	BYTE	W01
	BYTE		PAN     c_v+2
	BYTE	W01
	BYTE		        c_v+3
	BYTE	W01
	BYTE		        c_v+4
	BYTE	W01
	BYTE		        c_v+6
	BYTE	W01
	BYTE		        c_v+7
	BYTE	W01
	BYTE		        c_v+8
	BYTE		N05     En4 
	BYTE	W01
	BYTE		PAN     c_v+10
	BYTE	W01
	BYTE		        c_v+11
	BYTE	W01
	BYTE		        c_v+12
	BYTE	W01
	BYTE		        c_v+14
	BYTE	W01
	BYTE		        c_v+15
	BYTE	W01
	BYTE		        c_v+16
	BYTE		N05     Cn4 
	BYTE	W01
	BYTE		PAN     c_v+18
	BYTE	W01
	BYTE		        c_v+19
	BYTE	W01
	BYTE		        c_v+20
	BYTE	W01
	BYTE		        c_v+21
	BYTE	W01
	BYTE		        c_v+23
	BYTE	W01
	BYTE		        c_v+24
	BYTE		N05     Bn3 
	BYTE	W01
	BYTE		PAN     c_v+25
	BYTE	W01
	BYTE		        c_v+27
	BYTE	W01
	BYTE		        c_v+28
	BYTE	W01
	BYTE		        c_v+29
	BYTE	W01
	BYTE		        c_v+31
	BYTE	W01
	BYTE		        c_v+32
	BYTE		N05     An3 
	BYTE	W01
	BYTE		PAN     c_v+33
	BYTE	W01
	BYTE		        c_v+35
	BYTE	W01
	BYTE		        c_v+36
	BYTE	W01
	BYTE		        c_v+37
	BYTE	W01
	BYTE		        c_v+39
	BYTE	W01
	BYTE		        c_v+40
	BYTE		N05     En3 
	BYTE	W01
	BYTE		PAN     c_v+41
	BYTE	W01
	BYTE		        c_v+43
	BYTE	W01
	BYTE		        c_v+44
	BYTE	W01
	BYTE		        c_v+45
	BYTE	W01
	BYTE		        c_v+47
	BYTE	W01
	BYTE		        c_v+48
	BYTE		N05     Cn3 
	BYTE	W01
	BYTE		PAN     c_v+49
	BYTE	W01
	BYTE		        c_v+51
	BYTE	W01
	BYTE		        c_v+52
	BYTE	W01
	BYTE		        c_v+53
	BYTE	W01
	BYTE		        c_v+55
	BYTE	W01
	BYTE		        c_v+56
	BYTE		N05     An2 
	BYTE	W01
	BYTE		PAN     c_v+57
	BYTE	W01
	BYTE		        c_v+59
	BYTE	W01
	BYTE		        c_v+60
	BYTE	W01
	BYTE		        c_v+61
	BYTE	W01
	BYTE		        c_v+62
	BYTE	W01
// 021   ----------------------------------------
	BYTE	PATT
	 POIN2	WreyvineBattle_7_017
// 022   ----------------------------------------
	BYTE	PATT
	 POIN2	WreyvineBattle_7_018
// 023   ----------------------------------------
	BYTE	PATT
	 POIN2	WreyvineBattle_7_007
// 024   ----------------------------------------
	BYTE		PAN     c_v-64
	BYTE	W96
// 025   ----------------------------------------
	BYTE	W96
// 026   ----------------------------------------
	BYTE	W96
// 027   ----------------------------------------
	BYTE	W96
// 028   ----------------------------------------
	BYTE	PATT
	 POIN2	WreyvineBattle_7_008
// 029   ----------------------------------------
	BYTE	PATT
	 POIN2	WreyvineBattle_7_009
// 030   ----------------------------------------
	BYTE	PATT
	 POIN2	WreyvineBattle_7_010
// 031   ----------------------------------------
	BYTE	PATT
	 POIN2	WreyvineBattle_7_011
// 032   ----------------------------------------
	BYTE	PATT
	 POIN2	WreyvineBattle_7_008
// 033   ----------------------------------------
	BYTE	PATT
	 POIN2	WreyvineBattle_7_009
// 034   ----------------------------------------
	BYTE	PATT
	 POIN2	WreyvineBattle_7_010
// 035   ----------------------------------------
	BYTE	PATT
	 POIN2	WreyvineBattle_7_011
// 036   ----------------------------------------
	BYTE		PAN     c_v-64
	BYTE	W96
// 037   ----------------------------------------
	BYTE	W96
// 038   ----------------------------------------
	BYTE	W96
// 039   ----------------------------------------
	BYTE	W92
	BYTE	W03
	BYTE	GoTo
	 POIN2	WreyvineBattle_7_B1
WreyvineBattle_7_B2:
	BYTE	FINE

//**************** Track 8 (Midi-Chn.8) ****************//

WreyvineBattle_8:
	BYTE	KEYSH   WreyvineBattle_key+0
WreyvineBattle_8_B1:
// 000   ----------------------------------------
	BYTE		VOICE   55
	BYTE		MODT    0
	BYTE		LFOS    44
	BYTE		PAN     c_v+6
	BYTE		VOL     112*WreyvineBattle_mvl/mxv
	BYTE	W96
// 001   ----------------------------------------
	BYTE	W96
// 002   ----------------------------------------
	BYTE	W96
// 003   ----------------------------------------
	BYTE		N48     Fn4   v120
	BYTE	W48
	BYTE		        Bn3 
	BYTE	W48
// 004   ----------------------------------------
	BYTE		        Cn4 
	BYTE	W48
	BYTE		        Bn3   v108
	BYTE	W48
// 005   ----------------------------------------
	BYTE		        Gs3 
	BYTE	W48
	BYTE		        Gn3 
	BYTE	W48
// 006   ----------------------------------------
	BYTE		        Cn4 
	BYTE	W48
	BYTE		        Gn3 
	BYTE	W48
// 007   ----------------------------------------
	BYTE		        Cn4 
	BYTE	W96
// 008   ----------------------------------------
	BYTE	W96
// 009   ----------------------------------------
	BYTE	W96
// 010   ----------------------------------------
	BYTE	W96
// 011   ----------------------------------------
	BYTE	W96
// 012   ----------------------------------------
	BYTE	W96
// 013   ----------------------------------------
	BYTE	W96
// 014   ----------------------------------------
	BYTE	W96
// 015   ----------------------------------------
	BYTE	W96
// 016   ----------------------------------------
	BYTE	W96
// 017   ----------------------------------------
	BYTE	W96
// 018   ----------------------------------------
	BYTE	W96
// 019   ----------------------------------------
	BYTE	W96
// 020   ----------------------------------------
	BYTE	W96
// 021   ----------------------------------------
	BYTE	W96
// 022   ----------------------------------------
	BYTE	W96
// 023   ----------------------------------------
	BYTE	W96
// 024   ----------------------------------------
	BYTE	W96
// 025   ----------------------------------------
	BYTE	W96
// 026   ----------------------------------------
	BYTE	W96
// 027   ----------------------------------------
	BYTE	W96
// 028   ----------------------------------------
	BYTE	W96
// 029   ----------------------------------------
	BYTE	W96
// 030   ----------------------------------------
	BYTE	W96
// 031   ----------------------------------------
	BYTE	W96
// 032   ----------------------------------------
	BYTE	W96
// 033   ----------------------------------------
	BYTE	W96
// 034   ----------------------------------------
	BYTE	W96
// 035   ----------------------------------------
	BYTE	W96
// 036   ----------------------------------------
	BYTE	W96
// 037   ----------------------------------------
	BYTE	W96
// 038   ----------------------------------------
	BYTE	W96
// 039   ----------------------------------------
	BYTE	W92
	BYTE	W03
	BYTE	GoTo
	 POIN2	WreyvineBattle_8_B1
WreyvineBattle_8_B2:
	BYTE	FINE

//**************** Track 9 (Midi-Chn.9) ****************//

WreyvineBattle_9:
	BYTE	KEYSH   WreyvineBattle_key+0
WreyvineBattle_9_B1:
// 000   ----------------------------------------
	BYTE		VOICE   36
	BYTE		MODT    0
	BYTE		LFOS    44
	BYTE		VOL     98*WreyvineBattle_mvl/mxv
	BYTE		PAN     c_v-8
	BYTE		N12     Cn2   v108
	BYTE	W12
	BYTE		N06   
	BYTE	W12
	BYTE		        An2 
	BYTE	W06
	BYTE		        En2 
	BYTE	W12
	BYTE		        Cn2 
	BYTE	W06
	BYTE		        Bn1 
	BYTE	W12
	BYTE		N06   
	BYTE	W06
	BYTE		        En2 
	BYTE	W06
	BYTE		        Gs2 
	BYTE	W06
	BYTE		        Bn2 
	BYTE	W06
	BYTE		        Gs2 
	BYTE	W06
	BYTE		        En2 
	BYTE	W06
// 001   ----------------------------------------
WreyvineBattle_9_001:
	BYTE		N12     Cn2   v108
	BYTE	W12
	BYTE		N06     Fn2 
	BYTE	W12
	BYTE		        An2 
	BYTE	W06
	BYTE		        Fn2 
	BYTE	W12
	BYTE		        Cn2 
	BYTE	W06
	BYTE		        An1 
	BYTE	W12
	BYTE		N06   
	BYTE	W06
	BYTE		        Dn2 
	BYTE	W06
	BYTE		        Fs2 
	BYTE	W06
	BYTE		        An2 
	BYTE	W06
	BYTE		        Fs2 
	BYTE	W06
	BYTE		        Dn2 
	BYTE	W06
	BYTE	PEND
// 002   ----------------------------------------
	BYTE		N12     Ds2 
	BYTE	W12
	BYTE		N06     Gn2 
	BYTE	W12
	BYTE		        Ds2 
	BYTE	W06
	BYTE		        Gn2 
	BYTE	W12
	BYTE		        Ds2 
	BYTE	W06
	BYTE		        Gn2 
	BYTE	W12
	BYTE		        Ds2 
	BYTE	W06
	BYTE		        Gn2 
	BYTE	W12
	BYTE		        Ds2 
	BYTE	W06
	BYTE		        Gn2 
	BYTE	W06
	BYTE		        Ds2 
	BYTE	W06
// 003   ----------------------------------------
	BYTE		N18     Dn2 
	BYTE	W18
	BYTE		        Cn2 
	BYTE	W18
	BYTE		N12     Ds2 
	BYTE	W12
	BYTE		N18     Dn2 
	BYTE	W18
	BYTE		        Cn2 
	BYTE	W18
	BYTE		N12     Bn1 
	BYTE	W12
// 004   ----------------------------------------
	BYTE		        Cn2 
	BYTE	W12
	BYTE		N06   
	BYTE	W12
	BYTE		        An2 
	BYTE	W06
	BYTE		        En2 
	BYTE	W12
	BYTE		        Cn2 
	BYTE	W06
	BYTE		        Bn1 
	BYTE	W12
	BYTE		N06   
	BYTE	W06
	BYTE		        En2 
	BYTE	W06
	BYTE		        Gs2 
	BYTE	W06
	BYTE		        Bn2 
	BYTE	W06
	BYTE		        Gs2 
	BYTE	W06
	BYTE		        En2 
	BYTE	W06
// 005   ----------------------------------------
	BYTE	PATT
	 POIN2	WreyvineBattle_9_001
// 006   ----------------------------------------
	BYTE		N12     Ds2   v108
	BYTE	W12
	BYTE		N06     Cn3 
	BYTE	W12
	BYTE		        Gn2 
	BYTE	W06
	BYTE		        Cn3 
	BYTE	W12
	BYTE		        Ds2 
	BYTE	W06
	BYTE		        Cn3 
	BYTE	W12
	BYTE		        Gn2 
	BYTE	W06
	BYTE		        Cn3 
	BYTE	W12
	BYTE		        Gn2 
	BYTE	W06
	BYTE		        Cn3 
	BYTE	W06
	BYTE		        Ds2 
	BYTE	W06
// 007   ----------------------------------------
	BYTE		N96     Cn2 
	BYTE	W96
// 008   ----------------------------------------
	BYTE	W96
// 009   ----------------------------------------
	BYTE	W96
// 010   ----------------------------------------
	BYTE	W96
// 011   ----------------------------------------
	BYTE	W96
// 012   ----------------------------------------
	BYTE	W96
// 013   ----------------------------------------
	BYTE	W96
// 014   ----------------------------------------
	BYTE	W96
// 015   ----------------------------------------
	BYTE	W96
// 016   ----------------------------------------
	BYTE	W96
// 017   ----------------------------------------
	BYTE	W96
// 018   ----------------------------------------
	BYTE	W96
// 019   ----------------------------------------
	BYTE	W96
// 020   ----------------------------------------
	BYTE	W96
// 021   ----------------------------------------
	BYTE	W96
// 022   ----------------------------------------
	BYTE	W96
// 023   ----------------------------------------
	BYTE	W96
// 024   ----------------------------------------
	BYTE	W96
// 025   ----------------------------------------
	BYTE	W96
// 026   ----------------------------------------
	BYTE	W96
// 027   ----------------------------------------
	BYTE	W96
// 028   ----------------------------------------
	BYTE	W96
// 029   ----------------------------------------
	BYTE	W96
// 030   ----------------------------------------
	BYTE	W96
// 031   ----------------------------------------
	BYTE	W96
// 032   ----------------------------------------
	BYTE	W96
// 033   ----------------------------------------
	BYTE	W96
// 034   ----------------------------------------
	BYTE	W96
// 035   ----------------------------------------
	BYTE	W96
// 036   ----------------------------------------
	BYTE	W96
// 037   ----------------------------------------
	BYTE	W96
// 038   ----------------------------------------
	BYTE	W96
// 039   ----------------------------------------
	BYTE	W92
	BYTE	W03
	BYTE	GoTo
	 POIN2	WreyvineBattle_9_B1
WreyvineBattle_9_B2:
	BYTE	FINE

//******************************************************//
	ALIGN 4

WreyvineBattle:
	BYTE	9	// NumTrks
	BYTE	0	// NumBlks
	BYTE	WreyvineBattle_pri	// Priority
	BYTE	WreyvineBattle_rev	// Reverb.

	POIN2	WreyvineBattle_grp

	POIN2	WreyvineBattle_1
	POIN2	WreyvineBattle_2
	POIN2	WreyvineBattle_3
	POIN2	WreyvineBattle_4
	POIN2	WreyvineBattle_5
	POIN2	WreyvineBattle_6
	POIN2	WreyvineBattle_7
	POIN2	WreyvineBattle_8
	POIN2	WreyvineBattle_9

	
