//Event file generated from Sappy .s format.
	#include "MPlayDef.event"

	#define	AeteriaBattle_grp  voicegroup000
	#define	AeteriaBattle_pri  0
	#define	AeteriaBattle_rev  5
	#define	AeteriaBattle_mvl  25
	#define	AeteriaBattle_key  0
	#define	AeteriaBattle_tbs  1
	#define	AeteriaBattle_exg  0
	#define	AeteriaBattle_cmp  1

	// .rodata
	//	AeteriaBattle
	ALIGN 4

//**************** Track 1 (Midi-Chn.2) ****************//

AeteriaBattle_1:
	BYTE	KEYSH   AeteriaBattle_key+0
AeteriaBattle_1_B1:
// 000   ----------------------------------------
	BYTE	TEMPO   150*AeteriaBattle_tbs/2
	BYTE		VOICE   50
	BYTE		MODT    0
	BYTE		LFOS    44
	BYTE		PAN     c_v-13
	BYTE		VOL     127*AeteriaBattle_mvl/mxv
	BYTE		N90     An3   v076
	BYTE		N90     Cn4 
	BYTE		N90     En4 
	BYTE	W96
// 001   ----------------------------------------
AeteriaBattle_1_001:
	BYTE		N90     Fs3   v076
	BYTE		N90     An3 
	BYTE		N90     Cn4 
	BYTE		N90     Dn4 
	BYTE	W96
	BYTE	PEND
// 002   ----------------------------------------
AeteriaBattle_1_002:
	BYTE		N42     Gn3   v076
	BYTE		N42     Bn3 
	BYTE		N42     En4 
	BYTE	W48
	BYTE		        Fs3 
	BYTE		N42     An3 
	BYTE		N42     Dn4 
	BYTE	W48
	BYTE	PEND
// 003   ----------------------------------------
AeteriaBattle_1_003:
	BYTE		N42     An3   v076
	BYTE		N90     Bn3 
	BYTE		N90     En4 
	BYTE	W48
	BYTE		N42     Gs3 
	BYTE	W48
	BYTE	PEND
// 004   ----------------------------------------
	BYTE		N90     An3 
	BYTE		N90     Cn4 
	BYTE		N90     En4 
	BYTE	W96
// 005   ----------------------------------------
	BYTE	PATT
	 POIN2	AeteriaBattle_1_001
// 006   ----------------------------------------
	BYTE	PATT
	 POIN2	AeteriaBattle_1_002
// 007   ----------------------------------------
	BYTE	PATT
	 POIN2	AeteriaBattle_1_003
// 008   ----------------------------------------
	BYTE		N90     Fn3   v076
	BYTE		N90     An3 
	BYTE		N90     Cn4 
	BYTE	W96
// 009   ----------------------------------------
	BYTE		        Fn3 
	BYTE		N90     An3 
	BYTE		N90     Dn4 
	BYTE	W96
// 010   ----------------------------------------
	BYTE		        En3 
	BYTE		N90     An3 
	BYTE		N42     Dn4 
	BYTE	W48
	BYTE		        Cn4 
	BYTE	W48
// 011   ----------------------------------------
AeteriaBattle_1_011:
	BYTE		N90     Dn3   v076
	BYTE		N90     Gn3 
	BYTE		N42     Cn4 
	BYTE	W48
	BYTE		        Bn3 
	BYTE	W48
	BYTE	PEND
// 012   ----------------------------------------
	BYTE		N90     Cs3 
	BYTE		N90     En3 
	BYTE		N90     An3 
	BYTE	W96
// 013   ----------------------------------------
	BYTE		        Dn3 
	BYTE		N90     Fn3 
	BYTE		N90     Bn3 
	BYTE	W96
// 014   ----------------------------------------
	BYTE		        En3 
	BYTE		N90     Gn3 
	BYTE		N42     Cn4 
	BYTE	W48
	BYTE		        Dn4 
	BYTE	W48
// 015   ----------------------------------------
	BYTE		        Fn3 
	BYTE		N42     An3 
	BYTE		N42     En4 
	BYTE	W48
	BYTE		        Gn3 
	BYTE		N42     Bn3 
	BYTE		N42     Fn4 
	BYTE	W48
// 016   ----------------------------------------
AeteriaBattle_1_016:
	BYTE		N66     Fn3   v076
	BYTE		N66     An3 
	BYTE		N66     En4 
	BYTE	W72
	BYTE	PEND
// 017   ----------------------------------------
AeteriaBattle_1_017:
	BYTE		N66     Fn3   v076
	BYTE		N66     An3 
	BYTE		N66     Dn4 
	BYTE	W72
	BYTE	PEND
// 018   ----------------------------------------
	BYTE	PATT
	 POIN2	AeteriaBattle_1_016
// 019   ----------------------------------------
	BYTE	PATT
	 POIN2	AeteriaBattle_1_017
// 020   ----------------------------------------
	BYTE		N66     En3   v076
	BYTE		N66     Gn3 
	BYTE		N66     Dn4 
	BYTE	W72
// 021   ----------------------------------------
	BYTE		        En3 
	BYTE		N66     Gn3 
	BYTE		N66     Cn4 
	BYTE	W72
// 022   ----------------------------------------
	BYTE		        En3 
	BYTE		N66     Gn3 
	BYTE		N66     Dn4 
	BYTE	W72
// 023   ----------------------------------------
	BYTE		        En3 
	BYTE		N66     Gn3 
	BYTE		N66     Cn4 
	BYTE	W72
// 024   ----------------------------------------
	BYTE	PATT
	 POIN2	AeteriaBattle_1_016
// 025   ----------------------------------------
	BYTE	PATT
	 POIN2	AeteriaBattle_1_017
// 026   ----------------------------------------
	BYTE	PATT
	 POIN2	AeteriaBattle_1_016
// 027   ----------------------------------------
	BYTE	PATT
	 POIN2	AeteriaBattle_1_017
// 028   ----------------------------------------
	BYTE		N66     En3   v076
	BYTE		N66     Gn3 
	BYTE		N66     Dn4 
	BYTE	W72
// 029   ----------------------------------------
	BYTE		        En3 
	BYTE		N66     Gn3 
	BYTE		N66     Cn4 
	BYTE	W72
// 030   ----------------------------------------
	BYTE		        En3 
	BYTE		N66     Gn3 
	BYTE		N66     Dn4 
	BYTE	W72
// 031   ----------------------------------------
	BYTE		        En3 
	BYTE		N66     Gn3 
	BYTE		N66     Cn4 
	BYTE	W72
// 032   ----------------------------------------
	BYTE		N90     Fn3 
	BYTE		N90     An3 
	BYTE		N42     Dn4 
	BYTE	W48
	BYTE		        Cn4 
	BYTE	W48
// 033   ----------------------------------------
	BYTE	PATT
	 POIN2	AeteriaBattle_1_011
// 034   ----------------------------------------
	BYTE		N90     Dn3   v076
	BYTE		N90     Fn3 
	BYTE		N42     Bn3 
	BYTE	W48
	BYTE		        An3 
	BYTE	W48
// 035   ----------------------------------------
	BYTE		N90     En3 
	BYTE		N90     Gs3 
	BYTE		N90     Bn3 
	BYTE	W96
	BYTE	GoTo
	 POIN2	AeteriaBattle_1_B1
AeteriaBattle_1_B2:
// 036   ----------------------------------------
	BYTE	FINE

//**************** Track 2 (Midi-Chn.3) ****************//

AeteriaBattle_2:
	BYTE	KEYSH   AeteriaBattle_key+0
AeteriaBattle_2_B1:
// 000   ----------------------------------------
	BYTE		VOICE   30
	BYTE		MODT    0
	BYTE		LFOS    44
	BYTE		PAN     c_v+18
	BYTE		VOL     117*AeteriaBattle_mvl/mxv
	BYTE		N48     Cn4   v127
	BYTE	W48
	BYTE		N16     En4 
	BYTE	W16
	BYTE		        Dn4 
	BYTE	W16
	BYTE		        En4 
	BYTE	W16
// 001   ----------------------------------------
	BYTE		N48     Fs4 
	BYTE	W48
	BYTE		N16   
	BYTE	W16
	BYTE		        Gn4 
	BYTE	W16
	BYTE		        An4 
	BYTE	W16
// 002   ----------------------------------------
	BYTE		        Gn4 
	BYTE	W16
	BYTE		        En4 
	BYTE	W16
	BYTE		        Gn4 
	BYTE	W16
	BYTE		        Fs4 
	BYTE	W16
	BYTE		        En4 
	BYTE	W16
	BYTE		        Dn4 
	BYTE	W16
// 003   ----------------------------------------
	BYTE		N48     En4 
	BYTE	W48
	BYTE		N42     Bn3 
	BYTE	W48
// 004   ----------------------------------------
	BYTE		N48     En4 
	BYTE	W48
	BYTE		N16     Gn4 
	BYTE	W16
	BYTE		        Fs4 
	BYTE	W16
	BYTE		        En4 
	BYTE	W16
// 005   ----------------------------------------
	BYTE		        Dn4 
	BYTE	W16
	BYTE		        Cn4 
	BYTE	W16
	BYTE		        Dn4 
	BYTE	W16
	BYTE		        An3 
	BYTE	W16
	BYTE		        Bn3 
	BYTE	W16
	BYTE		        Cn4 
	BYTE	W16
// 006   ----------------------------------------
	BYTE		        Bn3 
	BYTE	W16
	BYTE		        Cn4 
	BYTE	W16
	BYTE		        Dn4 
	BYTE	W16
	BYTE		        Cn4 
	BYTE	W16
	BYTE		        Dn4 
	BYTE	W16
	BYTE		        Fs4 
	BYTE	W16
// 007   ----------------------------------------
	BYTE		        Gn4 
	BYTE	W16
	BYTE		        En4 
	BYTE	W16
	BYTE		        Gn4 
	BYTE	W16
	BYTE		        Gs4 
	BYTE	W16
	BYTE		        Fs4 
	BYTE	W16
	BYTE		N15     En4 
	BYTE	W16
// 008   ----------------------------------------
	BYTE		N16     Cn4 
	BYTE	W16
	BYTE		        An3 
	BYTE	W16
	BYTE		        Cn4 
	BYTE	W16
	BYTE		        Fn4 
	BYTE	W16
	BYTE		        En4 
	BYTE	W16
	BYTE		        Fn4 
	BYTE	W16
// 009   ----------------------------------------
	BYTE		        An4 
	BYTE	W16
	BYTE		        Gn4 
	BYTE	W16
	BYTE		        Fn4 
	BYTE	W16
	BYTE		N24     Dn4 
	BYTE	W24
	BYTE		N20     An3 
	BYTE	W24
// 010   ----------------------------------------
	BYTE		N16     Gn4 
	BYTE	W16
	BYTE		        An4 
	BYTE	W16
	BYTE		        Gn4 
	BYTE	W16
	BYTE		        En4 
	BYTE	W16
	BYTE		        Dn4 
	BYTE	W16
	BYTE		        Cn4 
	BYTE	W16
// 011   ----------------------------------------
	BYTE		N16   
	BYTE	W16
	BYTE		        Dn4 
	BYTE	W16
	BYTE		        Cn4 
	BYTE	W16
	BYTE		        Bn3 
	BYTE	W16
	BYTE		        Cn4 
	BYTE	W16
	BYTE		N15     Dn4 
	BYTE	W16
// 012   ----------------------------------------
	BYTE		N05     En4 
	BYTE	W06
	BYTE		        Dn4 
	BYTE	W06
	BYTE		        Cs4 
	BYTE	W06
	BYTE		        Bn3 
	BYTE	W06
	BYTE		        Cs4 
	BYTE	W06
	BYTE		        Dn4 
	BYTE	W06
	BYTE		        En4 
	BYTE	W06
	BYTE		        Cs4 
	BYTE	W06
	BYTE		        An4 
	BYTE	W06
	BYTE		        Gs4 
	BYTE	W06
	BYTE		        Fs4 
	BYTE	W06
	BYTE		        En4 
	BYTE	W06
	BYTE		        Cs4 
	BYTE	W06
	BYTE		        En4 
	BYTE	W06
	BYTE		        Gs4 
	BYTE	W06
	BYTE		        An4 
	BYTE	W06
// 013   ----------------------------------------
	BYTE		        Bn4 
	BYTE	W06
	BYTE		        An4 
	BYTE	W06
	BYTE		        Gn4 
	BYTE	W06
	BYTE		        Fn4 
	BYTE	W06
	BYTE		        En4 
	BYTE	W06
	BYTE		        Dn4 
	BYTE	W06
	BYTE		        Fn4 
	BYTE	W06
	BYTE		        Dn4 
	BYTE	W06
	BYTE		        An3 
	BYTE	W06
	BYTE		        Bn3 
	BYTE	W06
	BYTE		        Cn4 
	BYTE	W06
	BYTE		        An3 
	BYTE	W06
	BYTE		        Bn3 
	BYTE	W06
	BYTE		        Cn4 
	BYTE	W06
	BYTE		        Dn4 
	BYTE	W06
	BYTE		        Fn4 
	BYTE	W06
// 014   ----------------------------------------
	BYTE		N16     Gn4 
	BYTE	W16
	BYTE		        An4 
	BYTE	W16
	BYTE		        Gn4 
	BYTE	W16
	BYTE		N42     En4 
	BYTE	W48
// 015   ----------------------------------------
	BYTE		N15     Cn4 
	BYTE	W16
	BYTE		        Dn4 
	BYTE	W16
	BYTE		        En4 
	BYTE	W16
	BYTE		        Fn4 
	BYTE	W16
	BYTE		        En4 
	BYTE	W16
	BYTE		        Dn4 
	BYTE	W16
// 016   ----------------------------------------
	BYTE		N24     En4 
	BYTE	W24
	BYTE		        Dn4 
	BYTE	W24
	BYTE		        En4 
	BYTE	W24
// 017   ----------------------------------------
	BYTE		N72     Fn4 
	BYTE	W72
// 018   ----------------------------------------
	BYTE		N24     Gn4 
	BYTE	W24
	BYTE		        An4 
	BYTE	W24
	BYTE		        Gn4 
	BYTE	W24
// 019   ----------------------------------------
	BYTE		        Fn4 
	BYTE	W24
	BYTE		        En4 
	BYTE	W24
	BYTE		N20     Dn4 
	BYTE	W24
// 020   ----------------------------------------
	BYTE		N24   
	BYTE	W24
	BYTE		        Cn4 
	BYTE	W24
	BYTE		        Dn4 
	BYTE	W24
// 021   ----------------------------------------
	BYTE		N72     En4 
	BYTE	W72
// 022   ----------------------------------------
	BYTE		N24     Dn4 
	BYTE	W24
	BYTE		        Cn4 
	BYTE	W24
	BYTE		        Bn3 
	BYTE	W24
// 023   ----------------------------------------
	BYTE		        Cn4 
	BYTE	W24
	BYTE		        Dn4 
	BYTE	W24
	BYTE		N20     En4 
	BYTE	W24
// 024   ----------------------------------------
	BYTE		N24     An4 
	BYTE	W24
	BYTE		        Gn4 
	BYTE	W24
	BYTE		        An4 
	BYTE	W24
// 025   ----------------------------------------
	BYTE		N66     Cn5 
	BYTE	W72
// 026   ----------------------------------------
	BYTE		N24     An4 
	BYTE	W24
	BYTE		        Gn4 
	BYTE	W24
	BYTE		        Fn4 
	BYTE	W24
// 027   ----------------------------------------
	BYTE		        Dn4 
	BYTE	W24
	BYTE		        En4 
	BYTE	W24
	BYTE		N20     Fn4 
	BYTE	W24
// 028   ----------------------------------------
	BYTE		N72     En4 
	BYTE	W72
// 029   ----------------------------------------
	BYTE		        Fn4 
	BYTE	W72
// 030   ----------------------------------------
	BYTE		N48     En4 
	BYTE	W48
	BYTE		N24     Dn4 
	BYTE	W24
// 031   ----------------------------------------
	BYTE		N66     Cn4 
	BYTE	W72
// 032   ----------------------------------------
	BYTE		N42     Dn4 
	BYTE	W48
	BYTE		        Cn4 
	BYTE	W48
// 033   ----------------------------------------
	BYTE		N42   
	BYTE	W48
	BYTE		        Bn3 
	BYTE	W48
// 034   ----------------------------------------
	BYTE		N42   
	BYTE	W48
	BYTE		        An3 
	BYTE	W48
// 035   ----------------------------------------
	BYTE		N90     Gs3 
	BYTE	W96
	BYTE	GoTo
	 POIN2	AeteriaBattle_2_B1
AeteriaBattle_2_B2:
// 036   ----------------------------------------
	BYTE	FINE

//**************** Track 3 (Midi-Chn.4) ****************//

AeteriaBattle_3:
	BYTE	KEYSH   AeteriaBattle_key+0
AeteriaBattle_3_B1:
// 000   ----------------------------------------
	BYTE		VOICE   18
	BYTE		MODT    0
	BYTE		LFOS    44
	BYTE		VOL     103*AeteriaBattle_mvl/mxv
	BYTE		PAN     c_v+5
	BYTE		N11     An4   v100
	BYTE	W12
	BYTE		N11   
	BYTE	W12
	BYTE		N05   
	BYTE		N05     Cn5 
	BYTE		N05     En5 
	BYTE	W16
	BYTE		        An4 
	BYTE		N05     Cn5 
	BYTE		N05     En5 
	BYTE	W16
	BYTE		        An4 
	BYTE		N05     Cn5 
	BYTE		N05     En5 
	BYTE	W16
	BYTE		N04     An4 
	BYTE		N04     Cn5 
	BYTE		N04     En5 
	BYTE	W06
	BYTE		        An4 
	BYTE		N04     Cn5 
	BYTE		N04     En5 
	BYTE	W12
	BYTE		        An4 
	BYTE		N04     Cn5 
	BYTE		N04     En5 
	BYTE	W06
// 001   ----------------------------------------
AeteriaBattle_3_001:
	BYTE		N11     An4   v100
	BYTE	W12
	BYTE		N11   
	BYTE	W12
	BYTE		N05     Fs4 
	BYTE		N05     An4 
	BYTE		N05     Cn5 
	BYTE		N05     Dn5 
	BYTE	W16
	BYTE		        Fs4 
	BYTE		N05     An4 
	BYTE		N05     Cn5 
	BYTE		N05     Dn5 
	BYTE	W16
	BYTE		        Fs4 
	BYTE		N05     An4 
	BYTE		N05     Cn5 
	BYTE		N05     Dn5 
	BYTE	W16
	BYTE		N04     Fs4 
	BYTE		N04     An4 
	BYTE		N04     Cn5 
	BYTE		N04     Dn5 
	BYTE	W06
	BYTE		        Fs4 
	BYTE		N04     An4 
	BYTE		N04     Cn5 
	BYTE		N04     Dn5 
	BYTE	W12
	BYTE		        Fs4 
	BYTE		N04     An4 
	BYTE		N04     Cn5 
	BYTE		N04     Dn5 
	BYTE	W06
	BYTE	PEND
// 002   ----------------------------------------
AeteriaBattle_3_002:
	BYTE		N42     Gn4   v100
	BYTE		N42     Bn4 
	BYTE		N42     En5 
	BYTE	W48
	BYTE		        Fs4 
	BYTE		N42     An4 
	BYTE		N42     Dn5 
	BYTE	W48
	BYTE	PEND
// 003   ----------------------------------------
AeteriaBattle_3_003:
	BYTE		N05     An4   v100
	BYTE		N05     Bn4 
	BYTE		N05     En5 
	BYTE	W16
	BYTE		        An4 
	BYTE		N05     Bn4 
	BYTE		N05     En5 
	BYTE	W16
	BYTE		        An4 
	BYTE		N05     Bn4 
	BYTE		N05     En5 
	BYTE	W16
	BYTE		        Gs4 
	BYTE		N05     Bn4 
	BYTE		N05     En5 
	BYTE	W16
	BYTE		        Gs4 
	BYTE		N05     Bn4 
	BYTE		N05     En5 
	BYTE	W16
	BYTE		        Gs4 
	BYTE		N05     Bn4 
	BYTE		N05     En5 
	BYTE	W16
	BYTE	PEND
// 004   ----------------------------------------
	BYTE		N11     An4 
	BYTE	W12
	BYTE		N11   
	BYTE	W12
	BYTE		N05   
	BYTE		N05     Cn5 
	BYTE		N05     En5 
	BYTE	W16
	BYTE		        An4 
	BYTE		N05     Cn5 
	BYTE		N05     En5 
	BYTE	W16
	BYTE		        An4 
	BYTE		N05     Cn5 
	BYTE		N05     En5 
	BYTE	W16
	BYTE		N04     An4 
	BYTE		N04     Cn5 
	BYTE		N04     En5 
	BYTE	W06
	BYTE		        An4 
	BYTE		N04     Cn5 
	BYTE		N04     En5 
	BYTE	W12
	BYTE		        An4 
	BYTE		N04     Cn5 
	BYTE		N04     En5 
	BYTE	W06
// 005   ----------------------------------------
	BYTE	PATT
	 POIN2	AeteriaBattle_3_001
// 006   ----------------------------------------
	BYTE	PATT
	 POIN2	AeteriaBattle_3_002
// 007   ----------------------------------------
	BYTE	PATT
	 POIN2	AeteriaBattle_3_003
// 008   ----------------------------------------
	BYTE		N11     An4   v100
	BYTE	W12
	BYTE		N11   
	BYTE	W12
	BYTE		N05     Fn4 
	BYTE		N05     An4 
	BYTE		N05     Cn5 
	BYTE	W16
	BYTE		        Fn4 
	BYTE		N05     An4 
	BYTE		N05     Cn5 
	BYTE	W16
	BYTE		        Fn4 
	BYTE		N05     An4 
	BYTE		N05     Cn5 
	BYTE	W16
	BYTE		N04     Fn4 
	BYTE		N04     An4 
	BYTE		N04     Cn5 
	BYTE	W06
	BYTE		        Fn4 
	BYTE		N04     An4 
	BYTE		N04     Cn5 
	BYTE	W12
	BYTE		        Fn4 
	BYTE		N04     An4 
	BYTE		N04     Cn5 
	BYTE	W06
// 009   ----------------------------------------
	BYTE		N11     An4 
	BYTE	W12
	BYTE		N11   
	BYTE	W12
	BYTE		N05     Fn4 
	BYTE		N05     An4 
	BYTE		N05     Dn5 
	BYTE	W16
	BYTE		        Fn4 
	BYTE		N05     An4 
	BYTE		N05     Dn5 
	BYTE	W16
	BYTE		        Fn4 
	BYTE		N05     An4 
	BYTE		N05     Dn5 
	BYTE	W16
	BYTE		N04     Fn4 
	BYTE		N04     An4 
	BYTE		N04     Dn5 
	BYTE	W06
	BYTE		        Fn4 
	BYTE		N04     An4 
	BYTE		N04     Dn5 
	BYTE	W12
	BYTE		        Fn4 
	BYTE		N04     An4 
	BYTE		N04     Dn5 
	BYTE	W06
// 010   ----------------------------------------
	BYTE		N90     En4 
	BYTE		N90     An4 
	BYTE		N42     Dn5 
	BYTE	W48
	BYTE		        Cn5 
	BYTE	W48
// 011   ----------------------------------------
	BYTE		N05     Dn4 
	BYTE		N05     Gn4 
	BYTE		N05     Cn5 
	BYTE	W16
	BYTE		        Dn4 
	BYTE		N05     Gn4 
	BYTE		N05     Cn5 
	BYTE	W16
	BYTE		        Dn4 
	BYTE		N05     Gn4 
	BYTE		N05     Cn5 
	BYTE	W16
	BYTE		        Dn4 
	BYTE		N05     Gn4 
	BYTE		N05     Bn4 
	BYTE	W16
	BYTE		        Dn4 
	BYTE		N05     Gn4 
	BYTE		N05     Bn4 
	BYTE	W16
	BYTE		        Dn4 
	BYTE		N05     Gn4 
	BYTE		N05     Bn4 
	BYTE	W16
// 012   ----------------------------------------
	BYTE		N11     An4 
	BYTE	W12
	BYTE		N11   
	BYTE	W12
	BYTE		N05     Cs4 
	BYTE		N05     En4 
	BYTE		N05     An4 
	BYTE	W16
	BYTE		        Cs4 
	BYTE		N05     En4 
	BYTE		N05     An4 
	BYTE	W16
	BYTE		        Cs4 
	BYTE		N05     En4 
	BYTE		N05     An4 
	BYTE	W16
	BYTE		N04     Cs4 
	BYTE		N04     En4 
	BYTE		N04     An4 
	BYTE	W06
	BYTE		        Cs4 
	BYTE		N04     En4 
	BYTE		N04     An4 
	BYTE	W12
	BYTE		        Cs4 
	BYTE		N04     En4 
	BYTE		N04     An4 
	BYTE	W06
// 013   ----------------------------------------
	BYTE		N11     Bn4 
	BYTE	W12
	BYTE		N11   
	BYTE	W12
	BYTE		N05     Dn4 
	BYTE		N05     Fn4 
	BYTE		N05     Bn4 
	BYTE	W16
	BYTE		        Dn4 
	BYTE		N05     Fn4 
	BYTE		N05     Bn4 
	BYTE	W16
	BYTE		        Dn4 
	BYTE		N05     Fn4 
	BYTE		N05     Bn4 
	BYTE	W16
	BYTE		N04     Dn4 
	BYTE		N04     Fn4 
	BYTE		N04     Bn4 
	BYTE	W06
	BYTE		        Dn4 
	BYTE		N04     Fn4 
	BYTE		N04     Bn4 
	BYTE	W12
	BYTE		        Dn4 
	BYTE		N04     Fn4 
	BYTE		N04     Bn4 
	BYTE	W06
// 014   ----------------------------------------
	BYTE		N90     En4 
	BYTE		N90     Gn4 
	BYTE		N42     Cn5 
	BYTE	W48
	BYTE		        Dn5 
	BYTE	W48
// 015   ----------------------------------------
	BYTE		N05     Fn4 
	BYTE		N05     An4 
	BYTE		N05     En5 
	BYTE	W16
	BYTE		        Fn4 
	BYTE		N05     An4 
	BYTE		N05     En5 
	BYTE	W16
	BYTE		        Fn4 
	BYTE		N05     An4 
	BYTE		N05     En5 
	BYTE	W16
	BYTE		        Gn4 
	BYTE		N05     Bn4 
	BYTE		N05     Fn5 
	BYTE	W16
	BYTE		        Gn4 
	BYTE		N05     Bn4 
	BYTE		N05     Fn5 
	BYTE	W16
	BYTE		        Gn4 
	BYTE		N05     Bn4 
	BYTE		N05     Fn5 
	BYTE	W16
// 016   ----------------------------------------
AeteriaBattle_3_016:
	BYTE		N66     Fn4   v100
	BYTE		N66     An4 
	BYTE		N66     En5 
	BYTE	W72
	BYTE	PEND
// 017   ----------------------------------------
AeteriaBattle_3_017:
	BYTE		N66     Fn4   v100
	BYTE		N66     An4 
	BYTE		N66     Dn5 
	BYTE	W72
	BYTE	PEND
// 018   ----------------------------------------
	BYTE	PATT
	 POIN2	AeteriaBattle_3_016
// 019   ----------------------------------------
	BYTE	PATT
	 POIN2	AeteriaBattle_3_017
// 020   ----------------------------------------
AeteriaBattle_3_020:
	BYTE		N66     En4   v100
	BYTE		N66     Gn4 
	BYTE		N66     Dn5 
	BYTE	W72
	BYTE	PEND
// 021   ----------------------------------------
AeteriaBattle_3_021:
	BYTE		N66     En4   v100
	BYTE		N66     Gn4 
	BYTE		N66     Cn5 
	BYTE	W72
	BYTE	PEND
// 022   ----------------------------------------
	BYTE	PATT
	 POIN2	AeteriaBattle_3_020
// 023   ----------------------------------------
	BYTE	PATT
	 POIN2	AeteriaBattle_3_021
// 024   ----------------------------------------
	BYTE	PATT
	 POIN2	AeteriaBattle_3_016
// 025   ----------------------------------------
	BYTE	PATT
	 POIN2	AeteriaBattle_3_017
// 026   ----------------------------------------
	BYTE	PATT
	 POIN2	AeteriaBattle_3_016
// 027   ----------------------------------------
	BYTE	PATT
	 POIN2	AeteriaBattle_3_017
// 028   ----------------------------------------
	BYTE	PATT
	 POIN2	AeteriaBattle_3_020
// 029   ----------------------------------------
	BYTE	PATT
	 POIN2	AeteriaBattle_3_021
// 030   ----------------------------------------
	BYTE	PATT
	 POIN2	AeteriaBattle_3_020
// 031   ----------------------------------------
	BYTE	PATT
	 POIN2	AeteriaBattle_3_021
// 032   ----------------------------------------
	BYTE		N90     Fn4   v100
	BYTE		N90     An4 
	BYTE		N42     Dn5 
	BYTE	W48
	BYTE		        Cn5 
	BYTE	W48
// 033   ----------------------------------------
	BYTE		N90     Dn4 
	BYTE		N90     Gn4 
	BYTE		N42     Cn5 
	BYTE	W48
	BYTE		        Bn4 
	BYTE	W48
// 034   ----------------------------------------
	BYTE		N90     Dn4 
	BYTE		N90     Fn4 
	BYTE		N42     Bn4 
	BYTE	W48
	BYTE		        An4 
	BYTE	W48
// 035   ----------------------------------------
	BYTE		N90     En4 
	BYTE		N90     Gs4 
	BYTE		N90     Bn4 
	BYTE	W96
	BYTE	GoTo
	 POIN2	AeteriaBattle_3_B1
AeteriaBattle_3_B2:
// 036   ----------------------------------------
	BYTE	FINE

//**************** Track 4 (Midi-Chn.5) ****************//

AeteriaBattle_4:
	BYTE	KEYSH   AeteriaBattle_key+0
AeteriaBattle_4_B1:
// 000   ----------------------------------------
	BYTE		VOICE   33
	BYTE		MODT    0
	BYTE		LFOS    44
	BYTE		PAN     c_v-10
	BYTE		VOL     108*AeteriaBattle_mvl/mxv
	BYTE		N20     An1   v127
	BYTE	W24
	BYTE		N11     Cn2 
	BYTE	W12
	BYTE		        An1 
	BYTE	W12
	BYTE		N05     En2 
	BYTE	W06
	BYTE		N04     An2 
	BYTE	W12
	BYTE		N04   
	BYTE	W06
	BYTE		N05     En2 
	BYTE	W06
	BYTE		N04     An2 
	BYTE	W12
	BYTE		N04   
	BYTE	W06
// 001   ----------------------------------------
AeteriaBattle_4_001:
	BYTE		N20     An1   v127
	BYTE	W24
	BYTE		N11     Dn2 
	BYTE	W12
	BYTE		        An1 
	BYTE	W12
	BYTE		N05     Fs2 
	BYTE	W06
	BYTE		N04     An2 
	BYTE	W12
	BYTE		N04   
	BYTE	W06
	BYTE		N05     Fs2 
	BYTE	W06
	BYTE		N04     An2 
	BYTE	W12
	BYTE		N04   
	BYTE	W06
	BYTE	PEND
// 002   ----------------------------------------
AeteriaBattle_4_002:
	BYTE		N20     Bn1   v127
	BYTE	W24
	BYTE		N11     En2 
	BYTE	W12
	BYTE		        Bn1 
	BYTE	W12
	BYTE		N05     An1 
	BYTE	W06
	BYTE		N04     Fs1 
	BYTE	W12
	BYTE		N04   
	BYTE	W06
	BYTE		N05     An1 
	BYTE	W06
	BYTE		N04     Fs1 
	BYTE	W12
	BYTE		N04   
	BYTE	W06
	BYTE	PEND
// 003   ----------------------------------------
AeteriaBattle_4_003:
	BYTE		N11     An1   v127
	BYTE	W12
	BYTE		        En1 
	BYTE	W12
	BYTE		        An1 
	BYTE	W12
	BYTE		        Bn1 
	BYTE	W12
	BYTE		        Gs1 
	BYTE	W12
	BYTE		        En1 
	BYTE	W12
	BYTE		        Gs1 
	BYTE	W12
	BYTE		        Bn1 
	BYTE	W12
	BYTE	PEND
// 004   ----------------------------------------
	BYTE		N20     An1 
	BYTE	W24
	BYTE		N11     Cn2 
	BYTE	W12
	BYTE		        An1 
	BYTE	W12
	BYTE		N05     En2 
	BYTE	W06
	BYTE		N04     An2 
	BYTE	W12
	BYTE		N04   
	BYTE	W06
	BYTE		N05     En2 
	BYTE	W06
	BYTE		N04     An2 
	BYTE	W12
	BYTE		N04   
	BYTE	W06
// 005   ----------------------------------------
	BYTE	PATT
	 POIN2	AeteriaBattle_4_001
// 006   ----------------------------------------
	BYTE	PATT
	 POIN2	AeteriaBattle_4_002
// 007   ----------------------------------------
	BYTE	PATT
	 POIN2	AeteriaBattle_4_003
// 008   ----------------------------------------
	BYTE		N20     An1   v127
	BYTE	W24
	BYTE		        Cn2 
	BYTE	W24
	BYTE		N05     Fn2 
	BYTE	W06
	BYTE		N04     An2 
	BYTE	W12
	BYTE		N04   
	BYTE	W06
	BYTE		N05     Fn2 
	BYTE	W06
	BYTE		N04     An2 
	BYTE	W12
	BYTE		N04   
	BYTE	W06
// 009   ----------------------------------------
	BYTE		N20     An1 
	BYTE	W24
	BYTE		        Dn2 
	BYTE	W24
	BYTE		N05     Fn2 
	BYTE	W06
	BYTE		N04     An2 
	BYTE	W12
	BYTE		N04   
	BYTE	W06
	BYTE		N05     Fn2 
	BYTE	W06
	BYTE		N04     An2 
	BYTE	W12
	BYTE		N04   
	BYTE	W06
// 010   ----------------------------------------
	BYTE		N11     En2 
	BYTE	W12
	BYTE		        An1 
	BYTE	W12
	BYTE		        Cn2 
	BYTE	W12
	BYTE		        En2 
	BYTE	W12
	BYTE		        An2 
	BYTE	W12
	BYTE		        En2 
	BYTE	W12
	BYTE		        Cn2 
	BYTE	W12
	BYTE		        En2 
	BYTE	W12
// 011   ----------------------------------------
	BYTE		        Dn2 
	BYTE	W12
	BYTE		        An1 
	BYTE	W12
	BYTE		        Gn1 
	BYTE	W12
	BYTE		        An1 
	BYTE	W12
	BYTE		        Bn1 
	BYTE	W12
	BYTE		        Dn2 
	BYTE	W12
	BYTE		        Gn2 
	BYTE	W12
	BYTE		        Dn2 
	BYTE	W12
// 012   ----------------------------------------
	BYTE		N20     Cs2 
	BYTE	W24
	BYTE		        An1 
	BYTE	W24
	BYTE		N05     Cs2 
	BYTE	W06
	BYTE		N04     En2 
	BYTE	W12
	BYTE		N04   
	BYTE	W06
	BYTE		N05     Cs2 
	BYTE	W06
	BYTE		N04     En2 
	BYTE	W12
	BYTE		N04   
	BYTE	W06
// 013   ----------------------------------------
	BYTE		N20     Dn2 
	BYTE	W24
	BYTE		        Bn1 
	BYTE	W24
	BYTE		N05     Dn2 
	BYTE	W06
	BYTE		N04     Fn2 
	BYTE	W12
	BYTE		N04   
	BYTE	W06
	BYTE		N05     Dn2 
	BYTE	W06
	BYTE		N04     Fn2 
	BYTE	W12
	BYTE		N04   
	BYTE	W06
// 014   ----------------------------------------
	BYTE		N11     En2 
	BYTE	W12
	BYTE		        Dn2 
	BYTE	W12
	BYTE		        Cn2 
	BYTE	W12
	BYTE		        Gn1 
	BYTE	W12
	BYTE		        Dn2 
	BYTE	W12
	BYTE		        En2 
	BYTE	W12
	BYTE		        Gn2 
	BYTE	W12
	BYTE		        En2 
	BYTE	W12
// 015   ----------------------------------------
	BYTE		N04     An2 
	BYTE	W12
	BYTE		        En2 
	BYTE	W12
	BYTE		        An2 
	BYTE	W12
	BYTE		        En2 
	BYTE	W12
	BYTE		        Fn2 
	BYTE	W12
	BYTE		        Bn1 
	BYTE	W12
	BYTE		        Fn2 
	BYTE	W12
	BYTE		        Bn1 
	BYTE	W12
// 016   ----------------------------------------
AeteriaBattle_4_016:
	BYTE		N04     Fn1   v127
	BYTE	W12
	BYTE		N04   
	BYTE	W12
	BYTE		N06     An1 
	BYTE	W18
	BYTE		N06   
	BYTE	W18
	BYTE		N04     Cn2 
	BYTE	W12
	BYTE	PEND
// 017   ----------------------------------------
	BYTE	PATT
	 POIN2	AeteriaBattle_4_016
// 018   ----------------------------------------
	BYTE	PATT
	 POIN2	AeteriaBattle_4_016
// 019   ----------------------------------------
	BYTE	PATT
	 POIN2	AeteriaBattle_4_016
// 020   ----------------------------------------
AeteriaBattle_4_020:
	BYTE		N04     En1   v127
	BYTE	W12
	BYTE		N04   
	BYTE	W12
	BYTE		N06     Gn1 
	BYTE	W18
	BYTE		N06   
	BYTE	W18
	BYTE		N04     Cn2 
	BYTE	W12
	BYTE	PEND
// 021   ----------------------------------------
	BYTE	PATT
	 POIN2	AeteriaBattle_4_020
// 022   ----------------------------------------
	BYTE	PATT
	 POIN2	AeteriaBattle_4_020
// 023   ----------------------------------------
	BYTE	PATT
	 POIN2	AeteriaBattle_4_020
// 024   ----------------------------------------
	BYTE	PATT
	 POIN2	AeteriaBattle_4_016
// 025   ----------------------------------------
	BYTE	PATT
	 POIN2	AeteriaBattle_4_016
// 026   ----------------------------------------
	BYTE	PATT
	 POIN2	AeteriaBattle_4_016
// 027   ----------------------------------------
	BYTE	PATT
	 POIN2	AeteriaBattle_4_016
// 028   ----------------------------------------
	BYTE	PATT
	 POIN2	AeteriaBattle_4_020
// 029   ----------------------------------------
	BYTE	PATT
	 POIN2	AeteriaBattle_4_020
// 030   ----------------------------------------
	BYTE	PATT
	 POIN2	AeteriaBattle_4_020
// 031   ----------------------------------------
	BYTE	PATT
	 POIN2	AeteriaBattle_4_020
// 032   ----------------------------------------
	BYTE		N04     An1   v127
	BYTE	W12
	BYTE		        Fn1 
	BYTE	W12
	BYTE		        An1 
	BYTE	W12
	BYTE		        Fn1 
	BYTE	W12
	BYTE		        An1 
	BYTE	W12
	BYTE		        Fn1 
	BYTE	W12
	BYTE		        An1 
	BYTE	W12
	BYTE		        Fn1 
	BYTE	W12
// 033   ----------------------------------------
	BYTE		        Bn1 
	BYTE	W12
	BYTE		        Gn1 
	BYTE	W12
	BYTE		        Bn1 
	BYTE	W12
	BYTE		        Gn1 
	BYTE	W12
	BYTE		        Bn1 
	BYTE	W12
	BYTE		        Gn1 
	BYTE	W12
	BYTE		        Bn1 
	BYTE	W12
	BYTE		        Gn1 
	BYTE	W12
// 034   ----------------------------------------
	BYTE		        Fn1 
	BYTE	W12
	BYTE		        Dn1 
	BYTE	W12
	BYTE		        Fn1 
	BYTE	W12
	BYTE		        Dn1 
	BYTE	W12
	BYTE		        Fn1 
	BYTE	W12
	BYTE		        Dn1 
	BYTE	W12
	BYTE		        Fn1 
	BYTE	W12
	BYTE		        Dn1 
	BYTE	W12
// 035   ----------------------------------------
	BYTE		        En1 
	BYTE	W12
	BYTE		        Gs1 
	BYTE	W12
	BYTE		        En1 
	BYTE	W12
	BYTE		        Gs1 
	BYTE	W12
	BYTE		        En1 
	BYTE	W12
	BYTE		        Gs1 
	BYTE	W12
	BYTE		        En1 
	BYTE	W12
	BYTE		        Gs1 
	BYTE	W12
	BYTE	GoTo
	 POIN2	AeteriaBattle_4_B1
AeteriaBattle_4_B2:
// 036   ----------------------------------------
	BYTE	FINE

//**************** Track 5 (Midi-Chn.6) ****************//

AeteriaBattle_5:
	BYTE	KEYSH   AeteriaBattle_key+0
AeteriaBattle_5_B1:
// 000   ----------------------------------------
	BYTE		VOICE   124
	BYTE		MODT    0
	BYTE		LFOS    44
	BYTE		VOL     127*AeteriaBattle_mvl/mxv
	BYTE		PAN     c_v+0
	BYTE		N11     Bn0   v127
	BYTE		N11     Cn1 
	BYTE		N11     Fs1 
	BYTE		N54     Cs2 
	BYTE		N24     Gn2 
	BYTE		N24     An2 
	BYTE	W12
	BYTE		N11     Gs1 
	BYTE	W12
	BYTE		        Dn1 
	BYTE		N11     En1 
	BYTE		N11     As1 
	BYTE	W12
	BYTE		        Gs1 
	BYTE	W12
	BYTE		        Bn0 
	BYTE		N11     Cn1 
	BYTE		N11     Fs1 
	BYTE	W12
	BYTE		N05     Gs1 
	BYTE	W06
	BYTE		        Bn0 
	BYTE		N05     Cn1 
	BYTE	W06
	BYTE		N11     Dn1 
	BYTE		N11     En1 
	BYTE		N11     As1 
	BYTE	W12
	BYTE		        Gs1 
	BYTE	W12
// 001   ----------------------------------------
AeteriaBattle_5_001:
	BYTE		N11     Bn0   v127
	BYTE		N11     Cn1 
	BYTE		N11     Fs1 
	BYTE	W12
	BYTE		        Gs1 
	BYTE	W12
	BYTE		        Dn1 
	BYTE		N11     En1 
	BYTE		N11     As1 
	BYTE	W12
	BYTE		        Gs1 
	BYTE	W12
	BYTE		        Bn0 
	BYTE		N11     Cn1 
	BYTE		N11     Fs1 
	BYTE	W12
	BYTE		N05     Gs1 
	BYTE	W06
	BYTE		        Bn0 
	BYTE		N05     Cn1 
	BYTE	W06
	BYTE		N11     Dn1 
	BYTE		N11     En1 
	BYTE		N11     As1 
	BYTE	W12
	BYTE		        Gs1 
	BYTE	W12
	BYTE	PEND
// 002   ----------------------------------------
	BYTE	PATT
	 POIN2	AeteriaBattle_5_001
// 003   ----------------------------------------
AeteriaBattle_5_003:
	BYTE		N11     Bn0   v127
	BYTE		N11     Cn1 
	BYTE		N11     Fs1 
	BYTE	W12
	BYTE		        Gs1 
	BYTE	W12
	BYTE		        Dn1 
	BYTE		N11     En1 
	BYTE		N11     As1 
	BYTE	W12
	BYTE		        Gs1 
	BYTE	W12
	BYTE		        Bn0 
	BYTE		N11     Cn1 
	BYTE		N11     Fs1 
	BYTE	W12
	BYTE		N05     Gs1 
	BYTE	W06
	BYTE		        Bn0 
	BYTE		N05     Cn1 
	BYTE		N05     Dn1 
	BYTE		N05     En1 
	BYTE	W06
	BYTE		N11     Dn1 
	BYTE		N11     En1 
	BYTE		N11     As1 
	BYTE	W12
	BYTE		N05     En1 
	BYTE		N05     Gs1 
	BYTE	W06
	BYTE		        En1 
	BYTE	W06
	BYTE	PEND
// 004   ----------------------------------------
AeteriaBattle_5_004:
	BYTE		N11     Bn0   v127
	BYTE		N11     Cn1 
	BYTE		N11     Fs1 
	BYTE		N11     An2 
	BYTE	W12
	BYTE		        Gs1 
	BYTE	W12
	BYTE		        Dn1 
	BYTE		N11     En1 
	BYTE		N11     As1 
	BYTE	W12
	BYTE		        Gs1 
	BYTE	W12
	BYTE		        Bn0 
	BYTE		N11     Cn1 
	BYTE		N11     Fs1 
	BYTE	W12
	BYTE		N05     Gs1 
	BYTE	W06
	BYTE		        Bn0 
	BYTE		N05     Cn1 
	BYTE	W06
	BYTE		N11     Dn1 
	BYTE		N11     En1 
	BYTE		N11     As1 
	BYTE	W12
	BYTE		        Gs1 
	BYTE	W12
	BYTE	PEND
// 005   ----------------------------------------
	BYTE	PATT
	 POIN2	AeteriaBattle_5_001
// 006   ----------------------------------------
	BYTE	PATT
	 POIN2	AeteriaBattle_5_001
// 007   ----------------------------------------
AeteriaBattle_5_007:
	BYTE		N11     En1   v127
	BYTE		N11     An2 
	BYTE	W12
	BYTE		        Cn1 
	BYTE	W12
	BYTE		        En1 
	BYTE		N11     An2 
	BYTE	W12
	BYTE		        Cn1 
	BYTE	W12
	BYTE		        En1 
	BYTE		N11     An2 
	BYTE	W12
	BYTE		        Cn1 
	BYTE	W12
	BYTE		N05     En1 
	BYTE		N05     An2 
	BYTE	W06
	BYTE		        En1 
	BYTE	W06
	BYTE		N05   
	BYTE	W06
	BYTE		N05   
	BYTE	W06
	BYTE	PEND
// 008   ----------------------------------------
	BYTE	PATT
	 POIN2	AeteriaBattle_5_004
// 009   ----------------------------------------
	BYTE	PATT
	 POIN2	AeteriaBattle_5_001
// 010   ----------------------------------------
	BYTE	PATT
	 POIN2	AeteriaBattle_5_001
// 011   ----------------------------------------
	BYTE	PATT
	 POIN2	AeteriaBattle_5_003
// 012   ----------------------------------------
	BYTE	PATT
	 POIN2	AeteriaBattle_5_004
// 013   ----------------------------------------
	BYTE	PATT
	 POIN2	AeteriaBattle_5_001
// 014   ----------------------------------------
	BYTE	PATT
	 POIN2	AeteriaBattle_5_001
// 015   ----------------------------------------
	BYTE	PATT
	 POIN2	AeteriaBattle_5_007
// 016   ----------------------------------------
AeteriaBattle_5_016:
	BYTE		N11     Cn1   v127
	BYTE		N11     An2 
	BYTE	W12
	BYTE		        Cn1 
	BYTE	W12
	BYTE		N17     En1 
	BYTE	W18
	BYTE		N17   
	BYTE	W18
	BYTE		N11     Cn1 
	BYTE	W12
	BYTE	PEND
// 017   ----------------------------------------
AeteriaBattle_5_017:
	BYTE		N11     Cn1   v127
	BYTE	W12
	BYTE		N11   
	BYTE	W12
	BYTE		N17     En1 
	BYTE	W18
	BYTE		N17   
	BYTE	W18
	BYTE		N11     Cn1 
	BYTE	W12
	BYTE	PEND
// 018   ----------------------------------------
	BYTE	PATT
	 POIN2	AeteriaBattle_5_017
// 019   ----------------------------------------
AeteriaBattle_5_019:
	BYTE		N11     Cn1   v127
	BYTE	W12
	BYTE		N11   
	BYTE	W12
	BYTE		N17     En1 
	BYTE	W18
	BYTE		N11   
	BYTE	W06
	BYTE		N05     Dn2 
	BYTE	W06
	BYTE		        Cn2 
	BYTE	W06
	BYTE		        Cn1 
	BYTE		N05     Bn1 
	BYTE	W06
	BYTE		        An1 
	BYTE	W06
	BYTE	PEND
// 020   ----------------------------------------
	BYTE	PATT
	 POIN2	AeteriaBattle_5_016
// 021   ----------------------------------------
	BYTE	PATT
	 POIN2	AeteriaBattle_5_017
// 022   ----------------------------------------
	BYTE	PATT
	 POIN2	AeteriaBattle_5_017
// 023   ----------------------------------------
	BYTE	PATT
	 POIN2	AeteriaBattle_5_019
// 024   ----------------------------------------
	BYTE	PATT
	 POIN2	AeteriaBattle_5_016
// 025   ----------------------------------------
	BYTE	PATT
	 POIN2	AeteriaBattle_5_017
// 026   ----------------------------------------
	BYTE	PATT
	 POIN2	AeteriaBattle_5_017
// 027   ----------------------------------------
	BYTE	PATT
	 POIN2	AeteriaBattle_5_019
// 028   ----------------------------------------
	BYTE	PATT
	 POIN2	AeteriaBattle_5_016
// 029   ----------------------------------------
	BYTE	PATT
	 POIN2	AeteriaBattle_5_017
// 030   ----------------------------------------
	BYTE	PATT
	 POIN2	AeteriaBattle_5_017
// 031   ----------------------------------------
	BYTE	PATT
	 POIN2	AeteriaBattle_5_019
// 032   ----------------------------------------
AeteriaBattle_5_032:
	BYTE		N11     En1   v127
	BYTE		N11     An2 
	BYTE	W12
	BYTE		        Cn1 
	BYTE	W12
	BYTE		        En1 
	BYTE		N11     An2 
	BYTE	W12
	BYTE		        Cn1 
	BYTE	W12
	BYTE		        En1 
	BYTE		N11     An2 
	BYTE	W12
	BYTE		        Cn1 
	BYTE	W12
	BYTE		        En1 
	BYTE		N11     An2 
	BYTE	W12
	BYTE		        Cn1 
	BYTE	W12
	BYTE	PEND
// 033   ----------------------------------------
	BYTE	PATT
	 POIN2	AeteriaBattle_5_032
// 034   ----------------------------------------
	BYTE	PATT
	 POIN2	AeteriaBattle_5_032
// 035   ----------------------------------------
	BYTE	PATT
	 POIN2	AeteriaBattle_5_007
	BYTE	GoTo
	 POIN2	AeteriaBattle_5_B1
AeteriaBattle_5_B2:
// 036   ----------------------------------------
	BYTE	FINE

//******************************************************//
	ALIGN 4

AeteriaBattle:
	BYTE	5	// NumTrks
	BYTE	0	// NumBlks
	BYTE	AeteriaBattle_pri	// Priority
	BYTE	AeteriaBattle_rev	// Reverb.

	POIN2	AeteriaBattle_grp

	POIN2	AeteriaBattle_1
	POIN2	AeteriaBattle_2
	POIN2	AeteriaBattle_3
	POIN2	AeteriaBattle_4
	POIN2	AeteriaBattle_5

	
