//Event file generated from Sappy .s format.
	#include "MPlayDef.event"

	#define	IronKingdom_grp  voicegroup000
	#define	IronKingdom_pri  0
	#define	IronKingdom_rev  148
	#define	IronKingdom_mvl  127
	#define	IronKingdom_key  0
	#define	IronKingdom_tbs  1
	#define	IronKingdom_exg  0
	#define	IronKingdom_cmp  1

	// .rodata
	//	IronKingdom
	ALIGN 4


//**************** Track 1 (Midi-Chn.0) ****************//

IronKingdom_001:
//  #01 //000   ----------------------------------------
 BYTE   KEYSH   IronKingdom_key+0
IronKingdomLABEL1:
 BYTE   TEMPO   80*IronKingdom_tbs/2
 BYTE   VOICE   55
 BYTE   MODT 0
 BYTE   LFOS 44
 BYTE   PAN   c_v-7
 BYTE   VOL   21*IronKingdom_mvl/mxv
 BYTE   N96  Cs2  v127
 BYTE   W96
//  #01 //001   ----------------------------------------
 BYTE   W96
//  #01 //002   ----------------------------------------
 BYTE   W96
//  #01 //003   ----------------------------------------
 BYTE   W96
//  #01 //004   ----------------------------------------
 BYTE   W96
//  #01 //005   ----------------------------------------
 BYTE   W96
//  #01 //006   ----------------------------------------
 BYTE   W96
//  #01 //007   ----------------------------------------
 BYTE   W96
//  #01 //008   ----------------------------------------
Label_01A6A9F1:
 BYTE   W24
 BYTE   N05  Fs3  v076
 BYTE   N05  An3
 BYTE   N05  Cs4
 BYTE   W16
 BYTE   Fs3
 BYTE   N05  An3
 BYTE   N05  Cs4
 BYTE   W32
 BYTE   Fs3
 BYTE   N05  An3
 BYTE   N05  Cs4
 BYTE   W16
 BYTE   Fs3
 BYTE   N05  An3
 BYTE   N05  Cs4
 BYTE   W08
 BYTE   PEND 
//  #01 //009   ----------------------------------------
Label_01A6AA0D:
 BYTE   W24
 BYTE   N05  Fs3  v076
 BYTE   N05  An3
 BYTE   N05  Dn4
 BYTE   W16
 BYTE   Fs3
 BYTE   N05  An3
 BYTE   N05  Dn4
 BYTE   W32
 BYTE   Fs3
 BYTE   N05  An3
 BYTE   N05  Dn4
 BYTE   W16
 BYTE   Fs3
 BYTE   N05  An3
 BYTE   N05  Dn4
 BYTE   W08
 BYTE   PEND 
//  #01 //010   ----------------------------------------
Label_01A6AA29:
 BYTE   W24
 BYTE   N05  Fs3  v076
 BYTE   N05  Bn3
 BYTE   N05  Ds4
 BYTE   W16
 BYTE   Fs3
 BYTE   N05  Bn3
 BYTE   N05  Ds4
 BYTE   W32
 BYTE   Fs3
 BYTE   N05  Bn3
 BYTE   N05  Ds4
 BYTE   W16
 BYTE   Fs3
 BYTE   N05  Bn3
 BYTE   N05  Ds4
 BYTE   W08
 BYTE   PEND 
//  #01 //011   ----------------------------------------
Label_01A6AA45:
 BYTE   W24
 BYTE   N05  Gs3  v076
 BYTE   N05  Cs4
 BYTE   N05  En4
 BYTE   W16
 BYTE   Gs3
 BYTE   N05  Cs4
 BYTE   N05  En4
 BYTE   W32
 BYTE   Gs3
 BYTE   N05  Cs4
 BYTE   N05  En4
 BYTE   W16
 BYTE   Gs3
 BYTE   N05  Cs4
 BYTE   N05  En4
 BYTE   W08
 BYTE   PEND 
//  #01 //012   ----------------------------------------
 BYTE   PATT
  POIN2 Label_01A6A9F1
//  #01 //013   ----------------------------------------
 BYTE   PATT
  POIN2 Label_01A6AA0D
//  #01 //014   ----------------------------------------
 BYTE   PATT
  POIN2 Label_01A6AA29
//  #01 //015   ----------------------------------------
 BYTE   PATT
  POIN2 Label_01A6AA45
//  #01 //016   ----------------------------------------
Label_01A6AA75:
 BYTE   N72  Ds3  v076
 BYTE   N72  Fs3
 BYTE   N72  Bn3
 BYTE   W72
 BYTE   PEND 
Label_01A6AA7E:
 BYTE   N72  Cs3  v076
 BYTE   N72  Fs3
 BYTE   N72  As3
 BYTE   W72
 BYTE   PEND 
//  #01 //017   ----------------------------------------
Label_01A6AA87:
 BYTE   N72  Bn2  v076
 BYTE   N72  Fs3
 BYTE   N72  An3
 BYTE   W72
 BYTE   PEND 
 BYTE   Bn2
 BYTE   N72  En3
 BYTE   N72  Gs3
 BYTE   W72
//  #01 //018   ----------------------------------------
 BYTE   PATT
  POIN2 Label_01A6AA75
//  #01 //019   ----------------------------------------
 BYTE   PATT
  POIN2 Label_01A6AA7E
//  #01 //020   ----------------------------------------
 BYTE   PATT
  POIN2 Label_01A6AA87
//  #01 //021   ----------------------------------------
 BYTE   N66  Bn2  v076
 BYTE   N66  En3
 BYTE   N66  Gs3
 BYTE   W72
Label_01A6AAAD:
 BYTE   N72  Cs3  v076
 BYTE   N72  En3
 BYTE   N72  Gs3
 BYTE   W72
 BYTE   PEND 
//  #01 //022   ----------------------------------------
Label_01A6AAB6:
 BYTE   N72  An2  v076
 BYTE   N72  Dn3
 BYTE   N72  Fs3
 BYTE   W72
 BYTE   PEND 
Label_01A6AABF:
 BYTE   N72  An2  v076
 BYTE   N72  Cs3
 BYTE   N72  En3
 BYTE   W72
 BYTE   PEND 
//  #01 //023   ----------------------------------------
 BYTE   N66  Bn2
 BYTE   N66  Ds3
 BYTE   N24  Fs3
 BYTE   W24
 BYTE   Gs3
 BYTE   W24
 BYTE   An3
 BYTE   W24
//  #01 //024   ----------------------------------------
 BYTE   PATT
  POIN2 Label_01A6AAAD
//  #01 //025   ----------------------------------------
 BYTE   PATT
  POIN2 Label_01A6AAB6
//  #01 //026   ----------------------------------------
 BYTE   PATT
  POIN2 Label_01A6AABF
//  #01 //027   ----------------------------------------
 BYTE   N72  As2  v076
 BYTE   N72  Cs3
 BYTE   N72  Fs3
 BYTE   W72
 BYTE   N96  Bn2
 BYTE   N96  Dn3
 BYTE   N96  Fs3
 BYTE   TIE  Bn3
 BYTE   W96
//  #01 //028   ----------------------------------------
Label_01A6AAF3:
 BYTE   N96  Cs3  v076
 BYTE   N96  En3
 BYTE   N96  Gs3
 BYTE   W96
 BYTE   PEND 
//  #01 //029   ----------------------------------------
 BYTE   Dn3
 BYTE   N96  Fs3
 BYTE   N96  An3
 BYTE   W96
//  #01 //030   ----------------------------------------
 BYTE   PATT
  POIN2 Label_01A6AAF3
//  #01 //031   ----------------------------------------
 BYTE   EOT
 BYTE   Bn3
 BYTE   N96  Bn2  v076
 BYTE   N96  Ds3
 BYTE   N96  Fs3
 BYTE   N96  Bn3
 BYTE   W96
//  #01 //032   ----------------------------------------
 BYTE   Cs3
 BYTE   N96  En3
 BYTE   N96  Gs3
 BYTE   N96  Cs4
 BYTE   W96
//  #01 //033   ----------------------------------------
 BYTE   Ds3
 BYTE   N96  Fs3
 BYTE   N96  An3
 BYTE   N96  Bn3
 BYTE   W96
//  #01 //034   ----------------------------------------
 BYTE   TIE  Cs3
 BYTE   TIE  En3
 BYTE   TIE  Gs3
 BYTE   TIE  Cs4
 BYTE   W96
//  #01 //035   ----------------------------------------
 BYTE   W42
 BYTE   EOT
 BYTE   Cs3  v064
 BYTE   Gs3  v073
 BYTE   W52
 BYTE   W01
 BYTE   GoTo
  POIN2 IronKingdomLABEL1
 BYTE   FINE

//**************** Track 2 (Midi-Chn.1) ****************//

IronKingdom_002:
//  #02 //000   ----------------------------------------
 BYTE   KEYSH   IronKingdom_key+0
IronKingdomLABEL2:
 BYTE   VOICE   49
 BYTE   MODT 0
 BYTE   LFOS 44
 BYTE   PAN   c_v-22
 BYTE   VOL   25*IronKingdom_mvl/mxv
 BYTE   W96
//  #02 //001   ----------------------------------------
 BYTE   W96
//  #02 //002   ----------------------------------------
 BYTE   W96
//  #02 //003   ----------------------------------------
 BYTE   W96
//  #02 //004   ----------------------------------------
 BYTE   W96
//  #02 //005   ----------------------------------------
 BYTE   W96
//  #02 //006   ----------------------------------------
 BYTE   W96
//  #02 //007   ----------------------------------------
 BYTE   W96
//  #02 //008   ----------------------------------------
 BYTE   TIE  An1  v127
 BYTE   W96
//  #02 //009   ----------------------------------------
 BYTE   W90
 BYTE   EOT
 BYTE   W06
//  #02 //010   ----------------------------------------
 BYTE   N90  Bn1
 BYTE   W96
//  #02 //011   ----------------------------------------
 BYTE   N42  Cs2
 BYTE   W48
 BYTE   Bn1
 BYTE   W48
//  #02 //012   ----------------------------------------
 BYTE   TIE  An1
 BYTE   W96
//  #02 //013   ----------------------------------------
 BYTE   W90
 BYTE   EOT
 BYTE   W06
//  #02 //014   ----------------------------------------
 BYTE   N90  Bn1
 BYTE   W96
//  #02 //015   ----------------------------------------
 BYTE   Cs2
 BYTE   W96
//  #02 //016   ----------------------------------------
 BYTE   W72
 BYTE   W72
//  #02 //017   ----------------------------------------
 BYTE   W72
 BYTE   W72
//  #02 //018   ----------------------------------------
 BYTE   W72
 BYTE   W72
//  #02 //019   ----------------------------------------
 BYTE   W72
 BYTE   W72
//  #02 //020   ----------------------------------------
 BYTE   W72
 BYTE   W72
//  #02 //021   ----------------------------------------
 BYTE   W72
 BYTE   W72
//  #02 //022   ----------------------------------------
 BYTE   W72
 BYTE   W72
//  #02 //023   ----------------------------------------
 BYTE   W72
 BYTE   W72
//  #02 //024   ----------------------------------------
 BYTE   W96
//  #02 //025   ----------------------------------------
 BYTE   W96
//  #02 //026   ----------------------------------------
 BYTE   W96
//  #02 //027   ----------------------------------------
 BYTE   W96
//  #02 //028   ----------------------------------------
 BYTE   W96
//  #02 //029   ----------------------------------------
 BYTE   W96
//  #02 //030   ----------------------------------------
 BYTE   W96
//  #02 //031   ----------------------------------------
 BYTE   W96
//  #02 //032   ----------------------------------------
 BYTE   W92
 BYTE   W03
 BYTE   GoTo
  POIN2 IronKingdomLABEL2
 BYTE   FINE

//**************** Track 3 (Midi-Chn.2) ****************//

IronKingdom_003:
//  #03 //000   ----------------------------------------
 BYTE   KEYSH   IronKingdom_key+0
IronKingdomLABEL3:
 BYTE   VOICE   60
 BYTE   MODT 0
 BYTE   LFOS 44
 BYTE   PAN   c_v-11
 BYTE   VOL   24*IronKingdom_mvl/mxv
 BYTE   W96
//  #03 //001   ----------------------------------------
 BYTE   W96
//  #03 //002   ----------------------------------------
 BYTE   W96
//  #03 //003   ----------------------------------------
 BYTE   W96
//  #03 //004   ----------------------------------------
 BYTE   W96
//  #03 //005   ----------------------------------------
 BYTE   W96
//  #03 //006   ----------------------------------------
 BYTE   W96
//  #03 //007   ----------------------------------------
 BYTE   W96
//  #03 //008   ----------------------------------------
Label_01A69D18:
 BYTE   TIE  An2  v076
 BYTE   N90  Cs3
 BYTE   TIE  Fs3
 BYTE   W96
 BYTE   PEND 
//  #03 //009   ----------------------------------------
 BYTE   N90  Dn3
 BYTE   W90
 BYTE   EOT
 BYTE   An2
 BYTE   W06
//  #03 //010   ----------------------------------------
 BYTE   N90  Bn2
 BYTE   N90  Ds3
 BYTE   W90
 BYTE   EOT
 BYTE   Fs3
 BYTE   W06
//  #03 //011   ----------------------------------------
Label_01A69D2F:
 BYTE   N90  Cs3  v076
 BYTE   N90  En3
 BYTE   N90  Gs3
 BYTE   W96
 BYTE   PEND 
//  #03 //012   ----------------------------------------
 BYTE   PATT
  POIN2 Label_01A69D18
//  #03 //013   ----------------------------------------
 BYTE   N90  Dn3  v076
 BYTE   W90
 BYTE   EOT
 BYTE   An2
 BYTE   W06
//  #03 //014   ----------------------------------------
 BYTE   N90  Bn2
 BYTE   N90  Ds3
 BYTE   W90
 BYTE   EOT
 BYTE   Fs3
 BYTE   W06
//  #03 //015   ----------------------------------------
 BYTE   PATT
  POIN2 Label_01A69D2F
//  #03 //016   ----------------------------------------
Label_01A69D51:
 BYTE   N72  Ds3  v076
 BYTE   N72  Fs3
 BYTE   N72  Bn3
 BYTE   W72
 BYTE   PEND 
Label_01A69D5A:
 BYTE   N72  Cs3  v076
 BYTE   N72  Fs3
 BYTE   N72  As3
 BYTE   W72
 BYTE   PEND 
//  #03 //017   ----------------------------------------
Label_01A69D63:
 BYTE   N72  Bn2  v076
 BYTE   N72  Fs3
 BYTE   N72  An3
 BYTE   W72
 BYTE   PEND 
 BYTE   Bn2
 BYTE   N72  En3
 BYTE   N72  Gs3
 BYTE   W72
//  #03 //018   ----------------------------------------
 BYTE   PATT
  POIN2 Label_01A69D51
//  #03 //019   ----------------------------------------
 BYTE   PATT
  POIN2 Label_01A69D5A
//  #03 //020   ----------------------------------------
 BYTE   PATT
  POIN2 Label_01A69D63
//  #03 //021   ----------------------------------------
 BYTE   N66  Bn2  v076
 BYTE   N66  En3
 BYTE   N66  Gs3
 BYTE   W72
Label_01A69D89:
 BYTE   N72  Cs3  v076
 BYTE   N72  En3
 BYTE   N72  Gs3
 BYTE   W72
 BYTE   PEND 
//  #03 //022   ----------------------------------------
Label_01A69D92:
 BYTE   N72  An2  v076
 BYTE   N72  Dn3
 BYTE   N72  Fs3
 BYTE   W72
 BYTE   PEND 
Label_01A69D9B:
 BYTE   N72  An2  v076
 BYTE   N72  Cs3
 BYTE   N72  En3
 BYTE   W72
 BYTE   PEND 
//  #03 //023   ----------------------------------------
 BYTE   N66  Bn2
 BYTE   N66  Ds3
 BYTE   N24  Fs3
 BYTE   W24
 BYTE   Gs3
 BYTE   W24
 BYTE   An3
 BYTE   W24
//  #03 //024   ----------------------------------------
 BYTE   PATT
  POIN2 Label_01A69D89
//  #03 //025   ----------------------------------------
 BYTE   PATT
  POIN2 Label_01A69D92
//  #03 //026   ----------------------------------------
 BYTE   PATT
  POIN2 Label_01A69D9B
//  #03 //027   ----------------------------------------
 BYTE   N72  As2  v076
 BYTE   N72  Cs3
 BYTE   N72  Fs3
 BYTE   W72
 BYTE   N96  Bn2
 BYTE   N96  Dn3
 BYTE   N96  Fs3
 BYTE   TIE  Bn3
 BYTE   W96
//  #03 //028   ----------------------------------------
Label_01A69DCF:
 BYTE   N96  Cs3  v076
 BYTE   N96  En3
 BYTE   N96  Gs3
 BYTE   W96
 BYTE   PEND 
//  #03 //029   ----------------------------------------
 BYTE   Dn3
 BYTE   N96  Fs3
 BYTE   N96  An3
 BYTE   W96
//  #03 //030   ----------------------------------------
 BYTE   PATT
  POIN2 Label_01A69DCF
//  #03 //031   ----------------------------------------
 BYTE   EOT
 BYTE   Bn3
 BYTE   N96  Bn2  v076
 BYTE   N96  Ds3
 BYTE   N96  Fs3
 BYTE   N96  Bn3
 BYTE   W96
//  #03 //032   ----------------------------------------
 BYTE   Cs3
 BYTE   N96  En3
 BYTE   N96  Gs3
 BYTE   N96  Cs4
 BYTE   W96
//  #03 //033   ----------------------------------------
 BYTE   Ds3
 BYTE   N96  Fs3
 BYTE   N96  An3
 BYTE   N96  Bn3
 BYTE   W96
//  #03 //034   ----------------------------------------
 BYTE   TIE  Cs3
 BYTE   TIE  En3
 BYTE   TIE  Gs3
 BYTE   TIE  Cs4
 BYTE   W96
//  #03 //035   ----------------------------------------
 BYTE   W42
 BYTE   EOT
 BYTE   Cs3  v064
 BYTE   Gs3  v073
 BYTE   W52
 BYTE   W01
 BYTE   GoTo
  POIN2 IronKingdomLABEL3
 BYTE   FINE

//**************** Track 4 (Midi-Chn.3) ****************//

IronKingdom_004:
//  #04 //000   ----------------------------------------
 BYTE   KEYSH   IronKingdom_key+0
IronKingdomLABEL4:
 BYTE   VOICE   30
 BYTE   MODT 0
 BYTE   LFOS 44
 BYTE   PAN   c_v-11
 BYTE   VOL   23*IronKingdom_mvl/mxv
 BYTE   N07  Cs1  v127
 BYTE   W08
 BYTE   N07
 BYTE   W08
 BYTE   N07
 BYTE   W08
 BYTE   Cs2
 BYTE   W08
 BYTE   Cs1
 BYTE   W08
 BYTE   N07
 BYTE   W08
 BYTE   N07
 BYTE   W08
 BYTE   N07
 BYTE   W08
 BYTE   N07
 BYTE   W08
 BYTE   Cs2
 BYTE   W08
 BYTE   Cs1
 BYTE   W08
 BYTE   N07
 BYTE   W08
//  #04 //001   ----------------------------------------
Label_01A69E82:
 BYTE   N07  Cs1  v127
 BYTE   W08
 BYTE   N07
 BYTE   W08
 BYTE   N07
 BYTE   W08
 BYTE   Cs2
 BYTE   W08
 BYTE   Cs1
 BYTE   W08
 BYTE   N07
 BYTE   W08
 BYTE   N07
 BYTE   W08
 BYTE   N07
 BYTE   W08
 BYTE   N07
 BYTE   W08
 BYTE   Cs2
 BYTE   W08
 BYTE   Cs1
 BYTE   W08
 BYTE   N07
 BYTE   W08
 BYTE   PEND 
//  #04 //002   ----------------------------------------
 BYTE   PATT
  POIN2 Label_01A69E82
//  #04 //003   ----------------------------------------
Label_01A69EA2:
 BYTE   N07  Dn1  v127
 BYTE   W08
 BYTE   N07
 BYTE   W08
 BYTE   N07
 BYTE   W08
 BYTE   Dn2
 BYTE   W08
 BYTE   Dn1
 BYTE   W08
 BYTE   N07
 BYTE   W08
 BYTE   N07
 BYTE   W08
 BYTE   N07
 BYTE   W08
 BYTE   N07
 BYTE   W08
 BYTE   Dn2
 BYTE   W08
 BYTE   Dn1
 BYTE   W08
 BYTE   N07
 BYTE   W08
 BYTE   PEND 
//  #04 //004   ----------------------------------------
 BYTE   PATT
  POIN2 Label_01A69E82
//  #04 //005   ----------------------------------------
 BYTE   PATT
  POIN2 Label_01A69E82
//  #04 //006   ----------------------------------------
 BYTE   PATT
  POIN2 Label_01A69E82
//  #04 //007   ----------------------------------------
 BYTE   PATT
  POIN2 Label_01A69EA2
//  #04 //008   ----------------------------------------
Label_01A69ED1:
 BYTE   N15  Cs1  v127
 BYTE   W16
 BYTE   N07
 BYTE   W08
 BYTE   N15  Fs1
 BYTE   W16
 BYTE   N07  An1
 BYTE   W08
 BYTE   N15  Cs1
 BYTE   W16
 BYTE   N07
 BYTE   W08
 BYTE   N15  Fs1
 BYTE   W16
 BYTE   N07  An1
 BYTE   W08
 BYTE   PEND 
//  #04 //009   ----------------------------------------
Label_01A69EE9:
 BYTE   N15  Dn1  v127
 BYTE   W16
 BYTE   N07
 BYTE   W08
 BYTE   N15  Fs1
 BYTE   W16
 BYTE   N07  An1
 BYTE   W08
 BYTE   N15  Dn1
 BYTE   W16
 BYTE   N07
 BYTE   W08
 BYTE   N15  Fs1
 BYTE   W16
 BYTE   N07  An1
 BYTE   W08
 BYTE   PEND 
//  #04 //010   ----------------------------------------
Label_01A69F01:
 BYTE   N15  Ds1  v127
 BYTE   W16
 BYTE   N07
 BYTE   W08
 BYTE   N15  Fs1
 BYTE   W16
 BYTE   N07  Bn1
 BYTE   W08
 BYTE   N15  Ds1
 BYTE   W16
 BYTE   N07
 BYTE   W08
 BYTE   N15  Fs1
 BYTE   W16
 BYTE   N07  Bn1
 BYTE   W08
 BYTE   PEND 
//  #04 //011   ----------------------------------------
Label_01A69F19:
 BYTE   N15  En1  v127
 BYTE   W16
 BYTE   N07
 BYTE   W08
 BYTE   N15  Gs1
 BYTE   W16
 BYTE   N07  Cs2
 BYTE   W08
 BYTE   N15  En1
 BYTE   W16
 BYTE   N07
 BYTE   W08
 BYTE   N15  Gs1
 BYTE   W16
 BYTE   N07  Cs2
 BYTE   W08
 BYTE   PEND 
//  #04 //012   ----------------------------------------
 BYTE   PATT
  POIN2 Label_01A69ED1
//  #04 //013   ----------------------------------------
 BYTE   PATT
  POIN2 Label_01A69EE9
//  #04 //014   ----------------------------------------
 BYTE   PATT
  POIN2 Label_01A69F01
//  #04 //015   ----------------------------------------
 BYTE   PATT
  POIN2 Label_01A69F19
//  #04 //016   ----------------------------------------
Label_01A69F45:
 BYTE   N20  Fs1  v127
 BYTE   W24
 BYTE   Bn1
 BYTE   W24
 BYTE   Fs1
 BYTE   W24
 BYTE   PEND 
Label_01A69F4E:
 BYTE   N20  As1  v127
 BYTE   W24
//  #04 //017   ----------------------------------------
 BYTE   Fs1
 BYTE   W24
 BYTE   As1
 BYTE   W24
 BYTE   PEND 
Label_01A69F57:
 BYTE   N20  An1  v127
 BYTE   W24
 BYTE   Fs1
 BYTE   W24
//  #04 //018   ----------------------------------------
 BYTE   An1
 BYTE   W24
 BYTE   PEND 
Label_01A69F60:
 BYTE   N20  Gs1  v127
 BYTE   W24
 BYTE   An1
 BYTE   W24
 BYTE   Bn1
 BYTE   W24
 BYTE   PEND 
//  #04 //019   ----------------------------------------
 BYTE   PATT
  POIN2 Label_01A69F45
//  #04 //020   ----------------------------------------
 BYTE   PATT
  POIN2 Label_01A69F4E
//  #04 //021   ----------------------------------------
 BYTE   PATT
  POIN2 Label_01A69F57
//  #04 //022   ----------------------------------------
 BYTE   PATT
  POIN2 Label_01A69F60
//  #04 //023   ----------------------------------------
Label_01A69F7D:
 BYTE   N20  Cs2  v127
 BYTE   W24
 BYTE   Gs1
 BYTE   W24
 BYTE   Cs2
 BYTE   W24
 BYTE   PEND 
Label_01A69F86:
 BYTE   N20  Dn2  v127
 BYTE   W24
//  #04 //024   ----------------------------------------
 BYTE   An1
 BYTE   W24
 BYTE   Dn2
 BYTE   W24
 BYTE   PEND 
Label_01A69F8F:
 BYTE   N20  En2  v127
 BYTE   W24
 BYTE   Cs2
 BYTE   W24
//  #04 //025   ----------------------------------------
 BYTE   En2
 BYTE   W24
 BYTE   PEND 
 BYTE   Fs2
 BYTE   W24
 BYTE   En2
 BYTE   W24
 BYTE   Ds2
 BYTE   W24
//  #04 //026   ----------------------------------------
 BYTE   PATT
  POIN2 Label_01A69F7D
//  #04 //027   ----------------------------------------
 BYTE   PATT
  POIN2 Label_01A69F86
//  #04 //028   ----------------------------------------
 BYTE   PATT
  POIN2 Label_01A69F8F
//  #04 //029   ----------------------------------------
 BYTE   N20  As2  v127
 BYTE   W24
 BYTE   Gs2
 BYTE   W24
 BYTE   Fs2
 BYTE   W24
Label_01A69FB5:
 BYTE   N15  Bn0  v127
 BYTE   W16
 BYTE   N07
 BYTE   W08
//  #04 //030   ----------------------------------------
 BYTE   Bn1
 BYTE   W08
 BYTE   N15  Bn0
 BYTE   W16
 BYTE   N15
 BYTE   W16
 BYTE   N07
 BYTE   W08
 BYTE   Bn1
 BYTE   W08
 BYTE   N15  Bn0
 BYTE   W16
 BYTE   PEND 
//  #04 //031   ----------------------------------------
 BYTE   PATT
  POIN2 Label_01A69FB5
//  #04 //032   ----------------------------------------
 BYTE   PATT
  POIN2 Label_01A69FB5
//  #04 //033   ----------------------------------------
 BYTE   PATT
  POIN2 Label_01A69FB5
//  #04 //034   ----------------------------------------
 BYTE   PATT
  POIN2 Label_01A69FB5
//  #04 //035   ----------------------------------------
 BYTE   N15  Cs1  v127
 BYTE   W16
 BYTE   N07
 BYTE   W08
 BYTE   Cs2
 BYTE   W08
 BYTE   N15  Cs1
 BYTE   W16
 BYTE   N15
 BYTE   W16
 BYTE   N07
 BYTE   W08
 BYTE   Cs2
 BYTE   W08
 BYTE   N15  Cs1
 BYTE   W16
//  #04 //036   ----------------------------------------
 BYTE   PATT
  POIN2 Label_01A69FB5
//  #04 //037   ----------------------------------------
 BYTE   TIE  Cs1  v127
 BYTE   W96
//  #04 //038   ----------------------------------------
 BYTE   W42
 BYTE   EOT
 BYTE   W52
 BYTE   W01
 BYTE   GoTo
  POIN2 IronKingdomLABEL4
 BYTE   FINE

//**************** Track 5 (Midi-Chn.4) ****************//

IronKingdom_005:
//  #05 //000   ----------------------------------------
 BYTE   KEYSH   IronKingdom_key+0
IronKingdomLABEL5:
 BYTE   VOICE   127
 BYTE   MODT 0
 BYTE   LFOS 44
 BYTE   VOL   28*IronKingdom_mvl/mxv
 BYTE   PAN   c_v+0
 BYTE   N15  Cn1  v127
 BYTE   N15  An2
 BYTE   W16
 BYTE   N07  Cn1
 BYTE   W08
 BYTE   En1
 BYTE   W08
 BYTE   N15  Cn1
 BYTE   W16
 BYTE   N15
 BYTE   W16
 BYTE   N07
 BYTE   W08
 BYTE   En1
 BYTE   W08
 BYTE   N15  Cn1
 BYTE   W16
//  #05 //001   ----------------------------------------
Label_01A6A0DB:
 BYTE   N15  Cn1  v127
 BYTE   W16
 BYTE   N07
 BYTE   W08
 BYTE   En1
 BYTE   W08
 BYTE   N15  Cn1
 BYTE   W16
 BYTE   N15
 BYTE   W16
 BYTE   N07
 BYTE   W08
 BYTE   En1
 BYTE   W08
 BYTE   Cn1
 BYTE   W08
 BYTE   En1
 BYTE   W08
 BYTE   PEND 
//  #05 //002   ----------------------------------------
Label_01A6A0F1:
 BYTE   N15  Cn1  v127
 BYTE   W16
 BYTE   N07
 BYTE   W08
 BYTE   En1
 BYTE   W08
 BYTE   N15  Cn1
 BYTE   W16
 BYTE   N15
 BYTE   W16
 BYTE   N07
 BYTE   W08
 BYTE   En1
 BYTE   W08
 BYTE   N15  Cn1
 BYTE   W16
 BYTE   PEND 
//  #05 //003   ----------------------------------------
Label_01A6A106:
 BYTE   N15  Cn1  v127
 BYTE   W16
 BYTE   N07
 BYTE   W08
 BYTE   En1
 BYTE   W08
 BYTE   N15  Cn1
 BYTE   W16
 BYTE   N07
 BYTE   N07  Dn2
 BYTE   W08
 BYTE   N07
 BYTE   W08
 BYTE   Cn1
 BYTE   N07  Cn2
 BYTE   W08
 BYTE   Cn1
 BYTE   N07  En1
 BYTE   N07  Bn1
 BYTE   W08
 BYTE   Cn1
 BYTE   N07  En1
 BYTE   N07  Bn1
 BYTE   W08
 BYTE   Cn1
 BYTE   N07  En1
 BYTE   N07  An1
 BYTE   W08
 BYTE   PEND 
//  #05 //004   ----------------------------------------
Label_01A6A12E:
 BYTE   N15  Cn1  v127
 BYTE   N15  An2
 BYTE   W16
 BYTE   N07  Cn1
 BYTE   W08
 BYTE   En1
 BYTE   W08
 BYTE   N15  Cn1
 BYTE   W16
 BYTE   N15
 BYTE   W16
 BYTE   N07
 BYTE   W08
 BYTE   En1
 BYTE   W08
 BYTE   N15  Cn1
 BYTE   W16
 BYTE   PEND 
//  #05 //005   ----------------------------------------
 BYTE   PATT
  POIN2 Label_01A6A0DB
//  #05 //006   ----------------------------------------
 BYTE   PATT
  POIN2 Label_01A6A0F1
//  #05 //007   ----------------------------------------
 BYTE   PATT
  POIN2 Label_01A6A106
//  #05 //008   ----------------------------------------
 BYTE   PATT
  POIN2 Label_01A6A12E
//  #05 //009   ----------------------------------------
 BYTE   PATT
  POIN2 Label_01A6A0DB
//  #05 //010   ----------------------------------------
 BYTE   PATT
  POIN2 Label_01A6A0F1
//  #05 //011   ----------------------------------------
 BYTE   PATT
  POIN2 Label_01A6A106
//  #05 //012   ----------------------------------------
 BYTE   PATT
  POIN2 Label_01A6A12E
//  #05 //013   ----------------------------------------
 BYTE   PATT
  POIN2 Label_01A6A0DB
//  #05 //014   ----------------------------------------
 BYTE   PATT
  POIN2 Label_01A6A0F1
//  #05 //015   ----------------------------------------
 BYTE   PATT
  POIN2 Label_01A6A106
//  #05 //016   ----------------------------------------
Label_01A6A17D:
 BYTE   N20  Cn1  v127
 BYTE   N20  An2
 BYTE   W24
 BYTE   Cn1
 BYTE   W24
 BYTE   N15  En1
 BYTE   W16
 BYTE   N07  Cn1
 BYTE   W08
 BYTE   PEND 
Label_01A6A18C:
 BYTE   N20  Cn1  v127
 BYTE   W24
//  #05 //017   ----------------------------------------
 BYTE   N20
 BYTE   W24
 BYTE   N07  En1
 BYTE   N07  Dn2
 BYTE   W08
 BYTE   En1
 BYTE   N07  Cn2
 BYTE   W08
 BYTE   En1
 BYTE   N07  Bn1
 BYTE   W08
 BYTE   PEND 
Label_01A6A1A0:
 BYTE   N20  Cn1  v127
 BYTE   N20  An1
 BYTE   W24
 BYTE   Cn1
 BYTE   W24
//  #05 //018   ----------------------------------------
 BYTE   N15  En1
 BYTE   W16
 BYTE   N07  Cn1
 BYTE   W08
 BYTE   PEND 
Label_01A6A1AF:
 BYTE   N07  En1  v127
 BYTE   N07  Dn2
 BYTE   W08
 BYTE   N07
 BYTE   W08
 BYTE   N07
 BYTE   W08
 BYTE   En1
 BYTE   N07  Cn2
 BYTE   W08
 BYTE   N07
 BYTE   W08
 BYTE   N07
 BYTE   W08
 BYTE   En1
 BYTE   N07  Bn1
 BYTE   W08
 BYTE   En1
 BYTE   N07  Bn1
 BYTE   W08
 BYTE   En1
 BYTE   N07  Bn1
 BYTE   W08
 BYTE   PEND 
//  #05 //019   ----------------------------------------
Label_01A6A1CE:
 BYTE   N20  Cn1  v127
 BYTE   N20  An1
 BYTE   N20  An2
 BYTE   W24
 BYTE   Cn1
 BYTE   W24
 BYTE   N15  En1
 BYTE   W16
 BYTE   N07  Cn1
 BYTE   W08
 BYTE   PEND 
//  #05 //020   ----------------------------------------
 BYTE   PATT
  POIN2 Label_01A6A18C
//  #05 //021   ----------------------------------------
 BYTE   PATT
  POIN2 Label_01A6A1A0
//  #05 //022   ----------------------------------------
 BYTE   PATT
  POIN2 Label_01A6A1AF
//  #05 //023   ----------------------------------------
 BYTE   PATT
  POIN2 Label_01A6A17D
//  #05 //024   ----------------------------------------
 BYTE   PATT
  POIN2 Label_01A6A18C
//  #05 //025   ----------------------------------------
 BYTE   PATT
  POIN2 Label_01A6A1A0
//  #05 //026   ----------------------------------------
 BYTE   PATT
  POIN2 Label_01A6A1AF
//  #05 //027   ----------------------------------------
 BYTE   PATT
  POIN2 Label_01A6A1CE
//  #05 //028   ----------------------------------------
 BYTE   PATT
  POIN2 Label_01A6A18C
//  #05 //029   ----------------------------------------
 BYTE   PATT
  POIN2 Label_01A6A1A0
//  #05 //030   ----------------------------------------
 BYTE   PATT
  POIN2 Label_01A6A1AF
//  #05 //031   ----------------------------------------
 BYTE   PATT
  POIN2 Label_01A6A12E
//  #05 //032   ----------------------------------------
 BYTE   PATT
  POIN2 Label_01A6A0DB
//  #05 //033   ----------------------------------------
 BYTE   PATT
  POIN2 Label_01A6A0F1
//  #05 //034   ----------------------------------------
 BYTE   PATT
  POIN2 Label_01A6A106
//  #05 //035   ----------------------------------------
 BYTE   PATT
  POIN2 Label_01A6A12E
//  #05 //036   ----------------------------------------
 BYTE   PATT
  POIN2 Label_01A6A0DB
//  #05 //037   ----------------------------------------
 BYTE   PATT
  POIN2 Label_01A6A0F1
//  #05 //038   ----------------------------------------
 BYTE   PATT
  POIN2 Label_01A6A0F1
//  #05 //039   ----------------------------------------
 BYTE   N07  Cn1  v127
 BYTE   N07  Dn2
 BYTE   N07  An2
 BYTE   W08
 BYTE   Dn2
 BYTE   W08
 BYTE   N07
 BYTE   W08
 BYTE   Cn1
 BYTE   N07  Cn2
 BYTE   W08
 BYTE   N07
 BYTE   W08
 BYTE   N07
 BYTE   W08
 BYTE   Cn1
 BYTE   N07  En1
 BYTE   N07  Bn1
 BYTE   N07  An2
 BYTE   W08
 BYTE   Bn1
 BYTE   W08
 BYTE   En1
 BYTE   N07  Bn1
 BYTE   W08
 BYTE   Cn1
 BYTE   N07  An1
 BYTE   W08
 BYTE   En1
 BYTE   N07  An1
 BYTE   W08
 BYTE   N07
 BYTE   W07
 BYTE   GoTo
  POIN2 IronKingdomLABEL5
 BYTE   FINE

//**************** Track 6 (Midi-Chn.5) ****************//

IronKingdom_006:
//  #06 //000   ----------------------------------------
 BYTE   KEYSH   IronKingdom_key+0
Label_01A6AB9A:
 BYTE   VOICE   61
 BYTE   MODT 0
 BYTE   LFOS 44
 BYTE   PAN   c_v+18
 BYTE   VOL   28*IronKingdom_mvl/mxv
 BYTE   N32  Cs4  v127
 BYTE   W36
 BYTE   N05  Ds4
 BYTE   W06
 BYTE   En4
 BYTE   W06
 BYTE   N32  Bn3
 BYTE   W36
 BYTE   N05
 BYTE   W06
 BYTE   An3
 BYTE   W06
//  #06 //001   ----------------------------------------
 BYTE   N15  Gs3
 BYTE   W16
 BYTE   Fs3
 BYTE   W16
 BYTE   En3
 BYTE   W16
 BYTE   N42  Gs3
 BYTE   W48
//  #06 //002   ----------------------------------------
 BYTE   N15  Cs4
 BYTE   W16
 BYTE   Bn3
 BYTE   W16
 BYTE   Cs4
 BYTE   W16
 BYTE   En4
 BYTE   W16
 BYTE   Fs4
 BYTE   W16
 BYTE   Gs4
 BYTE   W16
//  #06 //003   ----------------------------------------
 BYTE   An4
 BYTE   W16
 BYTE   Gs4
 BYTE   W16
 BYTE   An4
 BYTE   W16
 BYTE   N42  Fs4
 BYTE   W48
//  #06 //004   ----------------------------------------
 BYTE   N32  En4
 BYTE   W36
 BYTE   N05  Ds4
 BYTE   W06
 BYTE   En4
 BYTE   W06
 BYTE   N32  Cs4
 BYTE   W36
 BYTE   N05  Ds4
 BYTE   W06
 BYTE   En4
 BYTE   W06
//  #06 //005   ----------------------------------------
 BYTE   N15  Gs4
 BYTE   W16
 BYTE   Fs4
 BYTE   W16
 BYTE   En4
 BYTE   W16
 BYTE   Cs4
 BYTE   W16
 BYTE   Bn3
 BYTE   W16
 BYTE   Cs4
 BYTE   W16
//  #06 //006   ----------------------------------------
 BYTE   N07  Gs3
 BYTE   W08
 BYTE   En3
 BYTE   W08
 BYTE   Gs3
 BYTE   W08
 BYTE   Cs4
 BYTE   W08
 BYTE   Gs3
 BYTE   W08
 BYTE   Cs4
 BYTE   W08
 BYTE   En4
 BYTE   W08
 BYTE   Cs4
 BYTE   W08
 BYTE   En4
 BYTE   W08
 BYTE   Gs4
 BYTE   W08
 BYTE   En4
 BYTE   W08
 BYTE   Gs4
 BYTE   W08
//  #06 //007   ----------------------------------------
 BYTE   N90  An4
 BYTE   W96
//  #06 //008   ----------------------------------------
 BYTE   N15  An3
 BYTE   W16
 BYTE   Fs3
 BYTE   W16
 BYTE   An3
 BYTE   W16
 BYTE   Cs4
 BYTE   W16
 BYTE   Bn3
 BYTE   W16
 BYTE   An3
 BYTE   W16
//  #06 //009   ----------------------------------------
 BYTE   Dn4
 BYTE   W16
 BYTE   An3
 BYTE   W16
 BYTE   Dn4
 BYTE   W16
 BYTE   Fs4
 BYTE   W16
 BYTE   En4
 BYTE   W16
 BYTE   Dn4
 BYTE   W16
//  #06 //010   ----------------------------------------
 BYTE   N07  Bn3
 BYTE   W08
 BYTE   Fs3
 BYTE   W08
 BYTE   Bn3
 BYTE   W08
 BYTE   Ds4
 BYTE   W08
 BYTE   Bn3
 BYTE   W08
 BYTE   Ds4
 BYTE   W08
 BYTE   N15  Fs4
 BYTE   W16
 BYTE   En4
 BYTE   W16
 BYTE   Ds4
 BYTE   W16
//  #06 //011   ----------------------------------------
 BYTE   En4
 BYTE   W16
 BYTE   Cs4
 BYTE   W16
 BYTE   En4
 BYTE   W16
 BYTE   N20  Bn3
 BYTE   W24
 BYTE   Gs3
 BYTE   W24
//  #06 //012   ----------------------------------------
 BYTE   N15  Fs3
 BYTE   W16
 BYTE   En3
 BYTE   W16
 BYTE   Fs3
 BYTE   W16
 BYTE   Cs3
 BYTE   W16
 BYTE   Bn2
 BYTE   W16
 BYTE   Cs3
 BYTE   W16
//  #06 //013   ----------------------------------------
 BYTE   Dn3
 BYTE   W16
 BYTE   Fs3
 BYTE   W16
 BYTE   En3
 BYTE   W16
 BYTE   Dn3
 BYTE   W16
 BYTE   An2
 BYTE   W16
 BYTE   Dn3
 BYTE   W16
//  #06 //014   ----------------------------------------
 BYTE   N07  Ds3
 BYTE   W08
 BYTE   Bn2
 BYTE   W08
 BYTE   Ds3
 BYTE   W08
 BYTE   Fs3
 BYTE   W08
 BYTE   Ds3
 BYTE   W08
 BYTE   Fs3
 BYTE   W08
 BYTE   Bn3
 BYTE   W08
 BYTE   An3
 BYTE   W08
 BYTE   Gs3
 BYTE   W08
 BYTE   Fs3
 BYTE   W08
 BYTE   En3
 BYTE   W08
 BYTE   Ds3
 BYTE   W08
//  #06 //015   ----------------------------------------
 BYTE   N20  En3
 BYTE   W24
 BYTE   Fs3
 BYTE   W24
 BYTE   N42  Gs3
 BYTE   W48
//  #06 //016   ----------------------------------------
 BYTE   N20  Fs3
 BYTE   W24
 BYTE   Ds3
 BYTE   W24
 BYTE   Fs3
 BYTE   W24
 BYTE   Bn3
 BYTE   W24
//  #06 //017   ----------------------------------------
 BYTE   N11  Cs4
 BYTE   W12
 BYTE   Bn3
 BYTE   W12
 BYTE   As3
 BYTE   W12
 BYTE   Gs3
 BYTE   W12
 BYTE   N20  Fs3
 BYTE   W24
 BYTE   Gs3
 BYTE   W24
//  #06 //018   ----------------------------------------
 BYTE   An3
 BYTE   W24
 BYTE   N11  Bn3
 BYTE   W12
 BYTE   An3
 BYTE   W12
 BYTE   Gs3
 BYTE   W12
 BYTE   Fs3
 BYTE   W12
 BYTE   En3
 BYTE   W12
 BYTE   Ds3
 BYTE   W12
//  #06 //019   ----------------------------------------
 BYTE   N20  Bn2
 BYTE   W24
 BYTE   Fs3
 BYTE   W24
 BYTE   Gs3
 BYTE   W24
 BYTE   Fs3
 BYTE   W24
//  #06 //020   ----------------------------------------
 BYTE   Cs3
 BYTE   W24
 BYTE   As3
 BYTE   W24
 BYTE   An3
 BYTE   W24
 BYTE   Fs3
 BYTE   W24
//  #06 //021   ----------------------------------------
 BYTE   An3
 BYTE   W24
 BYTE   N11  Bn3
 BYTE   W12
 BYTE   Gs3
 BYTE   W12
 BYTE   Bn3
 BYTE   W12
 BYTE   Ds4
 BYTE   W12
 BYTE   En4
 BYTE   W12
 BYTE   Bn3
 BYTE   W12
//  #06 //022   ----------------------------------------
 BYTE   N20  Cs4
 BYTE   W24
 BYTE   Gs3
 BYTE   W24
 BYTE   Cs4
 BYTE   W24
 BYTE   Dn4
 BYTE   W24
//  #06 //023   ----------------------------------------
 BYTE   N11  Cs4
 BYTE   W12
 BYTE   Bn3
 BYTE   W12
 BYTE   N20  An3
 BYTE   W24
 BYTE   N11  En3
 BYTE   W12
 BYTE   Cs3
 BYTE   W12
 BYTE   En3
 BYTE   W12
 BYTE   Gs3
 BYTE   W12
//  #06 //024   ----------------------------------------
 BYTE   An3
 BYTE   W12
 BYTE   Cs4
 BYTE   W12
 BYTE   Ds4
 BYTE   W12
 BYTE   Cs4
 BYTE   W12
 BYTE   Bn3
 BYTE   W12
 BYTE   Cs4
 BYTE   W12
 BYTE   Bn3
 BYTE   W12
 BYTE   Fs3
 BYTE   W12
//  #06 //025   ----------------------------------------
 BYTE   N20  Gs3
 BYTE   W24
 BYTE   An3
 BYTE   W24
 BYTE   Bn3
 BYTE   W24
 BYTE   N11  An3
 BYTE   W12
 BYTE   Gs3
 BYTE   W12
//  #06 //026   ----------------------------------------
 BYTE   Fs3
 BYTE   W12
 BYTE   En3
 BYTE   W12
 BYTE   N20  Dn3
 BYTE   W24
 BYTE   N11  En3
 BYTE   W12
 BYTE   Cs3
 BYTE   W12
 BYTE   An3
 BYTE   W12
 BYTE   Fs3
 BYTE   W12
//  #06 //027   ----------------------------------------
 BYTE   Cs4
 BYTE   W12
 BYTE   An3
 BYTE   W12
 BYTE   Fs3
 BYTE   W12
 BYTE   Gs3
 BYTE   W12
 BYTE   As3
 BYTE   W12
 BYTE   Bn3
 BYTE   W12
 BYTE   N20  Cs4
 BYTE   W24
//  #06 //028   ----------------------------------------
 BYTE   N90  Bn3
 BYTE   W96
//  #06 //029   ----------------------------------------
 BYTE   W96
//  #06 //030   ----------------------------------------
 BYTE   W96
//  #06 //031   ----------------------------------------
 BYTE   W96
//  #06 //032   ----------------------------------------
 BYTE   W96
//  #06 //033   ----------------------------------------
 BYTE   W96
//  #06 //034   ----------------------------------------
 BYTE   W96
//  #06 //035   ----------------------------------------
 BYTE   W96
//  #06 //036   ----------------------------------------
 BYTE   W92
 BYTE   W03
 BYTE   GoTo
  POIN2 Label_01A6AB9A
 BYTE   FINE

//**************** Track 7 (Midi-Chn.6) ****************//

IronKingdom_007:
//  #07 //000   ----------------------------------------
 BYTE   KEYSH   IronKingdom_key+0
Label_01A6AD2E:
 BYTE   VOICE   36
 BYTE   MODT 0
 BYTE   LFOS 44
 BYTE   PAN   c_v-19
 BYTE   VOL   22*IronKingdom_mvl/mxv
 BYTE   N07  Cs1  v127
 BYTE   W08
 BYTE   N07
 BYTE   W08
 BYTE   N07
 BYTE   W08
 BYTE   Cs2
 BYTE   W08
 BYTE   Cs1
 BYTE   W08
 BYTE   N07
 BYTE   W08
 BYTE   N07
 BYTE   W08
 BYTE   N07
 BYTE   W08
 BYTE   N07
 BYTE   W08
 BYTE   Cs2
 BYTE   W08
 BYTE   Cs1
 BYTE   W08
 BYTE   N07
 BYTE   W08
//  #07 //001   ----------------------------------------
Label_01A6AD52:
 BYTE   N07  Cs1  v127
 BYTE   W08
 BYTE   N07
 BYTE   W08
 BYTE   N07
 BYTE   W08
 BYTE   Cs2
 BYTE   W08
 BYTE   Cs1
 BYTE   W08
 BYTE   N07
 BYTE   W08
 BYTE   N07
 BYTE   W08
 BYTE   N07
 BYTE   W08
 BYTE   N07
 BYTE   W08
 BYTE   Cs2
 BYTE   W08
 BYTE   Cs1
 BYTE   W08
 BYTE   N07
 BYTE   W08
 BYTE   PEND 
//  #07 //002   ----------------------------------------
 BYTE   PATT
  POIN2 Label_01A6AD52
//  #07 //003   ----------------------------------------
Label_01A6AD72:
 BYTE   N07  Dn1  v127
 BYTE   W08
 BYTE   N07
 BYTE   W08
 BYTE   N07
 BYTE   W08
 BYTE   Dn2
 BYTE   W08
 BYTE   Dn1
 BYTE   W08
 BYTE   N07
 BYTE   W08
 BYTE   N07
 BYTE   W08
 BYTE   N07
 BYTE   W08
 BYTE   N07
 BYTE   W08
 BYTE   Dn2
 BYTE   W08
 BYTE   Dn1
 BYTE   W08
 BYTE   N07
 BYTE   W08
 BYTE   PEND 
//  #07 //004   ----------------------------------------
 BYTE   PATT
  POIN2 Label_01A6AD52
//  #07 //005   ----------------------------------------
 BYTE   PATT
  POIN2 Label_01A6AD52
//  #07 //006   ----------------------------------------
 BYTE   PATT
  POIN2 Label_01A6AD52
//  #07 //007   ----------------------------------------
 BYTE   PATT
  POIN2 Label_01A6AD72
//  #07 //008   ----------------------------------------
Label_01A6ADA1:
 BYTE   N15  Cs1  v127
 BYTE   W16
 BYTE   N07
 BYTE   W08
 BYTE   N15  Fs1
 BYTE   W16
 BYTE   N07  An1
 BYTE   W08
 BYTE   N15  Cs1
 BYTE   W16
 BYTE   N07
 BYTE   W08
 BYTE   N15  Fs1
 BYTE   W16
 BYTE   N07  An1
 BYTE   W08
 BYTE   PEND 
//  #07 //009   ----------------------------------------
Label_01A6ADB9:
 BYTE   N15  Dn1  v127
 BYTE   W16
 BYTE   N07
 BYTE   W08
 BYTE   N15  Fs1
 BYTE   W16
 BYTE   N07  An1
 BYTE   W08
 BYTE   N15  Dn1
 BYTE   W16
 BYTE   N07
 BYTE   W08
 BYTE   N15  Fs1
 BYTE   W16
 BYTE   N07  An1
 BYTE   W08
 BYTE   PEND 
//  #07 //010   ----------------------------------------
Label_01A6ADD1:
 BYTE   N15  Ds1  v127
 BYTE   W16
 BYTE   N07
 BYTE   W08
 BYTE   N15  Fs1
 BYTE   W16
 BYTE   N07  Bn1
 BYTE   W08
 BYTE   N15  Ds1
 BYTE   W16
 BYTE   N07
 BYTE   W08
 BYTE   N15  Fs1
 BYTE   W16
 BYTE   N07  Bn1
 BYTE   W08
 BYTE   PEND 
//  #07 //011   ----------------------------------------
Label_01A6ADE9:
 BYTE   N15  En1  v127
 BYTE   W16
 BYTE   N07
 BYTE   W08
 BYTE   N15  Gs1
 BYTE   W16
 BYTE   N07  Cs2
 BYTE   W08
 BYTE   N15  En1
 BYTE   W16
 BYTE   N07
 BYTE   W08
 BYTE   N15  Gs1
 BYTE   W16
 BYTE   N07  Cs2
 BYTE   W08
 BYTE   PEND 
//  #07 //012   ----------------------------------------
 BYTE   PATT
  POIN2 Label_01A6ADA1
//  #07 //013   ----------------------------------------
 BYTE   PATT
  POIN2 Label_01A6ADB9
//  #07 //014   ----------------------------------------
 BYTE   PATT
  POIN2 Label_01A6ADD1
//  #07 //015   ----------------------------------------
 BYTE   PATT
  POIN2 Label_01A6ADE9
//  #07 //016   ----------------------------------------
Label_01A6AE15:
 BYTE   N20  Fs1  v127
 BYTE   W24
 BYTE   Bn1
 BYTE   W24
 BYTE   Fs1
 BYTE   W24
 BYTE   PEND 
Label_01A6AE1E:
 BYTE   N20  As1  v127
 BYTE   W24
//  #07 //017   ----------------------------------------
 BYTE   Fs1
 BYTE   W24
 BYTE   As1
 BYTE   W24
 BYTE   PEND 
Label_01A6AE27:
 BYTE   N20  An1  v127
 BYTE   W24
 BYTE   Fs1
 BYTE   W24
//  #07 //018   ----------------------------------------
 BYTE   An1
 BYTE   W24
 BYTE   PEND 
Label_01A6AE30:
 BYTE   N20  Gs1  v127
 BYTE   W24
 BYTE   An1
 BYTE   W24
 BYTE   Bn1
 BYTE   W24
 BYTE   PEND 
//  #07 //019   ----------------------------------------
 BYTE   PATT
  POIN2 Label_01A6AE15
//  #07 //020   ----------------------------------------
 BYTE   PATT
  POIN2 Label_01A6AE1E
//  #07 //021   ----------------------------------------
 BYTE   PATT
  POIN2 Label_01A6AE27
//  #07 //022   ----------------------------------------
 BYTE   PATT
  POIN2 Label_01A6AE30
//  #07 //023   ----------------------------------------
Label_01A6AE4D:
 BYTE   N20  Cs2  v127
 BYTE   W24
 BYTE   Gs1
 BYTE   W24
 BYTE   Cs2
 BYTE   W24
 BYTE   PEND 
Label_01A6AE56:
 BYTE   N20  Dn2  v127
 BYTE   W24
//  #07 //024   ----------------------------------------
 BYTE   An1
 BYTE   W24
 BYTE   Dn2
 BYTE   W24
 BYTE   PEND 
Label_01A6AE5F:
 BYTE   N20  En2  v127
 BYTE   W24
 BYTE   Cs2
 BYTE   W24
//  #07 //025   ----------------------------------------
 BYTE   En2
 BYTE   W24
 BYTE   PEND 
 BYTE   Fs2
 BYTE   W24
 BYTE   En2
 BYTE   W24
 BYTE   Ds2
 BYTE   W24
//  #07 //026   ----------------------------------------
 BYTE   PATT
  POIN2 Label_01A6AE4D
//  #07 //027   ----------------------------------------
 BYTE   PATT
  POIN2 Label_01A6AE56
//  #07 //028   ----------------------------------------
 BYTE   PATT
  POIN2 Label_01A6AE5F
//  #07 //029   ----------------------------------------
 BYTE   N20  As2  v127
 BYTE   W24
 BYTE   Gs2
 BYTE   W24
 BYTE   Fs2
 BYTE   W24
Label_01A6AE85:
 BYTE   N15  Bn0  v127
 BYTE   W16
 BYTE   N07
 BYTE   W08
//  #07 //030   ----------------------------------------
 BYTE   Bn1
 BYTE   W08
 BYTE   N15  Bn0
 BYTE   W16
 BYTE   N15
 BYTE   W16
 BYTE   N07
 BYTE   W08
 BYTE   Bn1
 BYTE   W08
 BYTE   N15  Bn0
 BYTE   W16
 BYTE   PEND 
//  #07 //031   ----------------------------------------
 BYTE   PATT
  POIN2 Label_01A6AE85
//  #07 //032   ----------------------------------------
 BYTE   PATT
  POIN2 Label_01A6AE85
//  #07 //033   ----------------------------------------
 BYTE   PATT
  POIN2 Label_01A6AE85
//  #07 //034   ----------------------------------------
 BYTE   PATT
  POIN2 Label_01A6AE85
//  #07 //035   ----------------------------------------
 BYTE   N15  Cs1  v127
 BYTE   W16
 BYTE   N07
 BYTE   W08
 BYTE   Cs2
 BYTE   W08
 BYTE   N15  Cs1
 BYTE   W16
 BYTE   N15
 BYTE   W16
 BYTE   N07
 BYTE   W08
 BYTE   Cs2
 BYTE   W08
 BYTE   N15  Cs1
 BYTE   W16
//  #07 //036   ----------------------------------------
 BYTE   PATT
  POIN2 Label_01A6AE85
//  #07 //037   ----------------------------------------
 BYTE   TIE  Cs1  v127
 BYTE   W96
//  #07 //038   ----------------------------------------
 BYTE   W42
 BYTE   EOT
 BYTE   W52
 BYTE   W01
 BYTE   GoTo
  POIN2 Label_01A6AD2E
 BYTE   FINE

//**************** Track 8 (Midi-Chn.7) ****************//

IronKingdom_008:
//  #08 //000   ----------------------------------------
 BYTE   KEYSH   IronKingdom_key+0
Label_019CD9F6:
 BYTE   VOICE   46
 BYTE   MODT 0
 BYTE   LFOS 44
 BYTE   PAN   c_v-29
 BYTE   VOL   28*IronKingdom_mvl/mxv
 BYTE   N12  Cs2  v108
 BYTE   W12
 BYTE   Fs2
 BYTE   W12
 BYTE   An2
 BYTE   W12
 BYTE   Cs3
 BYTE   W12
 BYTE   Cs2
 BYTE   W12
 BYTE   En2
 BYTE   W12
 BYTE   Gs2
 BYTE   W12
 BYTE   Cs3
 BYTE   W12
//  #08 //001   ----------------------------------------
 BYTE   Cs2
 BYTE   W12
 BYTE   Fs2
 BYTE   W12
 BYTE   An2
 BYTE   W12
 BYTE   Cs3
 BYTE   W12
 BYTE   Cs2
 BYTE   W12
 BYTE   Fn2
 BYTE   W12
 BYTE   Gs2
 BYTE   W12
 BYTE   Bn2
 BYTE   W12
//  #08 //002   ----------------------------------------
Label_019CDA22:
 BYTE   N12  Dn2  v108
 BYTE   W12
 BYTE   Fs2
 BYTE   W12
 BYTE   An2
 BYTE   W12
 BYTE   Dn3
 BYTE   W12
 BYTE   En2
 BYTE   W12
 BYTE   Gs2
 BYTE   W12
 BYTE   Bn2
 BYTE   W12
 BYTE   En3
 BYTE   W12
 BYTE   PEND 
//  #08 //003   ----------------------------------------
 BYTE   An1
 BYTE   W12
 BYTE   Cs2
 BYTE   W12
 BYTE   En2
 BYTE   W12
 BYTE   An2
 BYTE   W12
 BYTE   Gs1
 BYTE   W12
 BYTE   Cs2
 BYTE   W12
 BYTE   Fn2
 BYTE   W12
 BYTE   Gs2
 BYTE   W12
//  #08 //004   ----------------------------------------
 BYTE   PATT
  POIN2 Label_019CDA22
//  #08 //005   ----------------------------------------
 BYTE   PATT
  POIN2 Label_019CDA22
//  #08 //006   ----------------------------------------
 BYTE   PATT
  POIN2 Label_019CDA22
//  #08 //007   ----------------------------------------
 BYTE   N12  Fs1  v108
 BYTE   W12
 BYTE   Cs2
 BYTE   W12
 BYTE   Fs2
 BYTE   W12
 BYTE   An2
 BYTE   W12
 BYTE   Cs3
 BYTE   W12
 BYTE   Fs3
 BYTE   W12
 BYTE   An3
 BYTE   W12
 BYTE   N03  Cs4
 BYTE   W03
 BYTE   Fs3
 BYTE   W03
 BYTE   An3
 BYTE   W03
 BYTE   Cs4
 BYTE   W03
//  #08 //008   ----------------------------------------
 BYTE   N96  Fs4
 BYTE   W96
//  #08 //009   ----------------------------------------
 BYTE   VOL   0*IronKingdom_mvl/mxv
 BYTE   W96
//  #08 //010   ----------------------------------------
 BYTE   W96
//  #08 //011   ----------------------------------------
 BYTE   W96
//  #08 //012   ----------------------------------------
 BYTE   W96
//  #08 //013   ----------------------------------------
 BYTE   W96
//  #08 //014   ----------------------------------------
 BYTE   W96
//  #08 //015   ----------------------------------------
 BYTE   W96
//  #08 //016   ----------------------------------------
 BYTE   W72
 BYTE   W72
//  #08 //017   ----------------------------------------
 BYTE   W72
 BYTE   W72
//  #08 //018   ----------------------------------------
 BYTE   W72
 BYTE   W72
//  #08 //019   ----------------------------------------
 BYTE   W72
 BYTE   W72
//  #08 //020   ----------------------------------------
 BYTE   W72
 BYTE   W72
//  #08 //021   ----------------------------------------
 BYTE   W72
 BYTE   W72
//  #08 //022   ----------------------------------------
 BYTE   W72
 BYTE   W72
//  #08 //023   ----------------------------------------
 BYTE   W72
 BYTE   W72
//  #08 //024   ----------------------------------------
 BYTE   W96
//  #08 //025   ----------------------------------------
 BYTE   W96
//  #08 //026   ----------------------------------------
 BYTE   W96
//  #08 //027   ----------------------------------------
 BYTE   W96
//  #08 //028   ----------------------------------------
 BYTE   W96
//  #08 //029   ----------------------------------------
 BYTE   W96
//  #08 //030   ----------------------------------------
 BYTE   W96
//  #08 //031   ----------------------------------------
 BYTE   W96
//  #08 //032   ----------------------------------------
 BYTE   W92
 BYTE   W03
 BYTE   GoTo
  POIN2 Label_019CD9F6
 BYTE   FINE

//******************************************************//
	ALIGN 4

IronKingdom:
	BYTE	8	// NumTrks
	BYTE	0	// NumBlks
	BYTE	IronKingdom_pri	// Priority
	BYTE	IronKingdom_rev	// Reverb.
    
	POIN2	IronKingdom_grp
    
	POIN2	IronKingdom_001
	POIN2	IronKingdom_002
	POIN2	IronKingdom_003
	POIN2	IronKingdom_004
	POIN2	IronKingdom_005
	POIN2	IronKingdom_006
	POIN2	IronKingdom_007
	POIN2	IronKingdom_008

	
