//Event file generated from Sappy .s format.
	#include "MPlayDef.event"

	#define	NorthernWinds_grp  voicegroup000
	#define	NorthernWinds_pri  0
	#define	NorthernWinds_rev  0
	#define	NorthernWinds_mvl  30
	#define	NorthernWinds_key  0
	#define	NorthernWinds_tbs  1
	#define	NorthernWinds_exg  0
	#define	NorthernWinds_cmp  1

	// .rodata
	//	NorthernWinds
	ALIGN 4

//**************** Track 1 (Midi-Chn.1) ****************//

NorthernWinds_1:
	BYTE	KEYSH   NorthernWinds_key+0
NorthernWinds_1_B1:
// 000   ----------------------------------------
	BYTE	TEMPO   100*NorthernWinds_tbs/2
	BYTE		VOICE   73
	BYTE		MODT    0
	BYTE		LFOS    44
	BYTE		VOL     127*NorthernWinds_mvl/mxv
	BYTE		PAN     c_v+0
	BYTE		N11     An3   v100
	BYTE	W12
	BYTE		        Cn4 
	BYTE	W12
	BYTE		        An3 
	BYTE	W12
	BYTE		N20     En4 
	BYTE	W24
	BYTE		        Cn4 
	BYTE	W24
	BYTE		N11     En4 
	BYTE	W12
// 001   ----------------------------------------
	BYTE		        Ds4 
	BYTE	W12
	BYTE		        Cs4 
	BYTE	W12
	BYTE		N20     Bn3 
	BYTE	W48
	BYTE		N11     Cn4 
	BYTE	W12
	BYTE		        Dn4 
	BYTE	W12
// 002   ----------------------------------------
	BYTE		        Cn4 
	BYTE	W12
	BYTE		        Bn3 
	BYTE	W12
	BYTE		        An3 
	BYTE	W12
	BYTE		N20     Cn4 
	BYTE	W24
	BYTE		        An3 
	BYTE	W24
	BYTE		N11     Cn4 
	BYTE	W12
// 003   ----------------------------------------
	BYTE		        Bn3 
	BYTE	W12
	BYTE		        An3 
	BYTE	W12
	BYTE		        Gn3 
	BYTE	W12
	BYTE		        An3 
	BYTE	W12
	BYTE		N42     Gn3 
	BYTE	W48
// 004   ----------------------------------------
	BYTE		N11     An3 
	BYTE	W12
	BYTE		        Cn4 
	BYTE	W12
	BYTE		        An3 
	BYTE	W12
	BYTE		N20     Fn4 
	BYTE	W24
	BYTE		        Dn4 
	BYTE	W24
	BYTE		N11     Fn4 
	BYTE	W12
// 005   ----------------------------------------
	BYTE		        En4 
	BYTE	W12
	BYTE		        Dn4 
	BYTE	W12
	BYTE		N20     Cn4 
	BYTE	W48
	BYTE		N11   
	BYTE	W12
	BYTE		        Bn3 
	BYTE	W12
// 006   ----------------------------------------
	BYTE		        An3 
	BYTE	W12
	BYTE		        Bn3 
	BYTE	W12
	BYTE		        Cn4 
	BYTE	W12
	BYTE		        An3 
	BYTE	W12
	BYTE		        Bn3 
	BYTE	W12
	BYTE		        An3 
	BYTE	W12
	BYTE		        Gn3 
	BYTE	W12
	BYTE		        Bn3 
	BYTE	W12
// 007   ----------------------------------------
	BYTE		        Cn4 
	BYTE	W12
	BYTE		        Bn3 
	BYTE	W12
	BYTE		        An3 
	BYTE	W12
	BYTE		        Bn3 
	BYTE	W12
	BYTE		N42     Cn4 
	BYTE	W48
// 008   ----------------------------------------
	BYTE		        En4 
	BYTE	W48
	BYTE		N20     Cn4 
	BYTE	W24
	BYTE		        En4 
	BYTE	W24
// 009   ----------------------------------------
	BYTE		N42     Ds4 
	BYTE	W48
	BYTE		        Bn3 
	BYTE	W48
// 010   ----------------------------------------
	BYTE		N32     An3 
	BYTE	W36
	BYTE		N11     Bn3 
	BYTE	W12
	BYTE		N20     Cn4 
	BYTE	W24
	BYTE		        An3 
	BYTE	W24
// 011   ----------------------------------------
	BYTE		N42     Bn3 
	BYTE	W48
	BYTE		        Gn3 
	BYTE	W48
// 012   ----------------------------------------
	BYTE		N11     Fn3 
	BYTE	W12
	BYTE		        Gn3 
	BYTE	W12
	BYTE		        An3 
	BYTE	W12
	BYTE		        Cn4 
	BYTE	W12
	BYTE		        Fn4 
	BYTE	W12
	BYTE		        En4 
	BYTE	W12
	BYTE		        Dn4 
	BYTE	W12
	BYTE		        Cn4 
	BYTE	W12
// 013   ----------------------------------------
	BYTE		        Gn3 
	BYTE	W12
	BYTE		        Cn4 
	BYTE	W12
	BYTE		        Dn4 
	BYTE	W12
	BYTE		        En4 
	BYTE	W12
	BYTE		        Gn4 
	BYTE	W12
	BYTE		        Fn4 
	BYTE	W12
	BYTE		        En4 
	BYTE	W12
	BYTE		        Cn4 
	BYTE	W12
// 014   ----------------------------------------
	BYTE		        An3 
	BYTE	W12
	BYTE		        Bn3 
	BYTE	W12
	BYTE		N20     Cn4 
	BYTE	W24
	BYTE		N11     Bn3 
	BYTE	W12
	BYTE		        Cn4 
	BYTE	W12
	BYTE		N20     Dn4 
	BYTE	W24
// 015   ----------------------------------------
	BYTE		N11     En4 
	BYTE	W12
	BYTE		        Dn4 
	BYTE	W12
	BYTE		        Cn4 
	BYTE	W12
	BYTE		        Bn3 
	BYTE	W12
	BYTE		N42     An3 
	BYTE	W42
	BYTE		PAN     c_v+18
	BYTE		VOL     127*NorthernWinds_mvl/mxv
	BYTE		N32     An3   v127
	BYTE	W06
// 016   ----------------------------------------
	BYTE	W30
	BYTE		N05     Bn3 
	BYTE	W06
	BYTE		        Cn4 
	BYTE	W06
	BYTE		N32     Gn3 
	BYTE	W36
	BYTE		N05   
	BYTE	W06
	BYTE		        Fn3 
	BYTE	W06
	BYTE		N15     En3 
	BYTE	W06
// 017   ----------------------------------------
	BYTE	W10
	BYTE		        Dn3 
	BYTE	W16
	BYTE		        Cn3 
	BYTE	W16
	BYTE		N42     En3 
	BYTE	W48
	BYTE		N15     An3 
	BYTE	W06
// 018   ----------------------------------------
	BYTE	W10
	BYTE		        Gn3 
	BYTE	W16
	BYTE		        An3 
	BYTE	W16
	BYTE		        Cn4 
	BYTE	W16
	BYTE		        Dn4 
	BYTE	W16
	BYTE		        En4 
	BYTE	W16
	BYTE		        Fn4 
	BYTE	W06
// 019   ----------------------------------------
	BYTE	W10
	BYTE		        En4 
	BYTE	W16
	BYTE		        Fn4 
	BYTE	W16
	BYTE		N42     Dn4 
	BYTE	W48
	BYTE		N32     Cn4 
	BYTE	W06
// 020   ----------------------------------------
	BYTE	W30
	BYTE		N05     Bn3 
	BYTE	W06
	BYTE		        Cn4 
	BYTE	W06
	BYTE		N32     An3 
	BYTE	W36
	BYTE		N05     Bn3 
	BYTE	W06
	BYTE		        Cn4 
	BYTE	W06
	BYTE		N15     En4 
	BYTE	W06
// 021   ----------------------------------------
	BYTE	W10
	BYTE		        Dn4 
	BYTE	W16
	BYTE		        Cn4 
	BYTE	W16
	BYTE		        An3 
	BYTE	W16
	BYTE		        Gn3 
	BYTE	W16
	BYTE		        An3 
	BYTE	W16
	BYTE		N07     En3 
	BYTE	W06
// 022   ----------------------------------------
	BYTE	W02
	BYTE		        Cn3 
	BYTE	W08
	BYTE		        En3 
	BYTE	W08
	BYTE		        An3 
	BYTE	W08
	BYTE		        En3 
	BYTE	W08
	BYTE		        An3 
	BYTE	W08
	BYTE		        Cn4 
	BYTE	W08
	BYTE		        An3 
	BYTE	W08
	BYTE		        Cn4 
	BYTE	W08
	BYTE		        En4 
	BYTE	W08
	BYTE		        Cn4 
	BYTE	W08
	BYTE		        En4 
	BYTE	W08
	BYTE		N90     Fn4 
	BYTE	W06
// 023   ----------------------------------------
	BYTE	W90
	BYTE	GoTo
	 POIN2	NorthernWinds_1_B1
NorthernWinds_1_B2:
	BYTE	FINE

//**************** Track 2 (Midi-Chn.2) ****************//

NorthernWinds_2:
	BYTE	KEYSH   NorthernWinds_key+0
NorthernWinds_2_B1:
// 000   ----------------------------------------
	BYTE		VOICE   48
	BYTE		MODT    0
	BYTE		LFOS    44
	BYTE		PAN     c_v-14
	BYTE		VOL     103*NorthernWinds_mvl/mxv
	BYTE		N11     An2   v100
	BYTE		N11     Cn3 
	BYTE		N11     En3 
	BYTE	W12
	BYTE		        An3 
	BYTE	W12
	BYTE		        Cn4 
	BYTE		N11     En4 
	BYTE		N11     An4 
	BYTE	W12
	BYTE		        An3 
	BYTE	W12
	BYTE		        An2 
	BYTE		N11     Cn3 
	BYTE		N11     En3 
	BYTE	W12
	BYTE		        An3 
	BYTE	W12
	BYTE		        Cn4 
	BYTE		N11     En4 
	BYTE		N11     An4 
	BYTE	W12
	BYTE		        An3 
	BYTE	W12
// 001   ----------------------------------------
NorthernWinds_2_001:
	BYTE		N11     Bn2   v100
	BYTE		N11     Ds3 
	BYTE		N11     Fs3 
	BYTE	W12
	BYTE		        Bn3 
	BYTE	W12
	BYTE		        Ds4 
	BYTE		N11     Fs4 
	BYTE		N11     Bn4 
	BYTE	W12
	BYTE		        Bn3 
	BYTE	W12
	BYTE		        Bn2 
	BYTE		N11     Ds3 
	BYTE		N11     Fs3 
	BYTE	W12
	BYTE		        Bn3 
	BYTE	W12
	BYTE		        Ds4 
	BYTE		N11     Fs4 
	BYTE		N11     Bn4 
	BYTE	W12
	BYTE		        Bn3 
	BYTE	W12
	BYTE	PEND
// 002   ----------------------------------------
NorthernWinds_2_002:
	BYTE		N11     An2   v100
	BYTE		N11     Cn3 
	BYTE		N11     En3 
	BYTE	W12
	BYTE		        An3 
	BYTE	W12
	BYTE		        Cn4 
	BYTE		N11     En4 
	BYTE		N11     An4 
	BYTE	W12
	BYTE		        An3 
	BYTE	W12
	BYTE		        An2 
	BYTE		N11     Cn3 
	BYTE		N11     En3 
	BYTE	W12
	BYTE		        An3 
	BYTE	W12
	BYTE		        Cn4 
	BYTE		N11     En4 
	BYTE		N11     An4 
	BYTE	W12
	BYTE		        An3 
	BYTE	W12
	BYTE	PEND
// 003   ----------------------------------------
NorthernWinds_2_003:
	BYTE		N11     Gn2   v100
	BYTE		N11     Bn2 
	BYTE		N11     Dn3 
	BYTE	W12
	BYTE		        Gn3 
	BYTE	W12
	BYTE		        Dn4 
	BYTE		N11     Gn4 
	BYTE		N11     Bn4 
	BYTE	W12
	BYTE		        Gn3 
	BYTE	W12
	BYTE		        Gn2 
	BYTE		N11     Bn2 
	BYTE		N11     Dn3 
	BYTE	W12
	BYTE		        Gn3 
	BYTE	W12
	BYTE		        Dn4 
	BYTE		N11     Gn4 
	BYTE		N11     Bn4 
	BYTE	W12
	BYTE		        Gn3 
	BYTE	W12
	BYTE	PEND
// 004   ----------------------------------------
NorthernWinds_2_004:
	BYTE		N11     Fn2   v100
	BYTE		N11     An2 
	BYTE		N11     Cn3 
	BYTE	W12
	BYTE		        Fn3 
	BYTE	W12
	BYTE		        An3 
	BYTE		N11     Cn4 
	BYTE		N11     Fn4 
	BYTE	W12
	BYTE		        Fn3 
	BYTE	W12
	BYTE		        Fn2 
	BYTE		N11     An2 
	BYTE		N11     Cn3 
	BYTE	W12
	BYTE		        Fn3 
	BYTE	W12
	BYTE		        An3 
	BYTE		N11     Cn4 
	BYTE		N11     Fn4 
	BYTE	W12
	BYTE		        Fn3 
	BYTE	W12
	BYTE	PEND
// 005   ----------------------------------------
NorthernWinds_2_005:
	BYTE		N11     En2   v100
	BYTE		N11     Gn2 
	BYTE		N11     Cn3 
	BYTE	W12
	BYTE		        En3 
	BYTE	W12
	BYTE		        Gn3 
	BYTE		N11     Cn4 
	BYTE		N11     En4 
	BYTE	W12
	BYTE		        En3 
	BYTE	W12
	BYTE		        En2 
	BYTE		N11     Gn2 
	BYTE		N11     Cn3 
	BYTE	W12
	BYTE		        En3 
	BYTE	W12
	BYTE		        Gn3 
	BYTE		N11     Cn4 
	BYTE		N11     En4 
	BYTE	W12
	BYTE		        En3 
	BYTE	W12
	BYTE	PEND
// 006   ----------------------------------------
NorthernWinds_2_006:
	BYTE		N11     Fn2   v100
	BYTE		N11     An2 
	BYTE		N11     Cn3 
	BYTE	W12
	BYTE		        Fn3 
	BYTE	W12
	BYTE		        An3 
	BYTE		N11     Cn4 
	BYTE		N11     Fn4 
	BYTE	W12
	BYTE		        Fn3 
	BYTE	W12
	BYTE		        Gn2 
	BYTE		N11     Bn2 
	BYTE		N11     Dn3 
	BYTE	W12
	BYTE		        Gn3 
	BYTE	W12
	BYTE		        Dn4 
	BYTE		N11     Gn4 
	BYTE		N11     Bn4 
	BYTE	W12
	BYTE		        Gn3 
	BYTE	W12
	BYTE	PEND
// 007   ----------------------------------------
	BYTE	PATT
	 POIN2	NorthernWinds_2_002
// 008   ----------------------------------------
	BYTE	PATT
	 POIN2	NorthernWinds_2_002
// 009   ----------------------------------------
	BYTE	PATT
	 POIN2	NorthernWinds_2_001
// 010   ----------------------------------------
	BYTE	PATT
	 POIN2	NorthernWinds_2_002
// 011   ----------------------------------------
	BYTE	PATT
	 POIN2	NorthernWinds_2_003
// 012   ----------------------------------------
	BYTE	PATT
	 POIN2	NorthernWinds_2_004
// 013   ----------------------------------------
	BYTE	PATT
	 POIN2	NorthernWinds_2_005
// 014   ----------------------------------------
	BYTE	PATT
	 POIN2	NorthernWinds_2_006
// 015   ----------------------------------------
	BYTE	PATT
	 POIN2	NorthernWinds_2_002
// 016   ----------------------------------------
	BYTE	W96
// 017   ----------------------------------------
	BYTE	W96
// 018   ----------------------------------------
	BYTE	W96
// 019   ----------------------------------------
	BYTE	W96
// 020   ----------------------------------------
	BYTE	W96
// 021   ----------------------------------------
	BYTE	W96
// 022   ----------------------------------------
	BYTE	W96
// 023   ----------------------------------------
	BYTE	W90
	BYTE	GoTo
	 POIN2	NorthernWinds_2_B1
NorthernWinds_2_B2:
	BYTE	FINE

//**************** Track 3 (Midi-Chn.3) ****************//

NorthernWinds_3:
	BYTE	KEYSH   NorthernWinds_key+0
NorthernWinds_3_B1:
// 000   ----------------------------------------
	BYTE		VOICE   81
	BYTE		MODT    0
	BYTE		LFOS    44
	BYTE		VOL     95*NorthernWinds_mvl/mxv
	BYTE		PAN     c_v+6
	BYTE		N11     An1   v100
	BYTE	W12
	BYTE		N11   
	BYTE	W12
	BYTE		        Gn2 
	BYTE	W12
	BYTE		        An2 
	BYTE	W12
	BYTE		        An1 
	BYTE	W12
	BYTE		N11   
	BYTE	W12
	BYTE		        Gn2 
	BYTE	W12
	BYTE		        An2 
	BYTE	W12
// 001   ----------------------------------------
NorthernWinds_3_001:
	BYTE		N11     Bn1   v100
	BYTE	W12
	BYTE		N11   
	BYTE	W12
	BYTE		        An2 
	BYTE	W12
	BYTE		        Bn2 
	BYTE	W12
	BYTE		        Bn1 
	BYTE	W12
	BYTE		N11   
	BYTE	W12
	BYTE		        An2 
	BYTE	W12
	BYTE		        Bn2 
	BYTE	W12
	BYTE	PEND
// 002   ----------------------------------------
NorthernWinds_3_002:
	BYTE		N11     An1   v100
	BYTE	W12
	BYTE		N11   
	BYTE	W12
	BYTE		        Gn2 
	BYTE	W12
	BYTE		        An2 
	BYTE	W12
	BYTE		        An1 
	BYTE	W12
	BYTE		N11   
	BYTE	W12
	BYTE		        Gn2 
	BYTE	W12
	BYTE		        An2 
	BYTE	W12
	BYTE	PEND
// 003   ----------------------------------------
NorthernWinds_3_003:
	BYTE		N11     Gn1   v100
	BYTE	W12
	BYTE		N11   
	BYTE	W12
	BYTE		        Fn2 
	BYTE	W12
	BYTE		        Gn2 
	BYTE	W12
	BYTE		        Gn1 
	BYTE	W12
	BYTE		N11   
	BYTE	W12
	BYTE		        Fn2 
	BYTE	W12
	BYTE		        Gn2 
	BYTE	W12
	BYTE	PEND
// 004   ----------------------------------------
NorthernWinds_3_004:
	BYTE		N11     Fn1   v100
	BYTE	W12
	BYTE		N11   
	BYTE	W12
	BYTE		        En2 
	BYTE	W12
	BYTE		        Fn2 
	BYTE	W12
	BYTE		        Fn1 
	BYTE	W12
	BYTE		N11   
	BYTE	W12
	BYTE		        En2 
	BYTE	W12
	BYTE		        Fn2 
	BYTE	W12
	BYTE	PEND
// 005   ----------------------------------------
NorthernWinds_3_005:
	BYTE		N11     Cn2   v100
	BYTE	W12
	BYTE		N11   
	BYTE	W12
	BYTE		        Bn2 
	BYTE	W12
	BYTE		        Cn3 
	BYTE	W12
	BYTE		        Cn2 
	BYTE	W12
	BYTE		N11   
	BYTE	W12
	BYTE		        Bn2 
	BYTE	W12
	BYTE		        Cn3 
	BYTE	W12
	BYTE	PEND
// 006   ----------------------------------------
NorthernWinds_3_006:
	BYTE		N11     Fn1   v100
	BYTE	W12
	BYTE		N11   
	BYTE	W12
	BYTE		        En2 
	BYTE	W12
	BYTE		        Fn2 
	BYTE	W12
	BYTE		        Gn1 
	BYTE	W12
	BYTE		N11   
	BYTE	W12
	BYTE		        Fn2 
	BYTE	W12
	BYTE		        Gn2 
	BYTE	W12
	BYTE	PEND
// 007   ----------------------------------------
	BYTE	PATT
	 POIN2	NorthernWinds_3_002
// 008   ----------------------------------------
	BYTE	PATT
	 POIN2	NorthernWinds_3_002
// 009   ----------------------------------------
	BYTE	PATT
	 POIN2	NorthernWinds_3_001
// 010   ----------------------------------------
	BYTE	PATT
	 POIN2	NorthernWinds_3_002
// 011   ----------------------------------------
	BYTE	PATT
	 POIN2	NorthernWinds_3_003
// 012   ----------------------------------------
	BYTE	PATT
	 POIN2	NorthernWinds_3_004
// 013   ----------------------------------------
	BYTE	PATT
	 POIN2	NorthernWinds_3_005
// 014   ----------------------------------------
	BYTE	PATT
	 POIN2	NorthernWinds_3_006
// 015   ----------------------------------------
	BYTE	PATT
	 POIN2	NorthernWinds_3_002
// 016   ----------------------------------------
NorthernWinds_3_016:
	BYTE		N11     An1   v100
	BYTE	W12
	BYTE		N11   
	BYTE	W12
	BYTE		        Gn1 
	BYTE	W12
	BYTE		        An1 
	BYTE	W60
	BYTE	PEND
// 017   ----------------------------------------
NorthernWinds_3_017:
	BYTE		N11     Gn1   v100
	BYTE	W12
	BYTE		N11   
	BYTE	W12
	BYTE		        Fn1 
	BYTE	W12
	BYTE		        Gn1 
	BYTE	W60
	BYTE	PEND
// 018   ----------------------------------------
	BYTE		        Fn1 
	BYTE	W12
	BYTE		N11   
	BYTE	W12
	BYTE		        En1 
	BYTE	W12
	BYTE		        Fn1 
	BYTE	W60
// 019   ----------------------------------------
	BYTE	PATT
	 POIN2	NorthernWinds_3_017
// 020   ----------------------------------------
	BYTE		N11     Cn2   v100
	BYTE	W12
	BYTE		N11   
	BYTE	W12
	BYTE		        Bn1 
	BYTE	W12
	BYTE		        Cn2 
	BYTE	W60
// 021   ----------------------------------------
	BYTE		        Bn1 
	BYTE	W12
	BYTE		N11   
	BYTE	W12
	BYTE		        An1 
	BYTE	W12
	BYTE		        Bn1 
	BYTE	W60
// 022   ----------------------------------------
	BYTE	PATT
	 POIN2	NorthernWinds_3_016
// 023   ----------------------------------------
	BYTE		N11     Gs1   v100
	BYTE	W12
	BYTE		N11   
	BYTE	W12
	BYTE		        Fs1 
	BYTE	W12
	BYTE		        Gs1 
	BYTE	W54
	BYTE	GoTo
	 POIN2	NorthernWinds_3_B1
NorthernWinds_3_B2:
	BYTE	FINE

//**************** Track 4 (Midi-Chn.4) ****************//

NorthernWinds_4:
	BYTE	KEYSH   NorthernWinds_key+0
NorthernWinds_4_B1:
// 000   ----------------------------------------
	BYTE		VOICE   52
	BYTE		MODT    0
	BYTE		LFOS    44
	BYTE		VOL     105*NorthernWinds_mvl/mxv
	BYTE		PAN     c_v+21
	BYTE	W96
// 001   ----------------------------------------
	BYTE	W96
// 002   ----------------------------------------
	BYTE	W96
// 003   ----------------------------------------
	BYTE	W96
// 004   ----------------------------------------
	BYTE	W96
// 005   ----------------------------------------
	BYTE	W96
// 006   ----------------------------------------
	BYTE	W96
// 007   ----------------------------------------
	BYTE	W96
// 008   ----------------------------------------
	BYTE	W96
// 009   ----------------------------------------
	BYTE	W96
// 010   ----------------------------------------
	BYTE	W96
// 011   ----------------------------------------
	BYTE	W96
// 012   ----------------------------------------
	BYTE	W96
// 013   ----------------------------------------
	BYTE	W96
// 014   ----------------------------------------
	BYTE	W96
// 015   ----------------------------------------
	BYTE	W96
// 016   ----------------------------------------
	BYTE		N90     An3   v100
	BYTE	W48
	BYTE		N42     Cn4 
	BYTE	W48
// 017   ----------------------------------------
	BYTE		N90     Gn3 
	BYTE	W48
	BYTE		N42     Bn3 
	BYTE	W48
// 018   ----------------------------------------
	BYTE		N90     An3 
	BYTE		N90     Cn4 
	BYTE	W48
	BYTE		N42     Fn4 
	BYTE	W48
// 019   ----------------------------------------
	BYTE		N90     Bn3 
	BYTE		N90     Dn4 
	BYTE	W48
	BYTE		N42     Gn4 
	BYTE	W48
// 020   ----------------------------------------
	BYTE		N90     Gn3 
	BYTE		N90     Cn4 
	BYTE		N90     En4 
	BYTE	W48
	BYTE		N42     Gn4 
	BYTE	W48
// 021   ----------------------------------------
	BYTE		N90     Gn3 
	BYTE		N90     Bn3 
	BYTE		N90     Dn4 
	BYTE	W48
	BYTE		N42     Fn4 
	BYTE	W48
// 022   ----------------------------------------
	BYTE		N90     Fn3 
	BYTE		N90     An3 
	BYTE		N90     Cn4 
	BYTE		N90     Fn4 
	BYTE	W48
	BYTE		N42     An4 
	BYTE	W48
// 023   ----------------------------------------
	BYTE		N90     En3 
	BYTE		N90     Gs3 
	BYTE		N90     Bn3 
	BYTE		N90     En4 
	BYTE		N90     Gs4 
	BYTE		N90     Bn4 
	BYTE	W90
	BYTE	GoTo
	 POIN2	NorthernWinds_4_B1
NorthernWinds_4_B2:
	BYTE	FINE

//**************** Track 5 (Midi-Chn.5) ****************//

NorthernWinds_5:
	BYTE	KEYSH   NorthernWinds_key+0
NorthernWinds_5_B1:
// 000   ----------------------------------------
	BYTE		VOICE   122
	BYTE		MODT    0
	BYTE		LFOS    44
	BYTE		VOL     112*NorthernWinds_mvl/mxv
	BYTE		PAN     c_v+0
	BYTE		N11     Bn0   v100
	BYTE		N11     Cn1 
	BYTE		N11     Gs1 
	BYTE		N11     Fs2 
	BYTE	W12
	BYTE		        Gs1 
	BYTE	W12
	BYTE		        Dn1 
	BYTE		N11     En1 
	BYTE		N11     Gs1 
	BYTE		N11     An1 
	BYTE		N11     Bn1 
	BYTE		N11     Cn2 
	BYTE		N11     Fs2 
	BYTE	W12
	BYTE		        Gs1 
	BYTE	W12
	BYTE		        Bn0 
	BYTE		N11     Cn1 
	BYTE		N11     Gs1 
	BYTE		N11     Fs2 
	BYTE	W12
	BYTE		        Gs1 
	BYTE	W12
	BYTE		        Dn1 
	BYTE		N11     En1 
	BYTE		N11     Gs1 
	BYTE		N11     An1 
	BYTE		N11     Bn1 
	BYTE		N11     Cn2 
	BYTE		N11     Fs2 
	BYTE	W12
	BYTE		        Gs1 
	BYTE	W12
// 001   ----------------------------------------
NorthernWinds_5_001:
	BYTE		N11     Bn0   v100
	BYTE		N11     Cn1 
	BYTE		N11     Gs1 
	BYTE		N11     Fs2 
	BYTE	W12
	BYTE		        Gs1 
	BYTE	W12
	BYTE		        Dn1 
	BYTE		N11     En1 
	BYTE		N11     Gs1 
	BYTE		N11     An1 
	BYTE		N11     Bn1 
	BYTE		N11     Cn2 
	BYTE		N11     Fs2 
	BYTE	W12
	BYTE		        Gs1 
	BYTE	W12
	BYTE		        Bn0 
	BYTE		N11     Cn1 
	BYTE		N11     Gs1 
	BYTE		N11     Fs2 
	BYTE	W12
	BYTE		        Gs1 
	BYTE	W12
	BYTE		        Dn1 
	BYTE		N11     En1 
	BYTE		N11     Gs1 
	BYTE		N11     An1 
	BYTE		N11     Bn1 
	BYTE		N11     Cn2 
	BYTE		N11     Fs2 
	BYTE	W12
	BYTE		        Gs1 
	BYTE	W12
	BYTE	PEND
// 002   ----------------------------------------
	BYTE	PATT
	 POIN2	NorthernWinds_5_001
// 003   ----------------------------------------
	BYTE	PATT
	 POIN2	NorthernWinds_5_001
// 004   ----------------------------------------
	BYTE	PATT
	 POIN2	NorthernWinds_5_001
// 005   ----------------------------------------
	BYTE	PATT
	 POIN2	NorthernWinds_5_001
// 006   ----------------------------------------
	BYTE	PATT
	 POIN2	NorthernWinds_5_001
// 007   ----------------------------------------
	BYTE	PATT
	 POIN2	NorthernWinds_5_001
// 008   ----------------------------------------
	BYTE	PATT
	 POIN2	NorthernWinds_5_001
// 009   ----------------------------------------
	BYTE	PATT
	 POIN2	NorthernWinds_5_001
// 010   ----------------------------------------
	BYTE	PATT
	 POIN2	NorthernWinds_5_001
// 011   ----------------------------------------
	BYTE	PATT
	 POIN2	NorthernWinds_5_001
// 012   ----------------------------------------
	BYTE	PATT
	 POIN2	NorthernWinds_5_001
// 013   ----------------------------------------
	BYTE	PATT
	 POIN2	NorthernWinds_5_001
// 014   ----------------------------------------
	BYTE	PATT
	 POIN2	NorthernWinds_5_001
// 015   ----------------------------------------
	BYTE	PATT
	 POIN2	NorthernWinds_5_001
// 016   ----------------------------------------
NorthernWinds_5_016:
	BYTE		N11     Bn0   v100
	BYTE		N11     Cn1 
	BYTE		N11     Gs1 
	BYTE	W12
	BYTE		N05   
	BYTE	W06
	BYTE		N05   
	BYTE	W06
	BYTE		N11     Bn0 
	BYTE		N11     Cn1 
	BYTE		N11     Gs1 
	BYTE	W12
	BYTE		N05   
	BYTE	W06
	BYTE		N05   
	BYTE	W06
	BYTE		N11     Bn0 
	BYTE		N11     Cn1 
	BYTE		N11     Gs1 
	BYTE	W12
	BYTE		N05   
	BYTE	W06
	BYTE		N05   
	BYTE	W06
	BYTE		        Bn0 
	BYTE		N05     Cn1 
	BYTE		N05     Gs1 
	BYTE	W06
	BYTE		N05   
	BYTE	W06
	BYTE		        Bn0 
	BYTE		N05     Cn1 
	BYTE		N05     Gs1 
	BYTE	W06
	BYTE		N05   
	BYTE	W06
	BYTE	PEND
// 017   ----------------------------------------
	BYTE	PATT
	 POIN2	NorthernWinds_5_016
// 018   ----------------------------------------
	BYTE	PATT
	 POIN2	NorthernWinds_5_016
// 019   ----------------------------------------
	BYTE	PATT
	 POIN2	NorthernWinds_5_016
// 020   ----------------------------------------
	BYTE	PATT
	 POIN2	NorthernWinds_5_016
// 021   ----------------------------------------
	BYTE	PATT
	 POIN2	NorthernWinds_5_016
// 022   ----------------------------------------
	BYTE	PATT
	 POIN2	NorthernWinds_5_016
// 023   ----------------------------------------
	BYTE		N11     Bn0   v100
	BYTE		N11     Cn1 
	BYTE		N11     Gs1 
	BYTE	W12
	BYTE		N05   
	BYTE	W06
	BYTE		N05   
	BYTE	W06
	BYTE		N11     Bn0 
	BYTE		N11     Cn1 
	BYTE		N11     Gs1 
	BYTE	W12
	BYTE		N05   
	BYTE	W06
	BYTE		N05   
	BYTE	W06
	BYTE		N42     Bn0 
	BYTE		N42     Cn1 
	BYTE		N42     Dn1 
	BYTE		N42     En1 
	BYTE		N42     Gs1 
	BYTE		N42     An1 
	BYTE		N42     Bn1 
	BYTE		N42     Cn2 
	BYTE		N42     An2 
	BYTE	W42
	BYTE	GoTo
	 POIN2	NorthernWinds_5_B1
NorthernWinds_5_B2:
	BYTE	FINE

//******************************************************//
	ALIGN 4

NorthernWinds:
	BYTE	5	// NumTrks
	BYTE	0	// NumBlks
	BYTE	NorthernWinds_pri	// Priority
	BYTE	NorthernWinds_rev	// Reverb.

	POIN2	NorthernWinds_grp

	POIN2	NorthernWinds_1
	POIN2	NorthernWinds_2
	POIN2	NorthernWinds_3
	POIN2	NorthernWinds_4
	POIN2	NorthernWinds_5

	
