//Event file generated from Sappy .s format.
	#include "MPlayDef.event"

	#define	WintersApproach_grp  voicegroup000
	#define	WintersApproach_pri  0
	#define	WintersApproach_rev  120
	#define	WintersApproach_mvl  26
	#define	WintersApproach_key  0
	#define	WintersApproach_tbs  1
	#define	WintersApproach_exg  0
	#define	WintersApproach_cmp  1

	// .rodata
	//	WintersApproach
	ALIGN 4

//**************** Track 1 (Midi-Chn.1) ****************//

WintersApproach_1:
	BYTE	KEYSH   WintersApproach_key+0
WintersApproach_1_B1:
// 000   ----------------------------------------
	BYTE	TEMPO   95*WintersApproach_tbs/2
	BYTE		VOICE   0
	BYTE		MODT    0
	BYTE		LFOS    44
	BYTE		VOL     127*WintersApproach_mvl/mxv
	BYTE		PAN     c_v+0
	BYTE	W96
// 001   ----------------------------------------
	BYTE	W96
// 002   ----------------------------------------
	BYTE	W96
// 003   ----------------------------------------
	BYTE	W96
// 004   ----------------------------------------
	BYTE	W96
// 005   ----------------------------------------
	BYTE	W96
// 006   ----------------------------------------
	BYTE	W96
// 007   ----------------------------------------
	BYTE	W96
// 008   ----------------------------------------
WintersApproach_1_008:
	BYTE		N42     An3   v127
	BYTE		N42     Cn4 
	BYTE		N32     Cn5 
	BYTE	W36
	BYTE		N11     En5 
	BYTE	W12
	BYTE		N42     Gn3 
	BYTE		N42     Bn3 
	BYTE		N20     Bn4 
	BYTE	W24
	BYTE		N11     Cn5 
	BYTE	W12
	BYTE		        Dn5 
	BYTE	W12
	BYTE	PEND
// 009   ----------------------------------------
WintersApproach_1_009:
	BYTE		N42     Fn3   v127
	BYTE		N42     An3 
	BYTE		N32     Cn5 
	BYTE	W36
	BYTE		N11     An4 
	BYTE	W12
	BYTE		N42     Dn3 
	BYTE		N42     Fn3 
	BYTE		N11     Fn4 
	BYTE	W12
	BYTE		        Gn4 
	BYTE	W12
	BYTE		        An4 
	BYTE	W12
	BYTE		        Cn5 
	BYTE	W12
	BYTE	PEND
// 010   ----------------------------------------
WintersApproach_1_010:
	BYTE		N42     En3   v127
	BYTE		N42     Gn3 
	BYTE		N32     Bn4 
	BYTE	W36
	BYTE		N11     An4 
	BYTE	W12
	BYTE		N42     Fs3 
	BYTE		N42     An3 
	BYTE		N20     Gn4 
	BYTE	W24
	BYTE		        Fs4 
	BYTE	W24
	BYTE	PEND
// 011   ----------------------------------------
WintersApproach_1_011:
	BYTE		N42     En3   v127
	BYTE		N42     Bn3 
	BYTE		N11     En4 
	BYTE	W12
	BYTE		        Dn4 
	BYTE	W12
	BYTE		        En4 
	BYTE	W12
	BYTE		        Gn4 
	BYTE	W12
	BYTE		N42     Fn3 
	BYTE		N42     Bn3 
	BYTE		N11     Fn4 
	BYTE	W12
	BYTE		        Gn4 
	BYTE	W12
	BYTE		        An4 
	BYTE	W12
	BYTE		        Bn4 
	BYTE	W12
	BYTE	PEND
// 012   ----------------------------------------
WintersApproach_1_012:
	BYTE		N42     An3   v127
	BYTE		N42     Cn4 
	BYTE		N11     Cn5 
	BYTE	W12
	BYTE		        Bn4 
	BYTE	W12
	BYTE		        An4 
	BYTE	W12
	BYTE		        Gn4 
	BYTE	W12
	BYTE		N42     Gn3 
	BYTE		N42     Bn3 
	BYTE		N20     Bn4 
	BYTE	W24
	BYTE		N11     Cn5 
	BYTE	W12
	BYTE		        Dn5 
	BYTE	W12
	BYTE	PEND
// 013   ----------------------------------------
WintersApproach_1_013:
	BYTE		N42     Fn3   v127
	BYTE		N42     An3 
	BYTE		N20     Cn5 
	BYTE	W24
	BYTE		        An4 
	BYTE	W24
	BYTE		N42     Dn3 
	BYTE		N42     Fn3 
	BYTE		N11     Fn4 
	BYTE	W12
	BYTE		        Gn4 
	BYTE	W12
	BYTE		        An4 
	BYTE	W12
	BYTE		        Fn4 
	BYTE	W12
	BYTE	PEND
// 014   ----------------------------------------
WintersApproach_1_014:
	BYTE		N42     En3   v127
	BYTE		N42     Gn3 
	BYTE		N20     En4 
	BYTE	W24
	BYTE		        Gn4 
	BYTE	W24
	BYTE		N42     Fs3 
	BYTE		N42     An3 
	BYTE		N11     Fs4 
	BYTE	W12
	BYTE		        Gn4 
	BYTE	W12
	BYTE		        An4 
	BYTE	W12
	BYTE		        Cn5 
	BYTE	W12
	BYTE	PEND
// 015   ----------------------------------------
WintersApproach_1_015:
	BYTE		N42     En3   v127
	BYTE		N42     Bn3 
	BYTE		N20     Bn4 
	BYTE	W24
	BYTE		        Cn5 
	BYTE	W24
	BYTE		N42     Fn3 
	BYTE		N42     Bn3 
	BYTE		N42     Dn5 
	BYTE	W48
	BYTE	PEND
// 016   ----------------------------------------
	BYTE	PATT
	 POIN2	WintersApproach_1_008
// 017   ----------------------------------------
	BYTE	PATT
	 POIN2	WintersApproach_1_009
// 018   ----------------------------------------
	BYTE	PATT
	 POIN2	WintersApproach_1_010
// 019   ----------------------------------------
	BYTE	PATT
	 POIN2	WintersApproach_1_011
// 020   ----------------------------------------
	BYTE	PATT
	 POIN2	WintersApproach_1_012
// 021   ----------------------------------------
	BYTE	PATT
	 POIN2	WintersApproach_1_013
// 022   ----------------------------------------
	BYTE	PATT
	 POIN2	WintersApproach_1_014
// 023   ----------------------------------------
	BYTE	PATT
	 POIN2	WintersApproach_1_015
// 024   ----------------------------------------
	BYTE		N20     En3   v127
	BYTE		N20     Gn3 
	BYTE		N20     Cn4 
	BYTE	W24
	BYTE		        En3 
	BYTE		N20     Gn3 
	BYTE		N20     Cn4 
	BYTE	W24
	BYTE		        En3 
	BYTE		N20     Gn3 
	BYTE		N20     Cn4 
	BYTE	W24
	BYTE		        En3 
	BYTE		N20     Gn3 
	BYTE		N20     Cn4 
	BYTE	W24
// 025   ----------------------------------------
	BYTE		        Dn3 
	BYTE		N20     Fs3 
	BYTE		N20     An3 
	BYTE		N20     Cn4 
	BYTE	W24
	BYTE		        Dn3 
	BYTE		N20     Fs3 
	BYTE		N20     An3 
	BYTE		N20     Cn4 
	BYTE	W24
	BYTE		        Dn3 
	BYTE		N20     Fs3 
	BYTE		N20     An3 
	BYTE		N20     Cn4 
	BYTE	W24
	BYTE		        Dn3 
	BYTE		N20     Fs3 
	BYTE		N20     An3 
	BYTE		N20     Cn4 
	BYTE	W24
// 026   ----------------------------------------
	BYTE		        Cn3 
	BYTE		N20     Fn3 
	BYTE		N20     An3 
	BYTE		N20     Cn4 
	BYTE	W24
	BYTE		        Cn3 
	BYTE		N20     Fn3 
	BYTE		N20     An3 
	BYTE		N20     Cn4 
	BYTE	W24
	BYTE		        Cn3 
	BYTE		N20     Fn3 
	BYTE		N20     An3 
	BYTE		N20     Cn4 
	BYTE	W24
	BYTE		        Cn3 
	BYTE		N20     Fn3 
	BYTE		N20     An3 
	BYTE		N20     Cn4 
	BYTE	W24
// 027   ----------------------------------------
	BYTE		        Dn3 
	BYTE		N20     Fn3 
	BYTE		N20     An3 
	BYTE		N20     Dn4 
	BYTE	W24
	BYTE		        Dn3 
	BYTE		N20     Fn3 
	BYTE		N20     An3 
	BYTE		N20     Dn4 
	BYTE	W24
	BYTE		        Dn3 
	BYTE		N20     Fn3 
	BYTE		N20     An3 
	BYTE		N20     Dn4 
	BYTE	W24
	BYTE		        Dn3 
	BYTE		N20     Fn3 
	BYTE		N20     An3 
	BYTE		N20     Dn4 
	BYTE	W24
// 028   ----------------------------------------
	BYTE		        Dn3 
	BYTE		N20     Gn3 
	BYTE		N20     As3 
	BYTE		N20     Dn4 
	BYTE	W24
	BYTE		        Dn3 
	BYTE		N20     Gn3 
	BYTE		N20     As3 
	BYTE		N20     Dn4 
	BYTE	W24
	BYTE		        Dn3 
	BYTE		N20     Gn3 
	BYTE		N20     As3 
	BYTE		N20     Dn4 
	BYTE	W24
	BYTE		        Dn3 
	BYTE		N20     Gn3 
	BYTE		N20     As3 
	BYTE		N20     Dn4 
	BYTE	W24
// 029   ----------------------------------------
	BYTE		        Ds3 
	BYTE		N20     Gn3 
	BYTE		N20     Cn4 
	BYTE		N20     Ds4 
	BYTE	W24
	BYTE		        Ds3 
	BYTE		N20     Gn3 
	BYTE		N20     Cn4 
	BYTE		N20     Ds4 
	BYTE	W24
	BYTE		        Ds3 
	BYTE		N20     Gn3 
	BYTE		N20     Cn4 
	BYTE		N20     Ds4 
	BYTE	W24
	BYTE		        Ds3 
	BYTE		N20     Gn3 
	BYTE		N20     Cn4 
	BYTE		N20     Ds4 
	BYTE	W24
// 030   ----------------------------------------
	BYTE		        Fn3 
	BYTE		N20     Gs3 
	BYTE		N20     Cn4 
	BYTE		N20     Fn4 
	BYTE	W24
	BYTE		        Fn3 
	BYTE		N20     Gs3 
	BYTE		N20     Cn4 
	BYTE		N20     Fn4 
	BYTE	W24
	BYTE		        Fn3 
	BYTE		N20     Gs3 
	BYTE		N20     Cn4 
	BYTE		N20     Fn4 
	BYTE	W24
	BYTE		        Fn3 
	BYTE		N20     Gs3 
	BYTE		N20     Cn4 
	BYTE		N20     Fn4 
	BYTE	W24
// 031   ----------------------------------------
	BYTE		N90     Dn3 
	BYTE		N90     Gn3 
	BYTE		N90     Bn3 
	BYTE		N11     Gn4 
	BYTE	W12
	BYTE		        Dn4 
	BYTE	W12
	BYTE		        Gn4 
	BYTE	W12
	BYTE		        An4 
	BYTE	W12
	BYTE		N42     Gn4 
	BYTE	W48
// 032   ----------------------------------------
	BYTE	W96
// 033   ----------------------------------------
	BYTE	W96
// 034   ----------------------------------------
	BYTE	W96
// 035   ----------------------------------------
	BYTE	W96
// 036   ----------------------------------------
	BYTE	W96
// 037   ----------------------------------------
	BYTE	W96
// 038   ----------------------------------------
	BYTE	W96
// 039   ----------------------------------------
	BYTE	W92
	BYTE	GoTo
	 POIN2	WintersApproach_1_B1
WintersApproach_1_B2:
	BYTE	FINE

//**************** Track 2 (Midi-Chn.2) ****************//

WintersApproach_2:
	BYTE	KEYSH   WintersApproach_key+0
WintersApproach_2_B1:
// 000   ----------------------------------------
	BYTE		VOICE   48
	BYTE		MODT    0
	BYTE		LFOS    44
	BYTE		VOL     127*WintersApproach_mvl/mxv
	BYTE		PAN     c_v+32
	BYTE		N90     An2   v056
	BYTE		N90     Cn3 
	BYTE		N90     En3 
	BYTE		N48     An3 
	BYTE	W48
	BYTE		        En4 
	BYTE	W48
// 001   ----------------------------------------
WintersApproach_2_001:
	BYTE		N90     Gn2   v056
	BYTE		N90     Cn3 
	BYTE		N48     Bn3 
	BYTE	W48
	BYTE		N16     Gn3 
	BYTE	W16
	BYTE		        Fn3 
	BYTE	W16
	BYTE		        En3 
	BYTE	W16
	BYTE	PEND
// 002   ----------------------------------------
WintersApproach_2_002:
	BYTE		N90     An2   v056
	BYTE		N90     Cn3 
	BYTE		N90     Fn3 
	BYTE		N48     An3 
	BYTE	W48
	BYTE		        Cn4 
	BYTE	W48
	BYTE	PEND
// 003   ----------------------------------------
	BYTE		N90     Bn2 
	BYTE		N90     Dn3 
	BYTE		N90     Gn3 
	BYTE		N24     Bn3 
	BYTE	W24
	BYTE		        Cn4 
	BYTE	W24
	BYTE		N48     Dn4 
	BYTE	W48
// 004   ----------------------------------------
	BYTE		N90     An2 
	BYTE		N90     Cn3 
	BYTE		N90     En3 
	BYTE		N48     An3 
	BYTE	W48
	BYTE		        En4 
	BYTE	W48
// 005   ----------------------------------------
	BYTE	PATT
	 POIN2	WintersApproach_2_001
// 006   ----------------------------------------
	BYTE	PATT
	 POIN2	WintersApproach_2_002
// 007   ----------------------------------------
	BYTE		N90     Bn2   v056
	BYTE		N90     En3 
	BYTE		N90     Gs3 
	BYTE		N90     Bn3 
	BYTE	W96
// 008   ----------------------------------------
	BYTE	W96
// 009   ----------------------------------------
	BYTE	W96
// 010   ----------------------------------------
	BYTE	W96
// 011   ----------------------------------------
	BYTE	W96
// 012   ----------------------------------------
	BYTE	W96
// 013   ----------------------------------------
	BYTE	W96
// 014   ----------------------------------------
	BYTE	W96
// 015   ----------------------------------------
	BYTE	W48
	BYTE		VOL     0*WintersApproach_mvl/mxv
	BYTE		N48     Dn3 
	BYTE		N48     Gn3 
	BYTE		N48     Bn3 
	BYTE	W01
	BYTE		VOL     1*WintersApproach_mvl/mxv
	BYTE	W01
	BYTE		        1*WintersApproach_mvl/mxv
	BYTE	W01
	BYTE		        2*WintersApproach_mvl/mxv
	BYTE	W01
	BYTE		        3*WintersApproach_mvl/mxv
	BYTE	W01
	BYTE		        4*WintersApproach_mvl/mxv
	BYTE	W01
	BYTE		        5*WintersApproach_mvl/mxv
	BYTE	W01
	BYTE		        6*WintersApproach_mvl/mxv
	BYTE	W01
	BYTE		        7*WintersApproach_mvl/mxv
	BYTE	W01
	BYTE		        9*WintersApproach_mvl/mxv
	BYTE	W01
	BYTE		        11*WintersApproach_mvl/mxv
	BYTE	W01
	BYTE		        12*WintersApproach_mvl/mxv
	BYTE	W01
	BYTE		        14*WintersApproach_mvl/mxv
	BYTE	W01
	BYTE		        16*WintersApproach_mvl/mxv
	BYTE	W01
	BYTE		        18*WintersApproach_mvl/mxv
	BYTE	W01
	BYTE		        20*WintersApproach_mvl/mxv
	BYTE	W01
	BYTE		        22*WintersApproach_mvl/mxv
	BYTE	W01
	BYTE		        24*WintersApproach_mvl/mxv
	BYTE	W01
	BYTE		        27*WintersApproach_mvl/mxv
	BYTE	W01
	BYTE		        29*WintersApproach_mvl/mxv
	BYTE	W01
	BYTE		        31*WintersApproach_mvl/mxv
	BYTE	W01
	BYTE		        34*WintersApproach_mvl/mxv
	BYTE	W01
	BYTE		        36*WintersApproach_mvl/mxv
	BYTE	W01
	BYTE		        39*WintersApproach_mvl/mxv
	BYTE	W01
	BYTE		        43*WintersApproach_mvl/mxv
	BYTE	W01
	BYTE		        45*WintersApproach_mvl/mxv
	BYTE	W01
	BYTE		        48*WintersApproach_mvl/mxv
	BYTE	W01
	BYTE		        52*WintersApproach_mvl/mxv
	BYTE	W01
	BYTE		        54*WintersApproach_mvl/mxv
	BYTE	W01
	BYTE		        58*WintersApproach_mvl/mxv
	BYTE	W01
	BYTE		        61*WintersApproach_mvl/mxv
	BYTE	W01
	BYTE		        64*WintersApproach_mvl/mxv
	BYTE	W01
	BYTE		        68*WintersApproach_mvl/mxv
	BYTE	W01
	BYTE		        70*WintersApproach_mvl/mxv
	BYTE	W01
	BYTE		        74*WintersApproach_mvl/mxv
	BYTE	W01
	BYTE		        78*WintersApproach_mvl/mxv
	BYTE	W01
	BYTE		        81*WintersApproach_mvl/mxv
	BYTE	W01
	BYTE		        85*WintersApproach_mvl/mxv
	BYTE	W01
	BYTE		        90*WintersApproach_mvl/mxv
	BYTE	W01
	BYTE		        92*WintersApproach_mvl/mxv
	BYTE	W01
	BYTE		        97*WintersApproach_mvl/mxv
	BYTE	W01
	BYTE		        101*WintersApproach_mvl/mxv
	BYTE	W01
	BYTE		        105*WintersApproach_mvl/mxv
	BYTE	W01
	BYTE		        109*WintersApproach_mvl/mxv
	BYTE	W01
	BYTE		        114*WintersApproach_mvl/mxv
	BYTE	W01
	BYTE		        117*WintersApproach_mvl/mxv
	BYTE	W01
	BYTE		        122*WintersApproach_mvl/mxv
	BYTE	W01
	BYTE		        125*WintersApproach_mvl/mxv
	BYTE	W01
// 016   ----------------------------------------
	BYTE		        127*WintersApproach_mvl/mxv
	BYTE		N48     En3 
	BYTE		N48     An3 
	BYTE		N48     Cn4 
	BYTE	W48
	BYTE		        Dn3 
	BYTE		N48     Gn3 
	BYTE		N48     Bn3 
	BYTE	W48
// 017   ----------------------------------------
WintersApproach_2_017:
	BYTE		N90     Fn3   v056
	BYTE		N90     An3 
	BYTE		N48     Cn4 
	BYTE	W48
	BYTE		        Dn4 
	BYTE	W48
	BYTE	PEND
// 018   ----------------------------------------
WintersApproach_2_018:
	BYTE		N48     En3   v056
	BYTE		N48     Gn3 
	BYTE		N48     Bn3 
	BYTE		N48     En4 
	BYTE	W48
	BYTE		N42     Fs3 
	BYTE		N42     An3 
	BYTE		N24     Dn4 
	BYTE	W24
	BYTE		        Cn4 
	BYTE	W24
	BYTE	PEND
// 019   ----------------------------------------
	BYTE		N48     En3 
	BYTE		N48     Gn3 
	BYTE		N90     Bn3 
	BYTE	W48
	BYTE		N48     Dn3 
	BYTE		N48     Fn3 
	BYTE	W48
// 020   ----------------------------------------
	BYTE		        En3 
	BYTE		N48     An3 
	BYTE		N48     Cn4 
	BYTE	W48
	BYTE		        Dn3 
	BYTE		N48     Gn3 
	BYTE		N48     Bn3 
	BYTE	W48
// 021   ----------------------------------------
	BYTE	PATT
	 POIN2	WintersApproach_2_017
// 022   ----------------------------------------
	BYTE	PATT
	 POIN2	WintersApproach_2_018
// 023   ----------------------------------------
	BYTE		N48     En3   v056
	BYTE		N48     Gn3 
	BYTE		N90     Bn3 
	BYTE	W48
	BYTE		N42     Dn3 
	BYTE		N42     Fn3 
	BYTE	W48
// 024   ----------------------------------------
	BYTE		N11     En3 
	BYTE		N11     Gn3 
	BYTE		N11     Cn4 
	BYTE	W12
	BYTE		        En3 
	BYTE		N11     Gn3 
	BYTE		N11     Cn4 
	BYTE	W24
	BYTE		        En3 
	BYTE		N11     Gn3 
	BYTE		N11     Cn4 
	BYTE	W12
	BYTE		        En3 
	BYTE		N11     Gn3 
	BYTE		N11     Cn4 
	BYTE	W12
	BYTE		        En3 
	BYTE		N11     Gn3 
	BYTE		N11     Cn4 
	BYTE	W24
	BYTE		        En3 
	BYTE		N11     Gn3 
	BYTE		N11     Cn4 
	BYTE	W12
// 025   ----------------------------------------
	BYTE		        Dn3 
	BYTE		N11     Fs3 
	BYTE		N11     An3 
	BYTE		N11     Cn4 
	BYTE	W12
	BYTE		        Dn3 
	BYTE		N11     Fs3 
	BYTE		N11     An3 
	BYTE		N11     Cn4 
	BYTE	W24
	BYTE		        Dn3 
	BYTE		N11     Fs3 
	BYTE		N11     An3 
	BYTE		N11     Cn4 
	BYTE	W12
	BYTE		        Dn3 
	BYTE		N11     Fs3 
	BYTE		N11     An3 
	BYTE		N11     Cn4 
	BYTE	W12
	BYTE		        Dn3 
	BYTE		N11     Fs3 
	BYTE		N11     An3 
	BYTE		N11     Cn4 
	BYTE	W24
	BYTE		        Dn3 
	BYTE		N11     Fs3 
	BYTE		N11     An3 
	BYTE		N11     Cn4 
	BYTE	W12
// 026   ----------------------------------------
	BYTE		        Cn3 
	BYTE		N11     Fn3 
	BYTE		N11     An3 
	BYTE		N11     Cn4 
	BYTE	W12
	BYTE		        Cn3 
	BYTE		N11     Fn3 
	BYTE		N11     An3 
	BYTE		N11     Cn4 
	BYTE	W24
	BYTE		        Cn3 
	BYTE		N11     Fn3 
	BYTE		N11     An3 
	BYTE		N11     Cn4 
	BYTE	W12
	BYTE		        Cn3 
	BYTE		N11     Fn3 
	BYTE		N11     An3 
	BYTE		N11     Cn4 
	BYTE	W12
	BYTE		        Cn3 
	BYTE		N11     Fn3 
	BYTE		N11     An3 
	BYTE		N11     Cn4 
	BYTE	W24
	BYTE		        Cn3 
	BYTE		N11     Fn3 
	BYTE		N11     An3 
	BYTE		N11     Cn4 
	BYTE	W12
// 027   ----------------------------------------
	BYTE		        Dn3 
	BYTE		N11     Fn3 
	BYTE		N11     An3 
	BYTE		N11     Dn4 
	BYTE	W12
	BYTE		        Dn3 
	BYTE		N11     Fn3 
	BYTE		N11     An3 
	BYTE		N11     Dn4 
	BYTE	W24
	BYTE		        Dn3 
	BYTE		N11     Fn3 
	BYTE		N11     An3 
	BYTE		N11     Dn4 
	BYTE	W12
	BYTE		        Dn3 
	BYTE		N11     Fn3 
	BYTE		N11     An3 
	BYTE		N11     Dn4 
	BYTE	W12
	BYTE		        Dn3 
	BYTE		N11     Fn3 
	BYTE		N11     An3 
	BYTE		N11     Dn4 
	BYTE	W24
	BYTE		        Dn3 
	BYTE		N11     Fn3 
	BYTE		N11     An3 
	BYTE		N11     Dn4 
	BYTE	W12
// 028   ----------------------------------------
	BYTE		        Dn3 
	BYTE		N11     Gn3 
	BYTE		N11     As3 
	BYTE		N11     Dn4 
	BYTE	W12
	BYTE		        Dn3 
	BYTE		N11     Gn3 
	BYTE		N11     As3 
	BYTE		N11     Dn4 
	BYTE	W24
	BYTE		        Dn3 
	BYTE		N11     Gn3 
	BYTE		N11     As3 
	BYTE		N11     Dn4 
	BYTE	W12
	BYTE		        Dn3 
	BYTE		N11     Gn3 
	BYTE		N11     As3 
	BYTE		N11     Dn4 
	BYTE	W12
	BYTE		        Dn3 
	BYTE		N11     Gn3 
	BYTE		N11     As3 
	BYTE		N11     Dn4 
	BYTE	W24
	BYTE		        Dn3 
	BYTE		N11     Gn3 
	BYTE		N11     As3 
	BYTE		N11     Dn4 
	BYTE	W12
// 029   ----------------------------------------
	BYTE		        Ds3 
	BYTE		N11     Gn3 
	BYTE		N11     Cn4 
	BYTE		N11     Ds4 
	BYTE	W12
	BYTE		        Ds3 
	BYTE		N11     Gn3 
	BYTE		N11     Cn4 
	BYTE		N11     Ds4 
	BYTE	W24
	BYTE		        Ds3 
	BYTE		N11     Gn3 
	BYTE		N11     Cn4 
	BYTE		N11     Ds4 
	BYTE	W12
	BYTE		        Ds3 
	BYTE		N11     Gn3 
	BYTE		N11     Cn4 
	BYTE		N11     Ds4 
	BYTE	W12
	BYTE		        Ds3 
	BYTE		N11     Gn3 
	BYTE		N11     Cn4 
	BYTE		N11     Ds4 
	BYTE	W24
	BYTE		        Ds3 
	BYTE		N11     Gn3 
	BYTE		N11     Cn4 
	BYTE		N11     Ds4 
	BYTE	W12
// 030   ----------------------------------------
	BYTE		        Fn3 
	BYTE		N11     Gs3 
	BYTE		N11     Cn4 
	BYTE		N11     Fn4 
	BYTE	W12
	BYTE		        Fn3 
	BYTE		N11     Gs3 
	BYTE		N11     Cn4 
	BYTE		N11     Fn4 
	BYTE	W24
	BYTE		        Fn3 
	BYTE		N11     Gs3 
	BYTE		N11     Cn4 
	BYTE		N11     Fn4 
	BYTE	W12
	BYTE		        Fn3 
	BYTE		N11     Gs3 
	BYTE		N11     Cn4 
	BYTE		N11     Fn4 
	BYTE	W12
	BYTE		        Fn3 
	BYTE		N11     Gs3 
	BYTE		N11     Cn4 
	BYTE		N11     Fn4 
	BYTE	W24
	BYTE		        Fn3 
	BYTE		N11     Gs3 
	BYTE		N11     Cn4 
	BYTE		N11     Fn4 
	BYTE	W12
// 031   ----------------------------------------
	BYTE		N90     Gn3 
	BYTE		N90     Bn3 
	BYTE		N90     Dn4 
	BYTE		N90     Gn4 
	BYTE	W48
	BYTE		N42     Fn3 
	BYTE	W48
// 032   ----------------------------------------
	BYTE		N96     En3 
	BYTE		N96     An3 
	BYTE		N96     Cn4 
	BYTE	W96
// 033   ----------------------------------------
	BYTE		        Dn3 
	BYTE		N96     Gn3 
	BYTE		N96     Bn3 
	BYTE	W96
// 034   ----------------------------------------
	BYTE		TIE     Fn3 
	BYTE		TIE     An3 
	BYTE		N96     Cn4 
	BYTE	W96
// 035   ----------------------------------------
	BYTE		        Dn4 
	BYTE	W96
	BYTE		EOT     Fn3 
	BYTE		        An3 
// 036   ----------------------------------------
	BYTE		N96     En3 
	BYTE		N96     Gn3 
	BYTE		N96     Bn3 
	BYTE		N96     En4 
	BYTE	W96
// 037   ----------------------------------------
	BYTE		N90     Fs3 
	BYTE		N90     An3 
	BYTE		N48     Dn4 
	BYTE	W48
	BYTE		        Cn4 
	BYTE	W48
// 038   ----------------------------------------
	BYTE		N96     En3 
	BYTE		N96     Gn3 
	BYTE		TIE     Bn3 
	BYTE	W96
// 039   ----------------------------------------
	BYTE		N90     Dn3 
	BYTE		N90     Fn3 
	BYTE	W90
	BYTE		EOT     Bn3 
	BYTE	W02
	BYTE	GoTo
	 POIN2	WintersApproach_2_B1
WintersApproach_2_B2:
	BYTE	FINE

//**************** Track 3 (Midi-Chn.3) ****************//

WintersApproach_3:
	BYTE	KEYSH   WintersApproach_key+0
WintersApproach_3_B1:
// 000   ----------------------------------------
	BYTE		VOICE   49
	BYTE		MODT    0
	BYTE		LFOS    44
	BYTE		VOL     127*WintersApproach_mvl/mxv
	BYTE		PAN     c_v-32
	BYTE	W96
// 001   ----------------------------------------
	BYTE	W96
// 002   ----------------------------------------
	BYTE	W96
// 003   ----------------------------------------
	BYTE	W96
// 004   ----------------------------------------
	BYTE		N96     An1   v076
	BYTE	W96
// 005   ----------------------------------------
	BYTE		        Gn1 
	BYTE	W96
// 006   ----------------------------------------
	BYTE		        Fn1 
	BYTE	W96
// 007   ----------------------------------------
	BYTE		N90     En1 
	BYTE	W96
// 008   ----------------------------------------
	BYTE	W96
// 009   ----------------------------------------
	BYTE	W96
// 010   ----------------------------------------
	BYTE	W96
// 011   ----------------------------------------
	BYTE	W96
// 012   ----------------------------------------
	BYTE	W96
// 013   ----------------------------------------
	BYTE	W96
// 014   ----------------------------------------
	BYTE	W96
// 015   ----------------------------------------
	BYTE	W48
	BYTE		VOL     0*WintersApproach_mvl/mxv
	BYTE		N48     Gn1 
	BYTE	W01
	BYTE		VOL     1*WintersApproach_mvl/mxv
	BYTE	W01
	BYTE		        1*WintersApproach_mvl/mxv
	BYTE	W01
	BYTE		        2*WintersApproach_mvl/mxv
	BYTE	W01
	BYTE		        3*WintersApproach_mvl/mxv
	BYTE	W01
	BYTE		        4*WintersApproach_mvl/mxv
	BYTE	W01
	BYTE		        5*WintersApproach_mvl/mxv
	BYTE	W01
	BYTE		        6*WintersApproach_mvl/mxv
	BYTE	W01
	BYTE		        7*WintersApproach_mvl/mxv
	BYTE	W01
	BYTE		        9*WintersApproach_mvl/mxv
	BYTE	W01
	BYTE		        11*WintersApproach_mvl/mxv
	BYTE	W01
	BYTE		        12*WintersApproach_mvl/mxv
	BYTE	W01
	BYTE		        14*WintersApproach_mvl/mxv
	BYTE	W01
	BYTE		        16*WintersApproach_mvl/mxv
	BYTE	W01
	BYTE		        18*WintersApproach_mvl/mxv
	BYTE	W01
	BYTE		        20*WintersApproach_mvl/mxv
	BYTE	W01
	BYTE		        22*WintersApproach_mvl/mxv
	BYTE	W01
	BYTE		        24*WintersApproach_mvl/mxv
	BYTE	W01
	BYTE		        27*WintersApproach_mvl/mxv
	BYTE	W01
	BYTE		        29*WintersApproach_mvl/mxv
	BYTE	W01
	BYTE		        31*WintersApproach_mvl/mxv
	BYTE	W01
	BYTE		        34*WintersApproach_mvl/mxv
	BYTE	W01
	BYTE		        36*WintersApproach_mvl/mxv
	BYTE	W01
	BYTE		        39*WintersApproach_mvl/mxv
	BYTE	W01
	BYTE		        43*WintersApproach_mvl/mxv
	BYTE	W01
	BYTE		        45*WintersApproach_mvl/mxv
	BYTE	W01
	BYTE		        48*WintersApproach_mvl/mxv
	BYTE	W01
	BYTE		        52*WintersApproach_mvl/mxv
	BYTE	W01
	BYTE		        54*WintersApproach_mvl/mxv
	BYTE	W01
	BYTE		        58*WintersApproach_mvl/mxv
	BYTE	W01
	BYTE		        61*WintersApproach_mvl/mxv
	BYTE	W01
	BYTE		        64*WintersApproach_mvl/mxv
	BYTE	W01
	BYTE		        68*WintersApproach_mvl/mxv
	BYTE	W01
	BYTE		        70*WintersApproach_mvl/mxv
	BYTE	W01
	BYTE		        74*WintersApproach_mvl/mxv
	BYTE	W01
	BYTE		        78*WintersApproach_mvl/mxv
	BYTE	W01
	BYTE		        81*WintersApproach_mvl/mxv
	BYTE	W01
	BYTE		        85*WintersApproach_mvl/mxv
	BYTE	W01
	BYTE		        90*WintersApproach_mvl/mxv
	BYTE	W01
	BYTE		        92*WintersApproach_mvl/mxv
	BYTE	W01
	BYTE		        97*WintersApproach_mvl/mxv
	BYTE	W01
	BYTE		        101*WintersApproach_mvl/mxv
	BYTE	W01
	BYTE		        105*WintersApproach_mvl/mxv
	BYTE	W01
	BYTE		        109*WintersApproach_mvl/mxv
	BYTE	W01
	BYTE		        114*WintersApproach_mvl/mxv
	BYTE	W01
	BYTE		        117*WintersApproach_mvl/mxv
	BYTE	W01
	BYTE		        122*WintersApproach_mvl/mxv
	BYTE	W01
	BYTE		        125*WintersApproach_mvl/mxv
	BYTE	W01
// 016   ----------------------------------------
	BYTE		        127*WintersApproach_mvl/mxv
	BYTE		N48     An1 
	BYTE	W48
	BYTE		        Gn1 
	BYTE	W48
// 017   ----------------------------------------
	BYTE		N96     Fn1 
	BYTE	W96
// 018   ----------------------------------------
WintersApproach_3_018:
	BYTE		N48     En1   v076
	BYTE	W48
	BYTE		        Fs1 
	BYTE	W48
	BYTE	PEND
// 019   ----------------------------------------
	BYTE		N96     Gn1 
	BYTE	W96
// 020   ----------------------------------------
	BYTE		N48     An1 
	BYTE	W48
	BYTE		        Gn1 
	BYTE	W48
// 021   ----------------------------------------
	BYTE		N96     Fn1 
	BYTE	W96
// 022   ----------------------------------------
	BYTE	PATT
	 POIN2	WintersApproach_3_018
// 023   ----------------------------------------
	BYTE		N48     Gn1   v076
	BYTE	W48
	BYTE		N42     Fn1 
	BYTE	W48
// 024   ----------------------------------------
	BYTE		TIE     Cn1 
	BYTE	W96
// 025   ----------------------------------------
	BYTE	W96
// 026   ----------------------------------------
	BYTE	W90
	BYTE		EOT   
	BYTE	W06
// 027   ----------------------------------------
	BYTE		TIE     Dn1 
	BYTE	W96
// 028   ----------------------------------------
	BYTE	W90
	BYTE		EOT   
	BYTE	W06
// 029   ----------------------------------------
	BYTE		N90     Ds1 
	BYTE	W96
// 030   ----------------------------------------
	BYTE		        Fn1 
	BYTE	W96
// 031   ----------------------------------------
	BYTE		        Gn1 
	BYTE	W96
// 032   ----------------------------------------
	BYTE		N96     An1 
	BYTE	W96
// 033   ----------------------------------------
	BYTE		        Gn1 
	BYTE	W96
// 034   ----------------------------------------
	BYTE		TIE     Fn1 
	BYTE	W96
// 035   ----------------------------------------
	BYTE	W96
	BYTE		EOT   
// 036   ----------------------------------------
	BYTE		N96     En1 
	BYTE	W96
// 037   ----------------------------------------
	BYTE		        Fs1 
	BYTE	W96
// 038   ----------------------------------------
	BYTE		TIE     Gn1 
	BYTE	W96
// 039   ----------------------------------------
	BYTE	W90
	BYTE		EOT   
	BYTE	W02
	BYTE	GoTo
	 POIN2	WintersApproach_3_B1
WintersApproach_3_B2:
	BYTE	FINE

//**************** Track 4 (Midi-Chn.4) ****************//

WintersApproach_4:
	BYTE	KEYSH   WintersApproach_key+0
WintersApproach_4_B1:
// 000   ----------------------------------------
	BYTE		VOICE   60
	BYTE		MODT    0
	BYTE		LFOS    44
	BYTE		VOL     127*WintersApproach_mvl/mxv
	BYTE		PAN     c_v+0
	BYTE	W96
// 001   ----------------------------------------
	BYTE	W96
// 002   ----------------------------------------
	BYTE	W96
// 003   ----------------------------------------
	BYTE	W96
// 004   ----------------------------------------
	BYTE	W96
// 005   ----------------------------------------
	BYTE	W96
// 006   ----------------------------------------
	BYTE	W96
// 007   ----------------------------------------
	BYTE	W96
// 008   ----------------------------------------
	BYTE	W96
// 009   ----------------------------------------
	BYTE	W96
// 010   ----------------------------------------
	BYTE	W96
// 011   ----------------------------------------
	BYTE	W96
// 012   ----------------------------------------
	BYTE	W96
// 013   ----------------------------------------
	BYTE	W96
// 014   ----------------------------------------
	BYTE	W96
// 015   ----------------------------------------
	BYTE	W96
// 016   ----------------------------------------
	BYTE	W96
// 017   ----------------------------------------
	BYTE	W96
// 018   ----------------------------------------
	BYTE	W96
// 019   ----------------------------------------
	BYTE	W96
// 020   ----------------------------------------
	BYTE	W96
// 021   ----------------------------------------
	BYTE	W96
// 022   ----------------------------------------
	BYTE	W96
// 023   ----------------------------------------
	BYTE	W96
// 024   ----------------------------------------
	BYTE		N36     Cn3   v127
	BYTE	W36
	BYTE		N12     Dn3 
	BYTE	W12
	BYTE		N24     En3 
	BYTE	W24
	BYTE		        Gn3 
	BYTE	W24
// 025   ----------------------------------------
	BYTE		N12     Fs3 
	BYTE	W12
	BYTE		        Dn3 
	BYTE	W12
	BYTE		        Fs3 
	BYTE	W12
	BYTE		        Gn3 
	BYTE	W12
	BYTE		N24     Fs3 
	BYTE	W24
	BYTE		N12     Dn3 
	BYTE	W12
	BYTE		        En3 
	BYTE	W12
// 026   ----------------------------------------
	BYTE		N36     Fn3 
	BYTE	W36
	BYTE		N12     Cn3 
	BYTE	W12
	BYTE		        Fn3 
	BYTE	W12
	BYTE		        Gn3 
	BYTE	W12
	BYTE		        An3 
	BYTE	W12
	BYTE		        Cn4 
	BYTE	W12
// 027   ----------------------------------------
	BYTE		        Dn4 
	BYTE	W12
	BYTE		        An3 
	BYTE	W12
	BYTE		        Dn4 
	BYTE	W12
	BYTE		        En4 
	BYTE	W12
	BYTE		N42     Dn4 
	BYTE	W48
// 028   ----------------------------------------
	BYTE		N36     Gn3 
	BYTE	W36
	BYTE		N12     An3 
	BYTE	W12
	BYTE		        As3 
	BYTE	W12
	BYTE		        An3 
	BYTE	W12
	BYTE		        Gn3 
	BYTE	W12
	BYTE		        Dn3 
	BYTE	W12
// 029   ----------------------------------------
	BYTE		        Gn3 
	BYTE	W12
	BYTE		        Fn3 
	BYTE	W12
	BYTE		        Ds3 
	BYTE	W12
	BYTE		        Fn3 
	BYTE	W12
	BYTE		N24     Gn3 
	BYTE	W24
	BYTE		        As3 
	BYTE	W24
// 030   ----------------------------------------
	BYTE		N12     Gs3 
	BYTE	W12
	BYTE		        Gn3 
	BYTE	W12
	BYTE		        Gs3 
	BYTE	W12
	BYTE		        As3 
	BYTE	W12
	BYTE		N24     Cn4 
	BYTE	W24
	BYTE		        Ds4 
	BYTE	W24
// 031   ----------------------------------------
	BYTE		N12     Dn4 
	BYTE	W12
	BYTE		        Cn4 
	BYTE	W12
	BYTE		        Bn3 
	BYTE	W12
	BYTE		        An3 
	BYTE	W12
	BYTE		N44     Gn3 
	BYTE	W24
	BYTE		N20     Fn3 
	BYTE	W24
// 032   ----------------------------------------
	BYTE	W96
// 033   ----------------------------------------
	BYTE	W96
// 034   ----------------------------------------
	BYTE	W96
// 035   ----------------------------------------
	BYTE	W96
// 036   ----------------------------------------
	BYTE	W96
// 037   ----------------------------------------
	BYTE	W96
// 038   ----------------------------------------
	BYTE	W96
// 039   ----------------------------------------
	BYTE	W92
	BYTE	GoTo
	 POIN2	WintersApproach_4_B1
WintersApproach_4_B2:
	BYTE	FINE

//**************** Track 5 (Midi-Chn.5) ****************//

WintersApproach_5:
	BYTE	KEYSH   WintersApproach_key+0
WintersApproach_5_B1:
// 000   ----------------------------------------
	BYTE		VOICE   34
	BYTE		MODT    0
	BYTE		LFOS    44
	BYTE		VOL     127*WintersApproach_mvl/mxv
	BYTE		PAN     c_v+0
	BYTE	W96
// 001   ----------------------------------------
	BYTE	W96
// 002   ----------------------------------------
	BYTE	W96
// 003   ----------------------------------------
	BYTE	W96
// 004   ----------------------------------------
	BYTE	W96
// 005   ----------------------------------------
	BYTE	W96
// 006   ----------------------------------------
	BYTE	W96
// 007   ----------------------------------------
	BYTE	W96
// 008   ----------------------------------------
WintersApproach_5_008:
	BYTE		N32     An1   v127
	BYTE	W36
	BYTE		N11     En1 
	BYTE	W12
	BYTE		N32     Gn1 
	BYTE	W36
	BYTE		N11     En1 
	BYTE	W12
	BYTE	PEND
// 009   ----------------------------------------
WintersApproach_5_009:
	BYTE		N32     Fn1   v127
	BYTE	W36
	BYTE		N11     En1 
	BYTE	W12
	BYTE		N20     Dn1 
	BYTE	W24
	BYTE		N11     En1 
	BYTE	W12
	BYTE		        Fn1 
	BYTE	W12
	BYTE	PEND
// 010   ----------------------------------------
WintersApproach_5_010:
	BYTE		N32     En1   v127
	BYTE	W36
	BYTE		N11     Gn1 
	BYTE	W12
	BYTE		N32     Fs1 
	BYTE	W36
	BYTE		N11     Dn1 
	BYTE	W12
	BYTE	PEND
// 011   ----------------------------------------
WintersApproach_5_011:
	BYTE		N20     En1   v127
	BYTE	W24
	BYTE		N11     Fs1 
	BYTE	W12
	BYTE		        Gn1 
	BYTE	W12
	BYTE		        Fn1 
	BYTE	W12
	BYTE		N20     Gn1 
	BYTE	W24
	BYTE		N11     Bn1 
	BYTE	W12
	BYTE	PEND
// 012   ----------------------------------------
	BYTE	PATT
	 POIN2	WintersApproach_5_008
// 013   ----------------------------------------
	BYTE	PATT
	 POIN2	WintersApproach_5_009
// 014   ----------------------------------------
	BYTE	PATT
	 POIN2	WintersApproach_5_010
// 015   ----------------------------------------
WintersApproach_5_015:
	BYTE		N20     En1   v127
	BYTE	W24
	BYTE		N11     Fs1 
	BYTE	W12
	BYTE		        Gn1 
	BYTE	W12
	BYTE		        Fn1 
	BYTE	W12
	BYTE		        An1 
	BYTE	W12
	BYTE		        Gn1 
	BYTE	W12
	BYTE		        Bn1 
	BYTE	W12
	BYTE	PEND
// 016   ----------------------------------------
	BYTE	PATT
	 POIN2	WintersApproach_5_008
// 017   ----------------------------------------
	BYTE	PATT
	 POIN2	WintersApproach_5_009
// 018   ----------------------------------------
	BYTE	PATT
	 POIN2	WintersApproach_5_010
// 019   ----------------------------------------
	BYTE	PATT
	 POIN2	WintersApproach_5_011
// 020   ----------------------------------------
	BYTE	PATT
	 POIN2	WintersApproach_5_008
// 021   ----------------------------------------
	BYTE	PATT
	 POIN2	WintersApproach_5_009
// 022   ----------------------------------------
	BYTE	PATT
	 POIN2	WintersApproach_5_010
// 023   ----------------------------------------
	BYTE	PATT
	 POIN2	WintersApproach_5_015
// 024   ----------------------------------------
WintersApproach_5_024:
	BYTE		N11     Cn1   v127
	BYTE	W12
	BYTE		N11   
	BYTE	W24
	BYTE		        Cn2 
	BYTE	W12
	BYTE		        Cn1 
	BYTE	W12
	BYTE		N11   
	BYTE	W24
	BYTE		        Cn2 
	BYTE	W12
	BYTE	PEND
// 025   ----------------------------------------
	BYTE	PATT
	 POIN2	WintersApproach_5_024
// 026   ----------------------------------------
	BYTE	PATT
	 POIN2	WintersApproach_5_024
// 027   ----------------------------------------
WintersApproach_5_027:
	BYTE		N11     Dn1   v127
	BYTE	W12
	BYTE		N11   
	BYTE	W24
	BYTE		        Dn2 
	BYTE	W12
	BYTE		        Dn1 
	BYTE	W12
	BYTE		N11   
	BYTE	W24
	BYTE		        Dn2 
	BYTE	W12
	BYTE	PEND
// 028   ----------------------------------------
	BYTE	PATT
	 POIN2	WintersApproach_5_027
// 029   ----------------------------------------
	BYTE		N11     Ds1   v127
	BYTE	W12
	BYTE		N11   
	BYTE	W24
	BYTE		        Ds2 
	BYTE	W12
	BYTE		        Ds1 
	BYTE	W12
	BYTE		N11   
	BYTE	W24
	BYTE		        Ds2 
	BYTE	W12
// 030   ----------------------------------------
	BYTE		        Fn1 
	BYTE	W12
	BYTE		N11   
	BYTE	W24
	BYTE		        Fn2 
	BYTE	W12
	BYTE		        Fn1 
	BYTE	W12
	BYTE		N11   
	BYTE	W24
	BYTE		        Fn2 
	BYTE	W12
// 031   ----------------------------------------
	BYTE		        Gn1 
	BYTE	W12
	BYTE		        Dn1 
	BYTE	W12
	BYTE		        Gn1 
	BYTE	W12
	BYTE		        An1 
	BYTE	W12
	BYTE		        Gn1 
	BYTE	W12
	BYTE		        Fn1 
	BYTE	W12
	BYTE		        En1 
	BYTE	W12
	BYTE		        Dn1 
	BYTE	W12
// 032   ----------------------------------------
	BYTE	W96
// 033   ----------------------------------------
	BYTE	W96
// 034   ----------------------------------------
	BYTE	W96
// 035   ----------------------------------------
	BYTE	W96
// 036   ----------------------------------------
	BYTE	W96
// 037   ----------------------------------------
	BYTE	W96
// 038   ----------------------------------------
	BYTE	W96
// 039   ----------------------------------------
	BYTE	W92
	BYTE	GoTo
	 POIN2	WintersApproach_5_B1
WintersApproach_5_B2:
	BYTE	FINE

//**************** Track 6 (Midi-Chn.6) ****************//

WintersApproach_6:
	BYTE	KEYSH   WintersApproach_key+0
WintersApproach_6_B1:
// 000   ----------------------------------------
	BYTE		VOICE   26
	BYTE		MODT    0
	BYTE		LFOS    44
	BYTE		VOL     127*WintersApproach_mvl/mxv
	BYTE		PAN     c_v-63
	BYTE	W96
// 001   ----------------------------------------
	BYTE	W96
// 002   ----------------------------------------
	BYTE	W96
// 003   ----------------------------------------
	BYTE	W96
// 004   ----------------------------------------
	BYTE	W96
// 005   ----------------------------------------
	BYTE	W96
// 006   ----------------------------------------
	BYTE	W96
// 007   ----------------------------------------
	BYTE	W96
// 008   ----------------------------------------
WintersApproach_6_008:
	BYTE		N11     An2   v056
	BYTE	W12
	BYTE		        En3 
	BYTE	W12
	BYTE		        An3 
	BYTE	W12
	BYTE		        En3 
	BYTE	W12
	BYTE		        Gn2 
	BYTE	W12
	BYTE		        Dn3 
	BYTE	W12
	BYTE		        Gn3 
	BYTE	W12
	BYTE		        Dn3 
	BYTE	W12
	BYTE	PEND
// 009   ----------------------------------------
WintersApproach_6_009:
	BYTE		N11     Fn2   v056
	BYTE	W12
	BYTE		        Cn3 
	BYTE	W12
	BYTE		        Fn3 
	BYTE	W12
	BYTE		        Cn3 
	BYTE	W12
	BYTE		        An2 
	BYTE	W12
	BYTE		        Dn3 
	BYTE	W12
	BYTE		        Fn3 
	BYTE	W12
	BYTE		        Dn3 
	BYTE	W12
	BYTE	PEND
// 010   ----------------------------------------
WintersApproach_6_010:
	BYTE		N11     Bn2   v056
	BYTE	W12
	BYTE		        En3 
	BYTE	W12
	BYTE		        Gn3 
	BYTE	W12
	BYTE		        En3 
	BYTE	W12
	BYTE		        An2 
	BYTE	W12
	BYTE		        Dn3 
	BYTE	W12
	BYTE		        Fs3 
	BYTE	W12
	BYTE		        Dn3 
	BYTE	W12
	BYTE	PEND
// 011   ----------------------------------------
WintersApproach_6_011:
	BYTE		N11     Gn2   v056
	BYTE	W12
	BYTE		        Bn2 
	BYTE	W12
	BYTE		        En3 
	BYTE	W12
	BYTE		        Bn2 
	BYTE	W12
	BYTE		        Gn2 
	BYTE	W12
	BYTE		        Bn2 
	BYTE	W12
	BYTE		        Dn3 
	BYTE	W12
	BYTE		        Bn2 
	BYTE	W12
	BYTE	PEND
// 012   ----------------------------------------
	BYTE	PATT
	 POIN2	WintersApproach_6_008
// 013   ----------------------------------------
	BYTE	PATT
	 POIN2	WintersApproach_6_009
// 014   ----------------------------------------
	BYTE	PATT
	 POIN2	WintersApproach_6_010
// 015   ----------------------------------------
	BYTE	PATT
	 POIN2	WintersApproach_6_011
// 016   ----------------------------------------
	BYTE	PATT
	 POIN2	WintersApproach_6_008
// 017   ----------------------------------------
	BYTE	PATT
	 POIN2	WintersApproach_6_009
// 018   ----------------------------------------
	BYTE	PATT
	 POIN2	WintersApproach_6_010
// 019   ----------------------------------------
	BYTE	PATT
	 POIN2	WintersApproach_6_011
// 020   ----------------------------------------
	BYTE	PATT
	 POIN2	WintersApproach_6_008
// 021   ----------------------------------------
	BYTE	PATT
	 POIN2	WintersApproach_6_009
// 022   ----------------------------------------
	BYTE	PATT
	 POIN2	WintersApproach_6_010
// 023   ----------------------------------------
	BYTE	PATT
	 POIN2	WintersApproach_6_011
// 024   ----------------------------------------
	BYTE	W96
// 025   ----------------------------------------
	BYTE	W96
// 026   ----------------------------------------
	BYTE	W96
// 027   ----------------------------------------
	BYTE	W96
// 028   ----------------------------------------
	BYTE	W96
// 029   ----------------------------------------
	BYTE	W96
// 030   ----------------------------------------
	BYTE	W96
// 031   ----------------------------------------
	BYTE	W96
// 032   ----------------------------------------
	BYTE		N11     An2   v056
	BYTE	W12
	BYTE		        En3 
	BYTE	W12
	BYTE		        An3 
	BYTE	W12
	BYTE		        En3 
	BYTE	W12
	BYTE		        An2 
	BYTE	W12
	BYTE		        En3 
	BYTE	W12
	BYTE		        An3 
	BYTE	W12
	BYTE		        En3 
	BYTE	W12
// 033   ----------------------------------------
	BYTE		        Gn2 
	BYTE	W12
	BYTE		        Dn3 
	BYTE	W12
	BYTE		        Gn3 
	BYTE	W12
	BYTE		        Dn3 
	BYTE	W12
	BYTE		        Gn2 
	BYTE	W12
	BYTE		        Dn3 
	BYTE	W12
	BYTE		        Gn3 
	BYTE	W12
	BYTE		        Dn3 
	BYTE	W12
// 034   ----------------------------------------
	BYTE		        Fn2 
	BYTE	W12
	BYTE		        Cn3 
	BYTE	W12
	BYTE		        Fn3 
	BYTE	W12
	BYTE		        Cn3 
	BYTE	W12
	BYTE		        Fn2 
	BYTE	W12
	BYTE		        Cn3 
	BYTE	W12
	BYTE		        Fn3 
	BYTE	W12
	BYTE		        Cn3 
	BYTE	W12
// 035   ----------------------------------------
	BYTE		        An2 
	BYTE	W12
	BYTE		        Dn3 
	BYTE	W12
	BYTE		        Fn3 
	BYTE	W12
	BYTE		        Dn3 
	BYTE	W12
	BYTE		        An2 
	BYTE	W12
	BYTE		        Dn3 
	BYTE	W12
	BYTE		        Fn3 
	BYTE	W12
	BYTE		        Dn3 
	BYTE	W12
// 036   ----------------------------------------
	BYTE		        Bn2 
	BYTE	W12
	BYTE		        En3 
	BYTE	W12
	BYTE		        Gn3 
	BYTE	W12
	BYTE		        En3 
	BYTE	W12
	BYTE		        Bn2 
	BYTE	W12
	BYTE		        En3 
	BYTE	W12
	BYTE		        Gn3 
	BYTE	W12
	BYTE		        En3 
	BYTE	W12
// 037   ----------------------------------------
	BYTE		        An2 
	BYTE	W12
	BYTE		        Dn3 
	BYTE	W12
	BYTE		        Fs3 
	BYTE	W12
	BYTE		        Dn3 
	BYTE	W12
	BYTE		        An2 
	BYTE	W12
	BYTE		        Dn3 
	BYTE	W12
	BYTE		        Fs3 
	BYTE	W12
	BYTE		        Dn3 
	BYTE	W12
// 038   ----------------------------------------
	BYTE		        Gn2 
	BYTE	W12
	BYTE		        Bn2 
	BYTE	W12
	BYTE		        En3 
	BYTE	W12
	BYTE		        Bn2 
	BYTE	W12
	BYTE		        Gn2 
	BYTE	W12
	BYTE		        Bn2 
	BYTE	W12
	BYTE		        En3 
	BYTE	W12
	BYTE		        Bn2 
	BYTE	W12
// 039   ----------------------------------------
	BYTE		        Gn2 
	BYTE	W12
	BYTE		        Bn2 
	BYTE	W12
	BYTE		        Dn3 
	BYTE	W12
	BYTE		        Bn2 
	BYTE	W12
	BYTE		N44     Gn2 
	BYTE	W03
	BYTE		N40     Bn2 
	BYTE	W03
	BYTE		N36     Dn3 
	BYTE	W03
	BYTE		N32     Gn3 
	BYTE	W32
	BYTE	W03
	BYTE	GoTo
	 POIN2	WintersApproach_6_B1
WintersApproach_6_B2:
	BYTE	FINE

//**************** Track 7 (Midi-Chn.7) ****************//

WintersApproach_7:
	BYTE	KEYSH   WintersApproach_key+0
WintersApproach_7_B1:
// 000   ----------------------------------------
	BYTE		VOICE   27
	BYTE		MODT    0
	BYTE		LFOS    44
	BYTE		VOL     127*WintersApproach_mvl/mxv
	BYTE		PAN     c_v+63
	BYTE	W96
// 001   ----------------------------------------
	BYTE	W96
// 002   ----------------------------------------
	BYTE	W96
// 003   ----------------------------------------
	BYTE	W96
// 004   ----------------------------------------
	BYTE	W96
// 005   ----------------------------------------
	BYTE	W96
// 006   ----------------------------------------
	BYTE	W96
// 007   ----------------------------------------
	BYTE	W96
// 008   ----------------------------------------
WintersApproach_7_008:
	BYTE		N11     An2   v056
	BYTE	W12
	BYTE		        En3 
	BYTE	W12
	BYTE		        An3 
	BYTE	W12
	BYTE		        En3 
	BYTE	W12
	BYTE		        Gn2 
	BYTE	W12
	BYTE		        Dn3 
	BYTE	W12
	BYTE		        Gn3 
	BYTE	W12
	BYTE		        Dn3 
	BYTE	W12
	BYTE	PEND
// 009   ----------------------------------------
WintersApproach_7_009:
	BYTE		N11     Fn2   v056
	BYTE	W12
	BYTE		        Cn3 
	BYTE	W12
	BYTE		        Fn3 
	BYTE	W12
	BYTE		        Cn3 
	BYTE	W12
	BYTE		        An2 
	BYTE	W12
	BYTE		        Dn3 
	BYTE	W12
	BYTE		        Fn3 
	BYTE	W12
	BYTE		        Dn3 
	BYTE	W12
	BYTE	PEND
// 010   ----------------------------------------
WintersApproach_7_010:
	BYTE		N11     Bn2   v056
	BYTE	W12
	BYTE		        En3 
	BYTE	W12
	BYTE		        Gn3 
	BYTE	W12
	BYTE		        En3 
	BYTE	W12
	BYTE		        An2 
	BYTE	W12
	BYTE		        Dn3 
	BYTE	W12
	BYTE		        Fs3 
	BYTE	W12
	BYTE		        Dn3 
	BYTE	W12
	BYTE	PEND
// 011   ----------------------------------------
WintersApproach_7_011:
	BYTE		N11     Gn2   v056
	BYTE	W12
	BYTE		        Bn2 
	BYTE	W12
	BYTE		        En3 
	BYTE	W12
	BYTE		        Bn2 
	BYTE	W12
	BYTE		        Gn2 
	BYTE	W12
	BYTE		        Bn2 
	BYTE	W12
	BYTE		        Dn3 
	BYTE	W12
	BYTE		        Bn2 
	BYTE	W12
	BYTE	PEND
// 012   ----------------------------------------
	BYTE	PATT
	 POIN2	WintersApproach_7_008
// 013   ----------------------------------------
	BYTE	PATT
	 POIN2	WintersApproach_7_009
// 014   ----------------------------------------
	BYTE	PATT
	 POIN2	WintersApproach_7_010
// 015   ----------------------------------------
	BYTE	PATT
	 POIN2	WintersApproach_7_011
// 016   ----------------------------------------
	BYTE	PATT
	 POIN2	WintersApproach_7_008
// 017   ----------------------------------------
	BYTE	PATT
	 POIN2	WintersApproach_7_009
// 018   ----------------------------------------
	BYTE	PATT
	 POIN2	WintersApproach_7_010
// 019   ----------------------------------------
	BYTE	PATT
	 POIN2	WintersApproach_7_011
// 020   ----------------------------------------
	BYTE	PATT
	 POIN2	WintersApproach_7_008
// 021   ----------------------------------------
	BYTE	PATT
	 POIN2	WintersApproach_7_009
// 022   ----------------------------------------
	BYTE	PATT
	 POIN2	WintersApproach_7_010
// 023   ----------------------------------------
	BYTE	PATT
	 POIN2	WintersApproach_7_011
// 024   ----------------------------------------
	BYTE	W96
// 025   ----------------------------------------
	BYTE	W96
// 026   ----------------------------------------
	BYTE	W96
// 027   ----------------------------------------
	BYTE	W96
// 028   ----------------------------------------
	BYTE	W96
// 029   ----------------------------------------
	BYTE	W96
// 030   ----------------------------------------
	BYTE	W96
// 031   ----------------------------------------
	BYTE	W96
// 032   ----------------------------------------
	BYTE		N11     An2   v056
	BYTE	W12
	BYTE		        En3 
	BYTE	W12
	BYTE		        An3 
	BYTE	W12
	BYTE		        En3 
	BYTE	W12
	BYTE		        An2 
	BYTE	W12
	BYTE		        En3 
	BYTE	W12
	BYTE		        An3 
	BYTE	W12
	BYTE		        En3 
	BYTE	W12
// 033   ----------------------------------------
	BYTE		        Gn2 
	BYTE	W12
	BYTE		        Dn3 
	BYTE	W12
	BYTE		        Gn3 
	BYTE	W12
	BYTE		        Dn3 
	BYTE	W12
	BYTE		        Gn2 
	BYTE	W12
	BYTE		        Dn3 
	BYTE	W12
	BYTE		        Gn3 
	BYTE	W12
	BYTE		        Dn3 
	BYTE	W12
// 034   ----------------------------------------
	BYTE		        Fn2 
	BYTE	W12
	BYTE		        Cn3 
	BYTE	W12
	BYTE		        Fn3 
	BYTE	W12
	BYTE		        Cn3 
	BYTE	W12
	BYTE		        Fn2 
	BYTE	W12
	BYTE		        Cn3 
	BYTE	W12
	BYTE		        Fn3 
	BYTE	W12
	BYTE		        Cn3 
	BYTE	W12
// 035   ----------------------------------------
	BYTE		        An2 
	BYTE	W12
	BYTE		        Dn3 
	BYTE	W12
	BYTE		        Fn3 
	BYTE	W12
	BYTE		        Dn3 
	BYTE	W12
	BYTE		        An2 
	BYTE	W12
	BYTE		        Dn3 
	BYTE	W12
	BYTE		        Fn3 
	BYTE	W12
	BYTE		        Dn3 
	BYTE	W12
// 036   ----------------------------------------
	BYTE		        Bn2 
	BYTE	W12
	BYTE		        En3 
	BYTE	W12
	BYTE		        Gn3 
	BYTE	W12
	BYTE		        En3 
	BYTE	W12
	BYTE		        Bn2 
	BYTE	W12
	BYTE		        En3 
	BYTE	W12
	BYTE		        Gn3 
	BYTE	W12
	BYTE		        En3 
	BYTE	W12
// 037   ----------------------------------------
	BYTE		        An2 
	BYTE	W12
	BYTE		        Dn3 
	BYTE	W12
	BYTE		        Fs3 
	BYTE	W12
	BYTE		        Dn3 
	BYTE	W12
	BYTE		        An2 
	BYTE	W12
	BYTE		        Dn3 
	BYTE	W12
	BYTE		        Fs3 
	BYTE	W12
	BYTE		        Dn3 
	BYTE	W12
// 038   ----------------------------------------
	BYTE		        Gn2 
	BYTE	W12
	BYTE		        Bn2 
	BYTE	W12
	BYTE		        En3 
	BYTE	W12
	BYTE		        Bn2 
	BYTE	W12
	BYTE		        Gn2 
	BYTE	W12
	BYTE		        Bn2 
	BYTE	W12
	BYTE		        En3 
	BYTE	W12
	BYTE		        Bn2 
	BYTE	W12
// 039   ----------------------------------------
	BYTE		        Gn2 
	BYTE	W12
	BYTE		        Bn2 
	BYTE	W12
	BYTE		        Dn3 
	BYTE	W12
	BYTE		        Bn2 
	BYTE	W12
	BYTE		N44     Gn2 
	BYTE	W03
	BYTE		N40     Bn2 
	BYTE	W03
	BYTE		N36     Dn3 
	BYTE	W03
	BYTE		N32     Gn3 
	BYTE	W32
	BYTE	W03
	BYTE	GoTo
	 POIN2	WintersApproach_7_B1
WintersApproach_7_B2:
	BYTE	FINE

//**************** Track 8 (Midi-Chn.8) ****************//

WintersApproach_8:
	BYTE	KEYSH   WintersApproach_key+0
WintersApproach_8_B1:
// 000   ----------------------------------------
	BYTE		VOICE   61
	BYTE		MODT    0
	BYTE		LFOS    44
	BYTE		VOL     127*WintersApproach_mvl/mxv
	BYTE		PAN     c_v+0
	BYTE	W96
// 001   ----------------------------------------
	BYTE	W96
// 002   ----------------------------------------
	BYTE	W96
// 003   ----------------------------------------
	BYTE	W96
// 004   ----------------------------------------
	BYTE	W96
// 005   ----------------------------------------
	BYTE	W96
// 006   ----------------------------------------
	BYTE	W96
// 007   ----------------------------------------
	BYTE	W96
// 008   ----------------------------------------
	BYTE	W96
// 009   ----------------------------------------
	BYTE	W96
// 010   ----------------------------------------
	BYTE	W96
// 011   ----------------------------------------
	BYTE	W96
// 012   ----------------------------------------
	BYTE	W96
// 013   ----------------------------------------
	BYTE	W96
// 014   ----------------------------------------
	BYTE	W96
// 015   ----------------------------------------
	BYTE	W96
// 016   ----------------------------------------
	BYTE	W96
// 017   ----------------------------------------
	BYTE	W96
// 018   ----------------------------------------
	BYTE	W96
// 019   ----------------------------------------
	BYTE	W96
// 020   ----------------------------------------
	BYTE	W96
// 021   ----------------------------------------
	BYTE	W96
// 022   ----------------------------------------
	BYTE	W96
// 023   ----------------------------------------
	BYTE	W96
// 024   ----------------------------------------
	BYTE	W96
// 025   ----------------------------------------
	BYTE	W96
// 026   ----------------------------------------
	BYTE	W96
// 027   ----------------------------------------
	BYTE	W96
// 028   ----------------------------------------
	BYTE	W96
// 029   ----------------------------------------
	BYTE	W96
// 030   ----------------------------------------
	BYTE	W96
// 031   ----------------------------------------
	BYTE	W96
// 032   ----------------------------------------
	BYTE		N28     An2   v127
	BYTE	W30
	BYTE		N05     Dn3 
	BYTE	W06
	BYTE		        En3 
	BYTE	W06
	BYTE		        Fn3 
	BYTE	W06
	BYTE		        En3 
	BYTE	W06
	BYTE		        Fn3 
	BYTE	W06
	BYTE		N17     En3 
	BYTE	W18
	BYTE		N05     Dn3 
	BYTE	W06
	BYTE		        En3 
	BYTE	W06
	BYTE		        Fn3 
	BYTE	W06
// 033   ----------------------------------------
	BYTE		N07     Gn3 
	BYTE	W08
	BYTE		N07   
	BYTE	W08
	BYTE		        Dn3 
	BYTE	W08
	BYTE		        Fn3 
	BYTE	W08
	BYTE		N07   
	BYTE	W08
	BYTE		        Dn3 
	BYTE	W08
	BYTE		N11     En3 
	BYTE	W12
	BYTE		        Dn3 
	BYTE	W12
	BYTE		        Cn3 
	BYTE	W12
	BYTE		        Bn2 
	BYTE	W12
// 034   ----------------------------------------
	BYTE		N20     An2 
	BYTE	W24
	BYTE		N05   
	BYTE	W06
	BYTE		        Bn2 
	BYTE	W06
	BYTE		        Cn3 
	BYTE	W06
	BYTE		        An2 
	BYTE	W06
	BYTE		        Fn3 
	BYTE	W06
	BYTE		        Cn3 
	BYTE	W06
	BYTE		N17     Fn3 
	BYTE	W18
	BYTE		N05     An3 
	BYTE	W06
	BYTE		        Gn3 
	BYTE	W06
	BYTE		        Fn3 
	BYTE	W06
// 035   ----------------------------------------
	BYTE		        Dn3 
	BYTE	W06
	BYTE		        En3 
	BYTE	W06
	BYTE		        Fn3 
	BYTE	W06
	BYTE		        En3 
	BYTE	W06
	BYTE		N11     Dn3 
	BYTE	W12
	BYTE		        An2 
	BYTE	W12
	BYTE		N42     Dn3 
	BYTE	W48
// 036   ----------------------------------------
	BYTE		N28     En3 
	BYTE	W30
	BYTE		N05     Fs3 
	BYTE	W06
	BYTE		        Gn3 
	BYTE	W06
	BYTE		        An3 
	BYTE	W06
	BYTE		        Bn3 
	BYTE	W06
	BYTE		        Cn4 
	BYTE	W06
	BYTE		N17     Bn3 
	BYTE	W18
	BYTE		N05     An3 
	BYTE	W06
	BYTE		        Gn3 
	BYTE	W06
	BYTE		        Fs3 
	BYTE	W06
// 037   ----------------------------------------
	BYTE		N11     En3 
	BYTE	W12
	BYTE		N05     Fs3 
	BYTE	W06
	BYTE		        En3 
	BYTE	W06
	BYTE		N11     Dn3 
	BYTE	W12
	BYTE		N05     En3 
	BYTE	W06
	BYTE		        Dn3 
	BYTE	W06
	BYTE		N11     Cn3 
	BYTE	W12
	BYTE		N05     Dn3 
	BYTE	W06
	BYTE		        Fs3 
	BYTE	W06
	BYTE		N11     An3 
	BYTE	W12
	BYTE		        Fs3 
	BYTE	W12
// 038   ----------------------------------------
	BYTE		        En3 
	BYTE	W12
	BYTE		        Fs3 
	BYTE	W12
	BYTE		        Gn3 
	BYTE	W12
	BYTE		        En3 
	BYTE	W12
	BYTE		        Bn2 
	BYTE	W12
	BYTE		        Cn3 
	BYTE	W12
	BYTE		        Dn3 
	BYTE	W12
	BYTE		        Bn2 
	BYTE	W12
// 039   ----------------------------------------
	BYTE		        Gn2 
	BYTE	W12
	BYTE		        An2 
	BYTE	W12
	BYTE		        Bn2 
	BYTE	W12
	BYTE		        Cn3 
	BYTE	W12
	BYTE		N42     Dn3 
	BYTE	W44
	BYTE	GoTo
	 POIN2	WintersApproach_8_B1
WintersApproach_8_B2:
	BYTE	FINE

//**************** Track 9 (Midi-Chn.9) ****************//

WintersApproach_9:
	BYTE	KEYSH   WintersApproach_key+0
WintersApproach_9_B1:
// 000   ----------------------------------------
	BYTE		VOICE   124
	BYTE		MODT    0
	BYTE		LFOS    44
	BYTE		VOL     127*WintersApproach_mvl/mxv
	BYTE		PAN     c_v+0
	BYTE		N11     As1   v127
	BYTE	W12
	BYTE		N05     Fs1 
	BYTE	W06
	BYTE		N05   
	BYTE	W06
	BYTE		N11     As1 
	BYTE	W12
	BYTE		N05     Fs1 
	BYTE	W06
	BYTE		N05   
	BYTE	W06
	BYTE		N11     As1 
	BYTE	W12
	BYTE		N05     Fs1 
	BYTE	W06
	BYTE		N05   
	BYTE	W06
	BYTE		N11     As1 
	BYTE	W12
	BYTE		N05     Fs1 
	BYTE	W06
	BYTE		N05   
	BYTE	W06
// 001   ----------------------------------------
WintersApproach_9_001:
	BYTE		N11     As1   v127
	BYTE	W12
	BYTE		N05     Fs1 
	BYTE	W06
	BYTE		N05   
	BYTE	W06
	BYTE		N11     As1 
	BYTE	W12
	BYTE		N05     Fs1 
	BYTE	W06
	BYTE		N05   
	BYTE	W06
	BYTE		N11     As1 
	BYTE	W12
	BYTE		N05     Fs1 
	BYTE	W06
	BYTE		N05   
	BYTE	W06
	BYTE		N11     As1 
	BYTE	W12
	BYTE		N05     Fs1 
	BYTE	W06
	BYTE		N05   
	BYTE	W06
	BYTE	PEND
// 002   ----------------------------------------
	BYTE	PATT
	 POIN2	WintersApproach_9_001
// 003   ----------------------------------------
	BYTE	PATT
	 POIN2	WintersApproach_9_001
// 004   ----------------------------------------
WintersApproach_9_004:
	BYTE		N11     Bn0   v127
	BYTE		N11     Cn1 
	BYTE		N11     As1 
	BYTE	W12
	BYTE		N05     Fs1 
	BYTE	W06
	BYTE		N05   
	BYTE	W06
	BYTE		N11     As1 
	BYTE	W12
	BYTE		N05     Fs1 
	BYTE	W06
	BYTE		N05   
	BYTE	W06
	BYTE		N11     As1 
	BYTE	W12
	BYTE		N05     Fs1 
	BYTE	W06
	BYTE		N05   
	BYTE	W06
	BYTE		N11     As1 
	BYTE	W12
	BYTE		N05     Bn0 
	BYTE		N05     Cn1 
	BYTE		N05     Fs1 
	BYTE	W06
	BYTE		N05   
	BYTE	W06
	BYTE	PEND
// 005   ----------------------------------------
	BYTE	PATT
	 POIN2	WintersApproach_9_004
// 006   ----------------------------------------
	BYTE	PATT
	 POIN2	WintersApproach_9_004
// 007   ----------------------------------------
	BYTE	PATT
	 POIN2	WintersApproach_9_004
// 008   ----------------------------------------
WintersApproach_9_008:
	BYTE		N11     Bn0   v127
	BYTE		N11     Cn1 
	BYTE		N11     As1 
	BYTE	W12
	BYTE		N05     Fs1 
	BYTE	W06
	BYTE		N05   
	BYTE	W06
	BYTE		N11     Cs1 
	BYTE		N11     As1 
	BYTE	W12
	BYTE		N05     Bn0 
	BYTE		N05     Cn1 
	BYTE		N05     Fs1 
	BYTE	W06
	BYTE		N05   
	BYTE	W06
	BYTE		N11     Bn0 
	BYTE		N11     Cn1 
	BYTE		N11     As1 
	BYTE	W12
	BYTE		N05     Fs1 
	BYTE	W06
	BYTE		N05   
	BYTE	W06
	BYTE		N11     Cs1 
	BYTE		N11     As1 
	BYTE	W12
	BYTE		N05     Fs1 
	BYTE	W06
	BYTE		N05   
	BYTE	W06
	BYTE	PEND
// 009   ----------------------------------------
	BYTE	PATT
	 POIN2	WintersApproach_9_008
// 010   ----------------------------------------
	BYTE	PATT
	 POIN2	WintersApproach_9_008
// 011   ----------------------------------------
	BYTE	PATT
	 POIN2	WintersApproach_9_008
// 012   ----------------------------------------
	BYTE	PATT
	 POIN2	WintersApproach_9_008
// 013   ----------------------------------------
	BYTE	PATT
	 POIN2	WintersApproach_9_008
// 014   ----------------------------------------
	BYTE	PATT
	 POIN2	WintersApproach_9_008
// 015   ----------------------------------------
	BYTE		N11     Bn0   v127
	BYTE		N11     Cn1 
	BYTE		N11     As1 
	BYTE	W12
	BYTE		N05     Fs1 
	BYTE	W06
	BYTE		N05   
	BYTE	W06
	BYTE		N11     Cs1 
	BYTE		N11     As1 
	BYTE	W12
	BYTE		N05     Bn0 
	BYTE		N05     Cn1 
	BYTE		N05     Fs1 
	BYTE	W06
	BYTE		N05   
	BYTE	W06
	BYTE		N11     Bn0 
	BYTE		N11     Cn1 
	BYTE		N11     As1 
	BYTE	W12
	BYTE		N05     Fs1 
	BYTE	W06
	BYTE		N05   
	BYTE	W06
	BYTE		N11     Cs1 
	BYTE		N11     En1 
	BYTE		N11     As1 
	BYTE	W12
	BYTE		N05     En1 
	BYTE		N05     Fs1 
	BYTE	W06
	BYTE		        En1 
	BYTE		N05     Fs1 
	BYTE	W06
// 016   ----------------------------------------
WintersApproach_9_016:
	BYTE		N11     Bn0   v127
	BYTE		N11     Cn1 
	BYTE		N11     As1 
	BYTE		N11     An2 
	BYTE	W12
	BYTE		N05     Fs1 
	BYTE	W06
	BYTE		N05   
	BYTE	W06
	BYTE		N11     Cs1 
	BYTE		N11     En1 
	BYTE		N11     As1 
	BYTE	W12
	BYTE		N05     Bn0 
	BYTE		N05     Cn1 
	BYTE		N05     Fs1 
	BYTE	W06
	BYTE		N05   
	BYTE	W06
	BYTE		N11     As1 
	BYTE	W12
	BYTE		N05     Fs1 
	BYTE	W06
	BYTE		N05   
	BYTE	W06
	BYTE		N11     Cs1 
	BYTE		N11     En1 
	BYTE		N11     As1 
	BYTE	W12
	BYTE		N05     Bn0 
	BYTE		N05     Cn1 
	BYTE		N05     Fs1 
	BYTE	W06
	BYTE		N05   
	BYTE	W06
	BYTE	PEND
// 017   ----------------------------------------
WintersApproach_9_017:
	BYTE		N11     Bn0   v127
	BYTE		N11     Cn1 
	BYTE		N11     As1 
	BYTE	W12
	BYTE		N05     Fs1 
	BYTE	W06
	BYTE		N05   
	BYTE	W06
	BYTE		N11     Cs1 
	BYTE		N11     En1 
	BYTE		N11     As1 
	BYTE	W12
	BYTE		N05     Bn0 
	BYTE		N05     Cn1 
	BYTE		N05     Fs1 
	BYTE	W06
	BYTE		N05   
	BYTE	W06
	BYTE		N11     As1 
	BYTE	W12
	BYTE		N05     Fs1 
	BYTE	W06
	BYTE		N05   
	BYTE	W06
	BYTE		N11     Cs1 
	BYTE		N11     En1 
	BYTE		N11     As1 
	BYTE	W12
	BYTE		N05     Bn0 
	BYTE		N05     Cn1 
	BYTE		N05     Fs1 
	BYTE	W06
	BYTE		N05   
	BYTE	W06
	BYTE	PEND
// 018   ----------------------------------------
	BYTE	PATT
	 POIN2	WintersApproach_9_017
// 019   ----------------------------------------
	BYTE	PATT
	 POIN2	WintersApproach_9_017
// 020   ----------------------------------------
	BYTE	PATT
	 POIN2	WintersApproach_9_017
// 021   ----------------------------------------
	BYTE	PATT
	 POIN2	WintersApproach_9_017
// 022   ----------------------------------------
	BYTE	PATT
	 POIN2	WintersApproach_9_017
// 023   ----------------------------------------
WintersApproach_9_023:
	BYTE		N11     Bn0   v127
	BYTE		N11     Cn1 
	BYTE		N11     As1 
	BYTE	W12
	BYTE		N05     Fs1 
	BYTE	W06
	BYTE		N05   
	BYTE	W06
	BYTE		N11     Cs1 
	BYTE		N11     En1 
	BYTE		N11     As1 
	BYTE	W12
	BYTE		N05     Bn0 
	BYTE		N05     Cn1 
	BYTE		N05     Fs1 
	BYTE	W06
	BYTE		N05   
	BYTE	W06
	BYTE		N11     As1 
	BYTE	W12
	BYTE		N05     Fs1 
	BYTE	W06
	BYTE		N05   
	BYTE	W06
	BYTE		N11     Cs1 
	BYTE		N11     En1 
	BYTE		N11     As1 
	BYTE	W12
	BYTE		N05     Bn0 
	BYTE		N05     Cn1 
	BYTE		N05     En1 
	BYTE		N05     Fs1 
	BYTE	W06
	BYTE		        En1 
	BYTE		N05     Fs1 
	BYTE	W06
	BYTE	PEND
// 024   ----------------------------------------
	BYTE	PATT
	 POIN2	WintersApproach_9_016
// 025   ----------------------------------------
	BYTE	PATT
	 POIN2	WintersApproach_9_017
// 026   ----------------------------------------
	BYTE	PATT
	 POIN2	WintersApproach_9_017
// 027   ----------------------------------------
	BYTE	PATT
	 POIN2	WintersApproach_9_017
// 028   ----------------------------------------
	BYTE	PATT
	 POIN2	WintersApproach_9_017
// 029   ----------------------------------------
	BYTE	PATT
	 POIN2	WintersApproach_9_017
// 030   ----------------------------------------
	BYTE	PATT
	 POIN2	WintersApproach_9_017
// 031   ----------------------------------------
	BYTE	PATT
	 POIN2	WintersApproach_9_023
// 032   ----------------------------------------
	BYTE	W96
// 033   ----------------------------------------
	BYTE	W96
// 034   ----------------------------------------
	BYTE	W96
// 035   ----------------------------------------
	BYTE	W96
// 036   ----------------------------------------
	BYTE	W96
// 037   ----------------------------------------
	BYTE	W96
// 038   ----------------------------------------
	BYTE	W96
// 039   ----------------------------------------
	BYTE	W92
	BYTE	GoTo
	 POIN2	WintersApproach_9_B1
WintersApproach_9_B2:
	BYTE	FINE

//******************************************************//
	ALIGN 4

WintersApproach:
	BYTE	9	// NumTrks
	BYTE	0	// NumBlks
	BYTE	WintersApproach_pri	// Priority
	BYTE	WintersApproach_rev	// Reverb.

	POIN2	WintersApproach_grp

	POIN2	WintersApproach_1
	POIN2	WintersApproach_2
	POIN2	WintersApproach_3
	POIN2	WintersApproach_4
	POIN2	WintersApproach_5
	POIN2	WintersApproach_6
	POIN2	WintersApproach_7
	POIN2	WintersApproach_8
	POIN2	WintersApproach_9

	
