//Event file generated from Sappy .s format.
	#include "MPlayDef.event"

	#define	SovereignSong_grp  voicegroup000
	#define	SovereignSong_pri  0
	#define	SovereignSong_rev  0
	#define	SovereignSong_mvl  35
	#define	SovereignSong_key  0
	#define	SovereignSong_tbs  1
	#define	SovereignSong_exg  0
	#define	SovereignSong_cmp  1

	// .rodata
	//	SovereignSong
	ALIGN 4

//**************** Track 1 (Midi-Chn.1) ****************//

SovereignSong_1:
	BYTE	KEYSH   SovereignSong_key+0
SovereignSong_1_B1:
// 000   ----------------------------------------
	BYTE	TEMPO   100*SovereignSong_tbs/2
	BYTE		VOICE   48
	BYTE		MODT    0
	BYTE		LFOS    44
	BYTE		PAN     c_v-23
	BYTE		VOL     127*SovereignSong_mvl/mxv
	BYTE		N04     Cn3   v100
	BYTE	W12
	BYTE		        Dn3 
	BYTE	W12
	BYTE		        Ds3 
	BYTE	W12
	BYTE		        Cn3 
	BYTE	W12
	BYTE		        Fn3 
	BYTE	W12
	BYTE		        Ds3 
	BYTE	W06
	BYTE		        Dn3 
	BYTE	W06
	BYTE		        Ds3 
	BYTE	W12
	BYTE		        Cn3 
	BYTE	W12
// 001   ----------------------------------------
	BYTE		        Dn3 
	BYTE	W12
	BYTE		        As2 
	BYTE	W12
	BYTE		N06     Cn3 
	BYTE	W24
	BYTE		N04     Dn3 
	BYTE	W12
	BYTE		        As2 
	BYTE	W12
	BYTE		N06     Cn3 
	BYTE	W24
// 002   ----------------------------------------
	BYTE		N04     Ds3 
	BYTE	W12
	BYTE		        As3 
	BYTE	W12
	BYTE		        Cn4 
	BYTE	W12
	BYTE		        Gn3 
	BYTE	W12
	BYTE		        As3 
	BYTE	W12
	BYTE		        Gs3 
	BYTE	W06
	BYTE		        As3 
	BYTE	W06
	BYTE		        Gs3 
	BYTE	W12
	BYTE		        Gn3 
	BYTE	W12
// 003   ----------------------------------------
	BYTE		        Fn3 
	BYTE	W12
	BYTE		        Dn3 
	BYTE	W12
	BYTE		N06     Ds3 
	BYTE	W24
	BYTE		N04     Fn3 
	BYTE	W12
	BYTE		        Dn3 
	BYTE	W12
	BYTE		N06     Ds3 
	BYTE	W24
// 004   ----------------------------------------
SovereignSong_1_004:
	BYTE	W12
	BYTE		N04     Cn3   v100
	BYTE		N04     Ds3 
	BYTE		N04     Gn3 
	BYTE	W24
	BYTE		        Cn3 
	BYTE		N04     Ds3 
	BYTE		N04     Gn3 
	BYTE	W24
	BYTE		        Cn3 
	BYTE		N04     Ds3 
	BYTE		N04     Gn3 
	BYTE	W24
	BYTE		        Cn3 
	BYTE		N04     Ds3 
	BYTE		N04     Gn3 
	BYTE	W12
	BYTE	PEND
// 005   ----------------------------------------
	BYTE	PATT
	 POIN2	SovereignSong_1_004
// 006   ----------------------------------------
SovereignSong_1_006:
	BYTE	W12
	BYTE		N04     Cn3   v100
	BYTE		N04     Ds3 
	BYTE		N04     Gs3 
	BYTE	W24
	BYTE		        Cn3 
	BYTE		N04     Ds3 
	BYTE		N04     Gs3 
	BYTE	W24
	BYTE		        Cn3 
	BYTE		N04     Ds3 
	BYTE		N04     Gs3 
	BYTE	W24
	BYTE		        Cn3 
	BYTE		N04     Ds3 
	BYTE		N04     Gs3 
	BYTE	W12
	BYTE	PEND
// 007   ----------------------------------------
	BYTE	PATT
	 POIN2	SovereignSong_1_006
// 008   ----------------------------------------
SovereignSong_1_008:
	BYTE	W12
	BYTE		N04     As2   v100
	BYTE		N04     Dn3 
	BYTE		N04     Fn3 
	BYTE	W24
	BYTE		        As2 
	BYTE		N04     Dn3 
	BYTE		N04     Fn3 
	BYTE	W24
	BYTE		        As2 
	BYTE		N04     Dn3 
	BYTE		N04     Fn3 
	BYTE	W24
	BYTE		        As2 
	BYTE		N04     Dn3 
	BYTE		N04     Fn3 
	BYTE	W12
	BYTE	PEND
// 009   ----------------------------------------
	BYTE	PATT
	 POIN2	SovereignSong_1_004
// 010   ----------------------------------------
	BYTE	PATT
	 POIN2	SovereignSong_1_008
// 011   ----------------------------------------
	BYTE	W12
	BYTE		N04     Cn3   v100
	BYTE		N04     En3 
	BYTE		N04     Gn3 
	BYTE	W24
	BYTE		        Cn3 
	BYTE		N04     En3 
	BYTE		N04     Gn3 
	BYTE	W12
	BYTE		N06     Cn3 
	BYTE		N06     En3 
	BYTE		N06     Gn3 
	BYTE	W48
// 012   ----------------------------------------
SovereignSong_1_012:
	BYTE		N48     Gs3   v100
	BYTE	W48
	BYTE		        Gn3 
	BYTE	W48
	BYTE	PEND
// 013   ----------------------------------------
	BYTE		        Fn3 
	BYTE	W48
	BYTE		N24     Ds3 
	BYTE	W24
	BYTE		        Fn3 
	BYTE	W24
// 014   ----------------------------------------
	BYTE		N12     Gn3 
	BYTE	W12
	BYTE		        Fn3 
	BYTE	W12
	BYTE		        Gn3 
	BYTE	W12
	BYTE		        Gs3 
	BYTE	W12
	BYTE		        Gn3 
	BYTE	W12
	BYTE		        Fn3 
	BYTE	W12
	BYTE		        Ds3 
	BYTE	W12
	BYTE		        Fn3 
	BYTE	W12
// 015   ----------------------------------------
	BYTE		N12   
	BYTE	W12
	BYTE		        Ds3 
	BYTE	W12
	BYTE		        Fn3 
	BYTE	W12
	BYTE		        Ds3 
	BYTE	W12
	BYTE		N24     Dn3 
	BYTE	W24
	BYTE		        Gn3 
	BYTE	W24
// 016   ----------------------------------------
	BYTE	PATT
	 POIN2	SovereignSong_1_012
// 017   ----------------------------------------
	BYTE		N12     Fn3   v100
	BYTE	W12
	BYTE		        Gn3 
	BYTE	W12
	BYTE		        As3 
	BYTE	W12
	BYTE		N11     Cn4 
	BYTE	W12
	BYTE		N06     Dn4 
	BYTE	W24
	BYTE		        As3 
	BYTE	W24
// 018   ----------------------------------------
	BYTE	PATT
	 POIN2	SovereignSong_1_004
// 019   ----------------------------------------
	BYTE	PATT
	 POIN2	SovereignSong_1_006
// 020   ----------------------------------------
	BYTE	PATT
	 POIN2	SovereignSong_1_008
// 021   ----------------------------------------
	BYTE	W12
	BYTE		N04     Cn3   v100
	BYTE		N04     En3 
	BYTE		N04     Gn3 
	BYTE	W24
	BYTE		        Cn3 
	BYTE		N04     En3 
	BYTE		N04     Gn3 
	BYTE	W12
	BYTE		N06     Cn3 
	BYTE		N06     En3 
	BYTE		N06     Gn3 
	BYTE	W42
	BYTE	GoTo
	 POIN2	SovereignSong_1_B1
SovereignSong_1_B2:
	BYTE	FINE

//**************** Track 2 (Midi-Chn.2) ****************//

SovereignSong_2:
	BYTE	KEYSH   SovereignSong_key+0
SovereignSong_2_B1:
// 000   ----------------------------------------
	BYTE		VOICE   61
	BYTE		MODT    0
	BYTE		LFOS    44
	BYTE		PAN     c_v+12
	BYTE		VOL     127*SovereignSong_mvl/mxv
	BYTE	W96
// 001   ----------------------------------------
	BYTE	W96
// 002   ----------------------------------------
	BYTE	W96
// 003   ----------------------------------------
	BYTE	W96
// 004   ----------------------------------------
	BYTE		N32     Gn3   v100
	BYTE	W36
	BYTE		N11     Gs3 
	BYTE	W12
	BYTE		N32     As3 
	BYTE	W36
	BYTE		N11     Gn3 
	BYTE	W12
// 005   ----------------------------------------
	BYTE		        Gs3 
	BYTE	W12
	BYTE		        Fn3 
	BYTE	W12
	BYTE		N66     Gn3 
	BYTE	W72
// 006   ----------------------------------------
	BYTE		N32     Cn4 
	BYTE	W36
	BYTE		N11     Dn4 
	BYTE	W12
	BYTE		N32     Ds4 
	BYTE	W36
	BYTE		N11     Cn4 
	BYTE	W12
// 007   ----------------------------------------
	BYTE		        Dn4 
	BYTE	W12
	BYTE		        As3 
	BYTE	W12
	BYTE		N66     Cn4 
	BYTE	W72
// 008   ----------------------------------------
	BYTE		N11     As3 
	BYTE	W12
	BYTE		        Fn3 
	BYTE	W12
	BYTE		        Dn3 
	BYTE	W12
	BYTE		        Fn3 
	BYTE	W12
	BYTE		        As3 
	BYTE	W12
	BYTE		        Cn4 
	BYTE	W12
	BYTE		        Dn4 
	BYTE	W12
	BYTE		        As3 
	BYTE	W12
// 009   ----------------------------------------
	BYTE		        Cn4 
	BYTE	W12
	BYTE		        Gn3 
	BYTE	W12
	BYTE		        Cn4 
	BYTE	W24
	BYTE		        Gs3 
	BYTE	W12
	BYTE		        Fn3 
	BYTE	W12
	BYTE		        Gn3 
	BYTE	W24
// 010   ----------------------------------------
	BYTE		        As3 
	BYTE	W12
	BYTE		        Fn3 
	BYTE	W12
	BYTE		        As3 
	BYTE	W12
	BYTE		        Dn4 
	BYTE	W12
	BYTE		        Fn4 
	BYTE	W12
	BYTE		        As4 
	BYTE	W12
	BYTE		        Dn5 
	BYTE	W12
	BYTE		        As4 
	BYTE	W12
// 011   ----------------------------------------
	BYTE		        Cn5 
	BYTE	W12
	BYTE		        Gn4 
	BYTE	W12
	BYTE		        Cn5 
	BYTE	W24
	BYTE		N06     Cn4 
	BYTE	W48
// 012   ----------------------------------------
	BYTE	W96
// 013   ----------------------------------------
	BYTE	W96
// 014   ----------------------------------------
	BYTE	W96
// 015   ----------------------------------------
	BYTE	W96
// 016   ----------------------------------------
	BYTE	W96
// 017   ----------------------------------------
	BYTE	W96
// 018   ----------------------------------------
	BYTE		N11   
	BYTE	W12
	BYTE		        Gn3 
	BYTE	W12
	BYTE		        Cn4 
	BYTE	W12
	BYTE		        Dn4 
	BYTE	W12
	BYTE		N06     Ds4 
	BYTE	W24
	BYTE		        Cn4 
	BYTE	W24
// 019   ----------------------------------------
	BYTE		N11   
	BYTE	W12
	BYTE		        Gs3 
	BYTE	W12
	BYTE		        Cn4 
	BYTE	W12
	BYTE		        Dn4 
	BYTE	W12
	BYTE		N06     Ds4 
	BYTE	W24
	BYTE		        Cn4 
	BYTE	W24
// 020   ----------------------------------------
	BYTE		N11     As3 
	BYTE	W12
	BYTE		        Fn3 
	BYTE	W12
	BYTE		        As3 
	BYTE	W12
	BYTE		        Cn4 
	BYTE	W12
	BYTE		N06     Dn4 
	BYTE	W24
	BYTE		        As3 
	BYTE	W24
// 021   ----------------------------------------
	BYTE		N11     Cn4 
	BYTE	W12
	BYTE		        Gn3 
	BYTE	W12
	BYTE		        Cn4 
	BYTE	W24
	BYTE		N06     Cn3 
	BYTE	W42
	BYTE	GoTo
	 POIN2	SovereignSong_2_B1
SovereignSong_2_B2:
	BYTE	FINE

//**************** Track 3 (Midi-Chn.3) ****************//

SovereignSong_3:
	BYTE	KEYSH   SovereignSong_key+0
SovereignSong_3_B1:
// 000   ----------------------------------------
	BYTE		VOICE   49
	BYTE		MODT    0
	BYTE		LFOS    44
	BYTE		PAN     c_v+27
	BYTE		VOL     127*SovereignSong_mvl/mxv
	BYTE		N04     Cn2   v100
	BYTE	W12
	BYTE		        Dn2 
	BYTE	W12
	BYTE		        Ds2 
	BYTE	W12
	BYTE		        Cn2 
	BYTE	W12
	BYTE		        Fn2 
	BYTE	W12
	BYTE		        Ds2 
	BYTE	W06
	BYTE		        Dn2 
	BYTE	W06
	BYTE		        Ds2 
	BYTE	W12
	BYTE		        Cn2 
	BYTE	W12
// 001   ----------------------------------------
	BYTE		        Dn2 
	BYTE	W12
	BYTE		        As1 
	BYTE	W12
	BYTE		N06     Cn2 
	BYTE	W24
	BYTE		N04     Dn2 
	BYTE	W12
	BYTE		        As1 
	BYTE	W12
	BYTE		N06     Cn2 
	BYTE	W24
// 002   ----------------------------------------
	BYTE		N04     Ds2 
	BYTE	W12
	BYTE		        As2 
	BYTE	W12
	BYTE		        Cn3 
	BYTE	W12
	BYTE		        Gn2 
	BYTE	W12
	BYTE		        As2 
	BYTE	W12
	BYTE		        Gs2 
	BYTE	W06
	BYTE		        As2 
	BYTE	W06
	BYTE		        Gs2 
	BYTE	W12
	BYTE		        Gn2 
	BYTE	W12
// 003   ----------------------------------------
	BYTE		        Fn2 
	BYTE	W12
	BYTE		        Dn2 
	BYTE	W12
	BYTE		N06     Ds2 
	BYTE	W24
	BYTE		N04     Fn2 
	BYTE	W12
	BYTE		        Dn2 
	BYTE	W12
	BYTE		N06     Ds2 
	BYTE	W24
// 004   ----------------------------------------
SovereignSong_3_004:
	BYTE		N20     Cn2   v100
	BYTE	W24
	BYTE		        Gn1 
	BYTE	W24
	BYTE		        Cn2 
	BYTE	W24
	BYTE		        Gn1 
	BYTE	W24
	BYTE	PEND
// 005   ----------------------------------------
	BYTE		        Cn2 
	BYTE	W24
	BYTE		        Gn1 
	BYTE	W24
	BYTE		        Cn2 
	BYTE	W24
	BYTE		        As1 
	BYTE	W24
// 006   ----------------------------------------
	BYTE		        Gs1 
	BYTE	W24
	BYTE		        Cn2 
	BYTE	W24
	BYTE		        Gs1 
	BYTE	W24
	BYTE		        Cn2 
	BYTE	W24
// 007   ----------------------------------------
	BYTE		        Gs1 
	BYTE	W24
	BYTE		        Cn2 
	BYTE	W24
	BYTE		        Ds2 
	BYTE	W24
	BYTE		        Cn2 
	BYTE	W24
// 008   ----------------------------------------
SovereignSong_3_008:
	BYTE		N20     As1   v100
	BYTE	W24
	BYTE		        Fn1 
	BYTE	W24
	BYTE		        As1 
	BYTE	W24
	BYTE		        Fn1 
	BYTE	W24
	BYTE	PEND
// 009   ----------------------------------------
	BYTE	PATT
	 POIN2	SovereignSong_3_004
// 010   ----------------------------------------
	BYTE	PATT
	 POIN2	SovereignSong_3_008
// 011   ----------------------------------------
	BYTE		N20     Cn2   v100
	BYTE	W24
	BYTE		        Gn1 
	BYTE	W24
	BYTE		        Cn2 
	BYTE	W48
// 012   ----------------------------------------
	BYTE		N96     Gs1 
	BYTE	W96
// 013   ----------------------------------------
	BYTE		        As1 
	BYTE	W96
// 014   ----------------------------------------
	BYTE		        Ds2 
	BYTE	W96
// 015   ----------------------------------------
	BYTE		N48     Fn2 
	BYTE	W48
	BYTE		        Gn2 
	BYTE	W48
// 016   ----------------------------------------
	BYTE		N96     Gs2 
	BYTE	W96
// 017   ----------------------------------------
	BYTE		        As2 
	BYTE	W96
// 018   ----------------------------------------
	BYTE		N48     Cn2 
	BYTE	W48
	BYTE		        As1 
	BYTE	W48
// 019   ----------------------------------------
	BYTE		        Gs1 
	BYTE	W48
	BYTE		        Cn2 
	BYTE	W48
// 020   ----------------------------------------
	BYTE		        As1 
	BYTE	W48
	BYTE		        Dn2 
	BYTE	W48
// 021   ----------------------------------------
	BYTE		N90     Cn2 
	BYTE	W90
	BYTE	GoTo
	 POIN2	SovereignSong_3_B1
SovereignSong_3_B2:
	BYTE	FINE

//**************** Track 4 (Midi-Chn.11) ****************//

SovereignSong_4:
	BYTE	KEYSH   SovereignSong_key+0
SovereignSong_4_B1:
// 000   ----------------------------------------
	BYTE		VOICE   46
	BYTE		MODT    0
	BYTE		LFOS    44
	BYTE		PAN     c_v-20
	BYTE		VOL     127*SovereignSong_mvl/mxv
	BYTE	W96
// 001   ----------------------------------------
	BYTE	W96
// 002   ----------------------------------------
	BYTE	W96
// 003   ----------------------------------------
	BYTE	W96
// 004   ----------------------------------------
	BYTE	W96
// 005   ----------------------------------------
	BYTE	W96
// 006   ----------------------------------------
	BYTE	W96
// 007   ----------------------------------------
	BYTE	W96
// 008   ----------------------------------------
	BYTE	W96
// 009   ----------------------------------------
	BYTE	W96
// 010   ----------------------------------------
	BYTE	W96
// 011   ----------------------------------------
	BYTE	W96
// 012   ----------------------------------------
SovereignSong_4_012:
	BYTE		N05     Ds3   v100
	BYTE	W06
	BYTE		        Gs3 
	BYTE	W06
	BYTE		        Cn4 
	BYTE	W06
	BYTE		        Ds4 
	BYTE	W06
	BYTE		        Gs4 
	BYTE	W06
	BYTE		        Ds4 
	BYTE	W06
	BYTE		        Cn4 
	BYTE	W06
	BYTE		        Gs3 
	BYTE	W06
	BYTE		        Ds3 
	BYTE	W06
	BYTE		        Gs3 
	BYTE	W06
	BYTE		        Cn4 
	BYTE	W06
	BYTE		        Ds4 
	BYTE	W06
	BYTE		        Gs4 
	BYTE	W06
	BYTE		        Ds4 
	BYTE	W06
	BYTE		        Cn4 
	BYTE	W06
	BYTE		        Gs3 
	BYTE	W06
	BYTE	PEND
// 013   ----------------------------------------
SovereignSong_4_013:
	BYTE		N05     Dn3   v100
	BYTE	W06
	BYTE		        Fn3 
	BYTE	W06
	BYTE		        As3 
	BYTE	W06
	BYTE		        Dn4 
	BYTE	W06
	BYTE		        Fn4 
	BYTE	W06
	BYTE		        Dn4 
	BYTE	W06
	BYTE		        As3 
	BYTE	W06
	BYTE		        Fn3 
	BYTE	W06
	BYTE		        Dn3 
	BYTE	W06
	BYTE		        Fn3 
	BYTE	W06
	BYTE		        As3 
	BYTE	W06
	BYTE		        Dn4 
	BYTE	W06
	BYTE		        Fn4 
	BYTE	W06
	BYTE		        Dn4 
	BYTE	W06
	BYTE		        As3 
	BYTE	W06
	BYTE		        Fn3 
	BYTE	W06
	BYTE	PEND
// 014   ----------------------------------------
	BYTE		        Ds3 
	BYTE	W06
	BYTE		        Gn3 
	BYTE	W06
	BYTE		        As3 
	BYTE	W06
	BYTE		        Ds4 
	BYTE	W06
	BYTE		        Gn4 
	BYTE	W06
	BYTE		        Ds4 
	BYTE	W06
	BYTE		        As3 
	BYTE	W06
	BYTE		        Gn3 
	BYTE	W06
	BYTE		        Ds3 
	BYTE	W06
	BYTE		        Gn3 
	BYTE	W06
	BYTE		        As3 
	BYTE	W06
	BYTE		        Ds4 
	BYTE	W06
	BYTE		        Gn4 
	BYTE	W06
	BYTE		        Ds4 
	BYTE	W06
	BYTE		        As3 
	BYTE	W06
	BYTE		        Gn3 
	BYTE	W06
// 015   ----------------------------------------
	BYTE		        Cn3 
	BYTE	W06
	BYTE		        Fn3 
	BYTE	W06
	BYTE		        An3 
	BYTE	W06
	BYTE		        Cn4 
	BYTE	W06
	BYTE		        Fn4 
	BYTE	W06
	BYTE		        Cn4 
	BYTE	W06
	BYTE		        An3 
	BYTE	W06
	BYTE		        Fn3 
	BYTE	W06
	BYTE		        Dn3 
	BYTE	W06
	BYTE		        Gn3 
	BYTE	W06
	BYTE		        Bn3 
	BYTE	W06
	BYTE		        Dn4 
	BYTE	W06
	BYTE		        Gn4 
	BYTE	W06
	BYTE		        Dn4 
	BYTE	W06
	BYTE		        Bn3 
	BYTE	W06
	BYTE		        Gn3 
	BYTE	W06
// 016   ----------------------------------------
	BYTE	PATT
	 POIN2	SovereignSong_4_012
// 017   ----------------------------------------
	BYTE	PATT
	 POIN2	SovereignSong_4_013
// 018   ----------------------------------------
	BYTE		N05     Cn3   v100
	BYTE	W06
	BYTE		        Ds3 
	BYTE	W06
	BYTE		        Gn3 
	BYTE	W06
	BYTE		        Cn4 
	BYTE	W06
	BYTE		        Ds4 
	BYTE	W06
	BYTE		        Cn4 
	BYTE	W06
	BYTE		        Gn3 
	BYTE	W06
	BYTE		        Ds3 
	BYTE	W06
	BYTE		        Cn3 
	BYTE	W06
	BYTE		        Ds3 
	BYTE	W06
	BYTE		        Gn3 
	BYTE	W06
	BYTE		        Cn4 
	BYTE	W06
	BYTE		        Ds4 
	BYTE	W06
	BYTE		        Cn4 
	BYTE	W06
	BYTE		        Gn3 
	BYTE	W06
	BYTE		        Ds3 
	BYTE	W06
// 019   ----------------------------------------
	BYTE	PATT
	 POIN2	SovereignSong_4_012
// 020   ----------------------------------------
	BYTE	PATT
	 POIN2	SovereignSong_4_013
// 021   ----------------------------------------
	BYTE		N05     Cn3   v100
	BYTE	W06
	BYTE		        En3 
	BYTE	W06
	BYTE		        Gn3 
	BYTE	W06
	BYTE		        Cn4 
	BYTE	W06
	BYTE		        En4 
	BYTE	W06
	BYTE		        Cn4 
	BYTE	W06
	BYTE		        Gn3 
	BYTE	W06
	BYTE		        En3 
	BYTE	W06
	BYTE		N06     Cn3 
	BYTE	W42
	BYTE	GoTo
	 POIN2	SovereignSong_4_B1
SovereignSong_4_B2:
	BYTE	FINE

//**************** Track 5 (Midi-Chn.12) ****************//

SovereignSong_5:
	BYTE	KEYSH   SovereignSong_key+0
SovereignSong_5_B1:
// 000   ----------------------------------------
	BYTE		VOICE   127
	BYTE		MODT    0
	BYTE		LFOS    44
	BYTE		PAN     c_v-1
	BYTE		VOL     127*SovereignSong_mvl/mxv
	BYTE	W96
// 001   ----------------------------------------
	BYTE	W96
// 002   ----------------------------------------
	BYTE	W96
// 003   ----------------------------------------
	BYTE	W96
// 004   ----------------------------------------
SovereignSong_5_004:
	BYTE		N11     Cn1   v100
	BYTE	W12
	BYTE		        Gs1 
	BYTE	W12
	BYTE		        Fs2 
	BYTE	W12
	BYTE		        Gs1 
	BYTE	W12
	BYTE		        Cn1 
	BYTE	W12
	BYTE		        Gs1 
	BYTE	W12
	BYTE		        Fs2 
	BYTE	W12
	BYTE		        Gs1 
	BYTE	W12
	BYTE	PEND
// 005   ----------------------------------------
	BYTE	PATT
	 POIN2	SovereignSong_5_004
// 006   ----------------------------------------
	BYTE	PATT
	 POIN2	SovereignSong_5_004
// 007   ----------------------------------------
	BYTE	PATT
	 POIN2	SovereignSong_5_004
// 008   ----------------------------------------
	BYTE	PATT
	 POIN2	SovereignSong_5_004
// 009   ----------------------------------------
	BYTE	PATT
	 POIN2	SovereignSong_5_004
// 010   ----------------------------------------
	BYTE	PATT
	 POIN2	SovereignSong_5_004
// 011   ----------------------------------------
	BYTE		N11     Cn1   v100
	BYTE	W12
	BYTE		        Gs1 
	BYTE	W12
	BYTE		        Fs2 
	BYTE	W12
	BYTE		        Gs1 
	BYTE	W12
	BYTE		N20     Cn1 
	BYTE	W24
	BYTE		        An2 
	BYTE	W24
// 012   ----------------------------------------
	BYTE	W96
// 013   ----------------------------------------
	BYTE	W96
// 014   ----------------------------------------
	BYTE	W96
// 015   ----------------------------------------
	BYTE	W96
// 016   ----------------------------------------
	BYTE	W96
// 017   ----------------------------------------
	BYTE	W72
	BYTE		N02     Fs2 
	BYTE	W03
	BYTE		N02   
	BYTE	W03
	BYTE		N02   
	BYTE	W03
	BYTE		N02   
	BYTE	W03
	BYTE		N02   
	BYTE	W03
	BYTE		N02   
	BYTE	W03
	BYTE		N02   
	BYTE	W03
	BYTE		N02   
	BYTE	W03
// 018   ----------------------------------------
	BYTE	PATT
	 POIN2	SovereignSong_5_004
// 019   ----------------------------------------
	BYTE	PATT
	 POIN2	SovereignSong_5_004
// 020   ----------------------------------------
	BYTE	PATT
	 POIN2	SovereignSong_5_004
// 021   ----------------------------------------
	BYTE		N11     Cn1   v100
	BYTE	W12
	BYTE		        Gs1 
	BYTE	W12
	BYTE		        Fs2 
	BYTE	W12
	BYTE		        Gs1 
	BYTE	W12
	BYTE		N42     An2 
	BYTE	W42
	BYTE	GoTo
	 POIN2	SovereignSong_5_B1
SovereignSong_5_B2:
	BYTE	FINE

//******************************************************//
	ALIGN 4

SovereignSong:
	BYTE	5	// NumTrks
	BYTE	0	// NumBlks
	BYTE	SovereignSong_pri	// Priority
	BYTE	SovereignSong_rev	// Reverb.

	POIN2	SovereignSong_grp

	POIN2	SovereignSong_1
	POIN2	SovereignSong_2
	POIN2	SovereignSong_3
	POIN2	SovereignSong_4
	POIN2	SovereignSong_5

	
