//Event file generated from Sappy .s format.
	#include "MPlayDef.event"

	#define	Eternity_grp  voicegroup000
	#define	Eternity_pri  0
	#define	Eternity_rev  176
	#define	Eternity_mvl  29
	#define	Eternity_key  0
	#define	Eternity_tbs  1
	#define	Eternity_exg  0
	#define	Eternity_cmp  1

	// .rodata
	//	Eternity
	ALIGN 4

//**************** Track 1 (Midi-Chn.2) ****************//

Eternity_1:
	BYTE	KEYSH   Eternity_key+0
Eternity_1_B1:
// 000   ----------------------------------------
	BYTE	TEMPO   95*Eternity_tbs/2
	BYTE		VOICE   95
	BYTE		MODT    0
	BYTE		LFOS    44
	BYTE		PAN     c_v+9
	BYTE		VOL     127*Eternity_mvl/mxv
	BYTE		N96     Cn3   v056
	BYTE		TIE     En3 
	BYTE		N96     An3 
	BYTE	W96
// 001   ----------------------------------------
	BYTE		        Gn3 
	BYTE		N96     Bn3 
	BYTE	W96
	BYTE		EOT     En3 
// 002   ----------------------------------------
Eternity_1_002:
	BYTE		N96     Cn3   v056
	BYTE		N96     Fn3 
	BYTE		N96     An3 
	BYTE	W96
	BYTE	PEND
// 003   ----------------------------------------
	BYTE		        Dn3 
	BYTE		N96     Gn3 
	BYTE	W96
// 004   ----------------------------------------
	BYTE		        Cn3 
	BYTE		TIE     En3 
	BYTE		N96     An3 
	BYTE	W96
// 005   ----------------------------------------
	BYTE		        Gn3 
	BYTE		N96     Bn3 
	BYTE	W96
	BYTE		EOT     En3 
// 006   ----------------------------------------
	BYTE	PATT
	 POIN2	Eternity_1_002
// 007   ----------------------------------------
	BYTE		N90     En3   v056
	BYTE		N90     Gs3 
	BYTE	W96
// 008   ----------------------------------------
	BYTE	W96
// 009   ----------------------------------------
	BYTE	W96
// 010   ----------------------------------------
	BYTE	W96
// 011   ----------------------------------------
	BYTE	W96
// 012   ----------------------------------------
	BYTE	W96
// 013   ----------------------------------------
	BYTE	W96
// 014   ----------------------------------------
	BYTE	W96
// 015   ----------------------------------------
	BYTE	W96
// 016   ----------------------------------------
	BYTE		N96     En3 
	BYTE		N96     An3 
	BYTE		N96     Cn4 
	BYTE	W96
// 017   ----------------------------------------
Eternity_1_017:
	BYTE		N96     Dn3   v056
	BYTE		N96     Gn3 
	BYTE		N96     Bn3 
	BYTE	W96
	BYTE	PEND
// 018   ----------------------------------------
Eternity_1_018:
	BYTE		TIE     Fn3   v056
	BYTE		TIE     An3 
	BYTE		N96     Cn4 
	BYTE	W96
	BYTE	PEND
// 019   ----------------------------------------
	BYTE		        Dn4 
	BYTE	W96
	BYTE		EOT     Fn3 
	BYTE		        An3 
// 020   ----------------------------------------
Eternity_1_020:
	BYTE		N96     En3   v056
	BYTE		N96     Gn3 
	BYTE		N96     Bn3 
	BYTE		N96     En4 
	BYTE	W96
	BYTE	PEND
// 021   ----------------------------------------
Eternity_1_021:
	BYTE		N90     Fs3   v056
	BYTE		N90     An3 
	BYTE		N48     Dn4 
	BYTE	W48
	BYTE		        Cn4 
	BYTE	W48
	BYTE	PEND
// 022   ----------------------------------------
Eternity_1_022:
	BYTE		N96     En3   v056
	BYTE		N96     Gn3 
	BYTE		TIE     Bn3 
	BYTE	W96
	BYTE	PEND
// 023   ----------------------------------------
	BYTE		N90     Dn3 
	BYTE		N90     Fn3 
	BYTE	W90
	BYTE		EOT     Bn3 
	BYTE	W06
// 024   ----------------------------------------
	BYTE		N11     En3 
	BYTE		N11     Gn3 
	BYTE		N11     Cn4 
	BYTE	W12
	BYTE		        En3 
	BYTE		N11     Gn3 
	BYTE		N11     Cn4 
	BYTE	W24
	BYTE		        En3 
	BYTE		N11     Gn3 
	BYTE		N11     Cn4 
	BYTE	W12
	BYTE		        En3 
	BYTE		N11     Gn3 
	BYTE		N11     Cn4 
	BYTE	W12
	BYTE		        En3 
	BYTE		N11     Gn3 
	BYTE		N11     Cn4 
	BYTE	W24
	BYTE		        En3 
	BYTE		N11     Gn3 
	BYTE		N11     Cn4 
	BYTE	W12
// 025   ----------------------------------------
	BYTE		        Dn3 
	BYTE		N11     Fs3 
	BYTE		N11     An3 
	BYTE		N11     Cn4 
	BYTE	W12
	BYTE		        Dn3 
	BYTE		N11     Fs3 
	BYTE		N11     An3 
	BYTE		N11     Cn4 
	BYTE	W24
	BYTE		        Dn3 
	BYTE		N11     Fs3 
	BYTE		N11     An3 
	BYTE		N11     Cn4 
	BYTE	W12
	BYTE		        Dn3 
	BYTE		N11     Fs3 
	BYTE		N11     An3 
	BYTE		N11     Cn4 
	BYTE	W12
	BYTE		        Dn3 
	BYTE		N11     Fs3 
	BYTE		N11     An3 
	BYTE		N11     Cn4 
	BYTE	W24
	BYTE		        Dn3 
	BYTE		N11     Fs3 
	BYTE		N11     An3 
	BYTE		N11     Cn4 
	BYTE	W12
// 026   ----------------------------------------
	BYTE		        Cn3 
	BYTE		N11     Fn3 
	BYTE		N11     An3 
	BYTE		N11     Cn4 
	BYTE	W12
	BYTE		        Cn3 
	BYTE		N11     Fn3 
	BYTE		N11     An3 
	BYTE		N11     Cn4 
	BYTE	W24
	BYTE		        Cn3 
	BYTE		N11     Fn3 
	BYTE		N11     An3 
	BYTE		N11     Cn4 
	BYTE	W12
	BYTE		        Cn3 
	BYTE		N11     Fn3 
	BYTE		N11     An3 
	BYTE		N11     Cn4 
	BYTE	W12
	BYTE		        Cn3 
	BYTE		N11     Fn3 
	BYTE		N11     An3 
	BYTE		N11     Cn4 
	BYTE	W24
	BYTE		        Cn3 
	BYTE		N11     Fn3 
	BYTE		N11     An3 
	BYTE		N11     Cn4 
	BYTE	W12
// 027   ----------------------------------------
	BYTE		        Dn3 
	BYTE		N11     Fn3 
	BYTE		N11     An3 
	BYTE		N11     Dn4 
	BYTE	W12
	BYTE		        Dn3 
	BYTE		N11     Fn3 
	BYTE		N11     An3 
	BYTE		N11     Dn4 
	BYTE	W24
	BYTE		        Dn3 
	BYTE		N11     Fn3 
	BYTE		N11     An3 
	BYTE		N11     Dn4 
	BYTE	W12
	BYTE		        Dn3 
	BYTE		N11     Fn3 
	BYTE		N11     An3 
	BYTE		N11     Dn4 
	BYTE	W12
	BYTE		        Dn3 
	BYTE		N11     Fn3 
	BYTE		N11     An3 
	BYTE		N11     Dn4 
	BYTE	W24
	BYTE		        Dn3 
	BYTE		N11     Fn3 
	BYTE		N11     An3 
	BYTE		N11     Dn4 
	BYTE	W12
// 028   ----------------------------------------
	BYTE		        Dn3 
	BYTE		N11     Gn3 
	BYTE		N11     As3 
	BYTE		N11     Dn4 
	BYTE	W12
	BYTE		        Dn3 
	BYTE		N11     Gn3 
	BYTE		N11     As3 
	BYTE		N11     Dn4 
	BYTE	W24
	BYTE		        Dn3 
	BYTE		N11     Gn3 
	BYTE		N11     As3 
	BYTE		N11     Dn4 
	BYTE	W12
	BYTE		        Dn3 
	BYTE		N11     Gn3 
	BYTE		N11     As3 
	BYTE		N11     Dn4 
	BYTE	W12
	BYTE		        Dn3 
	BYTE		N11     Gn3 
	BYTE		N11     As3 
	BYTE		N11     Dn4 
	BYTE	W24
	BYTE		        Dn3 
	BYTE		N11     Gn3 
	BYTE		N11     As3 
	BYTE		N11     Dn4 
	BYTE	W12
// 029   ----------------------------------------
	BYTE		        Ds3 
	BYTE		N11     Gn3 
	BYTE		N11     Cn4 
	BYTE		N11     Ds4 
	BYTE	W12
	BYTE		        Ds3 
	BYTE		N11     Gn3 
	BYTE		N11     Cn4 
	BYTE		N11     Ds4 
	BYTE	W24
	BYTE		        Ds3 
	BYTE		N11     Gn3 
	BYTE		N11     Cn4 
	BYTE		N11     Ds4 
	BYTE	W12
	BYTE		        Ds3 
	BYTE		N11     Gn3 
	BYTE		N11     Cn4 
	BYTE		N11     Ds4 
	BYTE	W12
	BYTE		        Ds3 
	BYTE		N11     Gn3 
	BYTE		N11     Cn4 
	BYTE		N11     Ds4 
	BYTE	W24
	BYTE		        Ds3 
	BYTE		N11     Gn3 
	BYTE		N11     Cn4 
	BYTE		N11     Ds4 
	BYTE	W12
// 030   ----------------------------------------
	BYTE		        Fn3 
	BYTE		N11     Gs3 
	BYTE		N11     Cn4 
	BYTE		N11     Fn4 
	BYTE	W12
	BYTE		        Fn3 
	BYTE		N11     Gs3 
	BYTE		N11     Cn4 
	BYTE		N11     Fn4 
	BYTE	W24
	BYTE		        Fn3 
	BYTE		N11     Gs3 
	BYTE		N11     Cn4 
	BYTE		N11     Fn4 
	BYTE	W12
	BYTE		        Fn3 
	BYTE		N11     Gs3 
	BYTE		N11     Cn4 
	BYTE		N11     Fn4 
	BYTE	W12
	BYTE		        Fn3 
	BYTE		N11     Gs3 
	BYTE		N11     Cn4 
	BYTE		N11     Fn4 
	BYTE	W24
	BYTE		        Fn3 
	BYTE		N11     Gs3 
	BYTE		N11     Cn4 
	BYTE		N11     Fn4 
	BYTE	W12
// 031   ----------------------------------------
	BYTE		N90     Gn3 
	BYTE		N90     Bn3 
	BYTE		N90     Dn4 
	BYTE		N90     Gn4 
	BYTE	W48
	BYTE		N42     Fn3 
	BYTE	W48
// 032   ----------------------------------------
	BYTE		N96     En3 
	BYTE		N96     An3 
	BYTE		N96     Cn4 
	BYTE	W96
// 033   ----------------------------------------
	BYTE	PATT
	 POIN2	Eternity_1_017
// 034   ----------------------------------------
	BYTE	PATT
	 POIN2	Eternity_1_018
// 035   ----------------------------------------
	BYTE		N96     Dn4   v056
	BYTE	W96
	BYTE		EOT     Fn3 
	BYTE		        An3 
// 036   ----------------------------------------
	BYTE	PATT
	 POIN2	Eternity_1_020
// 037   ----------------------------------------
	BYTE	PATT
	 POIN2	Eternity_1_021
// 038   ----------------------------------------
	BYTE	PATT
	 POIN2	Eternity_1_022
// 039   ----------------------------------------
	BYTE		N90     Dn3   v056
	BYTE		N90     Fn3 
	BYTE	W90
	BYTE		EOT     Bn3 
	BYTE	W06
// 040   ----------------------------------------
	BYTE	W20
	BYTE	GoTo
	 POIN2	Eternity_1_B1
Eternity_1_B2:
	BYTE	FINE

//**************** Track 2 (Midi-Chn.3) ****************//

Eternity_2:
	BYTE	KEYSH   Eternity_key+0
Eternity_2_B1:
// 000   ----------------------------------------
	BYTE		VOICE   60
	BYTE		MODT    0
	BYTE		LFOS    44
	BYTE		PAN     c_v+18
	BYTE		VOL     127*Eternity_mvl/mxv
	BYTE		N48     An2   v127
	BYTE	W48
	BYTE		        En3 
	BYTE	W48
// 001   ----------------------------------------
Eternity_2_001:
	BYTE		N48     Bn2   v127
	BYTE	W48
	BYTE		N16     Gn2 
	BYTE	W16
	BYTE		        Fn2 
	BYTE	W16
	BYTE		        En2 
	BYTE	W16
	BYTE	PEND
// 002   ----------------------------------------
Eternity_2_002:
	BYTE		N48     An2   v127
	BYTE	W48
	BYTE		        Cn3 
	BYTE	W48
	BYTE	PEND
// 003   ----------------------------------------
	BYTE		N24     Bn2 
	BYTE	W24
	BYTE		        Cn3 
	BYTE	W24
	BYTE		N42     Dn3 
	BYTE	W48
// 004   ----------------------------------------
	BYTE		N48     An2 
	BYTE	W48
	BYTE		        En3 
	BYTE	W48
// 005   ----------------------------------------
	BYTE	PATT
	 POIN2	Eternity_2_001
// 006   ----------------------------------------
	BYTE	PATT
	 POIN2	Eternity_2_002
// 007   ----------------------------------------
	BYTE		N90     Bn2   v127
	BYTE	W96
// 008   ----------------------------------------
	BYTE	W96
// 009   ----------------------------------------
	BYTE	W96
// 010   ----------------------------------------
	BYTE	W96
// 011   ----------------------------------------
	BYTE	W96
// 012   ----------------------------------------
	BYTE	W96
// 013   ----------------------------------------
	BYTE	W96
// 014   ----------------------------------------
	BYTE	W96
// 015   ----------------------------------------
	BYTE	W96
// 016   ----------------------------------------
	BYTE		N72     Cn3 
	BYTE	W72
	BYTE		N24     En3 
	BYTE	W24
// 017   ----------------------------------------
Eternity_2_017:
	BYTE		N48     Bn2   v127
	BYTE	W48
	BYTE		N24     Cn3 
	BYTE	W24
	BYTE		        Dn3 
	BYTE	W24
	BYTE	PEND
// 018   ----------------------------------------
	BYTE		N72     Cn3 
	BYTE	W72
	BYTE		N24     An2 
	BYTE	W24
// 019   ----------------------------------------
	BYTE		        Fn2 
	BYTE	W24
	BYTE		        Gn2 
	BYTE	W24
	BYTE		        An2 
	BYTE	W24
	BYTE		        Cn3 
	BYTE	W24
// 020   ----------------------------------------
	BYTE		N72     Bn2 
	BYTE	W72
	BYTE		N24     An2 
	BYTE	W24
// 021   ----------------------------------------
	BYTE		N48     Gn2 
	BYTE	W48
	BYTE		        Fs2 
	BYTE	W48
// 022   ----------------------------------------
	BYTE		N24     En2 
	BYTE	W24
	BYTE		        Dn2 
	BYTE	W24
	BYTE		        En2 
	BYTE	W24
	BYTE		        Gn2 
	BYTE	W24
// 023   ----------------------------------------
	BYTE		        Fn2 
	BYTE	W24
	BYTE		        Gn2 
	BYTE	W24
	BYTE		        An2 
	BYTE	W24
	BYTE		N20     Bn2 
	BYTE	W24
// 024   ----------------------------------------
	BYTE		N36     Cn3 
	BYTE	W36
	BYTE		N12     Dn3 
	BYTE	W12
	BYTE		N24     En3 
	BYTE	W24
	BYTE		        Gn3 
	BYTE	W24
// 025   ----------------------------------------
	BYTE		N12     Fs3 
	BYTE	W12
	BYTE		        Dn3 
	BYTE	W12
	BYTE		        Fs3 
	BYTE	W12
	BYTE		        Gn3 
	BYTE	W12
	BYTE		N24     Fs3 
	BYTE	W24
	BYTE		N12     Dn3 
	BYTE	W12
	BYTE		        En3 
	BYTE	W12
// 026   ----------------------------------------
	BYTE		N36     Fn3 
	BYTE	W36
	BYTE		N12     Cn3 
	BYTE	W12
	BYTE		        Fn3 
	BYTE	W12
	BYTE		        Gn3 
	BYTE	W12
	BYTE		        An3 
	BYTE	W12
	BYTE		        Cn4 
	BYTE	W12
// 027   ----------------------------------------
	BYTE		        Dn4 
	BYTE	W12
	BYTE		        An3 
	BYTE	W12
	BYTE		        Dn4 
	BYTE	W12
	BYTE		        En4 
	BYTE	W12
	BYTE		N42     Dn4 
	BYTE	W48
// 028   ----------------------------------------
	BYTE		N36     Gn3 
	BYTE	W36
	BYTE		N12     An3 
	BYTE	W12
	BYTE		        As3 
	BYTE	W12
	BYTE		        An3 
	BYTE	W12
	BYTE		        Gn3 
	BYTE	W12
	BYTE		        Dn3 
	BYTE	W12
// 029   ----------------------------------------
	BYTE		        Gn3 
	BYTE	W12
	BYTE		        Fn3 
	BYTE	W12
	BYTE		        Ds3 
	BYTE	W12
	BYTE		        Fn3 
	BYTE	W12
	BYTE		N24     Gn3 
	BYTE	W24
	BYTE		        As3 
	BYTE	W24
// 030   ----------------------------------------
	BYTE		N12     Gs3 
	BYTE	W12
	BYTE		        Gn3 
	BYTE	W12
	BYTE		        Gs3 
	BYTE	W12
	BYTE		        As3 
	BYTE	W12
	BYTE		N24     Cn4 
	BYTE	W24
	BYTE		        Ds4 
	BYTE	W24
// 031   ----------------------------------------
	BYTE		N12     Dn4 
	BYTE	W12
	BYTE		        Cn4 
	BYTE	W12
	BYTE		        Bn3 
	BYTE	W12
	BYTE		        An3 
	BYTE	W12
	BYTE		N44     Gn3 
	BYTE	W24
	BYTE		N20     Fn3 
	BYTE	W24
// 032   ----------------------------------------
	BYTE		N24     Cn3 
	BYTE	W24
	BYTE		        Bn2 
	BYTE	W24
	BYTE		        An2 
	BYTE	W24
	BYTE		        Gn2 
	BYTE	W24
// 033   ----------------------------------------
	BYTE	PATT
	 POIN2	Eternity_2_017
// 034   ----------------------------------------
	BYTE		N48     Cn3   v127
	BYTE	W48
	BYTE		        An2 
	BYTE	W48
// 035   ----------------------------------------
	BYTE		N24     Fn2 
	BYTE	W24
	BYTE		        Gn2 
	BYTE	W24
	BYTE		        An2 
	BYTE	W24
	BYTE		        Fn2 
	BYTE	W24
// 036   ----------------------------------------
	BYTE		N48     En2 
	BYTE	W48
	BYTE		        Gn2 
	BYTE	W48
// 037   ----------------------------------------
	BYTE		N24     Fs2 
	BYTE	W24
	BYTE		        Gn2 
	BYTE	W24
	BYTE		        An2 
	BYTE	W24
	BYTE		        Cn3 
	BYTE	W24
// 038   ----------------------------------------
	BYTE		N48     Bn2 
	BYTE	W48
	BYTE		        Cn3 
	BYTE	W48
// 039   ----------------------------------------
	BYTE		N90     Dn3 
	BYTE	W96
// 040   ----------------------------------------
	BYTE	W20
	BYTE	GoTo
	 POIN2	Eternity_2_B1
Eternity_2_B2:
	BYTE	FINE

//**************** Track 3 (Midi-Chn.4) ****************//

Eternity_3:
	BYTE	KEYSH   Eternity_key+0
Eternity_3_B1:
// 000   ----------------------------------------
	BYTE		VOICE   48
	BYTE		MODT    0
	BYTE		LFOS    44
	BYTE		PAN     c_v-11
	BYTE		VOL     127*Eternity_mvl/mxv
	BYTE		N96     An1   v127
	BYTE	W96
// 001   ----------------------------------------
	BYTE		        Gn1 
	BYTE	W96
// 002   ----------------------------------------
	BYTE		        Fn1 
	BYTE	W96
// 003   ----------------------------------------
	BYTE		N90     Gn1 
	BYTE	W96
// 004   ----------------------------------------
	BYTE		N96     An1 
	BYTE	W96
// 005   ----------------------------------------
	BYTE		        Gn1 
	BYTE	W96
// 006   ----------------------------------------
	BYTE		        Fn1 
	BYTE	W96
// 007   ----------------------------------------
	BYTE		N90     En1 
	BYTE	W96
// 008   ----------------------------------------
	BYTE	W96
// 009   ----------------------------------------
	BYTE	W96
// 010   ----------------------------------------
	BYTE	W96
// 011   ----------------------------------------
	BYTE	W96
// 012   ----------------------------------------
	BYTE	W96
// 013   ----------------------------------------
	BYTE	W96
// 014   ----------------------------------------
	BYTE	W96
// 015   ----------------------------------------
	BYTE	W96
// 016   ----------------------------------------
	BYTE		N96     An1 
	BYTE	W96
// 017   ----------------------------------------
	BYTE		        Gn1 
	BYTE	W96
// 018   ----------------------------------------
	BYTE		TIE     Fn1 
	BYTE	W96
// 019   ----------------------------------------
	BYTE	W96
	BYTE		EOT   
// 020   ----------------------------------------
	BYTE		N96     En1 
	BYTE	W96
// 021   ----------------------------------------
	BYTE		        Fs1 
	BYTE	W96
// 022   ----------------------------------------
	BYTE		TIE     Gn1 
	BYTE	W96
// 023   ----------------------------------------
	BYTE	W90
	BYTE		EOT   
	BYTE	W06
// 024   ----------------------------------------
	BYTE		TIE     Cn1 
	BYTE	W96
// 025   ----------------------------------------
	BYTE	W96
// 026   ----------------------------------------
	BYTE	W90
	BYTE		EOT   
	BYTE	W06
// 027   ----------------------------------------
	BYTE		TIE     Dn1 
	BYTE	W96
// 028   ----------------------------------------
	BYTE	W90
	BYTE		EOT   
	BYTE	W06
// 029   ----------------------------------------
	BYTE		N90     Ds1 
	BYTE	W96
// 030   ----------------------------------------
	BYTE		        Fn1 
	BYTE	W96
// 031   ----------------------------------------
	BYTE		        Gn1 
	BYTE	W96
// 032   ----------------------------------------
	BYTE		N96     An1 
	BYTE	W96
// 033   ----------------------------------------
	BYTE		        Gn1 
	BYTE	W96
// 034   ----------------------------------------
	BYTE		TIE     Fn1 
	BYTE	W96
// 035   ----------------------------------------
	BYTE	W96
	BYTE		EOT   
// 036   ----------------------------------------
	BYTE		N96     En1 
	BYTE	W96
// 037   ----------------------------------------
	BYTE		        Fs1 
	BYTE	W96
// 038   ----------------------------------------
	BYTE		TIE     Gn1 
	BYTE	W96
// 039   ----------------------------------------
	BYTE	W90
	BYTE		EOT   
	BYTE	W06
// 040   ----------------------------------------
	BYTE	W20
	BYTE	GoTo
	 POIN2	Eternity_3_B1
Eternity_3_B2:
	BYTE	FINE

//**************** Track 4 (Midi-Chn.5) ****************//

Eternity_4:
	BYTE	KEYSH   Eternity_key+0
Eternity_4_B1:
// 000   ----------------------------------------
	BYTE		VOICE   0
	BYTE		MODT    0
	BYTE		LFOS    44
	BYTE		PAN     c_v+11
	BYTE		VOL     127*Eternity_mvl/mxv
	BYTE	W96
// 001   ----------------------------------------
	BYTE	W96
// 002   ----------------------------------------
	BYTE	W96
// 003   ----------------------------------------
	BYTE	W96
// 004   ----------------------------------------
	BYTE	W96
// 005   ----------------------------------------
	BYTE	W96
// 006   ----------------------------------------
	BYTE	W96
// 007   ----------------------------------------
	BYTE	W96
// 008   ----------------------------------------
Eternity_4_008:
	BYTE		N28     An3   v127
	BYTE	W30
	BYTE		N05     Dn4 
	BYTE	W06
	BYTE		        En4 
	BYTE	W06
	BYTE		        Fn4 
	BYTE	W06
	BYTE		        En4 
	BYTE	W06
	BYTE		        Fn4 
	BYTE	W06
	BYTE		N17     En4 
	BYTE	W18
	BYTE		N05     Dn4 
	BYTE	W06
	BYTE		        En4 
	BYTE	W06
	BYTE		        Fn4 
	BYTE	W06
	BYTE	PEND
// 009   ----------------------------------------
Eternity_4_009:
	BYTE		N07     Gn4   v127
	BYTE	W08
	BYTE		N07   
	BYTE	W08
	BYTE		        Dn4 
	BYTE	W08
	BYTE		        Fn4 
	BYTE	W08
	BYTE		N07   
	BYTE	W08
	BYTE		        Dn4 
	BYTE	W08
	BYTE		N11     En4 
	BYTE	W12
	BYTE		        Dn4 
	BYTE	W12
	BYTE		        Cn4 
	BYTE	W12
	BYTE		        Bn3 
	BYTE	W12
	BYTE	PEND
// 010   ----------------------------------------
Eternity_4_010:
	BYTE		N20     An3   v127
	BYTE	W24
	BYTE		N05   
	BYTE	W06
	BYTE		        Bn3 
	BYTE	W06
	BYTE		        Cn4 
	BYTE	W06
	BYTE		        An3 
	BYTE	W06
	BYTE		        Fn4 
	BYTE	W06
	BYTE		        Cn4 
	BYTE	W06
	BYTE		N17     Fn4 
	BYTE	W18
	BYTE		N05     An4 
	BYTE	W06
	BYTE		        Gn4 
	BYTE	W06
	BYTE		        Fn4 
	BYTE	W06
	BYTE	PEND
// 011   ----------------------------------------
Eternity_4_011:
	BYTE		N05     Dn4   v127
	BYTE	W06
	BYTE		        En4 
	BYTE	W06
	BYTE		        Fn4 
	BYTE	W06
	BYTE		        En4 
	BYTE	W06
	BYTE		N11     Dn4 
	BYTE	W12
	BYTE		        An3 
	BYTE	W12
	BYTE		N42     Dn4 
	BYTE	W48
	BYTE	PEND
// 012   ----------------------------------------
Eternity_4_012:
	BYTE		N28     En4   v127
	BYTE	W30
	BYTE		N05     Fs4 
	BYTE	W06
	BYTE		        Gn4 
	BYTE	W06
	BYTE		        An4 
	BYTE	W06
	BYTE		        Bn4 
	BYTE	W06
	BYTE		        Cn5 
	BYTE	W06
	BYTE		N17     Bn4 
	BYTE	W18
	BYTE		N05     An4 
	BYTE	W06
	BYTE		        Gn4 
	BYTE	W06
	BYTE		        Fs4 
	BYTE	W06
	BYTE	PEND
// 013   ----------------------------------------
Eternity_4_013:
	BYTE		N11     En4   v127
	BYTE	W12
	BYTE		N05     Fs4 
	BYTE	W06
	BYTE		        En4 
	BYTE	W06
	BYTE		N11     Dn4 
	BYTE	W12
	BYTE		N05     En4 
	BYTE	W06
	BYTE		        Dn4 
	BYTE	W06
	BYTE		N11     Cn4 
	BYTE	W12
	BYTE		N05     Dn4 
	BYTE	W06
	BYTE		        Fs4 
	BYTE	W06
	BYTE		N11     An4 
	BYTE	W12
	BYTE		        Fs4 
	BYTE	W12
	BYTE	PEND
// 014   ----------------------------------------
Eternity_4_014:
	BYTE		N11     En4   v127
	BYTE	W12
	BYTE		        Fs4 
	BYTE	W12
	BYTE		        Gn4 
	BYTE	W12
	BYTE		        En4 
	BYTE	W12
	BYTE		        Bn3 
	BYTE	W12
	BYTE		        Cn4 
	BYTE	W12
	BYTE		        Dn4 
	BYTE	W12
	BYTE		        Bn3 
	BYTE	W12
	BYTE	PEND
// 015   ----------------------------------------
Eternity_4_015:
	BYTE		N11     Gn3   v127
	BYTE	W12
	BYTE		        An3 
	BYTE	W12
	BYTE		        Bn3 
	BYTE	W12
	BYTE		        Cn4 
	BYTE	W12
	BYTE		N42     Dn4 
	BYTE	W48
	BYTE	PEND
// 016   ----------------------------------------
	BYTE	PATT
	 POIN2	Eternity_4_008
// 017   ----------------------------------------
	BYTE	PATT
	 POIN2	Eternity_4_009
// 018   ----------------------------------------
	BYTE	PATT
	 POIN2	Eternity_4_010
// 019   ----------------------------------------
	BYTE	PATT
	 POIN2	Eternity_4_011
// 020   ----------------------------------------
	BYTE	PATT
	 POIN2	Eternity_4_012
// 021   ----------------------------------------
	BYTE	PATT
	 POIN2	Eternity_4_013
// 022   ----------------------------------------
	BYTE	PATT
	 POIN2	Eternity_4_014
// 023   ----------------------------------------
	BYTE	PATT
	 POIN2	Eternity_4_015
// 024   ----------------------------------------
	BYTE		N24     En3   v127
	BYTE		N24     Gn3 
	BYTE		N24     Cn4 
	BYTE	W24
	BYTE		        En3 
	BYTE		N24     Gn3 
	BYTE		N24     Cn4 
	BYTE	W24
	BYTE		        En3 
	BYTE		N24     Gn3 
	BYTE		N24     Cn4 
	BYTE	W24
	BYTE		        En3 
	BYTE		N24     Gn3 
	BYTE		N24     Cn4 
	BYTE	W24
// 025   ----------------------------------------
	BYTE		        Dn3 
	BYTE		N24     Fs3 
	BYTE		N24     An3 
	BYTE		N24     Cn4 
	BYTE	W24
	BYTE		        Dn3 
	BYTE		N24     Fs3 
	BYTE		N24     An3 
	BYTE		N24     Cn4 
	BYTE	W24
	BYTE		        Dn3 
	BYTE		N24     Fs3 
	BYTE		N24     An3 
	BYTE		N24     Cn4 
	BYTE	W24
	BYTE		        Dn3 
	BYTE		N24     Fs3 
	BYTE		N24     An3 
	BYTE		N24     Cn4 
	BYTE	W24
// 026   ----------------------------------------
	BYTE		        Cn3 
	BYTE		N24     Fn3 
	BYTE		N24     An3 
	BYTE		N24     Cn4 
	BYTE	W24
	BYTE		        Cn3 
	BYTE		N24     Fn3 
	BYTE		N24     An3 
	BYTE		N24     Cn4 
	BYTE	W24
	BYTE		        Cn3 
	BYTE		N24     Fn3 
	BYTE		N24     An3 
	BYTE		N24     Cn4 
	BYTE	W24
	BYTE		        Cn3 
	BYTE		N24     Fn3 
	BYTE		N24     An3 
	BYTE		N24     Cn4 
	BYTE	W24
// 027   ----------------------------------------
	BYTE		        Dn3 
	BYTE		N24     Fn3 
	BYTE		N24     An3 
	BYTE		N24     Dn4 
	BYTE	W24
	BYTE		        Dn3 
	BYTE		N24     Fn3 
	BYTE		N24     An3 
	BYTE		N24     Dn4 
	BYTE	W24
	BYTE		        Dn3 
	BYTE		N24     Fn3 
	BYTE		N24     An3 
	BYTE		N24     Dn4 
	BYTE	W24
	BYTE		        Dn3 
	BYTE		N24     Fn3 
	BYTE		N24     An3 
	BYTE		N24     Dn4 
	BYTE	W24
// 028   ----------------------------------------
	BYTE		        Dn3 
	BYTE		N24     Gn3 
	BYTE		N24     As3 
	BYTE		N24     Dn4 
	BYTE	W24
	BYTE		        Dn3 
	BYTE		N24     Gn3 
	BYTE		N24     As3 
	BYTE		N24     Dn4 
	BYTE	W24
	BYTE		        Dn3 
	BYTE		N24     Gn3 
	BYTE		N24     As3 
	BYTE		N24     Dn4 
	BYTE	W24
	BYTE		        Dn3 
	BYTE		N24     Gn3 
	BYTE		N24     As3 
	BYTE		N24     Dn4 
	BYTE	W24
// 029   ----------------------------------------
	BYTE		        Ds3 
	BYTE		N24     Gn3 
	BYTE		N24     Cn4 
	BYTE		N24     Ds4 
	BYTE	W24
	BYTE		        Ds3 
	BYTE		N24     Gn3 
	BYTE		N24     Cn4 
	BYTE		N24     Ds4 
	BYTE	W24
	BYTE		        Ds3 
	BYTE		N24     Gn3 
	BYTE		N24     Cn4 
	BYTE		N24     Ds4 
	BYTE	W24
	BYTE		        Ds3 
	BYTE		N24     Gn3 
	BYTE		N24     Cn4 
	BYTE		N24     Ds4 
	BYTE	W24
// 030   ----------------------------------------
	BYTE		        Fn3 
	BYTE		N24     Gs3 
	BYTE		N24     Cn4 
	BYTE		N24     Fn4 
	BYTE	W24
	BYTE		        Fn3 
	BYTE		N24     Gs3 
	BYTE		N24     Cn4 
	BYTE		N24     Fn4 
	BYTE	W24
	BYTE		        Fn3 
	BYTE		N24     Gs3 
	BYTE		N24     Cn4 
	BYTE		N24     Fn4 
	BYTE	W24
	BYTE		        Fn3 
	BYTE		N24     Gs3 
	BYTE		N24     Cn4 
	BYTE		N24     Fn4 
	BYTE	W24
// 031   ----------------------------------------
	BYTE		N90     Dn3 
	BYTE		N90     Gn3 
	BYTE		N90     Bn3 
	BYTE		N12     Gn4 
	BYTE	W12
	BYTE		        Dn4 
	BYTE	W12
	BYTE		        Gn4 
	BYTE	W12
	BYTE		        An4 
	BYTE	W12
	BYTE		N42     Gn4 
	BYTE	W48
// 032   ----------------------------------------
	BYTE	PATT
	 POIN2	Eternity_4_008
// 033   ----------------------------------------
	BYTE	PATT
	 POIN2	Eternity_4_009
// 034   ----------------------------------------
	BYTE	PATT
	 POIN2	Eternity_4_010
// 035   ----------------------------------------
	BYTE	PATT
	 POIN2	Eternity_4_011
// 036   ----------------------------------------
	BYTE	PATT
	 POIN2	Eternity_4_012
// 037   ----------------------------------------
	BYTE	PATT
	 POIN2	Eternity_4_013
// 038   ----------------------------------------
	BYTE	PATT
	 POIN2	Eternity_4_014
// 039   ----------------------------------------
	BYTE	PATT
	 POIN2	Eternity_4_015
// 040   ----------------------------------------
	BYTE	W20
	BYTE	GoTo
	 POIN2	Eternity_4_B1
Eternity_4_B2:
	BYTE	FINE

//**************** Track 5 (Midi-Chn.6) ****************//

Eternity_5:
	BYTE	KEYSH   Eternity_key+0
Eternity_5_B1:
// 000   ----------------------------------------
	BYTE		VOICE   122
	BYTE		MODT    0
	BYTE		LFOS    44
	BYTE		VOL     127*Eternity_mvl/mxv
	BYTE		PAN     c_v+0
	BYTE		N11     Cn1   v127
	BYTE		N11     Fs1 
	BYTE		N11     An2 
	BYTE	W12
	BYTE		        Gs1 
	BYTE	W12
	BYTE		N11   
	BYTE	W12
	BYTE		        Cn1 
	BYTE		N11     Fs1 
	BYTE	W12
	BYTE		        En1 
	BYTE		N11     Gs1 
	BYTE	W12
	BYTE		N11   
	BYTE	W12
	BYTE		        Cn1 
	BYTE		N11     Fs1 
	BYTE	W12
	BYTE		        As1 
	BYTE	W12
// 001   ----------------------------------------
Eternity_5_001:
	BYTE		N11     Cn1   v127
	BYTE		N11     Fs1 
	BYTE	W12
	BYTE		        Gs1 
	BYTE	W12
	BYTE		N11   
	BYTE	W12
	BYTE		        Cn1 
	BYTE		N11     Fs1 
	BYTE	W12
	BYTE		        En1 
	BYTE		N11     Gs1 
	BYTE	W12
	BYTE		N11   
	BYTE	W12
	BYTE		        Cn1 
	BYTE		N11     Fs1 
	BYTE	W12
	BYTE		        As1 
	BYTE	W12
	BYTE	PEND
// 002   ----------------------------------------
	BYTE	PATT
	 POIN2	Eternity_5_001
// 003   ----------------------------------------
	BYTE	PATT
	 POIN2	Eternity_5_001
// 004   ----------------------------------------
	BYTE	PATT
	 POIN2	Eternity_5_001
// 005   ----------------------------------------
	BYTE	PATT
	 POIN2	Eternity_5_001
// 006   ----------------------------------------
	BYTE	PATT
	 POIN2	Eternity_5_001
// 007   ----------------------------------------
Eternity_5_007:
	BYTE		N11     Cn1   v127
	BYTE		N11     Fs1 
	BYTE	W12
	BYTE		        Gs1 
	BYTE	W12
	BYTE		N11   
	BYTE	W12
	BYTE		        Cn1 
	BYTE		N11     Fs1 
	BYTE	W12
	BYTE		        En1 
	BYTE		N11     Gs1 
	BYTE	W12
	BYTE		N11   
	BYTE	W12
	BYTE		        Cn1 
	BYTE		N11     En1 
	BYTE		N11     Fs1 
	BYTE	W12
	BYTE		N05     En1 
	BYTE		N05     As1 
	BYTE	W06
	BYTE		        En1 
	BYTE	W06
	BYTE	PEND
// 008   ----------------------------------------
	BYTE		N11     Cn1 
	BYTE		N11     Fs1 
	BYTE		N11     An2 
	BYTE	W12
	BYTE		        Gs1 
	BYTE	W12
	BYTE		        Cs1 
	BYTE		N11     As1 
	BYTE	W12
	BYTE		        Cn1 
	BYTE		N11     Gs1 
	BYTE	W12
	BYTE		        Cn1 
	BYTE		N11     Fs1 
	BYTE	W12
	BYTE		        Gs1 
	BYTE	W12
	BYTE		        Cs1 
	BYTE		N11     As1 
	BYTE	W12
	BYTE		        Gs1 
	BYTE	W12
// 009   ----------------------------------------
Eternity_5_009:
	BYTE		N11     Cn1   v127
	BYTE		N11     Fs1 
	BYTE	W12
	BYTE		        Gs1 
	BYTE	W12
	BYTE		        Cs1 
	BYTE		N11     As1 
	BYTE	W12
	BYTE		        Cn1 
	BYTE		N11     Gs1 
	BYTE	W12
	BYTE		        Cn1 
	BYTE		N11     Fs1 
	BYTE	W12
	BYTE		        Gs1 
	BYTE	W12
	BYTE		        Cs1 
	BYTE		N11     As1 
	BYTE	W12
	BYTE		        Gs1 
	BYTE	W12
	BYTE	PEND
// 010   ----------------------------------------
	BYTE	PATT
	 POIN2	Eternity_5_009
// 011   ----------------------------------------
	BYTE	PATT
	 POIN2	Eternity_5_009
// 012   ----------------------------------------
	BYTE	PATT
	 POIN2	Eternity_5_009
// 013   ----------------------------------------
	BYTE	PATT
	 POIN2	Eternity_5_009
// 014   ----------------------------------------
	BYTE	PATT
	 POIN2	Eternity_5_009
// 015   ----------------------------------------
	BYTE		N11     Cn1   v127
	BYTE		N11     Fs1 
	BYTE	W12
	BYTE		        Gs1 
	BYTE	W12
	BYTE		        Cs1 
	BYTE		N11     As1 
	BYTE	W12
	BYTE		        Cn1 
	BYTE		N11     Gs1 
	BYTE	W12
	BYTE		        Cn1 
	BYTE		N11     Fs1 
	BYTE	W12
	BYTE		        Gs1 
	BYTE	W12
	BYTE		        Cs1 
	BYTE		N11     En1 
	BYTE		N11     As1 
	BYTE	W12
	BYTE		N05     En1 
	BYTE		N05     Gs1 
	BYTE	W06
	BYTE		        En1 
	BYTE	W06
// 016   ----------------------------------------
Eternity_5_016:
	BYTE		N11     Cn1   v127
	BYTE		N11     Fs1 
	BYTE		N11     An2 
	BYTE	W12
	BYTE		        Gs1 
	BYTE	W12
	BYTE		        Cs1 
	BYTE		N11     En1 
	BYTE		N11     As1 
	BYTE	W12
	BYTE		        Cn1 
	BYTE		N11     Gs1 
	BYTE	W12
	BYTE		        Cn1 
	BYTE		N11     Fs1 
	BYTE	W12
	BYTE		        Gs1 
	BYTE	W12
	BYTE		        Cs1 
	BYTE		N11     En1 
	BYTE		N11     As1 
	BYTE	W12
	BYTE		        Gs1 
	BYTE	W12
	BYTE	PEND
// 017   ----------------------------------------
Eternity_5_017:
	BYTE		N11     Cn1   v127
	BYTE		N11     Fs1 
	BYTE	W12
	BYTE		        Gs1 
	BYTE	W12
	BYTE		        Cs1 
	BYTE		N11     En1 
	BYTE		N11     As1 
	BYTE	W12
	BYTE		        Cn1 
	BYTE		N11     Gs1 
	BYTE	W12
	BYTE		        Cn1 
	BYTE		N11     Fs1 
	BYTE	W12
	BYTE		        Gs1 
	BYTE	W12
	BYTE		        Cs1 
	BYTE		N11     En1 
	BYTE		N11     As1 
	BYTE	W12
	BYTE		        Gs1 
	BYTE	W12
	BYTE	PEND
// 018   ----------------------------------------
	BYTE	PATT
	 POIN2	Eternity_5_017
// 019   ----------------------------------------
	BYTE	PATT
	 POIN2	Eternity_5_017
// 020   ----------------------------------------
	BYTE	PATT
	 POIN2	Eternity_5_017
// 021   ----------------------------------------
	BYTE	PATT
	 POIN2	Eternity_5_017
// 022   ----------------------------------------
	BYTE	PATT
	 POIN2	Eternity_5_017
// 023   ----------------------------------------
Eternity_5_023:
	BYTE		N11     Cn1   v127
	BYTE		N11     Fs1 
	BYTE	W12
	BYTE		        Gs1 
	BYTE	W12
	BYTE		        Cs1 
	BYTE		N11     En1 
	BYTE		N11     As1 
	BYTE	W12
	BYTE		        Cn1 
	BYTE		N11     Gs1 
	BYTE	W12
	BYTE		        Cn1 
	BYTE		N11     Fs1 
	BYTE	W12
	BYTE		        Gs1 
	BYTE	W12
	BYTE		        Cs1 
	BYTE		N11     En1 
	BYTE		N11     As1 
	BYTE	W12
	BYTE		N05     En1 
	BYTE		N05     Gs1 
	BYTE	W06
	BYTE		        En1 
	BYTE	W06
	BYTE	PEND
// 024   ----------------------------------------
	BYTE		N11     Cn1 
	BYTE		N11     Fs1 
	BYTE		N11     An2 
	BYTE	W12
	BYTE		        Gs1 
	BYTE	W12
	BYTE		N11   
	BYTE	W12
	BYTE		        Cn1 
	BYTE		N11     Fs1 
	BYTE	W12
	BYTE		        En1 
	BYTE		N11     Gs1 
	BYTE	W12
	BYTE		N11   
	BYTE	W12
	BYTE		        Cn1 
	BYTE		N11     Fs1 
	BYTE	W12
	BYTE		        As1 
	BYTE	W12
// 025   ----------------------------------------
	BYTE	PATT
	 POIN2	Eternity_5_001
// 026   ----------------------------------------
	BYTE	PATT
	 POIN2	Eternity_5_001
// 027   ----------------------------------------
	BYTE	PATT
	 POIN2	Eternity_5_001
// 028   ----------------------------------------
	BYTE	PATT
	 POIN2	Eternity_5_001
// 029   ----------------------------------------
	BYTE	PATT
	 POIN2	Eternity_5_001
// 030   ----------------------------------------
	BYTE	PATT
	 POIN2	Eternity_5_001
// 031   ----------------------------------------
	BYTE	PATT
	 POIN2	Eternity_5_007
// 032   ----------------------------------------
	BYTE	PATT
	 POIN2	Eternity_5_016
// 033   ----------------------------------------
	BYTE	PATT
	 POIN2	Eternity_5_017
// 034   ----------------------------------------
	BYTE	PATT
	 POIN2	Eternity_5_017
// 035   ----------------------------------------
	BYTE	PATT
	 POIN2	Eternity_5_017
// 036   ----------------------------------------
	BYTE	PATT
	 POIN2	Eternity_5_017
// 037   ----------------------------------------
	BYTE	PATT
	 POIN2	Eternity_5_017
// 038   ----------------------------------------
	BYTE	PATT
	 POIN2	Eternity_5_023
// 039   ----------------------------------------
	BYTE		N20     Cn1   v127
	BYTE		N20     Gs1 
	BYTE		N20     An1 
	BYTE		N20     Bn1 
	BYTE		N20     Cn2 
	BYTE		N20     Dn2 
	BYTE		N20     An2 
	BYTE	W24
	BYTE		        Gs1 
	BYTE	W24
	BYTE		N20   
	BYTE	W24
	BYTE		N20   
	BYTE	W24
// 040   ----------------------------------------
	BYTE	W20
	BYTE	GoTo
	 POIN2	Eternity_5_B1
Eternity_5_B2:
	BYTE	FINE

//**************** Track 6 (Midi-Chn.7) ****************//

Eternity_6:
	BYTE	KEYSH   Eternity_key+0
Eternity_6_B1:
// 000   ----------------------------------------
	BYTE		VOICE   34
	BYTE		MODT    0
	BYTE		LFOS    44
	BYTE		PAN     c_v+6
	BYTE		VOL     127*Eternity_mvl/mxv
	BYTE	W96
// 001   ----------------------------------------
	BYTE	W96
// 002   ----------------------------------------
	BYTE	W96
// 003   ----------------------------------------
	BYTE	W96
// 004   ----------------------------------------
	BYTE	W96
// 005   ----------------------------------------
	BYTE	W96
// 006   ----------------------------------------
	BYTE	W96
// 007   ----------------------------------------
	BYTE	W96
// 008   ----------------------------------------
Eternity_6_008:
	BYTE		N32     An1   v127
	BYTE	W36
	BYTE		N11     Cn2 
	BYTE	W12
	BYTE		N20     En2 
	BYTE	W24
	BYTE		        Cn2 
	BYTE	W24
	BYTE	PEND
// 009   ----------------------------------------
Eternity_6_009:
	BYTE		N32     Bn1   v127
	BYTE	W36
	BYTE		N11     An1 
	BYTE	W12
	BYTE		N20     Gn1 
	BYTE	W24
	BYTE		        Bn1 
	BYTE	W24
	BYTE	PEND
// 010   ----------------------------------------
Eternity_6_010:
	BYTE		N32     An1   v127
	BYTE	W36
	BYTE		N11     Cn2 
	BYTE	W12
	BYTE		N20     Fn2 
	BYTE	W24
	BYTE		        Cn2 
	BYTE	W24
	BYTE	PEND
// 011   ----------------------------------------
Eternity_6_011:
	BYTE		N20     Dn2   v127
	BYTE	W24
	BYTE		        An1 
	BYTE	W24
	BYTE		        Dn2 
	BYTE	W24
	BYTE		        Fn2 
	BYTE	W24
	BYTE	PEND
// 012   ----------------------------------------
Eternity_6_012:
	BYTE		N32     En2   v127
	BYTE	W36
	BYTE		N11     Bn1 
	BYTE	W12
	BYTE		N20     Gn1 
	BYTE	W24
	BYTE		        Bn1 
	BYTE	W24
	BYTE	PEND
// 013   ----------------------------------------
Eternity_6_013:
	BYTE		N32     An1   v127
	BYTE	W36
	BYTE		N11     Bn1 
	BYTE	W12
	BYTE		N20     Cn2 
	BYTE	W24
	BYTE		        An1 
	BYTE	W24
	BYTE	PEND
// 014   ----------------------------------------
Eternity_6_014:
	BYTE		N20     Gn1   v127
	BYTE	W24
	BYTE		        En1 
	BYTE	W24
	BYTE		        Gn1 
	BYTE	W24
	BYTE		        Bn1 
	BYTE	W24
	BYTE	PEND
// 015   ----------------------------------------
Eternity_6_015:
	BYTE		N20     Gn1   v127
	BYTE	W24
	BYTE		        Dn1 
	BYTE	W24
	BYTE		        Gn1 
	BYTE	W24
	BYTE		        Bn1 
	BYTE	W24
	BYTE	PEND
// 016   ----------------------------------------
	BYTE	PATT
	 POIN2	Eternity_6_008
// 017   ----------------------------------------
	BYTE	PATT
	 POIN2	Eternity_6_009
// 018   ----------------------------------------
	BYTE	PATT
	 POIN2	Eternity_6_010
// 019   ----------------------------------------
	BYTE	PATT
	 POIN2	Eternity_6_011
// 020   ----------------------------------------
	BYTE	PATT
	 POIN2	Eternity_6_012
// 021   ----------------------------------------
	BYTE	PATT
	 POIN2	Eternity_6_013
// 022   ----------------------------------------
	BYTE	PATT
	 POIN2	Eternity_6_014
// 023   ----------------------------------------
	BYTE	PATT
	 POIN2	Eternity_6_015
// 024   ----------------------------------------
Eternity_6_024:
	BYTE		N11     Cn1   v127
	BYTE	W12
	BYTE		N11   
	BYTE	W24
	BYTE		        Cn2 
	BYTE	W12
	BYTE		        Cn1 
	BYTE	W12
	BYTE		N11   
	BYTE	W24
	BYTE		        Cn2 
	BYTE	W12
	BYTE	PEND
// 025   ----------------------------------------
	BYTE	PATT
	 POIN2	Eternity_6_024
// 026   ----------------------------------------
	BYTE	PATT
	 POIN2	Eternity_6_024
// 027   ----------------------------------------
Eternity_6_027:
	BYTE		N11     Dn1   v127
	BYTE	W12
	BYTE		N11   
	BYTE	W24
	BYTE		        Dn2 
	BYTE	W12
	BYTE		        Dn1 
	BYTE	W12
	BYTE		N11   
	BYTE	W24
	BYTE		        Dn2 
	BYTE	W12
	BYTE	PEND
// 028   ----------------------------------------
	BYTE	PATT
	 POIN2	Eternity_6_027
// 029   ----------------------------------------
	BYTE		N11     Ds1   v127
	BYTE	W12
	BYTE		N11   
	BYTE	W24
	BYTE		        Ds2 
	BYTE	W12
	BYTE		        Ds1 
	BYTE	W12
	BYTE		N11   
	BYTE	W24
	BYTE		        Ds2 
	BYTE	W12
// 030   ----------------------------------------
	BYTE		        Fn1 
	BYTE	W12
	BYTE		N11   
	BYTE	W24
	BYTE		        Fn2 
	BYTE	W12
	BYTE		        Fn1 
	BYTE	W12
	BYTE		N11   
	BYTE	W24
	BYTE		        Fn2 
	BYTE	W12
// 031   ----------------------------------------
	BYTE		        Gn1 
	BYTE	W12
	BYTE		        Dn1 
	BYTE	W12
	BYTE		        Gn1 
	BYTE	W12
	BYTE		        An1 
	BYTE	W12
	BYTE		        Gn1 
	BYTE	W12
	BYTE		        Fn1 
	BYTE	W12
	BYTE		        En1 
	BYTE	W12
	BYTE		        Dn1 
	BYTE	W12
// 032   ----------------------------------------
	BYTE	PATT
	 POIN2	Eternity_6_008
// 033   ----------------------------------------
	BYTE	PATT
	 POIN2	Eternity_6_009
// 034   ----------------------------------------
	BYTE	PATT
	 POIN2	Eternity_6_010
// 035   ----------------------------------------
	BYTE	PATT
	 POIN2	Eternity_6_011
// 036   ----------------------------------------
	BYTE	PATT
	 POIN2	Eternity_6_012
// 037   ----------------------------------------
	BYTE	PATT
	 POIN2	Eternity_6_013
// 038   ----------------------------------------
	BYTE	PATT
	 POIN2	Eternity_6_014
// 039   ----------------------------------------
	BYTE		N20     Gn1   v127
	BYTE	W24
	BYTE		        Dn1 
	BYTE	W24
	BYTE		N42     Gn1 
	BYTE	W48
// 040   ----------------------------------------
	BYTE	W20
	BYTE	GoTo
	 POIN2	Eternity_6_B1
Eternity_6_B2:
	BYTE	FINE

//**************** Track 7 (Midi-Chn.8) ****************//

Eternity_7:
	BYTE	KEYSH   Eternity_key+0
Eternity_7_B1:
// 000   ----------------------------------------
	BYTE		VOICE   46
	BYTE		MODT    0
	BYTE		LFOS    44
	BYTE		PAN     c_v-23
	BYTE		VOL     127*Eternity_mvl/mxv
	BYTE	W96
// 001   ----------------------------------------
	BYTE	W96
// 002   ----------------------------------------
	BYTE	W96
// 003   ----------------------------------------
	BYTE	W96
// 004   ----------------------------------------
	BYTE	W96
// 005   ----------------------------------------
	BYTE	W96
// 006   ----------------------------------------
	BYTE	W96
// 007   ----------------------------------------
	BYTE	W96
// 008   ----------------------------------------
Eternity_7_008:
	BYTE		N11     An2   v056
	BYTE	W12
	BYTE		        En3 
	BYTE	W12
	BYTE		        An3 
	BYTE	W12
	BYTE		        En3 
	BYTE	W12
	BYTE		        An2 
	BYTE	W12
	BYTE		        En3 
	BYTE	W12
	BYTE		        An3 
	BYTE	W12
	BYTE		        En3 
	BYTE	W12
	BYTE	PEND
// 009   ----------------------------------------
Eternity_7_009:
	BYTE		N11     Gn2   v056
	BYTE	W12
	BYTE		        Dn3 
	BYTE	W12
	BYTE		        Gn3 
	BYTE	W12
	BYTE		        Dn3 
	BYTE	W12
	BYTE		        Gn2 
	BYTE	W12
	BYTE		        Dn3 
	BYTE	W12
	BYTE		        Gn3 
	BYTE	W12
	BYTE		        Dn3 
	BYTE	W12
	BYTE	PEND
// 010   ----------------------------------------
Eternity_7_010:
	BYTE		N11     Fn2   v056
	BYTE	W12
	BYTE		        Cn3 
	BYTE	W12
	BYTE		        Fn3 
	BYTE	W12
	BYTE		        Cn3 
	BYTE	W12
	BYTE		        Fn2 
	BYTE	W12
	BYTE		        Cn3 
	BYTE	W12
	BYTE		        Fn3 
	BYTE	W12
	BYTE		        Cn3 
	BYTE	W12
	BYTE	PEND
// 011   ----------------------------------------
Eternity_7_011:
	BYTE		N11     An2   v056
	BYTE	W12
	BYTE		        Dn3 
	BYTE	W12
	BYTE		        Fn3 
	BYTE	W12
	BYTE		        Dn3 
	BYTE	W12
	BYTE		        An2 
	BYTE	W12
	BYTE		        Dn3 
	BYTE	W12
	BYTE		        Fn3 
	BYTE	W12
	BYTE		        Dn3 
	BYTE	W12
	BYTE	PEND
// 012   ----------------------------------------
Eternity_7_012:
	BYTE		N11     Bn2   v056
	BYTE	W12
	BYTE		        En3 
	BYTE	W12
	BYTE		        Gn3 
	BYTE	W12
	BYTE		        En3 
	BYTE	W12
	BYTE		        Bn2 
	BYTE	W12
	BYTE		        En3 
	BYTE	W12
	BYTE		        Gn3 
	BYTE	W12
	BYTE		        En3 
	BYTE	W12
	BYTE	PEND
// 013   ----------------------------------------
Eternity_7_013:
	BYTE		N11     An2   v056
	BYTE	W12
	BYTE		        Dn3 
	BYTE	W12
	BYTE		        Fs3 
	BYTE	W12
	BYTE		        Dn3 
	BYTE	W12
	BYTE		        An2 
	BYTE	W12
	BYTE		        Dn3 
	BYTE	W12
	BYTE		        Fs3 
	BYTE	W12
	BYTE		        Dn3 
	BYTE	W12
	BYTE	PEND
// 014   ----------------------------------------
Eternity_7_014:
	BYTE		N11     Gn2   v056
	BYTE	W12
	BYTE		        Bn2 
	BYTE	W12
	BYTE		        En3 
	BYTE	W12
	BYTE		        Bn2 
	BYTE	W12
	BYTE		        Gn2 
	BYTE	W12
	BYTE		        Bn2 
	BYTE	W12
	BYTE		        En3 
	BYTE	W12
	BYTE		        Bn2 
	BYTE	W12
	BYTE	PEND
// 015   ----------------------------------------
Eternity_7_015:
	BYTE		N11     Gn2   v056
	BYTE	W12
	BYTE		        Bn2 
	BYTE	W12
	BYTE		        Dn3 
	BYTE	W12
	BYTE		        Bn2 
	BYTE	W12
	BYTE		        Gn2 
	BYTE	W12
	BYTE		        Bn2 
	BYTE	W12
	BYTE		        Dn3 
	BYTE	W12
	BYTE		        Bn2 
	BYTE	W12
	BYTE	PEND
// 016   ----------------------------------------
	BYTE	PATT
	 POIN2	Eternity_7_008
// 017   ----------------------------------------
	BYTE	PATT
	 POIN2	Eternity_7_009
// 018   ----------------------------------------
	BYTE	PATT
	 POIN2	Eternity_7_010
// 019   ----------------------------------------
	BYTE	PATT
	 POIN2	Eternity_7_011
// 020   ----------------------------------------
	BYTE	PATT
	 POIN2	Eternity_7_012
// 021   ----------------------------------------
	BYTE	PATT
	 POIN2	Eternity_7_013
// 022   ----------------------------------------
	BYTE	PATT
	 POIN2	Eternity_7_014
// 023   ----------------------------------------
	BYTE	PATT
	 POIN2	Eternity_7_015
// 024   ----------------------------------------
	BYTE	W96
// 025   ----------------------------------------
	BYTE	W96
// 026   ----------------------------------------
	BYTE	W96
// 027   ----------------------------------------
	BYTE	W96
// 028   ----------------------------------------
	BYTE	W96
// 029   ----------------------------------------
	BYTE	W96
// 030   ----------------------------------------
	BYTE	W96
// 031   ----------------------------------------
	BYTE	W96
// 032   ----------------------------------------
	BYTE	PATT
	 POIN2	Eternity_7_008
// 033   ----------------------------------------
	BYTE	PATT
	 POIN2	Eternity_7_009
// 034   ----------------------------------------
	BYTE	PATT
	 POIN2	Eternity_7_010
// 035   ----------------------------------------
	BYTE	PATT
	 POIN2	Eternity_7_011
// 036   ----------------------------------------
	BYTE	PATT
	 POIN2	Eternity_7_012
// 037   ----------------------------------------
	BYTE	PATT
	 POIN2	Eternity_7_013
// 038   ----------------------------------------
	BYTE	PATT
	 POIN2	Eternity_7_014
// 039   ----------------------------------------
	BYTE		N11     Gn2   v056
	BYTE	W12
	BYTE		        Bn2 
	BYTE	W12
	BYTE		        Dn3 
	BYTE	W12
	BYTE		        Bn2 
	BYTE	W12
	BYTE		N44     Gn2 
	BYTE	W03
	BYTE		N40     Bn2 
	BYTE	W03
	BYTE		N36     Dn3 
	BYTE	W03
	BYTE		N32     Gn3 
	BYTE	W36
	BYTE	W03
// 040   ----------------------------------------
	BYTE	W20
	BYTE	GoTo
	 POIN2	Eternity_7_B1
Eternity_7_B2:
	BYTE	FINE

//******************************************************//
	ALIGN 4

Eternity:
	BYTE	7	// NumTrks
	BYTE	0	// NumBlks
	BYTE	Eternity_pri	// Priority
	BYTE	Eternity_rev	// Reverb.

	POIN2	Eternity_grp

	POIN2	Eternity_1
	POIN2	Eternity_2
	POIN2	Eternity_3
	POIN2	Eternity_4
	POIN2	Eternity_5
	POIN2	Eternity_6
	POIN2	Eternity_7

	
