//Event file generated from Sappy .s format.
	#include "MPlayDef.event"

	#define	ChasingLeavesNoIntro_grp  voicegroup000
	#define	ChasingLeavesNoIntro_pri  0
	#define	ChasingLeavesNoIntro_rev  95
	#define	ChasingLeavesNoIntro_mvl  127
	#define	ChasingLeavesNoIntro_key  0
	#define	ChasingLeavesNoIntro_tbs  1
	#define	ChasingLeavesNoIntro_exg  0
	#define	ChasingLeavesNoIntro_cmp  1

	// .rodata
	//	ChasingLeavesNoIntro
	ALIGN 4


//**************** Track 1 (Midi-Chn.0) ****************//

ChasingLeavesNoIntro_001:
//  #01 //000   ----------------------------------------
 BYTE   KEYSH   ChasingLeavesNoIntro_key+0
Label_019D260A:
 BYTE   TEMPO   100*ChasingLeavesNoIntro_tbs/2
 BYTE   VOICE   32
 BYTE   MODT 0
 BYTE   LFOS 44
 BYTE   VOL   23*ChasingLeavesNoIntro_mvl/mxv
 BYTE   PAN   c_v-10
 BYTE   N32  Cs1  v127
 BYTE   W36
 BYTE   N11  Gs1
 BYTE   W12
 BYTE   N32  Cs2
 BYTE   W36
 BYTE   N05  Bn1
 BYTE   W06
 BYTE   Cs2
 BYTE   W06
//  #01 //001   ----------------------------------------
Label_019D2625:
 BYTE   N32  Dn1  v127
 BYTE   W36
 BYTE   N11  Bn1
 BYTE   W12
 BYTE   N32  Dn2
 BYTE   W36
 BYTE   N05  Bn1
 BYTE   W06
 BYTE   Dn2
 BYTE   W06
 BYTE   PEND 
//  #01 //002   ----------------------------------------
Label_019D2635:
 BYTE   N32  En2  v127
 BYTE   W36
 BYTE   N05  Bn1
 BYTE   W06
 BYTE   Gs1
 BYTE   W06
 BYTE   N32  Bn1
 BYTE   W36
 BYTE   N11  En2
 BYTE   W12
 BYTE   PEND 
//  #01 //003   ----------------------------------------
Label_019D2645:
 BYTE   N32  Dn2  v127
 BYTE   W36
 BYTE   N05  An1
 BYTE   W06
 BYTE   Gs1
 BYTE   W06
 BYTE   N32  Fs1
 BYTE   W36
 BYTE   N11  Dn1
 BYTE   W12
 BYTE   PEND 
//  #01 //004   ----------------------------------------
Label_019D2655:
 BYTE   N32  Cs1  v127
 BYTE   W36
 BYTE   N11  Gs1
 BYTE   W12
 BYTE   N32  Cs2
 BYTE   W36
 BYTE   N05  Bn1
 BYTE   W06
 BYTE   Cs2
 BYTE   W06
 BYTE   PEND 
//  #01 //005   ----------------------------------------
 BYTE   PATT
  POIN2 Label_019D2625
//  #01 //006   ----------------------------------------
 BYTE   PATT
  POIN2 Label_019D2635
//  #01 //007   ----------------------------------------
Label_019D266F:
 BYTE   N32  Dn2  v127
 BYTE   W36
 BYTE   N05  An1
 BYTE   W06
 BYTE   Gs1
 BYTE   W06
 BYTE   N42  Fs1
 BYTE   W48
 BYTE   PEND 
//  #01 //008   ----------------------------------------
Label_019D267C:
 BYTE   N32  An1  v127
 BYTE   W36
 BYTE   N11  Gs1
 BYTE   W12
 BYTE   N32  Fs1
 BYTE   W36
 BYTE   N05  Cs1
 BYTE   W06
 BYTE   Fs1
 BYTE   W06
 BYTE   PEND 
//  #01 //009   ----------------------------------------
Label_019D268C:
 BYTE   N32  Dn1  v127
 BYTE   W36
 BYTE   N11  An1
 BYTE   W12
 BYTE   N15  Dn2
 BYTE   W16
 BYTE   Cs2
 BYTE   W16
 BYTE   Bn1
 BYTE   W16
 BYTE   PEND 
//  #01 //010   ----------------------------------------
Label_019D269B:
 BYTE   N32  An1  v127
 BYTE   W36
 BYTE   N11  En1
 BYTE   W12
 BYTE   N32  Cs1
 BYTE   W36
 BYTE   N05  Bn0
 BYTE   W06
 BYTE   Cs1
 BYTE   W06
 BYTE   PEND 
//  #01 //011   ----------------------------------------
Label_019D26AB:
 BYTE   N32  En1  v127
 BYTE   W36
 BYTE   N11  Gs1
 BYTE   W12
 BYTE   N32  Fs1
 BYTE   W36
 BYTE   N05  Bn1
 BYTE   W06
 BYTE   Cs2
 BYTE   W06
 BYTE   PEND 
//  #01 //012   ----------------------------------------
 BYTE   PATT
  POIN2 Label_019D267C
//  #01 //013   ----------------------------------------
 BYTE   PATT
  POIN2 Label_019D268C
//  #01 //014   ----------------------------------------
 BYTE   PATT
  POIN2 Label_019D269B
//  #01 //015   ----------------------------------------
Label_019D26CA:
 BYTE   N32  En1  v127
 BYTE   W36
 BYTE   N11  Gs1
 BYTE   W12
 BYTE   N42  Fs1
 BYTE   W48
 BYTE   PEND 
//  #01 //016   ----------------------------------------
 BYTE   PATT
  POIN2 Label_019D2655
//  #01 //017   ----------------------------------------
 BYTE   PATT
  POIN2 Label_019D2625
//  #01 //018   ----------------------------------------
 BYTE   PATT
  POIN2 Label_019D2635
//  #01 //019   ----------------------------------------
 BYTE   PATT
  POIN2 Label_019D2645
//  #01 //020   ----------------------------------------
 BYTE   PATT
  POIN2 Label_019D2655
//  #01 //021   ----------------------------------------
 BYTE   PATT
  POIN2 Label_019D2625
//  #01 //022   ----------------------------------------
 BYTE   PATT
  POIN2 Label_019D2635
//  #01 //023   ----------------------------------------
 BYTE   PATT
  POIN2 Label_019D266F
//  #01 //024   ----------------------------------------
 BYTE   PATT
  POIN2 Label_019D267C
//  #01 //025   ----------------------------------------
 BYTE   PATT
  POIN2 Label_019D268C
//  #01 //026   ----------------------------------------
 BYTE   PATT
  POIN2 Label_019D269B
//  #01 //027   ----------------------------------------
 BYTE   PATT
  POIN2 Label_019D26AB
//  #01 //028   ----------------------------------------
 BYTE   PATT
  POIN2 Label_019D267C
//  #01 //029   ----------------------------------------
 BYTE   PATT
  POIN2 Label_019D268C
//  #01 //030   ----------------------------------------
 BYTE   PATT
  POIN2 Label_019D269B
//  #01 //031   ----------------------------------------
 BYTE   PATT
  POIN2 Label_019D26CA
//  #01 //032   ----------------------------------------
Label_019D2725:
 BYTE   N20  Bn0  v127
 BYTE   W24
 BYTE   En1
 BYTE   W24
 BYTE   Gs1
 BYTE   W24
 BYTE   En1
 BYTE   W24
 BYTE   PEND 
//  #01 //033   ----------------------------------------
Label_019D2730:
 BYTE   N20  Dn1  v127
 BYTE   W24
 BYTE   Fs1
 BYTE   W24
 BYTE   An1
 BYTE   W24
 BYTE   Fs1
 BYTE   W24
 BYTE   PEND 
//  #01 //034   ----------------------------------------
Label_019D273B:
 BYTE   N20  Dn1  v127
 BYTE   W24
 BYTE   Bn0
 BYTE   W24
 BYTE   Fs1
 BYTE   W24
 BYTE   Dn1
 BYTE   W24
 BYTE   PEND 
//  #01 //035   ----------------------------------------
 BYTE   En1
 BYTE   W24
 BYTE   Gs1
 BYTE   W24
 BYTE   An1
 BYTE   W24
 BYTE   N11  Fs1
 BYTE   W12
 BYTE   Ds1
 BYTE   W12
//  #01 //036   ----------------------------------------
 BYTE   PATT
  POIN2 Label_019D2725
//  #01 //037   ----------------------------------------
 BYTE   PATT
  POIN2 Label_019D2730
//  #01 //038   ----------------------------------------
 BYTE   PATT
  POIN2 Label_019D273B
//  #01 //039   ----------------------------------------
 BYTE   N20  En1  v127
 BYTE   W24
 BYTE   Gs1
 BYTE   W24
 BYTE   N42  Fs1
 BYTE   W48
//  #01 //040   ----------------------------------------
 BYTE   GoTo
  POIN2 Label_019D260A
 BYTE   FINE

//**************** Track 2 (Midi-Chn.1) ****************//

ChasingLeavesNoIntro_002:
//  #02 //000   ----------------------------------------
 BYTE   KEYSH   ChasingLeavesNoIntro_key+0
Label_019D32B2:
 BYTE   VOICE   48
 BYTE   MODT 0
 BYTE   LFOS 44
 BYTE   PAN   c_v-16
 BYTE   VOL   25*ChasingLeavesNoIntro_mvl/mxv
 BYTE   N36  Cs2  v076
 BYTE   N36  En2
 BYTE   N36  Gs2
 BYTE   W42
 BYTE   N05  En2
 BYTE   N05  Gs2
 BYTE   N05  Cs3
 BYTE   W06
 BYTE   N15  En2
 BYTE   N15  Gs2
 BYTE   N15  Cs3
 BYTE   W16
 BYTE   En2
 BYTE   N15  Gs2
 BYTE   N15  Bn2
 BYTE   W16
 BYTE   En2
 BYTE   N15  Gs2
 BYTE   N15  Cs3
 BYTE   W16
//  #02 //001   ----------------------------------------
Label_019D32DE:
 BYTE   N36  Dn2  v076
 BYTE   N36  Fs2
 BYTE   N36  Bn2
 BYTE   W42
 BYTE   N05  Fs2
 BYTE   N05  Bn2
 BYTE   N05  Dn3
 BYTE   W06
 BYTE   N15  Fs2
 BYTE   N15  Bn2
 BYTE   N15  Dn3
 BYTE   W16
 BYTE   Fs2
 BYTE   N15  Bn2
 BYTE   N15  En3
 BYTE   W16
 BYTE   Fs2
 BYTE   N15  Bn2
 BYTE   N15  Dn3
 BYTE   W16
 BYTE   PEND 
//  #02 //002   ----------------------------------------
Label_019D3301:
 BYTE   N36  Gs2  v076
 BYTE   N36  Bn2
 BYTE   N36  En3
 BYTE   W42
 BYTE   N05  Bn2
 BYTE   N05  En3
 BYTE   N05  Gs3
 BYTE   W06
 BYTE   N15  Bn2
 BYTE   N15  En3
 BYTE   N15  Gs3
 BYTE   W16
 BYTE   Bn2
 BYTE   N15  Ds3
 BYTE   N15  Fs3
 BYTE   W16
 BYTE   Bn2
 BYTE   N15  En3
 BYTE   N15  Gs3
 BYTE   W16
 BYTE   PEND 
//  #02 //003   ----------------------------------------
Label_019D3324:
 BYTE   N15  Dn3  v076
 BYTE   N15  Fs3
 BYTE   N15  An3
 BYTE   W16
 BYTE   An2
 BYTE   N15  Dn3
 BYTE   N15  Fs3
 BYTE   W16
 BYTE   Fs2
 BYTE   N15  An2
 BYTE   N15  Dn3
 BYTE   W16
 BYTE   Dn2
 BYTE   N15  Fs2
 BYTE   N15  An2
 BYTE   W16
 BYTE   An1
 BYTE   N15  Dn2
 BYTE   N15  Fs2
 BYTE   W16
 BYTE   Dn2
 BYTE   N15  Fs2
 BYTE   N15  An2
 BYTE   W16
 BYTE   PEND 
//  #02 //004   ----------------------------------------
Label_019D334B:
 BYTE   N36  Cs2  v076
 BYTE   N36  En2
 BYTE   N36  Gs2
 BYTE   W42
 BYTE   N05  En2
 BYTE   N05  Gs2
 BYTE   N05  Cs3
 BYTE   W06
 BYTE   N15  En2
 BYTE   N15  Gs2
 BYTE   N15  Cs3
 BYTE   W16
 BYTE   En2
 BYTE   N15  Gs2
 BYTE   N15  Bn2
 BYTE   W16
 BYTE   En2
 BYTE   N15  Gs2
 BYTE   N15  Cs3
 BYTE   W16
 BYTE   PEND 
//  #02 //005   ----------------------------------------
 BYTE   PATT
  POIN2 Label_019D32DE
//  #02 //006   ----------------------------------------
 BYTE   PATT
  POIN2 Label_019D3301
//  #02 //007   ----------------------------------------
Label_019D3378:
 BYTE   N15  Dn3  v076
 BYTE   N15  Fs3
 BYTE   N15  An3
 BYTE   W16
 BYTE   An2
 BYTE   N15  Dn3
 BYTE   N15  Fs3
 BYTE   W16
 BYTE   Fs2
 BYTE   N15  An2
 BYTE   N15  Dn3
 BYTE   W16
 BYTE   N42  Dn2
 BYTE   N42  Fs2
 BYTE   N42  An2
 BYTE   W48
 BYTE   PEND 
//  #02 //008   ----------------------------------------
Label_019D3394:
 BYTE   N15  Fs2  v076
 BYTE   N15  An2
 BYTE   N15  Cs3
 BYTE   W16
 BYTE   Cs2
 BYTE   N15  Fs2
 BYTE   N15  An2
 BYTE   W16
 BYTE   Fs2
 BYTE   N15  An2
 BYTE   N15  Cs3
 BYTE   W16
 BYTE   N42  Gs2
 BYTE   N42  Cs3
 BYTE   N42  En3
 BYTE   N42  Fs3
 BYTE   W48
 BYTE   PEND 
//  #02 //009   ----------------------------------------
Label_019D33B2:
 BYTE   N15  Fs2  v076
 BYTE   N15  An2
 BYTE   N15  Dn3
 BYTE   W16
 BYTE   Dn2
 BYTE   N15  Fs2
 BYTE   N15  An2
 BYTE   W16
 BYTE   Fs2
 BYTE   N15  An2
 BYTE   N15  Dn3
 BYTE   W16
 BYTE   N42  An2
 BYTE   N42  Dn3
 BYTE   N42  Fs3
 BYTE   W48
 BYTE   PEND 
//  #02 //010   ----------------------------------------
Label_019D33CE:
 BYTE   N32  An2  v076
 BYTE   N32  Cs3
 BYTE   N32  En3
 BYTE   W36
 BYTE   N11  Cs3
 BYTE   N11  En3
 BYTE   N11  An3
 BYTE   W12
 BYTE   N42  An2
 BYTE   N42  Cs3
 BYTE   N15  Gs3
 BYTE   W16
 BYTE   An3
 BYTE   W16
 BYTE   Bn3
 BYTE   W16
 BYTE   PEND 
//  #02 //011   ----------------------------------------
Label_019D33E9:
 BYTE   N32  En3  v076
 BYTE   N32  Gs3
 BYTE   N32  Cs4
 BYTE   W36
 BYTE   N11  Cs3
 BYTE   N11  En3
 BYTE   N11  Gs3
 BYTE   W12
 BYTE   N42  Fs2
 BYTE   N42  Bn2
 BYTE   N42  Ds3
 BYTE   W48
 BYTE   PEND 
//  #02 //012   ----------------------------------------
 BYTE   PATT
  POIN2 Label_019D3394
//  #02 //013   ----------------------------------------
 BYTE   PATT
  POIN2 Label_019D33B2
//  #02 //014   ----------------------------------------
 BYTE   PATT
  POIN2 Label_019D33CE
//  #02 //015   ----------------------------------------
 BYTE   PATT
  POIN2 Label_019D33E9
//  #02 //016   ----------------------------------------
 BYTE   PATT
  POIN2 Label_019D334B
//  #02 //017   ----------------------------------------
 BYTE   PATT
  POIN2 Label_019D32DE
//  #02 //018   ----------------------------------------
 BYTE   PATT
  POIN2 Label_019D3301
//  #02 //019   ----------------------------------------
 BYTE   PATT
  POIN2 Label_019D3324
//  #02 //020   ----------------------------------------
 BYTE   PATT
  POIN2 Label_019D334B
//  #02 //021   ----------------------------------------
 BYTE   PATT
  POIN2 Label_019D32DE
//  #02 //022   ----------------------------------------
 BYTE   PATT
  POIN2 Label_019D3301
//  #02 //023   ----------------------------------------
 BYTE   PATT
  POIN2 Label_019D3378
//  #02 //024   ----------------------------------------
 BYTE   PATT
  POIN2 Label_019D3394
//  #02 //025   ----------------------------------------
 BYTE   PATT
  POIN2 Label_019D33B2
//  #02 //026   ----------------------------------------
 BYTE   PATT
  POIN2 Label_019D33CE
//  #02 //027   ----------------------------------------
 BYTE   PATT
  POIN2 Label_019D33E9
//  #02 //028   ----------------------------------------
 BYTE   PATT
  POIN2 Label_019D3394
//  #02 //029   ----------------------------------------
 BYTE   PATT
  POIN2 Label_019D33B2
//  #02 //030   ----------------------------------------
 BYTE   PATT
  POIN2 Label_019D33CE
//  #02 //031   ----------------------------------------
 BYTE   PATT
  POIN2 Label_019D33E9
//  #02 //032   ----------------------------------------
Label_019D3464:
 BYTE   N96  Bn2  v076
 BYTE   N96  En3
 BYTE   N96  Gs3
 BYTE   W96
 BYTE   PEND 
//  #02 //033   ----------------------------------------
Label_019D346D:
 BYTE   TIE  Dn3  v076
 BYTE   TIE  Fs3
 BYTE   N96  An3
 BYTE   W96
 BYTE   PEND 
//  #02 //034   ----------------------------------------
 BYTE   TIE  Bn3
 BYTE   W90
 BYTE   EOT
 BYTE   Dn3
 BYTE   W06
//  #02 //035   ----------------------------------------
 BYTE   N48  En3
 BYTE   W48
 BYTE   Ds3
 BYTE   W42
 BYTE   EOT
 BYTE   Fs3  v071
 BYTE   W06
//  #02 //036   ----------------------------------------
 BYTE   PATT
  POIN2 Label_019D3464
//  #02 //037   ----------------------------------------
 BYTE   PATT
  POIN2 Label_019D346D
//  #02 //038   ----------------------------------------
 BYTE   TIE  Bn3  v076
 BYTE   W90
 BYTE   EOT
 BYTE   Dn3
 BYTE   W06
//  #02 //039   ----------------------------------------
 BYTE   N48  En3
 BYTE   W48
 BYTE   N42  Ds3
 BYTE   W42
 BYTE   EOT
 BYTE   Fs3  v071
 BYTE   W06
//  #02 //040   ----------------------------------------
 BYTE   GoTo
  POIN2 Label_019D32B2
 BYTE   FINE

//**************** Track 3 (Midi-Chn.2) ****************//

ChasingLeavesNoIntro_003:
//  #03 //000   ----------------------------------------
 BYTE   KEYSH   ChasingLeavesNoIntro_key+0
Label_019D2932:
 BYTE   VOICE   49
 BYTE   MODT 0
 BYTE   LFOS 44
 BYTE   VOL   25*ChasingLeavesNoIntro_mvl/mxv
 BYTE   PAN   c_v+18
 BYTE   N32  Cs4  v127
 BYTE   W36
 BYTE   N05  Ds4
 BYTE   W06
 BYTE   En4
 BYTE   W06
 BYTE   N32  Bn3
 BYTE   W36
 BYTE   N05
 BYTE   W06
 BYTE   An3
 BYTE   W06
//  #03 //001   ----------------------------------------
 BYTE   N15  Gs3
 BYTE   W16
 BYTE   Fs3
 BYTE   W16
 BYTE   En3
 BYTE   W16
 BYTE   N42  Gs3
 BYTE   W48
//  #03 //002   ----------------------------------------
 BYTE   N15  Cs4
 BYTE   W16
 BYTE   Bn3
 BYTE   W16
 BYTE   Cs4
 BYTE   W16
 BYTE   En4
 BYTE   W16
 BYTE   Fs4
 BYTE   W16
 BYTE   Gs4
 BYTE   W16
//  #03 //003   ----------------------------------------
 BYTE   An4
 BYTE   W16
 BYTE   Gs4
 BYTE   W16
 BYTE   An4
 BYTE   W16
 BYTE   N42  Fs4
 BYTE   W48
//  #03 //004   ----------------------------------------
 BYTE   N32  En4
 BYTE   W36
 BYTE   N05  Ds4
 BYTE   W06
 BYTE   En4
 BYTE   W06
 BYTE   N32  Cs4
 BYTE   W36
 BYTE   N05  Ds4
 BYTE   W06
 BYTE   En4
 BYTE   W06
//  #03 //005   ----------------------------------------
 BYTE   N15  Gs4
 BYTE   W16
 BYTE   Fs4
 BYTE   W16
 BYTE   En4
 BYTE   W16
 BYTE   Cs4
 BYTE   W16
 BYTE   Bn3
 BYTE   W16
 BYTE   Cs4
 BYTE   W16
//  #03 //006   ----------------------------------------
 BYTE   N07  Gs3
 BYTE   W08
 BYTE   En3
 BYTE   W08
 BYTE   Gs3
 BYTE   W08
 BYTE   Cs4
 BYTE   W08
 BYTE   Gs3
 BYTE   W08
 BYTE   Cs4
 BYTE   W08
 BYTE   En4
 BYTE   W08
 BYTE   Cs4
 BYTE   W08
 BYTE   En4
 BYTE   W08
 BYTE   Gs4
 BYTE   W08
 BYTE   En4
 BYTE   W08
 BYTE   Gs4
 BYTE   W08
//  #03 //007   ----------------------------------------
 BYTE   N90  An4
 BYTE   W96
//  #03 //008   ----------------------------------------
 BYTE   PAN   c_v+18
 BYTE   W96
//  #03 //009   ----------------------------------------
 BYTE   W96
//  #03 //010   ----------------------------------------
 BYTE   W96
//  #03 //011   ----------------------------------------
 BYTE   W96
//  #03 //012   ----------------------------------------
 BYTE   W96
//  #03 //013   ----------------------------------------
 BYTE   W96
//  #03 //014   ----------------------------------------
 BYTE   W96
//  #03 //015   ----------------------------------------
 BYTE   W96
//  #03 //016   ----------------------------------------
 BYTE   W96
//  #03 //017   ----------------------------------------
 BYTE   W96
//  #03 //018   ----------------------------------------
 BYTE   W96
//  #03 //019   ----------------------------------------
 BYTE   W96
//  #03 //020   ----------------------------------------
 BYTE   W96
//  #03 //021   ----------------------------------------
 BYTE   W96
//  #03 //022   ----------------------------------------
 BYTE   W96
//  #03 //023   ----------------------------------------
 BYTE   W96
//  #03 //024   ----------------------------------------
 BYTE   N15  An3
 BYTE   W16
 BYTE   Fs3
 BYTE   W16
 BYTE   An3
 BYTE   W16
 BYTE   Cs4
 BYTE   W16
 BYTE   Bn3
 BYTE   W16
 BYTE   An3
 BYTE   W16
//  #03 //025   ----------------------------------------
 BYTE   Dn4
 BYTE   W16
 BYTE   An3
 BYTE   W16
 BYTE   Dn4
 BYTE   W16
 BYTE   Fs4
 BYTE   W16
 BYTE   En4
 BYTE   W16
 BYTE   Dn4
 BYTE   W16
//  #03 //026   ----------------------------------------
 BYTE   N07  Bn3
 BYTE   W08
 BYTE   Fs3
 BYTE   W08
 BYTE   Bn3
 BYTE   W08
 BYTE   Ds4
 BYTE   W08
 BYTE   Bn3
 BYTE   W08
 BYTE   Ds4
 BYTE   W08
 BYTE   N15  Fs4
 BYTE   W16
 BYTE   En4
 BYTE   W16
 BYTE   Ds4
 BYTE   W16
//  #03 //027   ----------------------------------------
 BYTE   En4
 BYTE   W16
 BYTE   Cs4
 BYTE   W16
 BYTE   En4
 BYTE   W16
 BYTE   N20  Bn3
 BYTE   W24
 BYTE   Gs3
 BYTE   W24
//  #03 //028   ----------------------------------------
 BYTE   N15  Fs3
 BYTE   W16
 BYTE   En3
 BYTE   W16
 BYTE   Fs3
 BYTE   W16
 BYTE   Cs3
 BYTE   W16
 BYTE   Bn2
 BYTE   W16
 BYTE   Cs3
 BYTE   W16
//  #03 //029   ----------------------------------------
 BYTE   Dn3
 BYTE   W16
 BYTE   Fs3
 BYTE   W16
 BYTE   En3
 BYTE   W16
 BYTE   Dn3
 BYTE   W16
 BYTE   An2
 BYTE   W16
 BYTE   Dn3
 BYTE   W16
//  #03 //030   ----------------------------------------
 BYTE   W96
//  #03 //031   ----------------------------------------
 BYTE   W96
//  #03 //032   ----------------------------------------
 BYTE   W96
//  #03 //033   ----------------------------------------
 BYTE   W96
//  #03 //034   ----------------------------------------
 BYTE   W96
//  #03 //035   ----------------------------------------
 BYTE   W96
//  #03 //036   ----------------------------------------
 BYTE   W96
//  #03 //037   ----------------------------------------
 BYTE   W96
//  #03 //038   ----------------------------------------
 BYTE   W96
//  #03 //039   ----------------------------------------
 BYTE   W96
//  #03 //040   ----------------------------------------
 BYTE   GoTo
  POIN2 Label_019D2932
 BYTE   FINE

//**************** Track 4 (Midi-Chn.3) ****************//

ChasingLeavesNoIntro_004:
//  #04 //000   ----------------------------------------
 BYTE   KEYSH   ChasingLeavesNoIntro_key+0
Label_019D2422:
 BYTE   VOICE   60
 BYTE   MODT 0
 BYTE   LFOS 44
 BYTE   VOL   27*ChasingLeavesNoIntro_mvl/mxv
 BYTE   PAN   c_v+11
 BYTE   W96
//  #04 //001   ----------------------------------------
 BYTE   W96
//  #04 //002   ----------------------------------------
 BYTE   W96
//  #04 //003   ----------------------------------------
 BYTE   W96
//  #04 //004   ----------------------------------------
 BYTE   W96
//  #04 //005   ----------------------------------------
 BYTE   W96
//  #04 //006   ----------------------------------------
 BYTE   W96
//  #04 //007   ----------------------------------------
 BYTE   W48
 BYTE   N24  Fs2  v127
 BYTE   W24
 BYTE   Gs2
 BYTE   W24
//  #04 //008   ----------------------------------------
 BYTE   N16  An2
 BYTE   W16
 BYTE   En3
 BYTE   W16
 BYTE   Dn3
 BYTE   W16
 BYTE   Cs3
 BYTE   W16
 BYTE   Bn2
 BYTE   W16
 BYTE   Cs3
 BYTE   W16
//  #04 //009   ----------------------------------------
 BYTE   N48  Dn3
 BYTE   W48
 BYTE   N12  Fs3
 BYTE   W12
 BYTE   Gs3
 BYTE   W12
 BYTE   An3
 BYTE   W12
 BYTE   Fs3
 BYTE   W12
//  #04 //010   ----------------------------------------
 BYTE   N16  En3
 BYTE   W16
 BYTE   Cs3
 BYTE   W16
 BYTE   En3
 BYTE   W16
 BYTE   An3
 BYTE   W16
 BYTE   Bn3
 BYTE   W16
 BYTE   An3
 BYTE   W16
//  #04 //011   ----------------------------------------
 BYTE   Gs3
 BYTE   W16
 BYTE   Fs3
 BYTE   W16
 BYTE   Gs3
 BYTE   W16
 BYTE   N24  An3
 BYTE   W24
 BYTE   N20  Fs3
 BYTE   W24
//  #04 //012   ----------------------------------------
 BYTE   W24
 BYTE   N12  An3
 BYTE   W12
 BYTE   Gs3
 BYTE   W12
 BYTE   Fs3
 BYTE   W12
 BYTE   En3
 BYTE   W12
 BYTE   Dn3
 BYTE   W12
 BYTE   Cs3
 BYTE   W12
//  #04 //013   ----------------------------------------
 BYTE   N16  Bn2
 BYTE   W16
 BYTE   An2
 BYTE   W16
 BYTE   Dn3
 BYTE   W16
 BYTE   Fs3
 BYTE   W16
 BYTE   Gs3
 BYTE   W16
 BYTE   Fs3
 BYTE   W16
//  #04 //014   ----------------------------------------
 BYTE   N36  En3
 BYTE   W36
 BYTE   N06  Dn3
 BYTE   W06
 BYTE   En3
 BYTE   W06
 BYTE   N12  An3
 BYTE   W12
 BYTE   Gs3
 BYTE   W12
 BYTE   Fs3
 BYTE   W12
 BYTE   En3
 BYTE   W12
//  #04 //015   ----------------------------------------
 BYTE   N24  Gs3
 BYTE   W24
 BYTE   An3
 BYTE   W24
 BYTE   N42  Bn3
 BYTE   W48
//  #04 //016   ----------------------------------------
 BYTE   N36  Cs2
 BYTE   W36
 BYTE   N12  Gs2
 BYTE   W12
 BYTE   N16  Bn2
 BYTE   W16
 BYTE   An2
 BYTE   W16
 BYTE   Bn2
 BYTE   W16
//  #04 //017   ----------------------------------------
 BYTE   N08  Dn3
 BYTE   W08
 BYTE   Fs3
 BYTE   W08
 BYTE   En3
 BYTE   W08
 BYTE   Dn3
 BYTE   W08
 BYTE   Bn2
 BYTE   W08
 BYTE   Dn3
 BYTE   W08
 BYTE   N36  Fs3
 BYTE   W36
 BYTE   N06  Gs3
 BYTE   W06
 BYTE   An3
 BYTE   W06
//  #04 //018   ----------------------------------------
 BYTE   N24  Gs3
 BYTE   W24
 BYTE   Fs3
 BYTE   W24
 BYTE   N06  En3
 BYTE   W06
 BYTE   Bn2
 BYTE   W06
 BYTE   Cs3
 BYTE   W06
 BYTE   Bn2
 BYTE   W06
 BYTE   En3
 BYTE   W06
 BYTE   Fs3
 BYTE   W06
 BYTE   Gs3
 BYTE   W06
 BYTE   An3
 BYTE   W06
//  #04 //019   ----------------------------------------
 BYTE   N16  Cs4
 BYTE   W16
 BYTE   Dn4
 BYTE   W16
 BYTE   An3
 BYTE   W16
 BYTE   N32  Fs3
 BYTE   W36
 BYTE   N06  Dn3
 BYTE   W06
 BYTE   An2
 BYTE   W06
//  #04 //020   ----------------------------------------
 BYTE   N36  Gs2
 BYTE   W36
 BYTE   N12  Cs3
 BYTE   W12
 BYTE   N08  En3
 BYTE   W08
 BYTE   Ds3
 BYTE   W08
 BYTE   En3
 BYTE   W08
 BYTE   Gs3
 BYTE   W08
 BYTE   Fs3
 BYTE   W08
 BYTE   Gs3
 BYTE   W08
//  #04 //021   ----------------------------------------
 BYTE   N36  Fs3
 BYTE   W36
 BYTE   N12  Dn3
 BYTE   W12
 BYTE   N08  Bn3
 BYTE   W08
 BYTE   An3
 BYTE   W08
 BYTE   Bn3
 BYTE   W08
 BYTE   Dn4
 BYTE   W08
 BYTE   Cs4
 BYTE   W08
 BYTE   Dn4
 BYTE   W08
//  #04 //022   ----------------------------------------
 BYTE   N16  En4
 BYTE   W16
 BYTE   Bn3
 BYTE   W16
 BYTE   An3
 BYTE   W16
 BYTE   Gs3
 BYTE   W16
 BYTE   Fs3
 BYTE   W16
 BYTE   En3
 BYTE   W16
//  #04 //023   ----------------------------------------
 BYTE   Dn4
 BYTE   W16
 BYTE   An3
 BYTE   W16
 BYTE   Gn3
 BYTE   W16
 BYTE   Fs3
 BYTE   W16
 BYTE   En3
 BYTE   W16
 BYTE   Dn3
 BYTE   W16
//  #04 //024   ----------------------------------------
 BYTE   N90  Cs3
 BYTE   W96
//  #04 //025   ----------------------------------------
 BYTE   W96
//  #04 //026   ----------------------------------------
 BYTE   W96
//  #04 //027   ----------------------------------------
 BYTE   W96
//  #04 //028   ----------------------------------------
 BYTE   W96
//  #04 //029   ----------------------------------------
 BYTE   W96
//  #04 //030   ----------------------------------------
 BYTE   W96
//  #04 //031   ----------------------------------------
 BYTE   W96
//  #04 //032   ----------------------------------------
 BYTE   N12  En3
 BYTE   W12
 BYTE   Gs3
 BYTE   W12
 BYTE   N06  Bn3
 BYTE   W06
 BYTE   N12  An3
 BYTE   W12
 BYTE   N18  Gs3
 BYTE   W18
 BYTE   N12  Fs3
 BYTE   W12
 BYTE   En3
 BYTE   W12
 BYTE   Bn2
 BYTE   W12
//  #04 //033   ----------------------------------------
 BYTE   Dn3
 BYTE   W12
 BYTE   Fs3
 BYTE   W12
 BYTE   N06  An3
 BYTE   W06
 BYTE   N12  Gn3
 BYTE   W12
 BYTE   N54  Fs3
 BYTE   W54
//  #04 //034   ----------------------------------------
 BYTE   N12  Bn3
 BYTE   W12
 BYTE   Cs4
 BYTE   W12
 BYTE   N06  Dn4
 BYTE   W06
 BYTE   N12  Cs4
 BYTE   W12
 BYTE   N18  Bn3
 BYTE   W18
 BYTE   N12  An3
 BYTE   W12
 BYTE   Fs3
 BYTE   W12
 BYTE   Dn3
 BYTE   W12
//  #04 //035   ----------------------------------------
 BYTE   N06  En3
 BYTE   W06
 BYTE   Bn2
 BYTE   W06
 BYTE   En3
 BYTE   W06
 BYTE   Fs3
 BYTE   W06
 BYTE   Gs3
 BYTE   W06
 BYTE   An3
 BYTE   W06
 BYTE   Bn3
 BYTE   W06
 BYTE   Gs3
 BYTE   W06
 BYTE   An3
 BYTE   W06
 BYTE   Bn3
 BYTE   W06
 BYTE   Ds4
 BYTE   W06
 BYTE   Cs4
 BYTE   W06
 BYTE   N20  Bn3
 BYTE   W24
//  #04 //036   ----------------------------------------
 BYTE   N06  En4
 BYTE   W06
 BYTE   Bn3
 BYTE   W06
 BYTE   N06
 BYTE   W06
 BYTE   En4
 BYTE   W06
 BYTE   Bn3
 BYTE   W06
 BYTE   N06
 BYTE   W06
 BYTE   En4
 BYTE   W06
 BYTE   Bn3
 BYTE   W06
 BYTE   Gs4
 BYTE   W06
 BYTE   En4
 BYTE   W06
 BYTE   N06
 BYTE   W06
 BYTE   Gs4
 BYTE   W06
 BYTE   Fs4
 BYTE   W06
 BYTE   N06
 BYTE   W06
 BYTE   Gs4
 BYTE   W06
 BYTE   En4
 BYTE   W06
//  #04 //037   ----------------------------------------
 BYTE   Dn4
 BYTE   W06
 BYTE   Cs4
 BYTE   W06
 BYTE   Bn3
 BYTE   W06
 BYTE   An3
 BYTE   W06
 BYTE   Gs3
 BYTE   W06
 BYTE   Fs3
 BYTE   W06
 BYTE   En3
 BYTE   W06
 BYTE   Dn3
 BYTE   W06
 BYTE   Fs3
 BYTE   W06
 BYTE   Dn3
 BYTE   W06
 BYTE   N06
 BYTE   W06
 BYTE   An3
 BYTE   W06
 BYTE   Fs3
 BYTE   W06
 BYTE   N06
 BYTE   W06
 BYTE   Dn4
 BYTE   W06
 BYTE   An3
 BYTE   W06
//  #04 //038   ----------------------------------------
 BYTE   N16  Bn3
 BYTE   W16
 BYTE   Dn4
 BYTE   W16
 BYTE   Cs4
 BYTE   W16
 BYTE   N48  Bn3
 BYTE   W48
//  #04 //039   ----------------------------------------
 BYTE   N16  En4
 BYTE   W16
 BYTE   Bn3
 BYTE   W16
 BYTE   En4
 BYTE   W16
 BYTE   N42  Ds4
 BYTE   W48
//  #04 //040   ----------------------------------------
 BYTE   GoTo
  POIN2 Label_019D2422
 BYTE   FINE

//**************** Track 5 (Midi-Chn.4) ****************//

ChasingLeavesNoIntro_005:
//  #05 //000   ----------------------------------------
 BYTE   KEYSH   ChasingLeavesNoIntro_key+0
Label_019D21DA:
 BYTE   VOICE   61
 BYTE   MODT 0
 BYTE   LFOS 44
 BYTE   VOL   24*ChasingLeavesNoIntro_mvl/mxv
 BYTE   PAN   c_v-7
 BYTE   W96
//  #05 //001   ----------------------------------------
 BYTE   W96
//  #05 //002   ----------------------------------------
 BYTE   W96
//  #05 //003   ----------------------------------------
 BYTE   W96
//  #05 //004   ----------------------------------------
 BYTE   W96
//  #05 //005   ----------------------------------------
 BYTE   W96
//  #05 //006   ----------------------------------------
 BYTE   W96
//  #05 //007   ----------------------------------------
 BYTE   W96
//  #05 //008   ----------------------------------------
 BYTE   W96
//  #05 //009   ----------------------------------------
 BYTE   W96
//  #05 //010   ----------------------------------------
 BYTE   W96
//  #05 //011   ----------------------------------------
 BYTE   W96
//  #05 //012   ----------------------------------------
 BYTE   W96
//  #05 //013   ----------------------------------------
 BYTE   W96
//  #05 //014   ----------------------------------------
 BYTE   W96
//  #05 //015   ----------------------------------------
 BYTE   W96
//  #05 //016   ----------------------------------------
 BYTE   W96
//  #05 //017   ----------------------------------------
 BYTE   W96
//  #05 //018   ----------------------------------------
 BYTE   W96
//  #05 //019   ----------------------------------------
 BYTE   W96
//  #05 //020   ----------------------------------------
 BYTE   W96
//  #05 //021   ----------------------------------------
 BYTE   W96
//  #05 //022   ----------------------------------------
 BYTE   W96
//  #05 //023   ----------------------------------------
 BYTE   W96
//  #05 //024   ----------------------------------------
 BYTE   W96
//  #05 //025   ----------------------------------------
 BYTE   W96
//  #05 //026   ----------------------------------------
 BYTE   W96
//  #05 //027   ----------------------------------------
 BYTE   W96
//  #05 //028   ----------------------------------------
 BYTE   W96
//  #05 //029   ----------------------------------------
 BYTE   W96
//  #05 //030   ----------------------------------------
 BYTE   W96
//  #05 //031   ----------------------------------------
 BYTE   W96
//  #05 //032   ----------------------------------------
Label_019D2204:
 BYTE   N96  Bn2  v076
 BYTE   N96  En3
 BYTE   N96  Gs3
 BYTE   W96
 BYTE   PEND 
//  #05 //033   ----------------------------------------
Label_019D220D:
 BYTE   TIE  Dn3  v076
 BYTE   TIE  Fs3
 BYTE   N96  An3
 BYTE   W96
 BYTE   PEND 
//  #05 //034   ----------------------------------------
 BYTE   TIE  Bn3
 BYTE   W90
 BYTE   EOT
 BYTE   Dn3
 BYTE   W06
//  #05 //035   ----------------------------------------
 BYTE   N48  En3
 BYTE   W48
 BYTE   Ds3
 BYTE   W42
 BYTE   EOT
 BYTE   Fs3  v071
 BYTE   W06
//  #05 //036   ----------------------------------------
 BYTE   PATT
  POIN2 Label_019D2204
//  #05 //037   ----------------------------------------
 BYTE   PATT
  POIN2 Label_019D220D
//  #05 //038   ----------------------------------------
 BYTE   TIE  Bn3  v076
 BYTE   W90
 BYTE   EOT
 BYTE   Dn3
 BYTE   W06
//  #05 //039   ----------------------------------------
 BYTE   N48  En3
 BYTE   W48
 BYTE   N42  Ds3
 BYTE   W42
 BYTE   EOT
 BYTE   Fs3  v071
 BYTE   W06
//  #05 //040   ----------------------------------------
 BYTE   GoTo
  POIN2 Label_019D21DA
 BYTE   FINE

//**************** Track 6 (Midi-Chn.5) ****************//

ChasingLeavesNoIntro_006:
//  #06 //000   ----------------------------------------
 BYTE   KEYSH   ChasingLeavesNoIntro_key+0
Label_019D2B9E:
 BYTE   VOICE   124
 BYTE   MODT 0
 BYTE   LFOS 44
 BYTE   VOL   24*ChasingLeavesNoIntro_mvl/mxv
 BYTE   PAN   c_v+0
 BYTE   N05  Cn1  v127
 BYTE   N05  Fs1
 BYTE   N05  An2
 BYTE   W06
 BYTE   Gs1
 BYTE   W06
 BYTE   As1
 BYTE   W06
 BYTE   Gs1
 BYTE   W06
 BYTE   Cs1
 BYTE   N05  Fs1
 BYTE   W06
 BYTE   Gs1
 BYTE   W06
 BYTE   As1
 BYTE   W06
 BYTE   Gs1
 BYTE   W06
 BYTE   Cn1
 BYTE   N05  Fs1
 BYTE   W06
 BYTE   Gs1
 BYTE   W06
 BYTE   As1
 BYTE   W06
 BYTE   Gs1
 BYTE   W06
 BYTE   Cs1
 BYTE   N05  Fs1
 BYTE   W06
 BYTE   Gs1
 BYTE   W06
 BYTE   As1
 BYTE   W06
 BYTE   Gs1
 BYTE   W06
//  #06 //001   ----------------------------------------
Label_019D2BD4:
 BYTE   N05  Cn1  v127
 BYTE   N05  Fs1
 BYTE   W06
 BYTE   Gs1
 BYTE   W06
 BYTE   As1
 BYTE   W06
 BYTE   Gs1
 BYTE   W06
 BYTE   Cs1
 BYTE   N05  Fs1
 BYTE   W06
 BYTE   Gs1
 BYTE   W06
 BYTE   As1
 BYTE   W06
 BYTE   Gs1
 BYTE   W06
 BYTE   Cn1
 BYTE   N05  Fs1
 BYTE   W06
 BYTE   Gs1
 BYTE   W06
 BYTE   As1
 BYTE   W06
 BYTE   Gs1
 BYTE   W06
 BYTE   Cs1
 BYTE   N05  Fs1
 BYTE   W06
 BYTE   Gs1
 BYTE   W06
 BYTE   As1
 BYTE   W06
 BYTE   Gs1
 BYTE   W06
 BYTE   PEND 
//  #06 //002   ----------------------------------------
 BYTE   PATT
  POIN2 Label_019D2BD4
//  #06 //003   ----------------------------------------
 BYTE   PATT
  POIN2 Label_019D2BD4
//  #06 //004   ----------------------------------------
 BYTE   PATT
  POIN2 Label_019D2BD4
//  #06 //005   ----------------------------------------
 BYTE   PATT
  POIN2 Label_019D2BD4
//  #06 //006   ----------------------------------------
 BYTE   PATT
  POIN2 Label_019D2BD4
//  #06 //007   ----------------------------------------
 BYTE   PATT
  POIN2 Label_019D2BD4
//  #06 //008   ----------------------------------------
 BYTE   PATT
  POIN2 Label_019D2BD4
//  #06 //009   ----------------------------------------
 BYTE   PATT
  POIN2 Label_019D2BD4
//  #06 //010   ----------------------------------------
 BYTE   PATT
  POIN2 Label_019D2BD4
//  #06 //011   ----------------------------------------
 BYTE   PATT
  POIN2 Label_019D2BD4
//  #06 //012   ----------------------------------------
 BYTE   PATT
  POIN2 Label_019D2BD4
//  #06 //013   ----------------------------------------
 BYTE   PATT
  POIN2 Label_019D2BD4
//  #06 //014   ----------------------------------------
 BYTE   PATT
  POIN2 Label_019D2BD4
//  #06 //015   ----------------------------------------
 BYTE   N05  Cn1  v127
 BYTE   N05  Fs1
 BYTE   W06
 BYTE   Gs1
 BYTE   W06
 BYTE   As1
 BYTE   W06
 BYTE   Gs1
 BYTE   W06
 BYTE   Cs1
 BYTE   N05  Fs1
 BYTE   W06
 BYTE   Gs1
 BYTE   W06
 BYTE   As1
 BYTE   W06
 BYTE   Gs1
 BYTE   W06
 BYTE   Cn1
 BYTE   N05  Fs1
 BYTE   W06
 BYTE   Gs1
 BYTE   W06
 BYTE   As1
 BYTE   W06
 BYTE   Gs1
 BYTE   W06
 BYTE   N20  Cs1
 BYTE   N20  Fs1
 BYTE   W24
//  #06 //016   ----------------------------------------
 BYTE   PATT
  POIN2 Label_019D2BD4
//  #06 //017   ----------------------------------------
 BYTE   PATT
  POIN2 Label_019D2BD4
//  #06 //018   ----------------------------------------
 BYTE   PATT
  POIN2 Label_019D2BD4
//  #06 //019   ----------------------------------------
 BYTE   PATT
  POIN2 Label_019D2BD4
//  #06 //020   ----------------------------------------
 BYTE   PATT
  POIN2 Label_019D2BD4
//  #06 //021   ----------------------------------------
 BYTE   PATT
  POIN2 Label_019D2BD4
//  #06 //022   ----------------------------------------
 BYTE   PATT
  POIN2 Label_019D2BD4
//  #06 //023   ----------------------------------------
 BYTE   PATT
  POIN2 Label_019D2BD4
//  #06 //024   ----------------------------------------
 BYTE   PATT
  POIN2 Label_019D2BD4
//  #06 //025   ----------------------------------------
 BYTE   PATT
  POIN2 Label_019D2BD4
//  #06 //026   ----------------------------------------
 BYTE   PATT
  POIN2 Label_019D2BD4
//  #06 //027   ----------------------------------------
 BYTE   PATT
  POIN2 Label_019D2BD4
//  #06 //028   ----------------------------------------
 BYTE   PATT
  POIN2 Label_019D2BD4
//  #06 //029   ----------------------------------------
 BYTE   PATT
  POIN2 Label_019D2BD4
//  #06 //030   ----------------------------------------
 BYTE   PATT
  POIN2 Label_019D2BD4
//  #06 //031   ----------------------------------------
 BYTE   N05  Cn1  v127
 BYTE   N05  Fs1
 BYTE   W06
 BYTE   Gs1
 BYTE   W06
 BYTE   As1
 BYTE   W06
 BYTE   Gs1
 BYTE   W06
 BYTE   Cs1
 BYTE   N05  Fs1
 BYTE   W06
 BYTE   Gs1
 BYTE   W06
 BYTE   As1
 BYTE   W06
 BYTE   Gs1
 BYTE   W06
 BYTE   Cn1
 BYTE   N05  Fs1
 BYTE   W06
 BYTE   Gs1
 BYTE   W06
 BYTE   As1
 BYTE   W06
 BYTE   Gs1
 BYTE   W06
 BYTE   Cs1
 BYTE   N05  Fs1
 BYTE   W06
 BYTE   En1
 BYTE   N05  Gs1
 BYTE   W06
 BYTE   En1
 BYTE   N05  As1
 BYTE   W06
 BYTE   Gs1
 BYTE   W06
//  #06 //032   ----------------------------------------
 BYTE   Cn1
 BYTE   N05  Fs1
 BYTE   N05  An2
 BYTE   W06
 BYTE   Gs1
 BYTE   W06
 BYTE   As1
 BYTE   W06
 BYTE   Gs1
 BYTE   W06
 BYTE   Cs1
 BYTE   N05  En1
 BYTE   N05  Fs1
 BYTE   W06
 BYTE   Gs1
 BYTE   W06
 BYTE   As1
 BYTE   W06
 BYTE   Gs1
 BYTE   W06
 BYTE   Cn1
 BYTE   N05  Fs1
 BYTE   W06
 BYTE   En1
 BYTE   N05  Gs1
 BYTE   W06
 BYTE   As1
 BYTE   W06
 BYTE   Gs1
 BYTE   W06
 BYTE   Cs1
 BYTE   N05  En1
 BYTE   N05  Fs1
 BYTE   W06
 BYTE   Gs1
 BYTE   W06
 BYTE   As1
 BYTE   W06
 BYTE   Gs1
 BYTE   W06
//  #06 //033   ----------------------------------------
Label_019D2D0E:
 BYTE   N05  Cn1  v127
 BYTE   N05  Fs1
 BYTE   W06
 BYTE   Gs1
 BYTE   W06
 BYTE   As1
 BYTE   W06
 BYTE   Gs1
 BYTE   W06
 BYTE   Cs1
 BYTE   N05  En1
 BYTE   N05  Fs1
 BYTE   W06
 BYTE   Gs1
 BYTE   W06
 BYTE   As1
 BYTE   W06
 BYTE   Gs1
 BYTE   W06
 BYTE   Cn1
 BYTE   N05  Fs1
 BYTE   W06
 BYTE   En1
 BYTE   N05  Gs1
 BYTE   W06
 BYTE   As1
 BYTE   W06
 BYTE   Gs1
 BYTE   W06
 BYTE   Cs1
 BYTE   N05  En1
 BYTE   N05  Fs1
 BYTE   W06
 BYTE   Gs1
 BYTE   W06
 BYTE   As1
 BYTE   W06
 BYTE   Cn1
 BYTE   N05  Gs1
 BYTE   W06
 BYTE   PEND 
//  #06 //034   ----------------------------------------
Label_019D2D41:
 BYTE   N05  Cn1  v127
 BYTE   N05  Fs1
 BYTE   W06
 BYTE   Gs1
 BYTE   W06
 BYTE   As1
 BYTE   W06
 BYTE   Gs1
 BYTE   W06
 BYTE   Cs1
 BYTE   N05  En1
 BYTE   N05  Fs1
 BYTE   W06
 BYTE   Gs1
 BYTE   W06
 BYTE   As1
 BYTE   W06
 BYTE   Gs1
 BYTE   W06
 BYTE   Cn1
 BYTE   N05  Fs1
 BYTE   W06
 BYTE   En1
 BYTE   N05  Gs1
 BYTE   W06
 BYTE   As1
 BYTE   W06
 BYTE   Gs1
 BYTE   W06
 BYTE   Cs1
 BYTE   N05  En1
 BYTE   N05  Fs1
 BYTE   W06
 BYTE   Gs1
 BYTE   W06
 BYTE   As1
 BYTE   W06
 BYTE   Gs1
 BYTE   W06
 BYTE   PEND 
//  #06 //035   ----------------------------------------
 BYTE   PATT
  POIN2 Label_019D2D0E
//  #06 //036   ----------------------------------------
 BYTE   PATT
  POIN2 Label_019D2D41
//  #06 //037   ----------------------------------------
 BYTE   PATT
  POIN2 Label_019D2D0E
//  #06 //038   ----------------------------------------
 BYTE   N05  Cn1  v127
 BYTE   N05  Fs1
 BYTE   W06
 BYTE   Gs1
 BYTE   W06
 BYTE   As1
 BYTE   W06
 BYTE   Gs1
 BYTE   W06
 BYTE   Cs1
 BYTE   N05  En1
 BYTE   N05  Fs1
 BYTE   W06
 BYTE   Gs1
 BYTE   W06
 BYTE   As1
 BYTE   W06
 BYTE   Gs1
 BYTE   W06
 BYTE   Cn1
 BYTE   N05  Fs1
 BYTE   W06
 BYTE   En1
 BYTE   N05  Gs1
 BYTE   W06
 BYTE   As1
 BYTE   W06
 BYTE   Gs1
 BYTE   W06
 BYTE   Cs1
 BYTE   N05  En1
 BYTE   N05  Fs1
 BYTE   W06
 BYTE   Gs1
 BYTE   W06
 BYTE   En1
 BYTE   N05  As1
 BYTE   W06
 BYTE   En1
 BYTE   N05  Gs1
 BYTE   W06
//  #06 //039   ----------------------------------------
 BYTE   N20  Fs1
 BYTE   N90  An1
 BYTE   N90  Bn1
 BYTE   N90  Cn2
 BYTE   N90  Dn2
 BYTE   N90  An2
 BYTE   W24
 BYTE   N20  Fs1
 BYTE   W24
 BYTE   N20
 BYTE   W24
 BYTE   N20
 BYTE   W24
//  #06 //040   ----------------------------------------
 BYTE   GoTo
  POIN2 Label_019D2B9E
 BYTE   FINE

//******************************************************//
	ALIGN 4

ChasingLeavesNoIntro:
	BYTE	6	// NumTrks
	BYTE	0	// NumBlks
	BYTE	ChasingLeavesNoIntro_pri	// Priority
	BYTE	ChasingLeavesNoIntro_rev	// Reverb.
    
	POIN2	ChasingLeavesNoIntro_grp
    
	POIN2	ChasingLeavesNoIntro_001
	POIN2	ChasingLeavesNoIntro_002
	POIN2	ChasingLeavesNoIntro_003
	POIN2	ChasingLeavesNoIntro_004
	POIN2	ChasingLeavesNoIntro_005
	POIN2	ChasingLeavesNoIntro_006

	
