//Event file generated from Sappy .s format.
	#include "MPlayDef.event"

	#define	ChasingLeavesEnemy_grp  voicegroup000
	#define	ChasingLeavesEnemy_pri  0
	#define	ChasingLeavesEnemy_rev  30
	#define	ChasingLeavesEnemy_mvl  27
	#define	ChasingLeavesEnemy_key  0
	#define	ChasingLeavesEnemy_tbs  1
	#define	ChasingLeavesEnemy_exg  0
	#define	ChasingLeavesEnemy_cmp  1

	// .rodata
	//	ChasingLeavesEnemy
	ALIGN 4

//**************** Track 1 (Midi-Chn.1) ****************//

ChasingLeavesEnemy_1:
	BYTE	KEYSH   ChasingLeavesEnemy_key+0
ChasingLeavesEnemy_1_B1:
// 000   ----------------------------------------
	BYTE	TEMPO   160*ChasingLeavesEnemy_tbs/2
	BYTE		VOICE   55
	BYTE		MODT    0
	BYTE		LFOS    44
	BYTE		PAN     c_v+18
	BYTE		VOL     109*ChasingLeavesEnemy_mvl/mxv
	BYTE		N04     Cs4   v127
	BYTE	W12
	BYTE		N04   
	BYTE	W12
	BYTE		N04   
	BYTE	W12
	BYTE		N04   
	BYTE	W12
	BYTE		        En4 
	BYTE	W06
	BYTE		        Cs4 
	BYTE	W06
	BYTE		N04   
	BYTE	W12
	BYTE		N04   
	BYTE	W12
	BYTE		N04   
	BYTE	W12
// 001   ----------------------------------------
ChasingLeavesEnemy_1_001:
	BYTE		N04     Cs4   v127
	BYTE	W12
	BYTE		N04   
	BYTE	W12
	BYTE		N04   
	BYTE	W12
	BYTE		N04   
	BYTE	W12
	BYTE		        En4 
	BYTE	W06
	BYTE		        Cs4 
	BYTE	W06
	BYTE		N04   
	BYTE	W12
	BYTE		N04   
	BYTE	W12
	BYTE		N04   
	BYTE	W12
	BYTE	PEND
// 002   ----------------------------------------
	BYTE	PATT
	 POIN2	ChasingLeavesEnemy_1_001
// 003   ----------------------------------------
	BYTE	PATT
	 POIN2	ChasingLeavesEnemy_1_001
// 004   ----------------------------------------
	BYTE		N16     An3   v127
	BYTE	W16
	BYTE		        Gs3 
	BYTE	W16
	BYTE		        An3 
	BYTE	W16
	BYTE		N42     Cs3 
	BYTE	W48
// 005   ----------------------------------------
	BYTE		N16     Fs3 
	BYTE	W16
	BYTE		        Gs3 
	BYTE	W16
	BYTE		        An3 
	BYTE	W16
	BYTE		        Bn3 
	BYTE	W16
	BYTE		        An3 
	BYTE	W16
	BYTE		        Fs3 
	BYTE	W16
// 006   ----------------------------------------
	BYTE		        Gs3 
	BYTE	W16
	BYTE		        Fs3 
	BYTE	W16
	BYTE		        Gs3 
	BYTE	W16
	BYTE		N42     En3 
	BYTE	W48
// 007   ----------------------------------------
	BYTE		N16     Fs3 
	BYTE	W16
	BYTE		        Dn3 
	BYTE	W16
	BYTE		        Fs3 
	BYTE	W16
	BYTE		        Gs3 
	BYTE	W16
	BYTE		        An3 
	BYTE	W16
	BYTE		N15     Bn3 
	BYTE	W16
// 008   ----------------------------------------
	BYTE		        An3 
	BYTE	W16
	BYTE		        Gs3 
	BYTE	W16
	BYTE		        An3 
	BYTE	W16
	BYTE		N42     Cs4 
	BYTE	W48
// 009   ----------------------------------------
	BYTE		N15     Dn4 
	BYTE	W16
	BYTE		        Cs4 
	BYTE	W16
	BYTE		        Bn3 
	BYTE	W16
	BYTE		        An3 
	BYTE	W16
	BYTE		        Bn3 
	BYTE	W16
	BYTE		        Ds4 
	BYTE	W16
// 010   ----------------------------------------
	BYTE		        En4 
	BYTE	W16
	BYTE		        Ds4 
	BYTE	W16
	BYTE		        En4 
	BYTE	W16
	BYTE		N42     Cs4 
	BYTE	W48
// 011   ----------------------------------------
	BYTE		N15     An3 
	BYTE	W16
	BYTE		        Bn3 
	BYTE	W16
	BYTE		        Cs4 
	BYTE	W16
	BYTE		        Gs3 
	BYTE	W16
	BYTE		        Fs3 
	BYTE	W16
	BYTE		        Gs3 
	BYTE	W16
// 012   ----------------------------------------
	BYTE		N32     An3 
	BYTE	W36
	BYTE		N05     Gs3 
	BYTE	W06
	BYTE		        An3 
	BYTE	W06
	BYTE		N15     Bn3 
	BYTE	W16
	BYTE		        Cs4 
	BYTE	W16
	BYTE		        Dn4 
	BYTE	W16
// 013   ----------------------------------------
	BYTE		        Cs4 
	BYTE	W16
	BYTE		        Bn3 
	BYTE	W16
	BYTE		        An3 
	BYTE	W16
	BYTE		N32     Dn4 
	BYTE	W36
	BYTE		N05     Cs4 
	BYTE	W06
	BYTE		        Bn3 
	BYTE	W06
// 014   ----------------------------------------
	BYTE		N32     An3 
	BYTE	W36
	BYTE		N05     Fs3 
	BYTE	W06
	BYTE		        Gs3 
	BYTE	W06
	BYTE		N15     An3 
	BYTE	W16
	BYTE		        Gs3 
	BYTE	W16
	BYTE		        Fs3 
	BYTE	W16
// 015   ----------------------------------------
	BYTE		        Gs3 
	BYTE	W16
	BYTE		        An3 
	BYTE	W16
	BYTE		        Bn3 
	BYTE	W16
	BYTE		        Dn4 
	BYTE	W16
	BYTE		        Cs4 
	BYTE	W16
	BYTE		        Bn3 
	BYTE	W16
// 016   ----------------------------------------
	BYTE		N32     Cs4 
	BYTE	W36
	BYTE		N05     An3 
	BYTE	W06
	BYTE		        Bn3 
	BYTE	W06
	BYTE		N15     Cs4 
	BYTE	W16
	BYTE		        Dn4 
	BYTE	W16
	BYTE		        En4 
	BYTE	W16
// 017   ----------------------------------------
	BYTE		        Gn4 
	BYTE	W16
	BYTE		        Fs4 
	BYTE	W16
	BYTE		        Gn4 
	BYTE	W16
	BYTE		N32     Dn4 
	BYTE	W36
	BYTE		N05     Cs4 
	BYTE	W06
	BYTE		        Bn3 
	BYTE	W06
// 018   ----------------------------------------
	BYTE		N15     An3 
	BYTE	W16
	BYTE		        Dn4 
	BYTE	W16
	BYTE		        An3 
	BYTE	W16
	BYTE		        Fs4 
	BYTE	W16
	BYTE		        Dn4 
	BYTE	W16
	BYTE		        Fs4 
	BYTE	W16
// 019   ----------------------------------------
	BYTE		N32     En4 
	BYTE	W36
	BYTE		N05     Dn4 
	BYTE	W06
	BYTE		        Cs4 
	BYTE	W06
	BYTE		N15     Dn4 
	BYTE	W16
	BYTE		        Cs4 
	BYTE	W16
	BYTE		        Bn3 
	BYTE	W16
// 020   ----------------------------------------
	BYTE		N96     Cs4 
	BYTE	W96
// 021   ----------------------------------------
	BYTE		        Dn4 
	BYTE	W96
// 022   ----------------------------------------
	BYTE		        Cs4 
	BYTE	W96
// 023   ----------------------------------------
	BYTE		N90     Dn4 
	BYTE	W96
// 024   ----------------------------------------
	BYTE	W96
// 025   ----------------------------------------
	BYTE	W96
// 026   ----------------------------------------
	BYTE	W96
// 027   ----------------------------------------
	BYTE	W96
// 028   ----------------------------------------
	BYTE	W96
// 029   ----------------------------------------
	BYTE	W96
// 030   ----------------------------------------
	BYTE	W96
// 031   ----------------------------------------
	BYTE	W96
// 032   ----------------------------------------
	BYTE		N15     An3 
	BYTE	W16
	BYTE		        En4 
	BYTE	W16
	BYTE		        Dn4 
	BYTE	W16
	BYTE		        Cs4 
	BYTE	W16
	BYTE		        Bn3 
	BYTE	W16
	BYTE		        Cs4 
	BYTE	W16
// 033   ----------------------------------------
	BYTE		        Dn4 
	BYTE	W16
	BYTE		        Bn3 
	BYTE	W16
	BYTE		        Dn4 
	BYTE	W16
	BYTE		        Gn4 
	BYTE	W16
	BYTE		        Fs4 
	BYTE	W16
	BYTE		        En4 
	BYTE	W16
// 034   ----------------------------------------
	BYTE		N32     Dn4 
	BYTE	W36
	BYTE		N05     An3 
	BYTE	W06
	BYTE		        Dn4 
	BYTE	W06
	BYTE		N15     Fs4 
	BYTE	W16
	BYTE		        En4 
	BYTE	W16
	BYTE		        Dn4 
	BYTE	W16
// 035   ----------------------------------------
	BYTE		N32     En4 
	BYTE	W36
	BYTE		N05     Bn3 
	BYTE	W06
	BYTE		        Gs3 
	BYTE	W06
	BYTE		N42     Bn3 
	BYTE	W48
// 036   ----------------------------------------
	BYTE		N05     An3 
	BYTE	W06
	BYTE		        En3 
	BYTE	W06
	BYTE		        Fs3 
	BYTE	W06
	BYTE		        En3 
	BYTE	W06
	BYTE		        An3 
	BYTE	W06
	BYTE		        Bn3 
	BYTE	W06
	BYTE		        Cs4 
	BYTE	W06
	BYTE		        An3 
	BYTE	W06
	BYTE		N11     En4 
	BYTE	W12
	BYTE		        Dn4 
	BYTE	W12
	BYTE		        Cs4 
	BYTE	W12
	BYTE		        Bn3 
	BYTE	W12
// 037   ----------------------------------------
	BYTE		N32     An3 
	BYTE	W36
	BYTE		N05     Bn3 
	BYTE	W06
	BYTE		        An3 
	BYTE	W06
	BYTE		N15     Gn3 
	BYTE	W16
	BYTE		        Fs3 
	BYTE	W16
	BYTE		        Gn3 
	BYTE	W16
// 038   ----------------------------------------
	BYTE		        Fs3 
	BYTE	W16
	BYTE		        Dn3 
	BYTE	W16
	BYTE		        Fs3 
	BYTE	W16
	BYTE		        An3 
	BYTE	W16
	BYTE		        Fs3 
	BYTE	W16
	BYTE		        An3 
	BYTE	W16
// 039   ----------------------------------------
	BYTE		        Bn3 
	BYTE	W16
	BYTE		        An3 
	BYTE	W16
	BYTE		        Bn3 
	BYTE	W16
	BYTE		        Dn4 
	BYTE	W16
	BYTE		        Cs4 
	BYTE	W16
	BYTE		        Dn4 
	BYTE	W16
// 040   ----------------------------------------
	BYTE		N90     Cs4 
	BYTE	W96
// 041   ----------------------------------------
	BYTE	W96
// 042   ----------------------------------------
	BYTE	W96
// 043   ----------------------------------------
	BYTE	W92
	BYTE	W03
	BYTE	GoTo
	 POIN2	ChasingLeavesEnemy_1_B1
ChasingLeavesEnemy_1_B2:
	BYTE	FINE

//**************** Track 2 (Midi-Chn.2) ****************//

ChasingLeavesEnemy_2:
	BYTE	KEYSH   ChasingLeavesEnemy_key+0
ChasingLeavesEnemy_2_B1:
// 000   ----------------------------------------
	BYTE		VOICE   30
	BYTE		MODT    0
	BYTE		LFOS    44
	BYTE		PAN     c_v-8
	BYTE		VOL     98*ChasingLeavesEnemy_mvl/mxv
	BYTE		N11     Cs1   v127
	BYTE	W12
	BYTE		N11   
	BYTE	W12
	BYTE		N11   
	BYTE	W12
	BYTE		N11   
	BYTE	W12
	BYTE		N11   
	BYTE	W12
	BYTE		N11   
	BYTE	W12
	BYTE		N11   
	BYTE	W12
	BYTE		N11   
	BYTE	W12
// 001   ----------------------------------------
ChasingLeavesEnemy_2_001:
	BYTE		N11     Cs1   v127
	BYTE	W12
	BYTE		N11   
	BYTE	W12
	BYTE		N11   
	BYTE	W12
	BYTE		N11   
	BYTE	W12
	BYTE		N11   
	BYTE	W12
	BYTE		N11   
	BYTE	W12
	BYTE		N11   
	BYTE	W12
	BYTE		N11   
	BYTE	W12
	BYTE	PEND
// 002   ----------------------------------------
ChasingLeavesEnemy_2_002:
	BYTE		N11     Dn1   v127
	BYTE	W12
	BYTE		N11   
	BYTE	W12
	BYTE		N11   
	BYTE	W12
	BYTE		N11   
	BYTE	W12
	BYTE		N11   
	BYTE	W12
	BYTE		N11   
	BYTE	W12
	BYTE		N11   
	BYTE	W12
	BYTE		N11   
	BYTE	W12
	BYTE	PEND
// 003   ----------------------------------------
	BYTE		        Cs1 
	BYTE	W12
	BYTE		N11   
	BYTE	W12
	BYTE		N11   
	BYTE	W12
	BYTE		N11   
	BYTE	W12
	BYTE		N11   
	BYTE	W12
	BYTE		N11   
	BYTE	W12
	BYTE		N05   
	BYTE	W06
	BYTE		        Dn1 
	BYTE	W06
	BYTE		        Fn1 
	BYTE	W06
	BYTE		        Gs1 
	BYTE	W06
// 004   ----------------------------------------
ChasingLeavesEnemy_2_004:
	BYTE		N11     Fs1   v127
	BYTE	W12
	BYTE		N11   
	BYTE	W12
	BYTE		N05     An1 
	BYTE	W06
	BYTE		N11     Fs1 
	BYTE	W12
	BYTE		N05   
	BYTE	W06
	BYTE		N11   
	BYTE	W12
	BYTE		        Cs2 
	BYTE	W12
	BYTE		        An1 
	BYTE	W12
	BYTE		        Cs2 
	BYTE	W12
	BYTE	PEND
// 005   ----------------------------------------
ChasingLeavesEnemy_2_005:
	BYTE		N11     Dn1   v127
	BYTE	W12
	BYTE		N11   
	BYTE	W12
	BYTE		N05     Fs1 
	BYTE	W06
	BYTE		N11     Dn1 
	BYTE	W12
	BYTE		N05   
	BYTE	W06
	BYTE		N11     Bn1 
	BYTE	W12
	BYTE		        An1 
	BYTE	W12
	BYTE		        Gs1 
	BYTE	W12
	BYTE		        Fs1 
	BYTE	W12
	BYTE	PEND
// 006   ----------------------------------------
ChasingLeavesEnemy_2_006:
	BYTE		N11     En1   v127
	BYTE	W12
	BYTE		N11   
	BYTE	W12
	BYTE		N05     Gs1 
	BYTE	W06
	BYTE		N11     En1 
	BYTE	W12
	BYTE		N05   
	BYTE	W06
	BYTE		N11     Gs1 
	BYTE	W12
	BYTE		        Cs2 
	BYTE	W12
	BYTE		        Gs1 
	BYTE	W12
	BYTE		        Cs2 
	BYTE	W12
	BYTE	PEND
// 007   ----------------------------------------
ChasingLeavesEnemy_2_007:
	BYTE		N11     An1   v127
	BYTE	W12
	BYTE		        Fs1 
	BYTE	W12
	BYTE		        Dn1 
	BYTE	W12
	BYTE		        Fs1 
	BYTE	W12
	BYTE		        Gs1 
	BYTE	W12
	BYTE		        Fs1 
	BYTE	W12
	BYTE		        En1 
	BYTE	W12
	BYTE		        Gs1 
	BYTE	W12
	BYTE	PEND
// 008   ----------------------------------------
	BYTE	PATT
	 POIN2	ChasingLeavesEnemy_2_004
// 009   ----------------------------------------
	BYTE	PATT
	 POIN2	ChasingLeavesEnemy_2_005
// 010   ----------------------------------------
	BYTE	PATT
	 POIN2	ChasingLeavesEnemy_2_006
// 011   ----------------------------------------
	BYTE	PATT
	 POIN2	ChasingLeavesEnemy_2_007
// 012   ----------------------------------------
ChasingLeavesEnemy_2_012:
	BYTE		N05     An1   v127
	BYTE	W06
	BYTE		N11     An0 
	BYTE	W12
	BYTE		N05   
	BYTE	W06
	BYTE		        An1 
	BYTE	W06
	BYTE		N11     An0 
	BYTE	W12
	BYTE		N05   
	BYTE	W06
	BYTE		N11     En1 
	BYTE	W12
	BYTE		        An1 
	BYTE	W12
	BYTE		        Cs1 
	BYTE	W12
	BYTE		        En1 
	BYTE	W12
	BYTE	PEND
// 013   ----------------------------------------
ChasingLeavesEnemy_2_013:
	BYTE		N05     Gn1   v127
	BYTE	W06
	BYTE		N11     Gn0 
	BYTE	W12
	BYTE		N05   
	BYTE	W06
	BYTE		        Gn1 
	BYTE	W06
	BYTE		N11     Gn0 
	BYTE	W12
	BYTE		N05   
	BYTE	W06
	BYTE		N11     Dn1 
	BYTE	W12
	BYTE		        Gn1 
	BYTE	W12
	BYTE		        Bn0 
	BYTE	W12
	BYTE		        Dn1 
	BYTE	W12
	BYTE	PEND
// 014   ----------------------------------------
ChasingLeavesEnemy_2_014:
	BYTE		N11     Fs1   v127
	BYTE	W12
	BYTE		        Dn1 
	BYTE	W12
	BYTE		        An0 
	BYTE	W12
	BYTE		        Dn1 
	BYTE	W12
	BYTE		        Fs1 
	BYTE	W12
	BYTE		        An1 
	BYTE	W12
	BYTE		        Gn1 
	BYTE	W12
	BYTE		        Fs1 
	BYTE	W12
	BYTE	PEND
// 015   ----------------------------------------
ChasingLeavesEnemy_2_015:
	BYTE		N11     En1   v127
	BYTE	W12
	BYTE		        Bn0 
	BYTE	W12
	BYTE		        En1 
	BYTE	W12
	BYTE		        Fs1 
	BYTE	W12
	BYTE		        Gs1 
	BYTE	W12
	BYTE		        Bn1 
	BYTE	W12
	BYTE		        Gs1 
	BYTE	W12
	BYTE		        En1 
	BYTE	W12
	BYTE	PEND
// 016   ----------------------------------------
	BYTE	PATT
	 POIN2	ChasingLeavesEnemy_2_012
// 017   ----------------------------------------
	BYTE	PATT
	 POIN2	ChasingLeavesEnemy_2_013
// 018   ----------------------------------------
	BYTE	PATT
	 POIN2	ChasingLeavesEnemy_2_014
// 019   ----------------------------------------
	BYTE	PATT
	 POIN2	ChasingLeavesEnemy_2_015
// 020   ----------------------------------------
ChasingLeavesEnemy_2_020:
	BYTE		N04     Cs1   v127
	BYTE	W12
	BYTE		N04   
	BYTE	W12
	BYTE		        Cs2 
	BYTE	W06
	BYTE		        Cs1 
	BYTE	W12
	BYTE		N04   
	BYTE	W06
	BYTE		N04   
	BYTE	W12
	BYTE		N04   
	BYTE	W12
	BYTE		        Cs2 
	BYTE	W06
	BYTE		        Cs1 
	BYTE	W12
	BYTE		N04   
	BYTE	W06
	BYTE	PEND
// 021   ----------------------------------------
ChasingLeavesEnemy_2_021:
	BYTE		N04     Dn1   v127
	BYTE	W12
	BYTE		N04   
	BYTE	W12
	BYTE		        Dn2 
	BYTE	W06
	BYTE		        Dn1 
	BYTE	W12
	BYTE		N04   
	BYTE	W06
	BYTE		N04   
	BYTE	W12
	BYTE		N04   
	BYTE	W12
	BYTE		        Dn2 
	BYTE	W06
	BYTE		        Dn1 
	BYTE	W12
	BYTE		N04   
	BYTE	W06
	BYTE	PEND
// 022   ----------------------------------------
	BYTE	PATT
	 POIN2	ChasingLeavesEnemy_2_020
// 023   ----------------------------------------
	BYTE	PATT
	 POIN2	ChasingLeavesEnemy_2_021
// 024   ----------------------------------------
ChasingLeavesEnemy_2_024:
	BYTE		N11     Cs1   v127
	BYTE	W12
	BYTE		N11   
	BYTE	W12
	BYTE		N05     Cs2 
	BYTE	W06
	BYTE		N11     Cs1 
	BYTE	W12
	BYTE		N05   
	BYTE	W06
	BYTE		N11   
	BYTE	W12
	BYTE		N11   
	BYTE	W12
	BYTE		N05     Cs2 
	BYTE	W06
	BYTE		N11     Cs1 
	BYTE	W12
	BYTE		N05   
	BYTE	W06
	BYTE	PEND
// 025   ----------------------------------------
	BYTE	PATT
	 POIN2	ChasingLeavesEnemy_2_024
// 026   ----------------------------------------
	BYTE	PATT
	 POIN2	ChasingLeavesEnemy_2_024
// 027   ----------------------------------------
	BYTE	PATT
	 POIN2	ChasingLeavesEnemy_2_024
// 028   ----------------------------------------
	BYTE	PATT
	 POIN2	ChasingLeavesEnemy_2_024
// 029   ----------------------------------------
	BYTE	PATT
	 POIN2	ChasingLeavesEnemy_2_024
// 030   ----------------------------------------
	BYTE	PATT
	 POIN2	ChasingLeavesEnemy_2_024
// 031   ----------------------------------------
	BYTE	PATT
	 POIN2	ChasingLeavesEnemy_2_024
// 032   ----------------------------------------
	BYTE	PATT
	 POIN2	ChasingLeavesEnemy_2_012
// 033   ----------------------------------------
	BYTE	PATT
	 POIN2	ChasingLeavesEnemy_2_013
// 034   ----------------------------------------
	BYTE	PATT
	 POIN2	ChasingLeavesEnemy_2_014
// 035   ----------------------------------------
	BYTE	PATT
	 POIN2	ChasingLeavesEnemy_2_015
// 036   ----------------------------------------
	BYTE	PATT
	 POIN2	ChasingLeavesEnemy_2_012
// 037   ----------------------------------------
	BYTE	PATT
	 POIN2	ChasingLeavesEnemy_2_013
// 038   ----------------------------------------
	BYTE	PATT
	 POIN2	ChasingLeavesEnemy_2_014
// 039   ----------------------------------------
	BYTE	PATT
	 POIN2	ChasingLeavesEnemy_2_015
// 040   ----------------------------------------
	BYTE	PATT
	 POIN2	ChasingLeavesEnemy_2_001
// 041   ----------------------------------------
	BYTE	PATT
	 POIN2	ChasingLeavesEnemy_2_001
// 042   ----------------------------------------
	BYTE	PATT
	 POIN2	ChasingLeavesEnemy_2_002
// 043   ----------------------------------------
	BYTE		N11     Cs1   v127
	BYTE	W12
	BYTE		N11   
	BYTE	W12
	BYTE		N11   
	BYTE	W12
	BYTE		N11   
	BYTE	W12
	BYTE		N11   
	BYTE	W12
	BYTE		N11   
	BYTE	W12
	BYTE		N11   
	BYTE	W12
	BYTE		N11   
	BYTE	W11
	BYTE	GoTo
	 POIN2	ChasingLeavesEnemy_2_B1
ChasingLeavesEnemy_2_B2:
	BYTE	FINE

//**************** Track 3 (Midi-Chn.3) ****************//

ChasingLeavesEnemy_3:
	BYTE	KEYSH   ChasingLeavesEnemy_key+0
ChasingLeavesEnemy_3_B1:
// 000   ----------------------------------------
	BYTE		VOICE   54
	BYTE		MODT    0
	BYTE		LFOS    44
	BYTE		PAN     c_v-23
	BYTE		VOL     127*ChasingLeavesEnemy_mvl/mxv
	BYTE		TIE     Cs3   v076
	BYTE		N90     En3 
	BYTE		N90     Gs3 
	BYTE	W96
// 001   ----------------------------------------
ChasingLeavesEnemy_3_001:
	BYTE		TIE     Fs3   v076
	BYTE		TIE     An3 
	BYTE	W90
	BYTE	PEND
	BYTE		EOT     Cs3 
	BYTE	W06
// 002   ----------------------------------------
	BYTE		N90     Dn3 
	BYTE	W90
	BYTE		EOT     Fs3 
	BYTE		        An3 
	BYTE	W06
// 003   ----------------------------------------
	BYTE		N90     Cs3 
	BYTE		N90     Fn3 
	BYTE		N90     Gs3 
	BYTE	W96
// 004   ----------------------------------------
ChasingLeavesEnemy_3_004:
	BYTE		N96     Cs3   v076
	BYTE		TIE     Fs3 
	BYTE		TIE     An3 
	BYTE	W96
	BYTE	PEND
// 005   ----------------------------------------
ChasingLeavesEnemy_3_005:
	BYTE		N48     Dn3   v076
	BYTE	W48
	BYTE		        Ds3 
	BYTE		N48     Bn3 
	BYTE	W42
	BYTE	PEND
	BYTE		EOT     Fs3 
	BYTE		        An3 
	BYTE	W06
// 006   ----------------------------------------
	BYTE		N96     En3 
	BYTE		N96     Gs3 
	BYTE		N96     Cs4 
	BYTE	W96
// 007   ----------------------------------------
	BYTE		N48     Dn3 
	BYTE		N48     Fs3 
	BYTE		N48     An3 
	BYTE	W48
	BYTE		        Bn2 
	BYTE		N48     En3 
	BYTE		N48     Gs3 
	BYTE	W48
// 008   ----------------------------------------
	BYTE	PATT
	 POIN2	ChasingLeavesEnemy_3_004
// 009   ----------------------------------------
	BYTE	PATT
	 POIN2	ChasingLeavesEnemy_3_005
	BYTE		EOT     Fs3 
	BYTE		        An3 
	BYTE	W06
// 010   ----------------------------------------
	BYTE		N96     En3   v076
	BYTE		N96     Gs3 
	BYTE		N96     Cs4 
	BYTE	W96
// 011   ----------------------------------------
	BYTE		N48     Dn3 
	BYTE		N48     Fs3 
	BYTE		N48     An3 
	BYTE	W48
	BYTE		N42     Bn2 
	BYTE		N42     En3 
	BYTE		N42     Gs3 
	BYTE	W48
// 012   ----------------------------------------
ChasingLeavesEnemy_3_012:
	BYTE		N96     Cs3   v076
	BYTE		N96     En3 
	BYTE		TIE     An3 
	BYTE	W96
	BYTE	PEND
// 013   ----------------------------------------
ChasingLeavesEnemy_3_013:
	BYTE		N96     Bn2   v076
	BYTE		TIE     Dn3 
	BYTE		N96     Gn3 
	BYTE	W96
	BYTE	PEND
// 014   ----------------------------------------
	BYTE		        Fs3 
	BYTE	W96
	BYTE		EOT     Dn3 
	BYTE		        An3 
// 015   ----------------------------------------
ChasingLeavesEnemy_3_015:
	BYTE		N48     En3   v076
	BYTE		N90     Gs3 
	BYTE		N90     Bn3 
	BYTE	W48
	BYTE		N48     Dn3 
	BYTE	W48
	BYTE	PEND
// 016   ----------------------------------------
	BYTE	PATT
	 POIN2	ChasingLeavesEnemy_3_012
// 017   ----------------------------------------
	BYTE	PATT
	 POIN2	ChasingLeavesEnemy_3_013
// 018   ----------------------------------------
	BYTE		N96     Fs3   v076
	BYTE	W96
	BYTE		EOT     Dn3 
	BYTE		        An3 
// 019   ----------------------------------------
ChasingLeavesEnemy_3_019:
	BYTE		N48     En3   v076
	BYTE		N90     Gs3 
	BYTE		N90     Bn3 
	BYTE	W48
	BYTE		N42     Dn3 
	BYTE	W48
	BYTE	PEND
// 020   ----------------------------------------
	BYTE		N96     En3 
	BYTE		N96     Gs3 
	BYTE		N96     Cs4 
	BYTE	W96
// 021   ----------------------------------------
	BYTE		        Fs3 
	BYTE		N96     An3 
	BYTE		N96     Dn4 
	BYTE	W96
// 022   ----------------------------------------
	BYTE		        En3 
	BYTE		N96     Gs3 
	BYTE		N96     Cs4 
	BYTE	W96
// 023   ----------------------------------------
	BYTE		N90     Fs3 
	BYTE		N90     An3 
	BYTE		N90     Dn4 
	BYTE	W96
// 024   ----------------------------------------
	BYTE	W96
// 025   ----------------------------------------
	BYTE	W96
// 026   ----------------------------------------
	BYTE	W96
// 027   ----------------------------------------
	BYTE	W96
// 028   ----------------------------------------
	BYTE	W96
// 029   ----------------------------------------
	BYTE	W96
// 030   ----------------------------------------
	BYTE	W96
// 031   ----------------------------------------
	BYTE	W96
// 032   ----------------------------------------
	BYTE	PATT
	 POIN2	ChasingLeavesEnemy_3_012
// 033   ----------------------------------------
	BYTE	PATT
	 POIN2	ChasingLeavesEnemy_3_013
// 034   ----------------------------------------
	BYTE		N96     Fs3   v076
	BYTE	W96
	BYTE		EOT     Dn3 
	BYTE		        An3 
// 035   ----------------------------------------
	BYTE	PATT
	 POIN2	ChasingLeavesEnemy_3_015
// 036   ----------------------------------------
	BYTE	PATT
	 POIN2	ChasingLeavesEnemy_3_012
// 037   ----------------------------------------
	BYTE	PATT
	 POIN2	ChasingLeavesEnemy_3_013
// 038   ----------------------------------------
	BYTE		N96     Fs3   v076
	BYTE	W96
	BYTE		EOT     Dn3 
	BYTE		        An3 
// 039   ----------------------------------------
	BYTE	PATT
	 POIN2	ChasingLeavesEnemy_3_019
// 040   ----------------------------------------
	BYTE		TIE     Cs3   v076
	BYTE		N90     En3 
	BYTE		N90     Gs3 
	BYTE	W96
// 041   ----------------------------------------
	BYTE	PATT
	 POIN2	ChasingLeavesEnemy_3_001
	BYTE		EOT     Cs3 
	BYTE	W06
// 042   ----------------------------------------
	BYTE		N90     Dn3   v076
	BYTE	W90
	BYTE		EOT     Fs3 
	BYTE		        An3 
	BYTE	W06
// 043   ----------------------------------------
	BYTE		N90     Cs3 
	BYTE		N90     Fn3 
	BYTE		N90     Gs3 
	BYTE	W92
	BYTE	W03
	BYTE	GoTo
	 POIN2	ChasingLeavesEnemy_3_B1
ChasingLeavesEnemy_3_B2:
	BYTE	FINE

//**************** Track 4 (Midi-Chn.4) ****************//

ChasingLeavesEnemy_4:
	BYTE	KEYSH   ChasingLeavesEnemy_key+0
ChasingLeavesEnemy_4_B1:
// 000   ----------------------------------------
	BYTE		VOICE   127
	BYTE		MODT    0
	BYTE		LFOS    44
	BYTE		VOL     127*ChasingLeavesEnemy_mvl/mxv
	BYTE		PAN     c_v+0
	BYTE		N11     Bn0   v127
	BYTE		N11     Cn1 
	BYTE		N11     As1 
	BYTE	W12
	BYTE		N05     Fs1 
	BYTE	W06
	BYTE		N05   
	BYTE	W06
	BYTE		N11     Bn0 
	BYTE		N11     Cn1 
	BYTE		N11     As1 
	BYTE	W12
	BYTE		N05     Fs1 
	BYTE	W06
	BYTE		N05   
	BYTE	W06
	BYTE		N11     Bn0 
	BYTE		N11     Cn1 
	BYTE		N11     As1 
	BYTE	W12
	BYTE		N05     Fs1 
	BYTE	W06
	BYTE		N05   
	BYTE	W06
	BYTE		N11     Bn0 
	BYTE		N11     Cn1 
	BYTE		N11     Dn1 
	BYTE		N11     En1 
	BYTE		N11     As1 
	BYTE	W12
	BYTE		N05     Fs1 
	BYTE	W06
	BYTE		N05   
	BYTE	W06
// 001   ----------------------------------------
ChasingLeavesEnemy_4_001:
	BYTE		N11     Bn0   v127
	BYTE		N11     Cn1 
	BYTE		N11     As1 
	BYTE	W12
	BYTE		N05     Fs1 
	BYTE	W06
	BYTE		N05   
	BYTE	W06
	BYTE		N11     Bn0 
	BYTE		N11     Cn1 
	BYTE		N11     As1 
	BYTE	W12
	BYTE		N05     Fs1 
	BYTE	W06
	BYTE		N05   
	BYTE	W06
	BYTE		N11     Bn0 
	BYTE		N11     Cn1 
	BYTE		N11     As1 
	BYTE	W12
	BYTE		N05     Fs1 
	BYTE	W06
	BYTE		N05   
	BYTE	W06
	BYTE		N11     Bn0 
	BYTE		N11     Cn1 
	BYTE		N11     Dn1 
	BYTE		N11     En1 
	BYTE		N11     As1 
	BYTE	W12
	BYTE		N05     Dn1 
	BYTE		N05     En1 
	BYTE		N05     Fs1 
	BYTE	W06
	BYTE		N05   
	BYTE	W06
	BYTE	PEND
// 002   ----------------------------------------
ChasingLeavesEnemy_4_002:
	BYTE		N11     Bn0   v127
	BYTE		N11     Cn1 
	BYTE		N11     As1 
	BYTE	W12
	BYTE		N05     Fs1 
	BYTE	W06
	BYTE		N05   
	BYTE	W06
	BYTE		N11     Bn0 
	BYTE		N11     Cn1 
	BYTE		N11     As1 
	BYTE	W12
	BYTE		N05     Fs1 
	BYTE	W06
	BYTE		N05   
	BYTE	W06
	BYTE		N11     Bn0 
	BYTE		N11     Cn1 
	BYTE		N11     As1 
	BYTE	W12
	BYTE		N05     Fs1 
	BYTE	W06
	BYTE		N05   
	BYTE	W06
	BYTE		N11     Bn0 
	BYTE		N11     Cn1 
	BYTE		N11     Dn1 
	BYTE		N11     En1 
	BYTE		N11     As1 
	BYTE	W12
	BYTE		N05     Fs1 
	BYTE	W06
	BYTE		N05   
	BYTE	W06
	BYTE	PEND
// 003   ----------------------------------------
ChasingLeavesEnemy_4_003:
	BYTE		N11     Bn0   v127
	BYTE		N11     Cn1 
	BYTE		N11     As1 
	BYTE	W12
	BYTE		N05     Fs1 
	BYTE	W06
	BYTE		N05   
	BYTE	W06
	BYTE		N11     Bn0 
	BYTE		N11     Cn1 
	BYTE		N11     As1 
	BYTE	W12
	BYTE		N05     Fs1 
	BYTE	W06
	BYTE		N05   
	BYTE	W06
	BYTE		N11     Bn0 
	BYTE		N11     Cn1 
	BYTE		N11     As1 
	BYTE	W12
	BYTE		N05     Fs1 
	BYTE	W06
	BYTE		N05   
	BYTE	W06
	BYTE		        Bn0 
	BYTE		N05     Cn1 
	BYTE		N05     Dn1 
	BYTE		N05     En1 
	BYTE		N05     As1 
	BYTE		N05     Dn2 
	BYTE	W06
	BYTE		        Dn1 
	BYTE		N05     En1 
	BYTE		N05     Cn2 
	BYTE	W06
	BYTE		        Dn1 
	BYTE		N05     En1 
	BYTE		N05     Fs1 
	BYTE		N05     Bn1 
	BYTE	W06
	BYTE		        Dn1 
	BYTE		N05     En1 
	BYTE		N05     Fs1 
	BYTE		N05     An1 
	BYTE	W06
	BYTE	PEND
// 004   ----------------------------------------
ChasingLeavesEnemy_4_004:
	BYTE		N05     Bn0   v127
	BYTE		N05     Cn1 
	BYTE		N05     Fs1 
	BYTE		N05     An2 
	BYTE	W06
	BYTE		        Gs1 
	BYTE	W06
	BYTE		        Bn0 
	BYTE		N05     Cn1 
	BYTE		N05     As1 
	BYTE	W06
	BYTE		        Gs1 
	BYTE	W06
	BYTE		        Dn1 
	BYTE		N05     En1 
	BYTE		N05     Fs1 
	BYTE		N05     Bn1 
	BYTE		N05     Cn2 
	BYTE		N05     Dn2 
	BYTE	W06
	BYTE		        Bn0 
	BYTE		N05     Cn1 
	BYTE		N05     Gs1 
	BYTE	W06
	BYTE		        As1 
	BYTE	W06
	BYTE		        Bn0 
	BYTE		N05     Cn1 
	BYTE		N05     Gs1 
	BYTE	W06
	BYTE		        Bn0 
	BYTE		N05     Cn1 
	BYTE		N05     Fs1 
	BYTE	W06
	BYTE		        Gs1 
	BYTE	W06
	BYTE		        Bn0 
	BYTE		N05     Cn1 
	BYTE		N05     As1 
	BYTE	W06
	BYTE		        Gs1 
	BYTE	W06
	BYTE		        Dn1 
	BYTE		N05     En1 
	BYTE		N05     Fs1 
	BYTE		N05     Bn1 
	BYTE		N05     Cn2 
	BYTE		N05     Dn2 
	BYTE	W06
	BYTE		        Bn0 
	BYTE		N05     Cn1 
	BYTE		N05     Gs1 
	BYTE	W06
	BYTE		        As1 
	BYTE	W06
	BYTE		        Bn0 
	BYTE		N05     Cn1 
	BYTE		N05     Gs1 
	BYTE	W06
	BYTE	PEND
// 005   ----------------------------------------
ChasingLeavesEnemy_4_005:
	BYTE		N05     Bn0   v127
	BYTE		N05     Cn1 
	BYTE		N05     Fs1 
	BYTE	W06
	BYTE		        Gs1 
	BYTE	W06
	BYTE		        Bn0 
	BYTE		N05     Cn1 
	BYTE		N05     As1 
	BYTE	W06
	BYTE		        Gs1 
	BYTE	W06
	BYTE		        Dn1 
	BYTE		N05     En1 
	BYTE		N05     Fs1 
	BYTE		N05     Bn1 
	BYTE		N05     Cn2 
	BYTE		N05     Dn2 
	BYTE	W06
	BYTE		        Bn0 
	BYTE		N05     Cn1 
	BYTE		N05     Gs1 
	BYTE	W06
	BYTE		        As1 
	BYTE	W06
	BYTE		        Bn0 
	BYTE		N05     Cn1 
	BYTE		N05     Gs1 
	BYTE	W06
	BYTE		        Bn0 
	BYTE		N05     Cn1 
	BYTE		N05     Fs1 
	BYTE	W06
	BYTE		        Gs1 
	BYTE	W06
	BYTE		        Bn0 
	BYTE		N05     Cn1 
	BYTE		N05     As1 
	BYTE	W06
	BYTE		        Gs1 
	BYTE	W06
	BYTE		        Dn1 
	BYTE		N05     En1 
	BYTE		N05     Fs1 
	BYTE		N05     Bn1 
	BYTE		N05     Cn2 
	BYTE		N05     Dn2 
	BYTE	W06
	BYTE		        Bn0 
	BYTE		N05     Cn1 
	BYTE		N05     Gs1 
	BYTE	W06
	BYTE		        As1 
	BYTE	W06
	BYTE		        Bn0 
	BYTE		N05     Cn1 
	BYTE		N05     Gs1 
	BYTE	W06
	BYTE	PEND
// 006   ----------------------------------------
	BYTE	PATT
	 POIN2	ChasingLeavesEnemy_4_005
// 007   ----------------------------------------
ChasingLeavesEnemy_4_007:
	BYTE		N05     Bn0   v127
	BYTE		N05     Cn1 
	BYTE		N05     Fs1 
	BYTE	W06
	BYTE		        Gs1 
	BYTE	W06
	BYTE		        Bn0 
	BYTE		N05     Cn1 
	BYTE		N05     As1 
	BYTE	W06
	BYTE		        Gs1 
	BYTE	W06
	BYTE		        Dn1 
	BYTE		N05     En1 
	BYTE		N05     Fs1 
	BYTE		N05     Bn1 
	BYTE		N05     Cn2 
	BYTE		N05     Dn2 
	BYTE	W06
	BYTE		        Bn0 
	BYTE		N05     Cn1 
	BYTE		N05     Gs1 
	BYTE	W06
	BYTE		        As1 
	BYTE	W06
	BYTE		        Bn0 
	BYTE		N05     Cn1 
	BYTE		N05     Gs1 
	BYTE	W06
	BYTE		        Bn0 
	BYTE		N05     Cn1 
	BYTE		N05     Fs1 
	BYTE	W06
	BYTE		        Gs1 
	BYTE	W06
	BYTE		        Bn0 
	BYTE		N05     Cn1 
	BYTE		N05     As1 
	BYTE	W06
	BYTE		        Gs1 
	BYTE	W06
	BYTE		        Dn1 
	BYTE		N05     En1 
	BYTE		N05     Fs1 
	BYTE		N05     Bn1 
	BYTE		N05     Cn2 
	BYTE		N05     Dn2 
	BYTE	W06
	BYTE		        Bn0 
	BYTE		N05     Cn1 
	BYTE		N05     Gs1 
	BYTE	W06
	BYTE		        Dn1 
	BYTE		N05     En1 
	BYTE		N05     As1 
	BYTE		N05     Bn1 
	BYTE		N05     Cn2 
	BYTE		N05     Dn2 
	BYTE	W06
	BYTE		        Bn0 
	BYTE		N05     Cn1 
	BYTE		N05     Gs1 
	BYTE	W06
	BYTE	PEND
// 008   ----------------------------------------
	BYTE	PATT
	 POIN2	ChasingLeavesEnemy_4_005
// 009   ----------------------------------------
	BYTE	PATT
	 POIN2	ChasingLeavesEnemy_4_005
// 010   ----------------------------------------
	BYTE	PATT
	 POIN2	ChasingLeavesEnemy_4_005
// 011   ----------------------------------------
ChasingLeavesEnemy_4_011:
	BYTE		N05     Bn0   v127
	BYTE		N05     Cn1 
	BYTE		N05     Fs1 
	BYTE	W06
	BYTE		        Gs1 
	BYTE	W06
	BYTE		        Bn0 
	BYTE		N05     Cn1 
	BYTE		N05     As1 
	BYTE	W06
	BYTE		        Gs1 
	BYTE	W06
	BYTE		        Dn1 
	BYTE		N05     En1 
	BYTE		N05     Fs1 
	BYTE		N05     Bn1 
	BYTE		N05     Cn2 
	BYTE		N05     Dn2 
	BYTE	W06
	BYTE		        Bn0 
	BYTE		N05     Cn1 
	BYTE		N05     Gs1 
	BYTE	W06
	BYTE		        As1 
	BYTE	W06
	BYTE		        Bn0 
	BYTE		N05     Cn1 
	BYTE		N05     Gs1 
	BYTE	W06
	BYTE		        Bn0 
	BYTE		N05     Cn1 
	BYTE		N05     Fs1 
	BYTE	W06
	BYTE		        Gs1 
	BYTE	W06
	BYTE		        Bn0 
	BYTE		N05     Cn1 
	BYTE		N05     As1 
	BYTE	W06
	BYTE		        Gs1 
	BYTE	W06
	BYTE		        Dn1 
	BYTE		N05     En1 
	BYTE		N05     Fs1 
	BYTE		N05     Bn1 
	BYTE		N05     Cn2 
	BYTE		N05     Dn2 
	BYTE	W06
	BYTE		        Bn0 
	BYTE		N05     Cn1 
	BYTE		N05     Dn1 
	BYTE		N05     En1 
	BYTE		N05     Gs1 
	BYTE		N05     Bn1 
	BYTE		N05     Cn2 
	BYTE		N05     Dn2 
	BYTE	W06
	BYTE		        Dn1 
	BYTE		N05     En1 
	BYTE		N05     As1 
	BYTE		N05     Bn1 
	BYTE		N05     Cn2 
	BYTE		N05     Dn2 
	BYTE	W06
	BYTE		        Bn0 
	BYTE		N05     Cn1 
	BYTE		N05     Dn1 
	BYTE		N05     En1 
	BYTE		N05     Gs1 
	BYTE		N05     Bn1 
	BYTE		N05     Cn2 
	BYTE		N05     Dn2 
	BYTE	W06
	BYTE	PEND
// 012   ----------------------------------------
	BYTE	PATT
	 POIN2	ChasingLeavesEnemy_4_004
// 013   ----------------------------------------
	BYTE	PATT
	 POIN2	ChasingLeavesEnemy_4_005
// 014   ----------------------------------------
	BYTE	PATT
	 POIN2	ChasingLeavesEnemy_4_005
// 015   ----------------------------------------
	BYTE	PATT
	 POIN2	ChasingLeavesEnemy_4_007
// 016   ----------------------------------------
	BYTE	PATT
	 POIN2	ChasingLeavesEnemy_4_005
// 017   ----------------------------------------
	BYTE	PATT
	 POIN2	ChasingLeavesEnemy_4_005
// 018   ----------------------------------------
	BYTE	PATT
	 POIN2	ChasingLeavesEnemy_4_005
// 019   ----------------------------------------
	BYTE	PATT
	 POIN2	ChasingLeavesEnemy_4_011
// 020   ----------------------------------------
	BYTE	PATT
	 POIN2	ChasingLeavesEnemy_4_002
// 021   ----------------------------------------
	BYTE	PATT
	 POIN2	ChasingLeavesEnemy_4_001
// 022   ----------------------------------------
	BYTE	PATT
	 POIN2	ChasingLeavesEnemy_4_002
// 023   ----------------------------------------
	BYTE	PATT
	 POIN2	ChasingLeavesEnemy_4_003
// 024   ----------------------------------------
ChasingLeavesEnemy_4_024:
	BYTE		N05     Cn1   v127
	BYTE		N05     Fs1 
	BYTE	W06
	BYTE		        Gs1 
	BYTE	W06
	BYTE		        As1 
	BYTE	W06
	BYTE		        Gs1 
	BYTE	W06
	BYTE		        En1 
	BYTE		N05     Fs1 
	BYTE	W06
	BYTE		        Gs1 
	BYTE	W06
	BYTE		        As1 
	BYTE	W06
	BYTE		        Gs1 
	BYTE	W06
	BYTE		        Cn1 
	BYTE		N05     Fs1 
	BYTE	W06
	BYTE		        Gs1 
	BYTE	W06
	BYTE		        As1 
	BYTE	W06
	BYTE		        Gs1 
	BYTE	W06
	BYTE		        En1 
	BYTE		N05     Fs1 
	BYTE	W06
	BYTE		        Gs1 
	BYTE	W06
	BYTE		        En1 
	BYTE		N05     As1 
	BYTE	W06
	BYTE		        Gs1 
	BYTE	W06
	BYTE	PEND
// 025   ----------------------------------------
ChasingLeavesEnemy_4_025:
	BYTE		N05     Cn1   v127
	BYTE		N05     Fs1 
	BYTE	W06
	BYTE		        Gs1 
	BYTE	W06
	BYTE		        As1 
	BYTE	W06
	BYTE		        Gs1 
	BYTE	W06
	BYTE		        En1 
	BYTE		N05     Fs1 
	BYTE	W06
	BYTE		        Gs1 
	BYTE	W06
	BYTE		        As1 
	BYTE	W06
	BYTE		        Gs1 
	BYTE	W06
	BYTE		        Cn1 
	BYTE		N05     Fs1 
	BYTE	W06
	BYTE		        En1 
	BYTE		N05     Gs1 
	BYTE	W06
	BYTE		        As1 
	BYTE	W06
	BYTE		        Gs1 
	BYTE	W06
	BYTE		        En1 
	BYTE		N05     Fs1 
	BYTE	W06
	BYTE		        Gs1 
	BYTE	W06
	BYTE		        Dn1 
	BYTE		N05     As1 
	BYTE	W06
	BYTE		        Gs1 
	BYTE	W06
	BYTE	PEND
// 026   ----------------------------------------
	BYTE	PATT
	 POIN2	ChasingLeavesEnemy_4_024
// 027   ----------------------------------------
	BYTE	PATT
	 POIN2	ChasingLeavesEnemy_4_025
// 028   ----------------------------------------
	BYTE	PATT
	 POIN2	ChasingLeavesEnemy_4_024
// 029   ----------------------------------------
	BYTE	PATT
	 POIN2	ChasingLeavesEnemy_4_025
// 030   ----------------------------------------
	BYTE	PATT
	 POIN2	ChasingLeavesEnemy_4_024
// 031   ----------------------------------------
	BYTE		N05     Cn1   v127
	BYTE		N05     Fs1 
	BYTE	W06
	BYTE		        Gs1 
	BYTE	W06
	BYTE		        As1 
	BYTE	W06
	BYTE		        Gs1 
	BYTE	W06
	BYTE		        En1 
	BYTE		N05     Fs1 
	BYTE	W06
	BYTE		        Gs1 
	BYTE	W06
	BYTE		        As1 
	BYTE	W06
	BYTE		        Gs1 
	BYTE	W06
	BYTE		        Cn1 
	BYTE		N05     Fs1 
	BYTE	W06
	BYTE		        En1 
	BYTE		N05     Gs1 
	BYTE	W06
	BYTE		        As1 
	BYTE	W06
	BYTE		        Gs1 
	BYTE	W06
	BYTE		        En1 
	BYTE		N05     Fs1 
	BYTE	W06
	BYTE		        En1 
	BYTE		N05     Gs1 
	BYTE	W06
	BYTE		        Dn1 
	BYTE		N05     En1 
	BYTE		N05     As1 
	BYTE	W06
	BYTE		        En1 
	BYTE		N05     Gs1 
	BYTE	W06
// 032   ----------------------------------------
	BYTE	PATT
	 POIN2	ChasingLeavesEnemy_4_004
// 033   ----------------------------------------
	BYTE	PATT
	 POIN2	ChasingLeavesEnemy_4_005
// 034   ----------------------------------------
	BYTE	PATT
	 POIN2	ChasingLeavesEnemy_4_005
// 035   ----------------------------------------
	BYTE	PATT
	 POIN2	ChasingLeavesEnemy_4_007
// 036   ----------------------------------------
	BYTE	PATT
	 POIN2	ChasingLeavesEnemy_4_005
// 037   ----------------------------------------
	BYTE	PATT
	 POIN2	ChasingLeavesEnemy_4_005
// 038   ----------------------------------------
	BYTE	PATT
	 POIN2	ChasingLeavesEnemy_4_005
// 039   ----------------------------------------
	BYTE	PATT
	 POIN2	ChasingLeavesEnemy_4_011
// 040   ----------------------------------------
ChasingLeavesEnemy_4_040:
	BYTE		N11     Cn1   v127
	BYTE		N11     As1 
	BYTE	W12
	BYTE		N05     Fs1 
	BYTE	W06
	BYTE		N05   
	BYTE	W06
	BYTE		N11     As1 
	BYTE	W12
	BYTE		N05     Cn1 
	BYTE		N05     Fs1 
	BYTE	W06
	BYTE		N05   
	BYTE	W06
	BYTE		N11     En1 
	BYTE		N11     As1 
	BYTE	W12
	BYTE		N05     Fs1 
	BYTE	W06
	BYTE		N05   
	BYTE	W06
	BYTE		N11     Cn1 
	BYTE		N11     As1 
	BYTE	W12
	BYTE		N05     Fs1 
	BYTE	W06
	BYTE		N05   
	BYTE	W06
	BYTE	PEND
// 041   ----------------------------------------
	BYTE	PATT
	 POIN2	ChasingLeavesEnemy_4_040
// 042   ----------------------------------------
	BYTE	PATT
	 POIN2	ChasingLeavesEnemy_4_040
// 043   ----------------------------------------
	BYTE		N11     Cn1   v127
	BYTE		N11     As1 
	BYTE	W12
	BYTE		N05     Fs1 
	BYTE	W06
	BYTE		N05   
	BYTE	W06
	BYTE		N11     As1 
	BYTE	W12
	BYTE		N05     Cn1 
	BYTE		N05     Fs1 
	BYTE	W06
	BYTE		N05   
	BYTE	W06
	BYTE		N11     En1 
	BYTE		N11     As1 
	BYTE	W12
	BYTE		N05     Fs1 
	BYTE	W06
	BYTE		N05   
	BYTE	W06
	BYTE		N11     Cn1 
	BYTE		N11     En1 
	BYTE		N11     As1 
	BYTE	W12
	BYTE		N05     En1 
	BYTE		N05     Fs1 
	BYTE	W06
	BYTE		N05   
	BYTE	W05
	BYTE	GoTo
	 POIN2	ChasingLeavesEnemy_4_B1
ChasingLeavesEnemy_4_B2:
	BYTE	FINE

//**************** Track 5 (Midi-Chn.11) ****************//

ChasingLeavesEnemy_5:
	BYTE	KEYSH   ChasingLeavesEnemy_key+0
ChasingLeavesEnemy_5_B1:
// 000   ----------------------------------------
	BYTE		VOICE   81
	BYTE		MODT    0
	BYTE		LFOS    44
	BYTE		VOL     105*ChasingLeavesEnemy_mvl/mxv
	BYTE		PAN     c_v+0
	BYTE	W96
// 001   ----------------------------------------
	BYTE	W96
// 002   ----------------------------------------
	BYTE	W96
// 003   ----------------------------------------
	BYTE	W96
// 004   ----------------------------------------
ChasingLeavesEnemy_5_004:
	BYTE		PAN     c_v-63
	BYTE		N05     Fs2   v076
	BYTE	W01
	BYTE		PAN     c_v-62
	BYTE	W01
	BYTE		        c_v-61
	BYTE	W01
	BYTE		        c_v-59
	BYTE	W01
	BYTE		        c_v-58
	BYTE	W01
	BYTE		        c_v-57
	BYTE	W01
	BYTE		        c_v-55
	BYTE		N05     Gs2 
	BYTE	W01
	BYTE		PAN     c_v-54
	BYTE	W01
	BYTE		        c_v-53
	BYTE	W01
	BYTE		        c_v-51
	BYTE	W01
	BYTE		        c_v-50
	BYTE	W01
	BYTE		        c_v-49
	BYTE	W01
	BYTE		        c_v-47
	BYTE		N05     An2 
	BYTE	W01
	BYTE		PAN     c_v-46
	BYTE	W01
	BYTE		        c_v-45
	BYTE	W01
	BYTE		        c_v-43
	BYTE	W01
	BYTE		        c_v-42
	BYTE	W01
	BYTE		        c_v-41
	BYTE	W01
	BYTE		        c_v-39
	BYTE		N05     Cs3 
	BYTE	W01
	BYTE		PAN     c_v-38
	BYTE	W01
	BYTE		        c_v-37
	BYTE	W01
	BYTE		        c_v-35
	BYTE	W01
	BYTE		        c_v-34
	BYTE	W01
	BYTE		        c_v-33
	BYTE	W01
	BYTE		        c_v-31
	BYTE		N05     Fs3 
	BYTE	W01
	BYTE		PAN     c_v-30
	BYTE	W01
	BYTE		        c_v-29
	BYTE	W01
	BYTE		        c_v-27
	BYTE	W01
	BYTE		        c_v-26
	BYTE	W01
	BYTE		        c_v-25
	BYTE	W01
	BYTE		        c_v-23
	BYTE		N05     Gs3 
	BYTE	W01
	BYTE		PAN     c_v-22
	BYTE	W01
	BYTE		        c_v-21
	BYTE	W01
	BYTE		        c_v-20
	BYTE	W01
	BYTE		        c_v-18
	BYTE	W01
	BYTE		        c_v-17
	BYTE	W01
	BYTE		        c_v-16
	BYTE		N05     An3 
	BYTE	W01
	BYTE		PAN     c_v-14
	BYTE	W01
	BYTE		        c_v-13
	BYTE	W01
	BYTE		        c_v-12
	BYTE	W01
	BYTE		        c_v-10
	BYTE	W01
	BYTE		        c_v-9
	BYTE	W01
	BYTE		        c_v-8
	BYTE		N05     Cs4 
	BYTE	W01
	BYTE		PAN     c_v-6
	BYTE	W01
	BYTE		        c_v-5
	BYTE	W01
	BYTE		        c_v-4
	BYTE	W01
	BYTE		        c_v-2
	BYTE	W01
	BYTE		        c_v-1
	BYTE	W01
	BYTE		        c_v+0
	BYTE		N05     Fs4 
	BYTE	W01
	BYTE		PAN     c_v+2
	BYTE	W01
	BYTE		        c_v+3
	BYTE	W01
	BYTE		        c_v+4
	BYTE	W01
	BYTE		        c_v+6
	BYTE	W01
	BYTE		        c_v+7
	BYTE	W01
	BYTE		        c_v+8
	BYTE		N05     Cs4 
	BYTE	W01
	BYTE		PAN     c_v+10
	BYTE	W01
	BYTE		        c_v+11
	BYTE	W01
	BYTE		        c_v+12
	BYTE	W01
	BYTE		        c_v+14
	BYTE	W01
	BYTE		        c_v+15
	BYTE	W01
	BYTE		        c_v+16
	BYTE		N05     An3 
	BYTE	W01
	BYTE		PAN     c_v+18
	BYTE	W01
	BYTE		        c_v+19
	BYTE	W01
	BYTE		        c_v+20
	BYTE	W01
	BYTE		        c_v+21
	BYTE	W01
	BYTE		        c_v+23
	BYTE	W01
	BYTE		        c_v+24
	BYTE		N05     Gs3 
	BYTE	W01
	BYTE		PAN     c_v+25
	BYTE	W01
	BYTE		        c_v+27
	BYTE	W01
	BYTE		        c_v+28
	BYTE	W01
	BYTE		        c_v+29
	BYTE	W01
	BYTE		        c_v+31
	BYTE	W01
	BYTE		        c_v+32
	BYTE		N05     Fs3 
	BYTE	W01
	BYTE		PAN     c_v+33
	BYTE	W01
	BYTE		        c_v+35
	BYTE	W01
	BYTE		        c_v+36
	BYTE	W01
	BYTE		        c_v+37
	BYTE	W01
	BYTE		        c_v+39
	BYTE	W01
	BYTE		        c_v+40
	BYTE		N05     Cs3 
	BYTE	W01
	BYTE		PAN     c_v+41
	BYTE	W01
	BYTE		        c_v+43
	BYTE	W01
	BYTE		        c_v+44
	BYTE	W01
	BYTE		        c_v+45
	BYTE	W01
	BYTE		        c_v+47
	BYTE	W01
	BYTE		        c_v+48
	BYTE		N05     An2 
	BYTE	W01
	BYTE		PAN     c_v+49
	BYTE	W01
	BYTE		        c_v+51
	BYTE	W01
	BYTE		        c_v+52
	BYTE	W01
	BYTE		        c_v+53
	BYTE	W01
	BYTE		        c_v+55
	BYTE	W01
	BYTE		        c_v+56
	BYTE		N05     Fs2 
	BYTE	W01
	BYTE		PAN     c_v+57
	BYTE	W01
	BYTE		        c_v+59
	BYTE	W01
	BYTE		        c_v+60
	BYTE	W01
	BYTE		        c_v+61
	BYTE	W01
	BYTE		        c_v+62
	BYTE	W01
	BYTE	PEND
// 005   ----------------------------------------
ChasingLeavesEnemy_5_005:
	BYTE		PAN     c_v+62
	BYTE		N05     Fs2   v076
	BYTE	W01
	BYTE		PAN     c_v+61
	BYTE	W01
	BYTE		        c_v+60
	BYTE	W01
	BYTE		        c_v+58
	BYTE	W01
	BYTE		        c_v+57
	BYTE	W01
	BYTE		        c_v+56
	BYTE	W01
	BYTE		        c_v+54
	BYTE		N05     An2 
	BYTE	W01
	BYTE		PAN     c_v+53
	BYTE	W01
	BYTE		        c_v+52
	BYTE	W01
	BYTE		        c_v+50
	BYTE	W01
	BYTE		        c_v+49
	BYTE	W01
	BYTE		        c_v+48
	BYTE	W01
	BYTE		        c_v+46
	BYTE		N05     Dn3 
	BYTE	W01
	BYTE		PAN     c_v+45
	BYTE	W01
	BYTE		        c_v+44
	BYTE	W01
	BYTE		        c_v+42
	BYTE	W01
	BYTE		        c_v+41
	BYTE	W01
	BYTE		        c_v+40
	BYTE	W01
	BYTE		        c_v+38
	BYTE		N05     En3 
	BYTE	W01
	BYTE		PAN     c_v+37
	BYTE	W01
	BYTE		        c_v+36
	BYTE	W01
	BYTE		        c_v+34
	BYTE	W01
	BYTE		        c_v+33
	BYTE	W01
	BYTE		        c_v+32
	BYTE	W01
	BYTE		        c_v+30
	BYTE		N05     Fs3 
	BYTE	W01
	BYTE		PAN     c_v+29
	BYTE	W01
	BYTE		        c_v+28
	BYTE	W01
	BYTE		        c_v+26
	BYTE	W01
	BYTE		        c_v+25
	BYTE	W01
	BYTE		        c_v+24
	BYTE	W01
	BYTE		        c_v+22
	BYTE		N05     An3 
	BYTE	W01
	BYTE		PAN     c_v+21
	BYTE	W01
	BYTE		        c_v+20
	BYTE	W01
	BYTE		        c_v+19
	BYTE	W01
	BYTE		        c_v+17
	BYTE	W01
	BYTE		        c_v+16
	BYTE	W01
	BYTE		        c_v+15
	BYTE		N05     Dn4 
	BYTE	W01
	BYTE		PAN     c_v+13
	BYTE	W01
	BYTE		        c_v+12
	BYTE	W01
	BYTE		        c_v+11
	BYTE	W01
	BYTE		        c_v+9
	BYTE	W01
	BYTE		        c_v+8
	BYTE	W01
	BYTE		        c_v+7
	BYTE		N05     En4 
	BYTE	W01
	BYTE		PAN     c_v+5
	BYTE	W01
	BYTE		        c_v+4
	BYTE	W01
	BYTE		        c_v+3
	BYTE	W01
	BYTE		        c_v+1
	BYTE	W01
	BYTE		        c_v+0
	BYTE	W01
	BYTE		        c_v-1
	BYTE		N05     Fs4 
	BYTE	W01
	BYTE		PAN     c_v-3
	BYTE	W01
	BYTE		        c_v-4
	BYTE	W01
	BYTE		        c_v-5
	BYTE	W01
	BYTE		        c_v-7
	BYTE	W01
	BYTE		        c_v-8
	BYTE	W01
	BYTE		        c_v-9
	BYTE		N05     Ds4 
	BYTE	W01
	BYTE		PAN     c_v-11
	BYTE	W01
	BYTE		        c_v-12
	BYTE	W01
	BYTE		        c_v-13
	BYTE	W01
	BYTE		        c_v-15
	BYTE	W01
	BYTE		        c_v-16
	BYTE	W01
	BYTE		        c_v-17
	BYTE		N05     Cs4 
	BYTE	W01
	BYTE		PAN     c_v-19
	BYTE	W01
	BYTE		        c_v-20
	BYTE	W01
	BYTE		        c_v-21
	BYTE	W01
	BYTE		        c_v-22
	BYTE	W01
	BYTE		        c_v-24
	BYTE	W01
	BYTE		        c_v-25
	BYTE		N05     Bn3 
	BYTE	W01
	BYTE		PAN     c_v-26
	BYTE	W01
	BYTE		        c_v-28
	BYTE	W01
	BYTE		        c_v-29
	BYTE	W01
	BYTE		        c_v-30
	BYTE	W01
	BYTE		        c_v-32
	BYTE	W01
	BYTE		        c_v-33
	BYTE		N05     Fs3 
	BYTE	W01
	BYTE		PAN     c_v-34
	BYTE	W01
	BYTE		        c_v-36
	BYTE	W01
	BYTE		        c_v-37
	BYTE	W01
	BYTE		        c_v-38
	BYTE	W01
	BYTE		        c_v-40
	BYTE	W01
	BYTE		        c_v-41
	BYTE		N05     Ds3 
	BYTE	W01
	BYTE		PAN     c_v-42
	BYTE	W01
	BYTE		        c_v-44
	BYTE	W01
	BYTE		        c_v-45
	BYTE	W01
	BYTE		        c_v-46
	BYTE	W01
	BYTE		        c_v-48
	BYTE	W01
	BYTE		        c_v-49
	BYTE		N05     Cs3 
	BYTE	W01
	BYTE		PAN     c_v-50
	BYTE	W01
	BYTE		        c_v-52
	BYTE	W01
	BYTE		        c_v-53
	BYTE	W01
	BYTE		        c_v-54
	BYTE	W01
	BYTE		        c_v-56
	BYTE	W01
	BYTE		        c_v-57
	BYTE		N05     Bn2 
	BYTE	W01
	BYTE		PAN     c_v-58
	BYTE	W01
	BYTE		        c_v-60
	BYTE	W01
	BYTE		        c_v-61
	BYTE	W01
	BYTE		        c_v-62
	BYTE	W01
	BYTE		        c_v-63
	BYTE	W01
	BYTE	PEND
// 006   ----------------------------------------
ChasingLeavesEnemy_5_006:
	BYTE		PAN     c_v-63
	BYTE		N05     Gs2   v076
	BYTE	W01
	BYTE		PAN     c_v-62
	BYTE	W01
	BYTE		        c_v-61
	BYTE	W01
	BYTE		        c_v-59
	BYTE	W01
	BYTE		        c_v-58
	BYTE	W01
	BYTE		        c_v-57
	BYTE	W01
	BYTE		        c_v-55
	BYTE		N05     Cs3 
	BYTE	W01
	BYTE		PAN     c_v-54
	BYTE	W01
	BYTE		        c_v-53
	BYTE	W01
	BYTE		        c_v-51
	BYTE	W01
	BYTE		        c_v-50
	BYTE	W01
	BYTE		        c_v-49
	BYTE	W01
	BYTE		        c_v-47
	BYTE		N05     En3 
	BYTE	W01
	BYTE		PAN     c_v-46
	BYTE	W01
	BYTE		        c_v-45
	BYTE	W01
	BYTE		        c_v-43
	BYTE	W01
	BYTE		        c_v-42
	BYTE	W01
	BYTE		        c_v-41
	BYTE	W01
	BYTE		        c_v-39
	BYTE		N05     Fs3 
	BYTE	W01
	BYTE		PAN     c_v-38
	BYTE	W01
	BYTE		        c_v-37
	BYTE	W01
	BYTE		        c_v-35
	BYTE	W01
	BYTE		        c_v-34
	BYTE	W01
	BYTE		        c_v-33
	BYTE	W01
	BYTE		        c_v-31
	BYTE		N05     Gs3 
	BYTE	W01
	BYTE		PAN     c_v-30
	BYTE	W01
	BYTE		        c_v-29
	BYTE	W01
	BYTE		        c_v-27
	BYTE	W01
	BYTE		        c_v-26
	BYTE	W01
	BYTE		        c_v-25
	BYTE	W01
	BYTE		        c_v-23
	BYTE		N05     Cs4 
	BYTE	W01
	BYTE		PAN     c_v-22
	BYTE	W01
	BYTE		        c_v-21
	BYTE	W01
	BYTE		        c_v-20
	BYTE	W01
	BYTE		        c_v-18
	BYTE	W01
	BYTE		        c_v-17
	BYTE	W01
	BYTE		        c_v-16
	BYTE		N05     En4 
	BYTE	W01
	BYTE		PAN     c_v-14
	BYTE	W01
	BYTE		        c_v-13
	BYTE	W01
	BYTE		        c_v-12
	BYTE	W01
	BYTE		        c_v-10
	BYTE	W01
	BYTE		        c_v-9
	BYTE	W01
	BYTE		        c_v-8
	BYTE		N05     Gs4 
	BYTE	W01
	BYTE		PAN     c_v-6
	BYTE	W01
	BYTE		        c_v-5
	BYTE	W01
	BYTE		        c_v-4
	BYTE	W01
	BYTE		        c_v-2
	BYTE	W01
	BYTE		        c_v-1
	BYTE	W01
	BYTE		        c_v+0
	BYTE		N05     Cs5 
	BYTE	W01
	BYTE		PAN     c_v+2
	BYTE	W01
	BYTE		        c_v+3
	BYTE	W01
	BYTE		        c_v+4
	BYTE	W01
	BYTE		        c_v+6
	BYTE	W01
	BYTE		        c_v+7
	BYTE	W01
	BYTE		        c_v+8
	BYTE		N05     Fs4 
	BYTE	W01
	BYTE		PAN     c_v+10
	BYTE	W01
	BYTE		        c_v+11
	BYTE	W01
	BYTE		        c_v+12
	BYTE	W01
	BYTE		        c_v+14
	BYTE	W01
	BYTE		        c_v+15
	BYTE	W01
	BYTE		        c_v+16
	BYTE		N05     En4 
	BYTE	W01
	BYTE		PAN     c_v+18
	BYTE	W01
	BYTE		        c_v+19
	BYTE	W01
	BYTE		        c_v+20
	BYTE	W01
	BYTE		        c_v+21
	BYTE	W01
	BYTE		        c_v+23
	BYTE	W01
	BYTE		        c_v+24
	BYTE		N05     Cs4 
	BYTE	W01
	BYTE		PAN     c_v+25
	BYTE	W01
	BYTE		        c_v+27
	BYTE	W01
	BYTE		        c_v+28
	BYTE	W01
	BYTE		        c_v+29
	BYTE	W01
	BYTE		        c_v+31
	BYTE	W01
	BYTE		        c_v+32
	BYTE		N05     Gs3 
	BYTE	W01
	BYTE		PAN     c_v+33
	BYTE	W01
	BYTE		        c_v+35
	BYTE	W01
	BYTE		        c_v+36
	BYTE	W01
	BYTE		        c_v+37
	BYTE	W01
	BYTE		        c_v+39
	BYTE	W01
	BYTE		        c_v+40
	BYTE		N05     Fs3 
	BYTE	W01
	BYTE		PAN     c_v+41
	BYTE	W01
	BYTE		        c_v+43
	BYTE	W01
	BYTE		        c_v+44
	BYTE	W01
	BYTE		        c_v+45
	BYTE	W01
	BYTE		        c_v+47
	BYTE	W01
	BYTE		        c_v+48
	BYTE		N05     En3 
	BYTE	W01
	BYTE		PAN     c_v+49
	BYTE	W01
	BYTE		        c_v+51
	BYTE	W01
	BYTE		        c_v+52
	BYTE	W01
	BYTE		        c_v+53
	BYTE	W01
	BYTE		        c_v+55
	BYTE	W01
	BYTE		        c_v+56
	BYTE		N05     Cs3 
	BYTE	W01
	BYTE		PAN     c_v+57
	BYTE	W01
	BYTE		        c_v+59
	BYTE	W01
	BYTE		        c_v+60
	BYTE	W01
	BYTE		        c_v+61
	BYTE	W01
	BYTE		        c_v+62
	BYTE	W01
	BYTE	PEND
// 007   ----------------------------------------
ChasingLeavesEnemy_5_007:
	BYTE		PAN     c_v+62
	BYTE		N05     An2   v076
	BYTE	W01
	BYTE		PAN     c_v+61
	BYTE	W01
	BYTE		        c_v+60
	BYTE	W01
	BYTE		        c_v+58
	BYTE	W01
	BYTE		        c_v+57
	BYTE	W01
	BYTE		        c_v+56
	BYTE	W01
	BYTE		        c_v+54
	BYTE		N05     Dn3 
	BYTE	W01
	BYTE		PAN     c_v+53
	BYTE	W01
	BYTE		        c_v+52
	BYTE	W01
	BYTE		        c_v+50
	BYTE	W01
	BYTE		        c_v+49
	BYTE	W01
	BYTE		        c_v+48
	BYTE	W01
	BYTE		        c_v+46
	BYTE		N05     En3 
	BYTE	W01
	BYTE		PAN     c_v+45
	BYTE	W01
	BYTE		        c_v+44
	BYTE	W01
	BYTE		        c_v+42
	BYTE	W01
	BYTE		        c_v+41
	BYTE	W01
	BYTE		        c_v+40
	BYTE	W01
	BYTE		        c_v+38
	BYTE		N05     Fs3 
	BYTE	W01
	BYTE		PAN     c_v+37
	BYTE	W01
	BYTE		        c_v+36
	BYTE	W01
	BYTE		        c_v+34
	BYTE	W01
	BYTE		        c_v+33
	BYTE	W01
	BYTE		        c_v+32
	BYTE	W01
	BYTE		        c_v+30
	BYTE		N05     An3 
	BYTE	W01
	BYTE		PAN     c_v+29
	BYTE	W01
	BYTE		        c_v+28
	BYTE	W01
	BYTE		        c_v+26
	BYTE	W01
	BYTE		        c_v+25
	BYTE	W01
	BYTE		        c_v+24
	BYTE	W01
	BYTE		        c_v+22
	BYTE		N05     Dn4 
	BYTE	W01
	BYTE		PAN     c_v+21
	BYTE	W01
	BYTE		        c_v+20
	BYTE	W01
	BYTE		        c_v+19
	BYTE	W01
	BYTE		        c_v+17
	BYTE	W01
	BYTE		        c_v+16
	BYTE	W01
	BYTE		        c_v+15
	BYTE		N05     En4 
	BYTE	W01
	BYTE		PAN     c_v+13
	BYTE	W01
	BYTE		        c_v+12
	BYTE	W01
	BYTE		        c_v+11
	BYTE	W01
	BYTE		        c_v+9
	BYTE	W01
	BYTE		        c_v+8
	BYTE	W01
	BYTE		        c_v+7
	BYTE		N05     Fs4 
	BYTE	W01
	BYTE		PAN     c_v+5
	BYTE	W01
	BYTE		        c_v+4
	BYTE	W01
	BYTE		        c_v+3
	BYTE	W01
	BYTE		        c_v+1
	BYTE	W01
	BYTE		        c_v+0
	BYTE	W01
	BYTE		        c_v-1
	BYTE		N05     Gs4 
	BYTE	W01
	BYTE		PAN     c_v-3
	BYTE	W01
	BYTE		        c_v-4
	BYTE	W01
	BYTE		        c_v-5
	BYTE	W01
	BYTE		        c_v-7
	BYTE	W01
	BYTE		        c_v-8
	BYTE	W01
	BYTE		        c_v-9
	BYTE		N05     En4 
	BYTE	W01
	BYTE		PAN     c_v-11
	BYTE	W01
	BYTE		        c_v-12
	BYTE	W01
	BYTE		        c_v-13
	BYTE	W01
	BYTE		        c_v-15
	BYTE	W01
	BYTE		        c_v-16
	BYTE	W01
	BYTE		        c_v-17
	BYTE		N05     Bn3 
	BYTE	W01
	BYTE		PAN     c_v-19
	BYTE	W01
	BYTE		        c_v-20
	BYTE	W01
	BYTE		        c_v-21
	BYTE	W01
	BYTE		        c_v-22
	BYTE	W01
	BYTE		        c_v-24
	BYTE	W01
	BYTE		        c_v-25
	BYTE		N05     An3 
	BYTE	W01
	BYTE		PAN     c_v-26
	BYTE	W01
	BYTE		        c_v-28
	BYTE	W01
	BYTE		        c_v-29
	BYTE	W01
	BYTE		        c_v-30
	BYTE	W01
	BYTE		        c_v-32
	BYTE	W01
	BYTE		        c_v-33
	BYTE		N05     Gs3 
	BYTE	W01
	BYTE		PAN     c_v-34
	BYTE	W01
	BYTE		        c_v-36
	BYTE	W01
	BYTE		        c_v-37
	BYTE	W01
	BYTE		        c_v-38
	BYTE	W01
	BYTE		        c_v-40
	BYTE	W01
	BYTE		        c_v-41
	BYTE		N05     En3 
	BYTE	W01
	BYTE		PAN     c_v-42
	BYTE	W01
	BYTE		        c_v-44
	BYTE	W01
	BYTE		        c_v-45
	BYTE	W01
	BYTE		        c_v-46
	BYTE	W01
	BYTE		        c_v-48
	BYTE	W01
	BYTE		        c_v-49
	BYTE		N05     Bn2 
	BYTE	W01
	BYTE		PAN     c_v-50
	BYTE	W01
	BYTE		        c_v-52
	BYTE	W01
	BYTE		        c_v-53
	BYTE	W01
	BYTE		        c_v-54
	BYTE	W01
	BYTE		        c_v-56
	BYTE	W01
	BYTE		        c_v-57
	BYTE		N05     Gs2 
	BYTE	W01
	BYTE		PAN     c_v-58
	BYTE	W01
	BYTE		        c_v-60
	BYTE	W01
	BYTE		        c_v-61
	BYTE	W01
	BYTE		        c_v-62
	BYTE	W01
	BYTE		        c_v-63
	BYTE	W01
	BYTE	PEND
// 008   ----------------------------------------
	BYTE	PATT
	 POIN2	ChasingLeavesEnemy_5_004
// 009   ----------------------------------------
	BYTE	PATT
	 POIN2	ChasingLeavesEnemy_5_005
// 010   ----------------------------------------
	BYTE	PATT
	 POIN2	ChasingLeavesEnemy_5_006
// 011   ----------------------------------------
	BYTE	PATT
	 POIN2	ChasingLeavesEnemy_5_007
// 012   ----------------------------------------
ChasingLeavesEnemy_5_012:
	BYTE		PAN     c_v-63
	BYTE		N05     An2   v076
	BYTE	W01
	BYTE		PAN     c_v-62
	BYTE	W01
	BYTE		        c_v-61
	BYTE	W01
	BYTE		        c_v-59
	BYTE	W01
	BYTE		        c_v-58
	BYTE	W01
	BYTE		        c_v-57
	BYTE	W01
	BYTE		        c_v-55
	BYTE		N05     Cs3 
	BYTE	W01
	BYTE		PAN     c_v-54
	BYTE	W01
	BYTE		        c_v-53
	BYTE	W01
	BYTE		        c_v-51
	BYTE	W01
	BYTE		        c_v-50
	BYTE	W01
	BYTE		        c_v-49
	BYTE	W01
	BYTE		        c_v-47
	BYTE		N05     En3 
	BYTE	W01
	BYTE		PAN     c_v-46
	BYTE	W01
	BYTE		        c_v-45
	BYTE	W01
	BYTE		        c_v-43
	BYTE	W01
	BYTE		        c_v-42
	BYTE	W01
	BYTE		        c_v-41
	BYTE	W01
	BYTE		        c_v-39
	BYTE		N05     An3 
	BYTE	W01
	BYTE		PAN     c_v-38
	BYTE	W01
	BYTE		        c_v-37
	BYTE	W01
	BYTE		        c_v-35
	BYTE	W01
	BYTE		        c_v-34
	BYTE	W01
	BYTE		        c_v-33
	BYTE	W01
	BYTE		        c_v-31
	BYTE		N05     En3 
	BYTE	W01
	BYTE		PAN     c_v-30
	BYTE	W01
	BYTE		        c_v-29
	BYTE	W01
	BYTE		        c_v-27
	BYTE	W01
	BYTE		        c_v-26
	BYTE	W01
	BYTE		        c_v-25
	BYTE	W01
	BYTE		        c_v-23
	BYTE		N05     Cs3 
	BYTE	W01
	BYTE		PAN     c_v-22
	BYTE	W01
	BYTE		        c_v-21
	BYTE	W01
	BYTE		        c_v-20
	BYTE	W01
	BYTE		        c_v-18
	BYTE	W01
	BYTE		        c_v-17
	BYTE	W01
	BYTE		        c_v-16
	BYTE		N05     An2 
	BYTE	W01
	BYTE		PAN     c_v-14
	BYTE	W01
	BYTE		        c_v-13
	BYTE	W01
	BYTE		        c_v-12
	BYTE	W01
	BYTE		        c_v-10
	BYTE	W01
	BYTE		        c_v-9
	BYTE	W01
	BYTE		        c_v-8
	BYTE		N05     En2 
	BYTE	W01
	BYTE		PAN     c_v-6
	BYTE	W01
	BYTE		        c_v-5
	BYTE	W01
	BYTE		        c_v-4
	BYTE	W01
	BYTE		        c_v-2
	BYTE	W01
	BYTE		        c_v-1
	BYTE	W01
	BYTE		        c_v+0
	BYTE		N05     An2 
	BYTE	W01
	BYTE		PAN     c_v+2
	BYTE	W01
	BYTE		        c_v+3
	BYTE	W01
	BYTE		        c_v+4
	BYTE	W01
	BYTE		        c_v+6
	BYTE	W01
	BYTE		        c_v+7
	BYTE	W01
	BYTE		        c_v+8
	BYTE		N05     Cs3 
	BYTE	W01
	BYTE		PAN     c_v+10
	BYTE	W01
	BYTE		        c_v+11
	BYTE	W01
	BYTE		        c_v+12
	BYTE	W01
	BYTE		        c_v+14
	BYTE	W01
	BYTE		        c_v+15
	BYTE	W01
	BYTE		        c_v+16
	BYTE		N05     En3 
	BYTE	W01
	BYTE		PAN     c_v+18
	BYTE	W01
	BYTE		        c_v+19
	BYTE	W01
	BYTE		        c_v+20
	BYTE	W01
	BYTE		        c_v+21
	BYTE	W01
	BYTE		        c_v+23
	BYTE	W01
	BYTE		        c_v+24
	BYTE		N05     An3 
	BYTE	W01
	BYTE		PAN     c_v+25
	BYTE	W01
	BYTE		        c_v+27
	BYTE	W01
	BYTE		        c_v+28
	BYTE	W01
	BYTE		        c_v+29
	BYTE	W01
	BYTE		        c_v+31
	BYTE	W01
	BYTE		        c_v+32
	BYTE		N05     En3 
	BYTE	W01
	BYTE		PAN     c_v+33
	BYTE	W01
	BYTE		        c_v+35
	BYTE	W01
	BYTE		        c_v+36
	BYTE	W01
	BYTE		        c_v+37
	BYTE	W01
	BYTE		        c_v+39
	BYTE	W01
	BYTE		        c_v+40
	BYTE		N05     Cs3 
	BYTE	W01
	BYTE		PAN     c_v+41
	BYTE	W01
	BYTE		        c_v+43
	BYTE	W01
	BYTE		        c_v+44
	BYTE	W01
	BYTE		        c_v+45
	BYTE	W01
	BYTE		        c_v+47
	BYTE	W01
	BYTE		        c_v+48
	BYTE		N05     An2 
	BYTE	W01
	BYTE		PAN     c_v+49
	BYTE	W01
	BYTE		        c_v+51
	BYTE	W01
	BYTE		        c_v+52
	BYTE	W01
	BYTE		        c_v+53
	BYTE	W01
	BYTE		        c_v+55
	BYTE	W01
	BYTE		        c_v+56
	BYTE		N05     En2 
	BYTE	W01
	BYTE		PAN     c_v+57
	BYTE	W01
	BYTE		        c_v+59
	BYTE	W01
	BYTE		        c_v+60
	BYTE	W01
	BYTE		        c_v+61
	BYTE	W01
	BYTE		        c_v+62
	BYTE	W01
	BYTE	PEND
// 013   ----------------------------------------
ChasingLeavesEnemy_5_013:
	BYTE		PAN     c_v+62
	BYTE		N05     Gn2   v076
	BYTE	W01
	BYTE		PAN     c_v+61
	BYTE	W01
	BYTE		        c_v+60
	BYTE	W01
	BYTE		        c_v+58
	BYTE	W01
	BYTE		        c_v+57
	BYTE	W01
	BYTE		        c_v+56
	BYTE	W01
	BYTE		        c_v+54
	BYTE		N05     An2 
	BYTE	W01
	BYTE		PAN     c_v+53
	BYTE	W01
	BYTE		        c_v+52
	BYTE	W01
	BYTE		        c_v+50
	BYTE	W01
	BYTE		        c_v+49
	BYTE	W01
	BYTE		        c_v+48
	BYTE	W01
	BYTE		        c_v+46
	BYTE		N05     Bn2 
	BYTE	W01
	BYTE		PAN     c_v+45
	BYTE	W01
	BYTE		        c_v+44
	BYTE	W01
	BYTE		        c_v+42
	BYTE	W01
	BYTE		        c_v+41
	BYTE	W01
	BYTE		        c_v+40
	BYTE	W01
	BYTE		        c_v+38
	BYTE		N05     Dn3 
	BYTE	W01
	BYTE		PAN     c_v+37
	BYTE	W01
	BYTE		        c_v+36
	BYTE	W01
	BYTE		        c_v+34
	BYTE	W01
	BYTE		        c_v+33
	BYTE	W01
	BYTE		        c_v+32
	BYTE	W01
	BYTE		        c_v+30
	BYTE		N05     Gn3 
	BYTE	W01
	BYTE		PAN     c_v+29
	BYTE	W01
	BYTE		        c_v+28
	BYTE	W01
	BYTE		        c_v+26
	BYTE	W01
	BYTE		        c_v+25
	BYTE	W01
	BYTE		        c_v+24
	BYTE	W01
	BYTE		        c_v+22
	BYTE		N05     Dn3 
	BYTE	W01
	BYTE		PAN     c_v+21
	BYTE	W01
	BYTE		        c_v+20
	BYTE	W01
	BYTE		        c_v+19
	BYTE	W01
	BYTE		        c_v+17
	BYTE	W01
	BYTE		        c_v+16
	BYTE	W01
	BYTE		        c_v+15
	BYTE		N05     Bn2 
	BYTE	W01
	BYTE		PAN     c_v+13
	BYTE	W01
	BYTE		        c_v+12
	BYTE	W01
	BYTE		        c_v+11
	BYTE	W01
	BYTE		        c_v+9
	BYTE	W01
	BYTE		        c_v+8
	BYTE	W01
	BYTE		        c_v+7
	BYTE		N05     An2 
	BYTE	W01
	BYTE		PAN     c_v+5
	BYTE	W01
	BYTE		        c_v+4
	BYTE	W01
	BYTE		        c_v+3
	BYTE	W01
	BYTE		        c_v+1
	BYTE	W01
	BYTE		        c_v+0
	BYTE	W01
	BYTE		        c_v-1
	BYTE		N05     Gn2 
	BYTE	W01
	BYTE		PAN     c_v-3
	BYTE	W01
	BYTE		        c_v-4
	BYTE	W01
	BYTE		        c_v-5
	BYTE	W01
	BYTE		        c_v-7
	BYTE	W01
	BYTE		        c_v-8
	BYTE	W01
	BYTE		        c_v-9
	BYTE		N05     An2 
	BYTE	W01
	BYTE		PAN     c_v-11
	BYTE	W01
	BYTE		        c_v-12
	BYTE	W01
	BYTE		        c_v-13
	BYTE	W01
	BYTE		        c_v-15
	BYTE	W01
	BYTE		        c_v-16
	BYTE	W01
	BYTE		        c_v-17
	BYTE		N05     Bn2 
	BYTE	W01
	BYTE		PAN     c_v-19
	BYTE	W01
	BYTE		        c_v-20
	BYTE	W01
	BYTE		        c_v-21
	BYTE	W01
	BYTE		        c_v-22
	BYTE	W01
	BYTE		        c_v-24
	BYTE	W01
	BYTE		        c_v-25
	BYTE		N05     Dn3 
	BYTE	W01
	BYTE		PAN     c_v-26
	BYTE	W01
	BYTE		        c_v-28
	BYTE	W01
	BYTE		        c_v-29
	BYTE	W01
	BYTE		        c_v-30
	BYTE	W01
	BYTE		        c_v-32
	BYTE	W01
	BYTE		        c_v-33
	BYTE		N05     Gn3 
	BYTE	W01
	BYTE		PAN     c_v-34
	BYTE	W01
	BYTE		        c_v-36
	BYTE	W01
	BYTE		        c_v-37
	BYTE	W01
	BYTE		        c_v-38
	BYTE	W01
	BYTE		        c_v-40
	BYTE	W01
	BYTE		        c_v-41
	BYTE		N05     Dn3 
	BYTE	W01
	BYTE		PAN     c_v-42
	BYTE	W01
	BYTE		        c_v-44
	BYTE	W01
	BYTE		        c_v-45
	BYTE	W01
	BYTE		        c_v-46
	BYTE	W01
	BYTE		        c_v-48
	BYTE	W01
	BYTE		        c_v-49
	BYTE		N05     Bn2 
	BYTE	W01
	BYTE		PAN     c_v-50
	BYTE	W01
	BYTE		        c_v-52
	BYTE	W01
	BYTE		        c_v-53
	BYTE	W01
	BYTE		        c_v-54
	BYTE	W01
	BYTE		        c_v-56
	BYTE	W01
	BYTE		        c_v-57
	BYTE		N05     An2 
	BYTE	W01
	BYTE		PAN     c_v-58
	BYTE	W01
	BYTE		        c_v-60
	BYTE	W01
	BYTE		        c_v-61
	BYTE	W01
	BYTE		        c_v-62
	BYTE	W01
	BYTE		        c_v-63
	BYTE	W01
	BYTE	PEND
// 014   ----------------------------------------
ChasingLeavesEnemy_5_014:
	BYTE		PAN     c_v-63
	BYTE		N05     An2   v076
	BYTE	W01
	BYTE		PAN     c_v-62
	BYTE	W01
	BYTE		        c_v-61
	BYTE	W01
	BYTE		        c_v-59
	BYTE	W01
	BYTE		        c_v-58
	BYTE	W01
	BYTE		        c_v-57
	BYTE	W01
	BYTE		        c_v-55
	BYTE		N05     Dn3 
	BYTE	W01
	BYTE		PAN     c_v-54
	BYTE	W01
	BYTE		        c_v-53
	BYTE	W01
	BYTE		        c_v-51
	BYTE	W01
	BYTE		        c_v-50
	BYTE	W01
	BYTE		        c_v-49
	BYTE	W01
	BYTE		        c_v-47
	BYTE		N05     Fs3 
	BYTE	W01
	BYTE		PAN     c_v-46
	BYTE	W01
	BYTE		        c_v-45
	BYTE	W01
	BYTE		        c_v-43
	BYTE	W01
	BYTE		        c_v-42
	BYTE	W01
	BYTE		        c_v-41
	BYTE	W01
	BYTE		        c_v-39
	BYTE		N05     An3 
	BYTE	W01
	BYTE		PAN     c_v-38
	BYTE	W01
	BYTE		        c_v-37
	BYTE	W01
	BYTE		        c_v-35
	BYTE	W01
	BYTE		        c_v-34
	BYTE	W01
	BYTE		        c_v-33
	BYTE	W01
	BYTE		        c_v-31
	BYTE		N05     Fs3 
	BYTE	W01
	BYTE		PAN     c_v-30
	BYTE	W01
	BYTE		        c_v-29
	BYTE	W01
	BYTE		        c_v-27
	BYTE	W01
	BYTE		        c_v-26
	BYTE	W01
	BYTE		        c_v-25
	BYTE	W01
	BYTE		        c_v-23
	BYTE		N05     Dn3 
	BYTE	W01
	BYTE		PAN     c_v-22
	BYTE	W01
	BYTE		        c_v-21
	BYTE	W01
	BYTE		        c_v-20
	BYTE	W01
	BYTE		        c_v-18
	BYTE	W01
	BYTE		        c_v-17
	BYTE	W01
	BYTE		        c_v-16
	BYTE		N05     An2 
	BYTE	W01
	BYTE		PAN     c_v-14
	BYTE	W01
	BYTE		        c_v-13
	BYTE	W01
	BYTE		        c_v-12
	BYTE	W01
	BYTE		        c_v-10
	BYTE	W01
	BYTE		        c_v-9
	BYTE	W01
	BYTE		        c_v-8
	BYTE		N05     Fs2 
	BYTE	W01
	BYTE		PAN     c_v-6
	BYTE	W01
	BYTE		        c_v-5
	BYTE	W01
	BYTE		        c_v-4
	BYTE	W01
	BYTE		        c_v-2
	BYTE	W01
	BYTE		        c_v-1
	BYTE	W01
	BYTE		        c_v+0
	BYTE		N05     An2 
	BYTE	W01
	BYTE		PAN     c_v+2
	BYTE	W01
	BYTE		        c_v+3
	BYTE	W01
	BYTE		        c_v+4
	BYTE	W01
	BYTE		        c_v+6
	BYTE	W01
	BYTE		        c_v+7
	BYTE	W01
	BYTE		        c_v+8
	BYTE		N05     Dn3 
	BYTE	W01
	BYTE		PAN     c_v+10
	BYTE	W01
	BYTE		        c_v+11
	BYTE	W01
	BYTE		        c_v+12
	BYTE	W01
	BYTE		        c_v+14
	BYTE	W01
	BYTE		        c_v+15
	BYTE	W01
	BYTE		        c_v+16
	BYTE		N05     Fs3 
	BYTE	W01
	BYTE		PAN     c_v+18
	BYTE	W01
	BYTE		        c_v+19
	BYTE	W01
	BYTE		        c_v+20
	BYTE	W01
	BYTE		        c_v+21
	BYTE	W01
	BYTE		        c_v+23
	BYTE	W01
	BYTE		        c_v+24
	BYTE		N05     An3 
	BYTE	W01
	BYTE		PAN     c_v+25
	BYTE	W01
	BYTE		        c_v+27
	BYTE	W01
	BYTE		        c_v+28
	BYTE	W01
	BYTE		        c_v+29
	BYTE	W01
	BYTE		        c_v+31
	BYTE	W01
	BYTE		        c_v+32
	BYTE		N05     Fs3 
	BYTE	W01
	BYTE		PAN     c_v+33
	BYTE	W01
	BYTE		        c_v+35
	BYTE	W01
	BYTE		        c_v+36
	BYTE	W01
	BYTE		        c_v+37
	BYTE	W01
	BYTE		        c_v+39
	BYTE	W01
	BYTE		        c_v+40
	BYTE		N05     Dn3 
	BYTE	W01
	BYTE		PAN     c_v+41
	BYTE	W01
	BYTE		        c_v+43
	BYTE	W01
	BYTE		        c_v+44
	BYTE	W01
	BYTE		        c_v+45
	BYTE	W01
	BYTE		        c_v+47
	BYTE	W01
	BYTE		        c_v+48
	BYTE		N05     An2 
	BYTE	W01
	BYTE		PAN     c_v+49
	BYTE	W01
	BYTE		        c_v+51
	BYTE	W01
	BYTE		        c_v+52
	BYTE	W01
	BYTE		        c_v+53
	BYTE	W01
	BYTE		        c_v+55
	BYTE	W01
	BYTE		        c_v+56
	BYTE		N05     Fs2 
	BYTE	W01
	BYTE		PAN     c_v+57
	BYTE	W01
	BYTE		        c_v+59
	BYTE	W01
	BYTE		        c_v+60
	BYTE	W01
	BYTE		        c_v+61
	BYTE	W01
	BYTE		        c_v+62
	BYTE	W01
	BYTE	PEND
// 015   ----------------------------------------
ChasingLeavesEnemy_5_015:
	BYTE		PAN     c_v+62
	BYTE		N05     Gs2   v076
	BYTE	W01
	BYTE		PAN     c_v+61
	BYTE	W01
	BYTE		        c_v+60
	BYTE	W01
	BYTE		        c_v+58
	BYTE	W01
	BYTE		        c_v+57
	BYTE	W01
	BYTE		        c_v+56
	BYTE	W01
	BYTE		        c_v+54
	BYTE		N05     Bn2 
	BYTE	W01
	BYTE		PAN     c_v+53
	BYTE	W01
	BYTE		        c_v+52
	BYTE	W01
	BYTE		        c_v+50
	BYTE	W01
	BYTE		        c_v+49
	BYTE	W01
	BYTE		        c_v+48
	BYTE	W01
	BYTE		        c_v+46
	BYTE		N05     En3 
	BYTE	W01
	BYTE		PAN     c_v+45
	BYTE	W01
	BYTE		        c_v+44
	BYTE	W01
	BYTE		        c_v+42
	BYTE	W01
	BYTE		        c_v+41
	BYTE	W01
	BYTE		        c_v+40
	BYTE	W01
	BYTE		        c_v+38
	BYTE		N05     Gs3 
	BYTE	W01
	BYTE		PAN     c_v+37
	BYTE	W01
	BYTE		        c_v+36
	BYTE	W01
	BYTE		        c_v+34
	BYTE	W01
	BYTE		        c_v+33
	BYTE	W01
	BYTE		        c_v+32
	BYTE	W01
	BYTE		        c_v+30
	BYTE		N05     En3 
	BYTE	W01
	BYTE		PAN     c_v+29
	BYTE	W01
	BYTE		        c_v+28
	BYTE	W01
	BYTE		        c_v+26
	BYTE	W01
	BYTE		        c_v+25
	BYTE	W01
	BYTE		        c_v+24
	BYTE	W01
	BYTE		        c_v+22
	BYTE		N05     Bn2 
	BYTE	W01
	BYTE		PAN     c_v+21
	BYTE	W01
	BYTE		        c_v+20
	BYTE	W01
	BYTE		        c_v+19
	BYTE	W01
	BYTE		        c_v+17
	BYTE	W01
	BYTE		        c_v+16
	BYTE	W01
	BYTE		        c_v+15
	BYTE		N05     Gs2 
	BYTE	W01
	BYTE		PAN     c_v+13
	BYTE	W01
	BYTE		        c_v+12
	BYTE	W01
	BYTE		        c_v+11
	BYTE	W01
	BYTE		        c_v+9
	BYTE	W01
	BYTE		        c_v+8
	BYTE	W01
	BYTE		        c_v+7
	BYTE		N05     En2 
	BYTE	W01
	BYTE		PAN     c_v+5
	BYTE	W01
	BYTE		        c_v+4
	BYTE	W01
	BYTE		        c_v+3
	BYTE	W01
	BYTE		        c_v+1
	BYTE	W01
	BYTE		        c_v+0
	BYTE	W01
	BYTE		        c_v-1
	BYTE		N05     Gs2 
	BYTE	W01
	BYTE		PAN     c_v-3
	BYTE	W01
	BYTE		        c_v-4
	BYTE	W01
	BYTE		        c_v-5
	BYTE	W01
	BYTE		        c_v-7
	BYTE	W01
	BYTE		        c_v-8
	BYTE	W01
	BYTE		        c_v-9
	BYTE		N05     Bn2 
	BYTE	W01
	BYTE		PAN     c_v-11
	BYTE	W01
	BYTE		        c_v-12
	BYTE	W01
	BYTE		        c_v-13
	BYTE	W01
	BYTE		        c_v-15
	BYTE	W01
	BYTE		        c_v-16
	BYTE	W01
	BYTE		        c_v-17
	BYTE		N05     Dn3 
	BYTE	W01
	BYTE		PAN     c_v-19
	BYTE	W01
	BYTE		        c_v-20
	BYTE	W01
	BYTE		        c_v-21
	BYTE	W01
	BYTE		        c_v-22
	BYTE	W01
	BYTE		        c_v-24
	BYTE	W01
	BYTE		        c_v-25
	BYTE		N05     Gs3 
	BYTE	W01
	BYTE		PAN     c_v-26
	BYTE	W01
	BYTE		        c_v-28
	BYTE	W01
	BYTE		        c_v-29
	BYTE	W01
	BYTE		        c_v-30
	BYTE	W01
	BYTE		        c_v-32
	BYTE	W01
	BYTE		        c_v-33
	BYTE		N05     Dn3 
	BYTE	W01
	BYTE		PAN     c_v-34
	BYTE	W01
	BYTE		        c_v-36
	BYTE	W01
	BYTE		        c_v-37
	BYTE	W01
	BYTE		        c_v-38
	BYTE	W01
	BYTE		        c_v-40
	BYTE	W01
	BYTE		        c_v-41
	BYTE		N05     Bn2 
	BYTE	W01
	BYTE		PAN     c_v-42
	BYTE	W01
	BYTE		        c_v-44
	BYTE	W01
	BYTE		        c_v-45
	BYTE	W01
	BYTE		        c_v-46
	BYTE	W01
	BYTE		        c_v-48
	BYTE	W01
	BYTE		        c_v-49
	BYTE		N05     Gs2 
	BYTE	W01
	BYTE		PAN     c_v-50
	BYTE	W01
	BYTE		        c_v-52
	BYTE	W01
	BYTE		        c_v-53
	BYTE	W01
	BYTE		        c_v-54
	BYTE	W01
	BYTE		        c_v-56
	BYTE	W01
	BYTE		        c_v-57
	BYTE		N05     Dn2 
	BYTE	W01
	BYTE		PAN     c_v-58
	BYTE	W01
	BYTE		        c_v-60
	BYTE	W01
	BYTE		        c_v-61
	BYTE	W01
	BYTE		        c_v-62
	BYTE	W01
	BYTE		        c_v-63
	BYTE	W01
	BYTE	PEND
// 016   ----------------------------------------
	BYTE	PATT
	 POIN2	ChasingLeavesEnemy_5_012
// 017   ----------------------------------------
	BYTE	PATT
	 POIN2	ChasingLeavesEnemy_5_013
// 018   ----------------------------------------
	BYTE	PATT
	 POIN2	ChasingLeavesEnemy_5_014
// 019   ----------------------------------------
	BYTE	PATT
	 POIN2	ChasingLeavesEnemy_5_015
// 020   ----------------------------------------
	BYTE		PAN     c_v-64
	BYTE	W96
// 021   ----------------------------------------
	BYTE	W96
// 022   ----------------------------------------
	BYTE	W96
// 023   ----------------------------------------
	BYTE	W96
// 024   ----------------------------------------
	BYTE	W96
// 025   ----------------------------------------
	BYTE	W96
// 026   ----------------------------------------
	BYTE	W96
// 027   ----------------------------------------
	BYTE	W96
// 028   ----------------------------------------
	BYTE	W96
// 029   ----------------------------------------
	BYTE	W96
// 030   ----------------------------------------
	BYTE	W96
// 031   ----------------------------------------
	BYTE	W96
// 032   ----------------------------------------
	BYTE	PATT
	 POIN2	ChasingLeavesEnemy_5_012
// 033   ----------------------------------------
	BYTE	PATT
	 POIN2	ChasingLeavesEnemy_5_013
// 034   ----------------------------------------
	BYTE	PATT
	 POIN2	ChasingLeavesEnemy_5_014
// 035   ----------------------------------------
	BYTE	PATT
	 POIN2	ChasingLeavesEnemy_5_015
// 036   ----------------------------------------
	BYTE	PATT
	 POIN2	ChasingLeavesEnemy_5_012
// 037   ----------------------------------------
	BYTE	PATT
	 POIN2	ChasingLeavesEnemy_5_013
// 038   ----------------------------------------
	BYTE	PATT
	 POIN2	ChasingLeavesEnemy_5_014
// 039   ----------------------------------------
	BYTE	PATT
	 POIN2	ChasingLeavesEnemy_5_015
// 040   ----------------------------------------
	BYTE		PAN     c_v-64
	BYTE	W96
// 041   ----------------------------------------
	BYTE	W96
// 042   ----------------------------------------
	BYTE	W96
// 043   ----------------------------------------
	BYTE	W92
	BYTE	W03
	BYTE	GoTo
	 POIN2	ChasingLeavesEnemy_5_B1
ChasingLeavesEnemy_5_B2:
	BYTE	FINE

//**************** Track 6 (Midi-Chn.12) ****************//

ChasingLeavesEnemy_6:
	BYTE	KEYSH   ChasingLeavesEnemy_key+0
ChasingLeavesEnemy_6_B1:
// 000   ----------------------------------------
	BYTE		VOICE   1
	BYTE		MODT    0
	BYTE		LFOS    44
	BYTE		PAN     c_v+17
	BYTE		VOL     114*ChasingLeavesEnemy_mvl/mxv
	BYTE	W96
// 001   ----------------------------------------
	BYTE	W96
// 002   ----------------------------------------
	BYTE	W96
// 003   ----------------------------------------
	BYTE	W96
// 004   ----------------------------------------
	BYTE	W96
// 005   ----------------------------------------
	BYTE	W96
// 006   ----------------------------------------
	BYTE	W96
// 007   ----------------------------------------
	BYTE	W96
// 008   ----------------------------------------
	BYTE	W96
// 009   ----------------------------------------
	BYTE	W96
// 010   ----------------------------------------
	BYTE	W96
// 011   ----------------------------------------
	BYTE	W96
// 012   ----------------------------------------
	BYTE	W96
// 013   ----------------------------------------
	BYTE	W96
// 014   ----------------------------------------
	BYTE	W96
// 015   ----------------------------------------
	BYTE	W96
// 016   ----------------------------------------
	BYTE	W96
// 017   ----------------------------------------
	BYTE	W96
// 018   ----------------------------------------
	BYTE	W96
// 019   ----------------------------------------
	BYTE	W96
// 020   ----------------------------------------
	BYTE		N80     Gs2   v127
	BYTE	W84
	BYTE		N05     Fs2 
	BYTE	W06
	BYTE		        Gs2 
	BYTE	W06
// 021   ----------------------------------------
	BYTE		N80     An2 
	BYTE	W84
	BYTE		N05     Dn3 
	BYTE	W06
	BYTE		        En3 
	BYTE	W06
// 022   ----------------------------------------
	BYTE		N80     Cs3 
	BYTE	W84
	BYTE		N05     En3 
	BYTE	W06
	BYTE		        Gs3 
	BYTE	W06
// 023   ----------------------------------------
	BYTE		N80     Fs3 
	BYTE	W84
	BYTE		N03     An3 
	BYTE	W03
	BYTE		        Dn4 
	BYTE	W03
	BYTE		        En4 
	BYTE	W03
	BYTE		        Fs4 
	BYTE	W03
// 024   ----------------------------------------
	BYTE		N32     Gs4 
	BYTE	W36
	BYTE		N05     Fs4 
	BYTE	W06
	BYTE		        Gs4 
	BYTE	W06
	BYTE		N04     En4 
	BYTE	W12
	BYTE		        Cs4 
	BYTE	W12
	BYTE		        Ds4 
	BYTE	W06
	BYTE		        Fs4 
	BYTE	W12
	BYTE		N04   
	BYTE	W06
// 025   ----------------------------------------
	BYTE		N05     En4 
	BYTE	W06
	BYTE		        Ds4 
	BYTE	W06
	BYTE		        Cs4 
	BYTE	W06
	BYTE		        En4 
	BYTE	W06
	BYTE		        Fs4 
	BYTE	W06
	BYTE		        En4 
	BYTE	W06
	BYTE		        Ds4 
	BYTE	W06
	BYTE		        Fs4 
	BYTE	W06
	BYTE		N04     Gs4 
	BYTE	W06
	BYTE		        An4 
	BYTE	W12
	BYTE		N04   
	BYTE	W06
	BYTE		        Gs4 
	BYTE	W06
	BYTE		        An4 
	BYTE	W12
	BYTE		N04   
	BYTE	W06
// 026   ----------------------------------------
	BYTE		N15     Gs4 
	BYTE	W16
	BYTE		        Fs4 
	BYTE	W16
	BYTE		        En4 
	BYTE	W16
	BYTE		        Bn4 
	BYTE	W16
	BYTE		        An4 
	BYTE	W16
	BYTE		        Gs4 
	BYTE	W16
// 027   ----------------------------------------
	BYTE		N06     En4 
	BYTE	W06
	BYTE		        Ds4 
	BYTE	W06
	BYTE		        Cs4 
	BYTE	W06
	BYTE		        En4 
	BYTE	W06
	BYTE		        Ds4 
	BYTE	W06
	BYTE		        Cs4 
	BYTE	W06
	BYTE		        Bn3 
	BYTE	W06
	BYTE		        Ds4 
	BYTE	W06
	BYTE		        En4 
	BYTE	W06
	BYTE		        Fs4 
	BYTE	W06
	BYTE		        Gs4 
	BYTE	W06
	BYTE		        Fs4 
	BYTE	W06
	BYTE		        En4 
	BYTE	W06
	BYTE		        Cs4 
	BYTE	W06
	BYTE		        Ds4 
	BYTE	W06
	BYTE		N42     Cs4 
	BYTE	W06
// 028   ----------------------------------------
	BYTE	W36
	BYTE		N06     Bn3 
	BYTE	W06
	BYTE		        Cs4 
	BYTE	W06
	BYTE		N36     Gs3 
	BYTE	W36
	BYTE		N06     An3 
	BYTE	W06
	BYTE		        Fs3 
	BYTE	W06
// 029   ----------------------------------------
	BYTE		        En3 
	BYTE	W06
	BYTE		        Fs3 
	BYTE	W06
	BYTE		        Gs3 
	BYTE	W06
	BYTE		        En3 
	BYTE	W06
	BYTE		        Gs3 
	BYTE	W06
	BYTE		        Bn3 
	BYTE	W06
	BYTE		        Cs4 
	BYTE	W06
	BYTE		        Bn3 
	BYTE	W06
	BYTE		        Cs4 
	BYTE	W06
	BYTE		        Ds4 
	BYTE	W06
	BYTE		        En4 
	BYTE	W06
	BYTE		        Cs4 
	BYTE	W06
	BYTE		        En4 
	BYTE	W06
	BYTE		        Fs4 
	BYTE	W06
	BYTE		        Gs4 
	BYTE	W06
	BYTE		N05     En4 
	BYTE	W06
// 030   ----------------------------------------
	BYTE		N15     Cs5 
	BYTE	W16
	BYTE		        Bn4 
	BYTE	W16
	BYTE		        An4 
	BYTE	W16
	BYTE		        Bn4 
	BYTE	W16
	BYTE		        An4 
	BYTE	W16
	BYTE		        Gs4 
	BYTE	W16
// 031   ----------------------------------------
	BYTE		        An4 
	BYTE	W16
	BYTE		        Gs4 
	BYTE	W16
	BYTE		        Fs4 
	BYTE	W16
	BYTE		N11     En4 
	BYTE	W12
	BYTE		        Cs4 
	BYTE	W12
	BYTE		        Ds4 
	BYTE	W12
	BYTE		        Cs4 
	BYTE	W12
// 032   ----------------------------------------
	BYTE	W96
// 033   ----------------------------------------
	BYTE	W96
// 034   ----------------------------------------
	BYTE	W96
// 035   ----------------------------------------
	BYTE	W96
// 036   ----------------------------------------
	BYTE	W96
// 037   ----------------------------------------
	BYTE	W96
// 038   ----------------------------------------
	BYTE	W96
// 039   ----------------------------------------
	BYTE	W96
// 040   ----------------------------------------
	BYTE	W96
// 041   ----------------------------------------
	BYTE	W96
// 042   ----------------------------------------
	BYTE	W96
// 043   ----------------------------------------
	BYTE	W92
	BYTE	W03
	BYTE	GoTo
	 POIN2	ChasingLeavesEnemy_6_B1
ChasingLeavesEnemy_6_B2:
	BYTE	FINE

//******************************************************//
	ALIGN 4

ChasingLeavesEnemy:
	BYTE	6	// NumTrks
	BYTE	0	// NumBlks
	BYTE	ChasingLeavesEnemy_pri	// Priority
	BYTE	ChasingLeavesEnemy_rev	// Reverb.

	POIN2	ChasingLeavesEnemy_grp

	POIN2	ChasingLeavesEnemy_1
	POIN2	ChasingLeavesEnemy_2
	POIN2	ChasingLeavesEnemy_3
	POIN2	ChasingLeavesEnemy_4
	POIN2	ChasingLeavesEnemy_5
	POIN2	ChasingLeavesEnemy_6

	
