//Event file generated from Sappy .s format.
	#include "MPlayDef.event"

	#define	ScalingPeaks_grp  voicegroup000
	#define	ScalingPeaks_pri  0
	#define	ScalingPeaks_rev  0xA0
	#define	ScalingPeaks_mvl  27
	#define	ScalingPeaks_key  0
	#define	ScalingPeaks_tbs  1
	#define	ScalingPeaks_exg  0
	#define	ScalingPeaks_cmp  1

	// .rodata
	//	ScalingPeaks
	ALIGN 4

//**************** Track 1 (Midi-Chn.1) ****************//

ScalingPeaks_1:
	BYTE	KEYSH   ScalingPeaks_key+0
// 000   ----------------------------------------
	BYTE	TEMPO   120*ScalingPeaks_tbs/2
	BYTE		VOICE   100
	BYTE		MODT    0
	BYTE		LFOS    44
	BYTE		VOL     98*ScalingPeaks_mvl/mxv
	BYTE		PAN     c_v+32
	BYTE		N15     Cn4   v127
	BYTE		N15     En4 
	BYTE		N15     An4 
	BYTE	W16
	BYTE		N28     Cn5 
	BYTE		N28     En5 
	BYTE		N28     An5 
	BYTE	W32
	BYTE		N15     Bn3 
	BYTE		N15     En4 
	BYTE		N15     Gs4 
	BYTE	W16
	BYTE		N28     Bn4 
	BYTE		N28     En5 
	BYTE		N28     Gs5 
	BYTE	W32
// 001   ----------------------------------------
ScalingPeaks_1_001:
	BYTE		N15     Cn4   v127
	BYTE		N15     En4 
	BYTE		N15     Gn4 
	BYTE	W16
	BYTE		N28     Cn5 
	BYTE		N28     En5 
	BYTE		N28     Gn5 
	BYTE	W32
	BYTE		N15     An4 
	BYTE		N15     Dn5 
	BYTE		N15     Fs5 
	BYTE	W16
	BYTE		N28     Fs4 
	BYTE		N28     An4 
	BYTE		N28     Dn5 
	BYTE	W32
	BYTE	PEND
// 002   ----------------------------------------
	BYTE		N15     Cn4 
	BYTE		N15     En4 
	BYTE		N15     An4 
	BYTE	W16
	BYTE		N28     Cn5 
	BYTE		N28     En5 
	BYTE		N28     An5 
	BYTE	W32
	BYTE		N15     Bn3 
	BYTE		N15     En4 
	BYTE		N15     Gs4 
	BYTE	W16
	BYTE		N28     Bn4 
	BYTE		N28     En5 
	BYTE		N28     Gs5 
	BYTE	W32
// 003   ----------------------------------------
	BYTE	PATT
	 POIN2	ScalingPeaks_1_001
// 004   ----------------------------------------
	BYTE		N05     Dn5   v127
	BYTE	W06
	BYTE		        En5 
	BYTE	W06
	BYTE		N05   
	BYTE	W06
	BYTE		        Dn5 
	BYTE	W06
	BYTE		        En5 
	BYTE	W06
	BYTE		N05   
	BYTE	W06
	BYTE		        Dn5 
	BYTE	W06
	BYTE		        En5 
	BYTE	W06
	BYTE		        Dn5 
	BYTE	W06
	BYTE		        En5 
	BYTE	W06
	BYTE		N05   
	BYTE	W06
	BYTE		        Dn5 
	BYTE	W06
	BYTE		        En5 
	BYTE	W06
	BYTE		N05   
	BYTE	W06
	BYTE		        Dn5 
	BYTE	W06
	BYTE		        En5 
	BYTE	W06
// 005   ----------------------------------------
	BYTE		        Dn5 
	BYTE		N05     Gn5 
	BYTE	W06
	BYTE		        En5 
	BYTE		N05     An5 
	BYTE	W06
	BYTE		        En5 
	BYTE		N05     An5 
	BYTE	W06
	BYTE		        Dn5 
	BYTE		N05     Gn5 
	BYTE	W06
	BYTE		        En5 
	BYTE		N05     An5 
	BYTE	W06
	BYTE		        En5 
	BYTE		N05     An5 
	BYTE	W06
	BYTE		        Dn5 
	BYTE		N05     Gn5 
	BYTE	W06
	BYTE		        En5 
	BYTE		N05     An5 
	BYTE	W06
	BYTE		        Dn5 
	BYTE		N05     Gn5 
	BYTE	W06
	BYTE		        En5 
	BYTE		N05     An5 
	BYTE	W06
	BYTE		        En5 
	BYTE		N05     An5 
	BYTE	W06
	BYTE		        Dn5 
	BYTE		N05     Gn5 
	BYTE	W06
	BYTE		        En5 
	BYTE		N05     An5 
	BYTE	W06
	BYTE		        En5 
	BYTE		N05     An5 
	BYTE	W06
	BYTE		        Dn5 
	BYTE		N05     Gn5 
	BYTE	W06
	BYTE		        En5 
	BYTE		N05     An5 
	BYTE	W06
ScalingPeaks_1_B1:
// 006   ----------------------------------------
ScalingPeaks_1_006:
	BYTE		N36     En5   v127
	BYTE	W36
	BYTE		N12     Cn5 
	BYTE	W12
	BYTE		N16     Bn4 
	BYTE	W16
	BYTE		        Cn5 
	BYTE	W16
	BYTE		        Bn4 
	BYTE	W16
	BYTE	PEND
// 007   ----------------------------------------
ScalingPeaks_1_007:
	BYTE		N36     An4   v127
	BYTE	W36
	BYTE		N12     En4 
	BYTE	W12
	BYTE		N16     An4 
	BYTE	W16
	BYTE		        Bn4 
	BYTE	W16
	BYTE		        Cn5 
	BYTE	W16
	BYTE	PEND
// 008   ----------------------------------------
ScalingPeaks_1_008:
	BYTE		N16     Dn5   v127
	BYTE	W16
	BYTE		        An4 
	BYTE	W16
	BYTE		        Fn4 
	BYTE	W16
	BYTE		        Dn5 
	BYTE	W16
	BYTE		        En5 
	BYTE	W16
	BYTE		        Fn5 
	BYTE	W16
	BYTE	PEND
// 009   ----------------------------------------
ScalingPeaks_1_009:
	BYTE		N36     Gn5   v127
	BYTE	W36
	BYTE		N12     Dn5 
	BYTE	W12
	BYTE		N42   
	BYTE	W48
	BYTE	PEND
// 010   ----------------------------------------
	BYTE	PATT
	 POIN2	ScalingPeaks_1_006
// 011   ----------------------------------------
	BYTE	PATT
	 POIN2	ScalingPeaks_1_007
// 012   ----------------------------------------
ScalingPeaks_1_012:
	BYTE		N16     Dn5   v127
	BYTE	W16
	BYTE		        An4 
	BYTE	W16
	BYTE		        Fn4 
	BYTE	W16
	BYTE		        En5 
	BYTE	W16
	BYTE		        Fn5 
	BYTE	W16
	BYTE		        Fs5 
	BYTE	W16
	BYTE	PEND
// 013   ----------------------------------------
ScalingPeaks_1_013:
	BYTE		N16     Gn5   v127
	BYTE	W16
	BYTE		        Bn5 
	BYTE	W16
	BYTE		        An5 
	BYTE	W16
	BYTE		N24     Gn5 
	BYTE	W24
	BYTE		N20     Dn5 
	BYTE	W24
	BYTE	PEND
// 014   ----------------------------------------
ScalingPeaks_1_014:
	BYTE		N16     An4   v127
	BYTE	W16
	BYTE		        Cn5 
	BYTE	W16
	BYTE		        An4 
	BYTE	W16
	BYTE		        Fn5 
	BYTE	W16
	BYTE		        En5 
	BYTE	W16
	BYTE		        Dn5 
	BYTE	W16
	BYTE	PEND
// 015   ----------------------------------------
ScalingPeaks_1_015:
	BYTE		N16     Cn5   v127
	BYTE	W16
	BYTE		        Bn4 
	BYTE	W16
	BYTE		        An4 
	BYTE	W16
	BYTE		N24     Gn4 
	BYTE	W24
	BYTE		        En4 
	BYTE	W24
	BYTE	PEND
// 016   ----------------------------------------
ScalingPeaks_1_016:
	BYTE		N16     Gs4   v127
	BYTE	W16
	BYTE		        An4 
	BYTE	W16
	BYTE		        Bn4 
	BYTE	W16
	BYTE		        Dn5 
	BYTE	W16
	BYTE		        Cn5 
	BYTE	W16
	BYTE		        Bn4 
	BYTE	W16
	BYTE	PEND
// 017   ----------------------------------------
ScalingPeaks_1_017:
	BYTE		N16     Cn5   v127
	BYTE	W16
	BYTE		        Fn5 
	BYTE	W16
	BYTE		        Dn5 
	BYTE	W16
	BYTE		N48     En5 
	BYTE	W48
	BYTE	PEND
// 018   ----------------------------------------
	BYTE	PATT
	 POIN2	ScalingPeaks_1_014
// 019   ----------------------------------------
	BYTE	PATT
	 POIN2	ScalingPeaks_1_015
// 020   ----------------------------------------
ScalingPeaks_1_020:
	BYTE		N16     Dn5   v127
	BYTE	W16
	BYTE		        An4 
	BYTE	W16
	BYTE		        Fn4 
	BYTE	W16
	BYTE		        Gs4 
	BYTE	W16
	BYTE		        Bn4 
	BYTE	W16
	BYTE		        Ds5 
	BYTE	W16
	BYTE	PEND
// 021   ----------------------------------------
ScalingPeaks_1_021:
	BYTE		N30     En5   v127
	BYTE	W30
	BYTE		N06     Dn5 
	BYTE	W06
	BYTE		        En5 
	BYTE	W06
	BYTE		        Fn5 
	BYTE	W06
	BYTE		N03     En5 
	BYTE	W03
	BYTE		        Fn5 
	BYTE	W03
	BYTE		        En5 
	BYTE	W03
	BYTE		        Fn5 
	BYTE	W03
	BYTE		        En5 
	BYTE	W03
	BYTE		        Fn5 
	BYTE	W03
	BYTE		        En5 
	BYTE	W03
	BYTE		        Fn5 
	BYTE	W03
	BYTE		        En5 
	BYTE	W03
	BYTE		        Fn5 
	BYTE	W03
	BYTE		        En5 
	BYTE	W03
	BYTE		        Fn5 
	BYTE	W03
	BYTE		        En5 
	BYTE	W03
	BYTE		        Fn5 
	BYTE	W03
	BYTE		        En5 
	BYTE	W03
	BYTE		        Fn5 
	BYTE	W03
	BYTE	PEND
// 022   ----------------------------------------
	BYTE	PATT
	 POIN2	ScalingPeaks_1_006
// 023   ----------------------------------------
	BYTE	PATT
	 POIN2	ScalingPeaks_1_007
// 024   ----------------------------------------
	BYTE	PATT
	 POIN2	ScalingPeaks_1_008
// 025   ----------------------------------------
	BYTE	PATT
	 POIN2	ScalingPeaks_1_009
// 026   ----------------------------------------
	BYTE	PATT
	 POIN2	ScalingPeaks_1_006
// 027   ----------------------------------------
	BYTE	PATT
	 POIN2	ScalingPeaks_1_007
// 028   ----------------------------------------
	BYTE	PATT
	 POIN2	ScalingPeaks_1_012
// 029   ----------------------------------------
	BYTE	PATT
	 POIN2	ScalingPeaks_1_013
// 030   ----------------------------------------
	BYTE	PATT
	 POIN2	ScalingPeaks_1_014
// 031   ----------------------------------------
	BYTE	PATT
	 POIN2	ScalingPeaks_1_015
// 032   ----------------------------------------
	BYTE	PATT
	 POIN2	ScalingPeaks_1_016
// 033   ----------------------------------------
	BYTE	PATT
	 POIN2	ScalingPeaks_1_017
// 034   ----------------------------------------
	BYTE	PATT
	 POIN2	ScalingPeaks_1_014
// 035   ----------------------------------------
	BYTE	PATT
	 POIN2	ScalingPeaks_1_015
// 036   ----------------------------------------
	BYTE	PATT
	 POIN2	ScalingPeaks_1_020
// 037   ----------------------------------------
	BYTE	PATT
	 POIN2	ScalingPeaks_1_021
// 038   ----------------------------------------
	BYTE	TEMPO   150*ScalingPeaks_tbs/2
	BYTE		N28     An4   v127
	BYTE	W32
	BYTE		N15     Cn5 
	BYTE	W16
	BYTE		        Dn5 
	BYTE	W16
	BYTE		        Cn5 
	BYTE	W16
	BYTE		        Bn4 
	BYTE	W16
// 039   ----------------------------------------
ScalingPeaks_1_039:
	BYTE		N07     Cn5   v127
	BYTE	W08
	BYTE		        Bn4 
	BYTE	W08
	BYTE		N72     An4 
	BYTE	W80
	BYTE	PEND
// 040   ----------------------------------------
ScalingPeaks_1_040:
	BYTE		N28     An4   v127
	BYTE	W32
	BYTE		N15     Cn5 
	BYTE	W16
	BYTE		        Dn5 
	BYTE	W16
	BYTE		        Cn5 
	BYTE	W16
	BYTE		        Bn4 
	BYTE	W16
	BYTE	PEND
// 041   ----------------------------------------
ScalingPeaks_1_041:
	BYTE		N07     Cn5   v127
	BYTE	W08
	BYTE		        Bn4 
	BYTE	W08
	BYTE		N60     An4 
	BYTE	W64
	BYTE		N15     Cn5 
	BYTE	W16
	BYTE	PEND
// 042   ----------------------------------------
ScalingPeaks_1_042:
	BYTE		N15     Fn5   v127
	BYTE	W16
	BYTE		N15   
	BYTE	W16
	BYTE		N07   
	BYTE	W08
	BYTE		        En5 
	BYTE	W08
	BYTE		N28     Dn5 
	BYTE	W32
	BYTE		N15     Fn5 
	BYTE	W16
	BYTE	PEND
// 043   ----------------------------------------
ScalingPeaks_1_043:
	BYTE		N15     En5   v127
	BYTE	W16
	BYTE		N15   
	BYTE	W16
	BYTE		N07   
	BYTE	W08
	BYTE		        Dn5 
	BYTE	W08
	BYTE		N28     Cn5 
	BYTE	W32
	BYTE		N15     En5 
	BYTE	W16
	BYTE	PEND
// 044   ----------------------------------------
ScalingPeaks_1_044:
	BYTE		N28     Dn5   v127
	BYTE	W32
	BYTE		N15     Cn5 
	BYTE	W16
	BYTE		        Bn4 
	BYTE	W16
	BYTE		        An4 
	BYTE	W16
	BYTE		        Gn4 
	BYTE	W16
	BYTE	PEND
// 045   ----------------------------------------
	BYTE		N90     An4 
	BYTE	W96
// 046   ----------------------------------------
	BYTE	PATT
	 POIN2	ScalingPeaks_1_040
// 047   ----------------------------------------
	BYTE	PATT
	 POIN2	ScalingPeaks_1_039
// 048   ----------------------------------------
	BYTE	PATT
	 POIN2	ScalingPeaks_1_040
// 049   ----------------------------------------
	BYTE	PATT
	 POIN2	ScalingPeaks_1_041
// 050   ----------------------------------------
	BYTE	PATT
	 POIN2	ScalingPeaks_1_042
// 051   ----------------------------------------
	BYTE	PATT
	 POIN2	ScalingPeaks_1_043
// 052   ----------------------------------------
	BYTE	PATT
	 POIN2	ScalingPeaks_1_044
// 053   ----------------------------------------
	BYTE	TEMPO   120*ScalingPeaks_tbs/2
	BYTE		N16     An4   v127
	BYTE	W16
	BYTE		        Cn5 
	BYTE	W16
	BYTE		        An4 
	BYTE	W16
	BYTE		        Fn5 
	BYTE	W16
	BYTE		        En5 
	BYTE	W16
	BYTE		        Dn5 
	BYTE	W16
// 054   ----------------------------------------
	BYTE	PATT
	 POIN2	ScalingPeaks_1_015
// 055   ----------------------------------------
	BYTE	PATT
	 POIN2	ScalingPeaks_1_016
// 056   ----------------------------------------
	BYTE	PATT
	 POIN2	ScalingPeaks_1_017
// 057   ----------------------------------------
	BYTE	PATT
	 POIN2	ScalingPeaks_1_014
// 058   ----------------------------------------
	BYTE	PATT
	 POIN2	ScalingPeaks_1_015
// 059   ----------------------------------------
	BYTE	PATT
	 POIN2	ScalingPeaks_1_020
// 060   ----------------------------------------
	BYTE	PATT
	 POIN2	ScalingPeaks_1_021
// 061   ----------------------------------------
	BYTE		N15     Gs2   v127
	BYTE		N15     Bn2 
	BYTE		N15     En3 
	BYTE	W16
	BYTE		        Bn2 
	BYTE		N15     En3 
	BYTE		N15     Gs3 
	BYTE	W16
	BYTE		        En3 
	BYTE		N15     Gs3 
	BYTE		N15     Bn3 
	BYTE	W16
	BYTE		        Gs3 
	BYTE		N15     Bn3 
	BYTE		N15     En4 
	BYTE	W16
	BYTE		        Bn3 
	BYTE		N15     En4 
	BYTE		N15     Gs4 
	BYTE	W16
	BYTE		        En4 
	BYTE		N15     Gs4 
	BYTE		N15     Bn4 
	BYTE	W15
	BYTE	GoTo
	 POIN2	ScalingPeaks_1_B1
ScalingPeaks_1_B2:
	BYTE	FINE

//**************** Track 2 (Midi-Chn.2) ****************//

ScalingPeaks_2:
	BYTE	KEYSH   ScalingPeaks_key+0
// 000   ----------------------------------------
	BYTE		VOICE   0
	BYTE		MODT    0
	BYTE		LFOS    44
	BYTE		VOL     95*ScalingPeaks_mvl/mxv
	BYTE		PAN     c_v-32
	BYTE		N15     Cn3   v127
	BYTE		N15     En3 
	BYTE		N15     An3 
	BYTE	W16
	BYTE		N28     Cn4 
	BYTE		N28     En4 
	BYTE		N28     An4 
	BYTE	W32
	BYTE		N15     Bn2 
	BYTE		N15     En3 
	BYTE		N15     Gs3 
	BYTE	W16
	BYTE		N28     Bn3 
	BYTE		N28     En4 
	BYTE		N28     Gs4 
	BYTE	W32
// 001   ----------------------------------------
ScalingPeaks_2_001:
	BYTE		N15     Cn3   v127
	BYTE		N15     En3 
	BYTE		N15     Gn3 
	BYTE	W16
	BYTE		N28     Cn4 
	BYTE		N28     En4 
	BYTE		N28     Gn4 
	BYTE	W32
	BYTE		N15     An3 
	BYTE		N15     Dn4 
	BYTE		N15     Fs4 
	BYTE	W16
	BYTE		N28     Fs3 
	BYTE		N28     An3 
	BYTE		N28     Dn4 
	BYTE	W32
	BYTE	PEND
// 002   ----------------------------------------
	BYTE		N15     Cn3 
	BYTE		N15     En3 
	BYTE		N15     An3 
	BYTE	W16
	BYTE		N28     Cn4 
	BYTE		N28     En4 
	BYTE		N28     An4 
	BYTE	W32
	BYTE		N15     Bn2 
	BYTE		N15     En3 
	BYTE		N15     Gs3 
	BYTE	W16
	BYTE		N28     Bn3 
	BYTE		N28     En4 
	BYTE		N28     Gs4 
	BYTE	W32
// 003   ----------------------------------------
	BYTE	PATT
	 POIN2	ScalingPeaks_2_001
// 004   ----------------------------------------
ScalingPeaks_2_004:
	BYTE		N42     Cn3   v127
	BYTE		N42     En3 
	BYTE		N42     An3 
	BYTE	W48
	BYTE		        Cn3 
	BYTE		N42     En3 
	BYTE		N42     Gn3 
	BYTE	W48
	BYTE	PEND
// 005   ----------------------------------------
	BYTE	PATT
	 POIN2	ScalingPeaks_2_004
ScalingPeaks_2_B1:
// 006   ----------------------------------------
ScalingPeaks_2_006:
	BYTE		N36     An3   v127
	BYTE		N36     Cn4 
	BYTE		N36     En4 
	BYTE	W36
	BYTE		N12     En3 
	BYTE		N12     An3 
	BYTE		N12     Cn4 
	BYTE	W12
	BYTE		N16     En3 
	BYTE		N16     Gn3 
	BYTE		N16     Bn3 
	BYTE	W16
	BYTE		        Cn3 
	BYTE		N16     En3 
	BYTE		N16     Cn4 
	BYTE	W16
	BYTE		        En3 
	BYTE		N16     Gn3 
	BYTE		N16     Bn3 
	BYTE	W16
	BYTE	PEND
// 007   ----------------------------------------
ScalingPeaks_2_007:
	BYTE		N36     Cn3   v127
	BYTE		N36     Fn3 
	BYTE		N36     An3 
	BYTE	W36
	BYTE		N12     An2 
	BYTE		N12     Cn3 
	BYTE		N12     En3 
	BYTE	W12
	BYTE		N16     Cn3 
	BYTE		N16     Fn3 
	BYTE		N16     An3 
	BYTE	W16
	BYTE		        Dn3 
	BYTE		N16     Fn3 
	BYTE		N16     Bn3 
	BYTE	W16
	BYTE		        Fn3 
	BYTE		N16     An3 
	BYTE		N16     Cn4 
	BYTE	W16
	BYTE	PEND
// 008   ----------------------------------------
ScalingPeaks_2_008:
	BYTE		N16     Fn3   v127
	BYTE		N16     An3 
	BYTE		N16     Dn4 
	BYTE	W16
	BYTE		        Dn3 
	BYTE		N16     Fn3 
	BYTE		N16     An3 
	BYTE	W16
	BYTE		        An2 
	BYTE		N16     Dn3 
	BYTE		N16     Fn3 
	BYTE	W16
	BYTE		N16   
	BYTE		N16     An3 
	BYTE		N16     Dn4 
	BYTE	W16
	BYTE		        Gn3 
	BYTE		N16     Bn3 
	BYTE		N16     En4 
	BYTE	W16
	BYTE		        An3 
	BYTE		N16     Cn4 
	BYTE		N16     Fn4 
	BYTE	W16
	BYTE	PEND
// 009   ----------------------------------------
ScalingPeaks_2_009:
	BYTE		N36     Gn3   v127
	BYTE		N36     Cn4 
	BYTE		N36     Dn4 
	BYTE	W36
	BYTE		N12     Dn3 
	BYTE		N12     Gn3 
	BYTE		N12     Bn3 
	BYTE	W12
	BYTE		N42     Dn3 
	BYTE		N42     Gn3 
	BYTE		N42     Bn3 
	BYTE	W48
	BYTE	PEND
// 010   ----------------------------------------
	BYTE	PATT
	 POIN2	ScalingPeaks_2_006
// 011   ----------------------------------------
	BYTE	PATT
	 POIN2	ScalingPeaks_2_007
// 012   ----------------------------------------
ScalingPeaks_2_012:
	BYTE		N16     Fn3   v127
	BYTE		N16     An3 
	BYTE		N16     Dn4 
	BYTE	W16
	BYTE		        Dn3 
	BYTE		N16     Fn3 
	BYTE		N16     An3 
	BYTE	W16
	BYTE		        An2 
	BYTE		N16     Dn3 
	BYTE		N16     Fn3 
	BYTE	W16
	BYTE		        An3 
	BYTE		N16     Cn4 
	BYTE		N16     En4 
	BYTE	W16
	BYTE		        An3 
	BYTE		N16     Dn4 
	BYTE		N16     Fn4 
	BYTE	W16
	BYTE		        An3 
	BYTE		N16     Dn4 
	BYTE		N16     Fs4 
	BYTE	W16
	BYTE	PEND
// 013   ----------------------------------------
	BYTE	PATT
	 POIN2	ScalingPeaks_2_009
// 014   ----------------------------------------
ScalingPeaks_2_014:
	BYTE		N16     Cn3   v127
	BYTE		N16     Fn3 
	BYTE		N16     An3 
	BYTE	W16
	BYTE		        Fn3 
	BYTE		N16     An3 
	BYTE		N16     Cn4 
	BYTE	W16
	BYTE		        Cn3 
	BYTE		N16     Fn3 
	BYTE		N16     An3 
	BYTE	W16
	BYTE		N16   
	BYTE		N16     Cn4 
	BYTE		N16     Fn4 
	BYTE	W16
	BYTE		        Fn3 
	BYTE		N16     An3 
	BYTE		N16     En4 
	BYTE	W16
	BYTE		        Cn3 
	BYTE		N16     An3 
	BYTE		N16     Dn4 
	BYTE	W16
	BYTE	PEND
// 015   ----------------------------------------
ScalingPeaks_2_015:
	BYTE		N16     En3   v127
	BYTE		N16     An3 
	BYTE		N16     Cn4 
	BYTE	W16
	BYTE		        Dn3 
	BYTE		N16     Gn3 
	BYTE		N16     Bn3 
	BYTE	W16
	BYTE		        Cn3 
	BYTE		N16     En3 
	BYTE		N16     An3 
	BYTE	W16
	BYTE		N24     Cn3 
	BYTE		N24     En3 
	BYTE		N24     Gn3 
	BYTE	W24
	BYTE		        An2 
	BYTE		N24     Cn3 
	BYTE		N24     En3 
	BYTE	W24
	BYTE	PEND
// 016   ----------------------------------------
ScalingPeaks_2_016:
	BYTE		N16     Bn2   v127
	BYTE		N16     En3 
	BYTE		N16     Gs3 
	BYTE	W16
	BYTE		        Cn3 
	BYTE		N16     Fs3 
	BYTE		N16     An3 
	BYTE	W16
	BYTE		        En3 
	BYTE		N16     Gs3 
	BYTE		N16     Bn3 
	BYTE	W16
	BYTE		        Gs3 
	BYTE		N16     Bn3 
	BYTE		N16     Dn4 
	BYTE	W16
	BYTE		        En3 
	BYTE		N16     Gs3 
	BYTE		N16     Cn4 
	BYTE	W16
	BYTE		        Bn2 
	BYTE		N16     En3 
	BYTE		N16     Bn3 
	BYTE	W16
	BYTE	PEND
// 017   ----------------------------------------
ScalingPeaks_2_017:
	BYTE		N16     En3   v127
	BYTE		N16     An3 
	BYTE		N16     Cn4 
	BYTE	W16
	BYTE		        Fn3 
	BYTE		N16     Cn4 
	BYTE		N16     Fn4 
	BYTE	W16
	BYTE		        En3 
	BYTE		N16     Gn3 
	BYTE		N16     Dn4 
	BYTE	W16
	BYTE		N48     An3 
	BYTE		N48     Cn4 
	BYTE		N48     En4 
	BYTE	W48
	BYTE	PEND
// 018   ----------------------------------------
	BYTE	PATT
	 POIN2	ScalingPeaks_2_014
// 019   ----------------------------------------
	BYTE	PATT
	 POIN2	ScalingPeaks_2_015
// 020   ----------------------------------------
ScalingPeaks_2_020:
	BYTE		N16     Fn3   v127
	BYTE		N16     An3 
	BYTE		N16     Dn4 
	BYTE	W16
	BYTE		        Dn3 
	BYTE		N16     Fn3 
	BYTE		N16     An3 
	BYTE	W16
	BYTE		        An2 
	BYTE		N16     Dn3 
	BYTE		N16     Fn3 
	BYTE	W16
	BYTE		        Bn2 
	BYTE		N16     Ds3 
	BYTE		N16     Gs3 
	BYTE	W16
	BYTE		        Ds3 
	BYTE		N16     Gs3 
	BYTE		N16     Bn3 
	BYTE	W16
	BYTE		        Gs3 
	BYTE		N16     Bn3 
	BYTE		N16     Ds4 
	BYTE	W16
	BYTE	PEND
// 021   ----------------------------------------
ScalingPeaks_2_021:
	BYTE		N32     An3   v127
	BYTE		N32     Cn4 
	BYTE		N30     En4 
	BYTE	W30
	BYTE		N06     Dn4 
	BYTE	W06
	BYTE		N11     En3 
	BYTE		N11     An3 
	BYTE		N06     En4 
	BYTE	W06
	BYTE		        Fn4 
	BYTE	W06
	BYTE		N24     En3 
	BYTE		N24     An3 
	BYTE		N24     Bn3 
	BYTE	W24
	BYTE		        En3 
	BYTE		N24     Gs3 
	BYTE		N24     Bn3 
	BYTE	W24
	BYTE	PEND
// 022   ----------------------------------------
	BYTE	PATT
	 POIN2	ScalingPeaks_2_006
// 023   ----------------------------------------
	BYTE	PATT
	 POIN2	ScalingPeaks_2_007
// 024   ----------------------------------------
	BYTE	PATT
	 POIN2	ScalingPeaks_2_008
// 025   ----------------------------------------
	BYTE	PATT
	 POIN2	ScalingPeaks_2_009
// 026   ----------------------------------------
	BYTE	PATT
	 POIN2	ScalingPeaks_2_006
// 027   ----------------------------------------
	BYTE	PATT
	 POIN2	ScalingPeaks_2_007
// 028   ----------------------------------------
	BYTE	PATT
	 POIN2	ScalingPeaks_2_012
// 029   ----------------------------------------
	BYTE	PATT
	 POIN2	ScalingPeaks_2_009
// 030   ----------------------------------------
	BYTE	PATT
	 POIN2	ScalingPeaks_2_014
// 031   ----------------------------------------
	BYTE	PATT
	 POIN2	ScalingPeaks_2_015
// 032   ----------------------------------------
	BYTE	PATT
	 POIN2	ScalingPeaks_2_016
// 033   ----------------------------------------
	BYTE	PATT
	 POIN2	ScalingPeaks_2_017
// 034   ----------------------------------------
	BYTE	PATT
	 POIN2	ScalingPeaks_2_014
// 035   ----------------------------------------
	BYTE	PATT
	 POIN2	ScalingPeaks_2_015
// 036   ----------------------------------------
	BYTE	PATT
	 POIN2	ScalingPeaks_2_020
// 037   ----------------------------------------
	BYTE	PATT
	 POIN2	ScalingPeaks_2_021
// 038   ----------------------------------------
ScalingPeaks_2_038:
	BYTE		N28     An3   v127
	BYTE	W32
	BYTE		N15     Cn4 
	BYTE	W16
	BYTE		        Dn4 
	BYTE	W16
	BYTE		        Cn4 
	BYTE	W16
	BYTE		        Bn3 
	BYTE	W16
	BYTE	PEND
// 039   ----------------------------------------
ScalingPeaks_2_039:
	BYTE		N07     Cn4   v127
	BYTE	W08
	BYTE		        Bn3 
	BYTE	W08
	BYTE		N72     An3 
	BYTE	W80
	BYTE	PEND
// 040   ----------------------------------------
	BYTE	PATT
	 POIN2	ScalingPeaks_2_038
// 041   ----------------------------------------
ScalingPeaks_2_041:
	BYTE		N07     Cn4   v127
	BYTE	W08
	BYTE		        Bn3 
	BYTE	W08
	BYTE		N60     An3 
	BYTE	W64
	BYTE		N15     Cn4 
	BYTE	W16
	BYTE	PEND
// 042   ----------------------------------------
ScalingPeaks_2_042:
	BYTE		N15     Fn4   v127
	BYTE	W16
	BYTE		N15   
	BYTE	W16
	BYTE		N07   
	BYTE	W08
	BYTE		        En4 
	BYTE	W08
	BYTE		N28     Dn4 
	BYTE	W32
	BYTE		N15     Fn4 
	BYTE	W16
	BYTE	PEND
// 043   ----------------------------------------
ScalingPeaks_2_043:
	BYTE		N15     En4   v127
	BYTE	W16
	BYTE		N15   
	BYTE	W16
	BYTE		N07   
	BYTE	W08
	BYTE		        Dn4 
	BYTE	W08
	BYTE		N28     Cn4 
	BYTE	W32
	BYTE		N15     En4 
	BYTE	W16
	BYTE	PEND
// 044   ----------------------------------------
ScalingPeaks_2_044:
	BYTE		N28     Dn4   v127
	BYTE	W32
	BYTE		N15     Cn4 
	BYTE	W16
	BYTE		        Bn3 
	BYTE	W16
	BYTE		        An3 
	BYTE	W16
	BYTE		        Gn3 
	BYTE	W16
	BYTE	PEND
// 045   ----------------------------------------
	BYTE		N90     An3 
	BYTE	W96
// 046   ----------------------------------------
	BYTE	PATT
	 POIN2	ScalingPeaks_2_038
// 047   ----------------------------------------
	BYTE	PATT
	 POIN2	ScalingPeaks_2_039
// 048   ----------------------------------------
	BYTE	PATT
	 POIN2	ScalingPeaks_2_038
// 049   ----------------------------------------
	BYTE	PATT
	 POIN2	ScalingPeaks_2_041
// 050   ----------------------------------------
	BYTE	PATT
	 POIN2	ScalingPeaks_2_042
// 051   ----------------------------------------
	BYTE	PATT
	 POIN2	ScalingPeaks_2_043
// 052   ----------------------------------------
	BYTE	PATT
	 POIN2	ScalingPeaks_2_044
// 053   ----------------------------------------
	BYTE	PATT
	 POIN2	ScalingPeaks_2_014
// 054   ----------------------------------------
	BYTE	PATT
	 POIN2	ScalingPeaks_2_015
// 055   ----------------------------------------
	BYTE	PATT
	 POIN2	ScalingPeaks_2_016
// 056   ----------------------------------------
	BYTE	PATT
	 POIN2	ScalingPeaks_2_017
// 057   ----------------------------------------
	BYTE	PATT
	 POIN2	ScalingPeaks_2_014
// 058   ----------------------------------------
	BYTE	PATT
	 POIN2	ScalingPeaks_2_015
// 059   ----------------------------------------
	BYTE	PATT
	 POIN2	ScalingPeaks_2_020
// 060   ----------------------------------------
	BYTE	PATT
	 POIN2	ScalingPeaks_2_021
// 061   ----------------------------------------
	BYTE		N90     En2   v127
	BYTE	W92
	BYTE	W03
	BYTE	GoTo
	 POIN2	ScalingPeaks_2_B1
ScalingPeaks_2_B2:
	BYTE	FINE

//**************** Track 3 (Midi-Chn.3) ****************//

ScalingPeaks_3:
	BYTE	KEYSH   ScalingPeaks_key+0
// 000   ----------------------------------------
	BYTE		VOICE   48
	BYTE		MODT    0
	BYTE		LFOS    44
	BYTE		VOL     85*ScalingPeaks_mvl/mxv
	BYTE		PAN     c_v-13
	BYTE		N90     En3   v100
	BYTE		N48     An3 
	BYTE		N48     Cn4 
	BYTE	W48
	BYTE		        Gs3 
	BYTE		N48     Bn3 
	BYTE	W48
// 001   ----------------------------------------
ScalingPeaks_3_001:
	BYTE		N48     En3   v100
	BYTE		N48     Gn3 
	BYTE		N48     Cn4 
	BYTE	W48
	BYTE		        Fs3 
	BYTE		N48     An3 
	BYTE		N48     Dn4 
	BYTE	W48
	BYTE	PEND
// 002   ----------------------------------------
	BYTE		N90     En3 
	BYTE		N48     An3 
	BYTE		N48     Cn4 
	BYTE	W48
	BYTE		        Gs3 
	BYTE		N48     Bn3 
	BYTE	W48
// 003   ----------------------------------------
	BYTE	PATT
	 POIN2	ScalingPeaks_3_001
// 004   ----------------------------------------
	BYTE		TIE     An3   v100
	BYTE	W48
	BYTE		        Cn4 
	BYTE	W48
// 005   ----------------------------------------
	BYTE		N90     En4 
	BYTE	W48
	BYTE		N42     Gn4 
	BYTE	W42
	BYTE		EOT     An3 
	BYTE		        Cn4 
	BYTE	W06
ScalingPeaks_3_B1:
// 006   ----------------------------------------
	BYTE	W96
// 007   ----------------------------------------
	BYTE	W96
// 008   ----------------------------------------
	BYTE	W96
// 009   ----------------------------------------
	BYTE	W96
// 010   ----------------------------------------
	BYTE	W96
// 011   ----------------------------------------
	BYTE	W96
// 012   ----------------------------------------
	BYTE	W96
// 013   ----------------------------------------
	BYTE	W96
// 014   ----------------------------------------
	BYTE	W96
// 015   ----------------------------------------
	BYTE	W96
// 016   ----------------------------------------
	BYTE	W96
// 017   ----------------------------------------
	BYTE	W96
// 018   ----------------------------------------
	BYTE	W96
// 019   ----------------------------------------
	BYTE	W96
// 020   ----------------------------------------
	BYTE	W96
// 021   ----------------------------------------
	BYTE	W96
// 022   ----------------------------------------
	BYTE		N96     En3   v100
	BYTE		N96     An3 
	BYTE		N96     Cn4 
	BYTE	W96
// 023   ----------------------------------------
ScalingPeaks_3_023:
	BYTE		N96     Fn3   v100
	BYTE		N96     An3 
	BYTE		N96     Cn4 
	BYTE	W96
	BYTE	PEND
// 024   ----------------------------------------
	BYTE		        Fn3 
	BYTE		N96     An3 
	BYTE		N96     Dn4 
	BYTE	W96
// 025   ----------------------------------------
ScalingPeaks_3_025:
	BYTE		N48     Gn3   v100
	BYTE		N48     Cn4 
	BYTE		N48     Dn4 
	BYTE	W48
	BYTE		N42     Dn3 
	BYTE		N42     Gn3 
	BYTE		N42     Bn3 
	BYTE	W48
	BYTE	PEND
// 026   ----------------------------------------
	BYTE		N96     En3 
	BYTE		N96     An3 
	BYTE		N96     Cn4 
	BYTE	W96
// 027   ----------------------------------------
	BYTE	PATT
	 POIN2	ScalingPeaks_3_023
// 028   ----------------------------------------
	BYTE		N48     Fn3   v100
	BYTE		N48     An3 
	BYTE		N48     Dn4 
	BYTE	W48
	BYTE		N24     An3 
	BYTE		N24     Cn4 
	BYTE		N24     En4 
	BYTE	W24
	BYTE		        An3 
	BYTE		N24     Dn4 
	BYTE		N24     Fs4 
	BYTE	W24
// 029   ----------------------------------------
	BYTE	PATT
	 POIN2	ScalingPeaks_3_025
// 030   ----------------------------------------
	BYTE	PATT
	 POIN2	ScalingPeaks_3_023
// 031   ----------------------------------------
	BYTE		N96     En3   v100
	BYTE		N96     An3 
	BYTE		N96     Cn4 
	BYTE	W96
// 032   ----------------------------------------
	BYTE		        En3 
	BYTE		N96     Gs3 
	BYTE		N96     Bn3 
	BYTE	W96
// 033   ----------------------------------------
	BYTE		        En3 
	BYTE		N96     An3 
	BYTE		N96     Cn4 
	BYTE	W96
// 034   ----------------------------------------
	BYTE	PATT
	 POIN2	ScalingPeaks_3_023
// 035   ----------------------------------------
	BYTE		N96     En3   v100
	BYTE		N96     An3 
	BYTE		N96     Cn4 
	BYTE	W96
// 036   ----------------------------------------
ScalingPeaks_3_036:
	BYTE		N48     Fn3   v100
	BYTE		N48     An3 
	BYTE		N48     Dn4 
	BYTE	W48
	BYTE		        Fs3 
	BYTE		N48     Bn3 
	BYTE		N48     Ds4 
	BYTE	W48
	BYTE	PEND
// 037   ----------------------------------------
ScalingPeaks_3_037:
	BYTE		N48     An3   v100
	BYTE		N96     Bn3 
	BYTE		N48     Cn4 
	BYTE		N90     En4 
	BYTE	W48
	BYTE		N48     Gs3 
	BYTE	W48
	BYTE	PEND
// 038   ----------------------------------------
ScalingPeaks_3_038:
	BYTE		TIE     En3   v100
	BYTE		TIE     An3 
	BYTE		TIE     Cn4 
	BYTE	W96
	BYTE	PEND
// 039   ----------------------------------------
	BYTE	W96
	BYTE		EOT     En3 
	BYTE		        An3 
	BYTE		        Cn4 
// 040   ----------------------------------------
	BYTE		N96     En3 
	BYTE		N96     Gn3 
	BYTE		N96     Bn3 
	BYTE	W96
// 041   ----------------------------------------
	BYTE		        En3 
	BYTE		N96     Gn3 
	BYTE		N96     Cn4 
	BYTE	W96
// 042   ----------------------------------------
	BYTE	PATT
	 POIN2	ScalingPeaks_3_023
// 043   ----------------------------------------
	BYTE		N96     En3   v100
	BYTE		N96     Gn3 
	BYTE		N96     Cn4 
	BYTE	W96
// 044   ----------------------------------------
	BYTE		        Dn3 
	BYTE		N96     Gn3 
	BYTE		N96     Bn3 
	BYTE	W96
// 045   ----------------------------------------
	BYTE		N48     Cn3 
	BYTE		N48     Fn3 
	BYTE		N48     An3 
	BYTE	W48
	BYTE		        Dn3 
	BYTE		N48     Gn3 
	BYTE		N48     Bn3 
	BYTE	W48
// 046   ----------------------------------------
	BYTE	PATT
	 POIN2	ScalingPeaks_3_038
// 047   ----------------------------------------
	BYTE	W96
	BYTE		EOT     En3 
	BYTE		        An3 
	BYTE		        Cn4 
// 048   ----------------------------------------
	BYTE		N96     En3   v100
	BYTE		N96     Gn3 
	BYTE		N96     Bn3 
	BYTE	W96
// 049   ----------------------------------------
	BYTE		        En3 
	BYTE		N96     Gn3 
	BYTE		N96     Cn4 
	BYTE	W96
// 050   ----------------------------------------
	BYTE	PATT
	 POIN2	ScalingPeaks_3_023
// 051   ----------------------------------------
	BYTE		N96     En3   v100
	BYTE		N96     Gn3 
	BYTE		N96     Cn4 
	BYTE	W96
// 052   ----------------------------------------
	BYTE		N90     Dn3 
	BYTE		N90     Gn3 
	BYTE		N90     Bn3 
	BYTE	W96
// 053   ----------------------------------------
	BYTE	PATT
	 POIN2	ScalingPeaks_3_023
// 054   ----------------------------------------
	BYTE		N96     En3   v100
	BYTE		N96     An3 
	BYTE		N96     Cn4 
	BYTE	W96
// 055   ----------------------------------------
	BYTE		        En3 
	BYTE		N96     Gs3 
	BYTE		N96     Bn3 
	BYTE	W96
// 056   ----------------------------------------
	BYTE		        En3 
	BYTE		N96     An3 
	BYTE		N96     Cn4 
	BYTE	W96
// 057   ----------------------------------------
	BYTE	PATT
	 POIN2	ScalingPeaks_3_023
// 058   ----------------------------------------
	BYTE		N96     En3   v100
	BYTE		N96     An3 
	BYTE		N96     Cn4 
	BYTE	W96
// 059   ----------------------------------------
	BYTE	PATT
	 POIN2	ScalingPeaks_3_036
// 060   ----------------------------------------
	BYTE	PATT
	 POIN2	ScalingPeaks_3_037
// 061   ----------------------------------------
	BYTE	W92
	BYTE	W03
	BYTE	GoTo
	 POIN2	ScalingPeaks_3_B1
ScalingPeaks_3_B2:
	BYTE	FINE

//**************** Track 4 (Midi-Chn.4) ****************//

ScalingPeaks_4:
	BYTE	KEYSH   ScalingPeaks_key+0
// 000   ----------------------------------------
	BYTE		VOICE   33
	BYTE		MODT    0
	BYTE		LFOS    44
	BYTE		VOL     114*ScalingPeaks_mvl/mxv
	BYTE		PAN     c_v+23
	BYTE		N15     An1   v127
	BYTE	W16
	BYTE		        En1 
	BYTE	W16
	BYTE		        An1 
	BYTE	W16
	BYTE		        Gs1 
	BYTE	W16
	BYTE		        En1 
	BYTE	W16
	BYTE		        Gs1 
	BYTE	W16
// 001   ----------------------------------------
ScalingPeaks_4_001:
	BYTE		N15     Gn1   v127
	BYTE	W16
	BYTE		        En1 
	BYTE	W16
	BYTE		        Gn1 
	BYTE	W16
	BYTE		        Fs1 
	BYTE	W16
	BYTE		        Dn1 
	BYTE	W16
	BYTE		        Fs1 
	BYTE	W16
	BYTE	PEND
// 002   ----------------------------------------
	BYTE		        An1 
	BYTE	W16
	BYTE		        En1 
	BYTE	W16
	BYTE		        An1 
	BYTE	W16
	BYTE		        Gs1 
	BYTE	W16
	BYTE		        En1 
	BYTE	W16
	BYTE		        Gs1 
	BYTE	W16
// 003   ----------------------------------------
	BYTE	PATT
	 POIN2	ScalingPeaks_4_001
// 004   ----------------------------------------
ScalingPeaks_4_004:
	BYTE		N04     An1   v127
	BYTE	W12
	BYTE		N04   
	BYTE	W12
	BYTE		N04   
	BYTE	W12
	BYTE		N11     Gn1 
	BYTE	W12
	BYTE		N04     An1 
	BYTE	W12
	BYTE		N04   
	BYTE	W12
	BYTE		N04   
	BYTE	W06
	BYTE		N04   
	BYTE	W06
	BYTE		N11     Gn1 
	BYTE	W12
	BYTE	PEND
// 005   ----------------------------------------
	BYTE	PATT
	 POIN2	ScalingPeaks_4_004
ScalingPeaks_4_B1:
// 006   ----------------------------------------
ScalingPeaks_4_006:
	BYTE		N15     An1   v127
	BYTE	W16
	BYTE		        An2 
	BYTE	W16
	BYTE		        En2 
	BYTE	W16
	BYTE		        An1 
	BYTE	W16
	BYTE		        An2 
	BYTE	W16
	BYTE		        En2 
	BYTE	W16
	BYTE	PEND
// 007   ----------------------------------------
ScalingPeaks_4_007:
	BYTE		N15     Fn1   v127
	BYTE	W16
	BYTE		        Fn2 
	BYTE	W16
	BYTE		        Cn2 
	BYTE	W16
	BYTE		        Fn1 
	BYTE	W16
	BYTE		        Fn2 
	BYTE	W16
	BYTE		        Cn2 
	BYTE	W16
	BYTE	PEND
// 008   ----------------------------------------
ScalingPeaks_4_008:
	BYTE		N15     Dn1   v127
	BYTE	W16
	BYTE		        Dn2 
	BYTE	W16
	BYTE		        An1 
	BYTE	W16
	BYTE		        Dn1 
	BYTE	W16
	BYTE		        Dn2 
	BYTE	W16
	BYTE		        An1 
	BYTE	W16
	BYTE	PEND
// 009   ----------------------------------------
ScalingPeaks_4_009:
	BYTE		N15     Gn1   v127
	BYTE	W16
	BYTE		        Bn1 
	BYTE	W16
	BYTE		        Gn1 
	BYTE	W16
	BYTE		        Dn1 
	BYTE	W16
	BYTE		        Gn1 
	BYTE	W16
	BYTE		        Bn1 
	BYTE	W16
	BYTE	PEND
// 010   ----------------------------------------
	BYTE	PATT
	 POIN2	ScalingPeaks_4_006
// 011   ----------------------------------------
	BYTE	PATT
	 POIN2	ScalingPeaks_4_007
// 012   ----------------------------------------
ScalingPeaks_4_012:
	BYTE		N15     Dn1   v127
	BYTE	W16
	BYTE		        Dn2 
	BYTE	W16
	BYTE		        An1 
	BYTE	W16
	BYTE		        Fn1 
	BYTE	W16
	BYTE		        An1 
	BYTE	W16
	BYTE		        Fs1 
	BYTE	W16
	BYTE	PEND
// 013   ----------------------------------------
	BYTE	PATT
	 POIN2	ScalingPeaks_4_009
// 014   ----------------------------------------
	BYTE	PATT
	 POIN2	ScalingPeaks_4_007
// 015   ----------------------------------------
ScalingPeaks_4_015:
	BYTE		N15     An1   v127
	BYTE	W16
	BYTE		        En2 
	BYTE	W16
	BYTE		        Cn2 
	BYTE	W16
	BYTE		        An1 
	BYTE	W16
	BYTE		        En2 
	BYTE	W16
	BYTE		        Cn2 
	BYTE	W16
	BYTE	PEND
// 016   ----------------------------------------
ScalingPeaks_4_016:
	BYTE		N15     Gs1   v127
	BYTE	W16
	BYTE		        Dn2 
	BYTE	W16
	BYTE		        Bn1 
	BYTE	W16
	BYTE		        Gs1 
	BYTE	W16
	BYTE		        Dn2 
	BYTE	W16
	BYTE		        Bn1 
	BYTE	W16
	BYTE	PEND
// 017   ----------------------------------------
ScalingPeaks_4_017:
	BYTE		N15     An1   v127
	BYTE	W16
	BYTE		        Cn2 
	BYTE	W16
	BYTE		        Bn1 
	BYTE	W16
	BYTE		        An1 
	BYTE	W16
	BYTE		        Gn1 
	BYTE	W16
	BYTE		        En1 
	BYTE	W16
	BYTE	PEND
// 018   ----------------------------------------
	BYTE	PATT
	 POIN2	ScalingPeaks_4_007
// 019   ----------------------------------------
	BYTE	PATT
	 POIN2	ScalingPeaks_4_015
// 020   ----------------------------------------
ScalingPeaks_4_020:
	BYTE		N15     Dn1   v127
	BYTE	W16
	BYTE		        Dn2 
	BYTE	W16
	BYTE		        An1 
	BYTE	W16
	BYTE		        Ds1 
	BYTE	W16
	BYTE		        Ds2 
	BYTE	W16
	BYTE		        Bn1 
	BYTE	W16
	BYTE	PEND
// 021   ----------------------------------------
ScalingPeaks_4_021:
	BYTE		N15     An1   v127
	BYTE	W16
	BYTE		        En2 
	BYTE	W16
	BYTE		        Bn1 
	BYTE	W16
	BYTE		        En1 
	BYTE	W16
	BYTE		        En2 
	BYTE	W16
	BYTE		        Bn1 
	BYTE	W16
	BYTE	PEND
// 022   ----------------------------------------
	BYTE	PATT
	 POIN2	ScalingPeaks_4_006
// 023   ----------------------------------------
	BYTE	PATT
	 POIN2	ScalingPeaks_4_007
// 024   ----------------------------------------
	BYTE	PATT
	 POIN2	ScalingPeaks_4_008
// 025   ----------------------------------------
ScalingPeaks_4_025:
	BYTE		N15     Gn1   v127
	BYTE	W16
	BYTE		        Dn1 
	BYTE	W16
	BYTE		        Gn1 
	BYTE	W16
	BYTE		        Bn1 
	BYTE	W16
	BYTE		        An1 
	BYTE	W16
	BYTE		        Gn1 
	BYTE	W16
	BYTE	PEND
// 026   ----------------------------------------
	BYTE	PATT
	 POIN2	ScalingPeaks_4_006
// 027   ----------------------------------------
	BYTE	PATT
	 POIN2	ScalingPeaks_4_007
// 028   ----------------------------------------
	BYTE	PATT
	 POIN2	ScalingPeaks_4_012
// 029   ----------------------------------------
	BYTE	PATT
	 POIN2	ScalingPeaks_4_025
// 030   ----------------------------------------
	BYTE	PATT
	 POIN2	ScalingPeaks_4_007
// 031   ----------------------------------------
	BYTE	PATT
	 POIN2	ScalingPeaks_4_015
// 032   ----------------------------------------
	BYTE	PATT
	 POIN2	ScalingPeaks_4_016
// 033   ----------------------------------------
	BYTE	PATT
	 POIN2	ScalingPeaks_4_017
// 034   ----------------------------------------
	BYTE	PATT
	 POIN2	ScalingPeaks_4_007
// 035   ----------------------------------------
	BYTE	PATT
	 POIN2	ScalingPeaks_4_015
// 036   ----------------------------------------
	BYTE	PATT
	 POIN2	ScalingPeaks_4_020
// 037   ----------------------------------------
	BYTE	PATT
	 POIN2	ScalingPeaks_4_021
// 038   ----------------------------------------
ScalingPeaks_4_038:
	BYTE		N15     An1   v127
	BYTE	W16
	BYTE		        En1 
	BYTE	W16
	BYTE		        An1 
	BYTE	W16
	BYTE		        Cn2 
	BYTE	W16
	BYTE		        Bn1 
	BYTE	W16
	BYTE		        An1 
	BYTE	W16
	BYTE	PEND
// 039   ----------------------------------------
	BYTE	PATT
	 POIN2	ScalingPeaks_4_038
// 040   ----------------------------------------
ScalingPeaks_4_040:
	BYTE		N15     Gn1   v127
	BYTE	W16
	BYTE		        En1 
	BYTE	W16
	BYTE		        Gn1 
	BYTE	W16
	BYTE		        Bn1 
	BYTE	W16
	BYTE		        An1 
	BYTE	W16
	BYTE		        Gn1 
	BYTE	W16
	BYTE	PEND
// 041   ----------------------------------------
ScalingPeaks_4_041:
	BYTE		N15     Cn2   v127
	BYTE	W16
	BYTE		        Gn1 
	BYTE	W16
	BYTE		        Cn2 
	BYTE	W16
	BYTE		        En2 
	BYTE	W16
	BYTE		        Dn2 
	BYTE	W16
	BYTE		        Cn2 
	BYTE	W16
	BYTE	PEND
// 042   ----------------------------------------
ScalingPeaks_4_042:
	BYTE		N15     An1   v127
	BYTE	W16
	BYTE		        Bn1 
	BYTE	W16
	BYTE		        Cn2 
	BYTE	W16
	BYTE		        Fn2 
	BYTE	W16
	BYTE		        En2 
	BYTE	W16
	BYTE		        Fn2 
	BYTE	W16
	BYTE	PEND
// 043   ----------------------------------------
	BYTE	PATT
	 POIN2	ScalingPeaks_4_041
// 044   ----------------------------------------
ScalingPeaks_4_044:
	BYTE		N15     Bn1   v127
	BYTE	W16
	BYTE		        Gn1 
	BYTE	W16
	BYTE		        Bn1 
	BYTE	W16
	BYTE		        Dn2 
	BYTE	W16
	BYTE		        Cn2 
	BYTE	W16
	BYTE		        Bn1 
	BYTE	W16
	BYTE	PEND
// 045   ----------------------------------------
	BYTE		        An1 
	BYTE	W16
	BYTE		        Cn2 
	BYTE	W16
	BYTE		        An1 
	BYTE	W16
	BYTE		        Bn1 
	BYTE	W16
	BYTE		        Dn2 
	BYTE	W16
	BYTE		        Bn1 
	BYTE	W16
// 046   ----------------------------------------
	BYTE	PATT
	 POIN2	ScalingPeaks_4_038
// 047   ----------------------------------------
	BYTE	PATT
	 POIN2	ScalingPeaks_4_038
// 048   ----------------------------------------
	BYTE	PATT
	 POIN2	ScalingPeaks_4_040
// 049   ----------------------------------------
	BYTE	PATT
	 POIN2	ScalingPeaks_4_041
// 050   ----------------------------------------
	BYTE	PATT
	 POIN2	ScalingPeaks_4_042
// 051   ----------------------------------------
	BYTE	PATT
	 POIN2	ScalingPeaks_4_041
// 052   ----------------------------------------
	BYTE	PATT
	 POIN2	ScalingPeaks_4_044
// 053   ----------------------------------------
	BYTE	PATT
	 POIN2	ScalingPeaks_4_007
// 054   ----------------------------------------
	BYTE	PATT
	 POIN2	ScalingPeaks_4_015
// 055   ----------------------------------------
	BYTE	PATT
	 POIN2	ScalingPeaks_4_016
// 056   ----------------------------------------
	BYTE	PATT
	 POIN2	ScalingPeaks_4_017
// 057   ----------------------------------------
	BYTE	PATT
	 POIN2	ScalingPeaks_4_007
// 058   ----------------------------------------
	BYTE	PATT
	 POIN2	ScalingPeaks_4_015
// 059   ----------------------------------------
	BYTE	PATT
	 POIN2	ScalingPeaks_4_020
// 060   ----------------------------------------
	BYTE	PATT
	 POIN2	ScalingPeaks_4_021
// 061   ----------------------------------------
	BYTE		N90     En1   v127
	BYTE	W92
	BYTE	W03
	BYTE	GoTo
	 POIN2	ScalingPeaks_4_B1
ScalingPeaks_4_B2:
	BYTE	FINE

//**************** Track 5 (Midi-Chn.5) ****************//

ScalingPeaks_5:
	BYTE	KEYSH   ScalingPeaks_key+0
// 000   ----------------------------------------
	BYTE		VOICE   29
	BYTE		MODT    0
	BYTE		LFOS    44
	BYTE		VOL     103*ScalingPeaks_mvl/mxv
	BYTE		PAN     c_v-11
	BYTE	W96
// 001   ----------------------------------------
	BYTE	W96
// 002   ----------------------------------------
	BYTE	W96
// 003   ----------------------------------------
	BYTE	W96
// 004   ----------------------------------------
	BYTE	W96
// 005   ----------------------------------------
	BYTE	W96
ScalingPeaks_5_B1:
// 006   ----------------------------------------
	BYTE	W96
// 007   ----------------------------------------
	BYTE	W96
// 008   ----------------------------------------
	BYTE	W96
// 009   ----------------------------------------
	BYTE	W96
// 010   ----------------------------------------
	BYTE	W96
// 011   ----------------------------------------
	BYTE	W96
// 012   ----------------------------------------
	BYTE	W96
// 013   ----------------------------------------
	BYTE	W96
// 014   ----------------------------------------
	BYTE	W96
// 015   ----------------------------------------
	BYTE	W96
// 016   ----------------------------------------
	BYTE	W96
// 017   ----------------------------------------
	BYTE	W96
// 018   ----------------------------------------
	BYTE	W96
// 019   ----------------------------------------
	BYTE	W96
// 020   ----------------------------------------
	BYTE	W96
// 021   ----------------------------------------
	BYTE	W96
// 022   ----------------------------------------
ScalingPeaks_5_022:
	BYTE		N36     An3   v076
	BYTE	W36
	BYTE		        Bn3 
	BYTE	W36
	BYTE		N24     Cn4 
	BYTE	W24
	BYTE	PEND
// 023   ----------------------------------------
	BYTE	PATT
	 POIN2	ScalingPeaks_5_022
// 024   ----------------------------------------
	BYTE		N36     An3   v076
	BYTE	W36
	BYTE		        En4 
	BYTE	W36
	BYTE		N24     Fn4 
	BYTE	W24
// 025   ----------------------------------------
	BYTE		N36     Dn4 
	BYTE	W36
	BYTE		        Cn4 
	BYTE	W36
	BYTE		N24     Bn3 
	BYTE	W24
// 026   ----------------------------------------
	BYTE	PATT
	 POIN2	ScalingPeaks_5_022
// 027   ----------------------------------------
	BYTE	PATT
	 POIN2	ScalingPeaks_5_022
// 028   ----------------------------------------
	BYTE		N36     Dn4   v076
	BYTE	W36
	BYTE		        En4 
	BYTE	W36
	BYTE		N24     Fs4 
	BYTE	W24
// 029   ----------------------------------------
	BYTE		N12     Gn4 
	BYTE	W12
	BYTE		        Fn4 
	BYTE	W12
	BYTE		        En4 
	BYTE	W12
	BYTE		        Dn4 
	BYTE	W12
	BYTE		        Cn4 
	BYTE	W12
	BYTE		        Bn3 
	BYTE	W12
	BYTE		        An3 
	BYTE	W12
	BYTE		N11     Gn3 
	BYTE	W12
// 030   ----------------------------------------
ScalingPeaks_5_030:
	BYTE		N05     An3   v076
	BYTE	W06
	BYTE		        En3 
	BYTE	W06
	BYTE		        An3 
	BYTE	W06
	BYTE		        Bn3 
	BYTE	W06
	BYTE		        Cn4 
	BYTE	W06
	BYTE		        Bn3 
	BYTE	W06
	BYTE		        An3 
	BYTE	W06
	BYTE		        En3 
	BYTE	W06
	BYTE		        An3 
	BYTE	W06
	BYTE		        En3 
	BYTE	W06
	BYTE		        An3 
	BYTE	W06
	BYTE		        Bn3 
	BYTE	W06
	BYTE		        Cn4 
	BYTE	W06
	BYTE		        Bn3 
	BYTE	W06
	BYTE		        An3 
	BYTE	W06
	BYTE		        En3 
	BYTE	W06
	BYTE	PEND
// 031   ----------------------------------------
ScalingPeaks_5_031:
	BYTE		N05     Cn4   v076
	BYTE	W06
	BYTE		        An3 
	BYTE	W06
	BYTE		        Cn4 
	BYTE	W06
	BYTE		        Dn4 
	BYTE	W06
	BYTE		        En4 
	BYTE	W06
	BYTE		        Cn4 
	BYTE	W06
	BYTE		        An3 
	BYTE	W06
	BYTE		        Gn3 
	BYTE	W06
	BYTE		        Cn4 
	BYTE	W06
	BYTE		        An3 
	BYTE	W06
	BYTE		        Cn4 
	BYTE	W06
	BYTE		        Dn4 
	BYTE	W06
	BYTE		        En4 
	BYTE	W06
	BYTE		        Cn4 
	BYTE	W06
	BYTE		        An3 
	BYTE	W06
	BYTE		        Gn3 
	BYTE	W06
	BYTE	PEND
// 032   ----------------------------------------
	BYTE		        Bn3 
	BYTE	W06
	BYTE		        Gs3 
	BYTE	W06
	BYTE		        Bn3 
	BYTE	W06
	BYTE		        Cn4 
	BYTE	W06
	BYTE		        Dn4 
	BYTE	W06
	BYTE		        Bn3 
	BYTE	W06
	BYTE		        An3 
	BYTE	W06
	BYTE		        Gs3 
	BYTE	W06
	BYTE		        Bn3 
	BYTE	W06
	BYTE		        Gs3 
	BYTE	W06
	BYTE		        Bn3 
	BYTE	W06
	BYTE		        Cn4 
	BYTE	W06
	BYTE		        Dn4 
	BYTE	W06
	BYTE		        Bn3 
	BYTE	W06
	BYTE		        An3 
	BYTE	W06
	BYTE		        Gs3 
	BYTE	W06
// 033   ----------------------------------------
	BYTE		        An3 
	BYTE	W06
	BYTE		        Bn3 
	BYTE	W06
	BYTE		        Cn4 
	BYTE	W06
	BYTE		        An3 
	BYTE	W06
	BYTE		        Fn4 
	BYTE	W06
	BYTE		        En4 
	BYTE	W06
	BYTE		        Dn4 
	BYTE	W06
	BYTE		        Fn4 
	BYTE	W06
	BYTE		        En4 
	BYTE	W06
	BYTE		        Dn4 
	BYTE	W06
	BYTE		        Cn4 
	BYTE	W06
	BYTE		        Bn3 
	BYTE	W06
	BYTE		        En4 
	BYTE	W06
	BYTE		        Dn4 
	BYTE	W06
	BYTE		        Cn4 
	BYTE	W06
	BYTE		        Bn3 
	BYTE	W06
// 034   ----------------------------------------
	BYTE	PATT
	 POIN2	ScalingPeaks_5_030
// 035   ----------------------------------------
	BYTE	PATT
	 POIN2	ScalingPeaks_5_031
// 036   ----------------------------------------
	BYTE		N05     Dn4   v076
	BYTE	W06
	BYTE		        An3 
	BYTE	W06
	BYTE		        Fn3 
	BYTE	W06
	BYTE		        Dn3 
	BYTE	W06
	BYTE		        Dn4 
	BYTE	W06
	BYTE		        An3 
	BYTE	W06
	BYTE		        Fn3 
	BYTE	W06
	BYTE		        Dn3 
	BYTE	W06
	BYTE		        Ds4 
	BYTE	W06
	BYTE		        Bn3 
	BYTE	W06
	BYTE		        Gs3 
	BYTE	W06
	BYTE		        En3 
	BYTE	W06
	BYTE		        Ds4 
	BYTE	W06
	BYTE		        Bn3 
	BYTE	W06
	BYTE		        Gs3 
	BYTE	W06
	BYTE		        En3 
	BYTE	W06
// 037   ----------------------------------------
	BYTE		        En4 
	BYTE	W06
	BYTE		        Cn4 
	BYTE	W06
	BYTE		        An3 
	BYTE	W06
	BYTE		        Fn3 
	BYTE	W06
	BYTE		        An3 
	BYTE	W06
	BYTE		        Cn4 
	BYTE	W06
	BYTE		        En4 
	BYTE	W06
	BYTE		        Fn4 
	BYTE	W06
	BYTE		        En4 
	BYTE	W06
	BYTE		        Dn4 
	BYTE	W06
	BYTE		        Cn4 
	BYTE	W06
	BYTE		        Bn3 
	BYTE	W06
	BYTE		        An3 
	BYTE	W06
	BYTE		        Gs3 
	BYTE	W06
	BYTE		        Fn3 
	BYTE	W06
	BYTE		        En3 
	BYTE	W06
// 038   ----------------------------------------
	BYTE	W96
// 039   ----------------------------------------
	BYTE	W96
// 040   ----------------------------------------
	BYTE	W96
// 041   ----------------------------------------
	BYTE	W96
// 042   ----------------------------------------
	BYTE	W96
// 043   ----------------------------------------
	BYTE	W96
// 044   ----------------------------------------
	BYTE	W96
// 045   ----------------------------------------
	BYTE	W96
// 046   ----------------------------------------
ScalingPeaks_5_046:
	BYTE		N05     An4   v076
	BYTE	W08
	BYTE		        En4 
	BYTE	W16
	BYTE		N05   
	BYTE	W08
	BYTE		N05   
	BYTE	W16
	BYTE		        An4 
	BYTE	W08
	BYTE		        En4 
	BYTE	W16
	BYTE		N05   
	BYTE	W08
	BYTE		N05   
	BYTE	W16
	BYTE	PEND
// 047   ----------------------------------------
	BYTE	PATT
	 POIN2	ScalingPeaks_5_046
// 048   ----------------------------------------
ScalingPeaks_5_048:
	BYTE		N05     Gn4   v076
	BYTE	W08
	BYTE		        En4 
	BYTE	W16
	BYTE		N05   
	BYTE	W08
	BYTE		N05   
	BYTE	W16
	BYTE		        Gn4 
	BYTE	W08
	BYTE		        En4 
	BYTE	W16
	BYTE		N05   
	BYTE	W08
	BYTE		N05   
	BYTE	W16
	BYTE	PEND
// 049   ----------------------------------------
	BYTE	PATT
	 POIN2	ScalingPeaks_5_048
// 050   ----------------------------------------
	BYTE		N05     Fn4   v076
	BYTE	W08
	BYTE		        Dn4 
	BYTE	W16
	BYTE		N05   
	BYTE	W08
	BYTE		N05   
	BYTE	W16
	BYTE		        Fn4 
	BYTE	W08
	BYTE		        Dn4 
	BYTE	W16
	BYTE		N05   
	BYTE	W08
	BYTE		N05   
	BYTE	W16
// 051   ----------------------------------------
	BYTE		        En4 
	BYTE	W08
	BYTE		        Cn4 
	BYTE	W16
	BYTE		N05   
	BYTE	W08
	BYTE		N05   
	BYTE	W16
	BYTE		        En4 
	BYTE	W08
	BYTE		        Cn4 
	BYTE	W16
	BYTE		N05   
	BYTE	W08
	BYTE		N05   
	BYTE	W16
// 052   ----------------------------------------
	BYTE		        Dn4 
	BYTE	W08
	BYTE		        Bn3 
	BYTE	W16
	BYTE		N05   
	BYTE	W08
	BYTE		N05   
	BYTE	W16
	BYTE		        Dn4 
	BYTE	W08
	BYTE		        Bn3 
	BYTE	W16
	BYTE		N05   
	BYTE	W08
	BYTE		N05   
	BYTE	W16
// 053   ----------------------------------------
ScalingPeaks_5_053:
	BYTE		N16     An3   v076
	BYTE	W16
	BYTE		        Cn4 
	BYTE	W16
	BYTE		        An3 
	BYTE	W16
	BYTE		        Fn4 
	BYTE	W16
	BYTE		        En4 
	BYTE	W16
	BYTE		        Dn4 
	BYTE	W16
	BYTE	PEND
// 054   ----------------------------------------
ScalingPeaks_5_054:
	BYTE		N16     Cn4   v076
	BYTE	W16
	BYTE		        Bn3 
	BYTE	W16
	BYTE		        An3 
	BYTE	W16
	BYTE		N24     Gn3 
	BYTE	W24
	BYTE		        En3 
	BYTE	W24
	BYTE	PEND
// 055   ----------------------------------------
	BYTE		N16     Gs3 
	BYTE	W16
	BYTE		        An3 
	BYTE	W16
	BYTE		        Bn3 
	BYTE	W16
	BYTE		        Dn4 
	BYTE	W16
	BYTE		        Cn4 
	BYTE	W16
	BYTE		        Bn3 
	BYTE	W16
// 056   ----------------------------------------
	BYTE		        Cn4 
	BYTE	W16
	BYTE		        Fn4 
	BYTE	W16
	BYTE		        Dn4 
	BYTE	W16
	BYTE		N48     En4 
	BYTE	W48
// 057   ----------------------------------------
	BYTE	PATT
	 POIN2	ScalingPeaks_5_053
// 058   ----------------------------------------
	BYTE	PATT
	 POIN2	ScalingPeaks_5_054
// 059   ----------------------------------------
	BYTE		N16     Dn4   v076
	BYTE	W16
	BYTE		        An3 
	BYTE	W16
	BYTE		        Fn3 
	BYTE	W16
	BYTE		        Gs3 
	BYTE	W16
	BYTE		        Bn3 
	BYTE	W16
	BYTE		        Ds4 
	BYTE	W16
// 060   ----------------------------------------
	BYTE		N90     En4 
	BYTE	W96
// 061   ----------------------------------------
	BYTE	W92
	BYTE	W03
	BYTE	GoTo
	 POIN2	ScalingPeaks_5_B1
ScalingPeaks_5_B2:
	BYTE	FINE

//**************** Track 6 (Midi-Chn.6) ****************//

ScalingPeaks_6:
	BYTE	KEYSH   ScalingPeaks_key+0
// 000   ----------------------------------------
	BYTE		VOICE   80
	BYTE		MODT    0
	BYTE		LFOS    44
	BYTE		VOL     95*ScalingPeaks_mvl/mxv
	BYTE		PAN     c_v+8
	BYTE	W96
// 001   ----------------------------------------
	BYTE	W96
// 002   ----------------------------------------
	BYTE	W96
// 003   ----------------------------------------
	BYTE	W96
// 004   ----------------------------------------
	BYTE	W96
// 005   ----------------------------------------
	BYTE	W96
ScalingPeaks_6_B1:
// 006   ----------------------------------------
	BYTE	W96
// 007   ----------------------------------------
	BYTE	W96
// 008   ----------------------------------------
	BYTE	W96
// 009   ----------------------------------------
	BYTE	W96
// 010   ----------------------------------------
	BYTE	W96
// 011   ----------------------------------------
	BYTE	W96
// 012   ----------------------------------------
	BYTE	W96
// 013   ----------------------------------------
	BYTE	W96
// 014   ----------------------------------------
	BYTE	W96
// 015   ----------------------------------------
	BYTE	W96
// 016   ----------------------------------------
	BYTE	W96
// 017   ----------------------------------------
	BYTE	W96
// 018   ----------------------------------------
	BYTE	W96
// 019   ----------------------------------------
	BYTE	W96
// 020   ----------------------------------------
	BYTE	W96
// 021   ----------------------------------------
	BYTE	W96
// 022   ----------------------------------------
ScalingPeaks_6_022:
	BYTE		N36     An3   v076
	BYTE	W36
	BYTE		        Bn3 
	BYTE	W36
	BYTE		N24     Cn4 
	BYTE	W24
	BYTE	PEND
// 023   ----------------------------------------
	BYTE	PATT
	 POIN2	ScalingPeaks_6_022
// 024   ----------------------------------------
	BYTE		N36     An3   v076
	BYTE	W36
	BYTE		        En4 
	BYTE	W36
	BYTE		N24     Fn4 
	BYTE	W24
// 025   ----------------------------------------
	BYTE		N36     Dn4 
	BYTE	W36
	BYTE		        Cn4 
	BYTE	W36
	BYTE		N24     Bn3 
	BYTE	W24
// 026   ----------------------------------------
	BYTE	PATT
	 POIN2	ScalingPeaks_6_022
// 027   ----------------------------------------
	BYTE	PATT
	 POIN2	ScalingPeaks_6_022
// 028   ----------------------------------------
	BYTE		N36     Dn4   v076
	BYTE	W36
	BYTE		        En4 
	BYTE	W36
	BYTE		N24     Fs4 
	BYTE	W24
// 029   ----------------------------------------
	BYTE		N12     Gn4 
	BYTE	W12
	BYTE		        Fn4 
	BYTE	W12
	BYTE		        En4 
	BYTE	W12
	BYTE		        Dn4 
	BYTE	W12
	BYTE		        Cn4 
	BYTE	W12
	BYTE		        Bn3 
	BYTE	W12
	BYTE		        An3 
	BYTE	W12
	BYTE		N11     Gn3 
	BYTE	W12
// 030   ----------------------------------------
ScalingPeaks_6_030:
	BYTE		N05     An3   v076
	BYTE	W06
	BYTE		        En3 
	BYTE	W06
	BYTE		        An3 
	BYTE	W06
	BYTE		        Bn3 
	BYTE	W06
	BYTE		        Cn4 
	BYTE	W06
	BYTE		        Bn3 
	BYTE	W06
	BYTE		        An3 
	BYTE	W06
	BYTE		        En3 
	BYTE	W06
	BYTE		        An3 
	BYTE	W06
	BYTE		        En3 
	BYTE	W06
	BYTE		        An3 
	BYTE	W06
	BYTE		        Bn3 
	BYTE	W06
	BYTE		        Cn4 
	BYTE	W06
	BYTE		        Bn3 
	BYTE	W06
	BYTE		        An3 
	BYTE	W06
	BYTE		        En3 
	BYTE	W06
	BYTE	PEND
// 031   ----------------------------------------
ScalingPeaks_6_031:
	BYTE		N05     Cn4   v076
	BYTE	W06
	BYTE		        An3 
	BYTE	W06
	BYTE		        Cn4 
	BYTE	W06
	BYTE		        Dn4 
	BYTE	W06
	BYTE		        En4 
	BYTE	W06
	BYTE		        Cn4 
	BYTE	W06
	BYTE		        An3 
	BYTE	W06
	BYTE		        Gn3 
	BYTE	W06
	BYTE		        Cn4 
	BYTE	W06
	BYTE		        An3 
	BYTE	W06
	BYTE		        Cn4 
	BYTE	W06
	BYTE		        Dn4 
	BYTE	W06
	BYTE		        En4 
	BYTE	W06
	BYTE		        Cn4 
	BYTE	W06
	BYTE		        An3 
	BYTE	W06
	BYTE		        Gn3 
	BYTE	W06
	BYTE	PEND
// 032   ----------------------------------------
	BYTE		        Bn3 
	BYTE	W06
	BYTE		        Gs3 
	BYTE	W06
	BYTE		        Bn3 
	BYTE	W06
	BYTE		        Cn4 
	BYTE	W06
	BYTE		        Dn4 
	BYTE	W06
	BYTE		        Bn3 
	BYTE	W06
	BYTE		        An3 
	BYTE	W06
	BYTE		        Gs3 
	BYTE	W06
	BYTE		        Bn3 
	BYTE	W06
	BYTE		        Gs3 
	BYTE	W06
	BYTE		        Bn3 
	BYTE	W06
	BYTE		        Cn4 
	BYTE	W06
	BYTE		        Dn4 
	BYTE	W06
	BYTE		        Bn3 
	BYTE	W06
	BYTE		        An3 
	BYTE	W06
	BYTE		        Gs3 
	BYTE	W06
// 033   ----------------------------------------
	BYTE		        An3 
	BYTE	W06
	BYTE		        Bn3 
	BYTE	W06
	BYTE		        Cn4 
	BYTE	W06
	BYTE		        An3 
	BYTE	W06
	BYTE		        Fn4 
	BYTE	W06
	BYTE		        En4 
	BYTE	W06
	BYTE		        Dn4 
	BYTE	W06
	BYTE		        Fn4 
	BYTE	W06
	BYTE		        En4 
	BYTE	W06
	BYTE		        Dn4 
	BYTE	W06
	BYTE		        Cn4 
	BYTE	W06
	BYTE		        Bn3 
	BYTE	W06
	BYTE		        En4 
	BYTE	W06
	BYTE		        Dn4 
	BYTE	W06
	BYTE		        Cn4 
	BYTE	W06
	BYTE		        Bn3 
	BYTE	W06
// 034   ----------------------------------------
	BYTE	PATT
	 POIN2	ScalingPeaks_6_030
// 035   ----------------------------------------
	BYTE	PATT
	 POIN2	ScalingPeaks_6_031
// 036   ----------------------------------------
	BYTE		N05     Dn4   v076
	BYTE	W06
	BYTE		        An3 
	BYTE	W06
	BYTE		        Fn3 
	BYTE	W06
	BYTE		        Dn3 
	BYTE	W06
	BYTE		        Dn4 
	BYTE	W06
	BYTE		        An3 
	BYTE	W06
	BYTE		        Fn3 
	BYTE	W06
	BYTE		        Dn3 
	BYTE	W06
	BYTE		        Ds4 
	BYTE	W06
	BYTE		        Bn3 
	BYTE	W06
	BYTE		        Gs3 
	BYTE	W06
	BYTE		        En3 
	BYTE	W06
	BYTE		        Ds4 
	BYTE	W06
	BYTE		        Bn3 
	BYTE	W06
	BYTE		        Gs3 
	BYTE	W06
	BYTE		        En3 
	BYTE	W06
// 037   ----------------------------------------
	BYTE		        En4 
	BYTE	W06
	BYTE		        Cn4 
	BYTE	W06
	BYTE		        An3 
	BYTE	W06
	BYTE		        Fn3 
	BYTE	W06
	BYTE		        An3 
	BYTE	W06
	BYTE		        Cn4 
	BYTE	W06
	BYTE		        En4 
	BYTE	W06
	BYTE		        Fn4 
	BYTE	W06
	BYTE		        En4 
	BYTE	W06
	BYTE		        Dn4 
	BYTE	W06
	BYTE		        Cn4 
	BYTE	W06
	BYTE		        Bn3 
	BYTE	W06
	BYTE		        An3 
	BYTE	W06
	BYTE		        Gs3 
	BYTE	W06
	BYTE		        Fn3 
	BYTE	W06
	BYTE		        En3 
	BYTE	W06
// 038   ----------------------------------------
	BYTE	W96
// 039   ----------------------------------------
	BYTE	W96
// 040   ----------------------------------------
	BYTE	W96
// 041   ----------------------------------------
	BYTE	W96
// 042   ----------------------------------------
	BYTE	W96
// 043   ----------------------------------------
	BYTE	W96
// 044   ----------------------------------------
	BYTE	W96
// 045   ----------------------------------------
	BYTE	W96
// 046   ----------------------------------------
ScalingPeaks_6_046:
	BYTE		N05     An4   v076
	BYTE	W08
	BYTE		        En4 
	BYTE	W16
	BYTE		N05   
	BYTE	W08
	BYTE		N05   
	BYTE	W16
	BYTE		        An4 
	BYTE	W08
	BYTE		        En4 
	BYTE	W16
	BYTE		N05   
	BYTE	W08
	BYTE		N05   
	BYTE	W16
	BYTE	PEND
// 047   ----------------------------------------
	BYTE	PATT
	 POIN2	ScalingPeaks_6_046
// 048   ----------------------------------------
ScalingPeaks_6_048:
	BYTE		N05     Gn4   v076
	BYTE	W08
	BYTE		        En4 
	BYTE	W16
	BYTE		N05   
	BYTE	W08
	BYTE		N05   
	BYTE	W16
	BYTE		        Gn4 
	BYTE	W08
	BYTE		        En4 
	BYTE	W16
	BYTE		N05   
	BYTE	W08
	BYTE		N05   
	BYTE	W16
	BYTE	PEND
// 049   ----------------------------------------
	BYTE	PATT
	 POIN2	ScalingPeaks_6_048
// 050   ----------------------------------------
	BYTE		N05     Fn4   v076
	BYTE	W08
	BYTE		        Dn4 
	BYTE	W16
	BYTE		N05   
	BYTE	W08
	BYTE		N05   
	BYTE	W16
	BYTE		        Fn4 
	BYTE	W08
	BYTE		        Dn4 
	BYTE	W16
	BYTE		N05   
	BYTE	W08
	BYTE		N05   
	BYTE	W16
// 051   ----------------------------------------
	BYTE		        En4 
	BYTE	W08
	BYTE		        Cn4 
	BYTE	W16
	BYTE		N05   
	BYTE	W08
	BYTE		N05   
	BYTE	W16
	BYTE		        En4 
	BYTE	W08
	BYTE		        Cn4 
	BYTE	W16
	BYTE		N05   
	BYTE	W08
	BYTE		N05   
	BYTE	W16
// 052   ----------------------------------------
	BYTE		        Dn4 
	BYTE	W08
	BYTE		        Bn3 
	BYTE	W16
	BYTE		N05   
	BYTE	W08
	BYTE		N05   
	BYTE	W16
	BYTE		        Dn4 
	BYTE	W08
	BYTE		        Bn3 
	BYTE	W16
	BYTE		N05   
	BYTE	W08
	BYTE		N05   
	BYTE	W16
// 053   ----------------------------------------
ScalingPeaks_6_053:
	BYTE		N16     An3   v076
	BYTE	W16
	BYTE		        Cn4 
	BYTE	W16
	BYTE		        An3 
	BYTE	W16
	BYTE		        Fn4 
	BYTE	W16
	BYTE		        En4 
	BYTE	W16
	BYTE		        Dn4 
	BYTE	W16
	BYTE	PEND
// 054   ----------------------------------------
ScalingPeaks_6_054:
	BYTE		N16     Cn4   v076
	BYTE	W16
	BYTE		        Bn3 
	BYTE	W16
	BYTE		        An3 
	BYTE	W16
	BYTE		N24     Gn3 
	BYTE	W24
	BYTE		        En3 
	BYTE	W24
	BYTE	PEND
// 055   ----------------------------------------
	BYTE		N16     Gs3 
	BYTE	W16
	BYTE		        An3 
	BYTE	W16
	BYTE		        Bn3 
	BYTE	W16
	BYTE		        Dn4 
	BYTE	W16
	BYTE		        Cn4 
	BYTE	W16
	BYTE		        Bn3 
	BYTE	W16
// 056   ----------------------------------------
	BYTE		        Cn4 
	BYTE	W16
	BYTE		        Fn4 
	BYTE	W16
	BYTE		        Dn4 
	BYTE	W16
	BYTE		N48     En4 
	BYTE	W48
// 057   ----------------------------------------
	BYTE	PATT
	 POIN2	ScalingPeaks_6_053
// 058   ----------------------------------------
	BYTE	PATT
	 POIN2	ScalingPeaks_6_054
// 059   ----------------------------------------
	BYTE		N16     Dn4   v076
	BYTE	W16
	BYTE		        An3 
	BYTE	W16
	BYTE		        Fn3 
	BYTE	W16
	BYTE		        Gs3 
	BYTE	W16
	BYTE		        Bn3 
	BYTE	W16
	BYTE		        Ds4 
	BYTE	W16
// 060   ----------------------------------------
	BYTE		N90     En4 
	BYTE	W96
// 061   ----------------------------------------
	BYTE	W92
	BYTE	W03
	BYTE	GoTo
	 POIN2	ScalingPeaks_6_B1
ScalingPeaks_6_B2:
	BYTE	FINE

//**************** Track 7 (Midi-Chn.7) ****************//

ScalingPeaks_7:
	BYTE	KEYSH   ScalingPeaks_key+0
// 000   ----------------------------------------
	BYTE		VOICE   124
	BYTE		MODT    0
	BYTE		LFOS    44
	BYTE		VOL     114*ScalingPeaks_mvl/mxv
	BYTE		PAN     c_v+0
	BYTE		N15     Cn1   v127
	BYTE		N15     An2 
	BYTE	W16
	BYTE		        Cn1 
	BYTE		N15     An2 
	BYTE	W16
	BYTE		        Cn1 
	BYTE		N15     An2 
	BYTE	W16
	BYTE		N11     En1 
	BYTE		N11     Dn2 
	BYTE		N11     An2 
	BYTE	W12
	BYTE		        En1 
	BYTE		N11     Cn2 
	BYTE	W12
	BYTE		N05     En1 
	BYTE		N05     Bn1 
	BYTE	W06
	BYTE		        En1 
	BYTE		N05     Bn1 
	BYTE	W06
	BYTE		N11     En1 
	BYTE		N11     An1 
	BYTE	W12
// 001   ----------------------------------------
	BYTE		N15     Cn1 
	BYTE		N15     An2 
	BYTE	W16
	BYTE		        Cn1 
	BYTE		N15     An2 
	BYTE	W16
	BYTE		        Cn1 
	BYTE		N15     An2 
	BYTE	W16
	BYTE		N11     En1 
	BYTE		N11     Dn2 
	BYTE		N11     An2 
	BYTE	W12
	BYTE		        En1 
	BYTE		N11     Cn2 
	BYTE	W12
	BYTE		N05     En1 
	BYTE		N05     Bn1 
	BYTE	W06
	BYTE		        En1 
	BYTE		N05     Bn1 
	BYTE	W06
	BYTE		N11     En1 
	BYTE		N11     An1 
	BYTE	W12
// 002   ----------------------------------------
	BYTE		N05     Cn1 
	BYTE		N05     En1 
	BYTE		N05     Dn2 
	BYTE		N05     An2 
	BYTE	W06
	BYTE		        Cn2 
	BYTE	W06
	BYTE		        Bn1 
	BYTE	W06
	BYTE		        An1 
	BYTE	W06
	BYTE		        Cn1 
	BYTE		N05     En1 
	BYTE		N05     Dn2 
	BYTE		N05     An2 
	BYTE	W06
	BYTE		        Cn2 
	BYTE	W06
	BYTE		        Bn1 
	BYTE	W06
	BYTE		        An1 
	BYTE	W06
	BYTE		        Cn1 
	BYTE		N05     En1 
	BYTE		N05     Dn2 
	BYTE		N05     An2 
	BYTE	W06
	BYTE		        Cn2 
	BYTE	W06
	BYTE		        Bn1 
	BYTE	W06
	BYTE		        An1 
	BYTE	W06
	BYTE		        Cn1 
	BYTE		N05     En1 
	BYTE		N05     Dn2 
	BYTE		N05     An2 
	BYTE	W06
	BYTE		        Cn2 
	BYTE	W06
	BYTE		        Bn1 
	BYTE	W06
	BYTE		        An1 
	BYTE	W06
// 003   ----------------------------------------
	BYTE		        Cn1 
	BYTE		N05     En1 
	BYTE		N05     Dn2 
	BYTE		N05     An2 
	BYTE	W06
	BYTE		        Cn2 
	BYTE	W06
	BYTE		        Bn1 
	BYTE	W06
	BYTE		        An1 
	BYTE	W06
	BYTE		        Cn1 
	BYTE		N05     En1 
	BYTE		N05     Dn2 
	BYTE		N05     An2 
	BYTE	W06
	BYTE		        Cn2 
	BYTE	W06
	BYTE		        Bn1 
	BYTE	W06
	BYTE		        An1 
	BYTE	W06
	BYTE		        Cn1 
	BYTE		N05     En1 
	BYTE		N05     Dn2 
	BYTE		N05     An2 
	BYTE	W06
	BYTE		        Cn2 
	BYTE	W06
	BYTE		        Bn1 
	BYTE	W06
	BYTE		        An1 
	BYTE	W06
	BYTE		        Cn1 
	BYTE		N05     En1 
	BYTE		N05     Dn2 
	BYTE		N05     An2 
	BYTE	W06
	BYTE		        Cn2 
	BYTE	W06
	BYTE		        En1 
	BYTE		N05     Bn1 
	BYTE	W06
	BYTE		        En1 
	BYTE		N05     An1 
	BYTE	W06
// 004   ----------------------------------------
	BYTE		N11     Cn1 
	BYTE		N11     Fs1 
	BYTE	W12
	BYTE		        Cn1 
	BYTE		N11     Fs1 
	BYTE	W12
	BYTE		N05     Cn1 
	BYTE		N05     Fs1 
	BYTE	W06
	BYTE		        En1 
	BYTE		N05     Gs1 
	BYTE	W06
	BYTE		        As1 
	BYTE	W06
	BYTE		        Gs1 
	BYTE	W06
	BYTE		N11     Cn1 
	BYTE		N11     Fs1 
	BYTE	W12
	BYTE		        Cn1 
	BYTE		N11     Fs1 
	BYTE	W12
	BYTE		N05     Cn1 
	BYTE		N05     Fs1 
	BYTE	W06
	BYTE		        En1 
	BYTE		N05     Gs1 
	BYTE	W06
	BYTE		        As1 
	BYTE	W06
	BYTE		        Gs1 
	BYTE	W06
// 005   ----------------------------------------
	BYTE		N11     Cn1 
	BYTE		N11     Fs1 
	BYTE	W12
	BYTE		        Cn1 
	BYTE		N11     Fs1 
	BYTE	W12
	BYTE		N05     Cn1 
	BYTE		N05     Fs1 
	BYTE	W06
	BYTE		        En1 
	BYTE		N05     Gs1 
	BYTE	W06
	BYTE		        As1 
	BYTE	W06
	BYTE		        Gs1 
	BYTE	W06
	BYTE		N11     Cn1 
	BYTE		N11     En1 
	BYTE		N11     Fs1 
	BYTE	W12
	BYTE		        Cn1 
	BYTE		N11     Fs1 
	BYTE	W12
	BYTE		N05     Cn1 
	BYTE		N05     En1 
	BYTE		N05     Fs1 
	BYTE	W06
	BYTE		        En1 
	BYTE		N05     Gs1 
	BYTE	W06
	BYTE		        En1 
	BYTE		N05     As1 
	BYTE	W06
	BYTE		        En1 
	BYTE		N05     Gs1 
	BYTE	W06
ScalingPeaks_7_B1:
// 006   ----------------------------------------
ScalingPeaks_7_006:
	BYTE		N11     Cn1   v127
	BYTE		N11     Fs1 
	BYTE		N11     An2 
	BYTE	W12
	BYTE		N05     Gs1 
	BYTE	W06
	BYTE		        Cn1 
	BYTE	W06
	BYTE		N11     En1 
	BYTE		N11     As1 
	BYTE	W12
	BYTE		        Cn1 
	BYTE		N11     Gs1 
	BYTE	W12
	BYTE		        Cn1 
	BYTE		N11     Fs1 
	BYTE	W12
	BYTE		N05     Gs1 
	BYTE	W06
	BYTE		        Cn1 
	BYTE	W06
	BYTE		N11     En1 
	BYTE		N11     As1 
	BYTE	W12
	BYTE		        Cn1 
	BYTE		N11     Gs1 
	BYTE	W12
	BYTE	PEND
// 007   ----------------------------------------
ScalingPeaks_7_007:
	BYTE		N11     Cn1   v127
	BYTE		N11     Fs1 
	BYTE	W12
	BYTE		N05     Gs1 
	BYTE	W06
	BYTE		        Cn1 
	BYTE	W06
	BYTE		N11     En1 
	BYTE		N11     As1 
	BYTE	W12
	BYTE		        Cn1 
	BYTE		N11     Gs1 
	BYTE	W12
	BYTE		        Cn1 
	BYTE		N11     Fs1 
	BYTE	W12
	BYTE		N05     Gs1 
	BYTE	W06
	BYTE		        Cn1 
	BYTE	W06
	BYTE		N11     En1 
	BYTE		N11     As1 
	BYTE	W12
	BYTE		        Cn1 
	BYTE		N11     Gs1 
	BYTE	W12
	BYTE	PEND
// 008   ----------------------------------------
	BYTE	PATT
	 POIN2	ScalingPeaks_7_007
// 009   ----------------------------------------
ScalingPeaks_7_009:
	BYTE		N11     Cn1   v127
	BYTE		N11     Fs1 
	BYTE	W12
	BYTE		N05     Gs1 
	BYTE	W06
	BYTE		        Cn1 
	BYTE	W06
	BYTE		N11     En1 
	BYTE		N11     As1 
	BYTE	W12
	BYTE		        Cn1 
	BYTE		N11     Gs1 
	BYTE	W12
	BYTE		        Cn1 
	BYTE		N11     Fs1 
	BYTE	W12
	BYTE		N05     Gs1 
	BYTE	W06
	BYTE		        Cn1 
	BYTE	W06
	BYTE		N11     En1 
	BYTE		N11     As1 
	BYTE	W12
	BYTE		        Cn1 
	BYTE		N11     En1 
	BYTE		N11     Gs1 
	BYTE	W12
	BYTE	PEND
// 010   ----------------------------------------
	BYTE	PATT
	 POIN2	ScalingPeaks_7_006
// 011   ----------------------------------------
	BYTE	PATT
	 POIN2	ScalingPeaks_7_007
// 012   ----------------------------------------
	BYTE	PATT
	 POIN2	ScalingPeaks_7_007
// 013   ----------------------------------------
ScalingPeaks_7_013:
	BYTE		N11     Cn1   v127
	BYTE		N11     Fs1 
	BYTE	W12
	BYTE		N05     Gs1 
	BYTE	W06
	BYTE		        Cn1 
	BYTE	W06
	BYTE		N11     En1 
	BYTE		N11     As1 
	BYTE	W12
	BYTE		        Cn1 
	BYTE		N11     Gs1 
	BYTE	W12
	BYTE		        Cn1 
	BYTE		N11     Fs1 
	BYTE	W12
	BYTE		N05     Gs1 
	BYTE	W06
	BYTE		        Cn1 
	BYTE	W06
	BYTE		N11     En1 
	BYTE		N11     As1 
	BYTE	W12
	BYTE		N05     Cn1 
	BYTE		N05     En1 
	BYTE		N05     Gs1 
	BYTE	W06
	BYTE		        En1 
	BYTE	W06
	BYTE	PEND
// 014   ----------------------------------------
	BYTE	PATT
	 POIN2	ScalingPeaks_7_006
// 015   ----------------------------------------
	BYTE	PATT
	 POIN2	ScalingPeaks_7_007
// 016   ----------------------------------------
	BYTE	PATT
	 POIN2	ScalingPeaks_7_007
// 017   ----------------------------------------
	BYTE	PATT
	 POIN2	ScalingPeaks_7_009
// 018   ----------------------------------------
	BYTE	PATT
	 POIN2	ScalingPeaks_7_006
// 019   ----------------------------------------
	BYTE	PATT
	 POIN2	ScalingPeaks_7_007
// 020   ----------------------------------------
	BYTE	PATT
	 POIN2	ScalingPeaks_7_007
// 021   ----------------------------------------
	BYTE	PATT
	 POIN2	ScalingPeaks_7_013
// 022   ----------------------------------------
	BYTE	PATT
	 POIN2	ScalingPeaks_7_006
// 023   ----------------------------------------
	BYTE	PATT
	 POIN2	ScalingPeaks_7_007
// 024   ----------------------------------------
	BYTE	PATT
	 POIN2	ScalingPeaks_7_007
// 025   ----------------------------------------
	BYTE	PATT
	 POIN2	ScalingPeaks_7_009
// 026   ----------------------------------------
	BYTE	PATT
	 POIN2	ScalingPeaks_7_006
// 027   ----------------------------------------
	BYTE	PATT
	 POIN2	ScalingPeaks_7_007
// 028   ----------------------------------------
	BYTE	PATT
	 POIN2	ScalingPeaks_7_007
// 029   ----------------------------------------
	BYTE	PATT
	 POIN2	ScalingPeaks_7_013
// 030   ----------------------------------------
	BYTE	PATT
	 POIN2	ScalingPeaks_7_006
// 031   ----------------------------------------
	BYTE	PATT
	 POIN2	ScalingPeaks_7_007
// 032   ----------------------------------------
	BYTE	PATT
	 POIN2	ScalingPeaks_7_007
// 033   ----------------------------------------
	BYTE	PATT
	 POIN2	ScalingPeaks_7_009
// 034   ----------------------------------------
	BYTE	PATT
	 POIN2	ScalingPeaks_7_006
// 035   ----------------------------------------
	BYTE	PATT
	 POIN2	ScalingPeaks_7_007
// 036   ----------------------------------------
	BYTE	PATT
	 POIN2	ScalingPeaks_7_007
// 037   ----------------------------------------
	BYTE	PATT
	 POIN2	ScalingPeaks_7_013
// 038   ----------------------------------------
ScalingPeaks_7_038:
	BYTE		N15     Cn1   v127
	BYTE		N15     Fs1 
	BYTE	W16
	BYTE		N07     Cn1 
	BYTE		N07     Gs1 
	BYTE	W08
	BYTE		        Cn1 
	BYTE	W08
	BYTE		N15   
	BYTE		N15     Fs1 
	BYTE	W16
	BYTE		        En1 
	BYTE		N15     As1 
	BYTE	W16
	BYTE		        Cn1 
	BYTE		N15     Gs1 
	BYTE	W16
	BYTE		        Cn1 
	BYTE		N15     Fs1 
	BYTE	W16
	BYTE	PEND
// 039   ----------------------------------------
	BYTE	PATT
	 POIN2	ScalingPeaks_7_038
// 040   ----------------------------------------
	BYTE	PATT
	 POIN2	ScalingPeaks_7_038
// 041   ----------------------------------------
	BYTE	PATT
	 POIN2	ScalingPeaks_7_038
// 042   ----------------------------------------
	BYTE	PATT
	 POIN2	ScalingPeaks_7_038
// 043   ----------------------------------------
	BYTE	PATT
	 POIN2	ScalingPeaks_7_038
// 044   ----------------------------------------
	BYTE	PATT
	 POIN2	ScalingPeaks_7_038
// 045   ----------------------------------------
	BYTE	PATT
	 POIN2	ScalingPeaks_7_038
// 046   ----------------------------------------
	BYTE	PATT
	 POIN2	ScalingPeaks_7_038
// 047   ----------------------------------------
	BYTE	PATT
	 POIN2	ScalingPeaks_7_038
// 048   ----------------------------------------
	BYTE	PATT
	 POIN2	ScalingPeaks_7_038
// 049   ----------------------------------------
	BYTE	PATT
	 POIN2	ScalingPeaks_7_038
// 050   ----------------------------------------
	BYTE	PATT
	 POIN2	ScalingPeaks_7_038
// 051   ----------------------------------------
	BYTE	PATT
	 POIN2	ScalingPeaks_7_038
// 052   ----------------------------------------
	BYTE		N15     Cn1   v127
	BYTE		N15     Fs1 
	BYTE	W16
	BYTE		N07     Cn1 
	BYTE		N07     Gs1 
	BYTE	W08
	BYTE		        Cn1 
	BYTE	W08
	BYTE		N15   
	BYTE		N15     Fs1 
	BYTE	W16
	BYTE		        En1 
	BYTE		N15     As1 
	BYTE	W16
	BYTE		        Cn1 
	BYTE		N15     Gs1 
	BYTE	W16
	BYTE		N03     Cn1 
	BYTE		N03     Fs1 
	BYTE	W04
	BYTE		        Cn1 
	BYTE		N03     Fs1 
	BYTE	W04
	BYTE		        Cn1 
	BYTE		N03     Fs1 
	BYTE	W04
	BYTE		        Cn1 
	BYTE		N03     Fs1 
	BYTE	W04
// 053   ----------------------------------------
	BYTE	PATT
	 POIN2	ScalingPeaks_7_006
// 054   ----------------------------------------
	BYTE	PATT
	 POIN2	ScalingPeaks_7_007
// 055   ----------------------------------------
	BYTE	PATT
	 POIN2	ScalingPeaks_7_007
// 056   ----------------------------------------
	BYTE	PATT
	 POIN2	ScalingPeaks_7_009
// 057   ----------------------------------------
	BYTE	PATT
	 POIN2	ScalingPeaks_7_006
// 058   ----------------------------------------
	BYTE	PATT
	 POIN2	ScalingPeaks_7_007
// 059   ----------------------------------------
	BYTE	PATT
	 POIN2	ScalingPeaks_7_007
// 060   ----------------------------------------
	BYTE	PATT
	 POIN2	ScalingPeaks_7_013
// 061   ----------------------------------------
	BYTE		N90     Bn0   v127
	BYTE		N90     Cn1 
	BYTE		N90     Dn1 
	BYTE		N90     En1 
	BYTE		N90     An1 
	BYTE		N90     Bn1 
	BYTE		N90     Cn2 
	BYTE		N90     Dn2 
	BYTE		N90     An2 
	BYTE	W92
	BYTE	W03
	BYTE	GoTo
	 POIN2	ScalingPeaks_7_B1
ScalingPeaks_7_B2:
	BYTE	FINE

//******************************************************//
	ALIGN 4

ScalingPeaks:
	BYTE	7	// NumTrks
	BYTE	0	// NumBlks
	BYTE	ScalingPeaks_pri	// Priority
	BYTE	ScalingPeaks_rev	// Reverb.

	POIN2	ScalingPeaks_grp

	POIN2	ScalingPeaks_1
	POIN2	ScalingPeaks_2
	POIN2	ScalingPeaks_3
	POIN2	ScalingPeaks_4
	POIN2	ScalingPeaks_5
	POIN2	ScalingPeaks_6
	POIN2	ScalingPeaks_7

	
