//Event file generated from Sappy .s format.
	#include "MPlayDef.event"

	#define	WreyvianPride_grp  voicegroup000
	#define	WreyvianPride_pri  0
	#define	WreyvianPride_rev  160
	#define	WreyvianPride_mvl  28
	#define	WreyvianPride_key  0
	#define	WreyvianPride_tbs  1
	#define	WreyvianPride_exg  0
	#define	WreyvianPride_cmp  1

	// .rodata
	//	WreyvianPride
	ALIGN 4

//**************** Track 1 (Midi-Chn.1) ****************//

WreyvianPride_1:
	BYTE	KEYSH   WreyvianPride_key+0
// 000   ----------------------------------------
	BYTE	TEMPO   130*WreyvianPride_tbs/2
	BYTE		VOICE   61
	BYTE		MODT    0
	BYTE		LFOS    44
	BYTE		VOL     117*WreyvianPride_mvl/mxv
	BYTE		PAN     c_v-32
	BYTE		N05     Bn3   v076
	BYTE		N05     En4 
	BYTE		N05     Gs4 
	BYTE	W08
	BYTE		        Bn3 
	BYTE		N05     En4 
	BYTE		N05     Fs4 
	BYTE	W08
	BYTE		        Bn3 
	BYTE		N05     En4 
	BYTE		N05     Gs4 
	BYTE	W08
	BYTE		        Bn3 
	BYTE		N05     En4 
	BYTE		N05     An4 
	BYTE	W08
	BYTE		        Bn3 
	BYTE		N05     En4 
	BYTE		N05     Gs4 
	BYTE	W08
	BYTE		        Bn3 
	BYTE		N05     En4 
	BYTE		N05     Fs4 
	BYTE	W08
	BYTE		        Bn3 
	BYTE		N05     En4 
	BYTE		N05     Gs4 
	BYTE	W08
	BYTE		        Bn3 
	BYTE		N05     En4 
	BYTE		N05     Fs4 
	BYTE	W08
	BYTE		        Bn3 
	BYTE		N05     En4 
	BYTE		N05     Gs4 
	BYTE	W08
	BYTE		        Bn3 
	BYTE		N05     En4 
	BYTE		N05     An4 
	BYTE	W08
	BYTE		        Bn3 
	BYTE		N05     En4 
	BYTE		N05     Gs4 
	BYTE	W08
	BYTE		        Bn3 
	BYTE		N05     En4 
	BYTE		N05     Fs4 
	BYTE	W08
// 001   ----------------------------------------
WreyvianPride_1_001:
	BYTE		N05     An3   v076
	BYTE		N05     Dn4 
	BYTE		N05     Fs4 
	BYTE	W08
	BYTE		        An3 
	BYTE		N05     Dn4 
	BYTE		N05     En4 
	BYTE	W08
	BYTE		        An3 
	BYTE		N05     Dn4 
	BYTE		N05     Fs4 
	BYTE	W08
	BYTE		        An3 
	BYTE		N05     Dn4 
	BYTE		N05     Gn4 
	BYTE	W08
	BYTE		        An3 
	BYTE		N05     Dn4 
	BYTE		N05     Fs4 
	BYTE	W08
	BYTE		        An3 
	BYTE		N05     Dn4 
	BYTE		N05     En4 
	BYTE	W08
	BYTE		        An3 
	BYTE		N05     Dn4 
	BYTE		N05     Fs4 
	BYTE	W08
	BYTE		        An3 
	BYTE		N05     Dn4 
	BYTE		N05     En4 
	BYTE	W08
	BYTE		        An3 
	BYTE		N05     Dn4 
	BYTE		N05     Fs4 
	BYTE	W08
	BYTE		        An3 
	BYTE		N05     Dn4 
	BYTE		N05     Gn4 
	BYTE	W08
	BYTE		        An3 
	BYTE		N05     Dn4 
	BYTE		N05     Fs4 
	BYTE	W08
	BYTE		        An3 
	BYTE		N05     Dn4 
	BYTE		N05     En4 
	BYTE	W08
	BYTE	PEND
// 002   ----------------------------------------
WreyvianPride_1_002:
	BYTE		N05     An3   v076
	BYTE		N05     Cn4 
	BYTE		N05     En4 
	BYTE	W08
	BYTE		        An3 
	BYTE		N05     Cn4 
	BYTE		N05     Dn4 
	BYTE	W08
	BYTE		        An3 
	BYTE		N05     Cn4 
	BYTE		N05     En4 
	BYTE	W08
	BYTE		        An3 
	BYTE		N05     Cn4 
	BYTE		N05     Fn4 
	BYTE	W08
	BYTE		        An3 
	BYTE		N05     Cn4 
	BYTE		N05     En4 
	BYTE	W08
	BYTE		        An3 
	BYTE		N05     Cn4 
	BYTE		N05     Dn4 
	BYTE	W08
	BYTE		        An3 
	BYTE		N05     Cn4 
	BYTE		N05     En4 
	BYTE	W08
	BYTE		        An3 
	BYTE		N05     Cn4 
	BYTE		N05     Dn4 
	BYTE	W08
	BYTE		        An3 
	BYTE		N05     Cn4 
	BYTE		N05     En4 
	BYTE	W08
	BYTE		        An3 
	BYTE		N05     Cn4 
	BYTE		N05     Fn4 
	BYTE	W08
	BYTE		        An3 
	BYTE		N05     Cn4 
	BYTE		N05     En4 
	BYTE	W08
	BYTE		        An3 
	BYTE		N05     Cn4 
	BYTE		N05     Dn4 
	BYTE	W08
	BYTE	PEND
// 003   ----------------------------------------
WreyvianPride_1_003:
	BYTE		N05     An3   v076
	BYTE		N05     Cn4 
	BYTE		N05     Fn4 
	BYTE	W08
	BYTE		        An3 
	BYTE		N05     Cn4 
	BYTE		N05     En4 
	BYTE	W08
	BYTE		        An3 
	BYTE		N05     Cn4 
	BYTE		N05     Fn4 
	BYTE	W08
	BYTE		        An3 
	BYTE		N05     Cn4 
	BYTE		N05     Gn4 
	BYTE	W08
	BYTE		        An3 
	BYTE		N05     Cn4 
	BYTE		N05     Fn4 
	BYTE	W08
	BYTE		        An3 
	BYTE		N05     Cn4 
	BYTE		N05     En4 
	BYTE	W08
	BYTE		        An3 
	BYTE		N05     Cn4 
	BYTE		N05     Fn4 
	BYTE	W08
	BYTE		        An3 
	BYTE		N05     Cn4 
	BYTE		N05     En4 
	BYTE	W08
	BYTE		        An3 
	BYTE		N05     Cn4 
	BYTE		N05     Fn4 
	BYTE	W08
	BYTE		        An3 
	BYTE		N05     Cn4 
	BYTE		N05     Gn4 
	BYTE	W08
	BYTE		        An3 
	BYTE		N05     Cn4 
	BYTE		N05     Fn4 
	BYTE	W08
	BYTE		        An3 
	BYTE		N05     Cn4 
	BYTE		N05     En4 
	BYTE	W08
	BYTE	PEND
// 004   ----------------------------------------
	BYTE		        Bn3 
	BYTE		N05     En4 
	BYTE		N05     Gs4 
	BYTE	W08
	BYTE		        Bn3 
	BYTE		N05     En4 
	BYTE		N05     Fs4 
	BYTE	W08
	BYTE		        Bn3 
	BYTE		N05     En4 
	BYTE		N05     Gs4 
	BYTE	W08
	BYTE		        Bn3 
	BYTE		N05     En4 
	BYTE		N05     An4 
	BYTE	W08
	BYTE		        Bn3 
	BYTE		N05     En4 
	BYTE		N05     Gs4 
	BYTE	W08
	BYTE		        Bn3 
	BYTE		N05     En4 
	BYTE		N05     Fs4 
	BYTE	W08
	BYTE		        Bn3 
	BYTE		N05     En4 
	BYTE		N05     Gs4 
	BYTE	W08
	BYTE		        Bn3 
	BYTE		N05     En4 
	BYTE		N05     Fs4 
	BYTE	W08
	BYTE		        Bn3 
	BYTE		N05     En4 
	BYTE		N05     Gs4 
	BYTE	W08
	BYTE		        Bn3 
	BYTE		N05     En4 
	BYTE		N05     An4 
	BYTE	W08
	BYTE		        Bn3 
	BYTE		N05     En4 
	BYTE		N05     Gs4 
	BYTE	W08
	BYTE		        Bn3 
	BYTE		N05     En4 
	BYTE		N05     Fs4 
	BYTE	W08
// 005   ----------------------------------------
	BYTE	PATT
	 POIN2	WreyvianPride_1_001
// 006   ----------------------------------------
	BYTE	PATT
	 POIN2	WreyvianPride_1_002
// 007   ----------------------------------------
	BYTE	PATT
	 POIN2	WreyvianPride_1_003
// 008   ----------------------------------------
	BYTE		TIE     Bn3   v076
	BYTE		TIE     En4 
	BYTE		TIE     An4 
	BYTE	W96
// 009   ----------------------------------------
	BYTE	W90
	BYTE		EOT     Bn3 
	BYTE		        En4 
	BYTE		        An4 
	BYTE	W06
// 010   ----------------------------------------
	BYTE		TIE     Bn3 
	BYTE		TIE     En4 
	BYTE		TIE     Gs4 
	BYTE	W96
// 011   ----------------------------------------
	BYTE	W90
	BYTE		EOT     Bn3 
	BYTE		        En4 
	BYTE		        Gs4 
	BYTE	W06
WreyvianPride_1_B1:
// 012   ----------------------------------------
	BYTE	W96
// 013   ----------------------------------------
	BYTE	W96
// 014   ----------------------------------------
	BYTE	W96
// 015   ----------------------------------------
	BYTE	W96
// 016   ----------------------------------------
	BYTE	W96
// 017   ----------------------------------------
	BYTE	W96
// 018   ----------------------------------------
	BYTE	W96
// 019   ----------------------------------------
	BYTE	W96
// 020   ----------------------------------------
	BYTE	W96
// 021   ----------------------------------------
	BYTE	W96
// 022   ----------------------------------------
	BYTE	W96
// 023   ----------------------------------------
	BYTE	W96
// 024   ----------------------------------------
	BYTE	W96
// 025   ----------------------------------------
	BYTE	W96
// 026   ----------------------------------------
	BYTE	W96
// 027   ----------------------------------------
	BYTE	W96
// 028   ----------------------------------------
WreyvianPride_1_028:
	BYTE	W24
	BYTE		N05     An3   v076
	BYTE		N05     Cn4 
	BYTE		N05     En4 
	BYTE	W16
	BYTE		        An3 
	BYTE		N05     Cn4 
	BYTE		N05     En4 
	BYTE	W32
	BYTE		        An3 
	BYTE		N05     Cn4 
	BYTE		N05     En4 
	BYTE	W16
	BYTE		        An3 
	BYTE		N05     Cn4 
	BYTE		N05     En4 
	BYTE	W08
	BYTE	PEND
// 029   ----------------------------------------
WreyvianPride_1_029:
	BYTE	W24
	BYTE		N05     An3   v076
	BYTE		N05     Cn4 
	BYTE		N05     Fn4 
	BYTE	W16
	BYTE		        An3 
	BYTE		N05     Cn4 
	BYTE		N05     Fn4 
	BYTE	W32
	BYTE		        An3 
	BYTE		N05     Cn4 
	BYTE		N05     Fn4 
	BYTE	W16
	BYTE		        An3 
	BYTE		N05     Cn4 
	BYTE		N05     Fn4 
	BYTE	W08
	BYTE	PEND
// 030   ----------------------------------------
WreyvianPride_1_030:
	BYTE	W24
	BYTE		N05     An3   v076
	BYTE		N05     Dn4 
	BYTE		N05     Fs4 
	BYTE	W16
	BYTE		        An3 
	BYTE		N05     Dn4 
	BYTE		N05     Fs4 
	BYTE	W32
	BYTE		        An3 
	BYTE		N05     Dn4 
	BYTE		N05     Fs4 
	BYTE	W16
	BYTE		        An3 
	BYTE		N05     Dn4 
	BYTE		N05     Fs4 
	BYTE	W08
	BYTE	PEND
// 031   ----------------------------------------
WreyvianPride_1_031:
	BYTE	W24
	BYTE		N05     Bn3   v076
	BYTE		N05     En4 
	BYTE		N05     Gn4 
	BYTE	W16
	BYTE		        Bn3 
	BYTE		N05     En4 
	BYTE		N05     Gn4 
	BYTE	W32
	BYTE		        Bn3 
	BYTE		N05     En4 
	BYTE		N05     Gn4 
	BYTE	W16
	BYTE		        Bn3 
	BYTE		N05     En4 
	BYTE		N05     Gn4 
	BYTE	W08
	BYTE	PEND
// 032   ----------------------------------------
	BYTE	PATT
	 POIN2	WreyvianPride_1_028
// 033   ----------------------------------------
	BYTE	PATT
	 POIN2	WreyvianPride_1_029
// 034   ----------------------------------------
	BYTE	PATT
	 POIN2	WreyvianPride_1_030
// 035   ----------------------------------------
	BYTE	PATT
	 POIN2	WreyvianPride_1_031
// 036   ----------------------------------------
WreyvianPride_1_036:
	BYTE		N72     Fs3   v076
	BYTE		N72     An3 
	BYTE		N72     Dn4 
	BYTE	W72
	BYTE	PEND
// 037   ----------------------------------------
	BYTE		        En3 
	BYTE		N72     An3 
	BYTE		N72     Cs4 
	BYTE	W72
// 038   ----------------------------------------
WreyvianPride_1_038:
	BYTE		N72     Dn3   v076
	BYTE		N72     An3 
	BYTE		N72     Cn4 
	BYTE	W72
	BYTE	PEND
// 039   ----------------------------------------
	BYTE		        Dn3 
	BYTE		N72     Gn3 
	BYTE		N72     Bn3 
	BYTE	W72
// 040   ----------------------------------------
	BYTE	PATT
	 POIN2	WreyvianPride_1_036
// 041   ----------------------------------------
	BYTE		N72     En3   v076
	BYTE		N72     An3 
	BYTE		N72     Cs4 
	BYTE	W72
// 042   ----------------------------------------
	BYTE	PATT
	 POIN2	WreyvianPride_1_038
// 043   ----------------------------------------
	BYTE		N66     Dn3   v076
	BYTE		N66     Gn3 
	BYTE		N66     Bn3 
	BYTE	W72
// 044   ----------------------------------------
	BYTE		N72     En3 
	BYTE		N72     Gn3 
	BYTE		N72     Bn3 
	BYTE	W72
// 045   ----------------------------------------
WreyvianPride_1_045:
	BYTE		N72     Cn3   v076
	BYTE		N72     Fn3 
	BYTE		N72     An3 
	BYTE	W72
	BYTE	PEND
// 046   ----------------------------------------
WreyvianPride_1_046:
	BYTE		N72     Cn3   v076
	BYTE		N72     En3 
	BYTE		N72     Gn3 
	BYTE	W72
	BYTE	PEND
// 047   ----------------------------------------
	BYTE		N66     Dn3 
	BYTE		N66     Fs3 
	BYTE		N24     An3 
	BYTE	W24
	BYTE		        Bn3 
	BYTE	W24
	BYTE		        Cn4 
	BYTE	W24
// 048   ----------------------------------------
	BYTE		N72     En3 
	BYTE		N72     Gn3 
	BYTE		N72     Bn3 
	BYTE	W72
// 049   ----------------------------------------
	BYTE	PATT
	 POIN2	WreyvianPride_1_045
// 050   ----------------------------------------
	BYTE	PATT
	 POIN2	WreyvianPride_1_046
// 051   ----------------------------------------
	BYTE		N72     Cs3   v076
	BYTE		N72     En3 
	BYTE		N72     An3 
	BYTE	W72
// 052   ----------------------------------------
	BYTE		N96     Dn3 
	BYTE		N96     Fn3 
	BYTE		N96     An3 
	BYTE		TIE     Dn4 
	BYTE	W96
// 053   ----------------------------------------
	BYTE		N96     En3 
	BYTE		N96     Gn3 
	BYTE		N96     Bn3 
	BYTE	W96
// 054   ----------------------------------------
	BYTE		        Fn3 
	BYTE		N96     An3 
	BYTE		N96     Cn4 
	BYTE	W96
// 055   ----------------------------------------
	BYTE		        En3 
	BYTE		N96     Gn3 
	BYTE		N96     Bn3 
	BYTE	W96
	BYTE		EOT     Dn4 
// 056   ----------------------------------------
	BYTE		N96     Dn3 
	BYTE		N96     Fs3 
	BYTE		N96     An3 
	BYTE		N96     Dn4 
	BYTE	W96
// 057   ----------------------------------------
	BYTE		        En3 
	BYTE		N96     Gn3 
	BYTE		N96     Bn3 
	BYTE		N96     En4 
	BYTE	W96
// 058   ----------------------------------------
	BYTE		        Fs3 
	BYTE		N96     An3 
	BYTE		N96     Cn4 
	BYTE		N96     Dn4 
	BYTE	W96
// 059   ----------------------------------------
	BYTE		TIE     En3 
	BYTE		TIE     Gn3 
	BYTE		TIE     Bn3 
	BYTE		TIE     En4 
	BYTE	W96
// 060   ----------------------------------------
	BYTE	W42
	BYTE		EOT     En3 
	BYTE		        Gn3 
	BYTE		        Bn3 
	BYTE		        En4 
	BYTE	W52
	BYTE	W01
	BYTE	GoTo
	 POIN2	WreyvianPride_1_B1
WreyvianPride_1_B2:
	BYTE	FINE

//**************** Track 2 (Midi-Chn.2) ****************//

WreyvianPride_2:
	BYTE	KEYSH   WreyvianPride_key+0
// 000   ----------------------------------------
	BYTE		VOICE   60
	BYTE		MODT    0
	BYTE		LFOS    44
	BYTE		VOL     103*WreyvianPride_mvl/mxv
	BYTE		PAN     c_v+0
	BYTE		N48     Bn2   v127
	BYTE	W48
	BYTE		        En3 
	BYTE	W48
// 001   ----------------------------------------
WreyvianPride_2_001:
	BYTE		N48     An2   v127
	BYTE	W48
	BYTE		        Dn3 
	BYTE	W48
	BYTE	PEND
// 002   ----------------------------------------
	BYTE		        En3 
	BYTE	W48
	BYTE		        Cn3 
	BYTE	W48
// 003   ----------------------------------------
	BYTE		        Fn3 
	BYTE	W48
	BYTE		        Cn3 
	BYTE	W48
// 004   ----------------------------------------
	BYTE		        Bn2 
	BYTE	W48
	BYTE		        En3 
	BYTE	W48
// 005   ----------------------------------------
	BYTE	PATT
	 POIN2	WreyvianPride_2_001
// 006   ----------------------------------------
	BYTE		N48     En3   v127
	BYTE	W48
	BYTE		        Cn3 
	BYTE	W48
// 007   ----------------------------------------
	BYTE		        Fn3 
	BYTE	W48
	BYTE		N42     Cn3 
	BYTE	W48
// 008   ----------------------------------------
	BYTE		TIE     En3 
	BYTE	W96
// 009   ----------------------------------------
	BYTE	W96
// 010   ----------------------------------------
	BYTE	W96
// 011   ----------------------------------------
	BYTE	W90
	BYTE		EOT   
	BYTE	W06
WreyvianPride_2_B1:
// 012   ----------------------------------------
	BYTE	W96
// 013   ----------------------------------------
	BYTE	W96
// 014   ----------------------------------------
	BYTE	W96
// 015   ----------------------------------------
	BYTE	W96
// 016   ----------------------------------------
	BYTE	W96
// 017   ----------------------------------------
	BYTE	W96
// 018   ----------------------------------------
	BYTE	W96
// 019   ----------------------------------------
	BYTE	W96
// 020   ----------------------------------------
	BYTE	W96
// 021   ----------------------------------------
	BYTE	W96
// 022   ----------------------------------------
	BYTE	W96
// 023   ----------------------------------------
	BYTE	W96
// 024   ----------------------------------------
	BYTE	W96
// 025   ----------------------------------------
	BYTE	W96
// 026   ----------------------------------------
	BYTE	W96
// 027   ----------------------------------------
	BYTE	W96
// 028   ----------------------------------------
	BYTE	W96
// 029   ----------------------------------------
	BYTE	W96
// 030   ----------------------------------------
	BYTE	W96
// 031   ----------------------------------------
	BYTE	W96
// 032   ----------------------------------------
	BYTE	W96
// 033   ----------------------------------------
	BYTE	W96
// 034   ----------------------------------------
	BYTE	W96
// 035   ----------------------------------------
	BYTE	W96
// 036   ----------------------------------------
	BYTE	W72
// 037   ----------------------------------------
	BYTE	W72
// 038   ----------------------------------------
	BYTE	W72
// 039   ----------------------------------------
	BYTE	W72
// 040   ----------------------------------------
	BYTE	W72
// 041   ----------------------------------------
	BYTE	W72
// 042   ----------------------------------------
	BYTE	W72
// 043   ----------------------------------------
	BYTE	W72
// 044   ----------------------------------------
	BYTE	W72
// 045   ----------------------------------------
	BYTE	W72
// 046   ----------------------------------------
	BYTE	W72
// 047   ----------------------------------------
	BYTE	W72
// 048   ----------------------------------------
	BYTE	W72
// 049   ----------------------------------------
	BYTE	W72
// 050   ----------------------------------------
	BYTE	W72
// 051   ----------------------------------------
	BYTE	W72
// 052   ----------------------------------------
	BYTE	W96
// 053   ----------------------------------------
	BYTE	W96
// 054   ----------------------------------------
	BYTE	W96
// 055   ----------------------------------------
	BYTE	W96
// 056   ----------------------------------------
	BYTE	W96
// 057   ----------------------------------------
	BYTE	W96
// 058   ----------------------------------------
	BYTE	W96
// 059   ----------------------------------------
	BYTE	W96
// 060   ----------------------------------------
	BYTE	W92
	BYTE	W03
	BYTE	GoTo
	 POIN2	WreyvianPride_2_B1
WreyvianPride_2_B2:
	BYTE	FINE

//**************** Track 3 (Midi-Chn.3) ****************//

WreyvianPride_3:
	BYTE	KEYSH   WreyvianPride_key+0
// 000   ----------------------------------------
	BYTE		VOICE   40
	BYTE		MODT    0
	BYTE		LFOS    44
	BYTE		VOL     127*WreyvianPride_mvl/mxv
	BYTE		PAN     c_v+0
	BYTE		N90     En1   v127
	BYTE	W96
// 001   ----------------------------------------
	BYTE		        Dn1 
	BYTE	W96
// 002   ----------------------------------------
	BYTE		        Cn1 
	BYTE	W96
// 003   ----------------------------------------
	BYTE		        Fn1 
	BYTE	W96
// 004   ----------------------------------------
	BYTE		        En1 
	BYTE	W96
// 005   ----------------------------------------
	BYTE		        Dn1 
	BYTE	W96
// 006   ----------------------------------------
	BYTE		        Cn1 
	BYTE	W96
// 007   ----------------------------------------
	BYTE		        Fn1 
	BYTE	W96
// 008   ----------------------------------------
	BYTE		TIE     En1 
	BYTE	W96
// 009   ----------------------------------------
	BYTE	W96
// 010   ----------------------------------------
	BYTE	W96
// 011   ----------------------------------------
	BYTE	W90
	BYTE		EOT   
	BYTE	W06
WreyvianPride_3_B1:
// 012   ----------------------------------------
	BYTE	W96
// 013   ----------------------------------------
	BYTE	W96
// 014   ----------------------------------------
	BYTE	W96
// 015   ----------------------------------------
	BYTE	W96
// 016   ----------------------------------------
	BYTE	W96
// 017   ----------------------------------------
	BYTE	W96
// 018   ----------------------------------------
	BYTE	W96
// 019   ----------------------------------------
	BYTE	W96
// 020   ----------------------------------------
	BYTE	W96
// 021   ----------------------------------------
	BYTE	W96
// 022   ----------------------------------------
	BYTE	W96
// 023   ----------------------------------------
	BYTE	W96
// 024   ----------------------------------------
	BYTE	W96
// 025   ----------------------------------------
	BYTE	W96
// 026   ----------------------------------------
	BYTE	W96
// 027   ----------------------------------------
	BYTE	W96
// 028   ----------------------------------------
	BYTE		TIE     Cn2   v127
	BYTE	W96
// 029   ----------------------------------------
	BYTE	W90
	BYTE		EOT   
	BYTE	W06
// 030   ----------------------------------------
	BYTE		N90     Dn2 
	BYTE	W96
// 031   ----------------------------------------
	BYTE		N42     En2 
	BYTE	W48
	BYTE		        Dn2 
	BYTE	W48
// 032   ----------------------------------------
	BYTE		TIE     Cn2 
	BYTE	W96
// 033   ----------------------------------------
	BYTE	W90
	BYTE		EOT   
	BYTE	W06
// 034   ----------------------------------------
	BYTE		N90     Dn2 
	BYTE	W96
// 035   ----------------------------------------
	BYTE		        En2 
	BYTE	W96
// 036   ----------------------------------------
	BYTE	W72
// 037   ----------------------------------------
	BYTE	W72
// 038   ----------------------------------------
	BYTE	W72
// 039   ----------------------------------------
	BYTE	W72
// 040   ----------------------------------------
	BYTE	W72
// 041   ----------------------------------------
	BYTE	W72
// 042   ----------------------------------------
	BYTE	W72
// 043   ----------------------------------------
	BYTE	W72
// 044   ----------------------------------------
	BYTE	W72
// 045   ----------------------------------------
	BYTE	W72
// 046   ----------------------------------------
	BYTE	W72
// 047   ----------------------------------------
	BYTE	W72
// 048   ----------------------------------------
	BYTE	W72
// 049   ----------------------------------------
	BYTE	W72
// 050   ----------------------------------------
	BYTE	W72
// 051   ----------------------------------------
	BYTE	W72
// 052   ----------------------------------------
	BYTE	W96
// 053   ----------------------------------------
	BYTE	W96
// 054   ----------------------------------------
	BYTE	W96
// 055   ----------------------------------------
	BYTE	W96
// 056   ----------------------------------------
	BYTE	W96
// 057   ----------------------------------------
	BYTE	W96
// 058   ----------------------------------------
	BYTE	W96
// 059   ----------------------------------------
	BYTE	W96
// 060   ----------------------------------------
	BYTE	W92
	BYTE	W03
	BYTE	GoTo
	 POIN2	WreyvianPride_3_B1
WreyvianPride_3_B2:
	BYTE	FINE

//**************** Track 4 (Midi-Chn.4) ****************//

WreyvianPride_4:
	BYTE	KEYSH   WreyvianPride_key+0
// 000   ----------------------------------------
	BYTE		VOICE   49
	BYTE		MODT    0
	BYTE		LFOS    44
	BYTE		VOL     114*WreyvianPride_mvl/mxv
	BYTE		PAN     c_v+32
	BYTE		N90     En3   v076
	BYTE		N90     Gs3 
	BYTE		N90     Bn3 
	BYTE	W96
// 001   ----------------------------------------
WreyvianPride_4_001:
	BYTE		N90     Dn3   v076
	BYTE		N90     Fs3 
	BYTE		TIE     An3 
	BYTE	W96
	BYTE	PEND
// 002   ----------------------------------------
WreyvianPride_4_002:
	BYTE		TIE     Cn3   v076
	BYTE		N90     En3 
	BYTE	W96
	BYTE	PEND
// 003   ----------------------------------------
	BYTE		        Fn3 
	BYTE	W90
	BYTE		EOT     Cn3 
	BYTE		        An3 
	BYTE	W06
// 004   ----------------------------------------
	BYTE		N90     En3 
	BYTE		N90     Gs3 
	BYTE		N90     Bn3 
	BYTE	W96
// 005   ----------------------------------------
	BYTE	PATT
	 POIN2	WreyvianPride_4_001
// 006   ----------------------------------------
	BYTE	PATT
	 POIN2	WreyvianPride_4_002
// 007   ----------------------------------------
	BYTE		N90     Fn3   v076
	BYTE	W90
	BYTE		EOT     Cn3 
	BYTE		        An3 
	BYTE	W06
// 008   ----------------------------------------
	BYTE		TIE     En3 
	BYTE		TIE     An3 
	BYTE		TIE     Bn3 
	BYTE	W96
// 009   ----------------------------------------
	BYTE	W90
	BYTE		EOT     En3 
	BYTE		        An3 
	BYTE		        Bn3 
	BYTE	W06
// 010   ----------------------------------------
	BYTE		TIE     En3 
	BYTE		TIE     Gs3 
	BYTE		TIE     Bn3 
	BYTE	W96
// 011   ----------------------------------------
	BYTE	W90
	BYTE		EOT     En3 
	BYTE		        Gs3 
	BYTE		        Bn3 
	BYTE	W06
WreyvianPride_4_B1:
// 012   ----------------------------------------
	BYTE	W96
// 013   ----------------------------------------
	BYTE	W96
// 014   ----------------------------------------
	BYTE	W96
// 015   ----------------------------------------
	BYTE	W96
// 016   ----------------------------------------
	BYTE	W96
// 017   ----------------------------------------
	BYTE	W96
// 018   ----------------------------------------
	BYTE	W96
// 019   ----------------------------------------
	BYTE	W96
// 020   ----------------------------------------
	BYTE	W96
// 021   ----------------------------------------
	BYTE	W96
// 022   ----------------------------------------
	BYTE	W96
// 023   ----------------------------------------
	BYTE	W96
// 024   ----------------------------------------
	BYTE	W96
// 025   ----------------------------------------
	BYTE	W96
// 026   ----------------------------------------
	BYTE	W96
// 027   ----------------------------------------
	BYTE	W96
// 028   ----------------------------------------
WreyvianPride_4_028:
	BYTE		TIE     Cn3   v076
	BYTE		N90     En3 
	BYTE		TIE     An3 
	BYTE	W96
	BYTE	PEND
// 029   ----------------------------------------
	BYTE		N90     Fn3 
	BYTE	W90
	BYTE		EOT     Cn3 
	BYTE	W06
// 030   ----------------------------------------
	BYTE		N90     Dn3 
	BYTE		N90     Fs3 
	BYTE	W90
	BYTE		EOT     An3 
	BYTE	W06
// 031   ----------------------------------------
	BYTE		N90     En3 
	BYTE		N90     Gn3 
	BYTE		N90     Bn3 
	BYTE	W96
// 032   ----------------------------------------
	BYTE	PATT
	 POIN2	WreyvianPride_4_028
// 033   ----------------------------------------
	BYTE		N90     Fn3   v076
	BYTE	W90
	BYTE		EOT     Cn3 
	BYTE	W06
// 034   ----------------------------------------
	BYTE		N90     Dn3 
	BYTE		N90     Fs3 
	BYTE	W90
	BYTE		EOT     An3 
	BYTE	W06
// 035   ----------------------------------------
	BYTE		N90     En3 
	BYTE		N90     Gn3 
	BYTE		N90     Bn3 
	BYTE	W96
// 036   ----------------------------------------
WreyvianPride_4_036:
	BYTE		N72     Fs3   v076
	BYTE		N72     An3 
	BYTE		N72     Dn4 
	BYTE	W72
	BYTE	PEND
// 037   ----------------------------------------
	BYTE		        En3 
	BYTE		N72     An3 
	BYTE		N72     Cs4 
	BYTE	W72
// 038   ----------------------------------------
WreyvianPride_4_038:
	BYTE		N72     Dn3   v076
	BYTE		N72     An3 
	BYTE		N72     Cn4 
	BYTE	W72
	BYTE	PEND
// 039   ----------------------------------------
	BYTE		        Dn3 
	BYTE		N72     Gn3 
	BYTE		N72     Bn3 
	BYTE	W72
// 040   ----------------------------------------
	BYTE	PATT
	 POIN2	WreyvianPride_4_036
// 041   ----------------------------------------
	BYTE		N72     En3   v076
	BYTE		N72     An3 
	BYTE		N72     Cs4 
	BYTE	W72
// 042   ----------------------------------------
	BYTE	PATT
	 POIN2	WreyvianPride_4_038
// 043   ----------------------------------------
	BYTE		N66     Dn3   v076
	BYTE		N66     Gn3 
	BYTE		N66     Bn3 
	BYTE	W72
// 044   ----------------------------------------
	BYTE		N72     En3 
	BYTE		N72     Gn3 
	BYTE		N72     Bn3 
	BYTE	W72
// 045   ----------------------------------------
WreyvianPride_4_045:
	BYTE		N72     Cn3   v076
	BYTE		N72     Fn3 
	BYTE		N72     An3 
	BYTE	W72
	BYTE	PEND
// 046   ----------------------------------------
WreyvianPride_4_046:
	BYTE		N72     Cn3   v076
	BYTE		N72     En3 
	BYTE		N72     Gn3 
	BYTE	W72
	BYTE	PEND
// 047   ----------------------------------------
	BYTE		N66     Dn3 
	BYTE		N66     Fs3 
	BYTE		N24     An3 
	BYTE	W24
	BYTE		        Bn3 
	BYTE	W24
	BYTE		        Cn4 
	BYTE	W24
// 048   ----------------------------------------
	BYTE		N72     En3 
	BYTE		N72     Gn3 
	BYTE		N72     Bn3 
	BYTE	W72
// 049   ----------------------------------------
	BYTE	PATT
	 POIN2	WreyvianPride_4_045
// 050   ----------------------------------------
	BYTE	PATT
	 POIN2	WreyvianPride_4_046
// 051   ----------------------------------------
	BYTE		N72     Cs3   v076
	BYTE		N72     En3 
	BYTE		N72     An3 
	BYTE	W72
// 052   ----------------------------------------
	BYTE		N96     Dn3 
	BYTE		N96     Fn3 
	BYTE		N96     An3 
	BYTE		TIE     Dn4 
	BYTE	W96
// 053   ----------------------------------------
	BYTE		N96     En3 
	BYTE		N96     Gn3 
	BYTE		N96     Bn3 
	BYTE	W96
// 054   ----------------------------------------
	BYTE		        Fn3 
	BYTE		N96     An3 
	BYTE		N96     Cn4 
	BYTE	W96
// 055   ----------------------------------------
	BYTE		        En3 
	BYTE		N96     Gn3 
	BYTE		N96     Bn3 
	BYTE	W96
	BYTE		EOT     Dn4 
// 056   ----------------------------------------
	BYTE		N96     Dn3 
	BYTE		N96     Fs3 
	BYTE		N96     An3 
	BYTE		N96     Dn4 
	BYTE	W96
// 057   ----------------------------------------
	BYTE		        En3 
	BYTE		N96     Gn3 
	BYTE		N96     Bn3 
	BYTE		N96     En4 
	BYTE	W96
// 058   ----------------------------------------
	BYTE		        Fs3 
	BYTE		N96     An3 
	BYTE		N96     Cn4 
	BYTE		N96     Dn4 
	BYTE	W96
// 059   ----------------------------------------
	BYTE		TIE     En3 
	BYTE		TIE     Gn3 
	BYTE		TIE     Bn3 
	BYTE		TIE     En4 
	BYTE	W96
// 060   ----------------------------------------
	BYTE	W42
	BYTE		EOT     En3 
	BYTE		        Gn3 
	BYTE		        Bn3 
	BYTE		        En4 
	BYTE	W52
	BYTE	W01
	BYTE	GoTo
	 POIN2	WreyvianPride_4_B1
WreyvianPride_4_B2:
	BYTE	FINE

//**************** Track 5 (Midi-Chn.5) ****************//

WreyvianPride_5:
	BYTE	KEYSH   WreyvianPride_key+0
// 000   ----------------------------------------
	BYTE		VOICE   30
	BYTE		MODT    0
	BYTE		LFOS    44
	BYTE		PAN     c_v-28
	BYTE		VOL     127*WreyvianPride_mvl/mxv
	BYTE	W96
// 001   ----------------------------------------
	BYTE	W96
// 002   ----------------------------------------
	BYTE	W96
// 003   ----------------------------------------
	BYTE	W96
// 004   ----------------------------------------
	BYTE		N90     En1   v127
	BYTE	W96
// 005   ----------------------------------------
	BYTE		        Dn1 
	BYTE	W96
// 006   ----------------------------------------
	BYTE		        Cn1 
	BYTE	W96
// 007   ----------------------------------------
	BYTE		        Fn1 
	BYTE	W96
// 008   ----------------------------------------
WreyvianPride_5_008:
	BYTE		N20     En1   v127
	BYTE	W24
	BYTE		N20   
	BYTE	W24
	BYTE		N20   
	BYTE	W24
	BYTE		N20   
	BYTE	W24
	BYTE	PEND
// 009   ----------------------------------------
	BYTE	PATT
	 POIN2	WreyvianPride_5_008
// 010   ----------------------------------------
	BYTE	PATT
	 POIN2	WreyvianPride_5_008
// 011   ----------------------------------------
	BYTE	PATT
	 POIN2	WreyvianPride_5_008
WreyvianPride_5_B1:
// 012   ----------------------------------------
WreyvianPride_5_012:
	BYTE		N07     En1   v127
	BYTE	W08
	BYTE		N07   
	BYTE	W08
	BYTE		N07   
	BYTE	W08
	BYTE		        En2 
	BYTE	W08
	BYTE		        En1 
	BYTE	W08
	BYTE		N07   
	BYTE	W08
	BYTE		N07   
	BYTE	W08
	BYTE		N07   
	BYTE	W08
	BYTE		N07   
	BYTE	W08
	BYTE		        En2 
	BYTE	W08
	BYTE		        En1 
	BYTE	W08
	BYTE		N07   
	BYTE	W08
	BYTE	PEND
// 013   ----------------------------------------
	BYTE	PATT
	 POIN2	WreyvianPride_5_012
// 014   ----------------------------------------
	BYTE	PATT
	 POIN2	WreyvianPride_5_012
// 015   ----------------------------------------
WreyvianPride_5_015:
	BYTE		N07     Fn1   v127
	BYTE	W08
	BYTE		N07   
	BYTE	W08
	BYTE		N07   
	BYTE	W08
	BYTE		        Fn2 
	BYTE	W08
	BYTE		        Fn1 
	BYTE	W08
	BYTE		N07   
	BYTE	W08
	BYTE		N07   
	BYTE	W08
	BYTE		N07   
	BYTE	W08
	BYTE		N07   
	BYTE	W08
	BYTE		        Fn2 
	BYTE	W08
	BYTE		        Fn1 
	BYTE	W08
	BYTE		N07   
	BYTE	W08
	BYTE	PEND
// 016   ----------------------------------------
	BYTE	PATT
	 POIN2	WreyvianPride_5_012
// 017   ----------------------------------------
	BYTE	PATT
	 POIN2	WreyvianPride_5_012
// 018   ----------------------------------------
	BYTE	PATT
	 POIN2	WreyvianPride_5_012
// 019   ----------------------------------------
	BYTE	PATT
	 POIN2	WreyvianPride_5_015
// 020   ----------------------------------------
	BYTE	PATT
	 POIN2	WreyvianPride_5_012
// 021   ----------------------------------------
	BYTE	PATT
	 POIN2	WreyvianPride_5_012
// 022   ----------------------------------------
	BYTE	PATT
	 POIN2	WreyvianPride_5_012
// 023   ----------------------------------------
	BYTE	PATT
	 POIN2	WreyvianPride_5_015
// 024   ----------------------------------------
	BYTE	PATT
	 POIN2	WreyvianPride_5_012
// 025   ----------------------------------------
	BYTE	PATT
	 POIN2	WreyvianPride_5_012
// 026   ----------------------------------------
	BYTE	PATT
	 POIN2	WreyvianPride_5_012
// 027   ----------------------------------------
	BYTE	PATT
	 POIN2	WreyvianPride_5_015
// 028   ----------------------------------------
WreyvianPride_5_028:
	BYTE		N15     En1   v127
	BYTE	W16
	BYTE		N07   
	BYTE	W08
	BYTE		N15     An1 
	BYTE	W16
	BYTE		N07     Cn2 
	BYTE	W08
	BYTE		N15     En1 
	BYTE	W16
	BYTE		N07   
	BYTE	W08
	BYTE		N15     An1 
	BYTE	W16
	BYTE		N07     Cn2 
	BYTE	W08
	BYTE	PEND
// 029   ----------------------------------------
WreyvianPride_5_029:
	BYTE		N15     Fn1   v127
	BYTE	W16
	BYTE		N07   
	BYTE	W08
	BYTE		N15     An1 
	BYTE	W16
	BYTE		N07     Cn2 
	BYTE	W08
	BYTE		N15     Fn1 
	BYTE	W16
	BYTE		N07   
	BYTE	W08
	BYTE		N15     An1 
	BYTE	W16
	BYTE		N07     Cn2 
	BYTE	W08
	BYTE	PEND
// 030   ----------------------------------------
WreyvianPride_5_030:
	BYTE		N15     Fs1   v127
	BYTE	W16
	BYTE		N07   
	BYTE	W08
	BYTE		N15     An1 
	BYTE	W16
	BYTE		N07     Dn2 
	BYTE	W08
	BYTE		N15     Fs1 
	BYTE	W16
	BYTE		N07   
	BYTE	W08
	BYTE		N15     An1 
	BYTE	W16
	BYTE		N07     Dn2 
	BYTE	W08
	BYTE	PEND
// 031   ----------------------------------------
WreyvianPride_5_031:
	BYTE		N15     Gn1   v127
	BYTE	W16
	BYTE		N07   
	BYTE	W08
	BYTE		N15     Bn1 
	BYTE	W16
	BYTE		N07     En2 
	BYTE	W08
	BYTE		N15     Gn1 
	BYTE	W16
	BYTE		N07   
	BYTE	W08
	BYTE		N15     Bn1 
	BYTE	W16
	BYTE		N07     En2 
	BYTE	W08
	BYTE	PEND
// 032   ----------------------------------------
	BYTE	PATT
	 POIN2	WreyvianPride_5_028
// 033   ----------------------------------------
	BYTE	PATT
	 POIN2	WreyvianPride_5_029
// 034   ----------------------------------------
	BYTE	PATT
	 POIN2	WreyvianPride_5_030
// 035   ----------------------------------------
	BYTE	PATT
	 POIN2	WreyvianPride_5_031
// 036   ----------------------------------------
WreyvianPride_5_036:
	BYTE		N20     An1   v127
	BYTE	W24
	BYTE		        Dn2 
	BYTE	W24
	BYTE		        An1 
	BYTE	W24
	BYTE	PEND
// 037   ----------------------------------------
WreyvianPride_5_037:
	BYTE		N20     Cs2   v127
	BYTE	W24
	BYTE		        An1 
	BYTE	W24
	BYTE		        Cs2 
	BYTE	W24
	BYTE	PEND
// 038   ----------------------------------------
WreyvianPride_5_038:
	BYTE		N20     Cn2   v127
	BYTE	W24
	BYTE		        An1 
	BYTE	W24
	BYTE		        Cn2 
	BYTE	W24
	BYTE	PEND
// 039   ----------------------------------------
WreyvianPride_5_039:
	BYTE		N20     Bn1   v127
	BYTE	W24
	BYTE		        Cn2 
	BYTE	W24
	BYTE		        Dn2 
	BYTE	W24
	BYTE	PEND
// 040   ----------------------------------------
	BYTE	PATT
	 POIN2	WreyvianPride_5_036
// 041   ----------------------------------------
	BYTE	PATT
	 POIN2	WreyvianPride_5_037
// 042   ----------------------------------------
	BYTE	PATT
	 POIN2	WreyvianPride_5_038
// 043   ----------------------------------------
	BYTE	PATT
	 POIN2	WreyvianPride_5_039
// 044   ----------------------------------------
WreyvianPride_5_044:
	BYTE		N20     En2   v127
	BYTE	W24
	BYTE		        Bn1 
	BYTE	W24
	BYTE		        En2 
	BYTE	W24
	BYTE	PEND
// 045   ----------------------------------------
WreyvianPride_5_045:
	BYTE		N20     Fn2   v127
	BYTE	W24
	BYTE		        Cn2 
	BYTE	W24
	BYTE		        Fn2 
	BYTE	W24
	BYTE	PEND
// 046   ----------------------------------------
WreyvianPride_5_046:
	BYTE		N20     Gn2   v127
	BYTE	W24
	BYTE		        En2 
	BYTE	W24
	BYTE		        Gn2 
	BYTE	W24
	BYTE	PEND
// 047   ----------------------------------------
	BYTE		        An2 
	BYTE	W24
	BYTE		        Gn2 
	BYTE	W24
	BYTE		        Fs2 
	BYTE	W24
// 048   ----------------------------------------
	BYTE	PATT
	 POIN2	WreyvianPride_5_044
// 049   ----------------------------------------
	BYTE	PATT
	 POIN2	WreyvianPride_5_045
// 050   ----------------------------------------
	BYTE	PATT
	 POIN2	WreyvianPride_5_046
// 051   ----------------------------------------
	BYTE		N20     Cs3   v127
	BYTE	W24
	BYTE		        Bn2 
	BYTE	W24
	BYTE		        An2 
	BYTE	W24
// 052   ----------------------------------------
WreyvianPride_5_052:
	BYTE		N15     Dn1   v127
	BYTE	W16
	BYTE		N07   
	BYTE	W08
	BYTE		        Dn2 
	BYTE	W08
	BYTE		N15     Dn1 
	BYTE	W16
	BYTE		N15   
	BYTE	W16
	BYTE		N07   
	BYTE	W08
	BYTE		        Dn2 
	BYTE	W08
	BYTE		N15     Dn1 
	BYTE	W16
	BYTE	PEND
// 053   ----------------------------------------
	BYTE	PATT
	 POIN2	WreyvianPride_5_052
// 054   ----------------------------------------
	BYTE	PATT
	 POIN2	WreyvianPride_5_052
// 055   ----------------------------------------
	BYTE	PATT
	 POIN2	WreyvianPride_5_052
// 056   ----------------------------------------
	BYTE	PATT
	 POIN2	WreyvianPride_5_052
// 057   ----------------------------------------
	BYTE		N15     En1   v127
	BYTE	W16
	BYTE		N07   
	BYTE	W08
	BYTE		        En2 
	BYTE	W08
	BYTE		N15     En1 
	BYTE	W16
	BYTE		N15   
	BYTE	W16
	BYTE		N07   
	BYTE	W08
	BYTE		        En2 
	BYTE	W08
	BYTE		N15     En1 
	BYTE	W16
// 058   ----------------------------------------
	BYTE	PATT
	 POIN2	WreyvianPride_5_052
// 059   ----------------------------------------
	BYTE		TIE     En1   v127
	BYTE	W96
// 060   ----------------------------------------
	BYTE	W42
	BYTE		EOT   
	BYTE	W52
	BYTE	W01
	BYTE	GoTo
	 POIN2	WreyvianPride_5_B1
WreyvianPride_5_B2:
	BYTE	FINE

//**************** Track 6 (Midi-Chn.7) ****************//

WreyvianPride_6:
	BYTE	KEYSH   WreyvianPride_key+0
// 000   ----------------------------------------
	BYTE		VOICE   18
	BYTE		MODT    0
	BYTE		LFOS    44
	BYTE		PAN     c_v+12
	BYTE		VOL     105*WreyvianPride_mvl/mxv
	BYTE	W96
// 001   ----------------------------------------
	BYTE	W96
// 002   ----------------------------------------
	BYTE	W96
// 003   ----------------------------------------
	BYTE	W96
// 004   ----------------------------------------
	BYTE	W96
// 005   ----------------------------------------
	BYTE	W96
// 006   ----------------------------------------
	BYTE	W96
// 007   ----------------------------------------
	BYTE	W72
	BYTE		N01     Fs2   v127
	BYTE	W01
	BYTE		        Gn2 
	BYTE	W02
	BYTE		        An2 
	BYTE	W01
	BYTE		        Bn2 
	BYTE	W02
	BYTE		        Cn3 
	BYTE	W01
	BYTE		        Dn3 
	BYTE	W02
	BYTE		        En3 
	BYTE	W01
	BYTE		        Fs3 
	BYTE	W02
	BYTE		        Gn3 
	BYTE	W01
	BYTE		        An3 
	BYTE	W02
	BYTE		        Bn3 
	BYTE	W01
	BYTE		        Cn4 
	BYTE	W02
	BYTE		        Dn4 
	BYTE	W01
	BYTE		        En4 
	BYTE	W02
	BYTE		        Fs4 
	BYTE	W01
	BYTE		        Gn4 
	BYTE	W02
// 008   ----------------------------------------
	BYTE		TIE     Bn3 
	BYTE		TIE     En4 
	BYTE		TIE     An4 
	BYTE	W96
// 009   ----------------------------------------
	BYTE	W96
	BYTE		EOT     Bn3 
	BYTE		        En4 
	BYTE		        An4 
// 010   ----------------------------------------
	BYTE		TIE     Bn3 
	BYTE		TIE     En4 
	BYTE		TIE     Gs4 
	BYTE	W96
// 011   ----------------------------------------
	BYTE	W96
	BYTE		EOT     Bn3 
	BYTE		        En4 
	BYTE		        Gs4 
WreyvianPride_6_B1:
// 012   ----------------------------------------
WreyvianPride_6_012:
	BYTE	W24
	BYTE		N06     Bn3   v127
	BYTE		N06     En4 
	BYTE		N06     Gn4 
	BYTE	W48
	BYTE		N05     Bn3 
	BYTE		N05     En4 
	BYTE		N05     Gn4 
	BYTE	W16
	BYTE		        Bn3 
	BYTE		N05     En4 
	BYTE		N05     An4 
	BYTE	W08
	BYTE	PEND
// 013   ----------------------------------------
WreyvianPride_6_013:
	BYTE	W24
	BYTE		N06     En4   v127
	BYTE		N06     Gn4 
	BYTE		N06     Bn4 
	BYTE	W48
	BYTE		N05     En4 
	BYTE		N05     Gn4 
	BYTE		N05     Bn4 
	BYTE	W16
	BYTE		        En4 
	BYTE		N05     Gn4 
	BYTE		N05     An4 
	BYTE	W08
	BYTE	PEND
// 014   ----------------------------------------
WreyvianPride_6_014:
	BYTE	W24
	BYTE		N06     Bn3   v127
	BYTE		N06     En4 
	BYTE		N06     Gn4 
	BYTE	W48
	BYTE		N05     Bn3 
	BYTE		N05     En4 
	BYTE		N05     Gn4 
	BYTE	W16
	BYTE		N07     Bn3 
	BYTE		N07     En4 
	BYTE		N07     An4 
	BYTE	W08
	BYTE	PEND
// 015   ----------------------------------------
WreyvianPride_6_015:
	BYTE		N90     Cn4   v127
	BYTE		N90     Fn4 
	BYTE		N42     Bn4 
	BYTE	W48
	BYTE		        An4 
	BYTE	W48
	BYTE	PEND
// 016   ----------------------------------------
	BYTE	PATT
	 POIN2	WreyvianPride_6_012
// 017   ----------------------------------------
	BYTE	PATT
	 POIN2	WreyvianPride_6_013
// 018   ----------------------------------------
	BYTE	PATT
	 POIN2	WreyvianPride_6_014
// 019   ----------------------------------------
	BYTE	PATT
	 POIN2	WreyvianPride_6_015
// 020   ----------------------------------------
	BYTE	PATT
	 POIN2	WreyvianPride_6_012
// 021   ----------------------------------------
	BYTE	PATT
	 POIN2	WreyvianPride_6_013
// 022   ----------------------------------------
	BYTE	PATT
	 POIN2	WreyvianPride_6_014
// 023   ----------------------------------------
	BYTE	PATT
	 POIN2	WreyvianPride_6_015
// 024   ----------------------------------------
	BYTE	PATT
	 POIN2	WreyvianPride_6_012
// 025   ----------------------------------------
	BYTE	PATT
	 POIN2	WreyvianPride_6_013
// 026   ----------------------------------------
	BYTE	PATT
	 POIN2	WreyvianPride_6_014
// 027   ----------------------------------------
	BYTE	PATT
	 POIN2	WreyvianPride_6_015
// 028   ----------------------------------------
WreyvianPride_6_028:
	BYTE		TIE     Cn4   v127
	BYTE		N90     En4 
	BYTE		TIE     An4 
	BYTE	W96
	BYTE	PEND
// 029   ----------------------------------------
	BYTE		N90     Fn4 
	BYTE	W90
	BYTE		EOT     Cn4 
	BYTE	W06
// 030   ----------------------------------------
	BYTE		N90     Dn4 
	BYTE		N90     Fs4 
	BYTE	W90
	BYTE		EOT     An4 
	BYTE	W06
// 031   ----------------------------------------
WreyvianPride_6_031:
	BYTE		N90     En4   v127
	BYTE		N90     Gn4 
	BYTE		N90     Bn4 
	BYTE	W96
	BYTE	PEND
// 032   ----------------------------------------
	BYTE	PATT
	 POIN2	WreyvianPride_6_028
// 033   ----------------------------------------
	BYTE		N90     Fn4   v127
	BYTE	W90
	BYTE		EOT     Cn4 
	BYTE	W06
// 034   ----------------------------------------
	BYTE		N90     Dn4 
	BYTE		N90     Fs4 
	BYTE	W90
	BYTE		EOT     An4 
	BYTE	W06
// 035   ----------------------------------------
	BYTE	PATT
	 POIN2	WreyvianPride_6_031
// 036   ----------------------------------------
WreyvianPride_6_036:
	BYTE		N72     Fs4   v127
	BYTE		N72     An4 
	BYTE		N72     Dn5 
	BYTE	W72
	BYTE	PEND
// 037   ----------------------------------------
WreyvianPride_6_037:
	BYTE		N72     En4   v127
	BYTE		N72     An4 
	BYTE		N72     Cs5 
	BYTE	W72
	BYTE	PEND
// 038   ----------------------------------------
WreyvianPride_6_038:
	BYTE		N72     Dn4   v127
	BYTE		N72     An4 
	BYTE		N72     Cn5 
	BYTE	W72
	BYTE	PEND
// 039   ----------------------------------------
	BYTE		        Dn4 
	BYTE		N72     Gn4 
	BYTE		N72     Bn4 
	BYTE	W72
// 040   ----------------------------------------
	BYTE	PATT
	 POIN2	WreyvianPride_6_036
// 041   ----------------------------------------
	BYTE	PATT
	 POIN2	WreyvianPride_6_037
// 042   ----------------------------------------
	BYTE	PATT
	 POIN2	WreyvianPride_6_038
// 043   ----------------------------------------
	BYTE		N66     Dn4   v127
	BYTE		N66     Gn4 
	BYTE		N66     Bn4 
	BYTE	W72
// 044   ----------------------------------------
WreyvianPride_6_044:
	BYTE		N72     En4   v127
	BYTE		N72     Gn4 
	BYTE		N72     Bn4 
	BYTE	W72
	BYTE	PEND
// 045   ----------------------------------------
WreyvianPride_6_045:
	BYTE		N72     Cn4   v127
	BYTE		N72     Fn4 
	BYTE		N72     An4 
	BYTE	W72
	BYTE	PEND
// 046   ----------------------------------------
WreyvianPride_6_046:
	BYTE		N72     Cn4   v127
	BYTE		N72     En4 
	BYTE		N72     Gn4 
	BYTE	W72
	BYTE	PEND
// 047   ----------------------------------------
	BYTE		N66     Dn4 
	BYTE		N66     Fs4 
	BYTE		N24     An4 
	BYTE	W24
	BYTE		        Bn4 
	BYTE	W24
	BYTE		        Cn5 
	BYTE	W24
// 048   ----------------------------------------
	BYTE	PATT
	 POIN2	WreyvianPride_6_044
// 049   ----------------------------------------
	BYTE	PATT
	 POIN2	WreyvianPride_6_045
// 050   ----------------------------------------
	BYTE	PATT
	 POIN2	WreyvianPride_6_046
// 051   ----------------------------------------
	BYTE		N72     Cs4   v127
	BYTE		N72     En4 
	BYTE		N72     An4 
	BYTE	W72
// 052   ----------------------------------------
	BYTE	W24
	BYTE		N15     Dn4 
	BYTE		N15     Fn4 
	BYTE		N15     An4 
	BYTE		N15     Dn5 
	BYTE	W48
	BYTE		N11     Dn4 
	BYTE		N11     Fn4 
	BYTE		N11     An4 
	BYTE		N11     Dn5 
	BYTE	W16
	BYTE		N05     Dn4 
	BYTE		N05     Fn4 
	BYTE		N05     An4 
	BYTE		N05     Dn5 
	BYTE	W08
// 053   ----------------------------------------
WreyvianPride_6_053:
	BYTE	W24
	BYTE		N15     En4   v127
	BYTE		N15     Gn4 
	BYTE		N15     Bn4 
	BYTE		N15     Dn5 
	BYTE	W48
	BYTE		N11     En4 
	BYTE		N11     Gn4 
	BYTE		N11     Bn4 
	BYTE		N11     Dn5 
	BYTE	W16
	BYTE		N05     En4 
	BYTE		N05     Gn4 
	BYTE		N05     Bn4 
	BYTE		N05     Dn5 
	BYTE	W08
	BYTE	PEND
// 054   ----------------------------------------
	BYTE	W24
	BYTE		N15     Fn4 
	BYTE		N15     An4 
	BYTE		N15     Cn5 
	BYTE		N15     Dn5 
	BYTE	W48
	BYTE		N11     Fn4 
	BYTE		N11     An4 
	BYTE		N11     Cn5 
	BYTE		N11     Dn5 
	BYTE	W16
	BYTE		N05     Fn4 
	BYTE		N05     An4 
	BYTE		N05     Cn5 
	BYTE		N05     Dn5 
	BYTE	W08
// 055   ----------------------------------------
	BYTE	PATT
	 POIN2	WreyvianPride_6_053
// 056   ----------------------------------------
	BYTE	W24
	BYTE		N15     Dn4   v127
	BYTE		N15     Fs4 
	BYTE		N15     An4 
	BYTE		N15     Dn5 
	BYTE	W48
	BYTE		N11     Dn4 
	BYTE		N11     Fs4 
	BYTE		N11     An4 
	BYTE		N11     Dn5 
	BYTE	W16
	BYTE		N05     Dn4 
	BYTE		N05     Fs4 
	BYTE		N05     An4 
	BYTE		N05     Dn5 
	BYTE	W08
// 057   ----------------------------------------
	BYTE	PATT
	 POIN2	WreyvianPride_6_053
// 058   ----------------------------------------
	BYTE	W24
	BYTE		N15     Fs4   v127
	BYTE		N15     An4 
	BYTE		N15     Cn5 
	BYTE		N15     Dn5 
	BYTE	W48
	BYTE		N11     Fs4 
	BYTE		N11     An4 
	BYTE		N11     Cn5 
	BYTE		N11     Dn5 
	BYTE	W16
	BYTE		N05     Fs4 
	BYTE		N05     An4 
	BYTE		N05     Cn5 
	BYTE		N05     Dn5 
	BYTE	W08
// 059   ----------------------------------------
	BYTE		TIE     En4 
	BYTE		TIE     Gn4 
	BYTE		TIE     Bn4 
	BYTE		TIE     En5 
	BYTE	W96
// 060   ----------------------------------------
	BYTE	W42
	BYTE		EOT     En4 
	BYTE		        Gn4 
	BYTE		        Bn4 
	BYTE		        En5 
	BYTE	W52
	BYTE	W01
	BYTE	GoTo
	 POIN2	WreyvianPride_6_B1
WreyvianPride_6_B2:
	BYTE	FINE

//**************** Track 7 (Midi-Chn.8) ****************//

WreyvianPride_7:
	BYTE	KEYSH   WreyvianPride_key+0
// 000   ----------------------------------------
	BYTE		VOICE   60
	BYTE		MODT    0
	BYTE		LFOS    44
	BYTE		PAN     c_v-10
	BYTE		VOL     127*WreyvianPride_mvl/mxv
	BYTE	W96
// 001   ----------------------------------------
	BYTE	W96
// 002   ----------------------------------------
	BYTE	W96
// 003   ----------------------------------------
	BYTE	W96
// 004   ----------------------------------------
	BYTE	W96
// 005   ----------------------------------------
	BYTE	W96
// 006   ----------------------------------------
	BYTE	W96
// 007   ----------------------------------------
	BYTE	W96
// 008   ----------------------------------------
	BYTE	W96
// 009   ----------------------------------------
	BYTE	W96
// 010   ----------------------------------------
	BYTE	W96
// 011   ----------------------------------------
	BYTE	W96
WreyvianPride_7_B1:
// 012   ----------------------------------------
	BYTE	W96
// 013   ----------------------------------------
	BYTE	W96
// 014   ----------------------------------------
	BYTE	W96
// 015   ----------------------------------------
	BYTE	W96
// 016   ----------------------------------------
	BYTE	W96
// 017   ----------------------------------------
	BYTE	W96
// 018   ----------------------------------------
	BYTE	W96
// 019   ----------------------------------------
	BYTE	W96
// 020   ----------------------------------------
	BYTE		N32     En4   v127
	BYTE	W36
	BYTE		N05     Fs4 
	BYTE	W06
	BYTE		        Gn4 
	BYTE	W06
	BYTE		N32     Dn4 
	BYTE	W36
	BYTE		N05   
	BYTE	W06
	BYTE		        Cn4 
	BYTE	W06
// 021   ----------------------------------------
	BYTE		N15     Bn3 
	BYTE	W16
	BYTE		        An3 
	BYTE	W16
	BYTE		        Gn3 
	BYTE	W16
	BYTE		N42     Bn3 
	BYTE	W48
// 022   ----------------------------------------
	BYTE		N15     En4 
	BYTE	W16
	BYTE		        Dn4 
	BYTE	W16
	BYTE		        En4 
	BYTE	W16
	BYTE		        Gn4 
	BYTE	W16
	BYTE		        An4 
	BYTE	W16
	BYTE		        Bn4 
	BYTE	W16
// 023   ----------------------------------------
	BYTE		        Cn5 
	BYTE	W16
	BYTE		        Bn4 
	BYTE	W16
	BYTE		        Cn5 
	BYTE	W16
	BYTE		N42     An4 
	BYTE	W48
// 024   ----------------------------------------
	BYTE		N32     Gn4 
	BYTE	W36
	BYTE		N05     Fs4 
	BYTE	W06
	BYTE		        Gn4 
	BYTE	W06
	BYTE		N32     En4 
	BYTE	W36
	BYTE		N05     Fs4 
	BYTE	W06
	BYTE		        Gn4 
	BYTE	W06
// 025   ----------------------------------------
	BYTE		N15     Bn4 
	BYTE	W16
	BYTE		        An4 
	BYTE	W16
	BYTE		        Gn4 
	BYTE	W16
	BYTE		        En4 
	BYTE	W16
	BYTE		        Dn4 
	BYTE	W16
	BYTE		        En4 
	BYTE	W16
// 026   ----------------------------------------
	BYTE		N07     Bn3 
	BYTE	W08
	BYTE		        Gn3 
	BYTE	W08
	BYTE		        Bn3 
	BYTE	W08
	BYTE		        En4 
	BYTE	W08
	BYTE		        Bn3 
	BYTE	W08
	BYTE		        En4 
	BYTE	W08
	BYTE		        Gn4 
	BYTE	W08
	BYTE		        En4 
	BYTE	W08
	BYTE		        Gn4 
	BYTE	W08
	BYTE		        Bn4 
	BYTE	W08
	BYTE		        Gn4 
	BYTE	W08
	BYTE		        Bn4 
	BYTE	W08
// 027   ----------------------------------------
	BYTE		N90     Cn5 
	BYTE	W96
// 028   ----------------------------------------
	BYTE		N15     Cn4 
	BYTE	W16
	BYTE		        An3 
	BYTE	W16
	BYTE		        Cn4 
	BYTE	W16
	BYTE		        En4 
	BYTE	W16
	BYTE		        Dn4 
	BYTE	W16
	BYTE		        Cn4 
	BYTE	W16
// 029   ----------------------------------------
	BYTE		        Fn4 
	BYTE	W16
	BYTE		        Cn4 
	BYTE	W16
	BYTE		        Fn4 
	BYTE	W16
	BYTE		        An4 
	BYTE	W16
	BYTE		        Gn4 
	BYTE	W16
	BYTE		        Fn4 
	BYTE	W16
// 030   ----------------------------------------
	BYTE		N07     Dn4 
	BYTE	W08
	BYTE		        An3 
	BYTE	W08
	BYTE		        Dn4 
	BYTE	W08
	BYTE		        Fs4 
	BYTE	W08
	BYTE		        Dn4 
	BYTE	W08
	BYTE		        Fs4 
	BYTE	W08
	BYTE		N15     An4 
	BYTE	W16
	BYTE		        Gn4 
	BYTE	W16
	BYTE		        Fs4 
	BYTE	W16
// 031   ----------------------------------------
	BYTE		        Gn4 
	BYTE	W16
	BYTE		        En4 
	BYTE	W16
	BYTE		        Gn4 
	BYTE	W16
	BYTE		N20     Dn4 
	BYTE	W24
	BYTE		        Bn3 
	BYTE	W24
// 032   ----------------------------------------
	BYTE		N15     An3 
	BYTE	W16
	BYTE		        Gn3 
	BYTE	W16
	BYTE		        An3 
	BYTE	W16
	BYTE		        En3 
	BYTE	W16
	BYTE		        Dn3 
	BYTE	W16
	BYTE		        En3 
	BYTE	W16
// 033   ----------------------------------------
	BYTE		        Fn3 
	BYTE	W16
	BYTE		        An3 
	BYTE	W16
	BYTE		        Gn3 
	BYTE	W16
	BYTE		        Fn3 
	BYTE	W16
	BYTE		        Cn3 
	BYTE	W16
	BYTE		        Fn3 
	BYTE	W16
// 034   ----------------------------------------
	BYTE		N07     Fs3 
	BYTE	W08
	BYTE		        Dn3 
	BYTE	W08
	BYTE		        Fs3 
	BYTE	W08
	BYTE		        An3 
	BYTE	W08
	BYTE		        Fs3 
	BYTE	W08
	BYTE		        An3 
	BYTE	W08
	BYTE		        Dn4 
	BYTE	W08
	BYTE		        Cn4 
	BYTE	W08
	BYTE		        Bn3 
	BYTE	W08
	BYTE		        An3 
	BYTE	W08
	BYTE		        Gn3 
	BYTE	W08
	BYTE		        Fs3 
	BYTE	W08
// 035   ----------------------------------------
	BYTE		N20     Gn3 
	BYTE	W24
	BYTE		        An3 
	BYTE	W24
	BYTE		N42     Bn3 
	BYTE	W48
// 036   ----------------------------------------
	BYTE		N20     An3 
	BYTE	W24
	BYTE		        Fs3 
	BYTE	W24
	BYTE		        An3 
	BYTE	W24
// 037   ----------------------------------------
	BYTE		        Dn4 
	BYTE	W24
	BYTE		N11     En4 
	BYTE	W12
	BYTE		        Dn4 
	BYTE	W12
	BYTE		        Cs4 
	BYTE	W12
	BYTE		        Bn3 
	BYTE	W12
// 038   ----------------------------------------
	BYTE		N20     An3 
	BYTE	W24
	BYTE		        Bn3 
	BYTE	W24
	BYTE		        Cn4 
	BYTE	W24
// 039   ----------------------------------------
	BYTE		N11     Dn4 
	BYTE	W12
	BYTE		        Cn4 
	BYTE	W12
	BYTE		        Bn3 
	BYTE	W12
	BYTE		        An3 
	BYTE	W12
	BYTE		        Gn3 
	BYTE	W12
	BYTE		        Fs3 
	BYTE	W12
// 040   ----------------------------------------
	BYTE		N20     Dn3 
	BYTE	W24
	BYTE		        An3 
	BYTE	W24
	BYTE		        Bn3 
	BYTE	W24
// 041   ----------------------------------------
	BYTE		        An3 
	BYTE	W24
	BYTE		        En3 
	BYTE	W24
	BYTE		        Cs4 
	BYTE	W24
// 042   ----------------------------------------
	BYTE		        Cn4 
	BYTE	W24
	BYTE		        An3 
	BYTE	W24
	BYTE		        Cn4 
	BYTE	W24
// 043   ----------------------------------------
	BYTE		N11     Dn4 
	BYTE	W12
	BYTE		        Bn3 
	BYTE	W12
	BYTE		        Dn4 
	BYTE	W12
	BYTE		        Fs4 
	BYTE	W12
	BYTE		        Gn4 
	BYTE	W12
	BYTE		        Dn4 
	BYTE	W12
// 044   ----------------------------------------
	BYTE		N20     En4 
	BYTE	W24
	BYTE		        Bn3 
	BYTE	W24
	BYTE		        En4 
	BYTE	W24
// 045   ----------------------------------------
	BYTE		        Fn4 
	BYTE	W24
	BYTE		N11     En4 
	BYTE	W12
	BYTE		        Dn4 
	BYTE	W12
	BYTE		N20     Cn4 
	BYTE	W24
// 046   ----------------------------------------
	BYTE		N11     Gn3 
	BYTE	W12
	BYTE		        En3 
	BYTE	W12
	BYTE		        Gn3 
	BYTE	W12
	BYTE		        Bn3 
	BYTE	W12
	BYTE		        Cn4 
	BYTE	W12
	BYTE		        En4 
	BYTE	W12
// 047   ----------------------------------------
	BYTE		        Fs4 
	BYTE	W12
	BYTE		        En4 
	BYTE	W12
	BYTE		        Dn4 
	BYTE	W12
	BYTE		        En4 
	BYTE	W12
	BYTE		        Dn4 
	BYTE	W12
	BYTE		        An3 
	BYTE	W12
// 048   ----------------------------------------
	BYTE		N20     Bn3 
	BYTE	W24
	BYTE		        Cn4 
	BYTE	W24
	BYTE		        Dn4 
	BYTE	W24
// 049   ----------------------------------------
	BYTE		N11     Cn4 
	BYTE	W12
	BYTE		        Bn3 
	BYTE	W12
	BYTE		        An3 
	BYTE	W12
	BYTE		        Gn3 
	BYTE	W12
	BYTE		N20     Fn3 
	BYTE	W24
// 050   ----------------------------------------
	BYTE		N11     Gn3 
	BYTE	W12
	BYTE		        En3 
	BYTE	W12
	BYTE		        Cn4 
	BYTE	W12
	BYTE		        An3 
	BYTE	W12
	BYTE		        En4 
	BYTE	W12
	BYTE		        Cn4 
	BYTE	W12
// 051   ----------------------------------------
	BYTE		        An3 
	BYTE	W12
	BYTE		        Bn3 
	BYTE	W12
	BYTE		        Cs4 
	BYTE	W12
	BYTE		        Dn4 
	BYTE	W12
	BYTE		N20     En4 
	BYTE	W24
// 052   ----------------------------------------
	BYTE		N90     Dn4 
	BYTE	W96
// 053   ----------------------------------------
	BYTE	W96
// 054   ----------------------------------------
	BYTE	W96
// 055   ----------------------------------------
	BYTE	W96
// 056   ----------------------------------------
	BYTE	W96
// 057   ----------------------------------------
	BYTE	W96
// 058   ----------------------------------------
	BYTE	W96
// 059   ----------------------------------------
	BYTE	W96
// 060   ----------------------------------------
	BYTE	W92
	BYTE	W03
	BYTE	GoTo
	 POIN2	WreyvianPride_7_B1
WreyvianPride_7_B2:
	BYTE	FINE

//**************** Track 8 (Midi-Chn.9) ****************//

WreyvianPride_8:
	BYTE	KEYSH   WreyvianPride_key+0
// 000   ----------------------------------------
	BYTE		VOICE   127
	BYTE		MODT    0
	BYTE		LFOS    44
	BYTE		VOL     127*WreyvianPride_mvl/mxv
	BYTE		PAN     c_v+0
	BYTE		N90     An1   v127
	BYTE		N90     Bn1 
	BYTE		N90     Cn2 
	BYTE		N90     Dn2 
	BYTE		N90     An2 
	BYTE	W96
// 001   ----------------------------------------
WreyvianPride_8_001:
	BYTE	W48
	BYTE		N15     En1   v127
	BYTE	W16
	BYTE		N15   
	BYTE	W16
	BYTE		N15   
	BYTE	W16
	BYTE	PEND
// 002   ----------------------------------------
WreyvianPride_8_002:
	BYTE		N90     An1   v127
	BYTE		N90     Bn1 
	BYTE		N90     Cn2 
	BYTE		N90     Dn2 
	BYTE		N90     An2 
	BYTE	W96
	BYTE	PEND
// 003   ----------------------------------------
	BYTE		N42     An1 
	BYTE		N42     Bn1 
	BYTE		N42     Cn2 
	BYTE		N42     Dn2 
	BYTE		N42     An2 
	BYTE	W48
	BYTE		        An1 
	BYTE		N42     Bn1 
	BYTE		N42     Cn2 
	BYTE		N42     Dn2 
	BYTE		N42     An2 
	BYTE	W48
// 004   ----------------------------------------
	BYTE	PATT
	 POIN2	WreyvianPride_8_002
// 005   ----------------------------------------
	BYTE	PATT
	 POIN2	WreyvianPride_8_001
// 006   ----------------------------------------
	BYTE	PATT
	 POIN2	WreyvianPride_8_002
// 007   ----------------------------------------
	BYTE		N42     An1   v127
	BYTE		N42     Bn1 
	BYTE		N42     Cn2 
	BYTE		N42     Dn2 
	BYTE		N42     An2 
	BYTE	W48
	BYTE		N20     An1 
	BYTE		N20     Bn1 
	BYTE		N20     Cn2 
	BYTE		N20     Dn2 
	BYTE		N20     An2 
	BYTE	W24
	BYTE		        An1 
	BYTE		N20     Bn1 
	BYTE		N20     Cn2 
	BYTE		N20     Dn2 
	BYTE		N20     An2 
	BYTE	W24
// 008   ----------------------------------------
WreyvianPride_8_008:
	BYTE		N20     Cn1   v127
	BYTE		N20     An1 
	BYTE		N20     Bn1 
	BYTE		N20     Cn2 
	BYTE		N20     Dn2 
	BYTE		N20     An2 
	BYTE	W24
	BYTE		        Cn1 
	BYTE	W24
	BYTE		N20   
	BYTE	W24
	BYTE		N20   
	BYTE	W24
	BYTE	PEND
// 009   ----------------------------------------
	BYTE		N20   
	BYTE	W24
	BYTE		N20   
	BYTE	W24
	BYTE		N20   
	BYTE	W24
	BYTE		N07   
	BYTE		N07     En1 
	BYTE	W08
	BYTE		N07   
	BYTE	W08
	BYTE		N07   
	BYTE	W08
// 010   ----------------------------------------
	BYTE	PATT
	 POIN2	WreyvianPride_8_008
// 011   ----------------------------------------
	BYTE		N20     Cn1   v127
	BYTE	W24
	BYTE		N20   
	BYTE	W24
	BYTE		N07   
	BYTE		N07     Dn2 
	BYTE	W08
	BYTE		N07   
	BYTE	W08
	BYTE		        Cn2 
	BYTE	W08
	BYTE		        Cn1 
	BYTE		N07     En1 
	BYTE		N07     Bn1 
	BYTE	W08
	BYTE		        En1 
	BYTE		N07     Bn1 
	BYTE	W08
	BYTE		        En1 
	BYTE		N07     An1 
	BYTE	W08
WreyvianPride_8_B1:
// 012   ----------------------------------------
WreyvianPride_8_012:
	BYTE		N15     Cn1   v127
	BYTE		N15     An2 
	BYTE	W16
	BYTE		N07     Cn1 
	BYTE	W08
	BYTE		        En1 
	BYTE	W08
	BYTE		N15     Cn1 
	BYTE	W16
	BYTE		N15   
	BYTE	W16
	BYTE		N07   
	BYTE	W08
	BYTE		        En1 
	BYTE	W08
	BYTE		N15     Cn1 
	BYTE	W16
	BYTE	PEND
// 013   ----------------------------------------
WreyvianPride_8_013:
	BYTE		N15     Cn1   v127
	BYTE	W16
	BYTE		N07   
	BYTE	W08
	BYTE		        En1 
	BYTE	W08
	BYTE		N15     Cn1 
	BYTE	W16
	BYTE		N15   
	BYTE	W16
	BYTE		N07   
	BYTE	W08
	BYTE		        En1 
	BYTE	W08
	BYTE		        Cn1 
	BYTE	W08
	BYTE		        En1 
	BYTE	W08
	BYTE	PEND
// 014   ----------------------------------------
WreyvianPride_8_014:
	BYTE		N15     Cn1   v127
	BYTE	W16
	BYTE		N07   
	BYTE	W08
	BYTE		        En1 
	BYTE	W08
	BYTE		N15     Cn1 
	BYTE	W16
	BYTE		N15   
	BYTE	W16
	BYTE		N07   
	BYTE	W08
	BYTE		        En1 
	BYTE	W08
	BYTE		N15     Cn1 
	BYTE	W16
	BYTE	PEND
// 015   ----------------------------------------
WreyvianPride_8_015:
	BYTE		N15     Cn1   v127
	BYTE	W16
	BYTE		N07   
	BYTE	W08
	BYTE		        En1 
	BYTE	W08
	BYTE		N15     Cn1 
	BYTE	W16
	BYTE		N07   
	BYTE		N07     Dn2 
	BYTE	W08
	BYTE		N07   
	BYTE	W08
	BYTE		        Cn1 
	BYTE		N07     Cn2 
	BYTE	W08
	BYTE		        Cn1 
	BYTE		N07     En1 
	BYTE		N07     Bn1 
	BYTE	W08
	BYTE		        Cn1 
	BYTE		N07     En1 
	BYTE		N07     Bn1 
	BYTE	W08
	BYTE		        Cn1 
	BYTE		N07     En1 
	BYTE		N07     An1 
	BYTE	W08
	BYTE	PEND
// 016   ----------------------------------------
	BYTE	PATT
	 POIN2	WreyvianPride_8_012
// 017   ----------------------------------------
	BYTE	PATT
	 POIN2	WreyvianPride_8_013
// 018   ----------------------------------------
	BYTE	PATT
	 POIN2	WreyvianPride_8_014
// 019   ----------------------------------------
	BYTE	PATT
	 POIN2	WreyvianPride_8_015
// 020   ----------------------------------------
	BYTE	PATT
	 POIN2	WreyvianPride_8_012
// 021   ----------------------------------------
	BYTE	PATT
	 POIN2	WreyvianPride_8_013
// 022   ----------------------------------------
	BYTE	PATT
	 POIN2	WreyvianPride_8_014
// 023   ----------------------------------------
	BYTE	PATT
	 POIN2	WreyvianPride_8_015
// 024   ----------------------------------------
	BYTE	PATT
	 POIN2	WreyvianPride_8_012
// 025   ----------------------------------------
	BYTE	PATT
	 POIN2	WreyvianPride_8_013
// 026   ----------------------------------------
	BYTE	PATT
	 POIN2	WreyvianPride_8_014
// 027   ----------------------------------------
	BYTE	PATT
	 POIN2	WreyvianPride_8_015
// 028   ----------------------------------------
	BYTE	PATT
	 POIN2	WreyvianPride_8_012
// 029   ----------------------------------------
	BYTE	PATT
	 POIN2	WreyvianPride_8_013
// 030   ----------------------------------------
	BYTE	PATT
	 POIN2	WreyvianPride_8_014
// 031   ----------------------------------------
	BYTE	PATT
	 POIN2	WreyvianPride_8_015
// 032   ----------------------------------------
	BYTE	PATT
	 POIN2	WreyvianPride_8_012
// 033   ----------------------------------------
	BYTE	PATT
	 POIN2	WreyvianPride_8_013
// 034   ----------------------------------------
	BYTE	PATT
	 POIN2	WreyvianPride_8_014
// 035   ----------------------------------------
	BYTE	PATT
	 POIN2	WreyvianPride_8_015
// 036   ----------------------------------------
WreyvianPride_8_036:
	BYTE		N20     Cn1   v127
	BYTE		N20     An2 
	BYTE	W24
	BYTE		        Cn1 
	BYTE	W24
	BYTE		N15     En1 
	BYTE	W16
	BYTE		N07     Cn1 
	BYTE	W08
	BYTE	PEND
// 037   ----------------------------------------
WreyvianPride_8_037:
	BYTE		N20     Cn1   v127
	BYTE	W24
	BYTE		N20   
	BYTE	W24
	BYTE		N07     En1 
	BYTE		N07     Dn2 
	BYTE	W08
	BYTE		        En1 
	BYTE		N07     Cn2 
	BYTE	W08
	BYTE		        En1 
	BYTE		N07     Bn1 
	BYTE	W08
	BYTE	PEND
// 038   ----------------------------------------
WreyvianPride_8_038:
	BYTE		N20     Cn1   v127
	BYTE		N20     An1 
	BYTE	W24
	BYTE		        Cn1 
	BYTE	W24
	BYTE		N15     En1 
	BYTE	W16
	BYTE		N07     Cn1 
	BYTE	W08
	BYTE	PEND
// 039   ----------------------------------------
WreyvianPride_8_039:
	BYTE		N07     En1   v127
	BYTE		N07     Dn2 
	BYTE	W08
	BYTE		N07   
	BYTE	W08
	BYTE		N07   
	BYTE	W08
	BYTE		        En1 
	BYTE		N07     Cn2 
	BYTE	W08
	BYTE		N07   
	BYTE	W08
	BYTE		N07   
	BYTE	W08
	BYTE		        En1 
	BYTE		N07     Bn1 
	BYTE	W08
	BYTE		        En1 
	BYTE		N07     Bn1 
	BYTE	W08
	BYTE		        En1 
	BYTE		N07     Bn1 
	BYTE	W08
	BYTE	PEND
// 040   ----------------------------------------
WreyvianPride_8_040:
	BYTE		N20     Cn1   v127
	BYTE		N20     An1 
	BYTE		N20     An2 
	BYTE	W24
	BYTE		        Cn1 
	BYTE	W24
	BYTE		N15     En1 
	BYTE	W16
	BYTE		N07     Cn1 
	BYTE	W08
	BYTE	PEND
// 041   ----------------------------------------
	BYTE	PATT
	 POIN2	WreyvianPride_8_037
// 042   ----------------------------------------
	BYTE	PATT
	 POIN2	WreyvianPride_8_038
// 043   ----------------------------------------
	BYTE	PATT
	 POIN2	WreyvianPride_8_039
// 044   ----------------------------------------
	BYTE	PATT
	 POIN2	WreyvianPride_8_036
// 045   ----------------------------------------
	BYTE	PATT
	 POIN2	WreyvianPride_8_037
// 046   ----------------------------------------
	BYTE	PATT
	 POIN2	WreyvianPride_8_038
// 047   ----------------------------------------
	BYTE	PATT
	 POIN2	WreyvianPride_8_039
// 048   ----------------------------------------
	BYTE	PATT
	 POIN2	WreyvianPride_8_040
// 049   ----------------------------------------
	BYTE	PATT
	 POIN2	WreyvianPride_8_037
// 050   ----------------------------------------
	BYTE	PATT
	 POIN2	WreyvianPride_8_038
// 051   ----------------------------------------
	BYTE	PATT
	 POIN2	WreyvianPride_8_039
// 052   ----------------------------------------
	BYTE	PATT
	 POIN2	WreyvianPride_8_012
// 053   ----------------------------------------
	BYTE	PATT
	 POIN2	WreyvianPride_8_013
// 054   ----------------------------------------
	BYTE	PATT
	 POIN2	WreyvianPride_8_014
// 055   ----------------------------------------
	BYTE	PATT
	 POIN2	WreyvianPride_8_015
// 056   ----------------------------------------
	BYTE	PATT
	 POIN2	WreyvianPride_8_012
// 057   ----------------------------------------
	BYTE	PATT
	 POIN2	WreyvianPride_8_013
// 058   ----------------------------------------
	BYTE	PATT
	 POIN2	WreyvianPride_8_014
// 059   ----------------------------------------
	BYTE	PATT
	 POIN2	WreyvianPride_8_014
// 060   ----------------------------------------
	BYTE		N07     Cn1   v127
	BYTE		N07     Dn2 
	BYTE		N07     An2 
	BYTE	W08
	BYTE		        Dn2 
	BYTE	W08
	BYTE		N07   
	BYTE	W08
	BYTE		        Cn1 
	BYTE		N07     Cn2 
	BYTE	W08
	BYTE		N07   
	BYTE	W08
	BYTE		N07   
	BYTE	W08
	BYTE		        Cn1 
	BYTE		N07     En1 
	BYTE		N07     Bn1 
	BYTE		N07     An2 
	BYTE	W08
	BYTE		        Bn1 
	BYTE	W08
	BYTE		        En1 
	BYTE		N07     Bn1 
	BYTE	W08
	BYTE		        Cn1 
	BYTE		N07     An1 
	BYTE	W08
	BYTE		        En1 
	BYTE		N07     An1 
	BYTE	W08
	BYTE		N07   
	BYTE	W07
	BYTE	GoTo
	 POIN2	WreyvianPride_8_B1
WreyvianPride_8_B2:
	BYTE	FINE

//**************** Track 9 (Midi-Chn.11) ****************//

WreyvianPride_9:
	BYTE	KEYSH   WreyvianPride_key+0
// 000   ----------------------------------------
	BYTE		VOICE   47
	BYTE		MODT    0
	BYTE		LFOS    44
	BYTE		PAN     c_v+40
	BYTE		VOL     103*WreyvianPride_mvl/mxv
	BYTE	W96
// 001   ----------------------------------------
	BYTE	W96
// 002   ----------------------------------------
	BYTE	W96
// 003   ----------------------------------------
	BYTE	W96
// 004   ----------------------------------------
	BYTE		N90     En1   v127
	BYTE	W96
// 005   ----------------------------------------
	BYTE		        Dn1 
	BYTE	W96
// 006   ----------------------------------------
	BYTE		        Cn1 
	BYTE	W96
// 007   ----------------------------------------
	BYTE		        Fn1 
	BYTE	W96
// 008   ----------------------------------------
WreyvianPride_9_008:
	BYTE		N20     En1   v127
	BYTE	W24
	BYTE		N20   
	BYTE	W24
	BYTE		N20   
	BYTE	W24
	BYTE		N20   
	BYTE	W24
	BYTE	PEND
// 009   ----------------------------------------
	BYTE	PATT
	 POIN2	WreyvianPride_9_008
// 010   ----------------------------------------
	BYTE	PATT
	 POIN2	WreyvianPride_9_008
// 011   ----------------------------------------
	BYTE	PATT
	 POIN2	WreyvianPride_9_008
WreyvianPride_9_B1:
// 012   ----------------------------------------
WreyvianPride_9_012:
	BYTE		N07     En1   v127
	BYTE	W08
	BYTE		N07   
	BYTE	W08
	BYTE		N07   
	BYTE	W08
	BYTE		        En2 
	BYTE	W08
	BYTE		        En1 
	BYTE	W08
	BYTE		N07   
	BYTE	W08
	BYTE		N07   
	BYTE	W08
	BYTE		N07   
	BYTE	W08
	BYTE		N07   
	BYTE	W08
	BYTE		        En2 
	BYTE	W08
	BYTE		        En1 
	BYTE	W08
	BYTE		N07   
	BYTE	W08
	BYTE	PEND
// 013   ----------------------------------------
	BYTE	PATT
	 POIN2	WreyvianPride_9_012
// 014   ----------------------------------------
	BYTE	PATT
	 POIN2	WreyvianPride_9_012
// 015   ----------------------------------------
WreyvianPride_9_015:
	BYTE		N07     Fn1   v127
	BYTE	W08
	BYTE		N07   
	BYTE	W08
	BYTE		N07   
	BYTE	W08
	BYTE		        Fn2 
	BYTE	W08
	BYTE		        Fn1 
	BYTE	W08
	BYTE		N07   
	BYTE	W08
	BYTE		N07   
	BYTE	W08
	BYTE		N07   
	BYTE	W08
	BYTE		N07   
	BYTE	W08
	BYTE		        Fn2 
	BYTE	W08
	BYTE		        Fn1 
	BYTE	W08
	BYTE		N07   
	BYTE	W08
	BYTE	PEND
// 016   ----------------------------------------
	BYTE	PATT
	 POIN2	WreyvianPride_9_012
// 017   ----------------------------------------
	BYTE	PATT
	 POIN2	WreyvianPride_9_012
// 018   ----------------------------------------
	BYTE	PATT
	 POIN2	WreyvianPride_9_012
// 019   ----------------------------------------
	BYTE	PATT
	 POIN2	WreyvianPride_9_015
// 020   ----------------------------------------
	BYTE	PATT
	 POIN2	WreyvianPride_9_012
// 021   ----------------------------------------
	BYTE	PATT
	 POIN2	WreyvianPride_9_012
// 022   ----------------------------------------
	BYTE	PATT
	 POIN2	WreyvianPride_9_012
// 023   ----------------------------------------
	BYTE	PATT
	 POIN2	WreyvianPride_9_015
// 024   ----------------------------------------
	BYTE	PATT
	 POIN2	WreyvianPride_9_012
// 025   ----------------------------------------
	BYTE	PATT
	 POIN2	WreyvianPride_9_012
// 026   ----------------------------------------
	BYTE	PATT
	 POIN2	WreyvianPride_9_012
// 027   ----------------------------------------
	BYTE	PATT
	 POIN2	WreyvianPride_9_015
// 028   ----------------------------------------
WreyvianPride_9_028:
	BYTE		N15     En1   v127
	BYTE	W16
	BYTE		N07   
	BYTE	W08
	BYTE		N15     An1 
	BYTE	W16
	BYTE		N07     Cn2 
	BYTE	W08
	BYTE		N15     En1 
	BYTE	W16
	BYTE		N07   
	BYTE	W08
	BYTE		N15     An1 
	BYTE	W16
	BYTE		N07     Cn2 
	BYTE	W08
	BYTE	PEND
// 029   ----------------------------------------
WreyvianPride_9_029:
	BYTE		N15     Fn1   v127
	BYTE	W16
	BYTE		N07   
	BYTE	W08
	BYTE		N15     An1 
	BYTE	W16
	BYTE		N07     Cn2 
	BYTE	W08
	BYTE		N15     Fn1 
	BYTE	W16
	BYTE		N07   
	BYTE	W08
	BYTE		N15     An1 
	BYTE	W16
	BYTE		N07     Cn2 
	BYTE	W08
	BYTE	PEND
// 030   ----------------------------------------
WreyvianPride_9_030:
	BYTE		N15     Fs1   v127
	BYTE	W16
	BYTE		N07   
	BYTE	W08
	BYTE		N15     An1 
	BYTE	W16
	BYTE		N07     Dn2 
	BYTE	W08
	BYTE		N15     Fs1 
	BYTE	W16
	BYTE		N07   
	BYTE	W08
	BYTE		N15     An1 
	BYTE	W16
	BYTE		N07     Dn2 
	BYTE	W08
	BYTE	PEND
// 031   ----------------------------------------
WreyvianPride_9_031:
	BYTE		N15     Gn1   v127
	BYTE	W16
	BYTE		N07   
	BYTE	W08
	BYTE		N15     Bn1 
	BYTE	W16
	BYTE		N07     En2 
	BYTE	W08
	BYTE		N15     Gn1 
	BYTE	W16
	BYTE		N07   
	BYTE	W08
	BYTE		N15     Bn1 
	BYTE	W16
	BYTE		N07     En2 
	BYTE	W08
	BYTE	PEND
// 032   ----------------------------------------
	BYTE	PATT
	 POIN2	WreyvianPride_9_028
// 033   ----------------------------------------
	BYTE	PATT
	 POIN2	WreyvianPride_9_029
// 034   ----------------------------------------
	BYTE	PATT
	 POIN2	WreyvianPride_9_030
// 035   ----------------------------------------
	BYTE	PATT
	 POIN2	WreyvianPride_9_031
// 036   ----------------------------------------
WreyvianPride_9_036:
	BYTE		N20     An1   v127
	BYTE	W24
	BYTE		        Dn2 
	BYTE	W24
	BYTE		        An1 
	BYTE	W24
	BYTE	PEND
// 037   ----------------------------------------
WreyvianPride_9_037:
	BYTE		N20     Cs2   v127
	BYTE	W24
	BYTE		        An1 
	BYTE	W24
	BYTE		        Cs2 
	BYTE	W24
	BYTE	PEND
// 038   ----------------------------------------
WreyvianPride_9_038:
	BYTE		N20     Cn2   v127
	BYTE	W24
	BYTE		        An1 
	BYTE	W24
	BYTE		        Cn2 
	BYTE	W24
	BYTE	PEND
// 039   ----------------------------------------
WreyvianPride_9_039:
	BYTE		N20     Bn1   v127
	BYTE	W24
	BYTE		        Cn2 
	BYTE	W24
	BYTE		        Dn2 
	BYTE	W24
	BYTE	PEND
// 040   ----------------------------------------
	BYTE	PATT
	 POIN2	WreyvianPride_9_036
// 041   ----------------------------------------
	BYTE	PATT
	 POIN2	WreyvianPride_9_037
// 042   ----------------------------------------
	BYTE	PATT
	 POIN2	WreyvianPride_9_038
// 043   ----------------------------------------
	BYTE	PATT
	 POIN2	WreyvianPride_9_039
// 044   ----------------------------------------
WreyvianPride_9_044:
	BYTE		N20     En2   v127
	BYTE	W24
	BYTE		        Bn1 
	BYTE	W24
	BYTE		        En2 
	BYTE	W24
	BYTE	PEND
// 045   ----------------------------------------
WreyvianPride_9_045:
	BYTE		N20     Fn2   v127
	BYTE	W24
	BYTE		        Cn2 
	BYTE	W24
	BYTE		        Fn2 
	BYTE	W24
	BYTE	PEND
// 046   ----------------------------------------
WreyvianPride_9_046:
	BYTE		N20     Gn2   v127
	BYTE	W24
	BYTE		        En2 
	BYTE	W24
	BYTE		        Gn2 
	BYTE	W24
	BYTE	PEND
// 047   ----------------------------------------
	BYTE		        An2 
	BYTE	W24
	BYTE		        Gn2 
	BYTE	W24
	BYTE		        Fs2 
	BYTE	W24
// 048   ----------------------------------------
	BYTE	PATT
	 POIN2	WreyvianPride_9_044
// 049   ----------------------------------------
	BYTE	PATT
	 POIN2	WreyvianPride_9_045
// 050   ----------------------------------------
	BYTE	PATT
	 POIN2	WreyvianPride_9_046
// 051   ----------------------------------------
	BYTE		N20     Cs3   v127
	BYTE	W24
	BYTE		        Bn2 
	BYTE	W24
	BYTE		        An2 
	BYTE	W24
// 052   ----------------------------------------
WreyvianPride_9_052:
	BYTE		N15     Dn1   v127
	BYTE	W16
	BYTE		N07   
	BYTE	W08
	BYTE		        Dn2 
	BYTE	W08
	BYTE		N15     Dn1 
	BYTE	W16
	BYTE		N15   
	BYTE	W16
	BYTE		N07   
	BYTE	W08
	BYTE		        Dn2 
	BYTE	W08
	BYTE		N15     Dn1 
	BYTE	W16
	BYTE	PEND
// 053   ----------------------------------------
	BYTE	PATT
	 POIN2	WreyvianPride_9_052
// 054   ----------------------------------------
	BYTE	PATT
	 POIN2	WreyvianPride_9_052
// 055   ----------------------------------------
	BYTE	PATT
	 POIN2	WreyvianPride_9_052
// 056   ----------------------------------------
	BYTE	PATT
	 POIN2	WreyvianPride_9_052
// 057   ----------------------------------------
	BYTE		N15     En1   v127
	BYTE	W16
	BYTE		N07   
	BYTE	W08
	BYTE		        En2 
	BYTE	W08
	BYTE		N15     En1 
	BYTE	W16
	BYTE		N15   
	BYTE	W16
	BYTE		N07   
	BYTE	W08
	BYTE		        En2 
	BYTE	W08
	BYTE		N15     En1 
	BYTE	W16
// 058   ----------------------------------------
	BYTE	PATT
	 POIN2	WreyvianPride_9_052
// 059   ----------------------------------------
	BYTE		TIE     En1   v127
	BYTE	W96
// 060   ----------------------------------------
	BYTE	W42
	BYTE		EOT   
	BYTE	W52
	BYTE	W01
	BYTE	GoTo
	 POIN2	WreyvianPride_9_B1
WreyvianPride_9_B2:
	BYTE	FINE

//******************************************************//
	ALIGN 4

WreyvianPride:
	BYTE	9	// NumTrks
	BYTE	0	// NumBlks
	BYTE	WreyvianPride_pri	// Priority
	BYTE	WreyvianPride_rev	// Reverb.

	POIN2	WreyvianPride_grp

	POIN2	WreyvianPride_1
	POIN2	WreyvianPride_2
	POIN2	WreyvianPride_3
	POIN2	WreyvianPride_4
	POIN2	WreyvianPride_5
	POIN2	WreyvianPride_6
	POIN2	WreyvianPride_7
	POIN2	WreyvianPride_8
	POIN2	WreyvianPride_9

	
