	.include "MPlayDef.s"

	.equ	feb20250128161406_grp, voicegroup000
	.equ	feb20250128161406_pri, 0
	.equ	feb20250128161406_rev, 0
	.equ	feb20250128161406_mvl, 28
	.equ	feb20250128161406_key, 0
	.equ	feb20250128161406_tbs, 1
	.equ	feb20250128161406_exg, 0
	.equ	feb20250128161406_cmp, 1

	.section .rodata
	.global	feb20250128161406
	.align	2

@**************** Track 1 (Midi-Chn.1) ****************@

feb20250128161406_1:
	.byte	KEYSH , feb20250128161406_key+0
@ 000   ----------------------------------------
	.byte	TEMPO , 130*feb20250128161406_tbs/2
	.byte		VOICE , 61
	.byte		MODT  , 0
	.byte		LFOS  , 44
	.byte		VOL   , 117*feb20250128161406_mvl/mxv
	.byte		PAN   , c_v-32
	.byte		N05   , Bn3 , v076
	.byte		N05   , En4 
	.byte		N05   , Gs4 
	.byte	W08
	.byte		        Bn3 
	.byte		N05   , En4 
	.byte		N05   , Fs4 
	.byte	W08
	.byte		        Bn3 
	.byte		N05   , En4 
	.byte		N05   , Gs4 
	.byte	W08
	.byte		        Bn3 
	.byte		N05   , En4 
	.byte		N05   , An4 
	.byte	W08
	.byte		        Bn3 
	.byte		N05   , En4 
	.byte		N05   , Gs4 
	.byte	W08
	.byte		        Bn3 
	.byte		N05   , En4 
	.byte		N05   , Fs4 
	.byte	W08
	.byte		        Bn3 
	.byte		N05   , En4 
	.byte		N05   , Gs4 
	.byte	W08
	.byte		        Bn3 
	.byte		N05   , En4 
	.byte		N05   , Fs4 
	.byte	W08
	.byte		        Bn3 
	.byte		N05   , En4 
	.byte		N05   , Gs4 
	.byte	W08
	.byte		        Bn3 
	.byte		N05   , En4 
	.byte		N05   , An4 
	.byte	W08
	.byte		        Bn3 
	.byte		N05   , En4 
	.byte		N05   , Gs4 
	.byte	W08
	.byte		        Bn3 
	.byte		N05   , En4 
	.byte		N05   , Fs4 
	.byte	W08
@ 001   ----------------------------------------
feb20250128161406_1_001:
	.byte		N05   , An3 , v076
	.byte		N05   , Dn4 
	.byte		N05   , Fs4 
	.byte	W08
	.byte		        An3 
	.byte		N05   , Dn4 
	.byte		N05   , En4 
	.byte	W08
	.byte		        An3 
	.byte		N05   , Dn4 
	.byte		N05   , Fs4 
	.byte	W08
	.byte		        An3 
	.byte		N05   , Dn4 
	.byte		N05   , Gn4 
	.byte	W08
	.byte		        An3 
	.byte		N05   , Dn4 
	.byte		N05   , Fs4 
	.byte	W08
	.byte		        An3 
	.byte		N05   , Dn4 
	.byte		N05   , En4 
	.byte	W08
	.byte		        An3 
	.byte		N05   , Dn4 
	.byte		N05   , Fs4 
	.byte	W08
	.byte		        An3 
	.byte		N05   , Dn4 
	.byte		N05   , En4 
	.byte	W08
	.byte		        An3 
	.byte		N05   , Dn4 
	.byte		N05   , Fs4 
	.byte	W08
	.byte		        An3 
	.byte		N05   , Dn4 
	.byte		N05   , Gn4 
	.byte	W08
	.byte		        An3 
	.byte		N05   , Dn4 
	.byte		N05   , Fs4 
	.byte	W08
	.byte		        An3 
	.byte		N05   , Dn4 
	.byte		N05   , En4 
	.byte	W08
	.byte	PEND
@ 002   ----------------------------------------
feb20250128161406_1_002:
	.byte		N05   , An3 , v076
	.byte		N05   , Cn4 
	.byte		N05   , En4 
	.byte	W08
	.byte		        An3 
	.byte		N05   , Cn4 
	.byte		N05   , Dn4 
	.byte	W08
	.byte		        An3 
	.byte		N05   , Cn4 
	.byte		N05   , En4 
	.byte	W08
	.byte		        An3 
	.byte		N05   , Cn4 
	.byte		N05   , Fn4 
	.byte	W08
	.byte		        An3 
	.byte		N05   , Cn4 
	.byte		N05   , En4 
	.byte	W08
	.byte		        An3 
	.byte		N05   , Cn4 
	.byte		N05   , Dn4 
	.byte	W08
	.byte		        An3 
	.byte		N05   , Cn4 
	.byte		N05   , En4 
	.byte	W08
	.byte		        An3 
	.byte		N05   , Cn4 
	.byte		N05   , Dn4 
	.byte	W08
	.byte		        An3 
	.byte		N05   , Cn4 
	.byte		N05   , En4 
	.byte	W08
	.byte		        An3 
	.byte		N05   , Cn4 
	.byte		N05   , Fn4 
	.byte	W08
	.byte		        An3 
	.byte		N05   , Cn4 
	.byte		N05   , En4 
	.byte	W08
	.byte		        An3 
	.byte		N05   , Cn4 
	.byte		N05   , Dn4 
	.byte	W08
	.byte	PEND
@ 003   ----------------------------------------
feb20250128161406_1_003:
	.byte		N05   , An3 , v076
	.byte		N05   , Cn4 
	.byte		N05   , Fn4 
	.byte	W08
	.byte		        An3 
	.byte		N05   , Cn4 
	.byte		N05   , En4 
	.byte	W08
	.byte		        An3 
	.byte		N05   , Cn4 
	.byte		N05   , Fn4 
	.byte	W08
	.byte		        An3 
	.byte		N05   , Cn4 
	.byte		N05   , Gn4 
	.byte	W08
	.byte		        An3 
	.byte		N05   , Cn4 
	.byte		N05   , Fn4 
	.byte	W08
	.byte		        An3 
	.byte		N05   , Cn4 
	.byte		N05   , En4 
	.byte	W08
	.byte		        An3 
	.byte		N05   , Cn4 
	.byte		N05   , Fn4 
	.byte	W08
	.byte		        An3 
	.byte		N05   , Cn4 
	.byte		N05   , En4 
	.byte	W08
	.byte		        An3 
	.byte		N05   , Cn4 
	.byte		N05   , Fn4 
	.byte	W08
	.byte		        An3 
	.byte		N05   , Cn4 
	.byte		N05   , Gn4 
	.byte	W08
	.byte		        An3 
	.byte		N05   , Cn4 
	.byte		N05   , Fn4 
	.byte	W08
	.byte		        An3 
	.byte		N05   , Cn4 
	.byte		N05   , En4 
	.byte	W08
	.byte	PEND
@ 004   ----------------------------------------
	.byte		        Bn3 
	.byte		N05   , En4 
	.byte		N05   , Gs4 
	.byte	W08
	.byte		        Bn3 
	.byte		N05   , En4 
	.byte		N05   , Fs4 
	.byte	W08
	.byte		        Bn3 
	.byte		N05   , En4 
	.byte		N05   , Gs4 
	.byte	W08
	.byte		        Bn3 
	.byte		N05   , En4 
	.byte		N05   , An4 
	.byte	W08
	.byte		        Bn3 
	.byte		N05   , En4 
	.byte		N05   , Gs4 
	.byte	W08
	.byte		        Bn3 
	.byte		N05   , En4 
	.byte		N05   , Fs4 
	.byte	W08
	.byte		        Bn3 
	.byte		N05   , En4 
	.byte		N05   , Gs4 
	.byte	W08
	.byte		        Bn3 
	.byte		N05   , En4 
	.byte		N05   , Fs4 
	.byte	W08
	.byte		        Bn3 
	.byte		N05   , En4 
	.byte		N05   , Gs4 
	.byte	W08
	.byte		        Bn3 
	.byte		N05   , En4 
	.byte		N05   , An4 
	.byte	W08
	.byte		        Bn3 
	.byte		N05   , En4 
	.byte		N05   , Gs4 
	.byte	W08
	.byte		        Bn3 
	.byte		N05   , En4 
	.byte		N05   , Fs4 
	.byte	W08
@ 005   ----------------------------------------
	.byte	PATT
	 .word	feb20250128161406_1_001
@ 006   ----------------------------------------
	.byte	PATT
	 .word	feb20250128161406_1_002
@ 007   ----------------------------------------
	.byte	PATT
	 .word	feb20250128161406_1_003
@ 008   ----------------------------------------
	.byte		TIE   , Bn3 , v076
	.byte		TIE   , En4 
	.byte		TIE   , An4 
	.byte	W96
@ 009   ----------------------------------------
	.byte	W90
	.byte		EOT   , Bn3 
	.byte		        En4 
	.byte		        An4 
	.byte	W06
@ 010   ----------------------------------------
	.byte		TIE   , Bn3 
	.byte		TIE   , En4 
	.byte		TIE   , Gs4 
	.byte	W96
@ 011   ----------------------------------------
	.byte	W90
	.byte		EOT   , Bn3 
	.byte		        En4 
	.byte		        Gs4 
	.byte	W06
feb20250128161406_1_B1:
@ 012   ----------------------------------------
	.byte	W96
@ 013   ----------------------------------------
	.byte	W96
@ 014   ----------------------------------------
	.byte	W96
@ 015   ----------------------------------------
	.byte	W96
@ 016   ----------------------------------------
	.byte	W96
@ 017   ----------------------------------------
	.byte	W96
@ 018   ----------------------------------------
	.byte	W96
@ 019   ----------------------------------------
	.byte	W96
@ 020   ----------------------------------------
	.byte	W96
@ 021   ----------------------------------------
	.byte	W96
@ 022   ----------------------------------------
	.byte	W96
@ 023   ----------------------------------------
	.byte	W96
@ 024   ----------------------------------------
	.byte	W96
@ 025   ----------------------------------------
	.byte	W96
@ 026   ----------------------------------------
	.byte	W96
@ 027   ----------------------------------------
	.byte	W96
@ 028   ----------------------------------------
feb20250128161406_1_028:
	.byte	W24
	.byte		N05   , An3 , v076
	.byte		N05   , Cn4 
	.byte		N05   , En4 
	.byte	W16
	.byte		        An3 
	.byte		N05   , Cn4 
	.byte		N05   , En4 
	.byte	W32
	.byte		        An3 
	.byte		N05   , Cn4 
	.byte		N05   , En4 
	.byte	W16
	.byte		        An3 
	.byte		N05   , Cn4 
	.byte		N05   , En4 
	.byte	W08
	.byte	PEND
@ 029   ----------------------------------------
feb20250128161406_1_029:
	.byte	W24
	.byte		N05   , An3 , v076
	.byte		N05   , Cn4 
	.byte		N05   , Fn4 
	.byte	W16
	.byte		        An3 
	.byte		N05   , Cn4 
	.byte		N05   , Fn4 
	.byte	W32
	.byte		        An3 
	.byte		N05   , Cn4 
	.byte		N05   , Fn4 
	.byte	W16
	.byte		        An3 
	.byte		N05   , Cn4 
	.byte		N05   , Fn4 
	.byte	W08
	.byte	PEND
@ 030   ----------------------------------------
feb20250128161406_1_030:
	.byte	W24
	.byte		N05   , An3 , v076
	.byte		N05   , Dn4 
	.byte		N05   , Fs4 
	.byte	W16
	.byte		        An3 
	.byte		N05   , Dn4 
	.byte		N05   , Fs4 
	.byte	W32
	.byte		        An3 
	.byte		N05   , Dn4 
	.byte		N05   , Fs4 
	.byte	W16
	.byte		        An3 
	.byte		N05   , Dn4 
	.byte		N05   , Fs4 
	.byte	W08
	.byte	PEND
@ 031   ----------------------------------------
feb20250128161406_1_031:
	.byte	W24
	.byte		N05   , Bn3 , v076
	.byte		N05   , En4 
	.byte		N05   , Gn4 
	.byte	W16
	.byte		        Bn3 
	.byte		N05   , En4 
	.byte		N05   , Gn4 
	.byte	W32
	.byte		        Bn3 
	.byte		N05   , En4 
	.byte		N05   , Gn4 
	.byte	W16
	.byte		        Bn3 
	.byte		N05   , En4 
	.byte		N05   , Gn4 
	.byte	W08
	.byte	PEND
@ 032   ----------------------------------------
	.byte	PATT
	 .word	feb20250128161406_1_028
@ 033   ----------------------------------------
	.byte	PATT
	 .word	feb20250128161406_1_029
@ 034   ----------------------------------------
	.byte	PATT
	 .word	feb20250128161406_1_030
@ 035   ----------------------------------------
	.byte	PATT
	 .word	feb20250128161406_1_031
@ 036   ----------------------------------------
feb20250128161406_1_036:
	.byte		N72   , Fs3 , v076
	.byte		N72   , An3 
	.byte		N72   , Dn4 
	.byte	W72
	.byte	PEND
@ 037   ----------------------------------------
	.byte		        En3 
	.byte		N72   , An3 
	.byte		N72   , Cs4 
	.byte	W72
@ 038   ----------------------------------------
feb20250128161406_1_038:
	.byte		N72   , Dn3 , v076
	.byte		N72   , An3 
	.byte		N72   , Cn4 
	.byte	W72
	.byte	PEND
@ 039   ----------------------------------------
	.byte		        Dn3 
	.byte		N72   , Gn3 
	.byte		N72   , Bn3 
	.byte	W72
@ 040   ----------------------------------------
	.byte	PATT
	 .word	feb20250128161406_1_036
@ 041   ----------------------------------------
	.byte		N72   , En3 , v076
	.byte		N72   , An3 
	.byte		N72   , Cs4 
	.byte	W72
@ 042   ----------------------------------------
	.byte	PATT
	 .word	feb20250128161406_1_038
@ 043   ----------------------------------------
	.byte		N66   , Dn3 , v076
	.byte		N66   , Gn3 
	.byte		N66   , Bn3 
	.byte	W72
@ 044   ----------------------------------------
	.byte		N72   , En3 
	.byte		N72   , Gn3 
	.byte		N72   , Bn3 
	.byte	W72
@ 045   ----------------------------------------
feb20250128161406_1_045:
	.byte		N72   , Cn3 , v076
	.byte		N72   , Fn3 
	.byte		N72   , An3 
	.byte	W72
	.byte	PEND
@ 046   ----------------------------------------
feb20250128161406_1_046:
	.byte		N72   , Cn3 , v076
	.byte		N72   , En3 
	.byte		N72   , Gn3 
	.byte	W72
	.byte	PEND
@ 047   ----------------------------------------
	.byte		N66   , Dn3 
	.byte		N66   , Fs3 
	.byte		N24   , An3 
	.byte	W24
	.byte		        Bn3 
	.byte	W24
	.byte		        Cn4 
	.byte	W24
@ 048   ----------------------------------------
	.byte		N72   , En3 
	.byte		N72   , Gn3 
	.byte		N72   , Bn3 
	.byte	W72
@ 049   ----------------------------------------
	.byte	PATT
	 .word	feb20250128161406_1_045
@ 050   ----------------------------------------
	.byte	PATT
	 .word	feb20250128161406_1_046
@ 051   ----------------------------------------
	.byte		N72   , Cs3 , v076
	.byte		N72   , En3 
	.byte		N72   , An3 
	.byte	W72
@ 052   ----------------------------------------
	.byte		N96   , Dn3 
	.byte		N96   , Fn3 
	.byte		N96   , An3 
	.byte		TIE   , Dn4 
	.byte	W96
@ 053   ----------------------------------------
	.byte		N96   , En3 
	.byte		N96   , Gn3 
	.byte		N96   , Bn3 
	.byte	W96
@ 054   ----------------------------------------
	.byte		        Fn3 
	.byte		N96   , An3 
	.byte		N96   , Cn4 
	.byte	W96
@ 055   ----------------------------------------
	.byte		        En3 
	.byte		N96   , Gn3 
	.byte		N96   , Bn3 
	.byte	W96
	.byte		EOT   , Dn4 
@ 056   ----------------------------------------
	.byte		N96   , Dn3 
	.byte		N96   , Fs3 
	.byte		N96   , An3 
	.byte		N96   , Dn4 
	.byte	W96
@ 057   ----------------------------------------
	.byte		        En3 
	.byte		N96   , Gn3 
	.byte		N96   , Bn3 
	.byte		N96   , En4 
	.byte	W96
@ 058   ----------------------------------------
	.byte		        Fs3 
	.byte		N96   , An3 
	.byte		N96   , Cn4 
	.byte		N96   , Dn4 
	.byte	W96
@ 059   ----------------------------------------
	.byte		TIE   , En3 
	.byte		TIE   , Gn3 
	.byte		TIE   , Bn3 
	.byte		TIE   , En4 
	.byte	W96
@ 060   ----------------------------------------
	.byte	W42
	.byte		EOT   , En3 
	.byte		        Gn3 
	.byte		        Bn3 
	.byte		        En4 
	.byte	W52
	.byte	W01
	.byte	GOTO
	 .word	feb20250128161406_1_B1
feb20250128161406_1_B2:
	.byte	FINE

@**************** Track 2 (Midi-Chn.2) ****************@

feb20250128161406_2:
	.byte	KEYSH , feb20250128161406_key+0
@ 000   ----------------------------------------
	.byte		VOICE , 60
	.byte		MODT  , 0
	.byte		LFOS  , 44
	.byte		VOL   , 103*feb20250128161406_mvl/mxv
	.byte		PAN   , c_v+0
	.byte		N48   , Bn2 , v127
	.byte	W48
	.byte		        En3 
	.byte	W48
@ 001   ----------------------------------------
feb20250128161406_2_001:
	.byte		N48   , An2 , v127
	.byte	W48
	.byte		        Dn3 
	.byte	W48
	.byte	PEND
@ 002   ----------------------------------------
	.byte		        En3 
	.byte	W48
	.byte		        Cn3 
	.byte	W48
@ 003   ----------------------------------------
	.byte		        Fn3 
	.byte	W48
	.byte		        Cn3 
	.byte	W48
@ 004   ----------------------------------------
	.byte		        Bn2 
	.byte	W48
	.byte		        En3 
	.byte	W48
@ 005   ----------------------------------------
	.byte	PATT
	 .word	feb20250128161406_2_001
@ 006   ----------------------------------------
	.byte		N48   , En3 , v127
	.byte	W48
	.byte		        Cn3 
	.byte	W48
@ 007   ----------------------------------------
	.byte		        Fn3 
	.byte	W48
	.byte		N42   , Cn3 
	.byte	W48
@ 008   ----------------------------------------
	.byte		TIE   , En3 
	.byte	W96
@ 009   ----------------------------------------
	.byte	W96
@ 010   ----------------------------------------
	.byte	W96
@ 011   ----------------------------------------
	.byte	W90
	.byte		EOT   
	.byte	W06
feb20250128161406_2_B1:
@ 012   ----------------------------------------
	.byte	W96
@ 013   ----------------------------------------
	.byte	W96
@ 014   ----------------------------------------
	.byte	W96
@ 015   ----------------------------------------
	.byte	W96
@ 016   ----------------------------------------
	.byte	W96
@ 017   ----------------------------------------
	.byte	W96
@ 018   ----------------------------------------
	.byte	W96
@ 019   ----------------------------------------
	.byte	W96
@ 020   ----------------------------------------
	.byte	W96
@ 021   ----------------------------------------
	.byte	W96
@ 022   ----------------------------------------
	.byte	W96
@ 023   ----------------------------------------
	.byte	W96
@ 024   ----------------------------------------
	.byte	W96
@ 025   ----------------------------------------
	.byte	W96
@ 026   ----------------------------------------
	.byte	W96
@ 027   ----------------------------------------
	.byte	W96
@ 028   ----------------------------------------
	.byte	W96
@ 029   ----------------------------------------
	.byte	W96
@ 030   ----------------------------------------
	.byte	W96
@ 031   ----------------------------------------
	.byte	W96
@ 032   ----------------------------------------
	.byte	W96
@ 033   ----------------------------------------
	.byte	W96
@ 034   ----------------------------------------
	.byte	W96
@ 035   ----------------------------------------
	.byte	W96
@ 036   ----------------------------------------
	.byte	W72
@ 037   ----------------------------------------
	.byte	W72
@ 038   ----------------------------------------
	.byte	W72
@ 039   ----------------------------------------
	.byte	W72
@ 040   ----------------------------------------
	.byte	W72
@ 041   ----------------------------------------
	.byte	W72
@ 042   ----------------------------------------
	.byte	W72
@ 043   ----------------------------------------
	.byte	W72
@ 044   ----------------------------------------
	.byte	W72
@ 045   ----------------------------------------
	.byte	W72
@ 046   ----------------------------------------
	.byte	W72
@ 047   ----------------------------------------
	.byte	W72
@ 048   ----------------------------------------
	.byte	W72
@ 049   ----------------------------------------
	.byte	W72
@ 050   ----------------------------------------
	.byte	W72
@ 051   ----------------------------------------
	.byte	W72
@ 052   ----------------------------------------
	.byte	W96
@ 053   ----------------------------------------
	.byte	W96
@ 054   ----------------------------------------
	.byte	W96
@ 055   ----------------------------------------
	.byte	W96
@ 056   ----------------------------------------
	.byte	W96
@ 057   ----------------------------------------
	.byte	W96
@ 058   ----------------------------------------
	.byte	W96
@ 059   ----------------------------------------
	.byte	W96
@ 060   ----------------------------------------
	.byte	W92
	.byte	W03
	.byte	GOTO
	 .word	feb20250128161406_2_B1
feb20250128161406_2_B2:
	.byte	FINE

@**************** Track 3 (Midi-Chn.3) ****************@

feb20250128161406_3:
	.byte	KEYSH , feb20250128161406_key+0
@ 000   ----------------------------------------
	.byte		VOICE , 40
	.byte		MODT  , 0
	.byte		LFOS  , 44
	.byte		VOL   , 127*feb20250128161406_mvl/mxv
	.byte		PAN   , c_v+0
	.byte		N90   , En1 , v127
	.byte	W96
@ 001   ----------------------------------------
	.byte		        Dn1 
	.byte	W96
@ 002   ----------------------------------------
	.byte		        Cn1 
	.byte	W96
@ 003   ----------------------------------------
	.byte		        Fn1 
	.byte	W96
@ 004   ----------------------------------------
	.byte		        En1 
	.byte	W96
@ 005   ----------------------------------------
	.byte		        Dn1 
	.byte	W96
@ 006   ----------------------------------------
	.byte		        Cn1 
	.byte	W96
@ 007   ----------------------------------------
	.byte		        Fn1 
	.byte	W96
@ 008   ----------------------------------------
	.byte		TIE   , En1 
	.byte	W96
@ 009   ----------------------------------------
	.byte	W96
@ 010   ----------------------------------------
	.byte	W96
@ 011   ----------------------------------------
	.byte	W90
	.byte		EOT   
	.byte	W06
feb20250128161406_3_B1:
@ 012   ----------------------------------------
	.byte	W96
@ 013   ----------------------------------------
	.byte	W96
@ 014   ----------------------------------------
	.byte	W96
@ 015   ----------------------------------------
	.byte	W96
@ 016   ----------------------------------------
	.byte	W96
@ 017   ----------------------------------------
	.byte	W96
@ 018   ----------------------------------------
	.byte	W96
@ 019   ----------------------------------------
	.byte	W96
@ 020   ----------------------------------------
	.byte	W96
@ 021   ----------------------------------------
	.byte	W96
@ 022   ----------------------------------------
	.byte	W96
@ 023   ----------------------------------------
	.byte	W96
@ 024   ----------------------------------------
	.byte	W96
@ 025   ----------------------------------------
	.byte	W96
@ 026   ----------------------------------------
	.byte	W96
@ 027   ----------------------------------------
	.byte	W96
@ 028   ----------------------------------------
	.byte		TIE   , Cn2 , v127
	.byte	W96
@ 029   ----------------------------------------
	.byte	W90
	.byte		EOT   
	.byte	W06
@ 030   ----------------------------------------
	.byte		N90   , Dn2 
	.byte	W96
@ 031   ----------------------------------------
	.byte		N42   , En2 
	.byte	W48
	.byte		        Dn2 
	.byte	W48
@ 032   ----------------------------------------
	.byte		TIE   , Cn2 
	.byte	W96
@ 033   ----------------------------------------
	.byte	W90
	.byte		EOT   
	.byte	W06
@ 034   ----------------------------------------
	.byte		N90   , Dn2 
	.byte	W96
@ 035   ----------------------------------------
	.byte		        En2 
	.byte	W96
@ 036   ----------------------------------------
	.byte	W72
@ 037   ----------------------------------------
	.byte	W72
@ 038   ----------------------------------------
	.byte	W72
@ 039   ----------------------------------------
	.byte	W72
@ 040   ----------------------------------------
	.byte	W72
@ 041   ----------------------------------------
	.byte	W72
@ 042   ----------------------------------------
	.byte	W72
@ 043   ----------------------------------------
	.byte	W72
@ 044   ----------------------------------------
	.byte	W72
@ 045   ----------------------------------------
	.byte	W72
@ 046   ----------------------------------------
	.byte	W72
@ 047   ----------------------------------------
	.byte	W72
@ 048   ----------------------------------------
	.byte	W72
@ 049   ----------------------------------------
	.byte	W72
@ 050   ----------------------------------------
	.byte	W72
@ 051   ----------------------------------------
	.byte	W72
@ 052   ----------------------------------------
	.byte	W96
@ 053   ----------------------------------------
	.byte	W96
@ 054   ----------------------------------------
	.byte	W96
@ 055   ----------------------------------------
	.byte	W96
@ 056   ----------------------------------------
	.byte	W96
@ 057   ----------------------------------------
	.byte	W96
@ 058   ----------------------------------------
	.byte	W96
@ 059   ----------------------------------------
	.byte	W96
@ 060   ----------------------------------------
	.byte	W92
	.byte	W03
	.byte	GOTO
	 .word	feb20250128161406_3_B1
feb20250128161406_3_B2:
	.byte	FINE

@**************** Track 4 (Midi-Chn.4) ****************@

feb20250128161406_4:
	.byte	KEYSH , feb20250128161406_key+0
@ 000   ----------------------------------------
	.byte		VOICE , 49
	.byte		MODT  , 0
	.byte		LFOS  , 44
	.byte		VOL   , 114*feb20250128161406_mvl/mxv
	.byte		PAN   , c_v+32
	.byte		N90   , En3 , v076
	.byte		N90   , Gs3 
	.byte		N90   , Bn3 
	.byte	W96
@ 001   ----------------------------------------
feb20250128161406_4_001:
	.byte		N90   , Dn3 , v076
	.byte		N90   , Fs3 
	.byte		TIE   , An3 
	.byte	W96
	.byte	PEND
@ 002   ----------------------------------------
feb20250128161406_4_002:
	.byte		TIE   , Cn3 , v076
	.byte		N90   , En3 
	.byte	W96
	.byte	PEND
@ 003   ----------------------------------------
	.byte		        Fn3 
	.byte	W90
	.byte		EOT   , Cn3 
	.byte		        An3 
	.byte	W06
@ 004   ----------------------------------------
	.byte		N90   , En3 
	.byte		N90   , Gs3 
	.byte		N90   , Bn3 
	.byte	W96
@ 005   ----------------------------------------
	.byte	PATT
	 .word	feb20250128161406_4_001
@ 006   ----------------------------------------
	.byte	PATT
	 .word	feb20250128161406_4_002
@ 007   ----------------------------------------
	.byte		N90   , Fn3 , v076
	.byte	W90
	.byte		EOT   , Cn3 
	.byte		        An3 
	.byte	W06
@ 008   ----------------------------------------
	.byte		TIE   , En3 
	.byte		TIE   , An3 
	.byte		TIE   , Bn3 
	.byte	W96
@ 009   ----------------------------------------
	.byte	W90
	.byte		EOT   , En3 
	.byte		        An3 
	.byte		        Bn3 
	.byte	W06
@ 010   ----------------------------------------
	.byte		TIE   , En3 
	.byte		TIE   , Gs3 
	.byte		TIE   , Bn3 
	.byte	W96
@ 011   ----------------------------------------
	.byte	W90
	.byte		EOT   , En3 
	.byte		        Gs3 
	.byte		        Bn3 
	.byte	W06
feb20250128161406_4_B1:
@ 012   ----------------------------------------
	.byte	W96
@ 013   ----------------------------------------
	.byte	W96
@ 014   ----------------------------------------
	.byte	W96
@ 015   ----------------------------------------
	.byte	W96
@ 016   ----------------------------------------
	.byte	W96
@ 017   ----------------------------------------
	.byte	W96
@ 018   ----------------------------------------
	.byte	W96
@ 019   ----------------------------------------
	.byte	W96
@ 020   ----------------------------------------
	.byte	W96
@ 021   ----------------------------------------
	.byte	W96
@ 022   ----------------------------------------
	.byte	W96
@ 023   ----------------------------------------
	.byte	W96
@ 024   ----------------------------------------
	.byte	W96
@ 025   ----------------------------------------
	.byte	W96
@ 026   ----------------------------------------
	.byte	W96
@ 027   ----------------------------------------
	.byte	W96
@ 028   ----------------------------------------
feb20250128161406_4_028:
	.byte		TIE   , Cn3 , v076
	.byte		N90   , En3 
	.byte		TIE   , An3 
	.byte	W96
	.byte	PEND
@ 029   ----------------------------------------
	.byte		N90   , Fn3 
	.byte	W90
	.byte		EOT   , Cn3 
	.byte	W06
@ 030   ----------------------------------------
	.byte		N90   , Dn3 
	.byte		N90   , Fs3 
	.byte	W90
	.byte		EOT   , An3 
	.byte	W06
@ 031   ----------------------------------------
	.byte		N90   , En3 
	.byte		N90   , Gn3 
	.byte		N90   , Bn3 
	.byte	W96
@ 032   ----------------------------------------
	.byte	PATT
	 .word	feb20250128161406_4_028
@ 033   ----------------------------------------
	.byte		N90   , Fn3 , v076
	.byte	W90
	.byte		EOT   , Cn3 
	.byte	W06
@ 034   ----------------------------------------
	.byte		N90   , Dn3 
	.byte		N90   , Fs3 
	.byte	W90
	.byte		EOT   , An3 
	.byte	W06
@ 035   ----------------------------------------
	.byte		N90   , En3 
	.byte		N90   , Gn3 
	.byte		N90   , Bn3 
	.byte	W96
@ 036   ----------------------------------------
feb20250128161406_4_036:
	.byte		N72   , Fs3 , v076
	.byte		N72   , An3 
	.byte		N72   , Dn4 
	.byte	W72
	.byte	PEND
@ 037   ----------------------------------------
	.byte		        En3 
	.byte		N72   , An3 
	.byte		N72   , Cs4 
	.byte	W72
@ 038   ----------------------------------------
feb20250128161406_4_038:
	.byte		N72   , Dn3 , v076
	.byte		N72   , An3 
	.byte		N72   , Cn4 
	.byte	W72
	.byte	PEND
@ 039   ----------------------------------------
	.byte		        Dn3 
	.byte		N72   , Gn3 
	.byte		N72   , Bn3 
	.byte	W72
@ 040   ----------------------------------------
	.byte	PATT
	 .word	feb20250128161406_4_036
@ 041   ----------------------------------------
	.byte		N72   , En3 , v076
	.byte		N72   , An3 
	.byte		N72   , Cs4 
	.byte	W72
@ 042   ----------------------------------------
	.byte	PATT
	 .word	feb20250128161406_4_038
@ 043   ----------------------------------------
	.byte		N66   , Dn3 , v076
	.byte		N66   , Gn3 
	.byte		N66   , Bn3 
	.byte	W72
@ 044   ----------------------------------------
	.byte		N72   , En3 
	.byte		N72   , Gn3 
	.byte		N72   , Bn3 
	.byte	W72
@ 045   ----------------------------------------
feb20250128161406_4_045:
	.byte		N72   , Cn3 , v076
	.byte		N72   , Fn3 
	.byte		N72   , An3 
	.byte	W72
	.byte	PEND
@ 046   ----------------------------------------
feb20250128161406_4_046:
	.byte		N72   , Cn3 , v076
	.byte		N72   , En3 
	.byte		N72   , Gn3 
	.byte	W72
	.byte	PEND
@ 047   ----------------------------------------
	.byte		N66   , Dn3 
	.byte		N66   , Fs3 
	.byte		N24   , An3 
	.byte	W24
	.byte		        Bn3 
	.byte	W24
	.byte		        Cn4 
	.byte	W24
@ 048   ----------------------------------------
	.byte		N72   , En3 
	.byte		N72   , Gn3 
	.byte		N72   , Bn3 
	.byte	W72
@ 049   ----------------------------------------
	.byte	PATT
	 .word	feb20250128161406_4_045
@ 050   ----------------------------------------
	.byte	PATT
	 .word	feb20250128161406_4_046
@ 051   ----------------------------------------
	.byte		N72   , Cs3 , v076
	.byte		N72   , En3 
	.byte		N72   , An3 
	.byte	W72
@ 052   ----------------------------------------
	.byte		N96   , Dn3 
	.byte		N96   , Fn3 
	.byte		N96   , An3 
	.byte		TIE   , Dn4 
	.byte	W96
@ 053   ----------------------------------------
	.byte		N96   , En3 
	.byte		N96   , Gn3 
	.byte		N96   , Bn3 
	.byte	W96
@ 054   ----------------------------------------
	.byte		        Fn3 
	.byte		N96   , An3 
	.byte		N96   , Cn4 
	.byte	W96
@ 055   ----------------------------------------
	.byte		        En3 
	.byte		N96   , Gn3 
	.byte		N96   , Bn3 
	.byte	W96
	.byte		EOT   , Dn4 
@ 056   ----------------------------------------
	.byte		N96   , Dn3 
	.byte		N96   , Fs3 
	.byte		N96   , An3 
	.byte		N96   , Dn4 
	.byte	W96
@ 057   ----------------------------------------
	.byte		        En3 
	.byte		N96   , Gn3 
	.byte		N96   , Bn3 
	.byte		N96   , En4 
	.byte	W96
@ 058   ----------------------------------------
	.byte		        Fs3 
	.byte		N96   , An3 
	.byte		N96   , Cn4 
	.byte		N96   , Dn4 
	.byte	W96
@ 059   ----------------------------------------
	.byte		TIE   , En3 
	.byte		TIE   , Gn3 
	.byte		TIE   , Bn3 
	.byte		TIE   , En4 
	.byte	W96
@ 060   ----------------------------------------
	.byte	W42
	.byte		EOT   , En3 
	.byte		        Gn3 
	.byte		        Bn3 
	.byte		        En4 
	.byte	W52
	.byte	W01
	.byte	GOTO
	 .word	feb20250128161406_4_B1
feb20250128161406_4_B2:
	.byte	FINE

@**************** Track 5 (Midi-Chn.5) ****************@

feb20250128161406_5:
	.byte	KEYSH , feb20250128161406_key+0
@ 000   ----------------------------------------
	.byte		VOICE , 30
	.byte		MODT  , 0
	.byte		LFOS  , 44
	.byte		PAN   , c_v-28
	.byte		VOL   , 127*feb20250128161406_mvl/mxv
	.byte	W96
@ 001   ----------------------------------------
	.byte	W96
@ 002   ----------------------------------------
	.byte	W96
@ 003   ----------------------------------------
	.byte	W96
@ 004   ----------------------------------------
	.byte		N90   , En1 , v127
	.byte	W96
@ 005   ----------------------------------------
	.byte		        Dn1 
	.byte	W96
@ 006   ----------------------------------------
	.byte		        Cn1 
	.byte	W96
@ 007   ----------------------------------------
	.byte		        Fn1 
	.byte	W96
@ 008   ----------------------------------------
feb20250128161406_5_008:
	.byte		N20   , En1 , v127
	.byte	W24
	.byte		N20   
	.byte	W24
	.byte		N20   
	.byte	W24
	.byte		N20   
	.byte	W24
	.byte	PEND
@ 009   ----------------------------------------
	.byte	PATT
	 .word	feb20250128161406_5_008
@ 010   ----------------------------------------
	.byte	PATT
	 .word	feb20250128161406_5_008
@ 011   ----------------------------------------
	.byte	PATT
	 .word	feb20250128161406_5_008
feb20250128161406_5_B1:
@ 012   ----------------------------------------
feb20250128161406_5_012:
	.byte		N07   , En1 , v127
	.byte	W08
	.byte		N07   
	.byte	W08
	.byte		N07   
	.byte	W08
	.byte		        En2 
	.byte	W08
	.byte		        En1 
	.byte	W08
	.byte		N07   
	.byte	W08
	.byte		N07   
	.byte	W08
	.byte		N07   
	.byte	W08
	.byte		N07   
	.byte	W08
	.byte		        En2 
	.byte	W08
	.byte		        En1 
	.byte	W08
	.byte		N07   
	.byte	W08
	.byte	PEND
@ 013   ----------------------------------------
	.byte	PATT
	 .word	feb20250128161406_5_012
@ 014   ----------------------------------------
	.byte	PATT
	 .word	feb20250128161406_5_012
@ 015   ----------------------------------------
feb20250128161406_5_015:
	.byte		N07   , Fn1 , v127
	.byte	W08
	.byte		N07   
	.byte	W08
	.byte		N07   
	.byte	W08
	.byte		        Fn2 
	.byte	W08
	.byte		        Fn1 
	.byte	W08
	.byte		N07   
	.byte	W08
	.byte		N07   
	.byte	W08
	.byte		N07   
	.byte	W08
	.byte		N07   
	.byte	W08
	.byte		        Fn2 
	.byte	W08
	.byte		        Fn1 
	.byte	W08
	.byte		N07   
	.byte	W08
	.byte	PEND
@ 016   ----------------------------------------
	.byte	PATT
	 .word	feb20250128161406_5_012
@ 017   ----------------------------------------
	.byte	PATT
	 .word	feb20250128161406_5_012
@ 018   ----------------------------------------
	.byte	PATT
	 .word	feb20250128161406_5_012
@ 019   ----------------------------------------
	.byte	PATT
	 .word	feb20250128161406_5_015
@ 020   ----------------------------------------
	.byte	PATT
	 .word	feb20250128161406_5_012
@ 021   ----------------------------------------
	.byte	PATT
	 .word	feb20250128161406_5_012
@ 022   ----------------------------------------
	.byte	PATT
	 .word	feb20250128161406_5_012
@ 023   ----------------------------------------
	.byte	PATT
	 .word	feb20250128161406_5_015
@ 024   ----------------------------------------
	.byte	PATT
	 .word	feb20250128161406_5_012
@ 025   ----------------------------------------
	.byte	PATT
	 .word	feb20250128161406_5_012
@ 026   ----------------------------------------
	.byte	PATT
	 .word	feb20250128161406_5_012
@ 027   ----------------------------------------
	.byte	PATT
	 .word	feb20250128161406_5_015
@ 028   ----------------------------------------
feb20250128161406_5_028:
	.byte		N15   , En1 , v127
	.byte	W16
	.byte		N07   
	.byte	W08
	.byte		N15   , An1 
	.byte	W16
	.byte		N07   , Cn2 
	.byte	W08
	.byte		N15   , En1 
	.byte	W16
	.byte		N07   
	.byte	W08
	.byte		N15   , An1 
	.byte	W16
	.byte		N07   , Cn2 
	.byte	W08
	.byte	PEND
@ 029   ----------------------------------------
feb20250128161406_5_029:
	.byte		N15   , Fn1 , v127
	.byte	W16
	.byte		N07   
	.byte	W08
	.byte		N15   , An1 
	.byte	W16
	.byte		N07   , Cn2 
	.byte	W08
	.byte		N15   , Fn1 
	.byte	W16
	.byte		N07   
	.byte	W08
	.byte		N15   , An1 
	.byte	W16
	.byte		N07   , Cn2 
	.byte	W08
	.byte	PEND
@ 030   ----------------------------------------
feb20250128161406_5_030:
	.byte		N15   , Fs1 , v127
	.byte	W16
	.byte		N07   
	.byte	W08
	.byte		N15   , An1 
	.byte	W16
	.byte		N07   , Dn2 
	.byte	W08
	.byte		N15   , Fs1 
	.byte	W16
	.byte		N07   
	.byte	W08
	.byte		N15   , An1 
	.byte	W16
	.byte		N07   , Dn2 
	.byte	W08
	.byte	PEND
@ 031   ----------------------------------------
feb20250128161406_5_031:
	.byte		N15   , Gn1 , v127
	.byte	W16
	.byte		N07   
	.byte	W08
	.byte		N15   , Bn1 
	.byte	W16
	.byte		N07   , En2 
	.byte	W08
	.byte		N15   , Gn1 
	.byte	W16
	.byte		N07   
	.byte	W08
	.byte		N15   , Bn1 
	.byte	W16
	.byte		N07   , En2 
	.byte	W08
	.byte	PEND
@ 032   ----------------------------------------
	.byte	PATT
	 .word	feb20250128161406_5_028
@ 033   ----------------------------------------
	.byte	PATT
	 .word	feb20250128161406_5_029
@ 034   ----------------------------------------
	.byte	PATT
	 .word	feb20250128161406_5_030
@ 035   ----------------------------------------
	.byte	PATT
	 .word	feb20250128161406_5_031
@ 036   ----------------------------------------
feb20250128161406_5_036:
	.byte		N20   , An1 , v127
	.byte	W24
	.byte		        Dn2 
	.byte	W24
	.byte		        An1 
	.byte	W24
	.byte	PEND
@ 037   ----------------------------------------
feb20250128161406_5_037:
	.byte		N20   , Cs2 , v127
	.byte	W24
	.byte		        An1 
	.byte	W24
	.byte		        Cs2 
	.byte	W24
	.byte	PEND
@ 038   ----------------------------------------
feb20250128161406_5_038:
	.byte		N20   , Cn2 , v127
	.byte	W24
	.byte		        An1 
	.byte	W24
	.byte		        Cn2 
	.byte	W24
	.byte	PEND
@ 039   ----------------------------------------
feb20250128161406_5_039:
	.byte		N20   , Bn1 , v127
	.byte	W24
	.byte		        Cn2 
	.byte	W24
	.byte		        Dn2 
	.byte	W24
	.byte	PEND
@ 040   ----------------------------------------
	.byte	PATT
	 .word	feb20250128161406_5_036
@ 041   ----------------------------------------
	.byte	PATT
	 .word	feb20250128161406_5_037
@ 042   ----------------------------------------
	.byte	PATT
	 .word	feb20250128161406_5_038
@ 043   ----------------------------------------
	.byte	PATT
	 .word	feb20250128161406_5_039
@ 044   ----------------------------------------
feb20250128161406_5_044:
	.byte		N20   , En2 , v127
	.byte	W24
	.byte		        Bn1 
	.byte	W24
	.byte		        En2 
	.byte	W24
	.byte	PEND
@ 045   ----------------------------------------
feb20250128161406_5_045:
	.byte		N20   , Fn2 , v127
	.byte	W24
	.byte		        Cn2 
	.byte	W24
	.byte		        Fn2 
	.byte	W24
	.byte	PEND
@ 046   ----------------------------------------
feb20250128161406_5_046:
	.byte		N20   , Gn2 , v127
	.byte	W24
	.byte		        En2 
	.byte	W24
	.byte		        Gn2 
	.byte	W24
	.byte	PEND
@ 047   ----------------------------------------
	.byte		        An2 
	.byte	W24
	.byte		        Gn2 
	.byte	W24
	.byte		        Fs2 
	.byte	W24
@ 048   ----------------------------------------
	.byte	PATT
	 .word	feb20250128161406_5_044
@ 049   ----------------------------------------
	.byte	PATT
	 .word	feb20250128161406_5_045
@ 050   ----------------------------------------
	.byte	PATT
	 .word	feb20250128161406_5_046
@ 051   ----------------------------------------
	.byte		N20   , Cs3 , v127
	.byte	W24
	.byte		        Bn2 
	.byte	W24
	.byte		        An2 
	.byte	W24
@ 052   ----------------------------------------
feb20250128161406_5_052:
	.byte		N15   , Dn1 , v127
	.byte	W16
	.byte		N07   
	.byte	W08
	.byte		        Dn2 
	.byte	W08
	.byte		N15   , Dn1 
	.byte	W16
	.byte		N15   
	.byte	W16
	.byte		N07   
	.byte	W08
	.byte		        Dn2 
	.byte	W08
	.byte		N15   , Dn1 
	.byte	W16
	.byte	PEND
@ 053   ----------------------------------------
	.byte	PATT
	 .word	feb20250128161406_5_052
@ 054   ----------------------------------------
	.byte	PATT
	 .word	feb20250128161406_5_052
@ 055   ----------------------------------------
	.byte	PATT
	 .word	feb20250128161406_5_052
@ 056   ----------------------------------------
	.byte	PATT
	 .word	feb20250128161406_5_052
@ 057   ----------------------------------------
	.byte		N15   , En1 , v127
	.byte	W16
	.byte		N07   
	.byte	W08
	.byte		        En2 
	.byte	W08
	.byte		N15   , En1 
	.byte	W16
	.byte		N15   
	.byte	W16
	.byte		N07   
	.byte	W08
	.byte		        En2 
	.byte	W08
	.byte		N15   , En1 
	.byte	W16
@ 058   ----------------------------------------
	.byte	PATT
	 .word	feb20250128161406_5_052
@ 059   ----------------------------------------
	.byte		TIE   , En1 , v127
	.byte	W96
@ 060   ----------------------------------------
	.byte	W42
	.byte		EOT   
	.byte	W52
	.byte	W01
	.byte	GOTO
	 .word	feb20250128161406_5_B1
feb20250128161406_5_B2:
	.byte	FINE

@**************** Track 6 (Midi-Chn.7) ****************@

feb20250128161406_6:
	.byte	KEYSH , feb20250128161406_key+0
@ 000   ----------------------------------------
	.byte		VOICE , 18
	.byte		MODT  , 0
	.byte		LFOS  , 44
	.byte		PAN   , c_v+12
	.byte		VOL   , 105*feb20250128161406_mvl/mxv
	.byte	W96
@ 001   ----------------------------------------
	.byte	W96
@ 002   ----------------------------------------
	.byte	W96
@ 003   ----------------------------------------
	.byte	W96
@ 004   ----------------------------------------
	.byte	W96
@ 005   ----------------------------------------
	.byte	W96
@ 006   ----------------------------------------
	.byte	W96
@ 007   ----------------------------------------
	.byte	W72
	.byte		N01   , Fs2 , v127
	.byte	W01
	.byte		        Gn2 
	.byte	W02
	.byte		        An2 
	.byte	W01
	.byte		        Bn2 
	.byte	W02
	.byte		        Cn3 
	.byte	W01
	.byte		        Dn3 
	.byte	W02
	.byte		        En3 
	.byte	W01
	.byte		        Fs3 
	.byte	W02
	.byte		        Gn3 
	.byte	W01
	.byte		        An3 
	.byte	W02
	.byte		        Bn3 
	.byte	W01
	.byte		        Cn4 
	.byte	W02
	.byte		        Dn4 
	.byte	W01
	.byte		        En4 
	.byte	W02
	.byte		        Fs4 
	.byte	W01
	.byte		        Gn4 
	.byte	W02
@ 008   ----------------------------------------
	.byte		TIE   , Bn3 
	.byte		TIE   , En4 
	.byte		TIE   , An4 
	.byte	W96
@ 009   ----------------------------------------
	.byte	W96
	.byte		EOT   , Bn3 
	.byte		        En4 
	.byte		        An4 
@ 010   ----------------------------------------
	.byte		TIE   , Bn3 
	.byte		TIE   , En4 
	.byte		TIE   , Gs4 
	.byte	W96
@ 011   ----------------------------------------
	.byte	W96
	.byte		EOT   , Bn3 
	.byte		        En4 
	.byte		        Gs4 
feb20250128161406_6_B1:
@ 012   ----------------------------------------
feb20250128161406_6_012:
	.byte	W24
	.byte		N06   , Bn3 , v127
	.byte		N06   , En4 
	.byte		N06   , Gn4 
	.byte	W48
	.byte		N05   , Bn3 
	.byte		N05   , En4 
	.byte		N05   , Gn4 
	.byte	W16
	.byte		        Bn3 
	.byte		N05   , En4 
	.byte		N05   , An4 
	.byte	W08
	.byte	PEND
@ 013   ----------------------------------------
feb20250128161406_6_013:
	.byte	W24
	.byte		N06   , En4 , v127
	.byte		N06   , Gn4 
	.byte		N06   , Bn4 
	.byte	W48
	.byte		N05   , En4 
	.byte		N05   , Gn4 
	.byte		N05   , Bn4 
	.byte	W16
	.byte		        En4 
	.byte		N05   , Gn4 
	.byte		N05   , An4 
	.byte	W08
	.byte	PEND
@ 014   ----------------------------------------
feb20250128161406_6_014:
	.byte	W24
	.byte		N06   , Bn3 , v127
	.byte		N06   , En4 
	.byte		N06   , Gn4 
	.byte	W48
	.byte		N05   , Bn3 
	.byte		N05   , En4 
	.byte		N05   , Gn4 
	.byte	W16
	.byte		N07   , Bn3 
	.byte		N07   , En4 
	.byte		N07   , An4 
	.byte	W08
	.byte	PEND
@ 015   ----------------------------------------
feb20250128161406_6_015:
	.byte		N90   , Cn4 , v127
	.byte		N90   , Fn4 
	.byte		N42   , Bn4 
	.byte	W48
	.byte		        An4 
	.byte	W48
	.byte	PEND
@ 016   ----------------------------------------
	.byte	PATT
	 .word	feb20250128161406_6_012
@ 017   ----------------------------------------
	.byte	PATT
	 .word	feb20250128161406_6_013
@ 018   ----------------------------------------
	.byte	PATT
	 .word	feb20250128161406_6_014
@ 019   ----------------------------------------
	.byte	PATT
	 .word	feb20250128161406_6_015
@ 020   ----------------------------------------
	.byte	PATT
	 .word	feb20250128161406_6_012
@ 021   ----------------------------------------
	.byte	PATT
	 .word	feb20250128161406_6_013
@ 022   ----------------------------------------
	.byte	PATT
	 .word	feb20250128161406_6_014
@ 023   ----------------------------------------
	.byte	PATT
	 .word	feb20250128161406_6_015
@ 024   ----------------------------------------
	.byte	PATT
	 .word	feb20250128161406_6_012
@ 025   ----------------------------------------
	.byte	PATT
	 .word	feb20250128161406_6_013
@ 026   ----------------------------------------
	.byte	PATT
	 .word	feb20250128161406_6_014
@ 027   ----------------------------------------
	.byte	PATT
	 .word	feb20250128161406_6_015
@ 028   ----------------------------------------
feb20250128161406_6_028:
	.byte		TIE   , Cn4 , v127
	.byte		N90   , En4 
	.byte		TIE   , An4 
	.byte	W96
	.byte	PEND
@ 029   ----------------------------------------
	.byte		N90   , Fn4 
	.byte	W90
	.byte		EOT   , Cn4 
	.byte	W06
@ 030   ----------------------------------------
	.byte		N90   , Dn4 
	.byte		N90   , Fs4 
	.byte	W90
	.byte		EOT   , An4 
	.byte	W06
@ 031   ----------------------------------------
feb20250128161406_6_031:
	.byte		N90   , En4 , v127
	.byte		N90   , Gn4 
	.byte		N90   , Bn4 
	.byte	W96
	.byte	PEND
@ 032   ----------------------------------------
	.byte	PATT
	 .word	feb20250128161406_6_028
@ 033   ----------------------------------------
	.byte		N90   , Fn4 , v127
	.byte	W90
	.byte		EOT   , Cn4 
	.byte	W06
@ 034   ----------------------------------------
	.byte		N90   , Dn4 
	.byte		N90   , Fs4 
	.byte	W90
	.byte		EOT   , An4 
	.byte	W06
@ 035   ----------------------------------------
	.byte	PATT
	 .word	feb20250128161406_6_031
@ 036   ----------------------------------------
feb20250128161406_6_036:
	.byte		N72   , Fs4 , v127
	.byte		N72   , An4 
	.byte		N72   , Dn5 
	.byte	W72
	.byte	PEND
@ 037   ----------------------------------------
feb20250128161406_6_037:
	.byte		N72   , En4 , v127
	.byte		N72   , An4 
	.byte		N72   , Cs5 
	.byte	W72
	.byte	PEND
@ 038   ----------------------------------------
feb20250128161406_6_038:
	.byte		N72   , Dn4 , v127
	.byte		N72   , An4 
	.byte		N72   , Cn5 
	.byte	W72
	.byte	PEND
@ 039   ----------------------------------------
	.byte		        Dn4 
	.byte		N72   , Gn4 
	.byte		N72   , Bn4 
	.byte	W72
@ 040   ----------------------------------------
	.byte	PATT
	 .word	feb20250128161406_6_036
@ 041   ----------------------------------------
	.byte	PATT
	 .word	feb20250128161406_6_037
@ 042   ----------------------------------------
	.byte	PATT
	 .word	feb20250128161406_6_038
@ 043   ----------------------------------------
	.byte		N66   , Dn4 , v127
	.byte		N66   , Gn4 
	.byte		N66   , Bn4 
	.byte	W72
@ 044   ----------------------------------------
feb20250128161406_6_044:
	.byte		N72   , En4 , v127
	.byte		N72   , Gn4 
	.byte		N72   , Bn4 
	.byte	W72
	.byte	PEND
@ 045   ----------------------------------------
feb20250128161406_6_045:
	.byte		N72   , Cn4 , v127
	.byte		N72   , Fn4 
	.byte		N72   , An4 
	.byte	W72
	.byte	PEND
@ 046   ----------------------------------------
feb20250128161406_6_046:
	.byte		N72   , Cn4 , v127
	.byte		N72   , En4 
	.byte		N72   , Gn4 
	.byte	W72
	.byte	PEND
@ 047   ----------------------------------------
	.byte		N66   , Dn4 
	.byte		N66   , Fs4 
	.byte		N24   , An4 
	.byte	W24
	.byte		        Bn4 
	.byte	W24
	.byte		        Cn5 
	.byte	W24
@ 048   ----------------------------------------
	.byte	PATT
	 .word	feb20250128161406_6_044
@ 049   ----------------------------------------
	.byte	PATT
	 .word	feb20250128161406_6_045
@ 050   ----------------------------------------
	.byte	PATT
	 .word	feb20250128161406_6_046
@ 051   ----------------------------------------
	.byte		N72   , Cs4 , v127
	.byte		N72   , En4 
	.byte		N72   , An4 
	.byte	W72
@ 052   ----------------------------------------
	.byte	W24
	.byte		N15   , Dn4 
	.byte		N15   , Fn4 
	.byte		N15   , An4 
	.byte		N15   , Dn5 
	.byte	W48
	.byte		N11   , Dn4 
	.byte		N11   , Fn4 
	.byte		N11   , An4 
	.byte		N11   , Dn5 
	.byte	W16
	.byte		N05   , Dn4 
	.byte		N05   , Fn4 
	.byte		N05   , An4 
	.byte		N05   , Dn5 
	.byte	W08
@ 053   ----------------------------------------
feb20250128161406_6_053:
	.byte	W24
	.byte		N15   , En4 , v127
	.byte		N15   , Gn4 
	.byte		N15   , Bn4 
	.byte		N15   , Dn5 
	.byte	W48
	.byte		N11   , En4 
	.byte		N11   , Gn4 
	.byte		N11   , Bn4 
	.byte		N11   , Dn5 
	.byte	W16
	.byte		N05   , En4 
	.byte		N05   , Gn4 
	.byte		N05   , Bn4 
	.byte		N05   , Dn5 
	.byte	W08
	.byte	PEND
@ 054   ----------------------------------------
	.byte	W24
	.byte		N15   , Fn4 
	.byte		N15   , An4 
	.byte		N15   , Cn5 
	.byte		N15   , Dn5 
	.byte	W48
	.byte		N11   , Fn4 
	.byte		N11   , An4 
	.byte		N11   , Cn5 
	.byte		N11   , Dn5 
	.byte	W16
	.byte		N05   , Fn4 
	.byte		N05   , An4 
	.byte		N05   , Cn5 
	.byte		N05   , Dn5 
	.byte	W08
@ 055   ----------------------------------------
	.byte	PATT
	 .word	feb20250128161406_6_053
@ 056   ----------------------------------------
	.byte	W24
	.byte		N15   , Dn4 , v127
	.byte		N15   , Fs4 
	.byte		N15   , An4 
	.byte		N15   , Dn5 
	.byte	W48
	.byte		N11   , Dn4 
	.byte		N11   , Fs4 
	.byte		N11   , An4 
	.byte		N11   , Dn5 
	.byte	W16
	.byte		N05   , Dn4 
	.byte		N05   , Fs4 
	.byte		N05   , An4 
	.byte		N05   , Dn5 
	.byte	W08
@ 057   ----------------------------------------
	.byte	PATT
	 .word	feb20250128161406_6_053
@ 058   ----------------------------------------
	.byte	W24
	.byte		N15   , Fs4 , v127
	.byte		N15   , An4 
	.byte		N15   , Cn5 
	.byte		N15   , Dn5 
	.byte	W48
	.byte		N11   , Fs4 
	.byte		N11   , An4 
	.byte		N11   , Cn5 
	.byte		N11   , Dn5 
	.byte	W16
	.byte		N05   , Fs4 
	.byte		N05   , An4 
	.byte		N05   , Cn5 
	.byte		N05   , Dn5 
	.byte	W08
@ 059   ----------------------------------------
	.byte		TIE   , En4 
	.byte		TIE   , Gn4 
	.byte		TIE   , Bn4 
	.byte		TIE   , En5 
	.byte	W96
@ 060   ----------------------------------------
	.byte	W42
	.byte		EOT   , En4 
	.byte		        Gn4 
	.byte		        Bn4 
	.byte		        En5 
	.byte	W52
	.byte	W01
	.byte	GOTO
	 .word	feb20250128161406_6_B1
feb20250128161406_6_B2:
	.byte	FINE

@**************** Track 7 (Midi-Chn.8) ****************@

feb20250128161406_7:
	.byte	KEYSH , feb20250128161406_key+0
@ 000   ----------------------------------------
	.byte		VOICE , 60
	.byte		MODT  , 0
	.byte		LFOS  , 44
	.byte		PAN   , c_v-10
	.byte		VOL   , 127*feb20250128161406_mvl/mxv
	.byte	W96
@ 001   ----------------------------------------
	.byte	W96
@ 002   ----------------------------------------
	.byte	W96
@ 003   ----------------------------------------
	.byte	W96
@ 004   ----------------------------------------
	.byte	W96
@ 005   ----------------------------------------
	.byte	W96
@ 006   ----------------------------------------
	.byte	W96
@ 007   ----------------------------------------
	.byte	W96
@ 008   ----------------------------------------
	.byte	W96
@ 009   ----------------------------------------
	.byte	W96
@ 010   ----------------------------------------
	.byte	W96
@ 011   ----------------------------------------
	.byte	W96
feb20250128161406_7_B1:
@ 012   ----------------------------------------
	.byte	W96
@ 013   ----------------------------------------
	.byte	W96
@ 014   ----------------------------------------
	.byte	W96
@ 015   ----------------------------------------
	.byte	W96
@ 016   ----------------------------------------
	.byte	W96
@ 017   ----------------------------------------
	.byte	W96
@ 018   ----------------------------------------
	.byte	W96
@ 019   ----------------------------------------
	.byte	W96
@ 020   ----------------------------------------
	.byte		N32   , En4 , v127
	.byte	W36
	.byte		N05   , Fs4 
	.byte	W06
	.byte		        Gn4 
	.byte	W06
	.byte		N32   , Dn4 
	.byte	W36
	.byte		N05   
	.byte	W06
	.byte		        Cn4 
	.byte	W06
@ 021   ----------------------------------------
	.byte		N15   , Bn3 
	.byte	W16
	.byte		        An3 
	.byte	W16
	.byte		        Gn3 
	.byte	W16
	.byte		N42   , Bn3 
	.byte	W48
@ 022   ----------------------------------------
	.byte		N15   , En4 
	.byte	W16
	.byte		        Dn4 
	.byte	W16
	.byte		        En4 
	.byte	W16
	.byte		        Gn4 
	.byte	W16
	.byte		        An4 
	.byte	W16
	.byte		        Bn4 
	.byte	W16
@ 023   ----------------------------------------
	.byte		        Cn5 
	.byte	W16
	.byte		        Bn4 
	.byte	W16
	.byte		        Cn5 
	.byte	W16
	.byte		N42   , An4 
	.byte	W48
@ 024   ----------------------------------------
	.byte		N32   , Gn4 
	.byte	W36
	.byte		N05   , Fs4 
	.byte	W06
	.byte		        Gn4 
	.byte	W06
	.byte		N32   , En4 
	.byte	W36
	.byte		N05   , Fs4 
	.byte	W06
	.byte		        Gn4 
	.byte	W06
@ 025   ----------------------------------------
	.byte		N15   , Bn4 
	.byte	W16
	.byte		        An4 
	.byte	W16
	.byte		        Gn4 
	.byte	W16
	.byte		        En4 
	.byte	W16
	.byte		        Dn4 
	.byte	W16
	.byte		        En4 
	.byte	W16
@ 026   ----------------------------------------
	.byte		N07   , Bn3 
	.byte	W08
	.byte		        Gn3 
	.byte	W08
	.byte		        Bn3 
	.byte	W08
	.byte		        En4 
	.byte	W08
	.byte		        Bn3 
	.byte	W08
	.byte		        En4 
	.byte	W08
	.byte		        Gn4 
	.byte	W08
	.byte		        En4 
	.byte	W08
	.byte		        Gn4 
	.byte	W08
	.byte		        Bn4 
	.byte	W08
	.byte		        Gn4 
	.byte	W08
	.byte		        Bn4 
	.byte	W08
@ 027   ----------------------------------------
	.byte		N90   , Cn5 
	.byte	W96
@ 028   ----------------------------------------
	.byte		N15   , Cn4 
	.byte	W16
	.byte		        An3 
	.byte	W16
	.byte		        Cn4 
	.byte	W16
	.byte		        En4 
	.byte	W16
	.byte		        Dn4 
	.byte	W16
	.byte		        Cn4 
	.byte	W16
@ 029   ----------------------------------------
	.byte		        Fn4 
	.byte	W16
	.byte		        Cn4 
	.byte	W16
	.byte		        Fn4 
	.byte	W16
	.byte		        An4 
	.byte	W16
	.byte		        Gn4 
	.byte	W16
	.byte		        Fn4 
	.byte	W16
@ 030   ----------------------------------------
	.byte		N07   , Dn4 
	.byte	W08
	.byte		        An3 
	.byte	W08
	.byte		        Dn4 
	.byte	W08
	.byte		        Fs4 
	.byte	W08
	.byte		        Dn4 
	.byte	W08
	.byte		        Fs4 
	.byte	W08
	.byte		N15   , An4 
	.byte	W16
	.byte		        Gn4 
	.byte	W16
	.byte		        Fs4 
	.byte	W16
@ 031   ----------------------------------------
	.byte		        Gn4 
	.byte	W16
	.byte		        En4 
	.byte	W16
	.byte		        Gn4 
	.byte	W16
	.byte		N20   , Dn4 
	.byte	W24
	.byte		        Bn3 
	.byte	W24
@ 032   ----------------------------------------
	.byte		N15   , An3 
	.byte	W16
	.byte		        Gn3 
	.byte	W16
	.byte		        An3 
	.byte	W16
	.byte		        En3 
	.byte	W16
	.byte		        Dn3 
	.byte	W16
	.byte		        En3 
	.byte	W16
@ 033   ----------------------------------------
	.byte		        Fn3 
	.byte	W16
	.byte		        An3 
	.byte	W16
	.byte		        Gn3 
	.byte	W16
	.byte		        Fn3 
	.byte	W16
	.byte		        Cn3 
	.byte	W16
	.byte		        Fn3 
	.byte	W16
@ 034   ----------------------------------------
	.byte		N07   , Fs3 
	.byte	W08
	.byte		        Dn3 
	.byte	W08
	.byte		        Fs3 
	.byte	W08
	.byte		        An3 
	.byte	W08
	.byte		        Fs3 
	.byte	W08
	.byte		        An3 
	.byte	W08
	.byte		        Dn4 
	.byte	W08
	.byte		        Cn4 
	.byte	W08
	.byte		        Bn3 
	.byte	W08
	.byte		        An3 
	.byte	W08
	.byte		        Gn3 
	.byte	W08
	.byte		        Fs3 
	.byte	W08
@ 035   ----------------------------------------
	.byte		N20   , Gn3 
	.byte	W24
	.byte		        An3 
	.byte	W24
	.byte		N42   , Bn3 
	.byte	W48
@ 036   ----------------------------------------
	.byte		N20   , An3 
	.byte	W24
	.byte		        Fs3 
	.byte	W24
	.byte		        An3 
	.byte	W24
@ 037   ----------------------------------------
	.byte		        Dn4 
	.byte	W24
	.byte		N11   , En4 
	.byte	W12
	.byte		        Dn4 
	.byte	W12
	.byte		        Cs4 
	.byte	W12
	.byte		        Bn3 
	.byte	W12
@ 038   ----------------------------------------
	.byte		N20   , An3 
	.byte	W24
	.byte		        Bn3 
	.byte	W24
	.byte		        Cn4 
	.byte	W24
@ 039   ----------------------------------------
	.byte		N11   , Dn4 
	.byte	W12
	.byte		        Cn4 
	.byte	W12
	.byte		        Bn3 
	.byte	W12
	.byte		        An3 
	.byte	W12
	.byte		        Gn3 
	.byte	W12
	.byte		        Fs3 
	.byte	W12
@ 040   ----------------------------------------
	.byte		N20   , Dn3 
	.byte	W24
	.byte		        An3 
	.byte	W24
	.byte		        Bn3 
	.byte	W24
@ 041   ----------------------------------------
	.byte		        An3 
	.byte	W24
	.byte		        En3 
	.byte	W24
	.byte		        Cs4 
	.byte	W24
@ 042   ----------------------------------------
	.byte		        Cn4 
	.byte	W24
	.byte		        An3 
	.byte	W24
	.byte		        Cn4 
	.byte	W24
@ 043   ----------------------------------------
	.byte		N11   , Dn4 
	.byte	W12
	.byte		        Bn3 
	.byte	W12
	.byte		        Dn4 
	.byte	W12
	.byte		        Fs4 
	.byte	W12
	.byte		        Gn4 
	.byte	W12
	.byte		        Dn4 
	.byte	W12
@ 044   ----------------------------------------
	.byte		N20   , En4 
	.byte	W24
	.byte		        Bn3 
	.byte	W24
	.byte		        En4 
	.byte	W24
@ 045   ----------------------------------------
	.byte		        Fn4 
	.byte	W24
	.byte		N11   , En4 
	.byte	W12
	.byte		        Dn4 
	.byte	W12
	.byte		N20   , Cn4 
	.byte	W24
@ 046   ----------------------------------------
	.byte		N11   , Gn3 
	.byte	W12
	.byte		        En3 
	.byte	W12
	.byte		        Gn3 
	.byte	W12
	.byte		        Bn3 
	.byte	W12
	.byte		        Cn4 
	.byte	W12
	.byte		        En4 
	.byte	W12
@ 047   ----------------------------------------
	.byte		        Fs4 
	.byte	W12
	.byte		        En4 
	.byte	W12
	.byte		        Dn4 
	.byte	W12
	.byte		        En4 
	.byte	W12
	.byte		        Dn4 
	.byte	W12
	.byte		        An3 
	.byte	W12
@ 048   ----------------------------------------
	.byte		N20   , Bn3 
	.byte	W24
	.byte		        Cn4 
	.byte	W24
	.byte		        Dn4 
	.byte	W24
@ 049   ----------------------------------------
	.byte		N11   , Cn4 
	.byte	W12
	.byte		        Bn3 
	.byte	W12
	.byte		        An3 
	.byte	W12
	.byte		        Gn3 
	.byte	W12
	.byte		N20   , Fn3 
	.byte	W24
@ 050   ----------------------------------------
	.byte		N11   , Gn3 
	.byte	W12
	.byte		        En3 
	.byte	W12
	.byte		        Cn4 
	.byte	W12
	.byte		        An3 
	.byte	W12
	.byte		        En4 
	.byte	W12
	.byte		        Cn4 
	.byte	W12
@ 051   ----------------------------------------
	.byte		        An3 
	.byte	W12
	.byte		        Bn3 
	.byte	W12
	.byte		        Cs4 
	.byte	W12
	.byte		        Dn4 
	.byte	W12
	.byte		N20   , En4 
	.byte	W24
@ 052   ----------------------------------------
	.byte		N90   , Dn4 
	.byte	W96
@ 053   ----------------------------------------
	.byte	W96
@ 054   ----------------------------------------
	.byte	W96
@ 055   ----------------------------------------
	.byte	W96
@ 056   ----------------------------------------
	.byte	W96
@ 057   ----------------------------------------
	.byte	W96
@ 058   ----------------------------------------
	.byte	W96
@ 059   ----------------------------------------
	.byte	W96
@ 060   ----------------------------------------
	.byte	W92
	.byte	W03
	.byte	GOTO
	 .word	feb20250128161406_7_B1
feb20250128161406_7_B2:
	.byte	FINE

@**************** Track 8 (Midi-Chn.9) ****************@

feb20250128161406_8:
	.byte	KEYSH , feb20250128161406_key+0
@ 000   ----------------------------------------
	.byte		VOICE , 127
	.byte		MODT  , 0
	.byte		LFOS  , 44
	.byte		VOL   , 127*feb20250128161406_mvl/mxv
	.byte		PAN   , c_v+0
	.byte		N90   , An1 , v127
	.byte		N90   , Bn1 
	.byte		N90   , Cn2 
	.byte		N90   , Dn2 
	.byte		N90   , An2 
	.byte	W96
@ 001   ----------------------------------------
feb20250128161406_8_001:
	.byte	W48
	.byte		N15   , En1 , v127
	.byte	W16
	.byte		N15   
	.byte	W16
	.byte		N15   
	.byte	W16
	.byte	PEND
@ 002   ----------------------------------------
feb20250128161406_8_002:
	.byte		N90   , An1 , v127
	.byte		N90   , Bn1 
	.byte		N90   , Cn2 
	.byte		N90   , Dn2 
	.byte		N90   , An2 
	.byte	W96
	.byte	PEND
@ 003   ----------------------------------------
	.byte		N42   , An1 
	.byte		N42   , Bn1 
	.byte		N42   , Cn2 
	.byte		N42   , Dn2 
	.byte		N42   , An2 
	.byte	W48
	.byte		        An1 
	.byte		N42   , Bn1 
	.byte		N42   , Cn2 
	.byte		N42   , Dn2 
	.byte		N42   , An2 
	.byte	W48
@ 004   ----------------------------------------
	.byte	PATT
	 .word	feb20250128161406_8_002
@ 005   ----------------------------------------
	.byte	PATT
	 .word	feb20250128161406_8_001
@ 006   ----------------------------------------
	.byte	PATT
	 .word	feb20250128161406_8_002
@ 007   ----------------------------------------
	.byte		N42   , An1 , v127
	.byte		N42   , Bn1 
	.byte		N42   , Cn2 
	.byte		N42   , Dn2 
	.byte		N42   , An2 
	.byte	W48
	.byte		N20   , An1 
	.byte		N20   , Bn1 
	.byte		N20   , Cn2 
	.byte		N20   , Dn2 
	.byte		N20   , An2 
	.byte	W24
	.byte		        An1 
	.byte		N20   , Bn1 
	.byte		N20   , Cn2 
	.byte		N20   , Dn2 
	.byte		N20   , An2 
	.byte	W24
@ 008   ----------------------------------------
feb20250128161406_8_008:
	.byte		N20   , Cn1 , v127
	.byte		N20   , An1 
	.byte		N20   , Bn1 
	.byte		N20   , Cn2 
	.byte		N20   , Dn2 
	.byte		N20   , An2 
	.byte	W24
	.byte		        Cn1 
	.byte	W24
	.byte		N20   
	.byte	W24
	.byte		N20   
	.byte	W24
	.byte	PEND
@ 009   ----------------------------------------
	.byte		N20   
	.byte	W24
	.byte		N20   
	.byte	W24
	.byte		N20   
	.byte	W24
	.byte		N07   
	.byte		N07   , En1 
	.byte	W08
	.byte		N07   
	.byte	W08
	.byte		N07   
	.byte	W08
@ 010   ----------------------------------------
	.byte	PATT
	 .word	feb20250128161406_8_008
@ 011   ----------------------------------------
	.byte		N20   , Cn1 , v127
	.byte	W24
	.byte		N20   
	.byte	W24
	.byte		N07   
	.byte		N07   , Dn2 
	.byte	W08
	.byte		N07   
	.byte	W08
	.byte		        Cn2 
	.byte	W08
	.byte		        Cn1 
	.byte		N07   , En1 
	.byte		N07   , Bn1 
	.byte	W08
	.byte		        En1 
	.byte		N07   , Bn1 
	.byte	W08
	.byte		        En1 
	.byte		N07   , An1 
	.byte	W08
feb20250128161406_8_B1:
@ 012   ----------------------------------------
feb20250128161406_8_012:
	.byte		N15   , Cn1 , v127
	.byte		N15   , An2 
	.byte	W16
	.byte		N07   , Cn1 
	.byte	W08
	.byte		        En1 
	.byte	W08
	.byte		N15   , Cn1 
	.byte	W16
	.byte		N15   
	.byte	W16
	.byte		N07   
	.byte	W08
	.byte		        En1 
	.byte	W08
	.byte		N15   , Cn1 
	.byte	W16
	.byte	PEND
@ 013   ----------------------------------------
feb20250128161406_8_013:
	.byte		N15   , Cn1 , v127
	.byte	W16
	.byte		N07   
	.byte	W08
	.byte		        En1 
	.byte	W08
	.byte		N15   , Cn1 
	.byte	W16
	.byte		N15   
	.byte	W16
	.byte		N07   
	.byte	W08
	.byte		        En1 
	.byte	W08
	.byte		        Cn1 
	.byte	W08
	.byte		        En1 
	.byte	W08
	.byte	PEND
@ 014   ----------------------------------------
feb20250128161406_8_014:
	.byte		N15   , Cn1 , v127
	.byte	W16
	.byte		N07   
	.byte	W08
	.byte		        En1 
	.byte	W08
	.byte		N15   , Cn1 
	.byte	W16
	.byte		N15   
	.byte	W16
	.byte		N07   
	.byte	W08
	.byte		        En1 
	.byte	W08
	.byte		N15   , Cn1 
	.byte	W16
	.byte	PEND
@ 015   ----------------------------------------
feb20250128161406_8_015:
	.byte		N15   , Cn1 , v127
	.byte	W16
	.byte		N07   
	.byte	W08
	.byte		        En1 
	.byte	W08
	.byte		N15   , Cn1 
	.byte	W16
	.byte		N07   
	.byte		N07   , Dn2 
	.byte	W08
	.byte		N07   
	.byte	W08
	.byte		        Cn1 
	.byte		N07   , Cn2 
	.byte	W08
	.byte		        Cn1 
	.byte		N07   , En1 
	.byte		N07   , Bn1 
	.byte	W08
	.byte		        Cn1 
	.byte		N07   , En1 
	.byte		N07   , Bn1 
	.byte	W08
	.byte		        Cn1 
	.byte		N07   , En1 
	.byte		N07   , An1 
	.byte	W08
	.byte	PEND
@ 016   ----------------------------------------
	.byte	PATT
	 .word	feb20250128161406_8_012
@ 017   ----------------------------------------
	.byte	PATT
	 .word	feb20250128161406_8_013
@ 018   ----------------------------------------
	.byte	PATT
	 .word	feb20250128161406_8_014
@ 019   ----------------------------------------
	.byte	PATT
	 .word	feb20250128161406_8_015
@ 020   ----------------------------------------
	.byte	PATT
	 .word	feb20250128161406_8_012
@ 021   ----------------------------------------
	.byte	PATT
	 .word	feb20250128161406_8_013
@ 022   ----------------------------------------
	.byte	PATT
	 .word	feb20250128161406_8_014
@ 023   ----------------------------------------
	.byte	PATT
	 .word	feb20250128161406_8_015
@ 024   ----------------------------------------
	.byte	PATT
	 .word	feb20250128161406_8_012
@ 025   ----------------------------------------
	.byte	PATT
	 .word	feb20250128161406_8_013
@ 026   ----------------------------------------
	.byte	PATT
	 .word	feb20250128161406_8_014
@ 027   ----------------------------------------
	.byte	PATT
	 .word	feb20250128161406_8_015
@ 028   ----------------------------------------
	.byte	PATT
	 .word	feb20250128161406_8_012
@ 029   ----------------------------------------
	.byte	PATT
	 .word	feb20250128161406_8_013
@ 030   ----------------------------------------
	.byte	PATT
	 .word	feb20250128161406_8_014
@ 031   ----------------------------------------
	.byte	PATT
	 .word	feb20250128161406_8_015
@ 032   ----------------------------------------
	.byte	PATT
	 .word	feb20250128161406_8_012
@ 033   ----------------------------------------
	.byte	PATT
	 .word	feb20250128161406_8_013
@ 034   ----------------------------------------
	.byte	PATT
	 .word	feb20250128161406_8_014
@ 035   ----------------------------------------
	.byte	PATT
	 .word	feb20250128161406_8_015
@ 036   ----------------------------------------
feb20250128161406_8_036:
	.byte		N20   , Cn1 , v127
	.byte		N20   , An2 
	.byte	W24
	.byte		        Cn1 
	.byte	W24
	.byte		N15   , En1 
	.byte	W16
	.byte		N07   , Cn1 
	.byte	W08
	.byte	PEND
@ 037   ----------------------------------------
feb20250128161406_8_037:
	.byte		N20   , Cn1 , v127
	.byte	W24
	.byte		N20   
	.byte	W24
	.byte		N07   , En1 
	.byte		N07   , Dn2 
	.byte	W08
	.byte		        En1 
	.byte		N07   , Cn2 
	.byte	W08
	.byte		        En1 
	.byte		N07   , Bn1 
	.byte	W08
	.byte	PEND
@ 038   ----------------------------------------
feb20250128161406_8_038:
	.byte		N20   , Cn1 , v127
	.byte		N20   , An1 
	.byte	W24
	.byte		        Cn1 
	.byte	W24
	.byte		N15   , En1 
	.byte	W16
	.byte		N07   , Cn1 
	.byte	W08
	.byte	PEND
@ 039   ----------------------------------------
feb20250128161406_8_039:
	.byte		N07   , En1 , v127
	.byte		N07   , Dn2 
	.byte	W08
	.byte		N07   
	.byte	W08
	.byte		N07   
	.byte	W08
	.byte		        En1 
	.byte		N07   , Cn2 
	.byte	W08
	.byte		N07   
	.byte	W08
	.byte		N07   
	.byte	W08
	.byte		        En1 
	.byte		N07   , Bn1 
	.byte	W08
	.byte		        En1 
	.byte		N07   , Bn1 
	.byte	W08
	.byte		        En1 
	.byte		N07   , Bn1 
	.byte	W08
	.byte	PEND
@ 040   ----------------------------------------
feb20250128161406_8_040:
	.byte		N20   , Cn1 , v127
	.byte		N20   , An1 
	.byte		N20   , An2 
	.byte	W24
	.byte		        Cn1 
	.byte	W24
	.byte		N15   , En1 
	.byte	W16
	.byte		N07   , Cn1 
	.byte	W08
	.byte	PEND
@ 041   ----------------------------------------
	.byte	PATT
	 .word	feb20250128161406_8_037
@ 042   ----------------------------------------
	.byte	PATT
	 .word	feb20250128161406_8_038
@ 043   ----------------------------------------
	.byte	PATT
	 .word	feb20250128161406_8_039
@ 044   ----------------------------------------
	.byte	PATT
	 .word	feb20250128161406_8_036
@ 045   ----------------------------------------
	.byte	PATT
	 .word	feb20250128161406_8_037
@ 046   ----------------------------------------
	.byte	PATT
	 .word	feb20250128161406_8_038
@ 047   ----------------------------------------
	.byte	PATT
	 .word	feb20250128161406_8_039
@ 048   ----------------------------------------
	.byte	PATT
	 .word	feb20250128161406_8_040
@ 049   ----------------------------------------
	.byte	PATT
	 .word	feb20250128161406_8_037
@ 050   ----------------------------------------
	.byte	PATT
	 .word	feb20250128161406_8_038
@ 051   ----------------------------------------
	.byte	PATT
	 .word	feb20250128161406_8_039
@ 052   ----------------------------------------
	.byte	PATT
	 .word	feb20250128161406_8_012
@ 053   ----------------------------------------
	.byte	PATT
	 .word	feb20250128161406_8_013
@ 054   ----------------------------------------
	.byte	PATT
	 .word	feb20250128161406_8_014
@ 055   ----------------------------------------
	.byte	PATT
	 .word	feb20250128161406_8_015
@ 056   ----------------------------------------
	.byte	PATT
	 .word	feb20250128161406_8_012
@ 057   ----------------------------------------
	.byte	PATT
	 .word	feb20250128161406_8_013
@ 058   ----------------------------------------
	.byte	PATT
	 .word	feb20250128161406_8_014
@ 059   ----------------------------------------
	.byte	PATT
	 .word	feb20250128161406_8_014
@ 060   ----------------------------------------
	.byte		N07   , Cn1 , v127
	.byte		N07   , Dn2 
	.byte		N07   , An2 
	.byte	W08
	.byte		        Dn2 
	.byte	W08
	.byte		N07   
	.byte	W08
	.byte		        Cn1 
	.byte		N07   , Cn2 
	.byte	W08
	.byte		N07   
	.byte	W08
	.byte		N07   
	.byte	W08
	.byte		        Cn1 
	.byte		N07   , En1 
	.byte		N07   , Bn1 
	.byte		N07   , An2 
	.byte	W08
	.byte		        Bn1 
	.byte	W08
	.byte		        En1 
	.byte		N07   , Bn1 
	.byte	W08
	.byte		        Cn1 
	.byte		N07   , An1 
	.byte	W08
	.byte		        En1 
	.byte		N07   , An1 
	.byte	W08
	.byte		N07   
	.byte	W07
	.byte	GOTO
	 .word	feb20250128161406_8_B1
feb20250128161406_8_B2:
	.byte	FINE

@**************** Track 9 (Midi-Chn.11) ****************@

feb20250128161406_9:
	.byte	KEYSH , feb20250128161406_key+0
@ 000   ----------------------------------------
	.byte		VOICE , 47
	.byte		MODT  , 0
	.byte		LFOS  , 44
	.byte		PAN   , c_v+40
	.byte		VOL   , 103*feb20250128161406_mvl/mxv
	.byte	W96
@ 001   ----------------------------------------
	.byte	W96
@ 002   ----------------------------------------
	.byte	W96
@ 003   ----------------------------------------
	.byte	W96
@ 004   ----------------------------------------
	.byte		N90   , En1 , v127
	.byte	W96
@ 005   ----------------------------------------
	.byte		        Dn1 
	.byte	W96
@ 006   ----------------------------------------
	.byte		        Cn1 
	.byte	W96
@ 007   ----------------------------------------
	.byte		        Fn1 
	.byte	W96
@ 008   ----------------------------------------
feb20250128161406_9_008:
	.byte		N20   , En1 , v127
	.byte	W24
	.byte		N20   
	.byte	W24
	.byte		N20   
	.byte	W24
	.byte		N20   
	.byte	W24
	.byte	PEND
@ 009   ----------------------------------------
	.byte	PATT
	 .word	feb20250128161406_9_008
@ 010   ----------------------------------------
	.byte	PATT
	 .word	feb20250128161406_9_008
@ 011   ----------------------------------------
	.byte	PATT
	 .word	feb20250128161406_9_008
feb20250128161406_9_B1:
@ 012   ----------------------------------------
feb20250128161406_9_012:
	.byte		N07   , En1 , v127
	.byte	W08
	.byte		N07   
	.byte	W08
	.byte		N07   
	.byte	W08
	.byte		        En2 
	.byte	W08
	.byte		        En1 
	.byte	W08
	.byte		N07   
	.byte	W08
	.byte		N07   
	.byte	W08
	.byte		N07   
	.byte	W08
	.byte		N07   
	.byte	W08
	.byte		        En2 
	.byte	W08
	.byte		        En1 
	.byte	W08
	.byte		N07   
	.byte	W08
	.byte	PEND
@ 013   ----------------------------------------
	.byte	PATT
	 .word	feb20250128161406_9_012
@ 014   ----------------------------------------
	.byte	PATT
	 .word	feb20250128161406_9_012
@ 015   ----------------------------------------
feb20250128161406_9_015:
	.byte		N07   , Fn1 , v127
	.byte	W08
	.byte		N07   
	.byte	W08
	.byte		N07   
	.byte	W08
	.byte		        Fn2 
	.byte	W08
	.byte		        Fn1 
	.byte	W08
	.byte		N07   
	.byte	W08
	.byte		N07   
	.byte	W08
	.byte		N07   
	.byte	W08
	.byte		N07   
	.byte	W08
	.byte		        Fn2 
	.byte	W08
	.byte		        Fn1 
	.byte	W08
	.byte		N07   
	.byte	W08
	.byte	PEND
@ 016   ----------------------------------------
	.byte	PATT
	 .word	feb20250128161406_9_012
@ 017   ----------------------------------------
	.byte	PATT
	 .word	feb20250128161406_9_012
@ 018   ----------------------------------------
	.byte	PATT
	 .word	feb20250128161406_9_012
@ 019   ----------------------------------------
	.byte	PATT
	 .word	feb20250128161406_9_015
@ 020   ----------------------------------------
	.byte	PATT
	 .word	feb20250128161406_9_012
@ 021   ----------------------------------------
	.byte	PATT
	 .word	feb20250128161406_9_012
@ 022   ----------------------------------------
	.byte	PATT
	 .word	feb20250128161406_9_012
@ 023   ----------------------------------------
	.byte	PATT
	 .word	feb20250128161406_9_015
@ 024   ----------------------------------------
	.byte	PATT
	 .word	feb20250128161406_9_012
@ 025   ----------------------------------------
	.byte	PATT
	 .word	feb20250128161406_9_012
@ 026   ----------------------------------------
	.byte	PATT
	 .word	feb20250128161406_9_012
@ 027   ----------------------------------------
	.byte	PATT
	 .word	feb20250128161406_9_015
@ 028   ----------------------------------------
feb20250128161406_9_028:
	.byte		N15   , En1 , v127
	.byte	W16
	.byte		N07   
	.byte	W08
	.byte		N15   , An1 
	.byte	W16
	.byte		N07   , Cn2 
	.byte	W08
	.byte		N15   , En1 
	.byte	W16
	.byte		N07   
	.byte	W08
	.byte		N15   , An1 
	.byte	W16
	.byte		N07   , Cn2 
	.byte	W08
	.byte	PEND
@ 029   ----------------------------------------
feb20250128161406_9_029:
	.byte		N15   , Fn1 , v127
	.byte	W16
	.byte		N07   
	.byte	W08
	.byte		N15   , An1 
	.byte	W16
	.byte		N07   , Cn2 
	.byte	W08
	.byte		N15   , Fn1 
	.byte	W16
	.byte		N07   
	.byte	W08
	.byte		N15   , An1 
	.byte	W16
	.byte		N07   , Cn2 
	.byte	W08
	.byte	PEND
@ 030   ----------------------------------------
feb20250128161406_9_030:
	.byte		N15   , Fs1 , v127
	.byte	W16
	.byte		N07   
	.byte	W08
	.byte		N15   , An1 
	.byte	W16
	.byte		N07   , Dn2 
	.byte	W08
	.byte		N15   , Fs1 
	.byte	W16
	.byte		N07   
	.byte	W08
	.byte		N15   , An1 
	.byte	W16
	.byte		N07   , Dn2 
	.byte	W08
	.byte	PEND
@ 031   ----------------------------------------
feb20250128161406_9_031:
	.byte		N15   , Gn1 , v127
	.byte	W16
	.byte		N07   
	.byte	W08
	.byte		N15   , Bn1 
	.byte	W16
	.byte		N07   , En2 
	.byte	W08
	.byte		N15   , Gn1 
	.byte	W16
	.byte		N07   
	.byte	W08
	.byte		N15   , Bn1 
	.byte	W16
	.byte		N07   , En2 
	.byte	W08
	.byte	PEND
@ 032   ----------------------------------------
	.byte	PATT
	 .word	feb20250128161406_9_028
@ 033   ----------------------------------------
	.byte	PATT
	 .word	feb20250128161406_9_029
@ 034   ----------------------------------------
	.byte	PATT
	 .word	feb20250128161406_9_030
@ 035   ----------------------------------------
	.byte	PATT
	 .word	feb20250128161406_9_031
@ 036   ----------------------------------------
feb20250128161406_9_036:
	.byte		N20   , An1 , v127
	.byte	W24
	.byte		        Dn2 
	.byte	W24
	.byte		        An1 
	.byte	W24
	.byte	PEND
@ 037   ----------------------------------------
feb20250128161406_9_037:
	.byte		N20   , Cs2 , v127
	.byte	W24
	.byte		        An1 
	.byte	W24
	.byte		        Cs2 
	.byte	W24
	.byte	PEND
@ 038   ----------------------------------------
feb20250128161406_9_038:
	.byte		N20   , Cn2 , v127
	.byte	W24
	.byte		        An1 
	.byte	W24
	.byte		        Cn2 
	.byte	W24
	.byte	PEND
@ 039   ----------------------------------------
feb20250128161406_9_039:
	.byte		N20   , Bn1 , v127
	.byte	W24
	.byte		        Cn2 
	.byte	W24
	.byte		        Dn2 
	.byte	W24
	.byte	PEND
@ 040   ----------------------------------------
	.byte	PATT
	 .word	feb20250128161406_9_036
@ 041   ----------------------------------------
	.byte	PATT
	 .word	feb20250128161406_9_037
@ 042   ----------------------------------------
	.byte	PATT
	 .word	feb20250128161406_9_038
@ 043   ----------------------------------------
	.byte	PATT
	 .word	feb20250128161406_9_039
@ 044   ----------------------------------------
feb20250128161406_9_044:
	.byte		N20   , En2 , v127
	.byte	W24
	.byte		        Bn1 
	.byte	W24
	.byte		        En2 
	.byte	W24
	.byte	PEND
@ 045   ----------------------------------------
feb20250128161406_9_045:
	.byte		N20   , Fn2 , v127
	.byte	W24
	.byte		        Cn2 
	.byte	W24
	.byte		        Fn2 
	.byte	W24
	.byte	PEND
@ 046   ----------------------------------------
feb20250128161406_9_046:
	.byte		N20   , Gn2 , v127
	.byte	W24
	.byte		        En2 
	.byte	W24
	.byte		        Gn2 
	.byte	W24
	.byte	PEND
@ 047   ----------------------------------------
	.byte		        An2 
	.byte	W24
	.byte		        Gn2 
	.byte	W24
	.byte		        Fs2 
	.byte	W24
@ 048   ----------------------------------------
	.byte	PATT
	 .word	feb20250128161406_9_044
@ 049   ----------------------------------------
	.byte	PATT
	 .word	feb20250128161406_9_045
@ 050   ----------------------------------------
	.byte	PATT
	 .word	feb20250128161406_9_046
@ 051   ----------------------------------------
	.byte		N20   , Cs3 , v127
	.byte	W24
	.byte		        Bn2 
	.byte	W24
	.byte		        An2 
	.byte	W24
@ 052   ----------------------------------------
feb20250128161406_9_052:
	.byte		N15   , Dn1 , v127
	.byte	W16
	.byte		N07   
	.byte	W08
	.byte		        Dn2 
	.byte	W08
	.byte		N15   , Dn1 
	.byte	W16
	.byte		N15   
	.byte	W16
	.byte		N07   
	.byte	W08
	.byte		        Dn2 
	.byte	W08
	.byte		N15   , Dn1 
	.byte	W16
	.byte	PEND
@ 053   ----------------------------------------
	.byte	PATT
	 .word	feb20250128161406_9_052
@ 054   ----------------------------------------
	.byte	PATT
	 .word	feb20250128161406_9_052
@ 055   ----------------------------------------
	.byte	PATT
	 .word	feb20250128161406_9_052
@ 056   ----------------------------------------
	.byte	PATT
	 .word	feb20250128161406_9_052
@ 057   ----------------------------------------
	.byte		N15   , En1 , v127
	.byte	W16
	.byte		N07   
	.byte	W08
	.byte		        En2 
	.byte	W08
	.byte		N15   , En1 
	.byte	W16
	.byte		N15   
	.byte	W16
	.byte		N07   
	.byte	W08
	.byte		        En2 
	.byte	W08
	.byte		N15   , En1 
	.byte	W16
@ 058   ----------------------------------------
	.byte	PATT
	 .word	feb20250128161406_9_052
@ 059   ----------------------------------------
	.byte		TIE   , En1 , v127
	.byte	W96
@ 060   ----------------------------------------
	.byte	W42
	.byte		EOT   
	.byte	W52
	.byte	W01
	.byte	GOTO
	 .word	feb20250128161406_9_B1
feb20250128161406_9_B2:
	.byte	FINE

@******************************************************@
	.align	2

feb20250128161406:
	.byte	9	@ NumTrks
	.byte	0	@ NumBlks
	.byte	feb20250128161406_pri	@ Priority
	.byte	feb20250128161406_rev	@ Reverb.

	.word	feb20250128161406_grp

	.word	feb20250128161406_1
	.word	feb20250128161406_2
	.word	feb20250128161406_3
	.word	feb20250128161406_4
	.word	feb20250128161406_5
	.word	feb20250128161406_6
	.word	feb20250128161406_7
	.word	feb20250128161406_8
	.word	feb20250128161406_9

	.end
