//Event file generated from Sappy .s format.
	#include "MPlayDef.event"

	#define	FallingFire_grp  voicegroup000
	#define	FallingFire_pri  0
	#define	FallingFire_rev  160
	#define	FallingFire_mvl  127
	#define	FallingFire_key  0
	#define	FallingFire_tbs  1
	#define	FallingFire_exg  0
	#define	FallingFire_cmp  1

	// .rodata
	//	FallingFire
	ALIGN 4


//**************** Track 1 (Midi-Chn.0) ****************//

FallingFire_001:
//  #01 //000   ----------------------------------------
 BYTE   KEYSH   FallingFire_key+0
Label_01A5AE6E:
 BYTE   TEMPO   80*FallingFire_tbs/2
 BYTE   VOICE   61
 BYTE   MODT 0
 BYTE   LFOS 44
 BYTE   PAN   c_v+20
 BYTE   VOL   30*FallingFire_mvl/mxv
 BYTE   W96
//  #01 //001   ----------------------------------------
 BYTE   W96
//  #01 //002   ----------------------------------------
 BYTE   W96
//  #01 //003   ----------------------------------------
 BYTE   W96
//  #01 //004   ----------------------------------------
 BYTE   W96
//  #01 //005   ----------------------------------------
 BYTE   W96
//  #01 //006   ----------------------------------------
 BYTE   W96
//  #01 //007   ----------------------------------------
 BYTE   W96
//  #01 //008   ----------------------------------------
Label_01A5AE82:
 BYTE   N36  Gn3  v127
 BYTE   W36
 BYTE   N12  En3
 BYTE   W12
 BYTE   N48  Bn3
 BYTE   W48
 BYTE   PEND 
//  #01 //009   ----------------------------------------
 BYTE   N36  As3
 BYTE   W36
 BYTE   N12  An3
 BYTE   W12
 BYTE   N16  Gn3
 BYTE   W16
 BYTE   An3
 BYTE   W16
 BYTE   As3
 BYTE   W16
//  #01 //010   ----------------------------------------
 BYTE   N36  Gn3
 BYTE   W36
 BYTE   N06  En3
 BYTE   W06
 BYTE   Dn3
 BYTE   W06
 BYTE   TIE  En3
 BYTE   W48
//  #01 //011   ----------------------------------------
 BYTE   W96
//  #01 //012   ----------------------------------------
 BYTE   EOT
//  #01 //013   ----------------------------------------
 BYTE   PATT
  POIN2 Label_01A5AE82
//  #01 //014   ----------------------------------------
 BYTE   N36  Cn4  v127
 BYTE   W36
 BYTE   N12  Dn4
 BYTE   W12
 BYTE   N16  En4
 BYTE   W16
 BYTE   Fs4
 BYTE   W16
 BYTE   Gn4
 BYTE   W16
//  #01 //015   ----------------------------------------
 BYTE   N36  En4
 BYTE   W36
 BYTE   N06  Dn4
 BYTE   W06
 BYTE   Cn4
 BYTE   W06
 BYTE   N96  Bn3
 BYTE   W48
//  #01 //016   ----------------------------------------
 BYTE   W48
 BYTE   N16  An3
 BYTE   W16
 BYTE   Bn3
 BYTE   W16
 BYTE   Cn4
 BYTE   W16
//  #01 //017   ----------------------------------------
Label_01A5AECD:
 BYTE   N16  Bn3  v127
 BYTE   W16
 BYTE   An3
 BYTE   W16
 BYTE   Bn3
 BYTE   W16
 BYTE   N48  Dn4
 BYTE   W48
 BYTE   PEND 
//  #01 //018   ----------------------------------------
Label_01A5AED9:
 BYTE   N16  Cn4  v127
 BYTE   W16
 BYTE   Bn3
 BYTE   W16
 BYTE   Cn4
 BYTE   W16
 BYTE   N48  En4
 BYTE   W48
 BYTE   PEND 
//  #01 //019   ----------------------------------------
Label_01A5AEE5:
 BYTE   N16  Fn4  v127
 BYTE   W16
 BYTE   En4
 BYTE   W16
 BYTE   Fn4
 BYTE   W16
 BYTE   Gn4
 BYTE   W16
 BYTE   An4
 BYTE   W16
 BYTE   Fn4
 BYTE   W16
 BYTE   PEND 
//  #01 //020   ----------------------------------------
 BYTE   En4
 BYTE   W16
 BYTE   Dn4
 BYTE   W16
 BYTE   Cn4
 BYTE   W16
 BYTE   N48  Bn3
 BYTE   W48
//  #01 //021   ----------------------------------------
 BYTE   PATT
  POIN2 Label_01A5AECD
//  #01 //022   ----------------------------------------
 BYTE   PATT
  POIN2 Label_01A5AED9
//  #01 //023   ----------------------------------------
 BYTE   PATT
  POIN2 Label_01A5AEE5
//  #01 //024   ----------------------------------------
 BYTE   N16  En4  v127
 BYTE   W16
 BYTE   Dn4
 BYTE   W16
 BYTE   Cn4
 BYTE   W16
 BYTE   N42  Bn3
 BYTE   W48
//  #01 //025   ----------------------------------------
 BYTE   N36  An3
 BYTE   W36
 BYTE   N12  Bn3
 BYTE   W12
 BYTE   N16  Cn4
 BYTE   W16
 BYTE   Bn3
 BYTE   W16
 BYTE   An3
 BYTE   W16
//  #01 //026   ----------------------------------------
 BYTE   N06  Bn3
 BYTE   W06
 BYTE   An3
 BYTE   W06
 BYTE   N24  Gn3
 BYTE   W24
 BYTE   N12  Dn3
 BYTE   W12
 BYTE   N16  Gn3
 BYTE   W16
 BYTE   An3
 BYTE   W16
 BYTE   Bn3
 BYTE   W16
//  #01 //027   ----------------------------------------
 BYTE   N06  Cn4
 BYTE   W06
 BYTE   Dn4
 BYTE   W06
 BYTE   N24  En4
 BYTE   W24
 BYTE   N12  Fs4
 BYTE   W12
 BYTE   Gn4
 BYTE   W12
 BYTE   Fs4
 BYTE   W12
 BYTE   En4
 BYTE   W12
 BYTE   Dn4
 BYTE   W12
//  #01 //028   ----------------------------------------
 BYTE   N24  Cn4
 BYTE   W24
 BYTE   Bn3
 BYTE   W24
 BYTE   N48  An3
 BYTE   W48
//  #01 //029   ----------------------------------------
 BYTE   N36  Cn4
 BYTE   W36
 BYTE   N12  Dn4
 BYTE   W12
 BYTE   En4
 BYTE   W12
 BYTE   Fs4
 BYTE   W12
 BYTE   N24  Gn4
 BYTE   W24
//  #01 //030   ----------------------------------------
 BYTE   N12  Fs4
 BYTE   W12
 BYTE   Dn4
 BYTE   W12
 BYTE   Fs4
 BYTE   W12
 BYTE   Gn4
 BYTE   W12
 BYTE   Fs4
 BYTE   W12
 BYTE   En4
 BYTE   W12
 BYTE   Dn4
 BYTE   W12
 BYTE   Cn4
 BYTE   W12
//  #01 //031   ----------------------------------------
 BYTE   N36  Bn3
 BYTE   W36
 BYTE   N12  Gn3
 BYTE   W12
 BYTE   N16  An3
 BYTE   W16
 BYTE   Bn3
 BYTE   W16
 BYTE   Cn4
 BYTE   W16
//  #01 //032   ----------------------------------------
 BYTE   N90  Dn4
 BYTE   W92
 BYTE   W03
 BYTE   GoTo
  POIN2 Label_01A5AE6E
 BYTE   FINE

//**************** Track 2 (Midi-Chn.1) ****************//

FallingFire_002:
//  #02 //000   ----------------------------------------
 BYTE   KEYSH   FallingFire_key+0
FIRELABEL1:
 BYTE   VOICE   53
 BYTE   MODT 0
 BYTE   LFOS 44
 BYTE   PAN   c_v-41
 BYTE   VOL   18*FallingFire_mvl/mxv
 BYTE   W96
//  #02 //001   ----------------------------------------
 BYTE   W96
//  #02 //002   ----------------------------------------
 BYTE   W96
//  #02 //003   ----------------------------------------
 BYTE   W96
//  #02 //004   ----------------------------------------
 BYTE   W96
//  #02 //005   ----------------------------------------
 BYTE   W96
//  #02 //006   ----------------------------------------
 BYTE   W96
//  #02 //007   ----------------------------------------
 BYTE   W96
//  #02 //008   ----------------------------------------
 BYTE   W96
//  #02 //009   ----------------------------------------
 BYTE   W96
//  #02 //010   ----------------------------------------
 BYTE   W96
//  #02 //011   ----------------------------------------
 BYTE   W96
//  #02 //012   ----------------------------------------
 BYTE   W96
//  #02 //013   ----------------------------------------
 BYTE   W96
//  #02 //014   ----------------------------------------
 BYTE   W96
//  #02 //015   ----------------------------------------
 BYTE   W96
//  #02 //016   ----------------------------------------
Label_01A59B3C:
 BYTE   N90  En2  v056
 BYTE   N90  Gn2
 BYTE   N90  Bn2
 BYTE   W96
 BYTE   PEND 
//  #02 //017   ----------------------------------------
 BYTE   W96
//  #02 //018   ----------------------------------------
Label_01A59B46:
 BYTE   N90  Fn2  v056
 BYTE   N90  An2
 BYTE   N90  Cn3
 BYTE   W96
 BYTE   PEND 
//  #02 //019   ----------------------------------------
 BYTE   W96
//  #02 //020   ----------------------------------------
 BYTE   PATT
  POIN2 Label_01A59B3C
//  #02 //021   ----------------------------------------
 BYTE   W96
//  #02 //022   ----------------------------------------
 BYTE   PATT
  POIN2 Label_01A59B46
//  #02 //023   ----------------------------------------
 BYTE   W96
//  #02 //024   ----------------------------------------
 BYTE   W96
//  #02 //025   ----------------------------------------
 BYTE   W96
//  #02 //026   ----------------------------------------
 BYTE   W96
//  #02 //027   ----------------------------------------
 BYTE   W96
//  #02 //028   ----------------------------------------
 BYTE   N90  Cn2  v056
 BYTE   N90  En2
 BYTE   N90  An2
 BYTE   W96
//  #02 //029   ----------------------------------------
 BYTE   W96
//  #02 //030   ----------------------------------------
 BYTE   En2
 BYTE   N90  An2
 BYTE   N90  Cn3
 BYTE   W96
//  #02 //031   ----------------------------------------
 BYTE   W92
 BYTE   W03
 BYTE   GoTo
  POIN2 FIRELABEL1
 BYTE   FINE

//**************** Track 3 (Midi-Chn.2) ****************//

FallingFire_003:
//  #03 //000   ----------------------------------------
 BYTE   KEYSH   FallingFire_key+0
FIRELABEL2:
 BYTE   VOICE   54
 BYTE   MODT 0
 BYTE   LFOS 44
 BYTE   PAN   c_v+40
 BYTE   VOL   17*FallingFire_mvl/mxv
 BYTE   W96
//  #03 //001   ----------------------------------------
 BYTE   W96
//  #03 //002   ----------------------------------------
 BYTE   W96
//  #03 //003   ----------------------------------------
 BYTE   W96
//  #03 //004   ----------------------------------------
 BYTE   W96
//  #03 //005   ----------------------------------------
 BYTE   W96
//  #03 //006   ----------------------------------------
 BYTE   W96
//  #03 //007   ----------------------------------------
 BYTE   W96
//  #03 //008   ----------------------------------------
 BYTE   W96
//  #03 //009   ----------------------------------------
 BYTE   W96
//  #03 //010   ----------------------------------------
 BYTE   W96
//  #03 //011   ----------------------------------------
 BYTE   W96
//  #03 //012   ----------------------------------------
 BYTE   W96
//  #03 //013   ----------------------------------------
 BYTE   W96
//  #03 //014   ----------------------------------------
 BYTE   W96
//  #03 //015   ----------------------------------------
 BYTE   W96
//  #03 //016   ----------------------------------------
Label_01A5A3F8:
 BYTE   W72
 BYTE   TIE  En2  v056
 BYTE   TIE  Gn2
 BYTE   N24  Bn2
 BYTE   W24
 BYTE   PEND 
//  #03 //017   ----------------------------------------
 BYTE   N90  Cn3
 BYTE   W90
 BYTE   EOT
 BYTE   En2  v055
 BYTE   W06
//  #03 //018   ----------------------------------------
Label_01A5A409:
 BYTE   W72
 BYTE   N24  Fn2  v056
 BYTE   N24  An2
 BYTE   N24  Cn3
 BYTE   W24
 BYTE   PEND 
//  #03 //019   ----------------------------------------
Label_01A5A413:
 BYTE   N90  Dn2  v056
 BYTE   N90  Gn2
 BYTE   N90  Bn2
 BYTE   W96
 BYTE   PEND 
//  #03 //020   ----------------------------------------
 BYTE   PATT
  POIN2 Label_01A5A3F8
//  #03 //021   ----------------------------------------
 BYTE   N90  Cn3  v056
 BYTE   W90
 BYTE   EOT
 BYTE   En2  v055
 BYTE   W06
//  #03 //022   ----------------------------------------
 BYTE   PATT
  POIN2 Label_01A5A409
//  #03 //023   ----------------------------------------
 BYTE   PATT
  POIN2 Label_01A5A413
//  #03 //024   ----------------------------------------
 BYTE   W96
//  #03 //025   ----------------------------------------
 BYTE   W96
//  #03 //026   ----------------------------------------
 BYTE   W96
//  #03 //027   ----------------------------------------
 BYTE   W96
//  #03 //028   ----------------------------------------
 BYTE   W72
 BYTE   N24  Cn2  v056
 BYTE   N24  En2
 BYTE   N24  An2
 BYTE   W24
//  #03 //029   ----------------------------------------
 BYTE   PATT
  POIN2 Label_01A5A413
//  #03 //030   ----------------------------------------
 BYTE   W72
 BYTE   N24  En2  v056
 BYTE   TIE  An2
 BYTE   N24  Cn3
 BYTE   W24
//  #03 //031   ----------------------------------------
 BYTE   N90  Fs2
 BYTE   N90  Dn3
 BYTE   W90
 BYTE   EOT
 BYTE   An2
 BYTE   W05
 BYTE   GoTo
  POIN2 FIRELABEL2
 BYTE   FINE

//**************** Track 4 (Midi-Chn.3) ****************//

FallingFire_004:
//  #04 //000   ----------------------------------------
 BYTE   KEYSH   FallingFire_key+0
FIRELABEL3:
 BYTE   VOICE   48
 BYTE   MODT 0
 BYTE   LFOS 44
 BYTE   PAN   c_v-13
 BYTE   VOL   24*FallingFire_mvl/mxv
 BYTE   W96
//  #04 //001   ----------------------------------------
 BYTE   W96
//  #04 //002   ----------------------------------------
 BYTE   W96
//  #04 //003   ----------------------------------------
 BYTE   W96
//  #04 //004   ----------------------------------------
Label_01A5A904:
 BYTE   TIE  En3  v056
 BYTE   TIE  Gn3
 BYTE   N90  Bn3
 BYTE   W96
 BYTE   PEND 
//  #04 //005   ----------------------------------------
 BYTE   As3
 BYTE   W96
//  #04 //006   ----------------------------------------
 BYTE   Bn3
 BYTE   W90
 BYTE   EOT
 BYTE   Gn3
 BYTE   W06
//  #04 //007   ----------------------------------------
 BYTE   N90  An3
 BYTE   N90  Cn4
 BYTE   W90
 BYTE   EOT
 BYTE   En3
 BYTE   W06
//  #04 //008   ----------------------------------------
 BYTE   PATT
  POIN2 Label_01A5A904
//  #04 //009   ----------------------------------------
 BYTE   N90  As3  v056
 BYTE   W96
//  #04 //010   ----------------------------------------
 BYTE   Bn3
 BYTE   W90
 BYTE   EOT
 BYTE   Gn3
 BYTE   W06
//  #04 //011   ----------------------------------------
 BYTE   N90  An3
 BYTE   N90  Cn4
 BYTE   W90
 BYTE   EOT
 BYTE   En3
 BYTE   W06
//  #04 //012   ----------------------------------------
 BYTE   PATT
  POIN2 Label_01A5A904
//  #04 //013   ----------------------------------------
 BYTE   N90  As3  v056
 BYTE   W96
//  #04 //014   ----------------------------------------
 BYTE   Bn3
 BYTE   W90
 BYTE   EOT
 BYTE   Gn3
 BYTE   W06
//  #04 //015   ----------------------------------------
 BYTE   N90  An3
 BYTE   N90  Cn4
 BYTE   W90
 BYTE   EOT
 BYTE   En3
 BYTE   W06
//  #04 //016   ----------------------------------------
 BYTE   TIE
 BYTE   TIE  Gn3
 BYTE   N96  Bn3
 BYTE   W96
//  #04 //017   ----------------------------------------
 BYTE   TIE  Cn4
 BYTE   W96
//  #04 //018   ----------------------------------------
 BYTE   EOT
 BYTE   En3  v067
 BYTE   N96  Fn3
 BYTE   N96  An3
 BYTE   W96
//  #04 //019   ----------------------------------------
 BYTE   EOT
 BYTE   Cn4
 BYTE   N96  Dn3
 BYTE   TIE  Gn3
 BYTE   TIE  Bn3
 BYTE   W96
//  #04 //020   ----------------------------------------
 BYTE   En3
 BYTE   W96
//  #04 //021   ----------------------------------------
 BYTE   EOT
 BYTE   Bn3
 BYTE   TIE  Cn4
 BYTE   W96
//  #04 //022   ----------------------------------------
 BYTE   EOT
 BYTE   En3  v067
 BYTE   N96  Fn3
 BYTE   N96  An3
 BYTE   W96
//  #04 //023   ----------------------------------------
 BYTE   EOT
 BYTE   Cn4
 BYTE   N90  Dn3
 BYTE   N90  Gn3
 BYTE   N90  Bn3
 BYTE   W96
//  #04 //024   ----------------------------------------
 BYTE   Cn3
 BYTE   N90  En3
 BYTE   TIE  Gn3
 BYTE   N90  An3
 BYTE   W96
//  #04 //025   ----------------------------------------
Label_01A5A982:
 BYTE   N90  Dn3  v056
 BYTE   N90  Fs3
 BYTE   TIE  Bn3
 BYTE   W90
 BYTE   PEND 
 BYTE   EOT
 BYTE   Gn3
 BYTE   W06
//  #04 //026   ----------------------------------------
Label_01A5A98E:
 BYTE   N90  En3  v056
 BYTE   TIE  An3
 BYTE   TIE  Cn4
 BYTE   W90
 BYTE   PEND 
 BYTE   EOT
 BYTE   Bn3
 BYTE   W06
//  #04 //027   ----------------------------------------
 BYTE   N90  Fs3
 BYTE   N90  Dn4
 BYTE   W90
 BYTE   EOT
 BYTE   Cn4
 BYTE   W06
//  #04 //028   ----------------------------------------
 BYTE   N90  Cn3
 BYTE   N90  En3
 BYTE   TIE  Gn3
 BYTE   W90
 BYTE   EOT
 BYTE   An3
 BYTE   W06
//  #04 //029   ----------------------------------------
 BYTE   PATT
  POIN2 Label_01A5A982
//  #04 //030   ----------------------------------------
 BYTE   EOT
 BYTE   Gn3
 BYTE   W06
//  #04 //031   ----------------------------------------
 BYTE   PATT
  POIN2 Label_01A5A98E
//  #04 //032   ----------------------------------------
 BYTE   EOT
 BYTE   Bn3
 BYTE   W06
 BYTE   N90  Fs3  v056
 BYTE   N90  Dn4
 BYTE   W90
//  #04 //033   ----------------------------------------
 BYTE   EOT
 BYTE   An3  v072
 BYTE   W05
 BYTE   GoTo
  POIN2 FIRELABEL3
 BYTE   FINE

//**************** Track 5 (Midi-Chn.4) ****************//

FallingFire_005:
//  #05 //000   ----------------------------------------
 BYTE   KEYSH   FallingFire_key+0
FIRELABEL4:
 BYTE   VOICE   0
 BYTE   MODT 0
 BYTE   LFOS 44
 BYTE   PAN   c_v-32
 BYTE   VOL   24*FallingFire_mvl/mxv
 BYTE   W96
//  #05 //001   ----------------------------------------
 BYTE   W96
//  #05 //002   ----------------------------------------
 BYTE   W96
//  #05 //003   ----------------------------------------
 BYTE   W96
//  #05 //004   ----------------------------------------
FIRELABEL5:
 BYTE   N05  Gn5  v100
 BYTE   W06
 BYTE   En5
 BYTE   W06
 BYTE   Bn4
 BYTE   W06
 BYTE   Gn4
 BYTE   W06
 BYTE   En4
 BYTE   W06
 BYTE   Bn3
 BYTE   W06
 BYTE   Gn3
 BYTE   W06
 BYTE   En3
 BYTE   W06
 BYTE   Bn2
 BYTE   W06
 BYTE   Gn2
 BYTE   W06
 BYTE   En2
 BYTE   W06
 BYTE   Bn1
 BYTE   W06
 BYTE   Gn1
 BYTE   W06
 BYTE   En1
 BYTE   W06
 BYTE   N11  Bn0
 BYTE   W12
 BYTE   PEND 
//  #05 //005   ----------------------------------------
 BYTE   W96
//  #05 //006   ----------------------------------------
 BYTE   PATT
  POIN2 FIRELABEL5
//  #05 //007   ----------------------------------------
 BYTE   W96
//  #05 //008   ----------------------------------------
 BYTE   W96
//  #05 //009   ----------------------------------------
 BYTE   W96
//  #05 //010   ----------------------------------------
 BYTE   W96
//  #05 //011   ----------------------------------------
 BYTE   W96
//  #05 //012   ----------------------------------------
 BYTE   W96
//  #05 //013   ----------------------------------------
 BYTE   W96
//  #05 //014   ----------------------------------------
 BYTE   W96
//  #05 //015   ----------------------------------------
 BYTE   W96
//  #05 //016   ----------------------------------------
 BYTE   W96
//  #05 //017   ----------------------------------------
 BYTE   W96
//  #05 //018   ----------------------------------------
 BYTE   W96
//  #05 //019   ----------------------------------------
 BYTE   W96
//  #05 //020   ----------------------------------------
 BYTE   W96
//  #05 //021   ----------------------------------------
 BYTE   W96
//  #05 //022   ----------------------------------------
 BYTE   W96
//  #05 //023   ----------------------------------------
 BYTE   W96
//  #05 //024   ----------------------------------------
Label_01A5A1AD:
 BYTE   N05  En5  v100
 BYTE   W06
 BYTE   Cn5
 BYTE   W06
 BYTE   An4
 BYTE   W06
 BYTE   Gn4
 BYTE   W06
 BYTE   En4
 BYTE   W06
 BYTE   Cn4
 BYTE   W06
 BYTE   An3
 BYTE   W06
 BYTE   Gn3
 BYTE   W06
 BYTE   En3
 BYTE   W06
 BYTE   Cn3
 BYTE   W06
 BYTE   An2
 BYTE   W06
 BYTE   Gn2
 BYTE   W06
 BYTE   En2
 BYTE   W06
 BYTE   Cn2
 BYTE   W06
 BYTE   An1
 BYTE   W06
 BYTE   Gn1
 BYTE   W06
 BYTE   PEND 
//  #05 //025   ----------------------------------------
Label_01A5A1D0:
 BYTE   N05  Fs5  v100
 BYTE   W06
 BYTE   Dn5
 BYTE   W06
 BYTE   Bn4
 BYTE   W06
 BYTE   Gn4
 BYTE   W06
 BYTE   Fs4
 BYTE   W06
 BYTE   Dn4
 BYTE   W06
 BYTE   Bn3
 BYTE   W06
 BYTE   Gn3
 BYTE   W06
 BYTE   Fs3
 BYTE   W06
 BYTE   Dn3
 BYTE   W06
 BYTE   Bn2
 BYTE   W06
 BYTE   Gn2
 BYTE   W06
 BYTE   Fs2
 BYTE   W06
 BYTE   Dn2
 BYTE   W06
 BYTE   Bn1
 BYTE   W06
 BYTE   Gn1
 BYTE   W06
 BYTE   PEND 
//  #05 //026   ----------------------------------------
Label_01A5A1F3:
 BYTE   N05  En5  v100
 BYTE   W06
 BYTE   Cn5
 BYTE   W06
 BYTE   Bn4
 BYTE   W06
 BYTE   An4
 BYTE   W06
 BYTE   En4
 BYTE   W06
 BYTE   Cn4
 BYTE   W06
 BYTE   Bn3
 BYTE   W06
 BYTE   An3
 BYTE   W06
 BYTE   En3
 BYTE   W06
 BYTE   Cn3
 BYTE   W06
 BYTE   Bn2
 BYTE   W06
 BYTE   An2
 BYTE   W06
 BYTE   En2
 BYTE   W06
 BYTE   Cn2
 BYTE   W06
 BYTE   Bn1
 BYTE   W06
 BYTE   An1
 BYTE   W06
 BYTE   PEND 
//  #05 //027   ----------------------------------------
 BYTE   Fs5
 BYTE   W06
 BYTE   Dn5
 BYTE   W06
 BYTE   Cn5
 BYTE   W06
 BYTE   An4
 BYTE   W06
 BYTE   Fs4
 BYTE   W06
 BYTE   Dn4
 BYTE   W06
 BYTE   Cn4
 BYTE   W06
 BYTE   An3
 BYTE   W06
 BYTE   Fs3
 BYTE   W06
 BYTE   Dn3
 BYTE   W06
 BYTE   Cn3
 BYTE   W06
 BYTE   An2
 BYTE   W06
 BYTE   Fs2
 BYTE   W06
 BYTE   Dn2
 BYTE   W06
 BYTE   Cn2
 BYTE   W06
 BYTE   An1
 BYTE   W06
//  #05 //028   ----------------------------------------
 BYTE   PATT
  POIN2 Label_01A5A1AD
//  #05 //029   ----------------------------------------
 BYTE   PATT
  POIN2 Label_01A5A1D0
//  #05 //030   ----------------------------------------
 BYTE   PATT
  POIN2 Label_01A5A1F3
//  #05 //031   ----------------------------------------
 BYTE   N05  Fs5  v100
 BYTE   W06
 BYTE   Dn5
 BYTE   W06
 BYTE   Cn5
 BYTE   W06
 BYTE   An4
 BYTE   W06
 BYTE   Fs4
 BYTE   W06
 BYTE   Dn4
 BYTE   W06
 BYTE   Cn4
 BYTE   W06
 BYTE   An3
 BYTE   W06
 BYTE   Fs3
 BYTE   W06
 BYTE   Dn3
 BYTE   W06
 BYTE   Cn3
 BYTE   W06
 BYTE   An2
 BYTE   W06
 BYTE   Fs2
 BYTE   W06
 BYTE   Dn2
 BYTE   W06
 BYTE   Cn2
 BYTE   W06
 BYTE   An1
 BYTE   W05
 BYTE   GoTo
  POIN2 FIRELABEL4
 BYTE   FINE

//**************** Track 6 (Midi-Chn.5) ****************//

FallingFire_006:
//  #06 //000   ----------------------------------------
 BYTE   KEYSH   FallingFire_key+0
Label_01A5AC1A:
 BYTE   VOICE   127
 BYTE   MODT 0
 BYTE   LFOS 44
 BYTE   VOL   30*FallingFire_mvl/mxv
 BYTE   PAN   c_v+0
 BYTE   N05  Cs3  v127
 BYTE   W06
 BYTE   N05
 BYTE   W06
 BYTE   Cn3
 BYTE   W06
 BYTE   Cs3
 BYTE   W06
 BYTE   Ds3
 BYTE   W06
 BYTE   Dn3
 BYTE   W06
 BYTE   En3
 BYTE   W06
 BYTE   Dn3
 BYTE   W06
 BYTE   Cs3
 BYTE   W06
 BYTE   N05
 BYTE   W06
 BYTE   Cn3
 BYTE   W06
 BYTE   Cs3
 BYTE   W06
 BYTE   Ds3
 BYTE   W06
 BYTE   Dn3
 BYTE   W06
 BYTE   En3
 BYTE   W06
 BYTE   Dn3
 BYTE   W06
//  #06 //001   ----------------------------------------
Label_01A5AC46:
 BYTE   N05  Cs3  v127
 BYTE   W06
 BYTE   N05
 BYTE   W06
 BYTE   Cn3
 BYTE   W06
 BYTE   Cs3
 BYTE   W06
 BYTE   Ds3
 BYTE   W06
 BYTE   Dn3
 BYTE   W06
 BYTE   En3
 BYTE   W06
 BYTE   Dn3
 BYTE   W06
 BYTE   Cs3
 BYTE   W06
 BYTE   N05
 BYTE   W06
 BYTE   Cn3
 BYTE   W06
 BYTE   Cs3
 BYTE   W06
 BYTE   Ds3
 BYTE   W06
 BYTE   Dn3
 BYTE   W06
 BYTE   En3
 BYTE   W06
 BYTE   Dn3
 BYTE   W06
 BYTE   PEND 
//  #06 //002   ----------------------------------------
 BYTE   PATT
  POIN2 Label_01A5AC46
//  #06 //003   ----------------------------------------
 BYTE   PATT
  POIN2 Label_01A5AC46
//  #06 //004   ----------------------------------------
 BYTE   PATT
  POIN2 Label_01A5AC46
//  #06 //005   ----------------------------------------
 BYTE   PATT
  POIN2 Label_01A5AC46
//  #06 //006   ----------------------------------------
 BYTE   PATT
  POIN2 Label_01A5AC46
//  #06 //007   ----------------------------------------
 BYTE   PATT
  POIN2 Label_01A5AC46
//  #06 //008   ----------------------------------------
 BYTE   PATT
  POIN2 Label_01A5AC46
//  #06 //009   ----------------------------------------
 BYTE   PATT
  POIN2 Label_01A5AC46
//  #06 //010   ----------------------------------------
 BYTE   PATT
  POIN2 Label_01A5AC46
//  #06 //011   ----------------------------------------
 BYTE   PATT
  POIN2 Label_01A5AC46
//  #06 //012   ----------------------------------------
 BYTE   PATT
  POIN2 Label_01A5AC46
//  #06 //013   ----------------------------------------
 BYTE   PATT
  POIN2 Label_01A5AC46
//  #06 //014   ----------------------------------------
 BYTE   PATT
  POIN2 Label_01A5AC46
//  #06 //015   ----------------------------------------
 BYTE   PATT
  POIN2 Label_01A5AC46
//  #06 //016   ----------------------------------------
 BYTE   PATT
  POIN2 Label_01A5AC46
//  #06 //017   ----------------------------------------
 BYTE   PATT
  POIN2 Label_01A5AC46
//  #06 //018   ----------------------------------------
 BYTE   PATT
  POIN2 Label_01A5AC46
//  #06 //019   ----------------------------------------
 BYTE   PATT
  POIN2 Label_01A5AC46
//  #06 //020   ----------------------------------------
 BYTE   PATT
  POIN2 Label_01A5AC46
//  #06 //021   ----------------------------------------
 BYTE   PATT
  POIN2 Label_01A5AC46
//  #06 //022   ----------------------------------------
 BYTE   PATT
  POIN2 Label_01A5AC46
//  #06 //023   ----------------------------------------
 BYTE   PATT
  POIN2 Label_01A5AC46
//  #06 //024   ----------------------------------------
 BYTE   PATT
  POIN2 Label_01A5AC46
//  #06 //025   ----------------------------------------
 BYTE   PATT
  POIN2 Label_01A5AC46
//  #06 //026   ----------------------------------------
 BYTE   PATT
  POIN2 Label_01A5AC46
//  #06 //027   ----------------------------------------
 BYTE   PATT
  POIN2 Label_01A5AC46
//  #06 //028   ----------------------------------------
 BYTE   PATT
  POIN2 Label_01A5AC46
//  #06 //029   ----------------------------------------
 BYTE   PATT
  POIN2 Label_01A5AC46
//  #06 //030   ----------------------------------------
 BYTE   PATT
  POIN2 Label_01A5AC46
//  #06 //031   ----------------------------------------
 BYTE   N05  Cs3  v127
 BYTE   W06
 BYTE   N05
 BYTE   W06
 BYTE   Cn3
 BYTE   W06
 BYTE   Cs3
 BYTE   W06
 BYTE   Ds3
 BYTE   W06
 BYTE   Dn3
 BYTE   W06
 BYTE   En3
 BYTE   W06
 BYTE   Dn3
 BYTE   W06
 BYTE   Cs3
 BYTE   W06
 BYTE   N05
 BYTE   W06
 BYTE   Cn3
 BYTE   W06
 BYTE   Cs3
 BYTE   W06
 BYTE   N11  Dn3
 BYTE   N11  Ds3
 BYTE   W12
 BYTE   Dn3
 BYTE   N11  En3
 BYTE   W11
 BYTE   GoTo
  POIN2 Label_01A5AC1A
 BYTE   FINE

//**************** Track 7 (Midi-Chn.6) ****************//

FallingFire_007:
//  #07 //000   ----------------------------------------
 BYTE   KEYSH   FallingFire_key+0
FALLINGFIRE1:
 BYTE   VOICE   127
 BYTE   MODT 0
 BYTE   LFOS 44
 BYTE   VOL   30*FallingFire_mvl/mxv
 BYTE   PAN   c_v+0
 BYTE   W96
//  #07 //001   ----------------------------------------
 BYTE   W96
//  #07 //002   ----------------------------------------
 BYTE   W96
//  #07 //003   ----------------------------------------
 BYTE   W96
//  #07 //004   ----------------------------------------
Label_01A59F40:
 BYTE   N11  Cn1  v127
 BYTE   N11  An1
 BYTE   W12
 BYTE   N05  Bn1
 BYTE   W06
 BYTE   An1
 BYTE   W06
 BYTE   N11  Fs1
 BYTE   N11  Dn2
 BYTE   W12
 BYTE   Cn1
 BYTE   N11  Cn2
 BYTE   W12
 BYTE   Cn1
 BYTE   N11  An1
 BYTE   W12
 BYTE   N05  Bn1
 BYTE   W06
 BYTE   An1
 BYTE   W06
 BYTE   N11  Fs1
 BYTE   N11  Dn2
 BYTE   W12
 BYTE   Cn2
 BYTE   W12
 BYTE   PEND 
//  #07 //005   ----------------------------------------
 BYTE   PATT
  POIN2 Label_01A59F40
//  #07 //006   ----------------------------------------
 BYTE   PATT
  POIN2 Label_01A59F40
//  #07 //007   ----------------------------------------
 BYTE   PATT
  POIN2 Label_01A59F40
//  #07 //008   ----------------------------------------
 BYTE   PATT
  POIN2 Label_01A59F40
//  #07 //009   ----------------------------------------
 BYTE   PATT
  POIN2 Label_01A59F40
//  #07 //010   ----------------------------------------
 BYTE   PATT
  POIN2 Label_01A59F40
//  #07 //011   ----------------------------------------
 BYTE   PATT
  POIN2 Label_01A59F40
//  #07 //012   ----------------------------------------
 BYTE   PATT
  POIN2 Label_01A59F40
//  #07 //013   ----------------------------------------
 BYTE   PATT
  POIN2 Label_01A59F40
//  #07 //014   ----------------------------------------
 BYTE   PATT
  POIN2 Label_01A59F40
//  #07 //015   ----------------------------------------
 BYTE   PATT
  POIN2 Label_01A59F40
//  #07 //016   ----------------------------------------
 BYTE   W96
//  #07 //017   ----------------------------------------
 BYTE   W96
//  #07 //018   ----------------------------------------
 BYTE   W96
//  #07 //019   ----------------------------------------
 BYTE   W96
//  #07 //020   ----------------------------------------
 BYTE   PATT
  POIN2 Label_01A59F40
//  #07 //021   ----------------------------------------
 BYTE   PATT
  POIN2 Label_01A59F40
//  #07 //022   ----------------------------------------
 BYTE   PATT
  POIN2 Label_01A59F40
//  #07 //023   ----------------------------------------
 BYTE   PATT
  POIN2 Label_01A59F40
//  #07 //024   ----------------------------------------
 BYTE   PATT
  POIN2 Label_01A59F40
//  #07 //025   ----------------------------------------
 BYTE   PATT
  POIN2 Label_01A59F40
//  #07 //026   ----------------------------------------
 BYTE   PATT
  POIN2 Label_01A59F40
//  #07 //027   ----------------------------------------
 BYTE   PATT
  POIN2 Label_01A59F40
//  #07 //028   ----------------------------------------
 BYTE   PATT
  POIN2 Label_01A59F40
//  #07 //029   ----------------------------------------
 BYTE   PATT
  POIN2 Label_01A59F40
//  #07 //030   ----------------------------------------
 BYTE   PATT
  POIN2 Label_01A59F40
//  #07 //031   ----------------------------------------
 BYTE   N11  Cn1  v127
 BYTE   N11  An1
 BYTE   W12
 BYTE   N05  Bn1
 BYTE   W06
 BYTE   An1
 BYTE   W06
 BYTE   N11  Fs1
 BYTE   N11  Dn2
 BYTE   W12
 BYTE   Cn1
 BYTE   N11  Cn2
 BYTE   W12
 BYTE   Cn1
 BYTE   N11  An1
 BYTE   W12
 BYTE   N05  Bn1
 BYTE   W06
 BYTE   An1
 BYTE   W06
 BYTE   N20  Fs1
 BYTE   N20  Dn2
 BYTE   W23
 BYTE   GoTo
  POIN2 FALLINGFIRE1
 BYTE   FINE

//**************** Track 8 (Midi-Chn.7) ****************//

FallingFire_008:
//  #08 //000   ----------------------------------------
 BYTE   KEYSH   FallingFire_key+0
Label_01A5AB0A:
 BYTE   VOICE   33
 BYTE   MODT 0
 BYTE   LFOS 44
 BYTE   PAN   c_v-10
 BYTE   VOL   25*FallingFire_mvl/mxv
 BYTE   N05  En1  v127
 BYTE   W06
 BYTE   Dn1
 BYTE   W06
 BYTE   N20  En1
 BYTE   W24
 BYTE   N05
 BYTE   W06
 BYTE   Dn1
 BYTE   W06
 BYTE   N04  En1
 BYTE   W06
 BYTE   N04
 BYTE   W06
 BYTE   Dn1
 BYTE   W12
 BYTE   En1
 BYTE   W12
 BYTE   N11  Gn1
 BYTE   W12
//  #08 //001   ----------------------------------------
Label_01A5AB2D:
 BYTE   N05  En1  v127
 BYTE   W06
 BYTE   Dn1
 BYTE   W06
 BYTE   N11  En1
 BYTE   W12
 BYTE   N66  En0
 BYTE   W72
 BYTE   PEND 
//  #08 //002   ----------------------------------------
Label_01A5AB3A:
 BYTE   N05  En1  v127
 BYTE   W06
 BYTE   Dn1
 BYTE   W06
 BYTE   N20  En1
 BYTE   W24
 BYTE   N05
 BYTE   W06
 BYTE   Dn1
 BYTE   W06
 BYTE   N04  En1
 BYTE   W06
 BYTE   N04
 BYTE   W06
 BYTE   Dn1
 BYTE   W12
 BYTE   En1
 BYTE   W12
 BYTE   N11  Gn1
 BYTE   W12
 BYTE   PEND 
//  #08 //003   ----------------------------------------
 BYTE   PATT
  POIN2 Label_01A5AB2D
//  #08 //004   ----------------------------------------
 BYTE   PATT
  POIN2 Label_01A5AB3A
//  #08 //005   ----------------------------------------
 BYTE   PATT
  POIN2 Label_01A5AB2D
//  #08 //006   ----------------------------------------
 BYTE   PATT
  POIN2 Label_01A5AB3A
//  #08 //007   ----------------------------------------
 BYTE   PATT
  POIN2 Label_01A5AB2D
//  #08 //008   ----------------------------------------
 BYTE   PATT
  POIN2 Label_01A5AB3A
//  #08 //009   ----------------------------------------
 BYTE   PATT
  POIN2 Label_01A5AB2D
//  #08 //010   ----------------------------------------
 BYTE   PATT
  POIN2 Label_01A5AB3A
//  #08 //011   ----------------------------------------
 BYTE   PATT
  POIN2 Label_01A5AB2D
//  #08 //012   ----------------------------------------
 BYTE   PATT
  POIN2 Label_01A5AB3A
//  #08 //013   ----------------------------------------
 BYTE   PATT
  POIN2 Label_01A5AB2D
//  #08 //014   ----------------------------------------
 BYTE   PATT
  POIN2 Label_01A5AB3A
//  #08 //015   ----------------------------------------
 BYTE   PATT
  POIN2 Label_01A5AB2D
//  #08 //016   ----------------------------------------
 BYTE   W96
//  #08 //017   ----------------------------------------
 BYTE   W96
//  #08 //018   ----------------------------------------
 BYTE   W96
//  #08 //019   ----------------------------------------
 BYTE   W96
//  #08 //020   ----------------------------------------
 BYTE   N42  En1  v127
 BYTE   W48
 BYTE   Gn1
 BYTE   W48
//  #08 //021   ----------------------------------------
 BYTE   En1
 BYTE   W48
 BYTE   Cn1
 BYTE   W48
//  #08 //022   ----------------------------------------
 BYTE   Fs1
 BYTE   W48
 BYTE   An1
 BYTE   W48
//  #08 //023   ----------------------------------------
 BYTE   Gn1
 BYTE   W48
 BYTE   Dn1
 BYTE   W48
//  #08 //024   ----------------------------------------
Label_01A5ABAB:
 BYTE   N05  En1  v127
 BYTE   W06
 BYTE   Cn1
 BYTE   W06
 BYTE   N20  En1
 BYTE   W24
 BYTE   N05
 BYTE   W06
 BYTE   Cn1
 BYTE   W06
 BYTE   N04  En1
 BYTE   W06
 BYTE   N04
 BYTE   W06
 BYTE   Cn1
 BYTE   W12
 BYTE   Gn1
 BYTE   W12
 BYTE   En1
 BYTE   W12
 BYTE   PEND 
//  #08 //025   ----------------------------------------
Label_01A5ABC4:
 BYTE   N05  Dn1  v127
 BYTE   W06
 BYTE   Bn0
 BYTE   W06
 BYTE   N11  Dn1
 BYTE   W12
 BYTE   N66  Gn1
 BYTE   W72
 BYTE   PEND 
//  #08 //026   ----------------------------------------
Label_01A5ABD1:
 BYTE   N05  En1  v127
 BYTE   W06
 BYTE   Cn1
 BYTE   W06
 BYTE   N20  En1
 BYTE   W24
 BYTE   N05
 BYTE   W06
 BYTE   Cn1
 BYTE   W06
 BYTE   N04  En1
 BYTE   W06
 BYTE   N04
 BYTE   W06
 BYTE   Cn1
 BYTE   W12
 BYTE   En1
 BYTE   W12
 BYTE   An1
 BYTE   W12
 BYTE   PEND 
//  #08 //027   ----------------------------------------
 BYTE   N05  Fs1
 BYTE   W06
 BYTE   Dn1
 BYTE   W06
 BYTE   N11  Cn1
 BYTE   W12
 BYTE   N66  An0
 BYTE   W72
//  #08 //028   ----------------------------------------
 BYTE   PATT
  POIN2 Label_01A5ABAB
//  #08 //029   ----------------------------------------
 BYTE   PATT
  POIN2 Label_01A5ABC4
//  #08 //030   ----------------------------------------
 BYTE   PATT
  POIN2 Label_01A5ABD1
//  #08 //031   ----------------------------------------
 BYTE   N05  Fs1  v127
 BYTE   W06
 BYTE   Dn1
 BYTE   W06
 BYTE   N11  Cn1
 BYTE   W12
 BYTE   N66  An0
 BYTE   W68
 BYTE   W03
 BYTE   GoTo
  POIN2 Label_01A5AB0A
 BYTE   FINE

//**************** Track 9 (Midi-Chn.8) ****************//

FallingFire_009:
//  #09 //000   ----------------------------------------
 BYTE   KEYSH   FallingFire_key+0
FALLINGFIRE2:
 BYTE   VOICE   52
 BYTE   MODT 0
 BYTE   LFOS 44
 BYTE   PAN   c_v-5
 BYTE   VOL   19*FallingFire_mvl/mxv
 BYTE   W96
//  #09 //001   ----------------------------------------
 BYTE   W96
//  #09 //002   ----------------------------------------
 BYTE   N24  Ds3  v044
 BYTE   W24
 BYTE   N24
 BYTE   W24
 BYTE   N24
 BYTE   W48
//  #09 //003   ----------------------------------------
 BYTE   W96
//  #09 //004   ----------------------------------------
 BYTE   W96
//  #09 //005   ----------------------------------------
 BYTE   W96
//  #09 //006   ----------------------------------------
 BYTE   W96
//  #09 //007   ----------------------------------------
 BYTE   W96
//  #09 //008   ----------------------------------------
 BYTE   W96
//  #09 //009   ----------------------------------------
 BYTE   W96
//  #09 //010   ----------------------------------------
 BYTE   W96
//  #09 //011   ----------------------------------------
 BYTE   W96
//  #09 //012   ----------------------------------------
 BYTE   W96
//  #09 //013   ----------------------------------------
 BYTE   W96
//  #09 //014   ----------------------------------------
 BYTE   W96
//  #09 //015   ----------------------------------------
 BYTE   W96
//  #09 //016   ----------------------------------------
Label_01A5A4BF:
 BYTE   W72
 BYTE   N90  En3  v056
 BYTE   N90  Gn3
 BYTE   N90  Bn3
 BYTE   W24
 BYTE   PEND 
//  #09 //017   ----------------------------------------
 BYTE   W96
//  #09 //018   ----------------------------------------
Label_01A5A4CA:
 BYTE   W72
 BYTE   N90  Fn3  v056
 BYTE   N90  An3
 BYTE   N90  Cn4
 BYTE   W24
 BYTE   PEND 
//  #09 //019   ----------------------------------------
 BYTE   W96
//  #09 //020   ----------------------------------------
 BYTE   PATT
  POIN2 Label_01A5A4BF
//  #09 //021   ----------------------------------------
 BYTE   W96
//  #09 //022   ----------------------------------------
 BYTE   PATT
  POIN2 Label_01A5A4CA
//  #09 //023   ----------------------------------------
 BYTE   W96
//  #09 //024   ----------------------------------------
 BYTE   W96
//  #09 //025   ----------------------------------------
 BYTE   W96
//  #09 //026   ----------------------------------------
 BYTE   W96
//  #09 //027   ----------------------------------------
 BYTE   W96
//  #09 //028   ----------------------------------------
 BYTE   W72
 BYTE   N90  Cn3  v056
 BYTE   N90  En3
 BYTE   N90  An3
 BYTE   W24
//  #09 //029   ----------------------------------------
 BYTE   W96
//  #09 //030   ----------------------------------------
 BYTE   W72
 BYTE   En3
 BYTE   N90  An3
 BYTE   N90  Cn4
 BYTE   W24
//  #09 //031   ----------------------------------------
 BYTE   W92
 BYTE   W03
 BYTE   GoTo
  POIN2 FALLINGFIRE2
 BYTE   FINE

//******************************************************//
	ALIGN 4

FallingFire:
	BYTE	9	// NumTrks
	BYTE	0	// NumBlks
	BYTE	FallingFire_pri	// Priority
	BYTE	FallingFire_rev	// Reverb.
    
	POIN2	FallingFire_grp
    
	POIN2	FallingFire_001
	POIN2	FallingFire_002
	POIN2	FallingFire_003
	POIN2	FallingFire_004
	POIN2	FallingFire_005
	POIN2	FallingFire_006
	POIN2	FallingFire_007
	POIN2	FallingFire_008
	POIN2	FallingFire_009

	
