	.include "MPlayDef.s"

	.equ	song01_grp, voicegroup000
	.equ	song01_pri, 0
	.equ	song01_rev, 160
	.equ	song01_mvl, 127
	.equ	song01_key, 0
	.equ	song01_tbs, 1
	.equ	song01_exg, 0
	.equ	song01_cmp, 1

	.section .rodata
	.global	song01
	.align	2


@**************** Track 1 (Midi-Chn.0) ****************@

song01_001:
@  #01 @000   ----------------------------------------
 .byte   KEYSH , song01_key+0
 .byte   TEMPO , 210*song01_tbs/2
Label_0197C7E4:
 .byte   VOICE , 80
 .byte   VOL , 27*song01_mvl/mxv
 .byte   PAN , c_v-8
 .byte   N12 ,Fs2 ,v085
 .byte   W12
 .byte   Gs2
 .byte   W12
 .byte   Fs2
 .byte   W12
 .byte   Gs2
 .byte   W12
 .byte   An2
 .byte   W12
 .byte   Bn2
 .byte   W12
 .byte   An2
 .byte   W12
 .byte   Gs2
 .byte   W12
@  #01 @001   ----------------------------------------
Label_0197C7FC:
 .byte   N12 ,Fs2 ,v085
 .byte   W12
 .byte   Gs2
 .byte   W12
 .byte   Fs2
 .byte   W12
 .byte   Gs2
 .byte   W12
 .byte   An2
 .byte   W12
 .byte   Bn2
 .byte   W12
 .byte   An2
 .byte   W12
 .byte   Gs2
 .byte   W12
 .byte   PEND 
@  #01 @002   ----------------------------------------
 .byte   PATT
  .word Label_0197C7FC
@  #01 @003   ----------------------------------------
 .byte   PATT
  .word Label_0197C7FC
@  #01 @004   ----------------------------------------
 .byte   PATT
  .word Label_0197C7FC
@  #01 @005   ----------------------------------------
 .byte   PATT
  .word Label_0197C7FC
@  #01 @006   ----------------------------------------
 .byte   PATT
  .word Label_0197C7FC
@  #01 @007   ----------------------------------------
 .byte   PATT
  .word Label_0197C7FC
@  #01 @008   ----------------------------------------
 .byte   PATT
  .word Label_0197C7FC
@  #01 @009   ----------------------------------------
 .byte   PATT
  .word Label_0197C7FC
@  #01 @010   ----------------------------------------
 .byte   PATT
  .word Label_0197C7FC
@  #01 @011   ----------------------------------------
 .byte   N12 ,Fs2 ,v085
 .byte   W12
 .byte   Gs2
 .byte   W12
 .byte   An2
 .byte   W12
 .byte   Bn2
 .byte   W12
 .byte   Cs3
 .byte   W12
 .byte   Dn3
 .byte   W12
 .byte   En3
 .byte   W12
 .byte   Fs3
 .byte   W12
@  #01 @012   ----------------------------------------
Label_0197C84E:
 .byte   N12 ,Gs3 ,v085
 .byte   W12
 .byte   Fs3
 .byte   W12
 .byte   Gs3
 .byte   W12
 .byte   Fs3
 .byte   W12
 .byte   Gs3
 .byte   W12
 .byte   Fs3
 .byte   W12
 .byte   Gs3
 .byte   W12
 .byte   Fs3
 .byte   W12
 .byte   PEND 
@  #01 @013   ----------------------------------------
 .byte   PATT
  .word Label_0197C84E
@  #01 @014   ----------------------------------------
 .byte   PATT
  .word Label_0197C84E
@  #01 @015   ----------------------------------------
 .byte   N12 ,Gs3 ,v085
 .byte   W12
 .byte   Fs3
 .byte   W12
 .byte   Gs3
 .byte   W12
 .byte   Fs3
 .byte   W12
 .byte   Gs3
 .byte   W12
 .byte   An3
 .byte   W12
 .byte   Bn3
 .byte   W12
 .byte   Cs4
 .byte   W12
@  #01 @016   ----------------------------------------
 .byte   W96
@  #01 @017   ----------------------------------------
 .byte   W96
@  #01 @018   ----------------------------------------
 .byte   W96
@  #01 @019   ----------------------------------------
 .byte   W96
@  #01 @020   ----------------------------------------
 .byte   W96
@  #01 @021   ----------------------------------------
 .byte   W96
@  #01 @022   ----------------------------------------
 .byte   W96
@  #01 @023   ----------------------------------------
 .byte   W96
@  #01 @024   ----------------------------------------
 .byte   W96
@  #01 @025   ----------------------------------------
 .byte   W96
@  #01 @026   ----------------------------------------
 .byte   W96
@  #01 @027   ----------------------------------------
 .byte   W96
@  #01 @028   ----------------------------------------
 .byte   W96
@  #01 @029   ----------------------------------------
 .byte   W96
@  #01 @030   ----------------------------------------
 .byte   W96
@  #01 @031   ----------------------------------------
 .byte   W96
@  #01 @032   ----------------------------------------
 .byte   N96 ,Cs3 ,v100
 .byte   W96
@  #01 @033   ----------------------------------------
 .byte   Bn2
 .byte   W96
@  #01 @034   ----------------------------------------
 .byte   TIE ,Cs3
 .byte   W96
@  #01 @035   ----------------------------------------
 .byte   W72
 .byte   EOT
 .byte   W24
@  #01 @036   ----------------------------------------
 .byte   N96
 .byte   W96
@  #01 @037   ----------------------------------------
 .byte   N48 ,Dn3
 .byte   W48
 .byte   En3
 .byte   W48
@  #01 @038   ----------------------------------------
 .byte   TIE ,Cs3
 .byte   W96
@  #01 @039   ----------------------------------------
 .byte   W48
 .byte   EOT
 .byte   N24
 .byte   W48
@  #01 @040   ----------------------------------------
 .byte   N72
 .byte   W72
 .byte   N06 ,Bn2
 .byte   W12
 .byte   As2
 .byte   W12
@  #01 @041   ----------------------------------------
 .byte   N48 ,Bn2
 .byte   W48
 .byte   Fs3
 .byte   W48
@  #01 @042   ----------------------------------------
 .byte   Fs3
 .byte   W48
 .byte   Ds3
 .byte   W48
@  #01 @043   ----------------------------------------
 .byte   En3
 .byte   W48
 .byte   Cs3
 .byte   W48
@  #01 @044   ----------------------------------------
 .byte   TIE
 .byte   W96
@  #01 @045   ----------------------------------------
 .byte   W96
@  #01 @046   ----------------------------------------
 .byte   W96
@  #01 @047   ----------------------------------------
 .byte   W72
 .byte   EOT
 .byte   W24
@  #01 @048   ----------------------------------------
 .byte   GOTO
  .word Label_0197C7E4
 .byte   FINE

@**************** Track 2 (Midi-Chn.1) ****************@

song01_002:
@  #02 @000   ----------------------------------------
 .byte   KEYSH , song01_key+0
Label_0197C08A:
 .byte   VOICE , 30
 .byte   PAN , c_v+6
 .byte   VOL , 28*song01_mvl/mxv
 .byte   W96
@  #02 @001   ----------------------------------------
 .byte   W96
@  #02 @002   ----------------------------------------
 .byte   W96
@  #02 @003   ----------------------------------------
 .byte   W96
@  #02 @004   ----------------------------------------
 .byte   W96
@  #02 @005   ----------------------------------------
 .byte   W96
@  #02 @006   ----------------------------------------
 .byte   W96
@  #02 @007   ----------------------------------------
 .byte   W96
@  #02 @008   ----------------------------------------
 .byte   W96
@  #02 @009   ----------------------------------------
 .byte   W96
@  #02 @010   ----------------------------------------
 .byte   W96
@  #02 @011   ----------------------------------------
 .byte   W96
@  #02 @012   ----------------------------------------
 .byte   W96
@  #02 @013   ----------------------------------------
 .byte   W96
@  #02 @014   ----------------------------------------
 .byte   W96
@  #02 @015   ----------------------------------------
 .byte   W96
@  #02 @016   ----------------------------------------
 .byte   N96 ,Cs3 ,v100
 .byte   W96
@  #02 @017   ----------------------------------------
 .byte   Dn3
 .byte   W96
@  #02 @018   ----------------------------------------
 .byte   Cs3
 .byte   W96
@  #02 @019   ----------------------------------------
 .byte   Dn3
 .byte   W96
@  #02 @020   ----------------------------------------
 .byte   En3
 .byte   W96
@  #02 @021   ----------------------------------------
 .byte   N72
 .byte   W72
 .byte   N06
 .byte   W12
 .byte   Fs3
 .byte   W12
@  #02 @022   ----------------------------------------
 .byte   TIE ,Gn3
 .byte   W96
@  #02 @023   ----------------------------------------
 .byte   W72
 .byte   EOT
 .byte   W12
 .byte   N12 ,An3
 .byte   W12
@  #02 @024   ----------------------------------------
 .byte   N96 ,Bn3
 .byte   W96
@  #02 @025   ----------------------------------------
 .byte   TIE ,Cs3
 .byte   W96
@  #02 @026   ----------------------------------------
 .byte   W96
@  #02 @027   ----------------------------------------
 .byte   W72
 .byte   EOT
 .byte   W12
 .byte   N12 ,Bn2
 .byte   W12
@  #02 @028   ----------------------------------------
 .byte   TIE ,Cs3
 .byte   W96
@  #02 @029   ----------------------------------------
 .byte   W96
@  #02 @030   ----------------------------------------
 .byte   W96
@  #02 @031   ----------------------------------------
 .byte   W48
 .byte   EOT
 .byte   W48
@  #02 @032   ----------------------------------------
 .byte   TIE ,En2
 .byte   W96
@  #02 @033   ----------------------------------------
 .byte   W24
 .byte   EOT
 .byte   W24
 .byte   N48 ,Fs2
 .byte   W48
@  #02 @034   ----------------------------------------
 .byte   TIE ,En2
 .byte   W96
@  #02 @035   ----------------------------------------
 .byte   W72
 .byte   EOT
 .byte   W24
@  #02 @036   ----------------------------------------
 .byte   TIE
 .byte   W96
@  #02 @037   ----------------------------------------
 .byte   W96
@  #02 @038   ----------------------------------------
 .byte   EOT
 .byte   TIE ,Gn2
 .byte   W96
@  #02 @039   ----------------------------------------
 .byte   W24
 .byte   EOT
 .byte   W24
 .byte   N48
 .byte   W48
@  #02 @040   ----------------------------------------
 .byte   TIE ,Fs2
 .byte   W96
@  #02 @041   ----------------------------------------
 .byte   W72
 .byte   EOT
 .byte   W24
@  #02 @042   ----------------------------------------
 .byte   TIE ,An2
 .byte   W96
@  #02 @043   ----------------------------------------
 .byte   W72
 .byte   EOT
 .byte   W24
@  #02 @044   ----------------------------------------
 .byte   TIE ,En2
 .byte   W96
@  #02 @045   ----------------------------------------
 .byte   W96
@  #02 @046   ----------------------------------------
 .byte   W96
@  #02 @047   ----------------------------------------
 .byte   W72
 .byte   EOT
 .byte   W24
@  #02 @048   ----------------------------------------
 .byte   GOTO
  .word Label_0197C08A
 .byte   FINE

@**************** Track 3 (Midi-Chn.2) ****************@

song01_003:
@  #03 @000   ----------------------------------------
 .byte   KEYSH , song01_key+0
Label_0197CE92:
 .byte   VOICE , 81
 .byte   VOL , 33*song01_mvl/mxv
 .byte   PAN , c_v+9
 .byte   W96
@  #03 @001   ----------------------------------------
 .byte   W96
@  #03 @002   ----------------------------------------
 .byte   W96
@  #03 @003   ----------------------------------------
 .byte   W72
 .byte   N06 ,Bn2 ,v100
 .byte   W12
 .byte   N12 ,Fs3
 .byte   W12
@  #03 @004   ----------------------------------------
Label_0197CEA3:
 .byte   N72 ,Gs3 ,v100
 .byte   W72
 .byte   N06 ,Fs3
 .byte   W12
 .byte   Gs3
 .byte   W12
 .byte   PEND 
@  #03 @005   ----------------------------------------
Label_0197CEAD:
 .byte   N72 ,An3 ,v100
 .byte   W72
 .byte   N06 ,Gs3
 .byte   W12
 .byte   An3
 .byte   W12
 .byte   PEND 
@  #03 @006   ----------------------------------------
 .byte   N72 ,Bn3
 .byte   W72
 .byte   N06 ,An3
 .byte   W12
 .byte   Gs3
 .byte   W12
@  #03 @007   ----------------------------------------
 .byte   N72 ,An3
 .byte   W72
 .byte   N06 ,Bn2
 .byte   W12
 .byte   Fs3
 .byte   W12
@  #03 @008   ----------------------------------------
 .byte   PATT
  .word Label_0197CEA3
@  #03 @009   ----------------------------------------
 .byte   PATT
  .word Label_0197CEAD
@  #03 @010   ----------------------------------------
 .byte   N72 ,Bn3 ,v100
 .byte   W72
 .byte   N06 ,An3
 .byte   W12
 .byte   Bn3
 .byte   W12
@  #03 @011   ----------------------------------------
 .byte   N72 ,Cs4
 .byte   W84
 .byte   N12 ,En4
 .byte   W12
@  #03 @012   ----------------------------------------
 .byte   N96 ,Dn4
 .byte   W96
@  #03 @013   ----------------------------------------
 .byte   TIE
 .byte   W96
@  #03 @014   ----------------------------------------
 .byte   W96
@  #03 @015   ----------------------------------------
 .byte   W96
@  #03 @016   ----------------------------------------
 .byte   EOT
 .byte   N96 ,Gs3 ,v111
 .byte   W96
@  #03 @017   ----------------------------------------
 .byte   Fs3
 .byte   W96
@  #03 @018   ----------------------------------------
 .byte   An3
 .byte   W96
@  #03 @019   ----------------------------------------
 .byte   Gs3
 .byte   W96
@  #03 @020   ----------------------------------------
 .byte   TIE ,Bn3
 .byte   W96
@  #03 @021   ----------------------------------------
 .byte   W72
 .byte   EOT
 .byte   N06
 .byte   W12
 .byte   Cs4
 .byte   W12
@  #03 @022   ----------------------------------------
 .byte   TIE ,Dn4
 .byte   W96
@  #03 @023   ----------------------------------------
 .byte   W72
 .byte   EOT
 .byte   W12
 .byte   N12 ,En4
 .byte   W12
@  #03 @024   ----------------------------------------
 .byte   N96 ,Fs4
 .byte   W96
@  #03 @025   ----------------------------------------
 .byte   TIE ,Fs3
 .byte   W96
@  #03 @026   ----------------------------------------
 .byte   W96
@  #03 @027   ----------------------------------------
 .byte   W72
 .byte   EOT
 .byte   W12
 .byte   N12 ,En3
 .byte   W12
@  #03 @028   ----------------------------------------
 .byte   TIE ,Fs3
 .byte   W96
@  #03 @029   ----------------------------------------
 .byte   W96
@  #03 @030   ----------------------------------------
 .byte   W96
@  #03 @031   ----------------------------------------
 .byte   W48
 .byte   EOT
 .byte   W48
@  #03 @032   ----------------------------------------
 .byte   W96
@  #03 @033   ----------------------------------------
 .byte   W96
@  #03 @034   ----------------------------------------
 .byte   W96
@  #03 @035   ----------------------------------------
 .byte   W96
@  #03 @036   ----------------------------------------
 .byte   W96
@  #03 @037   ----------------------------------------
 .byte   W96
@  #03 @038   ----------------------------------------
 .byte   W96
@  #03 @039   ----------------------------------------
 .byte   W96
@  #03 @040   ----------------------------------------
 .byte   W96
@  #03 @041   ----------------------------------------
 .byte   W96
@  #03 @042   ----------------------------------------
 .byte   W96
@  #03 @043   ----------------------------------------
 .byte   W96
@  #03 @044   ----------------------------------------
 .byte   W96
@  #03 @045   ----------------------------------------
 .byte   W96
@  #03 @046   ----------------------------------------
 .byte   W96
@  #03 @047   ----------------------------------------
 .byte   W96
@  #03 @048   ----------------------------------------
 .byte   GOTO
  .word Label_0197CE92
 .byte   FINE

@**************** Track 4 (Midi-Chn.3) ****************@

song01_004:
@  #04 @000   ----------------------------------------
 .byte   KEYSH , song01_key+0
Label_0197CF32:
 .byte   VOICE , 31
 .byte   PAN , c_v-8
 .byte   VOL , 23*song01_mvl/mxv
 .byte   W96
@  #04 @001   ----------------------------------------
 .byte   W96
@  #04 @002   ----------------------------------------
 .byte   W96
@  #04 @003   ----------------------------------------
 .byte   W96
@  #04 @004   ----------------------------------------
 .byte   W96
@  #04 @005   ----------------------------------------
 .byte   W96
@  #04 @006   ----------------------------------------
 .byte   W96
@  #04 @007   ----------------------------------------
 .byte   W96
@  #04 @008   ----------------------------------------
 .byte   W96
@  #04 @009   ----------------------------------------
 .byte   W96
@  #04 @010   ----------------------------------------
 .byte   W96
@  #04 @011   ----------------------------------------
 .byte   W96
@  #04 @012   ----------------------------------------
 .byte   W96
@  #04 @013   ----------------------------------------
 .byte   W96
@  #04 @014   ----------------------------------------
 .byte   W96
@  #04 @015   ----------------------------------------
 .byte   W96
@  #04 @016   ----------------------------------------
 .byte   W96
@  #04 @017   ----------------------------------------
 .byte   W96
@  #04 @018   ----------------------------------------
 .byte   W96
@  #04 @019   ----------------------------------------
 .byte   W96
@  #04 @020   ----------------------------------------
 .byte   W96
@  #04 @021   ----------------------------------------
 .byte   W96
@  #04 @022   ----------------------------------------
 .byte   W96
@  #04 @023   ----------------------------------------
 .byte   W96
@  #04 @024   ----------------------------------------
 .byte   W96
@  #04 @025   ----------------------------------------
 .byte   W96
@  #04 @026   ----------------------------------------
 .byte   W96
@  #04 @027   ----------------------------------------
 .byte   W96
@  #04 @028   ----------------------------------------
 .byte   W96
@  #04 @029   ----------------------------------------
 .byte   W96
@  #04 @030   ----------------------------------------
 .byte   W96
@  #04 @031   ----------------------------------------
 .byte   W96
@  #04 @032   ----------------------------------------
 .byte   TIE ,Fs1 ,v100
 .byte   W96
@  #04 @033   ----------------------------------------
 .byte   W96
@  #04 @034   ----------------------------------------
Label_0197CF5D:
 .byte   EOT
 .byte   Fs1
 .byte   TIE ,Gn1 ,v100
 .byte   W96
 .byte   PEND 
@  #04 @035   ----------------------------------------
 .byte   W96
@  #04 @036   ----------------------------------------
Label_0197CF65:
 .byte   EOT
 .byte   Gn1
 .byte   TIE ,Fs1 ,v100
 .byte   W96
 .byte   PEND 
@  #04 @037   ----------------------------------------
 .byte   W96
@  #04 @038   ----------------------------------------
Label_0197CF6D:
 .byte   EOT
 .byte   Fs1
 .byte   TIE ,En1 ,v100
 .byte   W96
 .byte   PEND 
@  #04 @039   ----------------------------------------
 .byte   W96
@  #04 @040   ----------------------------------------
Label_0197CF75:
 .byte   EOT
 .byte   En1
 .byte   TIE ,Dn1 ,v100
 .byte   W96
 .byte   PEND 
@  #04 @041   ----------------------------------------
 .byte   W96
@  #04 @042   ----------------------------------------
Label_0197CF7D:
 .byte   EOT
 .byte   Dn1
 .byte   TIE ,Cs1 ,v100
 .byte   W96
 .byte   PEND 
@  #04 @043   ----------------------------------------
 .byte   W96
@  #04 @044   ----------------------------------------
Label_0197CF85:
 .byte   EOT
 .byte   Cs1
 .byte   TIE ,Fs1 ,v100
 .byte   W96
 .byte   PEND 
@  #04 @045   ----------------------------------------
 .byte   W96
@  #04 @046   ----------------------------------------
 .byte   W96
@  #04 @047   ----------------------------------------
 .byte   W72
 .byte   EOT
 .byte   W24
@  #04 @048   ----------------------------------------
 .byte   GOTO
  .word Label_0197CF32
 .byte   FINE

@**************** Track 5 (Midi-Chn.4) ****************@

song01_005:
@  #05 @000   ----------------------------------------
 .byte   KEYSH , song01_key+0
Label_01A16AB2:
 .byte   VOICE , 121
 .byte   VOL , 40*song01_mvl/mxv
 .byte   N72 ,An2 ,v127
 .byte   N48 ,Cs2 ,v064
 .byte   TIE ,En2 ,v076
 .byte   W96
@  #05 @001   ----------------------------------------
 .byte   W96
@  #05 @002   ----------------------------------------
 .byte   W96
@  #05 @003   ----------------------------------------
 .byte   W24
 .byte   EOT
 .byte   W72
@  #05 @004   ----------------------------------------
Label_01A16AC5:
 .byte   N48 ,Cn1 ,v102
 .byte   N24 ,Fs1
 .byte   W24
 .byte   Fs1
 .byte   W24
 .byte   N48 ,Dn1
 .byte   N24 ,Cs1
 .byte   W24
 .byte   Fs1
 .byte   W24
 .byte   PEND 
@  #05 @005   ----------------------------------------
Label_01A16AD5:
 .byte   N48 ,Cn1 ,v102
 .byte   N24 ,Fs1
 .byte   W24
 .byte   N12 ,Gs1
 .byte   W12
 .byte   Fs1
 .byte   W12
 .byte   N48 ,Dn1
 .byte   N24 ,Cs1
 .byte   W24
 .byte   Fs1
 .byte   W24
 .byte   PEND 
@  #05 @006   ----------------------------------------
 .byte   PATT
  .word Label_01A16AC5
@  #05 @007   ----------------------------------------
Label_01A16AED:
 .byte   N24 ,Cn1 ,v102
 .byte   N12 ,Gs1
 .byte   W12
 .byte   Fs1
 .byte   W12
 .byte   N24 ,Cn1
 .byte   N12 ,Gs1
 .byte   W12
 .byte   Fs1
 .byte   W12
 .byte   N24 ,Dn1
 .byte   N24 ,Cs1
 .byte   W24
 .byte   Cn1
 .byte   N24 ,Fs1
 .byte   W24
 .byte   PEND 
@  #05 @008   ----------------------------------------
 .byte   PATT
  .word Label_01A16AC5
@  #05 @009   ----------------------------------------
 .byte   PATT
  .word Label_01A16AD5
@  #05 @010   ----------------------------------------
 .byte   PATT
  .word Label_01A16AC5
@  #05 @011   ----------------------------------------
Label_01A16B15:
 .byte   N24 ,Cn1 ,v102
 .byte   N12 ,Gs1
 .byte   W12
 .byte   Fs1
 .byte   W12
 .byte   N24 ,Cn1
 .byte   N12 ,Gs1
 .byte   W12
 .byte   Fs1
 .byte   W12
 .byte   N24 ,Dn1
 .byte   N24 ,Cs1
 .byte   W24
 .byte   Cn1
 .byte   N24 ,Cs2
 .byte   W24
 .byte   PEND 
@  #05 @012   ----------------------------------------
 .byte   Cn1
 .byte   W24
 .byte   N12
 .byte   W12
 .byte   Cn1
 .byte   W12
 .byte   N24 ,Dn1
 .byte   W24
 .byte   N12 ,Cn1
 .byte   W12
 .byte   Cn1
 .byte   W12
@  #05 @013   ----------------------------------------
 .byte   N24
 .byte   W24
 .byte   Cn1
 .byte   W24
 .byte   N12 ,Bn1
 .byte   W12
 .byte   An1
 .byte   W12
 .byte   Gn1
 .byte   W12
 .byte   Fn1
 .byte   W12
@  #05 @014   ----------------------------------------
 .byte   N24 ,Cn1
 .byte   W24
 .byte   Cn1
 .byte   W24
 .byte   Dn1
 .byte   W24
 .byte   Cn1
 .byte   W24
@  #05 @015   ----------------------------------------
 .byte   Bn1 ,v127
 .byte   W24
 .byte   An1
 .byte   W24
 .byte   N12 ,Bn1
 .byte   W12
 .byte   An1
 .byte   W12
 .byte   Gn1
 .byte   W12
 .byte   Fn1
 .byte   W12
@  #05 @016   ----------------------------------------
 .byte   PATT
  .word Label_01A16AC5
@  #05 @017   ----------------------------------------
 .byte   PATT
  .word Label_01A16AD5
@  #05 @018   ----------------------------------------
 .byte   PATT
  .word Label_01A16AC5
@  #05 @019   ----------------------------------------
 .byte   PATT
  .word Label_01A16AED
@  #05 @020   ----------------------------------------
 .byte   PATT
  .word Label_01A16AC5
@  #05 @021   ----------------------------------------
 .byte   PATT
  .word Label_01A16AD5
@  #05 @022   ----------------------------------------
 .byte   PATT
  .word Label_01A16AC5
@  #05 @023   ----------------------------------------
 .byte   PATT
  .word Label_01A16B15
@  #05 @024   ----------------------------------------
 .byte   PATT
  .word Label_01A16AC5
@  #05 @025   ----------------------------------------
 .byte   PATT
  .word Label_01A16AD5
@  #05 @026   ----------------------------------------
 .byte   PATT
  .word Label_01A16AC5
@  #05 @027   ----------------------------------------
 .byte   PATT
  .word Label_01A16AED
@  #05 @028   ----------------------------------------
 .byte   PATT
  .word Label_01A16AC5
@  #05 @029   ----------------------------------------
 .byte   PATT
  .word Label_01A16AD5
@  #05 @030   ----------------------------------------
 .byte   PATT
  .word Label_01A16AC5
@  #05 @031   ----------------------------------------
 .byte   PATT
  .word Label_01A16B15
@  #05 @032   ----------------------------------------
 .byte   N96 ,Cn1 ,v102
 .byte   N48 ,Fs1
 .byte   W48
 .byte   Ds2
 .byte   W48
@  #05 @033   ----------------------------------------
 .byte   N96 ,Dn1
 .byte   N48 ,Fs1
 .byte   W48
 .byte   Ds2
 .byte   W48
@  #05 @034   ----------------------------------------
 .byte   N96 ,Cn1
 .byte   N48 ,Fs1
 .byte   W48
 .byte   N24 ,Cs1
 .byte   W24
 .byte   Fs1
 .byte   W24
@  #05 @035   ----------------------------------------
 .byte   N48 ,Dn1
 .byte   N48 ,Ds2
 .byte   W48
 .byte   Dn1
 .byte   N48 ,Ds2
 .byte   W48
@  #05 @036   ----------------------------------------
 .byte   N96 ,Cn1
 .byte   N48 ,Fs1
 .byte   W48
 .byte   Cs1
 .byte   W48
@  #05 @037   ----------------------------------------
 .byte   N96 ,Dn1
 .byte   N48 ,Fs1
 .byte   W48
 .byte   Cs1
 .byte   W48
@  #05 @038   ----------------------------------------
 .byte   N96 ,Cn1
 .byte   N48 ,Fs1
 .byte   W48
 .byte   Fs1
 .byte   W48
@  #05 @039   ----------------------------------------
 .byte   N24 ,Bn1 ,v127
 .byte   N48 ,Fs1 ,v102
 .byte   W24
 .byte   N24 ,An1 ,v127
 .byte   W24
 .byte   N12 ,Bn1
 .byte   W12
 .byte   An1
 .byte   W12
 .byte   Gn1
 .byte   W12
 .byte   Fn1
 .byte   W12
@  #05 @040   ----------------------------------------
 .byte   PATT
  .word Label_01A16AC5
@  #05 @041   ----------------------------------------
 .byte   PATT
  .word Label_01A16AD5
@  #05 @042   ----------------------------------------
 .byte   PATT
  .word Label_01A16AC5
@  #05 @043   ----------------------------------------
 .byte   PATT
  .word Label_01A16AED
@  #05 @044   ----------------------------------------
 .byte   PATT
  .word Label_01A16AC5
@  #05 @045   ----------------------------------------
 .byte   PATT
  .word Label_01A16AD5
@  #05 @046   ----------------------------------------
 .byte   N48 ,Cn1 ,v102
 .byte   N24 ,Fs1
 .byte   N12 ,An1 ,v127
 .byte   W12
 .byte   An1
 .byte   W12
 .byte   N24 ,Fs1 ,v102
 .byte   N12 ,Bn1 ,v127
 .byte   W12
 .byte   Gn1
 .byte   N12 ,Bn1 ,v064
 .byte   W12
 .byte   N48 ,Dn1 ,v102
 .byte   N24 ,Cs1
 .byte   N24 ,Fn1 ,v127
 .byte   W24
 .byte   Fs1 ,v102
 .byte   N42 ,An2 ,v095
 .byte   N30 ,Cs2
 .byte   W24
@  #05 @047   ----------------------------------------
 .byte   N24 ,Cn1 ,v102
 .byte   N12 ,Gs1
 .byte   N96 ,En2 ,v121
 .byte   W12
 .byte   N12 ,Fs1 ,v102
 .byte   W12
 .byte   N24 ,Cn1
 .byte   N12 ,Gs1
 .byte   W12
 .byte   Fs1
 .byte   W12
 .byte   N24 ,Dn1
 .byte   N24 ,Cs1
 .byte   W24
 .byte   Cn1
 .byte   N24 ,Fs1
 .byte   W24
@  #05 @048   ----------------------------------------
 .byte   GOTO
  .word Label_01A16AB2
 .byte   FINE

@**************** Track 6 (Midi-Chn.5) ****************@

song01_006:
@  #06 @000   ----------------------------------------
 .byte   KEYSH , song01_key+0
Label_0197C54A:
 .byte   VOICE , 61
 .byte   PAN , c_v-1
 .byte   VOL , 31*song01_mvl/mxv
 .byte   N12 ,Cs2 ,v100
 .byte   W24
 .byte   Cs2
 .byte   W24
 .byte   Dn2
 .byte   W24
 .byte   Dn2
 .byte   W24
@  #06 @001   ----------------------------------------
Label_0197C55A:
 .byte   N12 ,Cs2 ,v100
 .byte   W24
 .byte   Cs2
 .byte   W24
 .byte   Dn2
 .byte   W24
 .byte   Dn2
 .byte   W24
 .byte   PEND 
@  #06 @002   ----------------------------------------
 .byte   PATT
  .word Label_0197C55A
@  #06 @003   ----------------------------------------
 .byte   PATT
  .word Label_0197C55A
@  #06 @004   ----------------------------------------
 .byte   PATT
  .word Label_0197C55A
@  #06 @005   ----------------------------------------
 .byte   PATT
  .word Label_0197C55A
@  #06 @006   ----------------------------------------
 .byte   PATT
  .word Label_0197C55A
@  #06 @007   ----------------------------------------
 .byte   PATT
  .word Label_0197C55A
@  #06 @008   ----------------------------------------
 .byte   PATT
  .word Label_0197C55A
@  #06 @009   ----------------------------------------
 .byte   PATT
  .word Label_0197C55A
@  #06 @010   ----------------------------------------
 .byte   PATT
  .word Label_0197C55A
@  #06 @011   ----------------------------------------
 .byte   PATT
  .word Label_0197C55A
@  #06 @012   ----------------------------------------
Label_0197C597:
 .byte   N12 ,En2 ,v100
 .byte   W24
 .byte   En2
 .byte   W24
 .byte   Dn2
 .byte   W24
 .byte   Dn2
 .byte   W24
 .byte   PEND 
@  #06 @013   ----------------------------------------
 .byte   PATT
  .word Label_0197C597
@  #06 @014   ----------------------------------------
 .byte   PATT
  .word Label_0197C597
@  #06 @015   ----------------------------------------
 .byte   PATT
  .word Label_0197C597
@  #06 @016   ----------------------------------------
 .byte   PATT
  .word Label_0197C55A
@  #06 @017   ----------------------------------------
 .byte   PATT
  .word Label_0197C55A
@  #06 @018   ----------------------------------------
 .byte   PATT
  .word Label_0197C55A
@  #06 @019   ----------------------------------------
 .byte   PATT
  .word Label_0197C55A
@  #06 @020   ----------------------------------------
 .byte   PATT
  .word Label_0197C55A
@  #06 @021   ----------------------------------------
 .byte   PATT
  .word Label_0197C55A
@  #06 @022   ----------------------------------------
 .byte   PATT
  .word Label_0197C55A
@  #06 @023   ----------------------------------------
 .byte   PATT
  .word Label_0197C55A
@  #06 @024   ----------------------------------------
 .byte   PATT
  .word Label_0197C55A
@  #06 @025   ----------------------------------------
 .byte   PATT
  .word Label_0197C55A
@  #06 @026   ----------------------------------------
 .byte   PATT
  .word Label_0197C55A
@  #06 @027   ----------------------------------------
 .byte   PATT
  .word Label_0197C55A
@  #06 @028   ----------------------------------------
 .byte   PATT
  .word Label_0197C55A
@  #06 @029   ----------------------------------------
 .byte   PATT
  .word Label_0197C55A
@  #06 @030   ----------------------------------------
 .byte   PATT
  .word Label_0197C55A
@  #06 @031   ----------------------------------------
 .byte   PATT
  .word Label_0197C55A
@  #06 @032   ----------------------------------------
 .byte   W96
@  #06 @033   ----------------------------------------
 .byte   W96
@  #06 @034   ----------------------------------------
 .byte   W96
@  #06 @035   ----------------------------------------
 .byte   W96
@  #06 @036   ----------------------------------------
 .byte   W96
@  #06 @037   ----------------------------------------
 .byte   W96
@  #06 @038   ----------------------------------------
 .byte   W96
@  #06 @039   ----------------------------------------
 .byte   W96
@  #06 @040   ----------------------------------------
 .byte   W96
@  #06 @041   ----------------------------------------
 .byte   W96
@  #06 @042   ----------------------------------------
 .byte   W96
@  #06 @043   ----------------------------------------
 .byte   W96
@  #06 @044   ----------------------------------------
 .byte   W96
@  #06 @045   ----------------------------------------
 .byte   W96
@  #06 @046   ----------------------------------------
 .byte   W96
@  #06 @047   ----------------------------------------
 .byte   W96
@  #06 @048   ----------------------------------------
 .byte   GOTO
  .word Label_0197C54A
 .byte   FINE

@**************** Track 7 (Midi-Chn.6) ****************@

song01_007:
@  #07 @000   ----------------------------------------
 .byte   KEYSH , song01_key+0
Label_0197C4BA:
 .byte   VOICE , 55
 .byte   VOL , 45*song01_mvl/mxv
 .byte   PAN , c_v+31
 .byte   W96
@  #07 @001   ----------------------------------------
 .byte   W96
@  #07 @002   ----------------------------------------
 .byte   W96
@  #07 @003   ----------------------------------------
 .byte   W96
@  #07 @004   ----------------------------------------
 .byte   W96
@  #07 @005   ----------------------------------------
 .byte   W96
@  #07 @006   ----------------------------------------
 .byte   W96
@  #07 @007   ----------------------------------------
 .byte   W96
@  #07 @008   ----------------------------------------
 .byte   W96
@  #07 @009   ----------------------------------------
 .byte   W96
@  #07 @010   ----------------------------------------
 .byte   W96
@  #07 @011   ----------------------------------------
 .byte   W96
@  #07 @012   ----------------------------------------
 .byte   W96
@  #07 @013   ----------------------------------------
 .byte   W96
@  #07 @014   ----------------------------------------
 .byte   W96
@  #07 @015   ----------------------------------------
 .byte   N24 ,Cs3 ,v100
 .byte   W48
 .byte   Bn2
 .byte   W48
@  #07 @016   ----------------------------------------
 .byte   N72 ,Cs3
 .byte   W96
@  #07 @017   ----------------------------------------
 .byte   W96
@  #07 @018   ----------------------------------------
 .byte   W96
@  #07 @019   ----------------------------------------
 .byte   W96
@  #07 @020   ----------------------------------------
 .byte   W96
@  #07 @021   ----------------------------------------
 .byte   W96
@  #07 @022   ----------------------------------------
 .byte   W72
 .byte   N12 ,Dn3
 .byte   W12
 .byte   En3
 .byte   W12
@  #07 @023   ----------------------------------------
 .byte   N72 ,Fs3
 .byte   W84
 .byte   N12 ,Gn3
 .byte   W12
@  #07 @024   ----------------------------------------
 .byte   TIE ,Fs3
 .byte   W96
@  #07 @025   ----------------------------------------
 .byte   W96
@  #07 @026   ----------------------------------------
 .byte   EOT
 .byte   N48
 .byte   W48
 .byte   N96 ,Fs2
 .byte   W48
@  #07 @027   ----------------------------------------
 .byte   W96
@  #07 @028   ----------------------------------------
 .byte   W84
 .byte   N12 ,En3
 .byte   W12
@  #07 @029   ----------------------------------------
 .byte   N96 ,Fs3
 .byte   W96
@  #07 @030   ----------------------------------------
 .byte   N24
 .byte   W48
 .byte   N96 ,Fs2
 .byte   W48
@  #07 @031   ----------------------------------------
 .byte   W96
@  #07 @032   ----------------------------------------
 .byte   W96
@  #07 @033   ----------------------------------------
 .byte   W96
@  #07 @034   ----------------------------------------
Label_0197C503:
 .byte   W36
 .byte   N24 ,Fs1 ,v085
 .byte   W60
 .byte   PEND 
@  #07 @035   ----------------------------------------
Label_0197C509:
 .byte   N24 ,Cs2 ,v085
 .byte   W48
 .byte   Fs2
 .byte   W48
 .byte   PEND 
@  #07 @036   ----------------------------------------
 .byte   W96
@  #07 @037   ----------------------------------------
 .byte   W96
@  #07 @038   ----------------------------------------
Label_0197C512:
 .byte   W48
 .byte   N24 ,Fs1 ,v085
 .byte   W48
 .byte   PEND 
@  #07 @039   ----------------------------------------
 .byte   PATT
  .word Label_0197C509
@  #07 @040   ----------------------------------------
 .byte   N96 ,Cs3 ,v085
 .byte   W96
@  #07 @041   ----------------------------------------
 .byte   Bn2
 .byte   W96
@  #07 @042   ----------------------------------------
 .byte   N72
 .byte   W84
 .byte   N12 ,Gs2
 .byte   W12
@  #07 @043   ----------------------------------------
Label_0197C528:
 .byte   N48 ,An2 ,v085
 .byte   W48
 .byte   Bn2
 .byte   W48
 .byte   PEND 
@  #07 @044   ----------------------------------------
 .byte   TIE ,Cs3
 .byte   W96
@  #07 @045   ----------------------------------------
Label_0197C532:
 .byte   W72
 .byte   EOT
 .byte   Cs3
 .byte   W12
 .byte   N12 ,Bn2 ,v085
 .byte   W12
 .byte   PEND 
@  #07 @046   ----------------------------------------
 .byte   TIE ,Cs3
 .byte   W96
@  #07 @047   ----------------------------------------
 .byte   W72
 .byte   EOT
 .byte   W24
@  #07 @048   ----------------------------------------
 .byte   GOTO
  .word Label_0197C4BA
 .byte   FINE

@**************** Track 8 (Midi-Chn.7) ****************@

song01_008:
@  #08 @000   ----------------------------------------
 .byte   KEYSH , song01_key+0
Label_0197D0FE:
 .byte   VOICE , 103
 .byte   VOL , 32*song01_mvl/mxv
 .byte   TIE ,Fs1 ,v100
 .byte   W96
@  #08 @001   ----------------------------------------
 .byte   W96
@  #08 @002   ----------------------------------------
 .byte   W96
@  #08 @003   ----------------------------------------
 .byte   W96
@  #08 @004   ----------------------------------------
 .byte   EOT
 .byte   W96
@  #08 @005   ----------------------------------------
 .byte   W96
@  #08 @006   ----------------------------------------
 .byte   W96
@  #08 @007   ----------------------------------------
 .byte   W96
@  #08 @008   ----------------------------------------
 .byte   W96
@  #08 @009   ----------------------------------------
 .byte   W96
@  #08 @010   ----------------------------------------
 .byte   W96
@  #08 @011   ----------------------------------------
 .byte   W96
@  #08 @012   ----------------------------------------
 .byte   W96
@  #08 @013   ----------------------------------------
 .byte   W96
@  #08 @014   ----------------------------------------
 .byte   W96
@  #08 @015   ----------------------------------------
 .byte   W96
@  #08 @016   ----------------------------------------
 .byte   W96
@  #08 @017   ----------------------------------------
 .byte   W96
@  #08 @018   ----------------------------------------
 .byte   W96
@  #08 @019   ----------------------------------------
 .byte   W96
@  #08 @020   ----------------------------------------
 .byte   W96
@  #08 @021   ----------------------------------------
 .byte   W96
@  #08 @022   ----------------------------------------
 .byte   W96
@  #08 @023   ----------------------------------------
 .byte   W96
@  #08 @024   ----------------------------------------
 .byte   W96
@  #08 @025   ----------------------------------------
 .byte   W96
@  #08 @026   ----------------------------------------
 .byte   W96
@  #08 @027   ----------------------------------------
 .byte   W96
@  #08 @028   ----------------------------------------
 .byte   W96
@  #08 @029   ----------------------------------------
 .byte   W96
@  #08 @030   ----------------------------------------
 .byte   W96
@  #08 @031   ----------------------------------------
 .byte   W96
@  #08 @032   ----------------------------------------
 .byte   TIE
 .byte   W96
@  #08 @033   ----------------------------------------
 .byte   W96
@  #08 @034   ----------------------------------------
 .byte   PATT
  .word Label_0197CF5D
@  #08 @035   ----------------------------------------
 .byte   W96
@  #08 @036   ----------------------------------------
 .byte   PATT
  .word Label_0197CF65
@  #08 @037   ----------------------------------------
 .byte   W96
@  #08 @038   ----------------------------------------
 .byte   PATT
  .word Label_0197CF6D
@  #08 @039   ----------------------------------------
 .byte   W96
@  #08 @040   ----------------------------------------
 .byte   PATT
  .word Label_0197CF75
@  #08 @041   ----------------------------------------
 .byte   W96
@  #08 @042   ----------------------------------------
 .byte   PATT
  .word Label_0197CF7D
@  #08 @043   ----------------------------------------
 .byte   W96
@  #08 @044   ----------------------------------------
 .byte   PATT
  .word Label_0197CF85
@  #08 @045   ----------------------------------------
 .byte   W96
@  #08 @046   ----------------------------------------
 .byte   W96
@  #08 @047   ----------------------------------------
 .byte   W72
 .byte   EOT
 .byte   Fs1
 .byte   W24
@  #08 @048   ----------------------------------------
 .byte   GOTO
  .word Label_0197D0FE
 .byte   FINE

@**************** Track 9 (Midi-Chn.8) ****************@

song01_009:
@  #09 @000   ----------------------------------------
 .byte   KEYSH , song01_key+0
Label_0197C35A:
 .byte   VOICE , 81
 .byte   PAN , c_v-26
 .byte   VOL , 29*song01_mvl/mxv
 .byte   N12 ,Fs2 ,v100
 .byte   W12
 .byte   Fs1
 .byte   W12
 .byte   Fs2
 .byte   W12
 .byte   Fs1
 .byte   W12
 .byte   Fs2
 .byte   W12
 .byte   Fs1
 .byte   W12
 .byte   Fs2
 .byte   W12
 .byte   Fs1
 .byte   W12
@  #09 @001   ----------------------------------------
Label_0197C372:
 .byte   N12 ,Fs2 ,v100
 .byte   W12
 .byte   Fs1
 .byte   W12
 .byte   Fs2
 .byte   W12
 .byte   Fs1
 .byte   W12
 .byte   Fs2
 .byte   W12
 .byte   Fs1
 .byte   W12
 .byte   Fs2
 .byte   W12
 .byte   Fs1
 .byte   W12
 .byte   PEND 
@  #09 @002   ----------------------------------------
 .byte   PATT
  .word Label_0197C372
@  #09 @003   ----------------------------------------
 .byte   PATT
  .word Label_0197C372
@  #09 @004   ----------------------------------------
 .byte   PATT
  .word Label_0197C372
@  #09 @005   ----------------------------------------
 .byte   PATT
  .word Label_0197C372
@  #09 @006   ----------------------------------------
 .byte   PATT
  .word Label_0197C372
@  #09 @007   ----------------------------------------
 .byte   PATT
  .word Label_0197C372
@  #09 @008   ----------------------------------------
 .byte   PATT
  .word Label_0197C372
@  #09 @009   ----------------------------------------
 .byte   PATT
  .word Label_0197C372
@  #09 @010   ----------------------------------------
 .byte   PATT
  .word Label_0197C372
@  #09 @011   ----------------------------------------
 .byte   PATT
  .word Label_0197C372
@  #09 @012   ----------------------------------------
Label_0197C3B7:
 .byte   N12 ,Gn2 ,v100
 .byte   W12
 .byte   Gn1
 .byte   W12
 .byte   Gn2
 .byte   W12
 .byte   Gn1
 .byte   W12
 .byte   Gn2
 .byte   W12
 .byte   Gn1
 .byte   W12
 .byte   Gn2
 .byte   W12
 .byte   Gn1
 .byte   W12
 .byte   PEND 
@  #09 @013   ----------------------------------------
 .byte   PATT
  .word Label_0197C3B7
@  #09 @014   ----------------------------------------
 .byte   PATT
  .word Label_0197C3B7
@  #09 @015   ----------------------------------------
 .byte   PATT
  .word Label_0197C3B7
@  #09 @016   ----------------------------------------
 .byte   PATT
  .word Label_0197C372
@  #09 @017   ----------------------------------------
 .byte   PATT
  .word Label_0197C372
@  #09 @018   ----------------------------------------
 .byte   PATT
  .word Label_0197C372
@  #09 @019   ----------------------------------------
 .byte   PATT
  .word Label_0197C372
@  #09 @020   ----------------------------------------
 .byte   PATT
  .word Label_0197C3B7
@  #09 @021   ----------------------------------------
 .byte   PATT
  .word Label_0197C3B7
@  #09 @022   ----------------------------------------
 .byte   PATT
  .word Label_0197C3B7
@  #09 @023   ----------------------------------------
 .byte   PATT
  .word Label_0197C3B7
@  #09 @024   ----------------------------------------
 .byte   PATT
  .word Label_0197C372
@  #09 @025   ----------------------------------------
 .byte   PATT
  .word Label_0197C372
@  #09 @026   ----------------------------------------
 .byte   PATT
  .word Label_0197C372
@  #09 @027   ----------------------------------------
 .byte   PATT
  .word Label_0197C372
@  #09 @028   ----------------------------------------
 .byte   PATT
  .word Label_0197C372
@  #09 @029   ----------------------------------------
 .byte   PATT
  .word Label_0197C372
@  #09 @030   ----------------------------------------
 .byte   PATT
  .word Label_0197C372
@  #09 @031   ----------------------------------------
 .byte   PATT
  .word Label_0197C372
@  #09 @032   ----------------------------------------
 .byte   W96
@  #09 @033   ----------------------------------------
 .byte   W96
@  #09 @034   ----------------------------------------
 .byte   W96
@  #09 @035   ----------------------------------------
 .byte   W96
@  #09 @036   ----------------------------------------
 .byte   W96
@  #09 @037   ----------------------------------------
 .byte   W96
@  #09 @038   ----------------------------------------
 .byte   W96
@  #09 @039   ----------------------------------------
 .byte   W96
@  #09 @040   ----------------------------------------
 .byte   W96
@  #09 @041   ----------------------------------------
 .byte   W96
@  #09 @042   ----------------------------------------
 .byte   W96
@  #09 @043   ----------------------------------------
 .byte   W96
@  #09 @044   ----------------------------------------
 .byte   W96
@  #09 @045   ----------------------------------------
 .byte   W96
@  #09 @046   ----------------------------------------
 .byte   W96
@  #09 @047   ----------------------------------------
 .byte   W96
@  #09 @048   ----------------------------------------
 .byte   GOTO
  .word Label_0197C35A
 .byte   FINE

@**************** Track 10 (Midi-Chn.9) ****************@

song01_010:
@  #10 @000   ----------------------------------------
 .byte   KEYSH , song01_key+0
Label_0197D162:
 .byte   VOICE , 100
 .byte   PAN , c_v-1
 .byte   VOL , 31*song01_mvl/mxv
 .byte   N12 ,Fs2 ,v100
 .byte   W12
 .byte   Gs2
 .byte   W12
 .byte   Fs2
 .byte   W12
 .byte   Gs2
 .byte   W12
 .byte   An2
 .byte   W12
 .byte   Bn2
 .byte   W12
 .byte   An2
 .byte   W12
 .byte   Gs2
 .byte   W12
@  #10 @001   ----------------------------------------
Label_0197D17A:
 .byte   N12 ,Fs2 ,v100
 .byte   W12
 .byte   Gs2
 .byte   W12
 .byte   Fs2
 .byte   W12
 .byte   Gs2
 .byte   W12
 .byte   An2
 .byte   W12
 .byte   Bn2
 .byte   W12
 .byte   An2
 .byte   W12
 .byte   Gs2
 .byte   W12
 .byte   PEND 
@  #10 @002   ----------------------------------------
 .byte   PATT
  .word Label_0197D17A
@  #10 @003   ----------------------------------------
 .byte   PATT
  .word Label_0197D17A
@  #10 @004   ----------------------------------------
 .byte   PATT
  .word Label_0197D17A
@  #10 @005   ----------------------------------------
 .byte   PATT
  .word Label_0197D17A
@  #10 @006   ----------------------------------------
 .byte   PATT
  .word Label_0197D17A
@  #10 @007   ----------------------------------------
 .byte   PATT
  .word Label_0197D17A
@  #10 @008   ----------------------------------------
 .byte   PATT
  .word Label_0197D17A
@  #10 @009   ----------------------------------------
 .byte   PATT
  .word Label_0197D17A
@  #10 @010   ----------------------------------------
 .byte   PATT
  .word Label_0197D17A
@  #10 @011   ----------------------------------------
 .byte   N12 ,Fs2 ,v100
 .byte   W12
 .byte   Gs2
 .byte   W12
 .byte   An2
 .byte   W12
 .byte   Bn2
 .byte   W12
 .byte   Cs3
 .byte   W12
 .byte   Dn3
 .byte   W12
 .byte   En3
 .byte   W12
 .byte   Fs3
 .byte   W12
@  #10 @012   ----------------------------------------
Label_0197D1CC:
 .byte   N12 ,Gs3 ,v100
 .byte   W12
 .byte   Fs3
 .byte   W12
 .byte   Gs3
 .byte   W12
 .byte   Fs3
 .byte   W12
 .byte   Gs3
 .byte   W12
 .byte   Fs3
 .byte   W12
 .byte   Gs3
 .byte   W12
 .byte   Fs3
 .byte   W12
 .byte   PEND 
@  #10 @013   ----------------------------------------
 .byte   PATT
  .word Label_0197D1CC
@  #10 @014   ----------------------------------------
 .byte   PATT
  .word Label_0197D1CC
@  #10 @015   ----------------------------------------
 .byte   N12 ,Gs3 ,v100
 .byte   W12
 .byte   Fs3
 .byte   W12
 .byte   Gs3
 .byte   W12
 .byte   Fs3
 .byte   W12
 .byte   Gs3
 .byte   W12
 .byte   An3
 .byte   W12
 .byte   Bn3
 .byte   W12
 .byte   Cs4
 .byte   W12
@  #10 @016   ----------------------------------------
 .byte   W96
@  #10 @017   ----------------------------------------
 .byte   W96
@  #10 @018   ----------------------------------------
 .byte   W96
@  #10 @019   ----------------------------------------
 .byte   W96
@  #10 @020   ----------------------------------------
 .byte   W96
@  #10 @021   ----------------------------------------
 .byte   W96
@  #10 @022   ----------------------------------------
 .byte   W96
@  #10 @023   ----------------------------------------
 .byte   W96
@  #10 @024   ----------------------------------------
 .byte   W96
@  #10 @025   ----------------------------------------
 .byte   W96
@  #10 @026   ----------------------------------------
 .byte   W96
@  #10 @027   ----------------------------------------
 .byte   W96
@  #10 @028   ----------------------------------------
 .byte   W96
@  #10 @029   ----------------------------------------
 .byte   W96
@  #10 @030   ----------------------------------------
 .byte   W96
@  #10 @031   ----------------------------------------
 .byte   W96
@  #10 @032   ----------------------------------------
 .byte   W96
@  #10 @033   ----------------------------------------
 .byte   W96
@  #10 @034   ----------------------------------------
 .byte   W96
@  #10 @035   ----------------------------------------
 .byte   W96
@  #10 @036   ----------------------------------------
 .byte   W96
@  #10 @037   ----------------------------------------
 .byte   W96
@  #10 @038   ----------------------------------------
 .byte   W96
@  #10 @039   ----------------------------------------
 .byte   W96
@  #10 @040   ----------------------------------------
 .byte   W96
@  #10 @041   ----------------------------------------
 .byte   W96
@  #10 @042   ----------------------------------------
 .byte   W96
@  #10 @043   ----------------------------------------
 .byte   W96
@  #10 @044   ----------------------------------------
 .byte   W96
@  #10 @045   ----------------------------------------
 .byte   W96
@  #10 @046   ----------------------------------------
 .byte   W96
@  #10 @047   ----------------------------------------
 .byte   W96
@  #10 @048   ----------------------------------------
 .byte   GOTO
  .word Label_0197D162
 .byte   FINE

@**************** Track 11 (Midi-Chn.10) ****************@

song01_011:
@  #11 @000   ----------------------------------------
 .byte   KEYSH , song01_key+0
Label_0197D226:
 .byte   VOICE , 29
 .byte   VOL , 29*song01_mvl/mxv
 .byte   PAN , c_v+6
 .byte   W96
@  #11 @001   ----------------------------------------
 .byte   W96
@  #11 @002   ----------------------------------------
 .byte   W96
@  #11 @003   ----------------------------------------
 .byte   W72
 .byte   N06 ,Bn3 ,v100
 .byte   W12
 .byte   N12 ,Fs4
 .byte   W12
@  #11 @004   ----------------------------------------
Label_0197D237:
 .byte   N72 ,Gs4 ,v100
 .byte   W72
 .byte   N06 ,Fs4
 .byte   W12
 .byte   Gs4
 .byte   W12
 .byte   PEND 
@  #11 @005   ----------------------------------------
Label_0197D241:
 .byte   N72 ,An4 ,v100
 .byte   W72
 .byte   N06 ,Gs4
 .byte   W12
 .byte   An4
 .byte   W12
 .byte   PEND 
@  #11 @006   ----------------------------------------
 .byte   N72 ,Bn4
 .byte   W72
 .byte   N06 ,An4
 .byte   W12
 .byte   Gs4
 .byte   W12
@  #11 @007   ----------------------------------------
 .byte   N72 ,An4
 .byte   W72
 .byte   N06 ,Bn3
 .byte   W12
 .byte   Fs4
 .byte   W12
@  #11 @008   ----------------------------------------
 .byte   PATT
  .word Label_0197D237
@  #11 @009   ----------------------------------------
 .byte   PATT
  .word Label_0197D241
@  #11 @010   ----------------------------------------
 .byte   N72 ,Bn4 ,v100
 .byte   W72
 .byte   N06 ,An4
 .byte   W12
 .byte   Bn4
 .byte   W12
@  #11 @011   ----------------------------------------
 .byte   N72 ,Cs5
 .byte   W84
 .byte   N12 ,En5
 .byte   W12
@  #11 @012   ----------------------------------------
 .byte   TIE ,Dn5
 .byte   W96
@  #11 @013   ----------------------------------------
 .byte   W96
@  #11 @014   ----------------------------------------
 .byte   W96
@  #11 @015   ----------------------------------------
 .byte   W96
@  #11 @016   ----------------------------------------
 .byte   EOT
 .byte   W96
@  #11 @017   ----------------------------------------
 .byte   W96
@  #11 @018   ----------------------------------------
 .byte   W96
@  #11 @019   ----------------------------------------
 .byte   W96
@  #11 @020   ----------------------------------------
 .byte   W96
@  #11 @021   ----------------------------------------
 .byte   W96
@  #11 @022   ----------------------------------------
 .byte   W96
@  #11 @023   ----------------------------------------
 .byte   W96
@  #11 @024   ----------------------------------------
 .byte   W96
@  #11 @025   ----------------------------------------
 .byte   W96
@  #11 @026   ----------------------------------------
 .byte   W96
@  #11 @027   ----------------------------------------
 .byte   W96
@  #11 @028   ----------------------------------------
 .byte   W96
@  #11 @029   ----------------------------------------
 .byte   W96
@  #11 @030   ----------------------------------------
 .byte   W96
@  #11 @031   ----------------------------------------
 .byte   W96
@  #11 @032   ----------------------------------------
Label_0197D28B:
 .byte   N12 ,Fs2 ,v100
 .byte   W12
 .byte   Fs4
 .byte   W12
 .byte   Fs2
 .byte   W12
 .byte   Fs4
 .byte   W12
 .byte   Fs2
 .byte   W12
 .byte   Fs4
 .byte   W12
 .byte   Fs2
 .byte   W12
 .byte   Fs4
 .byte   W12
 .byte   PEND 
@  #11 @033   ----------------------------------------
 .byte   PATT
  .word Label_0197D28B
@  #11 @034   ----------------------------------------
 .byte   PATT
  .word Label_0197D28B
@  #11 @035   ----------------------------------------
 .byte   PATT
  .word Label_0197D28B
@  #11 @036   ----------------------------------------
 .byte   PATT
  .word Label_0197D28B
@  #11 @037   ----------------------------------------
 .byte   PATT
  .word Label_0197D28B
@  #11 @038   ----------------------------------------
 .byte   PATT
  .word Label_0197D28B
@  #11 @039   ----------------------------------------
 .byte   PATT
  .word Label_0197D28B
@  #11 @040   ----------------------------------------
 .byte   PATT
  .word Label_0197D28B
@  #11 @041   ----------------------------------------
 .byte   PATT
  .word Label_0197D28B
@  #11 @042   ----------------------------------------
 .byte   PATT
  .word Label_0197D28B
@  #11 @043   ----------------------------------------
 .byte   PATT
  .word Label_0197D28B
@  #11 @044   ----------------------------------------
 .byte   PATT
  .word Label_0197D28B
@  #11 @045   ----------------------------------------
 .byte   PATT
  .word Label_0197D28B
@  #11 @046   ----------------------------------------
 .byte   PATT
  .word Label_0197D28B
@  #11 @047   ----------------------------------------
 .byte   PATT
  .word Label_0197D28B
@  #11 @048   ----------------------------------------
 .byte   GOTO
  .word Label_0197D226
 .byte   FINE

@**************** Track 12 (Midi-Chn.11) ****************@

song01_012:
@  #12 @000   ----------------------------------------
 .byte   KEYSH , song01_key+0
Label_0197CB7A:
 .byte   VOICE , 47
 .byte   VOL , 34*song01_mvl/mxv
 .byte   PAN , c_v-32
 .byte   N24 ,As2 ,v099
 .byte   W72
 .byte   N12
 .byte   W12
 .byte   As2
 .byte   W12
@  #12 @001   ----------------------------------------
Label_0197CB88:
 .byte   N24 ,As2 ,v099
 .byte   W24
 .byte   As2
 .byte   W72
 .byte   PEND 
@  #12 @002   ----------------------------------------
Label_0197CB8F:
 .byte   W72
 .byte   N24 ,As2 ,v099
 .byte   W24
 .byte   PEND 
@  #12 @003   ----------------------------------------
 .byte   PATT
  .word Label_0197CB88
@  #12 @004   ----------------------------------------
Label_0197CB9A:
 .byte   N24 ,As2 ,v099
 .byte   W72
 .byte   N12
 .byte   W12
 .byte   As2
 .byte   W12
 .byte   PEND 
@  #12 @005   ----------------------------------------
 .byte   PATT
  .word Label_0197CB88
@  #12 @006   ----------------------------------------
 .byte   PATT
  .word Label_0197CB8F
@  #12 @007   ----------------------------------------
 .byte   PATT
  .word Label_0197CB88
@  #12 @008   ----------------------------------------
 .byte   PATT
  .word Label_0197CB9A
@  #12 @009   ----------------------------------------
 .byte   PATT
  .word Label_0197CB88
@  #12 @010   ----------------------------------------
 .byte   PATT
  .word Label_0197CB8F
@  #12 @011   ----------------------------------------
 .byte   PATT
  .word Label_0197CB88
@  #12 @012   ----------------------------------------
 .byte   PATT
  .word Label_0197CB9A
@  #12 @013   ----------------------------------------
 .byte   PATT
  .word Label_0197CB88
@  #12 @014   ----------------------------------------
 .byte   PATT
  .word Label_0197CB8F
@  #12 @015   ----------------------------------------
Label_0197CBD5:
 .byte   N12 ,As2 ,v090
 .byte   W12
 .byte   Gs2
 .byte   W12
 .byte   As2 ,v080
 .byte   W12
 .byte   Gs2 ,v070
 .byte   W24
 .byte   As2 ,v080
 .byte   W12
 .byte   As2 ,v090
 .byte   W12
 .byte   As2 ,v099
 .byte   W12
 .byte   PEND 
@  #12 @016   ----------------------------------------
 .byte   PATT
  .word Label_0197CB9A
@  #12 @017   ----------------------------------------
 .byte   PATT
  .word Label_0197CB88
@  #12 @018   ----------------------------------------
 .byte   PATT
  .word Label_0197CB8F
@  #12 @019   ----------------------------------------
 .byte   PATT
  .word Label_0197CB88
@  #12 @020   ----------------------------------------
 .byte   PATT
  .word Label_0197CB9A
@  #12 @021   ----------------------------------------
 .byte   PATT
  .word Label_0197CB88
@  #12 @022   ----------------------------------------
 .byte   PATT
  .word Label_0197CB8F
@  #12 @023   ----------------------------------------
 .byte   PATT
  .word Label_0197CB88
@  #12 @024   ----------------------------------------
 .byte   PATT
  .word Label_0197CB9A
@  #12 @025   ----------------------------------------
 .byte   PATT
  .word Label_0197CB88
@  #12 @026   ----------------------------------------
 .byte   PATT
  .word Label_0197CB8F
@  #12 @027   ----------------------------------------
 .byte   PATT
  .word Label_0197CB88
@  #12 @028   ----------------------------------------
 .byte   PATT
  .word Label_0197CB9A
@  #12 @029   ----------------------------------------
 .byte   PATT
  .word Label_0197CB88
@  #12 @030   ----------------------------------------
 .byte   PATT
  .word Label_0197CB8F
@  #12 @031   ----------------------------------------
 .byte   N12 ,As2 ,v099
 .byte   W12
 .byte   Gs2 ,v090
 .byte   W12
 .byte   As2 ,v080
 .byte   W12
 .byte   Gs2 ,v070
 .byte   W24
 .byte   As2 ,v080
 .byte   W12
 .byte   As2 ,v090
 .byte   W12
 .byte   As2 ,v099
 .byte   W12
@  #12 @032   ----------------------------------------
 .byte   PATT
  .word Label_0197CB9A
@  #12 @033   ----------------------------------------
 .byte   PATT
  .word Label_0197CB88
@  #12 @034   ----------------------------------------
 .byte   PATT
  .word Label_0197CB8F
@  #12 @035   ----------------------------------------
 .byte   PATT
  .word Label_0197CB88
@  #12 @036   ----------------------------------------
 .byte   PATT
  .word Label_0197CB9A
@  #12 @037   ----------------------------------------
 .byte   PATT
  .word Label_0197CB88
@  #12 @038   ----------------------------------------
 .byte   PATT
  .word Label_0197CB8F
@  #12 @039   ----------------------------------------
 .byte   PATT
  .word Label_0197CB88
@  #12 @040   ----------------------------------------
 .byte   PATT
  .word Label_0197CB9A
@  #12 @041   ----------------------------------------
 .byte   PATT
  .word Label_0197CB88
@  #12 @042   ----------------------------------------
 .byte   PATT
  .word Label_0197CB8F
@  #12 @043   ----------------------------------------
 .byte   PATT
  .word Label_0197CB88
@  #12 @044   ----------------------------------------
 .byte   PATT
  .word Label_0197CB9A
@  #12 @045   ----------------------------------------
 .byte   PATT
  .word Label_0197CB88
@  #12 @046   ----------------------------------------
 .byte   PATT
  .word Label_0197CB8F
@  #12 @047   ----------------------------------------
 .byte   PATT
  .word Label_0197CBD5
@  #12 @048   ----------------------------------------
 .byte   GOTO
  .word Label_0197CB7A
 .byte   FINE

@**************** Track 13 (Midi-Chn.12) ****************@

song01_013:
@  #13 @000   ----------------------------------------
 .byte   KEYSH , song01_key+0
Label_0197CA4E:
 .byte   VOICE , 47
 .byte   VOL , 36*song01_mvl/mxv
 .byte   PAN , c_v+31
 .byte   N24 ,As1 ,v099
 .byte   W72
 .byte   N12
 .byte   W12
 .byte   As1
 .byte   W12
@  #13 @001   ----------------------------------------
Label_0197CA5C:
 .byte   N24 ,As1 ,v099
 .byte   W24
 .byte   As1
 .byte   W72
 .byte   PEND 
@  #13 @002   ----------------------------------------
Label_0197CA63:
 .byte   W72
 .byte   N24 ,As1 ,v099
 .byte   W24
 .byte   PEND 
@  #13 @003   ----------------------------------------
 .byte   PATT
  .word Label_0197CA5C
@  #13 @004   ----------------------------------------
Label_0197CA6E:
 .byte   N24 ,As1 ,v099
 .byte   W72
 .byte   N12
 .byte   W12
 .byte   As1
 .byte   W12
 .byte   PEND 
@  #13 @005   ----------------------------------------
 .byte   PATT
  .word Label_0197CA5C
@  #13 @006   ----------------------------------------
 .byte   PATT
  .word Label_0197CA63
@  #13 @007   ----------------------------------------
 .byte   PATT
  .word Label_0197CA5C
@  #13 @008   ----------------------------------------
 .byte   PATT
  .word Label_0197CA6E
@  #13 @009   ----------------------------------------
 .byte   PATT
  .word Label_0197CA5C
@  #13 @010   ----------------------------------------
 .byte   PATT
  .word Label_0197CA63
@  #13 @011   ----------------------------------------
 .byte   PATT
  .word Label_0197CA5C
@  #13 @012   ----------------------------------------
 .byte   PATT
  .word Label_0197CA6E
@  #13 @013   ----------------------------------------
 .byte   PATT
  .word Label_0197CA5C
@  #13 @014   ----------------------------------------
 .byte   PATT
  .word Label_0197CA63
@  #13 @015   ----------------------------------------
Label_0197CAA9:
 .byte   N12 ,As1 ,v090
 .byte   W12
 .byte   Gs1
 .byte   W12
 .byte   As1 ,v080
 .byte   W12
 .byte   Gs1 ,v070
 .byte   W24
 .byte   As1 ,v080
 .byte   W12
 .byte   As1 ,v090
 .byte   W12
 .byte   As1 ,v099
 .byte   W12
 .byte   PEND 
@  #13 @016   ----------------------------------------
 .byte   PATT
  .word Label_0197CA6E
@  #13 @017   ----------------------------------------
 .byte   PATT
  .word Label_0197CA5C
@  #13 @018   ----------------------------------------
 .byte   PATT
  .word Label_0197CA63
@  #13 @019   ----------------------------------------
 .byte   PATT
  .word Label_0197CA5C
@  #13 @020   ----------------------------------------
 .byte   PATT
  .word Label_0197CA6E
@  #13 @021   ----------------------------------------
 .byte   PATT
  .word Label_0197CA5C
@  #13 @022   ----------------------------------------
 .byte   PATT
  .word Label_0197CA63
@  #13 @023   ----------------------------------------
 .byte   PATT
  .word Label_0197CA5C
@  #13 @024   ----------------------------------------
 .byte   PATT
  .word Label_0197CA6E
@  #13 @025   ----------------------------------------
 .byte   PATT
  .word Label_0197CA5C
@  #13 @026   ----------------------------------------
 .byte   PATT
  .word Label_0197CA63
@  #13 @027   ----------------------------------------
 .byte   PATT
  .word Label_0197CA5C
@  #13 @028   ----------------------------------------
 .byte   PATT
  .word Label_0197CA6E
@  #13 @029   ----------------------------------------
 .byte   PATT
  .word Label_0197CA5C
@  #13 @030   ----------------------------------------
 .byte   PATT
  .word Label_0197CA63
@  #13 @031   ----------------------------------------
 .byte   N12 ,As1 ,v099
 .byte   W12
 .byte   Gs1 ,v090
 .byte   W12
 .byte   As1 ,v080
 .byte   W12
 .byte   Gs1 ,v070
 .byte   W24
 .byte   As1 ,v080
 .byte   W12
 .byte   As1 ,v090
 .byte   W12
 .byte   As1 ,v099
 .byte   W12
@  #13 @032   ----------------------------------------
 .byte   PATT
  .word Label_0197CA6E
@  #13 @033   ----------------------------------------
 .byte   PATT
  .word Label_0197CA5C
@  #13 @034   ----------------------------------------
 .byte   PATT
  .word Label_0197CA63
@  #13 @035   ----------------------------------------
 .byte   PATT
  .word Label_0197CA5C
@  #13 @036   ----------------------------------------
 .byte   PATT
  .word Label_0197CA6E
@  #13 @037   ----------------------------------------
 .byte   PATT
  .word Label_0197CA5C
@  #13 @038   ----------------------------------------
 .byte   PATT
  .word Label_0197CA63
@  #13 @039   ----------------------------------------
 .byte   PATT
  .word Label_0197CA5C
@  #13 @040   ----------------------------------------
 .byte   PATT
  .word Label_0197CA6E
@  #13 @041   ----------------------------------------
 .byte   PATT
  .word Label_0197CA5C
@  #13 @042   ----------------------------------------
 .byte   PATT
  .word Label_0197CA63
@  #13 @043   ----------------------------------------
 .byte   PATT
  .word Label_0197CA5C
@  #13 @044   ----------------------------------------
 .byte   PATT
  .word Label_0197CA6E
@  #13 @045   ----------------------------------------
 .byte   PATT
  .word Label_0197CA5C
@  #13 @046   ----------------------------------------
 .byte   PATT
  .word Label_0197CA63
@  #13 @047   ----------------------------------------
 .byte   PATT
  .word Label_0197CAA9
@  #13 @048   ----------------------------------------
 .byte   GOTO
  .word Label_0197CA4E
 .byte   FINE

@**************** Track 14 (Midi-Chn.13) ****************@

song01_014:
@  #14 @000   ----------------------------------------
 .byte   KEYSH , song01_key+0
Label_0197C2D2:
 .byte   VOICE , 14
 .byte   PAN , c_v-32
 .byte   VOL , 27*song01_mvl/mxv
 .byte   W96
@  #14 @001   ----------------------------------------
 .byte   W96
@  #14 @002   ----------------------------------------
 .byte   W96
@  #14 @003   ----------------------------------------
 .byte   W96
@  #14 @004   ----------------------------------------
 .byte   W96
@  #14 @005   ----------------------------------------
 .byte   W96
@  #14 @006   ----------------------------------------
 .byte   W96
@  #14 @007   ----------------------------------------
 .byte   W96
@  #14 @008   ----------------------------------------
 .byte   W96
@  #14 @009   ----------------------------------------
 .byte   W96
@  #14 @010   ----------------------------------------
 .byte   W96
@  #14 @011   ----------------------------------------
 .byte   W96
@  #14 @012   ----------------------------------------
 .byte   W96
@  #14 @013   ----------------------------------------
 .byte   W96
@  #14 @014   ----------------------------------------
 .byte   W96
@  #14 @015   ----------------------------------------
 .byte   N24 ,Gs2 ,v100
 .byte   W48
 .byte   Fs2
 .byte   W48
@  #14 @016   ----------------------------------------
 .byte   N72 ,Gs2
 .byte   W96
@  #14 @017   ----------------------------------------
 .byte   W96
@  #14 @018   ----------------------------------------
 .byte   W96
@  #14 @019   ----------------------------------------
 .byte   W96
@  #14 @020   ----------------------------------------
 .byte   W96
@  #14 @021   ----------------------------------------
 .byte   W96
@  #14 @022   ----------------------------------------
 .byte   W72
 .byte   N12 ,As2
 .byte   W12
 .byte   Bn2
 .byte   W12
@  #14 @023   ----------------------------------------
 .byte   N72 ,Cs3
 .byte   W84
 .byte   N12 ,Dn3
 .byte   W12
@  #14 @024   ----------------------------------------
 .byte   TIE ,Cs3
 .byte   W96
@  #14 @025   ----------------------------------------
 .byte   W96
@  #14 @026   ----------------------------------------
 .byte   EOT
 .byte   N48
 .byte   W48
 .byte   N96 ,Cs2
 .byte   W48
@  #14 @027   ----------------------------------------
 .byte   W96
@  #14 @028   ----------------------------------------
 .byte   W84
 .byte   N12 ,Bn2
 .byte   W12
@  #14 @029   ----------------------------------------
 .byte   N96 ,Cs3
 .byte   W96
@  #14 @030   ----------------------------------------
 .byte   N24
 .byte   W48
 .byte   N96 ,Cs2
 .byte   W48
@  #14 @031   ----------------------------------------
 .byte   W96
@  #14 @032   ----------------------------------------
 .byte   W96
@  #14 @033   ----------------------------------------
 .byte   W96
@  #14 @034   ----------------------------------------
 .byte   PATT
  .word Label_0197C503
@  #14 @035   ----------------------------------------
 .byte   PATT
  .word Label_0197C509
@  #14 @036   ----------------------------------------
 .byte   W96
@  #14 @037   ----------------------------------------
 .byte   W96
@  #14 @038   ----------------------------------------
 .byte   PATT
  .word Label_0197C512
@  #14 @039   ----------------------------------------
 .byte   PATT
  .word Label_0197C509
@  #14 @040   ----------------------------------------
 .byte   N96 ,Cs3 ,v085
 .byte   W96
@  #14 @041   ----------------------------------------
 .byte   Bn2
 .byte   W96
@  #14 @042   ----------------------------------------
 .byte   N72
 .byte   W84
 .byte   N12 ,Gs2 ,v101
 .byte   W12
@  #14 @043   ----------------------------------------
 .byte   PATT
  .word Label_0197C528
@  #14 @044   ----------------------------------------
 .byte   TIE ,Cs3 ,v085
 .byte   W96
@  #14 @045   ----------------------------------------
 .byte   PATT
  .word Label_0197C532
@  #14 @046   ----------------------------------------
 .byte   TIE ,Cs3 ,v085
 .byte   W96
@  #14 @047   ----------------------------------------
 .byte   W72
 .byte   EOT
 .byte   W24
@  #14 @048   ----------------------------------------
 .byte   GOTO
  .word Label_0197C2D2
 .byte   FINE

@******************************************************@
	.align	2

song01:
	.byte	14	@ NumTrks
	.byte	0	@ NumBlks
	.byte	song01_pri	@ Priority
	.byte	song01_rev	@ Reverb.
    
	.word	song01_grp
    
	.word	song01_001
	.word	song01_002
	.word	song01_003
	.word	song01_004
	.word	song01_005
	.word	song01_006
	.word	song01_007
	.word	song01_008
	.word	song01_009
	.word	song01_010
	.word	song01_011
	.word	song01_012
	.word	song01_013
	.word	song01_014

	.end
