	.include "MPlayDef.s"

	.equ	song36_grp, voicegroup000
	.equ	song36_pri, 0
	.equ	song36_rev, 0
	.equ	song36_mvl, 127
	.equ	song36_key, 0
	.equ	song36_tbs, 1
	.equ	song36_exg, 0
	.equ	song36_cmp, 1

	.section .rodata
	.global	song36
	.align	2


@**************** Track 1 (Midi-Chn.0) ****************@

song36_001:
@ 000   ----------------------------------------
 .byte   KEYSH , song36_key+0
Label_0_01391B4A:
 .byte   TEMPO , 200*song36_tbs/2
 .byte   VOICE , 124
 .byte   VOL , 20*song36_mvl/mxv
 .byte   PAN , c_v+0
 .byte   En3
 .byte   BEND , c_v+0
 .byte   N36 ,Fn1 ,v127
 .byte   W36
 .byte   N23
 .byte   W24
 .byte   N11
 .byte   W12
 .byte   N32
 .byte   W24
@ 001   ----------------------------------------
Label_0_01391B5F:
 .byte   W12
 .byte   N32 ,Fn1 ,v127
 .byte   W36
 .byte   N32
 .byte   W36
 .byte   N23
 .byte   W12
 .byte   PEND 
@ 002   ----------------------------------------
Label_0_01391B69:
 .byte   W12
 .byte   N11 ,Fn1 ,v127
 .byte   W12
 .byte   N32
 .byte   W36
 .byte   N32
 .byte   W36
 .byte   PEND 
@ 003   ----------------------------------------
Label_0_01391B73:
 .byte   N32 ,Fn1 ,v127
 .byte   W36
 .byte   N23
 .byte   W24
 .byte   N11
 .byte   W12
 .byte   N32
 .byte   W24
 .byte   PEND 
@ 004   ----------------------------------------
 .byte   PATT
  .word Label_0_01391B5F
@ 005   ----------------------------------------
 .byte   PATT
  .word Label_0_01391B69
@ 006   ----------------------------------------
 .byte   PATT
  .word Label_0_01391B73
@ 007   ----------------------------------------
 .byte   PATT
  .word Label_0_01391B5F
@ 008   ----------------------------------------
 .byte   PATT
  .word Label_0_01391B69
@ 009   ----------------------------------------
 .byte   PATT
  .word Label_0_01391B73
@ 010   ----------------------------------------
 .byte   PATT
  .word Label_0_01391B5F
@ 011   ----------------------------------------
 .byte   PATT
  .word Label_0_01391B69
@ 012   ----------------------------------------
 .byte   PATT
  .word Label_0_01391B73
@ 013   ----------------------------------------
 .byte   PATT
  .word Label_0_01391B5F
@ 014   ----------------------------------------
 .byte   PATT
  .word Label_0_01391B69
@ 015   ----------------------------------------
 .byte   PATT
  .word Label_0_01391B73
@ 016   ----------------------------------------
 .byte   PATT
  .word Label_0_01391B5F
@ 017   ----------------------------------------
 .byte   PATT
  .word Label_0_01391B69
@ 018   ----------------------------------------
 .byte   PATT
  .word Label_0_01391B73
@ 019   ----------------------------------------
 .byte   PATT
  .word Label_0_01391B5F
@ 020   ----------------------------------------
 .byte   PATT
  .word Label_0_01391B69
@ 021   ----------------------------------------
 .byte   PATT
  .word Label_0_01391B73
@ 022   ----------------------------------------
 .byte   PATT
  .word Label_0_01391B5F
@ 023   ----------------------------------------
 .byte   PATT
  .word Label_0_01391B69
@ 024   ----------------------------------------
 .byte   PATT
  .word Label_0_01391B73
@ 025   ----------------------------------------
 .byte   PATT
  .word Label_0_01391B5F
@ 026   ----------------------------------------
 .byte   PATT
  .word Label_0_01391B69
@ 027   ----------------------------------------
 .byte   PATT
  .word Label_0_01391B73
@ 028   ----------------------------------------
 .byte   PATT
  .word Label_0_01391B5F
@ 029   ----------------------------------------
 .byte   PATT
  .word Label_0_01391B69
@ 030   ----------------------------------------
 .byte   PATT
  .word Label_0_01391B73
@ 031   ----------------------------------------
 .byte   PATT
  .word Label_0_01391B5F
@ 032   ----------------------------------------
 .byte   PATT
  .word Label_0_01391B69
@ 033   ----------------------------------------
 .byte   PATT
  .word Label_0_01391B73
@ 034   ----------------------------------------
 .byte   PATT
  .word Label_0_01391B5F
@ 035   ----------------------------------------
 .byte   W12
 .byte   N11 ,Fn1 ,v127
 .byte   W12
 .byte   N32
 .byte   W36
 .byte   N32
 .byte   W32
 .byte   W02
 .byte   GOTO
  .word Label_0_01391B4A
@ 036   ----------------------------------------
 .byte   TEMPO , 200*song36_tbs/2
 .byte   PAN , c_v+0
 .byte   BEND , c_v+0
 .byte   FINE

@**************** Track 2 (Midi-Chn.1) ****************@

song36_002:
@ 000   ----------------------------------------
 .byte   KEYSH , song36_key+0
Label_1_01391C32:
 .byte   VOICE , 124
 .byte   VOL , 11*song36_mvl/mxv
 .byte   PAN , c_v+0
 .byte   En3
 .byte   BEND , c_v+0
 .byte   N12 ,Fs1 ,v127
 .byte   W12
 .byte   N11
 .byte   W12
 .byte   N11
 .byte   W12
 .byte   N11
 .byte   W12
 .byte   N11
 .byte   W12
 .byte   N11
 .byte   W12
 .byte   N11
 .byte   W12
 .byte   N11
 .byte   W12
@ 001   ----------------------------------------
Label_1_01391C4D:
 .byte   N11 ,Fs1 ,v127
 .byte   W12
 .byte   N11
 .byte   W12
 .byte   N11
 .byte   W12
 .byte   N11
 .byte   W12
 .byte   N11
 .byte   W12
 .byte   N11
 .byte   W12
 .byte   N11
 .byte   W12
 .byte   N11
 .byte   W12
 .byte   PEND 
@ 002   ----------------------------------------
 .byte   PATT
  .word Label_1_01391C4D
@ 003   ----------------------------------------
 .byte   PATT
  .word Label_1_01391C4D
@ 004   ----------------------------------------
 .byte   PATT
  .word Label_1_01391C4D
@ 005   ----------------------------------------
 .byte   PATT
  .word Label_1_01391C4D
@ 006   ----------------------------------------
 .byte   PATT
  .word Label_1_01391C4D
@ 007   ----------------------------------------
 .byte   PATT
  .word Label_1_01391C4D
@ 008   ----------------------------------------
 .byte   PATT
  .word Label_1_01391C4D
@ 009   ----------------------------------------
 .byte   PATT
  .word Label_1_01391C4D
@ 010   ----------------------------------------
 .byte   PATT
  .word Label_1_01391C4D
@ 011   ----------------------------------------
 .byte   PATT
  .word Label_1_01391C4D
@ 012   ----------------------------------------
 .byte   PATT
  .word Label_1_01391C4D
@ 013   ----------------------------------------
 .byte   PATT
  .word Label_1_01391C4D
@ 014   ----------------------------------------
 .byte   PATT
  .word Label_1_01391C4D
@ 015   ----------------------------------------
 .byte   PATT
  .word Label_1_01391C4D
@ 016   ----------------------------------------
 .byte   PATT
  .word Label_1_01391C4D
@ 017   ----------------------------------------
 .byte   PATT
  .word Label_1_01391C4D
@ 018   ----------------------------------------
 .byte   PATT
  .word Label_1_01391C4D
@ 019   ----------------------------------------
 .byte   PATT
  .word Label_1_01391C4D
@ 020   ----------------------------------------
 .byte   PATT
  .word Label_1_01391C4D
@ 021   ----------------------------------------
 .byte   PATT
  .word Label_1_01391C4D
@ 022   ----------------------------------------
 .byte   PATT
  .word Label_1_01391C4D
@ 023   ----------------------------------------
 .byte   PATT
  .word Label_1_01391C4D
@ 024   ----------------------------------------
 .byte   PATT
  .word Label_1_01391C4D
@ 025   ----------------------------------------
 .byte   PATT
  .word Label_1_01391C4D
@ 026   ----------------------------------------
 .byte   PATT
  .word Label_1_01391C4D
@ 027   ----------------------------------------
 .byte   PATT
  .word Label_1_01391C4D
@ 028   ----------------------------------------
 .byte   PATT
  .word Label_1_01391C4D
@ 029   ----------------------------------------
 .byte   PATT
  .word Label_1_01391C4D
@ 030   ----------------------------------------
 .byte   PATT
  .word Label_1_01391C4D
@ 031   ----------------------------------------
 .byte   PATT
  .word Label_1_01391C4D
@ 032   ----------------------------------------
 .byte   PATT
  .word Label_1_01391C4D
@ 033   ----------------------------------------
 .byte   PATT
  .word Label_1_01391C4D
@ 034   ----------------------------------------
 .byte   PATT
  .word Label_1_01391C4D
@ 035   ----------------------------------------
 .byte   N11 ,Fs1 ,v127
 .byte   W12
 .byte   N11
 .byte   W12
 .byte   N11
 .byte   W12
 .byte   N11
 .byte   W12
 .byte   N11
 .byte   W12
 .byte   N11
 .byte   W12
 .byte   N11
 .byte   W12
 .byte   N09
 .byte   W10
 .byte   GOTO
  .word Label_1_01391C32
@ 036   ----------------------------------------
 .byte   PAN , c_v+0
 .byte   BEND , c_v+0
 .byte   FINE

@**************** Track 3 (Midi-Chn.2) ****************@

song36_003:
@ 000   ----------------------------------------
 .byte   KEYSH , song36_key+0
Label_2_01391D26:
 .byte   VOICE , 127
 .byte   VOL , 24*song36_mvl/mxv
 .byte   PAN , c_v+0
 .byte   En3
 .byte   BEND , c_v+0
 .byte   N60 ,Bn2 ,v127
 .byte   W60
 .byte   N11
 .byte   W12
 .byte   N68
 .byte   W24
@ 001   ----------------------------------------
 .byte   W48
 .byte   N56
 .byte   W48
@ 002   ----------------------------------------
Label_2_01391D3A:
 .byte   W12
 .byte   N11 ,Bn2 ,v127
 .byte   W12
 .byte   N68
 .byte   W72
 .byte   PEND 
@ 003   ----------------------------------------
Label_2_01391D42:
 .byte   N56 ,Bn2 ,v127
 .byte   W60
 .byte   N11
 .byte   W12
 .byte   N68
 .byte   W24
 .byte   PEND 
@ 004   ----------------------------------------
 .byte   W48
 .byte   N56
 .byte   W48
@ 005   ----------------------------------------
 .byte   PATT
  .word Label_2_01391D3A
@ 006   ----------------------------------------
 .byte   PATT
  .word Label_2_01391D42
@ 007   ----------------------------------------
 .byte   W48
 .byte   N56 ,Bn2 ,v127
 .byte   W48
@ 008   ----------------------------------------
 .byte   PATT
  .word Label_2_01391D3A
@ 009   ----------------------------------------
 .byte   PATT
  .word Label_2_01391D42
@ 010   ----------------------------------------
 .byte   W48
 .byte   N56 ,Bn2 ,v127
 .byte   W48
@ 011   ----------------------------------------
 .byte   PATT
  .word Label_2_01391D3A
@ 012   ----------------------------------------
 .byte   PATT
  .word Label_2_01391D42
@ 013   ----------------------------------------
 .byte   W48
 .byte   N56 ,Bn2 ,v127
 .byte   W48
@ 014   ----------------------------------------
 .byte   PATT
  .word Label_2_01391D3A
@ 015   ----------------------------------------
 .byte   PATT
  .word Label_2_01391D42
@ 016   ----------------------------------------
 .byte   W48
 .byte   N56 ,Bn2 ,v127
 .byte   W48
@ 017   ----------------------------------------
 .byte   PATT
  .word Label_2_01391D3A
@ 018   ----------------------------------------
 .byte   PATT
  .word Label_2_01391D42
@ 019   ----------------------------------------
 .byte   W48
 .byte   N56 ,Bn2 ,v127
 .byte   W48
@ 020   ----------------------------------------
 .byte   PATT
  .word Label_2_01391D3A
@ 021   ----------------------------------------
 .byte   PATT
  .word Label_2_01391D42
@ 022   ----------------------------------------
 .byte   W48
 .byte   N56 ,Bn2 ,v127
 .byte   W48
@ 023   ----------------------------------------
 .byte   PATT
  .word Label_2_01391D3A
@ 024   ----------------------------------------
 .byte   PATT
  .word Label_2_01391D42
@ 025   ----------------------------------------
 .byte   W48
 .byte   N56 ,Bn2 ,v127
 .byte   W48
@ 026   ----------------------------------------
 .byte   PATT
  .word Label_2_01391D3A
@ 027   ----------------------------------------
 .byte   PATT
  .word Label_2_01391D42
@ 028   ----------------------------------------
 .byte   W48
 .byte   N56 ,Bn2 ,v127
 .byte   W48
@ 029   ----------------------------------------
 .byte   PATT
  .word Label_2_01391D3A
@ 030   ----------------------------------------
 .byte   PATT
  .word Label_2_01391D42
@ 031   ----------------------------------------
 .byte   W48
 .byte   N56 ,Bn2 ,v127
 .byte   W48
@ 032   ----------------------------------------
 .byte   PATT
  .word Label_2_01391D3A
@ 033   ----------------------------------------
 .byte   PATT
  .word Label_2_01391D42
@ 034   ----------------------------------------
 .byte   W48
 .byte   N56 ,Bn2 ,v127
 .byte   W48
@ 035   ----------------------------------------
 .byte   W12
 .byte   N11
 .byte   W12
 .byte   N68
 .byte   W68
 .byte   W02
 .byte   GOTO
  .word Label_2_01391D26
@ 036   ----------------------------------------
 .byte   PAN , c_v+0
 .byte   BEND , c_v+0
 .byte   FINE

@**************** Track 4 (Midi-Chn.3) ****************@

song36_004:
@ 000   ----------------------------------------
 .byte   KEYSH , song36_key+0
Label_3_01391DF6:
 .byte   VOICE , 124
 .byte   VOL , 17*song36_mvl/mxv
 .byte   PAN , c_v+0
 .byte   En3
 .byte   BEND , c_v+0
 .byte   N36 ,Bn1 ,v127
 .byte   W36
 .byte   N23
 .byte   W24
 .byte   N11
 .byte   W12
 .byte   N32
 .byte   W24
@ 001   ----------------------------------------
Label_3_01391E09:
 .byte   W12
 .byte   N23 ,Bn1 ,v127
 .byte   W24
 .byte   N11
 .byte   W12
 .byte   N32
 .byte   W36
 .byte   N23
 .byte   W12
 .byte   PEND 
@ 002   ----------------------------------------
Label_3_01391E15:
 .byte   W12
 .byte   N11 ,Bn1 ,v127
 .byte   W12
 .byte   N32
 .byte   W36
 .byte   N23
 .byte   W24
 .byte   N11
 .byte   W12
 .byte   PEND 
@ 003   ----------------------------------------
Label_3_01391E21:
 .byte   N32 ,Bn1 ,v127
 .byte   W36
 .byte   N23
 .byte   W24
 .byte   N11
 .byte   W12
 .byte   N32
 .byte   W24
 .byte   PEND 
@ 004   ----------------------------------------
 .byte   PATT
  .word Label_3_01391E09
@ 005   ----------------------------------------
 .byte   PATT
  .word Label_3_01391E15
@ 006   ----------------------------------------
 .byte   PATT
  .word Label_3_01391E21
@ 007   ----------------------------------------
 .byte   PATT
  .word Label_3_01391E09
@ 008   ----------------------------------------
 .byte   PATT
  .word Label_3_01391E15
@ 009   ----------------------------------------
 .byte   PATT
  .word Label_3_01391E21
@ 010   ----------------------------------------
 .byte   PATT
  .word Label_3_01391E09
@ 011   ----------------------------------------
 .byte   PATT
  .word Label_3_01391E15
@ 012   ----------------------------------------
 .byte   PATT
  .word Label_3_01391E21
@ 013   ----------------------------------------
 .byte   PATT
  .word Label_3_01391E09
@ 014   ----------------------------------------
 .byte   PATT
  .word Label_3_01391E15
@ 015   ----------------------------------------
 .byte   PATT
  .word Label_3_01391E21
@ 016   ----------------------------------------
 .byte   PATT
  .word Label_3_01391E09
@ 017   ----------------------------------------
 .byte   PATT
  .word Label_3_01391E15
@ 018   ----------------------------------------
 .byte   PATT
  .word Label_3_01391E21
@ 019   ----------------------------------------
 .byte   PATT
  .word Label_3_01391E09
@ 020   ----------------------------------------
 .byte   PATT
  .word Label_3_01391E15
@ 021   ----------------------------------------
 .byte   PATT
  .word Label_3_01391E21
@ 022   ----------------------------------------
 .byte   PATT
  .word Label_3_01391E09
@ 023   ----------------------------------------
 .byte   PATT
  .word Label_3_01391E15
@ 024   ----------------------------------------
 .byte   PATT
  .word Label_3_01391E21
@ 025   ----------------------------------------
 .byte   PATT
  .word Label_3_01391E09
@ 026   ----------------------------------------
 .byte   PATT
  .word Label_3_01391E15
@ 027   ----------------------------------------
 .byte   PATT
  .word Label_3_01391E21
@ 028   ----------------------------------------
 .byte   PATT
  .word Label_3_01391E09
@ 029   ----------------------------------------
 .byte   PATT
  .word Label_3_01391E15
@ 030   ----------------------------------------
 .byte   PATT
  .word Label_3_01391E21
@ 031   ----------------------------------------
 .byte   PATT
  .word Label_3_01391E09
@ 032   ----------------------------------------
 .byte   PATT
  .word Label_3_01391E15
@ 033   ----------------------------------------
 .byte   PATT
  .word Label_3_01391E21
@ 034   ----------------------------------------
 .byte   PATT
  .word Label_3_01391E09
@ 035   ----------------------------------------
 .byte   W12
 .byte   N11 ,Bn1 ,v127
 .byte   W12
 .byte   N32
 .byte   W36
 .byte   N23
 .byte   W24
 .byte   N09
 .byte   W10
 .byte   GOTO
  .word Label_3_01391DF6
@ 036   ----------------------------------------
 .byte   PAN , c_v+0
 .byte   BEND , c_v+0
 .byte   FINE

@**************** Track 5 (Midi-Chn.4) ****************@

song36_005:
@ 000   ----------------------------------------
 .byte   KEYSH , song36_key+0
Label_4_01391EDE:
 .byte   VOICE , 1
 .byte   PAN , c_v-1
 .byte   VOL , 28*song36_mvl/mxv
 .byte   BEND , c_v+0
 .byte   TIE ,Fn3 ,v127
 .byte   W96
@ 001   ----------------------------------------
 .byte   W36
 .byte   EOT
 .byte   TIE ,Ds3
 .byte   W60
@ 002   ----------------------------------------
 .byte   W92
 .byte   W03
 .byte   EOT
 .byte   W01
@ 003   ----------------------------------------
 .byte   TIE ,Fn3
 .byte   W96
@ 004   ----------------------------------------
 .byte   W32
 .byte   W03
 .byte   EOT
 .byte   W01
 .byte   TIE ,Dn3
 .byte   W60
@ 005   ----------------------------------------
 .byte   W92
 .byte   W03
 .byte   EOT
 .byte   W01
@ 006   ----------------------------------------
 .byte   TIE ,Fn3
 .byte   W96
@ 007   ----------------------------------------
 .byte   W32
 .byte   W03
 .byte   EOT
 .byte   W01
 .byte   TIE ,Ds3
 .byte   W60
@ 008   ----------------------------------------
 .byte   W92
 .byte   W03
 .byte   EOT
 .byte   W01
@ 009   ----------------------------------------
 .byte   TIE ,As2
 .byte   W96
@ 010   ----------------------------------------
 .byte   W32
 .byte   W03
 .byte   EOT
 .byte   W01
 .byte   TIE ,Gn2
 .byte   W60
@ 011   ----------------------------------------
 .byte   W92
 .byte   W03
 .byte   EOT
 .byte   W01
@ 012   ----------------------------------------
 .byte   TIE ,Fn3
 .byte   W96
@ 013   ----------------------------------------
 .byte   W32
 .byte   W03
 .byte   EOT
 .byte   W01
 .byte   TIE ,Ds3
 .byte   W60
@ 014   ----------------------------------------
 .byte   W92
 .byte   W03
 .byte   EOT
 .byte   W01
@ 015   ----------------------------------------
 .byte   TIE ,Fn3
 .byte   W96
@ 016   ----------------------------------------
 .byte   W32
 .byte   W03
 .byte   EOT
 .byte   W01
 .byte   TIE ,Dn3
 .byte   W60
@ 017   ----------------------------------------
 .byte   W92
 .byte   W03
 .byte   EOT
 .byte   W01
@ 018   ----------------------------------------
 .byte   TIE ,Fn3
 .byte   W96
@ 019   ----------------------------------------
 .byte   W32
 .byte   W03
 .byte   EOT
 .byte   W01
 .byte   TIE ,Ds3
 .byte   W60
@ 020   ----------------------------------------
 .byte   W92
 .byte   W03
 .byte   EOT
 .byte   W01
@ 021   ----------------------------------------
 .byte   TIE ,As2
 .byte   W96
@ 022   ----------------------------------------
 .byte   W32
 .byte   W03
 .byte   EOT
 .byte   W01
 .byte   TIE ,Gn2
 .byte   W60
@ 023   ----------------------------------------
 .byte   W92
 .byte   W03
 .byte   EOT
 .byte   W01
@ 024   ----------------------------------------
 .byte   TIE ,Gn3
 .byte   W96
@ 025   ----------------------------------------
 .byte   W32
 .byte   W03
 .byte   EOT
 .byte   W01
 .byte   TIE ,Fn3
 .byte   W60
@ 026   ----------------------------------------
 .byte   W92
 .byte   W03
 .byte   EOT
 .byte   W01
@ 027   ----------------------------------------
 .byte   TIE ,Gn3
 .byte   W96
@ 028   ----------------------------------------
 .byte   W32
 .byte   W03
 .byte   EOT
 .byte   W01
 .byte   TIE ,En3
 .byte   W60
@ 029   ----------------------------------------
 .byte   W92
 .byte   W03
 .byte   EOT
 .byte   W01
@ 030   ----------------------------------------
 .byte   TIE ,Gn3
 .byte   W96
@ 031   ----------------------------------------
 .byte   W32
 .byte   W03
 .byte   EOT
 .byte   W01
 .byte   TIE ,Fn3
 .byte   W60
@ 032   ----------------------------------------
 .byte   W92
 .byte   W03
 .byte   EOT
 .byte   W01
@ 033   ----------------------------------------
 .byte   TIE ,Cn3
 .byte   W96
@ 034   ----------------------------------------
 .byte   W32
 .byte   W03
 .byte   EOT
 .byte   W01
 .byte   TIE ,An2
 .byte   W60
@ 035   ----------------------------------------
 .byte   W92
 .byte   W01
 .byte   EOT
 .byte   W01
 .byte   GOTO
  .word Label_4_01391EDE
@ 036   ----------------------------------------
 .byte   BEND , c_v+0
 .byte   FINE

@**************** Track 6 (Midi-Chn.5) ****************@

song36_006:
@ 000   ----------------------------------------
 .byte   KEYSH , song36_key+0
Label_5_01391F9A:
 .byte   VOICE , 2
 .byte   PAN , c_v+29
 .byte   VOL , 24*song36_mvl/mxv
 .byte   BEND , c_v+0
 .byte   W96
@ 001   ----------------------------------------
 .byte   W96
@ 002   ----------------------------------------
 .byte   W96
@ 003   ----------------------------------------
 .byte   W96
@ 004   ----------------------------------------
 .byte   W96
@ 005   ----------------------------------------
 .byte   W96
@ 006   ----------------------------------------
 .byte   W96
@ 007   ----------------------------------------
 .byte   W96
@ 008   ----------------------------------------
 .byte   W96
@ 009   ----------------------------------------
 .byte   W96
@ 010   ----------------------------------------
 .byte   W96
@ 011   ----------------------------------------
 .byte   W96
@ 012   ----------------------------------------
 .byte   W24
 .byte   N11 ,An3 ,v127
 .byte   W12
 .byte   N56 ,En4
 .byte   W60
@ 013   ----------------------------------------
Label_5_01391FB6:
 .byte   N11 ,An3 ,v127
 .byte   W12
 .byte   N23 ,Dn4
 .byte   W24
 .byte   TIE ,Ds4
 .byte   W60
 .byte   PEND 
@ 014   ----------------------------------------
 .byte   W96
@ 015   ----------------------------------------
 .byte   W23
 .byte   EOT
 .byte   W01
 .byte   N11 ,An3
 .byte   W12
 .byte   N56 ,En4
 .byte   W60
@ 016   ----------------------------------------
 .byte   N11 ,An3
 .byte   W12
 .byte   N23 ,Dn4
 .byte   W24
 .byte   N68 ,En4
 .byte   W60
@ 017   ----------------------------------------
 .byte   W12
 .byte   TIE ,An4
 .byte   W84
@ 018   ----------------------------------------
 .byte   W23
 .byte   EOT
 .byte   W01
 .byte   N11 ,An3
 .byte   W12
 .byte   N56 ,En4
 .byte   W60
@ 019   ----------------------------------------
 .byte   PATT
  .word Label_5_01391FB6
@ 020   ----------------------------------------
 .byte   W96
@ 021   ----------------------------------------
 .byte   W23
 .byte   EOT
 .byte   Ds4
 .byte   W01
 .byte   N11 ,Gn3 ,v127
 .byte   W12
 .byte   N56 ,An3
 .byte   W60
@ 022   ----------------------------------------
 .byte   N11
 .byte   W12
 .byte   N23 ,Cn4
 .byte   W24
 .byte   N11 ,En4
 .byte   W12
 .byte   TIE ,Dn4
 .byte   W48
@ 023   ----------------------------------------
 .byte   W96
@ 024   ----------------------------------------
 .byte   W32
 .byte   W03
 .byte   EOT
 .byte   W01
 .byte   VOICE , 52
 .byte   N68 ,Bn1
 .byte   W60
@ 025   ----------------------------------------
Label_5_01392007:
 .byte   W12
 .byte   N23 ,Gn2 ,v127
 .byte   W24
 .byte   TIE ,Dn2
 .byte   W60
 .byte   PEND 
@ 026   ----------------------------------------
 .byte   W96
@ 027   ----------------------------------------
 .byte   W32
 .byte   W03
 .byte   EOT
 .byte   W01
 .byte   N68 ,Bn1
 .byte   W60
@ 028   ----------------------------------------
 .byte   W12
 .byte   N23 ,Gn2
 .byte   W24
 .byte   TIE ,En2
 .byte   W60
@ 029   ----------------------------------------
 .byte   W96
@ 030   ----------------------------------------
 .byte   W32
 .byte   W03
 .byte   EOT
 .byte   W01
 .byte   N68 ,Bn1
 .byte   W60
@ 031   ----------------------------------------
 .byte   PATT
  .word Label_5_01392007
@ 032   ----------------------------------------
 .byte   W96
@ 033   ----------------------------------------
 .byte   W32
 .byte   W03
 .byte   EOT
 .byte   Dn2
 .byte   W01
 .byte   N68 ,En2 ,v127
 .byte   W60
@ 034   ----------------------------------------
 .byte   W12
 .byte   N23 ,Cn3
 .byte   W24
 .byte   TIE ,An2
 .byte   W60
@ 035   ----------------------------------------
 .byte   W92
 .byte   W01
 .byte   EOT
 .byte   W01
 .byte   GOTO
  .word Label_5_01391F9A
@ 036   ----------------------------------------
 .byte   BEND , c_v+0
 .byte   FINE

@**************** Track 7 (Midi-Chn.6) ****************@

song36_007:
@ 000   ----------------------------------------
 .byte   KEYSH , song36_key+0
Label_6_56DBCE:
 .byte   VOICE , 2
 .byte   VOL , 24*song36_mvl/mxv
 .byte   PAN , c_v+12
 .byte   BEND , c_v+0
 .byte   W96
@ 001   ----------------------------------------
 .byte   W96
@ 002   ----------------------------------------
 .byte   W96
@ 003   ----------------------------------------
 .byte   W96
@ 004   ----------------------------------------
 .byte   W96
@ 005   ----------------------------------------
 .byte   W96
@ 006   ----------------------------------------
 .byte   W96
@ 007   ----------------------------------------
 .byte   W96
@ 008   ----------------------------------------
 .byte   W96
@ 009   ----------------------------------------
 .byte   W96
@ 010   ----------------------------------------
 .byte   W96
@ 011   ----------------------------------------
 .byte   W96
@ 012   ----------------------------------------
 .byte   W96
@ 013   ----------------------------------------
 .byte   W96
@ 014   ----------------------------------------
 .byte   W96
@ 015   ----------------------------------------
 .byte   W96
@ 016   ----------------------------------------
 .byte   W96
@ 017   ----------------------------------------
 .byte   W96
@ 018   ----------------------------------------
 .byte   W96
@ 019   ----------------------------------------
 .byte   W96
@ 020   ----------------------------------------
 .byte   W96
@ 021   ----------------------------------------
 .byte   W96
@ 022   ----------------------------------------
 .byte   W96
@ 023   ----------------------------------------
 .byte   W96
@ 024   ----------------------------------------
 .byte   W48
 .byte   VOICE , 52
 .byte   TIE ,Dn2 ,v127
 .byte   W48
@ 025   ----------------------------------------
 .byte   W96
@ 026   ----------------------------------------
 .byte   W96
@ 027   ----------------------------------------
 .byte   W44
 .byte   W03
 .byte   EOT
 .byte   W01
 .byte   TIE
 .byte   W48
@ 028   ----------------------------------------
 .byte   W96
@ 029   ----------------------------------------
 .byte   W96
@ 030   ----------------------------------------
 .byte   W44
 .byte   W03
 .byte   EOT
 .byte   W01
 .byte   TIE
 .byte   W48
@ 031   ----------------------------------------
 .byte   W96
@ 032   ----------------------------------------
 .byte   W96
@ 033   ----------------------------------------
 .byte   W44
 .byte   W03
 .byte   EOT
 .byte   W01
 .byte   TIE ,Gn2
 .byte   W48
@ 034   ----------------------------------------
 .byte   W96
@ 035   ----------------------------------------
 .byte   W92
 .byte   W01
 .byte   EOT
 .byte   W01
 .byte   GOTO
  .word Label_6_56DBCE
@ 036   ----------------------------------------
 .byte   BEND , c_v+0
 .byte   FINE

@**************** Track 8 (Midi-Chn.7) ****************@

song36_008:
@ 000   ----------------------------------------
 .byte   KEYSH , song36_key+0
Label_7_0139204E:
 .byte   VOICE , 52
 .byte   VOL , 26*song36_mvl/mxv
 .byte   PAN , c_v-26
 .byte   BEND , c_v+0
 .byte   W96
@ 001   ----------------------------------------
 .byte   W96
@ 002   ----------------------------------------
 .byte   W96
@ 003   ----------------------------------------
 .byte   W96
@ 004   ----------------------------------------
 .byte   W96
@ 005   ----------------------------------------
 .byte   W96
@ 006   ----------------------------------------
 .byte   W96
@ 007   ----------------------------------------
 .byte   W96
@ 008   ----------------------------------------
 .byte   W96
@ 009   ----------------------------------------
 .byte   W96
@ 010   ----------------------------------------
 .byte   W96
@ 011   ----------------------------------------
 .byte   W96
@ 012   ----------------------------------------
 .byte   W96
@ 013   ----------------------------------------
 .byte   W96
@ 014   ----------------------------------------
 .byte   W96
@ 015   ----------------------------------------
 .byte   W96
@ 016   ----------------------------------------
 .byte   W96
@ 017   ----------------------------------------
 .byte   W96
@ 018   ----------------------------------------
 .byte   W96
@ 019   ----------------------------------------
 .byte   W96
@ 020   ----------------------------------------
 .byte   W96
@ 021   ----------------------------------------
 .byte   W96
@ 022   ----------------------------------------
 .byte   W96
@ 023   ----------------------------------------
 .byte   W96
@ 024   ----------------------------------------
 .byte   W60
 .byte   N68 ,Fs2 ,v127
 .byte   W36
@ 025   ----------------------------------------
Label_7_01392073:
 .byte   W36
 .byte   TIE ,Fn2 ,v127
 .byte   W60
 .byte   PEND 
@ 026   ----------------------------------------
 .byte   W96
@ 027   ----------------------------------------
 .byte   W56
 .byte   W03
 .byte   EOT
 .byte   W01
 .byte   N68 ,Fs2
 .byte   W36
@ 028   ----------------------------------------
 .byte   W36
 .byte   TIE
 .byte   W60
@ 029   ----------------------------------------
 .byte   W96
@ 030   ----------------------------------------
 .byte   W56
 .byte   W03
 .byte   EOT
 .byte   W01
 .byte   N68
 .byte   W36
@ 031   ----------------------------------------
 .byte   PATT
  .word Label_7_01392073
@ 032   ----------------------------------------
 .byte   W96
@ 033   ----------------------------------------
 .byte   W56
 .byte   W03
 .byte   EOT
 .byte   Fn2
 .byte   W01
 .byte   N68 ,Bn2 ,v127
 .byte   W36
@ 034   ----------------------------------------
 .byte   W36
 .byte   TIE
 .byte   W60
@ 035   ----------------------------------------
 .byte   W92
 .byte   W01
 .byte   EOT
 .byte   W01
 .byte   GOTO
  .word Label_7_0139204E
@ 036   ----------------------------------------
 .byte   BEND , c_v+0
 .byte   FINE

@**************** Track 9 (Midi-Chn.8) ****************@

song36_009:
@ 000   ----------------------------------------
 .byte   KEYSH , song36_key+0
Label_8_013920AE:
 .byte   VOICE , 1
 .byte   VOL , 30*song36_mvl/mxv
 .byte   PAN , c_v+12
 .byte   BEND , c_v+0
 .byte   TIE ,Fn2 ,v127
 .byte   W96
@ 001   ----------------------------------------
 .byte   W36
 .byte   EOT
 .byte   TIE ,Ds2
 .byte   W60
@ 002   ----------------------------------------
 .byte   W92
 .byte   W03
 .byte   EOT
 .byte   W01
@ 003   ----------------------------------------
 .byte   TIE ,Fn2
 .byte   W96
@ 004   ----------------------------------------
 .byte   W32
 .byte   W03
 .byte   EOT
 .byte   W01
 .byte   TIE
 .byte   W60
@ 005   ----------------------------------------
 .byte   W92
 .byte   W03
 .byte   EOT
 .byte   W01
@ 006   ----------------------------------------
 .byte   TIE
 .byte   W96
@ 007   ----------------------------------------
 .byte   W32
 .byte   W03
 .byte   EOT
 .byte   W01
 .byte   TIE ,Ds2
 .byte   W60
@ 008   ----------------------------------------
 .byte   W92
 .byte   W03
 .byte   EOT
 .byte   W01
@ 009   ----------------------------------------
 .byte   TIE ,As2
 .byte   W96
@ 010   ----------------------------------------
 .byte   W32
 .byte   W03
 .byte   EOT
 .byte   W01
 .byte   TIE ,Gn2
 .byte   W60
@ 011   ----------------------------------------
 .byte   W92
 .byte   W03
 .byte   EOT
 .byte   W01
@ 012   ----------------------------------------
 .byte   TIE ,Fn2
 .byte   W96
@ 013   ----------------------------------------
 .byte   W32
 .byte   W03
 .byte   EOT
 .byte   W01
 .byte   TIE ,Ds2
 .byte   W60
@ 014   ----------------------------------------
 .byte   W92
 .byte   W03
 .byte   EOT
 .byte   W01
@ 015   ----------------------------------------
 .byte   TIE ,Fn2
 .byte   W96
@ 016   ----------------------------------------
 .byte   W32
 .byte   W03
 .byte   EOT
 .byte   W01
 .byte   TIE
 .byte   W60
@ 017   ----------------------------------------
 .byte   W92
 .byte   W03
 .byte   EOT
 .byte   W01
@ 018   ----------------------------------------
 .byte   TIE
 .byte   W96
@ 019   ----------------------------------------
 .byte   W32
 .byte   W03
 .byte   EOT
 .byte   W01
 .byte   TIE ,Ds2
 .byte   W60
@ 020   ----------------------------------------
 .byte   W92
 .byte   W03
 .byte   EOT
 .byte   W01
@ 021   ----------------------------------------
 .byte   TIE ,As2
 .byte   W96
@ 022   ----------------------------------------
 .byte   W32
 .byte   W03
 .byte   EOT
 .byte   W01
 .byte   TIE ,Gn2
 .byte   W60
@ 023   ----------------------------------------
 .byte   W92
 .byte   W03
 .byte   EOT
 .byte   W01
@ 024   ----------------------------------------
 .byte   TIE
 .byte   W96
@ 025   ----------------------------------------
 .byte   W32
 .byte   W03
 .byte   EOT
 .byte   W01
 .byte   TIE ,Fn2
 .byte   W60
@ 026   ----------------------------------------
 .byte   W92
 .byte   W03
 .byte   EOT
 .byte   W01
@ 027   ----------------------------------------
 .byte   TIE ,Gn2
 .byte   W96
@ 028   ----------------------------------------
 .byte   W32
 .byte   W03
 .byte   EOT
 .byte   W01
 .byte   TIE
 .byte   W60
@ 029   ----------------------------------------
 .byte   W92
 .byte   W03
 .byte   EOT
 .byte   W01
@ 030   ----------------------------------------
 .byte   TIE
 .byte   W96
@ 031   ----------------------------------------
 .byte   W32
 .byte   W03
 .byte   EOT
 .byte   W01
 .byte   TIE ,Fn2
 .byte   W60
@ 032   ----------------------------------------
 .byte   W92
 .byte   W03
 .byte   EOT
 .byte   W01
@ 033   ----------------------------------------
 .byte   TIE ,Cn3
 .byte   W96
@ 034   ----------------------------------------
 .byte   W32
 .byte   W03
 .byte   EOT
 .byte   W01
 .byte   TIE ,An2
 .byte   W60
@ 035   ----------------------------------------
 .byte   W92
 .byte   W01
 .byte   EOT
 .byte   W01
 .byte   GOTO
  .word Label_8_013920AE
@ 036   ----------------------------------------
 .byte   BEND , c_v+0
 .byte   FINE

@**************** Track 10 (Midi-Chn.9) ****************@

song36_010:
@ 000   ----------------------------------------
 .byte   KEYSH , song36_key+0
Label_9_01392162:
 .byte   VOICE , 1
 .byte   VOL , 30*song36_mvl/mxv
 .byte   PAN , c_v-13
 .byte   BEND , c_v+0
 .byte   TIE ,Cn3 ,v127
 .byte   W96
@ 001   ----------------------------------------
 .byte   W36
 .byte   EOT
 .byte   TIE ,As2
 .byte   W60
@ 002   ----------------------------------------
 .byte   W92
 .byte   W03
 .byte   EOT
 .byte   W01
@ 003   ----------------------------------------
 .byte   TIE ,Cn3
 .byte   W96
@ 004   ----------------------------------------
 .byte   W32
 .byte   W03
 .byte   EOT
 .byte   W01
 .byte   TIE ,Dn3
 .byte   W60
@ 005   ----------------------------------------
 .byte   W92
 .byte   W03
 .byte   EOT
 .byte   W01
@ 006   ----------------------------------------
 .byte   TIE ,Cn3
 .byte   W96
@ 007   ----------------------------------------
 .byte   W32
 .byte   W03
 .byte   EOT
 .byte   W01
 .byte   TIE ,As2
 .byte   W60
@ 008   ----------------------------------------
 .byte   W92
 .byte   W03
 .byte   EOT
 .byte   W01
@ 009   ----------------------------------------
 .byte   TIE ,Fn3
 .byte   W96
@ 010   ----------------------------------------
 .byte   W32
 .byte   W03
 .byte   EOT
 .byte   W01
 .byte   TIE ,Dn3
 .byte   W60
@ 011   ----------------------------------------
 .byte   W92
 .byte   W03
 .byte   EOT
 .byte   W01
@ 012   ----------------------------------------
 .byte   TIE ,Cn3
 .byte   W96
@ 013   ----------------------------------------
 .byte   W32
 .byte   W03
 .byte   EOT
 .byte   W01
 .byte   TIE ,As2
 .byte   W60
@ 014   ----------------------------------------
 .byte   W92
 .byte   W03
 .byte   EOT
 .byte   W01
@ 015   ----------------------------------------
 .byte   TIE ,Cn3
 .byte   W96
@ 016   ----------------------------------------
 .byte   W32
 .byte   W03
 .byte   EOT
 .byte   W01
 .byte   TIE ,Dn3
 .byte   W60
@ 017   ----------------------------------------
 .byte   W92
 .byte   W03
 .byte   EOT
 .byte   W01
@ 018   ----------------------------------------
 .byte   TIE ,Cn3
 .byte   W96
@ 019   ----------------------------------------
 .byte   W32
 .byte   W03
 .byte   EOT
 .byte   W01
 .byte   TIE ,As2
 .byte   W60
@ 020   ----------------------------------------
 .byte   W92
 .byte   W03
 .byte   EOT
 .byte   W01
@ 021   ----------------------------------------
 .byte   TIE ,Fn3
 .byte   W96
@ 022   ----------------------------------------
 .byte   W32
 .byte   W03
 .byte   EOT
 .byte   W01
 .byte   TIE ,Dn3
 .byte   W60
@ 023   ----------------------------------------
 .byte   W92
 .byte   W03
 .byte   EOT
 .byte   W01
@ 024   ----------------------------------------
 .byte   TIE
 .byte   W96
@ 025   ----------------------------------------
 .byte   W32
 .byte   W03
 .byte   EOT
 .byte   W01
 .byte   TIE ,Cn3
 .byte   W60
@ 026   ----------------------------------------
 .byte   W92
 .byte   W03
 .byte   EOT
 .byte   W01
@ 027   ----------------------------------------
 .byte   TIE ,Dn3
 .byte   W96
@ 028   ----------------------------------------
 .byte   W32
 .byte   W03
 .byte   EOT
 .byte   W01
 .byte   TIE ,En3
 .byte   W60
@ 029   ----------------------------------------
 .byte   W92
 .byte   W03
 .byte   EOT
 .byte   W01
@ 030   ----------------------------------------
 .byte   TIE ,Dn3
 .byte   W96
@ 031   ----------------------------------------
 .byte   W32
 .byte   W03
 .byte   EOT
 .byte   W01
 .byte   TIE ,Cn3
 .byte   W60
@ 032   ----------------------------------------
 .byte   W92
 .byte   W03
 .byte   EOT
 .byte   W01
@ 033   ----------------------------------------
 .byte   TIE ,Gn3
 .byte   W96
@ 034   ----------------------------------------
 .byte   W32
 .byte   W03
 .byte   EOT
 .byte   W01
 .byte   TIE ,En3
 .byte   W60
@ 035   ----------------------------------------
 .byte   W92
 .byte   W01
 .byte   EOT
 .byte   W01
 .byte   GOTO
  .word Label_9_01392162
@ 036   ----------------------------------------
 .byte   BEND , c_v+0
 .byte   FINE

@**************** Track 11 (Midi-Chn.10) ****************@

song36_011:
@ 000   ----------------------------------------
 .byte   KEYSH , song36_key+0
Label_10_0139221A:
 .byte   VOICE , 1
 .byte   VOL , 25*song36_mvl/mxv
 .byte   PAN , c_v+21
 .byte   BEND , c_v+0
 .byte   TIE ,En3 ,v127
 .byte   W96
@ 001   ----------------------------------------
 .byte   W36
 .byte   EOT
 .byte   TIE ,Cn3
 .byte   W60
@ 002   ----------------------------------------
 .byte   W92
 .byte   W03
 .byte   EOT
 .byte   W01
@ 003   ----------------------------------------
 .byte   TIE ,En3
 .byte   W96
@ 004   ----------------------------------------
 .byte   W32
 .byte   W03
 .byte   EOT
 .byte   W01
 .byte   TIE
 .byte   W60
@ 005   ----------------------------------------
 .byte   W92
 .byte   W03
 .byte   EOT
 .byte   W01
@ 006   ----------------------------------------
 .byte   TIE
 .byte   W96
@ 007   ----------------------------------------
 .byte   W32
 .byte   W03
 .byte   EOT
 .byte   W01
 .byte   TIE ,Cn3
 .byte   W60
@ 008   ----------------------------------------
 .byte   W92
 .byte   W03
 .byte   EOT
 .byte   W01
@ 009   ----------------------------------------
 .byte   TIE ,An3
 .byte   W96
@ 010   ----------------------------------------
 .byte   W32
 .byte   W03
 .byte   EOT
 .byte   W01
 .byte   TIE ,Fn3
 .byte   W60
@ 011   ----------------------------------------
 .byte   W92
 .byte   W03
 .byte   EOT
 .byte   W01
@ 012   ----------------------------------------
 .byte   TIE ,En3
 .byte   W96
@ 013   ----------------------------------------
 .byte   W32
 .byte   W03
 .byte   EOT
 .byte   W01
 .byte   TIE ,Cn3
 .byte   W60
@ 014   ----------------------------------------
 .byte   W92
 .byte   W03
 .byte   EOT
 .byte   W01
@ 015   ----------------------------------------
 .byte   TIE ,En3
 .byte   W96
@ 016   ----------------------------------------
 .byte   W32
 .byte   W03
 .byte   EOT
 .byte   W01
 .byte   TIE
 .byte   W60
@ 017   ----------------------------------------
 .byte   W92
 .byte   W03
 .byte   EOT
 .byte   W01
@ 018   ----------------------------------------
 .byte   TIE
 .byte   W96
@ 019   ----------------------------------------
 .byte   W32
 .byte   W03
 .byte   EOT
 .byte   W01
 .byte   TIE ,Cn3
 .byte   W60
@ 020   ----------------------------------------
 .byte   W92
 .byte   W03
 .byte   EOT
 .byte   W01
@ 021   ----------------------------------------
 .byte   TIE ,An3
 .byte   W96
@ 022   ----------------------------------------
 .byte   W32
 .byte   W03
 .byte   EOT
 .byte   W01
 .byte   TIE ,Fn3
 .byte   W60
@ 023   ----------------------------------------
 .byte   W92
 .byte   W03
 .byte   EOT
 .byte   W01
@ 024   ----------------------------------------
 .byte   TIE ,Fs3
 .byte   W96
@ 025   ----------------------------------------
 .byte   W32
 .byte   W03
 .byte   EOT
 .byte   W01
 .byte   TIE ,Dn3
 .byte   W60
@ 026   ----------------------------------------
 .byte   W92
 .byte   W03
 .byte   EOT
 .byte   W01
@ 027   ----------------------------------------
 .byte   TIE ,Fs3
 .byte   W96
@ 028   ----------------------------------------
 .byte   W32
 .byte   W03
 .byte   EOT
 .byte   W01
 .byte   TIE
 .byte   W60
@ 029   ----------------------------------------
 .byte   W92
 .byte   W03
 .byte   EOT
 .byte   W01
@ 030   ----------------------------------------
 .byte   TIE
 .byte   W96
@ 031   ----------------------------------------
 .byte   W32
 .byte   W03
 .byte   EOT
 .byte   W01
 .byte   TIE ,Dn3
 .byte   W60
@ 032   ----------------------------------------
 .byte   W92
 .byte   W03
 .byte   EOT
 .byte   W01
@ 033   ----------------------------------------
 .byte   TIE ,Bn3
 .byte   W96
@ 034   ----------------------------------------
 .byte   W32
 .byte   W03
 .byte   EOT
 .byte   W01
 .byte   TIE ,Gn3
 .byte   W60
@ 035   ----------------------------------------
 .byte   W92
 .byte   W01
 .byte   EOT
 .byte   W01
 .byte   GOTO
  .word Label_10_0139221A
@ 036   ----------------------------------------
 .byte   BEND , c_v+0
 .byte   FINE

@**************** Track 12 (Midi-Chn.11) ****************@

song36_012:
@ 000   ----------------------------------------
 .byte   KEYSH , song36_key+0
Label_11_013922CE:
 .byte   VOICE , 1
 .byte   VOL , 25*song36_mvl/mxv
 .byte   PAN , c_v-22
 .byte   BEND , c_v+0
 .byte   TIE ,An2 ,v127
 .byte   W96
@ 001   ----------------------------------------
 .byte   W36
 .byte   EOT
 .byte   TIE ,Gn2
 .byte   W60
@ 002   ----------------------------------------
 .byte   W92
 .byte   W03
 .byte   EOT
 .byte   W01
@ 003   ----------------------------------------
 .byte   TIE ,An2
 .byte   W96
@ 004   ----------------------------------------
 .byte   W32
 .byte   W03
 .byte   EOT
 .byte   W01
 .byte   TIE
 .byte   W60
@ 005   ----------------------------------------
 .byte   W92
 .byte   W03
 .byte   EOT
 .byte   W01
@ 006   ----------------------------------------
 .byte   TIE
 .byte   W96
@ 007   ----------------------------------------
 .byte   W32
 .byte   W03
 .byte   EOT
 .byte   W01
 .byte   TIE ,Gn2
 .byte   W60
@ 008   ----------------------------------------
 .byte   W92
 .byte   W03
 .byte   EOT
 .byte   W01
@ 009   ----------------------------------------
 .byte   TIE ,Dn3
 .byte   W96
@ 010   ----------------------------------------
 .byte   W32
 .byte   W03
 .byte   EOT
 .byte   W01
 .byte   TIE ,As2
 .byte   W60
@ 011   ----------------------------------------
 .byte   W92
 .byte   W03
 .byte   EOT
 .byte   W01
@ 012   ----------------------------------------
 .byte   TIE ,An2
 .byte   W96
@ 013   ----------------------------------------
 .byte   W32
 .byte   W03
 .byte   EOT
 .byte   W01
 .byte   TIE ,Gn2
 .byte   W60
@ 014   ----------------------------------------
 .byte   W92
 .byte   W03
 .byte   EOT
 .byte   W01
@ 015   ----------------------------------------
 .byte   TIE ,An2
 .byte   W96
@ 016   ----------------------------------------
 .byte   W32
 .byte   W03
 .byte   EOT
 .byte   W01
 .byte   TIE
 .byte   W60
@ 017   ----------------------------------------
 .byte   W92
 .byte   W03
 .byte   EOT
 .byte   W01
@ 018   ----------------------------------------
 .byte   TIE
 .byte   W96
@ 019   ----------------------------------------
 .byte   W32
 .byte   W03
 .byte   EOT
 .byte   W01
 .byte   TIE ,Gn2
 .byte   W60
@ 020   ----------------------------------------
 .byte   W92
 .byte   W03
 .byte   EOT
 .byte   W01
@ 021   ----------------------------------------
 .byte   TIE ,Dn3
 .byte   W96
@ 022   ----------------------------------------
 .byte   W32
 .byte   W03
 .byte   EOT
 .byte   W01
 .byte   TIE ,As2
 .byte   W60
@ 023   ----------------------------------------
 .byte   W92
 .byte   W03
 .byte   EOT
 .byte   W01
@ 024   ----------------------------------------
 .byte   TIE ,Bn2
 .byte   W96
@ 025   ----------------------------------------
 .byte   W32
 .byte   W03
 .byte   EOT
 .byte   W01
 .byte   TIE ,An2
 .byte   W60
@ 026   ----------------------------------------
 .byte   W92
 .byte   W03
 .byte   EOT
 .byte   W01
@ 027   ----------------------------------------
 .byte   TIE ,Bn2
 .byte   W96
@ 028   ----------------------------------------
 .byte   W32
 .byte   W03
 .byte   EOT
 .byte   W01
 .byte   TIE
 .byte   W60
@ 029   ----------------------------------------
 .byte   W92
 .byte   W03
 .byte   EOT
 .byte   W01
@ 030   ----------------------------------------
 .byte   TIE
 .byte   W96
@ 031   ----------------------------------------
 .byte   W32
 .byte   W03
 .byte   EOT
 .byte   W01
 .byte   TIE ,An2
 .byte   W60
@ 032   ----------------------------------------
 .byte   W92
 .byte   W03
 .byte   EOT
 .byte   W01
@ 033   ----------------------------------------
 .byte   TIE ,En3
 .byte   W96
@ 034   ----------------------------------------
 .byte   W32
 .byte   W03
 .byte   EOT
 .byte   W01
 .byte   TIE ,Cn3
 .byte   W60
@ 035   ----------------------------------------
 .byte   W92
 .byte   W01
 .byte   EOT
 .byte   W01
 .byte   GOTO
  .word Label_11_013922CE
@ 036   ----------------------------------------
 .byte   BEND , c_v+0
 .byte   FINE

@******************************************************@
	.align	2

song36:
	.byte	12	@ NumTrks
	.byte	0	@ NumBlks
	.byte	song36_pri	@ Priority
	.byte	song36_rev	@ Reverb.
    
	.word	song36_grp
    
	.word	song36_001
	.word	song36_002
	.word	song36_003
	.word	song36_004
	.word	song36_005
	.word	song36_006
	.word	song36_007
	.word	song36_008
	.word	song36_009
	.word	song36_010
	.word	song36_011
	.word	song36_012

	.end
