//Event file generated from Sappy .s format.
	#include "MPlayDef.event"

	#define	song36_grp  voicegroup001
	#define	song36_pri  0
	#define	song36_rev  148 //0x94
	#define	song36_mvl  127
	#define	song36_key  0
	#define	song36_tbs  1
	#define	song36_exg  0
	#define	song36_cmp  1

	// .rodata
	//	song36
	ALIGN 4


//**************** Track 1 (Midi-Chn.0) ****************//

song36_001:
// 000   ----------------------------------------
 BYTE   KEYSH   song36_key+0
Label_0_01391B4A:
 BYTE   TEMPO   200*song36_tbs/2
 BYTE   VOICE   124
 BYTE   VOL   20*song36_mvl/mxv
 BYTE   PAN   c_v+0
 BYTE   En3
 BYTE   BEND   c_v+0
 BYTE   N36  Fn1  v127
 BYTE   W36
 BYTE   N23
 BYTE   W24
 BYTE   N11
 BYTE   W12
 BYTE   N32
 BYTE   W24
// 001   ----------------------------------------
Label_0_01391B5F:
 BYTE   W12
 BYTE   N32  Fn1  v127
 BYTE   W36
 BYTE   N32
 BYTE   W36
 BYTE   N23
 BYTE   W12
 BYTE   PEND 
// 002   ----------------------------------------
Label_0_01391B69:
 BYTE   W12
 BYTE   N11  Fn1  v127
 BYTE   W12
 BYTE   N32
 BYTE   W36
 BYTE   N32
 BYTE   W36
 BYTE   PEND 
// 003   ----------------------------------------
Label_0_01391B73:
 BYTE   N32  Fn1  v127
 BYTE   W36
 BYTE   N23
 BYTE   W24
 BYTE   N11
 BYTE   W12
 BYTE   N32
 BYTE   W24
 BYTE   PEND 
// 004   ----------------------------------------
 BYTE   PATT
  POIN2 Label_0_01391B5F
// 005   ----------------------------------------
 BYTE   PATT
  POIN2 Label_0_01391B69
// 006   ----------------------------------------
 BYTE   PATT
  POIN2 Label_0_01391B73
// 007   ----------------------------------------
 BYTE   PATT
  POIN2 Label_0_01391B5F
// 008   ----------------------------------------
 BYTE   PATT
  POIN2 Label_0_01391B69
// 009   ----------------------------------------
 BYTE   PATT
  POIN2 Label_0_01391B73
// 010   ----------------------------------------
 BYTE   PATT
  POIN2 Label_0_01391B5F
// 011   ----------------------------------------
 BYTE   PATT
  POIN2 Label_0_01391B69
// 012   ----------------------------------------
 BYTE   PATT
  POIN2 Label_0_01391B73
// 013   ----------------------------------------
 BYTE   PATT
  POIN2 Label_0_01391B5F
// 014   ----------------------------------------
 BYTE   PATT
  POIN2 Label_0_01391B69
// 015   ----------------------------------------
 BYTE   PATT
  POIN2 Label_0_01391B73
// 016   ----------------------------------------
 BYTE   PATT
  POIN2 Label_0_01391B5F
// 017   ----------------------------------------
 BYTE   PATT
  POIN2 Label_0_01391B69
// 018   ----------------------------------------
 BYTE   PATT
  POIN2 Label_0_01391B73
// 019   ----------------------------------------
 BYTE   PATT
  POIN2 Label_0_01391B5F
// 020   ----------------------------------------
 BYTE   PATT
  POIN2 Label_0_01391B69
// 021   ----------------------------------------
 BYTE   PATT
  POIN2 Label_0_01391B73
// 022   ----------------------------------------
 BYTE   PATT
  POIN2 Label_0_01391B5F
// 023   ----------------------------------------
 BYTE   PATT
  POIN2 Label_0_01391B69
// 024   ----------------------------------------
 BYTE   PATT
  POIN2 Label_0_01391B73
// 025   ----------------------------------------
 BYTE   PATT
  POIN2 Label_0_01391B5F
// 026   ----------------------------------------
 BYTE   PATT
  POIN2 Label_0_01391B69
// 027   ----------------------------------------
 BYTE   PATT
  POIN2 Label_0_01391B73
// 028   ----------------------------------------
 BYTE   PATT
  POIN2 Label_0_01391B5F
// 029   ----------------------------------------
 BYTE   PATT
  POIN2 Label_0_01391B69
// 030   ----------------------------------------
 BYTE   PATT
  POIN2 Label_0_01391B73
// 031   ----------------------------------------
 BYTE   PATT
  POIN2 Label_0_01391B5F
// 032   ----------------------------------------
 BYTE   PATT
  POIN2 Label_0_01391B69
// 033   ----------------------------------------
 BYTE   PATT
  POIN2 Label_0_01391B73
// 034   ----------------------------------------
 BYTE   PATT
  POIN2 Label_0_01391B5F
// 035   ----------------------------------------
 BYTE   W12
 BYTE   N11  Fn1  v127
 BYTE   W12
 BYTE   N32
 BYTE   W36
 BYTE   N32
 BYTE   W32
 BYTE   W02
 BYTE   GoTo
  POIN2 Label_0_01391B4A
// 036   ----------------------------------------
 BYTE   TEMPO   200*song36_tbs/2
 BYTE   PAN   c_v+0
 BYTE   BEND   c_v+0
 BYTE   FINE

//**************** Track 2 (Midi-Chn.1) ****************//

song36_002:
// 000   ----------------------------------------
 BYTE   KEYSH   song36_key+0
Label_1_01391C32:
 BYTE   VOICE   124
 BYTE   VOL   11*song36_mvl/mxv
 BYTE   PAN   c_v+0
 BYTE   En3
 BYTE   BEND   c_v+0
 BYTE   N12  Fs1  v127
 BYTE   W12
 BYTE   N11
 BYTE   W12
 BYTE   N11
 BYTE   W12
 BYTE   N11
 BYTE   W12
 BYTE   N11
 BYTE   W12
 BYTE   N11
 BYTE   W12
 BYTE   N11
 BYTE   W12
 BYTE   N11
 BYTE   W12
// 001   ----------------------------------------
Label_1_01391C4D:
 BYTE   N11  Fs1  v127
 BYTE   W12
 BYTE   N11
 BYTE   W12
 BYTE   N11
 BYTE   W12
 BYTE   N11
 BYTE   W12
 BYTE   N11
 BYTE   W12
 BYTE   N11
 BYTE   W12
 BYTE   N11
 BYTE   W12
 BYTE   N11
 BYTE   W12
 BYTE   PEND 
// 002   ----------------------------------------
 BYTE   PATT
  POIN2 Label_1_01391C4D
// 003   ----------------------------------------
 BYTE   PATT
  POIN2 Label_1_01391C4D
// 004   ----------------------------------------
 BYTE   PATT
  POIN2 Label_1_01391C4D
// 005   ----------------------------------------
 BYTE   PATT
  POIN2 Label_1_01391C4D
// 006   ----------------------------------------
 BYTE   PATT
  POIN2 Label_1_01391C4D
// 007   ----------------------------------------
 BYTE   PATT
  POIN2 Label_1_01391C4D
// 008   ----------------------------------------
 BYTE   PATT
  POIN2 Label_1_01391C4D
// 009   ----------------------------------------
 BYTE   PATT
  POIN2 Label_1_01391C4D
// 010   ----------------------------------------
 BYTE   PATT
  POIN2 Label_1_01391C4D
// 011   ----------------------------------------
 BYTE   PATT
  POIN2 Label_1_01391C4D
// 012   ----------------------------------------
 BYTE   PATT
  POIN2 Label_1_01391C4D
// 013   ----------------------------------------
 BYTE   PATT
  POIN2 Label_1_01391C4D
// 014   ----------------------------------------
 BYTE   PATT
  POIN2 Label_1_01391C4D
// 015   ----------------------------------------
 BYTE   PATT
  POIN2 Label_1_01391C4D
// 016   ----------------------------------------
 BYTE   PATT
  POIN2 Label_1_01391C4D
// 017   ----------------------------------------
 BYTE   PATT
  POIN2 Label_1_01391C4D
// 018   ----------------------------------------
 BYTE   PATT
  POIN2 Label_1_01391C4D
// 019   ----------------------------------------
 BYTE   PATT
  POIN2 Label_1_01391C4D
// 020   ----------------------------------------
 BYTE   PATT
  POIN2 Label_1_01391C4D
// 021   ----------------------------------------
 BYTE   PATT
  POIN2 Label_1_01391C4D
// 022   ----------------------------------------
 BYTE   PATT
  POIN2 Label_1_01391C4D
// 023   ----------------------------------------
 BYTE   PATT
  POIN2 Label_1_01391C4D
// 024   ----------------------------------------
 BYTE   PATT
  POIN2 Label_1_01391C4D
// 025   ----------------------------------------
 BYTE   PATT
  POIN2 Label_1_01391C4D
// 026   ----------------------------------------
 BYTE   PATT
  POIN2 Label_1_01391C4D
// 027   ----------------------------------------
 BYTE   PATT
  POIN2 Label_1_01391C4D
// 028   ----------------------------------------
 BYTE   PATT
  POIN2 Label_1_01391C4D
// 029   ----------------------------------------
 BYTE   PATT
  POIN2 Label_1_01391C4D
// 030   ----------------------------------------
 BYTE   PATT
  POIN2 Label_1_01391C4D
// 031   ----------------------------------------
 BYTE   PATT
  POIN2 Label_1_01391C4D
// 032   ----------------------------------------
 BYTE   PATT
  POIN2 Label_1_01391C4D
// 033   ----------------------------------------
 BYTE   PATT
  POIN2 Label_1_01391C4D
// 034   ----------------------------------------
 BYTE   PATT
  POIN2 Label_1_01391C4D
// 035   ----------------------------------------
 BYTE   N11  Fs1  v127
 BYTE   W12
 BYTE   N11
 BYTE   W12
 BYTE   N11
 BYTE   W12
 BYTE   N11
 BYTE   W12
 BYTE   N11
 BYTE   W12
 BYTE   N11
 BYTE   W12
 BYTE   N11
 BYTE   W12
 BYTE   N09
 BYTE   W10
 BYTE   GoTo
  POIN2 Label_1_01391C32
// 036   ----------------------------------------
 BYTE   PAN   c_v+0
 BYTE   BEND   c_v+0
 BYTE   FINE

//**************** Track 3 (Midi-Chn.2) ****************//

song36_003:
// 000   ----------------------------------------
 BYTE   KEYSH   song36_key+0
Label_2_01391D26:
 BYTE   VOICE   127
 BYTE   VOL   24*song36_mvl/mxv
 BYTE   PAN   c_v+0
 BYTE   En3
 BYTE   BEND   c_v+0
 BYTE   N60  Bn2  v127
 BYTE   W60
 BYTE   N11
 BYTE   W12
 BYTE   N68
 BYTE   W24
// 001   ----------------------------------------
 BYTE   W48
 BYTE   N56
 BYTE   W48
// 002   ----------------------------------------
Label_2_01391D3A:
 BYTE   W12
 BYTE   N11  Bn2  v127
 BYTE   W12
 BYTE   N68
 BYTE   W72
 BYTE   PEND 
// 003   ----------------------------------------
Label_2_01391D42:
 BYTE   N56  Bn2  v127
 BYTE   W60
 BYTE   N11
 BYTE   W12
 BYTE   N68
 BYTE   W24
 BYTE   PEND 
// 004   ----------------------------------------
 BYTE   W48
 BYTE   N56
 BYTE   W48
// 005   ----------------------------------------
 BYTE   PATT
  POIN2 Label_2_01391D3A
// 006   ----------------------------------------
 BYTE   PATT
  POIN2 Label_2_01391D42
// 007   ----------------------------------------
 BYTE   W48
 BYTE   N56  Bn2  v127
 BYTE   W48
// 008   ----------------------------------------
 BYTE   PATT
  POIN2 Label_2_01391D3A
// 009   ----------------------------------------
 BYTE   PATT
  POIN2 Label_2_01391D42
// 010   ----------------------------------------
 BYTE   W48
 BYTE   N56  Bn2  v127
 BYTE   W48
// 011   ----------------------------------------
 BYTE   PATT
  POIN2 Label_2_01391D3A
// 012   ----------------------------------------
 BYTE   PATT
  POIN2 Label_2_01391D42
// 013   ----------------------------------------
 BYTE   W48
 BYTE   N56  Bn2  v127
 BYTE   W48
// 014   ----------------------------------------
 BYTE   PATT
  POIN2 Label_2_01391D3A
// 015   ----------------------------------------
 BYTE   PATT
  POIN2 Label_2_01391D42
// 016   ----------------------------------------
 BYTE   W48
 BYTE   N56  Bn2  v127
 BYTE   W48
// 017   ----------------------------------------
 BYTE   PATT
  POIN2 Label_2_01391D3A
// 018   ----------------------------------------
 BYTE   PATT
  POIN2 Label_2_01391D42
// 019   ----------------------------------------
 BYTE   W48
 BYTE   N56  Bn2  v127
 BYTE   W48
// 020   ----------------------------------------
 BYTE   PATT
  POIN2 Label_2_01391D3A
// 021   ----------------------------------------
 BYTE   PATT
  POIN2 Label_2_01391D42
// 022   ----------------------------------------
 BYTE   W48
 BYTE   N56  Bn2  v127
 BYTE   W48
// 023   ----------------------------------------
 BYTE   PATT
  POIN2 Label_2_01391D3A
// 024   ----------------------------------------
 BYTE   PATT
  POIN2 Label_2_01391D42
// 025   ----------------------------------------
 BYTE   W48
 BYTE   N56  Bn2  v127
 BYTE   W48
// 026   ----------------------------------------
 BYTE   PATT
  POIN2 Label_2_01391D3A
// 027   ----------------------------------------
 BYTE   PATT
  POIN2 Label_2_01391D42
// 028   ----------------------------------------
 BYTE   W48
 BYTE   N56  Bn2  v127
 BYTE   W48
// 029   ----------------------------------------
 BYTE   PATT
  POIN2 Label_2_01391D3A
// 030   ----------------------------------------
 BYTE   PATT
  POIN2 Label_2_01391D42
// 031   ----------------------------------------
 BYTE   W48
 BYTE   N56  Bn2  v127
 BYTE   W48
// 032   ----------------------------------------
 BYTE   PATT
  POIN2 Label_2_01391D3A
// 033   ----------------------------------------
 BYTE   PATT
  POIN2 Label_2_01391D42
// 034   ----------------------------------------
 BYTE   W48
 BYTE   N56  Bn2  v127
 BYTE   W48
// 035   ----------------------------------------
 BYTE   W12
 BYTE   N11
 BYTE   W12
 BYTE   N68
 BYTE   W68
 BYTE   W02
 BYTE   GoTo
  POIN2 Label_2_01391D26
// 036   ----------------------------------------
 BYTE   PAN   c_v+0
 BYTE   BEND   c_v+0
 BYTE   FINE

//**************** Track 4 (Midi-Chn.3) ****************//

song36_004:
// 000   ----------------------------------------
 BYTE   KEYSH   song36_key+0
Label_3_01391DF6:
 BYTE   VOICE   124
 BYTE   VOL   17*song36_mvl/mxv
 BYTE   PAN   c_v+0
 BYTE   En3
 BYTE   BEND   c_v+0
 BYTE   N36  Bn1  v127
 BYTE   W36
 BYTE   N23
 BYTE   W24
 BYTE   N11
 BYTE   W12
 BYTE   N32
 BYTE   W24
// 001   ----------------------------------------
Label_3_01391E09:
 BYTE   W12
 BYTE   N23  Bn1  v127
 BYTE   W24
 BYTE   N11
 BYTE   W12
 BYTE   N32
 BYTE   W36
 BYTE   N23
 BYTE   W12
 BYTE   PEND 
// 002   ----------------------------------------
Label_3_01391E15:
 BYTE   W12
 BYTE   N11  Bn1  v127
 BYTE   W12
 BYTE   N32
 BYTE   W36
 BYTE   N23
 BYTE   W24
 BYTE   N11
 BYTE   W12
 BYTE   PEND 
// 003   ----------------------------------------
Label_3_01391E21:
 BYTE   N32  Bn1  v127
 BYTE   W36
 BYTE   N23
 BYTE   W24
 BYTE   N11
 BYTE   W12
 BYTE   N32
 BYTE   W24
 BYTE   PEND 
// 004   ----------------------------------------
 BYTE   PATT
  POIN2 Label_3_01391E09
// 005   ----------------------------------------
 BYTE   PATT
  POIN2 Label_3_01391E15
// 006   ----------------------------------------
 BYTE   PATT
  POIN2 Label_3_01391E21
// 007   ----------------------------------------
 BYTE   PATT
  POIN2 Label_3_01391E09
// 008   ----------------------------------------
 BYTE   PATT
  POIN2 Label_3_01391E15
// 009   ----------------------------------------
 BYTE   PATT
  POIN2 Label_3_01391E21
// 010   ----------------------------------------
 BYTE   PATT
  POIN2 Label_3_01391E09
// 011   ----------------------------------------
 BYTE   PATT
  POIN2 Label_3_01391E15
// 012   ----------------------------------------
 BYTE   PATT
  POIN2 Label_3_01391E21
// 013   ----------------------------------------
 BYTE   PATT
  POIN2 Label_3_01391E09
// 014   ----------------------------------------
 BYTE   PATT
  POIN2 Label_3_01391E15
// 015   ----------------------------------------
 BYTE   PATT
  POIN2 Label_3_01391E21
// 016   ----------------------------------------
 BYTE   PATT
  POIN2 Label_3_01391E09
// 017   ----------------------------------------
 BYTE   PATT
  POIN2 Label_3_01391E15
// 018   ----------------------------------------
 BYTE   PATT
  POIN2 Label_3_01391E21
// 019   ----------------------------------------
 BYTE   PATT
  POIN2 Label_3_01391E09
// 020   ----------------------------------------
 BYTE   PATT
  POIN2 Label_3_01391E15
// 021   ----------------------------------------
 BYTE   PATT
  POIN2 Label_3_01391E21
// 022   ----------------------------------------
 BYTE   PATT
  POIN2 Label_3_01391E09
// 023   ----------------------------------------
 BYTE   PATT
  POIN2 Label_3_01391E15
// 024   ----------------------------------------
 BYTE   PATT
  POIN2 Label_3_01391E21
// 025   ----------------------------------------
 BYTE   PATT
  POIN2 Label_3_01391E09
// 026   ----------------------------------------
 BYTE   PATT
  POIN2 Label_3_01391E15
// 027   ----------------------------------------
 BYTE   PATT
  POIN2 Label_3_01391E21
// 028   ----------------------------------------
 BYTE   PATT
  POIN2 Label_3_01391E09
// 029   ----------------------------------------
 BYTE   PATT
  POIN2 Label_3_01391E15
// 030   ----------------------------------------
 BYTE   PATT
  POIN2 Label_3_01391E21
// 031   ----------------------------------------
 BYTE   PATT
  POIN2 Label_3_01391E09
// 032   ----------------------------------------
 BYTE   PATT
  POIN2 Label_3_01391E15
// 033   ----------------------------------------
 BYTE   PATT
  POIN2 Label_3_01391E21
// 034   ----------------------------------------
 BYTE   PATT
  POIN2 Label_3_01391E09
// 035   ----------------------------------------
 BYTE   W12
 BYTE   N11  Bn1  v127
 BYTE   W12
 BYTE   N32
 BYTE   W36
 BYTE   N23
 BYTE   W24
 BYTE   N09
 BYTE   W10
 BYTE   GoTo
  POIN2 Label_3_01391DF6
// 036   ----------------------------------------
 BYTE   PAN   c_v+0
 BYTE   BEND   c_v+0
 BYTE   FINE

//**************** Track 5 (Midi-Chn.4) ****************//

song36_005:
// 000   ----------------------------------------
 BYTE   KEYSH   song36_key+0
Label_4_01391EDE:
 BYTE   VOICE   1
 BYTE   PAN   c_v-1
 BYTE   VOL   28*song36_mvl/mxv
 BYTE   BEND   c_v+0
 BYTE   TIE  Fn3  v127
 BYTE   W96
// 001   ----------------------------------------
 BYTE   W36
 BYTE   EOT
 BYTE   TIE  Ds3
 BYTE   W60
// 002   ----------------------------------------
 BYTE   W92
 BYTE   W03
 BYTE   EOT
 BYTE   W01
// 003   ----------------------------------------
 BYTE   TIE  Fn3
 BYTE   W96
// 004   ----------------------------------------
 BYTE   W32
 BYTE   W03
 BYTE   EOT
 BYTE   W01
 BYTE   TIE  Dn3
 BYTE   W60
// 005   ----------------------------------------
 BYTE   W92
 BYTE   W03
 BYTE   EOT
 BYTE   W01
// 006   ----------------------------------------
 BYTE   TIE  Fn3
 BYTE   W96
// 007   ----------------------------------------
 BYTE   W32
 BYTE   W03
 BYTE   EOT
 BYTE   W01
 BYTE   TIE  Ds3
 BYTE   W60
// 008   ----------------------------------------
 BYTE   W92
 BYTE   W03
 BYTE   EOT
 BYTE   W01
// 009   ----------------------------------------
 BYTE   TIE  As2
 BYTE   W96
// 010   ----------------------------------------
 BYTE   W32
 BYTE   W03
 BYTE   EOT
 BYTE   W01
 BYTE   TIE  Gn2
 BYTE   W60
// 011   ----------------------------------------
 BYTE   W92
 BYTE   W03
 BYTE   EOT
 BYTE   W01
// 012   ----------------------------------------
 BYTE   TIE  Fn3
 BYTE   W96
// 013   ----------------------------------------
 BYTE   W32
 BYTE   W03
 BYTE   EOT
 BYTE   W01
 BYTE   TIE  Ds3
 BYTE   W60
// 014   ----------------------------------------
 BYTE   W92
 BYTE   W03
 BYTE   EOT
 BYTE   W01
// 015   ----------------------------------------
 BYTE   TIE  Fn3
 BYTE   W96
// 016   ----------------------------------------
 BYTE   W32
 BYTE   W03
 BYTE   EOT
 BYTE   W01
 BYTE   TIE  Dn3
 BYTE   W60
// 017   ----------------------------------------
 BYTE   W92
 BYTE   W03
 BYTE   EOT
 BYTE   W01
// 018   ----------------------------------------
 BYTE   TIE  Fn3
 BYTE   W96
// 019   ----------------------------------------
 BYTE   W32
 BYTE   W03
 BYTE   EOT
 BYTE   W01
 BYTE   TIE  Ds3
 BYTE   W60
// 020   ----------------------------------------
 BYTE   W92
 BYTE   W03
 BYTE   EOT
 BYTE   W01
// 021   ----------------------------------------
 BYTE   TIE  As2
 BYTE   W96
// 022   ----------------------------------------
 BYTE   W32
 BYTE   W03
 BYTE   EOT
 BYTE   W01
 BYTE   TIE  Gn2
 BYTE   W60
// 023   ----------------------------------------
 BYTE   W92
 BYTE   W03
 BYTE   EOT
 BYTE   W01
// 024   ----------------------------------------
 BYTE   TIE  Gn3
 BYTE   W96
// 025   ----------------------------------------
 BYTE   W32
 BYTE   W03
 BYTE   EOT
 BYTE   W01
 BYTE   TIE  Fn3
 BYTE   W60
// 026   ----------------------------------------
 BYTE   W92
 BYTE   W03
 BYTE   EOT
 BYTE   W01
// 027   ----------------------------------------
 BYTE   TIE  Gn3
 BYTE   W96
// 028   ----------------------------------------
 BYTE   W32
 BYTE   W03
 BYTE   EOT
 BYTE   W01
 BYTE   TIE  En3
 BYTE   W60
// 029   ----------------------------------------
 BYTE   W92
 BYTE   W03
 BYTE   EOT
 BYTE   W01
// 030   ----------------------------------------
 BYTE   TIE  Gn3
 BYTE   W96
// 031   ----------------------------------------
 BYTE   W32
 BYTE   W03
 BYTE   EOT
 BYTE   W01
 BYTE   TIE  Fn3
 BYTE   W60
// 032   ----------------------------------------
 BYTE   W92
 BYTE   W03
 BYTE   EOT
 BYTE   W01
// 033   ----------------------------------------
 BYTE   TIE  Cn3
 BYTE   W96
// 034   ----------------------------------------
 BYTE   W32
 BYTE   W03
 BYTE   EOT
 BYTE   W01
 BYTE   TIE  An2
 BYTE   W60
// 035   ----------------------------------------
 BYTE   W92
 BYTE   W01
 BYTE   EOT
 BYTE   W01
 BYTE   GoTo
  POIN2 Label_4_01391EDE
// 036   ----------------------------------------
 BYTE   BEND   c_v+0
 BYTE   FINE

//**************** Track 6 (Midi-Chn.5) ****************//

song36_006:
// 000   ----------------------------------------
 BYTE   KEYSH   song36_key+0
Label_5_01391F9A:
 BYTE   VOICE   2
 BYTE   PAN   c_v+29
 BYTE   VOL   24*song36_mvl/mxv
 BYTE   BEND   c_v+0
 BYTE   W96
// 001   ----------------------------------------
 BYTE   W96
// 002   ----------------------------------------
 BYTE   W96
// 003   ----------------------------------------
 BYTE   W96
// 004   ----------------------------------------
 BYTE   W96
// 005   ----------------------------------------
 BYTE   W96
// 006   ----------------------------------------
 BYTE   W96
// 007   ----------------------------------------
 BYTE   W96
// 008   ----------------------------------------
 BYTE   W96
// 009   ----------------------------------------
 BYTE   W96
// 010   ----------------------------------------
 BYTE   W96
// 011   ----------------------------------------
 BYTE   W96
// 012   ----------------------------------------
 BYTE   W24
 BYTE   N11  An3  v127
 BYTE   W12
 BYTE   N56  En4
 BYTE   W60
// 013   ----------------------------------------
Label_5_01391FB6:
 BYTE   N11  An3  v127
 BYTE   W12
 BYTE   N23  Dn4
 BYTE   W24
 BYTE   TIE  Ds4
 BYTE   W60
 BYTE   PEND 
// 014   ----------------------------------------
 BYTE   W96
// 015   ----------------------------------------
 BYTE   W23
 BYTE   EOT
 BYTE   W01
 BYTE   N11  An3
 BYTE   W12
 BYTE   N56  En4
 BYTE   W60
// 016   ----------------------------------------
 BYTE   N11  An3
 BYTE   W12
 BYTE   N23  Dn4
 BYTE   W24
 BYTE   N68  En4
 BYTE   W60
// 017   ----------------------------------------
 BYTE   W12
 BYTE   TIE  An4
 BYTE   W84
// 018   ----------------------------------------
 BYTE   W23
 BYTE   EOT
 BYTE   W01
 BYTE   N11  An3
 BYTE   W12
 BYTE   N56  En4
 BYTE   W60
// 019   ----------------------------------------
 BYTE   PATT
  POIN2 Label_5_01391FB6
// 020   ----------------------------------------
 BYTE   W96
// 021   ----------------------------------------
 BYTE   W23
 BYTE   EOT
 BYTE   Ds4
 BYTE   W01
 BYTE   N11  Gn3  v127
 BYTE   W12
 BYTE   N56  An3
 BYTE   W60
// 022   ----------------------------------------
 BYTE   N11
 BYTE   W12
 BYTE   N23  Cn4
 BYTE   W24
 BYTE   N11  En4
 BYTE   W12
 BYTE   TIE  Dn4
 BYTE   W48
// 023   ----------------------------------------
 BYTE   W96
// 024   ----------------------------------------
 BYTE   W32
 BYTE   W03
 BYTE   EOT
 BYTE   W01
 BYTE   VOICE   52
 BYTE   N68  Bn1
 BYTE   W60
// 025   ----------------------------------------
Label_5_01392007:
 BYTE   W12
 BYTE   N23  Gn2  v127
 BYTE   W24
 BYTE   TIE  Dn2
 BYTE   W60
 BYTE   PEND 
// 026   ----------------------------------------
 BYTE   W96
// 027   ----------------------------------------
 BYTE   W32
 BYTE   W03
 BYTE   EOT
 BYTE   W01
 BYTE   N68  Bn1
 BYTE   W60
// 028   ----------------------------------------
 BYTE   W12
 BYTE   N23  Gn2
 BYTE   W24
 BYTE   TIE  En2
 BYTE   W60
// 029   ----------------------------------------
 BYTE   W96
// 030   ----------------------------------------
 BYTE   W32
 BYTE   W03
 BYTE   EOT
 BYTE   W01
 BYTE   N68  Bn1
 BYTE   W60
// 031   ----------------------------------------
 BYTE   PATT
  POIN2 Label_5_01392007
// 032   ----------------------------------------
 BYTE   W96
// 033   ----------------------------------------
 BYTE   W32
 BYTE   W03
 BYTE   EOT
 BYTE   Dn2
 BYTE   W01
 BYTE   N68  En2  v127
 BYTE   W60
// 034   ----------------------------------------
 BYTE   W12
 BYTE   N23  Cn3
 BYTE   W24
 BYTE   TIE  An2
 BYTE   W60
// 035   ----------------------------------------
 BYTE   W92
 BYTE   W01
 BYTE   EOT
 BYTE   W01
 BYTE   GoTo
  POIN2 Label_5_01391F9A
// 036   ----------------------------------------
 BYTE   BEND   c_v+0
 BYTE   FINE

//**************** Track 7 (Midi-Chn.6) ****************//

song36_007:
// 000   ----------------------------------------
 BYTE   KEYSH   song36_key+0
Label_6_56DBCE:
 BYTE   VOICE   2
 BYTE   VOL   24*song36_mvl/mxv
 BYTE   PAN   c_v+12
 BYTE   BEND   c_v+0
 BYTE   W96
// 001   ----------------------------------------
 BYTE   W96
// 002   ----------------------------------------
 BYTE   W96
// 003   ----------------------------------------
 BYTE   W96
// 004   ----------------------------------------
 BYTE   W96
// 005   ----------------------------------------
 BYTE   W96
// 006   ----------------------------------------
 BYTE   W96
// 007   ----------------------------------------
 BYTE   W96
// 008   ----------------------------------------
 BYTE   W96
// 009   ----------------------------------------
 BYTE   W96
// 010   ----------------------------------------
 BYTE   W96
// 011   ----------------------------------------
 BYTE   W96
// 012   ----------------------------------------
 BYTE   W96
// 013   ----------------------------------------
 BYTE   W96
// 014   ----------------------------------------
 BYTE   W96
// 015   ----------------------------------------
 BYTE   W96
// 016   ----------------------------------------
 BYTE   W96
// 017   ----------------------------------------
 BYTE   W96
// 018   ----------------------------------------
 BYTE   W96
// 019   ----------------------------------------
 BYTE   W96
// 020   ----------------------------------------
 BYTE   W96
// 021   ----------------------------------------
 BYTE   W96
// 022   ----------------------------------------
 BYTE   W96
// 023   ----------------------------------------
 BYTE   W96
// 024   ----------------------------------------
 BYTE   W48
 BYTE   VOICE   52
 BYTE   TIE  Dn2  v127
 BYTE   W48
// 025   ----------------------------------------
 BYTE   W96
// 026   ----------------------------------------
 BYTE   W96
// 027   ----------------------------------------
 BYTE   W44
 BYTE   W03
 BYTE   EOT
 BYTE   W01
 BYTE   TIE
 BYTE   W48
// 028   ----------------------------------------
 BYTE   W96
// 029   ----------------------------------------
 BYTE   W96
// 030   ----------------------------------------
 BYTE   W44
 BYTE   W03
 BYTE   EOT
 BYTE   W01
 BYTE   TIE
 BYTE   W48
// 031   ----------------------------------------
 BYTE   W96
// 032   ----------------------------------------
 BYTE   W96
// 033   ----------------------------------------
 BYTE   W44
 BYTE   W03
 BYTE   EOT
 BYTE   W01
 BYTE   TIE  Gn2
 BYTE   W48
// 034   ----------------------------------------
 BYTE   W96
// 035   ----------------------------------------
 BYTE   W92
 BYTE   W01
 BYTE   EOT
 BYTE   W01
 BYTE   GoTo
  POIN2 Label_6_56DBCE
// 036   ----------------------------------------
 BYTE   BEND   c_v+0
 BYTE   FINE

//**************** Track 8 (Midi-Chn.7) ****************//

song36_008:
// 000   ----------------------------------------
 BYTE   KEYSH   song36_key+0
Label_7_0139204E:
 BYTE   VOICE   52
 BYTE   VOL   26*song36_mvl/mxv
 BYTE   PAN   c_v-26
 BYTE   BEND   c_v+0
 BYTE   W96
// 001   ----------------------------------------
 BYTE   W96
// 002   ----------------------------------------
 BYTE   W96
// 003   ----------------------------------------
 BYTE   W96
// 004   ----------------------------------------
 BYTE   W96
// 005   ----------------------------------------
 BYTE   W96
// 006   ----------------------------------------
 BYTE   W96
// 007   ----------------------------------------
 BYTE   W96
// 008   ----------------------------------------
 BYTE   W96
// 009   ----------------------------------------
 BYTE   W96
// 010   ----------------------------------------
 BYTE   W96
// 011   ----------------------------------------
 BYTE   W96
// 012   ----------------------------------------
 BYTE   W96
// 013   ----------------------------------------
 BYTE   W96
// 014   ----------------------------------------
 BYTE   W96
// 015   ----------------------------------------
 BYTE   W96
// 016   ----------------------------------------
 BYTE   W96
// 017   ----------------------------------------
 BYTE   W96
// 018   ----------------------------------------
 BYTE   W96
// 019   ----------------------------------------
 BYTE   W96
// 020   ----------------------------------------
 BYTE   W96
// 021   ----------------------------------------
 BYTE   W96
// 022   ----------------------------------------
 BYTE   W96
// 023   ----------------------------------------
 BYTE   W96
// 024   ----------------------------------------
 BYTE   W60
 BYTE   N68  Fs2  v127
 BYTE   W36
// 025   ----------------------------------------
Label_7_01392073:
 BYTE   W36
 BYTE   TIE  Fn2  v127
 BYTE   W60
 BYTE   PEND 
// 026   ----------------------------------------
 BYTE   W96
// 027   ----------------------------------------
 BYTE   W56
 BYTE   W03
 BYTE   EOT
 BYTE   W01
 BYTE   N68  Fs2
 BYTE   W36
// 028   ----------------------------------------
 BYTE   W36
 BYTE   TIE
 BYTE   W60
// 029   ----------------------------------------
 BYTE   W96
// 030   ----------------------------------------
 BYTE   W56
 BYTE   W03
 BYTE   EOT
 BYTE   W01
 BYTE   N68
 BYTE   W36
// 031   ----------------------------------------
 BYTE   PATT
  POIN2 Label_7_01392073
// 032   ----------------------------------------
 BYTE   W96
// 033   ----------------------------------------
 BYTE   W56
 BYTE   W03
 BYTE   EOT
 BYTE   Fn2
 BYTE   W01
 BYTE   N68  Bn2  v127
 BYTE   W36
// 034   ----------------------------------------
 BYTE   W36
 BYTE   TIE
 BYTE   W60
// 035   ----------------------------------------
 BYTE   W92
 BYTE   W01
 BYTE   EOT
 BYTE   W01
 BYTE   GoTo
  POIN2 Label_7_0139204E
// 036   ----------------------------------------
 BYTE   BEND   c_v+0
 BYTE   FINE

//**************** Track 9 (Midi-Chn.8) ****************//

song36_009:
// 000   ----------------------------------------
 BYTE   KEYSH   song36_key+0
Label_8_013920AE:
 BYTE   VOICE   1
 BYTE   VOL   30*song36_mvl/mxv
 BYTE   PAN   c_v+12
 BYTE   BEND   c_v+0
 BYTE   TIE  Fn2  v127
 BYTE   W96
// 001   ----------------------------------------
 BYTE   W36
 BYTE   EOT
 BYTE   TIE  Ds2
 BYTE   W60
// 002   ----------------------------------------
 BYTE   W92
 BYTE   W03
 BYTE   EOT
 BYTE   W01
// 003   ----------------------------------------
 BYTE   TIE  Fn2
 BYTE   W96
// 004   ----------------------------------------
 BYTE   W32
 BYTE   W03
 BYTE   EOT
 BYTE   W01
 BYTE   TIE
 BYTE   W60
// 005   ----------------------------------------
 BYTE   W92
 BYTE   W03
 BYTE   EOT
 BYTE   W01
// 006   ----------------------------------------
 BYTE   TIE
 BYTE   W96
// 007   ----------------------------------------
 BYTE   W32
 BYTE   W03
 BYTE   EOT
 BYTE   W01
 BYTE   TIE  Ds2
 BYTE   W60
// 008   ----------------------------------------
 BYTE   W92
 BYTE   W03
 BYTE   EOT
 BYTE   W01
// 009   ----------------------------------------
 BYTE   TIE  As2
 BYTE   W96
// 010   ----------------------------------------
 BYTE   W32
 BYTE   W03
 BYTE   EOT
 BYTE   W01
 BYTE   TIE  Gn2
 BYTE   W60
// 011   ----------------------------------------
 BYTE   W92
 BYTE   W03
 BYTE   EOT
 BYTE   W01
// 012   ----------------------------------------
 BYTE   TIE  Fn2
 BYTE   W96
// 013   ----------------------------------------
 BYTE   W32
 BYTE   W03
 BYTE   EOT
 BYTE   W01
 BYTE   TIE  Ds2
 BYTE   W60
// 014   ----------------------------------------
 BYTE   W92
 BYTE   W03
 BYTE   EOT
 BYTE   W01
// 015   ----------------------------------------
 BYTE   TIE  Fn2
 BYTE   W96
// 016   ----------------------------------------
 BYTE   W32
 BYTE   W03
 BYTE   EOT
 BYTE   W01
 BYTE   TIE
 BYTE   W60
// 017   ----------------------------------------
 BYTE   W92
 BYTE   W03
 BYTE   EOT
 BYTE   W01
// 018   ----------------------------------------
 BYTE   TIE
 BYTE   W96
// 019   ----------------------------------------
 BYTE   W32
 BYTE   W03
 BYTE   EOT
 BYTE   W01
 BYTE   TIE  Ds2
 BYTE   W60
// 020   ----------------------------------------
 BYTE   W92
 BYTE   W03
 BYTE   EOT
 BYTE   W01
// 021   ----------------------------------------
 BYTE   TIE  As2
 BYTE   W96
// 022   ----------------------------------------
 BYTE   W32
 BYTE   W03
 BYTE   EOT
 BYTE   W01
 BYTE   TIE  Gn2
 BYTE   W60
// 023   ----------------------------------------
 BYTE   W92
 BYTE   W03
 BYTE   EOT
 BYTE   W01
// 024   ----------------------------------------
 BYTE   TIE
 BYTE   W96
// 025   ----------------------------------------
 BYTE   W32
 BYTE   W03
 BYTE   EOT
 BYTE   W01
 BYTE   TIE  Fn2
 BYTE   W60
// 026   ----------------------------------------
 BYTE   W92
 BYTE   W03
 BYTE   EOT
 BYTE   W01
// 027   ----------------------------------------
 BYTE   TIE  Gn2
 BYTE   W96
// 028   ----------------------------------------
 BYTE   W32
 BYTE   W03
 BYTE   EOT
 BYTE   W01
 BYTE   TIE
 BYTE   W60
// 029   ----------------------------------------
 BYTE   W92
 BYTE   W03
 BYTE   EOT
 BYTE   W01
// 030   ----------------------------------------
 BYTE   TIE
 BYTE   W96
// 031   ----------------------------------------
 BYTE   W32
 BYTE   W03
 BYTE   EOT
 BYTE   W01
 BYTE   TIE  Fn2
 BYTE   W60
// 032   ----------------------------------------
 BYTE   W92
 BYTE   W03
 BYTE   EOT
 BYTE   W01
// 033   ----------------------------------------
 BYTE   TIE  Cn3
 BYTE   W96
// 034   ----------------------------------------
 BYTE   W32
 BYTE   W03
 BYTE   EOT
 BYTE   W01
 BYTE   TIE  An2
 BYTE   W60
// 035   ----------------------------------------
 BYTE   W92
 BYTE   W01
 BYTE   EOT
 BYTE   W01
 BYTE   GoTo
  POIN2 Label_8_013920AE
// 036   ----------------------------------------
 BYTE   BEND   c_v+0
 BYTE   FINE

//**************** Track 10 (Midi-Chn.9) ****************//

song36_010:
// 000   ----------------------------------------
 BYTE   KEYSH   song36_key+0
Label_9_01392162:
 BYTE   VOICE   1
 BYTE   VOL   30*song36_mvl/mxv
 BYTE   PAN   c_v-13
 BYTE   BEND   c_v+0
 BYTE   TIE  Cn3  v127
 BYTE   W96
// 001   ----------------------------------------
 BYTE   W36
 BYTE   EOT
 BYTE   TIE  As2
 BYTE   W60
// 002   ----------------------------------------
 BYTE   W92
 BYTE   W03
 BYTE   EOT
 BYTE   W01
// 003   ----------------------------------------
 BYTE   TIE  Cn3
 BYTE   W96
// 004   ----------------------------------------
 BYTE   W32
 BYTE   W03
 BYTE   EOT
 BYTE   W01
 BYTE   TIE  Dn3
 BYTE   W60
// 005   ----------------------------------------
 BYTE   W92
 BYTE   W03
 BYTE   EOT
 BYTE   W01
// 006   ----------------------------------------
 BYTE   TIE  Cn3
 BYTE   W96
// 007   ----------------------------------------
 BYTE   W32
 BYTE   W03
 BYTE   EOT
 BYTE   W01
 BYTE   TIE  As2
 BYTE   W60
// 008   ----------------------------------------
 BYTE   W92
 BYTE   W03
 BYTE   EOT
 BYTE   W01
// 009   ----------------------------------------
 BYTE   TIE  Fn3
 BYTE   W96
// 010   ----------------------------------------
 BYTE   W32
 BYTE   W03
 BYTE   EOT
 BYTE   W01
 BYTE   TIE  Dn3
 BYTE   W60
// 011   ----------------------------------------
 BYTE   W92
 BYTE   W03
 BYTE   EOT
 BYTE   W01
// 012   ----------------------------------------
 BYTE   TIE  Cn3
 BYTE   W96
// 013   ----------------------------------------
 BYTE   W32
 BYTE   W03
 BYTE   EOT
 BYTE   W01
 BYTE   TIE  As2
 BYTE   W60
// 014   ----------------------------------------
 BYTE   W92
 BYTE   W03
 BYTE   EOT
 BYTE   W01
// 015   ----------------------------------------
 BYTE   TIE  Cn3
 BYTE   W96
// 016   ----------------------------------------
 BYTE   W32
 BYTE   W03
 BYTE   EOT
 BYTE   W01
 BYTE   TIE  Dn3
 BYTE   W60
// 017   ----------------------------------------
 BYTE   W92
 BYTE   W03
 BYTE   EOT
 BYTE   W01
// 018   ----------------------------------------
 BYTE   TIE  Cn3
 BYTE   W96
// 019   ----------------------------------------
 BYTE   W32
 BYTE   W03
 BYTE   EOT
 BYTE   W01
 BYTE   TIE  As2
 BYTE   W60
// 020   ----------------------------------------
 BYTE   W92
 BYTE   W03
 BYTE   EOT
 BYTE   W01
// 021   ----------------------------------------
 BYTE   TIE  Fn3
 BYTE   W96
// 022   ----------------------------------------
 BYTE   W32
 BYTE   W03
 BYTE   EOT
 BYTE   W01
 BYTE   TIE  Dn3
 BYTE   W60
// 023   ----------------------------------------
 BYTE   W92
 BYTE   W03
 BYTE   EOT
 BYTE   W01
// 024   ----------------------------------------
 BYTE   TIE
 BYTE   W96
// 025   ----------------------------------------
 BYTE   W32
 BYTE   W03
 BYTE   EOT
 BYTE   W01
 BYTE   TIE  Cn3
 BYTE   W60
// 026   ----------------------------------------
 BYTE   W92
 BYTE   W03
 BYTE   EOT
 BYTE   W01
// 027   ----------------------------------------
 BYTE   TIE  Dn3
 BYTE   W96
// 028   ----------------------------------------
 BYTE   W32
 BYTE   W03
 BYTE   EOT
 BYTE   W01
 BYTE   TIE  En3
 BYTE   W60
// 029   ----------------------------------------
 BYTE   W92
 BYTE   W03
 BYTE   EOT
 BYTE   W01
// 030   ----------------------------------------
 BYTE   TIE  Dn3
 BYTE   W96
// 031   ----------------------------------------
 BYTE   W32
 BYTE   W03
 BYTE   EOT
 BYTE   W01
 BYTE   TIE  Cn3
 BYTE   W60
// 032   ----------------------------------------
 BYTE   W92
 BYTE   W03
 BYTE   EOT
 BYTE   W01
// 033   ----------------------------------------
 BYTE   TIE  Gn3
 BYTE   W96
// 034   ----------------------------------------
 BYTE   W32
 BYTE   W03
 BYTE   EOT
 BYTE   W01
 BYTE   TIE  En3
 BYTE   W60
// 035   ----------------------------------------
 BYTE   W92
 BYTE   W01
 BYTE   EOT
 BYTE   W01
 BYTE   GoTo
  POIN2 Label_9_01392162
// 036   ----------------------------------------
 BYTE   BEND   c_v+0
 BYTE   FINE

//**************** Track 11 (Midi-Chn.10) ****************//

song36_011:
// 000   ----------------------------------------
 BYTE   KEYSH   song36_key+0
Label_10_0139221A:
 BYTE   VOICE   1
 BYTE   VOL   25*song36_mvl/mxv
 BYTE   PAN   c_v+21
 BYTE   BEND   c_v+0
 BYTE   TIE  En3  v127
 BYTE   W96
// 001   ----------------------------------------
 BYTE   W36
 BYTE   EOT
 BYTE   TIE  Cn3
 BYTE   W60
// 002   ----------------------------------------
 BYTE   W92
 BYTE   W03
 BYTE   EOT
 BYTE   W01
// 003   ----------------------------------------
 BYTE   TIE  En3
 BYTE   W96
// 004   ----------------------------------------
 BYTE   W32
 BYTE   W03
 BYTE   EOT
 BYTE   W01
 BYTE   TIE
 BYTE   W60
// 005   ----------------------------------------
 BYTE   W92
 BYTE   W03
 BYTE   EOT
 BYTE   W01
// 006   ----------------------------------------
 BYTE   TIE
 BYTE   W96
// 007   ----------------------------------------
 BYTE   W32
 BYTE   W03
 BYTE   EOT
 BYTE   W01
 BYTE   TIE  Cn3
 BYTE   W60
// 008   ----------------------------------------
 BYTE   W92
 BYTE   W03
 BYTE   EOT
 BYTE   W01
// 009   ----------------------------------------
 BYTE   TIE  An3
 BYTE   W96
// 010   ----------------------------------------
 BYTE   W32
 BYTE   W03
 BYTE   EOT
 BYTE   W01
 BYTE   TIE  Fn3
 BYTE   W60
// 011   ----------------------------------------
 BYTE   W92
 BYTE   W03
 BYTE   EOT
 BYTE   W01
// 012   ----------------------------------------
 BYTE   TIE  En3
 BYTE   W96
// 013   ----------------------------------------
 BYTE   W32
 BYTE   W03
 BYTE   EOT
 BYTE   W01
 BYTE   TIE  Cn3
 BYTE   W60
// 014   ----------------------------------------
 BYTE   W92
 BYTE   W03
 BYTE   EOT
 BYTE   W01
// 015   ----------------------------------------
 BYTE   TIE  En3
 BYTE   W96
// 016   ----------------------------------------
 BYTE   W32
 BYTE   W03
 BYTE   EOT
 BYTE   W01
 BYTE   TIE
 BYTE   W60
// 017   ----------------------------------------
 BYTE   W92
 BYTE   W03
 BYTE   EOT
 BYTE   W01
// 018   ----------------------------------------
 BYTE   TIE
 BYTE   W96
// 019   ----------------------------------------
 BYTE   W32
 BYTE   W03
 BYTE   EOT
 BYTE   W01
 BYTE   TIE  Cn3
 BYTE   W60
// 020   ----------------------------------------
 BYTE   W92
 BYTE   W03
 BYTE   EOT
 BYTE   W01
// 021   ----------------------------------------
 BYTE   TIE  An3
 BYTE   W96
// 022   ----------------------------------------
 BYTE   W32
 BYTE   W03
 BYTE   EOT
 BYTE   W01
 BYTE   TIE  Fn3
 BYTE   W60
// 023   ----------------------------------------
 BYTE   W92
 BYTE   W03
 BYTE   EOT
 BYTE   W01
// 024   ----------------------------------------
 BYTE   TIE  Fs3
 BYTE   W96
// 025   ----------------------------------------
 BYTE   W32
 BYTE   W03
 BYTE   EOT
 BYTE   W01
 BYTE   TIE  Dn3
 BYTE   W60
// 026   ----------------------------------------
 BYTE   W92
 BYTE   W03
 BYTE   EOT
 BYTE   W01
// 027   ----------------------------------------
 BYTE   TIE  Fs3
 BYTE   W96
// 028   ----------------------------------------
 BYTE   W32
 BYTE   W03
 BYTE   EOT
 BYTE   W01
 BYTE   TIE
 BYTE   W60
// 029   ----------------------------------------
 BYTE   W92
 BYTE   W03
 BYTE   EOT
 BYTE   W01
// 030   ----------------------------------------
 BYTE   TIE
 BYTE   W96
// 031   ----------------------------------------
 BYTE   W32
 BYTE   W03
 BYTE   EOT
 BYTE   W01
 BYTE   TIE  Dn3
 BYTE   W60
// 032   ----------------------------------------
 BYTE   W92
 BYTE   W03
 BYTE   EOT
 BYTE   W01
// 033   ----------------------------------------
 BYTE   TIE  Bn3
 BYTE   W96
// 034   ----------------------------------------
 BYTE   W32
 BYTE   W03
 BYTE   EOT
 BYTE   W01
 BYTE   TIE  Gn3
 BYTE   W60
// 035   ----------------------------------------
 BYTE   W92
 BYTE   W01
 BYTE   EOT
 BYTE   W01
 BYTE   GoTo
  POIN2 Label_10_0139221A
// 036   ----------------------------------------
 BYTE   BEND   c_v+0
 BYTE   FINE

//**************** Track 12 (Midi-Chn.11) ****************//

song36_012:
// 000   ----------------------------------------
 BYTE   KEYSH   song36_key+0
Label_11_013922CE:
 BYTE   VOICE   1
 BYTE   VOL   25*song36_mvl/mxv
 BYTE   PAN   c_v-22
 BYTE   BEND   c_v+0
 BYTE   TIE  An2  v127
 BYTE   W96
// 001   ----------------------------------------
 BYTE   W36
 BYTE   EOT
 BYTE   TIE  Gn2
 BYTE   W60
// 002   ----------------------------------------
 BYTE   W92
 BYTE   W03
 BYTE   EOT
 BYTE   W01
// 003   ----------------------------------------
 BYTE   TIE  An2
 BYTE   W96
// 004   ----------------------------------------
 BYTE   W32
 BYTE   W03
 BYTE   EOT
 BYTE   W01
 BYTE   TIE
 BYTE   W60
// 005   ----------------------------------------
 BYTE   W92
 BYTE   W03
 BYTE   EOT
 BYTE   W01
// 006   ----------------------------------------
 BYTE   TIE
 BYTE   W96
// 007   ----------------------------------------
 BYTE   W32
 BYTE   W03
 BYTE   EOT
 BYTE   W01
 BYTE   TIE  Gn2
 BYTE   W60
// 008   ----------------------------------------
 BYTE   W92
 BYTE   W03
 BYTE   EOT
 BYTE   W01
// 009   ----------------------------------------
 BYTE   TIE  Dn3
 BYTE   W96
// 010   ----------------------------------------
 BYTE   W32
 BYTE   W03
 BYTE   EOT
 BYTE   W01
 BYTE   TIE  As2
 BYTE   W60
// 011   ----------------------------------------
 BYTE   W92
 BYTE   W03
 BYTE   EOT
 BYTE   W01
// 012   ----------------------------------------
 BYTE   TIE  An2
 BYTE   W96
// 013   ----------------------------------------
 BYTE   W32
 BYTE   W03
 BYTE   EOT
 BYTE   W01
 BYTE   TIE  Gn2
 BYTE   W60
// 014   ----------------------------------------
 BYTE   W92
 BYTE   W03
 BYTE   EOT
 BYTE   W01
// 015   ----------------------------------------
 BYTE   TIE  An2
 BYTE   W96
// 016   ----------------------------------------
 BYTE   W32
 BYTE   W03
 BYTE   EOT
 BYTE   W01
 BYTE   TIE
 BYTE   W60
// 017   ----------------------------------------
 BYTE   W92
 BYTE   W03
 BYTE   EOT
 BYTE   W01
// 018   ----------------------------------------
 BYTE   TIE
 BYTE   W96
// 019   ----------------------------------------
 BYTE   W32
 BYTE   W03
 BYTE   EOT
 BYTE   W01
 BYTE   TIE  Gn2
 BYTE   W60
// 020   ----------------------------------------
 BYTE   W92
 BYTE   W03
 BYTE   EOT
 BYTE   W01
// 021   ----------------------------------------
 BYTE   TIE  Dn3
 BYTE   W96
// 022   ----------------------------------------
 BYTE   W32
 BYTE   W03
 BYTE   EOT
 BYTE   W01
 BYTE   TIE  As2
 BYTE   W60
// 023   ----------------------------------------
 BYTE   W92
 BYTE   W03
 BYTE   EOT
 BYTE   W01
// 024   ----------------------------------------
 BYTE   TIE  Bn2
 BYTE   W96
// 025   ----------------------------------------
 BYTE   W32
 BYTE   W03
 BYTE   EOT
 BYTE   W01
 BYTE   TIE  An2
 BYTE   W60
// 026   ----------------------------------------
 BYTE   W92
 BYTE   W03
 BYTE   EOT
 BYTE   W01
// 027   ----------------------------------------
 BYTE   TIE  Bn2
 BYTE   W96
// 028   ----------------------------------------
 BYTE   W32
 BYTE   W03
 BYTE   EOT
 BYTE   W01
 BYTE   TIE
 BYTE   W60
// 029   ----------------------------------------
 BYTE   W92
 BYTE   W03
 BYTE   EOT
 BYTE   W01
// 030   ----------------------------------------
 BYTE   TIE
 BYTE   W96
// 031   ----------------------------------------
 BYTE   W32
 BYTE   W03
 BYTE   EOT
 BYTE   W01
 BYTE   TIE  An2
 BYTE   W60
// 032   ----------------------------------------
 BYTE   W92
 BYTE   W03
 BYTE   EOT
 BYTE   W01
// 033   ----------------------------------------
 BYTE   TIE  En3
 BYTE   W96
// 034   ----------------------------------------
 BYTE   W32
 BYTE   W03
 BYTE   EOT
 BYTE   W01
 BYTE   TIE  Cn3
 BYTE   W60
// 035   ----------------------------------------
 BYTE   W92
 BYTE   W01
 BYTE   EOT
 BYTE   W01
 BYTE   GoTo
  POIN2 Label_11_013922CE
// 036   ----------------------------------------
 BYTE   BEND   c_v+0
 BYTE   FINE

//******************************************************//
	ALIGN 4

song36:
	BYTE	12	// NumTrks
	BYTE	0	// NumBlks
	BYTE	song36_pri	// Priority
	BYTE	song36_rev	// Reverb.
    
	POIN2	song36_grp
    
	POIN2	song36_001
	POIN2	song36_002
	POIN2	song36_003
	POIN2	song36_004
	POIN2	song36_005
	POIN2	song36_006
	POIN2	song36_007
	POIN2	song36_008
	POIN2	song36_009
	POIN2	song36_010
	POIN2	song36_011
	POIN2	song36_012

	
