//Event file generated from Sappy .s format.
	#include "MPlayDef.event"

	#define	song03D8_grp  voicegroup001
	#define	song03D8_pri  0
	#define	song03D8_rev  0
	#define	song03D8_mvl  127
	#define	song03D8_key  0
	#define	song03D8_tbs  1
	#define	song03D8_exg  0
	#define	song03D8_cmp  1

	// .rodata
	//	song03D8
	ALIGN 4


//**************** Track 1 (Midi-Chn.0) ****************//

song03D8_001:
//  #01 //000   ----------------------------------------
 BYTE   KEYSH   song03D8_key+0
Label_0153D0DA:
 BYTE   TEMPO   164*song03D8_tbs/2
 BYTE   VOICE   61
 BYTE   VOL   31*song03D8_mvl/mxv
 BYTE   PAN   c_v-8
 BYTE   BEND   c_v+0
 BYTE   N11  Bn3  v100
 BYTE   W12
 BYTE   N23  Fs4
 BYTE   W24
 BYTE   N32  Dn4
 BYTE   W36
 BYTE   N11  Cs4
 BYTE   W12
 BYTE   Bn3
 BYTE   W12
//  #01 //001   ----------------------------------------
 BYTE   N05  An3
 BYTE   W06
 BYTE   Fs3
 BYTE   W06
 BYTE   An3
 BYTE   W06
 BYTE   Fs3
 BYTE   W06
 BYTE   Bn3
 BYTE   W06
 BYTE   An3
 BYTE   W06
 BYTE   Bn3
 BYTE   W06
 BYTE   An3
 BYTE   W06
 BYTE   N17  Cs4
 BYTE   W18
 BYTE   Dn4
 BYTE   W18
 BYTE   N11  En4
 BYTE   W12
//  #01 //002   ----------------------------------------
 BYTE   Cs4
 BYTE   W12
 BYTE   N23  Gn4
 BYTE   W24
 BYTE   N32  Fs4
 BYTE   W36
 BYTE   N11  En4
 BYTE   W12
 BYTE   Dn4
 BYTE   W12
//  #01 //003   ----------------------------------------
 BYTE   N05  Cs4
 BYTE   W06
 BYTE   Dn4
 BYTE   W06
 BYTE   En4
 BYTE   W06
 BYTE   Fs4
 BYTE   W06
 BYTE   Bn3
 BYTE   W06
 BYTE   Cs4
 BYTE   W06
 BYTE   Dn4
 BYTE   W06
 BYTE   En4
 BYTE   W06
 BYTE   N17  Bn3
 BYTE   W18
 BYTE   As3
 BYTE   W18
 BYTE   N11  Fs3
 BYTE   W12
//  #01 //004   ----------------------------------------
 BYTE   N05  Bn3
 BYTE   W12
 BYTE   N05
 BYTE   W24
 BYTE   An3
 BYTE   W12
 BYTE   N05
 BYTE   W24
 BYTE   Bn3
 BYTE   W12
 BYTE   N05
 BYTE   W12
//  #01 //005   ----------------------------------------
 BYTE   W12
 BYTE   Cs4
 BYTE   W12
 BYTE   N05
 BYTE   W24
 BYTE   Dn4
 BYTE   W18
 BYTE   En4
 BYTE   W18
 BYTE   Fs4
 BYTE   W12
//  #01 //006   ----------------------------------------
 BYTE   N17
 BYTE   W18
 BYTE   En4
 BYTE   W18
 BYTE   N11  Dn4
 BYTE   W12
 BYTE   N17  Cs4
 BYTE   W18
 BYTE   Bn3
 BYTE   W18
 BYTE   N11  As3
 BYTE   W12
//  #01 //007   ----------------------------------------
 BYTE   N05  Bn3
 BYTE   W06
 BYTE   As3
 BYTE   W06
 BYTE   Bn3
 BYTE   W06
 BYTE   Cs4
 BYTE   W06
 BYTE   Fs3
 BYTE   W06
 BYTE   Gn3
 BYTE   W06
 BYTE   An3
 BYTE   W06
 BYTE   As3
 BYTE   W06
 BYTE   N23  Bn3
 BYTE   W24
 BYTE   N11
 BYTE   W12
 BYTE   N05  Dn4
 BYTE   W06
 BYTE   Cs4
 BYTE   W06
//  #01 //008   ----------------------------------------
 BYTE   N11  Bn3
 BYTE   W12
 BYTE   Fs3
 BYTE   W12
 BYTE   An3
 BYTE   W12
 BYTE   En3
 BYTE   W12
 BYTE   Fs3
 BYTE   W12
 BYTE   Dn3
 BYTE   W12
 BYTE   En3
 BYTE   W12
 BYTE   Fs3
 BYTE   W12
//  #01 //009   ----------------------------------------
 BYTE   N05  Bn3
 BYTE   W12
 BYTE   N05
 BYTE   W12
 BYTE   N05
 BYTE   W12
 BYTE   N05
 BYTE   W12
 BYTE   Cs4
 BYTE   W18
 BYTE   Dn4
 BYTE   W18
 BYTE   En4
 BYTE   W12
//  #01 //010   ----------------------------------------
 BYTE   Gn4
 BYTE   W24
 BYTE   Fs4
 BYTE   W24
 BYTE   En4
 BYTE   W24
 BYTE   Dn4
 BYTE   W24
//  #01 //011   ----------------------------------------
 BYTE   N11  Bn3
 BYTE   W12
 BYTE   Fs3
 BYTE   W12
 BYTE   N05  An3
 BYTE   W06
 BYTE   En3
 BYTE   W06
 BYTE   Fs3
 BYTE   W06
 BYTE   An3
 BYTE   W06
 BYTE   N23  Bn3
 BYTE   W24
 BYTE   N05  Fs3
 BYTE   W06
 BYTE   An3
 BYTE   W06
 BYTE   Dn4
 BYTE   W06
 BYTE   Cs4
 BYTE   W06
//  #01 //012   ----------------------------------------
 BYTE   GoTo
  POIN2 Label_0153D0DA
//  #01 //013   ----------------------------------------
 BYTE   BEND   c_v+0
 BYTE   FINE

//**************** Track 2 (Midi-Chn.1) ****************//

song03D8_002:
//  #02 //000   ----------------------------------------
 BYTE   KEYSH   song03D8_key+0
Label_0153D1C2:
 BYTE   VOICE   63
 BYTE   VOL   20*song03D8_mvl/mxv
 BYTE   PAN   c_v+11
 BYTE   BEND   c_v+0
 BYTE   N11  Fs3  v100
 BYTE   W12
 BYTE   N23  An3
 BYTE   W24
 BYTE   N32  Bn3
 BYTE   W36
 BYTE   N11  An3
 BYTE   W12
 BYTE   Fs3
 BYTE   W12
//  #02 //001   ----------------------------------------
 BYTE   N05  En3
 BYTE   W06
 BYTE   Dn3
 BYTE   W06
 BYTE   En3
 BYTE   W06
 BYTE   Dn3
 BYTE   W06
 BYTE   Fs3
 BYTE   W06
 BYTE   En3
 BYTE   W06
 BYTE   Fs3
 BYTE   W06
 BYTE   En3
 BYTE   W06
 BYTE   N17  Fs3
 BYTE   W18
 BYTE   Gn3
 BYTE   W18
 BYTE   N11  An3
 BYTE   W12
//  #02 //002   ----------------------------------------
 BYTE   As3
 BYTE   W12
 BYTE   N23  Bn3
 BYTE   W24
 BYTE   N32  Cs4
 BYTE   W36
 BYTE   N11  Bn3
 BYTE   W12
 BYTE   An3
 BYTE   W12
//  #02 //003   ----------------------------------------
 BYTE   N05  Cs4
 BYTE   W06
 BYTE   An3
 BYTE   W06
 BYTE   Bn3
 BYTE   W06
 BYTE   Fs3
 BYTE   W06
 BYTE   An3
 BYTE   W06
 BYTE   En3
 BYTE   W06
 BYTE   Fs3
 BYTE   W06
 BYTE   Dn3
 BYTE   W06
 BYTE   N17  En3
 BYTE   W18
 BYTE   Dn3
 BYTE   W18
 BYTE   N11  Cs3
 BYTE   W12
//  #02 //004   ----------------------------------------
 BYTE   N05  Fs3
 BYTE   W12
 BYTE   N05
 BYTE   W24
 BYTE   N05
 BYTE   W12
 BYTE   N05
 BYTE   W24
 BYTE   N05
 BYTE   W12
 BYTE   N05
 BYTE   W12
//  #02 //005   ----------------------------------------
 BYTE   W12
 BYTE   An3
 BYTE   W12
 BYTE   N05
 BYTE   W24
 BYTE   N05
 BYTE   W18
 BYTE   Bn3
 BYTE   W18
 BYTE   Cs4
 BYTE   W12
//  #02 //006   ----------------------------------------
 BYTE   N17  Bn3
 BYTE   W18
 BYTE   An3
 BYTE   W18
 BYTE   N11  Fs3
 BYTE   W12
 BYTE   N17  Gn3
 BYTE   W18
 BYTE   Fs3
 BYTE   W18
 BYTE   N11  En3
 BYTE   W12
//  #02 //007   ----------------------------------------
 BYTE   N05  Cs3
 BYTE   W06
 BYTE   Dn3
 BYTE   W06
 BYTE   En3
 BYTE   W06
 BYTE   Fs3
 BYTE   W06
 BYTE   En3
 BYTE   W06
 BYTE   Dn3
 BYTE   W06
 BYTE   Cs3
 BYTE   W06
 BYTE   As2
 BYTE   W06
 BYTE   N23  Bn2
 BYTE   W24
 BYTE   N11  Fs3
 BYTE   W12
 BYTE   N05  Dn3
 BYTE   W06
 BYTE   Cs3
 BYTE   W06
//  #02 //008   ----------------------------------------
 BYTE   N11  Bn2
 BYTE   W12
 BYTE   Cs3
 BYTE   W12
 BYTE   Dn3
 BYTE   W12
 BYTE   En3
 BYTE   W12
 BYTE   Cs3
 BYTE   W12
 BYTE   Dn3
 BYTE   W12
 BYTE   En3
 BYTE   W12
 BYTE   Fs3
 BYTE   W12
//  #02 //009   ----------------------------------------
 BYTE   N05
 BYTE   W12
 BYTE   N05
 BYTE   W12
 BYTE   N05
 BYTE   W12
 BYTE   N05
 BYTE   W12
 BYTE   Gn3
 BYTE   W18
 BYTE   Fs3
 BYTE   W18
 BYTE   Dn3
 BYTE   W12
//  #02 //010   ----------------------------------------
 BYTE   En3
 BYTE   W24
 BYTE   Fs3
 BYTE   W24
 BYTE   Bn3
 BYTE   W24
 BYTE   An3
 BYTE   W24
//  #02 //011   ----------------------------------------
 BYTE   N11  Bn3
 BYTE   W12
 BYTE   An3
 BYTE   W12
 BYTE   N05  Bn3
 BYTE   W06
 BYTE   An3
 BYTE   W06
 BYTE   Dn4
 BYTE   W06
 BYTE   Cs4
 BYTE   W06
 BYTE   N23  Bn3
 BYTE   W24
 BYTE   N05
 BYTE   W06
 BYTE   An3
 BYTE   W06
 BYTE   Fs3
 BYTE   W06
 BYTE   En3
 BYTE   W06
//  #02 //012   ----------------------------------------
 BYTE   GoTo
  POIN2 Label_0153D1C2
//  #02 //013   ----------------------------------------
 BYTE   BEND   c_v+0
 BYTE   FINE

//**************** Track 3 (Midi-Chn.2) ****************//

song03D8_003:
//  #03 //000   ----------------------------------------
 BYTE   KEYSH   song03D8_key+0
Label_0153DAC2:
 BYTE   VOICE   47
 BYTE   PAN   c_v-35
 BYTE   VOL   35*song03D8_mvl/mxv
 BYTE   BEND   c_v+0
 BYTE   N11  Bn1  v100
 BYTE   N11  Bn2
 BYTE   W12
 BYTE   N23  Bn1
 BYTE   N23  Bn2
 BYTE   W24
 BYTE   Bn1
 BYTE   N23  Bn2
 BYTE   W24
 BYTE   N32  Bn1
 BYTE   N32  Bn2
 BYTE   W36
//  #03 //001   ----------------------------------------
 BYTE   Cs2
 BYTE   N32  Cs3
 BYTE   W36
 BYTE   Bn1
 BYTE   N32  Bn2
 BYTE   W36
 BYTE   N23  An1
 BYTE   N23  An2
 BYTE   W24
//  #03 //002   ----------------------------------------
 BYTE   N32  As1
 BYTE   N32  As2
 BYTE   W36
 BYTE   As1
 BYTE   N32  As2
 BYTE   W36
 BYTE   N11  As1
 BYTE   N11  As2
 BYTE   W12
 BYTE   Bn1
 BYTE   N11  Bn2
 BYTE   W12
//  #03 //003   ----------------------------------------
Label_0153DAFD:
 BYTE   N32  Cs2  v100
 BYTE   N32  Cs3
 BYTE   W36
 BYTE   Bn1
 BYTE   N32  Bn2
 BYTE   W36
 BYTE   N23  As1
 BYTE   N23  As2
 BYTE   W24
 BYTE   PEND 
//  #03 //004   ----------------------------------------
 BYTE   N32  Bn1
 BYTE   N32  Bn2
 BYTE   W36
 BYTE   Bn1
 BYTE   N32  Bn2
 BYTE   W36
 BYTE   N11  Bn1
 BYTE   N11  Bn2
 BYTE   W12
 BYTE   Bn1
 BYTE   N11  Bn2
 BYTE   W12
//  #03 //005   ----------------------------------------
 BYTE   N32  Cs2
 BYTE   N32  Cs3
 BYTE   W36
 BYTE   Cs2
 BYTE   N32  Cs3
 BYTE   W36
 BYTE   N11  Cs2
 BYTE   N11  Cs3
 BYTE   W12
 BYTE   Dn2
 BYTE   N11  Dn3
 BYTE   W12
//  #03 //006   ----------------------------------------
 BYTE   N17  Cs2
 BYTE   N17  Cs3
 BYTE   W18
 BYTE   Cs2
 BYTE   N17  Cs3
 BYTE   W18
 BYTE   N11  Cs2
 BYTE   N11  Cs3
 BYTE   W12
 BYTE   N23  Bn1
 BYTE   N23  Bn2
 BYTE   W24
 BYTE   As1
 BYTE   N23  As2
 BYTE   W24
//  #03 //007   ----------------------------------------
 BYTE   As1
 BYTE   N23  As2
 BYTE   W24
 BYTE   As1
 BYTE   N23  As2
 BYTE   W24
 BYTE   Bn1
 BYTE   N23  Bn2
 BYTE   W24
 BYTE   Bn1
 BYTE   N23  Bn2
 BYTE   W24
//  #03 //008   ----------------------------------------
 BYTE   N32  Bn1
 BYTE   N32  Bn2
 BYTE   W36
 BYTE   Bn1
 BYTE   N32  Bn2
 BYTE   W36
 BYTE   N23  Bn1
 BYTE   N23  Bn2
 BYTE   W24
//  #03 //009   ----------------------------------------
 BYTE   PATT
  POIN2 Label_0153DAFD
//  #03 //010   ----------------------------------------
 BYTE   N32  Bn1  v100
 BYTE   N32  Bn2
 BYTE   W36
 BYTE   Cs2
 BYTE   N32  Cs3
 BYTE   W36
 BYTE   N23  Dn2
 BYTE   N23  Dn3
 BYTE   W24
//  #03 //011   ----------------------------------------
 BYTE   N17  Bn1
 BYTE   N17  Bn2
 BYTE   W18
 BYTE   Bn1
 BYTE   N17  Bn2
 BYTE   W18
 BYTE   N11  Bn1
 BYTE   N11  Bn2
 BYTE   W12
 BYTE   N23  Bn1
 BYTE   N23  Bn2
 BYTE   W24
 BYTE   Bn1
 BYTE   N23  Bn2
 BYTE   W24
//  #03 //012   ----------------------------------------
 BYTE   GoTo
  POIN2 Label_0153DAC2
//  #03 //013   ----------------------------------------
 BYTE   BEND   c_v+0
 BYTE   FINE

//**************** Track 4 (Midi-Chn.3) ****************//

song03D8_004:
//  #04 //000   ----------------------------------------
 BYTE   KEYSH   song03D8_key+0
Label_0153D9B2:
 BYTE   VOICE   127
 BYTE   VOL   28*song03D8_mvl/mxv
 BYTE   PAN   c_v-14
 BYTE   BEND   c_v+0
 BYTE   W12
 BYTE   N11  Fs1  v100
 BYTE   W36
 BYTE   N11
 BYTE   W12
 BYTE   N11
 BYTE   W24
 BYTE   N05
 BYTE   W06
 BYTE   N05
 BYTE   W06
//  #04 //001   ----------------------------------------
 BYTE   W12
 BYTE   N11
 BYTE   W36
 BYTE   N11
 BYTE   W12
 BYTE   N11
 BYTE   W24
 BYTE   Cs2
 BYTE   W12
//  #04 //002   ----------------------------------------
 BYTE   W12
 BYTE   Fs1
 BYTE   W24
 BYTE   N05
 BYTE   W06
 BYTE   N05
 BYTE   W06
 BYTE   N11
 BYTE   W12
 BYTE   N11
 BYTE   W12
 BYTE   N11
 BYTE   W12
 BYTE   N11
 BYTE   W12
//  #04 //003   ----------------------------------------
 BYTE   N11
 BYTE   W24
 BYTE   N11
 BYTE   W24
 BYTE   N11
 BYTE   W12
 BYTE   N11
 BYTE   W12
 BYTE   Cs2
 BYTE   W12
 BYTE   N05  Fs1
 BYTE   W06
 BYTE   N05
 BYTE   W06
//  #04 //004   ----------------------------------------
 BYTE   W12
 BYTE   N11
 BYTE   W36
 BYTE   N11
 BYTE   W12
 BYTE   N11
 BYTE   W12
 BYTE   N11
 BYTE   W12
 BYTE   N05
 BYTE   W06
 BYTE   N05
 BYTE   W06
//  #04 //005   ----------------------------------------
 BYTE   N11
 BYTE   W12
 BYTE   N11
 BYTE   W12
 BYTE   N05
 BYTE   W06
 BYTE   N05
 BYTE   W06
 BYTE   N11
 BYTE   W12
 BYTE   N05
 BYTE   W06
 BYTE   N05
 BYTE   W06
 BYTE   N11
 BYTE   W24
 BYTE   Cs2
 BYTE   W12
//  #04 //006   ----------------------------------------
 BYTE   W12
 BYTE   Fs1
 BYTE   W24
 BYTE   N05
 BYTE   W06
 BYTE   N05
 BYTE   W06
 BYTE   N11
 BYTE   W12
 BYTE   N11
 BYTE   W24
 BYTE   N11
 BYTE   W12
//  #04 //007   ----------------------------------------
 BYTE   N11
 BYTE   W12
 BYTE   N05
 BYTE   W06
 BYTE   N05
 BYTE   W06
 BYTE   N11
 BYTE   W12
 BYTE   N11
 BYTE   W12
 BYTE   N11
 BYTE   W12
 BYTE   N05
 BYTE   W06
 BYTE   N05
 BYTE   W06
 BYTE   N23  Cs2
 BYTE   W12
 BYTE   N05  Cn1
 BYTE   N05  Fn1
 BYTE   W06
 BYTE   Cn1
 BYTE   N05  Fn1
 BYTE   W06
//  #04 //008   ----------------------------------------
 BYTE   N32  Cn1
 BYTE   N11  Fs1
 BYTE   W12
 BYTE   N11
 BYTE   W12
 BYTE   N11
 BYTE   W12
 BYTE   Cn1
 BYTE   N11  Fs1
 BYTE   W12
 BYTE   N44  Cn1
 BYTE   N11  Fs1
 BYTE   W12
 BYTE   N11
 BYTE   W12
 BYTE   N05
 BYTE   W06
 BYTE   N05
 BYTE   W06
 BYTE   N11
 BYTE   W12
//  #04 //009   ----------------------------------------
 BYTE   N32  Cn1
 BYTE   N11  Fs1
 BYTE   W24
 BYTE   N11
 BYTE   W12
 BYTE   Cn1
 BYTE   W12
 BYTE   N44
 BYTE   N05  Fs1
 BYTE   W06
 BYTE   N05
 BYTE   W06
 BYTE   N05
 BYTE   W06
 BYTE   N17  Cs2
 BYTE   W18
 BYTE   N05  Fs1
 BYTE   W06
 BYTE   N05
 BYTE   W06
//  #04 //010   ----------------------------------------
 BYTE   N23  Cn1
 BYTE   N11  Fs1
 BYTE   W12
 BYTE   N11
 BYTE   W12
 BYTE   N23  Cn1
 BYTE   N11  Fs1
 BYTE   W12
 BYTE   N05
 BYTE   W06
 BYTE   N05
 BYTE   W06
 BYTE   N44  Cn1
 BYTE   N11  Fs1
 BYTE   W12
 BYTE   N11
 BYTE   W12
 BYTE   N11
 BYTE   W12
 BYTE   N05
 BYTE   W06
 BYTE   N05
 BYTE   W06
//  #04 //011   ----------------------------------------
 BYTE   N23  Cn1
 BYTE   N11  Fs1
 BYTE   W12
 BYTE   N05
 BYTE   W06
 BYTE   N05
 BYTE   W06
 BYTE   N23  Cn1
 BYTE   N11  Fs1
 BYTE   W12
 BYTE   N05
 BYTE   N56  Fn2
 BYTE   W06
 BYTE   N05  Fs1
 BYTE   W06
 BYTE   N32  Cn1
 BYTE   N05  Fs1
 BYTE   W06
 BYTE   N05
 BYTE   W06
 BYTE   N05
 BYTE   W06
 BYTE   N05
 BYTE   W06
 BYTE   N05
 BYTE   W06
 BYTE   N05
 BYTE   W06
 BYTE   Cn1
 BYTE   N05  Fn1
 BYTE   N05  Fs1
 BYTE   W06
 BYTE   Cn1
 BYTE   N05  Fn1
 BYTE   N05  Fs1
 BYTE   W06
//  #04 //012   ----------------------------------------
 BYTE   GoTo
  POIN2 Label_0153D9B2
//  #04 //013   ----------------------------------------
 BYTE   BEND   c_v+0
 BYTE   FINE

//**************** Track 5 (Midi-Chn.4) ****************//

song03D8_005:
//  #05 //000   ----------------------------------------
 BYTE   KEYSH   song03D8_key+0
Label_0153F5A6:
 BYTE   VOICE   47
 BYTE   PAN   c_v+34
 BYTE   VOL   35*song03D8_mvl/mxv
 BYTE   BEND   c_v+0
 BYTE   N11  Bn1  v100
 BYTE   N11  Bn2
 BYTE   W12
 BYTE   N23  Bn1
 BYTE   N23  Bn2
 BYTE   W24
 BYTE   Bn1
 BYTE   N23  Bn2
 BYTE   W24
 BYTE   N32  Bn1
 BYTE   N32  Bn2
 BYTE   W36
//  #05 //001   ----------------------------------------
 BYTE   Cs2
 BYTE   N32  Cs3
 BYTE   W36
 BYTE   Bn1
 BYTE   N32  Bn2
 BYTE   W36
 BYTE   N23  An1
 BYTE   N23  An2
 BYTE   W24
//  #05 //002   ----------------------------------------
 BYTE   N32  As1
 BYTE   N32  As2
 BYTE   W36
 BYTE   As1
 BYTE   N32  As2
 BYTE   W36
 BYTE   N11  As1
 BYTE   N11  As2
 BYTE   W12
 BYTE   Bn1
 BYTE   N11  Bn2
 BYTE   W12
//  #05 //003   ----------------------------------------
Label_0153F5E1:
 BYTE   N32  Cs2  v100
 BYTE   N32  Cs3
 BYTE   W36
 BYTE   Bn1
 BYTE   N32  Bn2
 BYTE   W36
 BYTE   N23  As1
 BYTE   N23  As2
 BYTE   W24
 BYTE   PEND 
//  #05 //004   ----------------------------------------
 BYTE   N32  Bn1
 BYTE   N32  Bn2
 BYTE   W36
 BYTE   Bn1
 BYTE   N32  Bn2
 BYTE   W36
 BYTE   N11  Bn1
 BYTE   N11  Bn2
 BYTE   W12
 BYTE   Bn1
 BYTE   N11  Bn2
 BYTE   W12
//  #05 //005   ----------------------------------------
 BYTE   N32  Cs2
 BYTE   N32  Cs3
 BYTE   W36
 BYTE   Cs2
 BYTE   N32  Cs3
 BYTE   W36
 BYTE   N11  Cs2
 BYTE   N11  Cs3
 BYTE   W12
 BYTE   Dn2
 BYTE   N11  Dn3
 BYTE   W12
//  #05 //006   ----------------------------------------
 BYTE   N17  Cs2
 BYTE   N17  Cs3
 BYTE   W18
 BYTE   Cs2
 BYTE   N17  Cs3
 BYTE   W18
 BYTE   N11  Cs2
 BYTE   N11  Cs3
 BYTE   W12
 BYTE   N23  Bn1
 BYTE   N23  Bn2
 BYTE   W24
 BYTE   As1
 BYTE   N23  As2
 BYTE   W24
//  #05 //007   ----------------------------------------
 BYTE   As1
 BYTE   N23  As2
 BYTE   W24
 BYTE   As1
 BYTE   N23  As2
 BYTE   W24
 BYTE   Bn1
 BYTE   N23  Bn2
 BYTE   W24
 BYTE   Bn1
 BYTE   N23  Bn2
 BYTE   W24
//  #05 //008   ----------------------------------------
 BYTE   N32  Bn1
 BYTE   N32  Bn2
 BYTE   W36
 BYTE   Bn1
 BYTE   N32  Bn2
 BYTE   W36
 BYTE   N23  Bn1
 BYTE   N23  Bn2
 BYTE   W24
//  #05 //009   ----------------------------------------
 BYTE   PATT
  POIN2 Label_0153F5E1
//  #05 //010   ----------------------------------------
 BYTE   N32  Bn1  v100
 BYTE   N32  Bn2
 BYTE   W36
 BYTE   Cs2
 BYTE   N32  Cs3
 BYTE   W36
 BYTE   N23  Dn2
 BYTE   N23  Dn3
 BYTE   W24
//  #05 //011   ----------------------------------------
 BYTE   N17  Bn1
 BYTE   N17  Bn2
 BYTE   W18
 BYTE   Bn1
 BYTE   N17  Bn2
 BYTE   W18
 BYTE   N11  Bn1
 BYTE   N11  Bn2
 BYTE   W12
 BYTE   N23  Bn1
 BYTE   N23  Bn2
 BYTE   W24
 BYTE   Bn1
 BYTE   N23  Bn2
 BYTE   W24
//  #05 //012   ----------------------------------------
 BYTE   GoTo
  POIN2 Label_0153F5A6
//  #05 //013   ----------------------------------------
 BYTE   BEND   c_v+0
 BYTE   FINE

//******************************************************//
	ALIGN 4

song03D8:
	BYTE	5	// NumTrks
	BYTE	0	// NumBlks
	BYTE	song03D8_pri	// Priority
	BYTE	song03D8_rev	// Reverb.
    
	POIN2	song03D8_grp
    
	POIN2	song03D8_001
	POIN2	song03D8_002
	POIN2	song03D8_003
	POIN2	song03D8_004
	POIN2	song03D8_005

	
