//Event file generated from Sappy .s format.
	#include "MPlayDef.event"

	#define	song03A4_grp  voicegroup001
	#define	song03A4_pri  0
	#define	song03A4_rev  0
	#define	song03A4_mvl  127
	#define	song03A4_key  0
	#define	song03A4_tbs  1
	#define	song03A4_exg  0
	#define	song03A4_cmp  1

	// .rodata
	//	song03A4
	ALIGN 4


//**************** Track 1 (Midi-Chn.0) ****************//

song03A4_001:
// 000   ----------------------------------------
 BYTE   KEYSH   song03A4_key+0
Label_0_017D2B5E:
 BYTE   TEMPO   134*song03A4_tbs/2
 BYTE   VOICE   48
 BYTE   PAN   c_v+0
 BYTE   VOL   33*song03A4_mvl/mxv
 BYTE   W96
// 001   ----------------------------------------
 BYTE   W96
// 002   ----------------------------------------
 BYTE   W96
// 003   ----------------------------------------
 BYTE   W96
// 004   ----------------------------------------
 BYTE   W24
 BYTE   N05  Gn4  v120
 BYTE   W06
 BYTE   Fn4
 BYTE   W12
 BYTE   N88  Gn4
 BYTE   W54
// 005   ----------------------------------------
Label_0_017D2B74:
 BYTE   W36
 BYTE   N05  Fn4  v120
 BYTE   W06
 BYTE   Gn4
 BYTE   W06
 BYTE   N17  Fn4
 BYTE   W18
 BYTE   En4
 BYTE   W18
 BYTE   N11  Cn4
 BYTE   W12
 BYTE   PEND 
// 006   ----------------------------------------
 BYTE   TIE  An3
 BYTE   W96
// 007   ----------------------------------------
 BYTE   W92
 BYTE   W03
 BYTE   EOT
 BYTE   W01
// 008   ----------------------------------------
 BYTE   W24
 BYTE   N05  Gn4
 BYTE   W12
 BYTE   An4
 BYTE   W06
 BYTE   N88  Gn4
 BYTE   W54
// 009   ----------------------------------------
 BYTE   PATT
  POIN2 Label_0_017D2B74
// 010   ----------------------------------------
 BYTE   N32  Dn4  v120
 BYTE   W36
 BYTE   TIE  An4
 BYTE   W60
// 011   ----------------------------------------
 BYTE   W68
 BYTE   W03
 BYTE   EOT
 BYTE   W24
 BYTE   W01
// 012   ----------------------------------------
 BYTE   W96
// 013   ----------------------------------------
 BYTE   W96
// 014   ----------------------------------------
 BYTE   W96
// 015   ----------------------------------------
 BYTE   W96
// 016   ----------------------------------------
 BYTE   W96
// 017   ----------------------------------------
 BYTE   W96
// 018   ----------------------------------------
 BYTE   W96
// 019   ----------------------------------------
 BYTE   W72
 BYTE   N05  Ds4
 BYTE   W06
 BYTE   En4
 BYTE   W06
 BYTE   Fn4
 BYTE   W06
 BYTE   Fs4
 BYTE   W06
// 020   ----------------------------------------
 BYTE   N17  Gn4
 BYTE   W18
 BYTE   Ds4
 BYTE   W18
 BYTE   Cn4
 BYTE   W18
 BYTE   Ds4
 BYTE   W18
 BYTE   N11  Fn4
 BYTE   W12
 BYTE   Gn4
 BYTE   W12
// 021   ----------------------------------------
 BYTE   N17  An4
 BYTE   W18
 BYTE   Fn4
 BYTE   W18
 BYTE   Dn4
 BYTE   W18
 BYTE   Fn4
 BYTE   W18
 BYTE   N11  Gn4
 BYTE   W12
 BYTE   An4
 BYTE   W12
// 022   ----------------------------------------
 BYTE   N17  As4
 BYTE   W18
 BYTE   Fn4
 BYTE   W18
 BYTE   Ds4
 BYTE   W18
 BYTE   Fn4
 BYTE   W18
 BYTE   N11  As4
 BYTE   W12
 BYTE   Cn5
 BYTE   W12
// 023   ----------------------------------------
 BYTE   N92  Cs5
 BYTE   W96
// 024   ----------------------------------------
 BYTE   TIE  Dn5
 BYTE   W96
// 025   ----------------------------------------
 BYTE   W92
 BYTE   W03
 BYTE   EOT
 BYTE   W01
// 026   ----------------------------------------
 BYTE   W96
// 027   ----------------------------------------
 BYTE   W96
// 028   ----------------------------------------
 BYTE   GoTo
  POIN2 Label_0_017D2B5E
 BYTE   FINE

//**************** Track 2 (Midi-Chn.1) ****************//

song03A4_002:
// 000   ----------------------------------------
 BYTE   KEYSH   song03A4_key+0
Label_1_017D2BF6:
 BYTE   VOICE   34
 BYTE   PAN   c_v+0
 BYTE   VOL   33*song03A4_mvl/mxv
 BYTE   N10  Dn1  v120
 BYTE   W12
 BYTE   N10
 BYTE   W24
 BYTE   N04  Cn1
 BYTE   W06
 BYTE   N28  Dn1
 BYTE   W30
 BYTE   N04  Fn1
 BYTE   W06
 BYTE   N10  Gn1
 BYTE   W12
 BYTE   N04  Cn1
 BYTE   W06
// 001   ----------------------------------------
Label_1_017D2C11:
 BYTE   N10  Dn1  v120
 BYTE   W12
 BYTE   N10
 BYTE   W24
 BYTE   N04  Cn1
 BYTE   W06
 BYTE   N10  Dn1
 BYTE   W12
 BYTE   N10
 BYTE   W12
 BYTE   N04
 BYTE   W06
 BYTE   Fn1
 BYTE   W06
 BYTE   Gn1
 BYTE   W06
 BYTE   Bn0
 BYTE   W06
 BYTE   Cn1
 BYTE   W06
 BYTE   PEND 
// 002   ----------------------------------------
Label_1_017D2C2A:
 BYTE   N10  Dn1  v120
 BYTE   W12
 BYTE   N10
 BYTE   W24
 BYTE   N04  Cn1
 BYTE   W06
 BYTE   N28  Dn1
 BYTE   W30
 BYTE   N04  Fn1
 BYTE   W06
 BYTE   N10  Gn1
 BYTE   W12
 BYTE   N04  Cn1
 BYTE   W06
 BYTE   PEND 
// 003   ----------------------------------------
Label_1_017D2C40:
 BYTE   N10  Dn1  v120
 BYTE   W12
 BYTE   N10
 BYTE   W18
 BYTE   N04
 BYTE   W06
 BYTE   Cn1
 BYTE   W06
 BYTE   Dn1
 BYTE   W06
 BYTE   N22  Fn1
 BYTE   W24
 BYTE   Gn1
 BYTE   W24
 BYTE   PEND 
// 004   ----------------------------------------
 BYTE   PATT
  POIN2 Label_1_017D2C2A
// 005   ----------------------------------------
 BYTE   PATT
  POIN2 Label_1_017D2C11
// 006   ----------------------------------------
 BYTE   PATT
  POIN2 Label_1_017D2C2A
// 007   ----------------------------------------
 BYTE   PATT
  POIN2 Label_1_017D2C40
// 008   ----------------------------------------
 BYTE   PATT
  POIN2 Label_1_017D2C2A
// 009   ----------------------------------------
 BYTE   PATT
  POIN2 Label_1_017D2C11
// 010   ----------------------------------------
 BYTE   PATT
  POIN2 Label_1_017D2C2A
// 011   ----------------------------------------
 BYTE   PATT
  POIN2 Label_1_017D2C40
// 012   ----------------------------------------
 BYTE   PATT
  POIN2 Label_1_017D2C2A
// 013   ----------------------------------------
 BYTE   PATT
  POIN2 Label_1_017D2C11
// 014   ----------------------------------------
 BYTE   PATT
  POIN2 Label_1_017D2C2A
// 015   ----------------------------------------
 BYTE   N04  Dn1  v120
 BYTE   W06
 BYTE   N04
 BYTE   W06
 BYTE   Dn2
 BYTE   W06
 BYTE   Cn2
 BYTE   W06
 BYTE   Gs1
 BYTE   W06
 BYTE   Gn1
 BYTE   W06
 BYTE   Fn1
 BYTE   W06
 BYTE   Dn1
 BYTE   W06
 BYTE   N22  Fn1
 BYTE   W24
 BYTE   Gn1
 BYTE   W24
// 016   ----------------------------------------
 BYTE   PATT
  POIN2 Label_1_017D2C2A
// 017   ----------------------------------------
 BYTE   PATT
  POIN2 Label_1_017D2C11
// 018   ----------------------------------------
 BYTE   PATT
  POIN2 Label_1_017D2C2A
// 019   ----------------------------------------
 BYTE   N04  Dn1  v120
 BYTE   W06
 BYTE   N04
 BYTE   W06
 BYTE   Fn1
 BYTE   W06
 BYTE   Gn1
 BYTE   W06
 BYTE   En1
 BYTE   W06
 BYTE   Fn1
 BYTE   W06
 BYTE   En1
 BYTE   W06
 BYTE   Dn1
 BYTE   W12
 BYTE   Fn1
 BYTE   W06
 BYTE   Dn1
 BYTE   W06
 BYTE   Fn1
 BYTE   W12
 BYTE   Gn1
 BYTE   W06
 BYTE   En1
 BYTE   W06
 BYTE   Gn1
 BYTE   W06
// 020   ----------------------------------------
 BYTE   N10  Gs1
 BYTE   W12
 BYTE   N10
 BYTE   W24
 BYTE   N04  Gn1
 BYTE   W06
 BYTE   N10  Gs1
 BYTE   W12
 BYTE   N10
 BYTE   W18
 BYTE   Gn1
 BYTE   W12
 BYTE   Gs1
 BYTE   W12
// 021   ----------------------------------------
 BYTE   Gn1
 BYTE   W12
 BYTE   N10
 BYTE   W24
 BYTE   N04  Fs1
 BYTE   W06
 BYTE   N10  Gn1
 BYTE   W12
 BYTE   N10
 BYTE   W18
 BYTE   Fs1
 BYTE   W12
 BYTE   Gn1
 BYTE   W12
// 022   ----------------------------------------
 BYTE   Fn1
 BYTE   W12
 BYTE   N10
 BYTE   W24
 BYTE   N04  Ds1
 BYTE   W06
 BYTE   N10  Fn1
 BYTE   W12
 BYTE   N10
 BYTE   W18
 BYTE   Ds1
 BYTE   W12
 BYTE   N04
 BYTE   W06
 BYTE   Fn1
 BYTE   W06
// 023   ----------------------------------------
 BYTE   N92  Ds1
 BYTE   W96
// 024   ----------------------------------------
 BYTE   PATT
  POIN2 Label_1_017D2C2A
// 025   ----------------------------------------
 BYTE   PATT
  POIN2 Label_1_017D2C11
// 026   ----------------------------------------
 BYTE   PATT
  POIN2 Label_1_017D2C2A
// 027   ----------------------------------------
 BYTE   N10  Dn1  v120
 BYTE   W12
 BYTE   N10
 BYTE   W18
 BYTE   N04
 BYTE   W06
 BYTE   Cn1
 BYTE   W06
 BYTE   Dn1
 BYTE   W12
 BYTE   N04
 BYTE   W06
 BYTE   Fn1
 BYTE   W06
 BYTE   Gn1
 BYTE   W06
 BYTE   Fn1
 BYTE   W06
 BYTE   En1
 BYTE   W06
 BYTE   N10  Cn1
 BYTE   W12
// 028   ----------------------------------------
 BYTE   GoTo
  POIN2 Label_1_017D2BF6
 BYTE   FINE

//**************** Track 3 (Midi-Chn.2) ****************//

song03A4_003:
// 000   ----------------------------------------
 BYTE   KEYSH   song03A4_key+0
Label_2_017D2D36:
 BYTE   VOICE   1
 BYTE   PAN   c_v+26
 BYTE   VOL   29*song03A4_mvl/mxv
 BYTE   N22  Dn2  v068
 BYTE   W24
 BYTE   N10  Fn3  v108
 BYTE   N10  An3
 BYTE   N10  Cn4
 BYTE   W12
 BYTE   Dn2  v068
 BYTE   W12
 BYTE   Fn3  v108
 BYTE   N10  An3
 BYTE   N10  Cn4
 BYTE   W12
 BYTE   N04  Dn2  v068
 BYTE   W06
 BYTE   Fn3  v108
 BYTE   N04  An3
 BYTE   N04  Cn4
 BYTE   W12
 BYTE   Dn3
 BYTE   N04  Gn3
 BYTE   N04  Bn3
 BYTE   W12
 BYTE   Cn2  v068
 BYTE   W06
// 001   ----------------------------------------
Label_2_017D2D66:
 BYTE   N22  Dn2  v068
 BYTE   W24
 BYTE   N10  Fn3  v108
 BYTE   N10  An3
 BYTE   N10  Cn4
 BYTE   W12
 BYTE   Dn2  v068
 BYTE   W12
 BYTE   Fn3  v108
 BYTE   N10  An3
 BYTE   N10  Cn4
 BYTE   W12
 BYTE   N04  Dn2  v068
 BYTE   W06
 BYTE   Fn3  v108
 BYTE   N04  An3
 BYTE   N04  Cn4
 BYTE   W12
 BYTE   Fn3
 BYTE   N04  An3
 BYTE   N04  Bn3
 BYTE   W06
 BYTE   Bn1  v068
 BYTE   W06
 BYTE   Cn2
 BYTE   W06
 BYTE   PEND 
// 002   ----------------------------------------
Label_2_017D2D93:
 BYTE   N22  Dn2  v068
 BYTE   W24
 BYTE   N10  Fn3  v108
 BYTE   N10  An3
 BYTE   N10  Cn4
 BYTE   W12
 BYTE   Dn2  v068
 BYTE   W12
 BYTE   Fn3  v108
 BYTE   N10  An3
 BYTE   N10  Cn4
 BYTE   W12
 BYTE   N04  Dn2  v068
 BYTE   W06
 BYTE   Fn3  v108
 BYTE   N04  An3
 BYTE   N04  Cn4
 BYTE   W12
 BYTE   Dn3
 BYTE   N04  Gn3
 BYTE   N04  Bn3
 BYTE   W12
 BYTE   Cn2  v068
 BYTE   W06
 BYTE   PEND 
// 003   ----------------------------------------
Label_2_017D2DBE:
 BYTE   N22  Dn2  v068
 BYTE   W24
 BYTE   N10  Fn3  v108
 BYTE   N10  An3
 BYTE   N10  Cn4
 BYTE   W12
 BYTE   Dn2  v068
 BYTE   W12
 BYTE   N22  Fn3  v108
 BYTE   N22  An3
 BYTE   N22  Cn4
 BYTE   W24
 BYTE   Fn3
 BYTE   N22  An3
 BYTE   N22  Bn3
 BYTE   W24
 BYTE   PEND 
// 004   ----------------------------------------
 BYTE   PATT
  POIN2 Label_2_017D2D93
// 005   ----------------------------------------
 BYTE   PATT
  POIN2 Label_2_017D2D66
// 006   ----------------------------------------
 BYTE   PATT
  POIN2 Label_2_017D2D93
// 007   ----------------------------------------
 BYTE   PATT
  POIN2 Label_2_017D2DBE
// 008   ----------------------------------------
 BYTE   PATT
  POIN2 Label_2_017D2D93
// 009   ----------------------------------------
 BYTE   PATT
  POIN2 Label_2_017D2D66
// 010   ----------------------------------------
 BYTE   PATT
  POIN2 Label_2_017D2D93
// 011   ----------------------------------------
 BYTE   PATT
  POIN2 Label_2_017D2DBE
// 012   ----------------------------------------
Label_2_017D2E04:
 BYTE   TIE  En3  v108
 BYTE   TIE  Fn3
 BYTE   TIE  An3
 BYTE   TIE  Cn4
 BYTE   W96
 BYTE   PEND 
// 013   ----------------------------------------
 BYTE   W92
 BYTE   W02
 BYTE   EOT
 BYTE   En3  v065
 BYTE   An3  v072
 BYTE   W02
// 014   ----------------------------------------
Label_2_017D2E17:
 BYTE   N44  Dn3  v108
 BYTE   N44  Fn3
 BYTE   N44  Gn3
 BYTE   N44  Bn3
 BYTE   W48
 BYTE   N16
 BYTE   N16  Dn4
 BYTE   W18
 BYTE   N04  Bn3
 BYTE   N04  Dn4
 BYTE   W30
 BYTE   PEND 
// 015   ----------------------------------------
Label_2_017D2E2B:
 BYTE   W48
 BYTE   N22  Cn3  v108
 BYTE   N22  Fn3
 BYTE   N22  An3
 BYTE   W24
 BYTE   Bn2
 BYTE   N22  Fn3
 BYTE   N22  An3
 BYTE   W24
 BYTE   PEND 
// 016   ----------------------------------------
 BYTE   PATT
  POIN2 Label_2_017D2E04
// 017   ----------------------------------------
 BYTE   W92
 BYTE   W02
 BYTE   EOT
 BYTE   En3  v065
 BYTE   An3  v072
 BYTE   W02
// 018   ----------------------------------------
 BYTE   PATT
  POIN2 Label_2_017D2E17
// 019   ----------------------------------------
 BYTE   PATT
  POIN2 Label_2_017D2E2B
// 020   ----------------------------------------
 BYTE   N92  Cn3  v108
 BYTE   N92  Gn3
 BYTE   W96
// 021   ----------------------------------------
 BYTE   Dn3
 BYTE   N92  An3
 BYTE   W96
// 022   ----------------------------------------
 BYTE   Cn3
 BYTE   N92  As3
 BYTE   W96
// 023   ----------------------------------------
 BYTE   Fn3
 BYTE   N92  An3
 BYTE   W96
// 024   ----------------------------------------
 BYTE   TIE  En3
 BYTE   TIE  An3
 BYTE   W96
// 025   ----------------------------------------
 BYTE   W92
 BYTE   W02
 BYTE   EOT
 BYTE   En3  v069
 BYTE   W02
// 026   ----------------------------------------
 BYTE   TIE  En3
 BYTE   TIE  Gn3
 BYTE   TIE  Cn4
 BYTE   W96
// 027   ----------------------------------------
 BYTE   W92
 BYTE   W02
 BYTE   EOT
 BYTE   En3  v067
 BYTE   Cn4
 BYTE   W02
// 028   ----------------------------------------
 BYTE   GoTo
  POIN2 Label_2_017D2D36
 BYTE   FINE

//**************** Track 4 (Midi-Chn.3) ****************//

song03A4_004:
// 000   ----------------------------------------
 BYTE   KEYSH   song03A4_key+0
Label_3_017D2E86:
 BYTE   VOICE   30
 BYTE   PAN   c_v-4
 BYTE   VOL   29*song03A4_mvl/mxv
 BYTE   N92  Dn2  v108
 BYTE   W96
// 001   ----------------------------------------
 BYTE   N68
 BYTE   W84
 BYTE   N05  Bn1
 BYTE   W06
 BYTE   Cn2
 BYTE   W06
// 002   ----------------------------------------
 BYTE   N92  Dn2
 BYTE   W96
// 003   ----------------------------------------
Label_3_017D2E9A:
 BYTE   N44  Dn2  v108
 BYTE   W48
 BYTE   N23  Fn2
 BYTE   W24
 BYTE   Gn2
 BYTE   W24
 BYTE   PEND 
// 004   ----------------------------------------
 BYTE   N92  Dn2
 BYTE   W96
// 005   ----------------------------------------
Label_3_017D2EA7:
 BYTE   N68  Dn2  v108
 BYTE   W84
 BYTE   N11  Cn2
 BYTE   W12
 BYTE   PEND 
// 006   ----------------------------------------
 BYTE   N92  Dn2
 BYTE   W96
// 007   ----------------------------------------
 BYTE   PATT
  POIN2 Label_3_017D2E9A
// 008   ----------------------------------------
 BYTE   N92  Dn2  v108
 BYTE   W96
// 009   ----------------------------------------
 BYTE   PATT
  POIN2 Label_3_017D2EA7
// 010   ----------------------------------------
 BYTE   N92  Dn2  v108
 BYTE   W96
// 011   ----------------------------------------
 BYTE   PATT
  POIN2 Label_3_017D2E9A
// 012   ----------------------------------------
 BYTE   N92  Dn2  v108
 BYTE   W96
// 013   ----------------------------------------
 BYTE   PATT
  POIN2 Label_3_017D2EA7
// 014   ----------------------------------------
 BYTE   N92  Dn2  v108
 BYTE   W96
// 015   ----------------------------------------
 BYTE   PATT
  POIN2 Label_3_017D2E9A
// 016   ----------------------------------------
 BYTE   N92  Dn2  v108
 BYTE   W96
// 017   ----------------------------------------
 BYTE   PATT
  POIN2 Label_3_017D2EA7
// 018   ----------------------------------------
 BYTE   N92  Dn2  v108
 BYTE   W96
// 019   ----------------------------------------
 BYTE   PATT
  POIN2 Label_3_017D2E9A
// 020   ----------------------------------------
 BYTE   N92  Gs2  v108
 BYTE   W96
// 021   ----------------------------------------
 BYTE   Gn2
 BYTE   W96
// 022   ----------------------------------------
 BYTE   Fn2
 BYTE   W96
// 023   ----------------------------------------
 BYTE   Ds2
 BYTE   W96
// 024   ----------------------------------------
 BYTE   TIE  Dn2
 BYTE   W96
// 025   ----------------------------------------
 BYTE   W92
 BYTE   W03
 BYTE   EOT
 BYTE   W01
// 026   ----------------------------------------
 BYTE   TIE  Cn2
 BYTE   W96
// 027   ----------------------------------------
 BYTE   W92
 BYTE   W03
 BYTE   EOT
 BYTE   W01
// 028   ----------------------------------------
 BYTE   GoTo
  POIN2 Label_3_017D2E86
 BYTE   FINE

//**************** Track 5 (Midi-Chn.4) ****************//

song03A4_005:
// 000   ----------------------------------------
 BYTE   KEYSH   song03A4_key+0
Label_4_017D2F0E:
 BYTE   VOICE   18
 BYTE   PAN   c_v+0
 BYTE   VOL   32*song03A4_mvl/mxv
 BYTE   W96
// 001   ----------------------------------------
 BYTE   W96
// 002   ----------------------------------------
 BYTE   W96
// 003   ----------------------------------------
 BYTE   W96
// 004   ----------------------------------------
 BYTE   W96
// 005   ----------------------------------------
 BYTE   W96
// 006   ----------------------------------------
 BYTE   W96
// 007   ----------------------------------------
 BYTE   N05  An5  v112
 BYTE   W06
 BYTE   Gn5
 BYTE   W06
 BYTE   Fn5
 BYTE   W06
 BYTE   Dn5
 BYTE   W06
 BYTE   Ds5
 BYTE   W06
 BYTE   En5
 BYTE   W06
 BYTE   Cn5
 BYTE   W06
 BYTE   Gn4
 BYTE   W06
 BYTE   Gs4
 BYTE   W06
 BYTE   An4
 BYTE   W06
 BYTE   Cn5
 BYTE   W06
 BYTE   Dn5
 BYTE   W06
 BYTE   Fn5
 BYTE   W06
 BYTE   Gn5
 BYTE   W06
 BYTE   An5
 BYTE   W06
 BYTE   Cn6
 BYTE   W06
// 008   ----------------------------------------
 BYTE   W96
// 009   ----------------------------------------
 BYTE   W96
// 010   ----------------------------------------
 BYTE   W96
// 011   ----------------------------------------
 BYTE   W96
// 012   ----------------------------------------
 BYTE   Gs5
 BYTE   W06
 BYTE   Gn5
 BYTE   W06
 BYTE   Fn5
 BYTE   W06
 BYTE   Dn5
 BYTE   W06
 BYTE   Cn5
 BYTE   W06
 BYTE   Dn5
 BYTE   W06
 BYTE   Fn5
 BYTE   W06
 BYTE   Cn5
 BYTE   W06
 BYTE   Dn5
 BYTE   W06
 BYTE   Gn4
 BYTE   W06
 BYTE   An4
 BYTE   W06
 BYTE   Cn5
 BYTE   W06
 BYTE   Bn5
 BYTE   N05  Dn6
 BYTE   W06
 BYTE   Gn5
 BYTE   W06
 BYTE   Fn5
 BYTE   W06
 BYTE   Dn5
 BYTE   W06
// 013   ----------------------------------------
 BYTE   W12
 BYTE   N32  An4
 BYTE   N32  Cn5
 BYTE   N32  En5
 BYTE   W36
 BYTE   N05  Fn5
 BYTE   W18
 BYTE   En5
 BYTE   W18
 BYTE   Cn5
 BYTE   W12
// 014   ----------------------------------------
Label_4_017D2F72:
 BYTE   N17  Bn4  v112
 BYTE   N17  Dn5
 BYTE   W18
 BYTE   N05  Bn4
 BYTE   N05  Dn5
 BYTE   W78
 BYTE   PEND 
// 015   ----------------------------------------
 BYTE   W96
// 016   ----------------------------------------
 BYTE   Gn5
 BYTE   W06
 BYTE   An5
 BYTE   W06
 BYTE   Cn6
 BYTE   W06
 BYTE   Dn6
 BYTE   W06
 BYTE   En6
 BYTE   W06
 BYTE   Fn6
 BYTE   W06
 BYTE   En6
 BYTE   W06
 BYTE   Cn6
 BYTE   W06
 BYTE   Dn6
 BYTE   W06
 BYTE   Gs5
 BYTE   W06
 BYTE   Gn5
 BYTE   W06
 BYTE   Fn5
 BYTE   W06
 BYTE   En5
 BYTE   W06
 BYTE   Fn5
 BYTE   W06
 BYTE   En5
 BYTE   W06
 BYTE   Cn5
 BYTE   W06
// 017   ----------------------------------------
 BYTE   W06
 BYTE   Dn5
 BYTE   W06
 BYTE   Fn5
 BYTE   W06
 BYTE   Gn5
 BYTE   W06
 BYTE   En5
 BYTE   W06
 BYTE   Fn5
 BYTE   W06
 BYTE   Cn5
 BYTE   W06
 BYTE   Dn5
 BYTE   W06
 BYTE   Ds5
 BYTE   W06
 BYTE   En5
 BYTE   W06
 BYTE   Cn5
 BYTE   W06
 BYTE   Gn4
 BYTE   W06
 BYTE   Gs4
 BYTE   W06
 BYTE   An4
 BYTE   W06
 BYTE   Cn5
 BYTE   W06
 BYTE   En5
 BYTE   W06
// 018   ----------------------------------------
 BYTE   PATT
  POIN2 Label_4_017D2F72
// 019   ----------------------------------------
 BYTE   W96
// 020   ----------------------------------------
 BYTE   N05  Gn5  v112
 BYTE   W06
 BYTE   Cn5
 BYTE   W06
 BYTE   Dn5
 BYTE   W06
 BYTE   Gn5
 BYTE   W06
 BYTE   Cn5  v092
 BYTE   W06
 BYTE   Dn5
 BYTE   W06
 BYTE   Gn5
 BYTE   W60
// 021   ----------------------------------------
 BYTE   An5  v112
 BYTE   W06
 BYTE   Dn5
 BYTE   W06
 BYTE   Fn5
 BYTE   W06
 BYTE   An5
 BYTE   W06
 BYTE   Dn5  v092
 BYTE   W72
// 022   ----------------------------------------
 BYTE   As5  v112
 BYTE   W06
 BYTE   Ds5
 BYTE   W06
 BYTE   Gn5
 BYTE   W06
 BYTE   As5
 BYTE   W06
 BYTE   Ds5  v072
 BYTE   W06
 BYTE   Gn5
 BYTE   W06
 BYTE   As5
 BYTE   W06
 BYTE   Ds5
 BYTE   W54
// 023   ----------------------------------------
 BYTE   N96  Fn5  v112
 BYTE   N96  An5
 BYTE   N96  Cs6
 BYTE   W24
 BYTE   BEND   c_v-4
 BYTE   W01
 BYTE   Gs2
 BYTE   W02
 BYTE   En2
 BYTE   W01
 BYTE   Cn2
 BYTE   W02
 BYTE   Gs1
 BYTE   W01
 BYTE   En1
 BYTE   W02
 BYTE   Cn1
 BYTE   W01
 BYTE   Gs0
 BYTE   W02
 BYTE   En0
 BYTE   W01
 BYTE   Cn0
 BYTE   W02
 BYTE   GsM1
 BYTE   W01
 BYTE   EnM1
 BYTE   W02
 BYTE   CnM1
 BYTE   W01
 BYTE   GsM2
 BYTE   W02
 BYTE   EnM2
 BYTE   W01
 BYTE   CnM2
 BYTE   W48
 BYTE   W02
// 024   ----------------------------------------
 BYTE   En3
 BYTE   W96
// 025   ----------------------------------------
 BYTE   W96
// 026   ----------------------------------------
 BYTE   W96
// 027   ----------------------------------------
 BYTE   W96
// 028   ----------------------------------------
 BYTE   GoTo
  POIN2 Label_4_017D2F0E
 BYTE   FINE

//**************** Track 6 (Midi-Chn.5) ****************//

song03A4_006:
// 000   ----------------------------------------
 BYTE   KEYSH   song03A4_key+0
Label_5_017D302A:
 BYTE   VOICE   10
 BYTE   PAN   c_v+0
 BYTE   VOL   24*song03A4_mvl/mxv
 BYTE   W96
// 001   ----------------------------------------
 BYTE   W96
// 002   ----------------------------------------
 BYTE   W96
// 003   ----------------------------------------
 BYTE   W96
// 004   ----------------------------------------
 BYTE   W24
 BYTE   N05  Gn5  v092
 BYTE   W06
 BYTE   Fn5
 BYTE   W12
 BYTE   N88  Gn5
 BYTE   W54
// 005   ----------------------------------------
Label_5_017D303E:
 BYTE   W36
 BYTE   N05  Fn5  v092
 BYTE   W06
 BYTE   Gn5
 BYTE   W06
 BYTE   N17  Fn5
 BYTE   W18
 BYTE   En5
 BYTE   W18
 BYTE   N11  Cn5
 BYTE   W12
 BYTE   PEND 
// 006   ----------------------------------------
 BYTE   TIE  An4
 BYTE   W96
// 007   ----------------------------------------
 BYTE   W92
 BYTE   W03
 BYTE   EOT
 BYTE   W01
// 008   ----------------------------------------
 BYTE   W24
 BYTE   N05  Gn5
 BYTE   W12
 BYTE   An5
 BYTE   W06
 BYTE   N88  Gn5
 BYTE   W54
// 009   ----------------------------------------
 BYTE   PATT
  POIN2 Label_5_017D303E
// 010   ----------------------------------------
 BYTE   N32  Dn5  v092
 BYTE   W36
 BYTE   TIE  An5
 BYTE   W60
// 011   ----------------------------------------
 BYTE   W68
 BYTE   W03
 BYTE   EOT
 BYTE   W24
 BYTE   W01
// 012   ----------------------------------------
 BYTE   W96
// 013   ----------------------------------------
 BYTE   W96
// 014   ----------------------------------------
 BYTE   W96
// 015   ----------------------------------------
 BYTE   W96
// 016   ----------------------------------------
 BYTE   W96
// 017   ----------------------------------------
 BYTE   W96
// 018   ----------------------------------------
 BYTE   W96
// 019   ----------------------------------------
 BYTE   W72
 BYTE   N05  Ds5
 BYTE   W06
 BYTE   En5
 BYTE   W06
 BYTE   Fn5
 BYTE   W06
 BYTE   Fs5
 BYTE   W06
// 020   ----------------------------------------
 BYTE   N17  Gn5
 BYTE   W18
 BYTE   Ds5
 BYTE   W18
 BYTE   Cn5
 BYTE   W18
 BYTE   Ds5
 BYTE   W18
 BYTE   N11  Fn5
 BYTE   W12
 BYTE   Gn5
 BYTE   W12
// 021   ----------------------------------------
 BYTE   N17  An5
 BYTE   W18
 BYTE   Fn5
 BYTE   W18
 BYTE   Dn5
 BYTE   W18
 BYTE   Fn5
 BYTE   W18
 BYTE   N11  Gn5
 BYTE   W12
 BYTE   An5
 BYTE   W12
// 022   ----------------------------------------
 BYTE   N17  As5
 BYTE   W18
 BYTE   Fn5
 BYTE   W18
 BYTE   Ds5
 BYTE   W18
 BYTE   Fn5
 BYTE   W18
 BYTE   N11  As5
 BYTE   W12
 BYTE   Cn6
 BYTE   W12
// 023   ----------------------------------------
 BYTE   N92  Cs6
 BYTE   W96
// 024   ----------------------------------------
 BYTE   TIE  Dn6
 BYTE   W96
// 025   ----------------------------------------
 BYTE   W92
 BYTE   W03
 BYTE   EOT
 BYTE   W01
// 026   ----------------------------------------
 BYTE   W96
// 027   ----------------------------------------
 BYTE   W96
// 028   ----------------------------------------
 BYTE   GoTo
  POIN2 Label_5_017D302A
 BYTE   FINE

//**************** Track 7 (Midi-Chn.6) ****************//

song03A4_007:
// 000   ----------------------------------------
 BYTE   KEYSH   song03A4_key+0
Label_6_017D30BE:
 BYTE   VOICE   48
 BYTE   PAN   c_v+0
 BYTE   VOL   24*song03A4_mvl/mxv
 BYTE   TIE  Fn3  v092
 BYTE   TIE  An3
 BYTE   W96
// 001   ----------------------------------------
 BYTE   W96
// 002   ----------------------------------------
 BYTE   W96
// 003   ----------------------------------------
 BYTE   W96
// 004   ----------------------------------------
 BYTE   EOT
 BYTE   Fn3  v069
 BYTE   TIE
 BYTE   W96
// 005   ----------------------------------------
 BYTE   W96
// 006   ----------------------------------------
 BYTE   W96
// 007   ----------------------------------------
 BYTE   W96
// 008   ----------------------------------------
 BYTE   EOT
 BYTE   TIE
 BYTE   W96
// 009   ----------------------------------------
 BYTE   W96
// 010   ----------------------------------------
 BYTE   W96
// 011   ----------------------------------------
 BYTE   W96
// 012   ----------------------------------------
 BYTE   EOT
 BYTE   W96
// 013   ----------------------------------------
 BYTE   W96
// 014   ----------------------------------------
 BYTE   W96
// 015   ----------------------------------------
 BYTE   W96
// 016   ----------------------------------------
 BYTE   W96
// 017   ----------------------------------------
 BYTE   W96
// 018   ----------------------------------------
 BYTE   W96
// 019   ----------------------------------------
 BYTE   W96
// 020   ----------------------------------------
 BYTE   N96  Cn3
 BYTE   W96
// 021   ----------------------------------------
 BYTE   Dn3
 BYTE   W96
// 022   ----------------------------------------
 BYTE   Cn3
 BYTE   W96
// 023   ----------------------------------------
 BYTE   Fn3
 BYTE   W96
// 024   ----------------------------------------
 BYTE   TIE  En3
 BYTE   W96
// 025   ----------------------------------------
 BYTE   W96
// 026   ----------------------------------------
 BYTE   EOT
 BYTE   W96
// 027   ----------------------------------------
 BYTE   W96
// 028   ----------------------------------------
 BYTE   GoTo
  POIN2 Label_6_017D30BE
 BYTE   FINE

//**************** Track 8 (Midi-Chn.7) ****************//

song03A4_008:
// 000   ----------------------------------------
 BYTE   KEYSH   song03A4_key+0
Label_7_017D30FE:
 BYTE   VOICE   124
 BYTE   PAN   c_v+0
 BYTE   VOL   30*song03A4_mvl/mxv
 BYTE   PAN   c_v+0
 BYTE   VOL   30*song03A4_mvl/mxv
 BYTE   N01  Cn1  v112
 BYTE   N01  Fs1  v092
 BYTE   N01  Cs2
 BYTE   W12
 BYTE   Fs1
 BYTE   W12
 BYTE   Dn1  v112
 BYTE   N01  Fs1  v092
 BYTE   W12
 BYTE   Cn1  v112
 BYTE   N01  Fs1  v092
 BYTE   W06
 BYTE   Cn1  v112
 BYTE   W06
 BYTE   Fs1  v092
 BYTE   W12
 BYTE   N01
 BYTE   W06
 BYTE   Cn1  v112
 BYTE   W06
 BYTE   Dn1
 BYTE   N01  Fs1  v092
 BYTE   W12
 BYTE   N01
 BYTE   W06
 BYTE   Cn1  v112
 BYTE   W06
// 001   ----------------------------------------
Label_7_017D3134:
 BYTE   N01  Cn1  v112
 BYTE   N01  Fs1  v092
 BYTE   W12
 BYTE   N01
 BYTE   W12
 BYTE   Dn1  v112
 BYTE   N01  Fs1  v092
 BYTE   W12
 BYTE   Cn1  v112
 BYTE   N01  Fs1  v092
 BYTE   W06
 BYTE   Cn1  v112
 BYTE   W06
 BYTE   Fs1  v092
 BYTE   W12
 BYTE   N01
 BYTE   W06
 BYTE   Cn1  v112
 BYTE   W06
 BYTE   Dn1
 BYTE   N01  Fs1  v092
 BYTE   W12
 BYTE   Cn1  v112
 BYTE   N01  As1  v092
 BYTE   W06
 BYTE   Dn1  v112
 BYTE   W06
 BYTE   PEND 
// 002   ----------------------------------------
 BYTE   Cn1
 BYTE   N01  Fs1  v092
 BYTE   W12
 BYTE   N01
 BYTE   W12
 BYTE   Cn1  v112
 BYTE   N01  Dn1
 BYTE   N01  Fs1  v092
 BYTE   N01  Cs2
 BYTE   W12
 BYTE   Fs1
 BYTE   W06
 BYTE   Cn1  v112
 BYTE   W06
 BYTE   Fs1  v092
 BYTE   W12
 BYTE   N01
 BYTE   W06
 BYTE   Cn1  v112
 BYTE   W06
 BYTE   Dn1
 BYTE   N01  Fs1  v092
 BYTE   W12
 BYTE   N01
 BYTE   W06
 BYTE   Cn1  v112
 BYTE   W06
// 003   ----------------------------------------
 BYTE   N01
 BYTE   N01  Fs1  v092
 BYTE   W12
 BYTE   N01
 BYTE   W12
 BYTE   Dn1  v112
 BYTE   N01  Fs1  v092
 BYTE   W12
 BYTE   Cn1  v112
 BYTE   N01  Fs1  v092
 BYTE   W10
 BYTE   Dn1  v112
 BYTE   W02
 BYTE   N01
 BYTE   N01  Fs1  v092
 BYTE   W12
 BYTE   En1  v072
 BYTE   N01  Fs1  v092
 BYTE   W04
 BYTE   En1
 BYTE   W04
 BYTE   En1  v112
 BYTE   W04
 BYTE   Dn1
 BYTE   N01  Fs1  v092
 BYTE   W06
 BYTE   Dn1  v112
 BYTE   W06
 BYTE   As1  v092
 BYTE   N01  Cn2  v112
 BYTE   W12
// 004   ----------------------------------------
Label_7_017D31BF:
 BYTE   N01  Cn1  v112
 BYTE   N01  Fs1  v092
 BYTE   N01  Cs2
 BYTE   W12
 BYTE   Fs1
 BYTE   W12
 BYTE   Dn1  v112
 BYTE   N01  Fs1  v092
 BYTE   W12
 BYTE   Cn1  v112
 BYTE   N01  Fs1  v092
 BYTE   W06
 BYTE   Cn1  v112
 BYTE   W06
 BYTE   Fs1  v092
 BYTE   W12
 BYTE   N01
 BYTE   W06
 BYTE   Cn1  v112
 BYTE   W06
 BYTE   Dn1
 BYTE   N01  Fs1  v092
 BYTE   W12
 BYTE   N01
 BYTE   W06
 BYTE   Cn1  v112
 BYTE   W06
 BYTE   PEND 
// 005   ----------------------------------------
 BYTE   PATT
  POIN2 Label_7_017D3134
// 006   ----------------------------------------
Label_7_017D31F1:
 BYTE   N01  Cn1  v112
 BYTE   N01  Fs1  v092
 BYTE   W12
 BYTE   N01
 BYTE   W12
 BYTE   Dn1  v112
 BYTE   N01  Fs1  v092
 BYTE   W12
 BYTE   Cn1  v112
 BYTE   N01  Fs1  v092
 BYTE   W06
 BYTE   Cn1  v112
 BYTE   W06
 BYTE   Fs1  v092
 BYTE   W12
 BYTE   N01
 BYTE   W06
 BYTE   Cn1  v112
 BYTE   W06
 BYTE   Dn1
 BYTE   N01  Fs1  v092
 BYTE   W12
 BYTE   N01
 BYTE   W06
 BYTE   Cn1  v112
 BYTE   W06
 BYTE   PEND 
// 007   ----------------------------------------
 BYTE   N01
 BYTE   N01  Fs1  v092
 BYTE   W06
 BYTE   N01
 BYTE   W12
 BYTE   N01
 BYTE   W06
 BYTE   Dn1  v112
 BYTE   W06
 BYTE   Fs1  v092
 BYTE   W06
 BYTE   Cn1  v112
 BYTE   W10
 BYTE   Dn1
 BYTE   W02
 BYTE   N01
 BYTE   N01  As1  v092
 BYTE   W12
 BYTE   En1  v072
 BYTE   W04
 BYTE   En1  v092
 BYTE   W04
 BYTE   En1  v112
 BYTE   W04
 BYTE   Dn1
 BYTE   W06
 BYTE   N01
 BYTE   W06
 BYTE   Gn1
 BYTE   W12
// 008   ----------------------------------------
 BYTE   PATT
  POIN2 Label_7_017D31BF
// 009   ----------------------------------------
 BYTE   PATT
  POIN2 Label_7_017D3134
// 010   ----------------------------------------
 BYTE   PATT
  POIN2 Label_7_017D31F1
// 011   ----------------------------------------
 BYTE   N01  Cn1  v112
 BYTE   N01  Fs1  v092
 BYTE   W12
 BYTE   N01
 BYTE   W12
 BYTE   Dn1  v112
 BYTE   N01  Fs1  v092
 BYTE   W12
 BYTE   Cn1  v112
 BYTE   N01  Fs1  v092
 BYTE   W06
 BYTE   Cn1  v112
 BYTE   W06
 BYTE   Fs1  v092
 BYTE   W06
 BYTE   En1  v080
 BYTE   N01  Fs1  v092
 BYTE   W06
 BYTE   As1
 BYTE   W06
 BYTE   Cn1  v112
 BYTE   W12
 BYTE   N01
 BYTE   W06
 BYTE   Dn1
 BYTE   W06
 BYTE   Cn1
 BYTE   W06
// 012   ----------------------------------------
 BYTE   N01
 BYTE   N01  Fs1  v092
 BYTE   N01  Cs2
 BYTE   W06
 BYTE   Cn1  v112
 BYTE   W06
 BYTE   Fs1  v092
 BYTE   W12
 BYTE   Dn1  v112
 BYTE   N01  Fs1  v092
 BYTE   W12
 BYTE   Cn1  v112
 BYTE   N01  Fs1  v092
 BYTE   W06
 BYTE   Cn1  v112
 BYTE   W06
 BYTE   Fs1  v092
 BYTE   W12
 BYTE   N01
 BYTE   W06
 BYTE   Cn1  v112
 BYTE   W06
 BYTE   Dn1
 BYTE   N01  Fs1  v092
 BYTE   W12
 BYTE   N01
 BYTE   W06
 BYTE   Cn1  v112
 BYTE   W06
// 013   ----------------------------------------
 BYTE   N01
 BYTE   N01  Fs1  v092
 BYTE   W12
 BYTE   N01
 BYTE   W12
 BYTE   Dn1  v112
 BYTE   N01  Fs1  v092
 BYTE   W12
 BYTE   Cn1  v112
 BYTE   N01  Fs1  v092
 BYTE   W06
 BYTE   Cn1  v112
 BYTE   W06
 BYTE   Fs1  v092
 BYTE   W06
 BYTE   Dn1  v112
 BYTE   W06
 BYTE   Fs1  v092
 BYTE   W06
 BYTE   Cn1  v112
 BYTE   W06
 BYTE   Dn1
 BYTE   N01  Fs1  v092
 BYTE   W12
 BYTE   Cn1  v112
 BYTE   N01  As1  v092
 BYTE   W06
 BYTE   Dn1  v112
 BYTE   W06
// 014   ----------------------------------------
 BYTE   PATT
  POIN2 Label_7_017D31F1
// 015   ----------------------------------------
 BYTE   N01  Cn1  v112
 BYTE   N01  Fs1  v092
 BYTE   W06
 BYTE   Cn1  v112
 BYTE   W06
 BYTE   Dn1
 BYTE   N01  An2  v092
 BYTE   W03
 BYTE   Cn2  v112
 BYTE   W01
 BYTE   N01
 BYTE   W02
 BYTE   Cn1
 BYTE   W12
 BYTE   Gn1
 BYTE   W06
 BYTE   Cn1
 BYTE   N01  Fs1  v092
 BYTE   W06
 BYTE   Dn1  v112
 BYTE   N01  Cs2  v092
 BYTE   W06
 BYTE   Cn1  v112
 BYTE   N01  Fs1  v092
 BYTE   W06
 BYTE   Cn1  v112
 BYTE   W06
 BYTE   Fs1  v092
 BYTE   W06
 BYTE   Cn1  v112
 BYTE   W04
 BYTE   Dn1
 BYTE   W02
 BYTE   N01
 BYTE   N01  Fs1  v092
 BYTE   W06
 BYTE   Cn1  v112
 BYTE   N01  Cn2
 BYTE   N01  An2  v092
 BYTE   W06
 BYTE   Cn1  v112
 BYTE   N01  Fs1  v092
 BYTE   N01  Gn1  v112
 BYTE   W12
// 016   ----------------------------------------
 BYTE   PATT
  POIN2 Label_7_017D31BF
// 017   ----------------------------------------
 BYTE   N01  Cn1  v112
 BYTE   N01  Fs1  v092
 BYTE   W06
 BYTE   En1
 BYTE   W06
 BYTE   Fs1
 BYTE   W12
 BYTE   Dn1  v112
 BYTE   N01  Fs1  v092
 BYTE   W12
 BYTE   Cn1  v112
 BYTE   N01  Fs1  v092
 BYTE   W06
 BYTE   Cn1  v112
 BYTE   W06
 BYTE   Fs1  v092
 BYTE   W12
 BYTE   N01
 BYTE   W06
 BYTE   Cn1  v112
 BYTE   W06
 BYTE   Dn1
 BYTE   N01  Fs1  v092
 BYTE   W12
 BYTE   Cn1  v112
 BYTE   N01  As1  v092
 BYTE   W06
 BYTE   Dn1  v112
 BYTE   W06
// 018   ----------------------------------------
 BYTE   Cn1
 BYTE   N01  Fs1  v092
 BYTE   N01  An2
 BYTE   W12
 BYTE   Fs1
 BYTE   W12
 BYTE   Dn1  v112
 BYTE   N01  Fs1  v092
 BYTE   W12
 BYTE   Cn1  v112
 BYTE   N01  Fs1  v092
 BYTE   W06
 BYTE   Cn1  v112
 BYTE   W06
 BYTE   Fs1  v092
 BYTE   W12
 BYTE   N01
 BYTE   W06
 BYTE   Cn1  v112
 BYTE   W06
 BYTE   Dn1
 BYTE   N01  Fs1  v092
 BYTE   W12
 BYTE   N01
 BYTE   W06
 BYTE   Cn1  v112
 BYTE   W06
// 019   ----------------------------------------
 BYTE   N01
 BYTE   N01  Dn1
 BYTE   N01  Fs1  v092
 BYTE   W12
 BYTE   N01
 BYTE   W12
 BYTE   Dn1  v112
 BYTE   N01  Fs1  v092
 BYTE   W12
 BYTE   Cn1  v112
 BYTE   N01  Fs1  v092
 BYTE   W06
 BYTE   Cn1  v112
 BYTE   W06
 BYTE   Fs1  v092
 BYTE   W06
 BYTE   Dn1  v112
 BYTE   W06
 BYTE   Cn1
 BYTE   N01  Fs1  v092
 BYTE   W12
 BYTE   Dn1  v112
 BYTE   N01  Fs1  v092
 BYTE   W06
 BYTE   Dn1  v112
 BYTE   W06
 BYTE   Cn1
 BYTE   N01  Fs1  v092
 BYTE   N01  Cn2  v112
 BYTE   W06
 BYTE   Cn1
 BYTE   W06
// 020   ----------------------------------------
 BYTE   N01
 BYTE   N01  Fs1  v092
 BYTE   N01  Cn2  v112
 BYTE   N01  Cs2  v092
 BYTE   W12
 BYTE   Fs1
 BYTE   W12
 BYTE   Dn1  v112
 BYTE   N01  Fs1  v092
 BYTE   W12
 BYTE   Cn1  v112
 BYTE   N01  Fs1  v092
 BYTE   W06
 BYTE   Cn1  v112
 BYTE   W06
 BYTE   Fs1  v092
 BYTE   W12
 BYTE   N01
 BYTE   W06
 BYTE   Cn1  v112
 BYTE   W06
 BYTE   Dn1
 BYTE   N01  Fs1  v092
 BYTE   W12
 BYTE   N01
 BYTE   W06
 BYTE   Cn1  v112
 BYTE   W06
// 021   ----------------------------------------
 BYTE   PATT
  POIN2 Label_7_017D3134
// 022   ----------------------------------------
 BYTE   N01  Cn1  v112
 BYTE   N01  Fs1  v092
 BYTE   W12
 BYTE   N01
 BYTE   W12
 BYTE   Dn1  v112
 BYTE   N01  Fs1  v092
 BYTE   W12
 BYTE   Cn1  v080
 BYTE   N01  Fs1  v092
 BYTE   W10
 BYTE   Dn1  v112
 BYTE   W02
 BYTE   N01
 BYTE   N01  Fs1  v092
 BYTE   W12
 BYTE   En1  v072
 BYTE   N01  Fs1  v092
 BYTE   W04
 BYTE   En1
 BYTE   W04
 BYTE   En1  v112
 BYTE   W04
 BYTE   Dn1
 BYTE   N01  Fs1  v092
 BYTE   W06
 BYTE   Dn1  v112
 BYTE   W06
 BYTE   Cn1
 BYTE   N01  As1  v092
 BYTE   W12
// 023   ----------------------------------------
 BYTE   Cn1  v112
 BYTE   N01  Cs2  v092
 BYTE   W36
 BYTE   Cn1
 BYTE   W12
 BYTE   Dn1  v112
 BYTE   N01  Fs1  v092
 BYTE   W06
 BYTE   Dn1  v112
 BYTE   W06
 BYTE   Cn1
 BYTE   N01  Fs1  v092
 BYTE   W06
 BYTE   Dn1  v112
 BYTE   W06
 BYTE   N01
 BYTE   N01  Fs1  v092
 BYTE   W06
 BYTE   Cn1  v112
 BYTE   W06
 BYTE   Dn1
 BYTE   N01  As1  v092
 BYTE   W06
 BYTE   Dn1  v112
 BYTE   W06
// 024   ----------------------------------------
 BYTE   Cn1
 BYTE   N01  Fs1  v092
 BYTE   N01  Cs2
 BYTE   W12
 BYTE   Fs1
 BYTE   W12
 BYTE   Dn1  v112
 BYTE   N01  Fs1  v092
 BYTE   W12
 BYTE   Cn1  v112
 BYTE   N01  Fs1  v092
 BYTE   W06
 BYTE   Cn1  v112
 BYTE   W06
 BYTE   Fs1  v092
 BYTE   W12
 BYTE   N01
 BYTE   W06
 BYTE   Cn1  v112
 BYTE   W06
 BYTE   Dn1
 BYTE   N01  Fs1  v092
 BYTE   W06
 BYTE   As1
 BYTE   W12
 BYTE   Cn1  v112
 BYTE   W06
// 025   ----------------------------------------
 BYTE   N01
 BYTE   N01  Fs1  v092
 BYTE   W12
 BYTE   N01
 BYTE   W12
 BYTE   Dn1  v112
 BYTE   N01  Fs1  v092
 BYTE   W12
 BYTE   Cn1  v112
 BYTE   N01  Fs1  v092
 BYTE   W06
 BYTE   Cn1  v112
 BYTE   W06
 BYTE   Fs1  v092
 BYTE   W12
 BYTE   N01
 BYTE   W06
 BYTE   Cn1  v112
 BYTE   W06
 BYTE   Dn1
 BYTE   N01  Fs1  v092
 BYTE   W12
 BYTE   Cn1  v112
 BYTE   N01  Fs1  v092
 BYTE   W06
 BYTE   En1  v080
 BYTE   W06
// 026   ----------------------------------------
 BYTE   PATT
  POIN2 Label_7_017D31F1
// 027   ----------------------------------------
 BYTE   N01  Cn1  v112
 BYTE   N01  Fs1  v092
 BYTE   W06
 BYTE   Dn1  v112
 BYTE   N01  Gn2  v092
 BYTE   W12
 BYTE   Dn1  v112
 BYTE   N01  Gn2  v092
 BYTE   W24
 BYTE   Cn1  v112
 BYTE   W06
 BYTE   Dn1
 BYTE   N01  Gn2  v092
 BYTE   W12
 BYTE   En1  v052
 BYTE   N01  Cn2  v112
 BYTE   W04
 BYTE   En1  v072
 BYTE   W04
 BYTE   En1  v092
 BYTE   W04
 BYTE   Dn1  v112
 BYTE   W06
 BYTE   N01
 BYTE   W06
 BYTE   Gn1
 BYTE   W12
// 028   ----------------------------------------
 BYTE   GoTo
  POIN2 Label_7_017D30FE
 BYTE   FINE

//******************************************************//
	ALIGN 4

song03A4:
	BYTE	8	// NumTrks
	BYTE	0	// NumBlks
	BYTE	song03A4_pri	// Priority
	BYTE	song03A4_rev	// Reverb.
    
	POIN2	song03A4_grp
    
	POIN2	song03A4_001
	POIN2	song03A4_002
	POIN2	song03A4_003
	POIN2	song03A4_004
	POIN2	song03A4_005
	POIN2	song03A4_006
	POIN2	song03A4_007
	POIN2	song03A4_008

	
