//Event file generated from Sappy .s format.
	#include "MPlayDef.event"

	#define	song01B5_grp  voicegroup001
	#define	song01B5_pri  0
	#define	song01B5_rev  0
	#define	song01B5_mvl  127
	#define	song01B5_key  0
	#define	song01B5_tbs  1
	#define	song01B5_exg  0
	#define	song01B5_cmp  1

	// .rodata
	//	song01B5
	ALIGN 4


//**************** Track 1 (Midi-Chn.0) ****************//

song01B5_001:
// 000   ----------------------------------------
 BYTE   KEYSH   song01B5_key+0
 BYTE   TEMPO   136*song01B5_tbs/2
 BYTE   VOICE   49
 BYTE   VOL   22*song01B5_mvl/mxv
 BYTE   PAN   c_v-4
 BYTE   MOD 0
 BYTE   CnM2  v005
 BYTE   BEND   c_v+0
 BYTE   W96
// 001   ----------------------------------------
Label_0_0138CC78:
 BYTE   N32  Cn4  v127
 BYTE   W36
 BYTE   N22  Bn3
 BYTE   W24
 BYTE   N11  An3
 BYTE   W12
 BYTE   Gn3
 BYTE   W12
 BYTE   An3
 BYTE   W12
 BYTE   PEND 
// 002   ----------------------------------------
 BYTE   N92  En3
 BYTE   W96
// 003   ----------------------------------------
Label_0_0138CC8A:
 BYTE   N32  Cn4  v127
 BYTE   W36
 BYTE   N22  Bn3
 BYTE   W24
 BYTE   Cn4
 BYTE   W24
 BYTE   N11  Dn4
 BYTE   W12
 BYTE   PEND 
// 004   ----------------------------------------
 BYTE   N92  An3
 BYTE   W96
// 005   ----------------------------------------
Label_0_0138CC9A:
 BYTE   N36  An3  v127
 BYTE   W48
 BYTE   N16
 BYTE   W18
 BYTE   Gn3
 BYTE   W18
 BYTE   N10  An3
 BYTE   W12
 BYTE   PEND 
// 006   ----------------------------------------
Label_0_0138CCA6:
 BYTE   N44  Bn3  v127
 BYTE   W48
 BYTE   Gn3
 BYTE   W48
 BYTE   PEND 
// 007   ----------------------------------------
 BYTE   TIE  An3
 BYTE   W96
// 008   ----------------------------------------
 BYTE   W88
 BYTE   W01
 BYTE   EOT
 BYTE   W07
// 009   ----------------------------------------
 BYTE   PATT
  POIN2 Label_0_0138CC78
// 010   ----------------------------------------
 BYTE   N92  En3  v127
 BYTE   W96
// 011   ----------------------------------------
 BYTE   PATT
  POIN2 Label_0_0138CC8A
// 012   ----------------------------------------
 BYTE   N92  An3  v127
 BYTE   W96
// 013   ----------------------------------------
 BYTE   PATT
  POIN2 Label_0_0138CC9A
// 014   ----------------------------------------
 BYTE   PATT
  POIN2 Label_0_0138CCA6
// 015   ----------------------------------------
 BYTE   TIE  An3  v127
 BYTE   W96
// 016   ----------------------------------------
 BYTE   W88
 BYTE   W01
 BYTE   EOT
 BYTE   W07
// 017   ----------------------------------------
 BYTE   W96
// 018   ----------------------------------------
 BYTE   W96
// 019   ----------------------------------------
 BYTE   W96
// 020   ----------------------------------------
 BYTE   W96
// 021   ----------------------------------------
 BYTE   W96
// 022   ----------------------------------------
 BYTE   W96
// 023   ----------------------------------------
 BYTE   W96
// 024   ----------------------------------------
 BYTE   W96
// 025   ----------------------------------------
 BYTE   W96
// 026   ----------------------------------------
 BYTE   W96
// 027   ----------------------------------------
 BYTE   W96
// 028   ----------------------------------------
 BYTE   W96
// 029   ----------------------------------------
 BYTE   W96
// 030   ----------------------------------------
 BYTE   W96
// 031   ----------------------------------------
 BYTE   W96
// 032   ----------------------------------------
 BYTE   W96
// 033   ----------------------------------------
 BYTE   W96
// 034   ----------------------------------------
 BYTE   W96
// 035   ----------------------------------------
 BYTE   W96
// 036   ----------------------------------------
 BYTE   W96
// 037   ----------------------------------------
 BYTE   W96
// 038   ----------------------------------------
 BYTE   W96
// 039   ----------------------------------------
 BYTE   W96
// 040   ----------------------------------------
 BYTE   N32  Cn4  v120
 BYTE   W36
 BYTE   N23  An3
 BYTE   W24
 BYTE   Bn3
 BYTE   W24
 BYTE   N11  Cn4
 BYTE   W12
// 041   ----------------------------------------
 BYTE   N32  Dn4
 BYTE   W36
 BYTE   An3
 BYTE   W36
 BYTE   N23  Dn4
 BYTE   W24
// 042   ----------------------------------------
 BYTE   N32  Bn3
 BYTE   W36
 BYTE   N23  En3
 BYTE   W24
 BYTE   Fs3
 BYTE   W24
 BYTE   N11  Gn3
 BYTE   W12
// 043   ----------------------------------------
 BYTE   N92  An3
 BYTE   W96
// 044   ----------------------------------------
 BYTE   N17
 BYTE   W18
 BYTE   Ds3
 BYTE   W18
 BYTE   N11  En3
 BYTE   W12
 BYTE   N17  Fs3
 BYTE   W18
 BYTE   Gn3
 BYTE   W18
 BYTE   N11  An3
 BYTE   W12
// 045   ----------------------------------------
 BYTE   N44  Bn3
 BYTE   W48
 BYTE   En4
 BYTE   W48
// 046   ----------------------------------------
 BYTE   N17  Ds4
 BYTE   W18
 BYTE   Dn4
 BYTE   W18
 BYTE   N11  Cn4
 BYTE   W12
 BYTE   N17  Ds4
 BYTE   W18
 BYTE   Dn4
 BYTE   W18
 BYTE   N11  Cn4
 BYTE   W12
// 047   ----------------------------------------
 BYTE   N17  Fn4
 BYTE   W18
 BYTE   Ds4
 BYTE   W18
 BYTE   N11  Dn4
 BYTE   W12
 BYTE   N17  Fn4
 BYTE   W18
 BYTE   Ds4
 BYTE   W18
 BYTE   N11  Dn4
 BYTE   W12
// 048   ----------------------------------------
 BYTE   W96
// 049   ----------------------------------------
 BYTE   W96
// 050   ----------------------------------------
 BYTE   W96
// 051   ----------------------------------------
 BYTE   W96
// 052   ----------------------------------------
 BYTE   W96
// 053   ----------------------------------------
 BYTE   W96
// 054   ----------------------------------------
 BYTE   W96
// 055   ----------------------------------------
 BYTE   W96
// 056   ----------------------------------------
 BYTE   W96
// 057   ----------------------------------------
 BYTE   W96
// 058   ----------------------------------------
 BYTE   W96
// 059   ----------------------------------------
 BYTE   W96
// 060   ----------------------------------------
 BYTE   W96
// 061   ----------------------------------------
 BYTE   W96
// 062   ----------------------------------------
 BYTE   W96
// 063   ----------------------------------------
 BYTE   W96
// 064   ----------------------------------------
 BYTE   W96
// 065   ----------------------------------------
 BYTE   W96
// 066   ----------------------------------------
 BYTE   W96
// 067   ----------------------------------------
 BYTE   W96
// 068   ----------------------------------------
 BYTE   W96
// 069   ----------------------------------------
 BYTE   W96
// 070   ----------------------------------------
 BYTE   W96
// 071   ----------------------------------------
 BYTE   W96
// 072   ----------------------------------------
 BYTE   W04
 BYTE   GoTo
  POIN2 Label_0_0138CC78
 BYTE   FINE

//**************** Track 2 (Midi-Chn.1) ****************//

song01B5_002:
// 000   ----------------------------------------
 BYTE   KEYSH   song01B5_key+0
 BYTE   VOICE   49
 BYTE   PAN   c_v+3
 BYTE   VOL   25*song01B5_mvl/mxv
 BYTE   PAN   c_v-4
 BYTE   VOL   22*song01B5_mvl/mxv
 BYTE   W96
// 001   ----------------------------------------
Label_1_0138CD71:
 BYTE   W96
// 002   ----------------------------------------
 BYTE   W96
// 003   ----------------------------------------
 BYTE   W96
// 004   ----------------------------------------
 BYTE   W96
// 005   ----------------------------------------
 BYTE   W96
// 006   ----------------------------------------
 BYTE   W96
// 007   ----------------------------------------
 BYTE   W96
// 008   ----------------------------------------
 BYTE   W96
// 009   ----------------------------------------
 BYTE   W96
// 010   ----------------------------------------
 BYTE   W96
// 011   ----------------------------------------
 BYTE   W96
// 012   ----------------------------------------
 BYTE   W96
// 013   ----------------------------------------
 BYTE   W96
// 014   ----------------------------------------
 BYTE   W96
// 015   ----------------------------------------
 BYTE   W96
// 016   ----------------------------------------
 BYTE   W96
// 017   ----------------------------------------
 BYTE   N32  Cn4  v108
 BYTE   W36
 BYTE   N23  An3
 BYTE   W24
 BYTE   Bn3
 BYTE   W24
 BYTE   N11  Cn4
 BYTE   W12
// 018   ----------------------------------------
 BYTE   N32  Dn4
 BYTE   W36
 BYTE   An3
 BYTE   W36
 BYTE   N23  Dn4
 BYTE   W24
// 019   ----------------------------------------
 BYTE   N32  Bn3
 BYTE   W36
 BYTE   N23  En3
 BYTE   W24
 BYTE   Fs3
 BYTE   W24
 BYTE   N11  Gn3
 BYTE   W12
// 020   ----------------------------------------
 BYTE   N92  An3
 BYTE   W96
// 021   ----------------------------------------
 BYTE   N17
 BYTE   W18
 BYTE   Ds3
 BYTE   W18
 BYTE   N11  En3
 BYTE   W12
 BYTE   N17  Fs3
 BYTE   W18
 BYTE   Gn3
 BYTE   W18
 BYTE   N11  An3
 BYTE   W12
// 022   ----------------------------------------
 BYTE   N44  Bn3
 BYTE   W48
 BYTE   En4
 BYTE   W48
// 023   ----------------------------------------
 BYTE   N17  Ds4
 BYTE   W18
 BYTE   Dn4
 BYTE   W18
 BYTE   N11  Cn4
 BYTE   W12
 BYTE   N17  Ds4
 BYTE   W18
 BYTE   Dn4
 BYTE   W18
 BYTE   N11  Cn4
 BYTE   W12
// 024   ----------------------------------------
 BYTE   N17  Fn4
 BYTE   W18
 BYTE   Ds4
 BYTE   W18
 BYTE   N11  Dn4
 BYTE   W12
 BYTE   N17  Fn4
 BYTE   W18
 BYTE   Ds4
 BYTE   W18
 BYTE   N11  Dn4
 BYTE   W12
// 025   ----------------------------------------
 BYTE   W96
// 026   ----------------------------------------
 BYTE   W96
// 027   ----------------------------------------
 BYTE   W96
// 028   ----------------------------------------
 BYTE   W96
// 029   ----------------------------------------
 BYTE   W96
// 030   ----------------------------------------
 BYTE   W96
// 031   ----------------------------------------
 BYTE   W96
// 032   ----------------------------------------
Label_1_0138CDDE:
 BYTE   N03  Fs4  v088
 BYTE   W12
 BYTE   N03
 BYTE   W12
 BYTE   N03
 BYTE   W06
 BYTE   N03
 BYTE   W12
 BYTE   N03
 BYTE   W12
 BYTE   N03
 BYTE   W12
 BYTE   N03
 BYTE   W06
 BYTE   N03
 BYTE   W12
 BYTE   N03
 BYTE   W12
 BYTE   PEND 
// 033   ----------------------------------------
Label_1_0138CDF3:
 BYTE   N03  Fs4  v088
 BYTE   W12
 BYTE   N03
 BYTE   W12
 BYTE   N03
 BYTE   W06
 BYTE   N03
 BYTE   W12
 BYTE   N03
 BYTE   W12
 BYTE   N03
 BYTE   W06
 BYTE   N03
 BYTE   W12
 BYTE   N03
 BYTE   W06
 BYTE   N03
 BYTE   W12
 BYTE   N03
 BYTE   W06
 BYTE   PEND 
// 034   ----------------------------------------
 BYTE   PATT
  POIN2 Label_1_0138CDDE
// 035   ----------------------------------------
 BYTE   PATT
  POIN2 Label_1_0138CDF3
// 036   ----------------------------------------
 BYTE   PATT
  POIN2 Label_1_0138CDDE
// 037   ----------------------------------------
 BYTE   PATT
  POIN2 Label_1_0138CDF3
// 038   ----------------------------------------
 BYTE   PATT
  POIN2 Label_1_0138CDDE
// 039   ----------------------------------------
 BYTE   PATT
  POIN2 Label_1_0138CDF3
// 040   ----------------------------------------
 BYTE   N32  An3  v084
 BYTE   W36
 BYTE   N23  Fn3
 BYTE   W24
 BYTE   Gn3
 BYTE   W24
 BYTE   N44  An3
 BYTE   W12
// 041   ----------------------------------------
 BYTE   W36
 BYTE   N32  Dn4
 BYTE   W36
 BYTE   N23  Fn4
 BYTE   W24
// 042   ----------------------------------------
 BYTE   N32  En4
 BYTE   W36
 BYTE   N56  Bn3
 BYTE   W60
// 043   ----------------------------------------
 BYTE   N44  Dn4
 BYTE   W48
 BYTE   N64  Fs4
 BYTE   W48
// 044   ----------------------------------------
 BYTE   W18
 BYTE   N17  Ds4
 BYTE   W18
 BYTE   N11  Cn4
 BYTE   W12
 BYTE   N17  Bn3
 BYTE   W18
 BYTE   An3
 BYTE   W18
 BYTE   N11  Bn3
 BYTE   W12
// 045   ----------------------------------------
 BYTE   N44  Gn3
 BYTE   W48
 BYTE   Bn3
 BYTE   W48
// 046   ----------------------------------------
 BYTE   N17  Cn4
 BYTE   W18
 BYTE   Bn3
 BYTE   W18
 BYTE   N11  An3
 BYTE   W12
 BYTE   N17  Cn4
 BYTE   W18
 BYTE   Bn3
 BYTE   W18
 BYTE   N11  An3
 BYTE   W12
// 047   ----------------------------------------
 BYTE   N17  Dn4
 BYTE   W18
 BYTE   Cn4
 BYTE   W18
 BYTE   N11  Bn3
 BYTE   W12
 BYTE   N17  Dn4
 BYTE   W18
 BYTE   Cn4
 BYTE   W18
 BYTE   N11  Bn3
 BYTE   W12
// 048   ----------------------------------------
Label_1_0138CE7B:
 BYTE   N32  Cn4  v112
 BYTE   W36
 BYTE   N23  Bn3
 BYTE   W24
 BYTE   N11  An3
 BYTE   W12
 BYTE   Gn3
 BYTE   W12
 BYTE   An3
 BYTE   W12
 BYTE   PEND 
// 049   ----------------------------------------
 BYTE   N92  En3
 BYTE   W96
// 050   ----------------------------------------
Label_1_0138CE8D:
 BYTE   N32  Cn4  v112
 BYTE   W36
 BYTE   N23  Bn3
 BYTE   W24
 BYTE   Cn4
 BYTE   W24
 BYTE   N11  Dn4
 BYTE   W12
 BYTE   PEND 
// 051   ----------------------------------------
 BYTE   N92  An3
 BYTE   W96
// 052   ----------------------------------------
Label_1_0138CE9D:
 BYTE   N44  An3  v112
 BYTE   W48
 BYTE   N17
 BYTE   W18
 BYTE   Gn3
 BYTE   W18
 BYTE   N11  An3
 BYTE   W12
 BYTE   PEND 
// 053   ----------------------------------------
Label_1_0138CEA9:
 BYTE   N44  Bn3  v112
 BYTE   W48
 BYTE   Gn3
 BYTE   W48
 BYTE   PEND 
// 054   ----------------------------------------
 BYTE   TIE  An3
 BYTE   W96
// 055   ----------------------------------------
 BYTE   W92
 BYTE   W02
 BYTE   EOT
 BYTE   W02
// 056   ----------------------------------------
 BYTE   PATT
  POIN2 Label_1_0138CE7B
// 057   ----------------------------------------
 BYTE   N92  En3  v112
 BYTE   W96
// 058   ----------------------------------------
 BYTE   PATT
  POIN2 Label_1_0138CE8D
// 059   ----------------------------------------
 BYTE   N92  An3  v112
 BYTE   W96
// 060   ----------------------------------------
 BYTE   PATT
  POIN2 Label_1_0138CE9D
// 061   ----------------------------------------
 BYTE   PATT
  POIN2 Label_1_0138CEA9
// 062   ----------------------------------------
 BYTE   TIE  An3  v112
 BYTE   W96
// 063   ----------------------------------------
 BYTE   W92
 BYTE   W02
 BYTE   EOT
 BYTE   W02
// 064   ----------------------------------------
Label_1_0138CEDB:
 BYTE   N03  Fs4  v104
 BYTE   W12
 BYTE   N03
 BYTE   W12
 BYTE   N03
 BYTE   W06
 BYTE   N03
 BYTE   W12
 BYTE   N03
 BYTE   W12
 BYTE   N03
 BYTE   W12
 BYTE   N03
 BYTE   W06
 BYTE   N03
 BYTE   W12
 BYTE   N03
 BYTE   W12
 BYTE   PEND 
// 065   ----------------------------------------
Label_1_0138CEF0:
 BYTE   N03  Fs4  v104
 BYTE   W12
 BYTE   N03
 BYTE   W12
 BYTE   N03
 BYTE   W06
 BYTE   N03
 BYTE   W12
 BYTE   N03
 BYTE   W12
 BYTE   N03
 BYTE   W06
 BYTE   N03
 BYTE   W12
 BYTE   N03
 BYTE   W06
 BYTE   N03
 BYTE   W12
 BYTE   N03
 BYTE   W06
 BYTE   PEND 
// 066   ----------------------------------------
 BYTE   PATT
  POIN2 Label_1_0138CEDB
// 067   ----------------------------------------
 BYTE   PATT
  POIN2 Label_1_0138CEF0
// 068   ----------------------------------------
 BYTE   PATT
  POIN2 Label_1_0138CEDB
// 069   ----------------------------------------
 BYTE   PATT
  POIN2 Label_1_0138CEF0
// 070   ----------------------------------------
 BYTE   PATT
  POIN2 Label_1_0138CEDB
// 071   ----------------------------------------
 BYTE   PATT
  POIN2 Label_1_0138CEF0
// 072   ----------------------------------------
 BYTE   W04
 BYTE   GoTo
  POIN2 Label_1_0138CD71
 BYTE   FINE

//**************** Track 3 (Midi-Chn.2) ****************//

song01B5_003:
// 000   ----------------------------------------
 BYTE   KEYSH   song01B5_key+0
 BYTE   VOICE   33
 BYTE   VOL   26*song01B5_mvl/mxv
 BYTE   PAN   c_v+0
 BYTE   BEND   c_v+0
 BYTE   W96
// 001   ----------------------------------------
Label_2_0138CF37:
 BYTE   N11  An0  v127
 BYTE   W12
 BYTE   N11
 BYTE   W12
 BYTE   N04  An1
 BYTE   W06
 BYTE   N11  An0
 BYTE   W12
 BYTE   Gn1
 BYTE   W12
 BYTE   N04  An0
 BYTE   W06
 BYTE   An1
 BYTE   W06
 BYTE   An0
 BYTE   W06
 BYTE   Gn1
 BYTE   W06
 BYTE   An0
 BYTE   W06
 BYTE   An1
 BYTE   W06
 BYTE   An0
 BYTE   W06
 BYTE   PEND 
// 002   ----------------------------------------
Label_2_0138CF55:
 BYTE   N11  An0  v127
 BYTE   W12
 BYTE   N11
 BYTE   W12
 BYTE   N04  An1
 BYTE   W06
 BYTE   N11  An0
 BYTE   W12
 BYTE   N11
 BYTE   W12
 BYTE   N04
 BYTE   W06
 BYTE   N11  An1
 BYTE   W12
 BYTE   Gn0
 BYTE   W12
 BYTE   Gn1
 BYTE   W12
 BYTE   PEND 
// 003   ----------------------------------------
Label_2_0138CF6D:
 BYTE   N11  Fn0  v127
 BYTE   W12
 BYTE   N11
 BYTE   W12
 BYTE   N04  Fn1
 BYTE   W06
 BYTE   N11  Fn0
 BYTE   W12
 BYTE   En1
 BYTE   W12
 BYTE   N04  Fn0
 BYTE   W06
 BYTE   Fn1
 BYTE   W06
 BYTE   Fn0
 BYTE   W06
 BYTE   N04
 BYTE   W06
 BYTE   Cn1
 BYTE   W06
 BYTE   Fn1
 BYTE   W06
 BYTE   Fn0
 BYTE   W06
 BYTE   PEND 
// 004   ----------------------------------------
Label_2_0138CF8B:
 BYTE   N11  Fn0  v127
 BYTE   W12
 BYTE   N11
 BYTE   W12
 BYTE   N04  Fn1
 BYTE   W06
 BYTE   N11  Fn0
 BYTE   W12
 BYTE   Cn1
 BYTE   W12
 BYTE   N04  Fn1
 BYTE   W06
 BYTE   N11  En0
 BYTE   W12
 BYTE   En1
 BYTE   W12
 BYTE   En0
 BYTE   W12
 BYTE   PEND 
// 005   ----------------------------------------
Label_2_0138CFA4:
 BYTE   N11  Dn1  v127
 BYTE   W12
 BYTE   An0
 BYTE   W12
 BYTE   Dn1
 BYTE   W12
 BYTE   An0
 BYTE   W12
 BYTE   Dn1
 BYTE   W12
 BYTE   An0
 BYTE   W12
 BYTE   Dn1
 BYTE   W12
 BYTE   An0
 BYTE   W12
 BYTE   PEND 
// 006   ----------------------------------------
Label_2_0138CFB7:
 BYTE   N11  En0  v127
 BYTE   W12
 BYTE   En1
 BYTE   W12
 BYTE   En0
 BYTE   W12
 BYTE   En1
 BYTE   W12
 BYTE   En0
 BYTE   W12
 BYTE   En1
 BYTE   W12
 BYTE   En0
 BYTE   W12
 BYTE   En1
 BYTE   W12
 BYTE   PEND 
// 007   ----------------------------------------
 BYTE   PATT
  POIN2 Label_2_0138CF37
// 008   ----------------------------------------
 BYTE   PATT
  POIN2 Label_2_0138CF37
// 009   ----------------------------------------
 BYTE   PATT
  POIN2 Label_2_0138CF37
// 010   ----------------------------------------
 BYTE   PATT
  POIN2 Label_2_0138CF55
// 011   ----------------------------------------
 BYTE   PATT
  POIN2 Label_2_0138CF6D
// 012   ----------------------------------------
 BYTE   PATT
  POIN2 Label_2_0138CF8B
// 013   ----------------------------------------
 BYTE   PATT
  POIN2 Label_2_0138CFA4
// 014   ----------------------------------------
 BYTE   PATT
  POIN2 Label_2_0138CFB7
// 015   ----------------------------------------
 BYTE   PATT
  POIN2 Label_2_0138CF37
// 016   ----------------------------------------
 BYTE   PATT
  POIN2 Label_2_0138CF37
// 017   ----------------------------------------
Label_2_0138CFFC:
 BYTE   N11  Fn0  v127
 BYTE   W12
 BYTE   N11
 BYTE   W12
 BYTE   N11
 BYTE   W12
 BYTE   N11
 BYTE   W12
 BYTE   Fn1
 BYTE   W12
 BYTE   Fn0
 BYTE   W12
 BYTE   Fn1
 BYTE   W12
 BYTE   Fn0
 BYTE   W12
 BYTE   PEND 
// 018   ----------------------------------------
 BYTE   PATT
  POIN2 Label_2_0138CFA4
// 019   ----------------------------------------
Label_2_0138D014:
 BYTE   N11  En0  v127
 BYTE   W12
 BYTE   N11
 BYTE   W12
 BYTE   N04  En1
 BYTE   W06
 BYTE   N11  En0
 BYTE   W12
 BYTE   Dn1
 BYTE   W12
 BYTE   N04  En0
 BYTE   W06
 BYTE   En1
 BYTE   W06
 BYTE   En0
 BYTE   W06
 BYTE   Dn1
 BYTE   W06
 BYTE   En0
 BYTE   W06
 BYTE   N11  En1
 BYTE   W12
 BYTE   PEND 
// 020   ----------------------------------------
 BYTE   PATT
  POIN2 Label_2_0138CFA4
// 021   ----------------------------------------
Label_2_0138D036:
 BYTE   N11  Ds0  v127
 BYTE   W12
 BYTE   N11
 BYTE   W12
 BYTE   N04  Ds1
 BYTE   W06
 BYTE   N11  Ds0
 BYTE   W12
 BYTE   N11
 BYTE   W12
 BYTE   N04
 BYTE   W06
 BYTE   N11  Ds1
 BYTE   W12
 BYTE   Ds0
 BYTE   W12
 BYTE   Ds1
 BYTE   W12
 BYTE   PEND 
// 022   ----------------------------------------
Label_2_0138D04E:
 BYTE   N11  En0  v127
 BYTE   W12
 BYTE   N11
 BYTE   W12
 BYTE   N04  En1
 BYTE   W06
 BYTE   N11  En0
 BYTE   W12
 BYTE   Dn1
 BYTE   W12
 BYTE   N04  En0
 BYTE   W06
 BYTE   N11  En1
 BYTE   W12
 BYTE   Dn1
 BYTE   W12
 BYTE   En1
 BYTE   W12
 BYTE   PEND 
// 023   ----------------------------------------
Label_2_0138D067:
 BYTE   N11  Ds1  v127
 BYTE   W12
 BYTE   Cn1
 BYTE   W12
 BYTE   An0
 BYTE   W12
 BYTE   Fs1
 BYTE   W12
 BYTE   Ds1
 BYTE   W12
 BYTE   Cn1
 BYTE   W12
 BYTE   An0
 BYTE   W12
 BYTE   Fs0
 BYTE   W12
 BYTE   PEND 
// 024   ----------------------------------------
Label_2_0138D07A:
 BYTE   N11  Fn1  v127
 BYTE   W12
 BYTE   Fn0
 BYTE   W12
 BYTE   Fn1
 BYTE   W12
 BYTE   Fn0
 BYTE   W12
 BYTE   Fn1
 BYTE   W12
 BYTE   Fn0
 BYTE   W12
 BYTE   Fn1
 BYTE   W12
 BYTE   Fn0
 BYTE   W12
 BYTE   PEND 
// 025   ----------------------------------------
 BYTE   An0
 BYTE   W12
 BYTE   N11
 BYTE   W12
 BYTE   N04  An1
 BYTE   W06
 BYTE   N11  An0
 BYTE   W12
 BYTE   Gn1
 BYTE   W12
 BYTE   N04  An0
 BYTE   W06
 BYTE   An1
 BYTE   W06
 BYTE   An0
 BYTE   W06
 BYTE   Gn1
 BYTE   W06
 BYTE   An0
 BYTE   W06
 BYTE   N11  An1
 BYTE   W12
// 026   ----------------------------------------
 BYTE   Fn0
 BYTE   W12
 BYTE   N11
 BYTE   W12
 BYTE   N04  Fn1
 BYTE   W06
 BYTE   N11  Fn0
 BYTE   W12
 BYTE   Cn1
 BYTE   W12
 BYTE   N04  Fn0
 BYTE   W06
 BYTE   Fn1
 BYTE   W06
 BYTE   Fn0
 BYTE   W06
 BYTE   Cn1
 BYTE   W06
 BYTE   Fn0
 BYTE   W06
 BYTE   N11  Fn1
 BYTE   W12
// 027   ----------------------------------------
 BYTE   Gn0
 BYTE   W12
 BYTE   N11
 BYTE   W12
 BYTE   N04  Gn1
 BYTE   W06
 BYTE   N11  Gn0
 BYTE   W12
 BYTE   Fn1
 BYTE   W12
 BYTE   N04  Gn0
 BYTE   W06
 BYTE   Gn1
 BYTE   W06
 BYTE   Gn0
 BYTE   W06
 BYTE   Dn1
 BYTE   W06
 BYTE   Gn1
 BYTE   W06
 BYTE   N11  Gn0
 BYTE   W12
// 028   ----------------------------------------
 BYTE   Gs0
 BYTE   W12
 BYTE   N11
 BYTE   W12
 BYTE   N11
 BYTE   W12
 BYTE   N11
 BYTE   W12
 BYTE   En0
 BYTE   W12
 BYTE   N11
 BYTE   W12
 BYTE   N11
 BYTE   W12
 BYTE   N11
 BYTE   W12
// 029   ----------------------------------------
Label_2_0138D0EB:
 BYTE   N11  An0  v127
 BYTE   W12
 BYTE   An1
 BYTE   W12
 BYTE   An0
 BYTE   W12
 BYTE   An1
 BYTE   W12
 BYTE   An0
 BYTE   W12
 BYTE   An1
 BYTE   W12
 BYTE   An0
 BYTE   W12
 BYTE   An1
 BYTE   W12
 BYTE   PEND 
// 030   ----------------------------------------
Label_2_0138D0FE:
 BYTE   N11  Fn0  v127
 BYTE   W12
 BYTE   Fn1
 BYTE   W12
 BYTE   Fn0
 BYTE   W12
 BYTE   Fn1
 BYTE   W12
 BYTE   Fn0
 BYTE   W12
 BYTE   Fn1
 BYTE   W12
 BYTE   Fn0
 BYTE   W12
 BYTE   Fn1
 BYTE   W12
 BYTE   PEND 
// 031   ----------------------------------------
 BYTE   Gn0
 BYTE   W12
 BYTE   Gn1
 BYTE   W12
 BYTE   Gn0
 BYTE   W12
 BYTE   Gn1
 BYTE   W12
 BYTE   Gn0
 BYTE   W12
 BYTE   Gn1
 BYTE   W12
 BYTE   Gn0
 BYTE   W12
 BYTE   Gn1
 BYTE   W12
// 032   ----------------------------------------
Label_2_0138D121:
 BYTE   N11  Fs0  v127
 BYTE   W12
 BYTE   En0
 BYTE   W12
 BYTE   N04  Fs0
 BYTE   W06
 BYTE   N11  En0
 BYTE   W12
 BYTE   Fs0
 BYTE   W12
 BYTE   N04
 BYTE   W06
 BYTE   N11  En0
 BYTE   W12
 BYTE   Fs0
 BYTE   W12
 BYTE   En0
 BYTE   W12
 BYTE   PEND 
// 033   ----------------------------------------
Label_2_0138D139:
 BYTE   N11  Fs0  v127
 BYTE   W12
 BYTE   N11
 BYTE   W12
 BYTE   N04  Fs1
 BYTE   W06
 BYTE   N11  Fs0
 BYTE   W12
 BYTE   N11
 BYTE   W12
 BYTE   N04
 BYTE   W06
 BYTE   N11  Fs1
 BYTE   W12
 BYTE   Fs0
 BYTE   W12
 BYTE   Fs1
 BYTE   W12
 BYTE   PEND 
// 034   ----------------------------------------
 BYTE   PATT
  POIN2 Label_2_0138D121
// 035   ----------------------------------------
 BYTE   PATT
  POIN2 Label_2_0138D139
// 036   ----------------------------------------
 BYTE   PATT
  POIN2 Label_2_0138D121
// 037   ----------------------------------------
 BYTE   PATT
  POIN2 Label_2_0138D139
// 038   ----------------------------------------
 BYTE   PATT
  POIN2 Label_2_0138D121
// 039   ----------------------------------------
 BYTE   PATT
  POIN2 Label_2_0138D139
// 040   ----------------------------------------
 BYTE   PATT
  POIN2 Label_2_0138CFFC
// 041   ----------------------------------------
 BYTE   PATT
  POIN2 Label_2_0138CFA4
// 042   ----------------------------------------
 BYTE   PATT
  POIN2 Label_2_0138D014
// 043   ----------------------------------------
 BYTE   PATT
  POIN2 Label_2_0138CFA4
// 044   ----------------------------------------
 BYTE   PATT
  POIN2 Label_2_0138D036
// 045   ----------------------------------------
 BYTE   PATT
  POIN2 Label_2_0138D04E
// 046   ----------------------------------------
 BYTE   PATT
  POIN2 Label_2_0138D067
// 047   ----------------------------------------
 BYTE   PATT
  POIN2 Label_2_0138D07A
// 048   ----------------------------------------
Label_2_0138D197:
 BYTE   N11  An0  v127
 BYTE   W12
 BYTE   En0
 BYTE   W12
 BYTE   An0
 BYTE   W12
 BYTE   En0
 BYTE   W12
 BYTE   An0
 BYTE   W12
 BYTE   En0
 BYTE   W12
 BYTE   An0
 BYTE   W12
 BYTE   En0
 BYTE   W12
 BYTE   PEND 
// 049   ----------------------------------------
 BYTE   PATT
  POIN2 Label_2_0138D197
// 050   ----------------------------------------
 BYTE   PATT
  POIN2 Label_2_0138D0FE
// 051   ----------------------------------------
 BYTE   PATT
  POIN2 Label_2_0138D0FE
// 052   ----------------------------------------
 BYTE   PATT
  POIN2 Label_2_0138CFA4
// 053   ----------------------------------------
 BYTE   PATT
  POIN2 Label_2_0138CFB7
// 054   ----------------------------------------
 BYTE   PATT
  POIN2 Label_2_0138D0EB
// 055   ----------------------------------------
 BYTE   PATT
  POIN2 Label_2_0138D0EB
// 056   ----------------------------------------
 BYTE   PATT
  POIN2 Label_2_0138D197
// 057   ----------------------------------------
 BYTE   PATT
  POIN2 Label_2_0138D197
// 058   ----------------------------------------
 BYTE   PATT
  POIN2 Label_2_0138D0FE
// 059   ----------------------------------------
 BYTE   PATT
  POIN2 Label_2_0138D0FE
// 060   ----------------------------------------
 BYTE   PATT
  POIN2 Label_2_0138CFA4
// 061   ----------------------------------------
 BYTE   PATT
  POIN2 Label_2_0138CFB7
// 062   ----------------------------------------
 BYTE   PATT
  POIN2 Label_2_0138D0EB
// 063   ----------------------------------------
 BYTE   PATT
  POIN2 Label_2_0138D0EB
// 064   ----------------------------------------
 BYTE   PATT
  POIN2 Label_2_0138D121
// 065   ----------------------------------------
 BYTE   PATT
  POIN2 Label_2_0138D139
// 066   ----------------------------------------
 BYTE   PATT
  POIN2 Label_2_0138D121
// 067   ----------------------------------------
 BYTE   PATT
  POIN2 Label_2_0138D139
// 068   ----------------------------------------
 BYTE   PATT
  POIN2 Label_2_0138D121
// 069   ----------------------------------------
 BYTE   PATT
  POIN2 Label_2_0138D139
// 070   ----------------------------------------
 BYTE   PATT
  POIN2 Label_2_0138D121
// 071   ----------------------------------------
 BYTE   N11  Fs0  v127
 BYTE   W12
 BYTE   N11
 BYTE   W12
 BYTE   N04  Fs1
 BYTE   W06
 BYTE   N11  Fs0
 BYTE   W12
 BYTE   N11
 BYTE   W12
 BYTE   N04
 BYTE   W06
 BYTE   N11  Fs1
 BYTE   W12
 BYTE   Fs0
 BYTE   W12
 BYTE   N10  Fs1
 BYTE   W12
// 072   ----------------------------------------
 BYTE   W04
 BYTE   GoTo
  POIN2 Label_2_0138CF37
 BYTE   FINE

//**************** Track 4 (Midi-Chn.3) ****************//

song01B5_004:
// 000   ----------------------------------------
 BYTE   KEYSH   song01B5_key+0
 BYTE   VOICE   50
 BYTE   VOL   25*song01B5_mvl/mxv
 BYTE   PAN   c_v-10
 BYTE   BEND   c_v+0
 BYTE   W96
// 001   ----------------------------------------
Label_3_0138D242:
 BYTE   W96
// 002   ----------------------------------------
 BYTE   W96
// 003   ----------------------------------------
 BYTE   W96
// 004   ----------------------------------------
 BYTE   W96
// 005   ----------------------------------------
 BYTE   W96
// 006   ----------------------------------------
 BYTE   W92
 BYTE   W03
 BYTE   W01
// 007   ----------------------------------------
 BYTE   TIE  En3  v104
 BYTE   TIE  An3
 BYTE   N92  Dn4
 BYTE   W01
 BYTE   W01
 BYTE   W01
 BYTE   W01
 BYTE   W01
 BYTE   W01
 BYTE   W01
 BYTE   W01
 BYTE   W01
 BYTE   W01
 BYTE   W01
 BYTE   W01
 BYTE   W01
 BYTE   W01
 BYTE   W01
 BYTE   W01
 BYTE   W01
 BYTE   W78
 BYTE   W01
// 008   ----------------------------------------
 BYTE   Cs4
 BYTE   W92
 BYTE   W02
 BYTE   EOT
 BYTE   En3  v079
 BYTE   W02
// 009   ----------------------------------------
 BYTE   W96
// 010   ----------------------------------------
 BYTE   W96
// 011   ----------------------------------------
 BYTE   W96
// 012   ----------------------------------------
 BYTE   W96
// 013   ----------------------------------------
 BYTE   W96
// 014   ----------------------------------------
 BYTE   W92
 BYTE   W03
 BYTE   W01
// 015   ----------------------------------------
 BYTE   TIE  En3  v112
 BYTE   TIE  An3
 BYTE   N92  Dn4
 BYTE   W01
 BYTE   W01
 BYTE   W01
 BYTE   W01
 BYTE   W01
 BYTE   W01
 BYTE   W01
 BYTE   W01
 BYTE   W01
 BYTE   W84
 BYTE   W03
// 016   ----------------------------------------
 BYTE   Cs4
 BYTE   W92
 BYTE   W02
 BYTE   EOT
 BYTE   En3  v079
 BYTE   W02
// 017   ----------------------------------------
 BYTE   N92  Fn2  v124
 BYTE   N92  An2
 BYTE   N92  Cn3
 BYTE   W96
// 018   ----------------------------------------
 BYTE   Fn2
 BYTE   N92  An2
 BYTE   N92  Dn3
 BYTE   W96
// 019   ----------------------------------------
Label_3_0138D29A:
 BYTE   N92  En2  v124
 BYTE   N92  Gn2
 BYTE   N92  Bn2
 BYTE   W96
 BYTE   PEND 
// 020   ----------------------------------------
 BYTE   Fs2
 BYTE   N92  An2
 BYTE   N92  Dn3
 BYTE   W96
// 021   ----------------------------------------
Label_3_0138D2A9:
 BYTE   N92  Fs2  v124
 BYTE   N92  An2
 BYTE   N92  Cn3
 BYTE   W96
 BYTE   PEND 
// 022   ----------------------------------------
 BYTE   PATT
  POIN2 Label_3_0138D29A
// 023   ----------------------------------------
 BYTE   PATT
  POIN2 Label_3_0138D2A9
// 024   ----------------------------------------
 BYTE   N92  Fn2  v124
 BYTE   N92  Gs2
 BYTE   N92  Bn2
 BYTE   W96
// 025   ----------------------------------------
Label_3_0138D2C4:
 BYTE   N92  En2  v120
 BYTE   N92  An2
 BYTE   N92  Cn3
 BYTE   W96
 BYTE   PEND 
// 026   ----------------------------------------
Label_3_0138D2CD:
 BYTE   N92  Fn2  v120
 BYTE   N92  An2
 BYTE   N92  Cn3
 BYTE   W96
 BYTE   PEND 
// 027   ----------------------------------------
 BYTE   Gn2
 BYTE   N92  Bn2
 BYTE   N92  Dn3
 BYTE   W96
// 028   ----------------------------------------
 BYTE   Gs2
 BYTE   N92  Bn2
 BYTE   N44  Dn3
 BYTE   W48
 BYTE   En3
 BYTE   W48
// 029   ----------------------------------------
 BYTE   PATT
  POIN2 Label_3_0138D2C4
// 030   ----------------------------------------
 BYTE   PATT
  POIN2 Label_3_0138D2CD
// 031   ----------------------------------------
 BYTE   N92  Dn2  v120
 BYTE   N92  Gn2
 BYTE   N92  Bn2
 BYTE   W96
// 032   ----------------------------------------
Label_3_0138D2F6:
 BYTE   N92  Fs2  v120
 BYTE   N92  An2
 BYTE   N92  Cs3
 BYTE   W96
 BYTE   PEND 
// 033   ----------------------------------------
Label_3_0138D2FF:
 BYTE   N92  En2  v120
 BYTE   N92  Gs2
 BYTE   N92  Bn2
 BYTE   W96
 BYTE   PEND 
// 034   ----------------------------------------
 BYTE   PATT
  POIN2 Label_3_0138D2F6
// 035   ----------------------------------------
Label_3_0138D30D:
 BYTE   N92  Fs2  v120
 BYTE   N92  An2
 BYTE   N92  Dn3
 BYTE   W96
 BYTE   PEND 
// 036   ----------------------------------------
 BYTE   PATT
  POIN2 Label_3_0138D2F6
// 037   ----------------------------------------
 BYTE   PATT
  POIN2 Label_3_0138D2FF
// 038   ----------------------------------------
 BYTE   PATT
  POIN2 Label_3_0138D2F6
// 039   ----------------------------------------
 BYTE   PATT
  POIN2 Label_3_0138D30D
// 040   ----------------------------------------
 BYTE   N92  Fn3  v100
 BYTE   N92  An3
 BYTE   N92  Cn4
 BYTE   W96
// 041   ----------------------------------------
 BYTE   Fn3
 BYTE   N92  An3
 BYTE   N92  Dn4
 BYTE   W96
// 042   ----------------------------------------
 BYTE   En3
 BYTE   N92  Gn3
 BYTE   N92  Bn3
 BYTE   W96
// 043   ----------------------------------------
 BYTE   Fs3
 BYTE   N92  An3
 BYTE   N92  Dn4
 BYTE   W96
// 044   ----------------------------------------
Label_3_0138D344:
 BYTE   N92  Fs3  v100
 BYTE   N92  An3
 BYTE   N92  Cn4
 BYTE   W96
 BYTE   PEND 
// 045   ----------------------------------------
 BYTE   En3
 BYTE   N92  Gn3
 BYTE   N92  Bn3
 BYTE   W96
// 046   ----------------------------------------
 BYTE   PATT
  POIN2 Label_3_0138D344
// 047   ----------------------------------------
 BYTE   N92  Fn3  v100
 BYTE   N92  Gs3
 BYTE   N92  Bn3
 BYTE   W96
// 048   ----------------------------------------
 BYTE   En2  v120
 BYTE   N92  An2
 BYTE   W96
// 049   ----------------------------------------
Label_3_0138D365:
 BYTE   N44  An2  v120
 BYTE   N44  Cn3
 BYTE   W48
 BYTE   Bn2
 BYTE   N44  Dn3
 BYTE   W48
 BYTE   PEND 
// 050   ----------------------------------------
 BYTE   N92  An2
 BYTE   N92  Cn3
 BYTE   W96
// 051   ----------------------------------------
Label_3_0138D375:
 BYTE   N44  Fn2  v120
 BYTE   N44  Cn3
 BYTE   W48
 BYTE   Gn2
 BYTE   N44  Bn2
 BYTE   W48
 BYTE   PEND 
// 052   ----------------------------------------
 BYTE   N92  An2
 BYTE   N92  Dn3
 BYTE   W96
// 053   ----------------------------------------
 BYTE   En2
 BYTE   N92  Gn2
 BYTE   W96
// 054   ----------------------------------------
Label_3_0138D389:
 BYTE   TIE  En2  v120
 BYTE   TIE  An2
 BYTE   W96
 BYTE   PEND 
// 055   ----------------------------------------
 BYTE   W92
 BYTE   W02
 BYTE   EOT
 BYTE   En2  v057
 BYTE   W02
// 056   ----------------------------------------
 BYTE   N92  En2
 BYTE   N92  An2
 BYTE   W96
// 057   ----------------------------------------
 BYTE   PATT
  POIN2 Label_3_0138D365
// 058   ----------------------------------------
 BYTE   N92  An2  v120
 BYTE   N92  Cn3
 BYTE   W96
// 059   ----------------------------------------
 BYTE   PATT
  POIN2 Label_3_0138D375
// 060   ----------------------------------------
 BYTE   N92  An2  v120
 BYTE   N92  Dn3
 BYTE   W96
// 061   ----------------------------------------
 BYTE   En2
 BYTE   N92  Gn2
 BYTE   W96
// 062   ----------------------------------------
 BYTE   PATT
  POIN2 Label_3_0138D389
// 063   ----------------------------------------
 BYTE   W92
 BYTE   W02
 BYTE   EOT
 BYTE   En2  v057
 BYTE   W02
// 064   ----------------------------------------
 BYTE   PATT
  POIN2 Label_3_0138D2F6
// 065   ----------------------------------------
 BYTE   PATT
  POIN2 Label_3_0138D2FF
// 066   ----------------------------------------
 BYTE   PATT
  POIN2 Label_3_0138D2F6
// 067   ----------------------------------------
 BYTE   PATT
  POIN2 Label_3_0138D30D
// 068   ----------------------------------------
 BYTE   PATT
  POIN2 Label_3_0138D2F6
// 069   ----------------------------------------
 BYTE   PATT
  POIN2 Label_3_0138D2FF
// 070   ----------------------------------------
 BYTE   PATT
  POIN2 Label_3_0138D2F6
// 071   ----------------------------------------
 BYTE   PATT
  POIN2 Label_3_0138D30D
// 072   ----------------------------------------
 BYTE   W04
 BYTE   GoTo
  POIN2 Label_3_0138D242
 BYTE   FINE

//**************** Track 5 (Midi-Chn.4) ****************//

song01B5_005:
// 000   ----------------------------------------
 BYTE   KEYSH   song01B5_key+0
 BYTE   VOICE   68
 BYTE   VOL   19*song01B5_mvl/mxv
 BYTE   PAN   c_v-10
 BYTE   BEND   c_v+0
 BYTE   W96
// 001   ----------------------------------------
Label_4_0138D3FA:
 BYTE   W96
// 002   ----------------------------------------
 BYTE   W96
// 003   ----------------------------------------
 BYTE   W96
// 004   ----------------------------------------
 BYTE   W96
// 005   ----------------------------------------
 BYTE   W96
// 006   ----------------------------------------
 BYTE   W96
// 007   ----------------------------------------
 BYTE   W96
// 008   ----------------------------------------
 BYTE   W96
// 009   ----------------------------------------
 BYTE   W96
// 010   ----------------------------------------
 BYTE   W96
// 011   ----------------------------------------
 BYTE   W96
// 012   ----------------------------------------
 BYTE   W96
// 013   ----------------------------------------
 BYTE   W96
// 014   ----------------------------------------
 BYTE   W96
// 015   ----------------------------------------
 BYTE   W96
// 016   ----------------------------------------
 BYTE   W96
// 017   ----------------------------------------
 BYTE   W96
// 018   ----------------------------------------
 BYTE   W96
// 019   ----------------------------------------
 BYTE   W96
// 020   ----------------------------------------
 BYTE   W96
// 021   ----------------------------------------
 BYTE   W96
// 022   ----------------------------------------
 BYTE   W96
// 023   ----------------------------------------
 BYTE   W96
// 024   ----------------------------------------
 BYTE   W96
// 025   ----------------------------------------
Label_4_0138D412:
 BYTE   N11  An3  v127
 BYTE   N11  Cn4
 BYTE   W12
 BYTE   Gn3
 BYTE   N11  Bn3
 BYTE   W12
 BYTE   An3
 BYTE   N11  Cn4
 BYTE   W12
 BYTE   Bn3
 BYTE   N11  Dn4
 BYTE   W12
 BYTE   N16  Cn4
 BYTE   N16  En4
 BYTE   W18
 BYTE   En3
 BYTE   N16  An3
 BYTE   W18
 BYTE   N10  Gn3
 BYTE   N10  Bn3
 BYTE   W12
 BYTE   PEND 
// 026   ----------------------------------------
 BYTE   PATT
  POIN2 Label_4_0138D412
// 027   ----------------------------------------
Label_4_0138D438:
 BYTE   N28  Bn3  v127
 BYTE   N28  Dn4
 BYTE   W36
 BYTE   N10  An3
 BYTE   N10  Cn4
 BYTE   W12
 BYTE   N16  Gn3
 BYTE   N16  Bn3
 BYTE   W18
 BYTE   An3
 BYTE   N16  Cn4
 BYTE   W18
 BYTE   N10  Bn3
 BYTE   N10  Dn4
 BYTE   W12
 BYTE   PEND 
// 028   ----------------------------------------
 BYTE   N64  Bn3
 BYTE   N28  Dn4
 BYTE   W36
 BYTE   En4
 BYTE   W36
 BYTE   N22  Gs3
 BYTE   N22  Bn3
 BYTE   W24
// 029   ----------------------------------------
 BYTE   PATT
  POIN2 Label_4_0138D412
// 030   ----------------------------------------
 BYTE   PATT
  POIN2 Label_4_0138D412
// 031   ----------------------------------------
 BYTE   PATT
  POIN2 Label_4_0138D438
// 032   ----------------------------------------
Label_4_0138D46D:
 BYTE   N28  An3  v127
 BYTE   N28  Cs4
 BYTE   W36
 BYTE   N54  Fs3
 BYTE   N54  An3
 BYTE   W60
 BYTE   PEND 
// 033   ----------------------------------------
Label_4_0138D479:
 BYTE   N28  Gs3  v127
 BYTE   N28  Bn3
 BYTE   W36
 BYTE   N54  En3
 BYTE   N54  Gs3
 BYTE   W60
 BYTE   PEND 
// 034   ----------------------------------------
Label_4_0138D485:
 BYTE   N28  An3  v127
 BYTE   N28  Cs4
 BYTE   W36
 BYTE   Fs3
 BYTE   N28  An3
 BYTE   W36
 BYTE   N22
 BYTE   N22  Cs4
 BYTE   W24
 BYTE   PEND 
// 035   ----------------------------------------
Label_4_0138D494:
 BYTE   N28  An3  v127
 BYTE   N28  Dn4
 BYTE   W36
 BYTE   N54  Fs3
 BYTE   N54  An3
 BYTE   W60
 BYTE   PEND 
// 036   ----------------------------------------
 BYTE   PATT
  POIN2 Label_4_0138D46D
// 037   ----------------------------------------
 BYTE   PATT
  POIN2 Label_4_0138D479
// 038   ----------------------------------------
 BYTE   PATT
  POIN2 Label_4_0138D485
// 039   ----------------------------------------
 BYTE   PATT
  POIN2 Label_4_0138D494
// 040   ----------------------------------------
 BYTE   W96
// 041   ----------------------------------------
 BYTE   W96
// 042   ----------------------------------------
 BYTE   W96
// 043   ----------------------------------------
 BYTE   W96
// 044   ----------------------------------------
 BYTE   W96
// 045   ----------------------------------------
 BYTE   W96
// 046   ----------------------------------------
 BYTE   W96
// 047   ----------------------------------------
 BYTE   W96
// 048   ----------------------------------------
 BYTE   W96
// 049   ----------------------------------------
 BYTE   W96
// 050   ----------------------------------------
 BYTE   W96
// 051   ----------------------------------------
 BYTE   W96
// 052   ----------------------------------------
 BYTE   W96
// 053   ----------------------------------------
 BYTE   W96
// 054   ----------------------------------------
 BYTE   W96
// 055   ----------------------------------------
 BYTE   W96
// 056   ----------------------------------------
 BYTE   N88  An3  v120
 BYTE   W96
// 057   ----------------------------------------
 BYTE   N44  Bn3
 BYTE   W48
 BYTE   Cn4
 BYTE   W48
// 058   ----------------------------------------
 BYTE   N32  Dn4
 BYTE   W36
 BYTE   N10  En4
 BYTE   W12
 BYTE   N16  Fn4
 BYTE   W18
 BYTE   En4
 BYTE   W18
 BYTE   N10  Dn4
 BYTE   W12
// 059   ----------------------------------------
 BYTE   N32  En4
 BYTE   W36
 BYTE   N56  An3
 BYTE   W60
// 060   ----------------------------------------
 BYTE   N36  Dn4
 BYTE   W48
 BYTE   N16
 BYTE   W18
 BYTE   Cn4
 BYTE   W18
 BYTE   N10  Dn4
 BYTE   W12
// 061   ----------------------------------------
 BYTE   N44  En4
 BYTE   W48
 BYTE   N36  Bn3
 BYTE   W48
// 062   ----------------------------------------
 BYTE   N88
 BYTE   W96
// 063   ----------------------------------------
 BYTE   Cs4
 BYTE   W96
// 064   ----------------------------------------
 BYTE   PATT
  POIN2 Label_4_0138D46D
// 065   ----------------------------------------
 BYTE   PATT
  POIN2 Label_4_0138D479
// 066   ----------------------------------------
 BYTE   PATT
  POIN2 Label_4_0138D485
// 067   ----------------------------------------
 BYTE   PATT
  POIN2 Label_4_0138D494
// 068   ----------------------------------------
 BYTE   PATT
  POIN2 Label_4_0138D46D
// 069   ----------------------------------------
 BYTE   PATT
  POIN2 Label_4_0138D479
// 070   ----------------------------------------
 BYTE   PATT
  POIN2 Label_4_0138D485
// 071   ----------------------------------------
 BYTE   PATT
  POIN2 Label_4_0138D494
// 072   ----------------------------------------
 BYTE   W04
 BYTE   GoTo
  POIN2 Label_4_0138D3FA
 BYTE   FINE

//**************** Track 6 (Midi-Chn.5) ****************//

song01B5_006:
// 000   ----------------------------------------
 BYTE   KEYSH   song01B5_key+0
 BYTE   VOICE   46
 BYTE   VOL   13*song01B5_mvl/mxv
 BYTE   PAN   c_v-40
 BYTE   BEND   c_v+0
 BYTE   W96
// 001   ----------------------------------------
Label_5_0138D52F:
 BYTE   W96
// 002   ----------------------------------------
 BYTE   W96
// 003   ----------------------------------------
 BYTE   W96
// 004   ----------------------------------------
 BYTE   W96
// 005   ----------------------------------------
 BYTE   W96
// 006   ----------------------------------------
 BYTE   W96
// 007   ----------------------------------------
 BYTE   W96
// 008   ----------------------------------------
 BYTE   W96
// 009   ----------------------------------------
 BYTE   W96
// 010   ----------------------------------------
 BYTE   W96
// 011   ----------------------------------------
 BYTE   W96
// 012   ----------------------------------------
 BYTE   W96
// 013   ----------------------------------------
 BYTE   W96
// 014   ----------------------------------------
 BYTE   W96
// 015   ----------------------------------------
 BYTE   W96
// 016   ----------------------------------------
 BYTE   W96
// 017   ----------------------------------------
 BYTE   W96
// 018   ----------------------------------------
 BYTE   W96
// 019   ----------------------------------------
 BYTE   W96
// 020   ----------------------------------------
 BYTE   W96
// 021   ----------------------------------------
 BYTE   W96
// 022   ----------------------------------------
 BYTE   W96
// 023   ----------------------------------------
 BYTE   W96
// 024   ----------------------------------------
 BYTE   W96
// 025   ----------------------------------------
 BYTE   W96
// 026   ----------------------------------------
 BYTE   W96
// 027   ----------------------------------------
 BYTE   W96
// 028   ----------------------------------------
 BYTE   W96
// 029   ----------------------------------------
 BYTE   W96
// 030   ----------------------------------------
 BYTE   W96
// 031   ----------------------------------------
 BYTE   W96
// 032   ----------------------------------------
 BYTE   W96
// 033   ----------------------------------------
 BYTE   W96
// 034   ----------------------------------------
 BYTE   W96
// 035   ----------------------------------------
 BYTE   W96
// 036   ----------------------------------------
 BYTE   W96
// 037   ----------------------------------------
 BYTE   W96
// 038   ----------------------------------------
 BYTE   W96
// 039   ----------------------------------------
 BYTE   W96
// 040   ----------------------------------------
 BYTE   W96
// 041   ----------------------------------------
 BYTE   W96
// 042   ----------------------------------------
 BYTE   W96
// 043   ----------------------------------------
 BYTE   W96
// 044   ----------------------------------------
 BYTE   W96
// 045   ----------------------------------------
 BYTE   W96
// 046   ----------------------------------------
 BYTE   W96
// 047   ----------------------------------------
 BYTE   W96
// 048   ----------------------------------------
Label_5_0138D55E:
 BYTE   N32  Cn5  v120
 BYTE   W36
 BYTE   N22  Bn4
 BYTE   W24
 BYTE   N11  An4
 BYTE   W12
 BYTE   Gn4
 BYTE   W12
 BYTE   An4
 BYTE   W12
 BYTE   PEND 
// 049   ----------------------------------------
 BYTE   N92  En4
 BYTE   W96
// 050   ----------------------------------------
Label_5_0138D570:
 BYTE   N32  Cn5  v120
 BYTE   W36
 BYTE   N22  Bn4
 BYTE   W24
 BYTE   Cn5
 BYTE   W24
 BYTE   N11  Dn5
 BYTE   W12
 BYTE   PEND 
// 051   ----------------------------------------
 BYTE   N92  An4
 BYTE   W96
// 052   ----------------------------------------
Label_5_0138D580:
 BYTE   N36  An4  v120
 BYTE   W48
 BYTE   N16
 BYTE   W18
 BYTE   Gn4
 BYTE   W18
 BYTE   N10  An4
 BYTE   W12
 BYTE   PEND 
// 053   ----------------------------------------
Label_5_0138D58C:
 BYTE   N44  Bn4  v120
 BYTE   W48
 BYTE   Gn4
 BYTE   W48
 BYTE   PEND 
// 054   ----------------------------------------
 BYTE   TIE  An4
 BYTE   W96
// 055   ----------------------------------------
 BYTE   W88
 BYTE   W01
 BYTE   EOT
 BYTE   W07
// 056   ----------------------------------------
 BYTE   PATT
  POIN2 Label_5_0138D55E
// 057   ----------------------------------------
 BYTE   N92  En4  v120
 BYTE   W96
// 058   ----------------------------------------
 BYTE   PATT
  POIN2 Label_5_0138D570
// 059   ----------------------------------------
 BYTE   N92  An4  v120
 BYTE   W96
// 060   ----------------------------------------
 BYTE   PATT
  POIN2 Label_5_0138D580
// 061   ----------------------------------------
 BYTE   PATT
  POIN2 Label_5_0138D58C
// 062   ----------------------------------------
 BYTE   TIE  An4  v120
 BYTE   W96
// 063   ----------------------------------------
 BYTE   W88
 BYTE   W01
 BYTE   EOT
 BYTE   W07
// 064   ----------------------------------------
Label_5_0138D5BE:
 BYTE   N04  Cs5  v127
 BYTE   W06
 BYTE   Fs4
 BYTE   W06
 BYTE   An4
 BYTE   W06
 BYTE   Cs5
 BYTE   W06
 BYTE   Fs5
 BYTE   W06
 BYTE   Cs5
 BYTE   W06
 BYTE   An4
 BYTE   W06
 BYTE   Fs4
 BYTE   W06
 BYTE   An5
 BYTE   W06
 BYTE   Gs5
 BYTE   W06
 BYTE   Fs5
 BYTE   W06
 BYTE   Cs5
 BYTE   W06
 BYTE   An4
 BYTE   W06
 BYTE   Gs4
 BYTE   W06
 BYTE   Fs4
 BYTE   W06
 BYTE   Cs4
 BYTE   W06
 BYTE   PEND 
// 065   ----------------------------------------
Label_5_0138D5E1:
 BYTE   N04  Bn4  v127
 BYTE   W06
 BYTE   En4
 BYTE   W06
 BYTE   Gs4
 BYTE   W06
 BYTE   Bn4
 BYTE   W06
 BYTE   En5
 BYTE   W06
 BYTE   Bn4
 BYTE   W06
 BYTE   Gs4
 BYTE   W06
 BYTE   En4
 BYTE   W06
 BYTE   Bn5
 BYTE   W06
 BYTE   Gs5
 BYTE   W06
 BYTE   En5
 BYTE   W06
 BYTE   Bn4
 BYTE   W06
 BYTE   Gs5
 BYTE   W06
 BYTE   En5
 BYTE   W06
 BYTE   Bn4
 BYTE   W06
 BYTE   Gs4
 BYTE   W06
 BYTE   PEND 
// 066   ----------------------------------------
 BYTE   PATT
  POIN2 Label_5_0138D5BE
// 067   ----------------------------------------
Label_5_0138D609:
 BYTE   N04  An4  v127
 BYTE   W06
 BYTE   Dn4
 BYTE   W06
 BYTE   Fs4
 BYTE   W06
 BYTE   An4
 BYTE   W06
 BYTE   Dn5
 BYTE   W06
 BYTE   An4
 BYTE   W06
 BYTE   Fs4
 BYTE   W06
 BYTE   An4
 BYTE   W06
 BYTE   Fs5
 BYTE   W06
 BYTE   Dn5
 BYTE   W06
 BYTE   An5
 BYTE   W06
 BYTE   Fs5
 BYTE   W06
 BYTE   Dn5
 BYTE   W06
 BYTE   An4
 BYTE   W06
 BYTE   Fs4
 BYTE   W06
 BYTE   Dn4
 BYTE   W06
 BYTE   PEND 
// 068   ----------------------------------------
 BYTE   PATT
  POIN2 Label_5_0138D5BE
// 069   ----------------------------------------
 BYTE   PATT
  POIN2 Label_5_0138D5E1
// 070   ----------------------------------------
 BYTE   PATT
  POIN2 Label_5_0138D5BE
// 071   ----------------------------------------
 BYTE   PATT
  POIN2 Label_5_0138D609
// 072   ----------------------------------------
 BYTE   W04
 BYTE   GoTo
  POIN2 Label_5_0138D52F
 BYTE   FINE

//**************** Track 7 (Midi-Chn.6) ****************//

song01B5_007:
// 000   ----------------------------------------
 BYTE   KEYSH   song01B5_key+0
 BYTE   VOICE   41
 BYTE   VOL   17*song01B5_mvl/mxv
 BYTE   PAN   c_v-30
 BYTE   BEND   c_v+0
 BYTE   W96
// 001   ----------------------------------------
Label_6_0138D652:
 BYTE   W96
// 002   ----------------------------------------
 BYTE   W96
// 003   ----------------------------------------
 BYTE   W96
// 004   ----------------------------------------
 BYTE   W96
// 005   ----------------------------------------
 BYTE   W96
// 006   ----------------------------------------
 BYTE   W96
// 007   ----------------------------------------
 BYTE   W96
// 008   ----------------------------------------
 BYTE   W96
// 009   ----------------------------------------
 BYTE   W96
// 010   ----------------------------------------
 BYTE   W96
// 011   ----------------------------------------
 BYTE   W96
// 012   ----------------------------------------
 BYTE   W96
// 013   ----------------------------------------
 BYTE   W96
// 014   ----------------------------------------
 BYTE   W96
// 015   ----------------------------------------
 BYTE   W96
// 016   ----------------------------------------
 BYTE   W96
// 017   ----------------------------------------
 BYTE   W96
// 018   ----------------------------------------
 BYTE   W96
// 019   ----------------------------------------
 BYTE   W96
// 020   ----------------------------------------
 BYTE   W96
// 021   ----------------------------------------
 BYTE   W96
// 022   ----------------------------------------
 BYTE   W96
// 023   ----------------------------------------
 BYTE   W96
// 024   ----------------------------------------
 BYTE   W96
// 025   ----------------------------------------
 BYTE   W96
// 026   ----------------------------------------
 BYTE   W96
// 027   ----------------------------------------
 BYTE   W96
// 028   ----------------------------------------
 BYTE   W96
// 029   ----------------------------------------
 BYTE   W96
// 030   ----------------------------------------
 BYTE   W96
// 031   ----------------------------------------
 BYTE   W96
// 032   ----------------------------------------
 BYTE   W96
// 033   ----------------------------------------
 BYTE   W96
// 034   ----------------------------------------
 BYTE   W96
// 035   ----------------------------------------
 BYTE   W96
// 036   ----------------------------------------
 BYTE   W96
// 037   ----------------------------------------
 BYTE   W96
// 038   ----------------------------------------
 BYTE   W96
// 039   ----------------------------------------
 BYTE   W96
// 040   ----------------------------------------
 BYTE   W96
// 041   ----------------------------------------
 BYTE   W96
// 042   ----------------------------------------
 BYTE   W96
// 043   ----------------------------------------
 BYTE   W96
// 044   ----------------------------------------
 BYTE   W96
// 045   ----------------------------------------
 BYTE   W96
// 046   ----------------------------------------
 BYTE   W96
// 047   ----------------------------------------
 BYTE   W96
// 048   ----------------------------------------
Label_6_0138D681:
 BYTE   N07  An3  v116
 BYTE   N07  Cn4
 BYTE   W12
 BYTE   An3
 BYTE   N07  Cn4
 BYTE   W12
 BYTE   An3
 BYTE   N07  Cn4
 BYTE   W12
 BYTE   An3
 BYTE   N07  Cn4
 BYTE   W12
 BYTE   An3
 BYTE   N07  Cn4
 BYTE   W12
 BYTE   An3
 BYTE   N07  Cn4
 BYTE   W12
 BYTE   An3
 BYTE   N07  Cn4
 BYTE   W12
 BYTE   An3
 BYTE   N07  Cn4
 BYTE   W12
 BYTE   PEND 
// 049   ----------------------------------------
 BYTE   PATT
  POIN2 Label_6_0138D681
// 050   ----------------------------------------
 BYTE   PATT
  POIN2 Label_6_0138D681
// 051   ----------------------------------------
 BYTE   PATT
  POIN2 Label_6_0138D681
// 052   ----------------------------------------
Label_6_0138D6B3:
 BYTE   N07  An3  v116
 BYTE   N07  Dn4
 BYTE   W12
 BYTE   An3
 BYTE   N07  Dn4
 BYTE   W12
 BYTE   An3
 BYTE   N07  Dn4
 BYTE   W12
 BYTE   An3
 BYTE   N07  Dn4
 BYTE   W12
 BYTE   An3
 BYTE   N07  Dn4
 BYTE   W12
 BYTE   An3
 BYTE   N07  Dn4
 BYTE   W12
 BYTE   An3
 BYTE   N07  Dn4
 BYTE   W12
 BYTE   An3
 BYTE   N07  Dn4
 BYTE   W12
 BYTE   PEND 
// 053   ----------------------------------------
Label_6_0138D6D6:
 BYTE   N07  Gn3  v116
 BYTE   N07  Bn3
 BYTE   W12
 BYTE   Gn3
 BYTE   N07  Bn3
 BYTE   W12
 BYTE   Gn3
 BYTE   N07  Bn3
 BYTE   W12
 BYTE   Gn3
 BYTE   N07  Bn3
 BYTE   W12
 BYTE   Gn3
 BYTE   N07  Bn3
 BYTE   W12
 BYTE   Gn3
 BYTE   N07  Bn3
 BYTE   W12
 BYTE   Gn3
 BYTE   N07  Bn3
 BYTE   W12
 BYTE   Gn3
 BYTE   N07  Bn3
 BYTE   W12
 BYTE   PEND 
// 054   ----------------------------------------
 BYTE   PATT
  POIN2 Label_6_0138D6B3
// 055   ----------------------------------------
Label_6_0138D6FE:
 BYTE   N07  An3  v116
 BYTE   N07  Cs4
 BYTE   W12
 BYTE   An3
 BYTE   N07  Cs4
 BYTE   W12
 BYTE   An3
 BYTE   N07  Cs4
 BYTE   W12
 BYTE   An3
 BYTE   N07  Cs4
 BYTE   W12
 BYTE   An3
 BYTE   N07  Cs4
 BYTE   W12
 BYTE   An3
 BYTE   N07  Cs4
 BYTE   W12
 BYTE   An3
 BYTE   N07  Cs4
 BYTE   W12
 BYTE   An3
 BYTE   N07  Cs4
 BYTE   W12
 BYTE   PEND 
// 056   ----------------------------------------
 BYTE   PATT
  POIN2 Label_6_0138D681
// 057   ----------------------------------------
 BYTE   PATT
  POIN2 Label_6_0138D681
// 058   ----------------------------------------
 BYTE   PATT
  POIN2 Label_6_0138D681
// 059   ----------------------------------------
 BYTE   PATT
  POIN2 Label_6_0138D681
// 060   ----------------------------------------
 BYTE   PATT
  POIN2 Label_6_0138D6B3
// 061   ----------------------------------------
 BYTE   PATT
  POIN2 Label_6_0138D6D6
// 062   ----------------------------------------
 BYTE   PATT
  POIN2 Label_6_0138D6B3
// 063   ----------------------------------------
 BYTE   PATT
  POIN2 Label_6_0138D6FE
// 064   ----------------------------------------
 BYTE   W96
// 065   ----------------------------------------
 BYTE   W96
// 066   ----------------------------------------
 BYTE   W96
// 067   ----------------------------------------
 BYTE   W96
// 068   ----------------------------------------
 BYTE   W96
// 069   ----------------------------------------
 BYTE   W96
// 070   ----------------------------------------
 BYTE   W96
// 071   ----------------------------------------
 BYTE   W96
// 072   ----------------------------------------
 BYTE   W04
 BYTE   GoTo
  POIN2 Label_6_0138D652
 BYTE   FINE

//**************** Track 8 (Midi-Chn.7) ****************//

song01B5_008:
// 000   ----------------------------------------
 BYTE   KEYSH   song01B5_key+0
 BYTE   VOICE   30
 BYTE   VOL   17*song01B5_mvl/mxv
 BYTE   PAN   c_v+10
 BYTE   BEND   c_v+0
 BYTE   W96
// 001   ----------------------------------------
Label_7_0138D763:
 BYTE   N09  An2  v127
 BYTE   W12
 BYTE   N09
 BYTE   W12
 BYTE   En3
 BYTE   N09  An3
 BYTE   W12
 BYTE   N04  An2
 BYTE   W06
 BYTE   N09  Dn3
 BYTE   N09  Gn3
 BYTE   W12
 BYTE   N04  An2
 BYTE   W06
 BYTE   En3
 BYTE   N04  An3
 BYTE   W06
 BYTE   An2
 BYTE   W06
 BYTE   Dn3
 BYTE   N04  Gn3
 BYTE   W06
 BYTE   An2
 BYTE   W06
 BYTE   En3
 BYTE   N04  An3
 BYTE   W06
 BYTE   An2
 BYTE   W06
 BYTE   PEND 
// 002   ----------------------------------------
 BYTE   PATT
  POIN2 Label_7_0138D763
// 003   ----------------------------------------
Label_7_0138D790:
 BYTE   N09  Fn2  v127
 BYTE   W12
 BYTE   N09
 BYTE   W12
 BYTE   Cn3
 BYTE   N09  Fn3
 BYTE   W12
 BYTE   N04  Fn2
 BYTE   W06
 BYTE   N09  Bn2
 BYTE   N09  En3
 BYTE   W12
 BYTE   N04  Fn2
 BYTE   W06
 BYTE   Cn3
 BYTE   N04  Fn3
 BYTE   W06
 BYTE   Fn2
 BYTE   W06
 BYTE   Bn2
 BYTE   N04  En3
 BYTE   W06
 BYTE   Fn2
 BYTE   W06
 BYTE   Cn3
 BYTE   N04  Fn3
 BYTE   W06
 BYTE   Fn2
 BYTE   W06
 BYTE   PEND 
// 004   ----------------------------------------
 BYTE   PATT
  POIN2 Label_7_0138D790
// 005   ----------------------------------------
Label_7_0138D7BD:
 BYTE   N09  Dn3  v127
 BYTE   W12
 BYTE   N09
 BYTE   W12
 BYTE   An3
 BYTE   N09  Dn4
 BYTE   W12
 BYTE   N04  Dn3
 BYTE   W06
 BYTE   N09  Gn3
 BYTE   N09  Cn4
 BYTE   W12
 BYTE   N04  Dn3
 BYTE   W06
 BYTE   An3
 BYTE   N04  Dn4
 BYTE   W06
 BYTE   Dn3
 BYTE   W06
 BYTE   Gn3
 BYTE   N04  Cn4
 BYTE   W06
 BYTE   Dn3
 BYTE   W06
 BYTE   An3
 BYTE   N04  Dn4
 BYTE   W06
 BYTE   Dn3
 BYTE   W06
 BYTE   PEND 
// 006   ----------------------------------------
Label_7_0138D7E5:
 BYTE   N09  En2  v127
 BYTE   W12
 BYTE   N09
 BYTE   W12
 BYTE   Bn2
 BYTE   N09  En3
 BYTE   W12
 BYTE   N04  En2
 BYTE   W06
 BYTE   N09  Bn3
 BYTE   N09  En4
 BYTE   W12
 BYTE   N04  En3
 BYTE   W06
 BYTE   An3
 BYTE   N04  Dn4
 BYTE   W06
 BYTE   En3
 BYTE   W06
 BYTE   Bn3
 BYTE   N04  En4
 BYTE   W06
 BYTE   En3
 BYTE   W06
 BYTE   An3
 BYTE   N04  Dn4
 BYTE   W06
 BYTE   En2
 BYTE   W06
 BYTE   PEND 
// 007   ----------------------------------------
 BYTE   PATT
  POIN2 Label_7_0138D763
// 008   ----------------------------------------
Label_7_0138D812:
 BYTE   N04  Cs4  v127
 BYTE   W06
 BYTE   Dn4
 BYTE   W06
 BYTE   Cs4
 BYTE   W06
 BYTE   An3
 BYTE   W06
 BYTE   En3
 BYTE   W06
 BYTE   Dn3
 BYTE   W06
 BYTE   Cs3
 BYTE   W06
 BYTE   An2
 BYTE   W06
 BYTE   An3
 BYTE   W06
 BYTE   En3
 BYTE   W06
 BYTE   Cs4
 BYTE   W06
 BYTE   An3
 BYTE   W06
 BYTE   En4
 BYTE   W06
 BYTE   Cs4
 BYTE   W06
 BYTE   An4
 BYTE   W06
 BYTE   En4
 BYTE   W06
 BYTE   PEND 
// 009   ----------------------------------------
 BYTE   PATT
  POIN2 Label_7_0138D763
// 010   ----------------------------------------
 BYTE   PATT
  POIN2 Label_7_0138D763
// 011   ----------------------------------------
 BYTE   PATT
  POIN2 Label_7_0138D790
// 012   ----------------------------------------
 BYTE   PATT
  POIN2 Label_7_0138D790
// 013   ----------------------------------------
 BYTE   PATT
  POIN2 Label_7_0138D7BD
// 014   ----------------------------------------
 BYTE   PATT
  POIN2 Label_7_0138D7E5
// 015   ----------------------------------------
 BYTE   PATT
  POIN2 Label_7_0138D763
// 016   ----------------------------------------
 BYTE   PATT
  POIN2 Label_7_0138D812
// 017   ----------------------------------------
 BYTE   W96
// 018   ----------------------------------------
 BYTE   W96
// 019   ----------------------------------------
 BYTE   W96
// 020   ----------------------------------------
 BYTE   W96
// 021   ----------------------------------------
 BYTE   W96
// 022   ----------------------------------------
 BYTE   W96
// 023   ----------------------------------------
 BYTE   W96
// 024   ----------------------------------------
 BYTE   W96
// 025   ----------------------------------------
 BYTE   W96
// 026   ----------------------------------------
 BYTE   W96
// 027   ----------------------------------------
 BYTE   W96
// 028   ----------------------------------------
 BYTE   W96
// 029   ----------------------------------------
 BYTE   W96
// 030   ----------------------------------------
 BYTE   W96
// 031   ----------------------------------------
 BYTE   W96
// 032   ----------------------------------------
 BYTE   W96
// 033   ----------------------------------------
 BYTE   W96
// 034   ----------------------------------------
 BYTE   W96
// 035   ----------------------------------------
 BYTE   W96
// 036   ----------------------------------------
 BYTE   W96
// 037   ----------------------------------------
 BYTE   W96
// 038   ----------------------------------------
 BYTE   W96
// 039   ----------------------------------------
 BYTE   W96
// 040   ----------------------------------------
 BYTE   W96
// 041   ----------------------------------------
 BYTE   W96
// 042   ----------------------------------------
 BYTE   W96
// 043   ----------------------------------------
 BYTE   W96
// 044   ----------------------------------------
 BYTE   W96
// 045   ----------------------------------------
 BYTE   W96
// 046   ----------------------------------------
 BYTE   W96
// 047   ----------------------------------------
 BYTE   W96
// 048   ----------------------------------------
 BYTE   W96
// 049   ----------------------------------------
 BYTE   W96
// 050   ----------------------------------------
 BYTE   W96
// 051   ----------------------------------------
 BYTE   W96
// 052   ----------------------------------------
 BYTE   W96
// 053   ----------------------------------------
 BYTE   W96
// 054   ----------------------------------------
 BYTE   W96
// 055   ----------------------------------------
 BYTE   W96
// 056   ----------------------------------------
 BYTE   W96
// 057   ----------------------------------------
 BYTE   W96
// 058   ----------------------------------------
 BYTE   W96
// 059   ----------------------------------------
 BYTE   W96
// 060   ----------------------------------------
 BYTE   W96
// 061   ----------------------------------------
 BYTE   W96
// 062   ----------------------------------------
 BYTE   W96
// 063   ----------------------------------------
 BYTE   W96
// 064   ----------------------------------------
 BYTE   W96
// 065   ----------------------------------------
 BYTE   W96
// 066   ----------------------------------------
 BYTE   W96
// 067   ----------------------------------------
 BYTE   W96
// 068   ----------------------------------------
 BYTE   W96
// 069   ----------------------------------------
 BYTE   W96
// 070   ----------------------------------------
 BYTE   W96
// 071   ----------------------------------------
 BYTE   W96
// 072   ----------------------------------------
 BYTE   W04
 BYTE   GoTo
  POIN2 Label_7_0138D763
 BYTE   FINE

//**************** Track 9 (Midi-Chn.8) ****************//

song01B5_009:
// 000   ----------------------------------------
 BYTE   KEYSH   song01B5_key+0
 BYTE   VOICE   36
 BYTE   VOL   20*song01B5_mvl/mxv
 BYTE   PAN   c_v-10
 BYTE   BEND   c_v+0
 BYTE   W96
// 001   ----------------------------------------
Label_8_0138D8A6:
 BYTE   N11  An1  v127
 BYTE   W12
 BYTE   N11
 BYTE   W12
 BYTE   N04  An2
 BYTE   W06
 BYTE   N11  An1
 BYTE   W12
 BYTE   Gn2
 BYTE   W12
 BYTE   N04  An1
 BYTE   W06
 BYTE   An2
 BYTE   W06
 BYTE   An1
 BYTE   W06
 BYTE   Gn2
 BYTE   W06
 BYTE   An1
 BYTE   W06
 BYTE   An2
 BYTE   W06
 BYTE   An1
 BYTE   W06
 BYTE   PEND 
// 002   ----------------------------------------
Label_8_0138D8C4:
 BYTE   N11  An1  v127
 BYTE   W12
 BYTE   N11
 BYTE   W12
 BYTE   N04  An2
 BYTE   W06
 BYTE   N11  An1
 BYTE   W12
 BYTE   N11
 BYTE   W12
 BYTE   N04
 BYTE   W06
 BYTE   N11  An2
 BYTE   W12
 BYTE   Gn1
 BYTE   W12
 BYTE   Gn2
 BYTE   W12
 BYTE   PEND 
// 003   ----------------------------------------
Label_8_0138D8DC:
 BYTE   N11  Fn1  v127
 BYTE   W12
 BYTE   N11
 BYTE   W12
 BYTE   N04  Fn2
 BYTE   W06
 BYTE   N11  Fn1
 BYTE   W12
 BYTE   En2
 BYTE   W12
 BYTE   N04  Fn1
 BYTE   W06
 BYTE   Fn2
 BYTE   W06
 BYTE   Fn1
 BYTE   W06
 BYTE   N04
 BYTE   W06
 BYTE   Cn2
 BYTE   W06
 BYTE   Fn2
 BYTE   W06
 BYTE   Fn1
 BYTE   W06
 BYTE   PEND 
// 004   ----------------------------------------
Label_8_0138D8FA:
 BYTE   N11  Fn1  v127
 BYTE   W12
 BYTE   N11
 BYTE   W12
 BYTE   N04  Fn2
 BYTE   W06
 BYTE   N11  Fn1
 BYTE   W12
 BYTE   Cn2
 BYTE   W12
 BYTE   N04  Fn2
 BYTE   W06
 BYTE   N11  En1
 BYTE   W12
 BYTE   En2
 BYTE   W12
 BYTE   En1
 BYTE   W12
 BYTE   PEND 
// 005   ----------------------------------------
Label_8_0138D913:
 BYTE   N11  Dn2  v127
 BYTE   W12
 BYTE   An1
 BYTE   W12
 BYTE   Dn2
 BYTE   W12
 BYTE   An1
 BYTE   W12
 BYTE   Dn2
 BYTE   W12
 BYTE   An1
 BYTE   W12
 BYTE   Dn2
 BYTE   W12
 BYTE   An1
 BYTE   W12
 BYTE   PEND 
// 006   ----------------------------------------
Label_8_0138D926:
 BYTE   N11  En1  v127
 BYTE   W12
 BYTE   En2
 BYTE   W12
 BYTE   En1
 BYTE   W12
 BYTE   En2
 BYTE   W12
 BYTE   En1
 BYTE   W12
 BYTE   En2
 BYTE   W12
 BYTE   En1
 BYTE   W12
 BYTE   En2
 BYTE   W12
 BYTE   PEND 
// 007   ----------------------------------------
 BYTE   PATT
  POIN2 Label_8_0138D8A6
// 008   ----------------------------------------
 BYTE   PATT
  POIN2 Label_8_0138D8A6
// 009   ----------------------------------------
 BYTE   PATT
  POIN2 Label_8_0138D8A6
// 010   ----------------------------------------
 BYTE   PATT
  POIN2 Label_8_0138D8C4
// 011   ----------------------------------------
 BYTE   PATT
  POIN2 Label_8_0138D8DC
// 012   ----------------------------------------
 BYTE   PATT
  POIN2 Label_8_0138D8FA
// 013   ----------------------------------------
 BYTE   PATT
  POIN2 Label_8_0138D913
// 014   ----------------------------------------
 BYTE   PATT
  POIN2 Label_8_0138D926
// 015   ----------------------------------------
 BYTE   PATT
  POIN2 Label_8_0138D8A6
// 016   ----------------------------------------
 BYTE   PATT
  POIN2 Label_8_0138D8A6
// 017   ----------------------------------------
Label_8_0138D96B:
 BYTE   N11  Fn1  v127
 BYTE   W12
 BYTE   N11
 BYTE   W12
 BYTE   N11
 BYTE   W12
 BYTE   N11
 BYTE   W12
 BYTE   Fn2
 BYTE   W12
 BYTE   Fn1
 BYTE   W12
 BYTE   Fn2
 BYTE   W12
 BYTE   Fn1
 BYTE   W12
 BYTE   PEND 
// 018   ----------------------------------------
 BYTE   PATT
  POIN2 Label_8_0138D913
// 019   ----------------------------------------
Label_8_0138D983:
 BYTE   N11  En1  v127
 BYTE   W12
 BYTE   N11
 BYTE   W12
 BYTE   N04  En2
 BYTE   W06
 BYTE   N11  En1
 BYTE   W12
 BYTE   Dn2
 BYTE   W12
 BYTE   N04  En1
 BYTE   W06
 BYTE   En2
 BYTE   W06
 BYTE   En1
 BYTE   W06
 BYTE   Dn2
 BYTE   W06
 BYTE   En1
 BYTE   W06
 BYTE   N11  En2
 BYTE   W12
 BYTE   PEND 
// 020   ----------------------------------------
 BYTE   PATT
  POIN2 Label_8_0138D913
// 021   ----------------------------------------
Label_8_0138D9A5:
 BYTE   N11  Ds1  v127
 BYTE   W12
 BYTE   N11
 BYTE   W12
 BYTE   N04  Ds2
 BYTE   W06
 BYTE   N11  Ds1
 BYTE   W12
 BYTE   N11
 BYTE   W12
 BYTE   N04
 BYTE   W06
 BYTE   N11  Ds2
 BYTE   W12
 BYTE   Ds1
 BYTE   W12
 BYTE   Ds2
 BYTE   W12
 BYTE   PEND 
// 022   ----------------------------------------
Label_8_0138D9BD:
 BYTE   N11  En1  v127
 BYTE   W12
 BYTE   N11
 BYTE   W12
 BYTE   N04  En2
 BYTE   W06
 BYTE   N11  En1
 BYTE   W12
 BYTE   Dn2
 BYTE   W12
 BYTE   N04  En1
 BYTE   W06
 BYTE   N11  En2
 BYTE   W12
 BYTE   Dn2
 BYTE   W12
 BYTE   En2
 BYTE   W12
 BYTE   PEND 
// 023   ----------------------------------------
Label_8_0138D9D6:
 BYTE   N11  Ds2  v127
 BYTE   W12
 BYTE   Cn2
 BYTE   W12
 BYTE   An1
 BYTE   W12
 BYTE   Fs2
 BYTE   W12
 BYTE   Ds2
 BYTE   W12
 BYTE   Cn2
 BYTE   W12
 BYTE   An1
 BYTE   W12
 BYTE   Fs1
 BYTE   W12
 BYTE   PEND 
// 024   ----------------------------------------
Label_8_0138D9E9:
 BYTE   N11  Fn2  v127
 BYTE   W12
 BYTE   Fn1
 BYTE   W12
 BYTE   Fn2
 BYTE   W12
 BYTE   Fn1
 BYTE   W12
 BYTE   Fn2
 BYTE   W12
 BYTE   Fn1
 BYTE   W12
 BYTE   Fn2
 BYTE   W12
 BYTE   Fn1
 BYTE   W12
 BYTE   PEND 
// 025   ----------------------------------------
 BYTE   An1
 BYTE   W12
 BYTE   N11
 BYTE   W12
 BYTE   N04  An2
 BYTE   W06
 BYTE   N11  An1
 BYTE   W12
 BYTE   Gn2
 BYTE   W12
 BYTE   N04  An1
 BYTE   W06
 BYTE   An2
 BYTE   W06
 BYTE   An1
 BYTE   W06
 BYTE   Gn2
 BYTE   W06
 BYTE   An1
 BYTE   W06
 BYTE   N11  An2
 BYTE   W12
// 026   ----------------------------------------
 BYTE   Fn1
 BYTE   W12
 BYTE   N11
 BYTE   W12
 BYTE   N04  Fn2
 BYTE   W06
 BYTE   N11  Fn1
 BYTE   W12
 BYTE   Cn2
 BYTE   W12
 BYTE   N04  Fn1
 BYTE   W06
 BYTE   Fn2
 BYTE   W06
 BYTE   Fn1
 BYTE   W06
 BYTE   Cn2
 BYTE   W06
 BYTE   Fn1
 BYTE   W06
 BYTE   N11  Fn2
 BYTE   W12
// 027   ----------------------------------------
 BYTE   Gn1
 BYTE   W12
 BYTE   N11
 BYTE   W12
 BYTE   N04  Gn2
 BYTE   W06
 BYTE   N11  Gn1
 BYTE   W12
 BYTE   Fn2
 BYTE   W12
 BYTE   N04  Gn1
 BYTE   W06
 BYTE   Gn2
 BYTE   W06
 BYTE   Gn1
 BYTE   W06
 BYTE   Dn2
 BYTE   W06
 BYTE   Gn2
 BYTE   W06
 BYTE   N11  Gn1
 BYTE   W12
// 028   ----------------------------------------
 BYTE   Gs1
 BYTE   W12
 BYTE   N11
 BYTE   W12
 BYTE   N11
 BYTE   W12
 BYTE   N11
 BYTE   W12
 BYTE   En1
 BYTE   W12
 BYTE   N11
 BYTE   W12
 BYTE   N11
 BYTE   W12
 BYTE   N11
 BYTE   W12
// 029   ----------------------------------------
Label_8_0138DA5A:
 BYTE   N11  An1  v127
 BYTE   W12
 BYTE   An2
 BYTE   W12
 BYTE   An1
 BYTE   W12
 BYTE   An2
 BYTE   W12
 BYTE   An1
 BYTE   W12
 BYTE   An2
 BYTE   W12
 BYTE   An1
 BYTE   W12
 BYTE   An2
 BYTE   W12
 BYTE   PEND 
// 030   ----------------------------------------
Label_8_0138DA6D:
 BYTE   N11  Fn1  v127
 BYTE   W12
 BYTE   Fn2
 BYTE   W12
 BYTE   Fn1
 BYTE   W12
 BYTE   Fn2
 BYTE   W12
 BYTE   Fn1
 BYTE   W12
 BYTE   Fn2
 BYTE   W12
 BYTE   Fn1
 BYTE   W12
 BYTE   Fn2
 BYTE   W12
 BYTE   PEND 
// 031   ----------------------------------------
 BYTE   Gn1
 BYTE   W12
 BYTE   Gn2
 BYTE   W12
 BYTE   Gn1
 BYTE   W12
 BYTE   Gn2
 BYTE   W12
 BYTE   Gn1
 BYTE   W12
 BYTE   Gn2
 BYTE   W12
 BYTE   Gn1
 BYTE   W12
 BYTE   Gn2
 BYTE   W12
// 032   ----------------------------------------
Label_8_0138DA90:
 BYTE   N11  Fs1  v127
 BYTE   W12
 BYTE   En1
 BYTE   W12
 BYTE   N04  Fs1
 BYTE   W06
 BYTE   N11  En1
 BYTE   W12
 BYTE   Fs1
 BYTE   W12
 BYTE   N04
 BYTE   W06
 BYTE   N11  En1
 BYTE   W12
 BYTE   Fs1
 BYTE   W12
 BYTE   En1
 BYTE   W12
 BYTE   PEND 
// 033   ----------------------------------------
Label_8_0138DAA8:
 BYTE   N11  Fs1  v127
 BYTE   W12
 BYTE   N11
 BYTE   W12
 BYTE   N04  Fs2
 BYTE   W06
 BYTE   N11  Fs1
 BYTE   W12
 BYTE   N11
 BYTE   W12
 BYTE   N04
 BYTE   W06
 BYTE   N11  Fs2
 BYTE   W12
 BYTE   Fs1
 BYTE   W12
 BYTE   Fs2
 BYTE   W12
 BYTE   PEND 
// 034   ----------------------------------------
 BYTE   PATT
  POIN2 Label_8_0138DA90
// 035   ----------------------------------------
 BYTE   PATT
  POIN2 Label_8_0138DAA8
// 036   ----------------------------------------
 BYTE   PATT
  POIN2 Label_8_0138DA90
// 037   ----------------------------------------
 BYTE   PATT
  POIN2 Label_8_0138DAA8
// 038   ----------------------------------------
 BYTE   PATT
  POIN2 Label_8_0138DA90
// 039   ----------------------------------------
 BYTE   PATT
  POIN2 Label_8_0138DAA8
// 040   ----------------------------------------
 BYTE   PATT
  POIN2 Label_8_0138D96B
// 041   ----------------------------------------
 BYTE   PATT
  POIN2 Label_8_0138D913
// 042   ----------------------------------------
 BYTE   PATT
  POIN2 Label_8_0138D983
// 043   ----------------------------------------
 BYTE   PATT
  POIN2 Label_8_0138D913
// 044   ----------------------------------------
 BYTE   PATT
  POIN2 Label_8_0138D9A5
// 045   ----------------------------------------
 BYTE   PATT
  POIN2 Label_8_0138D9BD
// 046   ----------------------------------------
 BYTE   PATT
  POIN2 Label_8_0138D9D6
// 047   ----------------------------------------
 BYTE   PATT
  POIN2 Label_8_0138D9E9
// 048   ----------------------------------------
Label_8_0138DB06:
 BYTE   N11  An1  v127
 BYTE   W12
 BYTE   En1
 BYTE   W12
 BYTE   An1
 BYTE   W12
 BYTE   En1
 BYTE   W12
 BYTE   An1
 BYTE   W12
 BYTE   En1
 BYTE   W12
 BYTE   An1
 BYTE   W12
 BYTE   En1
 BYTE   W12
 BYTE   PEND 
// 049   ----------------------------------------
 BYTE   PATT
  POIN2 Label_8_0138DB06
// 050   ----------------------------------------
 BYTE   PATT
  POIN2 Label_8_0138DA6D
// 051   ----------------------------------------
 BYTE   PATT
  POIN2 Label_8_0138DA6D
// 052   ----------------------------------------
 BYTE   PATT
  POIN2 Label_8_0138D913
// 053   ----------------------------------------
 BYTE   PATT
  POIN2 Label_8_0138D926
// 054   ----------------------------------------
 BYTE   PATT
  POIN2 Label_8_0138DA5A
// 055   ----------------------------------------
 BYTE   PATT
  POIN2 Label_8_0138DA5A
// 056   ----------------------------------------
 BYTE   PATT
  POIN2 Label_8_0138DB06
// 057   ----------------------------------------
 BYTE   PATT
  POIN2 Label_8_0138DB06
// 058   ----------------------------------------
 BYTE   PATT
  POIN2 Label_8_0138DA6D
// 059   ----------------------------------------
 BYTE   PATT
  POIN2 Label_8_0138DA6D
// 060   ----------------------------------------
 BYTE   PATT
  POIN2 Label_8_0138D913
// 061   ----------------------------------------
 BYTE   PATT
  POIN2 Label_8_0138D926
// 062   ----------------------------------------
 BYTE   PATT
  POIN2 Label_8_0138DA5A
// 063   ----------------------------------------
 BYTE   PATT
  POIN2 Label_8_0138DA5A
// 064   ----------------------------------------
 BYTE   PATT
  POIN2 Label_8_0138DA90
// 065   ----------------------------------------
 BYTE   PATT
  POIN2 Label_8_0138DAA8
// 066   ----------------------------------------
 BYTE   PATT
  POIN2 Label_8_0138DA90
// 067   ----------------------------------------
 BYTE   PATT
  POIN2 Label_8_0138DAA8
// 068   ----------------------------------------
 BYTE   PATT
  POIN2 Label_8_0138DA90
// 069   ----------------------------------------
 BYTE   PATT
  POIN2 Label_8_0138DAA8
// 070   ----------------------------------------
 BYTE   PATT
  POIN2 Label_8_0138DA90
// 071   ----------------------------------------
 BYTE   N11  Fs1  v127
 BYTE   W12
 BYTE   N11
 BYTE   W12
 BYTE   N04  Fs2
 BYTE   W06
 BYTE   N11  Fs1
 BYTE   W12
 BYTE   N11
 BYTE   W12
 BYTE   N04
 BYTE   W06
 BYTE   N11  Fs2
 BYTE   W12
 BYTE   Fs1
 BYTE   W12
 BYTE   N10  Fs2
 BYTE   W12
// 072   ----------------------------------------
 BYTE   W04
 BYTE   GoTo
  POIN2 Label_8_0138D8A6
 BYTE   FINE

//**************** Track 10 (Midi-Chn.9) ****************//

song01B5_010:
// 000   ----------------------------------------
 BYTE   KEYSH   song01B5_key+0
 BYTE   VOICE   124
 BYTE   VOL   28*song01B5_mvl/mxv
 BYTE   PAN   c_v+0
 BYTE   BEND   c_v+0
 BYTE   N10  Gs1  v127
 BYTE   W10
 BYTE   N13  Gs1  v060
 BYTE   W14
 BYTE   N09  Gs1  v127
 BYTE   W10
 BYTE   N13  Gs1  v060
 BYTE   W14
 BYTE   N11  Cn1  v088
 BYTE   N02  Bn1  v060
 BYTE   W02
 BYTE   Bn1  v127
 BYTE   W04
 BYTE   N01
 BYTE   W01
 BYTE   N02  Bn1  v032
 BYTE   W02
 BYTE   N01
 BYTE   W03
 BYTE   N04  An1  v112
 BYTE   W01
 BYTE   Bn1  v032
 BYTE   W05
 BYTE   N01  An1  v112
 BYTE   W01
 BYTE   N03  An1  v032
 BYTE   W05
 BYTE   N07  Cn1  v088
 BYTE   N04  Gn1  v100
 BYTE   W01
 BYTE   An1  v032
 BYTE   W05
 BYTE   N01  Gn1  v100
 BYTE   W01
 BYTE   N04  Cn1  v032
 BYTE   N03  Gn1
 BYTE   W05
 BYTE   N04  Fn1  v092
 BYTE   W01
 BYTE   Gn1  v032
 BYTE   W05
 BYTE   N01  Fn1  v092
 BYTE   W01
 BYTE   N04  Fn1  v032
 BYTE   W05
// 001   ----------------------------------------
Label_9_0138DC04:
 BYTE   N11  Cn1  v127
 BYTE   N92  Cs2  v100
 BYTE   W01
 BYTE   N03  Fn1  v032
 BYTE   W11
 BYTE   N11  Cn1  v127
 BYTE   N11  Ds2  v056
 BYTE   W12
 BYTE   Dn1  v112
 BYTE   N11  Ds2  v072
 BYTE   W12
 BYTE   N05  Cn1  v127
 BYTE   N05  Ds2  v056
 BYTE   W06
 BYTE   N11  Dn1  v112
 BYTE   N11  Ds2  v072
 BYTE   W12
 BYTE   N05  Dn1  v112
 BYTE   N05  Ds2  v056
 BYTE   W06
 BYTE   N11  Cn1  v127
 BYTE   N11  Ds2  v072
 BYTE   W12
 BYTE   Dn1  v112
 BYTE   N11  Ds2  v056
 BYTE   W12
 BYTE   Cn1  v127
 BYTE   N11  Ds2  v072
 BYTE   W12
// 002   ----------------------------------------
 BYTE   Cn1  v127
 BYTE   N11  Ds2  v072
 BYTE   W12
 BYTE   Cn1  v127
 BYTE   N11  Ds2  v056
 BYTE   W12
 BYTE   Dn1  v112
 BYTE   N11  Ds2  v072
 BYTE   W12
 BYTE   N05  Cn1  v127
 BYTE   N05  Ds2  v056
 BYTE   W06
 BYTE   N11  Dn1  v112
 BYTE   N11  Ds2  v072
 BYTE   W12
 BYTE   N05  Dn1  v112
 BYTE   N05  Ds2  v056
 BYTE   W06
 BYTE   N11  Cn1  v127
 BYTE   N11  Ds2  v072
 BYTE   W12
 BYTE   Dn1  v112
 BYTE   N04  Ds2  v056
 BYTE   W06
 BYTE   N04
 BYTE   W06
 BYTE   N11  Cn1  v127
 BYTE   N04  Ds2  v072
 BYTE   W06
 BYTE   N04
 BYTE   W06
// 003   ----------------------------------------
 BYTE   N11  Cn1  v127
 BYTE   N11  Ds2  v072
 BYTE   W12
 BYTE   Cn1  v127
 BYTE   N11  Ds2  v056
 BYTE   W12
 BYTE   Dn1  v112
 BYTE   N11  Ds2  v072
 BYTE   W12
 BYTE   N05  Cn1  v127
 BYTE   N05  Ds2  v056
 BYTE   W06
 BYTE   N11  Dn1  v112
 BYTE   N11  Ds2  v072
 BYTE   W12
 BYTE   N05  Dn1  v112
 BYTE   N05  Ds2  v056
 BYTE   W06
 BYTE   N11  Cn1  v127
 BYTE   N11  Ds2  v072
 BYTE   W12
 BYTE   Dn1  v112
 BYTE   N04  Ds2  v056
 BYTE   W06
 BYTE   N04
 BYTE   W06
 BYTE   N11  Cn1  v127
 BYTE   N11  Ds2  v072
 BYTE   W12
// 004   ----------------------------------------
 BYTE   Cn1  v127
 BYTE   N11  Ds2  v072
 BYTE   W12
 BYTE   Cn1  v127
 BYTE   N11  Ds2  v056
 BYTE   W12
 BYTE   Dn1  v112
 BYTE   N11  Ds2  v072
 BYTE   W12
 BYTE   N05  Cn1  v127
 BYTE   N05  Ds2  v056
 BYTE   W06
 BYTE   N11  Dn1  v112
 BYTE   N11  Ds2  v072
 BYTE   W12
 BYTE   N05  Dn1  v112
 BYTE   N05  Ds2  v056
 BYTE   W06
 BYTE   N11  Cn1  v127
 BYTE   N11  Ds2  v072
 BYTE   W12
 BYTE   N04  Dn1  v112
 BYTE   N11  Ds2  v056
 BYTE   W06
 BYTE   N04  Dn1  v112
 BYTE   W06
 BYTE   N11
 BYTE   N11  Ds2  v072
 BYTE   W12
// 005   ----------------------------------------
 BYTE   Cn1  v127
 BYTE   N11  Ds2  v072
 BYTE   W12
 BYTE   Ds2  v056
 BYTE   W12
 BYTE   N22  Dn1  v112
 BYTE   N11  Ds2  v072
 BYTE   W12
 BYTE   N05  Ds2  v056
 BYTE   W06
 BYTE   N11  Ds2  v072
 BYTE   W06
 BYTE   N09  Cn1  v127
 BYTE   W06
 BYTE   N05  Ds2  v056
 BYTE   W06
 BYTE   N11  Ds2  v072
 BYTE   W06
 BYTE   N04  Cn1  v127
 BYTE   W06
 BYTE   N22  Dn1  v112
 BYTE   N11  Ds2  v056
 BYTE   W12
 BYTE   Ds2  v072
 BYTE   W12
// 006   ----------------------------------------
Label_9_0138DD31:
 BYTE   N11  Cn1  v127
 BYTE   N11  Ds2  v072
 BYTE   W12
 BYTE   Ds2  v056
 BYTE   W12
 BYTE   N22  Dn1  v112
 BYTE   N11  Ds2  v072
 BYTE   W12
 BYTE   N05  Ds2  v056
 BYTE   W06
 BYTE   N11  Ds2  v072
 BYTE   W06
 BYTE   N09  Cn1  v127
 BYTE   W06
 BYTE   N05  Ds2  v056
 BYTE   W06
 BYTE   N11  Ds2  v072
 BYTE   W06
 BYTE   N04  Cn1  v127
 BYTE   W06
 BYTE   N11  Dn1  v112
 BYTE   N11  Ds2  v056
 BYTE   W12
 BYTE   Dn1  v112
 BYTE   N11  Ds2  v072
 BYTE   W12
 BYTE   PEND 
// 007   ----------------------------------------
 BYTE   Cn1  v127
 BYTE   N11  Ds2  v072
 BYTE   W12
 BYTE   Cn1  v127
 BYTE   N11  Ds2  v056
 BYTE   W12
 BYTE   Dn1  v112
 BYTE   N11  Ds2  v072
 BYTE   W12
 BYTE   N05  Cn1  v127
 BYTE   N05  Ds2  v056
 BYTE   W06
 BYTE   N11  Dn1  v112
 BYTE   N11  Ds2  v072
 BYTE   W12
 BYTE   N05  Dn1  v112
 BYTE   N05  Ds2  v056
 BYTE   W06
 BYTE   N11  Cn1  v127
 BYTE   N11  Ds2  v072
 BYTE   W12
 BYTE   Dn1  v112
 BYTE   N04  Ds2  v056
 BYTE   W06
 BYTE   N04
 BYTE   W06
 BYTE   N11  Dn1  v112
 BYTE   N11  Ds2  v072
 BYTE   W12
// 008   ----------------------------------------
 BYTE   Cn1  v127
 BYTE   N11  Ds2  v072
 BYTE   W12
 BYTE   Cn1  v127
 BYTE   N11  Ds2  v056
 BYTE   W12
 BYTE   Dn1  v112
 BYTE   N11  Ds2  v072
 BYTE   W12
 BYTE   N05  Cn1  v127
 BYTE   N05  Ds2  v056
 BYTE   W06
 BYTE   N11  Dn1  v112
 BYTE   N11  Ds2  v072
 BYTE   W12
 BYTE   N05  Dn1  v112
 BYTE   N05  Ds2  v056
 BYTE   W06
 BYTE   N11  Cn1  v127
 BYTE   N11  Ds2  v072
 BYTE   W12
 BYTE   Dn1  v112
 BYTE   N11  Ds2  v056
 BYTE   W12
 BYTE   N04  Dn1  v112
 BYTE   N11  Ds2  v072
 BYTE   W06
 BYTE   N04  Dn1  v112
 BYTE   W06
// 009   ----------------------------------------
 BYTE   N11  Cn1  v127
 BYTE   N92  Cs2  v100
 BYTE   W12
 BYTE   N11  Cn1  v127
 BYTE   N11  Ds2  v056
 BYTE   W12
 BYTE   Dn1  v112
 BYTE   N11  Ds2  v072
 BYTE   W12
 BYTE   N05  Cn1  v127
 BYTE   N05  Ds2  v056
 BYTE   W06
 BYTE   N11  Dn1  v112
 BYTE   N11  Ds2  v072
 BYTE   W12
 BYTE   N05  Dn1  v112
 BYTE   N05  Ds2  v056
 BYTE   W06
 BYTE   N11  Cn1  v127
 BYTE   N11  Ds2  v072
 BYTE   W12
 BYTE   Dn1  v112
 BYTE   N04  Ds2  v056
 BYTE   W06
 BYTE   N04
 BYTE   W06
 BYTE   N11  Cn1  v127
 BYTE   N11  Ds2  v072
 BYTE   W12
// 010   ----------------------------------------
Label_9_0138DE23:
 BYTE   N11  Cn1  v127
 BYTE   N11  Ds2  v072
 BYTE   W12
 BYTE   Cn1  v127
 BYTE   N11  Ds2  v056
 BYTE   W12
 BYTE   Dn1  v112
 BYTE   N11  Ds2  v072
 BYTE   W12
 BYTE   N05  Cn1  v127
 BYTE   N05  Ds2  v056
 BYTE   W06
 BYTE   N11  Dn1  v112
 BYTE   N11  Ds2  v072
 BYTE   W12
 BYTE   N05  Dn1  v112
 BYTE   N05  Ds2  v056
 BYTE   W06
 BYTE   N11  Cn1  v127
 BYTE   N11  Ds2  v072
 BYTE   W12
 BYTE   Dn1  v112
 BYTE   N11  Ds2  v056
 BYTE   W12
 BYTE   Cn1  v127
 BYTE   N11  Ds2  v072
 BYTE   W12
 BYTE   PEND 
// 011   ----------------------------------------
 BYTE   PATT
  POIN2 Label_9_0138DE23
// 012   ----------------------------------------
 BYTE   N11  Cn1  v127
 BYTE   N04  Ds2  v072
 BYTE   W06
 BYTE   N04
 BYTE   W06
 BYTE   N11  Cn1  v127
 BYTE   N11  Ds2  v056
 BYTE   W12
 BYTE   Dn1  v112
 BYTE   N11  Ds2  v072
 BYTE   W12
 BYTE   N05  Cn1  v127
 BYTE   N05  Ds2  v056
 BYTE   W06
 BYTE   N11  Dn1  v112
 BYTE   N11  Ds2  v072
 BYTE   W12
 BYTE   N05  Dn1  v112
 BYTE   N05  Ds2  v056
 BYTE   W06
 BYTE   N11  Cn1  v127
 BYTE   N11  Ds2  v072
 BYTE   W12
 BYTE   N04  Dn1  v112
 BYTE   N11  Ds2  v056
 BYTE   W06
 BYTE   N04  Dn1  v112
 BYTE   W06
 BYTE   N11
 BYTE   N11  Ds2  v072
 BYTE   W12
// 013   ----------------------------------------
 BYTE   Cn1  v127
 BYTE   N11  Ds2  v072
 BYTE   W12
 BYTE   N04  Ds2  v056
 BYTE   W06
 BYTE   N04
 BYTE   W06
 BYTE   N22  Dn1  v112
 BYTE   N11  Ds2  v072
 BYTE   W12
 BYTE   N05  Ds2  v056
 BYTE   W06
 BYTE   N11  Ds2  v072
 BYTE   W06
 BYTE   N09  Cn1  v127
 BYTE   W06
 BYTE   N05  Ds2  v056
 BYTE   W06
 BYTE   N11  Ds2  v072
 BYTE   W06
 BYTE   N04  Cn1  v127
 BYTE   W06
 BYTE   N22  Dn1  v112
 BYTE   N11  Ds2  v056
 BYTE   W12
 BYTE   Ds2  v072
 BYTE   W12
// 014   ----------------------------------------
 BYTE   PATT
  POIN2 Label_9_0138DD31
// 015   ----------------------------------------
 BYTE   N11  Cn1  v127
 BYTE   N92  Cs2  v100
 BYTE   W12
 BYTE   N11  Cn1  v127
 BYTE   N11  Ds2  v056
 BYTE   W12
 BYTE   Dn1  v112
 BYTE   N11  Ds2  v072
 BYTE   W12
 BYTE   N05  Cn1  v127
 BYTE   N05  Ds2  v056
 BYTE   W06
 BYTE   N11  Dn1  v112
 BYTE   N11  Ds2  v072
 BYTE   W12
 BYTE   N05  Dn1  v112
 BYTE   N05  Ds2  v056
 BYTE   W06
 BYTE   N11  Cn1  v127
 BYTE   N11  Ds2  v072
 BYTE   W12
 BYTE   Dn1  v112
 BYTE   N11  Ds2  v056
 BYTE   W12
 BYTE   Dn1  v112
 BYTE   N11  Ds2  v072
 BYTE   W12
// 016   ----------------------------------------
 BYTE   Cn1  v127
 BYTE   N92  Cs2  v100
 BYTE   W12
 BYTE   N11  Cn1  v127
 BYTE   N11  Ds2  v056
 BYTE   W12
 BYTE   Dn1  v112
 BYTE   N11  Ds2  v072
 BYTE   W12
 BYTE   N05  Cn1  v127
 BYTE   N05  Ds2  v056
 BYTE   W06
 BYTE   N11  Dn1  v112
 BYTE   N11  Ds2  v072
 BYTE   W12
 BYTE   N05  Dn1  v112
 BYTE   N05  Ds2  v056
 BYTE   W06
 BYTE   N11  Cn1  v127
 BYTE   N11  Ds2  v072
 BYTE   W12
 BYTE   Dn1  v112
 BYTE   N11  Ds2  v056
 BYTE   W12
 BYTE   N04  Dn1  v112
 BYTE   N11  Ds2  v072
 BYTE   W06
 BYTE   N04  Dn1  v112
 BYTE   W06
// 017   ----------------------------------------
Label_9_0138DF5C:
 BYTE   N11  Cn1  v127
 BYTE   N92  Cs2  v100
 BYTE   W12
 BYTE   N11  Ds2  v044
 BYTE   W12
 BYTE   N22  Dn1  v112
 BYTE   N11  Ds2  v072
 BYTE   W12
 BYTE   Ds2  v044
 BYTE   W12
 BYTE   N09  Cn1  v127
 BYTE   N11  Ds2  v072
 BYTE   W12
 BYTE   Ds2  v044
 BYTE   W06
 BYTE   N04  Cn1  v127
 BYTE   W06
 BYTE   N22  Dn1  v112
 BYTE   N11  Ds2  v072
 BYTE   W12
 BYTE   N04  Ds2  v044
 BYTE   W06
 BYTE   N04
 BYTE   W06
 BYTE   PEND 
// 018   ----------------------------------------
Label_9_0138DF8D:
 BYTE   N11  Cn1  v127
 BYTE   N11  Ds2  v072
 BYTE   W12
 BYTE   Ds2  v044
 BYTE   W12
 BYTE   N22  Dn1  v112
 BYTE   N11  Ds2  v072
 BYTE   W12
 BYTE   Ds2  v044
 BYTE   W12
 BYTE   Cn1  v127
 BYTE   N11  Ds2  v072
 BYTE   W12
 BYTE   Cn1  v127
 BYTE   N11  Ds2  v044
 BYTE   W12
 BYTE   N22  Dn1  v112
 BYTE   N04  Ds2  v072
 BYTE   W06
 BYTE   Ds2  v044
 BYTE   W06
 BYTE   N11  Ds2  v072
 BYTE   W12
 BYTE   PEND 
// 019   ----------------------------------------
Label_9_0138DFBC:
 BYTE   N11  Cn1  v127
 BYTE   N11  Ds2  v072
 BYTE   W12
 BYTE   Ds2  v044
 BYTE   W12
 BYTE   N22  Dn1  v112
 BYTE   N11  Ds2  v072
 BYTE   W12
 BYTE   N04  Ds2  v044
 BYTE   W06
 BYTE   N11  Ds2  v072
 BYTE   W06
 BYTE   N09  Cn1  v127
 BYTE   W06
 BYTE   N04  Ds2  v072
 BYTE   W06
 BYTE   N11  Ds2  v044
 BYTE   W06
 BYTE   N04  Cn1  v127
 BYTE   W06
 BYTE   N22  Dn1  v112
 BYTE   N11  Ds2  v072
 BYTE   W12
 BYTE   N04  Ds2  v044
 BYTE   W06
 BYTE   N04
 BYTE   W06
 BYTE   PEND 
// 020   ----------------------------------------
Label_9_0138DFF3:
 BYTE   N11  Cn1  v127
 BYTE   N11  Ds2  v072
 BYTE   W12
 BYTE   Ds2  v044
 BYTE   W12
 BYTE   N22  Dn1  v112
 BYTE   N11  Ds2  v072
 BYTE   W12
 BYTE   Ds2  v044
 BYTE   W12
 BYTE   N09  Cn1  v127
 BYTE   N11  Ds2  v072
 BYTE   W12
 BYTE   Ds2  v044
 BYTE   W06
 BYTE   N04  Cn1  v127
 BYTE   W06
 BYTE   Dn1  v112
 BYTE   N22  Ds2  v072
 BYTE   W06
 BYTE   N04  Dn1  v112
 BYTE   W06
 BYTE   N04
 BYTE   W06
 BYTE   N04
 BYTE   W06
 BYTE   PEND 
// 021   ----------------------------------------
Label_9_0138E024:
 BYTE   N11  Cn1  v127
 BYTE   N92  Cs2  v100
 BYTE   W12
 BYTE   N11  Ds2  v044
 BYTE   W12
 BYTE   N22  Dn1  v112
 BYTE   N11  Ds2  v072
 BYTE   W12
 BYTE   Ds2  v044
 BYTE   W12
 BYTE   N09  Cn1  v127
 BYTE   N11  Ds2  v072
 BYTE   W12
 BYTE   N04  Cn1  v127
 BYTE   N11  Ds2  v044
 BYTE   W06
 BYTE   N04  Cn1  v127
 BYTE   W06
 BYTE   N22  Dn1  v112
 BYTE   N11  Ds2  v072
 BYTE   W12
 BYTE   N04  Ds2  v044
 BYTE   W06
 BYTE   N04
 BYTE   W06
 BYTE   PEND 
// 022   ----------------------------------------
Label_9_0138E059:
 BYTE   N11  Cn1  v127
 BYTE   N44  Cs2  v100
 BYTE   W12
 BYTE   N11  Ds2  v044
 BYTE   W12
 BYTE   N22  Dn1  v112
 BYTE   N11  Ds2  v072
 BYTE   W12
 BYTE   Ds2  v044
 BYTE   W12
 BYTE   N09  Cn1  v127
 BYTE   N44  Cs2  v100
 BYTE   W12
 BYTE   N11  Ds2  v044
 BYTE   W06
 BYTE   N04  Cn1  v127
 BYTE   W06
 BYTE   N11  Dn1  v112
 BYTE   N04  Ds2  v072
 BYTE   W06
 BYTE   Ds2  v044
 BYTE   W06
 BYTE   N11  Dn1  v112
 BYTE   N11  Ds2  v072
 BYTE   W12
 BYTE   PEND 
// 023   ----------------------------------------
Label_9_0138E08F:
 BYTE   N11  Cn1  v127
 BYTE   N11  Ds2  v072
 BYTE   W12
 BYTE   Ds2  v044
 BYTE   W06
 BYTE   Cn1  v127
 BYTE   W06
 BYTE   Ds2  v072
 BYTE   W12
 BYTE   Dn1  v112
 BYTE   N44  Cs2  v100
 BYTE   N04  Ds2  v044
 BYTE   W12
 BYTE   N11  Cn1  v127
 BYTE   W06
 BYTE   N04  Ds2  v072
 BYTE   W06
 BYTE   N11  Ds2  v044
 BYTE   W06
 BYTE   Cn1  v127
 BYTE   W06
 BYTE   Ds2  v072
 BYTE   W12
 BYTE   Dn1  v112
 BYTE   N44  Cs2  v100
 BYTE   W12
 BYTE   PEND 
// 024   ----------------------------------------
Label_9_0138E0C1:
 BYTE   N11  Cn1  v127
 BYTE   N11  Ds2  v072
 BYTE   W12
 BYTE   Ds2  v044
 BYTE   W06
 BYTE   Cn1  v127
 BYTE   W06
 BYTE   Ds2  v072
 BYTE   W12
 BYTE   Dn1  v112
 BYTE   N56  Cs2  v100
 BYTE   N04  Ds2  v044
 BYTE   W12
 BYTE   Dn1  v112
 BYTE   W06
 BYTE   N04
 BYTE   W06
 BYTE   N04
 BYTE   W06
 BYTE   N04
 BYTE   W06
 BYTE   N04
 BYTE   W06
 BYTE   N04
 BYTE   W06
 BYTE   N04
 BYTE   W06
 BYTE   N04
 BYTE   W06
 BYTE   PEND 
// 025   ----------------------------------------
 BYTE   N11  Cn1  v127
 BYTE   N92  Cs2  v100
 BYTE   W12
 BYTE   N11  Cn1  v127
 BYTE   N11  Ds2  v044
 BYTE   W12
 BYTE   N22  Dn1  v112
 BYTE   N11  Ds2  v072
 BYTE   W12
 BYTE   Ds2  v044
 BYTE   W12
 BYTE   N09  Cn1  v127
 BYTE   N11  Ds2  v072
 BYTE   W12
 BYTE   Ds2  v044
 BYTE   W06
 BYTE   N04  Cn1  v127
 BYTE   W06
 BYTE   N22  Dn1  v112
 BYTE   N11  Ds2  v072
 BYTE   W12
 BYTE   N04  Ds2  v044
 BYTE   W06
 BYTE   N04
 BYTE   W06
// 026   ----------------------------------------
 BYTE   N11  Cn1  v127
 BYTE   N11  Ds2  v072
 BYTE   W12
 BYTE   Ds2  v044
 BYTE   W06
 BYTE   N04  Cn1  v127
 BYTE   W06
 BYTE   N22  Dn1  v112
 BYTE   N11  Ds2  v072
 BYTE   W12
 BYTE   Ds2  v044
 BYTE   W12
 BYTE   Cn1  v127
 BYTE   N11  Ds2  v072
 BYTE   W12
 BYTE   Cn1  v127
 BYTE   N11  Ds2  v044
 BYTE   W12
 BYTE   N22  Dn1  v112
 BYTE   N04  Ds2  v072
 BYTE   W06
 BYTE   Ds2  v044
 BYTE   W06
 BYTE   N11  Ds2  v072
 BYTE   W12
// 027   ----------------------------------------
 BYTE   PATT
  POIN2 Label_9_0138DFBC
// 028   ----------------------------------------
 BYTE   N16  Cn1  v127
 BYTE   N11  Ds2  v072
 BYTE   W12
 BYTE   Ds2  v044
 BYTE   W06
 BYTE   N04  Cn1  v127
 BYTE   W06
 BYTE   N11  Dn1  v112
 BYTE   N11  Ds2  v072
 BYTE   W12
 BYTE   Cn1  v127
 BYTE   N04  Ds2  v044
 BYTE   W06
 BYTE   N04
 BYTE   W06
 BYTE   Dn1  v112
 BYTE   N22  Ds2  v072
 BYTE   W06
 BYTE   N04  Dn1  v112
 BYTE   W06
 BYTE   N04
 BYTE   W06
 BYTE   N04
 BYTE   W06
 BYTE   Cn1  v127
 BYTE   W06
 BYTE   N04
 BYTE   W06
 BYTE   N11  Dn1  v112
 BYTE   W12
// 029   ----------------------------------------
 BYTE   PATT
  POIN2 Label_9_0138E024
// 030   ----------------------------------------
 BYTE   N11  Cn1  v127
 BYTE   N11  Ds2  v072
 BYTE   W12
 BYTE   Ds2  v044
 BYTE   W12
 BYTE   N22  Dn1  v112
 BYTE   N11  Ds2  v072
 BYTE   W12
 BYTE   Ds2  v044
 BYTE   W12
 BYTE   N09  Cn1  v127
 BYTE   N11  Ds2  v072
 BYTE   W12
 BYTE   Ds2  v044
 BYTE   W06
 BYTE   N04  Cn1  v127
 BYTE   W06
 BYTE   N11  Dn1  v112
 BYTE   N04  Ds2  v072
 BYTE   W06
 BYTE   Ds2  v044
 BYTE   W06
 BYTE   N11  Dn1  v112
 BYTE   N11  Ds2  v072
 BYTE   W12
// 031   ----------------------------------------
 BYTE   PATT
  POIN2 Label_9_0138DFBC
// 032   ----------------------------------------
Label_9_0138E1C7:
 BYTE   N11  Cn1  v127
 BYTE   N92  Cs2  v100
 BYTE   W12
 BYTE   N11  Cn1  v127
 BYTE   N11  Ds2  v056
 BYTE   W12
 BYTE   Dn1  v112
 BYTE   N11  Ds2  v072
 BYTE   W12
 BYTE   N04  Cn1  v127
 BYTE   N05  Ds2  v056
 BYTE   W06
 BYTE   N11  Dn1  v112
 BYTE   N11  Ds2  v072
 BYTE   W12
 BYTE   Dn1  v112
 BYTE   N05  Ds2  v056
 BYTE   W06
 BYTE   N11  Ds2  v072
 BYTE   W06
 BYTE   N04  Cn1  v127
 BYTE   W06
 BYTE   Dn1  v112
 BYTE   N11  Ds2  v056
 BYTE   W06
 BYTE   N04  Dn1  v112
 BYTE   W06
 BYTE   N11
 BYTE   N11  Ds2  v072
 BYTE   W12
 BYTE   PEND 
// 033   ----------------------------------------
Label_9_0138E207:
 BYTE   N11  Cn1  v127
 BYTE   N11  Ds2  v072
 BYTE   W12
 BYTE   Cn1  v127
 BYTE   N11  Ds2  v056
 BYTE   W12
 BYTE   Dn1  v112
 BYTE   N11  Ds2  v072
 BYTE   W12
 BYTE   N04  Cn1  v127
 BYTE   N05  Ds2  v056
 BYTE   W06
 BYTE   N11  Dn1  v112
 BYTE   N11  Ds2  v072
 BYTE   W12
 BYTE   Dn1  v112
 BYTE   N05  Ds2  v056
 BYTE   W06
 BYTE   N11  Ds2  v072
 BYTE   W06
 BYTE   N04  Cn1  v127
 BYTE   W06
 BYTE   N11  Dn1  v112
 BYTE   N04  Ds2  v056
 BYTE   W06
 BYTE   N04
 BYTE   W06
 BYTE   N11  Dn1  v112
 BYTE   N04  Ds2  v072
 BYTE   W06
 BYTE   N04
 BYTE   W06
 BYTE   PEND 
// 034   ----------------------------------------
Label_9_0138E249:
 BYTE   N11  Cn1  v127
 BYTE   N11  Ds2  v072
 BYTE   W12
 BYTE   Cn1  v127
 BYTE   N11  Ds2  v056
 BYTE   W12
 BYTE   Dn1  v112
 BYTE   N11  Ds2  v072
 BYTE   W12
 BYTE   N04  Cn1  v127
 BYTE   N05  Ds2  v056
 BYTE   W06
 BYTE   N11  Dn1  v112
 BYTE   N11  Ds2  v072
 BYTE   W12
 BYTE   Dn1  v112
 BYTE   N05  Ds2  v056
 BYTE   W06
 BYTE   N11  Ds2  v072
 BYTE   W06
 BYTE   N04  Cn1  v127
 BYTE   W06
 BYTE   Dn1  v112
 BYTE   N04  Ds2  v056
 BYTE   W06
 BYTE   Dn1  v112
 BYTE   N04  Ds2  v056
 BYTE   W06
 BYTE   N11  Dn1  v112
 BYTE   N11  Ds2  v072
 BYTE   W12
 BYTE   PEND 
// 035   ----------------------------------------
Label_9_0138E28C:
 BYTE   N11  Cn1  v127
 BYTE   N11  Ds2  v072
 BYTE   W12
 BYTE   Cn1  v127
 BYTE   N11  Ds2  v056
 BYTE   W12
 BYTE   Dn1  v112
 BYTE   N11  Ds2  v072
 BYTE   W12
 BYTE   N04  Cn1  v127
 BYTE   N05  Ds2  v056
 BYTE   W06
 BYTE   N11  Dn1  v112
 BYTE   N11  Ds2  v072
 BYTE   W12
 BYTE   Dn1  v112
 BYTE   N05  Ds2  v056
 BYTE   W06
 BYTE   N11  Ds2  v072
 BYTE   W06
 BYTE   N04  Cn1  v127
 BYTE   W06
 BYTE   N11  Dn1  v112
 BYTE   N11  Ds2  v056
 BYTE   W12
 BYTE   Dn1  v112
 BYTE   N11  Ds2  v072
 BYTE   W12
 BYTE   PEND 
// 036   ----------------------------------------
 BYTE   PATT
  POIN2 Label_9_0138E1C7
// 037   ----------------------------------------
 BYTE   PATT
  POIN2 Label_9_0138E28C
// 038   ----------------------------------------
 BYTE   PATT
  POIN2 Label_9_0138E249
// 039   ----------------------------------------
 BYTE   N11  Cn1  v127
 BYTE   N11  Ds2  v072
 BYTE   W12
 BYTE   Cn1  v127
 BYTE   N11  Ds2  v056
 BYTE   W12
 BYTE   Dn1  v112
 BYTE   N11  Ds2  v072
 BYTE   W12
 BYTE   N04  Cn1  v127
 BYTE   N05  Ds2  v056
 BYTE   W06
 BYTE   N11  Dn1  v112
 BYTE   N11  Ds2  v072
 BYTE   W12
 BYTE   Dn1  v112
 BYTE   N05  Ds2  v056
 BYTE   W06
 BYTE   N11  Ds2  v072
 BYTE   W06
 BYTE   N04  Cn1  v127
 BYTE   W06
 BYTE   N11  Dn1  v112
 BYTE   N11  Ds2  v056
 BYTE   W12
 BYTE   N04  Dn1  v112
 BYTE   N11  Ds2  v072
 BYTE   W06
 BYTE   N04  Dn1  v112
 BYTE   W06
// 040   ----------------------------------------
 BYTE   PATT
  POIN2 Label_9_0138DF5C
// 041   ----------------------------------------
 BYTE   PATT
  POIN2 Label_9_0138DF8D
// 042   ----------------------------------------
 BYTE   PATT
  POIN2 Label_9_0138DFBC
// 043   ----------------------------------------
 BYTE   PATT
  POIN2 Label_9_0138DFF3
// 044   ----------------------------------------
 BYTE   PATT
  POIN2 Label_9_0138E024
// 045   ----------------------------------------
 BYTE   PATT
  POIN2 Label_9_0138E059
// 046   ----------------------------------------
 BYTE   PATT
  POIN2 Label_9_0138E08F
// 047   ----------------------------------------
 BYTE   PATT
  POIN2 Label_9_0138E0C1
// 048   ----------------------------------------
Label_9_0138E341:
 BYTE   N11  Cn1  v127
 BYTE   N92  Cs2  v100
 BYTE   W12
 BYTE   N11  Ds2  v044
 BYTE   W12
 BYTE   N22  Dn1  v112
 BYTE   N11  Ds2  v072
 BYTE   W12
 BYTE   Ds2  v044
 BYTE   W12
 BYTE   Cn1  v127
 BYTE   N11  Ds2  v072
 BYTE   W12
 BYTE   Cn1  v127
 BYTE   N11  Ds2  v044
 BYTE   W12
 BYTE   N22  Dn1  v112
 BYTE   N11  Ds2  v072
 BYTE   W12
 BYTE   Ds2  v044
 BYTE   W12
 BYTE   PEND 
// 049   ----------------------------------------
Label_9_0138E36D:
 BYTE   N11  Cn1  v127
 BYTE   N11  Ds2  v072
 BYTE   W12
 BYTE   Ds2  v044
 BYTE   W12
 BYTE   N22  Dn1  v112
 BYTE   N11  Ds2  v072
 BYTE   W12
 BYTE   Ds2  v044
 BYTE   W12
 BYTE   Cn1  v127
 BYTE   N11  Ds2  v072
 BYTE   W12
 BYTE   Cn1  v127
 BYTE   N11  Ds2  v044
 BYTE   W12
 BYTE   Dn1  v112
 BYTE   N11  Ds2  v072
 BYTE   W12
 BYTE   Dn1  v112
 BYTE   N11  Ds2  v044
 BYTE   W12
 BYTE   PEND 
// 050   ----------------------------------------
Label_9_0138E39A:
 BYTE   N11  Cn1  v127
 BYTE   N11  Ds2  v072
 BYTE   W12
 BYTE   Ds2  v044
 BYTE   W12
 BYTE   N22  Dn1  v112
 BYTE   N11  Ds2  v072
 BYTE   W12
 BYTE   Ds2  v044
 BYTE   W12
 BYTE   Cn1  v127
 BYTE   N11  Ds2  v072
 BYTE   W12
 BYTE   Cn1  v127
 BYTE   N11  Ds2  v044
 BYTE   W12
 BYTE   N22  Dn1  v112
 BYTE   N11  Ds2  v072
 BYTE   W12
 BYTE   Ds2  v044
 BYTE   W12
 BYTE   PEND 
// 051   ----------------------------------------
Label_9_0138E3C5:
 BYTE   N11  Cn1  v127
 BYTE   N11  Ds2  v072
 BYTE   W12
 BYTE   Ds2  v044
 BYTE   W12
 BYTE   N22  Dn1  v112
 BYTE   N11  Ds2  v072
 BYTE   W12
 BYTE   Ds2  v044
 BYTE   W12
 BYTE   Cn1  v127
 BYTE   N11  Ds2  v072
 BYTE   W12
 BYTE   Cn1  v127
 BYTE   N11  Ds2  v044
 BYTE   W12
 BYTE   N04  Dn1  v112
 BYTE   N11  Ds2  v072
 BYTE   W06
 BYTE   N04  Dn1  v112
 BYTE   W06
 BYTE   N04
 BYTE   N11  Ds2  v044
 BYTE   W06
 BYTE   N04  Dn1  v112
 BYTE   W06
 BYTE   PEND 
// 052   ----------------------------------------
 BYTE   PATT
  POIN2 Label_9_0138E39A
// 053   ----------------------------------------
 BYTE   PATT
  POIN2 Label_9_0138E36D
// 054   ----------------------------------------
 BYTE   PATT
  POIN2 Label_9_0138E39A
// 055   ----------------------------------------
 BYTE   PATT
  POIN2 Label_9_0138E3C5
// 056   ----------------------------------------
 BYTE   PATT
  POIN2 Label_9_0138E341
// 057   ----------------------------------------
 BYTE   PATT
  POIN2 Label_9_0138E36D
// 058   ----------------------------------------
 BYTE   PATT
  POIN2 Label_9_0138E39A
// 059   ----------------------------------------
 BYTE   PATT
  POIN2 Label_9_0138E3C5
// 060   ----------------------------------------
 BYTE   PATT
  POIN2 Label_9_0138E39A
// 061   ----------------------------------------
 BYTE   PATT
  POIN2 Label_9_0138E36D
// 062   ----------------------------------------
 BYTE   PATT
  POIN2 Label_9_0138E39A
// 063   ----------------------------------------
 BYTE   PATT
  POIN2 Label_9_0138E3C5
// 064   ----------------------------------------
 BYTE   PATT
  POIN2 Label_9_0138E1C7
// 065   ----------------------------------------
 BYTE   PATT
  POIN2 Label_9_0138E207
// 066   ----------------------------------------
 BYTE   PATT
  POIN2 Label_9_0138E249
// 067   ----------------------------------------
 BYTE   PATT
  POIN2 Label_9_0138E28C
// 068   ----------------------------------------
 BYTE   PATT
  POIN2 Label_9_0138E1C7
// 069   ----------------------------------------
 BYTE   PATT
  POIN2 Label_9_0138E28C
// 070   ----------------------------------------
 BYTE   PATT
  POIN2 Label_9_0138E249
// 071   ----------------------------------------
 BYTE   N11  Cn1  v127
 BYTE   N11  Ds2  v072
 BYTE   W12
 BYTE   Cn1  v127
 BYTE   N11  Ds2  v056
 BYTE   W12
 BYTE   Dn1  v112
 BYTE   N11  Ds2  v072
 BYTE   W12
 BYTE   N04  Cn1  v127
 BYTE   N05  Ds2  v056
 BYTE   W06
 BYTE   N11  Dn1  v112
 BYTE   N11  Ds2  v072
 BYTE   W12
 BYTE   Dn1  v112
 BYTE   N05  Ds2  v056
 BYTE   W06
 BYTE   N11  Ds2  v072
 BYTE   W06
 BYTE   N04  Cn1  v127
 BYTE   W06
 BYTE   N11  Dn1  v112
 BYTE   N11  Ds2  v056
 BYTE   W12
 BYTE   N04  Dn1  v112
 BYTE   N10  Ds2  v072
 BYTE   W06
 BYTE   N04  Dn1  v112
 BYTE   W06
// 072   ----------------------------------------
 BYTE   W04
 BYTE   GoTo
  POIN2 Label_9_0138DC04
 BYTE   FINE

//**************** Track 11 (Midi-Chn.10) ****************//

song01B5_011:
// 000   ----------------------------------------
 BYTE   KEYSH   song01B5_key+0
 BYTE   VOICE   67
 BYTE   PAN   c_v+3
 BYTE   VOL   19*song01B5_mvl/mxv
 BYTE   MOD 0
 BYTE   CnM2  v005
 BYTE   BEND   c_v+0
 BYTE   W96
// 001   ----------------------------------------
Label_10_0138E4AF:
 BYTE   N32  Cn4  v127
 BYTE   W36
 BYTE   N22  Bn3
 BYTE   W24
 BYTE   N11  An3
 BYTE   W12
 BYTE   Gn3
 BYTE   W12
 BYTE   An3
 BYTE   W12
 BYTE   PEND 
// 002   ----------------------------------------
 BYTE   N92  En3
 BYTE   W96
// 003   ----------------------------------------
Label_10_0138E4C1:
 BYTE   N32  Cn4  v127
 BYTE   W36
 BYTE   N22  Bn3
 BYTE   W24
 BYTE   Cn4
 BYTE   W24
 BYTE   N11  Dn4
 BYTE   W12
 BYTE   PEND 
// 004   ----------------------------------------
 BYTE   N92  An3
 BYTE   W96
// 005   ----------------------------------------
Label_10_0138E4D1:
 BYTE   N36  An3  v127
 BYTE   W48
 BYTE   N16
 BYTE   W18
 BYTE   Gn3
 BYTE   W18
 BYTE   N10  An3
 BYTE   W12
 BYTE   PEND 
// 006   ----------------------------------------
Label_10_0138E4DD:
 BYTE   N44  Bn3  v127
 BYTE   W48
 BYTE   Gn3
 BYTE   W48
 BYTE   PEND 
// 007   ----------------------------------------
 BYTE   TIE  An3
 BYTE   W96
// 008   ----------------------------------------
 BYTE   W88
 BYTE   W01
 BYTE   EOT
 BYTE   W07
// 009   ----------------------------------------
 BYTE   PATT
  POIN2 Label_10_0138E4AF
// 010   ----------------------------------------
 BYTE   N92  En3  v127
 BYTE   W96
// 011   ----------------------------------------
 BYTE   PATT
  POIN2 Label_10_0138E4C1
// 012   ----------------------------------------
 BYTE   N92  An3  v127
 BYTE   W96
// 013   ----------------------------------------
 BYTE   PATT
  POIN2 Label_10_0138E4D1
// 014   ----------------------------------------
 BYTE   PATT
  POIN2 Label_10_0138E4DD
// 015   ----------------------------------------
 BYTE   TIE  An3  v127
 BYTE   W96
// 016   ----------------------------------------
 BYTE   W88
 BYTE   W01
 BYTE   EOT
 BYTE   W07
// 017   ----------------------------------------
 BYTE   W96
// 018   ----------------------------------------
 BYTE   W96
// 019   ----------------------------------------
 BYTE   W96
// 020   ----------------------------------------
 BYTE   W96
// 021   ----------------------------------------
 BYTE   W96
// 022   ----------------------------------------
 BYTE   W96
// 023   ----------------------------------------
 BYTE   W96
// 024   ----------------------------------------
 BYTE   W96
// 025   ----------------------------------------
 BYTE   W96
// 026   ----------------------------------------
 BYTE   W96
// 027   ----------------------------------------
 BYTE   W96
// 028   ----------------------------------------
 BYTE   W96
// 029   ----------------------------------------
 BYTE   W96
// 030   ----------------------------------------
 BYTE   W96
// 031   ----------------------------------------
 BYTE   W96
// 032   ----------------------------------------
 BYTE   W96
// 033   ----------------------------------------
 BYTE   W96
// 034   ----------------------------------------
 BYTE   W96
// 035   ----------------------------------------
 BYTE   W96
// 036   ----------------------------------------
 BYTE   W96
// 037   ----------------------------------------
 BYTE   W96
// 038   ----------------------------------------
 BYTE   W96
// 039   ----------------------------------------
 BYTE   W96
// 040   ----------------------------------------
 BYTE   N32  Cn4  v120
 BYTE   W36
 BYTE   N23  An3
 BYTE   W24
 BYTE   Bn3
 BYTE   W24
 BYTE   N11  Cn4
 BYTE   W12
// 041   ----------------------------------------
 BYTE   N32  Dn4
 BYTE   W36
 BYTE   An3
 BYTE   W36
 BYTE   N23  Dn4
 BYTE   W24
// 042   ----------------------------------------
 BYTE   N32  Bn3
 BYTE   W36
 BYTE   N23  En3
 BYTE   W24
 BYTE   Fs3
 BYTE   W24
 BYTE   N11  Gn3
 BYTE   W12
// 043   ----------------------------------------
 BYTE   N92  An3
 BYTE   W96
// 044   ----------------------------------------
 BYTE   N17
 BYTE   W18
 BYTE   Ds3
 BYTE   W18
 BYTE   N11  En3
 BYTE   W12
 BYTE   N17  Fs3
 BYTE   W18
 BYTE   Gn3
 BYTE   W18
 BYTE   N11  An3
 BYTE   W12
// 045   ----------------------------------------
 BYTE   N44  Bn3
 BYTE   W48
 BYTE   En4
 BYTE   W48
// 046   ----------------------------------------
 BYTE   N17  Ds4
 BYTE   W18
 BYTE   Dn4
 BYTE   W18
 BYTE   N11  Cn4
 BYTE   W12
 BYTE   N17  Ds4
 BYTE   W18
 BYTE   Dn4
 BYTE   W18
 BYTE   N11  Cn4
 BYTE   W12
// 047   ----------------------------------------
 BYTE   N17  Fn4
 BYTE   W18
 BYTE   Ds4
 BYTE   W18
 BYTE   N11  Dn4
 BYTE   W12
 BYTE   N17  Fn4
 BYTE   W18
 BYTE   Ds4
 BYTE   W18
 BYTE   N11  Dn4
 BYTE   W12
// 048   ----------------------------------------
 BYTE   W96
// 049   ----------------------------------------
 BYTE   W96
// 050   ----------------------------------------
 BYTE   W96
// 051   ----------------------------------------
 BYTE   W96
// 052   ----------------------------------------
 BYTE   W96
// 053   ----------------------------------------
 BYTE   W96
// 054   ----------------------------------------
 BYTE   W96
// 055   ----------------------------------------
 BYTE   W96
// 056   ----------------------------------------
 BYTE   W96
// 057   ----------------------------------------
 BYTE   W96
// 058   ----------------------------------------
 BYTE   W96
// 059   ----------------------------------------
 BYTE   W96
// 060   ----------------------------------------
 BYTE   W96
// 061   ----------------------------------------
 BYTE   W96
// 062   ----------------------------------------
 BYTE   W96
// 063   ----------------------------------------
 BYTE   W96
// 064   ----------------------------------------
 BYTE   W96
// 065   ----------------------------------------
 BYTE   W96
// 066   ----------------------------------------
 BYTE   W96
// 067   ----------------------------------------
 BYTE   W96
// 068   ----------------------------------------
 BYTE   W96
// 069   ----------------------------------------
 BYTE   W96
// 070   ----------------------------------------
 BYTE   W96
// 071   ----------------------------------------
 BYTE   W96
// 072   ----------------------------------------
 BYTE   W04
 BYTE   GoTo
  POIN2 Label_10_0138E4AF
 BYTE   FINE

//**************** Track 12 (Midi-Chn.11) ****************//

song01B5_012:
// 000   ----------------------------------------
 BYTE   KEYSH   song01B5_key+0
 BYTE   VOICE   68
 BYTE   VOL   5*song01B5_mvl/mxv
 BYTE   PAN   c_v+20
 BYTE   BEND   c_v-1
 BYTE   W96
// 001   ----------------------------------------
Label_11_0138E5A6:
 BYTE   W96
// 002   ----------------------------------------
 BYTE   W96
// 003   ----------------------------------------
 BYTE   W96
// 004   ----------------------------------------
 BYTE   W96
// 005   ----------------------------------------
 BYTE   W96
// 006   ----------------------------------------
 BYTE   W96
// 007   ----------------------------------------
 BYTE   W96
// 008   ----------------------------------------
 BYTE   W96
// 009   ----------------------------------------
 BYTE   W96
// 010   ----------------------------------------
 BYTE   W96
// 011   ----------------------------------------
 BYTE   W96
// 012   ----------------------------------------
 BYTE   W96
// 013   ----------------------------------------
 BYTE   W96
// 014   ----------------------------------------
 BYTE   W96
// 015   ----------------------------------------
 BYTE   W96
// 016   ----------------------------------------
 BYTE   W96
// 017   ----------------------------------------
 BYTE   W96
// 018   ----------------------------------------
 BYTE   W96
// 019   ----------------------------------------
 BYTE   W96
// 020   ----------------------------------------
 BYTE   W96
// 021   ----------------------------------------
 BYTE   W96
// 022   ----------------------------------------
 BYTE   W96
// 023   ----------------------------------------
 BYTE   W96
// 024   ----------------------------------------
 BYTE   W96
// 025   ----------------------------------------
Label_11_0138E5BE:
 BYTE   W10
 BYTE   N11  Cn4  v127
 BYTE   W12
 BYTE   Bn3
 BYTE   W12
 BYTE   Cn4
 BYTE   W12
 BYTE   Dn4
 BYTE   W12
 BYTE   N16  En4
 BYTE   W18
 BYTE   An3
 BYTE   W18
 BYTE   N10  Bn3
 BYTE   W02
 BYTE   PEND 
// 026   ----------------------------------------
 BYTE   PATT
  POIN2 Label_11_0138E5BE
// 027   ----------------------------------------
Label_11_0138E5D7:
 BYTE   W10
 BYTE   N28  Dn4  v127
 BYTE   W36
 BYTE   N10  Cn4
 BYTE   W12
 BYTE   N16  Bn3
 BYTE   W18
 BYTE   Cn4
 BYTE   W18
 BYTE   N10  Dn4
 BYTE   W02
 BYTE   PEND 
// 028   ----------------------------------------
 BYTE   W10
 BYTE   N28
 BYTE   W36
 BYTE   En4
 BYTE   W36
 BYTE   N22  Bn3
 BYTE   W14
// 029   ----------------------------------------
 BYTE   PATT
  POIN2 Label_11_0138E5BE
// 030   ----------------------------------------
 BYTE   PATT
  POIN2 Label_11_0138E5BE
// 031   ----------------------------------------
 BYTE   PATT
  POIN2 Label_11_0138E5D7
// 032   ----------------------------------------
Label_11_0138E5FF:
 BYTE   W10
 BYTE   N28  Cs4  v127
 BYTE   W36
 BYTE   N54  An3
 BYTE   W48
 BYTE   W02
 BYTE   PEND 
// 033   ----------------------------------------
Label_11_0138E609:
 BYTE   W10
 BYTE   N28  Bn3  v127
 BYTE   W36
 BYTE   N54  Gs3
 BYTE   W48
 BYTE   W02
 BYTE   PEND 
// 034   ----------------------------------------
Label_11_0138E613:
 BYTE   W10
 BYTE   N28  Cs4  v127
 BYTE   W36
 BYTE   An3
 BYTE   W36
 BYTE   N22  Cs4
 BYTE   W14
 BYTE   PEND 
// 035   ----------------------------------------
Label_11_0138E61E:
 BYTE   W10
 BYTE   N28  Dn4  v127
 BYTE   W36
 BYTE   N54  An3
 BYTE   W48
 BYTE   W02
 BYTE   PEND 
// 036   ----------------------------------------
 BYTE   PATT
  POIN2 Label_11_0138E5FF
// 037   ----------------------------------------
 BYTE   PATT
  POIN2 Label_11_0138E609
// 038   ----------------------------------------
 BYTE   PATT
  POIN2 Label_11_0138E613
// 039   ----------------------------------------
 BYTE   PATT
  POIN2 Label_11_0138E61E
// 040   ----------------------------------------
 BYTE   W96
// 041   ----------------------------------------
 BYTE   W96
// 042   ----------------------------------------
 BYTE   W96
// 043   ----------------------------------------
 BYTE   W96
// 044   ----------------------------------------
 BYTE   W96
// 045   ----------------------------------------
 BYTE   W96
// 046   ----------------------------------------
 BYTE   W96
// 047   ----------------------------------------
 BYTE   W96
// 048   ----------------------------------------
 BYTE   W96
// 049   ----------------------------------------
 BYTE   W96
// 050   ----------------------------------------
 BYTE   W96
// 051   ----------------------------------------
 BYTE   W96
// 052   ----------------------------------------
 BYTE   W96
// 053   ----------------------------------------
 BYTE   W96
// 054   ----------------------------------------
 BYTE   W96
// 055   ----------------------------------------
 BYTE   W96
// 056   ----------------------------------------
 BYTE   W10
 BYTE   N88  An3  v127
 BYTE   W84
 BYTE   W02
// 057   ----------------------------------------
 BYTE   W10
 BYTE   N44  Bn3
 BYTE   W48
 BYTE   Cn4
 BYTE   W36
 BYTE   W02
// 058   ----------------------------------------
 BYTE   W10
 BYTE   N32  Dn4
 BYTE   W36
 BYTE   N10  En4
 BYTE   W12
 BYTE   N16  Fn4
 BYTE   W18
 BYTE   En4
 BYTE   W18
 BYTE   N10  Dn4
 BYTE   W02
// 059   ----------------------------------------
 BYTE   W10
 BYTE   N32  En4
 BYTE   W36
 BYTE   N56  An3
 BYTE   W48
 BYTE   W02
// 060   ----------------------------------------
 BYTE   W10
 BYTE   N36  Dn4
 BYTE   W48
 BYTE   N16
 BYTE   W18
 BYTE   Cn4
 BYTE   W18
 BYTE   N10  Dn4
 BYTE   W02
// 061   ----------------------------------------
 BYTE   W10
 BYTE   N44  En4
 BYTE   W48
 BYTE   N36  Bn3
 BYTE   W36
 BYTE   W02
// 062   ----------------------------------------
 BYTE   W10
 BYTE   N88
 BYTE   W84
 BYTE   W02
// 063   ----------------------------------------
 BYTE   W10
 BYTE   Cs4
 BYTE   W84
 BYTE   W02
// 064   ----------------------------------------
 BYTE   PATT
  POIN2 Label_11_0138E5FF
// 065   ----------------------------------------
 BYTE   PATT
  POIN2 Label_11_0138E609
// 066   ----------------------------------------
 BYTE   PATT
  POIN2 Label_11_0138E613
// 067   ----------------------------------------
 BYTE   PATT
  POIN2 Label_11_0138E61E
// 068   ----------------------------------------
 BYTE   PATT
  POIN2 Label_11_0138E5FF
// 069   ----------------------------------------
 BYTE   PATT
  POIN2 Label_11_0138E609
// 070   ----------------------------------------
 BYTE   PATT
  POIN2 Label_11_0138E613
// 071   ----------------------------------------
 BYTE   PATT
  POIN2 Label_11_0138E61E
// 072   ----------------------------------------
 BYTE   W04
 BYTE   GoTo
  POIN2 Label_11_0138E5A6
 BYTE   FINE

//**************** Track 13 (Midi-Chn.12) ****************//

song01B5_013:
// 000   ----------------------------------------
 BYTE   KEYSH   song01B5_key+0
 BYTE   VOICE   10
 BYTE   VOL   17*song01B5_mvl/mxv
 BYTE   PAN   c_v-13
 BYTE   W96
// 001   ----------------------------------------
Label_12_0138E6C3:
 BYTE   W96
// 002   ----------------------------------------
 BYTE   W96
// 003   ----------------------------------------
 BYTE   W96
// 004   ----------------------------------------
 BYTE   W96
// 005   ----------------------------------------
 BYTE   W96
// 006   ----------------------------------------
 BYTE   W96
// 007   ----------------------------------------
 BYTE   W96
// 008   ----------------------------------------
 BYTE   W96
// 009   ----------------------------------------
 BYTE   W96
// 010   ----------------------------------------
 BYTE   W96
// 011   ----------------------------------------
 BYTE   W96
// 012   ----------------------------------------
 BYTE   W96
// 013   ----------------------------------------
 BYTE   W96
// 014   ----------------------------------------
 BYTE   W96
// 015   ----------------------------------------
 BYTE   W96
// 016   ----------------------------------------
 BYTE   W96
// 017   ----------------------------------------
 BYTE   N32  Cn4  v108
 BYTE   W36
 BYTE   N23  An3
 BYTE   W24
 BYTE   Bn3
 BYTE   W24
 BYTE   N11  Cn4
 BYTE   W12
// 018   ----------------------------------------
 BYTE   N32  Dn4
 BYTE   W36
 BYTE   An3
 BYTE   W36
 BYTE   N23  Dn4
 BYTE   W24
// 019   ----------------------------------------
 BYTE   N32  Bn3
 BYTE   W36
 BYTE   N23  En3
 BYTE   W24
 BYTE   Fs3
 BYTE   W24
 BYTE   N11  Gn3
 BYTE   W12
// 020   ----------------------------------------
 BYTE   N92  An3
 BYTE   W96
// 021   ----------------------------------------
 BYTE   N17
 BYTE   W18
 BYTE   Ds3
 BYTE   W18
 BYTE   N11  En3
 BYTE   W12
 BYTE   N17  Fs3
 BYTE   W18
 BYTE   Gn3
 BYTE   W18
 BYTE   N11  An3
 BYTE   W12
// 022   ----------------------------------------
 BYTE   N44  Bn3
 BYTE   W48
 BYTE   En4
 BYTE   W48
// 023   ----------------------------------------
 BYTE   N17  Ds4
 BYTE   W18
 BYTE   Dn4
 BYTE   W18
 BYTE   N11  Cn4
 BYTE   W12
 BYTE   N17  Ds4
 BYTE   W18
 BYTE   Dn4
 BYTE   W18
 BYTE   N11  Cn4
 BYTE   W12
// 024   ----------------------------------------
 BYTE   N17  Fn4
 BYTE   W18
 BYTE   Ds4
 BYTE   W18
 BYTE   N11  Dn4
 BYTE   W12
 BYTE   N17  Fn4
 BYTE   W18
 BYTE   Ds4
 BYTE   W18
 BYTE   N11  Dn4
 BYTE   W12
// 025   ----------------------------------------
 BYTE   W96
// 026   ----------------------------------------
 BYTE   W96
// 027   ----------------------------------------
 BYTE   W96
// 028   ----------------------------------------
 BYTE   W96
// 029   ----------------------------------------
 BYTE   W96
// 030   ----------------------------------------
 BYTE   W96
// 031   ----------------------------------------
 BYTE   W96
// 032   ----------------------------------------
Label_12_0138E730:
 BYTE   N03  Fs4  v088
 BYTE   W12
 BYTE   N03
 BYTE   W12
 BYTE   N03
 BYTE   W06
 BYTE   N03
 BYTE   W12
 BYTE   N03
 BYTE   W12
 BYTE   N03
 BYTE   W12
 BYTE   N03
 BYTE   W06
 BYTE   N03
 BYTE   W12
 BYTE   N03
 BYTE   W12
 BYTE   PEND 
// 033   ----------------------------------------
Label_12_0138E745:
 BYTE   N03  Fs4  v088
 BYTE   W12
 BYTE   N03
 BYTE   W12
 BYTE   N03
 BYTE   W06
 BYTE   N03
 BYTE   W12
 BYTE   N03
 BYTE   W12
 BYTE   N03
 BYTE   W06
 BYTE   N03
 BYTE   W12
 BYTE   N03
 BYTE   W06
 BYTE   N03
 BYTE   W12
 BYTE   N03
 BYTE   W06
 BYTE   PEND 
// 034   ----------------------------------------
 BYTE   PATT
  POIN2 Label_12_0138E730
// 035   ----------------------------------------
 BYTE   PATT
  POIN2 Label_12_0138E745
// 036   ----------------------------------------
 BYTE   PATT
  POIN2 Label_12_0138E730
// 037   ----------------------------------------
 BYTE   PATT
  POIN2 Label_12_0138E745
// 038   ----------------------------------------
 BYTE   PATT
  POIN2 Label_12_0138E730
// 039   ----------------------------------------
 BYTE   PATT
  POIN2 Label_12_0138E745
// 040   ----------------------------------------
 BYTE   N32  An3  v084
 BYTE   W36
 BYTE   N23  Fn3
 BYTE   W24
 BYTE   Gn3
 BYTE   W24
 BYTE   N44  An3
 BYTE   W12
// 041   ----------------------------------------
 BYTE   W36
 BYTE   N32  Dn4
 BYTE   W36
 BYTE   N23  Fn4
 BYTE   W24
// 042   ----------------------------------------
 BYTE   N32  En4
 BYTE   W36
 BYTE   N56  Bn3
 BYTE   W60
// 043   ----------------------------------------
 BYTE   N44  Dn4
 BYTE   W48
 BYTE   N64  Fs4
 BYTE   W48
// 044   ----------------------------------------
 BYTE   W18
 BYTE   N17  Ds4
 BYTE   W18
 BYTE   N11  Cn4
 BYTE   W12
 BYTE   N17  Bn3
 BYTE   W18
 BYTE   An3
 BYTE   W18
 BYTE   N11  Bn3
 BYTE   W12
// 045   ----------------------------------------
 BYTE   N44  Gn3
 BYTE   W48
 BYTE   Bn3
 BYTE   W48
// 046   ----------------------------------------
 BYTE   N17  Cn4
 BYTE   W18
 BYTE   Bn3
 BYTE   W18
 BYTE   N11  An3
 BYTE   W12
 BYTE   N17  Cn4
 BYTE   W18
 BYTE   Bn3
 BYTE   W18
 BYTE   N11  An3
 BYTE   W12
// 047   ----------------------------------------
 BYTE   N17  Dn4
 BYTE   W18
 BYTE   Cn4
 BYTE   W18
 BYTE   N11  Bn3
 BYTE   W12
 BYTE   N17  Dn4
 BYTE   W18
 BYTE   Cn4
 BYTE   W18
 BYTE   N11  Bn3
 BYTE   W12
// 048   ----------------------------------------
Label_12_0138E7CD:
 BYTE   N32  Cn4  v112
 BYTE   W36
 BYTE   N23  Bn3
 BYTE   W24
 BYTE   N11  An3
 BYTE   W12
 BYTE   Gn3
 BYTE   W12
 BYTE   An3
 BYTE   W12
 BYTE   PEND 
// 049   ----------------------------------------
 BYTE   N92  En3
 BYTE   W96
// 050   ----------------------------------------
Label_12_0138E7DF:
 BYTE   N32  Cn4  v112
 BYTE   W36
 BYTE   N23  Bn3
 BYTE   W24
 BYTE   Cn4
 BYTE   W24
 BYTE   N11  Dn4
 BYTE   W12
 BYTE   PEND 
// 051   ----------------------------------------
 BYTE   N92  An3
 BYTE   W96
// 052   ----------------------------------------
Label_12_0138E7EF:
 BYTE   N44  An3  v112
 BYTE   W48
 BYTE   N17
 BYTE   W18
 BYTE   Gn3
 BYTE   W18
 BYTE   N11  An3
 BYTE   W12
 BYTE   PEND 
// 053   ----------------------------------------
Label_12_0138E7FB:
 BYTE   N44  Bn3  v112
 BYTE   W48
 BYTE   Gn3
 BYTE   W48
 BYTE   PEND 
// 054   ----------------------------------------
 BYTE   TIE  An3
 BYTE   W96
// 055   ----------------------------------------
 BYTE   W92
 BYTE   W02
 BYTE   EOT
 BYTE   W02
// 056   ----------------------------------------
 BYTE   PATT
  POIN2 Label_12_0138E7CD
// 057   ----------------------------------------
 BYTE   N92  En3  v112
 BYTE   W96
// 058   ----------------------------------------
 BYTE   PATT
  POIN2 Label_12_0138E7DF
// 059   ----------------------------------------
 BYTE   N92  An3  v112
 BYTE   W96
// 060   ----------------------------------------
 BYTE   PATT
  POIN2 Label_12_0138E7EF
// 061   ----------------------------------------
 BYTE   PATT
  POIN2 Label_12_0138E7FB
// 062   ----------------------------------------
 BYTE   TIE  An3  v112
 BYTE   W96
// 063   ----------------------------------------
 BYTE   W92
 BYTE   W02
 BYTE   EOT
 BYTE   W02
// 064   ----------------------------------------
Label_12_0138E82D:
 BYTE   N03  Fs4  v104
 BYTE   W12
 BYTE   N03
 BYTE   W12
 BYTE   N03
 BYTE   W06
 BYTE   N03
 BYTE   W12
 BYTE   N03
 BYTE   W12
 BYTE   N03
 BYTE   W12
 BYTE   N03
 BYTE   W06
 BYTE   N03
 BYTE   W12
 BYTE   N03
 BYTE   W12
 BYTE   PEND 
// 065   ----------------------------------------
Label_12_0138E842:
 BYTE   N03  Fs4  v104
 BYTE   W12
 BYTE   N03
 BYTE   W12
 BYTE   N03
 BYTE   W06
 BYTE   N03
 BYTE   W12
 BYTE   N03
 BYTE   W12
 BYTE   N03
 BYTE   W06
 BYTE   N03
 BYTE   W12
 BYTE   N03
 BYTE   W06
 BYTE   N03
 BYTE   W12
 BYTE   N03
 BYTE   W06
 BYTE   PEND 
// 066   ----------------------------------------
 BYTE   PATT
  POIN2 Label_12_0138E82D
// 067   ----------------------------------------
 BYTE   PATT
  POIN2 Label_12_0138E842
// 068   ----------------------------------------
 BYTE   PATT
  POIN2 Label_12_0138E82D
// 069   ----------------------------------------
 BYTE   PATT
  POIN2 Label_12_0138E842
// 070   ----------------------------------------
 BYTE   PATT
  POIN2 Label_12_0138E82D
// 071   ----------------------------------------
 BYTE   PATT
  POIN2 Label_12_0138E842
// 072   ----------------------------------------
 BYTE   W04
 BYTE   GoTo
  POIN2 Label_12_0138E6C3
 BYTE   FINE

//******************************************************//
	ALIGN 4

song01B5:
	BYTE	13	// NumTrks
	BYTE	0	// NumBlks
	BYTE	song01B5_pri	// Priority
	BYTE	song01B5_rev	// Reverb.
    
	POIN2	song01B5_grp
    
	POIN2	song01B5_001
	POIN2	song01B5_002
	POIN2	song01B5_003
	POIN2	song01B5_004
	POIN2	song01B5_005
	POIN2	song01B5_006
	POIN2	song01B5_007
	POIN2	song01B5_008
	POIN2	song01B5_009
	POIN2	song01B5_010
	POIN2	song01B5_011
	POIN2	song01B5_012
	POIN2	song01B5_013

	
