//Event file generated from Sappy .s format.
	#include "MPlayDef.event"

	#define	song03B4_grp  voicegroup001
	#define	song03B4_pri  0
	#define	song03B4_rev  0
	#define	song03B4_mvl  127
	#define	song03B4_key  0
	#define	song03B4_tbs  1
	#define	song03B4_exg  0
	#define	song03B4_cmp  1

	// .rodata
	//	song03B4
	ALIGN 4


//**************** Track 1 (Midi-Chn.0) ****************//

song03B4_001:
// 000   ----------------------------------------
 BYTE   KEYSH   song03B4_key+0
Label_0_0172BE66:
 BYTE   TEMPO   154*song03B4_tbs/2
 BYTE   VOICE   40
 BYTE   VOL   37*song03B4_mvl/mxv
 BYTE   PAN   c_v-30
 BYTE   W96
// 001   ----------------------------------------
 BYTE   W96
// 002   ----------------------------------------
 BYTE   W96
// 003   ----------------------------------------
 BYTE   W96
// 004   ----------------------------------------
 BYTE   W96
// 005   ----------------------------------------
 BYTE   W96
// 006   ----------------------------------------
 BYTE   W96
// 007   ----------------------------------------
 BYTE   W96
// 008   ----------------------------------------
 BYTE   W96
// 009   ----------------------------------------
 BYTE   W96
// 010   ----------------------------------------
 BYTE   W96
// 011   ----------------------------------------
 BYTE   W96
// 012   ----------------------------------------
 BYTE   W96
// 013   ----------------------------------------
 BYTE   W96
// 014   ----------------------------------------
 BYTE   W96
// 015   ----------------------------------------
 BYTE   W96
// 016   ----------------------------------------
 BYTE   W96
// 017   ----------------------------------------
 BYTE   W96
// 018   ----------------------------------------
 BYTE   N09  Bn3  v120
 BYTE   W24
 BYTE   N12  Dn4
 BYTE   W12
 BYTE   N08  Cs4
 BYTE   W24
 BYTE   N12  An3  v108
 BYTE   W12
 BYTE   Bn3  v116
 BYTE   W12
 BYTE   Cs4
 BYTE   W12
// 019   ----------------------------------------
 BYTE   N09  Dn4  v120
 BYTE   W24
 BYTE   N12  En4
 BYTE   W12
 BYTE   Cs4  v124
 BYTE   W12
 BYTE   N09  Bn3  v127
 BYTE   W24
 BYTE   N12  Dn4  v120
 BYTE   W12
 BYTE   N08  Cs4
 BYTE   W12
// 020   ----------------------------------------
 BYTE   W12
 BYTE   N12  An3  v108
 BYTE   W12
 BYTE   Bn3  v116
 BYTE   W12
 BYTE   Cs4
 BYTE   W12
 BYTE   N09  Dn4  v120
 BYTE   W24
 BYTE   N12  En4
 BYTE   W12
 BYTE   Cs4  v112
 BYTE   W12
// 021   ----------------------------------------
 BYTE   Bn3  v108
 BYTE   W12
 BYTE   N06  Fs4  v120
 BYTE   W24
 BYTE   Fs4  v116
 BYTE   W24
 BYTE   N12  Dn4  v100
 BYTE   W12
 BYTE   En4  v127
 BYTE   W12
 BYTE   Dn4
 BYTE   W12
// 022   ----------------------------------------
 BYTE   N06  Cs4  v124
 BYTE   W24
 BYTE   N12  Bn3  v120
 BYTE   W12
 BYTE   An3
 BYTE   W12
 BYTE   Gn3  v124
 BYTE   W12
 BYTE   An3  v120
 BYTE   W12
 BYTE   Bn3
 BYTE   W12
 BYTE   Cs4
 BYTE   W12
// 023   ----------------------------------------
 BYTE   Dn4
 BYTE   W12
 BYTE   Bn3
 BYTE   W12
 BYTE   An3  v124
 BYTE   W12
 BYTE   Bn3  v127
 BYTE   W12
 BYTE   Cs4  v124
 BYTE   W12
 BYTE   Dn4
 BYTE   W12
 BYTE   N06  En4
 BYTE   W06
 BYTE   Fs4
 BYTE   W06
 BYTE   Gn4
 BYTE   W06
 BYTE   An4
 BYTE   W06
// 024   ----------------------------------------
 BYTE   Bn4  v127
 BYTE   W12
 BYTE   N06
 BYTE   W84
// 025   ----------------------------------------
 BYTE   W48
 BYTE   N36  Dn3  v080
 BYTE   W36
 BYTE   Gn3  v092
 BYTE   W12
// 026   ----------------------------------------
 BYTE   W24
 BYTE   An3  v080
 BYTE   W36
 BYTE   Bn3  v092
 BYTE   W36
// 027   ----------------------------------------
 BYTE   Fs3  v076
 BYTE   W36
 BYTE   An3  v092
 BYTE   W36
 BYTE   Cs4  v104
 BYTE   W24
// 028   ----------------------------------------
 BYTE   W12
 BYTE   Dn4
 BYTE   W36
 BYTE   N48  En4  v108
 BYTE   W48
// 029   ----------------------------------------
 BYTE   N24  Dn4  v100
 BYTE   W24
 BYTE   Cs4  v108
 BYTE   W24
 BYTE   Bn3  v092
 BYTE   W24
 BYTE   Cs4  v108
 BYTE   W24
// 030   ----------------------------------------
 BYTE   N36  Dn4  v092
 BYTE   W36
 BYTE   Fs4  v116
 BYTE   W36
 BYTE   En4
 BYTE   W24
// 031   ----------------------------------------
 BYTE   W12
 BYTE   N30  Cs4  v112
 BYTE   W36
 BYTE   N36  Fs4  v104
 BYTE   W36
 BYTE   Gn4
 BYTE   W12
// 032   ----------------------------------------
 BYTE   W24
 BYTE   An4
 BYTE   W36
 BYTE   Bn4  v100
 BYTE   W36
// 033   ----------------------------------------
 BYTE   Cs5  v108
 BYTE   W36
 BYTE   En5  v104
 BYTE   W36
 BYTE   Dn5
 BYTE   W24
// 034   ----------------------------------------
 BYTE   W12
 BYTE   Cs5
 BYTE   W36
 BYTE   N24  As4  v112
 BYTE   W24
 BYTE   Dn4  v104
 BYTE   W24
// 035   ----------------------------------------
 BYTE   Cn4  v112
 BYTE   W24
 BYTE   Dn4  v104
 BYTE   W24
 BYTE   En4
 BYTE   W24
 BYTE   Fn4  v108
 BYTE   W24
// 036   ----------------------------------------
 BYTE   En4  v104
 BYTE   W24
 BYTE   An4  v108
 BYTE   W24
 BYTE   As4  v116
 BYTE   W24
 BYTE   Cs5
 BYTE   W24
// 037   ----------------------------------------
 BYTE   Dn5  v120
 BYTE   W24
 BYTE   Cs5
 BYTE   W36
 BYTE   GoTo
  POIN2 Label_0_0172BE66
 BYTE   FINE

//**************** Track 2 (Midi-Chn.1) ****************//

song03B4_002:
// 000   ----------------------------------------
 BYTE   KEYSH   song03B4_key+0
Label_1_0172BF7E:
 BYTE   VOICE   42
 BYTE   VOL   47*song03B4_mvl/mxv
 BYTE   PAN   c_v+10
 BYTE   N06  Bn1  v127
 BYTE   W36
 BYTE   Bn1  v116
 BYTE   W60
// 001   ----------------------------------------
Label_1_0172BF8B:
 BYTE   W48
 BYTE   N06  Bn1  v127
 BYTE   W36
 BYTE   Bn1  v116
 BYTE   W12
 BYTE   PEND 
// 002   ----------------------------------------
 BYTE   W96
// 003   ----------------------------------------
Label_1_0172BF95:
 BYTE   N06  Gn1  v127
 BYTE   W72
 BYTE   An1
 BYTE   W24
 BYTE   PEND 
// 004   ----------------------------------------
 BYTE   W48
 BYTE   Gn1
 BYTE   W48
// 005   ----------------------------------------
 BYTE   W24
 BYTE   An1
 BYTE   W72
// 006   ----------------------------------------
 BYTE   Bn1
 BYTE   W36
 BYTE   Bn1  v116
 BYTE   W60
// 007   ----------------------------------------
 BYTE   PATT
  POIN2 Label_1_0172BF8B
// 008   ----------------------------------------
 BYTE   W96
// 009   ----------------------------------------
 BYTE   PATT
  POIN2 Label_1_0172BF95
// 010   ----------------------------------------
 BYTE   W48
 BYTE   N06  Gn1  v127
 BYTE   W48
// 011   ----------------------------------------
 BYTE   W24
 BYTE   An1
 BYTE   W72
// 012   ----------------------------------------
 BYTE   Bn1
 BYTE   W36
 BYTE   Bn1  v116
 BYTE   W36
 BYTE   Bn1  v127
 BYTE   W24
// 013   ----------------------------------------
 BYTE   Bn1  v116
 BYTE   W24
 BYTE   N06
 BYTE   W24
 BYTE   Bn1  v127
 BYTE   W36
 BYTE   Bn1  v116
 BYTE   W12
// 014   ----------------------------------------
 BYTE   W24
 BYTE   Bn1  v127
 BYTE   W24
 BYTE   Bn1  v116
 BYTE   W24
 BYTE   N06
 BYTE   W24
// 015   ----------------------------------------
Label_1_0172BFD6:
 BYTE   N06  Gn1  v127
 BYTE   W36
 BYTE   Gn1  v116
 BYTE   W36
 BYTE   An1  v127
 BYTE   W24
 BYTE   PEND 
// 016   ----------------------------------------
 BYTE   W12
 BYTE   An1  v116
 BYTE   W36
 BYTE   N05  Gn1  v127
 BYTE   W36
 BYTE   N06  Gn1  v116
 BYTE   W12
// 017   ----------------------------------------
 BYTE   W24
 BYTE   N05  An1  v127
 BYTE   W36
 BYTE   N06  An1  v116
 BYTE   W36
// 018   ----------------------------------------
 BYTE   N05  Bn1  v127
 BYTE   W36
 BYTE   N06  Bn1  v116
 BYTE   W36
 BYTE   N05  Bn1  v127
 BYTE   W24
// 019   ----------------------------------------
 BYTE   N06  Bn1  v116
 BYTE   W24
 BYTE   N06
 BYTE   W24
 BYTE   N05  Bn1  v127
 BYTE   W36
 BYTE   N06  Bn1  v116
 BYTE   W12
// 020   ----------------------------------------
 BYTE   W24
 BYTE   N05  Bn1  v127
 BYTE   W24
 BYTE   N06  Bn1  v116
 BYTE   W24
 BYTE   N06
 BYTE   W24
// 021   ----------------------------------------
 BYTE   PATT
  POIN2 Label_1_0172BFD6
// 022   ----------------------------------------
 BYTE   W12
 BYTE   N06  An1  v116
 BYTE   W36
 BYTE   Gn1  v127
 BYTE   W36
 BYTE   Gn1  v116
 BYTE   W12
// 023   ----------------------------------------
 BYTE   W24
 BYTE   An1  v127
 BYTE   W36
 BYTE   An1  v116
 BYTE   W36
// 024   ----------------------------------------
 BYTE   N02  Bn1  v127
 BYTE   W12
 BYTE   N02
 BYTE   W84
// 025   ----------------------------------------
 BYTE   N24  Bn2  v092
 BYTE   W24
 BYTE   An2  v088
 BYTE   W24
 BYTE   TIE  Gn2  v092
 BYTE   W48
// 026   ----------------------------------------
 BYTE   W60
 BYTE   EOT
 BYTE   N12  Fs2  v080
 BYTE   W12
 BYTE   N24  Gn2  v088
 BYTE   W24
// 027   ----------------------------------------
 BYTE   N72  Fs2  v092
 BYTE   W72
 BYTE   Bn2  v088
 BYTE   W24
// 028   ----------------------------------------
 BYTE   W48
 BYTE   En2
 BYTE   W48
// 029   ----------------------------------------
 BYTE   W24
 BYTE   Fs2
 BYTE   W72
// 030   ----------------------------------------
 BYTE   Bn2
 BYTE   W72
 BYTE   An2
 BYTE   W24
// 031   ----------------------------------------
 BYTE   W48
 BYTE   TIE  Gn2
 BYTE   W48
// 032   ----------------------------------------
 BYTE   W96
// 033   ----------------------------------------
 BYTE   EOT
 BYTE   N36  Fs2  v092
 BYTE   W36
 BYTE   Cs3  v088
 BYTE   W36
 BYTE   Bn2  v092
 BYTE   W24
// 034   ----------------------------------------
 BYTE   W12
 BYTE   An2  v084
 BYTE   W36
 BYTE   N72  As2  v088
 BYTE   W48
// 035   ----------------------------------------
 BYTE   W24
 BYTE   N24  Gn2
 BYTE   W24
 BYTE   An2  v084
 BYTE   W24
 BYTE   As2  v080
 BYTE   W24
// 036   ----------------------------------------
 BYTE   N72  Cn3  v092
 BYTE   W72
 BYTE   Cs3  v084
 BYTE   W24
// 037   ----------------------------------------
 BYTE   W60
 BYTE   GoTo
  POIN2 Label_1_0172BF7E
 BYTE   FINE

//**************** Track 3 (Midi-Chn.2) ****************//

song03B4_003:
// 000   ----------------------------------------
 BYTE   KEYSH   song03B4_key+0
Label_2_0172C092:
 BYTE   VOICE   48
 BYTE   VOL   38*song03B4_mvl/mxv
 BYTE   PAN   c_v+0
 BYTE   N09  Bn2  v127
 BYTE   W24
 BYTE   N11  Dn3  v120
 BYTE   W12
 BYTE   N08  Cs3  v116
 BYTE   W24
 BYTE   N11  An2  v104
 BYTE   W12
 BYTE   Bn2  v116
 BYTE   W12
 BYTE   Cs3
 BYTE   W12
// 001   ----------------------------------------
Label_2_0172C0AD:
 BYTE   N08  Dn3  v120
 BYTE   W24
 BYTE   N11  En3  v116
 BYTE   W12
 BYTE   Cs3  v120
 BYTE   W12
 BYTE   N09  Bn2  v127
 BYTE   W24
 BYTE   N11  Dn3  v120
 BYTE   W12
 BYTE   N08  Cs3  v116
 BYTE   W12
 BYTE   PEND 
// 002   ----------------------------------------
 BYTE   W12
 BYTE   N11  An2  v104
 BYTE   W12
 BYTE   Bn2  v116
 BYTE   W12
 BYTE   Cs3
 BYTE   W12
 BYTE   N08  Dn3  v120
 BYTE   W24
 BYTE   N11  En3  v116
 BYTE   W12
 BYTE   Cs3  v108
 BYTE   W12
// 003   ----------------------------------------
 BYTE   Bn2  v104
 BYTE   W12
 BYTE   N05  Fs3  v120
 BYTE   W24
 BYTE   Fs3  v112
 BYTE   W24
 BYTE   N11  Bn2  v100
 BYTE   W12
 BYTE   Cs3  v112
 BYTE   W12
 BYTE   Dn3
 BYTE   W12
// 004   ----------------------------------------
 BYTE   N05  En3  v120
 BYTE   W24
 BYTE   N11  Cs3  v116
 BYTE   W12
 BYTE   An2  v108
 BYTE   W12
 BYTE   Gn2  v120
 BYTE   W12
 BYTE   N05  Dn3  v116
 BYTE   W24
 BYTE   N05
 BYTE   W12
// 005   ----------------------------------------
 BYTE   W12
 BYTE   Bn2  v108
 BYTE   W12
 BYTE   N11  Cs3  v116
 BYTE   W12
 BYTE   An2
 BYTE   W12
 BYTE   Bn2  v112
 BYTE   W12
 BYTE   Cs3
 BYTE   W12
 BYTE   Dn3
 BYTE   W12
 BYTE   Cs3
 BYTE   W12
// 006   ----------------------------------------
 BYTE   N09  Bn2  v127
 BYTE   W24
 BYTE   N11  Dn3  v120
 BYTE   W12
 BYTE   N08  Cs3  v116
 BYTE   W24
 BYTE   N11  An2  v104
 BYTE   W12
 BYTE   Bn2  v116
 BYTE   W12
 BYTE   Cs3
 BYTE   W12
// 007   ----------------------------------------
 BYTE   PATT
  POIN2 Label_2_0172C0AD
// 008   ----------------------------------------
 BYTE   W12
 BYTE   N09  An2  v104
 BYTE   W12
 BYTE   Bn2  v116
 BYTE   W12
 BYTE   N11  Cs3
 BYTE   W12
 BYTE   N08  Dn3  v120
 BYTE   W24
 BYTE   N11  En3  v116
 BYTE   W12
 BYTE   Cs3  v108
 BYTE   W12
// 009   ----------------------------------------
 BYTE   Bn2  v104
 BYTE   W12
 BYTE   N05  Fs3  v120
 BYTE   W24
 BYTE   Fs3  v112
 BYTE   W24
 BYTE   N11  Dn3  v100
 BYTE   W12
 BYTE   En3  v112
 BYTE   W12
 BYTE   Dn3
 BYTE   W12
// 010   ----------------------------------------
 BYTE   N05  Cs3  v120
 BYTE   W24
 BYTE   N11  Bn2  v116
 BYTE   W12
 BYTE   An2  v108
 BYTE   W12
 BYTE   Gn2  v120
 BYTE   W12
 BYTE   N05  Dn3  v116
 BYTE   W24
 BYTE   N05
 BYTE   W12
// 011   ----------------------------------------
 BYTE   W12
 BYTE   Bn2  v108
 BYTE   W12
 BYTE   N11  Cs3  v116
 BYTE   W12
 BYTE   An2
 BYTE   W12
 BYTE   Bn2  v112
 BYTE   W12
 BYTE   Cs3
 BYTE   W12
 BYTE   N03  Bn2  v124
 BYTE   W03
 BYTE   Cs3  v120
 BYTE   W03
 BYTE   Dn3  v116
 BYTE   W03
 BYTE   En3  v124
 BYTE   W03
 BYTE   Fs3
 BYTE   W03
 BYTE   Gn3
 BYTE   W03
 BYTE   Gs3  v127
 BYTE   W03
 BYTE   An3
 BYTE   W03
// 012   ----------------------------------------
 BYTE   N09  Bn2
 BYTE   N09  Bn3
 BYTE   W24
 BYTE   N11  Dn3
 BYTE   N11  Dn4
 BYTE   W12
 BYTE   N08  Cs3
 BYTE   N08  Cs4
 BYTE   W24
 BYTE   N11  An2  v116
 BYTE   N11  An3
 BYTE   W12
 BYTE   Bn2  v124
 BYTE   N11  Bn3
 BYTE   W12
 BYTE   Cs3
 BYTE   N11  Cs4
 BYTE   W12
// 013   ----------------------------------------
 BYTE   N08  Dn3  v127
 BYTE   N08  Dn4
 BYTE   W24
 BYTE   N11  En3
 BYTE   N11  En4
 BYTE   W12
 BYTE   Cs3  v124
 BYTE   N11  Cs4
 BYTE   W12
 BYTE   N09  Bn2  v127
 BYTE   N09  Bn3
 BYTE   W24
 BYTE   N11  Dn3
 BYTE   N11  Dn4
 BYTE   W12
 BYTE   N08  Cs3
 BYTE   N08  Cs4
 BYTE   W12
// 014   ----------------------------------------
 BYTE   W12
 BYTE   N11  An2  v116
 BYTE   N11  An3
 BYTE   W12
 BYTE   Bn2  v124
 BYTE   N11  Bn3
 BYTE   W12
 BYTE   Cs3
 BYTE   N11  Cs4
 BYTE   W12
 BYTE   N08  Dn3  v127
 BYTE   N08  Dn4
 BYTE   W24
 BYTE   N11  En3
 BYTE   N11  En4
 BYTE   W12
 BYTE   Cs3  v116
 BYTE   N11  Cs4
 BYTE   W12
// 015   ----------------------------------------
 BYTE   Bn2
 BYTE   N11  Bn3
 BYTE   W12
 BYTE   N05  Fs3  v127
 BYTE   N05  Fs4
 BYTE   W24
 BYTE   Fs3  v124
 BYTE   N05  Fs4
 BYTE   W24
 BYTE   N11  Dn3  v120
 BYTE   N11  Dn4
 BYTE   W12
 BYTE   En3  v127
 BYTE   N11  En4
 BYTE   W12
 BYTE   Dn3  v120
 BYTE   N11  Dn4
 BYTE   W12
// 016   ----------------------------------------
 BYTE   N05  Cs3  v127
 BYTE   N05  Cs4
 BYTE   W24
 BYTE   N11  Bn2
 BYTE   N11  Bn3
 BYTE   W12
 BYTE   An2  v120
 BYTE   N11  An3
 BYTE   W12
 BYTE   Gn2  v127
 BYTE   N11  Gn3
 BYTE   W12
 BYTE   An2  v120
 BYTE   N11  An3
 BYTE   W12
 BYTE   Bn2
 BYTE   N11  Bn3
 BYTE   W12
 BYTE   Cs3
 BYTE   N11  Cs4
 BYTE   W12
// 017   ----------------------------------------
 BYTE   Dn3
 BYTE   N11  Dn4
 BYTE   W12
 BYTE   Bn2
 BYTE   N11  Bn3
 BYTE   W12
 BYTE   An2
 BYTE   N11  An3
 BYTE   W12
 BYTE   Bn2  v127
 BYTE   N11  Bn3
 BYTE   W12
 BYTE   Cs3
 BYTE   N11  Cs4
 BYTE   W12
 BYTE   Dn3
 BYTE   N11  Dn4
 BYTE   W12
 BYTE   En3
 BYTE   N11  En4
 BYTE   W12
 BYTE   Fs3
 BYTE   N11  Fs4
 BYTE   W12
// 018   ----------------------------------------
 BYTE   N09  Bn3
 BYTE   N09  Bn4
 BYTE   W24
 BYTE   N11  Dn4
 BYTE   N11  Dn5
 BYTE   W12
 BYTE   N08  Cs4
 BYTE   N08  Cs5
 BYTE   W24
 BYTE   N11  An3  v124
 BYTE   N11  An4
 BYTE   W12
 BYTE   Bn3  v127
 BYTE   N11  Bn4
 BYTE   W12
 BYTE   Cs4
 BYTE   N11  Cs5
 BYTE   W12
// 019   ----------------------------------------
 BYTE   N08  Dn4
 BYTE   N08  Dn5
 BYTE   W24
 BYTE   N11  En4
 BYTE   N11  En5
 BYTE   W12
 BYTE   Cs4
 BYTE   N11  Cs5
 BYTE   W12
 BYTE   N09  Bn3
 BYTE   N09  Bn4
 BYTE   W24
 BYTE   N11  Dn4
 BYTE   N11  Dn5
 BYTE   W12
 BYTE   N08  Cs4
 BYTE   N08  Cs5
 BYTE   W12
// 020   ----------------------------------------
 BYTE   W12
 BYTE   N11  An3  v124
 BYTE   N11  An4
 BYTE   W12
 BYTE   Bn3  v127
 BYTE   N11  Bn4
 BYTE   W12
 BYTE   Cs4
 BYTE   N11  Cs5
 BYTE   W12
 BYTE   N08  Dn4
 BYTE   N08  Dn5
 BYTE   W24
 BYTE   N11  En4
 BYTE   N11  En5
 BYTE   W12
 BYTE   Cs4
 BYTE   N11  Cs5
 BYTE   W12
// 021   ----------------------------------------
 BYTE   Bn3  v124
 BYTE   N11  Bn4
 BYTE   W12
 BYTE   N05  Fs4  v127
 BYTE   N05  Fs5
 BYTE   W24
 BYTE   Fs4
 BYTE   N05  Fs5
 BYTE   W24
 BYTE   N11  Dn4  v120
 BYTE   N11  Dn5
 BYTE   W12
 BYTE   En4  v127
 BYTE   N11  En5
 BYTE   W12
 BYTE   Dn4
 BYTE   N11  Dn5
 BYTE   W12
// 022   ----------------------------------------
 BYTE   N05  Cs4
 BYTE   N05  Cs5
 BYTE   W24
 BYTE   N11  Bn3
 BYTE   N11  Bn4
 BYTE   W12
 BYTE   An3
 BYTE   N11  An4
 BYTE   W12
 BYTE   Gn3
 BYTE   N11  Gn4
 BYTE   W12
 BYTE   An3
 BYTE   N11  An4
 BYTE   W12
 BYTE   Bn3
 BYTE   N11  Bn4
 BYTE   W12
 BYTE   Cs4
 BYTE   N11  Cs5
 BYTE   W12
// 023   ----------------------------------------
 BYTE   Dn4
 BYTE   N11  Dn5
 BYTE   W12
 BYTE   Bn3
 BYTE   N11  Bn4
 BYTE   W12
 BYTE   An3
 BYTE   N11  An4
 BYTE   W12
 BYTE   Bn3
 BYTE   N11  Bn4
 BYTE   W12
 BYTE   Cs4
 BYTE   N11  Cs5
 BYTE   W12
 BYTE   Dn4
 BYTE   N11  Dn5
 BYTE   W12
 BYTE   N05  En4
 BYTE   N05  En5
 BYTE   W06
 BYTE   Fs4
 BYTE   N05  Fs5
 BYTE   W06
 BYTE   Gn4
 BYTE   N05  Gn5
 BYTE   W06
 BYTE   An4
 BYTE   N05  An5
 BYTE   W06
// 024   ----------------------------------------
 BYTE   Bn4
 BYTE   N05  Bn5
 BYTE   W12
 BYTE   Bn4
 BYTE   N05  Bn5
 BYTE   W84
// 025   ----------------------------------------
 BYTE   W48
 BYTE   N32  Gn3  v096
 BYTE   W36
 BYTE   Bn3  v112
 BYTE   W12
// 026   ----------------------------------------
 BYTE   W24
 BYTE   Cs4  v096
 BYTE   W36
 BYTE   Dn4  v112
 BYTE   W36
// 027   ----------------------------------------
 BYTE   An3  v096
 BYTE   W36
 BYTE   Dn4  v112
 BYTE   W36
 BYTE   En4  v120
 BYTE   W24
// 028   ----------------------------------------
 BYTE   W12
 BYTE   Fs4
 BYTE   W36
 BYTE   N44  Gn4  v124
 BYTE   W48
// 029   ----------------------------------------
 BYTE   N23  Fs4  v116
 BYTE   W24
 BYTE   En4  v124
 BYTE   W24
 BYTE   Dn4  v112
 BYTE   W24
 BYTE   En4  v124
 BYTE   W24
// 030   ----------------------------------------
 BYTE   N32  Fs4  v108
 BYTE   W36
 BYTE   Dn5  v127
 BYTE   W36
 BYTE   Cs5
 BYTE   W24
// 031   ----------------------------------------
 BYTE   W12
 BYTE   N28  An4
 BYTE   W36
 BYTE   N32  An4  v124
 BYTE   W36
 BYTE   Bn4  v120
 BYTE   W12
// 032   ----------------------------------------
 BYTE   W24
 BYTE   Cs5  v124
 BYTE   W36
 BYTE   Dn5  v120
 BYTE   W36
// 033   ----------------------------------------
 BYTE   En5  v124
 BYTE   W36
 BYTE   Gn5  v120
 BYTE   W36
 BYTE   Fs5
 BYTE   W24
// 034   ----------------------------------------
 BYTE   W12
 BYTE   En5
 BYTE   W36
 BYTE   N23  Dn5  v127
 BYTE   W24
 BYTE   Fn4  v124
 BYTE   W24
// 035   ----------------------------------------
 BYTE   En4  v127
 BYTE   W24
 BYTE   Fn4  v124
 BYTE   W24
 BYTE   Gn4
 BYTE   W24
 BYTE   An4
 BYTE   W24
// 036   ----------------------------------------
 BYTE   Gn4  v120
 BYTE   W24
 BYTE   Cn5  v127
 BYTE   W24
 BYTE   Dn5
 BYTE   W24
 BYTE   En5
 BYTE   W24
// 037   ----------------------------------------
 BYTE   Fn5
 BYTE   W24
 BYTE   En5
 BYTE   W36
 BYTE   GoTo
  POIN2 Label_2_0172C092
 BYTE   FINE

//**************** Track 4 (Midi-Chn.3) ****************//

song03B4_004:
// 000   ----------------------------------------
 BYTE   KEYSH   song03B4_key+0
Label_3_0172C392:
 BYTE   VOICE   48
 BYTE   VOL   47*song03B4_mvl/mxv
 BYTE   PAN   c_v-30
 BYTE   W96
// 001   ----------------------------------------
 BYTE   W96
// 002   ----------------------------------------
 BYTE   W96
// 003   ----------------------------------------
 BYTE   W96
// 004   ----------------------------------------
 BYTE   W96
// 005   ----------------------------------------
 BYTE   W96
// 006   ----------------------------------------
 BYTE   W96
// 007   ----------------------------------------
 BYTE   W96
// 008   ----------------------------------------
 BYTE   W96
// 009   ----------------------------------------
 BYTE   W96
// 010   ----------------------------------------
 BYTE   W96
// 011   ----------------------------------------
 BYTE   W96
// 012   ----------------------------------------
 BYTE   W96
// 013   ----------------------------------------
 BYTE   W96
// 014   ----------------------------------------
 BYTE   W96
// 015   ----------------------------------------
 BYTE   W96
// 016   ----------------------------------------
 BYTE   W96
// 017   ----------------------------------------
 BYTE   W96
// 018   ----------------------------------------
 BYTE   W96
// 019   ----------------------------------------
 BYTE   W96
// 020   ----------------------------------------
 BYTE   W96
// 021   ----------------------------------------
 BYTE   W96
// 022   ----------------------------------------
 BYTE   W96
// 023   ----------------------------------------
 BYTE   W96
// 024   ----------------------------------------
 BYTE   W96
// 025   ----------------------------------------
 BYTE   W48
 BYTE   N36  Dn3  v096
 BYTE   W36
 BYTE   Gn3  v100
 BYTE   W12
// 026   ----------------------------------------
 BYTE   W24
 BYTE   An3  v096
 BYTE   W36
 BYTE   Bn3  v100
 BYTE   W36
// 027   ----------------------------------------
 BYTE   Fs3  v096
 BYTE   W36
 BYTE   Bn3  v104
 BYTE   W36
 BYTE   Cs4  v108
 BYTE   W24
// 028   ----------------------------------------
 BYTE   W12
 BYTE   Dn4
 BYTE   W36
 BYTE   N48  En4  v112
 BYTE   W48
// 029   ----------------------------------------
 BYTE   N24  Dn4  v104
 BYTE   W24
 BYTE   Cs4  v108
 BYTE   W24
 BYTE   Bn3
 BYTE   W24
 BYTE   Cs4
 BYTE   W24
// 030   ----------------------------------------
 BYTE   N36  Dn4
 BYTE   W36
 BYTE   Bn3  v116
 BYTE   W36
 BYTE   An3  v104
 BYTE   W24
// 031   ----------------------------------------
 BYTE   W12
 BYTE   N30  Fs3
 BYTE   W36
 BYTE   N36  Cs3
 BYTE   W36
 BYTE   Dn3
 BYTE   W12
// 032   ----------------------------------------
 BYTE   W24
 BYTE   En3
 BYTE   W36
 BYTE   Gn3
 BYTE   W36
// 033   ----------------------------------------
 BYTE   Fs3  v108
 BYTE   W36
 BYTE   As3  v104
 BYTE   W36
 BYTE   Bn3
 BYTE   W24
// 034   ----------------------------------------
 BYTE   W12
 BYTE   An3  v100
 BYTE   W36
 BYTE   N24  Fn3  v112
 BYTE   W24
 BYTE   Fn3  v104
 BYTE   W24
// 035   ----------------------------------------
 BYTE   Fn3  v112
 BYTE   W24
 BYTE   Dn3  v104
 BYTE   W24
 BYTE   En3
 BYTE   W24
 BYTE   Fn3  v108
 BYTE   W24
// 036   ----------------------------------------
 BYTE   N72  Gn3
 BYTE   W72
 BYTE   An3  v104
 BYTE   W24
// 037   ----------------------------------------
 BYTE   W60
 BYTE   GoTo
  POIN2 Label_3_0172C392
 BYTE   FINE

//**************** Track 5 (Midi-Chn.4) ****************//

song03B4_005:
// 000   ----------------------------------------
 BYTE   KEYSH   song03B4_key+0
Label_4_0172C422:
 BYTE   VOICE   41
 BYTE   VOL   42*song03B4_mvl/mxv
 BYTE   PAN   c_v+20
 BYTE   W96
// 001   ----------------------------------------
 BYTE   W96
// 002   ----------------------------------------
 BYTE   W96
// 003   ----------------------------------------
 BYTE   W96
// 004   ----------------------------------------
 BYTE   W96
// 005   ----------------------------------------
 BYTE   W96
// 006   ----------------------------------------
 BYTE   W96
// 007   ----------------------------------------
 BYTE   W96
// 008   ----------------------------------------
 BYTE   W96
// 009   ----------------------------------------
 BYTE   W96
// 010   ----------------------------------------
 BYTE   W96
// 011   ----------------------------------------
 BYTE   W72
 BYTE   N04  Bn1  v096
 BYTE   W03
 BYTE   Cs2  v092
 BYTE   W03
 BYTE   Dn2
 BYTE   W03
 BYTE   En2  v096
 BYTE   W03
 BYTE   Fs2  v100
 BYTE   W03
 BYTE   Gn2
 BYTE   W03
 BYTE   Gs2
 BYTE   W03
 BYTE   An2
 BYTE   W03
// 012   ----------------------------------------
 BYTE   N09  Bn2
 BYTE   W24
 BYTE   N12  Dn3
 BYTE   W12
 BYTE   N08  Cs3
 BYTE   W24
 BYTE   N12  An2  v088
 BYTE   W12
 BYTE   Bn2  v096
 BYTE   W12
 BYTE   Cs3
 BYTE   W12
// 013   ----------------------------------------
Label_4_0172C45B:
 BYTE   N09  Dn3  v100
 BYTE   W24
 BYTE   N12  En3
 BYTE   W12
 BYTE   Cs3
 BYTE   W12
 BYTE   N09  Bn2
 BYTE   W24
 BYTE   N12  Dn3
 BYTE   W12
 BYTE   N08  Cs3
 BYTE   W12
 BYTE   PEND 
// 014   ----------------------------------------
 BYTE   W12
 BYTE   N12  An2  v088
 BYTE   W12
 BYTE   Bn2  v096
 BYTE   W12
 BYTE   Cs3
 BYTE   W12
 BYTE   N09  Dn3  v100
 BYTE   W24
 BYTE   N12  En3
 BYTE   W12
 BYTE   Cs3  v092
 BYTE   W12
// 015   ----------------------------------------
 BYTE   Bn2  v088
 BYTE   W12
 BYTE   N06  Fs3  v100
 BYTE   W24
 BYTE   Fs3  v096
 BYTE   W24
 BYTE   N12  Dn3
 BYTE   W12
 BYTE   En3  v100
 BYTE   W12
 BYTE   Dn3  v096
 BYTE   W12
// 016   ----------------------------------------
 BYTE   N06  Cs3  v100
 BYTE   W24
 BYTE   N12  Bn2
 BYTE   W12
 BYTE   An2  v092
 BYTE   W12
 BYTE   Gn2  v100
 BYTE   W12
 BYTE   An2  v092
 BYTE   W12
 BYTE   Bn2
 BYTE   W12
 BYTE   Cs3
 BYTE   W12
// 017   ----------------------------------------
 BYTE   Dn3
 BYTE   W12
 BYTE   Bn2
 BYTE   W12
 BYTE   An2
 BYTE   W12
 BYTE   Bn2  v100
 BYTE   W12
 BYTE   Cs3
 BYTE   W12
 BYTE   Dn3
 BYTE   W12
 BYTE   En3
 BYTE   W12
 BYTE   Fs3
 BYTE   W12
// 018   ----------------------------------------
 BYTE   N09  Bn2
 BYTE   W24
 BYTE   N12  Dn3
 BYTE   W12
 BYTE   N08  Cs3
 BYTE   W24
 BYTE   N12  An2
 BYTE   W12
 BYTE   Bn2
 BYTE   W12
 BYTE   Cs3
 BYTE   W12
// 019   ----------------------------------------
 BYTE   PATT
  POIN2 Label_4_0172C45B
// 020   ----------------------------------------
 BYTE   W12
 BYTE   N12  An2  v100
 BYTE   W12
 BYTE   Bn2
 BYTE   W12
 BYTE   Cs3
 BYTE   W12
 BYTE   N09  Dn3
 BYTE   W24
 BYTE   N12  En3
 BYTE   W12
 BYTE   Cs3
 BYTE   W12
// 021   ----------------------------------------
 BYTE   Bn2
 BYTE   W12
 BYTE   N06  Fs3
 BYTE   W24
 BYTE   N06
 BYTE   W24
 BYTE   N12  Dn3  v092
 BYTE   W12
 BYTE   En3  v100
 BYTE   W12
 BYTE   Dn3
 BYTE   W12
// 022   ----------------------------------------
 BYTE   N06  Cs3
 BYTE   W24
 BYTE   N12  Bn2
 BYTE   W12
 BYTE   An2
 BYTE   W12
 BYTE   Gn2
 BYTE   W12
 BYTE   An2
 BYTE   W12
 BYTE   Bn2
 BYTE   W12
 BYTE   Cs3
 BYTE   W12
// 023   ----------------------------------------
 BYTE   Dn3
 BYTE   W12
 BYTE   Bn2
 BYTE   W12
 BYTE   An2
 BYTE   W12
 BYTE   Bn2
 BYTE   W12
 BYTE   Cs3
 BYTE   W12
 BYTE   Dn3
 BYTE   W12
 BYTE   N06  En3
 BYTE   W06
 BYTE   Fs3
 BYTE   W06
 BYTE   Gn3
 BYTE   W06
 BYTE   An3
 BYTE   W06
// 024   ----------------------------------------
 BYTE   Bn3
 BYTE   W12
 BYTE   N06
 BYTE   W84
// 025   ----------------------------------------
 BYTE   W48
 BYTE   N72  Bn2  v127
 BYTE   W48
// 026   ----------------------------------------
 BYTE   W24
 BYTE   N36
 BYTE   W36
 BYTE   N12  An2
 BYTE   W12
 BYTE   N24  Bn2
 BYTE   W24
// 027   ----------------------------------------
 BYTE   N72  An2
 BYTE   W72
 BYTE   Dn3
 BYTE   W24
// 028   ----------------------------------------
 BYTE   W48
 BYTE   Bn2
 BYTE   W48
// 029   ----------------------------------------
 BYTE   W24
 BYTE   N48  Cs3
 BYTE   W48
 BYTE   N24  As2
 BYTE   W24
// 030   ----------------------------------------
 BYTE   N36  Bn2
 BYTE   W36
 BYTE   Bn3
 BYTE   W36
 BYTE   An3
 BYTE   W24
// 031   ----------------------------------------
 BYTE   W12
 BYTE   Fs3
 BYTE   W36
 BYTE   Cs3
 BYTE   W36
 BYTE   TIE  Dn3
 BYTE   W12
// 032   ----------------------------------------
 BYTE   W96
// 033   ----------------------------------------
 BYTE   EOT
 BYTE   N36  Fs3
 BYTE   W36
 BYTE   N36
 BYTE   W36
 BYTE   N36
 BYTE   W24
// 034   ----------------------------------------
 BYTE   W12
 BYTE   En3
 BYTE   W36
 BYTE   N72  Fn3
 BYTE   W48
// 035   ----------------------------------------
 BYTE   W24
 BYTE   N24  Dn3
 BYTE   W24
 BYTE   En3
 BYTE   W24
 BYTE   Fn3
 BYTE   W24
// 036   ----------------------------------------
 BYTE   N72  Gn3
 BYTE   W72
 BYTE   An3
 BYTE   W24
// 037   ----------------------------------------
 BYTE   W60
 BYTE   GoTo
  POIN2 Label_4_0172C422
 BYTE   FINE

//**************** Track 6 (Midi-Chn.5) ****************//

song03B4_006:
// 000   ----------------------------------------
 BYTE   KEYSH   song03B4_key+0
Label_5_0172C56A:
 BYTE   VOICE   48
 BYTE   VOL   47*song03B4_mvl/mxv
 BYTE   PAN   c_v+30
 BYTE   W96
// 001   ----------------------------------------
 BYTE   W96
// 002   ----------------------------------------
 BYTE   W96
// 003   ----------------------------------------
 BYTE   W96
// 004   ----------------------------------------
 BYTE   W96
// 005   ----------------------------------------
 BYTE   W96
// 006   ----------------------------------------
 BYTE   W96
// 007   ----------------------------------------
 BYTE   W96
// 008   ----------------------------------------
 BYTE   W96
// 009   ----------------------------------------
 BYTE   W96
// 010   ----------------------------------------
 BYTE   W96
// 011   ----------------------------------------
 BYTE   W96
// 012   ----------------------------------------
Label_5_0172C57C:
 BYTE   N06  Cs1  v127
 BYTE   W36
 BYTE   N06
 BYTE   W06
 BYTE   Cs1  v104
 BYTE   W30
 BYTE   Cs1  v127
 BYTE   W24
 BYTE   PEND 
// 013   ----------------------------------------
Label_5_0172C589:
 BYTE   N06  Cs1  v127
 BYTE   W24
 BYTE   N06
 BYTE   W24
 BYTE   N06
 BYTE   W36
 BYTE   N06
 BYTE   W06
 BYTE   Cs1  v104
 BYTE   W06
 BYTE   PEND 
// 014   ----------------------------------------
Label_5_0172C597:
 BYTE   W24
 BYTE   N06  Cs1  v127
 BYTE   W24
 BYTE   N06
 BYTE   W24
 BYTE   N06
 BYTE   W24
 BYTE   PEND 
// 015   ----------------------------------------
 BYTE   PATT
  POIN2 Label_5_0172C57C
// 016   ----------------------------------------
 BYTE   PATT
  POIN2 Label_5_0172C589
// 017   ----------------------------------------
 BYTE   W96
// 018   ----------------------------------------
 BYTE   PATT
  POIN2 Label_5_0172C57C
// 019   ----------------------------------------
 BYTE   PATT
  POIN2 Label_5_0172C589
// 020   ----------------------------------------
 BYTE   PATT
  POIN2 Label_5_0172C597
// 021   ----------------------------------------
 BYTE   PATT
  POIN2 Label_5_0172C57C
// 022   ----------------------------------------
 BYTE   PATT
  POIN2 Label_5_0172C589
// 023   ----------------------------------------
 BYTE   W96
// 024   ----------------------------------------
 BYTE   N06  Cs1  v127
 BYTE   W36
 BYTE   Cs1  v120
 BYTE   W06
 BYTE   Cs1  v116
 BYTE   W30
 BYTE   Cs1  v127
 BYTE   W24
// 025   ----------------------------------------
 BYTE   W24
 BYTE   Cs1  v072
 BYTE   W72
// 026   ----------------------------------------
 BYTE   W96
// 027   ----------------------------------------
 BYTE   W96
// 028   ----------------------------------------
 BYTE   W96
// 029   ----------------------------------------
 BYTE   W96
// 030   ----------------------------------------
 BYTE   W96
// 031   ----------------------------------------
 BYTE   W96
// 032   ----------------------------------------
 BYTE   W96
// 033   ----------------------------------------
 BYTE   W96
// 034   ----------------------------------------
 BYTE   W96
// 035   ----------------------------------------
 BYTE   W96
// 036   ----------------------------------------
 BYTE   N06
 BYTE   W06
 BYTE   Cs1  v076
 BYTE   W06
 BYTE   N06
 BYTE   W06
 BYTE   N06
 BYTE   W06
 BYTE   N06
 BYTE   W06
 BYTE   Cs1  v080
 BYTE   W06
 BYTE   N06
 BYTE   W06
 BYTE   N06
 BYTE   W06
 BYTE   N06
 BYTE   W06
 BYTE   Cs1  v084
 BYTE   W06
 BYTE   N06
 BYTE   W06
 BYTE   N06
 BYTE   W06
 BYTE   N06
 BYTE   W06
 BYTE   N06
 BYTE   W06
 BYTE   N06
 BYTE   W06
 BYTE   Cs1  v088
 BYTE   W06
// 037   ----------------------------------------
 BYTE   N06
 BYTE   W06
 BYTE   N06
 BYTE   W06
 BYTE   Cs1  v092
 BYTE   W06
 BYTE   N06
 BYTE   W06
 BYTE   N06
 BYTE   W06
 BYTE   Cs1  v096
 BYTE   W06
 BYTE   Cs1  v100
 BYTE   W24
 BYTE   GoTo
  POIN2 Label_5_0172C56A
 BYTE   FINE

//**************** Track 7 (Midi-Chn.6) ****************//

song03B4_007:
// 000   ----------------------------------------
 BYTE   KEYSH   song03B4_key+0
Label_6_0172C61E:
 BYTE   VOICE   48
 BYTE   VOL   47*song03B4_mvl/mxv
 BYTE   PAN   c_v+20
 BYTE   W96
// 001   ----------------------------------------
 BYTE   W96
// 002   ----------------------------------------
 BYTE   W96
// 003   ----------------------------------------
 BYTE   W96
// 004   ----------------------------------------
 BYTE   W96
// 005   ----------------------------------------
 BYTE   W96
// 006   ----------------------------------------
 BYTE   W96
// 007   ----------------------------------------
 BYTE   W96
// 008   ----------------------------------------
 BYTE   W96
// 009   ----------------------------------------
 BYTE   W96
// 010   ----------------------------------------
 BYTE   W96
// 011   ----------------------------------------
 BYTE   W96
// 012   ----------------------------------------
Label_6_0172C630:
 BYTE   W24
 BYTE   N06  Fs1  v127
 BYTE   W24
 BYTE   N06
 BYTE   W48
 BYTE   PEND 
// 013   ----------------------------------------
Label_6_0172C638:
 BYTE   W36
 BYTE   N06  Fs1  v112
 BYTE   W06
 BYTE   Fs1  v108
 BYTE   W30
 BYTE   Fs1  v127
 BYTE   W24
 BYTE   PEND 
// 014   ----------------------------------------
Label_6_0172C644:
 BYTE   N06  Fs1  v127
 BYTE   W60
 BYTE   Fs1  v104
 BYTE   W06
 BYTE   N06
 BYTE   W18
 BYTE   N06
 BYTE   W06
 BYTE   N06
 BYTE   W06
 BYTE   PEND 
// 015   ----------------------------------------
 BYTE   PATT
  POIN2 Label_6_0172C630
// 016   ----------------------------------------
 BYTE   PATT
  POIN2 Label_6_0172C638
// 017   ----------------------------------------
 BYTE   N06  Fs1  v127
 BYTE   W24
 BYTE   Fs1  v116
 BYTE   W06
 BYTE   Fs1  v127
 BYTE   W12
 BYTE   Fs1  v120
 BYTE   W06
 BYTE   Fs1  v127
 BYTE   W12
 BYTE   N06
 BYTE   W12
 BYTE   N06
 BYTE   W12
 BYTE   N06
 BYTE   W06
 BYTE   N06
 BYTE   W06
// 018   ----------------------------------------
 BYTE   PATT
  POIN2 Label_6_0172C630
// 019   ----------------------------------------
 BYTE   PATT
  POIN2 Label_6_0172C638
// 020   ----------------------------------------
 BYTE   PATT
  POIN2 Label_6_0172C644
// 021   ----------------------------------------
 BYTE   PATT
  POIN2 Label_6_0172C630
// 022   ----------------------------------------
 BYTE   PATT
  POIN2 Label_6_0172C638
// 023   ----------------------------------------
 BYTE   N06  Fs1  v127
 BYTE   W12
 BYTE   N06
 BYTE   W12
 BYTE   Fs1  v116
 BYTE   W06
 BYTE   Fs1  v127
 BYTE   W12
 BYTE   Fs1  v120
 BYTE   W06
 BYTE   Fs1  v127
 BYTE   W12
 BYTE   N06
 BYTE   W12
 BYTE   N06
 BYTE   W12
 BYTE   N06
 BYTE   W06
 BYTE   N06
 BYTE   W06
// 024   ----------------------------------------
 BYTE   W24
 BYTE   N06
 BYTE   W24
 BYTE   N06
 BYTE   W12
 BYTE   N06
 BYTE   W24
 BYTE   N06
 BYTE   W06
 BYTE   Fs1  v120
 BYTE   W06
// 025   ----------------------------------------
 BYTE   N06
 BYTE   W06
 BYTE   Fs1  v124
 BYTE   W06
 BYTE   Fs1  v116
 BYTE   W06
 BYTE   Fs1  v124
 BYTE   W06
 BYTE   Fs1  v116
 BYTE   W06
 BYTE   Fs1  v120
 BYTE   W06
 BYTE   N06
 BYTE   W06
 BYTE   N06
 BYTE   W06
 BYTE   Fs1  v127
 BYTE   W48
// 026   ----------------------------------------
 BYTE   W96
// 027   ----------------------------------------
 BYTE   W96
// 028   ----------------------------------------
 BYTE   W96
// 029   ----------------------------------------
 BYTE   W96
// 030   ----------------------------------------
 BYTE   W96
// 031   ----------------------------------------
 BYTE   W96
// 032   ----------------------------------------
 BYTE   W96
// 033   ----------------------------------------
 BYTE   W96
// 034   ----------------------------------------
 BYTE   W96
// 035   ----------------------------------------
 BYTE   W96
// 036   ----------------------------------------
 BYTE   Gn1  v076
 BYTE   W06
 BYTE   Gn1  v080
 BYTE   W06
 BYTE   N06
 BYTE   W06
 BYTE   N06
 BYTE   W06
 BYTE   N06
 BYTE   W06
 BYTE   N06
 BYTE   W06
 BYTE   Gn1  v084
 BYTE   W06
 BYTE   N06
 BYTE   W06
 BYTE   N06
 BYTE   W06
 BYTE   N06
 BYTE   W06
 BYTE   N06
 BYTE   W06
 BYTE   Gn1  v088
 BYTE   W06
 BYTE   N06
 BYTE   W06
 BYTE   N06
 BYTE   W06
 BYTE   Gn1  v092
 BYTE   W06
 BYTE   N06
 BYTE   W06
// 037   ----------------------------------------
 BYTE   N06
 BYTE   W06
 BYTE   N06
 BYTE   W06
 BYTE   N06
 BYTE   W06
 BYTE   Gn1  v096
 BYTE   W06
 BYTE   N06
 BYTE   W06
 BYTE   Gn1  v100
 BYTE   W06
 BYTE   N06
 BYTE   W06
 BYTE   Gn1  v108
 BYTE   W18
 BYTE   GoTo
  POIN2 Label_6_0172C61E
 BYTE   FINE

//**************** Track 8 (Midi-Chn.7) ****************//

song03B4_008:
// 000   ----------------------------------------
 BYTE   KEYSH   song03B4_key+0
Label_7_0172C716:
 BYTE   VOICE   45
 BYTE   VOL   47*song03B4_mvl/mxv
 BYTE   PAN   c_v+0
 BYTE   N09  Bn0  v124
 BYTE   N09  Bn1
 BYTE   W36
 BYTE   N10  Bn0  v116
 BYTE   N10  Bn1
 BYTE   W60
// 001   ----------------------------------------
Label_7_0172C728:
 BYTE   W48
 BYTE   N09  Bn0  v124
 BYTE   N09  Bn1
 BYTE   W36
 BYTE   N10  Bn0  v116
 BYTE   N10  Bn1
 BYTE   W12
 BYTE   PEND 
// 002   ----------------------------------------
 BYTE   W96
// 003   ----------------------------------------
Label_7_0172C737:
 BYTE   N09  Gn0  v124
 BYTE   N09  Gn1
 BYTE   W72
 BYTE   An0
 BYTE   N09  An1
 BYTE   W24
 BYTE   PEND 
// 004   ----------------------------------------
Label_7_0172C742:
 BYTE   W48
 BYTE   N09  Gn0  v124
 BYTE   N09  Gn1
 BYTE   W48
 BYTE   PEND 
// 005   ----------------------------------------
Label_7_0172C74A:
 BYTE   W24
 BYTE   N09  An0  v124
 BYTE   N09  An1
 BYTE   W72
 BYTE   PEND 
// 006   ----------------------------------------
 BYTE   Bn0
 BYTE   N09  Bn1
 BYTE   W36
 BYTE   N10  Bn0  v116
 BYTE   N10  Bn1
 BYTE   W60
// 007   ----------------------------------------
 BYTE   PATT
  POIN2 Label_7_0172C728
// 008   ----------------------------------------
 BYTE   W96
// 009   ----------------------------------------
 BYTE   PATT
  POIN2 Label_7_0172C737
// 010   ----------------------------------------
 BYTE   PATT
  POIN2 Label_7_0172C742
// 011   ----------------------------------------
 BYTE   PATT
  POIN2 Label_7_0172C74A
// 012   ----------------------------------------
 BYTE   N12  Bn0  v124
 BYTE   N12  Bn1
 BYTE   W96
// 013   ----------------------------------------
 BYTE   W48
 BYTE   N18  Bn0
 BYTE   N18  Bn1
 BYTE   W48
// 014   ----------------------------------------
 BYTE   W96
// 015   ----------------------------------------
 BYTE   N09  Gn0  v108
 BYTE   N12  Gn1  v127
 BYTE   W36
 BYTE   N10  Gn0  v096
 BYTE   N12  Gn1  v127
 BYTE   W36
 BYTE   N09  An0  v108
 BYTE   N06  An1  v127
 BYTE   W24
// 016   ----------------------------------------
 BYTE   N06
 BYTE   W12
 BYTE   N10  An0  v096
 BYTE   W12
 BYTE   N06  An1  v127
 BYTE   W12
 BYTE   N06
 BYTE   W06
 BYTE   N06
 BYTE   W06
 BYTE   N09  Gn0  v108
 BYTE   N06  Gn1  v127
 BYTE   W24
 BYTE   N06
 BYTE   W12
 BYTE   N10  Gn0  v096
 BYTE   N06  Gn1  v127
 BYTE   W06
 BYTE   N06
 BYTE   W06
// 017   ----------------------------------------
 BYTE   N06
 BYTE   W24
 BYTE   N09  An0  v108
 BYTE   N06  An1  v127
 BYTE   W24
 BYTE   N06
 BYTE   W12
 BYTE   N10  An0  v096
 BYTE   N06  An1  v127
 BYTE   W12
 BYTE   N06
 BYTE   W12
 BYTE   N06
 BYTE   W12
// 018   ----------------------------------------
 BYTE   N09  Bn0  v108
 BYTE   N06  Bn1  v127
 BYTE   W24
 BYTE   N06
 BYTE   W12
 BYTE   N10  Bn0  v096
 BYTE   N06  Fs1  v116
 BYTE   W06
 BYTE   N06
 BYTE   W06
 BYTE   Bn1  v127
 BYTE   W24
 BYTE   N09  Bn0  v108
 BYTE   N06  Bn1  v127
 BYTE   W24
// 019   ----------------------------------------
 BYTE   N10  Bn0  v096
 BYTE   N06  Bn1  v127
 BYTE   W12
 BYTE   Fs1  v116
 BYTE   W06
 BYTE   N06
 BYTE   W06
 BYTE   N10  Bn0  v096
 BYTE   N06  Bn1  v127
 BYTE   W12
 BYTE   Fs1
 BYTE   W12
 BYTE   N09  Bn0  v108
 BYTE   N06  Bn1  v127
 BYTE   W24
 BYTE   N06
 BYTE   W12
 BYTE   N10  Bn0  v096
 BYTE   N06  Fs1  v116
 BYTE   W06
 BYTE   N06
 BYTE   W06
// 020   ----------------------------------------
 BYTE   Bn1  v127
 BYTE   W12
 BYTE   Fs1
 BYTE   W12
 BYTE   N09  Bn0  v108
 BYTE   N06  Bn1  v127
 BYTE   W24
 BYTE   N10  Bn0  v096
 BYTE   N06  Bn1  v127
 BYTE   W12
 BYTE   Fs1
 BYTE   W12
 BYTE   N10  Bn0  v096
 BYTE   N06  Bn1  v127
 BYTE   W12
 BYTE   Fs1
 BYTE   W12
// 021   ----------------------------------------
 BYTE   N09  Gn0  v108
 BYTE   N06  Gn1  v127
 BYTE   W24
 BYTE   Bn1
 BYTE   W12
 BYTE   N10  Gn0  v096
 BYTE   N06  Gn1  v127
 BYTE   W24
 BYTE   Gn1  v120
 BYTE   W12
 BYTE   N09  An0  v108
 BYTE   N06  An1  v127
 BYTE   W24
// 022   ----------------------------------------
 BYTE   N06
 BYTE   W12
 BYTE   N10  An0  v096
 BYTE   W12
 BYTE   N06  An1  v127
 BYTE   W24
 BYTE   N09  Gn0  v108
 BYTE   N06  Gn1  v127
 BYTE   W24
 BYTE   Bn1
 BYTE   W12
 BYTE   N10  Gn0  v096
 BYTE   N06  Gn1  v127
 BYTE   W12
// 023   ----------------------------------------
 BYTE   W12
 BYTE   Gn1  v120
 BYTE   W12
 BYTE   N09  An0  v108
 BYTE   N06  An1  v127
 BYTE   W18
 BYTE   An1  v104
 BYTE   W06
 BYTE   An1  v127
 BYTE   W12
 BYTE   N10  An0  v096
 BYTE   W12
 BYTE   N06  An1  v127
 BYTE   W12
 BYTE   N06
 BYTE   W12
// 024   ----------------------------------------
 BYTE   Bn0  v112
 BYTE   N06  Bn1  v127
 BYTE   W12
 BYTE   Bn0  v108
 BYTE   W12
 BYTE   Bn1  v127
 BYTE   W12
 BYTE   Fs1
 BYTE   W06
 BYTE   Fs1  v124
 BYTE   W06
 BYTE   Bn1  v127
 BYTE   W12
 BYTE   N06
 BYTE   W12
 BYTE   Fs1
 BYTE   W12
 BYTE   Bn1  v124
 BYTE   W06
 BYTE   Bn1  v120
 BYTE   W06
// 025   ----------------------------------------
 BYTE   Bn1  v124
 BYTE   W06
 BYTE   Bn1  v120
 BYTE   W06
 BYTE   Bn1  v127
 BYTE   W06
 BYTE   Bn1  v120
 BYTE   W06
 BYTE   Fs1  v127
 BYTE   N06  Bn1
 BYTE   W06
 BYTE   Bn1  v116
 BYTE   W06
 BYTE   Bn1  v124
 BYTE   W06
 BYTE   Bn1  v116
 BYTE   W06
 BYTE   N24  Gn1  v127
 BYTE   W48
// 026   ----------------------------------------
 BYTE   W96
// 027   ----------------------------------------
 BYTE   Fs1
 BYTE   W96
// 028   ----------------------------------------
 BYTE   W48
 BYTE   En1
 BYTE   W48
// 029   ----------------------------------------
 BYTE   W96
// 030   ----------------------------------------
 BYTE   Fs1
 BYTE   W96
// 031   ----------------------------------------
 BYTE   W48
 BYTE   Dn1
 BYTE   W48
// 032   ----------------------------------------
 BYTE   W96
// 033   ----------------------------------------
 BYTE   Fs1
 BYTE   W96
// 034   ----------------------------------------
 BYTE   W48
 BYTE   Fn1
 BYTE   W48
// 035   ----------------------------------------
 BYTE   W96
// 036   ----------------------------------------
 BYTE   Gn1
 BYTE   W96
// 037   ----------------------------------------
 BYTE   W60
 BYTE   GoTo
  POIN2 Label_7_0172C716
 BYTE   FINE

//**************** Track 9 (Midi-Chn.8) ****************//

song03B4_009:
// 000   ----------------------------------------
 BYTE   KEYSH   song03B4_key+0
Label_8_0172C8D6:
 BYTE   VOICE   42
 BYTE   VOL   26*song03B4_mvl/mxv
 BYTE   PAN   c_v+0
 BYTE   N09  Bn2  v127
 BYTE   W24
 BYTE   N11  Dn3  v120
 BYTE   W12
 BYTE   N08  Cs3  v116
 BYTE   W24
 BYTE   N11  An2  v104
 BYTE   W12
 BYTE   Bn2  v116
 BYTE   W12
 BYTE   Cs3
 BYTE   W12
// 001   ----------------------------------------
Label_8_0172C8F1:
 BYTE   N08  Dn3  v120
 BYTE   W24
 BYTE   N11  En3  v116
 BYTE   W12
 BYTE   Cs3  v120
 BYTE   W12
 BYTE   N09  Bn2  v127
 BYTE   W24
 BYTE   N11  Dn3  v120
 BYTE   W12
 BYTE   N08  Cs3  v116
 BYTE   W12
 BYTE   PEND 
// 002   ----------------------------------------
 BYTE   W12
 BYTE   N11  An2  v104
 BYTE   W12
 BYTE   Bn2  v116
 BYTE   W12
 BYTE   Cs3
 BYTE   W12
 BYTE   N08  Dn3  v120
 BYTE   W24
 BYTE   N11  En3  v116
 BYTE   W12
 BYTE   Cs3  v108
 BYTE   W12
// 003   ----------------------------------------
 BYTE   Bn2  v104
 BYTE   W12
 BYTE   N05  Fs3  v120
 BYTE   W24
 BYTE   Fs3  v112
 BYTE   W24
 BYTE   N11  Bn2  v100
 BYTE   W12
 BYTE   Cs3  v112
 BYTE   W12
 BYTE   Dn3
 BYTE   W12
// 004   ----------------------------------------
 BYTE   N05  En3  v120
 BYTE   W24
 BYTE   N11  Cs3  v116
 BYTE   W12
 BYTE   An2  v108
 BYTE   W12
 BYTE   Gn2  v120
 BYTE   W12
 BYTE   N05  Dn3  v116
 BYTE   W24
 BYTE   N05
 BYTE   W12
// 005   ----------------------------------------
 BYTE   W12
 BYTE   Bn2  v108
 BYTE   W12
 BYTE   N11  Cs3  v116
 BYTE   W12
 BYTE   An2
 BYTE   W12
 BYTE   Bn2  v112
 BYTE   W12
 BYTE   Cs3
 BYTE   W12
 BYTE   Dn3
 BYTE   W12
 BYTE   Cs3
 BYTE   W12
// 006   ----------------------------------------
 BYTE   N09  Bn2  v127
 BYTE   W24
 BYTE   N11  Dn3  v120
 BYTE   W12
 BYTE   N08  Cs3  v116
 BYTE   W24
 BYTE   N11  An2  v104
 BYTE   W12
 BYTE   Bn2  v116
 BYTE   W12
 BYTE   Cs3
 BYTE   W12
// 007   ----------------------------------------
 BYTE   PATT
  POIN2 Label_8_0172C8F1
// 008   ----------------------------------------
 BYTE   W12
 BYTE   N09  An2  v104
 BYTE   W12
 BYTE   Bn2  v116
 BYTE   W12
 BYTE   N11  Cs3
 BYTE   W12
 BYTE   N08  Dn3  v120
 BYTE   W24
 BYTE   N11  En3  v116
 BYTE   W12
 BYTE   Cs3  v108
 BYTE   W12
// 009   ----------------------------------------
 BYTE   Bn2  v104
 BYTE   W12
 BYTE   N05  Fs3  v120
 BYTE   W24
 BYTE   Fs3  v112
 BYTE   W24
 BYTE   N11  Dn3  v100
 BYTE   W12
 BYTE   En3  v112
 BYTE   W12
 BYTE   Dn3
 BYTE   W12
// 010   ----------------------------------------
 BYTE   N05  Cs3  v120
 BYTE   W24
 BYTE   N11  Bn2  v116
 BYTE   W12
 BYTE   An2  v108
 BYTE   W12
 BYTE   Gn2  v120
 BYTE   W12
 BYTE   N05  Dn3  v116
 BYTE   W24
 BYTE   N05
 BYTE   W12
// 011   ----------------------------------------
 BYTE   W12
 BYTE   Bn2  v108
 BYTE   W12
 BYTE   N11  Cs3  v116
 BYTE   W12
 BYTE   An2
 BYTE   W12
 BYTE   Bn2  v112
 BYTE   W12
 BYTE   Cs3
 BYTE   W12
 BYTE   N03  Bn2  v124
 BYTE   W03
 BYTE   Cs3  v120
 BYTE   W03
 BYTE   Dn3  v116
 BYTE   W03
 BYTE   En3  v124
 BYTE   W03
 BYTE   Fs3
 BYTE   W03
 BYTE   Gn3
 BYTE   W03
 BYTE   Gs3  v127
 BYTE   W03
 BYTE   An3
 BYTE   W03
// 012   ----------------------------------------
 BYTE   N09  Bn2
 BYTE   N09  Bn3
 BYTE   W24
 BYTE   N11  Dn3
 BYTE   N11  Dn4
 BYTE   W12
 BYTE   N08  Cs3
 BYTE   N08  Cs4
 BYTE   W24
 BYTE   N11  An2  v116
 BYTE   N11  An3
 BYTE   W12
 BYTE   Bn2  v124
 BYTE   N11  Bn3
 BYTE   W12
 BYTE   Cs3
 BYTE   N11  Cs4
 BYTE   W12
// 013   ----------------------------------------
 BYTE   N08  Dn3  v127
 BYTE   N08  Dn4
 BYTE   W24
 BYTE   N11  En3
 BYTE   N11  En4
 BYTE   W12
 BYTE   Cs3  v124
 BYTE   N11  Cs4
 BYTE   W12
 BYTE   N09  Bn2  v127
 BYTE   N09  Bn3
 BYTE   W24
 BYTE   N11  Dn3
 BYTE   N11  Dn4
 BYTE   W12
 BYTE   N08  Cs3
 BYTE   N08  Cs4
 BYTE   W12
// 014   ----------------------------------------
 BYTE   W12
 BYTE   N11  An2  v116
 BYTE   N11  An3
 BYTE   W12
 BYTE   Bn2  v124
 BYTE   N11  Bn3
 BYTE   W12
 BYTE   Cs3
 BYTE   N11  Cs4
 BYTE   W12
 BYTE   N08  Dn3  v127
 BYTE   N08  Dn4
 BYTE   W24
 BYTE   N11  En3
 BYTE   N11  En4
 BYTE   W12
 BYTE   Cs3  v116
 BYTE   N11  Cs4
 BYTE   W12
// 015   ----------------------------------------
 BYTE   Bn2
 BYTE   N11  Bn3
 BYTE   W12
 BYTE   N05  Fs3  v127
 BYTE   N05  Fs4
 BYTE   W24
 BYTE   Fs3  v124
 BYTE   N05  Fs4
 BYTE   W24
 BYTE   N11  Dn3  v120
 BYTE   N11  Dn4
 BYTE   W12
 BYTE   En3  v127
 BYTE   N11  En4
 BYTE   W12
 BYTE   Dn3  v120
 BYTE   N11  Dn4
 BYTE   W12
// 016   ----------------------------------------
 BYTE   N05  Cs3  v127
 BYTE   N05  Cs4
 BYTE   W24
 BYTE   N11  Bn2
 BYTE   N11  Bn3
 BYTE   W12
 BYTE   An2  v120
 BYTE   N11  An3
 BYTE   W12
 BYTE   Gn2  v127
 BYTE   N11  Gn3
 BYTE   W12
 BYTE   An2  v120
 BYTE   N11  An3
 BYTE   W12
 BYTE   Bn2
 BYTE   N11  Bn3
 BYTE   W12
 BYTE   Cs3
 BYTE   N11  Cs4
 BYTE   W12
// 017   ----------------------------------------
 BYTE   Dn3
 BYTE   N11  Dn4
 BYTE   W12
 BYTE   Bn2
 BYTE   N11  Bn3
 BYTE   W12
 BYTE   An2
 BYTE   N11  An3
 BYTE   W12
 BYTE   Bn2  v127
 BYTE   N11  Bn3
 BYTE   W12
 BYTE   Cs3
 BYTE   N11  Cs4
 BYTE   W12
 BYTE   Dn3
 BYTE   N11  Dn4
 BYTE   W12
 BYTE   En3
 BYTE   N11  En4
 BYTE   W12
 BYTE   Fs3
 BYTE   N11  Fs4
 BYTE   W12
// 018   ----------------------------------------
 BYTE   N09  Bn3
 BYTE   N09  Bn4
 BYTE   W24
 BYTE   N11  Dn4
 BYTE   N11  Dn5
 BYTE   W12
 BYTE   N08  Cs4
 BYTE   N08  Cs5
 BYTE   W24
 BYTE   N11  An3  v124
 BYTE   N11  An4
 BYTE   W12
 BYTE   Bn3  v127
 BYTE   N11  Bn4
 BYTE   W12
 BYTE   Cs4
 BYTE   N11  Cs5
 BYTE   W12
// 019   ----------------------------------------
 BYTE   N08  Dn4
 BYTE   N08  Dn5
 BYTE   W24
 BYTE   N11  En4
 BYTE   N11  En5
 BYTE   W12
 BYTE   Cs4
 BYTE   N11  Cs5
 BYTE   W12
 BYTE   N09  Bn3
 BYTE   N09  Bn4
 BYTE   W24
 BYTE   N11  Dn4
 BYTE   N11  Dn5
 BYTE   W12
 BYTE   N08  Cs4
 BYTE   N08  Cs5
 BYTE   W12
// 020   ----------------------------------------
 BYTE   W12
 BYTE   N11  An3  v124
 BYTE   N11  An4
 BYTE   W12
 BYTE   Bn3  v127
 BYTE   N11  Bn4
 BYTE   W12
 BYTE   Cs4
 BYTE   N11  Cs5
 BYTE   W12
 BYTE   N08  Dn4
 BYTE   N08  Dn5
 BYTE   W24
 BYTE   N11  En4
 BYTE   N11  En5
 BYTE   W12
 BYTE   Cs4
 BYTE   N11  Cs5
 BYTE   W12
// 021   ----------------------------------------
 BYTE   Bn3  v124
 BYTE   N11  Bn4
 BYTE   W12
 BYTE   N05  Fs4  v127
 BYTE   N05  Fs5
 BYTE   W24
 BYTE   Fs4
 BYTE   N05  Fs5
 BYTE   W24
 BYTE   N11  Dn4  v120
 BYTE   N11  Dn5
 BYTE   W12
 BYTE   En4  v127
 BYTE   N11  En5
 BYTE   W12
 BYTE   Dn4
 BYTE   N11  Dn5
 BYTE   W12
// 022   ----------------------------------------
 BYTE   N05  Cs4
 BYTE   N05  Cs5
 BYTE   W24
 BYTE   N11  Bn3
 BYTE   N11  Bn4
 BYTE   W12
 BYTE   An3
 BYTE   N11  An4
 BYTE   W12
 BYTE   Gn3
 BYTE   N11  Gn4
 BYTE   W12
 BYTE   An3
 BYTE   N11  An4
 BYTE   W12
 BYTE   Bn3
 BYTE   N11  Bn4
 BYTE   W12
 BYTE   Cs4
 BYTE   N11  Cs5
 BYTE   W12
// 023   ----------------------------------------
 BYTE   Dn4
 BYTE   N11  Dn5
 BYTE   W12
 BYTE   Bn3
 BYTE   N11  Bn4
 BYTE   W12
 BYTE   An3
 BYTE   N11  An4
 BYTE   W12
 BYTE   Bn3
 BYTE   N11  Bn4
 BYTE   W12
 BYTE   Cs4
 BYTE   N11  Cs5
 BYTE   W12
 BYTE   Dn4
 BYTE   N11  Dn5
 BYTE   W12
 BYTE   N05  En4
 BYTE   N05  En5
 BYTE   W06
 BYTE   Fs4
 BYTE   N05  Fs5
 BYTE   W06
 BYTE   Gn4
 BYTE   N05  Gn5
 BYTE   W06
 BYTE   An4
 BYTE   N05  An5
 BYTE   W06
// 024   ----------------------------------------
 BYTE   Bn4
 BYTE   N05  Bn5
 BYTE   W12
 BYTE   Bn4
 BYTE   N05  Bn5
 BYTE   W84
// 025   ----------------------------------------
 BYTE   W48
 BYTE   N32  Gn3  v096
 BYTE   W36
 BYTE   Bn3  v112
 BYTE   W12
// 026   ----------------------------------------
 BYTE   W24
 BYTE   Cs4  v096
 BYTE   W36
 BYTE   Dn4  v112
 BYTE   W36
// 027   ----------------------------------------
 BYTE   An3  v096
 BYTE   W36
 BYTE   Dn4  v112
 BYTE   W36
 BYTE   En4  v120
 BYTE   W24
// 028   ----------------------------------------
 BYTE   W12
 BYTE   Fs4
 BYTE   W36
 BYTE   N44  Gn4  v124
 BYTE   W48
// 029   ----------------------------------------
 BYTE   N23  Fs4  v116
 BYTE   W24
 BYTE   En4  v124
 BYTE   W24
 BYTE   Dn4  v112
 BYTE   W24
 BYTE   En4  v124
 BYTE   W24
// 030   ----------------------------------------
 BYTE   N32  Fs4  v108
 BYTE   W36
 BYTE   Dn5  v127
 BYTE   W36
 BYTE   Cs5
 BYTE   W24
// 031   ----------------------------------------
 BYTE   W12
 BYTE   N28  An4
 BYTE   W36
 BYTE   N32  An4  v124
 BYTE   W36
 BYTE   Bn4  v120
 BYTE   W12
// 032   ----------------------------------------
 BYTE   W24
 BYTE   Cs5  v124
 BYTE   W36
 BYTE   Dn5  v120
 BYTE   W36
// 033   ----------------------------------------
 BYTE   En5  v124
 BYTE   W36
 BYTE   Gn5  v120
 BYTE   W36
 BYTE   Fs5
 BYTE   W24
// 034   ----------------------------------------
 BYTE   W12
 BYTE   En5
 BYTE   W36
 BYTE   N23  Dn5  v127
 BYTE   W24
 BYTE   Fn4  v124
 BYTE   W24
// 035   ----------------------------------------
 BYTE   En4  v127
 BYTE   W24
 BYTE   Fn4  v124
 BYTE   W24
 BYTE   Gn4
 BYTE   W24
 BYTE   An4
 BYTE   W24
// 036   ----------------------------------------
 BYTE   Gn4  v120
 BYTE   W24
 BYTE   Cn5  v127
 BYTE   W24
 BYTE   Dn5
 BYTE   W24
 BYTE   En5
 BYTE   W24
// 037   ----------------------------------------
 BYTE   Fn5
 BYTE   W24
 BYTE   En5
 BYTE   W36
 BYTE   GoTo
  POIN2 Label_8_0172C8D6
 BYTE   FINE

//**************** Track 10 (Midi-Chn.9) ****************//

song03B4_010:
// 000   ----------------------------------------
 BYTE   KEYSH   song03B4_key+0
Label_9_0172CBD6:
 BYTE   VOICE   48
 BYTE   VOL   25*song03B4_mvl/mxv
 BYTE   PAN   c_v+30
 BYTE   W06
 BYTE   N09  Bn2  v127
 BYTE   W24
 BYTE   N12  Dn3  v120
 BYTE   W12
 BYTE   N08  Cs3  v116
 BYTE   W24
 BYTE   N12  An2  v104
 BYTE   W12
 BYTE   Bn2  v116
 BYTE   W12
 BYTE   Cs3
 BYTE   W06
// 001   ----------------------------------------
Label_9_0172CBF2:
 BYTE   W06
 BYTE   N09  Dn3  v120
 BYTE   W24
 BYTE   N12  En3  v116
 BYTE   W12
 BYTE   Cs3  v120
 BYTE   W12
 BYTE   N09  Bn2  v127
 BYTE   W24
 BYTE   N12  Dn3  v120
 BYTE   W12
 BYTE   N08  Cs3  v116
 BYTE   W06
 BYTE   PEND 
// 002   ----------------------------------------
 BYTE   W18
 BYTE   N12  An2  v104
 BYTE   W12
 BYTE   Bn2  v116
 BYTE   W12
 BYTE   Cs3
 BYTE   W12
 BYTE   N09  Dn3  v120
 BYTE   W24
 BYTE   N12  En3  v116
 BYTE   W12
 BYTE   Cs3  v108
 BYTE   W06
// 003   ----------------------------------------
 BYTE   W06
 BYTE   Bn2  v104
 BYTE   W12
 BYTE   N06  Fs3  v120
 BYTE   W24
 BYTE   Fs3  v112
 BYTE   W24
 BYTE   N12  Bn2  v100
 BYTE   W12
 BYTE   Cs3  v112
 BYTE   W12
 BYTE   Dn3
 BYTE   W06
// 004   ----------------------------------------
 BYTE   W06
 BYTE   N06  En3  v120
 BYTE   W24
 BYTE   N12  Cs3  v116
 BYTE   W12
 BYTE   An2  v108
 BYTE   W12
 BYTE   Gn2  v120
 BYTE   W12
 BYTE   N06  Dn3  v116
 BYTE   W24
 BYTE   N06
 BYTE   W06
// 005   ----------------------------------------
 BYTE   W18
 BYTE   Bn2  v108
 BYTE   W12
 BYTE   N12  Cs3  v116
 BYTE   W12
 BYTE   An2
 BYTE   W12
 BYTE   Bn2  v112
 BYTE   W12
 BYTE   Cs3
 BYTE   W12
 BYTE   Dn3
 BYTE   W12
 BYTE   Cs3
 BYTE   W06
// 006   ----------------------------------------
 BYTE   W06
 BYTE   N09  Bn2  v127
 BYTE   W24
 BYTE   N12  Dn3  v120
 BYTE   W12
 BYTE   N08  Cs3  v116
 BYTE   W24
 BYTE   N12  An2  v104
 BYTE   W12
 BYTE   Bn2  v116
 BYTE   W12
 BYTE   Cs3
 BYTE   W06
// 007   ----------------------------------------
 BYTE   PATT
  POIN2 Label_9_0172CBF2
// 008   ----------------------------------------
 BYTE   W18
 BYTE   N10  An2  v104
 BYTE   W12
 BYTE   Bn2  v116
 BYTE   W12
 BYTE   N12  Cs3
 BYTE   W12
 BYTE   N09  Dn3  v120
 BYTE   W24
 BYTE   N12  En3  v116
 BYTE   W12
 BYTE   Cs3  v108
 BYTE   W06
// 009   ----------------------------------------
 BYTE   W06
 BYTE   Bn2  v104
 BYTE   W12
 BYTE   N06  Fs3  v120
 BYTE   W24
 BYTE   Fs3  v112
 BYTE   W24
 BYTE   N12  Dn3  v100
 BYTE   W12
 BYTE   En3  v112
 BYTE   W12
 BYTE   Dn3
 BYTE   W06
// 010   ----------------------------------------
 BYTE   W06
 BYTE   N06  Cs3  v120
 BYTE   W24
 BYTE   N12  Bn2  v116
 BYTE   W12
 BYTE   An2  v108
 BYTE   W12
 BYTE   Gn2  v120
 BYTE   W12
 BYTE   N06  Dn3  v116
 BYTE   W24
 BYTE   N06
 BYTE   W06
// 011   ----------------------------------------
 BYTE   W18
 BYTE   Bn2  v108
 BYTE   W12
 BYTE   N12  Cs3  v116
 BYTE   W12
 BYTE   An2
 BYTE   W12
 BYTE   Bn2  v112
 BYTE   W12
 BYTE   Cs3
 BYTE   W12
 BYTE   N04  Bn2  v124
 BYTE   W03
 BYTE   Cs3  v120
 BYTE   W03
 BYTE   Dn3  v116
 BYTE   W03
 BYTE   En3  v124
 BYTE   W03
 BYTE   Fs3
 BYTE   W03
 BYTE   Gn3
 BYTE   W03
// 012   ----------------------------------------
 BYTE   Gs3  v127
 BYTE   W03
 BYTE   An3
 BYTE   W03
 BYTE   N09  Bn3
 BYTE   W24
 BYTE   N12  Dn4
 BYTE   W12
 BYTE   N08  Cs4
 BYTE   W24
 BYTE   N12  An3  v116
 BYTE   W12
 BYTE   Bn3  v124
 BYTE   W12
 BYTE   Cs4
 BYTE   W06
// 013   ----------------------------------------
 BYTE   W06
 BYTE   N09  Dn4  v127
 BYTE   W24
 BYTE   N12  En4
 BYTE   W12
 BYTE   Cs4  v124
 BYTE   W12
 BYTE   N09  Bn3  v127
 BYTE   W24
 BYTE   N12  Dn4
 BYTE   W12
 BYTE   N08  Cs4
 BYTE   W06
// 014   ----------------------------------------
 BYTE   W18
 BYTE   N12  An3  v116
 BYTE   W12
 BYTE   Bn3  v124
 BYTE   W12
 BYTE   Cs4
 BYTE   W12
 BYTE   N09  Dn4  v127
 BYTE   W24
 BYTE   N12  En4
 BYTE   W12
 BYTE   Cs4  v116
 BYTE   W06
// 015   ----------------------------------------
 BYTE   W06
 BYTE   Bn3
 BYTE   W12
 BYTE   N06  Fs4  v127
 BYTE   W24
 BYTE   Fs4  v124
 BYTE   W24
 BYTE   N12  Dn4  v120
 BYTE   W12
 BYTE   En4  v127
 BYTE   W12
 BYTE   Dn4  v120
 BYTE   W06
// 016   ----------------------------------------
 BYTE   W06
 BYTE   N06  Cs4  v127
 BYTE   W24
 BYTE   N12  Bn3
 BYTE   W12
 BYTE   An3  v120
 BYTE   W12
 BYTE   Gn3  v127
 BYTE   W12
 BYTE   An3  v120
 BYTE   W12
 BYTE   Bn3
 BYTE   W12
 BYTE   Cs4
 BYTE   W06
// 017   ----------------------------------------
 BYTE   W06
 BYTE   Dn4
 BYTE   W12
 BYTE   Bn3
 BYTE   W12
 BYTE   An3
 BYTE   W12
 BYTE   Bn3  v127
 BYTE   W12
 BYTE   Cs4
 BYTE   W12
 BYTE   Dn4
 BYTE   W12
 BYTE   En4
 BYTE   W12
 BYTE   Fs4
 BYTE   W06
// 018   ----------------------------------------
 BYTE   W06
 BYTE   N09  Bn4
 BYTE   W24
 BYTE   N12  Dn5
 BYTE   W12
 BYTE   N08  Cs5
 BYTE   W24
 BYTE   N12  An4  v124
 BYTE   W12
 BYTE   Bn4  v127
 BYTE   W12
 BYTE   Cs5
 BYTE   W06
// 019   ----------------------------------------
 BYTE   W06
 BYTE   N09  Dn5
 BYTE   W24
 BYTE   N12  En5
 BYTE   W12
 BYTE   Cs5
 BYTE   W12
 BYTE   N09  Bn4
 BYTE   W24
 BYTE   N12  Dn5
 BYTE   W12
 BYTE   N08  Cs5
 BYTE   W06
// 020   ----------------------------------------
 BYTE   W18
 BYTE   N12  An4  v124
 BYTE   W12
 BYTE   Bn4  v127
 BYTE   W12
 BYTE   Cs5
 BYTE   W12
 BYTE   N09  Dn5
 BYTE   W24
 BYTE   N12  En5
 BYTE   W12
 BYTE   Cs5
 BYTE   W06
// 021   ----------------------------------------
 BYTE   W06
 BYTE   Bn4  v124
 BYTE   W12
 BYTE   N06  Fs5  v127
 BYTE   W24
 BYTE   N06
 BYTE   W24
 BYTE   N12  Dn5  v120
 BYTE   W12
 BYTE   En5  v127
 BYTE   W12
 BYTE   Dn5
 BYTE   W06
// 022   ----------------------------------------
 BYTE   W06
 BYTE   N06  Cs5
 BYTE   W24
 BYTE   N12  Bn4
 BYTE   W12
 BYTE   An4
 BYTE   W12
 BYTE   Gn4
 BYTE   W12
 BYTE   An4
 BYTE   W12
 BYTE   Bn4
 BYTE   W12
 BYTE   Cs5
 BYTE   W06
// 023   ----------------------------------------
 BYTE   W06
 BYTE   Dn5
 BYTE   W12
 BYTE   Bn4
 BYTE   W12
 BYTE   An4
 BYTE   W12
 BYTE   Bn4
 BYTE   W12
 BYTE   Cs5
 BYTE   W12
 BYTE   Dn5
 BYTE   W12
 BYTE   N06  En5
 BYTE   W06
 BYTE   Fs5
 BYTE   W06
 BYTE   Gn5
 BYTE   W06
// 024   ----------------------------------------
 BYTE   An5
 BYTE   W06
 BYTE   Bn5
 BYTE   W12
 BYTE   N06
 BYTE   W78
// 025   ----------------------------------------
 BYTE   W54
 BYTE   N36  Gn3  v096
 BYTE   W36
 BYTE   Bn3  v112
 BYTE   W06
// 026   ----------------------------------------
 BYTE   W30
 BYTE   Cs4  v096
 BYTE   W36
 BYTE   Dn4  v112
 BYTE   W30
// 027   ----------------------------------------
 BYTE   W06
 BYTE   An3  v096
 BYTE   W36
 BYTE   Dn4  v112
 BYTE   W36
 BYTE   En4  v120
 BYTE   W18
// 028   ----------------------------------------
 BYTE   W18
 BYTE   Fs4
 BYTE   W36
 BYTE   N48  Gn4  v124
 BYTE   W42
// 029   ----------------------------------------
 BYTE   W06
 BYTE   N24  Fs4  v116
 BYTE   W24
 BYTE   En4  v124
 BYTE   W24
 BYTE   Dn4  v112
 BYTE   W24
 BYTE   En4  v124
 BYTE   W18
// 030   ----------------------------------------
 BYTE   W06
 BYTE   N36  Fs4  v108
 BYTE   W36
 BYTE   Dn5  v127
 BYTE   W36
 BYTE   Cs5
 BYTE   W18
// 031   ----------------------------------------
 BYTE   W18
 BYTE   N30  An4
 BYTE   W36
 BYTE   N36  An4  v124
 BYTE   W36
 BYTE   Bn4  v120
 BYTE   W06
// 032   ----------------------------------------
 BYTE   W30
 BYTE   Cs5  v124
 BYTE   W36
 BYTE   Dn5  v120
 BYTE   W30
// 033   ----------------------------------------
 BYTE   W06
 BYTE   En5  v124
 BYTE   W36
 BYTE   Gn5  v120
 BYTE   W36
 BYTE   Fs5
 BYTE   W18
// 034   ----------------------------------------
 BYTE   W18
 BYTE   En5
 BYTE   W36
 BYTE   N24  Dn5  v127
 BYTE   W24
 BYTE   Fn4  v124
 BYTE   W18
// 035   ----------------------------------------
 BYTE   W06
 BYTE   En4  v127
 BYTE   W24
 BYTE   Fn4  v124
 BYTE   W24
 BYTE   Gn4
 BYTE   W24
 BYTE   An4
 BYTE   W18
// 036   ----------------------------------------
 BYTE   W06
 BYTE   Gn4  v120
 BYTE   W24
 BYTE   Cn5  v127
 BYTE   W24
 BYTE   Dn5
 BYTE   W24
 BYTE   En5
 BYTE   W18
// 037   ----------------------------------------
 BYTE   W06
 BYTE   Fn5
 BYTE   W24
 BYTE   En5
 BYTE   W30
 BYTE   GoTo
  POIN2 Label_9_0172CBD6
 BYTE   FINE

//**************** Track 11 (Midi-Chn.10) ****************//

song03B4_011:
// 000   ----------------------------------------
 BYTE   KEYSH   song03B4_key+0
Label_10_0172CE46:
 BYTE   VOICE   48
 BYTE   VOL   18*song03B4_mvl/mxv
 BYTE   PAN   c_v-30
 BYTE   W12
 BYTE   N09  Bn2  v127
 BYTE   W24
 BYTE   N12  Dn3  v120
 BYTE   W12
 BYTE   N08  Cs3  v116
 BYTE   W24
 BYTE   N12  An2  v104
 BYTE   W12
 BYTE   Bn2  v116
 BYTE   W12
// 001   ----------------------------------------
Label_10_0172CE60:
 BYTE   N12  Cs3  v116
 BYTE   W12
 BYTE   N09  Dn3  v120
 BYTE   W24
 BYTE   N12  En3  v116
 BYTE   W12
 BYTE   Cs3  v120
 BYTE   W12
 BYTE   N09  Bn2  v127
 BYTE   W24
 BYTE   N12  Dn3  v120
 BYTE   W12
 BYTE   PEND 
// 002   ----------------------------------------
 BYTE   N08  Cs3  v116
 BYTE   W24
 BYTE   N12  An2  v104
 BYTE   W12
 BYTE   Bn2  v116
 BYTE   W12
 BYTE   Cs3
 BYTE   W12
 BYTE   N09  Dn3  v120
 BYTE   W24
 BYTE   N12  En3  v116
 BYTE   W12
// 003   ----------------------------------------
 BYTE   Cs3  v108
 BYTE   W12
 BYTE   Bn2  v104
 BYTE   W12
 BYTE   N06  Fs3  v120
 BYTE   W24
 BYTE   Fs3  v112
 BYTE   W24
 BYTE   N12  Bn2  v100
 BYTE   W12
 BYTE   Cs3  v112
 BYTE   W12
// 004   ----------------------------------------
 BYTE   Dn3
 BYTE   W12
 BYTE   N06  En3  v120
 BYTE   W24
 BYTE   N12  Cs3  v116
 BYTE   W12
 BYTE   An2  v108
 BYTE   W12
 BYTE   Gn2  v120
 BYTE   W12
 BYTE   N06  Dn3  v116
 BYTE   W24
// 005   ----------------------------------------
 BYTE   N06
 BYTE   W24
 BYTE   Bn2  v108
 BYTE   W12
 BYTE   N12  Cs3  v116
 BYTE   W12
 BYTE   An2
 BYTE   W12
 BYTE   Bn2  v112
 BYTE   W12
 BYTE   Cs3
 BYTE   W12
 BYTE   Dn3
 BYTE   W12
// 006   ----------------------------------------
 BYTE   Cs3
 BYTE   W12
 BYTE   N09  Bn2  v127
 BYTE   W24
 BYTE   N12  Dn3  v120
 BYTE   W12
 BYTE   N08  Cs3  v116
 BYTE   W24
 BYTE   N12  An2  v104
 BYTE   W12
 BYTE   Bn2  v116
 BYTE   W12
// 007   ----------------------------------------
 BYTE   PATT
  POIN2 Label_10_0172CE60
// 008   ----------------------------------------
 BYTE   N08  Cs3  v116
 BYTE   W24
 BYTE   N10  An2  v104
 BYTE   W12
 BYTE   Bn2  v116
 BYTE   W12
 BYTE   N12  Cs3
 BYTE   W12
 BYTE   N09  Dn3  v120
 BYTE   W24
 BYTE   N12  En3  v116
 BYTE   W12
// 009   ----------------------------------------
 BYTE   Cs3  v108
 BYTE   W12
 BYTE   Bn2  v104
 BYTE   W12
 BYTE   N06  Fs3  v120
 BYTE   W24
 BYTE   Fs3  v112
 BYTE   W24
 BYTE   N12  Dn3  v100
 BYTE   W12
 BYTE   En3  v112
 BYTE   W12
// 010   ----------------------------------------
 BYTE   Dn3
 BYTE   W12
 BYTE   N06  Cs3  v120
 BYTE   W24
 BYTE   N12  Bn2  v116
 BYTE   W12
 BYTE   An2  v108
 BYTE   W12
 BYTE   Gn2  v120
 BYTE   W12
 BYTE   N06  Dn3  v116
 BYTE   W24
// 011   ----------------------------------------
 BYTE   N06
 BYTE   W24
 BYTE   Bn2  v108
 BYTE   W12
 BYTE   N12  Cs3  v116
 BYTE   W12
 BYTE   An2
 BYTE   W12
 BYTE   Bn2  v112
 BYTE   W12
 BYTE   Cs3
 BYTE   W12
 BYTE   N04  Bn2  v124
 BYTE   W03
 BYTE   Cs3  v120
 BYTE   W03
 BYTE   Dn3  v116
 BYTE   W03
 BYTE   En3  v124
 BYTE   W03
// 012   ----------------------------------------
 BYTE   Fs3
 BYTE   W03
 BYTE   Gn3
 BYTE   W03
 BYTE   Gs3  v127
 BYTE   W03
 BYTE   An3
 BYTE   W03
 BYTE   N09  Bn3
 BYTE   W24
 BYTE   N12  Dn4
 BYTE   W12
 BYTE   N08  Cs4
 BYTE   W24
 BYTE   N12  An3  v116
 BYTE   W12
 BYTE   Bn3  v124
 BYTE   W12
// 013   ----------------------------------------
 BYTE   Cs4
 BYTE   W12
 BYTE   N09  Dn4  v127
 BYTE   W24
 BYTE   N12  En4
 BYTE   W12
 BYTE   Cs4  v124
 BYTE   W12
 BYTE   N09  Bn3  v127
 BYTE   W24
 BYTE   N12  Dn4
 BYTE   W12
// 014   ----------------------------------------
 BYTE   N08  Cs4
 BYTE   W24
 BYTE   N12  An3  v116
 BYTE   W12
 BYTE   Bn3  v124
 BYTE   W12
 BYTE   Cs4
 BYTE   W12
 BYTE   N09  Dn4  v127
 BYTE   W24
 BYTE   N12  En4
 BYTE   W12
// 015   ----------------------------------------
 BYTE   Cs4  v116
 BYTE   W12
 BYTE   Bn3
 BYTE   W12
 BYTE   N06  Fs4  v127
 BYTE   W24
 BYTE   Fs4  v124
 BYTE   W24
 BYTE   N12  Dn4  v120
 BYTE   W12
 BYTE   En4  v127
 BYTE   W12
// 016   ----------------------------------------
 BYTE   Dn4  v120
 BYTE   W12
 BYTE   N06  Cs4  v127
 BYTE   W24
 BYTE   N12  Bn3
 BYTE   W12
 BYTE   An3  v120
 BYTE   W12
 BYTE   Gn3  v127
 BYTE   W12
 BYTE   An3  v120
 BYTE   W12
 BYTE   Bn3
 BYTE   W12
// 017   ----------------------------------------
 BYTE   Cs4
 BYTE   W12
 BYTE   Dn4
 BYTE   W12
 BYTE   Bn3
 BYTE   W12
 BYTE   An3
 BYTE   W12
 BYTE   Bn3  v127
 BYTE   W12
 BYTE   Cs4
 BYTE   W12
 BYTE   Dn4
 BYTE   W12
 BYTE   En4
 BYTE   W12
// 018   ----------------------------------------
 BYTE   Fs4
 BYTE   W12
 BYTE   N09  Bn4
 BYTE   W24
 BYTE   N12  Dn5
 BYTE   W12
 BYTE   N08  Cs5
 BYTE   W24
 BYTE   N12  An4  v124
 BYTE   W12
 BYTE   Bn4  v127
 BYTE   W12
// 019   ----------------------------------------
 BYTE   Cs5
 BYTE   W12
 BYTE   N09  Dn5
 BYTE   W24
 BYTE   N12  En5
 BYTE   W12
 BYTE   Cs5
 BYTE   W12
 BYTE   N09  Bn4
 BYTE   W24
 BYTE   N12  Dn5
 BYTE   W12
// 020   ----------------------------------------
 BYTE   N08  Cs5
 BYTE   W24
 BYTE   N12  An4  v124
 BYTE   W12
 BYTE   Bn4  v127
 BYTE   W12
 BYTE   Cs5
 BYTE   W12
 BYTE   N09  Dn5
 BYTE   W24
 BYTE   N12  En5
 BYTE   W12
// 021   ----------------------------------------
 BYTE   Cs5
 BYTE   W12
 BYTE   Bn4  v124
 BYTE   W12
 BYTE   N06  Fs5  v127
 BYTE   W24
 BYTE   N06
 BYTE   W24
 BYTE   N12  Dn5  v120
 BYTE   W12
 BYTE   En5  v127
 BYTE   W12
// 022   ----------------------------------------
 BYTE   Dn5
 BYTE   W12
 BYTE   N06  Cs5
 BYTE   W24
 BYTE   N12  Bn4
 BYTE   W12
 BYTE   An4
 BYTE   W12
 BYTE   Gn4
 BYTE   W12
 BYTE   An4
 BYTE   W12
 BYTE   Bn4
 BYTE   W12
// 023   ----------------------------------------
 BYTE   Cs5
 BYTE   W12
 BYTE   Dn5
 BYTE   W12
 BYTE   Bn4
 BYTE   W12
 BYTE   An4
 BYTE   W12
 BYTE   Bn4
 BYTE   W12
 BYTE   Cs5
 BYTE   W12
 BYTE   Dn5
 BYTE   W12
 BYTE   N06  En5
 BYTE   W06
 BYTE   Fs5
 BYTE   W06
// 024   ----------------------------------------
 BYTE   Gn5
 BYTE   W06
 BYTE   An5
 BYTE   W06
 BYTE   Bn5
 BYTE   W12
 BYTE   N06
 BYTE   W72
// 025   ----------------------------------------
 BYTE   W60
 BYTE   N36  Gn3  v096
 BYTE   W36
// 026   ----------------------------------------
 BYTE   Bn3  v112
 BYTE   W36
 BYTE   Cs4  v096
 BYTE   W36
 BYTE   Dn4  v112
 BYTE   W24
// 027   ----------------------------------------
 BYTE   W12
 BYTE   An3  v096
 BYTE   W36
 BYTE   Dn4  v112
 BYTE   W36
 BYTE   En4  v120
 BYTE   W12
// 028   ----------------------------------------
 BYTE   W24
 BYTE   Fs4
 BYTE   W36
 BYTE   N48  Gn4  v124
 BYTE   W36
// 029   ----------------------------------------
 BYTE   W12
 BYTE   N24  Fs4  v116
 BYTE   W24
 BYTE   En4  v124
 BYTE   W24
 BYTE   Dn4  v112
 BYTE   W24
 BYTE   En4  v124
 BYTE   W12
// 030   ----------------------------------------
 BYTE   W12
 BYTE   N36  Fs4  v108
 BYTE   W36
 BYTE   Dn5  v127
 BYTE   W36
 BYTE   Cs5
 BYTE   W12
// 031   ----------------------------------------
 BYTE   W24
 BYTE   N30  An4
 BYTE   W36
 BYTE   N36  An4  v124
 BYTE   W36
// 032   ----------------------------------------
 BYTE   Bn4  v120
 BYTE   W36
 BYTE   Cs5  v124
 BYTE   W36
 BYTE   Dn5  v120
 BYTE   W24
// 033   ----------------------------------------
 BYTE   W12
 BYTE   En5  v124
 BYTE   W36
 BYTE   Gn5  v120
 BYTE   W36
 BYTE   Fs5
 BYTE   W12
// 034   ----------------------------------------
 BYTE   W24
 BYTE   En5
 BYTE   W36
 BYTE   N24  Dn5  v127
 BYTE   W24
 BYTE   Fn4  v124
 BYTE   W12
// 035   ----------------------------------------
 BYTE   W12
 BYTE   En4  v127
 BYTE   W24
 BYTE   Fn4  v124
 BYTE   W24
 BYTE   Gn4
 BYTE   W24
 BYTE   An4
 BYTE   W12
// 036   ----------------------------------------
 BYTE   W12
 BYTE   Gn4  v120
 BYTE   W24
 BYTE   Cn5  v127
 BYTE   W24
 BYTE   Dn5
 BYTE   W24
 BYTE   En5
 BYTE   W12
// 037   ----------------------------------------
 BYTE   W12
 BYTE   Fn5
 BYTE   W24
 BYTE   En5
 BYTE   W24
 BYTE   GoTo
  POIN2 Label_10_0172CE46
 BYTE   FINE

//**************** Track 12 (Midi-Chn.11) ****************//

song03B4_012:
// 000   ----------------------------------------
 BYTE   KEYSH   song03B4_key+0
Label_11_0172D0A6:
 BYTE   VOICE   42
 BYTE   VOL   26*song03B4_mvl/mxv
 BYTE   PAN   c_v+0
 BYTE   N09  Bn0  v124
 BYTE   N09  Bn1
 BYTE   W36
 BYTE   N10  Bn0  v116
 BYTE   N10  Bn1
 BYTE   W60
// 001   ----------------------------------------
Label_11_0172D0B8:
 BYTE   W48
 BYTE   N09  Bn0  v124
 BYTE   N09  Bn1
 BYTE   W36
 BYTE   N10  Bn0  v116
 BYTE   N10  Bn1
 BYTE   W12
 BYTE   PEND 
// 002   ----------------------------------------
 BYTE   W96
// 003   ----------------------------------------
Label_11_0172D0C7:
 BYTE   N09  Gn0  v124
 BYTE   N09  Gn1
 BYTE   W72
 BYTE   An0
 BYTE   N09  An1
 BYTE   W24
 BYTE   PEND 
// 004   ----------------------------------------
Label_11_0172D0D2:
 BYTE   W48
 BYTE   N09  Gn0  v124
 BYTE   N09  Gn1
 BYTE   W48
 BYTE   PEND 
// 005   ----------------------------------------
Label_11_0172D0DA:
 BYTE   W24
 BYTE   N09  An0  v124
 BYTE   N09  An1
 BYTE   W72
 BYTE   PEND 
// 006   ----------------------------------------
 BYTE   Bn0
 BYTE   N09  Bn1
 BYTE   W36
 BYTE   N10  Bn0  v116
 BYTE   N10  Bn1
 BYTE   W60
// 007   ----------------------------------------
 BYTE   PATT
  POIN2 Label_11_0172D0B8
// 008   ----------------------------------------
 BYTE   W96
// 009   ----------------------------------------
 BYTE   PATT
  POIN2 Label_11_0172D0C7
// 010   ----------------------------------------
 BYTE   PATT
  POIN2 Label_11_0172D0D2
// 011   ----------------------------------------
 BYTE   PATT
  POIN2 Label_11_0172D0DA
// 012   ----------------------------------------
 BYTE   N12  Bn0  v124
 BYTE   N12  Bn1
 BYTE   W96
// 013   ----------------------------------------
 BYTE   W48
 BYTE   N18  Bn0
 BYTE   N18  Bn1
 BYTE   W48
// 014   ----------------------------------------
 BYTE   W96
// 015   ----------------------------------------
 BYTE   N09  Gn0  v108
 BYTE   N12  Gn1  v127
 BYTE   W36
 BYTE   N10  Gn0  v096
 BYTE   N12  Gn1  v127
 BYTE   W36
 BYTE   N09  An0  v108
 BYTE   N06  An1  v127
 BYTE   W24
// 016   ----------------------------------------
 BYTE   N06
 BYTE   W12
 BYTE   N10  An0  v096
 BYTE   W12
 BYTE   N06  An1  v127
 BYTE   W12
 BYTE   N06
 BYTE   W06
 BYTE   N06
 BYTE   W06
 BYTE   N09  Gn0  v108
 BYTE   N06  Gn1  v127
 BYTE   W24
 BYTE   N06
 BYTE   W12
 BYTE   N10  Gn0  v096
 BYTE   N06  Gn1  v127
 BYTE   W06
 BYTE   N06
 BYTE   W06
// 017   ----------------------------------------
 BYTE   N06
 BYTE   W24
 BYTE   N09  An0  v108
 BYTE   N06  An1  v127
 BYTE   W24
 BYTE   N06
 BYTE   W12
 BYTE   N10  An0  v096
 BYTE   N06  An1  v127
 BYTE   W12
 BYTE   N06
 BYTE   W12
 BYTE   N06
 BYTE   W12
// 018   ----------------------------------------
 BYTE   N09  Bn0  v108
 BYTE   N06  Bn1  v127
 BYTE   W24
 BYTE   N06
 BYTE   W12
 BYTE   N10  Bn0  v096
 BYTE   N06  Fs1  v116
 BYTE   W06
 BYTE   N06
 BYTE   W06
 BYTE   Bn1  v127
 BYTE   W24
 BYTE   N09  Bn0  v108
 BYTE   N06  Bn1  v127
 BYTE   W24
// 019   ----------------------------------------
 BYTE   N10  Bn0  v096
 BYTE   N06  Bn1  v127
 BYTE   W12
 BYTE   Fs1  v116
 BYTE   W06
 BYTE   N06
 BYTE   W06
 BYTE   N10  Bn0  v096
 BYTE   N06  Bn1  v127
 BYTE   W12
 BYTE   Fs1
 BYTE   W12
 BYTE   N09  Bn0  v108
 BYTE   N06  Bn1  v127
 BYTE   W24
 BYTE   N06
 BYTE   W12
 BYTE   N10  Bn0  v096
 BYTE   N06  Fs1  v116
 BYTE   W06
 BYTE   N06
 BYTE   W06
// 020   ----------------------------------------
 BYTE   Bn1  v127
 BYTE   W12
 BYTE   Fs1
 BYTE   W12
 BYTE   N09  Bn0  v108
 BYTE   N06  Bn1  v127
 BYTE   W24
 BYTE   N10  Bn0  v096
 BYTE   N06  Bn1  v127
 BYTE   W12
 BYTE   Fs1
 BYTE   W12
 BYTE   N10  Bn0  v096
 BYTE   N06  Bn1  v127
 BYTE   W12
 BYTE   Fs1
 BYTE   W12
// 021   ----------------------------------------
 BYTE   N09  Gn0  v108
 BYTE   N06  Gn1  v127
 BYTE   W24
 BYTE   Bn1
 BYTE   W12
 BYTE   N10  Gn0  v096
 BYTE   N06  Gn1  v127
 BYTE   W24
 BYTE   Gn1  v120
 BYTE   W12
 BYTE   N09  An0  v108
 BYTE   N06  An1  v127
 BYTE   W24
// 022   ----------------------------------------
 BYTE   N06
 BYTE   W12
 BYTE   N10  An0  v096
 BYTE   W12
 BYTE   N06  An1  v127
 BYTE   W24
 BYTE   N09  Gn0  v108
 BYTE   N06  Gn1  v127
 BYTE   W24
 BYTE   Bn1
 BYTE   W12
 BYTE   N10  Gn0  v096
 BYTE   N06  Gn1  v127
 BYTE   W12
// 023   ----------------------------------------
 BYTE   W12
 BYTE   Gn1  v120
 BYTE   W12
 BYTE   N09  An0  v108
 BYTE   N06  An1  v127
 BYTE   W18
 BYTE   An1  v104
 BYTE   W06
 BYTE   An1  v127
 BYTE   W12
 BYTE   N10  An0  v096
 BYTE   W12
 BYTE   N06  An1  v127
 BYTE   W12
 BYTE   N06
 BYTE   W12
// 024   ----------------------------------------
 BYTE   Bn0  v112
 BYTE   N06  Bn1  v127
 BYTE   W12
 BYTE   Bn0  v108
 BYTE   W12
 BYTE   Bn1  v127
 BYTE   W12
 BYTE   Fs1
 BYTE   W06
 BYTE   Fs1  v124
 BYTE   W06
 BYTE   Bn1  v127
 BYTE   W12
 BYTE   N06
 BYTE   W12
 BYTE   Fs1
 BYTE   W12
 BYTE   Bn1  v124
 BYTE   W06
 BYTE   Bn1  v120
 BYTE   W06
// 025   ----------------------------------------
 BYTE   Bn1  v124
 BYTE   W06
 BYTE   Bn1  v120
 BYTE   W06
 BYTE   Bn1  v127
 BYTE   W06
 BYTE   Bn1  v120
 BYTE   W06
 BYTE   Fs1  v127
 BYTE   N06  Bn1
 BYTE   W06
 BYTE   Bn1  v116
 BYTE   W06
 BYTE   Bn1  v124
 BYTE   W06
 BYTE   Bn1  v116
 BYTE   W06
 BYTE   N24  Gn1  v127
 BYTE   W48
// 026   ----------------------------------------
 BYTE   W96
// 027   ----------------------------------------
 BYTE   Fs1
 BYTE   W96
// 028   ----------------------------------------
 BYTE   W48
 BYTE   En1
 BYTE   W48
// 029   ----------------------------------------
 BYTE   W96
// 030   ----------------------------------------
 BYTE   Fs1
 BYTE   W96
// 031   ----------------------------------------
 BYTE   W48
 BYTE   Dn1
 BYTE   W48
// 032   ----------------------------------------
 BYTE   W96
// 033   ----------------------------------------
 BYTE   Fs1
 BYTE   W96
// 034   ----------------------------------------
 BYTE   W48
 BYTE   Fn1
 BYTE   W48
// 035   ----------------------------------------
 BYTE   W96
// 036   ----------------------------------------
 BYTE   Gn1
 BYTE   W96
// 037   ----------------------------------------
 BYTE   W60
 BYTE   GoTo
  POIN2 Label_11_0172D0A6
 BYTE   FINE

//**************** Track 13 (Midi-Chn.12) ****************//

song03B4_013:
// 000   ----------------------------------------
 BYTE   KEYSH   song03B4_key+0
Label_12_0172D266:
 BYTE   VOICE   127
 BYTE   VOL   47*song03B4_mvl/mxv
 BYTE   PAN   c_v+0
 BYTE   N09  Cn1  v127
 BYTE   N03  Fs1  v120
 BYTE   W06
 BYTE   Fs1  v068
 BYTE   W06
 BYTE   Fs1  v100
 BYTE   W06
 BYTE   Fs1  v080
 BYTE   W06
 BYTE   Fs1  v120
 BYTE   W06
 BYTE   Fs1  v060
 BYTE   W06
 BYTE   N09  Cn1  v124
 BYTE   N03  Fs1  v100
 BYTE   W06
 BYTE   Fs1  v092
 BYTE   W06
 BYTE   Fs1  v120
 BYTE   W06
 BYTE   Fs1  v064
 BYTE   W06
 BYTE   Fs1  v100
 BYTE   W06
 BYTE   Fs1  v084
 BYTE   W06
 BYTE   Fs1  v120
 BYTE   W06
 BYTE   Fs1  v068
 BYTE   W06
 BYTE   Fs1  v100
 BYTE   W06
 BYTE   Fs1  v080
 BYTE   W06
// 001   ----------------------------------------
Label_12_0172D2A4:
 BYTE   N03  Fs1  v120
 BYTE   W06
 BYTE   Fs1  v060
 BYTE   W06
 BYTE   Fs1  v100
 BYTE   W06
 BYTE   Fs1  v092
 BYTE   W06
 BYTE   Fs1  v120
 BYTE   W06
 BYTE   Fs1  v064
 BYTE   W06
 BYTE   Fs1  v100
 BYTE   W06
 BYTE   Fs1  v084
 BYTE   W06
 BYTE   N09  Cn1  v127
 BYTE   N03  Fs1  v120
 BYTE   W06
 BYTE   Fs1  v068
 BYTE   W06
 BYTE   Fs1  v100
 BYTE   W06
 BYTE   Fs1  v080
 BYTE   W06
 BYTE   Fs1  v120
 BYTE   W06
 BYTE   Fs1  v060
 BYTE   W06
 BYTE   N09  Cn1  v124
 BYTE   N03  Fs1  v100
 BYTE   W06
 BYTE   Fs1  v092
 BYTE   W06
 BYTE   PEND 
// 002   ----------------------------------------
Label_12_0172D2DE:
 BYTE   N03  Fs1  v120
 BYTE   W06
 BYTE   Fs1  v064
 BYTE   W06
 BYTE   Fs1  v100
 BYTE   W06
 BYTE   Fs1  v084
 BYTE   W06
 BYTE   Fs1  v120
 BYTE   W06
 BYTE   Fs1  v068
 BYTE   W06
 BYTE   Fs1  v100
 BYTE   W06
 BYTE   Fs1  v080
 BYTE   W06
 BYTE   Fs1  v120
 BYTE   W06
 BYTE   Fs1  v060
 BYTE   W06
 BYTE   Fs1  v100
 BYTE   W06
 BYTE   Fs1  v092
 BYTE   W06
 BYTE   Fs1  v120
 BYTE   W06
 BYTE   Fs1  v064
 BYTE   W06
 BYTE   Fs1  v100
 BYTE   W06
 BYTE   Fs1  v084
 BYTE   W06
 BYTE   PEND 
// 003   ----------------------------------------
Label_12_0172D310:
 BYTE   N09  Cn1  v127
 BYTE   N03  Fs1  v120
 BYTE   W06
 BYTE   Fs1  v068
 BYTE   W06
 BYTE   Fs1  v100
 BYTE   W06
 BYTE   Fs1  v080
 BYTE   W06
 BYTE   Fs1  v120
 BYTE   W06
 BYTE   Fs1  v060
 BYTE   W06
 BYTE   Fs1  v100
 BYTE   W06
 BYTE   Fs1  v092
 BYTE   W06
 BYTE   Fs1  v120
 BYTE   W06
 BYTE   Fs1  v064
 BYTE   W06
 BYTE   Fs1  v100
 BYTE   W06
 BYTE   Fs1  v084
 BYTE   W06
 BYTE   N09  Cn1  v127
 BYTE   N03  Fs1  v120
 BYTE   W06
 BYTE   Fs1  v068
 BYTE   W06
 BYTE   Fs1  v100
 BYTE   W06
 BYTE   Fs1  v080
 BYTE   W06
 BYTE   PEND 
// 004   ----------------------------------------
Label_12_0172D349:
 BYTE   N03  Fs1  v120
 BYTE   W06
 BYTE   Fs1  v060
 BYTE   W06
 BYTE   Fs1  v100
 BYTE   W06
 BYTE   Fs1  v092
 BYTE   W06
 BYTE   Fs1  v120
 BYTE   W06
 BYTE   Fs1  v064
 BYTE   W06
 BYTE   Fs1  v100
 BYTE   W06
 BYTE   Fs1  v084
 BYTE   W06
 BYTE   N09  Cn1  v127
 BYTE   N03  Fs1  v120
 BYTE   W06
 BYTE   Fs1  v068
 BYTE   W06
 BYTE   Fs1  v100
 BYTE   W06
 BYTE   Fs1  v080
 BYTE   W06
 BYTE   Fs1  v120
 BYTE   W06
 BYTE   Fs1  v060
 BYTE   W06
 BYTE   Fs1  v100
 BYTE   W06
 BYTE   Fs1  v092
 BYTE   W06
 BYTE   PEND 
// 005   ----------------------------------------
Label_12_0172D37F:
 BYTE   N03  Fs1  v120
 BYTE   W06
 BYTE   Fs1  v064
 BYTE   W06
 BYTE   Fs1  v100
 BYTE   W06
 BYTE   Fs1  v084
 BYTE   W06
 BYTE   N09  Cn1  v127
 BYTE   N03  Fs1  v120
 BYTE   W06
 BYTE   Fs1  v068
 BYTE   W06
 BYTE   Fs1  v100
 BYTE   W06
 BYTE   Fs1  v080
 BYTE   W06
 BYTE   Fs1  v120
 BYTE   W06
 BYTE   Fs1  v060
 BYTE   W06
 BYTE   Fs1  v100
 BYTE   W06
 BYTE   Fs1  v092
 BYTE   W06
 BYTE   Fs1  v120
 BYTE   W06
 BYTE   Fs1  v064
 BYTE   W06
 BYTE   Fs1  v100
 BYTE   W06
 BYTE   Fs1  v084
 BYTE   W06
 BYTE   PEND 
// 006   ----------------------------------------
 BYTE   N09  Cn1  v127
 BYTE   N03  Fs1  v120
 BYTE   W06
 BYTE   Fs1  v068
 BYTE   W06
 BYTE   Fs1  v100
 BYTE   W06
 BYTE   Fs1  v080
 BYTE   W06
 BYTE   Fs1  v120
 BYTE   W06
 BYTE   Fs1  v060
 BYTE   W06
 BYTE   N09  Cn1  v124
 BYTE   N03  Fs1  v100
 BYTE   W06
 BYTE   Fs1  v092
 BYTE   W06
 BYTE   Fs1  v120
 BYTE   W06
 BYTE   Fs1  v064
 BYTE   W06
 BYTE   Fs1  v100
 BYTE   W06
 BYTE   Fs1  v084
 BYTE   W06
 BYTE   Fs1  v120
 BYTE   W06
 BYTE   Fs1  v068
 BYTE   W06
 BYTE   Fs1  v100
 BYTE   W06
 BYTE   Fs1  v080
 BYTE   W06
// 007   ----------------------------------------
 BYTE   PATT
  POIN2 Label_12_0172D2A4
// 008   ----------------------------------------
 BYTE   PATT
  POIN2 Label_12_0172D2DE
// 009   ----------------------------------------
 BYTE   PATT
  POIN2 Label_12_0172D310
// 010   ----------------------------------------
 BYTE   PATT
  POIN2 Label_12_0172D349
// 011   ----------------------------------------
 BYTE   PATT
  POIN2 Label_12_0172D37F
// 012   ----------------------------------------
 BYTE   N09  Cn1  v127
 BYTE   N03  Fs1  v120
 BYTE   N03  Cs2  v127
 BYTE   W06
 BYTE   Fs1  v068
 BYTE   W06
 BYTE   Fs1  v100
 BYTE   W06
 BYTE   Fs1  v080
 BYTE   W06
 BYTE   Fs1  v120
 BYTE   W06
 BYTE   Fs1  v060
 BYTE   W06
 BYTE   Fs1  v100
 BYTE   N03  Cs2  v124
 BYTE   W06
 BYTE   Fs1  v092
 BYTE   W06
 BYTE   Fs1  v120
 BYTE   W06
 BYTE   Fs1  v064
 BYTE   W06
 BYTE   Fs1  v100
 BYTE   W06
 BYTE   Fs1  v084
 BYTE   W06
 BYTE   Fs1  v120
 BYTE   W06
 BYTE   Fs1  v068
 BYTE   W06
 BYTE   Fs1  v100
 BYTE   W06
 BYTE   Fs1  v080
 BYTE   W06
// 013   ----------------------------------------
 BYTE   Fs1  v120
 BYTE   W06
 BYTE   Fs1  v060
 BYTE   W06
 BYTE   Fs1  v100
 BYTE   W06
 BYTE   Fs1  v092
 BYTE   W06
 BYTE   Fs1  v120
 BYTE   W06
 BYTE   Fs1  v064
 BYTE   W06
 BYTE   Fs1  v100
 BYTE   W06
 BYTE   Fs1  v084
 BYTE   W06
 BYTE   N15  Cn1  v127
 BYTE   N03  Fs1  v120
 BYTE   N03  Cs2  v127
 BYTE   W06
 BYTE   Fs1  v068
 BYTE   W06
 BYTE   Fs1  v100
 BYTE   W06
 BYTE   Fs1  v080
 BYTE   W06
 BYTE   Fs1  v120
 BYTE   W06
 BYTE   Fs1  v060
 BYTE   W06
 BYTE   Fs1  v100
 BYTE   N03  Cs2  v124
 BYTE   W06
 BYTE   Fs1  v092
 BYTE   W06
// 014   ----------------------------------------
 BYTE   PATT
  POIN2 Label_12_0172D2DE
// 015   ----------------------------------------
Label_12_0172D47F:
 BYTE   N09  Cn1  v116
 BYTE   N03  Fs1  v120
 BYTE   N03  Cs2  v127
 BYTE   W06
 BYTE   Fs1  v068
 BYTE   W06
 BYTE   Fs1  v100
 BYTE   W06
 BYTE   Fs1  v080
 BYTE   W06
 BYTE   Fs1  v120
 BYTE   W06
 BYTE   Fs1  v060
 BYTE   W06
 BYTE   N09  Cn1  v108
 BYTE   N03  Fs1  v100
 BYTE   W06
 BYTE   Fs1  v092
 BYTE   W06
 BYTE   Fs1  v120
 BYTE   W06
 BYTE   Fs1  v064
 BYTE   W06
 BYTE   Fs1  v100
 BYTE   W06
 BYTE   Fs1  v084
 BYTE   W06
 BYTE   N09  Cn1  v116
 BYTE   N03  Fs1  v120
 BYTE   N03  Cs2  v127
 BYTE   W06
 BYTE   Fs1  v068
 BYTE   W06
 BYTE   Fs1  v100
 BYTE   W06
 BYTE   Fs1  v080
 BYTE   W06
 BYTE   PEND 
// 016   ----------------------------------------
Label_12_0172D4C2:
 BYTE   N03  Fs1  v120
 BYTE   W06
 BYTE   Fs1  v060
 BYTE   W06
 BYTE   N09  Cn1  v108
 BYTE   N03  Fs1  v100
 BYTE   W06
 BYTE   Fs1  v092
 BYTE   W06
 BYTE   Fs1  v120
 BYTE   W06
 BYTE   Fs1  v064
 BYTE   W06
 BYTE   Fs1  v100
 BYTE   W06
 BYTE   Fs1  v084
 BYTE   W06
 BYTE   N09  Cn1  v116
 BYTE   N03  Fs1  v120
 BYTE   N03  Cs2  v127
 BYTE   W06
 BYTE   Fs1  v068
 BYTE   W06
 BYTE   Fs1  v100
 BYTE   W06
 BYTE   Fs1  v080
 BYTE   W06
 BYTE   Fs1  v120
 BYTE   W06
 BYTE   Fs1  v060
 BYTE   W06
 BYTE   N09  Cn1  v108
 BYTE   N03  Fs1  v100
 BYTE   W06
 BYTE   Fs1  v092
 BYTE   W06
 BYTE   PEND 
// 017   ----------------------------------------
Label_12_0172D503:
 BYTE   N03  Fs1  v120
 BYTE   W06
 BYTE   Fs1  v064
 BYTE   W06
 BYTE   Fs1  v100
 BYTE   W06
 BYTE   Fs1  v084
 BYTE   W06
 BYTE   N09  Cn1  v116
 BYTE   N03  Fs1  v120
 BYTE   W06
 BYTE   Fs1  v068
 BYTE   W06
 BYTE   Fs1  v100
 BYTE   W06
 BYTE   Fs1  v080
 BYTE   W06
 BYTE   Fs1  v120
 BYTE   W06
 BYTE   Fs1  v060
 BYTE   W06
 BYTE   N09  Cn1  v108
 BYTE   N03  Fs1  v100
 BYTE   W06
 BYTE   Fs1  v092
 BYTE   W06
 BYTE   Fs1  v120
 BYTE   W06
 BYTE   Fs1  v064
 BYTE   W06
 BYTE   Fs1  v100
 BYTE   W06
 BYTE   Fs1  v084
 BYTE   W06
 BYTE   PEND 
// 018   ----------------------------------------
 BYTE   N09  Cn1  v116
 BYTE   N03  Fs1  v120
 BYTE   N03  Cs2  v127
 BYTE   W06
 BYTE   Fs1  v068
 BYTE   W06
 BYTE   Fs1  v100
 BYTE   W06
 BYTE   Fs1  v080
 BYTE   W06
 BYTE   Fs1  v120
 BYTE   W06
 BYTE   Fs1  v060
 BYTE   W06
 BYTE   N09  Cn1  v108
 BYTE   N03  Fs1  v100
 BYTE   N03  Cs2  v124
 BYTE   W06
 BYTE   Fs1  v092
 BYTE   W06
 BYTE   Fs1  v120
 BYTE   W06
 BYTE   Fs1  v064
 BYTE   W06
 BYTE   Fs1  v100
 BYTE   W06
 BYTE   Fs1  v084
 BYTE   W06
 BYTE   N09  Cn1  v116
 BYTE   N03  Fs1  v120
 BYTE   W06
 BYTE   Fs1  v068
 BYTE   W06
 BYTE   Fs1  v100
 BYTE   W06
 BYTE   Fs1  v080
 BYTE   W06
// 019   ----------------------------------------
 BYTE   N09  Cn1  v108
 BYTE   N03  Fs1  v120
 BYTE   W06
 BYTE   Fs1  v060
 BYTE   W06
 BYTE   Fs1  v100
 BYTE   W06
 BYTE   Fs1  v092
 BYTE   W06
 BYTE   N09  Cn1  v108
 BYTE   N03  Fs1  v120
 BYTE   W06
 BYTE   Fs1  v064
 BYTE   W06
 BYTE   Fs1  v100
 BYTE   W06
 BYTE   Fs1  v084
 BYTE   W06
 BYTE   N09  Cn1  v116
 BYTE   N03  Fs1  v120
 BYTE   N03  Cs2  v127
 BYTE   W06
 BYTE   Fs1  v068
 BYTE   W06
 BYTE   Fs1  v100
 BYTE   W06
 BYTE   Fs1  v080
 BYTE   W06
 BYTE   Fs1  v120
 BYTE   W06
 BYTE   Fs1  v060
 BYTE   W06
 BYTE   N09  Cn1  v108
 BYTE   N03  Fs1  v100
 BYTE   N03  Cs2  v124
 BYTE   W06
 BYTE   Fs1  v092
 BYTE   W06
// 020   ----------------------------------------
 BYTE   Fs1  v120
 BYTE   W06
 BYTE   Fs1  v064
 BYTE   W06
 BYTE   Fs1  v100
 BYTE   W06
 BYTE   Fs1  v084
 BYTE   W06
 BYTE   N09  Cn1  v116
 BYTE   N03  Fs1  v120
 BYTE   W06
 BYTE   Fs1  v068
 BYTE   W06
 BYTE   Fs1  v100
 BYTE   W06
 BYTE   Fs1  v080
 BYTE   W06
 BYTE   N09  Cn1  v108
 BYTE   N03  Fs1  v120
 BYTE   W06
 BYTE   Fs1  v060
 BYTE   W06
 BYTE   Fs1  v100
 BYTE   W06
 BYTE   Fs1  v092
 BYTE   W06
 BYTE   N09  Cn1  v108
 BYTE   N03  Fs1  v120
 BYTE   W06
 BYTE   Fs1  v064
 BYTE   W06
 BYTE   Fs1  v100
 BYTE   W06
 BYTE   Fs1  v084
 BYTE   W06
// 021   ----------------------------------------
 BYTE   PATT
  POIN2 Label_12_0172D47F
// 022   ----------------------------------------
 BYTE   PATT
  POIN2 Label_12_0172D4C2
// 023   ----------------------------------------
 BYTE   PATT
  POIN2 Label_12_0172D503
// 024   ----------------------------------------
 BYTE   N03  Cn1  v120
 BYTE   N03  Fs1
 BYTE   N03  Cs2  v127
 BYTE   W06
 BYTE   Fs1  v068
 BYTE   W06
 BYTE   Cn1  v120
 BYTE   N03  Fs1  v100
 BYTE   W06
 BYTE   Fs1  v080
 BYTE   W06
 BYTE   Fs1  v120
 BYTE   W06
 BYTE   Fs1  v060
 BYTE   W06
 BYTE   Fs1  v100
 BYTE   N03  Cs2  v124
 BYTE   W06
 BYTE   Fs1  v092
 BYTE   W06
 BYTE   Fs1  v120
 BYTE   W06
 BYTE   Fs1  v064
 BYTE   W06
 BYTE   Fs1  v100
 BYTE   W06
 BYTE   Fs1  v084
 BYTE   W06
 BYTE   Fs1  v120
 BYTE   W06
 BYTE   Fs1  v068
 BYTE   W06
 BYTE   Fs1  v100
 BYTE   W06
 BYTE   Fs1  v080
 BYTE   W06
// 025   ----------------------------------------
 BYTE   Fs1  v120
 BYTE   W06
 BYTE   Fs1  v060
 BYTE   W06
 BYTE   Fs1  v100
 BYTE   W06
 BYTE   Fs1  v092
 BYTE   W06
 BYTE   Fs1  v120
 BYTE   W06
 BYTE   Fs1  v064
 BYTE   W06
 BYTE   Fs1  v100
 BYTE   W06
 BYTE   Fs1  v084
 BYTE   W06
 BYTE   Fs1  v120
 BYTE   N03  Cs2  v127
 BYTE   W06
 BYTE   Fs1  v068
 BYTE   W06
 BYTE   Fs1  v100
 BYTE   W06
 BYTE   Fs1  v080
 BYTE   W06
 BYTE   Fs1  v120
 BYTE   W06
 BYTE   Fs1  v060
 BYTE   W06
 BYTE   Fs1  v100
 BYTE   W06
 BYTE   Fs1  v092
 BYTE   W06
// 026   ----------------------------------------
 BYTE   PATT
  POIN2 Label_12_0172D2DE
// 027   ----------------------------------------
Label_12_0172D684:
 BYTE   N03  Fs1  v120
 BYTE   W06
 BYTE   Fs1  v068
 BYTE   W06
 BYTE   Fs1  v100
 BYTE   W06
 BYTE   Fs1  v080
 BYTE   W06
 BYTE   Fs1  v120
 BYTE   W06
 BYTE   Fs1  v060
 BYTE   W06
 BYTE   Fs1  v100
 BYTE   W06
 BYTE   Fs1  v092
 BYTE   W06
 BYTE   Fs1  v120
 BYTE   W06
 BYTE   Fs1  v064
 BYTE   W06
 BYTE   Fs1  v100
 BYTE   W06
 BYTE   Fs1  v084
 BYTE   W06
 BYTE   Fs1  v120
 BYTE   W06
 BYTE   Fs1  v068
 BYTE   W06
 BYTE   Fs1  v100
 BYTE   W06
 BYTE   Fs1  v080
 BYTE   W06
 BYTE   PEND 
// 028   ----------------------------------------
Label_12_0172D6B6:
 BYTE   N03  Fs1  v120
 BYTE   W06
 BYTE   Fs1  v060
 BYTE   W06
 BYTE   Fs1  v100
 BYTE   W06
 BYTE   Fs1  v092
 BYTE   W06
 BYTE   Fs1  v120
 BYTE   W06
 BYTE   Fs1  v064
 BYTE   W06
 BYTE   Fs1  v100
 BYTE   W06
 BYTE   Fs1  v084
 BYTE   W06
 BYTE   Fs1  v120
 BYTE   W06
 BYTE   Fs1  v068
 BYTE   W06
 BYTE   Fs1  v100
 BYTE   W06
 BYTE   Fs1  v080
 BYTE   W06
 BYTE   Fs1  v120
 BYTE   W06
 BYTE   Fs1  v060
 BYTE   W06
 BYTE   Fs1  v100
 BYTE   W06
 BYTE   Fs1  v092
 BYTE   W06
 BYTE   PEND 
// 029   ----------------------------------------
 BYTE   PATT
  POIN2 Label_12_0172D2DE
// 030   ----------------------------------------
 BYTE   PATT
  POIN2 Label_12_0172D684
// 031   ----------------------------------------
 BYTE   PATT
  POIN2 Label_12_0172D6B6
// 032   ----------------------------------------
 BYTE   PATT
  POIN2 Label_12_0172D2DE
// 033   ----------------------------------------
 BYTE   PATT
  POIN2 Label_12_0172D684
// 034   ----------------------------------------
 BYTE   PATT
  POIN2 Label_12_0172D6B6
// 035   ----------------------------------------
 BYTE   PATT
  POIN2 Label_12_0172D2DE
// 036   ----------------------------------------
 BYTE   PATT
  POIN2 Label_12_0172D684
// 037   ----------------------------------------
 BYTE   N03  Fs1  v120
 BYTE   W06
 BYTE   Fs1  v060
 BYTE   W06
 BYTE   Fs1  v100
 BYTE   W06
 BYTE   Fs1  v092
 BYTE   W06
 BYTE   Fs1  v120
 BYTE   W06
 BYTE   Fs1  v064
 BYTE   W06
 BYTE   Fs1  v100
 BYTE   W06
 BYTE   Fs1  v084
 BYTE   W18
 BYTE   GoTo
  POIN2 Label_12_0172D266
 BYTE   FINE

//******************************************************//
	ALIGN 4

song03B4:
	BYTE	13	// NumTrks
	BYTE	0	// NumBlks
	BYTE	song03B4_pri	// Priority
	BYTE	song03B4_rev	// Reverb.
    
	POIN2	song03B4_grp
    
	POIN2	song03B4_001
	POIN2	song03B4_002
	POIN2	song03B4_003
	POIN2	song03B4_004
	POIN2	song03B4_005
	POIN2	song03B4_006
	POIN2	song03B4_007
	POIN2	song03B4_008
	POIN2	song03B4_009
	POIN2	song03B4_010
	POIN2	song03B4_011
	POIN2	song03B4_012
	POIN2	song03B4_013

	
