//Event file generated from Sappy .s format.
	#include "MPlayDef.event"

	#define	Celceta_grp  voicegroup001
	#define	Celceta_pri  0
	#define	Celceta_rev  0
	#define	Celceta_mvl  127
	#define	Celceta_key  0
	#define	Celceta_tbs  1
	#define	Celceta_exg  0
	#define	Celceta_cmp  1

	// .rodata
	//	Celceta
	ALIGN 4


//**************** Track 1 (Midi-Chn.0) ****************//

Celceta_001:
// 000   ----------------------------------------
 BYTE   KEYSH   Celceta_key+0
 BYTE   TEMPO   158*Celceta_tbs/2
 BYTE   VOICE   1
 BYTE   PAN   c_v+0
 BYTE   VOL   25*Celceta_mvl/mxv
 BYTE   N96  As3  v100
 BYTE   W96
// 001   ----------------------------------------
 BYTE   N48  An3
 BYTE   W48
 BYTE   N24  Dn4
 BYTE   W24
 BYTE   An3
 BYTE   W24
// 002   ----------------------------------------
 BYTE   N48  Gn3
 BYTE   W48
 BYTE   N24  As3
 BYTE   W24
 BYTE   Gn3
 BYTE   W24
// 003   ----------------------------------------
 BYTE   N06  Gn5
 BYTE   W06
 BYTE   Ds5
 BYTE   W06
 BYTE   Cn5  v096
 BYTE   W06
 BYTE   Gn4  v092
 BYTE   W06
 BYTE   Ds5
 BYTE   W06
 BYTE   Cn5  v088
 BYTE   W06
 BYTE   Gn4  v084
 BYTE   W06
 BYTE   Ds4
 BYTE   W06
 BYTE   Cn5  v080
 BYTE   W06
 BYTE   Gn4  v076
 BYTE   W06
 BYTE   Ds4
 BYTE   W06
 BYTE   Cn4  v072
 BYTE   W06
 BYTE   Gn4  v068
 BYTE   W06
 BYTE   Ds4
 BYTE   W06
 BYTE   Cn4  v064
 BYTE   W06
 BYTE   Gn3  v060
 BYTE   W06
// 004   ----------------------------------------
 BYTE   W96
// 005   ----------------------------------------
 BYTE   W96
// 006   ----------------------------------------
 BYTE   W96
// 007   ----------------------------------------
 BYTE   W96
// 008   ----------------------------------------
Label_0_01302AFD:
 BYTE   N18  As3  v100
 BYTE   W18
 BYTE   N06
 BYTE   W66
 BYTE   N06
 BYTE   W12
 BYTE   PEND 
// 009   ----------------------------------------
Label_0_01302B06:
 BYTE   N18  An3  v100
 BYTE   W18
 BYTE   N06
 BYTE   W66
 BYTE   N06
 BYTE   W12
 BYTE   PEND 
// 010   ----------------------------------------
Label_0_01302B0F:
 BYTE   N12  As3  v100
 BYTE   W12
 BYTE   Ds4
 BYTE   W12
 BYTE   Gn4
 BYTE   W12
 BYTE   As4
 BYTE   W12
 BYTE   Cn5
 BYTE   W12
 BYTE   Fn4
 BYTE   W12
 BYTE   An4
 BYTE   W12
 BYTE   Cn5
 BYTE   W12
 BYTE   PEND 
// 011   ----------------------------------------
Label_0_01302B22:
 BYTE   N06  Dn5  v100
 BYTE   W06
 BYTE   Fn4
 BYTE   W06
 BYTE   As4
 BYTE   W06
 BYTE   Dn5
 BYTE   W06
 BYTE   Fn5
 BYTE   W06
 BYTE   Dn5
 BYTE   W06
 BYTE   As4
 BYTE   W06
 BYTE   Dn5
 BYTE   W06
 BYTE   As4
 BYTE   W06
 BYTE   Gn5
 BYTE   W06
 BYTE   Dn5
 BYTE   W06
 BYTE   As4
 BYTE   W06
 BYTE   Cn5
 BYTE   W06
 BYTE   As4
 BYTE   W06
 BYTE   An4
 BYTE   W06
 BYTE   Dn4
 BYTE   W06
 BYTE   PEND 
// 012   ----------------------------------------
Label_0_01302B45:
 BYTE   N18  Ds4  v100
 BYTE   W18
 BYTE   N06
 BYTE   W66
 BYTE   N06
 BYTE   W12
 BYTE   PEND 
// 013   ----------------------------------------
Label_0_01302B4E:
 BYTE   N18  Dn4  v100
 BYTE   W18
 BYTE   N06
 BYTE   W66
 BYTE   N06
 BYTE   W12
 BYTE   PEND 
// 014   ----------------------------------------
Label_0_01302B57:
 BYTE   N24  Ds4  v100
 BYTE   W24
 BYTE   Cn4
 BYTE   W24
 BYTE   Gs3
 BYTE   W24
 BYTE   Ds3
 BYTE   W24
 BYTE   PEND 
// 015   ----------------------------------------
Label_0_01302B62:
 BYTE   N06  Cn4  v100
 BYTE   W06
 BYTE   N06
 BYTE   W30
 BYTE   N06
 BYTE   W06
 BYTE   N06
 BYTE   W18
 BYTE   N12  En4
 BYTE   W12
 BYTE   Fn4
 BYTE   W12
 BYTE   Fs4
 BYTE   W12
 BYTE   PEND 
// 016   ----------------------------------------
Label_0_01302B74:
 BYTE   N48  As3  v100
 BYTE   W48
 BYTE   N24  Dn4
 BYTE   W24
 BYTE   Gn4
 BYTE   W24
 BYTE   PEND 
// 017   ----------------------------------------
Label_0_01302B7E:
 BYTE   N24  Cn5  v100
 BYTE   W24
 BYTE   Fn4
 BYTE   W24
 BYTE   Cn4
 BYTE   W24
 BYTE   An3
 BYTE   W24
 BYTE   PEND 
// 018   ----------------------------------------
Label_0_01302B89:
 BYTE   N48  Gn4  v100
 BYTE   W48
 BYTE   N24  Fn4
 BYTE   W24
 BYTE   An4
 BYTE   W24
 BYTE   PEND 
// 019   ----------------------------------------
Label_0_01302B93:
 BYTE   N24  Fn4  v100
 BYTE   W24
 BYTE   Dn4
 BYTE   W24
 BYTE   As3
 BYTE   W24
 BYTE   N24
 BYTE   W24
 BYTE   PEND 
// 020   ----------------------------------------
Label_0_01302B9E:
 BYTE   N36  Cn4  v100
 BYTE   W36
 BYTE   Ds4
 BYTE   W36
 BYTE   N12  Cn4
 BYTE   W12
 BYTE   Ds4
 BYTE   W12
 BYTE   PEND 
// 021   ----------------------------------------
Label_0_01302BAA:
 BYTE   N36  As3  v100
 BYTE   W36
 BYTE   Dn4
 BYTE   W36
 BYTE   N12  Cn4
 BYTE   W12
 BYTE   Dn4
 BYTE   W12
 BYTE   PEND 
// 022   ----------------------------------------
Label_0_01302BB6:
 BYTE   N48  An4  v100
 BYTE   W48
 BYTE   N16  Cn5
 BYTE   W16
 BYTE   Dn4
 BYTE   W16
 BYTE   N16
 BYTE   W16
 BYTE   PEND 
// 023   ----------------------------------------
Label_0_01302BC2:
 BYTE   N36  Cn5  v100
 BYTE   W36
 BYTE   N60  As4
 BYTE   W60
 BYTE   PEND 
// 024   ----------------------------------------
 BYTE   W96
// 025   ----------------------------------------
 BYTE   W96
// 026   ----------------------------------------
 BYTE   W96
// 027   ----------------------------------------
 BYTE   W96
// 028   ----------------------------------------
 BYTE   W96
// 029   ----------------------------------------
 BYTE   W96
// 030   ----------------------------------------
 BYTE   W96
// 031   ----------------------------------------
 BYTE   W96
// 032   ----------------------------------------
 BYTE   W96
// 033   ----------------------------------------
 BYTE   W96
// 034   ----------------------------------------
 BYTE   W96
// 035   ----------------------------------------
 BYTE   W96
// 036   ----------------------------------------
 BYTE   W96
// 037   ----------------------------------------
 BYTE   W96
// 038   ----------------------------------------
 BYTE   W96
// 039   ----------------------------------------
Label_0_01302BD9:
 BYTE   N06  Gn0  v112
 BYTE   W06
 BYTE   Bn0
 BYTE   W06
 BYTE   Dn1
 BYTE   W06
 BYTE   Fn1
 BYTE   W06
 BYTE   Gn1
 BYTE   W06
 BYTE   Bn1
 BYTE   W06
 BYTE   Dn2
 BYTE   W06
 BYTE   Gn2
 BYTE   W06
 BYTE   Bn1
 BYTE   W06
 BYTE   Dn2
 BYTE   W06
 BYTE   Fn2
 BYTE   W06
 BYTE   Gn2
 BYTE   W06
 BYTE   Bn2
 BYTE   W06
 BYTE   Dn3
 BYTE   W06
 BYTE   Gn3
 BYTE   W06
 BYTE   Bn3
 BYTE   W06
 BYTE   PEND 
// 040   ----------------------------------------
 BYTE   W96
// 041   ----------------------------------------
 BYTE   W96
// 042   ----------------------------------------
 BYTE   W96
// 043   ----------------------------------------
 BYTE   W96
// 044   ----------------------------------------
 BYTE   W96
// 045   ----------------------------------------
 BYTE   W96
// 046   ----------------------------------------
 BYTE   W96
// 047   ----------------------------------------
 BYTE   W96
// 048   ----------------------------------------
 BYTE   W96
// 049   ----------------------------------------
 BYTE   W96
// 050   ----------------------------------------
 BYTE   W96
// 051   ----------------------------------------
 BYTE   W96
// 052   ----------------------------------------
 BYTE   PATT
  POIN2 Label_0_01302AFD
// 053   ----------------------------------------
 BYTE   PATT
  POIN2 Label_0_01302B06
// 054   ----------------------------------------
 BYTE   PATT
  POIN2 Label_0_01302B0F
// 055   ----------------------------------------
 BYTE   PATT
  POIN2 Label_0_01302B22
// 056   ----------------------------------------
 BYTE   PATT
  POIN2 Label_0_01302B45
// 057   ----------------------------------------
 BYTE   PATT
  POIN2 Label_0_01302B4E
// 058   ----------------------------------------
 BYTE   PATT
  POIN2 Label_0_01302B57
// 059   ----------------------------------------
 BYTE   PATT
  POIN2 Label_0_01302B62
// 060   ----------------------------------------
 BYTE   PATT
  POIN2 Label_0_01302B74
// 061   ----------------------------------------
 BYTE   PATT
  POIN2 Label_0_01302B7E
// 062   ----------------------------------------
 BYTE   PATT
  POIN2 Label_0_01302B89
// 063   ----------------------------------------
 BYTE   PATT
  POIN2 Label_0_01302B93
// 064   ----------------------------------------
 BYTE   PATT
  POIN2 Label_0_01302B9E
// 065   ----------------------------------------
 BYTE   PATT
  POIN2 Label_0_01302BAA
// 066   ----------------------------------------
 BYTE   PATT
  POIN2 Label_0_01302BB6
// 067   ----------------------------------------
 BYTE   PATT
  POIN2 Label_0_01302BC2
// 068   ----------------------------------------
 BYTE   W96
// 069   ----------------------------------------
 BYTE   W96
// 070   ----------------------------------------
 BYTE   W96
// 071   ----------------------------------------
 BYTE   W96
// 072   ----------------------------------------
 BYTE   W96
// 073   ----------------------------------------
 BYTE   W96
// 074   ----------------------------------------
 BYTE   W96
// 075   ----------------------------------------
 BYTE   W96
// 076   ----------------------------------------
 BYTE   W96
// 077   ----------------------------------------
 BYTE   W96
// 078   ----------------------------------------
 BYTE   W96
// 079   ----------------------------------------
 BYTE   W96
// 080   ----------------------------------------
 BYTE   W96
// 081   ----------------------------------------
 BYTE   W96
// 082   ----------------------------------------
 BYTE   W96
// 083   ----------------------------------------
 BYTE   PATT
  POIN2 Label_0_01302BD9
// 084   ----------------------------------------
 BYTE   W96
// 085   ----------------------------------------
 BYTE   W96
// 086   ----------------------------------------
 BYTE   W96
// 087   ----------------------------------------
 BYTE   W96
// 088   ----------------------------------------
 BYTE   W96
// 089   ----------------------------------------
 BYTE   W96
// 090   ----------------------------------------
 BYTE   W96
// 091   ----------------------------------------
 BYTE   W96
// 092   ----------------------------------------
 BYTE   W96
// 093   ----------------------------------------
 BYTE   W96
// 094   ----------------------------------------
 BYTE   W96
// 095   ----------------------------------------
 BYTE   W96
// 096   ----------------------------------------
 BYTE   GoTo
  POIN2 Label_0_01302AFD
 BYTE   FINE

//**************** Track 2 (Midi-Chn.1) ****************//

Celceta_002:
// 000   ----------------------------------------
 BYTE   KEYSH   Celceta_key+0
 BYTE   VOICE   100
 BYTE   PAN   c_v+22
 BYTE   VOL   25*Celceta_mvl/mxv
 BYTE   N96  Dn3  v100
 BYTE   W96
// 001   ----------------------------------------
 BYTE   N96
 BYTE   W96
// 002   ----------------------------------------
 BYTE   N96
 BYTE   W96
// 003   ----------------------------------------
 BYTE   W96
// 004   ----------------------------------------
 BYTE   W96
// 005   ----------------------------------------
 BYTE   W96
// 006   ----------------------------------------
 BYTE   W96
// 007   ----------------------------------------
 BYTE   W96
// 008   ----------------------------------------
Label_1_013039B1:
 BYTE   N18  Gn3  v100
 BYTE   W18
 BYTE   N06
 BYTE   W66
 BYTE   N06
 BYTE   W12
 BYTE   PEND 
// 009   ----------------------------------------
Label_1_013039BA:
 BYTE   N18  Fn3  v100
 BYTE   W18
 BYTE   N06
 BYTE   W66
 BYTE   N06
 BYTE   W12
 BYTE   PEND 
// 010   ----------------------------------------
Label_1_013039C3:
 BYTE   N12  Gn3  v100
 BYTE   W12
 BYTE   As3
 BYTE   W12
 BYTE   Ds4
 BYTE   W12
 BYTE   Gn4
 BYTE   W12
 BYTE   Fn4
 BYTE   W12
 BYTE   Cn4
 BYTE   W12
 BYTE   Fn4
 BYTE   W12
 BYTE   An4
 BYTE   W12
 BYTE   PEND 
// 011   ----------------------------------------
Label_1_013039D6:
 BYTE   W06
 BYTE   N06  Dn5  v100
 BYTE   W06
 BYTE   Fn4
 BYTE   W06
 BYTE   As4
 BYTE   W06
 BYTE   Dn5
 BYTE   W06
 BYTE   Fn5
 BYTE   W06
 BYTE   Dn5
 BYTE   W06
 BYTE   As4
 BYTE   W06
 BYTE   Dn5
 BYTE   W06
 BYTE   As4
 BYTE   W06
 BYTE   Gn5
 BYTE   W06
 BYTE   Dn5
 BYTE   W06
 BYTE   As4
 BYTE   W06
 BYTE   Cn5
 BYTE   W06
 BYTE   As4
 BYTE   W06
 BYTE   An4
 BYTE   W06
 BYTE   PEND 
// 012   ----------------------------------------
Label_1_013039F8:
 BYTE   N18  Cn4  v100
 BYTE   W18
 BYTE   N06
 BYTE   W66
 BYTE   N06
 BYTE   W12
 BYTE   PEND 
// 013   ----------------------------------------
Label_1_01303A01:
 BYTE   N18  As3  v100
 BYTE   W18
 BYTE   N06
 BYTE   W66
 BYTE   N06
 BYTE   W12
 BYTE   PEND 
// 014   ----------------------------------------
Label_1_01303A0A:
 BYTE   N24  Cn4  v100
 BYTE   W24
 BYTE   Gs3
 BYTE   W24
 BYTE   Ds3
 BYTE   W24
 BYTE   Cn3
 BYTE   W24
 BYTE   PEND 
// 015   ----------------------------------------
Label_1_01303A15:
 BYTE   N06  Fs3  v100
 BYTE   W06
 BYTE   N06
 BYTE   W30
 BYTE   N06
 BYTE   W06
 BYTE   N06
 BYTE   W18
 BYTE   N12  En3
 BYTE   W12
 BYTE   Fn3
 BYTE   W12
 BYTE   Fs3
 BYTE   W12
 BYTE   PEND 
// 016   ----------------------------------------
Label_1_01303A27:
 BYTE   N48  Gn3  v100
 BYTE   W48
 BYTE   N24  As3
 BYTE   W24
 BYTE   Dn4
 BYTE   W24
 BYTE   PEND 
// 017   ----------------------------------------
Label_1_01303A31:
 BYTE   N24  Fn4  v100
 BYTE   W24
 BYTE   Cn4
 BYTE   W24
 BYTE   An3
 BYTE   W24
 BYTE   Fn3
 BYTE   W24
 BYTE   PEND 
// 018   ----------------------------------------
Label_1_01303A3C:
 BYTE   N48  As3  v100
 BYTE   W48
 BYTE   N24  An3
 BYTE   W24
 BYTE   Fn3
 BYTE   W24
 BYTE   PEND 
// 019   ----------------------------------------
Label_1_01303A46:
 BYTE   N24  As3  v100
 BYTE   W24
 BYTE   Fn3
 BYTE   W24
 BYTE   Dn3
 BYTE   W24
 BYTE   Fn3
 BYTE   W24
 BYTE   PEND 
// 020   ----------------------------------------
Label_1_01303A51:
 BYTE   N36  Gs3  v100
 BYTE   W36
 BYTE   Cn4
 BYTE   W36
 BYTE   N12  As3
 BYTE   W12
 BYTE   Cn4
 BYTE   W12
 BYTE   PEND 
// 021   ----------------------------------------
Label_1_01303A5D:
 BYTE   N36  Gn3  v100
 BYTE   W36
 BYTE   As3
 BYTE   W36
 BYTE   N12  Gn3
 BYTE   W12
 BYTE   An3
 BYTE   W12
 BYTE   PEND 
// 022   ----------------------------------------
Label_1_01303A69:
 BYTE   N48  Dn3  v100
 BYTE   W48
 BYTE   N16  Fs3
 BYTE   W16
 BYTE   An3
 BYTE   W16
 BYTE   N16
 BYTE   W16
 BYTE   PEND 
// 023   ----------------------------------------
Label_1_01303A75:
 BYTE   N36  Dn3  v100
 BYTE   W36
 BYTE   N60  Gn3
 BYTE   W60
 BYTE   PEND 
// 024   ----------------------------------------
 BYTE   W96
// 025   ----------------------------------------
 BYTE   W96
// 026   ----------------------------------------
 BYTE   W96
// 027   ----------------------------------------
 BYTE   W96
// 028   ----------------------------------------
 BYTE   W96
// 029   ----------------------------------------
 BYTE   W96
// 030   ----------------------------------------
 BYTE   W96
// 031   ----------------------------------------
 BYTE   W96
// 032   ----------------------------------------
 BYTE   W96
// 033   ----------------------------------------
 BYTE   W96
// 034   ----------------------------------------
 BYTE   W96
// 035   ----------------------------------------
 BYTE   W96
// 036   ----------------------------------------
 BYTE   W96
// 037   ----------------------------------------
 BYTE   W96
// 038   ----------------------------------------
 BYTE   W96
// 039   ----------------------------------------
Label_1_01303A8C:
 BYTE   N06  Gn2  v112
 BYTE   W06
 BYTE   Bn2
 BYTE   W06
 BYTE   Dn3
 BYTE   W06
 BYTE   Fn3
 BYTE   W06
 BYTE   Gn3
 BYTE   W06
 BYTE   Bn3
 BYTE   W06
 BYTE   Dn4
 BYTE   W06
 BYTE   Gn4
 BYTE   W06
 BYTE   Bn3
 BYTE   W06
 BYTE   Dn4
 BYTE   W06
 BYTE   Fn4
 BYTE   W06
 BYTE   Gn4
 BYTE   W06
 BYTE   Bn4
 BYTE   W06
 BYTE   Dn5
 BYTE   W06
 BYTE   Gn5
 BYTE   W06
 BYTE   Bn5
 BYTE   W06
 BYTE   PEND 
// 040   ----------------------------------------
 BYTE   W96
// 041   ----------------------------------------
 BYTE   W96
// 042   ----------------------------------------
 BYTE   W96
// 043   ----------------------------------------
 BYTE   W96
// 044   ----------------------------------------
 BYTE   W96
// 045   ----------------------------------------
 BYTE   W96
// 046   ----------------------------------------
 BYTE   W96
// 047   ----------------------------------------
 BYTE   W96
// 048   ----------------------------------------
 BYTE   W96
// 049   ----------------------------------------
 BYTE   W96
// 050   ----------------------------------------
 BYTE   W96
// 051   ----------------------------------------
 BYTE   W96
// 052   ----------------------------------------
 BYTE   PATT
  POIN2 Label_1_013039B1
// 053   ----------------------------------------
 BYTE   PATT
  POIN2 Label_1_013039BA
// 054   ----------------------------------------
 BYTE   PATT
  POIN2 Label_1_013039C3
// 055   ----------------------------------------
 BYTE   PATT
  POIN2 Label_1_013039D6
// 056   ----------------------------------------
 BYTE   PATT
  POIN2 Label_1_013039F8
// 057   ----------------------------------------
 BYTE   PATT
  POIN2 Label_1_01303A01
// 058   ----------------------------------------
 BYTE   PATT
  POIN2 Label_1_01303A0A
// 059   ----------------------------------------
 BYTE   PATT
  POIN2 Label_1_01303A15
// 060   ----------------------------------------
 BYTE   PATT
  POIN2 Label_1_01303A27
// 061   ----------------------------------------
 BYTE   PATT
  POIN2 Label_1_01303A31
// 062   ----------------------------------------
 BYTE   PATT
  POIN2 Label_1_01303A3C
// 063   ----------------------------------------
 BYTE   PATT
  POIN2 Label_1_01303A46
// 064   ----------------------------------------
 BYTE   PATT
  POIN2 Label_1_01303A51
// 065   ----------------------------------------
 BYTE   PATT
  POIN2 Label_1_01303A5D
// 066   ----------------------------------------
 BYTE   PATT
  POIN2 Label_1_01303A69
// 067   ----------------------------------------
 BYTE   PATT
  POIN2 Label_1_01303A75
// 068   ----------------------------------------
 BYTE   W96
// 069   ----------------------------------------
 BYTE   W96
// 070   ----------------------------------------
 BYTE   W96
// 071   ----------------------------------------
 BYTE   W96
// 072   ----------------------------------------
 BYTE   W96
// 073   ----------------------------------------
 BYTE   W96
// 074   ----------------------------------------
 BYTE   W96
// 075   ----------------------------------------
 BYTE   W96
// 076   ----------------------------------------
 BYTE   W96
// 077   ----------------------------------------
 BYTE   W96
// 078   ----------------------------------------
 BYTE   W96
// 079   ----------------------------------------
 BYTE   W96
// 080   ----------------------------------------
 BYTE   W96
// 081   ----------------------------------------
 BYTE   W96
// 082   ----------------------------------------
 BYTE   W96
// 083   ----------------------------------------
 BYTE   PATT
  POIN2 Label_1_01303A8C
// 084   ----------------------------------------
 BYTE   W96
// 085   ----------------------------------------
 BYTE   W96
// 086   ----------------------------------------
 BYTE   W96
// 087   ----------------------------------------
 BYTE   W96
// 088   ----------------------------------------
 BYTE   W96
// 089   ----------------------------------------
 BYTE   W96
// 090   ----------------------------------------
 BYTE   W96
// 091   ----------------------------------------
 BYTE   W96
// 092   ----------------------------------------
 BYTE   W96
// 093   ----------------------------------------
 BYTE   W96
// 094   ----------------------------------------
 BYTE   W96
// 095   ----------------------------------------
 BYTE   W96
// 096   ----------------------------------------
 BYTE   GoTo
  POIN2 Label_1_013039B1
 BYTE   FINE

//**************** Track 3 (Midi-Chn.2) ****************//

Celceta_003:
// 000   ----------------------------------------
 BYTE   KEYSH   Celceta_key+0
 BYTE   VOICE   52
 BYTE   PAN   c_v-22
 BYTE   VOL   25*Celceta_mvl/mxv
 BYTE   N96  Gn2  v100
 BYTE   W96
// 001   ----------------------------------------
 BYTE   Fn2
 BYTE   W96
// 002   ----------------------------------------
 BYTE   Ds2
 BYTE   W96
// 003   ----------------------------------------
 BYTE   W96
// 004   ----------------------------------------
 BYTE   W96
// 005   ----------------------------------------
 BYTE   W96
// 006   ----------------------------------------
 BYTE   W96
// 007   ----------------------------------------
 BYTE   W96
// 008   ----------------------------------------
Label_2_01302891:
 BYTE   W96
// 009   ----------------------------------------
 BYTE   W96
// 010   ----------------------------------------
 BYTE   W96
// 011   ----------------------------------------
 BYTE   W96
// 012   ----------------------------------------
 BYTE   W96
// 013   ----------------------------------------
 BYTE   W96
// 014   ----------------------------------------
 BYTE   W96
// 015   ----------------------------------------
 BYTE   W96
// 016   ----------------------------------------
 BYTE   W96
// 017   ----------------------------------------
 BYTE   W96
// 018   ----------------------------------------
 BYTE   W96
// 019   ----------------------------------------
 BYTE   W96
// 020   ----------------------------------------
 BYTE   W96
// 021   ----------------------------------------
 BYTE   W96
// 022   ----------------------------------------
 BYTE   W96
// 023   ----------------------------------------
 BYTE   W96
// 024   ----------------------------------------
 BYTE   W96
// 025   ----------------------------------------
 BYTE   W96
// 026   ----------------------------------------
 BYTE   W96
// 027   ----------------------------------------
 BYTE   W96
// 028   ----------------------------------------
 BYTE   W96
// 029   ----------------------------------------
 BYTE   W96
// 030   ----------------------------------------
 BYTE   W96
// 031   ----------------------------------------
 BYTE   W96
// 032   ----------------------------------------
 BYTE   W96
// 033   ----------------------------------------
 BYTE   W96
// 034   ----------------------------------------
 BYTE   W96
// 035   ----------------------------------------
 BYTE   W96
// 036   ----------------------------------------
 BYTE   W96
// 037   ----------------------------------------
 BYTE   W96
// 038   ----------------------------------------
 BYTE   W96
// 039   ----------------------------------------
 BYTE   W96
// 040   ----------------------------------------
 BYTE   W96
// 041   ----------------------------------------
 BYTE   W96
// 042   ----------------------------------------
 BYTE   W96
// 043   ----------------------------------------
 BYTE   W96
// 044   ----------------------------------------
 BYTE   W96
// 045   ----------------------------------------
 BYTE   W96
// 046   ----------------------------------------
 BYTE   W96
// 047   ----------------------------------------
 BYTE   W96
// 048   ----------------------------------------
 BYTE   W96
// 049   ----------------------------------------
 BYTE   W96
// 050   ----------------------------------------
 BYTE   W96
// 051   ----------------------------------------
 BYTE   W96
// 052   ----------------------------------------
 BYTE   W96
// 053   ----------------------------------------
 BYTE   W96
// 054   ----------------------------------------
 BYTE   W96
// 055   ----------------------------------------
 BYTE   W96
// 056   ----------------------------------------
 BYTE   W96
// 057   ----------------------------------------
 BYTE   W96
// 058   ----------------------------------------
 BYTE   W96
// 059   ----------------------------------------
 BYTE   W96
// 060   ----------------------------------------
 BYTE   W96
// 061   ----------------------------------------
 BYTE   W96
// 062   ----------------------------------------
 BYTE   W96
// 063   ----------------------------------------
 BYTE   W96
// 064   ----------------------------------------
 BYTE   W96
// 065   ----------------------------------------
 BYTE   W96
// 066   ----------------------------------------
 BYTE   W96
// 067   ----------------------------------------
 BYTE   W96
// 068   ----------------------------------------
 BYTE   W96
// 069   ----------------------------------------
 BYTE   W96
// 070   ----------------------------------------
 BYTE   W96
// 071   ----------------------------------------
 BYTE   W96
// 072   ----------------------------------------
 BYTE   W96
// 073   ----------------------------------------
 BYTE   W96
// 074   ----------------------------------------
 BYTE   W96
// 075   ----------------------------------------
 BYTE   W96
// 076   ----------------------------------------
 BYTE   W96
// 077   ----------------------------------------
 BYTE   W96
// 078   ----------------------------------------
 BYTE   W96
// 079   ----------------------------------------
 BYTE   W96
// 080   ----------------------------------------
 BYTE   W96
// 081   ----------------------------------------
 BYTE   W96
// 082   ----------------------------------------
 BYTE   W96
// 083   ----------------------------------------
 BYTE   W96
// 084   ----------------------------------------
 BYTE   W96
// 085   ----------------------------------------
 BYTE   W96
// 086   ----------------------------------------
 BYTE   W96
// 087   ----------------------------------------
 BYTE   W96
// 088   ----------------------------------------
 BYTE   W96
// 089   ----------------------------------------
 BYTE   W96
// 090   ----------------------------------------
 BYTE   W96
// 091   ----------------------------------------
 BYTE   W96
// 092   ----------------------------------------
 BYTE   W96
// 093   ----------------------------------------
 BYTE   W96
// 094   ----------------------------------------
 BYTE   W96
// 095   ----------------------------------------
 BYTE   W96
// 096   ----------------------------------------
 BYTE   GoTo
  POIN2 Label_2_01302891
 BYTE   FINE

//**************** Track 4 (Midi-Chn.3) ****************//

Celceta_004:
// 000   ----------------------------------------
 BYTE   KEYSH   Celceta_key+0
 BYTE   VOICE   29
 BYTE   PAN   c_v+11
 BYTE   VOL   28*Celceta_mvl/mxv
 BYTE   W24
 BYTE   BEND   c_v+0
 BYTE   W72
// 001   ----------------------------------------
 BYTE   W96
// 002   ----------------------------------------
 BYTE   W96
// 003   ----------------------------------------
 BYTE   W96
// 004   ----------------------------------------
 BYTE   W96
// 005   ----------------------------------------
 BYTE   W96
// 006   ----------------------------------------
 BYTE   W96
// 007   ----------------------------------------
 BYTE   W96
// 008   ----------------------------------------
Label_3_0130338B:
 BYTE   W96
// 009   ----------------------------------------
 BYTE   W96
// 010   ----------------------------------------
 BYTE   W96
// 011   ----------------------------------------
 BYTE   W96
// 012   ----------------------------------------
 BYTE   W96
// 013   ----------------------------------------
 BYTE   W96
// 014   ----------------------------------------
 BYTE   W96
// 015   ----------------------------------------
 BYTE   W96
// 016   ----------------------------------------
 BYTE   W96
// 017   ----------------------------------------
 BYTE   W96
// 018   ----------------------------------------
 BYTE   W96
// 019   ----------------------------------------
 BYTE   W96
// 020   ----------------------------------------
 BYTE   W96
// 021   ----------------------------------------
 BYTE   W96
// 022   ----------------------------------------
 BYTE   W96
// 023   ----------------------------------------
 BYTE   W96
// 024   ----------------------------------------
Label_3_0130339B:
 BYTE   N06  As3  v112
 BYTE   W06
 BYTE   An3
 BYTE   W06
 BYTE   N36  As3
 BYTE   W48
 BYTE   N12  Gn3
 BYTE   W12
 BYTE   An3
 BYTE   W12
 BYTE   As3
 BYTE   W12
 BYTE   PEND 
// 025   ----------------------------------------
Label_3_013033AC:
 BYTE   N16  An3  v112
 BYTE   W16
 BYTE   Dn4
 BYTE   W16
 BYTE   N28  An3
 BYTE   W28
 BYTE   N36  Fn3
 BYTE   W36
 BYTE   PEND 
// 026   ----------------------------------------
Label_3_013033B9:
 BYTE   N48  An3  v112
 BYTE   W48
 BYTE   N24  As3
 BYTE   W24
 BYTE   Cn4
 BYTE   W24
 BYTE   PEND 
// 027   ----------------------------------------
Label_3_013033C3:
 BYTE   N18  Cn4  v112
 BYTE   W18
 BYTE   N06  As3
 BYTE   W18
 BYTE   N60
 BYTE   W60
 BYTE   PEND 
// 028   ----------------------------------------
Label_3_013033CD:
 BYTE   N48  Gn3  v112
 BYTE   W60
 BYTE   N12
 BYTE   W12
 BYTE   An3
 BYTE   W12
 BYTE   As3
 BYTE   W12
 BYTE   PEND 
// 029   ----------------------------------------
Label_3_013033D8:
 BYTE   N24  Cn4  v112
 BYTE   W24
 BYTE   Fn3
 BYTE   W24
 BYTE   Fn4
 BYTE   W24
 BYTE   Ds4
 BYTE   W24
 BYTE   PEND 
// 030   ----------------------------------------
 BYTE   TIE  Dn4
 BYTE   W96
// 031   ----------------------------------------
 BYTE   W48
 BYTE   EOT
 BYTE   W48
// 032   ----------------------------------------
 BYTE   PATT
  POIN2 Label_3_0130339B
// 033   ----------------------------------------
 BYTE   PATT
  POIN2 Label_3_013033AC
// 034   ----------------------------------------
Label_3_013033F3:
 BYTE   N48  An3  v112
 BYTE   W48
 BYTE   N24  Fs4
 BYTE   W24
 BYTE   Dn4
 BYTE   W24
 BYTE   PEND 
// 035   ----------------------------------------
Label_3_013033FD:
 BYTE   N18  As4  v112
 BYTE   W18
 BYTE   N06  An4
 BYTE   W18
 BYTE   N24  Gn4
 BYTE   W24
 BYTE   N12
 BYTE   W12
 BYTE   An4
 BYTE   W12
 BYTE   As4
 BYTE   W12
 BYTE   PEND 
// 036   ----------------------------------------
Label_3_0130340E:
 BYTE   N48  Cn5  v112
 BYTE   W48
 BYTE   Gs4
 BYTE   W48
 BYTE   PEND 
// 037   ----------------------------------------
Label_3_01303415:
 BYTE   N48  Fn4  v112
 BYTE   W48
 BYTE   Ds4
 BYTE   W48
 BYTE   PEND 
// 038   ----------------------------------------
 BYTE   N96  Dn4
 BYTE   W96
// 039   ----------------------------------------
 BYTE   W96
// 040   ----------------------------------------
Label_3_01303420:
 BYTE   N36  Ds3  v112
 BYTE   W36
 BYTE   N06  Dn3
 BYTE   W06
 BYTE   Ds3
 BYTE   W06
 BYTE   N24  Fn3
 BYTE   W24
 BYTE   As3
 BYTE   W24
 BYTE   PEND 
// 041   ----------------------------------------
Label_3_0130342F:
 BYTE   N48  Gn3  v112
 BYTE   W72
 BYTE   N12  Gs3
 BYTE   W12
 BYTE   As3
 BYTE   W12
 BYTE   PEND 
// 042   ----------------------------------------
Label_3_01303439:
 BYTE   N48  Cn4  v112
 BYTE   W48
 BYTE   N12  Dn4
 BYTE   W12
 BYTE   Gn3
 BYTE   W12
 BYTE   Gn4
 BYTE   W12
 BYTE   Fn4
 BYTE   W12
 BYTE   PEND 
// 043   ----------------------------------------
 BYTE   PATT
  POIN2 Label_3_01303415
// 044   ----------------------------------------
 BYTE   PATT
  POIN2 Label_3_01303420
// 045   ----------------------------------------
 BYTE   PATT
  POIN2 Label_3_0130342F
// 046   ----------------------------------------
Label_3_01303456:
 BYTE   N36  Cn4  v112
 BYTE   W36
 BYTE   N06  Dn4
 BYTE   W06
 BYTE   Ds4
 BYTE   W06
 BYTE   N12  Dn4
 BYTE   W12
 BYTE   Gn3
 BYTE   W12
 BYTE   Gn4
 BYTE   W12
 BYTE   Fn4
 BYTE   W12
 BYTE   PEND 
// 047   ----------------------------------------
 BYTE   N96  Ds4
 BYTE   W96
// 048   ----------------------------------------
 BYTE   Gn3
 BYTE   W96
// 049   ----------------------------------------
Label_3_0130346E:
 BYTE   N18  Gn3  v112
 BYTE   W18
 BYTE   Fn3
 BYTE   W18
 BYTE   N12  Ds3
 BYTE   W12
 BYTE   N18  Dn3
 BYTE   W18
 BYTE   Cn3
 BYTE   W18
 BYTE   N12  As2
 BYTE   W12
 BYTE   PEND 
// 050   ----------------------------------------
Label_3_01303480:
 BYTE   TIE  Cn3  v112
 BYTE   W60
 BYTE   BEND   c_v+1
 BYTE   W01
 BYTE   Gn3
 BYTE   W01
 BYTE   An3
 BYTE   W01
 BYTE   As3
 BYTE   W01
 BYTE   Cn4
 BYTE   W01
 BYTE   Dn4
 BYTE   W01
 BYTE   En4
 BYTE   W01
 BYTE   Fs4
 BYTE   W01
 BYTE   Gn4
 BYTE   W01
 BYTE   An4
 BYTE   W01
 BYTE   Bn4
 BYTE   W01
 BYTE   Cn5
 BYTE   W01
 BYTE   Ds5
 BYTE   W01
 BYTE   En5
 BYTE   W01
 BYTE   Fs5
 BYTE   W01
 BYTE   Gs5
 BYTE   W01
 BYTE   An5
 BYTE   W01
 BYTE   Bn5
 BYTE   W01
 BYTE   Cs6
 BYTE   W01
 BYTE   Ds6
 BYTE   W01
 BYTE   Fn6
 BYTE   W01
 BYTE   Fs6
 BYTE   W01
 BYTE   Gs6
 BYTE   W01
 BYTE   As6
 BYTE   W01
 BYTE   Cn7
 BYTE   W01
 BYTE   Dn7
 BYTE   W01
 BYTE   Ds7
 BYTE   W01
 BYTE   Fn7
 BYTE   W01
 BYTE   Gn7
 BYTE   W01
 BYTE   Gs7
 BYTE   W01
 BYTE   Bn7
 BYTE   W01
 BYTE   Cn8
 BYTE   W01
 BYTE   Dn8
 BYTE   W01
 BYTE   En8
 BYTE   W01
 BYTE   Fn8
 BYTE   W01
 BYTE   Gn8
 BYTE   W01
 BYTE   PEND 
// 051   ----------------------------------------
 BYTE   Gn8
 BYTE   W96
// 052   ----------------------------------------
 BYTE   EOT
 BYTE   W96
// 053   ----------------------------------------
 BYTE   W96
// 054   ----------------------------------------
 BYTE   W96
// 055   ----------------------------------------
 BYTE   W96
// 056   ----------------------------------------
 BYTE   W96
// 057   ----------------------------------------
 BYTE   W96
// 058   ----------------------------------------
 BYTE   BEND   c_v+0
 BYTE   W96
// 059   ----------------------------------------
 BYTE   W96
// 060   ----------------------------------------
 BYTE   W96
// 061   ----------------------------------------
 BYTE   W96
// 062   ----------------------------------------
 BYTE   W96
// 063   ----------------------------------------
 BYTE   W96
// 064   ----------------------------------------
 BYTE   W96
// 065   ----------------------------------------
 BYTE   W96
// 066   ----------------------------------------
 BYTE   W96
// 067   ----------------------------------------
 BYTE   W96
// 068   ----------------------------------------
 BYTE   PATT
  POIN2 Label_3_0130339B
// 069   ----------------------------------------
 BYTE   PATT
  POIN2 Label_3_013033AC
// 070   ----------------------------------------
 BYTE   PATT
  POIN2 Label_3_013033B9
// 071   ----------------------------------------
 BYTE   PATT
  POIN2 Label_3_013033C3
// 072   ----------------------------------------
 BYTE   PATT
  POIN2 Label_3_013033CD
// 073   ----------------------------------------
 BYTE   PATT
  POIN2 Label_3_013033D8
// 074   ----------------------------------------
 BYTE   TIE  Dn4  v112
 BYTE   W96
// 075   ----------------------------------------
 BYTE   W48
 BYTE   EOT
 BYTE   W48
// 076   ----------------------------------------
 BYTE   PATT
  POIN2 Label_3_0130339B
// 077   ----------------------------------------
 BYTE   PATT
  POIN2 Label_3_013033AC
// 078   ----------------------------------------
 BYTE   PATT
  POIN2 Label_3_013033F3
// 079   ----------------------------------------
 BYTE   PATT
  POIN2 Label_3_013033FD
// 080   ----------------------------------------
 BYTE   PATT
  POIN2 Label_3_0130340E
// 081   ----------------------------------------
 BYTE   PATT
  POIN2 Label_3_01303415
// 082   ----------------------------------------
 BYTE   N96  Dn4  v112
 BYTE   W96
// 083   ----------------------------------------
 BYTE   W96
// 084   ----------------------------------------
 BYTE   PATT
  POIN2 Label_3_01303420
// 085   ----------------------------------------
 BYTE   PATT
  POIN2 Label_3_0130342F
// 086   ----------------------------------------
 BYTE   PATT
  POIN2 Label_3_01303439
// 087   ----------------------------------------
 BYTE   PATT
  POIN2 Label_3_01303415
// 088   ----------------------------------------
 BYTE   PATT
  POIN2 Label_3_01303420
// 089   ----------------------------------------
 BYTE   PATT
  POIN2 Label_3_0130342F
// 090   ----------------------------------------
 BYTE   PATT
  POIN2 Label_3_01303456
// 091   ----------------------------------------
 BYTE   N96  Ds4  v112
 BYTE   W96
// 092   ----------------------------------------
 BYTE   Gn3
 BYTE   W96
// 093   ----------------------------------------
 BYTE   PATT
  POIN2 Label_3_0130346E
// 094   ----------------------------------------
 BYTE   PATT
  POIN2 Label_3_01303480
// 095   ----------------------------------------
 BYTE   BEND   c_v+63
 BYTE   W96
// 096   ----------------------------------------
 BYTE   EOT
 BYTE   Cn3
 BYTE   GoTo
  POIN2 Label_3_0130338B
// 097   ----------------------------------------
 BYTE   BEND   c_v+0
 BYTE   FINE

//**************** Track 5 (Midi-Chn.4) ****************//

Celceta_005:
// 000   ----------------------------------------
 BYTE   KEYSH   Celceta_key+0
 BYTE   VOICE   29
 BYTE   PAN   c_v-14
 BYTE   VOL   34*Celceta_mvl/mxv
 BYTE   W03
 BYTE   MOD 0
 BYTE   DnM2
 BYTE   W92
 BYTE   W01
// 001   ----------------------------------------
 BYTE   W96
// 002   ----------------------------------------
 BYTE   W96
// 003   ----------------------------------------
 BYTE   W96
// 004   ----------------------------------------
 BYTE   W96
// 005   ----------------------------------------
 BYTE   W96
// 006   ----------------------------------------
 BYTE   W96
// 007   ----------------------------------------
 BYTE   W96
// 008   ----------------------------------------
Label_4_013036B0:
 BYTE   N48  Dn3  v112
 BYTE   W48
 BYTE   N24  Cn3
 BYTE   W24
 BYTE   As2
 BYTE   W24
 BYTE   PEND 
// 009   ----------------------------------------
Label_4_013036BA:
 BYTE   N12  An2  v112
 BYTE   W12
 BYTE   As2
 BYTE   W12
 BYTE   Cn3
 BYTE   W12
 BYTE   An2
 BYTE   W12
 BYTE   N24  Fn2
 BYTE   W24
 BYTE   N12  Gn2
 BYTE   W12
 BYTE   An2
 BYTE   W12
 BYTE   PEND 
// 010   ----------------------------------------
Label_4_013036CD:
 BYTE   N36  As2  v112
 BYTE   W36
 BYTE   N06  An2
 BYTE   W06
 BYTE   As2
 BYTE   W06
 BYTE   N24  Cn3
 BYTE   W24
 BYTE   Fn3
 BYTE   W24
 BYTE   PEND 
// 011   ----------------------------------------
Label_4_013036DC:
 BYTE   N72  Dn3  v112
 BYTE   W72
 BYTE   N12  Ds3
 BYTE   W12
 BYTE   Fn3
 BYTE   W12
 BYTE   PEND 
// 012   ----------------------------------------
Label_4_013036E6:
 BYTE   N36  Fn3  v112
 BYTE   W36
 BYTE   Ds3
 BYTE   W36
 BYTE   N12  Dn3
 BYTE   W12
 BYTE   Ds3
 BYTE   W12
 BYTE   PEND 
// 013   ----------------------------------------
Label_4_013036F2:
 BYTE   N36  Dn3  v112
 BYTE   W36
 BYTE   As2
 BYTE   W36
 BYTE   N12  An2
 BYTE   W12
 BYTE   As2
 BYTE   W12
 BYTE   PEND 
// 014   ----------------------------------------
Label_4_013036FE:
 BYTE   N48  Cn3  v112
 BYTE   W48
 BYTE   N24  Dn3
 BYTE   W24
 BYTE   Ds3
 BYTE   W24
 BYTE   PEND 
// 015   ----------------------------------------
 BYTE   N36  Dn3
 BYTE   W96
// 016   ----------------------------------------
 BYTE   PATT
  POIN2 Label_4_013036B0
// 017   ----------------------------------------
 BYTE   PATT
  POIN2 Label_4_013036BA
// 018   ----------------------------------------
 BYTE   PATT
  POIN2 Label_4_013036CD
// 019   ----------------------------------------
 BYTE   PATT
  POIN2 Label_4_013036DC
// 020   ----------------------------------------
 BYTE   PATT
  POIN2 Label_4_013036E6
// 021   ----------------------------------------
Label_4_01303724:
 BYTE   N36  Cn4  v112
 BYTE   W36
 BYTE   As3
 BYTE   W36
 BYTE   N12  An3
 BYTE   W12
 BYTE   As3
 BYTE   W12
 BYTE   PEND 
// 022   ----------------------------------------
Label_4_01303730:
 BYTE   N48  An3  v112
 BYTE   W48
 BYTE   N16  Dn4
 BYTE   W16
 BYTE   Fs3
 BYTE   W16
 BYTE   An3
 BYTE   W16
 BYTE   PEND 
// 023   ----------------------------------------
Label_4_0130373C:
 BYTE   N06  Gn3  v112
 BYTE   W12
 BYTE   N24
 BYTE   W30
 BYTE   N06
 BYTE   W06
 BYTE   N12
 BYTE   W12
 BYTE   N12
 BYTE   W36
 BYTE   PEND 
// 024   ----------------------------------------
 BYTE   W96
// 025   ----------------------------------------
 BYTE   W96
// 026   ----------------------------------------
 BYTE   W96
// 027   ----------------------------------------
 BYTE   W96
// 028   ----------------------------------------
 BYTE   W96
// 029   ----------------------------------------
 BYTE   W96
// 030   ----------------------------------------
 BYTE   W96
// 031   ----------------------------------------
 BYTE   W96
// 032   ----------------------------------------
 BYTE   W96
// 033   ----------------------------------------
 BYTE   W96
// 034   ----------------------------------------
 BYTE   W96
// 035   ----------------------------------------
 BYTE   W96
// 036   ----------------------------------------
 BYTE   W96
// 037   ----------------------------------------
 BYTE   W96
// 038   ----------------------------------------
 BYTE   W96
// 039   ----------------------------------------
 BYTE   W96
// 040   ----------------------------------------
 BYTE   W96
// 041   ----------------------------------------
 BYTE   W96
// 042   ----------------------------------------
 BYTE   W96
// 043   ----------------------------------------
 BYTE   W96
// 044   ----------------------------------------
 BYTE   W96
// 045   ----------------------------------------
 BYTE   W96
// 046   ----------------------------------------
 BYTE   W96
// 047   ----------------------------------------
 BYTE   W96
// 048   ----------------------------------------
 BYTE   W96
// 049   ----------------------------------------
 BYTE   W96
// 050   ----------------------------------------
 BYTE   W96
// 051   ----------------------------------------
 BYTE   W96
// 052   ----------------------------------------
 BYTE   PATT
  POIN2 Label_4_013036B0
// 053   ----------------------------------------
 BYTE   PATT
  POIN2 Label_4_013036BA
// 054   ----------------------------------------
 BYTE   PATT
  POIN2 Label_4_013036CD
// 055   ----------------------------------------
 BYTE   PATT
  POIN2 Label_4_013036DC
// 056   ----------------------------------------
 BYTE   PATT
  POIN2 Label_4_013036E6
// 057   ----------------------------------------
 BYTE   PATT
  POIN2 Label_4_013036F2
// 058   ----------------------------------------
 BYTE   PATT
  POIN2 Label_4_013036FE
// 059   ----------------------------------------
 BYTE   N36  Dn3  v112
 BYTE   W96
// 060   ----------------------------------------
 BYTE   PATT
  POIN2 Label_4_013036B0
// 061   ----------------------------------------
 BYTE   PATT
  POIN2 Label_4_013036BA
// 062   ----------------------------------------
 BYTE   PATT
  POIN2 Label_4_013036CD
// 063   ----------------------------------------
 BYTE   PATT
  POIN2 Label_4_013036DC
// 064   ----------------------------------------
 BYTE   PATT
  POIN2 Label_4_013036E6
// 065   ----------------------------------------
 BYTE   PATT
  POIN2 Label_4_01303724
// 066   ----------------------------------------
 BYTE   PATT
  POIN2 Label_4_01303730
// 067   ----------------------------------------
 BYTE   PATT
  POIN2 Label_4_0130373C
// 068   ----------------------------------------
 BYTE   W96
// 069   ----------------------------------------
 BYTE   W96
// 070   ----------------------------------------
 BYTE   W96
// 071   ----------------------------------------
 BYTE   W96
// 072   ----------------------------------------
 BYTE   W96
// 073   ----------------------------------------
 BYTE   W96
// 074   ----------------------------------------
 BYTE   W96
// 075   ----------------------------------------
 BYTE   W96
// 076   ----------------------------------------
 BYTE   W96
// 077   ----------------------------------------
 BYTE   W96
// 078   ----------------------------------------
 BYTE   W96
// 079   ----------------------------------------
 BYTE   W96
// 080   ----------------------------------------
 BYTE   W96
// 081   ----------------------------------------
 BYTE   W96
// 082   ----------------------------------------
 BYTE   W96
// 083   ----------------------------------------
 BYTE   W96
// 084   ----------------------------------------
 BYTE   W96
// 085   ----------------------------------------
 BYTE   W96
// 086   ----------------------------------------
 BYTE   W96
// 087   ----------------------------------------
 BYTE   W96
// 088   ----------------------------------------
 BYTE   W96
// 089   ----------------------------------------
 BYTE   W96
// 090   ----------------------------------------
 BYTE   W96
// 091   ----------------------------------------
 BYTE   W96
// 092   ----------------------------------------
 BYTE   W96
// 093   ----------------------------------------
 BYTE   W96
// 094   ----------------------------------------
 BYTE   W96
// 095   ----------------------------------------
 BYTE   W96
// 096   ----------------------------------------
 BYTE   GoTo
  POIN2 Label_4_013036B0
 BYTE   FINE

//**************** Track 6 (Midi-Chn.5) ****************//

Celceta_006:
// 000   ----------------------------------------
 BYTE   KEYSH   Celceta_key+0
 BYTE   VOICE   54
 BYTE   PAN   c_v+16
 BYTE   VOL   31*Celceta_mvl/mxv
 BYTE   W96
// 001   ----------------------------------------
 BYTE   W96
// 002   ----------------------------------------
 BYTE   W96
// 003   ----------------------------------------
 BYTE   W96
// 004   ----------------------------------------
 BYTE   W96
// 005   ----------------------------------------
 BYTE   W96
// 006   ----------------------------------------
 BYTE   W96
// 007   ----------------------------------------
 BYTE   W96
// 008   ----------------------------------------
Label_5_01302FB8:
 BYTE   W96
// 009   ----------------------------------------
 BYTE   W96
// 010   ----------------------------------------
 BYTE   W96
// 011   ----------------------------------------
 BYTE   W96
// 012   ----------------------------------------
 BYTE   W96
// 013   ----------------------------------------
 BYTE   W96
// 014   ----------------------------------------
 BYTE   W96
// 015   ----------------------------------------
 BYTE   W96
// 016   ----------------------------------------
 BYTE   W96
// 017   ----------------------------------------
 BYTE   W96
// 018   ----------------------------------------
 BYTE   W96
// 019   ----------------------------------------
 BYTE   W96
// 020   ----------------------------------------
 BYTE   W96
// 021   ----------------------------------------
 BYTE   W96
// 022   ----------------------------------------
 BYTE   W96
// 023   ----------------------------------------
 BYTE   W96
// 024   ----------------------------------------
 BYTE   W96
// 025   ----------------------------------------
 BYTE   W96
// 026   ----------------------------------------
 BYTE   W96
// 027   ----------------------------------------
 BYTE   W96
// 028   ----------------------------------------
 BYTE   W96
// 029   ----------------------------------------
 BYTE   W96
// 030   ----------------------------------------
 BYTE   W96
// 031   ----------------------------------------
 BYTE   W96
// 032   ----------------------------------------
 BYTE   W96
// 033   ----------------------------------------
 BYTE   W96
// 034   ----------------------------------------
 BYTE   W96
// 035   ----------------------------------------
 BYTE   W96
// 036   ----------------------------------------
 BYTE   W96
// 037   ----------------------------------------
 BYTE   W96
// 038   ----------------------------------------
 BYTE   W96
// 039   ----------------------------------------
Label_5_01302FD7:
 BYTE   N06  Dn4  v116
 BYTE   W12
 BYTE   Gn3
 BYTE   W06
 BYTE   Bn3
 BYTE   W06
 BYTE   Dn4
 BYTE   W12
 BYTE   Bn3
 BYTE   W06
 BYTE   Dn4
 BYTE   W06
 BYTE   N12  Gn4
 BYTE   W12
 BYTE   Fn4
 BYTE   W12
 BYTE   Ds4
 BYTE   W12
 BYTE   Dn4
 BYTE   W12
 BYTE   PEND 
// 040   ----------------------------------------
 BYTE   W96
// 041   ----------------------------------------
 BYTE   W96
// 042   ----------------------------------------
 BYTE   W96
// 043   ----------------------------------------
 BYTE   W96
// 044   ----------------------------------------
 BYTE   W96
// 045   ----------------------------------------
 BYTE   W96
// 046   ----------------------------------------
 BYTE   W96
// 047   ----------------------------------------
 BYTE   W96
// 048   ----------------------------------------
 BYTE   W96
// 049   ----------------------------------------
 BYTE   W96
// 050   ----------------------------------------
 BYTE   W96
// 051   ----------------------------------------
 BYTE   W96
// 052   ----------------------------------------
 BYTE   W96
// 053   ----------------------------------------
 BYTE   W96
// 054   ----------------------------------------
 BYTE   W96
// 055   ----------------------------------------
 BYTE   W96
// 056   ----------------------------------------
 BYTE   W96
// 057   ----------------------------------------
 BYTE   W96
// 058   ----------------------------------------
 BYTE   W96
// 059   ----------------------------------------
 BYTE   W96
// 060   ----------------------------------------
 BYTE   W96
// 061   ----------------------------------------
 BYTE   W96
// 062   ----------------------------------------
 BYTE   W96
// 063   ----------------------------------------
 BYTE   W96
// 064   ----------------------------------------
 BYTE   W96
// 065   ----------------------------------------
 BYTE   W96
// 066   ----------------------------------------
 BYTE   W96
// 067   ----------------------------------------
 BYTE   W96
// 068   ----------------------------------------
 BYTE   W96
// 069   ----------------------------------------
 BYTE   W96
// 070   ----------------------------------------
 BYTE   W96
// 071   ----------------------------------------
 BYTE   W96
// 072   ----------------------------------------
 BYTE   W96
// 073   ----------------------------------------
 BYTE   W96
// 074   ----------------------------------------
 BYTE   W96
// 075   ----------------------------------------
 BYTE   W96
// 076   ----------------------------------------
 BYTE   W96
// 077   ----------------------------------------
 BYTE   W96
// 078   ----------------------------------------
 BYTE   W96
// 079   ----------------------------------------
 BYTE   W96
// 080   ----------------------------------------
 BYTE   W96
// 081   ----------------------------------------
 BYTE   W96
// 082   ----------------------------------------
 BYTE   W96
// 083   ----------------------------------------
 BYTE   PATT
  POIN2 Label_5_01302FD7
// 084   ----------------------------------------
 BYTE   W96
// 085   ----------------------------------------
 BYTE   W96
// 086   ----------------------------------------
 BYTE   W96
// 087   ----------------------------------------
 BYTE   W96
// 088   ----------------------------------------
 BYTE   W96
// 089   ----------------------------------------
 BYTE   W96
// 090   ----------------------------------------
 BYTE   W96
// 091   ----------------------------------------
 BYTE   W96
// 092   ----------------------------------------
 BYTE   W96
// 093   ----------------------------------------
 BYTE   W96
// 094   ----------------------------------------
 BYTE   W96
// 095   ----------------------------------------
 BYTE   W96
// 096   ----------------------------------------
 BYTE   GoTo
  POIN2 Label_5_01302FB8
 BYTE   FINE

//**************** Track 7 (Midi-Chn.6) ****************//

Celceta_007:
// 000   ----------------------------------------
 BYTE   KEYSH   Celceta_key+0
 BYTE   VOICE   52
 BYTE   PAN   c_v+0
 BYTE   VOL   31*Celceta_mvl/mxv
 BYTE   W96
// 001   ----------------------------------------
 BYTE   W96
// 002   ----------------------------------------
 BYTE   W96
// 003   ----------------------------------------
 BYTE   N96  Gn4  v100
 BYTE   W96
// 004   ----------------------------------------
 BYTE   W96
// 005   ----------------------------------------
 BYTE   W96
// 006   ----------------------------------------
 BYTE   W96
// 007   ----------------------------------------
 BYTE   W96
// 008   ----------------------------------------
Label_6_01303217:
 BYTE   W96
// 009   ----------------------------------------
 BYTE   W96
// 010   ----------------------------------------
 BYTE   W96
// 011   ----------------------------------------
 BYTE   W96
// 012   ----------------------------------------
 BYTE   W96
// 013   ----------------------------------------
 BYTE   W96
// 014   ----------------------------------------
 BYTE   W96
// 015   ----------------------------------------
 BYTE   W96
// 016   ----------------------------------------
 BYTE   W96
// 017   ----------------------------------------
 BYTE   W96
// 018   ----------------------------------------
 BYTE   W96
// 019   ----------------------------------------
 BYTE   W96
// 020   ----------------------------------------
 BYTE   W96
// 021   ----------------------------------------
 BYTE   W96
// 022   ----------------------------------------
 BYTE   W96
// 023   ----------------------------------------
 BYTE   W96
// 024   ----------------------------------------
 BYTE   W96
// 025   ----------------------------------------
 BYTE   W96
// 026   ----------------------------------------
 BYTE   W96
// 027   ----------------------------------------
 BYTE   W96
// 028   ----------------------------------------
 BYTE   W96
// 029   ----------------------------------------
 BYTE   W96
// 030   ----------------------------------------
 BYTE   W96
// 031   ----------------------------------------
 BYTE   W96
// 032   ----------------------------------------
 BYTE   W96
// 033   ----------------------------------------
 BYTE   W96
// 034   ----------------------------------------
 BYTE   W96
// 035   ----------------------------------------
 BYTE   W96
// 036   ----------------------------------------
 BYTE   W96
// 037   ----------------------------------------
 BYTE   W96
// 038   ----------------------------------------
 BYTE   W96
// 039   ----------------------------------------
Label_6_01303236:
 BYTE   N06  Dn4  v116
 BYTE   W12
 BYTE   Gn3
 BYTE   W06
 BYTE   Bn3
 BYTE   W06
 BYTE   Dn4
 BYTE   W12
 BYTE   Bn3
 BYTE   W06
 BYTE   Dn4
 BYTE   W06
 BYTE   N12  Gn4
 BYTE   W12
 BYTE   Fn4
 BYTE   W12
 BYTE   Ds4
 BYTE   W12
 BYTE   Dn4
 BYTE   W12
 BYTE   PEND 
// 040   ----------------------------------------
 BYTE   W96
// 041   ----------------------------------------
 BYTE   W96
// 042   ----------------------------------------
 BYTE   W96
// 043   ----------------------------------------
Label_6_01303251:
 BYTE   W48
 BYTE   N12  Gn4  v100
 BYTE   W12
 BYTE   Ds4
 BYTE   W12
 BYTE   Cn4
 BYTE   W12
 BYTE   Gn3
 BYTE   W12
 BYTE   PEND 
// 044   ----------------------------------------
 BYTE   W96
// 045   ----------------------------------------
 BYTE   W96
// 046   ----------------------------------------
 BYTE   W96
// 047   ----------------------------------------
 BYTE   PATT
  POIN2 Label_6_01303251
// 048   ----------------------------------------
 BYTE   W96
// 049   ----------------------------------------
 BYTE   W96
// 050   ----------------------------------------
 BYTE   W96
// 051   ----------------------------------------
 BYTE   W96
// 052   ----------------------------------------
 BYTE   W96
// 053   ----------------------------------------
 BYTE   W96
// 054   ----------------------------------------
 BYTE   W96
// 055   ----------------------------------------
 BYTE   W96
// 056   ----------------------------------------
 BYTE   W96
// 057   ----------------------------------------
 BYTE   W96
// 058   ----------------------------------------
 BYTE   W96
// 059   ----------------------------------------
 BYTE   W96
// 060   ----------------------------------------
 BYTE   W96
// 061   ----------------------------------------
 BYTE   W96
// 062   ----------------------------------------
 BYTE   W96
// 063   ----------------------------------------
 BYTE   W96
// 064   ----------------------------------------
 BYTE   W96
// 065   ----------------------------------------
 BYTE   W96
// 066   ----------------------------------------
 BYTE   W96
// 067   ----------------------------------------
 BYTE   W96
// 068   ----------------------------------------
 BYTE   W96
// 069   ----------------------------------------
 BYTE   W96
// 070   ----------------------------------------
 BYTE   W96
// 071   ----------------------------------------
 BYTE   W96
// 072   ----------------------------------------
 BYTE   W96
// 073   ----------------------------------------
 BYTE   W96
// 074   ----------------------------------------
 BYTE   W96
// 075   ----------------------------------------
 BYTE   W96
// 076   ----------------------------------------
 BYTE   W96
// 077   ----------------------------------------
 BYTE   W96
// 078   ----------------------------------------
 BYTE   W96
// 079   ----------------------------------------
 BYTE   W96
// 080   ----------------------------------------
 BYTE   W96
// 081   ----------------------------------------
 BYTE   W96
// 082   ----------------------------------------
 BYTE   W96
// 083   ----------------------------------------
 BYTE   PATT
  POIN2 Label_6_01303236
// 084   ----------------------------------------
 BYTE   W96
// 085   ----------------------------------------
 BYTE   W96
// 086   ----------------------------------------
 BYTE   W96
// 087   ----------------------------------------
 BYTE   PATT
  POIN2 Label_6_01303251
// 088   ----------------------------------------
 BYTE   W96
// 089   ----------------------------------------
 BYTE   W96
// 090   ----------------------------------------
 BYTE   W96
// 091   ----------------------------------------
 BYTE   PATT
  POIN2 Label_6_01303251
// 092   ----------------------------------------
 BYTE   W96
// 093   ----------------------------------------
 BYTE   W96
// 094   ----------------------------------------
 BYTE   W96
// 095   ----------------------------------------
 BYTE   W96
// 096   ----------------------------------------
 BYTE   GoTo
  POIN2 Label_6_01303217
 BYTE   FINE

//**************** Track 8 (Midi-Chn.7) ****************//

Celceta_008:
// 000   ----------------------------------------
 BYTE   KEYSH   Celceta_key+0
 BYTE   VOICE   52
 BYTE   PAN   c_v-14
 BYTE   VOL   31*Celceta_mvl/mxv
 BYTE   W96
// 001   ----------------------------------------
 BYTE   W96
// 002   ----------------------------------------
 BYTE   W96
// 003   ----------------------------------------
 BYTE   N96  Cn4  v100
 BYTE   W96
// 004   ----------------------------------------
 BYTE   W96
// 005   ----------------------------------------
 BYTE   W96
// 006   ----------------------------------------
 BYTE   W96
// 007   ----------------------------------------
 BYTE   W96
// 008   ----------------------------------------
Label_7_01303047:
 BYTE   W96
// 009   ----------------------------------------
 BYTE   W96
// 010   ----------------------------------------
 BYTE   W96
// 011   ----------------------------------------
 BYTE   W96
// 012   ----------------------------------------
 BYTE   W96
// 013   ----------------------------------------
 BYTE   W96
// 014   ----------------------------------------
 BYTE   W96
// 015   ----------------------------------------
 BYTE   W96
// 016   ----------------------------------------
 BYTE   W96
// 017   ----------------------------------------
 BYTE   W96
// 018   ----------------------------------------
 BYTE   W96
// 019   ----------------------------------------
 BYTE   W96
// 020   ----------------------------------------
 BYTE   W96
// 021   ----------------------------------------
 BYTE   W96
// 022   ----------------------------------------
 BYTE   W96
// 023   ----------------------------------------
 BYTE   W96
// 024   ----------------------------------------
 BYTE   W96
// 025   ----------------------------------------
 BYTE   W96
// 026   ----------------------------------------
 BYTE   W96
// 027   ----------------------------------------
 BYTE   W96
// 028   ----------------------------------------
 BYTE   W96
// 029   ----------------------------------------
 BYTE   W96
// 030   ----------------------------------------
 BYTE   W96
// 031   ----------------------------------------
 BYTE   W96
// 032   ----------------------------------------
 BYTE   W96
// 033   ----------------------------------------
 BYTE   W96
// 034   ----------------------------------------
 BYTE   W96
// 035   ----------------------------------------
 BYTE   W96
// 036   ----------------------------------------
 BYTE   W96
// 037   ----------------------------------------
 BYTE   W96
// 038   ----------------------------------------
 BYTE   W96
// 039   ----------------------------------------
 BYTE   W96
// 040   ----------------------------------------
 BYTE   W96
// 041   ----------------------------------------
 BYTE   W96
// 042   ----------------------------------------
 BYTE   W96
// 043   ----------------------------------------
 BYTE   W96
// 044   ----------------------------------------
 BYTE   W96
// 045   ----------------------------------------
 BYTE   W96
// 046   ----------------------------------------
 BYTE   W96
// 047   ----------------------------------------
 BYTE   W96
// 048   ----------------------------------------
 BYTE   W96
// 049   ----------------------------------------
 BYTE   W96
// 050   ----------------------------------------
 BYTE   W96
// 051   ----------------------------------------
 BYTE   W96
// 052   ----------------------------------------
 BYTE   W96
// 053   ----------------------------------------
 BYTE   W96
// 054   ----------------------------------------
 BYTE   W96
// 055   ----------------------------------------
 BYTE   W96
// 056   ----------------------------------------
 BYTE   W96
// 057   ----------------------------------------
 BYTE   W96
// 058   ----------------------------------------
 BYTE   W96
// 059   ----------------------------------------
 BYTE   W96
// 060   ----------------------------------------
 BYTE   W96
// 061   ----------------------------------------
 BYTE   W96
// 062   ----------------------------------------
 BYTE   W96
// 063   ----------------------------------------
 BYTE   W96
// 064   ----------------------------------------
 BYTE   W96
// 065   ----------------------------------------
 BYTE   W96
// 066   ----------------------------------------
 BYTE   W96
// 067   ----------------------------------------
 BYTE   W96
// 068   ----------------------------------------
 BYTE   W96
// 069   ----------------------------------------
 BYTE   W96
// 070   ----------------------------------------
 BYTE   W96
// 071   ----------------------------------------
 BYTE   W96
// 072   ----------------------------------------
 BYTE   W96
// 073   ----------------------------------------
 BYTE   W96
// 074   ----------------------------------------
 BYTE   W96
// 075   ----------------------------------------
 BYTE   W96
// 076   ----------------------------------------
 BYTE   W96
// 077   ----------------------------------------
 BYTE   W96
// 078   ----------------------------------------
 BYTE   W96
// 079   ----------------------------------------
 BYTE   W96
// 080   ----------------------------------------
 BYTE   W96
// 081   ----------------------------------------
 BYTE   W96
// 082   ----------------------------------------
 BYTE   W96
// 083   ----------------------------------------
 BYTE   W96
// 084   ----------------------------------------
 BYTE   W96
// 085   ----------------------------------------
 BYTE   W96
// 086   ----------------------------------------
 BYTE   W96
// 087   ----------------------------------------
 BYTE   W96
// 088   ----------------------------------------
 BYTE   W96
// 089   ----------------------------------------
 BYTE   W96
// 090   ----------------------------------------
 BYTE   W96
// 091   ----------------------------------------
 BYTE   W96
// 092   ----------------------------------------
 BYTE   W96
// 093   ----------------------------------------
 BYTE   W96
// 094   ----------------------------------------
 BYTE   W96
// 095   ----------------------------------------
 BYTE   W96
// 096   ----------------------------------------
 BYTE   GoTo
  POIN2 Label_7_01303047
 BYTE   FINE

//**************** Track 9 (Midi-Chn.8) ****************//

Celceta_009:
// 000   ----------------------------------------
 BYTE   KEYSH   Celceta_key+0
 BYTE   VOICE   91
 BYTE   PAN   c_v-19
 BYTE   VOL   31*Celceta_mvl/mxv
 BYTE   W03
 BYTE   MOD 0
 BYTE   DnM2
 BYTE   W92
 BYTE   W01
// 001   ----------------------------------------
 BYTE   W96
// 002   ----------------------------------------
 BYTE   W96
// 003   ----------------------------------------
 BYTE   W92
 BYTE   W02
 BYTE   W01
 BYTE   W01
// 004   ----------------------------------------
 BYTE   TIE  Gn3  v100
 BYTE   W96
// 005   ----------------------------------------
 BYTE   BEND   c_v+0
 BYTE   W02
 BYTE   Fn3
 BYTE   W01
 BYTE   Fs3
 BYTE   W01
 BYTE   Gn3
 BYTE   W02
 BYTE   Gs3
 BYTE   W02
 BYTE   An3
 BYTE   W01
 BYTE   As3
 BYTE   W01
 BYTE   Bn3
 BYTE   W02
 BYTE   Cn4
 BYTE   W01
 BYTE   Cs4
 BYTE   W02
 BYTE   Dn4
 BYTE   W01
 BYTE   Ds4
 BYTE   W02
 BYTE   En4
 BYTE   W01
 BYTE   Fn4
 BYTE   W02
 BYTE   Fs4
 BYTE   W01
 BYTE   Gn4
 BYTE   W02
 BYTE   Gs4
 BYTE   W01
 BYTE   An4
 BYTE   W02
 BYTE   As4
 BYTE   W01
 BYTE   Bn4
 BYTE   W02
 BYTE   Cn5
 BYTE   W01
 BYTE   Cs5
 BYTE   W02
 BYTE   Dn5
 BYTE   W01
 BYTE   Ds5
 BYTE   W02
 BYTE   En5
 BYTE   W01
 BYTE   Fn5
 BYTE   W02
 BYTE   Fs5
 BYTE   W01
 BYTE   Gn5
 BYTE   W02
 BYTE   Gs5
 BYTE   W01
 BYTE   An5
 BYTE   W02
 BYTE   As5
 BYTE   W01
 BYTE   Bn5
 BYTE   W02
 BYTE   Cn6
 BYTE   W01
 BYTE   Cs6
 BYTE   W02
 BYTE   Dn6
 BYTE   W01
 BYTE   Ds6
 BYTE   W02
 BYTE   En6
 BYTE   W01
 BYTE   Fn6
 BYTE   W02
 BYTE   Fs6
 BYTE   W01
 BYTE   Gn6
 BYTE   W02
 BYTE   Gs6
 BYTE   W01
 BYTE   An6
 BYTE   W02
 BYTE   As6
 BYTE   W01
 BYTE   Bn6
 BYTE   W02
 BYTE   Cn7
 BYTE   W01
 BYTE   Cs7
 BYTE   W02
 BYTE   Dn7
 BYTE   W01
 BYTE   Ds7
 BYTE   W02
 BYTE   En7
 BYTE   W01
 BYTE   Fn7
 BYTE   W02
 BYTE   Fs7
 BYTE   W01
 BYTE   Gn7
 BYTE   W02
 BYTE   Gs7
 BYTE   W01
 BYTE   An7
 BYTE   W02
 BYTE   As7
 BYTE   W01
 BYTE   Bn7
 BYTE   W02
 BYTE   Cn8
 BYTE   W01
 BYTE   Cs8
 BYTE   W02
 BYTE   Dn8
 BYTE   W01
 BYTE   Ds8
 BYTE   W02
 BYTE   En8
 BYTE   W01
 BYTE   Fn8
 BYTE   W02
 BYTE   Fs8
 BYTE   W01
 BYTE   Gn8
 BYTE   W01
 BYTE   Gn8
 BYTE   W01
// 006   ----------------------------------------
 BYTE   W96
// 007   ----------------------------------------
 BYTE   W96
// 008   ----------------------------------------
 BYTE   EOT
Label_8_01302D2D:
 BYTE   W22
 BYTE   BEND   c_v+0
 BYTE   W72
 BYTE   W02
// 009   ----------------------------------------
 BYTE   W96
// 010   ----------------------------------------
 BYTE   W96
// 011   ----------------------------------------
 BYTE   W96
// 012   ----------------------------------------
 BYTE   W96
// 013   ----------------------------------------
 BYTE   W96
// 014   ----------------------------------------
 BYTE   W96
// 015   ----------------------------------------
 BYTE   W96
// 016   ----------------------------------------
 BYTE   W96
// 017   ----------------------------------------
 BYTE   W96
// 018   ----------------------------------------
 BYTE   W96
// 019   ----------------------------------------
 BYTE   W96
// 020   ----------------------------------------
 BYTE   W96
// 021   ----------------------------------------
 BYTE   W96
// 022   ----------------------------------------
 BYTE   W96
// 023   ----------------------------------------
 BYTE   W96
// 024   ----------------------------------------
 BYTE   W96
// 025   ----------------------------------------
 BYTE   W96
// 026   ----------------------------------------
 BYTE   W96
// 027   ----------------------------------------
 BYTE   W96
// 028   ----------------------------------------
 BYTE   W96
// 029   ----------------------------------------
 BYTE   W96
// 030   ----------------------------------------
 BYTE   W96
// 031   ----------------------------------------
 BYTE   W96
// 032   ----------------------------------------
 BYTE   W96
// 033   ----------------------------------------
 BYTE   W96
// 034   ----------------------------------------
 BYTE   W96
// 035   ----------------------------------------
 BYTE   W96
// 036   ----------------------------------------
 BYTE   W96
// 037   ----------------------------------------
 BYTE   W96
// 038   ----------------------------------------
 BYTE   W96
// 039   ----------------------------------------
 BYTE   W96
// 040   ----------------------------------------
 BYTE   W96
// 041   ----------------------------------------
 BYTE   W96
// 042   ----------------------------------------
 BYTE   W96
// 043   ----------------------------------------
 BYTE   W96
// 044   ----------------------------------------
 BYTE   W96
// 045   ----------------------------------------
 BYTE   W96
// 046   ----------------------------------------
 BYTE   W96
// 047   ----------------------------------------
 BYTE   W96
// 048   ----------------------------------------
 BYTE   W96
// 049   ----------------------------------------
 BYTE   W96
// 050   ----------------------------------------
 BYTE   W96
// 051   ----------------------------------------
 BYTE   W96
// 052   ----------------------------------------
 BYTE   W96
// 053   ----------------------------------------
 BYTE   W96
// 054   ----------------------------------------
 BYTE   W96
// 055   ----------------------------------------
 BYTE   W96
// 056   ----------------------------------------
 BYTE   W96
// 057   ----------------------------------------
 BYTE   W96
// 058   ----------------------------------------
 BYTE   W96
// 059   ----------------------------------------
 BYTE   W96
// 060   ----------------------------------------
 BYTE   W96
// 061   ----------------------------------------
 BYTE   W96
// 062   ----------------------------------------
 BYTE   W96
// 063   ----------------------------------------
 BYTE   W96
// 064   ----------------------------------------
 BYTE   W96
// 065   ----------------------------------------
 BYTE   W96
// 066   ----------------------------------------
 BYTE   W96
// 067   ----------------------------------------
 BYTE   W96
// 068   ----------------------------------------
 BYTE   W96
// 069   ----------------------------------------
 BYTE   W96
// 070   ----------------------------------------
 BYTE   W96
// 071   ----------------------------------------
 BYTE   W96
// 072   ----------------------------------------
 BYTE   W96
// 073   ----------------------------------------
 BYTE   W96
// 074   ----------------------------------------
 BYTE   W96
// 075   ----------------------------------------
 BYTE   W96
// 076   ----------------------------------------
 BYTE   W96
// 077   ----------------------------------------
 BYTE   W96
// 078   ----------------------------------------
 BYTE   W96
// 079   ----------------------------------------
 BYTE   W96
// 080   ----------------------------------------
 BYTE   W96
// 081   ----------------------------------------
 BYTE   W96
// 082   ----------------------------------------
 BYTE   W96
// 083   ----------------------------------------
 BYTE   W96
// 084   ----------------------------------------
 BYTE   W96
// 085   ----------------------------------------
 BYTE   W96
// 086   ----------------------------------------
 BYTE   W96
// 087   ----------------------------------------
 BYTE   W96
// 088   ----------------------------------------
 BYTE   W96
// 089   ----------------------------------------
 BYTE   W96
// 090   ----------------------------------------
 BYTE   W96
// 091   ----------------------------------------
 BYTE   W96
// 092   ----------------------------------------
 BYTE   W96
// 093   ----------------------------------------
 BYTE   W96
// 094   ----------------------------------------
 BYTE   W96
// 095   ----------------------------------------
 BYTE   W92
 BYTE   W03
 BYTE   W01
// 096   ----------------------------------------
 BYTE   GoTo
  POIN2 Label_8_01302D2D
 BYTE   FINE

//**************** Track 10 (Midi-Chn.9) ****************//

Celceta_010:
// 000   ----------------------------------------
 BYTE   KEYSH   Celceta_key+0
 BYTE   VOICE   33
 BYTE   PAN   c_v-24
 BYTE   VOL   33*Celceta_mvl/mxv
 BYTE   N96  Gn0  v108
 BYTE   W96
// 001   ----------------------------------------
 BYTE   Fn0
 BYTE   W96
// 002   ----------------------------------------
 BYTE   Ds0
 BYTE   W96
// 003   ----------------------------------------
 BYTE   Gs0
 BYTE   W96
// 004   ----------------------------------------
Label_9_0135C79A:
 BYTE   N06  Gn0  v108
 BYTE   W12
 BYTE   N06
 BYTE   W06
 BYTE   N06
 BYTE   W06
 BYTE   N06
 BYTE   W12
 BYTE   N06
 BYTE   W06
 BYTE   N06
 BYTE   W06
 BYTE   N06
 BYTE   W12
 BYTE   N06
 BYTE   W06
 BYTE   N06
 BYTE   W06
 BYTE   N06
 BYTE   W12
 BYTE   N06
 BYTE   W06
 BYTE   N06
 BYTE   W06
 BYTE   PEND 
// 005   ----------------------------------------
 BYTE   PATT
  POIN2 Label_9_0135C79A
// 006   ----------------------------------------
 BYTE   PATT
  POIN2 Label_9_0135C79A
// 007   ----------------------------------------
 BYTE   PATT
  POIN2 Label_9_0135C79A
// 008   ----------------------------------------
Label_9_0135C7C4:
 BYTE   N06  Gn0  v108
 BYTE   W12
 BYTE   N06
 BYTE   W06
 BYTE   N06
 BYTE   W06
 BYTE   N06
 BYTE   W12
 BYTE   N06
 BYTE   W06
 BYTE   N06
 BYTE   W06
 BYTE   N06
 BYTE   W12
 BYTE   N06
 BYTE   W06
 BYTE   N06
 BYTE   W06
 BYTE   N06
 BYTE   W06
 BYTE   N06
 BYTE   W06
 BYTE   Fn1
 BYTE   W06
 BYTE   Fn2
 BYTE   W06
 BYTE   PEND 
// 009   ----------------------------------------
Label_9_0135C7E1:
 BYTE   N06  Dn1  v108
 BYTE   W12
 BYTE   N06
 BYTE   W06
 BYTE   N06
 BYTE   W06
 BYTE   N06
 BYTE   W12
 BYTE   N06
 BYTE   W06
 BYTE   N06
 BYTE   W06
 BYTE   N06
 BYTE   W12
 BYTE   N06
 BYTE   W06
 BYTE   N06
 BYTE   W06
 BYTE   As1
 BYTE   W06
 BYTE   An1
 BYTE   W06
 BYTE   As1
 BYTE   W06
 BYTE   An1
 BYTE   W06
 BYTE   PEND 
// 010   ----------------------------------------
Label_9_0135C7FE:
 BYTE   N06  Ds1  v108
 BYTE   W12
 BYTE   N06
 BYTE   W06
 BYTE   N06
 BYTE   W06
 BYTE   N06
 BYTE   W12
 BYTE   N06
 BYTE   W06
 BYTE   N06
 BYTE   W06
 BYTE   N06
 BYTE   W12
 BYTE   N06
 BYTE   W06
 BYTE   N06
 BYTE   W06
 BYTE   N06
 BYTE   W12
 BYTE   N06
 BYTE   W06
 BYTE   N06
 BYTE   W06
 BYTE   PEND 
// 011   ----------------------------------------
Label_9_0135C819:
 BYTE   N06  As0  v108
 BYTE   W12
 BYTE   N06
 BYTE   W06
 BYTE   N06
 BYTE   W06
 BYTE   N06
 BYTE   W12
 BYTE   N06
 BYTE   W06
 BYTE   N06
 BYTE   W06
 BYTE   N06
 BYTE   W12
 BYTE   N06
 BYTE   W06
 BYTE   N06
 BYTE   W06
 BYTE   N06
 BYTE   W06
 BYTE   N06
 BYTE   W06
 BYTE   Cn1
 BYTE   W06
 BYTE   Dn1
 BYTE   W06
 BYTE   PEND 
// 012   ----------------------------------------
Label_9_0135C836:
 BYTE   N06  Gs0  v108
 BYTE   W12
 BYTE   N06
 BYTE   W06
 BYTE   N06
 BYTE   W06
 BYTE   N06
 BYTE   W12
 BYTE   N06
 BYTE   W06
 BYTE   N06
 BYTE   W06
 BYTE   N06
 BYTE   W12
 BYTE   N06
 BYTE   W06
 BYTE   N06
 BYTE   W06
 BYTE   N06
 BYTE   W12
 BYTE   N06
 BYTE   W06
 BYTE   N06
 BYTE   W06
 BYTE   PEND 
// 013   ----------------------------------------
 BYTE   PATT
  POIN2 Label_9_0135C79A
// 014   ----------------------------------------
 BYTE   PATT
  POIN2 Label_9_0135C836
// 015   ----------------------------------------
Label_9_0135C85B:
 BYTE   N06  Dn1  v108
 BYTE   W06
 BYTE   N06
 BYTE   W30
 BYTE   N06
 BYTE   W06
 BYTE   N06
 BYTE   W18
 BYTE   N12  Ds1
 BYTE   W12
 BYTE   Fn1
 BYTE   W12
 BYTE   Fs1
 BYTE   W12
 BYTE   PEND 
// 016   ----------------------------------------
 BYTE   PATT
  POIN2 Label_9_0135C7C4
// 017   ----------------------------------------
 BYTE   PATT
  POIN2 Label_9_0135C7E1
// 018   ----------------------------------------
 BYTE   PATT
  POIN2 Label_9_0135C7FE
// 019   ----------------------------------------
 BYTE   PATT
  POIN2 Label_9_0135C819
// 020   ----------------------------------------
 BYTE   PATT
  POIN2 Label_9_0135C836
// 021   ----------------------------------------
 BYTE   PATT
  POIN2 Label_9_0135C79A
// 022   ----------------------------------------
Label_9_0135C88B:
 BYTE   N06  Dn1  v108
 BYTE   W12
 BYTE   N06
 BYTE   W06
 BYTE   N06
 BYTE   W06
 BYTE   N06
 BYTE   W12
 BYTE   N06
 BYTE   W06
 BYTE   N06
 BYTE   W06
 BYTE   Fs1
 BYTE   W12
 BYTE   N06
 BYTE   W06
 BYTE   N06
 BYTE   W06
 BYTE   N06
 BYTE   W12
 BYTE   N06
 BYTE   W06
 BYTE   N06
 BYTE   W06
 BYTE   PEND 
// 023   ----------------------------------------
Label_9_0135C8A6:
 BYTE   N06  Gn1  v108
 BYTE   W12
 BYTE   N06
 BYTE   W06
 BYTE   N06
 BYTE   W06
 BYTE   N06
 BYTE   W12
 BYTE   N06
 BYTE   W06
 BYTE   N06
 BYTE   W06
 BYTE   N06
 BYTE   W12
 BYTE   N06
 BYTE   W06
 BYTE   N06
 BYTE   W06
 BYTE   N06
 BYTE   W12
 BYTE   N06
 BYTE   W06
 BYTE   N06
 BYTE   W06
 BYTE   PEND 
// 024   ----------------------------------------
Label_9_0135C8C1:
 BYTE   N06  Ds1  v108
 BYTE   W06
 BYTE   N06
 BYTE   W30
 BYTE   N06
 BYTE   W06
 BYTE   N06
 BYTE   W30
 BYTE   N06
 BYTE   W06
 BYTE   N06
 BYTE   W18
 BYTE   PEND 
// 025   ----------------------------------------
Label_9_0135C8D0:
 BYTE   N06  Fn1  v108
 BYTE   W06
 BYTE   N06
 BYTE   W30
 BYTE   N06
 BYTE   W06
 BYTE   N06
 BYTE   W30
 BYTE   N06
 BYTE   W06
 BYTE   N06
 BYTE   W06
 BYTE   N12  Cn1
 BYTE   W12
 BYTE   PEND 
// 026   ----------------------------------------
Label_9_0135C8E2:
 BYTE   N06  Dn1  v108
 BYTE   W06
 BYTE   N06
 BYTE   W30
 BYTE   N06
 BYTE   W06
 BYTE   N06
 BYTE   W30
 BYTE   N06
 BYTE   W06
 BYTE   N06
 BYTE   W06
 BYTE   N12
 BYTE   W12
 BYTE   PEND 
// 027   ----------------------------------------
Label_9_0135C8F3:
 BYTE   N12  Gn1  v108
 BYTE   W12
 BYTE   N06
 BYTE   W24
 BYTE   N06
 BYTE   W06
 BYTE   N06
 BYTE   W30
 BYTE   N12  An1
 BYTE   W12
 BYTE   As1
 BYTE   W12
 BYTE   PEND 
// 028   ----------------------------------------
 BYTE   PATT
  POIN2 Label_9_0135C8C1
// 029   ----------------------------------------
 BYTE   PATT
  POIN2 Label_9_0135C8D0
// 030   ----------------------------------------
Label_9_0135C90D:
 BYTE   N06  As0  v108
 BYTE   W06
 BYTE   N06
 BYTE   W30
 BYTE   N06
 BYTE   W06
 BYTE   N06
 BYTE   W30
 BYTE   N12
 BYTE   W12
 BYTE   Fn0
 BYTE   W12
 BYTE   PEND 
// 031   ----------------------------------------
Label_9_0135C91C:
 BYTE   N06  As0  v108
 BYTE   W12
 BYTE   N06
 BYTE   W06
 BYTE   N06
 BYTE   W06
 BYTE   N06
 BYTE   W12
 BYTE   N06
 BYTE   W06
 BYTE   N06
 BYTE   W06
 BYTE   N06
 BYTE   W12
 BYTE   N06
 BYTE   W06
 BYTE   N06
 BYTE   W06
 BYTE   N06
 BYTE   W12
 BYTE   N06
 BYTE   W06
 BYTE   N06
 BYTE   W06
 BYTE   PEND 
// 032   ----------------------------------------
 BYTE   PATT
  POIN2 Label_9_0135C8C1
// 033   ----------------------------------------
 BYTE   PATT
  POIN2 Label_9_0135C8D0
// 034   ----------------------------------------
 BYTE   PATT
  POIN2 Label_9_0135C8E2
// 035   ----------------------------------------
 BYTE   PATT
  POIN2 Label_9_0135C8F3
// 036   ----------------------------------------
 BYTE   PATT
  POIN2 Label_9_0135C836
// 037   ----------------------------------------
Label_9_0135C950:
 BYTE   N06  An0  v108
 BYTE   W12
 BYTE   N06
 BYTE   W06
 BYTE   N06
 BYTE   W06
 BYTE   N06
 BYTE   W12
 BYTE   N06
 BYTE   W06
 BYTE   N06
 BYTE   W06
 BYTE   Fn0
 BYTE   W12
 BYTE   N06
 BYTE   W06
 BYTE   N06
 BYTE   W06
 BYTE   N06
 BYTE   W12
 BYTE   N06
 BYTE   W06
 BYTE   N06
 BYTE   W06
 BYTE   PEND 
// 038   ----------------------------------------
 BYTE   PATT
  POIN2 Label_9_0135C91C
// 039   ----------------------------------------
Label_9_0135C970:
 BYTE   N06  Bn0  v108
 BYTE   W12
 BYTE   N06
 BYTE   W06
 BYTE   N06
 BYTE   W06
 BYTE   N06
 BYTE   W12
 BYTE   N06
 BYTE   W06
 BYTE   N06
 BYTE   W06
 BYTE   Gn0
 BYTE   W12
 BYTE   N06
 BYTE   W06
 BYTE   N06
 BYTE   W06
 BYTE   N06
 BYTE   W12
 BYTE   N06
 BYTE   W06
 BYTE   N06
 BYTE   W06
 BYTE   PEND 
// 040   ----------------------------------------
Label_9_0135C98B:
 BYTE   N12  Cn1  v108
 BYTE   W24
 BYTE   N12
 BYTE   W24
 BYTE   As0
 BYTE   W24
 BYTE   N12
 BYTE   W12
 BYTE   N06
 BYTE   W06
 BYTE   N06
 BYTE   W06
 BYTE   PEND 
// 041   ----------------------------------------
Label_9_0135C99A:
 BYTE   N12  Ds1  v108
 BYTE   W24
 BYTE   N12
 BYTE   W24
 BYTE   N12
 BYTE   W24
 BYTE   N12
 BYTE   W12
 BYTE   Gn0
 BYTE   W12
 BYTE   PEND 
// 042   ----------------------------------------
Label_9_0135C9A7:
 BYTE   N12  An0  v108
 BYTE   W24
 BYTE   N12
 BYTE   W24
 BYTE   N24  Gn0
 BYTE   W24
 BYTE   Bn0
 BYTE   W24
 BYTE   PEND 
// 043   ----------------------------------------
Label_9_0135C9B3:
 BYTE   N12  Cn1  v108
 BYTE   W12
 BYTE   N12
 BYTE   W12
 BYTE   N12
 BYTE   W12
 BYTE   N12
 BYTE   W12
 BYTE   N12
 BYTE   W12
 BYTE   N12
 BYTE   W12
 BYTE   N12
 BYTE   W12
 BYTE   N12
 BYTE   W12
 BYTE   PEND 
// 044   ----------------------------------------
 BYTE   PATT
  POIN2 Label_9_0135C98B
// 045   ----------------------------------------
 BYTE   PATT
  POIN2 Label_9_0135C99A
// 046   ----------------------------------------
 BYTE   PATT
  POIN2 Label_9_0135C9A7
// 047   ----------------------------------------
Label_9_0135C9D5:
 BYTE   N12  Cn1  v108
 BYTE   W12
 BYTE   N12
 BYTE   W12
 BYTE   N12
 BYTE   W12
 BYTE   N12
 BYTE   W12
 BYTE   N12
 BYTE   W12
 BYTE   N12
 BYTE   W12
 BYTE   As0
 BYTE   W12
 BYTE   N12
 BYTE   W12
 BYTE   PEND 
// 048   ----------------------------------------
 BYTE   N96  An0
 BYTE   W96
// 049   ----------------------------------------
Label_9_0135C9EB:
 BYTE   N18  An0  v108
 BYTE   W18
 BYTE   N18
 BYTE   W18
 BYTE   N12
 BYTE   W12
 BYTE   N18  As0
 BYTE   W18
 BYTE   N18
 BYTE   W18
 BYTE   N12
 BYTE   W12
 BYTE   PEND 
// 050   ----------------------------------------
Label_9_0135C9FB:
 BYTE   N12  Cn1  v108
 BYTE   W24
 BYTE   N12
 BYTE   W24
 BYTE   N12
 BYTE   W24
 BYTE   N12
 BYTE   W24
 BYTE   PEND 
// 051   ----------------------------------------
 BYTE   PATT
  POIN2 Label_9_0135C9FB
// 052   ----------------------------------------
 BYTE   PATT
  POIN2 Label_9_0135C7C4
// 053   ----------------------------------------
 BYTE   PATT
  POIN2 Label_9_0135C7E1
// 054   ----------------------------------------
 BYTE   PATT
  POIN2 Label_9_0135C7FE
// 055   ----------------------------------------
 BYTE   PATT
  POIN2 Label_9_0135C819
// 056   ----------------------------------------
 BYTE   PATT
  POIN2 Label_9_0135C836
// 057   ----------------------------------------
 BYTE   PATT
  POIN2 Label_9_0135C79A
// 058   ----------------------------------------
 BYTE   PATT
  POIN2 Label_9_0135C836
// 059   ----------------------------------------
 BYTE   PATT
  POIN2 Label_9_0135C85B
// 060   ----------------------------------------
 BYTE   PATT
  POIN2 Label_9_0135C7C4
// 061   ----------------------------------------
 BYTE   PATT
  POIN2 Label_9_0135C7E1
// 062   ----------------------------------------
 BYTE   PATT
  POIN2 Label_9_0135C7FE
// 063   ----------------------------------------
 BYTE   PATT
  POIN2 Label_9_0135C819
// 064   ----------------------------------------
 BYTE   PATT
  POIN2 Label_9_0135C836
// 065   ----------------------------------------
 BYTE   PATT
  POIN2 Label_9_0135C79A
// 066   ----------------------------------------
 BYTE   PATT
  POIN2 Label_9_0135C88B
// 067   ----------------------------------------
 BYTE   PATT
  POIN2 Label_9_0135C8A6
// 068   ----------------------------------------
 BYTE   PATT
  POIN2 Label_9_0135C8C1
// 069   ----------------------------------------
 BYTE   PATT
  POIN2 Label_9_0135C8D0
// 070   ----------------------------------------
 BYTE   PATT
  POIN2 Label_9_0135C8E2
// 071   ----------------------------------------
 BYTE   PATT
  POIN2 Label_9_0135C8F3
// 072   ----------------------------------------
 BYTE   PATT
  POIN2 Label_9_0135C8C1
// 073   ----------------------------------------
 BYTE   PATT
  POIN2 Label_9_0135C8D0
// 074   ----------------------------------------
 BYTE   PATT
  POIN2 Label_9_0135C90D
// 075   ----------------------------------------
 BYTE   PATT
  POIN2 Label_9_0135C91C
// 076   ----------------------------------------
 BYTE   PATT
  POIN2 Label_9_0135C8C1
// 077   ----------------------------------------
 BYTE   PATT
  POIN2 Label_9_0135C8D0
// 078   ----------------------------------------
 BYTE   PATT
  POIN2 Label_9_0135C8E2
// 079   ----------------------------------------
 BYTE   PATT
  POIN2 Label_9_0135C8F3
// 080   ----------------------------------------
 BYTE   PATT
  POIN2 Label_9_0135C836
// 081   ----------------------------------------
 BYTE   PATT
  POIN2 Label_9_0135C950
// 082   ----------------------------------------
 BYTE   PATT
  POIN2 Label_9_0135C91C
// 083   ----------------------------------------
 BYTE   PATT
  POIN2 Label_9_0135C970
// 084   ----------------------------------------
 BYTE   PATT
  POIN2 Label_9_0135C98B
// 085   ----------------------------------------
 BYTE   PATT
  POIN2 Label_9_0135C99A
// 086   ----------------------------------------
 BYTE   PATT
  POIN2 Label_9_0135C9A7
// 087   ----------------------------------------
 BYTE   PATT
  POIN2 Label_9_0135C9B3
// 088   ----------------------------------------
 BYTE   PATT
  POIN2 Label_9_0135C98B
// 089   ----------------------------------------
 BYTE   PATT
  POIN2 Label_9_0135C99A
// 090   ----------------------------------------
 BYTE   PATT
  POIN2 Label_9_0135C9A7
// 091   ----------------------------------------
 BYTE   PATT
  POIN2 Label_9_0135C9D5
// 092   ----------------------------------------
 BYTE   N96  An0  v108
 BYTE   W96
// 093   ----------------------------------------
 BYTE   PATT
  POIN2 Label_9_0135C9EB
// 094   ----------------------------------------
 BYTE   PATT
  POIN2 Label_9_0135C9FB
// 095   ----------------------------------------
 BYTE   PATT
  POIN2 Label_9_0135C9FB
// 096   ----------------------------------------
 BYTE   GoTo
  POIN2 Label_9_0135C7C4
 BYTE   FINE

//**************** Track 11 (Midi-Chn.10) ****************//

Celceta_011:
// 000   ----------------------------------------
 BYTE   KEYSH   Celceta_key+0
 BYTE   VOICE   48
 BYTE   PAN   c_v+32
 BYTE   VOL   28*Celceta_mvl/mxv
 BYTE   W96
// 001   ----------------------------------------
 BYTE   W96
// 002   ----------------------------------------
 BYTE   W96
// 003   ----------------------------------------
 BYTE   W96
// 004   ----------------------------------------
Label_10_0135CAF8:
 BYTE   N06  As3  v100
 BYTE   W18
 BYTE   N06
 BYTE   W18
 BYTE   An3
 BYTE   W06
 BYTE   N06
 BYTE   W06
 BYTE   As3
 BYTE   W06
 BYTE   N06
 BYTE   W12
 BYTE   N06
 BYTE   W18
 BYTE   An3
 BYTE   W06
 BYTE   N06
 BYTE   W06
 BYTE   PEND 
// 005   ----------------------------------------
 BYTE   PATT
  POIN2 Label_10_0135CAF8
// 006   ----------------------------------------
 BYTE   PATT
  POIN2 Label_10_0135CAF8
// 007   ----------------------------------------
 BYTE   PATT
  POIN2 Label_10_0135CAF8
// 008   ----------------------------------------
Label_10_0135CB1C:
 BYTE   W96
// 009   ----------------------------------------
 BYTE   W96
// 010   ----------------------------------------
 BYTE   W96
// 011   ----------------------------------------
 BYTE   W96
// 012   ----------------------------------------
 BYTE   W96
// 013   ----------------------------------------
 BYTE   W96
// 014   ----------------------------------------
 BYTE   W96
// 015   ----------------------------------------
 BYTE   W96
// 016   ----------------------------------------
 BYTE   W96
// 017   ----------------------------------------
 BYTE   W96
// 018   ----------------------------------------
 BYTE   W96
// 019   ----------------------------------------
 BYTE   W96
// 020   ----------------------------------------
 BYTE   W96
// 021   ----------------------------------------
 BYTE   W96
// 022   ----------------------------------------
 BYTE   W96
// 023   ----------------------------------------
 BYTE   W96
// 024   ----------------------------------------
Label_10_0135CB2C:
 BYTE   W24
 BYTE   N24  Ds4  v100
 BYTE   W24
 BYTE   As3
 BYTE   W24
 BYTE   Gn3
 BYTE   W24
 BYTE   PEND 
// 025   ----------------------------------------
Label_10_0135CB36:
 BYTE   W24
 BYTE   N24  Fn4  v100
 BYTE   W24
 BYTE   Cn4
 BYTE   W24
 BYTE   An3
 BYTE   W24
 BYTE   PEND 
// 026   ----------------------------------------
Label_10_0135CB40:
 BYTE   W24
 BYTE   N24  Cn4  v100
 BYTE   W24
 BYTE   An3
 BYTE   W24
 BYTE   Fn3
 BYTE   W24
 BYTE   PEND 
// 027   ----------------------------------------
Label_10_0135CB4A:
 BYTE   N24  Gn4  v100
 BYTE   W24
 BYTE   Dn4
 BYTE   W24
 BYTE   As3
 BYTE   W24
 BYTE   Gn3
 BYTE   W24
 BYTE   PEND 
// 028   ----------------------------------------
 BYTE   PATT
  POIN2 Label_10_0135CB2C
// 029   ----------------------------------------
 BYTE   PATT
  POIN2 Label_10_0135CB36
// 030   ----------------------------------------
Label_10_0135CB5F:
 BYTE   W24
 BYTE   N24  Dn4  v100
 BYTE   W24
 BYTE   N18  Gn4
 BYTE   W18
 BYTE   Fn4
 BYTE   W18
 BYTE   N12  Ds4
 BYTE   W12
 BYTE   PEND 
// 031   ----------------------------------------
 BYTE   N96  Fn4
 BYTE   W96
// 032   ----------------------------------------
 BYTE   PATT
  POIN2 Label_10_0135CB2C
// 033   ----------------------------------------
 BYTE   PATT
  POIN2 Label_10_0135CB36
// 034   ----------------------------------------
Label_10_0135CB7A:
 BYTE   N12  Cn5  v100
 BYTE   W12
 BYTE   N06  An4
 BYTE   W12
 BYTE   N12
 BYTE   W12
 BYTE   N06  Fs4
 BYTE   W12
 BYTE   N12
 BYTE   W12
 BYTE   N06  Dn4
 BYTE   W12
 BYTE   N12  Cn4
 BYTE   W12
 BYTE   N06  An3
 BYTE   W12
 BYTE   PEND 
// 035   ----------------------------------------
Label_10_0135CB92:
 BYTE   N18  Gn4  v100
 BYTE   W18
 BYTE   N12  Fn4
 BYTE   W18
 BYTE   N24  Dn4
 BYTE   W24
 BYTE   N12  Cn4
 BYTE   W12
 BYTE   As3
 BYTE   W12
 BYTE   Gn3
 BYTE   W12
 BYTE   PEND 
// 036   ----------------------------------------
Label_10_0135CBA4:
 BYTE   W24
 BYTE   N24  Ds4  v100
 BYTE   W24
 BYTE   Cn4
 BYTE   W24
 BYTE   Gs3
 BYTE   W24
 BYTE   PEND 
// 037   ----------------------------------------
 BYTE   PATT
  POIN2 Label_10_0135CB36
// 038   ----------------------------------------
Label_10_0135CBB3:
 BYTE   W24
 BYTE   N24  Fn4  v100
 BYTE   W24
 BYTE   Dn4
 BYTE   W24
 BYTE   As3
 BYTE   W24
 BYTE   PEND 
// 039   ----------------------------------------
 BYTE   W96
// 040   ----------------------------------------
Label_10_0135CBBE:
 BYTE   N24  Gn3  v100
 BYTE   W24
 BYTE   Ds3
 BYTE   W24
 BYTE   Dn3
 BYTE   W24
 BYTE   Fn3
 BYTE   W24
 BYTE   PEND 
// 041   ----------------------------------------
Label_10_0135CBC9:
 BYTE   N24  Gn3  v100
 BYTE   W24
 BYTE   Ds3
 BYTE   W24
 BYTE   As2
 BYTE   W24
 BYTE   Gn2
 BYTE   W24
 BYTE   PEND 
// 042   ----------------------------------------
Label_10_0135CBD4:
 BYTE   N24  Ds3  v100
 BYTE   W24
 BYTE   Gn3
 BYTE   W24
 BYTE   Fn3
 BYTE   W24
 BYTE   Dn3
 BYTE   W24
 BYTE   PEND 
// 043   ----------------------------------------
Label_10_0135CBDF:
 BYTE   N24  Ds3  v100
 BYTE   W24
 BYTE   Cn3
 BYTE   W72
 BYTE   PEND 
// 044   ----------------------------------------
 BYTE   PATT
  POIN2 Label_10_0135CBBE
// 045   ----------------------------------------
 BYTE   PATT
  POIN2 Label_10_0135CBC9
// 046   ----------------------------------------
 BYTE   PATT
  POIN2 Label_10_0135CBD4
// 047   ----------------------------------------
 BYTE   PATT
  POIN2 Label_10_0135CBDF
// 048   ----------------------------------------
 BYTE   N96  Ds3  v100
 BYTE   W96
// 049   ----------------------------------------
Label_10_0135CBFE:
 BYTE   N18  Ds3  v100
 BYTE   W18
 BYTE   N18
 BYTE   W18
 BYTE   N12
 BYTE   W12
 BYTE   N18  Dn3
 BYTE   W18
 BYTE   N18
 BYTE   W18
 BYTE   N12
 BYTE   W12
 BYTE   PEND 
// 050   ----------------------------------------
 BYTE   N96  Ds3
 BYTE   W96
// 051   ----------------------------------------
 BYTE   W96
// 052   ----------------------------------------
 BYTE   W96
// 053   ----------------------------------------
 BYTE   W96
// 054   ----------------------------------------
 BYTE   W96
// 055   ----------------------------------------
 BYTE   W96
// 056   ----------------------------------------
 BYTE   W96
// 057   ----------------------------------------
 BYTE   W96
// 058   ----------------------------------------
 BYTE   W96
// 059   ----------------------------------------
 BYTE   W96
// 060   ----------------------------------------
 BYTE   W96
// 061   ----------------------------------------
 BYTE   W96
// 062   ----------------------------------------
 BYTE   W96
// 063   ----------------------------------------
 BYTE   W96
// 064   ----------------------------------------
 BYTE   W96
// 065   ----------------------------------------
 BYTE   W96
// 066   ----------------------------------------
 BYTE   W96
// 067   ----------------------------------------
 BYTE   W96
// 068   ----------------------------------------
 BYTE   PATT
  POIN2 Label_10_0135CB2C
// 069   ----------------------------------------
 BYTE   PATT
  POIN2 Label_10_0135CB36
// 070   ----------------------------------------
 BYTE   PATT
  POIN2 Label_10_0135CB40
// 071   ----------------------------------------
 BYTE   PATT
  POIN2 Label_10_0135CB4A
// 072   ----------------------------------------
 BYTE   PATT
  POIN2 Label_10_0135CB2C
// 073   ----------------------------------------
 BYTE   PATT
  POIN2 Label_10_0135CB36
// 074   ----------------------------------------
 BYTE   PATT
  POIN2 Label_10_0135CB5F
// 075   ----------------------------------------
 BYTE   N96  Fn4  v100
 BYTE   W96
// 076   ----------------------------------------
 BYTE   PATT
  POIN2 Label_10_0135CB2C
// 077   ----------------------------------------
 BYTE   PATT
  POIN2 Label_10_0135CB36
// 078   ----------------------------------------
 BYTE   PATT
  POIN2 Label_10_0135CB7A
// 079   ----------------------------------------
 BYTE   PATT
  POIN2 Label_10_0135CB92
// 080   ----------------------------------------
 BYTE   PATT
  POIN2 Label_10_0135CBA4
// 081   ----------------------------------------
 BYTE   PATT
  POIN2 Label_10_0135CB36
// 082   ----------------------------------------
 BYTE   PATT
  POIN2 Label_10_0135CBB3
// 083   ----------------------------------------
 BYTE   W96
// 084   ----------------------------------------
 BYTE   PATT
  POIN2 Label_10_0135CBBE
// 085   ----------------------------------------
 BYTE   PATT
  POIN2 Label_10_0135CBC9
// 086   ----------------------------------------
 BYTE   PATT
  POIN2 Label_10_0135CBD4
// 087   ----------------------------------------
 BYTE   PATT
  POIN2 Label_10_0135CBDF
// 088   ----------------------------------------
 BYTE   PATT
  POIN2 Label_10_0135CBBE
// 089   ----------------------------------------
 BYTE   PATT
  POIN2 Label_10_0135CBC9
// 090   ----------------------------------------
 BYTE   PATT
  POIN2 Label_10_0135CBD4
// 091   ----------------------------------------
 BYTE   PATT
  POIN2 Label_10_0135CBDF
// 092   ----------------------------------------
 BYTE   N96  Ds3  v100
 BYTE   W96
// 093   ----------------------------------------
 BYTE   PATT
  POIN2 Label_10_0135CBFE
// 094   ----------------------------------------
 BYTE   N96  Ds3  v100
 BYTE   W96
// 095   ----------------------------------------
 BYTE   W96
// 096   ----------------------------------------
 BYTE   GoTo
  POIN2 Label_10_0135CB1C
 BYTE   FINE

//**************** Track 12 (Midi-Chn.11) ****************//

Celceta_012:
// 000   ----------------------------------------
 BYTE   KEYSH   Celceta_key+0
 BYTE   VOICE   100
 BYTE   PAN   c_v+0
 BYTE   VOL   28*Celceta_mvl/mxv
 BYTE   W96
// 001   ----------------------------------------
 BYTE   W96
// 002   ----------------------------------------
 BYTE   W96
// 003   ----------------------------------------
 BYTE   W96
// 004   ----------------------------------------
Label_11_0135CCB8:
 BYTE   N06  Gn3  v100
 BYTE   W18
 BYTE   N06
 BYTE   W18
 BYTE   N06
 BYTE   W06
 BYTE   N06
 BYTE   W06
 BYTE   N06
 BYTE   W06
 BYTE   N06
 BYTE   W12
 BYTE   N06
 BYTE   W18
 BYTE   N06
 BYTE   W06
 BYTE   N06
 BYTE   W06
 BYTE   PEND 
// 005   ----------------------------------------
 BYTE   PATT
  POIN2 Label_11_0135CCB8
// 006   ----------------------------------------
 BYTE   PATT
  POIN2 Label_11_0135CCB8
// 007   ----------------------------------------
 BYTE   PATT
  POIN2 Label_11_0135CCB8
// 008   ----------------------------------------
Label_11_0135CCDC:
 BYTE   W96
// 009   ----------------------------------------
 BYTE   W96
// 010   ----------------------------------------
 BYTE   W96
// 011   ----------------------------------------
 BYTE   W96
// 012   ----------------------------------------
 BYTE   W96
// 013   ----------------------------------------
 BYTE   W96
// 014   ----------------------------------------
 BYTE   W96
// 015   ----------------------------------------
 BYTE   W96
// 016   ----------------------------------------
 BYTE   W96
// 017   ----------------------------------------
 BYTE   W96
// 018   ----------------------------------------
 BYTE   W96
// 019   ----------------------------------------
 BYTE   W96
// 020   ----------------------------------------
 BYTE   W96
// 021   ----------------------------------------
 BYTE   W96
// 022   ----------------------------------------
 BYTE   W96
// 023   ----------------------------------------
 BYTE   W96
// 024   ----------------------------------------
Label_11_0135CCEC:
 BYTE   W24
 BYTE   N24  As3  v100
 BYTE   W24
 BYTE   Gn3
 BYTE   W24
 BYTE   Ds3
 BYTE   W24
 BYTE   PEND 
// 025   ----------------------------------------
Label_11_0135CCF6:
 BYTE   W24
 BYTE   N24  Cn4  v100
 BYTE   W24
 BYTE   An3
 BYTE   W24
 BYTE   Fn3
 BYTE   W24
 BYTE   PEND 
// 026   ----------------------------------------
Label_11_0135CD00:
 BYTE   W24
 BYTE   N24  An3  v100
 BYTE   W24
 BYTE   Fs3
 BYTE   W24
 BYTE   Dn3
 BYTE   W24
 BYTE   PEND 
// 027   ----------------------------------------
Label_11_0135CD0A:
 BYTE   N24  Dn4  v100
 BYTE   W24
 BYTE   As3
 BYTE   W24
 BYTE   Gn3
 BYTE   W24
 BYTE   Dn3
 BYTE   W24
 BYTE   PEND 
// 028   ----------------------------------------
 BYTE   PATT
  POIN2 Label_11_0135CCEC
// 029   ----------------------------------------
 BYTE   PATT
  POIN2 Label_11_0135CCF6
// 030   ----------------------------------------
Label_11_0135CD1F:
 BYTE   W24
 BYTE   N24  As3  v100
 BYTE   W24
 BYTE   N18  Ds4
 BYTE   W18
 BYTE   Dn4
 BYTE   W18
 BYTE   N12  Cn4
 BYTE   W12
 BYTE   PEND 
// 031   ----------------------------------------
 BYTE   N96  Dn4
 BYTE   W96
// 032   ----------------------------------------
 BYTE   PATT
  POIN2 Label_11_0135CCEC
// 033   ----------------------------------------
 BYTE   PATT
  POIN2 Label_11_0135CCF6
// 034   ----------------------------------------
Label_11_0135CD3A:
 BYTE   N12  Fs4  v100
 BYTE   W12
 BYTE   N06  Dn4
 BYTE   W12
 BYTE   N12
 BYTE   W12
 BYTE   N06  Cn4
 BYTE   W12
 BYTE   N12
 BYTE   W12
 BYTE   N06  An3
 BYTE   W12
 BYTE   N12  Fs3
 BYTE   W12
 BYTE   N06  Dn3
 BYTE   W12
 BYTE   PEND 
// 035   ----------------------------------------
Label_11_0135CD52:
 BYTE   N12  Dn4  v100
 BYTE   W18
 BYTE   Cn4
 BYTE   W18
 BYTE   N24  As3
 BYTE   W24
 BYTE   N12  An3
 BYTE   W12
 BYTE   Gn3
 BYTE   W12
 BYTE   Dn3
 BYTE   W12
 BYTE   PEND 
// 036   ----------------------------------------
Label_11_0135CD63:
 BYTE   W24
 BYTE   N24  Cn4  v100
 BYTE   W24
 BYTE   Gs3
 BYTE   W24
 BYTE   Dn3
 BYTE   W24
 BYTE   PEND 
// 037   ----------------------------------------
 BYTE   PATT
  POIN2 Label_11_0135CCF6
// 038   ----------------------------------------
Label_11_0135CD72:
 BYTE   W24
 BYTE   N24  Dn4  v100
 BYTE   W24
 BYTE   As3
 BYTE   W24
 BYTE   Fn3
 BYTE   W24
 BYTE   PEND 
// 039   ----------------------------------------
 BYTE   W96
// 040   ----------------------------------------
Label_11_0135CD7D:
 BYTE   N24  Ds3  v100
 BYTE   W24
 BYTE   Cn3
 BYTE   W24
 BYTE   As2
 BYTE   W24
 BYTE   Dn3
 BYTE   W24
 BYTE   PEND 
// 041   ----------------------------------------
Label_11_0135CD88:
 BYTE   N24  Ds3  v100
 BYTE   W24
 BYTE   As2
 BYTE   W24
 BYTE   Gn2
 BYTE   W24
 BYTE   Ds2
 BYTE   W24
 BYTE   PEND 
// 042   ----------------------------------------
Label_11_0135CD93:
 BYTE   N24  Cn3  v100
 BYTE   W24
 BYTE   Ds3
 BYTE   W24
 BYTE   Dn3
 BYTE   W24
 BYTE   Bn2
 BYTE   W24
 BYTE   PEND 
// 043   ----------------------------------------
Label_11_0135CD9E:
 BYTE   N24  Cn3  v100
 BYTE   W24
 BYTE   Gn2
 BYTE   W24
 BYTE   N12  Gn4
 BYTE   W12
 BYTE   Ds4
 BYTE   W12
 BYTE   Cn4
 BYTE   W12
 BYTE   Gn3
 BYTE   W12
 BYTE   PEND 
// 044   ----------------------------------------
 BYTE   PATT
  POIN2 Label_11_0135CD7D
// 045   ----------------------------------------
 BYTE   PATT
  POIN2 Label_11_0135CD88
// 046   ----------------------------------------
 BYTE   PATT
  POIN2 Label_11_0135CD93
// 047   ----------------------------------------
 BYTE   PATT
  POIN2 Label_11_0135CD9E
// 048   ----------------------------------------
 BYTE   N96  Cn3  v100
 BYTE   W96
// 049   ----------------------------------------
Label_11_0135CDC6:
 BYTE   N18  Cn3  v100
 BYTE   W18
 BYTE   N18
 BYTE   W18
 BYTE   N12
 BYTE   W12
 BYTE   N18  As2
 BYTE   W18
 BYTE   N18
 BYTE   W18
 BYTE   N12
 BYTE   W12
 BYTE   PEND 
// 050   ----------------------------------------
 BYTE   N96  Cn3
 BYTE   W96
// 051   ----------------------------------------
 BYTE   W96
// 052   ----------------------------------------
 BYTE   W96
// 053   ----------------------------------------
 BYTE   W96
// 054   ----------------------------------------
 BYTE   W96
// 055   ----------------------------------------
 BYTE   W96
// 056   ----------------------------------------
 BYTE   W96
// 057   ----------------------------------------
 BYTE   W96
// 058   ----------------------------------------
 BYTE   W96
// 059   ----------------------------------------
 BYTE   W96
// 060   ----------------------------------------
 BYTE   W96
// 061   ----------------------------------------
 BYTE   W96
// 062   ----------------------------------------
 BYTE   W96
// 063   ----------------------------------------
 BYTE   W96
// 064   ----------------------------------------
 BYTE   W96
// 065   ----------------------------------------
 BYTE   W96
// 066   ----------------------------------------
 BYTE   W96
// 067   ----------------------------------------
 BYTE   W96
// 068   ----------------------------------------
 BYTE   PATT
  POIN2 Label_11_0135CCEC
// 069   ----------------------------------------
 BYTE   PATT
  POIN2 Label_11_0135CCF6
// 070   ----------------------------------------
 BYTE   PATT
  POIN2 Label_11_0135CD00
// 071   ----------------------------------------
 BYTE   PATT
  POIN2 Label_11_0135CD0A
// 072   ----------------------------------------
 BYTE   PATT
  POIN2 Label_11_0135CCEC
// 073   ----------------------------------------
 BYTE   PATT
  POIN2 Label_11_0135CCF6
// 074   ----------------------------------------
 BYTE   PATT
  POIN2 Label_11_0135CD1F
// 075   ----------------------------------------
 BYTE   N96  Dn4  v100
 BYTE   W96
// 076   ----------------------------------------
 BYTE   PATT
  POIN2 Label_11_0135CCEC
// 077   ----------------------------------------
 BYTE   PATT
  POIN2 Label_11_0135CCF6
// 078   ----------------------------------------
 BYTE   PATT
  POIN2 Label_11_0135CD3A
// 079   ----------------------------------------
 BYTE   PATT
  POIN2 Label_11_0135CD52
// 080   ----------------------------------------
 BYTE   PATT
  POIN2 Label_11_0135CD63
// 081   ----------------------------------------
 BYTE   PATT
  POIN2 Label_11_0135CCF6
// 082   ----------------------------------------
 BYTE   PATT
  POIN2 Label_11_0135CD72
// 083   ----------------------------------------
 BYTE   W96
// 084   ----------------------------------------
 BYTE   PATT
  POIN2 Label_11_0135CD7D
// 085   ----------------------------------------
 BYTE   PATT
  POIN2 Label_11_0135CD88
// 086   ----------------------------------------
 BYTE   PATT
  POIN2 Label_11_0135CD93
// 087   ----------------------------------------
 BYTE   PATT
  POIN2 Label_11_0135CD9E
// 088   ----------------------------------------
 BYTE   PATT
  POIN2 Label_11_0135CD7D
// 089   ----------------------------------------
 BYTE   PATT
  POIN2 Label_11_0135CD88
// 090   ----------------------------------------
 BYTE   PATT
  POIN2 Label_11_0135CD93
// 091   ----------------------------------------
 BYTE   PATT
  POIN2 Label_11_0135CD9E
// 092   ----------------------------------------
 BYTE   N96  Cn3  v100
 BYTE   W96
// 093   ----------------------------------------
 BYTE   PATT
  POIN2 Label_11_0135CDC6
// 094   ----------------------------------------
 BYTE   N96  Cn3  v100
 BYTE   W96
// 095   ----------------------------------------
 BYTE   W96
// 096   ----------------------------------------
 BYTE   GoTo
  POIN2 Label_11_0135CCDC
 BYTE   FINE

//**************** Track 13 (Midi-Chn.12) ****************//

Celceta_013:
// 000   ----------------------------------------
 BYTE   KEYSH   Celceta_key+0
 BYTE   VOICE   29
 BYTE   VOL   17*Celceta_mvl/mxv
 BYTE   MOD 0
 BYTE   DnM2
 BYTE   PAN   c_v+56
 BYTE   W12
 BYTE   W01
 BYTE   W80
 BYTE   W03
// 001   ----------------------------------------
 BYTE   W96
// 002   ----------------------------------------
 BYTE   W96
// 003   ----------------------------------------
 BYTE   W96
// 004   ----------------------------------------
 BYTE   W96
// 005   ----------------------------------------
 BYTE   W96
// 006   ----------------------------------------
 BYTE   W96
// 007   ----------------------------------------
 BYTE   W96
// 008   ----------------------------------------
Label_12_0135CE89:
 BYTE   W12
 BYTE   N48  Dn3  v112
 BYTE   W48
 BYTE   N24  Cn3
 BYTE   W24
 BYTE   As2
 BYTE   W12
 BYTE   PEND 
// 009   ----------------------------------------
Label_12_0135CE94:
 BYTE   W12
 BYTE   N12  An2  v112
 BYTE   W12
 BYTE   As2
 BYTE   W12
 BYTE   Cn3
 BYTE   W12
 BYTE   An2
 BYTE   W12
 BYTE   N24  Fn2
 BYTE   W24
 BYTE   N12  Gn2
 BYTE   W12
 BYTE   PEND 
// 010   ----------------------------------------
Label_12_0135CEA6:
 BYTE   N12  An2  v112
 BYTE   W12
 BYTE   N36  As2
 BYTE   W36
 BYTE   N06  An2
 BYTE   W06
 BYTE   As2
 BYTE   W06
 BYTE   N24  Cn3
 BYTE   W24
 BYTE   Fn3
 BYTE   W12
 BYTE   PEND 
// 011   ----------------------------------------
Label_12_0135CEB8:
 BYTE   W12
 BYTE   N72  Dn3  v112
 BYTE   W72
 BYTE   N12  Ds3
 BYTE   W12
 BYTE   PEND 
// 012   ----------------------------------------
Label_12_0135CEC1:
 BYTE   N12  Fn3  v112
 BYTE   W12
 BYTE   N36
 BYTE   W36
 BYTE   Ds3
 BYTE   W36
 BYTE   N12  Dn3
 BYTE   W12
 BYTE   PEND 
// 013   ----------------------------------------
Label_12_0135CECD:
 BYTE   N12  Ds3  v112
 BYTE   W12
 BYTE   N36  Dn3
 BYTE   W36
 BYTE   As2
 BYTE   W36
 BYTE   N12  An2
 BYTE   W12
 BYTE   PEND 
// 014   ----------------------------------------
Label_12_0135CEDA:
 BYTE   N12  As2  v112
 BYTE   W12
 BYTE   N48  Cn3
 BYTE   W48
 BYTE   N24  Dn3
 BYTE   W24
 BYTE   Ds3
 BYTE   W12
 BYTE   PEND 
// 015   ----------------------------------------
 BYTE   W12
 BYTE   N36  Dn3
 BYTE   W84
// 016   ----------------------------------------
 BYTE   PATT
  POIN2 Label_12_0135CE89
// 017   ----------------------------------------
 BYTE   PATT
  POIN2 Label_12_0135CE94
// 018   ----------------------------------------
 BYTE   PATT
  POIN2 Label_12_0135CEA6
// 019   ----------------------------------------
 BYTE   PATT
  POIN2 Label_12_0135CEB8
// 020   ----------------------------------------
 BYTE   PATT
  POIN2 Label_12_0135CEC1
// 021   ----------------------------------------
Label_12_0135CF04:
 BYTE   N12  Ds3  v112
 BYTE   W12
 BYTE   N36  Cn4
 BYTE   W36
 BYTE   As3
 BYTE   W36
 BYTE   N12  An3
 BYTE   W12
 BYTE   PEND 
// 022   ----------------------------------------
Label_12_0135CF11:
 BYTE   N12  As3  v112
 BYTE   W12
 BYTE   N48  An3
 BYTE   W48
 BYTE   N16  Dn4
 BYTE   W16
 BYTE   Fs3
 BYTE   W16
 BYTE   An3
 BYTE   W04
 BYTE   PEND 
// 023   ----------------------------------------
Label_12_0135CF20:
 BYTE   W12
 BYTE   N06  Gn3  v112
 BYTE   W12
 BYTE   N24
 BYTE   W30
 BYTE   N06
 BYTE   W06
 BYTE   N12
 BYTE   W12
 BYTE   N12
 BYTE   W24
 BYTE   PEND 
// 024   ----------------------------------------
Label_12_0135CF2E:
 BYTE   W12
 BYTE   N06  As3  v112
 BYTE   W06
 BYTE   An3
 BYTE   W06
 BYTE   N36  As3
 BYTE   W48
 BYTE   N12  Gn3
 BYTE   W12
 BYTE   An3
 BYTE   W12
 BYTE   PEND 
// 025   ----------------------------------------
Label_12_0135CF3E:
 BYTE   N12  As3  v112
 BYTE   W12
 BYTE   N16  An3
 BYTE   W16
 BYTE   Dn4
 BYTE   W16
 BYTE   N28  An3
 BYTE   W28
 BYTE   N36  Fn3
 BYTE   W24
 BYTE   PEND 
// 026   ----------------------------------------
Label_12_0135CF4E:
 BYTE   W12
 BYTE   N48  An3  v112
 BYTE   W48
 BYTE   N24  As3
 BYTE   W24
 BYTE   Cn4
 BYTE   W12
 BYTE   PEND 
// 027   ----------------------------------------
Label_12_0135CF59:
 BYTE   W12
 BYTE   N18  Cn4  v112
 BYTE   W18
 BYTE   N06  As3
 BYTE   W18
 BYTE   N60
 BYTE   W48
 BYTE   PEND 
// 028   ----------------------------------------
Label_12_0135CF64:
 BYTE   W12
 BYTE   N48  Gn3  v112
 BYTE   W60
 BYTE   N12
 BYTE   W12
 BYTE   An3
 BYTE   W12
 BYTE   PEND 
// 029   ----------------------------------------
Label_12_0135CF6E:
 BYTE   N12  As3  v112
 BYTE   W12
 BYTE   N24  Cn4
 BYTE   W24
 BYTE   Fn3
 BYTE   W24
 BYTE   Fn4
 BYTE   W24
 BYTE   Ds4
 BYTE   W12
 BYTE   PEND 
// 030   ----------------------------------------
Label_12_0135CF7C:
 BYTE   W12
 BYTE   TIE  Dn4  v112
 BYTE   W84
 BYTE   PEND 
// 031   ----------------------------------------
 BYTE   W60
 BYTE   EOT
 BYTE   W36
// 032   ----------------------------------------
 BYTE   PATT
  POIN2 Label_12_0135CF2E
// 033   ----------------------------------------
 BYTE   PATT
  POIN2 Label_12_0135CF3E
// 034   ----------------------------------------
Label_12_0135CF8F:
 BYTE   W12
 BYTE   N48  An3  v112
 BYTE   W48
 BYTE   N24  Fs4
 BYTE   W24
 BYTE   Dn4
 BYTE   W12
 BYTE   PEND 
// 035   ----------------------------------------
Label_12_0135CF9A:
 BYTE   W12
 BYTE   N18  As4  v112
 BYTE   W18
 BYTE   N06  An4
 BYTE   W18
 BYTE   N24  Gn4
 BYTE   W24
 BYTE   N12
 BYTE   W12
 BYTE   An4
 BYTE   W12
 BYTE   PEND 
// 036   ----------------------------------------
Label_12_0135CFAA:
 BYTE   N12  As4  v112
 BYTE   W12
 BYTE   N48  Cn5
 BYTE   W48
 BYTE   Gs4
 BYTE   W36
 BYTE   PEND 
// 037   ----------------------------------------
Label_12_0135CFB4:
 BYTE   W12
 BYTE   N48  Fn4  v112
 BYTE   W48
 BYTE   Ds4
 BYTE   W36
 BYTE   PEND 
// 038   ----------------------------------------
 BYTE   W12
 BYTE   N96  Dn4
 BYTE   W84
// 039   ----------------------------------------
 BYTE   W96
// 040   ----------------------------------------
Label_12_0135CFC1:
 BYTE   W12
 BYTE   N36  Ds3  v112
 BYTE   W36
 BYTE   N06  Dn3
 BYTE   W06
 BYTE   Ds3
 BYTE   W06
 BYTE   N24  Fn3
 BYTE   W24
 BYTE   As3
 BYTE   W12
 BYTE   PEND 
// 041   ----------------------------------------
Label_12_0135CFD1:
 BYTE   W12
 BYTE   N48  Gn3  v112
 BYTE   W72
 BYTE   N12  Gs3
 BYTE   W12
 BYTE   PEND 
// 042   ----------------------------------------
Label_12_0135CFDA:
 BYTE   N12  As3  v112
 BYTE   W12
 BYTE   N48  Cn4
 BYTE   W48
 BYTE   N12  Dn4
 BYTE   W12
 BYTE   Gn3
 BYTE   W12
 BYTE   Gn4
 BYTE   W12
 BYTE   PEND 
// 043   ----------------------------------------
Label_12_0135CFE9:
 BYTE   N12  Fn4  v112
 BYTE   W12
 BYTE   N48
 BYTE   W48
 BYTE   Ds4
 BYTE   W36
 BYTE   PEND 
// 044   ----------------------------------------
 BYTE   PATT
  POIN2 Label_12_0135CFC1
// 045   ----------------------------------------
 BYTE   PATT
  POIN2 Label_12_0135CFD1
// 046   ----------------------------------------
Label_12_0135CFFC:
 BYTE   N12  As3  v112
 BYTE   W12
 BYTE   N36  Cn4
 BYTE   W36
 BYTE   N06  Dn4
 BYTE   W06
 BYTE   Ds4
 BYTE   W06
 BYTE   N12  Dn4
 BYTE   W12
 BYTE   Gn3
 BYTE   W12
 BYTE   Gn4
 BYTE   W12
 BYTE   PEND 
// 047   ----------------------------------------
Label_12_0135D010:
 BYTE   N12  Fn4  v112
 BYTE   W12
 BYTE   N96  Ds4
 BYTE   W84
 BYTE   PEND 
// 048   ----------------------------------------
 BYTE   W12
 BYTE   Gn3
 BYTE   W84
// 049   ----------------------------------------
Label_12_0135D01B:
 BYTE   W12
 BYTE   N18  Gn3  v112
 BYTE   W18
 BYTE   Fn3
 BYTE   W18
 BYTE   N12  Ds3
 BYTE   W12
 BYTE   N18  Dn3
 BYTE   W18
 BYTE   Cn3
 BYTE   W18
 BYTE   PEND 
// 050   ----------------------------------------
Label_12_0135D02B:
 BYTE   N12  As2  v112
 BYTE   W12
 BYTE   TIE  Cn3
 BYTE   W60
 BYTE   BEND   c_v+0
 BYTE   W01
 BYTE   Fs3
 BYTE   W01
 BYTE   Gs3
 BYTE   W01
 BYTE   An3
 BYTE   W01
 BYTE   Cn4
 BYTE   W01
 BYTE   Cs4
 BYTE   W01
 BYTE   Ds4
 BYTE   W01
 BYTE   Fn4
 BYTE   W01
 BYTE   Fs4
 BYTE   W01
 BYTE   Gs4
 BYTE   W01
 BYTE   As4
 BYTE   W01
 BYTE   Cn5
 BYTE   W01
 BYTE   Dn5
 BYTE   W01
 BYTE   Ds5
 BYTE   W01
 BYTE   Fn5
 BYTE   W01
 BYTE   Gn5
 BYTE   W01
 BYTE   An5
 BYTE   W01
 BYTE   Bn5
 BYTE   W01
 BYTE   Cn6
 BYTE   W01
 BYTE   Dn6
 BYTE   W01
 BYTE   En6
 BYTE   W01
 BYTE   Fn6
 BYTE   W01
 BYTE   Gs6
 BYTE   W01
 BYTE   An6
 BYTE   W01
 BYTE   PEND 
// 051   ----------------------------------------
Label_12_0135D064:
 BYTE   BEND   c_v+43
 BYTE   W01
 BYTE   Cs7
 BYTE   W01
 BYTE   Dn7
 BYTE   W01
 BYTE   En7
 BYTE   W01
 BYTE   Fs7
 BYTE   W01
 BYTE   Gs7
 BYTE   W01
 BYTE   As7
 BYTE   W01
 BYTE   Bn7
 BYTE   W01
 BYTE   Cs8
 BYTE   W01
 BYTE   Ds8
 BYTE   W01
 BYTE   Fn8
 BYTE   W01
 BYTE   Gn8
 BYTE   W01
 BYTE   Gn8
 BYTE   W80
 BYTE   W03
 BYTE   PEND 
 BYTE   EOT
 BYTE   Cn3
 BYTE   W01
// 052   ----------------------------------------
 BYTE   BEND   c_v+0
 BYTE   W12
 BYTE   N48  Dn3  v112
 BYTE   W48
 BYTE   N24  Cn3
 BYTE   W24
 BYTE   As2
 BYTE   W12
// 053   ----------------------------------------
 BYTE   PATT
  POIN2 Label_12_0135CE94
// 054   ----------------------------------------
 BYTE   PATT
  POIN2 Label_12_0135CEA6
// 055   ----------------------------------------
 BYTE   PATT
  POIN2 Label_12_0135CEB8
// 056   ----------------------------------------
 BYTE   PATT
  POIN2 Label_12_0135CEC1
// 057   ----------------------------------------
 BYTE   PATT
  POIN2 Label_12_0135CECD
// 058   ----------------------------------------
 BYTE   PATT
  POIN2 Label_12_0135CEDA
// 059   ----------------------------------------
 BYTE   W12
 BYTE   N36  Dn3  v112
 BYTE   W84
// 060   ----------------------------------------
 BYTE   PATT
  POIN2 Label_12_0135CE89
// 061   ----------------------------------------
 BYTE   PATT
  POIN2 Label_12_0135CE94
// 062   ----------------------------------------
 BYTE   PATT
  POIN2 Label_12_0135CEA6
// 063   ----------------------------------------
 BYTE   PATT
  POIN2 Label_12_0135CEB8
// 064   ----------------------------------------
 BYTE   PATT
  POIN2 Label_12_0135CEC1
// 065   ----------------------------------------
 BYTE   PATT
  POIN2 Label_12_0135CF04
// 066   ----------------------------------------
 BYTE   PATT
  POIN2 Label_12_0135CF11
// 067   ----------------------------------------
 BYTE   PATT
  POIN2 Label_12_0135CF20
// 068   ----------------------------------------
 BYTE   PATT
  POIN2 Label_12_0135CF2E
// 069   ----------------------------------------
 BYTE   PATT
  POIN2 Label_12_0135CF3E
// 070   ----------------------------------------
 BYTE   PATT
  POIN2 Label_12_0135CF4E
// 071   ----------------------------------------
 BYTE   PATT
  POIN2 Label_12_0135CF59
// 072   ----------------------------------------
 BYTE   PATT
  POIN2 Label_12_0135CF64
// 073   ----------------------------------------
 BYTE   PATT
  POIN2 Label_12_0135CF6E
// 074   ----------------------------------------
 BYTE   PATT
  POIN2 Label_12_0135CF7C
// 075   ----------------------------------------
 BYTE   W60
 BYTE   EOT
 BYTE   Dn4
 BYTE   W36
// 076   ----------------------------------------
 BYTE   PATT
  POIN2 Label_12_0135CF2E
// 077   ----------------------------------------
 BYTE   PATT
  POIN2 Label_12_0135CF3E
// 078   ----------------------------------------
 BYTE   PATT
  POIN2 Label_12_0135CF8F
// 079   ----------------------------------------
 BYTE   PATT
  POIN2 Label_12_0135CF9A
// 080   ----------------------------------------
 BYTE   PATT
  POIN2 Label_12_0135CFAA
// 081   ----------------------------------------
 BYTE   PATT
  POIN2 Label_12_0135CFB4
// 082   ----------------------------------------
 BYTE   W12
 BYTE   N96  Dn4  v112
 BYTE   W84
// 083   ----------------------------------------
 BYTE   W96
// 084   ----------------------------------------
 BYTE   PATT
  POIN2 Label_12_0135CFC1
// 085   ----------------------------------------
 BYTE   PATT
  POIN2 Label_12_0135CFD1
// 086   ----------------------------------------
 BYTE   PATT
  POIN2 Label_12_0135CFDA
// 087   ----------------------------------------
 BYTE   PATT
  POIN2 Label_12_0135CFE9
// 088   ----------------------------------------
 BYTE   PATT
  POIN2 Label_12_0135CFC1
// 089   ----------------------------------------
 BYTE   PATT
  POIN2 Label_12_0135CFD1
// 090   ----------------------------------------
 BYTE   PATT
  POIN2 Label_12_0135CFFC
// 091   ----------------------------------------
 BYTE   PATT
  POIN2 Label_12_0135D010
// 092   ----------------------------------------
 BYTE   W12
 BYTE   N96  Gn3  v112
 BYTE   W84
// 093   ----------------------------------------
 BYTE   PATT
  POIN2 Label_12_0135D01B
// 094   ----------------------------------------
 BYTE   PATT
  POIN2 Label_12_0135D02B
// 095   ----------------------------------------
 BYTE   PATT
  POIN2 Label_12_0135D064
// 096   ----------------------------------------
 BYTE   EOT
 BYTE   Cn3
 BYTE   W01
 BYTE   GoTo
  POIN2 Label_12_0135CE89
// 097   ----------------------------------------
 BYTE   BEND   c_v+0
 BYTE   FINE

//**************** Track 14 (Midi-Chn.13) ****************//

Celceta_014:
// 000   ----------------------------------------
 BYTE   KEYSH   Celceta_key+0
 BYTE   VOICE   124
 BYTE   PAN   c_v+0
 BYTE   VOL   31*Celceta_mvl/mxv
 BYTE   N06  Cn1  v100
 BYTE   W12
 BYTE   Fs1
 BYTE   W06
 BYTE   N06
 BYTE   W06
 BYTE   Cn1
 BYTE   W12
 BYTE   Fs1
 BYTE   W06
 BYTE   N06
 BYTE   W06
 BYTE   Cn1
 BYTE   W12
 BYTE   Fs1
 BYTE   W06
 BYTE   N06
 BYTE   W06
 BYTE   Cn1
 BYTE   W12
 BYTE   Fs1
 BYTE   W06
 BYTE   N06
 BYTE   W06
// 001   ----------------------------------------
Label_13_0135D192:
 BYTE   N06  Cn1  v100
 BYTE   W12
 BYTE   Fs1
 BYTE   W06
 BYTE   N06
 BYTE   W06
 BYTE   Cn1
 BYTE   W12
 BYTE   Fs1
 BYTE   W06
 BYTE   N06
 BYTE   W06
 BYTE   Cn1
 BYTE   W12
 BYTE   Fs1
 BYTE   W06
 BYTE   N06
 BYTE   W06
 BYTE   Cn1
 BYTE   W12
 BYTE   Fs1
 BYTE   W06
 BYTE   N06
 BYTE   W06
 BYTE   PEND 
// 002   ----------------------------------------
 BYTE   PATT
  POIN2 Label_13_0135D192
// 003   ----------------------------------------
 BYTE   N06  Cn1  v100
 BYTE   W12
 BYTE   Fs1
 BYTE   W06
 BYTE   N06
 BYTE   W06
 BYTE   Cn1
 BYTE   W12
 BYTE   Fs1
 BYTE   W06
 BYTE   N06
 BYTE   W06
 BYTE   Cn1
 BYTE   W12
 BYTE   Fs1
 BYTE   W06
 BYTE   N06
 BYTE   W06
 BYTE   Dn2
 BYTE   W12
 BYTE   Bn1
 BYTE   W06
 BYTE   Gn1
 BYTE   W06
// 004   ----------------------------------------
Label_13_0135D1CC:
 BYTE   N06  Cn1  v100
 BYTE   W12
 BYTE   Fs1
 BYTE   W12
 BYTE   En1
 BYTE   W12
 BYTE   Fs1
 BYTE   W06
 BYTE   Cn1
 BYTE   W06
 BYTE   N06
 BYTE   W12
 BYTE   Fs1
 BYTE   W12
 BYTE   En1
 BYTE   W12
 BYTE   Fs1
 BYTE   W12
 BYTE   PEND 
// 005   ----------------------------------------
 BYTE   PATT
  POIN2 Label_13_0135D1CC
// 006   ----------------------------------------
 BYTE   PATT
  POIN2 Label_13_0135D1CC
// 007   ----------------------------------------
 BYTE   N06  Dn2  v100
 BYTE   W06
 BYTE   N06
 BYTE   W06
 BYTE   Gn1
 BYTE   W12
 BYTE   N06
 BYTE   W12
 BYTE   Dn2
 BYTE   W06
 BYTE   N06
 BYTE   W06
 BYTE   Gn1
 BYTE   W12
 BYTE   N06
 BYTE   W12
 BYTE   Dn2
 BYTE   W06
 BYTE   N06
 BYTE   W06
 BYTE   Gn1
 BYTE   W12
// 008   ----------------------------------------
Label_13_0135D203:
// 009   ----------------------------------------
 BYTE   PATT
  POIN2 Label_13_0135D1CC
// 010   ----------------------------------------
 BYTE   PATT
  POIN2 Label_13_0135D1CC
// 011   ----------------------------------------
 BYTE   PATT
  POIN2 Label_13_0135D1CC
// 012   ----------------------------------------
 BYTE   PATT
  POIN2 Label_13_0135D1CC
// 013   ----------------------------------------
 BYTE   PATT
  POIN2 Label_13_0135D1CC
// 014   ----------------------------------------
 BYTE   PATT
  POIN2 Label_13_0135D1CC
// 015   ----------------------------------------
 BYTE   PATT
  POIN2 Label_13_0135D1CC
// 016   ----------------------------------------
Label_13_0135D226:
 BYTE   N06  En1  v100
 BYTE   W06
 BYTE   N06
 BYTE   W06
 BYTE   Fs1
 BYTE   W06
 BYTE   N06
 BYTE   W06
 BYTE   N06
 BYTE   W06
 BYTE   N06
 BYTE   W06
 BYTE   En1
 BYTE   W06
 BYTE   N06
 BYTE   W06
 BYTE   Fs1
 BYTE   W06
 BYTE   N06
 BYTE   W06
 BYTE   En1
 BYTE   W12
 BYTE   N06
 BYTE   W12
 BYTE   N06
 BYTE   W06
 BYTE   N06
 BYTE   W06
 BYTE   PEND 
// 017   ----------------------------------------
 BYTE   PATT
  POIN2 Label_13_0135D1CC
// 018   ----------------------------------------
 BYTE   PATT
  POIN2 Label_13_0135D1CC
// 019   ----------------------------------------
 BYTE   PATT
  POIN2 Label_13_0135D1CC
// 020   ----------------------------------------
 BYTE   PATT
  POIN2 Label_13_0135D1CC
// 021   ----------------------------------------
 BYTE   PATT
  POIN2 Label_13_0135D1CC
// 022   ----------------------------------------
 BYTE   PATT
  POIN2 Label_13_0135D1CC
// 023   ----------------------------------------
 BYTE   PATT
  POIN2 Label_13_0135D1CC
// 024   ----------------------------------------
 BYTE   PATT
  POIN2 Label_13_0135D226
// 025   ----------------------------------------
Label_13_0135D26D:
 BYTE   N06  Cn1  v100
 BYTE   W12
 BYTE   Fs1
 BYTE   W12
 BYTE   En1
 BYTE   W12
 BYTE   Fs1
 BYTE   W06
 BYTE   N06
 BYTE   W06
 BYTE   Cn1
 BYTE   W06
 BYTE   Fs1
 BYTE   W06
 BYTE   En1
 BYTE   W12
 BYTE   Fs1
 BYTE   W12
 BYTE   N06
 BYTE   W06
 BYTE   N06
 BYTE   W06
 BYTE   PEND 
// 026   ----------------------------------------
 BYTE   PATT
  POIN2 Label_13_0135D26D
// 027   ----------------------------------------
 BYTE   PATT
  POIN2 Label_13_0135D26D
// 028   ----------------------------------------
 BYTE   PATT
  POIN2 Label_13_0135D26D
// 029   ----------------------------------------
 BYTE   PATT
  POIN2 Label_13_0135D26D
// 030   ----------------------------------------
 BYTE   PATT
  POIN2 Label_13_0135D26D
// 031   ----------------------------------------
 BYTE   PATT
  POIN2 Label_13_0135D26D
// 032   ----------------------------------------
Label_13_0135D2A4:
 BYTE   N06  Cn1  v100
 BYTE   W12
 BYTE   Fs1
 BYTE   W12
 BYTE   En1
 BYTE   W12
 BYTE   Fs1
 BYTE   W06
 BYTE   N06
 BYTE   W06
 BYTE   Cn1
 BYTE   W06
 BYTE   En1
 BYTE   W12
 BYTE   N06
 BYTE   W06
 BYTE   Dn2
 BYTE   W06
 BYTE   Bn1
 BYTE   W06
 BYTE   En1
 BYTE   W06
 BYTE   N06
 BYTE   W06
 BYTE   PEND 
// 033   ----------------------------------------
 BYTE   PATT
  POIN2 Label_13_0135D26D
// 034   ----------------------------------------
 BYTE   PATT
  POIN2 Label_13_0135D26D
// 035   ----------------------------------------
 BYTE   PATT
  POIN2 Label_13_0135D26D
// 036   ----------------------------------------
Label_13_0135D2CE:
 BYTE   N06  Cn1  v100
 BYTE   W12
 BYTE   Fs1
 BYTE   W12
 BYTE   En1
 BYTE   W12
 BYTE   Fs1
 BYTE   W06
 BYTE   N06
 BYTE   W06
 BYTE   Cn1
 BYTE   W06
 BYTE   Fs1
 BYTE   W06
 BYTE   En1
 BYTE   W12
 BYTE   N06
 BYTE   W12
 BYTE   N06
 BYTE   W06
 BYTE   N06
 BYTE   W06
 BYTE   PEND 
// 037   ----------------------------------------
Label_13_0135D2E7:
 BYTE   N06  Cn1  v100
 BYTE   W12
 BYTE   Fs1
 BYTE   W06
 BYTE   N06
 BYTE   W06
 BYTE   En1
 BYTE   W12
 BYTE   Fs1
 BYTE   W06
 BYTE   N06
 BYTE   W06
 BYTE   Cn1
 BYTE   W12
 BYTE   Fs1
 BYTE   W06
 BYTE   N06
 BYTE   W06
 BYTE   En1
 BYTE   W12
 BYTE   Fs1
 BYTE   W06
 BYTE   N06
 BYTE   W06
 BYTE   PEND 
// 038   ----------------------------------------
 BYTE   PATT
  POIN2 Label_13_0135D2E7
// 039   ----------------------------------------
 BYTE   PATT
  POIN2 Label_13_0135D2E7
// 040   ----------------------------------------
Label_13_0135D30C:
 BYTE   N06  En1  v100
 BYTE   W12
 BYTE   Fs1
 BYTE   W06
 BYTE   N06
 BYTE   W06
 BYTE   N06
 BYTE   W06
 BYTE   N06
 BYTE   W06
 BYTE   En1
 BYTE   W06
 BYTE   N06
 BYTE   W06
 BYTE   Dn2
 BYTE   W06
 BYTE   N06
 BYTE   W06
 BYTE   Bn1
 BYTE   W06
 BYTE   Gn1
 BYTE   W06
 BYTE   Dn2
 BYTE   W06
 BYTE   N06
 BYTE   W06
 BYTE   Bn1
 BYTE   W06
 BYTE   Gn1
 BYTE   W06
 BYTE   PEND 
// 041   ----------------------------------------
Label_13_0135D32D:
 BYTE   N06  En1  v100
 BYTE   W12
 BYTE   Fs1
 BYTE   W06
 BYTE   N06
 BYTE   W06
 BYTE   En1
 BYTE   W12
 BYTE   Fs1
 BYTE   W06
 BYTE   N06
 BYTE   W06
 BYTE   En1
 BYTE   W12
 BYTE   Fs1
 BYTE   W06
 BYTE   N06
 BYTE   W06
 BYTE   En1
 BYTE   W12
 BYTE   Fs1
 BYTE   W06
 BYTE   N06
 BYTE   W06
 BYTE   PEND 
// 042   ----------------------------------------
Label_13_0135D348:
 BYTE   N06  En1  v100
 BYTE   W12
 BYTE   Fs1
 BYTE   W06
 BYTE   N06
 BYTE   W06
 BYTE   En1
 BYTE   W12
 BYTE   Fs1
 BYTE   W06
 BYTE   N06
 BYTE   W06
 BYTE   En1
 BYTE   W12
 BYTE   Fs1
 BYTE   W06
 BYTE   N06
 BYTE   W06
 BYTE   Dn2
 BYTE   W12
 BYTE   Bn1
 BYTE   W06
 BYTE   Gn1
 BYTE   W06
 BYTE   PEND 
// 043   ----------------------------------------
 BYTE   PATT
  POIN2 Label_13_0135D32D
// 044   ----------------------------------------
 BYTE   PATT
  POIN2 Label_13_0135D348
// 045   ----------------------------------------
 BYTE   PATT
  POIN2 Label_13_0135D32D
// 046   ----------------------------------------
 BYTE   PATT
  POIN2 Label_13_0135D348
// 047   ----------------------------------------
 BYTE   PATT
  POIN2 Label_13_0135D32D
// 048   ----------------------------------------
 BYTE   PATT
  POIN2 Label_13_0135D348
// 049   ----------------------------------------
Label_13_0135D381:
 BYTE   N06  En1  v100
 BYTE   W24
 BYTE   Fs1
 BYTE   W24
 BYTE   N06
 BYTE   W24
 BYTE   N06
 BYTE   W24
 BYTE   PEND 
// 050   ----------------------------------------
Label_13_0135D38C:
 BYTE   N06  Dn2  v100
 BYTE   W18
 BYTE   Bn1
 BYTE   W18
 BYTE   Gn1
 BYTE   W12
 BYTE   Dn2
 BYTE   W18
 BYTE   Bn1
 BYTE   W18
 BYTE   Gn1
 BYTE   W12
 BYTE   PEND 
// 051   ----------------------------------------
 BYTE   PATT
  POIN2 Label_13_0135D192
// 052   ----------------------------------------
Label_13_0135D3A0:
 BYTE   N06  Cn1  v100
 BYTE   W06
 BYTE   Fs1
 BYTE   W06
 BYTE   N06
 BYTE   W12
 BYTE   Cn1
 BYTE   W06
 BYTE   Fs1
 BYTE   W06
 BYTE   N06
 BYTE   W12
 BYTE   En1
 BYTE   W06
 BYTE   N06
 BYTE   W06
 BYTE   Dn2
 BYTE   W06
 BYTE   N06
 BYTE   W06
 BYTE   Bn1
 BYTE   W06
 BYTE   N06
 BYTE   W06
 BYTE   Gn1
 BYTE   W06
 BYTE   N06
 BYTE   W06
 BYTE   PEND 
// 053   ----------------------------------------
 BYTE   PATT
  POIN2 Label_13_0135D1CC
// 054   ----------------------------------------
 BYTE   PATT
  POIN2 Label_13_0135D1CC
// 055   ----------------------------------------
 BYTE   PATT
  POIN2 Label_13_0135D1CC
// 056   ----------------------------------------
 BYTE   PATT
  POIN2 Label_13_0135D1CC
// 057   ----------------------------------------
 BYTE   PATT
  POIN2 Label_13_0135D1CC
// 058   ----------------------------------------
 BYTE   PATT
  POIN2 Label_13_0135D1CC
// 059   ----------------------------------------
 BYTE   PATT
  POIN2 Label_13_0135D1CC
// 060   ----------------------------------------
 BYTE   PATT
  POIN2 Label_13_0135D226
// 061   ----------------------------------------
 BYTE   PATT
  POIN2 Label_13_0135D1CC
// 062   ----------------------------------------
 BYTE   PATT
  POIN2 Label_13_0135D1CC
// 063   ----------------------------------------
 BYTE   PATT
  POIN2 Label_13_0135D1CC
// 064   ----------------------------------------
 BYTE   PATT
  POIN2 Label_13_0135D1CC
// 065   ----------------------------------------
 BYTE   PATT
  POIN2 Label_13_0135D1CC
// 066   ----------------------------------------
 BYTE   PATT
  POIN2 Label_13_0135D1CC
// 067   ----------------------------------------
 BYTE   PATT
  POIN2 Label_13_0135D1CC
// 068   ----------------------------------------
 BYTE   PATT
  POIN2 Label_13_0135D226
// 069   ----------------------------------------
 BYTE   PATT
  POIN2 Label_13_0135D26D
// 070   ----------------------------------------
 BYTE   PATT
  POIN2 Label_13_0135D26D
// 071   ----------------------------------------
 BYTE   PATT
  POIN2 Label_13_0135D26D
// 072   ----------------------------------------
 BYTE   PATT
  POIN2 Label_13_0135D26D
// 073   ----------------------------------------
 BYTE   PATT
  POIN2 Label_13_0135D26D
// 074   ----------------------------------------
 BYTE   PATT
  POIN2 Label_13_0135D26D
// 075   ----------------------------------------
 BYTE   PATT
  POIN2 Label_13_0135D26D
// 076   ----------------------------------------
 BYTE   PATT
  POIN2 Label_13_0135D2A4
// 077   ----------------------------------------
 BYTE   PATT
  POIN2 Label_13_0135D26D
// 078   ----------------------------------------
 BYTE   PATT
  POIN2 Label_13_0135D26D
// 079   ----------------------------------------
 BYTE   PATT
  POIN2 Label_13_0135D26D
// 080   ----------------------------------------
 BYTE   PATT
  POIN2 Label_13_0135D2CE
// 081   ----------------------------------------
 BYTE   PATT
  POIN2 Label_13_0135D2E7
// 082   ----------------------------------------
 BYTE   PATT
  POIN2 Label_13_0135D2E7
// 083   ----------------------------------------
 BYTE   PATT
  POIN2 Label_13_0135D2E7
// 084   ----------------------------------------
 BYTE   PATT
  POIN2 Label_13_0135D30C
// 085   ----------------------------------------
 BYTE   PATT
  POIN2 Label_13_0135D32D
// 086   ----------------------------------------
 BYTE   PATT
  POIN2 Label_13_0135D348
// 087   ----------------------------------------
 BYTE   PATT
  POIN2 Label_13_0135D32D
// 088   ----------------------------------------
 BYTE   PATT
  POIN2 Label_13_0135D348
// 089   ----------------------------------------
 BYTE   PATT
  POIN2 Label_13_0135D32D
// 090   ----------------------------------------
 BYTE   PATT
  POIN2 Label_13_0135D348
// 091   ----------------------------------------
 BYTE   PATT
  POIN2 Label_13_0135D32D
// 092   ----------------------------------------
 BYTE   PATT
  POIN2 Label_13_0135D348
// 093   ----------------------------------------
 BYTE   PATT
  POIN2 Label_13_0135D381
// 094   ----------------------------------------
 BYTE   PATT
  POIN2 Label_13_0135D38C
// 095   ----------------------------------------
 BYTE   PATT
  POIN2 Label_13_0135D192
// 096   ----------------------------------------
 BYTE   PATT
  POIN2 Label_13_0135D3A0
// 097   ----------------------------------------
 BYTE   GoTo
  POIN2 Label_13_0135D203
 BYTE   FINE

//******************************************************//
	ALIGN 4

Celceta:
	BYTE	14	// NumTrks
	BYTE	0	// NumBlks
	BYTE	Celceta_pri	// Priority
	BYTE	Celceta_rev	// Reverb.
    
	POIN2	Celceta_grp
    
	POIN2	Celceta_001
	POIN2	Celceta_002
	POIN2	Celceta_003
	POIN2	Celceta_004
	POIN2	Celceta_005
	POIN2	Celceta_006
	POIN2	Celceta_007
	POIN2	Celceta_008
	POIN2	Celceta_009
	POIN2	Celceta_010
	POIN2	Celceta_011
	POIN2	Celceta_012
	POIN2	Celceta_013
	POIN2	Celceta_014

	
