//Event file generated from Sappy .s format.
	#include "MPlayDef.event"

	#define	song0318_grp  voicegroup001
	#define	song0318_pri  0
	#define	song0318_rev  100
	#define	song0318_mvl  127
	#define	song0318_key  0
	#define	song0318_tbs  1
	#define	song0318_exg  0
	#define	song0318_cmp  1

	// .rodata
	//	song0318
	ALIGN 4


//**************** Track 1 (Midi-Chn.0) ****************//

song0318_001:
// 000   ----------------------------------------
 BYTE   KEYSH   song0318_key+0
 BYTE   TEMPO   80*song0318_tbs/2
 BYTE   VOICE   1
 BYTE   VOL   28*song0318_mvl/mxv
 BYTE   PAN   c_v+6
 BYTE   TIE  As2  v116
 BYTE   W12
 BYTE   N12  Fn3  v112
 BYTE   W12
 BYTE   N36  Ds3
 BYTE   W12
 BYTE   N48  As3
 BYTE   W12
 BYTE   N12  Fn3
 BYTE   W12
 BYTE   N36  Ds3
 BYTE   W12
 BYTE   TEMPO   78*song0318_tbs/2
 BYTE   N72  Cs4
 BYTE   W04
 BYTE   TEMPO   76*song0318_tbs/2
 BYTE   W01
 BYTE   TEMPO   76*song0318_tbs/2
 BYTE   W03
 BYTE   TEMPO   74*song0318_tbs/2
 BYTE   W01
 BYTE   TEMPO   74*song0318_tbs/2
 BYTE   W03
 BYTE   TEMPO   74*song0318_tbs/2
 BYTE   N24  As3
 BYTE   W01
 BYTE   TEMPO   72*song0318_tbs/2
 BYTE   W03
 BYTE   TEMPO   72*song0318_tbs/2
 BYTE   W01
 BYTE   TEMPO   72*song0318_tbs/2
 BYTE   W03
 BYTE   TEMPO   72*song0318_tbs/2
 BYTE   W01
 BYTE   TEMPO   70*song0318_tbs/2
 BYTE   W03
// 001   ----------------------------------------
 BYTE   TEMPO   68*song0318_tbs/2
 BYTE   N12  Fn3
 BYTE   W01
 BYTE   TEMPO   68*song0318_tbs/2
 BYTE   W02
 BYTE   TEMPO   68*song0318_tbs/2
 BYTE   W01
 BYTE   TEMPO   66*song0318_tbs/2
 BYTE   W03
 BYTE   TEMPO   66*song0318_tbs/2
 BYTE   W01
 BYTE   TEMPO   66*song0318_tbs/2
 BYTE   W03
 BYTE   TEMPO   64*song0318_tbs/2
 BYTE   W01
 BYTE   TEMPO   64*song0318_tbs/2
 BYTE   N36  Bn2
 BYTE   W02
 BYTE   TEMPO   64*song0318_tbs/2
 BYTE   N32  Ds3
 BYTE   W01
 BYTE   TEMPO   64*song0318_tbs/2
 BYTE   W01
 BYTE   Fn3
 BYTE   W02
 BYTE   TEMPO   62*song0318_tbs/2
 BYTE   W01
 BYTE   TEMPO   62*song0318_tbs/2
 BYTE   W01
 BYTE   N28  As3
 BYTE   W01
 BYTE   TEMPO   62*song0318_tbs/2
 BYTE   W01
 BYTE   TEMPO   60*song0318_tbs/2
 BYTE   W02
 BYTE   TEMPO   60*song0318_tbs/2
 BYTE   W24
 BYTE   EOT
 BYTE   As2
 BYTE   FINE

//**************** Track 2 (Midi-Chn.1) ****************//

song0318_002:
// 000   ----------------------------------------
 BYTE   KEYSH   song0318_key+0
 BYTE   VOICE   1
 BYTE   VOL   25*song0318_mvl/mxv
 BYTE   PAN   c_v-4
 BYTE   BEND   c_v+0
 BYTE   W09
 BYTE   TIE  As2  v108
 BYTE   W03
 BYTE   BEND   c_v-4
 BYTE   W09
 BYTE   N12  Fn3  v100
 BYTE   W12
 BYTE   N36  Ds3
 BYTE   W12
 BYTE   N48  As3
 BYTE   W12
 BYTE   N12  Fn3
 BYTE   W12
 BYTE   N36  Ds3
 BYTE   W12
 BYTE   N72  Cs4
 BYTE   W12
 BYTE   N24  As3
 BYTE   W03
// 001   ----------------------------------------
 BYTE   W09
 BYTE   N12  Fn3
 BYTE   W12
 BYTE   N24  Bn2
 BYTE   W36
 BYTE   EOT
 BYTE   As2
 BYTE   FINE

//**************** Track 3 (Midi-Chn.2) ****************//

song0318_003:
// 000   ----------------------------------------
 BYTE   KEYSH   song0318_key+0
 BYTE   VOICE   48
 BYTE   VOL   21*song0318_mvl/mxv
 BYTE   PAN   c_v+16
 BYTE   N72  Ds1  v112
 BYTE   N72  As1  v108
 BYTE   N72  Ds2
 BYTE   W72
 BYTE   N36  Cs1  v112
 BYTE   N36  As1  v100
 BYTE   N36  Fn2
 BYTE   W24
// 001   ----------------------------------------
 BYTE   W12
 BYTE   Bn0  v112
 BYTE   N36  Ds2  v100
 BYTE   N36  Fs2
 BYTE   W36
 BYTE   FINE

//**************** Track 4 (Midi-Chn.3) ****************//

song0318_004:
// 000   ----------------------------------------
 BYTE   KEYSH   song0318_key+0
 BYTE   VOICE   48
 BYTE   VOL   13*song0318_mvl/mxv
 BYTE   PAN   c_v-34
 BYTE   N72  As4  v112
 BYTE   N72  Ds5
 BYTE   W12
 BYTE   W01
 BYTE   W01
 BYTE   W01
 BYTE   W01
 BYTE   W01
 BYTE   W01
 BYTE   W01
 BYTE   W01
 BYTE   W01
 BYTE   W01
 BYTE   W01
 BYTE   W01
 BYTE   W01
 BYTE   W01
 BYTE   W01
 BYTE   W01
 BYTE   W01
 BYTE   W01
 BYTE   W01
 BYTE   W01
 BYTE   W01
 BYTE   W01
 BYTE   W01
 BYTE   W01
 BYTE   W36
 BYTE   N36  As4
 BYTE   N36  Ds5
 BYTE   W24
// 001   ----------------------------------------
 BYTE   W12
 BYTE   As4
 BYTE   N36  Ds5
 BYTE   W36
 BYTE   FINE

//**************** Track 5 (Midi-Chn.4) ****************//

song0318_005:
// 000   ----------------------------------------
 BYTE   KEYSH   song0318_key+0
 BYTE   VOICE   1
 BYTE   VOL   23*song0318_mvl/mxv
 BYTE   PAN   c_v-6
 BYTE   N72  Ds0  v112
 BYTE   N72  Ds1  v100
 BYTE   W72
 BYTE   N36  Cs0  v112
 BYTE   N36  Cs1  v100
 BYTE   W24
// 001   ----------------------------------------
 BYTE   W12
 BYTE   BnM1  v112
 BYTE   N36  Bn0  v100
 BYTE   W36
 BYTE   FINE

//**************** Track 6 (Midi-Chn.5) ****************//

song0318_006:
// 000   ----------------------------------------
 BYTE   KEYSH   song0318_key+0
 BYTE   VOICE   1
 BYTE   VOL   25*song0318_mvl/mxv
 BYTE   PAN   c_v+0
 BYTE   N72  Ds1  v112
 BYTE   W72
 BYTE   N36  Cs1  v100
 BYTE   W24
// 001   ----------------------------------------
 BYTE   W12
 BYTE   Bn0  v108
 BYTE   W36
 BYTE   FINE

//**************** Track 7 (Midi-Chn.6) ****************//

song0318_007:
// 000   ----------------------------------------
 BYTE   KEYSH   song0318_key+0
 BYTE   VOICE   46
 BYTE   VOL   18*song0318_mvl/mxv
 BYTE   PAN   c_v-24
 BYTE   N03  Ds1  v120
 BYTE   W03
 BYTE   As1
 BYTE   W03
 BYTE   Ds2
 BYTE   W03
 BYTE   Fs2
 BYTE   W03
 BYTE   As2  v127
 BYTE   W03
 BYTE   Ds3
 BYTE   W03
 BYTE   Fs3  v120
 BYTE   W03
 BYTE   As3
 BYTE   W03
 BYTE   Ds2
 BYTE   W03
 BYTE   As2
 BYTE   W03
 BYTE   Ds3  v116
 BYTE   W03
 BYTE   Fs3
 BYTE   W03
 BYTE   As3  v112
 BYTE   W03
 BYTE   Ds4
 BYTE   W03
 BYTE   Fs4  v108
 BYTE   W03
 BYTE   As4
 BYTE   W03
 BYTE   Ds3  v104
 BYTE   W03
 BYTE   As3
 BYTE   W03
 BYTE   Ds4  v100
 BYTE   W03
 BYTE   Fs4
 BYTE   W03
 BYTE   As4  v096
 BYTE   W03
 BYTE   Ds5
 BYTE   W03
 BYTE   Fs5  v092
 BYTE   W03
 BYTE   As5
 BYTE   W03
 BYTE   Cs2  v116
 BYTE   W03
 BYTE   Gs2
 BYTE   W03
 BYTE   Cs3
 BYTE   W03
 BYTE   Ds3
 BYTE   W03
 BYTE   Fn3  v112
 BYTE   W03
 BYTE   Gs3
 BYTE   W03
 BYTE   Cs4
 BYTE   W03
 BYTE   Ds4
 BYTE   W03
// 001   ----------------------------------------
 BYTE   Fn4  v108
 BYTE   W03
 BYTE   Gs4
 BYTE   W03
 BYTE   Cs5
 BYTE   W03
 BYTE   Gs4
 BYTE   W03
 BYTE   As4
 BYTE   W03
 BYTE   Fn4
 BYTE   W03
 BYTE   Ds4
 BYTE   W03
 BYTE   Bn3
 BYTE   W03
 BYTE   As3  v100
 BYTE   W03
 BYTE   Fn3
 BYTE   W03
 BYTE   Ds3
 BYTE   W03
 BYTE   Bn2
 BYTE   W03
 BYTE   N12  As2  v096
 BYTE   W12
 BYTE   FINE

//**************** Track 8 (Midi-Chn.7) ****************//

song0318_008:
// 000   ----------------------------------------
 BYTE   KEYSH   song0318_key+0
 BYTE   VOICE   48
 BYTE   VOL   8*song0318_mvl/mxv
 BYTE   PAN   c_v+36
 BYTE   BEND   c_v+1
 BYTE   N72  Ds5  v112
 BYTE   W12
 BYTE   W01
 BYTE   W01
 BYTE   W01
 BYTE   W01
 BYTE   W01
 BYTE   W01
 BYTE   W01
 BYTE   W01
 BYTE   W01
 BYTE   W01
 BYTE   W01
 BYTE   W01
 BYTE   W01
 BYTE   W01
 BYTE   W01
 BYTE   W01
 BYTE   W01
 BYTE   W01
 BYTE   W01
 BYTE   W01
 BYTE   W01
 BYTE   W01
 BYTE   W01
 BYTE   W01
 BYTE   W36
 BYTE   N36
 BYTE   W24
// 001   ----------------------------------------
 BYTE   W12
 BYTE   N36
 BYTE   W36
 BYTE   FINE

//******************************************************//
	ALIGN 4

song0318:
	BYTE	8	// NumTrks
	BYTE	0	// NumBlks
	BYTE	song0318_pri	// Priority
	BYTE	song0318_rev	// Reverb.
    
	POIN2	song0318_grp
    
	POIN2	song0318_001
	POIN2	song0318_002
	POIN2	song0318_003
	POIN2	song0318_004
	POIN2	song0318_005
	POIN2	song0318_006
	POIN2	song0318_007
	POIN2	song0318_008

	
