//Event file generated from Sappy .s format.
	#include "MPlayDef.event"

	#define	CHARGESONG_grp  voicegroup000
	#define	CHARGESONG_pri  0
	#define	CHARGESONG_rev  0xA0
	#define	CHARGESONG_mvl  48
	#define	CHARGESONG_key  0
	#define	CHARGESONG_tbs  1
	#define	CHARGESONG_exg  0
	#define	CHARGESONG_cmp  1

	// .rodata
	//	CHARGESONG
	ALIGN 4

//**************** Track 1 (Midi-Chn.1) ****************//

CHARGESONG_1:
	BYTE	KEYSH   CHARGESONG_key+0
// 000   ----------------------------------------
	BYTE	TEMPO   156*CHARGESONG_tbs/2
	BYTE		VOICE   0
	BYTE		MODT    0
	BYTE		LFOS    44
	BYTE		VOL     127*CHARGESONG_mvl/mxv
	BYTE		PAN     c_v+2
	BYTE		VOL     127*CHARGESONG_mvl/mxv
	BYTE		N88     Ds2   v048
	BYTE		N88     Gs2 
	BYTE	W88
	BYTE		TIE     Dn2   v072
	BYTE		TIE     Gs2   v116
	BYTE	W08
// 001   ----------------------------------------
	BYTE		VOL     119*CHARGESONG_mvl/mxv
	BYTE	W01
	BYTE		        112*CHARGESONG_mvl/mxv
	BYTE	W01
	BYTE		        106*CHARGESONG_mvl/mxv
	BYTE	W01
	BYTE		        94*CHARGESONG_mvl/mxv
	BYTE	W01
	BYTE		        87*CHARGESONG_mvl/mxv
	BYTE	W01
	BYTE		        81*CHARGESONG_mvl/mxv
	BYTE	W01
	BYTE		        70*CHARGESONG_mvl/mxv
	BYTE	W01
	BYTE		        65*CHARGESONG_mvl/mxv
	BYTE	W01
	BYTE		        59*CHARGESONG_mvl/mxv
	BYTE	W01
	BYTE		        49*CHARGESONG_mvl/mxv
	BYTE	W01
	BYTE		        45*CHARGESONG_mvl/mxv
	BYTE	W01
	BYTE		        41*CHARGESONG_mvl/mxv
	BYTE	W01
	BYTE		        36*CHARGESONG_mvl/mxv
	BYTE	W12
	BYTE		        36*CHARGESONG_mvl/mxv
	BYTE	W01
	BYTE		        37*CHARGESONG_mvl/mxv
	BYTE	W01
	BYTE		        38*CHARGESONG_mvl/mxv
	BYTE	W01
	BYTE		        39*CHARGESONG_mvl/mxv
	BYTE	W02
	BYTE		        41*CHARGESONG_mvl/mxv
	BYTE	W01
	BYTE		        42*CHARGESONG_mvl/mxv
	BYTE	W01
	BYTE		        43*CHARGESONG_mvl/mxv
	BYTE	W01
	BYTE		        44*CHARGESONG_mvl/mxv
	BYTE	W02
	BYTE		        45*CHARGESONG_mvl/mxv
	BYTE	W01
	BYTE		        46*CHARGESONG_mvl/mxv
	BYTE	W01
	BYTE		        47*CHARGESONG_mvl/mxv
	BYTE	W01
	BYTE		        48*CHARGESONG_mvl/mxv
	BYTE	W02
	BYTE		        49*CHARGESONG_mvl/mxv
	BYTE	W01
	BYTE		        50*CHARGESONG_mvl/mxv
	BYTE	W01
	BYTE		        52*CHARGESONG_mvl/mxv
	BYTE	W01
	BYTE		        53*CHARGESONG_mvl/mxv
	BYTE	W02
	BYTE		        54*CHARGESONG_mvl/mxv
	BYTE	W01
	BYTE		        55*CHARGESONG_mvl/mxv
	BYTE	W01
	BYTE		        56*CHARGESONG_mvl/mxv
	BYTE	W01
	BYTE		        58*CHARGESONG_mvl/mxv
	BYTE	W02
	BYTE		        59*CHARGESONG_mvl/mxv
	BYTE	W01
	BYTE		        60*CHARGESONG_mvl/mxv
	BYTE	W01
	BYTE		        61*CHARGESONG_mvl/mxv
	BYTE	W01
	BYTE		        63*CHARGESONG_mvl/mxv
	BYTE	W02
	BYTE		        64*CHARGESONG_mvl/mxv
	BYTE	W01
	BYTE		        65*CHARGESONG_mvl/mxv
	BYTE	W01
	BYTE		        66*CHARGESONG_mvl/mxv
	BYTE	W01
	BYTE		        68*CHARGESONG_mvl/mxv
	BYTE	W02
	BYTE		        69*CHARGESONG_mvl/mxv
	BYTE	W01
	BYTE		        70*CHARGESONG_mvl/mxv
	BYTE	W01
	BYTE		        72*CHARGESONG_mvl/mxv
	BYTE	W01
	BYTE		        73*CHARGESONG_mvl/mxv
	BYTE	W02
	BYTE		        74*CHARGESONG_mvl/mxv
	BYTE	W01
	BYTE		        76*CHARGESONG_mvl/mxv
	BYTE	W01
	BYTE		        77*CHARGESONG_mvl/mxv
	BYTE	W01
	BYTE		        78*CHARGESONG_mvl/mxv
	BYTE	W02
	BYTE		        80*CHARGESONG_mvl/mxv
	BYTE	W01
	BYTE		        81*CHARGESONG_mvl/mxv
	BYTE	W01
	BYTE		        82*CHARGESONG_mvl/mxv
	BYTE	W01
	BYTE		        84*CHARGESONG_mvl/mxv
	BYTE	W02
	BYTE		        85*CHARGESONG_mvl/mxv
	BYTE	W01
	BYTE		        87*CHARGESONG_mvl/mxv
	BYTE	W01
	BYTE		        88*CHARGESONG_mvl/mxv
	BYTE	W01
	BYTE		        90*CHARGESONG_mvl/mxv
	BYTE	W02
	BYTE		        91*CHARGESONG_mvl/mxv
	BYTE	W01
	BYTE		        92*CHARGESONG_mvl/mxv
	BYTE	W01
	BYTE		        94*CHARGESONG_mvl/mxv
	BYTE	W01
	BYTE		        95*CHARGESONG_mvl/mxv
	BYTE	W02
	BYTE		        97*CHARGESONG_mvl/mxv
	BYTE	W01
	BYTE		        98*CHARGESONG_mvl/mxv
	BYTE	W01
	BYTE		        100*CHARGESONG_mvl/mxv
	BYTE	W01
	BYTE		        101*CHARGESONG_mvl/mxv
	BYTE	W02
	BYTE		        103*CHARGESONG_mvl/mxv
	BYTE	W01
	BYTE		        105*CHARGESONG_mvl/mxv
	BYTE	W01
	BYTE		        106*CHARGESONG_mvl/mxv
	BYTE	W01
	BYTE		        108*CHARGESONG_mvl/mxv
	BYTE	W02
	BYTE		        109*CHARGESONG_mvl/mxv
	BYTE	W01
	BYTE		        111*CHARGESONG_mvl/mxv
	BYTE	W01
// 002   ----------------------------------------
	BYTE		        112*CHARGESONG_mvl/mxv
	BYTE	W01
	BYTE		        114*CHARGESONG_mvl/mxv
	BYTE	W02
	BYTE		        116*CHARGESONG_mvl/mxv
	BYTE	W01
	BYTE		        117*CHARGESONG_mvl/mxv
	BYTE	W01
	BYTE		        119*CHARGESONG_mvl/mxv
	BYTE	W01
	BYTE		        120*CHARGESONG_mvl/mxv
	BYTE	W02
	BYTE		        122*CHARGESONG_mvl/mxv
	BYTE	W01
	BYTE		        124*CHARGESONG_mvl/mxv
	BYTE	W01
	BYTE		        125*CHARGESONG_mvl/mxv
	BYTE	W02
	BYTE		        127*CHARGESONG_mvl/mxv
	BYTE	W12
	BYTE		EOT     Dn2 
	BYTE		        Gs2 
	BYTE		N18     Cs2   v100
	BYTE		N18     Ds2 
	BYTE	W18
	BYTE		N06     Cs2 
	BYTE		N06     Fn2 
	BYTE	W18
	BYTE		        Cs2   v116
	BYTE		N06     Fn2 
	BYTE	W12
	BYTE		N12     Cs2 
	BYTE		N12     Fn2 
	BYTE	W24
// 003   ----------------------------------------
	BYTE	W96
// 004   ----------------------------------------
	BYTE	W24
CHARGESONG_1_B1:
	BYTE		N18     Ds2   v100
	BYTE		N18     Fs2 
	BYTE	W18
	BYTE		N06     Fn2 
	BYTE		N06     Gs2 
	BYTE	W18
	BYTE		        Fn2   v116
	BYTE		N06     Gs2 
	BYTE	W12
	BYTE		N12     Fn2 
	BYTE		N12     Gs2 
	BYTE	W24
// 005   ----------------------------------------
	BYTE	W96
// 006   ----------------------------------------
CHARGESONG_1_006:
	BYTE	W24
	BYTE		N12     Gs2   v100
	BYTE		N12     Cs3 
	BYTE	W18
	BYTE		        Gs2 
	BYTE		N12     Cs3 
	BYTE	W18
	BYTE		        Gs2   v116
	BYTE		N12     Dn3 
	BYTE	W12
	BYTE		        Gs2   v100
	BYTE		N12     Cs3 
	BYTE	W24
	BYTE	PEND
// 007   ----------------------------------------
	BYTE	W96
// 008   ----------------------------------------
CHARGESONG_1_008:
	BYTE	W24
	BYTE		N12     Fs2   v100
	BYTE		N12     An2 
	BYTE	W18
	BYTE		        Fn2 
	BYTE		N12     Gs2 
	BYTE	W18
	BYTE		        Fn2   v116
	BYTE		N12     Gs2 
	BYTE	W12
	BYTE		        Gs2   v100
	BYTE		N12     Cs3 
	BYTE	W24
	BYTE	PEND
// 009   ----------------------------------------
	BYTE	W96
// 010   ----------------------------------------
	BYTE	W24
	BYTE		N96     Gs2   v116
	BYTE	W72
// 011   ----------------------------------------
	BYTE	W24
	BYTE		TIE     An2 
	BYTE	W72
// 012   ----------------------------------------
	BYTE	W66
	BYTE		EOT   
	BYTE	W06
	BYTE		N48     Cs3 
	BYTE	W24
// 013   ----------------------------------------
	BYTE	W24
	BYTE		        Bn2 
	BYTE	W48
	BYTE		        An2 
	BYTE	W24
// 014   ----------------------------------------
	BYTE	W24
	BYTE		        Fs2 
	BYTE	W48
	BYTE		TIE     Gs2 
	BYTE	W24
// 015   ----------------------------------------
	BYTE	W96
// 016   ----------------------------------------
	BYTE	W66
	BYTE		EOT   
	BYTE	W06
	BYTE		N48     Cs3 
	BYTE	W24
// 017   ----------------------------------------
	BYTE	W24
	BYTE		        Dn3 
	BYTE	W48
	BYTE		        Cs3 
	BYTE	W24
// 018   ----------------------------------------
	BYTE	W24
	BYTE		TIE   
	BYTE	W72
// 019   ----------------------------------------
	BYTE	W96
// 020   ----------------------------------------
	BYTE	W66
	BYTE		EOT   
	BYTE	W06
	BYTE		N48     Bn2 
	BYTE	W24
// 021   ----------------------------------------
	BYTE	W24
	BYTE		        As2 
	BYTE	W48
	BYTE		        Bn2 
	BYTE	W24
// 022   ----------------------------------------
	BYTE	W24
	BYTE		N96     Cs3 
	BYTE	W72
// 023   ----------------------------------------
CHARGESONG_1_023:
	BYTE	W24
	BYTE		TIE     Fs3   v116
	BYTE	W72
	BYTE	PEND
// 024   ----------------------------------------
	BYTE	W96
// 025   ----------------------------------------
	BYTE	W18
	BYTE		EOT   
	BYTE	W06
	BYTE		N48   
	BYTE	W48
	BYTE		        Gn3 
	BYTE	W24
// 026   ----------------------------------------
	BYTE	PATT
	 POIN2	CHARGESONG_1_023
// 027   ----------------------------------------
	BYTE	W96
// 028   ----------------------------------------
	BYTE	W18
	BYTE		EOT     Fs3 
	BYTE	W06
	BYTE		N96     Bn2   v116
	BYTE	W72
// 029   ----------------------------------------
	BYTE	W24
	BYTE		        Cn3 
	BYTE	W72
// 030   ----------------------------------------
	BYTE	W24
	BYTE		N48     Fs2 
	BYTE	W48
	BYTE		TIE     Bn2 
	BYTE	W24
// 031   ----------------------------------------
	BYTE	W96
// 032   ----------------------------------------
	BYTE	W96
// 033   ----------------------------------------
	BYTE	W96
	BYTE		EOT   
// 034   ----------------------------------------
	BYTE	W96
// 035   ----------------------------------------
	BYTE	W96
// 036   ----------------------------------------
	BYTE	W96
// 037   ----------------------------------------
	BYTE	W96
// 038   ----------------------------------------
	BYTE	W96
// 039   ----------------------------------------
	BYTE	W96
// 040   ----------------------------------------
	BYTE	W96
// 041   ----------------------------------------
	BYTE	W96
// 042   ----------------------------------------
	BYTE	W96
// 043   ----------------------------------------
	BYTE	W96
// 044   ----------------------------------------
	BYTE	W96
// 045   ----------------------------------------
	BYTE	W96
// 046   ----------------------------------------
	BYTE	PATT
	 POIN2	CHARGESONG_1_006
// 047   ----------------------------------------
	BYTE	W96
// 048   ----------------------------------------
	BYTE	PATT
	 POIN2	CHARGESONG_1_008
// 049   ----------------------------------------
	BYTE	W96
// 050   ----------------------------------------
	BYTE	W24
	BYTE	GoTo
	 POIN2	CHARGESONG_1_B1
CHARGESONG_1_B2:
	BYTE	FINE

//**************** Track 2 (Midi-Chn.2) ****************//

CHARGESONG_2:
	BYTE	KEYSH   CHARGESONG_key+0
// 000   ----------------------------------------
	BYTE		VOICE   55
	BYTE		MODT    0
	BYTE		LFOS    44
	BYTE		VOL     116*CHARGESONG_mvl/mxv
	BYTE		PAN     c_v+16
	BYTE	W24
	BYTE		N16     Gs2   v116
	BYTE	W16
	BYTE		        Ds2 
	BYTE	W16
	BYTE		        Fs2 
	BYTE	W16
	BYTE		        En2 
	BYTE	W16
	BYTE		TIE     An1 
	BYTE	W08
// 001   ----------------------------------------
	BYTE	W96
// 002   ----------------------------------------
	BYTE	W24
	BYTE		EOT   
	BYTE		N48     Cs2 
	BYTE	W72
// 003   ----------------------------------------
	BYTE	W96
// 004   ----------------------------------------
	BYTE	W24
CHARGESONG_2_B1:
	BYTE	W72
// 005   ----------------------------------------
	BYTE	W96
// 006   ----------------------------------------
	BYTE	W96
// 007   ----------------------------------------
	BYTE	W96
// 008   ----------------------------------------
	BYTE	W96
// 009   ----------------------------------------
	BYTE	W96
// 010   ----------------------------------------
	BYTE	W96
// 011   ----------------------------------------
	BYTE	W96
// 012   ----------------------------------------
	BYTE	W96
// 013   ----------------------------------------
	BYTE	W96
// 014   ----------------------------------------
	BYTE	W96
// 015   ----------------------------------------
	BYTE	W96
// 016   ----------------------------------------
	BYTE	W96
// 017   ----------------------------------------
	BYTE	W96
// 018   ----------------------------------------
	BYTE	W96
// 019   ----------------------------------------
	BYTE	W96
// 020   ----------------------------------------
	BYTE	W96
// 021   ----------------------------------------
	BYTE	W96
// 022   ----------------------------------------
	BYTE	W96
// 023   ----------------------------------------
	BYTE	W96
// 024   ----------------------------------------
	BYTE	W96
// 025   ----------------------------------------
	BYTE	W96
// 026   ----------------------------------------
	BYTE	W96
// 027   ----------------------------------------
	BYTE	W96
// 028   ----------------------------------------
	BYTE	W96
// 029   ----------------------------------------
	BYTE	W96
// 030   ----------------------------------------
	BYTE	W96
// 031   ----------------------------------------
	BYTE	W96
// 032   ----------------------------------------
	BYTE	W96
// 033   ----------------------------------------
	BYTE	W96
// 034   ----------------------------------------
	BYTE	W96
// 035   ----------------------------------------
	BYTE	W96
// 036   ----------------------------------------
	BYTE	W96
// 037   ----------------------------------------
	BYTE	W96
// 038   ----------------------------------------
	BYTE	W96
// 039   ----------------------------------------
	BYTE	W96
// 040   ----------------------------------------
	BYTE	W96
// 041   ----------------------------------------
	BYTE	W96
// 042   ----------------------------------------
	BYTE	W96
// 043   ----------------------------------------
	BYTE	W96
// 044   ----------------------------------------
	BYTE	W96
// 045   ----------------------------------------
	BYTE	W96
// 046   ----------------------------------------
	BYTE	W96
// 047   ----------------------------------------
	BYTE	W96
// 048   ----------------------------------------
	BYTE	W96
// 049   ----------------------------------------
	BYTE	W96
// 050   ----------------------------------------
	BYTE	W24
	BYTE	GoTo
	 POIN2	CHARGESONG_2_B1
CHARGESONG_2_B2:
	BYTE	FINE

//**************** Track 3 (Midi-Chn.3) ****************//

CHARGESONG_3:
	BYTE	KEYSH   CHARGESONG_key+0
// 000   ----------------------------------------
	BYTE		VOICE   48
	BYTE		MODT    0
	BYTE		LFOS    44
	BYTE		VOL     85*CHARGESONG_mvl/mxv
	BYTE		PAN     c_v-14
	BYTE		VOL     85*CHARGESONG_mvl/mxv
	BYTE		N04     Bn3   v100
	BYTE		N04     Dn4   v116
	BYTE	W04
	BYTE		        Cn4   v088
	BYTE		N04     Ds4   v100
	BYTE	W04
	BYTE		        Cs4   v088
	BYTE		N04     En4   v100
	BYTE	W04
	BYTE		        Dn4   v092
	BYTE		N04     Fn4   v108
	BYTE	W04
	BYTE		        Ds4   v100
	BYTE		N04     Fs4   v116
	BYTE	W04
	BYTE		        En4   v108
	BYTE		N04     Gn4   v124
	BYTE	W04
	BYTE		N16     Ds4   v116
	BYTE		N16     Gs4   v124
	BYTE	W16
	BYTE		        Cn4   v088
	BYTE		N16     Ds4   v100
	BYTE	W16
	BYTE		        Ds4   v088
	BYTE		N16     Fs4   v100
	BYTE	W16
	BYTE		        Cs4   v088
	BYTE		N16     En4   v100
	BYTE	W16
	BYTE		TIE     Fs3   v088
	BYTE		TIE     An3   v116
	BYTE	W02
	BYTE		VOL     80*CHARGESONG_mvl/mxv
	BYTE	W01
	BYTE		        74*CHARGESONG_mvl/mxv
	BYTE	W01
	BYTE		        70*CHARGESONG_mvl/mxv
	BYTE	W01
	BYTE		        63*CHARGESONG_mvl/mxv
	BYTE	W01
	BYTE		        58*CHARGESONG_mvl/mxv
	BYTE	W01
	BYTE		        54*CHARGESONG_mvl/mxv
	BYTE	W01
// 001   ----------------------------------------
	BYTE		        47*CHARGESONG_mvl/mxv
	BYTE	W01
	BYTE		        43*CHARGESONG_mvl/mxv
	BYTE	W01
	BYTE		        38*CHARGESONG_mvl/mxv
	BYTE	W01
	BYTE		        32*CHARGESONG_mvl/mxv
	BYTE	W01
	BYTE		        30*CHARGESONG_mvl/mxv
	BYTE	W01
	BYTE		        27*CHARGESONG_mvl/mxv
	BYTE	W01
	BYTE		        24*CHARGESONG_mvl/mxv
	BYTE	W30
	BYTE		        24*CHARGESONG_mvl/mxv
	BYTE	W01
	BYTE		        25*CHARGESONG_mvl/mxv
	BYTE	W01
	BYTE		        25*CHARGESONG_mvl/mxv
	BYTE	W01
	BYTE		        26*CHARGESONG_mvl/mxv
	BYTE	W01
	BYTE		        27*CHARGESONG_mvl/mxv
	BYTE	W01
	BYTE		        28*CHARGESONG_mvl/mxv
	BYTE	W01
	BYTE		        28*CHARGESONG_mvl/mxv
	BYTE	W01
	BYTE		        29*CHARGESONG_mvl/mxv
	BYTE	W01
	BYTE		        30*CHARGESONG_mvl/mxv
	BYTE	W01
	BYTE		        31*CHARGESONG_mvl/mxv
	BYTE	W01
	BYTE		        31*CHARGESONG_mvl/mxv
	BYTE	W01
	BYTE		        31*CHARGESONG_mvl/mxv
	BYTE	W01
	BYTE		        32*CHARGESONG_mvl/mxv
	BYTE	W01
	BYTE		        33*CHARGESONG_mvl/mxv
	BYTE	W02
	BYTE		        34*CHARGESONG_mvl/mxv
	BYTE	W01
	BYTE		        35*CHARGESONG_mvl/mxv
	BYTE	W01
	BYTE		        35*CHARGESONG_mvl/mxv
	BYTE	W01
	BYTE		        36*CHARGESONG_mvl/mxv
	BYTE	W01
	BYTE		        37*CHARGESONG_mvl/mxv
	BYTE	W01
	BYTE		        38*CHARGESONG_mvl/mxv
	BYTE	W01
	BYTE		        38*CHARGESONG_mvl/mxv
	BYTE	W01
	BYTE		        39*CHARGESONG_mvl/mxv
	BYTE	W01
	BYTE		        41*CHARGESONG_mvl/mxv
	BYTE	W01
	BYTE		        42*CHARGESONG_mvl/mxv
	BYTE	W01
	BYTE		        43*CHARGESONG_mvl/mxv
	BYTE	W01
	BYTE		        43*CHARGESONG_mvl/mxv
	BYTE	W01
	BYTE		        44*CHARGESONG_mvl/mxv
	BYTE	W02
	BYTE		        45*CHARGESONG_mvl/mxv
	BYTE	W01
	BYTE		        46*CHARGESONG_mvl/mxv
	BYTE	W01
	BYTE		        47*CHARGESONG_mvl/mxv
	BYTE	W01
	BYTE		        47*CHARGESONG_mvl/mxv
	BYTE	W01
	BYTE		        48*CHARGESONG_mvl/mxv
	BYTE	W01
	BYTE		        49*CHARGESONG_mvl/mxv
	BYTE	W01
	BYTE		        50*CHARGESONG_mvl/mxv
	BYTE	W01
	BYTE		        52*CHARGESONG_mvl/mxv
	BYTE	W01
	BYTE		        52*CHARGESONG_mvl/mxv
	BYTE	W01
	BYTE		        53*CHARGESONG_mvl/mxv
	BYTE	W01
	BYTE		        54*CHARGESONG_mvl/mxv
	BYTE	W01
	BYTE		        55*CHARGESONG_mvl/mxv
	BYTE	W01
	BYTE		        55*CHARGESONG_mvl/mxv
	BYTE	W01
	BYTE		        56*CHARGESONG_mvl/mxv
	BYTE	W02
	BYTE		        58*CHARGESONG_mvl/mxv
	BYTE	W01
	BYTE		        59*CHARGESONG_mvl/mxv
	BYTE	W01
	BYTE		        60*CHARGESONG_mvl/mxv
	BYTE	W01
	BYTE		        60*CHARGESONG_mvl/mxv
	BYTE	W01
	BYTE		        61*CHARGESONG_mvl/mxv
	BYTE	W01
	BYTE		        63*CHARGESONG_mvl/mxv
	BYTE	W01
	BYTE		        64*CHARGESONG_mvl/mxv
	BYTE	W01
	BYTE		        65*CHARGESONG_mvl/mxv
	BYTE	W01
	BYTE		        65*CHARGESONG_mvl/mxv
	BYTE	W01
	BYTE		        66*CHARGESONG_mvl/mxv
	BYTE	W01
	BYTE		        68*CHARGESONG_mvl/mxv
	BYTE	W01
	BYTE		        69*CHARGESONG_mvl/mxv
	BYTE	W01
	BYTE		        69*CHARGESONG_mvl/mxv
	BYTE	W02
	BYTE		        70*CHARGESONG_mvl/mxv
	BYTE	W01
	BYTE		        72*CHARGESONG_mvl/mxv
	BYTE	W01
// 002   ----------------------------------------
	BYTE		        73*CHARGESONG_mvl/mxv
	BYTE	W01
	BYTE		        74*CHARGESONG_mvl/mxv
	BYTE	W01
	BYTE		        74*CHARGESONG_mvl/mxv
	BYTE	W01
	BYTE		        76*CHARGESONG_mvl/mxv
	BYTE	W01
	BYTE		        77*CHARGESONG_mvl/mxv
	BYTE	W01
	BYTE		        78*CHARGESONG_mvl/mxv
	BYTE	W01
	BYTE		        80*CHARGESONG_mvl/mxv
	BYTE	W01
	BYTE		        80*CHARGESONG_mvl/mxv
	BYTE	W01
	BYTE		        81*CHARGESONG_mvl/mxv
	BYTE	W01
	BYTE		        82*CHARGESONG_mvl/mxv
	BYTE	W01
	BYTE		        84*CHARGESONG_mvl/mxv
	BYTE	W02
	BYTE		        85*CHARGESONG_mvl/mxv
	BYTE	W04
	BYTE		EOT     Fs3 
	BYTE		        An3 
	BYTE	W80
// 003   ----------------------------------------
	BYTE	W96
// 004   ----------------------------------------
	BYTE	W24
CHARGESONG_3_B1:
	BYTE	W72
// 005   ----------------------------------------
	BYTE	W96
// 006   ----------------------------------------
	BYTE	W96
// 007   ----------------------------------------
	BYTE	W96
// 008   ----------------------------------------
	BYTE	W96
// 009   ----------------------------------------
	BYTE	W96
// 010   ----------------------------------------
	BYTE	W96
// 011   ----------------------------------------
	BYTE	W96
// 012   ----------------------------------------
	BYTE	W96
// 013   ----------------------------------------
	BYTE	W96
// 014   ----------------------------------------
	BYTE	W96
// 015   ----------------------------------------
	BYTE	W96
// 016   ----------------------------------------
	BYTE	W96
// 017   ----------------------------------------
	BYTE	W96
// 018   ----------------------------------------
	BYTE	W96
// 019   ----------------------------------------
	BYTE	W96
// 020   ----------------------------------------
	BYTE	W96
// 021   ----------------------------------------
	BYTE	W96
// 022   ----------------------------------------
	BYTE	W96
// 023   ----------------------------------------
	BYTE	W96
// 024   ----------------------------------------
	BYTE	W96
// 025   ----------------------------------------
	BYTE	W96
// 026   ----------------------------------------
	BYTE	W96
// 027   ----------------------------------------
	BYTE	W96
// 028   ----------------------------------------
	BYTE	W96
// 029   ----------------------------------------
	BYTE	W96
// 030   ----------------------------------------
	BYTE	W96
// 031   ----------------------------------------
	BYTE	W96
// 032   ----------------------------------------
	BYTE	W96
// 033   ----------------------------------------
	BYTE	W96
// 034   ----------------------------------------
	BYTE	W96
// 035   ----------------------------------------
	BYTE	W96
// 036   ----------------------------------------
	BYTE	W96
// 037   ----------------------------------------
	BYTE	W96
// 038   ----------------------------------------
	BYTE	W96
// 039   ----------------------------------------
	BYTE	W96
// 040   ----------------------------------------
	BYTE	W96
// 041   ----------------------------------------
	BYTE	W96
// 042   ----------------------------------------
	BYTE	W96
// 043   ----------------------------------------
	BYTE	W96
// 044   ----------------------------------------
	BYTE	W96
// 045   ----------------------------------------
	BYTE	W96
// 046   ----------------------------------------
	BYTE	W96
// 047   ----------------------------------------
	BYTE	W96
// 048   ----------------------------------------
	BYTE	W96
// 049   ----------------------------------------
	BYTE	W96
// 050   ----------------------------------------
	BYTE	W24
	BYTE	GoTo
	 POIN2	CHARGESONG_3_B1
CHARGESONG_3_B2:
	BYTE	FINE

//**************** Track 4 (Midi-Chn.4) ****************//

CHARGESONG_4:
	BYTE	KEYSH   CHARGESONG_key+0
// 000   ----------------------------------------
	BYTE		VOICE   48
	BYTE		MODT    0
	BYTE		LFOS    44
	BYTE		VOL     85*CHARGESONG_mvl/mxv
	BYTE		PAN     c_v+6
	BYTE		N04     Gs1   v116
	BYTE	W04
	BYTE		        Bn1   v088
	BYTE	W04
	BYTE		        Ds2 
	BYTE	W04
	BYTE		        Gs2 
	BYTE	W04
	BYTE		        Bn2   v092
	BYTE	W04
	BYTE		        Ds3   v100
	BYTE	W04
	BYTE		N64     Gs1   v088
	BYTE		N64     Gs2 
	BYTE	W64
	BYTE		TIE     Gs0   v116
	BYTE		TIE     Gs1 
	BYTE	W08
// 001   ----------------------------------------
	BYTE	W96
// 002   ----------------------------------------
	BYTE	W16
	BYTE		EOT     Gs0 
	BYTE		        Gs1 
	BYTE	W80
// 003   ----------------------------------------
	BYTE	W96
// 004   ----------------------------------------
	BYTE	W24
CHARGESONG_4_B1:
	BYTE	W72
// 005   ----------------------------------------
	BYTE	W96
// 006   ----------------------------------------
	BYTE	W96
// 007   ----------------------------------------
	BYTE	W96
// 008   ----------------------------------------
	BYTE	W96
// 009   ----------------------------------------
	BYTE	W96
// 010   ----------------------------------------
	BYTE	W96
// 011   ----------------------------------------
	BYTE	W96
// 012   ----------------------------------------
	BYTE	W96
// 013   ----------------------------------------
	BYTE	W96
// 014   ----------------------------------------
	BYTE	W96
// 015   ----------------------------------------
	BYTE	W96
// 016   ----------------------------------------
	BYTE	W96
// 017   ----------------------------------------
	BYTE	W96
// 018   ----------------------------------------
	BYTE	W96
// 019   ----------------------------------------
	BYTE	W96
// 020   ----------------------------------------
	BYTE	W96
// 021   ----------------------------------------
	BYTE	W96
// 022   ----------------------------------------
	BYTE	W96
// 023   ----------------------------------------
	BYTE	W96
// 024   ----------------------------------------
	BYTE	W96
// 025   ----------------------------------------
	BYTE	W96
// 026   ----------------------------------------
	BYTE	W96
// 027   ----------------------------------------
	BYTE	W96
// 028   ----------------------------------------
	BYTE	W96
// 029   ----------------------------------------
	BYTE	W96
// 030   ----------------------------------------
	BYTE	W96
// 031   ----------------------------------------
	BYTE	W96
// 032   ----------------------------------------
	BYTE	W96
// 033   ----------------------------------------
	BYTE	W96
// 034   ----------------------------------------
	BYTE	W96
// 035   ----------------------------------------
	BYTE	W96
// 036   ----------------------------------------
	BYTE	W96
// 037   ----------------------------------------
	BYTE	W96
// 038   ----------------------------------------
	BYTE	W96
// 039   ----------------------------------------
	BYTE	W96
// 040   ----------------------------------------
	BYTE	W96
// 041   ----------------------------------------
	BYTE	W96
// 042   ----------------------------------------
	BYTE	W96
// 043   ----------------------------------------
	BYTE	W96
// 044   ----------------------------------------
	BYTE	W96
// 045   ----------------------------------------
	BYTE	W96
// 046   ----------------------------------------
	BYTE	W96
// 047   ----------------------------------------
	BYTE	W96
// 048   ----------------------------------------
	BYTE	W96
// 049   ----------------------------------------
	BYTE	W96
// 050   ----------------------------------------
	BYTE	W24
	BYTE	GoTo
	 POIN2	CHARGESONG_4_B1
CHARGESONG_4_B2:
	BYTE	FINE

//**************** Track 5 (Midi-Chn.5) ****************//

CHARGESONG_5:
	BYTE	KEYSH   CHARGESONG_key+0
// 000   ----------------------------------------
	BYTE		VOICE   48
	BYTE		MODT    0
	BYTE		LFOS    44
	BYTE		VOL     85*CHARGESONG_mvl/mxv
	BYTE		PAN     c_v-4
	BYTE	W24
	BYTE		N16     Ds4   v108
	BYTE		N16     Gs4   v124
	BYTE	W16
	BYTE		        Cn4   v088
	BYTE		N16     Ds4   v100
	BYTE	W16
	BYTE		        Ds4   v088
	BYTE		N16     Fs4   v100
	BYTE	W16
	BYTE		        Cs4   v088
	BYTE		N16     En4   v100
	BYTE	W16
	BYTE		TIE     Fs3   v072
	BYTE		TIE     An3   v088
	BYTE	W08
// 001   ----------------------------------------
	BYTE	W96
// 002   ----------------------------------------
	BYTE	W16
	BYTE		EOT     Fs3 
	BYTE		        An3 
	BYTE	W08
	BYTE		N12     Fs3   v072
	BYTE		N12     An3 
	BYTE	W18
	BYTE		        Fn3   v060
	BYTE		N12     Gs3 
	BYTE	W18
	BYTE		        Fn3   v048
	BYTE		N12     Gs3 
	BYTE	W12
	BYTE		        Gs3   v072
	BYTE		N12     Bn3 
	BYTE	W18
	BYTE		        Fs3   v060
	BYTE		N12     An3 
	BYTE	W06
// 003   ----------------------------------------
CHARGESONG_5_003:
	BYTE	W24
	BYTE		N12     An3   v072
	BYTE		N12     Cs4 
	BYTE	W18
	BYTE		        Gs3   v060
	BYTE		N12     Bn3 
	BYTE	W18
	BYTE		        Gs3   v048
	BYTE		N12     Bn3 
	BYTE	W12
	BYTE		        Bn3   v072
	BYTE		N12     Dn4 
	BYTE	W18
	BYTE		        An3   v060
	BYTE		N12     Cs4 
	BYTE	W06
	BYTE	PEND
// 004   ----------------------------------------
	BYTE	W24
CHARGESONG_5_B1:
	BYTE		N12     Fs3   v072
	BYTE		N12     An3 
	BYTE	W18
	BYTE		        Fn3   v060
	BYTE		N12     Gs3 
	BYTE	W18
	BYTE		        Fn3   v048
	BYTE		N12     Gs3 
	BYTE	W12
	BYTE		        Gs3   v072
	BYTE		N12     Bn3 
	BYTE	W18
	BYTE		        Fs3   v060
	BYTE		N12     An3 
	BYTE	W06
// 005   ----------------------------------------
CHARGESONG_5_005:
	BYTE	W24
	BYTE		N12     An3   v072
	BYTE		N12     Cs4 
	BYTE	W18
	BYTE		        Gs3   v060
	BYTE		N12     Bn3 
	BYTE	W18
	BYTE		        Gs3   v048
	BYTE		N12     Bn3 
	BYTE	W12
	BYTE		        Bn3   v072
	BYTE		N12     Dn4 
	BYTE	W18
	BYTE		        Bn3   v048
	BYTE		N12     Dn4 
	BYTE	W06
	BYTE	PEND
// 006   ----------------------------------------
CHARGESONG_5_006:
	BYTE	W12
	BYTE		N12     An3   v048
	BYTE		N12     Cs4 
	BYTE	W12
	BYTE		        Fs3   v072
	BYTE		N12     An3 
	BYTE	W18
	BYTE		        Fn3   v060
	BYTE		N12     Gs3 
	BYTE	W18
	BYTE		        Fn3   v048
	BYTE		N12     Gs3 
	BYTE	W12
	BYTE		        Gs3   v072
	BYTE		N12     Bn3 
	BYTE	W18
	BYTE		        Fs3   v060
	BYTE		N12     An3 
	BYTE	W06
	BYTE	PEND
// 007   ----------------------------------------
	BYTE	PATT
	 POIN2	CHARGESONG_5_003
// 008   ----------------------------------------
CHARGESONG_5_008:
	BYTE	W24
	BYTE		N12     Fs3   v072
	BYTE		N12     An3 
	BYTE	W18
	BYTE		        Fn3   v060
	BYTE		N12     Gs3 
	BYTE	W18
	BYTE		        Fn3   v048
	BYTE		N12     Gs3 
	BYTE	W12
	BYTE		        Gs3   v072
	BYTE		N12     Bn3 
	BYTE	W18
	BYTE		        Fs3   v060
	BYTE		N12     An3 
	BYTE	W06
	BYTE	PEND
// 009   ----------------------------------------
	BYTE	PATT
	 POIN2	CHARGESONG_5_005
// 010   ----------------------------------------
	BYTE	PATT
	 POIN2	CHARGESONG_5_006
// 011   ----------------------------------------
	BYTE	PATT
	 POIN2	CHARGESONG_5_003
// 012   ----------------------------------------
	BYTE	PATT
	 POIN2	CHARGESONG_5_008
// 013   ----------------------------------------
	BYTE	PATT
	 POIN2	CHARGESONG_5_005
// 014   ----------------------------------------
	BYTE	PATT
	 POIN2	CHARGESONG_5_006
// 015   ----------------------------------------
	BYTE	PATT
	 POIN2	CHARGESONG_5_003
// 016   ----------------------------------------
	BYTE	PATT
	 POIN2	CHARGESONG_5_008
// 017   ----------------------------------------
	BYTE	PATT
	 POIN2	CHARGESONG_5_005
// 018   ----------------------------------------
	BYTE	W12
	BYTE		N12     An3   v048
	BYTE		N12     Cs4 
	BYTE	W12
	BYTE		        Bn3   v072
	BYTE		N12     Dn4 
	BYTE	W18
	BYTE		        As3   v060
	BYTE		N12     Cs4 
	BYTE	W18
	BYTE		        As3   v048
	BYTE		N12     Cs4 
	BYTE	W12
	BYTE		        Cs4   v072
	BYTE		N12     En4 
	BYTE	W18
	BYTE		        Bn3   v060
	BYTE		N12     Dn4 
	BYTE	W06
// 019   ----------------------------------------
CHARGESONG_5_019:
	BYTE	W24
	BYTE		N12     Dn4   v072
	BYTE		N12     Fs4 
	BYTE	W18
	BYTE		        Cs4   v060
	BYTE		N12     En4 
	BYTE	W18
	BYTE		        Cs4   v048
	BYTE		N12     En4 
	BYTE	W12
	BYTE		        En4   v072
	BYTE		N12     Gn4 
	BYTE	W18
	BYTE		        Dn4   v060
	BYTE		N12     Fs4 
	BYTE	W06
	BYTE	PEND
// 020   ----------------------------------------
CHARGESONG_5_020:
	BYTE	W24
	BYTE		N12     Bn3   v072
	BYTE		N12     Dn4 
	BYTE	W18
	BYTE		        As3   v060
	BYTE		N12     Cs4 
	BYTE	W18
	BYTE		        As3   v048
	BYTE		N12     Cs4 
	BYTE	W12
	BYTE		        Cs4   v072
	BYTE		N12     En4 
	BYTE	W18
	BYTE		        Bn3   v060
	BYTE		N12     Dn4 
	BYTE	W06
	BYTE	PEND
// 021   ----------------------------------------
CHARGESONG_5_021:
	BYTE	W24
	BYTE		N12     Dn4   v072
	BYTE		N12     Fs4 
	BYTE	W18
	BYTE		        Cs4   v060
	BYTE		N12     En4 
	BYTE	W18
	BYTE		        Cs4   v048
	BYTE		N12     En4 
	BYTE	W12
	BYTE		        En4   v072
	BYTE		N12     Gn4 
	BYTE	W18
	BYTE		        En4   v048
	BYTE		N12     Gn4 
	BYTE	W06
	BYTE	PEND
// 022   ----------------------------------------
	BYTE	W12
	BYTE		        Dn4 
	BYTE		N12     Fs4 
	BYTE	W12
	BYTE		        Bn3   v072
	BYTE		N12     Dn4 
	BYTE	W18
	BYTE		        As3   v060
	BYTE		N12     Cs4 
	BYTE	W18
	BYTE		        As3   v048
	BYTE		N12     Cs4 
	BYTE	W12
	BYTE		        Cs4   v072
	BYTE		N12     En4 
	BYTE	W18
	BYTE		        Bn3   v060
	BYTE		N12     Dn4 
	BYTE	W06
// 023   ----------------------------------------
	BYTE	PATT
	 POIN2	CHARGESONG_5_019
// 024   ----------------------------------------
	BYTE	PATT
	 POIN2	CHARGESONG_5_020
// 025   ----------------------------------------
	BYTE	PATT
	 POIN2	CHARGESONG_5_021
// 026   ----------------------------------------
	BYTE	W12
	BYTE		N12     Dn4   v048
	BYTE		N12     Fs4 
	BYTE	W12
	BYTE		        En3   v072
	BYTE		N12     Gn3 
	BYTE	W18
	BYTE		        Ds3   v060
	BYTE		N12     Fs3 
	BYTE	W18
	BYTE		        Ds3   v048
	BYTE		N12     Fs3 
	BYTE	W12
	BYTE		        Fs3   v072
	BYTE		N12     An3 
	BYTE	W18
	BYTE		        En3   v060
	BYTE		N12     Gn3 
	BYTE	W06
// 027   ----------------------------------------
CHARGESONG_5_027:
	BYTE	W24
	BYTE		N12     Gn3   v072
	BYTE		N12     Bn3 
	BYTE	W18
	BYTE		        Fs3   v060
	BYTE		N12     An3 
	BYTE	W18
	BYTE		        Fs3   v048
	BYTE		N12     An3 
	BYTE	W12
	BYTE		        An3   v072
	BYTE		N12     Cn4 
	BYTE	W18
	BYTE		        Gn3   v060
	BYTE		N12     Bn3 
	BYTE	W06
	BYTE	PEND
// 028   ----------------------------------------
CHARGESONG_5_028:
	BYTE	W24
	BYTE		N12     En3   v072
	BYTE		N12     Gn3 
	BYTE	W18
	BYTE		        Ds3   v060
	BYTE		N12     Fs3 
	BYTE	W18
	BYTE		        Ds3   v048
	BYTE		N12     Fs3 
	BYTE	W12
	BYTE		        Fs3   v072
	BYTE		N12     An3 
	BYTE	W18
	BYTE		        En3   v060
	BYTE		N12     Gn3 
	BYTE	W06
	BYTE	PEND
// 029   ----------------------------------------
CHARGESONG_5_029:
	BYTE	W24
	BYTE		N12     Gn3   v072
	BYTE		N12     Bn3 
	BYTE	W18
	BYTE		        Fs3   v060
	BYTE		N12     An3 
	BYTE	W18
	BYTE		        Fs3   v048
	BYTE		N12     An3 
	BYTE	W12
	BYTE		        An3   v072
	BYTE		N12     Cn4 
	BYTE	W18
	BYTE		        An3   v048
	BYTE		N12     Cn4 
	BYTE	W06
	BYTE	PEND
// 030   ----------------------------------------
	BYTE	W12
	BYTE		        Gn3 
	BYTE		N12     Bn3 
	BYTE	W12
	BYTE		        En3   v072
	BYTE		N12     Gn3 
	BYTE	W18
	BYTE		        Ds3   v060
	BYTE		N12     Fs3 
	BYTE	W18
	BYTE		        Ds3   v048
	BYTE		N12     Fs3 
	BYTE	W12
	BYTE		        Fs3   v072
	BYTE		N12     An3 
	BYTE	W18
	BYTE		        En3   v060
	BYTE		N12     Gn3 
	BYTE	W06
// 031   ----------------------------------------
	BYTE	PATT
	 POIN2	CHARGESONG_5_027
// 032   ----------------------------------------
	BYTE	PATT
	 POIN2	CHARGESONG_5_028
// 033   ----------------------------------------
	BYTE	PATT
	 POIN2	CHARGESONG_5_029
// 034   ----------------------------------------
	BYTE	W12
	BYTE		N12     Gn3   v048
	BYTE		N12     Bn3 
	BYTE	W84
// 035   ----------------------------------------
	BYTE	W96
// 036   ----------------------------------------
	BYTE	W96
// 037   ----------------------------------------
	BYTE	W96
// 038   ----------------------------------------
	BYTE	W96
// 039   ----------------------------------------
	BYTE	W96
// 040   ----------------------------------------
	BYTE	W96
// 041   ----------------------------------------
	BYTE	W96
// 042   ----------------------------------------
	BYTE	PATT
	 POIN2	CHARGESONG_5_008
// 043   ----------------------------------------
	BYTE	PATT
	 POIN2	CHARGESONG_5_003
// 044   ----------------------------------------
	BYTE	PATT
	 POIN2	CHARGESONG_5_008
// 045   ----------------------------------------
	BYTE	PATT
	 POIN2	CHARGESONG_5_005
// 046   ----------------------------------------
	BYTE	PATT
	 POIN2	CHARGESONG_5_006
// 047   ----------------------------------------
	BYTE	PATT
	 POIN2	CHARGESONG_5_003
// 048   ----------------------------------------
	BYTE	PATT
	 POIN2	CHARGESONG_5_008
// 049   ----------------------------------------
	BYTE	PATT
	 POIN2	CHARGESONG_5_005
// 050   ----------------------------------------
	BYTE	W12
	BYTE		N12     An3   v048
	BYTE		N12     Cs4 
	BYTE	W12
	BYTE	GoTo
	 POIN2	CHARGESONG_5_B1
CHARGESONG_5_B2:
	BYTE	FINE

//**************** Track 6 (Midi-Chn.6) ****************//

CHARGESONG_6:
	BYTE	KEYSH   CHARGESONG_key+0
// 000   ----------------------------------------
	BYTE		VOICE   1
	BYTE		MODT    0
	BYTE		LFOS    44
	BYTE		VOL     66*CHARGESONG_mvl/mxv
	BYTE		PAN     c_v+0
	BYTE	W96
// 001   ----------------------------------------
	BYTE	W96
// 002   ----------------------------------------
	BYTE	W96
// 003   ----------------------------------------
	BYTE	W96
// 004   ----------------------------------------
	BYTE	W24
CHARGESONG_6_B1:
	BYTE	W72
// 005   ----------------------------------------
	BYTE	W96
// 006   ----------------------------------------
CHARGESONG_6_006:
	BYTE	W24
	BYTE		N12     Gs2   v116
	BYTE		N12     Cs3 
	BYTE	W18
	BYTE		        Gs2   v100
	BYTE		N12     Cs3 
	BYTE	W18
	BYTE		N06     Gs2   v116
	BYTE		N06     Dn3 
	BYTE	W12
	BYTE		N18     Gs2   v100
	BYTE		N18     Cs3 
	BYTE	W24
	BYTE	PEND
// 007   ----------------------------------------
	BYTE	W96
// 008   ----------------------------------------
CHARGESONG_6_008:
	BYTE	W24
	BYTE		N12     Fs3   v100
	BYTE		N12     An3 
	BYTE	W18
	BYTE		        Fn3   v088
	BYTE		N12     Gs3 
	BYTE	W18
	BYTE		N06     Fn3   v100
	BYTE		N06     Gs3 
	BYTE	W12
	BYTE		N18   
	BYTE		N18     Cs4 
	BYTE	W24
	BYTE	PEND
// 009   ----------------------------------------
	BYTE	W96
// 010   ----------------------------------------
	BYTE	PATT
	 POIN2	CHARGESONG_6_006
// 011   ----------------------------------------
	BYTE	W96
// 012   ----------------------------------------
	BYTE	PATT
	 POIN2	CHARGESONG_6_008
// 013   ----------------------------------------
	BYTE	W96
// 014   ----------------------------------------
	BYTE	PATT
	 POIN2	CHARGESONG_6_006
// 015   ----------------------------------------
	BYTE	W96
// 016   ----------------------------------------
	BYTE	PATT
	 POIN2	CHARGESONG_6_008
// 017   ----------------------------------------
	BYTE	W96
// 018   ----------------------------------------
CHARGESONG_6_018:
	BYTE	W24
	BYTE		N12     Cs3   v116
	BYTE		N12     Fs3 
	BYTE	W18
	BYTE		        Cs3   v100
	BYTE		N12     Fs3 
	BYTE	W18
	BYTE		N06     Cs3   v116
	BYTE		N06     Gn3 
	BYTE	W12
	BYTE		N18     Cs3   v100
	BYTE		N18     Fs3 
	BYTE	W24
	BYTE	PEND
// 019   ----------------------------------------
	BYTE	W96
// 020   ----------------------------------------
CHARGESONG_6_020:
	BYTE	W24
	BYTE		N12     Bn3   v100
	BYTE		N12     Dn4 
	BYTE	W18
	BYTE		        As3   v088
	BYTE		N12     Cs4 
	BYTE	W18
	BYTE		N06     As3   v100
	BYTE		N06     Cs4 
	BYTE	W12
	BYTE		N18   
	BYTE		N18     Fs4 
	BYTE	W24
	BYTE	PEND
// 021   ----------------------------------------
	BYTE	W96
// 022   ----------------------------------------
	BYTE	PATT
	 POIN2	CHARGESONG_6_018
// 023   ----------------------------------------
	BYTE	W96
// 024   ----------------------------------------
	BYTE	PATT
	 POIN2	CHARGESONG_6_020
// 025   ----------------------------------------
	BYTE	W96
// 026   ----------------------------------------
CHARGESONG_6_026:
	BYTE	W24
	BYTE		N12     Fs2   v116
	BYTE		N12     Bn2 
	BYTE	W18
	BYTE		        Fs2   v100
	BYTE		N12     Bn2 
	BYTE	W18
	BYTE		N06     Fs2   v116
	BYTE		N06     Cn3 
	BYTE	W12
	BYTE		N18     Fs2   v100
	BYTE		N18     Bn2 
	BYTE	W24
	BYTE	PEND
// 027   ----------------------------------------
	BYTE	W96
// 028   ----------------------------------------
CHARGESONG_6_028:
	BYTE	W24
	BYTE		N12     En3   v100
	BYTE		N12     Gn3 
	BYTE	W18
	BYTE		        Ds3   v088
	BYTE		N12     Fs3 
	BYTE	W18
	BYTE		N06     Ds3   v100
	BYTE		N06     Fs3 
	BYTE	W12
	BYTE		N18   
	BYTE		N18     Bn3 
	BYTE	W24
	BYTE	PEND
// 029   ----------------------------------------
	BYTE	W96
// 030   ----------------------------------------
	BYTE	PATT
	 POIN2	CHARGESONG_6_026
// 031   ----------------------------------------
	BYTE	W96
// 032   ----------------------------------------
	BYTE	PATT
	 POIN2	CHARGESONG_6_028
// 033   ----------------------------------------
	BYTE	W96
// 034   ----------------------------------------
	BYTE	W96
// 035   ----------------------------------------
	BYTE	W96
// 036   ----------------------------------------
	BYTE	W96
// 037   ----------------------------------------
	BYTE	W96
// 038   ----------------------------------------
	BYTE	W96
// 039   ----------------------------------------
	BYTE	W96
// 040   ----------------------------------------
	BYTE	W96
// 041   ----------------------------------------
	BYTE	W96
// 042   ----------------------------------------
	BYTE	W96
// 043   ----------------------------------------
	BYTE	W96
// 044   ----------------------------------------
	BYTE	W96
// 045   ----------------------------------------
	BYTE	W96
// 046   ----------------------------------------
	BYTE	PATT
	 POIN2	CHARGESONG_6_006
// 047   ----------------------------------------
	BYTE	W96
// 048   ----------------------------------------
	BYTE	PATT
	 POIN2	CHARGESONG_6_008
// 049   ----------------------------------------
	BYTE	W96
// 050   ----------------------------------------
	BYTE	W24
	BYTE	GoTo
	 POIN2	CHARGESONG_6_B1
CHARGESONG_6_B2:
	BYTE	FINE

//**************** Track 7 (Midi-Chn.7) ****************//

CHARGESONG_7:
	BYTE	KEYSH   CHARGESONG_key+0
// 000   ----------------------------------------
	BYTE		VOICE   1
	BYTE		MODT    0
	BYTE		LFOS    44
	BYTE		VOL     72*CHARGESONG_mvl/mxv
	BYTE		PAN     c_v-4
	BYTE	W96
// 001   ----------------------------------------
	BYTE	W96
// 002   ----------------------------------------
	BYTE	W96
// 003   ----------------------------------------
	BYTE	W96
// 004   ----------------------------------------
	BYTE	W24
CHARGESONG_7_B1:
	BYTE	W72
// 005   ----------------------------------------
	BYTE	W96
// 006   ----------------------------------------
	BYTE	W96
// 007   ----------------------------------------
CHARGESONG_7_007:
	BYTE	W24
	BYTE		TIE     Cs0   v116
	BYTE		TIE     Cs1 
	BYTE	W72
	BYTE	PEND
// 008   ----------------------------------------
	BYTE	W96
// 009   ----------------------------------------
	BYTE	W24
	BYTE		EOT     Cs0 
	BYTE		        Cs1 
	BYTE	W72
// 010   ----------------------------------------
	BYTE	W96
// 011   ----------------------------------------
	BYTE	PATT
	 POIN2	CHARGESONG_7_007
// 012   ----------------------------------------
	BYTE	W96
// 013   ----------------------------------------
	BYTE	W24
	BYTE		EOT     Cs0 
	BYTE		        Cs1 
	BYTE	W72
// 014   ----------------------------------------
	BYTE	W96
// 015   ----------------------------------------
	BYTE	PATT
	 POIN2	CHARGESONG_7_007
// 016   ----------------------------------------
	BYTE	W96
// 017   ----------------------------------------
	BYTE	W24
	BYTE		EOT     Cs0 
	BYTE		        Cs1 
	BYTE	W72
// 018   ----------------------------------------
	BYTE	W96
// 019   ----------------------------------------
CHARGESONG_7_019:
	BYTE	W24
	BYTE		TIE     Fs0   v116
	BYTE		TIE     Fs1 
	BYTE	W72
	BYTE	PEND
// 020   ----------------------------------------
	BYTE	W96
// 021   ----------------------------------------
	BYTE	W24
	BYTE		EOT     Fs0 
	BYTE		        Fs1 
	BYTE	W72
// 022   ----------------------------------------
	BYTE	W96
// 023   ----------------------------------------
	BYTE	PATT
	 POIN2	CHARGESONG_7_019
// 024   ----------------------------------------
	BYTE	W96
// 025   ----------------------------------------
	BYTE	W24
	BYTE		EOT     Fs0 
	BYTE		        Fs1 
	BYTE	W72
// 026   ----------------------------------------
	BYTE	W96
// 027   ----------------------------------------
CHARGESONG_7_027:
	BYTE	W24
	BYTE		TIE     BnM1  v116
	BYTE		TIE     Bn0 
	BYTE	W72
	BYTE	PEND
// 028   ----------------------------------------
	BYTE	W96
// 029   ----------------------------------------
	BYTE	W24
	BYTE		EOT     BnM1
	BYTE		        Bn0 
	BYTE	W72
// 030   ----------------------------------------
	BYTE	W96
// 031   ----------------------------------------
	BYTE	PATT
	 POIN2	CHARGESONG_7_027
// 032   ----------------------------------------
	BYTE	W96
// 033   ----------------------------------------
	BYTE	W24
	BYTE		EOT     BnM1
	BYTE		        Bn0 
	BYTE	W72
// 034   ----------------------------------------
	BYTE	W24
	BYTE		N06     Bn0   v116
	BYTE	W06
	BYTE		        Cn1 
	BYTE	W06
	BYTE		        Ds1 
	BYTE	W06
	BYTE		        Fs1 
	BYTE	W06
	BYTE		        Ds1 
	BYTE	W06
	BYTE		        Bn0 
	BYTE	W06
	BYTE		        Cn1 
	BYTE	W36
// 035   ----------------------------------------
	BYTE	W96
// 036   ----------------------------------------
	BYTE	W30
	BYTE		        Cn2   v108
	BYTE	W06
	BYTE		        Bn1 
	BYTE	W06
	BYTE		        Fs1   v116
	BYTE	W06
	BYTE		        Gn1 
	BYTE	W06
	BYTE		        Ds1 
	BYTE	W06
	BYTE		        En1 
	BYTE	W36
// 037   ----------------------------------------
	BYTE	W96
// 038   ----------------------------------------
CHARGESONG_7_038:
	BYTE	W24
	BYTE		N06     Cs1   v116
	BYTE	W06
	BYTE		        Dn1 
	BYTE	W06
	BYTE		        Fn1 
	BYTE	W06
	BYTE		        Gs1 
	BYTE	W06
	BYTE		        Fn1 
	BYTE	W06
	BYTE		        Cn1 
	BYTE	W06
	BYTE		        Cs1 
	BYTE	W36
	BYTE	PEND
// 039   ----------------------------------------
	BYTE	W96
// 040   ----------------------------------------
CHARGESONG_7_040:
	BYTE	W30
	BYTE		N06     Dn2   v108
	BYTE	W06
	BYTE		        Cs2 
	BYTE	W06
	BYTE		        Gs1   v116
	BYTE	W06
	BYTE		        An1 
	BYTE	W06
	BYTE		        Fn1 
	BYTE	W06
	BYTE		        Fs1 
	BYTE	W06
	BYTE		        Cs1 
	BYTE	W30
	BYTE	PEND
// 041   ----------------------------------------
	BYTE	W96
// 042   ----------------------------------------
	BYTE	PATT
	 POIN2	CHARGESONG_7_038
// 043   ----------------------------------------
	BYTE	W96
// 044   ----------------------------------------
	BYTE	PATT
	 POIN2	CHARGESONG_7_040
// 045   ----------------------------------------
	BYTE	W96
// 046   ----------------------------------------
	BYTE	W96
// 047   ----------------------------------------
	BYTE	W24
	BYTE		TIE     Cs0   v108
	BYTE		TIE     Cs1 
	BYTE	W72
// 048   ----------------------------------------
	BYTE	W96
// 049   ----------------------------------------
	BYTE	W24
	BYTE		EOT     Cs0 
	BYTE		        Cs1 
	BYTE	W72
// 050   ----------------------------------------
	BYTE	W24
	BYTE	GoTo
	 POIN2	CHARGESONG_7_B1
CHARGESONG_7_B2:
	BYTE	FINE

//**************** Track 8 (Midi-Chn.8) ****************//

CHARGESONG_8:
	BYTE	KEYSH   CHARGESONG_key+0
// 000   ----------------------------------------
	BYTE		VOICE   52
	BYTE		MODT    0
	BYTE		LFOS    44
	BYTE		VOL     94*CHARGESONG_mvl/mxv
	BYTE		PAN     c_v+0
	BYTE		VOL     94*CHARGESONG_mvl/mxv
	BYTE	W96
// 001   ----------------------------------------
	BYTE	W96
// 002   ----------------------------------------
	BYTE	W96
// 003   ----------------------------------------
	BYTE	W96
// 004   ----------------------------------------
	BYTE	W24
CHARGESONG_8_B1:
	BYTE		VOL     94*CHARGESONG_mvl/mxv
	BYTE	W72
// 005   ----------------------------------------
	BYTE	W96
// 006   ----------------------------------------
	BYTE	W96
// 007   ----------------------------------------
	BYTE	W96
// 008   ----------------------------------------
	BYTE	W96
// 009   ----------------------------------------
	BYTE	W96
// 010   ----------------------------------------
	BYTE	W24
	BYTE		        94*CHARGESONG_mvl/mxv
	BYTE		TIE     Gs2   v100
	BYTE		TIE     Cs3 
	BYTE	W72
// 011   ----------------------------------------
	BYTE	W96
// 012   ----------------------------------------
	BYTE	W96
// 013   ----------------------------------------
	BYTE	W96
// 014   ----------------------------------------
	BYTE	W22
	BYTE		EOT     Gs2 
	BYTE		        Cs3 
	BYTE	W02
	BYTE		TIE     Gs2 
	BYTE		TIE     Cs3 
	BYTE	W72
// 015   ----------------------------------------
	BYTE	W96
// 016   ----------------------------------------
	BYTE	W96
// 017   ----------------------------------------
	BYTE	W96
// 018   ----------------------------------------
	BYTE	W22
	BYTE		EOT     Gs2 
	BYTE		        Cs3 
	BYTE	W02
	BYTE		TIE     Fs2 
	BYTE		TIE     Cs3 
	BYTE	W72
// 019   ----------------------------------------
	BYTE	W96
// 020   ----------------------------------------
	BYTE	W96
// 021   ----------------------------------------
	BYTE	W96
// 022   ----------------------------------------
	BYTE	W22
	BYTE		EOT     Fs2 
	BYTE		        Cs3 
	BYTE	W02
	BYTE		TIE     Fs2 
	BYTE		TIE     Cs3 
	BYTE	W72
// 023   ----------------------------------------
	BYTE	W96
// 024   ----------------------------------------
	BYTE	W96
// 025   ----------------------------------------
	BYTE	W96
// 026   ----------------------------------------
	BYTE	W22
	BYTE		EOT     Fs2 
	BYTE		        Cs3 
	BYTE	W02
	BYTE		TIE     Fs2 
	BYTE		TIE     Bn2 
	BYTE	W72
// 027   ----------------------------------------
	BYTE	W96
// 028   ----------------------------------------
	BYTE	W96
// 029   ----------------------------------------
	BYTE	W96
// 030   ----------------------------------------
	BYTE	W22
	BYTE		EOT     Fs2 
	BYTE		        Bn2 
	BYTE	W02
	BYTE		TIE     Fs2 
	BYTE		TIE     Bn2 
	BYTE	W72
// 031   ----------------------------------------
	BYTE	W96
// 032   ----------------------------------------
	BYTE	W96
// 033   ----------------------------------------
	BYTE	W96
// 034   ----------------------------------------
	BYTE	W22
	BYTE		EOT     Fs2 
	BYTE		        Bn2 
	BYTE	W72
	BYTE	W02
// 035   ----------------------------------------
	BYTE	W96
// 036   ----------------------------------------
	BYTE	W96
// 037   ----------------------------------------
	BYTE	W24
	BYTE		VOL     27*CHARGESONG_mvl/mxv
	BYTE		N96     Fs2 
	BYTE		N96     Dn3 
	BYTE	W01
	BYTE		VOL     27*CHARGESONG_mvl/mxv
	BYTE	W01
	BYTE		        28*CHARGESONG_mvl/mxv
	BYTE	W01
	BYTE		        29*CHARGESONG_mvl/mxv
	BYTE	W01
	BYTE		        30*CHARGESONG_mvl/mxv
	BYTE	W01
	BYTE		        31*CHARGESONG_mvl/mxv
	BYTE	W01
	BYTE		        31*CHARGESONG_mvl/mxv
	BYTE	W01
	BYTE		        31*CHARGESONG_mvl/mxv
	BYTE	W01
	BYTE		        32*CHARGESONG_mvl/mxv
	BYTE	W01
	BYTE		        33*CHARGESONG_mvl/mxv
	BYTE	W01
	BYTE		        34*CHARGESONG_mvl/mxv
	BYTE	W01
	BYTE		        35*CHARGESONG_mvl/mxv
	BYTE	W01
	BYTE		        36*CHARGESONG_mvl/mxv
	BYTE	W01
	BYTE		        36*CHARGESONG_mvl/mxv
	BYTE	W02
	BYTE		        37*CHARGESONG_mvl/mxv
	BYTE	W01
	BYTE		        38*CHARGESONG_mvl/mxv
	BYTE	W01
	BYTE		        39*CHARGESONG_mvl/mxv
	BYTE	W01
	BYTE		        41*CHARGESONG_mvl/mxv
	BYTE	W01
	BYTE		        42*CHARGESONG_mvl/mxv
	BYTE	W01
	BYTE		        42*CHARGESONG_mvl/mxv
	BYTE	W01
	BYTE		        43*CHARGESONG_mvl/mxv
	BYTE	W01
	BYTE		        44*CHARGESONG_mvl/mxv
	BYTE	W01
	BYTE		        45*CHARGESONG_mvl/mxv
	BYTE	W01
	BYTE		        46*CHARGESONG_mvl/mxv
	BYTE	W01
	BYTE		        47*CHARGESONG_mvl/mxv
	BYTE	W01
	BYTE		        47*CHARGESONG_mvl/mxv
	BYTE	W01
	BYTE		        48*CHARGESONG_mvl/mxv
	BYTE	W02
	BYTE		        49*CHARGESONG_mvl/mxv
	BYTE	W01
	BYTE		        50*CHARGESONG_mvl/mxv
	BYTE	W01
	BYTE		        52*CHARGESONG_mvl/mxv
	BYTE	W01
	BYTE		        53*CHARGESONG_mvl/mxv
	BYTE	W01
	BYTE		        53*CHARGESONG_mvl/mxv
	BYTE	W01
	BYTE		        54*CHARGESONG_mvl/mxv
	BYTE	W01
	BYTE		        55*CHARGESONG_mvl/mxv
	BYTE	W01
	BYTE		        56*CHARGESONG_mvl/mxv
	BYTE	W01
	BYTE		        58*CHARGESONG_mvl/mxv
	BYTE	W01
	BYTE		        59*CHARGESONG_mvl/mxv
	BYTE	W01
	BYTE		        59*CHARGESONG_mvl/mxv
	BYTE	W01
	BYTE		        60*CHARGESONG_mvl/mxv
	BYTE	W01
	BYTE		        61*CHARGESONG_mvl/mxv
	BYTE	W01
	BYTE		        63*CHARGESONG_mvl/mxv
	BYTE	W02
	BYTE		        64*CHARGESONG_mvl/mxv
	BYTE	W01
	BYTE		        65*CHARGESONG_mvl/mxv
	BYTE	W01
	BYTE		        65*CHARGESONG_mvl/mxv
	BYTE	W01
	BYTE		        66*CHARGESONG_mvl/mxv
	BYTE	W01
	BYTE		        68*CHARGESONG_mvl/mxv
	BYTE	W01
	BYTE		        69*CHARGESONG_mvl/mxv
	BYTE	W01
	BYTE		        70*CHARGESONG_mvl/mxv
	BYTE	W01
	BYTE		        72*CHARGESONG_mvl/mxv
	BYTE	W01
	BYTE		        72*CHARGESONG_mvl/mxv
	BYTE	W01
	BYTE		        73*CHARGESONG_mvl/mxv
	BYTE	W01
	BYTE		        74*CHARGESONG_mvl/mxv
	BYTE	W01
	BYTE		        76*CHARGESONG_mvl/mxv
	BYTE	W01
	BYTE		        77*CHARGESONG_mvl/mxv
	BYTE	W02
	BYTE		        78*CHARGESONG_mvl/mxv
	BYTE	W01
	BYTE		        78*CHARGESONG_mvl/mxv
	BYTE	W01
	BYTE		        80*CHARGESONG_mvl/mxv
	BYTE	W01
	BYTE		        81*CHARGESONG_mvl/mxv
	BYTE	W01
	BYTE		        82*CHARGESONG_mvl/mxv
	BYTE	W01
	BYTE		        84*CHARGESONG_mvl/mxv
	BYTE	W01
	BYTE		        85*CHARGESONG_mvl/mxv
	BYTE	W01
	BYTE		        85*CHARGESONG_mvl/mxv
	BYTE	W01
	BYTE		        87*CHARGESONG_mvl/mxv
	BYTE	W01
	BYTE		        88*CHARGESONG_mvl/mxv
	BYTE	W01
	BYTE		        90*CHARGESONG_mvl/mxv
	BYTE	W01
	BYTE		        91*CHARGESONG_mvl/mxv
	BYTE	W01
	BYTE		        92*CHARGESONG_mvl/mxv
	BYTE	W02
// 038   ----------------------------------------
	BYTE		        94*CHARGESONG_mvl/mxv
	BYTE	W24
	BYTE		TIE     Gs2   v088
	BYTE		TIE     Cs3 
	BYTE	W72
// 039   ----------------------------------------
	BYTE	W96
// 040   ----------------------------------------
	BYTE	W96
// 041   ----------------------------------------
	BYTE	W96
// 042   ----------------------------------------
	BYTE	W22
	BYTE		EOT     Gs2 
	BYTE		        Cs3 
	BYTE	W02
	BYTE		TIE     Gs2   v100
	BYTE		TIE     Cs3 
	BYTE	W72
// 043   ----------------------------------------
	BYTE	W96
// 044   ----------------------------------------
	BYTE	W96
// 045   ----------------------------------------
	BYTE	W96
// 046   ----------------------------------------
	BYTE	W22
	BYTE		EOT     Gs2 
	BYTE		        Cs3 
	BYTE	W02
	BYTE		VOL     0*CHARGESONG_mvl/mxv
	BYTE		TIE     Gs2 
	BYTE		TIE     Cs3 
	BYTE	W72
// 047   ----------------------------------------
	BYTE	W24
	BYTE		VOL     92*CHARGESONG_mvl/mxv
	BYTE	W04
	BYTE		        91*CHARGESONG_mvl/mxv
	BYTE	W01
	BYTE		        90*CHARGESONG_mvl/mxv
	BYTE	W04
	BYTE		        87*CHARGESONG_mvl/mxv
	BYTE	W04
	BYTE		        85*CHARGESONG_mvl/mxv
	BYTE	W01
	BYTE		        85*CHARGESONG_mvl/mxv
	BYTE	W04
	BYTE		        82*CHARGESONG_mvl/mxv
	BYTE	W04
	BYTE		        81*CHARGESONG_mvl/mxv
	BYTE	W01
	BYTE		        80*CHARGESONG_mvl/mxv
	BYTE	W04
	BYTE		        78*CHARGESONG_mvl/mxv
	BYTE	W04
	BYTE		        77*CHARGESONG_mvl/mxv
	BYTE	W01
	BYTE		        76*CHARGESONG_mvl/mxv
	BYTE	W04
	BYTE		        74*CHARGESONG_mvl/mxv
	BYTE	W01
	BYTE		        73*CHARGESONG_mvl/mxv
	BYTE	W03
	BYTE		        72*CHARGESONG_mvl/mxv
	BYTE	W01
	BYTE		        72*CHARGESONG_mvl/mxv
	BYTE	W04
	BYTE		        70*CHARGESONG_mvl/mxv
	BYTE	W01
	BYTE		        69*CHARGESONG_mvl/mxv
	BYTE	W03
	BYTE		        68*CHARGESONG_mvl/mxv
	BYTE	W01
	BYTE		        66*CHARGESONG_mvl/mxv
	BYTE	W04
	BYTE		        65*CHARGESONG_mvl/mxv
	BYTE	W01
	BYTE		        65*CHARGESONG_mvl/mxv
	BYTE	W03
	BYTE		        64*CHARGESONG_mvl/mxv
	BYTE	W01
	BYTE		        63*CHARGESONG_mvl/mxv
	BYTE	W04
	BYTE		        61*CHARGESONG_mvl/mxv
	BYTE	W01
	BYTE		        60*CHARGESONG_mvl/mxv
	BYTE	W04
	BYTE		        59*CHARGESONG_mvl/mxv
	BYTE	W04
// 048   ----------------------------------------
	BYTE		        58*CHARGESONG_mvl/mxv
	BYTE	W01
	BYTE		        56*CHARGESONG_mvl/mxv
	BYTE	W04
	BYTE		        54*CHARGESONG_mvl/mxv
	BYTE	W04
	BYTE		        53*CHARGESONG_mvl/mxv
	BYTE	W01
	BYTE		        53*CHARGESONG_mvl/mxv
	BYTE	W04
	BYTE		        50*CHARGESONG_mvl/mxv
	BYTE	W04
	BYTE		        49*CHARGESONG_mvl/mxv
	BYTE	W01
	BYTE		        48*CHARGESONG_mvl/mxv
	BYTE	W04
	BYTE		        47*CHARGESONG_mvl/mxv
	BYTE	W04
	BYTE		        46*CHARGESONG_mvl/mxv
	BYTE	W01
	BYTE		        45*CHARGESONG_mvl/mxv
	BYTE	W04
	BYTE		        44*CHARGESONG_mvl/mxv
	BYTE	W01
	BYTE		        43*CHARGESONG_mvl/mxv
	BYTE	W03
	BYTE		        42*CHARGESONG_mvl/mxv
	BYTE	W01
	BYTE		        42*CHARGESONG_mvl/mxv
	BYTE	W04
	BYTE		        41*CHARGESONG_mvl/mxv
	BYTE	W01
	BYTE		        39*CHARGESONG_mvl/mxv
	BYTE	W03
	BYTE		        38*CHARGESONG_mvl/mxv
	BYTE	W01
	BYTE		        37*CHARGESONG_mvl/mxv
	BYTE	W04
	BYTE		        36*CHARGESONG_mvl/mxv
	BYTE	W01
	BYTE		        36*CHARGESONG_mvl/mxv
	BYTE	W03
	BYTE		        35*CHARGESONG_mvl/mxv
	BYTE	W01
	BYTE		        34*CHARGESONG_mvl/mxv
	BYTE	W04
	BYTE		        33*CHARGESONG_mvl/mxv
	BYTE	W01
	BYTE		        32*CHARGESONG_mvl/mxv
	BYTE	W04
	BYTE		        31*CHARGESONG_mvl/mxv
	BYTE	W04
	BYTE		        31*CHARGESONG_mvl/mxv
	BYTE	W01
	BYTE		        30*CHARGESONG_mvl/mxv
	BYTE	W04
	BYTE		        28*CHARGESONG_mvl/mxv
	BYTE	W04
	BYTE		        27*CHARGESONG_mvl/mxv
	BYTE	W01
	BYTE		        27*CHARGESONG_mvl/mxv
	BYTE	W04
	BYTE		        25*CHARGESONG_mvl/mxv
	BYTE	W04
	BYTE		        24*CHARGESONG_mvl/mxv
	BYTE	W01
	BYTE		        23*CHARGESONG_mvl/mxv
	BYTE	W04
	BYTE		        23*CHARGESONG_mvl/mxv
	BYTE	W01
	BYTE		        23*CHARGESONG_mvl/mxv
	BYTE	W03
	BYTE		        22*CHARGESONG_mvl/mxv
	BYTE	W01
// 049   ----------------------------------------
	BYTE		        21*CHARGESONG_mvl/mxv
	BYTE	W04
	BYTE		        20*CHARGESONG_mvl/mxv
	BYTE	W01
	BYTE		        19*CHARGESONG_mvl/mxv
	BYTE	W03
	BYTE		        19*CHARGESONG_mvl/mxv
	BYTE	W01
	BYTE		        19*CHARGESONG_mvl/mxv
	BYTE	W04
	BYTE		        18*CHARGESONG_mvl/mxv
	BYTE	W01
	BYTE		        17*CHARGESONG_mvl/mxv
	BYTE	W03
	BYTE		        16*CHARGESONG_mvl/mxv
	BYTE	W01
	BYTE		        16*CHARGESONG_mvl/mxv
	BYTE	W04
	BYTE		        15*CHARGESONG_mvl/mxv
	BYTE	W01
	BYTE		        15*CHARGESONG_mvl/mxv
	BYTE	W04
	BYTE		        13*CHARGESONG_mvl/mxv
	BYTE	W04
	BYTE		        13*CHARGESONG_mvl/mxv
	BYTE	W01
	BYTE		        12*CHARGESONG_mvl/mxv
	BYTE	W04
	BYTE		        11*CHARGESONG_mvl/mxv
	BYTE	W04
	BYTE		        11*CHARGESONG_mvl/mxv
	BYTE	W01
	BYTE		        10*CHARGESONG_mvl/mxv
	BYTE	W04
	BYTE		        9*CHARGESONG_mvl/mxv
	BYTE	W04
	BYTE		        8*CHARGESONG_mvl/mxv
	BYTE	W01
	BYTE		        8*CHARGESONG_mvl/mxv
	BYTE	W04
	BYTE		        7*CHARGESONG_mvl/mxv
	BYTE	W04
	BYTE		        7*CHARGESONG_mvl/mxv
	BYTE	W01
	BYTE		        6*CHARGESONG_mvl/mxv
	BYTE	W04
	BYTE		        6*CHARGESONG_mvl/mxv
	BYTE	W01
	BYTE		        6*CHARGESONG_mvl/mxv
	BYTE	W03
	BYTE		        5*CHARGESONG_mvl/mxv
	BYTE	W01
	BYTE		        5*CHARGESONG_mvl/mxv
	BYTE	W04
	BYTE		        4*CHARGESONG_mvl/mxv
	BYTE	W01
	BYTE		        4*CHARGESONG_mvl/mxv
	BYTE	W03
	BYTE		        4*CHARGESONG_mvl/mxv
	BYTE	W01
	BYTE		        4*CHARGESONG_mvl/mxv
	BYTE	W04
	BYTE		        3*CHARGESONG_mvl/mxv
	BYTE	W01
	BYTE		        3*CHARGESONG_mvl/mxv
	BYTE	W03
	BYTE		        2*CHARGESONG_mvl/mxv
	BYTE	W01
	BYTE		        2*CHARGESONG_mvl/mxv
	BYTE	W04
	BYTE		        2*CHARGESONG_mvl/mxv
	BYTE	W01
	BYTE		        2*CHARGESONG_mvl/mxv
	BYTE	W04
	BYTE		        1*CHARGESONG_mvl/mxv
	BYTE	W01
// 050   ----------------------------------------
	BYTE	W03
	BYTE		        1*CHARGESONG_mvl/mxv
	BYTE	W01
	BYTE		        1*CHARGESONG_mvl/mxv
	BYTE	W04
	BYTE		        1*CHARGESONG_mvl/mxv
	BYTE	W04
	BYTE		        0*CHARGESONG_mvl/mxv
	BYTE	W01
	BYTE		        0*CHARGESONG_mvl/mxv
	BYTE	W04
	BYTE		        0*CHARGESONG_mvl/mxv
	BYTE	W04
	BYTE		        0*CHARGESONG_mvl/mxv
	BYTE	W01
	BYTE		EOT     Gs2 
	BYTE		        Cs3 
	BYTE		VOL     0*CHARGESONG_mvl/mxv
	BYTE	W02
	BYTE	GoTo
	 POIN2	CHARGESONG_8_B1
CHARGESONG_8_B2:
	BYTE	FINE

//**************** Track 9 (Midi-Chn.9) ****************//

CHARGESONG_9:
	BYTE	KEYSH   CHARGESONG_key+0
// 000   ----------------------------------------
	BYTE		VOICE   48
	BYTE		MODT    0
	BYTE		LFOS    44
	BYTE		VOL     85*CHARGESONG_mvl/mxv
	BYTE		PAN     c_v+6
	BYTE	W96
// 001   ----------------------------------------
	BYTE	W96
// 002   ----------------------------------------
CHARGESONG_9_002:
	BYTE	W24
	BYTE		N12     Cs1   v100
	BYTE		N12     Cs2 
	BYTE	W18
	BYTE		        Cs1 
	BYTE		N12     Cs2 
	BYTE	W18
	BYTE		        Cs1   v072
	BYTE		N12     Cs2 
	BYTE	W12
	BYTE		        Cs1   v100
	BYTE		N12     Cs2 
	BYTE	W18
	BYTE		        Cs1 
	BYTE		N12     Cs2 
	BYTE	W06
	BYTE	PEND
// 003   ----------------------------------------
CHARGESONG_9_003:
	BYTE	W12
	BYTE		N12     Cs1   v072
	BYTE		N12     Cs2 
	BYTE	W12
	BYTE		        Cs1   v100
	BYTE		N12     Cs2 
	BYTE	W18
	BYTE		        Cs1 
	BYTE		N12     Cs2 
	BYTE	W18
	BYTE		        Cs1   v072
	BYTE		N12     Cs2 
	BYTE	W12
	BYTE		        Cs1   v100
	BYTE		N12     Cs2 
	BYTE	W18
	BYTE		        Cs1 
	BYTE		N12     Cs2 
	BYTE	W06
	BYTE	PEND
// 004   ----------------------------------------
CHARGESONG_9_004:
	BYTE	W12
	BYTE		N12     Cs1   v072
	BYTE		N12     Cs2 
	BYTE	W12
	BYTE	PEND
CHARGESONG_9_B1:
	BYTE		N12     Cs1   v100
	BYTE		N12     Cs2 
	BYTE	W18
	BYTE		        Cs1 
	BYTE		N12     Cs2 
	BYTE	W18
	BYTE		        Cs1   v072
	BYTE		N12     Cs2 
	BYTE	W12
	BYTE		        Cs1   v100
	BYTE		N12     Cs2 
	BYTE	W18
	BYTE		        Cs1 
	BYTE		N12     Cs2 
	BYTE	W06
// 005   ----------------------------------------
	BYTE	PATT
	 POIN2	CHARGESONG_9_003
// 006   ----------------------------------------
	BYTE	PATT
	 POIN2	CHARGESONG_9_003
// 007   ----------------------------------------
	BYTE	PATT
	 POIN2	CHARGESONG_9_003
// 008   ----------------------------------------
	BYTE	PATT
	 POIN2	CHARGESONG_9_003
// 009   ----------------------------------------
	BYTE	PATT
	 POIN2	CHARGESONG_9_003
// 010   ----------------------------------------
	BYTE	PATT
	 POIN2	CHARGESONG_9_003
// 011   ----------------------------------------
	BYTE	PATT
	 POIN2	CHARGESONG_9_003
// 012   ----------------------------------------
	BYTE	PATT
	 POIN2	CHARGESONG_9_003
// 013   ----------------------------------------
	BYTE	PATT
	 POIN2	CHARGESONG_9_003
// 014   ----------------------------------------
	BYTE	PATT
	 POIN2	CHARGESONG_9_003
// 015   ----------------------------------------
	BYTE	PATT
	 POIN2	CHARGESONG_9_003
// 016   ----------------------------------------
	BYTE	PATT
	 POIN2	CHARGESONG_9_003
// 017   ----------------------------------------
	BYTE	PATT
	 POIN2	CHARGESONG_9_003
// 018   ----------------------------------------
	BYTE	W12
	BYTE		N12     Cs1   v072
	BYTE		N12     Cs2 
	BYTE	W12
	BYTE		        Fs1   v100
	BYTE		N12     Fs2 
	BYTE	W18
	BYTE		        Fs1 
	BYTE		N12     Fs2 
	BYTE	W18
	BYTE		        Fs1   v072
	BYTE		N12     Fs2 
	BYTE	W12
	BYTE		        Fs1   v100
	BYTE		N12     Fs2 
	BYTE	W18
	BYTE		        Fs1 
	BYTE		N12     Fs2 
	BYTE	W06
// 019   ----------------------------------------
CHARGESONG_9_019:
	BYTE	W12
	BYTE		N12     Fs1   v072
	BYTE		N12     Fs2 
	BYTE	W12
	BYTE		        Fs1   v100
	BYTE		N12     Fs2 
	BYTE	W18
	BYTE		        Fs1 
	BYTE		N12     Fs2 
	BYTE	W18
	BYTE		        Fs1   v072
	BYTE		N12     Fs2 
	BYTE	W12
	BYTE		        Fs1   v100
	BYTE		N12     Fs2 
	BYTE	W18
	BYTE		        Fs1 
	BYTE		N12     Fs2 
	BYTE	W06
	BYTE	PEND
// 020   ----------------------------------------
	BYTE	PATT
	 POIN2	CHARGESONG_9_019
// 021   ----------------------------------------
	BYTE	PATT
	 POIN2	CHARGESONG_9_019
// 022   ----------------------------------------
	BYTE	PATT
	 POIN2	CHARGESONG_9_019
// 023   ----------------------------------------
	BYTE	PATT
	 POIN2	CHARGESONG_9_019
// 024   ----------------------------------------
	BYTE	PATT
	 POIN2	CHARGESONG_9_019
// 025   ----------------------------------------
	BYTE	PATT
	 POIN2	CHARGESONG_9_019
// 026   ----------------------------------------
	BYTE	W12
	BYTE		N12     Fs1   v072
	BYTE		N12     Fs2 
	BYTE	W12
	BYTE		        Bn0   v100
	BYTE		N12     Bn1 
	BYTE	W18
	BYTE		        Bn0 
	BYTE		N12     Bn1 
	BYTE	W18
	BYTE		        Bn0   v072
	BYTE		N12     Bn1 
	BYTE	W12
	BYTE		        Bn0   v100
	BYTE		N12     Bn1 
	BYTE	W18
	BYTE		        Bn0 
	BYTE		N12     Bn1 
	BYTE	W06
// 027   ----------------------------------------
CHARGESONG_9_027:
	BYTE	W12
	BYTE		N12     Bn0   v072
	BYTE		N12     Bn1 
	BYTE	W12
	BYTE		        Bn0   v100
	BYTE		N12     Bn1 
	BYTE	W18
	BYTE		        Bn0 
	BYTE		N12     Bn1 
	BYTE	W18
	BYTE		        Bn0   v072
	BYTE		N12     Bn1 
	BYTE	W12
	BYTE		        Bn0   v100
	BYTE		N12     Bn1 
	BYTE	W18
	BYTE		        Bn0 
	BYTE		N12     Bn1 
	BYTE	W06
	BYTE	PEND
// 028   ----------------------------------------
	BYTE	PATT
	 POIN2	CHARGESONG_9_027
// 029   ----------------------------------------
	BYTE	PATT
	 POIN2	CHARGESONG_9_027
// 030   ----------------------------------------
	BYTE	PATT
	 POIN2	CHARGESONG_9_027
// 031   ----------------------------------------
	BYTE	PATT
	 POIN2	CHARGESONG_9_027
// 032   ----------------------------------------
	BYTE	PATT
	 POIN2	CHARGESONG_9_027
// 033   ----------------------------------------
	BYTE	PATT
	 POIN2	CHARGESONG_9_027
// 034   ----------------------------------------
	BYTE	W12
	BYTE		N12     Bn0   v072
	BYTE		N12     Bn1 
	BYTE	W84
// 035   ----------------------------------------
	BYTE	W96
// 036   ----------------------------------------
	BYTE	W96
// 037   ----------------------------------------
	BYTE	W96
// 038   ----------------------------------------
	BYTE	W96
// 039   ----------------------------------------
	BYTE	W96
// 040   ----------------------------------------
	BYTE	W96
// 041   ----------------------------------------
	BYTE	W96
// 042   ----------------------------------------
	BYTE	PATT
	 POIN2	CHARGESONG_9_002
// 043   ----------------------------------------
	BYTE	PATT
	 POIN2	CHARGESONG_9_003
// 044   ----------------------------------------
	BYTE	PATT
	 POIN2	CHARGESONG_9_003
// 045   ----------------------------------------
	BYTE	PATT
	 POIN2	CHARGESONG_9_003
// 046   ----------------------------------------
	BYTE	PATT
	 POIN2	CHARGESONG_9_003
// 047   ----------------------------------------
	BYTE	PATT
	 POIN2	CHARGESONG_9_003
// 048   ----------------------------------------
	BYTE	PATT
	 POIN2	CHARGESONG_9_003
// 049   ----------------------------------------
	BYTE	PATT
	 POIN2	CHARGESONG_9_003
// 050   ----------------------------------------
	BYTE	PATT
	 POIN2	CHARGESONG_9_004
	BYTE	GoTo
	 POIN2	CHARGESONG_9_B1
CHARGESONG_9_B2:
	BYTE	FINE

//**************** Track 10 (Midi-Chn.11) ****************//

CHARGESONG_10:
	BYTE	KEYSH   CHARGESONG_key+0
// 000   ----------------------------------------
	BYTE		VOICE   127
	BYTE		MODT    0
	BYTE		LFOS    44
	BYTE		VOL     85*CHARGESONG_mvl/mxv
	BYTE		PAN     c_v+0
	BYTE	W24
	BYTE		N24     An2   v124
	BYTE	W64
	BYTE		        An2   v100
	BYTE	W08
// 001   ----------------------------------------
	BYTE	W72
	BYTE		N06     Dn1   v052
	BYTE	W06
	BYTE		        Dn1   v048
	BYTE	W06
	BYTE		        Dn1   v040
	BYTE	W06
	BYTE		        Dn1   v060
	BYTE	W06
// 002   ----------------------------------------
	BYTE		        Dn1   v056
	BYTE	W06
	BYTE		        Dn1   v048
	BYTE	W06
	BYTE		        Dn1   v052
	BYTE	W06
	BYTE		        Dn1   v060
	BYTE	W06
	BYTE		        Dn1   v056
	BYTE		N96     Cs2   v127
	BYTE		N24     An2   v124
	BYTE	W06
	BYTE		N06     Dn1   v052
	BYTE	W06
	BYTE		        Dn1   v048
	BYTE	W06
	BYTE		        Dn1   v040
	BYTE	W06
	BYTE		N12     Dn1   v060
	BYTE	W12
	BYTE		        Dn1   v052
	BYTE	W12
	BYTE		N06     Dn1   v048
	BYTE	W06
	BYTE		        Dn1   v040
	BYTE	W06
	BYTE		N12     Dn1   v060
	BYTE	W12
// 003   ----------------------------------------
CHARGESONG_10_003:
	BYTE		N06     Dn1   v056
	BYTE	W06
	BYTE		        Dn1   v048
	BYTE	W06
	BYTE		        Dn1   v052
	BYTE	W06
	BYTE		        Dn1   v060
	BYTE	W06
	BYTE		        Dn1   v056
	BYTE	W06
	BYTE		        Dn1   v052
	BYTE	W06
	BYTE		        Dn1   v048
	BYTE	W06
	BYTE		        Dn1   v040
	BYTE	W06
	BYTE		N12     Dn1   v060
	BYTE	W12
	BYTE		        Dn1   v052
	BYTE	W12
	BYTE		N06     Dn1   v048
	BYTE	W06
	BYTE		        Dn1   v040
	BYTE	W06
	BYTE		N12     Dn1   v060
	BYTE	W12
	BYTE	PEND
// 004   ----------------------------------------
	BYTE		N06     Dn1   v056
	BYTE	W06
	BYTE		        Dn1   v048
	BYTE	W06
	BYTE		        Dn1   v052
	BYTE	W06
	BYTE		        Dn1   v060
	BYTE	W06
CHARGESONG_10_B1:
	BYTE		N06     Dn1   v056
	BYTE		N24     An2   v124
	BYTE	W06
	BYTE		N06     Dn1   v052
	BYTE	W06
	BYTE		        Dn1   v048
	BYTE	W06
	BYTE		        Dn1   v040
	BYTE	W06
	BYTE		N12     Dn1   v060
	BYTE	W12
	BYTE		        Dn1   v052
	BYTE	W12
	BYTE		N06     Dn1   v048
	BYTE	W06
	BYTE		        Dn1   v040
	BYTE	W06
	BYTE		N12     Dn1   v060
	BYTE	W12
// 005   ----------------------------------------
	BYTE	PATT
	 POIN2	CHARGESONG_10_003
// 006   ----------------------------------------
CHARGESONG_10_006:
	BYTE		N06     Dn1   v056
	BYTE		N24     An2   v124
	BYTE	W06
	BYTE		N06     Dn1   v048
	BYTE	W06
	BYTE		        Dn1   v052
	BYTE	W06
	BYTE		        Dn1   v060
	BYTE	W06
	BYTE		        Dn1   v056
	BYTE		N24     An2   v124
	BYTE	W06
	BYTE		N06     Dn1   v052
	BYTE	W06
	BYTE		        Dn1   v048
	BYTE	W06
	BYTE		        Dn1   v040
	BYTE	W06
	BYTE		N12     Dn1   v060
	BYTE	W12
	BYTE		        Dn1   v052
	BYTE	W12
	BYTE		N06     Dn1   v048
	BYTE	W06
	BYTE		        Dn1   v040
	BYTE	W06
	BYTE		N12     Dn1   v060
	BYTE	W12
	BYTE	PEND
// 007   ----------------------------------------
	BYTE	PATT
	 POIN2	CHARGESONG_10_003
// 008   ----------------------------------------
CHARGESONG_10_008:
	BYTE		N06     Dn1   v056
	BYTE	W06
	BYTE		        Dn1   v048
	BYTE	W06
	BYTE		        Dn1   v052
	BYTE	W06
	BYTE		        Dn1   v060
	BYTE	W06
	BYTE		        Dn1   v056
	BYTE		N24     An2   v124
	BYTE	W06
	BYTE		N06     Dn1   v052
	BYTE	W06
	BYTE		        Dn1   v048
	BYTE	W06
	BYTE		        Dn1   v040
	BYTE	W06
	BYTE		N12     Dn1   v060
	BYTE	W12
	BYTE		        Dn1   v052
	BYTE	W12
	BYTE		N06     Dn1   v048
	BYTE	W06
	BYTE		        Dn1   v040
	BYTE	W06
	BYTE		N12     Dn1   v060
	BYTE	W12
	BYTE	PEND
// 009   ----------------------------------------
	BYTE	PATT
	 POIN2	CHARGESONG_10_003
// 010   ----------------------------------------
	BYTE	PATT
	 POIN2	CHARGESONG_10_006
// 011   ----------------------------------------
	BYTE	PATT
	 POIN2	CHARGESONG_10_003
// 012   ----------------------------------------
	BYTE	PATT
	 POIN2	CHARGESONG_10_008
// 013   ----------------------------------------
	BYTE		N06     Dn1   v056
	BYTE	W06
	BYTE		        Dn1   v048
	BYTE	W06
	BYTE		        Dn1   v052
	BYTE	W06
	BYTE		        Dn1   v060
	BYTE	W06
	BYTE		        Dn1   v056
	BYTE	W06
	BYTE		        Dn1   v052
	BYTE	W06
	BYTE		        Dn1   v048
	BYTE	W06
	BYTE		        Dn1   v040
	BYTE	W06
	BYTE		N12     Dn1   v060
	BYTE	W12
	BYTE		N12   
	BYTE	W12
	BYTE		N06   
	BYTE	W06
	BYTE		        Dn1   v052
	BYTE	W06
	BYTE		N12     Dn1   v056
	BYTE	W12
// 014   ----------------------------------------
CHARGESONG_10_014:
	BYTE		N06     Dn1   v060
	BYTE		N24     An2   v124
	BYTE	W06
	BYTE		N06     Dn1   v052
	BYTE	W06
	BYTE		        Dn1   v048
	BYTE	W06
	BYTE		        Dn1   v040
	BYTE	W06
	BYTE		        Dn1   v060
	BYTE		N24     An2   v124
	BYTE	W06
	BYTE		N06     Dn1   v056
	BYTE	W06
	BYTE		        Dn1   v048
	BYTE	W06
	BYTE		        Dn1   v052
	BYTE	W06
	BYTE		N12     Dn1   v060
	BYTE	W12
	BYTE		        Dn1   v056
	BYTE	W12
	BYTE		N06     Dn1   v052
	BYTE	W06
	BYTE		        Dn1   v048
	BYTE	W06
	BYTE		N12     Dn1   v040
	BYTE	W12
	BYTE	PEND
// 015   ----------------------------------------
CHARGESONG_10_015:
	BYTE		N06     Dn1   v060
	BYTE	W06
	BYTE		        Dn1   v052
	BYTE	W06
	BYTE		        Dn1   v048
	BYTE	W06
	BYTE		        Dn1   v040
	BYTE	W06
	BYTE		        Dn1   v060
	BYTE	W06
	BYTE		        Dn1   v056
	BYTE	W06
	BYTE		        Dn1   v048
	BYTE	W06
	BYTE		        Dn1   v052
	BYTE	W06
	BYTE		N12     Dn1   v060
	BYTE	W12
	BYTE		        Dn1   v056
	BYTE	W12
	BYTE		N06     Dn1   v052
	BYTE	W06
	BYTE		        Dn1   v048
	BYTE	W06
	BYTE		N12     Dn1   v040
	BYTE	W12
	BYTE	PEND
// 016   ----------------------------------------
CHARGESONG_10_016:
	BYTE		N06     Dn1   v060
	BYTE	W06
	BYTE		        Dn1   v052
	BYTE	W06
	BYTE		        Dn1   v048
	BYTE	W06
	BYTE		        Dn1   v040
	BYTE	W06
	BYTE		        Dn1   v060
	BYTE		N24     An2   v124
	BYTE	W06
	BYTE		N06     Dn1   v056
	BYTE	W06
	BYTE		        Dn1   v048
	BYTE	W06
	BYTE		        Dn1   v052
	BYTE	W06
	BYTE		N12     Dn1   v060
	BYTE	W12
	BYTE		        Dn1   v056
	BYTE	W12
	BYTE		N06     Dn1   v052
	BYTE	W06
	BYTE		        Dn1   v048
	BYTE	W06
	BYTE		N12     Dn1   v040
	BYTE	W12
	BYTE	PEND
// 017   ----------------------------------------
	BYTE	PATT
	 POIN2	CHARGESONG_10_015
// 018   ----------------------------------------
	BYTE	PATT
	 POIN2	CHARGESONG_10_014
// 019   ----------------------------------------
	BYTE	PATT
	 POIN2	CHARGESONG_10_015
// 020   ----------------------------------------
	BYTE	PATT
	 POIN2	CHARGESONG_10_016
// 021   ----------------------------------------
	BYTE	PATT
	 POIN2	CHARGESONG_10_015
// 022   ----------------------------------------
	BYTE	PATT
	 POIN2	CHARGESONG_10_014
// 023   ----------------------------------------
	BYTE	PATT
	 POIN2	CHARGESONG_10_015
// 024   ----------------------------------------
	BYTE	PATT
	 POIN2	CHARGESONG_10_016
// 025   ----------------------------------------
	BYTE	PATT
	 POIN2	CHARGESONG_10_015
// 026   ----------------------------------------
	BYTE	PATT
	 POIN2	CHARGESONG_10_014
// 027   ----------------------------------------
	BYTE	PATT
	 POIN2	CHARGESONG_10_015
// 028   ----------------------------------------
	BYTE	PATT
	 POIN2	CHARGESONG_10_016
// 029   ----------------------------------------
	BYTE	PATT
	 POIN2	CHARGESONG_10_015
// 030   ----------------------------------------
	BYTE	PATT
	 POIN2	CHARGESONG_10_014
// 031   ----------------------------------------
	BYTE	PATT
	 POIN2	CHARGESONG_10_015
// 032   ----------------------------------------
	BYTE		N06     Dn1   v060
	BYTE	W06
	BYTE		        Dn1   v052
	BYTE	W06
	BYTE		        Dn1   v048
	BYTE	W06
	BYTE		        Dn1   v040
	BYTE	W06
	BYTE		        Dn1   v060
	BYTE		N24     An2   v124
	BYTE	W06
	BYTE		N06     Dn1   v056
	BYTE	W06
	BYTE		        Dn1   v048
	BYTE	W06
	BYTE		        Dn1   v052
	BYTE	W06
	BYTE		N12     Dn1   v060
	BYTE	W12
	BYTE		        Dn1   v056
	BYTE	W12
	BYTE		N06     Dn1   v052
	BYTE		TIE     Ds2   v124
	BYTE	W06
	BYTE		N06     Dn1   v048
	BYTE	W06
	BYTE		N12     Dn1   v040
	BYTE	W12
// 033   ----------------------------------------
	BYTE	PATT
	 POIN2	CHARGESONG_10_015
// 034   ----------------------------------------
	BYTE		N06     Dn1   v060
	BYTE		N24     An2   v124
	BYTE	W06
	BYTE		N06     Dn1   v052
	BYTE	W06
	BYTE		        Dn1   v048
	BYTE	W06
	BYTE		        Dn1   v040
	BYTE	W06
	BYTE		N96     Cs2   v127
	BYTE		N24     An2   v124
	BYTE	W48
	BYTE		EOT     Ds2 
	BYTE	W24
// 035   ----------------------------------------
	BYTE	W96
// 036   ----------------------------------------
	BYTE	W24
	BYTE		N24     An2 
	BYTE	W72
// 037   ----------------------------------------
	BYTE	W96
// 038   ----------------------------------------
	BYTE		N06     Dn1   v060
	BYTE		N24     An2   v124
	BYTE	W06
	BYTE		N03     Dn1   v056
	BYTE	W03
	BYTE		        Dn1   v048
	BYTE	W03
	BYTE		N06     Dn1   v052
	BYTE	W06
	BYTE		        Dn1   v060
	BYTE	W06
	BYTE		        Dn1   v056
	BYTE		N24     An2   v124
	BYTE	W06
	BYTE		N06     Dn1   v052
	BYTE	W06
	BYTE		        Dn1   v048
	BYTE	W06
	BYTE		        Dn1   v040
	BYTE	W06
	BYTE		N12     Dn1   v060
	BYTE	W12
	BYTE		        Dn1   v052
	BYTE	W12
	BYTE		N06     Dn1   v048
	BYTE	W06
	BYTE		        Dn1   v040
	BYTE	W06
	BYTE		N12     Dn1   v060
	BYTE	W12
// 039   ----------------------------------------
	BYTE	PATT
	 POIN2	CHARGESONG_10_003
// 040   ----------------------------------------
	BYTE	PATT
	 POIN2	CHARGESONG_10_008
// 041   ----------------------------------------
	BYTE	PATT
	 POIN2	CHARGESONG_10_003
// 042   ----------------------------------------
	BYTE		N06     Dn1   v056
	BYTE		N24     An2   v124
	BYTE	W06
	BYTE		N06     Dn1   v048
	BYTE	W06
	BYTE		        Dn1   v052
	BYTE	W06
	BYTE		        Dn1   v060
	BYTE	W06
	BYTE		        Dn1   v056
	BYTE		N96     Cs2   v060
	BYTE		N24     An2   v124
	BYTE	W06
	BYTE		N06     Dn1   v052
	BYTE	W06
	BYTE		        Dn1   v048
	BYTE	W06
	BYTE		        Dn1   v040
	BYTE	W06
	BYTE		N12     Dn1   v060
	BYTE	W12
	BYTE		        Dn1   v052
	BYTE	W12
	BYTE		N06     Dn1   v048
	BYTE	W06
	BYTE		        Dn1   v040
	BYTE	W06
	BYTE		N12     Dn1   v060
	BYTE	W12
// 043   ----------------------------------------
	BYTE	PATT
	 POIN2	CHARGESONG_10_003
// 044   ----------------------------------------
	BYTE	PATT
	 POIN2	CHARGESONG_10_008
// 045   ----------------------------------------
	BYTE	PATT
	 POIN2	CHARGESONG_10_003
// 046   ----------------------------------------
	BYTE		N06     Dn1   v056
	BYTE		N24     An2   v124
	BYTE	W06
	BYTE		N06     Dn1   v048
	BYTE	W06
	BYTE		        Dn1   v052
	BYTE	W06
	BYTE		        Dn1   v060
	BYTE	W06
	BYTE		        Dn1   v056
	BYTE		N96     Cs2   v127
	BYTE		N24     An2   v124
	BYTE	W06
	BYTE		N06     Dn1   v052
	BYTE	W06
	BYTE		        Dn1   v048
	BYTE	W06
	BYTE		        Dn1   v040
	BYTE	W06
	BYTE		N12     Dn1   v060
	BYTE	W12
	BYTE		        Dn1   v052
	BYTE	W12
	BYTE		N06     Dn1   v048
	BYTE	W06
	BYTE		        Dn1   v040
	BYTE	W06
	BYTE		N12     Dn1   v060
	BYTE	W12
// 047   ----------------------------------------
	BYTE	PATT
	 POIN2	CHARGESONG_10_003
// 048   ----------------------------------------
	BYTE	PATT
	 POIN2	CHARGESONG_10_008
// 049   ----------------------------------------
	BYTE		N06     Dn1   v056
	BYTE	W06
	BYTE		        Dn1   v048
	BYTE	W06
	BYTE		        Dn1   v052
	BYTE	W06
	BYTE		        Dn1   v060
	BYTE	W06
	BYTE		        Dn1   v056
	BYTE	W06
	BYTE		        Dn1   v052
	BYTE	W06
	BYTE		        Dn1   v048
	BYTE	W06
	BYTE		        Dn1   v040
	BYTE	W06
	BYTE		N12     Dn1   v060
	BYTE	W12
	BYTE		N12   
	BYTE	W12
	BYTE		N06   
	BYTE	W06
	BYTE		        Dn1   v056
	BYTE	W06
	BYTE		N12     Dn1   v052
	BYTE	W12
// 050   ----------------------------------------
	BYTE		N06     Dn1   v048
	BYTE		N24     An2   v124
	BYTE	W06
	BYTE		N06     Dn1   v048
	BYTE	W06
	BYTE		        Dn1   v044
	BYTE	W06
	BYTE		        Dn1   v052
	BYTE	W06
	BYTE	GoTo
	 POIN2	CHARGESONG_10_B1
CHARGESONG_10_B2:
	BYTE	FINE

//**************** Track 11 (Midi-Chn.12) ****************//

CHARGESONG_11:
	BYTE	KEYSH   CHARGESONG_key+0
// 000   ----------------------------------------
	BYTE		VOICE   47
	BYTE		MODT    0
	BYTE		LFOS    44
	BYTE		VOL     116*CHARGESONG_mvl/mxv
	BYTE		PAN     c_v+8
	BYTE	W88
	BYTE		N80     Gs1   v127
	BYTE	W08
// 001   ----------------------------------------
	BYTE	W72
	BYTE		N03     Gs1   v084
	BYTE	W03
	BYTE		N03   
	BYTE	W03
	BYTE		N03   
	BYTE	W03
	BYTE		N03   
	BYTE	W03
	BYTE		        Gs1   v088
	BYTE	W03
	BYTE		N03   
	BYTE	W03
	BYTE		        Gs1   v092
	BYTE	W03
	BYTE		N03   
	BYTE	W03
// 002   ----------------------------------------
	BYTE		        Gs1   v096
	BYTE	W03
	BYTE		N03   
	BYTE	W03
	BYTE		        Gs1   v100
	BYTE	W03
	BYTE		        Gs1   v104
	BYTE	W03
	BYTE		        Gs1   v108
	BYTE	W03
	BYTE		        Gs1   v112
	BYTE	W03
	BYTE		        Gs1   v120
	BYTE	W03
	BYTE		        Gs1   v127
	BYTE	W03
	BYTE		N12     Cs2 
	BYTE	W36
	BYTE		        Cs2   v120
	BYTE	W36
// 003   ----------------------------------------
CHARGESONG_11_003:
	BYTE	W24
	BYTE		N12     Cs2   v127
	BYTE	W36
	BYTE		        Cs2   v120
	BYTE	W24
	BYTE		        Gs1   v124
	BYTE	W12
	BYTE	PEND
// 004   ----------------------------------------
	BYTE		        Cs2   v127
	BYTE	W24
CHARGESONG_11_B1:
	BYTE		N12     Cs2   v127
	BYTE	W36
	BYTE		        Cs2   v120
	BYTE	W36
// 005   ----------------------------------------
CHARGESONG_11_005:
	BYTE	W24
	BYTE		N12     Cs2   v127
	BYTE	W36
	BYTE		        Cs2   v120
	BYTE	W24
	BYTE		N06     Gs1   v127
	BYTE	W06
	BYTE		        Gs1   v120
	BYTE	W06
	BYTE	PEND
// 006   ----------------------------------------
CHARGESONG_11_006:
	BYTE		N12     Cs2   v127
	BYTE	W24
	BYTE		N12   
	BYTE	W36
	BYTE		        Cs2   v120
	BYTE	W36
	BYTE	PEND
// 007   ----------------------------------------
	BYTE	PATT
	 POIN2	CHARGESONG_11_003
// 008   ----------------------------------------
	BYTE	PATT
	 POIN2	CHARGESONG_11_006
// 009   ----------------------------------------
	BYTE	PATT
	 POIN2	CHARGESONG_11_005
// 010   ----------------------------------------
	BYTE	PATT
	 POIN2	CHARGESONG_11_006
// 011   ----------------------------------------
	BYTE	PATT
	 POIN2	CHARGESONG_11_003
// 012   ----------------------------------------
	BYTE	PATT
	 POIN2	CHARGESONG_11_006
// 013   ----------------------------------------
	BYTE	PATT
	 POIN2	CHARGESONG_11_005
// 014   ----------------------------------------
	BYTE	PATT
	 POIN2	CHARGESONG_11_006
// 015   ----------------------------------------
	BYTE	PATT
	 POIN2	CHARGESONG_11_003
// 016   ----------------------------------------
	BYTE	PATT
	 POIN2	CHARGESONG_11_006
// 017   ----------------------------------------
	BYTE	PATT
	 POIN2	CHARGESONG_11_005
// 018   ----------------------------------------
	BYTE		N12     Cs2   v127
	BYTE	W24
	BYTE		        Fs1 
	BYTE	W36
	BYTE		        Fs1   v120
	BYTE	W36
// 019   ----------------------------------------
CHARGESONG_11_019:
	BYTE	W24
	BYTE		N12     Fs1   v127
	BYTE	W36
	BYTE		        Fs1   v120
	BYTE	W24
	BYTE		        Cs2   v124
	BYTE	W12
	BYTE	PEND
// 020   ----------------------------------------
CHARGESONG_11_020:
	BYTE		N12     Fs1   v127
	BYTE	W24
	BYTE		N12   
	BYTE	W36
	BYTE		        Fs1   v120
	BYTE	W36
	BYTE	PEND
// 021   ----------------------------------------
CHARGESONG_11_021:
	BYTE	W24
	BYTE		N12     Fs1   v127
	BYTE	W36
	BYTE		        Fs1   v120
	BYTE	W24
	BYTE		N06     Cs2   v127
	BYTE	W06
	BYTE		        Cs2   v120
	BYTE	W06
	BYTE	PEND
// 022   ----------------------------------------
	BYTE	PATT
	 POIN2	CHARGESONG_11_020
// 023   ----------------------------------------
	BYTE	PATT
	 POIN2	CHARGESONG_11_019
// 024   ----------------------------------------
	BYTE	PATT
	 POIN2	CHARGESONG_11_020
// 025   ----------------------------------------
	BYTE	PATT
	 POIN2	CHARGESONG_11_021
// 026   ----------------------------------------
	BYTE		N12     Fs1   v127
	BYTE	W24
	BYTE		        Bn1 
	BYTE	W36
	BYTE		        Bn1   v120
	BYTE	W36
// 027   ----------------------------------------
CHARGESONG_11_027:
	BYTE	W24
	BYTE		N12     Bn1   v127
	BYTE	W36
	BYTE		        Bn1   v120
	BYTE	W24
	BYTE		        Fs1   v124
	BYTE	W12
	BYTE	PEND
// 028   ----------------------------------------
CHARGESONG_11_028:
	BYTE		N12     Bn1   v127
	BYTE	W24
	BYTE		N12   
	BYTE	W36
	BYTE		        Bn1   v120
	BYTE	W36
	BYTE	PEND
// 029   ----------------------------------------
CHARGESONG_11_029:
	BYTE	W24
	BYTE		N12     Bn1   v127
	BYTE	W36
	BYTE		        Bn1   v120
	BYTE	W24
	BYTE		N06     Fs1   v127
	BYTE	W06
	BYTE		        Fs1   v120
	BYTE	W06
	BYTE	PEND
// 030   ----------------------------------------
	BYTE	PATT
	 POIN2	CHARGESONG_11_028
// 031   ----------------------------------------
	BYTE	PATT
	 POIN2	CHARGESONG_11_027
// 032   ----------------------------------------
	BYTE	PATT
	 POIN2	CHARGESONG_11_028
// 033   ----------------------------------------
	BYTE	PATT
	 POIN2	CHARGESONG_11_029
// 034   ----------------------------------------
	BYTE	PATT
	 POIN2	CHARGESONG_11_028
// 035   ----------------------------------------
CHARGESONG_11_035:
	BYTE	W24
	BYTE		N06     Fs1   v120
	BYTE	W06
	BYTE		        Fs1   v104
	BYTE	W06
	BYTE		N12     Bn1   v127
	BYTE	W12
	BYTE		        Fs1   v112
	BYTE	W12
	BYTE		        Ds1   v120
	BYTE	W12
	BYTE		        Bn1 
	BYTE	W12
	BYTE		        Fs1 
	BYTE	W12
	BYTE	PEND
// 036   ----------------------------------------
	BYTE		N06     Ds1   v127
	BYTE	W06
	BYTE		        Bn1 
	BYTE	W06
	BYTE		        Fs1   v120
	BYTE	W06
	BYTE		        Ds1   v104
	BYTE	W06
	BYTE		N12     Bn1   v127
	BYTE	W36
	BYTE		        Bn1   v120
	BYTE	W36
// 037   ----------------------------------------
	BYTE	PATT
	 POIN2	CHARGESONG_11_035
// 038   ----------------------------------------
	BYTE		N06     Ds1   v127
	BYTE	W06
	BYTE		        Bn1 
	BYTE	W06
	BYTE		        Fs1   v120
	BYTE	W06
	BYTE		        Ds1   v104
	BYTE	W06
	BYTE		N12     Cs2   v127
	BYTE	W36
	BYTE		        Cs2   v120
	BYTE	W36
// 039   ----------------------------------------
CHARGESONG_11_039:
	BYTE	W24
	BYTE		N06     Gs1   v120
	BYTE	W06
	BYTE		        Gs1   v104
	BYTE	W06
	BYTE		N12     Cs2   v127
	BYTE	W12
	BYTE		        Gs1   v112
	BYTE	W12
	BYTE		        Fn1   v120
	BYTE	W12
	BYTE		        Cs2 
	BYTE	W12
	BYTE		        Gs1 
	BYTE	W12
	BYTE	PEND
// 040   ----------------------------------------
CHARGESONG_11_040:
	BYTE		N06     Fn1   v127
	BYTE	W06
	BYTE		        Cs2 
	BYTE	W06
	BYTE		        Gs1   v120
	BYTE	W06
	BYTE		        Fn1   v104
	BYTE	W06
	BYTE		N12     Cs2   v127
	BYTE	W36
	BYTE		        Cs2   v120
	BYTE	W36
	BYTE	PEND
// 041   ----------------------------------------
	BYTE	PATT
	 POIN2	CHARGESONG_11_039
// 042   ----------------------------------------
	BYTE	PATT
	 POIN2	CHARGESONG_11_040
// 043   ----------------------------------------
	BYTE	PATT
	 POIN2	CHARGESONG_11_039
// 044   ----------------------------------------
	BYTE	PATT
	 POIN2	CHARGESONG_11_040
// 045   ----------------------------------------
	BYTE	PATT
	 POIN2	CHARGESONG_11_039
// 046   ----------------------------------------
	BYTE	PATT
	 POIN2	CHARGESONG_11_040
// 047   ----------------------------------------
	BYTE	PATT
	 POIN2	CHARGESONG_11_003
// 048   ----------------------------------------
	BYTE	PATT
	 POIN2	CHARGESONG_11_006
// 049   ----------------------------------------
	BYTE	PATT
	 POIN2	CHARGESONG_11_005
// 050   ----------------------------------------
	BYTE		N12     Cs2   v127
	BYTE	W24
	BYTE	GoTo
	 POIN2	CHARGESONG_11_B1
CHARGESONG_11_B2:
	BYTE	FINE

//**************** Track 12 (Midi-Chn.13) ****************//

CHARGESONG_12:
	BYTE	KEYSH   CHARGESONG_key+0
// 000   ----------------------------------------
	BYTE		VOICE   121
	BYTE		MODT    0
	BYTE		LFOS    44
	BYTE		VOL     59*CHARGESONG_mvl/mxv
	BYTE		PAN     c_v-64
	BYTE	W96
// 001   ----------------------------------------
	BYTE	W96
// 002   ----------------------------------------
	BYTE	W24
	BYTE		TIE     Cn3   v116
	BYTE	W72
// 003   ----------------------------------------
	BYTE	W96
// 004   ----------------------------------------
	BYTE	W24
CHARGESONG_12_B1:
	BYTE	W72
// 005   ----------------------------------------
	BYTE	W96
// 006   ----------------------------------------
	BYTE	W24
	BYTE		EOT     Cn3 
	BYTE		TIE     Cn3   v116
	BYTE	W72
// 007   ----------------------------------------
	BYTE	W96
// 008   ----------------------------------------
	BYTE	W96
// 009   ----------------------------------------
	BYTE	W96
// 010   ----------------------------------------
	BYTE	W24
	BYTE		EOT   
	BYTE	W72
// 011   ----------------------------------------
	BYTE	W96
// 012   ----------------------------------------
	BYTE	W96
// 013   ----------------------------------------
	BYTE	W96
// 014   ----------------------------------------
	BYTE	W96
// 015   ----------------------------------------
	BYTE	W96
// 016   ----------------------------------------
	BYTE	W96
// 017   ----------------------------------------
	BYTE	W96
// 018   ----------------------------------------
	BYTE	W96
// 019   ----------------------------------------
	BYTE	W96
// 020   ----------------------------------------
	BYTE	W96
// 021   ----------------------------------------
	BYTE	W96
// 022   ----------------------------------------
	BYTE	W96
// 023   ----------------------------------------
	BYTE	W96
// 024   ----------------------------------------
	BYTE	W96
// 025   ----------------------------------------
	BYTE	W96
// 026   ----------------------------------------
	BYTE	W96
// 027   ----------------------------------------
	BYTE	W96
// 028   ----------------------------------------
	BYTE	W96
// 029   ----------------------------------------
	BYTE	W96
// 030   ----------------------------------------
	BYTE	W96
// 031   ----------------------------------------
	BYTE	W96
// 032   ----------------------------------------
	BYTE	W96
// 033   ----------------------------------------
	BYTE	W96
// 034   ----------------------------------------
	BYTE	W96
// 035   ----------------------------------------
	BYTE	W96
// 036   ----------------------------------------
	BYTE	W96
// 037   ----------------------------------------
	BYTE	W96
// 038   ----------------------------------------
	BYTE	W96
// 039   ----------------------------------------
	BYTE	W96
// 040   ----------------------------------------
	BYTE	W96
// 041   ----------------------------------------
	BYTE	W96
// 042   ----------------------------------------
	BYTE	W96
// 043   ----------------------------------------
	BYTE	W96
// 044   ----------------------------------------
	BYTE	W96
// 045   ----------------------------------------
	BYTE	W96
// 046   ----------------------------------------
	BYTE	W96
// 047   ----------------------------------------
	BYTE	W96
// 048   ----------------------------------------
	BYTE	W96
// 049   ----------------------------------------
	BYTE	W96
// 050   ----------------------------------------
	BYTE	W24
	BYTE	GoTo
	 POIN2	CHARGESONG_12_B1
CHARGESONG_12_B2:
	BYTE	FINE

//**************** Track 13 (Midi-Chn.14) ****************//

CHARGESONG_13:
	BYTE	KEYSH   CHARGESONG_key+0
// 000   ----------------------------------------
	BYTE		VOICE   121
	BYTE		MODT    0
	BYTE		LFOS    44
	BYTE		VOL     59*CHARGESONG_mvl/mxv
	BYTE		PAN     c_v+63
	BYTE	W96
// 001   ----------------------------------------
	BYTE	W96
// 002   ----------------------------------------
	BYTE	W24
	BYTE		TIE     Cn4   v116
	BYTE	W72
// 003   ----------------------------------------
	BYTE	W96
// 004   ----------------------------------------
	BYTE	W24
CHARGESONG_13_B1:
	BYTE	W72
// 005   ----------------------------------------
	BYTE	W96
// 006   ----------------------------------------
	BYTE	W24
	BYTE		EOT     Cn4 
	BYTE		TIE     Cn4   v116
	BYTE	W72
// 007   ----------------------------------------
	BYTE	W96
// 008   ----------------------------------------
	BYTE	W96
// 009   ----------------------------------------
	BYTE	W96
// 010   ----------------------------------------
	BYTE	W24
	BYTE		EOT   
	BYTE	W72
// 011   ----------------------------------------
	BYTE	W96
// 012   ----------------------------------------
	BYTE	W96
// 013   ----------------------------------------
	BYTE	W96
// 014   ----------------------------------------
	BYTE	W96
// 015   ----------------------------------------
	BYTE	W96
// 016   ----------------------------------------
	BYTE	W96
// 017   ----------------------------------------
	BYTE	W96
// 018   ----------------------------------------
	BYTE	W96
// 019   ----------------------------------------
	BYTE	W96
// 020   ----------------------------------------
	BYTE	W96
// 021   ----------------------------------------
	BYTE	W96
// 022   ----------------------------------------
	BYTE	W96
// 023   ----------------------------------------
	BYTE	W96
// 024   ----------------------------------------
	BYTE	W96
// 025   ----------------------------------------
	BYTE	W96
// 026   ----------------------------------------
	BYTE	W96
// 027   ----------------------------------------
	BYTE	W96
// 028   ----------------------------------------
	BYTE	W96
// 029   ----------------------------------------
	BYTE	W96
// 030   ----------------------------------------
	BYTE	W96
// 031   ----------------------------------------
	BYTE	W96
// 032   ----------------------------------------
	BYTE	W96
// 033   ----------------------------------------
	BYTE	W96
// 034   ----------------------------------------
	BYTE	W96
// 035   ----------------------------------------
	BYTE	W96
// 036   ----------------------------------------
	BYTE	W96
// 037   ----------------------------------------
	BYTE	W96
// 038   ----------------------------------------
	BYTE	W96
// 039   ----------------------------------------
	BYTE	W96
// 040   ----------------------------------------
	BYTE	W96
// 041   ----------------------------------------
	BYTE	W96
// 042   ----------------------------------------
	BYTE	W96
// 043   ----------------------------------------
	BYTE	W96
// 044   ----------------------------------------
	BYTE	W96
// 045   ----------------------------------------
	BYTE	W96
// 046   ----------------------------------------
	BYTE	W96
// 047   ----------------------------------------
	BYTE	W96
// 048   ----------------------------------------
	BYTE	W96
// 049   ----------------------------------------
	BYTE	W96
// 050   ----------------------------------------
	BYTE	W24
	BYTE	GoTo
	 POIN2	CHARGESONG_13_B1
CHARGESONG_13_B2:
	BYTE	FINE

//******************************************************//
	ALIGN 4

CHARGESONG:
	BYTE	13	// NumTrks
	BYTE	0	// NumBlks
	BYTE	CHARGESONG_pri	// Priority
	BYTE	CHARGESONG_rev	// Reverb.

	POIN2	CHARGESONG_grp

	POIN2	CHARGESONG_1
	POIN2	CHARGESONG_2
	POIN2	CHARGESONG_3
	POIN2	CHARGESONG_4
	POIN2	CHARGESONG_5
	POIN2	CHARGESONG_6
	POIN2	CHARGESONG_7
	POIN2	CHARGESONG_8
	POIN2	CHARGESONG_9
	POIN2	CHARGESONG_10
	POIN2	CHARGESONG_11
	POIN2	CHARGESONG_12
	POIN2	CHARGESONG_13

	
