//Event file generated from Sappy .s format.
        #include "MPlayDef.event"

        #define    CombatDestinyCut_grp  voicegroup000
        #define    CombatDestinyCut_pri  0
        #define    CombatDestinyCut_rev  192
        #define    CombatDestinyCut_key  0

        // .rodata
        // CombatDestinyCut
        ALIGN  2

//****************** Track 0 (Midi-Chn.0) ******************//

CombatDestinyCut_0:
        BYTE   KEYSH   CombatDestinyCut_key+0
// 000   ----------------------------------------
        BYTE   TEMPO   138/2
        BYTE           VOICE   78
        BYTE           PAN     c_v+15
        BYTE           VOL     28
        BYTE           BENDR   12
        BYTE   W96
// 001   ----------------------------------------
        BYTE   W96
// 002   ----------------------------------------
        BYTE   W96
// 003   ----------------------------------------
        BYTE   W96
// 004   ----------------------------------------
        BYTE   W96
// 005   ----------------------------------------
        BYTE   W96
// 006   ----------------------------------------
        BYTE   W96
// 007   ----------------------------------------
        BYTE   W96
// 008   ----------------------------------------
        BYTE   W96
// 009   ----------------------------------------
        BYTE   W96
// 010   ----------------------------------------
        BYTE           TIE     An0   v080
        BYTE   W96
// 011   ----------------------------------------
        BYTE   W92
        BYTE   W03
        BYTE           EOT
        BYTE   W01
// 012   ----------------------------------------
        BYTE           TIE     Fn0
        BYTE   W96
// 013   ----------------------------------------
        BYTE   W92
        BYTE   W03
        BYTE           EOT
        BYTE   W01
// 014   ----------------------------------------
        BYTE           TIE     Dn1
        BYTE   W96
// 015   ----------------------------------------
        BYTE   W92
        BYTE   W03
        BYTE           EOT
        BYTE   W01
// 016   ----------------------------------------
        BYTE           TIE     En1
        BYTE   W96
// 017   ----------------------------------------
        BYTE   W96
// 018   ----------------------------------------
        BYTE   W96
// 019   ----------------------------------------
        BYTE   W92
        BYTE   W03
        BYTE           EOT
        BYTE   W01
// 020   ----------------------------------------
CombatDestinyCut_0_LOOP:
        BYTE           N23     An1   v080
        BYTE   W24
        BYTE           N05
        BYTE   W06
        BYTE                   An1
        BYTE   W06
        BYTE                   An1
        BYTE   W06
        BYTE                   An1
        BYTE   W06
        BYTE           N23
        BYTE   W24
        BYTE           N05
        BYTE   W06
        BYTE                   An1
        BYTE   W06
        BYTE                   An1
        BYTE   W06
        BYTE                   An1
        BYTE   W06
// 021   ----------------------------------------
        BYTE           N23
        BYTE   W96
// 022   ----------------------------------------
CombatDestinyCut_0_22:
        BYTE           N23     Fn1   v080
        BYTE   W24
        BYTE           N05
        BYTE   W06
        BYTE                   Fn1
        BYTE   W06
        BYTE                   Fn1
        BYTE   W06
        BYTE                   Fn1
        BYTE   W06
        BYTE           N23
        BYTE   W24
        BYTE           N05
        BYTE   W06
        BYTE                   Fn1
        BYTE   W06
        BYTE                   Fn1
        BYTE   W06
        BYTE                   Fn1
        BYTE   W06
        BYTE   PEND
// 023   ----------------------------------------
        BYTE           N23
        BYTE   W96
// 024   ----------------------------------------
CombatDestinyCut_0_24:
        BYTE           N23     Dn1   v080
        BYTE   W24
        BYTE           N05
        BYTE   W06
        BYTE                   Dn1
        BYTE   W06
        BYTE                   Dn1
        BYTE   W06
        BYTE                   Dn1
        BYTE   W06
        BYTE           N23
        BYTE   W24
        BYTE           N05
        BYTE   W06
        BYTE                   Dn1
        BYTE   W06
        BYTE                   Dn1
        BYTE   W06
        BYTE                   Dn1
        BYTE   W06
        BYTE   PEND
// 025   ----------------------------------------
        BYTE           N23
        BYTE   W96
// 026   ----------------------------------------
CombatDestinyCut_0_26:
        BYTE           N23     En1   v080
        BYTE   W24
        BYTE           N05
        BYTE   W06
        BYTE                   En1
        BYTE   W06
        BYTE                   En1
        BYTE   W06
        BYTE                   En1
        BYTE   W06
        BYTE           N23
        BYTE   W24
        BYTE           N05
        BYTE   W06
        BYTE                   En1
        BYTE   W06
        BYTE                   En1
        BYTE   W06
        BYTE                   En1
        BYTE   W06
        BYTE   PEND
// 027   ----------------------------------------
        BYTE           N23
        BYTE   W96
// 028   ----------------------------------------
        BYTE                   An1
        BYTE   W24
        BYTE           N05
        BYTE   W06
        BYTE                   An1
        BYTE   W06
        BYTE                   An1
        BYTE   W06
        BYTE                   An1
        BYTE   W06
        BYTE           N23
        BYTE   W24
        BYTE           N05
        BYTE   W06
        BYTE                   An1
        BYTE   W06
        BYTE                   An1
        BYTE   W06
        BYTE                   An1
        BYTE   W06
// 029   ----------------------------------------
        BYTE           N23
        BYTE   W96
// 030   ----------------------------------------
        BYTE   PATT
         POIN2  CombatDestinyCut_0_22
// 031   ----------------------------------------
        BYTE           N23     Fn1   v080
        BYTE   W96
// 032   ----------------------------------------
        BYTE   PATT
         POIN2  CombatDestinyCut_0_24
// 033   ----------------------------------------
        BYTE           N23     Dn1   v080
        BYTE   W96
// 034   ----------------------------------------
        BYTE   PATT
         POIN2  CombatDestinyCut_0_26
// 035   ----------------------------------------
        BYTE           N23     En1   v080
        BYTE   W96
// 036   ----------------------------------------
        BYTE                   An0
        BYTE   W24
        BYTE                   En1
        BYTE   W24
        BYTE                   An0
        BYTE   W24
        BYTE                   En1
        BYTE   W24
// 037   ----------------------------------------
CombatDestinyCut_0_37:
        BYTE           N23     Fn0   v080
        BYTE   W24
        BYTE                   Cn1
        BYTE   W24
        BYTE                   Fn0
        BYTE   W24
        BYTE                   Cn1
        BYTE   W24
        BYTE   PEND
// 038   ----------------------------------------
CombatDestinyCut_0_38:
        BYTE           N23     En0   v080
        BYTE   W24
        BYTE                   Bn0
        BYTE   W24
        BYTE                   En0
        BYTE   W24
        BYTE                   Bn0
        BYTE   W24
        BYTE   PEND
// 039   ----------------------------------------
CombatDestinyCut_0_39:
        BYTE           N23     An0   v080
        BYTE   W24
        BYTE                   En1
        BYTE   W24
        BYTE                   Gn0
        BYTE   W24
        BYTE                   Dn1
        BYTE   W24
        BYTE   PEND
// 040   ----------------------------------------
        BYTE   PATT
         POIN2  CombatDestinyCut_0_37
// 041   ----------------------------------------
CombatDestinyCut_0_41:
        BYTE           N23     Dn1   v080
        BYTE   W24
        BYTE                   An1
        BYTE   W24
        BYTE                   Dn1
        BYTE   W24
        BYTE                   An1
        BYTE   W24
        BYTE   PEND
// 042   ----------------------------------------
        BYTE   PATT
         POIN2  CombatDestinyCut_0_38
// 043   ----------------------------------------
        BYTE   PATT
         POIN2  CombatDestinyCut_0_39
// 044   ----------------------------------------
        BYTE   PATT
         POIN2  CombatDestinyCut_0_41
// 045   ----------------------------------------
        BYTE           N23     En1   v080
        BYTE   W24
        BYTE                   Bn1
        BYTE   W24
        BYTE                   En1
        BYTE   W24
        BYTE                   Bn1
        BYTE   W24
// 046   ----------------------------------------
        BYTE           N92     Fn1   v080   gtp3
        BYTE   W96
// 047   ----------------------------------------
        BYTE           N44     As0   v080   gtp3
        BYTE   W48
        BYTE                   Bn0
        BYTE   W48
// 048   ----------------------------------------
CombatDestinyCut_0_48:
        BYTE           N44     En0   v080   gtp3
        BYTE   W48
        BYTE                   En0
        BYTE   W48
        BYTE   PEND
// 049   ----------------------------------------
        BYTE   PATT
         POIN2  CombatDestinyCut_0_48
// 050   ----------------------------------------
        BYTE           N92     En0   v080   gtp3
        BYTE   W96
// 051   ----------------------------------------
        BYTE                   En0
        BYTE   W96
// 052   ----------------------------------------
        BYTE                   An0
        BYTE   W96
// 053   ----------------------------------------
        BYTE                   Fn0
        BYTE   W96
// 054   ----------------------------------------
        BYTE                   En0
        BYTE   W96
// 055   ----------------------------------------
CombatDestinyCut_0_55:
        BYTE           N44     An0   v080   gtp3
        BYTE   W48
        BYTE                   Gn0
        BYTE   W48
        BYTE   PEND
// 056   ----------------------------------------
        BYTE           N92     Fn0   v080   gtp3
        BYTE   W96
// 057   ----------------------------------------
        BYTE                   Dn0
        BYTE   W96
// 058   ----------------------------------------
        BYTE                   En0
        BYTE   W96
// 059   ----------------------------------------
        BYTE                   En0
        BYTE   W96
// 060   ----------------------------------------
        BYTE                   An0
        BYTE   W96
// 061   ----------------------------------------
        BYTE                   Fn0
        BYTE   W96
// 062   ----------------------------------------
        BYTE                   En0
        BYTE   W96
// 063   ----------------------------------------
        BYTE   PATT
         POIN2  CombatDestinyCut_0_55
// 064   ----------------------------------------
        BYTE           N92     Fn0   v080   gtp3
        BYTE   W96
// 065   ----------------------------------------
        BYTE                   Dn0
        BYTE   W96
// 066   ----------------------------------------
        BYTE   PATT
         POIN2  CombatDestinyCut_0_48
// 067   ----------------------------------------
        BYTE           N92     An0   v080   gtp3
        BYTE   W96
// 068   ----------------------------------------
        BYTE                   En0
        BYTE   W96
// 069   ----------------------------------------
        BYTE                   En0
        BYTE   W96
// 070   ----------------------------------------
        BYTE           N23     An0
        BYTE   W24
        BYTE           TIE
        BYTE   W72
// 071   ----------------------------------------
        BYTE   W24
        BYTE           N68     En4   v053   gtp3
        BYTE   W68
        BYTE   W03
        BYTE           EOT     An0
        BYTE   W01
// 072   ----------------------------------------
        BYTE           TIE     Fn0   v080
        BYTE   W96
// 073   ----------------------------------------
        BYTE   W24
        BYTE           N68     An4   v053   gtp3
        BYTE   W68
        BYTE   W03
        BYTE           EOT     Fn0
        BYTE   W01
// 074   ----------------------------------------
        BYTE           TIE     Dn1   v080
        BYTE   W96
// 075   ----------------------------------------
        BYTE   W24
        BYTE           N68     Cn5   v053   gtp3
        BYTE   W68
        BYTE   W03
        BYTE           EOT     Dn1
        BYTE   W01
// 076   ----------------------------------------
        BYTE           N68     Dn5   v053   gtp3
        BYTE           TIE     En1   v080
        BYTE   W72
        BYTE           N23     En5   v053
        BYTE   W24
// 077   ----------------------------------------
        BYTE           N44     An5   v053   gtp3
        BYTE   W48
        BYTE           TIE     Bn5
        BYTE   W48
// 078   ----------------------------------------
        BYTE   W96
// 079   ----------------------------------------
        BYTE   W92
        BYTE   W03
        BYTE           EOT
        BYTE           EOT     En1
        BYTE   W01
// 080   ----------------------------------------
        BYTE           N23     An4   v119
        BYTE           N23     An1   v080
        BYTE   W24
        BYTE           N05
        BYTE   W06
        BYTE                   An1
        BYTE   W06
        BYTE                   An1
        BYTE   W06
        BYTE                   An1
        BYTE   W06
        BYTE           N23
        BYTE   W24
        BYTE           N05
        BYTE   W06
        BYTE                   An1
        BYTE   W06
        BYTE                   An1
        BYTE   W06
        BYTE                   An1
        BYTE   W06
// 081   ----------------------------------------
        BYTE           N23     Cn4   v117
        BYTE           N23     An1   v080
        BYTE   W24
        BYTE                   Cn4   v118
        BYTE   W24
        BYTE                   En4   v120
        BYTE   W24
        BYTE                   En4
        BYTE   W24
// 082   ----------------------------------------
        BYTE                   An4   v106
        BYTE           N23     Fn1   v080
        BYTE   W24
        BYTE           N05
        BYTE   W06
        BYTE                   Fn1
        BYTE   W06
        BYTE                   Fn1
        BYTE   W06
        BYTE                   Fn1
        BYTE   W06
        BYTE           N23
        BYTE   W24
        BYTE           N05
        BYTE   W06
        BYTE                   Fn1
        BYTE   W06
        BYTE                   Fn1
        BYTE   W06
        BYTE                   Fn1
        BYTE   W06
// 083   ----------------------------------------
        BYTE           N23     Cn4   v119
        BYTE           N23     Fn1   v080
        BYTE   W24
        BYTE                   Cn4   v118
        BYTE   W24
        BYTE                   En4   v120
        BYTE   W24
        BYTE                   En4   v122
        BYTE   W24
// 084   ----------------------------------------
        BYTE                   An4   v120
        BYTE           N23     Dn1   v080
        BYTE   W24
        BYTE           N05
        BYTE   W06
        BYTE                   Dn1
        BYTE   W06
        BYTE                   Dn1
        BYTE   W06
        BYTE                   Dn1
        BYTE   W06
        BYTE           N23
        BYTE   W24
        BYTE           N05
        BYTE   W06
        BYTE                   Dn1
        BYTE   W06
        BYTE                   Dn1
        BYTE   W06
        BYTE                   Dn1
        BYTE   W06
// 085   ----------------------------------------
        BYTE           N23     Cn4   v119
        BYTE           N23     Dn1   v080
        BYTE   W24
        BYTE                   Cn4   v114
        BYTE   W24
        BYTE                   En4   v115
        BYTE   W24
        BYTE                   En4   v121
        BYTE   W24
// 086   ----------------------------------------
        BYTE                   An4   v118
        BYTE           N23     En1   v080
        BYTE   W24
        BYTE           N05
        BYTE   W06
        BYTE                   En1
        BYTE   W06
        BYTE                   En1
        BYTE   W06
        BYTE                   En1
        BYTE   W06
        BYTE           N23
        BYTE   W24
        BYTE           N05
        BYTE   W06
        BYTE                   En1
        BYTE   W06
        BYTE                   En1
        BYTE   W06
        BYTE                   En1
        BYTE   W06
// 087   ----------------------------------------
        BYTE           N23     Cn4   v118
        BYTE           N23     En1   v080
        BYTE   W24
        BYTE                   Cn4   v115
        BYTE   W24
        BYTE                   En4   v121
        BYTE   W24
        BYTE                   En4
        BYTE   W24
// 088   ----------------------------------------
        BYTE                   An4
        BYTE           N23     An1   v080
        BYTE   W24
        BYTE           N05
        BYTE   W06
        BYTE                   An1
        BYTE   W06
        BYTE                   An1
        BYTE   W06
        BYTE                   An1
        BYTE   W06
        BYTE           N23
        BYTE   W24
        BYTE           N05
        BYTE   W06
        BYTE                   An1
        BYTE   W06
        BYTE                   An1
        BYTE   W06
        BYTE                   An1
        BYTE   W06
// 089   ----------------------------------------
        BYTE           N23     Cn4   v114
        BYTE           N23     An1   v080
        BYTE   W24
        BYTE                   Cn4   v118
        BYTE   W24
        BYTE                   En4   v119
        BYTE   W24
        BYTE                   En4   v120
        BYTE   W24
// 090   ----------------------------------------
        BYTE                   An4   v122
        BYTE           N23     Fn1   v080
        BYTE   W24
        BYTE           N05
        BYTE   W06
        BYTE                   Fn1
        BYTE   W06
        BYTE                   Fn1
        BYTE   W06
        BYTE                   Fn1
        BYTE   W06
        BYTE           N23
        BYTE   W24
        BYTE           N05
        BYTE   W06
        BYTE                   Fn1
        BYTE   W06
        BYTE                   Fn1
        BYTE   W06
        BYTE                   Fn1
        BYTE   W06
// 091   ----------------------------------------
        BYTE           N23     Cn4   v118
        BYTE           N23     Fn1   v080
        BYTE   W24
        BYTE                   Cn4   v115
        BYTE   W24
        BYTE                   En4   v121
        BYTE   W24
        BYTE                   En4   v122
        BYTE   W24
// 092   ----------------------------------------
        BYTE                   An4   v121
        BYTE           N23     Dn1   v080
        BYTE   W24
        BYTE           N05
        BYTE   W06
        BYTE                   Dn1
        BYTE   W06
        BYTE                   Dn1
        BYTE   W06
        BYTE                   Dn1
        BYTE   W06
        BYTE           N23
        BYTE   W24
        BYTE           N05
        BYTE   W06
        BYTE                   Dn1
        BYTE   W06
        BYTE                   Dn1
        BYTE   W06
        BYTE                   Dn1
        BYTE   W06
// 093   ----------------------------------------
        BYTE           N23     Cn4   v116
        BYTE           N23     Dn1   v080
        BYTE   W24
        BYTE                   Cn4   v117
        BYTE   W24
        BYTE                   En4   v120
        BYTE   W24
        BYTE                   En4   v122
        BYTE   W24
// 094   ----------------------------------------
        BYTE                   An4   v111
        BYTE           N23     En1   v080
        BYTE   W24
        BYTE           N05
        BYTE   W06
        BYTE                   En1
        BYTE   W06
        BYTE                   En1
        BYTE   W06
        BYTE                   En1
        BYTE   W06
        BYTE           N23
        BYTE   W24
        BYTE           N05
        BYTE   W06
        BYTE                   En1
        BYTE   W06
        BYTE                   En1
        BYTE   W06
        BYTE                   En1
        BYTE   W06
// 095   ----------------------------------------
        BYTE           N23     Cn4   v116
        BYTE           N23     En1   v080
        BYTE   W24
        BYTE                   Cn4   v117
        BYTE   W24
        BYTE                   En4   v120
        BYTE   W24
        BYTE                   En4   v122
        BYTE   W24
// 096   ----------------------------------------
        BYTE                   An4   v112
        BYTE           N23     An0   v096
        BYTE   W24
        BYTE                   En4
        BYTE           N23     En1
        BYTE   W24
        BYTE           N11     An4
        BYTE           N23     An0
        BYTE   W12
        BYTE           N11     Bn4
        BYTE   W12
        BYTE                   Cn5
        BYTE           N23     En1
        BYTE   W12
        BYTE           N11     Dn5
        BYTE   W12
// 097   ----------------------------------------
        BYTE           N68     En5   v096   gtp3
        BYTE           N23     Fn0
        BYTE   W24
        BYTE                   Cn1
        BYTE   W24
        BYTE                   Fn0
        BYTE   W24
        BYTE           N11     Dn5
        BYTE           N23     Cn1
        BYTE   W12
        BYTE           N11     Cn5
        BYTE   W12
// 098   ----------------------------------------
        BYTE           N44     Dn5   v096   gtp3
        BYTE           N23     En0
        BYTE   W24
        BYTE                   Bn0
        BYTE   W24
        BYTE                   Dn5
        BYTE           N23     En0
        BYTE   W24
        BYTE           N11     Gn5
        BYTE           N23     Bn0
        BYTE   W12
        BYTE           TIE     En5
        BYTE   W12
// 099   ----------------------------------------
        BYTE           N23     An0
        BYTE   W24
        BYTE                   En1
        BYTE   W24
        BYTE                   Gn0
        BYTE   W24
        BYTE                   Dn1
        BYTE   W23
        BYTE           EOT     En5
        BYTE   W01
// 100   ----------------------------------------
        BYTE           N56     An4   v096   gtp3
        BYTE           N23     Fn0
        BYTE   W24
        BYTE                   Cn1
        BYTE   W24
        BYTE                   Fn0
        BYTE   W12
        BYTE           N11     Bn4
        BYTE   W12
        BYTE                   Cn5
        BYTE           N23     Cn1
        BYTE   W12
        BYTE           N11     Dn5
        BYTE   W12
// 101   ----------------------------------------
        BYTE           N68     En5   v096   gtp3
        BYTE           N23     Dn1
        BYTE   W24
        BYTE                   An1
        BYTE   W24
        BYTE                   Dn1
        BYTE   W24
        BYTE           N11     Dn5
        BYTE           N23     An1
        BYTE   W12
        BYTE           N11     Cn5
        BYTE   W12
// 102   ----------------------------------------
        BYTE           N32     Dn5   v096   gtp3
        BYTE           N23     En0
        BYTE   W24
        BYTE                   Bn0
        BYTE   W12
        BYTE           N32     Bn4   v096   gtp3
        BYTE   W12
        BYTE           N23     En0
        BYTE   W24
        BYTE                   Gn4
        BYTE           N23     Bn0
        BYTE   W24
// 103   ----------------------------------------
        BYTE           N68     En4   v096   gtp3
        BYTE           N23     An0
        BYTE   W24
        BYTE                   En1
        BYTE   W24
        BYTE                   Gn0
        BYTE   W24
        BYTE                   Dn1
        BYTE   W24
// 104   ----------------------------------------
        BYTE           N32     An3   v096   gtp3
        BYTE           N23     Dn1
        BYTE   W24
        BYTE                   An1
        BYTE   W12
        BYTE           N32     Bn3   v096   gtp3
        BYTE   W12
        BYTE           N23     Dn1
        BYTE   W24
        BYTE                   Cn4
        BYTE           N23     An1
        BYTE   W24
// 105   ----------------------------------------
        BYTE                   Dn4
        BYTE           N23     En1
        BYTE   W24
        BYTE           N11     En4
        BYTE           N23     Bn1
        BYTE   W12
        BYTE           N56     Dn4   v096   gtp3
        BYTE   W12
        BYTE           N23     En1
        BYTE   W24
        BYTE                   Bn1
        BYTE   W24
// 106   ----------------------------------------
        BYTE           N32     Bn3   v096   gtp3
        BYTE           N92     Fn1   v096   gtp3
        BYTE   W36
        BYTE           N32     Cn4   v096   gtp3
        BYTE   W36
        BYTE           N23     Dn4
        BYTE   W24
// 107   ----------------------------------------
        BYTE                   En4
        BYTE           N44     As0   v096   gtp3
        BYTE   W24
        BYTE           N11     Fn4
        BYTE   W12
        BYTE           N32     En4   v096   gtp3
        BYTE   W12
        BYTE           N44     Bn0   v096   gtp3
        BYTE   W24
        BYTE           N23     Dn4
        BYTE   W24
// 108   ----------------------------------------
        BYTE           N44     Cn4   v096   gtp3
        BYTE                   En0
        BYTE   W48
        BYTE                   Bn3
        BYTE           N44     En0   v096   gtp3
        BYTE   W48
// 109   ----------------------------------------
        BYTE                   Fn4
        BYTE           N44     En0   v096   gtp3
        BYTE   W48
        BYTE                   En4
        BYTE           N44     En0   v096   gtp3
        BYTE   W48
// 110   ----------------------------------------
        BYTE           TIE     En4
        BYTE           N92     En0   v096   gtp3
        BYTE   W96
// 111   ----------------------------------------
        BYTE                   En0
        BYTE   W92
        BYTE   W03
        BYTE           EOT     En4
        BYTE   W01
// 112   ----------------------------------------
CombatDestinyCut_0_112:
        BYTE           N23     Cn5   v096
        BYTE           N92     An0   v096   gtp3
        BYTE   W24
        BYTE           N11     Bn4
        BYTE   W12
        BYTE           N23     Cn5
        BYTE   W24
        BYTE           N32     En5   v096   gtp3
        BYTE   W36
        BYTE   PEND
// 113   ----------------------------------------
CombatDestinyCut_0_113:
        BYTE           N44     An5   v096   gtp3
        BYTE           N92     Fn0   v096   gtp3
        BYTE   W48
        BYTE           N23     Bn5
        BYTE   W24
        BYTE                   Cn6
        BYTE   W24
        BYTE   PEND
// 114   ----------------------------------------
        BYTE           N44     Bn5   v096   gtp3
        BYTE           N92     En0   v096   gtp3
        BYTE   W48
        BYTE           N23     Gn5
        BYTE   W24
        BYTE           N11     Dn5
        BYTE   W12
        BYTE           TIE     En5
        BYTE   W12
// 115   ----------------------------------------
CombatDestinyCut_0_115:
        BYTE           N44     An0   v096   gtp3
        BYTE   W48
        BYTE                   Gn0
        BYTE   W44
        BYTE   W03
        BYTE           EOT     En5
        BYTE   W01
        BYTE   PEND
// 116   ----------------------------------------
CombatDestinyCut_0_116:
        BYTE           N23     An5   v096
        BYTE           N92     Fn0   v096   gtp3
        BYTE   W24
        BYTE           N11     Gn5
        BYTE   W12
        BYTE           N32     En5   v096   gtp3
        BYTE   W36
        BYTE           N23     Cn5
        BYTE   W24
        BYTE   PEND
// 117   ----------------------------------------
CombatDestinyCut_0_117:
        BYTE           N68     An4   v096   gtp3
        BYTE           N92     Dn0   v096   gtp3
        BYTE   W72
        BYTE           N23     Cn5
        BYTE   W24
        BYTE   PEND
// 118   ----------------------------------------
        BYTE           N92     Dn5   v096   gtp3
        BYTE                   En0
        BYTE   W96
// 119   ----------------------------------------
        BYTE                   En5
        BYTE           N92     En0   v096   gtp3
        BYTE   W96
// 120   ----------------------------------------
        BYTE   PATT
         POIN2  CombatDestinyCut_0_112
// 121   ----------------------------------------
        BYTE   PATT
         POIN2  CombatDestinyCut_0_113
// 122   ----------------------------------------
        BYTE           N44     Dn6   v096   gtp3
        BYTE           N92     En0   v096   gtp3
        BYTE   W48
        BYTE           N23     Bn5
        BYTE   W24
        BYTE           N11     Gn5
        BYTE   W12
        BYTE           TIE     En5
        BYTE   W12
// 123   ----------------------------------------
        BYTE   PATT
         POIN2  CombatDestinyCut_0_115
// 124   ----------------------------------------
        BYTE   PATT
         POIN2  CombatDestinyCut_0_116
// 125   ----------------------------------------
        BYTE   PATT
         POIN2  CombatDestinyCut_0_117
// 126   ----------------------------------------
        BYTE           N44     Dn5   v096   gtp3
        BYTE                   En0
        BYTE   W48
        BYTE                   Bn4
        BYTE           N44     En0   v096   gtp3
        BYTE   W48
// 127   ----------------------------------------
        BYTE           N68     An4   v096   gtp3
        BYTE           N92     An0   v096   gtp3
        BYTE   W72
        BYTE           N23     Cn6
        BYTE   W24
// 128   ----------------------------------------
        BYTE           N92     Dn6   v096   gtp3
        BYTE                   En0
        BYTE   W96
// 129   ----------------------------------------
        BYTE                   Bn5
        BYTE           N92     En0   v096   gtp3
        BYTE   W96
// 130   ----------------------------------------
        BYTE           N68     An5   v096   gtp3
        BYTE           TIE     An0   v098
        BYTE   W96
// 131   ----------------------------------------
        BYTE   W92
        BYTE   W03
        BYTE           EOT
        BYTE   W01
// 132   ----------------------------------------
        BYTE           TIE     Fn0   v096
        BYTE   W96
// 133   ----------------------------------------
        BYTE   W92
        BYTE   W03
        BYTE           EOT
        BYTE   W01
// 134   ----------------------------------------
        BYTE           TIE     Dn1
        BYTE   W96
// 135   ----------------------------------------
        BYTE   W92
        BYTE   W03
        BYTE           EOT
        BYTE   W01
// 136   ----------------------------------------
        BYTE           TIE     En1
        BYTE   W96
// 137   ----------------------------------------
        BYTE   W96
// 138   ----------------------------------------
        BYTE   W96
// 139   ----------------------------------------
        BYTE   W92
        BYTE   W03
        BYTE           EOT
        BYTE   W01
// 140   ----------------------------------------
        BYTE   GoTo
         POIN2  CombatDestinyCut_0_LOOP
        BYTE   FINE

//****************** Track 1 (Midi-Chn.1) ******************//

CombatDestinyCut_1:
        BYTE   KEYSH   CombatDestinyCut_key+0
// 000   ----------------------------------------
        BYTE           VOICE   55
        BYTE           VOL     40
        BYTE           PAN     c_v-11
        BYTE           BENDR   12
        BYTE   W96
// 001   ----------------------------------------
        BYTE   W96
// 002   ----------------------------------------
        BYTE   W96
// 003   ----------------------------------------
        BYTE   W96
// 004   ----------------------------------------
        BYTE   W96
// 005   ----------------------------------------
        BYTE   W96
// 006   ----------------------------------------
        BYTE   W96
// 007   ----------------------------------------
        BYTE   W96
// 008   ----------------------------------------
        BYTE   W96
// 009   ----------------------------------------
        BYTE   W96
// 010   ----------------------------------------
        BYTE   W96
// 011   ----------------------------------------
        BYTE   W96
// 012   ----------------------------------------
        BYTE   W96
// 013   ----------------------------------------
        BYTE   W96
// 014   ----------------------------------------
        BYTE   W96
// 015   ----------------------------------------
        BYTE   W96
// 016   ----------------------------------------
        BYTE   W96
// 017   ----------------------------------------
        BYTE   W96
// 018   ----------------------------------------
        BYTE   W96
// 019   ----------------------------------------
        BYTE   W96
// 020   ----------------------------------------
CombatDestinyCut_1_LOOP:
        BYTE   W96
// 021   ----------------------------------------
        BYTE   W96
// 022   ----------------------------------------
        BYTE   W96
// 023   ----------------------------------------
        BYTE   W96
// 024   ----------------------------------------
        BYTE   W96
// 025   ----------------------------------------
        BYTE   W96
// 026   ----------------------------------------
        BYTE   W96
// 027   ----------------------------------------
        BYTE   W96
// 028   ----------------------------------------
        BYTE   W96
// 029   ----------------------------------------
        BYTE   W96
// 030   ----------------------------------------
        BYTE   W96
// 031   ----------------------------------------
        BYTE   W96
// 032   ----------------------------------------
        BYTE   W96
// 033   ----------------------------------------
        BYTE   W96
// 034   ----------------------------------------
        BYTE   W96
// 035   ----------------------------------------
        BYTE   W96
// 036   ----------------------------------------
        BYTE   W96
// 037   ----------------------------------------
        BYTE   W96
// 038   ----------------------------------------
        BYTE   W96
// 039   ----------------------------------------
        BYTE   W96
// 040   ----------------------------------------
        BYTE   W96
// 041   ----------------------------------------
        BYTE   W96
// 042   ----------------------------------------
        BYTE   W96
// 043   ----------------------------------------
        BYTE   W96
// 044   ----------------------------------------
        BYTE   W96
// 045   ----------------------------------------
        BYTE   W96
// 046   ----------------------------------------
        BYTE   W96
// 047   ----------------------------------------
        BYTE   W96
// 048   ----------------------------------------
        BYTE   W96
// 049   ----------------------------------------
        BYTE   W96
// 050   ----------------------------------------
        BYTE   W96
// 051   ----------------------------------------
        BYTE   W96
// 052   ----------------------------------------
        BYTE   W96
// 053   ----------------------------------------
        BYTE   W96
// 054   ----------------------------------------
        BYTE   W96
// 055   ----------------------------------------
        BYTE   W96
// 056   ----------------------------------------
        BYTE   W96
// 057   ----------------------------------------
        BYTE   W96
// 058   ----------------------------------------
        BYTE   W96
// 059   ----------------------------------------
        BYTE   W96
// 060   ----------------------------------------
        BYTE   W96
// 061   ----------------------------------------
        BYTE   W96
// 062   ----------------------------------------
        BYTE   W96
// 063   ----------------------------------------
        BYTE   W96
// 064   ----------------------------------------
        BYTE   W96
// 065   ----------------------------------------
        BYTE   W96
// 066   ----------------------------------------
        BYTE   W96
// 067   ----------------------------------------
        BYTE   W96
// 068   ----------------------------------------
        BYTE   W96
// 069   ----------------------------------------
        BYTE   W96
// 070   ----------------------------------------
        BYTE   W96
// 071   ----------------------------------------
        BYTE   W24
        BYTE           N92     Cn3   v065   gtp3
        BYTE   W72
// 072   ----------------------------------------
        BYTE   W96
// 073   ----------------------------------------
        BYTE   W24
        BYTE                   An2   v079
        BYTE   W72
// 074   ----------------------------------------
        BYTE   W96
// 075   ----------------------------------------
        BYTE   W24
        BYTE                   Fn2
        BYTE   W72
// 076   ----------------------------------------
        BYTE   W96
// 077   ----------------------------------------
        BYTE   W24
        BYTE           TIE     Bn2   v061
        BYTE   W72
// 078   ----------------------------------------
        BYTE   W44
        BYTE   W03
        BYTE           EOT
        BYTE   W48
        BYTE   W01
// 079   ----------------------------------------
        BYTE   W96
// 080   ----------------------------------------
        BYTE           N23     An3   v119
        BYTE   W96
// 081   ----------------------------------------
        BYTE                   Cn3   v117
        BYTE   W24
        BYTE                   Cn3   v118
        BYTE   W24
        BYTE                   En3   v120
        BYTE   W24
        BYTE                   En3
        BYTE   W24
// 082   ----------------------------------------
        BYTE                   An3   v106
        BYTE   W96
// 083   ----------------------------------------
        BYTE                   Cn3   v119
        BYTE   W24
        BYTE                   Cn3   v118
        BYTE   W24
        BYTE                   En3   v120
        BYTE   W24
        BYTE                   En3   v122
        BYTE   W24
// 084   ----------------------------------------
        BYTE                   An3   v120
        BYTE   W96
// 085   ----------------------------------------
        BYTE                   Cn3   v119
        BYTE   W24
        BYTE                   Cn3   v114
        BYTE   W24
        BYTE                   En3   v115
        BYTE   W24
        BYTE                   En3   v121
        BYTE   W24
// 086   ----------------------------------------
        BYTE                   An3   v118
        BYTE   W96
// 087   ----------------------------------------
        BYTE                   Cn3
        BYTE   W24
        BYTE                   Cn3   v115
        BYTE   W24
        BYTE                   En3   v121
        BYTE   W24
        BYTE                   En3
        BYTE   W24
// 088   ----------------------------------------
        BYTE                   An3
        BYTE   W96
// 089   ----------------------------------------
        BYTE                   Cn3   v114
        BYTE   W24
        BYTE                   Cn3   v118
        BYTE   W24
        BYTE                   En3   v119
        BYTE   W24
        BYTE                   En3   v120
        BYTE   W24
// 090   ----------------------------------------
        BYTE                   An3   v122
        BYTE   W96
// 091   ----------------------------------------
        BYTE                   Cn3   v118
        BYTE   W24
        BYTE                   Cn3   v115
        BYTE   W24
        BYTE                   En3   v121
        BYTE   W24
        BYTE                   En3   v122
        BYTE   W24
// 092   ----------------------------------------
        BYTE                   An3   v121
        BYTE   W96
// 093   ----------------------------------------
CombatDestinyCut_1_93:
        BYTE           N23     Cn3   v116
        BYTE   W24
        BYTE                   Cn3   v117
        BYTE   W24
        BYTE                   En3   v120
        BYTE   W24
        BYTE                   En3   v122
        BYTE   W24
        BYTE   PEND
// 094   ----------------------------------------
        BYTE                   An3   v111
        BYTE   W96
// 095   ----------------------------------------
        BYTE   PATT
         POIN2  CombatDestinyCut_1_93
// 096   ----------------------------------------
        BYTE           N92     An3   v112   gtp3
        BYTE   W96
// 097   ----------------------------------------
        BYTE                   Cn3   v096
        BYTE   W96
// 098   ----------------------------------------
        BYTE                   Cn3   v071
        BYTE   W96
// 099   ----------------------------------------
        BYTE                   Bn2
        BYTE   W96
// 100   ----------------------------------------
        BYTE           N44     Gn2   v071   gtp3
        BYTE   W48
        BYTE                   Gn2
        BYTE   W48
// 101   ----------------------------------------
        BYTE           N92     Cn3   v071   gtp3
        BYTE   W96
// 102   ----------------------------------------
        BYTE                   Cn3
        BYTE   W96
// 103   ----------------------------------------
        BYTE                   Bn2
        BYTE   W96
// 104   ----------------------------------------
        BYTE           N44     An2   v071   gtp3
        BYTE   W48
        BYTE                   Gn2
        BYTE   W48
// 105   ----------------------------------------
        BYTE           N92     Cn3   v071   gtp3
        BYTE   W96
// 106   ----------------------------------------
        BYTE                   En3
        BYTE   W96
// 107   ----------------------------------------
        BYTE           N68     En3   v071   gtp3
        BYTE   W72
        BYTE           N23     An2
        BYTE   W24
// 108   ----------------------------------------
        BYTE           N44     As2   v071   gtp3
        BYTE   W48
        BYTE                   Bn2
        BYTE   W48
// 109   ----------------------------------------
        BYTE                   An2
        BYTE   W48
        BYTE                   Gs2
        BYTE   W48
// 110   ----------------------------------------
        BYTE                   Gs2
        BYTE   W48
        BYTE                   Gs2
        BYTE   W48
// 111   ----------------------------------------
        BYTE           N23     En3   v075
        BYTE   W24
        BYTE                   Bn2
        BYTE   W24
        BYTE                   Gs2
        BYTE   W24
        BYTE                   En2
        BYTE   W24
// 112   ----------------------------------------
CombatDestinyCut_1_112:
        BYTE           N23     An3   v096
        BYTE   W24
        BYTE           N11     Gn3
        BYTE   W12
        BYTE           N23     An3
        BYTE   W24
        BYTE           N32     Cn4   v096   gtp3
        BYTE   W36
        BYTE   PEND
// 113   ----------------------------------------
CombatDestinyCut_1_113:
        BYTE           N44     En4   v096   gtp3
        BYTE   W48
        BYTE           N23     Gn4
        BYTE   W24
        BYTE                   An4
        BYTE   W24
        BYTE   PEND
// 114   ----------------------------------------
        BYTE           N44     Gn4   v096   gtp3
        BYTE   W48
        BYTE           N23     En4
        BYTE   W24
        BYTE           N11     Bn3
        BYTE   W12
        BYTE                   Cn4
        BYTE   W12
// 115   ----------------------------------------
CombatDestinyCut_1_115:
        BYTE           N44     Cn4   v096   gtp3
        BYTE   W48
        BYTE                   Bn3
        BYTE   W48
        BYTE   PEND
// 116   ----------------------------------------
        BYTE           N23     En4
        BYTE   W24
        BYTE           N11     Dn4
        BYTE   W12
        BYTE           N32     Cn4   v096   gtp3
        BYTE   W36
        BYTE           N23     An3
        BYTE   W24
// 117   ----------------------------------------
CombatDestinyCut_1_117:
        BYTE           N68     Fn3   v096   gtp3
        BYTE   W72
        BYTE           N23     Gn3
        BYTE   W24
        BYTE   PEND
// 118   ----------------------------------------
        BYTE           N92     Gn3   v096   gtp3
        BYTE   W96
// 119   ----------------------------------------
        BYTE                   Gs3
        BYTE   W96
// 120   ----------------------------------------
        BYTE   PATT
         POIN2  CombatDestinyCut_1_112
// 121   ----------------------------------------
        BYTE   PATT
         POIN2  CombatDestinyCut_1_113
// 122   ----------------------------------------
        BYTE           N44     Bn4   v096   gtp3
        BYTE   W48
        BYTE           N23     Gn4
        BYTE   W24
        BYTE           N11     En4
        BYTE   W12
        BYTE           N56     Cn4   v096   gtp3
        BYTE   W12
// 123   ----------------------------------------
        BYTE   W48
        BYTE           N44     Bn3   v096   gtp3
        BYTE   W48
// 124   ----------------------------------------
        BYTE           N23     Cn4
        BYTE   W24
        BYTE           N11     An3
        BYTE   W12
        BYTE           N32     An3   v096   gtp3
        BYTE   W36
        BYTE           N23     En3
        BYTE   W24
// 125   ----------------------------------------
        BYTE   PATT
         POIN2  CombatDestinyCut_1_117
// 126   ----------------------------------------
        BYTE           N44     Gn3   v096   gtp3
        BYTE   W48
        BYTE                   Gs3
        BYTE   W48
// 127   ----------------------------------------
        BYTE           N68     An3   v096   gtp3
        BYTE   W72
        BYTE           N23     En4
        BYTE   W24
// 128   ----------------------------------------
        BYTE           N92     Gs4   v096   gtp3
        BYTE   W96
// 129   ----------------------------------------
        BYTE                   En4
        BYTE   W96
// 130   ----------------------------------------
        BYTE           N68     En4   v096   gtp3
        BYTE   W96
// 131   ----------------------------------------
        BYTE   W96
// 132   ----------------------------------------
        BYTE   W96
// 133   ----------------------------------------
        BYTE   W96
// 134   ----------------------------------------
        BYTE   W96
// 135   ----------------------------------------
        BYTE   W96
// 136   ----------------------------------------
        BYTE   W96
// 137   ----------------------------------------
        BYTE   W96
// 138   ----------------------------------------
        BYTE   W96
// 139   ----------------------------------------
        BYTE   W96
// 140   ----------------------------------------
        BYTE   GoTo
         POIN2  CombatDestinyCut_1_LOOP
        BYTE   FINE

//****************** Track 2 (Midi-Chn.2) ******************//

CombatDestinyCut_2:
        BYTE   KEYSH   CombatDestinyCut_key+0
// 000   ----------------------------------------
        BYTE           VOICE   30
        BYTE           VOL     27
        BYTE           PAN     c_v+8
        BYTE           BENDR   12
        BYTE   W96
// 001   ----------------------------------------
        BYTE   W96
// 002   ----------------------------------------
        BYTE   W96
// 003   ----------------------------------------
        BYTE   W96
// 004   ----------------------------------------
        BYTE   W96
// 005   ----------------------------------------
        BYTE   W96
// 006   ----------------------------------------
        BYTE   W96
// 007   ----------------------------------------
        BYTE   W96
// 008   ----------------------------------------
        BYTE   W96
// 009   ----------------------------------------
        BYTE   W96
// 010   ----------------------------------------
        BYTE           TIE     En2   v080
        BYTE   W96
// 011   ----------------------------------------
        BYTE   W92
        BYTE   W03
        BYTE           EOT
        BYTE   W01
// 012   ----------------------------------------
        BYTE           TIE     Cn2
        BYTE   W96
// 013   ----------------------------------------
        BYTE   W92
        BYTE   W03
        BYTE           EOT
        BYTE   W01
// 014   ----------------------------------------
        BYTE           TIE     An1
        BYTE   W96
// 015   ----------------------------------------
        BYTE   W92
        BYTE   W03
        BYTE           EOT
        BYTE   W01
// 016   ----------------------------------------
        BYTE           TIE     Bn1
        BYTE   W96
// 017   ----------------------------------------
CombatDestinyCut_2_17:
        BYTE   W72
        BYTE           N13     An1   v080
        BYTE   W13
        BYTE           N02     As1   v056
        BYTE   W02
        BYTE           EOT     Bn1
        BYTE           N01
        BYTE   W01
        BYTE           N02     Cn2
        BYTE   W02
        BYTE                   Cs2
        BYTE   W02
        BYTE                   Dn2
        BYTE   W02
        BYTE           N01     Ds2
        BYTE   W02
        BYTE   PEND
// 018   ----------------------------------------
        BYTE           TIE     En2   v080
        BYTE   W96
// 019   ----------------------------------------
        BYTE   W44
        BYTE   W03
        BYTE           EOT
        BYTE   W13
        BYTE           N06     An0
        BYTE   W06
        BYTE           N01     As0   v056
        BYTE   W01
        BYTE                   Bn0
        BYTE   W01
        BYTE                   Cn1
        BYTE   W01
        BYTE                   Cs1
        BYTE   W01
        BYTE                   Dn1
        BYTE   W01
        BYTE                   Ds1
        BYTE   W01
        BYTE           N23     En1   v080
        BYTE   W24
// 020   ----------------------------------------
CombatDestinyCut_2_LOOP:
        BYTE           N11     An0   v080
        BYTE           N23     En2
        BYTE   W12
        BYTE           N11     An0
        BYTE   W12
        BYTE                   An0
        BYTE           N05     En2
        BYTE   W06
        BYTE                   En2
        BYTE   W06
        BYTE           N03     An0
        BYTE           N05     En2
        BYTE   W04
        BYTE           N03     An0
        BYTE   W02
        BYTE           N05     En2
        BYTE   W06
        BYTE           N23
        BYTE   W04
        BYTE           N03     An0
        BYTE   W08
        BYTE           N11
        BYTE   W12
        BYTE                   An0
        BYTE           N05     En2
        BYTE   W06
        BYTE                   En2
        BYTE   W06
        BYTE           N11     An0
        BYTE           N05     En2
        BYTE   W06
        BYTE                   En2
        BYTE   W06
// 021   ----------------------------------------
CombatDestinyCut_2_21:
        BYTE           N11     An0   v080
        BYTE           N23     En2
        BYTE   W12
        BYTE           N11     An0
        BYTE   W12
        BYTE                   An0
        BYTE   W12
        BYTE           N03
        BYTE   W04
        BYTE                   An0
        BYTE   W12
        BYTE                   An0
        BYTE   W08
        BYTE           N11
        BYTE   W12
        BYTE                   An0
        BYTE   W12
        BYTE                   An0
        BYTE   W12
        BYTE   PEND
// 022   ----------------------------------------
CombatDestinyCut_2_22:
        BYTE           N11     Fn0   v080
        BYTE           N23     An2
        BYTE   W12
        BYTE           N11     Fn0
        BYTE   W12
        BYTE                   Fn0
        BYTE           N05     An2
        BYTE   W06
        BYTE                   An2
        BYTE   W06
        BYTE           N03     Fn0
        BYTE           N05     An2
        BYTE   W04
        BYTE           N03     Fn0
        BYTE   W02
        BYTE           N05     An2
        BYTE   W06
        BYTE           N23
        BYTE   W04
        BYTE           N03     Fn0
        BYTE   W08
        BYTE           N11
        BYTE   W12
        BYTE                   Fn0
        BYTE           N05     An2
        BYTE   W06
        BYTE                   An2
        BYTE   W06
        BYTE           N11     Fn0
        BYTE           N05     An2
        BYTE   W06
        BYTE                   An2
        BYTE   W06
        BYTE   PEND
// 023   ----------------------------------------
CombatDestinyCut_2_23:
        BYTE           N11     Fn0   v080
        BYTE           N23     An2
        BYTE   W12
        BYTE           N11     Fn0
        BYTE   W12
        BYTE                   Fn0
        BYTE   W12
        BYTE           N03     Gn0
        BYTE   W04
        BYTE                   Fn1
        BYTE   W12
        BYTE                   Fn1
        BYTE   W08
        BYTE           N11
        BYTE   W12
        BYTE                   En1
        BYTE   W12
        BYTE                   En1
        BYTE   W12
        BYTE   PEND
// 024   ----------------------------------------
CombatDestinyCut_2_24:
        BYTE           N11     Dn1   v080
        BYTE           N23     An2
        BYTE   W12
        BYTE           N11     Dn1
        BYTE   W12
        BYTE                   Dn1
        BYTE           N05     Fn2
        BYTE   W06
        BYTE                   Fn2
        BYTE   W06
        BYTE           N03     Dn1
        BYTE           N05     Fn2
        BYTE   W04
        BYTE           N03     Dn1
        BYTE   W02
        BYTE           N05     Fn2
        BYTE   W06
        BYTE           N23
        BYTE   W04
        BYTE           N03     Dn1
        BYTE   W08
        BYTE           N11
        BYTE   W12
        BYTE                   Dn1
        BYTE           N05     Fn2
        BYTE   W06
        BYTE                   Fn2
        BYTE   W06
        BYTE           N11     Dn1
        BYTE           N05     Fn2
        BYTE   W06
        BYTE                   Fn2
        BYTE   W06
        BYTE   PEND
// 025   ----------------------------------------
CombatDestinyCut_2_25:
        BYTE           N11     Dn1   v080
        BYTE           N23     Fn2
        BYTE   W12
        BYTE           N11     Dn1
        BYTE   W12
        BYTE                   Dn1
        BYTE   W12
        BYTE           N03
        BYTE   W04
        BYTE                   Dn1
        BYTE   W12
        BYTE                   Dn1
        BYTE   W08
        BYTE           N11
        BYTE   W12
        BYTE                   Dn1
        BYTE   W12
        BYTE                   Dn1
        BYTE   W12
        BYTE   PEND
// 026   ----------------------------------------
CombatDestinyCut_2_26:
        BYTE           N11     En1   v080
        BYTE           N23     Gn2
        BYTE   W12
        BYTE           N11     En1
        BYTE   W12
        BYTE                   En1
        BYTE           N05     Gn2
        BYTE   W06
        BYTE                   Gn2
        BYTE   W06
        BYTE           N03     En1
        BYTE           N05     Gn2
        BYTE   W04
        BYTE           N03     En1
        BYTE   W02
        BYTE           N05     Gn2
        BYTE   W06
        BYTE           N23
        BYTE   W04
        BYTE           N03     En1
        BYTE   W08
        BYTE           N11
        BYTE   W12
        BYTE                   En1
        BYTE           N05     Gn2
        BYTE   W06
        BYTE                   Gn2
        BYTE   W06
        BYTE           N11     En1
        BYTE           N05     Gn2
        BYTE   W06
        BYTE                   Gn2
        BYTE   W06
        BYTE   PEND
// 027   ----------------------------------------
CombatDestinyCut_2_27:
        BYTE           N11     En0   v080
        BYTE           N23     Gn2
        BYTE   W12
        BYTE           N11     En1
        BYTE   W12
        BYTE                   En0
        BYTE   W12
        BYTE           N03
        BYTE   W04
        BYTE                   En0
        BYTE   W12
        BYTE                   En0
        BYTE   W08
        BYTE           N11
        BYTE   W12
        BYTE                   Gn0
        BYTE   W12
        BYTE                   Gn0
        BYTE   W12
        BYTE   PEND
// 028   ----------------------------------------
CombatDestinyCut_2_28:
        BYTE           N11     An0   v080
        BYTE           N23     En2
        BYTE   W12
        BYTE           N11     An0
        BYTE   W12
        BYTE                   An0
        BYTE           N05     En2
        BYTE   W06
        BYTE                   En2
        BYTE   W06
        BYTE           N03     An0
        BYTE           N05     En2
        BYTE   W04
        BYTE           N03     An0
        BYTE   W02
        BYTE           N05     En2
        BYTE   W06
        BYTE           N23
        BYTE   W04
        BYTE           N03     An0
        BYTE   W08
        BYTE           N11
        BYTE   W12
        BYTE                   An0
        BYTE           N05     En2
        BYTE   W06
        BYTE                   En2
        BYTE   W06
        BYTE           N11     An0
        BYTE           N05     En2
        BYTE   W06
        BYTE                   En2
        BYTE   W06
        BYTE   PEND
// 029   ----------------------------------------
        BYTE   PATT
         POIN2  CombatDestinyCut_2_21
// 030   ----------------------------------------
CombatDestinyCut_2_30:
        BYTE           N11     Fn0   v080
        BYTE           N23     An2
        BYTE   W12
        BYTE           N11     Fn0
        BYTE   W12
        BYTE                   Fn0
        BYTE           N05     An2
        BYTE   W06
        BYTE                   An2
        BYTE   W06
        BYTE           N03     Fn0
        BYTE           N05     An2
        BYTE   W04
        BYTE           N03     Fn1
        BYTE   W02
        BYTE           N05     An2
        BYTE   W06
        BYTE           N23
        BYTE   W04
        BYTE           N03     Fn0
        BYTE   W08
        BYTE           N11
        BYTE   W12
        BYTE                   Fn0
        BYTE           N05     An2
        BYTE   W06
        BYTE                   An2
        BYTE   W06
        BYTE           N11     Fn0
        BYTE           N05     An2
        BYTE   W06
        BYTE                   An2
        BYTE   W06
        BYTE   PEND
// 031   ----------------------------------------
        BYTE   PATT
         POIN2  CombatDestinyCut_2_23
// 032   ----------------------------------------
CombatDestinyCut_2_32:
        BYTE           N11     Dn1   v080
        BYTE           N23     An2
        BYTE   W12
        BYTE           N11     Dn1
        BYTE   W12
        BYTE                   Dn1
        BYTE           N05     An2
        BYTE   W06
        BYTE                   An2
        BYTE   W06
        BYTE           N03     Dn1
        BYTE           N05     An2
        BYTE   W04
        BYTE           N03     Dn1
        BYTE   W02
        BYTE           N05     An2
        BYTE   W06
        BYTE           N23
        BYTE   W04
        BYTE           N03     Dn1
        BYTE   W08
        BYTE           N11
        BYTE   W12
        BYTE                   Dn1
        BYTE           N05     An2
        BYTE   W06
        BYTE                   An2
        BYTE   W06
        BYTE           N11     Dn1
        BYTE           N05     An2
        BYTE   W06
        BYTE                   An2
        BYTE   W06
        BYTE   PEND
// 033   ----------------------------------------
CombatDestinyCut_2_33:
        BYTE           N11     Dn1   v080
        BYTE           N23     An2
        BYTE   W12
        BYTE           N11     Dn1
        BYTE   W12
        BYTE                   Dn1
        BYTE   W12
        BYTE           N03
        BYTE   W04
        BYTE                   Dn1
        BYTE   W12
        BYTE                   Dn1
        BYTE   W08
        BYTE           N11
        BYTE   W12
        BYTE                   Dn1
        BYTE   W12
        BYTE                   Dn1
        BYTE   W12
        BYTE   PEND
// 034   ----------------------------------------
CombatDestinyCut_2_34:
        BYTE           N11     En1   v080
        BYTE           N23     Bn2
        BYTE   W12
        BYTE           N11     En1
        BYTE   W12
        BYTE                   En1
        BYTE           N05     Bn2
        BYTE   W06
        BYTE                   Bn2
        BYTE   W06
        BYTE           N03     En1
        BYTE           N05     Bn2
        BYTE   W04
        BYTE           N03     En1
        BYTE   W02
        BYTE           N05     Bn2
        BYTE   W06
        BYTE           N23
        BYTE   W04
        BYTE           N03     En1
        BYTE   W08
        BYTE           N11
        BYTE   W12
        BYTE                   En1
        BYTE           N05     Bn2
        BYTE   W06
        BYTE                   Bn2
        BYTE   W06
        BYTE           N11     En1
        BYTE           N05     Bn2
        BYTE   W06
        BYTE                   Bn2
        BYTE   W06
        BYTE   PEND
// 035   ----------------------------------------
CombatDestinyCut_2_35:
        BYTE           N11     En0   v080
        BYTE           N23     Bn2
        BYTE   W12
        BYTE           N11     En1
        BYTE   W12
        BYTE                   En0
        BYTE   W12
        BYTE           N03
        BYTE   W04
        BYTE                   En0
        BYTE   W12
        BYTE                   En0
        BYTE   W08
        BYTE           N11
        BYTE   W12
        BYTE                   Gn0
        BYTE   W12
        BYTE                   Gn0
        BYTE   W12
        BYTE   PEND
// 036   ----------------------------------------
        BYTE                   An0
        BYTE           N23     En2
        BYTE   W12
        BYTE           N11     An0
        BYTE   W12
        BYTE                   An0
        BYTE           N23     An2
        BYTE   W12
        BYTE           N03     An0
        BYTE   W04
        BYTE                   An0
        BYTE   W08
        BYTE           N23     En2
        BYTE   W04
        BYTE           N03     An0
        BYTE   W08
        BYTE           N11
        BYTE   W12
        BYTE                   An0
        BYTE           N23     An2
        BYTE   W12
        BYTE           N11     Gn0
        BYTE   W12
// 037   ----------------------------------------
        BYTE                   Fn0
        BYTE           N23     En2
        BYTE   W12
        BYTE           N11     Fn0
        BYTE   W12
        BYTE                   Fn0
        BYTE           N23     An2
        BYTE   W12
        BYTE           N03     Fn0
        BYTE   W04
        BYTE                   Fn0
        BYTE   W08
        BYTE           N23     En2
        BYTE   W04
        BYTE           N03     Fn0
        BYTE   W08
        BYTE           N11
        BYTE   W12
        BYTE                   Fn0
        BYTE           N23     An2
        BYTE   W12
        BYTE           N11     Fn0
        BYTE   W12
// 038   ----------------------------------------
        BYTE                   En0
        BYTE           N23     Dn2
        BYTE   W12
        BYTE           N11     En0
        BYTE   W12
        BYTE                   En0
        BYTE           N23     Gn2
        BYTE   W12
        BYTE           N03     En0
        BYTE   W04
        BYTE                   En0
        BYTE   W08
        BYTE           N23     Dn2
        BYTE   W04
        BYTE           N03     En0
        BYTE   W08
        BYTE           N11
        BYTE   W12
        BYTE                   En0
        BYTE           N23     Gn2
        BYTE   W12
        BYTE           N11     En0
        BYTE   W12
// 039   ----------------------------------------
        BYTE                   An0
        BYTE           N23     En2
        BYTE   W12
        BYTE           N11     An0
        BYTE   W12
        BYTE                   An0
        BYTE           N23     An2
        BYTE   W12
        BYTE           N05     An0
        BYTE   W06
        BYTE                   An0
        BYTE   W06
        BYTE           N11     Gn0
        BYTE           N23     Dn2
        BYTE   W12
        BYTE           N11     Gn0
        BYTE   W12
        BYTE                   Gn0
        BYTE           N23     Gn2
        BYTE   W12
        BYTE           N05     Gn0
        BYTE   W06
        BYTE                   Gn0
        BYTE   W06
// 040   ----------------------------------------
        BYTE           N11     Fn0
        BYTE           N23     En2
        BYTE   W12
        BYTE           N11     Fn0
        BYTE   W12
        BYTE                   Fn0
        BYTE           N23     An2
        BYTE   W12
        BYTE           N03     Fn0
        BYTE   W04
        BYTE                   Fn0
        BYTE   W08
        BYTE           N23     En2
        BYTE   W04
        BYTE           N03     Fn0
        BYTE   W08
        BYTE           N11
        BYTE   W12
        BYTE                   Fn1
        BYTE           N23     An2
        BYTE   W12
        BYTE           N11     En1
        BYTE   W12
// 041   ----------------------------------------
        BYTE                   Dn1
        BYTE           N23     An2
        BYTE   W12
        BYTE           N11     Dn1
        BYTE   W12
        BYTE                   Dn1
        BYTE           N23     Fn3
        BYTE   W12
        BYTE           N03     Dn1
        BYTE   W04
        BYTE                   Dn1
        BYTE   W08
        BYTE           N23     An2
        BYTE   W04
        BYTE           N03     Dn1
        BYTE   W08
        BYTE           N11
        BYTE   W12
        BYTE                   Dn1
        BYTE           N23     Fn3
        BYTE   W12
        BYTE           N11     Dn1
        BYTE   W12
// 042   ----------------------------------------
        BYTE                   En1
        BYTE           N23     Dn2
        BYTE   W12
        BYTE           N11     En1
        BYTE   W12
        BYTE                   En1
        BYTE           N23     Gn2
        BYTE   W12
        BYTE           N03     En1
        BYTE   W04
        BYTE                   En1
        BYTE   W08
        BYTE           N23     Dn2
        BYTE   W04
        BYTE           N03     En1
        BYTE   W08
        BYTE           N11
        BYTE   W12
        BYTE                   En1
        BYTE           N23     Gn2
        BYTE   W12
        BYTE           N11     En1
        BYTE   W12
// 043   ----------------------------------------
        BYTE                   An0
        BYTE           N23     En2
        BYTE   W12
        BYTE           N11     An0
        BYTE   W12
        BYTE                   An0
        BYTE           N23     An2
        BYTE   W12
        BYTE           N03     An0
        BYTE   W04
        BYTE                   An0
        BYTE   W08
        BYTE           N23     Dn2
        BYTE   W04
        BYTE           N03     An0
        BYTE   W08
        BYTE           N11
        BYTE   W12
        BYTE                   Cs1
        BYTE           N23     Gn2
        BYTE   W12
        BYTE           N11     Cs1
        BYTE   W12
// 044   ----------------------------------------
        BYTE                   Dn1
        BYTE           N23     An2
        BYTE   W12
        BYTE           N11     Dn1
        BYTE   W12
        BYTE                   Dn1
        BYTE           N23     Dn3
        BYTE   W12
        BYTE           N03     Dn1
        BYTE   W04
        BYTE                   Dn1
        BYTE   W08
        BYTE           N23     An2
        BYTE   W04
        BYTE           N03     Dn1
        BYTE   W08
        BYTE           N11
        BYTE   W12
        BYTE                   Dn1
        BYTE           N23     Dn3
        BYTE   W12
        BYTE           N11     Dn1
        BYTE   W12
// 045   ----------------------------------------
        BYTE                   En1
        BYTE           N23     Bn2
        BYTE   W12
        BYTE           N11     En1
        BYTE   W12
        BYTE                   En1
        BYTE           N23     Gn3
        BYTE   W12
        BYTE           N03     En1
        BYTE   W04
        BYTE                   En1
        BYTE   W08
        BYTE           N23     Bn2
        BYTE   W04
        BYTE           N03     En1
        BYTE   W08
        BYTE           N11
        BYTE   W12
        BYTE                   En1
        BYTE           N23     Gn3
        BYTE   W12
        BYTE           N11     En1
        BYTE   W12
// 046   ----------------------------------------
        BYTE                   Fn1
        BYTE           N92     An2   v080   gtp3
        BYTE   W12
        BYTE           N11     Fn1
        BYTE   W12
        BYTE                   Fn1
        BYTE   W12
        BYTE                   Fn1
        BYTE   W12
        BYTE                   Fn1
        BYTE   W12
        BYTE                   Fn1
        BYTE   W12
        BYTE                   Fn1
        BYTE   W12
        BYTE                   Fn1
        BYTE   W12
// 047   ----------------------------------------
        BYTE                   As0
        BYTE           N44     Dn2   v080   gtp3
        BYTE   W12
        BYTE           N11     As0
        BYTE   W12
        BYTE                   As0
        BYTE   W12
        BYTE           N05
        BYTE   W06
        BYTE                   As0
        BYTE   W06
        BYTE           N11     Bn0
        BYTE           N44     Dn2   v080   gtp3
        BYTE   W12
        BYTE           N11     Bn0
        BYTE   W12
        BYTE                   Bn0
        BYTE   W12
        BYTE           N05
        BYTE   W06
        BYTE                   Bn0
        BYTE   W06
// 048   ----------------------------------------
        BYTE           N11     En1
        BYTE           N44     Cn2   v080   gtp3
        BYTE   W12
        BYTE           N11     En1
        BYTE   W12
        BYTE                   En1
        BYTE   W12
        BYTE           N03
        BYTE   W04
        BYTE                   En1
        BYTE   W08
        BYTE           N44     Bn1   v080   gtp3
        BYTE   W04
        BYTE           N03     En1
        BYTE   W08
        BYTE           N11
        BYTE   W12
        BYTE                   En1
        BYTE   W12
        BYTE                   En1
        BYTE   W12
// 049   ----------------------------------------
        BYTE                   En0
        BYTE           N44     Bn1   v080   gtp3
        BYTE   W12
        BYTE           N11     En0
        BYTE   W12
        BYTE                   En0
        BYTE   W12
        BYTE           N03
        BYTE   W04
        BYTE                   En0
        BYTE   W08
        BYTE           N44     Bn1   v080   gtp3
        BYTE   W04
        BYTE           N03     En0
        BYTE   W08
        BYTE           N11
        BYTE   W12
        BYTE                   En0
        BYTE   W12
        BYTE                   En0
        BYTE   W12
// 050   ----------------------------------------
        BYTE                   En0
        BYTE           N23     Gs2
        BYTE   W12
        BYTE           N11     En0
        BYTE   W12
        BYTE                   En0
        BYTE           N23     En2
        BYTE   W12
        BYTE           N03     En0
        BYTE   W04
        BYTE                   En0
        BYTE   W08
        BYTE           N23     Bn1
        BYTE   W04
        BYTE           N03     En0
        BYTE   W08
        BYTE           N11
        BYTE   W12
        BYTE                   En0
        BYTE           N23     Gs1
        BYTE   W12
        BYTE           N11     En0
        BYTE   W12
// 051   ----------------------------------------
        BYTE                   En0
        BYTE           N23     En2
        BYTE   W12
        BYTE           N11     En0
        BYTE   W12
        BYTE                   En0
        BYTE           N23     Bn1
        BYTE   W12
        BYTE           N11     En0
        BYTE   W12
        BYTE                   En0
        BYTE           N23     Gs1
        BYTE   W12
        BYTE           N11     En0
        BYTE   W12
        BYTE                   En0
        BYTE           N23     En1
        BYTE   W12
        BYTE           N11     En0
        BYTE   W12
// 052   ----------------------------------------
CombatDestinyCut_2_52:
        BYTE           N11     An0   v080
        BYTE           N92     En2   v080   gtp3
        BYTE   W12
        BYTE           N11     An0
        BYTE   W12
        BYTE                   An0
        BYTE   W12
        BYTE           N03
        BYTE   W04
        BYTE                   An0
        BYTE   W12
        BYTE                   An0
        BYTE   W08
        BYTE           N11
        BYTE   W12
        BYTE                   An0
        BYTE   W12
        BYTE                   Gn0
        BYTE   W12
        BYTE   PEND
// 053   ----------------------------------------
CombatDestinyCut_2_53:
        BYTE           N11     Fn0   v080
        BYTE           N92     Cn2   v080   gtp3
        BYTE   W12
        BYTE           N11     Fn0
        BYTE   W12
        BYTE                   Fn0
        BYTE   W12
        BYTE           N03
        BYTE   W04
        BYTE                   Fn0
        BYTE   W12
        BYTE                   Fn0
        BYTE   W08
        BYTE           N11
        BYTE   W12
        BYTE                   Fn0
        BYTE   W12
        BYTE                   Fn0
        BYTE   W12
        BYTE   PEND
// 054   ----------------------------------------
CombatDestinyCut_2_54:
        BYTE           N11     En0   v080
        BYTE           N92     Gn2   v080   gtp3
        BYTE   W12
        BYTE           N11     En0
        BYTE   W12
        BYTE                   En0
        BYTE   W12
        BYTE           N03
        BYTE   W04
        BYTE                   En0
        BYTE   W12
        BYTE                   En0
        BYTE   W08
        BYTE           N11
        BYTE   W12
        BYTE                   En0
        BYTE   W12
        BYTE                   En0
        BYTE   W12
        BYTE   PEND
// 055   ----------------------------------------
        BYTE                   An0
        BYTE           N44     Gn2   v080   gtp3
        BYTE   W12
        BYTE           N11     An0
        BYTE   W12
        BYTE                   An0
        BYTE   W12
        BYTE           N05
        BYTE   W06
        BYTE                   An0
        BYTE   W06
        BYTE           N11     Gn0
        BYTE           N44     Dn2   v080   gtp3
        BYTE   W12
        BYTE           N11     Gn0
        BYTE   W12
        BYTE                   Gn0
        BYTE   W12
        BYTE           N05
        BYTE   W06
        BYTE                   Gn0
        BYTE   W06
// 056   ----------------------------------------
        BYTE           N11     Fn0
        BYTE           N92     An2   v080   gtp3
        BYTE   W12
        BYTE           N11     Fn0
        BYTE   W12
        BYTE                   Fn0
        BYTE   W12
        BYTE           N03
        BYTE   W04
        BYTE                   Fn0
        BYTE   W12
        BYTE                   Fn0
        BYTE   W08
        BYTE           N11
        BYTE   W12
        BYTE                   Fn1
        BYTE   W12
        BYTE                   En1
        BYTE   W12
// 057   ----------------------------------------
        BYTE                   Dn1
        BYTE           N92     An2   v080   gtp3
        BYTE   W12
        BYTE           N11     Dn1
        BYTE   W12
        BYTE                   Dn1
        BYTE   W12
        BYTE           N03
        BYTE   W04
        BYTE                   Dn1
        BYTE   W12
        BYTE                   Dn1
        BYTE   W08
        BYTE           N11
        BYTE   W12
        BYTE                   Dn1
        BYTE   W12
        BYTE                   Dn1
        BYTE   W12
// 058   ----------------------------------------
CombatDestinyCut_2_58:
        BYTE           N11     En1   v080
        BYTE           N92     Bn2   v080   gtp3
        BYTE   W12
        BYTE           N11     En1
        BYTE   W12
        BYTE                   En1
        BYTE   W12
        BYTE           N03
        BYTE   W04
        BYTE                   En1
        BYTE   W12
        BYTE                   En1
        BYTE   W08
        BYTE           N11
        BYTE   W12
        BYTE                   En1
        BYTE   W12
        BYTE                   En1
        BYTE   W12
        BYTE   PEND
// 059   ----------------------------------------
        BYTE   PATT
         POIN2  CombatDestinyCut_2_58
// 060   ----------------------------------------
        BYTE   PATT
         POIN2  CombatDestinyCut_2_52
// 061   ----------------------------------------
        BYTE   PATT
         POIN2  CombatDestinyCut_2_53
// 062   ----------------------------------------
        BYTE   PATT
         POIN2  CombatDestinyCut_2_54
// 063   ----------------------------------------
        BYTE           N11     An0   v080
        BYTE           N44     En2   v080   gtp3
        BYTE   W12
        BYTE           N11     An0
        BYTE   W12
        BYTE                   An0
        BYTE   W12
        BYTE           N05
        BYTE   W06
        BYTE                   An0
        BYTE   W06
        BYTE           N11     Gn0
        BYTE           N44     Dn2   v080   gtp3
        BYTE   W12
        BYTE           N11     Gn0
        BYTE   W12
        BYTE                   Gn0
        BYTE   W12
        BYTE           N05
        BYTE   W06
        BYTE                   Gn0
        BYTE   W06
// 064   ----------------------------------------
        BYTE           N11     Fn0
        BYTE           N92     Cn2   v080   gtp3
        BYTE   W12
        BYTE           N11     Fn0
        BYTE   W12
        BYTE                   Fn0
        BYTE   W12
        BYTE           N03
        BYTE   W04
        BYTE                   Fn0
        BYTE   W12
        BYTE                   Fn0
        BYTE   W08
        BYTE           N11
        BYTE   W12
        BYTE                   Fn1
        BYTE   W12
        BYTE                   En1
        BYTE   W12
// 065   ----------------------------------------
        BYTE                   Dn1
        BYTE           N92     Fn2   v080   gtp3
        BYTE   W12
        BYTE           N11     Dn1
        BYTE   W12
        BYTE                   Dn1
        BYTE   W12
        BYTE           N03
        BYTE   W04
        BYTE                   Dn1
        BYTE   W12
        BYTE                   Dn1
        BYTE   W08
        BYTE           N11
        BYTE   W12
        BYTE                   Dn1
        BYTE   W12
        BYTE                   Dn1
        BYTE   W12
// 066   ----------------------------------------
        BYTE                   En1
        BYTE           N44     Gn2   v080   gtp3
        BYTE   W12
        BYTE           N11     En1
        BYTE   W12
        BYTE                   En1
        BYTE   W12
        BYTE           N03
        BYTE   W04
        BYTE                   En1
        BYTE   W08
        BYTE           N44     Gs2   v080   gtp3
        BYTE   W04
        BYTE           N03     En1
        BYTE   W08
        BYTE           N11
        BYTE   W12
        BYTE                   En1
        BYTE   W12
        BYTE                   En1
        BYTE   W12
// 067   ----------------------------------------
        BYTE                   An0
        BYTE           N68     En2   v080   gtp3
        BYTE   W12
        BYTE           N11     An0
        BYTE   W12
        BYTE                   An0
        BYTE   W12
        BYTE           N03
        BYTE   W04
        BYTE                   An0
        BYTE   W12
        BYTE                   An0
        BYTE   W08
        BYTE           N11
        BYTE   W12
        BYTE                   An0
        BYTE           N23     En2
        BYTE   W12
        BYTE           N11     An0
        BYTE   W12
// 068   ----------------------------------------
        BYTE                   En0
        BYTE           N92     Bn2   v080   gtp3
        BYTE   W12
        BYTE           N11     En0
        BYTE   W12
        BYTE                   En1
        BYTE   W12
        BYTE           N05
        BYTE   W06
        BYTE           N11     En0
        BYTE   W12
        BYTE           N05
        BYTE   W06
        BYTE           N11
        BYTE   W12
        BYTE                   En1
        BYTE   W12
        BYTE                   En1
        BYTE   W12
// 069   ----------------------------------------
        BYTE                   En1
        BYTE           N92     Gs2   v080   gtp3
        BYTE   W12
        BYTE           N11     En1
        BYTE   W12
        BYTE                   En1
        BYTE   W12
        BYTE           N05
        BYTE   W06
        BYTE                   En1
        BYTE   W06
        BYTE           N11
        BYTE   W12
        BYTE                   En1
        BYTE   W12
        BYTE                   En1
        BYTE   W12
        BYTE           N05
        BYTE   W06
        BYTE                   En1
        BYTE   W06
// 070   ----------------------------------------
        BYTE           N23     An0
        BYTE           N23     En2
        BYTE   W24
        BYTE           TIE
        BYTE   W72
// 071   ----------------------------------------
        BYTE   W92
        BYTE   W03
        BYTE           EOT
        BYTE   W01
// 072   ----------------------------------------
        BYTE           TIE     Cn2
        BYTE   W96
// 073   ----------------------------------------
        BYTE   W92
        BYTE   W03
        BYTE           EOT
        BYTE   W01
// 074   ----------------------------------------
        BYTE           TIE     An1
        BYTE   W96
// 075   ----------------------------------------
        BYTE   W92
        BYTE   W03
        BYTE           EOT
        BYTE   W01
// 076   ----------------------------------------
        BYTE           TIE     Bn1
        BYTE   W96
// 077   ----------------------------------------
        BYTE   PATT
         POIN2  CombatDestinyCut_2_17
// 078   ----------------------------------------
        BYTE           TIE     En2   v080
        BYTE   W96
// 079   ----------------------------------------
        BYTE   W44
        BYTE   W03
        BYTE           EOT
        BYTE   W13
        BYTE           N11     An0
        BYTE   W12
        BYTE           N23     En1
        BYTE   W24
// 080   ----------------------------------------
        BYTE   PATT
         POIN2  CombatDestinyCut_2_28
// 081   ----------------------------------------
        BYTE   PATT
         POIN2  CombatDestinyCut_2_21
// 082   ----------------------------------------
        BYTE   PATT
         POIN2  CombatDestinyCut_2_22
// 083   ----------------------------------------
        BYTE   PATT
         POIN2  CombatDestinyCut_2_23
// 084   ----------------------------------------
        BYTE   PATT
         POIN2  CombatDestinyCut_2_24
// 085   ----------------------------------------
        BYTE   PATT
         POIN2  CombatDestinyCut_2_25
// 086   ----------------------------------------
        BYTE   PATT
         POIN2  CombatDestinyCut_2_26
// 087   ----------------------------------------
        BYTE   PATT
         POIN2  CombatDestinyCut_2_27
// 088   ----------------------------------------
        BYTE   PATT
         POIN2  CombatDestinyCut_2_28
// 089   ----------------------------------------
        BYTE   PATT
         POIN2  CombatDestinyCut_2_21
// 090   ----------------------------------------
        BYTE   PATT
         POIN2  CombatDestinyCut_2_30
// 091   ----------------------------------------
        BYTE   PATT
         POIN2  CombatDestinyCut_2_23
// 092   ----------------------------------------
        BYTE   PATT
         POIN2  CombatDestinyCut_2_32
// 093   ----------------------------------------
        BYTE   PATT
         POIN2  CombatDestinyCut_2_33
// 094   ----------------------------------------
        BYTE   PATT
         POIN2  CombatDestinyCut_2_34
// 095   ----------------------------------------
        BYTE   PATT
         POIN2  CombatDestinyCut_2_35
// 096   ----------------------------------------
        BYTE           N11     An0   v096
        BYTE           N23     En2
        BYTE   W12
        BYTE           N11     An0
        BYTE   W12
        BYTE                   An0
        BYTE           N23     An2
        BYTE   W12
        BYTE           N03     An0
        BYTE   W04
        BYTE                   An0
        BYTE   W08
        BYTE           N23     En2
        BYTE   W04
        BYTE           N03     An0
        BYTE   W08
        BYTE           N11
        BYTE   W12
        BYTE                   An0
        BYTE           N23     An2
        BYTE   W12
        BYTE           N11     Gn0
        BYTE   W12
// 097   ----------------------------------------
        BYTE                   Fn0
        BYTE           N23     En2
        BYTE   W12
        BYTE           N11     Fn0
        BYTE   W12
        BYTE                   Fn0
        BYTE           N23     An2
        BYTE   W12
        BYTE           N03     Fn0
        BYTE   W04
        BYTE                   Fn0
        BYTE   W08
        BYTE           N23     En2
        BYTE   W04
        BYTE           N03     Fn0
        BYTE   W08
        BYTE           N11
        BYTE   W12
        BYTE                   Fn0
        BYTE           N23     An2
        BYTE   W12
        BYTE           N11     Fn0
        BYTE   W12
// 098   ----------------------------------------
        BYTE                   En0
        BYTE           N23     Dn2
        BYTE   W12
        BYTE           N11     En0
        BYTE   W12
        BYTE                   En0
        BYTE           N23     Gn2
        BYTE   W12
        BYTE           N03     En0
        BYTE   W04
        BYTE                   En0
        BYTE   W08
        BYTE           N23     Dn2
        BYTE   W04
        BYTE           N03     En0
        BYTE   W08
        BYTE           N11
        BYTE   W12
        BYTE                   En0
        BYTE           N23     Gn2
        BYTE   W12
        BYTE           N11     En0
        BYTE   W12
// 099   ----------------------------------------
        BYTE                   An0
        BYTE           N23     En2
        BYTE   W12
        BYTE           N11     An0
        BYTE   W12
        BYTE                   An0
        BYTE           N23     An2
        BYTE   W12
        BYTE           N05     An0
        BYTE   W06
        BYTE                   An0
        BYTE   W06
        BYTE           N11     Gn0
        BYTE           N23     Dn2
        BYTE   W12
        BYTE           N11     Gn0
        BYTE   W12
        BYTE                   Gn0
        BYTE           N23     Gn2
        BYTE   W12
        BYTE           N05     Gn0
        BYTE   W06
        BYTE                   Gn0
        BYTE   W06
// 100   ----------------------------------------
        BYTE           N11     Fn0
        BYTE           N23     En2
        BYTE   W12
        BYTE           N11     Fn0
        BYTE   W12
        BYTE                   Fn0
        BYTE           N23     An2
        BYTE   W12
        BYTE           N03     Fn0
        BYTE   W04
        BYTE                   Fn0
        BYTE   W08
        BYTE           N23     En2
        BYTE   W04
        BYTE           N03     Fn0
        BYTE   W08
        BYTE           N11
        BYTE   W12
        BYTE                   Fn1
        BYTE           N23     An2
        BYTE   W12
        BYTE           N11     En1
        BYTE   W12
// 101   ----------------------------------------
        BYTE                   Dn1
        BYTE           N23     An2
        BYTE   W12
        BYTE           N11     Dn1
        BYTE   W12
        BYTE                   Dn1
        BYTE           N23     Fn3
        BYTE   W12
        BYTE           N03     Dn1
        BYTE   W04
        BYTE                   Dn1
        BYTE   W08
        BYTE           N23     An2
        BYTE   W04
        BYTE           N03     Dn1
        BYTE   W08
        BYTE           N11
        BYTE   W12
        BYTE                   Dn1
        BYTE           N23     Fn3
        BYTE   W12
        BYTE           N11     Dn1
        BYTE   W12
// 102   ----------------------------------------
        BYTE                   En1
        BYTE           N23     Dn2
        BYTE   W12
        BYTE           N11     En1
        BYTE   W12
        BYTE                   En1
        BYTE           N23     Gn2
        BYTE   W12
        BYTE           N03     En1
        BYTE   W04
        BYTE                   En1
        BYTE   W08
        BYTE           N23     Dn2
        BYTE   W04
        BYTE           N03     En1
        BYTE   W08
        BYTE           N11
        BYTE   W12
        BYTE                   En1
        BYTE           N23     Gn2
        BYTE   W12
        BYTE           N11     En1
        BYTE   W12
// 103   ----------------------------------------
        BYTE                   An0
        BYTE           N23     En2
        BYTE   W12
        BYTE           N11     An0
        BYTE   W12
        BYTE                   An0
        BYTE           N23     An2
        BYTE   W12
        BYTE           N03     An0
        BYTE   W04
        BYTE                   An0
        BYTE   W08
        BYTE           N23     Dn2
        BYTE   W04
        BYTE           N03     An0
        BYTE   W08
        BYTE           N11
        BYTE   W12
        BYTE                   Cs1
        BYTE           N23     Gn2
        BYTE   W12
        BYTE           N11     Cs1
        BYTE   W12
// 104   ----------------------------------------
        BYTE                   Dn1
        BYTE           N23     An2
        BYTE   W12
        BYTE           N11     Dn1
        BYTE   W12
        BYTE                   Dn1
        BYTE           N23     Dn3
        BYTE   W12
        BYTE           N03     Dn1
        BYTE   W04
        BYTE                   Dn1
        BYTE   W08
        BYTE           N23     An2
        BYTE   W04
        BYTE           N03     Dn1
        BYTE   W08
        BYTE           N11
        BYTE   W12
        BYTE                   Dn1
        BYTE           N23     Dn3
        BYTE   W12
        BYTE           N11     Dn1
        BYTE   W12
// 105   ----------------------------------------
        BYTE                   En1
        BYTE           N23     Bn2
        BYTE   W12
        BYTE           N11     En1
        BYTE   W12
        BYTE                   En1
        BYTE           N23     Gn3
        BYTE   W12
        BYTE           N03     En1
        BYTE   W04
        BYTE                   En1
        BYTE   W08
        BYTE           N23     Bn2
        BYTE   W04
        BYTE           N03     En1
        BYTE   W08
        BYTE           N11
        BYTE   W12
        BYTE                   En1
        BYTE           N23     Gn3
        BYTE   W12
        BYTE           N11     En1
        BYTE   W12
// 106   ----------------------------------------
        BYTE                   Fn1
        BYTE           N92     An2   v096   gtp3
        BYTE   W12
        BYTE           N11     Fn1
        BYTE   W12
        BYTE                   Fn1
        BYTE   W12
        BYTE                   Fn1
        BYTE   W12
        BYTE                   Fn1
        BYTE   W12
        BYTE                   Fn1
        BYTE   W12
        BYTE                   Fn1
        BYTE   W12
        BYTE                   Fn1
        BYTE   W12
// 107   ----------------------------------------
        BYTE                   As0
        BYTE           N44     Dn2   v096   gtp3
        BYTE   W12
        BYTE           N11     As0
        BYTE   W12
        BYTE                   As0
        BYTE   W12
        BYTE           N05
        BYTE   W06
        BYTE                   As0
        BYTE   W06
        BYTE           N11     Bn0
        BYTE           N44     Dn2   v096   gtp3
        BYTE   W12
        BYTE           N11     Bn0
        BYTE   W12
        BYTE                   Bn0
        BYTE   W12
        BYTE           N05
        BYTE   W06
        BYTE                   Bn0
        BYTE   W06
// 108   ----------------------------------------
        BYTE           N11     En1
        BYTE           N44     Cn2   v096   gtp3
        BYTE   W12
        BYTE           N11     En1
        BYTE   W12
        BYTE                   En1
        BYTE   W12
        BYTE           N03
        BYTE   W04
        BYTE                   En1
        BYTE   W08
        BYTE           N44     Bn1   v096   gtp3
        BYTE   W04
        BYTE           N03     En1
        BYTE   W08
        BYTE           N11
        BYTE   W12
        BYTE                   En1
        BYTE   W12
        BYTE                   En1
        BYTE   W12
// 109   ----------------------------------------
        BYTE                   En0
        BYTE           N44     Bn1   v096   gtp3
        BYTE   W12
        BYTE           N11     En0
        BYTE   W12
        BYTE                   En0
        BYTE   W12
        BYTE           N03
        BYTE   W04
        BYTE                   En0
        BYTE   W08
        BYTE           N44     Bn1   v096   gtp3
        BYTE   W04
        BYTE           N03     En0
        BYTE   W08
        BYTE           N11
        BYTE   W12
        BYTE                   En0
        BYTE   W12
        BYTE                   En0
        BYTE   W12
// 110   ----------------------------------------
        BYTE                   En0
        BYTE           N23     Gs2   v103
        BYTE   W12
        BYTE           N11     En0   v096
        BYTE   W12
        BYTE                   En0
        BYTE           N23     En2   v103
        BYTE   W12
        BYTE           N03     En0   v096
        BYTE   W04
        BYTE                   En0
        BYTE   W08
        BYTE           N23     Bn1   v103
        BYTE   W04
        BYTE           N03     En0   v096
        BYTE   W08
        BYTE           N11
        BYTE   W12
        BYTE                   En0
        BYTE           N23     Gs1   v103
        BYTE   W12
        BYTE           N11     En0   v096
        BYTE   W12
// 111   ----------------------------------------
        BYTE                   En1
        BYTE           N23     En2   v103
        BYTE   W12
        BYTE           N11     En1   v096
        BYTE   W12
        BYTE                   Dn1
        BYTE           N23     Bn1   v103
        BYTE   W12
        BYTE           N11     Dn1   v096
        BYTE   W12
        BYTE                   Bn0
        BYTE           N23     Gs1   v103
        BYTE   W12
        BYTE           N11     Bn0   v096
        BYTE   W12
        BYTE                   En0
        BYTE           N23     En1   v103
        BYTE   W12
        BYTE           N11     En0   v096
        BYTE   W12
// 112   ----------------------------------------
CombatDestinyCut_2_112:
        BYTE           N11     An0   v096
        BYTE           N92     En2   v096   gtp3
        BYTE   W12
        BYTE           N11     An0
        BYTE   W12
        BYTE                   An0
        BYTE   W12
        BYTE           N03
        BYTE   W04
        BYTE                   An0
        BYTE   W12
        BYTE                   An0
        BYTE   W08
        BYTE           N11
        BYTE   W12
        BYTE                   An0
        BYTE   W12
        BYTE                   Gn0
        BYTE   W12
        BYTE   PEND
// 113   ----------------------------------------
CombatDestinyCut_2_113:
        BYTE           N11     Fn0   v096
        BYTE           N92     Cn2   v096   gtp3
        BYTE   W12
        BYTE           N11     Fn0
        BYTE   W12
        BYTE                   Fn0
        BYTE   W12
        BYTE           N03
        BYTE   W04
        BYTE                   Fn0
        BYTE   W12
        BYTE                   Fn0
        BYTE   W08
        BYTE           N11
        BYTE   W12
        BYTE                   Fn0
        BYTE   W12
        BYTE                   Fn0
        BYTE   W12
        BYTE   PEND
// 114   ----------------------------------------
CombatDestinyCut_2_114:
        BYTE           N11     En0   v096
        BYTE           N92     Gn2   v096   gtp3
        BYTE   W12
        BYTE           N11     En0
        BYTE   W12
        BYTE                   En0
        BYTE   W12
        BYTE           N03
        BYTE   W04
        BYTE                   En0
        BYTE   W12
        BYTE                   En0
        BYTE   W08
        BYTE           N11
        BYTE   W12
        BYTE                   En0
        BYTE   W12
        BYTE                   En0
        BYTE   W12
        BYTE   PEND
// 115   ----------------------------------------
        BYTE                   An0
        BYTE           N44     Gn2   v096   gtp3
        BYTE   W12
        BYTE           N11     An0
        BYTE   W12
        BYTE                   An0
        BYTE   W12
        BYTE           N05
        BYTE   W06
        BYTE                   An0
        BYTE   W06
        BYTE           N11     Gn0
        BYTE           N44     Dn2   v096   gtp3
        BYTE   W12
        BYTE           N11     Gn0
        BYTE   W12
        BYTE                   Gn0
        BYTE   W12
        BYTE           N05
        BYTE   W06
        BYTE                   Gn0
        BYTE   W06
// 116   ----------------------------------------
        BYTE           N11     Fn0
        BYTE           N92     An2   v096   gtp3
        BYTE   W12
        BYTE           N11     Fn0
        BYTE   W12
        BYTE                   Fn0
        BYTE   W12
        BYTE           N03
        BYTE   W04
        BYTE                   Fn0
        BYTE   W12
        BYTE                   Fn0
        BYTE   W08
        BYTE           N11
        BYTE   W12
        BYTE                   Fn1
        BYTE   W12
        BYTE                   En1
        BYTE   W12
// 117   ----------------------------------------
        BYTE                   Dn1
        BYTE           N92     An2   v096   gtp3
        BYTE   W12
        BYTE           N11     Dn1
        BYTE   W12
        BYTE                   Dn1
        BYTE   W12
        BYTE           N03
        BYTE   W04
        BYTE                   Dn1
        BYTE   W12
        BYTE                   Dn1
        BYTE   W08
        BYTE           N11
        BYTE   W12
        BYTE                   Dn1
        BYTE   W12
        BYTE                   Dn1
        BYTE   W12
// 118   ----------------------------------------
CombatDestinyCut_2_118:
        BYTE           N11     En1   v096
        BYTE           N92     Bn2   v096   gtp3
        BYTE   W12
        BYTE           N11     En1
        BYTE   W12
        BYTE                   En1
        BYTE   W12
        BYTE           N03
        BYTE   W04
        BYTE                   En1
        BYTE   W12
        BYTE                   En1
        BYTE   W08
        BYTE           N11
        BYTE   W12
        BYTE                   En1
        BYTE   W12
        BYTE                   En1
        BYTE   W12
        BYTE   PEND
// 119   ----------------------------------------
        BYTE   PATT
         POIN2  CombatDestinyCut_2_118
// 120   ----------------------------------------
        BYTE   PATT
         POIN2  CombatDestinyCut_2_112
// 121   ----------------------------------------
        BYTE   PATT
         POIN2  CombatDestinyCut_2_113
// 122   ----------------------------------------
        BYTE   PATT
         POIN2  CombatDestinyCut_2_114
// 123   ----------------------------------------
        BYTE           N11     An0   v096
        BYTE           N44     En2   v096   gtp3
        BYTE   W12
        BYTE           N11     An0
        BYTE   W12
        BYTE                   An0
        BYTE   W12
        BYTE           N05
        BYTE   W06
        BYTE                   An0
        BYTE   W06
        BYTE           N11     Gn0
        BYTE           N44     Dn2   v096   gtp3
        BYTE   W12
        BYTE           N11     Gn0
        BYTE   W12
        BYTE                   Gn0
        BYTE   W12
        BYTE           N05
        BYTE   W06
        BYTE                   Gn0
        BYTE   W06
// 124   ----------------------------------------
        BYTE           N11     Fn0
        BYTE           N92     Cn2   v096   gtp3
        BYTE   W12
        BYTE           N11     Fn0
        BYTE   W12
        BYTE                   Fn0
        BYTE   W12
        BYTE           N03
        BYTE   W04
        BYTE                   Fn0
        BYTE   W12
        BYTE                   Fn0
        BYTE   W08
        BYTE           N11
        BYTE   W12
        BYTE                   Fn1
        BYTE   W12
        BYTE                   En1
        BYTE   W12
// 125   ----------------------------------------
        BYTE                   Dn1
        BYTE           N92     Fn2   v096   gtp3
        BYTE   W12
        BYTE           N11     Dn1
        BYTE   W12
        BYTE                   Dn1
        BYTE   W12
        BYTE           N03
        BYTE   W04
        BYTE                   Dn1
        BYTE   W12
        BYTE                   Dn1
        BYTE   W08
        BYTE           N11
        BYTE   W12
        BYTE                   Dn1
        BYTE   W12
        BYTE                   Dn1
        BYTE   W12
// 126   ----------------------------------------
        BYTE                   En1
        BYTE           N44     Gn2   v096   gtp3
        BYTE   W12
        BYTE           N11     En1
        BYTE   W12
        BYTE                   En1
        BYTE   W12
        BYTE           N03
        BYTE   W04
        BYTE                   En1
        BYTE   W08
        BYTE           N44     Gs2   v096   gtp3
        BYTE   W04
        BYTE           N03     En1
        BYTE   W08
        BYTE           N11
        BYTE   W12
        BYTE                   En1
        BYTE   W12
        BYTE                   En1
        BYTE   W12
// 127   ----------------------------------------
        BYTE                   An0
        BYTE           N68     En2   v096   gtp3
        BYTE   W12
        BYTE           N11     An0
        BYTE   W12
        BYTE                   An0
        BYTE   W12
        BYTE           N03
        BYTE   W04
        BYTE                   An0
        BYTE   W12
        BYTE                   An0
        BYTE   W08
        BYTE           N11
        BYTE   W12
        BYTE                   An0
        BYTE           N23     En2
        BYTE   W12
        BYTE           N11     An0
        BYTE   W12
// 128   ----------------------------------------
        BYTE                   En0
        BYTE           N92     Bn2   v096   gtp3
        BYTE   W12
        BYTE           N11     En0
        BYTE   W12
        BYTE                   En1
        BYTE   W12
        BYTE           N05
        BYTE   W06
        BYTE           N11     En0
        BYTE   W12
        BYTE           N05
        BYTE   W06
        BYTE           N11
        BYTE   W12
        BYTE                   En1
        BYTE   W12
        BYTE                   En1
        BYTE   W12
// 129   ----------------------------------------
        BYTE                   En1
        BYTE           N92     Gs2   v096   gtp3
        BYTE   W12
        BYTE           N11     En1
        BYTE   W12
        BYTE                   En1
        BYTE   W12
        BYTE           N05
        BYTE   W06
        BYTE                   En1
        BYTE   W06
        BYTE           N11
        BYTE   W12
        BYTE                   En1
        BYTE   W12
        BYTE                   En1
        BYTE   W12
        BYTE           N05
        BYTE   W06
        BYTE                   En1
        BYTE   W06
// 130   ----------------------------------------
        BYTE           N23     An0
        BYTE           TIE     En2
        BYTE   W96
// 131   ----------------------------------------
        BYTE   W92
        BYTE   W03
        BYTE           EOT
        BYTE   W01
// 132   ----------------------------------------
        BYTE           TIE     Cn2   v080
        BYTE   W96
// 133   ----------------------------------------
        BYTE   W92
        BYTE   W03
        BYTE           EOT
        BYTE   W01
// 134   ----------------------------------------
        BYTE           TIE     An1   v096
        BYTE   W96
// 135   ----------------------------------------
        BYTE   W92
        BYTE   W03
        BYTE           EOT
        BYTE   W01
// 136   ----------------------------------------
        BYTE           TIE     Bn1
        BYTE   W96
// 137   ----------------------------------------
        BYTE   PATT
         POIN2  CombatDestinyCut_2_17
// 138   ----------------------------------------
        BYTE           TIE     En2   v080
        BYTE   W96
// 139   ----------------------------------------
        BYTE   W44
        BYTE   W03
        BYTE           EOT
        BYTE   W13
        BYTE           N11     An0   v096
        BYTE   W12
        BYTE           N23     En1
        BYTE   W24
// 140   ----------------------------------------
        BYTE   GoTo
         POIN2  CombatDestinyCut_2_LOOP
        BYTE   FINE

//****************** Track 3 (Midi-Chn.3) ******************//

CombatDestinyCut_3:
        BYTE   KEYSH   CombatDestinyCut_key+0
// 000   ----------------------------------------
        BYTE           VOICE   2
        BYTE           PAN     c_v-13
        BYTE           BENDR   12
        BYTE           VOL     31
        BYTE   W96
// 001   ----------------------------------------
        BYTE   W96
// 002   ----------------------------------------
        BYTE   W96
// 003   ----------------------------------------
        BYTE   W96
// 004   ----------------------------------------
        BYTE   W96
// 005   ----------------------------------------
        BYTE   W96
// 006   ----------------------------------------
        BYTE   W96
// 007   ----------------------------------------
        BYTE   W96
// 008   ----------------------------------------
        BYTE   W96
// 009   ----------------------------------------
        BYTE   W96
// 010   ----------------------------------------
        BYTE           TIE     An1   v080
        BYTE   W96
// 011   ----------------------------------------
        BYTE   W96
// 012   ----------------------------------------
CombatDestinyCut_3_12:
        BYTE           EOT     An1
        BYTE           TIE     Fn1   v080
        BYTE   W96
        BYTE   PEND
// 013   ----------------------------------------
        BYTE   W96
// 014   ----------------------------------------
CombatDestinyCut_3_14:
        BYTE           EOT     Fn1
        BYTE           TIE     Dn1   v080
        BYTE   W96
        BYTE   PEND
// 015   ----------------------------------------
        BYTE   W96
// 016   ----------------------------------------
CombatDestinyCut_3_16:
        BYTE           EOT     Dn1
        BYTE           TIE     En1   v080
        BYTE   W96
        BYTE   PEND
// 017   ----------------------------------------
        BYTE   W96
// 018   ----------------------------------------
        BYTE   W96
// 019   ----------------------------------------
        BYTE   W96
// 020   ----------------------------------------
        BYTE           EOT
CombatDestinyCut_3_LOOP:
        BYTE           TIE     An1   v080
        BYTE   W96
// 021   ----------------------------------------
        BYTE   W96
// 022   ----------------------------------------
        BYTE   PATT
         POIN2  CombatDestinyCut_3_12
// 023   ----------------------------------------
        BYTE   W96
// 024   ----------------------------------------
        BYTE   PATT
         POIN2  CombatDestinyCut_3_14
// 025   ----------------------------------------
        BYTE   W96
// 026   ----------------------------------------
        BYTE   PATT
         POIN2  CombatDestinyCut_3_16
// 027   ----------------------------------------
        BYTE   W96
// 028   ----------------------------------------
        BYTE           EOT     En1
        BYTE           TIE     An1   v080
        BYTE   W96
// 029   ----------------------------------------
        BYTE   W96
// 030   ----------------------------------------
        BYTE   PATT
         POIN2  CombatDestinyCut_3_12
// 031   ----------------------------------------
        BYTE   W96
// 032   ----------------------------------------
        BYTE   PATT
         POIN2  CombatDestinyCut_3_14
// 033   ----------------------------------------
        BYTE   W96
// 034   ----------------------------------------
        BYTE   PATT
         POIN2  CombatDestinyCut_3_16
// 035   ----------------------------------------
        BYTE   W96
// 036   ----------------------------------------
        BYTE           EOT     En1
        BYTE           N96     An1   v080
        BYTE   W96
// 037   ----------------------------------------
        BYTE                   Fn1
        BYTE   W96
// 038   ----------------------------------------
        BYTE                   En1
        BYTE   W96
// 039   ----------------------------------------
CombatDestinyCut_3_39:
        BYTE           N48     An1   v080
        BYTE   W48
        BYTE                   Gn1
        BYTE   W48
        BYTE   PEND
// 040   ----------------------------------------
        BYTE           N96     Fn1
        BYTE   W96
// 041   ----------------------------------------
        BYTE                   Dn1
        BYTE   W96
// 042   ----------------------------------------
        BYTE                   En1
        BYTE   W96
// 043   ----------------------------------------
        BYTE                   An1
        BYTE   W96
// 044   ----------------------------------------
        BYTE                   Dn1
        BYTE   W96
// 045   ----------------------------------------
        BYTE                   En1
        BYTE   W96
// 046   ----------------------------------------
        BYTE                   Fn1
        BYTE   W96
// 047   ----------------------------------------
        BYTE           N48     As1
        BYTE   W48
        BYTE                   Bn1
        BYTE   W48
// 048   ----------------------------------------
        BYTE                   En0
        BYTE   W48
        BYTE                   En1
        BYTE   W48
// 049   ----------------------------------------
        BYTE                   En1
        BYTE   W48
        BYTE                   En1
        BYTE   W48
// 050   ----------------------------------------
        BYTE           N96
        BYTE   W96
// 051   ----------------------------------------
        BYTE                   En1
        BYTE   W96
// 052   ----------------------------------------
        BYTE                   An1
        BYTE   W96
// 053   ----------------------------------------
        BYTE                   Fn1
        BYTE   W96
// 054   ----------------------------------------
        BYTE                   En1
        BYTE   W96
// 055   ----------------------------------------
        BYTE   PATT
         POIN2  CombatDestinyCut_3_39
// 056   ----------------------------------------
        BYTE           N96     Fn1   v080
        BYTE   W96
// 057   ----------------------------------------
        BYTE                   Dn1
        BYTE   W96
// 058   ----------------------------------------
        BYTE                   En1
        BYTE   W96
// 059   ----------------------------------------
        BYTE                   En1
        BYTE   W96
// 060   ----------------------------------------
        BYTE                   An1
        BYTE   W96
// 061   ----------------------------------------
        BYTE                   Fn1
        BYTE   W96
// 062   ----------------------------------------
        BYTE                   En1
        BYTE   W96
// 063   ----------------------------------------
        BYTE   PATT
         POIN2  CombatDestinyCut_3_39
// 064   ----------------------------------------
        BYTE           N96     Fn1   v080
        BYTE   W96
// 065   ----------------------------------------
        BYTE                   Dn1
        BYTE   W96
// 066   ----------------------------------------
        BYTE                   En1
        BYTE   W96
// 067   ----------------------------------------
        BYTE                   An1
        BYTE   W96
// 068   ----------------------------------------
        BYTE                   En1
        BYTE   W96
// 069   ----------------------------------------
        BYTE                   En1
        BYTE   W96
// 070   ----------------------------------------
        BYTE           TIE     An1
        BYTE   W24
        BYTE                   En2   v096
        BYTE   W72
// 071   ----------------------------------------
        BYTE   W92
        BYTE   W03
        BYTE           EOT
        BYTE   W01
// 072   ----------------------------------------
        BYTE                   An1
        BYTE           TIE     Cn2
        BYTE           TIE     Fn1   v080
        BYTE   W96
// 073   ----------------------------------------
        BYTE   W92
        BYTE   W03
        BYTE           EOT     Cn2
        BYTE   W01
// 074   ----------------------------------------
        BYTE                   Fn1
        BYTE           TIE     An1   v096
        BYTE           TIE     Dn1   v080
        BYTE   W96
// 075   ----------------------------------------
        BYTE   W92
        BYTE   W03
        BYTE           EOT     An1
        BYTE   W01
// 076   ----------------------------------------
        BYTE                   Dn1
        BYTE           TIE     Bn1   v096
        BYTE           TIE     En1   v080
        BYTE   W96
// 077   ----------------------------------------
        BYTE   W96
// 078   ----------------------------------------
        BYTE   W96
// 079   ----------------------------------------
        BYTE   W92
        BYTE   W03
        BYTE           EOT     Bn1
        BYTE   W01
// 080   ----------------------------------------
        BYTE                   En1
        BYTE           N23     An2   v119
        BYTE           TIE     An1   v080
        BYTE   W96
// 081   ----------------------------------------
        BYTE           N23     Cn2   v117
        BYTE   W24
        BYTE                   Cn2   v118
        BYTE   W24
        BYTE                   En2   v120
        BYTE   W24
        BYTE                   En2
        BYTE   W24
// 082   ----------------------------------------
        BYTE           EOT     An1
        BYTE           N23     An2   v106
        BYTE           TIE     Fn1   v080
        BYTE   W96
// 083   ----------------------------------------
        BYTE           N23     Cn2   v119
        BYTE   W24
        BYTE                   Cn2   v118
        BYTE   W24
        BYTE                   En2   v120
        BYTE   W24
        BYTE                   En2   v122
        BYTE   W24
// 084   ----------------------------------------
        BYTE           EOT     Fn1
        BYTE           N23     An2   v120
        BYTE           TIE     Dn1   v080
        BYTE   W96
// 085   ----------------------------------------
        BYTE           N23     Cn2   v119
        BYTE   W24
        BYTE                   Cn2   v114
        BYTE   W24
        BYTE                   En2   v115
        BYTE   W24
        BYTE                   En2   v121
        BYTE   W24
// 086   ----------------------------------------
        BYTE           EOT     Dn1
        BYTE           N23     An2   v118
        BYTE           TIE     En1   v080
        BYTE   W96
// 087   ----------------------------------------
        BYTE           N23     Cn2   v118
        BYTE   W24
        BYTE                   Cn2   v115
        BYTE   W24
        BYTE                   En2   v121
        BYTE   W24
        BYTE                   En2
        BYTE   W24
// 088   ----------------------------------------
        BYTE           EOT     En1
        BYTE           N23     An2
        BYTE           TIE     An1   v080
        BYTE   W96
// 089   ----------------------------------------
        BYTE           N23     Cn2   v114
        BYTE   W24
        BYTE                   Cn2   v118
        BYTE   W24
        BYTE                   En2   v119
        BYTE   W24
        BYTE                   En2   v120
        BYTE   W24
// 090   ----------------------------------------
        BYTE           EOT     An1
        BYTE           N23     An2   v122
        BYTE           TIE     Fn1   v080
        BYTE   W96
// 091   ----------------------------------------
        BYTE           N23     Cn2   v118
        BYTE   W24
        BYTE                   Cn2   v115
        BYTE   W24
        BYTE                   En2   v121
        BYTE   W24
        BYTE                   En2   v122
        BYTE   W24
// 092   ----------------------------------------
        BYTE           EOT     Fn1
        BYTE           N23     An2   v121
        BYTE           TIE     Dn1   v080
        BYTE   W96
// 093   ----------------------------------------
CombatDestinyCut_3_93:
        BYTE           N23     Cn2   v116
        BYTE   W24
        BYTE                   Cn2   v117
        BYTE   W24
        BYTE                   En2   v120
        BYTE   W24
        BYTE                   En2   v122
        BYTE   W24
        BYTE   PEND
// 094   ----------------------------------------
        BYTE           EOT     Dn1
        BYTE           N23     An2   v111
        BYTE           TIE     En1   v080
        BYTE   W96
// 095   ----------------------------------------
        BYTE   PATT
         POIN2  CombatDestinyCut_3_93
// 096   ----------------------------------------
        BYTE           EOT     En1
        BYTE           N23     An2   v112
        BYTE           N96     An1   v080
        BYTE   W96
// 097   ----------------------------------------
        BYTE   W96
// 098   ----------------------------------------
        BYTE   W96
// 099   ----------------------------------------
        BYTE   W96
// 100   ----------------------------------------
        BYTE   W96
// 101   ----------------------------------------
        BYTE   W96
// 102   ----------------------------------------
        BYTE   W96
// 103   ----------------------------------------
        BYTE   W96
// 104   ----------------------------------------
        BYTE   W96
// 105   ----------------------------------------
        BYTE   W96
// 106   ----------------------------------------
        BYTE   W96
// 107   ----------------------------------------
        BYTE   W96
// 108   ----------------------------------------
        BYTE   W96
// 109   ----------------------------------------
        BYTE   W96
// 110   ----------------------------------------
        BYTE   W72
        BYTE           N23     Gs1   v076
        BYTE   W24
// 111   ----------------------------------------
        BYTE                   En2
        BYTE           N72     En1   v080
        BYTE   W24
        BYTE           N23     Bn1   v076
        BYTE   W24
        BYTE                   Gs1
        BYTE   W24
        BYTE                   En1   v080
        BYTE   W24
// 112   ----------------------------------------
        BYTE   W96
// 113   ----------------------------------------
        BYTE   W96
// 114   ----------------------------------------
        BYTE   W96
// 115   ----------------------------------------
        BYTE   W96
// 116   ----------------------------------------
        BYTE   W96
// 117   ----------------------------------------
        BYTE   W96
// 118   ----------------------------------------
        BYTE   W96
// 119   ----------------------------------------
        BYTE   W96
// 120   ----------------------------------------
        BYTE   W96
// 121   ----------------------------------------
        BYTE   W96
// 122   ----------------------------------------
        BYTE   W96
// 123   ----------------------------------------
        BYTE   W96
// 124   ----------------------------------------
        BYTE   W96
// 125   ----------------------------------------
        BYTE   W96
// 126   ----------------------------------------
        BYTE   W96
// 127   ----------------------------------------
        BYTE   W96
// 128   ----------------------------------------
        BYTE           N92     Bn2   v096   gtp3
        BYTE           N96     En1   v080
        BYTE   W96
// 129   ----------------------------------------
        BYTE           N92     Gs2   v096   gtp3
        BYTE           N96     En1   v080
        BYTE   W96
// 130   ----------------------------------------
        BYTE           N68     An2   v096   gtp3
        BYTE           TIE     An1   v080
        BYTE   W96
// 131   ----------------------------------------
        BYTE   W96
// 132   ----------------------------------------
        BYTE   W96
// 133   ----------------------------------------
        BYTE   W96
// 134   ----------------------------------------
        BYTE   W96
// 135   ----------------------------------------
        BYTE   W96
// 136   ----------------------------------------
        BYTE   W96
// 137   ----------------------------------------
        BYTE   W96
// 138   ----------------------------------------
        BYTE   W96
// 139   ----------------------------------------
        BYTE   W96
// 140   ----------------------------------------
        BYTE           EOT
        BYTE   GoTo
         POIN2  CombatDestinyCut_3_LOOP
        BYTE   FINE

//****************** Track 4 (Midi-Chn.4) ******************//

CombatDestinyCut_4:
        BYTE   KEYSH   CombatDestinyCut_key+0
// 000   ----------------------------------------
        BYTE           VOICE   48
        BYTE           PAN     c_v+6
        BYTE           VOL     40
        BYTE           BENDR   12
        BYTE   W96
// 001   ----------------------------------------
        BYTE   W96
// 002   ----------------------------------------
        BYTE           TIE     En5   v080
        BYTE   W96
// 003   ----------------------------------------
        BYTE   W92
        BYTE   W03
        BYTE           EOT
        BYTE   W01
// 004   ----------------------------------------
        BYTE           TIE     Bn4
        BYTE   W96
// 005   ----------------------------------------
        BYTE   W92
        BYTE   W03
        BYTE           EOT
        BYTE   W01
// 006   ----------------------------------------
        BYTE           TIE     Gn5
        BYTE   W96
// 007   ----------------------------------------
        BYTE   W92
        BYTE   W03
        BYTE           EOT
        BYTE   W01
// 008   ----------------------------------------
        BYTE           TIE     Dn5
        BYTE   W96
// 009   ----------------------------------------
        BYTE   W92
        BYTE   W03
        BYTE           EOT
        BYTE   W01
// 010   ----------------------------------------
CombatDestinyCut_4_10:
        BYTE   W24
        BYTE           N44     Cn4   v080   gtp3
        BYTE   W48
        BYTE           N23     Bn3
        BYTE   W24
        BYTE   PEND
// 011   ----------------------------------------
CombatDestinyCut_4_11:
        BYTE           N23     An3   v080
        BYTE   W24
        BYTE           N68     En3   v080   gtp3
        BYTE   W72
        BYTE   PEND
// 012   ----------------------------------------
CombatDestinyCut_4_12:
        BYTE           N68     En4   v080   gtp3
        BYTE   W72
        BYTE           N23     Dn4
        BYTE   W24
        BYTE   PEND
// 013   ----------------------------------------
CombatDestinyCut_4_13:
        BYTE           N23     Cn4   v080
        BYTE   W24
        BYTE           N68     An3   v080   gtp3
        BYTE   W72
        BYTE   PEND
// 014   ----------------------------------------
CombatDestinyCut_4_14:
        BYTE           N68     Gn4   v080   gtp3
        BYTE   W72
        BYTE           N23     Fn4
        BYTE   W24
        BYTE   PEND
// 015   ----------------------------------------
CombatDestinyCut_4_15:
        BYTE           N23     En4   v080
        BYTE   W24
        BYTE           N68     Cn4   v080   gtp3
        BYTE   W72
        BYTE   PEND
// 016   ----------------------------------------
CombatDestinyCut_4_16:
        BYTE           N68     Dn4   v080   gtp3
        BYTE   W72
        BYTE           N23     En4
        BYTE   W24
        BYTE   PEND
// 017   ----------------------------------------
CombatDestinyCut_4_17:
        BYTE           N44     An4   v080   gtp3
        BYTE   W48
        BYTE           TIE     Bn4
        BYTE   W48
        BYTE   PEND
// 018   ----------------------------------------
        BYTE   W96
// 019   ----------------------------------------
        BYTE   W92
        BYTE   W03
        BYTE           EOT
        BYTE   W01
// 020   ----------------------------------------
CombatDestinyCut_4_LOOP:
        BYTE           N23     An4   v080
        BYTE   W24
        BYTE           N05     An3
        BYTE   W06
        BYTE                   An3
        BYTE   W06
        BYTE                   An3
        BYTE   W06
        BYTE                   An3
        BYTE   W06
        BYTE           N23
        BYTE   W24
        BYTE           N05
        BYTE   W06
        BYTE                   An3
        BYTE   W06
        BYTE                   An3
        BYTE   W06
        BYTE                   An3
        BYTE   W06
// 021   ----------------------------------------
        BYTE           N23
        BYTE   W96
// 022   ----------------------------------------
CombatDestinyCut_4_22:
        BYTE           N23     Cn4   v080
        BYTE   W24
        BYTE           N05     An3
        BYTE   W06
        BYTE                   An3
        BYTE   W06
        BYTE                   An3
        BYTE   W06
        BYTE                   An3
        BYTE   W06
        BYTE           N23
        BYTE   W24
        BYTE           N05
        BYTE   W06
        BYTE                   An3
        BYTE   W06
        BYTE                   An3
        BYTE   W06
        BYTE                   An3
        BYTE   W06
        BYTE   PEND
// 023   ----------------------------------------
        BYTE           N23
        BYTE   W96
// 024   ----------------------------------------
CombatDestinyCut_4_24:
        BYTE           N23     En4   v080
        BYTE   W24
        BYTE           N05     An3
        BYTE   W06
        BYTE                   An3
        BYTE   W06
        BYTE                   An3
        BYTE   W06
        BYTE                   An3
        BYTE   W06
        BYTE           N23
        BYTE   W24
        BYTE           N05
        BYTE   W06
        BYTE                   An3
        BYTE   W06
        BYTE                   An3
        BYTE   W06
        BYTE                   An3
        BYTE   W06
        BYTE   PEND
// 025   ----------------------------------------
        BYTE           N23
        BYTE   W96
// 026   ----------------------------------------
CombatDestinyCut_4_26:
        BYTE           N23     Gn4   v080
        BYTE   W24
        BYTE           N05     An3
        BYTE   W06
        BYTE                   An3
        BYTE   W06
        BYTE                   An3
        BYTE   W06
        BYTE                   An3
        BYTE   W06
        BYTE           N23
        BYTE   W24
        BYTE           N05
        BYTE   W06
        BYTE                   An3
        BYTE   W06
        BYTE                   An3
        BYTE   W06
        BYTE                   An3
        BYTE   W06
        BYTE   PEND
// 027   ----------------------------------------
        BYTE           N23
        BYTE   W96
// 028   ----------------------------------------
CombatDestinyCut_4_28:
        BYTE           N23     Cn4   v080
        BYTE   W24
        BYTE           N05
        BYTE   W06
        BYTE                   Cn4
        BYTE   W06
        BYTE                   Cn4
        BYTE   W06
        BYTE                   Cn4
        BYTE   W06
        BYTE           N23
        BYTE   W24
        BYTE           N05
        BYTE   W06
        BYTE                   Cn4
        BYTE   W06
        BYTE                   Cn4
        BYTE   W06
        BYTE                   Cn4
        BYTE   W06
        BYTE   PEND
// 029   ----------------------------------------
        BYTE           N23
        BYTE   W96
// 030   ----------------------------------------
CombatDestinyCut_4_30:
        BYTE           N23     En4   v080
        BYTE   W24
        BYTE           N05
        BYTE   W06
        BYTE                   En4
        BYTE   W06
        BYTE                   En4
        BYTE   W06
        BYTE                   En4
        BYTE   W06
        BYTE           N23
        BYTE   W24
        BYTE           N05
        BYTE   W06
        BYTE                   En4
        BYTE   W06
        BYTE                   En4
        BYTE   W06
        BYTE                   En4
        BYTE   W06
        BYTE   PEND
// 031   ----------------------------------------
        BYTE           N23
        BYTE   W96
// 032   ----------------------------------------
        BYTE                   Gn4
        BYTE   W24
        BYTE           N05
        BYTE   W06
        BYTE                   Gn4
        BYTE   W06
        BYTE                   Gn4
        BYTE   W06
        BYTE                   Gn4
        BYTE   W06
        BYTE           N23
        BYTE   W24
        BYTE           N05
        BYTE   W06
        BYTE                   Gn4
        BYTE   W06
        BYTE                   Gn4
        BYTE   W06
        BYTE                   Gn4
        BYTE   W06
// 033   ----------------------------------------
        BYTE           N23
        BYTE   W96
// 034   ----------------------------------------
        BYTE                   An4
        BYTE   W24
        BYTE           N05
        BYTE   W06
        BYTE                   An4
        BYTE   W06
        BYTE                   An4
        BYTE   W06
        BYTE                   An4
        BYTE   W06
        BYTE           N23
        BYTE   W24
        BYTE           N05
        BYTE   W06
        BYTE                   An4
        BYTE   W06
        BYTE                   An4
        BYTE   W06
        BYTE                   An4
        BYTE   W06
// 035   ----------------------------------------
        BYTE           N23
        BYTE   W96
// 036   ----------------------------------------
        BYTE   W24
        BYTE                   En3
        BYTE   W24
        BYTE           N11     An3
        BYTE   W12
        BYTE                   Bn3
        BYTE   W12
        BYTE                   Cn4
        BYTE   W12
        BYTE                   Dn4
        BYTE   W12
// 037   ----------------------------------------
        BYTE           N68     En4   v080   gtp3
        BYTE   W72
        BYTE           N11     Dn4
        BYTE   W12
        BYTE                   Cn4
        BYTE   W12
// 038   ----------------------------------------
        BYTE           N44     Dn4   v080   gtp3
        BYTE   W48
        BYTE           N23
        BYTE   W24
        BYTE           N11     Gn4
        BYTE   W12
        BYTE           TIE     En4
        BYTE   W12
// 039   ----------------------------------------
        BYTE           N44     Cn3   v048   gtp3
        BYTE   W48
        BYTE                   Bn2   v032
        BYTE   W44
        BYTE   W03
        BYTE           EOT     En4
        BYTE   W01
// 040   ----------------------------------------
        BYTE           N92     An2   v040   gtp3
        BYTE           N56     An3   v080   gtp3
        BYTE   W60
        BYTE           N11     Bn3
        BYTE   W12
        BYTE                   Cn4
        BYTE   W12
        BYTE                   Dn4
        BYTE   W12
// 041   ----------------------------------------
        BYTE           N68     En3   v054   gtp3
        BYTE                   En4   v080
        BYTE   W72
        BYTE           N11     Dn3   v052
        BYTE           N11     Dn4   v080
        BYTE   W12
        BYTE                   Cn3   v040
        BYTE           N11     Cn4   v080
        BYTE   W12
// 042   ----------------------------------------
        BYTE           N32     Dn3   v047   gtp3
        BYTE                   Dn4   v080
        BYTE   W36
        BYTE                   Bn2   v059
        BYTE           N32     Bn3   v080   gtp3
        BYTE   W36
        BYTE           N23     Gn2   v061
        BYTE           N23     Gn3   v080
        BYTE   W24
// 043   ----------------------------------------
        BYTE           N44     Dn3   v033   gtp3
        BYTE           N92     En3   v080   gtp3
        BYTE   W48
        BYTE           N44     Cs3   v050   gtp3
        BYTE   W48
// 044   ----------------------------------------
        BYTE           N68     Dn3   v017   gtp3
        BYTE           N32     An3   v080   gtp3
        BYTE   W36
        BYTE                   Bn3
        BYTE   W36
        BYTE           N23     Cn4
        BYTE   W24
// 045   ----------------------------------------
        BYTE           N92     En3   v017   gtp3
        BYTE           N23     Dn4   v080
        BYTE   W24
        BYTE           N11     En4
        BYTE   W12
        BYTE           N56     Dn4   v080   gtp3
        BYTE   W60
// 046   ----------------------------------------
        BYTE           N92     Fn3   v017   gtp3
        BYTE           N32     Bn3   v080   gtp3
        BYTE   W36
        BYTE                   Cn4
        BYTE   W36
        BYTE           N23     Dn4
        BYTE   W24
// 047   ----------------------------------------
        BYTE           N44     As2   v050   gtp3
        BYTE           N23     En4   v080
        BYTE   W24
        BYTE           N11     Fn4
        BYTE   W12
        BYTE           N32     En4   v080   gtp3
        BYTE   W12
        BYTE           N44     Bn2   v050   gtp3
        BYTE   W24
        BYTE           N23     Dn4   v080
        BYTE   W24
// 048   ----------------------------------------
        BYTE           N44     Cn3   v039   gtp3
        BYTE                   Cn4   v080
        BYTE   W48
        BYTE                   Bn2   v039
        BYTE           N44     Bn3   v080   gtp3
        BYTE   W48
// 049   ----------------------------------------
        BYTE                   Fn3   v039
        BYTE           N44     Fn4   v080   gtp3
        BYTE   W48
        BYTE                   En3   v039
        BYTE           N44     En4   v080   gtp3
        BYTE   W48
// 050   ----------------------------------------
        BYTE           N23
        BYTE   W24
        BYTE                   Bn3   v096
        BYTE   W24
        BYTE                   Gs3
        BYTE   W24
        BYTE                   En3
        BYTE   W24
// 051   ----------------------------------------
        BYTE                   Bn3
        BYTE   W24
        BYTE                   Gs3
        BYTE   W24
        BYTE                   En3
        BYTE   W24
        BYTE                   Bn2
        BYTE   W24
// 052   ----------------------------------------
CombatDestinyCut_4_52:
        BYTE           TIE     An3   v096
        BYTE           N23     Cn4   v080
        BYTE   W24
        BYTE           N11     Bn3
        BYTE   W12
        BYTE           N23     Cn4
        BYTE   W24
        BYTE           N32     En4   v080   gtp3
        BYTE   W36
        BYTE   PEND
// 053   ----------------------------------------
CombatDestinyCut_4_53:
        BYTE           N44     An4   v080   gtp3
        BYTE   W23
        BYTE           EOT     An3
        BYTE   W01
        BYTE           N23     Cn4   v096
        BYTE   W24
        BYTE                   Bn3
        BYTE           N23     Bn4   v080
        BYTE   W24
        BYTE                   An3   v096
        BYTE           N23     Cn5   v080
        BYTE   W24
        BYTE   PEND
// 054   ----------------------------------------
        BYTE           N92     Bn3   v096   gtp3
        BYTE           N44     Bn4   v080   gtp3
        BYTE   W48
        BYTE           N23     Gn4
        BYTE   W24
        BYTE           N11     Dn4
        BYTE   W12
        BYTE           TIE     En4
        BYTE   W12
// 055   ----------------------------------------
CombatDestinyCut_4_55:
        BYTE   W24
        BYTE           N23     Cn3   v096
        BYTE   W24
        BYTE           N32     Bn2   v096   gtp3
        BYTE   W36
        BYTE           N11     Cn3
        BYTE   W11
        BYTE           EOT     En4
        BYTE   W01
        BYTE   PEND
// 056   ----------------------------------------
CombatDestinyCut_4_56:
        BYTE           TIE     En3   v096
        BYTE           N23     An4   v080
        BYTE   W24
        BYTE           N11     Gn4
        BYTE   W12
        BYTE           N32     En4   v080   gtp3
        BYTE   W36
        BYTE           N23     Cn4
        BYTE   W24
        BYTE   PEND
// 057   ----------------------------------------
CombatDestinyCut_4_57:
        BYTE           N68     An3   v080   gtp3
        BYTE   W23
        BYTE           EOT     En3
        BYTE   W01
        BYTE           N23     Fn3   v096
        BYTE   W24
        BYTE                   En3
        BYTE   W24
        BYTE                   Dn3
        BYTE           N23     Cn4   v080
        BYTE   W24
        BYTE   PEND
// 058   ----------------------------------------
        BYTE           N44     An3   v096   gtp3
        BYTE           N92     Dn4   v080   gtp3
        BYTE   W60
        BYTE           N11     Dn3   v096
        BYTE   W12
        BYTE                   Fn3
        BYTE   W12
        BYTE                   An3
        BYTE   W12
// 059   ----------------------------------------
        BYTE           N92     Gs3   v096   gtp3
        BYTE                   En4   v080
        BYTE   W96
// 060   ----------------------------------------
        BYTE   PATT
         POIN2  CombatDestinyCut_4_52
// 061   ----------------------------------------
        BYTE   PATT
         POIN2  CombatDestinyCut_4_53
// 062   ----------------------------------------
        BYTE           N92     Bn3   v096   gtp3
        BYTE           N44     Dn5   v080   gtp3
        BYTE   W48
        BYTE           N23     Bn4
        BYTE   W24
        BYTE           N11     Gn4
        BYTE   W12
        BYTE           TIE     En4
        BYTE   W12
// 063   ----------------------------------------
        BYTE   PATT
         POIN2  CombatDestinyCut_4_55
// 064   ----------------------------------------
        BYTE   PATT
         POIN2  CombatDestinyCut_4_56
// 065   ----------------------------------------
        BYTE   PATT
         POIN2  CombatDestinyCut_4_57
// 066   ----------------------------------------
        BYTE           N44     Dn4   v080   gtp3
        BYTE   W48
        BYTE                   Bn3
        BYTE   W48
// 067   ----------------------------------------
        BYTE           N23     An3
        BYTE   W24
        BYTE                   Dn3   v096
        BYTE   W24
        BYTE                   An3
        BYTE   W24
        BYTE                   Cn4
        BYTE           N23     Cn5   v080
        BYTE   W24
// 068   ----------------------------------------
        BYTE           N32     Dn4   v096   gtp3
        BYTE           N92     Dn5   v080   gtp3
        BYTE   W36
        BYTE           N05     Dn4   v096
        BYTE   W06
        BYTE                   Dn4
        BYTE   W06
        BYTE           N44     Dn4   v096   gtp3
        BYTE   W48
// 069   ----------------------------------------
        BYTE           N32     Bn3   v096   gtp3
        BYTE           N92     Bn4   v080   gtp3
        BYTE   W36
        BYTE           N05     Bn3   v096
        BYTE   W06
        BYTE                   Bn3
        BYTE   W06
        BYTE           N44     Bn3   v096   gtp3
        BYTE   W48
// 070   ----------------------------------------
        BYTE           N23     An3
        BYTE           N23     An4   v080
        BYTE   W24
        BYTE           N44     Cn4   v080   gtp3
        BYTE   W48
        BYTE           N23     Bn3
        BYTE   W24
// 071   ----------------------------------------
        BYTE   PATT
         POIN2  CombatDestinyCut_4_11
// 072   ----------------------------------------
        BYTE   PATT
         POIN2  CombatDestinyCut_4_12
// 073   ----------------------------------------
        BYTE   PATT
         POIN2  CombatDestinyCut_4_13
// 074   ----------------------------------------
        BYTE   PATT
         POIN2  CombatDestinyCut_4_14
// 075   ----------------------------------------
        BYTE   PATT
         POIN2  CombatDestinyCut_4_15
// 076   ----------------------------------------
        BYTE   PATT
         POIN2  CombatDestinyCut_4_16
// 077   ----------------------------------------
        BYTE   PATT
         POIN2  CombatDestinyCut_4_17
// 078   ----------------------------------------
        BYTE   W24
        BYTE           N23     Cn2   v076
        BYTE   W24
        BYTE           TIE     Cn3   v079
        BYTE   W48
// 079   ----------------------------------------
        BYTE   W92
        BYTE   W03
        BYTE           EOT
        BYTE           EOT     Bn4
        BYTE   W01
// 080   ----------------------------------------
        BYTE           N23     An2   v106
        BYTE           N23     An4   v080
        BYTE   W24
        BYTE           N05     An3
        BYTE   W06
        BYTE                   An3
        BYTE   W06
        BYTE                   An3
        BYTE   W06
        BYTE                   An3
        BYTE   W06
        BYTE           N23
        BYTE   W24
        BYTE           N05
        BYTE   W06
        BYTE                   An3
        BYTE   W06
        BYTE                   An3
        BYTE   W06
        BYTE                   An3
        BYTE   W06
// 081   ----------------------------------------
        BYTE           N23
        BYTE   W96
// 082   ----------------------------------------
        BYTE   PATT
         POIN2  CombatDestinyCut_4_22
// 083   ----------------------------------------
        BYTE           N23     An3   v080
        BYTE   W96
// 084   ----------------------------------------
        BYTE   PATT
         POIN2  CombatDestinyCut_4_24
// 085   ----------------------------------------
        BYTE           N23     An3   v080
        BYTE   W96
// 086   ----------------------------------------
        BYTE   PATT
         POIN2  CombatDestinyCut_4_26
// 087   ----------------------------------------
        BYTE           N23     An3   v080
        BYTE   W96
// 088   ----------------------------------------
        BYTE                   Cn4
        BYTE   W24
        BYTE           N44     Cn3   v096   gtp3
        BYTE           N05     Cn4   v080
        BYTE   W06
        BYTE                   Cn4
        BYTE   W06
        BYTE                   Cn4
        BYTE   W06
        BYTE                   Cn4
        BYTE   W06
        BYTE           N23
        BYTE   W24
        BYTE                   Bn2   v096
        BYTE           N05     Cn4   v080
        BYTE   W06
        BYTE                   Cn4
        BYTE   W06
        BYTE                   Cn4
        BYTE   W06
        BYTE                   Cn4
        BYTE   W06
// 089   ----------------------------------------
        BYTE           N23     An2   v096
        BYTE           N23     Cn4   v080
        BYTE   W24
        BYTE           N68     En2   v096   gtp3
        BYTE   W72
// 090   ----------------------------------------
        BYTE                   En3
        BYTE           N23     En4   v080
        BYTE   W24
        BYTE           N05
        BYTE   W06
        BYTE                   En4
        BYTE   W06
        BYTE                   En4
        BYTE   W06
        BYTE                   En4
        BYTE   W06
        BYTE           N23
        BYTE   W24
        BYTE                   Dn3   v096
        BYTE           N05     En4   v080
        BYTE   W06
        BYTE                   En4
        BYTE   W06
        BYTE                   En4
        BYTE   W06
        BYTE                   En4
        BYTE   W06
// 091   ----------------------------------------
        BYTE           N23     Cn3   v096
        BYTE           N23     En4   v080
        BYTE   W24
        BYTE           N68     An2   v096   gtp3
        BYTE   W72
// 092   ----------------------------------------
        BYTE                   Gn3
        BYTE           N23     Gn4   v080
        BYTE   W24
        BYTE           N05
        BYTE   W06
        BYTE                   Gn4
        BYTE   W06
        BYTE                   Gn4
        BYTE   W06
        BYTE                   Gn4
        BYTE   W06
        BYTE           N23
        BYTE   W24
        BYTE                   Fn3   v096
        BYTE           N05     Gn4   v080
        BYTE   W06
        BYTE                   Gn4
        BYTE   W06
        BYTE                   Gn4
        BYTE   W06
        BYTE                   Gn4
        BYTE   W06
// 093   ----------------------------------------
        BYTE           N23     En3   v096
        BYTE           N23     Gn4   v080
        BYTE   W24
        BYTE           N68     Cn3   v096   gtp3
        BYTE   W72
// 094   ----------------------------------------
        BYTE                   Dn3
        BYTE           N23     An4   v080
        BYTE   W24
        BYTE           N05
        BYTE   W06
        BYTE                   An4
        BYTE   W06
        BYTE                   An4
        BYTE   W06
        BYTE                   An4
        BYTE   W06
        BYTE           N23
        BYTE   W24
        BYTE                   En3   v096
        BYTE           N05     An4   v080
        BYTE   W06
        BYTE                   An4
        BYTE   W06
        BYTE                   An4
        BYTE   W06
        BYTE                   An4
        BYTE   W06
// 095   ----------------------------------------
        BYTE           N44     An3   v096   gtp3
        BYTE           N23     An4   v080
        BYTE   W48
        BYTE           N44     Bn3   v096   gtp3
        BYTE   W48
// 096   ----------------------------------------
        BYTE                   An3
        BYTE   W24
        BYTE           N23     En3
        BYTE   W24
        BYTE           N11     An3
        BYTE   W12
        BYTE                   Bn3
        BYTE   W12
        BYTE                   Cn4
        BYTE   W12
        BYTE                   Dn4
        BYTE   W12
// 097   ----------------------------------------
        BYTE           N68     En4   v096   gtp3
        BYTE   W24
        BYTE           N23     An3   v076
        BYTE   W24
        BYTE           N32     Gn3   v082   gtp3
        BYTE   W24
        BYTE           N11     Dn4   v096
        BYTE   W12
        BYTE                   En3   v085
        BYTE           N11     Cn4   v096
        BYTE   W12
// 098   ----------------------------------------
        BYTE           N92     Gn3   v093   gtp3
        BYTE           N44     Dn4   v096   gtp3
        BYTE   W48
        BYTE           N23
        BYTE   W24
        BYTE           N11     Gn4
        BYTE   W12
        BYTE           TIE     En4
        BYTE   W12
// 099   ----------------------------------------
        BYTE   W24
        BYTE           N23     Cn4   v075
        BYTE   W24
        BYTE           N32     Bn3   v080   gtp3
        BYTE   W36
        BYTE           N11     En3   v083
        BYTE   W11
        BYTE           EOT     En4
        BYTE   W01
// 100   ----------------------------------------
        BYTE           N56     An3   v096   gtp3
        BYTE   W60
        BYTE           N11     Bn3
        BYTE   W12
        BYTE                   Cn4
        BYTE   W12
        BYTE                   Dn4
        BYTE   W12
// 101   ----------------------------------------
        BYTE           N68     En4   v096   gtp3
        BYTE   W24
        BYTE           N23     An3   v086
        BYTE   W24
        BYTE           N32     Gn3   v084   gtp3
        BYTE   W24
        BYTE           N11     Dn4   v096
        BYTE   W12
        BYTE                   En3   v081
        BYTE           N11     Cn4   v096
        BYTE   W12
// 102   ----------------------------------------
        BYTE           N72     Gn3   v083
        BYTE           N32     Dn4   v096   gtp3
        BYTE   W36
        BYTE                   Bn3
        BYTE   W36
        BYTE           N23     Gn3
        BYTE   W24
// 103   ----------------------------------------
        BYTE           N44     Dn3   v079   gtp3
        BYTE           N92     En3   v096   gtp3
        BYTE   W48
        BYTE           N44     Cs3   v082   gtp3
        BYTE   W48
// 104   ----------------------------------------
        BYTE           N92     Fn3   v055   gtp3
        BYTE           N32     An3   v096   gtp3
        BYTE   W36
        BYTE                   Bn3
        BYTE   W36
        BYTE           N23     Cn4
        BYTE   W24
// 105   ----------------------------------------
        BYTE           N92     Gn3   v055   gtp3
        BYTE           N23     Dn4   v096
        BYTE   W24
        BYTE           N11     En4
        BYTE   W12
        BYTE           N56     Dn4   v096   gtp3
        BYTE   W60
// 106   ----------------------------------------
        BYTE           N92     An3   v055   gtp3
        BYTE           N32     Bn3   v096   gtp3
        BYTE   W36
        BYTE                   Cn4
        BYTE   W36
        BYTE           N23     Dn4
        BYTE   W24
// 107   ----------------------------------------
        BYTE           N44     As3   v055   gtp3
        BYTE           N23     En4   v096
        BYTE   W24
        BYTE           N11     Fn4
        BYTE   W12
        BYTE           N32     En4   v096   gtp3
        BYTE   W12
        BYTE           N44     Bn3   v055   gtp3
        BYTE   W24
        BYTE           N23     Dn4   v096
        BYTE   W24
// 108   ----------------------------------------
        BYTE   PATT
         POIN2  CombatDestinyCut_1_115
// 109   ----------------------------------------
        BYTE           N44     Fn4   v096   gtp3
        BYTE   W48
        BYTE                   En4
        BYTE   W48
// 110   ----------------------------------------
        BYTE           N23     Bn3   v105
        BYTE           TIE     En4   v096
        BYTE   W24
        BYTE           N23     Gs3   v105
        BYTE   W24
        BYTE                   En3
        BYTE   W24
        BYTE                   Bn2
        BYTE   W24
// 111   ----------------------------------------
        BYTE                   Gs3
        BYTE   W24
        BYTE                   En3
        BYTE   W24
        BYTE                   Bn2
        BYTE   W24
        BYTE                   Gs2
        BYTE   W23
        BYTE           EOT     En4
        BYTE   W01
// 112   ----------------------------------------
        BYTE           N92     An3   v101   gtp3
        BYTE           N23     Cn4   v096
        BYTE   W24
        BYTE           N11     Bn3
        BYTE   W12
        BYTE           N23     Cn4
        BYTE   W24
        BYTE           N32     En4   v096   gtp3
        BYTE   W36
// 113   ----------------------------------------
        BYTE           N44     An4   v096   gtp3
        BYTE   W24
        BYTE           N23     An3   v099
        BYTE   W24
        BYTE                   Gn3   v091
        BYTE           N23     Bn4   v096
        BYTE   W24
        BYTE                   En3   v088
        BYTE           N23     Cn5   v096
        BYTE   W24
// 114   ----------------------------------------
        BYTE           N68     Gn3   v115   gtp3
        BYTE           N44     Bn4   v096   gtp3
        BYTE   W48
        BYTE           N23     Gn4
        BYTE   W24
        BYTE           N11     Dn4
        BYTE   W12
        BYTE           TIE     En4
        BYTE   W12
// 115   ----------------------------------------
        BYTE   W24
        BYTE           N23     Cn3   v086
        BYTE   W24
        BYTE           N32     Bn2   v084   gtp3
        BYTE   W36
        BYTE           N11     Cn3   v089
        BYTE   W11
        BYTE           EOT     En4
        BYTE   W01
// 116   ----------------------------------------
        BYTE           N92     An3   v097   gtp3
        BYTE           N23     An4   v096
        BYTE   W24
        BYTE           N11     Gn4
        BYTE   W12
        BYTE           N32     En4   v096   gtp3
        BYTE   W36
        BYTE           N23     Cn4
        BYTE   W24
// 117   ----------------------------------------
        BYTE           N68     An3   v096   gtp3
        BYTE   W24
        BYTE           N23     Fn3   v088
        BYTE   W24
        BYTE                   En3   v089
        BYTE   W24
        BYTE                   Dn3   v098
        BYTE           N23     Cn4   v096
        BYTE   W24
// 118   ----------------------------------------
        BYTE           N56     An3   v107   gtp3
        BYTE           N92     Dn4   v096   gtp3
        BYTE   W60
        BYTE           N11     Dn3   v086
        BYTE   W12
        BYTE                   En3
        BYTE   W12
        BYTE                   An3   v112
        BYTE   W12
// 119   ----------------------------------------
        BYTE           N92     Gs3   v108   gtp3
        BYTE                   En4   v096
        BYTE   W96
// 120   ----------------------------------------
        BYTE           N44     An3   v108   gtp3
        BYTE           N23     Cn4   v096
        BYTE   W24
        BYTE           N11     Bn3
        BYTE   W12
        BYTE           N23     Cn4
        BYTE   W24
        BYTE           N32     En4   v096   gtp3
        BYTE   W36
// 121   ----------------------------------------
        BYTE           N44     An4   v096   gtp3
        BYTE   W24
        BYTE           N23     En3   v105
        BYTE   W24
        BYTE                   Dn3   v104
        BYTE           N23     Bn4   v096
        BYTE   W24
        BYTE                   Cn3   v077
        BYTE           N23     Cn5   v096
        BYTE   W24
// 122   ----------------------------------------
        BYTE           N68     Dn3   v094   gtp3
        BYTE           N44     Dn5   v096   gtp3
        BYTE   W48
        BYTE           N23     Bn4
        BYTE   W24
        BYTE           N11     Gn4
        BYTE   W12
        BYTE           TIE     En4
        BYTE   W12
// 123   ----------------------------------------
        BYTE   W24
        BYTE           N23     Cn3   v100
        BYTE   W24
        BYTE           N32     Bn2   v093   gtp3
        BYTE   W36
        BYTE           N11     Cn3   v096
        BYTE   W11
        BYTE           EOT     En4
        BYTE   W01
// 124   ----------------------------------------
        BYTE           N68     En3   v100   gtp3
        BYTE           N23     An4   v096
        BYTE   W24
        BYTE           N11     Gn4
        BYTE   W12
        BYTE           N32     En4   v096   gtp3
        BYTE   W36
        BYTE           N23     Cn4
        BYTE   W24
// 125   ----------------------------------------
        BYTE           N68     An3   v096   gtp3
        BYTE   W24
        BYTE           N23     Fn3   v099
        BYTE   W24
        BYTE                   En3
        BYTE   W24
        BYTE                   Dn3   v098
        BYTE           N23     Cn4   v096
        BYTE   W24
// 126   ----------------------------------------
        BYTE           N44     An3   v099   gtp3
        BYTE                   Dn4   v096
        BYTE   W48
        BYTE                   Gs3   v089
        BYTE           N44     Bn3   v096   gtp3
        BYTE   W48
// 127   ----------------------------------------
        BYTE                   An3
        BYTE   W72
        BYTE           N23     Cn5
        BYTE   W24
// 128   ----------------------------------------
        BYTE                   An3   v123
        BYTE           N92     Dn5   v096   gtp3
        BYTE   W36
        BYTE           N05     An3   v120
        BYTE   W06
        BYTE                   An3   v117
        BYTE   W06
        BYTE           N44     An3   v117   gtp3
        BYTE   W48
// 129   ----------------------------------------
        BYTE           N32     Gs3   v126   gtp3
        BYTE           N92     Bn4   v096   gtp3
        BYTE   W36
        BYTE           N05     Gs3   v124
        BYTE   W06
        BYTE                   Gs3   v119
        BYTE   W06
        BYTE           N44     Gs3   v118   gtp3
        BYTE   W48
// 130   ----------------------------------------
        BYTE                   An3   v125
        BYTE           N23     An4   v095
        BYTE   W24
        BYTE           N44     Cn4   v096   gtp3
        BYTE   W48
        BYTE           N23     Bn3
        BYTE   W24
// 131   ----------------------------------------
CombatDestinyCut_4_131:
        BYTE           N23     An3   v096
        BYTE   W24
        BYTE           N68     En3   v096   gtp3
        BYTE   W72
        BYTE   PEND
// 132   ----------------------------------------
CombatDestinyCut_4_132:
        BYTE           N68     En4   v096   gtp3
        BYTE   W72
        BYTE           N23     Dn4
        BYTE   W24
        BYTE   PEND
// 133   ----------------------------------------
CombatDestinyCut_4_133:
        BYTE           N23     Cn4   v096
        BYTE   W24
        BYTE           N68     An3   v096   gtp3
        BYTE   W72
        BYTE   PEND
// 134   ----------------------------------------
CombatDestinyCut_4_134:
        BYTE           N68     Gn4   v096   gtp3
        BYTE   W72
        BYTE           N23     Fn4
        BYTE   W24
        BYTE   PEND
// 135   ----------------------------------------
CombatDestinyCut_4_135:
        BYTE           N23     En4   v096
        BYTE   W24
        BYTE           N68     Cn4   v096   gtp3
        BYTE   W72
        BYTE   PEND
// 136   ----------------------------------------
CombatDestinyCut_4_136:
        BYTE           N68     Dn4   v096   gtp3
        BYTE   W72
        BYTE           N23     En4
        BYTE   W24
        BYTE   PEND
// 137   ----------------------------------------
CombatDestinyCut_4_137:
        BYTE           N44     An4   v096   gtp3
        BYTE   W48
        BYTE           TIE     Bn4
        BYTE   W48
        BYTE   PEND
// 138   ----------------------------------------
        BYTE   W24
        BYTE           N23     Cn3   v092
        BYTE   W24
        BYTE           TIE     Cn4   v110
        BYTE   W48
// 139   ----------------------------------------
        BYTE   W92
        BYTE   W03
        BYTE           EOT
        BYTE           EOT     Bn4
        BYTE   W01
// 140   ----------------------------------------
        BYTE   GoTo
         POIN2  CombatDestinyCut_4_LOOP
        BYTE   FINE

//****************** Track 5 (Midi-Chn.5) ******************//

CombatDestinyCut_5:
        BYTE   KEYSH   CombatDestinyCut_key+0
// 000   ----------------------------------------
        BYTE           VOICE   61
        BYTE           PAN     c_v+24
        BYTE           VOL     38
        BYTE           BENDR   12
        BYTE   W96
// 001   ----------------------------------------
        BYTE   W96
// 002   ----------------------------------------
        BYTE   W96
// 003   ----------------------------------------
        BYTE   W96
// 004   ----------------------------------------
        BYTE   W96
// 005   ----------------------------------------
        BYTE   W96
// 006   ----------------------------------------
        BYTE   W96
// 007   ----------------------------------------
        BYTE   W96
// 008   ----------------------------------------
        BYTE   W96
// 009   ----------------------------------------
        BYTE   W96
// 010   ----------------------------------------
        BYTE   W96
// 011   ----------------------------------------
        BYTE   W96
// 012   ----------------------------------------
        BYTE   W96
// 013   ----------------------------------------
        BYTE   W96
// 014   ----------------------------------------
        BYTE   W96
// 015   ----------------------------------------
        BYTE   W96
// 016   ----------------------------------------
        BYTE   W96
// 017   ----------------------------------------
        BYTE   W96
// 018   ----------------------------------------
        BYTE   W96
// 019   ----------------------------------------
        BYTE   W96
// 020   ----------------------------------------
CombatDestinyCut_5_LOOP:
        BYTE   W96
// 021   ----------------------------------------
        BYTE   W96
// 022   ----------------------------------------
        BYTE   W96
// 023   ----------------------------------------
        BYTE   W96
// 024   ----------------------------------------
        BYTE   W96
// 025   ----------------------------------------
        BYTE   W96
// 026   ----------------------------------------
        BYTE   W96
// 027   ----------------------------------------
        BYTE   W96
// 028   ----------------------------------------
        BYTE   W96
// 029   ----------------------------------------
        BYTE   W96
// 030   ----------------------------------------
        BYTE   W96
// 031   ----------------------------------------
        BYTE   W96
// 032   ----------------------------------------
        BYTE   W96
// 033   ----------------------------------------
        BYTE   W96
// 034   ----------------------------------------
        BYTE   W96
// 035   ----------------------------------------
        BYTE   W96
// 036   ----------------------------------------
        BYTE   W96
// 037   ----------------------------------------
        BYTE   W96
// 038   ----------------------------------------
        BYTE   W96
// 039   ----------------------------------------
        BYTE   W96
// 040   ----------------------------------------
        BYTE   W96
// 041   ----------------------------------------
        BYTE   W96
// 042   ----------------------------------------
        BYTE   W96
// 043   ----------------------------------------
        BYTE   W96
// 044   ----------------------------------------
        BYTE   W96
// 045   ----------------------------------------
        BYTE   W96
// 046   ----------------------------------------
        BYTE   W96
// 047   ----------------------------------------
        BYTE   W96
// 048   ----------------------------------------
        BYTE   W96
// 049   ----------------------------------------
        BYTE   W96
// 050   ----------------------------------------
        BYTE   W96
// 051   ----------------------------------------
        BYTE   W96
// 052   ----------------------------------------
        BYTE   W96
// 053   ----------------------------------------
        BYTE   W96
// 054   ----------------------------------------
        BYTE   W96
// 055   ----------------------------------------
        BYTE   W96
// 056   ----------------------------------------
        BYTE   W96
// 057   ----------------------------------------
        BYTE   W96
// 058   ----------------------------------------
        BYTE   W96
// 059   ----------------------------------------
        BYTE   W96
// 060   ----------------------------------------
        BYTE   W96
// 061   ----------------------------------------
        BYTE   W96
// 062   ----------------------------------------
        BYTE   W96
// 063   ----------------------------------------
        BYTE   W96
// 064   ----------------------------------------
        BYTE   W96
// 065   ----------------------------------------
        BYTE   W96
// 066   ----------------------------------------
        BYTE   W96
// 067   ----------------------------------------
        BYTE   W96
// 068   ----------------------------------------
        BYTE   W96
// 069   ----------------------------------------
        BYTE   W96
// 070   ----------------------------------------
        BYTE   W96
// 071   ----------------------------------------
        BYTE   W96
// 072   ----------------------------------------
        BYTE   W96
// 073   ----------------------------------------
        BYTE   W96
// 074   ----------------------------------------
        BYTE   W96
// 075   ----------------------------------------
        BYTE   W96
// 076   ----------------------------------------
        BYTE   W96
// 077   ----------------------------------------
        BYTE   W96
// 078   ----------------------------------------
        BYTE   W24
        BYTE           N23     Cn3   v084
        BYTE   W24
        BYTE           TIE     Cn4   v087
        BYTE   W48
// 079   ----------------------------------------
        BYTE   W92
        BYTE   W03
        BYTE           EOT
        BYTE   W01
// 080   ----------------------------------------
        BYTE           N23     En3
        BYTE   W96
// 081   ----------------------------------------
        BYTE   W96
// 082   ----------------------------------------
        BYTE   W96
// 083   ----------------------------------------
        BYTE   W96
// 084   ----------------------------------------
        BYTE   W96
// 085   ----------------------------------------
        BYTE   W96
// 086   ----------------------------------------
        BYTE   W96
// 087   ----------------------------------------
        BYTE   W96
// 088   ----------------------------------------
        BYTE   W24
        BYTE           N44     Cn4   v096   gtp3
        BYTE   W48
        BYTE           N23     Bn3
        BYTE   W24
// 089   ----------------------------------------
        BYTE   PATT
         POIN2  CombatDestinyCut_4_131
// 090   ----------------------------------------
        BYTE   PATT
         POIN2  CombatDestinyCut_4_132
// 091   ----------------------------------------
        BYTE   PATT
         POIN2  CombatDestinyCut_4_133
// 092   ----------------------------------------
        BYTE   PATT
         POIN2  CombatDestinyCut_4_134
// 093   ----------------------------------------
        BYTE   PATT
         POIN2  CombatDestinyCut_4_135
// 094   ----------------------------------------
        BYTE   PATT
         POIN2  CombatDestinyCut_4_136
// 095   ----------------------------------------
        BYTE           N44     An4   v096   gtp3
        BYTE   W48
        BYTE                   Bn4
        BYTE   W48
// 096   ----------------------------------------
        BYTE                   An4
        BYTE   W96
// 097   ----------------------------------------
        BYTE   W96
// 098   ----------------------------------------
        BYTE   W96
// 099   ----------------------------------------
        BYTE   W96
// 100   ----------------------------------------
        BYTE   W96
// 101   ----------------------------------------
        BYTE   W96
// 102   ----------------------------------------
        BYTE   W96
// 103   ----------------------------------------
        BYTE   W96
// 104   ----------------------------------------
        BYTE           N32     An3   v125   gtp3
        BYTE   W36
        BYTE                   Bn3
        BYTE   W36
        BYTE           N23     Cn4
        BYTE   W24
// 105   ----------------------------------------
        BYTE                   Dn4
        BYTE   W24
        BYTE           N11     En4
        BYTE   W12
        BYTE           N56     Dn4   v125   gtp3
        BYTE   W60
// 106   ----------------------------------------
        BYTE           N32     Bn3   v125   gtp3
        BYTE   W36
        BYTE                   Cn4
        BYTE   W36
        BYTE           N23     Dn4
        BYTE   W24
// 107   ----------------------------------------
        BYTE                   En4
        BYTE   W24
        BYTE           N11     Fn4
        BYTE   W12
        BYTE           N32     En4   v125   gtp3
        BYTE   W36
        BYTE           N23     Dn4
        BYTE   W24
// 108   ----------------------------------------
        BYTE           N44     Cn4   v125   gtp3
        BYTE   W48
        BYTE                   Bn3
        BYTE   W48
// 109   ----------------------------------------
        BYTE                   Fn4   v089
        BYTE   W48
        BYTE                   En4
        BYTE   W48
// 110   ----------------------------------------
        BYTE           TIE     En4   v110
        BYTE   W96
// 111   ----------------------------------------
        BYTE   W92
        BYTE   W03
        BYTE           EOT
        BYTE   W01
// 112   ----------------------------------------
        BYTE   W96
// 113   ----------------------------------------
        BYTE   W96
// 114   ----------------------------------------
        BYTE   W96
// 115   ----------------------------------------
        BYTE   W96
// 116   ----------------------------------------
        BYTE   W96
// 117   ----------------------------------------
        BYTE   W96
// 118   ----------------------------------------
        BYTE   W96
// 119   ----------------------------------------
        BYTE   W24
        BYTE           N23     Bn3   v101
        BYTE   W24
        BYTE           N32     Dn4   v104   gtp3
        BYTE   W36
        BYTE           N11     Fn4   v117
        BYTE   W12
// 120   ----------------------------------------
        BYTE           N23     En4
        BYTE   W96
// 121   ----------------------------------------
        BYTE   W24
        BYTE           N68     An4   v121   gtp3
        BYTE   W72
// 122   ----------------------------------------
        BYTE   W24
        BYTE                   Gn4   v111
        BYTE   W72
// 123   ----------------------------------------
        BYTE   W24
        BYTE                   En4   v106
        BYTE   W72
// 124   ----------------------------------------
        BYTE           N23     An4   v116
        BYTE   W96
// 125   ----------------------------------------
        BYTE   W24
        BYTE           N68     Gn4   v122   gtp3
        BYTE   W72
// 126   ----------------------------------------
        BYTE   W24
        BYTE                   En4   v102
        BYTE   W72
// 127   ----------------------------------------
        BYTE   W24
        BYTE                   En4   v111
        BYTE   W72
// 128   ----------------------------------------
        BYTE   W96
// 129   ----------------------------------------
        BYTE   W24
        BYTE           N23     Fn4   v109
        BYTE   W24
        BYTE           N32     En4   v101   gtp3
        BYTE   W36
        BYTE           N11     Bn4   v107
        BYTE   W12
// 130   ----------------------------------------
        BYTE           N23     An4   v118
        BYTE   W96
// 131   ----------------------------------------
        BYTE   W96
// 132   ----------------------------------------
        BYTE   W96
// 133   ----------------------------------------
        BYTE   W96
// 134   ----------------------------------------
        BYTE   W96
// 135   ----------------------------------------
        BYTE   W96
// 136   ----------------------------------------
        BYTE   W96
// 137   ----------------------------------------
        BYTE   W96
// 138   ----------------------------------------
        BYTE   W96
// 139   ----------------------------------------
        BYTE   W96
// 140   ----------------------------------------
        BYTE   GoTo
         POIN2  CombatDestinyCut_5_LOOP
        BYTE   FINE

//****************** Track 6 (Midi-Chn.6) ******************//

CombatDestinyCut_6:
        BYTE   KEYSH   CombatDestinyCut_key+0
// 000   ----------------------------------------
        BYTE           VOICE   62
        BYTE           PAN     c_v+12
        BYTE           VOL     36
        BYTE           BENDR   12
        BYTE   W96
// 001   ----------------------------------------
        BYTE   W96
// 002   ----------------------------------------
        BYTE   W96
// 003   ----------------------------------------
        BYTE   W96
// 004   ----------------------------------------
        BYTE   W96
// 005   ----------------------------------------
        BYTE   W96
// 006   ----------------------------------------
        BYTE   W96
// 007   ----------------------------------------
        BYTE   W96
// 008   ----------------------------------------
        BYTE   W96
// 009   ----------------------------------------
        BYTE   W96
// 010   ----------------------------------------
        BYTE   W96
// 011   ----------------------------------------
        BYTE   W96
// 012   ----------------------------------------
        BYTE   W96
// 013   ----------------------------------------
        BYTE   W96
// 014   ----------------------------------------
        BYTE   W96
// 015   ----------------------------------------
        BYTE   W96
// 016   ----------------------------------------
        BYTE   W96
// 017   ----------------------------------------
        BYTE   W96
// 018   ----------------------------------------
        BYTE   W96
// 019   ----------------------------------------
        BYTE   W96
// 020   ----------------------------------------
CombatDestinyCut_6_LOOP:
        BYTE   W96
// 021   ----------------------------------------
        BYTE   W96
// 022   ----------------------------------------
        BYTE   W96
// 023   ----------------------------------------
        BYTE   W96
// 024   ----------------------------------------
        BYTE   W96
// 025   ----------------------------------------
        BYTE   W96
// 026   ----------------------------------------
        BYTE   W96
// 027   ----------------------------------------
        BYTE   W96
// 028   ----------------------------------------
        BYTE   W96
// 029   ----------------------------------------
        BYTE   W96
// 030   ----------------------------------------
        BYTE   W96
// 031   ----------------------------------------
        BYTE   W96
// 032   ----------------------------------------
        BYTE   W96
// 033   ----------------------------------------
        BYTE   W96
// 034   ----------------------------------------
        BYTE   W96
// 035   ----------------------------------------
        BYTE   W96
// 036   ----------------------------------------
        BYTE   W96
// 037   ----------------------------------------
        BYTE   W96
// 038   ----------------------------------------
        BYTE   W96
// 039   ----------------------------------------
        BYTE   W96
// 040   ----------------------------------------
        BYTE   W96
// 041   ----------------------------------------
        BYTE   W96
// 042   ----------------------------------------
        BYTE   W96
// 043   ----------------------------------------
        BYTE   W96
// 044   ----------------------------------------
        BYTE   W96
// 045   ----------------------------------------
        BYTE   W96
// 046   ----------------------------------------
        BYTE   W96
// 047   ----------------------------------------
        BYTE   W96
// 048   ----------------------------------------
        BYTE   W96
// 049   ----------------------------------------
        BYTE   W96
// 050   ----------------------------------------
        BYTE   W96
// 051   ----------------------------------------
        BYTE   W96
// 052   ----------------------------------------
        BYTE   W96
// 053   ----------------------------------------
        BYTE   W96
// 054   ----------------------------------------
        BYTE   W96
// 055   ----------------------------------------
        BYTE   W96
// 056   ----------------------------------------
        BYTE   W96
// 057   ----------------------------------------
        BYTE   W96
// 058   ----------------------------------------
        BYTE   W96
// 059   ----------------------------------------
        BYTE   W96
// 060   ----------------------------------------
        BYTE   W96
// 061   ----------------------------------------
        BYTE   W96
// 062   ----------------------------------------
        BYTE   W96
// 063   ----------------------------------------
        BYTE   W96
// 064   ----------------------------------------
        BYTE   W96
// 065   ----------------------------------------
        BYTE   W96
// 066   ----------------------------------------
        BYTE   W96
// 067   ----------------------------------------
        BYTE   W96
// 068   ----------------------------------------
        BYTE   W96
// 069   ----------------------------------------
        BYTE   W96
// 070   ----------------------------------------
        BYTE   W96
// 071   ----------------------------------------
        BYTE   W96
// 072   ----------------------------------------
        BYTE   W96
// 073   ----------------------------------------
        BYTE   W96
// 074   ----------------------------------------
        BYTE   W96
// 075   ----------------------------------------
        BYTE   W96
// 076   ----------------------------------------
        BYTE   W96
// 077   ----------------------------------------
        BYTE   W24
        BYTE           N23     En2   v102
        BYTE   W24
        BYTE           TIE     En3   v103
        BYTE   W48
// 078   ----------------------------------------
        BYTE   W96
// 079   ----------------------------------------
        BYTE   W92
        BYTE   W03
        BYTE           EOT
        BYTE   W01
// 080   ----------------------------------------
        BYTE           N23     Cn3   v126
        BYTE   W96
// 081   ----------------------------------------
        BYTE   W96
// 082   ----------------------------------------
        BYTE   W96
// 083   ----------------------------------------
        BYTE   W96
// 084   ----------------------------------------
        BYTE   W96
// 085   ----------------------------------------
        BYTE   W96
// 086   ----------------------------------------
        BYTE   W96
// 087   ----------------------------------------
        BYTE   W96
// 088   ----------------------------------------
        BYTE   W24
        BYTE           N44     Cn3   v096   gtp3
        BYTE   W48
        BYTE           N23     Bn2
        BYTE   W24
// 089   ----------------------------------------
        BYTE                   An2
        BYTE   W24
        BYTE           N68     En2   v096   gtp3
        BYTE   W72
// 090   ----------------------------------------
        BYTE                   En3
        BYTE   W72
        BYTE           N23     Dn3
        BYTE   W24
// 091   ----------------------------------------
        BYTE                   Cn3
        BYTE   W24
        BYTE           N68     An2   v096   gtp3
        BYTE   W72
// 092   ----------------------------------------
        BYTE                   Gn3
        BYTE   W72
        BYTE           N23     Fn3
        BYTE   W24
// 093   ----------------------------------------
        BYTE                   En3
        BYTE   W24
        BYTE           N68     Cn3   v096   gtp3
        BYTE   W72
// 094   ----------------------------------------
        BYTE                   Dn3
        BYTE   W72
        BYTE           N23     En3
        BYTE   W24
// 095   ----------------------------------------
        BYTE           N44     An3   v096   gtp3
        BYTE   W48
        BYTE                   Bn3
        BYTE   W48
// 096   ----------------------------------------
        BYTE                   An3
        BYTE   W96
// 097   ----------------------------------------
        BYTE   W24
        BYTE           N23     An2   v055
        BYTE   W24
        BYTE           N32     Gn2   v061   gtp3
        BYTE   W36
        BYTE           N11     En2   v064
        BYTE   W12
// 098   ----------------------------------------
        BYTE           N92     Gn2   v072   gtp3
        BYTE   W96
// 099   ----------------------------------------
        BYTE   W24
        BYTE           N23     Cn3   v054
        BYTE   W24
        BYTE           N32     Bn2   v059   gtp3
        BYTE   W36
        BYTE           N11     En2   v062
        BYTE   W12
// 100   ----------------------------------------
        BYTE           N92     An2   v061   gtp3
        BYTE   W96
// 101   ----------------------------------------
        BYTE   W24
        BYTE           N23     An2   v065
        BYTE   W24
        BYTE           N32     Gn2   v063   gtp3
        BYTE   W36
        BYTE           N11     En2   v060
        BYTE   W12
// 102   ----------------------------------------
        BYTE           N92     Gn2   v062   gtp3
        BYTE   W96
// 103   ----------------------------------------
        BYTE           N44     Dn2   v058   gtp3
        BYTE   W48
        BYTE                   Cs2   v061
        BYTE   W48
// 104   ----------------------------------------
        BYTE           N92     Fn2   v034   gtp3
        BYTE   W96
// 105   ----------------------------------------
        BYTE                   Gn2
        BYTE   W96
// 106   ----------------------------------------
        BYTE                   An2
        BYTE   W96
// 107   ----------------------------------------
        BYTE           N44     As2   v034   gtp3
        BYTE   W48
        BYTE                   Bn2
        BYTE   W48
// 108   ----------------------------------------
        BYTE                   Cn3
        BYTE   W48
        BYTE                   Bn2
        BYTE   W48
// 109   ----------------------------------------
        BYTE                   Fn3
        BYTE   W48
        BYTE                   En3
        BYTE   W48
// 110   ----------------------------------------
CombatDestinyCut_6_110:
        BYTE           N23     En3   v100
        BYTE   W24
        BYTE                   Bn2
        BYTE   W24
        BYTE                   Gs2
        BYTE   W24
        BYTE                   En2
        BYTE   W24
        BYTE   PEND
// 111   ----------------------------------------
CombatDestinyCut_6_111:
        BYTE           N23     Bn2   v100
        BYTE   W24
        BYTE                   Gs2
        BYTE   W24
        BYTE                   En2
        BYTE   W24
        BYTE                   En2
        BYTE   W24
        BYTE   PEND
// 112   ----------------------------------------
        BYTE           N92     An2   v101   gtp3
        BYTE   W96
// 113   ----------------------------------------
        BYTE   W24
        BYTE           N23     An2   v099
        BYTE   W24
        BYTE                   Gn2   v091
        BYTE   W24
        BYTE                   En2   v088
        BYTE   W24
// 114   ----------------------------------------
        BYTE           N68     Gn2   v115   gtp3
        BYTE   W96
// 115   ----------------------------------------
        BYTE   W24
        BYTE           N23     Cn2   v086
        BYTE   W24
        BYTE           N32     Bn1   v084   gtp3
        BYTE   W36
        BYTE           N11     Cn2   v089
        BYTE   W12
// 116   ----------------------------------------
        BYTE           N92     An2   v097   gtp3
        BYTE   W96
// 117   ----------------------------------------
        BYTE   W24
        BYTE           N23     Fn2   v088
        BYTE   W24
        BYTE                   En2   v089
        BYTE   W24
        BYTE                   Dn2   v098
        BYTE   W24
// 118   ----------------------------------------
        BYTE           N56     An2   v107   gtp3
        BYTE   W60
        BYTE           N11     Dn2   v086
        BYTE   W12
        BYTE                   En2
        BYTE   W12
        BYTE                   An2   v112
        BYTE   W12
// 119   ----------------------------------------
        BYTE           N92     Gs2   v108   gtp3
        BYTE   W96
// 120   ----------------------------------------
        BYTE           N44     An2   v108   gtp3
        BYTE   W96
// 121   ----------------------------------------
        BYTE   W24
        BYTE           N23     En2   v105
        BYTE   W24
        BYTE                   Dn2   v104
        BYTE   W24
        BYTE                   Cn2   v077
        BYTE   W24
// 122   ----------------------------------------
        BYTE           N68     Dn2   v094   gtp3
        BYTE   W96
// 123   ----------------------------------------
        BYTE   W24
        BYTE           N23     Cn2   v100
        BYTE   W24
        BYTE           N32     Bn1   v093   gtp3
        BYTE   W36
        BYTE           N11     Cn2   v096
        BYTE   W12
// 124   ----------------------------------------
        BYTE           N44     En2   v100   gtp3
        BYTE   W96
// 125   ----------------------------------------
        BYTE   W24
        BYTE           N23     Fn2   v099
        BYTE   W24
        BYTE                   En2
        BYTE   W24
        BYTE                   Dn2   v098
        BYTE   W24
// 126   ----------------------------------------
        BYTE           N44     An2   v099   gtp3
        BYTE   W48
        BYTE                   Gs2   v089
        BYTE   W48
// 127   ----------------------------------------
        BYTE                   An2   v097
        BYTE   W96
// 128   ----------------------------------------
        BYTE           N23     An2   v123
        BYTE   W36
        BYTE           N05     An2   v120
        BYTE   W06
        BYTE                   An2   v117
        BYTE   W06
        BYTE           N44     An2   v117   gtp3
        BYTE   W48
// 129   ----------------------------------------
        BYTE           N32     Gs2   v126   gtp3
        BYTE   W36
        BYTE           N05     Gs2   v124
        BYTE   W06
        BYTE                   Gs2   v119
        BYTE   W06
        BYTE           N44     Gs2   v118   gtp3
        BYTE   W48
// 130   ----------------------------------------
        BYTE           N23     An2   v125
        BYTE   W96
// 131   ----------------------------------------
        BYTE   W96
// 132   ----------------------------------------
        BYTE   W96
// 133   ----------------------------------------
        BYTE   W96
// 134   ----------------------------------------
        BYTE   W96
// 135   ----------------------------------------
        BYTE   W96
// 136   ----------------------------------------
        BYTE   W96
// 137   ----------------------------------------
        BYTE   W24
        BYTE                   En2   v112
        BYTE   W24
        BYTE           TIE     En3   v120
        BYTE   W48
// 138   ----------------------------------------
        BYTE   W96
// 139   ----------------------------------------
        BYTE   W92
        BYTE   W03
        BYTE           EOT
        BYTE   W01
// 140   ----------------------------------------
        BYTE   GoTo
         POIN2  CombatDestinyCut_6_LOOP
        BYTE   FINE

//****************** Track 7 (Midi-Chn.7) ******************//

CombatDestinyCut_7:
        BYTE   KEYSH   CombatDestinyCut_key+0
// 000   ----------------------------------------
        BYTE           VOICE   49
        BYTE           PAN     c_v-17
        BYTE           BENDR   12
        BYTE           VOL     31
        BYTE   W96
// 001   ----------------------------------------
        BYTE   W96
// 002   ----------------------------------------
        BYTE   W96
// 003   ----------------------------------------
        BYTE   W96
// 004   ----------------------------------------
        BYTE   W96
// 005   ----------------------------------------
        BYTE   W96
// 006   ----------------------------------------
        BYTE   W96
// 007   ----------------------------------------
        BYTE   W96
// 008   ----------------------------------------
        BYTE   W96
// 009   ----------------------------------------
        BYTE   W96
// 010   ----------------------------------------
        BYTE   PATT
         POIN2  CombatDestinyCut_4_10
// 011   ----------------------------------------
        BYTE   PATT
         POIN2  CombatDestinyCut_4_11
// 012   ----------------------------------------
        BYTE   PATT
         POIN2  CombatDestinyCut_4_12
// 013   ----------------------------------------
        BYTE   PATT
         POIN2  CombatDestinyCut_4_13
// 014   ----------------------------------------
        BYTE   PATT
         POIN2  CombatDestinyCut_4_14
// 015   ----------------------------------------
        BYTE   PATT
         POIN2  CombatDestinyCut_4_15
// 016   ----------------------------------------
        BYTE   PATT
         POIN2  CombatDestinyCut_4_16
// 017   ----------------------------------------
        BYTE   PATT
         POIN2  CombatDestinyCut_4_17
// 018   ----------------------------------------
        BYTE   W96
// 019   ----------------------------------------
        BYTE   W92
        BYTE   W03
        BYTE           EOT     Bn4
        BYTE   W01
// 020   ----------------------------------------
CombatDestinyCut_7_LOOP:
        BYTE           N23     An4   v080
        BYTE   W24
        BYTE           N05     En3
        BYTE   W06
        BYTE                   En3
        BYTE   W06
        BYTE                   En3
        BYTE   W06
        BYTE                   En3
        BYTE   W06
        BYTE           N23
        BYTE   W24
        BYTE           N05
        BYTE   W06
        BYTE                   En3
        BYTE   W06
        BYTE                   En3
        BYTE   W06
        BYTE                   En3
        BYTE   W06
// 021   ----------------------------------------
        BYTE           N23
        BYTE   W96
// 022   ----------------------------------------
        BYTE                   An3
        BYTE   W24
        BYTE           N05     En3
        BYTE   W06
        BYTE                   En3
        BYTE   W06
        BYTE                   En3
        BYTE   W06
        BYTE                   En3
        BYTE   W06
        BYTE           N23
        BYTE   W24
        BYTE           N05
        BYTE   W06
        BYTE                   En3
        BYTE   W06
        BYTE                   En3
        BYTE   W06
        BYTE                   En3
        BYTE   W06
// 023   ----------------------------------------
        BYTE           N23
        BYTE   W96
// 024   ----------------------------------------
        BYTE                   An3
        BYTE   W24
        BYTE           N05     Fn3
        BYTE   W06
        BYTE                   Fn3
        BYTE   W06
        BYTE                   Fn3
        BYTE   W06
        BYTE                   Fn3
        BYTE   W06
        BYTE           N23
        BYTE   W24
        BYTE           N05
        BYTE   W06
        BYTE                   Fn3
        BYTE   W06
        BYTE                   Fn3
        BYTE   W06
        BYTE                   Fn3
        BYTE   W06
// 025   ----------------------------------------
        BYTE           N23
        BYTE   W96
// 026   ----------------------------------------
        BYTE                   Bn3
        BYTE   W24
        BYTE           N05     Dn3
        BYTE   W06
        BYTE                   Dn3
        BYTE   W06
        BYTE                   Dn3
        BYTE   W06
        BYTE                   Dn3
        BYTE   W06
        BYTE           N23
        BYTE   W24
        BYTE           N05
        BYTE   W06
        BYTE                   Dn3
        BYTE   W06
        BYTE                   Dn3
        BYTE   W06
        BYTE                   Dn3
        BYTE   W06
// 027   ----------------------------------------
        BYTE           N23
        BYTE   W96
// 028   ----------------------------------------
CombatDestinyCut_7_28:
        BYTE           N23     An3   v080
        BYTE   W24
        BYTE           N05
        BYTE   W06
        BYTE                   An3
        BYTE   W06
        BYTE                   An3
        BYTE   W06
        BYTE                   An3
        BYTE   W06
        BYTE           N23
        BYTE   W24
        BYTE           N05
        BYTE   W06
        BYTE                   An3
        BYTE   W06
        BYTE                   An3
        BYTE   W06
        BYTE                   An3
        BYTE   W06
        BYTE   PEND
// 029   ----------------------------------------
        BYTE           N23
        BYTE   W96
// 030   ----------------------------------------
        BYTE   PATT
         POIN2  CombatDestinyCut_7_28
// 031   ----------------------------------------
        BYTE           N23     An3   v080
        BYTE   W96
// 032   ----------------------------------------
        BYTE   PATT
         POIN2  CombatDestinyCut_4_28
// 033   ----------------------------------------
        BYTE           N23     Cn4   v080
        BYTE   W96
// 034   ----------------------------------------
        BYTE   PATT
         POIN2  CombatDestinyCut_4_30
// 035   ----------------------------------------
        BYTE           N23     En4   v080
        BYTE   W96
// 036   ----------------------------------------
        BYTE           N92     En3   v080   gtp3
        BYTE   W96
// 037   ----------------------------------------
        BYTE                   An3
        BYTE   W96
// 038   ----------------------------------------
        BYTE           N44     Gn3   v080   gtp3
        BYTE   W48
        BYTE                   Gn3
        BYTE   W48
// 039   ----------------------------------------
CombatDestinyCut_7_39:
        BYTE           N44     Cn4   v080   gtp3
        BYTE   W48
        BYTE                   Bn3
        BYTE   W48
        BYTE   PEND
// 040   ----------------------------------------
        BYTE           N92     An3   v080   gtp3
        BYTE   W96
// 041   ----------------------------------------
        BYTE                   Fn3
        BYTE   W96
// 042   ----------------------------------------
        BYTE           N32     Gn3   v080   gtp3
        BYTE   W36
        BYTE                   Dn3
        BYTE   W36
        BYTE           N23     Bn2
        BYTE   W24
// 043   ----------------------------------------
        BYTE           N44     Cn3   v080   gtp3
        BYTE   W48
        BYTE                   Bn2
        BYTE   W48
// 044   ----------------------------------------
        BYTE           N92     Fn3   v080   gtp3
        BYTE   W96
// 045   ----------------------------------------
        BYTE           N23     Gn3
        BYTE   W24
        BYTE                   Dn4
        BYTE   W24
        BYTE                   Gn3
        BYTE   W24
        BYTE                   Dn4
        BYTE   W24
// 046   ----------------------------------------
        BYTE           N68     Bn3   v080   gtp3
        BYTE   W72
        BYTE           N23     En3
        BYTE   W24
// 047   ----------------------------------------
        BYTE           N44     Fn3   v080   gtp3
        BYTE   W48
        BYTE                   Fn3
        BYTE   W48
// 048   ----------------------------------------
CombatDestinyCut_7_48:
        BYTE           N44     En3   v080   gtp3
        BYTE   W48
        BYTE                   Dn3
        BYTE   W48
        BYTE   PEND
// 049   ----------------------------------------
        BYTE           N23
        BYTE   W24
        BYTE           N11     En3
        BYTE   W12
        BYTE                   Dn3
        BYTE   W12
        BYTE           N44     Bn2   v080   gtp3
        BYTE   W48
// 050   ----------------------------------------
        BYTE           N23     Bn3
        BYTE   W24
        BYTE                   Gs3
        BYTE   W24
        BYTE                   En3
        BYTE   W24
        BYTE                   Bn2
        BYTE   W24
// 051   ----------------------------------------
        BYTE                   Gs3
        BYTE   W24
        BYTE                   En3
        BYTE   W24
        BYTE                   Bn2
        BYTE   W24
        BYTE                   Gs2
        BYTE   W24
// 052   ----------------------------------------
CombatDestinyCut_7_52:
        BYTE           N23     An3   v080
        BYTE   W24
        BYTE           N11     Gn3
        BYTE   W12
        BYTE           N23     An3
        BYTE   W24
        BYTE           N32     Cn4   v080   gtp3
        BYTE   W36
        BYTE   PEND
// 053   ----------------------------------------
CombatDestinyCut_7_53:
        BYTE           N44     En4   v080   gtp3
        BYTE   W48
        BYTE           N23     Gn4
        BYTE   W24
        BYTE                   An4
        BYTE   W24
        BYTE   PEND
// 054   ----------------------------------------
        BYTE           N44     Gn4   v080   gtp3
        BYTE   W48
        BYTE           N23     En4
        BYTE   W24
        BYTE           N11     Bn3
        BYTE   W12
        BYTE                   Cn4
        BYTE   W12
// 055   ----------------------------------------
        BYTE   PATT
         POIN2  CombatDestinyCut_7_39
// 056   ----------------------------------------
        BYTE           N23     En4   v080
        BYTE   W24
        BYTE           N11     Dn4
        BYTE   W12
        BYTE           N32     Cn4   v080   gtp3
        BYTE   W36
        BYTE           N23     An3
        BYTE   W24
// 057   ----------------------------------------
CombatDestinyCut_7_57:
        BYTE           N68     Fn3   v080   gtp3
        BYTE   W72
        BYTE           N23     Gn3
        BYTE   W24
        BYTE   PEND
// 058   ----------------------------------------
        BYTE           N92     Gn3   v080   gtp3
        BYTE   W96
// 059   ----------------------------------------
        BYTE                   Gs3
        BYTE   W96
// 060   ----------------------------------------
        BYTE   PATT
         POIN2  CombatDestinyCut_7_52
// 061   ----------------------------------------
        BYTE   PATT
         POIN2  CombatDestinyCut_7_53
// 062   ----------------------------------------
        BYTE           N44     Bn4   v080   gtp3
        BYTE   W48
        BYTE           N23     Gn4
        BYTE   W24
        BYTE           N11     En4
        BYTE   W12
        BYTE           N56     Cn4   v080   gtp3
        BYTE   W12
// 063   ----------------------------------------
        BYTE   W48
        BYTE           N44     Bn3   v080   gtp3
        BYTE   W48
// 064   ----------------------------------------
        BYTE           N23     Cn4
        BYTE   W24
        BYTE           N11     An3
        BYTE   W12
        BYTE           N32     An3   v080   gtp3
        BYTE   W36
        BYTE           N23     En3
        BYTE   W24
// 065   ----------------------------------------
        BYTE   PATT
         POIN2  CombatDestinyCut_7_57
// 066   ----------------------------------------
        BYTE           N44     Gn3   v080   gtp3
        BYTE   W48
        BYTE                   Gs3
        BYTE   W48
// 067   ----------------------------------------
        BYTE           N68     An3   v080   gtp3
        BYTE   W72
        BYTE           N23     En4
        BYTE   W24
// 068   ----------------------------------------
        BYTE           N92     Gs4   v080   gtp3
        BYTE   W96
// 069   ----------------------------------------
        BYTE                   En4
        BYTE   W96
// 070   ----------------------------------------
        BYTE           N23     Cn4
        BYTE   W24
        BYTE           TIE     An1   v096
        BYTE           N44     Cn4   v080   gtp3
        BYTE   W48
        BYTE           N23     Bn3
        BYTE   W24
// 071   ----------------------------------------
        BYTE                   An3
        BYTE   W24
        BYTE           N68     En3   v080   gtp3
        BYTE   W68
        BYTE   W03
        BYTE           EOT     An1
        BYTE   W01
// 072   ----------------------------------------
        BYTE           TIE     Fn1   v096
        BYTE           N68     En4   v080   gtp3
        BYTE   W72
        BYTE           N23     Dn4
        BYTE   W24
// 073   ----------------------------------------
        BYTE                   Cn4
        BYTE   W24
        BYTE           N68     An3   v080   gtp3
        BYTE   W68
        BYTE   W03
        BYTE           EOT     Fn1
        BYTE   W01
// 074   ----------------------------------------
        BYTE           TIE     Dn1   v096
        BYTE           N68     Gn4   v080   gtp3
        BYTE   W72
        BYTE           N23     Fn4
        BYTE   W24
// 075   ----------------------------------------
        BYTE                   En4
        BYTE   W24
        BYTE           N68     Cn4   v080   gtp3
        BYTE   W68
        BYTE   W03
        BYTE           EOT     Dn1
        BYTE   W01
// 076   ----------------------------------------
        BYTE           TIE     En1   v096
        BYTE           N68     Dn4   v080   gtp3
        BYTE   W72
        BYTE           N23     En4
        BYTE   W24
// 077   ----------------------------------------
        BYTE   PATT
         POIN2  CombatDestinyCut_4_17
// 078   ----------------------------------------
        BYTE   W96
// 079   ----------------------------------------
        BYTE   W92
        BYTE   W03
        BYTE           EOT     En1
        BYTE                   Bn4
        BYTE   W01
// 080   ----------------------------------------
        BYTE           TIE     An1   v061
        BYTE   W96
// 081   ----------------------------------------
        BYTE   W92
        BYTE   W03
        BYTE           EOT
        BYTE   W01
// 082   ----------------------------------------
        BYTE           TIE     Fn1
        BYTE   W96
// 083   ----------------------------------------
        BYTE   W92
        BYTE   W03
        BYTE           EOT
        BYTE   W01
// 084   ----------------------------------------
        BYTE           TIE     Dn1
        BYTE   W96
// 085   ----------------------------------------
        BYTE   W92
        BYTE   W03
        BYTE           EOT
        BYTE   W01
// 086   ----------------------------------------
        BYTE           TIE     En1
        BYTE   W96
// 087   ----------------------------------------
        BYTE   W92
        BYTE   W03
        BYTE           EOT
        BYTE   W01
// 088   ----------------------------------------
        BYTE           TIE     An1
        BYTE   W96
// 089   ----------------------------------------
        BYTE   W92
        BYTE   W03
        BYTE           EOT
        BYTE   W01
// 090   ----------------------------------------
        BYTE           TIE     Fn1
        BYTE   W96
// 091   ----------------------------------------
        BYTE   W92
        BYTE   W03
        BYTE           EOT
        BYTE   W01
// 092   ----------------------------------------
        BYTE           TIE     Dn1
        BYTE   W96
// 093   ----------------------------------------
        BYTE   W92
        BYTE   W03
        BYTE           EOT
        BYTE   W01
// 094   ----------------------------------------
        BYTE           TIE     En1
        BYTE   W96
// 095   ----------------------------------------
        BYTE   W92
        BYTE   W03
        BYTE           EOT
        BYTE   W01
// 096   ----------------------------------------
        BYTE           N92     An1   v061   gtp3
        BYTE                   En3   v096
        BYTE   W96
// 097   ----------------------------------------
CombatDestinyCut_7_97:
        BYTE           N92     Fn1   v061   gtp3
        BYTE                   An3   v096
        BYTE   W96
        BYTE   PEND
// 098   ----------------------------------------
        BYTE                   En1   v061
        BYTE           N44     Gn3   v096   gtp3
        BYTE   W48
        BYTE                   Gn3
        BYTE   W48
// 099   ----------------------------------------
        BYTE                   An1   v061
        BYTE           N44     Cn4   v096   gtp3
        BYTE   W48
        BYTE                   Gn1   v061
        BYTE           N44     Bn3   v096   gtp3
        BYTE   W48
// 100   ----------------------------------------
        BYTE   PATT
         POIN2  CombatDestinyCut_7_97
// 101   ----------------------------------------
CombatDestinyCut_7_101:
        BYTE           N92     Dn1   v061   gtp3
        BYTE                   Fn3   v096
        BYTE   W96
        BYTE   PEND
// 102   ----------------------------------------
        BYTE                   En1   v061
        BYTE           N32     Gn3   v106   gtp3
        BYTE   W36
        BYTE                   Dn3
        BYTE   W36
        BYTE           N23     Bn2
        BYTE   W24
// 103   ----------------------------------------
        BYTE           N44     An1   v061   gtp3
        BYTE                   Cn3   v106
        BYTE   W48
        BYTE                   Gn1   v061
        BYTE           N44     Bn2   v103   gtp3
        BYTE   W48
// 104   ----------------------------------------
        BYTE   PATT
         POIN2  CombatDestinyCut_7_101
// 105   ----------------------------------------
        BYTE           N92     En1   v061   gtp3
        BYTE           N23     Gn3   v099
        BYTE   W24
        BYTE                   Dn4
        BYTE   W24
        BYTE                   Gn3
        BYTE   W24
        BYTE                   Dn4
        BYTE   W24
// 106   ----------------------------------------
        BYTE           N92     Fn1   v061   gtp3
        BYTE           N68     Bn3   v096   gtp3
        BYTE   W72
        BYTE           N23     En3
        BYTE   W24
// 107   ----------------------------------------
        BYTE           N44     As0   v061   gtp3
        BYTE                   Fn3   v096
        BYTE   W48
        BYTE                   Bn0   v061
        BYTE           N44     Fn3   v096   gtp3
        BYTE   W48
// 108   ----------------------------------------
        BYTE           N92     En1   v061   gtp3
        BYTE           N44     En3   v096   gtp3
        BYTE   W48
        BYTE                   Dn3
        BYTE   W48
// 109   ----------------------------------------
        BYTE           N92     Dn1   v061   gtp3
        BYTE           N23     Dn3   v103
        BYTE   W24
        BYTE           N11     En3
        BYTE   W12
        BYTE                   Dn3
        BYTE   W12
        BYTE           N44     Bn2   v109   gtp3
        BYTE   W48
// 110   ----------------------------------------
        BYTE           N23     Gs1   v103
        BYTE           N23     Bn3   v105
        BYTE   W24
        BYTE                   En1   v103
        BYTE           N23     Gs3   v105
        BYTE   W24
        BYTE                   Bn0   v103
        BYTE           N23     En3   v105
        BYTE   W24
        BYTE                   Gs0   v103
        BYTE           N23     Bn2   v105
        BYTE   W24
// 111   ----------------------------------------
        BYTE                   En1   v103
        BYTE           N23     Gs3   v105
        BYTE   W24
        BYTE                   Bn0   v103
        BYTE           N23     En3   v105
        BYTE   W24
        BYTE                   Gs0   v103
        BYTE           N23     Bn2   v105
        BYTE   W24
        BYTE                   En0   v103
        BYTE           N23     Gs2   v105
        BYTE   W24
// 112   ----------------------------------------
CombatDestinyCut_7_112:
        BYTE           N92     An1   v096   gtp3
        BYTE           N23     An3
        BYTE   W24
        BYTE           N11     Gn3
        BYTE   W12
        BYTE           N23     An3
        BYTE   W24
        BYTE           N32     Cn4   v096   gtp3
        BYTE   W36
        BYTE   PEND
// 113   ----------------------------------------
CombatDestinyCut_7_113:
        BYTE           N92     Fn1   v096   gtp3
        BYTE           N44     En4   v096   gtp3
        BYTE   W48
        BYTE           N23     Gn4
        BYTE   W24
        BYTE                   An4
        BYTE   W24
        BYTE   PEND
// 114   ----------------------------------------
        BYTE           N92     En1   v096   gtp3
        BYTE           N44     Gn4   v096   gtp3
        BYTE   W48
        BYTE           N23     En4
        BYTE   W24
        BYTE           N11     Bn3
        BYTE   W12
        BYTE                   Cn4
        BYTE   W12
// 115   ----------------------------------------
        BYTE           N44     An1   v096   gtp3
        BYTE                   Cn4
        BYTE   W48
        BYTE                   Gn1
        BYTE           N44     Bn3   v096   gtp3
        BYTE   W48
// 116   ----------------------------------------
        BYTE           N92     Fn1   v096   gtp3
        BYTE           N23     En4
        BYTE   W24
        BYTE           N11     Dn4
        BYTE   W12
        BYTE           N32     Cn4   v096   gtp3
        BYTE   W36
        BYTE           N23     An3
        BYTE   W24
// 117   ----------------------------------------
CombatDestinyCut_7_117:
        BYTE           N92     Dn1   v096   gtp3
        BYTE           N68     Fn3   v096   gtp3
        BYTE   W72
        BYTE           N23     Gn3
        BYTE   W24
        BYTE   PEND
// 118   ----------------------------------------
        BYTE           N92     En1   v096   gtp3
        BYTE                   Gn3
        BYTE   W96
// 119   ----------------------------------------
        BYTE                   En1
        BYTE           N92     Gs3   v096   gtp3
        BYTE   W96
// 120   ----------------------------------------
        BYTE   PATT
         POIN2  CombatDestinyCut_7_112
// 121   ----------------------------------------
        BYTE   PATT
         POIN2  CombatDestinyCut_7_113
// 122   ----------------------------------------
        BYTE           N92     En1   v096   gtp3
        BYTE           N44     Bn4   v096   gtp3
        BYTE   W48
        BYTE           N23     Gn4
        BYTE   W24
        BYTE           N11     En4
        BYTE   W12
        BYTE           N56     Cn4   v096   gtp3
        BYTE   W12
// 123   ----------------------------------------
        BYTE           N44     An1   v096   gtp3
        BYTE   W48
        BYTE                   Gn1
        BYTE           N44     Bn3   v096   gtp3
        BYTE   W48
// 124   ----------------------------------------
        BYTE           N92     Fn1   v096   gtp3
        BYTE           N23     Cn4
        BYTE   W24
        BYTE           N11     An3
        BYTE   W12
        BYTE           N32     An3   v096   gtp3
        BYTE   W36
        BYTE           N23     En3
        BYTE   W24
// 125   ----------------------------------------
        BYTE   PATT
         POIN2  CombatDestinyCut_7_117
// 126   ----------------------------------------
        BYTE           N44     En1   v096   gtp3
        BYTE                   Gn3
        BYTE   W48
        BYTE                   En1
        BYTE           N44     Gs3   v096   gtp3
        BYTE   W48
// 127   ----------------------------------------
        BYTE           N92     An1   v096   gtp3
        BYTE           N68     An3   v096   gtp3
        BYTE   W72
        BYTE           N23     En4
        BYTE   W24
// 128   ----------------------------------------
        BYTE           N92     En1   v096   gtp3
        BYTE                   Gs4
        BYTE   W96
// 129   ----------------------------------------
        BYTE                   En1
        BYTE           N92     En4   v096   gtp3
        BYTE   W96
// 130   ----------------------------------------
        BYTE           N23     An1
        BYTE           N23     Cn4   v102
        BYTE   W24
        BYTE           N44     Cn4   v096   gtp3
        BYTE   W48
        BYTE           N23     Bn3
        BYTE   W24
// 131   ----------------------------------------
        BYTE   PATT
         POIN2  CombatDestinyCut_4_131
// 132   ----------------------------------------
        BYTE   PATT
         POIN2  CombatDestinyCut_4_132
// 133   ----------------------------------------
        BYTE   PATT
         POIN2  CombatDestinyCut_4_133
// 134   ----------------------------------------
        BYTE   PATT
         POIN2  CombatDestinyCut_4_134
// 135   ----------------------------------------
        BYTE   PATT
         POIN2  CombatDestinyCut_4_135
// 136   ----------------------------------------
        BYTE   PATT
         POIN2  CombatDestinyCut_4_136
// 137   ----------------------------------------
        BYTE   PATT
         POIN2  CombatDestinyCut_4_137
// 138   ----------------------------------------
        BYTE   W96
// 139   ----------------------------------------
        BYTE   W92
        BYTE   W03
        BYTE           EOT     Bn4
        BYTE   W01
// 140   ----------------------------------------
        BYTE   GoTo
         POIN2  CombatDestinyCut_7_LOOP
        BYTE   FINE

//****************** Track 8 (Midi-Chn.8) ******************//

CombatDestinyCut_8:
        BYTE   KEYSH   CombatDestinyCut_key+0
// 000   ----------------------------------------
        BYTE           VOICE   60
        BYTE           VOL     33
        BYTE           PAN     c_v-11
        BYTE           BENDR   12
        BYTE   W96
// 001   ----------------------------------------
        BYTE   W96
// 002   ----------------------------------------
        BYTE   W96
// 003   ----------------------------------------
        BYTE   W96
// 004   ----------------------------------------
        BYTE   W96
// 005   ----------------------------------------
        BYTE   W96
// 006   ----------------------------------------
        BYTE   W96
// 007   ----------------------------------------
        BYTE   W96
// 008   ----------------------------------------
        BYTE   W96
// 009   ----------------------------------------
        BYTE   W96
// 010   ----------------------------------------
        BYTE   W96
// 011   ----------------------------------------
        BYTE           N92     Cn3   v080   gtp3
        BYTE   W96
// 012   ----------------------------------------
        BYTE   W96
// 013   ----------------------------------------
        BYTE                   An2
        BYTE   W96
// 014   ----------------------------------------
        BYTE   W96
// 015   ----------------------------------------
        BYTE                   En3
        BYTE   W96
// 016   ----------------------------------------
        BYTE   W96
// 017   ----------------------------------------
        BYTE           TIE     An2
        BYTE   W96
// 018   ----------------------------------------
        BYTE   W96
// 019   ----------------------------------------
        BYTE   W92
        BYTE   W03
        BYTE           EOT
        BYTE   W01
// 020   ----------------------------------------
CombatDestinyCut_8_LOOP:
        BYTE           N11     En3   v080
        BYTE   W24
        BYTE           N02     Cn3
        BYTE   W06
        BYTE                   Cn3
        BYTE   W06
        BYTE                   Cn3
        BYTE   W06
        BYTE                   Cn3
        BYTE   W06
        BYTE           N11
        BYTE   W24
        BYTE           N02
        BYTE   W06
        BYTE                   Cn3
        BYTE   W06
        BYTE                   Cn3
        BYTE   W06
        BYTE                   Cn3
        BYTE   W06
// 021   ----------------------------------------
        BYTE           N11
        BYTE   W96
// 022   ----------------------------------------
        BYTE                   En3
        BYTE   W24
        BYTE           N02     Cn3
        BYTE   W06
        BYTE                   Cn3
        BYTE   W06
        BYTE                   Cn3
        BYTE   W06
        BYTE                   Cn3
        BYTE   W06
        BYTE           N11
        BYTE   W24
        BYTE           N02
        BYTE   W06
        BYTE                   Cn3
        BYTE   W06
        BYTE                   Cn3
        BYTE   W06
        BYTE                   Cn3
        BYTE   W06
// 023   ----------------------------------------
        BYTE           N11
        BYTE   W96
// 024   ----------------------------------------
        BYTE                   Fn3
        BYTE   W24
        BYTE           N02     Cn3
        BYTE   W06
        BYTE                   Cn3
        BYTE   W06
        BYTE                   Cn3
        BYTE   W06
        BYTE                   Cn3
        BYTE   W06
        BYTE           N11
        BYTE   W24
        BYTE           N02
        BYTE   W06
        BYTE                   Cn3
        BYTE   W06
        BYTE                   Cn3
        BYTE   W06
        BYTE                   Cn3
        BYTE   W06
// 025   ----------------------------------------
        BYTE           N11
        BYTE   W96
// 026   ----------------------------------------
        BYTE                   Dn3
        BYTE   W24
        BYTE           N02     Bn2
        BYTE   W06
        BYTE                   Bn2
        BYTE   W06
        BYTE                   Bn2
        BYTE   W06
        BYTE                   Bn2
        BYTE   W06
        BYTE           N11
        BYTE   W24
        BYTE           N02
        BYTE   W06
        BYTE                   Bn2
        BYTE   W06
        BYTE                   Bn2
        BYTE   W06
        BYTE                   Bn2
        BYTE   W06
// 027   ----------------------------------------
        BYTE           N11
        BYTE   W96
// 028   ----------------------------------------
CombatDestinyCut_8_28:
        BYTE           N11     Cn3   v080
        BYTE   W24
        BYTE           N02
        BYTE   W06
        BYTE                   Cn3
        BYTE   W06
        BYTE                   Cn3
        BYTE   W06
        BYTE                   Cn3
        BYTE   W06
        BYTE           N11
        BYTE   W24
        BYTE           N02
        BYTE   W06
        BYTE                   Cn3
        BYTE   W06
        BYTE                   Cn3
        BYTE   W06
        BYTE                   Cn3
        BYTE   W06
        BYTE   PEND
// 029   ----------------------------------------
        BYTE           N11
        BYTE   W96
// 030   ----------------------------------------
        BYTE   PATT
         POIN2  CombatDestinyCut_8_28
// 031   ----------------------------------------
        BYTE           N11     Cn3   v080
        BYTE   W96
// 032   ----------------------------------------
        BYTE                   Gn3
        BYTE   W24
        BYTE           N02
        BYTE   W06
        BYTE                   Gn3
        BYTE   W06
        BYTE                   Gn3
        BYTE   W06
        BYTE                   Gn3
        BYTE   W06
        BYTE           N11
        BYTE   W24
        BYTE           N02
        BYTE   W06
        BYTE                   Gn3
        BYTE   W06
        BYTE                   Gn3
        BYTE   W06
        BYTE                   Gn3
        BYTE   W06
// 033   ----------------------------------------
        BYTE           N11
        BYTE   W96
// 034   ----------------------------------------
        BYTE                   An3
        BYTE   W24
        BYTE           N02
        BYTE   W06
        BYTE                   An3
        BYTE   W06
        BYTE                   An3
        BYTE   W06
        BYTE                   An3
        BYTE   W06
        BYTE           N11
        BYTE   W24
        BYTE           N02
        BYTE   W06
        BYTE                   An3
        BYTE   W06
        BYTE                   An3
        BYTE   W06
        BYTE                   An3
        BYTE   W06
// 035   ----------------------------------------
        BYTE           N11
        BYTE   W96
// 036   ----------------------------------------
        BYTE           N92     Cn3   v080   gtp3
        BYTE   W96
// 037   ----------------------------------------
        BYTE                   Cn3
        BYTE   W96
// 038   ----------------------------------------
        BYTE                   Bn2
        BYTE   W96
// 039   ----------------------------------------
        BYTE           N44     Gn2   v080   gtp3
        BYTE   W48
        BYTE                   Gn2
        BYTE   W48
// 040   ----------------------------------------
        BYTE           N92     Cn3   v080   gtp3
        BYTE   W96
// 041   ----------------------------------------
        BYTE                   Cn3
        BYTE   W96
// 042   ----------------------------------------
        BYTE                   Bn2
        BYTE   W96
// 043   ----------------------------------------
        BYTE           N44     An2   v080   gtp3
        BYTE   W48
        BYTE                   Gn2
        BYTE   W48
// 044   ----------------------------------------
        BYTE           N92     Cn3   v080   gtp3
        BYTE   W96
// 045   ----------------------------------------
        BYTE                   En3
        BYTE   W96
// 046   ----------------------------------------
        BYTE           N68     En3   v080   gtp3
        BYTE   W72
        BYTE           N23     An2
        BYTE   W24
// 047   ----------------------------------------
        BYTE           N44     As2   v080   gtp3
        BYTE   W48
        BYTE                   Bn2
        BYTE   W48
// 048   ----------------------------------------
        BYTE                   An2
        BYTE   W48
        BYTE                   Gs2
        BYTE   W48
// 049   ----------------------------------------
        BYTE                   Gs2
        BYTE   W48
        BYTE                   Gs2
        BYTE   W48
// 050   ----------------------------------------
        BYTE           N23     En3
        BYTE   W24
        BYTE                   Bn2
        BYTE   W24
        BYTE                   Gs2
        BYTE   W24
        BYTE                   En2
        BYTE   W24
// 051   ----------------------------------------
        BYTE                   Bn2
        BYTE   W24
        BYTE                   Gs2
        BYTE   W24
        BYTE                   En2
        BYTE   W24
        BYTE                   En2
        BYTE   W24
// 052   ----------------------------------------
        BYTE           N92     Cn3   v080   gtp3
        BYTE   W96
// 053   ----------------------------------------
        BYTE                   An3
        BYTE   W96
// 054   ----------------------------------------
        BYTE                   Bn3
        BYTE   W96
// 055   ----------------------------------------
        BYTE   PATT
         POIN2  CombatDestinyCut_7_48
// 056   ----------------------------------------
        BYTE           N92     Cn3   v080   gtp3
        BYTE   W96
// 057   ----------------------------------------
        BYTE                   Cn3
        BYTE   W96
// 058   ----------------------------------------
        BYTE                   Dn3
        BYTE   W96
// 059   ----------------------------------------
        BYTE                   Dn3
        BYTE   W96
// 060   ----------------------------------------
        BYTE                   Cn3
        BYTE   W96
// 061   ----------------------------------------
        BYTE                   An3
        BYTE   W96
// 062   ----------------------------------------
        BYTE           N68     Bn3   v080   gtp3
        BYTE   W72
        BYTE           N11     Gn3
        BYTE   W12
        BYTE           N56     Gn3   v080   gtp3
        BYTE   W12
// 063   ----------------------------------------
        BYTE   W48
        BYTE           N44     Gn3   v080   gtp3
        BYTE   W48
// 064   ----------------------------------------
        BYTE           N92     En3   v080   gtp3
        BYTE   W96
// 065   ----------------------------------------
        BYTE           N68     Cn3   v080   gtp3
        BYTE   W72
        BYTE           N23     Dn3
        BYTE   W24
// 066   ----------------------------------------
        BYTE           N44     Dn3   v080   gtp3
        BYTE   W48
        BYTE                   Dn3
        BYTE   W48
// 067   ----------------------------------------
        BYTE           N68     Cn3   v080   gtp3
        BYTE   W72
        BYTE           N23     En3
        BYTE   W24
// 068   ----------------------------------------
        BYTE           N92     En3   v080   gtp3
        BYTE   W96
// 069   ----------------------------------------
        BYTE                   Dn3
        BYTE   W96
// 070   ----------------------------------------
        BYTE           N11     Cn3
        BYTE   W24
        BYTE           TIE
        BYTE   W72
// 071   ----------------------------------------
        BYTE   W92
        BYTE   W03
        BYTE           EOT
        BYTE   W01
// 072   ----------------------------------------
        BYTE           TIE     An2
        BYTE   W96
// 073   ----------------------------------------
        BYTE   W92
        BYTE   W03
        BYTE           EOT
        BYTE   W01
// 074   ----------------------------------------
        BYTE           TIE     En3
        BYTE   W96
// 075   ----------------------------------------
        BYTE   W92
        BYTE   W03
        BYTE           EOT
        BYTE   W01
// 076   ----------------------------------------
        BYTE           TIE     An2
        BYTE   W96
// 077   ----------------------------------------
        BYTE   W96
// 078   ----------------------------------------
        BYTE   W96
// 079   ----------------------------------------
        BYTE   W92
        BYTE   W03
        BYTE           EOT
        BYTE   W01
// 080   ----------------------------------------
        BYTE   W96
// 081   ----------------------------------------
        BYTE   W96
// 082   ----------------------------------------
        BYTE   W96
// 083   ----------------------------------------
        BYTE   W96
// 084   ----------------------------------------
        BYTE   W96
// 085   ----------------------------------------
        BYTE   W96
// 086   ----------------------------------------
        BYTE   W96
// 087   ----------------------------------------
        BYTE   W96
// 088   ----------------------------------------
        BYTE   W96
// 089   ----------------------------------------
        BYTE   W96
// 090   ----------------------------------------
        BYTE   W96
// 091   ----------------------------------------
        BYTE   W96
// 092   ----------------------------------------
        BYTE   W96
// 093   ----------------------------------------
        BYTE   W96
// 094   ----------------------------------------
        BYTE   W96
// 095   ----------------------------------------
        BYTE           N11     An3
        BYTE   W96
// 096   ----------------------------------------
        BYTE           N92     Cn3   v096   gtp3
        BYTE   W96
// 097   ----------------------------------------
        BYTE                   Cn3
        BYTE   W96
// 098   ----------------------------------------
        BYTE                   Bn2
        BYTE   W96
// 099   ----------------------------------------
        BYTE           N44     Gn2   v096   gtp3
        BYTE   W48
        BYTE                   Gn2
        BYTE   W48
// 100   ----------------------------------------
        BYTE           N92     Cn3   v096   gtp3
        BYTE   W96
// 101   ----------------------------------------
        BYTE                   Cn3
        BYTE   W96
// 102   ----------------------------------------
        BYTE                   Bn2
        BYTE   W96
// 103   ----------------------------------------
        BYTE           N44     An2   v096   gtp3
        BYTE   W48
        BYTE                   Gn2
        BYTE   W48
// 104   ----------------------------------------
        BYTE           N92     Cn3   v096   gtp3
        BYTE   W96
// 105   ----------------------------------------
        BYTE                   En3
        BYTE   W96
// 106   ----------------------------------------
        BYTE           N68     En3   v096   gtp3
        BYTE   W72
        BYTE           N23     An2
        BYTE   W24
// 107   ----------------------------------------
        BYTE           N44     As2   v096   gtp3
        BYTE   W48
        BYTE                   Bn2
        BYTE   W48
// 108   ----------------------------------------
        BYTE                   An2
        BYTE   W48
        BYTE                   Gs2
        BYTE   W48
// 109   ----------------------------------------
        BYTE                   Gs2
        BYTE   W48
        BYTE                   Gs2
        BYTE   W48
// 110   ----------------------------------------
        BYTE   PATT
         POIN2  CombatDestinyCut_6_110
// 111   ----------------------------------------
        BYTE   PATT
         POIN2  CombatDestinyCut_6_111
// 112   ----------------------------------------
        BYTE           N92     Cn3   v096   gtp3
        BYTE   W96
// 113   ----------------------------------------
        BYTE                   An3
        BYTE   W96
// 114   ----------------------------------------
        BYTE                   Bn3
        BYTE   W96
// 115   ----------------------------------------
        BYTE           N44     En3   v096   gtp3
        BYTE   W48
        BYTE                   Dn3
        BYTE   W48
// 116   ----------------------------------------
        BYTE           N92     Cn3   v096   gtp3
        BYTE   W96
// 117   ----------------------------------------
        BYTE                   Cn3
        BYTE   W96
// 118   ----------------------------------------
        BYTE                   Dn3
        BYTE   W96
// 119   ----------------------------------------
        BYTE                   Dn3
        BYTE   W96
// 120   ----------------------------------------
        BYTE                   Cn3
        BYTE   W96
// 121   ----------------------------------------
        BYTE                   An3
        BYTE   W96
// 122   ----------------------------------------
        BYTE           N68     Bn3   v096   gtp3
        BYTE   W72
        BYTE           N11     Gn3
        BYTE   W12
        BYTE           N56     Gn3   v096   gtp3
        BYTE   W12
// 123   ----------------------------------------
        BYTE   W48
        BYTE           N44     Gn3   v096   gtp3
        BYTE   W48
// 124   ----------------------------------------
        BYTE           N92     En3   v096   gtp3
        BYTE   W96
// 125   ----------------------------------------
        BYTE           N68     Cn3   v096   gtp3
        BYTE   W72
        BYTE           N23     Dn3
        BYTE   W24
// 126   ----------------------------------------
        BYTE           N44     Dn3   v096   gtp3
        BYTE   W48
        BYTE                   Dn3
        BYTE   W48
// 127   ----------------------------------------
        BYTE           N68     Cn3   v096   gtp3
        BYTE   W72
        BYTE           N23     En3
        BYTE   W24
// 128   ----------------------------------------
        BYTE           N92     En3   v096   gtp3
        BYTE   W96
// 129   ----------------------------------------
        BYTE                   Dn3
        BYTE   W96
// 130   ----------------------------------------
        BYTE           N23     Cn3   v099
        BYTE   W96
// 131   ----------------------------------------
        BYTE           N92     Cn3   v096   gtp3
        BYTE   W96
// 132   ----------------------------------------
        BYTE   W96
// 133   ----------------------------------------
        BYTE                   An2
        BYTE   W96
// 134   ----------------------------------------
        BYTE   W96
// 135   ----------------------------------------
        BYTE                   En3
        BYTE   W96
// 136   ----------------------------------------
        BYTE   W96
// 137   ----------------------------------------
        BYTE           TIE     An2
        BYTE   W96
// 138   ----------------------------------------
        BYTE   W96
// 139   ----------------------------------------
        BYTE   W92
        BYTE   W03
        BYTE           EOT
        BYTE   W01
// 140   ----------------------------------------
        BYTE   GoTo
         POIN2  CombatDestinyCut_8_LOOP
        BYTE   FINE

//***************** Track 9 (Midi-Chn.10) ******************//

CombatDestinyCut_9:
        BYTE   KEYSH   CombatDestinyCut_key+0
// 000   ----------------------------------------
        BYTE           VOICE   24
        BYTE           PAN     c_v-20
        BYTE           BENDR   12
        BYTE           VOL     26
        BYTE   W96
// 001   ----------------------------------------
        BYTE   W96
// 002   ----------------------------------------
        BYTE   W96
// 003   ----------------------------------------
        BYTE   W96
// 004   ----------------------------------------
        BYTE   W96
// 005   ----------------------------------------
        BYTE   W96
// 006   ----------------------------------------
        BYTE   W96
// 007   ----------------------------------------
        BYTE   W96
// 008   ----------------------------------------
        BYTE   W96
// 009   ----------------------------------------
        BYTE   W96
// 010   ----------------------------------------
        BYTE           N92     An1   v080   gtp3
        BYTE   W03
        BYTE           N92     En2
        BYTE   W04
        BYTE           N88     An2
        BYTE   W04
        BYTE           N84     Cn3
        BYTE   W03
        BYTE           N80     En3   v080   gtp1
        BYTE   W80
        BYTE   W02
// 011   ----------------------------------------
        BYTE   W96
// 012   ----------------------------------------
        BYTE           N92     Fn1   v080   gtp3
        BYTE   W03
        BYTE           N92     Cn2
        BYTE   W04
        BYTE           N88     Fn2
        BYTE   W04
        BYTE           N84     An2
        BYTE   W03
        BYTE           N80     Cn3   v080   gtp1
        BYTE   W04
        BYTE           N76     En3   v080   gtp1
        BYTE   W78
// 013   ----------------------------------------
        BYTE   W96
// 014   ----------------------------------------
        BYTE           N92     An1   v080   gtp3
        BYTE   W03
        BYTE           N92     Fn2
        BYTE   W04
        BYTE           N88     An2
        BYTE   W04
        BYTE           N84     Cn3
        BYTE   W03
        BYTE           N80     En3   v080   gtp1
        BYTE   W80
        BYTE   W02
// 015   ----------------------------------------
        BYTE   W96
// 016   ----------------------------------------
        BYTE   W03
        BYTE           N92     Bn1
        BYTE   W04
        BYTE           N88     Dn2
        BYTE   W04
        BYTE           N84     Gn2
        BYTE   W03
        BYTE           N80     Bn2   v080   gtp1
        BYTE   W04
        BYTE           N76     En3   v080   gtp1
        BYTE   W78
// 017   ----------------------------------------
        BYTE   W96
// 018   ----------------------------------------
        BYTE   W96
// 019   ----------------------------------------
        BYTE   W96
// 020   ----------------------------------------
CombatDestinyCut_9_LOOP:
        BYTE   W96
// 021   ----------------------------------------
        BYTE   W96
// 022   ----------------------------------------
        BYTE   W96
// 023   ----------------------------------------
        BYTE   W96
// 024   ----------------------------------------
        BYTE   W96
// 025   ----------------------------------------
        BYTE   W96
// 026   ----------------------------------------
        BYTE   W96
// 027   ----------------------------------------
        BYTE   W96
// 028   ----------------------------------------
        BYTE   W96
// 029   ----------------------------------------
        BYTE   W96
// 030   ----------------------------------------
        BYTE   W96
// 031   ----------------------------------------
        BYTE   W96
// 032   ----------------------------------------
        BYTE   W96
// 033   ----------------------------------------
        BYTE   W96
// 034   ----------------------------------------
        BYTE   W96
// 035   ----------------------------------------
        BYTE   W96
// 036   ----------------------------------------
        BYTE   W96
// 037   ----------------------------------------
        BYTE   W96
// 038   ----------------------------------------
        BYTE   W96
// 039   ----------------------------------------
        BYTE   W96
// 040   ----------------------------------------
        BYTE   W96
// 041   ----------------------------------------
        BYTE   W96
// 042   ----------------------------------------
        BYTE   W96
// 043   ----------------------------------------
        BYTE   W96
// 044   ----------------------------------------
        BYTE   W96
// 045   ----------------------------------------
        BYTE   W96
// 046   ----------------------------------------
        BYTE   W96
// 047   ----------------------------------------
        BYTE   W96
// 048   ----------------------------------------
        BYTE   W96
// 049   ----------------------------------------
        BYTE   W96
// 050   ----------------------------------------
        BYTE   W96
// 051   ----------------------------------------
        BYTE   W96
// 052   ----------------------------------------
        BYTE   W96
// 053   ----------------------------------------
        BYTE   W96
// 054   ----------------------------------------
        BYTE   W96
// 055   ----------------------------------------
        BYTE   W96
// 056   ----------------------------------------
        BYTE   W96
// 057   ----------------------------------------
        BYTE   W96
// 058   ----------------------------------------
        BYTE   W96
// 059   ----------------------------------------
        BYTE   W96
// 060   ----------------------------------------
        BYTE   W96
// 061   ----------------------------------------
        BYTE   W96
// 062   ----------------------------------------
        BYTE   W96
// 063   ----------------------------------------
        BYTE   W96
// 064   ----------------------------------------
        BYTE   W96
// 065   ----------------------------------------
        BYTE   W96
// 066   ----------------------------------------
        BYTE   W96
// 067   ----------------------------------------
        BYTE   W96
// 068   ----------------------------------------
        BYTE   W96
// 069   ----------------------------------------
        BYTE   W96
// 070   ----------------------------------------
        BYTE   W96
// 071   ----------------------------------------
        BYTE   W96
// 072   ----------------------------------------
        BYTE   W96
// 073   ----------------------------------------
        BYTE   W96
// 074   ----------------------------------------
        BYTE   W96
// 075   ----------------------------------------
        BYTE   W96
// 076   ----------------------------------------
        BYTE   W96
// 077   ----------------------------------------
        BYTE   W96
// 078   ----------------------------------------
        BYTE   W96
// 079   ----------------------------------------
        BYTE   W96
// 080   ----------------------------------------
        BYTE   W96
// 081   ----------------------------------------
        BYTE   W96
// 082   ----------------------------------------
        BYTE   W96
// 083   ----------------------------------------
        BYTE   W96
// 084   ----------------------------------------
        BYTE   W96
// 085   ----------------------------------------
        BYTE   W96
// 086   ----------------------------------------
        BYTE   W96
// 087   ----------------------------------------
        BYTE   W96
// 088   ----------------------------------------
        BYTE   W96
// 089   ----------------------------------------
        BYTE   W96
// 090   ----------------------------------------
        BYTE   W96
// 091   ----------------------------------------
        BYTE   W96
// 092   ----------------------------------------
        BYTE   W96
// 093   ----------------------------------------
        BYTE   W96
// 094   ----------------------------------------
        BYTE   W96
// 095   ----------------------------------------
        BYTE   W96
// 096   ----------------------------------------
        BYTE   W96
// 097   ----------------------------------------
        BYTE   W96
// 098   ----------------------------------------
        BYTE   W96
// 099   ----------------------------------------
        BYTE   W96
// 100   ----------------------------------------
        BYTE   W96
// 101   ----------------------------------------
        BYTE   W96
// 102   ----------------------------------------
        BYTE   W96
// 103   ----------------------------------------
        BYTE   W96
// 104   ----------------------------------------
        BYTE   W96
// 105   ----------------------------------------
        BYTE   W96
// 106   ----------------------------------------
        BYTE   W96
// 107   ----------------------------------------
        BYTE   W96
// 108   ----------------------------------------
        BYTE   W96
// 109   ----------------------------------------
        BYTE   W96
// 110   ----------------------------------------
        BYTE   W96
// 111   ----------------------------------------
        BYTE   W96
// 112   ----------------------------------------
        BYTE   W96
// 113   ----------------------------------------
        BYTE   W96
// 114   ----------------------------------------
        BYTE   W96
// 115   ----------------------------------------
        BYTE   W96
// 116   ----------------------------------------
        BYTE   W96
// 117   ----------------------------------------
        BYTE   W96
// 118   ----------------------------------------
        BYTE   W96
// 119   ----------------------------------------
        BYTE   W96
// 120   ----------------------------------------
        BYTE   W96
// 121   ----------------------------------------
        BYTE   W96
// 122   ----------------------------------------
        BYTE   W96
// 123   ----------------------------------------
        BYTE   W96
// 124   ----------------------------------------
        BYTE   W96
// 125   ----------------------------------------
        BYTE   W96
// 126   ----------------------------------------
        BYTE   W96
// 127   ----------------------------------------
        BYTE   W96
// 128   ----------------------------------------
        BYTE   W96
// 129   ----------------------------------------
        BYTE   W96
// 130   ----------------------------------------
        BYTE   W96
// 131   ----------------------------------------
        BYTE   W96
// 132   ----------------------------------------
        BYTE   W96
// 133   ----------------------------------------
        BYTE   W96
// 134   ----------------------------------------
        BYTE   W96
// 135   ----------------------------------------
        BYTE   W96
// 136   ----------------------------------------
        BYTE   W96
// 137   ----------------------------------------
        BYTE   W96
// 138   ----------------------------------------
        BYTE   W96
// 139   ----------------------------------------
        BYTE   W96
// 140   ----------------------------------------
        BYTE   GoTo
         POIN2  CombatDestinyCut_9_LOOP
        BYTE   FINE

//***************** Track 10 (Midi-Chn.12) *****************//

CombatDestinyCut_10:
        BYTE   KEYSH   CombatDestinyCut_key+0
// 000   ----------------------------------------
        BYTE           VOICE   124
        BYTE           VOL     40
        BYTE   W96
// 001   ----------------------------------------
        BYTE   W96
// 002   ----------------------------------------
        BYTE   W96
// 003   ----------------------------------------
        BYTE   W96
// 004   ----------------------------------------
        BYTE   W96
// 005   ----------------------------------------
        BYTE   W96
// 006   ----------------------------------------
        BYTE   W96
// 007   ----------------------------------------
        BYTE   W96
// 008   ----------------------------------------
        BYTE   W96
// 009   ----------------------------------------
        BYTE   W96
// 010   ----------------------------------------
        BYTE   W96
// 011   ----------------------------------------
        BYTE   W96
// 012   ----------------------------------------
        BYTE   W96
// 013   ----------------------------------------
        BYTE   W96
// 014   ----------------------------------------
        BYTE   W96
// 015   ----------------------------------------
        BYTE   W96
// 016   ----------------------------------------
        BYTE   W96
// 017   ----------------------------------------
        BYTE   W96
// 018   ----------------------------------------
        BYTE           TIE     En2   v108
        BYTE           TIE     Fn2   v064
        BYTE           N96     Dn0   v102
        BYTE   W96
// 019   ----------------------------------------
        BYTE   W24
        BYTE           EOT     Fn2
        BYTE   W24
        BYTE           N06     Dn1   v096
        BYTE   W06
        BYTE                   Dn1
        BYTE   W06
        BYTE                   Dn1
        BYTE   W06
        BYTE                   Dn1
        BYTE   W06
        BYTE                   Dn1
        BYTE   W06
        BYTE                   Dn1
        BYTE   W06
        BYTE                   Dn1
        BYTE   W06
        BYTE           N18
        BYTE   W06
// 020   ----------------------------------------
CombatDestinyCut_10_LOOP:
        BYTE           TIE     Cs2   v096
        BYTE           N24     Cn1
        BYTE   W12
        BYTE                   Dn1
        BYTE   W12
        BYTE                   Fs1
        BYTE           N06     Cn1
        BYTE   W06
        BYTE           N12
        BYTE   W06
        BYTE           N24     Dn1
        BYTE   W06
        BYTE           N12     Cn1
        BYTE   W06
        BYTE           N24     Fs1
        BYTE   W06
        BYTE           N18     Cn1
        BYTE   W06
        BYTE           N24     Dn1
        BYTE   W12
        BYTE                   Fs1
        BYTE           N06     Cn1
        BYTE   W06
        BYTE           N18
        BYTE   W06
        BYTE           N24     Dn1
        BYTE   W12
// 021   ----------------------------------------
CombatDestinyCut_10_21:
        BYTE           N24     Fs1   v096
        BYTE           N24     Cn1
        BYTE   W12
        BYTE                   Dn1
        BYTE   W12
        BYTE                   Fs1
        BYTE           N06     Cn1
        BYTE   W06
        BYTE           N12
        BYTE   W06
        BYTE           N24     Dn1
        BYTE   W06
        BYTE           N12     Cn1
        BYTE   W06
        BYTE           N24     Fs1
        BYTE   W06
        BYTE           N18     Cn1
        BYTE   W06
        BYTE           N24     Dn1
        BYTE   W12
        BYTE                   Fs1
        BYTE           N06     Cn1
        BYTE   W06
        BYTE           N18
        BYTE   W06
        BYTE           N24     Dn1
        BYTE   W12
        BYTE   PEND
// 022   ----------------------------------------
        BYTE           EOT     En2
        BYTE           N24     Fs1
        BYTE           N24     Cn1
        BYTE   W12
        BYTE                   Dn1
        BYTE   W12
        BYTE                   Fs1
        BYTE           N06     Cn1
        BYTE   W06
        BYTE           N12
        BYTE   W06
        BYTE           N24     Dn1
        BYTE   W06
        BYTE           N12     Cn1
        BYTE   W06
        BYTE           N24     Fs1
        BYTE   W06
        BYTE           N18     Cn1
        BYTE   W06
        BYTE           N24     Dn1
        BYTE   W12
        BYTE                   Fs1
        BYTE           N06     Cn1
        BYTE   W06
        BYTE           N18
        BYTE   W06
        BYTE           N24     Dn1
        BYTE   W12
// 023   ----------------------------------------
        BYTE                   Fs1
        BYTE           N24     Cn1
        BYTE   W12
        BYTE                   Dn1
        BYTE   W12
        BYTE                   Fs1
        BYTE           N06     Cn1
        BYTE   W06
        BYTE           N12
        BYTE   W06
        BYTE           N24     Dn1
        BYTE   W06
        BYTE           N12     Cn1
        BYTE   W06
        BYTE           N24     Fs1
        BYTE   W06
        BYTE           N18     Cn1
        BYTE   W06
        BYTE           N36     Gn2
        BYTE           N24     Dn1
        BYTE   W12
        BYTE           N48     Fs1
        BYTE           N24     Cn1
        BYTE   W12
        BYTE           N06     Dn1
        BYTE   W06
        BYTE           N18
        BYTE   W06
// 024   ----------------------------------------
        BYTE           TIE     Gn2
        BYTE           N24     Cn1
        BYTE   W12
        BYTE                   Dn1
        BYTE   W12
        BYTE                   Fs1
        BYTE           N06     Cn1
        BYTE   W06
        BYTE           N12
        BYTE   W06
        BYTE           N24     Dn1
        BYTE   W06
        BYTE           N12     Cn1
        BYTE   W06
        BYTE           N24     Fs1
        BYTE   W06
        BYTE           N18     Cn1
        BYTE   W06
        BYTE           N24     Dn1
        BYTE   W12
        BYTE                   Fs1
        BYTE           N06     Cn1
        BYTE   W06
        BYTE           N18
        BYTE   W06
        BYTE           N24     Dn1
        BYTE   W12
// 025   ----------------------------------------
        BYTE                   Fs1
        BYTE           N24     Cn1
        BYTE   W12
        BYTE                   Dn1
        BYTE   W12
        BYTE                   Fs1
        BYTE           N06     Cn1
        BYTE   W06
        BYTE           N12
        BYTE   W06
        BYTE           N24     Dn1
        BYTE   W06
        BYTE           N12     Cn1
        BYTE   W06
        BYTE           N24     Fs1
        BYTE   W06
        BYTE           N18     Cn1
        BYTE   W06
        BYTE           N24     Dn1
        BYTE   W12
        BYTE                   Fs1
        BYTE           N24     Cn1
        BYTE   W12
        BYTE                   Dn1
        BYTE   W12
// 026   ----------------------------------------
        BYTE           EOT     Gn2
        BYTE           TIE
        BYTE           N24     Fs1
        BYTE           N24     Cn1
        BYTE   W12
        BYTE                   Dn1
        BYTE   W12
        BYTE                   Fs1
        BYTE           N06     Cn1
        BYTE   W06
        BYTE           N12
        BYTE   W06
        BYTE           N24     Dn1
        BYTE   W06
        BYTE           N12     Cn1
        BYTE   W06
        BYTE           N24     Fs1
        BYTE   W06
        BYTE           N18     Cn1
        BYTE   W06
        BYTE           N24     Dn1
        BYTE   W12
        BYTE                   Fs1
        BYTE           N06     Cn1
        BYTE   W06
        BYTE           N18
        BYTE   W06
        BYTE           N24     Dn1
        BYTE   W12
// 027   ----------------------------------------
CombatDestinyCut_10_27:
        BYTE           N24     Fs1   v096
        BYTE           N24     Cn1
        BYTE   W12
        BYTE           EOT     Gn2
        BYTE           N36
        BYTE           N18     Dn1
        BYTE   W12
        BYTE           N24     Fs1
        BYTE           N18     Cn1
        BYTE   W06
        BYTE                   Dn1
        BYTE   W12
        BYTE                   Cn1
        BYTE   W06
        BYTE           TIE     Gn2
        BYTE           N24     Fs1
        BYTE           N24     Dn1
        BYTE   W12
        BYTE           N36     Cn1
        BYTE   W12
        BYTE           N48     Fs1
        BYTE           N06     Dn1
        BYTE   W06
        BYTE                   Dn1
        BYTE   W06
        BYTE           N24
        BYTE   W12
        BYTE   PEND
// 028   ----------------------------------------
CombatDestinyCut_10_28:
        BYTE           EOT     Cs2
        BYTE           TIE     Cs2   v096
        BYTE           N24     Cn1
        BYTE   W12
        BYTE                   Dn1
        BYTE   W12
        BYTE                   Fs1
        BYTE           N06     Cn1
        BYTE   W06
        BYTE           N12
        BYTE   W06
        BYTE           N24     Dn1
        BYTE   W06
        BYTE           N12     Cn1
        BYTE   W06
        BYTE           N24     Fs1
        BYTE   W06
        BYTE           N18     Cn1
        BYTE   W06
        BYTE           N24     Dn1
        BYTE   W12
        BYTE                   Fs1
        BYTE           N06     Cn1
        BYTE   W06
        BYTE           N18
        BYTE   W06
        BYTE           N24     Dn1
        BYTE   W12
        BYTE   PEND
// 029   ----------------------------------------
CombatDestinyCut_10_29:
        BYTE           N24     Fs1   v096
        BYTE           N24     Cn1
        BYTE   W12
        BYTE                   Dn1
        BYTE   W12
        BYTE                   Fs1
        BYTE           N06     Cn1
        BYTE   W06
        BYTE           N12
        BYTE   W06
        BYTE           N24     Dn1
        BYTE   W06
        BYTE           N12     Cn1
        BYTE   W06
        BYTE           N24     Fs1
        BYTE   W06
        BYTE           N18     Cn1
        BYTE   W06
        BYTE           N24     Dn1
        BYTE   W12
        BYTE           N48     Fs1
        BYTE           N06     Cn1
        BYTE   W06
        BYTE           N18
        BYTE   W06
        BYTE           N24     Dn1
        BYTE   W12
        BYTE   PEND
// 030   ----------------------------------------
CombatDestinyCut_10_30:
        BYTE           EOT     Gn2
        BYTE           TIE     Gn2   v096
        BYTE           N24     Cn1
        BYTE   W12
        BYTE                   Dn1
        BYTE   W12
        BYTE                   Fs1
        BYTE           N06     Cn1
        BYTE   W06
        BYTE           N12
        BYTE   W06
        BYTE           N24     Dn1
        BYTE   W06
        BYTE           N12     Cn1
        BYTE   W06
        BYTE           N24     Fs1
        BYTE   W06
        BYTE           N18     Cn1
        BYTE   W06
        BYTE           N24     Dn1
        BYTE   W12
        BYTE                   Fs1
        BYTE           N06     Cn1
        BYTE   W06
        BYTE           N18
        BYTE   W06
        BYTE           N24     Dn1
        BYTE   W12
        BYTE   PEND
// 031   ----------------------------------------
        BYTE   PATT
         POIN2  CombatDestinyCut_10_29
// 032   ----------------------------------------
        BYTE   PATT
         POIN2  CombatDestinyCut_10_30
// 033   ----------------------------------------
        BYTE           N24     Fs1   v096
        BYTE           N24     Cn1
        BYTE   W12
        BYTE                   Dn1
        BYTE   W12
        BYTE                   Fs1
        BYTE           N06     Cn1
        BYTE   W06
        BYTE           N12
        BYTE   W06
        BYTE           N24     Dn1
        BYTE   W06
        BYTE           N12     Cn1
        BYTE   W06
        BYTE           N24     Fs1
        BYTE   W06
        BYTE           N18     Cn1
        BYTE   W06
        BYTE           N24     Dn1
        BYTE   W12
        BYTE           N48     Fs1
        BYTE           N24     Cn1
        BYTE   W12
        BYTE                   Dn1
        BYTE   W12
// 034   ----------------------------------------
        BYTE           EOT     Gn2
        BYTE           TIE
        BYTE           N24     Cn1
        BYTE   W12
        BYTE                   Dn1
        BYTE   W12
        BYTE                   Fs1
        BYTE           N06     Cn1
        BYTE   W06
        BYTE           N12
        BYTE   W06
        BYTE           N24     Dn1
        BYTE   W06
        BYTE           N12     Cn1
        BYTE   W06
        BYTE           N24     Fs1
        BYTE   W06
        BYTE           N18     Cn1
        BYTE   W06
        BYTE           N24     Dn1
        BYTE   W12
        BYTE                   Fs1
        BYTE           N24     Cn1
        BYTE   W12
        BYTE                   Dn1
        BYTE   W12
// 035   ----------------------------------------
        BYTE   PATT
         POIN2  CombatDestinyCut_10_27
// 036   ----------------------------------------
        BYTE   PATT
         POIN2  CombatDestinyCut_10_28
// 037   ----------------------------------------
        BYTE   PATT
         POIN2  CombatDestinyCut_10_21
// 038   ----------------------------------------
        BYTE   PATT
         POIN2  CombatDestinyCut_10_21
// 039   ----------------------------------------
        BYTE   PATT
         POIN2  CombatDestinyCut_10_29
// 040   ----------------------------------------
        BYTE   PATT
         POIN2  CombatDestinyCut_10_28
// 041   ----------------------------------------
        BYTE   PATT
         POIN2  CombatDestinyCut_10_21
// 042   ----------------------------------------
        BYTE   PATT
         POIN2  CombatDestinyCut_10_21
// 043   ----------------------------------------
        BYTE           N24     Fs1   v096
        BYTE           N24     Cn1
        BYTE   W12
        BYTE                   Dn1
        BYTE   W12
        BYTE                   Fs1
        BYTE           N06     Cn1
        BYTE   W06
        BYTE           N12
        BYTE   W06
        BYTE           N24     Dn1
        BYTE   W06
        BYTE           N12     Cn1
        BYTE   W06
        BYTE           N24     Fs1
        BYTE   W06
        BYTE           N18     Cn1
        BYTE   W06
        BYTE           EOT     Gn2
        BYTE           TIE
        BYTE           N24     Dn1
        BYTE   W12
        BYTE                   Fs1
        BYTE           N24     Cn1
        BYTE   W12
        BYTE           N06     Dn1
        BYTE   W06
        BYTE           N18
        BYTE   W06
// 044   ----------------------------------------
        BYTE   PATT
         POIN2  CombatDestinyCut_10_21
// 045   ----------------------------------------
        BYTE   PATT
         POIN2  CombatDestinyCut_10_21
// 046   ----------------------------------------
        BYTE   PATT
         POIN2  CombatDestinyCut_10_21
// 047   ----------------------------------------
        BYTE   PATT
         POIN2  CombatDestinyCut_10_21
// 048   ----------------------------------------
        BYTE   PATT
         POIN2  CombatDestinyCut_10_21
// 049   ----------------------------------------
        BYTE   PATT
         POIN2  CombatDestinyCut_10_21
// 050   ----------------------------------------
        BYTE   PATT
         POIN2  CombatDestinyCut_10_21
// 051   ----------------------------------------
        BYTE           N24     Fs1   v096
        BYTE           N24     Cn1
        BYTE   W12
        BYTE                   Dn1
        BYTE   W12
        BYTE                   Fs1
        BYTE           N06     Cn1
        BYTE   W06
        BYTE           N12
        BYTE   W06
        BYTE           N24     Dn1
        BYTE   W06
        BYTE           N12     Cn1
        BYTE   W06
        BYTE           N24     Fs1
        BYTE   W06
        BYTE           N18     Cn1
        BYTE   W06
        BYTE           N24     Dn1
        BYTE   W12
        BYTE           TIE     Fs1
        BYTE           N06     Cn1
        BYTE   W06
        BYTE           N18
        BYTE   W06
        BYTE           N24     Dn1
        BYTE   W12
// 052   ----------------------------------------
        BYTE                   Fs2   v080
        BYTE           TIE     An2   v096
        BYTE           N24     Cn1
        BYTE   W12
        BYTE                   Dn1
        BYTE   W12
        BYTE                   Fs2
        BYTE           N06     Cn1
        BYTE   W06
        BYTE           N12
        BYTE   W06
        BYTE           N24     Dn1
        BYTE   W06
        BYTE           N12     Cn1
        BYTE   W06
        BYTE           N24     Fs2
        BYTE   W06
        BYTE           N18     Cn1
        BYTE   W06
        BYTE           N24     Dn1
        BYTE   W12
        BYTE                   Fs2
        BYTE           N24     Cn1
        BYTE   W12
        BYTE                   Dn1
        BYTE   W12
// 053   ----------------------------------------
CombatDestinyCut_10_53:
        BYTE           N24     Fs2   v096
        BYTE           N24     Cn1
        BYTE   W12
        BYTE                   Dn1
        BYTE   W12
        BYTE                   Fs2
        BYTE           N06     Cn1
        BYTE   W06
        BYTE           N12
        BYTE   W06
        BYTE           N24     Dn1
        BYTE   W06
        BYTE           N12     Cn1
        BYTE   W06
        BYTE           N24     Fs2
        BYTE   W06
        BYTE           N18     Cn1
        BYTE   W06
        BYTE           N24     Dn1
        BYTE   W12
        BYTE                   Fs2
        BYTE           N24     Cn1
        BYTE   W12
        BYTE                   Dn1
        BYTE   W12
        BYTE   PEND
// 054   ----------------------------------------
        BYTE   PATT
         POIN2  CombatDestinyCut_10_53
// 055   ----------------------------------------
        BYTE   PATT
         POIN2  CombatDestinyCut_10_53
// 056   ----------------------------------------
CombatDestinyCut_10_56:
        BYTE           EOT     An2
        BYTE           N24     Fs2   v080
        BYTE           TIE     An2   v096
        BYTE           N24     Cn1
        BYTE   W12
        BYTE                   Dn1
        BYTE   W12
        BYTE                   Fs2
        BYTE           N06     Cn1
        BYTE   W06
        BYTE           N12
        BYTE   W06
        BYTE           N24     Dn1
        BYTE   W06
        BYTE           N12     Cn1
        BYTE   W06
        BYTE           N24     Fs2
        BYTE   W06
        BYTE           N18     Cn1
        BYTE   W06
        BYTE           N24     Dn1
        BYTE   W12
        BYTE                   Fs2
        BYTE           N24     Cn1
        BYTE   W12
        BYTE                   Dn1
        BYTE   W12
        BYTE   PEND
// 057   ----------------------------------------
CombatDestinyCut_10_57:
        BYTE           N24     Fs2   v096
        BYTE           N24     Cn1
        BYTE   W12
        BYTE                   Dn1
        BYTE   W12
        BYTE                   Fs2
        BYTE           N18     Cn1
        BYTE   W12
        BYTE           N24     Dn1
        BYTE   W06
        BYTE           N12     Cn1
        BYTE   W06
        BYTE           N24     Fs2
        BYTE   W06
        BYTE           N18     Cn1
        BYTE   W06
        BYTE           N24     Dn1
        BYTE   W12
        BYTE                   Fs2
        BYTE           N24     Cn1
        BYTE   W12
        BYTE                   Dn1
        BYTE   W12
        BYTE   PEND
// 058   ----------------------------------------
        BYTE   PATT
         POIN2  CombatDestinyCut_10_57
// 059   ----------------------------------------
        BYTE   PATT
         POIN2  CombatDestinyCut_10_57
// 060   ----------------------------------------
CombatDestinyCut_10_60:
        BYTE           EOT     An2
        BYTE           N24     Fs2   v080
        BYTE           TIE     An2   v096
        BYTE           N24     Cn1
        BYTE   W12
        BYTE                   Dn1
        BYTE   W12
        BYTE                   Fs2
        BYTE           N18     Cn1
        BYTE   W12
        BYTE           N24     Dn1
        BYTE   W06
        BYTE           N12     Cn1
        BYTE   W06
        BYTE           N24     Fs2
        BYTE   W06
        BYTE           N18     Cn1
        BYTE   W06
        BYTE           N24     Dn1
        BYTE   W12
        BYTE                   Fs2
        BYTE           N24     Cn1
        BYTE   W12
        BYTE                   Dn1
        BYTE   W12
        BYTE   PEND
// 061   ----------------------------------------
        BYTE   PATT
         POIN2  CombatDestinyCut_10_57
// 062   ----------------------------------------
        BYTE   PATT
         POIN2  CombatDestinyCut_10_57
// 063   ----------------------------------------
        BYTE   PATT
         POIN2  CombatDestinyCut_10_57
// 064   ----------------------------------------
CombatDestinyCut_10_64:
        BYTE           N24     Fs2   v096
        BYTE           N24     Cn1
        BYTE   W12
        BYTE                   Dn1
        BYTE   W12
        BYTE                   Fs2
        BYTE           N30     Cn1
        BYTE   W12
        BYTE           N24     Dn1
        BYTE   W12
        BYTE                   Fs2
        BYTE   W06
        BYTE           N18     Cn1
        BYTE   W06
        BYTE           N24     Dn1
        BYTE   W12
        BYTE                   Fs2
        BYTE           N24     Cn1
        BYTE   W12
        BYTE                   Dn1
        BYTE   W12
        BYTE   PEND
// 065   ----------------------------------------
        BYTE   PATT
         POIN2  CombatDestinyCut_10_57
// 066   ----------------------------------------
        BYTE   PATT
         POIN2  CombatDestinyCut_10_57
// 067   ----------------------------------------
CombatDestinyCut_10_67:
        BYTE           N24     Fs2   v096
        BYTE           N24     Cn1
        BYTE   W12
        BYTE           EOT     An2
        BYTE           N36
        BYTE           N18     Dn1
        BYTE   W12
        BYTE           N24     Fs2
        BYTE           N18     Cn1
        BYTE   W06
        BYTE                   Dn1
        BYTE   W12
        BYTE                   Cn1
        BYTE   W06
        BYTE           N48     An2
        BYTE           N48     Fs2
        BYTE           N24     Dn1
        BYTE   W12
        BYTE           N36     Cn1
        BYTE   W12
        BYTE           N06     Dn1
        BYTE   W06
        BYTE                   Dn1
        BYTE   W06
        BYTE           N24
        BYTE   W12
        BYTE   PEND
// 068   ----------------------------------------
CombatDestinyCut_10_68:
        BYTE           N60     An2   v096
        BYTE           N24     Fs2
        BYTE           N24     Cn1
        BYTE   W12
        BYTE                   Dn1
        BYTE   W12
        BYTE                   Fs2
        BYTE           N06     Cn1
        BYTE   W06
        BYTE           N12
        BYTE   W06
        BYTE           N24     Dn1
        BYTE   W06
        BYTE           N12     Cn1
        BYTE   W06
        BYTE           N24     Fs2
        BYTE   W06
        BYTE           N18     Cn1
        BYTE   W06
        BYTE           N48     An2
        BYTE           N24     Dn1
        BYTE   W12
        BYTE                   Fs2
        BYTE           N06     Cn1
        BYTE   W06
        BYTE           N18
        BYTE   W06
        BYTE           N24     Dn1
        BYTE   W12
        BYTE   PEND
// 069   ----------------------------------------
        BYTE                   Fs2
        BYTE           N24     Cn1
        BYTE   W12
        BYTE           N36     An2
        BYTE           N18     Dn1
        BYTE   W12
        BYTE           N24     Fs2
        BYTE           N18     Cn1
        BYTE   W06
        BYTE                   Dn1
        BYTE   W12
        BYTE                   Cn1
        BYTE   W06
        BYTE           TIE     An2
        BYTE           TIE     Fs2
        BYTE           N24     Dn1
        BYTE   W12
        BYTE           TIE     Cn1
        BYTE   W12
        BYTE                   As1   v074
        BYTE           N06     Dn1   v096
        BYTE   W06
        BYTE                   Dn1
        BYTE   W06
        BYTE           TIE
        BYTE   W12
// 070   ----------------------------------------
        BYTE           EOT     Gn2
        BYTE           TIE
        BYTE   W24
        BYTE           N24     Gs1   v074
        BYTE   W24
        BYTE                   Gs1
        BYTE   W24
        BYTE                   Gs1
        BYTE   W24
// 071   ----------------------------------------
CombatDestinyCut_10_71:
        BYTE           N24     Gs1   v074
        BYTE   W24
        BYTE           N12
        BYTE   W12
        BYTE           N06
        BYTE   W06
        BYTE                   Gs1
        BYTE   W06
        BYTE           N24
        BYTE   W24
        BYTE                   Gs1
        BYTE   W24
        BYTE   PEND
// 072   ----------------------------------------
CombatDestinyCut_10_72:
        BYTE           N24     Gs1   v074
        BYTE   W24
        BYTE                   Gs1
        BYTE   W24
        BYTE                   Gs1
        BYTE   W24
        BYTE                   Gs1
        BYTE   W24
        BYTE   PEND
// 073   ----------------------------------------
        BYTE   PATT
         POIN2  CombatDestinyCut_10_72
// 074   ----------------------------------------
        BYTE   PATT
         POIN2  CombatDestinyCut_10_71
// 075   ----------------------------------------
CombatDestinyCut_10_75:
        BYTE           N24     Gs1   v074
        BYTE   W24
        BYTE                   Gs1
        BYTE   W24
        BYTE                   Gs1
        BYTE   W24
        BYTE           N12
        BYTE   W12
        BYTE           N06
        BYTE   W06
        BYTE           N30
        BYTE   W06
        BYTE   PEND
// 076   ----------------------------------------
CombatDestinyCut_10_76:
        BYTE   W24
        BYTE           N24     Gs1   v074
        BYTE   W24
        BYTE                   Gs1
        BYTE   W24
        BYTE                   Gs1
        BYTE   W24
        BYTE   PEND
// 077   ----------------------------------------
        BYTE   PATT
         POIN2  CombatDestinyCut_10_72
// 078   ----------------------------------------
        BYTE           EOT     Cs2
        BYTE           N24     Gs1   v080
        BYTE           TIE     Cs2   v096
        BYTE   W24
        BYTE           N24     Gs1   v074
        BYTE   W24
        BYTE                   Gs1
        BYTE   W24
        BYTE           TIE
        BYTE   W24
// 079   ----------------------------------------
        BYTE   W48
        BYTE           EOT     Dn1
        BYTE           N06     Dn1   v096
        BYTE   W06
        BYTE                   Dn1
        BYTE   W06
        BYTE                   Dn1
        BYTE   W06
        BYTE                   Dn1
        BYTE   W06
        BYTE                   Dn1
        BYTE   W06
        BYTE                   Dn1
        BYTE   W06
        BYTE           EOT     Gs1
        BYTE           N24     Gs1   v074
        BYTE           N06     Dn1   v096
        BYTE   W06
        BYTE           N18
        BYTE   W06
// 080   ----------------------------------------
        BYTE           EOT     Cs2
        BYTE                   Cn1
        BYTE           TIE     Cs2
        BYTE           N24     Cn1
        BYTE   W12
        BYTE                   Gs1   v074
        BYTE           N24     Dn1   v096
        BYTE   W12
        BYTE           N06     Cn1
        BYTE   W06
        BYTE           N12
        BYTE   W06
        BYTE           N24     Gs1   v074
        BYTE           N24     Dn1   v096
        BYTE   W06
        BYTE           N12     Cn1
        BYTE   W12
        BYTE           N18
        BYTE   W06
        BYTE           N24     Gs1   v074
        BYTE           N24     Dn1   v096
        BYTE   W12
        BYTE           N06     Cn1
        BYTE   W06
        BYTE           N18
        BYTE   W06
        BYTE           N24     Gs1   v074
        BYTE           N24     Dn1   v096
        BYTE   W12
// 081   ----------------------------------------
CombatDestinyCut_10_81:
        BYTE           N24     Cn1   v096
        BYTE   W12
        BYTE                   Gs1   v074
        BYTE           N24     Dn1   v096
        BYTE   W12
        BYTE           N06     Cn1
        BYTE   W06
        BYTE           N12
        BYTE   W06
        BYTE           N24     Gs1   v074
        BYTE           N24     Dn1   v096
        BYTE   W06
        BYTE           N12     Cn1
        BYTE   W12
        BYTE           N18
        BYTE   W06
        BYTE           N24     Gs1   v074
        BYTE           N24     Dn1   v096
        BYTE   W12
        BYTE           N06     Cn1
        BYTE   W06
        BYTE           N18
        BYTE   W06
        BYTE           N24     Gs1   v074
        BYTE           N24     Dn1   v096
        BYTE   W12
        BYTE   PEND
// 082   ----------------------------------------
        BYTE   PATT
         POIN2  CombatDestinyCut_10_81
// 083   ----------------------------------------
        BYTE           N24     Cn1   v096
        BYTE   W12
        BYTE                   Gs1   v074
        BYTE           N24     Dn1   v096
        BYTE   W12
        BYTE           N06     Cn1
        BYTE   W06
        BYTE           N12
        BYTE   W06
        BYTE           N24     Gs1   v074
        BYTE           N24     Dn1   v096
        BYTE   W06
        BYTE           N12     Cn1
        BYTE   W12
        BYTE           N18
        BYTE   W06
        BYTE           EOT     An2
        BYTE           N36
        BYTE           N24     Gs1   v074
        BYTE           N24     Dn1   v096
        BYTE   W12
        BYTE                   Cn1
        BYTE   W12
        BYTE                   Gs1   v074
        BYTE           N06     Dn1   v096
        BYTE   W06
        BYTE           N18
        BYTE   W06
// 084   ----------------------------------------
        BYTE           TIE     An2
        BYTE           N24     Cn1
        BYTE   W12
        BYTE                   Gs1   v074
        BYTE           N24     Dn1   v096
        BYTE   W12
        BYTE           N06     Cn1
        BYTE   W06
        BYTE           N12
        BYTE   W06
        BYTE           N24     Gs1   v074
        BYTE           N24     Dn1   v096
        BYTE   W06
        BYTE           N12     Cn1
        BYTE   W12
        BYTE           N18
        BYTE   W06
        BYTE           N24     Gs1   v074
        BYTE           N24     Dn1   v096
        BYTE   W12
        BYTE           N06     Cn1
        BYTE   W06
        BYTE           N18
        BYTE   W06
        BYTE           N24     Gs1   v074
        BYTE           N24     Dn1   v096
        BYTE   W12
// 085   ----------------------------------------
CombatDestinyCut_10_85:
        BYTE           N24     Cn1   v096
        BYTE   W12
        BYTE                   Gs1   v074
        BYTE           N24     Dn1   v096
        BYTE   W12
        BYTE           N06     Cn1
        BYTE   W06
        BYTE           N12
        BYTE   W06
        BYTE           N24     Gs1   v074
        BYTE           N24     Dn1   v096
        BYTE   W06
        BYTE           N12     Cn1
        BYTE   W12
        BYTE           N18
        BYTE   W06
        BYTE           N24     Gs1   v074
        BYTE           N24     Dn1   v096
        BYTE   W12
        BYTE                   Cn1
        BYTE   W12
        BYTE                   Gs1   v074
        BYTE           N24     Dn1   v096
        BYTE   W12
        BYTE   PEND
// 086   ----------------------------------------
CombatDestinyCut_10_86:
        BYTE           EOT     An2
        BYTE           TIE     An2   v096
        BYTE           N24     Cn1
        BYTE   W12
        BYTE                   Gs1   v074
        BYTE           N24     Dn1   v096
        BYTE   W12
        BYTE           N06     Cn1
        BYTE   W06
        BYTE           N12
        BYTE   W06
        BYTE           N24     Gs1   v074
        BYTE           N24     Dn1   v096
        BYTE   W06
        BYTE           N12     Cn1
        BYTE   W12
        BYTE           N18
        BYTE   W06
        BYTE           N24     Gs1   v074
        BYTE           N24     Dn1   v096
        BYTE   W12
        BYTE           N06     Cn1
        BYTE   W06
        BYTE           N18
        BYTE   W06
        BYTE           N24     Gs1   v074
        BYTE           N24     Dn1   v096
        BYTE   W12
        BYTE   PEND
// 087   ----------------------------------------
        BYTE                   Cn1
        BYTE   W12
        BYTE           EOT     Cs2
        BYTE           N36
        BYTE           N24     Gs1   v074
        BYTE           N18     Dn1   v096
        BYTE   W12
        BYTE                   Cn1
        BYTE   W06
        BYTE                   Dn1
        BYTE   W06
        BYTE           N48     Gs1   v074
        BYTE   W06
        BYTE           N18     Cn1   v096
        BYTE   W06
        BYTE           N48     Cs2
        BYTE           N24     Dn1
        BYTE   W12
        BYTE           N36     Cn1
        BYTE   W12
        BYTE           N06     Dn1
        BYTE   W06
        BYTE                   Dn1
        BYTE   W06
        BYTE           N24     Gs1   v074
        BYTE           N24     Dn1   v096
        BYTE   W12
// 088   ----------------------------------------
        BYTE           TIE     Cs2
        BYTE           N24     Cn1
        BYTE   W12
        BYTE                   Gs1   v074
        BYTE           N24     Dn1   v096
        BYTE   W12
        BYTE           N06     Cn1
        BYTE   W06
        BYTE           N12
        BYTE   W06
        BYTE           N24     Gs1   v074
        BYTE           N24     Dn1   v096
        BYTE   W06
        BYTE           N12     Cn1
        BYTE   W12
        BYTE           N18
        BYTE   W06
        BYTE           N24     Gs1   v074
        BYTE           N24     Dn1   v096
        BYTE   W12
        BYTE           N06     Cn1
        BYTE   W06
        BYTE           N18
        BYTE   W06
        BYTE           N24     Gs1   v074
        BYTE           N24     Dn1   v096
        BYTE   W12
// 089   ----------------------------------------
        BYTE   PATT
         POIN2  CombatDestinyCut_10_81
// 090   ----------------------------------------
        BYTE   PATT
         POIN2  CombatDestinyCut_10_86
// 091   ----------------------------------------
        BYTE   PATT
         POIN2  CombatDestinyCut_10_81
// 092   ----------------------------------------
        BYTE   PATT
         POIN2  CombatDestinyCut_10_86
// 093   ----------------------------------------
        BYTE   PATT
         POIN2  CombatDestinyCut_10_85
// 094   ----------------------------------------
        BYTE           EOT     An2
        BYTE           TIE     An2   v096
        BYTE           N24     Cn1
        BYTE   W12
        BYTE                   Gs1   v074
        BYTE           N24     Dn1   v096
        BYTE   W12
        BYTE           N06     Cn1
        BYTE   W06
        BYTE           N12
        BYTE   W06
        BYTE           N24     Gs1   v074
        BYTE           N24     Dn1   v096
        BYTE   W06
        BYTE           N12     Cn1
        BYTE   W12
        BYTE           N18
        BYTE   W06
        BYTE           N24     Gs1   v074
        BYTE           N24     Dn1   v096
        BYTE   W12
        BYTE                   Cn1
        BYTE   W12
        BYTE                   Gs1   v074
        BYTE           N24     Dn1   v096
        BYTE   W12
// 095   ----------------------------------------
        BYTE                   Cn1
        BYTE   W12
        BYTE           EOT     An2
        BYTE           N36
        BYTE           N24     Gs1   v074
        BYTE           N18     Dn1   v096
        BYTE   W12
        BYTE                   Cn1
        BYTE   W06
        BYTE                   Dn1
        BYTE   W06
        BYTE           TIE     Gs1   v074
        BYTE   W06
        BYTE           N18     Cn1   v096
        BYTE   W06
        BYTE           N48     An2
        BYTE           N24     Dn1
        BYTE   W12
        BYTE           N36     Cn1
        BYTE   W12
        BYTE           N06     Dn1
        BYTE   W06
        BYTE                   Dn1
        BYTE   W06
        BYTE           N24
        BYTE   W12
// 096   ----------------------------------------
        BYTE           TIE     An2
        BYTE           N24     Cn1
        BYTE   W12
        BYTE                   Dn1
        BYTE   W12
        BYTE           EOT     Fs1
        BYTE           N24
        BYTE           N06     Cn1
        BYTE   W06
        BYTE           N12
        BYTE   W06
        BYTE           N24     Dn1
        BYTE   W06
        BYTE           N12     Cn1
        BYTE   W06
        BYTE           N24     Fs1
        BYTE   W06
        BYTE           N18     Cn1
        BYTE   W06
        BYTE           N24     Dn1
        BYTE   W12
        BYTE                   Fs1
        BYTE           N06     Cn1
        BYTE   W06
        BYTE           N18
        BYTE   W06
        BYTE           N24     Dn1
        BYTE   W12
// 097   ----------------------------------------
        BYTE   PATT
         POIN2  CombatDestinyCut_10_21
// 098   ----------------------------------------
        BYTE   PATT
         POIN2  CombatDestinyCut_10_21
// 099   ----------------------------------------
        BYTE   PATT
         POIN2  CombatDestinyCut_10_29
// 100   ----------------------------------------
        BYTE           EOT     Cs2
        BYTE           N24     Cn1   v096
        BYTE   W12
        BYTE                   Dn1
        BYTE   W12
        BYTE                   Fs1
        BYTE           N06     Cn1
        BYTE   W06
        BYTE           N12
        BYTE   W06
        BYTE           N24     Dn1
        BYTE   W06
        BYTE           N12     Cn1
        BYTE   W06
        BYTE           N24     Fs1
        BYTE   W06
        BYTE           N18     Cn1
        BYTE   W06
        BYTE           N24     Dn1
        BYTE   W12
        BYTE                   Fs1
        BYTE           N06     Cn1
        BYTE   W06
        BYTE           N18
        BYTE   W06
        BYTE           N24     Dn1
        BYTE   W12
// 101   ----------------------------------------
        BYTE   PATT
         POIN2  CombatDestinyCut_10_21
// 102   ----------------------------------------
        BYTE   PATT
         POIN2  CombatDestinyCut_10_21
// 103   ----------------------------------------
        BYTE           N24     Fs1   v096
        BYTE           N24     Cn1
        BYTE   W12
        BYTE                   Dn1
        BYTE   W12
        BYTE                   Fs1
        BYTE           N06     Cn1
        BYTE   W06
        BYTE           N12
        BYTE   W06
        BYTE           N24     Dn1
        BYTE   W06
        BYTE           N12     Cn1
        BYTE   W06
        BYTE           N24     Fs1
        BYTE   W06
        BYTE           N18     Cn1
        BYTE   W06
        BYTE           N24     Dn1
        BYTE   W12
        BYTE           N48     Fs1
        BYTE           N24     Cn1
        BYTE   W12
        BYTE           N06     Dn1
        BYTE   W06
        BYTE           N18
        BYTE   W06
// 104   ----------------------------------------
        BYTE           EOT     An2
        BYTE           TIE
        BYTE           N24     Cn1
        BYTE   W12
        BYTE                   Dn1
        BYTE   W12
        BYTE                   Fs1
        BYTE           N06     Cn1
        BYTE   W06
        BYTE           N12
        BYTE   W06
        BYTE           N24     Dn1
        BYTE   W06
        BYTE           N12     Cn1
        BYTE   W06
        BYTE           N24     Fs1
        BYTE   W06
        BYTE           N18     Cn1
        BYTE   W06
        BYTE           EOT     Gn2
        BYTE           TIE
        BYTE           N24     Dn1
        BYTE   W12
        BYTE                   Fs1
        BYTE           N06     Cn1
        BYTE   W06
        BYTE           N18
        BYTE   W06
        BYTE           N24     Dn1
        BYTE   W12
// 105   ----------------------------------------
        BYTE   PATT
         POIN2  CombatDestinyCut_10_21
// 106   ----------------------------------------
        BYTE   PATT
         POIN2  CombatDestinyCut_10_21
// 107   ----------------------------------------
        BYTE   PATT
         POIN2  CombatDestinyCut_10_21
// 108   ----------------------------------------
        BYTE   PATT
         POIN2  CombatDestinyCut_10_21
// 109   ----------------------------------------
        BYTE   PATT
         POIN2  CombatDestinyCut_10_21
// 110   ----------------------------------------
        BYTE   PATT
         POIN2  CombatDestinyCut_10_21
// 111   ----------------------------------------
        BYTE           N24     Fs1   v096
        BYTE           N24     Cn1
        BYTE   W12
        BYTE                   Dn1
        BYTE   W12
        BYTE                   Fs1
        BYTE           N06     Cn1
        BYTE   W06
        BYTE           N12
        BYTE   W06
        BYTE           N24     Dn1
        BYTE   W06
        BYTE           N12     Cn1
        BYTE   W06
        BYTE           N24     Fs1
        BYTE   W06
        BYTE           N18     Cn1
        BYTE   W06
        BYTE           N24     Dn1
        BYTE   W12
        BYTE           N06     Cn1
        BYTE   W06
        BYTE           N18
        BYTE   W06
        BYTE           N24     Dn1
        BYTE   W12
// 112   ----------------------------------------
        BYTE           EOT     Fs2
        BYTE                   An2
        BYTE           N24     Fs2   v080
        BYTE           TIE     An2   v096
        BYTE           N24     Cn1
        BYTE   W12
        BYTE                   Dn1
        BYTE   W12
        BYTE                   Fs2
        BYTE           N06     Cn1
        BYTE   W06
        BYTE           N12
        BYTE   W06
        BYTE           N24     Dn1
        BYTE   W06
        BYTE           N12     Cn1
        BYTE   W06
        BYTE           N24     Fs2
        BYTE   W06
        BYTE           N18     Cn1
        BYTE   W06
        BYTE           N24     Dn1
        BYTE   W12
        BYTE                   Fs2
        BYTE           N24     Cn1
        BYTE   W12
        BYTE                   Dn1
        BYTE   W12
// 113   ----------------------------------------
        BYTE   PATT
         POIN2  CombatDestinyCut_10_53
// 114   ----------------------------------------
        BYTE   PATT
         POIN2  CombatDestinyCut_10_53
// 115   ----------------------------------------
        BYTE   PATT
         POIN2  CombatDestinyCut_10_53
// 116   ----------------------------------------
        BYTE   PATT
         POIN2  CombatDestinyCut_10_56
// 117   ----------------------------------------
        BYTE   PATT
         POIN2  CombatDestinyCut_10_57
// 118   ----------------------------------------
        BYTE   PATT
         POIN2  CombatDestinyCut_10_57
// 119   ----------------------------------------
        BYTE   PATT
         POIN2  CombatDestinyCut_10_57
// 120   ----------------------------------------
        BYTE   PATT
         POIN2  CombatDestinyCut_10_60
// 121   ----------------------------------------
        BYTE   PATT
         POIN2  CombatDestinyCut_10_57
// 122   ----------------------------------------
        BYTE   PATT
         POIN2  CombatDestinyCut_10_57
// 123   ----------------------------------------
        BYTE   PATT
         POIN2  CombatDestinyCut_10_57
// 124   ----------------------------------------
        BYTE   PATT
         POIN2  CombatDestinyCut_10_64
// 125   ----------------------------------------
        BYTE   PATT
         POIN2  CombatDestinyCut_10_57
// 126   ----------------------------------------
        BYTE   PATT
         POIN2  CombatDestinyCut_10_57
// 127   ----------------------------------------
        BYTE   PATT
         POIN2  CombatDestinyCut_10_67
// 128   ----------------------------------------
        BYTE   PATT
         POIN2  CombatDestinyCut_10_68
// 129   ----------------------------------------
        BYTE           N24     Fs2   v096
        BYTE           N24     Cn1
        BYTE   W12
        BYTE           N36     An2
        BYTE           N18     Dn1
        BYTE   W12
        BYTE           N24     Fs2
        BYTE           N18     Cn1
        BYTE   W06
        BYTE                   Dn1
        BYTE   W12
        BYTE                   Cn1
        BYTE   W06
        BYTE           TIE     An2
        BYTE           N24     Dn1
        BYTE   W12
        BYTE           TIE     Cn1
        BYTE   W12
        BYTE           EOT     As1
        BYTE           TIE     As1   v074
        BYTE           N06     Dn1   v096
        BYTE   W06
        BYTE                   Dn1
        BYTE   W06
        BYTE           TIE
        BYTE   W12
// 130   ----------------------------------------
        BYTE           EOT     Gn2
        BYTE   W24
        BYTE                   Gs1
        BYTE           N24     Gs1   v074
        BYTE   W24
        BYTE                   Gs1
        BYTE   W24
        BYTE                   Gs1
        BYTE   W24
// 131   ----------------------------------------
        BYTE   PATT
         POIN2  CombatDestinyCut_10_71
// 132   ----------------------------------------
        BYTE   PATT
         POIN2  CombatDestinyCut_10_72
// 133   ----------------------------------------
        BYTE           N24     Gs1   v074
        BYTE   W24
        BYTE                   Gs1
        BYTE   W24
        BYTE           N72
        BYTE   W24
        BYTE           EOT     As1
        BYTE           TIE
        BYTE   W24
// 134   ----------------------------------------
        BYTE   W24
        BYTE           N12     Gs1
        BYTE   W12
        BYTE           N06
        BYTE   W06
        BYTE                   Gs1
        BYTE   W06
        BYTE           N24
        BYTE   W24
        BYTE                   Gs1
        BYTE   W24
// 135   ----------------------------------------
        BYTE   PATT
         POIN2  CombatDestinyCut_10_75
// 136   ----------------------------------------
        BYTE           EOT     As1
        BYTE           TIE     As1   v074
        BYTE   W24
        BYTE           N24     Gs1
        BYTE   W24
        BYTE                   Gs1
        BYTE   W24
        BYTE           N48
        BYTE   W24
// 137   ----------------------------------------
        BYTE   PATT
         POIN2  CombatDestinyCut_10_76
// 138   ----------------------------------------
        BYTE           N24     Gs1   v074
        BYTE   W24
        BYTE                   Gs1
        BYTE   W24
        BYTE                   Gs1
        BYTE   W48
// 139   ----------------------------------------
        BYTE           EOT     As1
        BYTE           N24
        BYTE   W48
        BYTE           EOT     Dn1
        BYTE                   Cn1
        BYTE           N12     Dn1   v096
        BYTE           N48     Cn1   v106
        BYTE   W06
        BYTE           N12     En1   v080
        BYTE   W06
        BYTE                   Dn1   v096
        BYTE   W06
        BYTE                   En1   v080
        BYTE   W06
        BYTE                   Dn1   v096
        BYTE   W06
        BYTE                   En1   v080
        BYTE   W06
        BYTE                   Dn1   v096
        BYTE   W06
        BYTE           N06     En1   v080
        BYTE   W06
// 140   ----------------------------------------
        BYTE           EOT     An2
        BYTE   GoTo
         POIN2  CombatDestinyCut_10_LOOP
        BYTE   FINE

//***************** Track 11 (Midi-Chn.15) *****************//

CombatDestinyCut_11:
        BYTE   KEYSH   CombatDestinyCut_key+0
// 000   ----------------------------------------
        BYTE           VOICE   0
        BYTE           PAN     c_v-4
        BYTE           VOL     28
        BYTE           BENDR   12
        BYTE           N11     Cn4   v080
        BYTE   W12
        BYTE                   An3
        BYTE   W12
        BYTE                   Dn4
        BYTE   W12
        BYTE           N05     An3
        BYTE   W06
        BYTE           N11     En4
        BYTE   W12
        BYTE           N05     An3
        BYTE   W06
        BYTE                   Dn4
        BYTE   W06
        BYTE                   An3
        BYTE   W06
        BYTE                   Cn4
        BYTE   W06
        BYTE                   An3
        BYTE   W06
        BYTE                   Dn4
        BYTE   W06
        BYTE                   An3
        BYTE   W06
// 001   ----------------------------------------
CombatDestinyCut_11_1:
        BYTE           N11     Cn4   v080
        BYTE   W12
        BYTE                   An3
        BYTE   W12
        BYTE                   Dn4
        BYTE   W12
        BYTE           N05     An3
        BYTE   W06
        BYTE           N11     En4
        BYTE   W12
        BYTE           N05     An3
        BYTE   W06
        BYTE                   Dn4
        BYTE   W06
        BYTE                   An3
        BYTE   W06
        BYTE                   Cn4
        BYTE   W06
        BYTE                   An3
        BYTE   W06
        BYTE                   Dn4
        BYTE   W06
        BYTE                   An3
        BYTE   W06
        BYTE   PEND
// 002   ----------------------------------------
CombatDestinyCut_11_2:
        BYTE           N11     An1   v080
        BYTE           N11     Cn4
        BYTE   W12
        BYTE                   En2
        BYTE           N11     An3
        BYTE   W12
        BYTE           TIE     Cn3
        BYTE           N11     Dn4
        BYTE   W12
        BYTE           N05     An3
        BYTE   W06
        BYTE           N11     En4
        BYTE   W12
        BYTE           N05     An3
        BYTE   W06
        BYTE                   Dn4
        BYTE   W06
        BYTE                   An3
        BYTE   W06
        BYTE                   Cn4
        BYTE   W06
        BYTE                   An3
        BYTE   W06
        BYTE                   Dn4
        BYTE   W06
        BYTE                   An3
        BYTE   W06
        BYTE   PEND
// 003   ----------------------------------------
CombatDestinyCut_11_3:
        BYTE           N11     Cn4   v080
        BYTE   W12
        BYTE                   An3
        BYTE   W12
        BYTE                   Dn4
        BYTE   W12
        BYTE           N05     An3
        BYTE   W06
        BYTE           N11     En4
        BYTE   W12
        BYTE           N05     An3
        BYTE   W06
        BYTE                   Dn4
        BYTE   W06
        BYTE                   An3
        BYTE   W06
        BYTE                   Cn4
        BYTE   W06
        BYTE                   An3
        BYTE   W06
        BYTE                   Dn4
        BYTE   W03
        BYTE           EOT     Cn3
        BYTE   W03
        BYTE           N05     An3
        BYTE   W06
        BYTE   PEND
// 004   ----------------------------------------
CombatDestinyCut_11_4:
        BYTE           N11     Fn1   v080
        BYTE           N11     Cn4
        BYTE   W12
        BYTE                   Cn2
        BYTE           N11     An3
        BYTE   W12
        BYTE           TIE     An2
        BYTE           N11     Dn4
        BYTE   W12
        BYTE           N05     An3
        BYTE   W06
        BYTE           N11     En4
        BYTE   W12
        BYTE           N05     An3
        BYTE   W06
        BYTE                   Dn4
        BYTE   W06
        BYTE                   An3
        BYTE   W06
        BYTE                   Cn4
        BYTE   W06
        BYTE                   An3
        BYTE   W06
        BYTE                   Dn4
        BYTE   W06
        BYTE                   An3
        BYTE   W06
        BYTE   PEND
// 005   ----------------------------------------
CombatDestinyCut_11_5:
        BYTE           N11     Cn4   v080
        BYTE   W12
        BYTE                   An3
        BYTE   W12
        BYTE                   Dn4
        BYTE   W12
        BYTE           N05     An3
        BYTE   W06
        BYTE           N11     En4
        BYTE   W12
        BYTE           N05     An3
        BYTE   W06
        BYTE                   Dn4
        BYTE   W06
        BYTE                   An3
        BYTE   W06
        BYTE                   Cn4
        BYTE   W06
        BYTE                   An3
        BYTE   W06
        BYTE                   Dn4
        BYTE   W03
        BYTE           EOT     An2
        BYTE   W03
        BYTE           N05     An3
        BYTE   W06
        BYTE   PEND
// 006   ----------------------------------------
CombatDestinyCut_11_6:
        BYTE           N11     Dn1   v080
        BYTE           N11     Cn4
        BYTE   W12
        BYTE                   An1
        BYTE           N11     An3
        BYTE   W12
        BYTE           TIE     Fn2
        BYTE           N11     Dn4
        BYTE   W12
        BYTE           N05     An3
        BYTE   W06
        BYTE           N11     En4
        BYTE   W12
        BYTE           N05     An3
        BYTE   W06
        BYTE                   Dn4
        BYTE   W06
        BYTE                   An3
        BYTE   W06
        BYTE                   Cn4
        BYTE   W06
        BYTE                   An3
        BYTE   W06
        BYTE                   Dn4
        BYTE   W06
        BYTE                   An3
        BYTE   W06
        BYTE   PEND
// 007   ----------------------------------------
CombatDestinyCut_11_7:
        BYTE           N11     Cn4   v080
        BYTE   W12
        BYTE                   An3
        BYTE   W12
        BYTE                   Dn4
        BYTE   W12
        BYTE           N05     An3
        BYTE   W06
        BYTE           N11     En4
        BYTE   W12
        BYTE           N05     An3
        BYTE   W06
        BYTE                   Dn4
        BYTE   W06
        BYTE                   An3
        BYTE   W06
        BYTE                   Cn4
        BYTE   W06
        BYTE                   An3
        BYTE   W06
        BYTE                   Dn4
        BYTE   W03
        BYTE           EOT     Fn2
        BYTE   W03
        BYTE           N05     An3
        BYTE   W06
        BYTE   PEND
// 008   ----------------------------------------
CombatDestinyCut_11_8:
        BYTE           N11     En1   v080
        BYTE           N11     Cn4
        BYTE   W12
        BYTE                   Cn2
        BYTE           N11     An3
        BYTE   W12
        BYTE           TIE     En2
        BYTE           N11     Dn4
        BYTE   W12
        BYTE           N05     An3
        BYTE   W06
        BYTE           N11     En4
        BYTE   W12
        BYTE           N05     An3
        BYTE   W06
        BYTE                   Dn4
        BYTE   W06
        BYTE                   An3
        BYTE   W06
        BYTE                   Cn4
        BYTE   W06
        BYTE                   An3
        BYTE   W06
        BYTE                   Dn4
        BYTE   W06
        BYTE                   An3
        BYTE   W06
        BYTE   PEND
// 009   ----------------------------------------
CombatDestinyCut_11_9:
        BYTE           N11     Cn4   v080
        BYTE   W12
        BYTE                   An3
        BYTE   W12
        BYTE                   Dn4
        BYTE   W12
        BYTE           N05     An3
        BYTE   W06
        BYTE           N11     En4
        BYTE   W12
        BYTE           N05     An3
        BYTE   W06
        BYTE                   Dn4
        BYTE   W06
        BYTE                   An3
        BYTE   W06
        BYTE                   Cn4
        BYTE   W06
        BYTE                   An3
        BYTE   W06
        BYTE                   Dn4
        BYTE   W03
        BYTE           EOT     En2
        BYTE   W03
        BYTE           N05     An3
        BYTE   W06
        BYTE   PEND
// 010   ----------------------------------------
        BYTE   PATT
         POIN2  CombatDestinyCut_11_2
// 011   ----------------------------------------
        BYTE   PATT
         POIN2  CombatDestinyCut_11_3
// 012   ----------------------------------------
        BYTE   PATT
         POIN2  CombatDestinyCut_11_4
// 013   ----------------------------------------
        BYTE   PATT
         POIN2  CombatDestinyCut_11_5
// 014   ----------------------------------------
        BYTE   PATT
         POIN2  CombatDestinyCut_11_6
// 015   ----------------------------------------
        BYTE   PATT
         POIN2  CombatDestinyCut_11_7
// 016   ----------------------------------------
        BYTE   PATT
         POIN2  CombatDestinyCut_11_8
// 017   ----------------------------------------
        BYTE   PATT
         POIN2  CombatDestinyCut_11_9
// 018   ----------------------------------------
        BYTE   PATT
         POIN2  CombatDestinyCut_11_1
// 019   ----------------------------------------
        BYTE   PATT
         POIN2  CombatDestinyCut_11_1
// 020   ----------------------------------------
CombatDestinyCut_11_LOOP:
        BYTE           N92     En3   v080   gtp3
        BYTE           N11     Cn4
        BYTE   W12
        BYTE                   An3
        BYTE   W12
        BYTE                   Dn4
        BYTE   W12
        BYTE           N05     An3
        BYTE   W06
        BYTE           N11     En4
        BYTE   W12
        BYTE           N05     An3
        BYTE   W06
        BYTE                   Dn4
        BYTE   W06
        BYTE                   An3
        BYTE   W06
        BYTE                   Cn4
        BYTE   W06
        BYTE                   An3
        BYTE   W06
        BYTE                   Dn4
        BYTE   W06
        BYTE                   An3
        BYTE   W06
// 021   ----------------------------------------
CombatDestinyCut_11_21:
        BYTE           N92     En3   v080   gtp3
        BYTE           N11     Cn4
        BYTE   W12
        BYTE                   An3
        BYTE   W12
        BYTE                   Dn4
        BYTE   W12
        BYTE           N05     An3
        BYTE   W06
        BYTE           N11     En4
        BYTE   W12
        BYTE           N05     An3
        BYTE   W06
        BYTE                   Dn4
        BYTE   W06
        BYTE                   An3
        BYTE   W06
        BYTE                   Cn4
        BYTE   W06
        BYTE                   An3
        BYTE   W06
        BYTE                   Dn4
        BYTE   W06
        BYTE                   An3
        BYTE   W06
        BYTE   PEND
// 022   ----------------------------------------
CombatDestinyCut_11_22:
        BYTE           N92     Cn3   v080   gtp3
        BYTE           N11     Cn4
        BYTE   W12
        BYTE                   An3
        BYTE   W12
        BYTE                   Dn4
        BYTE   W12
        BYTE           N05     An3
        BYTE   W06
        BYTE           N11     En4
        BYTE   W12
        BYTE           N05     An3
        BYTE   W06
        BYTE                   Dn4
        BYTE   W06
        BYTE                   An3
        BYTE   W06
        BYTE                   Cn4
        BYTE   W06
        BYTE                   An3
        BYTE   W06
        BYTE                   Dn4
        BYTE   W06
        BYTE                   An3
        BYTE   W06
        BYTE   PEND
// 023   ----------------------------------------
        BYTE   PATT
         POIN2  CombatDestinyCut_11_22
// 024   ----------------------------------------
CombatDestinyCut_11_24:
        BYTE           N92     An2   v080   gtp3
        BYTE           N11     Cn4
        BYTE   W12
        BYTE                   An3
        BYTE   W12
        BYTE                   Dn4
        BYTE   W12
        BYTE           N05     An3
        BYTE   W06
        BYTE           N11     En4
        BYTE   W12
        BYTE           N05     An3
        BYTE   W06
        BYTE                   Dn4
        BYTE   W06
        BYTE                   An3
        BYTE   W06
        BYTE                   Cn4
        BYTE   W06
        BYTE                   An3
        BYTE   W06
        BYTE                   Dn4
        BYTE   W06
        BYTE                   An3
        BYTE   W06
        BYTE   PEND
// 025   ----------------------------------------
CombatDestinyCut_11_25:
        BYTE           N68     An2   v080   gtp3
        BYTE           N11     Cn4
        BYTE   W12
        BYTE                   An3
        BYTE   W12
        BYTE                   Dn4
        BYTE   W12
        BYTE           N05     An3
        BYTE   W06
        BYTE           N11     En4
        BYTE   W12
        BYTE           N05     An3
        BYTE   W06
        BYTE                   Dn4
        BYTE   W06
        BYTE                   An3
        BYTE   W06
        BYTE           N23     An2
        BYTE           N05     Cn4
        BYTE   W06
        BYTE                   An3
        BYTE   W06
        BYTE                   Dn4
        BYTE   W06
        BYTE                   An3
        BYTE   W06
        BYTE   PEND
// 026   ----------------------------------------
CombatDestinyCut_11_26:
        BYTE           N92     Bn2   v080   gtp3
        BYTE           N11     Cn4
        BYTE   W12
        BYTE                   An3
        BYTE   W12
        BYTE                   Dn4
        BYTE   W12
        BYTE           N05     An3
        BYTE   W06
        BYTE           N11     En4
        BYTE   W12
        BYTE           N05     An3
        BYTE   W06
        BYTE                   Dn4
        BYTE   W06
        BYTE                   An3
        BYTE   W06
        BYTE                   Cn4
        BYTE   W06
        BYTE                   An3
        BYTE   W06
        BYTE                   Dn4
        BYTE   W06
        BYTE                   An3
        BYTE   W06
        BYTE   PEND
// 027   ----------------------------------------
        BYTE           N32     Bn2   v080   gtp3
        BYTE           N11     Cn4
        BYTE   W12
        BYTE                   An3
        BYTE   W12
        BYTE                   Dn4
        BYTE   W12
        BYTE           N05     An3
        BYTE   W06
        BYTE           N52     Bn2   v080   gtp1
        BYTE           N11     En4
        BYTE   W12
        BYTE           N05     An3
        BYTE   W06
        BYTE                   Dn4
        BYTE   W06
        BYTE                   An3
        BYTE   W06
        BYTE                   Cn4
        BYTE   W06
        BYTE                   An3
        BYTE   W06
        BYTE                   Dn4
        BYTE   W06
        BYTE                   An3
        BYTE   W06
// 028   ----------------------------------------
        BYTE   PATT
         POIN2  CombatDestinyCut_11_21
// 029   ----------------------------------------
        BYTE   PATT
         POIN2  CombatDestinyCut_11_21
// 030   ----------------------------------------
        BYTE   PATT
         POIN2  CombatDestinyCut_11_22
// 031   ----------------------------------------
        BYTE   PATT
         POIN2  CombatDestinyCut_11_22
// 032   ----------------------------------------
        BYTE   PATT
         POIN2  CombatDestinyCut_11_24
// 033   ----------------------------------------
        BYTE   PATT
         POIN2  CombatDestinyCut_11_25
// 034   ----------------------------------------
        BYTE   PATT
         POIN2  CombatDestinyCut_11_26
// 035   ----------------------------------------
        BYTE   PATT
         POIN2  CombatDestinyCut_11_26
// 036   ----------------------------------------
        BYTE           N92     An3   v080   gtp3
        BYTE   W96
// 037   ----------------------------------------
        BYTE   W96
// 038   ----------------------------------------
        BYTE   W96
// 039   ----------------------------------------
        BYTE   W96
// 040   ----------------------------------------
        BYTE   W96
// 041   ----------------------------------------
        BYTE   W96
// 042   ----------------------------------------
        BYTE   W96
// 043   ----------------------------------------
        BYTE   W48
        BYTE           N07     En4
        BYTE   W08
        BYTE                   An3
        BYTE   W08
        BYTE                   En4
        BYTE   W08
        BYTE                   An3
        BYTE   W08
        BYTE                   En4
        BYTE   W08
        BYTE                   An3
        BYTE   W08
// 044   ----------------------------------------
        BYTE   W12
        BYTE           N80     En4   v080   gtp3
        BYTE   W84
// 045   ----------------------------------------
        BYTE   W96
// 046   ----------------------------------------
        BYTE   W96
// 047   ----------------------------------------
        BYTE   W96
// 048   ----------------------------------------
        BYTE   W96
// 049   ----------------------------------------
        BYTE   W96
// 050   ----------------------------------------
        BYTE           N92     Bn2   v080   gtp3
        BYTE                   En3
        BYTE           N92     Bn3   v080   gtp3
        BYTE   W96
// 051   ----------------------------------------
        BYTE   W96
// 052   ----------------------------------------
        BYTE                   Cn3
        BYTE           N92     En3   v080   gtp3
        BYTE                   An3
        BYTE   W96
// 053   ----------------------------------------
        BYTE   W96
// 054   ----------------------------------------
        BYTE   W96
// 055   ----------------------------------------
        BYTE   W96
// 056   ----------------------------------------
        BYTE   W96
// 057   ----------------------------------------
        BYTE   W96
// 058   ----------------------------------------
        BYTE   W96
// 059   ----------------------------------------
        BYTE           N11
        BYTE   W12
        BYTE           N23     Gs3
        BYTE   W24
        BYTE                   Dn3
        BYTE   W24
        BYTE           N11     Cn3
        BYTE   W12
        BYTE                   En3
        BYTE   W12
        BYTE           TIE     Cn3
        BYTE   W12
// 060   ----------------------------------------
        BYTE   W92
        BYTE   W03
        BYTE           EOT
        BYTE   W01
// 061   ----------------------------------------
        BYTE   W96
// 062   ----------------------------------------
        BYTE   W96
// 063   ----------------------------------------
        BYTE   W96
// 064   ----------------------------------------
        BYTE   W96
// 065   ----------------------------------------
        BYTE   W96
// 066   ----------------------------------------
        BYTE   W96
// 067   ----------------------------------------
        BYTE   W96
// 068   ----------------------------------------
        BYTE           N92     Dn4   v080   gtp3
        BYTE   W96
// 069   ----------------------------------------
        BYTE                   Bn3
        BYTE   W96
// 070   ----------------------------------------
        BYTE           N11     An1
        BYTE           N12     An3
        BYTE           N11     Cn4
        BYTE   W12
        BYTE                   En2
        BYTE           N11     An3
        BYTE   W12
        BYTE           TIE     Cn3
        BYTE           N11     Dn4
        BYTE   W12
        BYTE           N05     An3
        BYTE   W06
        BYTE           N11     En4
        BYTE   W12
        BYTE           N05     An3
        BYTE   W06
        BYTE                   Dn4
        BYTE   W06
        BYTE                   An3
        BYTE   W06
        BYTE                   Cn4
        BYTE   W06
        BYTE                   An3
        BYTE   W06
        BYTE                   Dn4
        BYTE   W06
        BYTE                   An3
        BYTE   W06
// 071   ----------------------------------------
        BYTE   PATT
         POIN2  CombatDestinyCut_11_3
// 072   ----------------------------------------
        BYTE   PATT
         POIN2  CombatDestinyCut_11_4
// 073   ----------------------------------------
        BYTE   PATT
         POIN2  CombatDestinyCut_11_5
// 074   ----------------------------------------
        BYTE   PATT
         POIN2  CombatDestinyCut_11_6
// 075   ----------------------------------------
        BYTE   PATT
         POIN2  CombatDestinyCut_11_7
// 076   ----------------------------------------
        BYTE   PATT
         POIN2  CombatDestinyCut_11_8
// 077   ----------------------------------------
        BYTE   PATT
         POIN2  CombatDestinyCut_11_9
// 078   ----------------------------------------
        BYTE   PATT
         POIN2  CombatDestinyCut_11_1
// 079   ----------------------------------------
        BYTE   PATT
         POIN2  CombatDestinyCut_11_1
// 080   ----------------------------------------
        BYTE   W96
// 081   ----------------------------------------
        BYTE   W96
// 082   ----------------------------------------
        BYTE   W96
// 083   ----------------------------------------
        BYTE   W96
// 084   ----------------------------------------
        BYTE   W96
// 085   ----------------------------------------
        BYTE   W96
// 086   ----------------------------------------
        BYTE   W96
// 087   ----------------------------------------
        BYTE   W96
// 088   ----------------------------------------
        BYTE   W96
// 089   ----------------------------------------
        BYTE   W96
// 090   ----------------------------------------
        BYTE   W96
// 091   ----------------------------------------
        BYTE   W96
// 092   ----------------------------------------
        BYTE   W96
// 093   ----------------------------------------
        BYTE   W96
// 094   ----------------------------------------
        BYTE   W96
// 095   ----------------------------------------
        BYTE   W96
// 096   ----------------------------------------
        BYTE   W96
// 097   ----------------------------------------
        BYTE   W96
// 098   ----------------------------------------
        BYTE   W96
// 099   ----------------------------------------
        BYTE   W96
// 100   ----------------------------------------
        BYTE   W96
// 101   ----------------------------------------
        BYTE   W96
// 102   ----------------------------------------
        BYTE   W96
// 103   ----------------------------------------
        BYTE   W96
// 104   ----------------------------------------
        BYTE   W96
// 105   ----------------------------------------
        BYTE   W96
// 106   ----------------------------------------
        BYTE   W96
// 107   ----------------------------------------
        BYTE   W96
// 108   ----------------------------------------
        BYTE   W96
// 109   ----------------------------------------
        BYTE   W96
// 110   ----------------------------------------
        BYTE   W96
// 111   ----------------------------------------
        BYTE   W96
// 112   ----------------------------------------
        BYTE   W96
// 113   ----------------------------------------
        BYTE   W96
// 114   ----------------------------------------
        BYTE   W96
// 115   ----------------------------------------
        BYTE   W96
// 116   ----------------------------------------
        BYTE   W96
// 117   ----------------------------------------
        BYTE   W96
// 118   ----------------------------------------
        BYTE   W96
// 119   ----------------------------------------
        BYTE   W96
// 120   ----------------------------------------
        BYTE   W96
// 121   ----------------------------------------
        BYTE   W96
// 122   ----------------------------------------
        BYTE   W96
// 123   ----------------------------------------
        BYTE   W96
// 124   ----------------------------------------
        BYTE   W96
// 125   ----------------------------------------
        BYTE   W96
// 126   ----------------------------------------
        BYTE   W96
// 127   ----------------------------------------
        BYTE   W96
// 128   ----------------------------------------
        BYTE   W96
// 129   ----------------------------------------
        BYTE   W96
// 130   ----------------------------------------
        BYTE           N11     An1   v096
        BYTE           N11     Cn4
        BYTE   W12
        BYTE                   En2
        BYTE           N11     An3
        BYTE   W12
        BYTE           TIE     Cn3
        BYTE           N11     Dn4
        BYTE   W12
        BYTE           N05     An3
        BYTE   W06
        BYTE           N11     En4
        BYTE   W12
        BYTE           N05     An3
        BYTE   W06
        BYTE                   Dn4
        BYTE   W06
        BYTE                   An3
        BYTE   W06
        BYTE                   Cn4
        BYTE   W06
        BYTE                   An3
        BYTE   W06
        BYTE                   Dn4
        BYTE   W06
        BYTE                   An3
        BYTE   W06
// 131   ----------------------------------------
        BYTE           N11     Cn4
        BYTE   W12
        BYTE                   An3
        BYTE   W12
        BYTE                   Dn4
        BYTE   W12
        BYTE           N05     An3
        BYTE   W06
        BYTE           N11     En4
        BYTE   W12
        BYTE           N05     An3
        BYTE   W06
        BYTE                   Dn4
        BYTE   W06
        BYTE                   An3
        BYTE   W06
        BYTE                   Cn4
        BYTE   W06
        BYTE                   An3
        BYTE   W06
        BYTE                   Dn4
        BYTE   W03
        BYTE           EOT     Cn3
        BYTE   W03
        BYTE           N05     An3
        BYTE   W06
// 132   ----------------------------------------
        BYTE           N11     Fn1
        BYTE           N11     Cn4
        BYTE   W12
        BYTE                   Cn2
        BYTE           N11     An3
        BYTE   W12
        BYTE           TIE     An2
        BYTE           N11     Dn4
        BYTE   W12
        BYTE           N05     An3
        BYTE   W06
        BYTE           N11     En4
        BYTE   W12
        BYTE           N05     An3
        BYTE   W06
        BYTE                   Dn4
        BYTE   W06
        BYTE                   An3
        BYTE   W06
        BYTE                   Cn4
        BYTE   W06
        BYTE                   An3
        BYTE   W06
        BYTE                   Dn4
        BYTE   W06
        BYTE                   An3
        BYTE   W06
// 133   ----------------------------------------
        BYTE           N11     Cn4
        BYTE   W12
        BYTE                   An3
        BYTE   W12
        BYTE                   Dn4
        BYTE   W12
        BYTE           N05     An3
        BYTE   W06
        BYTE           N11     En4
        BYTE   W12
        BYTE           N05     An3
        BYTE   W06
        BYTE                   Dn4
        BYTE   W06
        BYTE                   An3
        BYTE   W06
        BYTE                   Cn4
        BYTE   W06
        BYTE                   An3
        BYTE   W06
        BYTE                   Dn4
        BYTE   W03
        BYTE           EOT     An2
        BYTE   W03
        BYTE           N05     An3
        BYTE   W06
// 134   ----------------------------------------
        BYTE           N11     Dn1
        BYTE           N11     Cn4
        BYTE   W12
        BYTE                   An1
        BYTE           N11     An3
        BYTE   W12
        BYTE           TIE     Fn2
        BYTE           N11     Dn4
        BYTE   W12
        BYTE           N05     An3
        BYTE   W06
        BYTE           N11     En4
        BYTE   W12
        BYTE           N05     An3
        BYTE   W06
        BYTE                   Dn4
        BYTE   W06
        BYTE                   An3
        BYTE   W06
        BYTE                   Cn4
        BYTE   W06
        BYTE                   An3
        BYTE   W06
        BYTE                   Dn4
        BYTE   W06
        BYTE                   An3
        BYTE   W06
// 135   ----------------------------------------
        BYTE           N11     Cn4
        BYTE   W12
        BYTE                   An3
        BYTE   W12
        BYTE                   Dn4
        BYTE   W12
        BYTE           N05     An3
        BYTE   W06
        BYTE           N11     En4
        BYTE   W12
        BYTE           N05     An3
        BYTE   W06
        BYTE                   Dn4
        BYTE   W06
        BYTE                   An3
        BYTE   W06
        BYTE                   Cn4
        BYTE   W06
        BYTE                   An3
        BYTE   W06
        BYTE                   Dn4
        BYTE   W03
        BYTE           EOT     Fn2
        BYTE   W03
        BYTE           N05     An3
        BYTE   W06
// 136   ----------------------------------------
        BYTE           N11     En1
        BYTE           N11     Cn4
        BYTE   W12
        BYTE                   Cn2
        BYTE           N11     An3
        BYTE   W12
        BYTE           TIE     En2
        BYTE           N11     Dn4
        BYTE   W12
        BYTE           N05     An3
        BYTE   W06
        BYTE           N11     En4
        BYTE   W12
        BYTE           N05     An3
        BYTE   W06
        BYTE                   Dn4
        BYTE   W06
        BYTE                   An3
        BYTE   W06
        BYTE                   Cn4
        BYTE   W06
        BYTE                   An3
        BYTE   W06
        BYTE                   Dn4
        BYTE   W06
        BYTE                   An3
        BYTE   W06
// 137   ----------------------------------------
        BYTE           N11     Cn4
        BYTE   W12
        BYTE                   An3
        BYTE   W12
        BYTE                   Dn4
        BYTE   W12
        BYTE           N05     An3
        BYTE   W06
        BYTE           N11     En4
        BYTE   W12
        BYTE           N05     An3
        BYTE   W06
        BYTE                   Dn4
        BYTE   W06
        BYTE                   An3
        BYTE   W06
        BYTE                   Cn4
        BYTE   W06
        BYTE                   An3
        BYTE   W06
        BYTE                   Dn4
        BYTE   W03
        BYTE           EOT     En2
        BYTE   W03
        BYTE           N05     An3
        BYTE   W06
// 138   ----------------------------------------
CombatDestinyCut_11_138:
        BYTE           N11     Cn4   v096
        BYTE   W12
        BYTE                   An3
        BYTE   W12
        BYTE                   Dn4
        BYTE   W12
        BYTE           N05     An3
        BYTE   W06
        BYTE           N11     En4
        BYTE   W12
        BYTE           N05     An3
        BYTE   W06
        BYTE                   Dn4
        BYTE   W06
        BYTE                   An3
        BYTE   W06
        BYTE                   Cn4
        BYTE   W06
        BYTE                   An3
        BYTE   W06
        BYTE                   Dn4
        BYTE   W06
        BYTE                   An3
        BYTE   W06
        BYTE   PEND
// 139   ----------------------------------------
        BYTE   PATT
         POIN2  CombatDestinyCut_11_138
// 140   ----------------------------------------
        BYTE   GoTo
         POIN2  CombatDestinyCut_11_LOOP
        BYTE   FINE


//********************** End of Song ***********************//

        ALIGN  2
CombatDestinyCut:
        BYTE   12                      // Num Tracks
        BYTE   0                       // Unknown
        BYTE   CombatDestinyCut_pri    // Priority
        BYTE   CombatDestinyCut_rev    // Reverb

        POIN2   CombatDestinyCut_grp   

        POIN2   CombatDestinyCut_0
        POIN2   CombatDestinyCut_1
        POIN2   CombatDestinyCut_2
        POIN2   CombatDestinyCut_3
        POIN2   CombatDestinyCut_4
        POIN2   CombatDestinyCut_5
        POIN2   CombatDestinyCut_6
        POIN2   CombatDestinyCut_7
        POIN2   CombatDestinyCut_8
        POIN2   CombatDestinyCut_9
        POIN2   CombatDestinyCut_10
        POIN2   CombatDestinyCut_11

        
