//Event file generated from Sappy .s format.
	#include "MPlayDef.event"

	#define	song02EE_grp  voicegroup000
	#define	song02EE_pri  0
	#define	song02EE_rev  176
	#define	song02EE_mvl  127
	#define	song02EE_key  0
	#define	song02EE_tbs  1
	#define	song02EE_exg  0
	#define	song02EE_cmp  1

	// .rodata
	//	song02EE
	ALIGN 4


//**************** Track 1 (Midi-Chn.0) ****************//

song02EE_001:
//  #01 //000   ----------------------------------------
 BYTE   KEYSH   song02EE_key+0
 BYTE   TEMPO   138*song02EE_tbs/2
 BYTE   VOICE   124
 BYTE   MODT 0
 BYTE   LFOS 44
 BYTE   VOL   46*song02EE_mvl/mxv
 BYTE   W96
//  #01 //001   ----------------------------------------
 BYTE   W96
//  #01 //002   ----------------------------------------
 BYTE   W96
//  #01 //003   ----------------------------------------
 BYTE   W96
//  #01 //004   ----------------------------------------
 BYTE   W96
//  #01 //005   ----------------------------------------
 BYTE   W96
//  #01 //006   ----------------------------------------
 BYTE   W96
//  #01 //007   ----------------------------------------
 BYTE   W96
//  #01 //008   ----------------------------------------
 BYTE   W96
//  #01 //009   ----------------------------------------
 BYTE   W96
//  #01 //010   ----------------------------------------
 BYTE   W96
//  #01 //011   ----------------------------------------
 BYTE   W96
//  #01 //012   ----------------------------------------
 BYTE   W96
//  #01 //013   ----------------------------------------
 BYTE   W96
//  #01 //014   ----------------------------------------
 BYTE   W96
//  #01 //015   ----------------------------------------
 BYTE   W96
//  #01 //016   ----------------------------------------
 BYTE   W96
//  #01 //017   ----------------------------------------
 BYTE   W96
//  #01 //018   ----------------------------------------
 BYTE   N96  Dn0  v088
 BYTE   TIE  En2  v100
 BYTE   TIE  Fn2  v044
 BYTE   W96
//  #01 //019   ----------------------------------------
 BYTE   W24
 BYTE   EOT
 BYTE   W24
 BYTE   N06  Dn1  v080
 BYTE   W06
 BYTE   N06
 BYTE   W06
 BYTE   N06
 BYTE   W06
 BYTE   N06
 BYTE   W06
 BYTE   N06
 BYTE   W06
 BYTE   N06
 BYTE   W06
 BYTE   N06
 BYTE   W06
 BYTE   N18
 BYTE   W06
//  #01 //020   ----------------------------------------
Label_01A0E7C1:
 BYTE   N24  Cn1  v080
 BYTE   TIE  Cs2
 BYTE   W12
 BYTE   N24  Dn1
 BYTE   W12
 BYTE   N06  Cn1
 BYTE   N24  Ds2
 BYTE   W06
 BYTE   N12  Cn1
 BYTE   W06
 BYTE   N24  Dn1
 BYTE   W06
 BYTE   N12  Cn1
 BYTE   W06
 BYTE   N24  Ds2
 BYTE   W06
 BYTE   N18  Cn1
 BYTE   W06
 BYTE   N24  Dn1
 BYTE   W12
 BYTE   N06  Cn1
 BYTE   N24  Ds2
 BYTE   W06
 BYTE   N18  Cn1
 BYTE   W06
 BYTE   N24  Dn1
 BYTE   W12
 BYTE   PEND 
//  #01 //021   ----------------------------------------
Label_01A0E7ED:
 BYTE   N24  Cn1  v080
 BYTE   N24  Ds2
 BYTE   W12
 BYTE   Dn1
 BYTE   W12
 BYTE   N06  Cn1
 BYTE   N24  Ds2
 BYTE   W06
 BYTE   N12  Cn1
 BYTE   W06
 BYTE   N24  Dn1
 BYTE   W06
 BYTE   N12  Cn1
 BYTE   W06
 BYTE   N24  Ds2
 BYTE   W06
 BYTE   N18  Cn1
 BYTE   W06
 BYTE   N24  Dn1
 BYTE   W12
 BYTE   N06  Cn1
 BYTE   N24  Ds2
 BYTE   W06
 BYTE   N18  Cn1
 BYTE   W06
 BYTE   N24  Dn1
 BYTE   W12
 BYTE   PEND 
//  #01 //022   ----------------------------------------
 BYTE   EOT
 BYTE   En2
//  #01 //023   ----------------------------------------
 BYTE   PATT
  POIN2 Label_01A0E7ED
//  #01 //024   ----------------------------------------
 BYTE   N24  Cn1  v080
 BYTE   N24  Ds2
 BYTE   W12
 BYTE   Dn1
 BYTE   W12
 BYTE   N06  Cn1
 BYTE   N24  Ds2
 BYTE   W06
 BYTE   N12  Cn1
 BYTE   W06
 BYTE   N24  Dn1
 BYTE   W06
 BYTE   N12  Cn1
 BYTE   W06
 BYTE   N24  Ds2
 BYTE   W06
 BYTE   N18  Cn1
 BYTE   W06
 BYTE   N24  Dn1
 BYTE   N36  Gn2
 BYTE   W12
 BYTE   N24  Cn1
 BYTE   N48  Ds2
 BYTE   W12
 BYTE   N06  Dn1
 BYTE   W06
 BYTE   N18
 BYTE   W06
//  #01 //025   ----------------------------------------
Label_01A0E84A:
 BYTE   N24  Cn1  v080
 BYTE   TIE  Gn2
 BYTE   W12
 BYTE   N24  Dn1
 BYTE   W12
 BYTE   N06  Cn1
 BYTE   N24  Ds2
 BYTE   W06
 BYTE   N12  Cn1
 BYTE   W06
 BYTE   N24  Dn1
 BYTE   W06
 BYTE   N12  Cn1
 BYTE   W06
 BYTE   N24  Ds2
 BYTE   W06
 BYTE   N18  Cn1
 BYTE   W06
 BYTE   N24  Dn1
 BYTE   W12
 BYTE   N06  Cn1
 BYTE   N24  Ds2
 BYTE   W06
 BYTE   N18  Cn1
 BYTE   W06
 BYTE   N24  Dn1
 BYTE   W12
 BYTE   PEND 
//  #01 //026   ----------------------------------------
 BYTE   Cn1
 BYTE   N24  Ds2
 BYTE   W12
 BYTE   Dn1
 BYTE   W12
 BYTE   N06  Cn1
 BYTE   N24  Ds2
 BYTE   W06
 BYTE   N12  Cn1
 BYTE   W06
 BYTE   N24  Dn1
 BYTE   W06
 BYTE   N12  Cn1
 BYTE   W06
 BYTE   N24  Ds2
 BYTE   W06
 BYTE   N18  Cn1
 BYTE   W06
 BYTE   N24  Dn1
 BYTE   W12
 BYTE   Cn1
 BYTE   N24  Ds2
 BYTE   W12
 BYTE   Dn1
 BYTE   W12
//  #01 //027   ----------------------------------------
 BYTE   EOT
 BYTE   Gn2
 BYTE   N24  Cn1
 BYTE   N24  Ds2
 BYTE   TIE  Gn2
 BYTE   W12
 BYTE   N24  Dn1
 BYTE   W12
 BYTE   N06  Cn1
 BYTE   N24  Ds2
 BYTE   W06
 BYTE   N12  Cn1
 BYTE   W06
 BYTE   N24  Dn1
 BYTE   W06
 BYTE   N12  Cn1
 BYTE   W06
 BYTE   N24  Ds2
 BYTE   W06
 BYTE   N18  Cn1
 BYTE   W06
 BYTE   N24  Dn1
 BYTE   W12
 BYTE   N06  Cn1
 BYTE   N24  Ds2
 BYTE   W06
 BYTE   N18  Cn1
 BYTE   W06
 BYTE   N24  Dn1
 BYTE   W12
//  #01 //028   ----------------------------------------
 BYTE   Cn1
 BYTE   N24  Ds2
 BYTE   W12
 BYTE   EOT
 BYTE   Gn2
 BYTE   N18  Dn1
 BYTE   N36  Gn2
 BYTE   W12
 BYTE   N18  Cn1
 BYTE   N24  Ds2
 BYTE   W06
 BYTE   N18  Dn1
 BYTE   W12
 BYTE   Cn1
 BYTE   W06
 BYTE   N24  Dn1
 BYTE   N24  Ds2
 BYTE   TIE  Gn2
 BYTE   W12
 BYTE   N36  Cn1
 BYTE   W12
 BYTE   N06  Dn1
 BYTE   N48  Ds2
 BYTE   W06
 BYTE   N06  Dn1
 BYTE   W06
 BYTE   N24
 BYTE   W12
//  #01 //029   ----------------------------------------
 BYTE   EOT
 BYTE   Cs2
//  #01 //030   ----------------------------------------
 BYTE   PATT
  POIN2 Label_01A0E7C1
//  #01 //031   ----------------------------------------
Label_01A0E8F7:
 BYTE   N24  Cn1  v080
 BYTE   N24  Ds2
 BYTE   W12
 BYTE   Dn1
 BYTE   W12
 BYTE   N06  Cn1
 BYTE   N24  Ds2
 BYTE   W06
 BYTE   N12  Cn1
 BYTE   W06
 BYTE   N24  Dn1
 BYTE   W06
 BYTE   N12  Cn1
 BYTE   W06
 BYTE   N24  Ds2
 BYTE   W06
 BYTE   N18  Cn1
 BYTE   W06
 BYTE   N24  Dn1
 BYTE   W12
 BYTE   N06  Cn1
 BYTE   N48  Ds2
 BYTE   W06
 BYTE   N18  Cn1
 BYTE   W06
 BYTE   N24  Dn1
 BYTE   W12
 BYTE   PEND 
//  #01 //032   ----------------------------------------
 BYTE   EOT
 BYTE   Gn2
//  #01 //033   ----------------------------------------
 BYTE   PATT
  POIN2 Label_01A0E84A
//  #01 //034   ----------------------------------------
 BYTE   PATT
  POIN2 Label_01A0E8F7
//  #01 //035   ----------------------------------------
 BYTE   EOT
 BYTE   Gn2
//  #01 //036   ----------------------------------------
 BYTE   PATT
  POIN2 Label_01A0E84A
//  #01 //037   ----------------------------------------
 BYTE   N24  Cn1  v080
 BYTE   N24  Ds2
 BYTE   W12
 BYTE   Dn1
 BYTE   W12
 BYTE   N06  Cn1
 BYTE   N24  Ds2
 BYTE   W06
 BYTE   N12  Cn1
 BYTE   W06
 BYTE   N24  Dn1
 BYTE   W06
 BYTE   N12  Cn1
 BYTE   W06
 BYTE   N24  Ds2
 BYTE   W06
 BYTE   N18  Cn1
 BYTE   W06
 BYTE   N24  Dn1
 BYTE   W12
 BYTE   Cn1
 BYTE   N48  Ds2
 BYTE   W12
 BYTE   N24  Dn1
 BYTE   W12
//  #01 //038   ----------------------------------------
 BYTE   EOT
 BYTE   Gn2
 BYTE   N24  Cn1
 BYTE   TIE  Gn2
 BYTE   W12
 BYTE   N24  Dn1
 BYTE   W12
 BYTE   N06  Cn1
 BYTE   N24  Ds2
 BYTE   W06
 BYTE   N12  Cn1
 BYTE   W06
 BYTE   N24  Dn1
 BYTE   W06
 BYTE   N12  Cn1
 BYTE   W06
 BYTE   N24  Ds2
 BYTE   W06
 BYTE   N18  Cn1
 BYTE   W06
 BYTE   N24  Dn1
 BYTE   W12
 BYTE   Cn1
 BYTE   N24  Ds2
 BYTE   W12
 BYTE   Dn1
 BYTE   W12
//  #01 //039   ----------------------------------------
 BYTE   Cn1
 BYTE   N24  Ds2
 BYTE   W12
 BYTE   EOT
 BYTE   Gn2
 BYTE   N18  Dn1
 BYTE   N36  Gn2
 BYTE   W12
 BYTE   N18  Cn1
 BYTE   N24  Ds2
 BYTE   W06
 BYTE   N18  Dn1
 BYTE   W12
 BYTE   Cn1
 BYTE   W06
 BYTE   N24  Dn1
 BYTE   N24  Ds2
 BYTE   TIE  Gn2
 BYTE   W12
 BYTE   N36  Cn1
 BYTE   W12
 BYTE   N06  Dn1
 BYTE   N48  Ds2
 BYTE   W06
 BYTE   N06  Dn1
 BYTE   W06
 BYTE   N24
 BYTE   W12
//  #01 //040   ----------------------------------------
 BYTE   EOT
 BYTE   Cs2
//  #01 //041   ----------------------------------------
 BYTE   PATT
  POIN2 Label_01A0E7C1
//  #01 //042   ----------------------------------------
 BYTE   PATT
  POIN2 Label_01A0E7ED
//  #01 //043   ----------------------------------------
 BYTE   PATT
  POIN2 Label_01A0E7ED
//  #01 //044   ----------------------------------------
 BYTE   PATT
  POIN2 Label_01A0E8F7
//  #01 //045   ----------------------------------------
 BYTE   EOT
 BYTE   Cs2
//  #01 //046   ----------------------------------------
 BYTE   PATT
  POIN2 Label_01A0E7C1
//  #01 //047   ----------------------------------------
 BYTE   PATT
  POIN2 Label_01A0E7ED
//  #01 //048   ----------------------------------------
 BYTE   PATT
  POIN2 Label_01A0E7ED
//  #01 //049   ----------------------------------------
 BYTE   N24  Cn1  v080
 BYTE   N24  Ds2
 BYTE   W12
 BYTE   Dn1
 BYTE   W12
 BYTE   N06  Cn1
 BYTE   N24  Ds2
 BYTE   W06
 BYTE   N12  Cn1
 BYTE   W06
 BYTE   N24  Dn1
 BYTE   W06
 BYTE   N12  Cn1
 BYTE   W06
 BYTE   N24  Ds2
 BYTE   W06
 BYTE   N18  Cn1
 BYTE   W06
 BYTE   EOT
 BYTE   Gn2
 BYTE   N24  Dn1
 BYTE   TIE  Gn2
 BYTE   W12
 BYTE   N24  Cn1
 BYTE   N24  Ds2
 BYTE   W12
 BYTE   N06  Dn1
 BYTE   W06
 BYTE   N18
 BYTE   W06
//  #01 //050   ----------------------------------------
 BYTE   PATT
  POIN2 Label_01A0E7ED
//  #01 //051   ----------------------------------------
 BYTE   PATT
  POIN2 Label_01A0E7ED
//  #01 //052   ----------------------------------------
 BYTE   PATT
  POIN2 Label_01A0E7ED
//  #01 //053   ----------------------------------------
 BYTE   PATT
  POIN2 Label_01A0E7ED
//  #01 //054   ----------------------------------------
 BYTE   PATT
  POIN2 Label_01A0E7ED
//  #01 //055   ----------------------------------------
 BYTE   PATT
  POIN2 Label_01A0E7ED
//  #01 //056   ----------------------------------------
 BYTE   PATT
  POIN2 Label_01A0E7ED
//  #01 //057   ----------------------------------------
 BYTE   N24  Cn1  v080
 BYTE   N24  Ds2
 BYTE   W12
 BYTE   Dn1
 BYTE   W12
 BYTE   N06  Cn1
 BYTE   N24  Ds2
 BYTE   W06
 BYTE   N12  Cn1
 BYTE   W06
 BYTE   N24  Dn1
 BYTE   W06
 BYTE   N12  Cn1
 BYTE   W06
 BYTE   N24  Ds2
 BYTE   W06
 BYTE   N18  Cn1
 BYTE   W06
 BYTE   N24  Dn1
 BYTE   W12
 BYTE   N06  Cn1
 BYTE   TIE  Ds2
 BYTE   W06
 BYTE   N18  Cn1
 BYTE   W06
 BYTE   N24  Dn1
 BYTE   W12
//  #01 //058   ----------------------------------------
Label_01A0EA4C:
 BYTE   N24  Cn1  v080
 BYTE   N24  Fs2  v060
 BYTE   TIE  An2  v080
 BYTE   W12
 BYTE   N24  Dn1
 BYTE   W12
 BYTE   N06  Cn1
 BYTE   N24  Fs2
 BYTE   W06
 BYTE   N12  Cn1
 BYTE   W06
 BYTE   N24  Dn1
 BYTE   W06
 BYTE   N12  Cn1
 BYTE   W06
 BYTE   N24  Fs2
 BYTE   W06
 BYTE   N18  Cn1
 BYTE   W06
 BYTE   N24  Dn1
 BYTE   W12
 BYTE   Cn1
 BYTE   N24  Fs2
 BYTE   W12
 BYTE   Dn1
 BYTE   W12
 BYTE   PEND 
//  #01 //059   ----------------------------------------
Label_01A0EA77:
 BYTE   N24  Cn1  v080
 BYTE   N24  Fs2
 BYTE   W12
 BYTE   Dn1
 BYTE   W12
 BYTE   N06  Cn1
 BYTE   N24  Fs2
 BYTE   W06
 BYTE   N12  Cn1
 BYTE   W06
 BYTE   N24  Dn1
 BYTE   W06
 BYTE   N12  Cn1
 BYTE   W06
 BYTE   N24  Fs2
 BYTE   W06
 BYTE   N18  Cn1
 BYTE   W06
 BYTE   N24  Dn1
 BYTE   W12
 BYTE   Cn1
 BYTE   N24  Fs2
 BYTE   W12
 BYTE   Dn1
 BYTE   W12
 BYTE   PEND 
//  #01 //060   ----------------------------------------
 BYTE   PATT
  POIN2 Label_01A0EA77
//  #01 //061   ----------------------------------------
 BYTE   PATT
  POIN2 Label_01A0EA77
//  #01 //062   ----------------------------------------
 BYTE   EOT
 BYTE   An2
//  #01 //063   ----------------------------------------
 BYTE   PATT
  POIN2 Label_01A0EA4C
//  #01 //064   ----------------------------------------
Label_01A0EAAE:
 BYTE   N24  Cn1  v080
 BYTE   N24  Fs2
 BYTE   W12
 BYTE   Dn1
 BYTE   W12
 BYTE   N18  Cn1
 BYTE   N24  Fs2
 BYTE   W12
 BYTE   Dn1
 BYTE   W06
 BYTE   N12  Cn1
 BYTE   W06
 BYTE   N24  Fs2
 BYTE   W06
 BYTE   N18  Cn1
 BYTE   W06
 BYTE   N24  Dn1
 BYTE   W12
 BYTE   Cn1
 BYTE   N24  Fs2
 BYTE   W12
 BYTE   Dn1
 BYTE   W12
 BYTE   PEND 
//  #01 //065   ----------------------------------------
 BYTE   PATT
  POIN2 Label_01A0EAAE
//  #01 //066   ----------------------------------------
 BYTE   PATT
  POIN2 Label_01A0EAAE
//  #01 //067   ----------------------------------------
 BYTE   EOT
 BYTE   An2
Label_01A0EADC:
 BYTE   N24  Cn1  v080
 BYTE   N24  Fs2  v060
 BYTE   TIE  An2  v080
 BYTE   W12
 BYTE   N24  Dn1
 BYTE   W12
 BYTE   N18  Cn1
 BYTE   N24  Fs2
 BYTE   W12
 BYTE   Dn1
 BYTE   W06
 BYTE   N12  Cn1
 BYTE   W06
 BYTE   N24  Fs2
 BYTE   W06
 BYTE   N18  Cn1
 BYTE   W06
 BYTE   N24  Dn1
 BYTE   W12
 BYTE   Cn1
 BYTE   N24  Fs2
 BYTE   W12
 BYTE   Dn1
 BYTE   W12
 BYTE   PEND 
//  #01 //068   ----------------------------------------
 BYTE   PATT
  POIN2 Label_01A0EAAE
//  #01 //069   ----------------------------------------
 BYTE   PATT
  POIN2 Label_01A0EAAE
//  #01 //070   ----------------------------------------
 BYTE   PATT
  POIN2 Label_01A0EAAE
//  #01 //071   ----------------------------------------
Label_01A0EB12:
 BYTE   N24  Cn1  v080
 BYTE   N24  Fs2
 BYTE   W12
 BYTE   Dn1
 BYTE   W12
 BYTE   N30  Cn1
 BYTE   N24  Fs2
 BYTE   W12
 BYTE   Dn1
 BYTE   W12
 BYTE   Fs2
 BYTE   W06
 BYTE   N18  Cn1
 BYTE   W06
 BYTE   N24  Dn1
 BYTE   W12
 BYTE   Cn1
 BYTE   N24  Fs2
 BYTE   W12
 BYTE   Dn1
 BYTE   W12
 BYTE   PEND 
//  #01 //072   ----------------------------------------
 BYTE   PATT
  POIN2 Label_01A0EAAE
//  #01 //073   ----------------------------------------
 BYTE   PATT
  POIN2 Label_01A0EAAE
//  #01 //074   ----------------------------------------
 BYTE   N24  Cn1  v080
 BYTE   N24  Fs2
 BYTE   W12
 BYTE   EOT
 BYTE   An2
 BYTE   N18  Dn1
 BYTE   N36  An2
 BYTE   W12
 BYTE   N18  Cn1
 BYTE   N24  Fs2
 BYTE   W06
 BYTE   N18  Dn1
 BYTE   W12
 BYTE   Cn1
 BYTE   W06
 BYTE   N24  Dn1
 BYTE   N48  Fs2
 BYTE   N48  An2
 BYTE   W12
 BYTE   N36  Cn1
 BYTE   W12
 BYTE   N06  Dn1
 BYTE   W06
 BYTE   N06
 BYTE   W06
 BYTE   N24
 BYTE   W12
//  #01 //075   ----------------------------------------
Label_01A0EB62:
 BYTE   N24  Cn1  v080
 BYTE   N24  Fs2
 BYTE   N60  An2
 BYTE   W12
 BYTE   N24  Dn1
 BYTE   W12
 BYTE   N06  Cn1
 BYTE   N24  Fs2
 BYTE   W06
 BYTE   N12  Cn1
 BYTE   W06
 BYTE   N24  Dn1
 BYTE   W06
 BYTE   N12  Cn1
 BYTE   W06
 BYTE   N24  Fs2
 BYTE   W06
 BYTE   N18  Cn1
 BYTE   W06
 BYTE   N24  Dn1
 BYTE   N48  An2
 BYTE   W12
 BYTE   N06  Cn1
 BYTE   N24  Fs2
 BYTE   W06
 BYTE   N18  Cn1
 BYTE   W06
 BYTE   N24  Dn1
 BYTE   W12
 BYTE   PEND 
//  #01 //076   ----------------------------------------
 BYTE   Cn1
 BYTE   N24  Fs2
 BYTE   W12
 BYTE   N18  Dn1
 BYTE   N36  An2
 BYTE   W12
 BYTE   N18  Cn1
 BYTE   N24  Fs2
 BYTE   W06
 BYTE   N18  Dn1
 BYTE   W12
 BYTE   Cn1
 BYTE   W06
 BYTE   N24  Dn1
 BYTE   TIE  Fs2
 BYTE   TIE  An2
 BYTE   W12
 BYTE   Cn1
 BYTE   W12
 BYTE   N06  Dn1
 BYTE   TIE  As1  v052
 BYTE   W06
 BYTE   N06  Dn1  v080
 BYTE   W06
 BYTE   TIE
 BYTE   W12
//  #01 //077   ----------------------------------------
 BYTE   EOT
 BYTE   Gn2
 BYTE   TIE
 BYTE   W24
 BYTE   N24  Gs1  v052
 BYTE   W24
 BYTE   N24
 BYTE   W24
 BYTE   N24
 BYTE   W24
//  #01 //078   ----------------------------------------
Label_01A0EBC6:
 BYTE   N24  Gs1  v052
 BYTE   W24
 BYTE   N12
 BYTE   W12
 BYTE   N06
 BYTE   W06
 BYTE   N06
 BYTE   W06
 BYTE   N24
 BYTE   W24
 BYTE   N24
 BYTE   W24
 BYTE   PEND 
//  #01 //079   ----------------------------------------
Label_01A0EBD5:
 BYTE   N24  Gs1  v052
 BYTE   W24
 BYTE   N24
 BYTE   W24
 BYTE   N24
 BYTE   W24
 BYTE   N24
 BYTE   W24
 BYTE   PEND 
//  #01 //080   ----------------------------------------
 BYTE   PATT
  POIN2 Label_01A0EBD5
//  #01 //081   ----------------------------------------
 BYTE   PATT
  POIN2 Label_01A0EBC6
//  #01 //082   ----------------------------------------
Label_01A0EBEA:
 BYTE   N24  Gs1  v052
 BYTE   W24
 BYTE   N24
 BYTE   W24
 BYTE   N24
 BYTE   W24
 BYTE   N12
 BYTE   W12
 BYTE   N06
 BYTE   W06
 BYTE   N30
 BYTE   W06
 BYTE   PEND 
//  #01 //083   ----------------------------------------
Label_01A0EBF9:
 BYTE   W24
 BYTE   N24  Gs1  v052
 BYTE   W24
 BYTE   N24
 BYTE   W24
 BYTE   N24
 BYTE   W24
 BYTE   PEND 
//  #01 //084   ----------------------------------------
 BYTE   PATT
  POIN2 Label_01A0EBD5
//  #01 //085   ----------------------------------------
 BYTE   EOT
 BYTE   Cs2
 BYTE   N24  Gs1  v060
 BYTE   TIE  Cs2  v080
 BYTE   W24
 BYTE   N24  Gs1  v052
 BYTE   W24
 BYTE   N24
 BYTE   W24
 BYTE   TIE
 BYTE   W24
//  #01 //086   ----------------------------------------
 BYTE   W48
 BYTE   EOT
 BYTE   Dn1
 BYTE   N06  Dn1  v080
 BYTE   W06
 BYTE   N06
 BYTE   W06
 BYTE   N06
 BYTE   W06
 BYTE   N06
 BYTE   W06
 BYTE   N06
 BYTE   W06
 BYTE   N06
 BYTE   W06
 BYTE   EOT
 BYTE   Gs1
 BYTE   N06  Dn1
 BYTE   N24  Gs1  v052
 BYTE   W06
 BYTE   N18  Dn1  v080
 BYTE   W06
//  #01 //087   ----------------------------------------
 BYTE   EOT
 BYTE   Cn1  v049
Label_01A0EC39:
 BYTE   N24  Cn1  v080
 BYTE   TIE  Cs2
 BYTE   W12
 BYTE   N24  Dn1
 BYTE   N24  Gs1  v052
 BYTE   W12
 BYTE   N06  Cn1  v080
 BYTE   W06
 BYTE   N12
 BYTE   W06
 BYTE   N24  Dn1
 BYTE   N24  Gs1  v052
 BYTE   W06
 BYTE   N12  Cn1  v080
 BYTE   W12
 BYTE   N18
 BYTE   W06
 BYTE   N24  Dn1
 BYTE   N24  Gs1  v052
 BYTE   W12
 BYTE   N06  Cn1  v080
 BYTE   W06
 BYTE   N18
 BYTE   W06
 BYTE   N24  Dn1
 BYTE   N24  Gs1  v052
 BYTE   W12
 BYTE   PEND 
//  #01 //088   ----------------------------------------
Label_01A0EC6A:
 BYTE   N24  Cn1  v080
 BYTE   W12
 BYTE   Dn1
 BYTE   N24  Gs1  v052
 BYTE   W12
 BYTE   N06  Cn1  v080
 BYTE   W06
 BYTE   N12
 BYTE   W06
 BYTE   N24  Dn1
 BYTE   N24  Gs1  v052
 BYTE   W06
 BYTE   N12  Cn1  v080
 BYTE   W12
 BYTE   N18
 BYTE   W06
 BYTE   N24  Dn1
 BYTE   N24  Gs1  v052
 BYTE   W12
 BYTE   N06  Cn1  v080
 BYTE   W06
 BYTE   N18
 BYTE   W06
 BYTE   N24  Dn1
 BYTE   N24  Gs1  v052
 BYTE   W12
 BYTE   PEND 
//  #01 //089   ----------------------------------------
 BYTE   PATT
  POIN2 Label_01A0EC6A
//  #01 //090   ----------------------------------------
 BYTE   N24  Cn1  v080
 BYTE   W12
 BYTE   Dn1
 BYTE   N24  Gs1  v052
 BYTE   W12
 BYTE   N06  Cn1  v080
 BYTE   W06
 BYTE   N12
 BYTE   W06
 BYTE   N24  Dn1
 BYTE   N24  Gs1  v052
 BYTE   W06
 BYTE   N12  Cn1  v080
 BYTE   W12
 BYTE   N18
 BYTE   W06
 BYTE   EOT
 BYTE   An2
 BYTE   N24  Dn1
 BYTE   N24  Gs1  v052
 BYTE   N36  An2  v080
 BYTE   W12
 BYTE   N24  Cn1
 BYTE   W12
 BYTE   N06  Dn1
 BYTE   N24  Gs1  v052
 BYTE   W06
 BYTE   N18  Dn1  v080
 BYTE   W06
//  #01 //091   ----------------------------------------
Label_01A0ECD0:
 BYTE   N24  Cn1  v080
 BYTE   TIE  An2
 BYTE   W12
 BYTE   N24  Dn1
 BYTE   N24  Gs1  v052
 BYTE   W12
 BYTE   N06  Cn1  v080
 BYTE   W06
 BYTE   N12
 BYTE   W06
 BYTE   N24  Dn1
 BYTE   N24  Gs1  v052
 BYTE   W06
 BYTE   N12  Cn1  v080
 BYTE   W12
 BYTE   N18
 BYTE   W06
 BYTE   N24  Dn1
 BYTE   N24  Gs1  v052
 BYTE   W12
 BYTE   N06  Cn1  v080
 BYTE   W06
 BYTE   N18
 BYTE   W06
 BYTE   N24  Dn1
 BYTE   N24  Gs1  v052
 BYTE   W12
 BYTE   PEND 
//  #01 //092   ----------------------------------------
Label_01A0ED01:
 BYTE   N24  Cn1  v080
 BYTE   W12
 BYTE   Dn1
 BYTE   N24  Gs1  v052
 BYTE   W12
 BYTE   N06  Cn1  v080
 BYTE   W06
 BYTE   N12
 BYTE   W06
 BYTE   N24  Dn1
 BYTE   N24  Gs1  v052
 BYTE   W06
 BYTE   N12  Cn1  v080
 BYTE   W12
 BYTE   N18
 BYTE   W06
 BYTE   N24  Dn1
 BYTE   N24  Gs1  v052
 BYTE   W12
 BYTE   Cn1  v080
 BYTE   W12
 BYTE   Dn1
 BYTE   N24  Gs1  v052
 BYTE   W12
 BYTE   PEND 
//  #01 //093   ----------------------------------------
 BYTE   EOT
 BYTE   An2
//  #01 //094   ----------------------------------------
 BYTE   PATT
  POIN2 Label_01A0ECD0
//  #01 //095   ----------------------------------------
 BYTE   N24  Cn1  v080
 BYTE   W12
 BYTE   EOT
 BYTE   Cs2
 BYTE   N18  Dn1
 BYTE   N24  Gs1  v052
 BYTE   N36  Cs2  v080
 BYTE   W12
 BYTE   N18  Cn1
 BYTE   W06
 BYTE   Dn1
 BYTE   W06
 BYTE   N48  Gs1  v052
 BYTE   W06
 BYTE   N18  Cn1  v080
 BYTE   W06
 BYTE   N24  Dn1
 BYTE   N48  Cs2
 BYTE   W12
 BYTE   N36  Cn1
 BYTE   W12
 BYTE   N06  Dn1
 BYTE   W06
 BYTE   N06
 BYTE   W06
 BYTE   N24
 BYTE   N24  Gs1  v052
 BYTE   W12
//  #01 //096   ----------------------------------------
 BYTE   PATT
  POIN2 Label_01A0EC39
//  #01 //097   ----------------------------------------
 BYTE   PATT
  POIN2 Label_01A0EC6A
//  #01 //098   ----------------------------------------
 BYTE   EOT
 BYTE   An2
//  #01 //099   ----------------------------------------
 BYTE   PATT
  POIN2 Label_01A0ECD0
//  #01 //100   ----------------------------------------
 BYTE   PATT
  POIN2 Label_01A0EC6A
//  #01 //101   ----------------------------------------
 BYTE   EOT
 BYTE   An2
//  #01 //102   ----------------------------------------
 BYTE   PATT
  POIN2 Label_01A0ECD0
//  #01 //103   ----------------------------------------
 BYTE   PATT
  POIN2 Label_01A0ED01
//  #01 //104   ----------------------------------------
 BYTE   EOT
 BYTE   An2
 BYTE   N24  Cn1  v080
 BYTE   TIE  An2
 BYTE   W12
 BYTE   N24  Dn1
 BYTE   N24  Gs1  v052
 BYTE   W12
 BYTE   N06  Cn1  v080
 BYTE   W06
 BYTE   N12
 BYTE   W06
 BYTE   N24  Dn1
 BYTE   N24  Gs1  v052
 BYTE   W06
 BYTE   N12  Cn1  v080
 BYTE   W12
 BYTE   N18
 BYTE   W06
 BYTE   N24  Dn1
 BYTE   N24  Gs1  v052
 BYTE   W12
 BYTE   Cn1  v080
 BYTE   W12
 BYTE   Dn1
 BYTE   N24  Gs1  v052
 BYTE   W12
//  #01 //105   ----------------------------------------
 BYTE   Cn1  v080
 BYTE   W12
 BYTE   EOT
 BYTE   An2
 BYTE   N18  Dn1
 BYTE   N24  Gs1  v052
 BYTE   N36  An2  v080
 BYTE   W12
 BYTE   N18  Cn1
 BYTE   W06
 BYTE   Dn1
 BYTE   W06
 BYTE   TIE  Gs1  v052
 BYTE   W06
 BYTE   N18  Cn1  v080
 BYTE   W06
 BYTE   N24  Dn1
 BYTE   N48  An2
 BYTE   W12
 BYTE   N36  Cn1
 BYTE   W12
 BYTE   N06  Dn1
 BYTE   W06
 BYTE   N06
 BYTE   W06
 BYTE   N24
 BYTE   W12
//  #01 //106   ----------------------------------------
 BYTE   Cn1
 BYTE   TIE  An2
 BYTE   W12
 BYTE   N24  Dn1
 BYTE   W12
 BYTE   EOT
 BYTE   Ds2
 BYTE   N06  Cn1
 BYTE   N24  Ds2
 BYTE   W06
 BYTE   N12  Cn1
 BYTE   W06
 BYTE   N24  Dn1
 BYTE   W06
 BYTE   N12  Cn1
 BYTE   W06
 BYTE   N24  Ds2
 BYTE   W06
 BYTE   N18  Cn1
 BYTE   W06
 BYTE   N24  Dn1
 BYTE   W12
 BYTE   N06  Cn1
 BYTE   N24  Ds2
 BYTE   W06
 BYTE   N18  Cn1
 BYTE   W06
 BYTE   N24  Dn1
 BYTE   W12
//  #01 //107   ----------------------------------------
 BYTE   PATT
  POIN2 Label_01A0E7ED
//  #01 //108   ----------------------------------------
 BYTE   PATT
  POIN2 Label_01A0E7ED
//  #01 //109   ----------------------------------------
 BYTE   PATT
  POIN2 Label_01A0E8F7
//  #01 //110   ----------------------------------------
 BYTE   EOT
 BYTE   Cs2
 BYTE   N24  Cn1  v080
 BYTE   W12
 BYTE   Dn1
 BYTE   W12
 BYTE   N06  Cn1
 BYTE   N24  Ds2
 BYTE   W06
 BYTE   N12  Cn1
 BYTE   W06
 BYTE   N24  Dn1
 BYTE   W06
 BYTE   N12  Cn1
 BYTE   W06
 BYTE   N24  Ds2
 BYTE   W06
 BYTE   N18  Cn1
 BYTE   W06
 BYTE   N24  Dn1
 BYTE   W12
 BYTE   N06  Cn1
 BYTE   N24  Ds2
 BYTE   W06
 BYTE   N18  Cn1
 BYTE   W06
 BYTE   N24  Dn1
 BYTE   W12
//  #01 //111   ----------------------------------------
 BYTE   PATT
  POIN2 Label_01A0E7ED
//  #01 //112   ----------------------------------------
 BYTE   PATT
  POIN2 Label_01A0E7ED
//  #01 //113   ----------------------------------------
 BYTE   N24  Cn1  v080
 BYTE   N24  Ds2
 BYTE   W12
 BYTE   Dn1
 BYTE   W12
 BYTE   N06  Cn1
 BYTE   N24  Ds2
 BYTE   W06
 BYTE   N12  Cn1
 BYTE   W06
 BYTE   N24  Dn1
 BYTE   W06
 BYTE   N12  Cn1
 BYTE   W06
 BYTE   N24  Ds2
 BYTE   W06
 BYTE   N18  Cn1
 BYTE   W06
 BYTE   N24  Dn1
 BYTE   W12
 BYTE   Cn1
 BYTE   N48  Ds2
 BYTE   W12
 BYTE   N06  Dn1
 BYTE   W06
 BYTE   N18
 BYTE   W06
//  #01 //114   ----------------------------------------
 BYTE   EOT
 BYTE   An2
 BYTE   N24  Cn1
 BYTE   TIE  An2
 BYTE   W12
 BYTE   N24  Dn1
 BYTE   W12
 BYTE   N06  Cn1
 BYTE   N24  Ds2
 BYTE   W06
 BYTE   N12  Cn1
 BYTE   W06
 BYTE   N24  Dn1
 BYTE   W06
 BYTE   N12  Cn1
 BYTE   W06
 BYTE   N24  Ds2
 BYTE   W06
 BYTE   N18  Cn1
 BYTE   W06
 BYTE   EOT
 BYTE   Gn2
 BYTE   N24  Dn1
 BYTE   TIE  Gn2
 BYTE   W12
 BYTE   N06  Cn1
 BYTE   N24  Ds2
 BYTE   W06
 BYTE   N18  Cn1
 BYTE   W06
 BYTE   N24  Dn1
 BYTE   W12
//  #01 //115   ----------------------------------------
 BYTE   PATT
  POIN2 Label_01A0E7ED
//  #01 //116   ----------------------------------------
 BYTE   PATT
  POIN2 Label_01A0E7ED
//  #01 //117   ----------------------------------------
 BYTE   PATT
  POIN2 Label_01A0E7ED
//  #01 //118   ----------------------------------------
 BYTE   PATT
  POIN2 Label_01A0E7ED
//  #01 //119   ----------------------------------------
 BYTE   PATT
  POIN2 Label_01A0E7ED
//  #01 //120   ----------------------------------------
 BYTE   PATT
  POIN2 Label_01A0E7ED
//  #01 //121   ----------------------------------------
 BYTE   N24  Cn1  v080
 BYTE   N24  Ds2
 BYTE   W12
 BYTE   Dn1
 BYTE   W12
 BYTE   N06  Cn1
 BYTE   N24  Ds2
 BYTE   W06
 BYTE   N12  Cn1
 BYTE   W06
 BYTE   N24  Dn1
 BYTE   W06
 BYTE   N12  Cn1
 BYTE   W06
 BYTE   N24  Ds2
 BYTE   W06
 BYTE   N18  Cn1
 BYTE   W06
 BYTE   N24  Dn1
 BYTE   W12
 BYTE   N06  Cn1
 BYTE   W06
 BYTE   N18
 BYTE   W06
 BYTE   N24  Dn1
 BYTE   W12
//  #01 //122   ----------------------------------------
 BYTE   EOT
 BYTE   Fs2  v057
//  #01 //123   ----------------------------------------
 BYTE   PATT
  POIN2 Label_01A0EA4C
//  #01 //124   ----------------------------------------
 BYTE   PATT
  POIN2 Label_01A0EA77
//  #01 //125   ----------------------------------------
 BYTE   PATT
  POIN2 Label_01A0EA77
//  #01 //126   ----------------------------------------
 BYTE   PATT
  POIN2 Label_01A0EA77
//  #01 //127   ----------------------------------------
 BYTE   EOT
 BYTE   An2
//  #01 //128   ----------------------------------------
 BYTE   PATT
  POIN2 Label_01A0EA4C
//  #01 //129   ----------------------------------------
 BYTE   PATT
  POIN2 Label_01A0EAAE
//  #01 //130   ----------------------------------------
 BYTE   PATT
  POIN2 Label_01A0EAAE
//  #01 //131   ----------------------------------------
 BYTE   PATT
  POIN2 Label_01A0EAAE
//  #01 //132   ----------------------------------------
 BYTE   EOT
 BYTE   An2
//  #01 //133   ----------------------------------------
 BYTE   PATT
  POIN2 Label_01A0EADC
//  #01 //134   ----------------------------------------
 BYTE   PATT
  POIN2 Label_01A0EAAE
//  #01 //135   ----------------------------------------
 BYTE   PATT
  POIN2 Label_01A0EAAE
//  #01 //136   ----------------------------------------
 BYTE   PATT
  POIN2 Label_01A0EAAE
//  #01 //137   ----------------------------------------
 BYTE   PATT
  POIN2 Label_01A0EB12
//  #01 //138   ----------------------------------------
 BYTE   PATT
  POIN2 Label_01A0EAAE
//  #01 //139   ----------------------------------------
 BYTE   PATT
  POIN2 Label_01A0EAAE
//  #01 //140   ----------------------------------------
 BYTE   N24  Cn1  v080
 BYTE   N24  Fs2
 BYTE   W12
 BYTE   EOT
 BYTE   An2
 BYTE   N18  Dn1
 BYTE   N36  An2
 BYTE   W12
 BYTE   N18  Cn1
 BYTE   N24  Fs2
 BYTE   W06
 BYTE   N18  Dn1
 BYTE   W12
 BYTE   Cn1
 BYTE   W06
 BYTE   N24  Dn1
 BYTE   N48  Fs2
 BYTE   N48  An2
 BYTE   W12
 BYTE   N36  Cn1
 BYTE   W12
 BYTE   N06  Dn1
 BYTE   W06
 BYTE   N06
 BYTE   W06
 BYTE   N24
 BYTE   W12
//  #01 //141   ----------------------------------------
 BYTE   PATT
  POIN2 Label_01A0EB62
//  #01 //142   ----------------------------------------
 BYTE   N24  Cn1  v080
 BYTE   N24  Fs2
 BYTE   W12
 BYTE   N18  Dn1
 BYTE   N36  An2
 BYTE   W12
 BYTE   N18  Cn1
 BYTE   N24  Fs2
 BYTE   W06
 BYTE   N18  Dn1
 BYTE   W12
 BYTE   Cn1
 BYTE   W06
 BYTE   N24  Dn1
 BYTE   TIE  An2
 BYTE   W12
 BYTE   Cn1
 BYTE   W12
 BYTE   EOT
 BYTE   As1
 BYTE   N06  Dn1
 BYTE   TIE  As1  v052
 BYTE   W06
 BYTE   N06  Dn1  v080
 BYTE   W06
 BYTE   TIE
 BYTE   W12
//  #01 //143   ----------------------------------------
 BYTE   EOT
 BYTE   Gn2
 BYTE   W24
 BYTE   Gs1
 BYTE   N24  Gs1  v052
 BYTE   W24
 BYTE   N24
 BYTE   W24
 BYTE   N24
 BYTE   W24
//  #01 //144   ----------------------------------------
 BYTE   PATT
  POIN2 Label_01A0EBC6
//  #01 //145   ----------------------------------------
 BYTE   PATT
  POIN2 Label_01A0EBD5
//  #01 //146   ----------------------------------------
 BYTE   N24  Gs1  v052
 BYTE   W24
 BYTE   N24
 BYTE   W24
 BYTE   N72
 BYTE   W24
 BYTE   EOT
 BYTE   As1
 BYTE   TIE
 BYTE   W24
//  #01 //147   ----------------------------------------
 BYTE   W24
 BYTE   N12  Gs1
 BYTE   W12
 BYTE   N06
 BYTE   W06
 BYTE   N06
 BYTE   W06
 BYTE   N24
 BYTE   W24
 BYTE   N24
 BYTE   W24
//  #01 //148   ----------------------------------------
 BYTE   PATT
  POIN2 Label_01A0EBEA
//  #01 //149   ----------------------------------------
 BYTE   EOT
 BYTE   As1
 BYTE   TIE  As1  v052
 BYTE   W24
 BYTE   N24  Gs1
 BYTE   W24
 BYTE   N24
 BYTE   W24
 BYTE   N48
 BYTE   W24
//  #01 //150   ----------------------------------------
 BYTE   PATT
  POIN2 Label_01A0EBF9
//  #01 //151   ----------------------------------------
 BYTE   N24  Gs1  v052
 BYTE   W24
 BYTE   N24
 BYTE   W24
 BYTE   N24
 BYTE   W48
//  #01 //152   ----------------------------------------
 BYTE   EOT
 BYTE   As1
 BYTE   N24
 BYTE   W48
 BYTE   EOT
 BYTE   Cn1  v038
 BYTE   N48  Cn1  v096
 BYTE   N12  Dn1  v080
 BYTE   W06
 BYTE   En1  v060
 BYTE   W06
 BYTE   Dn1  v080
 BYTE   W06
 BYTE   En1  v060
 BYTE   W06
 BYTE   Dn1  v080
 BYTE   W06
 BYTE   En1  v060
 BYTE   W06
 BYTE   Dn1  v080
 BYTE   W06
 BYTE   N06  En1  v060
 BYTE   W06
//  #01 //153   ----------------------------------------
 BYTE   EOT
 BYTE   An2
 BYTE   GoTo
  POIN2 Label_01A0E7C1
 BYTE   FINE

//**************** Track 2 (Midi-Chn.1) ****************//

song02EE_002:
//  #02 //000   ----------------------------------------
 BYTE   KEYSH   song02EE_key+0
 BYTE   VOICE   55
 BYTE   MODT 0
 BYTE   LFOS 44
 BYTE   VOL   46*song02EE_mvl/mxv
 BYTE   PAN   c_v-11
 BYTE   BENDR  12
 BYTE   W96
//  #02 //001   ----------------------------------------
 BYTE   W96
//  #02 //002   ----------------------------------------
 BYTE   W96
//  #02 //003   ----------------------------------------
 BYTE   W96
//  #02 //004   ----------------------------------------
 BYTE   W96
//  #02 //005   ----------------------------------------
 BYTE   W96
//  #02 //006   ----------------------------------------
 BYTE   W96
//  #02 //007   ----------------------------------------
 BYTE   W96
//  #02 //008   ----------------------------------------
 BYTE   W96
//  #02 //009   ----------------------------------------
 BYTE   W96
//  #02 //010   ----------------------------------------
 BYTE   W96
//  #02 //011   ----------------------------------------
 BYTE   W96
//  #02 //012   ----------------------------------------
 BYTE   W96
//  #02 //013   ----------------------------------------
 BYTE   W96
//  #02 //014   ----------------------------------------
 BYTE   W96
//  #02 //015   ----------------------------------------
 BYTE   W96
//  #02 //016   ----------------------------------------
 BYTE   W96
//  #02 //017   ----------------------------------------
 BYTE   W96
//  #02 //018   ----------------------------------------
 BYTE   W96
//  #02 //019   ----------------------------------------
 BYTE   W96
//  #02 //020   ----------------------------------------
Label_019DC3C2:
 BYTE   W96
//  #02 //021   ----------------------------------------
 BYTE   W96
//  #02 //022   ----------------------------------------
 BYTE   W96
//  #02 //023   ----------------------------------------
 BYTE   W96
//  #02 //024   ----------------------------------------
 BYTE   W96
//  #02 //025   ----------------------------------------
 BYTE   W96
//  #02 //026   ----------------------------------------
 BYTE   W96
//  #02 //027   ----------------------------------------
 BYTE   W96
//  #02 //028   ----------------------------------------
 BYTE   W96
//  #02 //029   ----------------------------------------
 BYTE   W96
//  #02 //030   ----------------------------------------
 BYTE   W96
//  #02 //031   ----------------------------------------
 BYTE   W96
//  #02 //032   ----------------------------------------
 BYTE   W96
//  #02 //033   ----------------------------------------
 BYTE   W96
//  #02 //034   ----------------------------------------
 BYTE   W96
//  #02 //035   ----------------------------------------
 BYTE   W96
//  #02 //036   ----------------------------------------
 BYTE   W96
//  #02 //037   ----------------------------------------
 BYTE   W96
//  #02 //038   ----------------------------------------
 BYTE   W96
//  #02 //039   ----------------------------------------
 BYTE   W96
//  #02 //040   ----------------------------------------
 BYTE   W96
//  #02 //041   ----------------------------------------
 BYTE   W96
//  #02 //042   ----------------------------------------
 BYTE   W96
//  #02 //043   ----------------------------------------
 BYTE   W96
//  #02 //044   ----------------------------------------
 BYTE   W96
//  #02 //045   ----------------------------------------
 BYTE   W96
//  #02 //046   ----------------------------------------
 BYTE   W96
//  #02 //047   ----------------------------------------
 BYTE   W96
//  #02 //048   ----------------------------------------
 BYTE   W96
//  #02 //049   ----------------------------------------
 BYTE   W96
//  #02 //050   ----------------------------------------
 BYTE   W96
//  #02 //051   ----------------------------------------
 BYTE   W96
//  #02 //052   ----------------------------------------
 BYTE   W96
//  #02 //053   ----------------------------------------
 BYTE   W96
//  #02 //054   ----------------------------------------
 BYTE   W96
//  #02 //055   ----------------------------------------
 BYTE   W96
//  #02 //056   ----------------------------------------
 BYTE   W96
//  #02 //057   ----------------------------------------
 BYTE   W96
//  #02 //058   ----------------------------------------
 BYTE   W96
//  #02 //059   ----------------------------------------
 BYTE   W96
//  #02 //060   ----------------------------------------
 BYTE   W96
//  #02 //061   ----------------------------------------
 BYTE   W96
//  #02 //062   ----------------------------------------
 BYTE   W96
//  #02 //063   ----------------------------------------
 BYTE   W96
//  #02 //064   ----------------------------------------
 BYTE   W96
//  #02 //065   ----------------------------------------
 BYTE   W96
//  #02 //066   ----------------------------------------
 BYTE   W96
//  #02 //067   ----------------------------------------
 BYTE   W96
//  #02 //068   ----------------------------------------
 BYTE   W96
//  #02 //069   ----------------------------------------
 BYTE   W96
//  #02 //070   ----------------------------------------
 BYTE   W96
//  #02 //071   ----------------------------------------
 BYTE   W24
 BYTE   N92  Cn3  v044
 BYTE   W72
//  #02 //072   ----------------------------------------
 BYTE   W96
//  #02 //073   ----------------------------------------
 BYTE   W24
 BYTE   An2  v060
 BYTE   W72
//  #02 //074   ----------------------------------------
 BYTE   W96
//  #02 //075   ----------------------------------------
 BYTE   W24
 BYTE   Fn2
 BYTE   W72
//  #02 //076   ----------------------------------------
 BYTE   W96
//  #02 //077   ----------------------------------------
 BYTE   W24
 BYTE   TIE  Bn2  v040
 BYTE   W72
//  #02 //078   ----------------------------------------
 BYTE   W44
 BYTE   W03
 BYTE   EOT
 BYTE   W48
 BYTE   W01
//  #02 //079   ----------------------------------------
 BYTE   W96
//  #02 //080   ----------------------------------------
 BYTE   N23  An3  v116
 BYTE   W96
//  #02 //081   ----------------------------------------
 BYTE   Cn3  v112
 BYTE   W24
 BYTE   N23
 BYTE   W24
 BYTE   En3  v116
 BYTE   W24
 BYTE   N23
 BYTE   W24
//  #02 //082   ----------------------------------------
 BYTE   An3  v096
 BYTE   W96
//  #02 //083   ----------------------------------------
 BYTE   Cn3  v116
 BYTE   W24
 BYTE   Cn3  v112
 BYTE   W24
 BYTE   En3  v116
 BYTE   W24
 BYTE   En3  v120
 BYTE   W24
//  #02 //084   ----------------------------------------
 BYTE   An3  v116
 BYTE   W96
//  #02 //085   ----------------------------------------
 BYTE   Cn3
 BYTE   W24
 BYTE   Cn3  v108
 BYTE   W24
 BYTE   En3
 BYTE   W24
 BYTE   En3  v120
 BYTE   W24
//  #02 //086   ----------------------------------------
 BYTE   An3  v112
 BYTE   W96
//  #02 //087   ----------------------------------------
Label_019DC43C:
 BYTE   N23  Cn3  v112
 BYTE   W24
 BYTE   Cn3  v108
 BYTE   W24
 BYTE   En3  v120
 BYTE   W24
 BYTE   N23
 BYTE   W24
 BYTE   PEND 
//  #02 //088   ----------------------------------------
 BYTE   An3
 BYTE   W96
//  #02 //089   ----------------------------------------
 BYTE   Cn3  v108
 BYTE   W24
 BYTE   Cn3  v112
 BYTE   W24
 BYTE   En3  v116
 BYTE   W24
 BYTE   N23
 BYTE   W24
//  #02 //090   ----------------------------------------
 BYTE   An3  v120
 BYTE   W96
//  #02 //091   ----------------------------------------
 BYTE   PATT
  POIN2 Label_019DC43C
//  #02 //092   ----------------------------------------
 BYTE   N23  An3  v120
 BYTE   W96
//  #02 //093   ----------------------------------------
Label_019DC462:
 BYTE   N23  Cn3  v112
 BYTE   W24
 BYTE   N23
 BYTE   W24
 BYTE   En3  v116
 BYTE   W24
 BYTE   En3  v120
 BYTE   W24
 BYTE   PEND 
//  #02 //094   ----------------------------------------
 BYTE   An3  v104
 BYTE   W96
//  #02 //095   ----------------------------------------
 BYTE   PATT
  POIN2 Label_019DC462
//  #02 //096   ----------------------------------------
 BYTE   N92  An3  v104
 BYTE   W96
//  #02 //097   ----------------------------------------
 BYTE   Cn3  v080
 BYTE   W96
//  #02 //098   ----------------------------------------
 BYTE   Cn3  v048
 BYTE   W96
//  #02 //099   ----------------------------------------
 BYTE   Bn2
 BYTE   W96
//  #02 //100   ----------------------------------------
 BYTE   N44  Gn2
 BYTE   W48
 BYTE   N44
 BYTE   W48
//  #02 //101   ----------------------------------------
 BYTE   N92  Cn3
 BYTE   W96
//  #02 //102   ----------------------------------------
 BYTE   N92
 BYTE   W96
//  #02 //103   ----------------------------------------
 BYTE   Bn2
 BYTE   W96
//  #02 //104   ----------------------------------------
 BYTE   N44  An2
 BYTE   W48
 BYTE   Gn2
 BYTE   W48
//  #02 //105   ----------------------------------------
 BYTE   N92  Cn3
 BYTE   W96
//  #02 //106   ----------------------------------------
 BYTE   En3
 BYTE   W96
//  #02 //107   ----------------------------------------
 BYTE   N68
 BYTE   W72
 BYTE   N23  An2
 BYTE   W24
//  #02 //108   ----------------------------------------
 BYTE   N44  As2
 BYTE   W48
 BYTE   Bn2
 BYTE   W48
//  #02 //109   ----------------------------------------
 BYTE   An2
 BYTE   W48
 BYTE   Gs2
 BYTE   W48
//  #02 //110   ----------------------------------------
 BYTE   N44
 BYTE   W48
 BYTE   N44
 BYTE   W48
//  #02 //111   ----------------------------------------
 BYTE   N23  En3  v056
 BYTE   W24
 BYTE   Bn2
 BYTE   W24
 BYTE   Gs2
 BYTE   W24
 BYTE   En2
 BYTE   W24
//  #02 //112   ----------------------------------------
Label_019DC4B5:
 BYTE   N23  An3  v080
 BYTE   W24
 BYTE   N11  Gn3
 BYTE   W12
 BYTE   N23  An3
 BYTE   W24
 BYTE   N32  Cn4
 BYTE   W36
 BYTE   PEND 
//  #02 //113   ----------------------------------------
Label_019DC4C3:
 BYTE   N44  En4  v080
 BYTE   W48
 BYTE   N23  Gn4
 BYTE   W24
 BYTE   An4
 BYTE   W24
 BYTE   PEND 
//  #02 //114   ----------------------------------------
 BYTE   N44  Gn4
 BYTE   W48
 BYTE   N23  En4
 BYTE   W24
 BYTE   N11  Bn3
 BYTE   W12
 BYTE   Cn4
 BYTE   W12
//  #02 //115   ----------------------------------------
 BYTE   N44
 BYTE   W48
 BYTE   Bn3
 BYTE   W48
//  #02 //116   ----------------------------------------
 BYTE   N23  En4
 BYTE   W24
 BYTE   N11  Dn4
 BYTE   W12
 BYTE   N32  Cn4
 BYTE   W36
 BYTE   N23  An3
 BYTE   W24
//  #02 //117   ----------------------------------------
Label_019DC4E8:
 BYTE   N68  Fn3  v080
 BYTE   W72
 BYTE   N23  Gn3
 BYTE   W24
 BYTE   PEND 
//  #02 //118   ----------------------------------------
 BYTE   N92
 BYTE   W96
//  #02 //119   ----------------------------------------
 BYTE   Gs3
 BYTE   W96
//  #02 //120   ----------------------------------------
 BYTE   PATT
  POIN2 Label_019DC4B5
//  #02 //121   ----------------------------------------
 BYTE   PATT
  POIN2 Label_019DC4C3
//  #02 //122   ----------------------------------------
 BYTE   N44  Bn4  v080
 BYTE   W48
 BYTE   N23  Gn4
 BYTE   W24
 BYTE   N11  En4
 BYTE   W12
 BYTE   N56  Cn4
 BYTE   W12
//  #02 //123   ----------------------------------------
 BYTE   W48
 BYTE   N44  Bn3
 BYTE   W48
//  #02 //124   ----------------------------------------
 BYTE   N23  Cn4
 BYTE   W24
 BYTE   N11  An3
 BYTE   W12
 BYTE   N32
 BYTE   W36
 BYTE   N23  En3
 BYTE   W24
//  #02 //125   ----------------------------------------
 BYTE   PATT
  POIN2 Label_019DC4E8
//  #02 //126   ----------------------------------------
 BYTE   N44  Gn3  v080
 BYTE   W48
 BYTE   Gs3
 BYTE   W48
//  #02 //127   ----------------------------------------
 BYTE   N68  An3
 BYTE   W72
 BYTE   N23  En4
 BYTE   W24
//  #02 //128   ----------------------------------------
 BYTE   N92  Gs4
 BYTE   W96
//  #02 //129   ----------------------------------------
 BYTE   En4
 BYTE   W96
//  #02 //130   ----------------------------------------
 BYTE   N68
 BYTE   W96
//  #02 //131   ----------------------------------------
 BYTE   W96
//  #02 //132   ----------------------------------------
 BYTE   W96
//  #02 //133   ----------------------------------------
 BYTE   W96
//  #02 //134   ----------------------------------------
 BYTE   W96
//  #02 //135   ----------------------------------------
 BYTE   W96
//  #02 //136   ----------------------------------------
 BYTE   W96
//  #02 //137   ----------------------------------------
 BYTE   W96
//  #02 //138   ----------------------------------------
 BYTE   W96
//  #02 //139   ----------------------------------------
 BYTE   W96
//  #02 //140   ----------------------------------------
 BYTE   GoTo
  POIN2 Label_019DC3C2
 BYTE   FINE

//**************** Track 3 (Midi-Chn.2) ****************//

song02EE_003:
//  #03 //000   ----------------------------------------
 BYTE   KEYSH   song02EE_key+0
 BYTE   VOICE   30
 BYTE   MODT 0
 BYTE   LFOS 44
 BYTE   VOL   34*song02EE_mvl/mxv
 BYTE   PAN   c_v+8
 BYTE   BENDR  12
 BYTE   W96
//  #03 //001   ----------------------------------------
 BYTE   W96
//  #03 //002   ----------------------------------------
 BYTE   W96
//  #03 //003   ----------------------------------------
 BYTE   W96
//  #03 //004   ----------------------------------------
 BYTE   W96
//  #03 //005   ----------------------------------------
 BYTE   W96
//  #03 //006   ----------------------------------------
 BYTE   W96
//  #03 //007   ----------------------------------------
 BYTE   W96
//  #03 //008   ----------------------------------------
 BYTE   W96
//  #03 //009   ----------------------------------------
 BYTE   W96
//  #03 //010   ----------------------------------------
 BYTE   TIE  En2  v060
 BYTE   W96
//  #03 //011   ----------------------------------------
 BYTE   W92
 BYTE   W03
 BYTE   EOT
 BYTE   W01
//  #03 //012   ----------------------------------------
 BYTE   TIE  Cn2
 BYTE   W96
//  #03 //013   ----------------------------------------
 BYTE   W92
 BYTE   W03
 BYTE   EOT
 BYTE   W01
//  #03 //014   ----------------------------------------
 BYTE   TIE  An1
 BYTE   W96
//  #03 //015   ----------------------------------------
 BYTE   W92
 BYTE   W03
 BYTE   EOT
 BYTE   W01
//  #03 //016   ----------------------------------------
 BYTE   TIE  Bn1
 BYTE   W96
//  #03 //017   ----------------------------------------
Label_01A0F039:
 BYTE   W72
 BYTE   N13  An1  v060
 BYTE   W13
 BYTE   N02  As1  v032
 BYTE   W02
 BYTE   PEND 
 BYTE   EOT
 BYTE   Bn1
 BYTE   N01
 BYTE   W01
 BYTE   N02  Cn2
 BYTE   W02
 BYTE   Cs2
 BYTE   W02
 BYTE   Dn2
 BYTE   W02
 BYTE   N01  Ds2
 BYTE   W02
//  #03 //018   ----------------------------------------
 BYTE   TIE  En2  v060
 BYTE   W96
//  #03 //019   ----------------------------------------
 BYTE   W44
 BYTE   W03
 BYTE   EOT
 BYTE   W13
 BYTE   N06  An0
 BYTE   W06
 BYTE   N01  As0  v032
 BYTE   W01
 BYTE   Bn0
 BYTE   W01
 BYTE   Cn1
 BYTE   W01
 BYTE   Cs1
 BYTE   W01
 BYTE   Dn1
 BYTE   W01
 BYTE   Ds1
 BYTE   W01
 BYTE   N23  En1  v060
 BYTE   W24
//  #03 //020   ----------------------------------------
Label_01A0F06E:
 BYTE   N11  An0  v060
 BYTE   N23  En2
 BYTE   W12
 BYTE   N11  An0
 BYTE   W12
 BYTE   N11
 BYTE   N05  En2
 BYTE   W06
 BYTE   N05
 BYTE   W06
 BYTE   N03  An0
 BYTE   N05  En2
 BYTE   W04
 BYTE   N03  An0
 BYTE   W02
 BYTE   N05  En2
 BYTE   W06
 BYTE   N23
 BYTE   W04
 BYTE   N03  An0
 BYTE   W08
 BYTE   N11
 BYTE   W12
 BYTE   N11
 BYTE   N05  En2
 BYTE   W06
 BYTE   N05
 BYTE   W06
 BYTE   N11  An0
 BYTE   N05  En2
 BYTE   W06
 BYTE   N05
 BYTE   W06
 BYTE   PEND 
//  #03 //021   ----------------------------------------
Label_01A0F09D:
 BYTE   N11  An0  v060
 BYTE   N23  En2
 BYTE   W12
 BYTE   N11  An0
 BYTE   W12
 BYTE   N11
 BYTE   W12
 BYTE   N03
 BYTE   W04
 BYTE   N03
 BYTE   W12
 BYTE   N03
 BYTE   W08
 BYTE   N11
 BYTE   W12
 BYTE   N11
 BYTE   W12
 BYTE   N11
 BYTE   W12
 BYTE   PEND 
//  #03 //022   ----------------------------------------
Label_01A0F0B5:
 BYTE   N11  Fn0  v060
 BYTE   N23  An2
 BYTE   W12
 BYTE   N11  Fn0
 BYTE   W12
 BYTE   N11
 BYTE   N05  An2
 BYTE   W06
 BYTE   N05
 BYTE   W06
 BYTE   N03  Fn0
 BYTE   N05  An2
 BYTE   W04
 BYTE   N03  Fn0
 BYTE   W02
 BYTE   N05  An2
 BYTE   W06
 BYTE   N23
 BYTE   W04
 BYTE   N03  Fn0
 BYTE   W08
 BYTE   N11
 BYTE   W12
 BYTE   N11
 BYTE   N05  An2
 BYTE   W06
 BYTE   N05
 BYTE   W06
 BYTE   N11  Fn0
 BYTE   N05  An2
 BYTE   W06
 BYTE   N05
 BYTE   W06
 BYTE   PEND 
//  #03 //023   ----------------------------------------
Label_01A0F0E4:
 BYTE   N11  Fn0  v060
 BYTE   N23  An2
 BYTE   W12
 BYTE   N11  Fn0
 BYTE   W12
 BYTE   N11
 BYTE   W12
 BYTE   N03  Gn0
 BYTE   W04
 BYTE   Fn1
 BYTE   W12
 BYTE   N03
 BYTE   W08
 BYTE   N11
 BYTE   W12
 BYTE   En1
 BYTE   W12
 BYTE   N11
 BYTE   W12
 BYTE   PEND 
//  #03 //024   ----------------------------------------
Label_01A0F0FD:
 BYTE   N11  Dn1  v060
 BYTE   N23  An2
 BYTE   W12
 BYTE   N11  Dn1
 BYTE   W12
 BYTE   N11
 BYTE   N05  Fn2
 BYTE   W06
 BYTE   N05
 BYTE   W06
 BYTE   N03  Dn1
 BYTE   N05  Fn2
 BYTE   W04
 BYTE   N03  Dn1
 BYTE   W02
 BYTE   N05  Fn2
 BYTE   W06
 BYTE   N23
 BYTE   W04
 BYTE   N03  Dn1
 BYTE   W08
 BYTE   N11
 BYTE   W12
 BYTE   N11
 BYTE   N05  Fn2
 BYTE   W06
 BYTE   N05
 BYTE   W06
 BYTE   N11  Dn1
 BYTE   N05  Fn2
 BYTE   W06
 BYTE   N05
 BYTE   W06
 BYTE   PEND 
//  #03 //025   ----------------------------------------
Label_01A0F12C:
 BYTE   N11  Dn1  v060
 BYTE   N23  Fn2
 BYTE   W12
 BYTE   N11  Dn1
 BYTE   W12
 BYTE   N11
 BYTE   W12
 BYTE   N03
 BYTE   W04
 BYTE   N03
 BYTE   W12
 BYTE   N03
 BYTE   W08
 BYTE   N11
 BYTE   W12
 BYTE   N11
 BYTE   W12
 BYTE   N11
 BYTE   W12
 BYTE   PEND 
//  #03 //026   ----------------------------------------
Label_01A0F144:
 BYTE   N11  En1  v060
 BYTE   N23  Gn2
 BYTE   W12
 BYTE   N11  En1
 BYTE   W12
 BYTE   N11
 BYTE   N05  Gn2
 BYTE   W06
 BYTE   N05
 BYTE   W06
 BYTE   N03  En1
 BYTE   N05  Gn2
 BYTE   W04
 BYTE   N03  En1
 BYTE   W02
 BYTE   N05  Gn2
 BYTE   W06
 BYTE   N23
 BYTE   W04
 BYTE   N03  En1
 BYTE   W08
 BYTE   N11
 BYTE   W12
 BYTE   N11
 BYTE   N05  Gn2
 BYTE   W06
 BYTE   N05
 BYTE   W06
 BYTE   N11  En1
 BYTE   N05  Gn2
 BYTE   W06
 BYTE   N05
 BYTE   W06
 BYTE   PEND 
//  #03 //027   ----------------------------------------
Label_01A0F173:
 BYTE   N11  En0  v060
 BYTE   N23  Gn2
 BYTE   W12
 BYTE   N11  En1
 BYTE   W12
 BYTE   En0
 BYTE   W12
 BYTE   N03
 BYTE   W04
 BYTE   N03
 BYTE   W12
 BYTE   N03
 BYTE   W08
 BYTE   N11
 BYTE   W12
 BYTE   Gn0
 BYTE   W12
 BYTE   N11
 BYTE   W12
 BYTE   PEND 
//  #03 //028   ----------------------------------------
 BYTE   PATT
  POIN2 Label_01A0F06E
//  #03 //029   ----------------------------------------
 BYTE   PATT
  POIN2 Label_01A0F09D
//  #03 //030   ----------------------------------------
Label_01A0F195:
 BYTE   N11  Fn0  v060
 BYTE   N23  An2
 BYTE   W12
 BYTE   N11  Fn0
 BYTE   W12
 BYTE   N11
 BYTE   N05  An2
 BYTE   W06
 BYTE   N05
 BYTE   W06
 BYTE   N03  Fn0
 BYTE   N05  An2
 BYTE   W04
 BYTE   N03  Fn1
 BYTE   W02
 BYTE   N05  An2
 BYTE   W06
 BYTE   N23
 BYTE   W04
 BYTE   N03  Fn0
 BYTE   W08
 BYTE   N11
 BYTE   W12
 BYTE   N11
 BYTE   N05  An2
 BYTE   W06
 BYTE   N05
 BYTE   W06
 BYTE   N11  Fn0
 BYTE   N05  An2
 BYTE   W06
 BYTE   N05
 BYTE   W06
 BYTE   PEND 
//  #03 //031   ----------------------------------------
 BYTE   PATT
  POIN2 Label_01A0F0E4
//  #03 //032   ----------------------------------------
Label_01A0F1C9:
 BYTE   N11  Dn1  v060
 BYTE   N23  An2
 BYTE   W12
 BYTE   N11  Dn1
 BYTE   W12
 BYTE   N11
 BYTE   N05  An2
 BYTE   W06
 BYTE   N05
 BYTE   W06
 BYTE   N03  Dn1
 BYTE   N05  An2
 BYTE   W04
 BYTE   N03  Dn1
 BYTE   W02
 BYTE   N05  An2
 BYTE   W06
 BYTE   N23
 BYTE   W04
 BYTE   N03  Dn1
 BYTE   W08
 BYTE   N11
 BYTE   W12
 BYTE   N11
 BYTE   N05  An2
 BYTE   W06
 BYTE   N05
 BYTE   W06
 BYTE   N11  Dn1
 BYTE   N05  An2
 BYTE   W06
 BYTE   N05
 BYTE   W06
 BYTE   PEND 
//  #03 //033   ----------------------------------------
Label_01A0F1F8:
 BYTE   N11  Dn1  v060
 BYTE   N23  An2
 BYTE   W12
 BYTE   N11  Dn1
 BYTE   W12
 BYTE   N11
 BYTE   W12
 BYTE   N03
 BYTE   W04
 BYTE   N03
 BYTE   W12
 BYTE   N03
 BYTE   W08
 BYTE   N11
 BYTE   W12
 BYTE   N11
 BYTE   W12
 BYTE   N11
 BYTE   W12
 BYTE   PEND 
//  #03 //034   ----------------------------------------
Label_01A0F210:
 BYTE   N11  En1  v060
 BYTE   N23  Bn2
 BYTE   W12
 BYTE   N11  En1
 BYTE   W12
 BYTE   N11
 BYTE   N05  Bn2
 BYTE   W06
 BYTE   N05
 BYTE   W06
 BYTE   N03  En1
 BYTE   N05  Bn2
 BYTE   W04
 BYTE   N03  En1
 BYTE   W02
 BYTE   N05  Bn2
 BYTE   W06
 BYTE   N23
 BYTE   W04
 BYTE   N03  En1
 BYTE   W08
 BYTE   N11
 BYTE   W12
 BYTE   N11
 BYTE   N05  Bn2
 BYTE   W06
 BYTE   N05
 BYTE   W06
 BYTE   N11  En1
 BYTE   N05  Bn2
 BYTE   W06
 BYTE   N05
 BYTE   W06
 BYTE   PEND 
//  #03 //035   ----------------------------------------
Label_01A0F23F:
 BYTE   N11  En0  v060
 BYTE   N23  Bn2
 BYTE   W12
 BYTE   N11  En1
 BYTE   W12
 BYTE   En0
 BYTE   W12
 BYTE   N03
 BYTE   W04
 BYTE   N03
 BYTE   W12
 BYTE   N03
 BYTE   W08
 BYTE   N11
 BYTE   W12
 BYTE   Gn0
 BYTE   W12
 BYTE   N11
 BYTE   W12
 BYTE   PEND 
//  #03 //036   ----------------------------------------
 BYTE   An0
 BYTE   N23  En2
 BYTE   W12
 BYTE   N11  An0
 BYTE   W12
 BYTE   N11
 BYTE   N23  An2
 BYTE   W12
 BYTE   N03  An0
 BYTE   W04
 BYTE   N03
 BYTE   W08
 BYTE   N23  En2
 BYTE   W04
 BYTE   N03  An0
 BYTE   W08
 BYTE   N11
 BYTE   W12
 BYTE   N11
 BYTE   N23  An2
 BYTE   W12
 BYTE   N11  Gn0
 BYTE   W12
//  #03 //037   ----------------------------------------
 BYTE   Fn0
 BYTE   N23  En2
 BYTE   W12
 BYTE   N11  Fn0
 BYTE   W12
 BYTE   N11
 BYTE   N23  An2
 BYTE   W12
 BYTE   N03  Fn0
 BYTE   W04
 BYTE   N03
 BYTE   W08
 BYTE   N23  En2
 BYTE   W04
 BYTE   N03  Fn0
 BYTE   W08
 BYTE   N11
 BYTE   W12
 BYTE   N11
 BYTE   N23  An2
 BYTE   W12
 BYTE   N11  Fn0
 BYTE   W12
//  #03 //038   ----------------------------------------
 BYTE   En0
 BYTE   N23  Dn2
 BYTE   W12
 BYTE   N11  En0
 BYTE   W12
 BYTE   N11
 BYTE   N23  Gn2
 BYTE   W12
 BYTE   N03  En0
 BYTE   W04
 BYTE   N03
 BYTE   W08
 BYTE   N23  Dn2
 BYTE   W04
 BYTE   N03  En0
 BYTE   W08
 BYTE   N11
 BYTE   W12
 BYTE   N11
 BYTE   N23  Gn2
 BYTE   W12
 BYTE   N11  En0
 BYTE   W12
//  #03 //039   ----------------------------------------
 BYTE   An0
 BYTE   N23  En2
 BYTE   W12
 BYTE   N11  An0
 BYTE   W12
 BYTE   N11
 BYTE   N23  An2
 BYTE   W12
 BYTE   N05  An0
 BYTE   W06
 BYTE   N05
 BYTE   W06
 BYTE   N11  Gn0
 BYTE   N23  Dn2
 BYTE   W12
 BYTE   N11  Gn0
 BYTE   W12
 BYTE   N11
 BYTE   N23  Gn2
 BYTE   W12
 BYTE   N05  Gn0
 BYTE   W06
 BYTE   N05
 BYTE   W06
//  #03 //040   ----------------------------------------
 BYTE   N11  Fn0
 BYTE   N23  En2
 BYTE   W12
 BYTE   N11  Fn0
 BYTE   W12
 BYTE   N11
 BYTE   N23  An2
 BYTE   W12
 BYTE   N03  Fn0
 BYTE   W04
 BYTE   N03
 BYTE   W08
 BYTE   N23  En2
 BYTE   W04
 BYTE   N03  Fn0
 BYTE   W08
 BYTE   N11
 BYTE   W12
 BYTE   Fn1
 BYTE   N23  An2
 BYTE   W12
 BYTE   N11  En1
 BYTE   W12
//  #03 //041   ----------------------------------------
 BYTE   Dn1
 BYTE   N23  An2
 BYTE   W12
 BYTE   N11  Dn1
 BYTE   W12
 BYTE   N11
 BYTE   N23  Fn3
 BYTE   W12
 BYTE   N03  Dn1
 BYTE   W04
 BYTE   N03
 BYTE   W08
 BYTE   N23  An2
 BYTE   W04
 BYTE   N03  Dn1
 BYTE   W08
 BYTE   N11
 BYTE   W12
 BYTE   N11
 BYTE   N23  Fn3
 BYTE   W12
 BYTE   N11  Dn1
 BYTE   W12
//  #03 //042   ----------------------------------------
 BYTE   En1
 BYTE   N23  Dn2
 BYTE   W12
 BYTE   N11  En1
 BYTE   W12
 BYTE   N11
 BYTE   N23  Gn2
 BYTE   W12
 BYTE   N03  En1
 BYTE   W04
 BYTE   N03
 BYTE   W08
 BYTE   N23  Dn2
 BYTE   W04
 BYTE   N03  En1
 BYTE   W08
 BYTE   N11
 BYTE   W12
 BYTE   N11
 BYTE   N23  Gn2
 BYTE   W12
 BYTE   N11  En1
 BYTE   W12
//  #03 //043   ----------------------------------------
 BYTE   An0
 BYTE   N23  En2
 BYTE   W12
 BYTE   N11  An0
 BYTE   W12
 BYTE   N11
 BYTE   N23  An2
 BYTE   W12
 BYTE   N03  An0
 BYTE   W04
 BYTE   N03
 BYTE   W08
 BYTE   N23  Dn2
 BYTE   W04
 BYTE   N03  An0
 BYTE   W08
 BYTE   N11
 BYTE   W12
 BYTE   Cs1
 BYTE   N23  Gn2
 BYTE   W12
 BYTE   N11  Cs1
 BYTE   W12
//  #03 //044   ----------------------------------------
 BYTE   Dn1
 BYTE   N23  An2
 BYTE   W12
 BYTE   N11  Dn1
 BYTE   W12
 BYTE   N11
 BYTE   N23  Dn3
 BYTE   W12
 BYTE   N03  Dn1
 BYTE   W04
 BYTE   N03
 BYTE   W08
 BYTE   N23  An2
 BYTE   W04
 BYTE   N03  Dn1
 BYTE   W08
 BYTE   N11
 BYTE   W12
 BYTE   N11
 BYTE   N23  Dn3
 BYTE   W12
 BYTE   N11  Dn1
 BYTE   W12
//  #03 //045   ----------------------------------------
 BYTE   En1
 BYTE   N23  Bn2
 BYTE   W12
 BYTE   N11  En1
 BYTE   W12
 BYTE   N11
 BYTE   N23  Gn3
 BYTE   W12
 BYTE   N03  En1
 BYTE   W04
 BYTE   N03
 BYTE   W08
 BYTE   N23  Bn2
 BYTE   W04
 BYTE   N03  En1
 BYTE   W08
 BYTE   N11
 BYTE   W12
 BYTE   N11
 BYTE   N23  Gn3
 BYTE   W12
 BYTE   N11  En1
 BYTE   W12
//  #03 //046   ----------------------------------------
 BYTE   Fn1
 BYTE   N92  An2
 BYTE   W12
 BYTE   N11  Fn1
 BYTE   W12
 BYTE   N11
 BYTE   W12
 BYTE   N11
 BYTE   W12
 BYTE   N11
 BYTE   W12
 BYTE   N11
 BYTE   W12
 BYTE   N11
 BYTE   W12
 BYTE   N11
 BYTE   W12
//  #03 //047   ----------------------------------------
 BYTE   As0
 BYTE   N44  Dn2
 BYTE   W12
 BYTE   N11  As0
 BYTE   W12
 BYTE   N11
 BYTE   W12
 BYTE   N05
 BYTE   W06
 BYTE   N05
 BYTE   W06
 BYTE   N11  Bn0
 BYTE   N44  Dn2
 BYTE   W12
 BYTE   N11  Bn0
 BYTE   W12
 BYTE   N11
 BYTE   W12
 BYTE   N05
 BYTE   W06
 BYTE   N05
 BYTE   W06
//  #03 //048   ----------------------------------------
 BYTE   N11  En1
 BYTE   N44  Cn2
 BYTE   W12
 BYTE   N11  En1
 BYTE   W12
 BYTE   N11
 BYTE   W12
 BYTE   N03
 BYTE   W04
 BYTE   N03
 BYTE   W08
 BYTE   N44  Bn1
 BYTE   W04
 BYTE   N03  En1
 BYTE   W08
 BYTE   N11
 BYTE   W12
 BYTE   N11
 BYTE   W12
 BYTE   N11
 BYTE   W12
//  #03 //049   ----------------------------------------
 BYTE   En0
 BYTE   N44  Bn1
 BYTE   W12
 BYTE   N11  En0
 BYTE   W12
 BYTE   N11
 BYTE   W12
 BYTE   N03
 BYTE   W04
 BYTE   N03
 BYTE   W08
 BYTE   N44  Bn1
 BYTE   W04
 BYTE   N03  En0
 BYTE   W08
 BYTE   N11
 BYTE   W12
 BYTE   N11
 BYTE   W12
 BYTE   N11
 BYTE   W12
//  #03 //050   ----------------------------------------
 BYTE   N11
 BYTE   N23  Gs2
 BYTE   W12
 BYTE   N11  En0
 BYTE   W12
 BYTE   N11
 BYTE   N23  En2
 BYTE   W12
 BYTE   N03  En0
 BYTE   W04
 BYTE   N03
 BYTE   W08
 BYTE   N23  Bn1
 BYTE   W04
 BYTE   N03  En0
 BYTE   W08
 BYTE   N11
 BYTE   W12
 BYTE   N11
 BYTE   N23  Gs1
 BYTE   W12
 BYTE   N11  En0
 BYTE   W12
//  #03 //051   ----------------------------------------
 BYTE   N11
 BYTE   N23  En2
 BYTE   W12
 BYTE   N11  En0
 BYTE   W12
 BYTE   N11
 BYTE   N23  Bn1
 BYTE   W12
 BYTE   N11  En0
 BYTE   W12
 BYTE   N11
 BYTE   N23  Gs1
 BYTE   W12
 BYTE   N11  En0
 BYTE   W12
 BYTE   N11
 BYTE   N23  En1
 BYTE   W12
 BYTE   N11  En0
 BYTE   W12
//  #03 //052   ----------------------------------------
Label_01A0F42C:
 BYTE   N11  An0  v060
 BYTE   N92  En2
 BYTE   W12
 BYTE   N11  An0
 BYTE   W12
 BYTE   N11
 BYTE   W12
 BYTE   N03
 BYTE   W04
 BYTE   N03
 BYTE   W12
 BYTE   N03
 BYTE   W08
 BYTE   N11
 BYTE   W12
 BYTE   N11
 BYTE   W12
 BYTE   Gn0
 BYTE   W12
 BYTE   PEND 
//  #03 //053   ----------------------------------------
Label_01A0F444:
 BYTE   N11  Fn0  v060
 BYTE   N92  Cn2
 BYTE   W12
 BYTE   N11  Fn0
 BYTE   W12
 BYTE   N11
 BYTE   W12
 BYTE   N03
 BYTE   W04
 BYTE   N03
 BYTE   W12
 BYTE   N03
 BYTE   W08
 BYTE   N11
 BYTE   W12
 BYTE   N11
 BYTE   W12
 BYTE   N11
 BYTE   W12
 BYTE   PEND 
//  #03 //054   ----------------------------------------
Label_01A0F45C:
 BYTE   N11  En0  v060
 BYTE   N92  Gn2
 BYTE   W12
 BYTE   N11  En0
 BYTE   W12
 BYTE   N11
 BYTE   W12
 BYTE   N03
 BYTE   W04
 BYTE   N03
 BYTE   W12
 BYTE   N03
 BYTE   W08
 BYTE   N11
 BYTE   W12
 BYTE   N11
 BYTE   W12
 BYTE   N11
 BYTE   W12
 BYTE   PEND 
//  #03 //055   ----------------------------------------
 BYTE   An0
 BYTE   N44  Gn2
 BYTE   W12
 BYTE   N11  An0
 BYTE   W12
 BYTE   N11
 BYTE   W12
 BYTE   N05
 BYTE   W06
 BYTE   N05
 BYTE   W06
 BYTE   N11  Gn0
 BYTE   N44  Dn2
 BYTE   W12
 BYTE   N11  Gn0
 BYTE   W12
 BYTE   N11
 BYTE   W12
 BYTE   N05
 BYTE   W06
 BYTE   N05
 BYTE   W06
//  #03 //056   ----------------------------------------
 BYTE   N11  Fn0
 BYTE   N92  An2
 BYTE   W12
 BYTE   N11  Fn0
 BYTE   W12
 BYTE   N11
 BYTE   W12
 BYTE   N03
 BYTE   W04
 BYTE   N03
 BYTE   W12
 BYTE   N03
 BYTE   W08
 BYTE   N11
 BYTE   W12
 BYTE   Fn1
 BYTE   W12
 BYTE   En1
 BYTE   W12
//  #03 //057   ----------------------------------------
 BYTE   Dn1
 BYTE   N92  An2
 BYTE   W12
 BYTE   N11  Dn1
 BYTE   W12
 BYTE   N11
 BYTE   W12
 BYTE   N03
 BYTE   W04
 BYTE   N03
 BYTE   W12
 BYTE   N03
 BYTE   W08
 BYTE   N11
 BYTE   W12
 BYTE   N11
 BYTE   W12
 BYTE   N11
 BYTE   W12
//  #03 //058   ----------------------------------------
Label_01A0F4BA:
 BYTE   N11  En1  v060
 BYTE   N92  Bn2
 BYTE   W12
 BYTE   N11  En1
 BYTE   W12
 BYTE   N11
 BYTE   W12
 BYTE   N03
 BYTE   W04
 BYTE   N03
 BYTE   W12
 BYTE   N03
 BYTE   W08
 BYTE   N11
 BYTE   W12
 BYTE   N11
 BYTE   W12
 BYTE   N11
 BYTE   W12
 BYTE   PEND 
//  #03 //059   ----------------------------------------
 BYTE   PATT
  POIN2 Label_01A0F4BA
//  #03 //060   ----------------------------------------
 BYTE   PATT
  POIN2 Label_01A0F42C
//  #03 //061   ----------------------------------------
 BYTE   PATT
  POIN2 Label_01A0F444
//  #03 //062   ----------------------------------------
 BYTE   PATT
  POIN2 Label_01A0F45C
//  #03 //063   ----------------------------------------
 BYTE   N11  An0  v060
 BYTE   N44  En2
 BYTE   W12
 BYTE   N11  An0
 BYTE   W12
 BYTE   N11
 BYTE   W12
 BYTE   N05
 BYTE   W06
 BYTE   N05
 BYTE   W06
 BYTE   N11  Gn0
 BYTE   N44  Dn2
 BYTE   W12
 BYTE   N11  Gn0
 BYTE   W12
 BYTE   N11
 BYTE   W12
 BYTE   N05
 BYTE   W06
 BYTE   N05
 BYTE   W06
//  #03 //064   ----------------------------------------
 BYTE   N11  Fn0
 BYTE   N92  Cn2
 BYTE   W12
 BYTE   N11  Fn0
 BYTE   W12
 BYTE   N11
 BYTE   W12
 BYTE   N03
 BYTE   W04
 BYTE   N03
 BYTE   W12
 BYTE   N03
 BYTE   W08
 BYTE   N11
 BYTE   W12
 BYTE   Fn1
 BYTE   W12
 BYTE   En1
 BYTE   W12
//  #03 //065   ----------------------------------------
 BYTE   Dn1
 BYTE   N92  Fn2
 BYTE   W12
 BYTE   N11  Dn1
 BYTE   W12
 BYTE   N11
 BYTE   W12
 BYTE   N03
 BYTE   W04
 BYTE   N03
 BYTE   W12
 BYTE   N03
 BYTE   W08
 BYTE   N11
 BYTE   W12
 BYTE   N11
 BYTE   W12
 BYTE   N11
 BYTE   W12
//  #03 //066   ----------------------------------------
 BYTE   En1
 BYTE   N44  Gn2
 BYTE   W12
 BYTE   N11  En1
 BYTE   W12
 BYTE   N11
 BYTE   W12
 BYTE   N03
 BYTE   W04
 BYTE   N03
 BYTE   W08
 BYTE   N44  Gs2
 BYTE   W04
 BYTE   N03  En1
 BYTE   W08
 BYTE   N11
 BYTE   W12
 BYTE   N11
 BYTE   W12
 BYTE   N11
 BYTE   W12
//  #03 //067   ----------------------------------------
 BYTE   An0
 BYTE   N68  En2
 BYTE   W12
 BYTE   N11  An0
 BYTE   W12
 BYTE   N11
 BYTE   W12
 BYTE   N03
 BYTE   W04
 BYTE   N03
 BYTE   W12
 BYTE   N03
 BYTE   W08
 BYTE   N11
 BYTE   W12
 BYTE   N11
 BYTE   N23  En2
 BYTE   W12
 BYTE   N11  An0
 BYTE   W12
//  #03 //068   ----------------------------------------
 BYTE   En0
 BYTE   N92  Bn2
 BYTE   W12
 BYTE   N11  En0
 BYTE   W12
 BYTE   En1
 BYTE   W12
 BYTE   N05
 BYTE   W06
 BYTE   N11  En0
 BYTE   W12
 BYTE   N05
 BYTE   W06
 BYTE   N11
 BYTE   W12
 BYTE   En1
 BYTE   W12
 BYTE   N11
 BYTE   W12
//  #03 //069   ----------------------------------------
 BYTE   N11
 BYTE   N92  Gs2
 BYTE   W12
 BYTE   N11  En1
 BYTE   W12
 BYTE   N11
 BYTE   W12
 BYTE   N05
 BYTE   W06
 BYTE   N05
 BYTE   W06
 BYTE   N11
 BYTE   W12
 BYTE   N11
 BYTE   W12
 BYTE   N11
 BYTE   W12
 BYTE   N05
 BYTE   W06
 BYTE   N05
 BYTE   W06
//  #03 //070   ----------------------------------------
 BYTE   N23  An0
 BYTE   N23  En2
 BYTE   W24
 BYTE   TIE
 BYTE   W72
//  #03 //071   ----------------------------------------
 BYTE   W92
 BYTE   W03
 BYTE   EOT
 BYTE   W01
//  #03 //072   ----------------------------------------
 BYTE   TIE  Cn2
 BYTE   W96
//  #03 //073   ----------------------------------------
 BYTE   W92
 BYTE   W03
 BYTE   EOT
 BYTE   W01
//  #03 //074   ----------------------------------------
 BYTE   TIE  An1
 BYTE   W96
//  #03 //075   ----------------------------------------
 BYTE   W92
 BYTE   W03
 BYTE   EOT
 BYTE   W01
//  #03 //076   ----------------------------------------
 BYTE   TIE  Bn1
 BYTE   W96
//  #03 //077   ----------------------------------------
 BYTE   PATT
  POIN2 Label_01A0F039
//  #03 //078   ----------------------------------------
 BYTE   EOT
 BYTE   Bn1
 BYTE   N01  Bn1  v032
 BYTE   W01
 BYTE   N02  Cn2
 BYTE   W02
 BYTE   Cs2
 BYTE   W02
 BYTE   Dn2
 BYTE   W02
 BYTE   N01  Ds2
 BYTE   W02
 BYTE   TIE  En2  v060
 BYTE   W96
//  #03 //079   ----------------------------------------
 BYTE   W44
 BYTE   W03
 BYTE   EOT
 BYTE   W13
 BYTE   N11  An0
 BYTE   W12
 BYTE   N23  En1
 BYTE   W24
//  #03 //080   ----------------------------------------
 BYTE   PATT
  POIN2 Label_01A0F06E
//  #03 //081   ----------------------------------------
 BYTE   PATT
  POIN2 Label_01A0F09D
//  #03 //082   ----------------------------------------
 BYTE   PATT
  POIN2 Label_01A0F0B5
//  #03 //083   ----------------------------------------
 BYTE   PATT
  POIN2 Label_01A0F0E4
//  #03 //084   ----------------------------------------
 BYTE   PATT
  POIN2 Label_01A0F0FD
//  #03 //085   ----------------------------------------
 BYTE   PATT
  POIN2 Label_01A0F12C
//  #03 //086   ----------------------------------------
 BYTE   PATT
  POIN2 Label_01A0F144
//  #03 //087   ----------------------------------------
 BYTE   PATT
  POIN2 Label_01A0F173
//  #03 //088   ----------------------------------------
 BYTE   PATT
  POIN2 Label_01A0F06E
//  #03 //089   ----------------------------------------
 BYTE   PATT
  POIN2 Label_01A0F09D
//  #03 //090   ----------------------------------------
 BYTE   PATT
  POIN2 Label_01A0F195
//  #03 //091   ----------------------------------------
 BYTE   PATT
  POIN2 Label_01A0F0E4
//  #03 //092   ----------------------------------------
 BYTE   PATT
  POIN2 Label_01A0F1C9
//  #03 //093   ----------------------------------------
 BYTE   PATT
  POIN2 Label_01A0F1F8
//  #03 //094   ----------------------------------------
 BYTE   PATT
  POIN2 Label_01A0F210
//  #03 //095   ----------------------------------------
 BYTE   PATT
  POIN2 Label_01A0F23F
//  #03 //096   ----------------------------------------
 BYTE   N11  An0  v080
 BYTE   N23  En2
 BYTE   W12
 BYTE   N11  An0
 BYTE   W12
 BYTE   N11
 BYTE   N23  An2
 BYTE   W12
 BYTE   N03  An0
 BYTE   W04
 BYTE   N03
 BYTE   W08
 BYTE   N23  En2
 BYTE   W04
 BYTE   N03  An0
 BYTE   W08
 BYTE   N11
 BYTE   W12
 BYTE   N11
 BYTE   N23  An2
 BYTE   W12
 BYTE   N11  Gn0
 BYTE   W12
//  #03 //097   ----------------------------------------
 BYTE   Fn0
 BYTE   N23  En2
 BYTE   W12
 BYTE   N11  Fn0
 BYTE   W12
 BYTE   N11
 BYTE   N23  An2
 BYTE   W12
 BYTE   N03  Fn0
 BYTE   W04
 BYTE   N03
 BYTE   W08
 BYTE   N23  En2
 BYTE   W04
 BYTE   N03  Fn0
 BYTE   W08
 BYTE   N11
 BYTE   W12
 BYTE   N11
 BYTE   N23  An2
 BYTE   W12
 BYTE   N11  Fn0
 BYTE   W12
//  #03 //098   ----------------------------------------
 BYTE   En0
 BYTE   N23  Dn2
 BYTE   W12
 BYTE   N11  En0
 BYTE   W12
 BYTE   N11
 BYTE   N23  Gn2
 BYTE   W12
 BYTE   N03  En0
 BYTE   W04
 BYTE   N03
 BYTE   W08
 BYTE   N23  Dn2
 BYTE   W04
 BYTE   N03  En0
 BYTE   W08
 BYTE   N11
 BYTE   W12
 BYTE   N11
 BYTE   N23  Gn2
 BYTE   W12
 BYTE   N11  En0
 BYTE   W12
//  #03 //099   ----------------------------------------
 BYTE   An0
 BYTE   N23  En2
 BYTE   W12
 BYTE   N11  An0
 BYTE   W12
 BYTE   N11
 BYTE   N23  An2
 BYTE   W12
 BYTE   N05  An0
 BYTE   W06
 BYTE   N05
 BYTE   W06
 BYTE   N11  Gn0
 BYTE   N23  Dn2
 BYTE   W12
 BYTE   N11  Gn0
 BYTE   W12
 BYTE   N11
 BYTE   N23  Gn2
 BYTE   W12
 BYTE   N05  Gn0
 BYTE   W06
 BYTE   N05
 BYTE   W06
//  #03 //100   ----------------------------------------
 BYTE   N11  Fn0
 BYTE   N23  En2
 BYTE   W12
 BYTE   N11  Fn0
 BYTE   W12
 BYTE   N11
 BYTE   N23  An2
 BYTE   W12
 BYTE   N03  Fn0
 BYTE   W04
 BYTE   N03
 BYTE   W08
 BYTE   N23  En2
 BYTE   W04
 BYTE   N03  Fn0
 BYTE   W08
 BYTE   N11
 BYTE   W12
 BYTE   Fn1
 BYTE   N23  An2
 BYTE   W12
 BYTE   N11  En1
 BYTE   W12
//  #03 //101   ----------------------------------------
 BYTE   Dn1
 BYTE   N23  An2
 BYTE   W12
 BYTE   N11  Dn1
 BYTE   W12
 BYTE   N11
 BYTE   N23  Fn3
 BYTE   W12
 BYTE   N03  Dn1
 BYTE   W04
 BYTE   N03
 BYTE   W08
 BYTE   N23  An2
 BYTE   W04
 BYTE   N03  Dn1
 BYTE   W08
 BYTE   N11
 BYTE   W12
 BYTE   N11
 BYTE   N23  Fn3
 BYTE   W12
 BYTE   N11  Dn1
 BYTE   W12
//  #03 //102   ----------------------------------------
 BYTE   En1
 BYTE   N23  Dn2
 BYTE   W12
 BYTE   N11  En1
 BYTE   W12
 BYTE   N11
 BYTE   N23  Gn2
 BYTE   W12
 BYTE   N03  En1
 BYTE   W04
 BYTE   N03
 BYTE   W08
 BYTE   N23  Dn2
 BYTE   W04
 BYTE   N03  En1
 BYTE   W08
 BYTE   N11
 BYTE   W12
 BYTE   N11
 BYTE   N23  Gn2
 BYTE   W12
 BYTE   N11  En1
 BYTE   W12
//  #03 //103   ----------------------------------------
 BYTE   An0
 BYTE   N23  En2
 BYTE   W12
 BYTE   N11  An0
 BYTE   W12
 BYTE   N11
 BYTE   N23  An2
 BYTE   W12
 BYTE   N03  An0
 BYTE   W04
 BYTE   N03
 BYTE   W08
 BYTE   N23  Dn2
 BYTE   W04
 BYTE   N03  An0
 BYTE   W08
 BYTE   N11
 BYTE   W12
 BYTE   Cs1
 BYTE   N23  Gn2
 BYTE   W12
 BYTE   N11  Cs1
 BYTE   W12
//  #03 //104   ----------------------------------------
 BYTE   Dn1
 BYTE   N23  An2
 BYTE   W12
 BYTE   N11  Dn1
 BYTE   W12
 BYTE   N11
 BYTE   N23  Dn3
 BYTE   W12
 BYTE   N03  Dn1
 BYTE   W04
 BYTE   N03
 BYTE   W08
 BYTE   N23  An2
 BYTE   W04
 BYTE   N03  Dn1
 BYTE   W08
 BYTE   N11
 BYTE   W12
 BYTE   N11
 BYTE   N23  Dn3
 BYTE   W12
 BYTE   N11  Dn1
 BYTE   W12
//  #03 //105   ----------------------------------------
 BYTE   En1
 BYTE   N23  Bn2
 BYTE   W12
 BYTE   N11  En1
 BYTE   W12
 BYTE   N11
 BYTE   N23  Gn3
 BYTE   W12
 BYTE   N03  En1
 BYTE   W04
 BYTE   N03
 BYTE   W08
 BYTE   N23  Bn2
 BYTE   W04
 BYTE   N03  En1
 BYTE   W08
 BYTE   N11
 BYTE   W12
 BYTE   N11
 BYTE   N23  Gn3
 BYTE   W12
 BYTE   N11  En1
 BYTE   W12
//  #03 //106   ----------------------------------------
 BYTE   Fn1
 BYTE   N92  An2
 BYTE   W12
 BYTE   N11  Fn1
 BYTE   W12
 BYTE   N11
 BYTE   W12
 BYTE   N11
 BYTE   W12
 BYTE   N11
 BYTE   W12
 BYTE   N11
 BYTE   W12
 BYTE   N11
 BYTE   W12
 BYTE   N11
 BYTE   W12
//  #03 //107   ----------------------------------------
 BYTE   As0
 BYTE   N44  Dn2
 BYTE   W12
 BYTE   N11  As0
 BYTE   W12
 BYTE   N11
 BYTE   W12
 BYTE   N05
 BYTE   W06
 BYTE   N05
 BYTE   W06
 BYTE   N11  Bn0
 BYTE   N44  Dn2
 BYTE   W12
 BYTE   N11  Bn0
 BYTE   W12
 BYTE   N11
 BYTE   W12
 BYTE   N05
 BYTE   W06
 BYTE   N05
 BYTE   W06
//  #03 //108   ----------------------------------------
 BYTE   N11  En1
 BYTE   N44  Cn2
 BYTE   W12
 BYTE   N11  En1
 BYTE   W12
 BYTE   N11
 BYTE   W12
 BYTE   N03
 BYTE   W04
 BYTE   N03
 BYTE   W08
 BYTE   N44  Bn1
 BYTE   W04
 BYTE   N03  En1
 BYTE   W08
 BYTE   N11
 BYTE   W12
 BYTE   N11
 BYTE   W12
 BYTE   N11
 BYTE   W12
//  #03 //109   ----------------------------------------
 BYTE   En0
 BYTE   N44  Bn1
 BYTE   W12
 BYTE   N11  En0
 BYTE   W12
 BYTE   N11
 BYTE   W12
 BYTE   N03
 BYTE   W04
 BYTE   N03
 BYTE   W08
 BYTE   N44  Bn1
 BYTE   W04
 BYTE   N03  En0
 BYTE   W08
 BYTE   N11
 BYTE   W12
 BYTE   N11
 BYTE   W12
 BYTE   N11
 BYTE   W12
//  #03 //110   ----------------------------------------
 BYTE   N11
 BYTE   N23  Gs2  v092
 BYTE   W12
 BYTE   N11  En0  v080
 BYTE   W12
 BYTE   N11
 BYTE   N23  En2  v092
 BYTE   W12
 BYTE   N03  En0  v080
 BYTE   W04
 BYTE   N03
 BYTE   W08
 BYTE   N23  Bn1  v092
 BYTE   W04
 BYTE   N03  En0  v080
 BYTE   W08
 BYTE   N11
 BYTE   W12
 BYTE   N11
 BYTE   N23  Gs1  v092
 BYTE   W12
 BYTE   N11  En0  v080
 BYTE   W12
//  #03 //111   ----------------------------------------
 BYTE   En1
 BYTE   N23  En2  v092
 BYTE   W12
 BYTE   N11  En1  v080
 BYTE   W12
 BYTE   Dn1
 BYTE   N23  Bn1  v092
 BYTE   W12
 BYTE   N11  Dn1  v080
 BYTE   W12
 BYTE   Bn0
 BYTE   N23  Gs1  v092
 BYTE   W12
 BYTE   N11  Bn0  v080
 BYTE   W12
 BYTE   En0
 BYTE   N23  En1  v092
 BYTE   W12
 BYTE   N11  En0  v080
 BYTE   W12
//  #03 //112   ----------------------------------------
Label_01A0F802:
 BYTE   N11  An0  v080
 BYTE   N92  En2
 BYTE   W12
 BYTE   N11  An0
 BYTE   W12
 BYTE   N11
 BYTE   W12
 BYTE   N03
 BYTE   W04
 BYTE   N03
 BYTE   W12
 BYTE   N03
 BYTE   W08
 BYTE   N11
 BYTE   W12
 BYTE   N11
 BYTE   W12
 BYTE   Gn0
 BYTE   W12
 BYTE   PEND 
//  #03 //113   ----------------------------------------
Label_01A0F81A:
 BYTE   N11  Fn0  v080
 BYTE   N92  Cn2
 BYTE   W12
 BYTE   N11  Fn0
 BYTE   W12
 BYTE   N11
 BYTE   W12
 BYTE   N03
 BYTE   W04
 BYTE   N03
 BYTE   W12
 BYTE   N03
 BYTE   W08
 BYTE   N11
 BYTE   W12
 BYTE   N11
 BYTE   W12
 BYTE   N11
 BYTE   W12
 BYTE   PEND 
//  #03 //114   ----------------------------------------
Label_01A0F832:
 BYTE   N11  En0  v080
 BYTE   N92  Gn2
 BYTE   W12
 BYTE   N11  En0
 BYTE   W12
 BYTE   N11
 BYTE   W12
 BYTE   N03
 BYTE   W04
 BYTE   N03
 BYTE   W12
 BYTE   N03
 BYTE   W08
 BYTE   N11
 BYTE   W12
 BYTE   N11
 BYTE   W12
 BYTE   N11
 BYTE   W12
 BYTE   PEND 
//  #03 //115   ----------------------------------------
 BYTE   An0
 BYTE   N44  Gn2
 BYTE   W12
 BYTE   N11  An0
 BYTE   W12
 BYTE   N11
 BYTE   W12
 BYTE   N05
 BYTE   W06
 BYTE   N05
 BYTE   W06
 BYTE   N11  Gn0
 BYTE   N44  Dn2
 BYTE   W12
 BYTE   N11  Gn0
 BYTE   W12
 BYTE   N11
 BYTE   W12
 BYTE   N05
 BYTE   W06
 BYTE   N05
 BYTE   W06
//  #03 //116   ----------------------------------------
 BYTE   N11  Fn0
 BYTE   N92  An2
 BYTE   W12
 BYTE   N11  Fn0
 BYTE   W12
 BYTE   N11
 BYTE   W12
 BYTE   N03
 BYTE   W04
 BYTE   N03
 BYTE   W12
 BYTE   N03
 BYTE   W08
 BYTE   N11
 BYTE   W12
 BYTE   Fn1
 BYTE   W12
 BYTE   En1
 BYTE   W12
//  #03 //117   ----------------------------------------
 BYTE   Dn1
 BYTE   N92  An2
 BYTE   W12
 BYTE   N11  Dn1
 BYTE   W12
 BYTE   N11
 BYTE   W12
 BYTE   N03
 BYTE   W04
 BYTE   N03
 BYTE   W12
 BYTE   N03
 BYTE   W08
 BYTE   N11
 BYTE   W12
 BYTE   N11
 BYTE   W12
 BYTE   N11
 BYTE   W12
//  #03 //118   ----------------------------------------
Label_01A0F890:
 BYTE   N11  En1  v080
 BYTE   N92  Bn2
 BYTE   W12
 BYTE   N11  En1
 BYTE   W12
 BYTE   N11
 BYTE   W12
 BYTE   N03
 BYTE   W04
 BYTE   N03
 BYTE   W12
 BYTE   N03
 BYTE   W08
 BYTE   N11
 BYTE   W12
 BYTE   N11
 BYTE   W12
 BYTE   N11
 BYTE   W12
 BYTE   PEND 
//  #03 //119   ----------------------------------------
 BYTE   PATT
  POIN2 Label_01A0F890
//  #03 //120   ----------------------------------------
 BYTE   PATT
  POIN2 Label_01A0F802
//  #03 //121   ----------------------------------------
 BYTE   PATT
  POIN2 Label_01A0F81A
//  #03 //122   ----------------------------------------
 BYTE   PATT
  POIN2 Label_01A0F832
//  #03 //123   ----------------------------------------
 BYTE   N11  An0  v080
 BYTE   N44  En2
 BYTE   W12
 BYTE   N11  An0
 BYTE   W12
 BYTE   N11
 BYTE   W12
 BYTE   N05
 BYTE   W06
 BYTE   N05
 BYTE   W06
 BYTE   N11  Gn0
 BYTE   N44  Dn2
 BYTE   W12
 BYTE   N11  Gn0
 BYTE   W12
 BYTE   N11
 BYTE   W12
 BYTE   N05
 BYTE   W06
 BYTE   N05
 BYTE   W06
//  #03 //124   ----------------------------------------
 BYTE   N11  Fn0
 BYTE   N92  Cn2
 BYTE   W12
 BYTE   N11  Fn0
 BYTE   W12
 BYTE   N11
 BYTE   W12
 BYTE   N03
 BYTE   W04
 BYTE   N03
 BYTE   W12
 BYTE   N03
 BYTE   W08
 BYTE   N11
 BYTE   W12
 BYTE   Fn1
 BYTE   W12
 BYTE   En1
 BYTE   W12
//  #03 //125   ----------------------------------------
 BYTE   Dn1
 BYTE   N92  Fn2
 BYTE   W12
 BYTE   N11  Dn1
 BYTE   W12
 BYTE   N11
 BYTE   W12
 BYTE   N03
 BYTE   W04
 BYTE   N03
 BYTE   W12
 BYTE   N03
 BYTE   W08
 BYTE   N11
 BYTE   W12
 BYTE   N11
 BYTE   W12
 BYTE   N11
 BYTE   W12
//  #03 //126   ----------------------------------------
 BYTE   En1
 BYTE   N44  Gn2
 BYTE   W12
 BYTE   N11  En1
 BYTE   W12
 BYTE   N11
 BYTE   W12
 BYTE   N03
 BYTE   W04
 BYTE   N03
 BYTE   W08
 BYTE   N44  Gs2
 BYTE   W04
 BYTE   N03  En1
 BYTE   W08
 BYTE   N11
 BYTE   W12
 BYTE   N11
 BYTE   W12
 BYTE   N11
 BYTE   W12
//  #03 //127   ----------------------------------------
 BYTE   An0
 BYTE   N68  En2
 BYTE   W12
 BYTE   N11  An0
 BYTE   W12
 BYTE   N11
 BYTE   W12
 BYTE   N03
 BYTE   W04
 BYTE   N03
 BYTE   W12
 BYTE   N03
 BYTE   W08
 BYTE   N11
 BYTE   W12
 BYTE   N11
 BYTE   N23  En2
 BYTE   W12
 BYTE   N11  An0
 BYTE   W12
//  #03 //128   ----------------------------------------
 BYTE   En0
 BYTE   N92  Bn2
 BYTE   W12
 BYTE   N11  En0
 BYTE   W12
 BYTE   En1
 BYTE   W12
 BYTE   N05
 BYTE   W06
 BYTE   N11  En0
 BYTE   W12
 BYTE   N05
 BYTE   W06
 BYTE   N11
 BYTE   W12
 BYTE   En1
 BYTE   W12
 BYTE   N11
 BYTE   W12
//  #03 //129   ----------------------------------------
 BYTE   N11
 BYTE   N92  Gs2
 BYTE   W12
 BYTE   N11  En1
 BYTE   W12
 BYTE   N11
 BYTE   W12
 BYTE   N05
 BYTE   W06
 BYTE   N05
 BYTE   W06
 BYTE   N11
 BYTE   W12
 BYTE   N11
 BYTE   W12
 BYTE   N11
 BYTE   W12
 BYTE   N05
 BYTE   W06
 BYTE   N05
 BYTE   W06
//  #03 //130   ----------------------------------------
 BYTE   N23  An0
 BYTE   TIE  En2
 BYTE   W96
//  #03 //131   ----------------------------------------
 BYTE   W92
 BYTE   W03
 BYTE   EOT
 BYTE   W01
//  #03 //132   ----------------------------------------
 BYTE   TIE  Cn2  v060
 BYTE   W96
//  #03 //133   ----------------------------------------
 BYTE   W92
 BYTE   W03
 BYTE   EOT
 BYTE   W01
//  #03 //134   ----------------------------------------
 BYTE   TIE  An1  v080
 BYTE   W96
//  #03 //135   ----------------------------------------
 BYTE   W92
 BYTE   W03
 BYTE   EOT
 BYTE   W01
//  #03 //136   ----------------------------------------
 BYTE   TIE  Bn1
 BYTE   W96
//  #03 //137   ----------------------------------------
 BYTE   PATT
  POIN2 Label_01A0F039
//  #03 //138   ----------------------------------------
 BYTE   EOT
 BYTE   Bn1
 BYTE   N01  Bn1  v032
 BYTE   W01
 BYTE   N02  Cn2
 BYTE   W02
 BYTE   Cs2
 BYTE   W02
 BYTE   Dn2
 BYTE   W02
 BYTE   N01  Ds2
 BYTE   W02
 BYTE   TIE  En2  v060
 BYTE   W96
//  #03 //139   ----------------------------------------
 BYTE   W44
 BYTE   W03
 BYTE   EOT
 BYTE   W13
 BYTE   N11  An0  v080
 BYTE   W12
 BYTE   N23  En1
 BYTE   W24
//  #03 //140   ----------------------------------------
 BYTE   GoTo
  POIN2 Label_01A0F06E
 BYTE   FINE

//**************** Track 4 (Midi-Chn.3) ****************//

song02EE_004:
//  #04 //000   ----------------------------------------
 BYTE   KEYSH   song02EE_key+0
 BYTE   VOICE   78
 BYTE   MODT 0
 BYTE   LFOS 44
 BYTE   PAN   c_v+15
 BYTE   VOL   36*song02EE_mvl/mxv
 BYTE   BENDR  12
 BYTE   W96
//  #04 //001   ----------------------------------------
 BYTE   W96
//  #04 //002   ----------------------------------------
 BYTE   W96
//  #04 //003   ----------------------------------------
 BYTE   W96
//  #04 //004   ----------------------------------------
 BYTE   W96
//  #04 //005   ----------------------------------------
 BYTE   W96
//  #04 //006   ----------------------------------------
 BYTE   W96
//  #04 //007   ----------------------------------------
 BYTE   W96
//  #04 //008   ----------------------------------------
 BYTE   W96
//  #04 //009   ----------------------------------------
 BYTE   W96
//  #04 //010   ----------------------------------------
 BYTE   TIE  An0  v060
 BYTE   W96
//  #04 //011   ----------------------------------------
 BYTE   W92
 BYTE   W03
 BYTE   EOT
 BYTE   W01
//  #04 //012   ----------------------------------------
 BYTE   TIE  Fn0
 BYTE   W96
//  #04 //013   ----------------------------------------
 BYTE   W92
 BYTE   W03
 BYTE   EOT
 BYTE   W01
//  #04 //014   ----------------------------------------
 BYTE   TIE  Dn1
 BYTE   W96
//  #04 //015   ----------------------------------------
 BYTE   W92
 BYTE   W03
 BYTE   EOT
 BYTE   W01
//  #04 //016   ----------------------------------------
 BYTE   TIE  En1
 BYTE   W96
//  #04 //017   ----------------------------------------
 BYTE   W96
//  #04 //018   ----------------------------------------
 BYTE   W96
//  #04 //019   ----------------------------------------
 BYTE   W92
 BYTE   W03
 BYTE   EOT
 BYTE   W01
//  #04 //020   ----------------------------------------
Label_01A0FFD3:
 BYTE   N23  An1  v060
 BYTE   W24
 BYTE   N05
 BYTE   W06
 BYTE   N05
 BYTE   W06
 BYTE   N05
 BYTE   W06
 BYTE   N05
 BYTE   W06
 BYTE   N23
 BYTE   W24
 BYTE   N05
 BYTE   W06
 BYTE   N05
 BYTE   W06
 BYTE   N05
 BYTE   W06
 BYTE   N05
 BYTE   W06
 BYTE   PEND 
//  #04 //021   ----------------------------------------
 BYTE   N23
 BYTE   W96
//  #04 //022   ----------------------------------------
Label_01A0FFEC:
 BYTE   N23  Fn1  v060
 BYTE   W24
 BYTE   N05
 BYTE   W06
 BYTE   N05
 BYTE   W06
 BYTE   N05
 BYTE   W06
 BYTE   N05
 BYTE   W06
 BYTE   N23
 BYTE   W24
 BYTE   N05
 BYTE   W06
 BYTE   N05
 BYTE   W06
 BYTE   N05
 BYTE   W06
 BYTE   N05
 BYTE   W06
 BYTE   PEND 
//  #04 //023   ----------------------------------------
 BYTE   N23
 BYTE   W96
//  #04 //024   ----------------------------------------
Label_01A10005:
 BYTE   N23  Dn1  v060
 BYTE   W24
 BYTE   N05
 BYTE   W06
 BYTE   N05
 BYTE   W06
 BYTE   N05
 BYTE   W06
 BYTE   N05
 BYTE   W06
 BYTE   N23
 BYTE   W24
 BYTE   N05
 BYTE   W06
 BYTE   N05
 BYTE   W06
 BYTE   N05
 BYTE   W06
 BYTE   N05
 BYTE   W06
 BYTE   PEND 
//  #04 //025   ----------------------------------------
 BYTE   N23
 BYTE   W96
//  #04 //026   ----------------------------------------
Label_01A1001E:
 BYTE   N23  En1  v060
 BYTE   W24
 BYTE   N05
 BYTE   W06
 BYTE   N05
 BYTE   W06
 BYTE   N05
 BYTE   W06
 BYTE   N05
 BYTE   W06
 BYTE   N23
 BYTE   W24
 BYTE   N05
 BYTE   W06
 BYTE   N05
 BYTE   W06
 BYTE   N05
 BYTE   W06
 BYTE   N05
 BYTE   W06
 BYTE   PEND 
//  #04 //027   ----------------------------------------
 BYTE   N23
 BYTE   W96
//  #04 //028   ----------------------------------------
 BYTE   PATT
  POIN2 Label_01A0FFD3
//  #04 //029   ----------------------------------------
 BYTE   N23  An1  v060
 BYTE   W96
//  #04 //030   ----------------------------------------
 BYTE   PATT
  POIN2 Label_01A0FFEC
//  #04 //031   ----------------------------------------
 BYTE   N23  Fn1  v060
 BYTE   W96
//  #04 //032   ----------------------------------------
 BYTE   PATT
  POIN2 Label_01A10005
//  #04 //033   ----------------------------------------
 BYTE   N23  Dn1  v060
 BYTE   W96
//  #04 //034   ----------------------------------------
 BYTE   PATT
  POIN2 Label_01A1001E
//  #04 //035   ----------------------------------------
 BYTE   N23  En1  v060
 BYTE   W96
//  #04 //036   ----------------------------------------
 BYTE   An0
 BYTE   W24
 BYTE   En1
 BYTE   W24
 BYTE   An0
 BYTE   W24
 BYTE   En1
 BYTE   W24
//  #04 //037   ----------------------------------------
Label_01A10063:
 BYTE   N23  Fn0  v060
 BYTE   W24
 BYTE   Cn1
 BYTE   W24
 BYTE   Fn0
 BYTE   W24
 BYTE   Cn1
 BYTE   W24
 BYTE   PEND 
//  #04 //038   ----------------------------------------
Label_01A1006E:
 BYTE   N23  En0  v060
 BYTE   W24
 BYTE   Bn0
 BYTE   W24
 BYTE   En0
 BYTE   W24
 BYTE   Bn0
 BYTE   W24
 BYTE   PEND 
//  #04 //039   ----------------------------------------
Label_01A10079:
 BYTE   N23  An0  v060
 BYTE   W24
 BYTE   En1
 BYTE   W24
 BYTE   Gn0
 BYTE   W24
 BYTE   Dn1
 BYTE   W24
 BYTE   PEND 
//  #04 //040   ----------------------------------------
 BYTE   PATT
  POIN2 Label_01A10063
//  #04 //041   ----------------------------------------
Label_01A10089:
 BYTE   N23  Dn1  v060
 BYTE   W24
 BYTE   An1
 BYTE   W24
 BYTE   Dn1
 BYTE   W24
 BYTE   An1
 BYTE   W24
 BYTE   PEND 
//  #04 //042   ----------------------------------------
 BYTE   PATT
  POIN2 Label_01A1006E
//  #04 //043   ----------------------------------------
 BYTE   PATT
  POIN2 Label_01A10079
//  #04 //044   ----------------------------------------
 BYTE   PATT
  POIN2 Label_01A10089
//  #04 //045   ----------------------------------------
 BYTE   N23  En1  v060
 BYTE   W24
 BYTE   Bn1
 BYTE   W24
 BYTE   En1
 BYTE   W24
 BYTE   Bn1
 BYTE   W24
//  #04 //046   ----------------------------------------
 BYTE   N92  Fn1
 BYTE   W96
//  #04 //047   ----------------------------------------
 BYTE   N44  As0
 BYTE   W48
 BYTE   Bn0
 BYTE   W48
//  #04 //048   ----------------------------------------
Label_01A100B5:
 BYTE   N44  En0  v060
 BYTE   W48
 BYTE   N44
 BYTE   W48
 BYTE   PEND 
//  #04 //049   ----------------------------------------
 BYTE   PATT
  POIN2 Label_01A100B5
//  #04 //050   ----------------------------------------
 BYTE   N92  En0  v060
 BYTE   W96
//  #04 //051   ----------------------------------------
 BYTE   N92
 BYTE   W96
//  #04 //052   ----------------------------------------
 BYTE   An0
 BYTE   W96
//  #04 //053   ----------------------------------------
 BYTE   Fn0
 BYTE   W96
//  #04 //054   ----------------------------------------
 BYTE   En0
 BYTE   W96
//  #04 //055   ----------------------------------------
Label_01A100CD:
 BYTE   N44  An0  v060
 BYTE   W48
 BYTE   Gn0
 BYTE   W48
 BYTE   PEND 
//  #04 //056   ----------------------------------------
 BYTE   N92  Fn0
 BYTE   W96
//  #04 //057   ----------------------------------------
 BYTE   Dn0
 BYTE   W96
//  #04 //058   ----------------------------------------
 BYTE   En0
 BYTE   W96
//  #04 //059   ----------------------------------------
 BYTE   N92
 BYTE   W96
//  #04 //060   ----------------------------------------
 BYTE   An0
 BYTE   W96
//  #04 //061   ----------------------------------------
 BYTE   Fn0
 BYTE   W96
//  #04 //062   ----------------------------------------
 BYTE   En0
 BYTE   W96
//  #04 //063   ----------------------------------------
 BYTE   PATT
  POIN2 Label_01A100CD
//  #04 //064   ----------------------------------------
 BYTE   N92  Fn0  v060
 BYTE   W96
//  #04 //065   ----------------------------------------
 BYTE   Dn0
 BYTE   W96
//  #04 //066   ----------------------------------------
 BYTE   PATT
  POIN2 Label_01A100B5
//  #04 //067   ----------------------------------------
 BYTE   N92  An0  v060
 BYTE   W96
//  #04 //068   ----------------------------------------
 BYTE   En0
 BYTE   W96
//  #04 //069   ----------------------------------------
 BYTE   N92
 BYTE   W96
//  #04 //070   ----------------------------------------
 BYTE   N23  An0
 BYTE   W24
 BYTE   TIE
 BYTE   W72
//  #04 //071   ----------------------------------------
 BYTE   W24
 BYTE   N68  En4  v032
 BYTE   W68
 BYTE   W03
 BYTE   EOT
 BYTE   An0
 BYTE   W01
//  #04 //072   ----------------------------------------
 BYTE   TIE  Fn0  v060
 BYTE   W96
//  #04 //073   ----------------------------------------
 BYTE   W24
 BYTE   N68  An4  v032
 BYTE   W68
 BYTE   W03
 BYTE   EOT
 BYTE   Fn0
 BYTE   W01
//  #04 //074   ----------------------------------------
 BYTE   TIE  Dn1  v060
 BYTE   W96
//  #04 //075   ----------------------------------------
 BYTE   W24
 BYTE   N68  Cn5  v032
 BYTE   W68
 BYTE   W03
 BYTE   EOT
 BYTE   Dn1
 BYTE   W01
//  #04 //076   ----------------------------------------
 BYTE   TIE  En1  v060
 BYTE   N68  Dn5  v032
 BYTE   W72
 BYTE   N23  En5
 BYTE   W24
//  #04 //077   ----------------------------------------
 BYTE   N44  An5
 BYTE   W48
 BYTE   TIE  Bn5
 BYTE   W48
//  #04 //078   ----------------------------------------
 BYTE   W96
//  #04 //079   ----------------------------------------
 BYTE   W92
 BYTE   W03
 BYTE   EOT
 BYTE   En1  v095
 BYTE   W01
//  #04 //080   ----------------------------------------
 BYTE   N23  An1  v060
 BYTE   N23  An4  v116
 BYTE   W24
 BYTE   N05  An1  v060
 BYTE   W06
 BYTE   N05
 BYTE   W06
 BYTE   N05
 BYTE   W06
 BYTE   N05
 BYTE   W06
 BYTE   N23
 BYTE   W24
 BYTE   N05
 BYTE   W06
 BYTE   N05
 BYTE   W06
 BYTE   N05
 BYTE   W06
 BYTE   N05
 BYTE   W06
//  #04 //081   ----------------------------------------
 BYTE   N23
 BYTE   N23  Cn4  v112
 BYTE   W24
 BYTE   N23
 BYTE   W24
 BYTE   En4  v116
 BYTE   W24
 BYTE   N23
 BYTE   W24
//  #04 //082   ----------------------------------------
 BYTE   Fn1  v060
 BYTE   N23  An4  v096
 BYTE   W24
 BYTE   N05  Fn1  v060
 BYTE   W06
 BYTE   N05
 BYTE   W06
 BYTE   N05
 BYTE   W06
 BYTE   N05
 BYTE   W06
 BYTE   N23
 BYTE   W24
 BYTE   N05
 BYTE   W06
 BYTE   N05
 BYTE   W06
 BYTE   N05
 BYTE   W06
 BYTE   N05
 BYTE   W06
//  #04 //083   ----------------------------------------
 BYTE   N23
 BYTE   N23  Cn4  v116
 BYTE   W24
 BYTE   Cn4  v112
 BYTE   W24
 BYTE   En4  v116
 BYTE   W24
 BYTE   En4  v120
 BYTE   W24
//  #04 //084   ----------------------------------------
 BYTE   Dn1  v060
 BYTE   N23  An4  v116
 BYTE   W24
 BYTE   N05  Dn1  v060
 BYTE   W06
 BYTE   N05
 BYTE   W06
 BYTE   N05
 BYTE   W06
 BYTE   N05
 BYTE   W06
 BYTE   N23
 BYTE   W24
 BYTE   N05
 BYTE   W06
 BYTE   N05
 BYTE   W06
 BYTE   N05
 BYTE   W06
 BYTE   N05
 BYTE   W06
//  #04 //085   ----------------------------------------
 BYTE   N23
 BYTE   N23  Cn4  v116
 BYTE   W24
 BYTE   Cn4  v108
 BYTE   W24
 BYTE   En4
 BYTE   W24
 BYTE   En4  v120
 BYTE   W24
//  #04 //086   ----------------------------------------
 BYTE   En1  v060
 BYTE   N23  An4  v112
 BYTE   W24
 BYTE   N05  En1  v060
 BYTE   W06
 BYTE   N05
 BYTE   W06
 BYTE   N05
 BYTE   W06
 BYTE   N05
 BYTE   W06
 BYTE   N23
 BYTE   W24
 BYTE   N05
 BYTE   W06
 BYTE   N05
 BYTE   W06
 BYTE   N05
 BYTE   W06
 BYTE   N05
 BYTE   W06
//  #04 //087   ----------------------------------------
 BYTE   N23
 BYTE   N23  Cn4  v112
 BYTE   W24
 BYTE   Cn4  v108
 BYTE   W24
 BYTE   En4  v120
 BYTE   W24
 BYTE   N23
 BYTE   W24
//  #04 //088   ----------------------------------------
 BYTE   An1  v060
 BYTE   N23  An4  v120
 BYTE   W24
 BYTE   N05  An1  v060
 BYTE   W06
 BYTE   N05
 BYTE   W06
 BYTE   N05
 BYTE   W06
 BYTE   N05
 BYTE   W06
 BYTE   N23
 BYTE   W24
 BYTE   N05
 BYTE   W06
 BYTE   N05
 BYTE   W06
 BYTE   N05
 BYTE   W06
 BYTE   N05
 BYTE   W06
//  #04 //089   ----------------------------------------
 BYTE   N23
 BYTE   N23  Cn4  v108
 BYTE   W24
 BYTE   Cn4  v112
 BYTE   W24
 BYTE   En4  v116
 BYTE   W24
 BYTE   N23
 BYTE   W24
//  #04 //090   ----------------------------------------
 BYTE   Fn1  v060
 BYTE   N23  An4  v120
 BYTE   W24
 BYTE   N05  Fn1  v060
 BYTE   W06
 BYTE   N05
 BYTE   W06
 BYTE   N05
 BYTE   W06
 BYTE   N05
 BYTE   W06
 BYTE   N23
 BYTE   W24
 BYTE   N05
 BYTE   W06
 BYTE   N05
 BYTE   W06
 BYTE   N05
 BYTE   W06
 BYTE   N05
 BYTE   W06
//  #04 //091   ----------------------------------------
 BYTE   N23
 BYTE   N23  Cn4  v112
 BYTE   W24
 BYTE   Cn4  v108
 BYTE   W24
 BYTE   En4  v120
 BYTE   W24
 BYTE   N23
 BYTE   W24
//  #04 //092   ----------------------------------------
 BYTE   Dn1  v060
 BYTE   N23  An4  v120
 BYTE   W24
 BYTE   N05  Dn1  v060
 BYTE   W06
 BYTE   N05
 BYTE   W06
 BYTE   N05
 BYTE   W06
 BYTE   N05
 BYTE   W06
 BYTE   N23
 BYTE   W24
 BYTE   N05
 BYTE   W06
 BYTE   N05
 BYTE   W06
 BYTE   N05
 BYTE   W06
 BYTE   N05
 BYTE   W06
//  #04 //093   ----------------------------------------
 BYTE   N23
 BYTE   N23  Cn4  v112
 BYTE   W24
 BYTE   N23
 BYTE   W24
 BYTE   En4  v116
 BYTE   W24
 BYTE   En4  v120
 BYTE   W24
//  #04 //094   ----------------------------------------
 BYTE   En1  v060
 BYTE   N23  An4  v104
 BYTE   W24
 BYTE   N05  En1  v060
 BYTE   W06
 BYTE   N05
 BYTE   W06
 BYTE   N05
 BYTE   W06
 BYTE   N05
 BYTE   W06
 BYTE   N23
 BYTE   W24
 BYTE   N05
 BYTE   W06
 BYTE   N05
 BYTE   W06
 BYTE   N05
 BYTE   W06
 BYTE   N05
 BYTE   W06
//  #04 //095   ----------------------------------------
 BYTE   N23
 BYTE   N23  Cn4  v112
 BYTE   W24
 BYTE   N23
 BYTE   W24
 BYTE   En4  v116
 BYTE   W24
 BYTE   En4  v120
 BYTE   W24
//  #04 //096   ----------------------------------------
 BYTE   An0  v080
 BYTE   N23  An4  v104
 BYTE   W24
 BYTE   En1  v080
 BYTE   N23  En4
 BYTE   W24
 BYTE   An0
 BYTE   N11  An4
 BYTE   W12
 BYTE   Bn4
 BYTE   W12
 BYTE   N23  En1
 BYTE   N11  Cn5
 BYTE   W12
 BYTE   Dn5
 BYTE   W12
//  #04 //097   ----------------------------------------
 BYTE   N23  Fn0
 BYTE   N68  En5
 BYTE   W24
 BYTE   N23  Cn1
 BYTE   W24
 BYTE   Fn0
 BYTE   W24
 BYTE   Cn1
 BYTE   N11  Dn5
 BYTE   W12
 BYTE   Cn5
 BYTE   W12
//  #04 //098   ----------------------------------------
 BYTE   N23  En0
 BYTE   N44  Dn5
 BYTE   W24
 BYTE   N23  Bn0
 BYTE   W24
 BYTE   En0
 BYTE   N23  Dn5
 BYTE   W24
 BYTE   Bn0
 BYTE   N11  Gn5
 BYTE   W12
 BYTE   TIE  En5
 BYTE   W12
//  #04 //099   ----------------------------------------
 BYTE   N23  An0
 BYTE   W24
 BYTE   En1
 BYTE   W24
 BYTE   Gn0
 BYTE   W24
 BYTE   Dn1
 BYTE   W23
 BYTE   EOT
 BYTE   En5
 BYTE   W01
//  #04 //100   ----------------------------------------
 BYTE   N23  Fn0
 BYTE   N56  An4
 BYTE   W24
 BYTE   N23  Cn1
 BYTE   W24
 BYTE   Fn0
 BYTE   W12
 BYTE   N11  Bn4
 BYTE   W12
 BYTE   N23  Cn1
 BYTE   N11  Cn5
 BYTE   W12
 BYTE   Dn5
 BYTE   W12
//  #04 //101   ----------------------------------------
 BYTE   N23  Dn1
 BYTE   N68  En5
 BYTE   W24
 BYTE   N23  An1
 BYTE   W24
 BYTE   Dn1
 BYTE   W24
 BYTE   An1
 BYTE   N11  Dn5
 BYTE   W12
 BYTE   Cn5
 BYTE   W12
//  #04 //102   ----------------------------------------
 BYTE   N23  En0
 BYTE   N32  Dn5
 BYTE   W24
 BYTE   N23  Bn0
 BYTE   W12
 BYTE   N32  Bn4
 BYTE   W12
 BYTE   N23  En0
 BYTE   W24
 BYTE   Bn0
 BYTE   N23  Gn4
 BYTE   W24
//  #04 //103   ----------------------------------------
 BYTE   An0
 BYTE   N68  En4
 BYTE   W24
 BYTE   N23  En1
 BYTE   W24
 BYTE   Gn0
 BYTE   W24
 BYTE   Dn1
 BYTE   W24
//  #04 //104   ----------------------------------------
 BYTE   N23
 BYTE   N32  An3
 BYTE   W24
 BYTE   N23  An1
 BYTE   W12
 BYTE   N32  Bn3
 BYTE   W12
 BYTE   N23  Dn1
 BYTE   W24
 BYTE   An1
 BYTE   N23  Cn4
 BYTE   W24
//  #04 //105   ----------------------------------------
 BYTE   En1
 BYTE   N23  Dn4
 BYTE   W24
 BYTE   Bn1
 BYTE   N11  En4
 BYTE   W12
 BYTE   N56  Dn4
 BYTE   W12
 BYTE   N23  En1
 BYTE   W24
 BYTE   Bn1
 BYTE   W24
//  #04 //106   ----------------------------------------
 BYTE   N92  Fn1
 BYTE   N32  Bn3
 BYTE   W36
 BYTE   Cn4
 BYTE   W36
 BYTE   N23  Dn4
 BYTE   W24
//  #04 //107   ----------------------------------------
 BYTE   N44  As0
 BYTE   N23  En4
 BYTE   W24
 BYTE   N11  Fn4
 BYTE   W12
 BYTE   N32  En4
 BYTE   W12
 BYTE   N44  Bn0
 BYTE   W24
 BYTE   N23  Dn4
 BYTE   W24
//  #04 //108   ----------------------------------------
 BYTE   N44  En0
 BYTE   N44  Cn4
 BYTE   W48
 BYTE   En0
 BYTE   N44  Bn3
 BYTE   W48
//  #04 //109   ----------------------------------------
 BYTE   En0
 BYTE   N44  Fn4
 BYTE   W48
 BYTE   En0
 BYTE   N44  En4
 BYTE   W48
//  #04 //110   ----------------------------------------
 BYTE   N92  En0
 BYTE   TIE  En4
 BYTE   W96
//  #04 //111   ----------------------------------------
 BYTE   N92  En0
 BYTE   W92
 BYTE   W03
 BYTE   EOT
 BYTE   En4
 BYTE   W01
//  #04 //112   ----------------------------------------
Label_01A10354:
 BYTE   N92  An0  v080
 BYTE   N23  Cn5
 BYTE   W24
 BYTE   N11  Bn4
 BYTE   W12
 BYTE   N23  Cn5
 BYTE   W24
 BYTE   N32  En5
 BYTE   W36
 BYTE   PEND 
//  #04 //113   ----------------------------------------
Label_01A10364:
 BYTE   N92  Fn0  v080
 BYTE   N44  An5
 BYTE   W48
 BYTE   N23  Bn5
 BYTE   W24
 BYTE   Cn6
 BYTE   W24
 BYTE   PEND 
//  #04 //114   ----------------------------------------
 BYTE   N92  En0
 BYTE   N44  Bn5
 BYTE   W48
 BYTE   N23  Gn5
 BYTE   W24
 BYTE   N11  Dn5
 BYTE   W12
 BYTE   TIE  En5
 BYTE   W12
//  #04 //115   ----------------------------------------
Label_01A1037E:
 BYTE   N44  An0  v080
 BYTE   W48
 BYTE   Gn0
 BYTE   W44
 BYTE   W03
 BYTE   PEND 
 BYTE   EOT
 BYTE   En5
 BYTE   W01
//  #04 //116   ----------------------------------------
Label_01A10389:
 BYTE   N92  Fn0  v080
 BYTE   N23  An5
 BYTE   W24
 BYTE   N11  Gn5
 BYTE   W12
 BYTE   N32  En5
 BYTE   W36
 BYTE   N23  Cn5
 BYTE   W24
 BYTE   PEND 
//  #04 //117   ----------------------------------------
Label_01A10399:
 BYTE   N92  Dn0  v080
 BYTE   N68  An4
 BYTE   W72
 BYTE   N23  Cn5
 BYTE   W24
 BYTE   PEND 
//  #04 //118   ----------------------------------------
 BYTE   N92  En0
 BYTE   N92  Dn5
 BYTE   W96
//  #04 //119   ----------------------------------------
 BYTE   En0
 BYTE   N92  En5
 BYTE   W96
//  #04 //120   ----------------------------------------
 BYTE   PATT
  POIN2 Label_01A10354
//  #04 //121   ----------------------------------------
 BYTE   PATT
  POIN2 Label_01A10364
//  #04 //122   ----------------------------------------
 BYTE   N92  En0  v080
 BYTE   N44  Dn6
 BYTE   W48
 BYTE   N23  Bn5
 BYTE   W24
 BYTE   N11  Gn5
 BYTE   W12
 BYTE   TIE  En5
 BYTE   W12
//  #04 //123   ----------------------------------------
 BYTE   PATT
  POIN2 Label_01A1037E
//  #04 //124   ----------------------------------------
 BYTE   EOT
 BYTE   En5
 BYTE   W01
//  #04 //125   ----------------------------------------
 BYTE   PATT
  POIN2 Label_01A10389
//  #04 //126   ----------------------------------------
 BYTE   PATT
  POIN2 Label_01A10399
//  #04 //127   ----------------------------------------
 BYTE   N44  En0  v080
 BYTE   N44  Dn5
 BYTE   W48
 BYTE   En0
 BYTE   N44  Bn4
 BYTE   W48
//  #04 //128   ----------------------------------------
 BYTE   N92  An0
 BYTE   N68  An4
 BYTE   W72
 BYTE   N23  Cn6
 BYTE   W24
//  #04 //129   ----------------------------------------
 BYTE   N92  En0
 BYTE   N92  Dn6
 BYTE   W96
//  #04 //130   ----------------------------------------
 BYTE   En0
 BYTE   N92  Bn5
 BYTE   W96
//  #04 //131   ----------------------------------------
 BYTE   TIE  An0  v084
 BYTE   N68  An5  v080
 BYTE   W96
//  #04 //132   ----------------------------------------
 BYTE   W92
 BYTE   W03
 BYTE   EOT
 BYTE   An0
 BYTE   W01
//  #04 //133   ----------------------------------------
 BYTE   TIE  Fn0
 BYTE   W96
//  #04 //134   ----------------------------------------
 BYTE   W92
 BYTE   W03
 BYTE   EOT
 BYTE   W01
//  #04 //135   ----------------------------------------
 BYTE   TIE  Dn1
 BYTE   W96
//  #04 //136   ----------------------------------------
 BYTE   W92
 BYTE   W03
 BYTE   EOT
 BYTE   W01
//  #04 //137   ----------------------------------------
 BYTE   TIE  En1
 BYTE   W96
//  #04 //138   ----------------------------------------
 BYTE   W96
//  #04 //139   ----------------------------------------
 BYTE   W96
//  #04 //140   ----------------------------------------
 BYTE   W92
 BYTE   W03
 BYTE   EOT
 BYTE   W01
//  #04 //141   ----------------------------------------
 BYTE   GoTo
  POIN2 Label_01A0FFD3
 BYTE   FINE

//**************** Track 5 (Midi-Chn.4) ****************//

song02EE_005:
//  #05 //000   ----------------------------------------
 BYTE   KEYSH   song02EE_key+0
 BYTE   VOICE   48
 BYTE   MODT 0
 BYTE   LFOS 44
 BYTE   PAN   c_v+6
 BYTE   VOL   46*song02EE_mvl/mxv
 BYTE   BENDR  12
 BYTE   W96
//  #05 //001   ----------------------------------------
 BYTE   W96
//  #05 //002   ----------------------------------------
 BYTE   TIE  En5  v060
 BYTE   W96
//  #05 //003   ----------------------------------------
 BYTE   W92
 BYTE   W03
 BYTE   EOT
 BYTE   W01
//  #05 //004   ----------------------------------------
 BYTE   TIE  Bn4
 BYTE   W96
//  #05 //005   ----------------------------------------
 BYTE   W92
 BYTE   W03
 BYTE   EOT
 BYTE   W01
//  #05 //006   ----------------------------------------
 BYTE   TIE  Gn5
 BYTE   W96
//  #05 //007   ----------------------------------------
 BYTE   W92
 BYTE   W03
 BYTE   EOT
 BYTE   W01
//  #05 //008   ----------------------------------------
 BYTE   TIE  Dn5
 BYTE   W96
//  #05 //009   ----------------------------------------
 BYTE   W92
 BYTE   W03
 BYTE   EOT
 BYTE   W01
//  #05 //010   ----------------------------------------
 BYTE   W24
 BYTE   N44  Cn4
 BYTE   W48
 BYTE   N23  Bn3
 BYTE   W24
//  #05 //011   ----------------------------------------
Label_019DD698:
 BYTE   N23  An3  v060
 BYTE   W24
 BYTE   N68  En3
 BYTE   W72
 BYTE   PEND 
//  #05 //012   ----------------------------------------
Label_019DD6A0:
 BYTE   N68  En4  v060
 BYTE   W72
 BYTE   N23  Dn4
 BYTE   W24
 BYTE   PEND 
//  #05 //013   ----------------------------------------
Label_019DD6A8:
 BYTE   N23  Cn4  v060
 BYTE   W24
 BYTE   N68  An3
 BYTE   W72
 BYTE   PEND 
//  #05 //014   ----------------------------------------
Label_019DD6B0:
 BYTE   N68  Gn4  v060
 BYTE   W72
 BYTE   N23  Fn4
 BYTE   W24
 BYTE   PEND 
//  #05 //015   ----------------------------------------
Label_019DD6B8:
 BYTE   N23  En4  v060
 BYTE   W24
 BYTE   N68  Cn4
 BYTE   W72
 BYTE   PEND 
//  #05 //016   ----------------------------------------
Label_019DD6C0:
 BYTE   N68  Dn4  v060
 BYTE   W72
 BYTE   N23  En4
 BYTE   W24
 BYTE   PEND 
//  #05 //017   ----------------------------------------
Label_019DD6C8:
 BYTE   N44  An4  v060
 BYTE   W48
 BYTE   TIE  Bn4
 BYTE   W48
 BYTE   PEND 
//  #05 //018   ----------------------------------------
 BYTE   W96
//  #05 //019   ----------------------------------------
 BYTE   W92
 BYTE   W03
 BYTE   EOT
 BYTE   W01
//  #05 //020   ----------------------------------------
Label_019DD6D5:
 BYTE   N23  An4  v060
 BYTE   W24
 BYTE   N05  An3
 BYTE   W06
 BYTE   N05
 BYTE   W06
 BYTE   N05
 BYTE   W06
 BYTE   N05
 BYTE   W06
 BYTE   N23
 BYTE   W24
 BYTE   N05
 BYTE   W06
 BYTE   N05
 BYTE   W06
 BYTE   N05
 BYTE   W06
 BYTE   N05
 BYTE   W06
//  #05 //021   ----------------------------------------
 BYTE   N23
 BYTE   W96
//  #05 //022   ----------------------------------------
Label_019DD6EE:
 BYTE   N23  Cn4  v060
 BYTE   W24
 BYTE   N05  An3
 BYTE   W06
 BYTE   N05
 BYTE   W06
 BYTE   N05
 BYTE   W06
 BYTE   N05
 BYTE   W06
 BYTE   N23
 BYTE   W24
 BYTE   N05
 BYTE   W06
 BYTE   N05
 BYTE   W06
 BYTE   N05
 BYTE   W06
 BYTE   N05
 BYTE   W06
 BYTE   PEND 
//  #05 //023   ----------------------------------------
 BYTE   N23
 BYTE   W96
//  #05 //024   ----------------------------------------
Label_019DD708:
 BYTE   N23  En4  v060
 BYTE   W24
 BYTE   N05  An3
 BYTE   W06
 BYTE   N05
 BYTE   W06
 BYTE   N05
 BYTE   W06
 BYTE   N05
 BYTE   W06
 BYTE   N23
 BYTE   W24
 BYTE   N05
 BYTE   W06
 BYTE   N05
 BYTE   W06
 BYTE   N05
 BYTE   W06
 BYTE   N05
 BYTE   W06
 BYTE   PEND 
//  #05 //025   ----------------------------------------
 BYTE   N23
 BYTE   W96
//  #05 //026   ----------------------------------------
Label_019DD722:
 BYTE   N23  Gn4  v060
 BYTE   W24
 BYTE   N05  An3
 BYTE   W06
 BYTE   N05
 BYTE   W06
 BYTE   N05
 BYTE   W06
 BYTE   N05
 BYTE   W06
 BYTE   N23
 BYTE   W24
 BYTE   N05
 BYTE   W06
 BYTE   N05
 BYTE   W06
 BYTE   N05
 BYTE   W06
 BYTE   N05
 BYTE   W06
 BYTE   PEND 
//  #05 //027   ----------------------------------------
 BYTE   N23
 BYTE   W96
//  #05 //028   ----------------------------------------
 BYTE   Cn4
 BYTE   W24
 BYTE   N05
 BYTE   W06
 BYTE   N05
 BYTE   W06
 BYTE   N05
 BYTE   W06
 BYTE   N05
 BYTE   W06
 BYTE   N23
 BYTE   W24
 BYTE   N05
 BYTE   W06
 BYTE   N05
 BYTE   W06
 BYTE   N05
 BYTE   W06
 BYTE   N05
 BYTE   W06
//  #05 //029   ----------------------------------------
 BYTE   N23
 BYTE   W96
//  #05 //030   ----------------------------------------
 BYTE   En4
 BYTE   W24
 BYTE   N05
 BYTE   W06
 BYTE   N05
 BYTE   W06
 BYTE   N05
 BYTE   W06
 BYTE   N05
 BYTE   W06
 BYTE   N23
 BYTE   W24
 BYTE   N05
 BYTE   W06
 BYTE   N05
 BYTE   W06
 BYTE   N05
 BYTE   W06
 BYTE   N05
 BYTE   W06
//  #05 //031   ----------------------------------------
 BYTE   N23
 BYTE   W96
//  #05 //032   ----------------------------------------
 BYTE   Gn4
 BYTE   W24
 BYTE   N05
 BYTE   W06
 BYTE   N05
 BYTE   W06
 BYTE   N05
 BYTE   W06
 BYTE   N05
 BYTE   W06
 BYTE   N23
 BYTE   W24
 BYTE   N05
 BYTE   W06
 BYTE   N05
 BYTE   W06
 BYTE   N05
 BYTE   W06
 BYTE   N05
 BYTE   W06
//  #05 //033   ----------------------------------------
 BYTE   N23
 BYTE   W96
//  #05 //034   ----------------------------------------
 BYTE   An4
 BYTE   W24
 BYTE   N05
 BYTE   W06
 BYTE   N05
 BYTE   W06
 BYTE   N05
 BYTE   W06
 BYTE   N05
 BYTE   W06
 BYTE   N23
 BYTE   W24
 BYTE   N05
 BYTE   W06
 BYTE   N05
 BYTE   W06
 BYTE   N05
 BYTE   W06
 BYTE   N05
 BYTE   W06
//  #05 //035   ----------------------------------------
 BYTE   N23
 BYTE   W96
//  #05 //036   ----------------------------------------
 BYTE   W24
 BYTE   En3
 BYTE   W24
 BYTE   N11  An3
 BYTE   W12
 BYTE   Bn3
 BYTE   W12
 BYTE   Cn4
 BYTE   W12
 BYTE   Dn4
 BYTE   W12
//  #05 //037   ----------------------------------------
 BYTE   N68  En4
 BYTE   W72
 BYTE   N11  Dn4
 BYTE   W12
 BYTE   Cn4
 BYTE   W12
//  #05 //038   ----------------------------------------
 BYTE   N44  Dn4
 BYTE   W48
 BYTE   N23
 BYTE   W24
 BYTE   N11  Gn4
 BYTE   W12
 BYTE   TIE  En4
 BYTE   W12
//  #05 //039   ----------------------------------------
 BYTE   N44  Cn3  v028
 BYTE   W48
 BYTE   Bn2  v016
 BYTE   W44
 BYTE   W03
 BYTE   EOT
 BYTE   En4
 BYTE   W01
//  #05 //040   ----------------------------------------
 BYTE   N92  An2  v020
 BYTE   N56  An3  v060
 BYTE   W60
 BYTE   N11  Bn3
 BYTE   W12
 BYTE   Cn4
 BYTE   W12
 BYTE   Dn4
 BYTE   W12
//  #05 //041   ----------------------------------------
 BYTE   N68  En3  v032
 BYTE   N68  En4  v060
 BYTE   W72
 BYTE   N11  Dn3  v032
 BYTE   N11  Dn4  v060
 BYTE   W12
 BYTE   Cn3  v020
 BYTE   N11  Cn4  v060
 BYTE   W12
//  #05 //042   ----------------------------------------
 BYTE   N32  Dn3  v024
 BYTE   N32  Dn4  v060
 BYTE   W36
 BYTE   Bn2  v036
 BYTE   N32  Bn3  v060
 BYTE   W36
 BYTE   N23  Gn2  v040
 BYTE   N23  Gn3  v060
 BYTE   W24
//  #05 //043   ----------------------------------------
 BYTE   N44  Dn3  v016
 BYTE   N92  En3  v060
 BYTE   W48
 BYTE   N44  Cs3  v028
 BYTE   W48
//  #05 //044   ----------------------------------------
 BYTE   N68  Dn3  v004
 BYTE   N32  An3  v060
 BYTE   W36
 BYTE   Bn3
 BYTE   W36
 BYTE   N23  Cn4
 BYTE   W24
//  #05 //045   ----------------------------------------
 BYTE   N92  En3  v004
 BYTE   N23  Dn4  v060
 BYTE   W24
 BYTE   N11  En4
 BYTE   W12
 BYTE   N56  Dn4
 BYTE   W60
//  #05 //046   ----------------------------------------
 BYTE   N92  Fn3  v004
 BYTE   N32  Bn3  v060
 BYTE   W36
 BYTE   Cn4
 BYTE   W36
 BYTE   N23  Dn4
 BYTE   W24
//  #05 //047   ----------------------------------------
 BYTE   N44  As2  v028
 BYTE   N23  En4  v060
 BYTE   W24
 BYTE   N11  Fn4
 BYTE   W12
 BYTE   N32  En4
 BYTE   W12
 BYTE   N44  Bn2  v028
 BYTE   W24
 BYTE   N23  Dn4  v060
 BYTE   W24
//  #05 //048   ----------------------------------------
 BYTE   N44  Cn3  v020
 BYTE   N44  Cn4  v060
 BYTE   W48
 BYTE   Bn2  v020
 BYTE   N44  Bn3  v060
 BYTE   W48
//  #05 //049   ----------------------------------------
 BYTE   Fn3  v020
 BYTE   N44  Fn4  v060
 BYTE   W48
 BYTE   En3  v020
 BYTE   N44  En4  v060
 BYTE   W48
//  #05 //050   ----------------------------------------
 BYTE   N23
 BYTE   W24
 BYTE   Bn3  v080
 BYTE   W24
 BYTE   Gs3
 BYTE   W24
 BYTE   En3
 BYTE   W24
//  #05 //051   ----------------------------------------
 BYTE   Bn3
 BYTE   W24
 BYTE   Gs3
 BYTE   W24
 BYTE   En3
 BYTE   W24
 BYTE   Bn2
 BYTE   W24
//  #05 //052   ----------------------------------------
Label_019DD863:
 BYTE   TIE  An3  v080
 BYTE   N23  Cn4  v060
 BYTE   W24
 BYTE   N11  Bn3
 BYTE   W12
 BYTE   N23  Cn4
 BYTE   W24
 BYTE   N32  En4
 BYTE   W36
 BYTE   PEND 
//  #05 //053   ----------------------------------------
 BYTE   N44  An4
 BYTE   W23
 BYTE   EOT
 BYTE   An3
 BYTE   W01
 BYTE   N23  Cn4  v080
 BYTE   W24
 BYTE   Bn3
 BYTE   N23  Bn4  v060
 BYTE   W24
 BYTE   An3  v080
 BYTE   N23  Cn5  v060
 BYTE   W24
//  #05 //054   ----------------------------------------
 BYTE   N92  Bn3  v080
 BYTE   N44  Bn4  v060
 BYTE   W48
 BYTE   N23  Gn4
 BYTE   W24
 BYTE   N11  Dn4
 BYTE   W12
 BYTE   TIE  En4
 BYTE   W12
//  #05 //055   ----------------------------------------
Label_019DD899:
 BYTE   W24
 BYTE   N23  Cn3  v080
 BYTE   W24
 BYTE   N32  Bn2
 BYTE   W36
 BYTE   N11  Cn3
 BYTE   W11
 BYTE   PEND 
 BYTE   EOT
 BYTE   En4
 BYTE   W01
//  #05 //056   ----------------------------------------
Label_019DD8A8:
 BYTE   TIE  En3  v080
 BYTE   N23  An4  v060
 BYTE   W24
 BYTE   N11  Gn4
 BYTE   W12
 BYTE   N32  En4
 BYTE   W36
 BYTE   N23  Cn4
 BYTE   W24
 BYTE   PEND 
//  #05 //057   ----------------------------------------
 BYTE   N68  An3
 BYTE   W23
 BYTE   EOT
 BYTE   En3
 BYTE   W01
 BYTE   N23  Fn3  v080
 BYTE   W24
 BYTE   En3
 BYTE   W24
 BYTE   Dn3
 BYTE   N23  Cn4  v060
 BYTE   W24
//  #05 //058   ----------------------------------------
 BYTE   N44  An3  v080
 BYTE   N92  Dn4  v060
 BYTE   W60
 BYTE   N11  Dn3  v080
 BYTE   W12
 BYTE   Fn3
 BYTE   W12
 BYTE   An3
 BYTE   W12
//  #05 //059   ----------------------------------------
 BYTE   N92  Gs3
 BYTE   N92  En4  v060
 BYTE   W96
//  #05 //060   ----------------------------------------
 BYTE   PATT
  POIN2 Label_019DD863
//  #05 //061   ----------------------------------------
 BYTE   N44  An4  v060
 BYTE   W23
 BYTE   EOT
 BYTE   An3
 BYTE   W01
 BYTE   N23  Cn4  v080
 BYTE   W24
 BYTE   Bn3
 BYTE   N23  Bn4  v060
 BYTE   W24
 BYTE   An3  v080
 BYTE   N23  Cn5  v060
 BYTE   W24
//  #05 //062   ----------------------------------------
 BYTE   N92  Bn3  v080
 BYTE   N44  Dn5  v060
 BYTE   W48
 BYTE   N23  Bn4
 BYTE   W24
 BYTE   N11  Gn4
 BYTE   W12
 BYTE   TIE  En4
 BYTE   W12
//  #05 //063   ----------------------------------------
 BYTE   PATT
  POIN2 Label_019DD899
//  #05 //064   ----------------------------------------
 BYTE   EOT
 BYTE   En4
 BYTE   W01
//  #05 //065   ----------------------------------------
 BYTE   PATT
  POIN2 Label_019DD8A8
//  #05 //066   ----------------------------------------
 BYTE   N68  An3  v060
 BYTE   W23
 BYTE   EOT
 BYTE   En3
 BYTE   W01
 BYTE   N23  Fn3  v080
 BYTE   W24
 BYTE   En3
 BYTE   W24
 BYTE   Dn3
 BYTE   N23  Cn4  v060
 BYTE   W24
//  #05 //067   ----------------------------------------
 BYTE   N44  Dn4
 BYTE   W48
 BYTE   Bn3
 BYTE   W48
//  #05 //068   ----------------------------------------
 BYTE   N23  An3
 BYTE   W24
 BYTE   Dn3  v080
 BYTE   W24
 BYTE   An3
 BYTE   W24
 BYTE   Cn4
 BYTE   N23  Cn5  v060
 BYTE   W24
//  #05 //069   ----------------------------------------
 BYTE   N32  Dn4  v080
 BYTE   N92  Dn5  v060
 BYTE   W36
 BYTE   N05  Dn4  v080
 BYTE   W06
 BYTE   N05
 BYTE   W06
 BYTE   N44
 BYTE   W48
//  #05 //070   ----------------------------------------
 BYTE   N32  Bn3
 BYTE   N92  Bn4  v060
 BYTE   W36
 BYTE   N05  Bn3  v080
 BYTE   W06
 BYTE   N05
 BYTE   W06
 BYTE   N44
 BYTE   W48
//  #05 //071   ----------------------------------------
 BYTE   N23  An3
 BYTE   N23  An4  v060
 BYTE   W24
 BYTE   N44  Cn4
 BYTE   W48
 BYTE   N23  Bn3
 BYTE   W24
//  #05 //072   ----------------------------------------
 BYTE   PATT
  POIN2 Label_019DD698
//  #05 //073   ----------------------------------------
 BYTE   PATT
  POIN2 Label_019DD6A0
//  #05 //074   ----------------------------------------
 BYTE   PATT
  POIN2 Label_019DD6A8
//  #05 //075   ----------------------------------------
 BYTE   PATT
  POIN2 Label_019DD6B0
//  #05 //076   ----------------------------------------
 BYTE   PATT
  POIN2 Label_019DD6B8
//  #05 //077   ----------------------------------------
 BYTE   PATT
  POIN2 Label_019DD6C0
//  #05 //078   ----------------------------------------
 BYTE   PATT
  POIN2 Label_019DD6C8
//  #05 //079   ----------------------------------------
 BYTE   W24
 BYTE   N23  Cn2  v056
 BYTE   W24
 BYTE   TIE  Cn3  v060
 BYTE   W48
//  #05 //080   ----------------------------------------
 BYTE   W92
 BYTE   W03
 BYTE   EOT
 BYTE   EOT
 BYTE   Bn4
 BYTE   W01
//  #05 //081   ----------------------------------------
 BYTE   N23  An2  v096
 BYTE   N23  An4  v060
 BYTE   W24
 BYTE   N05  An3
 BYTE   W06
 BYTE   N05
 BYTE   W06
 BYTE   N05
 BYTE   W06
 BYTE   N05
 BYTE   W06
 BYTE   N23
 BYTE   W24
 BYTE   N05
 BYTE   W06
 BYTE   N05
 BYTE   W06
 BYTE   N05
 BYTE   W06
 BYTE   N05
 BYTE   W06
//  #05 //082   ----------------------------------------
 BYTE   N23
 BYTE   W96
//  #05 //083   ----------------------------------------
 BYTE   PATT
  POIN2 Label_019DD6EE
//  #05 //084   ----------------------------------------
 BYTE   N23  An3  v060
 BYTE   W96
//  #05 //085   ----------------------------------------
 BYTE   PATT
  POIN2 Label_019DD708
//  #05 //086   ----------------------------------------
 BYTE   N23  An3  v060
 BYTE   W96
//  #05 //087   ----------------------------------------
 BYTE   PATT
  POIN2 Label_019DD722
//  #05 //088   ----------------------------------------
 BYTE   N23  An3  v060
 BYTE   W96
//  #05 //089   ----------------------------------------
 BYTE   Cn4
 BYTE   W24
 BYTE   N44  Cn3  v080
 BYTE   N05  Cn4  v060
 BYTE   W06
 BYTE   N05
 BYTE   W06
 BYTE   N05
 BYTE   W06
 BYTE   N05
 BYTE   W06
 BYTE   N23
 BYTE   W24
 BYTE   Bn2  v080
 BYTE   N05  Cn4  v060
 BYTE   W06
 BYTE   N05
 BYTE   W06
 BYTE   N05
 BYTE   W06
 BYTE   N05
 BYTE   W06
//  #05 //090   ----------------------------------------
 BYTE   N23  An2  v080
 BYTE   N23  Cn4  v060
 BYTE   W24
 BYTE   N68  En2  v080
 BYTE   W72
//  #05 //091   ----------------------------------------
 BYTE   En3
 BYTE   N23  En4  v060
 BYTE   W24
 BYTE   N05
 BYTE   W06
 BYTE   N05
 BYTE   W06
 BYTE   N05
 BYTE   W06
 BYTE   N05
 BYTE   W06
 BYTE   N23
 BYTE   W24
 BYTE   Dn3  v080
 BYTE   N05  En4  v060
 BYTE   W06
 BYTE   N05
 BYTE   W06
 BYTE   N05
 BYTE   W06
 BYTE   N05
 BYTE   W06
//  #05 //092   ----------------------------------------
 BYTE   N23  Cn3  v080
 BYTE   N23  En4  v060
 BYTE   W24
 BYTE   N68  An2  v080
 BYTE   W72
//  #05 //093   ----------------------------------------
 BYTE   Gn3
 BYTE   N23  Gn4  v060
 BYTE   W24
 BYTE   N05
 BYTE   W06
 BYTE   N05
 BYTE   W06
 BYTE   N05
 BYTE   W06
 BYTE   N05
 BYTE   W06
 BYTE   N23
 BYTE   W24
 BYTE   Fn3  v080
 BYTE   N05  Gn4  v060
 BYTE   W06
 BYTE   N05
 BYTE   W06
 BYTE   N05
 BYTE   W06
 BYTE   N05
 BYTE   W06
//  #05 //094   ----------------------------------------
 BYTE   N23  En3  v080
 BYTE   N23  Gn4  v060
 BYTE   W24
 BYTE   N68  Cn3  v080
 BYTE   W72
//  #05 //095   ----------------------------------------
 BYTE   Dn3
 BYTE   N23  An4  v060
 BYTE   W24
 BYTE   N05
 BYTE   W06
 BYTE   N05
 BYTE   W06
 BYTE   N05
 BYTE   W06
 BYTE   N05
 BYTE   W06
 BYTE   N23
 BYTE   W24
 BYTE   En3  v080
 BYTE   N05  An4  v060
 BYTE   W06
 BYTE   N05
 BYTE   W06
 BYTE   N05
 BYTE   W06
 BYTE   N05
 BYTE   W06
//  #05 //096   ----------------------------------------
 BYTE   N44  An3  v080
 BYTE   N23  An4  v060
 BYTE   W48
 BYTE   N44  Bn3  v080
 BYTE   W48
//  #05 //097   ----------------------------------------
 BYTE   An3
 BYTE   W24
 BYTE   N23  En3
 BYTE   W24
 BYTE   N11  An3
 BYTE   W12
 BYTE   Bn3
 BYTE   W12
 BYTE   Cn4
 BYTE   W12
 BYTE   Dn4
 BYTE   W12
//  #05 //098   ----------------------------------------
 BYTE   N68  En4
 BYTE   W24
 BYTE   N23  An3  v056
 BYTE   W24
 BYTE   N32  Gn3  v064
 BYTE   W24
 BYTE   N11  Dn4  v080
 BYTE   W12
 BYTE   En3  v068
 BYTE   N11  Cn4  v080
 BYTE   W12
//  #05 //099   ----------------------------------------
 BYTE   N92  Gn3  v076
 BYTE   N44  Dn4  v080
 BYTE   W48
 BYTE   N23
 BYTE   W24
 BYTE   N11  Gn4
 BYTE   W12
 BYTE   TIE  En4
 BYTE   W12
//  #05 //100   ----------------------------------------
 BYTE   W24
 BYTE   N23  Cn4  v056
 BYTE   W24
 BYTE   N32  Bn3  v060
 BYTE   W36
 BYTE   N11  En3  v064
 BYTE   W11
 BYTE   EOT
 BYTE   En4
 BYTE   W01
//  #05 //101   ----------------------------------------
 BYTE   N56  An3  v080
 BYTE   W60
 BYTE   N11  Bn3
 BYTE   W12
 BYTE   Cn4
 BYTE   W12
 BYTE   Dn4
 BYTE   W12
//  #05 //102   ----------------------------------------
 BYTE   N68  En4
 BYTE   W24
 BYTE   N23  An3  v068
 BYTE   W24
 BYTE   N32  Gn3  v064
 BYTE   W24
 BYTE   N11  Dn4  v080
 BYTE   W12
 BYTE   En3  v060
 BYTE   N11  Cn4  v080
 BYTE   W12
//  #05 //103   ----------------------------------------
 BYTE   N72  Gn3  v064
 BYTE   N32  Dn4  v080
 BYTE   W36
 BYTE   Bn3
 BYTE   W36
 BYTE   N23  Gn3
 BYTE   W24
//  #05 //104   ----------------------------------------
 BYTE   N44  Dn3  v060
 BYTE   N92  En3  v080
 BYTE   W48
 BYTE   N44  Cs3  v064
 BYTE   W48
//  #05 //105   ----------------------------------------
 BYTE   N92  Fn3  v032
 BYTE   N32  An3  v080
 BYTE   W36
 BYTE   Bn3
 BYTE   W36
 BYTE   N23  Cn4
 BYTE   W24
//  #05 //106   ----------------------------------------
 BYTE   N92  Gn3  v032
 BYTE   N23  Dn4  v080
 BYTE   W24
 BYTE   N11  En4
 BYTE   W12
 BYTE   N56  Dn4
 BYTE   W60
//  #05 //107   ----------------------------------------
 BYTE   N92  An3  v032
 BYTE   N32  Bn3  v080
 BYTE   W36
 BYTE   Cn4
 BYTE   W36
 BYTE   N23  Dn4
 BYTE   W24
//  #05 //108   ----------------------------------------
 BYTE   N44  As3  v032
 BYTE   N23  En4  v080
 BYTE   W24
 BYTE   N11  Fn4
 BYTE   W12
 BYTE   N32  En4
 BYTE   W12
 BYTE   N44  Bn3  v032
 BYTE   W24
 BYTE   N23  Dn4  v080
 BYTE   W24
//  #05 //109   ----------------------------------------
 BYTE   N44  Cn4
 BYTE   W48
 BYTE   Bn3
 BYTE   W48
//  #05 //110   ----------------------------------------
 BYTE   Fn4
 BYTE   W48
 BYTE   En4
 BYTE   W48
//  #05 //111   ----------------------------------------
 BYTE   N23  Bn3  v092
 BYTE   TIE  En4  v080
 BYTE   W24
 BYTE   N23  Gs3  v092
 BYTE   W24
 BYTE   En3
 BYTE   W24
 BYTE   Bn2
 BYTE   W24
//  #05 //112   ----------------------------------------
 BYTE   Gs3
 BYTE   W24
 BYTE   En3
 BYTE   W24
 BYTE   Bn2
 BYTE   W24
 BYTE   Gs2
 BYTE   W23
 BYTE   EOT
 BYTE   En4
 BYTE   W01
//  #05 //113   ----------------------------------------
 BYTE   N92  An3  v088
 BYTE   N23  Cn4  v080
 BYTE   W24
 BYTE   N11  Bn3
 BYTE   W12
 BYTE   N23  Cn4
 BYTE   W24
 BYTE   N32  En4
 BYTE   W36
//  #05 //114   ----------------------------------------
 BYTE   N44  An4
 BYTE   W24
 BYTE   N23  An3  v084
 BYTE   W24
 BYTE   Gn3  v076
 BYTE   N23  Bn4  v080
 BYTE   W24
 BYTE   En3  v072
 BYTE   N23  Cn5  v080
 BYTE   W24
//  #05 //115   ----------------------------------------
 BYTE   N68  Gn3  v108
 BYTE   N44  Bn4  v080
 BYTE   W48
 BYTE   N23  Gn4
 BYTE   W24
 BYTE   N11  Dn4
 BYTE   W12
 BYTE   TIE  En4
 BYTE   W12
//  #05 //116   ----------------------------------------
 BYTE   W24
 BYTE   N23  Cn3  v068
 BYTE   W24
 BYTE   N32  Bn2  v064
 BYTE   W36
 BYTE   N11  Cn3  v072
 BYTE   W11
 BYTE   EOT
 BYTE   En4
 BYTE   W01
//  #05 //117   ----------------------------------------
 BYTE   N92  An3  v084
 BYTE   N23  An4  v080
 BYTE   W24
 BYTE   N11  Gn4
 BYTE   W12
 BYTE   N32  En4
 BYTE   W36
 BYTE   N23  Cn4
 BYTE   W24
//  #05 //118   ----------------------------------------
 BYTE   N68  An3
 BYTE   W24
 BYTE   N23  Fn3  v072
 BYTE   W24
 BYTE   En3
 BYTE   W24
 BYTE   Dn3  v084
 BYTE   N23  Cn4  v080
 BYTE   W24
//  #05 //119   ----------------------------------------
 BYTE   N56  An3  v096
 BYTE   N92  Dn4  v080
 BYTE   W60
 BYTE   N11  Dn3  v068
 BYTE   W12
 BYTE   En3
 BYTE   W12
 BYTE   An3  v104
 BYTE   W12
//  #05 //120   ----------------------------------------
 BYTE   N92  Gs3  v100
 BYTE   N92  En4  v080
 BYTE   W96
//  #05 //121   ----------------------------------------
 BYTE   N44  An3  v100
 BYTE   N23  Cn4  v080
 BYTE   W24
 BYTE   N11  Bn3
 BYTE   W12
 BYTE   N23  Cn4
 BYTE   W24
 BYTE   N32  En4
 BYTE   W36
//  #05 //122   ----------------------------------------
 BYTE   N44  An4
 BYTE   W24
 BYTE   N23  En3  v092
 BYTE   W24
 BYTE   Dn3
 BYTE   N23  Bn4  v080
 BYTE   W24
 BYTE   Cn3  v056
 BYTE   N23  Cn5  v080
 BYTE   W24
//  #05 //123   ----------------------------------------
 BYTE   N68  Dn3
 BYTE   N44  Dn5
 BYTE   W48
 BYTE   N23  Bn4
 BYTE   W24
 BYTE   N11  Gn4
 BYTE   W12
 BYTE   TIE  En4
 BYTE   W12
//  #05 //124   ----------------------------------------
 BYTE   W24
 BYTE   N23  Cn3  v088
 BYTE   W24
 BYTE   N32  Bn2  v076
 BYTE   W36
 BYTE   N11  Cn3  v080
 BYTE   W11
 BYTE   EOT
 BYTE   En4
 BYTE   W01
//  #05 //125   ----------------------------------------
 BYTE   N68  En3  v088
 BYTE   N23  An4  v080
 BYTE   W24
 BYTE   N11  Gn4
 BYTE   W12
 BYTE   N32  En4
 BYTE   W36
 BYTE   N23  Cn4
 BYTE   W24
//  #05 //126   ----------------------------------------
 BYTE   N68  An3
 BYTE   W24
 BYTE   N23  Fn3  v084
 BYTE   W24
 BYTE   En3
 BYTE   W24
 BYTE   Dn3
 BYTE   N23  Cn4  v080
 BYTE   W24
//  #05 //127   ----------------------------------------
 BYTE   N44  An3  v084
 BYTE   N44  Dn4  v080
 BYTE   W48
 BYTE   Gs3  v072
 BYTE   N44  Bn3  v080
 BYTE   W48
//  #05 //128   ----------------------------------------
 BYTE   An3
 BYTE   W72
 BYTE   N23  Cn5
 BYTE   W24
//  #05 //129   ----------------------------------------
 BYTE   An3  v120
 BYTE   N92  Dn5  v080
 BYTE   W36
 BYTE   N05  An3  v116
 BYTE   W06
 BYTE   An3  v112
 BYTE   W06
 BYTE   N44
 BYTE   W48
//  #05 //130   ----------------------------------------
 BYTE   N32  Gs3  v127
 BYTE   N92  Bn4  v080
 BYTE   W36
 BYTE   N05  Gs3  v124
 BYTE   W06
 BYTE   Gs3  v116
 BYTE   W06
 BYTE   N44  Gs3  v112
 BYTE   W48
//  #05 //131   ----------------------------------------
 BYTE   An3  v124
 BYTE   N23  An4  v080
 BYTE   W24
 BYTE   N44  Cn4
 BYTE   W48
 BYTE   N23  Bn3
 BYTE   W24
//  #05 //132   ----------------------------------------
 BYTE   An3
 BYTE   W24
 BYTE   N68  En3
 BYTE   W72
//  #05 //133   ----------------------------------------
 BYTE   En4
 BYTE   W72
 BYTE   N23  Dn4
 BYTE   W24
//  #05 //134   ----------------------------------------
 BYTE   Cn4
 BYTE   W24
 BYTE   N68  An3
 BYTE   W72
//  #05 //135   ----------------------------------------
 BYTE   Gn4
 BYTE   W72
 BYTE   N23  Fn4
 BYTE   W24
//  #05 //136   ----------------------------------------
 BYTE   En4
 BYTE   W24
 BYTE   N68  Cn4
 BYTE   W72
//  #05 //137   ----------------------------------------
 BYTE   Dn4
 BYTE   W72
 BYTE   N23  En4
 BYTE   W24
//  #05 //138   ----------------------------------------
 BYTE   N44  An4
 BYTE   W48
 BYTE   TIE  Bn4
 BYTE   W48
//  #05 //139   ----------------------------------------
 BYTE   W24
 BYTE   N23  Cn3  v076
 BYTE   W24
 BYTE   TIE  Cn4  v100
 BYTE   W48
//  #05 //140   ----------------------------------------
 BYTE   W92
 BYTE   W03
 BYTE   EOT
 BYTE   EOT
 BYTE   Bn4
 BYTE   W01
//  #05 //141   ----------------------------------------
 BYTE   GoTo
  POIN2 Label_019DD6D5
 BYTE   FINE

//**************** Track 6 (Midi-Chn.5) ****************//

song02EE_006:
//  #06 //000   ----------------------------------------
 BYTE   KEYSH   song02EE_key+0
 BYTE   VOICE   61
 BYTE   MODT 0
 BYTE   LFOS 44
 BYTE   PAN   c_v+24
 BYTE   VOL   44*song02EE_mvl/mxv
 BYTE   BENDR  12
 BYTE   W96
//  #06 //001   ----------------------------------------
 BYTE   W96
//  #06 //002   ----------------------------------------
 BYTE   W96
//  #06 //003   ----------------------------------------
 BYTE   W96
//  #06 //004   ----------------------------------------
 BYTE   W96
//  #06 //005   ----------------------------------------
 BYTE   W96
//  #06 //006   ----------------------------------------
 BYTE   W96
//  #06 //007   ----------------------------------------
 BYTE   W96
//  #06 //008   ----------------------------------------
 BYTE   W96
//  #06 //009   ----------------------------------------
 BYTE   W96
//  #06 //010   ----------------------------------------
 BYTE   W96
//  #06 //011   ----------------------------------------
 BYTE   W96
//  #06 //012   ----------------------------------------
 BYTE   W96
//  #06 //013   ----------------------------------------
 BYTE   W96
//  #06 //014   ----------------------------------------
 BYTE   W96
//  #06 //015   ----------------------------------------
 BYTE   W96
//  #06 //016   ----------------------------------------
 BYTE   W96
//  #06 //017   ----------------------------------------
 BYTE   W96
//  #06 //018   ----------------------------------------
 BYTE   W96
//  #06 //019   ----------------------------------------
 BYTE   W96
//  #06 //020   ----------------------------------------
Label_019DDD42:
 BYTE   W96
//  #06 //021   ----------------------------------------
 BYTE   W96
//  #06 //022   ----------------------------------------
 BYTE   W96
//  #06 //023   ----------------------------------------
 BYTE   W96
//  #06 //024   ----------------------------------------
 BYTE   W96
//  #06 //025   ----------------------------------------
 BYTE   W96
//  #06 //026   ----------------------------------------
 BYTE   W96
//  #06 //027   ----------------------------------------
 BYTE   W96
//  #06 //028   ----------------------------------------
 BYTE   W96
//  #06 //029   ----------------------------------------
 BYTE   W96
//  #06 //030   ----------------------------------------
 BYTE   W96
//  #06 //031   ----------------------------------------
 BYTE   W96
//  #06 //032   ----------------------------------------
 BYTE   W96
//  #06 //033   ----------------------------------------
 BYTE   W96
//  #06 //034   ----------------------------------------
 BYTE   W96
//  #06 //035   ----------------------------------------
 BYTE   W96
//  #06 //036   ----------------------------------------
 BYTE   W96
//  #06 //037   ----------------------------------------
 BYTE   W96
//  #06 //038   ----------------------------------------
 BYTE   W96
//  #06 //039   ----------------------------------------
 BYTE   W96
//  #06 //040   ----------------------------------------
 BYTE   W96
//  #06 //041   ----------------------------------------
 BYTE   W96
//  #06 //042   ----------------------------------------
 BYTE   W96
//  #06 //043   ----------------------------------------
 BYTE   W96
//  #06 //044   ----------------------------------------
 BYTE   W96
//  #06 //045   ----------------------------------------
 BYTE   W96
//  #06 //046   ----------------------------------------
 BYTE   W96
//  #06 //047   ----------------------------------------
 BYTE   W96
//  #06 //048   ----------------------------------------
 BYTE   W96
//  #06 //049   ----------------------------------------
 BYTE   W96
//  #06 //050   ----------------------------------------
 BYTE   W96
//  #06 //051   ----------------------------------------
 BYTE   W96
//  #06 //052   ----------------------------------------
 BYTE   W96
//  #06 //053   ----------------------------------------
 BYTE   W96
//  #06 //054   ----------------------------------------
 BYTE   W96
//  #06 //055   ----------------------------------------
 BYTE   W96
//  #06 //056   ----------------------------------------
 BYTE   W96
//  #06 //057   ----------------------------------------
 BYTE   W96
//  #06 //058   ----------------------------------------
 BYTE   W96
//  #06 //059   ----------------------------------------
 BYTE   W96
//  #06 //060   ----------------------------------------
 BYTE   W96
//  #06 //061   ----------------------------------------
 BYTE   W96
//  #06 //062   ----------------------------------------
 BYTE   W96
//  #06 //063   ----------------------------------------
 BYTE   W96
//  #06 //064   ----------------------------------------
 BYTE   W96
//  #06 //065   ----------------------------------------
 BYTE   W96
//  #06 //066   ----------------------------------------
 BYTE   W96
//  #06 //067   ----------------------------------------
 BYTE   W96
//  #06 //068   ----------------------------------------
 BYTE   W96
//  #06 //069   ----------------------------------------
 BYTE   W96
//  #06 //070   ----------------------------------------
 BYTE   W96
//  #06 //071   ----------------------------------------
 BYTE   W96
//  #06 //072   ----------------------------------------
 BYTE   W96
//  #06 //073   ----------------------------------------
 BYTE   W96
//  #06 //074   ----------------------------------------
 BYTE   W96
//  #06 //075   ----------------------------------------
 BYTE   W96
//  #06 //076   ----------------------------------------
 BYTE   W96
//  #06 //077   ----------------------------------------
 BYTE   W96
//  #06 //078   ----------------------------------------
 BYTE   W24
 BYTE   N23  Cn3  v064
 BYTE   W24
 BYTE   TIE  Cn4  v068
 BYTE   W48
//  #06 //079   ----------------------------------------
 BYTE   W92
 BYTE   W03
 BYTE   EOT
 BYTE   W01
//  #06 //080   ----------------------------------------
 BYTE   N23  En3
 BYTE   W96
//  #06 //081   ----------------------------------------
 BYTE   W96
//  #06 //082   ----------------------------------------
 BYTE   W96
//  #06 //083   ----------------------------------------
 BYTE   W96
//  #06 //084   ----------------------------------------
 BYTE   W96
//  #06 //085   ----------------------------------------
 BYTE   W96
//  #06 //086   ----------------------------------------
 BYTE   W96
//  #06 //087   ----------------------------------------
 BYTE   W96
//  #06 //088   ----------------------------------------
 BYTE   W24
 BYTE   N44  Cn4  v080
 BYTE   W48
 BYTE   N23  Bn3
 BYTE   W24
//  #06 //089   ----------------------------------------
 BYTE   An3
 BYTE   W24
 BYTE   N68  En3
 BYTE   W72
//  #06 //090   ----------------------------------------
 BYTE   En4
 BYTE   W72
 BYTE   N23  Dn4
 BYTE   W24
//  #06 //091   ----------------------------------------
 BYTE   Cn4
 BYTE   W24
 BYTE   N68  An3
 BYTE   W72
//  #06 //092   ----------------------------------------
 BYTE   Gn4
 BYTE   W72
 BYTE   N23  Fn4
 BYTE   W24
//  #06 //093   ----------------------------------------
 BYTE   En4
 BYTE   W24
 BYTE   N68  Cn4
 BYTE   W72
//  #06 //094   ----------------------------------------
 BYTE   Dn4
 BYTE   W72
 BYTE   N23  En4
 BYTE   W24
//  #06 //095   ----------------------------------------
 BYTE   N44  An4
 BYTE   W48
 BYTE   Bn4
 BYTE   W48
//  #06 //096   ----------------------------------------
 BYTE   An4
 BYTE   W96
//  #06 //097   ----------------------------------------
 BYTE   W96
//  #06 //098   ----------------------------------------
 BYTE   W96
//  #06 //099   ----------------------------------------
 BYTE   W96
//  #06 //100   ----------------------------------------
 BYTE   W96
//  #06 //101   ----------------------------------------
 BYTE   W96
//  #06 //102   ----------------------------------------
 BYTE   W96
//  #06 //103   ----------------------------------------
 BYTE   W96
//  #06 //104   ----------------------------------------
 BYTE   N32  An3  v124
 BYTE   W36
 BYTE   Bn3
 BYTE   W36
 BYTE   N23  Cn4
 BYTE   W24
//  #06 //105   ----------------------------------------
 BYTE   Dn4
 BYTE   W24
 BYTE   N11  En4
 BYTE   W12
 BYTE   N56  Dn4
 BYTE   W60
//  #06 //106   ----------------------------------------
 BYTE   N32  Bn3
 BYTE   W36
 BYTE   Cn4
 BYTE   W36
 BYTE   N23  Dn4
 BYTE   W24
//  #06 //107   ----------------------------------------
 BYTE   En4
 BYTE   W24
 BYTE   N11  Fn4
 BYTE   W12
 BYTE   N32  En4
 BYTE   W36
 BYTE   N23  Dn4
 BYTE   W24
//  #06 //108   ----------------------------------------
 BYTE   N44  Cn4
 BYTE   W48
 BYTE   Bn3
 BYTE   W48
//  #06 //109   ----------------------------------------
 BYTE   Fn4  v072
 BYTE   W48
 BYTE   En4
 BYTE   W48
//  #06 //110   ----------------------------------------
 BYTE   TIE  En4  v100
 BYTE   W96
//  #06 //111   ----------------------------------------
 BYTE   W92
 BYTE   W03
 BYTE   EOT
 BYTE   W01
//  #06 //112   ----------------------------------------
 BYTE   W96
//  #06 //113   ----------------------------------------
 BYTE   W96
//  #06 //114   ----------------------------------------
 BYTE   W96
//  #06 //115   ----------------------------------------
 BYTE   W96
//  #06 //116   ----------------------------------------
 BYTE   W96
//  #06 //117   ----------------------------------------
 BYTE   W96
//  #06 //118   ----------------------------------------
 BYTE   W96
//  #06 //119   ----------------------------------------
 BYTE   W24
 BYTE   N23  Bn3  v088
 BYTE   W24
 BYTE   N32  Dn4  v092
 BYTE   W36
 BYTE   N11  Fn4  v112
 BYTE   W12
//  #06 //120   ----------------------------------------
 BYTE   N23  En4
 BYTE   W96
//  #06 //121   ----------------------------------------
 BYTE   W24
 BYTE   N68  An4  v120
 BYTE   W72
//  #06 //122   ----------------------------------------
 BYTE   W24
 BYTE   Gn4  v104
 BYTE   W72
//  #06 //123   ----------------------------------------
 BYTE   W24
 BYTE   En4  v096
 BYTE   W72
//  #06 //124   ----------------------------------------
 BYTE   N23  An4  v112
 BYTE   W96
//  #06 //125   ----------------------------------------
 BYTE   W24
 BYTE   N68  Gn4  v120
 BYTE   W72
//  #06 //126   ----------------------------------------
 BYTE   W24
 BYTE   En4  v088
 BYTE   W72
//  #06 //127   ----------------------------------------
 BYTE   W24
 BYTE   En4  v104
 BYTE   W72
//  #06 //128   ----------------------------------------
 BYTE   W96
//  #06 //129   ----------------------------------------
 BYTE   W24
 BYTE   N23  Fn4  v100
 BYTE   W24
 BYTE   N32  En4  v088
 BYTE   W36
 BYTE   N11  Bn4  v096
 BYTE   W12
//  #06 //130   ----------------------------------------
 BYTE   N23  An4  v112
 BYTE   W96
//  #06 //131   ----------------------------------------
 BYTE   W96
//  #06 //132   ----------------------------------------
 BYTE   W96
//  #06 //133   ----------------------------------------
 BYTE   W96
//  #06 //134   ----------------------------------------
 BYTE   W96
//  #06 //135   ----------------------------------------
 BYTE   W96
//  #06 //136   ----------------------------------------
 BYTE   W96
//  #06 //137   ----------------------------------------
 BYTE   W96
//  #06 //138   ----------------------------------------
 BYTE   W96
//  #06 //139   ----------------------------------------
 BYTE   W96
//  #06 //140   ----------------------------------------
 BYTE   GoTo
  POIN2 Label_019DDD42
 BYTE   FINE

//**************** Track 7 (Midi-Chn.6) ****************//

song02EE_007:
//  #07 //000   ----------------------------------------
 BYTE   KEYSH   song02EE_key+0
 BYTE   VOICE   62
 BYTE   MODT 0
 BYTE   LFOS 44
 BYTE   PAN   c_v+12
 BYTE   VOL   42*song02EE_mvl/mxv
 BYTE   BENDR  12
 BYTE   W96
//  #07 //001   ----------------------------------------
 BYTE   W96
//  #07 //002   ----------------------------------------
 BYTE   W96
//  #07 //003   ----------------------------------------
 BYTE   W96
//  #07 //004   ----------------------------------------
 BYTE   W96
//  #07 //005   ----------------------------------------
 BYTE   W96
//  #07 //006   ----------------------------------------
 BYTE   W96
//  #07 //007   ----------------------------------------
 BYTE   W96
//  #07 //008   ----------------------------------------
 BYTE   W96
//  #07 //009   ----------------------------------------
 BYTE   W96
//  #07 //010   ----------------------------------------
 BYTE   W96
//  #07 //011   ----------------------------------------
 BYTE   W96
//  #07 //012   ----------------------------------------
 BYTE   W96
//  #07 //013   ----------------------------------------
 BYTE   W96
//  #07 //014   ----------------------------------------
 BYTE   W96
//  #07 //015   ----------------------------------------
 BYTE   W96
//  #07 //016   ----------------------------------------
 BYTE   W96
//  #07 //017   ----------------------------------------
 BYTE   W96
//  #07 //018   ----------------------------------------
 BYTE   W96
//  #07 //019   ----------------------------------------
 BYTE   W96
//  #07 //020   ----------------------------------------
Label_019DE056:
 BYTE   W96
//  #07 //021   ----------------------------------------
 BYTE   W96
//  #07 //022   ----------------------------------------
 BYTE   W96
//  #07 //023   ----------------------------------------
 BYTE   W96
//  #07 //024   ----------------------------------------
 BYTE   W96
//  #07 //025   ----------------------------------------
 BYTE   W96
//  #07 //026   ----------------------------------------
 BYTE   W96
//  #07 //027   ----------------------------------------
 BYTE   W96
//  #07 //028   ----------------------------------------
 BYTE   W96
//  #07 //029   ----------------------------------------
 BYTE   W96
//  #07 //030   ----------------------------------------
 BYTE   W96
//  #07 //031   ----------------------------------------
 BYTE   W96
//  #07 //032   ----------------------------------------
 BYTE   W96
//  #07 //033   ----------------------------------------
 BYTE   W96
//  #07 //034   ----------------------------------------
 BYTE   W96
//  #07 //035   ----------------------------------------
 BYTE   W96
//  #07 //036   ----------------------------------------
 BYTE   W96
//  #07 //037   ----------------------------------------
 BYTE   W96
//  #07 //038   ----------------------------------------
 BYTE   W96
//  #07 //039   ----------------------------------------
 BYTE   W96
//  #07 //040   ----------------------------------------
 BYTE   W96
//  #07 //041   ----------------------------------------
 BYTE   W96
//  #07 //042   ----------------------------------------
 BYTE   W96
//  #07 //043   ----------------------------------------
 BYTE   W96
//  #07 //044   ----------------------------------------
 BYTE   W96
//  #07 //045   ----------------------------------------
 BYTE   W96
//  #07 //046   ----------------------------------------
 BYTE   W96
//  #07 //047   ----------------------------------------
 BYTE   W96
//  #07 //048   ----------------------------------------
 BYTE   W96
//  #07 //049   ----------------------------------------
 BYTE   W96
//  #07 //050   ----------------------------------------
 BYTE   W96
//  #07 //051   ----------------------------------------
 BYTE   W96
//  #07 //052   ----------------------------------------
 BYTE   W96
//  #07 //053   ----------------------------------------
 BYTE   W96
//  #07 //054   ----------------------------------------
 BYTE   W96
//  #07 //055   ----------------------------------------
 BYTE   W96
//  #07 //056   ----------------------------------------
 BYTE   W96
//  #07 //057   ----------------------------------------
 BYTE   W96
//  #07 //058   ----------------------------------------
 BYTE   W96
//  #07 //059   ----------------------------------------
 BYTE   W96
//  #07 //060   ----------------------------------------
 BYTE   W96
//  #07 //061   ----------------------------------------
 BYTE   W96
//  #07 //062   ----------------------------------------
 BYTE   W96
//  #07 //063   ----------------------------------------
 BYTE   W96
//  #07 //064   ----------------------------------------
 BYTE   W96
//  #07 //065   ----------------------------------------
 BYTE   W96
//  #07 //066   ----------------------------------------
 BYTE   W96
//  #07 //067   ----------------------------------------
 BYTE   W96
//  #07 //068   ----------------------------------------
 BYTE   W96
//  #07 //069   ----------------------------------------
 BYTE   W96
//  #07 //070   ----------------------------------------
 BYTE   W96
//  #07 //071   ----------------------------------------
 BYTE   W96
//  #07 //072   ----------------------------------------
 BYTE   W96
//  #07 //073   ----------------------------------------
 BYTE   W96
//  #07 //074   ----------------------------------------
 BYTE   W96
//  #07 //075   ----------------------------------------
 BYTE   W96
//  #07 //076   ----------------------------------------
 BYTE   W96
//  #07 //077   ----------------------------------------
 BYTE   W24
 BYTE   N23  En2  v088
 BYTE   W24
 BYTE   TIE  En3  v092
 BYTE   W48
//  #07 //078   ----------------------------------------
 BYTE   W96
//  #07 //079   ----------------------------------------
 BYTE   W92
 BYTE   W03
 BYTE   EOT
 BYTE   W01
//  #07 //080   ----------------------------------------
 BYTE   N23  Cn3  v127
 BYTE   W96
//  #07 //081   ----------------------------------------
 BYTE   W96
//  #07 //082   ----------------------------------------
 BYTE   W96
//  #07 //083   ----------------------------------------
 BYTE   W96
//  #07 //084   ----------------------------------------
 BYTE   W96
//  #07 //085   ----------------------------------------
 BYTE   W96
//  #07 //086   ----------------------------------------
 BYTE   W96
//  #07 //087   ----------------------------------------
 BYTE   W96
//  #07 //088   ----------------------------------------
 BYTE   W24
 BYTE   N44  Cn3  v080
 BYTE   W48
 BYTE   N23  Bn2
 BYTE   W24
//  #07 //089   ----------------------------------------
 BYTE   An2
 BYTE   W24
 BYTE   N68  En2
 BYTE   W72
//  #07 //090   ----------------------------------------
 BYTE   En3
 BYTE   W72
 BYTE   N23  Dn3
 BYTE   W24
//  #07 //091   ----------------------------------------
 BYTE   Cn3
 BYTE   W24
 BYTE   N68  An2
 BYTE   W72
//  #07 //092   ----------------------------------------
 BYTE   Gn3
 BYTE   W72
 BYTE   N23  Fn3
 BYTE   W24
//  #07 //093   ----------------------------------------
 BYTE   En3
 BYTE   W24
 BYTE   N68  Cn3
 BYTE   W72
//  #07 //094   ----------------------------------------
 BYTE   Dn3
 BYTE   W72
 BYTE   N23  En3
 BYTE   W24
//  #07 //095   ----------------------------------------
 BYTE   N44  An3
 BYTE   W48
 BYTE   Bn3
 BYTE   W48
//  #07 //096   ----------------------------------------
 BYTE   An3
 BYTE   W96
//  #07 //097   ----------------------------------------
 BYTE   W24
 BYTE   N23  An2  v032
 BYTE   W24
 BYTE   N32  Gn2  v040
 BYTE   W36
 BYTE   N11  En2  v044
 BYTE   W12
//  #07 //098   ----------------------------------------
 BYTE   N92  Gn2  v052
 BYTE   W96
//  #07 //099   ----------------------------------------
 BYTE   W24
 BYTE   N23  Cn3  v032
 BYTE   W24
 BYTE   N32  Bn2  v036
 BYTE   W36
 BYTE   N11  En2  v040
 BYTE   W12
//  #07 //100   ----------------------------------------
 BYTE   N92  An2
 BYTE   W96
//  #07 //101   ----------------------------------------
 BYTE   W24
 BYTE   N23  An2  v044
 BYTE   W24
 BYTE   N32  Gn2  v040
 BYTE   W36
 BYTE   N11  En2  v036
 BYTE   W12
//  #07 //102   ----------------------------------------
 BYTE   N92  Gn2  v040
 BYTE   W96
//  #07 //103   ----------------------------------------
 BYTE   N44  Dn2  v036
 BYTE   W48
 BYTE   Cs2  v040
 BYTE   W48
//  #07 //104   ----------------------------------------
 BYTE   N92  Fn2  v016
 BYTE   W96
//  #07 //105   ----------------------------------------
 BYTE   Gn2
 BYTE   W96
//  #07 //106   ----------------------------------------
 BYTE   An2
 BYTE   W96
//  #07 //107   ----------------------------------------
 BYTE   N44  As2
 BYTE   W48
 BYTE   Bn2
 BYTE   W48
//  #07 //108   ----------------------------------------
 BYTE   Cn3
 BYTE   W48
 BYTE   Bn2
 BYTE   W48
//  #07 //109   ----------------------------------------
 BYTE   Fn3
 BYTE   W48
 BYTE   En3
 BYTE   W48
//  #07 //110   ----------------------------------------
 BYTE   N23  En3  v088
 BYTE   W24
 BYTE   Bn2
 BYTE   W24
 BYTE   Gs2
 BYTE   W24
 BYTE   En2
 BYTE   W24
//  #07 //111   ----------------------------------------
 BYTE   Bn2
 BYTE   W24
 BYTE   Gs2
 BYTE   W24
 BYTE   En2
 BYTE   W24
 BYTE   N23
 BYTE   W24
//  #07 //112   ----------------------------------------
 BYTE   N92  An2
 BYTE   W96
//  #07 //113   ----------------------------------------
 BYTE   W24
 BYTE   N23  An2  v084
 BYTE   W24
 BYTE   Gn2  v076
 BYTE   W24
 BYTE   En2  v072
 BYTE   W24
//  #07 //114   ----------------------------------------
 BYTE   N68  Gn2  v108
 BYTE   W96
//  #07 //115   ----------------------------------------
 BYTE   W24
 BYTE   N23  Cn2  v068
 BYTE   W24
 BYTE   N32  Bn1  v064
 BYTE   W36
 BYTE   N11  Cn2  v072
 BYTE   W12
//  #07 //116   ----------------------------------------
 BYTE   N92  An2  v084
 BYTE   W96
//  #07 //117   ----------------------------------------
 BYTE   W24
 BYTE   N23  Fn2  v072
 BYTE   W24
 BYTE   En2
 BYTE   W24
 BYTE   Dn2  v084
 BYTE   W24
//  #07 //118   ----------------------------------------
 BYTE   N56  An2  v096
 BYTE   W60
 BYTE   N11  Dn2  v068
 BYTE   W12
 BYTE   En2
 BYTE   W12
 BYTE   An2  v104
 BYTE   W12
//  #07 //119   ----------------------------------------
 BYTE   N92  Gs2  v100
 BYTE   W96
//  #07 //120   ----------------------------------------
 BYTE   N44  An2
 BYTE   W96
//  #07 //121   ----------------------------------------
 BYTE   W24
 BYTE   N23  En2  v092
 BYTE   W24
 BYTE   Dn2
 BYTE   W24
 BYTE   Cn2  v056
 BYTE   W24
//  #07 //122   ----------------------------------------
 BYTE   N68  Dn2  v080
 BYTE   W96
//  #07 //123   ----------------------------------------
 BYTE   W24
 BYTE   N23  Cn2  v088
 BYTE   W24
 BYTE   N32  Bn1  v076
 BYTE   W36
 BYTE   N11  Cn2  v080
 BYTE   W12
//  #07 //124   ----------------------------------------
 BYTE   N44  En2  v088
 BYTE   W96
//  #07 //125   ----------------------------------------
 BYTE   W24
 BYTE   N23  Fn2  v084
 BYTE   W24
 BYTE   En2
 BYTE   W24
 BYTE   Dn2
 BYTE   W24
//  #07 //126   ----------------------------------------
 BYTE   N44  An2
 BYTE   W48
 BYTE   Gs2  v072
 BYTE   W48
//  #07 //127   ----------------------------------------
 BYTE   An2  v084
 BYTE   W96
//  #07 //128   ----------------------------------------
 BYTE   N23  An2  v120
 BYTE   W36
 BYTE   N05  An2  v116
 BYTE   W06
 BYTE   An2  v112
 BYTE   W06
 BYTE   N44
 BYTE   W48
//  #07 //129   ----------------------------------------
 BYTE   N32  Gs2  v127
 BYTE   W36
 BYTE   N05  Gs2  v124
 BYTE   W06
 BYTE   Gs2  v116
 BYTE   W06
 BYTE   N44  Gs2  v112
 BYTE   W48
//  #07 //130   ----------------------------------------
 BYTE   N23  An2  v124
 BYTE   W96
//  #07 //131   ----------------------------------------
 BYTE   W96
//  #07 //132   ----------------------------------------
 BYTE   W96
//  #07 //133   ----------------------------------------
 BYTE   W96
//  #07 //134   ----------------------------------------
 BYTE   W96
//  #07 //135   ----------------------------------------
 BYTE   W96
//  #07 //136   ----------------------------------------
 BYTE   W96
//  #07 //137   ----------------------------------------
 BYTE   W24
 BYTE   En2  v104
 BYTE   W24
 BYTE   TIE  En3  v116
 BYTE   W48
//  #07 //138   ----------------------------------------
 BYTE   W96
//  #07 //139   ----------------------------------------
 BYTE   W92
 BYTE   W03
 BYTE   EOT
 BYTE   W01
//  #07 //140   ----------------------------------------
 BYTE   GoTo
  POIN2 Label_019DE056
 BYTE   FINE

//**************** Track 8 (Midi-Chn.7) ****************//

song02EE_008:
//  #08 //000   ----------------------------------------
 BYTE   KEYSH   song02EE_key+0
 BYTE   VOICE   0
 BYTE   MODT 0
 BYTE   LFOS 44
 BYTE   PAN   c_v-4
 BYTE   VOL   35*song02EE_mvl/mxv
 BYTE   BENDR  12
 BYTE   N11  Cn4  v060
 BYTE   W12
 BYTE   An3
 BYTE   W12
 BYTE   Dn4
 BYTE   W12
 BYTE   N05  An3
 BYTE   W06
 BYTE   N11  En4
 BYTE   W12
 BYTE   N05  An3
 BYTE   W06
 BYTE   Dn4
 BYTE   W06
 BYTE   An3
 BYTE   W06
 BYTE   Cn4
 BYTE   W06
 BYTE   An3
 BYTE   W06
 BYTE   Dn4
 BYTE   W06
 BYTE   An3
 BYTE   W06
//  #08 //001   ----------------------------------------
Label_019DE7EF:
 BYTE   N11  Cn4  v060
 BYTE   W12
 BYTE   An3
 BYTE   W12
 BYTE   Dn4
 BYTE   W12
 BYTE   N05  An3
 BYTE   W06
 BYTE   N11  En4
 BYTE   W12
 BYTE   N05  An3
 BYTE   W06
 BYTE   Dn4
 BYTE   W06
 BYTE   An3
 BYTE   W06
 BYTE   Cn4
 BYTE   W06
 BYTE   An3
 BYTE   W06
 BYTE   Dn4
 BYTE   W06
 BYTE   An3
 BYTE   W06
 BYTE   PEND 
//  #08 //002   ----------------------------------------
Label_019DE80D:
 BYTE   N11  An1  v060
 BYTE   N11  Cn4
 BYTE   W12
 BYTE   En2
 BYTE   N11  An3
 BYTE   W12
 BYTE   TIE  Cn3
 BYTE   N11  Dn4
 BYTE   W12
 BYTE   N05  An3
 BYTE   W06
 BYTE   N11  En4
 BYTE   W12
 BYTE   N05  An3
 BYTE   W06
 BYTE   Dn4
 BYTE   W06
 BYTE   An3
 BYTE   W06
 BYTE   Cn4
 BYTE   W06
 BYTE   An3
 BYTE   W06
 BYTE   Dn4
 BYTE   W06
 BYTE   An3
 BYTE   W06
 BYTE   PEND 
//  #08 //003   ----------------------------------------
Label_019DE832:
 BYTE   N11  Cn4  v060
 BYTE   W12
 BYTE   An3
 BYTE   W12
 BYTE   Dn4
 BYTE   W12
 BYTE   N05  An3
 BYTE   W06
 BYTE   N11  En4
 BYTE   W12
 BYTE   N05  An3
 BYTE   W06
 BYTE   Dn4
 BYTE   W06
 BYTE   An3
 BYTE   W06
 BYTE   Cn4
 BYTE   W06
 BYTE   An3
 BYTE   W06
 BYTE   Dn4
 BYTE   W03
 BYTE   PEND 
 BYTE   EOT
 BYTE   Cn3
 BYTE   W03
 BYTE   N05  An3
 BYTE   W06
//  #08 //004   ----------------------------------------
Label_019DE854:
 BYTE   N11  Fn1  v060
 BYTE   N11  Cn4
 BYTE   W12
 BYTE   Cn2
 BYTE   N11  An3
 BYTE   W12
 BYTE   TIE  An2
 BYTE   N11  Dn4
 BYTE   W12
 BYTE   N05  An3
 BYTE   W06
 BYTE   N11  En4
 BYTE   W12
 BYTE   N05  An3
 BYTE   W06
 BYTE   Dn4
 BYTE   W06
 BYTE   An3
 BYTE   W06
 BYTE   Cn4
 BYTE   W06
 BYTE   An3
 BYTE   W06
 BYTE   Dn4
 BYTE   W06
 BYTE   An3
 BYTE   W06
 BYTE   PEND 
//  #08 //005   ----------------------------------------
 BYTE   PATT
  POIN2 Label_019DE832
//  #08 //006   ----------------------------------------
 BYTE   EOT
 BYTE   An2
 BYTE   W03
 BYTE   N05  An3  v060
 BYTE   W06
Label_019DE885:
 BYTE   N11  Dn1  v060
 BYTE   N11  Cn4
 BYTE   W12
 BYTE   An1
 BYTE   N11  An3
 BYTE   W12
 BYTE   TIE  Fn2
 BYTE   N11  Dn4
 BYTE   W12
 BYTE   N05  An3
 BYTE   W06
 BYTE   N11  En4
 BYTE   W12
 BYTE   N05  An3
 BYTE   W06
 BYTE   Dn4
 BYTE   W06
 BYTE   An3
 BYTE   W06
 BYTE   Cn4
 BYTE   W06
 BYTE   An3
 BYTE   W06
 BYTE   Dn4
 BYTE   W06
//  #08 //007   ----------------------------------------
 BYTE   An3
 BYTE   W06
 BYTE   PEND 
//  #08 //008   ----------------------------------------
 BYTE   PATT
  POIN2 Label_019DE832
//  #08 //009   ----------------------------------------
 BYTE   EOT
 BYTE   Fn2
 BYTE   W03
 BYTE   N05  An3  v060
 BYTE   W06
Label_019DE8B6:
 BYTE   N11  En1  v060
 BYTE   N11  Cn4
 BYTE   W12
 BYTE   Cn2
 BYTE   N11  An3
 BYTE   W12
 BYTE   TIE  En2
 BYTE   N11  Dn4
 BYTE   W12
 BYTE   N05  An3
 BYTE   W06
 BYTE   N11  En4
 BYTE   W12
 BYTE   N05  An3
 BYTE   W06
 BYTE   Dn4
 BYTE   W06
 BYTE   An3
 BYTE   W06
 BYTE   Cn4
 BYTE   W06
 BYTE   An3
 BYTE   W06
 BYTE   Dn4
 BYTE   W06
//  #08 //010   ----------------------------------------
 BYTE   An3
 BYTE   W06
 BYTE   PEND 
//  #08 //011   ----------------------------------------
 BYTE   PATT
  POIN2 Label_019DE832
//  #08 //012   ----------------------------------------
 BYTE   EOT
 BYTE   En2
 BYTE   W03
 BYTE   N05  An3  v060
 BYTE   W06
//  #08 //013   ----------------------------------------
 BYTE   PATT
  POIN2 Label_019DE80D
//  #08 //014   ----------------------------------------
 BYTE   PATT
  POIN2 Label_019DE832
//  #08 //015   ----------------------------------------
 BYTE   EOT
 BYTE   Cn3
 BYTE   W03
 BYTE   N05  An3  v060
 BYTE   W06
//  #08 //016   ----------------------------------------
 BYTE   PATT
  POIN2 Label_019DE854
//  #08 //017   ----------------------------------------
 BYTE   PATT
  POIN2 Label_019DE832
//  #08 //018   ----------------------------------------
 BYTE   EOT
 BYTE   An2
 BYTE   W03
 BYTE   N05  An3  v060
 BYTE   W06
//  #08 //019   ----------------------------------------
 BYTE   PATT
  POIN2 Label_019DE885
//  #08 //020   ----------------------------------------
 BYTE   PATT
  POIN2 Label_019DE832
//  #08 //021   ----------------------------------------
 BYTE   EOT
 BYTE   Fn2
 BYTE   W03
 BYTE   N05  An3  v060
 BYTE   W06
//  #08 //022   ----------------------------------------
 BYTE   PATT
  POIN2 Label_019DE8B6
//  #08 //023   ----------------------------------------
 BYTE   PATT
  POIN2 Label_019DE832
//  #08 //024   ----------------------------------------
 BYTE   EOT
 BYTE   En2
 BYTE   W03
 BYTE   N05  An3  v060
 BYTE   W06
//  #08 //025   ----------------------------------------
 BYTE   PATT
  POIN2 Label_019DE7EF
//  #08 //026   ----------------------------------------
 BYTE   PATT
  POIN2 Label_019DE7EF
//  #08 //027   ----------------------------------------
Label_019DE935:
 BYTE   N92  En3  v060
 BYTE   N11  Cn4
 BYTE   W12
 BYTE   An3
 BYTE   W12
 BYTE   Dn4
 BYTE   W12
 BYTE   N05  An3
 BYTE   W06
 BYTE   N11  En4
 BYTE   W12
 BYTE   N05  An3
 BYTE   W06
 BYTE   Dn4
 BYTE   W06
 BYTE   An3
 BYTE   W06
 BYTE   Cn4
 BYTE   W06
 BYTE   An3
 BYTE   W06
 BYTE   Dn4
 BYTE   W06
 BYTE   An3
 BYTE   W06
 BYTE   PEND 
//  #08 //028   ----------------------------------------
 BYTE   PATT
  POIN2 Label_019DE935
//  #08 //029   ----------------------------------------
Label_019DE95A:
 BYTE   N92  Cn3  v060
 BYTE   N11  Cn4
 BYTE   W12
 BYTE   An3
 BYTE   W12
 BYTE   Dn4
 BYTE   W12
 BYTE   N05  An3
 BYTE   W06
 BYTE   N11  En4
 BYTE   W12
 BYTE   N05  An3
 BYTE   W06
 BYTE   Dn4
 BYTE   W06
 BYTE   An3
 BYTE   W06
 BYTE   Cn4
 BYTE   W06
 BYTE   An3
 BYTE   W06
 BYTE   Dn4
 BYTE   W06
 BYTE   An3
 BYTE   W06
 BYTE   PEND 
//  #08 //030   ----------------------------------------
 BYTE   PATT
  POIN2 Label_019DE95A
//  #08 //031   ----------------------------------------
Label_019DE97F:
 BYTE   N92  An2  v060
 BYTE   N11  Cn4
 BYTE   W12
 BYTE   An3
 BYTE   W12
 BYTE   Dn4
 BYTE   W12
 BYTE   N05  An3
 BYTE   W06
 BYTE   N11  En4
 BYTE   W12
 BYTE   N05  An3
 BYTE   W06
 BYTE   Dn4
 BYTE   W06
 BYTE   An3
 BYTE   W06
 BYTE   Cn4
 BYTE   W06
 BYTE   An3
 BYTE   W06
 BYTE   Dn4
 BYTE   W06
 BYTE   An3
 BYTE   W06
 BYTE   PEND 
//  #08 //032   ----------------------------------------
Label_019DE99F:
 BYTE   N68  An2  v060
 BYTE   N11  Cn4
 BYTE   W12
 BYTE   An3
 BYTE   W12
 BYTE   Dn4
 BYTE   W12
 BYTE   N05  An3
 BYTE   W06
 BYTE   N11  En4
 BYTE   W12
 BYTE   N05  An3
 BYTE   W06
 BYTE   Dn4
 BYTE   W06
 BYTE   An3
 BYTE   W06
 BYTE   N23  An2
 BYTE   N05  Cn4
 BYTE   W06
 BYTE   An3
 BYTE   W06
 BYTE   Dn4
 BYTE   W06
 BYTE   An3
 BYTE   W06
 BYTE   PEND 
//  #08 //033   ----------------------------------------
Label_019DE9C2:
 BYTE   N92  Bn2  v060
 BYTE   N11  Cn4
 BYTE   W12
 BYTE   An3
 BYTE   W12
 BYTE   Dn4
 BYTE   W12
 BYTE   N05  An3
 BYTE   W06
 BYTE   N11  En4
 BYTE   W12
 BYTE   N05  An3
 BYTE   W06
 BYTE   Dn4
 BYTE   W06
 BYTE   An3
 BYTE   W06
 BYTE   Cn4
 BYTE   W06
 BYTE   An3
 BYTE   W06
 BYTE   Dn4
 BYTE   W06
 BYTE   An3
 BYTE   W06
 BYTE   PEND 
//  #08 //034   ----------------------------------------
 BYTE   N32  Bn2
 BYTE   N11  Cn4
 BYTE   W12
 BYTE   An3
 BYTE   W12
 BYTE   Dn4
 BYTE   W12
 BYTE   N05  An3
 BYTE   W06
 BYTE   N52  Bn2
 BYTE   N11  En4
 BYTE   W12
 BYTE   N05  An3
 BYTE   W06
 BYTE   Dn4
 BYTE   W06
 BYTE   An3
 BYTE   W06
 BYTE   Cn4
 BYTE   W06
 BYTE   An3
 BYTE   W06
 BYTE   Dn4
 BYTE   W06
 BYTE   An3
 BYTE   W06
//  #08 //035   ----------------------------------------
 BYTE   PATT
  POIN2 Label_019DE935
//  #08 //036   ----------------------------------------
 BYTE   PATT
  POIN2 Label_019DE935
//  #08 //037   ----------------------------------------
 BYTE   PATT
  POIN2 Label_019DE95A
//  #08 //038   ----------------------------------------
 BYTE   PATT
  POIN2 Label_019DE95A
//  #08 //039   ----------------------------------------
 BYTE   PATT
  POIN2 Label_019DE97F
//  #08 //040   ----------------------------------------
 BYTE   PATT
  POIN2 Label_019DE99F
//  #08 //041   ----------------------------------------
 BYTE   PATT
  POIN2 Label_019DE9C2
//  #08 //042   ----------------------------------------
 BYTE   PATT
  POIN2 Label_019DE9C2
//  #08 //043   ----------------------------------------
 BYTE   N92  An3  v060
 BYTE   W96
//  #08 //044   ----------------------------------------
 BYTE   W96
//  #08 //045   ----------------------------------------
 BYTE   W96
//  #08 //046   ----------------------------------------
 BYTE   W96
//  #08 //047   ----------------------------------------
 BYTE   W96
//  #08 //048   ----------------------------------------
 BYTE   W96
//  #08 //049   ----------------------------------------
 BYTE   W96
//  #08 //050   ----------------------------------------
 BYTE   W48
 BYTE   N07  En4
 BYTE   W08
 BYTE   An3
 BYTE   W08
 BYTE   En4
 BYTE   W08
 BYTE   An3
 BYTE   W08
 BYTE   En4
 BYTE   W08
 BYTE   An3
 BYTE   W08
//  #08 //051   ----------------------------------------
 BYTE   W12
 BYTE   N80  En4
 BYTE   W84
//  #08 //052   ----------------------------------------
 BYTE   W96
//  #08 //053   ----------------------------------------
 BYTE   W96
//  #08 //054   ----------------------------------------
 BYTE   W96
//  #08 //055   ----------------------------------------
 BYTE   W96
//  #08 //056   ----------------------------------------
 BYTE   W96
//  #08 //057   ----------------------------------------
 BYTE   N92  Bn2
 BYTE   N92  En3
 BYTE   N92  Bn3
 BYTE   W96
//  #08 //058   ----------------------------------------
 BYTE   W96
//  #08 //059   ----------------------------------------
 BYTE   Cn3
 BYTE   N92  En3
 BYTE   N92  An3
 BYTE   W96
//  #08 //060   ----------------------------------------
 BYTE   W96
//  #08 //061   ----------------------------------------
 BYTE   W96
//  #08 //062   ----------------------------------------
 BYTE   W96
//  #08 //063   ----------------------------------------
 BYTE   W96
//  #08 //064   ----------------------------------------
 BYTE   W96
//  #08 //065   ----------------------------------------
 BYTE   W96
//  #08 //066   ----------------------------------------
 BYTE   N11
 BYTE   W12
 BYTE   N23  Gs3
 BYTE   W24
 BYTE   Dn3
 BYTE   W24
 BYTE   N11  Cn3
 BYTE   W12
 BYTE   En3
 BYTE   W12
 BYTE   TIE  Cn3
 BYTE   W12
//  #08 //067   ----------------------------------------
 BYTE   W92
 BYTE   W03
 BYTE   EOT
 BYTE   W01
//  #08 //068   ----------------------------------------
 BYTE   W96
//  #08 //069   ----------------------------------------
 BYTE   W96
//  #08 //070   ----------------------------------------
 BYTE   W96
//  #08 //071   ----------------------------------------
 BYTE   W96
//  #08 //072   ----------------------------------------
 BYTE   W96
//  #08 //073   ----------------------------------------
 BYTE   W96
//  #08 //074   ----------------------------------------
 BYTE   W96
//  #08 //075   ----------------------------------------
 BYTE   N92  Dn4
 BYTE   W96
//  #08 //076   ----------------------------------------
 BYTE   Bn3
 BYTE   W96
//  #08 //077   ----------------------------------------
 BYTE   N11  An1
 BYTE   N12  An3
 BYTE   N11  Cn4
 BYTE   W12
 BYTE   En2
 BYTE   N11  An3
 BYTE   W12
 BYTE   TIE  Cn3
 BYTE   N11  Dn4
 BYTE   W12
 BYTE   N05  An3
 BYTE   W06
 BYTE   N11  En4
 BYTE   W12
 BYTE   N05  An3
 BYTE   W06
 BYTE   Dn4
 BYTE   W06
 BYTE   An3
 BYTE   W06
 BYTE   Cn4
 BYTE   W06
 BYTE   An3
 BYTE   W06
 BYTE   Dn4
 BYTE   W06
 BYTE   An3
 BYTE   W06
//  #08 //078   ----------------------------------------
 BYTE   PATT
  POIN2 Label_019DE832
//  #08 //079   ----------------------------------------
 BYTE   EOT
 BYTE   Cn3
 BYTE   W03
 BYTE   N05  An3  v060
 BYTE   W06
//  #08 //080   ----------------------------------------
 BYTE   PATT
  POIN2 Label_019DE854
//  #08 //081   ----------------------------------------
 BYTE   PATT
  POIN2 Label_019DE832
//  #08 //082   ----------------------------------------
 BYTE   EOT
 BYTE   An2
 BYTE   W03
 BYTE   N05  An3  v060
 BYTE   W06
//  #08 //083   ----------------------------------------
 BYTE   PATT
  POIN2 Label_019DE885
//  #08 //084   ----------------------------------------
 BYTE   PATT
  POIN2 Label_019DE832
//  #08 //085   ----------------------------------------
 BYTE   EOT
 BYTE   Fn2
 BYTE   W03
 BYTE   N05  An3  v060
 BYTE   W06
//  #08 //086   ----------------------------------------
 BYTE   PATT
  POIN2 Label_019DE8B6
//  #08 //087   ----------------------------------------
 BYTE   PATT
  POIN2 Label_019DE832
//  #08 //088   ----------------------------------------
 BYTE   EOT
 BYTE   En2
 BYTE   W03
 BYTE   N05  An3  v060
 BYTE   W06
//  #08 //089   ----------------------------------------
 BYTE   PATT
  POIN2 Label_019DE7EF
//  #08 //090   ----------------------------------------
 BYTE   PATT
  POIN2 Label_019DE7EF
//  #08 //091   ----------------------------------------
 BYTE   W96
//  #08 //092   ----------------------------------------
 BYTE   W96
//  #08 //093   ----------------------------------------
 BYTE   W96
//  #08 //094   ----------------------------------------
 BYTE   W96
//  #08 //095   ----------------------------------------
 BYTE   W96
//  #08 //096   ----------------------------------------
 BYTE   W96
//  #08 //097   ----------------------------------------
 BYTE   W96
//  #08 //098   ----------------------------------------
 BYTE   W96
//  #08 //099   ----------------------------------------
 BYTE   W96
//  #08 //100   ----------------------------------------
 BYTE   W96
//  #08 //101   ----------------------------------------
 BYTE   W96
//  #08 //102   ----------------------------------------
 BYTE   W96
//  #08 //103   ----------------------------------------
 BYTE   W96
//  #08 //104   ----------------------------------------
 BYTE   W96
//  #08 //105   ----------------------------------------
 BYTE   W96
//  #08 //106   ----------------------------------------
 BYTE   W96
//  #08 //107   ----------------------------------------
 BYTE   W96
//  #08 //108   ----------------------------------------
 BYTE   W96
//  #08 //109   ----------------------------------------
 BYTE   W96
//  #08 //110   ----------------------------------------
 BYTE   W96
//  #08 //111   ----------------------------------------
 BYTE   W96
//  #08 //112   ----------------------------------------
 BYTE   W96
//  #08 //113   ----------------------------------------
 BYTE   W96
//  #08 //114   ----------------------------------------
 BYTE   W96
//  #08 //115   ----------------------------------------
 BYTE   W96
//  #08 //116   ----------------------------------------
 BYTE   W96
//  #08 //117   ----------------------------------------
 BYTE   W96
//  #08 //118   ----------------------------------------
 BYTE   W96
//  #08 //119   ----------------------------------------
 BYTE   W96
//  #08 //120   ----------------------------------------
 BYTE   W96
//  #08 //121   ----------------------------------------
 BYTE   W96
//  #08 //122   ----------------------------------------
 BYTE   W96
//  #08 //123   ----------------------------------------
 BYTE   W96
//  #08 //124   ----------------------------------------
 BYTE   W96
//  #08 //125   ----------------------------------------
 BYTE   W96
//  #08 //126   ----------------------------------------
 BYTE   W96
//  #08 //127   ----------------------------------------
 BYTE   W96
//  #08 //128   ----------------------------------------
 BYTE   W96
//  #08 //129   ----------------------------------------
 BYTE   W96
//  #08 //130   ----------------------------------------
 BYTE   W96
//  #08 //131   ----------------------------------------
 BYTE   W96
//  #08 //132   ----------------------------------------
 BYTE   W96
//  #08 //133   ----------------------------------------
 BYTE   W96
//  #08 //134   ----------------------------------------
 BYTE   W96
//  #08 //135   ----------------------------------------
 BYTE   W96
//  #08 //136   ----------------------------------------
 BYTE   W96
//  #08 //137   ----------------------------------------
 BYTE   W96
//  #08 //138   ----------------------------------------
 BYTE   W96
//  #08 //139   ----------------------------------------
 BYTE   W96
//  #08 //140   ----------------------------------------
 BYTE   W96
//  #08 //141   ----------------------------------------
 BYTE   N11  An1  v080
 BYTE   N11  Cn4
 BYTE   W12
 BYTE   En2
 BYTE   N11  An3
 BYTE   W12
 BYTE   TIE  Cn3
 BYTE   N11  Dn4
 BYTE   W12
 BYTE   N05  An3
 BYTE   W06
 BYTE   N11  En4
 BYTE   W12
 BYTE   N05  An3
 BYTE   W06
 BYTE   Dn4
 BYTE   W06
 BYTE   An3
 BYTE   W06
 BYTE   Cn4
 BYTE   W06
 BYTE   An3
 BYTE   W06
 BYTE   Dn4
 BYTE   W06
 BYTE   An3
 BYTE   W06
//  #08 //142   ----------------------------------------
Label_019DEB42:
 BYTE   N11  Cn4  v080
 BYTE   W12
 BYTE   An3
 BYTE   W12
 BYTE   Dn4
 BYTE   W12
 BYTE   N05  An3
 BYTE   W06
 BYTE   N11  En4
 BYTE   W12
 BYTE   N05  An3
 BYTE   W06
 BYTE   Dn4
 BYTE   W06
 BYTE   An3
 BYTE   W06
 BYTE   Cn4
 BYTE   W06
 BYTE   An3
 BYTE   W06
 BYTE   Dn4
 BYTE   W03
 BYTE   PEND 
 BYTE   EOT
 BYTE   Cn3
 BYTE   W03
 BYTE   N05  An3
 BYTE   W06
//  #08 //143   ----------------------------------------
 BYTE   N11  Fn1
 BYTE   N11  Cn4
 BYTE   W12
 BYTE   Cn2
 BYTE   N11  An3
 BYTE   W12
 BYTE   TIE  An2
 BYTE   N11  Dn4
 BYTE   W12
 BYTE   N05  An3
 BYTE   W06
 BYTE   N11  En4
 BYTE   W12
 BYTE   N05  An3
 BYTE   W06
 BYTE   Dn4
 BYTE   W06
 BYTE   An3
 BYTE   W06
 BYTE   Cn4
 BYTE   W06
 BYTE   An3
 BYTE   W06
 BYTE   Dn4
 BYTE   W06
 BYTE   An3
 BYTE   W06
//  #08 //144   ----------------------------------------
 BYTE   PATT
  POIN2 Label_019DEB42
//  #08 //145   ----------------------------------------
 BYTE   EOT
 BYTE   An2
 BYTE   W03
 BYTE   N05  An3  v080
 BYTE   W06
 BYTE   N11  Dn1
 BYTE   N11  Cn4
 BYTE   W12
 BYTE   An1
 BYTE   N11  An3
 BYTE   W12
 BYTE   TIE  Fn2
 BYTE   N11  Dn4
 BYTE   W12
 BYTE   N05  An3
 BYTE   W06
 BYTE   N11  En4
 BYTE   W12
 BYTE   N05  An3
 BYTE   W06
 BYTE   Dn4
 BYTE   W06
 BYTE   An3
 BYTE   W06
 BYTE   Cn4
 BYTE   W06
 BYTE   An3
 BYTE   W06
 BYTE   Dn4
 BYTE   W06
//  #08 //146   ----------------------------------------
 BYTE   An3
 BYTE   W06
//  #08 //147   ----------------------------------------
 BYTE   PATT
  POIN2 Label_019DEB42
//  #08 //148   ----------------------------------------
 BYTE   EOT
 BYTE   Fn2
 BYTE   W03
 BYTE   N05  An3  v080
 BYTE   W06
 BYTE   N11  En1
 BYTE   N11  Cn4
 BYTE   W12
 BYTE   Cn2
 BYTE   N11  An3
 BYTE   W12
 BYTE   TIE  En2
 BYTE   N11  Dn4
 BYTE   W12
 BYTE   N05  An3
 BYTE   W06
 BYTE   N11  En4
 BYTE   W12
 BYTE   N05  An3
 BYTE   W06
 BYTE   Dn4
 BYTE   W06
 BYTE   An3
 BYTE   W06
 BYTE   Cn4
 BYTE   W06
 BYTE   An3
 BYTE   W06
 BYTE   Dn4
 BYTE   W06
//  #08 //149   ----------------------------------------
 BYTE   An3
 BYTE   W06
//  #08 //150   ----------------------------------------
 BYTE   PATT
  POIN2 Label_019DEB42
//  #08 //151   ----------------------------------------
 BYTE   EOT
 BYTE   En2
 BYTE   W03
 BYTE   N05  An3  v080
 BYTE   W06
Label_019DEBF1:
 BYTE   N11  Cn4  v080
 BYTE   W12
 BYTE   An3
 BYTE   W12
 BYTE   Dn4
 BYTE   W12
 BYTE   N05  An3
 BYTE   W06
 BYTE   N11  En4
 BYTE   W12
 BYTE   N05  An3
 BYTE   W06
 BYTE   Dn4
 BYTE   W06
 BYTE   An3
 BYTE   W06
 BYTE   Cn4
 BYTE   W06
 BYTE   An3
 BYTE   W06
 BYTE   Dn4
 BYTE   W06
//  #08 //152   ----------------------------------------
 BYTE   An3
 BYTE   W06
 BYTE   PEND 
//  #08 //153   ----------------------------------------
 BYTE   PATT
  POIN2 Label_019DEBF1
//  #08 //154   ----------------------------------------
 BYTE   GoTo
  POIN2 Label_019DE935
 BYTE   FINE

//**************** Track 9 (Midi-Chn.8) ****************//

song02EE_009:
//  #09 //000   ----------------------------------------
 BYTE   KEYSH   song02EE_key+0
 BYTE   VOICE   60
 BYTE   MODT 0
 BYTE   LFOS 44
 BYTE   VOL   40*song02EE_mvl/mxv
 BYTE   PAN   c_v-11
 BYTE   BENDR  12
 BYTE   W96
//  #09 //001   ----------------------------------------
 BYTE   W96
//  #09 //002   ----------------------------------------
 BYTE   W96
//  #09 //003   ----------------------------------------
 BYTE   W96
//  #09 //004   ----------------------------------------
 BYTE   W96
//  #09 //005   ----------------------------------------
 BYTE   W96
//  #09 //006   ----------------------------------------
 BYTE   W96
//  #09 //007   ----------------------------------------
 BYTE   W96
//  #09 //008   ----------------------------------------
 BYTE   W96
//  #09 //009   ----------------------------------------
 BYTE   W96
//  #09 //010   ----------------------------------------
 BYTE   W96
//  #09 //011   ----------------------------------------
 BYTE   N92  Cn3  v060
 BYTE   W96
//  #09 //012   ----------------------------------------
 BYTE   W96
//  #09 //013   ----------------------------------------
 BYTE   An2
 BYTE   W96
//  #09 //014   ----------------------------------------
 BYTE   W96
//  #09 //015   ----------------------------------------
 BYTE   En3
 BYTE   W96
//  #09 //016   ----------------------------------------
 BYTE   W96
//  #09 //017   ----------------------------------------
 BYTE   TIE  An2
 BYTE   W96
//  #09 //018   ----------------------------------------
 BYTE   W96
//  #09 //019   ----------------------------------------
 BYTE   W92
 BYTE   W03
 BYTE   EOT
 BYTE   W01
//  #09 //020   ----------------------------------------
Label_01A0F9D4:
 BYTE   N11  En3  v060
 BYTE   W24
 BYTE   N02  Cn3
 BYTE   W06
 BYTE   N02
 BYTE   W06
 BYTE   N02
 BYTE   W06
 BYTE   N02
 BYTE   W06
 BYTE   N11
 BYTE   W24
 BYTE   N02
 BYTE   W06
 BYTE   N02
 BYTE   W06
 BYTE   N02
 BYTE   W06
 BYTE   N02
 BYTE   W06
 BYTE   PEND 
//  #09 //021   ----------------------------------------
 BYTE   N11
 BYTE   W96
//  #09 //022   ----------------------------------------
 BYTE   PATT
  POIN2 Label_01A0F9D4
//  #09 //023   ----------------------------------------
 BYTE   N11  Cn3  v060
 BYTE   W96
//  #09 //024   ----------------------------------------
 BYTE   Fn3
 BYTE   W24
 BYTE   N02  Cn3
 BYTE   W06
 BYTE   N02
 BYTE   W06
 BYTE   N02
 BYTE   W06
 BYTE   N02
 BYTE   W06
 BYTE   N11
 BYTE   W24
 BYTE   N02
 BYTE   W06
 BYTE   N02
 BYTE   W06
 BYTE   N02
 BYTE   W06
 BYTE   N02
 BYTE   W06
//  #09 //025   ----------------------------------------
 BYTE   N11
 BYTE   W96
//  #09 //026   ----------------------------------------
 BYTE   Dn3
 BYTE   W24
 BYTE   N02  Bn2
 BYTE   W06
 BYTE   N02
 BYTE   W06
 BYTE   N02
 BYTE   W06
 BYTE   N02
 BYTE   W06
 BYTE   N11
 BYTE   W24
 BYTE   N02
 BYTE   W06
 BYTE   N02
 BYTE   W06
 BYTE   N02
 BYTE   W06
 BYTE   N02
 BYTE   W06
//  #09 //027   ----------------------------------------
 BYTE   N11
 BYTE   W96
//  #09 //028   ----------------------------------------
Label_01A0FA25:
 BYTE   N11  Cn3  v060
 BYTE   W24
 BYTE   N02
 BYTE   W06
 BYTE   N02
 BYTE   W06
 BYTE   N02
 BYTE   W06
 BYTE   N02
 BYTE   W06
 BYTE   N11
 BYTE   W24
 BYTE   N02
 BYTE   W06
 BYTE   N02
 BYTE   W06
 BYTE   N02
 BYTE   W06
 BYTE   N02
 BYTE   W06
 BYTE   PEND 
//  #09 //029   ----------------------------------------
 BYTE   N11
 BYTE   W96
//  #09 //030   ----------------------------------------
 BYTE   PATT
  POIN2 Label_01A0FA25
//  #09 //031   ----------------------------------------
 BYTE   N11  Cn3  v060
 BYTE   W96
//  #09 //032   ----------------------------------------
 BYTE   Gn3
 BYTE   W24
 BYTE   N02
 BYTE   W06
 BYTE   N02
 BYTE   W06
 BYTE   N02
 BYTE   W06
 BYTE   N02
 BYTE   W06
 BYTE   N11
 BYTE   W24
 BYTE   N02
 BYTE   W06
 BYTE   N02
 BYTE   W06
 BYTE   N02
 BYTE   W06
 BYTE   N02
 BYTE   W06
//  #09 //033   ----------------------------------------
 BYTE   N11
 BYTE   W96
//  #09 //034   ----------------------------------------
 BYTE   An3
 BYTE   W24
 BYTE   N02
 BYTE   W06
 BYTE   N02
 BYTE   W06
 BYTE   N02
 BYTE   W06
 BYTE   N02
 BYTE   W06
 BYTE   N11
 BYTE   W24
 BYTE   N02
 BYTE   W06
 BYTE   N02
 BYTE   W06
 BYTE   N02
 BYTE   W06
 BYTE   N02
 BYTE   W06
//  #09 //035   ----------------------------------------
 BYTE   N11
 BYTE   W96
//  #09 //036   ----------------------------------------
 BYTE   N92  Cn3
 BYTE   W96
//  #09 //037   ----------------------------------------
 BYTE   N92
 BYTE   W96
//  #09 //038   ----------------------------------------
 BYTE   Bn2
 BYTE   W96
//  #09 //039   ----------------------------------------
 BYTE   N44  Gn2
 BYTE   W48
 BYTE   N44
 BYTE   W48
//  #09 //040   ----------------------------------------
 BYTE   N92  Cn3
 BYTE   W96
//  #09 //041   ----------------------------------------
 BYTE   N92
 BYTE   W96
//  #09 //042   ----------------------------------------
 BYTE   Bn2
 BYTE   W96
//  #09 //043   ----------------------------------------
 BYTE   N44  An2
 BYTE   W48
 BYTE   Gn2
 BYTE   W48
//  #09 //044   ----------------------------------------
 BYTE   N92  Cn3
 BYTE   W96
//  #09 //045   ----------------------------------------
 BYTE   En3
 BYTE   W96
//  #09 //046   ----------------------------------------
 BYTE   N68
 BYTE   W72
 BYTE   N23  An2
 BYTE   W24
//  #09 //047   ----------------------------------------
 BYTE   N44  As2
 BYTE   W48
 BYTE   Bn2
 BYTE   W48
//  #09 //048   ----------------------------------------
 BYTE   An2
 BYTE   W48
 BYTE   Gs2
 BYTE   W48
//  #09 //049   ----------------------------------------
 BYTE   N44
 BYTE   W48
 BYTE   N44
 BYTE   W48
//  #09 //050   ----------------------------------------
 BYTE   N23  En3
 BYTE   W24
 BYTE   Bn2
 BYTE   W24
 BYTE   Gs2
 BYTE   W24
 BYTE   En2
 BYTE   W24
//  #09 //051   ----------------------------------------
 BYTE   Bn2
 BYTE   W24
 BYTE   Gs2
 BYTE   W24
 BYTE   En2
 BYTE   W24
 BYTE   N23
 BYTE   W24
//  #09 //052   ----------------------------------------
 BYTE   N92  Cn3
 BYTE   W96
//  #09 //053   ----------------------------------------
 BYTE   An3
 BYTE   W96
//  #09 //054   ----------------------------------------
 BYTE   Bn3
 BYTE   W96
//  #09 //055   ----------------------------------------
 BYTE   N44  En3
 BYTE   W48
 BYTE   Dn3
 BYTE   W48
//  #09 //056   ----------------------------------------
 BYTE   N92  Cn3
 BYTE   W96
//  #09 //057   ----------------------------------------
 BYTE   N92
 BYTE   W96
//  #09 //058   ----------------------------------------
 BYTE   Dn3
 BYTE   W96
//  #09 //059   ----------------------------------------
 BYTE   N92
 BYTE   W96
//  #09 //060   ----------------------------------------
 BYTE   Cn3
 BYTE   W96
//  #09 //061   ----------------------------------------
 BYTE   An3
 BYTE   W96
//  #09 //062   ----------------------------------------
 BYTE   N68  Bn3
 BYTE   W72
 BYTE   N11  Gn3
 BYTE   W12
 BYTE   N56
 BYTE   W12
//  #09 //063   ----------------------------------------
 BYTE   W48
 BYTE   N44
 BYTE   W48
//  #09 //064   ----------------------------------------
 BYTE   N92  En3
 BYTE   W96
//  #09 //065   ----------------------------------------
 BYTE   N68  Cn3
 BYTE   W72
 BYTE   N23  Dn3
 BYTE   W24
//  #09 //066   ----------------------------------------
 BYTE   N44
 BYTE   W48
 BYTE   N44
 BYTE   W48
//  #09 //067   ----------------------------------------
 BYTE   N68  Cn3
 BYTE   W72
 BYTE   N23  En3
 BYTE   W24
//  #09 //068   ----------------------------------------
 BYTE   N92
 BYTE   W96
//  #09 //069   ----------------------------------------
 BYTE   Dn3
 BYTE   W96
//  #09 //070   ----------------------------------------
 BYTE   N11  Cn3
 BYTE   W24
 BYTE   TIE
 BYTE   W72
//  #09 //071   ----------------------------------------
 BYTE   W92
 BYTE   W03
 BYTE   EOT
 BYTE   W01
//  #09 //072   ----------------------------------------
 BYTE   TIE  An2
 BYTE   W96
//  #09 //073   ----------------------------------------
 BYTE   W92
 BYTE   W03
 BYTE   EOT
 BYTE   W01
//  #09 //074   ----------------------------------------
 BYTE   TIE  En3
 BYTE   W96
//  #09 //075   ----------------------------------------
 BYTE   W92
 BYTE   W03
 BYTE   EOT
 BYTE   W01
//  #09 //076   ----------------------------------------
 BYTE   TIE  An2
 BYTE   W96
//  #09 //077   ----------------------------------------
 BYTE   W96
//  #09 //078   ----------------------------------------
 BYTE   W96
//  #09 //079   ----------------------------------------
 BYTE   W92
 BYTE   W03
 BYTE   EOT
 BYTE   W01
//  #09 //080   ----------------------------------------
 BYTE   W96
//  #09 //081   ----------------------------------------
 BYTE   W96
//  #09 //082   ----------------------------------------
 BYTE   W96
//  #09 //083   ----------------------------------------
 BYTE   W96
//  #09 //084   ----------------------------------------
 BYTE   W96
//  #09 //085   ----------------------------------------
 BYTE   W96
//  #09 //086   ----------------------------------------
 BYTE   W96
//  #09 //087   ----------------------------------------
 BYTE   W96
//  #09 //088   ----------------------------------------
 BYTE   W96
//  #09 //089   ----------------------------------------
 BYTE   W96
//  #09 //090   ----------------------------------------
 BYTE   W96
//  #09 //091   ----------------------------------------
 BYTE   W96
//  #09 //092   ----------------------------------------
 BYTE   W96
//  #09 //093   ----------------------------------------
 BYTE   W96
//  #09 //094   ----------------------------------------
 BYTE   W96
//  #09 //095   ----------------------------------------
 BYTE   N11  An3
 BYTE   W96
//  #09 //096   ----------------------------------------
 BYTE   N92  Cn3  v080
 BYTE   W96
//  #09 //097   ----------------------------------------
 BYTE   N92
 BYTE   W96
//  #09 //098   ----------------------------------------
 BYTE   Bn2
 BYTE   W96
//  #09 //099   ----------------------------------------
 BYTE   N44  Gn2
 BYTE   W48
 BYTE   N44
 BYTE   W48
//  #09 //100   ----------------------------------------
 BYTE   N92  Cn3
 BYTE   W96
//  #09 //101   ----------------------------------------
 BYTE   N92
 BYTE   W96
//  #09 //102   ----------------------------------------
 BYTE   Bn2
 BYTE   W96
//  #09 //103   ----------------------------------------
 BYTE   N44  An2
 BYTE   W48
 BYTE   Gn2
 BYTE   W48
//  #09 //104   ----------------------------------------
 BYTE   N92  Cn3
 BYTE   W96
//  #09 //105   ----------------------------------------
 BYTE   En3
 BYTE   W96
//  #09 //106   ----------------------------------------
 BYTE   N68
 BYTE   W72
 BYTE   N23  An2
 BYTE   W24
//  #09 //107   ----------------------------------------
 BYTE   N44  As2
 BYTE   W48
 BYTE   Bn2
 BYTE   W48
//  #09 //108   ----------------------------------------
 BYTE   An2
 BYTE   W48
 BYTE   Gs2
 BYTE   W48
//  #09 //109   ----------------------------------------
 BYTE   N44
 BYTE   W48
 BYTE   N44
 BYTE   W48
//  #09 //110   ----------------------------------------
 BYTE   N23  En3  v088
 BYTE   W24
 BYTE   Bn2
 BYTE   W24
 BYTE   Gs2
 BYTE   W24
 BYTE   En2
 BYTE   W24
//  #09 //111   ----------------------------------------
 BYTE   Bn2
 BYTE   W24
 BYTE   Gs2
 BYTE   W24
 BYTE   En2
 BYTE   W24
 BYTE   N23
 BYTE   W24
//  #09 //112   ----------------------------------------
 BYTE   N92  Cn3  v080
 BYTE   W96
//  #09 //113   ----------------------------------------
 BYTE   An3
 BYTE   W96
//  #09 //114   ----------------------------------------
 BYTE   Bn3
 BYTE   W96
//  #09 //115   ----------------------------------------
 BYTE   N44  En3
 BYTE   W48
 BYTE   Dn3
 BYTE   W48
//  #09 //116   ----------------------------------------
 BYTE   N92  Cn3
 BYTE   W96
//  #09 //117   ----------------------------------------
 BYTE   N92
 BYTE   W96
//  #09 //118   ----------------------------------------
 BYTE   Dn3
 BYTE   W96
//  #09 //119   ----------------------------------------
 BYTE   N92
 BYTE   W96
//  #09 //120   ----------------------------------------
 BYTE   Cn3
 BYTE   W96
//  #09 //121   ----------------------------------------
 BYTE   An3
 BYTE   W96
//  #09 //122   ----------------------------------------
 BYTE   N68  Bn3
 BYTE   W72
 BYTE   N11  Gn3
 BYTE   W12
 BYTE   N56
 BYTE   W12
//  #09 //123   ----------------------------------------
 BYTE   W48
 BYTE   N44
 BYTE   W48
//  #09 //124   ----------------------------------------
 BYTE   N92  En3
 BYTE   W96
//  #09 //125   ----------------------------------------
 BYTE   N68  Cn3
 BYTE   W72
 BYTE   N23  Dn3
 BYTE   W24
//  #09 //126   ----------------------------------------
 BYTE   N44
 BYTE   W48
 BYTE   N44
 BYTE   W48
//  #09 //127   ----------------------------------------
 BYTE   N68  Cn3
 BYTE   W72
 BYTE   N23  En3
 BYTE   W24
//  #09 //128   ----------------------------------------
 BYTE   N92
 BYTE   W96
//  #09 //129   ----------------------------------------
 BYTE   Dn3
 BYTE   W96
//  #09 //130   ----------------------------------------
 BYTE   N23  Cn3  v084
 BYTE   W96
//  #09 //131   ----------------------------------------
 BYTE   N92  Cn3  v080
 BYTE   W96
//  #09 //132   ----------------------------------------
 BYTE   W96
//  #09 //133   ----------------------------------------
 BYTE   An2
 BYTE   W96
//  #09 //134   ----------------------------------------
 BYTE   W96
//  #09 //135   ----------------------------------------
 BYTE   En3
 BYTE   W96
//  #09 //136   ----------------------------------------
 BYTE   W96
//  #09 //137   ----------------------------------------
 BYTE   TIE  An2
 BYTE   W96
//  #09 //138   ----------------------------------------
 BYTE   W96
//  #09 //139   ----------------------------------------
 BYTE   W92
 BYTE   W03
 BYTE   EOT
 BYTE   W01
//  #09 //140   ----------------------------------------
 BYTE   GoTo
  POIN2 Label_01A0F9D4
 BYTE   FINE

//**************** Track 10 (Midi-Chn.9) ****************//

song02EE_010:
//  #10 //000   ----------------------------------------
 BYTE   KEYSH   song02EE_key+0
 BYTE   VOICE   49
 BYTE   MODT 0
 BYTE   LFOS 44
 BYTE   PAN   c_v-17
 BYTE   BENDR  12
 BYTE   VOL   38*song02EE_mvl/mxv
 BYTE   W96
//  #10 //001   ----------------------------------------
 BYTE   W96
//  #10 //002   ----------------------------------------
 BYTE   W96
//  #10 //003   ----------------------------------------
 BYTE   W96
//  #10 //004   ----------------------------------------
 BYTE   W96
//  #10 //005   ----------------------------------------
 BYTE   W96
//  #10 //006   ----------------------------------------
 BYTE   W96
//  #10 //007   ----------------------------------------
 BYTE   W96
//  #10 //008   ----------------------------------------
 BYTE   W96
//  #10 //009   ----------------------------------------
 BYTE   W96
//  #10 //010   ----------------------------------------
 BYTE   W24
 BYTE   N44  Cn4  v060
 BYTE   W48
 BYTE   N23  Bn3
 BYTE   W24
//  #10 //011   ----------------------------------------
 BYTE   An3
 BYTE   W24
 BYTE   N68  En3
 BYTE   W72
//  #10 //012   ----------------------------------------
 BYTE   En4
 BYTE   W72
 BYTE   N23  Dn4
 BYTE   W24
//  #10 //013   ----------------------------------------
 BYTE   Cn4
 BYTE   W24
 BYTE   N68  An3
 BYTE   W72
//  #10 //014   ----------------------------------------
 BYTE   Gn4
 BYTE   W72
 BYTE   N23  Fn4
 BYTE   W24
//  #10 //015   ----------------------------------------
 BYTE   En4
 BYTE   W24
 BYTE   N68  Cn4
 BYTE   W72
//  #10 //016   ----------------------------------------
 BYTE   Dn4
 BYTE   W72
 BYTE   N23  En4
 BYTE   W24
//  #10 //017   ----------------------------------------
Label_01A0FBFA:
 BYTE   N44  An4  v060
 BYTE   W48
 BYTE   TIE  Bn4
 BYTE   W48
 BYTE   PEND 
//  #10 //018   ----------------------------------------
 BYTE   W96
//  #10 //019   ----------------------------------------
 BYTE   W92
 BYTE   W03
 BYTE   EOT
 BYTE   W01
//  #10 //020   ----------------------------------------
Label_01A0FC07:
 BYTE   N23  An4  v060
 BYTE   W24
 BYTE   N05  En3
 BYTE   W06
 BYTE   N05
 BYTE   W06
 BYTE   N05
 BYTE   W06
 BYTE   N05
 BYTE   W06
 BYTE   N23
 BYTE   W24
 BYTE   N05
 BYTE   W06
 BYTE   N05
 BYTE   W06
 BYTE   N05
 BYTE   W06
 BYTE   N05
 BYTE   W06
//  #10 //021   ----------------------------------------
 BYTE   N23
 BYTE   W96
//  #10 //022   ----------------------------------------
 BYTE   An3
 BYTE   W24
 BYTE   N05  En3
 BYTE   W06
 BYTE   N05
 BYTE   W06
 BYTE   N05
 BYTE   W06
 BYTE   N05
 BYTE   W06
 BYTE   N23
 BYTE   W24
 BYTE   N05
 BYTE   W06
 BYTE   N05
 BYTE   W06
 BYTE   N05
 BYTE   W06
 BYTE   N05
 BYTE   W06
//  #10 //023   ----------------------------------------
 BYTE   N23
 BYTE   W96
//  #10 //024   ----------------------------------------
 BYTE   An3
 BYTE   W24
 BYTE   N05  Fn3
 BYTE   W06
 BYTE   N05
 BYTE   W06
 BYTE   N05
 BYTE   W06
 BYTE   N05
 BYTE   W06
 BYTE   N23
 BYTE   W24
 BYTE   N05
 BYTE   W06
 BYTE   N05
 BYTE   W06
 BYTE   N05
 BYTE   W06
 BYTE   N05
 BYTE   W06
//  #10 //025   ----------------------------------------
 BYTE   N23
 BYTE   W96
//  #10 //026   ----------------------------------------
 BYTE   Bn3
 BYTE   W24
 BYTE   N05  Dn3
 BYTE   W06
 BYTE   N05
 BYTE   W06
 BYTE   N05
 BYTE   W06
 BYTE   N05
 BYTE   W06
 BYTE   N23
 BYTE   W24
 BYTE   N05
 BYTE   W06
 BYTE   N05
 BYTE   W06
 BYTE   N05
 BYTE   W06
 BYTE   N05
 BYTE   W06
//  #10 //027   ----------------------------------------
 BYTE   N23
 BYTE   W96
//  #10 //028   ----------------------------------------
Label_01A0FC65:
 BYTE   N23  An3  v060
 BYTE   W24
 BYTE   N05
 BYTE   W06
 BYTE   N05
 BYTE   W06
 BYTE   N05
 BYTE   W06
 BYTE   N05
 BYTE   W06
 BYTE   N23
 BYTE   W24
 BYTE   N05
 BYTE   W06
 BYTE   N05
 BYTE   W06
 BYTE   N05
 BYTE   W06
 BYTE   N05
 BYTE   W06
 BYTE   PEND 
//  #10 //029   ----------------------------------------
 BYTE   N23
 BYTE   W96
//  #10 //030   ----------------------------------------
 BYTE   PATT
  POIN2 Label_01A0FC65
//  #10 //031   ----------------------------------------
 BYTE   N23  An3  v060
 BYTE   W96
//  #10 //032   ----------------------------------------
 BYTE   Cn4
 BYTE   W24
 BYTE   N05
 BYTE   W06
 BYTE   N05
 BYTE   W06
 BYTE   N05
 BYTE   W06
 BYTE   N05
 BYTE   W06
 BYTE   N23
 BYTE   W24
 BYTE   N05
 BYTE   W06
 BYTE   N05
 BYTE   W06
 BYTE   N05
 BYTE   W06
 BYTE   N05
 BYTE   W06
//  #10 //033   ----------------------------------------
 BYTE   N23
 BYTE   W96
//  #10 //034   ----------------------------------------
 BYTE   En4
 BYTE   W24
 BYTE   N05
 BYTE   W06
 BYTE   N05
 BYTE   W06
 BYTE   N05
 BYTE   W06
 BYTE   N05
 BYTE   W06
 BYTE   N23
 BYTE   W24
 BYTE   N05
 BYTE   W06
 BYTE   N05
 BYTE   W06
 BYTE   N05
 BYTE   W06
 BYTE   N05
 BYTE   W06
//  #10 //035   ----------------------------------------
 BYTE   N23
 BYTE   W96
//  #10 //036   ----------------------------------------
 BYTE   N92  En3
 BYTE   W96
//  #10 //037   ----------------------------------------
 BYTE   An3
 BYTE   W96
//  #10 //038   ----------------------------------------
 BYTE   N44  Gn3
 BYTE   W48
 BYTE   N44
 BYTE   W48
//  #10 //039   ----------------------------------------
Label_01A0FCBD:
 BYTE   N44  Cn4  v060
 BYTE   W48
 BYTE   Bn3
 BYTE   W48
 BYTE   PEND 
//  #10 //040   ----------------------------------------
 BYTE   N92  An3
 BYTE   W96
//  #10 //041   ----------------------------------------
 BYTE   Fn3
 BYTE   W96
//  #10 //042   ----------------------------------------
 BYTE   N32  Gn3
 BYTE   W36
 BYTE   Dn3
 BYTE   W36
 BYTE   N23  Bn2
 BYTE   W24
//  #10 //043   ----------------------------------------
 BYTE   N44  Cn3
 BYTE   W48
 BYTE   Bn2
 BYTE   W48
//  #10 //044   ----------------------------------------
 BYTE   N92  Fn3
 BYTE   W96
//  #10 //045   ----------------------------------------
 BYTE   N23  Gn3
 BYTE   W24
 BYTE   Dn4
 BYTE   W24
 BYTE   Gn3
 BYTE   W24
 BYTE   Dn4
 BYTE   W24
//  #10 //046   ----------------------------------------
 BYTE   N68  Bn3
 BYTE   W72
 BYTE   N23  En3
 BYTE   W24
//  #10 //047   ----------------------------------------
 BYTE   N44  Fn3
 BYTE   W48
 BYTE   N44
 BYTE   W48
//  #10 //048   ----------------------------------------
 BYTE   En3
 BYTE   W48
 BYTE   Dn3
 BYTE   W48
//  #10 //049   ----------------------------------------
 BYTE   N23
 BYTE   W24
 BYTE   N11  En3
 BYTE   W12
 BYTE   Dn3
 BYTE   W12
 BYTE   N44  Bn2
 BYTE   W48
//  #10 //050   ----------------------------------------
 BYTE   N23  Bn3
 BYTE   W24
 BYTE   Gs3
 BYTE   W24
 BYTE   En3
 BYTE   W24
 BYTE   Bn2
 BYTE   W24
//  #10 //051   ----------------------------------------
 BYTE   Gs3
 BYTE   W24
 BYTE   En3
 BYTE   W24
 BYTE   Bn2
 BYTE   W24
 BYTE   Gs2
 BYTE   W24
//  #10 //052   ----------------------------------------
Label_01A0FD0C:
 BYTE   N23  An3  v060
 BYTE   W24
 BYTE   N11  Gn3
 BYTE   W12
 BYTE   N23  An3
 BYTE   W24
 BYTE   N32  Cn4
 BYTE   W36
 BYTE   PEND 
//  #10 //053   ----------------------------------------
Label_01A0FD1A:
 BYTE   N44  En4  v060
 BYTE   W48
 BYTE   N23  Gn4
 BYTE   W24
 BYTE   An4
 BYTE   W24
 BYTE   PEND 
//  #10 //054   ----------------------------------------
 BYTE   N44  Gn4
 BYTE   W48
 BYTE   N23  En4
 BYTE   W24
 BYTE   N11  Bn3
 BYTE   W12
 BYTE   Cn4
 BYTE   W12
//  #10 //055   ----------------------------------------
 BYTE   PATT
  POIN2 Label_01A0FCBD
//  #10 //056   ----------------------------------------
 BYTE   N23  En4  v060
 BYTE   W24
 BYTE   N11  Dn4
 BYTE   W12
 BYTE   N32  Cn4
 BYTE   W36
 BYTE   N23  An3
 BYTE   W24
//  #10 //057   ----------------------------------------
Label_01A0FD41:
 BYTE   N68  Fn3  v060
 BYTE   W72
 BYTE   N23  Gn3
 BYTE   W24
 BYTE   PEND 
//  #10 //058   ----------------------------------------
 BYTE   N92
 BYTE   W96
//  #10 //059   ----------------------------------------
 BYTE   Gs3
 BYTE   W96
//  #10 //060   ----------------------------------------
 BYTE   PATT
  POIN2 Label_01A0FD0C
//  #10 //061   ----------------------------------------
 BYTE   PATT
  POIN2 Label_01A0FD1A
//  #10 //062   ----------------------------------------
 BYTE   N44  Bn4  v060
 BYTE   W48
 BYTE   N23  Gn4
 BYTE   W24
 BYTE   N11  En4
 BYTE   W12
 BYTE   N56  Cn4
 BYTE   W12
//  #10 //063   ----------------------------------------
 BYTE   W48
 BYTE   N44  Bn3
 BYTE   W48
//  #10 //064   ----------------------------------------
 BYTE   N23  Cn4
 BYTE   W24
 BYTE   N11  An3
 BYTE   W12
 BYTE   N32
 BYTE   W36
 BYTE   N23  En3
 BYTE   W24
//  #10 //065   ----------------------------------------
 BYTE   PATT
  POIN2 Label_01A0FD41
//  #10 //066   ----------------------------------------
 BYTE   N44  Gn3  v060
 BYTE   W48
 BYTE   Gs3
 BYTE   W48
//  #10 //067   ----------------------------------------
 BYTE   N68  An3
 BYTE   W72
 BYTE   N23  En4
 BYTE   W24
//  #10 //068   ----------------------------------------
 BYTE   N92  Gs4
 BYTE   W96
//  #10 //069   ----------------------------------------
 BYTE   En4
 BYTE   W96
//  #10 //070   ----------------------------------------
 BYTE   N23  Cn4
 BYTE   W24
 BYTE   TIE  An1  v080
 BYTE   N44  Cn4  v060
 BYTE   W48
 BYTE   N23  Bn3
 BYTE   W24
//  #10 //071   ----------------------------------------
 BYTE   An3
 BYTE   W24
 BYTE   N68  En3
 BYTE   W68
 BYTE   W03
 BYTE   EOT
 BYTE   An1
 BYTE   W01
//  #10 //072   ----------------------------------------
 BYTE   TIE  Fn1  v080
 BYTE   N68  En4  v060
 BYTE   W72
 BYTE   N23  Dn4
 BYTE   W24
//  #10 //073   ----------------------------------------
 BYTE   Cn4
 BYTE   W24
 BYTE   N68  An3
 BYTE   W68
 BYTE   W03
 BYTE   EOT
 BYTE   Fn1
 BYTE   W01
//  #10 //074   ----------------------------------------
 BYTE   TIE  Dn1  v080
 BYTE   N68  Gn4  v060
 BYTE   W72
 BYTE   N23  Fn4
 BYTE   W24
//  #10 //075   ----------------------------------------
 BYTE   En4
 BYTE   W24
 BYTE   N68  Cn4
 BYTE   W68
 BYTE   W03
 BYTE   EOT
 BYTE   Dn1
 BYTE   W01
//  #10 //076   ----------------------------------------
 BYTE   TIE  En1  v080
 BYTE   N68  Dn4  v060
 BYTE   W72
 BYTE   N23  En4
 BYTE   W24
//  #10 //077   ----------------------------------------
 BYTE   PATT
  POIN2 Label_01A0FBFA
//  #10 //078   ----------------------------------------
 BYTE   W96
//  #10 //079   ----------------------------------------
 BYTE   W92
 BYTE   W03
 BYTE   EOT
 BYTE   En1  v083
 BYTE   W01
//  #10 //080   ----------------------------------------
 BYTE   TIE  An1  v040
 BYTE   W96
//  #10 //081   ----------------------------------------
 BYTE   W92
 BYTE   W03
 BYTE   EOT
 BYTE   W01
//  #10 //082   ----------------------------------------
 BYTE   TIE  Fn1
 BYTE   W96
//  #10 //083   ----------------------------------------
 BYTE   W92
 BYTE   W03
 BYTE   EOT
 BYTE   W01
//  #10 //084   ----------------------------------------
 BYTE   TIE  Dn1
 BYTE   W96
//  #10 //085   ----------------------------------------
 BYTE   W92
 BYTE   W03
 BYTE   EOT
 BYTE   W01
//  #10 //086   ----------------------------------------
 BYTE   TIE  En1
 BYTE   W96
//  #10 //087   ----------------------------------------
 BYTE   W92
 BYTE   W03
 BYTE   EOT
 BYTE   W01
//  #10 //088   ----------------------------------------
 BYTE   TIE  An1
 BYTE   W96
//  #10 //089   ----------------------------------------
 BYTE   W92
 BYTE   W03
 BYTE   EOT
 BYTE   W01
//  #10 //090   ----------------------------------------
 BYTE   TIE  Fn1
 BYTE   W96
//  #10 //091   ----------------------------------------
 BYTE   W92
 BYTE   W03
 BYTE   EOT
 BYTE   W01
//  #10 //092   ----------------------------------------
 BYTE   TIE  Dn1
 BYTE   W96
//  #10 //093   ----------------------------------------
 BYTE   W92
 BYTE   W03
 BYTE   EOT
 BYTE   W01
//  #10 //094   ----------------------------------------
 BYTE   TIE  En1
 BYTE   W96
//  #10 //095   ----------------------------------------
 BYTE   W92
 BYTE   W03
 BYTE   EOT
 BYTE   W01
//  #10 //096   ----------------------------------------
 BYTE   N92  An1
 BYTE   N92  En3  v080
 BYTE   W96
//  #10 //097   ----------------------------------------
Label_01A0FE1A:
 BYTE   N92  Fn1  v040
 BYTE   N92  An3  v080
 BYTE   W96
 BYTE   PEND 
//  #10 //098   ----------------------------------------
 BYTE   En1  v040
 BYTE   N44  Gn3  v080
 BYTE   W48
 BYTE   N44
 BYTE   W48
//  #10 //099   ----------------------------------------
 BYTE   An1  v040
 BYTE   N44  Cn4  v080
 BYTE   W48
 BYTE   Gn1  v040
 BYTE   N44  Bn3  v080
 BYTE   W48
//  #10 //100   ----------------------------------------
 BYTE   PATT
  POIN2 Label_01A0FE1A
//  #10 //101   ----------------------------------------
Label_01A0FE3B:
 BYTE   N92  Dn1  v040
 BYTE   N92  Fn3  v080
 BYTE   W96
 BYTE   PEND 
//  #10 //102   ----------------------------------------
 BYTE   En1  v040
 BYTE   N32  Gn3  v096
 BYTE   W36
 BYTE   Dn3
 BYTE   W36
 BYTE   N23  Bn2
 BYTE   W24
//  #10 //103   ----------------------------------------
 BYTE   N44  An1  v040
 BYTE   N44  Cn3  v096
 BYTE   W48
 BYTE   Gn1  v040
 BYTE   N44  Bn2  v092
 BYTE   W48
//  #10 //104   ----------------------------------------
 BYTE   PATT
  POIN2 Label_01A0FE3B
//  #10 //105   ----------------------------------------
 BYTE   N92  En1  v040
 BYTE   N23  Gn3  v084
 BYTE   W24
 BYTE   Dn4
 BYTE   W24
 BYTE   Gn3
 BYTE   W24
 BYTE   Dn4
 BYTE   W24
//  #10 //106   ----------------------------------------
 BYTE   N92  Fn1  v040
 BYTE   N68  Bn3  v080
 BYTE   W72
 BYTE   N23  En3
 BYTE   W24
//  #10 //107   ----------------------------------------
 BYTE   N44  As0  v040
 BYTE   N44  Fn3  v080
 BYTE   W48
 BYTE   Bn0  v040
 BYTE   N44  Fn3  v080
 BYTE   W48
//  #10 //108   ----------------------------------------
 BYTE   N92  En1  v040
 BYTE   N44  En3  v080
 BYTE   W48
 BYTE   Dn3
 BYTE   W48
//  #10 //109   ----------------------------------------
 BYTE   N92  Dn1  v040
 BYTE   N23  Dn3  v092
 BYTE   W24
 BYTE   N11  En3
 BYTE   W12
 BYTE   Dn3
 BYTE   W12
 BYTE   N44  Bn2  v100
 BYTE   W48
//  #10 //110   ----------------------------------------
 BYTE   N23  Gs1  v092
 BYTE   N23  Bn3
 BYTE   W24
 BYTE   En1
 BYTE   N23  Gs3
 BYTE   W24
 BYTE   Bn0
 BYTE   N23  En3
 BYTE   W24
 BYTE   Gs0
 BYTE   N23  Bn2
 BYTE   W24
//  #10 //111   ----------------------------------------
 BYTE   En1
 BYTE   N23  Gs3
 BYTE   W24
 BYTE   Bn0
 BYTE   N23  En3
 BYTE   W24
 BYTE   Gs0
 BYTE   N23  Bn2
 BYTE   W24
 BYTE   En0
 BYTE   N23  Gs2
 BYTE   W24
//  #10 //112   ----------------------------------------
Label_01A0FEBF:
 BYTE   N92  An1  v080
 BYTE   N23  An3
 BYTE   W24
 BYTE   N11  Gn3
 BYTE   W12
 BYTE   N23  An3
 BYTE   W24
 BYTE   N32  Cn4
 BYTE   W36
 BYTE   PEND 
//  #10 //113   ----------------------------------------
Label_01A0FECF:
 BYTE   N92  Fn1  v080
 BYTE   N44  En4
 BYTE   W48
 BYTE   N23  Gn4
 BYTE   W24
 BYTE   An4
 BYTE   W24
 BYTE   PEND 
//  #10 //114   ----------------------------------------
 BYTE   N92  En1
 BYTE   N44  Gn4
 BYTE   W48
 BYTE   N23  En4
 BYTE   W24
 BYTE   N11  Bn3
 BYTE   W12
 BYTE   Cn4
 BYTE   W12
//  #10 //115   ----------------------------------------
 BYTE   N44  An1
 BYTE   N44  Cn4
 BYTE   W48
 BYTE   Gn1
 BYTE   N44  Bn3
 BYTE   W48
//  #10 //116   ----------------------------------------
 BYTE   N92  Fn1
 BYTE   N23  En4
 BYTE   W24
 BYTE   N11  Dn4
 BYTE   W12
 BYTE   N32  Cn4
 BYTE   W36
 BYTE   N23  An3
 BYTE   W24
//  #10 //117   ----------------------------------------
Label_01A0FEFF:
 BYTE   N92  Dn1  v080
 BYTE   N68  Fn3
 BYTE   W72
 BYTE   N23  Gn3
 BYTE   W24
 BYTE   PEND 
//  #10 //118   ----------------------------------------
 BYTE   N92  En1
 BYTE   N92  Gn3
 BYTE   W96
//  #10 //119   ----------------------------------------
 BYTE   En1
 BYTE   N92  Gs3
 BYTE   W96
//  #10 //120   ----------------------------------------
 BYTE   PATT
  POIN2 Label_01A0FEBF
//  #10 //121   ----------------------------------------
 BYTE   PATT
  POIN2 Label_01A0FECF
//  #10 //122   ----------------------------------------
 BYTE   N92  En1  v080
 BYTE   N44  Bn4
 BYTE   W48
 BYTE   N23  Gn4
 BYTE   W24
 BYTE   N11  En4
 BYTE   W12
 BYTE   N56  Cn4
 BYTE   W12
//  #10 //123   ----------------------------------------
 BYTE   N44  An1
 BYTE   W48
 BYTE   Gn1
 BYTE   N44  Bn3
 BYTE   W48
//  #10 //124   ----------------------------------------
 BYTE   N92  Fn1
 BYTE   N23  Cn4
 BYTE   W24
 BYTE   N11  An3
 BYTE   W12
 BYTE   N32
 BYTE   W36
 BYTE   N23  En3
 BYTE   W24
//  #10 //125   ----------------------------------------
 BYTE   PATT
  POIN2 Label_01A0FEFF
//  #10 //126   ----------------------------------------
 BYTE   N44  En1  v080
 BYTE   N44  Gn3
 BYTE   W48
 BYTE   En1
 BYTE   N44  Gs3
 BYTE   W48
//  #10 //127   ----------------------------------------
 BYTE   N92  An1
 BYTE   N68  An3
 BYTE   W72
 BYTE   N23  En4
 BYTE   W24
//  #10 //128   ----------------------------------------
 BYTE   N92  En1
 BYTE   N92  Gs4
 BYTE   W96
//  #10 //129   ----------------------------------------
 BYTE   En1
 BYTE   N92  En4
 BYTE   W96
//  #10 //130   ----------------------------------------
 BYTE   N23  An1
 BYTE   N23  Cn4  v088
 BYTE   W24
 BYTE   N44  Cn4  v080
 BYTE   W48
 BYTE   N23  Bn3
 BYTE   W24
//  #10 //131   ----------------------------------------
 BYTE   An3
 BYTE   W24
 BYTE   N68  En3
 BYTE   W72
//  #10 //132   ----------------------------------------
 BYTE   En4
 BYTE   W72
 BYTE   N23  Dn4
 BYTE   W24
//  #10 //133   ----------------------------------------
 BYTE   Cn4
 BYTE   W24
 BYTE   N68  An3
 BYTE   W72
//  #10 //134   ----------------------------------------
 BYTE   Gn4
 BYTE   W72
 BYTE   N23  Fn4
 BYTE   W24
//  #10 //135   ----------------------------------------
 BYTE   En4
 BYTE   W24
 BYTE   N68  Cn4
 BYTE   W72
//  #10 //136   ----------------------------------------
 BYTE   Dn4
 BYTE   W72
 BYTE   N23  En4
 BYTE   W24
//  #10 //137   ----------------------------------------
 BYTE   N44  An4
 BYTE   W48
 BYTE   TIE  Bn4
 BYTE   W48
//  #10 //138   ----------------------------------------
 BYTE   W96
//  #10 //139   ----------------------------------------
 BYTE   W92
 BYTE   W03
 BYTE   EOT
 BYTE   W01
//  #10 //140   ----------------------------------------
 BYTE   GoTo
  POIN2 Label_01A0FC07
 BYTE   FINE

//**************** Track 11 (Midi-Chn.10) ****************//

song02EE_011:
//  #11 //000   ----------------------------------------
 BYTE   KEYSH   song02EE_key+0
 BYTE   VOICE   24
 BYTE   MODT 0
 BYTE   LFOS 44
 BYTE   PAN   c_v-20
 BYTE   BENDR  12
 BYTE   VOL   34*song02EE_mvl/mxv
 BYTE   W96
//  #11 //001   ----------------------------------------
 BYTE   W96
//  #11 //002   ----------------------------------------
 BYTE   W96
//  #11 //003   ----------------------------------------
 BYTE   W96
//  #11 //004   ----------------------------------------
 BYTE   W96
//  #11 //005   ----------------------------------------
 BYTE   W96
//  #11 //006   ----------------------------------------
 BYTE   W96
//  #11 //007   ----------------------------------------
 BYTE   W96
//  #11 //008   ----------------------------------------
 BYTE   W96
//  #11 //009   ----------------------------------------
 BYTE   W96
//  #11 //010   ----------------------------------------
 BYTE   N92  An1  v060
 BYTE   W03
 BYTE   En2
 BYTE   W04
 BYTE   N88  An2
 BYTE   W04
 BYTE   N84  Cn3
 BYTE   W03
 BYTE   N80  En3
 BYTE   W80
 BYTE   W02
//  #11 //011   ----------------------------------------
 BYTE   W96
//  #11 //012   ----------------------------------------
 BYTE   N92  Fn1
 BYTE   W03
 BYTE   Cn2
 BYTE   W04
 BYTE   N88  Fn2
 BYTE   W04
 BYTE   N84  An2
 BYTE   W03
 BYTE   N80  Cn3
 BYTE   W04
 BYTE   N76  En3
 BYTE   W78
//  #11 //013   ----------------------------------------
 BYTE   W96
//  #11 //014   ----------------------------------------
 BYTE   N92  An1
 BYTE   W03
 BYTE   Fn2
 BYTE   W04
 BYTE   N88  An2
 BYTE   W04
 BYTE   N84  Cn3
 BYTE   W03
 BYTE   N80  En3
 BYTE   W80
 BYTE   W02
//  #11 //015   ----------------------------------------
 BYTE   W96
//  #11 //016   ----------------------------------------
 BYTE   W03
 BYTE   N92  Bn1
 BYTE   W04
 BYTE   N88  Dn2
 BYTE   W04
 BYTE   N84  Gn2
 BYTE   W03
 BYTE   N80  Bn2
 BYTE   W04
 BYTE   N76  En3
 BYTE   W78
//  #11 //017   ----------------------------------------
 BYTE   W96
//  #11 //018   ----------------------------------------
 BYTE   W96
//  #11 //019   ----------------------------------------
 BYTE   W96
//  #11 //020   ----------------------------------------
Label_019DE736:
 BYTE   W96
//  #11 //021   ----------------------------------------
 BYTE   W96
//  #11 //022   ----------------------------------------
 BYTE   W96
//  #11 //023   ----------------------------------------
 BYTE   W96
//  #11 //024   ----------------------------------------
 BYTE   W96
//  #11 //025   ----------------------------------------
 BYTE   W96
//  #11 //026   ----------------------------------------
 BYTE   W96
//  #11 //027   ----------------------------------------
 BYTE   W96
//  #11 //028   ----------------------------------------
 BYTE   W96
//  #11 //029   ----------------------------------------
 BYTE   W96
//  #11 //030   ----------------------------------------
 BYTE   W96
//  #11 //031   ----------------------------------------
 BYTE   W96
//  #11 //032   ----------------------------------------
 BYTE   W96
//  #11 //033   ----------------------------------------
 BYTE   W96
//  #11 //034   ----------------------------------------
 BYTE   W96
//  #11 //035   ----------------------------------------
 BYTE   W96
//  #11 //036   ----------------------------------------
 BYTE   W96
//  #11 //037   ----------------------------------------
 BYTE   W96
//  #11 //038   ----------------------------------------
 BYTE   W96
//  #11 //039   ----------------------------------------
 BYTE   W96
//  #11 //040   ----------------------------------------
 BYTE   W96
//  #11 //041   ----------------------------------------
 BYTE   W96
//  #11 //042   ----------------------------------------
 BYTE   W96
//  #11 //043   ----------------------------------------
 BYTE   W96
//  #11 //044   ----------------------------------------
 BYTE   W96
//  #11 //045   ----------------------------------------
 BYTE   W96
//  #11 //046   ----------------------------------------
 BYTE   W96
//  #11 //047   ----------------------------------------
 BYTE   W96
//  #11 //048   ----------------------------------------
 BYTE   W96
//  #11 //049   ----------------------------------------
 BYTE   W96
//  #11 //050   ----------------------------------------
 BYTE   W96
//  #11 //051   ----------------------------------------
 BYTE   W96
//  #11 //052   ----------------------------------------
 BYTE   W96
//  #11 //053   ----------------------------------------
 BYTE   W96
//  #11 //054   ----------------------------------------
 BYTE   W96
//  #11 //055   ----------------------------------------
 BYTE   W96
//  #11 //056   ----------------------------------------
 BYTE   W96
//  #11 //057   ----------------------------------------
 BYTE   W96
//  #11 //058   ----------------------------------------
 BYTE   W96
//  #11 //059   ----------------------------------------
 BYTE   W96
//  #11 //060   ----------------------------------------
 BYTE   W96
//  #11 //061   ----------------------------------------
 BYTE   W96
//  #11 //062   ----------------------------------------
 BYTE   W96
//  #11 //063   ----------------------------------------
 BYTE   W96
//  #11 //064   ----------------------------------------
 BYTE   W96
//  #11 //065   ----------------------------------------
 BYTE   W96
//  #11 //066   ----------------------------------------
 BYTE   W96
//  #11 //067   ----------------------------------------
 BYTE   W96
//  #11 //068   ----------------------------------------
 BYTE   W96
//  #11 //069   ----------------------------------------
 BYTE   W96
//  #11 //070   ----------------------------------------
 BYTE   W96
//  #11 //071   ----------------------------------------
 BYTE   W96
//  #11 //072   ----------------------------------------
 BYTE   W96
//  #11 //073   ----------------------------------------
 BYTE   W96
//  #11 //074   ----------------------------------------
 BYTE   W96
//  #11 //075   ----------------------------------------
 BYTE   W96
//  #11 //076   ----------------------------------------
 BYTE   W96
//  #11 //077   ----------------------------------------
 BYTE   W96
//  #11 //078   ----------------------------------------
 BYTE   W96
//  #11 //079   ----------------------------------------
 BYTE   W96
//  #11 //080   ----------------------------------------
 BYTE   W96
//  #11 //081   ----------------------------------------
 BYTE   W96
//  #11 //082   ----------------------------------------
 BYTE   W96
//  #11 //083   ----------------------------------------
 BYTE   W96
//  #11 //084   ----------------------------------------
 BYTE   W96
//  #11 //085   ----------------------------------------
 BYTE   W96
//  #11 //086   ----------------------------------------
 BYTE   W96
//  #11 //087   ----------------------------------------
 BYTE   W96
//  #11 //088   ----------------------------------------
 BYTE   W96
//  #11 //089   ----------------------------------------
 BYTE   W96
//  #11 //090   ----------------------------------------
 BYTE   W96
//  #11 //091   ----------------------------------------
 BYTE   W96
//  #11 //092   ----------------------------------------
 BYTE   W96
//  #11 //093   ----------------------------------------
 BYTE   W96
//  #11 //094   ----------------------------------------
 BYTE   W96
//  #11 //095   ----------------------------------------
 BYTE   W96
//  #11 //096   ----------------------------------------
 BYTE   W96
//  #11 //097   ----------------------------------------
 BYTE   W96
//  #11 //098   ----------------------------------------
 BYTE   W96
//  #11 //099   ----------------------------------------
 BYTE   W96
//  #11 //100   ----------------------------------------
 BYTE   W96
//  #11 //101   ----------------------------------------
 BYTE   W96
//  #11 //102   ----------------------------------------
 BYTE   W96
//  #11 //103   ----------------------------------------
 BYTE   W96
//  #11 //104   ----------------------------------------
 BYTE   W96
//  #11 //105   ----------------------------------------
 BYTE   W96
//  #11 //106   ----------------------------------------
 BYTE   W96
//  #11 //107   ----------------------------------------
 BYTE   W96
//  #11 //108   ----------------------------------------
 BYTE   W96
//  #11 //109   ----------------------------------------
 BYTE   W96
//  #11 //110   ----------------------------------------
 BYTE   W96
//  #11 //111   ----------------------------------------
 BYTE   W96
//  #11 //112   ----------------------------------------
 BYTE   W96
//  #11 //113   ----------------------------------------
 BYTE   W96
//  #11 //114   ----------------------------------------
 BYTE   W96
//  #11 //115   ----------------------------------------
 BYTE   W96
//  #11 //116   ----------------------------------------
 BYTE   W96
//  #11 //117   ----------------------------------------
 BYTE   W96
//  #11 //118   ----------------------------------------
 BYTE   W96
//  #11 //119   ----------------------------------------
 BYTE   W96
//  #11 //120   ----------------------------------------
 BYTE   W96
//  #11 //121   ----------------------------------------
 BYTE   W96
//  #11 //122   ----------------------------------------
 BYTE   W96
//  #11 //123   ----------------------------------------
 BYTE   W96
//  #11 //124   ----------------------------------------
 BYTE   W96
//  #11 //125   ----------------------------------------
 BYTE   W96
//  #11 //126   ----------------------------------------
 BYTE   W96
//  #11 //127   ----------------------------------------
 BYTE   W96
//  #11 //128   ----------------------------------------
 BYTE   W96
//  #11 //129   ----------------------------------------
 BYTE   W96
//  #11 //130   ----------------------------------------
 BYTE   W96
//  #11 //131   ----------------------------------------
 BYTE   W96
//  #11 //132   ----------------------------------------
 BYTE   W96
//  #11 //133   ----------------------------------------
 BYTE   W96
//  #11 //134   ----------------------------------------
 BYTE   W96
//  #11 //135   ----------------------------------------
 BYTE   W96
//  #11 //136   ----------------------------------------
 BYTE   W96
//  #11 //137   ----------------------------------------
 BYTE   W96
//  #11 //138   ----------------------------------------
 BYTE   W96
//  #11 //139   ----------------------------------------
 BYTE   W96
//  #11 //140   ----------------------------------------
 BYTE   GoTo
  POIN2 Label_019DE736
 BYTE   FINE

//**************** Track 12 (Midi-Chn.11) ****************//

song02EE_012:
//  #12 //000   ----------------------------------------
 BYTE   KEYSH   song02EE_key+0
 BYTE   VOICE   2
 BYTE   MODT 0
 BYTE   LFOS 44
 BYTE   PAN   c_v-13
 BYTE   BENDR  12
 BYTE   VOL   38*song02EE_mvl/mxv
 BYTE   W96
//  #12 //001   ----------------------------------------
 BYTE   W96
//  #12 //002   ----------------------------------------
 BYTE   W96
//  #12 //003   ----------------------------------------
 BYTE   W96
//  #12 //004   ----------------------------------------
 BYTE   W96
//  #12 //005   ----------------------------------------
 BYTE   W96
//  #12 //006   ----------------------------------------
 BYTE   W96
//  #12 //007   ----------------------------------------
 BYTE   W96
//  #12 //008   ----------------------------------------
 BYTE   W96
//  #12 //009   ----------------------------------------
 BYTE   W96
//  #12 //010   ----------------------------------------
 BYTE   TIE  An1  v060
 BYTE   W96
//  #12 //011   ----------------------------------------
 BYTE   W96
//  #12 //012   ----------------------------------------
 BYTE   EOT
 BYTE   TIE  Fn1
 BYTE   W96
//  #12 //013   ----------------------------------------
 BYTE   W96
//  #12 //014   ----------------------------------------
 BYTE   EOT
 BYTE   TIE  Dn1
 BYTE   W96
//  #12 //015   ----------------------------------------
 BYTE   W96
//  #12 //016   ----------------------------------------
 BYTE   EOT
 BYTE   TIE  En1
 BYTE   W96
//  #12 //017   ----------------------------------------
 BYTE   W96
//  #12 //018   ----------------------------------------
 BYTE   W96
//  #12 //019   ----------------------------------------
 BYTE   W96
//  #12 //020   ----------------------------------------
 BYTE   EOT
Label_019DCA8F:
 BYTE   TIE  An1  v060
 BYTE   W96
//  #12 //021   ----------------------------------------
 BYTE   W96
//  #12 //022   ----------------------------------------
 BYTE   EOT
 BYTE   TIE  Fn1
 BYTE   W96
//  #12 //023   ----------------------------------------
 BYTE   W96
//  #12 //024   ----------------------------------------
 BYTE   EOT
 BYTE   TIE  Dn1
 BYTE   W96
//  #12 //025   ----------------------------------------
 BYTE   W96
//  #12 //026   ----------------------------------------
 BYTE   EOT
 BYTE   TIE  En1
 BYTE   W96
//  #12 //027   ----------------------------------------
 BYTE   W96
//  #12 //028   ----------------------------------------
 BYTE   EOT
 BYTE   TIE  An1
 BYTE   W96
//  #12 //029   ----------------------------------------
 BYTE   W96
//  #12 //030   ----------------------------------------
 BYTE   EOT
 BYTE   TIE  Fn1
 BYTE   W96
//  #12 //031   ----------------------------------------
 BYTE   W96
//  #12 //032   ----------------------------------------
 BYTE   EOT
 BYTE   TIE  Dn1
 BYTE   W96
//  #12 //033   ----------------------------------------
 BYTE   W96
//  #12 //034   ----------------------------------------
 BYTE   EOT
 BYTE   TIE  En1
 BYTE   W96
//  #12 //035   ----------------------------------------
 BYTE   W96
//  #12 //036   ----------------------------------------
 BYTE   EOT
 BYTE   N96  An1
 BYTE   W96
//  #12 //037   ----------------------------------------
 BYTE   Fn1
 BYTE   W96
//  #12 //038   ----------------------------------------
 BYTE   En1
 BYTE   W96
//  #12 //039   ----------------------------------------
Label_019DCABF:
 BYTE   N48  An1  v060
 BYTE   W48
 BYTE   Gn1
 BYTE   W48
 BYTE   PEND 
//  #12 //040   ----------------------------------------
 BYTE   N96  Fn1
 BYTE   W96
//  #12 //041   ----------------------------------------
 BYTE   Dn1
 BYTE   W96
//  #12 //042   ----------------------------------------
 BYTE   En1
 BYTE   W96
//  #12 //043   ----------------------------------------
 BYTE   An1
 BYTE   W96
//  #12 //044   ----------------------------------------
 BYTE   Dn1
 BYTE   W96
//  #12 //045   ----------------------------------------
 BYTE   En1
 BYTE   W96
//  #12 //046   ----------------------------------------
 BYTE   Fn1
 BYTE   W96
//  #12 //047   ----------------------------------------
 BYTE   N48  As1
 BYTE   W48
 BYTE   Bn1
 BYTE   W48
//  #12 //048   ----------------------------------------
 BYTE   En0
 BYTE   W48
 BYTE   En1
 BYTE   W48
//  #12 //049   ----------------------------------------
 BYTE   N48
 BYTE   W48
 BYTE   N48
 BYTE   W48
//  #12 //050   ----------------------------------------
 BYTE   N96
 BYTE   W96
//  #12 //051   ----------------------------------------
 BYTE   N96
 BYTE   W96
//  #12 //052   ----------------------------------------
 BYTE   An1
 BYTE   W96
//  #12 //053   ----------------------------------------
 BYTE   Fn1
 BYTE   W96
//  #12 //054   ----------------------------------------
 BYTE   En1
 BYTE   W96
//  #12 //055   ----------------------------------------
 BYTE   PATT
  POIN2 Label_019DCABF
//  #12 //056   ----------------------------------------
 BYTE   N96  Fn1  v060
 BYTE   W96
//  #12 //057   ----------------------------------------
 BYTE   Dn1
 BYTE   W96
//  #12 //058   ----------------------------------------
 BYTE   En1
 BYTE   W96
//  #12 //059   ----------------------------------------
 BYTE   N96
 BYTE   W96
//  #12 //060   ----------------------------------------
 BYTE   An1
 BYTE   W96
//  #12 //061   ----------------------------------------
 BYTE   Fn1
 BYTE   W96
//  #12 //062   ----------------------------------------
 BYTE   En1
 BYTE   W96
//  #12 //063   ----------------------------------------
 BYTE   PATT
  POIN2 Label_019DCABF
//  #12 //064   ----------------------------------------
 BYTE   N96  Fn1  v060
 BYTE   W96
//  #12 //065   ----------------------------------------
 BYTE   Dn1
 BYTE   W96
//  #12 //066   ----------------------------------------
 BYTE   En1
 BYTE   W96
//  #12 //067   ----------------------------------------
 BYTE   An1
 BYTE   W96
//  #12 //068   ----------------------------------------
 BYTE   En1
 BYTE   W96
//  #12 //069   ----------------------------------------
 BYTE   N96
 BYTE   W96
//  #12 //070   ----------------------------------------
 BYTE   TIE  An1
 BYTE   W24
 BYTE   En2  v080
 BYTE   W72
//  #12 //071   ----------------------------------------
 BYTE   W92
 BYTE   W03
 BYTE   EOT
 BYTE   W01
//  #12 //072   ----------------------------------------
 BYTE   EOT
 BYTE   An1
 BYTE   TIE  Fn1  v060
 BYTE   TIE  Cn2  v080
 BYTE   W96
//  #12 //073   ----------------------------------------
 BYTE   W92
 BYTE   W03
 BYTE   EOT
 BYTE   W01
//  #12 //074   ----------------------------------------
 BYTE   EOT
 BYTE   Fn1
 BYTE   TIE  Dn1  v060
 BYTE   TIE  An1  v080
 BYTE   W96
//  #12 //075   ----------------------------------------
 BYTE   W92
 BYTE   W03
 BYTE   EOT
 BYTE   W01
//  #12 //076   ----------------------------------------
 BYTE   EOT
 BYTE   Dn1
 BYTE   TIE  En1  v060
 BYTE   TIE  Bn1  v080
 BYTE   W96
//  #12 //077   ----------------------------------------
 BYTE   W96
//  #12 //078   ----------------------------------------
 BYTE   W96
//  #12 //079   ----------------------------------------
 BYTE   W92
 BYTE   W03
 BYTE   EOT
 BYTE   VOICE   29
 BYTE   W01
//  #12 //080   ----------------------------------------
 BYTE   EOT
 BYTE   En1
 BYTE   TIE  An1  v060
 BYTE   N23  An2  v116
 BYTE   W96
//  #12 //081   ----------------------------------------
 BYTE   Cn2  v112
 BYTE   W24
 BYTE   N23
 BYTE   W24
 BYTE   En2  v116
 BYTE   W24
 BYTE   N23
 BYTE   W24
//  #12 //082   ----------------------------------------
 BYTE   EOT
 BYTE   An1
 BYTE   TIE  Fn1  v060
 BYTE   N23  An2  v096
 BYTE   W96
//  #12 //083   ----------------------------------------
 BYTE   Cn2  v116
 BYTE   W24
 BYTE   Cn2  v112
 BYTE   W24
 BYTE   En2  v116
 BYTE   W24
 BYTE   En2  v120
 BYTE   W24
//  #12 //084   ----------------------------------------
 BYTE   EOT
 BYTE   Fn1
 BYTE   TIE  Dn1  v060
 BYTE   N23  An2  v116
 BYTE   W96
//  #12 //085   ----------------------------------------
 BYTE   Cn2
 BYTE   W24
 BYTE   Cn2  v108
 BYTE   W24
 BYTE   En2
 BYTE   W24
 BYTE   En2  v120
 BYTE   W24
//  #12 //086   ----------------------------------------
 BYTE   EOT
 BYTE   Dn1
 BYTE   TIE  En1  v060
 BYTE   N23  An2  v112
 BYTE   W96
//  #12 //087   ----------------------------------------
Label_019DCB8D:
 BYTE   N23  Cn2  v112
 BYTE   W24
 BYTE   Cn2  v108
 BYTE   W24
 BYTE   En2  v120
 BYTE   W24
 BYTE   N23
 BYTE   W24
 BYTE   PEND 
//  #12 //088   ----------------------------------------
 BYTE   EOT
 BYTE   En1
 BYTE   TIE  An1  v060
 BYTE   N23  An2  v120
 BYTE   W96
//  #12 //089   ----------------------------------------
 BYTE   Cn2  v108
 BYTE   W24
 BYTE   Cn2  v112
 BYTE   W24
 BYTE   En2  v116
 BYTE   W24
 BYTE   N23
 BYTE   W24
//  #12 //090   ----------------------------------------
 BYTE   EOT
 BYTE   An1
 BYTE   TIE  Fn1  v060
 BYTE   N23  An2  v120
 BYTE   W96
//  #12 //091   ----------------------------------------
 BYTE   PATT
  POIN2 Label_019DCB8D
//  #12 //092   ----------------------------------------
 BYTE   EOT
 BYTE   Fn1
 BYTE   TIE  Dn1  v060
 BYTE   N23  An2  v120
 BYTE   W96
//  #12 //093   ----------------------------------------
Label_019DCBC5:
 BYTE   N23  Cn2  v112
 BYTE   W24
 BYTE   N23
 BYTE   W24
 BYTE   En2  v116
 BYTE   W24
 BYTE   En2  v120
 BYTE   W24
 BYTE   PEND 
//  #12 //094   ----------------------------------------
 BYTE   EOT
 BYTE   Dn1
 BYTE   TIE  En1  v060
 BYTE   N23  An2  v104
 BYTE   W96
//  #12 //095   ----------------------------------------
 BYTE   PATT
  POIN2 Label_019DCBC5
//  #12 //096   ----------------------------------------
 BYTE   EOT
 BYTE   En1
 BYTE   N96  An1  v060
 BYTE   N23  An2  v104
 BYTE   W96
//  #12 //097   ----------------------------------------
 BYTE   W96
//  #12 //098   ----------------------------------------
 BYTE   W96
//  #12 //099   ----------------------------------------
 BYTE   W96
//  #12 //100   ----------------------------------------
 BYTE   W96
//  #12 //101   ----------------------------------------
 BYTE   W96
//  #12 //102   ----------------------------------------
 BYTE   W96
//  #12 //103   ----------------------------------------
 BYTE   W96
//  #12 //104   ----------------------------------------
 BYTE   W96
//  #12 //105   ----------------------------------------
 BYTE   W96
//  #12 //106   ----------------------------------------
 BYTE   W96
//  #12 //107   ----------------------------------------
 BYTE   W96
//  #12 //108   ----------------------------------------
 BYTE   W96
//  #12 //109   ----------------------------------------
 BYTE   W96
//  #12 //110   ----------------------------------------
 BYTE   W72
 BYTE   Gs1  v056
 BYTE   W24
//  #12 //111   ----------------------------------------
 BYTE   N72  En1  v060
 BYTE   N23  En2  v056
 BYTE   W24
 BYTE   Bn1
 BYTE   W24
 BYTE   Gs1
 BYTE   W24
 BYTE   En1  v060
 BYTE   W24
//  #12 //112   ----------------------------------------
 BYTE   VOICE   2
 BYTE   W96
//  #12 //113   ----------------------------------------
 BYTE   W96
//  #12 //114   ----------------------------------------
 BYTE   W96
//  #12 //115   ----------------------------------------
 BYTE   W96
//  #12 //116   ----------------------------------------
 BYTE   W96
//  #12 //117   ----------------------------------------
 BYTE   W96
//  #12 //118   ----------------------------------------
 BYTE   W96
//  #12 //119   ----------------------------------------
 BYTE   W96
//  #12 //120   ----------------------------------------
 BYTE   W96
//  #12 //121   ----------------------------------------
 BYTE   W96
//  #12 //122   ----------------------------------------
 BYTE   W96
//  #12 //123   ----------------------------------------
 BYTE   W96
//  #12 //124   ----------------------------------------
 BYTE   W96
//  #12 //125   ----------------------------------------
 BYTE   W96
//  #12 //126   ----------------------------------------
 BYTE   W96
//  #12 //127   ----------------------------------------
 BYTE   W96
//  #12 //128   ----------------------------------------
 BYTE   N96
 BYTE   N92  Bn2  v080
 BYTE   W96
//  #12 //129   ----------------------------------------
 BYTE   N96  En1  v060
 BYTE   N92  Gs2  v080
 BYTE   W96
//  #12 //130   ----------------------------------------
 BYTE   TIE  An1  v060
 BYTE   N68  An2  v080
 BYTE   W96
//  #12 //131   ----------------------------------------
 BYTE   W96
//  #12 //132   ----------------------------------------
 BYTE   W96
//  #12 //133   ----------------------------------------
 BYTE   W96
//  #12 //134   ----------------------------------------
 BYTE   W96
//  #12 //135   ----------------------------------------
 BYTE   W96
//  #12 //136   ----------------------------------------
 BYTE   W96
//  #12 //137   ----------------------------------------
 BYTE   W96
//  #12 //138   ----------------------------------------
 BYTE   W96
//  #12 //139   ----------------------------------------
 BYTE   W96
//  #12 //140   ----------------------------------------
 BYTE   EOT
 BYTE   An1
 BYTE   GoTo
  POIN2 Label_019DCA8F
 BYTE   FINE

//******************************************************//
	ALIGN 4

song02EE:
	BYTE	12	// NumTrks
	BYTE	0	// NumBlks
	BYTE	song02EE_pri	// Priority
	BYTE	song02EE_rev	// Reverb.
    
	POIN2	song02EE_grp
    
	POIN2	song02EE_001
	POIN2	song02EE_002
	POIN2	song02EE_003
	POIN2	song02EE_004
	POIN2	song02EE_005
	POIN2	song02EE_006
	POIN2	song02EE_007
	POIN2	song02EE_008
	POIN2	song02EE_009
	POIN2	song02EE_010
	POIN2	song02EE_011
	POIN2	song02EE_012

	
