//Event file generated from Sappy .s format.
	#include "MPlayDef.event"

	#define	song010B_grp  voicegroup001
	#define	song010B_pri  0
	#define	song010B_rev  160 //0xA0
	#define	song010B_mvl  127
	#define	song010B_key  0
	#define	song010B_tbs  1
	#define	song010B_exg  0
	#define	song010B_cmp  1

	// .rodata
	//	song010B
	ALIGN 4


//**************** Track 1 (Midi-Chn.0) ****************//

song010B_001:
// 000   ----------------------------------------
 BYTE   KEYSH   song010B_key+0
 BYTE   TEMPO   130*song010B_tbs/2
 BYTE   VOICE   29
 BYTE   VOL   35*song010B_mvl/mxv
 BYTE   PAN   c_v-4
 BYTE   BEND   c_v+0
 BYTE   N05  Cs4  v127
 BYTE   N05  Gn4
 BYTE   W84
 BYTE   N04  An1
 BYTE   N04  En2
 BYTE   W12
// 001   ----------------------------------------
Label_0_012759CB:
 BYTE   W06
 BYTE   N04  An1  v127
 BYTE   N04  En2
 BYTE   W18
 BYTE   An1
 BYTE   N04  En2
 BYTE   W18
 BYTE   An1
 BYTE   N04  En2
 BYTE   W18
 BYTE   N10  As1
 BYTE   N10  Fn2
 BYTE   W12
 BYTE   N04  An1
 BYTE   N04  En2
 BYTE   W18
 BYTE   An1
 BYTE   N04  En2
 BYTE   W06
// 002   ----------------------------------------
 BYTE   W12
 BYTE   An1
 BYTE   N04  En2
 BYTE   W18
 BYTE   An1
 BYTE   N04  En2
 BYTE   W18
 BYTE   N10  As1
 BYTE   N10  Fn2
 BYTE   W12
 BYTE   N04  An1
 BYTE   N04  En2
 BYTE   W18
 BYTE   An1
 BYTE   N04  En2
 BYTE   W18
// 003   ----------------------------------------
 BYTE   An1
 BYTE   N04  En2
 BYTE   W18
 BYTE   An1
 BYTE   N04  En2
 BYTE   W18
 BYTE   N10  As1
 BYTE   N10  Fn2
 BYTE   W12
 BYTE   N04  An1
 BYTE   N04  En2
 BYTE   W18
 BYTE   An1
 BYTE   N04  En2
 BYTE   W18
 BYTE   An1
 BYTE   N04  En2
 BYTE   W12
// 004   ----------------------------------------
 BYTE   W06
 BYTE   An1
 BYTE   N04  En2
 BYTE   W18
 BYTE   N10  As1
 BYTE   N10  Fn2
 BYTE   W12
 BYTE   N04  An1
 BYTE   N04  En2
 BYTE   W18
 BYTE   An1
 BYTE   N04  En2
 BYTE   W18
 BYTE   An1
 BYTE   N04  En2
 BYTE   W18
 BYTE   An1
 BYTE   N04  En2
 BYTE   W06
// 005   ----------------------------------------
 BYTE   W12
 BYTE   N10  As1
 BYTE   N10  Fn2
 BYTE   W12
 BYTE   N04  An1
 BYTE   N04  En2
 BYTE   W18
 BYTE   An1
 BYTE   N04  En2
 BYTE   W18
 BYTE   An1
 BYTE   N04  En2
 BYTE   W18
 BYTE   An1
 BYTE   N04  En2
 BYTE   W18
// 006   ----------------------------------------
 BYTE   N10  As1
 BYTE   N10  Fn2
 BYTE   W12
 BYTE   N04  An1
 BYTE   N04  En2
 BYTE   W18
 BYTE   An1
 BYTE   N04  En2
 BYTE   W18
 BYTE   An1
 BYTE   N04  En2
 BYTE   W18
 BYTE   An1
 BYTE   N04  En2
 BYTE   W18
 BYTE   N10  As1
 BYTE   N10  Fn2
 BYTE   W12
// 007   ----------------------------------------
 BYTE   N04  An1
 BYTE   N04  En2
 BYTE   W18
 BYTE   An1
 BYTE   N04  En2
 BYTE   W18
 BYTE   An1
 BYTE   N04  En2
 BYTE   W18
 BYTE   An1
 BYTE   N04  En2
 BYTE   W18
 BYTE   N10  As1
 BYTE   N10  Fn2
 BYTE   W12
 BYTE   Fs1
 BYTE   N10  Cs2
 BYTE   N10  Fs2
 BYTE   W12
// 008   ----------------------------------------
Label_0_01275A82:
 BYTE   W06
 BYTE   N10  Fs1  v127
 BYTE   N10  Cs2
 BYTE   N10  Fs2
 BYTE   W18
 BYTE   Fs1
 BYTE   N10  Cn2
 BYTE   N10  Fs2
 BYTE   W18
 BYTE   Fs1
 BYTE   N10  Cn2
 BYTE   N10  Fs2
 BYTE   W18
 BYTE   Fs1
 BYTE   N10  Cn2
 BYTE   N10  Fs2
 BYTE   W12
 BYTE   Fs1
 BYTE   N10  Cs2
 BYTE   N10  Fs2
 BYTE   W18
 BYTE   Fs1
 BYTE   N10  Cs2
 BYTE   N10  Fs2
 BYTE   W06
 BYTE   PEND 
// 009   ----------------------------------------
Label_0_01275AAA:
 BYTE   W12
 BYTE   N10  Fs1  v127
 BYTE   N10  Cn2
 BYTE   N10  Fs2
 BYTE   W18
 BYTE   Fs1
 BYTE   N10  Cn2
 BYTE   N10  Fs2
 BYTE   W18
 BYTE   Fs1
 BYTE   N10  Cn2
 BYTE   N10  Fs2
 BYTE   W12
 BYTE   Gs1
 BYTE   N10  Ds2
 BYTE   N10  Gs2
 BYTE   W18
 BYTE   Gs1
 BYTE   N10  Ds2
 BYTE   N10  Gs2
 BYTE   W18
 BYTE   PEND 
// 010   ----------------------------------------
Label_0_01275ACC:
 BYTE   N10  Gs1  v127
 BYTE   N10  Dn2
 BYTE   N10  Gs2
 BYTE   W18
 BYTE   Gs1
 BYTE   N10  Dn2
 BYTE   N10  Gs2
 BYTE   W18
 BYTE   Gs1
 BYTE   N10  Dn2
 BYTE   N10  Gs2
 BYTE   W12
 BYTE   Gs1
 BYTE   N10  Ds2
 BYTE   N10  Gs2
 BYTE   W18
 BYTE   Gs1
 BYTE   N10  Ds2
 BYTE   N10  Gs2
 BYTE   W18
 BYTE   Gs1
 BYTE   N10  Dn2
 BYTE   N10  Gs2
 BYTE   W12
 BYTE   PEND 
// 011   ----------------------------------------
 BYTE   W06
 BYTE   Gs1
 BYTE   N10  Dn2
 BYTE   N10  Gs2
 BYTE   W18
 BYTE   Gs1
 BYTE   N10  Dn2
 BYTE   N10  Gs2
 BYTE   W12
 BYTE   N04  En2
 BYTE   N04  An2
 BYTE   W06
 BYTE   An1
 BYTE   W06
 BYTE   N04
 BYTE   W06
 BYTE   En2
 BYTE   N04  As2
 BYTE   W06
 BYTE   An1
 BYTE   W06
 BYTE   N04
 BYTE   W06
 BYTE   En2
 BYTE   N04  Bn2
 BYTE   W06
 BYTE   An1
 BYTE   W06
 BYTE   N04
 BYTE   W06
 BYTE   En2
 BYTE   N04  Cn3
 BYTE   W06
// 012   ----------------------------------------
Label_0_01275B1D:
 BYTE   N04  An1  v127
 BYTE   W06
 BYTE   N04
 BYTE   W06
 BYTE   En2
 BYTE   N04  Cs3
 BYTE   W06
 BYTE   An1
 BYTE   W06
 BYTE   En2
 BYTE   N04  An2
 BYTE   W06
 BYTE   An1
 BYTE   W06
 BYTE   N04
 BYTE   W06
 BYTE   En2
 BYTE   N04  As2
 BYTE   W06
 BYTE   An1
 BYTE   W06
 BYTE   N04
 BYTE   W06
 BYTE   En2
 BYTE   N04  Bn2
 BYTE   W06
 BYTE   An1
 BYTE   W06
 BYTE   N04
 BYTE   W06
 BYTE   En2
 BYTE   N04  Cn3
 BYTE   W06
 BYTE   An1
 BYTE   W06
 BYTE   N04
 BYTE   W06
 BYTE   PEND 
// 013   ----------------------------------------
Label_0_01275B4A:
 BYTE   N04  En2  v127
 BYTE   N04  Cs3
 BYTE   W06
 BYTE   An1
 BYTE   W06
 BYTE   En2
 BYTE   N04  An2
 BYTE   W06
 BYTE   An1
 BYTE   W06
 BYTE   N04
 BYTE   W06
 BYTE   En2
 BYTE   N04  As2
 BYTE   W06
 BYTE   An1
 BYTE   W06
 BYTE   N04
 BYTE   W06
 BYTE   En2
 BYTE   N04  Bn2
 BYTE   W06
 BYTE   An1
 BYTE   W06
 BYTE   N04
 BYTE   W06
 BYTE   En2
 BYTE   N04  Cn3
 BYTE   W06
 BYTE   An1
 BYTE   W06
 BYTE   N04
 BYTE   W06
 BYTE   En2
 BYTE   N04  Cs3
 BYTE   W06
 BYTE   An1
 BYTE   W06
 BYTE   PEND 
// 014   ----------------------------------------
 BYTE   En2
 BYTE   N04  An2
 BYTE   W06
 BYTE   An1
 BYTE   W06
 BYTE   N04
 BYTE   W06
 BYTE   En2
 BYTE   N04  As2
 BYTE   W06
 BYTE   An1
 BYTE   W06
 BYTE   N04
 BYTE   W06
 BYTE   En2
 BYTE   N04  Bn2
 BYTE   W06
 BYTE   An1
 BYTE   W06
 BYTE   N04
 BYTE   W06
 BYTE   En2
 BYTE   N04  Cn3
 BYTE   W06
 BYTE   An1
 BYTE   W06
 BYTE   N04
 BYTE   W06
 BYTE   En2
 BYTE   N04  Cs3
 BYTE   W06
 BYTE   An1
 BYTE   W06
 BYTE   En2
 BYTE   N04  An2
 BYTE   W06
 BYTE   An1
 BYTE   W06
// 015   ----------------------------------------
 BYTE   N04
 BYTE   W06
 BYTE   En2
 BYTE   N04  As2
 BYTE   W06
 BYTE   An1
 BYTE   W06
 BYTE   N04
 BYTE   W06
 BYTE   En2
 BYTE   N04  Bn2
 BYTE   W06
 BYTE   An1
 BYTE   W06
 BYTE   N04
 BYTE   W06
 BYTE   En2
 BYTE   N04  Cn3
 BYTE   W06
 BYTE   An1
 BYTE   W06
 BYTE   N04
 BYTE   W06
 BYTE   En2
 BYTE   N04  Cs3
 BYTE   W06
 BYTE   An1
 BYTE   W06
 BYTE   En2
 BYTE   N04  An2
 BYTE   W06
 BYTE   An1
 BYTE   W06
 BYTE   N04
 BYTE   W06
 BYTE   En2
 BYTE   N04  As2
 BYTE   W06
// 016   ----------------------------------------
 BYTE   An1
 BYTE   W06
 BYTE   N04
 BYTE   W06
 BYTE   En2
 BYTE   N04  Bn2
 BYTE   W06
 BYTE   An1
 BYTE   W06
 BYTE   N04
 BYTE   W06
 BYTE   En2
 BYTE   N04  Cn3
 BYTE   W06
 BYTE   An1
 BYTE   W06
 BYTE   N04
 BYTE   W06
 BYTE   En2
 BYTE   N04  Cs3
 BYTE   W06
 BYTE   An1
 BYTE   W06
 BYTE   En2
 BYTE   N04  An2
 BYTE   W06
 BYTE   An1
 BYTE   W06
 BYTE   N04
 BYTE   W06
 BYTE   En2
 BYTE   N04  As2
 BYTE   W06
 BYTE   An1
 BYTE   W06
 BYTE   N04
 BYTE   W06
// 017   ----------------------------------------
 BYTE   En2
 BYTE   N04  Bn2
 BYTE   W06
 BYTE   An1
 BYTE   W06
 BYTE   N04
 BYTE   W06
 BYTE   En2
 BYTE   N04  Cn3
 BYTE   W06
 BYTE   An1
 BYTE   W06
 BYTE   N04
 BYTE   W06
 BYTE   En2
 BYTE   N04  Cs3
 BYTE   W06
 BYTE   An1
 BYTE   W06
 BYTE   En2
 BYTE   N04  An2
 BYTE   W06
 BYTE   An1
 BYTE   W06
 BYTE   N04
 BYTE   W06
 BYTE   En2
 BYTE   N04  As2
 BYTE   W06
 BYTE   An1
 BYTE   W06
 BYTE   N04
 BYTE   W06
 BYTE   En2
 BYTE   N04  Bn2
 BYTE   W06
 BYTE   An1
 BYTE   W06
// 018   ----------------------------------------
 BYTE   N04
 BYTE   W06
 BYTE   En2
 BYTE   N04  Cn3
 BYTE   W06
 BYTE   An1
 BYTE   W06
 BYTE   N04
 BYTE   W06
 BYTE   En2
 BYTE   N04  Cs3
 BYTE   W06
 BYTE   An1
 BYTE   W06
 BYTE   En2
 BYTE   N04  An2
 BYTE   W06
 BYTE   An1
 BYTE   W06
 BYTE   N04
 BYTE   W06
 BYTE   En2
 BYTE   N04  As2
 BYTE   W06
 BYTE   An1
 BYTE   W06
 BYTE   N04
 BYTE   W06
 BYTE   En2
 BYTE   N04  Bn2
 BYTE   W06
 BYTE   An1
 BYTE   W06
 BYTE   N04
 BYTE   W06
 BYTE   En2
 BYTE   N04  Cn3
 BYTE   W06
// 019   ----------------------------------------
 BYTE   PATT
  POIN2 Label_0_01275B1D
// 020   ----------------------------------------
 BYTE   PATT
  POIN2 Label_0_01275B4A
// 021   ----------------------------------------
 BYTE   N04  En2  v127
 BYTE   N04  An2
 BYTE   W06
 BYTE   An1
 BYTE   W06
 BYTE   N04
 BYTE   W06
 BYTE   En2
 BYTE   N04  As2
 BYTE   W06
 BYTE   An1
 BYTE   W06
 BYTE   N04
 BYTE   W06
 BYTE   En2
 BYTE   N04  Bn2
 BYTE   W06
 BYTE   An1
 BYTE   W06
 BYTE   N04
 BYTE   W06
 BYTE   En2
 BYTE   N04  Cn3
 BYTE   W06
 BYTE   An1
 BYTE   W06
 BYTE   N04
 BYTE   W06
 BYTE   En2
 BYTE   N04  Cs3
 BYTE   W06
 BYTE   An1
 BYTE   W06
 BYTE   N10  Fs1
 BYTE   N10  Cs2
 BYTE   N10  Fs2
 BYTE   W12
// 022   ----------------------------------------
 BYTE   PATT
  POIN2 Label_0_01275A82
// 023   ----------------------------------------
 BYTE   PATT
  POIN2 Label_0_01275AAA
// 024   ----------------------------------------
 BYTE   PATT
  POIN2 Label_0_01275ACC
// 025   ----------------------------------------
 BYTE   W06
 BYTE   N10  Gs1  v127
 BYTE   N10  Dn2
 BYTE   N10  Gs2
 BYTE   W18
 BYTE   Gs1
 BYTE   N10  Dn2
 BYTE   N10  Gs2
 BYTE   W12
 BYTE   N04  Dn2
 BYTE   N04  Gn2
 BYTE   W06
 BYTE   Gn1
 BYTE   W06
 BYTE   N04
 BYTE   W06
 BYTE   Dn2
 BYTE   N04  Gn2
 BYTE   W06
 BYTE   Gn1
 BYTE   W06
 BYTE   N04
 BYTE   W06
 BYTE   Dn2
 BYTE   N04  Gn2
 BYTE   W06
 BYTE   Gn1
 BYTE   W06
 BYTE   N04
 BYTE   W06
 BYTE   Dn2
 BYTE   N04  Gn2
 BYTE   W06
// 026   ----------------------------------------
Label_0_01275CC7:
 BYTE   N04  Gn1  v127
 BYTE   W06
 BYTE   N04
 BYTE   W06
 BYTE   Dn2
 BYTE   N04  Gn2
 BYTE   W06
 BYTE   Gn1
 BYTE   W06
 BYTE   Dn2
 BYTE   N04  Gn2
 BYTE   W06
 BYTE   Gn1
 BYTE   W06
 BYTE   N04
 BYTE   W06
 BYTE   Dn2
 BYTE   N04  Gn2
 BYTE   W06
 BYTE   Gn1
 BYTE   W06
 BYTE   N04
 BYTE   W06
 BYTE   Dn2
 BYTE   N04  Gn2
 BYTE   W06
 BYTE   Gn1
 BYTE   W06
 BYTE   N04
 BYTE   W06
 BYTE   Dn2
 BYTE   N04  Gn2
 BYTE   W06
 BYTE   Gn1
 BYTE   W06
 BYTE   N04
 BYTE   W06
 BYTE   PEND 
// 027   ----------------------------------------
 BYTE   Dn2
 BYTE   N04  Gn2
 BYTE   W06
 BYTE   Gn1
 BYTE   W06
 BYTE   Dn2
 BYTE   N04  Gn2
 BYTE   W06
 BYTE   Gn1
 BYTE   W06
 BYTE   N04
 BYTE   W06
 BYTE   Dn2
 BYTE   N04  Gn2
 BYTE   W06
 BYTE   Gn1
 BYTE   W06
 BYTE   N04
 BYTE   W06
 BYTE   Dn2
 BYTE   N04  Gn2
 BYTE   W06
 BYTE   Gn1
 BYTE   W06
 BYTE   N04
 BYTE   W06
 BYTE   Dn2
 BYTE   N04  Gn2
 BYTE   W06
 BYTE   Gn1
 BYTE   W06
 BYTE   N04
 BYTE   W06
 BYTE   Dn2
 BYTE   N04  Gn2
 BYTE   W06
 BYTE   Gn1
 BYTE   W06
// 028   ----------------------------------------
Label_0_01275D20:
 BYTE   N04  Dn2  v127
 BYTE   N04  Gn2
 BYTE   W06
 BYTE   Gn1
 BYTE   W06
 BYTE   N04
 BYTE   W06
 BYTE   Dn2
 BYTE   N04  Gn2
 BYTE   W06
 BYTE   Gn1
 BYTE   W06
 BYTE   N04
 BYTE   W06
 BYTE   Dn2
 BYTE   N04  Gn2
 BYTE   W06
 BYTE   Gn1
 BYTE   W06
 BYTE   N04
 BYTE   W06
 BYTE   Dn2
 BYTE   N04  Gn2
 BYTE   W06
 BYTE   Gn1
 BYTE   W06
 BYTE   N04
 BYTE   W06
 BYTE   Dn2
 BYTE   N04  Gn2
 BYTE   W06
 BYTE   Gn1
 BYTE   W06
 BYTE   Dn2
 BYTE   N04  Gn2
 BYTE   W06
 BYTE   Gn1
 BYTE   W06
 BYTE   PEND 
// 029   ----------------------------------------
Label_0_01275D4F:
 BYTE   N04  Gn1  v127
 BYTE   W06
 BYTE   Dn2
 BYTE   N04  Gn2
 BYTE   W06
 BYTE   Gn1
 BYTE   W06
 BYTE   N04
 BYTE   W06
 BYTE   Dn2
 BYTE   N04  Gn2
 BYTE   W06
 BYTE   Gn1
 BYTE   W06
 BYTE   N04
 BYTE   W06
 BYTE   Dn2
 BYTE   N04  Gn2
 BYTE   W06
 BYTE   Gn1
 BYTE   W06
 BYTE   N04
 BYTE   W06
 BYTE   Dn2
 BYTE   N04  Gn2
 BYTE   W06
 BYTE   Gn1
 BYTE   W06
 BYTE   Dn2
 BYTE   N04  Gn2
 BYTE   W06
 BYTE   Gn1
 BYTE   W06
 BYTE   N04
 BYTE   W06
 BYTE   Dn2
 BYTE   N04  Gn2
 BYTE   W06
 BYTE   PEND 
// 030   ----------------------------------------
Label_0_01275D7E:
 BYTE   N04  Gn1  v127
 BYTE   W06
 BYTE   N04
 BYTE   W06
 BYTE   Dn2
 BYTE   N04  Gn2
 BYTE   W06
 BYTE   Gn1
 BYTE   W06
 BYTE   N04
 BYTE   W06
 BYTE   Dn2
 BYTE   N04  Gn2
 BYTE   W06
 BYTE   Gn1
 BYTE   W06
 BYTE   N04
 BYTE   W06
 BYTE   Dn2
 BYTE   N04  Gn2
 BYTE   W06
 BYTE   Gn1
 BYTE   W06
 BYTE   Dn2
 BYTE   N04  Gn2
 BYTE   W06
 BYTE   Gn1
 BYTE   W06
 BYTE   N04
 BYTE   W06
 BYTE   Dn2
 BYTE   N04  Gn2
 BYTE   W06
 BYTE   Gn1
 BYTE   W06
 BYTE   N04
 BYTE   W06
 BYTE   PEND 
// 031   ----------------------------------------
Label_0_01275DAB:
 BYTE   N04  Dn2  v127
 BYTE   N04  Gn2
 BYTE   W06
 BYTE   Gn1
 BYTE   W06
 BYTE   N04
 BYTE   W06
 BYTE   Dn2
 BYTE   N04  Gn2
 BYTE   W06
 BYTE   Gn1
 BYTE   W06
 BYTE   N04
 BYTE   W06
 BYTE   Dn2
 BYTE   N04  Gn2
 BYTE   W06
 BYTE   Gn1
 BYTE   W06
 BYTE   Dn2
 BYTE   N04  Gn2
 BYTE   W06
 BYTE   Gn1
 BYTE   W06
 BYTE   N04
 BYTE   W06
 BYTE   Dn2
 BYTE   N04  Gn2
 BYTE   W06
 BYTE   Gn1
 BYTE   W06
 BYTE   N04
 BYTE   W06
 BYTE   Dn2
 BYTE   N04  Gn2
 BYTE   W06
 BYTE   Gn1
 BYTE   W06
 BYTE   PEND 
// 032   ----------------------------------------
 BYTE   N04
 BYTE   W06
 BYTE   Dn2
 BYTE   N04  Gn2
 BYTE   W06
 BYTE   Gn1
 BYTE   W06
 BYTE   N04
 BYTE   W06
 BYTE   Dn2
 BYTE   N04  Gn2
 BYTE   W06
 BYTE   Gn1
 BYTE   W06
 BYTE   En2
 BYTE   W06
 BYTE   Ds2
 BYTE   W06
 BYTE   Dn2
 BYTE   W06
 BYTE   Cs2
 BYTE   W06
 BYTE   Cn2
 BYTE   W06
 BYTE   Bn1
 BYTE   W06
 BYTE   En2
 BYTE   W06
 BYTE   Ds2
 BYTE   W06
 BYTE   Dn2
 BYTE   W06
 BYTE   Cs2
 BYTE   W06
// 033   ----------------------------------------
 BYTE   Cn2
 BYTE   W06
 BYTE   Bn1
 BYTE   W06
 BYTE   En2
 BYTE   W06
 BYTE   Ds2
 BYTE   W06
 BYTE   En2
 BYTE   W06
 BYTE   Ds2
 BYTE   W06
 BYTE   Dn2
 BYTE   W06
 BYTE   Cs2
 BYTE   W06
 BYTE   Cn2
 BYTE   W06
 BYTE   Bn1
 BYTE   W06
 BYTE   En2
 BYTE   W06
 BYTE   Ds2
 BYTE   W06
 BYTE   Dn2
 BYTE   W06
 BYTE   Cs2
 BYTE   W06
 BYTE   Cn2
 BYTE   W06
 BYTE   Bn1
 BYTE   W06
// 034   ----------------------------------------
 BYTE   En2
 BYTE   W06
 BYTE   Ds2
 BYTE   W06
 BYTE   En2  v120
 BYTE   W06
 BYTE   Ds2
 BYTE   W06
 BYTE   Dn2
 BYTE   W06
 BYTE   Cs2
 BYTE   W06
 BYTE   Cn2
 BYTE   W06
 BYTE   Bn1
 BYTE   W06
 BYTE   En2
 BYTE   W06
 BYTE   Ds2
 BYTE   W06
 BYTE   Dn2
 BYTE   W06
 BYTE   Cs2
 BYTE   W06
 BYTE   Cn2
 BYTE   W06
 BYTE   Bn1
 BYTE   W06
 BYTE   En2
 BYTE   W06
 BYTE   Ds2
 BYTE   W06
// 035   ----------------------------------------
 BYTE   En2
 BYTE   W06
 BYTE   Ds2
 BYTE   W06
 BYTE   Dn2
 BYTE   W06
 BYTE   Cs2
 BYTE   W06
 BYTE   Cn2
 BYTE   W06
 BYTE   Bn1
 BYTE   W06
 BYTE   En2
 BYTE   W06
 BYTE   Ds2
 BYTE   W06
 BYTE   Dn2
 BYTE   W06
 BYTE   Cs2
 BYTE   W06
 BYTE   Cn2
 BYTE   W06
 BYTE   Bn1
 BYTE   W06
 BYTE   En2
 BYTE   W06
 BYTE   Ds2
 BYTE   W06
 BYTE   En2
 BYTE   W06
 BYTE   Ds2
 BYTE   W06
// 036   ----------------------------------------
 BYTE   Dn2
 BYTE   W06
 BYTE   Cs2
 BYTE   W06
 BYTE   Cn2
 BYTE   W06
 BYTE   Bn1
 BYTE   W06
 BYTE   En2
 BYTE   W06
 BYTE   Ds2
 BYTE   W06
 BYTE   Dn2
 BYTE   W06
 BYTE   Cs2
 BYTE   W06
 BYTE   Cn2
 BYTE   W06
 BYTE   Bn1
 BYTE   W06
 BYTE   En2
 BYTE   W06
 BYTE   Ds2
 BYTE   W06
 BYTE   En2
 BYTE   W06
 BYTE   Ds2
 BYTE   W06
 BYTE   Dn2
 BYTE   W06
 BYTE   Cs2
 BYTE   W06
// 037   ----------------------------------------
 BYTE   Cn2
 BYTE   W06
 BYTE   Bn1
 BYTE   W06
 BYTE   En2
 BYTE   W06
 BYTE   Ds2
 BYTE   W06
 BYTE   Dn2
 BYTE   W06
 BYTE   Cs2
 BYTE   W06
 BYTE   Cn2
 BYTE   W06
 BYTE   Bn1
 BYTE   W06
 BYTE   En2
 BYTE   W06
 BYTE   Ds2
 BYTE   W06
 BYTE   En2  v112
 BYTE   W06
 BYTE   Ds2
 BYTE   W06
 BYTE   Dn2
 BYTE   W06
 BYTE   Cs2
 BYTE   W06
 BYTE   Cn2
 BYTE   W06
 BYTE   Bn1
 BYTE   W06
// 038   ----------------------------------------
 BYTE   En2
 BYTE   W06
 BYTE   Ds2
 BYTE   W06
 BYTE   Dn2
 BYTE   W06
 BYTE   Cs2
 BYTE   W06
 BYTE   Cn2
 BYTE   W06
 BYTE   Bn1
 BYTE   W06
 BYTE   En2
 BYTE   W06
 BYTE   Ds2
 BYTE   W06
 BYTE   En2
 BYTE   W06
 BYTE   Ds2
 BYTE   W06
 BYTE   Dn2
 BYTE   W06
 BYTE   Cs2
 BYTE   W06
 BYTE   Cn2
 BYTE   W06
 BYTE   Bn1
 BYTE   W06
 BYTE   En2
 BYTE   W06
 BYTE   Ds2
 BYTE   W06
// 039   ----------------------------------------
 BYTE   Dn2
 BYTE   W06
 BYTE   Cs2
 BYTE   W06
 BYTE   Cn2
 BYTE   W06
 BYTE   Bn1
 BYTE   W06
 BYTE   En2
 BYTE   W06
 BYTE   Ds2
 BYTE   W06
 BYTE   Dn2  v127
 BYTE   N04  Gn2
 BYTE   W06
 BYTE   Gn1
 BYTE   W06
 BYTE   N04
 BYTE   W06
 BYTE   Dn2
 BYTE   N04  Gn2
 BYTE   W06
 BYTE   Gn1
 BYTE   W06
 BYTE   N04
 BYTE   W06
 BYTE   Dn2
 BYTE   N04  Gn2
 BYTE   W06
 BYTE   Gn1
 BYTE   W06
 BYTE   Dn2
 BYTE   N04  Gn2
 BYTE   W06
 BYTE   Gn1
 BYTE   W06
// 040   ----------------------------------------
 BYTE   N04
 BYTE   W06
 BYTE   Dn2
 BYTE   N04  Gn2
 BYTE   W06
 BYTE   Gn1
 BYTE   W06
 BYTE   N04
 BYTE   W06
 BYTE   An2
 BYTE   N04  Dn3
 BYTE   W06
 BYTE   Dn2
 BYTE   W06
 BYTE   N04
 BYTE   W06
 BYTE   An2
 BYTE   N04  Dn3
 BYTE   W06
 BYTE   Dn2
 BYTE   W06
 BYTE   N04
 BYTE   W06
 BYTE   An2
 BYTE   N04  Dn3
 BYTE   W06
 BYTE   Dn2
 BYTE   W06
 BYTE   N04
 BYTE   W06
 BYTE   An2
 BYTE   N04  Dn3
 BYTE   W06
 BYTE   Dn2
 BYTE   W06
 BYTE   N04
 BYTE   W06
// 041   ----------------------------------------
 BYTE   An2
 BYTE   N04  Dn3
 BYTE   W06
 BYTE   Dn2
 BYTE   W06
 BYTE   En1
 BYTE   W06
 BYTE   N04
 BYTE   W06
 BYTE   En2
 BYTE   W06
 BYTE   En1
 BYTE   W06
 BYTE   Dn2
 BYTE   W06
 BYTE   En2
 BYTE   W06
 BYTE   En1
 BYTE   W06
 BYTE   N10
 BYTE   W12
 BYTE   N04
 BYTE   W06
 BYTE   En2
 BYTE   W06
 BYTE   En1
 BYTE   W06
 BYTE   Dn2
 BYTE   W06
 BYTE   En2
 BYTE   W06
// 042   ----------------------------------------
Label_0_01275F33:
 BYTE   N04  En1  v127
 BYTE   W06
 BYTE   N04
 BYTE   W06
 BYTE   En2
 BYTE   W06
 BYTE   En1
 BYTE   W06
 BYTE   Dn2
 BYTE   W06
 BYTE   En2
 BYTE   W06
 BYTE   En1
 BYTE   W06
 BYTE   N10
 BYTE   W12
 BYTE   N04
 BYTE   W06
 BYTE   En2
 BYTE   W06
 BYTE   En1
 BYTE   W06
 BYTE   Dn2
 BYTE   W06
 BYTE   En2
 BYTE   W06
 BYTE   En1
 BYTE   W06
 BYTE   N04
 BYTE   W06
 BYTE   PEND 
// 043   ----------------------------------------
Label_0_01275F54:
 BYTE   N04  En2  v127
 BYTE   W06
 BYTE   En1
 BYTE   W06
 BYTE   Dn2
 BYTE   W06
 BYTE   En2
 BYTE   W06
 BYTE   En1
 BYTE   W06
 BYTE   N10
 BYTE   W12
 BYTE   N04
 BYTE   W06
 BYTE   En2
 BYTE   W06
 BYTE   En1
 BYTE   W06
 BYTE   Dn2
 BYTE   W06
 BYTE   En2
 BYTE   W06
 BYTE   En1
 BYTE   W06
 BYTE   N04
 BYTE   W06
 BYTE   En2
 BYTE   W06
 BYTE   En1
 BYTE   W06
 BYTE   PEND 
// 044   ----------------------------------------
Label_0_01275F75:
 BYTE   N04  Dn2  v127
 BYTE   W06
 BYTE   En2
 BYTE   W06
 BYTE   En1
 BYTE   W06
 BYTE   N10
 BYTE   W12
 BYTE   N04
 BYTE   W06
 BYTE   En2
 BYTE   W06
 BYTE   En1
 BYTE   W06
 BYTE   Dn2
 BYTE   W06
 BYTE   En2
 BYTE   W06
 BYTE   Fs1
 BYTE   W06
 BYTE   N04
 BYTE   W06
 BYTE   Fs2
 BYTE   W06
 BYTE   Fs1
 BYTE   W06
 BYTE   En2
 BYTE   W06
 BYTE   Fs2
 BYTE   W06
 BYTE   PEND 
// 045   ----------------------------------------
Label_0_01275F96:
 BYTE   N04  Fs1  v127
 BYTE   W06
 BYTE   N10
 BYTE   W12
 BYTE   N04
 BYTE   W06
 BYTE   Fs2
 BYTE   W06
 BYTE   Fs1
 BYTE   W06
 BYTE   En2
 BYTE   W06
 BYTE   Fs2
 BYTE   W06
 BYTE   Fs1
 BYTE   W06
 BYTE   N04
 BYTE   W06
 BYTE   Fs2
 BYTE   W06
 BYTE   Fs1
 BYTE   W06
 BYTE   En2
 BYTE   W06
 BYTE   Fs2
 BYTE   W06
 BYTE   Fs1
 BYTE   W06
 BYTE   N10
 BYTE   W06
 BYTE   PEND 
// 046   ----------------------------------------
Label_0_01275FB7:
 BYTE   W06
 BYTE   N04  Fs1  v127
 BYTE   W06
 BYTE   Fs2
 BYTE   W06
 BYTE   Fs1
 BYTE   W06
 BYTE   En2
 BYTE   W06
 BYTE   Fs2
 BYTE   W06
 BYTE   Fs1
 BYTE   W06
 BYTE   N04
 BYTE   W06
 BYTE   Fs2
 BYTE   W06
 BYTE   Fs1
 BYTE   W06
 BYTE   En2
 BYTE   W06
 BYTE   Fs2
 BYTE   W06
 BYTE   Fs1
 BYTE   W06
 BYTE   N10
 BYTE   W12
 BYTE   N04
 BYTE   W06
 BYTE   PEND 
// 047   ----------------------------------------
Label_0_01275FD7:
 BYTE   N04  Fs2  v127
 BYTE   W06
 BYTE   Fs1
 BYTE   W06
 BYTE   En2
 BYTE   W06
 BYTE   Fs2
 BYTE   W06
 BYTE   Fs1
 BYTE   W06
 BYTE   N04
 BYTE   W06
 BYTE   Fs2
 BYTE   W06
 BYTE   Fs1
 BYTE   W06
 BYTE   En2
 BYTE   W06
 BYTE   Fs2
 BYTE   W06
 BYTE   Fs1
 BYTE   W06
 BYTE   N10
 BYTE   W12
 BYTE   N04
 BYTE   W06
 BYTE   Fs2
 BYTE   W06
 BYTE   Fs1
 BYTE   W06
 BYTE   PEND 
// 048   ----------------------------------------
 BYTE   En2
 BYTE   W06
 BYTE   Fs2
 BYTE   W06
 BYTE   En1
 BYTE   W06
 BYTE   N04
 BYTE   W06
 BYTE   En2
 BYTE   W06
 BYTE   En1
 BYTE   W06
 BYTE   Dn2
 BYTE   W06
 BYTE   En2
 BYTE   W06
 BYTE   En1
 BYTE   W06
 BYTE   N10
 BYTE   W12
 BYTE   N04
 BYTE   W06
 BYTE   En2
 BYTE   W06
 BYTE   En1
 BYTE   W06
 BYTE   Dn2
 BYTE   W06
 BYTE   En2
 BYTE   W06
// 049   ----------------------------------------
 BYTE   PATT
  POIN2 Label_0_01275F33
// 050   ----------------------------------------
 BYTE   PATT
  POIN2 Label_0_01275F54
// 051   ----------------------------------------
 BYTE   PATT
  POIN2 Label_0_01275F75
// 052   ----------------------------------------
 BYTE   PATT
  POIN2 Label_0_01275F96
// 053   ----------------------------------------
 BYTE   PATT
  POIN2 Label_0_01275FB7
// 054   ----------------------------------------
 BYTE   PATT
  POIN2 Label_0_01275FD7
// 055   ----------------------------------------
 BYTE   N04  En2  v127
 BYTE   W06
 BYTE   Fs2
 BYTE   W06
 BYTE   Dn2
 BYTE   N04  Gn2
 BYTE   W06
 BYTE   Gn1
 BYTE   W06
 BYTE   N04
 BYTE   W06
 BYTE   Dn2
 BYTE   N04  Gn2
 BYTE   W06
 BYTE   Gn1
 BYTE   W06
 BYTE   N04
 BYTE   W06
 BYTE   Dn2
 BYTE   N04  Gn2
 BYTE   W06
 BYTE   Gn1
 BYTE   W06
 BYTE   N04
 BYTE   W06
 BYTE   Dn2
 BYTE   N04  Gn2
 BYTE   W06
 BYTE   Gn1
 BYTE   W06
 BYTE   N04
 BYTE   W06
 BYTE   Dn2
 BYTE   N04  Gn2
 BYTE   W06
 BYTE   Gn1
 BYTE   W06
// 056   ----------------------------------------
 BYTE   PATT
  POIN2 Label_0_01275D20
// 057   ----------------------------------------
 BYTE   PATT
  POIN2 Label_0_01275D4F
// 058   ----------------------------------------
 BYTE   PATT
  POIN2 Label_0_01275D7E
// 059   ----------------------------------------
 BYTE   PATT
  POIN2 Label_0_01275DAB
// 060   ----------------------------------------
 BYTE   N04  Gn1  v127
 BYTE   W06
 BYTE   Dn2
 BYTE   N04  Gn2
 BYTE   W06
 BYTE   Gn1
 BYTE   W06
 BYTE   N04
 BYTE   W06
 BYTE   Dn2
 BYTE   N04  Gn2
 BYTE   W06
 BYTE   Gn1
 BYTE   W06
 BYTE   Dn2
 BYTE   N04  Gn2
 BYTE   W06
 BYTE   Gn1
 BYTE   W06
 BYTE   N04
 BYTE   W06
 BYTE   Dn2
 BYTE   N04  Gn2
 BYTE   W06
 BYTE   Gn1
 BYTE   W06
 BYTE   N04
 BYTE   W06
 BYTE   Dn2
 BYTE   N04  Gn2
 BYTE   W06
 BYTE   Gn1
 BYTE   W06
 BYTE   N04
 BYTE   W06
 BYTE   Dn2
 BYTE   N04  Gn2
 BYTE   W06
// 061   ----------------------------------------
 BYTE   PATT
  POIN2 Label_0_01275CC7
// 062   ----------------------------------------
 BYTE   N04  Dn2  v127
 BYTE   N04  Gn2
 BYTE   W06
 BYTE   Gn1
 BYTE   W05
 BYTE   GoTo
  POIN2 Label_0_012759CB
 BYTE   FINE

//**************** Track 2 (Midi-Chn.1) ****************//

song010B_002:
// 000   ----------------------------------------
 BYTE   KEYSH   song010B_key+0
 BYTE   VOICE   56
 BYTE   VOL   44*song010B_mvl/mxv
 BYTE   PAN   c_v+6
 BYTE   BEND   c_v+0
 BYTE   N16  En3  v127
 BYTE   W06
 BYTE   Fn3
 BYTE   W06
 BYTE   Fs3
 BYTE   W06
 BYTE   Bn3
 BYTE   W06
 BYTE   Cn4
 BYTE   W06
 BYTE   As3
 BYTE   W06
 BYTE   Cs4
 BYTE   W06
 BYTE   Dn4
 BYTE   W06
 BYTE   N11  An3
 BYTE   W06
 BYTE   Fn4
 BYTE   W06
 BYTE   En4
 BYTE   W06
 BYTE   Ds4
 BYTE   W06
 BYTE   Cn4
 BYTE   W06
 BYTE   An4
 BYTE   W06
 BYTE   VOL   26*song010B_mvl/mxv
 BYTE   PAN   c_v+4
 BYTE   W01
 BYTE   N68  Fs3
 BYTE   N68  Cn4
 BYTE   W11
// 001   ----------------------------------------
Label_1_012760E8:
 BYTE   W96
// 002   ----------------------------------------
 BYTE   W96
// 003   ----------------------------------------
 BYTE   W96
// 004   ----------------------------------------
 BYTE   W36
 BYTE   N68  Fs3  v127
 BYTE   N68  Cn4
 BYTE   W60
// 005   ----------------------------------------
 BYTE   W96
// 006   ----------------------------------------
 BYTE   W96
// 007   ----------------------------------------
 BYTE   W84
 BYTE   N16  Fs3
 BYTE   N16  Fs4
 BYTE   W12
// 008   ----------------------------------------
Label_1_012760FA:
 BYTE   W06
 BYTE   N16  Fs3  v127
 BYTE   N16  Fs4
 BYTE   W18
 BYTE   Fs3
 BYTE   N16  Fs4
 BYTE   W18
 BYTE   Fs3
 BYTE   N16  Fs4
 BYTE   W18
 BYTE   N11  Fs3
 BYTE   N11  Fs4
 BYTE   W12
 BYTE   N16  Fs3
 BYTE   N16  Fs4
 BYTE   W18
 BYTE   Fs3
 BYTE   N16  Fs4
 BYTE   W06
 BYTE   PEND 
// 009   ----------------------------------------
 BYTE   W12
 BYTE   Fs3
 BYTE   N16  Fs4
 BYTE   W18
 BYTE   Fs3
 BYTE   N16  Fs4
 BYTE   W18
 BYTE   N11  Fs3
 BYTE   N11  Fs4
 BYTE   W12
 BYTE   N16  Gs3
 BYTE   N16  Gs4
 BYTE   W18
 BYTE   Gs3
 BYTE   N16  Gs4
 BYTE   W18
// 010   ----------------------------------------
 BYTE   Gs3
 BYTE   N16  Gs4
 BYTE   W18
 BYTE   Gs3
 BYTE   N16  Gs4
 BYTE   W18
 BYTE   N11  Gs3
 BYTE   N11  Gs4
 BYTE   W12
 BYTE   N16  Gs3
 BYTE   N16  Gs4
 BYTE   W18
 BYTE   Gs3
 BYTE   N16  Gs4
 BYTE   W18
 BYTE   Gs3
 BYTE   N16  Gs4
 BYTE   W12
// 011   ----------------------------------------
 BYTE   W06
 BYTE   Gs3
 BYTE   N16  Gs4
 BYTE   W18
 BYTE   N11  Gs3
 BYTE   N11  Gs4
 BYTE   W72
// 012   ----------------------------------------
 BYTE   W96
// 013   ----------------------------------------
 BYTE   W96
// 014   ----------------------------------------
 BYTE   W96
// 015   ----------------------------------------
 BYTE   W96
// 016   ----------------------------------------
 BYTE   W96
// 017   ----------------------------------------
 BYTE   W96
// 018   ----------------------------------------
 BYTE   W36
 BYTE   N05  An3
 BYTE   W06
 BYTE   Ds4
 BYTE   W06
 BYTE   An4
 BYTE   W06
 BYTE   N11  As4
 BYTE   W42
// 019   ----------------------------------------
 BYTE   W24
 BYTE   N05  An3
 BYTE   W06
 BYTE   Ds4
 BYTE   W06
 BYTE   An4
 BYTE   W06
 BYTE   N11  As4
 BYTE   W54
// 020   ----------------------------------------
 BYTE   W12
 BYTE   N05  An3
 BYTE   W06
 BYTE   Ds4
 BYTE   W06
 BYTE   An4
 BYTE   W06
 BYTE   N11  As4
 BYTE   W66
// 021   ----------------------------------------
 BYTE   N05  An3
 BYTE   W06
 BYTE   Ds4
 BYTE   W06
 BYTE   An4
 BYTE   W06
 BYTE   N11  As4
 BYTE   W66
 BYTE   N16  Fs3
 BYTE   N16  Fs4
 BYTE   W12
// 022   ----------------------------------------
 BYTE   PATT
  POIN2 Label_1_012760FA
// 023   ----------------------------------------
 BYTE   W12
 BYTE   N16  Fs3  v127
 BYTE   N16  Fs4
 BYTE   W18
 BYTE   Fs3
 BYTE   N16  Fs4
 BYTE   W18
 BYTE   N11  Fs3
 BYTE   N11  Fs4
 BYTE   W12
 BYTE   N16  Gs3  v120
 BYTE   N16  Gs4
 BYTE   W18
 BYTE   Gs3
 BYTE   N16  Gs4
 BYTE   W18
// 024   ----------------------------------------
 BYTE   Gs3
 BYTE   N16  Gs4
 BYTE   W18
 BYTE   Gs3
 BYTE   N16  Gs4
 BYTE   W18
 BYTE   N11  Gs3
 BYTE   N11  Gs4
 BYTE   W12
 BYTE   N16  Gs3
 BYTE   N16  Gs4
 BYTE   W18
 BYTE   Gs3
 BYTE   N16  Gs4
 BYTE   W18
 BYTE   Gs3
 BYTE   N16  Gs4
 BYTE   W12
// 025   ----------------------------------------
 BYTE   W06
 BYTE   Gs3
 BYTE   N16  Gs4
 BYTE   W18
 BYTE   N11  Gs3
 BYTE   N11  Gs4
 BYTE   W72
// 026   ----------------------------------------
 BYTE   W96
// 027   ----------------------------------------
 BYTE   W96
// 028   ----------------------------------------
 BYTE   W96
// 029   ----------------------------------------
 BYTE   W96
// 030   ----------------------------------------
 BYTE   W96
// 031   ----------------------------------------
 BYTE   W96
// 032   ----------------------------------------
 BYTE   W36
 BYTE   N80  En3  v108
 BYTE   N80  En4
 BYTE   W60
// 033   ----------------------------------------
 BYTE   W96
// 034   ----------------------------------------
 BYTE   W12
 BYTE   En3
 BYTE   N80  En4
 BYTE   W84
// 035   ----------------------------------------
 BYTE   W84
 BYTE   En3
 BYTE   N80  En4
 BYTE   W12
// 036   ----------------------------------------
 BYTE   W96
// 037   ----------------------------------------
 BYTE   W60
 BYTE   En3
 BYTE   N80  En4
 BYTE   W36
// 038   ----------------------------------------
 BYTE   W96
// 039   ----------------------------------------
 BYTE   W36
 BYTE   Gn3  v127
 BYTE   N80  Dn4
 BYTE   W60
// 040   ----------------------------------------
 BYTE   W24
 BYTE   N16  Dn3
 BYTE   N16  Dn4
 BYTE   W18
 BYTE   Dn3
 BYTE   N16  Dn4
 BYTE   W18
 BYTE   N11  Dn3
 BYTE   N11  Dn4
 BYTE   W12
 BYTE   Dn3
 BYTE   N11  Dn4
 BYTE   W12
 BYTE   Dn3
 BYTE   N11  Dn4
 BYTE   W12
// 041   ----------------------------------------
 BYTE   Dn3
 BYTE   N11  Dn4
 BYTE   W96
// 042   ----------------------------------------
 BYTE   W96
// 043   ----------------------------------------
 BYTE   W96
// 044   ----------------------------------------
 BYTE   W96
// 045   ----------------------------------------
 BYTE   W96
// 046   ----------------------------------------
 BYTE   W96
// 047   ----------------------------------------
 BYTE   W96
// 048   ----------------------------------------
 BYTE   W12
 BYTE   N16  En4
 BYTE   W18
 BYTE   N16
 BYTE   W18
 BYTE   N11
 BYTE   W12
 BYTE   N11
 BYTE   W12
 BYTE   N11
 BYTE   W12
 BYTE   N11
 BYTE   W12
// 049   ----------------------------------------
 BYTE   N16
 BYTE   W18
 BYTE   N16
 BYTE   W18
 BYTE   N11
 BYTE   W12
 BYTE   N11
 BYTE   W12
 BYTE   N11
 BYTE   W12
 BYTE   N11
 BYTE   W12
 BYTE   N16
 BYTE   W12
// 050   ----------------------------------------
 BYTE   W06
 BYTE   N16
 BYTE   W18
 BYTE   N11
 BYTE   W12
 BYTE   N11
 BYTE   W12
 BYTE   N11
 BYTE   W12
 BYTE   N11
 BYTE   W12
 BYTE   N16
 BYTE   W18
 BYTE   N16
 BYTE   W06
// 051   ----------------------------------------
 BYTE   W12
 BYTE   N11
 BYTE   W12
 BYTE   N11
 BYTE   W12
 BYTE   N11
 BYTE   W12
 BYTE   N11
 BYTE   W12
 BYTE   N16  Fs4
 BYTE   W18
 BYTE   N16
 BYTE   W18
// 052   ----------------------------------------
 BYTE   N11
 BYTE   W12
 BYTE   N11
 BYTE   W12
 BYTE   N11
 BYTE   W12
 BYTE   N11
 BYTE   W12
 BYTE   N16
 BYTE   W18
 BYTE   N16
 BYTE   W18
 BYTE   N11
 BYTE   W12
// 053   ----------------------------------------
 BYTE   N11
 BYTE   W12
 BYTE   N11
 BYTE   W12
 BYTE   N11
 BYTE   W12
 BYTE   N16
 BYTE   W18
 BYTE   N16
 BYTE   W18
 BYTE   N11
 BYTE   W12
 BYTE   N11
 BYTE   W12
// 054   ----------------------------------------
 BYTE   N11
 BYTE   W12
 BYTE   N11
 BYTE   W12
 BYTE   N16
 BYTE   W18
 BYTE   N16
 BYTE   W18
 BYTE   N11
 BYTE   W12
 BYTE   N11
 BYTE   W12
 BYTE   N11
 BYTE   W12
// 055   ----------------------------------------
 BYTE   N11
 BYTE   W96
// 056   ----------------------------------------
 BYTE   W96
// 057   ----------------------------------------
 BYTE   W96
// 058   ----------------------------------------
 BYTE   W96
// 059   ----------------------------------------
 BYTE   W96
// 060   ----------------------------------------
 BYTE   W96
// 061   ----------------------------------------
 BYTE   W96
// 062   ----------------------------------------
 BYTE   W11
 BYTE   GoTo
  POIN2 Label_1_012760E8
 BYTE   FINE

//**************** Track 3 (Midi-Chn.2) ****************//

song010B_003:
// 000   ----------------------------------------
 BYTE   KEYSH   song010B_key+0
 BYTE   VOICE   33
 BYTE   VOL   44*song010B_mvl/mxv
 BYTE   PAN   c_v+0
 BYTE   BEND   c_v+0
 BYTE   N06  Fn0  v127
 BYTE   W06
 BYTE   Bn0
 BYTE   W06
 BYTE   Fn1
 BYTE   W06
 BYTE   Fn0
 BYTE   W06
 BYTE   Bn0
 BYTE   W06
 BYTE   Fn1
 BYTE   W06
 BYTE   Fn0
 BYTE   W06
 BYTE   Bn0
 BYTE   W06
 BYTE   Fn1
 BYTE   W06
 BYTE   Fn0
 BYTE   W06
 BYTE   Bn0
 BYTE   W06
 BYTE   Fn1
 BYTE   W06
 BYTE   N05  Fs0
 BYTE   W06
 BYTE   Fs1
 BYTE   W06
 BYTE   An0
 BYTE   W06
 BYTE   N05
 BYTE   W06
// 001   ----------------------------------------
Label_2_012762B1:
 BYTE   N05  An1  v127
 BYTE   W06
 BYTE   An0
 BYTE   W06
 BYTE   Gn1
 BYTE   W06
 BYTE   An1
 BYTE   W06
 BYTE   An0
 BYTE   W06
 BYTE   An1
 BYTE   W06
 BYTE   An0
 BYTE   W06
 BYTE   An1
 BYTE   W06
 BYTE   Gn1
 BYTE   W06
 BYTE   An1
 BYTE   W06
 BYTE   An0
 BYTE   W06
 BYTE   An1
 BYTE   W06
 BYTE   An0
 BYTE   W06
 BYTE   N05
 BYTE   W06
 BYTE   An1
 BYTE   W06
 BYTE   An0
 BYTE   W06
// 002   ----------------------------------------
 BYTE   Gn1
 BYTE   W06
 BYTE   An1
 BYTE   W06
 BYTE   An0
 BYTE   W06
 BYTE   An1
 BYTE   W06
 BYTE   An0
 BYTE   W06
 BYTE   An1
 BYTE   W06
 BYTE   Gn1
 BYTE   W06
 BYTE   An1
 BYTE   W06
 BYTE   An0
 BYTE   W06
 BYTE   An1
 BYTE   W06
 BYTE   An0
 BYTE   W06
 BYTE   N05
 BYTE   W06
 BYTE   An1
 BYTE   W06
 BYTE   An0
 BYTE   W06
 BYTE   Gn1
 BYTE   W06
 BYTE   An1
 BYTE   W06
// 003   ----------------------------------------
 BYTE   An0
 BYTE   W06
 BYTE   An1
 BYTE   W06
 BYTE   An0
 BYTE   W06
 BYTE   An1
 BYTE   W06
 BYTE   Gn1
 BYTE   W06
 BYTE   An1
 BYTE   W06
 BYTE   An0
 BYTE   W06
 BYTE   An1
 BYTE   W06
 BYTE   An0
 BYTE   W06
 BYTE   N05
 BYTE   W06
 BYTE   An1
 BYTE   W06
 BYTE   An0
 BYTE   W06
 BYTE   Gn1
 BYTE   W06
 BYTE   An1
 BYTE   W06
 BYTE   An0
 BYTE   W06
 BYTE   An1
 BYTE   W06
// 004   ----------------------------------------
 BYTE   An0
 BYTE   W06
 BYTE   An1
 BYTE   W06
 BYTE   Gn1
 BYTE   W06
 BYTE   An1
 BYTE   W06
 BYTE   An0
 BYTE   W06
 BYTE   An1
 BYTE   W06
 BYTE   An0
 BYTE   W06
 BYTE   N05
 BYTE   W06
 BYTE   An1
 BYTE   W06
 BYTE   An0
 BYTE   W06
 BYTE   Gn1
 BYTE   W06
 BYTE   An1
 BYTE   W06
 BYTE   An0
 BYTE   W06
 BYTE   An1
 BYTE   W06
 BYTE   An0
 BYTE   W06
 BYTE   An1
 BYTE   W06
// 005   ----------------------------------------
 BYTE   Gn1
 BYTE   W06
 BYTE   An1
 BYTE   W06
 BYTE   An0
 BYTE   W06
 BYTE   An1
 BYTE   W06
 BYTE   An0
 BYTE   W06
 BYTE   N05
 BYTE   W06
 BYTE   An1
 BYTE   W06
 BYTE   An0
 BYTE   W06
 BYTE   Gn1
 BYTE   W06
 BYTE   An1
 BYTE   W06
 BYTE   An0
 BYTE   W06
 BYTE   An1
 BYTE   W06
 BYTE   An0
 BYTE   W06
 BYTE   An1
 BYTE   W06
 BYTE   Gn1
 BYTE   W06
 BYTE   An1
 BYTE   W06
// 006   ----------------------------------------
 BYTE   An0
 BYTE   W06
 BYTE   An1
 BYTE   W06
 BYTE   An0
 BYTE   W06
 BYTE   N05
 BYTE   W06
 BYTE   An1
 BYTE   W06
 BYTE   An0
 BYTE   W06
 BYTE   Gn1
 BYTE   W06
 BYTE   An1
 BYTE   W06
 BYTE   An0
 BYTE   W06
 BYTE   An1
 BYTE   W06
 BYTE   An0
 BYTE   W06
 BYTE   An1
 BYTE   W06
 BYTE   Gn1
 BYTE   W06
 BYTE   An1
 BYTE   W06
 BYTE   An0
 BYTE   W06
 BYTE   An1
 BYTE   W06
// 007   ----------------------------------------
 BYTE   An0
 BYTE   W06
 BYTE   N05
 BYTE   W06
 BYTE   An1
 BYTE   W06
 BYTE   An0
 BYTE   W06
 BYTE   Gn1
 BYTE   W06
 BYTE   An1
 BYTE   W06
 BYTE   An0
 BYTE   W06
 BYTE   An1
 BYTE   W06
 BYTE   An0
 BYTE   W06
 BYTE   An1
 BYTE   W06
 BYTE   Gn1
 BYTE   W06
 BYTE   An1
 BYTE   W06
 BYTE   An0
 BYTE   W06
 BYTE   An1
 BYTE   W06
 BYTE   N16  Fs0
 BYTE   W12
// 008   ----------------------------------------
Label_2_01276392:
 BYTE   W06
 BYTE   N16  Fs0  v127
 BYTE   W18
 BYTE   Fs1
 BYTE   W18
 BYTE   Fs0
 BYTE   W18
 BYTE   N11  Fs1
 BYTE   W12
 BYTE   N16  Fs0
 BYTE   W18
 BYTE   N16
 BYTE   W06
 BYTE   PEND 
// 009   ----------------------------------------
Label_2_012763A4:
 BYTE   W12
 BYTE   N16  Fs1  v127
 BYTE   W18
 BYTE   Fs0
 BYTE   W18
 BYTE   N11  Fs1
 BYTE   W12
 BYTE   N16  Gs0
 BYTE   W18
 BYTE   N16
 BYTE   W18
 BYTE   PEND 
// 010   ----------------------------------------
Label_2_012763B4:
 BYTE   N16  Gs1  v127
 BYTE   W18
 BYTE   Gs0
 BYTE   W18
 BYTE   N11  Gs1
 BYTE   W12
 BYTE   N16  Gs0
 BYTE   W18
 BYTE   N16
 BYTE   W18
 BYTE   Gs1
 BYTE   W12
 BYTE   PEND 
// 011   ----------------------------------------
 BYTE   W06
 BYTE   Gs0
 BYTE   W18
 BYTE   N11  Gs1
 BYTE   W12
 BYTE   N05  An0
 BYTE   W06
 BYTE   N05
 BYTE   W06
 BYTE   An1
 BYTE   W06
 BYTE   An0
 BYTE   W06
 BYTE   N05
 BYTE   W06
 BYTE   An1
 BYTE   W06
 BYTE   An0
 BYTE   W06
 BYTE   N05
 BYTE   W06
 BYTE   Gn1
 BYTE   W06
 BYTE   An1
 BYTE   W06
// 012   ----------------------------------------
 BYTE   An0
 BYTE   W06
 BYTE   An1
 BYTE   W06
 BYTE   An0
 BYTE   W06
 BYTE   An1
 BYTE   W06
 BYTE   An0
 BYTE   W06
 BYTE   N05
 BYTE   W06
 BYTE   An1
 BYTE   W06
 BYTE   An0
 BYTE   W06
 BYTE   N05
 BYTE   W06
 BYTE   An1
 BYTE   W06
 BYTE   An0
 BYTE   W06
 BYTE   N05
 BYTE   W06
 BYTE   Gn1
 BYTE   W06
 BYTE   An1
 BYTE   W06
 BYTE   An0
 BYTE   W06
 BYTE   An1
 BYTE   W06
// 013   ----------------------------------------
 BYTE   An0
 BYTE   W06
 BYTE   An1
 BYTE   W06
 BYTE   An0
 BYTE   W06
 BYTE   N05
 BYTE   W06
 BYTE   An1
 BYTE   W06
 BYTE   An0
 BYTE   W06
 BYTE   N05
 BYTE   W06
 BYTE   An1
 BYTE   W06
 BYTE   An0
 BYTE   W06
 BYTE   N05
 BYTE   W06
 BYTE   Gn1
 BYTE   W06
 BYTE   An1
 BYTE   W06
 BYTE   An0
 BYTE   W06
 BYTE   An1
 BYTE   W06
 BYTE   An0
 BYTE   W06
 BYTE   An1
 BYTE   W06
// 014   ----------------------------------------
 BYTE   An0
 BYTE   W06
 BYTE   N05
 BYTE   W06
 BYTE   An1
 BYTE   W06
 BYTE   An0
 BYTE   W06
 BYTE   N05
 BYTE   W06
 BYTE   An1
 BYTE   W06
 BYTE   An0
 BYTE   W06
 BYTE   N05
 BYTE   W06
 BYTE   Gn1
 BYTE   W06
 BYTE   An1
 BYTE   W06
 BYTE   An0
 BYTE   W06
 BYTE   An1
 BYTE   W06
 BYTE   An0
 BYTE   W06
 BYTE   An1
 BYTE   W06
 BYTE   An0
 BYTE   W06
 BYTE   N05
 BYTE   W06
// 015   ----------------------------------------
 BYTE   An1
 BYTE   W06
 BYTE   An0
 BYTE   W06
 BYTE   N05
 BYTE   W06
 BYTE   An1
 BYTE   W06
 BYTE   An0
 BYTE   W06
 BYTE   N05
 BYTE   W06
 BYTE   Gn1
 BYTE   W06
 BYTE   An1
 BYTE   W06
 BYTE   An0
 BYTE   W06
 BYTE   An1
 BYTE   W06
 BYTE   An0
 BYTE   W06
 BYTE   An1
 BYTE   W06
 BYTE   An0
 BYTE   W06
 BYTE   N05
 BYTE   W06
 BYTE   An1
 BYTE   W06
 BYTE   An0
 BYTE   W06
// 016   ----------------------------------------
 BYTE   N05
 BYTE   W06
 BYTE   An1
 BYTE   W06
 BYTE   An0
 BYTE   W06
 BYTE   N05
 BYTE   W06
 BYTE   Gn1
 BYTE   W06
 BYTE   An1
 BYTE   W06
 BYTE   An0
 BYTE   W06
 BYTE   An1
 BYTE   W06
 BYTE   An0
 BYTE   W06
 BYTE   An1
 BYTE   W06
 BYTE   An0
 BYTE   W06
 BYTE   N05
 BYTE   W06
 BYTE   An1
 BYTE   W06
 BYTE   An0
 BYTE   W06
 BYTE   N05
 BYTE   W06
 BYTE   An1
 BYTE   W06
// 017   ----------------------------------------
 BYTE   An0
 BYTE   W06
 BYTE   N05
 BYTE   W06
 BYTE   Gn1
 BYTE   W06
 BYTE   An1
 BYTE   W06
 BYTE   An0
 BYTE   W06
 BYTE   An1
 BYTE   W06
 BYTE   An0
 BYTE   W06
 BYTE   An1
 BYTE   W06
 BYTE   An0
 BYTE   W06
 BYTE   N05
 BYTE   W06
 BYTE   An1
 BYTE   W06
 BYTE   An0
 BYTE   W06
 BYTE   N05
 BYTE   W06
 BYTE   An1
 BYTE   W06
 BYTE   An0
 BYTE   W06
 BYTE   N05
 BYTE   W06
// 018   ----------------------------------------
 BYTE   Gn1
 BYTE   W06
 BYTE   An1
 BYTE   W06
 BYTE   An0
 BYTE   W06
 BYTE   An1
 BYTE   W06
 BYTE   An0
 BYTE   W06
 BYTE   An1
 BYTE   W06
 BYTE   An0
 BYTE   W06
 BYTE   Ds1
 BYTE   W06
 BYTE   An1
 BYTE   W06
 BYTE   N11  As1
 BYTE   W42
// 019   ----------------------------------------
 BYTE   W24
 BYTE   N05  An0
 BYTE   W06
 BYTE   Ds1
 BYTE   W06
 BYTE   An1
 BYTE   W06
 BYTE   N11  As1
 BYTE   W54
// 020   ----------------------------------------
 BYTE   W12
 BYTE   N05  An0
 BYTE   W06
 BYTE   Ds1
 BYTE   W06
 BYTE   An1
 BYTE   W06
 BYTE   N11  As1
 BYTE   W66
// 021   ----------------------------------------
 BYTE   N05  An0
 BYTE   W06
 BYTE   Ds1
 BYTE   W06
 BYTE   An1
 BYTE   W06
 BYTE   N11  As1
 BYTE   W66
 BYTE   N16  Fs0
 BYTE   W12
// 022   ----------------------------------------
 BYTE   PATT
  POIN2 Label_2_01276392
// 023   ----------------------------------------
 BYTE   PATT
  POIN2 Label_2_012763A4
// 024   ----------------------------------------
 BYTE   PATT
  POIN2 Label_2_012763B4
// 025   ----------------------------------------
 BYTE   W06
 BYTE   N16  Gs0  v127
 BYTE   W18
 BYTE   N11  Gs1
 BYTE   W12
 BYTE   N05  Gn0
 BYTE   W06
 BYTE   N05
 BYTE   W06
 BYTE   Gn1
 BYTE   W06
 BYTE   Gn0
 BYTE   W06
 BYTE   N05
 BYTE   W06
 BYTE   N05
 BYTE   W06
 BYTE   Gn1
 BYTE   W06
 BYTE   Gn0
 BYTE   W06
 BYTE   N05
 BYTE   W06
 BYTE   Gn1
 BYTE   W06
// 026   ----------------------------------------
Label_2_01276504:
 BYTE   N05  Gn0  v127
 BYTE   W06
 BYTE   N05
 BYTE   W06
 BYTE   Gn1
 BYTE   W06
 BYTE   Gn0
 BYTE   W06
 BYTE   N05
 BYTE   W06
 BYTE   N05
 BYTE   W06
 BYTE   Gn1
 BYTE   W06
 BYTE   Gn0
 BYTE   W06
 BYTE   N05
 BYTE   W06
 BYTE   N05
 BYTE   W06
 BYTE   Gn1
 BYTE   W06
 BYTE   Gn0
 BYTE   W06
 BYTE   N05
 BYTE   W06
 BYTE   Gn1
 BYTE   W06
 BYTE   Gn0
 BYTE   W06
 BYTE   N05
 BYTE   W06
 BYTE   PEND 
// 027   ----------------------------------------
 BYTE   Gn1
 BYTE   W06
 BYTE   Gn0
 BYTE   W06
 BYTE   N05
 BYTE   W06
 BYTE   N05
 BYTE   W06
 BYTE   Gn1
 BYTE   W06
 BYTE   Gn0
 BYTE   W06
 BYTE   N05
 BYTE   W06
 BYTE   N05
 BYTE   W06
 BYTE   Gn1
 BYTE   W06
 BYTE   Gn0
 BYTE   W06
 BYTE   N05
 BYTE   W06
 BYTE   Gn1
 BYTE   W06
 BYTE   Gn0
 BYTE   W06
 BYTE   N05
 BYTE   W06
 BYTE   Gn1
 BYTE   W06
 BYTE   Gn0
 BYTE   W06
// 028   ----------------------------------------
Label_2_01276547:
 BYTE   N05  Gn0  v127
 BYTE   W06
 BYTE   N05
 BYTE   W06
 BYTE   Gn1
 BYTE   W06
 BYTE   Gn0
 BYTE   W06
 BYTE   N05
 BYTE   W06
 BYTE   N05
 BYTE   W06
 BYTE   Gn1
 BYTE   W06
 BYTE   Gn0
 BYTE   W06
 BYTE   N05
 BYTE   W06
 BYTE   Gn1
 BYTE   W06
 BYTE   Gn0
 BYTE   W06
 BYTE   N05
 BYTE   W06
 BYTE   Gn1
 BYTE   W06
 BYTE   Gn0
 BYTE   W06
 BYTE   N05
 BYTE   W06
 BYTE   N05
 BYTE   W06
 BYTE   PEND 
// 029   ----------------------------------------
Label_2_0127656A:
 BYTE   N05  Gn1  v127
 BYTE   W06
 BYTE   Gn0
 BYTE   W06
 BYTE   N05
 BYTE   W06
 BYTE   N05
 BYTE   W06
 BYTE   Gn1
 BYTE   W06
 BYTE   Gn0
 BYTE   W06
 BYTE   N05
 BYTE   W06
 BYTE   Gn1
 BYTE   W06
 BYTE   Gn0
 BYTE   W06
 BYTE   N05
 BYTE   W06
 BYTE   Gn1
 BYTE   W06
 BYTE   Gn0
 BYTE   W06
 BYTE   N05
 BYTE   W06
 BYTE   N05
 BYTE   W06
 BYTE   Gn1
 BYTE   W06
 BYTE   Gn0
 BYTE   W06
 BYTE   PEND 
// 030   ----------------------------------------
Label_2_0127658D:
 BYTE   N05  Gn0  v127
 BYTE   W06
 BYTE   N05
 BYTE   W06
 BYTE   Gn1
 BYTE   W06
 BYTE   Gn0
 BYTE   W06
 BYTE   N05
 BYTE   W06
 BYTE   Gn1
 BYTE   W06
 BYTE   Gn0
 BYTE   W06
 BYTE   N05
 BYTE   W06
 BYTE   Gn1
 BYTE   W06
 BYTE   Gn0
 BYTE   W06
 BYTE   N05
 BYTE   W06
 BYTE   N05
 BYTE   W06
 BYTE   Gn1
 BYTE   W06
 BYTE   Gn0
 BYTE   W06
 BYTE   N05
 BYTE   W06
 BYTE   N05
 BYTE   W06
 BYTE   PEND 
// 031   ----------------------------------------
Label_2_012765B0:
 BYTE   N05  Gn1  v127
 BYTE   W06
 BYTE   Gn0
 BYTE   W06
 BYTE   N05
 BYTE   W06
 BYTE   Gn1
 BYTE   W06
 BYTE   Gn0
 BYTE   W06
 BYTE   N05
 BYTE   W06
 BYTE   Gn1
 BYTE   W06
 BYTE   Gn0
 BYTE   W06
 BYTE   N05
 BYTE   W06
 BYTE   N05
 BYTE   W06
 BYTE   Gn1
 BYTE   W06
 BYTE   Gn0
 BYTE   W06
 BYTE   N05
 BYTE   W06
 BYTE   N05
 BYTE   W06
 BYTE   Gn1
 BYTE   W06
 BYTE   Gn0
 BYTE   W06
 BYTE   PEND 
// 032   ----------------------------------------
 BYTE   N05
 BYTE   W06
 BYTE   Gn1
 BYTE   W06
 BYTE   Gn0
 BYTE   W06
 BYTE   N05
 BYTE   W06
 BYTE   Gn1
 BYTE   W06
 BYTE   Gn0
 BYTE   W06
 BYTE   En1
 BYTE   W06
 BYTE   Ds1
 BYTE   W06
 BYTE   Dn1
 BYTE   W06
 BYTE   Cs1
 BYTE   W06
 BYTE   Cn1
 BYTE   W06
 BYTE   Bn0
 BYTE   W06
 BYTE   En1
 BYTE   W06
 BYTE   Ds1
 BYTE   W06
 BYTE   Dn1
 BYTE   W06
 BYTE   Cs1
 BYTE   W06
// 033   ----------------------------------------
 BYTE   Cn1
 BYTE   W06
 BYTE   Bn0
 BYTE   W06
 BYTE   En1
 BYTE   W06
 BYTE   Ds1
 BYTE   W06
 BYTE   En1
 BYTE   W06
 BYTE   Ds1
 BYTE   W06
 BYTE   Dn1
 BYTE   W06
 BYTE   Cs1
 BYTE   W06
 BYTE   Cn1
 BYTE   W06
 BYTE   Bn0
 BYTE   W06
 BYTE   En1
 BYTE   W06
 BYTE   Ds1
 BYTE   W06
 BYTE   Dn1
 BYTE   W06
 BYTE   Cs1
 BYTE   W06
 BYTE   Cn1
 BYTE   W06
 BYTE   Bn0
 BYTE   W06
// 034   ----------------------------------------
 BYTE   En1
 BYTE   W06
 BYTE   Ds1
 BYTE   W06
 BYTE   En1
 BYTE   W06
 BYTE   Ds1
 BYTE   W06
 BYTE   Dn1
 BYTE   W06
 BYTE   Cs1
 BYTE   W06
 BYTE   Cn1
 BYTE   W06
 BYTE   Bn0
 BYTE   W06
 BYTE   En1
 BYTE   W06
 BYTE   Ds1
 BYTE   W06
 BYTE   Dn1
 BYTE   W06
 BYTE   Cs1
 BYTE   W06
 BYTE   Cn1
 BYTE   W06
 BYTE   Bn0
 BYTE   W06
 BYTE   En1
 BYTE   W06
 BYTE   Ds1
 BYTE   W06
// 035   ----------------------------------------
 BYTE   En1
 BYTE   W06
 BYTE   Ds1
 BYTE   W06
 BYTE   Dn1
 BYTE   W06
 BYTE   Cs1
 BYTE   W06
 BYTE   Cn1
 BYTE   W06
 BYTE   Bn0
 BYTE   W06
 BYTE   En1
 BYTE   W06
 BYTE   Ds1
 BYTE   W06
 BYTE   Dn1
 BYTE   W06
 BYTE   Cs1
 BYTE   W06
 BYTE   Cn1
 BYTE   W06
 BYTE   Bn0
 BYTE   W06
 BYTE   En1
 BYTE   W06
 BYTE   Ds1
 BYTE   W06
 BYTE   En1
 BYTE   W06
 BYTE   Ds1
 BYTE   W06
// 036   ----------------------------------------
 BYTE   Dn1
 BYTE   W06
 BYTE   Cs1
 BYTE   W06
 BYTE   Cn1
 BYTE   W06
 BYTE   Bn0
 BYTE   W06
 BYTE   En1
 BYTE   W06
 BYTE   Ds1
 BYTE   W06
 BYTE   Dn1
 BYTE   W06
 BYTE   Cs1
 BYTE   W06
 BYTE   Cn1
 BYTE   W06
 BYTE   Bn0
 BYTE   W06
 BYTE   En1
 BYTE   W06
 BYTE   Ds1
 BYTE   W06
 BYTE   En1
 BYTE   W06
 BYTE   Ds1
 BYTE   W06
 BYTE   Dn1
 BYTE   W06
 BYTE   Cs1
 BYTE   W06
// 037   ----------------------------------------
 BYTE   Cn1
 BYTE   W06
 BYTE   Bn0
 BYTE   W06
 BYTE   En1
 BYTE   W06
 BYTE   Ds1
 BYTE   W06
 BYTE   Dn1
 BYTE   W06
 BYTE   Cs1
 BYTE   W06
 BYTE   Cn1
 BYTE   W06
 BYTE   Bn0
 BYTE   W06
 BYTE   En1
 BYTE   W06
 BYTE   Ds1
 BYTE   W06
 BYTE   En1
 BYTE   W06
 BYTE   Ds1
 BYTE   W06
 BYTE   Dn1
 BYTE   W06
 BYTE   Cs1
 BYTE   W06
 BYTE   Cn1
 BYTE   W06
 BYTE   Bn0
 BYTE   W06
// 038   ----------------------------------------
 BYTE   En1
 BYTE   W06
 BYTE   Ds1
 BYTE   W06
 BYTE   Dn1
 BYTE   W06
 BYTE   Cs1
 BYTE   W06
 BYTE   Cn1
 BYTE   W06
 BYTE   Bn0
 BYTE   W06
 BYTE   En1
 BYTE   W06
 BYTE   Ds1
 BYTE   W06
 BYTE   En1
 BYTE   W06
 BYTE   Ds1
 BYTE   W06
 BYTE   Dn1
 BYTE   W06
 BYTE   Cs1
 BYTE   W06
 BYTE   Cn1
 BYTE   W06
 BYTE   Bn0
 BYTE   W06
 BYTE   En1
 BYTE   W06
 BYTE   Ds1
 BYTE   W06
// 039   ----------------------------------------
 BYTE   Dn1
 BYTE   W06
 BYTE   Cs1
 BYTE   W06
 BYTE   Cn1
 BYTE   W06
 BYTE   Bn0
 BYTE   W06
 BYTE   En1
 BYTE   W06
 BYTE   Ds1
 BYTE   W06
 BYTE   Gn0
 BYTE   W06
 BYTE   N05
 BYTE   W06
 BYTE   Gn1
 BYTE   W06
 BYTE   Gn0
 BYTE   W06
 BYTE   Dn1
 BYTE   W06
 BYTE   Gn1
 BYTE   W06
 BYTE   Gn0
 BYTE   W06
 BYTE   Gn1
 BYTE   W06
 BYTE   Gn0
 BYTE   W06
 BYTE   N05
 BYTE   W06
// 040   ----------------------------------------
 BYTE   Gn1
 BYTE   W06
 BYTE   Gn0
 BYTE   W06
 BYTE   Gn1
 BYTE   W06
 BYTE   Gn0
 BYTE   W06
 BYTE   Dn0
 BYTE   W06
 BYTE   N05
 BYTE   W06
 BYTE   Dn1
 BYTE   W06
 BYTE   Dn0
 BYTE   W06
 BYTE   Cn1
 BYTE   W06
 BYTE   Dn1
 BYTE   W06
 BYTE   Dn0
 BYTE   W06
 BYTE   Dn1
 BYTE   W06
 BYTE   Dn0
 BYTE   W06
 BYTE   N05
 BYTE   W06
 BYTE   Dn1
 BYTE   W06
 BYTE   Ds1
 BYTE   W06
// 041   ----------------------------------------
 BYTE   Fs1
 BYTE   W06
 BYTE   An1
 BYTE   W06
 BYTE   En0
 BYTE   W06
 BYTE   N05
 BYTE   W06
 BYTE   En1
 BYTE   W06
 BYTE   En0
 BYTE   W06
 BYTE   Dn1
 BYTE   W06
 BYTE   En1
 BYTE   W06
 BYTE   En0
 BYTE   W06
 BYTE   N11
 BYTE   W12
 BYTE   N05
 BYTE   W06
 BYTE   En1
 BYTE   W06
 BYTE   En0
 BYTE   W06
 BYTE   Dn1
 BYTE   W06
 BYTE   En1
 BYTE   W06
// 042   ----------------------------------------
Label_2_01276711:
 BYTE   N05  En0  v127
 BYTE   W06
 BYTE   N05
 BYTE   W06
 BYTE   En1
 BYTE   W06
 BYTE   En0
 BYTE   W06
 BYTE   Dn1
 BYTE   W06
 BYTE   En1
 BYTE   W06
 BYTE   En0
 BYTE   W06
 BYTE   N11
 BYTE   W12
 BYTE   N05
 BYTE   W06
 BYTE   En1
 BYTE   W06
 BYTE   En0
 BYTE   W06
 BYTE   Dn1
 BYTE   W06
 BYTE   En1
 BYTE   W06
 BYTE   En0
 BYTE   W06
 BYTE   N05
 BYTE   W06
 BYTE   PEND 
// 043   ----------------------------------------
Label_2_01276732:
 BYTE   N05  En1  v127
 BYTE   W06
 BYTE   En0
 BYTE   W06
 BYTE   Dn1
 BYTE   W06
 BYTE   En1
 BYTE   W06
 BYTE   En0
 BYTE   W06
 BYTE   N11
 BYTE   W12
 BYTE   N05
 BYTE   W06
 BYTE   En1
 BYTE   W06
 BYTE   En0
 BYTE   W06
 BYTE   Dn1
 BYTE   W06
 BYTE   En1
 BYTE   W06
 BYTE   En0
 BYTE   W06
 BYTE   N05
 BYTE   W06
 BYTE   En1
 BYTE   W06
 BYTE   En0
 BYTE   W06
 BYTE   PEND 
// 044   ----------------------------------------
Label_2_01276753:
 BYTE   N05  Dn1  v127
 BYTE   W06
 BYTE   En1
 BYTE   W06
 BYTE   En0
 BYTE   W06
 BYTE   N11
 BYTE   W12
 BYTE   N05
 BYTE   W06
 BYTE   En1
 BYTE   W06
 BYTE   En0
 BYTE   W06
 BYTE   Dn1
 BYTE   W06
 BYTE   En1
 BYTE   W06
 BYTE   Fs0
 BYTE   W06
 BYTE   N05
 BYTE   W06
 BYTE   Fs1
 BYTE   W06
 BYTE   Fs0
 BYTE   W06
 BYTE   En1
 BYTE   W06
 BYTE   Fs1
 BYTE   W06
 BYTE   PEND 
// 045   ----------------------------------------
Label_2_01276774:
 BYTE   N05  Fs0  v127
 BYTE   W06
 BYTE   N11
 BYTE   W12
 BYTE   N05
 BYTE   W06
 BYTE   Fs1
 BYTE   W06
 BYTE   Fs0
 BYTE   W06
 BYTE   En1
 BYTE   W06
 BYTE   Fs1
 BYTE   W06
 BYTE   Fs0
 BYTE   W06
 BYTE   N05
 BYTE   W06
 BYTE   Fs1
 BYTE   W06
 BYTE   Fs0
 BYTE   W06
 BYTE   En1
 BYTE   W06
 BYTE   Fs1
 BYTE   W06
 BYTE   Fs0
 BYTE   W06
 BYTE   N11
 BYTE   W06
 BYTE   PEND 
// 046   ----------------------------------------
Label_2_01276795:
 BYTE   W06
 BYTE   N05  Fs0  v127
 BYTE   W06
 BYTE   Fs1
 BYTE   W06
 BYTE   Fs0
 BYTE   W06
 BYTE   En1
 BYTE   W06
 BYTE   Fs1
 BYTE   W06
 BYTE   Fs0
 BYTE   W06
 BYTE   N05
 BYTE   W06
 BYTE   Fs1
 BYTE   W06
 BYTE   Fs0
 BYTE   W06
 BYTE   En1
 BYTE   W06
 BYTE   Fs1
 BYTE   W06
 BYTE   Fs0
 BYTE   W06
 BYTE   N11
 BYTE   W12
 BYTE   N05
 BYTE   W06
 BYTE   PEND 
// 047   ----------------------------------------
Label_2_012767B5:
 BYTE   N05  Fs1  v127
 BYTE   W06
 BYTE   Fs0
 BYTE   W06
 BYTE   En1
 BYTE   W06
 BYTE   Fs1
 BYTE   W06
 BYTE   Fs0
 BYTE   W06
 BYTE   N05
 BYTE   W06
 BYTE   Fs1
 BYTE   W06
 BYTE   Fs0
 BYTE   W06
 BYTE   En1
 BYTE   W06
 BYTE   Fs1
 BYTE   W06
 BYTE   Fs0
 BYTE   W06
 BYTE   N11
 BYTE   W12
 BYTE   N05
 BYTE   W06
 BYTE   Fs1
 BYTE   W06
 BYTE   Fs0
 BYTE   W06
 BYTE   PEND 
// 048   ----------------------------------------
 BYTE   En1
 BYTE   W06
 BYTE   Fs1
 BYTE   W06
 BYTE   En0
 BYTE   W06
 BYTE   N05
 BYTE   W06
 BYTE   En1
 BYTE   W06
 BYTE   En0
 BYTE   W06
 BYTE   Dn1
 BYTE   W06
 BYTE   En1
 BYTE   W06
 BYTE   En0
 BYTE   W06
 BYTE   N11
 BYTE   W12
 BYTE   N05
 BYTE   W06
 BYTE   En1
 BYTE   W06
 BYTE   En0
 BYTE   W06
 BYTE   Dn1
 BYTE   W06
 BYTE   En1
 BYTE   W06
// 049   ----------------------------------------
 BYTE   PATT
  POIN2 Label_2_01276711
// 050   ----------------------------------------
 BYTE   PATT
  POIN2 Label_2_01276732
// 051   ----------------------------------------
 BYTE   PATT
  POIN2 Label_2_01276753
// 052   ----------------------------------------
 BYTE   PATT
  POIN2 Label_2_01276774
// 053   ----------------------------------------
 BYTE   PATT
  POIN2 Label_2_01276795
// 054   ----------------------------------------
 BYTE   PATT
  POIN2 Label_2_012767B5
// 055   ----------------------------------------
 BYTE   N05  En1  v127
 BYTE   W06
 BYTE   Fs1
 BYTE   W06
 BYTE   Gn0
 BYTE   W06
 BYTE   N05
 BYTE   W06
 BYTE   Gn1
 BYTE   W06
 BYTE   Gn0
 BYTE   W06
 BYTE   N05
 BYTE   W06
 BYTE   N05
 BYTE   W06
 BYTE   Gn1
 BYTE   W06
 BYTE   Gn0
 BYTE   W06
 BYTE   N05
 BYTE   W06
 BYTE   Gn1
 BYTE   W06
 BYTE   Gn0
 BYTE   W06
 BYTE   N05
 BYTE   W06
 BYTE   Gn1
 BYTE   W06
 BYTE   Gn0
 BYTE   W06
// 056   ----------------------------------------
 BYTE   PATT
  POIN2 Label_2_01276547
// 057   ----------------------------------------
 BYTE   PATT
  POIN2 Label_2_0127656A
// 058   ----------------------------------------
 BYTE   PATT
  POIN2 Label_2_0127658D
// 059   ----------------------------------------
 BYTE   PATT
  POIN2 Label_2_012765B0
// 060   ----------------------------------------
 BYTE   N05  Gn0  v127
 BYTE   W06
 BYTE   Gn1
 BYTE   W06
 BYTE   Gn0
 BYTE   W06
 BYTE   N05
 BYTE   W06
 BYTE   Gn1
 BYTE   W06
 BYTE   Gn0
 BYTE   W06
 BYTE   N05
 BYTE   W06
 BYTE   N05
 BYTE   W06
 BYTE   Gn1
 BYTE   W06
 BYTE   Gn0
 BYTE   W06
 BYTE   N05
 BYTE   W06
 BYTE   N05
 BYTE   W06
 BYTE   Gn1
 BYTE   W06
 BYTE   Gn0
 BYTE   W06
 BYTE   N05
 BYTE   W06
 BYTE   Gn1
 BYTE   W06
// 061   ----------------------------------------
 BYTE   PATT
  POIN2 Label_2_01276504
// 062   ----------------------------------------
 BYTE   N05  Gn1  v127
 BYTE   W06
 BYTE   Gn0
 BYTE   W05
 BYTE   GoTo
  POIN2 Label_2_012762B1
 BYTE   FINE

//**************** Track 4 (Midi-Chn.3) ****************//

song010B_004:
// 000   ----------------------------------------
 BYTE   KEYSH   song010B_key+0
 BYTE   VOICE   48
 BYTE   VOL   26*song010B_mvl/mxv
 BYTE   PAN   c_v-20
 BYTE   BEND   c_v+0
 BYTE   W84
 BYTE   N16  En3  v127
 BYTE   W12
// 001   ----------------------------------------
Label_3_0127688A:
 BYTE   W06
 BYTE   N16  Ds3  v127
 BYTE   W18
 BYTE   N11  Gn3
 BYTE   W12
 BYTE   Fs3
 BYTE   W12
 BYTE   Bn3
 BYTE   W12
 BYTE   As3
 BYTE   W12
 BYTE   N16  Ds4
 BYTE   W18
 BYTE   An3
 BYTE   W06
// 002   ----------------------------------------
 BYTE   W12
 BYTE   N11  Gs3
 BYTE   W12
 BYTE   N32  Dn4
 BYTE   W36
 BYTE   N16  Bn3
 BYTE   W18
 BYTE   Cn4
 BYTE   W18
// 003   ----------------------------------------
 BYTE   N11  An3
 BYTE   W12
 BYTE   En4
 BYTE   W12
 BYTE   Ds4
 BYTE   W12
 BYTE   Dn4
 BYTE   W12
 BYTE   N32  An4
 BYTE   W36
 BYTE   N44  Gs4
 BYTE   W12
// 004   ----------------------------------------
 BYTE   W36
 BYTE   N16  Gn4
 BYTE   W18
 BYTE   Fs4
 BYTE   W18
 BYTE   N11  Gn4
 BYTE   W12
 BYTE   Gs4
 BYTE   W12
// 005   ----------------------------------------
 BYTE   Gn4
 BYTE   W12
 BYTE   Fs4
 BYTE   W12
 BYTE   N32  Fn4
 BYTE   W36
 BYTE   N44  En4
 BYTE   W36
// 006   ----------------------------------------
 BYTE   W12
 BYTE   N11  Ds4
 BYTE   W12
 BYTE   Dn4
 BYTE   W12
 BYTE   Gs4
 BYTE   W12
 BYTE   Gn4
 BYTE   W12
 BYTE   As4
 BYTE   W12
 BYTE   An4
 BYTE   W12
 BYTE   Cs5
 BYTE   W12
// 007   ----------------------------------------
 BYTE   N32  Dn5
 BYTE   W36
 BYTE   N44  Ds5
 BYTE   W60
// 008   ----------------------------------------
 BYTE   W96
// 009   ----------------------------------------
 BYTE   W60
 BYTE   N32  Gs4
 BYTE   W36
// 010   ----------------------------------------
 BYTE   N44  Gn4
 BYTE   W48
 BYTE   N32  Gs4
 BYTE   W36
 BYTE   N44  An4
 BYTE   W12
// 011   ----------------------------------------
 BYTE   W96
// 012   ----------------------------------------
 BYTE   W96
// 013   ----------------------------------------
 BYTE   W96
// 014   ----------------------------------------
 BYTE   W84
 BYTE   N16  En5
 BYTE   W12
// 015   ----------------------------------------
 BYTE   W06
 BYTE   Fn5
 BYTE   W18
 BYTE   N44  Bn4
 BYTE   W48
 BYTE   N80  Cn5
 BYTE   W24
// 016   ----------------------------------------
 BYTE   W60
 BYTE   N16  Dn5
 BYTE   W18
 BYTE   Ds5
 BYTE   W18
// 017   ----------------------------------------
 BYTE   N44  Gn4
 BYTE   W48
 BYTE   N80  Gs4
 BYTE   W48
// 018   ----------------------------------------
 BYTE   W36
 BYTE   N44  Cs4
 BYTE   N44  En4
 BYTE   W48
 BYTE   N32  Cn4
 BYTE   N32  Ds4
 BYTE   W12
// 019   ----------------------------------------
 BYTE   W24
 BYTE   N44  Cs4
 BYTE   N44  En4
 BYTE   W48
 BYTE   N32  Dn4
 BYTE   N32  Fn4
 BYTE   W24
// 020   ----------------------------------------
 BYTE   W12
 BYTE   N44  Cs4
 BYTE   N44  En4
 BYTE   W48
 BYTE   N32  Cn4
 BYTE   N32  Ds4
 BYTE   W36
// 021   ----------------------------------------
 BYTE   N44  Cs4
 BYTE   N44  En4
 BYTE   W48
 BYTE   N32  Dn4
 BYTE   N32  Fn4
 BYTE   W48
// 022   ----------------------------------------
 BYTE   W96
// 023   ----------------------------------------
 BYTE   W60
 BYTE   Gs4  v120
 BYTE   W36
// 024   ----------------------------------------
 BYTE   N44  Gn4
 BYTE   W48
 BYTE   N32  Gs4
 BYTE   W36
 BYTE   N44  An4
 BYTE   W12
// 025   ----------------------------------------
 BYTE   W96
// 026   ----------------------------------------
 BYTE   W96
// 027   ----------------------------------------
 BYTE   W96
// 028   ----------------------------------------
 BYTE   W96
// 029   ----------------------------------------
 BYTE   W96
// 030   ----------------------------------------
 BYTE   W96
// 031   ----------------------------------------
 BYTE   W96
// 032   ----------------------------------------
 BYTE   W96
// 033   ----------------------------------------
 BYTE   W96
// 034   ----------------------------------------
 BYTE   W12
 BYTE   N16  Gn4  v108
 BYTE   W18
 BYTE   Fs4
 BYTE   W18
 BYTE   N11  Gn4
 BYTE   W12
 BYTE   An4
 BYTE   W12
 BYTE   As4
 BYTE   W12
 BYTE   Dn4
 BYTE   W12
// 035   ----------------------------------------
 BYTE   N32  Ds4
 BYTE   W36
 BYTE   N44  Dn4
 BYTE   W48
 BYTE   N16  As4
 BYTE   W12
// 036   ----------------------------------------
 BYTE   W06
 BYTE   An4
 BYTE   W18
 BYTE   N11  As4
 BYTE   W12
 BYTE   Cn5
 BYTE   W12
 BYTE   Dn5
 BYTE   W12
 BYTE   Fs4
 BYTE   W12
 BYTE   N32  Gn4
 BYTE   W24
// 037   ----------------------------------------
 BYTE   W12
 BYTE   N44  An4
 BYTE   W48
 BYTE   N16  Gn4
 BYTE   W18
 BYTE   Fs4
 BYTE   W18
// 038   ----------------------------------------
 BYTE   N11  Gn4
 BYTE   W12
 BYTE   An4
 BYTE   W12
 BYTE   As4
 BYTE   W12
 BYTE   Dn4
 BYTE   W12
 BYTE   N32  Ds4
 BYTE   W36
 BYTE   N44  Dn4
 BYTE   W12
// 039   ----------------------------------------
 BYTE   W36
 BYTE   N16  As4
 BYTE   W18
 BYTE   An4
 BYTE   W18
 BYTE   N11  As4
 BYTE   W12
 BYTE   Cn5
 BYTE   W12
// 040   ----------------------------------------
 BYTE   Dn5
 BYTE   W12
 BYTE   Fs4
 BYTE   W12
 BYTE   N32  Gn4
 BYTE   W36
 BYTE   N44  An4
 BYTE   W36
// 041   ----------------------------------------
Label_3_012769A4:
 BYTE   W12
 BYTE   N44  En3  v127
 BYTE   W48
 BYTE   N32  Fs3
 BYTE   W36
 BYTE   PEND 
// 042   ----------------------------------------
Label_3_012769AD:
 BYTE   N44  Gn3  v127
 BYTE   W48
 BYTE   N32  An3
 BYTE   W36
 BYTE   N44  Bn3
 BYTE   W12
 BYTE   PEND 
// 043   ----------------------------------------
Label_3_012769B8:
 BYTE   W36
 BYTE   N32  Cn4  v127
 BYTE   W36
 BYTE   N44  Dn4
 BYTE   W24
 BYTE   PEND 
// 044   ----------------------------------------
Label_3_012769C1:
 BYTE   W24
 BYTE   N32  En4  v127
 BYTE   W36
 BYTE   N44  Fs4
 BYTE   W36
 BYTE   PEND 
// 045   ----------------------------------------
Label_3_012769CA:
 BYTE   W12
 BYTE   N32  Fs3  v127
 BYTE   W36
 BYTE   N44  Gs3
 BYTE   W48
 BYTE   PEND 
// 046   ----------------------------------------
Label_3_012769D3:
 BYTE   N32  An3  v127
 BYTE   W36
 BYTE   N44  Bn3
 BYTE   W48
 BYTE   N32  Cs4
 BYTE   W12
 BYTE   PEND 
// 047   ----------------------------------------
Label_3_012769DE:
 BYTE   W24
 BYTE   N44  Dn4  v127
 BYTE   W48
 BYTE   N32  Fn4
 BYTE   W24
 BYTE   PEND 
// 048   ----------------------------------------
 BYTE   PATT
  POIN2 Label_3_012769A4
// 049   ----------------------------------------
 BYTE   PATT
  POIN2 Label_3_012769AD
// 050   ----------------------------------------
 BYTE   PATT
  POIN2 Label_3_012769B8
// 051   ----------------------------------------
 BYTE   PATT
  POIN2 Label_3_012769C1
// 052   ----------------------------------------
 BYTE   PATT
  POIN2 Label_3_012769CA
// 053   ----------------------------------------
 BYTE   PATT
  POIN2 Label_3_012769D3
// 054   ----------------------------------------
 BYTE   PATT
  POIN2 Label_3_012769DE
// 055   ----------------------------------------
 BYTE   W12
 BYTE   N06  As3  v120
 BYTE   W06
 BYTE   An3
 BYTE   W06
 BYTE   As3
 BYTE   W06
 BYTE   Cn4
 BYTE   W06
 BYTE   Dn4
 BYTE   W06
 BYTE   Gn3
 BYTE   W06
 BYTE   An3
 BYTE   W06
 BYTE   As3
 BYTE   W06
 BYTE   Cn4
 BYTE   W06
 BYTE   Dn4
 BYTE   W06
 BYTE   Gn4
 BYTE   W06
 BYTE   Fs4
 BYTE   W06
 BYTE   Gn4
 BYTE   W06
 BYTE   An4
 BYTE   W06
// 056   ----------------------------------------
 BYTE   As4
 BYTE   W06
 BYTE   An4
 BYTE   W06
 BYTE   Gn4
 BYTE   W06
 BYTE   Dn4
 BYTE   W06
 BYTE   Dn5
 BYTE   W06
 BYTE   Cs5
 BYTE   W06
 BYTE   As4
 BYTE   W06
 BYTE   Gn4
 BYTE   W06
 BYTE   Cn5
 BYTE   W06
 BYTE   As4
 BYTE   W06
 BYTE   An4
 BYTE   W06
 BYTE   Gn4
 BYTE   W06
 BYTE   Fs4
 BYTE   W06
 BYTE   Gn4
 BYTE   W06
 BYTE   Fn4
 BYTE   W06
 BYTE   Ds4
 BYTE   W06
// 057   ----------------------------------------
 BYTE   Dn4
 BYTE   W06
 BYTE   Cn4
 BYTE   W06
 BYTE   Dn4
 BYTE   W06
 BYTE   As3
 BYTE   W06
 BYTE   An3
 BYTE   W06
 BYTE   Gn3
 BYTE   W06
 BYTE   An3
 BYTE   W06
 BYTE   As3
 BYTE   W06
 BYTE   Cn4
 BYTE   W06
 BYTE   Dn4
 BYTE   W06
 BYTE   Fn4
 BYTE   W06
 BYTE   Fs4
 BYTE   W06
 BYTE   Gn4
 BYTE   W06
 BYTE   Gs4
 BYTE   W06
 BYTE   An4
 BYTE   W06
 BYTE   As4
 BYTE   W06
// 058   ----------------------------------------
 BYTE   Bn4
 BYTE   W06
 BYTE   Ds4
 BYTE   W06
 BYTE   Gn4
 BYTE   W06
 BYTE   Fs4
 BYTE   W06
 BYTE   Fn4
 BYTE   W06
 BYTE   En4
 BYTE   W06
 BYTE   Ds4
 BYTE   W06
 BYTE   Dn4
 BYTE   W06
 BYTE   Cs4
 BYTE   W06
 BYTE   Cn4
 BYTE   W06
 BYTE   As3
 BYTE   W06
 BYTE   An3
 BYTE   W06
 BYTE   As3
 BYTE   W06
 BYTE   Cn4
 BYTE   W06
 BYTE   Dn4
 BYTE   W06
 BYTE   Gn3
 BYTE   W06
// 059   ----------------------------------------
 BYTE   An3
 BYTE   W06
 BYTE   As3
 BYTE   W06
 BYTE   Cn4
 BYTE   W06
 BYTE   Dn4
 BYTE   W06
 BYTE   Gn4
 BYTE   W06
 BYTE   Fs4
 BYTE   W06
 BYTE   Gn4
 BYTE   W06
 BYTE   An4
 BYTE   W06
 BYTE   As4
 BYTE   W06
 BYTE   An4
 BYTE   W06
 BYTE   Gn4
 BYTE   W06
 BYTE   Dn4
 BYTE   W06
 BYTE   Dn5
 BYTE   W06
 BYTE   Cs5
 BYTE   W06
 BYTE   As4
 BYTE   W06
 BYTE   Gn4
 BYTE   W06
// 060   ----------------------------------------
 BYTE   Cn5
 BYTE   W06
 BYTE   As4
 BYTE   W06
 BYTE   An4
 BYTE   W06
 BYTE   Gn4
 BYTE   W06
 BYTE   Fs4
 BYTE   W06
 BYTE   Gn4
 BYTE   W06
 BYTE   Fn4
 BYTE   W06
 BYTE   Ds4
 BYTE   W06
 BYTE   Dn4
 BYTE   W06
 BYTE   Cn4
 BYTE   W06
 BYTE   Dn4
 BYTE   W06
 BYTE   As3
 BYTE   W06
 BYTE   An3
 BYTE   W06
 BYTE   Gn3
 BYTE   W06
 BYTE   An3
 BYTE   W06
 BYTE   As3
 BYTE   W06
// 061   ----------------------------------------
 BYTE   Cn4
 BYTE   W06
 BYTE   Dn4
 BYTE   W06
 BYTE   Fn4
 BYTE   W06
 BYTE   Fs4
 BYTE   W06
 BYTE   Gn4
 BYTE   W06
 BYTE   Gs4
 BYTE   W06
 BYTE   An4
 BYTE   W06
 BYTE   As4
 BYTE   W06
 BYTE   Bn4
 BYTE   W06
 BYTE   Ds4
 BYTE   W06
 BYTE   Gn4
 BYTE   W06
 BYTE   Fs4
 BYTE   W06
 BYTE   Fn4
 BYTE   W06
 BYTE   En4
 BYTE   W06
 BYTE   Ds4
 BYTE   W06
 BYTE   Dn4
 BYTE   W06
// 062   ----------------------------------------
 BYTE   Cs4
 BYTE   W06
 BYTE   N05  Cn4
 BYTE   W05
 BYTE   GoTo
  POIN2 Label_3_0127688A
 BYTE   FINE

//**************** Track 5 (Midi-Chn.4) ****************//

song010B_005:
// 000   ----------------------------------------
 BYTE   KEYSH   song010B_key+0
 BYTE   VOICE   60
 BYTE   VOL   33*song010B_mvl/mxv
 BYTE   PAN   c_v+10
 BYTE   BEND   c_v+0
 BYTE   W84
 BYTE   N44  An2  v127
 BYTE   W12
// 001   ----------------------------------------
Label_4_01276B03:
 BYTE   W36
 BYTE   N22  Gs2  v127
 BYTE   W24
 BYTE   N11  Gn2
 BYTE   W12
 BYTE   N80  Fs2
 BYTE   W24
// 002   ----------------------------------------
 BYTE   W60
 BYTE   N16  Fn2
 BYTE   W18
 BYTE   Bn2
 BYTE   W18
// 003   ----------------------------------------
 BYTE   N44  En3
 BYTE   W48
 BYTE   N32  Fn3
 BYTE   W36
 BYTE   N16  En3
 BYTE   W12
// 004   ----------------------------------------
 BYTE   W06
 BYTE   Ds3
 BYTE   W18
 BYTE   N11  Dn3
 BYTE   W12
 BYTE   N16  Cs3
 BYTE   W18
 BYTE   Cn3
 BYTE   W18
 BYTE   N11  Cs3
 BYTE   W12
 BYTE   Dn3
 BYTE   W12
// 005   ----------------------------------------
 BYTE   Cs3
 BYTE   W12
 BYTE   Cn3
 BYTE   W12
 BYTE   N32  Bn2
 BYTE   W36
 BYTE   N44  As2
 BYTE   W36
// 006   ----------------------------------------
 BYTE   W12
 BYTE   N32  An2
 BYTE   W36
 BYTE   N44  En3
 BYTE   W48
// 007   ----------------------------------------
 BYTE   N16  Fn2
 BYTE   W18
 BYTE   Bn2
 BYTE   W18
 BYTE   N11  En3
 BYTE   W12
 BYTE   Fn3
 BYTE   W12
 BYTE   En3
 BYTE   W12
 BYTE   Bn2
 BYTE   W24
// 008   ----------------------------------------
 BYTE   W96
// 009   ----------------------------------------
 BYTE   W60
 BYTE   N80  Gs2  v116
 BYTE   N80  Dn3
 BYTE   W36
// 010   ----------------------------------------
 BYTE   W48
 BYTE   Gs2
 BYTE   N32  Dn3
 BYTE   W36
 BYTE   N44  Ds3
 BYTE   W12
// 011   ----------------------------------------
 BYTE   W36
 BYTE   N16  En3  v127
 BYTE   W18
 BYTE   Fn3
 BYTE   W18
 BYTE   N44  Bn2
 BYTE   W24
// 012   ----------------------------------------
 BYTE   W24
 BYTE   N80  Cn3
 BYTE   W72
// 013   ----------------------------------------
 BYTE   W12
 BYTE   N16  Dn3
 BYTE   W18
 BYTE   Ds3
 BYTE   W18
 BYTE   N44  Gn2
 BYTE   W48
// 014   ----------------------------------------
 BYTE   N80  Gs2
 BYTE   W84
 BYTE   N16  En3  v116
 BYTE   W12
// 015   ----------------------------------------
 BYTE   W06
 BYTE   Fn3
 BYTE   W18
 BYTE   N44  Bn2
 BYTE   W48
 BYTE   N80  Cn3
 BYTE   W24
// 016   ----------------------------------------
 BYTE   W60
 BYTE   N16  Dn3
 BYTE   W18
 BYTE   Ds3
 BYTE   W18
// 017   ----------------------------------------
 BYTE   N44  Gn2
 BYTE   W48
 BYTE   N80  Gs2
 BYTE   W48
// 018   ----------------------------------------
 BYTE   W36
 BYTE   N16  Gn2
 BYTE   W18
 BYTE   Fs2
 BYTE   W18
 BYTE   Gn2
 BYTE   W18
 BYTE   Gs2
 BYTE   W06
// 019   ----------------------------------------
 BYTE   W12
 BYTE   N11  An2
 BYTE   W12
 BYTE   N16  As2
 BYTE   W18
 BYTE   An2
 BYTE   W18
 BYTE   As2
 BYTE   W18
 BYTE   Bn2
 BYTE   W18
// 020   ----------------------------------------
 BYTE   N11  Cn3
 BYTE   W12
 BYTE   N16  Cs3
 BYTE   W18
 BYTE   Cn3
 BYTE   W18
 BYTE   Cs3
 BYTE   W18
 BYTE   Dn3
 BYTE   W18
 BYTE   N11  Ds3
 BYTE   W12
// 021   ----------------------------------------
 BYTE   N16  En3
 BYTE   W18
 BYTE   Ds3
 BYTE   W18
 BYTE   Dn3
 BYTE   W18
 BYTE   As2
 BYTE   W18
 BYTE   N11  Bn2
 BYTE   W24
// 022   ----------------------------------------
 BYTE   W96
// 023   ----------------------------------------
 BYTE   W60
 BYTE   N80  Gs2  v127
 BYTE   N80  Dn3
 BYTE   W36
// 024   ----------------------------------------
 BYTE   W48
 BYTE   Gs2
 BYTE   N32  Dn3
 BYTE   W36
 BYTE   N44  Ds3
 BYTE   W12
// 025   ----------------------------------------
 BYTE   W36
 BYTE   Dn2  v116
 BYTE   N44  Gn2
 BYTE   W48
 BYTE   N32  Dn2
 BYTE   N32  Gs2
 BYTE   W12
// 026   ----------------------------------------
 BYTE   W24
 BYTE   N44  Dn2
 BYTE   N44  An2
 BYTE   W48
 BYTE   N32  Dn2
 BYTE   N32  As2
 BYTE   W24
// 027   ----------------------------------------
 BYTE   W12
 BYTE   N44  Ds2
 BYTE   N44  An2
 BYTE   W48
 BYTE   N32  Ds2
 BYTE   N32  As2
 BYTE   W36
// 028   ----------------------------------------
 BYTE   N44  Ds2
 BYTE   N44  Bn2
 BYTE   W48
 BYTE   N32  Ds2
 BYTE   N32  Cn3
 BYTE   W36
 BYTE   N44  Dn2
 BYTE   N44  Gn2
 BYTE   W12
// 029   ----------------------------------------
 BYTE   W36
 BYTE   N32  Dn2
 BYTE   N32  Gs2
 BYTE   W36
 BYTE   N44  Dn2
 BYTE   N44  An2
 BYTE   W24
// 030   ----------------------------------------
 BYTE   W24
 BYTE   N32  Dn2
 BYTE   N32  As2
 BYTE   W36
 BYTE   N44  Ds2
 BYTE   N44  An2
 BYTE   W36
// 031   ----------------------------------------
 BYTE   W12
 BYTE   N32  Ds2
 BYTE   N32  As2
 BYTE   W36
 BYTE   N44  Ds2
 BYTE   N44  Bn2
 BYTE   W48
// 032   ----------------------------------------
 BYTE   N32  Ds2
 BYTE   N32  Cn3
 BYTE   W96
// 033   ----------------------------------------
 BYTE   W96
// 034   ----------------------------------------
 BYTE   W12
 BYTE   N16  Gn2  v127
 BYTE   W18
 BYTE   Fs2
 BYTE   W18
 BYTE   N11  Gn2
 BYTE   W12
 BYTE   An2
 BYTE   W12
 BYTE   As2
 BYTE   W12
 BYTE   Dn2
 BYTE   W12
// 035   ----------------------------------------
 BYTE   N32  Ds2
 BYTE   W36
 BYTE   N44  Dn2
 BYTE   W48
 BYTE   N16  As2
 BYTE   W12
// 036   ----------------------------------------
 BYTE   W06
 BYTE   An2
 BYTE   W18
 BYTE   N11  As2
 BYTE   W12
 BYTE   Cn3
 BYTE   W12
 BYTE   Dn3
 BYTE   W12
 BYTE   Fs2
 BYTE   W12
 BYTE   N32  Gn2
 BYTE   W24
// 037   ----------------------------------------
 BYTE   W12
 BYTE   N44  An2
 BYTE   W48
 BYTE   N16  Gn2
 BYTE   W18
 BYTE   Fs2
 BYTE   W18
// 038   ----------------------------------------
 BYTE   N11  Gn2
 BYTE   W12
 BYTE   An2
 BYTE   W12
 BYTE   As2
 BYTE   W12
 BYTE   Dn2
 BYTE   W12
 BYTE   N32  Ds2
 BYTE   W36
 BYTE   N44  Dn2
 BYTE   W12
// 039   ----------------------------------------
 BYTE   W36
 BYTE   N16  As2
 BYTE   W18
 BYTE   An2
 BYTE   W18
 BYTE   N11  As2
 BYTE   W12
 BYTE   Cn3
 BYTE   W12
// 040   ----------------------------------------
 BYTE   Dn3
 BYTE   W12
 BYTE   Fs2
 BYTE   W12
 BYTE   N32  Gn2
 BYTE   W36
 BYTE   N44  Fs2
 BYTE   W36
// 041   ----------------------------------------
Label_4_01276C7D:
 BYTE   W12
 BYTE   N16  En2  v127
 BYTE   W18
 BYTE   As2
 BYTE   W18
 BYTE   N11  Bn2
 BYTE   W12
 BYTE   En3
 BYTE   W12
 BYTE   Ds3
 BYTE   W12
 BYTE   Bn2
 BYTE   W12
 BYTE   PEND 
// 042   ----------------------------------------
Label_4_01276C8E:
 BYTE   N80  Cn3  v127
 BYTE   W84
 BYTE   N16  En2
 BYTE   W12
 BYTE   PEND 
// 043   ----------------------------------------
Label_4_01276C96:
 BYTE   W06
 BYTE   N16  As2  v127
 BYTE   W18
 BYTE   N11  Bn2
 BYTE   W12
 BYTE   En3
 BYTE   W12
 BYTE   Ds3
 BYTE   W12
 BYTE   Bn2
 BYTE   W12
 BYTE   N32  Gn3
 BYTE   W24
 BYTE   PEND 
// 044   ----------------------------------------
Label_4_01276CA8:
 BYTE   W12
 BYTE   N44  Fs3  v127
 BYTE   W48
 BYTE   N16  Fs2
 BYTE   W18
 BYTE   Fn2
 BYTE   W18
 BYTE   PEND 
// 045   ----------------------------------------
Label_4_01276CB3:
 BYTE   N11  As2  v127
 BYTE   W12
 BYTE   Bn2
 BYTE   W12
 BYTE   Cs2
 BYTE   W12
 BYTE   Dn2
 BYTE   W12
 BYTE   N80  Ds2
 BYTE   W48
 BYTE   PEND 
// 046   ----------------------------------------
Label_4_01276CC1:
 BYTE   W36
 BYTE   N16  An2  v127
 BYTE   W18
 BYTE   Gs2
 BYTE   W18
 BYTE   N11  Bn2
 BYTE   W12
 BYTE   An2
 BYTE   W12
 BYTE   PEND 
// 047   ----------------------------------------
Label_4_01276CCE:
 BYTE   N11  Cs3  v127
 BYTE   W12
 BYTE   Cn3
 BYTE   W12
 BYTE   N32  Cs3
 BYTE   W36
 BYTE   N44  Dn3
 BYTE   W36
 BYTE   PEND 
// 048   ----------------------------------------
 BYTE   PATT
  POIN2 Label_4_01276C7D
// 049   ----------------------------------------
 BYTE   PATT
  POIN2 Label_4_01276C8E
// 050   ----------------------------------------
 BYTE   PATT
  POIN2 Label_4_01276C96
// 051   ----------------------------------------
 BYTE   PATT
  POIN2 Label_4_01276CA8
// 052   ----------------------------------------
 BYTE   PATT
  POIN2 Label_4_01276CB3
// 053   ----------------------------------------
 BYTE   PATT
  POIN2 Label_4_01276CC1
// 054   ----------------------------------------
 BYTE   PATT
  POIN2 Label_4_01276CCE
// 055   ----------------------------------------
 BYTE   W12
 BYTE   N44  Dn2  v116
 BYTE   N44  Gn2
 BYTE   W48
 BYTE   N32  Dn2
 BYTE   N32  Gs2
 BYTE   W36
// 056   ----------------------------------------
 BYTE   N44  Dn2
 BYTE   N44  An2
 BYTE   W48
 BYTE   N32  Dn2
 BYTE   N32  As2
 BYTE   W36
 BYTE   N44  Ds2
 BYTE   N44  An2
 BYTE   W12
// 057   ----------------------------------------
 BYTE   W36
 BYTE   N32  Ds2
 BYTE   N32  As2
 BYTE   W36
 BYTE   N44  Ds2
 BYTE   N44  Bn2
 BYTE   W24
// 058   ----------------------------------------
 BYTE   W24
 BYTE   N32  Ds2
 BYTE   N32  Cn3
 BYTE   W36
 BYTE   N44  Dn2
 BYTE   N44  Gn2
 BYTE   W36
// 059   ----------------------------------------
 BYTE   W12
 BYTE   N32  Dn2
 BYTE   N32  Gs2
 BYTE   W36
 BYTE   N44  Dn2
 BYTE   N44  An2
 BYTE   W48
// 060   ----------------------------------------
 BYTE   N32  Dn2
 BYTE   N32  As2
 BYTE   W36
 BYTE   N44  Ds2
 BYTE   N44  An2
 BYTE   W48
 BYTE   N32  Ds2
 BYTE   N32  As2
 BYTE   W12
// 061   ----------------------------------------
 BYTE   W24
 BYTE   N44  Ds2
 BYTE   N44  Bn2
 BYTE   W48
 BYTE   N32  Ds2
 BYTE   N32  Cn3
 BYTE   W24
// 062   ----------------------------------------
 BYTE   W11
 BYTE   GoTo
  POIN2 Label_4_01276B03
 BYTE   FINE

//**************** Track 6 (Midi-Chn.5) ****************//

song010B_006:
// 000   ----------------------------------------
 BYTE   KEYSH   song010B_key+0
 BYTE   VOICE   48
 BYTE   VOL   26*song010B_mvl/mxv
 BYTE   PAN   c_v+20
 BYTE   BEND   c_v+0
 BYTE   W84
 BYTE   N11  An2  v124
 BYTE   W12
// 001   ----------------------------------------
Label_5_01276D6A:
 BYTE   N11  As2  v124
 BYTE   W12
 BYTE   An2
 BYTE   W12
 BYTE   Bn2
 BYTE   W12
 BYTE   As2
 BYTE   W12
 BYTE   An2
 BYTE   W12
 BYTE   Cn3
 BYTE   W12
 BYTE   Bn2
 BYTE   W12
 BYTE   As2
 BYTE   W12
// 002   ----------------------------------------
 BYTE   An2
 BYTE   W12
 BYTE   Cn3
 BYTE   W12
 BYTE   Bn2
 BYTE   W12
 BYTE   As2
 BYTE   W12
 BYTE   An2
 BYTE   W12
 BYTE   Gs2
 BYTE   W12
 BYTE   An2
 BYTE   W12
 BYTE   As2
 BYTE   W12
// 003   ----------------------------------------
 BYTE   An2
 BYTE   W12
 BYTE   Gs2
 BYTE   W12
 BYTE   An2
 BYTE   W12
 BYTE   As2
 BYTE   W12
 BYTE   Bn2
 BYTE   W12
 BYTE   Cn3
 BYTE   W12
 BYTE   Cs3
 BYTE   W12
 BYTE   As2
 BYTE   W12
// 004   ----------------------------------------
 BYTE   Bn2
 BYTE   W12
 BYTE   Gs2
 BYTE   W12
 BYTE   An2
 BYTE   W12
 BYTE   Bn2
 BYTE   W12
 BYTE   As2
 BYTE   W12
 BYTE   An2
 BYTE   W12
 BYTE   Cn3
 BYTE   W12
 BYTE   Bn2
 BYTE   W12
// 005   ----------------------------------------
 BYTE   As2
 BYTE   W12
 BYTE   An2
 BYTE   W12
 BYTE   As2
 BYTE   W12
 BYTE   Bn2
 BYTE   W12
 BYTE   Cn3
 BYTE   W12
 BYTE   Cs3
 BYTE   W12
 BYTE   Cn3
 BYTE   W12
 BYTE   Bn2
 BYTE   W12
// 006   ----------------------------------------
 BYTE   As2
 BYTE   W12
 BYTE   An2
 BYTE   W12
 BYTE   Gs2
 BYTE   W12
 BYTE   An2
 BYTE   W12
 BYTE   As2
 BYTE   W12
 BYTE   Bn2
 BYTE   W12
 BYTE   Cn3
 BYTE   W12
 BYTE   Cs3
 BYTE   W12
// 007   ----------------------------------------
 BYTE   Dn3
 BYTE   W12
 BYTE   Cs3
 BYTE   W12
 BYTE   As2
 BYTE   W12
 BYTE   Bn2
 BYTE   W12
 BYTE   Gs2
 BYTE   W12
 BYTE   An2
 BYTE   W12
 BYTE   As2
 BYTE   W24
// 008   ----------------------------------------
 BYTE   W96
// 009   ----------------------------------------
Label_5_01276DDB:
 BYTE   W60
 BYTE   N11  An2  v127
 BYTE   W12
 BYTE   Gs2
 BYTE   W12
 BYTE   An2
 BYTE   W12
 BYTE   PEND 
// 010   ----------------------------------------
Label_5_01276DE5:
 BYTE   N11  As2  v127
 BYTE   W12
 BYTE   Bn2
 BYTE   W12
 BYTE   Cn3
 BYTE   W12
 BYTE   Cs3
 BYTE   W12
 BYTE   Dn3
 BYTE   W12
 BYTE   Cs3
 BYTE   W12
 BYTE   As2
 BYTE   W12
 BYTE   Bn2
 BYTE   W12
 BYTE   PEND 
// 011   ----------------------------------------
 BYTE   Gs2
 BYTE   W12
 BYTE   An2
 BYTE   W12
 BYTE   As2
 BYTE   W12
 BYTE   N06  En4  v112
 BYTE   W06
 BYTE   Ds4
 BYTE   W06
 BYTE   Dn4
 BYTE   W06
 BYTE   Cs4
 BYTE   W06
 BYTE   Cn4
 BYTE   W06
 BYTE   Bn3
 BYTE   W06
 BYTE   En4
 BYTE   W06
 BYTE   Ds4
 BYTE   W06
 BYTE   Dn4
 BYTE   W06
 BYTE   Cs4
 BYTE   W06
// 012   ----------------------------------------
 BYTE   Cn4
 BYTE   W06
 BYTE   Bn3
 BYTE   W06
 BYTE   En4
 BYTE   W06
 BYTE   Ds4
 BYTE   W06
 BYTE   En4
 BYTE   W06
 BYTE   Ds4
 BYTE   W06
 BYTE   Dn4
 BYTE   W06
 BYTE   Cs4
 BYTE   W06
 BYTE   Cn4
 BYTE   W06
 BYTE   Bn3
 BYTE   W06
 BYTE   En4
 BYTE   W06
 BYTE   Ds4
 BYTE   W06
 BYTE   Dn4
 BYTE   W06
 BYTE   Cs4
 BYTE   W06
 BYTE   Cn4
 BYTE   W06
 BYTE   Bn3
 BYTE   W06
// 013   ----------------------------------------
 BYTE   En4
 BYTE   W06
 BYTE   Ds4
 BYTE   W06
 BYTE   En4
 BYTE   W06
 BYTE   Ds4
 BYTE   W06
 BYTE   Dn4
 BYTE   W06
 BYTE   Cs4
 BYTE   W06
 BYTE   Cn4
 BYTE   W06
 BYTE   Bn3
 BYTE   W06
 BYTE   En4
 BYTE   W06
 BYTE   Ds4
 BYTE   W06
 BYTE   Dn4
 BYTE   W06
 BYTE   Cs4
 BYTE   W06
 BYTE   Cn4
 BYTE   W06
 BYTE   Bn3
 BYTE   W06
 BYTE   En4
 BYTE   W06
 BYTE   Ds4
 BYTE   W06
// 014   ----------------------------------------
 BYTE   En4
 BYTE   W06
 BYTE   Ds4
 BYTE   W06
 BYTE   Dn4
 BYTE   W06
 BYTE   Cs4
 BYTE   W06
 BYTE   Cn4
 BYTE   W06
 BYTE   Bn3
 BYTE   W06
 BYTE   En4
 BYTE   W06
 BYTE   Ds4
 BYTE   W06
 BYTE   Dn4
 BYTE   W06
 BYTE   Cs4
 BYTE   W06
 BYTE   Cn4
 BYTE   W06
 BYTE   Bn3
 BYTE   W06
 BYTE   En4
 BYTE   W06
 BYTE   Ds4
 BYTE   W06
 BYTE   En4
 BYTE   W06
 BYTE   Ds4
 BYTE   W06
// 015   ----------------------------------------
 BYTE   Dn4
 BYTE   W06
 BYTE   Cs4
 BYTE   W06
 BYTE   Cn4
 BYTE   W06
 BYTE   Bn3
 BYTE   W06
 BYTE   En4
 BYTE   W06
 BYTE   Ds4
 BYTE   W06
 BYTE   Dn4
 BYTE   W06
 BYTE   Cs4
 BYTE   W06
 BYTE   Cn4
 BYTE   W06
 BYTE   Bn3
 BYTE   W06
 BYTE   En4
 BYTE   W06
 BYTE   Ds4
 BYTE   W06
 BYTE   En4
 BYTE   W06
 BYTE   Ds4
 BYTE   W06
 BYTE   Dn4
 BYTE   W06
 BYTE   Cs4
 BYTE   W06
// 016   ----------------------------------------
 BYTE   Cn4
 BYTE   W06
 BYTE   Bn3
 BYTE   W06
 BYTE   En4
 BYTE   W06
 BYTE   Ds4
 BYTE   W06
 BYTE   Dn4
 BYTE   W06
 BYTE   Cs4
 BYTE   W06
 BYTE   Cn4
 BYTE   W06
 BYTE   Bn3
 BYTE   W06
 BYTE   En4
 BYTE   W06
 BYTE   Ds4
 BYTE   W06
 BYTE   En4
 BYTE   W06
 BYTE   Ds4
 BYTE   W06
 BYTE   Dn4
 BYTE   W06
 BYTE   Cs4
 BYTE   W06
 BYTE   Cn4
 BYTE   W06
 BYTE   Bn3
 BYTE   W06
// 017   ----------------------------------------
 BYTE   En4
 BYTE   W06
 BYTE   Ds4
 BYTE   W06
 BYTE   Dn4
 BYTE   W06
 BYTE   Cs4
 BYTE   W06
 BYTE   Cn4
 BYTE   W06
 BYTE   Bn3
 BYTE   W06
 BYTE   En4
 BYTE   W06
 BYTE   Ds4
 BYTE   W06
 BYTE   En4
 BYTE   W06
 BYTE   Ds4
 BYTE   W06
 BYTE   Dn4
 BYTE   W06
 BYTE   Cs4
 BYTE   W06
 BYTE   Cn4
 BYTE   W06
 BYTE   Bn3
 BYTE   W06
 BYTE   En4
 BYTE   W06
 BYTE   Ds4
 BYTE   W06
// 018   ----------------------------------------
 BYTE   Dn4
 BYTE   W06
 BYTE   Cs4
 BYTE   W06
 BYTE   Cn4
 BYTE   W06
 BYTE   Bn3
 BYTE   W06
 BYTE   En4
 BYTE   W06
 BYTE   Ds4
 BYTE   W06
 BYTE   N05  An2  v108
 BYTE   W06
 BYTE   Ds3
 BYTE   W06
 BYTE   An3
 BYTE   W06
 BYTE   N11  As3
 BYTE   W42
// 019   ----------------------------------------
 BYTE   W24
 BYTE   N05  An2
 BYTE   W06
 BYTE   Ds3
 BYTE   W06
 BYTE   An3
 BYTE   W06
 BYTE   N11  As3
 BYTE   W54
// 020   ----------------------------------------
 BYTE   W12
 BYTE   N05  An2
 BYTE   W06
 BYTE   Ds3
 BYTE   W06
 BYTE   An3
 BYTE   W06
 BYTE   N11  As3
 BYTE   W66
// 021   ----------------------------------------
 BYTE   N05  An2
 BYTE   W06
 BYTE   Ds3
 BYTE   W06
 BYTE   An3
 BYTE   W06
 BYTE   N11  As3
 BYTE   W78
// 022   ----------------------------------------
 BYTE   W96
// 023   ----------------------------------------
 BYTE   PATT
  POIN2 Label_5_01276DDB
// 024   ----------------------------------------
 BYTE   PATT
  POIN2 Label_5_01276DE5
// 025   ----------------------------------------
 BYTE   N11  Gs2  v112
 BYTE   W12
 BYTE   An2  v100
 BYTE   W12
 BYTE   As2  v092
 BYTE   W72
// 026   ----------------------------------------
 BYTE   W96
// 027   ----------------------------------------
 BYTE   W96
// 028   ----------------------------------------
 BYTE   W96
// 029   ----------------------------------------
 BYTE   W96
// 030   ----------------------------------------
 BYTE   W96
// 031   ----------------------------------------
 BYTE   W96
// 032   ----------------------------------------
 BYTE   W36
 BYTE   N06  En4  v120
 BYTE   W06
 BYTE   Ds4
 BYTE   W06
 BYTE   Dn4
 BYTE   W06
 BYTE   Cs4
 BYTE   W06
 BYTE   Cn4
 BYTE   W06
 BYTE   Bn3
 BYTE   W06
 BYTE   En4
 BYTE   W06
 BYTE   Ds4
 BYTE   W06
 BYTE   Dn4
 BYTE   W06
 BYTE   Cs4
 BYTE   W06
// 033   ----------------------------------------
 BYTE   Cn4
 BYTE   W06
 BYTE   Bn3
 BYTE   W06
 BYTE   En4
 BYTE   W06
 BYTE   Ds4
 BYTE   W06
 BYTE   En4
 BYTE   W06
 BYTE   Ds4
 BYTE   W06
 BYTE   Dn4
 BYTE   W06
 BYTE   Cs4
 BYTE   W06
 BYTE   Cn4
 BYTE   W06
 BYTE   Bn3
 BYTE   W06
 BYTE   En4
 BYTE   W06
 BYTE   Ds4
 BYTE   W06
 BYTE   Dn4
 BYTE   W06
 BYTE   Cs4
 BYTE   W06
 BYTE   Cn4
 BYTE   W06
 BYTE   Bn3
 BYTE   W06
// 034   ----------------------------------------
 BYTE   En4
 BYTE   W06
 BYTE   Ds4
 BYTE   W06
 BYTE   En4  v100
 BYTE   W06
 BYTE   Ds4
 BYTE   W06
 BYTE   Dn4
 BYTE   W06
 BYTE   Cs4
 BYTE   W06
 BYTE   Cn4
 BYTE   W06
 BYTE   Bn3
 BYTE   W06
 BYTE   En4
 BYTE   W06
 BYTE   Ds4
 BYTE   W06
 BYTE   Dn4
 BYTE   W06
 BYTE   Cs4
 BYTE   W06
 BYTE   Cn4
 BYTE   W06
 BYTE   Bn3
 BYTE   W06
 BYTE   En4
 BYTE   W06
 BYTE   Ds4
 BYTE   W06
// 035   ----------------------------------------
 BYTE   En4
 BYTE   W06
 BYTE   Ds4
 BYTE   W06
 BYTE   Dn4
 BYTE   W06
 BYTE   Cs4
 BYTE   W06
 BYTE   Cn4
 BYTE   W06
 BYTE   Bn3
 BYTE   W06
 BYTE   En4
 BYTE   W06
 BYTE   Ds4
 BYTE   W06
 BYTE   Dn4
 BYTE   W06
 BYTE   Cs4
 BYTE   W06
 BYTE   Cn4
 BYTE   W06
 BYTE   Bn3
 BYTE   W06
 BYTE   En4
 BYTE   W06
 BYTE   Ds4
 BYTE   W06
 BYTE   En4
 BYTE   W06
 BYTE   Ds4
 BYTE   W06
// 036   ----------------------------------------
 BYTE   Dn4
 BYTE   W06
 BYTE   Cs4
 BYTE   W06
 BYTE   Cn4
 BYTE   W06
 BYTE   Bn3
 BYTE   W06
 BYTE   En4
 BYTE   W06
 BYTE   Ds4
 BYTE   W06
 BYTE   Dn4
 BYTE   W06
 BYTE   Cs4
 BYTE   W06
 BYTE   Cn4
 BYTE   W06
 BYTE   Bn3
 BYTE   W06
 BYTE   En4
 BYTE   W06
 BYTE   Ds4
 BYTE   W06
 BYTE   En4
 BYTE   W06
 BYTE   Ds4
 BYTE   W06
 BYTE   Dn4
 BYTE   W06
 BYTE   Cs4
 BYTE   W06
// 037   ----------------------------------------
 BYTE   Cn4
 BYTE   W06
 BYTE   Bn3
 BYTE   W06
 BYTE   En4
 BYTE   W06
 BYTE   Ds4
 BYTE   W06
 BYTE   Dn4
 BYTE   W06
 BYTE   Cs4
 BYTE   W06
 BYTE   Cn4
 BYTE   W06
 BYTE   Bn3
 BYTE   W06
 BYTE   En4
 BYTE   W06
 BYTE   Ds4
 BYTE   W06
 BYTE   En4  v108
 BYTE   W06
 BYTE   Ds4
 BYTE   W06
 BYTE   Dn4
 BYTE   W06
 BYTE   Cs4
 BYTE   W06
 BYTE   Cn4
 BYTE   W06
 BYTE   Bn3
 BYTE   W06
// 038   ----------------------------------------
 BYTE   En4
 BYTE   W06
 BYTE   Ds4
 BYTE   W06
 BYTE   Dn4
 BYTE   W06
 BYTE   Cs4
 BYTE   W06
 BYTE   Cn4
 BYTE   W06
 BYTE   Bn3
 BYTE   W06
 BYTE   En4
 BYTE   W06
 BYTE   Ds4
 BYTE   W06
 BYTE   En4
 BYTE   W06
 BYTE   Ds4
 BYTE   W06
 BYTE   Dn4
 BYTE   W06
 BYTE   Cs4
 BYTE   W06
 BYTE   Cn4
 BYTE   W06
 BYTE   Bn3
 BYTE   W06
 BYTE   En4
 BYTE   W06
 BYTE   Ds4
 BYTE   W06
// 039   ----------------------------------------
 BYTE   Dn4
 BYTE   W06
 BYTE   Cs4
 BYTE   W06
 BYTE   Cn4
 BYTE   W06
 BYTE   Bn3
 BYTE   W06
 BYTE   En4
 BYTE   W06
 BYTE   Ds4
 BYTE   W06
 BYTE   N11  Gn2  v127
 BYTE   W12
 BYTE   As2
 BYTE   W12
 BYTE   Dn3
 BYTE   W12
 BYTE   Gn3
 BYTE   W12
 BYTE   Dn3
 BYTE   W12
// 040   ----------------------------------------
 BYTE   As2
 BYTE   W12
 BYTE   Gn2
 BYTE   W12
 BYTE   Fs2
 BYTE   W12
 BYTE   An2
 BYTE   W12
 BYTE   Dn3
 BYTE   W12
 BYTE   Fs3
 BYTE   W12
 BYTE   Dn3
 BYTE   W12
 BYTE   An2
 BYTE   W12
// 041   ----------------------------------------
 BYTE   Fs2
 BYTE   W96
// 042   ----------------------------------------
 BYTE   W96
// 043   ----------------------------------------
 BYTE   W96
// 044   ----------------------------------------
 BYTE   W96
// 045   ----------------------------------------
 BYTE   W96
// 046   ----------------------------------------
 BYTE   W96
// 047   ----------------------------------------
 BYTE   W96
// 048   ----------------------------------------
 BYTE   W12
 BYTE   En2
 BYTE   W12
 BYTE   N11
 BYTE   W12
 BYTE   N11
 BYTE   W12
 BYTE   N11
 BYTE   W12
 BYTE   N11
 BYTE   W12
 BYTE   N11
 BYTE   W12
 BYTE   N11
 BYTE   W12
// 049   ----------------------------------------
 BYTE   Dn2
 BYTE   W12
 BYTE   N11
 BYTE   W12
 BYTE   N11
 BYTE   W12
 BYTE   N11
 BYTE   W12
 BYTE   N11
 BYTE   W12
 BYTE   N11
 BYTE   W12
 BYTE   N11
 BYTE   W12
 BYTE   En2
 BYTE   W12
// 050   ----------------------------------------
 BYTE   N11
 BYTE   W12
 BYTE   N11
 BYTE   W12
 BYTE   N11
 BYTE   W12
 BYTE   N11
 BYTE   W12
 BYTE   N11
 BYTE   W12
 BYTE   N11
 BYTE   W12
 BYTE   Fs2
 BYTE   W12
 BYTE   N11
 BYTE   W12
// 051   ----------------------------------------
Label_5_0127705E:
 BYTE   N11  Fs2  v127
 BYTE   W12
 BYTE   N11
 BYTE   W12
 BYTE   N11
 BYTE   W12
 BYTE   N11
 BYTE   W12
 BYTE   N11
 BYTE   W12
 BYTE   N11
 BYTE   W12
 BYTE   N11
 BYTE   W12
 BYTE   N11
 BYTE   W12
 BYTE   PEND 
// 052   ----------------------------------------
 BYTE   N11
 BYTE   W12
 BYTE   N11
 BYTE   W12
 BYTE   N11
 BYTE   W12
 BYTE   N11
 BYTE   W12
 BYTE   En2
 BYTE   W12
 BYTE   N11
 BYTE   W12
 BYTE   N11
 BYTE   W12
 BYTE   N11
 BYTE   W12
// 053   ----------------------------------------
 BYTE   N11
 BYTE   W12
 BYTE   N11
 BYTE   W12
 BYTE   N11
 BYTE   W12
 BYTE   Fs2
 BYTE   W12
 BYTE   N11
 BYTE   W12
 BYTE   N11
 BYTE   W12
 BYTE   N11
 BYTE   W12
 BYTE   N11
 BYTE   W12
// 054   ----------------------------------------
 BYTE   PATT
  POIN2 Label_5_0127705E
// 055   ----------------------------------------
 BYTE   N11  Fs2  v127
 BYTE   W96
// 056   ----------------------------------------
 BYTE   W96
// 057   ----------------------------------------
 BYTE   W96
// 058   ----------------------------------------
 BYTE   W96
// 059   ----------------------------------------
 BYTE   W96
// 060   ----------------------------------------
 BYTE   W96
// 061   ----------------------------------------
 BYTE   W96
// 062   ----------------------------------------
 BYTE   W11
 BYTE   GoTo
  POIN2 Label_5_01276D6A
 BYTE   FINE

//**************** Track 7 (Midi-Chn.6) ****************//

song010B_007:
// 000   ----------------------------------------
 BYTE   KEYSH   song010B_key+0
 BYTE   VOICE   81
 BYTE   VOL   38*song010B_mvl/mxv
 BYTE   PAN   c_v+0
 BYTE   BEND   c_v+0
 BYTE   W96
// 001   ----------------------------------------
Label_6_012770B2:
 BYTE   W96
// 002   ----------------------------------------
 BYTE   W96
// 003   ----------------------------------------
 BYTE   W96
// 004   ----------------------------------------
 BYTE   W96
// 005   ----------------------------------------
 BYTE   W96
// 006   ----------------------------------------
 BYTE   W96
// 007   ----------------------------------------
 BYTE   W96
// 008   ----------------------------------------
 BYTE   W96
// 009   ----------------------------------------
 BYTE   W96
// 010   ----------------------------------------
 BYTE   W96
// 011   ----------------------------------------
 BYTE   W96
// 012   ----------------------------------------
 BYTE   W96
// 013   ----------------------------------------
 BYTE   W96
// 014   ----------------------------------------
 BYTE   W96
// 015   ----------------------------------------
 BYTE   W96
// 016   ----------------------------------------
 BYTE   W96
// 017   ----------------------------------------
 BYTE   W96
// 018   ----------------------------------------
 BYTE   W96
// 019   ----------------------------------------
 BYTE   W96
// 020   ----------------------------------------
 BYTE   W96
// 021   ----------------------------------------
 BYTE   W96
// 022   ----------------------------------------
 BYTE   W96
// 023   ----------------------------------------
 BYTE   W96
// 024   ----------------------------------------
 BYTE   W96
// 025   ----------------------------------------
 BYTE   W36
 BYTE   N05  As3  v127
 BYTE   W06
 BYTE   An3
 BYTE   W06
 BYTE   As3
 BYTE   W06
 BYTE   Cn4
 BYTE   W06
 BYTE   Dn4
 BYTE   W06
 BYTE   Gn3
 BYTE   W06
 BYTE   An3
 BYTE   W06
 BYTE   As3
 BYTE   W06
 BYTE   Cn4
 BYTE   W06
 BYTE   Dn4
 BYTE   W06
// 026   ----------------------------------------
 BYTE   Gn4
 BYTE   W06
 BYTE   Fs4
 BYTE   W06
 BYTE   Gn4
 BYTE   W06
 BYTE   An4
 BYTE   W06
 BYTE   As4
 BYTE   W06
 BYTE   An4
 BYTE   W06
 BYTE   Gn4
 BYTE   W06
 BYTE   Dn4
 BYTE   W06
 BYTE   Dn5
 BYTE   W06
 BYTE   Cs5
 BYTE   W06
 BYTE   As4
 BYTE   W06
 BYTE   Gn4
 BYTE   W06
 BYTE   Cn5
 BYTE   W06
 BYTE   As4
 BYTE   W06
 BYTE   An4
 BYTE   W06
 BYTE   Gn4
 BYTE   W06
// 027   ----------------------------------------
 BYTE   Fs4
 BYTE   W06
 BYTE   Gn4
 BYTE   W06
 BYTE   Fn4
 BYTE   W06
 BYTE   Ds4
 BYTE   W06
 BYTE   Dn4
 BYTE   W06
 BYTE   Cn4
 BYTE   W06
 BYTE   Dn4
 BYTE   W06
 BYTE   As3
 BYTE   W06
 BYTE   An3
 BYTE   W06
 BYTE   Gn3
 BYTE   W06
 BYTE   An3
 BYTE   W06
 BYTE   As3
 BYTE   W06
 BYTE   Cn4
 BYTE   W06
 BYTE   Dn4
 BYTE   W06
 BYTE   Fn4
 BYTE   W06
 BYTE   Fs4
 BYTE   W06
// 028   ----------------------------------------
 BYTE   Gn4
 BYTE   W06
 BYTE   Gs4
 BYTE   W06
 BYTE   An4
 BYTE   W06
 BYTE   As4
 BYTE   W06
 BYTE   Bn4
 BYTE   W06
 BYTE   Ds4
 BYTE   W06
 BYTE   Gn4
 BYTE   W06
 BYTE   Fs4
 BYTE   W06
 BYTE   Fn4
 BYTE   W06
 BYTE   En4
 BYTE   W06
 BYTE   Ds4
 BYTE   W06
 BYTE   Dn4
 BYTE   W06
 BYTE   Cs4
 BYTE   W06
 BYTE   Cn4
 BYTE   W06
 BYTE   As3
 BYTE   W06
 BYTE   An3
 BYTE   W06
// 029   ----------------------------------------
 BYTE   As3
 BYTE   W06
 BYTE   Cn4
 BYTE   W06
 BYTE   Dn4
 BYTE   W06
 BYTE   Gn3
 BYTE   W06
 BYTE   An3
 BYTE   W06
 BYTE   As3
 BYTE   W06
 BYTE   Cn4
 BYTE   W06
 BYTE   Dn4
 BYTE   W06
 BYTE   Gn4
 BYTE   W06
 BYTE   Fs4
 BYTE   W06
 BYTE   Gn4
 BYTE   W06
 BYTE   An4
 BYTE   W06
 BYTE   As4
 BYTE   W06
 BYTE   An4
 BYTE   W06
 BYTE   Gn4
 BYTE   W06
 BYTE   Dn4
 BYTE   W06
// 030   ----------------------------------------
 BYTE   Dn5
 BYTE   W06
 BYTE   Cs5
 BYTE   W06
 BYTE   As4
 BYTE   W06
 BYTE   Gn4
 BYTE   W06
 BYTE   Cn5
 BYTE   W06
 BYTE   As4
 BYTE   W06
 BYTE   An4
 BYTE   W06
 BYTE   Gn4
 BYTE   W06
 BYTE   Fs4
 BYTE   W06
 BYTE   Gn4
 BYTE   W06
 BYTE   Fn4
 BYTE   W06
 BYTE   Ds4
 BYTE   W06
 BYTE   Dn4
 BYTE   W06
 BYTE   Cn4
 BYTE   W06
 BYTE   Dn4
 BYTE   W06
 BYTE   As3
 BYTE   W06
// 031   ----------------------------------------
 BYTE   An3
 BYTE   W06
 BYTE   Gn3
 BYTE   W06
 BYTE   An3
 BYTE   W06
 BYTE   As3
 BYTE   W06
 BYTE   Cn4
 BYTE   W06
 BYTE   Dn4
 BYTE   W06
 BYTE   Fn4
 BYTE   W06
 BYTE   Fs4
 BYTE   W06
 BYTE   Gn4
 BYTE   W06
 BYTE   Gs4
 BYTE   W06
 BYTE   An4
 BYTE   W06
 BYTE   As4
 BYTE   W06
 BYTE   Bn4
 BYTE   W06
 BYTE   Ds4
 BYTE   W06
 BYTE   Gn4
 BYTE   W06
 BYTE   Fs4
 BYTE   W06
// 032   ----------------------------------------
 BYTE   Fn4
 BYTE   W06
 BYTE   En4
 BYTE   W06
 BYTE   Ds4
 BYTE   W06
 BYTE   Dn4
 BYTE   W06
 BYTE   Cs4
 BYTE   W06
 BYTE   Cn4
 BYTE   W66
// 033   ----------------------------------------
 BYTE   W96
// 034   ----------------------------------------
 BYTE   W96
// 035   ----------------------------------------
 BYTE   W96
// 036   ----------------------------------------
 BYTE   W96
// 037   ----------------------------------------
 BYTE   W96
// 038   ----------------------------------------
 BYTE   W96
// 039   ----------------------------------------
 BYTE   W96
// 040   ----------------------------------------
 BYTE   W96
// 041   ----------------------------------------
 BYTE   W12
 BYTE   En4  v108
 BYTE   W06
 BYTE   Ds4
 BYTE   W06
 BYTE   Dn4
 BYTE   W06
 BYTE   En4
 BYTE   W06
 BYTE   Ds4
 BYTE   W06
 BYTE   Dn4
 BYTE   W06
 BYTE   En4
 BYTE   W06
 BYTE   Ds4
 BYTE   W06
 BYTE   Dn4
 BYTE   W06
 BYTE   Cs4
 BYTE   W06
 BYTE   Cn4
 BYTE   W06
 BYTE   Bn3
 BYTE   W06
 BYTE   Cn4
 BYTE   W06
 BYTE   Cs4
 BYTE   W06
// 042   ----------------------------------------
 BYTE   En4
 BYTE   W06
 BYTE   Ds4
 BYTE   W06
 BYTE   Dn4
 BYTE   W06
 BYTE   En4
 BYTE   W06
 BYTE   Ds4
 BYTE   W06
 BYTE   Dn4
 BYTE   W06
 BYTE   En4
 BYTE   W06
 BYTE   Ds4
 BYTE   W06
 BYTE   Dn4
 BYTE   W06
 BYTE   Cs4
 BYTE   W06
 BYTE   Cn4
 BYTE   W06
 BYTE   Bn3
 BYTE   W06
 BYTE   Cn4
 BYTE   W06
 BYTE   Cs4
 BYTE   W06
 BYTE   En4
 BYTE   W06
 BYTE   Ds4
 BYTE   W06
// 043   ----------------------------------------
 BYTE   Dn4
 BYTE   W06
 BYTE   En4
 BYTE   W06
 BYTE   Ds4
 BYTE   W06
 BYTE   Dn4
 BYTE   W06
 BYTE   En4
 BYTE   W06
 BYTE   Ds4
 BYTE   W06
 BYTE   Dn4
 BYTE   W06
 BYTE   Cs4
 BYTE   W06
 BYTE   Cn4
 BYTE   W06
 BYTE   Bn3
 BYTE   W06
 BYTE   Cn4
 BYTE   W06
 BYTE   Cs4
 BYTE   W06
 BYTE   En4
 BYTE   W06
 BYTE   Ds4
 BYTE   W06
 BYTE   Dn4
 BYTE   W06
 BYTE   En4
 BYTE   W06
// 044   ----------------------------------------
 BYTE   Ds4
 BYTE   W06
 BYTE   Dn4
 BYTE   W06
 BYTE   En4
 BYTE   W06
 BYTE   Ds4
 BYTE   W06
 BYTE   Dn4
 BYTE   W06
 BYTE   Cs4
 BYTE   W06
 BYTE   Cn4
 BYTE   W06
 BYTE   Bn3
 BYTE   W06
 BYTE   Cn4
 BYTE   W06
 BYTE   Cs4
 BYTE   W06
 BYTE   Fs4  v124
 BYTE   W06
 BYTE   Fn4
 BYTE   W06
 BYTE   En4
 BYTE   W06
 BYTE   Fs4
 BYTE   W06
 BYTE   Fn4
 BYTE   W06
 BYTE   En4
 BYTE   W06
// 045   ----------------------------------------
 BYTE   Fs4
 BYTE   W06
 BYTE   Fn4
 BYTE   W06
 BYTE   En4
 BYTE   W06
 BYTE   Ds4
 BYTE   W06
 BYTE   Dn4
 BYTE   W06
 BYTE   Cs4
 BYTE   W06
 BYTE   Dn4
 BYTE   W06
 BYTE   Ds4
 BYTE   W06
 BYTE   Fs4
 BYTE   W06
 BYTE   Fn4
 BYTE   W06
 BYTE   En4
 BYTE   W06
 BYTE   Fs4
 BYTE   W06
 BYTE   Fn4
 BYTE   W06
 BYTE   En4
 BYTE   W06
 BYTE   Fs4
 BYTE   W06
 BYTE   Fn4
 BYTE   W06
// 046   ----------------------------------------
 BYTE   En4
 BYTE   W06
 BYTE   Ds4
 BYTE   W06
 BYTE   Dn4
 BYTE   W06
 BYTE   Cs4
 BYTE   W06
 BYTE   Dn4
 BYTE   W06
 BYTE   Ds4
 BYTE   W06
 BYTE   Fs4
 BYTE   W06
 BYTE   Fn4
 BYTE   W06
 BYTE   En4
 BYTE   W06
 BYTE   Fs4
 BYTE   W06
 BYTE   Fn4
 BYTE   W06
 BYTE   En4
 BYTE   W06
 BYTE   Fs4
 BYTE   W06
 BYTE   Fn4
 BYTE   W06
 BYTE   En4
 BYTE   W06
 BYTE   Ds4
 BYTE   W06
// 047   ----------------------------------------
 BYTE   Dn4
 BYTE   W06
 BYTE   Cs4
 BYTE   W06
 BYTE   Dn4
 BYTE   W06
 BYTE   Ds4
 BYTE   W06
 BYTE   Fs4
 BYTE   W06
 BYTE   Fn4
 BYTE   W06
 BYTE   En4
 BYTE   W06
 BYTE   Fs4
 BYTE   W06
 BYTE   Fn4
 BYTE   W06
 BYTE   En4
 BYTE   W06
 BYTE   Fs4
 BYTE   W06
 BYTE   Fn4
 BYTE   W06
 BYTE   En4
 BYTE   W06
 BYTE   Ds4
 BYTE   W06
 BYTE   Dn4
 BYTE   W06
 BYTE   Cs4
 BYTE   W06
// 048   ----------------------------------------
 BYTE   Dn4
 BYTE   W06
 BYTE   Ds4
 BYTE   W06
 BYTE   En4  v127
 BYTE   W06
 BYTE   Ds4
 BYTE   W06
 BYTE   Dn4
 BYTE   W06
 BYTE   En4
 BYTE   W06
 BYTE   Ds4
 BYTE   W06
 BYTE   Dn4
 BYTE   W06
 BYTE   En4
 BYTE   W06
 BYTE   Ds4
 BYTE   W06
 BYTE   Dn4
 BYTE   W06
 BYTE   Cs4
 BYTE   W06
 BYTE   Cn4
 BYTE   W06
 BYTE   Bn3
 BYTE   W06
 BYTE   Cn4
 BYTE   W06
 BYTE   Cs4
 BYTE   W06
// 049   ----------------------------------------
 BYTE   En4
 BYTE   W06
 BYTE   Ds4
 BYTE   W06
 BYTE   Dn4
 BYTE   W06
 BYTE   En4
 BYTE   W06
 BYTE   Ds4
 BYTE   W06
 BYTE   Dn4
 BYTE   W06
 BYTE   En4
 BYTE   W06
 BYTE   Ds4
 BYTE   W06
 BYTE   Dn4
 BYTE   W06
 BYTE   Cs4
 BYTE   W06
 BYTE   Cn4
 BYTE   W06
 BYTE   Bn3
 BYTE   W06
 BYTE   Cn4
 BYTE   W06
 BYTE   Cs4
 BYTE   W06
 BYTE   En4
 BYTE   W06
 BYTE   Ds4
 BYTE   W06
// 050   ----------------------------------------
 BYTE   Dn4
 BYTE   W06
 BYTE   En4
 BYTE   W06
 BYTE   Ds4
 BYTE   W06
 BYTE   Dn4
 BYTE   W06
 BYTE   En4
 BYTE   W06
 BYTE   Ds4
 BYTE   W06
 BYTE   Dn4
 BYTE   W06
 BYTE   Cs4
 BYTE   W06
 BYTE   Cn4
 BYTE   W06
 BYTE   Bn3
 BYTE   W06
 BYTE   Cn4
 BYTE   W06
 BYTE   Cs4
 BYTE   W06
 BYTE   En4
 BYTE   W06
 BYTE   Ds4
 BYTE   W06
 BYTE   Dn4
 BYTE   W06
 BYTE   En4
 BYTE   W06
// 051   ----------------------------------------
 BYTE   Ds4
 BYTE   W06
 BYTE   Dn4
 BYTE   W06
 BYTE   En4
 BYTE   W06
 BYTE   Ds4
 BYTE   W06
 BYTE   Dn4
 BYTE   W06
 BYTE   Cs4
 BYTE   W06
 BYTE   Cn4
 BYTE   W06
 BYTE   Bn3
 BYTE   W06
 BYTE   Cn4
 BYTE   W06
 BYTE   Cs4
 BYTE   W06
 BYTE   Fs4
 BYTE   W06
 BYTE   Fn4
 BYTE   W06
 BYTE   En4
 BYTE   W06
 BYTE   Fs4
 BYTE   W06
 BYTE   Fn4
 BYTE   W06
 BYTE   En4
 BYTE   W06
// 052   ----------------------------------------
 BYTE   Fs4
 BYTE   W06
 BYTE   Fn4
 BYTE   W06
 BYTE   En4
 BYTE   W06
 BYTE   Ds4
 BYTE   W06
 BYTE   Dn4
 BYTE   W06
 BYTE   Cs4
 BYTE   W06
 BYTE   Dn4
 BYTE   W06
 BYTE   Ds4
 BYTE   W06
 BYTE   Fs4
 BYTE   W06
 BYTE   Fn4
 BYTE   W06
 BYTE   En4
 BYTE   W06
 BYTE   Fs4
 BYTE   W06
 BYTE   Fn4
 BYTE   W06
 BYTE   En4
 BYTE   W06
 BYTE   Fs4
 BYTE   W06
 BYTE   Fn4
 BYTE   W06
// 053   ----------------------------------------
 BYTE   En4
 BYTE   W06
 BYTE   Ds4
 BYTE   W06
 BYTE   Dn4
 BYTE   W06
 BYTE   Cs4
 BYTE   W06
 BYTE   Dn4
 BYTE   W06
 BYTE   Ds4
 BYTE   W06
 BYTE   Fs4
 BYTE   W06
 BYTE   Fn4
 BYTE   W06
 BYTE   En4
 BYTE   W06
 BYTE   Fs4
 BYTE   W06
 BYTE   Fn4
 BYTE   W06
 BYTE   En4
 BYTE   W06
 BYTE   Fs4
 BYTE   W06
 BYTE   Fn4
 BYTE   W06
 BYTE   En4
 BYTE   W06
 BYTE   Ds4
 BYTE   W06
// 054   ----------------------------------------
 BYTE   Dn4
 BYTE   W06
 BYTE   Cs4
 BYTE   W06
 BYTE   Dn4
 BYTE   W06
 BYTE   Ds4
 BYTE   W06
 BYTE   Fs4
 BYTE   W06
 BYTE   Fn4
 BYTE   W06
 BYTE   En4
 BYTE   W06
 BYTE   Fs4
 BYTE   W06
 BYTE   Fn4
 BYTE   W06
 BYTE   En4
 BYTE   W06
 BYTE   Fs4
 BYTE   W06
 BYTE   Fn4
 BYTE   W06
 BYTE   En4
 BYTE   W06
 BYTE   Ds4
 BYTE   W06
 BYTE   Dn4
 BYTE   W06
 BYTE   Cs4
 BYTE   W06
// 055   ----------------------------------------
 BYTE   Dn4
 BYTE   W06
 BYTE   Ds4
 BYTE   W90
// 056   ----------------------------------------
 BYTE   W96
// 057   ----------------------------------------
 BYTE   W96
// 058   ----------------------------------------
 BYTE   W60
 BYTE   Gn3  v108
 BYTE   W06
 BYTE   Fs3
 BYTE   W06
 BYTE   Gn3
 BYTE   W06
 BYTE   An3
 BYTE   W06
 BYTE   As3
 BYTE   W06
 BYTE   Dn3
 BYTE   W06
// 059   ----------------------------------------
 BYTE   Ds3
 BYTE   W06
 BYTE   Fs3
 BYTE   W06
 BYTE   Ds3
 BYTE   W06
 BYTE   Fs3
 BYTE   W06
 BYTE   Dn4
 BYTE   W06
 BYTE   N05
 BYTE   W06
 BYTE   N05
 BYTE   W06
 BYTE   Fs4
 BYTE   W06
 BYTE   Gn4
 BYTE   W06
 BYTE   Dn4
 BYTE   W06
 BYTE   As3
 BYTE   W06
 BYTE   Gn3
 BYTE   W06
 BYTE   As4
 BYTE   W06
 BYTE   An4
 BYTE   W06
 BYTE   Gn4
 BYTE   W06
 BYTE   Dn4
 BYTE   W06
// 060   ----------------------------------------
 BYTE   An4
 BYTE   W06
 BYTE   Gn4
 BYTE   W06
 BYTE   Fs4
 BYTE   W06
 BYTE   Dn4
 BYTE   W06
 BYTE   N05
 BYTE   W06
 BYTE   Ds4
 BYTE   W06
 BYTE   Dn4
 BYTE   W06
 BYTE   Cn4
 BYTE   W06
 BYTE   As3
 BYTE   W06
 BYTE   An3
 BYTE   W06
 BYTE   As3
 BYTE   W06
 BYTE   Gn3
 BYTE   W06
 BYTE   Fs3
 BYTE   W06
 BYTE   Dn3
 BYTE   W06
 BYTE   Fs3
 BYTE   W06
 BYTE   Gn3
 BYTE   W06
// 061   ----------------------------------------
 BYTE   An3
 BYTE   W06
 BYTE   As3
 BYTE   W06
 BYTE   Cs4
 BYTE   W06
 BYTE   Cn4
 BYTE   W06
 BYTE   Cs4
 BYTE   W06
 BYTE   Dn4
 BYTE   W06
 BYTE   Ds4
 BYTE   W06
 BYTE   En4
 BYTE   W06
 BYTE   Fn4
 BYTE   W06
 BYTE   Gs3
 BYTE   W06
 BYTE   As3
 BYTE   W06
 BYTE   Bn3
 BYTE   W06
 BYTE   Fs3
 BYTE   W06
 BYTE   Gn3
 BYTE   W06
 BYTE   Gs3
 BYTE   W06
 BYTE   An3
 BYTE   W06
// 062   ----------------------------------------
 BYTE   Gs3
 BYTE   W06
 BYTE   Gn3
 BYTE   W05
 BYTE   GoTo
  POIN2 Label_6_012770B2
 BYTE   FINE

//**************** Track 8 (Midi-Chn.7) ****************//

song010B_008:
// 000   ----------------------------------------
 BYTE   KEYSH   song010B_key+0
 BYTE   VOICE   6
 BYTE   VOL   40*song010B_mvl/mxv
 BYTE   PAN   c_v+0
 BYTE   BEND   c_v+0
 BYTE   W96
// 001   ----------------------------------------
Label_7_012773FE:
 BYTE   W96
// 002   ----------------------------------------
 BYTE   W96
// 003   ----------------------------------------
 BYTE   W96
// 004   ----------------------------------------
 BYTE   W96
// 005   ----------------------------------------
 BYTE   W96
// 006   ----------------------------------------
 BYTE   W96
// 007   ----------------------------------------
 BYTE   W96
// 008   ----------------------------------------
 BYTE   W96
// 009   ----------------------------------------
 BYTE   W96
// 010   ----------------------------------------
 BYTE   W96
// 011   ----------------------------------------
 BYTE   W96
// 012   ----------------------------------------
 BYTE   W96
// 013   ----------------------------------------
 BYTE   W96
// 014   ----------------------------------------
 BYTE   W96
// 015   ----------------------------------------
 BYTE   W96
// 016   ----------------------------------------
 BYTE   W96
// 017   ----------------------------------------
 BYTE   W96
// 018   ----------------------------------------
 BYTE   W96
// 019   ----------------------------------------
 BYTE   W96
// 020   ----------------------------------------
 BYTE   W96
// 021   ----------------------------------------
 BYTE   W96
// 022   ----------------------------------------
 BYTE   W96
// 023   ----------------------------------------
 BYTE   W96
// 024   ----------------------------------------
 BYTE   W96
// 025   ----------------------------------------
 BYTE   W96
// 026   ----------------------------------------
 BYTE   W96
// 027   ----------------------------------------
 BYTE   W96
// 028   ----------------------------------------
 BYTE   W96
// 029   ----------------------------------------
 BYTE   W96
// 030   ----------------------------------------
 BYTE   W96
// 031   ----------------------------------------
 BYTE   W96
// 032   ----------------------------------------
 BYTE   W96
// 033   ----------------------------------------
 BYTE   W96
// 034   ----------------------------------------
 BYTE   W96
// 035   ----------------------------------------
 BYTE   W96
// 036   ----------------------------------------
 BYTE   W96
// 037   ----------------------------------------
 BYTE   W96
// 038   ----------------------------------------
 BYTE   W96
// 039   ----------------------------------------
 BYTE   W96
// 040   ----------------------------------------
 BYTE   W96
// 041   ----------------------------------------
 BYTE   W96
// 042   ----------------------------------------
 BYTE   W96
// 043   ----------------------------------------
 BYTE   W96
// 044   ----------------------------------------
 BYTE   W96
// 045   ----------------------------------------
 BYTE   W96
// 046   ----------------------------------------
 BYTE   W96
// 047   ----------------------------------------
 BYTE   W96
// 048   ----------------------------------------
 BYTE   W96
// 049   ----------------------------------------
 BYTE   W96
// 050   ----------------------------------------
 BYTE   W96
// 051   ----------------------------------------
 BYTE   W96
// 052   ----------------------------------------
 BYTE   W96
// 053   ----------------------------------------
 BYTE   W96
// 054   ----------------------------------------
 BYTE   W96
// 055   ----------------------------------------
 BYTE   W12
 BYTE   N05  As3  v127
 BYTE   W06
 BYTE   An3
 BYTE   W06
 BYTE   As3
 BYTE   W06
 BYTE   Cn4
 BYTE   W06
 BYTE   Dn4
 BYTE   W06
 BYTE   Gn3
 BYTE   W06
 BYTE   An3
 BYTE   W06
 BYTE   As3
 BYTE   W06
 BYTE   Cn4
 BYTE   W06
 BYTE   Dn4
 BYTE   W06
 BYTE   Gn4
 BYTE   W06
 BYTE   Fs4
 BYTE   W06
 BYTE   Gn4
 BYTE   W06
 BYTE   An4
 BYTE   W06
// 056   ----------------------------------------
 BYTE   As4
 BYTE   W06
 BYTE   An4
 BYTE   W06
 BYTE   Gn4
 BYTE   W06
 BYTE   Dn4
 BYTE   W06
 BYTE   Dn5
 BYTE   W06
 BYTE   Cs5
 BYTE   W06
 BYTE   As4
 BYTE   W06
 BYTE   Gn4
 BYTE   W06
 BYTE   Cn5
 BYTE   W06
 BYTE   As4
 BYTE   W06
 BYTE   An4
 BYTE   W06
 BYTE   Gn4
 BYTE   W06
 BYTE   Fs4
 BYTE   W06
 BYTE   Gn4
 BYTE   W06
 BYTE   Fn4
 BYTE   W06
 BYTE   Ds4
 BYTE   W06
// 057   ----------------------------------------
 BYTE   Dn4
 BYTE   W06
 BYTE   Cn4
 BYTE   W06
 BYTE   Dn4
 BYTE   W06
 BYTE   As3
 BYTE   W06
 BYTE   An3
 BYTE   W06
 BYTE   Gn3
 BYTE   W06
 BYTE   An3
 BYTE   W06
 BYTE   As3
 BYTE   W06
 BYTE   Cn4
 BYTE   W06
 BYTE   Dn4
 BYTE   W06
 BYTE   Fn4
 BYTE   W06
 BYTE   Fs4
 BYTE   W06
 BYTE   Gn4
 BYTE   W06
 BYTE   Gs4
 BYTE   W06
 BYTE   An4
 BYTE   W06
 BYTE   As4
 BYTE   W06
// 058   ----------------------------------------
 BYTE   Bn4
 BYTE   W06
 BYTE   Ds4
 BYTE   W06
 BYTE   Gn4
 BYTE   W06
 BYTE   Fs4
 BYTE   W06
 BYTE   Fn4
 BYTE   W06
 BYTE   En4
 BYTE   W06
 BYTE   Ds4
 BYTE   W06
 BYTE   Dn4
 BYTE   W06
 BYTE   Cs4
 BYTE   W06
 BYTE   Cn4
 BYTE   W06
 BYTE   As3
 BYTE   W06
 BYTE   An3
 BYTE   W06
 BYTE   As3
 BYTE   W06
 BYTE   Cn4
 BYTE   W06
 BYTE   Dn4
 BYTE   W06
 BYTE   Gn3
 BYTE   W06
// 059   ----------------------------------------
 BYTE   An3
 BYTE   W06
 BYTE   As3
 BYTE   W06
 BYTE   Cn4
 BYTE   W06
 BYTE   Dn4
 BYTE   W06
 BYTE   Gn4
 BYTE   W06
 BYTE   Fs4
 BYTE   W06
 BYTE   Gn4
 BYTE   W06
 BYTE   An4
 BYTE   W06
 BYTE   As4
 BYTE   W06
 BYTE   An4
 BYTE   W06
 BYTE   Gn4
 BYTE   W06
 BYTE   Dn4
 BYTE   W06
 BYTE   Dn5
 BYTE   W06
 BYTE   Cs5
 BYTE   W06
 BYTE   As4
 BYTE   W06
 BYTE   Gn4
 BYTE   W06
// 060   ----------------------------------------
 BYTE   Cn5
 BYTE   W06
 BYTE   As4
 BYTE   W06
 BYTE   An4
 BYTE   W06
 BYTE   Gn4
 BYTE   W06
 BYTE   Fs4
 BYTE   W06
 BYTE   Gn4
 BYTE   W06
 BYTE   Fn4
 BYTE   W06
 BYTE   Ds4
 BYTE   W06
 BYTE   Dn4
 BYTE   W06
 BYTE   Cn4
 BYTE   W06
 BYTE   Dn4
 BYTE   W06
 BYTE   As3
 BYTE   W06
 BYTE   An3
 BYTE   W06
 BYTE   Gn3
 BYTE   W06
 BYTE   An3
 BYTE   W06
 BYTE   As3
 BYTE   W06
// 061   ----------------------------------------
 BYTE   Cn4
 BYTE   W06
 BYTE   Dn4
 BYTE   W06
 BYTE   Fn4
 BYTE   W06
 BYTE   Fs4
 BYTE   W06
 BYTE   Gn4
 BYTE   W06
 BYTE   Gs4
 BYTE   W06
 BYTE   An4
 BYTE   W06
 BYTE   As4
 BYTE   W06
 BYTE   Bn4
 BYTE   W06
 BYTE   Ds4
 BYTE   W06
 BYTE   Gn4
 BYTE   W06
 BYTE   Fs4
 BYTE   W06
 BYTE   Fn4
 BYTE   W06
 BYTE   En4
 BYTE   W06
 BYTE   Ds4
 BYTE   W06
 BYTE   Dn4
 BYTE   W06
// 062   ----------------------------------------
 BYTE   Cs4
 BYTE   W06
 BYTE   Cn4
 BYTE   W05
 BYTE   GoTo
  POIN2 Label_7_012773FE
 BYTE   FINE

//**************** Track 9 (Midi-Chn.8) ****************//

song010B_009:
// 000   ----------------------------------------
 BYTE   KEYSH   song010B_key+0
 BYTE   VOICE   124
 BYTE   VOL   35*song010B_mvl/mxv
 BYTE   PAN   c_v+0
 BYTE   BEND   c_v+0
 BYTE   N04  Cn1  v127
 BYTE   N17  Cs2  v112
 BYTE   W06
 BYTE   N04  Cn1  v127
 BYTE   W06
 BYTE   Dn1
 BYTE   W06
 BYTE   N09
 BYTE   N15  Cs2  v112
 BYTE   W06
 BYTE   N04  Cn1  v127
 BYTE   W06
 BYTE   N09
 BYTE   W06
 BYTE   Dn1
 BYTE   N15  Cs2  v112
 BYTE   W06
 BYTE   N04  Cn1  v127
 BYTE   W06
 BYTE   N09
 BYTE   W06
 BYTE   Dn1
 BYTE   N09  En2  v088
 BYTE   W06
 BYTE   N04  Cn1  v127
 BYTE   W06
 BYTE   N05  Bn1
 BYTE   W06
 BYTE   An1
 BYTE   W06
 BYTE   Fn1
 BYTE   W06
 BYTE   N11  Cn1
 BYTE   N80  Cs2  v112
 BYTE   N80  En2  v100
 BYTE   W12
// 001   ----------------------------------------
Label_8_01277563:
 BYTE   N11  Dn1  v127
 BYTE   N11  As1  v080
 BYTE   W12
 BYTE   N04  Cn1  v127
 BYTE   N11  As1  v080
 BYTE   W06
 BYTE   N04  Cn1  v127
 BYTE   W06
 BYTE   N11  Dn1
 BYTE   N11  As1  v080
 BYTE   W12
 BYTE   N04  Cn1  v127
 BYTE   N11  As1  v080
 BYTE   W06
 BYTE   N04  Cn1  v127
 BYTE   W06
 BYTE   N11  Dn1
 BYTE   N11  As1  v080
 BYTE   W12
 BYTE   N04  Cn1  v127
 BYTE   N11  As1  v080
 BYTE   W06
 BYTE   Dn1  v127
 BYTE   W06
 BYTE   Cn1
 BYTE   N11  As1  v080
 BYTE   W12
 BYTE   Dn1  v127
 BYTE   N11  As1  v080
 BYTE   W12
// 002   ----------------------------------------
 BYTE   N04  Cn1  v127
 BYTE   N11  As1  v080
 BYTE   W06
 BYTE   N04  Cn1  v127
 BYTE   W06
 BYTE   N11  Dn1
 BYTE   N11  As1  v080
 BYTE   W12
 BYTE   N04  Cn1  v127
 BYTE   N11  As1  v080
 BYTE   W06
 BYTE   N04  Cn1  v127
 BYTE   W06
 BYTE   N11  Dn1
 BYTE   N11  As1  v080
 BYTE   W12
 BYTE   N04  Cn1  v127
 BYTE   N11  As1  v080
 BYTE   W06
 BYTE   Dn1  v127
 BYTE   W06
 BYTE   Cn1
 BYTE   N11  As1  v080
 BYTE   W12
 BYTE   Dn1  v127
 BYTE   N11  As1  v080
 BYTE   W12
 BYTE   N04  Cn1  v127
 BYTE   N11  As1  v080
 BYTE   W06
 BYTE   N04  Cn1  v127
 BYTE   W06
// 003   ----------------------------------------
 BYTE   N11  Dn1
 BYTE   N11  As1  v080
 BYTE   W12
 BYTE   N04  Cn1  v127
 BYTE   N11  As1  v080
 BYTE   W06
 BYTE   N04  Cn1  v127
 BYTE   W06
 BYTE   N11  Dn1
 BYTE   N11  As1  v080
 BYTE   W12
 BYTE   N04  Cn1  v127
 BYTE   N11  As1  v080
 BYTE   W06
 BYTE   Dn1  v127
 BYTE   W06
 BYTE   Cn1
 BYTE   N11  As1  v080
 BYTE   W12
 BYTE   Dn1  v127
 BYTE   N11  As1  v080
 BYTE   W12
 BYTE   N04  Cn1  v127
 BYTE   N11  As1  v080
 BYTE   W06
 BYTE   N04  Cn1  v127
 BYTE   W06
 BYTE   N11  Dn1
 BYTE   N11  As1  v080
 BYTE   W12
// 004   ----------------------------------------
 BYTE   N04  Cn1  v127
 BYTE   N11  As1  v080
 BYTE   W06
 BYTE   N04  Cn1  v127
 BYTE   W06
 BYTE   N11  Dn1
 BYTE   N11  As1  v080
 BYTE   W12
 BYTE   N04  Cn1  v127
 BYTE   N11  As1  v080
 BYTE   W06
 BYTE   N04  Dn1  v127
 BYTE   W06
 BYTE   N11
 BYTE   N92  Cs2  v112
 BYTE   W06
 BYTE   N04  Cn1  v127
 BYTE   W06
 BYTE   N04
 BYTE   N11  As1  v080
 BYTE   W06
 BYTE   N04  Cn1  v127
 BYTE   W06
 BYTE   N11  Dn1
 BYTE   N11  As1  v080
 BYTE   W06
 BYTE   N04  Cn1  v127
 BYTE   W06
 BYTE   N04
 BYTE   N11  As1  v080
 BYTE   W06
 BYTE   N04  Cn1  v127
 BYTE   W06
 BYTE   N11  Dn1
 BYTE   N11  As1  v080
 BYTE   W06
 BYTE   N04  Cn1  v127
 BYTE   W06
// 005   ----------------------------------------
 BYTE   N04
 BYTE   N11  As1  v080
 BYTE   W06
 BYTE   N04  Cn1  v127
 BYTE   W06
 BYTE   N11  Dn1
 BYTE   N11  As1  v080
 BYTE   W06
 BYTE   N04  Cn1  v127
 BYTE   W06
 BYTE   N11  Dn1
 BYTE   N11  As1  v080
 BYTE   W06
 BYTE   N04  Cn1  v127
 BYTE   W06
 BYTE   N04
 BYTE   N11  As1  v080
 BYTE   W06
 BYTE   N04  Cn1  v127
 BYTE   W06
 BYTE   N11  Dn1
 BYTE   N11  As1  v080
 BYTE   W06
 BYTE   N04  Cn1  v127
 BYTE   W06
 BYTE   N04
 BYTE   N11  As1  v080
 BYTE   W06
 BYTE   N04  Cn1  v127
 BYTE   W06
 BYTE   N11  Dn1
 BYTE   N11  As1  v080
 BYTE   W06
 BYTE   N04  Cn1  v127
 BYTE   W06
 BYTE   N04
 BYTE   N11  As1  v080
 BYTE   W06
 BYTE   N04  Cn1  v127
 BYTE   W06
// 006   ----------------------------------------
 BYTE   N11  Dn1
 BYTE   N11  As1  v080
 BYTE   W06
 BYTE   N04  Cn1  v127
 BYTE   W06
 BYTE   N11  Dn1
 BYTE   N11  As1  v080
 BYTE   W06
 BYTE   N04  Cn1  v127
 BYTE   W06
 BYTE   N04
 BYTE   N11  As1  v080
 BYTE   W06
 BYTE   N04  Cn1  v127
 BYTE   W06
 BYTE   N11  Dn1
 BYTE   N11  As1  v080
 BYTE   W06
 BYTE   N04  Cn1  v127
 BYTE   W06
 BYTE   N04
 BYTE   N11  As1  v080
 BYTE   W06
 BYTE   N04  Cn1  v127
 BYTE   W06
 BYTE   N11  Dn1
 BYTE   N11  As1  v080
 BYTE   W06
 BYTE   N04  Cn1  v127
 BYTE   W06
 BYTE   N04
 BYTE   N11  As1  v080
 BYTE   W06
 BYTE   N04  Cn1  v127
 BYTE   W06
 BYTE   N11  Dn1
 BYTE   N11  As1  v080
 BYTE   W06
 BYTE   N04  Cn1  v127
 BYTE   W06
// 007   ----------------------------------------
 BYTE   N11  Dn1
 BYTE   N11  As1  v080
 BYTE   W06
 BYTE   N04  Cn1  v127
 BYTE   W06
 BYTE   N04
 BYTE   N11  As1  v080
 BYTE   W06
 BYTE   N04  Cn1  v127
 BYTE   W06
 BYTE   N11  Dn1
 BYTE   N11  As1  v080
 BYTE   W06
 BYTE   N04  Cn1  v127
 BYTE   W06
 BYTE   N04
 BYTE   N11  As1  v080
 BYTE   W06
 BYTE   N04  Cn1  v127
 BYTE   W06
 BYTE   N11  Dn1
 BYTE   N11  As1  v080
 BYTE   W06
 BYTE   N04  Cn1  v127
 BYTE   W06
 BYTE   N04
 BYTE   N11  As1  v080
 BYTE   W06
 BYTE   N04  Cn1  v127
 BYTE   W06
 BYTE   N11  Dn1
 BYTE   N11  As1  v080
 BYTE   W06
 BYTE   N04  Cn1  v127
 BYTE   W06
 BYTE   N09  Dn1
 BYTE   N15  Cs2  v112
 BYTE   W06
 BYTE   N04  Cn1  v127
 BYTE   W06
// 008   ----------------------------------------
 BYTE   N09
 BYTE   W06
 BYTE   Dn1
 BYTE   N15  Cs2  v112
 BYTE   W06
 BYTE   N04  Cn1  v127
 BYTE   W06
 BYTE   N09
 BYTE   W06
 BYTE   Dn1
 BYTE   N15  Cs2  v112
 BYTE   W06
 BYTE   N04  Cn1  v127
 BYTE   W06
 BYTE   N09
 BYTE   W06
 BYTE   Dn1
 BYTE   N09  En2  v088
 BYTE   W06
 BYTE   N04  Cn1  v127
 BYTE   W06
 BYTE   N09
 BYTE   W06
 BYTE   N11  Dn1
 BYTE   N11  En2  v088
 BYTE   W12
 BYTE   N09  Dn1  v127
 BYTE   N15  Cs2  v112
 BYTE   W06
 BYTE   N04  Cn1  v127
 BYTE   W06
 BYTE   N09
 BYTE   W06
 BYTE   Dn1
 BYTE   N15  Cs2  v112
 BYTE   W06
// 009   ----------------------------------------
 BYTE   N04  Cn1  v127
 BYTE   W06
 BYTE   N09
 BYTE   W06
 BYTE   Dn1
 BYTE   N15  Cs2  v112
 BYTE   W06
 BYTE   N04  Cn1  v127
 BYTE   W06
 BYTE   N09
 BYTE   W06
 BYTE   Dn1
 BYTE   N09  En2  v088
 BYTE   W06
 BYTE   N04  Cn1  v127
 BYTE   W06
 BYTE   N09
 BYTE   W06
 BYTE   N11  Dn1
 BYTE   N11  En2  v088
 BYTE   W12
 BYTE   N09  Dn1  v127
 BYTE   N15  Cs2  v112
 BYTE   W06
 BYTE   N04  Cn1  v127
 BYTE   W06
 BYTE   N09
 BYTE   W06
 BYTE   Dn1
 BYTE   N15  Cs2  v112
 BYTE   W06
 BYTE   N04  Cn1  v127
 BYTE   W06
 BYTE   N09
 BYTE   W06
// 010   ----------------------------------------
 BYTE   Dn1
 BYTE   N15  Cs2  v112
 BYTE   W06
 BYTE   N04  Cn1  v127
 BYTE   W06
 BYTE   N09
 BYTE   W06
 BYTE   Dn1
 BYTE   N09  En2  v088
 BYTE   W06
 BYTE   N04  Cn1  v127
 BYTE   W06
 BYTE   N09
 BYTE   W06
 BYTE   N11  Dn1
 BYTE   N11  En2  v088
 BYTE   W12
 BYTE   N09  Dn1  v127
 BYTE   N15  Cs2  v112
 BYTE   W06
 BYTE   N04  Cn1  v127
 BYTE   W06
 BYTE   N09
 BYTE   W06
 BYTE   Dn1
 BYTE   N15  Cs2  v112
 BYTE   W06
 BYTE   N04  Cn1  v127
 BYTE   W06
 BYTE   N09
 BYTE   W06
 BYTE   Dn1
 BYTE   N15  Cs2  v112
 BYTE   W06
 BYTE   N04  Cn1  v127
 BYTE   W06
// 011   ----------------------------------------
 BYTE   N09
 BYTE   W06
 BYTE   Dn1
 BYTE   N09  En2  v088
 BYTE   W06
 BYTE   N04  Cn1  v127
 BYTE   W06
 BYTE   N09
 BYTE   W06
 BYTE   N11  Dn1
 BYTE   N11  En2  v088
 BYTE   W12
 BYTE   Cn1  v127
 BYTE   N78  Cs2  v112
 BYTE   W12
 BYTE   N11  Dn1  v127
 BYTE   N11  Fn2  v100
 BYTE   W12
 BYTE   N04  Cn1  v127
 BYTE   N11  Fn2  v100
 BYTE   W06
 BYTE   N04  Cn1  v127
 BYTE   W06
 BYTE   N11  Dn1
 BYTE   N11  Fn2  v100
 BYTE   W12
 BYTE   N04  Cn1  v127
 BYTE   N11  Fn2  v100
 BYTE   W06
 BYTE   N04  Cn1  v127
 BYTE   W06
// 012   ----------------------------------------
 BYTE   N11  Dn1
 BYTE   N11  Fn2  v100
 BYTE   W12
 BYTE   N04  Cn1  v127
 BYTE   N11  Fn2  v100
 BYTE   W06
 BYTE   Dn1  v127
 BYTE   W06
 BYTE   Cn1
 BYTE   N11  Fn2  v100
 BYTE   W12
 BYTE   Dn1  v127
 BYTE   N11  Fn2  v100
 BYTE   W12
 BYTE   N04  Cn1  v127
 BYTE   N11  Fn2  v100
 BYTE   W06
 BYTE   N04  Cn1  v127
 BYTE   W06
 BYTE   N11  Dn1
 BYTE   N11  Fn2  v100
 BYTE   W12
 BYTE   N04  Cn1  v127
 BYTE   N11  Fn2  v100
 BYTE   W06
 BYTE   N04  Cn1  v127
 BYTE   W06
 BYTE   N11  Dn1
 BYTE   N11  Fn2  v100
 BYTE   W12
// 013   ----------------------------------------
 BYTE   N04  Cn1  v127
 BYTE   N11  Fn2  v100
 BYTE   W06
 BYTE   Dn1  v127
 BYTE   W06
 BYTE   Cn1
 BYTE   N11  Fn2  v100
 BYTE   W12
 BYTE   Dn1  v127
 BYTE   N11  Fn2  v100
 BYTE   W12
 BYTE   N04  Cn1  v127
 BYTE   N11  Fn2  v100
 BYTE   W06
 BYTE   N04  Cn1  v127
 BYTE   W06
 BYTE   N11  Dn1
 BYTE   N11  Fn2  v100
 BYTE   W12
 BYTE   N04  Cn1  v127
 BYTE   N11  Fn2  v100
 BYTE   W06
 BYTE   N04  Cn1  v127
 BYTE   W06
 BYTE   N11  Dn1
 BYTE   N11  Fn2  v100
 BYTE   W12
 BYTE   N04  Cn1  v127
 BYTE   N11  Fn2  v100
 BYTE   W06
 BYTE   Dn1  v127
 BYTE   W06
// 014   ----------------------------------------
 BYTE   Cn1
 BYTE   N11  Fn2  v100
 BYTE   W12
 BYTE   Dn1  v127
 BYTE   N11  Fn2  v100
 BYTE   W12
 BYTE   N04  Cn1  v127
 BYTE   N11  Fn2  v100
 BYTE   W06
 BYTE   N04  Cn1  v127
 BYTE   W06
 BYTE   N11  Dn1
 BYTE   N11  Fn2  v100
 BYTE   W12
 BYTE   N04  Cn1  v127
 BYTE   N11  Fn2  v100
 BYTE   W06
 BYTE   N04  Cn1  v127
 BYTE   W06
 BYTE   N11  Dn1
 BYTE   N11  Fn2  v100
 BYTE   W12
 BYTE   N04  Cn1  v127
 BYTE   N11  Fn2  v100
 BYTE   W06
 BYTE   Dn1  v127
 BYTE   W06
 BYTE   Cn1
 BYTE   N78  Cs2  v112
 BYTE   W12
// 015   ----------------------------------------
 BYTE   N11  Dn1  v127
 BYTE   N11  Fn2  v100
 BYTE   W12
 BYTE   N04  Cn1  v127
 BYTE   N11  Fn2  v100
 BYTE   W06
 BYTE   N04  Cn1  v127
 BYTE   W06
 BYTE   N11  Dn1
 BYTE   N11  Fn2  v100
 BYTE   W12
 BYTE   N04  Cn1  v127
 BYTE   N11  Fn2  v100
 BYTE   W06
 BYTE   N04  Cn1  v127
 BYTE   W06
 BYTE   N11  Dn1
 BYTE   N11  Fn2  v100
 BYTE   W12
 BYTE   N04  Cn1  v127
 BYTE   N11  Fn2  v100
 BYTE   W06
 BYTE   Dn1  v127
 BYTE   W06
 BYTE   Cn1
 BYTE   N11  Fn2  v100
 BYTE   W12
 BYTE   Dn1  v127
 BYTE   N11  Fn2  v100
 BYTE   W12
// 016   ----------------------------------------
 BYTE   N04  Cn1  v127
 BYTE   N11  Fn2  v100
 BYTE   W06
 BYTE   N04  Cn1  v127
 BYTE   W06
 BYTE   N11  Dn1
 BYTE   N11  Fn2  v100
 BYTE   W12
 BYTE   N04  Cn1  v127
 BYTE   N11  Fn2  v100
 BYTE   W06
 BYTE   N04  Cn1  v127
 BYTE   W06
 BYTE   N11  Dn1
 BYTE   N11  Fn2  v100
 BYTE   W12
 BYTE   N04  Cn1  v127
 BYTE   N11  Fn2  v100
 BYTE   W06
 BYTE   Dn1  v127
 BYTE   W06
 BYTE   Cn1
 BYTE   N11  Fn2  v100
 BYTE   W12
 BYTE   Dn1  v127
 BYTE   N11  Fn2  v100
 BYTE   W12
 BYTE   N04  Cn1  v127
 BYTE   N11  Fn2  v100
 BYTE   W06
 BYTE   N04  Cn1  v127
 BYTE   W06
// 017   ----------------------------------------
 BYTE   N11  Dn1
 BYTE   N11  Fn2  v100
 BYTE   W12
 BYTE   N04  Cn1  v127
 BYTE   N11  Fn2  v100
 BYTE   W06
 BYTE   N04  Cn1  v127
 BYTE   W06
 BYTE   N11  Dn1
 BYTE   N11  Fn2  v100
 BYTE   W12
 BYTE   N04  Cn1  v127
 BYTE   N11  Fn2  v100
 BYTE   W06
 BYTE   Dn1  v127
 BYTE   W06
 BYTE   Cn1
 BYTE   N11  Fn2  v100
 BYTE   W12
 BYTE   Dn1  v127
 BYTE   N11  Fn2  v100
 BYTE   W12
 BYTE   N04  Cn1  v127
 BYTE   N11  Fn2  v100
 BYTE   W06
 BYTE   N04  Cn1  v127
 BYTE   W06
 BYTE   N11  Dn1
 BYTE   N11  Fn2  v100
 BYTE   W12
// 018   ----------------------------------------
 BYTE   N04  Cn1  v127
 BYTE   N11  Fn2  v100
 BYTE   W06
 BYTE   N04  Cn1  v127
 BYTE   W06
 BYTE   N11  Dn1
 BYTE   N11  Fn2  v100
 BYTE   W12
 BYTE   N04  Cn1  v127
 BYTE   N11  Fn2  v100
 BYTE   W06
 BYTE   Dn1  v127
 BYTE   W06
 BYTE   Cn1  v124
 BYTE   N78  Cs2  v108
 BYTE   W12
 BYTE   N11  Dn1  v124
 BYTE   N11  Fn2  v096
 BYTE   W12
 BYTE   N04  Cn1  v124
 BYTE   N11  Fn2  v096
 BYTE   W06
 BYTE   N04  Cn1  v124
 BYTE   W06
 BYTE   N11  Dn1
 BYTE   N11  Fn2  v096
 BYTE   W12
 BYTE   N04  Cn1  v124
 BYTE   N11  Fn2  v096
 BYTE   W06
 BYTE   N04  Cn1  v124
 BYTE   W06
// 019   ----------------------------------------
 BYTE   N11  Dn1
 BYTE   N11  Fn2  v096
 BYTE   W12
 BYTE   N04  Cn1  v124
 BYTE   N11  Fn2  v096
 BYTE   W06
 BYTE   Dn1  v124
 BYTE   W06
 BYTE   Cn1
 BYTE   N11  Fn2  v096
 BYTE   W12
 BYTE   Dn1  v124
 BYTE   N11  Fn2  v096
 BYTE   W12
 BYTE   N04  Cn1  v124
 BYTE   N11  Fn2  v096
 BYTE   W06
 BYTE   N04  Cn1  v124
 BYTE   W06
 BYTE   N11  Dn1
 BYTE   N11  Fn2  v096
 BYTE   W12
 BYTE   N04  Cn1  v124
 BYTE   N11  Fn2  v096
 BYTE   W06
 BYTE   N04  Cn1  v124
 BYTE   W06
 BYTE   N11  Dn1
 BYTE   N11  Fn2  v096
 BYTE   W12
// 020   ----------------------------------------
 BYTE   N04  Cn1  v124
 BYTE   N11  Fn2  v096
 BYTE   W06
 BYTE   Dn1  v124
 BYTE   W06
 BYTE   Cn1
 BYTE   N11  Fn2  v096
 BYTE   W12
 BYTE   Dn1  v124
 BYTE   N11  Fn2  v096
 BYTE   W12
 BYTE   N04  Cn1  v124
 BYTE   N11  Fn2  v096
 BYTE   W06
 BYTE   N04  Cn1  v124
 BYTE   W06
 BYTE   N11  Dn1
 BYTE   N11  Fn2  v096
 BYTE   W12
 BYTE   N04  Cn1  v124
 BYTE   N11  Fn2  v096
 BYTE   W06
 BYTE   N04  Cn1  v124
 BYTE   W06
 BYTE   N11  Dn1
 BYTE   N11  Fn2  v096
 BYTE   W12
 BYTE   N04  Cn1  v124
 BYTE   N11  Fn2  v096
 BYTE   W06
 BYTE   Dn1  v124
 BYTE   W06
// 021   ----------------------------------------
 BYTE   Cn1
 BYTE   N11  Fn2  v096
 BYTE   W12
 BYTE   Dn1  v124
 BYTE   N11  Fn2  v096
 BYTE   W12
 BYTE   N04  Cn1  v124
 BYTE   N11  Fn2  v096
 BYTE   W06
 BYTE   N04  Cn1  v124
 BYTE   W06
 BYTE   N11  Dn1
 BYTE   N11  Fn2  v096
 BYTE   W12
 BYTE   N04  Cn1  v124
 BYTE   N11  Fn2  v096
 BYTE   W06
 BYTE   N04  Cn1  v124
 BYTE   W06
 BYTE   N11  Dn1
 BYTE   N11  Fn2  v096
 BYTE   W12
 BYTE   N04  Cn1  v124
 BYTE   N11  Fn2  v096
 BYTE   W06
 BYTE   N04  Dn1  v124
 BYTE   W06
 BYTE   N09  Dn1  v127
 BYTE   N15  Cs2  v112
 BYTE   W06
 BYTE   N04  Cn1  v127
 BYTE   W06
// 022   ----------------------------------------
 BYTE   N09
 BYTE   W06
 BYTE   Dn1
 BYTE   N15  Cs2  v112
 BYTE   W06
 BYTE   N04  Cn1  v127
 BYTE   W06
 BYTE   N09
 BYTE   W06
 BYTE   Dn1
 BYTE   N15  Cs2  v112
 BYTE   W06
 BYTE   N04  Cn1  v127
 BYTE   W06
 BYTE   N09
 BYTE   W06
 BYTE   Dn1
 BYTE   N09  En2  v092
 BYTE   W06
 BYTE   N04  Cn1  v127
 BYTE   W06
 BYTE   N09
 BYTE   W06
 BYTE   N11  Dn1
 BYTE   N11  En2  v092
 BYTE   W12
 BYTE   N09  Dn1  v127
 BYTE   N15  Cs2  v112
 BYTE   W06
 BYTE   N04  Cn1  v127
 BYTE   W06
 BYTE   N09
 BYTE   W06
 BYTE   Dn1
 BYTE   N15  Cs2  v112
 BYTE   W06
// 023   ----------------------------------------
 BYTE   N04  Cn1  v127
 BYTE   W06
 BYTE   N09
 BYTE   W06
 BYTE   Dn1
 BYTE   N15  Cs2  v112
 BYTE   W06
 BYTE   N04  Cn1  v127
 BYTE   W06
 BYTE   N09
 BYTE   W06
 BYTE   Dn1
 BYTE   N09  En2  v092
 BYTE   W06
 BYTE   N04  Cn1  v127
 BYTE   W06
 BYTE   N09
 BYTE   W06
 BYTE   N11  Dn1
 BYTE   N11  En2  v092
 BYTE   W12
 BYTE   N09  Dn1  v127
 BYTE   N15  Cs2  v112
 BYTE   W06
 BYTE   N04  Cn1  v127
 BYTE   W06
 BYTE   N09
 BYTE   W06
 BYTE   Dn1
 BYTE   N15  Cs2  v112
 BYTE   W06
 BYTE   N04  Cn1  v127
 BYTE   W06
 BYTE   N09
 BYTE   W06
// 024   ----------------------------------------
 BYTE   Dn1
 BYTE   N15  Cs2  v112
 BYTE   W06
 BYTE   N04  Cn1  v127
 BYTE   W06
 BYTE   N09
 BYTE   W06
 BYTE   Dn1
 BYTE   N09  En2  v092
 BYTE   W06
 BYTE   N04  Cn1  v127
 BYTE   W06
 BYTE   N09
 BYTE   W06
 BYTE   N11  Dn1
 BYTE   N11  En2  v092
 BYTE   W12
 BYTE   N09  Dn1  v127
 BYTE   N15  Cs2  v112
 BYTE   W06
 BYTE   N04  Cn1  v127
 BYTE   W06
 BYTE   N09
 BYTE   W06
 BYTE   Dn1
 BYTE   N15  Cs2  v112
 BYTE   W06
 BYTE   N04  Cn1  v127
 BYTE   W06
 BYTE   N09
 BYTE   W06
 BYTE   Dn1
 BYTE   N15  Cs2  v112
 BYTE   W06
 BYTE   N04  Cn1  v127
 BYTE   W06
// 025   ----------------------------------------
 BYTE   N09
 BYTE   W06
 BYTE   Dn1
 BYTE   N09  En2  v092
 BYTE   W06
 BYTE   N04  Cn1  v127
 BYTE   W06
 BYTE   N09
 BYTE   W06
 BYTE   N11  Dn1
 BYTE   N11  En2  v092
 BYTE   W12
 BYTE   Cn1  v127
 BYTE   N80  Cs2  v112
 BYTE   W06
 BYTE   N05  Fs1  v080
 BYTE   W06
 BYTE   N11  Cn1  v127
 BYTE   N05  Fs1  v080
 BYTE   W06
 BYTE   N05
 BYTE   W06
 BYTE   N11  Cn1  v127
 BYTE   N05  Fs1  v080
 BYTE   W06
 BYTE   N05
 BYTE   W06
 BYTE   N11  Cn1  v127
 BYTE   N11  As1  v108
 BYTE   W06
 BYTE   N05  Fs1  v080
 BYTE   W06
 BYTE   N11  Cn1  v127
 BYTE   N05  Fs1  v080
 BYTE   W06
 BYTE   N05
 BYTE   W06
// 026   ----------------------------------------
 BYTE   N11  Cn1  v127
 BYTE   N05  Fs1  v080
 BYTE   W06
 BYTE   N05
 BYTE   W06
 BYTE   N11  Cn1  v127
 BYTE   N05  Fs1  v080
 BYTE   W06
 BYTE   N05
 BYTE   W06
 BYTE   N11  Cn1  v127
 BYTE   N05  Fs1  v108
 BYTE   W06
 BYTE   Fs1  v080
 BYTE   W06
 BYTE   N11  Cn1  v127
 BYTE   N05  Fs1  v080
 BYTE   W06
 BYTE   N05
 BYTE   W06
 BYTE   N11  Cn1  v127
 BYTE   N05  Fs1  v080
 BYTE   W06
 BYTE   N05
 BYTE   W06
 BYTE   N11  Cn1  v127
 BYTE   N11  As1  v108
 BYTE   W06
 BYTE   N05  Fs1  v080
 BYTE   W06
 BYTE   N11  Cn1  v127
 BYTE   N05  Fs1  v080
 BYTE   W06
 BYTE   N05
 BYTE   W06
 BYTE   N11  Cn1  v127
 BYTE   N05  Fs1  v080
 BYTE   W06
 BYTE   N05
 BYTE   W06
// 027   ----------------------------------------
 BYTE   N11  Cn1  v127
 BYTE   N05  Fs1  v080
 BYTE   W06
 BYTE   N05
 BYTE   W06
 BYTE   N11  Cn1  v127
 BYTE   N80  Cs2  v112
 BYTE   W06
 BYTE   N05  Fs1  v080
 BYTE   W06
 BYTE   N11  Cn1  v127
 BYTE   N05  Fs1  v080
 BYTE   W06
 BYTE   N05
 BYTE   W06
 BYTE   N11  Cn1  v127
 BYTE   N05  Fs1  v080
 BYTE   W06
 BYTE   N05
 BYTE   W06
 BYTE   N11  Cn1  v127
 BYTE   N11  As1  v108
 BYTE   W06
 BYTE   N05  Fs1  v080
 BYTE   W06
 BYTE   N11  Cn1  v127
 BYTE   N05  Fs1  v080
 BYTE   W06
 BYTE   N05
 BYTE   W06
 BYTE   N11  Cn1  v127
 BYTE   N05  Fs1  v080
 BYTE   W06
 BYTE   N05
 BYTE   W06
 BYTE   N11  Cn1  v127
 BYTE   N05  Fs1  v080
 BYTE   W06
 BYTE   N05
 BYTE   W06
// 028   ----------------------------------------
 BYTE   N11  Cn1  v127
 BYTE   N05  Fs1  v108
 BYTE   W06
 BYTE   Fs1  v080
 BYTE   W06
 BYTE   N11  Cn1  v127
 BYTE   N05  Fs1  v080
 BYTE   W06
 BYTE   N05
 BYTE   W06
 BYTE   N11  Cn1  v127
 BYTE   N05  Fs1  v080
 BYTE   W06
 BYTE   N05
 BYTE   W06
 BYTE   N11  Cn1  v127
 BYTE   N11  As1  v108
 BYTE   W06
 BYTE   N05  Fs1  v080
 BYTE   W06
 BYTE   N11  Cn1  v127
 BYTE   N05  Fs1  v080
 BYTE   W06
 BYTE   N05
 BYTE   W06
 BYTE   N11  Cn1  v127
 BYTE   N05  Dn1
 BYTE   W06
 BYTE   Dn1  v120
 BYTE   W06
 BYTE   N11  Cn1  v127
 BYTE   N05  Dn1
 BYTE   W06
 BYTE   N05
 BYTE   W06
 BYTE   N04  Cn1
 BYTE   N80  Cs2  v112
 BYTE   W06
 BYTE   N04  Cn1  v127
 BYTE   W06
// 029   ----------------------------------------
 BYTE   N19  Dn1
 BYTE   N11  As1  v088
 BYTE   W06
 BYTE   N04  Cn1  v127
 BYTE   W06
 BYTE   N04
 BYTE   N11  As1  v088
 BYTE   W06
 BYTE   N04  Cn1  v127
 BYTE   W06
 BYTE   N19  Dn1
 BYTE   N11  As1  v088
 BYTE   W06
 BYTE   N04  Cn1  v127
 BYTE   W06
 BYTE   N04
 BYTE   N11  As1  v088
 BYTE   W06
 BYTE   N04  Cn1  v127
 BYTE   W06
 BYTE   N19  Dn1
 BYTE   N11  As1  v088
 BYTE   W06
 BYTE   N04  Cn1  v127
 BYTE   W06
 BYTE   N04
 BYTE   N11  As1  v088
 BYTE   W06
 BYTE   N04  Cn1  v127
 BYTE   W06
 BYTE   N04
 BYTE   N11  As1  v088
 BYTE   W06
 BYTE   N04  Cn1  v127
 BYTE   W06
 BYTE   N19  Dn1
 BYTE   N11  As1  v088
 BYTE   W06
 BYTE   N04  Cn1  v127
 BYTE   W06
// 030   ----------------------------------------
 BYTE   N04
 BYTE   N11  As1  v088
 BYTE   W06
 BYTE   N04  Cn1  v127
 BYTE   W06
 BYTE   N19  Dn1
 BYTE   N11  As1  v088
 BYTE   W06
 BYTE   N04  Cn1  v127
 BYTE   W06
 BYTE   N04
 BYTE   N11  As1  v088
 BYTE   W06
 BYTE   N04  Cn1  v127
 BYTE   W06
 BYTE   N19  Dn1
 BYTE   N11  As1  v088
 BYTE   W06
 BYTE   N04  Cn1  v127
 BYTE   W06
 BYTE   N04
 BYTE   N11  As1  v088
 BYTE   W06
 BYTE   N04  Cn1  v127
 BYTE   W06
 BYTE   N04
 BYTE   N80  Cs2  v112
 BYTE   W06
 BYTE   N04  Cn1  v127
 BYTE   W06
 BYTE   N19  Dn1
 BYTE   N11  As1  v088
 BYTE   W06
 BYTE   N04  Cn1  v127
 BYTE   W06
 BYTE   N04
 BYTE   N11  As1  v088
 BYTE   W06
 BYTE   N04  Cn1  v127
 BYTE   W06
// 031   ----------------------------------------
 BYTE   N19  Dn1
 BYTE   N11  As1  v088
 BYTE   W06
 BYTE   N04  Cn1  v127
 BYTE   W06
 BYTE   N04
 BYTE   N11  As1  v088
 BYTE   W06
 BYTE   N04  Cn1  v127
 BYTE   W06
 BYTE   N19  Dn1
 BYTE   N11  As1  v088
 BYTE   W06
 BYTE   N04  Cn1  v127
 BYTE   W06
 BYTE   N04
 BYTE   N11  As1  v088
 BYTE   W06
 BYTE   N04  Cn1  v127
 BYTE   W06
 BYTE   N04
 BYTE   N11  As1  v088
 BYTE   W06
 BYTE   N04  Cn1  v127
 BYTE   W06
 BYTE   N19  Dn1
 BYTE   N11  As1  v088
 BYTE   W06
 BYTE   N04  Cn1  v127
 BYTE   W06
 BYTE   N04
 BYTE   N11  As1  v088
 BYTE   W06
 BYTE   N04  Cn1  v127
 BYTE   W06
 BYTE   N19  Dn1
 BYTE   N11  As1  v088
 BYTE   W06
 BYTE   N04  Cn1  v127
 BYTE   W06
// 032   ----------------------------------------
 BYTE   N04
 BYTE   N11  As1  v088
 BYTE   W06
 BYTE   N04  Cn1  v127
 BYTE   W06
 BYTE   N19  Dn1
 BYTE   N11  As1  v088
 BYTE   W06
 BYTE   N04  Cn1  v127
 BYTE   W06
 BYTE   N04
 BYTE   N11  As1  v088
 BYTE   W06
 BYTE   N04  Cn1  v127
 BYTE   W06
 BYTE   N44  Dn1  v120
 BYTE   N52  Cs2  v100
 BYTE   W60
// 033   ----------------------------------------
 BYTE   W06
 BYTE   N05  Bn1  v120
 BYTE   W06
 BYTE   An1
 BYTE   W06
 BYTE   Fn1
 BYTE   W06
 BYTE   N44  Dn1
 BYTE   N52  Cs2  v100
 BYTE   W66
 BYTE   N11  Dn1  v120
 BYTE   W06
// 034   ----------------------------------------
 BYTE   Cn1
 BYTE   W06
 BYTE   N04  Dn1
 BYTE   W06
 BYTE   N11  Cn1  v124
 BYTE   N80  Cs2  v108
 BYTE   W12
 BYTE   N11  Dn1  v124
 BYTE   N11  As1  v084
 BYTE   W12
 BYTE   N04  Cn1  v124
 BYTE   N11  As1  v084
 BYTE   W06
 BYTE   N04  Cn1  v124
 BYTE   W06
 BYTE   N11  Dn1
 BYTE   N11  As1  v084
 BYTE   W12
 BYTE   N04  Cn1  v124
 BYTE   N11  As1  v084
 BYTE   W06
 BYTE   N04  Cn1  v124
 BYTE   W06
 BYTE   N11  Dn1
 BYTE   N11  As1  v084
 BYTE   W12
 BYTE   N04  Cn1  v124
 BYTE   N11  As1  v084
 BYTE   W06
 BYTE   Dn1  v124
 BYTE   W06
// 035   ----------------------------------------
 BYTE   Cn1
 BYTE   N11  As1  v084
 BYTE   W12
 BYTE   Dn1  v124
 BYTE   N11  As1  v084
 BYTE   W12
 BYTE   N04  Cn1  v124
 BYTE   N11  As1  v084
 BYTE   W06
 BYTE   N04  Cn1  v124
 BYTE   W06
 BYTE   N11  Dn1
 BYTE   N11  As1  v084
 BYTE   W12
 BYTE   N04  Cn1  v124
 BYTE   N11  As1  v084
 BYTE   W06
 BYTE   N04  Cn1  v124
 BYTE   W06
 BYTE   N11  Dn1
 BYTE   N11  As1  v084
 BYTE   W12
 BYTE   N04  Cn1  v124
 BYTE   N11  As1  v084
 BYTE   W06
 BYTE   Dn1  v124
 BYTE   W06
 BYTE   Cn1
 BYTE   N80  Cs2  v108
 BYTE   W12
// 036   ----------------------------------------
 BYTE   N11  Dn1  v124
 BYTE   N11  As1  v084
 BYTE   W12
 BYTE   N04  Cn1  v124
 BYTE   N11  As1  v084
 BYTE   W06
 BYTE   N04  Cn1  v124
 BYTE   W06
 BYTE   N11  Dn1
 BYTE   N11  As1  v084
 BYTE   W12
 BYTE   N04  Cn1  v124
 BYTE   N11  As1  v084
 BYTE   W06
 BYTE   N04  Cn1  v124
 BYTE   W06
 BYTE   N11  Dn1
 BYTE   N11  As1  v084
 BYTE   W12
 BYTE   N04  Cn1  v124
 BYTE   N11  As1  v084
 BYTE   W06
 BYTE   Dn1  v124
 BYTE   W06
 BYTE   Cn1
 BYTE   N11  As1  v084
 BYTE   W12
 BYTE   Dn1  v124
 BYTE   N11  As1  v084
 BYTE   W12
// 037   ----------------------------------------
 BYTE   N04  Cn1  v124
 BYTE   N11  As1  v084
 BYTE   W06
 BYTE   N04  Cn1  v124
 BYTE   W06
 BYTE   N11  Dn1
 BYTE   N11  As1  v084
 BYTE   W12
 BYTE   N04  Cn1  v124
 BYTE   N11  As1  v084
 BYTE   W06
 BYTE   N04  Cn1  v124
 BYTE   W06
 BYTE   N11  Dn1
 BYTE   N11  As1  v084
 BYTE   W12
 BYTE   N04  Cn1  v124
 BYTE   N11  As1  v084
 BYTE   W06
 BYTE   N04  Dn1  v124
 BYTE   W06
 BYTE   N11  Dn1  v127
 BYTE   N22  En2  v092
 BYTE   W06
 BYTE   N04  Cn1  v127
 BYTE   W06
 BYTE   N04
 BYTE   W06
 BYTE   N04
 BYTE   W06
 BYTE   N11  Dn1
 BYTE   N22  En2  v092
 BYTE   W06
 BYTE   N04  Cn1  v127
 BYTE   W06
// 038   ----------------------------------------
 BYTE   N04
 BYTE   W06
 BYTE   N04
 BYTE   W06
 BYTE   N11  Dn1
 BYTE   N22  En2  v092
 BYTE   W06
 BYTE   N04  Cn1  v127
 BYTE   W06
 BYTE   N04
 BYTE   W06
 BYTE   N04
 BYTE   W06
 BYTE   N11  Dn1
 BYTE   N11  En2  v092
 BYTE   W06
 BYTE   N04  Cn1  v127
 BYTE   W06
 BYTE   N11  Dn1
 BYTE   N22  En2  v092
 BYTE   W06
 BYTE   N04  Cn1  v127
 BYTE   W06
 BYTE   N04
 BYTE   W06
 BYTE   N04
 BYTE   W06
 BYTE   N11  Dn1
 BYTE   N22  En2  v092
 BYTE   W06
 BYTE   N04  Cn1  v127
 BYTE   W06
 BYTE   N04
 BYTE   W06
 BYTE   N04
 BYTE   W06
// 039   ----------------------------------------
 BYTE   N11  Dn1
 BYTE   N22  En2  v092
 BYTE   W06
 BYTE   N04  Cn1  v127
 BYTE   W06
 BYTE   N04
 BYTE   W06
 BYTE   N04
 BYTE   W06
 BYTE   N11  Dn1
 BYTE   N11  En2  v092
 BYTE   W06
 BYTE   N04  Cn1  v127
 BYTE   W06
 BYTE   N11  Dn1
 BYTE   N22  En2  v092
 BYTE   W06
 BYTE   N04  Cn1  v127
 BYTE   W06
 BYTE   N04
 BYTE   W06
 BYTE   N04
 BYTE   W06
 BYTE   N11  Dn1
 BYTE   N22  En2  v092
 BYTE   W06
 BYTE   N04  Cn1  v127
 BYTE   W06
 BYTE   N04
 BYTE   W06
 BYTE   N04
 BYTE   W06
 BYTE   N11  Dn1
 BYTE   N22  En2  v092
 BYTE   W06
 BYTE   N04  Cn1  v127
 BYTE   W06
// 040   ----------------------------------------
 BYTE   N04
 BYTE   W06
 BYTE   N04
 BYTE   W06
 BYTE   N11  Dn1
 BYTE   N11  En2  v092
 BYTE   W06
 BYTE   N04  Cn1  v127
 BYTE   W06
 BYTE   N11  Dn1
 BYTE   N22  En2  v092
 BYTE   W06
 BYTE   N04  Cn1  v127
 BYTE   W06
 BYTE   N04
 BYTE   W06
 BYTE   N04
 BYTE   W06
 BYTE   N11  Dn1
 BYTE   N22  En2  v092
 BYTE   W06
 BYTE   N04  Cn1  v127
 BYTE   W06
 BYTE   N04
 BYTE   W06
 BYTE   N04
 BYTE   W06
 BYTE   N11  Dn1
 BYTE   N22  En2  v092
 BYTE   W06
 BYTE   N04  Cn1  v127
 BYTE   W06
 BYTE   N04
 BYTE   W06
 BYTE   N04
 BYTE   W06
// 041   ----------------------------------------
 BYTE   N11  Dn1
 BYTE   N11  En2  v092
 BYTE   W06
 BYTE   N04  Cn1  v127
 BYTE   W06
 BYTE   N09  Dn1
 BYTE   N15  Cs2  v096
 BYTE   W06
 BYTE   N04  Cn1  v127
 BYTE   W06
 BYTE   N09
 BYTE   W06
 BYTE   Dn1
 BYTE   N15  Cs2  v096
 BYTE   W06
 BYTE   N04  Cn1  v127
 BYTE   W06
 BYTE   N09
 BYTE   W06
 BYTE   Dn1
 BYTE   N15  Cs2  v096
 BYTE   W06
 BYTE   N04  Cn1  v127
 BYTE   W06
 BYTE   N09
 BYTE   W06
 BYTE   Dn1
 BYTE   N09  En2  v088
 BYTE   W06
 BYTE   N04  Cn1  v127
 BYTE   W06
 BYTE   N09
 BYTE   W06
 BYTE   N11  Dn1
 BYTE   N11  En2  v088
 BYTE   W12
// 042   ----------------------------------------
 BYTE   N09  Dn1  v127
 BYTE   N15  Cs2  v096
 BYTE   W06
 BYTE   N04  Cn1  v127
 BYTE   W06
 BYTE   N09
 BYTE   W06
 BYTE   Dn1
 BYTE   N15  Cs2  v096
 BYTE   W06
 BYTE   N04  Cn1  v127
 BYTE   W06
 BYTE   N09
 BYTE   W06
 BYTE   Dn1
 BYTE   N15  Cs2  v096
 BYTE   W06
 BYTE   N04  Cn1  v127
 BYTE   W06
 BYTE   N09
 BYTE   W06
 BYTE   Dn1
 BYTE   N09  En2  v088
 BYTE   W06
 BYTE   N04  Cn1  v127
 BYTE   W06
 BYTE   N09
 BYTE   W06
 BYTE   N11  Dn1
 BYTE   N11  En2  v088
 BYTE   W12
 BYTE   N09  Dn1  v127
 BYTE   N15  Cs2  v096
 BYTE   W06
 BYTE   N04  Cn1  v127
 BYTE   W06
// 043   ----------------------------------------
 BYTE   N09
 BYTE   W06
 BYTE   Dn1
 BYTE   N15  Cs2  v096
 BYTE   W06
 BYTE   N04  Cn1  v127
 BYTE   W06
 BYTE   N09
 BYTE   W06
 BYTE   Dn1
 BYTE   N15  Cs2  v096
 BYTE   W06
 BYTE   N04  Cn1  v127
 BYTE   W06
 BYTE   N09
 BYTE   W06
 BYTE   Dn1
 BYTE   N09  En2  v088
 BYTE   W06
 BYTE   N04  Cn1  v127
 BYTE   W06
 BYTE   N09
 BYTE   W06
 BYTE   N11  Dn1
 BYTE   N11  En2  v088
 BYTE   W12
 BYTE   N09  Dn1  v127
 BYTE   N15  Cs2  v096
 BYTE   W06
 BYTE   N04  Cn1  v127
 BYTE   W06
 BYTE   N09
 BYTE   W06
 BYTE   Dn1
 BYTE   N15  Cs2  v096
 BYTE   W06
// 044   ----------------------------------------
 BYTE   N04  Cn1  v127
 BYTE   W06
 BYTE   N09
 BYTE   W06
 BYTE   Dn1
 BYTE   N15  Cs2  v096
 BYTE   W06
 BYTE   N04  Cn1  v127
 BYTE   W06
 BYTE   N09
 BYTE   W06
 BYTE   Dn1
 BYTE   N09  En2  v088
 BYTE   W06
 BYTE   N04  Cn1  v127
 BYTE   W06
 BYTE   N09
 BYTE   W06
 BYTE   N11  Dn1
 BYTE   N11  En2  v088
 BYTE   W12
 BYTE   Cn1  v127
 BYTE   N80  Cs2  v096
 BYTE   W12
 BYTE   N11  Dn1  v127
 BYTE   N11  As1  v088
 BYTE   W12
 BYTE   N04  Cn1  v127
 BYTE   N11  As1  v088
 BYTE   W06
 BYTE   N04  Cn1  v127
 BYTE   W06
// 045   ----------------------------------------
Label_8_01278049:
 BYTE   N11  Dn1  v127
 BYTE   N11  As1  v088
 BYTE   W12
 BYTE   N04  Cn1  v127
 BYTE   N11  As1  v088
 BYTE   W06
 BYTE   N04  Cn1  v127
 BYTE   W06
 BYTE   N11  Dn1
 BYTE   N11  As1  v088
 BYTE   W12
 BYTE   N04  Cn1  v127
 BYTE   N11  As1  v088
 BYTE   W06
 BYTE   Dn1  v127
 BYTE   W06
 BYTE   Cn1
 BYTE   N11  As1  v088
 BYTE   W12
 BYTE   Dn1  v127
 BYTE   N11  As1  v088
 BYTE   W12
 BYTE   N04  Cn1  v127
 BYTE   N11  As1  v088
 BYTE   W06
 BYTE   N04  Cn1  v127
 BYTE   W06
 BYTE   N11  Dn1
 BYTE   N11  As1  v088
 BYTE   W12
 BYTE   PEND 
// 046   ----------------------------------------
 BYTE   N04  Cn1  v127
 BYTE   N11  As1  v088
 BYTE   W06
 BYTE   N04  Cn1  v127
 BYTE   W06
 BYTE   N11  Dn1
 BYTE   N11  As1  v088
 BYTE   W12
 BYTE   N04  Cn1  v127
 BYTE   N11  As1  v088
 BYTE   W06
 BYTE   Dn1  v127
 BYTE   W06
 BYTE   Cn1
 BYTE   N80  Cs2  v096
 BYTE   W12
 BYTE   N11  Dn1  v127
 BYTE   N11  As1  v088
 BYTE   W12
 BYTE   N04  Cn1  v127
 BYTE   N11  As1  v088
 BYTE   W06
 BYTE   N04  Cn1  v127
 BYTE   W06
 BYTE   N11  Dn1
 BYTE   N11  As1  v088
 BYTE   W12
 BYTE   N04  Cn1  v127
 BYTE   N11  As1  v088
 BYTE   W06
 BYTE   N04  Cn1  v127
 BYTE   W06
// 047   ----------------------------------------
Label_8_012780CB:
 BYTE   N11  Dn1  v127
 BYTE   N11  As1  v088
 BYTE   W12
 BYTE   N04  Cn1  v127
 BYTE   N11  As1  v088
 BYTE   W06
 BYTE   Dn1  v127
 BYTE   W06
 BYTE   Cn1
 BYTE   N11  As1  v088
 BYTE   W12
 BYTE   Dn1  v127
 BYTE   N11  As1  v088
 BYTE   W12
 BYTE   N04  Cn1  v127
 BYTE   N11  As1  v088
 BYTE   W06
 BYTE   N04  Cn1  v127
 BYTE   W06
 BYTE   N11  Dn1
 BYTE   N11  As1  v088
 BYTE   W12
 BYTE   N04  Cn1  v127
 BYTE   N11  As1  v088
 BYTE   W06
 BYTE   N04  Cn1  v127
 BYTE   W06
 BYTE   N11  Dn1
 BYTE   N11  As1  v088
 BYTE   W12
 BYTE   PEND 
// 048   ----------------------------------------
 BYTE   N04  Cn1  v127
 BYTE   N11  As1  v088
 BYTE   W06
 BYTE   Dn1  v127
 BYTE   W06
 BYTE   Cn1
 BYTE   N80  Cs2  v112
 BYTE   W12
 BYTE   N11  Dn1  v127
 BYTE   N11  As1  v088
 BYTE   W12
 BYTE   N04  Cn1  v127
 BYTE   N11  As1  v088
 BYTE   W06
 BYTE   N04  Cn1  v127
 BYTE   W06
 BYTE   N11  Dn1
 BYTE   N11  As1  v088
 BYTE   W12
 BYTE   N04  Cn1  v127
 BYTE   N11  As1  v088
 BYTE   W06
 BYTE   N04  Cn1  v127
 BYTE   W06
 BYTE   N11  Dn1
 BYTE   N11  As1  v088
 BYTE   W12
 BYTE   N04  Cn1  v127
 BYTE   N11  As1  v088
 BYTE   W06
 BYTE   Dn1  v127
 BYTE   W06
// 049   ----------------------------------------
 BYTE   Cn1
 BYTE   N11  As1  v088
 BYTE   W12
 BYTE   Dn1  v127
 BYTE   N11  As1  v088
 BYTE   W12
 BYTE   N04  Cn1  v127
 BYTE   N11  As1  v088
 BYTE   W06
 BYTE   N04  Cn1  v127
 BYTE   W06
 BYTE   N11  Dn1
 BYTE   N11  As1  v088
 BYTE   W12
 BYTE   N04  Cn1  v127
 BYTE   N11  As1  v088
 BYTE   W06
 BYTE   N04  Cn1  v127
 BYTE   W06
 BYTE   N11  Dn1
 BYTE   N11  As1  v088
 BYTE   W12
 BYTE   N04  Cn1  v127
 BYTE   N11  As1  v088
 BYTE   W06
 BYTE   Dn1  v127
 BYTE   W06
 BYTE   Cn1
 BYTE   N80  Cs2  v112
 BYTE   W12
// 050   ----------------------------------------
 BYTE   N11  Dn1  v127
 BYTE   N11  As1  v088
 BYTE   W12
 BYTE   N04  Cn1  v127
 BYTE   N11  As1  v088
 BYTE   W06
 BYTE   N04  Cn1  v127
 BYTE   W06
 BYTE   N11  Dn1
 BYTE   N11  As1  v088
 BYTE   W12
 BYTE   N04  Cn1  v127
 BYTE   N11  As1  v088
 BYTE   W06
 BYTE   N04  Cn1  v127
 BYTE   W06
 BYTE   N11  Dn1
 BYTE   N11  As1  v088
 BYTE   W12
 BYTE   N04  Cn1  v127
 BYTE   N11  As1  v088
 BYTE   W06
 BYTE   Dn1  v127
 BYTE   W06
 BYTE   Cn1
 BYTE   N11  As1  v088
 BYTE   W12
 BYTE   Dn1  v127
 BYTE   N11  As1  v088
 BYTE   W12
// 051   ----------------------------------------
 BYTE   N04  Cn1  v127
 BYTE   N11  As1  v088
 BYTE   W06
 BYTE   N04  Cn1  v127
 BYTE   W06
 BYTE   N11  Dn1
 BYTE   N11  As1  v088
 BYTE   W12
 BYTE   N04  Cn1  v127
 BYTE   N11  As1  v088
 BYTE   W06
 BYTE   N04  Cn1  v127
 BYTE   W06
 BYTE   N11  Dn1
 BYTE   N11  As1  v088
 BYTE   W12
 BYTE   N04  Cn1  v127
 BYTE   N11  As1  v088
 BYTE   W06
 BYTE   Dn1  v127
 BYTE   W06
 BYTE   Cn1
 BYTE   N80  Cs2  v112
 BYTE   W12
 BYTE   N11  Dn1  v127
 BYTE   N11  As1  v088
 BYTE   W12
 BYTE   N04  Cn1  v127
 BYTE   N11  As1  v088
 BYTE   W06
 BYTE   N04  Cn1  v127
 BYTE   W06
// 052   ----------------------------------------
 BYTE   PATT
  POIN2 Label_8_01278049
// 053   ----------------------------------------
 BYTE   N04  Cn1  v127
 BYTE   N11  As1  v088
 BYTE   W06
 BYTE   N04  Cn1  v127
 BYTE   W06
 BYTE   N11  Dn1
 BYTE   N11  As1  v088
 BYTE   W12
 BYTE   N04  Cn1  v127
 BYTE   N11  As1  v088
 BYTE   W06
 BYTE   Dn1  v127
 BYTE   W06
 BYTE   Cn1
 BYTE   N80  Cs2  v112
 BYTE   W12
 BYTE   N11  Dn1  v127
 BYTE   N11  As1  v088
 BYTE   W12
 BYTE   N04  Cn1  v127
 BYTE   N11  As1  v088
 BYTE   W06
 BYTE   N04  Cn1  v127
 BYTE   W06
 BYTE   N11  Dn1
 BYTE   N11  As1  v088
 BYTE   W12
 BYTE   N04  Cn1  v127
 BYTE   N11  As1  v088
 BYTE   W06
 BYTE   N04  Cn1  v127
 BYTE   W06
// 054   ----------------------------------------
 BYTE   PATT
  POIN2 Label_8_012780CB
// 055   ----------------------------------------
 BYTE   N04  Cn1  v127
 BYTE   N11  As1  v088
 BYTE   W06
 BYTE   N04  Dn1  v127
 BYTE   W06
 BYTE   N04
 BYTE   N11  En2  v092
 BYTE   W06
 BYTE   N04  Dn1  v127
 BYTE   N11  Cs2  v112
 BYTE   W06
 BYTE   Dn1  v127
 BYTE   N04  En2  v092
 BYTE   W06
 BYTE   N11  Cn1  v127
 BYTE   N11  En2  v092
 BYTE   W12
 BYTE   N04  Cn1  v127
 BYTE   N04  En2  v092
 BYTE   W06
 BYTE   N11  Dn1  v127
 BYTE   N11  En2  v092
 BYTE   W06
 BYTE   N04  Cn1  v127
 BYTE   W06
 BYTE   Dn1
 BYTE   N04  Fs1  v108
 BYTE   W06
 BYTE   Dn1  v127
 BYTE   N04  Fs1  v108
 BYTE   W06
 BYTE   N11  Dn1  v127
 BYTE   N04  As1
 BYTE   W06
 BYTE   N11  Cn1
 BYTE   N04  Fs1  v108
 BYTE   W06
 BYTE   N04
 BYTE   W06
 BYTE   Cn1  v127
 BYTE   N04  Fs1  v108
 BYTE   W06
// 056   ----------------------------------------
 BYTE   Dn1  v127
 BYTE   N11  En2  v092
 BYTE   W06
 BYTE   N04  Dn1  v127
 BYTE   N11  Cs2  v112
 BYTE   W06
 BYTE   Dn1  v127
 BYTE   N04  En2  v092
 BYTE   W06
 BYTE   N11  Cn1  v127
 BYTE   N11  En2  v092
 BYTE   W12
 BYTE   N04  Cn1  v127
 BYTE   N04  En2  v092
 BYTE   W06
 BYTE   N11  Dn1  v127
 BYTE   N11  En2  v092
 BYTE   W06
 BYTE   N04  Cn1  v127
 BYTE   W06
 BYTE   Dn1
 BYTE   N04  Fs1  v108
 BYTE   W06
 BYTE   Dn1  v127
 BYTE   N04  Fs1  v108
 BYTE   W06
 BYTE   N11  Dn1  v127
 BYTE   N04  As1
 BYTE   W06
 BYTE   N11  Cn1
 BYTE   N04  Fs1  v108
 BYTE   W06
 BYTE   N04
 BYTE   W06
 BYTE   Cn1  v127
 BYTE   N04  Fs1  v108
 BYTE   W06
 BYTE   Dn1  v127
 BYTE   N11  En2  v092
 BYTE   W06
 BYTE   N04  Dn1  v127
 BYTE   N11  Cs2  v112
 BYTE   W06
// 057   ----------------------------------------
 BYTE   Dn1  v127
 BYTE   N04  En2  v092
 BYTE   W06
 BYTE   N11  Cn1  v127
 BYTE   N11  En2  v092
 BYTE   W12
 BYTE   N04  Cn1  v127
 BYTE   N04  En2  v092
 BYTE   W06
 BYTE   N11  Dn1  v127
 BYTE   N11  En2  v092
 BYTE   W06
 BYTE   N04  Cn1  v127
 BYTE   W06
 BYTE   Dn1
 BYTE   N04  Fs1  v108
 BYTE   W06
 BYTE   Dn1  v127
 BYTE   N04  Fs1  v108
 BYTE   W06
 BYTE   N11  Dn1  v127
 BYTE   N04  As1
 BYTE   W06
 BYTE   N11  Cn1
 BYTE   N04  Fs1  v108
 BYTE   W06
 BYTE   N04
 BYTE   W06
 BYTE   Cn1  v127
 BYTE   N04  Fs1  v108
 BYTE   W06
 BYTE   Dn1  v127
 BYTE   N11  En2  v092
 BYTE   W06
 BYTE   N04  Dn1  v127
 BYTE   N11  Cs2  v112
 BYTE   W06
 BYTE   Dn1  v127
 BYTE   N04  En2  v092
 BYTE   W06
 BYTE   N11  Cn1  v127
 BYTE   N11  En2  v092
 BYTE   W06
// 058   ----------------------------------------
 BYTE   W06
 BYTE   N04  Cn1  v127
 BYTE   N04  En2  v092
 BYTE   W06
 BYTE   N11  Dn1  v127
 BYTE   N11  En2  v092
 BYTE   W06
 BYTE   N04  Cn1  v127
 BYTE   W06
 BYTE   Dn1
 BYTE   N04  Fs1  v108
 BYTE   W06
 BYTE   Dn1  v127
 BYTE   N04  Fs1  v108
 BYTE   W06
 BYTE   N11  Dn1  v127
 BYTE   N04  As1
 BYTE   W06
 BYTE   N11  Cn1
 BYTE   N04  Fs1  v108
 BYTE   W06
 BYTE   N04
 BYTE   W06
 BYTE   Cn1  v127
 BYTE   N04  Fs1  v108
 BYTE   W06
 BYTE   N11  Dn1  v127
 BYTE   N22  En2  v092
 BYTE   W06
 BYTE   N04  Cn1  v127
 BYTE   W06
 BYTE   N04
 BYTE   W06
 BYTE   N11
 BYTE   W06
 BYTE   Dn1
 BYTE   N22  En2  v092
 BYTE   W06
 BYTE   N04  Cn1  v127
 BYTE   W06
// 059   ----------------------------------------
 BYTE   N04
 BYTE   W06
 BYTE   N11
 BYTE   W06
 BYTE   Dn1
 BYTE   N22  En2  v092
 BYTE   W06
 BYTE   N04  Cn1  v127
 BYTE   W06
 BYTE   N04
 BYTE   W06
 BYTE   N11
 BYTE   W06
 BYTE   Dn1
 BYTE   N11  En2  v092
 BYTE   W06
 BYTE   N04  Cn1  v127
 BYTE   W06
 BYTE   N11  Dn1
 BYTE   N22  En2  v092
 BYTE   W06
 BYTE   N04  Cn1  v127
 BYTE   W06
 BYTE   N04
 BYTE   W06
 BYTE   N11
 BYTE   W06
 BYTE   Dn1
 BYTE   N22  En2  v092
 BYTE   W06
 BYTE   N04  Cn1  v127
 BYTE   W06
 BYTE   N04
 BYTE   W06
 BYTE   N11
 BYTE   W06
// 060   ----------------------------------------
 BYTE   Dn1
 BYTE   N22  En2  v092
 BYTE   W06
 BYTE   N04  Cn1  v127
 BYTE   W06
 BYTE   N04
 BYTE   W06
 BYTE   N11
 BYTE   W06
 BYTE   Dn1
 BYTE   N11  En2  v092
 BYTE   W06
 BYTE   N04  Cn1  v127
 BYTE   W06
 BYTE   N11  Dn1
 BYTE   N22  En2  v092
 BYTE   W06
 BYTE   N04  Cn1  v127
 BYTE   W06
 BYTE   N04
 BYTE   W06
 BYTE   N11
 BYTE   W06
 BYTE   Dn1
 BYTE   N22  En2  v092
 BYTE   W06
 BYTE   N04  Cn1  v127
 BYTE   W06
 BYTE   N04
 BYTE   W06
 BYTE   N11
 BYTE   W06
 BYTE   Dn1
 BYTE   N22  En2  v092
 BYTE   W06
 BYTE   N04  Cn1  v127
 BYTE   W06
// 061   ----------------------------------------
 BYTE   N04
 BYTE   W06
 BYTE   N11
 BYTE   W06
 BYTE   Dn1
 BYTE   N11  En2  v092
 BYTE   W06
 BYTE   N04  Cn1  v127
 BYTE   W06
 BYTE   N11  Dn1
 BYTE   N22  En2  v092
 BYTE   W06
 BYTE   N04  Cn1  v127
 BYTE   W06
 BYTE   N04
 BYTE   W06
 BYTE   N11
 BYTE   W06
 BYTE   Dn1
 BYTE   N22  En2  v092
 BYTE   W06
 BYTE   N04  Cn1  v127
 BYTE   W06
 BYTE   N04
 BYTE   W06
 BYTE   N11
 BYTE   W06
 BYTE   Dn1
 BYTE   N22  En2  v092
 BYTE   W06
 BYTE   N04  Cn1  v127
 BYTE   W06
 BYTE   N04
 BYTE   W06
 BYTE   N11
 BYTE   W06
// 062   ----------------------------------------
 BYTE   Dn1
 BYTE   N11  En2  v092
 BYTE   W06
 BYTE   N04  Cn1  v127
 BYTE   W05
 BYTE   GoTo
  POIN2 Label_8_01277563
 BYTE   FINE

//**************** Track 10 (Midi-Chn.9) ****************//

song010B_010:
// 000   ----------------------------------------
 BYTE   KEYSH   song010B_key+0
 BYTE   VOICE   81
 BYTE   VOL   11*song010B_mvl/mxv
 BYTE   PAN   c_v-64
 BYTE   BEND   c_v-1
 BYTE   W96
// 001   ----------------------------------------
Label_9_01278463:
 BYTE   W96
// 002   ----------------------------------------
 BYTE   W96
// 003   ----------------------------------------
 BYTE   W96
// 004   ----------------------------------------
 BYTE   W96
// 005   ----------------------------------------
 BYTE   W96
// 006   ----------------------------------------
 BYTE   W96
// 007   ----------------------------------------
 BYTE   W96
// 008   ----------------------------------------
 BYTE   W96
// 009   ----------------------------------------
 BYTE   W96
// 010   ----------------------------------------
 BYTE   W96
// 011   ----------------------------------------
 BYTE   W96
// 012   ----------------------------------------
 BYTE   W96
// 013   ----------------------------------------
 BYTE   W96
// 014   ----------------------------------------
 BYTE   W96
// 015   ----------------------------------------
 BYTE   W96
// 016   ----------------------------------------
 BYTE   W96
// 017   ----------------------------------------
 BYTE   W96
// 018   ----------------------------------------
 BYTE   W96
// 019   ----------------------------------------
 BYTE   W96
// 020   ----------------------------------------
 BYTE   W96
// 021   ----------------------------------------
 BYTE   W96
// 022   ----------------------------------------
 BYTE   W96
// 023   ----------------------------------------
 BYTE   W96
// 024   ----------------------------------------
 BYTE   W96
// 025   ----------------------------------------
 BYTE   W42
 BYTE   N05  As3  v127
 BYTE   W06
 BYTE   An3
 BYTE   W06
 BYTE   As3
 BYTE   W06
 BYTE   Cn4
 BYTE   W06
 BYTE   Dn4
 BYTE   W06
 BYTE   Gn3
 BYTE   W06
 BYTE   An3
 BYTE   W06
 BYTE   As3
 BYTE   W06
 BYTE   Cn4
 BYTE   W06
// 026   ----------------------------------------
 BYTE   Dn4
 BYTE   W06
 BYTE   Gn4
 BYTE   W06
 BYTE   Fs4
 BYTE   W06
 BYTE   Gn4
 BYTE   W06
 BYTE   An4
 BYTE   W06
 BYTE   As4
 BYTE   W06
 BYTE   An4
 BYTE   W06
 BYTE   Gn4
 BYTE   W06
 BYTE   Dn4
 BYTE   W06
 BYTE   Dn5
 BYTE   W06
 BYTE   Cs5
 BYTE   W06
 BYTE   As4
 BYTE   W06
 BYTE   Gn4
 BYTE   W06
 BYTE   Cn5
 BYTE   W06
 BYTE   As4
 BYTE   W06
 BYTE   An4
 BYTE   W06
// 027   ----------------------------------------
 BYTE   Gn4
 BYTE   W06
 BYTE   Fs4
 BYTE   W06
 BYTE   Gn4
 BYTE   W06
 BYTE   Fn4
 BYTE   W06
 BYTE   Ds4
 BYTE   W06
 BYTE   Dn4
 BYTE   W06
 BYTE   Cn4
 BYTE   W06
 BYTE   Dn4
 BYTE   W06
 BYTE   As3
 BYTE   W06
 BYTE   An3
 BYTE   W06
 BYTE   Gn3
 BYTE   W06
 BYTE   An3
 BYTE   W06
 BYTE   As3
 BYTE   W06
 BYTE   Cn4
 BYTE   W06
 BYTE   Dn4
 BYTE   W06
 BYTE   Fn4
 BYTE   W06
// 028   ----------------------------------------
 BYTE   Fs4
 BYTE   W06
 BYTE   Gn4
 BYTE   W06
 BYTE   Gs4
 BYTE   W06
 BYTE   An4
 BYTE   W06
 BYTE   As4
 BYTE   W06
 BYTE   Bn4
 BYTE   W06
 BYTE   Ds4
 BYTE   W06
 BYTE   Gn4
 BYTE   W06
 BYTE   Fs4
 BYTE   W06
 BYTE   Fn4
 BYTE   W06
 BYTE   En4
 BYTE   W06
 BYTE   Ds4
 BYTE   W06
 BYTE   Dn4
 BYTE   W06
 BYTE   Cs4
 BYTE   W06
 BYTE   Cn4
 BYTE   W06
 BYTE   As3
 BYTE   W06
// 029   ----------------------------------------
 BYTE   An3
 BYTE   W06
 BYTE   As3
 BYTE   W06
 BYTE   Cn4
 BYTE   W06
 BYTE   Dn4
 BYTE   W06
 BYTE   Gn3
 BYTE   W06
 BYTE   An3
 BYTE   W06
 BYTE   As3
 BYTE   W06
 BYTE   Cn4
 BYTE   W06
 BYTE   Dn4
 BYTE   W06
 BYTE   Gn4
 BYTE   W06
 BYTE   Fs4
 BYTE   W06
 BYTE   Gn4
 BYTE   W06
 BYTE   An4
 BYTE   W06
 BYTE   As4
 BYTE   W06
 BYTE   An4
 BYTE   W06
 BYTE   Gn4
 BYTE   W06
// 030   ----------------------------------------
 BYTE   Dn4
 BYTE   W06
 BYTE   Dn5
 BYTE   W06
 BYTE   Cs5
 BYTE   W06
 BYTE   As4
 BYTE   W06
 BYTE   Gn4
 BYTE   W06
 BYTE   Cn5
 BYTE   W06
 BYTE   As4
 BYTE   W06
 BYTE   An4
 BYTE   W06
 BYTE   Gn4
 BYTE   W06
 BYTE   Fs4
 BYTE   W06
 BYTE   Gn4
 BYTE   W06
 BYTE   Fn4
 BYTE   W06
 BYTE   Ds4
 BYTE   W06
 BYTE   Dn4
 BYTE   W06
 BYTE   Cn4
 BYTE   W06
 BYTE   Dn4
 BYTE   W06
// 031   ----------------------------------------
 BYTE   As3
 BYTE   W06
 BYTE   An3
 BYTE   W06
 BYTE   Gn3
 BYTE   W06
 BYTE   An3
 BYTE   W06
 BYTE   As3
 BYTE   W06
 BYTE   Cn4
 BYTE   W06
 BYTE   Dn4
 BYTE   W06
 BYTE   Fn4
 BYTE   W06
 BYTE   Fs4
 BYTE   W06
 BYTE   Gn4
 BYTE   W06
 BYTE   Gs4
 BYTE   W06
 BYTE   An4
 BYTE   W06
 BYTE   As4
 BYTE   W06
 BYTE   Bn4
 BYTE   W06
 BYTE   Ds4
 BYTE   W06
 BYTE   Gn4
 BYTE   W06
// 032   ----------------------------------------
 BYTE   Fs4
 BYTE   W06
 BYTE   Fn4
 BYTE   W06
 BYTE   En4
 BYTE   W06
 BYTE   Ds4
 BYTE   W06
 BYTE   Dn4
 BYTE   W06
 BYTE   Cs4
 BYTE   W66
// 033   ----------------------------------------
 BYTE   W96
// 034   ----------------------------------------
 BYTE   W96
// 035   ----------------------------------------
 BYTE   W96
// 036   ----------------------------------------
 BYTE   W96
// 037   ----------------------------------------
 BYTE   W96
// 038   ----------------------------------------
 BYTE   W96
// 039   ----------------------------------------
 BYTE   W96
// 040   ----------------------------------------
 BYTE   W96
// 041   ----------------------------------------
 BYTE   W19
 BYTE   En4  v120
 BYTE   W06
 BYTE   Ds4
 BYTE   W06
 BYTE   Dn4
 BYTE   W06
 BYTE   En4
 BYTE   W06
 BYTE   Ds4
 BYTE   W06
 BYTE   Dn4
 BYTE   W06
 BYTE   En4
 BYTE   W06
 BYTE   Ds4
 BYTE   W06
 BYTE   Dn4
 BYTE   W06
 BYTE   Cs4
 BYTE   W06
 BYTE   Cn4
 BYTE   W06
 BYTE   Bn3
 BYTE   W06
 BYTE   Cn4
 BYTE   W05
// 042   ----------------------------------------
 BYTE   W01
 BYTE   Cs4
 BYTE   W06
 BYTE   En4
 BYTE   W06
 BYTE   Ds4
 BYTE   W06
 BYTE   Dn4
 BYTE   W06
 BYTE   En4
 BYTE   W06
 BYTE   Ds4
 BYTE   W06
 BYTE   Dn4
 BYTE   W06
 BYTE   En4
 BYTE   W06
 BYTE   Ds4
 BYTE   W06
 BYTE   Dn4
 BYTE   W06
 BYTE   Cs4
 BYTE   W06
 BYTE   Cn4
 BYTE   W06
 BYTE   Bn3
 BYTE   W06
 BYTE   Cn4
 BYTE   W06
 BYTE   Cs4
 BYTE   W06
 BYTE   En4
 BYTE   W05
// 043   ----------------------------------------
 BYTE   W01
 BYTE   Ds4
 BYTE   W06
 BYTE   Dn4
 BYTE   W06
 BYTE   En4
 BYTE   W06
 BYTE   Ds4
 BYTE   W06
 BYTE   Dn4
 BYTE   W06
 BYTE   En4
 BYTE   W06
 BYTE   Ds4
 BYTE   W06
 BYTE   Dn4
 BYTE   W06
 BYTE   Cs4
 BYTE   W06
 BYTE   Cn4
 BYTE   W06
 BYTE   Bn3
 BYTE   W06
 BYTE   Cn4
 BYTE   W06
 BYTE   Cs4
 BYTE   W06
 BYTE   En4
 BYTE   W06
 BYTE   Ds4
 BYTE   W06
 BYTE   Dn4
 BYTE   W05
// 044   ----------------------------------------
 BYTE   W01
 BYTE   En4
 BYTE   W06
 BYTE   Ds4
 BYTE   W06
 BYTE   Dn4
 BYTE   W06
 BYTE   En4
 BYTE   W06
 BYTE   Ds4
 BYTE   W06
 BYTE   Dn4
 BYTE   W06
 BYTE   Cs4
 BYTE   W06
 BYTE   Cn4
 BYTE   W06
 BYTE   Bn3
 BYTE   W06
 BYTE   Cn4
 BYTE   W06
 BYTE   Cs4  v127
 BYTE   W06
 BYTE   Fs4
 BYTE   W06
 BYTE   Fn4
 BYTE   W06
 BYTE   En4
 BYTE   W06
 BYTE   Fs4
 BYTE   W06
 BYTE   Fn4
 BYTE   W05
// 045   ----------------------------------------
 BYTE   W01
 BYTE   En4
 BYTE   W06
 BYTE   Fs4
 BYTE   W06
 BYTE   Fn4
 BYTE   W06
 BYTE   En4
 BYTE   W06
 BYTE   Ds4
 BYTE   W06
 BYTE   Dn4
 BYTE   W06
 BYTE   Cs4
 BYTE   W06
 BYTE   Dn4
 BYTE   W06
 BYTE   Ds4
 BYTE   W06
 BYTE   Fs4
 BYTE   W06
 BYTE   Fn4
 BYTE   W06
 BYTE   En4
 BYTE   W06
 BYTE   Fs4
 BYTE   W06
 BYTE   Fn4
 BYTE   W06
 BYTE   En4
 BYTE   W06
 BYTE   Fs4
 BYTE   W05
// 046   ----------------------------------------
 BYTE   W01
 BYTE   Fn4
 BYTE   W06
 BYTE   En4
 BYTE   W06
 BYTE   Ds4
 BYTE   W06
 BYTE   Dn4
 BYTE   W06
 BYTE   Cs4
 BYTE   W06
 BYTE   Dn4
 BYTE   W06
 BYTE   Ds4
 BYTE   W06
 BYTE   Fs4
 BYTE   W06
 BYTE   Fn4
 BYTE   W06
 BYTE   En4
 BYTE   W06
 BYTE   Fs4
 BYTE   W06
 BYTE   Fn4
 BYTE   W06
 BYTE   En4
 BYTE   W06
 BYTE   Fs4
 BYTE   W06
 BYTE   Fn4
 BYTE   W06
 BYTE   En4
 BYTE   W05
// 047   ----------------------------------------
 BYTE   W01
 BYTE   Ds4
 BYTE   W06
 BYTE   Dn4
 BYTE   W06
 BYTE   Cs4
 BYTE   W06
 BYTE   Dn4
 BYTE   W06
 BYTE   Ds4
 BYTE   W06
 BYTE   Fs4
 BYTE   W06
 BYTE   Fn4
 BYTE   W06
 BYTE   En4
 BYTE   W06
 BYTE   Fs4
 BYTE   W06
 BYTE   Fn4
 BYTE   W06
 BYTE   En4
 BYTE   W06
 BYTE   Fs4
 BYTE   W06
 BYTE   Fn4
 BYTE   W06
 BYTE   En4
 BYTE   W06
 BYTE   Ds4
 BYTE   W06
 BYTE   Dn4
 BYTE   W05
// 048   ----------------------------------------
 BYTE   W01
 BYTE   Cs4
 BYTE   W06
 BYTE   Dn4
 BYTE   W88
 BYTE   W01
// 049   ----------------------------------------
 BYTE   W96
// 050   ----------------------------------------
 BYTE   W96
// 051   ----------------------------------------
 BYTE   W96
// 052   ----------------------------------------
 BYTE   W96
// 053   ----------------------------------------
 BYTE   W96
// 054   ----------------------------------------
 BYTE   W96
// 055   ----------------------------------------
 BYTE   W96
// 056   ----------------------------------------
 BYTE   W96
// 057   ----------------------------------------
 BYTE   W96
// 058   ----------------------------------------
 BYTE   W96
// 059   ----------------------------------------
 BYTE   W96
// 060   ----------------------------------------
 BYTE   W96
// 061   ----------------------------------------
 BYTE   W96
// 062   ----------------------------------------
 BYTE   W11
 BYTE   GoTo
  POIN2 Label_9_01278463
 BYTE   FINE

//**************** Track 11 (Midi-Chn.10) ****************//

song010B_011:
// 000   ----------------------------------------
 BYTE   KEYSH   song010B_key+0
 BYTE   VOICE   81
 BYTE   VOL   11*song010B_mvl/mxv
 BYTE   PAN   c_v+63
 BYTE   BEND   c_v-1
 BYTE   W96
// 001   ----------------------------------------
Label_10_0127866C:
 BYTE   W96
// 002   ----------------------------------------
 BYTE   W96
// 003   ----------------------------------------
 BYTE   W96
// 004   ----------------------------------------
 BYTE   W96
// 005   ----------------------------------------
 BYTE   W96
// 006   ----------------------------------------
 BYTE   W96
// 007   ----------------------------------------
 BYTE   W96
// 008   ----------------------------------------
 BYTE   W96
// 009   ----------------------------------------
 BYTE   W96
// 010   ----------------------------------------
 BYTE   W96
// 011   ----------------------------------------
 BYTE   W96
// 012   ----------------------------------------
 BYTE   W96
// 013   ----------------------------------------
 BYTE   W96
// 014   ----------------------------------------
 BYTE   W96
// 015   ----------------------------------------
 BYTE   W96
// 016   ----------------------------------------
 BYTE   W96
// 017   ----------------------------------------
 BYTE   W96
// 018   ----------------------------------------
 BYTE   W96
// 019   ----------------------------------------
 BYTE   W96
// 020   ----------------------------------------
 BYTE   W96
// 021   ----------------------------------------
 BYTE   W96
// 022   ----------------------------------------
 BYTE   W96
// 023   ----------------------------------------
 BYTE   W96
// 024   ----------------------------------------
 BYTE   W96
// 025   ----------------------------------------
 BYTE   W48
 BYTE   N05  As3  v127
 BYTE   W06
 BYTE   An3
 BYTE   W06
 BYTE   As3
 BYTE   W06
 BYTE   Cn4
 BYTE   W06
 BYTE   Dn4
 BYTE   W06
 BYTE   Gn3
 BYTE   W06
 BYTE   An3
 BYTE   W06
 BYTE   As3
 BYTE   W06
// 026   ----------------------------------------
 BYTE   Cn4
 BYTE   W06
 BYTE   Dn4
 BYTE   W06
 BYTE   Gn4
 BYTE   W06
 BYTE   Fs4
 BYTE   W06
 BYTE   Gn4
 BYTE   W06
 BYTE   An4
 BYTE   W06
 BYTE   As4
 BYTE   W06
 BYTE   An4
 BYTE   W06
 BYTE   Gn4
 BYTE   W06
 BYTE   Dn4
 BYTE   W06
 BYTE   Dn5
 BYTE   W06
 BYTE   Cs5
 BYTE   W06
 BYTE   As4
 BYTE   W06
 BYTE   Gn4
 BYTE   W06
 BYTE   Cn5
 BYTE   W06
 BYTE   As4
 BYTE   W06
// 027   ----------------------------------------
 BYTE   An4
 BYTE   W06
 BYTE   Gn4
 BYTE   W06
 BYTE   Fs4
 BYTE   W06
 BYTE   Gn4
 BYTE   W06
 BYTE   Fn4
 BYTE   W06
 BYTE   Ds4
 BYTE   W06
 BYTE   Dn4
 BYTE   W06
 BYTE   Cn4
 BYTE   W06
 BYTE   Dn4
 BYTE   W06
 BYTE   As3
 BYTE   W06
 BYTE   An3
 BYTE   W06
 BYTE   Gn3
 BYTE   W06
 BYTE   An3
 BYTE   W06
 BYTE   As3
 BYTE   W06
 BYTE   Cn4
 BYTE   W06
 BYTE   Dn4
 BYTE   W06
// 028   ----------------------------------------
 BYTE   Fn4
 BYTE   W06
 BYTE   Fs4
 BYTE   W06
 BYTE   Gn4
 BYTE   W06
 BYTE   Gs4
 BYTE   W06
 BYTE   An4
 BYTE   W06
 BYTE   As4
 BYTE   W06
 BYTE   Bn4
 BYTE   W06
 BYTE   Ds4
 BYTE   W06
 BYTE   Gn4
 BYTE   W06
 BYTE   Fs4
 BYTE   W06
 BYTE   Fn4
 BYTE   W06
 BYTE   En4
 BYTE   W06
 BYTE   Ds4
 BYTE   W06
 BYTE   Dn4
 BYTE   W06
 BYTE   Cs4
 BYTE   W06
 BYTE   Cn4
 BYTE   W06
// 029   ----------------------------------------
 BYTE   As3
 BYTE   W06
 BYTE   An3
 BYTE   W06
 BYTE   As3
 BYTE   W06
 BYTE   Cn4
 BYTE   W06
 BYTE   Dn4
 BYTE   W06
 BYTE   Gn3
 BYTE   W06
 BYTE   An3
 BYTE   W06
 BYTE   As3
 BYTE   W06
 BYTE   Cn4
 BYTE   W06
 BYTE   Dn4
 BYTE   W06
 BYTE   Gn4
 BYTE   W06
 BYTE   Fs4
 BYTE   W06
 BYTE   Gn4
 BYTE   W06
 BYTE   An4
 BYTE   W06
 BYTE   As4
 BYTE   W06
 BYTE   An4
 BYTE   W06
// 030   ----------------------------------------
 BYTE   Gn4
 BYTE   W06
 BYTE   Dn4
 BYTE   W06
 BYTE   Dn5
 BYTE   W06
 BYTE   Cs5
 BYTE   W06
 BYTE   As4
 BYTE   W06
 BYTE   Gn4
 BYTE   W06
 BYTE   Cn5
 BYTE   W06
 BYTE   As4
 BYTE   W06
 BYTE   An4
 BYTE   W06
 BYTE   Gn4
 BYTE   W06
 BYTE   Fs4
 BYTE   W06
 BYTE   Gn4
 BYTE   W06
 BYTE   Fn4
 BYTE   W06
 BYTE   Ds4
 BYTE   W06
 BYTE   Dn4
 BYTE   W06
 BYTE   Cn4
 BYTE   W06
// 031   ----------------------------------------
 BYTE   Dn4
 BYTE   W06
 BYTE   As3
 BYTE   W06
 BYTE   An3
 BYTE   W06
 BYTE   Gn3
 BYTE   W06
 BYTE   An3
 BYTE   W06
 BYTE   As3
 BYTE   W06
 BYTE   Cn4
 BYTE   W06
 BYTE   Dn4
 BYTE   W06
 BYTE   Fn4
 BYTE   W06
 BYTE   Fs4
 BYTE   W06
 BYTE   Gn4
 BYTE   W06
 BYTE   Gs4
 BYTE   W06
 BYTE   An4
 BYTE   W06
 BYTE   As4
 BYTE   W06
 BYTE   Bn4
 BYTE   W06
 BYTE   Ds4
 BYTE   W06
// 032   ----------------------------------------
 BYTE   Gn4
 BYTE   W06
 BYTE   Fs4
 BYTE   W06
 BYTE   Fn4
 BYTE   W06
 BYTE   En4
 BYTE   W06
 BYTE   Ds4
 BYTE   W06
 BYTE   Dn4
 BYTE   W06
 BYTE   Cs4
 BYTE   W60
// 033   ----------------------------------------
 BYTE   W96
// 034   ----------------------------------------
 BYTE   W96
// 035   ----------------------------------------
 BYTE   W96
// 036   ----------------------------------------
 BYTE   W96
// 037   ----------------------------------------
 BYTE   W96
// 038   ----------------------------------------
 BYTE   W96
// 039   ----------------------------------------
 BYTE   W96
// 040   ----------------------------------------
 BYTE   W96
// 041   ----------------------------------------
 BYTE   W24
 BYTE   En4  v120
 BYTE   W06
 BYTE   Ds4
 BYTE   W06
 BYTE   Dn4
 BYTE   W06
 BYTE   En4
 BYTE   W06
 BYTE   Ds4
 BYTE   W06
 BYTE   Dn4
 BYTE   W06
 BYTE   En4
 BYTE   W06
 BYTE   Ds4
 BYTE   W06
 BYTE   Dn4
 BYTE   W06
 BYTE   Cs4
 BYTE   W06
 BYTE   Cn4
 BYTE   W06
 BYTE   Bn3
 BYTE   W06
// 042   ----------------------------------------
 BYTE   Cn4
 BYTE   W06
 BYTE   Cs4
 BYTE   W06
 BYTE   En4
 BYTE   W06
 BYTE   Ds4
 BYTE   W06
 BYTE   Dn4
 BYTE   W06
 BYTE   En4
 BYTE   W06
 BYTE   Ds4
 BYTE   W06
 BYTE   Dn4
 BYTE   W06
 BYTE   En4
 BYTE   W06
 BYTE   Ds4
 BYTE   W06
 BYTE   Dn4
 BYTE   W06
 BYTE   Cs4
 BYTE   W06
 BYTE   Cn4
 BYTE   W06
 BYTE   Bn3
 BYTE   W06
 BYTE   Cn4
 BYTE   W06
 BYTE   Cs4
 BYTE   W06
// 043   ----------------------------------------
 BYTE   En4
 BYTE   W06
 BYTE   Ds4
 BYTE   W06
 BYTE   Dn4
 BYTE   W06
 BYTE   En4
 BYTE   W06
 BYTE   Ds4
 BYTE   W06
 BYTE   Dn4
 BYTE   W06
 BYTE   En4
 BYTE   W06
 BYTE   Ds4
 BYTE   W06
 BYTE   Dn4
 BYTE   W06
 BYTE   Cs4
 BYTE   W06
 BYTE   Cn4
 BYTE   W06
 BYTE   Bn3
 BYTE   W06
 BYTE   Cn4
 BYTE   W06
 BYTE   Cs4
 BYTE   W06
 BYTE   En4
 BYTE   W06
 BYTE   Ds4
 BYTE   W06
// 044   ----------------------------------------
 BYTE   Dn4
 BYTE   W06
 BYTE   En4
 BYTE   W06
 BYTE   Ds4
 BYTE   W06
 BYTE   Dn4
 BYTE   W06
 BYTE   En4
 BYTE   W06
 BYTE   Ds4
 BYTE   W06
 BYTE   Dn4
 BYTE   W06
 BYTE   Cs4
 BYTE   W06
 BYTE   Cn4
 BYTE   W06
 BYTE   Bn3
 BYTE   W06
 BYTE   Cn4
 BYTE   W06
 BYTE   Cs4  v127
 BYTE   W06
 BYTE   Fs4
 BYTE   W06
 BYTE   Fn4
 BYTE   W06
 BYTE   En4
 BYTE   W06
 BYTE   Fs4
 BYTE   W06
// 045   ----------------------------------------
 BYTE   Fn4
 BYTE   W06
 BYTE   En4
 BYTE   W06
 BYTE   Fs4
 BYTE   W06
 BYTE   Fn4
 BYTE   W06
 BYTE   En4
 BYTE   W06
 BYTE   Ds4
 BYTE   W06
 BYTE   Dn4
 BYTE   W06
 BYTE   Cs4
 BYTE   W06
 BYTE   Dn4
 BYTE   W06
 BYTE   Ds4
 BYTE   W06
 BYTE   Fs4
 BYTE   W06
 BYTE   Fn4
 BYTE   W06
 BYTE   En4
 BYTE   W06
 BYTE   Fs4
 BYTE   W06
 BYTE   Fn4
 BYTE   W06
 BYTE   En4
 BYTE   W06
// 046   ----------------------------------------
 BYTE   Fs4
 BYTE   W06
 BYTE   Fn4
 BYTE   W06
 BYTE   En4
 BYTE   W06
 BYTE   Ds4
 BYTE   W06
 BYTE   Dn4
 BYTE   W06
 BYTE   Cs4
 BYTE   W06
 BYTE   Dn4
 BYTE   W06
 BYTE   Ds4
 BYTE   W06
 BYTE   Fs4
 BYTE   W06
 BYTE   Fn4
 BYTE   W06
 BYTE   En4
 BYTE   W06
 BYTE   Fs4
 BYTE   W06
 BYTE   Fn4
 BYTE   W06
 BYTE   En4
 BYTE   W06
 BYTE   Fs4
 BYTE   W06
 BYTE   Fn4
 BYTE   W06
// 047   ----------------------------------------
 BYTE   En4
 BYTE   W06
 BYTE   Ds4
 BYTE   W06
 BYTE   Dn4
 BYTE   W06
 BYTE   Cs4
 BYTE   W06
 BYTE   Dn4
 BYTE   W06
 BYTE   Ds4
 BYTE   W06
 BYTE   Fs4
 BYTE   W06
 BYTE   Fn4
 BYTE   W06
 BYTE   En4
 BYTE   W06
 BYTE   Fs4
 BYTE   W06
 BYTE   Fn4
 BYTE   W06
 BYTE   En4
 BYTE   W06
 BYTE   Fs4
 BYTE   W06
 BYTE   Fn4
 BYTE   W06
 BYTE   En4
 BYTE   W06
 BYTE   Ds4
 BYTE   W06
// 048   ----------------------------------------
 BYTE   Dn4
 BYTE   W06
 BYTE   Cs4
 BYTE   W06
 BYTE   Dn4
 BYTE   W84
// 049   ----------------------------------------
 BYTE   W96
// 050   ----------------------------------------
 BYTE   W96
// 051   ----------------------------------------
 BYTE   W96
// 052   ----------------------------------------
 BYTE   W96
// 053   ----------------------------------------
 BYTE   W96
// 054   ----------------------------------------
 BYTE   W96
// 055   ----------------------------------------
 BYTE   W96
// 056   ----------------------------------------
 BYTE   W96
// 057   ----------------------------------------
 BYTE   W96
// 058   ----------------------------------------
 BYTE   W96
// 059   ----------------------------------------
 BYTE   W96
// 060   ----------------------------------------
 BYTE   W96
// 061   ----------------------------------------
 BYTE   W96
// 062   ----------------------------------------
 BYTE   W11
 BYTE   GoTo
  POIN2 Label_10_0127866C
 BYTE   FINE

//**************** Track 12 (Midi-Chn.11) ****************//

song010B_012:
// 000   ----------------------------------------
 BYTE   KEYSH   song010B_key+0
 BYTE   VOICE   30
 BYTE   PAN   c_v+6
 BYTE   VOL   44*song010B_mvl/mxv
 BYTE   BEND   c_v+0
 BYTE   N16  En3  v127
 BYTE   W06
 BYTE   Fn3
 BYTE   W06
 BYTE   Fs3
 BYTE   W06
 BYTE   Bn3
 BYTE   W06
 BYTE   Cn4
 BYTE   W06
 BYTE   As3
 BYTE   W06
 BYTE   Cs4
 BYTE   W06
 BYTE   Dn4
 BYTE   W06
 BYTE   N11  An3
 BYTE   W06
 BYTE   Fn4
 BYTE   W06
 BYTE   En4
 BYTE   W06
 BYTE   Ds4
 BYTE   W06
 BYTE   Cn4
 BYTE   W06
 BYTE   An4
 BYTE   W06
 BYTE   VOL   26*song010B_mvl/mxv
 BYTE   PAN   c_v+4
 BYTE   W01
 BYTE   N68  Fs3
 BYTE   N68  Cn4
 BYTE   W11
// 001   ----------------------------------------
Label_11_01278895:
 BYTE   W96
// 002   ----------------------------------------
 BYTE   W96
// 003   ----------------------------------------
 BYTE   W96
// 004   ----------------------------------------
 BYTE   W96
// 005   ----------------------------------------
 BYTE   W96
// 006   ----------------------------------------
 BYTE   W96
// 007   ----------------------------------------
 BYTE   W96
// 008   ----------------------------------------
 BYTE   W96
// 009   ----------------------------------------
 BYTE   W96
// 010   ----------------------------------------
 BYTE   W96
// 011   ----------------------------------------
 BYTE   W96
// 012   ----------------------------------------
 BYTE   W96
// 013   ----------------------------------------
 BYTE   W96
// 014   ----------------------------------------
 BYTE   W96
// 015   ----------------------------------------
 BYTE   W96
// 016   ----------------------------------------
 BYTE   W96
// 017   ----------------------------------------
 BYTE   W96
// 018   ----------------------------------------
 BYTE   W96
// 019   ----------------------------------------
 BYTE   W96
// 020   ----------------------------------------
 BYTE   W96
// 021   ----------------------------------------
 BYTE   W96
// 022   ----------------------------------------
 BYTE   W96
// 023   ----------------------------------------
 BYTE   W96
// 024   ----------------------------------------
 BYTE   W96
// 025   ----------------------------------------
 BYTE   W96
// 026   ----------------------------------------
 BYTE   W96
// 027   ----------------------------------------
 BYTE   W96
// 028   ----------------------------------------
 BYTE   W96
// 029   ----------------------------------------
 BYTE   W96
// 030   ----------------------------------------
 BYTE   W96
// 031   ----------------------------------------
 BYTE   W96
// 032   ----------------------------------------
 BYTE   W96
// 033   ----------------------------------------
 BYTE   W96
// 034   ----------------------------------------
 BYTE   W96
// 035   ----------------------------------------
 BYTE   W96
// 036   ----------------------------------------
 BYTE   W96
// 037   ----------------------------------------
 BYTE   W96
// 038   ----------------------------------------
 BYTE   W96
// 039   ----------------------------------------
 BYTE   W96
// 040   ----------------------------------------
 BYTE   W96
// 041   ----------------------------------------
 BYTE   W96
// 042   ----------------------------------------
 BYTE   W96
// 043   ----------------------------------------
 BYTE   W96
// 044   ----------------------------------------
 BYTE   W96
// 045   ----------------------------------------
 BYTE   W96
// 046   ----------------------------------------
 BYTE   W96
// 047   ----------------------------------------
 BYTE   W96
// 048   ----------------------------------------
 BYTE   W96
// 049   ----------------------------------------
 BYTE   W96
// 050   ----------------------------------------
 BYTE   W96
// 051   ----------------------------------------
 BYTE   W96
// 052   ----------------------------------------
 BYTE   W96
// 053   ----------------------------------------
 BYTE   W96
// 054   ----------------------------------------
 BYTE   W96
// 055   ----------------------------------------
 BYTE   W96
// 056   ----------------------------------------
 BYTE   W96
// 057   ----------------------------------------
 BYTE   W96
// 058   ----------------------------------------
 BYTE   W96
// 059   ----------------------------------------
 BYTE   W96
// 060   ----------------------------------------
 BYTE   W96
// 061   ----------------------------------------
 BYTE   W96
// 062   ----------------------------------------
 BYTE   W11
 BYTE   GoTo
  POIN2 Label_11_01278895
 BYTE   FINE

//******************************************************//
	ALIGN 4

song010B:
	BYTE	12	// NumTrks
	BYTE	0	// NumBlks
	BYTE	song010B_pri	// Priority
	BYTE	song010B_rev	// Reverb.
    
	POIN2	song010B_grp
    
	POIN2	song010B_001
	POIN2	song010B_002
	POIN2	song010B_003
	POIN2	song010B_004
	POIN2	song010B_005
	POIN2	song010B_006
	POIN2	song010B_007
	POIN2	song010B_008
	POIN2	song010B_009
	POIN2	song010B_010
	POIN2	song010B_011
	POIN2	song010B_012

	
