//Event file generated from Sappy .s format.
	#include "MPlayDef.event"

	#define	song19_grp  voicegroup000
	#define	song19_pri  0
	#define	song19_rev  0
	#define	song19_mvl  127
	#define	song19_key  0
	#define	song19_tbs  1
	#define	song19_exg  0
	#define	song19_cmp  1

	// .rodata
	//	song19
	ALIGN 4


//**************** Track 1 (Midi-Chn.0) ****************//

song19_001:
//  #01 //000   ----------------------------------------
 BYTE   KEYSH   song19_key+0
Label_0184DA9E:
 BYTE   TEMPO   142*song19_tbs/2
 BYTE   VOICE   30
 BYTE   VOL   30*song19_mvl/mxv
 BYTE   PAN   c_v+0
 BYTE   BEND   c_v+0
 BYTE   W02
 BYTE   N09  En3  v108
 BYTE   W12
 BYTE   Gn3
 BYTE   W12
 BYTE   Bn3
 BYTE   W12
 BYTE   N04  An3
 BYTE   W12
 BYTE   Fs3
 BYTE   W06
 BYTE   N09  Dn3
 BYTE   W12
 BYTE   En3
 BYTE   W12
 BYTE   Gn3
 BYTE   W12
 BYTE   Bn3
 BYTE   W04
//  #01 //001   ----------------------------------------
 BYTE   W08
 BYTE   N04  Cs4
 BYTE   W12
 BYTE   Dn4
 BYTE   W06
 BYTE   N09  En4
 BYTE   W12
 BYTE   En3
 BYTE   W12
 BYTE   Gn3
 BYTE   W12
 BYTE   Bn3
 BYTE   W12
 BYTE   N04  An3
 BYTE   W12
 BYTE   Fs3
 BYTE   W06
 BYTE   Dn3
 BYTE   W04
//  #01 //002   ----------------------------------------
 BYTE   W02
 BYTE   Fs3
 BYTE   W06
 BYTE   An3
 BYTE   W06
 BYTE   Dn3
 BYTE   W06
 BYTE   Fs3
 BYTE   W06
 BYTE   An3
 BYTE   W06
 BYTE   Dn4
 BYTE   W05
 BYTE   BEND   c_v-11
 BYTE   W01
 BYTE   N16  Fn4  v127
 BYTE   W01
 BYTE   BEND   c_v-7
 BYTE   W02
 BYTE   BEND   c_v-4
 BYTE   W01
 BYTE   BEND   c_v-3
 BYTE   W02
 BYTE   BEND   c_v-2
 BYTE   W01
 BYTE   BEND   c_v-1
 BYTE   W02
 BYTE   BEND   c_v-1
 BYTE   W01
 BYTE   BEND   c_v-1
 BYTE   W02
 BYTE   BEND   c_v-1
 BYTE   W01
 BYTE   BEND   c_v+0
 BYTE   W05
 BYTE   N16  Dn4
 BYTE   W18
 BYTE   N09  Fn4
 BYTE   W12
 BYTE   N16  En4
 BYTE   W10
//  #01 //003   ----------------------------------------
 BYTE   W08
 BYTE   Fn4
 BYTE   W18
 BYTE   N09  Gn4
 BYTE   W11
 BYTE   BEND   c_v-11
 BYTE   W01
 BYTE   N44  An4
 BYTE   W01
 BYTE   BEND   c_v-9
 BYTE   W02
 BYTE   BEND   c_v-8
 BYTE   W01
 BYTE   BEND   c_v-6
 BYTE   W02
 BYTE   BEND   c_v-5
 BYTE   W01
 BYTE   BEND   c_v-5
 BYTE   W02
 BYTE   BEND   c_v-4
 BYTE   W01
 BYTE   BEND   c_v-3
 BYTE   W02
 BYTE   BEND   c_v-3
 BYTE   W01
 BYTE   BEND   c_v-3
 BYTE   W02
 BYTE   BEND   c_v-2
 BYTE   W01
 BYTE   BEND   c_v-2
 BYTE   W02
 BYTE   BEND   c_v-2
 BYTE   W01
 BYTE   BEND   c_v-1
 BYTE   W02
 BYTE   BEND   c_v-1
 BYTE   W01
 BYTE   BEND   c_v-1
 BYTE   W02
 BYTE   BEND   c_v-1
 BYTE   W03
 BYTE   BEND   c_v-1
 BYTE   W03
 BYTE   BEND   c_v-1
 BYTE   W06
 BYTE   BEND   c_v+0
 BYTE   W12
 BYTE   BEND   c_v+0
 BYTE   N44  Gs4
 BYTE   W10
//  #01 //004   ----------------------------------------
 BYTE   W02
 BYTE   BEND   c_v-1
 BYTE   W06
 BYTE   BEND   c_v-1
 BYTE   W04
 BYTE   BEND   c_v-1
 BYTE   W02
 BYTE   BEND   c_v-1
 BYTE   W03
 BYTE   BEND   c_v-1
 BYTE   W01
 BYTE   BEND   c_v-1
 BYTE   W02
 BYTE   BEND   c_v-2
 BYTE   W01
 BYTE   BEND   c_v-2
 BYTE   W02
 BYTE   BEND   c_v-2
 BYTE   W01
 BYTE   BEND   c_v-3
 BYTE   W02
 BYTE   BEND   c_v-3
 BYTE   W01
 BYTE   BEND   c_v-4
 BYTE   W02
 BYTE   BEND   c_v-4
 BYTE   W01
 BYTE   BEND   c_v-5
 BYTE   W02
 BYTE   BEND   c_v-6
 BYTE   W01
 BYTE   BEND   c_v-7
 BYTE   W02
 BYTE   BEND   c_v-8
 BYTE   W01
 BYTE   BEND   c_v-9
 BYTE   W01
 BYTE   BEND   c_v-11
 BYTE   W01
 BYTE   N09  En3  v108
 BYTE   W01
 BYTE   BEND   c_v-5
 BYTE   W01
 BYTE   BEND   c_v-3
 BYTE   W02
 BYTE   BEND   c_v-2
 BYTE   W02
 BYTE   BEND   c_v-1
 BYTE   W01
 BYTE   BEND   c_v-1
 BYTE   W02
 BYTE   BEND   c_v+0
 BYTE   W03
 BYTE   N09  Gn3
 BYTE   W12
 BYTE   Bn3
 BYTE   W12
 BYTE   N04  An3
 BYTE   W12
 BYTE   Fs3
 BYTE   W06
 BYTE   N09  Dn3
 BYTE   W04
//  #01 //005   ----------------------------------------
 BYTE   W08
 BYTE   En3
 BYTE   W12
 BYTE   Gn3
 BYTE   W12
 BYTE   Bn3
 BYTE   W12
 BYTE   N04  Cs4
 BYTE   W12
 BYTE   Dn4
 BYTE   W06
 BYTE   N09  En4
 BYTE   W12
 BYTE   En3
 BYTE   W12
 BYTE   Gn3
 BYTE   W10
//  #01 //006   ----------------------------------------
 BYTE   W02
 BYTE   Bn3
 BYTE   W12
 BYTE   N04  An3
 BYTE   W12
 BYTE   Fs3
 BYTE   W06
 BYTE   Dn3
 BYTE   W06
 BYTE   Fs3
 BYTE   W06
 BYTE   An3
 BYTE   W06
 BYTE   Dn3
 BYTE   W06
 BYTE   Fs3
 BYTE   W06
 BYTE   An3
 BYTE   W06
 BYTE   Dn4
 BYTE   W05
 BYTE   BEND   c_v-11
 BYTE   W01
 BYTE   N16  Fn4  v127
 BYTE   W01
 BYTE   BEND   c_v-7
 BYTE   W02
 BYTE   BEND   c_v-4
 BYTE   W01
 BYTE   BEND   c_v-3
 BYTE   W02
 BYTE   BEND   c_v-2
 BYTE   W01
 BYTE   BEND   c_v-1
 BYTE   W02
 BYTE   BEND   c_v-1
 BYTE   W01
 BYTE   BEND   c_v-1
 BYTE   W02
 BYTE   BEND   c_v-1
 BYTE   W01
 BYTE   BEND   c_v+0
 BYTE   W05
 BYTE   N16  Dn4
 BYTE   W04
//  #01 //007   ----------------------------------------
 BYTE   W14
 BYTE   N09  Fn4
 BYTE   W12
 BYTE   N16  En4
 BYTE   W18
 BYTE   Fn4
 BYTE   W18
 BYTE   N09  Gn4
 BYTE   W12
 BYTE   N16  Gs4
 BYTE   W18
 BYTE   En4
 BYTE   W04
//  #01 //008   ----------------------------------------
 BYTE   W14
 BYTE   N09  Gs4
 BYTE   W12
 BYTE   N16  An4
 BYTE   W18
 BYTE   Bn4
 BYTE   W18
 BYTE   N09  Cn5
 BYTE   W12
 BYTE   N16  Dn5
 BYTE   W18
 BYTE   Fn4
 BYTE   W04
//  #01 //009   ----------------------------------------
 BYTE   W14
 BYTE   N09  Dn5
 BYTE   W12
 BYTE   N16  Cn5
 BYTE   W18
 BYTE   Bn4
 BYTE   W18
 BYTE   N09  Gn4
 BYTE   W11
 BYTE   BEND   c_v-11
 BYTE   W01
 BYTE   N44  An4
 BYTE   W01
 BYTE   BEND   c_v-9
 BYTE   W02
 BYTE   BEND   c_v-8
 BYTE   W01
 BYTE   BEND   c_v-6
 BYTE   W02
 BYTE   BEND   c_v-5
 BYTE   W01
 BYTE   BEND   c_v-5
 BYTE   W02
 BYTE   BEND   c_v-4
 BYTE   W01
 BYTE   BEND   c_v-3
 BYTE   W02
 BYTE   BEND   c_v-3
 BYTE   W01
 BYTE   BEND   c_v-3
 BYTE   W02
 BYTE   BEND   c_v-2
 BYTE   W01
 BYTE   BEND   c_v-2
 BYTE   W02
 BYTE   BEND   c_v-2
 BYTE   W01
 BYTE   BEND   c_v-1
 BYTE   W02
 BYTE   BEND   c_v-1
 BYTE   W01
//  #01 //010   ----------------------------------------
 BYTE   BEND   c_v-1
 BYTE   W02
 BYTE   BEND   c_v-1
 BYTE   W03
 BYTE   BEND   c_v-1
 BYTE   W03
 BYTE   BEND   c_v-1
 BYTE   W06
 BYTE   BEND   c_v+0
 BYTE   W12
 BYTE   N44  En4
 BYTE   W48
 BYTE   N04  Fn4
 BYTE   W06
 BYTE   Gn4
 BYTE   W06
 BYTE   N32  An4
 BYTE   W10
//  #01 //011   ----------------------------------------
Label_0184DC2E:
 BYTE   W24
 BYTE   W02
 BYTE   N04  Gn4  v127
 BYTE   W06
 BYTE   An4
 BYTE   W06
 BYTE   N32  Bn4
 BYTE   W36
 BYTE   N16  Cn5
 BYTE   W18
 BYTE   Bn4
 BYTE   W04
 BYTE   PEND 
//  #01 //012   ----------------------------------------
Label_0184DC3F:
 BYTE   W14
 BYTE   N11  Cn5  v127
 BYTE   W12
 BYTE   N44  En4
 BYTE   W48
 BYTE   N04  Fn4
 BYTE   W06
 BYTE   Gn4
 BYTE   W06
 BYTE   N32  An4
 BYTE   W10
 BYTE   PEND 
//  #01 //013   ----------------------------------------
 BYTE   W24
 BYTE   W02
 BYTE   N04  Gn4
 BYTE   W06
 BYTE   An4
 BYTE   W06
 BYTE   N32  Bn4
 BYTE   W36
 BYTE   N16  Cn5
 BYTE   W18
 BYTE   Dn5
 BYTE   W04
//  #01 //014   ----------------------------------------
 BYTE   W14
 BYTE   N11  En5
 BYTE   W12
 BYTE   N44  Bn4
 BYTE   W48
 BYTE   N04  Fn4
 BYTE   W06
 BYTE   Gn4
 BYTE   W06
 BYTE   N32  An4
 BYTE   W10
//  #01 //015   ----------------------------------------
 BYTE   PATT
  POIN2 Label_0184DC2E
//  #01 //016   ----------------------------------------
 BYTE   PATT
  POIN2 Label_0184DC3F
//  #01 //017   ----------------------------------------
 BYTE   W24
 BYTE   W02
 BYTE   N16  Gn4  v127
 BYTE   W18
 BYTE   An4
 BYTE   W18
 BYTE   N11  Bn4
 BYTE   W12
 BYTE   BEND   c_v+0
 BYTE   N92  An4
 BYTE   W22
//  #01 //018   ----------------------------------------
 BYTE   W02
 BYTE   BEND   c_v-1
 BYTE   W12
 BYTE   BEND   c_v-1
 BYTE   W07
 BYTE   BEND   c_v-1
 BYTE   W05
 BYTE   BEND   c_v-1
 BYTE   W04
 BYTE   BEND   c_v-1
 BYTE   W03
 BYTE   BEND   c_v-1
 BYTE   W03
 BYTE   BEND   c_v-2
 BYTE   W02
 BYTE   BEND   c_v-2
 BYTE   W03
 BYTE   BEND   c_v-2
 BYTE   W01
 BYTE   BEND   c_v-2
 BYTE   W02
 BYTE   BEND   c_v-2
 BYTE   W01
 BYTE   BEND   c_v-2
 BYTE   W02
 BYTE   BEND   c_v-3
 BYTE   W01
 BYTE   BEND   c_v-3
 BYTE   W02
 BYTE   BEND   c_v-3
 BYTE   W01
 BYTE   BEND   c_v-3
 BYTE   W02
 BYTE   BEND   c_v-4
 BYTE   W01
 BYTE   BEND   c_v-4
 BYTE   W02
 BYTE   BEND   c_v-4
 BYTE   W01
 BYTE   BEND   c_v-4
 BYTE   W02
 BYTE   BEND   c_v-5
 BYTE   W01
 BYTE   BEND   c_v-5
 BYTE   W02
 BYTE   BEND   c_v-6
 BYTE   W01
 BYTE   BEND   c_v-6
 BYTE   W02
 BYTE   BEND   c_v-7
 BYTE   W01
 BYTE   BEND   c_v-7
 BYTE   W02
 BYTE   BEND   c_v-8
 BYTE   W01
 BYTE   BEND   c_v-8
 BYTE   W02
 BYTE   BEND   c_v-9
 BYTE   W01
 BYTE   BEND   c_v-10
 BYTE   W01
 BYTE   BEND   c_v-11
 BYTE   W01
 BYTE   BEND   c_v+0
 BYTE   N09  En3  v100
 BYTE   W12
 BYTE   Gn3
 BYTE   W10
//  #01 //019   ----------------------------------------
 BYTE   W02
 BYTE   Bn3
 BYTE   W12
 BYTE   N04  An3
 BYTE   W12
 BYTE   Fs3
 BYTE   W06
 BYTE   N09  Dn3
 BYTE   W12
 BYTE   En3
 BYTE   W12
 BYTE   Gn3
 BYTE   W12
 BYTE   Bn3
 BYTE   W12
 BYTE   N04  Cs4
 BYTE   W12
 BYTE   Dn4
 BYTE   W04
//  #01 //020   ----------------------------------------
 BYTE   W02
 BYTE   N09  En4
 BYTE   W12
 BYTE   En3
 BYTE   W12
 BYTE   Gn3
 BYTE   W12
 BYTE   Bn3
 BYTE   W12
 BYTE   N04  An3
 BYTE   W12
 BYTE   Fs3
 BYTE   W06
 BYTE   Dn3
 BYTE   W06
 BYTE   Fs3
 BYTE   W06
 BYTE   An3
 BYTE   W06
 BYTE   Dn3
 BYTE   W06
 BYTE   Fs3
 BYTE   W04
//  #01 //021   ----------------------------------------
 BYTE   W02
 BYTE   An3
 BYTE   W06
 BYTE   Dn4
 BYTE   W05
 BYTE   BEND   c_v-11
 BYTE   W01
 BYTE   N16  Fn4  v127
 BYTE   W01
 BYTE   BEND   c_v-7
 BYTE   W02
 BYTE   BEND   c_v-4
 BYTE   W01
 BYTE   BEND   c_v-3
 BYTE   W02
 BYTE   BEND   c_v-2
 BYTE   W01
 BYTE   BEND   c_v-1
 BYTE   W02
 BYTE   BEND   c_v-1
 BYTE   W01
 BYTE   BEND   c_v-1
 BYTE   W02
 BYTE   BEND   c_v-1
 BYTE   W01
 BYTE   BEND   c_v+0
 BYTE   W05
 BYTE   N16  Dn4
 BYTE   W18
 BYTE   N09  Fn4
 BYTE   W12
 BYTE   N16  En4
 BYTE   W18
 BYTE   Fn4
 BYTE   W16
//  #01 //022   ----------------------------------------
 BYTE   W02
 BYTE   N09  Gn4
 BYTE   W11
 BYTE   BEND   c_v-11
 BYTE   W01
 BYTE   N44  An4
 BYTE   W01
 BYTE   BEND   c_v-9
 BYTE   W02
 BYTE   BEND   c_v-8
 BYTE   W01
 BYTE   BEND   c_v-6
 BYTE   W02
 BYTE   BEND   c_v-5
 BYTE   W01
 BYTE   BEND   c_v-5
 BYTE   W02
 BYTE   BEND   c_v-4
 BYTE   W01
 BYTE   BEND   c_v-3
 BYTE   W02
 BYTE   BEND   c_v-3
 BYTE   W01
 BYTE   BEND   c_v-3
 BYTE   W02
 BYTE   BEND   c_v-2
 BYTE   W01
 BYTE   BEND   c_v-2
 BYTE   W02
 BYTE   BEND   c_v-2
 BYTE   W01
 BYTE   BEND   c_v-1
 BYTE   W02
 BYTE   BEND   c_v-1
 BYTE   W01
 BYTE   BEND   c_v-1
 BYTE   W02
 BYTE   BEND   c_v-1
 BYTE   W03
 BYTE   BEND   c_v-1
 BYTE   W03
 BYTE   BEND   c_v-1
 BYTE   W06
 BYTE   BEND   c_v+0
 BYTE   W12
 BYTE   BEND   c_v+0
 BYTE   N44  Gs4
 BYTE   W12
 BYTE   BEND   c_v-1
 BYTE   W06
 BYTE   BEND   c_v-1
 BYTE   W04
 BYTE   BEND   c_v-1
 BYTE   W02
 BYTE   BEND   c_v-1
 BYTE   W03
 BYTE   BEND   c_v-1
 BYTE   W01
 BYTE   BEND   c_v-1
 BYTE   W02
 BYTE   BEND   c_v-2
 BYTE   W01
 BYTE   BEND   c_v-2
 BYTE   W02
 BYTE   BEND   c_v-2
 BYTE   W01
//  #01 //023   ----------------------------------------
 BYTE   BEND   c_v-3
 BYTE   W02
 BYTE   BEND   c_v-3
 BYTE   W01
 BYTE   BEND   c_v-4
 BYTE   W02
 BYTE   BEND   c_v-4
 BYTE   W01
 BYTE   BEND   c_v-5
 BYTE   W02
 BYTE   BEND   c_v-6
 BYTE   W01
 BYTE   BEND   c_v-7
 BYTE   W02
 BYTE   BEND   c_v-8
 BYTE   W01
 BYTE   BEND   c_v-9
 BYTE   W01
 BYTE   BEND   c_v-11
 BYTE   W01
 BYTE   N09  En3  v108
 BYTE   W01
 BYTE   BEND   c_v-5
 BYTE   W01
 BYTE   BEND   c_v-3
 BYTE   W02
 BYTE   BEND   c_v-2
 BYTE   W02
 BYTE   BEND   c_v-1
 BYTE   W01
 BYTE   BEND   c_v-1
 BYTE   W02
 BYTE   BEND   c_v+0
 BYTE   W03
 BYTE   N09  Gn3
 BYTE   W12
 BYTE   Bn3
 BYTE   W12
 BYTE   N04  An3
 BYTE   W12
 BYTE   Fs3
 BYTE   W06
 BYTE   N09  Dn3
 BYTE   W12
 BYTE   En3
 BYTE   W12
 BYTE   Gn3
 BYTE   W04
//  #01 //024   ----------------------------------------
 BYTE   W08
 BYTE   Bn3
 BYTE   W12
 BYTE   N04  Cs4
 BYTE   W12
 BYTE   Dn4
 BYTE   W06
 BYTE   N09  En4
 BYTE   W12
 BYTE   Fs3
 BYTE   W12
 BYTE   An3
 BYTE   W12
 BYTE   Cs4
 BYTE   W12
 BYTE   N04  Bn3
 BYTE   W10
//  #01 //025   ----------------------------------------
 BYTE   W02
 BYTE   Gs3
 BYTE   W06
 BYTE   N09  En3
 BYTE   W12
 BYTE   Fs3
 BYTE   W12
 BYTE   An3
 BYTE   W12
 BYTE   Cs4
 BYTE   W12
 BYTE   N04  Ds4
 BYTE   W12
 BYTE   En4
 BYTE   W06
 BYTE   N09  Fs4
 BYTE   W12
 BYTE   Gs3
 BYTE   W10
//  #01 //026   ----------------------------------------
 BYTE   W02
 BYTE   Bn3
 BYTE   W12
 BYTE   Ds4
 BYTE   W12
 BYTE   N04  Cs4
 BYTE   W12
 BYTE   As3
 BYTE   W06
 BYTE   N09  Fs3
 BYTE   W12
 BYTE   Gs3
 BYTE   W12
 BYTE   Bn3
 BYTE   W12
 BYTE   Ds4
 BYTE   W12
 BYTE   N04  Fn4
 BYTE   W04
//  #01 //027   ----------------------------------------
 BYTE   W08
 BYTE   Fs4
 BYTE   W06
 BYTE   N09  Gs4
 BYTE   W12
 BYTE   N16  En4  v127
 BYTE   W18
 BYTE   Cn4
 BYTE   W18
 BYTE   N09  En4
 BYTE   W12
 BYTE   N16  Dn4
 BYTE   W18
 BYTE   En4
 BYTE   W04
//  #01 //028   ----------------------------------------
 BYTE   W14
 BYTE   N09  Cn4
 BYTE   W12
 BYTE   N16  Fn4
 BYTE   W18
 BYTE   En4
 BYTE   W18
 BYTE   N09  Dn4
 BYTE   W12
 BYTE   N16  Cn4
 BYTE   W18
 BYTE   An3
 BYTE   W04
//  #01 //029   ----------------------------------------
 BYTE   W14
 BYTE   N09  Cn4
 BYTE   W12
 BYTE   N16  Dn4
 BYTE   W18
 BYTE   Bn3
 BYTE   W18
 BYTE   N07  Gs3
 BYTE   W12
 BYTE   N16  Fn4
 BYTE   W18
 BYTE   Bn3
 BYTE   W04
//  #01 //030   ----------------------------------------
 BYTE   W14
 BYTE   N07  Dn4
 BYTE   W12
 BYTE   N16  Cn4
 BYTE   W18
 BYTE   An3
 BYTE   W18
 BYTE   N07  Ds4
 BYTE   W12
 BYTE   N16  Cn4
 BYTE   W18
 BYTE   Fs4
 BYTE   W04
//  #01 //031   ----------------------------------------
 BYTE   W14
 BYTE   N07  Ds4
 BYTE   W80
 BYTE   W02
//  #01 //032   ----------------------------------------
 BYTE   W96
//  #01 //033   ----------------------------------------
 BYTE   W96
//  #01 //034   ----------------------------------------
 BYTE   W96
//  #01 //035   ----------------------------------------
 BYTE   W96
//  #01 //036   ----------------------------------------
 BYTE   W96
//  #01 //037   ----------------------------------------
 BYTE   W96
//  #01 //038   ----------------------------------------
 BYTE   W14
 BYTE   N16  En4
 BYTE   W18
 BYTE   Cn4
 BYTE   W18
 BYTE   N09  En4
 BYTE   W12
 BYTE   N16  Dn4
 BYTE   W18
 BYTE   En4
 BYTE   W16
//  #01 //039   ----------------------------------------
 BYTE   W02
 BYTE   N09  Cn4
 BYTE   W12
 BYTE   N16  Fn4
 BYTE   W18
 BYTE   En4
 BYTE   W18
 BYTE   N09  Dn4
 BYTE   W12
 BYTE   N16  Cn4
 BYTE   W18
 BYTE   An3
 BYTE   W16
//  #01 //040   ----------------------------------------
 BYTE   W02
 BYTE   N09  Cn4
 BYTE   W12
 BYTE   N16  Dn4
 BYTE   W18
 BYTE   Bn3
 BYTE   W18
 BYTE   N07  Gs3
 BYTE   W12
 BYTE   N16  Fn4
 BYTE   W18
 BYTE   Bn3
 BYTE   W16
//  #01 //041   ----------------------------------------
 BYTE   W02
 BYTE   N07  Dn4
 BYTE   W12
 BYTE   N16  Cn4
 BYTE   W18
 BYTE   An3
 BYTE   W18
 BYTE   N07  Ds4
 BYTE   W12
 BYTE   N16  Cn4
 BYTE   W18
 BYTE   Fs4
 BYTE   W16
//  #01 //042   ----------------------------------------
 BYTE   W02
 BYTE   N07  Ds4
 BYTE   W09
 BYTE   GoTo
  POIN2 Label_0184DA9E
//  #01 //043   ----------------------------------------
 BYTE   TEMPO   142*song19_tbs/2
 BYTE   VOICE   30
 BYTE   VOL   22*song19_mvl/mxv
 BYTE   PAN   c_v+0
 BYTE   BEND   c_v+0
 BYTE   FINE

//**************** Track 2 (Midi-Chn.1) ****************//

song19_002:
//  #02 //000   ----------------------------------------
 BYTE   KEYSH   song19_key+0
Label_0184FD02:
 BYTE   VOICE   56
 BYTE   VOL   23*song19_mvl/mxv
 BYTE   PAN   c_v+0
 BYTE   BEND   c_v+0
 BYTE   W96
//  #02 //001   ----------------------------------------
 BYTE   W96
//  #02 //002   ----------------------------------------
 BYTE   W96
//  #02 //003   ----------------------------------------
 BYTE   W96
//  #02 //004   ----------------------------------------
 BYTE   W96
//  #02 //005   ----------------------------------------
 BYTE   W96
//  #02 //006   ----------------------------------------
 BYTE   W96
//  #02 //007   ----------------------------------------
 BYTE   W96
//  #02 //008   ----------------------------------------
 BYTE   W96
//  #02 //009   ----------------------------------------
 BYTE   W96
//  #02 //010   ----------------------------------------
 BYTE   W96
//  #02 //011   ----------------------------------------
 BYTE   W96
//  #02 //012   ----------------------------------------
 BYTE   W96
//  #02 //013   ----------------------------------------
 BYTE   W96
//  #02 //014   ----------------------------------------
 BYTE   W96
//  #02 //015   ----------------------------------------
 BYTE   W96
//  #02 //016   ----------------------------------------
 BYTE   W96
//  #02 //017   ----------------------------------------
 BYTE   W96
//  #02 //018   ----------------------------------------
 BYTE   W96
//  #02 //019   ----------------------------------------
 BYTE   W96
//  #02 //020   ----------------------------------------
 BYTE   W96
//  #02 //021   ----------------------------------------
 BYTE   W96
//  #02 //022   ----------------------------------------
 BYTE   W96
//  #02 //023   ----------------------------------------
 BYTE   W96
//  #02 //024   ----------------------------------------
 BYTE   W96
//  #02 //025   ----------------------------------------
 BYTE   W96
//  #02 //026   ----------------------------------------
 BYTE   W96
//  #02 //027   ----------------------------------------
 BYTE   W24
 BYTE   W02
 BYTE   N16  An3  v127
 BYTE   W18
 BYTE   En3
 BYTE   W18
 BYTE   N09  An3
 BYTE   W12
 BYTE   N16  Bn3
 BYTE   W18
 BYTE   Cn4
 BYTE   W04
//  #02 //028   ----------------------------------------
 BYTE   W14
 BYTE   N09  En3
 BYTE   W12
 BYTE   N16  Dn4
 BYTE   W18
 BYTE   Cn4
 BYTE   W18
 BYTE   N09  Bn3
 BYTE   W12
 BYTE   N16  An3
 BYTE   W18
 BYTE   En3
 BYTE   W04
//  #02 //029   ----------------------------------------
 BYTE   W14
 BYTE   N09  An3
 BYTE   W12
 BYTE   N16  Fn3
 BYTE   W18
 BYTE   Dn3
 BYTE   W18
 BYTE   N07  Bn2
 BYTE   W12
 BYTE   N16  Gs3
 BYTE   W18
 BYTE   Dn3
 BYTE   W04
//  #02 //030   ----------------------------------------
 BYTE   W14
 BYTE   N07  Fn3
 BYTE   W12
 BYTE   N16  Ds3
 BYTE   W18
 BYTE   Cn3
 BYTE   W18
 BYTE   N07  Fs3
 BYTE   W12
 BYTE   N16  Ds3
 BYTE   W18
 BYTE   An3
 BYTE   W04
//  #02 //031   ----------------------------------------
 BYTE   W14
 BYTE   N07  Fs3
 BYTE   W80
 BYTE   W02
//  #02 //032   ----------------------------------------
 BYTE   W96
//  #02 //033   ----------------------------------------
 BYTE   W96
//  #02 //034   ----------------------------------------
 BYTE   W96
//  #02 //035   ----------------------------------------
 BYTE   W96
//  #02 //036   ----------------------------------------
 BYTE   W96
//  #02 //037   ----------------------------------------
 BYTE   W96
//  #02 //038   ----------------------------------------
 BYTE   W14
 BYTE   N16  An3
 BYTE   W18
 BYTE   En3
 BYTE   W18
 BYTE   N09  An3
 BYTE   W12
 BYTE   N16  Bn3
 BYTE   W18
 BYTE   Cn4
 BYTE   W16
//  #02 //039   ----------------------------------------
 BYTE   W02
 BYTE   N09  En3
 BYTE   W12
 BYTE   N16  Dn4
 BYTE   W18
 BYTE   Cn4
 BYTE   W18
 BYTE   N09  Bn3
 BYTE   W12
 BYTE   N16  An3
 BYTE   W18
 BYTE   En3
 BYTE   W16
//  #02 //040   ----------------------------------------
 BYTE   W02
 BYTE   N09  An3
 BYTE   W12
 BYTE   N16  Fn3
 BYTE   W18
 BYTE   Dn3
 BYTE   W18
 BYTE   N07  Bn2
 BYTE   W12
 BYTE   N16  Gs3
 BYTE   W18
 BYTE   Dn3
 BYTE   W16
//  #02 //041   ----------------------------------------
 BYTE   W02
 BYTE   N07  Fn3
 BYTE   W12
 BYTE   N16  Ds3
 BYTE   W18
 BYTE   Cn3
 BYTE   W18
 BYTE   N07  Fs3
 BYTE   W12
 BYTE   N16  Ds3
 BYTE   W18
 BYTE   An3
 BYTE   W16
//  #02 //042   ----------------------------------------
 BYTE   W02
 BYTE   N07  Fs3
 BYTE   W09
 BYTE   GoTo
  POIN2 Label_0184FD02
//  #02 //043   ----------------------------------------
 BYTE   VOICE   56
 BYTE   VOL   23*song19_mvl/mxv
 BYTE   PAN   c_v+0
 BYTE   BEND   c_v+0
 BYTE   FINE

//**************** Track 3 (Midi-Chn.2) ****************//

song19_003:
//  #03 //000   ----------------------------------------
 BYTE   KEYSH   song19_key+0
Label_0184EEAE:
 BYTE   VOICE   33
 BYTE   VOL   26*song19_mvl/mxv
 BYTE   PAN   c_v+0
 BYTE   BEND   c_v+0
 BYTE   W02
 BYTE   N11  En0  v127
 BYTE   W12
 BYTE   N11
 BYTE   W12
 BYTE   En1
 BYTE   W12
 BYTE   N04  Dn0
 BYTE   W06
 BYTE   N11  Dn1
 BYTE   W12
 BYTE   N04  Dn0
 BYTE   W06
 BYTE   Dn1
 BYTE   W06
 BYTE   N11  En0
 BYTE   W12
 BYTE   N11
 BYTE   W12
 BYTE   En1
 BYTE   W04
//  #03 //001   ----------------------------------------
 BYTE   W08
 BYTE   N04  An0
 BYTE   W06
 BYTE   N11  An1
 BYTE   W12
 BYTE   N04  An0
 BYTE   W06
 BYTE   An1
 BYTE   W06
 BYTE   N11  En0
 BYTE   W12
 BYTE   N11
 BYTE   W12
 BYTE   En1
 BYTE   W12
 BYTE   N04  Dn0
 BYTE   W06
 BYTE   N11  Dn1
 BYTE   W12
 BYTE   N04  Dn0
 BYTE   W04
//  #03 //002   ----------------------------------------
 BYTE   W02
 BYTE   Dn1
 BYTE   W06
 BYTE   N07
 BYTE   W12
 BYTE   N07
 BYTE   W12
 BYTE   N04
 BYTE   W06
 BYTE   Dn0
 BYTE   W06
 BYTE   N04
 BYTE   W06
 BYTE   Dn1
 BYTE   W06
 BYTE   Dn0
 BYTE   W06
 BYTE   Cn1
 BYTE   W06
 BYTE   Dn0
 BYTE   W06
 BYTE   Dn1
 BYTE   W06
 BYTE   Dn0
 BYTE   W06
 BYTE   Dn1
 BYTE   W06
 BYTE   Dn0
 BYTE   W04
//  #03 //003   ----------------------------------------
 BYTE   W02
 BYTE   An0
 BYTE   W06
 BYTE   Dn1
 BYTE   W06
 BYTE   Dn0
 BYTE   W06
 BYTE   Dn1
 BYTE   W06
 BYTE   Dn0
 BYTE   W06
 BYTE   An0
 BYTE   W06
 BYTE   En0
 BYTE   W06
 BYTE   N04
 BYTE   W06
 BYTE   En1
 BYTE   W06
 BYTE   En0
 BYTE   W06
 BYTE   Dn1
 BYTE   W06
 BYTE   En0
 BYTE   W06
 BYTE   En1
 BYTE   W06
 BYTE   En0
 BYTE   W06
 BYTE   Bn0
 BYTE   W06
 BYTE   En1
 BYTE   W04
//  #03 //004   ----------------------------------------
 BYTE   W02
 BYTE   En0
 BYTE   W06
 BYTE   En1
 BYTE   W06
 BYTE   En0
 BYTE   W06
 BYTE   Bn0
 BYTE   W06
 BYTE   En1
 BYTE   W06
 BYTE   En0
 BYTE   W06
 BYTE   N11
 BYTE   W12
 BYTE   N11
 BYTE   W12
 BYTE   En1
 BYTE   W12
 BYTE   N04  Dn0
 BYTE   W06
 BYTE   N11  Dn1
 BYTE   W12
 BYTE   N04  Dn0
 BYTE   W04
//  #03 //005   ----------------------------------------
 BYTE   W02
 BYTE   Dn1
 BYTE   W06
 BYTE   N11  En0
 BYTE   W12
 BYTE   N11
 BYTE   W12
 BYTE   En1
 BYTE   W12
 BYTE   N04  An0
 BYTE   W06
 BYTE   N11  An1
 BYTE   W12
 BYTE   N04  An0
 BYTE   W06
 BYTE   An1
 BYTE   W06
 BYTE   N11  En0
 BYTE   W12
 BYTE   N11
 BYTE   W10
//  #03 //006   ----------------------------------------
 BYTE   W02
 BYTE   En1
 BYTE   W12
 BYTE   N04  Dn0
 BYTE   W06
 BYTE   N11  Dn1
 BYTE   W12
 BYTE   N04  Dn0
 BYTE   W06
 BYTE   Dn1
 BYTE   W06
 BYTE   N07
 BYTE   W12
 BYTE   N07
 BYTE   W12
 BYTE   N04
 BYTE   W06
 BYTE   Dn0
 BYTE   W06
 BYTE   N04
 BYTE   W06
 BYTE   Dn1
 BYTE   W06
 BYTE   Dn0
 BYTE   W04
//  #03 //007   ----------------------------------------
 BYTE   W02
 BYTE   Cn1
 BYTE   W06
 BYTE   Dn0
 BYTE   W06
 BYTE   Dn1
 BYTE   W06
 BYTE   Dn0
 BYTE   W06
 BYTE   Dn1
 BYTE   W06
 BYTE   Dn0
 BYTE   W06
 BYTE   An0
 BYTE   W06
 BYTE   Dn1
 BYTE   W06
 BYTE   Dn0
 BYTE   W06
 BYTE   Dn1
 BYTE   W06
 BYTE   Dn0
 BYTE   W06
 BYTE   An0
 BYTE   W06
 BYTE   En0
 BYTE   W06
 BYTE   N04
 BYTE   W06
 BYTE   En1
 BYTE   W06
 BYTE   En0
 BYTE   W04
//  #03 //008   ----------------------------------------
 BYTE   W02
 BYTE   Bn0
 BYTE   W06
 BYTE   En1
 BYTE   W06
 BYTE   En0
 BYTE   W06
 BYTE   En1
 BYTE   W06
 BYTE   An0
 BYTE   W06
 BYTE   N04
 BYTE   W06
 BYTE   An1
 BYTE   W06
 BYTE   An0
 BYTE   W06
 BYTE   Gn1
 BYTE   W06
 BYTE   An0
 BYTE   W06
 BYTE   An1
 BYTE   W06
 BYTE   An0
 BYTE   W06
 BYTE   Dn0
 BYTE   W06
 BYTE   N04
 BYTE   W06
 BYTE   Dn1
 BYTE   W06
 BYTE   Dn0
 BYTE   W04
//  #03 //009   ----------------------------------------
Label_0184EFBF:
 BYTE   W02
 BYTE   N04  An0  v127
 BYTE   W06
 BYTE   Dn0
 BYTE   W06
 BYTE   Dn1
 BYTE   W06
 BYTE   An0
 BYTE   W06
 BYTE   En0
 BYTE   W06
 BYTE   N04
 BYTE   W06
 BYTE   En1
 BYTE   W06
 BYTE   En0
 BYTE   W06
 BYTE   Bn0
 BYTE   W06
 BYTE   En1
 BYTE   W06
 BYTE   En0
 BYTE   W06
 BYTE   En1
 BYTE   W06
 BYTE   An0
 BYTE   W06
 BYTE   N04
 BYTE   W06
 BYTE   An1
 BYTE   W06
 BYTE   An0
 BYTE   W04
 BYTE   PEND 
//  #03 //010   ----------------------------------------
Label_0184EFE3:
 BYTE   W02
 BYTE   N04  En1  v127
 BYTE   W06
 BYTE   An0
 BYTE   W06
 BYTE   An1
 BYTE   W06
 BYTE   An0
 BYTE   W06
 BYTE   Cn2
 BYTE   W06
 BYTE   Bn1
 BYTE   W06
 BYTE   An1
 BYTE   W06
 BYTE   En1
 BYTE   W06
 BYTE   Cn1
 BYTE   W06
 BYTE   Bn0
 BYTE   W06
 BYTE   An0
 BYTE   W06
 BYTE   En0
 BYTE   W06
 BYTE   Dn0
 BYTE   W06
 BYTE   N04
 BYTE   W06
 BYTE   Dn1
 BYTE   W06
 BYTE   Dn0
 BYTE   W04
 BYTE   PEND 
//  #03 //011   ----------------------------------------
 BYTE   PATT
  POIN2 Label_0184EFBF
//  #03 //012   ----------------------------------------
 BYTE   PATT
  POIN2 Label_0184EFE3
//  #03 //013   ----------------------------------------
 BYTE   PATT
  POIN2 Label_0184EFBF
//  #03 //014   ----------------------------------------
 BYTE   W02
 BYTE   N04  Gn1  v127
 BYTE   W06
 BYTE   An0
 BYTE   W06
 BYTE   An1
 BYTE   W06
 BYTE   An0
 BYTE   W06
 BYTE   En0
 BYTE   W06
 BYTE   N04
 BYTE   W06
 BYTE   En1
 BYTE   W06
 BYTE   En0
 BYTE   W06
 BYTE   Dn1
 BYTE   W06
 BYTE   En0
 BYTE   W06
 BYTE   En1
 BYTE   W06
 BYTE   En0
 BYTE   W06
 BYTE   Dn0
 BYTE   W06
 BYTE   N04
 BYTE   W06
 BYTE   Dn1
 BYTE   W06
 BYTE   Dn0
 BYTE   W04
//  #03 //015   ----------------------------------------
 BYTE   PATT
  POIN2 Label_0184EFBF
//  #03 //016   ----------------------------------------
 BYTE   PATT
  POIN2 Label_0184EFE3
//  #03 //017   ----------------------------------------
 BYTE   PATT
  POIN2 Label_0184EFBF
//  #03 //018   ----------------------------------------
 BYTE   W02
 BYTE   N04  Gn1  v127
 BYTE   W06
 BYTE   An0
 BYTE   W06
 BYTE   An1
 BYTE   W06
 BYTE   An0
 BYTE   W06
 BYTE   N04
 BYTE   W06
 BYTE   An1
 BYTE   W06
 BYTE   An0
 BYTE   W06
 BYTE   En1
 BYTE   W06
 BYTE   An1
 BYTE   W06
 BYTE   An0
 BYTE   W06
 BYTE   An1
 BYTE   W06
 BYTE   An0
 BYTE   W06
 BYTE   N11  En0
 BYTE   W12
 BYTE   N11
 BYTE   W10
//  #03 //019   ----------------------------------------
 BYTE   W02
 BYTE   En1
 BYTE   W12
 BYTE   N04  Dn0
 BYTE   W06
 BYTE   N11  Dn1
 BYTE   W12
 BYTE   N04  Dn0
 BYTE   W06
 BYTE   Dn1
 BYTE   W06
 BYTE   N11  En0
 BYTE   W12
 BYTE   N11
 BYTE   W12
 BYTE   En1
 BYTE   W12
 BYTE   N04  An0
 BYTE   W06
 BYTE   N11  An1
 BYTE   W10
//  #03 //020   ----------------------------------------
 BYTE   W02
 BYTE   N04  An0
 BYTE   W06
 BYTE   An1
 BYTE   W06
 BYTE   N11  En0
 BYTE   W12
 BYTE   N11
 BYTE   W12
 BYTE   En1
 BYTE   W12
 BYTE   N04  Dn0
 BYTE   W06
 BYTE   N11  Dn1
 BYTE   W12
 BYTE   N04  Dn0
 BYTE   W06
 BYTE   Dn1
 BYTE   W06
 BYTE   N07
 BYTE   W12
 BYTE   N07
 BYTE   W04
//  #03 //021   ----------------------------------------
 BYTE   W08
 BYTE   N04
 BYTE   W06
 BYTE   Dn0
 BYTE   W06
 BYTE   N04
 BYTE   W06
 BYTE   Dn1
 BYTE   W06
 BYTE   Dn0
 BYTE   W06
 BYTE   Cn1
 BYTE   W06
 BYTE   Dn0
 BYTE   W06
 BYTE   Dn1
 BYTE   W06
 BYTE   Dn0
 BYTE   W06
 BYTE   Dn1
 BYTE   W06
 BYTE   Dn0
 BYTE   W06
 BYTE   An0
 BYTE   W06
 BYTE   Dn1
 BYTE   W06
 BYTE   Dn0
 BYTE   W06
 BYTE   Dn1
 BYTE   W04
//  #03 //022   ----------------------------------------
 BYTE   W02
 BYTE   Dn0
 BYTE   W06
 BYTE   An0
 BYTE   W06
 BYTE   En0
 BYTE   W06
 BYTE   N04
 BYTE   W06
 BYTE   En1
 BYTE   W06
 BYTE   En0
 BYTE   W06
 BYTE   Dn1
 BYTE   W06
 BYTE   En0
 BYTE   W06
 BYTE   En1
 BYTE   W06
 BYTE   En0
 BYTE   W06
 BYTE   Bn0
 BYTE   W06
 BYTE   En1
 BYTE   W06
 BYTE   En0
 BYTE   W06
 BYTE   En1
 BYTE   W06
 BYTE   En0
 BYTE   W06
 BYTE   Bn0
 BYTE   W04
//  #03 //023   ----------------------------------------
 BYTE   W02
 BYTE   En1
 BYTE   W06
 BYTE   En0
 BYTE   W06
 BYTE   N11
 BYTE   W12
 BYTE   N11
 BYTE   W12
 BYTE   En1
 BYTE   W12
 BYTE   N04  Dn0
 BYTE   W06
 BYTE   N11  Dn1
 BYTE   W12
 BYTE   N04  Dn0
 BYTE   W06
 BYTE   Dn1
 BYTE   W06
 BYTE   N11  En0
 BYTE   W12
 BYTE   N11
 BYTE   W04
//  #03 //024   ----------------------------------------
 BYTE   W08
 BYTE   En1
 BYTE   W12
 BYTE   N04  An0
 BYTE   W06
 BYTE   N11  An1
 BYTE   W12
 BYTE   N04  An0
 BYTE   W06
 BYTE   An1
 BYTE   W06
 BYTE   N11  Fs0
 BYTE   W12
 BYTE   N11
 BYTE   W12
 BYTE   Fs1
 BYTE   W12
 BYTE   N04  En0
 BYTE   W06
 BYTE   N11  En1
 BYTE   W04
//  #03 //025   ----------------------------------------
 BYTE   W08
 BYTE   N04  En0
 BYTE   W06
 BYTE   En1
 BYTE   W06
 BYTE   N11  Fs0
 BYTE   W12
 BYTE   N11
 BYTE   W12
 BYTE   Fs1
 BYTE   W12
 BYTE   N04  Bn0
 BYTE   W06
 BYTE   N11  Bn1
 BYTE   W12
 BYTE   N04  Bn0
 BYTE   W06
 BYTE   Bn1
 BYTE   W06
 BYTE   N11  Gs0
 BYTE   W10
//  #03 //026   ----------------------------------------
 BYTE   W02
 BYTE   N11
 BYTE   W12
 BYTE   Gs1
 BYTE   W12
 BYTE   N04  Fs0
 BYTE   W06
 BYTE   N11  Fs1
 BYTE   W12
 BYTE   N04  Fs0
 BYTE   W06
 BYTE   Fs1
 BYTE   W06
 BYTE   N11  Gs0
 BYTE   W12
 BYTE   N11
 BYTE   W12
 BYTE   Gs1
 BYTE   W12
 BYTE   N04  Cs0
 BYTE   W04
//  #03 //027   ----------------------------------------
 BYTE   W02
 BYTE   N11  Cs1
 BYTE   W12
 BYTE   N04  Cs0
 BYTE   W06
 BYTE   Cs1
 BYTE   W06
 BYTE   An0
 BYTE   W06
 BYTE   N04
 BYTE   W06
 BYTE   An1
 BYTE   W06
 BYTE   An0
 BYTE   W06
 BYTE   Gn1
 BYTE   W06
 BYTE   An0
 BYTE   W06
 BYTE   An1
 BYTE   W06
 BYTE   An0
 BYTE   W06
 BYTE   An1
 BYTE   W06
 BYTE   En1
 BYTE   W06
 BYTE   An0
 BYTE   W06
 BYTE   Cn2
 BYTE   W04
//  #03 //028   ----------------------------------------
 BYTE   W02
 BYTE   Bn1
 BYTE   W06
 BYTE   An1
 BYTE   W06
 BYTE   En1
 BYTE   W06
 BYTE   An0
 BYTE   W06
 BYTE   Dn0
 BYTE   W06
 BYTE   N04
 BYTE   W06
 BYTE   Dn1
 BYTE   W06
 BYTE   Dn0
 BYTE   W06
 BYTE   An0
 BYTE   W06
 BYTE   Dn1
 BYTE   W06
 BYTE   Dn0
 BYTE   W06
 BYTE   Dn1
 BYTE   W06
 BYTE   Cn1
 BYTE   W06
 BYTE   Dn1
 BYTE   W06
 BYTE   Dn0
 BYTE   W06
 BYTE   Dn1
 BYTE   W04
//  #03 //029   ----------------------------------------
 BYTE   W02
 BYTE   Dn0
 BYTE   W06
 BYTE   Cn1
 BYTE   W06
 BYTE   Dn1
 BYTE   W06
 BYTE   Dn0
 BYTE   W06
 BYTE   Dn1
 BYTE   W06
 BYTE   Gs1
 BYTE   W06
 BYTE   Fn1
 BYTE   W06
 BYTE   Dn1
 BYTE   W06
 BYTE   Bn0
 BYTE   W06
 BYTE   Gs0
 BYTE   W06
 BYTE   Bn0
 BYTE   W06
 BYTE   Dn1
 BYTE   W06
 BYTE   Bn1
 BYTE   W06
 BYTE   Gs1
 BYTE   W06
 BYTE   Fn1
 BYTE   W06
 BYTE   Dn1
 BYTE   W04
//  #03 //030   ----------------------------------------
 BYTE   W02
 BYTE   Bn0
 BYTE   W06
 BYTE   Gs0
 BYTE   W06
 BYTE   Fn0
 BYTE   W06
 BYTE   Dn0
 BYTE   W06
 BYTE   Cn1
 BYTE   W06
 BYTE   An1
 BYTE   W06
 BYTE   Fs1
 BYTE   W06
 BYTE   Ds1
 BYTE   W06
 BYTE   Cn1
 BYTE   W06
 BYTE   Fs1
 BYTE   W06
 BYTE   Ds1
 BYTE   W06
 BYTE   Cn1
 BYTE   W06
 BYTE   Fs1
 BYTE   W06
 BYTE   Cn1
 BYTE   W06
 BYTE   Ds1
 BYTE   W06
 BYTE   An0
 BYTE   W04
//  #03 //031   ----------------------------------------
 BYTE   W02
 BYTE   Cn1
 BYTE   W06
 BYTE   Fs0
 BYTE   W06
 BYTE   An0
 BYTE   W06
 BYTE   Ds0
 BYTE   W06
 BYTE   N11  Gn0
 BYTE   W12
 BYTE   N11
 BYTE   W12
 BYTE   N11
 BYTE   W12
 BYTE   N11
 BYTE   W12
 BYTE   N11
 BYTE   W12
 BYTE   N11
 BYTE   W10
//  #03 //032   ----------------------------------------
 BYTE   W02
 BYTE   N11
 BYTE   W12
 BYTE   N11
 BYTE   W12
 BYTE   N11
 BYTE   W12
 BYTE   N11
 BYTE   W12
 BYTE   N11
 BYTE   W12
 BYTE   N11
 BYTE   W12
 BYTE   N11
 BYTE   W12
 BYTE   N11
 BYTE   W10
//  #03 //033   ----------------------------------------
 BYTE   W02
 BYTE   N11
 BYTE   W12
 BYTE   N11
 BYTE   W12
 BYTE   N11
 BYTE   W12
 BYTE   N11
 BYTE   W12
 BYTE   N11
 BYTE   W12
 BYTE   Gn1
 BYTE   W12
 BYTE   An0
 BYTE   W12
 BYTE   N11
 BYTE   W10
//  #03 //034   ----------------------------------------
 BYTE   W02
 BYTE   N11
 BYTE   W12
 BYTE   An1
 BYTE   W12
 BYTE   An0
 BYTE   W12
 BYTE   Gn0
 BYTE   W12
 BYTE   N04  Fn0
 BYTE   W06
 BYTE   N01
 BYTE   W06
 BYTE   N04  Gn0
 BYTE   W06
 BYTE   Gn1
 BYTE   W06
 BYTE   N01
 BYTE   W06
 BYTE   N11
 BYTE   W12
 BYTE   N04  Gn0
 BYTE   W04
//  #03 //035   ----------------------------------------
 BYTE   W02
 BYTE   N11
 BYTE   W12
 BYTE   N04  Fn0
 BYTE   W06
 BYTE   N01
 BYTE   W06
 BYTE   N04  Gn0
 BYTE   W06
 BYTE   Gn1
 BYTE   W06
 BYTE   N01
 BYTE   W06
 BYTE   N11
 BYTE   W12
 BYTE   N04  Gn0
 BYTE   W06
 BYTE   N11
 BYTE   W12
 BYTE   N04  Fn0
 BYTE   W06
 BYTE   N01
 BYTE   W06
 BYTE   N04  Gn0
 BYTE   W06
 BYTE   Gn1
 BYTE   W04
//  #03 //036   ----------------------------------------
 BYTE   W02
 BYTE   N01
 BYTE   W06
 BYTE   N11
 BYTE   W12
 BYTE   N04  Gn0
 BYTE   W06
 BYTE   N11
 BYTE   W12
 BYTE   N04  Fn0
 BYTE   W06
 BYTE   N01
 BYTE   W06
 BYTE   N04  Gn0
 BYTE   W06
 BYTE   Gn1
 BYTE   W06
 BYTE   N01
 BYTE   W06
 BYTE   N11
 BYTE   W12
 BYTE   N04  Gn0
 BYTE   W06
 BYTE   N11  An0
 BYTE   W10
//  #03 //037   ----------------------------------------
 BYTE   W02
 BYTE   N04  Gn0
 BYTE   W06
 BYTE   N01
 BYTE   W06
 BYTE   N04  An0
 BYTE   W06
 BYTE   An1
 BYTE   W06
 BYTE   N01
 BYTE   W06
 BYTE   N11
 BYTE   W12
 BYTE   N04  An0
 BYTE   W06
 BYTE   N11
 BYTE   W12
 BYTE   N04  Gn0
 BYTE   W06
 BYTE   N01
 BYTE   W06
 BYTE   N04  An0
 BYTE   W06
 BYTE   An1
 BYTE   W06
 BYTE   N01
 BYTE   W06
 BYTE   N11
 BYTE   W04
//  #03 //038   ----------------------------------------
 BYTE   W08
 BYTE   N04  An0
 BYTE   W06
 BYTE   N04
 BYTE   W06
 BYTE   N04
 BYTE   W06
 BYTE   An1
 BYTE   W06
 BYTE   An0
 BYTE   W06
 BYTE   Gn1
 BYTE   W06
 BYTE   An0
 BYTE   W06
 BYTE   An1
 BYTE   W06
 BYTE   An0
 BYTE   W06
 BYTE   An1
 BYTE   W06
 BYTE   En1
 BYTE   W06
 BYTE   An0
 BYTE   W06
 BYTE   Cn2
 BYTE   W06
 BYTE   Bn1
 BYTE   W06
 BYTE   An1
 BYTE   W04
//  #03 //039   ----------------------------------------
 BYTE   W02
 BYTE   En1
 BYTE   W06
 BYTE   An0
 BYTE   W06
 BYTE   Dn0
 BYTE   W06
 BYTE   N04
 BYTE   W06
 BYTE   Dn1
 BYTE   W06
 BYTE   Dn0
 BYTE   W06
 BYTE   An0
 BYTE   W06
 BYTE   Dn1
 BYTE   W06
 BYTE   Dn0
 BYTE   W06
 BYTE   Dn1
 BYTE   W06
 BYTE   Cn1
 BYTE   W06
 BYTE   Dn1
 BYTE   W06
 BYTE   Dn0
 BYTE   W06
 BYTE   Dn1
 BYTE   W06
 BYTE   Dn0
 BYTE   W06
 BYTE   Cn1
 BYTE   W04
//  #03 //040   ----------------------------------------
 BYTE   W02
 BYTE   Dn1
 BYTE   W06
 BYTE   Dn0
 BYTE   W06
 BYTE   Dn1
 BYTE   W06
 BYTE   Gs1
 BYTE   W06
 BYTE   Fn1
 BYTE   W06
 BYTE   Dn1
 BYTE   W06
 BYTE   Bn0
 BYTE   W06
 BYTE   Gs0
 BYTE   W06
 BYTE   Bn0
 BYTE   W06
 BYTE   Dn1
 BYTE   W06
 BYTE   Bn1
 BYTE   W06
 BYTE   Gs1
 BYTE   W06
 BYTE   Fn1
 BYTE   W06
 BYTE   Dn1
 BYTE   W06
 BYTE   Bn0
 BYTE   W06
 BYTE   Gs0
 BYTE   W04
//  #03 //041   ----------------------------------------
 BYTE   W02
 BYTE   Fn0
 BYTE   W06
 BYTE   Dn0
 BYTE   W06
 BYTE   Cn1
 BYTE   W06
 BYTE   An1
 BYTE   W06
 BYTE   Fs1
 BYTE   W06
 BYTE   Ds1
 BYTE   W06
 BYTE   Cn1
 BYTE   W06
 BYTE   Fs1
 BYTE   W06
 BYTE   Ds1
 BYTE   W06
 BYTE   Cn1
 BYTE   W06
 BYTE   Fs1
 BYTE   W06
 BYTE   Cn1
 BYTE   W06
 BYTE   Ds1
 BYTE   W06
 BYTE   An0
 BYTE   W06
 BYTE   Cn1
 BYTE   W06
 BYTE   Fs0
 BYTE   W04
//  #03 //042   ----------------------------------------
 BYTE   W02
 BYTE   An0
 BYTE   W06
 BYTE   N03  Ds0
 BYTE   W03
 BYTE   GoTo
  POIN2 Label_0184EEAE
//  #03 //043   ----------------------------------------
 BYTE   VOICE   33
 BYTE   VOL   26*song19_mvl/mxv
 BYTE   PAN   c_v+0
 BYTE   BEND   c_v+0
 BYTE   FINE

//**************** Track 4 (Midi-Chn.3) ****************//

song19_004:
//  #04 //000   ----------------------------------------
 BYTE   KEYSH   song19_key+0
Label_0184E736:
 BYTE   VOICE   30
 BYTE   VOL   17*song19_mvl/mxv
 BYTE   PAN   c_v+32
 BYTE   BEND   c_v+0
 BYTE   W96
//  #04 //001   ----------------------------------------
 BYTE   W96
//  #04 //002   ----------------------------------------
 BYTE   W96
//  #04 //003   ----------------------------------------
 BYTE   W96
//  #04 //004   ----------------------------------------
 BYTE   W96
//  #04 //005   ----------------------------------------
 BYTE   W96
//  #04 //006   ----------------------------------------
 BYTE   W96
//  #04 //007   ----------------------------------------
 BYTE   W96
//  #04 //008   ----------------------------------------
 BYTE   W96
//  #04 //009   ----------------------------------------
 BYTE   W96
//  #04 //010   ----------------------------------------
 BYTE   W96
//  #04 //011   ----------------------------------------
 BYTE   W96
//  #04 //012   ----------------------------------------
 BYTE   W96
//  #04 //013   ----------------------------------------
 BYTE   W96
//  #04 //014   ----------------------------------------
 BYTE   W96
//  #04 //015   ----------------------------------------
 BYTE   W96
//  #04 //016   ----------------------------------------
 BYTE   W96
//  #04 //017   ----------------------------------------
 BYTE   W96
//  #04 //018   ----------------------------------------
 BYTE   W96
//  #04 //019   ----------------------------------------
 BYTE   W96
//  #04 //020   ----------------------------------------
 BYTE   W96
//  #04 //021   ----------------------------------------
 BYTE   W96
//  #04 //022   ----------------------------------------
 BYTE   W96
//  #04 //023   ----------------------------------------
 BYTE   W96
//  #04 //024   ----------------------------------------
 BYTE   W96
//  #04 //025   ----------------------------------------
 BYTE   W96
//  #04 //026   ----------------------------------------
 BYTE   W96
//  #04 //027   ----------------------------------------
 BYTE   W96
//  #04 //028   ----------------------------------------
 BYTE   W96
//  #04 //029   ----------------------------------------
 BYTE   W96
//  #04 //030   ----------------------------------------
 BYTE   W96
//  #04 //031   ----------------------------------------
 BYTE   W24
 BYTE   W02
 BYTE   N04  As2  v088
 BYTE   N04  Dn3
 BYTE   N04  Gn3
 BYTE   W12
 BYTE   As2
 BYTE   N04  Dn3
 BYTE   N04  Gn3
 BYTE   W12
 BYTE   As2
 BYTE   N04  Dn3
 BYTE   N04  Gn3
 BYTE   W12
 BYTE   An2
 BYTE   N04  Dn3
 BYTE   N04  Fs3
 BYTE   W06
 BYTE   An2
 BYTE   N04  Dn3
 BYTE   N04  Fs3
 BYTE   W12
 BYTE   An2
 BYTE   N04  Dn3
 BYTE   N04  Fs3
 BYTE   W06
 BYTE   As2
 BYTE   N04  Dn3
 BYTE   N04  Gn3
 BYTE   W10
//  #04 //032   ----------------------------------------
 BYTE   W02
 BYTE   As2
 BYTE   N04  Dn3
 BYTE   N04  Gn3
 BYTE   W12
 BYTE   As2
 BYTE   N04  Dn3
 BYTE   N04  Gn3
 BYTE   W12
 BYTE   Cn3
 BYTE   N04  Ds3
 BYTE   N04  Fs3
 BYTE   W06
 BYTE   Cn3
 BYTE   N04  Ds3
 BYTE   N04  Fs3
 BYTE   W12
 BYTE   Cn3
 BYTE   N04  Ds3
 BYTE   N04  Fs3
 BYTE   W06
 BYTE   As2
 BYTE   N04  Dn3
 BYTE   N04  Gn3
 BYTE   W12
 BYTE   As2
 BYTE   N04  Dn3
 BYTE   N04  Gn3
 BYTE   W12
 BYTE   As2
 BYTE   N04  Dn3
 BYTE   N04  Gn3
 BYTE   W12
 BYTE   An2
 BYTE   N04  Dn3
 BYTE   N04  Fs3
 BYTE   W06
 BYTE   An2
 BYTE   N04  Dn3
 BYTE   N04  Fs3
 BYTE   W04
//  #04 //033   ----------------------------------------
 BYTE   W08
 BYTE   An2
 BYTE   N04  Dn3
 BYTE   N04  Fs3
 BYTE   W06
 BYTE   As2
 BYTE   N04  Dn3
 BYTE   N04  Gn3
 BYTE   W12
 BYTE   As2
 BYTE   N04  Dn3
 BYTE   N04  Gn3
 BYTE   W12
 BYTE   As2
 BYTE   N04  Dn3
 BYTE   N04  Gn3
 BYTE   W12
 BYTE   Cn3
 BYTE   N04  Ds3
 BYTE   N04  Gn3
 BYTE   W06
 BYTE   Cn3
 BYTE   N04  Ds3
 BYTE   N04  Gn3
 BYTE   W12
 BYTE   Cn3
 BYTE   N04  Ds3
 BYTE   N04  Gn3
 BYTE   W06
 BYTE   Dn3
 BYTE   N04  En3
 BYTE   N04  An3
 BYTE   W12
 BYTE   Dn3
 BYTE   N04  En3
 BYTE   N04  An3
 BYTE   W10
//  #04 //034   ----------------------------------------
 BYTE   W02
 BYTE   Dn3
 BYTE   N04  En3
 BYTE   N04  An3
 BYTE   W12
 BYTE   Cs3
 BYTE   N04  En3
 BYTE   N04  An3
 BYTE   W06
 BYTE   Cs3
 BYTE   N04  En3
 BYTE   N04  An3
 BYTE   W12
 BYTE   Cs3
 BYTE   N04  En3
 BYTE   N04  An3
 BYTE   W06
 BYTE   As2
 BYTE   N04  Dn3
 BYTE   N04  Gn3
 BYTE   W12
 BYTE   As2
 BYTE   N04  Dn3
 BYTE   N04  Gn3
 BYTE   W12
 BYTE   As2
 BYTE   N04  Dn3
 BYTE   N04  Gn3
 BYTE   W12
 BYTE   An2
 BYTE   N04  Dn3
 BYTE   N04  Fs3
 BYTE   W06
 BYTE   An2
 BYTE   N04  Dn3
 BYTE   N04  Fs3
 BYTE   W12
 BYTE   An2
 BYTE   N04  Dn3
 BYTE   N04  Fs3
 BYTE   W04
//  #04 //035   ----------------------------------------
 BYTE   W02
 BYTE   As2
 BYTE   N04  Dn3
 BYTE   N04  Gn3
 BYTE   W12
 BYTE   As2
 BYTE   N04  Dn3
 BYTE   N04  Gn3
 BYTE   W12
 BYTE   As2
 BYTE   N04  Dn3
 BYTE   N04  Gn3
 BYTE   W12
 BYTE   Cn3
 BYTE   N04  Ds3
 BYTE   N04  Fs3
 BYTE   W06
 BYTE   Cn3
 BYTE   N04  Ds3
 BYTE   N04  Fs3
 BYTE   W12
 BYTE   Cn3
 BYTE   N04  Ds3
 BYTE   N04  Fs3
 BYTE   W06
 BYTE   As2
 BYTE   N04  Dn3
 BYTE   N04  Gn3
 BYTE   W12
 BYTE   As2
 BYTE   N04  Dn3
 BYTE   N04  Gn3
 BYTE   W12
 BYTE   As2
 BYTE   N04  Dn3
 BYTE   N04  Gn3
 BYTE   W10
//  #04 //036   ----------------------------------------
 BYTE   W02
 BYTE   An2
 BYTE   N04  Dn3
 BYTE   N04  Fs3
 BYTE   W06
 BYTE   An2
 BYTE   N04  Dn3
 BYTE   N04  Fs3
 BYTE   W12
 BYTE   An2
 BYTE   N04  Dn3
 BYTE   N04  Fs3
 BYTE   W06
 BYTE   As2
 BYTE   N04  Dn3
 BYTE   N04  Gn3
 BYTE   W12
 BYTE   As2
 BYTE   N04  Dn3
 BYTE   N04  Gn3
 BYTE   W12
 BYTE   As2
 BYTE   N04  Dn3
 BYTE   N04  Gn3
 BYTE   W12
 BYTE   Cn3
 BYTE   N04  Ds3
 BYTE   N04  Gn3
 BYTE   W06
 BYTE   Cn3
 BYTE   N04  Ds3
 BYTE   N04  Gn3
 BYTE   W12
 BYTE   Cn3
 BYTE   N04  Ds3
 BYTE   N04  Gn3
 BYTE   W06
 BYTE   Dn3
 BYTE   N04  En3
 BYTE   N04  An3
 BYTE   W10
//  #04 //037   ----------------------------------------
 BYTE   W02
 BYTE   Dn3
 BYTE   N04  En3
 BYTE   N04  An3
 BYTE   W12
 BYTE   Dn3
 BYTE   N04  En3
 BYTE   N04  An3
 BYTE   W12
 BYTE   Dn3
 BYTE   N04  En3
 BYTE   N04  An3
 BYTE   W06
 BYTE   Dn3
 BYTE   N04  En3
 BYTE   N04  An3
 BYTE   W12
 BYTE   Dn3
 BYTE   N04  En3
 BYTE   N04  An3
 BYTE   W06
 BYTE   Cs3
 BYTE   N04  En3
 BYTE   N04  An3
 BYTE   W12
 BYTE   Cs3
 BYTE   N04  En3
 BYTE   N04  An3
 BYTE   W12
 BYTE   Cs3
 BYTE   N04  En3
 BYTE   N04  An3
 BYTE   W12
 BYTE   Cs3
 BYTE   N04  En3
 BYTE   N04  An3
 BYTE   W06
 BYTE   Cs3
 BYTE   N04  En3
 BYTE   N04  An3
 BYTE   W04
//  #04 //038   ----------------------------------------
 BYTE   W08
 BYTE   Cs3
 BYTE   N04  En3
 BYTE   N04  An3
 BYTE   W88
//  #04 //039   ----------------------------------------
 BYTE   W96
//  #04 //040   ----------------------------------------
 BYTE   W96
//  #04 //041   ----------------------------------------
 BYTE   W96
//  #04 //042   ----------------------------------------
 BYTE   W11
 BYTE   GoTo
  POIN2 Label_0184E736
//  #04 //043   ----------------------------------------
 BYTE   VOICE   30
 BYTE   VOL   17*song19_mvl/mxv
 BYTE   PAN   c_v+32
 BYTE   BEND   c_v+0
 BYTE   FINE

//**************** Track 5 (Midi-Chn.4) ****************//

song19_005:
//  #05 //000   ----------------------------------------
 BYTE   KEYSH   song19_key+0
Label_0184E90A:
 BYTE   VOICE   49
 BYTE   VOL   20*song19_mvl/mxv
 BYTE   PAN   c_v-50
 BYTE   BEND   c_v+0
 BYTE   W96
//  #05 //001   ----------------------------------------
 BYTE   W96
//  #05 //002   ----------------------------------------
 BYTE   W96
//  #05 //003   ----------------------------------------
 BYTE   W96
//  #05 //004   ----------------------------------------
 BYTE   W96
//  #05 //005   ----------------------------------------
 BYTE   W96
//  #05 //006   ----------------------------------------
 BYTE   W96
//  #05 //007   ----------------------------------------
 BYTE   W96
//  #05 //008   ----------------------------------------
 BYTE   W96
//  #05 //009   ----------------------------------------
 BYTE   W96
//  #05 //010   ----------------------------------------
 BYTE   W96
//  #05 //011   ----------------------------------------
 BYTE   W96
//  #05 //012   ----------------------------------------
 BYTE   W96
//  #05 //013   ----------------------------------------
 BYTE   W96
//  #05 //014   ----------------------------------------
 BYTE   W96
//  #05 //015   ----------------------------------------
 BYTE   W96
//  #05 //016   ----------------------------------------
 BYTE   W96
//  #05 //017   ----------------------------------------
 BYTE   W96
//  #05 //018   ----------------------------------------
 BYTE   W96
//  #05 //019   ----------------------------------------
 BYTE   W96
//  #05 //020   ----------------------------------------
 BYTE   W96
//  #05 //021   ----------------------------------------
 BYTE   W96
//  #05 //022   ----------------------------------------
 BYTE   W96
//  #05 //023   ----------------------------------------
 BYTE   W96
//  #05 //024   ----------------------------------------
 BYTE   W96
//  #05 //025   ----------------------------------------
 BYTE   W96
//  #05 //026   ----------------------------------------
 BYTE   W96
//  #05 //027   ----------------------------------------
 BYTE   W96
//  #05 //028   ----------------------------------------
 BYTE   W96
//  #05 //029   ----------------------------------------
 BYTE   W96
//  #05 //030   ----------------------------------------
 BYTE   W96
//  #05 //031   ----------------------------------------
 BYTE   W24
 BYTE   W02
 BYTE   N32  As2  v127
 BYTE   N32  Dn3
 BYTE   W36
 BYTE   N22  An2
 BYTE   N22  Dn3
 BYTE   W24
 BYTE   N32  As2
 BYTE   N32  Dn3
 BYTE   W10
//  #05 //032   ----------------------------------------
 BYTE   W24
 BYTE   W02
 BYTE   N22  Cn3
 BYTE   N22  Ds3
 BYTE   W24
 BYTE   N32  Dn3
 BYTE   N32  Gn3
 BYTE   W36
 BYTE   N22  Ds3
 BYTE   N22  Fs3
 BYTE   W10
//  #05 //033   ----------------------------------------
 BYTE   W14
 BYTE   N32  Dn3
 BYTE   N56  Gn3
 BYTE   W36
 BYTE   N22  Ds3
 BYTE   W24
 BYTE   N32  Dn3
 BYTE   N56  An3
 BYTE   W22
//  #05 //034   ----------------------------------------
 BYTE   W14
 BYTE   N22  Cs3
 BYTE   W24
 BYTE   N32  As2
 BYTE   N32  Dn3
 BYTE   W36
 BYTE   N22  An2
 BYTE   N22  Dn3
 BYTE   W22
//  #05 //035   ----------------------------------------
 BYTE   W02
 BYTE   N32  As2
 BYTE   N32  Dn3
 BYTE   W36
 BYTE   N22  Cn3
 BYTE   N22  Ds3
 BYTE   W24
 BYTE   N32  Dn3
 BYTE   N32  Gn3
 BYTE   W32
 BYTE   W02
//  #05 //036   ----------------------------------------
 BYTE   W02
 BYTE   N22  Ds3
 BYTE   N22  Fs3
 BYTE   W24
 BYTE   N32  Dn3
 BYTE   N56  Gn3
 BYTE   W36
 BYTE   N22  Ds3
 BYTE   W24
 BYTE   N56  Dn3
 BYTE   TIE  An3
 BYTE   W10
//  #05 //037   ----------------------------------------
 BYTE   W48
 BYTE   W02
 BYTE   N56  Cs3
 BYTE   W44
 BYTE   W02
//  #05 //038   ----------------------------------------
 BYTE   W12
 BYTE   EOT
 BYTE   An3
 BYTE   W84
//  #05 //039   ----------------------------------------
 BYTE   W96
//  #05 //040   ----------------------------------------
 BYTE   W96
//  #05 //041   ----------------------------------------
 BYTE   W96
//  #05 //042   ----------------------------------------
 BYTE   W11
 BYTE   GoTo
  POIN2 Label_0184E90A
//  #05 //043   ----------------------------------------
 BYTE   VOICE   49
 BYTE   VOL   20*song19_mvl/mxv
 BYTE   PAN   c_v-50
 BYTE   BEND   c_v+0
 BYTE   FINE

//**************** Track 6 (Midi-Chn.5) ****************//

song19_006:
//  #06 //000   ----------------------------------------
 BYTE   KEYSH   song19_key+0
Label_0184D61A:
 BYTE   VOICE   62
 BYTE   VOL   20*song19_mvl/mxv
 BYTE   PAN   c_v-10
 BYTE   BEND   c_v+0
 BYTE   N32  Bn2  v108
 BYTE   N32  En3
 BYTE   N32  Gn3
 BYTE   W36
 BYTE   N28  Dn3
 BYTE   N28  Fs3
 BYTE   N28  An3
 BYTE   W30
 BYTE   N32  Bn2
 BYTE   N32  En3
 BYTE   N32  Gn3
 BYTE   W30
//  #06 //001   ----------------------------------------
 BYTE   W06
 BYTE   N28  Cs3
 BYTE   N28  En3
 BYTE   N28  An3
 BYTE   W30
 BYTE   N32  Bn2
 BYTE   N32  En3
 BYTE   N32  Gn3
 BYTE   W36
 BYTE   N56  Dn3
 BYTE   N56  Fs3
 BYTE   N56  An3
 BYTE   W24
//  #06 //002   ----------------------------------------
 BYTE   W36
 BYTE   N92  Dn3  v120
 BYTE   N92  Fn3
 BYTE   N92  An3
 BYTE   W60
//  #06 //003   ----------------------------------------
 BYTE   W36
 BYTE   N16  Bn2
 BYTE   N16  En3
 BYTE   N16  An3
 BYTE   W18
 BYTE   Bn2
 BYTE   N16  En3
 BYTE   N16  An3
 BYTE   W18
 BYTE   N09  Bn2
 BYTE   N09  En3
 BYTE   N09  An3
 BYTE   W12
 BYTE   N16  Bn2
 BYTE   N16  En3
 BYTE   N16  Gs3
 BYTE   W12
//  #06 //004   ----------------------------------------
 BYTE   W06
 BYTE   Bn2
 BYTE   N16  En3
 BYTE   N16  Gs3
 BYTE   W18
 BYTE   N09  Bn2
 BYTE   N09  En3
 BYTE   N09  Gs3
 BYTE   W12
 BYTE   N32  Bn2  v108
 BYTE   N32  En3
 BYTE   N32  Gn3
 BYTE   W36
 BYTE   N28  Dn3
 BYTE   N28  Fs3
 BYTE   N28  An3
 BYTE   W24
//  #06 //005   ----------------------------------------
 BYTE   W06
 BYTE   N32  Bn2
 BYTE   N32  En3
 BYTE   N32  Gn3
 BYTE   W36
 BYTE   N28  Cs3
 BYTE   N28  En3
 BYTE   N28  An3
 BYTE   W30
 BYTE   N32  Bn2
 BYTE   N32  En3
 BYTE   N32  Gn3
 BYTE   W24
//  #06 //006   ----------------------------------------
 BYTE   W12
 BYTE   N56  Dn3
 BYTE   N56  Fs3
 BYTE   N56  An3
 BYTE   W60
 BYTE   N92  Dn3  v120
 BYTE   N92  Fn3
 BYTE   N92  An3
 BYTE   W24
//  #06 //007   ----------------------------------------
 BYTE   W72
 BYTE   N16  Bn2
 BYTE   N16  En3
 BYTE   N16  Gs3
 BYTE   W18
 BYTE   Bn2
 BYTE   N16  En3
 BYTE   N16  Gs3
 BYTE   W06
//  #06 //008   ----------------------------------------
 BYTE   W12
 BYTE   N09  Bn2
 BYTE   N09  En3
 BYTE   N09  Gs3
 BYTE   W12
 BYTE   N16  Cn3
 BYTE   N16  En3
 BYTE   N16  An3
 BYTE   W18
 BYTE   Cn3
 BYTE   N16  En3
 BYTE   N16  An3
 BYTE   W18
 BYTE   N09  Cn3
 BYTE   N09  En3
 BYTE   N09  An3
 BYTE   W12
 BYTE   N44  An2
 BYTE   N44  Dn3
 BYTE   N44  Fn3
 BYTE   W24
//  #06 //009   ----------------------------------------
Label_0184D6E7:
 BYTE   W24
 BYTE   N44  Bn2  v120
 BYTE   N44  En3
 BYTE   N44  Gn3
 BYTE   W48
 BYTE   N92  Cn3
 BYTE   N92  En3
 BYTE   N92  An3
 BYTE   W24
 BYTE   PEND 
//  #06 //010   ----------------------------------------
Label_0184D6F8:
 BYTE   W72
 BYTE   N44  An2  v120
 BYTE   N44  Dn3
 BYTE   N44  Fn3
 BYTE   W24
 BYTE   PEND 
//  #06 //011   ----------------------------------------
 BYTE   PATT
  POIN2 Label_0184D6E7
//  #06 //012   ----------------------------------------
 BYTE   PATT
  POIN2 Label_0184D6F8
//  #06 //013   ----------------------------------------
 BYTE   W24
 BYTE   N44  Bn2  v120
 BYTE   N44  En3
 BYTE   N44  Gn3
 BYTE   W48
 BYTE   Cn3
 BYTE   N44  En3
 BYTE   N44  An3
 BYTE   W24
//  #06 //014   ----------------------------------------
 BYTE   W24
 BYTE   Bn2
 BYTE   N44  En3
 BYTE   N44  Gs3
 BYTE   W48
 BYTE   An2
 BYTE   N44  Dn3
 BYTE   N44  Fn3
 BYTE   W24
//  #06 //015   ----------------------------------------
 BYTE   PATT
  POIN2 Label_0184D6E7
//  #06 //016   ----------------------------------------
 BYTE   PATT
  POIN2 Label_0184D6F8
//  #06 //017   ----------------------------------------
 BYTE   W24
 BYTE   N44  Bn2  v120
 BYTE   N44  En3
 BYTE   N44  Gn3
 BYTE   W48
 BYTE   Dn3
 BYTE   N44  En3
 BYTE   N44  An3
 BYTE   W24
//  #06 //018   ----------------------------------------
 BYTE   W24
 BYTE   Cs3
 BYTE   N44  En3
 BYTE   N44  An3
 BYTE   W48
 BYTE   N32  Bn2  v127
 BYTE   N32  En3
 BYTE   N32  Gn3
 BYTE   W24
//  #06 //019   ----------------------------------------
 BYTE   W12
 BYTE   N28  Dn3
 BYTE   N28  Fs3
 BYTE   N28  An3
 BYTE   W30
 BYTE   N32  Bn2
 BYTE   N32  En3
 BYTE   N32  Gn3
 BYTE   W36
 BYTE   N28  Cs3
 BYTE   N28  En3
 BYTE   N28  An3
 BYTE   W18
//  #06 //020   ----------------------------------------
 BYTE   W12
 BYTE   N32  Bn2
 BYTE   N32  En3
 BYTE   N32  Gn3
 BYTE   W36
 BYTE   N56  Dn3
 BYTE   N56  Fs3
 BYTE   N56  An3
 BYTE   W48
//  #06 //021   ----------------------------------------
 BYTE   W12
 BYTE   N92  Dn3  v120
 BYTE   N92  Fn3
 BYTE   N92  An3
 BYTE   W84
//  #06 //022   ----------------------------------------
 BYTE   W12
 BYTE   N16  Bn2
 BYTE   N16  En3
 BYTE   N16  An3
 BYTE   W18
 BYTE   Bn2
 BYTE   N16  En3
 BYTE   N16  An3
 BYTE   W18
 BYTE   N09  Bn2
 BYTE   N09  En3
 BYTE   N09  An3
 BYTE   W12
 BYTE   N16  Bn2
 BYTE   N16  En3
 BYTE   N16  Gs3
 BYTE   W18
 BYTE   Bn2
 BYTE   N16  En3
 BYTE   N16  Gs3
 BYTE   W18
//  #06 //023   ----------------------------------------
 BYTE   N09  Bn2
 BYTE   N09  En3
 BYTE   N09  Gs3
 BYTE   W12
 BYTE   N32  Bn2
 BYTE   N32  En3
 BYTE   N32  Gn3
 BYTE   W36
 BYTE   N28  Dn3
 BYTE   N28  Fs3
 BYTE   N28  An3
 BYTE   W30
 BYTE   N32  Bn2
 BYTE   N32  En3
 BYTE   N32  Gn3
 BYTE   W18
//  #06 //024   ----------------------------------------
 BYTE   W18
 BYTE   N28  Cs3
 BYTE   N28  En3
 BYTE   N28  An3
 BYTE   W30
 BYTE   N32  Cs3
 BYTE   N32  Fs3
 BYTE   N32  An3
 BYTE   W36
 BYTE   N28  En3
 BYTE   N28  Gs3
 BYTE   N28  Bn3
 BYTE   W12
//  #06 //025   ----------------------------------------
 BYTE   W18
 BYTE   N32  Cs3
 BYTE   N32  Fs3
 BYTE   N32  An3
 BYTE   W36
 BYTE   N28  Ds3
 BYTE   N28  Fs3
 BYTE   N28  Bn3
 BYTE   W30
 BYTE   N32  Ds3
 BYTE   N32  Gs3
 BYTE   N32  Bn3
 BYTE   W12
//  #06 //026   ----------------------------------------
 BYTE   W24
 BYTE   N28  Fs3
 BYTE   N28  As3
 BYTE   N28  Cs4
 BYTE   W30
 BYTE   N32  Ds3
 BYTE   N32  Gs3
 BYTE   N32  Bn3
 BYTE   W36
 BYTE   N28  Fn3
 BYTE   N28  Gs3
 BYTE   N28  Cs4
 BYTE   W06
//  #06 //027   ----------------------------------------
 BYTE   W24
 BYTE   W02
 BYTE   N92  An2
 BYTE   N92  Cn3
 BYTE   N92  En3
 BYTE   N92  Bn3
 BYTE   W68
 BYTE   W02
//  #06 //028   ----------------------------------------
 BYTE   W24
 BYTE   W02
 BYTE   BEND   c_v+0
 BYTE   N92  Dn3
 BYTE   N92  Fn3
 BYTE   N92  An3
 BYTE   N92  En4
 BYTE   W68
 BYTE   W02
//  #06 //029   ----------------------------------------
 BYTE   W24
 BYTE   W02
 BYTE   BEND   c_v-11
 BYTE   N92  Dn3
 BYTE   N92  Fn3
 BYTE   N92  Gs3
 BYTE   N92  Bn3
 BYTE   W02
 BYTE   BEND   c_v-10
 BYTE   W01
 BYTE   BEND   c_v-9
 BYTE   W02
 BYTE   BEND   c_v-8
 BYTE   W01
 BYTE   BEND   c_v-8
 BYTE   W02
 BYTE   BEND   c_v-7
 BYTE   W01
 BYTE   BEND   c_v-6
 BYTE   W02
 BYTE   BEND   c_v-6
 BYTE   W01
 BYTE   BEND   c_v-5
 BYTE   W02
 BYTE   BEND   c_v-5
 BYTE   W01
 BYTE   BEND   c_v-5
 BYTE   W02
 BYTE   BEND   c_v-4
 BYTE   W01
 BYTE   BEND   c_v-4
 BYTE   W02
 BYTE   BEND   c_v-4
 BYTE   W01
 BYTE   BEND   c_v-3
 BYTE   W02
 BYTE   BEND   c_v-3
 BYTE   W01
 BYTE   BEND   c_v-3
 BYTE   W02
 BYTE   BEND   c_v-3
 BYTE   W01
 BYTE   BEND   c_v-3
 BYTE   W02
 BYTE   BEND   c_v-2
 BYTE   W01
 BYTE   BEND   c_v-2
 BYTE   W02
 BYTE   BEND   c_v-2
 BYTE   W01
 BYTE   BEND   c_v-2
 BYTE   W02
 BYTE   BEND   c_v-2
 BYTE   W01
 BYTE   BEND   c_v-2
 BYTE   W03
 BYTE   BEND   c_v-1
 BYTE   W03
 BYTE   BEND   c_v-1
 BYTE   W03
 BYTE   BEND   c_v-1
 BYTE   W03
 BYTE   BEND   c_v-1
 BYTE   W06
 BYTE   BEND   c_v-1
 BYTE   W06
 BYTE   BEND   c_v-1
 BYTE   W10
//  #06 //030   ----------------------------------------
 BYTE   W02
 BYTE   BEND   c_v+0
 BYTE   W24
 BYTE   BEND   c_v-11
 BYTE   N92  Cn3
 BYTE   N92  Ds3
 BYTE   N92  Fs3
 BYTE   N92  An3
 BYTE   W02
 BYTE   BEND   c_v-10
 BYTE   W01
 BYTE   BEND   c_v-9
 BYTE   W02
 BYTE   BEND   c_v-8
 BYTE   W01
 BYTE   BEND   c_v-8
 BYTE   W02
 BYTE   BEND   c_v-7
 BYTE   W01
 BYTE   BEND   c_v-6
 BYTE   W02
 BYTE   BEND   c_v-6
 BYTE   W01
 BYTE   BEND   c_v-5
 BYTE   W02
 BYTE   BEND   c_v-5
 BYTE   W01
 BYTE   BEND   c_v-5
 BYTE   W02
 BYTE   BEND   c_v-4
 BYTE   W01
 BYTE   BEND   c_v-4
 BYTE   W02
 BYTE   BEND   c_v-4
 BYTE   W01
 BYTE   BEND   c_v-3
 BYTE   W02
 BYTE   BEND   c_v-3
 BYTE   W01
 BYTE   BEND   c_v-3
 BYTE   W02
 BYTE   BEND   c_v-3
 BYTE   W01
 BYTE   BEND   c_v-3
 BYTE   W02
 BYTE   BEND   c_v-2
 BYTE   W01
 BYTE   BEND   c_v-2
 BYTE   W02
 BYTE   BEND   c_v-2
 BYTE   W01
 BYTE   BEND   c_v-2
 BYTE   W02
 BYTE   BEND   c_v-2
 BYTE   W01
 BYTE   BEND   c_v-2
 BYTE   W03
 BYTE   BEND   c_v-1
 BYTE   W03
 BYTE   BEND   c_v-1
 BYTE   W03
 BYTE   BEND   c_v-1
 BYTE   W03
 BYTE   BEND   c_v-1
 BYTE   W06
 BYTE   BEND   c_v-1
 BYTE   W06
 BYTE   BEND   c_v-1
 BYTE   W10
//  #06 //031   ----------------------------------------
 BYTE   W02
 BYTE   BEND   c_v+0
 BYTE   W24
 BYTE   N32  Dn3
 BYTE   N32  Gn3
 BYTE   W36
 BYTE   N22  Dn3
 BYTE   N22  An3
 BYTE   W24
 BYTE   N32  Dn3
 BYTE   N32  As3
 BYTE   W10
//  #06 //032   ----------------------------------------
 BYTE   W24
 BYTE   W02
 BYTE   N22  Dn3
 BYTE   N22  Cn4
 BYTE   W24
 BYTE   N32  As3
 BYTE   N32  Dn4
 BYTE   W36
 BYTE   N22  Gn3
 BYTE   N22  Cn4
 BYTE   W10
//  #06 //033   ----------------------------------------
 BYTE   W14
 BYTE   N32  Gn3
 BYTE   N32  As3
 BYTE   W36
 BYTE   N22  Gn3
 BYTE   N22  An3
 BYTE   W24
 BYTE   BEND   c_v-11
 BYTE   N32  Dn3
 BYTE   N32  En3
 BYTE   N32  An3
 BYTE   W02
 BYTE   BEND   c_v-8
 BYTE   W01
 BYTE   BEND   c_v-7
 BYTE   W02
 BYTE   BEND   c_v-5
 BYTE   W01
 BYTE   BEND   c_v-4
 BYTE   W02
 BYTE   BEND   c_v-4
 BYTE   W01
 BYTE   BEND   c_v-3
 BYTE   W02
 BYTE   BEND   c_v-2
 BYTE   W01
 BYTE   BEND   c_v-2
 BYTE   W02
 BYTE   BEND   c_v-2
 BYTE   W01
 BYTE   BEND   c_v-1
 BYTE   W02
 BYTE   BEND   c_v-1
 BYTE   W01
 BYTE   BEND   c_v-1
 BYTE   W03
 BYTE   BEND   c_v-1
 BYTE   W01
//  #06 //034   ----------------------------------------
 BYTE   W01
 BYTE   BEND   c_v-1
 BYTE   W04
 BYTE   BEND   c_v+0
 BYTE   W09
 BYTE   N22  Cs3
 BYTE   N22  En3
 BYTE   N22  An3
 BYTE   W24
 BYTE   N32  Dn3
 BYTE   N32  Gn3
 BYTE   W36
 BYTE   N22  Dn3
 BYTE   N22  An3
 BYTE   W22
//  #06 //035   ----------------------------------------
 BYTE   W02
 BYTE   N32  Dn3
 BYTE   N32  As3
 BYTE   W36
 BYTE   N22  Dn3
 BYTE   N22  Cn4
 BYTE   W24
 BYTE   N32  As3
 BYTE   N32  Dn4
 BYTE   W32
 BYTE   W02
//  #06 //036   ----------------------------------------
 BYTE   W02
 BYTE   N22  Gn3
 BYTE   N22  Cn4
 BYTE   W24
 BYTE   N32  Gn3
 BYTE   N32  As3
 BYTE   W36
 BYTE   N22  Gn3
 BYTE   N22  An3
 BYTE   W24
 BYTE   N04
 BYTE   W06
 BYTE   Dn4
 BYTE   W04
//  #06 //037   ----------------------------------------
 BYTE   W02
 BYTE   En4
 BYTE   W06
 BYTE   An4
 BYTE   W06
 BYTE   En4
 BYTE   W06
 BYTE   Dn4
 BYTE   W06
 BYTE   An3
 BYTE   W06
 BYTE   Dn4
 BYTE   W06
 BYTE   En4
 BYTE   W06
 BYTE   An4
 BYTE   W06
 BYTE   An3
 BYTE   W06
 BYTE   Cs4
 BYTE   W06
 BYTE   En4
 BYTE   W06
 BYTE   An4
 BYTE   W06
 BYTE   An3
 BYTE   W06
 BYTE   En4
 BYTE   W06
 BYTE   An4
 BYTE   W06
 BYTE   Cs5
 BYTE   W04
//  #06 //038   ----------------------------------------
 BYTE   W02
 BYTE   En5
 BYTE   W06
 BYTE   En4
 BYTE   W06
 BYTE   N92  An2
 BYTE   N92  Cn3
 BYTE   N92  En3
 BYTE   N92  Bn3
 BYTE   W80
 BYTE   W02
//  #06 //039   ----------------------------------------
 BYTE   W14
 BYTE   BEND   c_v+0
 BYTE   N92  Dn3
 BYTE   N92  Fn3
 BYTE   N92  An3
 BYTE   N92  En4
 BYTE   W80
 BYTE   W02
//  #06 //040   ----------------------------------------
 BYTE   W14
 BYTE   BEND   c_v-11
 BYTE   N92  Dn3
 BYTE   N92  Fn3
 BYTE   N92  Gs3
 BYTE   N92  Bn3
 BYTE   W02
 BYTE   BEND   c_v-10
 BYTE   W01
 BYTE   BEND   c_v-9
 BYTE   W02
 BYTE   BEND   c_v-8
 BYTE   W01
 BYTE   BEND   c_v-8
 BYTE   W02
 BYTE   BEND   c_v-7
 BYTE   W01
 BYTE   BEND   c_v-6
 BYTE   W02
 BYTE   BEND   c_v-6
 BYTE   W01
 BYTE   BEND   c_v-5
 BYTE   W02
 BYTE   BEND   c_v-5
 BYTE   W01
 BYTE   BEND   c_v-5
 BYTE   W02
 BYTE   BEND   c_v-4
 BYTE   W01
 BYTE   BEND   c_v-4
 BYTE   W02
 BYTE   BEND   c_v-4
 BYTE   W01
 BYTE   BEND   c_v-3
 BYTE   W02
 BYTE   BEND   c_v-3
 BYTE   W01
 BYTE   BEND   c_v-3
 BYTE   W02
 BYTE   BEND   c_v-3
 BYTE   W01
 BYTE   BEND   c_v-3
 BYTE   W02
 BYTE   BEND   c_v-2
 BYTE   W01
 BYTE   BEND   c_v-2
 BYTE   W02
 BYTE   BEND   c_v-2
 BYTE   W01
 BYTE   BEND   c_v-2
 BYTE   W02
 BYTE   BEND   c_v-2
 BYTE   W01
 BYTE   BEND   c_v-2
 BYTE   W03
 BYTE   BEND   c_v-1
 BYTE   W03
 BYTE   BEND   c_v-1
 BYTE   W03
 BYTE   BEND   c_v-1
 BYTE   W03
 BYTE   BEND   c_v-1
 BYTE   W06
 BYTE   BEND   c_v-1
 BYTE   W06
 BYTE   BEND   c_v-1
 BYTE   W12
 BYTE   BEND   c_v+0
 BYTE   W10
//  #06 //041   ----------------------------------------
 BYTE   W14
 BYTE   BEND   c_v-11
 BYTE   N92  Cn3
 BYTE   N92  Ds3
 BYTE   N92  Fs3
 BYTE   N92  An3
 BYTE   W02
 BYTE   BEND   c_v-10
 BYTE   W01
 BYTE   BEND   c_v-9
 BYTE   W02
 BYTE   BEND   c_v-8
 BYTE   W01
 BYTE   BEND   c_v-8
 BYTE   W02
 BYTE   BEND   c_v-7
 BYTE   W01
 BYTE   BEND   c_v-6
 BYTE   W02
 BYTE   BEND   c_v-6
 BYTE   W01
 BYTE   BEND   c_v-5
 BYTE   W02
 BYTE   BEND   c_v-5
 BYTE   W01
 BYTE   BEND   c_v-5
 BYTE   W02
 BYTE   BEND   c_v-4
 BYTE   W01
 BYTE   BEND   c_v-4
 BYTE   W02
 BYTE   BEND   c_v-4
 BYTE   W01
 BYTE   BEND   c_v-3
 BYTE   W02
 BYTE   BEND   c_v-3
 BYTE   W01
 BYTE   BEND   c_v-3
 BYTE   W02
 BYTE   BEND   c_v-3
 BYTE   W01
 BYTE   BEND   c_v-3
 BYTE   W02
 BYTE   BEND   c_v-2
 BYTE   W01
 BYTE   BEND   c_v-2
 BYTE   W02
 BYTE   BEND   c_v-2
 BYTE   W01
 BYTE   BEND   c_v-2
 BYTE   W02
 BYTE   BEND   c_v-2
 BYTE   W01
 BYTE   BEND   c_v-2
 BYTE   W03
 BYTE   BEND   c_v-1
 BYTE   W03
 BYTE   BEND   c_v-1
 BYTE   W03
 BYTE   BEND   c_v-1
 BYTE   W03
 BYTE   BEND   c_v-1
 BYTE   W06
 BYTE   BEND   c_v-1
 BYTE   W06
 BYTE   BEND   c_v-1
 BYTE   W12
 BYTE   BEND   c_v+0
 BYTE   W10
//  #06 //042   ----------------------------------------
 BYTE   W11
 BYTE   GoTo
  POIN2 Label_0184D61A
//  #06 //043   ----------------------------------------
 BYTE   VOICE   62
 BYTE   VOL   20*song19_mvl/mxv
 BYTE   PAN   c_v-10
 BYTE   BEND   c_v+0
 BYTE   FINE

//**************** Track 7 (Midi-Chn.6) ****************//

song19_007:
//  #07 //000   ----------------------------------------
 BYTE   KEYSH   song19_key+0
Label_0184DFC2:
 BYTE   VOICE   68
 BYTE   VOL   20*song19_mvl/mxv
 BYTE   PAN   c_v+0
 BYTE   BEND   c_v+0
 BYTE   W96
//  #07 //001   ----------------------------------------
 BYTE   W96
//  #07 //002   ----------------------------------------
 BYTE   W96
//  #07 //003   ----------------------------------------
 BYTE   W96
//  #07 //004   ----------------------------------------
 BYTE   W96
//  #07 //005   ----------------------------------------
 BYTE   W96
//  #07 //006   ----------------------------------------
 BYTE   W96
//  #07 //007   ----------------------------------------
 BYTE   W96
//  #07 //008   ----------------------------------------
 BYTE   W96
//  #07 //009   ----------------------------------------
 BYTE   W96
//  #07 //010   ----------------------------------------
 BYTE   W96
//  #07 //011   ----------------------------------------
 BYTE   W96
//  #07 //012   ----------------------------------------
 BYTE   W96
//  #07 //013   ----------------------------------------
 BYTE   W96
//  #07 //014   ----------------------------------------
 BYTE   W96
//  #07 //015   ----------------------------------------
 BYTE   W96
//  #07 //016   ----------------------------------------
 BYTE   W96
//  #07 //017   ----------------------------------------
 BYTE   W96
//  #07 //018   ----------------------------------------
 BYTE   W96
//  #07 //019   ----------------------------------------
 BYTE   W96
//  #07 //020   ----------------------------------------
 BYTE   W96
//  #07 //021   ----------------------------------------
 BYTE   W96
//  #07 //022   ----------------------------------------
 BYTE   W96
//  #07 //023   ----------------------------------------
 BYTE   W96
//  #07 //024   ----------------------------------------
 BYTE   W96
//  #07 //025   ----------------------------------------
 BYTE   W96
//  #07 //026   ----------------------------------------
 BYTE   W96
//  #07 //027   ----------------------------------------
 BYTE   W96
//  #07 //028   ----------------------------------------
 BYTE   W96
//  #07 //029   ----------------------------------------
 BYTE   W96
//  #07 //030   ----------------------------------------
 BYTE   W96
//  #07 //031   ----------------------------------------
 BYTE   W24
 BYTE   W02
 BYTE   N04  Gn3  v127
 BYTE   W06
 BYTE   An3
 BYTE   W06
 BYTE   N22  As3
 BYTE   W24
 BYTE   N16  An3
 BYTE   W24
 BYTE   N32  As3
 BYTE   W10
//  #07 //032   ----------------------------------------
 BYTE   W24
 BYTE   W02
 BYTE   N16  Cn4
 BYTE   W24
 BYTE   N32  Dn4
 BYTE   W36
 BYTE   N16  Cs4
 BYTE   W10
//  #07 //033   ----------------------------------------
 BYTE   W14
 BYTE   N32  Gn3
 BYTE   W36
 BYTE   N16  Fs3
 BYTE   W24
 BYTE   N32  An3
 BYTE   W22
//  #07 //034   ----------------------------------------
 BYTE   W14
 BYTE   N16
 BYTE   W24
 BYTE   N04  Gn3
 BYTE   W06
 BYTE   An3
 BYTE   W06
 BYTE   N22  As3
 BYTE   W24
 BYTE   N16  An3
 BYTE   W22
//  #07 //035   ----------------------------------------
 BYTE   W02
 BYTE   N32  As3
 BYTE   W36
 BYTE   N16  Cn4
 BYTE   W24
 BYTE   N32  Dn4
 BYTE   W32
 BYTE   W02
//  #07 //036   ----------------------------------------
 BYTE   W02
 BYTE   N16  Cs4
 BYTE   W24
 BYTE   N32  Gn3
 BYTE   W36
 BYTE   N16  Fs3
 BYTE   W24
 BYTE   N32  An3
 BYTE   W10
//  #07 //037   ----------------------------------------
 BYTE   W24
 BYTE   W02
 BYTE   N16
 BYTE   W24
 BYTE   N32
 BYTE   W36
 BYTE   N16
 BYTE   W10
//  #07 //038   ----------------------------------------
 BYTE   W96
//  #07 //039   ----------------------------------------
 BYTE   W96
//  #07 //040   ----------------------------------------
 BYTE   W96
//  #07 //041   ----------------------------------------
 BYTE   W96
//  #07 //042   ----------------------------------------
 BYTE   W11
 BYTE   GoTo
  POIN2 Label_0184DFC2
//  #07 //043   ----------------------------------------
 BYTE   VOICE   68
 BYTE   VOL   20*song19_mvl/mxv
 BYTE   PAN   c_v+0
 BYTE   BEND   c_v+0
 BYTE   FINE

//**************** Track 8 (Midi-Chn.7) ****************//

song19_008:
//  #08 //000   ----------------------------------------
 BYTE   KEYSH   song19_key+0
Label_018BE302:
 BYTE   VOICE   4
 BYTE   VOL   10*song19_mvl/mxv
 BYTE   PAN   c_v+50
 BYTE   BEND   c_v+0
 BYTE   W02
 BYTE   N04  En6  v108
 BYTE   W06
 BYTE   En5
 BYTE   W06
 BYTE   Bn5
 BYTE   W06
 BYTE   En6
 BYTE   W06
 BYTE   En5
 BYTE   W06
 BYTE   En6
 BYTE   W06
 BYTE   Dn6
 BYTE   W06
 BYTE   Dn5
 BYTE   W06
 BYTE   An5
 BYTE   W06
 BYTE   Dn6
 BYTE   W06
 BYTE   Dn5
 BYTE   W06
 BYTE   En6
 BYTE   W06
 BYTE   En5
 BYTE   W06
 BYTE   Bn5
 BYTE   W06
 BYTE   En6
 BYTE   W06
 BYTE   En5
 BYTE   W04
//  #08 //001   ----------------------------------------
 BYTE   W02
 BYTE   Bn5
 BYTE   W06
 BYTE   An5
 BYTE   W06
 BYTE   En5
 BYTE   W06
 BYTE   En6
 BYTE   W06
 BYTE   En5
 BYTE   W06
 BYTE   An5
 BYTE   W06
 BYTE   En6
 BYTE   W06
 BYTE   En5
 BYTE   W06
 BYTE   Bn5
 BYTE   W06
 BYTE   En6
 BYTE   W06
 BYTE   En5
 BYTE   W06
 BYTE   En6
 BYTE   W06
 BYTE   Dn6
 BYTE   W06
 BYTE   Dn5
 BYTE   W06
 BYTE   An5
 BYTE   W06
 BYTE   Dn6
 BYTE   W04
//  #08 //002   ----------------------------------------
 BYTE   W02
 BYTE   Dn5
 BYTE   W06
 BYTE   N04
 BYTE   W06
 BYTE   Fs5
 BYTE   W06
 BYTE   An5
 BYTE   W06
 BYTE   Dn6
 BYTE   W06
 BYTE   Fs5
 BYTE   W64
//  #08 //003   ----------------------------------------
 BYTE   W36
 BYTE   W02
 BYTE   Bn5
 BYTE   W06
 BYTE   En5
 BYTE   W06
 BYTE   An5
 BYTE   W06
 BYTE   Bn5
 BYTE   W06
 BYTE   En6
 BYTE   W06
 BYTE   En5
 BYTE   W06
 BYTE   Bn5
 BYTE   W06
 BYTE   En5
 BYTE   W06
 BYTE   Bn5
 BYTE   W06
 BYTE   En5
 BYTE   W04
//  #08 //004   ----------------------------------------
 BYTE   W02
 BYTE   Gs5
 BYTE   W06
 BYTE   Bn5
 BYTE   W06
 BYTE   En6
 BYTE   W06
 BYTE   En5
 BYTE   W06
 BYTE   Bn5
 BYTE   W06
 BYTE   En5
 BYTE   W06
 BYTE   En6
 BYTE   W06
 BYTE   En5
 BYTE   W06
 BYTE   Bn5
 BYTE   W06
 BYTE   En6
 BYTE   W06
 BYTE   En5
 BYTE   W06
 BYTE   En6
 BYTE   W06
 BYTE   Dn6
 BYTE   W06
 BYTE   Dn5
 BYTE   W06
 BYTE   An5
 BYTE   W06
 BYTE   Dn6
 BYTE   W04
//  #08 //005   ----------------------------------------
 BYTE   W02
 BYTE   Dn5
 BYTE   W06
 BYTE   En6
 BYTE   W06
 BYTE   En5
 BYTE   W06
 BYTE   Bn5
 BYTE   W06
 BYTE   En6
 BYTE   W06
 BYTE   En5
 BYTE   W06
 BYTE   Bn5
 BYTE   W06
 BYTE   An5
 BYTE   W06
 BYTE   En5
 BYTE   W06
 BYTE   En6
 BYTE   W06
 BYTE   En5
 BYTE   W06
 BYTE   An5
 BYTE   W06
 BYTE   En6
 BYTE   W06
 BYTE   En5
 BYTE   W06
 BYTE   Bn5
 BYTE   W06
 BYTE   En6
 BYTE   W04
//  #08 //006   ----------------------------------------
 BYTE   W02
 BYTE   En5
 BYTE   W06
 BYTE   En6
 BYTE   W06
 BYTE   Dn6
 BYTE   W06
 BYTE   Dn5
 BYTE   W06
 BYTE   An5
 BYTE   W06
 BYTE   Dn6
 BYTE   W06
 BYTE   Dn5
 BYTE   W06
 BYTE   N04
 BYTE   W06
 BYTE   Fs5
 BYTE   W06
 BYTE   An5
 BYTE   W06
 BYTE   Dn6
 BYTE   W06
 BYTE   Fs5
 BYTE   W28
//  #08 //007   ----------------------------------------
 BYTE   W72
 BYTE   W02
 BYTE   Bn5
 BYTE   W06
 BYTE   En5
 BYTE   W06
 BYTE   Gs5
 BYTE   W06
 BYTE   Bn5
 BYTE   W04
//  #08 //008   ----------------------------------------
 BYTE   W02
 BYTE   En5
 BYTE   W06
 BYTE   Gs5
 BYTE   W06
 BYTE   Bn5
 BYTE   W06
 BYTE   En5
 BYTE   W06
 BYTE   Cn6
 BYTE   W06
 BYTE   En5
 BYTE   W06
 BYTE   An5
 BYTE   W06
 BYTE   Cn6
 BYTE   W06
 BYTE   En5
 BYTE   W06
 BYTE   An5
 BYTE   W06
 BYTE   Cn6
 BYTE   W06
 BYTE   En5
 BYTE   W06
 BYTE   Dn4
 BYTE   W06
 BYTE   Fn4
 BYTE   W06
 BYTE   An4
 BYTE   W06
 BYTE   Dn5
 BYTE   W04
//  #08 //009   ----------------------------------------
Label_018BE3F7:
 BYTE   W02
 BYTE   N04  Fn5  v108
 BYTE   W06
 BYTE   An5
 BYTE   W06
 BYTE   Dn6
 BYTE   W06
 BYTE   Dn5
 BYTE   W06
 BYTE   En4
 BYTE   W06
 BYTE   Gn4
 BYTE   W06
 BYTE   Bn4
 BYTE   W06
 BYTE   En5
 BYTE   W06
 BYTE   Gn5
 BYTE   W06
 BYTE   Bn5
 BYTE   W06
 BYTE   En6
 BYTE   W06
 BYTE   En5
 BYTE   W06
 BYTE   An3
 BYTE   W06
 BYTE   Cn4
 BYTE   W06
 BYTE   En4
 BYTE   W06
 BYTE   An4
 BYTE   W04
 BYTE   PEND 
//  #08 //010   ----------------------------------------
Label_018BE41B:
 BYTE   W02
 BYTE   N04  Cn5  v108
 BYTE   W06
 BYTE   An4
 BYTE   W06
 BYTE   Cn5
 BYTE   W06
 BYTE   En5
 BYTE   W06
 BYTE   An5
 BYTE   W06
 BYTE   Cn5
 BYTE   W06
 BYTE   En5
 BYTE   W06
 BYTE   An5
 BYTE   W06
 BYTE   En6
 BYTE   W06
 BYTE   Cn6
 BYTE   W06
 BYTE   An5
 BYTE   W06
 BYTE   En5
 BYTE   W06
 BYTE   Dn4
 BYTE   W06
 BYTE   Fn4
 BYTE   W06
 BYTE   An4
 BYTE   W06
 BYTE   Dn5
 BYTE   W04
 BYTE   PEND 
//  #08 //011   ----------------------------------------
 BYTE   PATT
  POIN2 Label_018BE3F7
//  #08 //012   ----------------------------------------
 BYTE   PATT
  POIN2 Label_018BE41B
//  #08 //013   ----------------------------------------
 BYTE   W02
 BYTE   N04  Fn5  v108
 BYTE   W06
 BYTE   An5
 BYTE   W06
 BYTE   Dn6
 BYTE   W06
 BYTE   Dn5
 BYTE   W06
 BYTE   En4
 BYTE   W06
 BYTE   Gn4
 BYTE   W06
 BYTE   Bn4
 BYTE   W06
 BYTE   En5
 BYTE   W06
 BYTE   Gn5
 BYTE   W06
 BYTE   Bn5
 BYTE   W06
 BYTE   En6
 BYTE   W06
 BYTE   En5
 BYTE   W06
 BYTE   En4
 BYTE   W06
 BYTE   An4
 BYTE   W06
 BYTE   Cn5
 BYTE   W06
 BYTE   En5
 BYTE   W04
//  #08 //014   ----------------------------------------
 BYTE   W02
 BYTE   An5
 BYTE   W06
 BYTE   Cn5
 BYTE   W06
 BYTE   En5
 BYTE   W06
 BYTE   An5
 BYTE   W06
 BYTE   Gs5
 BYTE   W06
 BYTE   En5
 BYTE   W06
 BYTE   Gs5
 BYTE   W06
 BYTE   Bn5
 BYTE   W06
 BYTE   En6
 BYTE   W06
 BYTE   Bn5
 BYTE   W06
 BYTE   Gs5
 BYTE   W06
 BYTE   En5
 BYTE   W06
 BYTE   Dn4
 BYTE   W06
 BYTE   Fn4
 BYTE   W06
 BYTE   An4
 BYTE   W06
 BYTE   Dn5
 BYTE   W04
//  #08 //015   ----------------------------------------
 BYTE   PATT
  POIN2 Label_018BE3F7
//  #08 //016   ----------------------------------------
 BYTE   PATT
  POIN2 Label_018BE41B
//  #08 //017   ----------------------------------------
 BYTE   W02
 BYTE   N04  Fn5  v108
 BYTE   W06
 BYTE   An5
 BYTE   W06
 BYTE   Dn6
 BYTE   W06
 BYTE   Dn5
 BYTE   W06
 BYTE   En4
 BYTE   W06
 BYTE   Gn4
 BYTE   W06
 BYTE   Bn4
 BYTE   W06
 BYTE   En5
 BYTE   W06
 BYTE   Gn5
 BYTE   W06
 BYTE   Bn5
 BYTE   W06
 BYTE   En6
 BYTE   W06
 BYTE   En5
 BYTE   W06
 BYTE   An4
 BYTE   W06
 BYTE   Dn5
 BYTE   W06
 BYTE   En5
 BYTE   W06
 BYTE   An5
 BYTE   W04
//  #08 //018   ----------------------------------------
 BYTE   W02
 BYTE   An4
 BYTE   W06
 BYTE   En5
 BYTE   W06
 BYTE   An4
 BYTE   W06
 BYTE   Dn5
 BYTE   W06
 BYTE   En5
 BYTE   W06
 BYTE   An4
 BYTE   W06
 BYTE   Cs5
 BYTE   W06
 BYTE   En5
 BYTE   W06
 BYTE   An5
 BYTE   W06
 BYTE   An4
 BYTE   W06
 BYTE   En5
 BYTE   W06
 BYTE   Cs5
 BYTE   W06
 BYTE   En6
 BYTE   W06
 BYTE   En5
 BYTE   W06
 BYTE   Bn5
 BYTE   W06
 BYTE   En6
 BYTE   W04
//  #08 //019   ----------------------------------------
 BYTE   W02
 BYTE   En5
 BYTE   W06
 BYTE   En6
 BYTE   W06
 BYTE   Dn6
 BYTE   W06
 BYTE   Dn5
 BYTE   W06
 BYTE   An5
 BYTE   W06
 BYTE   Dn6
 BYTE   W06
 BYTE   Dn5
 BYTE   W06
 BYTE   En6
 BYTE   W06
 BYTE   En5
 BYTE   W06
 BYTE   Bn5
 BYTE   W06
 BYTE   En6
 BYTE   W06
 BYTE   En5
 BYTE   W06
 BYTE   Bn5
 BYTE   W06
 BYTE   An5
 BYTE   W06
 BYTE   En5
 BYTE   W06
 BYTE   En6
 BYTE   W04
//  #08 //020   ----------------------------------------
 BYTE   W02
 BYTE   En5
 BYTE   W06
 BYTE   An5
 BYTE   W06
 BYTE   En6
 BYTE   W06
 BYTE   En5
 BYTE   W06
 BYTE   Bn5
 BYTE   W06
 BYTE   En6
 BYTE   W06
 BYTE   En5
 BYTE   W06
 BYTE   En6
 BYTE   W06
 BYTE   Dn6
 BYTE   W06
 BYTE   Dn5
 BYTE   W06
 BYTE   An5
 BYTE   W06
 BYTE   Dn6
 BYTE   W06
 BYTE   Dn5
 BYTE   W06
 BYTE   N04
 BYTE   W06
 BYTE   Fs5
 BYTE   W06
 BYTE   An5
 BYTE   W04
//  #08 //021   ----------------------------------------
 BYTE   W02
 BYTE   Dn6
 BYTE   W06
 BYTE   Fs5
 BYTE   W88
//  #08 //022   ----------------------------------------
 BYTE   W14
 BYTE   Bn5
 BYTE   W06
 BYTE   En5
 BYTE   W06
 BYTE   An5
 BYTE   W06
 BYTE   Bn5
 BYTE   W06
 BYTE   En6
 BYTE   W06
 BYTE   En5
 BYTE   W06
 BYTE   Bn5
 BYTE   W06
 BYTE   En5
 BYTE   W06
 BYTE   Bn5
 BYTE   W06
 BYTE   En5
 BYTE   W06
 BYTE   Gs5
 BYTE   W06
 BYTE   Bn5
 BYTE   W06
 BYTE   En6
 BYTE   W06
 BYTE   En5
 BYTE   W04
//  #08 //023   ----------------------------------------
 BYTE   W02
 BYTE   Bn5
 BYTE   W06
 BYTE   En5
 BYTE   W06
 BYTE   En6
 BYTE   W06
 BYTE   En5
 BYTE   W06
 BYTE   Bn5
 BYTE   W06
 BYTE   En6
 BYTE   W06
 BYTE   En5
 BYTE   W06
 BYTE   En6
 BYTE   W06
 BYTE   Dn6
 BYTE   W06
 BYTE   Dn5
 BYTE   W06
 BYTE   An5
 BYTE   W06
 BYTE   Dn6
 BYTE   W06
 BYTE   Dn5
 BYTE   W06
 BYTE   En6
 BYTE   W06
 BYTE   En5
 BYTE   W06
 BYTE   Bn5
 BYTE   W04
//  #08 //024   ----------------------------------------
 BYTE   W02
 BYTE   En6
 BYTE   W06
 BYTE   En5
 BYTE   W06
 BYTE   Bn5
 BYTE   W06
 BYTE   An5
 BYTE   W06
 BYTE   En5
 BYTE   W06
 BYTE   En6
 BYTE   W06
 BYTE   En5
 BYTE   W06
 BYTE   An5
 BYTE   W06
 BYTE   Fs6
 BYTE   W06
 BYTE   Fs5
 BYTE   W06
 BYTE   Cs6
 BYTE   W06
 BYTE   Fs6
 BYTE   W06
 BYTE   Fs5
 BYTE   W06
 BYTE   Fs6
 BYTE   W06
 BYTE   En6
 BYTE   W06
 BYTE   En5
 BYTE   W04
//  #08 //025   ----------------------------------------
 BYTE   W02
 BYTE   Bn5
 BYTE   W06
 BYTE   En6
 BYTE   W06
 BYTE   En5
 BYTE   W06
 BYTE   Fs6
 BYTE   W06
 BYTE   Fs5
 BYTE   W06
 BYTE   Cs6
 BYTE   W06
 BYTE   Fs6
 BYTE   W06
 BYTE   Fs5
 BYTE   W06
 BYTE   Cs6
 BYTE   W06
 BYTE   Bn5
 BYTE   W06
 BYTE   Fs5
 BYTE   W06
 BYTE   Fs6
 BYTE   W06
 BYTE   Fs5
 BYTE   W06
 BYTE   Bn5
 BYTE   W06
 BYTE   Gs6
 BYTE   W06
 BYTE   Gs5
 BYTE   W04
//  #08 //026   ----------------------------------------
 BYTE   W02
 BYTE   Ds6
 BYTE   W06
 BYTE   Gs6
 BYTE   W06
 BYTE   Gs5
 BYTE   W06
 BYTE   Gs6
 BYTE   W06
 BYTE   Fs6
 BYTE   W06
 BYTE   Fs5
 BYTE   W06
 BYTE   Cs6
 BYTE   W06
 BYTE   Fs6
 BYTE   W06
 BYTE   Fs5
 BYTE   W06
 BYTE   Gs6
 BYTE   W06
 BYTE   Gs5
 BYTE   W06
 BYTE   Ds6
 BYTE   W06
 BYTE   Gs6
 BYTE   W06
 BYTE   Gs5
 BYTE   W06
 BYTE   Ds6
 BYTE   W06
 BYTE   Cs6
 BYTE   W04
//  #08 //027   ----------------------------------------
 BYTE   W02
 BYTE   Gs5
 BYTE   W06
 BYTE   Gs6
 BYTE   W06
 BYTE   Gs5
 BYTE   W06
 BYTE   Cs6
 BYTE   W76
//  #08 //028   ----------------------------------------
 BYTE   W96
//  #08 //029   ----------------------------------------
 BYTE   W96
//  #08 //030   ----------------------------------------
 BYTE   W96
//  #08 //031   ----------------------------------------
 BYTE   W24
 BYTE   W02
 BYTE   Gn5
 BYTE   W06
 BYTE   Dn5
 BYTE   W06
 BYTE   N11  Gn4
 BYTE   W12
 BYTE   N04  Gn5
 BYTE   W06
 BYTE   Dn5
 BYTE   W06
 BYTE   N11  Gn4
 BYTE   W12
 BYTE   N04  Fs5
 BYTE   W06
 BYTE   Fs4
 BYTE   W06
 BYTE   Gn5
 BYTE   W06
 BYTE   Dn5
 BYTE   W04
//  #08 //032   ----------------------------------------
 BYTE   W02
 BYTE   N11  Gn4
 BYTE   W12
 BYTE   N04  Gn5
 BYTE   W06
 BYTE   Dn5
 BYTE   W06
 BYTE   N11  Gn4
 BYTE   W12
 BYTE   N04  Fs5
 BYTE   W06
 BYTE   Fs4
 BYTE   W06
 BYTE   Gn5
 BYTE   W06
 BYTE   Dn5
 BYTE   W06
 BYTE   N11  Gn4
 BYTE   W12
 BYTE   N04  Gn5
 BYTE   W06
 BYTE   Dn5
 BYTE   W06
 BYTE   N11  Gn4
 BYTE   W10
//  #08 //033   ----------------------------------------
 BYTE   W02
 BYTE   N04  Fs5
 BYTE   W06
 BYTE   Fs4
 BYTE   W06
 BYTE   Gn5
 BYTE   W06
 BYTE   Dn5
 BYTE   W06
 BYTE   N11  Gn4
 BYTE   W12
 BYTE   N04  Gn5
 BYTE   W06
 BYTE   Dn5
 BYTE   W06
 BYTE   N11  Gn4
 BYTE   W12
 BYTE   N04  Fs5
 BYTE   W06
 BYTE   Fs4
 BYTE   W06
 BYTE   An5
 BYTE   W06
 BYTE   En5
 BYTE   W06
 BYTE   N11  An4
 BYTE   W10
//  #08 //034   ----------------------------------------
 BYTE   W02
 BYTE   N04  An5
 BYTE   W06
 BYTE   En5
 BYTE   W06
 BYTE   N11  An4
 BYTE   W12
 BYTE   N04  An5
 BYTE   W06
 BYTE   An4
 BYTE   W06
 BYTE   Gn5
 BYTE   W06
 BYTE   Dn5
 BYTE   W06
 BYTE   N11  Gn4
 BYTE   W12
 BYTE   N04  Gn5
 BYTE   W06
 BYTE   Dn5
 BYTE   W06
 BYTE   N11  Gn4
 BYTE   W12
 BYTE   N04  Fs5
 BYTE   W06
 BYTE   Fs4
 BYTE   W04
//  #08 //035   ----------------------------------------
 BYTE   W02
 BYTE   Gn5
 BYTE   W06
 BYTE   Dn5
 BYTE   W06
 BYTE   N11  Gn4
 BYTE   W12
 BYTE   N04  Gn5
 BYTE   W06
 BYTE   Dn5
 BYTE   W06
 BYTE   N11  Gn4
 BYTE   W12
 BYTE   N04  Fs5
 BYTE   W06
 BYTE   Fs4
 BYTE   W06
 BYTE   Gn5
 BYTE   W06
 BYTE   Dn5
 BYTE   W06
 BYTE   N11  Gn4
 BYTE   W12
 BYTE   N04  Gn5
 BYTE   W06
 BYTE   Dn5
 BYTE   W04
//  #08 //036   ----------------------------------------
 BYTE   W02
 BYTE   N11  Gn4
 BYTE   W12
 BYTE   N04  Fs5
 BYTE   W06
 BYTE   Fs4
 BYTE   W06
 BYTE   Gn5
 BYTE   W06
 BYTE   Dn5
 BYTE   W06
 BYTE   N11  Gn4
 BYTE   W12
 BYTE   N04  Gn5
 BYTE   W06
 BYTE   Dn5
 BYTE   W06
 BYTE   N11  Gn4
 BYTE   W12
 BYTE   N04  Fs5
 BYTE   W06
 BYTE   Fs4
 BYTE   W06
 BYTE   An5
 BYTE   W06
 BYTE   En5
 BYTE   W04
//  #08 //037   ----------------------------------------
 BYTE   W02
 BYTE   N11  An4
 BYTE   W12
 BYTE   N04  An5
 BYTE   W06
 BYTE   En5
 BYTE   W06
 BYTE   N11  An4
 BYTE   W12
 BYTE   N04  An5
 BYTE   W06
 BYTE   An4
 BYTE   W06
 BYTE   An5
 BYTE   W06
 BYTE   En5
 BYTE   W06
 BYTE   N11  An4
 BYTE   W12
 BYTE   N04  An5
 BYTE   W06
 BYTE   En5
 BYTE   W06
 BYTE   N11  An4
 BYTE   W10
//  #08 //038   ----------------------------------------
 BYTE   W02
 BYTE   N04  An5
 BYTE   W06
 BYTE   An4
 BYTE   W88
//  #08 //039   ----------------------------------------
 BYTE   W96
//  #08 //040   ----------------------------------------
 BYTE   W96
//  #08 //041   ----------------------------------------
 BYTE   W96
//  #08 //042   ----------------------------------------
 BYTE   W11
 BYTE   GoTo
  POIN2 Label_018BE302
//  #08 //043   ----------------------------------------
 BYTE   VOICE   4
 BYTE   VOL   10*song19_mvl/mxv
 BYTE   PAN   c_v+50
 BYTE   BEND   c_v+0
 BYTE   FINE

//**************** Track 9 (Midi-Chn.8) ****************//

song19_009:
//  #09 //000   ----------------------------------------
 BYTE   KEYSH   song19_key+0
Label_018BDF3A:
 BYTE   VOICE   36
 BYTE   VOL   26*song19_mvl/mxv
 BYTE   PAN   c_v+0
 BYTE   BEND   c_v+0
 BYTE   W02
 BYTE   N11  En1  v127
 BYTE   W12
 BYTE   N11
 BYTE   W12
 BYTE   En2
 BYTE   W12
 BYTE   N04  Dn1
 BYTE   W06
 BYTE   N11  Dn2
 BYTE   W12
 BYTE   N04  Dn1
 BYTE   W06
 BYTE   Dn2
 BYTE   W06
 BYTE   N11  En1
 BYTE   W12
 BYTE   N11
 BYTE   W12
 BYTE   En2
 BYTE   W04
//  #09 //001   ----------------------------------------
 BYTE   W08
 BYTE   N04  An1
 BYTE   W06
 BYTE   N11  An2
 BYTE   W12
 BYTE   N04  An1
 BYTE   W06
 BYTE   An2
 BYTE   W06
 BYTE   N11  En1
 BYTE   W12
 BYTE   N11
 BYTE   W12
 BYTE   En2
 BYTE   W12
 BYTE   N04  Dn1
 BYTE   W06
 BYTE   N11  Dn2
 BYTE   W12
 BYTE   N04  Dn1
 BYTE   W04
//  #09 //002   ----------------------------------------
 BYTE   W02
 BYTE   Dn2
 BYTE   W06
 BYTE   N07
 BYTE   W12
 BYTE   N07
 BYTE   W12
 BYTE   N04
 BYTE   W06
 BYTE   Dn1
 BYTE   W06
 BYTE   N04
 BYTE   W06
 BYTE   Dn2
 BYTE   W06
 BYTE   Dn1
 BYTE   W06
 BYTE   Cn2
 BYTE   W06
 BYTE   Dn1
 BYTE   W06
 BYTE   Dn2
 BYTE   W06
 BYTE   Dn1
 BYTE   W06
 BYTE   Dn2
 BYTE   W06
 BYTE   Dn1
 BYTE   W04
//  #09 //003   ----------------------------------------
 BYTE   W02
 BYTE   An1
 BYTE   W06
 BYTE   Dn2
 BYTE   W06
 BYTE   Dn1
 BYTE   W06
 BYTE   Dn2
 BYTE   W06
 BYTE   Dn1
 BYTE   W06
 BYTE   An1
 BYTE   W06
 BYTE   En1
 BYTE   W06
 BYTE   N04
 BYTE   W06
 BYTE   En2
 BYTE   W06
 BYTE   En1
 BYTE   W06
 BYTE   Dn2
 BYTE   W06
 BYTE   En1
 BYTE   W06
 BYTE   En2
 BYTE   W06
 BYTE   En1
 BYTE   W06
 BYTE   Bn1
 BYTE   W06
 BYTE   En2
 BYTE   W04
//  #09 //004   ----------------------------------------
 BYTE   W02
 BYTE   En1
 BYTE   W06
 BYTE   En2
 BYTE   W06
 BYTE   En1
 BYTE   W06
 BYTE   Bn1
 BYTE   W06
 BYTE   En2
 BYTE   W06
 BYTE   En1
 BYTE   W06
 BYTE   N11
 BYTE   W12
 BYTE   N11
 BYTE   W12
 BYTE   En2
 BYTE   W12
 BYTE   N04  Dn1
 BYTE   W06
 BYTE   N11  Dn2
 BYTE   W12
 BYTE   N04  Dn1
 BYTE   W04
//  #09 //005   ----------------------------------------
 BYTE   W02
 BYTE   Dn2
 BYTE   W06
 BYTE   N11  En1
 BYTE   W12
 BYTE   N11
 BYTE   W12
 BYTE   En2
 BYTE   W12
 BYTE   N04  An1
 BYTE   W06
 BYTE   N11  An2
 BYTE   W12
 BYTE   N04  An1
 BYTE   W06
 BYTE   An2
 BYTE   W06
 BYTE   N11  En1
 BYTE   W12
 BYTE   N11
 BYTE   W10
//  #09 //006   ----------------------------------------
 BYTE   W02
 BYTE   En2
 BYTE   W12
 BYTE   N04  Dn1
 BYTE   W06
 BYTE   N11  Dn2
 BYTE   W12
 BYTE   N04  Dn1
 BYTE   W06
 BYTE   Dn2
 BYTE   W06
 BYTE   N07
 BYTE   W12
 BYTE   N07
 BYTE   W12
 BYTE   N04
 BYTE   W06
 BYTE   Dn1
 BYTE   W06
 BYTE   N04
 BYTE   W06
 BYTE   Dn2
 BYTE   W06
 BYTE   Dn1
 BYTE   W04
//  #09 //007   ----------------------------------------
 BYTE   W02
 BYTE   Cn2
 BYTE   W06
 BYTE   Dn1
 BYTE   W06
 BYTE   Dn2
 BYTE   W06
 BYTE   Dn1
 BYTE   W06
 BYTE   Dn2
 BYTE   W06
 BYTE   Dn1
 BYTE   W06
 BYTE   An1
 BYTE   W06
 BYTE   Dn2
 BYTE   W06
 BYTE   Dn1
 BYTE   W06
 BYTE   Dn2
 BYTE   W06
 BYTE   Dn1
 BYTE   W06
 BYTE   An1
 BYTE   W06
 BYTE   En1
 BYTE   W06
 BYTE   N04
 BYTE   W06
 BYTE   En2
 BYTE   W06
 BYTE   En1
 BYTE   W04
//  #09 //008   ----------------------------------------
 BYTE   W02
 BYTE   Bn1
 BYTE   W06
 BYTE   En2
 BYTE   W06
 BYTE   En1
 BYTE   W06
 BYTE   En2
 BYTE   W06
 BYTE   An1
 BYTE   W06
 BYTE   N04
 BYTE   W06
 BYTE   An2
 BYTE   W06
 BYTE   An1
 BYTE   W06
 BYTE   Gn2
 BYTE   W06
 BYTE   An1
 BYTE   W06
 BYTE   An2
 BYTE   W06
 BYTE   An1
 BYTE   W06
 BYTE   Dn1
 BYTE   W06
 BYTE   N04
 BYTE   W06
 BYTE   Dn2
 BYTE   W06
 BYTE   Dn1
 BYTE   W04
//  #09 //009   ----------------------------------------
Label_018BE04B:
 BYTE   W02
 BYTE   N04  An1  v127
 BYTE   W06
 BYTE   Dn1
 BYTE   W06
 BYTE   Dn2
 BYTE   W06
 BYTE   An1
 BYTE   W06
 BYTE   En1
 BYTE   W06
 BYTE   N04
 BYTE   W06
 BYTE   En2
 BYTE   W06
 BYTE   En1
 BYTE   W06
 BYTE   Bn1
 BYTE   W06
 BYTE   En2
 BYTE   W06
 BYTE   En1
 BYTE   W06
 BYTE   En2
 BYTE   W06
 BYTE   An1
 BYTE   W06
 BYTE   N04
 BYTE   W06
 BYTE   An2
 BYTE   W06
 BYTE   An1
 BYTE   W04
 BYTE   PEND 
//  #09 //010   ----------------------------------------
Label_018BE06F:
 BYTE   W02
 BYTE   N04  En2  v127
 BYTE   W06
 BYTE   An1
 BYTE   W06
 BYTE   An2
 BYTE   W06
 BYTE   An1
 BYTE   W06
 BYTE   Cn3
 BYTE   W06
 BYTE   Bn2
 BYTE   W06
 BYTE   An2
 BYTE   W06
 BYTE   En2
 BYTE   W06
 BYTE   Cn2
 BYTE   W06
 BYTE   Bn1
 BYTE   W06
 BYTE   An1
 BYTE   W06
 BYTE   En1
 BYTE   W06
 BYTE   Dn1
 BYTE   W06
 BYTE   N04
 BYTE   W06
 BYTE   Dn2
 BYTE   W06
 BYTE   Dn1
 BYTE   W04
 BYTE   PEND 
//  #09 //011   ----------------------------------------
 BYTE   PATT
  POIN2 Label_018BE04B
//  #09 //012   ----------------------------------------
 BYTE   PATT
  POIN2 Label_018BE06F
//  #09 //013   ----------------------------------------
 BYTE   PATT
  POIN2 Label_018BE04B
//  #09 //014   ----------------------------------------
 BYTE   W02
 BYTE   N04  Gn2  v127
 BYTE   W06
 BYTE   An1
 BYTE   W06
 BYTE   An2
 BYTE   W06
 BYTE   An1
 BYTE   W06
 BYTE   En1
 BYTE   W06
 BYTE   N04
 BYTE   W06
 BYTE   En2
 BYTE   W06
 BYTE   En1
 BYTE   W06
 BYTE   Dn2
 BYTE   W06
 BYTE   En1
 BYTE   W06
 BYTE   En2
 BYTE   W06
 BYTE   En1
 BYTE   W06
 BYTE   Dn1
 BYTE   W06
 BYTE   N04
 BYTE   W06
 BYTE   Dn2
 BYTE   W06
 BYTE   Dn1
 BYTE   W04
//  #09 //015   ----------------------------------------
 BYTE   PATT
  POIN2 Label_018BE04B
//  #09 //016   ----------------------------------------
 BYTE   PATT
  POIN2 Label_018BE06F
//  #09 //017   ----------------------------------------
 BYTE   PATT
  POIN2 Label_018BE04B
//  #09 //018   ----------------------------------------
 BYTE   W02
 BYTE   N04  Gn2  v127
 BYTE   W06
 BYTE   An1
 BYTE   W06
 BYTE   An2
 BYTE   W06
 BYTE   An1
 BYTE   W06
 BYTE   N04
 BYTE   W06
 BYTE   An2
 BYTE   W06
 BYTE   An1
 BYTE   W06
 BYTE   En2
 BYTE   W06
 BYTE   An2
 BYTE   W06
 BYTE   An1
 BYTE   W06
 BYTE   An2
 BYTE   W06
 BYTE   An1
 BYTE   W06
 BYTE   N11  En1
 BYTE   W12
 BYTE   N11
 BYTE   W10
//  #09 //019   ----------------------------------------
 BYTE   W02
 BYTE   En2
 BYTE   W12
 BYTE   N04  Dn1
 BYTE   W06
 BYTE   N11  Dn2
 BYTE   W12
 BYTE   N04  Dn1
 BYTE   W06
 BYTE   Dn2
 BYTE   W06
 BYTE   N11  En1
 BYTE   W12
 BYTE   N11
 BYTE   W12
 BYTE   En2
 BYTE   W12
 BYTE   N04  An1
 BYTE   W06
 BYTE   N11  An2
 BYTE   W10
//  #09 //020   ----------------------------------------
 BYTE   W02
 BYTE   N04  An1
 BYTE   W06
 BYTE   An2
 BYTE   W06
 BYTE   N11  En1
 BYTE   W12
 BYTE   N11
 BYTE   W12
 BYTE   En2
 BYTE   W12
 BYTE   N04  Dn1
 BYTE   W06
 BYTE   N11  Dn2
 BYTE   W12
 BYTE   N04  Dn1
 BYTE   W06
 BYTE   Dn2
 BYTE   W06
 BYTE   N07
 BYTE   W12
 BYTE   N07
 BYTE   W04
//  #09 //021   ----------------------------------------
 BYTE   W08
 BYTE   N04
 BYTE   W06
 BYTE   Dn1
 BYTE   W06
 BYTE   N04
 BYTE   W06
 BYTE   Dn2
 BYTE   W06
 BYTE   Dn1
 BYTE   W06
 BYTE   Cn2
 BYTE   W06
 BYTE   Dn1
 BYTE   W06
 BYTE   Dn2
 BYTE   W06
 BYTE   Dn1
 BYTE   W06
 BYTE   Dn2
 BYTE   W06
 BYTE   Dn1
 BYTE   W06
 BYTE   An1
 BYTE   W06
 BYTE   Dn2
 BYTE   W06
 BYTE   Dn1
 BYTE   W06
 BYTE   Dn2
 BYTE   W04
//  #09 //022   ----------------------------------------
 BYTE   W02
 BYTE   Dn1
 BYTE   W06
 BYTE   An1
 BYTE   W06
 BYTE   En1
 BYTE   W06
 BYTE   N04
 BYTE   W06
 BYTE   En2
 BYTE   W06
 BYTE   En1
 BYTE   W06
 BYTE   Dn2
 BYTE   W06
 BYTE   En1
 BYTE   W06
 BYTE   En2
 BYTE   W06
 BYTE   En1
 BYTE   W06
 BYTE   Bn1
 BYTE   W06
 BYTE   En2
 BYTE   W06
 BYTE   En1
 BYTE   W06
 BYTE   En2
 BYTE   W06
 BYTE   En1
 BYTE   W06
 BYTE   Bn1
 BYTE   W04
//  #09 //023   ----------------------------------------
 BYTE   W02
 BYTE   En2
 BYTE   W06
 BYTE   En1
 BYTE   W06
 BYTE   N11
 BYTE   W12
 BYTE   N11
 BYTE   W12
 BYTE   En2
 BYTE   W12
 BYTE   N04  Dn1
 BYTE   W06
 BYTE   N11  Dn2
 BYTE   W12
 BYTE   N04  Dn1
 BYTE   W06
 BYTE   Dn2
 BYTE   W06
 BYTE   N11  En1
 BYTE   W12
 BYTE   N11
 BYTE   W04
//  #09 //024   ----------------------------------------
 BYTE   W08
 BYTE   En2
 BYTE   W12
 BYTE   N04  An1
 BYTE   W06
 BYTE   N11  An2
 BYTE   W12
 BYTE   N04  An1
 BYTE   W06
 BYTE   An2
 BYTE   W06
 BYTE   N11  Fs1
 BYTE   W12
 BYTE   N11
 BYTE   W12
 BYTE   Fs2
 BYTE   W12
 BYTE   N04  En1
 BYTE   W06
 BYTE   N11  En2
 BYTE   W04
//  #09 //025   ----------------------------------------
 BYTE   W08
 BYTE   N04  En1
 BYTE   W06
 BYTE   En2
 BYTE   W06
 BYTE   N11  Fs1
 BYTE   W12
 BYTE   N11
 BYTE   W12
 BYTE   Fs2
 BYTE   W12
 BYTE   N04  Bn1
 BYTE   W06
 BYTE   N11  Bn2
 BYTE   W12
 BYTE   N04  Bn1
 BYTE   W06
 BYTE   Bn2
 BYTE   W06
 BYTE   N11  Gs1
 BYTE   W10
//  #09 //026   ----------------------------------------
 BYTE   W02
 BYTE   N11
 BYTE   W12
 BYTE   Gs2
 BYTE   W12
 BYTE   N04  Fs1
 BYTE   W06
 BYTE   N11  Fs2
 BYTE   W12
 BYTE   N04  Fs1
 BYTE   W06
 BYTE   Fs2
 BYTE   W06
 BYTE   N11  Gs1
 BYTE   W12
 BYTE   N11
 BYTE   W12
 BYTE   Gs2
 BYTE   W12
 BYTE   N04  Cs1
 BYTE   W04
//  #09 //027   ----------------------------------------
 BYTE   W02
 BYTE   N11  Cs2
 BYTE   W12
 BYTE   N04  Cs1
 BYTE   W06
 BYTE   Cs2
 BYTE   W06
 BYTE   An1
 BYTE   W06
 BYTE   N04
 BYTE   W06
 BYTE   An2
 BYTE   W06
 BYTE   An1
 BYTE   W06
 BYTE   Gn2
 BYTE   W06
 BYTE   An1
 BYTE   W06
 BYTE   An2
 BYTE   W06
 BYTE   An1
 BYTE   W06
 BYTE   An2
 BYTE   W06
 BYTE   En2
 BYTE   W06
 BYTE   An1
 BYTE   W06
 BYTE   Cn3
 BYTE   W04
//  #09 //028   ----------------------------------------
 BYTE   W02
 BYTE   Bn2
 BYTE   W06
 BYTE   An2
 BYTE   W06
 BYTE   En2
 BYTE   W06
 BYTE   An1
 BYTE   W06
 BYTE   Dn1
 BYTE   W06
 BYTE   N04
 BYTE   W06
 BYTE   Dn2
 BYTE   W06
 BYTE   Dn1
 BYTE   W06
 BYTE   An1
 BYTE   W06
 BYTE   Dn2
 BYTE   W06
 BYTE   Dn1
 BYTE   W06
 BYTE   Dn2
 BYTE   W06
 BYTE   Cn2
 BYTE   W06
 BYTE   Dn2
 BYTE   W06
 BYTE   Dn1
 BYTE   W06
 BYTE   Dn2
 BYTE   W04
//  #09 //029   ----------------------------------------
 BYTE   W02
 BYTE   Dn1
 BYTE   W06
 BYTE   Cn2
 BYTE   W06
 BYTE   Dn2
 BYTE   W06
 BYTE   Dn1
 BYTE   W06
 BYTE   Dn2
 BYTE   W06
 BYTE   Gs2
 BYTE   W06
 BYTE   Fn2
 BYTE   W06
 BYTE   Dn2
 BYTE   W06
 BYTE   Bn1
 BYTE   W06
 BYTE   Gs1
 BYTE   W06
 BYTE   Bn1
 BYTE   W06
 BYTE   Dn2
 BYTE   W06
 BYTE   Bn2
 BYTE   W06
 BYTE   Gs2
 BYTE   W06
 BYTE   Fn2
 BYTE   W06
 BYTE   Dn2
 BYTE   W04
//  #09 //030   ----------------------------------------
 BYTE   W02
 BYTE   Bn1
 BYTE   W06
 BYTE   Gs1
 BYTE   W06
 BYTE   Fn1
 BYTE   W06
 BYTE   Dn1
 BYTE   W06
 BYTE   Cn2
 BYTE   W06
 BYTE   An2
 BYTE   W06
 BYTE   Fs2
 BYTE   W06
 BYTE   Ds2
 BYTE   W06
 BYTE   Cn2
 BYTE   W06
 BYTE   Fs2
 BYTE   W06
 BYTE   Ds2
 BYTE   W06
 BYTE   Cn2
 BYTE   W06
 BYTE   Fs2
 BYTE   W06
 BYTE   Cn2
 BYTE   W06
 BYTE   Ds2
 BYTE   W06
 BYTE   An1
 BYTE   W04
//  #09 //031   ----------------------------------------
 BYTE   W02
 BYTE   Cn2
 BYTE   W06
 BYTE   Fs1
 BYTE   W06
 BYTE   An1
 BYTE   W06
 BYTE   Ds1
 BYTE   W76
//  #09 //032   ----------------------------------------
 BYTE   W96
//  #09 //033   ----------------------------------------
 BYTE   W96
//  #09 //034   ----------------------------------------
 BYTE   W96
//  #09 //035   ----------------------------------------
 BYTE   W96
//  #09 //036   ----------------------------------------
 BYTE   W96
//  #09 //037   ----------------------------------------
 BYTE   W96
//  #09 //038   ----------------------------------------
 BYTE   W14
 BYTE   An1
 BYTE   W06
 BYTE   N04
 BYTE   W06
 BYTE   An2
 BYTE   W06
 BYTE   An1
 BYTE   W06
 BYTE   Gn2
 BYTE   W06
 BYTE   An1
 BYTE   W06
 BYTE   An2
 BYTE   W06
 BYTE   An1
 BYTE   W06
 BYTE   An2
 BYTE   W06
 BYTE   En2
 BYTE   W06
 BYTE   An1
 BYTE   W06
 BYTE   Cn3
 BYTE   W06
 BYTE   Bn2
 BYTE   W06
 BYTE   An2
 BYTE   W04
//  #09 //039   ----------------------------------------
 BYTE   W02
 BYTE   En2
 BYTE   W06
 BYTE   An1
 BYTE   W06
 BYTE   Dn1
 BYTE   W06
 BYTE   N04
 BYTE   W06
 BYTE   Dn2
 BYTE   W06
 BYTE   Dn1
 BYTE   W06
 BYTE   An1
 BYTE   W06
 BYTE   Dn2
 BYTE   W06
 BYTE   Dn1
 BYTE   W06
 BYTE   Dn2
 BYTE   W06
 BYTE   Cn2
 BYTE   W06
 BYTE   Dn2
 BYTE   W06
 BYTE   Dn1
 BYTE   W06
 BYTE   Dn2
 BYTE   W06
 BYTE   Dn1
 BYTE   W06
 BYTE   Cn2
 BYTE   W04
//  #09 //040   ----------------------------------------
 BYTE   W02
 BYTE   Dn2
 BYTE   W06
 BYTE   Dn1
 BYTE   W06
 BYTE   Dn2
 BYTE   W06
 BYTE   Gs2
 BYTE   W06
 BYTE   Fn2
 BYTE   W06
 BYTE   Dn2
 BYTE   W06
 BYTE   Bn1
 BYTE   W06
 BYTE   Gs1
 BYTE   W06
 BYTE   Bn1
 BYTE   W06
 BYTE   Dn2
 BYTE   W06
 BYTE   Bn2
 BYTE   W06
 BYTE   Gs2
 BYTE   W06
 BYTE   Fn2
 BYTE   W06
 BYTE   Dn2
 BYTE   W06
 BYTE   Bn1
 BYTE   W06
 BYTE   Gs1
 BYTE   W04
//  #09 //041   ----------------------------------------
 BYTE   W02
 BYTE   Fn1
 BYTE   W06
 BYTE   Dn1
 BYTE   W06
 BYTE   Cn2
 BYTE   W06
 BYTE   An2
 BYTE   W06
 BYTE   Fs2
 BYTE   W06
 BYTE   Ds2
 BYTE   W06
 BYTE   Cn2
 BYTE   W06
 BYTE   Fs2
 BYTE   W06
 BYTE   Ds2
 BYTE   W06
 BYTE   Cn2
 BYTE   W06
 BYTE   Fs2
 BYTE   W06
 BYTE   Cn2
 BYTE   W06
 BYTE   Ds2
 BYTE   W06
 BYTE   An1
 BYTE   W06
 BYTE   Cn2
 BYTE   W06
 BYTE   Fs1
 BYTE   W04
//  #09 //042   ----------------------------------------
 BYTE   W02
 BYTE   An1
 BYTE   W06
 BYTE   N03  Ds1
 BYTE   W03
 BYTE   GoTo
  POIN2 Label_018BDF3A
//  #09 //043   ----------------------------------------
 BYTE   VOICE   36
 BYTE   VOL   26*song19_mvl/mxv
 BYTE   PAN   c_v+0
 BYTE   BEND   c_v+0
 BYTE   FINE

//**************** Track 10 (Midi-Chn.9) ****************//

song19_010:
//  #10 //000   ----------------------------------------
 BYTE   KEYSH   song19_key+0
Label_018BE6CA:
 BYTE   VOICE   29
 BYTE   VOL   12*song19_mvl/mxv
 BYTE   PAN   c_v-10
 BYTE   BEND   c_v-1
 BYTE   W14
 BYTE   N09  En3  v108
 BYTE   W12
 BYTE   Gn3
 BYTE   W12
 BYTE   Bn3
 BYTE   W12
 BYTE   N04  An3
 BYTE   W12
 BYTE   Fs3
 BYTE   W06
 BYTE   N09  Dn3
 BYTE   W12
 BYTE   En3
 BYTE   W12
 BYTE   Gn3
 BYTE   W04
//  #10 //001   ----------------------------------------
 BYTE   W08
 BYTE   Bn3
 BYTE   W12
 BYTE   N04  Cs4
 BYTE   W12
 BYTE   Dn4
 BYTE   W06
 BYTE   N09  En4
 BYTE   W12
 BYTE   En3
 BYTE   W12
 BYTE   Gn3
 BYTE   W12
 BYTE   Bn3
 BYTE   W12
 BYTE   N04  An3
 BYTE   W10
//  #10 //002   ----------------------------------------
 BYTE   W02
 BYTE   Fs3
 BYTE   W06
 BYTE   Dn3
 BYTE   W06
 BYTE   Fs3
 BYTE   W06
 BYTE   An3
 BYTE   W06
 BYTE   Dn3
 BYTE   W06
 BYTE   Fs3
 BYTE   W06
 BYTE   An3  v127
 BYTE   W06
 BYTE   Dn4
 BYTE   W05
 BYTE   BEND   c_v-12
 BYTE   W01
 BYTE   N16  Fn4
 BYTE   W01
 BYTE   BEND   c_v-8
 BYTE   W02
 BYTE   BEND   c_v-5
 BYTE   W01
 BYTE   BEND   c_v-4
 BYTE   W02
 BYTE   BEND   c_v-3
 BYTE   W01
 BYTE   BEND   c_v-2
 BYTE   W02
 BYTE   BEND   c_v-2
 BYTE   W01
 BYTE   BEND   c_v-2
 BYTE   W02
 BYTE   BEND   c_v-2
 BYTE   W01
 BYTE   BEND   c_v-1
 BYTE   W05
 BYTE   N16  Dn4
 BYTE   W18
 BYTE   N09  Fn4
 BYTE   W10
//  #10 //003   ----------------------------------------
 BYTE   W02
 BYTE   N16  En4
 BYTE   W18
 BYTE   Fn4
 BYTE   W18
 BYTE   N09  Gn4
 BYTE   W11
 BYTE   BEND   c_v-12
 BYTE   W01
 BYTE   N44  An4
 BYTE   W01
 BYTE   BEND   c_v-10
 BYTE   W02
 BYTE   BEND   c_v-9
 BYTE   W01
 BYTE   BEND   c_v-7
 BYTE   W02
 BYTE   BEND   c_v-6
 BYTE   W01
 BYTE   BEND   c_v-6
 BYTE   W02
 BYTE   BEND   c_v-5
 BYTE   W01
 BYTE   BEND   c_v-4
 BYTE   W02
 BYTE   BEND   c_v-4
 BYTE   W01
 BYTE   BEND   c_v-4
 BYTE   W02
 BYTE   BEND   c_v-3
 BYTE   W01
 BYTE   BEND   c_v-3
 BYTE   W02
 BYTE   BEND   c_v-3
 BYTE   W01
 BYTE   BEND   c_v-2
 BYTE   W02
 BYTE   BEND   c_v-2
 BYTE   W01
 BYTE   BEND   c_v-2
 BYTE   W02
 BYTE   BEND   c_v-2
 BYTE   W03
 BYTE   BEND   c_v-2
 BYTE   W03
 BYTE   BEND   c_v-2
 BYTE   W06
 BYTE   BEND   c_v-1
 BYTE   W10
//  #10 //004   ----------------------------------------
 BYTE   W02
 BYTE   BEND   c_v-1
 BYTE   N44  Gs4
 BYTE   W12
 BYTE   BEND   c_v-2
 BYTE   W06
 BYTE   BEND   c_v-2
 BYTE   W04
 BYTE   BEND   c_v-2
 BYTE   W02
 BYTE   BEND   c_v-2
 BYTE   W03
 BYTE   BEND   c_v-2
 BYTE   W01
 BYTE   BEND   c_v-2
 BYTE   W02
 BYTE   BEND   c_v-3
 BYTE   W01
 BYTE   BEND   c_v-3
 BYTE   W02
 BYTE   BEND   c_v-3
 BYTE   W01
 BYTE   BEND   c_v-4
 BYTE   W02
 BYTE   BEND   c_v-4
 BYTE   W01
 BYTE   BEND   c_v-5
 BYTE   W02
 BYTE   BEND   c_v-5
 BYTE   W01
 BYTE   BEND   c_v-6
 BYTE   W02
 BYTE   BEND   c_v-7
 BYTE   W01
 BYTE   BEND   c_v-8
 BYTE   W02
 BYTE   BEND   c_v-9
 BYTE   W01
 BYTE   BEND   c_v-10
 BYTE   W01
 BYTE   BEND   c_v-12
 BYTE   W01
 BYTE   N09  En3  v108
 BYTE   W01
 BYTE   BEND   c_v-6
 BYTE   W01
 BYTE   BEND   c_v-4
 BYTE   W02
 BYTE   BEND   c_v-3
 BYTE   W02
 BYTE   BEND   c_v-2
 BYTE   W01
 BYTE   BEND   c_v-2
 BYTE   W02
 BYTE   BEND   c_v-1
 BYTE   W03
 BYTE   N09  Gn3
 BYTE   W12
 BYTE   Bn3
 BYTE   W12
 BYTE   N04  An3
 BYTE   W10
//  #10 //005   ----------------------------------------
 BYTE   W02
 BYTE   Fs3
 BYTE   W06
 BYTE   N09  Dn3
 BYTE   W12
 BYTE   En3
 BYTE   W12
 BYTE   Gn3
 BYTE   W12
 BYTE   Bn3
 BYTE   W12
 BYTE   N04  Cs4
 BYTE   W12
 BYTE   Dn4
 BYTE   W06
 BYTE   N09  En4
 BYTE   W12
 BYTE   En3
 BYTE   W10
//  #10 //006   ----------------------------------------
 BYTE   W02
 BYTE   Gn3
 BYTE   W12
 BYTE   Bn3
 BYTE   W12
 BYTE   N04  An3
 BYTE   W12
 BYTE   Fs3
 BYTE   W06
 BYTE   Dn3
 BYTE   W06
 BYTE   Fs3
 BYTE   W06
 BYTE   An3
 BYTE   W06
 BYTE   Dn3
 BYTE   W06
 BYTE   Fs3
 BYTE   W06
 BYTE   An3  v127
 BYTE   W06
 BYTE   Dn4
 BYTE   W05
 BYTE   BEND   c_v-12
 BYTE   W01
 BYTE   N16  Fn4
 BYTE   W01
 BYTE   BEND   c_v-8
 BYTE   W02
 BYTE   BEND   c_v-5
 BYTE   W01
 BYTE   BEND   c_v-4
 BYTE   W02
 BYTE   BEND   c_v-3
 BYTE   W01
 BYTE   BEND   c_v-2
 BYTE   W02
 BYTE   BEND   c_v-2
 BYTE   W01
//  #10 //007   ----------------------------------------
 BYTE   BEND   c_v-2
 BYTE   W02
 BYTE   BEND   c_v-2
 BYTE   W01
 BYTE   BEND   c_v-1
 BYTE   W05
 BYTE   N16  Dn4
 BYTE   W18
 BYTE   N09  Fn4
 BYTE   W12
 BYTE   N16  En4
 BYTE   W18
 BYTE   Fn4
 BYTE   W18
 BYTE   N09  Gn4
 BYTE   W12
 BYTE   N16  Gs4
 BYTE   W10
//  #10 //008   ----------------------------------------
 BYTE   W08
 BYTE   En4
 BYTE   W18
 BYTE   N09  Gs4
 BYTE   W12
 BYTE   N16  An4
 BYTE   W18
 BYTE   Bn4
 BYTE   W18
 BYTE   N09  Cn5
 BYTE   W12
 BYTE   N16  Dn5
 BYTE   W10
//  #10 //009   ----------------------------------------
 BYTE   W08
 BYTE   Fn4
 BYTE   W18
 BYTE   N09  Dn5
 BYTE   W12
 BYTE   N16  Cn5
 BYTE   W18
 BYTE   Bn4
 BYTE   W18
 BYTE   N09  Gn4
 BYTE   W11
 BYTE   BEND   c_v-12
 BYTE   W01
 BYTE   N44  An4
 BYTE   W01
 BYTE   BEND   c_v-10
 BYTE   W02
 BYTE   BEND   c_v-9
 BYTE   W01
 BYTE   BEND   c_v-7
 BYTE   W02
 BYTE   BEND   c_v-6
 BYTE   W01
 BYTE   BEND   c_v-6
 BYTE   W02
 BYTE   BEND   c_v-5
 BYTE   W01
//  #10 //010   ----------------------------------------
 BYTE   BEND   c_v-4
 BYTE   W02
 BYTE   BEND   c_v-4
 BYTE   W01
 BYTE   BEND   c_v-4
 BYTE   W02
 BYTE   BEND   c_v-3
 BYTE   W01
 BYTE   BEND   c_v-3
 BYTE   W02
 BYTE   BEND   c_v-3
 BYTE   W01
 BYTE   BEND   c_v-2
 BYTE   W02
 BYTE   BEND   c_v-2
 BYTE   W01
 BYTE   BEND   c_v-2
 BYTE   W02
 BYTE   BEND   c_v-2
 BYTE   W03
 BYTE   BEND   c_v-2
 BYTE   W03
 BYTE   BEND   c_v-2
 BYTE   W06
 BYTE   BEND   c_v-1
 BYTE   W12
 BYTE   N44  En4
 BYTE   W48
 BYTE   N04  Fn4
 BYTE   W06
 BYTE   Gn4
 BYTE   W04
//  #10 //011   ----------------------------------------
Label_018BE854:
 BYTE   W02
 BYTE   N32  An4  v127
 BYTE   W36
 BYTE   N04  Gn4
 BYTE   W06
 BYTE   An4
 BYTE   W06
 BYTE   N32  Bn4
 BYTE   W36
 BYTE   N16  Cn5
 BYTE   W10
 BYTE   PEND 
//  #10 //012   ----------------------------------------
Label_018BE865:
 BYTE   W08
 BYTE   N16  Bn4  v127
 BYTE   W18
 BYTE   N11  Cn5
 BYTE   W12
 BYTE   N44  En4
 BYTE   W48
 BYTE   N04  Fn4
 BYTE   W06
 BYTE   Gn4
 BYTE   W04
 BYTE   PEND 
//  #10 //013   ----------------------------------------
 BYTE   PATT
  POIN2 Label_018BE854
//  #10 //014   ----------------------------------------
 BYTE   W08
 BYTE   N16  Dn5  v127
 BYTE   W18
 BYTE   N11  En5
 BYTE   W12
 BYTE   N44  Bn4
 BYTE   W48
 BYTE   N04  Fn4
 BYTE   W06
 BYTE   Gn4
 BYTE   W04
//  #10 //015   ----------------------------------------
 BYTE   PATT
  POIN2 Label_018BE854
//  #10 //016   ----------------------------------------
 BYTE   PATT
  POIN2 Label_018BE865
//  #10 //017   ----------------------------------------
 BYTE   W02
 BYTE   N32  An4  v127
 BYTE   W36
 BYTE   N16  Gn4
 BYTE   W18
 BYTE   An4
 BYTE   W18
 BYTE   N11  Bn4
 BYTE   W12
 BYTE   BEND   c_v-1
 BYTE   N92  An4
 BYTE   W10
//  #10 //018   ----------------------------------------
 BYTE   W14
 BYTE   BEND   c_v-2
 BYTE   W12
 BYTE   BEND   c_v-2
 BYTE   W07
 BYTE   BEND   c_v-2
 BYTE   W05
 BYTE   BEND   c_v-2
 BYTE   W04
 BYTE   BEND   c_v-2
 BYTE   W03
 BYTE   BEND   c_v-2
 BYTE   W03
 BYTE   BEND   c_v-3
 BYTE   W02
 BYTE   BEND   c_v-3
 BYTE   W03
 BYTE   BEND   c_v-3
 BYTE   W01
 BYTE   BEND   c_v-3
 BYTE   W02
 BYTE   BEND   c_v-3
 BYTE   W01
 BYTE   BEND   c_v-3
 BYTE   W02
 BYTE   BEND   c_v-4
 BYTE   W01
 BYTE   BEND   c_v-4
 BYTE   W02
 BYTE   BEND   c_v-4
 BYTE   W01
 BYTE   BEND   c_v-4
 BYTE   W02
 BYTE   BEND   c_v-5
 BYTE   W01
 BYTE   BEND   c_v-5
 BYTE   W02
 BYTE   BEND   c_v-5
 BYTE   W01
 BYTE   BEND   c_v-5
 BYTE   W02
 BYTE   BEND   c_v-6
 BYTE   W01
 BYTE   BEND   c_v-6
 BYTE   W02
 BYTE   BEND   c_v-7
 BYTE   W01
 BYTE   BEND   c_v-7
 BYTE   W02
 BYTE   BEND   c_v-8
 BYTE   W01
 BYTE   BEND   c_v-8
 BYTE   W02
 BYTE   BEND   c_v-9
 BYTE   W01
 BYTE   BEND   c_v-9
 BYTE   W02
 BYTE   BEND   c_v-10
 BYTE   W01
 BYTE   BEND   c_v-11
 BYTE   W01
 BYTE   BEND   c_v-12
 BYTE   W01
 BYTE   BEND   c_v-1
 BYTE   N09  En3  v108
 BYTE   W10
//  #10 //019   ----------------------------------------
 BYTE   W02
 BYTE   Gn3
 BYTE   W12
 BYTE   Bn3
 BYTE   W12
 BYTE   N04  An3
 BYTE   W12
 BYTE   Fs3
 BYTE   W06
 BYTE   N09  Dn3
 BYTE   W12
 BYTE   En3
 BYTE   W12
 BYTE   Gn3
 BYTE   W12
 BYTE   Bn3
 BYTE   W12
 BYTE   N04  Cs4
 BYTE   W04
//  #10 //020   ----------------------------------------
 BYTE   W08
 BYTE   Dn4
 BYTE   W06
 BYTE   N09  En4
 BYTE   W12
 BYTE   En3
 BYTE   W12
 BYTE   Gn3
 BYTE   W12
 BYTE   Bn3
 BYTE   W12
 BYTE   N04  An3
 BYTE   W12
 BYTE   Fs3
 BYTE   W06
 BYTE   Dn3
 BYTE   W06
 BYTE   Fs3
 BYTE   W06
 BYTE   An3
 BYTE   W04
//  #10 //021   ----------------------------------------
 BYTE   W02
 BYTE   Dn3
 BYTE   W06
 BYTE   Fs3
 BYTE   W06
 BYTE   An3  v127
 BYTE   W06
 BYTE   Dn4
 BYTE   W05
 BYTE   BEND   c_v-12
 BYTE   W01
 BYTE   N16  Fn4
 BYTE   W01
 BYTE   BEND   c_v-8
 BYTE   W02
 BYTE   BEND   c_v-5
 BYTE   W01
 BYTE   BEND   c_v-4
 BYTE   W02
 BYTE   BEND   c_v-3
 BYTE   W01
 BYTE   BEND   c_v-2
 BYTE   W02
 BYTE   BEND   c_v-2
 BYTE   W01
 BYTE   BEND   c_v-2
 BYTE   W02
 BYTE   BEND   c_v-2
 BYTE   W01
 BYTE   BEND   c_v-1
 BYTE   W05
 BYTE   N16  Dn4
 BYTE   W18
 BYTE   N09  Fn4
 BYTE   W12
 BYTE   N16  En4
 BYTE   W18
 BYTE   Fn4
 BYTE   W04
//  #10 //022   ----------------------------------------
 BYTE   W14
 BYTE   N09  Gn4
 BYTE   W11
 BYTE   BEND   c_v-12
 BYTE   W01
 BYTE   N44  An4
 BYTE   W01
 BYTE   BEND   c_v-10
 BYTE   W02
 BYTE   BEND   c_v-9
 BYTE   W01
 BYTE   BEND   c_v-7
 BYTE   W02
 BYTE   BEND   c_v-6
 BYTE   W01
 BYTE   BEND   c_v-6
 BYTE   W02
 BYTE   BEND   c_v-5
 BYTE   W01
 BYTE   BEND   c_v-4
 BYTE   W02
 BYTE   BEND   c_v-4
 BYTE   W01
 BYTE   BEND   c_v-4
 BYTE   W02
 BYTE   BEND   c_v-3
 BYTE   W01
 BYTE   BEND   c_v-3
 BYTE   W02
 BYTE   BEND   c_v-3
 BYTE   W01
 BYTE   BEND   c_v-2
 BYTE   W02
 BYTE   BEND   c_v-2
 BYTE   W01
 BYTE   BEND   c_v-2
 BYTE   W02
 BYTE   BEND   c_v-2
 BYTE   W03
 BYTE   BEND   c_v-2
 BYTE   W03
 BYTE   BEND   c_v-2
 BYTE   W06
 BYTE   BEND   c_v-1
 BYTE   W12
 BYTE   BEND   c_v-1
 BYTE   N44  Gs4
 BYTE   W12
 BYTE   BEND   c_v-2
 BYTE   W06
 BYTE   BEND   c_v-2
 BYTE   W04
//  #10 //023   ----------------------------------------
 BYTE   BEND   c_v-2
 BYTE   W02
 BYTE   BEND   c_v-2
 BYTE   W03
 BYTE   BEND   c_v-2
 BYTE   W01
 BYTE   BEND   c_v-2
 BYTE   W02
 BYTE   BEND   c_v-3
 BYTE   W01
 BYTE   BEND   c_v-3
 BYTE   W02
 BYTE   BEND   c_v-3
 BYTE   W01
 BYTE   BEND   c_v-4
 BYTE   W02
 BYTE   BEND   c_v-4
 BYTE   W01
 BYTE   BEND   c_v-5
 BYTE   W02
 BYTE   BEND   c_v-5
 BYTE   W01
 BYTE   BEND   c_v-6
 BYTE   W02
 BYTE   BEND   c_v-7
 BYTE   W01
 BYTE   BEND   c_v-8
 BYTE   W02
 BYTE   BEND   c_v-9
 BYTE   W01
 BYTE   BEND   c_v-10
 BYTE   W01
 BYTE   BEND   c_v-12
 BYTE   W01
 BYTE   N09  En3  v108
 BYTE   W01
 BYTE   BEND   c_v-6
 BYTE   W01
 BYTE   BEND   c_v-4
 BYTE   W02
 BYTE   BEND   c_v-3
 BYTE   W02
 BYTE   BEND   c_v-2
 BYTE   W01
 BYTE   BEND   c_v-2
 BYTE   W02
 BYTE   BEND   c_v-1
 BYTE   W03
 BYTE   N09  Gn3
 BYTE   W12
 BYTE   Bn3
 BYTE   W12
 BYTE   N04  An3
 BYTE   W12
 BYTE   Fs3
 BYTE   W06
 BYTE   N09  Dn3
 BYTE   W12
 BYTE   En3
 BYTE   W04
//  #10 //024   ----------------------------------------
 BYTE   W08
 BYTE   Gn3
 BYTE   W12
 BYTE   Bn3
 BYTE   W12
 BYTE   N04  Cs4
 BYTE   W12
 BYTE   Dn4
 BYTE   W06
 BYTE   N09  En4
 BYTE   W12
 BYTE   Fs3
 BYTE   W12
 BYTE   An3
 BYTE   W12
 BYTE   Cs4
 BYTE   W10
//  #10 //025   ----------------------------------------
 BYTE   W02
 BYTE   N04  Bn3
 BYTE   W12
 BYTE   Gs3
 BYTE   W06
 BYTE   N09  En3
 BYTE   W12
 BYTE   Fs3
 BYTE   W12
 BYTE   An3
 BYTE   W12
 BYTE   Cs4
 BYTE   W12
 BYTE   N04  Ds4
 BYTE   W12
 BYTE   En4
 BYTE   W06
 BYTE   N09  Fs4
 BYTE   W10
//  #10 //026   ----------------------------------------
 BYTE   W02
 BYTE   Gs3
 BYTE   W12
 BYTE   Bn3
 BYTE   W12
 BYTE   Ds4
 BYTE   W12
 BYTE   N04  Cs4
 BYTE   W12
 BYTE   As3
 BYTE   W06
 BYTE   N09  Fs3
 BYTE   W12
 BYTE   Gs3
 BYTE   W12
 BYTE   Bn3
 BYTE   W12
 BYTE   Ds4
 BYTE   W04
//  #10 //027   ----------------------------------------
 BYTE   W08
 BYTE   N04  Fn4
 BYTE   W12
 BYTE   Fs4
 BYTE   W06
 BYTE   N09  Gs4  v127
 BYTE   W12
 BYTE   N16  En4
 BYTE   W18
 BYTE   Cn4
 BYTE   W18
 BYTE   N09  En4
 BYTE   W12
 BYTE   N16  Dn4
 BYTE   W10
//  #10 //028   ----------------------------------------
 BYTE   W08
 BYTE   En4
 BYTE   W18
 BYTE   N09  Cn4
 BYTE   W12
 BYTE   N16  Fn4
 BYTE   W18
 BYTE   En4
 BYTE   W18
 BYTE   N09  Dn4
 BYTE   W12
 BYTE   N16  Cn4
 BYTE   W10
//  #10 //029   ----------------------------------------
 BYTE   W08
 BYTE   An3
 BYTE   W18
 BYTE   N09  Cn4
 BYTE   W12
 BYTE   N16  Dn4
 BYTE   W18
 BYTE   Bn3
 BYTE   W18
 BYTE   N07  Gs3
 BYTE   W12
 BYTE   N16  Fn4
 BYTE   W10
//  #10 //030   ----------------------------------------
 BYTE   W08
 BYTE   Bn3
 BYTE   W18
 BYTE   N07  Dn4
 BYTE   W12
 BYTE   N16  Cn4
 BYTE   W18
 BYTE   An3
 BYTE   W18
 BYTE   N07  Ds4
 BYTE   W12
 BYTE   N16  Cn4
 BYTE   W10
//  #10 //031   ----------------------------------------
 BYTE   W08
 BYTE   Fs4
 BYTE   W18
 BYTE   N07  Ds4
 BYTE   W68
 BYTE   W02
//  #10 //032   ----------------------------------------
 BYTE   W96
//  #10 //033   ----------------------------------------
 BYTE   W96
//  #10 //034   ----------------------------------------
 BYTE   W96
//  #10 //035   ----------------------------------------
 BYTE   W96
//  #10 //036   ----------------------------------------
 BYTE   W96
//  #10 //037   ----------------------------------------
 BYTE   W96
//  #10 //038   ----------------------------------------
 BYTE   W24
 BYTE   W02
 BYTE   N16  En4
 BYTE   W18
 BYTE   Cn4
 BYTE   W18
 BYTE   N09  En4
 BYTE   W12
 BYTE   N16  Dn4
 BYTE   W18
 BYTE   En4
 BYTE   W04
//  #10 //039   ----------------------------------------
 BYTE   W14
 BYTE   N09  Cn4
 BYTE   W12
 BYTE   N16  Fn4
 BYTE   W18
 BYTE   En4
 BYTE   W18
 BYTE   N09  Dn4
 BYTE   W12
 BYTE   N16  Cn4
 BYTE   W18
 BYTE   An3
 BYTE   W04
//  #10 //040   ----------------------------------------
 BYTE   W14
 BYTE   N09  Cn4
 BYTE   W12
 BYTE   N16  Dn4
 BYTE   W18
 BYTE   Bn3
 BYTE   W18
 BYTE   N07  Gs3
 BYTE   W12
 BYTE   N16  Fn4
 BYTE   W18
 BYTE   Bn3
 BYTE   W04
//  #10 //041   ----------------------------------------
 BYTE   W14
 BYTE   N07  Dn4
 BYTE   W12
 BYTE   N16  Cn4
 BYTE   W18
 BYTE   An3
 BYTE   W18
 BYTE   N07  Ds4
 BYTE   W12
 BYTE   N16  Cn4
 BYTE   W18
 BYTE   N15  Fs4
 BYTE   W04
//  #10 //042   ----------------------------------------
 BYTE   W11
 BYTE   GoTo
  POIN2 Label_018BE6CA
//  #10 //043   ----------------------------------------
 BYTE   VOICE   30
 BYTE   VOL   12*song19_mvl/mxv
 BYTE   PAN   c_v-10
 BYTE   BEND   c_v-1
 BYTE   FINE

//**************** Track 11 (Midi-Chn.10) ****************//

song19_011:
//  #11 //000   ----------------------------------------
 BYTE   KEYSH   song19_key+0
Label_018BEAAE:
 BYTE   VOICE   104
 BYTE   VOL   21*song19_mvl/mxv
 BYTE   PAN   c_v+0
 BYTE   BEND   c_v-1
 BYTE   W02
 BYTE   N09  En4  v127
 BYTE   W12
 BYTE   Gn4
 BYTE   W12
 BYTE   Bn4
 BYTE   W12
 BYTE   N04  An4
 BYTE   W12
 BYTE   Fs4
 BYTE   W06
 BYTE   N09  Dn4
 BYTE   W12
 BYTE   En4
 BYTE   W12
 BYTE   Gn4
 BYTE   W12
 BYTE   Bn4
 BYTE   W04
//  #11 //001   ----------------------------------------
 BYTE   W08
 BYTE   N04  Cs5
 BYTE   W12
 BYTE   Dn5
 BYTE   W06
 BYTE   N09  En5
 BYTE   W12
 BYTE   En4
 BYTE   W12
 BYTE   Gn4
 BYTE   W12
 BYTE   Bn4
 BYTE   W12
 BYTE   N04  An4
 BYTE   W12
 BYTE   Fs4
 BYTE   W06
 BYTE   Dn4
 BYTE   W04
//  #11 //002   ----------------------------------------
 BYTE   W02
 BYTE   Fs4
 BYTE   W06
 BYTE   An4
 BYTE   W06
 BYTE   Dn4
 BYTE   W06
 BYTE   Fs4
 BYTE   W06
 BYTE   An4
 BYTE   W06
 BYTE   Dn5
 BYTE   W64
//  #11 //003   ----------------------------------------
 BYTE   W96
//  #11 //004   ----------------------------------------
 BYTE   W36
 BYTE   W02
 BYTE   BEND   c_v-12
 BYTE   N09  En4
 BYTE   W01
 BYTE   BEND   c_v-6
 BYTE   W02
 BYTE   BEND   c_v-4
 BYTE   W01
 BYTE   BEND   c_v-3
 BYTE   W02
 BYTE   BEND   c_v-2
 BYTE   W01
 BYTE   BEND   c_v-2
 BYTE   W02
 BYTE   BEND   c_v-1
 BYTE   W03
 BYTE   N09  Gn4
 BYTE   W12
 BYTE   Bn4
 BYTE   W12
 BYTE   N04  An4
 BYTE   W12
 BYTE   Fs4
 BYTE   W06
 BYTE   N09  Dn4
 BYTE   W04
//  #11 //005   ----------------------------------------
 BYTE   W08
 BYTE   En4
 BYTE   W12
 BYTE   Gn4
 BYTE   W12
 BYTE   Bn4
 BYTE   W12
 BYTE   N04  Cs5
 BYTE   W12
 BYTE   Dn5
 BYTE   W06
 BYTE   N09  En5
 BYTE   W12
 BYTE   En4
 BYTE   W12
 BYTE   Gn4
 BYTE   W10
//  #11 //006   ----------------------------------------
 BYTE   W02
 BYTE   Bn4
 BYTE   W12
 BYTE   N04  An4
 BYTE   W12
 BYTE   Fs4
 BYTE   W06
 BYTE   Dn4
 BYTE   W06
 BYTE   Fs4
 BYTE   W06
 BYTE   An4
 BYTE   W06
 BYTE   Dn4
 BYTE   W06
 BYTE   Fs4
 BYTE   W06
 BYTE   An4
 BYTE   W06
 BYTE   Dn5
 BYTE   W28
//  #11 //007   ----------------------------------------
 BYTE   W96
//  #11 //008   ----------------------------------------
 BYTE   W96
//  #11 //009   ----------------------------------------
 BYTE   W96
//  #11 //010   ----------------------------------------
 BYTE   W96
//  #11 //011   ----------------------------------------
 BYTE   W96
//  #11 //012   ----------------------------------------
 BYTE   W96
//  #11 //013   ----------------------------------------
 BYTE   W96
//  #11 //014   ----------------------------------------
 BYTE   W96
//  #11 //015   ----------------------------------------
 BYTE   W96
//  #11 //016   ----------------------------------------
 BYTE   W96
//  #11 //017   ----------------------------------------
 BYTE   W96
//  #11 //018   ----------------------------------------
 BYTE   W72
 BYTE   W02
 BYTE   N09  En4
 BYTE   W12
 BYTE   Gn4
 BYTE   W10
//  #11 //019   ----------------------------------------
 BYTE   W02
 BYTE   Bn4
 BYTE   W12
 BYTE   N04  An4
 BYTE   W12
 BYTE   Fs4
 BYTE   W06
 BYTE   N09  Dn4
 BYTE   W12
 BYTE   En4
 BYTE   W12
 BYTE   Gn4
 BYTE   W12
 BYTE   Bn4
 BYTE   W12
 BYTE   N04  Cs5
 BYTE   W12
 BYTE   Dn5
 BYTE   W04
//  #11 //020   ----------------------------------------
 BYTE   W02
 BYTE   N09  En5
 BYTE   W12
 BYTE   En4
 BYTE   W12
 BYTE   Gn4
 BYTE   W12
 BYTE   Bn4
 BYTE   W12
 BYTE   N04  An4
 BYTE   W12
 BYTE   Fs4
 BYTE   W06
 BYTE   Dn4
 BYTE   W06
 BYTE   Fs4
 BYTE   W06
 BYTE   An4
 BYTE   W06
 BYTE   Dn4
 BYTE   W06
 BYTE   Fs4
 BYTE   W04
//  #11 //021   ----------------------------------------
 BYTE   W02
 BYTE   An4
 BYTE   W06
 BYTE   Dn5
 BYTE   W88
//  #11 //022   ----------------------------------------
 BYTE   W96
//  #11 //023   ----------------------------------------
 BYTE   W14
 BYTE   BEND   c_v-12
 BYTE   N09  En4
 BYTE   W01
 BYTE   BEND   c_v-6
 BYTE   W02
 BYTE   BEND   c_v-4
 BYTE   W01
 BYTE   BEND   c_v-3
 BYTE   W02
 BYTE   BEND   c_v-2
 BYTE   W01
 BYTE   BEND   c_v-2
 BYTE   W02
 BYTE   BEND   c_v-1
 BYTE   W03
 BYTE   N09  Gn4
 BYTE   W12
 BYTE   Bn4
 BYTE   W12
 BYTE   N04  An4
 BYTE   W12
 BYTE   Fs4
 BYTE   W06
 BYTE   N09  Dn4
 BYTE   W12
 BYTE   En4
 BYTE   W12
 BYTE   Gn4
 BYTE   W04
//  #11 //024   ----------------------------------------
 BYTE   W08
 BYTE   Bn4
 BYTE   W12
 BYTE   N04  Cs5
 BYTE   W12
 BYTE   Dn5
 BYTE   W06
 BYTE   N09  En5
 BYTE   W12
 BYTE   Fs4
 BYTE   W12
 BYTE   An4
 BYTE   W12
 BYTE   Cs5
 BYTE   W12
 BYTE   N04  Bn4
 BYTE   W10
//  #11 //025   ----------------------------------------
 BYTE   W02
 BYTE   Gs4
 BYTE   W06
 BYTE   N09  En4
 BYTE   W12
 BYTE   Fs4
 BYTE   W12
 BYTE   An4
 BYTE   W12
 BYTE   Cs5
 BYTE   W12
 BYTE   N04  Ds5
 BYTE   W12
 BYTE   En5
 BYTE   W06
 BYTE   N09  Fs5
 BYTE   W12
 BYTE   Gs4
 BYTE   W10
//  #11 //026   ----------------------------------------
 BYTE   W02
 BYTE   Bn4
 BYTE   W12
 BYTE   Ds5
 BYTE   W12
 BYTE   N04  Cs5
 BYTE   W12
 BYTE   As4
 BYTE   W06
 BYTE   N09  Fs4
 BYTE   W12
 BYTE   Gs4
 BYTE   W12
 BYTE   Bn4
 BYTE   W12
 BYTE   Ds5
 BYTE   W12
 BYTE   N04  Fn5
 BYTE   W04
//  #11 //027   ----------------------------------------
 BYTE   W08
 BYTE   Fs5
 BYTE   W06
 BYTE   N09  Gs5
 BYTE   W80
 BYTE   W02
//  #11 //028   ----------------------------------------
 BYTE   W96
//  #11 //029   ----------------------------------------
 BYTE   W96
//  #11 //030   ----------------------------------------
 BYTE   W96
//  #11 //031   ----------------------------------------
 BYTE   W96
//  #11 //032   ----------------------------------------
 BYTE   W96
//  #11 //033   ----------------------------------------
 BYTE   W96
//  #11 //034   ----------------------------------------
 BYTE   W96
//  #11 //035   ----------------------------------------
 BYTE   W96
//  #11 //036   ----------------------------------------
 BYTE   W96
//  #11 //037   ----------------------------------------
 BYTE   W96
//  #11 //038   ----------------------------------------
 BYTE   W96
//  #11 //039   ----------------------------------------
 BYTE   W96
//  #11 //040   ----------------------------------------
 BYTE   W96
//  #11 //041   ----------------------------------------
 BYTE   W96
//  #11 //042   ----------------------------------------
 BYTE   W11
 BYTE   GoTo
  POIN2 Label_018BEAAE
//  #11 //043   ----------------------------------------
 BYTE   VOICE   104
 BYTE   VOL   21*song19_mvl/mxv
 BYTE   PAN   c_v+0
 BYTE   BEND   c_v-1
 BYTE   FINE

//**************** Track 12 (Midi-Chn.11) ****************//

song19_012:
//  #12 //000   ----------------------------------------
 BYTE   KEYSH   song19_key+0
Label_018BEC0E:
 BYTE   VOICE   124
 BYTE   VOL   28*song19_mvl/mxv
 BYTE   PAN   c_v+0
 BYTE   BEND   c_v+0
 BYTE   W01
 BYTE   N64  Cs2  v127
 BYTE   W01
 BYTE   N11  Cn1
 BYTE   W12
 BYTE   N04
 BYTE   N04  En1  v084
 BYTE   W06
 BYTE   Cn1  v127
 BYTE   N11  En1  v100
 BYTE   W06
 BYTE   N22  Dn1  v108
 BYTE   W06
 BYTE   N04  En1  v084
 BYTE   W06
 BYTE   N11  Cn1  v127
 BYTE   N11  En1  v100
 BYTE   W10
 BYTE   N06  Gn2
 BYTE   W02
 BYTE   N04  Cn1  v127
 BYTE   N11  En1  v100
 BYTE   W06
 BYTE   N22  Dn1  v108
 BYTE   W06
 BYTE   N04  En1  v084
 BYTE   W06
 BYTE   N11  Cn1  v127
 BYTE   N11  En1  v100
 BYTE   W12
 BYTE   N04  Cn1  v127
 BYTE   N04  En1  v084
 BYTE   W06
 BYTE   Cn1  v127
 BYTE   N11  En1  v100
 BYTE   W06
 BYTE   N22  Dn1  v108
 BYTE   W04
//  #12 //001   ----------------------------------------
 BYTE   W02
 BYTE   N04  En1  v084
 BYTE   W06
 BYTE   N11  Cn1  v127
 BYTE   N11  En1  v100
 BYTE   W12
 BYTE   N04  Cn1  v127
 BYTE   N11  En1  v100
 BYTE   W06
 BYTE   N04  Dn1  v108
 BYTE   W06
 BYTE   N04
 BYTE   N04  En1  v084
 BYTE   W04
 BYTE   N06  Gn2  v100
 BYTE   W01
 BYTE   N92  Cs2  v127
 BYTE   W01
 BYTE   N11  Cn1
 BYTE   W04
 BYTE   N06  Gn2  v100
 BYTE   W08
 BYTE   N04  Cn1  v127
 BYTE   N04  En1  v084
 BYTE   W06
 BYTE   Cn1  v127
 BYTE   N11  En1  v100
 BYTE   W06
 BYTE   N22  Dn1  v108
 BYTE   W06
 BYTE   N04  En1  v084
 BYTE   W06
 BYTE   N11  Cn1  v127
 BYTE   N11  En1  v100
 BYTE   W12
 BYTE   Cn1  v127
 BYTE   N11  En1  v100
 BYTE   W10
//  #12 //002   ----------------------------------------
 BYTE   W02
 BYTE   N04  Dn1  v108
 BYTE   N04  En1  v084
 BYTE   W06
 BYTE   N11  Dn1  v108
 BYTE   N11  En1  v100
 BYTE   W12
 BYTE   Dn1  v108
 BYTE   N11  En1  v084
 BYTE   W12
 BYTE   N04  Dn1  v108
 BYTE   N04  En1  v084
 BYTE   W04
 BYTE   N06  Gn2  v100
 BYTE   W01
 BYTE   N92  Cs2  v127
 BYTE   W01
 BYTE   N11  Cn1
 BYTE   W04
 BYTE   N06  Gn2  v100
 BYTE   W08
 BYTE   N22  Dn1  v108
 BYTE   N11  En1  v084
 BYTE   W12
 BYTE   N04  Cn1  v127
 BYTE   N11  En1  v100
 BYTE   W06
 BYTE   N04  Cn1  v127
 BYTE   W06
 BYTE   N22  Dn1  v108
 BYTE   N11  En1  v084
 BYTE   W12
 BYTE   N04  Cn1  v127
 BYTE   N11  En1  v100
 BYTE   W06
 BYTE   N04  Cn1  v127
 BYTE   W04
//  #12 //003   ----------------------------------------
 BYTE   W02
 BYTE   N22  Dn1  v108
 BYTE   N11  En1  v084
 BYTE   W06
 BYTE   Cn1  v127
 BYTE   W06
 BYTE   En1  v100
 BYTE   W06
 BYTE   N04  Cn1  v127
 BYTE   W06
 BYTE   N22  Dn1  v108
 BYTE   N11  En1  v084
 BYTE   W12
 BYTE   Cn1  v127
 BYTE   N11  En1  v100
 BYTE   W12
 BYTE   N22  Dn1  v108
 BYTE   N11  En1  v084
 BYTE   W12
 BYTE   N04  Cn1  v127
 BYTE   N11  En1  v100
 BYTE   W06
 BYTE   N04  Cn1  v127
 BYTE   W06
 BYTE   N22  Dn1  v108
 BYTE   N11  En1  v084
 BYTE   W12
 BYTE   N04  Cn1  v127
 BYTE   N11  En1  v100
 BYTE   W06
 BYTE   N04  Cn1  v127
 BYTE   W04
//  #12 //004   ----------------------------------------
 BYTE   W02
 BYTE   N11  Dn1  v108
 BYTE   N11  En1  v084
 BYTE   W06
 BYTE   Cn1  v127
 BYTE   W06
 BYTE   N04  Dn1  v108
 BYTE   N11  En1  v100
 BYTE   W06
 BYTE   N04  Dn1  v108
 BYTE   W06
 BYTE   N04
 BYTE   N11  En1  v084
 BYTE   W06
 BYTE   N04  Dn1  v108
 BYTE   W05
 BYTE   N64  Cs2  v127
 BYTE   W01
 BYTE   N11  Cn1
 BYTE   W12
 BYTE   N04
 BYTE   N04  En1  v084
 BYTE   W06
 BYTE   Cn1  v127
 BYTE   N11  En1  v100
 BYTE   W06
 BYTE   N22  Dn1  v108
 BYTE   W06
 BYTE   N04  En1  v084
 BYTE   W06
 BYTE   N11  Cn1  v127
 BYTE   N11  En1  v100
 BYTE   W12
 BYTE   N04  Cn1  v127
 BYTE   N11  En1  v100
 BYTE   W06
 BYTE   N22  Dn1  v108
 BYTE   W04
//  #12 //005   ----------------------------------------
 BYTE   W02
 BYTE   N04  En1  v084
 BYTE   W06
 BYTE   N11  Cn1  v127
 BYTE   N11  En1  v100
 BYTE   W12
 BYTE   N04  Cn1  v127
 BYTE   N04  En1  v084
 BYTE   W06
 BYTE   Cn1  v127
 BYTE   N11  En1  v100
 BYTE   W06
 BYTE   N22  Dn1  v108
 BYTE   W06
 BYTE   N04  En1  v084
 BYTE   W06
 BYTE   N11  Cn1  v127
 BYTE   N11  En1  v100
 BYTE   W12
 BYTE   N04  Cn1  v127
 BYTE   N11  En1  v100
 BYTE   W06
 BYTE   N04  Dn1  v108
 BYTE   W06
 BYTE   N04
 BYTE   N04  En1  v084
 BYTE   W05
 BYTE   N92  Cs2  v127
 BYTE   W01
 BYTE   N11  Cn1
 BYTE   W12
 BYTE   N04
 BYTE   N04  En1  v084
 BYTE   W06
 BYTE   Cn1  v127
 BYTE   N11  En1  v100
 BYTE   W04
//  #12 //006   ----------------------------------------
 BYTE   W02
 BYTE   N22  Dn1  v108
 BYTE   W06
 BYTE   N04  En1  v084
 BYTE   W06
 BYTE   N11  Cn1  v127
 BYTE   N11  En1  v100
 BYTE   W12
 BYTE   Cn1  v127
 BYTE   N11  En1  v100
 BYTE   W12
 BYTE   N04  Dn1  v108
 BYTE   N04  En1  v084
 BYTE   W06
 BYTE   N11  Dn1  v108
 BYTE   N11  En1  v100
 BYTE   W12
 BYTE   Dn1  v108
 BYTE   N11  En1  v084
 BYTE   W12
 BYTE   N04  Dn1  v108
 BYTE   N04  En1  v084
 BYTE   W05
 BYTE   N92  Cs2  v127
 BYTE   W01
 BYTE   N11  Cn1
 BYTE   W12
 BYTE   N22  Dn1  v108
 BYTE   N11  En1  v084
 BYTE   W10
//  #12 //007   ----------------------------------------
 BYTE   W02
 BYTE   N04  Cn1  v127
 BYTE   N11  En1  v100
 BYTE   W06
 BYTE   N04  Cn1  v127
 BYTE   W06
 BYTE   N22  Dn1  v108
 BYTE   N11  En1  v084
 BYTE   W12
 BYTE   N04  Cn1  v127
 BYTE   N11  En1  v100
 BYTE   W06
 BYTE   N04  Cn1  v127
 BYTE   W06
 BYTE   N22  Dn1  v108
 BYTE   N11  En1  v084
 BYTE   W06
 BYTE   Cn1  v127
 BYTE   W06
 BYTE   En1  v100
 BYTE   W06
 BYTE   N04  Cn1  v127
 BYTE   W06
 BYTE   N22  Dn1  v108
 BYTE   N11  En1  v084
 BYTE   W11
 BYTE   N44  Cs2  v127
 BYTE   W01
 BYTE   N11  Cn1
 BYTE   N11  En1  v100
 BYTE   W12
 BYTE   N22  Dn1  v108
 BYTE   N11  En1  v084
 BYTE   W10
//  #12 //008   ----------------------------------------
 BYTE   W02
 BYTE   N04  Cn1  v127
 BYTE   N11  En1  v100
 BYTE   W06
 BYTE   N04  Cn1  v127
 BYTE   W06
 BYTE   N22  Dn1  v108
 BYTE   N11  En1  v084
 BYTE   W11
 BYTE   N44  Cs2  v127
 BYTE   W01
 BYTE   N04  Cn1
 BYTE   N11  En1  v100
 BYTE   W06
 BYTE   N04  Cn1  v127
 BYTE   W06
 BYTE   N11  Dn1  v108
 BYTE   N11  En1  v084
 BYTE   W06
 BYTE   Cn1  v127
 BYTE   W06
 BYTE   N04  Dn1  v108
 BYTE   N11  En1  v100
 BYTE   W06
 BYTE   N04  Dn1  v108
 BYTE   W06
 BYTE   N04
 BYTE   N11  En1  v084
 BYTE   W06
 BYTE   N04  Dn1  v108
 BYTE   W05
 BYTE   N92  Cs2  v127
 BYTE   W01
 BYTE   N11  Cn1
 BYTE   W12
 BYTE   N22  Dn1  v108
 BYTE   N11  En1  v084
 BYTE   W10
//  #12 //009   ----------------------------------------
Label_018BEEA9:
 BYTE   W02
 BYTE   N04  Cn1  v127
 BYTE   N11  En1  v100
 BYTE   W06
 BYTE   N04  Cn1  v127
 BYTE   W06
 BYTE   N22  Dn1  v108
 BYTE   N11  En1  v084
 BYTE   W12
 BYTE   N04  Cn1  v127
 BYTE   N11  En1  v100
 BYTE   W06
 BYTE   N04  Cn1  v127
 BYTE   W06
 BYTE   N22  Dn1  v108
 BYTE   N11  En1  v084
 BYTE   W06
 BYTE   Cn1  v127
 BYTE   W06
 BYTE   En1  v100
 BYTE   W06
 BYTE   N04  Cn1  v127
 BYTE   W06
 BYTE   N22  Dn1  v108
 BYTE   N11  En1  v084
 BYTE   W12
 BYTE   Cn1  v127
 BYTE   N11  En1  v100
 BYTE   W12
 BYTE   N22  Dn1  v108
 BYTE   N11  En1  v084
 BYTE   W10
 BYTE   PEND 
//  #12 //010   ----------------------------------------
 BYTE   PATT
  POIN2 Label_018BEEA9
//  #12 //011   ----------------------------------------
 BYTE   PATT
  POIN2 Label_018BEEA9
//  #12 //012   ----------------------------------------
Label_018BEEF7:
 BYTE   W02
 BYTE   N04  Cn1  v127
 BYTE   N11  En1  v100
 BYTE   W06
 BYTE   N04  Cn1  v127
 BYTE   W06
 BYTE   N22  Dn1  v108
 BYTE   N11  En1  v084
 BYTE   W12
 BYTE   N04  Cn1  v127
 BYTE   N11  En1  v100
 BYTE   W06
 BYTE   N04  Cn1  v127
 BYTE   W06
 BYTE   N22  Dn1  v108
 BYTE   N11  En1  v084
 BYTE   W06
 BYTE   Cn1  v127
 BYTE   W06
 BYTE   En1  v100
 BYTE   W06
 BYTE   N04  Cn1  v127
 BYTE   W06
 BYTE   Dn1  v108
 BYTE   N11  En1  v084
 BYTE   W06
 BYTE   N04  Dn1  v108
 BYTE   W05
 BYTE   N92  Cs2  v127
 BYTE   W01
 BYTE   N11  Cn1
 BYTE   W12
 BYTE   N22  Dn1  v108
 BYTE   N11  En1  v084
 BYTE   W10
 BYTE   PEND 
//  #12 //013   ----------------------------------------
 BYTE   PATT
  POIN2 Label_018BEEA9
//  #12 //014   ----------------------------------------
 BYTE   W02
 BYTE   N04  Cn1  v127
 BYTE   N11  En1  v100
 BYTE   W06
 BYTE   N04  Cn1  v127
 BYTE   W06
 BYTE   N22  Dn1  v108
 BYTE   N11  En1  v084
 BYTE   W12
 BYTE   N04  Cn1  v127
 BYTE   N11  En1  v100
 BYTE   W06
 BYTE   N04  Cn1  v127
 BYTE   W06
 BYTE   N22  Dn1  v108
 BYTE   N11  En1  v084
 BYTE   W06
 BYTE   Cn1  v127
 BYTE   W06
 BYTE   En1  v100
 BYTE   W06
 BYTE   N04  Cn1  v127
 BYTE   W06
 BYTE   N22  Dn1  v108
 BYTE   N11  En1  v084
 BYTE   W11
 BYTE   N92  Cs2  v127
 BYTE   W01
 BYTE   N11  Cn1
 BYTE   W12
 BYTE   N22  Dn1  v108
 BYTE   N11  En1  v084
 BYTE   W10
//  #12 //015   ----------------------------------------
 BYTE   PATT
  POIN2 Label_018BEEA9
//  #12 //016   ----------------------------------------
 BYTE   PATT
  POIN2 Label_018BEEF7
//  #12 //017   ----------------------------------------
 BYTE   W02
 BYTE   N04  Cn1  v127
 BYTE   N11  En1  v100
 BYTE   W06
 BYTE   N04  Cn1  v127
 BYTE   W06
 BYTE   N22  Dn1  v108
 BYTE   N11  En1  v084
 BYTE   W12
 BYTE   N04  Cn1  v127
 BYTE   N11  En1  v100
 BYTE   W06
 BYTE   N04  Cn1  v127
 BYTE   W06
 BYTE   N22  Dn1  v108
 BYTE   N11  En1  v084
 BYTE   W06
 BYTE   Cn1  v127
 BYTE   W06
 BYTE   En1  v100
 BYTE   W06
 BYTE   N04  Cn1  v127
 BYTE   W06
 BYTE   N22  Dn1  v108
 BYTE   N11  En1  v084
 BYTE   W11
 BYTE   N44  Cs2  v127
 BYTE   W01
 BYTE   N11  Cn1
 BYTE   W12
 BYTE   N22  Dn1  v108
 BYTE   N11  En1  v084
 BYTE   W10
//  #12 //018   ----------------------------------------
 BYTE   W02
 BYTE   N04  Cn1  v127
 BYTE   N11  En1  v100
 BYTE   W06
 BYTE   N04  Cn1  v127
 BYTE   W06
 BYTE   N22  Dn1  v108
 BYTE   N11  En1  v084
 BYTE   W11
 BYTE   N44  Cs2  v127
 BYTE   W01
 BYTE   N04  Cn1
 BYTE   W06
 BYTE   N04
 BYTE   W06
 BYTE   N11  Dn1  v108
 BYTE   N11  En1  v084
 BYTE   W06
 BYTE   Cn1  v127
 BYTE   W06
 BYTE   N04  Dn1  v108
 BYTE   N11  En1  v100
 BYTE   W06
 BYTE   N04  Dn1  v108
 BYTE   W06
 BYTE   N04
 BYTE   N11  En1  v084
 BYTE   W06
 BYTE   N04  Dn1  v108
 BYTE   W05
 BYTE   N64  Cs2  v127
 BYTE   W01
 BYTE   N11  Cn1
 BYTE   W12
 BYTE   N04
 BYTE   N04  En1  v084
 BYTE   W06
 BYTE   Cn1  v127
 BYTE   N11  En1  v100
 BYTE   W04
//  #12 //019   ----------------------------------------
 BYTE   W02
 BYTE   N22  Dn1  v108
 BYTE   W06
 BYTE   N04  En1  v084
 BYTE   W06
 BYTE   N11  Cn1  v127
 BYTE   N11  En1  v100
 BYTE   W12
 BYTE   N04  Cn1  v127
 BYTE   N11  En1  v100
 BYTE   W06
 BYTE   N22  Dn1  v108
 BYTE   W06
 BYTE   N04  En1  v084
 BYTE   W06
 BYTE   N11  Cn1  v127
 BYTE   N11  En1  v100
 BYTE   W12
 BYTE   N04  Cn1  v127
 BYTE   N04  En1  v084
 BYTE   W06
 BYTE   Cn1  v127
 BYTE   N11  En1  v100
 BYTE   W06
 BYTE   N22  Dn1  v108
 BYTE   W06
 BYTE   N04  En1  v084
 BYTE   W06
 BYTE   N11  Cn1  v127
 BYTE   N11  En1  v100
 BYTE   W12
 BYTE   N04  Cn1  v127
 BYTE   N11  En1  v100
 BYTE   W04
//  #12 //020   ----------------------------------------
 BYTE   W02
 BYTE   N04  Dn1  v108
 BYTE   W06
 BYTE   N04
 BYTE   N04  En1  v084
 BYTE   W05
 BYTE   N92  Cs2  v127
 BYTE   W01
 BYTE   N11  Cn1
 BYTE   W12
 BYTE   N04
 BYTE   N04  En1  v084
 BYTE   W06
 BYTE   Cn1  v127
 BYTE   N11  En1  v100
 BYTE   W06
 BYTE   N22  Dn1  v108
 BYTE   W06
 BYTE   N04  En1  v084
 BYTE   W06
 BYTE   N11  Cn1  v127
 BYTE   N11  En1  v100
 BYTE   W12
 BYTE   Cn1  v127
 BYTE   N11  En1  v100
 BYTE   W12
 BYTE   N04  Dn1  v108
 BYTE   N04  En1  v084
 BYTE   W06
 BYTE   N11  Dn1  v108
 BYTE   N11  En1  v100
 BYTE   W12
 BYTE   Dn1  v108
 BYTE   N11  En1  v084
 BYTE   W04
//  #12 //021   ----------------------------------------
 BYTE   W08
 BYTE   N04  Dn1  v108
 BYTE   N04  En1  v084
 BYTE   W05
 BYTE   N92  Cs2  v127
 BYTE   W01
 BYTE   N11  Cn1
 BYTE   W12
 BYTE   N22  Dn1  v108
 BYTE   N11  En1  v084
 BYTE   W12
 BYTE   N04  Cn1  v127
 BYTE   N11  En1  v100
 BYTE   W06
 BYTE   N04  Cn1  v127
 BYTE   W06
 BYTE   N22  Dn1  v108
 BYTE   N11  En1  v084
 BYTE   W12
 BYTE   N04  Cn1  v127
 BYTE   N11  En1  v100
 BYTE   W06
 BYTE   N04  Cn1  v127
 BYTE   W06
 BYTE   N22  Dn1  v108
 BYTE   N11  En1  v084
 BYTE   W06
 BYTE   Cn1  v127
 BYTE   W06
 BYTE   En1  v100
 BYTE   W06
 BYTE   N04  Cn1  v127
 BYTE   W04
//  #12 //022   ----------------------------------------
 BYTE   W02
 BYTE   N22  Dn1  v108
 BYTE   N11  En1  v084
 BYTE   W12
 BYTE   Cn1  v127
 BYTE   N11  En1  v100
 BYTE   W12
 BYTE   N22  Dn1  v108
 BYTE   N11  En1  v084
 BYTE   W12
 BYTE   N04  Cn1  v127
 BYTE   N11  En1  v100
 BYTE   W06
 BYTE   N04  Cn1  v127
 BYTE   W06
 BYTE   N22  Dn1  v108
 BYTE   N11  En1  v084
 BYTE   W12
 BYTE   N04  Cn1  v127
 BYTE   N11  En1  v100
 BYTE   W06
 BYTE   N04  Cn1  v127
 BYTE   W06
 BYTE   N11  Dn1  v108
 BYTE   N11  En1  v084
 BYTE   W06
 BYTE   Cn1  v127
 BYTE   W06
 BYTE   N04  Dn1  v108
 BYTE   N11  En1  v100
 BYTE   W06
 BYTE   N04  Dn1  v108
 BYTE   W04
//  #12 //023   ----------------------------------------
 BYTE   W02
 BYTE   N04
 BYTE   N11  En1  v084
 BYTE   W06
 BYTE   N04  Dn1  v108
 BYTE   W05
 BYTE   N64  Cs2  v127
 BYTE   W01
 BYTE   N11  Cn1
 BYTE   W12
 BYTE   N04
 BYTE   N04  En1  v084
 BYTE   W06
 BYTE   Cn1  v127
 BYTE   N11  En1  v100
 BYTE   W06
 BYTE   N22  Dn1  v108
 BYTE   W06
 BYTE   N04  En1  v084
 BYTE   W06
 BYTE   N11  Cn1  v127
 BYTE   N11  En1  v100
 BYTE   W12
 BYTE   N04  Cn1  v127
 BYTE   N11  En1  v100
 BYTE   W06
 BYTE   N22  Dn1  v108
 BYTE   W06
 BYTE   N04  En1  v084
 BYTE   W06
 BYTE   N11  Cn1  v127
 BYTE   N11  En1  v100
 BYTE   W12
 BYTE   N04  Cn1  v127
 BYTE   N04  En1  v084
 BYTE   W04
//  #12 //024   ----------------------------------------
 BYTE   W02
 BYTE   Cn1  v127
 BYTE   N11  En1  v100
 BYTE   W06
 BYTE   N22  Dn1  v108
 BYTE   W06
 BYTE   N04  En1  v084
 BYTE   W06
 BYTE   N11  Cn1  v127
 BYTE   N11  En1  v100
 BYTE   W12
 BYTE   N04  Cn1  v127
 BYTE   N11  En1  v100
 BYTE   W06
 BYTE   N04  Dn1  v108
 BYTE   W06
 BYTE   N04
 BYTE   N04  En1  v084
 BYTE   W06
 BYTE   N11  Cn1  v127
 BYTE   N11  En1  v100
 BYTE   W12
 BYTE   N04  Cn1  v127
 BYTE   N04  En1  v084
 BYTE   W06
 BYTE   Cn1  v127
 BYTE   N11  En1  v100
 BYTE   W06
 BYTE   N22  Dn1  v108
 BYTE   W06
 BYTE   N04  En1  v084
 BYTE   W06
 BYTE   N11  Cn1  v127
 BYTE   N11  En1  v100
 BYTE   W10
//  #12 //025   ----------------------------------------
 BYTE   W02
 BYTE   N04  Cn1  v127
 BYTE   N11  En1  v100
 BYTE   W06
 BYTE   N22  Dn1  v108
 BYTE   W06
 BYTE   N04  En1  v084
 BYTE   W06
 BYTE   N11  Cn1  v127
 BYTE   N11  En1  v100
 BYTE   W12
 BYTE   N04  Cn1  v127
 BYTE   N04  En1  v084
 BYTE   W06
 BYTE   Cn1  v127
 BYTE   N11  En1  v100
 BYTE   W06
 BYTE   N22  Dn1  v108
 BYTE   W06
 BYTE   N04  En1  v084
 BYTE   W06
 BYTE   N11  Cn1  v127
 BYTE   N11  En1  v100
 BYTE   W12
 BYTE   N04  Cn1  v127
 BYTE   N11  En1  v100
 BYTE   W06
 BYTE   N04  Dn1  v108
 BYTE   W06
 BYTE   N04
 BYTE   N04  En1  v084
 BYTE   W05
 BYTE   N64  Cs2  v127
 BYTE   W01
 BYTE   N11  Cn1
 BYTE   W10
//  #12 //026   ----------------------------------------
 BYTE   W02
 BYTE   N04
 BYTE   N04  En1  v084
 BYTE   W06
 BYTE   Cn1  v127
 BYTE   N11  En1  v100
 BYTE   W06
 BYTE   N22  Dn1  v108
 BYTE   W06
 BYTE   N04  En1  v084
 BYTE   W06
 BYTE   N11  Cn1  v127
 BYTE   N11  En1  v100
 BYTE   W12
 BYTE   N04  Cn1  v127
 BYTE   N11  En1  v100
 BYTE   W06
 BYTE   N22  Dn1  v108
 BYTE   W06
 BYTE   N04  En1  v084
 BYTE   W06
 BYTE   N11  Cn1  v127
 BYTE   N11  En1  v100
 BYTE   W12
 BYTE   N04  Cn1  v127
 BYTE   N04  En1  v084
 BYTE   W06
 BYTE   Cn1  v127
 BYTE   N11  En1  v100
 BYTE   W06
 BYTE   N22  Dn1  v108
 BYTE   W06
 BYTE   N04  En1  v084
 BYTE   W06
 BYTE   N11  Cn1  v127
 BYTE   N11  En1  v100
 BYTE   W04
//  #12 //027   ----------------------------------------
 BYTE   W08
 BYTE   N04  Cn1  v127
 BYTE   N11  En1  v100
 BYTE   W06
 BYTE   N04  Dn1  v108
 BYTE   W06
 BYTE   N04
 BYTE   N04  En1  v084
 BYTE   W05
 BYTE   N92  Cs2  v127
 BYTE   W01
 BYTE   N11  Cn1
 BYTE   W12
 BYTE   N22  Dn1  v108
 BYTE   N11  En1  v084
 BYTE   W12
 BYTE   N04  Cn1  v127
 BYTE   N11  En1  v100
 BYTE   W06
 BYTE   N04  Cn1  v127
 BYTE   W06
 BYTE   N22  Dn1  v108
 BYTE   N11  En1  v084
 BYTE   W12
 BYTE   N04  Cn1  v127
 BYTE   N11  En1  v100
 BYTE   W06
 BYTE   N04  Cn1  v127
 BYTE   W06
 BYTE   N22  Dn1  v108
 BYTE   N11  En1  v084
 BYTE   W06
 BYTE   Cn1  v127
 BYTE   W04
//  #12 //028   ----------------------------------------
Label_018BF2A9:
 BYTE   W02
 BYTE   N11  En1  v100
 BYTE   W06
 BYTE   N04  Cn1  v127
 BYTE   W06
 BYTE   N22  Dn1  v108
 BYTE   N11  En1  v084
 BYTE   W12
 BYTE   Cn1  v127
 BYTE   N11  En1  v100
 BYTE   W12
 BYTE   N22  Dn1  v108
 BYTE   N11  En1  v084
 BYTE   W12
 BYTE   N04  Cn1  v127
 BYTE   N11  En1  v100
 BYTE   W06
 BYTE   N04  Cn1  v127
 BYTE   W06
 BYTE   N22  Dn1  v108
 BYTE   N11  En1  v084
 BYTE   W12
 BYTE   N04  Cn1  v127
 BYTE   N11  En1  v100
 BYTE   W06
 BYTE   N04  Cn1  v127
 BYTE   W06
 BYTE   N22  Dn1  v108
 BYTE   N11  En1  v084
 BYTE   W06
 BYTE   Cn1  v127
 BYTE   W04
 BYTE   PEND 
//  #12 //029   ----------------------------------------
 BYTE   PATT
  POIN2 Label_018BF2A9
//  #12 //030   ----------------------------------------
 BYTE   W02
 BYTE   N11  En1  v100
 BYTE   W06
 BYTE   N04  Cn1  v127
 BYTE   W06
 BYTE   N22  Dn1  v108
 BYTE   N11  En1  v084
 BYTE   W11
 BYTE   N44  Cs2  v127
 BYTE   W01
 BYTE   N11  Cn1
 BYTE   W12
 BYTE   N22  Dn1  v108
 BYTE   N11  En1  v084
 BYTE   W12
 BYTE   N04  Cn1  v127
 BYTE   N11  En1  v100
 BYTE   W06
 BYTE   N04  Cn1  v127
 BYTE   W06
 BYTE   N22  Dn1  v108
 BYTE   N11  En1  v084
 BYTE   W11
 BYTE   N24  An2  v127
 BYTE   W01
 BYTE   N04  Cn1
 BYTE   W06
 BYTE   N04
 BYTE   W06
 BYTE   N11  Dn1  v108
 BYTE   N11  En1  v084
 BYTE   W06
 BYTE   Cn1  v127
 BYTE   W04
//  #12 //031   ----------------------------------------
 BYTE   W01
 BYTE   N22  An2
 BYTE   W01
 BYTE   N04  Dn1  v108
 BYTE   W06
 BYTE   N04
 BYTE   W06
 BYTE   N04
 BYTE   N11  En1  v084
 BYTE   W06
 BYTE   N04  Dn1  v108
 BYTE   W05
 BYTE   N56  Cs2  v127
 BYTE   W01
 BYTE   N05  Cn1
 BYTE   W06
 BYTE   N05
 BYTE   W06
 BYTE   N05
 BYTE   N11  En1  v100
 BYTE   W06
 BYTE   N05  Cn1  v127
 BYTE   W06
 BYTE   N05
 BYTE   N11  En1  v100
 BYTE   W06
 BYTE   N05  Cn1  v127
 BYTE   W06
 BYTE   N05
 BYTE   N11  En1  v100
 BYTE   W06
 BYTE   N05  Cn1  v127
 BYTE   W06
 BYTE   N22  Dn1  v108
 BYTE   N11  En1  v100
 BYTE   W12
 BYTE   N05  Cn1  v127
 BYTE   N11  En1  v100
 BYTE   W06
 BYTE   N05  Cn1  v127
 BYTE   W04
//  #12 //032   ----------------------------------------
 BYTE   W02
 BYTE   N05
 BYTE   N11  En1  v100
 BYTE   W06
 BYTE   N05  Cn1  v127
 BYTE   W06
 BYTE   N22  Dn1  v108
 BYTE   N11  En1  v100
 BYTE   W06
 BYTE   N05  Cn1  v127
 BYTE   W06
 BYTE   N05
 BYTE   N11  En1  v100
 BYTE   W06
 BYTE   N05  Cn1  v127
 BYTE   W06
 BYTE   N22  Dn1  v108
 BYTE   N11  En1  v100
 BYTE   W12
 BYTE   N05  Cn1  v127
 BYTE   N11  En1  v100
 BYTE   W06
 BYTE   N05  Cn1  v127
 BYTE   W06
 BYTE   N05
 BYTE   N11  En1  v100
 BYTE   W06
 BYTE   N05  Cn1  v127
 BYTE   W06
 BYTE   N05
 BYTE   N11  En1  v100
 BYTE   W06
 BYTE   N05  Cn1  v127
 BYTE   W06
 BYTE   N05
 BYTE   N11  En1  v100
 BYTE   W06
 BYTE   N05  Cn1  v127
 BYTE   W04
//  #12 //033   ----------------------------------------
 BYTE   W02
 BYTE   N22  Dn1  v108
 BYTE   N11  En1  v100
 BYTE   W12
 BYTE   N05  Cn1  v127
 BYTE   N11  En1  v100
 BYTE   W06
 BYTE   N05  Cn1  v127
 BYTE   W06
 BYTE   N05
 BYTE   N11  En1  v100
 BYTE   W06
 BYTE   N05  Cn1  v127
 BYTE   W06
 BYTE   N22  Dn1  v108
 BYTE   N11  En1  v100
 BYTE   W06
 BYTE   N05  Cn1  v127
 BYTE   W06
 BYTE   N05
 BYTE   N11  En1  v100
 BYTE   W06
 BYTE   N05  Cn1  v127
 BYTE   W06
 BYTE   N22  Dn1  v108
 BYTE   N11  En1  v100
 BYTE   W11
 BYTE   N56  Cs2  v127
 BYTE   W01
 BYTE   N05  Cn1
 BYTE   W06
 BYTE   N05
 BYTE   W06
 BYTE   N11  Dn1  v108
 BYTE   N11  En1  v100
 BYTE   W06
 BYTE   N05  Cn1  v127
 BYTE   W04
//  #12 //034   ----------------------------------------
 BYTE   W02
 BYTE   N05
 BYTE   N11  En1  v100
 BYTE   W06
 BYTE   N05  Cn1  v127
 BYTE   W06
 BYTE   Dn1  v108
 BYTE   N11  En1  v100
 BYTE   W06
 BYTE   N05  Dn1  v108
 BYTE   W06
 BYTE   N04
 BYTE   N11  En1  v100
 BYTE   W06
 BYTE   N04  Dn1  v108
 BYTE   W05
 BYTE   N56  Cs2  v127
 BYTE   W01
 BYTE   N11  Cn1
 BYTE   W12
 BYTE   N11
 BYTE   N11  En1  v100
 BYTE   W12
 BYTE   N16  Dn1  v108
 BYTE   N11  En1  v100
 BYTE   W12
 BYTE   N04  Cn1  v127
 BYTE   N11  En1  v100
 BYTE   W06
 BYTE   N22  Dn1  v108
 BYTE   W06
 BYTE   N11  En1  v100
 BYTE   W06
 BYTE   N04  Cn1  v127
 BYTE   W04
//  #12 //035   ----------------------------------------
 BYTE   W02
 BYTE   N11
 BYTE   N11  En1  v100
 BYTE   W12
 BYTE   Cn1  v127
 BYTE   N11  En1  v100
 BYTE   W12
 BYTE   N16  Dn1  v108
 BYTE   N11  En1  v100
 BYTE   W12
 BYTE   N04  Cn1  v127
 BYTE   N11  En1  v100
 BYTE   W06
 BYTE   N22  Dn1  v108
 BYTE   W06
 BYTE   N11  En1  v100
 BYTE   W06
 BYTE   N04  Cn1  v127
 BYTE   W06
 BYTE   N11
 BYTE   N11  En1  v100
 BYTE   W12
 BYTE   Cn1  v127
 BYTE   N11  En1  v100
 BYTE   W12
 BYTE   N16  Dn1  v108
 BYTE   N11  En1  v100
 BYTE   W10
//  #12 //036   ----------------------------------------
 BYTE   W02
 BYTE   N04  Cn1  v127
 BYTE   N11  En1  v100
 BYTE   W06
 BYTE   N22  Dn1  v108
 BYTE   W06
 BYTE   N11  En1  v100
 BYTE   W06
 BYTE   N04  Cn1  v127
 BYTE   W06
 BYTE   N11
 BYTE   N11  En1  v100
 BYTE   W12
 BYTE   Cn1  v127
 BYTE   N11  En1  v100
 BYTE   W12
 BYTE   N16  Dn1  v108
 BYTE   N11  En1  v100
 BYTE   W12
 BYTE   N04  Cn1  v127
 BYTE   N11  En1  v100
 BYTE   W06
 BYTE   N22  Dn1  v108
 BYTE   W06
 BYTE   N11  En1  v100
 BYTE   W06
 BYTE   N04  Cn1  v127
 BYTE   W05
 BYTE   N56  Cs2
 BYTE   W01
 BYTE   N11  Cn1
 BYTE   W10
//  #12 //037   ----------------------------------------
 BYTE   W02
 BYTE   N11
 BYTE   N11  En1  v100
 BYTE   W12
 BYTE   N16  Dn1  v108
 BYTE   N11  En1  v100
 BYTE   W12
 BYTE   N04  Cn1  v127
 BYTE   N11  En1  v100
 BYTE   W06
 BYTE   N22  Dn1  v108
 BYTE   W06
 BYTE   N11  En1  v100
 BYTE   W06
 BYTE   N04  Cn1  v127
 BYTE   W05
 BYTE   N56  Cs2
 BYTE   W01
 BYTE   N11  Cn1
 BYTE   W12
 BYTE   N11
 BYTE   N11  En1  v100
 BYTE   W12
 BYTE   N16  Dn1  v108
 BYTE   N11  En1  v100
 BYTE   W12
 BYTE   N04  Cn1  v127
 BYTE   N11  En1  v100
 BYTE   W06
 BYTE   N22  Dn1  v108
 BYTE   W04
//  #12 //038   ----------------------------------------
 BYTE   W02
 BYTE   N11  En1  v100
 BYTE   W06
 BYTE   N04  Cn1  v127
 BYTE   W05
 BYTE   N92  Cs2
 BYTE   W01
 BYTE   N11  Cn1
 BYTE   W12
 BYTE   N22  Dn1  v108
 BYTE   N11  En1  v084
 BYTE   W12
 BYTE   N04  Cn1  v127
 BYTE   N11  En1  v100
 BYTE   W06
 BYTE   N04  Cn1  v127
 BYTE   W06
 BYTE   N22  Dn1  v108
 BYTE   N11  En1  v084
 BYTE   W12
 BYTE   N04  Cn1  v127
 BYTE   N11  En1  v100
 BYTE   W06
 BYTE   N04  Cn1  v127
 BYTE   W06
 BYTE   N22  Dn1  v108
 BYTE   N11  En1  v084
 BYTE   W06
 BYTE   Cn1  v127
 BYTE   W06
 BYTE   En1  v100
 BYTE   W06
 BYTE   N04  Cn1  v127
 BYTE   W04
//  #12 //039   ----------------------------------------
Label_018BF550:
 BYTE   W02
 BYTE   N22  Dn1  v108
 BYTE   N11  En1  v084
 BYTE   W12
 BYTE   Cn1  v127
 BYTE   N11  En1  v100
 BYTE   W12
 BYTE   N22  Dn1  v108
 BYTE   N11  En1  v084
 BYTE   W12
 BYTE   N04  Cn1  v127
 BYTE   N11  En1  v100
 BYTE   W06
 BYTE   N04  Cn1  v127
 BYTE   W06
 BYTE   N22  Dn1  v108
 BYTE   N11  En1  v084
 BYTE   W12
 BYTE   N04  Cn1  v127
 BYTE   N11  En1  v100
 BYTE   W06
 BYTE   N04  Cn1  v127
 BYTE   W06
 BYTE   N22  Dn1  v108
 BYTE   N11  En1  v084
 BYTE   W06
 BYTE   Cn1  v127
 BYTE   W06
 BYTE   En1  v100
 BYTE   W06
 BYTE   N04  Cn1  v127
 BYTE   W04
 BYTE   PEND 
//  #12 //040   ----------------------------------------
 BYTE   PATT
  POIN2 Label_018BF550
//  #12 //041   ----------------------------------------
 BYTE   W02
 BYTE   N22  Dn1  v108
 BYTE   N11  En1  v084
 BYTE   W11
 BYTE   N44  Cs2  v127
 BYTE   W01
 BYTE   N11  Cn1
 BYTE   W12
 BYTE   N22  Dn1  v108
 BYTE   N11  En1  v084
 BYTE   W12
 BYTE   N04  Cn1  v127
 BYTE   N11  En1  v100
 BYTE   W06
 BYTE   N04  Cn1  v127
 BYTE   W06
 BYTE   N22  Dn1  v108
 BYTE   N11  En1  v084
 BYTE   W11
 BYTE   N24  Cs2  v127
 BYTE   W01
 BYTE   N04  Cn1
 BYTE   W06
 BYTE   N04
 BYTE   W06
 BYTE   N11  Dn1  v108
 BYTE   N11  En1  v084
 BYTE   W06
 BYTE   Cn1  v127
 BYTE   W06
 BYTE   N04  Dn1  v108
 BYTE   W06
 BYTE   N04
 BYTE   W04
//  #12 //042   ----------------------------------------
 BYTE   W02
 BYTE   N04
 BYTE   N09  En1  v084
 BYTE   W06
 BYTE   N03  Dn1  v108
 BYTE   W03
 BYTE   GoTo
  POIN2 Label_018BEC0E
//  #12 //043   ----------------------------------------
 BYTE   VOICE   124
 BYTE   VOL   28*song19_mvl/mxv
 BYTE   PAN   c_v+0
 BYTE   BEND   c_v+0
 BYTE   FINE

//******************************************************//
	ALIGN 4

song19:
	BYTE	12	// NumTrks
	BYTE	0	// NumBlks
	BYTE	song19_pri	// Priority
	BYTE	song19_rev	// Reverb.
    
	POIN2	song19_grp
    
	POIN2	song19_001
	POIN2	song19_002
	POIN2	song19_003
	POIN2	song19_004
	POIN2	song19_005
	POIN2	song19_006
	POIN2	song19_007
	POIN2	song19_008
	POIN2	song19_009
	POIN2	song19_010
	POIN2	song19_011
	POIN2	song19_012

	
