//Event file generated from Sappy .s format.
	#include "MPlayDef.event"

	#define	Conversation1_grp  voicegroup000
	#define	Conversation1_pri  0
	#define	Conversation1_rev  148
	#define	Conversation1_mvl  127
	#define	Conversation1_key  0
	#define	Conversation1_tbs  1
	#define	Conversation1_exg  0
	#define	Conversation1_cmp  1

	// .rodata
	//	Conversation1
	ALIGN 4


//**************** Track 1 (Midi-Chn.0) ****************//

Conversation1_001:
//  #01 //000   ----------------------------------------
 BYTE   KEYSH   Conversation1_key+0
 BYTE   TEMPO   42*Conversation1_tbs/2
 BYTE   VOICE   49
 BYTE   MODT 0
 BYTE   LFOS 44
 BYTE   VOL   28*Conversation1_mvl/mxv
 BYTE   W12
Label_01A51001:
 BYTE   PAN   c_v+0
 BYTE   VOL   28*Conversation1_mvl/mxv
 BYTE   W06
 BYTE   PAN   c_v-25
 BYTE   VOL   25*Conversation1_mvl/mxv
 BYTE   N05  Gs3  v080
 BYTE   W06
 BYTE   N02  Fn3  v100
 BYTE   W03
 BYTE   N04  As3  v084
 BYTE   W06
 BYTE   N02  Gs3  v092
 BYTE   W03
 BYTE   Gn3
 BYTE   W03
 BYTE   Fn3  v100
 BYTE   W03
 BYTE   N17  Gs3  v092
 BYTE   W18
 BYTE   N02  Fn3
 BYTE   W03
 BYTE   Gn3  v084
 BYTE   W03
 BYTE   N05  Gs3  v080
 BYTE   W06
 BYTE   N02  Fn3  v100
 BYTE   W03
 BYTE   N04  As3  v084
 BYTE   W06
 BYTE   N02  Gs3  v092
 BYTE   W03
 BYTE   Gn3
 BYTE   W03
 BYTE   Fn3  v100
 BYTE   W03
 BYTE   N17  Gs3  v092
 BYTE   W06
//  #01 //001   ----------------------------------------
 BYTE   W12
 BYTE   N02  Fn3
 BYTE   W03
 BYTE   Gn3  v084
 BYTE   W03
 BYTE   N05  Gs3  v100
 BYTE   W06
 BYTE   Fn3  v084
 BYTE   W06
 BYTE   N02  As3
 BYTE   W03
 BYTE   Gs3  v092
 BYTE   W03
 BYTE   Gn3
 BYTE   W03
 BYTE   N08  Gs3  v100
 BYTE   W09
 BYTE   N14  As3  v092
 BYTE   W18
 BYTE   N05
 BYTE   W06
 BYTE   N02  Cn4  v088
 BYTE   W03
 BYTE   N20  Cn4  v068
 BYTE   W21
//  #01 //002   ----------------------------------------
 BYTE   N05  Cn4  v084
 BYTE   W06
 BYTE   Ds4
 BYTE   W06
 BYTE   Cs4  v100
 BYTE   W06
 BYTE   N17  Cn4  v092
 BYTE   W18
 BYTE   N02  As3  v100
 BYTE   W03
 BYTE   Cn4
 BYTE   W03
 BYTE   N10  As3  v092
 BYTE   W12
 BYTE   N05  Cn4
 BYTE   W06
 BYTE   Gn3
 BYTE   W06
 BYTE   N11  Gs3
 BYTE   W12
 BYTE   Gn3
 BYTE   W12
 BYTE   N09  Fn3
 BYTE   W06
//  #01 //003   ----------------------------------------
 BYTE   W06
 BYTE   N05  Fn3  v084
 BYTE   W06
 BYTE   Gn3  v092
 BYTE   W06
 BYTE   N15  Gs3  v100
 BYTE   W18
 BYTE   N05  Gs3  v084
 BYTE   W06
 BYTE   N08  As3
 BYTE   W09
 BYTE   Gn3  v112
 BYTE   W09
 BYTE   N40  Fn3
 BYTE   W36
//  #01 //004   ----------------------------------------
 BYTE   W06
 BYTE   N05  Fn4  v072
 BYTE   W06
 BYTE   Ds4  v092
 BYTE   W06
 BYTE   N16  Fn4  v068
 BYTE   W18
 BYTE   N02  Cs4  v092
 BYTE   W03
 BYTE   Ds4  v100
 BYTE   W03
 BYTE   N17  Fn4  v092
 BYTE   W18
 BYTE   N02  Gn4  v100
 BYTE   W03
 BYTE   Fn4
 BYTE   W03
 BYTE   N17  Ds4  v084
 BYTE   W18
 BYTE   N02  Cn4  v100
 BYTE   W03
 BYTE   Cs4
 BYTE   W03
 BYTE   N13  Ds4  v092
 BYTE   W06
//  #01 //005   ----------------------------------------
 BYTE   W12
 BYTE   N04  Ds4  v080
 BYTE   W06
 BYTE   N05  Ds4  v076
 BYTE   W06
 BYTE   N09  Cs4  v084
 BYTE   W12
 BYTE   N02  Cs4  v092
 BYTE   W03
 BYTE   Ds4
 BYTE   W03
 BYTE   N13  Fn4
 BYTE   W18
 BYTE   N02  Gn4
 BYTE   W03
 BYTE   Gs4  v100
 BYTE   W03
 BYTE   N23  As4  v088
 BYTE   W24
 BYTE   N22  Gn4  v092
 BYTE   W06
//  #01 //006   ----------------------------------------
 BYTE   W18
 BYTE   N16  Gs3  v068
 BYTE   W18
 BYTE   N02  Fn3  v080
 BYTE   W03
 BYTE   Gn3
 BYTE   W03
 BYTE   N08  Gs3  v084
 BYTE   W09
 BYTE   N05  As3  v092
 BYTE   W06
 BYTE   N02  Gs3
 BYTE   W03
 BYTE   Gn3
 BYTE   W03
 BYTE   Fn3  v080
 BYTE   W03
 BYTE   N17  Gs3  v092
 BYTE   W18
 BYTE   N02  Fn3  v084
 BYTE   W03
 BYTE   Gn3  v076
 BYTE   W03
 BYTE   N05  Gs3  v092
 BYTE   W06
//  #01 //007   ----------------------------------------
 BYTE   N02  Fn3  v084
 BYTE   W03
 BYTE   N05  As3  v092
 BYTE   W06
 BYTE   N02  Gs3  v084
 BYTE   W03
 BYTE   Gn3  v092
 BYTE   W03
 BYTE   Fn3  v080
 BYTE   W03
 BYTE   N17  Gs3  v084
 BYTE   W18
 BYTE   N02  Fn3
 BYTE   W03
 BYTE   Gn3  v080
 BYTE   W03
 BYTE   N10  Gs3  v084
 BYTE   W12
 BYTE   N09  As3
 BYTE   W12
 BYTE   N04  As3  v100
 BYTE   W06
 BYTE   N23  Cn4  v080
 BYTE   W24
//  #01 //008   ----------------------------------------
 BYTE   W06
 BYTE   N03  Cn4  v100
 BYTE   W06
 BYTE   N03
 BYTE   W06
 BYTE   N15
 BYTE   W18
 BYTE   N02  As3  v092
 BYTE   W03
 BYTE   Cn4  v112
 BYTE   W03
 BYTE   N17  As3  v100
 BYTE   W18
 BYTE   N05  Cn4
 BYTE   W06
 BYTE   N11  Gs3  v112
 BYTE   W12
 BYTE   As3  v100
 BYTE   W12
 BYTE   Cn4
 BYTE   W06
//  #01 //009   ----------------------------------------
 BYTE   W06
 BYTE   Fn4  v080
 BYTE   W12
 BYTE   Gs3  v084
 BYTE   W12
 BYTE   As3  v092
 BYTE   W12
 BYTE   Cn4  v080
 BYTE   W12
 BYTE   N05  As3  v084
 BYTE   W06
 BYTE   Gs3
 BYTE   W06
 BYTE   N23  Gn3  v092
 BYTE   W24
 BYTE   N17  En3
 BYTE   W06
//  #01 //010   ----------------------------------------
 BYTE   W12
 BYTE   N02  Fn3
 BYTE   W03
 BYTE   GoTo
  POIN2 Label_01A51001
 BYTE   FINE

//**************** Track 2 (Midi-Chn.1) ****************//

Conversation1_002:
//  #02 //000   ----------------------------------------
 BYTE   KEYSH   Conversation1_key+0
 BYTE   VOICE   48
 BYTE   MODT 0
 BYTE   LFOS 44
 BYTE   W12
Label_01A51199:
 BYTE   PAN   c_v+0
 BYTE   VOL   95*Conversation1_mvl/mxv
 BYTE   W01
 BYTE   VOL   53*Conversation1_mvl/mxv
 BYTE   PAN   c_v-14
 BYTE   VOL   48*Conversation1_mvl/mxv
 BYTE   N05  Gs3  v080
 BYTE   W06
 BYTE   N02  Fn3  v100
 BYTE   W03
 BYTE   N04  As3  v084
 BYTE   W06
 BYTE   N02  Gs3  v092
 BYTE   W03
 BYTE   Gn3
 BYTE   W03
 BYTE   Fn3  v100
 BYTE   W03
 BYTE   N17  Gs3  v092
 BYTE   W18
 BYTE   N02  Fn3
 BYTE   W03
 BYTE   Gn3  v084
 BYTE   W03
 BYTE   N05  Gs3  v080
 BYTE   W06
 BYTE   N02  Fn3  v100
 BYTE   W03
 BYTE   N04  As3  v084
 BYTE   W06
 BYTE   N02  Gs3  v092
 BYTE   W03
 BYTE   Gn3
 BYTE   W03
 BYTE   Fn3  v100
 BYTE   W03
 BYTE   N17  Gs3  v092
 BYTE   W11
//  #02 //001   ----------------------------------------
 BYTE   W07
 BYTE   N02  Fn3
 BYTE   W03
 BYTE   Gn3  v084
 BYTE   W03
 BYTE   N05  Gs3  v100
 BYTE   W06
 BYTE   Fn3  v084
 BYTE   W06
 BYTE   N02  As3
 BYTE   W03
 BYTE   Gs3  v092
 BYTE   W03
 BYTE   Gn3
 BYTE   W03
 BYTE   N08  Gs3  v100
 BYTE   W09
 BYTE   N14  As3  v092
 BYTE   W18
 BYTE   N05
 BYTE   W06
 BYTE   N02  Cn4  v088
 BYTE   W03
 BYTE   N20  Cn4  v068
 BYTE   W21
 BYTE   N05  Cn4  v084
 BYTE   W05
//  #02 //002   ----------------------------------------
 BYTE   W01
 BYTE   Ds4
 BYTE   W06
 BYTE   Cs4  v100
 BYTE   W06
 BYTE   N17  Cn4  v092
 BYTE   W18
 BYTE   N02  As3  v100
 BYTE   W03
 BYTE   Cn4
 BYTE   W03
 BYTE   N10  As3  v092
 BYTE   W12
 BYTE   N05  Cn4
 BYTE   W06
 BYTE   Gn3
 BYTE   W06
 BYTE   N11  Gs3
 BYTE   W12
 BYTE   Gn3
 BYTE   W12
 BYTE   N09  Fn3
 BYTE   W11
//  #02 //003   ----------------------------------------
 BYTE   W01
 BYTE   N05  Fn3  v084
 BYTE   W06
 BYTE   Gn3  v092
 BYTE   W06
 BYTE   N15  Gs3  v100
 BYTE   W18
 BYTE   N05  Gs3  v084
 BYTE   W06
 BYTE   N08  As3
 BYTE   W09
 BYTE   Gn3  v112
 BYTE   W09
 BYTE   N40  Fn3
 BYTE   W40
 BYTE   W01
//  #02 //004   ----------------------------------------
 BYTE   W01
 BYTE   N05  Fn4  v072
 BYTE   W06
 BYTE   Ds4  v092
 BYTE   W06
 BYTE   N16  Fn4  v068
 BYTE   W18
 BYTE   N02  Cs4  v092
 BYTE   W03
 BYTE   Ds4  v100
 BYTE   W03
 BYTE   N17  Fn4  v092
 BYTE   W18
 BYTE   N02  Gn4  v100
 BYTE   W03
 BYTE   Fn4
 BYTE   W03
 BYTE   N17  Ds4  v084
 BYTE   W18
 BYTE   N02  Cn4  v100
 BYTE   W03
 BYTE   Cs4
 BYTE   W03
 BYTE   N13  Ds4  v092
 BYTE   W11
//  #02 //005   ----------------------------------------
 BYTE   W07
 BYTE   N04  Ds4  v080
 BYTE   W06
 BYTE   N05  Ds4  v076
 BYTE   W06
 BYTE   N09  Cs4  v084
 BYTE   W12
 BYTE   N02  Cs4  v092
 BYTE   W03
 BYTE   Ds4
 BYTE   W03
 BYTE   N13  Fn4
 BYTE   W18
 BYTE   N02  Gn4
 BYTE   W03
 BYTE   Gs4  v100
 BYTE   W03
 BYTE   N23  As4  v088
 BYTE   W24
 BYTE   N22  Gn4  v092
 BYTE   W11
//  #02 //006   ----------------------------------------
 BYTE   W13
 BYTE   N16  Gs3  v068
 BYTE   W18
 BYTE   N02  Fn3  v080
 BYTE   W03
 BYTE   Gn3
 BYTE   W03
 BYTE   N08  Gs3  v084
 BYTE   W09
 BYTE   N05  As3  v092
 BYTE   W06
 BYTE   N02  Gs3
 BYTE   W03
 BYTE   Gn3
 BYTE   W03
 BYTE   Fn3  v080
 BYTE   W03
 BYTE   N17  Gs3  v092
 BYTE   W18
 BYTE   N02  Fn3  v084
 BYTE   W03
 BYTE   Gn3  v076
 BYTE   W03
 BYTE   N05  Gs3  v092
 BYTE   W06
 BYTE   N02  Fn3  v084
 BYTE   W03
 BYTE   N05  As3  v092
 BYTE   W02
//  #02 //007   ----------------------------------------
 BYTE   W04
 BYTE   N02  Gs3  v084
 BYTE   W03
 BYTE   Gn3  v092
 BYTE   W03
 BYTE   Fn3  v080
 BYTE   W03
 BYTE   N17  Gs3  v084
 BYTE   W18
 BYTE   N02  Fn3
 BYTE   W03
 BYTE   Gn3  v080
 BYTE   W03
 BYTE   N10  Gs3  v084
 BYTE   W12
 BYTE   N09  As3
 BYTE   W12
 BYTE   N04  As3  v100
 BYTE   W06
 BYTE   N23  Cn4  v080
 BYTE   W28
 BYTE   W01
//  #02 //008   ----------------------------------------
 BYTE   W01
 BYTE   N03  Cn4  v100
 BYTE   W06
 BYTE   N03
 BYTE   W06
 BYTE   N15
 BYTE   W18
 BYTE   N02  As3  v092
 BYTE   W03
 BYTE   Cn4  v112
 BYTE   W03
 BYTE   N17  As3  v100
 BYTE   W18
 BYTE   N05  Cn4
 BYTE   W06
 BYTE   N11  Gs3  v112
 BYTE   W12
 BYTE   As3  v100
 BYTE   W12
 BYTE   Cn4
 BYTE   W11
//  #02 //009   ----------------------------------------
 BYTE   W01
 BYTE   Fn4  v080
 BYTE   W12
 BYTE   Gs3  v084
 BYTE   W12
 BYTE   As3  v092
 BYTE   W12
 BYTE   Cn4  v080
 BYTE   W12
 BYTE   N05  As3  v084
 BYTE   W06
 BYTE   Gs3
 BYTE   W06
 BYTE   N23  Gn3  v092
 BYTE   W24
 BYTE   N17  En3
 BYTE   W11
//  #02 //010   ----------------------------------------
 BYTE   W07
 BYTE   N02  Fn3
 BYTE   W03
 BYTE   Gn3
 BYTE   W05
 BYTE   GoTo
  POIN2 Label_01A51199
 BYTE   FINE

//**************** Track 3 (Midi-Chn.2) ****************//

Conversation1_003:
//  #03 //000   ----------------------------------------
 BYTE   KEYSH   Conversation1_key+0
 BYTE   VOICE   47
 BYTE   MODT 0
 BYTE   LFOS 44
 BYTE   W12
Label_01A50879:
 BYTE   PAN   c_v+0
 BYTE   VOL   95*Conversation1_mvl/mxv
 BYTE   W04
 BYTE   VOL   44*Conversation1_mvl/mxv
 BYTE   PAN   c_v-25
 BYTE   VOL   39*Conversation1_mvl/mxv
 BYTE   N08  Cn2  v080
 BYTE   W09
 BYTE   N05  Cs2  v068
 BYTE   W06
 BYTE   N20
 BYTE   W21
 BYTE   N11  Cn2  v048
 BYTE   W12
 BYTE   N08  Cn2  v080
 BYTE   W09
 BYTE   N05  Cs2  v068
 BYTE   W06
 BYTE   N20
 BYTE   W17
//  #03 //001   ----------------------------------------
 BYTE   W04
 BYTE   N11  Cn2  v048
 BYTE   W12
 BYTE   N28  Cs2  v072
 BYTE   W30
 BYTE   N17  Ds2  v068
 BYTE   W18
 BYTE   N05
 BYTE   W06
 BYTE   N02  Ds2  v072
 BYTE   W03
 BYTE   N20  Ds2  v060
 BYTE   W21
 BYTE   N17
 BYTE   W02
//  #03 //002   ----------------------------------------
 BYTE   W16
 BYTE   N05  Fn2  v072
 BYTE   W06
 BYTE   N32
 BYTE   W36
 BYTE   N05  Dn2  v036
 BYTE   W06
 BYTE   N44  Cn2  v080
 BYTE   W32
//  #03 //003   ----------------------------------------
 BYTE   W16
 BYTE   Cs2  v068
 BYTE   W48
 BYTE   Gs1  v028
 BYTE   W32
//  #03 //004   ----------------------------------------
 BYTE   W16
 BYTE   N17  Gs2  v068
 BYTE   W18
 BYTE   N05  Gs2  v060
 BYTE   W06
 BYTE   N23  Gs2  v064
 BYTE   W24
 BYTE   Gn2  v080
 BYTE   W24
 BYTE   Gn2  v064
 BYTE   W08
//  #03 //005   ----------------------------------------
 BYTE   W16
 BYTE   Fn2  v072
 BYTE   W24
 BYTE   Gs2  v068
 BYTE   W24
 BYTE   N44  As2
 BYTE   W32
//  #03 //006   ----------------------------------------
 BYTE   W16
 BYTE   N23  Fn2  v056
 BYTE   W24
 BYTE   Fn2  v048
 BYTE   W24
 BYTE   Fn2  v056
 BYTE   W24
 BYTE   Fn2  v048
 BYTE   W08
//  #03 //007   ----------------------------------------
 BYTE   W16
 BYTE   N28  Fn2  v064
 BYTE   W30
 BYTE   N17  Fn2  v068
 BYTE   W18
 BYTE   N05  Ds2  v072
 BYTE   W06
 BYTE   N28  Ds2  v080
 BYTE   W24
 BYTE   W02
//  #03 //008   ----------------------------------------
 BYTE   W04
 BYTE   N05  Ds2  v072
 BYTE   W06
 BYTE   N05
 BYTE   W06
 BYTE   N20  Dn2  v080
 BYTE   W21
 BYTE   N02  Dn2  v072
 BYTE   W03
 BYTE   N17  Dn2  v080
 BYTE   W18
 BYTE   N05  En2  v068
 BYTE   W36
 BYTE   W02
//  #03 //009   ----------------------------------------
 BYTE   W16
 BYTE   N23  Cn2  v064
 BYTE   W24
 BYTE   N11  Ds2  v056
 BYTE   W12
 BYTE   Cs2  v036
 BYTE   W12
 BYTE   N44  Cn2  v024
 BYTE   W32
//  #03 //010   ----------------------------------------
 BYTE   W15
 BYTE   GoTo
  POIN2 Label_01A50879
 BYTE   FINE

//**************** Track 4 (Midi-Chn.3) ****************//

Conversation1_004:
//  #04 //000   ----------------------------------------
 BYTE   KEYSH   Conversation1_key+0
 BYTE   VOICE   61
 BYTE   MODT 0
 BYTE   LFOS 44
 BYTE   W12
Label_01A509FD:
 BYTE   PAN   c_v+0
 BYTE   VOL   55*Conversation1_mvl/mxv
 BYTE   PAN   c_v+25
 BYTE   VOL   49*Conversation1_mvl/mxv
 BYTE   N02  Fn2  v080
 BYTE   W06
 BYTE   N05  Fn2  v088
 BYTE   W12
 BYTE   N02  Fn2  v076
 BYTE   W06
 BYTE   Fn2  v088
 BYTE   W06
 BYTE   N08  Fn2  v080
 BYTE   W18
 BYTE   N02  Ds2
 BYTE   W06
 BYTE   N05  Ds2  v088
 BYTE   W12
 BYTE   N02  Ds2  v076
 BYTE   W06
 BYTE   Ds2  v088
 BYTE   W06
 BYTE   N08  Ds2  v080
 BYTE   W06
//  #04 //001   ----------------------------------------
 BYTE   W12
 BYTE   N02  Cs2  v068
 BYTE   W06
 BYTE   N05  Cs2  v080
 BYTE   W12
 BYTE   N02  Cs2  v068
 BYTE   W06
 BYTE   N02
 BYTE   W06
 BYTE   N05  Cs2  v076
 BYTE   W12
 BYTE   N02  Cs2  v068
 BYTE   W06
 BYTE   Gs2  v088
 BYTE   W06
 BYTE   N05  Gs2  v076
 BYTE   W12
 BYTE   N02  Gs2  v052
 BYTE   W06
 BYTE   Gs2  v064
 BYTE   W06
 BYTE   N05  Gs2  v080
 BYTE   W06
//  #04 //002   ----------------------------------------
 BYTE   W06
 BYTE   N02  Gs2  v064
 BYTE   W06
 BYTE   Gn2  v060
 BYTE   W06
 BYTE   N05  Gn2  v052
 BYTE   W12
 BYTE   N02  Gn2  v064
 BYTE   W06
 BYTE   Cn2  v056
 BYTE   W06
 BYTE   N05  Cn2  v080
 BYTE   W12
 BYTE   N02  Cn2  v064
 BYTE   W06
 BYTE   Fn2  v044
 BYTE   W06
 BYTE   N05  Fn2  v056
 BYTE   W12
 BYTE   N02  Fn2  v048
 BYTE   W06
 BYTE   Fn2  v040
 BYTE   W06
 BYTE   N05  Fn2  v060
 BYTE   W06
//  #04 //003   ----------------------------------------
 BYTE   W06
 BYTE   N02  Ds2  v076
 BYTE   W06
 BYTE   Cs2  v064
 BYTE   W06
 BYTE   N05  Cs2  v076
 BYTE   W12
 BYTE   Cs2  v068
 BYTE   W12
 BYTE   N02  Cn2  v044
 BYTE   W06
 BYTE   N05  Cn2  v076
 BYTE   W12
 BYTE   N02  Fn2  v060
 BYTE   W06
 BYTE   N05  Fn2  v068
 BYTE   W12
 BYTE   N02
 BYTE   W06
 BYTE   Fn2  v064
 BYTE   W06
 BYTE   N05  Fn2  v044
 BYTE   W06
//  #04 //004   ----------------------------------------
 BYTE   W06
 BYTE   N02  Fn2  v064
 BYTE   W06
 BYTE   Cs2  v076
 BYTE   W06
 BYTE   N05
 BYTE   W12
 BYTE   N02  Cs2  v056
 BYTE   W06
 BYTE   Cs2  v064
 BYTE   W06
 BYTE   N09  Cs2  v076
 BYTE   W18
 BYTE   N02  Cn2  v064
 BYTE   W06
 BYTE   N05  Cn2  v068
 BYTE   W12
 BYTE   N02  Cn2  v044
 BYTE   W06
 BYTE   Cn2  v052
 BYTE   W06
 BYTE   N08  Cn2  v056
 BYTE   W06
//  #04 //005   ----------------------------------------
 BYTE   W12
 BYTE   N11  As1  v080
 BYTE   W24
 BYTE   Gs1
 BYTE   W24
 BYTE   Gn1  v088
 BYTE   W24
 BYTE   Cn2  v076
 BYTE   W12
//  #04 //006   ----------------------------------------
 BYTE   W12
 BYTE   N02  Fn2  v064
 BYTE   W06
 BYTE   N05  Fn2  v080
 BYTE   W12
 BYTE   N02  Fn2  v060
 BYTE   W06
 BYTE   Fn2  v076
 BYTE   W06
 BYTE   N04  Fn2  v064
 BYTE   W09
 BYTE   N04
 BYTE   W09
 BYTE   N02  Ds2  v068
 BYTE   W06
 BYTE   N05  Ds2  v052
 BYTE   W12
 BYTE   N02  Ds2  v032
 BYTE   W06
 BYTE   Ds2  v080
 BYTE   W06
 BYTE   N04
 BYTE   W06
//  #04 //007   ----------------------------------------
 BYTE   W03
 BYTE   Ds2  v076
 BYTE   W09
 BYTE   N02  Cs2
 BYTE   W06
 BYTE   N05  Cs2  v100
 BYTE   W12
 BYTE   N02
 BYTE   W06
 BYTE   Cs2  v064
 BYTE   W06
 BYTE   N05  Cs2  v088
 BYTE   W12
 BYTE   N02  Gs1  v076
 BYTE   W06
 BYTE   N05  Gs1  v080
 BYTE   W12
 BYTE   N02  Gs1  v076
 BYTE   W06
 BYTE   Gs1  v080
 BYTE   W06
 BYTE   N05
 BYTE   W12
//  #04 //008   ----------------------------------------
 BYTE   N02
 BYTE   W06
 BYTE   Gs1  v052
 BYTE   W06
 BYTE   N05  Gn2  v076
 BYTE   W12
 BYTE   N02
 BYTE   W06
 BYTE   N02
 BYTE   W06
 BYTE   N05  Cn2
 BYTE   W12
 BYTE   N02  Cn2  v056
 BYTE   W06
 BYTE   Cn2  v076
 BYTE   W06
 BYTE   Fn2  v080
 BYTE   W06
 BYTE   N05  Fn2  v068
 BYTE   W12
 BYTE   N02  En2
 BYTE   W06
 BYTE   N05  Ds2  v056
 BYTE   W12
//  #04 //009   ----------------------------------------
 BYTE   Cs2
 BYTE   W12
 BYTE   N02  Fn2  v064
 BYTE   W06
 BYTE   N05  Fn2  v048
 BYTE   W12
 BYTE   N02  Fn2  v064
 BYTE   W06
 BYTE   N11  Cs2  v060
 BYTE   W24
 BYTE   N02  Cn2  v044
 BYTE   W06
 BYTE   N11  Cn2  v040
 BYTE   W24
 BYTE   N02  Cn2  v060
 BYTE   W06
//  #04 //010   ----------------------------------------
 BYTE   N02
 BYTE   W06
 BYTE   N02
 BYTE   W09
 BYTE   GoTo
  POIN2 Label_01A509FD
 BYTE   FINE

//**************** Track 5 (Midi-Chn.4) ****************//

Conversation1_005:
//  #05 //000   ----------------------------------------
 BYTE   KEYSH   Conversation1_key+0
 BYTE   VOICE   59
 BYTE   MODT 0
 BYTE   LFOS 44
 BYTE   W12
Label_01A50D29:
 BYTE   PAN   c_v+0
 BYTE   VOL   55*Conversation1_mvl/mxv
 BYTE   PAN   c_v-43
 BYTE   VOL   52*Conversation1_mvl/mxv
 BYTE   N02  Fn1  v080
 BYTE   W06
 BYTE   N05  Fn1  v088
 BYTE   W12
 BYTE   N02  Fn1  v076
 BYTE   W06
 BYTE   Fn1  v088
 BYTE   W06
 BYTE   N08  Fn1  v080
 BYTE   W18
 BYTE   N02  Ds1
 BYTE   W06
 BYTE   N05  Ds1  v088
 BYTE   W12
 BYTE   N02  Ds1  v076
 BYTE   W06
 BYTE   Ds1  v088
 BYTE   W06
 BYTE   N08  Ds1  v080
 BYTE   W06
//  #05 //001   ----------------------------------------
 BYTE   W12
 BYTE   N02  Cs1
 BYTE   W06
 BYTE   N05
 BYTE   W12
 BYTE   N02
 BYTE   W06
 BYTE   N02
 BYTE   W06
 BYTE   N05
 BYTE   W12
 BYTE   N02  Cs1  v076
 BYTE   W06
 BYTE   Gs1  v080
 BYTE   W06
 BYTE   N05
 BYTE   W12
 BYTE   N02  Gs1  v076
 BYTE   W06
 BYTE   Gs1  v080
 BYTE   W06
 BYTE   N05
 BYTE   W06
//  #05 //002   ----------------------------------------
 BYTE   W06
 BYTE   N02  Gs1  v076
 BYTE   W06
 BYTE   Gn1  v064
 BYTE   W06
 BYTE   N05  Gn1  v076
 BYTE   W12
 BYTE   N02
 BYTE   W06
 BYTE   Cn1  v080
 BYTE   W06
 BYTE   N05
 BYTE   W12
 BYTE   N02
 BYTE   W06
 BYTE   Fn1
 BYTE   W06
 BYTE   N05
 BYTE   W12
 BYTE   N02  Fn1  v064
 BYTE   W06
 BYTE   Fn1  v068
 BYTE   W06
 BYTE   N05
 BYTE   W06
//  #05 //003   ----------------------------------------
 BYTE   W06
 BYTE   N02  Ds1  v080
 BYTE   W06
 BYTE   Cs1
 BYTE   W06
 BYTE   N05  Cs1  v088
 BYTE   W12
 BYTE   Cs1  v080
 BYTE   W12
 BYTE   N02  Cn1  v068
 BYTE   W06
 BYTE   N05  Cn1  v088
 BYTE   W12
 BYTE   N02  Fn1  v068
 BYTE   W06
 BYTE   N05  Fn1  v076
 BYTE   W12
 BYTE   N02
 BYTE   W06
 BYTE   N02
 BYTE   W06
 BYTE   N05  Fn1  v044
 BYTE   W06
//  #05 //004   ----------------------------------------
 BYTE   W06
 BYTE   N02  Fn1  v068
 BYTE   W06
 BYTE   Cs1  v088
 BYTE   W06
 BYTE   N05
 BYTE   W12
 BYTE   N02  Cs1  v060
 BYTE   W06
 BYTE   Cs1  v076
 BYTE   W06
 BYTE   N09
 BYTE   W18
 BYTE   N02  Cn1  v060
 BYTE   W06
 BYTE   N05  Cn1  v076
 BYTE   W12
 BYTE   N02  Cn1  v056
 BYTE   W06
 BYTE   Cn1  v060
 BYTE   W06
 BYTE   N08  Cn1  v080
 BYTE   W06
//  #05 //005   ----------------------------------------
 BYTE   W12
 BYTE   N11  As0
 BYTE   W24
 BYTE   Gs0
 BYTE   W24
 BYTE   Gn0  v088
 BYTE   W24
 BYTE   Cn1  v080
 BYTE   W12
//  #05 //006   ----------------------------------------
 BYTE   W12
 BYTE   N02  Fn1  v076
 BYTE   W06
 BYTE   N05  Fn1  v088
 BYTE   W12
 BYTE   N02  Fn1  v064
 BYTE   W06
 BYTE   Fn1  v080
 BYTE   W06
 BYTE   N04  Fn1  v076
 BYTE   W09
 BYTE   Fn1  v060
 BYTE   W09
 BYTE   N02  Ds1  v080
 BYTE   W06
 BYTE   N05  Ds1  v068
 BYTE   W12
 BYTE   N02  Ds1  v076
 BYTE   W06
 BYTE   Ds1  v080
 BYTE   W06
 BYTE   N04  Ds1  v088
 BYTE   W06
//  #05 //007   ----------------------------------------
 BYTE   W03
 BYTE   Ds1  v080
 BYTE   W09
 BYTE   N02  Cs1  v076
 BYTE   W06
 BYTE   N05  Cs1  v100
 BYTE   W12
 BYTE   N02
 BYTE   W06
 BYTE   Cs1  v068
 BYTE   W06
 BYTE   N05  Cs1  v088
 BYTE   W12
 BYTE   N02  Gs1  v076
 BYTE   W06
 BYTE   N05  Gs1  v080
 BYTE   W12
 BYTE   N02  Gs1  v076
 BYTE   W06
 BYTE   Gs1  v080
 BYTE   W06
 BYTE   N05
 BYTE   W12
//  #05 //008   ----------------------------------------
 BYTE   N02
 BYTE   W06
 BYTE   Gs1  v052
 BYTE   W06
 BYTE   N05  Gn1  v080
 BYTE   W12
 BYTE   N02
 BYTE   W06
 BYTE   Gn1  v088
 BYTE   W06
 BYTE   N05  Cn1
 BYTE   W12
 BYTE   N02  Cn1  v064
 BYTE   W06
 BYTE   Cn1  v076
 BYTE   W06
 BYTE   Fn1  v080
 BYTE   W06
 BYTE   N06
 BYTE   W13
 BYTE   N02  En1
 BYTE   W06
 BYTE   N05  Ds1
 BYTE   W11
//  #05 //009   ----------------------------------------
 BYTE   W01
 BYTE   Cs1
 BYTE   W36
 BYTE   N11  Cs1  v076
 BYTE   W24
 BYTE   N02  Cn1  v060
 BYTE   W06
 BYTE   N11
 BYTE   W24
 BYTE   N02  Cn1  v068
 BYTE   W05
//  #05 //010   ----------------------------------------
 BYTE   W01
 BYTE   N02
 BYTE   W06
 BYTE   N02
 BYTE   W08
 BYTE   GoTo
  POIN2 Label_01A50D29
 BYTE   FINE

//**************** Track 6 (Midi-Chn.5) ****************//

Conversation1_006:
//  #06 //000   ----------------------------------------
 BYTE   KEYSH   Conversation1_key+0
 BYTE   VOICE   73
 BYTE   MODT 0
 BYTE   LFOS 44
 BYTE   VOL   53*Conversation1_mvl/mxv
 BYTE   PAN   c_v-14
 BYTE   VOL   48*Conversation1_mvl/mxv
 BYTE   W06
 BYTE   N02  Fn3  v088
 BYTE   W03
 BYTE   Gn3  v072
 BYTE   W03
Label_01A50EB2:
 BYTE   PAN   c_v-14
 BYTE   VOL   39*Conversation1_mvl/mxv
 BYTE   PAN   c_v+14
 BYTE   VOL   39*Conversation1_mvl/mxv
 BYTE   N08  Cn2  v080
 BYTE   W09
 BYTE   N05  Cs2  v068
 BYTE   W06
 BYTE   N20
 BYTE   W21
 BYTE   N11  Cn2  v048
 BYTE   W12
 BYTE   N08  Cn2  v080
 BYTE   W09
 BYTE   N05  Cs2  v068
 BYTE   W06
 BYTE   N20
 BYTE   W21
//  #06 //001   ----------------------------------------
 BYTE   N11  Cn2  v048
 BYTE   W12
 BYTE   N28  Cs2  v072
 BYTE   W30
 BYTE   N17  Ds2  v068
 BYTE   W18
 BYTE   N05
 BYTE   W06
 BYTE   N02  Ds2  v072
 BYTE   W03
 BYTE   N20  Ds2  v060
 BYTE   W21
 BYTE   N17
 BYTE   W06
//  #06 //002   ----------------------------------------
 BYTE   W12
 BYTE   N05  Fn2  v072
 BYTE   W06
 BYTE   N32
 BYTE   W36
 BYTE   N05  Dn2  v036
 BYTE   W06
 BYTE   N44  Cn2  v080
 BYTE   W36
//  #06 //003   ----------------------------------------
 BYTE   W12
 BYTE   Cs2  v068
 BYTE   W48
 BYTE   Gs1  v028
 BYTE   W36
//  #06 //004   ----------------------------------------
 BYTE   W12
 BYTE   N17  Gs2  v068
 BYTE   W18
 BYTE   N05  Gs2  v060
 BYTE   W06
 BYTE   N23  Gs2  v064
 BYTE   W24
 BYTE   Gn2  v080
 BYTE   W24
 BYTE   Gn2  v064
 BYTE   W12
//  #06 //005   ----------------------------------------
 BYTE   W12
 BYTE   Fn2  v072
 BYTE   W24
 BYTE   Gs2  v068
 BYTE   W24
 BYTE   N44  As2
 BYTE   W36
//  #06 //006   ----------------------------------------
 BYTE   W12
 BYTE   N23  Fn2  v056
 BYTE   W24
 BYTE   Fn2  v048
 BYTE   W24
 BYTE   Fn2  v056
 BYTE   W24
 BYTE   Fn2  v048
 BYTE   W12
//  #06 //007   ----------------------------------------
 BYTE   W12
 BYTE   N28  Fn2  v064
 BYTE   W30
 BYTE   N17  Fn2  v068
 BYTE   W18
 BYTE   N05  Ds2  v072
 BYTE   W06
 BYTE   N28  Ds2  v080
 BYTE   W30
//  #06 //008   ----------------------------------------
 BYTE   N05  Ds2  v072
 BYTE   W06
 BYTE   N05
 BYTE   W06
 BYTE   N20  Dn2  v080
 BYTE   W21
 BYTE   N02  Dn2  v072
 BYTE   W03
 BYTE   N17  Dn2  v080
 BYTE   W18
 BYTE   N05  En2  v068
 BYTE   W42
//  #06 //009   ----------------------------------------
 BYTE   W12
 BYTE   N23  Cn2  v064
 BYTE   W24
 BYTE   N11  Ds2  v056
 BYTE   W12
 BYTE   Cs2  v036
 BYTE   W12
 BYTE   N44  Cn2  v024
 BYTE   W36
//  #06 //010   ----------------------------------------
 BYTE   W15
 BYTE   GoTo
  POIN2 Label_01A50EB2
 BYTE   FINE

//**************** Track 7 (Midi-Chn.6) ****************//

Conversation1_007:
//  #07 //000   ----------------------------------------
 BYTE   KEYSH   Conversation1_key+0
 BYTE   VOICE   48
 BYTE   MODT 0
 BYTE   LFOS 44
 BYTE   VOL   39*Conversation1_mvl/mxv
 BYTE   PAN   c_v+34
 BYTE   VOL   35*Conversation1_mvl/mxv
 BYTE   W09
 BYTE   N02  Fn2  v088
 BYTE   W03
Label_01A51347:
 BYTE   W06
 BYTE   PAN   c_v+34
 BYTE   VOL   35*Conversation1_mvl/mxv
 BYTE   N05  Gs2  v080
 BYTE   W06
 BYTE   N02  Fn2  v100
 BYTE   W03
 BYTE   N04  As2  v084
 BYTE   W06
 BYTE   N02  Gs2  v092
 BYTE   W03
 BYTE   Gn2
 BYTE   W03
 BYTE   Fn2  v100
 BYTE   W03
 BYTE   N17  Gs2  v092
 BYTE   W18
 BYTE   N02  Fn2
 BYTE   W03
 BYTE   Gn2  v084
 BYTE   W03
 BYTE   N05  Gs2  v080
 BYTE   W06
 BYTE   N02  Fn2  v100
 BYTE   W03
 BYTE   N04  As2  v084
 BYTE   W06
 BYTE   N02  Gs2  v092
 BYTE   W03
 BYTE   Gn2
 BYTE   W03
 BYTE   Fn2  v100
 BYTE   W03
 BYTE   N17  Gs2  v092
 BYTE   W06
//  #07 //001   ----------------------------------------
 BYTE   W12
 BYTE   N02  Fn2
 BYTE   W03
 BYTE   Gn2  v084
 BYTE   W03
 BYTE   N05  Gs2  v100
 BYTE   W06
 BYTE   Fn2  v084
 BYTE   W06
 BYTE   N02  As2
 BYTE   W03
 BYTE   Gs2  v092
 BYTE   W03
 BYTE   Gn2
 BYTE   W03
 BYTE   N08  Gs2  v100
 BYTE   W09
 BYTE   N14  As2  v092
 BYTE   W18
 BYTE   N05
 BYTE   W06
 BYTE   N02  Cn3  v088
 BYTE   W03
 BYTE   N20  Cn3  v068
 BYTE   W21
//  #07 //002   ----------------------------------------
 BYTE   N05  Cn3  v084
 BYTE   W06
 BYTE   Ds3
 BYTE   W06
 BYTE   Cs3  v100
 BYTE   W06
 BYTE   N17  Cn3  v092
 BYTE   W18
 BYTE   N02  As2  v100
 BYTE   W03
 BYTE   Cn3
 BYTE   W03
 BYTE   N10  As2  v092
 BYTE   W12
 BYTE   N05  Cn3
 BYTE   W06
 BYTE   Gn2
 BYTE   W06
 BYTE   N11  Gs2
 BYTE   W12
 BYTE   Gn2
 BYTE   W12
 BYTE   N09  Fn2
 BYTE   W06
//  #07 //003   ----------------------------------------
 BYTE   W06
 BYTE   N05  Fn2  v084
 BYTE   W06
 BYTE   Gn2  v092
 BYTE   W06
 BYTE   N15  Gs2  v100
 BYTE   W18
 BYTE   N05  Gs2  v084
 BYTE   W06
 BYTE   N08  As2
 BYTE   W09
 BYTE   Gn2  v112
 BYTE   W09
 BYTE   N40  Fn2
 BYTE   W36
//  #07 //004   ----------------------------------------
 BYTE   W06
 BYTE   N05  Fn3  v072
 BYTE   W06
 BYTE   Ds3  v092
 BYTE   W06
 BYTE   N16  Fn3  v068
 BYTE   W18
 BYTE   N02  Cs3  v092
 BYTE   W03
 BYTE   Ds3  v100
 BYTE   W03
 BYTE   N17  Fn3  v092
 BYTE   W18
 BYTE   N02  Gn3  v100
 BYTE   W03
 BYTE   Fn3
 BYTE   W03
 BYTE   N17  Ds3  v084
 BYTE   W18
 BYTE   N02  Cn3  v100
 BYTE   W03
 BYTE   Cs3
 BYTE   W03
 BYTE   N13  Ds3  v092
 BYTE   W06
//  #07 //005   ----------------------------------------
 BYTE   W12
 BYTE   N04  Ds3  v080
 BYTE   W06
 BYTE   N05  Ds3  v076
 BYTE   W06
 BYTE   N09  Cs3  v084
 BYTE   W12
 BYTE   N02  Cs3  v092
 BYTE   W03
 BYTE   Ds3
 BYTE   W03
 BYTE   N13  Fn3
 BYTE   W18
 BYTE   N02  Gn3
 BYTE   W03
 BYTE   Gs3  v100
 BYTE   W03
 BYTE   N23  As3  v088
 BYTE   W24
 BYTE   N22  Gn3  v092
 BYTE   W06
//  #07 //006   ----------------------------------------
 BYTE   W18
 BYTE   N16  Gs2  v068
 BYTE   W18
 BYTE   N02  Fn2  v080
 BYTE   W03
 BYTE   Gn2
 BYTE   W03
 BYTE   N08  Gs2  v084
 BYTE   W09
 BYTE   N05  As2  v092
 BYTE   W06
 BYTE   N02  Gs2
 BYTE   W03
 BYTE   Gn2
 BYTE   W03
 BYTE   Fn2  v080
 BYTE   W03
 BYTE   N17  Gs2  v092
 BYTE   W18
 BYTE   N02  Fn2  v084
 BYTE   W03
 BYTE   Gn2  v076
 BYTE   W03
 BYTE   N05  Gs2  v092
 BYTE   W06
//  #07 //007   ----------------------------------------
 BYTE   N02  Fn2  v084
 BYTE   W03
 BYTE   N05  As2  v092
 BYTE   W06
 BYTE   N02  Gs2  v084
 BYTE   W03
 BYTE   Gn2  v092
 BYTE   W03
 BYTE   Fn2  v080
 BYTE   W03
 BYTE   N17  Gs2  v084
 BYTE   W18
 BYTE   N02  Fn2
 BYTE   W03
 BYTE   Gn2  v080
 BYTE   W03
 BYTE   N10  Gs2  v084
 BYTE   W12
 BYTE   N09  As2
 BYTE   W12
 BYTE   N04  As2  v100
 BYTE   W06
 BYTE   N23  Cn3  v080
 BYTE   W24
//  #07 //008   ----------------------------------------
 BYTE   W06
 BYTE   N03  Cn3  v100
 BYTE   W06
 BYTE   N03
 BYTE   W06
 BYTE   N15
 BYTE   W18
 BYTE   N02  As2  v092
 BYTE   W03
 BYTE   Cn3  v112
 BYTE   W03
 BYTE   N17  As2  v100
 BYTE   W18
 BYTE   N05  Cn3
 BYTE   W06
 BYTE   N11  Gs2  v112
 BYTE   W12
 BYTE   As2  v100
 BYTE   W12
 BYTE   Cn3
 BYTE   W06
//  #07 //009   ----------------------------------------
 BYTE   W06
 BYTE   Fn3  v080
 BYTE   W12
 BYTE   Gs2  v084
 BYTE   W12
 BYTE   As2  v092
 BYTE   W12
 BYTE   Cn3  v080
 BYTE   W12
 BYTE   N05  As2  v084
 BYTE   W06
 BYTE   Gs2
 BYTE   W06
 BYTE   N23  Gn2  v092
 BYTE   W24
 BYTE   N17  En2
 BYTE   W06
//  #07 //010   ----------------------------------------
 BYTE   W12
 BYTE   N02  Fn2
 BYTE   W03
 BYTE   GoTo
  POIN2 Label_01A51347
 BYTE   FINE

//**************** Track 8 (Midi-Chn.7) ****************//

Conversation1_008:
//  #08 //000   ----------------------------------------
 BYTE   KEYSH   Conversation1_key+0
 BYTE   VOICE   62
 BYTE   MODT 0
 BYTE   LFOS 44
 BYTE   VOL   58*Conversation1_mvl/mxv
 BYTE   PAN   c_v+25
 BYTE   VOL   52*Conversation1_mvl/mxv
 BYTE   W06
 BYTE   N02  Fn2  v088
 BYTE   W03
 BYTE   N04  Gn2  v072
 BYTE   W03
Label_01A514EB:
 BYTE   VOL   52*Conversation1_mvl/mxv
 BYTE   W01
 BYTE   VOL   48*Conversation1_mvl/mxv
 BYTE   PAN   c_v+25
 BYTE   VOL   48*Conversation1_mvl/mxv
 BYTE   N05  Gs2  v080
 BYTE   W06
 BYTE   N02  Fn2  v100
 BYTE   W03
 BYTE   N04  As2  v084
 BYTE   W06
 BYTE   N02  Gs2  v092
 BYTE   W03
 BYTE   Gn2
 BYTE   W03
 BYTE   Fn2  v100
 BYTE   W03
 BYTE   N17  Gs2  v092
 BYTE   W18
 BYTE   N02  Fn2
 BYTE   W03
 BYTE   Gn2  v084
 BYTE   W03
 BYTE   N05  Gs2  v080
 BYTE   W06
 BYTE   N02  Fn2  v100
 BYTE   W03
 BYTE   N04  As2  v084
 BYTE   W06
 BYTE   N02  Gs2  v092
 BYTE   W03
 BYTE   Gn2
 BYTE   W03
 BYTE   Fn2  v100
 BYTE   W03
 BYTE   N17  Gs2  v092
 BYTE   W11
//  #08 //001   ----------------------------------------
 BYTE   W07
 BYTE   N02  Fn2
 BYTE   W03
 BYTE   Gn2  v084
 BYTE   W03
 BYTE   N05  Gs2  v100
 BYTE   W06
 BYTE   Fn2  v084
 BYTE   W06
 BYTE   N02  As2
 BYTE   W03
 BYTE   Gs2  v092
 BYTE   W03
 BYTE   Gn2
 BYTE   W03
 BYTE   N08  Gs2  v100
 BYTE   W09
 BYTE   N14  As2  v092
 BYTE   W18
 BYTE   N05
 BYTE   W06
 BYTE   N02  Cn3  v088
 BYTE   W03
 BYTE   N20  Cn3  v068
 BYTE   W21
 BYTE   N05  Cn3  v084
 BYTE   W05
//  #08 //002   ----------------------------------------
 BYTE   W01
 BYTE   Ds3
 BYTE   W06
 BYTE   Cs3  v100
 BYTE   W06
 BYTE   N17  Cn3  v092
 BYTE   W18
 BYTE   N02  As2  v100
 BYTE   W03
 BYTE   Cn3
 BYTE   W03
 BYTE   N10  As2  v092
 BYTE   W12
 BYTE   N05  Cn3
 BYTE   W06
 BYTE   Gn2
 BYTE   W06
 BYTE   N11  Gs2
 BYTE   W12
 BYTE   Gn2
 BYTE   W12
 BYTE   N09  Fn2
 BYTE   W11
//  #08 //003   ----------------------------------------
 BYTE   W01
 BYTE   N05  Fn2  v084
 BYTE   W06
 BYTE   Gn2  v092
 BYTE   W06
 BYTE   N15  Gs2  v100
 BYTE   W18
 BYTE   N05  Gs2  v084
 BYTE   W06
 BYTE   N08  As2
 BYTE   W09
 BYTE   Gn2  v112
 BYTE   W09
 BYTE   N40  Fn2
 BYTE   W40
 BYTE   W01
//  #08 //004   ----------------------------------------
 BYTE   W01
 BYTE   N05  Fn3  v072
 BYTE   W06
 BYTE   Ds3  v092
 BYTE   W06
 BYTE   N16  Fn3  v068
 BYTE   W18
 BYTE   N02  Cs3  v092
 BYTE   W03
 BYTE   Ds3  v100
 BYTE   W03
 BYTE   N17  Fn3  v092
 BYTE   W18
 BYTE   N02  Gn3  v100
 BYTE   W03
 BYTE   Fn3
 BYTE   W03
 BYTE   N17  Ds3  v084
 BYTE   W18
 BYTE   N02  Cn3  v100
 BYTE   W03
 BYTE   Cs3
 BYTE   W03
 BYTE   N13  Ds3  v092
 BYTE   W11
//  #08 //005   ----------------------------------------
 BYTE   W07
 BYTE   N04  Ds3  v080
 BYTE   W06
 BYTE   N05  Ds3  v076
 BYTE   W06
 BYTE   N09  Cs3  v084
 BYTE   W12
 BYTE   N02  Cs3  v092
 BYTE   W03
 BYTE   Ds3
 BYTE   W03
 BYTE   N13  Fn3
 BYTE   W18
 BYTE   N02  Gn3
 BYTE   W03
 BYTE   Gs3  v100
 BYTE   W03
 BYTE   N23  As3  v088
 BYTE   W24
 BYTE   N22  Gn3  v092
 BYTE   W11
//  #08 //006   ----------------------------------------
 BYTE   W13
 BYTE   N16  Gs2  v068
 BYTE   W18
 BYTE   N02  Fn2  v080
 BYTE   W03
 BYTE   Gn2
 BYTE   W03
 BYTE   N08  Gs2  v084
 BYTE   W09
 BYTE   N05  As2  v092
 BYTE   W06
 BYTE   N02  Gs2
 BYTE   W03
 BYTE   Gn2
 BYTE   W03
 BYTE   Fn2  v080
 BYTE   W03
 BYTE   N17  Gs2  v092
 BYTE   W18
 BYTE   N02  Fn2  v084
 BYTE   W03
 BYTE   Gn2  v076
 BYTE   W03
 BYTE   N05  Gs2  v092
 BYTE   W06
 BYTE   N02  Fn2  v084
 BYTE   W03
 BYTE   N05  As2  v092
 BYTE   W02
//  #08 //007   ----------------------------------------
 BYTE   W04
 BYTE   N02  Gs2  v084
 BYTE   W03
 BYTE   Gn2  v092
 BYTE   W03
 BYTE   Fn2  v080
 BYTE   W03
 BYTE   N17  Gs2  v084
 BYTE   W18
 BYTE   N02  Fn2
 BYTE   W03
 BYTE   Gn2  v080
 BYTE   W03
 BYTE   N10  Gs2  v084
 BYTE   W12
 BYTE   N09  As2
 BYTE   W12
 BYTE   N04  As2  v100
 BYTE   W06
 BYTE   N23  Cn3  v080
 BYTE   W28
 BYTE   W01
//  #08 //008   ----------------------------------------
 BYTE   W01
 BYTE   N03  Cn3  v100
 BYTE   W06
 BYTE   N03
 BYTE   W06
 BYTE   N15
 BYTE   W18
 BYTE   N02  As2  v092
 BYTE   W03
 BYTE   Cn3  v112
 BYTE   W03
 BYTE   N17  As2  v100
 BYTE   W18
 BYTE   N05  Cn3
 BYTE   W06
 BYTE   N11  Gs2  v112
 BYTE   W12
 BYTE   As2  v100
 BYTE   W12
 BYTE   Cn3
 BYTE   W11
//  #08 //009   ----------------------------------------
 BYTE   W01
 BYTE   Fn3  v080
 BYTE   W12
 BYTE   Gs2  v084
 BYTE   W12
 BYTE   As2  v092
 BYTE   W12
 BYTE   Cn3  v080
 BYTE   W12
 BYTE   N05  As2  v084
 BYTE   W06
 BYTE   Gs2
 BYTE   W06
 BYTE   N23  Gn2  v092
 BYTE   W24
 BYTE   N17  En2
 BYTE   W11
//  #08 //010   ----------------------------------------
 BYTE   W07
 BYTE   N02  Fn2
 BYTE   W03
 BYTE   Gn2
 BYTE   W05
 BYTE   GoTo
  POIN2 Label_01A514EB
 BYTE   FINE

//******************************************************//
	ALIGN 4

Conversation1:
	BYTE	8	// NumTrks
	BYTE	0	// NumBlks
	BYTE	Conversation1_pri	// Priority
	BYTE	Conversation1_rev	// Reverb.
    
	POIN2	Conversation1_grp
    
	POIN2	Conversation1_001
	POIN2	Conversation1_002
	POIN2	Conversation1_003
	POIN2	Conversation1_004
	POIN2	Conversation1_005
	POIN2	Conversation1_006
	POIN2	Conversation1_007
	POIN2	Conversation1_008

	
