//Event file generated from Sappy .s format.
	#include "MPlayDef.event"

	#define	song03D7_grp  voicegroup000
	#define	song03D7_pri  0
	#define	song03D7_rev  160 //0xA0
	#define	song03D7_mvl  127
	#define	song03D7_key  0
	#define	song03D7_tbs  1
	#define	song03D7_exg  0
	#define	song03D7_cmp  1

	// .rodata
	//	song03D7
	ALIGN 4


//**************** Track 1 (Midi-Chn.0) ****************//

song03D7_001:
//  #01 //000   ----------------------------------------
 BYTE   KEYSH   song03D7_key+0
 BYTE   TEMPO   120*song03D7_tbs/2
 BYTE   VOICE   43
 BYTE   PAN   c_v-2
 BYTE   VOL   25*song03D7_mvl/mxv
 BYTE   BEND   c_v+0
 BYTE   N92  As1  v100
 BYTE   W96
//  #01 //001   ----------------------------------------
 BYTE   Fs1
 BYTE   W96
//  #01 //002   ----------------------------------------
 BYTE   Gs1
 BYTE   W96
//  #01 //003   ----------------------------------------
 BYTE   As1
 BYTE   W48
 BYTE   N44  Fn2
 BYTE   W48
//  #01 //004   ----------------------------------------
Label_0183A941:
 BYTE   N92  As1  v100
 BYTE   N92  As2
 BYTE   W96
//  #01 //005   ----------------------------------------
 BYTE   As1
 BYTE   N92  As2
 BYTE   W96
//  #01 //006   ----------------------------------------
 BYTE   Gs1
 BYTE   N92  Gs2
 BYTE   W96
//  #01 //007   ----------------------------------------
 BYTE   Gs1
 BYTE   N92  Gs2
 BYTE   W96
//  #01 //008   ----------------------------------------
 BYTE   As1
 BYTE   N92  As2
 BYTE   W96
//  #01 //009   ----------------------------------------
 BYTE   Gs1
 BYTE   N92  Gs2
 BYTE   W96
//  #01 //010   ----------------------------------------
 BYTE   Fs1
 BYTE   N92  Fs2
 BYTE   W96
//  #01 //011   ----------------------------------------
 BYTE   Gs1
 BYTE   N92  Gs2
 BYTE   W96
//  #01 //012   ----------------------------------------
 BYTE   As1
 BYTE   N92  As2
 BYTE   W96
//  #01 //013   ----------------------------------------
 BYTE   As1
 BYTE   N92  As2
 BYTE   W96
//  #01 //014   ----------------------------------------
 BYTE   Gs1
 BYTE   N92  Gs2
 BYTE   W96
//  #01 //015   ----------------------------------------
 BYTE   Gs1
 BYTE   N92  Gs2
 BYTE   W96
//  #01 //016   ----------------------------------------
 BYTE   As1
 BYTE   N92  As2
 BYTE   W96
//  #01 //017   ----------------------------------------
 BYTE   Gs1
 BYTE   N92  Gs2
 BYTE   W96
//  #01 //018   ----------------------------------------
 BYTE   Fn2
 BYTE   N92  As2
 BYTE   W96
//  #01 //019   ----------------------------------------
 BYTE   Ds2
 BYTE   N92  Gs2
 BYTE   W96
//  #01 //020   ----------------------------------------
 BYTE   N11  As1
 BYTE   N11  As2
 BYTE   W36
 BYTE   As1
 BYTE   N11  As2
 BYTE   W36
 BYTE   As1
 BYTE   N11  As2
 BYTE   W24
//  #01 //021   ----------------------------------------
 BYTE   Cs2
 BYTE   N11  Cs3
 BYTE   W36
 BYTE   Cn2
 BYTE   N11  Cn3
 BYTE   W36
 BYTE   An1
 BYTE   N11  An2
 BYTE   W24
//  #01 //022   ----------------------------------------
 BYTE   N92  As1
 BYTE   N92  As2
 BYTE   W96
//  #01 //023   ----------------------------------------
 BYTE   Gs1
 BYTE   N92  Gs2
 BYTE   W96
//  #01 //024   ----------------------------------------
 BYTE   Gs1
 BYTE   N92  Gs2
 BYTE   W96
//  #01 //025   ----------------------------------------
 BYTE   As1
 BYTE   N92  As2
 BYTE   W96
//  #01 //026   ----------------------------------------
 BYTE   As1
 BYTE   W96
//  #01 //027   ----------------------------------------
 BYTE   Fs1
 BYTE   W96
//  #01 //028   ----------------------------------------
 BYTE   Gs1
 BYTE   W96
//  #01 //029   ----------------------------------------
 BYTE   As1
 BYTE   W96
//  #01 //030   ----------------------------------------
 BYTE   N92
 BYTE   N92  As2
 BYTE   W96
//  #01 //031   ----------------------------------------
 BYTE   As1
 BYTE   N92  As2
 BYTE   W96
//  #01 //032   ----------------------------------------
 BYTE   Cn2
 BYTE   N92  Cn3
 BYTE   W96
//  #01 //033   ----------------------------------------
 BYTE   Gs1
 BYTE   N92  Gs2
 BYTE   W96
//  #01 //034   ----------------------------------------
 BYTE   As1
 BYTE   N92  As2
 BYTE   W96
//  #01 //035   ----------------------------------------
 BYTE   Gn1
 BYTE   N92  Gn2
 BYTE   W96
//  #01 //036   ----------------------------------------
 BYTE   Gs1
 BYTE   N92  Gs2
 BYTE   W96
//  #01 //037   ----------------------------------------
 BYTE   Cn2
 BYTE   N92  Cn3
 BYTE   W96
//  #01 //038   ----------------------------------------
 BYTE   As1
 BYTE   N92  As2
 BYTE   W96
//  #01 //039   ----------------------------------------
 BYTE   Cn2
 BYTE   N92  Cn3
 BYTE   W96
//  #01 //040   ----------------------------------------
 BYTE   Cs2
 BYTE   N92  Cs3
 BYTE   W96
//  #01 //041   ----------------------------------------
 BYTE   Cn2
 BYTE   N92  Cn3
 BYTE   W96
//  #01 //042   ----------------------------------------
 BYTE   As1
 BYTE   N92  As2
 BYTE   W96
//  #01 //043   ----------------------------------------
 BYTE   Gs1
 BYTE   N92  Gs2
 BYTE   W96
//  #01 //044   ----------------------------------------
 BYTE   Gn1
 BYTE   N92  Gn2
 BYTE   W96
//  #01 //045   ----------------------------------------
 BYTE   Fn1
 BYTE   N92  Fn2
 BYTE   W96
//  #01 //046   ----------------------------------------
 BYTE   Gs1
 BYTE   N92  Gs2
 BYTE   W96
//  #01 //047   ----------------------------------------
 BYTE   Gs1
 BYTE   N92  Gs2
 BYTE   W96
//  #01 //048   ----------------------------------------
 BYTE   Fs1
 BYTE   N92  Fs2
 BYTE   W96
//  #01 //049   ----------------------------------------
 BYTE   Ds1
 BYTE   N92  Ds2
 BYTE   W96
//  #01 //050   ----------------------------------------
 BYTE   Gs1
 BYTE   N92  Gs2
 BYTE   W96
//  #01 //051   ----------------------------------------
 BYTE   Fs1
 BYTE   N92  Fs2
 BYTE   W96
//  #01 //052   ----------------------------------------
 BYTE   Ds1
 BYTE   N92  Ds2
 BYTE   W96
//  #01 //053   ----------------------------------------
 BYTE   Gs1
 BYTE   N44  Gs2
 BYTE   W48
 BYTE   Ds3
 BYTE   W48
//  #01 //054   ----------------------------------------
 BYTE   N92  As1
 BYTE   N92  As2
 BYTE   W96
//  #01 //055   ----------------------------------------
 BYTE   Fs1
 BYTE   N92  Fs2
 BYTE   W96
//  #01 //056   ----------------------------------------
 BYTE   Gs1
 BYTE   N92  Gs2
 BYTE   W96
//  #01 //057   ----------------------------------------
 BYTE   As1
 BYTE   N92  As2
 BYTE   W96
//  #01 //058   ----------------------------------------
 BYTE   W96
//  #01 //059   ----------------------------------------
 BYTE   GoTo
  POIN2 Label_0183A941
 BYTE   FINE

//**************** Track 2 (Midi-Chn.1) ****************//

song03D7_002:
//  #02 //000   ----------------------------------------
 BYTE   KEYSH   song03D7_key+0
 BYTE   VOICE   63
 BYTE   PAN   c_v+3
 BYTE   VOL   25*song03D7_mvl/mxv
 BYTE   BEND   c_v+0
 BYTE   N17  Fn3  v100
 BYTE   W18
 BYTE   Ds3
 BYTE   W18
 BYTE   N56  Fn3
 BYTE   W60
//  #02 //001   ----------------------------------------
Label_0183AD17:
 BYTE   N17  Cs3  v100
 BYTE   W18
 BYTE   Gs3
 BYTE   W18
 BYTE   N56  Fn3
 BYTE   W60
 BYTE   PEND 
//  #02 //002   ----------------------------------------
Label_0183AD21:
 BYTE   N17  Ds3  v100
 BYTE   W18
 BYTE   Cs3
 BYTE   W18
 BYTE   N23  Cn3
 BYTE   W24
 BYTE   N17  Cs3
 BYTE   W18
 BYTE   Cn3
 BYTE   W18
 BYTE   PEND 
//  #02 //003   ----------------------------------------
Label_0183AD30:
 BYTE   N44  As2  v100
 BYTE   W48
 BYTE   As3
 BYTE   W48
 BYTE   PEND 
//  #02 //004   ----------------------------------------
Label_0183AD37:
 BYTE   N23  As3  v100
 BYTE   W24
 BYTE   Gs3
 BYTE   W24
 BYTE   Fn3
 BYTE   W24
 BYTE   Cs3
 BYTE   W24
//  #02 //005   ----------------------------------------
 BYTE   Ds3
 BYTE   W24
 BYTE   Gs3
 BYTE   W24
 BYTE   Fn3
 BYTE   W24
 BYTE   Cs3
 BYTE   W24
//  #02 //006   ----------------------------------------
 BYTE   N17  Cn3
 BYTE   W18
 BYTE   Gs2
 BYTE   W18
 BYTE   Ds2
 BYTE   W18
 BYTE   Gs2
 BYTE   W18
 BYTE   N11  Cn3
 BYTE   W12
 BYTE   Ds3
 BYTE   W12
//  #02 //007   ----------------------------------------
 BYTE   N17  Fn3
 BYTE   W18
 BYTE   Ds3
 BYTE   W18
 BYTE   Cs3
 BYTE   W18
 BYTE   Fn3
 BYTE   W18
 BYTE   N11  Gs3
 BYTE   W12
 BYTE   As3
 BYTE   W12
//  #02 //008   ----------------------------------------
 BYTE   N11
 BYTE   W12
 BYTE   Cn4
 BYTE   W12
 BYTE   N23  Cs4
 BYTE   W24
 BYTE   N11
 BYTE   W12
 BYTE   N05  Ds4
 BYTE   W06
 BYTE   N17  Fn4
 BYTE   W18
 BYTE   N11  Cs4
 BYTE   W12
//  #02 //009   ----------------------------------------
 BYTE   Ds4
 BYTE   W12
 BYTE   Cs4
 BYTE   W12
 BYTE   N23  Cn4
 BYTE   W24
 BYTE   N11  Ds4
 BYTE   W12
 BYTE   N05  Cs4
 BYTE   W06
 BYTE   N17  Cn4
 BYTE   W18
 BYTE   N11  Cs4
 BYTE   W12
//  #02 //010   ----------------------------------------
 BYTE   As3
 BYTE   W12
 BYTE   N11
 BYTE   W12
 BYTE   N17
 BYTE   W18
 BYTE   N17
 BYTE   W18
 BYTE   N11
 BYTE   W12
 BYTE   N05
 BYTE   W06
 BYTE   Cn4
 BYTE   W06
 BYTE   Cs4
 BYTE   W06
 BYTE   Ds4
 BYTE   W06
//  #02 //011   ----------------------------------------
 BYTE   N17  Fn4
 BYTE   W18
 BYTE   Fs4
 BYTE   W18
 BYTE   N11  Fn4
 BYTE   W12
 BYTE   Ds4
 BYTE   W12
 BYTE   Cs4
 BYTE   W12
 BYTE   Cn4
 BYTE   W12
 BYTE   Gs3
 BYTE   W12
//  #02 //012   ----------------------------------------
 BYTE   As3
 BYTE   W12
 BYTE   N05  Gs3
 BYTE   W06
 BYTE   N11  As3
 BYTE   W12
 BYTE   N05  As2
 BYTE   W06
 BYTE   N11  Ds3
 BYTE   W12
 BYTE   N05  Fn3
 BYTE   W06
 BYTE   N11  As3
 BYTE   W12
 BYTE   N05  As2
 BYTE   W06
 BYTE   N11  Cs3
 BYTE   W12
 BYTE   Ds3
 BYTE   W12
//  #02 //013   ----------------------------------------
 BYTE   N17  Fn3
 BYTE   W18
 BYTE   Fs3
 BYTE   W18
 BYTE   Fn3
 BYTE   W18
 BYTE   Ds3
 BYTE   W18
 BYTE   N11  Fn3
 BYTE   W12
 BYTE   Cs3
 BYTE   W12
//  #02 //014   ----------------------------------------
 BYTE   Cn3
 BYTE   W12
 BYTE   N05  Cs3
 BYTE   W06
 BYTE   N11  Ds3
 BYTE   W12
 BYTE   N05  Cn3
 BYTE   W06
 BYTE   N11  Cs3
 BYTE   W12
 BYTE   N05  Ds3
 BYTE   W06
 BYTE   N11  Fn3
 BYTE   W12
 BYTE   N05  Fs3
 BYTE   W06
 BYTE   N11  Gs3
 BYTE   W12
 BYTE   As3
 BYTE   W12
//  #02 //015   ----------------------------------------
 BYTE   N17  Gs3
 BYTE   W18
 BYTE   Fn3
 BYTE   W18
 BYTE   Ds3
 BYTE   W18
 BYTE   Cs3
 BYTE   W18
 BYTE   N11  Ds3
 BYTE   W12
 BYTE   Fn3
 BYTE   W12
//  #02 //016   ----------------------------------------
 BYTE   As2
 BYTE   W12
 BYTE   Cn3
 BYTE   W12
 BYTE   N23  Cs3
 BYTE   W24
 BYTE   N11
 BYTE   W12
 BYTE   N05  Ds3
 BYTE   W06
 BYTE   N17  Fn3
 BYTE   W18
 BYTE   N11  Cs3
 BYTE   W12
//  #02 //017   ----------------------------------------
 BYTE   Ds3
 BYTE   W12
 BYTE   Cs3
 BYTE   W12
 BYTE   N23  Cn3
 BYTE   W24
 BYTE   N11  Ds3
 BYTE   W12
 BYTE   N05  Cs3
 BYTE   W06
 BYTE   N17  Cn3
 BYTE   W18
 BYTE   N11  Cs3
 BYTE   W12
//  #02 //018   ----------------------------------------
 BYTE   N05  As3
 BYTE   W06
 BYTE   Fn3
 BYTE   W06
 BYTE   Cs3
 BYTE   W06
 BYTE   As2
 BYTE   W06
 BYTE   Cs3
 BYTE   W06
 BYTE   Fn3
 BYTE   W06
 BYTE   As3
 BYTE   W06
 BYTE   Fn3
 BYTE   W06
 BYTE   Cs3
 BYTE   W06
 BYTE   As2
 BYTE   W06
 BYTE   Cs3
 BYTE   W06
 BYTE   Fn3
 BYTE   W06
 BYTE   As3
 BYTE   W06
 BYTE   Fn3
 BYTE   W06
 BYTE   As3
 BYTE   W06
 BYTE   Fn3
 BYTE   W06
//  #02 //019   ----------------------------------------
 BYTE   Gs3
 BYTE   W06
 BYTE   Ds3
 BYTE   W06
 BYTE   Cn3
 BYTE   W06
 BYTE   Gs2
 BYTE   W06
 BYTE   Cn3
 BYTE   W06
 BYTE   Ds3
 BYTE   W06
 BYTE   Gs3
 BYTE   W06
 BYTE   Ds3
 BYTE   W06
 BYTE   Cn3
 BYTE   W06
 BYTE   Gs2
 BYTE   W06
 BYTE   Cn3
 BYTE   W06
 BYTE   Ds3
 BYTE   W06
 BYTE   Fn3
 BYTE   W06
 BYTE   Ds3
 BYTE   W06
 BYTE   Cs3
 BYTE   W06
 BYTE   Cn3
 BYTE   W06
//  #02 //020   ----------------------------------------
 BYTE   N17  As2
 BYTE   W18
 BYTE   Gs2
 BYTE   W18
 BYTE   Fn2
 BYTE   W18
 BYTE   Ds2
 BYTE   W18
 BYTE   N11  Gs2
 BYTE   W12
 BYTE   Cn3
 BYTE   W12
//  #02 //021   ----------------------------------------
 BYTE   N17  Cs3
 BYTE   W18
 BYTE   Cn3
 BYTE   W18
 BYTE   As2
 BYTE   W18
 BYTE   An2
 BYTE   W18
 BYTE   N11  Fn3
 BYTE   W12
 BYTE   Ds3
 BYTE   W12
//  #02 //022   ----------------------------------------
 BYTE   Fs3
 BYTE   W12
 BYTE   Cs3
 BYTE   W12
 BYTE   As2
 BYTE   W12
 BYTE   Fs3
 BYTE   W12
 BYTE   Cs3
 BYTE   W12
 BYTE   As2
 BYTE   W12
 BYTE   Fs3
 BYTE   W12
 BYTE   Cs3
 BYTE   W12
//  #02 //023   ----------------------------------------
 BYTE   Fn3
 BYTE   W12
 BYTE   Cs3
 BYTE   W12
 BYTE   Gs2
 BYTE   W12
 BYTE   Fn3
 BYTE   W12
 BYTE   Cs3
 BYTE   W12
 BYTE   Gs2
 BYTE   W12
 BYTE   Fn3
 BYTE   W12
 BYTE   Cs3
 BYTE   W12
//  #02 //024   ----------------------------------------
 BYTE   Ds3
 BYTE   W12
 BYTE   Cn3
 BYTE   W12
 BYTE   Gs2
 BYTE   W12
 BYTE   Ds3
 BYTE   W12
 BYTE   Cn3
 BYTE   W12
 BYTE   Gs2
 BYTE   W12
 BYTE   Cn3
 BYTE   W12
 BYTE   Ds3
 BYTE   W12
//  #02 //025   ----------------------------------------
 BYTE   N17  Cs3
 BYTE   W18
 BYTE   Cn3
 BYTE   W18
 BYTE   N56  As2
 BYTE   W60
//  #02 //026   ----------------------------------------
 BYTE   N17  Fn3
 BYTE   W18
 BYTE   Ds3
 BYTE   W18
 BYTE   N56  Fn3
 BYTE   W60
//  #02 //027   ----------------------------------------
 BYTE   PATT
  POIN2 Label_0183AD17
//  #02 //028   ----------------------------------------
 BYTE   PATT
  POIN2 Label_0183AD21
//  #02 //029   ----------------------------------------
 BYTE   PATT
  POIN2 Label_0183AD30
//  #02 //030   ----------------------------------------
 BYTE   N23  Fn3  v100
 BYTE   W24
 BYTE   Ds3
 BYTE   W24
 BYTE   Cn3
 BYTE   W24
 BYTE   Gs2
 BYTE   W24
//  #02 //031   ----------------------------------------
 BYTE   As2
 BYTE   W24
 BYTE   Ds3
 BYTE   W24
 BYTE   Cn3
 BYTE   W24
 BYTE   Gs2
 BYTE   W24
//  #02 //032   ----------------------------------------
 BYTE   As2
 BYTE   W24
 BYTE   Ds3
 BYTE   W24
 BYTE   Fn3
 BYTE   W24
 BYTE   Gn3
 BYTE   W24
//  #02 //033   ----------------------------------------
 BYTE   Gs3
 BYTE   W24
 BYTE   Gn3
 BYTE   W24
 BYTE   N32  Fn3
 BYTE   W36
 BYTE   N05  Ds3
 BYTE   W06
 BYTE   Fn3
 BYTE   W06
//  #02 //034   ----------------------------------------
 BYTE   N11  Gn3
 BYTE   W12
 BYTE   Gs3
 BYTE   W12
 BYTE   N23  As3
 BYTE   W24
 BYTE   N11  Cn4
 BYTE   W12
 BYTE   N05  As3
 BYTE   W06
 BYTE   N17  Gn3
 BYTE   W18
 BYTE   N11  Fn3
 BYTE   W12
//  #02 //035   ----------------------------------------
 BYTE   Gn3
 BYTE   W12
 BYTE   As3
 BYTE   W12
 BYTE   N23  Cn4
 BYTE   W24
 BYTE   N11  Ds4
 BYTE   W12
 BYTE   N05  Dn4
 BYTE   W06
 BYTE   N17  As3
 BYTE   W18
 BYTE   N11  Gn3
 BYTE   W12
//  #02 //036   ----------------------------------------
 BYTE   Cn4
 BYTE   W12
 BYTE   Dn4
 BYTE   W12
 BYTE   N23  Ds4
 BYTE   W24
 BYTE   N11  Gn4
 BYTE   W12
 BYTE   N05  Fn4
 BYTE   W06
 BYTE   N17  Dn4
 BYTE   W18
 BYTE   N11  As3
 BYTE   W12
//  #02 //037   ----------------------------------------
 BYTE   N17  Gn3
 BYTE   W18
 BYTE   Gs3
 BYTE   W18
 BYTE   N23  Gn3
 BYTE   W24
 BYTE   N17  Ds3
 BYTE   W18
 BYTE   Gn3
 BYTE   W18
//  #02 //038   ----------------------------------------
 BYTE   Fn3
 BYTE   W18
 BYTE   Ds3
 BYTE   W18
 BYTE   Cn3
 BYTE   W18
 BYTE   As2
 BYTE   W18
 BYTE   N11  Fn3
 BYTE   W12
 BYTE   Gn3
 BYTE   W12
//  #02 //039   ----------------------------------------
 BYTE   N17  Gs3
 BYTE   W18
 BYTE   Gn3
 BYTE   W18
 BYTE   Fn3
 BYTE   W18
 BYTE   Ds3
 BYTE   W18
 BYTE   N11  Gs3
 BYTE   W12
 BYTE   As3
 BYTE   W12
//  #02 //040   ----------------------------------------
 BYTE   N23  Cn4
 BYTE   W24
 BYTE   Cs4
 BYTE   W24
 BYTE   N17  Cn4
 BYTE   W18
 BYTE   Gs3
 BYTE   W18
 BYTE   N11  Fn3
 BYTE   W12
//  #02 //041   ----------------------------------------
 BYTE   N80  Gn3
 BYTE   W84
 BYTE   N05  Fn3
 BYTE   W06
 BYTE   Gn3
 BYTE   W06
//  #02 //042   ----------------------------------------
 BYTE   N11  Gs3
 BYTE   W12
 BYTE   Fn3
 BYTE   W12
 BYTE   Gs3
 BYTE   W12
 BYTE   As3
 BYTE   W12
 BYTE   N32  Cn4
 BYTE   W36
 BYTE   N05  Ds4
 BYTE   W06
 BYTE   Fn4
 BYTE   W06
//  #02 //043   ----------------------------------------
 BYTE   N11  Ds4
 BYTE   W12
 BYTE   As3
 BYTE   W12
 BYTE   Cn4
 BYTE   W12
 BYTE   Cs4
 BYTE   W12
 BYTE   N32  Cn4
 BYTE   W36
 BYTE   N05  As3
 BYTE   W06
 BYTE   Gs3
 BYTE   W06
//  #02 //044   ----------------------------------------
 BYTE   N23  As3
 BYTE   W24
 BYTE   Fn3
 BYTE   W24
 BYTE   Gn3
 BYTE   W24
 BYTE   Gs3
 BYTE   W24
//  #02 //045   ----------------------------------------
 BYTE   N92  Fn3
 BYTE   W96
//  #02 //046   ----------------------------------------
 BYTE   N44  Gs3
 BYTE   W48
 BYTE   Fs3
 BYTE   W48
//  #02 //047   ----------------------------------------
 BYTE   Ds3
 BYTE   W48
 BYTE   Bn3
 BYTE   W48
//  #02 //048   ----------------------------------------
 BYTE   As3
 BYTE   W48
 BYTE   Fs3
 BYTE   W48
//  #02 //049   ----------------------------------------
 BYTE   N92  Ds3
 BYTE   W96
//  #02 //050   ----------------------------------------
 BYTE   N44  Gs3
 BYTE   W48
 BYTE   As3
 BYTE   W48
//  #02 //051   ----------------------------------------
 BYTE   Fs3
 BYTE   W48
 BYTE   Ds3
 BYTE   W48
//  #02 //052   ----------------------------------------
 BYTE   N17  Gs3
 BYTE   W18
 BYTE   As3
 BYTE   W18
 BYTE   N11  Bn3
 BYTE   W12
 BYTE   N17  As3
 BYTE   W18
 BYTE   Fs3
 BYTE   W18
 BYTE   N11  Ds3
 BYTE   W12
//  #02 //053   ----------------------------------------
 BYTE   N92  Gs3
 BYTE   W96
//  #02 //054   ----------------------------------------
 BYTE   Fn3
 BYTE   W96
//  #02 //055   ----------------------------------------
 BYTE   Cs3
 BYTE   W96
//  #02 //056   ----------------------------------------
 BYTE   Ds3
 BYTE   W96
//  #02 //057   ----------------------------------------
 BYTE   As3
 BYTE   W96
//  #02 //058   ----------------------------------------
 BYTE   As2
 BYTE   W96
//  #02 //059   ----------------------------------------
 BYTE   GoTo
  POIN2 Label_0183AD37
 BYTE   FINE

//**************** Track 3 (Midi-Chn.2) ****************//

song03D7_003:
//  #03 //000   ----------------------------------------
 BYTE   KEYSH   song03D7_key+0
 BYTE   VOICE   40
 BYTE   PAN   c_v-10
 BYTE   VOL   35*song03D7_mvl/mxv
 BYTE   BEND   c_v+0
 BYTE   W96
//  #03 //001   ----------------------------------------
 BYTE   W96
//  #03 //002   ----------------------------------------
 BYTE   W96
//  #03 //003   ----------------------------------------
 BYTE   W96
//  #03 //004   ----------------------------------------
Label_0183AA3E:
 BYTE   W96
//  #03 //005   ----------------------------------------
 BYTE   W96
//  #03 //006   ----------------------------------------
 BYTE   W96
//  #03 //007   ----------------------------------------
 BYTE   W96
//  #03 //008   ----------------------------------------
 BYTE   W96
//  #03 //009   ----------------------------------------
 BYTE   W96
//  #03 //010   ----------------------------------------
 BYTE   W96
//  #03 //011   ----------------------------------------
 BYTE   W96
//  #03 //012   ----------------------------------------
 BYTE   W96
//  #03 //013   ----------------------------------------
 BYTE   W96
//  #03 //014   ----------------------------------------
 BYTE   W96
//  #03 //015   ----------------------------------------
 BYTE   W96
//  #03 //016   ----------------------------------------
 BYTE   W96
//  #03 //017   ----------------------------------------
 BYTE   W96
//  #03 //018   ----------------------------------------
 BYTE   W96
//  #03 //019   ----------------------------------------
 BYTE   W96
//  #03 //020   ----------------------------------------
 BYTE   W96
//  #03 //021   ----------------------------------------
 BYTE   W96
//  #03 //022   ----------------------------------------
 BYTE   W96
//  #03 //023   ----------------------------------------
 BYTE   W96
//  #03 //024   ----------------------------------------
 BYTE   W96
//  #03 //025   ----------------------------------------
 BYTE   W96
//  #03 //026   ----------------------------------------
 BYTE   W96
//  #03 //027   ----------------------------------------
 BYTE   W96
//  #03 //028   ----------------------------------------
 BYTE   W96
//  #03 //029   ----------------------------------------
 BYTE   W96
//  #03 //030   ----------------------------------------
 BYTE   W96
//  #03 //031   ----------------------------------------
 BYTE   W96
//  #03 //032   ----------------------------------------
 BYTE   W96
//  #03 //033   ----------------------------------------
 BYTE   W96
//  #03 //034   ----------------------------------------
 BYTE   W96
//  #03 //035   ----------------------------------------
 BYTE   W96
//  #03 //036   ----------------------------------------
 BYTE   W96
//  #03 //037   ----------------------------------------
 BYTE   W96
//  #03 //038   ----------------------------------------
 BYTE   W96
//  #03 //039   ----------------------------------------
 BYTE   W96
//  #03 //040   ----------------------------------------
 BYTE   W96
//  #03 //041   ----------------------------------------
 BYTE   W96
//  #03 //042   ----------------------------------------
 BYTE   W96
//  #03 //043   ----------------------------------------
 BYTE   W96
//  #03 //044   ----------------------------------------
 BYTE   W96
//  #03 //045   ----------------------------------------
 BYTE   W48
 BYTE   N17  Fn4  v100
 BYTE   W18
 BYTE   Gn4
 BYTE   W18
 BYTE   N11  As4
 BYTE   W12
//  #03 //046   ----------------------------------------
 BYTE   N44  Gs4
 BYTE   W48
 BYTE   Fs4
 BYTE   W48
//  #03 //047   ----------------------------------------
 BYTE   Ds4
 BYTE   W48
 BYTE   Bn4
 BYTE   W48
//  #03 //048   ----------------------------------------
 BYTE   As4
 BYTE   W48
 BYTE   Fs4
 BYTE   W48
//  #03 //049   ----------------------------------------
 BYTE   N92  Ds4
 BYTE   W96
//  #03 //050   ----------------------------------------
 BYTE   N44  Gs4
 BYTE   W48
 BYTE   As4
 BYTE   W48
//  #03 //051   ----------------------------------------
 BYTE   Fs4
 BYTE   W48
 BYTE   Ds4
 BYTE   W48
//  #03 //052   ----------------------------------------
 BYTE   N17  Gs4
 BYTE   W18
 BYTE   As4
 BYTE   W18
 BYTE   N11  Bn4
 BYTE   W12
 BYTE   N17  As4
 BYTE   W18
 BYTE   Fs4
 BYTE   W18
 BYTE   N11  Ds4
 BYTE   W12
//  #03 //053   ----------------------------------------
 BYTE   N92  Gs4
 BYTE   W96
//  #03 //054   ----------------------------------------
 BYTE   Fn3
 BYTE   W96
//  #03 //055   ----------------------------------------
 BYTE   Cs3
 BYTE   W96
//  #03 //056   ----------------------------------------
 BYTE   Ds3
 BYTE   W96
//  #03 //057   ----------------------------------------
 BYTE   As3
 BYTE   W96
//  #03 //058   ----------------------------------------
 BYTE   As2
 BYTE   W96
//  #03 //059   ----------------------------------------
 BYTE   GoTo
  POIN2 Label_0183AA3E
 BYTE   FINE

//**************** Track 4 (Midi-Chn.3) ****************//

song03D7_004:
//  #04 //000   ----------------------------------------
 BYTE   KEYSH   song03D7_key+0
 BYTE   VOICE   61
 BYTE   PAN   c_v+12
 BYTE   VOL   28*song03D7_mvl/mxv
 BYTE   BEND   c_v+0
 BYTE   N17  Fn4  v100
 BYTE   W18
 BYTE   Ds4
 BYTE   W18
 BYTE   N56  Fn4
 BYTE   W60
//  #04 //001   ----------------------------------------
Label_0183B0D3:
 BYTE   N17  Cs4  v100
 BYTE   W18
 BYTE   Gs4
 BYTE   W18
 BYTE   N56  Fn4
 BYTE   W60
 BYTE   PEND 
//  #04 //002   ----------------------------------------
Label_0183B0DD:
 BYTE   N17  Ds4  v100
 BYTE   W18
 BYTE   Cs4
 BYTE   W18
 BYTE   N23  Cn4
 BYTE   W24
 BYTE   N17  Cs4
 BYTE   W18
 BYTE   Cn4
 BYTE   W18
 BYTE   PEND 
//  #04 //003   ----------------------------------------
Label_0183B0EC:
 BYTE   N44  As3  v100
 BYTE   W48
 BYTE   As4
 BYTE   W48
 BYTE   PEND 
//  #04 //004   ----------------------------------------
Label_0183B0F3:
 BYTE   N23  As4  v100
 BYTE   W24
 BYTE   Gs4
 BYTE   W24
 BYTE   Fn4
 BYTE   W24
 BYTE   Cs4
 BYTE   W24
//  #04 //005   ----------------------------------------
 BYTE   Ds4
 BYTE   W24
 BYTE   Gs4
 BYTE   W24
 BYTE   Fn4
 BYTE   W24
 BYTE   Cs4
 BYTE   W24
//  #04 //006   ----------------------------------------
 BYTE   N17  Cn4
 BYTE   W18
 BYTE   Gs3
 BYTE   W18
 BYTE   Ds3
 BYTE   W18
 BYTE   Gs3
 BYTE   W18
 BYTE   N11  Cn4
 BYTE   W12
 BYTE   Ds4
 BYTE   W12
//  #04 //007   ----------------------------------------
 BYTE   N17  Fn4
 BYTE   W18
 BYTE   Ds4
 BYTE   W18
 BYTE   Cs4
 BYTE   W18
 BYTE   Fn4
 BYTE   W18
 BYTE   N11  Gs4
 BYTE   W12
 BYTE   As4
 BYTE   W12
//  #04 //008   ----------------------------------------
 BYTE   N11
 BYTE   W12
 BYTE   Cn5
 BYTE   W12
 BYTE   N23  Cs5
 BYTE   W24
 BYTE   N11
 BYTE   W12
 BYTE   N05  Ds5
 BYTE   W06
 BYTE   N17  Fn5
 BYTE   W18
 BYTE   N11  Cs5
 BYTE   W12
//  #04 //009   ----------------------------------------
 BYTE   Ds5
 BYTE   W12
 BYTE   Cs5
 BYTE   W12
 BYTE   N23  Cn5
 BYTE   W24
 BYTE   N11  Ds5
 BYTE   W12
 BYTE   N05  Cs5
 BYTE   W06
 BYTE   N17  Cn5
 BYTE   W18
 BYTE   N11  Cs5
 BYTE   W12
//  #04 //010   ----------------------------------------
 BYTE   As4
 BYTE   W12
 BYTE   N11
 BYTE   W12
 BYTE   N17
 BYTE   W18
 BYTE   N17
 BYTE   W18
 BYTE   N11
 BYTE   W12
 BYTE   N05
 BYTE   W06
 BYTE   Cn5
 BYTE   W06
 BYTE   Cs5
 BYTE   W06
 BYTE   Ds5
 BYTE   W06
//  #04 //011   ----------------------------------------
 BYTE   N17  Fn5
 BYTE   W18
 BYTE   Fs5
 BYTE   W18
 BYTE   N11  Fn5
 BYTE   W12
 BYTE   Ds5
 BYTE   W12
 BYTE   Cs5
 BYTE   W12
 BYTE   Cn5
 BYTE   W12
 BYTE   Gs4
 BYTE   W12
//  #04 //012   ----------------------------------------
 BYTE   As4
 BYTE   W12
 BYTE   N05  Gs4
 BYTE   W06
 BYTE   N11  As4
 BYTE   W12
 BYTE   N05  As3
 BYTE   W06
 BYTE   N11  Ds4
 BYTE   W12
 BYTE   N05  Fn4
 BYTE   W06
 BYTE   N11  As4
 BYTE   W12
 BYTE   N05  As3
 BYTE   W06
 BYTE   N11  Cs4
 BYTE   W12
 BYTE   Ds4
 BYTE   W12
//  #04 //013   ----------------------------------------
 BYTE   N17  Fn4
 BYTE   W18
 BYTE   Fs4
 BYTE   W18
 BYTE   Fn4
 BYTE   W18
 BYTE   Ds4
 BYTE   W18
 BYTE   N11  Fn4
 BYTE   W12
 BYTE   Cs4
 BYTE   W12
//  #04 //014   ----------------------------------------
 BYTE   Cn4
 BYTE   W12
 BYTE   N05  Cs4
 BYTE   W06
 BYTE   N11  Ds4
 BYTE   W12
 BYTE   N05  Cn4
 BYTE   W06
 BYTE   N11  Cs4
 BYTE   W12
 BYTE   N05  Ds4
 BYTE   W06
 BYTE   N11  Fn4
 BYTE   W12
 BYTE   N05  Fs4
 BYTE   W06
 BYTE   N11  Gs4
 BYTE   W12
 BYTE   As4
 BYTE   W12
//  #04 //015   ----------------------------------------
 BYTE   N17  Gs4
 BYTE   W18
 BYTE   Fn4
 BYTE   W18
 BYTE   Ds4
 BYTE   W18
 BYTE   Cs4
 BYTE   W18
 BYTE   N11  Ds4
 BYTE   W12
 BYTE   Fn4
 BYTE   W12
//  #04 //016   ----------------------------------------
 BYTE   As3
 BYTE   W12
 BYTE   Cn4
 BYTE   W12
 BYTE   N23  Cs4
 BYTE   W24
 BYTE   N11
 BYTE   W12
 BYTE   N05  Ds4
 BYTE   W06
 BYTE   N17  Fn4
 BYTE   W18
 BYTE   N11  Cs4
 BYTE   W12
//  #04 //017   ----------------------------------------
 BYTE   Ds4
 BYTE   W12
 BYTE   Cs4
 BYTE   W12
 BYTE   N23  Cn4
 BYTE   W24
 BYTE   N11  Ds4
 BYTE   W12
 BYTE   N05  Cs4
 BYTE   W06
 BYTE   N17  Cn4
 BYTE   W18
 BYTE   N11  Cs4
 BYTE   W12
//  #04 //018   ----------------------------------------
 BYTE   N05  As4
 BYTE   W06
 BYTE   Fn4
 BYTE   W06
 BYTE   Cs4
 BYTE   W06
 BYTE   As3
 BYTE   W06
 BYTE   Cs4
 BYTE   W06
 BYTE   Fn4
 BYTE   W06
 BYTE   As4
 BYTE   W06
 BYTE   Fn4
 BYTE   W06
 BYTE   Cs4
 BYTE   W06
 BYTE   As3
 BYTE   W06
 BYTE   Cs4
 BYTE   W06
 BYTE   Fn4
 BYTE   W06
 BYTE   As4
 BYTE   W06
 BYTE   Fn4
 BYTE   W06
 BYTE   As4
 BYTE   W06
 BYTE   Fn4
 BYTE   W06
//  #04 //019   ----------------------------------------
 BYTE   Gs4
 BYTE   W06
 BYTE   Ds4
 BYTE   W06
 BYTE   Cn4
 BYTE   W06
 BYTE   Gs3
 BYTE   W06
 BYTE   Cn4
 BYTE   W06
 BYTE   Ds4
 BYTE   W06
 BYTE   Gs4
 BYTE   W06
 BYTE   Ds4
 BYTE   W06
 BYTE   Cn4
 BYTE   W06
 BYTE   Gs3
 BYTE   W06
 BYTE   Cn4
 BYTE   W06
 BYTE   Ds4
 BYTE   W06
 BYTE   Fn4
 BYTE   W06
 BYTE   Ds4
 BYTE   W06
 BYTE   Cs4
 BYTE   W06
 BYTE   Cn4
 BYTE   W06
//  #04 //020   ----------------------------------------
 BYTE   N17  As3
 BYTE   W18
 BYTE   Gs3
 BYTE   W18
 BYTE   Fn3
 BYTE   W18
 BYTE   Ds3
 BYTE   W18
 BYTE   N11  Gs3
 BYTE   W12
 BYTE   Cn4
 BYTE   W12
//  #04 //021   ----------------------------------------
 BYTE   N17  Cs4
 BYTE   W18
 BYTE   Cn4
 BYTE   W18
 BYTE   As3
 BYTE   W18
 BYTE   An3
 BYTE   W18
 BYTE   N11  Fn4
 BYTE   W12
 BYTE   Ds4
 BYTE   W12
//  #04 //022   ----------------------------------------
 BYTE   Fs4
 BYTE   W12
 BYTE   Cs4
 BYTE   W12
 BYTE   As3
 BYTE   W12
 BYTE   Fs4
 BYTE   W12
 BYTE   Cs4
 BYTE   W12
 BYTE   As3
 BYTE   W12
 BYTE   Fs4
 BYTE   W12
 BYTE   Cs4
 BYTE   W12
//  #04 //023   ----------------------------------------
 BYTE   Fn4
 BYTE   W12
 BYTE   Cs4
 BYTE   W12
 BYTE   Gs3
 BYTE   W12
 BYTE   Fn4
 BYTE   W12
 BYTE   Cs4
 BYTE   W12
 BYTE   Gs3
 BYTE   W12
 BYTE   Fn4
 BYTE   W12
 BYTE   Cs4
 BYTE   W12
//  #04 //024   ----------------------------------------
 BYTE   Ds4
 BYTE   W12
 BYTE   Cn4
 BYTE   W12
 BYTE   Gs3
 BYTE   W12
 BYTE   Ds4
 BYTE   W12
 BYTE   Cn4
 BYTE   W12
 BYTE   Gs3
 BYTE   W12
 BYTE   Cn4
 BYTE   W12
 BYTE   Ds4
 BYTE   W12
//  #04 //025   ----------------------------------------
 BYTE   N17  Cs4
 BYTE   W18
 BYTE   Cn4
 BYTE   W18
 BYTE   N56  As3
 BYTE   W60
//  #04 //026   ----------------------------------------
 BYTE   N17  Fn4
 BYTE   W18
 BYTE   Ds4
 BYTE   W18
 BYTE   N56  Fn4
 BYTE   W60
//  #04 //027   ----------------------------------------
 BYTE   PATT
  POIN2 Label_0183B0D3
//  #04 //028   ----------------------------------------
 BYTE   PATT
  POIN2 Label_0183B0DD
//  #04 //029   ----------------------------------------
 BYTE   PATT
  POIN2 Label_0183B0EC
//  #04 //030   ----------------------------------------
 BYTE   N23  Fn4  v100
 BYTE   W24
 BYTE   Ds4
 BYTE   W24
 BYTE   Cn4
 BYTE   W24
 BYTE   Gs3
 BYTE   W24
//  #04 //031   ----------------------------------------
 BYTE   As3
 BYTE   W24
 BYTE   Ds4
 BYTE   W24
 BYTE   Cn4
 BYTE   W24
 BYTE   Gs3
 BYTE   W24
//  #04 //032   ----------------------------------------
 BYTE   As3
 BYTE   W24
 BYTE   Ds4
 BYTE   W24
 BYTE   Fn4
 BYTE   W24
 BYTE   Gn4
 BYTE   W24
//  #04 //033   ----------------------------------------
 BYTE   Gs4
 BYTE   W24
 BYTE   Gn4
 BYTE   W24
 BYTE   N32  Fn4
 BYTE   W36
 BYTE   N05  Ds4
 BYTE   W06
 BYTE   Fn4
 BYTE   W06
//  #04 //034   ----------------------------------------
 BYTE   N11  Gn4
 BYTE   W12
 BYTE   Gs4
 BYTE   W12
 BYTE   N23  As4
 BYTE   W24
 BYTE   N11  Cn5
 BYTE   W12
 BYTE   N05  As4
 BYTE   W06
 BYTE   N17  Gn4
 BYTE   W18
 BYTE   N11  Fn4
 BYTE   W12
//  #04 //035   ----------------------------------------
 BYTE   Gn4
 BYTE   W12
 BYTE   As4
 BYTE   W12
 BYTE   N23  Cn5
 BYTE   W24
 BYTE   N11  Ds5
 BYTE   W12
 BYTE   N05  Dn5
 BYTE   W06
 BYTE   N17  As4
 BYTE   W18
 BYTE   N11  Gn4
 BYTE   W12
//  #04 //036   ----------------------------------------
 BYTE   Cn5
 BYTE   W12
 BYTE   Dn5
 BYTE   W12
 BYTE   N23  Ds5
 BYTE   W24
 BYTE   N11  Dn5
 BYTE   W12
 BYTE   N05  As4
 BYTE   W06
 BYTE   N17  Gn4
 BYTE   W18
 BYTE   N11  Fn4
 BYTE   W12
//  #04 //037   ----------------------------------------
 BYTE   N17  Cn4
 BYTE   W18
 BYTE   Dn4
 BYTE   W18
 BYTE   N23  Gn4
 BYTE   W24
 BYTE   N17  Ds4
 BYTE   W18
 BYTE   Gn4
 BYTE   W18
//  #04 //038   ----------------------------------------
 BYTE   Fn4
 BYTE   W18
 BYTE   Ds4
 BYTE   W18
 BYTE   Cn4
 BYTE   W18
 BYTE   As3
 BYTE   W18
 BYTE   N11  Fn4
 BYTE   W12
 BYTE   Gn4
 BYTE   W12
//  #04 //039   ----------------------------------------
 BYTE   N17  Gs4
 BYTE   W18
 BYTE   Gn4
 BYTE   W18
 BYTE   Fn4
 BYTE   W18
 BYTE   Ds4
 BYTE   W18
 BYTE   N11  Gs4
 BYTE   W12
 BYTE   As4
 BYTE   W12
//  #04 //040   ----------------------------------------
 BYTE   N23  Cn5
 BYTE   W24
 BYTE   Cs5
 BYTE   W24
 BYTE   N17  Cn5
 BYTE   W18
 BYTE   Gs4
 BYTE   W18
 BYTE   N11  Fn4
 BYTE   W12
//  #04 //041   ----------------------------------------
 BYTE   N80  Gn4
 BYTE   W84
 BYTE   N05  Fn4
 BYTE   W06
 BYTE   Gn4
 BYTE   W06
//  #04 //042   ----------------------------------------
 BYTE   N11  Gs4
 BYTE   W12
 BYTE   Fn4
 BYTE   W12
 BYTE   Gs4
 BYTE   W12
 BYTE   As4
 BYTE   W12
 BYTE   N32  Cn5
 BYTE   W36
 BYTE   N05  Ds5
 BYTE   W06
 BYTE   Fn5
 BYTE   W06
//  #04 //043   ----------------------------------------
 BYTE   N11  Ds5
 BYTE   W12
 BYTE   As4
 BYTE   W12
 BYTE   Cn5
 BYTE   W12
 BYTE   Cs5
 BYTE   W12
 BYTE   N32  Cn5
 BYTE   W36
 BYTE   N05  As4
 BYTE   W06
 BYTE   Gs4
 BYTE   W06
//  #04 //044   ----------------------------------------
 BYTE   N23  As4
 BYTE   W24
 BYTE   Fn4
 BYTE   W24
 BYTE   Gn4
 BYTE   W24
 BYTE   Gs4
 BYTE   W24
//  #04 //045   ----------------------------------------
 BYTE   N05  Fn4
 BYTE   W06
 BYTE   Cn4
 BYTE   W06
 BYTE   Gs3
 BYTE   W06
 BYTE   Fn4
 BYTE   W06
 BYTE   Cn4
 BYTE   W06
 BYTE   Gs3
 BYTE   W06
 BYTE   Fn4
 BYTE   W06
 BYTE   Cn4
 BYTE   W06
 BYTE   Gs3
 BYTE   W06
 BYTE   Fn4
 BYTE   W06
 BYTE   Cn4
 BYTE   W06
 BYTE   Gs3
 BYTE   W06
 BYTE   Fn4
 BYTE   W06
 BYTE   Cn4
 BYTE   W06
 BYTE   N11  Fn4
 BYTE   W12
//  #04 //046   ----------------------------------------
 BYTE   N23  Gs4
 BYTE   W24
 BYTE   Fs4
 BYTE   W24
 BYTE   Ds4
 BYTE   W24
 BYTE   Bn3
 BYTE   W24
//  #04 //047   ----------------------------------------
 BYTE   Cs4
 BYTE   W24
 BYTE   Fs4
 BYTE   W24
 BYTE   N32  Ds4
 BYTE   W36
 BYTE   N05  Cs4
 BYTE   W06
 BYTE   Ds4
 BYTE   W06
//  #04 //048   ----------------------------------------
 BYTE   N32  Fs4
 BYTE   W36
 BYTE   N05  Ds4
 BYTE   W06
 BYTE   Fs4
 BYTE   W06
 BYTE   N23  Gs4
 BYTE   W24
 BYTE   N11  Fs4
 BYTE   W12
 BYTE   Gs4
 BYTE   W12
//  #04 //049   ----------------------------------------
 BYTE   N23  Bn4
 BYTE   W24
 BYTE   Cs5
 BYTE   W24
 BYTE   N05  As4
 BYTE   W06
 BYTE   Bn4
 BYTE   W06
 BYTE   As4
 BYTE   W06
 BYTE   Fs4
 BYTE   W06
 BYTE   N11  Ds4
 BYTE   W12
 BYTE   Fs4
 BYTE   W12
//  #04 //050   ----------------------------------------
 BYTE   N32  Bn4
 BYTE   W36
 BYTE   N05  Cs5
 BYTE   W06
 BYTE   Ds5
 BYTE   W06
 BYTE   N44  As4
 BYTE   W48
//  #04 //051   ----------------------------------------
 BYTE   N23  Gs4
 BYTE   W24
 BYTE   N05  Fs4
 BYTE   W06
 BYTE   Gs4
 BYTE   W06
 BYTE   As4
 BYTE   W06
 BYTE   Gs4
 BYTE   W06
 BYTE   N32  Ds4
 BYTE   W36
 BYTE   N05  Cs4
 BYTE   W06
 BYTE   Fs4
 BYTE   W06
//  #04 //052   ----------------------------------------
 BYTE   Gs4
 BYTE   W06
 BYTE   Ds4
 BYTE   W06
 BYTE   Bn3
 BYTE   W06
 BYTE   Gs3
 BYTE   W06
 BYTE   Ds4
 BYTE   W06
 BYTE   Bn3
 BYTE   W06
 BYTE   Bn4
 BYTE   W06
 BYTE   Gs4
 BYTE   W06
 BYTE   Ds5
 BYTE   W06
 BYTE   Bn4
 BYTE   W06
 BYTE   Gs4
 BYTE   W06
 BYTE   Ds4
 BYTE   W06
 BYTE   Bn4
 BYTE   W06
 BYTE   Gs4
 BYTE   W06
 BYTE   Fs5
 BYTE   W06
 BYTE   Ds5
 BYTE   W06
//  #04 //053   ----------------------------------------
 BYTE   N92  Gs5
 BYTE   W96
//  #04 //054   ----------------------------------------
 BYTE   Fn4
 BYTE   W96
//  #04 //055   ----------------------------------------
 BYTE   Cs4
 BYTE   W96
//  #04 //056   ----------------------------------------
 BYTE   Ds4
 BYTE   W96
//  #04 //057   ----------------------------------------
 BYTE   As4
 BYTE   W96
//  #04 //058   ----------------------------------------
 BYTE   As3
 BYTE   W96
//  #04 //059   ----------------------------------------
 BYTE   GoTo
  POIN2 Label_0183B0F3
 BYTE   FINE

//**************** Track 5 (Midi-Chn.4) ****************//

song03D7_005:
//  #05 //000   ----------------------------------------
 BYTE   KEYSH   song03D7_key+0
 BYTE   VOICE   2
 BYTE   VOL   24*song03D7_mvl/mxv
 BYTE   PAN   c_v+3
 BYTE   BEND   c_v+0
 BYTE   W96
//  #05 //001   ----------------------------------------
 BYTE   W96
//  #05 //002   ----------------------------------------
 BYTE   W96
//  #05 //003   ----------------------------------------
 BYTE   W96
//  #05 //004   ----------------------------------------
Label_018C1C86:
 BYTE   N17  As1  v100
 BYTE   N17  As2
 BYTE   W18
 BYTE   As1
 BYTE   N17  As2
 BYTE   W18
 BYTE   N11  As1
 BYTE   N11  As2
 BYTE   W12
 BYTE   N17  As1
 BYTE   N17  As2
 BYTE   W18
 BYTE   As1
 BYTE   N17  As2
 BYTE   W18
 BYTE   N11  As1
 BYTE   N11  As2
 BYTE   W12
 BYTE   PEND 
//  #05 //005   ----------------------------------------
 BYTE   PATT
  POIN2 Label_018C1C86
//  #05 //006   ----------------------------------------
Label_018C1CA9:
 BYTE   N17  Gs1  v100
 BYTE   N17  Gs2
 BYTE   W18
 BYTE   Gs1
 BYTE   N17  Gs2
 BYTE   W18
 BYTE   N11  Gs1
 BYTE   N11  Gs2
 BYTE   W12
 BYTE   N17  Gs1
 BYTE   N17  Gs2
 BYTE   W18
 BYTE   Gs1
 BYTE   N17  Gs2
 BYTE   W18
 BYTE   N11  Gs1
 BYTE   N11  Gs2
 BYTE   W12
 BYTE   PEND 
//  #05 //007   ----------------------------------------
 BYTE   PATT
  POIN2 Label_018C1CA9
//  #05 //008   ----------------------------------------
 BYTE   PATT
  POIN2 Label_018C1C86
//  #05 //009   ----------------------------------------
 BYTE   PATT
  POIN2 Label_018C1CA9
//  #05 //010   ----------------------------------------
Label_018C1CD6:
 BYTE   N17  Fs1  v100
 BYTE   N17  Fs2
 BYTE   W18
 BYTE   Fs1
 BYTE   N17  Fs2
 BYTE   W18
 BYTE   N11  Fs1
 BYTE   N11  Fs2
 BYTE   W12
 BYTE   N17  Fs1
 BYTE   N17  Fs2
 BYTE   W18
 BYTE   Fs1
 BYTE   N17  Fs2
 BYTE   W18
 BYTE   N11  Fs1
 BYTE   N11  Fs2
 BYTE   W12
 BYTE   PEND 
//  #05 //011   ----------------------------------------
 BYTE   PATT
  POIN2 Label_018C1CA9
//  #05 //012   ----------------------------------------
 BYTE   PATT
  POIN2 Label_018C1C86
//  #05 //013   ----------------------------------------
 BYTE   PATT
  POIN2 Label_018C1C86
//  #05 //014   ----------------------------------------
 BYTE   PATT
  POIN2 Label_018C1CA9
//  #05 //015   ----------------------------------------
 BYTE   PATT
  POIN2 Label_018C1CA9
//  #05 //016   ----------------------------------------
 BYTE   PATT
  POIN2 Label_018C1C86
//  #05 //017   ----------------------------------------
 BYTE   PATT
  POIN2 Label_018C1CA9
//  #05 //018   ----------------------------------------
 BYTE   N32  As1  v100
 BYTE   N32  As2
 BYTE   W36
 BYTE   As1
 BYTE   N32  As2
 BYTE   W36
 BYTE   N05  As1
 BYTE   N05  As2
 BYTE   W06
 BYTE   As1
 BYTE   N05  As2
 BYTE   W06
 BYTE   As1
 BYTE   N05  As2
 BYTE   W06
 BYTE   As1
 BYTE   N05  As2
 BYTE   W06
//  #05 //019   ----------------------------------------
 BYTE   N32  Gs1
 BYTE   N32  Gs2
 BYTE   W36
 BYTE   Gs1
 BYTE   N32  Gs2
 BYTE   W36
 BYTE   N05  Gs1
 BYTE   N05  Gs2
 BYTE   W06
 BYTE   Gs1
 BYTE   N05  Gs2
 BYTE   W06
 BYTE   Gs1
 BYTE   N05  Gs2
 BYTE   W06
 BYTE   Gs1
 BYTE   N05  Gs2
 BYTE   W06
//  #05 //020   ----------------------------------------
 BYTE   N17  As1
 BYTE   N17  As2
 BYTE   W36
 BYTE   As1
 BYTE   N17  As2
 BYTE   W36
 BYTE   As1
 BYTE   N17  As2
 BYTE   W24
//  #05 //021   ----------------------------------------
 BYTE   Cs2
 BYTE   N17  Cs3
 BYTE   W36
 BYTE   Cn2
 BYTE   N17  Cn3
 BYTE   W36
 BYTE   An1
 BYTE   N17  An2
 BYTE   W24
//  #05 //022   ----------------------------------------
 BYTE   PATT
  POIN2 Label_018C1C86
//  #05 //023   ----------------------------------------
 BYTE   PATT
  POIN2 Label_018C1CA9
//  #05 //024   ----------------------------------------
 BYTE   PATT
  POIN2 Label_018C1CA9
//  #05 //025   ----------------------------------------
 BYTE   PATT
  POIN2 Label_018C1C86
//  #05 //026   ----------------------------------------
 BYTE   PATT
  POIN2 Label_018C1C86
//  #05 //027   ----------------------------------------
 BYTE   PATT
  POIN2 Label_018C1CD6
//  #05 //028   ----------------------------------------
 BYTE   PATT
  POIN2 Label_018C1CA9
//  #05 //029   ----------------------------------------
 BYTE   PATT
  POIN2 Label_018C1C86
//  #05 //030   ----------------------------------------
 BYTE   PATT
  POIN2 Label_018C1C86
//  #05 //031   ----------------------------------------
 BYTE   PATT
  POIN2 Label_018C1C86
//  #05 //032   ----------------------------------------
Label_018C1D97:
 BYTE   N17  Cn2  v100
 BYTE   N17  Cn3
 BYTE   W18
 BYTE   Cn2
 BYTE   N17  Cn3
 BYTE   W18
 BYTE   N11  Cn2
 BYTE   N11  Cn3
 BYTE   W12
 BYTE   N17  Cn2
 BYTE   N17  Cn3
 BYTE   W18
 BYTE   Cn2
 BYTE   N17  Cn3
 BYTE   W18
 BYTE   N11  Cn2
 BYTE   N11  Cn3
 BYTE   W12
 BYTE   PEND 
//  #05 //033   ----------------------------------------
 BYTE   PATT
  POIN2 Label_018C1CA9
//  #05 //034   ----------------------------------------
 BYTE   PATT
  POIN2 Label_018C1C86
//  #05 //035   ----------------------------------------
Label_018C1DBF:
 BYTE   N17  Gn1  v100
 BYTE   N17  Gn2
 BYTE   W18
 BYTE   Gn1
 BYTE   N17  Gn2
 BYTE   W18
 BYTE   N11  Gn1
 BYTE   N11  Gn2
 BYTE   W12
 BYTE   N17  Gn1
 BYTE   N17  Gn2
 BYTE   W18
 BYTE   Gn1
 BYTE   N17  Gn2
 BYTE   W18
 BYTE   N11  Gn1
 BYTE   N11  Gn2
 BYTE   W12
 BYTE   PEND 
//  #05 //036   ----------------------------------------
 BYTE   PATT
  POIN2 Label_018C1CA9
//  #05 //037   ----------------------------------------
 BYTE   PATT
  POIN2 Label_018C1D97
//  #05 //038   ----------------------------------------
 BYTE   PATT
  POIN2 Label_018C1C86
//  #05 //039   ----------------------------------------
 BYTE   PATT
  POIN2 Label_018C1D97
//  #05 //040   ----------------------------------------
 BYTE   N17  Cs2  v100
 BYTE   N17  Cs3
 BYTE   W18
 BYTE   Cs2
 BYTE   N17  Cs3
 BYTE   W18
 BYTE   N11  Cs2
 BYTE   N11  Cs3
 BYTE   W12
 BYTE   N17  Cs2
 BYTE   N17  Cs3
 BYTE   W18
 BYTE   Cs2
 BYTE   N17  Cs3
 BYTE   W18
 BYTE   N11  Cs2
 BYTE   N11  Cs3
 BYTE   W12
//  #05 //041   ----------------------------------------
 BYTE   PATT
  POIN2 Label_018C1D97
//  #05 //042   ----------------------------------------
 BYTE   PATT
  POIN2 Label_018C1C86
//  #05 //043   ----------------------------------------
 BYTE   PATT
  POIN2 Label_018C1CA9
//  #05 //044   ----------------------------------------
 BYTE   PATT
  POIN2 Label_018C1DBF
//  #05 //045   ----------------------------------------
 BYTE   N17  Fn1  v100
 BYTE   N17  Fn2
 BYTE   W18
 BYTE   Fn1
 BYTE   N17  Fn2
 BYTE   W18
 BYTE   N11  Fn1
 BYTE   N11  Fn2
 BYTE   W12
 BYTE   N17  Fn1
 BYTE   N17  Fn2
 BYTE   W18
 BYTE   Fn1
 BYTE   N17  Fn2
 BYTE   W18
 BYTE   N11  Fn1
 BYTE   N11  Fn2
 BYTE   W12
//  #05 //046   ----------------------------------------
 BYTE   PATT
  POIN2 Label_018C1CA9
//  #05 //047   ----------------------------------------
 BYTE   PATT
  POIN2 Label_018C1CA9
//  #05 //048   ----------------------------------------
 BYTE   PATT
  POIN2 Label_018C1CD6
//  #05 //049   ----------------------------------------
Label_018C1E4E:
 BYTE   N17  Ds1  v100
 BYTE   N17  Ds2
 BYTE   W18
 BYTE   Ds1
 BYTE   N17  Ds2
 BYTE   W18
 BYTE   N11  Ds1
 BYTE   N11  Ds2
 BYTE   W12
 BYTE   N17  Ds1
 BYTE   N17  Ds2
 BYTE   W18
 BYTE   Ds1
 BYTE   N17  Ds2
 BYTE   W18
 BYTE   N11  Ds1
 BYTE   N11  Ds2
 BYTE   W12
 BYTE   PEND 
//  #05 //050   ----------------------------------------
 BYTE   PATT
  POIN2 Label_018C1CA9
//  #05 //051   ----------------------------------------
 BYTE   PATT
  POIN2 Label_018C1CD6
//  #05 //052   ----------------------------------------
 BYTE   PATT
  POIN2 Label_018C1E4E
//  #05 //053   ----------------------------------------
 BYTE   N17  Gs1  v100
 BYTE   N17  Gs2
 BYTE   W18
 BYTE   Gs1
 BYTE   N17  Gs2
 BYTE   W18
 BYTE   N11  Gs1
 BYTE   N11  Gs2
 BYTE   W12
 BYTE   N44  Gs1
 BYTE   N44  Gs2
 BYTE   W48
//  #05 //054   ----------------------------------------
 BYTE   PATT
  POIN2 Label_018C1C86
//  #05 //055   ----------------------------------------
 BYTE   PATT
  POIN2 Label_018C1CD6
//  #05 //056   ----------------------------------------
 BYTE   PATT
  POIN2 Label_018C1CA9
//  #05 //057   ----------------------------------------
 BYTE   PATT
  POIN2 Label_018C1C86
//  #05 //058   ----------------------------------------
 BYTE   W96
//  #05 //059   ----------------------------------------
 BYTE   GoTo
  POIN2 Label_018C1C86
 BYTE   FINE

//**************** Track 6 (Midi-Chn.5) ****************//

song03D7_006:
//  #06 //000   ----------------------------------------
 BYTE   KEYSH   song03D7_key+0
 BYTE   VOICE   127
 BYTE   VOL   33*song03D7_mvl/mxv
 BYTE   PAN   c_v+0
 BYTE   BEND   c_v+0
 BYTE   N17  Cn1  v100
 BYTE   W18
 BYTE   N17
 BYTE   N17  Ds1
 BYTE   W18
 BYTE   N56  Cn1
 BYTE   N05  Dn1
 BYTE   W36
 BYTE   N23  Ds1
 BYTE   W24
//  #06 //001   ----------------------------------------
Label_018C1EC6:
 BYTE   N17  Cn1  v100
 BYTE   N05  Dn1
 BYTE   W18
 BYTE   N17  Cn1
 BYTE   N05  Dn1
 BYTE   W06
 BYTE   N05
 BYTE   W06
 BYTE   N05
 BYTE   W06
 BYTE   N56  Cn1
 BYTE   N05  Dn1
 BYTE   W36
 BYTE   Ds1
 BYTE   W06
 BYTE   Dn1
 BYTE   W18
 BYTE   PEND 
//  #06 //002   ----------------------------------------
Label_018C1EDF:
 BYTE   N17  Cn1  v100
 BYTE   N05  Dn1
 BYTE   W06
 BYTE   N05
 BYTE   W12
 BYTE   N17  Cn1
 BYTE   N05  Dn1
 BYTE   W06
 BYTE   N05
 BYTE   W12
 BYTE   N23  Cn1
 BYTE   N05  Dn1
 BYTE   W24
 BYTE   N17  Cn1
 BYTE   N17  Ds1
 BYTE   W18
 BYTE   Cn1
 BYTE   N05  Dn1
 BYTE   W18
 BYTE   PEND 
//  #06 //003   ----------------------------------------
 BYTE   N44  Cn1
 BYTE   N05  Ds1
 BYTE   W06
 BYTE   Dn1
 BYTE   W06
 BYTE   N05
 BYTE   W06
 BYTE   Ds1
 BYTE   W06
 BYTE   Dn1
 BYTE   W06
 BYTE   N05
 BYTE   W06
 BYTE   Ds1
 BYTE   W06
 BYTE   Dn1
 BYTE   W06
 BYTE   N44  Cn1
 BYTE   N05  Dn1
 BYTE   W06
 BYTE   N05
 BYTE   W06
 BYTE   N05
 BYTE   W06
 BYTE   N05
 BYTE   W06
 BYTE   N23  Ds1
 BYTE   W18
 BYTE   TIE  Fn2
 BYTE   W06
//  #06 //004   ----------------------------------------
Label_018C1F21:
 BYTE   N23  Cn1  v100
 BYTE   W12
 BYTE   N05  Dn1
 BYTE   W12
 BYTE   N23  Cn1
 BYTE   W12
 BYTE   N05  Dn1
 BYTE   W12
 BYTE   N23  Cn1
 BYTE   W12
 BYTE   N05  Dn1
 BYTE   W12
 BYTE   N23  Cn1
 BYTE   W12
 BYTE   N05  Dn1
 BYTE   W11
 BYTE   PEND 
 BYTE   EOT
 BYTE   Fn2
 BYTE   W01
//  #06 //005   ----------------------------------------
Label_018C1F3E:
 BYTE   N23  Cn1  v100
 BYTE   W12
 BYTE   N05  Dn1
 BYTE   W12
 BYTE   N23  Cn1
 BYTE   W12
 BYTE   N05  Dn1
 BYTE   W12
 BYTE   N23  Cn1
 BYTE   N05  Dn1
 BYTE   W06
 BYTE   N05
 BYTE   W06
 BYTE   N05
 BYTE   W06
 BYTE   N05
 BYTE   W06
 BYTE   N23  Cn1
 BYTE   N05  Dn1
 BYTE   W06
 BYTE   Ds1
 BYTE   W06
 BYTE   Dn1
 BYTE   W12
 BYTE   PEND 
//  #06 //006   ----------------------------------------
Label_018C1F60:
 BYTE   N23  Cn1  v100
 BYTE   W12
 BYTE   N05  Dn1
 BYTE   W12
 BYTE   N23  Cn1
 BYTE   W12
 BYTE   N05  Dn1
 BYTE   W12
 BYTE   N23  Cn1
 BYTE   W12
 BYTE   N05  Dn1
 BYTE   W12
 BYTE   N23  Cn1
 BYTE   W12
 BYTE   N05  Dn1
 BYTE   W12
 BYTE   PEND 
//  #06 //007   ----------------------------------------
Label_018C1F7A:
 BYTE   N23  Cn1  v100
 BYTE   W12
 BYTE   N05  Dn1
 BYTE   W12
 BYTE   N11  Cn1
 BYTE   W12
 BYTE   N11
 BYTE   N05  Dn1
 BYTE   W12
 BYTE   N23  Cn1
 BYTE   N05  Dn1
 BYTE   W06
 BYTE   N05
 BYTE   W06
 BYTE   N05
 BYTE   W06
 BYTE   N05
 BYTE   W06
 BYTE   N23  Cn1
 BYTE   N05  Dn1
 BYTE   W06
 BYTE   Ds1
 BYTE   W06
 BYTE   Dn1
 BYTE   W06
 BYTE   TIE  Fn2
 BYTE   W06
 BYTE   PEND 
//  #06 //008   ----------------------------------------
 BYTE   PATT
  POIN2 Label_018C1F21
//  #06 //009   ----------------------------------------
 BYTE   EOT
 BYTE   Fn2
 BYTE   W01
 BYTE   N23  Cn1  v100
 BYTE   W12
 BYTE   N05  Dn1
 BYTE   W12
 BYTE   N23  Cn1
 BYTE   W12
 BYTE   N05  Dn1
 BYTE   W12
 BYTE   N23  Cn1
 BYTE   N05  Dn1
 BYTE   W12
 BYTE   N05
 BYTE   W06
 BYTE   N05
 BYTE   W06
 BYTE   N23  Cn1
 BYTE   N05  Dn1
 BYTE   N05  Cn2
 BYTE   W06
 BYTE   Dn1
 BYTE   N05  Bn1
 BYTE   W06
 BYTE   Dn1
 BYTE   N05  An1
 BYTE   W06
 BYTE   Gn1
 BYTE   W06
//  #06 //010   ----------------------------------------
 BYTE   PATT
  POIN2 Label_018C1F60
//  #06 //011   ----------------------------------------
 BYTE   N23  Cn1  v100
 BYTE   N05  Dn1
 BYTE   W12
 BYTE   N05
 BYTE   W12
 BYTE   N11  Cn1
 BYTE   N05  Dn1
 BYTE   W12
 BYTE   N11  Cn1
 BYTE   N05  Dn1
 BYTE   W12
 BYTE   N23  Cn1
 BYTE   N05  Dn1
 BYTE   W06
 BYTE   N05
 BYTE   W06
 BYTE   N05
 BYTE   W06
 BYTE   N05
 BYTE   W06
 BYTE   N23  Cn1
 BYTE   N05  Ds1
 BYTE   N05  Cn2
 BYTE   W06
 BYTE   Dn1
 BYTE   N05  Bn1
 BYTE   W06
 BYTE   Dn1
 BYTE   N05  An1
 BYTE   W06
 BYTE   Ds1
 BYTE   TIE  Fn2
 BYTE   W06
//  #06 //012   ----------------------------------------
 BYTE   PATT
  POIN2 Label_018C1F21
//  #06 //013   ----------------------------------------
 BYTE   EOT
 BYTE   Fn2
 BYTE   W01
//  #06 //014   ----------------------------------------
 BYTE   PATT
  POIN2 Label_018C1F3E
//  #06 //015   ----------------------------------------
 BYTE   PATT
  POIN2 Label_018C1F60
//  #06 //016   ----------------------------------------
 BYTE   PATT
  POIN2 Label_018C1F7A
//  #06 //017   ----------------------------------------
 BYTE   PATT
  POIN2 Label_018C1F21
//  #06 //018   ----------------------------------------
 BYTE   EOT
 BYTE   Fn2
 BYTE   W01
 BYTE   N23  Cn1  v100
 BYTE   W12
 BYTE   N05  Dn1
 BYTE   W12
 BYTE   N23  Cn1
 BYTE   W12
 BYTE   N05  Dn1
 BYTE   W12
 BYTE   N23  Cn1
 BYTE   N23  Ds1
 BYTE   W24
 BYTE   Cn1
 BYTE   N05  Dn1
 BYTE   W06
 BYTE   N05
 BYTE   W06
 BYTE   N05
 BYTE   W06
 BYTE   N05
 BYTE   W06
//  #06 //019   ----------------------------------------
 BYTE   N23  Cn1
 BYTE   N05  Gs1
 BYTE   W12
 BYTE   Dn1
 BYTE   W06
 BYTE   Gs1
 BYTE   W06
 BYTE   N23  Cn1
 BYTE   W12
 BYTE   N05  Dn1
 BYTE   N05  Gs1
 BYTE   W12
 BYTE   N23  Cn1
 BYTE   W06
 BYTE   N05  Gs1
 BYTE   W06
 BYTE   Dn1
 BYTE   W12
 BYTE   N23  Cn1
 BYTE   N05  Gs1
 BYTE   W12
 BYTE   Dn1
 BYTE   N05  Gs1
 BYTE   W12
//  #06 //020   ----------------------------------------
 BYTE   N23  Cn1
 BYTE   N05  Gs1
 BYTE   W12
 BYTE   Dn1
 BYTE   W06
 BYTE   Gs1
 BYTE   W06
 BYTE   N11  Cn1
 BYTE   W12
 BYTE   N11
 BYTE   N05  Dn1
 BYTE   N05  Gs1
 BYTE   W12
 BYTE   N23  Cn1
 BYTE   W06
 BYTE   N05  Gs1
 BYTE   W06
 BYTE   Dn1
 BYTE   W12
 BYTE   N23  Cn1
 BYTE   N11  Ds1
 BYTE   N05  Gs1
 BYTE   W12
 BYTE   Dn1
 BYTE   N05  Gs1
 BYTE   W06
 BYTE   Dn1
 BYTE   TIE  Fn2
 BYTE   W06
//  #06 //021   ----------------------------------------
 BYTE   N32  Cn1
 BYTE   N05  Dn1
 BYTE   N23  Cs2
 BYTE   W18
 BYTE   N05  Dn1
 BYTE   W18
 BYTE   N32  Cn1
 BYTE   N05  Dn1
 BYTE   N23  Cs2
 BYTE   W18
 BYTE   N05  Dn1
 BYTE   W18
 BYTE   N11  Cn1
 BYTE   N11  Ds1
 BYTE   N23  Cs2
 BYTE   W12
 BYTE   N11  Cn1
 BYTE   N05  Dn1
 BYTE   W11
 BYTE   EOT
 BYTE   Fn2
 BYTE   W01
//  #06 //022   ----------------------------------------
 BYTE   N32  Cn1
 BYTE   N05  Dn1
 BYTE   N23  Cs2
 BYTE   W18
 BYTE   N05  Dn1
 BYTE   W18
 BYTE   N32  Cn1
 BYTE   N05  Dn1
 BYTE   N23  Cs2
 BYTE   W18
 BYTE   N05  Dn1
 BYTE   W18
 BYTE   N11  Cn1
 BYTE   N05  Dn1
 BYTE   N17  Cs2
 BYTE   W06
 BYTE   N05  Dn1
 BYTE   W06
 BYTE   N11  Cn1
 BYTE   N11  Ds1
 BYTE   W06
 BYTE   TIE  Fn2
 BYTE   W06
//  #06 //023   ----------------------------------------
 BYTE   PATT
  POIN2 Label_018C1F21
//  #06 //024   ----------------------------------------
 BYTE   EOT
 BYTE   Fn2
 BYTE   W01
Label_018C20DB:
 BYTE   N23  Cn1  v100
 BYTE   W12
 BYTE   N05  Dn1
 BYTE   W12
 BYTE   N23  Cn1
 BYTE   W12
 BYTE   N05  Dn1
 BYTE   W12
 BYTE   N23  Cn1
 BYTE   N05  Dn1
 BYTE   W06
 BYTE   N05
 BYTE   W06
 BYTE   N05
 BYTE   W06
 BYTE   N05
 BYTE   W06
 BYTE   N23  Cn1
 BYTE   N05  Dn1
 BYTE   W06
 BYTE   N05
 BYTE   W06
 BYTE   N05
 BYTE   W06
 BYTE   N05
 BYTE   W06
 BYTE   PEND 
//  #06 //025   ----------------------------------------
 BYTE   PATT
  POIN2 Label_018C1F60
//  #06 //026   ----------------------------------------
 BYTE   N23  Cn1  v100
 BYTE   W12
 BYTE   N05  Dn1
 BYTE   W12
 BYTE   N11  Cn1
 BYTE   W12
 BYTE   N11
 BYTE   N05  Dn1
 BYTE   W12
 BYTE   N23  Cn1
 BYTE   N05  Dn1
 BYTE   W06
 BYTE   N05
 BYTE   W06
 BYTE   N05
 BYTE   W06
 BYTE   N05
 BYTE   W06
 BYTE   N23  Cn1
 BYTE   N05  Dn1
 BYTE   W06
 BYTE   N05
 BYTE   W06
 BYTE   Ds1
 BYTE   W06
 BYTE   Dn1
 BYTE   W06
//  #06 //027   ----------------------------------------
 BYTE   N17  Cn1
 BYTE   N05  Dn1
 BYTE   W18
 BYTE   N17  Cn1
 BYTE   N17  Ds1
 BYTE   W18
 BYTE   N56  Cn1
 BYTE   N05  Dn1
 BYTE   W36
 BYTE   N23  Ds1
 BYTE   W24
//  #06 //028   ----------------------------------------
 BYTE   PATT
  POIN2 Label_018C1EC6
//  #06 //029   ----------------------------------------
 BYTE   PATT
  POIN2 Label_018C1EDF
//  #06 //030   ----------------------------------------
 BYTE   N44  Cn1  v100
 BYTE   N05  Ds1
 BYTE   N05  Fs1
 BYTE   W06
 BYTE   Dn1
 BYTE   W06
 BYTE   N05
 BYTE   W06
 BYTE   Ds1
 BYTE   N05  Fs1
 BYTE   W06
 BYTE   Dn1
 BYTE   W06
 BYTE   N05
 BYTE   W06
 BYTE   Ds1
 BYTE   N05  Fs1
 BYTE   W06
 BYTE   Dn1
 BYTE   W06
 BYTE   N44  Cn1
 BYTE   N05  Dn1
 BYTE   N05  Fs1
 BYTE   W06
 BYTE   Dn1
 BYTE   W06
 BYTE   N05
 BYTE   W06
 BYTE   N05
 BYTE   N05  Fs1
 BYTE   W06
 BYTE   N23  Ds1
 BYTE   W12
 BYTE   N05  Fs1
 BYTE   W12
//  #06 //031   ----------------------------------------
 BYTE   W96
//  #06 //032   ----------------------------------------
 BYTE   W96
//  #06 //033   ----------------------------------------
 BYTE   W96
//  #06 //034   ----------------------------------------
 BYTE   W96
//  #06 //035   ----------------------------------------
 BYTE   W96
//  #06 //036   ----------------------------------------
 BYTE   W96
//  #06 //037   ----------------------------------------
 BYTE   W96
//  #06 //038   ----------------------------------------
 BYTE   W72
 BYTE   N23  Dn1
 BYTE   W18
 BYTE   TIE  Fn2
 BYTE   W06
//  #06 //039   ----------------------------------------
 BYTE   PATT
  POIN2 Label_018C1F21
//  #06 //040   ----------------------------------------
 BYTE   EOT
 BYTE   Fn2
 BYTE   W01
//  #06 //041   ----------------------------------------
 BYTE   PATT
  POIN2 Label_018C20DB
//  #06 //042   ----------------------------------------
 BYTE   PATT
  POIN2 Label_018C1F60
//  #06 //043   ----------------------------------------
 BYTE   N23  Cn1  v100
 BYTE   W12
 BYTE   N05  Dn1
 BYTE   W12
 BYTE   N11  Cn1
 BYTE   W12
 BYTE   N11
 BYTE   N05  Dn1
 BYTE   W12
 BYTE   N23  Cn1
 BYTE   N05  Dn1
 BYTE   W06
 BYTE   N05
 BYTE   W06
 BYTE   N05
 BYTE   W06
 BYTE   N05
 BYTE   W06
 BYTE   N23  Cn1
 BYTE   N05  Dn1
 BYTE   W06
 BYTE   Ds1
 BYTE   W06
 BYTE   Dn1
 BYTE   W12
//  #06 //044   ----------------------------------------
 BYTE   PATT
  POIN2 Label_018C1F60
//  #06 //045   ----------------------------------------
 BYTE   PATT
  POIN2 Label_018C20DB
//  #06 //046   ----------------------------------------
 BYTE   N23  Cn1  v100
 BYTE   N05  Fs1
 BYTE   W12
 BYTE   Dn1
 BYTE   W06
 BYTE   Fs1
 BYTE   W06
 BYTE   N23  Cn1
 BYTE   W12
 BYTE   N05  Dn1
 BYTE   N05  Fs1
 BYTE   W12
 BYTE   N23  Cn1
 BYTE   N05  Fs1
 BYTE   W12
 BYTE   Dn1
 BYTE   W06
 BYTE   Fs1
 BYTE   W06
 BYTE   N23  Cn1
 BYTE   W12
 BYTE   N05  Dn1
 BYTE   N05  Fs1
 BYTE   W12
//  #06 //047   ----------------------------------------
 BYTE   N23  Cn1
 BYTE   N05  Fs1
 BYTE   W12
 BYTE   Dn1
 BYTE   W06
 BYTE   Fs1
 BYTE   W06
 BYTE   N11  Cn1
 BYTE   W12
 BYTE   N11
 BYTE   N05  Dn1
 BYTE   N05  Fs1
 BYTE   W12
 BYTE   N23  Cn1
 BYTE   N05  Dn1
 BYTE   N05  Fs1
 BYTE   W06
 BYTE   Dn1
 BYTE   W06
 BYTE   N05
 BYTE   N05  Fs1
 BYTE   W06
 BYTE   Dn1
 BYTE   W06
 BYTE   N23  Cn1
 BYTE   N05  Dn1
 BYTE   N05  Fs1
 BYTE   W06
 BYTE   Dn1
 BYTE   W06
 BYTE   N11  Ds1
 BYTE   N05  Fs1
 BYTE   W12
//  #06 //048   ----------------------------------------
Label_018C2211:
 BYTE   N05  Cn1  v100
 BYTE   W06
 BYTE   N11
 BYTE   W06
 BYTE   N05  Dn1
 BYTE   N05  Fs1
 BYTE   W06
 BYTE   N11  Cn1
 BYTE   W12
 BYTE   N23
 BYTE   W06
 BYTE   N05  Dn1
 BYTE   N05  Fs1
 BYTE   W18
 BYTE   N11  Cn1
 BYTE   W06
 BYTE   N05  Dn1
 BYTE   N05  Fs1
 BYTE   W06
 BYTE   N11  Cn1
 BYTE   W12
 BYTE   N23
 BYTE   W06
 BYTE   N05  Dn1
 BYTE   N05  Fs1
 BYTE   W12
 BYTE   PEND 
//  #06 //049   ----------------------------------------
 BYTE   W06
 BYTE   N11  Cn1
 BYTE   W06
 BYTE   N05  Dn1
 BYTE   N05  Fs1
 BYTE   W06
 BYTE   N11  Cn1
 BYTE   W12
 BYTE   N23
 BYTE   W06
 BYTE   N05  Dn1
 BYTE   N05  As1
 BYTE   W12
 BYTE   Dn1
 BYTE   W06
 BYTE   N11  Cn1
 BYTE   N05  Dn1
 BYTE   W06
 BYTE   N05
 BYTE   N05  Fs1
 BYTE   W06
 BYTE   N11  Cn1
 BYTE   N05  Dn1
 BYTE   W06
 BYTE   N05
 BYTE   W06
 BYTE   N23  Cn1
 BYTE   N05  Dn1
 BYTE   W06
 BYTE   N05
 BYTE   N05  Fs1
 BYTE   W06
 BYTE   Dn1
 BYTE   W06
//  #06 //050   ----------------------------------------
Label_018C2269:
 BYTE   W06
 BYTE   N11  Cn1  v100
 BYTE   W06
 BYTE   N05  Dn1
 BYTE   N05  Fs1
 BYTE   W06
 BYTE   N11  Cn1
 BYTE   W12
 BYTE   N23
 BYTE   W06
 BYTE   N05  Dn1
 BYTE   N05  Fs1
 BYTE   W18
 BYTE   N11  Cn1
 BYTE   W06
 BYTE   N05  Dn1
 BYTE   N05  Fs1
 BYTE   W06
 BYTE   N11  Cn1
 BYTE   W12
 BYTE   N23
 BYTE   W06
 BYTE   N05  Dn1
 BYTE   N05  Fs1
 BYTE   W12
 BYTE   PEND 
//  #06 //051   ----------------------------------------
 BYTE   W06
 BYTE   N11  Cn1
 BYTE   W06
 BYTE   N05  Dn1
 BYTE   N05  Fs1
 BYTE   W06
 BYTE   N11  Cn1
 BYTE   W12
 BYTE   N11
 BYTE   W06
 BYTE   N05  Dn1
 BYTE   N05  As1
 BYTE   W06
 BYTE   N11  Cn1
 BYTE   W06
 BYTE   N05  Dn1
 BYTE   W06
 BYTE   N11  Cn1
 BYTE   N05  Dn1
 BYTE   W06
 BYTE   N05
 BYTE   N05  Fs1
 BYTE   W06
 BYTE   N11  Cn1
 BYTE   N05  Dn1
 BYTE   W06
 BYTE   N05
 BYTE   W06
 BYTE   N11  Cn1
 BYTE   N05  Dn1
 BYTE   W06
 BYTE   Ds1
 BYTE   N05  As1
 BYTE   W06
 BYTE   Cn1
 BYTE   N05  Dn1
 BYTE   W06
//  #06 //052   ----------------------------------------
 BYTE   PATT
  POIN2 Label_018C2211
//  #06 //053   ----------------------------------------
 BYTE   W06
 BYTE   N11  Cn1  v100
 BYTE   W06
 BYTE   N05  Dn1
 BYTE   N05  Fs1
 BYTE   W06
 BYTE   N11  Cn1
 BYTE   W12
 BYTE   N23
 BYTE   W06
 BYTE   N05  Dn1
 BYTE   N05  As1
 BYTE   W12
 BYTE   Dn1
 BYTE   W06
 BYTE   N11  Cn1
 BYTE   N05  Dn1
 BYTE   W06
 BYTE   N05
 BYTE   N05  Fs1
 BYTE   W06
 BYTE   N11  Cn1
 BYTE   N05  Dn1
 BYTE   W06
 BYTE   Ds1
 BYTE   W06
 BYTE   N23  Cn1
 BYTE   N05  Dn1
 BYTE   W06
 BYTE   N05
 BYTE   N05  Fs1
 BYTE   W06
 BYTE   Dn1
 BYTE   W06
//  #06 //054   ----------------------------------------
 BYTE   PATT
  POIN2 Label_018C2269
//  #06 //055   ----------------------------------------
 BYTE   W06
 BYTE   N11  Cn1  v100
 BYTE   W06
 BYTE   N05  Dn1
 BYTE   N05  Fs1
 BYTE   W06
 BYTE   N11  Cn1
 BYTE   W12
 BYTE   N11
 BYTE   W06
 BYTE   N05  Dn1
 BYTE   N05  As1
 BYTE   W06
 BYTE   N11  Cn1
 BYTE   W06
 BYTE   N05  Dn1
 BYTE   W06
 BYTE   N11  Cn1
 BYTE   N05  Dn1
 BYTE   W06
 BYTE   N05
 BYTE   N05  Fs1
 BYTE   W06
 BYTE   N11  Cn1
 BYTE   N05  Dn1
 BYTE   W06
 BYTE   Ds1
 BYTE   W06
 BYTE   N11  Cn1
 BYTE   N05  Dn1
 BYTE   W06
 BYTE   Ds1
 BYTE   N05  As1
 BYTE   W06
 BYTE   Cn1
 BYTE   N05  Dn1
 BYTE   W06
//  #06 //056   ----------------------------------------
 BYTE   N17  Cn1
 BYTE   W18
 BYTE   N17
 BYTE   N17  Ds1
 BYTE   W18
 BYTE   N56  Cn1
 BYTE   N05  Dn1
 BYTE   W36
 BYTE   N23  Ds1
 BYTE   W24
//  #06 //057   ----------------------------------------
 BYTE   PATT
  POIN2 Label_018C1EC6
//  #06 //058   ----------------------------------------
 BYTE   PATT
  POIN2 Label_018C1EDF
//  #06 //059   ----------------------------------------
 BYTE   N44  Cn1  v100
 BYTE   N05  Ds1
 BYTE   W06
 BYTE   Dn1
 BYTE   W06
 BYTE   N05
 BYTE   W06
 BYTE   Ds1
 BYTE   W06
 BYTE   Dn1
 BYTE   W06
 BYTE   N05
 BYTE   W06
 BYTE   Ds1
 BYTE   W06
 BYTE   Dn1
 BYTE   W06
 BYTE   N44  Cn1
 BYTE   N05  Dn1
 BYTE   W06
 BYTE   N05
 BYTE   W06
 BYTE   N05
 BYTE   W06
 BYTE   N05
 BYTE   W06
 BYTE   N23  Ds1
 BYTE   W24
//  #06 //060   ----------------------------------------
 BYTE   W72
 BYTE   N23
 BYTE   W24
//  #06 //061   ----------------------------------------
 BYTE   GoTo
  POIN2 Label_018C1F21
 BYTE   FINE

//**************** Track 7 (Midi-Chn.6) ****************//

song03D7_007:
//  #07 //000   ----------------------------------------
 BYTE   KEYSH   song03D7_key+0
 BYTE   VOICE   124
 BYTE   PAN   c_v+2
 BYTE   VOL   41*song03D7_mvl/mxv
 BYTE   BEND   c_v+0
 BYTE   W96
//  #07 //001   ----------------------------------------
 BYTE   W96
//  #07 //002   ----------------------------------------
 BYTE   W96
//  #07 //003   ----------------------------------------
Label_018C2389:
 BYTE   W72
 BYTE   N02  Dn1  v100
 BYTE   W03
 BYTE   N02
 BYTE   W03
 BYTE   N02
 BYTE   W03
 BYTE   N02
 BYTE   W03
 BYTE   N02
 BYTE   W03
 BYTE   N02
 BYTE   W03
 BYTE   N02
 BYTE   W03
 BYTE   N02
 BYTE   W03
 BYTE   PEND 
//  #07 //004   ----------------------------------------
Label_018C239D:
 BYTE   N05  Gs1  v100
 BYTE   W06
 BYTE   N05
 BYTE   W12
 BYTE   N05
 BYTE   W06
 BYTE   N05
 BYTE   W06
 BYTE   N05
 BYTE   W12
 BYTE   N05
 BYTE   W06
 BYTE   N05
 BYTE   W06
 BYTE   N05
 BYTE   W12
 BYTE   N05
 BYTE   W06
 BYTE   N05
 BYTE   W06
 BYTE   N05
 BYTE   W12
 BYTE   N05
 BYTE   W06
 BYTE   PEND 
//  #07 //005   ----------------------------------------
Label_018C23B8:
 BYTE   N05  Gs1  v100
 BYTE   W06
 BYTE   N05
 BYTE   W12
 BYTE   N05
 BYTE   W06
 BYTE   N05
 BYTE   W06
 BYTE   N05
 BYTE   W12
 BYTE   N05
 BYTE   W06
 BYTE   N05
 BYTE   W06
 BYTE   N05
 BYTE   W12
 BYTE   N05
 BYTE   W06
 BYTE   N05
 BYTE   W18
 BYTE   N05
 BYTE   W06
 BYTE   PEND 
//  #07 //006   ----------------------------------------
 BYTE   PATT
  POIN2 Label_018C239D
//  #07 //007   ----------------------------------------
 BYTE   PATT
  POIN2 Label_018C23B8
//  #07 //008   ----------------------------------------
 BYTE   N05  Gs1  v100
 BYTE   W06
 BYTE   N05
 BYTE   W12
 BYTE   N05
 BYTE   W06
 BYTE   N05
 BYTE   W06
 BYTE   N05
 BYTE   W36
 BYTE   N05
 BYTE   W06
 BYTE   N05
 BYTE   W06
 BYTE   N05
 BYTE   W12
 BYTE   N05
 BYTE   W06
//  #07 //009   ----------------------------------------
 BYTE   PATT
  POIN2 Label_018C23B8
//  #07 //010   ----------------------------------------
 BYTE   PATT
  POIN2 Label_018C239D
//  #07 //011   ----------------------------------------
 BYTE   N05  Gs1  v100
 BYTE   W06
 BYTE   N05
 BYTE   W12
 BYTE   N05
 BYTE   W06
 BYTE   N05
 BYTE   W06
 BYTE   N05
 BYTE   W12
 BYTE   N05
 BYTE   W06
 BYTE   N05
 BYTE   W06
 BYTE   N05
 BYTE   W36
 BYTE   N05
 BYTE   W06
//  #07 //012   ----------------------------------------
 BYTE   PATT
  POIN2 Label_018C239D
//  #07 //013   ----------------------------------------
 BYTE   PATT
  POIN2 Label_018C23B8
//  #07 //014   ----------------------------------------
 BYTE   PATT
  POIN2 Label_018C239D
//  #07 //015   ----------------------------------------
 BYTE   PATT
  POIN2 Label_018C23B8
//  #07 //016   ----------------------------------------
 BYTE   PATT
  POIN2 Label_018C239D
//  #07 //017   ----------------------------------------
 BYTE   N05  Gs1  v100
 BYTE   W06
 BYTE   N05
 BYTE   W12
 BYTE   N05
 BYTE   W06
 BYTE   N05
 BYTE   W06
 BYTE   N05
 BYTE   W12
 BYTE   N05
 BYTE   W06
 BYTE   N05
 BYTE   W06
 BYTE   N05
 BYTE   W12
 BYTE   N05
 BYTE   W06
 BYTE   N05
 BYTE   W06
 BYTE   N05
 BYTE   W06
 BYTE   N05
 BYTE   W06
 BYTE   N05
 BYTE   W06
//  #07 //018   ----------------------------------------
Label_018C2442:
 BYTE   N05  Gs1  v100
 BYTE   W06
 BYTE   N05
 BYTE   W06
 BYTE   N05
 BYTE   W06
 BYTE   N05
 BYTE   W06
 BYTE   N05
 BYTE   W06
 BYTE   N05
 BYTE   W06
 BYTE   N05
 BYTE   W06
 BYTE   N05
 BYTE   W06
 BYTE   N05
 BYTE   W06
 BYTE   N05
 BYTE   W06
 BYTE   N05
 BYTE   W06
 BYTE   N05
 BYTE   W06
 BYTE   N05
 BYTE   W06
 BYTE   N05
 BYTE   W06
 BYTE   N05
 BYTE   W06
 BYTE   N05
 BYTE   W06
 BYTE   PEND 
//  #07 //019   ----------------------------------------
 BYTE   PATT
  POIN2 Label_018C2442
//  #07 //020   ----------------------------------------
 BYTE   W96
//  #07 //021   ----------------------------------------
 BYTE   W96
//  #07 //022   ----------------------------------------
 BYTE   PATT
  POIN2 Label_018C239D
//  #07 //023   ----------------------------------------
 BYTE   PATT
  POIN2 Label_018C23B8
//  #07 //024   ----------------------------------------
 BYTE   PATT
  POIN2 Label_018C239D
//  #07 //025   ----------------------------------------
 BYTE   PATT
  POIN2 Label_018C23B8
//  #07 //026   ----------------------------------------
 BYTE   PATT
  POIN2 Label_018C239D
//  #07 //027   ----------------------------------------
 BYTE   PATT
  POIN2 Label_018C239D
//  #07 //028   ----------------------------------------
 BYTE   PATT
  POIN2 Label_018C239D
//  #07 //029   ----------------------------------------
 BYTE   N05  Gs1  v100
 BYTE   W06
 BYTE   N05
 BYTE   W12
 BYTE   N05
 BYTE   W06
 BYTE   N05
 BYTE   W06
 BYTE   N05
 BYTE   W12
 BYTE   N05
 BYTE   W06
 BYTE   N05
 BYTE   W06
 BYTE   N05
 BYTE   W06
 BYTE   N05
 BYTE   W06
 BYTE   N05
 BYTE   W06
 BYTE   N05
 BYTE   W06
 BYTE   N05
 BYTE   W06
 BYTE   N05
 BYTE   W06
 BYTE   N05
 BYTE   W06
//  #07 //030   ----------------------------------------
 BYTE   PATT
  POIN2 Label_018C239D
//  #07 //031   ----------------------------------------
 BYTE   PATT
  POIN2 Label_018C23B8
//  #07 //032   ----------------------------------------
 BYTE   PATT
  POIN2 Label_018C239D
//  #07 //033   ----------------------------------------
 BYTE   N05  Gs1  v100
 BYTE   W06
 BYTE   N05
 BYTE   W12
 BYTE   N05
 BYTE   W06
 BYTE   N05
 BYTE   W06
 BYTE   N05
 BYTE   W12
 BYTE   N05
 BYTE   W06
 BYTE   N05
 BYTE   W06
 BYTE   N05
 BYTE   W12
 BYTE   N05
 BYTE   W06
 BYTE   N05
 BYTE   W12
 BYTE   N05
 BYTE   W06
 BYTE   N05
 BYTE   W06
//  #07 //034   ----------------------------------------
 BYTE   PATT
  POIN2 Label_018C239D
//  #07 //035   ----------------------------------------
 BYTE   PATT
  POIN2 Label_018C23B8
//  #07 //036   ----------------------------------------
 BYTE   PATT
  POIN2 Label_018C239D
//  #07 //037   ----------------------------------------
 BYTE   N05  Gs1  v100
 BYTE   W06
 BYTE   N05
 BYTE   W12
 BYTE   N05
 BYTE   W06
 BYTE   N05
 BYTE   W06
 BYTE   N05
 BYTE   W12
 BYTE   N05
 BYTE   W06
 BYTE   N05
 BYTE   W06
 BYTE   N05
 BYTE   W12
 BYTE   N05
 BYTE   W06
 BYTE   N02  Dn1
 BYTE   W03
 BYTE   N02
 BYTE   W03
 BYTE   N02
 BYTE   W03
 BYTE   N02
 BYTE   W03
 BYTE   N02
 BYTE   W03
 BYTE   N02
 BYTE   W03
 BYTE   N02
 BYTE   W03
 BYTE   N02
 BYTE   W03
//  #07 //038   ----------------------------------------
 BYTE   W96
//  #07 //039   ----------------------------------------
 BYTE   W96
//  #07 //040   ----------------------------------------
 BYTE   W96
//  #07 //041   ----------------------------------------
 BYTE   W96
//  #07 //042   ----------------------------------------
 BYTE   W96
//  #07 //043   ----------------------------------------
 BYTE   W96
//  #07 //044   ----------------------------------------
 BYTE   W96
//  #07 //045   ----------------------------------------
 BYTE   PATT
  POIN2 Label_018C2389
//  #07 //046   ----------------------------------------
 BYTE   PATT
  POIN2 Label_018C239D
//  #07 //047   ----------------------------------------
 BYTE   PATT
  POIN2 Label_018C23B8
//  #07 //048   ----------------------------------------
 BYTE   PATT
  POIN2 Label_018C239D
//  #07 //049   ----------------------------------------
 BYTE   PATT
  POIN2 Label_018C23B8
//  #07 //050   ----------------------------------------
 BYTE   W96
//  #07 //051   ----------------------------------------
 BYTE   W96
//  #07 //052   ----------------------------------------
 BYTE   W96
//  #07 //053   ----------------------------------------
 BYTE   W96
//  #07 //054   ----------------------------------------
 BYTE   W96
//  #07 //055   ----------------------------------------
 BYTE   W96
//  #07 //056   ----------------------------------------
 BYTE   W96
//  #07 //057   ----------------------------------------
 BYTE   W96
//  #07 //058   ----------------------------------------
 BYTE   PATT
  POIN2 Label_018C2389
//  #07 //059   ----------------------------------------
 BYTE   GoTo
  POIN2 Label_018C239D
 BYTE   FINE

//**************** Track 8 (Midi-Chn.7) ****************//

song03D7_008:
//  #08 //000   ----------------------------------------
 BYTE   KEYSH   song03D7_key+0
 BYTE   VOICE   0
 BYTE   PAN   c_v+18
 BYTE   VOL   24*song03D7_mvl/mxv
 BYTE   BEND   c_v+0
 BYTE   W96
//  #08 //001   ----------------------------------------
 BYTE   W96
//  #08 //002   ----------------------------------------
 BYTE   W96
//  #08 //003   ----------------------------------------
 BYTE   W96
//  #08 //004   ----------------------------------------
Label_0183AABE:
 BYTE   W96
//  #08 //005   ----------------------------------------
 BYTE   W96
//  #08 //006   ----------------------------------------
 BYTE   W96
//  #08 //007   ----------------------------------------
 BYTE   W96
//  #08 //008   ----------------------------------------
 BYTE   W96
//  #08 //009   ----------------------------------------
 BYTE   W96
//  #08 //010   ----------------------------------------
 BYTE   W96
//  #08 //011   ----------------------------------------
 BYTE   W96
//  #08 //012   ----------------------------------------
 BYTE   W96
//  #08 //013   ----------------------------------------
 BYTE   W96
//  #08 //014   ----------------------------------------
 BYTE   W96
//  #08 //015   ----------------------------------------
 BYTE   W96
//  #08 //016   ----------------------------------------
 BYTE   W96
//  #08 //017   ----------------------------------------
 BYTE   W96
//  #08 //018   ----------------------------------------
 BYTE   W96
//  #08 //019   ----------------------------------------
 BYTE   W96
//  #08 //020   ----------------------------------------
 BYTE   W96
//  #08 //021   ----------------------------------------
 BYTE   W96
//  #08 //022   ----------------------------------------
 BYTE   W96
//  #08 //023   ----------------------------------------
 BYTE   W96
//  #08 //024   ----------------------------------------
 BYTE   W96
//  #08 //025   ----------------------------------------
 BYTE   W96
//  #08 //026   ----------------------------------------
 BYTE   W96
//  #08 //027   ----------------------------------------
 BYTE   W96
//  #08 //028   ----------------------------------------
 BYTE   W96
//  #08 //029   ----------------------------------------
 BYTE   W96
//  #08 //030   ----------------------------------------
 BYTE   W96
//  #08 //031   ----------------------------------------
 BYTE   W96
//  #08 //032   ----------------------------------------
 BYTE   W96
//  #08 //033   ----------------------------------------
 BYTE   W96
//  #08 //034   ----------------------------------------
 BYTE   W96
//  #08 //035   ----------------------------------------
 BYTE   W96
//  #08 //036   ----------------------------------------
 BYTE   W96
//  #08 //037   ----------------------------------------
 BYTE   W96
//  #08 //038   ----------------------------------------
 BYTE   W96
//  #08 //039   ----------------------------------------
 BYTE   W96
//  #08 //040   ----------------------------------------
 BYTE   W96
//  #08 //041   ----------------------------------------
 BYTE   W96
//  #08 //042   ----------------------------------------
 BYTE   W96
//  #08 //043   ----------------------------------------
 BYTE   W96
//  #08 //044   ----------------------------------------
 BYTE   W96
//  #08 //045   ----------------------------------------
 BYTE   W36
 BYTE   N24  Ds5  v064
 BYTE   W12
 BYTE   N17  Fn4  v100
 BYTE   W18
 BYTE   Gn4
 BYTE   W18
 BYTE   N11  As4
 BYTE   W12
//  #08 //046   ----------------------------------------
 BYTE   N44  Gs4
 BYTE   W48
 BYTE   Fs4
 BYTE   W48
//  #08 //047   ----------------------------------------
 BYTE   Ds4
 BYTE   W48
 BYTE   Bn4
 BYTE   W48
//  #08 //048   ----------------------------------------
 BYTE   As4
 BYTE   W48
 BYTE   Fs4
 BYTE   W48
//  #08 //049   ----------------------------------------
 BYTE   N92  Ds4
 BYTE   W96
//  #08 //050   ----------------------------------------
 BYTE   N44  Gs4
 BYTE   W48
 BYTE   As4
 BYTE   W48
//  #08 //051   ----------------------------------------
 BYTE   Fs4
 BYTE   W48
 BYTE   Ds4
 BYTE   W48
//  #08 //052   ----------------------------------------
 BYTE   N17  Gs4
 BYTE   W18
 BYTE   As4
 BYTE   W18
 BYTE   N11  Bn4
 BYTE   W12
 BYTE   N17  As4
 BYTE   W18
 BYTE   Fs4
 BYTE   W18
 BYTE   N11  Ds4
 BYTE   W12
//  #08 //053   ----------------------------------------
 BYTE   N92  Gs4
 BYTE   W96
//  #08 //054   ----------------------------------------
 BYTE   Fn3
 BYTE   W96
//  #08 //055   ----------------------------------------
 BYTE   Cs3
 BYTE   W96
//  #08 //056   ----------------------------------------
 BYTE   Ds3
 BYTE   W96
//  #08 //057   ----------------------------------------
 BYTE   As3
 BYTE   W96
//  #08 //058   ----------------------------------------
 BYTE   As2
 BYTE   W92
 BYTE   BEND   c_v+0
 BYTE   W04
//  #08 //059   ----------------------------------------
 BYTE   GoTo
  POIN2 Label_0183AABE
 BYTE   FINE

//******************************************************//
	ALIGN 4

song03D7:
	BYTE	8	// NumTrks
	BYTE	0	// NumBlks
	BYTE	song03D7_pri	// Priority
	BYTE	song03D7_rev	// Reverb.
    
	POIN2	song03D7_grp
    
	POIN2	song03D7_001
	POIN2	song03D7_002
	POIN2	song03D7_003
	POIN2	song03D7_004
	POIN2	song03D7_005
	POIN2	song03D7_006
	POIN2	song03D7_007
	POIN2	song03D7_008

	
