//Event file generated from Sappy .s format.
	#include "MPlayDef.event"

	#define	CouragePrayer_grp  voicegroup000
	#define	CouragePrayer_pri  0
	#define	CouragePrayer_rev  0
	#define	CouragePrayer_mvl  127
	#define	CouragePrayer_key  0
	#define	CouragePrayer_tbs  1
	#define	CouragePrayer_exg  0
	#define	CouragePrayer_cmp  1

	// .rodata
	//	CouragePrayer
	ALIGN 4


//**************** Track 1 (Midi-Chn.0) ****************//

CouragePrayer_001:
// 000   ----------------------------------------
 BYTE   KEYSH   CouragePrayer_key+0
 BYTE   TEMPO   162*CouragePrayer_tbs/2
 BYTE   VOICE   49
 BYTE   VOL   21*CouragePrayer_mvl/mxv
 BYTE   PAN   c_v-4
 BYTE   W96
// 001   ----------------------------------------
 BYTE   W96
// 002   ----------------------------------------
 BYTE   W96
// 003   ----------------------------------------
Label_0_01371009:
 BYTE   W96
// 004   ----------------------------------------
 BYTE   W96
// 005   ----------------------------------------
 BYTE   W96
// 006   ----------------------------------------
 BYTE   W96
// 007   ----------------------------------------
 BYTE   W96
// 008   ----------------------------------------
 BYTE   W96
// 009   ----------------------------------------
Label_0_0137100F:
 BYTE   N48  An3  v100
 BYTE   N48  En4  v112
 BYTE   W01
 BYTE   W01
 BYTE   W01
 BYTE   W01
 BYTE   W01
 BYTE   W01
 BYTE   W01
 BYTE   W01
 BYTE   W01
 BYTE   W01
 BYTE   W01
 BYTE   W01
 BYTE   W01
 BYTE   W01
 BYTE   W01
 BYTE   W01
 BYTE   W01
 BYTE   W01
 BYTE   W01
 BYTE   W01
 BYTE   W01
 BYTE   W01
 BYTE   W01
 BYTE   W01
 BYTE   W24
 BYTE   N24  An3  v100
 BYTE   N12  Dn4  v112
 BYTE   W12
 BYTE   En4
 BYTE   W12
 BYTE   N96  Dn4  v100
 BYTE   N96  Fn4  v112
 BYTE   W24
 BYTE   PEND 
// 010   ----------------------------------------
Label_0_0137103F:
 BYTE   W72
 BYTE   N24  Gn3  v100
 BYTE   N24  En4  v112
 BYTE   W24
 BYTE   PEND 
// 011   ----------------------------------------
Label_0_01371048:
 BYTE   N24  Fn3  v100
 BYTE   N24  Dn4  v112
 BYTE   W24
 BYTE   N72  En3  v100
 BYTE   N72  An3  v112
 BYTE   W48
 BYTE   W01
 BYTE   W01
 BYTE   W01
 BYTE   W01
 BYTE   W01
 BYTE   W01
 BYTE   W01
 BYTE   W01
 BYTE   W01
 BYTE   W01
 BYTE   W01
 BYTE   W01
 BYTE   W01
 BYTE   W01
 BYTE   W01
 BYTE   W01
 BYTE   W01
 BYTE   W01
 BYTE   W01
 BYTE   W01
 BYTE   W01
 BYTE   W01
 BYTE   W01
 BYTE   W01
 BYTE   PEND 
// 012   ----------------------------------------
 BYTE   W72
 BYTE   W24
// 013   ----------------------------------------
 BYTE   W96
// 014   ----------------------------------------
 BYTE   W96
// 015   ----------------------------------------
 BYTE   W96
// 016   ----------------------------------------
 BYTE   W96
// 017   ----------------------------------------
 BYTE   W96
// 018   ----------------------------------------
 BYTE   W96
// 019   ----------------------------------------
 BYTE   W96
// 020   ----------------------------------------
 BYTE   W96
// 021   ----------------------------------------
 BYTE   W96
// 022   ----------------------------------------
 BYTE   W96
// 023   ----------------------------------------
 BYTE   W96
// 024   ----------------------------------------
 BYTE   W96
// 025   ----------------------------------------
 BYTE   W96
// 026   ----------------------------------------
 BYTE   W96
// 027   ----------------------------------------
 BYTE   PATT
  POIN2 Label_0_0137100F
// 028   ----------------------------------------
 BYTE   PATT
  POIN2 Label_0_0137103F
// 029   ----------------------------------------
 BYTE   PATT
  POIN2 Label_0_01371048
// 030   ----------------------------------------
 BYTE   W72
 BYTE   W24
// 031   ----------------------------------------
 BYTE   W96
// 032   ----------------------------------------
 BYTE   W96
// 033   ----------------------------------------
 BYTE   W96
// 034   ----------------------------------------
 BYTE   W96
// 035   ----------------------------------------
 BYTE   W96
// 036   ----------------------------------------
 BYTE   W96
// 037   ----------------------------------------
 BYTE   W96
// 038   ----------------------------------------
 BYTE   W96
// 039   ----------------------------------------
 BYTE   W96
// 040   ----------------------------------------
 BYTE   W96
// 041   ----------------------------------------
 BYTE   W96
// 042   ----------------------------------------
 BYTE   W96
// 043   ----------------------------------------
 BYTE   W96
// 044   ----------------------------------------
 BYTE   W96
// 045   ----------------------------------------
 BYTE   W96
// 046   ----------------------------------------
 BYTE   W96
// 047   ----------------------------------------
 BYTE   W96
// 048   ----------------------------------------
 BYTE   W96
// 049   ----------------------------------------
 BYTE   W96
// 050   ----------------------------------------
 BYTE   W96
// 051   ----------------------------------------
 BYTE   N48  Gn3  v100
 BYTE   N48  Cn4  v112
 BYTE   W48
 BYTE   N24  Gn3  v100
 BYTE   N24  Dn4  v112
 BYTE   W24
 BYTE   N96  Ds3  v100
 BYTE   N96  An3  v112
 BYTE   W24
// 052   ----------------------------------------
 BYTE   W72
 BYTE   N24  Ds3  v100
 BYTE   N24  Gn3  v112
 BYTE   W24
// 053   ----------------------------------------
 BYTE   Ds3  v100
 BYTE   N24  An3  v112
 BYTE   W24
 BYTE   N48  Cn3  v100
 BYTE   N48  Ds3  v112
 BYTE   W48
 BYTE   N24  Cn3  v100
 BYTE   N24  Gn3  v112
 BYTE   W24
// 054   ----------------------------------------
 BYTE   N48  Dn3  v108
 BYTE   N48  Fs3  v116
 BYTE   W48
 BYTE   N24  En3  v108
 BYTE   N24  Gn3  v116
 BYTE   W24
 BYTE   N48  Fs3  v108
 BYTE   N48  An3  v116
 BYTE   W24
// 055   ----------------------------------------
 BYTE   W24
 BYTE   N24  Gn3  v112
 BYTE   N24  As3  v120
 BYTE   W24
 BYTE   N90  An3  v116
 BYTE   N90  Cn4  v127
 BYTE   W48
// 056   ----------------------------------------
 BYTE   W48
 BYTE   N24  As3  v120
 BYTE   N24  Dn4  v127
 BYTE   W24
 BYTE   Cn4  v120
 BYTE   N24  Ds4  v127
 BYTE   W24
// 057   ----------------------------------------
 BYTE   As3  v116
 BYTE   N24  Dn4  v127
 BYTE   W24
 BYTE   An3  v116
 BYTE   N24  Cn4  v127
 BYTE   W24
 BYTE   Gn3  v116
 BYTE   N24  As3  v127
 BYTE   W24
 BYTE   N90  Dn3  v116
 BYTE   N90  An3  v127
 BYTE   W24
// 058   ----------------------------------------
 BYTE   W72
 BYTE   N24  Gn3  v116
 BYTE   N24  As3  v127
 BYTE   W24
// 059   ----------------------------------------
Label_0_01371128:
 BYTE   N24  An3  v116
 BYTE   N24  Cn4  v127
 BYTE   W24
 BYTE   Gn3  v116
 BYTE   N24  As3  v127
 BYTE   W24
 BYTE   N18  Ds3  v116
 BYTE   N18  An3  v127
 BYTE   W24
 BYTE   N24  Gn2  v116
 BYTE   N24  Dn3  v127
 BYTE   W24
 BYTE   PEND 
// 060   ----------------------------------------
 BYTE   As3  v116
 BYTE   N24  Dn4  v127
 BYTE   W24
 BYTE   An3  v116
 BYTE   N24  Cn4  v127
 BYTE   W24
 BYTE   Gn3  v116
 BYTE   N24  As3  v127
 BYTE   W24
 BYTE   N90  Gn3  v116
 BYTE   N90  Cn4  v127
 BYTE   W24
// 061   ----------------------------------------
 BYTE   W72
 BYTE   N24  Gn3  v116
 BYTE   N24  Cn4  v127
 BYTE   W24
// 062   ----------------------------------------
 BYTE   As3  v116
 BYTE   N24  Dn4  v127
 BYTE   W24
 BYTE   Cn4  v116
 BYTE   N24  Ds4  v127
 BYTE   W24
 BYTE   Gn3  v116
 BYTE   N24  Dn4  v127
 BYTE   W24
 BYTE   N18  Gn3  v116
 BYTE   N18  Cn4  v127
 BYTE   W24
// 063   ----------------------------------------
 BYTE   N48  Fs3  v116
 BYTE   N48  As3  v127
 BYTE   W48
 BYTE   N12  Fs3  v116
 BYTE   N12  An3  v127
 BYTE   W12
 BYTE   Fs3  v116
 BYTE   N12  As3  v127
 BYTE   W12
 BYTE   N48  An3  v116
 BYTE   N48  Cn4  v127
 BYTE   W24
// 064   ----------------------------------------
 BYTE   W24
 BYTE   N12  Fs3  v116
 BYTE   N12  As3  v127
 BYTE   W12
 BYTE   An3  v116
 BYTE   N12  Cn4  v127
 BYTE   W12
 BYTE   N90  An3  v116
 BYTE   N90  Dn4  v127
 BYTE   W48
// 065   ----------------------------------------
 BYTE   W48
 BYTE   N24  An3  v116
 BYTE   N24  Ds4  v127
 BYTE   W24
 BYTE   An3  v116
 BYTE   N24  Cn4  v127
 BYTE   W24
// 066   ----------------------------------------
Label_0_013711BC:
 BYTE   N24  As3  v116
 BYTE   N24  Dn4  v127
 BYTE   W24
 BYTE   An3  v116
 BYTE   N24  Cn4  v127
 BYTE   W24
 BYTE   Gn3  v116
 BYTE   N24  As3  v127
 BYTE   W24
 BYTE   As2
 BYTE   N24  Dn3
 BYTE   W24
 BYTE   PEND 
// 067   ----------------------------------------
 BYTE   An2
 BYTE   N24  Cn3
 BYTE   W24
 BYTE   Gn2
 BYTE   N24  As2
 BYTE   W24
 BYTE   N18  Dn2
 BYTE   N18  An2
 BYTE   W24
 BYTE   N24  Gn3  v116
 BYTE   N24  As3  v127
 BYTE   W24
// 068   ----------------------------------------
 BYTE   PATT
  POIN2 Label_0_01371128
// 069   ----------------------------------------
 BYTE   PATT
  POIN2 Label_0_013711BC
// 070   ----------------------------------------
 BYTE   N24  An2  v127
 BYTE   N24  Cn3
 BYTE   W24
 BYTE   Gn2
 BYTE   N24  As2
 BYTE   W24
 BYTE   N18  Gn2
 BYTE   N18  Cn3
 BYTE   W24
 BYTE   N24  Gn3  v116
 BYTE   N24  Cn4  v127
 BYTE   W24
// 071   ----------------------------------------
 BYTE   As3  v116
 BYTE   N24  Dn4  v127
 BYTE   W24
 BYTE   Cn4  v116
 BYTE   N24  Ds4  v127
 BYTE   W24
 BYTE   Dn4  v116
 BYTE   N24  Fn4  v127
 BYTE   W24
 BYTE   Gn3  v116
 BYTE   N24  Dn4  v127
 BYTE   W24
// 072   ----------------------------------------
 BYTE   N48  An3  v116
 BYTE   N48  Cs4  v127
 BYTE   W02
 BYTE   W03
 BYTE   W02
 BYTE   W03
 BYTE   W02
 BYTE   W03
 BYTE   W03
 BYTE   W02
 BYTE   W03
 BYTE   W02
 BYTE   W03
 BYTE   W03
 BYTE   W02
 BYTE   W03
 BYTE   W02
 BYTE   W03
 BYTE   W03
 BYTE   W02
 BYTE   W02
 BYTE   N24  An3  v116
 BYTE   N24  Dn4  v127
 BYTE   W01
 BYTE   W02
 BYTE   W03
 BYTE   W03
 BYTE   W02
 BYTE   W03
 BYTE   W02
 BYTE   W03
 BYTE   W03
 BYTE   W02
 BYTE   N48  Cs4  v116
 BYTE   N48  En4  v127
 BYTE   W03
 BYTE   W02
 BYTE   W03
 BYTE   W03
 BYTE   W02
 BYTE   W03
 BYTE   W02
 BYTE   W03
 BYTE   W03
// 073   ----------------------------------------
 BYTE   W24
 BYTE   N24  Dn4  v116
 BYTE   N24  Fn4  v127
 BYTE   W24
 BYTE   N90  En4  v116
 BYTE   N90  Gn4  v127
 BYTE   W48
// 074   ----------------------------------------
 BYTE   W48
 BYTE   N24  En4  v116
 BYTE   N24  An4  v127
 BYTE   W24
 BYTE   En4  v116
 BYTE   N24  As4  v127
 BYTE   W24
// 075   ----------------------------------------
 BYTE   N96  Dn4  v116
 BYTE   N96  An4  v127
 BYTE   W96
// 076   ----------------------------------------
 BYTE   N24  Dn4  v112
 BYTE   N24  Gn4  v120
 BYTE   W24
 BYTE   Dn4  v112
 BYTE   N24  Fn4  v120
 BYTE   W24
 BYTE   N96  An3  v108
 BYTE   N96  En4  v116
 BYTE   W48
// 077   ----------------------------------------
 BYTE   W48
 BYTE   N24  An3  v100
 BYTE   N24  Fn4  v112
 BYTE   W24
 BYTE   An3  v100
 BYTE   N24  Dn4  v112
 BYTE   W24
// 078   ----------------------------------------
 BYTE   N96  Fn3  v096
 BYTE   N96  An3  v108
 BYTE   W96
// 079   ----------------------------------------
 BYTE   N24  En3  v092
 BYTE   N24  Gn3  v100
 BYTE   W24
 BYTE   Dn3  v092
 BYTE   N24  Fn3  v100
 BYTE   W24
 BYTE   TIE  Cn3  v088
 BYTE   TIE  En3  v096
 BYTE   W48
// 080   ----------------------------------------
 BYTE   W24
 BYTE   W01
 BYTE   W01
 BYTE   W01
 BYTE   W01
 BYTE   W01
 BYTE   W01
 BYTE   W01
 BYTE   W01
 BYTE   W01
 BYTE   W01
 BYTE   W01
 BYTE   W01
 BYTE   W01
 BYTE   W01
 BYTE   W01
 BYTE   W01
 BYTE   W01
 BYTE   W01
 BYTE   W01
 BYTE   W01
 BYTE   W01
 BYTE   W01
 BYTE   W01
 BYTE   W01
 BYTE   W01
 BYTE   W01
 BYTE   W01
 BYTE   W01
 BYTE   W01
 BYTE   W01
 BYTE   W01
 BYTE   W01
 BYTE   W01
 BYTE   W01
 BYTE   W01
 BYTE   W01
 BYTE   W01
 BYTE   W01
 BYTE   W01
 BYTE   W01
 BYTE   W01
 BYTE   W01
 BYTE   W01
 BYTE   W01
 BYTE   W01
 BYTE   W01
 BYTE   W01
 BYTE   W01
 BYTE   W01
 BYTE   W01
 BYTE   W01
 BYTE   W01
 BYTE   W01
 BYTE   W01
 BYTE   W01
 BYTE   W01
 BYTE   W01
 BYTE   W01
 BYTE   W01
 BYTE   W01
 BYTE   W01
 BYTE   W01
 BYTE   W01
 BYTE   W01
 BYTE   W01
 BYTE   W01
 BYTE   W01
 BYTE   W01
 BYTE   W01
 BYTE   W01
 BYTE   W01
 BYTE   W01
// 081   ----------------------------------------
 BYTE   EOT
 BYTE   Cn3  v064
 BYTE   GoTo
  POIN2 Label_0_01371009
// 082   ----------------------------------------
 BYTE   W07
 BYTE   FINE

//**************** Track 2 (Midi-Chn.1) ****************//

CouragePrayer_002:
// 000   ----------------------------------------
 BYTE   KEYSH   CouragePrayer_key+0
 BYTE   VOICE   60
 BYTE   VOL   30*CouragePrayer_mvl/mxv
 BYTE   PAN   c_v+0
 BYTE   W96
// 001   ----------------------------------------
 BYTE   W96
// 002   ----------------------------------------
 BYTE   W96
// 003   ----------------------------------------
Label_1_01372BAF:
 BYTE   W96
// 004   ----------------------------------------
 BYTE   W96
// 005   ----------------------------------------
 BYTE   W96
// 006   ----------------------------------------
 BYTE   N36  En2  v120
 BYTE   W36
 BYTE   Dn2
 BYTE   W36
 BYTE   N96  An2
 BYTE   W24
// 007   ----------------------------------------
 BYTE   W72
 BYTE   N24  Gn2
 BYTE   W24
// 008   ----------------------------------------
Label_1_01372BBF:
 BYTE   N24  Fn2  v120
 BYTE   W24
 BYTE   N66  En2
 BYTE   W72
 BYTE   PEND 
// 009   ----------------------------------------
Label_1_01372BC7:
 BYTE   N48  En2  v120
 BYTE   W48
 BYTE   N12  Dn2
 BYTE   W12
 BYTE   En2
 BYTE   W12
 BYTE   N96  Fn2
 BYTE   W24
 BYTE   PEND 
// 010   ----------------------------------------
 BYTE   W72
 BYTE   N24  En2
 BYTE   W24
// 011   ----------------------------------------
Label_1_01372BD8:
 BYTE   N24  Dn2  v120
 BYTE   W24
 BYTE   N72  An1
 BYTE   W48
 BYTE   W01
 BYTE   W01
 BYTE   W01
 BYTE   W01
 BYTE   W01
 BYTE   W01
 BYTE   W01
 BYTE   W01
 BYTE   W01
 BYTE   W01
 BYTE   W01
 BYTE   W01
 BYTE   W01
 BYTE   W01
 BYTE   W01
 BYTE   W01
 BYTE   W01
 BYTE   W01
 BYTE   W01
 BYTE   W01
 BYTE   W01
 BYTE   W01
 BYTE   W01
 BYTE   W01
 BYTE   PEND 
// 012   ----------------------------------------
 BYTE   W72
 BYTE   W24
// 013   ----------------------------------------
 BYTE   W96
// 014   ----------------------------------------
 BYTE   W96
// 015   ----------------------------------------
 BYTE   N48  Gs1  v068
 BYTE   W48
 BYTE   N24  Gs1  v060
 BYTE   N24  Cn2  v068
 BYTE   W24
 BYTE   N48  Cn2  v060
 BYTE   N48  Ds2  v068
 BYTE   W24
// 016   ----------------------------------------
 BYTE   W24
 BYTE   N24  Cn2
 BYTE   N24  Gs2  v060
 BYTE   W24
 BYTE   TIE  Dn2
 BYTE   TIE  Gn2  v068
 BYTE   W48
// 017   ----------------------------------------
 BYTE   W48
 BYTE   W01
 BYTE   W01
 BYTE   W01
 BYTE   W01
 BYTE   W01
 BYTE   W01
 BYTE   W01
 BYTE   W01
 BYTE   W01
 BYTE   W01
 BYTE   W01
 BYTE   W01
 BYTE   W01
 BYTE   W01
 BYTE   W01
 BYTE   W01
 BYTE   W01
 BYTE   W01
 BYTE   W01
 BYTE   W01
 BYTE   W01
 BYTE   W01
 BYTE   W01
 BYTE   W01
 BYTE   W01
 BYTE   W01
 BYTE   W01
 BYTE   W01
 BYTE   W01
 BYTE   W01
 BYTE   W01
 BYTE   W01
 BYTE   W01
 BYTE   W01
 BYTE   W01
 BYTE   W01
 BYTE   W01
 BYTE   W01
 BYTE   W01
 BYTE   W01
 BYTE   W01
 BYTE   W01
 BYTE   W01
 BYTE   W01
 BYTE   W01
 BYTE   W01
 BYTE   W01
 BYTE   W01
// 018   ----------------------------------------
 BYTE   EOT
 BYTE   Dn2  v055
 BYTE   W72
 BYTE   W24
// 019   ----------------------------------------
 BYTE   W96
// 020   ----------------------------------------
 BYTE   W96
// 021   ----------------------------------------
 BYTE   W96
// 022   ----------------------------------------
 BYTE   W96
// 023   ----------------------------------------
 BYTE   W96
// 024   ----------------------------------------
 BYTE   N36  En2  v120
 BYTE   W36
 BYTE   Dn2
 BYTE   W36
 BYTE   N96  An2
 BYTE   W24
// 025   ----------------------------------------
 BYTE   W72
 BYTE   N24  Gn2
 BYTE   W24
// 026   ----------------------------------------
 BYTE   PATT
  POIN2 Label_1_01372BBF
// 027   ----------------------------------------
 BYTE   PATT
  POIN2 Label_1_01372BC7
// 028   ----------------------------------------
 BYTE   W72
 BYTE   N24  En2  v120
 BYTE   W24
// 029   ----------------------------------------
 BYTE   PATT
  POIN2 Label_1_01372BD8
// 030   ----------------------------------------
 BYTE   W72
 BYTE   W24
// 031   ----------------------------------------
 BYTE   W96
// 032   ----------------------------------------
 BYTE   W96
// 033   ----------------------------------------
 BYTE   N72  Gn3  v100
 BYTE   N24  Cn4  v120
 BYTE   W24
 BYTE   As3
 BYTE   W24
 BYTE   An3
 BYTE   W24
 BYTE   N48  Gn3  v100
 BYTE   N48  As3  v120
 BYTE   W24
// 034   ----------------------------------------
 BYTE   W24
 BYTE   N24  Dn3  v100
 BYTE   N24  Gn3  v120
 BYTE   W24
 BYTE   Dn3  v100
 BYTE   N24  Fn3  v120
 BYTE   W24
 BYTE   En3  v100
 BYTE   N24  Gn3  v120
 BYTE   W24
// 035   ----------------------------------------
 BYTE   Fn3  v100
 BYTE   N24  An3  v120
 BYTE   W24
 BYTE   N48  En3  v100
 BYTE   N48  Gn3  v120
 BYTE   W48
 BYTE   N24  Cn3  v100
 BYTE   N24  En3  v120
 BYTE   W24
// 036   ----------------------------------------
 BYTE   N12  An2  v127
 BYTE   N12  Dn3
 BYTE   W24
 BYTE   An2
 BYTE   N12  Dn3
 BYTE   W24
 BYTE   N08  An2
 BYTE   N08  Dn3
 BYTE   W12
 BYTE   N12  An2
 BYTE   N12  Dn3
 BYTE   W12
 BYTE   An2
 BYTE   N12  Dn3
 BYTE   N12  En3
 BYTE   W24
// 037   ----------------------------------------
 BYTE   An2
 BYTE   N12  Dn3
 BYTE   N12  En3
 BYTE   W24
 BYTE   N08  An2
 BYTE   N08  Dn3
 BYTE   N08  En3
 BYTE   W12
 BYTE   N12  An2
 BYTE   N12  Dn3
 BYTE   N12  En3
 BYTE   W12
 BYTE   N12
 BYTE   N12  Fn3
 BYTE   N12  An3
 BYTE   W24
 BYTE   En3
 BYTE   N12  Fn3
 BYTE   N12  An3
 BYTE   W24
// 038   ----------------------------------------
 BYTE   N08  En3
 BYTE   N08  Fn3
 BYTE   N08  An3
 BYTE   W12
 BYTE   N12  En3
 BYTE   N12  Fn3
 BYTE   N12  An3
 BYTE   W12
 BYTE   En3
 BYTE   N12  Fn3
 BYTE   N12  Cn4
 BYTE   W24
 BYTE   En3
 BYTE   N12  Fn3
 BYTE   N12  Cn4
 BYTE   W24
 BYTE   N08  En3
 BYTE   N08  Fn3
 BYTE   N08  Cn4
 BYTE   W12
 BYTE   N12  En3
 BYTE   N12  Fn3
 BYTE   N12  Cn4
 BYTE   W12
// 039   ----------------------------------------
 BYTE   W96
// 040   ----------------------------------------
 BYTE   W96
// 041   ----------------------------------------
 BYTE   W96
// 042   ----------------------------------------
 BYTE   W96
// 043   ----------------------------------------
 BYTE   W96
// 044   ----------------------------------------
 BYTE   W96
// 045   ----------------------------------------
 BYTE   W96
// 046   ----------------------------------------
 BYTE   W96
// 047   ----------------------------------------
 BYTE   W96
// 048   ----------------------------------------
 BYTE   W96
// 049   ----------------------------------------
 BYTE   W96
// 050   ----------------------------------------
 BYTE   W96
// 051   ----------------------------------------
 BYTE   W96
// 052   ----------------------------------------
 BYTE   W96
// 053   ----------------------------------------
 BYTE   W96
// 054   ----------------------------------------
 BYTE   W96
// 055   ----------------------------------------
 BYTE   W96
// 056   ----------------------------------------
 BYTE   W48
 BYTE   N24  Dn3
 BYTE   W24
 BYTE   Ds3
 BYTE   W24
// 057   ----------------------------------------
Label_1_01372D2E:
 BYTE   N24  Dn3  v127
 BYTE   W24
 BYTE   Cn3
 BYTE   W24
 BYTE   As2
 BYTE   W24
 BYTE   N90  An2
 BYTE   W24
 BYTE   PEND 
// 058   ----------------------------------------
 BYTE   W72
 BYTE   N24  As2
 BYTE   W24
// 059   ----------------------------------------
Label_1_01372D3E:
 BYTE   N24  Cn3  v127
 BYTE   W24
 BYTE   As2
 BYTE   W24
 BYTE   N18  An2
 BYTE   W24
 BYTE   N24  Dn2
 BYTE   W24
 BYTE   PEND 
// 060   ----------------------------------------
Label_1_01372D4B:
 BYTE   N24  Dn3  v127
 BYTE   W24
 BYTE   Cn3
 BYTE   W24
 BYTE   As2
 BYTE   W24
 BYTE   N90  Cn3
 BYTE   W24
 BYTE   PEND 
// 061   ----------------------------------------
 BYTE   W72
 BYTE   N24
 BYTE   W24
// 062   ----------------------------------------
 BYTE   Dn3
 BYTE   W24
 BYTE   Ds3
 BYTE   W24
 BYTE   Dn3
 BYTE   W24
 BYTE   N18  Cn3
 BYTE   W24
// 063   ----------------------------------------
 BYTE   N48  As2
 BYTE   W48
 BYTE   N12  An2
 BYTE   W12
 BYTE   As2
 BYTE   W12
 BYTE   N48  Cn3
 BYTE   W24
// 064   ----------------------------------------
 BYTE   W24
 BYTE   N12  As2
 BYTE   W12
 BYTE   Cn3
 BYTE   W12
 BYTE   N90  Dn3
 BYTE   W48
// 065   ----------------------------------------
 BYTE   W48
 BYTE   N24  Ds3
 BYTE   W24
 BYTE   Cn3
 BYTE   W24
// 066   ----------------------------------------
 BYTE   PATT
  POIN2 Label_1_01372D2E
// 067   ----------------------------------------
 BYTE   W72
 BYTE   N24  As2  v127
 BYTE   W24
// 068   ----------------------------------------
 BYTE   PATT
  POIN2 Label_1_01372D3E
// 069   ----------------------------------------
 BYTE   PATT
  POIN2 Label_1_01372D4B
// 070   ----------------------------------------
 BYTE   W72
 BYTE   N24  Cn3  v127
 BYTE   W24
// 071   ----------------------------------------
 BYTE   Dn3
 BYTE   W24
 BYTE   Ds3
 BYTE   W24
 BYTE   Fn3
 BYTE   W24
 BYTE   Dn3
 BYTE   W24
// 072   ----------------------------------------
 BYTE   N48  Cs3
 BYTE   W02
 BYTE   W03
 BYTE   W02
 BYTE   W03
 BYTE   W02
 BYTE   W03
 BYTE   W03
 BYTE   W02
 BYTE   W03
 BYTE   W02
 BYTE   W03
 BYTE   W03
 BYTE   W02
 BYTE   W03
 BYTE   W02
 BYTE   W03
 BYTE   W03
 BYTE   W02
 BYTE   W02
 BYTE   N24  Dn3
 BYTE   W01
 BYTE   W02
 BYTE   W03
 BYTE   W03
 BYTE   W02
 BYTE   W03
 BYTE   W02
 BYTE   W03
 BYTE   W03
 BYTE   W02
 BYTE   N48  En3
 BYTE   W03
 BYTE   W02
 BYTE   W03
 BYTE   W03
 BYTE   W02
 BYTE   W03
 BYTE   W02
 BYTE   W03
 BYTE   W03
// 073   ----------------------------------------
 BYTE   W24
 BYTE   N24  Fn3
 BYTE   W24
 BYTE   N90  Gn3
 BYTE   W48
// 074   ----------------------------------------
 BYTE   W48
 BYTE   N24  An3
 BYTE   W24
 BYTE   As3
 BYTE   W24
// 075   ----------------------------------------
 BYTE   N96  An3
 BYTE   W24
 BYTE   W01
 BYTE   W01
 BYTE   W01
 BYTE   W01
 BYTE   W01
 BYTE   W01
 BYTE   W02
 BYTE   W01
 BYTE   W01
 BYTE   W01
 BYTE   W01
 BYTE   W01
 BYTE   W01
 BYTE   W02
 BYTE   W01
 BYTE   W01
 BYTE   W01
 BYTE   W01
 BYTE   W01
 BYTE   W01
 BYTE   W02
 BYTE   W01
 BYTE   W01
 BYTE   W01
 BYTE   W01
 BYTE   W01
 BYTE   W01
 BYTE   W02
 BYTE   W01
 BYTE   W01
 BYTE   W01
 BYTE   W01
 BYTE   W01
 BYTE   W01
 BYTE   W02
 BYTE   W01
 BYTE   W01
 BYTE   W01
 BYTE   W01
 BYTE   W01
 BYTE   W01
 BYTE   W02
 BYTE   W01
 BYTE   W01
 BYTE   W01
 BYTE   W01
 BYTE   W01
 BYTE   W01
 BYTE   W01
 BYTE   W01
 BYTE   W01
 BYTE   W01
 BYTE   W01
 BYTE   W01
 BYTE   W01
 BYTE   W01
 BYTE   W01
 BYTE   W01
 BYTE   W01
 BYTE   W01
 BYTE   W01
 BYTE   W01
 BYTE   W01
 BYTE   W01
 BYTE   W01
 BYTE   W01
// 076   ----------------------------------------
 BYTE   W96
// 077   ----------------------------------------
 BYTE   W24
 BYTE   W72
// 078   ----------------------------------------
 BYTE   W96
// 079   ----------------------------------------
 BYTE   W96
// 080   ----------------------------------------
 BYTE   W96
// 081   ----------------------------------------
 BYTE   GoTo
  POIN2 Label_1_01372BAF
// 082   ----------------------------------------
 BYTE   W07
 BYTE   FINE

//**************** Track 3 (Midi-Chn.2) ****************//

CouragePrayer_003:
// 000   ----------------------------------------
 BYTE   KEYSH   CouragePrayer_key+0
 BYTE   VOICE   71
 BYTE   VOL   21*CouragePrayer_mvl/mxv
 BYTE   PAN   c_v+6
 BYTE   W96
// 001   ----------------------------------------
 BYTE   W96
// 002   ----------------------------------------
Label_2_01371316:
 BYTE   W48
 BYTE   N48  An3  v096
 BYTE   N24  Dn4  v108
 BYTE   W24
 BYTE   En4  v112
 BYTE   W24
 BYTE   PEND 
// 003   ----------------------------------------
Label_2_01371322:
 BYTE   N36  Dn4  v108
 BYTE   N36  Fn4  v116
 BYTE   W36
 BYTE   N12  An3  v100
 BYTE   N12  En4  v112
 BYTE   W12
 BYTE   N24  An3  v096
 BYTE   N24  Dn4  v108
 BYTE   W24
 BYTE   TIE  An3
 BYTE   W24
 BYTE   PEND 
// 004   ----------------------------------------
Label_2_0137133B:
 BYTE   W48
 BYTE   W01
 BYTE   W01
 BYTE   W02
 BYTE   W01
 BYTE   W01
 BYTE   W02
 BYTE   W01
 BYTE   W01
 BYTE   W02
 BYTE   W01
 BYTE   W01
 BYTE   W01
 BYTE   W02
 BYTE   W01
 BYTE   W01
 BYTE   W02
 BYTE   W01
 BYTE   W01
 BYTE   W02
 BYTE   W01
 BYTE   W01
 BYTE   W01
 BYTE   W02
 BYTE   W01
 BYTE   W01
 BYTE   W02
 BYTE   W01
 BYTE   W01
 BYTE   W02
 BYTE   W01
 BYTE   W01
 BYTE   W02
 BYTE   W01
 BYTE   W01
 BYTE   W01
 BYTE   W02
 BYTE   W01
 BYTE   PEND 
// 005   ----------------------------------------
Label_2_01371362:
 BYTE   W01
 BYTE   W02
 BYTE   W01
 BYTE   W01
 BYTE   W02
 BYTE   W01
 BYTE   W01
 BYTE   W01
 BYTE   W02
 BYTE   W01
 BYTE   W01
 BYTE   W02
 BYTE   W01
 BYTE   W01
 BYTE   W02
 BYTE   W01
 BYTE   W01
 BYTE   W01
 BYTE   W01
 BYTE   PEND 
 BYTE   EOT
 BYTE   An3
 BYTE   W72
// 006   ----------------------------------------
 BYTE   W96
// 007   ----------------------------------------
 BYTE   W96
// 008   ----------------------------------------
 BYTE   W96
// 009   ----------------------------------------
 BYTE   W96
// 010   ----------------------------------------
 BYTE   W96
// 011   ----------------------------------------
Label_2_0137137E:
 BYTE   W48
 BYTE   N08  Fn3  v096
 BYTE   W08
 BYTE   Gn3  v100
 BYTE   W08
 BYTE   An3  v108
 BYTE   W08
 BYTE   As3  v112
 BYTE   W08
 BYTE   Cn4  v116
 BYTE   W08
 BYTE   Dn4  v120
 BYTE   W08
 BYTE   PEND 
// 012   ----------------------------------------
Label_2_01371393:
 BYTE   N48  En4  v112
 BYTE   W48
 BYTE   N12  Dn4
 BYTE   W12
 BYTE   En4
 BYTE   W12
 BYTE   N24  Fn4
 BYTE   W24
 BYTE   PEND 
// 013   ----------------------------------------
Label_2_013713A0:
 BYTE   N24  En4  v112
 BYTE   W24
 BYTE   Dn4
 BYTE   W24
 BYTE   N48  An4
 BYTE   W48
 BYTE   PEND 
// 014   ----------------------------------------
Label_2_013713AA:
 BYTE   N24  En4  v112
 BYTE   W24
 BYTE   N66  Dn4
 BYTE   W72
 BYTE   PEND 
// 015   ----------------------------------------
 BYTE   N72  Gs3  v092
 BYTE   N48  Dn4  v112
 BYTE   W48
 BYTE   N24  Cn4
 BYTE   W24
 BYTE   N48  Ds3  v092
 BYTE   N48  Gn3  v112
 BYTE   W24
// 016   ----------------------------------------
 BYTE   W24
 BYTE   N24  Gs3  v092
 BYTE   N24  Cn4  v112
 BYTE   W24
 BYTE   N72  Dn3  v092
 BYTE   N48  An3  v112
 BYTE   W48
// 017   ----------------------------------------
 BYTE   N12  Gn3
 BYTE   W12
 BYTE   An3
 BYTE   W12
 BYTE   N72  Gn3  v092
 BYTE   N72  Dn4  v112
 BYTE   W60
 BYTE   W01
 BYTE   W01
 BYTE   W01
 BYTE   W01
 BYTE   W01
 BYTE   W01
 BYTE   W01
 BYTE   W01
 BYTE   W01
 BYTE   W01
 BYTE   W01
 BYTE   W01
// 018   ----------------------------------------
 BYTE   W72
 BYTE   W24
// 019   ----------------------------------------
 BYTE   W96
// 020   ----------------------------------------
 BYTE   PATT
  POIN2 Label_2_01371316
// 021   ----------------------------------------
 BYTE   PATT
  POIN2 Label_2_01371322
// 022   ----------------------------------------
 BYTE   PATT
  POIN2 Label_2_0137133B
// 023   ----------------------------------------
 BYTE   PATT
  POIN2 Label_2_01371362
// 024   ----------------------------------------
 BYTE   EOT
 BYTE   An3
 BYTE   W72
 BYTE   W96
// 025   ----------------------------------------
 BYTE   W96
// 026   ----------------------------------------
 BYTE   W96
// 027   ----------------------------------------
 BYTE   W96
// 028   ----------------------------------------
 BYTE   W96
// 029   ----------------------------------------
 BYTE   PATT
  POIN2 Label_2_0137137E
// 030   ----------------------------------------
 BYTE   PATT
  POIN2 Label_2_01371393
// 031   ----------------------------------------
 BYTE   PATT
  POIN2 Label_2_013713A0
// 032   ----------------------------------------
 BYTE   PATT
  POIN2 Label_2_013713AA
// 033   ----------------------------------------
 BYTE   N24  Cn5  v108
 BYTE   W24
 BYTE   As4
 BYTE   W24
 BYTE   An4
 BYTE   W24
 BYTE   N48  As4
 BYTE   W24
// 034   ----------------------------------------
 BYTE   W24
 BYTE   N24  Gn4
 BYTE   W24
 BYTE   Fn4
 BYTE   W24
 BYTE   Gn4
 BYTE   W24
// 035   ----------------------------------------
 BYTE   An4
 BYTE   W24
 BYTE   N48  Gn4
 BYTE   W48
 BYTE   N24  En4
 BYTE   W24
// 036   ----------------------------------------
 BYTE   TIE  Dn4  v096
 BYTE   W96
// 037   ----------------------------------------
 BYTE   W24
 BYTE   W01
 BYTE   W01
 BYTE   W01
 BYTE   W01
 BYTE   W02
 BYTE   W01
 BYTE   W01
 BYTE   W01
 BYTE   W01
 BYTE   W01
 BYTE   W01
 BYTE   W01
 BYTE   W01
 BYTE   W01
 BYTE   W01
 BYTE   W01
 BYTE   W01
 BYTE   W01
 BYTE   W01
 BYTE   W01
 BYTE   W02
 BYTE   W01
 BYTE   W01
 BYTE   W01
 BYTE   W01
 BYTE   W01
 BYTE   W01
 BYTE   W01
 BYTE   W01
 BYTE   W01
 BYTE   W01
 BYTE   W01
 BYTE   W01
 BYTE   W01
 BYTE   W01
 BYTE   W01
 BYTE   W02
 BYTE   W01
 BYTE   W01
 BYTE   W01
 BYTE   W01
 BYTE   W01
 BYTE   W01
 BYTE   W01
 BYTE   W01
 BYTE   W01
 BYTE   W01
 BYTE   W02
 BYTE   W01
 BYTE   W01
 BYTE   W01
 BYTE   W02
 BYTE   W01
 BYTE   W01
 BYTE   W01
 BYTE   W01
 BYTE   W01
 BYTE   W01
 BYTE   W01
 BYTE   W01
 BYTE   W01
 BYTE   W01
 BYTE   W02
 BYTE   W01
 BYTE   W01
 BYTE   W01
// 038   ----------------------------------------
 BYTE   W02
 BYTE   W01
 BYTE   W01
 BYTE   W01
 BYTE   W01
 BYTE   W01
 BYTE   W01
 BYTE   W01
 BYTE   W01
 BYTE   W01
 BYTE   W01
 BYTE   W02
 BYTE   W01
 BYTE   W01
 BYTE   W01
 BYTE   W02
 BYTE   W01
 BYTE   W01
 BYTE   W01
 BYTE   W01
 BYTE   W01
 BYTE   EOT
 BYTE   W48
 BYTE   N24  Gn3  v112
 BYTE   W01
 BYTE   W01
 BYTE   W02
 BYTE   W01
 BYTE   W02
 BYTE   W01
 BYTE   W01
 BYTE   W02
 BYTE   W01
 BYTE   W02
 BYTE   W01
 BYTE   W01
 BYTE   W02
 BYTE   W01
 BYTE   W02
 BYTE   W01
 BYTE   W02
// 039   ----------------------------------------
 BYTE   N36  An3  v116
 BYTE   W36
 BYTE   N60  Dn3
 BYTE   W60
// 040   ----------------------------------------
 BYTE   N24  Ds3
 BYTE   W24
 BYTE   Cn4
 BYTE   W24
 BYTE   N48  An3
 BYTE   W48
// 041   ----------------------------------------
 BYTE   N12  Gn3
 BYTE   W12
 BYTE   An3
 BYTE   W12
 BYTE   N24  Dn3
 BYTE   W24
 BYTE   Ds3
 BYTE   W24
 BYTE   N18  Cn4
 BYTE   W24
// 042   ----------------------------------------
 BYTE   N36  An3
 BYTE   W36
 BYTE   N54  Dn3
 BYTE   W60
// 043   ----------------------------------------
 BYTE   N24  Fn3
 BYTE   W24
 BYTE   Gn3
 BYTE   W24
 BYTE   TIE  An3
 BYTE   W48
// 044   ----------------------------------------
 BYTE   W84
 BYTE   EOT
 BYTE   W12
// 045   ----------------------------------------
 BYTE   N36  Ds3  v100
 BYTE   N36  An3  v116
 BYTE   W36
 BYTE   N60  As2  v100
 BYTE   N60  Dn3  v116
 BYTE   W60
// 046   ----------------------------------------
 BYTE   N24  As2  v100
 BYTE   N24  Ds3  v116
 BYTE   W24
 BYTE   Ds3  v100
 BYTE   N24  Cn4  v116
 BYTE   W24
 BYTE   N48  Ds3  v100
 BYTE   N48  An3  v116
 BYTE   W48
// 047   ----------------------------------------
 BYTE   N12  Ds3  v100
 BYTE   N12  Gn3  v116
 BYTE   W12
 BYTE   Ds3  v100
 BYTE   N12  An3  v116
 BYTE   W12
 BYTE   N42  Gn3  v100
 BYTE   N42  Dn4  v116
 BYTE   W48
 BYTE   N24  An3  v100
 BYTE   N24  Ds4  v116
 BYTE   W24
// 048   ----------------------------------------
 BYTE   N48  As3  v100
 BYTE   N48  Dn4  v116
 BYTE   W48
 BYTE   N12  An3  v100
 BYTE   N12  Cn4  v116
 BYTE   W12
 BYTE   Fn3  v100
 BYTE   N12  As3  v116
 BYTE   W12
 BYTE   N48  Fn3  v100
 BYTE   N48  An3  v116
 BYTE   W24
// 049   ----------------------------------------
 BYTE   W24
 BYTE   N24  Ds3  v100
 BYTE   N24  Gn3  v116
 BYTE   W24
 BYTE   TIE  Fn3  v100
 BYTE   TIE  An3  v116
 BYTE   W48
// 050   ----------------------------------------
 BYTE   W84
 BYTE   EOT
 BYTE   Fn3  v069
 BYTE   W12
// 051   ----------------------------------------
 BYTE   W96
// 052   ----------------------------------------
 BYTE   W96
// 053   ----------------------------------------
 BYTE   W96
// 054   ----------------------------------------
 BYTE   W96
// 055   ----------------------------------------
 BYTE   W96
// 056   ----------------------------------------
 BYTE   W96
// 057   ----------------------------------------
 BYTE   W96
// 058   ----------------------------------------
 BYTE   W96
// 059   ----------------------------------------
 BYTE   W96
// 060   ----------------------------------------
 BYTE   W96
// 061   ----------------------------------------
 BYTE   W96
// 062   ----------------------------------------
 BYTE   W96
// 063   ----------------------------------------
 BYTE   W96
// 064   ----------------------------------------
 BYTE   W96
// 065   ----------------------------------------
 BYTE   W96
// 066   ----------------------------------------
 BYTE   W72
 BYTE   N24  Dn5  v100
 BYTE   W24
// 067   ----------------------------------------
 BYTE   Cn5
 BYTE   W24
 BYTE   As4
 BYTE   W24
 BYTE   N72  An4
 BYTE   W48
// 068   ----------------------------------------
 BYTE   W24
 BYTE   N24  As4
 BYTE   W24
 BYTE   N18  An4
 BYTE   W24
 BYTE   N24  Dn4
 BYTE   W24
// 069   ----------------------------------------
 BYTE   N66
 BYTE   W72
 BYTE   N24  Dn5
 BYTE   W24
// 070   ----------------------------------------
 BYTE   Cn5
 BYTE   W24
 BYTE   As4
 BYTE   W24
 BYTE   N72  Cn5
 BYTE   W48
// 071   ----------------------------------------
 BYTE   W24
 BYTE   N24  Ds5
 BYTE   W24
 BYTE   Fn5
 BYTE   W24
 BYTE   Dn5
 BYTE   W24
// 072   ----------------------------------------
 BYTE   N48  Cs4  v116
 BYTE   W02
 BYTE   W03
 BYTE   W02
 BYTE   W03
 BYTE   W02
 BYTE   W03
 BYTE   W03
 BYTE   W02
 BYTE   W03
 BYTE   W02
 BYTE   W03
 BYTE   W03
 BYTE   W02
 BYTE   W03
 BYTE   W02
 BYTE   W03
 BYTE   W03
 BYTE   W02
 BYTE   W02
 BYTE   N24  Dn4
 BYTE   W01
 BYTE   W02
 BYTE   W03
 BYTE   W03
 BYTE   W02
 BYTE   W03
 BYTE   W02
 BYTE   W03
 BYTE   W03
 BYTE   W02
 BYTE   N48  En4
 BYTE   W03
 BYTE   W02
 BYTE   W03
 BYTE   W03
 BYTE   W02
 BYTE   W03
 BYTE   W02
 BYTE   W03
 BYTE   W03
// 073   ----------------------------------------
 BYTE   W24
 BYTE   N24  Fn4
 BYTE   W24
 BYTE   N90  Gn4
 BYTE   W48
// 074   ----------------------------------------
 BYTE   W48
 BYTE   N24  An4
 BYTE   W24
 BYTE   As4
 BYTE   W24
// 075   ----------------------------------------
 BYTE   N96  An4  v112
 BYTE   W24
 BYTE   W01
 BYTE   W01
 BYTE   W01
 BYTE   W01
 BYTE   W01
 BYTE   W01
 BYTE   W02
 BYTE   W01
 BYTE   W01
 BYTE   W01
 BYTE   W01
 BYTE   W01
 BYTE   W01
 BYTE   W02
 BYTE   W01
 BYTE   W01
 BYTE   W01
 BYTE   W01
 BYTE   W01
 BYTE   W01
 BYTE   W02
 BYTE   W01
 BYTE   W01
 BYTE   W01
 BYTE   W01
 BYTE   W01
 BYTE   W01
 BYTE   W02
 BYTE   W01
 BYTE   W01
 BYTE   W01
 BYTE   W01
 BYTE   W01
 BYTE   W01
 BYTE   W02
 BYTE   W01
 BYTE   W01
 BYTE   W01
 BYTE   W01
 BYTE   W01
 BYTE   W01
 BYTE   W02
 BYTE   W01
 BYTE   W01
 BYTE   W01
 BYTE   W01
 BYTE   W01
 BYTE   W01
 BYTE   W01
 BYTE   W01
 BYTE   W01
 BYTE   W01
 BYTE   W01
 BYTE   W01
 BYTE   W01
 BYTE   W01
 BYTE   W01
 BYTE   W01
 BYTE   W01
 BYTE   W01
 BYTE   W01
 BYTE   W01
 BYTE   W01
 BYTE   W01
 BYTE   W01
 BYTE   W01
// 076   ----------------------------------------
 BYTE   W96
// 077   ----------------------------------------
 BYTE   W24
 BYTE   W72
// 078   ----------------------------------------
 BYTE   W96
// 079   ----------------------------------------
 BYTE   W96
// 080   ----------------------------------------
 BYTE   W48
 BYTE   N48  An3  v100
 BYTE   N24  Dn4  v112
 BYTE   W24
 BYTE   En4  v116
 BYTE   W24
// 081   ----------------------------------------
 BYTE   GoTo
  POIN2 Label_2_01371322
// 082   ----------------------------------------
 BYTE   W07
 BYTE   FINE

//**************** Track 4 (Midi-Chn.3) ****************//

CouragePrayer_004:
// 000   ----------------------------------------
 BYTE   KEYSH   CouragePrayer_key+0
 BYTE   VOICE   71
 BYTE   VOL   21*CouragePrayer_mvl/mxv
 BYTE   PAN   c_v+0
 BYTE   W96
// 001   ----------------------------------------
 BYTE   W96
// 002   ----------------------------------------
 BYTE   W96
// 003   ----------------------------------------
Label_3_01315C67:
 BYTE   W72
 BYTE   N72  Fn3  v096
 BYTE   W24
// 004   ----------------------------------------
Label_3_01315C6C:
 BYTE   W48
 BYTE   N24  En3  v096
 BYTE   W24
 BYTE   N48  An2  v112
 BYTE   N24  En3  v120
 BYTE   W24
 BYTE   PEND 
// 005   ----------------------------------------
Label_3_01315C79:
 BYTE   N24  Dn3  v112
 BYTE   W24
 BYTE   N72  En2  v096
 BYTE   N48  An2  v108
 BYTE   W48
 BYTE   N24  Gn2  v100
 BYTE   W24
 BYTE   PEND 
// 006   ----------------------------------------
Label_3_01315C89:
 BYTE   TIE  Fn2  v096
 BYTE   TIE  An2  v108
 BYTE   W72
 BYTE   W01
 BYTE   W01
 BYTE   W02
 BYTE   W01
 BYTE   W01
 BYTE   W02
 BYTE   W01
 BYTE   W01
 BYTE   W02
 BYTE   W01
 BYTE   W01
 BYTE   W01
 BYTE   W02
 BYTE   W01
 BYTE   W01
 BYTE   W02
 BYTE   W01
 BYTE   W01
 BYTE   W01
 BYTE   PEND 
// 007   ----------------------------------------
Label_3_01315CA4:
 BYTE   W01
 BYTE   W01
 BYTE   W01
 BYTE   W01
 BYTE   W02
 BYTE   W01
 BYTE   W01
 BYTE   W02
 BYTE   W01
 BYTE   W01
 BYTE   W02
 BYTE   W01
 BYTE   W01
 BYTE   W02
 BYTE   W01
 BYTE   W01
 BYTE   W01
 BYTE   W02
 BYTE   W01
 BYTE   W01
 BYTE   W02
 BYTE   W01
 BYTE   W01
 BYTE   W02
 BYTE   W01
 BYTE   W01
 BYTE   W01
 BYTE   W02
 BYTE   W01
 BYTE   W01
 BYTE   W02
 BYTE   W01
 BYTE   W01
 BYTE   W02
 BYTE   W01
 BYTE   W01
 BYTE   W01
 BYTE   W01
 BYTE   PEND 
 BYTE   EOT
 BYTE   Fn2  v057
 BYTE   W48
// 008   ----------------------------------------
 BYTE   W24
 BYTE   W72
// 009   ----------------------------------------
 BYTE   W96
// 010   ----------------------------------------
 BYTE   W96
// 011   ----------------------------------------
 BYTE   W96
// 012   ----------------------------------------
 BYTE   W96
// 013   ----------------------------------------
 BYTE   W96
// 014   ----------------------------------------
 BYTE   W96
// 015   ----------------------------------------
 BYTE   W96
// 016   ----------------------------------------
 BYTE   W96
// 017   ----------------------------------------
 BYTE   W96
// 018   ----------------------------------------
 BYTE   W96
// 019   ----------------------------------------
 BYTE   W96
// 020   ----------------------------------------
 BYTE   W96
// 021   ----------------------------------------
 BYTE   W72
 BYTE   N72  Fn3  v096
 BYTE   W24
// 022   ----------------------------------------
 BYTE   PATT
  POIN2 Label_3_01315C6C
// 023   ----------------------------------------
 BYTE   PATT
  POIN2 Label_3_01315C79
// 024   ----------------------------------------
 BYTE   PATT
  POIN2 Label_3_01315C89
// 025   ----------------------------------------
 BYTE   PATT
  POIN2 Label_3_01315CA4
// 026   ----------------------------------------
 BYTE   EOT
 BYTE   Fn2  v057
 BYTE   W48
 BYTE   W24
 BYTE   W72
// 027   ----------------------------------------
 BYTE   W96
// 028   ----------------------------------------
 BYTE   W96
// 029   ----------------------------------------
 BYTE   W96
// 030   ----------------------------------------
 BYTE   W96
// 031   ----------------------------------------
 BYTE   W96
// 032   ----------------------------------------
 BYTE   W96
// 033   ----------------------------------------
 BYTE   W96
// 034   ----------------------------------------
 BYTE   W96
// 035   ----------------------------------------
 BYTE   W96
// 036   ----------------------------------------
 BYTE   W96
// 037   ----------------------------------------
 BYTE   W96
// 038   ----------------------------------------
 BYTE   W96
// 039   ----------------------------------------
 BYTE   W96
// 040   ----------------------------------------
 BYTE   W96
// 041   ----------------------------------------
 BYTE   W96
// 042   ----------------------------------------
 BYTE   W96
// 043   ----------------------------------------
 BYTE   W96
// 044   ----------------------------------------
 BYTE   W96
// 045   ----------------------------------------
 BYTE   W96
// 046   ----------------------------------------
 BYTE   W96
// 047   ----------------------------------------
 BYTE   W96
// 048   ----------------------------------------
 BYTE   W96
// 049   ----------------------------------------
 BYTE   W96
// 050   ----------------------------------------
 BYTE   W96
// 051   ----------------------------------------
 BYTE   W96
// 052   ----------------------------------------
 BYTE   W96
// 053   ----------------------------------------
 BYTE   W96
// 054   ----------------------------------------
 BYTE   W96
// 055   ----------------------------------------
 BYTE   W96
// 056   ----------------------------------------
 BYTE   W96
// 057   ----------------------------------------
 BYTE   W96
// 058   ----------------------------------------
 BYTE   W96
// 059   ----------------------------------------
 BYTE   W96
// 060   ----------------------------------------
 BYTE   W96
// 061   ----------------------------------------
 BYTE   W96
// 062   ----------------------------------------
 BYTE   W96
// 063   ----------------------------------------
 BYTE   W96
// 064   ----------------------------------------
 BYTE   W96
// 065   ----------------------------------------
 BYTE   W96
// 066   ----------------------------------------
 BYTE   W96
// 067   ----------------------------------------
 BYTE   W96
// 068   ----------------------------------------
 BYTE   W96
// 069   ----------------------------------------
 BYTE   W96
// 070   ----------------------------------------
 BYTE   W96
// 071   ----------------------------------------
 BYTE   W96
// 072   ----------------------------------------
 BYTE   W96
// 073   ----------------------------------------
 BYTE   W96
// 074   ----------------------------------------
 BYTE   W96
// 075   ----------------------------------------
 BYTE   W96
// 076   ----------------------------------------
 BYTE   W96
// 077   ----------------------------------------
 BYTE   W96
// 078   ----------------------------------------
 BYTE   W96
// 079   ----------------------------------------
 BYTE   W96
// 080   ----------------------------------------
 BYTE   W96
// 081   ----------------------------------------
 BYTE   GoTo
  POIN2 Label_3_01315C67
// 082   ----------------------------------------
 BYTE   W07
 BYTE   FINE

//**************** Track 5 (Midi-Chn.4) ****************//

CouragePrayer_005:
// 000   ----------------------------------------
 BYTE   KEYSH   CouragePrayer_key+0
 BYTE   VOICE   52
 BYTE   VOL   22*CouragePrayer_mvl/mxv
 BYTE   PAN   c_v+0
 BYTE   W96
// 001   ----------------------------------------
 BYTE   W96
// 002   ----------------------------------------
 BYTE   W96
// 003   ----------------------------------------
Label_4_01315EC3:
 BYTE   W96
// 004   ----------------------------------------
 BYTE   W96
// 005   ----------------------------------------
 BYTE   W96
// 006   ----------------------------------------
 BYTE   W96
// 007   ----------------------------------------
 BYTE   W96
// 008   ----------------------------------------
 BYTE   W96
// 009   ----------------------------------------
 BYTE   W96
// 010   ----------------------------------------
 BYTE   W96
// 011   ----------------------------------------
 BYTE   W96
// 012   ----------------------------------------
 BYTE   N72  Fn3  v120
 BYTE   N72  Dn4
 BYTE   W72
 BYTE   Gn3
 BYTE   N72  En4
 BYTE   W24
// 013   ----------------------------------------
 BYTE   W48
 BYTE   An3
 BYTE   N72  Fn4
 BYTE   W48
// 014   ----------------------------------------
 BYTE   W24
 BYTE   As3
 BYTE   N72  Fn4
 BYTE   W72
// 015   ----------------------------------------
 BYTE   TIE  Gs3
 BYTE   TIE  Ds4
 BYTE   W96
// 016   ----------------------------------------
 BYTE   W48
 BYTE   EOT
 BYTE   Gs3  v075
 BYTE   TIE  Gn3
 BYTE   TIE  Dn4
 BYTE   W48
// 017   ----------------------------------------
 BYTE   W24
 BYTE   W01
 BYTE   W01
 BYTE   W01
 BYTE   W01
 BYTE   W01
 BYTE   W01
 BYTE   W01
 BYTE   W01
 BYTE   W01
 BYTE   W01
 BYTE   W01
 BYTE   W01
 BYTE   W01
 BYTE   W01
 BYTE   W01
 BYTE   W01
 BYTE   W01
 BYTE   W01
 BYTE   W01
 BYTE   W01
 BYTE   W01
 BYTE   W01
 BYTE   W01
 BYTE   W01
 BYTE   W01
 BYTE   W01
 BYTE   W01
 BYTE   W01
 BYTE   W01
 BYTE   W01
 BYTE   W01
 BYTE   W01
 BYTE   W01
 BYTE   W01
 BYTE   W01
 BYTE   W01
 BYTE   W01
 BYTE   W01
 BYTE   W01
 BYTE   W01
 BYTE   W01
 BYTE   W01
 BYTE   W01
 BYTE   W01
 BYTE   W01
 BYTE   W01
 BYTE   W01
 BYTE   W01
 BYTE   W01
 BYTE   W01
 BYTE   W01
 BYTE   W01
 BYTE   W01
 BYTE   W01
 BYTE   W01
 BYTE   W01
 BYTE   W01
 BYTE   W01
 BYTE   W01
 BYTE   W01
 BYTE   W01
 BYTE   W01
 BYTE   W01
 BYTE   W01
 BYTE   W01
 BYTE   W01
 BYTE   W01
 BYTE   W01
 BYTE   W01
 BYTE   W01
 BYTE   W01
 BYTE   W01
// 018   ----------------------------------------
 BYTE   EOT
 BYTE   Gn3  v074
 BYTE   W72
 BYTE   W24
// 019   ----------------------------------------
 BYTE   W96
// 020   ----------------------------------------
 BYTE   W96
// 021   ----------------------------------------
 BYTE   W96
// 022   ----------------------------------------
 BYTE   W96
// 023   ----------------------------------------
 BYTE   W96
// 024   ----------------------------------------
 BYTE   W96
// 025   ----------------------------------------
 BYTE   W96
// 026   ----------------------------------------
 BYTE   W96
// 027   ----------------------------------------
 BYTE   W96
// 028   ----------------------------------------
 BYTE   W96
// 029   ----------------------------------------
 BYTE   W96
// 030   ----------------------------------------
 BYTE   N72  Fn3  v127
 BYTE   N72  Dn4
 BYTE   W72
 BYTE   Gn3
 BYTE   N72  En4
 BYTE   W24
// 031   ----------------------------------------
 BYTE   W48
 BYTE   An3
 BYTE   N72  Fn4
 BYTE   W48
// 032   ----------------------------------------
 BYTE   W24
 BYTE   As3
 BYTE   N72  Fn4
 BYTE   W72
// 033   ----------------------------------------
 BYTE   TIE  As3
 BYTE   TIE  Gn4
 BYTE   W96
// 034   ----------------------------------------
 BYTE   W48
 BYTE   EOT
 BYTE   As3  v079
 BYTE   N72  As3
 BYTE   N72  Fn4
 BYTE   W48
// 035   ----------------------------------------
 BYTE   W24
 BYTE   Gn3
 BYTE   N72  En4
 BYTE   W72
// 036   ----------------------------------------
 BYTE   TIE  An3  v120
 BYTE   TIE  Dn4
 BYTE   W96
// 037   ----------------------------------------
 BYTE   W48
 BYTE   W03
 BYTE   W01
 BYTE   W02
 BYTE   W01
 BYTE   W02
 BYTE   W01
 BYTE   W03
 BYTE   W03
 BYTE   W01
 BYTE   W02
 BYTE   W01
 BYTE   W03
 BYTE   W03
 BYTE   W01
 BYTE   W02
 BYTE   W01
 BYTE   W03
 BYTE   W03
 BYTE   W01
 BYTE   W02
 BYTE   W01
 BYTE   W03
 BYTE   W03
 BYTE   W01
 BYTE   W01
// 038   ----------------------------------------
 BYTE   W01
 BYTE   W01
 BYTE   W02
 BYTE   W01
 BYTE   W03
 BYTE   W01
 BYTE   W02
 BYTE   W01
 BYTE   W02
 BYTE   W01
 BYTE   W03
 BYTE   W03
 BYTE   W01
 BYTE   W02
 BYTE   W01
 BYTE   W03
 BYTE   W03
 BYTE   W01
 BYTE   W02
 BYTE   W01
 BYTE   W03
 BYTE   W03
 BYTE   W01
 BYTE   W02
 BYTE   W01
 BYTE   W03
 BYTE   W03
 BYTE   W01
 BYTE   W02
 BYTE   W01
 BYTE   W02
 BYTE   W01
 BYTE   W03
 BYTE   W03
 BYTE   W01
 BYTE   W02
 BYTE   W01
 BYTE   W03
 BYTE   W03
 BYTE   W01
 BYTE   W02
 BYTE   W01
 BYTE   W03
 BYTE   W03
 BYTE   W01
 BYTE   W02
 BYTE   W01
 BYTE   W03
 BYTE   W03
 BYTE   W01
 BYTE   W01
// 039   ----------------------------------------
 BYTE   EOT
 BYTE   An3  v074
 BYTE   TIE  Ds3  v112
 BYTE   TIE  As3
 BYTE   W96
// 040   ----------------------------------------
 BYTE   W96
// 041   ----------------------------------------
 BYTE   W96
// 042   ----------------------------------------
 BYTE   EOT
 BYTE   Ds3  v070
Label_4_01315FCF:
 BYTE   TIE  Dn3  v112
 BYTE   TIE  An3
 BYTE   W96
 BYTE   PEND 
// 043   ----------------------------------------
 BYTE   W96
// 044   ----------------------------------------
 BYTE   W96
// 045   ----------------------------------------
 BYTE   EOT
 BYTE   Dn3  v069
 BYTE   TIE  Ds3
 BYTE   TIE  As3
 BYTE   W96
// 046   ----------------------------------------
 BYTE   W96
// 047   ----------------------------------------
 BYTE   W96
// 048   ----------------------------------------
 BYTE   EOT
 BYTE   Ds3  v070
// 049   ----------------------------------------
 BYTE   PATT
  POIN2 Label_4_01315FCF
// 050   ----------------------------------------
 BYTE   W96
// 051   ----------------------------------------
 BYTE   W96
// 052   ----------------------------------------
 BYTE   EOT
 BYTE   Dn3  v069
 BYTE   TIE  Ds3  v112
 BYTE   TIE  Gn3
 BYTE   W96
// 053   ----------------------------------------
 BYTE   W96
// 054   ----------------------------------------
 BYTE   W96
// 055   ----------------------------------------
 BYTE   EOT
 BYTE   Ds3  v067
// 056   ----------------------------------------
 BYTE   PATT
  POIN2 Label_4_01315FCF
// 057   ----------------------------------------
 BYTE   W96
// 058   ----------------------------------------
 BYTE   W96
// 059   ----------------------------------------
 BYTE   EOT
 BYTE   Dn3  v069
 BYTE   W96
// 060   ----------------------------------------
 BYTE   W96
// 061   ----------------------------------------
 BYTE   W96
// 062   ----------------------------------------
 BYTE   W96
// 063   ----------------------------------------
 BYTE   W96
// 064   ----------------------------------------
 BYTE   W96
// 065   ----------------------------------------
 BYTE   W96
// 066   ----------------------------------------
 BYTE   W96
// 067   ----------------------------------------
 BYTE   W96
// 068   ----------------------------------------
 BYTE   W96
// 069   ----------------------------------------
 BYTE   W96
// 070   ----------------------------------------
 BYTE   W96
// 071   ----------------------------------------
 BYTE   W96
// 072   ----------------------------------------
 BYTE   W96
// 073   ----------------------------------------
 BYTE   W96
// 074   ----------------------------------------
 BYTE   W96
// 075   ----------------------------------------
 BYTE   W96
// 076   ----------------------------------------
 BYTE   W96
// 077   ----------------------------------------
 BYTE   W96
// 078   ----------------------------------------
 BYTE   W96
// 079   ----------------------------------------
 BYTE   W96
// 080   ----------------------------------------
 BYTE   W96
// 081   ----------------------------------------
 BYTE   W96
// 082   ----------------------------------------
 BYTE   W96
// 083   ----------------------------------------
 BYTE   GoTo
  POIN2 Label_4_01315EC3
// 084   ----------------------------------------
 BYTE   W07
 BYTE   FINE

//**************** Track 6 (Midi-Chn.5) ****************//

CouragePrayer_006:
// 000   ----------------------------------------
 BYTE   KEYSH   CouragePrayer_key+0
 BYTE   VOICE   48
 BYTE   VOL   20*CouragePrayer_mvl/mxv
 BYTE   PAN   c_v-14
 BYTE   N12  An3  v112
 BYTE   N12  Dn4  v127
 BYTE   W12
 BYTE   N06  Fn3  v100
 BYTE   N06  An3  v116
 BYTE   W12
 BYTE   Fn3  v100
 BYTE   N06  An3  v116
 BYTE   W12
 BYTE   N12  An3  v108
 BYTE   N12  Dn4  v120
 BYTE   W12
 BYTE   N06  Fn3  v100
 BYTE   N06  An3  v116
 BYTE   W12
 BYTE   Fn3  v100
 BYTE   N06  An3  v116
 BYTE   W12
 BYTE   N12  An3  v112
 BYTE   N12  Dn4  v127
 BYTE   W12
 BYTE   N06  An3  v100
 BYTE   N06  En4  v116
 BYTE   W12
// 001   ----------------------------------------
Label_5_01372E6A:
 BYTE   N09  En4  v108
 BYTE   N09  Gn4  v120
 BYTE   W12
 BYTE   N06  Dn4  v100
 BYTE   N06  Fn4  v116
 BYTE   W12
 BYTE   N09  An3  v100
 BYTE   N09  En4  v116
 BYTE   W12
 BYTE   N06  An3  v100
 BYTE   N06  Dn4  v116
 BYTE   W12
 BYTE   N12  An3  v112
 BYTE   N12  En4  v127
 BYTE   W12
 BYTE   N06  Gn3  v100
 BYTE   N06  An3  v116
 BYTE   W12
 BYTE   Gn3  v100
 BYTE   N06  An3  v116
 BYTE   W12
 BYTE   N12  An3  v108
 BYTE   N12  En4  v120
 BYTE   W12
 BYTE   PEND 
// 002   ----------------------------------------
Label_5_01372EA2:
 BYTE   N06  Gn3  v100
 BYTE   N06  An3  v116
 BYTE   W12
 BYTE   Gn3  v100
 BYTE   N06  An3  v116
 BYTE   W12
 BYTE   N12  An3  v112
 BYTE   N12  En4  v127
 BYTE   W12
 BYTE   N06  Dn4  v100
 BYTE   N06  Fn4  v116
 BYTE   W12
 BYTE   N09  Fn4  v108
 BYTE   N09  An4  v120
 BYTE   W12
 BYTE   N06  En4  v100
 BYTE   N06  Gn4  v116
 BYTE   W12
 BYTE   N09  Dn4  v100
 BYTE   N09  Fn4  v116
 BYTE   W12
 BYTE   N06  An3  v100
 BYTE   N06  En4  v116
 BYTE   W12
 BYTE   PEND 
// 003   ----------------------------------------
Label_5_01372EDA:
 BYTE   N12  An3  v112
 BYTE   N12  Dn4  v127
 BYTE   W12
 BYTE   N06  Fn3  v100
 BYTE   N06  An3  v116
 BYTE   W12
 BYTE   Fn3  v100
 BYTE   N06  An3  v116
 BYTE   W12
 BYTE   N12  An3  v108
 BYTE   N12  Dn4  v120
 BYTE   W12
 BYTE   N06  Fn3  v100
 BYTE   N06  An3  v116
 BYTE   W12
 BYTE   Fn3  v100
 BYTE   N06  An3  v116
 BYTE   W12
 BYTE   N12  An3  v112
 BYTE   N12  Dn4  v127
 BYTE   W12
 BYTE   N06  An3  v100
 BYTE   N06  En4  v116
 BYTE   W12
 BYTE   PEND 
// 004   ----------------------------------------
 BYTE   PATT
  POIN2 Label_5_01372E6A
// 005   ----------------------------------------
 BYTE   PATT
  POIN2 Label_5_01372EA2
// 006   ----------------------------------------
 BYTE   PATT
  POIN2 Label_5_01372EDA
// 007   ----------------------------------------
 BYTE   PATT
  POIN2 Label_5_01372E6A
// 008   ----------------------------------------
 BYTE   PATT
  POIN2 Label_5_01372EA2
// 009   ----------------------------------------
 BYTE   PATT
  POIN2 Label_5_01372EDA
// 010   ----------------------------------------
 BYTE   PATT
  POIN2 Label_5_01372E6A
// 011   ----------------------------------------
 BYTE   PATT
  POIN2 Label_5_01372EA2
// 012   ----------------------------------------
 BYTE   W12
 BYTE   N06  Fn3  v108
 BYTE   N06  As3
 BYTE   W12
 BYTE   Fn3
 BYTE   N06  As3
 BYTE   W24
 BYTE   Fn3
 BYTE   N06  As3
 BYTE   W12
 BYTE   Fn3
 BYTE   N06  As3
 BYTE   W24
 BYTE   Gn3
 BYTE   N06  Cn4
 BYTE   W12
// 013   ----------------------------------------
 BYTE   W12
 BYTE   Gn3
 BYTE   N06  Cn4
 BYTE   W24
 BYTE   Gn3
 BYTE   N06  Cn4
 BYTE   W24
 BYTE   An3
 BYTE   N06  Cn4
 BYTE   W12
 BYTE   An3
 BYTE   N06  Cn4
 BYTE   W24
// 014   ----------------------------------------
 BYTE   An3
 BYTE   N06  Cn4
 BYTE   W12
 BYTE   An3
 BYTE   N06  Cn4
 BYTE   W24
 BYTE   As3
 BYTE   N06  Dn4
 BYTE   W24
 BYTE   As3
 BYTE   N06  Dn4
 BYTE   W24
 BYTE   As3
 BYTE   N06  Dn4
 BYTE   W12
// 015   ----------------------------------------
 BYTE   W12
 BYTE   Gs3
 BYTE   N06  Cn4
 BYTE   W12
 BYTE   Gs3
 BYTE   N06  Cn4
 BYTE   W24
 BYTE   Gs3
 BYTE   N06  Cn4
 BYTE   W12
 BYTE   Gs3
 BYTE   N06  Cn4
 BYTE   W24
 BYTE   Gs3
 BYTE   N06  Cn4
 BYTE   W12
// 016   ----------------------------------------
 BYTE   W12
 BYTE   Gs3
 BYTE   N06  Cn4
 BYTE   W24
 BYTE   Gs3
 BYTE   N06  Cn4
 BYTE   W24
 BYTE   Gn3
 BYTE   N06  An3
 BYTE   W12
 BYTE   Gn3
 BYTE   N06  An3
 BYTE   W24
// 017   ----------------------------------------
 BYTE   Gn3
 BYTE   N06  An3
 BYTE   W12
 BYTE   Gn3
 BYTE   N06  An3
 BYTE   W24
 BYTE   N06
 BYTE   N06  Cn4
 BYTE   W24
 BYTE   Gn3
 BYTE   N06  An3
 BYTE   W24
 BYTE   N04  Fn3  v100
 BYTE   N04  An3  v116
 BYTE   W04
 BYTE   Fn3  v100
 BYTE   N04  As3  v116
 BYTE   W04
 BYTE   An3  v100
 BYTE   N04  Cn4  v116
 BYTE   W04
// 018   ----------------------------------------
 BYTE   PATT
  POIN2 Label_5_01372EDA
// 019   ----------------------------------------
 BYTE   PATT
  POIN2 Label_5_01372E6A
// 020   ----------------------------------------
 BYTE   PATT
  POIN2 Label_5_01372EA2
// 021   ----------------------------------------
 BYTE   PATT
  POIN2 Label_5_01372EDA
// 022   ----------------------------------------
 BYTE   PATT
  POIN2 Label_5_01372E6A
// 023   ----------------------------------------
 BYTE   PATT
  POIN2 Label_5_01372EA2
// 024   ----------------------------------------
 BYTE   PATT
  POIN2 Label_5_01372EDA
// 025   ----------------------------------------
 BYTE   PATT
  POIN2 Label_5_01372E6A
// 026   ----------------------------------------
 BYTE   PATT
  POIN2 Label_5_01372EA2
// 027   ----------------------------------------
 BYTE   PATT
  POIN2 Label_5_01372EDA
// 028   ----------------------------------------
 BYTE   PATT
  POIN2 Label_5_01372E6A
// 029   ----------------------------------------
 BYTE   PATT
  POIN2 Label_5_01372EA2
// 030   ----------------------------------------
 BYTE   N12  As3  v112
 BYTE   N12  Dn4  v127
 BYTE   W12
 BYTE   N06  Fn3  v100
 BYTE   N06  As3  v116
 BYTE   W12
 BYTE   Fn3  v100
 BYTE   N06  As3  v116
 BYTE   W12
 BYTE   N12  As3  v108
 BYTE   N12  Dn4  v120
 BYTE   W12
 BYTE   N06  Fn3  v100
 BYTE   N06  As3  v116
 BYTE   W12
 BYTE   Fn3  v100
 BYTE   N06  As3  v116
 BYTE   W12
 BYTE   N12  Cn4  v112
 BYTE   N12  En4  v127
 BYTE   W12
 BYTE   N06  Dn4  v100
 BYTE   N06  Fn4  v116
 BYTE   W12
// 031   ----------------------------------------
 BYTE   N09  Fn4  v108
 BYTE   N09  An4  v120
 BYTE   W12
 BYTE   N06  En4  v100
 BYTE   N06  Gn4  v116
 BYTE   W12
 BYTE   N09  Dn4  v100
 BYTE   N09  Fn4  v116
 BYTE   W12
 BYTE   N06  Cn4  v100
 BYTE   N06  En4  v116
 BYTE   W12
 BYTE   N12  An3  v112
 BYTE   N12  Cn4  v127
 BYTE   W12
 BYTE   N06  Fn3  v100
 BYTE   N06  An3  v116
 BYTE   W12
 BYTE   Fn3  v100
 BYTE   N06  An3  v116
 BYTE   W12
 BYTE   N12  An3  v108
 BYTE   N12  Cn4  v120
 BYTE   W12
// 032   ----------------------------------------
Label_5_01373067:
 BYTE   N06  Fn3  v100
 BYTE   N06  An3  v116
 BYTE   W12
 BYTE   Fn3  v100
 BYTE   N06  An3  v116
 BYTE   W12
 BYTE   N12  An3  v112
 BYTE   N12  Dn4  v127
 BYTE   W12
 BYTE   N06  An3  v100
 BYTE   N06  En4  v116
 BYTE   W12
 BYTE   N09  En4  v108
 BYTE   N09  Gn4  v120
 BYTE   W12
 BYTE   N06  Dn4  v100
 BYTE   N06  Fn4  v116
 BYTE   W12
 BYTE   N09  An3  v100
 BYTE   N09  En4  v116
 BYTE   W12
 BYTE   N06  An3  v100
 BYTE   N06  Dn4  v116
 BYTE   W12
 BYTE   PEND 
// 033   ----------------------------------------
 BYTE   N12  As3  v112
 BYTE   N12  Dn4  v127
 BYTE   W12
 BYTE   N06  Gn3  v100
 BYTE   N06  As3  v116
 BYTE   W12
 BYTE   Gn3  v100
 BYTE   N06  As3  v116
 BYTE   W12
 BYTE   N12  As3  v108
 BYTE   N12  Dn4  v120
 BYTE   W12
 BYTE   N06  Gn3  v100
 BYTE   N06  As3  v116
 BYTE   W12
 BYTE   Gn3  v100
 BYTE   N06  As3  v116
 BYTE   W12
 BYTE   N12  As3  v112
 BYTE   N12  Dn4  v127
 BYTE   W12
 BYTE   N06  Cn4  v100
 BYTE   N06  En4  v116
 BYTE   W12
// 034   ----------------------------------------
 BYTE   N09  Dn4  v108
 BYTE   N09  Gn4  v120
 BYTE   W12
 BYTE   N06  Dn4  v100
 BYTE   N06  Fn4  v116
 BYTE   W12
 BYTE   N09  Cn4  v100
 BYTE   N09  En4  v116
 BYTE   W12
 BYTE   N06  As3  v100
 BYTE   N06  Dn4  v116
 BYTE   W12
 BYTE   N12  As3  v112
 BYTE   N12  Dn4  v127
 BYTE   W12
 BYTE   N06  Fn3  v100
 BYTE   N06  As3  v116
 BYTE   W12
 BYTE   Fn3  v100
 BYTE   N06  As3  v116
 BYTE   W12
 BYTE   N12  As3  v108
 BYTE   N12  Dn4  v120
 BYTE   W12
// 035   ----------------------------------------
 BYTE   N06  Fn3  v100
 BYTE   N06  As3  v116
 BYTE   W12
 BYTE   Fn3  v100
 BYTE   N06  As3  v116
 BYTE   W12
 BYTE   N12  Cn4  v112
 BYTE   N12  En4  v127
 BYTE   W12
 BYTE   N06  Dn4  v100
 BYTE   N06  Fn4  v116
 BYTE   W12
 BYTE   N09  Fn4  v108
 BYTE   N09  An4  v120
 BYTE   W12
 BYTE   N06  En4  v100
 BYTE   N06  Gn4  v116
 BYTE   W12
 BYTE   N09  Dn4  v100
 BYTE   N09  Fn4  v116
 BYTE   W12
 BYTE   N06  Cn4  v100
 BYTE   N06  En4  v116
 BYTE   W12
// 036   ----------------------------------------
 BYTE   PATT
  POIN2 Label_5_01372EDA
// 037   ----------------------------------------
 BYTE   N09  En4  v108
 BYTE   N09  Gn4  v120
 BYTE   W12
 BYTE   N06  Dn4  v100
 BYTE   N06  Fn4  v116
 BYTE   W12
 BYTE   N09  An3  v100
 BYTE   N09  En4  v116
 BYTE   W12
 BYTE   N06  An3  v100
 BYTE   N06  Dn4  v116
 BYTE   W12
 BYTE   N12  An3  v112
 BYTE   N12  Dn4  v127
 BYTE   W12
 BYTE   N06  Fn3  v100
 BYTE   N06  An3  v116
 BYTE   W12
 BYTE   Fn3  v100
 BYTE   N06  An3  v116
 BYTE   W12
 BYTE   N12  An3  v108
 BYTE   N12  Dn4  v120
 BYTE   W12
// 038   ----------------------------------------
 BYTE   PATT
  POIN2 Label_5_01373067
// 039   ----------------------------------------
Label_5_01373184:
 BYTE   N06  Gn3  v112
 BYTE   N06  As3
 BYTE   W36
 BYTE   Gn3
 BYTE   N06  As3
 BYTE   W12
 BYTE   Gn3
 BYTE   N06  As3
 BYTE   W48
 BYTE   PEND 
// 040   ----------------------------------------
Label_5_01373193:
 BYTE   N06  Gn3  v112
 BYTE   N06  As3
 BYTE   W24
 BYTE   Gn3
 BYTE   N06  As3
 BYTE   W24
 BYTE   Gn3
 BYTE   N06  As3
 BYTE   W36
 BYTE   Gn3
 BYTE   N06  As3
 BYTE   W12
 BYTE   PEND 
// 041   ----------------------------------------
Label_5_013731A6:
 BYTE   N06  Gn3  v112
 BYTE   N06  As3
 BYTE   W48
 BYTE   Gn3
 BYTE   N06  As3
 BYTE   W24
 BYTE   Gn3
 BYTE   N06  As3
 BYTE   W24
 BYTE   PEND 
// 042   ----------------------------------------
Label_5_013731B5:
 BYTE   N06  Fn3  v112
 BYTE   N06  An3
 BYTE   W36
 BYTE   Fn3
 BYTE   N06  An3
 BYTE   W12
 BYTE   Fn3
 BYTE   N06  An3
 BYTE   W48
 BYTE   PEND 
// 043   ----------------------------------------
Label_5_013731C4:
 BYTE   N06  Fn3  v112
 BYTE   N06  An3
 BYTE   W24
 BYTE   Fn3
 BYTE   N06  An3
 BYTE   W24
 BYTE   Fn3
 BYTE   N06  An3
 BYTE   W36
 BYTE   Fn3
 BYTE   N06  An3
 BYTE   W12
 BYTE   PEND 
// 044   ----------------------------------------
Label_5_013731D7:
 BYTE   N06  Fn3  v112
 BYTE   N06  An3
 BYTE   W48
 BYTE   Fn3
 BYTE   N06  An3
 BYTE   W24
 BYTE   Fn3
 BYTE   N06  An3
 BYTE   W24
 BYTE   PEND 
// 045   ----------------------------------------
 BYTE   PATT
  POIN2 Label_5_01373184
// 046   ----------------------------------------
 BYTE   PATT
  POIN2 Label_5_01373193
// 047   ----------------------------------------
 BYTE   PATT
  POIN2 Label_5_013731A6
// 048   ----------------------------------------
 BYTE   PATT
  POIN2 Label_5_013731B5
// 049   ----------------------------------------
 BYTE   PATT
  POIN2 Label_5_013731C4
// 050   ----------------------------------------
 BYTE   PATT
  POIN2 Label_5_013731D7
// 051   ----------------------------------------
 BYTE   N06  Ds3  v112
 BYTE   N06  Gn3
 BYTE   W36
 BYTE   Ds3
 BYTE   N06  Gn3
 BYTE   W12
 BYTE   Ds3
 BYTE   N06  Gn3
 BYTE   W48
// 052   ----------------------------------------
 BYTE   Ds3
 BYTE   N06  Gn3
 BYTE   W24
 BYTE   Ds3
 BYTE   N06  Gn3
 BYTE   W24
 BYTE   Ds3
 BYTE   N06  Gn3
 BYTE   W36
 BYTE   Ds3
 BYTE   N06  Gn3
 BYTE   W12
// 053   ----------------------------------------
 BYTE   Ds3
 BYTE   N06  Gn3
 BYTE   W48
 BYTE   Ds3
 BYTE   N06  Gn3
 BYTE   W24
 BYTE   Ds3
 BYTE   N06  Gn3
 BYTE   W24
// 054   ----------------------------------------
 BYTE   Dn3
 BYTE   N06  Fs3
 BYTE   W36
 BYTE   Dn3
 BYTE   N06  Fs3
 BYTE   W12
 BYTE   Dn3
 BYTE   N06  Fs3
 BYTE   W48
// 055   ----------------------------------------
 BYTE   Dn3
 BYTE   N06  Fs3
 BYTE   W24
 BYTE   Dn3
 BYTE   N06  Fs3
 BYTE   W24
 BYTE   N12  An3  v116
 BYTE   N12  Dn4
 BYTE   W24
 BYTE   An3
 BYTE   N12  Dn4
 BYTE   W24
// 056   ----------------------------------------
 BYTE   N08  An3
 BYTE   N08  Dn4
 BYTE   W12
 BYTE   N12  An3
 BYTE   N12  Dn4
 BYTE   W12
 BYTE   N12
 BYTE   N12  Fs4
 BYTE   W24
 BYTE   Dn4
 BYTE   N12  Fs4
 BYTE   W24
 BYTE   N08  Dn4
 BYTE   N08  Fs4
 BYTE   W12
 BYTE   N12  Dn4
 BYTE   N12  Fs4
 BYTE   W12
// 057   ----------------------------------------
Label_5_01373268:
 BYTE   N12  Dn4  v112
 BYTE   N12  Gn4  v127
 BYTE   W12
 BYTE   N06  As3  v100
 BYTE   N06  Dn4  v116
 BYTE   W12
 BYTE   As3  v100
 BYTE   N06  Dn4  v116
 BYTE   W12
 BYTE   N12  Dn4  v108
 BYTE   N12  Gn4  v120
 BYTE   W12
 BYTE   N06  As3  v100
 BYTE   N06  Dn4  v116
 BYTE   W12
 BYTE   As3  v100
 BYTE   N06  Dn4  v116
 BYTE   W12
 BYTE   N12  Dn4  v112
 BYTE   N12  Gn4  v127
 BYTE   W12
 BYTE   N06  Dn4  v100
 BYTE   N06  An4  v116
 BYTE   W12
 BYTE   PEND 
// 058   ----------------------------------------
Label_5_0137329F:
 BYTE   N09  An4  v108
 BYTE   N09  Cn5  v120
 BYTE   W12
 BYTE   N06  Gn4  v100
 BYTE   N06  As4  v116
 BYTE   W12
 BYTE   N09  Dn4  v100
 BYTE   N09  An4  v116
 BYTE   W12
 BYTE   N06  Dn4  v100
 BYTE   N06  Gn4  v116
 BYTE   W12
 BYTE   N12  Dn4  v112
 BYTE   N12  Gn4  v127
 BYTE   W12
 BYTE   N06  As3  v100
 BYTE   N06  Dn4  v116
 BYTE   W12
 BYTE   As3  v100
 BYTE   N06  Dn4  v116
 BYTE   W12
 BYTE   N12  Dn4  v108
 BYTE   N12  Gn4  v120
 BYTE   W12
 BYTE   PEND 
// 059   ----------------------------------------
Label_5_013732D7:
 BYTE   N06  As3  v100
 BYTE   N06  Dn4  v116
 BYTE   W12
 BYTE   As3  v100
 BYTE   N06  Dn4  v116
 BYTE   W12
 BYTE   N12  Ds4  v112
 BYTE   N12  Gn4  v127
 BYTE   W12
 BYTE   N06  Ds4  v100
 BYTE   N06  An4  v116
 BYTE   W12
 BYTE   N09  An4  v108
 BYTE   N09  Cn5  v120
 BYTE   W12
 BYTE   N06  Gn4  v100
 BYTE   N06  As4  v116
 BYTE   W12
 BYTE   N09  Ds4  v100
 BYTE   N09  An4  v116
 BYTE   W12
 BYTE   N06  Ds4  v100
 BYTE   N06  Gn4  v116
 BYTE   W12
 BYTE   PEND 
// 060   ----------------------------------------
 BYTE   PATT
  POIN2 Label_5_01373268
// 061   ----------------------------------------
 BYTE   PATT
  POIN2 Label_5_0137329F
// 062   ----------------------------------------
 BYTE   PATT
  POIN2 Label_5_013732D7
// 063   ----------------------------------------
 BYTE   N12  Dn4  v112
 BYTE   N12  Fs4  v127
 BYTE   W12
 BYTE   N06  An3  v100
 BYTE   N06  Dn4  v116
 BYTE   W12
 BYTE   An3  v100
 BYTE   N06  Dn4  v116
 BYTE   W12
 BYTE   N12  Dn4  v108
 BYTE   N12  Fs4  v120
 BYTE   W12
 BYTE   N06  An3  v100
 BYTE   N06  Dn4  v116
 BYTE   W12
 BYTE   An3  v100
 BYTE   N06  Dn4  v116
 BYTE   W12
 BYTE   N12  Dn4  v112
 BYTE   N12  Gn4  v127
 BYTE   W12
 BYTE   N06  Dn4  v100
 BYTE   N06  An4  v116
 BYTE   W12
// 064   ----------------------------------------
 BYTE   N09  An4  v108
 BYTE   N09  Cn5  v120
 BYTE   W12
 BYTE   N06  Gn4  v100
 BYTE   N06  As4  v116
 BYTE   W12
 BYTE   N09  Dn4  v100
 BYTE   N09  An4  v116
 BYTE   W12
 BYTE   N06  Dn4  v100
 BYTE   N06  Gn4  v116
 BYTE   W12
 BYTE   N12  Dn4  v112
 BYTE   N12  An4  v127
 BYTE   W12
 BYTE   N06  An3  v100
 BYTE   N06  Dn4  v116
 BYTE   W12
 BYTE   An3  v100
 BYTE   N06  Dn4  v116
 BYTE   W12
 BYTE   N12  Dn4  v108
 BYTE   N12  An4  v120
 BYTE   W12
// 065   ----------------------------------------
 BYTE   N06  An3  v100
 BYTE   N06  Dn4  v116
 BYTE   W12
 BYTE   An3  v100
 BYTE   N06  Dn4  v116
 BYTE   W12
 BYTE   N12  Dn4  v112
 BYTE   N12  Fs4  v127
 BYTE   W12
 BYTE   N06  Dn4  v100
 BYTE   N06  Gn4  v116
 BYTE   W12
 BYTE   N09  Fs4  v108
 BYTE   N09  An4  v120
 BYTE   W12
 BYTE   N06  Fs4  v100
 BYTE   N06  As4  v116
 BYTE   W12
 BYTE   N09  An4  v100
 BYTE   N09  Cn5  v116
 BYTE   W12
 BYTE   N06  Fs4  v100
 BYTE   N06  An4  v116
 BYTE   W12
// 066   ----------------------------------------
 BYTE   PATT
  POIN2 Label_5_01373268
// 067   ----------------------------------------
 BYTE   PATT
  POIN2 Label_5_0137329F
// 068   ----------------------------------------
 BYTE   PATT
  POIN2 Label_5_013732D7
// 069   ----------------------------------------
 BYTE   PATT
  POIN2 Label_5_01373268
// 070   ----------------------------------------
 BYTE   PATT
  POIN2 Label_5_0137329F
// 071   ----------------------------------------
 BYTE   N06  As3  v100
 BYTE   N06  Dn4  v116
 BYTE   W12
 BYTE   As3  v100
 BYTE   N06  Dn4  v116
 BYTE   W12
 BYTE   N12  Ds4  v112
 BYTE   N12  Gn4  v127
 BYTE   W12
 BYTE   N06  Ds4  v100
 BYTE   N06  An4  v116
 BYTE   W12
 BYTE   N09  Gn4  v108
 BYTE   N09  As4  v120
 BYTE   W12
 BYTE   N06  Gn4  v100
 BYTE   N06  Cn5  v116
 BYTE   W12
 BYTE   N09  Ds4  v100
 BYTE   N09  An4  v116
 BYTE   W12
 BYTE   N06  Ds4  v100
 BYTE   N06  Gn4  v116
 BYTE   W12
// 072   ----------------------------------------
 BYTE   N12  An3
 BYTE   N12  Cs4
 BYTE   W24
 BYTE   An3
 BYTE   N12  Cs4
 BYTE   W24
 BYTE   N08  An3
 BYTE   N08  Cs4
 BYTE   W12
 BYTE   N12  An3
 BYTE   N12  Cs4
 BYTE   W12
 BYTE   N12
 BYTE   N12  En4
 BYTE   W24
// 073   ----------------------------------------
 BYTE   Cs4
 BYTE   N12  En4
 BYTE   W24
 BYTE   N08  Cs4
 BYTE   N08  En4
 BYTE   W12
 BYTE   N12  Cs4
 BYTE   N12  En4
 BYTE   W12
 BYTE   Gn4
 BYTE   N12  An4
 BYTE   W24
 BYTE   Gn4
 BYTE   N12  An4
 BYTE   W24
// 074   ----------------------------------------
 BYTE   N08  Gn4
 BYTE   N08  An4
 BYTE   W12
 BYTE   N12  Gn4
 BYTE   N12  An4
 BYTE   W12
 BYTE   N12
 BYTE   N12  Cs5
 BYTE   W24
 BYTE   An4
 BYTE   N12  Cs5
 BYTE   W24
 BYTE   N08  An4
 BYTE   N08  Cs5
 BYTE   W12
 BYTE   N12  An4
 BYTE   N12  Cs5
 BYTE   W12
// 075   ----------------------------------------
 BYTE   PATT
  POIN2 Label_5_01372EDA
// 076   ----------------------------------------
 BYTE   PATT
  POIN2 Label_5_01372E6A
// 077   ----------------------------------------
 BYTE   PATT
  POIN2 Label_5_01372EA2
// 078   ----------------------------------------
 BYTE   PATT
  POIN2 Label_5_01372EDA
// 079   ----------------------------------------
 BYTE   PATT
  POIN2 Label_5_01372E6A
// 080   ----------------------------------------
 BYTE   PATT
  POIN2 Label_5_01372EA2
// 081   ----------------------------------------
 BYTE   GoTo
  POIN2 Label_5_01372EDA
// 082   ----------------------------------------
 BYTE   W07
 BYTE   FINE

//**************** Track 7 (Midi-Chn.6) ****************//

CouragePrayer_007:
// 000   ----------------------------------------
 BYTE   KEYSH   CouragePrayer_key+0
 BYTE   VOICE   68
 BYTE   VOL   30*CouragePrayer_mvl/mxv
 BYTE   PAN   c_v-8
 BYTE   N12  Dn2  v120
 BYTE   W36
 BYTE   N12
 BYTE   W36
 BYTE   N12
 BYTE   W24
// 001   ----------------------------------------
Label_6_01372420:
 BYTE   N06  An1  v112
 BYTE   W24
 BYTE   N09
 BYTE   W24
 BYTE   N12  Cn2  v120
 BYTE   W36
 BYTE   N12
 BYTE   W12
 BYTE   PEND 
// 002   ----------------------------------------
Label_6_0137242D:
 BYTE   W24
 BYTE   N12  Cn2  v120
 BYTE   W24
 BYTE   N06  An1  v112
 BYTE   W24
 BYTE   N09
 BYTE   W24
 BYTE   PEND 
// 003   ----------------------------------------
Label_6_01372439:
 BYTE   N12  Dn2  v120
 BYTE   W36
 BYTE   N12
 BYTE   W36
 BYTE   N12
 BYTE   W24
 BYTE   PEND 
// 004   ----------------------------------------
 BYTE   PATT
  POIN2 Label_6_01372420
// 005   ----------------------------------------
 BYTE   PATT
  POIN2 Label_6_0137242D
// 006   ----------------------------------------
 BYTE   PATT
  POIN2 Label_6_01372439
// 007   ----------------------------------------
 BYTE   PATT
  POIN2 Label_6_01372420
// 008   ----------------------------------------
 BYTE   PATT
  POIN2 Label_6_0137242D
// 009   ----------------------------------------
 BYTE   PATT
  POIN2 Label_6_01372439
// 010   ----------------------------------------
 BYTE   PATT
  POIN2 Label_6_01372420
// 011   ----------------------------------------
 BYTE   PATT
  POIN2 Label_6_0137242D
// 012   ----------------------------------------
Label_6_0137246A:
 BYTE   N12  As1  v120
 BYTE   W36
 BYTE   As1  v116
 BYTE   W36
 BYTE   Cn2  v120
 BYTE   W24
 BYTE   PEND 
// 013   ----------------------------------------
Label_6_01372475:
 BYTE   N06  Cn2  v116
 BYTE   W24
 BYTE   N09
 BYTE   W24
 BYTE   N12  Fn2  v120
 BYTE   W36
 BYTE   Fn2  v116
 BYTE   W12
 BYTE   PEND 
// 014   ----------------------------------------
Label_6_01372483:
 BYTE   W24
 BYTE   N12  As1  v120
 BYTE   W24
 BYTE   N06  As1  v116
 BYTE   W24
 BYTE   N09
 BYTE   W24
 BYTE   PEND 
// 015   ----------------------------------------
 BYTE   N12  Gs1  v120
 BYTE   W36
 BYTE   Gs1  v116
 BYTE   W36
 BYTE   Gs1  v120
 BYTE   W24
// 016   ----------------------------------------
 BYTE   N06  Gs1  v116
 BYTE   W24
 BYTE   N09
 BYTE   W24
 BYTE   N12  Gn1  v120
 BYTE   W36
 BYTE   Gn1  v116
 BYTE   W12
// 017   ----------------------------------------
 BYTE   W24
 BYTE   Gn1  v120
 BYTE   W24
 BYTE   N06  Gn1  v116
 BYTE   W24
 BYTE   N09
 BYTE   W24
// 018   ----------------------------------------
 BYTE   PATT
  POIN2 Label_6_01372439
// 019   ----------------------------------------
 BYTE   PATT
  POIN2 Label_6_01372420
// 020   ----------------------------------------
 BYTE   PATT
  POIN2 Label_6_0137242D
// 021   ----------------------------------------
 BYTE   PATT
  POIN2 Label_6_01372439
// 022   ----------------------------------------
 BYTE   PATT
  POIN2 Label_6_01372420
// 023   ----------------------------------------
 BYTE   PATT
  POIN2 Label_6_0137242D
// 024   ----------------------------------------
 BYTE   PATT
  POIN2 Label_6_01372439
// 025   ----------------------------------------
 BYTE   PATT
  POIN2 Label_6_01372420
// 026   ----------------------------------------
 BYTE   PATT
  POIN2 Label_6_0137242D
// 027   ----------------------------------------
 BYTE   PATT
  POIN2 Label_6_01372439
// 028   ----------------------------------------
 BYTE   PATT
  POIN2 Label_6_01372420
// 029   ----------------------------------------
 BYTE   PATT
  POIN2 Label_6_0137242D
// 030   ----------------------------------------
 BYTE   PATT
  POIN2 Label_6_0137246A
// 031   ----------------------------------------
 BYTE   PATT
  POIN2 Label_6_01372475
// 032   ----------------------------------------
 BYTE   PATT
  POIN2 Label_6_01372483
// 033   ----------------------------------------
 BYTE   N12  Gn1  v120
 BYTE   W36
 BYTE   Gn1  v116
 BYTE   W36
 BYTE   Gn1  v120
 BYTE   W24
// 034   ----------------------------------------
 BYTE   N06  Dn2  v116
 BYTE   W24
 BYTE   N09  Gn1
 BYTE   W24
 BYTE   N12  As1  v120
 BYTE   W36
 BYTE   As1  v116
 BYTE   W12
// 035   ----------------------------------------
 BYTE   W24
 BYTE   Cn2  v120
 BYTE   W24
 BYTE   N06  Cn2  v116
 BYTE   W24
 BYTE   N09
 BYTE   W24
// 036   ----------------------------------------
 BYTE   PATT
  POIN2 Label_6_01372439
// 037   ----------------------------------------
 BYTE   N06  An1  v112
 BYTE   W24
 BYTE   N09
 BYTE   W24
 BYTE   N12  Dn2  v120
 BYTE   W36
 BYTE   N12
 BYTE   W12
// 038   ----------------------------------------
 BYTE   W24
 BYTE   N12
 BYTE   W24
 BYTE   N06  An1  v112
 BYTE   W24
 BYTE   N09
 BYTE   W24
// 039   ----------------------------------------
Label_6_01372537:
 BYTE   N06  Ds1  v120
 BYTE   W36
 BYTE   N06
 BYTE   W12
 BYTE   N06
 BYTE   W48
 BYTE   PEND 
// 040   ----------------------------------------
Label_6_01372540:
 BYTE   N06  Ds1  v120
 BYTE   W24
 BYTE   N06
 BYTE   W24
 BYTE   N06
 BYTE   W36
 BYTE   N06
 BYTE   W12
 BYTE   PEND 
// 041   ----------------------------------------
Label_6_0137254B:
 BYTE   N06  Ds1  v120
 BYTE   W48
 BYTE   N06
 BYTE   W24
 BYTE   N06
 BYTE   W24
 BYTE   PEND 
// 042   ----------------------------------------
Label_6_01372554:
 BYTE   N06  As1  v120
 BYTE   W36
 BYTE   N06
 BYTE   W12
 BYTE   N06
 BYTE   W48
 BYTE   PEND 
// 043   ----------------------------------------
Label_6_0137255D:
 BYTE   N06  As1  v120
 BYTE   W24
 BYTE   N06
 BYTE   W24
 BYTE   N06
 BYTE   W36
 BYTE   N06
 BYTE   W12
 BYTE   PEND 
// 044   ----------------------------------------
Label_6_01372568:
 BYTE   N06  As1  v120
 BYTE   W48
 BYTE   N06
 BYTE   W24
 BYTE   N06
 BYTE   W24
 BYTE   PEND 
// 045   ----------------------------------------
 BYTE   PATT
  POIN2 Label_6_01372537
// 046   ----------------------------------------
 BYTE   PATT
  POIN2 Label_6_01372540
// 047   ----------------------------------------
 BYTE   PATT
  POIN2 Label_6_0137254B
// 048   ----------------------------------------
 BYTE   PATT
  POIN2 Label_6_01372554
// 049   ----------------------------------------
 BYTE   PATT
  POIN2 Label_6_0137255D
// 050   ----------------------------------------
 BYTE   PATT
  POIN2 Label_6_01372568
// 051   ----------------------------------------
 BYTE   N06  Cn2  v120
 BYTE   W36
 BYTE   N06
 BYTE   W12
 BYTE   N06
 BYTE   W48
// 052   ----------------------------------------
 BYTE   N06
 BYTE   W24
 BYTE   N06
 BYTE   W24
 BYTE   N06
 BYTE   W36
 BYTE   N06
 BYTE   W12
// 053   ----------------------------------------
 BYTE   N06
 BYTE   W48
 BYTE   N06
 BYTE   W24
 BYTE   N06
 BYTE   W24
// 054   ----------------------------------------
 BYTE   Dn2
 BYTE   W36
 BYTE   N06
 BYTE   W12
 BYTE   N06
 BYTE   W48
// 055   ----------------------------------------
 BYTE   N06
 BYTE   W24
 BYTE   N06
 BYTE   W24
 BYTE   N06
 BYTE   W36
 BYTE   N06
 BYTE   W12
// 056   ----------------------------------------
 BYTE   N06
 BYTE   W48
 BYTE   N06
 BYTE   W24
 BYTE   N06
 BYTE   W24
// 057   ----------------------------------------
Label_6_013725B9:
 BYTE   N06  Gn1  v127
 BYTE   W12
 BYTE   N06
 BYTE   W24
 BYTE   N06
 BYTE   W12
 BYTE   N06
 BYTE   W12
 BYTE   N06
 BYTE   W12
 BYTE   N06
 BYTE   W12
 BYTE   N06
 BYTE   W12
 BYTE   PEND 
// 058   ----------------------------------------
Label_6_013725CA:
 BYTE   W12
 BYTE   N06  Gn1  v127
 BYTE   W12
 BYTE   N06
 BYTE   W12
 BYTE   N06
 BYTE   W12
 BYTE   N06
 BYTE   W12
 BYTE   N06
 BYTE   W24
 BYTE   N06
 BYTE   W12
 BYTE   PEND 
// 059   ----------------------------------------
Label_6_013725DA:
 BYTE   N06  Gn1  v127
 BYTE   W12
 BYTE   N06
 BYTE   W12
 BYTE   Cn2
 BYTE   W12
 BYTE   N06
 BYTE   W24
 BYTE   N06
 BYTE   W12
 BYTE   N06
 BYTE   W12
 BYTE   N06
 BYTE   W12
 BYTE   PEND 
// 060   ----------------------------------------
 BYTE   PATT
  POIN2 Label_6_013725B9
// 061   ----------------------------------------
 BYTE   PATT
  POIN2 Label_6_013725CA
// 062   ----------------------------------------
 BYTE   PATT
  POIN2 Label_6_013725DA
// 063   ----------------------------------------
 BYTE   N06  Dn1  v127
 BYTE   W12
 BYTE   N06
 BYTE   W24
 BYTE   N06
 BYTE   W12
 BYTE   N06
 BYTE   W12
 BYTE   N06
 BYTE   W12
 BYTE   En1
 BYTE   W12
 BYTE   N06
 BYTE   W12
// 064   ----------------------------------------
 BYTE   W12
 BYTE   N06
 BYTE   W12
 BYTE   N06
 BYTE   W12
 BYTE   N06
 BYTE   W12
 BYTE   Fs1
 BYTE   W12
 BYTE   N06
 BYTE   W24
 BYTE   N06
 BYTE   W12
// 065   ----------------------------------------
 BYTE   N06
 BYTE   W12
 BYTE   N06
 BYTE   W12
 BYTE   N06
 BYTE   W12
 BYTE   N06
 BYTE   W24
 BYTE   N06
 BYTE   W12
 BYTE   N06
 BYTE   W12
 BYTE   N06
 BYTE   W12
// 066   ----------------------------------------
 BYTE   PATT
  POIN2 Label_6_013725B9
// 067   ----------------------------------------
 BYTE   PATT
  POIN2 Label_6_013725CA
// 068   ----------------------------------------
 BYTE   PATT
  POIN2 Label_6_013725DA
// 069   ----------------------------------------
 BYTE   PATT
  POIN2 Label_6_013725B9
// 070   ----------------------------------------
 BYTE   PATT
  POIN2 Label_6_013725CA
// 071   ----------------------------------------
 BYTE   PATT
  POIN2 Label_6_013725DA
// 072   ----------------------------------------
 BYTE   N06  An1  v127
 BYTE   W12
 BYTE   N06
 BYTE   W24
 BYTE   N06
 BYTE   W12
 BYTE   N06
 BYTE   W12
 BYTE   N06
 BYTE   W12
 BYTE   N06
 BYTE   W12
 BYTE   N06
 BYTE   W12
// 073   ----------------------------------------
 BYTE   W12
 BYTE   N06
 BYTE   W12
 BYTE   N06
 BYTE   W12
 BYTE   N06
 BYTE   W12
 BYTE   N06
 BYTE   W12
 BYTE   N06
 BYTE   W24
 BYTE   N06
 BYTE   W12
// 074   ----------------------------------------
 BYTE   N06
 BYTE   W12
 BYTE   N06
 BYTE   W12
 BYTE   N06
 BYTE   W12
 BYTE   N06
 BYTE   W24
 BYTE   N06
 BYTE   W12
 BYTE   N06
 BYTE   W12
 BYTE   N06
 BYTE   W12
// 075   ----------------------------------------
 BYTE   PATT
  POIN2 Label_6_01372439
// 076   ----------------------------------------
 BYTE   PATT
  POIN2 Label_6_01372420
// 077   ----------------------------------------
 BYTE   PATT
  POIN2 Label_6_0137242D
// 078   ----------------------------------------
 BYTE   PATT
  POIN2 Label_6_01372439
// 079   ----------------------------------------
 BYTE   PATT
  POIN2 Label_6_01372420
// 080   ----------------------------------------
 BYTE   PATT
  POIN2 Label_6_0137242D
// 081   ----------------------------------------
 BYTE   GoTo
  POIN2 Label_6_01372439
// 082   ----------------------------------------
 BYTE   W07
 BYTE   FINE

//**************** Track 8 (Midi-Chn.7) ****************//

CouragePrayer_008:
// 000   ----------------------------------------
 BYTE   KEYSH   CouragePrayer_key+0
 BYTE   VOICE   45
 BYTE   VOL   22*CouragePrayer_mvl/mxv
 BYTE   PAN   c_v+4
 BYTE   W12
 BYTE   N11  Dn1  v120
 BYTE   W12
 BYTE   Fn1  v112
 BYTE   N11  An1  v120
 BYTE   W12
 BYTE   An1  v112
 BYTE   N11  Dn2  v120
 BYTE   W12
 BYTE   N24  Fn2  v112
 BYTE   N24  An2  v120
 BYTE   W48
// 001   ----------------------------------------
Label_7_01371C88:
 BYTE   W60
 BYTE   N11  Cn1  v120
 BYTE   W12
 BYTE   En1  v112
 BYTE   N11  An1  v120
 BYTE   W12
 BYTE   An1  v112
 BYTE   N11  Cn2  v120
 BYTE   W12
 BYTE   PEND 
// 002   ----------------------------------------
Label_7_01371C9A:
 BYTE   N24  En2  v112
 BYTE   N24  An2  v120
 BYTE   W96
 BYTE   PEND 
// 003   ----------------------------------------
Label_7_01371CA2:
 BYTE   W12
 BYTE   N11  Dn1  v120
 BYTE   W12
 BYTE   Fn1  v112
 BYTE   N11  An1  v120
 BYTE   W12
 BYTE   An1  v112
 BYTE   N11  Dn2  v120
 BYTE   W12
 BYTE   N24  Fn2  v112
 BYTE   N24  An2  v120
 BYTE   W48
 BYTE   PEND 
// 004   ----------------------------------------
 BYTE   PATT
  POIN2 Label_7_01371C88
// 005   ----------------------------------------
 BYTE   PATT
  POIN2 Label_7_01371C9A
// 006   ----------------------------------------
 BYTE   PATT
  POIN2 Label_7_01371CA2
// 007   ----------------------------------------
 BYTE   PATT
  POIN2 Label_7_01371C88
// 008   ----------------------------------------
 BYTE   PATT
  POIN2 Label_7_01371C9A
// 009   ----------------------------------------
 BYTE   PATT
  POIN2 Label_7_01371CA2
// 010   ----------------------------------------
 BYTE   PATT
  POIN2 Label_7_01371C88
// 011   ----------------------------------------
 BYTE   PATT
  POIN2 Label_7_01371C9A
// 012   ----------------------------------------
Label_7_01371CE3:
 BYTE   N24  As1  v120
 BYTE   W36
 BYTE   As1  v116
 BYTE   W36
 BYTE   Cn2  v120
 BYTE   W24
 BYTE   PEND 
// 013   ----------------------------------------
Label_7_01371CEE:
 BYTE   N24  Cn2  v116
 BYTE   W24
 BYTE   N24
 BYTE   W24
 BYTE   Fn2  v120
 BYTE   W36
 BYTE   Fn2  v116
 BYTE   W12
 BYTE   PEND 
// 014   ----------------------------------------
Label_7_01371CFB:
 BYTE   W24
 BYTE   N24  As1  v120
 BYTE   W24
 BYTE   As1  v116
 BYTE   W24
 BYTE   N24
 BYTE   W24
 BYTE   PEND 
// 015   ----------------------------------------
 BYTE   Gs1  v120
 BYTE   W36
 BYTE   Gs1  v116
 BYTE   W36
 BYTE   Gs1  v120
 BYTE   W24
// 016   ----------------------------------------
 BYTE   Gs1  v116
 BYTE   W24
 BYTE   N24
 BYTE   W24
 BYTE   Gn1  v120
 BYTE   W36
 BYTE   Gn1  v116
 BYTE   W12
// 017   ----------------------------------------
 BYTE   W24
 BYTE   N11  Gn1  v120
 BYTE   W12
 BYTE   N11
 BYTE   W12
 BYTE   An1  v112
 BYTE   N11  Dn2  v120
 BYTE   W12
 BYTE   Dn2  v112
 BYTE   N11  Gn2  v120
 BYTE   W12
 BYTE   N24  An2  v112
 BYTE   N24  Dn3  v120
 BYTE   W24
// 018   ----------------------------------------
 BYTE   PATT
  POIN2 Label_7_01371CA2
// 019   ----------------------------------------
 BYTE   PATT
  POIN2 Label_7_01371C88
// 020   ----------------------------------------
 BYTE   PATT
  POIN2 Label_7_01371C9A
// 021   ----------------------------------------
 BYTE   PATT
  POIN2 Label_7_01371CA2
// 022   ----------------------------------------
 BYTE   PATT
  POIN2 Label_7_01371C88
// 023   ----------------------------------------
 BYTE   PATT
  POIN2 Label_7_01371C9A
// 024   ----------------------------------------
 BYTE   PATT
  POIN2 Label_7_01371CA2
// 025   ----------------------------------------
 BYTE   PATT
  POIN2 Label_7_01371C88
// 026   ----------------------------------------
 BYTE   PATT
  POIN2 Label_7_01371C9A
// 027   ----------------------------------------
 BYTE   PATT
  POIN2 Label_7_01371CA2
// 028   ----------------------------------------
 BYTE   PATT
  POIN2 Label_7_01371C88
// 029   ----------------------------------------
 BYTE   PATT
  POIN2 Label_7_01371C9A
// 030   ----------------------------------------
 BYTE   PATT
  POIN2 Label_7_01371CE3
// 031   ----------------------------------------
 BYTE   PATT
  POIN2 Label_7_01371CEE
// 032   ----------------------------------------
 BYTE   PATT
  POIN2 Label_7_01371CFB
// 033   ----------------------------------------
 BYTE   N24  Gn1  v120
 BYTE   W36
 BYTE   Gn1  v116
 BYTE   W36
 BYTE   Gn1  v120
 BYTE   W24
// 034   ----------------------------------------
 BYTE   Dn2  v116
 BYTE   W24
 BYTE   Gn1
 BYTE   W24
 BYTE   As1  v120
 BYTE   W36
 BYTE   As1  v116
 BYTE   W12
// 035   ----------------------------------------
 BYTE   W24
 BYTE   Cn2  v120
 BYTE   W24
 BYTE   Cn2  v116
 BYTE   W24
 BYTE   N24
 BYTE   W24
// 036   ----------------------------------------
 BYTE   Dn2  v120
 BYTE   W36
 BYTE   N24
 BYTE   W36
 BYTE   N24
 BYTE   W24
// 037   ----------------------------------------
 BYTE   An1  v112
 BYTE   W24
 BYTE   N24
 BYTE   W24
 BYTE   Dn2  v120
 BYTE   W36
 BYTE   N24
 BYTE   W12
// 038   ----------------------------------------
 BYTE   W24
 BYTE   N24
 BYTE   W24
 BYTE   An1  v112
 BYTE   W24
 BYTE   N24
 BYTE   W24
// 039   ----------------------------------------
Label_7_01371DB6:
 BYTE   W12
 BYTE   N11  Ds1  v120
 BYTE   W12
 BYTE   Gn1  v112
 BYTE   N11  As1  v120
 BYTE   W12
 BYTE   As1  v112
 BYTE   N11  Ds2  v120
 BYTE   W12
 BYTE   N24  Gn2  v112
 BYTE   N24  As2  v120
 BYTE   W48
 BYTE   PEND 
// 040   ----------------------------------------
Label_7_01371DCF:
 BYTE   W60
 BYTE   N11  Ds1  v120
 BYTE   W12
 BYTE   Gn1  v112
 BYTE   N11  As1  v120
 BYTE   W12
 BYTE   As1  v112
 BYTE   N11  Ds2  v120
 BYTE   W12
 BYTE   PEND 
// 041   ----------------------------------------
Label_7_01371DE1:
 BYTE   N24  Gn2  v112
 BYTE   N24  As2  v120
 BYTE   W96
 BYTE   PEND 
// 042   ----------------------------------------
Label_7_01371DE9:
 BYTE   W12
 BYTE   N11  As1  v120
 BYTE   W12
 BYTE   Dn2  v112
 BYTE   N11  Fn2  v120
 BYTE   W12
 BYTE   Fn2  v112
 BYTE   N11  As2  v120
 BYTE   W12
 BYTE   N24  Dn3  v112
 BYTE   N24  Fn3  v120
 BYTE   W48
 BYTE   PEND 
// 043   ----------------------------------------
Label_7_01371E02:
 BYTE   W60
 BYTE   N11  As1  v120
 BYTE   W12
 BYTE   Dn2  v112
 BYTE   N11  Fn2  v120
 BYTE   W12
 BYTE   Fn2  v112
 BYTE   N11  As2  v120
 BYTE   W12
 BYTE   PEND 
// 044   ----------------------------------------
Label_7_01371E14:
 BYTE   N24  Dn3  v112
 BYTE   N24  Fn3  v120
 BYTE   W96
 BYTE   PEND 
// 045   ----------------------------------------
 BYTE   PATT
  POIN2 Label_7_01371DB6
// 046   ----------------------------------------
 BYTE   PATT
  POIN2 Label_7_01371DCF
// 047   ----------------------------------------
 BYTE   PATT
  POIN2 Label_7_01371DE1
// 048   ----------------------------------------
 BYTE   PATT
  POIN2 Label_7_01371DE9
// 049   ----------------------------------------
 BYTE   PATT
  POIN2 Label_7_01371E02
// 050   ----------------------------------------
 BYTE   PATT
  POIN2 Label_7_01371E14
// 051   ----------------------------------------
 BYTE   W96
// 052   ----------------------------------------
 BYTE   W96
// 053   ----------------------------------------
 BYTE   W96
// 054   ----------------------------------------
 BYTE   W96
// 055   ----------------------------------------
 BYTE   W96
// 056   ----------------------------------------
 BYTE   W96
// 057   ----------------------------------------
 BYTE   W96
// 058   ----------------------------------------
 BYTE   W96
// 059   ----------------------------------------
 BYTE   W96
// 060   ----------------------------------------
 BYTE   W96
// 061   ----------------------------------------
 BYTE   W96
// 062   ----------------------------------------
 BYTE   W96
// 063   ----------------------------------------
 BYTE   W96
// 064   ----------------------------------------
 BYTE   W96
// 065   ----------------------------------------
 BYTE   W96
// 066   ----------------------------------------
 BYTE   W96
// 067   ----------------------------------------
 BYTE   W96
// 068   ----------------------------------------
 BYTE   W96
// 069   ----------------------------------------
 BYTE   W96
// 070   ----------------------------------------
 BYTE   W96
// 071   ----------------------------------------
 BYTE   W96
// 072   ----------------------------------------
 BYTE   W96
// 073   ----------------------------------------
 BYTE   W96
// 074   ----------------------------------------
 BYTE   W96
// 075   ----------------------------------------
 BYTE   PATT
  POIN2 Label_7_01371CA2
// 076   ----------------------------------------
 BYTE   PATT
  POIN2 Label_7_01371C88
// 077   ----------------------------------------
 BYTE   PATT
  POIN2 Label_7_01371C9A
// 078   ----------------------------------------
 BYTE   PATT
  POIN2 Label_7_01371CA2
// 079   ----------------------------------------
 BYTE   PATT
  POIN2 Label_7_01371C88
// 080   ----------------------------------------
 BYTE   PATT
  POIN2 Label_7_01371C9A
// 081   ----------------------------------------
 BYTE   GoTo
  POIN2 Label_7_01371CA2
// 082   ----------------------------------------
 BYTE   W07
 BYTE   FINE

//**************** Track 9 (Midi-Chn.8) ****************//

CouragePrayer_009:
// 000   ----------------------------------------
 BYTE   KEYSH   CouragePrayer_key+0
 BYTE   VOICE   14
 BYTE   VOL   28*CouragePrayer_mvl/mxv
 BYTE   PAN   c_v+0
 BYTE   W96
// 001   ----------------------------------------
 BYTE   W96
// 002   ----------------------------------------
 BYTE   W96
// 003   ----------------------------------------
Label_8_0131553B:
 BYTE   W96
// 004   ----------------------------------------
 BYTE   W96
// 005   ----------------------------------------
 BYTE   W96
// 006   ----------------------------------------
 BYTE   W96
// 007   ----------------------------------------
 BYTE   W96
// 008   ----------------------------------------
 BYTE   W96
// 009   ----------------------------------------
 BYTE   W96
// 010   ----------------------------------------
 BYTE   W96
// 011   ----------------------------------------
 BYTE   W96
// 012   ----------------------------------------
 BYTE   W96
// 013   ----------------------------------------
 BYTE   W96
// 014   ----------------------------------------
 BYTE   W96
// 015   ----------------------------------------
 BYTE   W96
// 016   ----------------------------------------
 BYTE   W96
// 017   ----------------------------------------
 BYTE   W96
// 018   ----------------------------------------
 BYTE   W96
// 019   ----------------------------------------
 BYTE   W96
// 020   ----------------------------------------
 BYTE   W96
// 021   ----------------------------------------
 BYTE   W96
// 022   ----------------------------------------
 BYTE   W96
// 023   ----------------------------------------
 BYTE   W96
// 024   ----------------------------------------
 BYTE   W96
// 025   ----------------------------------------
 BYTE   W96
// 026   ----------------------------------------
 BYTE   W96
// 027   ----------------------------------------
 BYTE   W96
// 028   ----------------------------------------
 BYTE   W96
// 029   ----------------------------------------
 BYTE   W96
// 030   ----------------------------------------
 BYTE   W96
// 031   ----------------------------------------
 BYTE   W96
// 032   ----------------------------------------
 BYTE   W96
// 033   ----------------------------------------
 BYTE   W96
// 034   ----------------------------------------
 BYTE   W96
// 035   ----------------------------------------
 BYTE   W96
// 036   ----------------------------------------
 BYTE   W96
// 037   ----------------------------------------
 BYTE   W96
// 038   ----------------------------------------
 BYTE   W96
// 039   ----------------------------------------
 BYTE   W96
// 040   ----------------------------------------
 BYTE   W96
// 041   ----------------------------------------
 BYTE   W96
// 042   ----------------------------------------
 BYTE   W96
// 043   ----------------------------------------
 BYTE   W96
// 044   ----------------------------------------
 BYTE   W96
// 045   ----------------------------------------
 BYTE   W96
// 046   ----------------------------------------
 BYTE   W96
// 047   ----------------------------------------
 BYTE   W96
// 048   ----------------------------------------
 BYTE   W96
// 049   ----------------------------------------
 BYTE   W96
// 050   ----------------------------------------
 BYTE   W96
// 051   ----------------------------------------
 BYTE   N72  Cn4  v096
 BYTE   W01
 BYTE   Gn3
 BYTE   W92
 BYTE   W03
// 052   ----------------------------------------
 BYTE   W96
// 053   ----------------------------------------
 BYTE   W96
// 054   ----------------------------------------
 BYTE   W96
// 055   ----------------------------------------
 BYTE   W96
// 056   ----------------------------------------
 BYTE   W96
// 057   ----------------------------------------
Label_8_01315577:
 BYTE   N72  Dn4  v120
 BYTE   W01
 BYTE   Gn3
 BYTE   W92
 BYTE   W03
 BYTE   PEND 
// 058   ----------------------------------------
 BYTE   W96
// 059   ----------------------------------------
Label_8_01315580:
 BYTE   W24
 BYTE   N72  Cn4  v120
 BYTE   W01
 BYTE   Gn3
 BYTE   W68
 BYTE   W03
 BYTE   PEND 
// 060   ----------------------------------------
 BYTE   PATT
  POIN2 Label_8_01315577
// 061   ----------------------------------------
 BYTE   W96
// 062   ----------------------------------------
 BYTE   PATT
  POIN2 Label_8_01315580
// 063   ----------------------------------------
 BYTE   N72  Dn4  v120
 BYTE   W01
 BYTE   Fs3
 BYTE   W92
 BYTE   W03
// 064   ----------------------------------------
 BYTE   W48
 BYTE   Dn4
 BYTE   W01
 BYTE   Fs3
 BYTE   W44
 BYTE   W03
// 065   ----------------------------------------
 BYTE   W96
// 066   ----------------------------------------
 BYTE   PATT
  POIN2 Label_8_01315577
// 067   ----------------------------------------
 BYTE   W96
// 068   ----------------------------------------
 BYTE   PATT
  POIN2 Label_8_01315580
// 069   ----------------------------------------
 BYTE   PATT
  POIN2 Label_8_01315577
// 070   ----------------------------------------
 BYTE   W96
// 071   ----------------------------------------
 BYTE   PATT
  POIN2 Label_8_01315580
// 072   ----------------------------------------
 BYTE   N72  Cs4  v120
 BYTE   W01
 BYTE   An3
 BYTE   W92
 BYTE   W03
// 073   ----------------------------------------
 BYTE   W48
 BYTE   Cs4
 BYTE   W01
 BYTE   An3
 BYTE   W44
 BYTE   W03
// 074   ----------------------------------------
 BYTE   W96
// 075   ----------------------------------------
 BYTE   Dn4
 BYTE   W01
 BYTE   An3
 BYTE   W92
 BYTE   W03
// 076   ----------------------------------------
 BYTE   W96
// 077   ----------------------------------------
 BYTE   W96
// 078   ----------------------------------------
 BYTE   W96
// 079   ----------------------------------------
 BYTE   W96
// 080   ----------------------------------------
 BYTE   W96
// 081   ----------------------------------------
 BYTE   GoTo
  POIN2 Label_8_0131553B
// 082   ----------------------------------------
 BYTE   W07
 BYTE   FINE

//**************** Track 10 (Midi-Chn.9) ****************//

CouragePrayer_010:
// 000   ----------------------------------------
 BYTE   KEYSH   CouragePrayer_key+0
 BYTE   VOICE   127
 BYTE   VOL   22*CouragePrayer_mvl/mxv
 BYTE   PAN   c_v+0
 BYTE   N12  Dn1  v092
 BYTE   W12
 BYTE   N06  Dn1  v080
 BYTE   W06
 BYTE   Dn1  v084
 BYTE   W06
 BYTE   N12  Dn1  v088
 BYTE   W12
 BYTE   Dn1  v092
 BYTE   W12
 BYTE   N06  Dn1  v072
 BYTE   W06
 BYTE   N06
 BYTE   W06
 BYTE   N12  Dn1  v080
 BYTE   W12
 BYTE   N12
 BYTE   W12
 BYTE   N06  Dn1  v072
 BYTE   W06
 BYTE   Dn1  v076
 BYTE   W06
// 001   ----------------------------------------
Label_9_01371641:
 BYTE   N06  Dn1  v080
 BYTE   W06
 BYTE   N03  Dn1  v072
 BYTE   W03
 BYTE   N03
 BYTE   W03
 BYTE   N06
 BYTE   W06
 BYTE   Dn1  v076
 BYTE   W06
 BYTE   N01  Dn1  v084
 BYTE   W01
 BYTE   N11  Dn1  v072
 BYTE   W11
 BYTE   N06
 BYTE   W06
 BYTE   N06
 BYTE   W06
 BYTE   N12  Dn1  v080
 BYTE   W12
 BYTE   N06  Dn1  v072
 BYTE   W06
 BYTE   N06
 BYTE   W06
 BYTE   N12  Dn1  v080
 BYTE   W12
 BYTE   N12
 BYTE   W12
 BYTE   PEND 
// 002   ----------------------------------------
Label_9_0137166D:
 BYTE   N06  Dn1  v072
 BYTE   W06
 BYTE   N06
 BYTE   W06
 BYTE   N12  Dn1  v080
 BYTE   W12
 BYTE   N12
 BYTE   W12
 BYTE   N06  Dn1  v072
 BYTE   W06
 BYTE   Dn1  v076
 BYTE   W06
 BYTE   Dn1  v080
 BYTE   W06
 BYTE   N03  Dn1  v072
 BYTE   W03
 BYTE   N03
 BYTE   W03
 BYTE   N06
 BYTE   W06
 BYTE   Dn1  v076
 BYTE   W06
 BYTE   N01  Dn1  v084
 BYTE   W01
 BYTE   N11  Dn1  v072
 BYTE   W11
 BYTE   N06
 BYTE   W06
 BYTE   N06
 BYTE   W06
 BYTE   PEND 
// 003   ----------------------------------------
Label_9_0137169B:
 BYTE   N12  Dn1  v080
 BYTE   W12
 BYTE   N06  Dn1  v072
 BYTE   W06
 BYTE   N06
 BYTE   W06
 BYTE   N12  Dn1  v080
 BYTE   W12
 BYTE   N12
 BYTE   W12
 BYTE   N06  Dn1  v072
 BYTE   W06
 BYTE   N06
 BYTE   W06
 BYTE   N12  Dn1  v080
 BYTE   W12
 BYTE   N12
 BYTE   W12
 BYTE   N06  Dn1  v072
 BYTE   W06
 BYTE   Dn1  v076
 BYTE   W06
 BYTE   PEND 
// 004   ----------------------------------------
 BYTE   PATT
  POIN2 Label_9_01371641
// 005   ----------------------------------------
 BYTE   PATT
  POIN2 Label_9_0137166D
// 006   ----------------------------------------
 BYTE   PATT
  POIN2 Label_9_0137169B
// 007   ----------------------------------------
 BYTE   PATT
  POIN2 Label_9_01371641
// 008   ----------------------------------------
 BYTE   PATT
  POIN2 Label_9_0137166D
// 009   ----------------------------------------
 BYTE   PATT
  POIN2 Label_9_0137169B
// 010   ----------------------------------------
 BYTE   PATT
  POIN2 Label_9_01371641
// 011   ----------------------------------------
Label_9_013716E2:
 BYTE   N06  Dn1  v072
 BYTE   W06
 BYTE   N06
 BYTE   W06
 BYTE   N12  Dn1  v080
 BYTE   W12
 BYTE   N12
 BYTE   W12
 BYTE   N06  Dn1  v072
 BYTE   W06
 BYTE   N06
 BYTE   W06
 BYTE   N12  Dn1  v080
 BYTE   W12
 BYTE   N12
 BYTE   W12
 BYTE   N06  Dn1  v072
 BYTE   W06
 BYTE   N06
 BYTE   W06
 BYTE   N12  Dn1  v080
 BYTE   W12
 BYTE   PEND 
// 012   ----------------------------------------
 BYTE   N72  Cs2  v124
 BYTE   W96
// 013   ----------------------------------------
 BYTE   W96
// 014   ----------------------------------------
 BYTE   W96
// 015   ----------------------------------------
 BYTE   W60
 BYTE   N04  Dn1  v060
 BYTE   W04
 BYTE   Dn1  v064
 BYTE   W04
 BYTE   Dn1  v068
 BYTE   W04
 BYTE   N12  Dn1  v072
 BYTE   W12
 BYTE   N06  Dn1  v060
 BYTE   W06
 BYTE   Dn1  v064
 BYTE   W06
// 016   ----------------------------------------
 BYTE   N12  Dn1  v068
 BYTE   W12
 BYTE   Dn1  v072
 BYTE   W12
 BYTE   N06  Dn1  v060
 BYTE   W06
 BYTE   Dn1  v064
 BYTE   W06
 BYTE   N12  Dn1  v068
 BYTE   W12
 BYTE   N01  Dn1  v072
 BYTE   W01
 BYTE   N11  Dn1  v060
 BYTE   W44
 BYTE   W03
// 017   ----------------------------------------
 BYTE   W12
 BYTE   N04  Dn1  v068
 BYTE   W04
 BYTE   N04
 BYTE   W04
 BYTE   Dn1  v072
 BYTE   W04
 BYTE   N12  Dn1  v076
 BYTE   W12
 BYTE   N06  Dn1  v068
 BYTE   W06
 BYTE   N06
 BYTE   W06
 BYTE   N12  Dn1  v072
 BYTE   W12
 BYTE   Dn1  v076
 BYTE   W12
 BYTE   N06  Dn1  v068
 BYTE   W06
 BYTE   N06
 BYTE   W06
 BYTE   N12  Dn1  v072
 BYTE   W12
// 018   ----------------------------------------
Label_9_01371761:
 BYTE   N12  Dn1  v080
 BYTE   N72  Cs2  v124
 BYTE   W12
 BYTE   N06  Dn1  v072
 BYTE   W06
 BYTE   N06
 BYTE   W06
 BYTE   N12  Dn1  v080
 BYTE   W12
 BYTE   N12
 BYTE   W12
 BYTE   N06  Dn1  v072
 BYTE   W06
 BYTE   N06
 BYTE   W06
 BYTE   N12  Dn1  v080
 BYTE   W12
 BYTE   N12
 BYTE   W12
 BYTE   N06  Dn1  v072
 BYTE   W06
 BYTE   Dn1  v076
 BYTE   W06
 BYTE   PEND 
// 019   ----------------------------------------
 BYTE   PATT
  POIN2 Label_9_01371641
// 020   ----------------------------------------
 BYTE   PATT
  POIN2 Label_9_0137166D
// 021   ----------------------------------------
 BYTE   PATT
  POIN2 Label_9_0137169B
// 022   ----------------------------------------
 BYTE   PATT
  POIN2 Label_9_01371641
// 023   ----------------------------------------
 BYTE   PATT
  POIN2 Label_9_0137166D
// 024   ----------------------------------------
 BYTE   PATT
  POIN2 Label_9_0137169B
// 025   ----------------------------------------
 BYTE   PATT
  POIN2 Label_9_01371641
// 026   ----------------------------------------
 BYTE   PATT
  POIN2 Label_9_0137166D
// 027   ----------------------------------------
 BYTE   PATT
  POIN2 Label_9_0137169B
// 028   ----------------------------------------
 BYTE   PATT
  POIN2 Label_9_01371641
// 029   ----------------------------------------
 BYTE   PATT
  POIN2 Label_9_013716E2
// 030   ----------------------------------------
 BYTE   PATT
  POIN2 Label_9_01371761
// 031   ----------------------------------------
 BYTE   PATT
  POIN2 Label_9_01371641
// 032   ----------------------------------------
 BYTE   PATT
  POIN2 Label_9_0137166D
// 033   ----------------------------------------
 BYTE   PATT
  POIN2 Label_9_0137169B
// 034   ----------------------------------------
 BYTE   PATT
  POIN2 Label_9_01371641
// 035   ----------------------------------------
 BYTE   PATT
  POIN2 Label_9_0137166D
// 036   ----------------------------------------
 BYTE   PATT
  POIN2 Label_9_0137169B
// 037   ----------------------------------------
 BYTE   PATT
  POIN2 Label_9_01371641
// 038   ----------------------------------------
 BYTE   PATT
  POIN2 Label_9_0137166D
// 039   ----------------------------------------
Label_9_013717EC:
 BYTE   N12  Dn1  v080
 BYTE   N72  Cs2  v124
 BYTE   W12
 BYTE   N06  Dn1  v068
 BYTE   W06
 BYTE   Dn1  v072
 BYTE   W06
 BYTE   N12  Dn1  v076
 BYTE   W12
 BYTE   Dn1  v080
 BYTE   W12
 BYTE   N06  Dn1  v068
 BYTE   W06
 BYTE   Dn1  v072
 BYTE   W06
 BYTE   N12  Dn1  v076
 BYTE   W12
 BYTE   Dn1  v080
 BYTE   W12
 BYTE   N06  Dn1  v068
 BYTE   W06
 BYTE   Dn1  v072
 BYTE   W06
 BYTE   PEND 
// 040   ----------------------------------------
Label_9_01371817:
 BYTE   N06  Dn1  v080
 BYTE   W06
 BYTE   N03  Dn1  v068
 BYTE   W03
 BYTE   N03
 BYTE   W03
 BYTE   N06  Dn1  v072
 BYTE   W06
 BYTE   N06
 BYTE   W06
 BYTE   N01  Dn1  v080
 BYTE   W01
 BYTE   N11  Dn1  v072
 BYTE   W11
 BYTE   N06  Dn1  v068
 BYTE   W06
 BYTE   Dn1  v072
 BYTE   W06
 BYTE   N12  Dn1  v080
 BYTE   W12
 BYTE   N06  Dn1  v068
 BYTE   W06
 BYTE   Dn1  v072
 BYTE   W06
 BYTE   N12  Dn1  v076
 BYTE   W12
 BYTE   Dn1  v080
 BYTE   W12
 BYTE   PEND 
// 041   ----------------------------------------
Label_9_01371849:
 BYTE   N06  Dn1  v068
 BYTE   W06
 BYTE   Dn1  v072
 BYTE   W06
 BYTE   N12  Dn1  v076
 BYTE   W12
 BYTE   Dn1  v080
 BYTE   W12
 BYTE   N06  Dn1  v068
 BYTE   W06
 BYTE   Dn1  v072
 BYTE   W06
 BYTE   Dn1  v080
 BYTE   W06
 BYTE   N03  Dn1  v068
 BYTE   W03
 BYTE   N03
 BYTE   W03
 BYTE   N06  Dn1  v072
 BYTE   W06
 BYTE   N06
 BYTE   W06
 BYTE   N01  Dn1  v080
 BYTE   W01
 BYTE   N11  Dn1  v072
 BYTE   W11
 BYTE   N06  Dn1  v068
 BYTE   W06
 BYTE   Dn1  v072
 BYTE   W06
 BYTE   PEND 
// 042   ----------------------------------------
Label_9_0137187D:
 BYTE   N12  Dn1  v080
 BYTE   W12
 BYTE   N06  Dn1  v068
 BYTE   W06
 BYTE   Dn1  v072
 BYTE   W06
 BYTE   N12  Dn1  v076
 BYTE   W12
 BYTE   Dn1  v080
 BYTE   W12
 BYTE   N06  Dn1  v068
 BYTE   W06
 BYTE   Dn1  v072
 BYTE   W06
 BYTE   N12  Dn1  v076
 BYTE   W12
 BYTE   Dn1  v080
 BYTE   W12
 BYTE   N06  Dn1  v068
 BYTE   W06
 BYTE   Dn1  v072
 BYTE   W06
 BYTE   PEND 
// 043   ----------------------------------------
 BYTE   PATT
  POIN2 Label_9_01371817
// 044   ----------------------------------------
 BYTE   PATT
  POIN2 Label_9_01371849
// 045   ----------------------------------------
 BYTE   PATT
  POIN2 Label_9_013717EC
// 046   ----------------------------------------
 BYTE   PATT
  POIN2 Label_9_01371817
// 047   ----------------------------------------
 BYTE   PATT
  POIN2 Label_9_01371849
// 048   ----------------------------------------
 BYTE   PATT
  POIN2 Label_9_0137187D
// 049   ----------------------------------------
 BYTE   PATT
  POIN2 Label_9_01371817
// 050   ----------------------------------------
 BYTE   PATT
  POIN2 Label_9_01371849
// 051   ----------------------------------------
 BYTE   PATT
  POIN2 Label_9_013717EC
// 052   ----------------------------------------
 BYTE   PATT
  POIN2 Label_9_01371817
// 053   ----------------------------------------
 BYTE   PATT
  POIN2 Label_9_01371849
// 054   ----------------------------------------
 BYTE   PATT
  POIN2 Label_9_0137187D
// 055   ----------------------------------------
 BYTE   PATT
  POIN2 Label_9_01371817
// 056   ----------------------------------------
 BYTE   N06  Dn1  v068
 BYTE   W06
 BYTE   Dn1  v072
 BYTE   W06
 BYTE   N12  Dn1  v076
 BYTE   W12
 BYTE   Dn1  v080
 BYTE   W12
 BYTE   N06  Dn1  v068
 BYTE   W06
 BYTE   Dn1  v072
 BYTE   W06
 BYTE   Dn1  v080
 BYTE   W06
 BYTE   N03  Dn1  v072
 BYTE   W03
 BYTE   N03
 BYTE   W03
 BYTE   N06
 BYTE   W06
 BYTE   Dn1  v076
 BYTE   W06
 BYTE   N01  Dn1  v084
 BYTE   W01
 BYTE   N05  Dn1  v076
 BYTE   W05
 BYTE   N06  Dn1  v080
 BYTE   W06
 BYTE   Dn1  v084
 BYTE   W06
 BYTE   N06
 BYTE   W06
// 057   ----------------------------------------
Label_9_0137191A:
 BYTE   N12  Dn1  v084
 BYTE   N72  Cs2  v124
 BYTE   W12
 BYTE   N06  Dn1  v072
 BYTE   W06
 BYTE   Dn1  v076
 BYTE   W06
 BYTE   N12  Dn1  v084
 BYTE   W12
 BYTE   N06  Dn1  v072
 BYTE   W06
 BYTE   Dn1  v076
 BYTE   W06
 BYTE   Dn1  v084
 BYTE   W06
 BYTE   Dn1  v076
 BYTE   W06
 BYTE   N12  Dn1  v080
 BYTE   W12
 BYTE   Dn1  v084
 BYTE   W12
 BYTE   N06  Dn1  v072
 BYTE   W06
 BYTE   Dn1  v080
 BYTE   W06
 BYTE   PEND 
// 058   ----------------------------------------
Label_9_01371948:
 BYTE   N06  Dn1  v084
 BYTE   W06
 BYTE   N03  Dn1  v072
 BYTE   W03
 BYTE   N03
 BYTE   W03
 BYTE   N06  Dn1  v076
 BYTE   W06
 BYTE   Dn1  v080
 BYTE   W06
 BYTE   N01  Dn1  v084
 BYTE   W01
 BYTE   N11  Dn1  v076
 BYTE   W11
 BYTE   N06  Dn1  v072
 BYTE   W06
 BYTE   Dn1  v076
 BYTE   W06
 BYTE   N12  Dn1  v084
 BYTE   W12
 BYTE   N06  Dn1  v072
 BYTE   W06
 BYTE   Dn1  v076
 BYTE   W06
 BYTE   N12  Dn1  v084
 BYTE   W12
 BYTE   N06  Dn1  v072
 BYTE   W06
 BYTE   Dn1  v076
 BYTE   W06
 BYTE   PEND 
// 059   ----------------------------------------
Label_9_0137197F:
 BYTE   N06  Dn1  v084
 BYTE   W06
 BYTE   Dn1  v076
 BYTE   W06
 BYTE   N12  Dn1  v080
 BYTE   W12
 BYTE   Dn1  v084
 BYTE   W12
 BYTE   N06  Dn1  v072
 BYTE   W06
 BYTE   Dn1  v080
 BYTE   W06
 BYTE   Dn1  v084
 BYTE   W06
 BYTE   N03  Dn1  v072
 BYTE   W03
 BYTE   N03
 BYTE   W03
 BYTE   N06  Dn1  v076
 BYTE   W06
 BYTE   Dn1  v080
 BYTE   W06
 BYTE   N01  Dn1  v084
 BYTE   W01
 BYTE   N11  Dn1  v076
 BYTE   W11
 BYTE   N06  Dn1  v072
 BYTE   W06
 BYTE   Dn1  v076
 BYTE   W06
 BYTE   PEND 
// 060   ----------------------------------------
 BYTE   PATT
  POIN2 Label_9_0137191A
// 061   ----------------------------------------
 BYTE   PATT
  POIN2 Label_9_01371948
// 062   ----------------------------------------
 BYTE   PATT
  POIN2 Label_9_0137197F
// 063   ----------------------------------------
 BYTE   PATT
  POIN2 Label_9_0137191A
// 064   ----------------------------------------
 BYTE   N06  Dn1  v084
 BYTE   W06
 BYTE   N03  Dn1  v072
 BYTE   W03
 BYTE   N03
 BYTE   W03
 BYTE   N06  Dn1  v076
 BYTE   W06
 BYTE   Dn1  v080
 BYTE   W06
 BYTE   N01  Dn1  v084
 BYTE   W01
 BYTE   N11  Dn1  v076
 BYTE   W11
 BYTE   N06  Dn1  v072
 BYTE   W06
 BYTE   Dn1  v076
 BYTE   W06
 BYTE   N12  Dn1  v084
 BYTE   N72  Cs2  v124
 BYTE   W12
 BYTE   N06  Dn1  v072
 BYTE   W06
 BYTE   Dn1  v076
 BYTE   W06
 BYTE   N12  Dn1  v084
 BYTE   W12
 BYTE   N06  Dn1  v072
 BYTE   W06
 BYTE   Dn1  v076
 BYTE   W06
// 065   ----------------------------------------
 BYTE   Dn1  v084
 BYTE   W06
 BYTE   Dn1  v076
 BYTE   W06
 BYTE   N12  Dn1  v080
 BYTE   W12
 BYTE   Dn1  v084
 BYTE   N72  Cs2  v124
 BYTE   W12
 BYTE   N06  Dn1  v072
 BYTE   W06
 BYTE   Dn1  v080
 BYTE   W06
 BYTE   Dn1  v084
 BYTE   W06
 BYTE   N03  Dn1  v072
 BYTE   W03
 BYTE   N03
 BYTE   W03
 BYTE   N06  Dn1  v076
 BYTE   W06
 BYTE   Dn1  v080
 BYTE   W06
 BYTE   N01  Dn1  v084
 BYTE   W01
 BYTE   N11  Dn1  v076
 BYTE   W11
 BYTE   N06  Dn1  v072
 BYTE   W06
 BYTE   Dn1  v076
 BYTE   W06
// 066   ----------------------------------------
 BYTE   PATT
  POIN2 Label_9_0137191A
// 067   ----------------------------------------
 BYTE   PATT
  POIN2 Label_9_01371948
// 068   ----------------------------------------
 BYTE   PATT
  POIN2 Label_9_0137197F
// 069   ----------------------------------------
Label_9_01371A46:
 BYTE   N12  Dn1  v084
 BYTE   N72  Cs2  v120
 BYTE   W12
 BYTE   N06  Dn1  v072
 BYTE   W06
 BYTE   Dn1  v076
 BYTE   W06
 BYTE   N12  Dn1  v084
 BYTE   W12
 BYTE   N06  Dn1  v072
 BYTE   W06
 BYTE   Dn1  v076
 BYTE   W06
 BYTE   Dn1  v084
 BYTE   W06
 BYTE   Dn1  v076
 BYTE   W06
 BYTE   N12  Dn1  v080
 BYTE   W12
 BYTE   Dn1  v084
 BYTE   W12
 BYTE   N06  Dn1  v072
 BYTE   W06
 BYTE   Dn1  v080
 BYTE   W06
 BYTE   PEND 
// 070   ----------------------------------------
 BYTE   PATT
  POIN2 Label_9_01371948
// 071   ----------------------------------------
 BYTE   PATT
  POIN2 Label_9_0137197F
// 072   ----------------------------------------
 BYTE   PATT
  POIN2 Label_9_01371A46
// 073   ----------------------------------------
 BYTE   N06  Dn1  v084
 BYTE   W06
 BYTE   N03  Dn1  v072
 BYTE   W03
 BYTE   N03
 BYTE   W03
 BYTE   N06  Dn1  v076
 BYTE   W06
 BYTE   Dn1  v080
 BYTE   W06
 BYTE   N01  Dn1  v084
 BYTE   W01
 BYTE   N11  Dn1  v076
 BYTE   W11
 BYTE   N06  Dn1  v072
 BYTE   W06
 BYTE   Dn1  v076
 BYTE   W06
 BYTE   N12  Dn1  v084
 BYTE   N72  Cs2  v120
 BYTE   W12
 BYTE   N06  Dn1  v072
 BYTE   W06
 BYTE   Dn1  v076
 BYTE   W06
 BYTE   N12  Dn1  v084
 BYTE   W12
 BYTE   N06  Dn1  v072
 BYTE   W06
 BYTE   Dn1  v076
 BYTE   W06
// 074   ----------------------------------------
 BYTE   Dn1  v084
 BYTE   W06
 BYTE   Dn1  v076
 BYTE   W06
 BYTE   N12  Dn1  v080
 BYTE   W12
 BYTE   Dn1  v084
 BYTE   N72  Cs2  v120
 BYTE   W12
 BYTE   N06  Dn1  v072
 BYTE   W06
 BYTE   Dn1  v080
 BYTE   W06
 BYTE   Dn1  v084
 BYTE   W06
 BYTE   N03  Dn1  v072
 BYTE   W03
 BYTE   N03
 BYTE   W03
 BYTE   N06  Dn1  v076
 BYTE   W06
 BYTE   Dn1  v080
 BYTE   W06
 BYTE   N01  Dn1  v084
 BYTE   W01
 BYTE   N11  Dn1  v076
 BYTE   W11
 BYTE   N06  Dn1  v072
 BYTE   W06
 BYTE   Dn1  v076
 BYTE   W06
// 075   ----------------------------------------
 BYTE   N12  Dn1  v080
 BYTE   N72  Cs2  v120
 BYTE   W12
 BYTE   N06  Dn1  v072
 BYTE   W06
 BYTE   N06
 BYTE   W06
 BYTE   N12  Dn1  v080
 BYTE   W12
 BYTE   N12
 BYTE   W12
 BYTE   N06  Dn1  v072
 BYTE   W06
 BYTE   N06
 BYTE   W06
 BYTE   N12  Dn1  v080
 BYTE   W12
 BYTE   N12
 BYTE   W12
 BYTE   N06  Dn1  v072
 BYTE   W06
 BYTE   Dn1  v076
 BYTE   W06
// 076   ----------------------------------------
 BYTE   PATT
  POIN2 Label_9_01371641
// 077   ----------------------------------------
 BYTE   PATT
  POIN2 Label_9_0137166D
// 078   ----------------------------------------
 BYTE   PATT
  POIN2 Label_9_0137169B
// 079   ----------------------------------------
 BYTE   PATT
  POIN2 Label_9_01371641
// 080   ----------------------------------------
 BYTE   PATT
  POIN2 Label_9_0137166D
// 081   ----------------------------------------
 BYTE   GoTo
  POIN2 Label_9_0137169B
// 082   ----------------------------------------
 BYTE   W07
 BYTE   FINE

//**************** Track 11 (Midi-Chn.10) ****************//

CouragePrayer_011:
// 000   ----------------------------------------
 BYTE   KEYSH   CouragePrayer_key+0
 BYTE   VOICE   71
 BYTE   VOL   9*CouragePrayer_mvl/mxv
 BYTE   PAN   c_v-54
 BYTE   BEND   c_v+1
 BYTE   W07
 BYTE   W88
 BYTE   W01
// 001   ----------------------------------------
 BYTE   W96
// 002   ----------------------------------------
Label_10_0137276A:
 BYTE   W54
 BYTE   W01
 BYTE   N48  An3  v096
 BYTE   N24  Dn4  v108
 BYTE   W24
 BYTE   En4  v112
 BYTE   W17
 BYTE   PEND 
// 003   ----------------------------------------
Label_10_01372777:
 BYTE   W07
 BYTE   N36  Dn4  v108
 BYTE   N36  Fn4  v116
 BYTE   W36
 BYTE   N12  An3  v100
 BYTE   N12  En4  v112
 BYTE   W12
 BYTE   N24  An3  v096
 BYTE   N24  Dn4  v108
 BYTE   W24
 BYTE   TIE  An3
 BYTE   W17
 BYTE   PEND 
// 004   ----------------------------------------
Label_10_01372791:
 BYTE   W54
 BYTE   W01
 BYTE   W01
 BYTE   W01
 BYTE   W02
 BYTE   W01
 BYTE   W01
 BYTE   W02
 BYTE   W01
 BYTE   W01
 BYTE   W02
 BYTE   W01
 BYTE   W01
 BYTE   W01
 BYTE   W02
 BYTE   W01
 BYTE   W01
 BYTE   W02
 BYTE   W01
 BYTE   W01
 BYTE   W02
 BYTE   W01
 BYTE   W01
 BYTE   W01
 BYTE   W02
 BYTE   W01
 BYTE   W01
 BYTE   W02
 BYTE   W01
 BYTE   W01
 BYTE   W02
 BYTE   W01
 BYTE   W01
 BYTE   W01
 BYTE   PEND 
// 005   ----------------------------------------
Label_10_013727B4:
 BYTE   W01
 BYTE   W01
 BYTE   W01
 BYTE   W01
 BYTE   W02
 BYTE   W01
 BYTE   W01
 BYTE   W02
 BYTE   W01
 BYTE   W01
 BYTE   W02
 BYTE   W01
 BYTE   W01
 BYTE   W01
 BYTE   W02
 BYTE   W01
 BYTE   W01
 BYTE   W02
 BYTE   W01
 BYTE   W01
 BYTE   W02
 BYTE   W01
 BYTE   W01
 BYTE   W01
 BYTE   W01
 BYTE   PEND 
 BYTE   EOT
 BYTE   An3
 BYTE   W64
 BYTE   W01
// 006   ----------------------------------------
Label_10_013727D2:
 BYTE   W07
 BYTE   W88
 BYTE   W01
 BYTE   PEND 
// 007   ----------------------------------------
 BYTE   W96
// 008   ----------------------------------------
 BYTE   W96
// 009   ----------------------------------------
 BYTE   W96
// 010   ----------------------------------------
 BYTE   W96
// 011   ----------------------------------------
Label_10_013727DA:
 BYTE   W54
 BYTE   W01
 BYTE   N08  Fn3  v096
 BYTE   W08
 BYTE   Gn3  v100
 BYTE   W08
 BYTE   An3  v108
 BYTE   W08
 BYTE   As3  v112
 BYTE   W08
 BYTE   Cn4  v116
 BYTE   W08
 BYTE   Dn4  v120
 BYTE   W01
 BYTE   PEND 
// 012   ----------------------------------------
Label_10_013727F0:
 BYTE   W07
 BYTE   N48  En4  v112
 BYTE   W48
 BYTE   N12  Dn4
 BYTE   W12
 BYTE   En4
 BYTE   W12
 BYTE   N24  Fn4
 BYTE   W17
 BYTE   PEND 
// 013   ----------------------------------------
Label_10_013727FE:
 BYTE   W07
 BYTE   N24  En4  v112
 BYTE   W24
 BYTE   Dn4
 BYTE   W24
 BYTE   N48  An4
 BYTE   W40
 BYTE   W01
 BYTE   PEND 
// 014   ----------------------------------------
Label_10_0137280A:
 BYTE   W07
 BYTE   N24  En4  v112
 BYTE   W24
 BYTE   N66  Dn4
 BYTE   W64
 BYTE   W01
 BYTE   PEND 
// 015   ----------------------------------------
 BYTE   W07
 BYTE   N72  Gs3  v092
 BYTE   N48  Dn4  v112
 BYTE   W48
 BYTE   N24  Cn4
 BYTE   W24
 BYTE   N48  Ds3  v092
 BYTE   N48  Gn3  v112
 BYTE   W17
// 016   ----------------------------------------
 BYTE   W30
 BYTE   W01
 BYTE   N24  Gs3  v092
 BYTE   N24  Cn4  v112
 BYTE   W24
 BYTE   N72  Dn3  v092
 BYTE   N48  An3  v112
 BYTE   W40
 BYTE   W01
// 017   ----------------------------------------
 BYTE   W07
 BYTE   N12  Gn3
 BYTE   W12
 BYTE   An3
 BYTE   W12
 BYTE   N72  Gn3  v092
 BYTE   N72  Dn4  v112
 BYTE   W60
 BYTE   W01
 BYTE   W01
 BYTE   W01
 BYTE   W01
 BYTE   W01
// 018   ----------------------------------------
 BYTE   W01
 BYTE   W01
 BYTE   W01
 BYTE   W01
 BYTE   W01
 BYTE   W01
 BYTE   W01
 BYTE   W72
 BYTE   W17
// 019   ----------------------------------------
 BYTE   W96
// 020   ----------------------------------------
 BYTE   PATT
  POIN2 Label_10_0137276A
// 021   ----------------------------------------
 BYTE   PATT
  POIN2 Label_10_01372777
// 022   ----------------------------------------
 BYTE   PATT
  POIN2 Label_10_01372791
// 023   ----------------------------------------
 BYTE   PATT
  POIN2 Label_10_013727B4
// 024   ----------------------------------------
 BYTE   EOT
 BYTE   An3
 BYTE   W64
 BYTE   W01
// 025   ----------------------------------------
 BYTE   PATT
  POIN2 Label_10_013727D2
// 026   ----------------------------------------
 BYTE   W96
// 027   ----------------------------------------
 BYTE   W96
// 028   ----------------------------------------
 BYTE   W96
// 029   ----------------------------------------
 BYTE   W96
// 030   ----------------------------------------
 BYTE   PATT
  POIN2 Label_10_013727DA
// 031   ----------------------------------------
 BYTE   PATT
  POIN2 Label_10_013727F0
// 032   ----------------------------------------
 BYTE   PATT
  POIN2 Label_10_013727FE
// 033   ----------------------------------------
 BYTE   PATT
  POIN2 Label_10_0137280A
// 034   ----------------------------------------
 BYTE   W07
 BYTE   N24  Cn5  v108
 BYTE   W24
 BYTE   As4
 BYTE   W24
 BYTE   An4
 BYTE   W24
 BYTE   N48  As4
 BYTE   W17
// 035   ----------------------------------------
 BYTE   W30
 BYTE   W01
 BYTE   N24  Gn4
 BYTE   W24
 BYTE   Fn4
 BYTE   W24
 BYTE   Gn4
 BYTE   W17
// 036   ----------------------------------------
 BYTE   W07
 BYTE   An4
 BYTE   W24
 BYTE   N48  Gn4
 BYTE   W48
 BYTE   N24  En4
 BYTE   W17
// 037   ----------------------------------------
 BYTE   W07
 BYTE   TIE  Dn4  v096
 BYTE   W88
 BYTE   W01
// 038   ----------------------------------------
 BYTE   W30
 BYTE   W01
 BYTE   W01
 BYTE   W01
 BYTE   W01
 BYTE   W01
 BYTE   W02
 BYTE   W01
 BYTE   W01
 BYTE   W01
 BYTE   W01
 BYTE   W01
 BYTE   W01
 BYTE   W01
 BYTE   W01
 BYTE   W01
 BYTE   W01
 BYTE   W01
 BYTE   W01
 BYTE   W01
 BYTE   W01
 BYTE   W01
 BYTE   W02
 BYTE   W01
 BYTE   W01
 BYTE   W01
 BYTE   W01
 BYTE   W01
 BYTE   W01
 BYTE   W01
 BYTE   W01
 BYTE   W01
 BYTE   W01
 BYTE   W01
 BYTE   W01
 BYTE   W01
 BYTE   W01
 BYTE   W01
 BYTE   W02
 BYTE   W01
 BYTE   W01
 BYTE   W01
 BYTE   W01
 BYTE   W01
 BYTE   W01
 BYTE   W01
 BYTE   W01
 BYTE   W01
 BYTE   W01
 BYTE   W02
 BYTE   W01
 BYTE   W01
 BYTE   W01
 BYTE   W02
 BYTE   W01
 BYTE   W01
 BYTE   W01
 BYTE   W01
 BYTE   W01
 BYTE   W01
 BYTE   W01
 BYTE   W01
// 039   ----------------------------------------
 BYTE   W01
 BYTE   W01
 BYTE   W02
 BYTE   W01
 BYTE   W01
 BYTE   W01
 BYTE   W02
 BYTE   W01
 BYTE   W01
 BYTE   W01
 BYTE   W01
 BYTE   W01
 BYTE   W01
 BYTE   W01
 BYTE   W01
 BYTE   W01
 BYTE   W01
 BYTE   W02
 BYTE   W01
 BYTE   W01
 BYTE   W01
 BYTE   W02
 BYTE   W01
 BYTE   W01
 BYTE   W01
 BYTE   W01
 BYTE   W01
 BYTE   EOT
 BYTE   W48
 BYTE   N24  Gn3  v112
 BYTE   W01
 BYTE   W01
 BYTE   W02
 BYTE   W01
 BYTE   W02
 BYTE   W01
 BYTE   W01
 BYTE   W02
 BYTE   W01
 BYTE   W02
 BYTE   W01
 BYTE   W01
 BYTE   W01
// 040   ----------------------------------------
 BYTE   W01
 BYTE   W01
 BYTE   W02
 BYTE   W01
 BYTE   W02
 BYTE   N36  An3  v116
 BYTE   W36
 BYTE   N60  Dn3
 BYTE   W52
 BYTE   W01
// 041   ----------------------------------------
 BYTE   W07
 BYTE   N24  Ds3
 BYTE   W24
 BYTE   Cn4
 BYTE   W24
 BYTE   N48  An3
 BYTE   W40
 BYTE   W01
// 042   ----------------------------------------
 BYTE   W07
 BYTE   N12  Gn3
 BYTE   W12
 BYTE   An3
 BYTE   W12
 BYTE   N24  Dn3
 BYTE   W24
 BYTE   Ds3
 BYTE   W24
 BYTE   N18  Cn4
 BYTE   W17
// 043   ----------------------------------------
 BYTE   W07
 BYTE   N36  An3
 BYTE   W36
 BYTE   N54  Dn3
 BYTE   W52
 BYTE   W01
// 044   ----------------------------------------
 BYTE   W07
 BYTE   N24  Fn3
 BYTE   W24
 BYTE   Gn3
 BYTE   W24
 BYTE   TIE  An3
 BYTE   W40
 BYTE   W01
// 045   ----------------------------------------
 BYTE   W90
 BYTE   W01
 BYTE   EOT
 BYTE   W05
// 046   ----------------------------------------
 BYTE   W07
 BYTE   N36  Ds3  v100
 BYTE   N36  An3  v116
 BYTE   W36
 BYTE   N60  As2  v100
 BYTE   N60  Dn3  v116
 BYTE   W52
 BYTE   W01
// 047   ----------------------------------------
 BYTE   W07
 BYTE   N24  As2  v100
 BYTE   N24  Ds3  v116
 BYTE   W24
 BYTE   Ds3  v100
 BYTE   N24  Cn4  v116
 BYTE   W24
 BYTE   N48  Ds3  v100
 BYTE   N48  An3  v116
 BYTE   W40
 BYTE   W01
// 048   ----------------------------------------
 BYTE   W07
 BYTE   N12  Ds3  v100
 BYTE   N12  Gn3  v116
 BYTE   W12
 BYTE   Ds3  v100
 BYTE   N12  An3  v116
 BYTE   W12
 BYTE   N42  Gn3  v100
 BYTE   N42  Dn4  v116
 BYTE   W48
 BYTE   N24  An3  v100
 BYTE   N24  Ds4  v116
 BYTE   W17
// 049   ----------------------------------------
 BYTE   W07
 BYTE   N48  As3  v100
 BYTE   N48  Dn4  v116
 BYTE   W48
 BYTE   N12  An3  v100
 BYTE   N12  Cn4  v116
 BYTE   W12
 BYTE   Fn3  v100
 BYTE   N12  As3  v116
 BYTE   W12
 BYTE   N48  Fn3  v100
 BYTE   N48  An3  v116
 BYTE   W17
// 050   ----------------------------------------
 BYTE   W30
 BYTE   W01
 BYTE   N24  Ds3  v100
 BYTE   N24  Gn3  v116
 BYTE   W24
 BYTE   TIE  Fn3  v100
 BYTE   TIE  An3  v116
 BYTE   W40
 BYTE   W01
// 051   ----------------------------------------
 BYTE   W90
 BYTE   W01
 BYTE   EOT
 BYTE   Fn3  v069
 BYTE   W05
// 052   ----------------------------------------
 BYTE   W96
// 053   ----------------------------------------
 BYTE   W96
// 054   ----------------------------------------
 BYTE   W96
// 055   ----------------------------------------
 BYTE   W96
// 056   ----------------------------------------
 BYTE   W96
// 057   ----------------------------------------
 BYTE   W96
// 058   ----------------------------------------
 BYTE   W96
// 059   ----------------------------------------
 BYTE   W96
// 060   ----------------------------------------
 BYTE   W96
// 061   ----------------------------------------
 BYTE   W96
// 062   ----------------------------------------
 BYTE   W96
// 063   ----------------------------------------
 BYTE   W96
// 064   ----------------------------------------
 BYTE   W96
// 065   ----------------------------------------
 BYTE   W96
// 066   ----------------------------------------
 BYTE   W96
// 067   ----------------------------------------
 BYTE   W78
 BYTE   W01
 BYTE   N24  Dn5  v100
 BYTE   W17
// 068   ----------------------------------------
 BYTE   W07
 BYTE   Cn5
 BYTE   W24
 BYTE   As4
 BYTE   W24
 BYTE   N72  An4
 BYTE   W40
 BYTE   W01
// 069   ----------------------------------------
 BYTE   W30
 BYTE   W01
 BYTE   N24  As4
 BYTE   W24
 BYTE   N18  An4
 BYTE   W24
 BYTE   N24  Dn4
 BYTE   W17
// 070   ----------------------------------------
 BYTE   W07
 BYTE   N66
 BYTE   W72
 BYTE   N24  Dn5
 BYTE   W17
// 071   ----------------------------------------
 BYTE   W07
 BYTE   Cn5
 BYTE   W24
 BYTE   As4
 BYTE   W24
 BYTE   N72  Cn5
 BYTE   W40
 BYTE   W01
// 072   ----------------------------------------
 BYTE   W30
 BYTE   W01
 BYTE   N24  Ds5
 BYTE   W24
 BYTE   Fn5
 BYTE   W24
 BYTE   Dn5
 BYTE   W17
// 073   ----------------------------------------
 BYTE   W07
 BYTE   N48  Cs4  v116
 BYTE   W02
 BYTE   W03
 BYTE   W02
 BYTE   W03
 BYTE   W02
 BYTE   W03
 BYTE   W03
 BYTE   W02
 BYTE   W03
 BYTE   W02
 BYTE   W03
 BYTE   W03
 BYTE   W02
 BYTE   W03
 BYTE   W02
 BYTE   W03
 BYTE   W03
 BYTE   W02
 BYTE   W02
 BYTE   N24  Dn4
 BYTE   W01
 BYTE   W02
 BYTE   W03
 BYTE   W03
 BYTE   W02
 BYTE   W03
 BYTE   W02
 BYTE   W03
 BYTE   W03
 BYTE   W02
 BYTE   N48  En4
 BYTE   W03
 BYTE   W02
 BYTE   W03
 BYTE   W03
 BYTE   W02
 BYTE   W03
 BYTE   W01
// 074   ----------------------------------------
 BYTE   W01
 BYTE   W03
 BYTE   W03
 BYTE   W24
 BYTE   N24  Fn4
 BYTE   W24
 BYTE   N90  Gn4
 BYTE   W40
 BYTE   W01
// 075   ----------------------------------------
 BYTE   W54
 BYTE   W01
 BYTE   N24  An4
 BYTE   W24
 BYTE   As4
 BYTE   W17
// 076   ----------------------------------------
 BYTE   W07
 BYTE   N96  An4  v112
 BYTE   W24
 BYTE   W01
 BYTE   W01
 BYTE   W01
 BYTE   W01
 BYTE   W01
 BYTE   W01
 BYTE   W02
 BYTE   W01
 BYTE   W01
 BYTE   W01
 BYTE   W01
 BYTE   W01
 BYTE   W01
 BYTE   W02
 BYTE   W01
 BYTE   W01
 BYTE   W01
 BYTE   W01
 BYTE   W01
 BYTE   W01
 BYTE   W02
 BYTE   W01
 BYTE   W01
 BYTE   W01
 BYTE   W01
 BYTE   W01
 BYTE   W01
 BYTE   W02
 BYTE   W01
 BYTE   W01
 BYTE   W01
 BYTE   W01
 BYTE   W01
 BYTE   W01
 BYTE   W02
 BYTE   W01
 BYTE   W01
 BYTE   W01
 BYTE   W01
 BYTE   W01
 BYTE   W01
 BYTE   W02
 BYTE   W01
 BYTE   W01
 BYTE   W01
 BYTE   W01
 BYTE   W01
 BYTE   W01
 BYTE   W01
 BYTE   W01
 BYTE   W01
 BYTE   W01
 BYTE   W01
 BYTE   W01
 BYTE   W01
 BYTE   W01
 BYTE   W01
 BYTE   W01
 BYTE   W01
// 077   ----------------------------------------
 BYTE   W01
 BYTE   W01
 BYTE   W01
 BYTE   W01
 BYTE   W01
 BYTE   W01
 BYTE   W01
 BYTE   W88
 BYTE   W01
// 078   ----------------------------------------
 BYTE   W30
 BYTE   W01
 BYTE   W64
 BYTE   W01
// 079   ----------------------------------------
 BYTE   W96
// 080   ----------------------------------------
 BYTE   W96
// 081   ----------------------------------------
 BYTE   W54
 BYTE   W01
 BYTE   N48  An3  v100
 BYTE   N24  Dn4  v112
 BYTE   W24
 BYTE   En4  v116
 BYTE   W17
// 082   ----------------------------------------
 BYTE   GoTo
  POIN2 Label_10_01372777
// 083   ----------------------------------------
 BYTE   W07
 BYTE   FINE

//**************** Track 12 (Midi-Chn.11) ****************//

CouragePrayer_012:
// 000   ----------------------------------------
 BYTE   KEYSH   CouragePrayer_key+0
 BYTE   VOICE   48
 BYTE   VOL   6*CouragePrayer_mvl/mxv
 BYTE   PAN   c_v+36
 BYTE   BEND   c_v+1
 BYTE   W09
 BYTE   N12  Dn4  v127
 BYTE   W12
 BYTE   N06  An3  v116
 BYTE   W12
 BYTE   N06
 BYTE   W12
 BYTE   N12  Dn4  v120
 BYTE   W12
 BYTE   N06  An3  v116
 BYTE   W12
 BYTE   N06
 BYTE   W12
 BYTE   N12  Dn4  v127
 BYTE   W12
 BYTE   N06  En4  v116
 BYTE   W03
// 001   ----------------------------------------
Label_11_01371F13:
 BYTE   W09
 BYTE   N09  Gn4  v120
 BYTE   W12
 BYTE   N06  Fn4  v116
 BYTE   W12
 BYTE   N09  En4
 BYTE   W12
 BYTE   N06  Dn4
 BYTE   W12
 BYTE   N12  En4  v127
 BYTE   W12
 BYTE   N06  An3  v116
 BYTE   W12
 BYTE   N06
 BYTE   W12
 BYTE   N12  En4  v120
 BYTE   W03
 BYTE   PEND 
// 002   ----------------------------------------
Label_11_01371F31:
 BYTE   W09
 BYTE   N06  An3  v116
 BYTE   W12
 BYTE   N06
 BYTE   W12
 BYTE   N12  En4  v127
 BYTE   W12
 BYTE   N06  Fn4  v116
 BYTE   W12
 BYTE   N09  An4  v120
 BYTE   W12
 BYTE   N06  Gn4  v116
 BYTE   W12
 BYTE   N09  Fn4
 BYTE   W12
 BYTE   N06  En4
 BYTE   W03
 BYTE   PEND 
// 003   ----------------------------------------
Label_11_01371F4F:
 BYTE   W09
 BYTE   N12  Dn4  v127
 BYTE   W12
 BYTE   N06  An3  v116
 BYTE   W12
 BYTE   N06
 BYTE   W12
 BYTE   N12  Dn4  v120
 BYTE   W12
 BYTE   N06  An3  v116
 BYTE   W12
 BYTE   N06
 BYTE   W12
 BYTE   N12  Dn4  v127
 BYTE   W12
 BYTE   N06  En4  v116
 BYTE   W03
 BYTE   PEND 
// 004   ----------------------------------------
 BYTE   PATT
  POIN2 Label_11_01371F13
// 005   ----------------------------------------
 BYTE   PATT
  POIN2 Label_11_01371F31
// 006   ----------------------------------------
 BYTE   PATT
  POIN2 Label_11_01371F4F
// 007   ----------------------------------------
 BYTE   PATT
  POIN2 Label_11_01371F13
// 008   ----------------------------------------
 BYTE   PATT
  POIN2 Label_11_01371F31
// 009   ----------------------------------------
 BYTE   PATT
  POIN2 Label_11_01371F4F
// 010   ----------------------------------------
 BYTE   PATT
  POIN2 Label_11_01371F13
// 011   ----------------------------------------
 BYTE   PATT
  POIN2 Label_11_01371F31
// 012   ----------------------------------------
 BYTE   W21
 BYTE   N06  As3  v108
 BYTE   W12
 BYTE   N06
 BYTE   W24
 BYTE   N06
 BYTE   W12
 BYTE   N06
 BYTE   W24
 BYTE   Cn4
 BYTE   W03
// 013   ----------------------------------------
 BYTE   W21
 BYTE   N06
 BYTE   W24
 BYTE   N06
 BYTE   W24
 BYTE   N06
 BYTE   W12
 BYTE   N06
 BYTE   W15
// 014   ----------------------------------------
 BYTE   W09
 BYTE   N06
 BYTE   W12
 BYTE   N06
 BYTE   W24
 BYTE   Dn4
 BYTE   W24
 BYTE   N06
 BYTE   W24
 BYTE   N06
 BYTE   W03
// 015   ----------------------------------------
 BYTE   W21
 BYTE   Cn4
 BYTE   W12
 BYTE   N06
 BYTE   W24
 BYTE   N06
 BYTE   W12
 BYTE   N06
 BYTE   W24
 BYTE   N06
 BYTE   W03
// 016   ----------------------------------------
 BYTE   W21
 BYTE   N06
 BYTE   W24
 BYTE   N06
 BYTE   W24
 BYTE   An3
 BYTE   W12
 BYTE   N06
 BYTE   W15
// 017   ----------------------------------------
 BYTE   W09
 BYTE   N06
 BYTE   W12
 BYTE   N06
 BYTE   W24
 BYTE   Cn4
 BYTE   W24
 BYTE   An3
 BYTE   W24
 BYTE   N04  An3  v116
 BYTE   W03
// 018   ----------------------------------------
 BYTE   W01
 BYTE   As3
 BYTE   W04
 BYTE   Cn4
 BYTE   W04
 BYTE   N12  Dn4  v127
 BYTE   W12
 BYTE   N06  An3  v116
 BYTE   W12
 BYTE   N06
 BYTE   W12
 BYTE   N12  Dn4  v120
 BYTE   W12
 BYTE   N06  An3  v116
 BYTE   W12
 BYTE   N06
 BYTE   W12
 BYTE   N12  Dn4  v127
 BYTE   W12
 BYTE   N06  En4  v116
 BYTE   W03
// 019   ----------------------------------------
 BYTE   PATT
  POIN2 Label_11_01371F13
// 020   ----------------------------------------
 BYTE   PATT
  POIN2 Label_11_01371F31
// 021   ----------------------------------------
 BYTE   PATT
  POIN2 Label_11_01371F4F
// 022   ----------------------------------------
 BYTE   PATT
  POIN2 Label_11_01371F13
// 023   ----------------------------------------
 BYTE   PATT
  POIN2 Label_11_01371F31
// 024   ----------------------------------------
 BYTE   PATT
  POIN2 Label_11_01371F4F
// 025   ----------------------------------------
 BYTE   PATT
  POIN2 Label_11_01371F13
// 026   ----------------------------------------
 BYTE   PATT
  POIN2 Label_11_01371F31
// 027   ----------------------------------------
 BYTE   PATT
  POIN2 Label_11_01371F4F
// 028   ----------------------------------------
 BYTE   PATT
  POIN2 Label_11_01371F13
// 029   ----------------------------------------
 BYTE   PATT
  POIN2 Label_11_01371F31
// 030   ----------------------------------------
 BYTE   W09
 BYTE   N12  Dn4  v127
 BYTE   W12
 BYTE   N06  As3  v116
 BYTE   W12
 BYTE   N06
 BYTE   W12
 BYTE   N12  Dn4  v120
 BYTE   W12
 BYTE   N06  As3  v116
 BYTE   W12
 BYTE   N06
 BYTE   W12
 BYTE   N12  En4  v127
 BYTE   W12
 BYTE   N06  Fn4  v116
 BYTE   W03
// 031   ----------------------------------------
 BYTE   W09
 BYTE   N09  An4  v120
 BYTE   W12
 BYTE   N06  Gn4  v116
 BYTE   W12
 BYTE   N09  Fn4
 BYTE   W12
 BYTE   N06  En4
 BYTE   W12
 BYTE   N12  Cn4  v127
 BYTE   W12
 BYTE   N06  An3  v116
 BYTE   W12
 BYTE   N06
 BYTE   W12
 BYTE   N12  Cn4  v120
 BYTE   W03
// 032   ----------------------------------------
Label_11_01372069:
 BYTE   W09
 BYTE   N06  An3  v116
 BYTE   W12
 BYTE   N06
 BYTE   W12
 BYTE   N12  Dn4  v127
 BYTE   W12
 BYTE   N06  En4  v116
 BYTE   W12
 BYTE   N09  Gn4  v120
 BYTE   W12
 BYTE   N06  Fn4  v116
 BYTE   W12
 BYTE   N09  En4
 BYTE   W12
 BYTE   N06  Dn4
 BYTE   W03
 BYTE   PEND 
// 033   ----------------------------------------
 BYTE   W09
 BYTE   N12  Dn4  v127
 BYTE   W12
 BYTE   N06  As3  v116
 BYTE   W12
 BYTE   N06
 BYTE   W12
 BYTE   N12  Dn4  v120
 BYTE   W12
 BYTE   N06  As3  v116
 BYTE   W12
 BYTE   N06
 BYTE   W12
 BYTE   N12  Dn4  v127
 BYTE   W12
 BYTE   N06  En4  v116
 BYTE   W03
// 034   ----------------------------------------
 BYTE   W09
 BYTE   N09  Gn4  v120
 BYTE   W12
 BYTE   N06  Fn4  v116
 BYTE   W12
 BYTE   N09  En4
 BYTE   W12
 BYTE   N06  Dn4
 BYTE   W12
 BYTE   N12  Dn4  v127
 BYTE   W12
 BYTE   N06  As3  v116
 BYTE   W12
 BYTE   N06
 BYTE   W12
 BYTE   N12  Dn4  v120
 BYTE   W03
// 035   ----------------------------------------
 BYTE   W09
 BYTE   N06  As3  v116
 BYTE   W12
 BYTE   N06
 BYTE   W12
 BYTE   N12  En4  v127
 BYTE   W12
 BYTE   N06  Fn4  v116
 BYTE   W12
 BYTE   N09  An4  v120
 BYTE   W12
 BYTE   N06  Gn4  v116
 BYTE   W12
 BYTE   N09  Fn4
 BYTE   W12
 BYTE   N06  En4
 BYTE   W03
// 036   ----------------------------------------
 BYTE   PATT
  POIN2 Label_11_01371F4F
// 037   ----------------------------------------
 BYTE   W09
 BYTE   N09  Gn4  v120
 BYTE   W12
 BYTE   N06  Fn4  v116
 BYTE   W12
 BYTE   N09  En4
 BYTE   W12
 BYTE   N06  Dn4
 BYTE   W12
 BYTE   N12  Dn4  v127
 BYTE   W12
 BYTE   N06  An3  v116
 BYTE   W12
 BYTE   N06
 BYTE   W12
 BYTE   N12  Dn4  v120
 BYTE   W03
// 038   ----------------------------------------
 BYTE   PATT
  POIN2 Label_11_01372069
// 039   ----------------------------------------
Label_11_01372105:
 BYTE   W09
 BYTE   N06  As3  v112
 BYTE   W36
 BYTE   N06
 BYTE   W12
 BYTE   N06
 BYTE   W36
 BYTE   W03
 BYTE   PEND 
// 040   ----------------------------------------
Label_11_01372110:
 BYTE   W09
 BYTE   N06  As3  v112
 BYTE   W24
 BYTE   N06
 BYTE   W24
 BYTE   N06
 BYTE   W36
 BYTE   N06
 BYTE   W03
 BYTE   PEND 
// 041   ----------------------------------------
Label_11_0137211C:
 BYTE   W09
 BYTE   N06  As3  v112
 BYTE   W48
 BYTE   N06
 BYTE   W24
 BYTE   N06
 BYTE   W15
 BYTE   PEND 
// 042   ----------------------------------------
Label_11_01372126:
 BYTE   W09
 BYTE   N06  An3  v112
 BYTE   W36
 BYTE   N06
 BYTE   W12
 BYTE   N06
 BYTE   W36
 BYTE   W03
 BYTE   PEND 
// 043   ----------------------------------------
Label_11_01372131:
 BYTE   W09
 BYTE   N06  An3  v112
 BYTE   W24
 BYTE   N06
 BYTE   W24
 BYTE   N06
 BYTE   W36
 BYTE   N06
 BYTE   W03
 BYTE   PEND 
// 044   ----------------------------------------
Label_11_0137213D:
 BYTE   W09
 BYTE   N06  An3  v112
 BYTE   W48
 BYTE   N06
 BYTE   W24
 BYTE   N06
 BYTE   W15
 BYTE   PEND 
// 045   ----------------------------------------
 BYTE   PATT
  POIN2 Label_11_01372105
// 046   ----------------------------------------
 BYTE   PATT
  POIN2 Label_11_01372110
// 047   ----------------------------------------
 BYTE   PATT
  POIN2 Label_11_0137211C
// 048   ----------------------------------------
 BYTE   PATT
  POIN2 Label_11_01372126
// 049   ----------------------------------------
 BYTE   PATT
  POIN2 Label_11_01372131
// 050   ----------------------------------------
 BYTE   PATT
  POIN2 Label_11_0137213D
// 051   ----------------------------------------
 BYTE   W09
 BYTE   N06  Gn3  v112
 BYTE   W36
 BYTE   N06
 BYTE   W12
 BYTE   N06
 BYTE   W36
 BYTE   W03
// 052   ----------------------------------------
 BYTE   W09
 BYTE   N06
 BYTE   W24
 BYTE   N06
 BYTE   W24
 BYTE   N06
 BYTE   W36
 BYTE   N06
 BYTE   W03
// 053   ----------------------------------------
 BYTE   W09
 BYTE   N06
 BYTE   W48
 BYTE   N06
 BYTE   W24
 BYTE   N06
 BYTE   W15
// 054   ----------------------------------------
 BYTE   W09
 BYTE   Fs3
 BYTE   W36
 BYTE   N06
 BYTE   W12
 BYTE   N06
 BYTE   W36
 BYTE   W03
// 055   ----------------------------------------
 BYTE   W09
 BYTE   N06
 BYTE   W24
 BYTE   N06
 BYTE   W24
 BYTE   N12  Dn4  v116
 BYTE   W24
 BYTE   N12
 BYTE   W15
// 056   ----------------------------------------
 BYTE   W09
 BYTE   N08
 BYTE   W12
 BYTE   N12
 BYTE   W12
 BYTE   Fs4
 BYTE   W24
 BYTE   N12
 BYTE   W24
 BYTE   N08
 BYTE   W12
 BYTE   N12
 BYTE   W03
// 057   ----------------------------------------
Label_11_0137219F:
 BYTE   W09
 BYTE   N12  Gn4  v127
 BYTE   W12
 BYTE   N06  Dn4  v116
 BYTE   W12
 BYTE   N06
 BYTE   W12
 BYTE   N12  Gn4  v120
 BYTE   W12
 BYTE   N06  Dn4  v116
 BYTE   W12
 BYTE   N06
 BYTE   W12
 BYTE   N12  Gn4  v127
 BYTE   W12
 BYTE   N06  An4  v116
 BYTE   W03
 BYTE   PEND 
// 058   ----------------------------------------
Label_11_013721BD:
 BYTE   W09
 BYTE   N09  Cn5  v120
 BYTE   W12
 BYTE   N06  As4  v116
 BYTE   W12
 BYTE   N09  An4
 BYTE   W12
 BYTE   N06  Gn4
 BYTE   W12
 BYTE   N12  Gn4  v127
 BYTE   W12
 BYTE   N06  Dn4  v116
 BYTE   W12
 BYTE   N06
 BYTE   W12
 BYTE   N12  Gn4  v120
 BYTE   W03
 BYTE   PEND 
// 059   ----------------------------------------
Label_11_013721DB:
 BYTE   W09
 BYTE   N06  Dn4  v116
 BYTE   W12
 BYTE   N06
 BYTE   W12
 BYTE   N12  Gn4  v127
 BYTE   W12
 BYTE   N06  An4  v116
 BYTE   W12
 BYTE   N09  Cn5  v120
 BYTE   W12
 BYTE   N06  As4  v116
 BYTE   W12
 BYTE   N09  An4
 BYTE   W12
 BYTE   N06  Gn4
 BYTE   W03
 BYTE   PEND 
// 060   ----------------------------------------
 BYTE   PATT
  POIN2 Label_11_0137219F
// 061   ----------------------------------------
 BYTE   W09
 BYTE   N09  An4  v108
 BYTE   N09  Cn5  v120
 BYTE   W12
 BYTE   N06  As4  v116
 BYTE   W12
 BYTE   N09  An4
 BYTE   W12
 BYTE   N06  Gn4
 BYTE   W12
 BYTE   N12  Gn4  v127
 BYTE   W12
 BYTE   N06  Dn4  v116
 BYTE   W12
 BYTE   N06
 BYTE   W12
 BYTE   N12  Gn4  v120
 BYTE   W03
// 062   ----------------------------------------
 BYTE   PATT
  POIN2 Label_11_013721DB
// 063   ----------------------------------------
 BYTE   W09
 BYTE   N12  Fs4  v127
 BYTE   W12
 BYTE   N06  Dn4  v116
 BYTE   W12
 BYTE   N06
 BYTE   W12
 BYTE   N12  Fs4  v120
 BYTE   W12
 BYTE   N06  Dn4  v116
 BYTE   W12
 BYTE   N06
 BYTE   W12
 BYTE   N12  Gn4  v127
 BYTE   W12
 BYTE   N06  An4  v116
 BYTE   W03
// 064   ----------------------------------------
 BYTE   W09
 BYTE   N09  Cn5  v120
 BYTE   W12
 BYTE   N06  As4  v116
 BYTE   W12
 BYTE   N09  An4
 BYTE   W12
 BYTE   N06  Gn4
 BYTE   W12
 BYTE   N12  An4  v127
 BYTE   W12
 BYTE   N06  Dn4  v116
 BYTE   W12
 BYTE   N06
 BYTE   W12
 BYTE   N12  An4  v120
 BYTE   W03
// 065   ----------------------------------------
 BYTE   W09
 BYTE   N06  Dn4  v116
 BYTE   W12
 BYTE   N06
 BYTE   W12
 BYTE   N12  Fs4  v127
 BYTE   W12
 BYTE   N06  Gn4  v116
 BYTE   W12
 BYTE   N09  An4  v120
 BYTE   W12
 BYTE   N06  As4  v116
 BYTE   W12
 BYTE   N09  An4  v100
 BYTE   N09  Cn5  v116
 BYTE   W12
 BYTE   N06  An4
 BYTE   W03
// 066   ----------------------------------------
 BYTE   PATT
  POIN2 Label_11_0137219F
// 067   ----------------------------------------
 BYTE   PATT
  POIN2 Label_11_013721BD
// 068   ----------------------------------------
 BYTE   PATT
  POIN2 Label_11_013721DB
// 069   ----------------------------------------
 BYTE   W09
 BYTE   N12  Dn4  v112
 BYTE   N12  Gn4  v127
 BYTE   W12
 BYTE   N06  Dn4  v116
 BYTE   W12
 BYTE   N06
 BYTE   W12
 BYTE   N12  Gn4  v120
 BYTE   W12
 BYTE   N06  Dn4  v116
 BYTE   W12
 BYTE   N06
 BYTE   W12
 BYTE   N12  Gn4  v127
 BYTE   W12
 BYTE   N06  An4  v116
 BYTE   W03
// 070   ----------------------------------------
 BYTE   PATT
  POIN2 Label_11_013721BD
// 071   ----------------------------------------
 BYTE   W09
 BYTE   N06  Dn4  v116
 BYTE   W12
 BYTE   N06
 BYTE   W12
 BYTE   N12  Gn4  v127
 BYTE   W12
 BYTE   N06  An4  v116
 BYTE   W12
 BYTE   N09  As4  v120
 BYTE   W12
 BYTE   N06  Cn5  v116
 BYTE   W12
 BYTE   N09  An4
 BYTE   W12
 BYTE   N06  Gn4
 BYTE   W03
// 072   ----------------------------------------
 BYTE   W09
 BYTE   N12  Cs4
 BYTE   W24
 BYTE   N12
 BYTE   W24
 BYTE   N08
 BYTE   W12
 BYTE   N12
 BYTE   W12
 BYTE   En4
 BYTE   W15
// 073   ----------------------------------------
 BYTE   W09
 BYTE   N12
 BYTE   W24
 BYTE   N08
 BYTE   W12
 BYTE   N12
 BYTE   W12
 BYTE   An4
 BYTE   W24
 BYTE   N12
 BYTE   W15
// 074   ----------------------------------------
 BYTE   W09
 BYTE   N08
 BYTE   W12
 BYTE   N12
 BYTE   W12
 BYTE   Cs5
 BYTE   W24
 BYTE   N12
 BYTE   W24
 BYTE   N08
 BYTE   W12
 BYTE   N12
 BYTE   W03
// 075   ----------------------------------------
 BYTE   PATT
  POIN2 Label_11_01371F4F
// 076   ----------------------------------------
 BYTE   W09
 BYTE   N09  Gn4  v120
 BYTE   W12
 BYTE   N06  Fn4  v116
 BYTE   W12
 BYTE   N09  En4
 BYTE   W12
 BYTE   N06  An3  v100
 BYTE   N06  Dn4  v116
 BYTE   W12
 BYTE   N12  En4  v127
 BYTE   W12
 BYTE   N06  An3  v116
 BYTE   W12
 BYTE   N06
 BYTE   W12
 BYTE   N12  En4  v120
 BYTE   W03
// 077   ----------------------------------------
 BYTE   PATT
  POIN2 Label_11_01371F31
// 078   ----------------------------------------
 BYTE   PATT
  POIN2 Label_11_01371F4F
// 079   ----------------------------------------
 BYTE   PATT
  POIN2 Label_11_01371F13
// 080   ----------------------------------------
 BYTE   PATT
  POIN2 Label_11_01371F31
// 081   ----------------------------------------
 BYTE   GoTo
  POIN2 Label_11_01371F4F
// 082   ----------------------------------------
 BYTE   W07
 BYTE   FINE

//**************** Track 13 (Midi-Chn.12) ****************//

CouragePrayer_013:
// 000   ----------------------------------------
 BYTE   KEYSH   CouragePrayer_key+0
 BYTE   VOICE   47
 BYTE   VOL   28*CouragePrayer_mvl/mxv
 BYTE   PAN   c_v-4
 BYTE   N32  Dn2  v120
 BYTE   W36
 BYTE   N32
 BYTE   W36
 BYTE   N23
 BYTE   W24
// 001   ----------------------------------------
Label_12_013734C4:
 BYTE   N23  An1  v120
 BYTE   W24
 BYTE   N23
 BYTE   W24
 BYTE   Cn2
 BYTE   W24
 BYTE   N11  An1
 BYTE   W12
 BYTE   N32  Cn2
 BYTE   W12
 BYTE   PEND 
// 002   ----------------------------------------
Label_12_013734D3:
 BYTE   W24
 BYTE   N23  Cn2  v120
 BYTE   W24
 BYTE   An1
 BYTE   W24
 BYTE   N23
 BYTE   W24
 BYTE   PEND 
// 003   ----------------------------------------
Label_12_013734DD:
 BYTE   N32  Dn2  v120
 BYTE   W36
 BYTE   N32
 BYTE   W36
 BYTE   N23
 BYTE   W24
 BYTE   PEND 
// 004   ----------------------------------------
 BYTE   PATT
  POIN2 Label_12_013734C4
// 005   ----------------------------------------
 BYTE   PATT
  POIN2 Label_12_013734D3
// 006   ----------------------------------------
 BYTE   PATT
  POIN2 Label_12_013734DD
// 007   ----------------------------------------
 BYTE   PATT
  POIN2 Label_12_013734C4
// 008   ----------------------------------------
 BYTE   PATT
  POIN2 Label_12_013734D3
// 009   ----------------------------------------
 BYTE   PATT
  POIN2 Label_12_013734DD
// 010   ----------------------------------------
 BYTE   PATT
  POIN2 Label_12_013734C4
// 011   ----------------------------------------
 BYTE   PATT
  POIN2 Label_12_013734D3
// 012   ----------------------------------------
 BYTE   N92  As1  v120
 BYTE   W96
// 013   ----------------------------------------
 BYTE   W96
// 014   ----------------------------------------
 BYTE   W84
 BYTE   N05
 BYTE   W06
 BYTE   As1  v112
 BYTE   W06
// 015   ----------------------------------------
 BYTE   N32  Gs1  v120
 BYTE   W36
 BYTE   N92
 BYTE   W60
// 016   ----------------------------------------
 BYTE   W48
 BYTE   N32  Gn1
 BYTE   W36
 BYTE   N32
 BYTE   W12
// 017   ----------------------------------------
 BYTE   W24
 BYTE   N23
 BYTE   W24
 BYTE   Dn2
 BYTE   W24
 BYTE   N11  Gn1
 BYTE   W12
 BYTE   N05  Gn1  v127
 BYTE   W06
 BYTE   Gn1  v120
 BYTE   W06
// 018   ----------------------------------------
 BYTE   N32  Dn2  v127
 BYTE   W36
 BYTE   Dn2  v120
 BYTE   W36
 BYTE   N23
 BYTE   W24
// 019   ----------------------------------------
 BYTE   PATT
  POIN2 Label_12_013734C4
// 020   ----------------------------------------
 BYTE   PATT
  POIN2 Label_12_013734D3
// 021   ----------------------------------------
 BYTE   PATT
  POIN2 Label_12_013734DD
// 022   ----------------------------------------
 BYTE   PATT
  POIN2 Label_12_013734C4
// 023   ----------------------------------------
 BYTE   PATT
  POIN2 Label_12_013734D3
// 024   ----------------------------------------
 BYTE   PATT
  POIN2 Label_12_013734DD
// 025   ----------------------------------------
 BYTE   PATT
  POIN2 Label_12_013734C4
// 026   ----------------------------------------
 BYTE   PATT
  POIN2 Label_12_013734D3
// 027   ----------------------------------------
 BYTE   PATT
  POIN2 Label_12_013734DD
// 028   ----------------------------------------
 BYTE   PATT
  POIN2 Label_12_013734C4
// 029   ----------------------------------------
 BYTE   PATT
  POIN2 Label_12_013734D3
// 030   ----------------------------------------
 BYTE   N32  As1  v120
 BYTE   W36
 BYTE   N32
 BYTE   W36
 BYTE   N23  Cn2
 BYTE   W24
// 031   ----------------------------------------
 BYTE   Gn1
 BYTE   W24
 BYTE   Cn2
 BYTE   W24
 BYTE   N32  Fn1
 BYTE   W36
 BYTE   N32
 BYTE   W12
// 032   ----------------------------------------
 BYTE   W24
 BYTE   N23  As1
 BYTE   W24
 BYTE   Fn1
 BYTE   W24
 BYTE   As1
 BYTE   W24
// 033   ----------------------------------------
 BYTE   N32  Gn1
 BYTE   W36
 BYTE   N32
 BYTE   W36
 BYTE   N23
 BYTE   W24
// 034   ----------------------------------------
 BYTE   Dn2
 BYTE   W24
 BYTE   Gn1
 BYTE   W24
 BYTE   N32  As1
 BYTE   W36
 BYTE   N32
 BYTE   W12
// 035   ----------------------------------------
 BYTE   W24
 BYTE   N23  Cn2
 BYTE   W24
 BYTE   Gn1
 BYTE   W24
 BYTE   Cn2
 BYTE   W24
// 036   ----------------------------------------
 BYTE   PATT
  POIN2 Label_12_013734DD
// 037   ----------------------------------------
 BYTE   N23  An1  v120
 BYTE   W24
 BYTE   N23
 BYTE   W24
 BYTE   N32  Dn2
 BYTE   W36
 BYTE   N32
 BYTE   W12
// 038   ----------------------------------------
 BYTE   W24
 BYTE   N23
 BYTE   W24
 BYTE   An1
 BYTE   W24
 BYTE   N23
 BYTE   W24
// 039   ----------------------------------------
Label_12_013735BD:
 BYTE   N32  Ds2  v120
 BYTE   W36
 BYTE   N11  As1
 BYTE   W12
 BYTE   N44  Ds2
 BYTE   W48
 BYTE   PEND 
// 040   ----------------------------------------
Label_12_013735C8:
 BYTE   N23  As1  v120
 BYTE   W24
 BYTE   Ds2
 BYTE   W24
 BYTE   N32
 BYTE   W36
 BYTE   N11  As1
 BYTE   W12
 BYTE   PEND 
// 041   ----------------------------------------
Label_12_013735D4:
 BYTE   N44  Ds2  v120
 BYTE   W48
 BYTE   N23  As1
 BYTE   W24
 BYTE   Ds2
 BYTE   W24
 BYTE   PEND 
// 042   ----------------------------------------
Label_12_013735DE:
 BYTE   N32  As1  v120
 BYTE   W36
 BYTE   N11  Fn1
 BYTE   W12
 BYTE   N44  As1
 BYTE   W48
 BYTE   PEND 
// 043   ----------------------------------------
Label_12_013735E9:
 BYTE   N23  Fn1  v120
 BYTE   W24
 BYTE   As1
 BYTE   W24
 BYTE   N32
 BYTE   W36
 BYTE   N11  Fn1
 BYTE   W12
 BYTE   PEND 
// 044   ----------------------------------------
Label_12_013735F5:
 BYTE   N44  As1  v120
 BYTE   W48
 BYTE   N23  Fn1
 BYTE   W24
 BYTE   As1
 BYTE   W24
 BYTE   PEND 
// 045   ----------------------------------------
 BYTE   PATT
  POIN2 Label_12_013735BD
// 046   ----------------------------------------
 BYTE   PATT
  POIN2 Label_12_013735C8
// 047   ----------------------------------------
 BYTE   PATT
  POIN2 Label_12_013735D4
// 048   ----------------------------------------
 BYTE   PATT
  POIN2 Label_12_013735DE
// 049   ----------------------------------------
 BYTE   PATT
  POIN2 Label_12_013735E9
// 050   ----------------------------------------
 BYTE   PATT
  POIN2 Label_12_013735F5
// 051   ----------------------------------------
 BYTE   N32  Cn2  v120
 BYTE   W36
 BYTE   N11  Gn1
 BYTE   W12
 BYTE   N44  Cn2
 BYTE   W48
// 052   ----------------------------------------
 BYTE   N23  Gn1
 BYTE   W24
 BYTE   Cn2
 BYTE   W24
 BYTE   N32
 BYTE   W36
 BYTE   N11  Gn1
 BYTE   W12
// 053   ----------------------------------------
 BYTE   N44  Cn2
 BYTE   W48
 BYTE   N23  Gn1
 BYTE   W24
 BYTE   Cn2
 BYTE   W24
// 054   ----------------------------------------
 BYTE   N32  Dn2
 BYTE   W36
 BYTE   N11  An1
 BYTE   W12
 BYTE   N44  Dn2
 BYTE   W48
// 055   ----------------------------------------
 BYTE   N23  An1
 BYTE   W24
 BYTE   Dn2
 BYTE   W24
 BYTE   N32
 BYTE   W36
 BYTE   N11  An1
 BYTE   W12
// 056   ----------------------------------------
 BYTE   N44  Dn2
 BYTE   W48
 BYTE   N23  An1
 BYTE   W24
 BYTE   N11  Dn2
 BYTE   W12
 BYTE   N05  Dn2  v127
 BYTE   W08
 BYTE   N05
 BYTE   W04
// 057   ----------------------------------------
Label_12_0137365B:
 BYTE   N32  Gn1  v127
 BYTE   W36
 BYTE   N11
 BYTE   W12
 BYTE   N23  Dn2
 BYTE   W24
 BYTE   Gn1
 BYTE   W24
 BYTE   PEND 
// 058   ----------------------------------------
Label_12_01373667:
 BYTE   N11  Dn2  v127
 BYTE   W12
 BYTE   Gn1  v120
 BYTE   W12
 BYTE   Dn2  v127
 BYTE   W12
 BYTE   Gn1  v120
 BYTE   W12
 BYTE   N32  Gn1  v127
 BYTE   W36
 BYTE   N11
 BYTE   W12
 BYTE   PEND 
// 059   ----------------------------------------
Label_12_0137367B:
 BYTE   N23  Dn2  v127
 BYTE   W24
 BYTE   Cn2
 BYTE   W24
 BYTE   N11
 BYTE   W12
 BYTE   Gn1  v120
 BYTE   W12
 BYTE   Cn2  v127
 BYTE   W12
 BYTE   Gn1  v120
 BYTE   W12
 BYTE   PEND 
// 060   ----------------------------------------
 BYTE   PATT
  POIN2 Label_12_0137365B
// 061   ----------------------------------------
 BYTE   PATT
  POIN2 Label_12_01373667
// 062   ----------------------------------------
 BYTE   PATT
  POIN2 Label_12_0137367B
// 063   ----------------------------------------
 BYTE   N32  Dn2  v127
 BYTE   W36
 BYTE   N11  An1
 BYTE   W12
 BYTE   N23  Dn2
 BYTE   W24
 BYTE   En1
 BYTE   W24
// 064   ----------------------------------------
 BYTE   N11
 BYTE   W12
 BYTE   An1  v120
 BYTE   W12
 BYTE   En1  v127
 BYTE   W12
 BYTE   An1  v120
 BYTE   W12
 BYTE   N32  Fs1  v127
 BYTE   W36
 BYTE   N11
 BYTE   W12
// 065   ----------------------------------------
 BYTE   N23  An1
 BYTE   W24
 BYTE   Fs1
 BYTE   W24
 BYTE   N11
 BYTE   W12
 BYTE   Dn2  v120
 BYTE   W12
 BYTE   Fs1  v127
 BYTE   W12
 BYTE   Dn2  v120
 BYTE   W12
// 066   ----------------------------------------
 BYTE   PATT
  POIN2 Label_12_0137365B
// 067   ----------------------------------------
 BYTE   PATT
  POIN2 Label_12_01373667
// 068   ----------------------------------------
 BYTE   PATT
  POIN2 Label_12_0137367B
// 069   ----------------------------------------
 BYTE   PATT
  POIN2 Label_12_0137365B
// 070   ----------------------------------------
 BYTE   PATT
  POIN2 Label_12_01373667
// 071   ----------------------------------------
 BYTE   PATT
  POIN2 Label_12_0137367B
// 072   ----------------------------------------
 BYTE   N32  An1  v127
 BYTE   W36
 BYTE   N11  En1
 BYTE   W12
 BYTE   N23  An1
 BYTE   W24
 BYTE   N23
 BYTE   W24
// 073   ----------------------------------------
 BYTE   N11
 BYTE   W12
 BYTE   En1  v120
 BYTE   W12
 BYTE   En1  v127
 BYTE   W12
 BYTE   An1  v120
 BYTE   W12
 BYTE   N32  An1  v127
 BYTE   W36
 BYTE   N11  En1
 BYTE   W12
// 074   ----------------------------------------
 BYTE   N23  An1
 BYTE   W24
 BYTE   N23
 BYTE   W24
 BYTE   N11
 BYTE   W12
 BYTE   En1  v120
 BYTE   W12
 BYTE   En1  v127
 BYTE   W12
 BYTE   An1  v120
 BYTE   W12
// 075   ----------------------------------------
 BYTE   PATT
  POIN2 Label_12_013734DD
// 076   ----------------------------------------
 BYTE   PATT
  POIN2 Label_12_013734C4
// 077   ----------------------------------------
 BYTE   PATT
  POIN2 Label_12_013734D3
// 078   ----------------------------------------
 BYTE   PATT
  POIN2 Label_12_013734DD
// 079   ----------------------------------------
 BYTE   PATT
  POIN2 Label_12_013734C4
// 080   ----------------------------------------
 BYTE   PATT
  POIN2 Label_12_013734D3
// 081   ----------------------------------------
 BYTE   GoTo
  POIN2 Label_12_013734DD
// 082   ----------------------------------------
 BYTE   W07
 BYTE   FINE

//******************************************************//
	ALIGN 4

CouragePrayer:
	BYTE	13	// NumTrks
	BYTE	0	// NumBlks
	BYTE	CouragePrayer_pri	// Priority
	BYTE	CouragePrayer_rev	// Reverb.
    
	POIN2	CouragePrayer_grp
    
	POIN2	CouragePrayer_001
	POIN2	CouragePrayer_002
	POIN2	CouragePrayer_003
	POIN2	CouragePrayer_004
	POIN2	CouragePrayer_005
	POIN2	CouragePrayer_006
	POIN2	CouragePrayer_007
	POIN2	CouragePrayer_008
	POIN2	CouragePrayer_009
	POIN2	CouragePrayer_010
	POIN2	CouragePrayer_011
	POIN2	CouragePrayer_012
	POIN2	CouragePrayer_013

	
