//Event file generated from Sappy .s format.
	#include "MPlayDef.event"

	#define	DeepSpace2_grp  voicegroup000
	#define	DeepSpace2_pri  0
	#define	DeepSpace2_rev  192
	#define	DeepSpace2_mvl  127
	#define	DeepSpace2_key  0
	#define	DeepSpace2_tbs  1
	#define	DeepSpace2_exg  0
	#define	DeepSpace2_cmp  1

	// .rodata
	//	DeepSpace2
	ALIGN 4


//**************** Track 1 (Midi-Chn.0) ****************//

DeepSpace2_001:
//  #01 //000   ----------------------------------------
 BYTE   KEYSH   DeepSpace2_key+0
Label_019B67D6:
 BYTE   TEMPO   162*DeepSpace2_tbs/2
 BYTE   VOICE   36
 BYTE   PAN   c_v-7
 BYTE   VOL   30*DeepSpace2_mvl/mxv
 BYTE   BEND   c_v+0
 BYTE   W01
 BYTE   N11  Ds0  v127
 BYTE   W12
 BYTE   N11
 BYTE   W12
 BYTE   N11
 BYTE   W12
 BYTE   N11
 BYTE   W12
 BYTE   Ds1
 BYTE   W12
 BYTE   Ds0
 BYTE   W12
 BYTE   As0
 BYTE   W12
 BYTE   Ds1
 BYTE   W11
//  #01 //001   ----------------------------------------
Label_019B67F3:
 BYTE   W01
 BYTE   N11  Ds0  v127
 BYTE   W12
 BYTE   N11
 BYTE   W12
 BYTE   N11
 BYTE   W12
 BYTE   N11
 BYTE   W12
 BYTE   N04  Ds1
 BYTE   W06
 BYTE   N04
 BYTE   W06
 BYTE   N11  Ds0
 BYTE   W12
 BYTE   N04  As0
 BYTE   W06
 BYTE   N04
 BYTE   W06
 BYTE   N11  Ds1
 BYTE   W11
 BYTE   PEND 
//  #01 //002   ----------------------------------------
Label_019B680F:
 BYTE   W01
 BYTE   N11  Ds0  v127
 BYTE   W12
 BYTE   N11
 BYTE   W12
 BYTE   N11
 BYTE   W12
 BYTE   N11
 BYTE   W12
 BYTE   Ds1
 BYTE   W12
 BYTE   Ds0
 BYTE   W12
 BYTE   As0
 BYTE   W12
 BYTE   Ds1
 BYTE   W11
 BYTE   PEND 
//  #01 //003   ----------------------------------------
Label_019B6823:
 BYTE   W01
 BYTE   N11  Gs0  v127
 BYTE   W12
 BYTE   N11
 BYTE   W12
 BYTE   N11
 BYTE   W12
 BYTE   N11
 BYTE   W12
 BYTE   N04  Gs1
 BYTE   W06
 BYTE   N04
 BYTE   W06
 BYTE   N11  Gs0
 BYTE   W12
 BYTE   N04  Ds1
 BYTE   W06
 BYTE   N04
 BYTE   W06
 BYTE   N11  Gs1
 BYTE   W11
 BYTE   PEND 
//  #01 //004   ----------------------------------------
 BYTE   PATT
  POIN2 Label_019B680F
//  #01 //005   ----------------------------------------
 BYTE   PATT
  POIN2 Label_019B67F3
//  #01 //006   ----------------------------------------
 BYTE   PATT
  POIN2 Label_019B680F
//  #01 //007   ----------------------------------------
 BYTE   PATT
  POIN2 Label_019B6823
//  #01 //008   ----------------------------------------
Label_019B6853:
 BYTE   W01
 BYTE   N04  As0  v127
 BYTE   W06
 BYTE   N01
 BYTE   W06
 BYTE   N11
 BYTE   W12
 BYTE   N04  As1
 BYTE   W06
 BYTE   N11  As0
 BYTE   W12
 BYTE   Gs1
 BYTE   W12
 BYTE   N04  As1
 BYTE   W06
 BYTE   N11  As0
 BYTE   W12
 BYTE   N04  As1
 BYTE   W06
 BYTE   N01
 BYTE   W06
 BYTE   N11  As0
 BYTE   W11
 BYTE   PEND 
//  #01 //009   ----------------------------------------
 BYTE   PATT
  POIN2 Label_019B6853
//  #01 //010   ----------------------------------------
 BYTE   PATT
  POIN2 Label_019B6853
//  #01 //011   ----------------------------------------
Label_019B687D:
 BYTE   W01
 BYTE   N16  Ds1  v127
 BYTE   W18
 BYTE   Cs1
 BYTE   W18
 BYTE   N11  Cn1
 BYTE   W12
 BYTE   N16  Gn0
 BYTE   W18
 BYTE   Gs0
 BYTE   W18
 BYTE   N11  An0
 BYTE   W11
 BYTE   PEND 
//  #01 //012   ----------------------------------------
 BYTE   PATT
  POIN2 Label_019B6853
//  #01 //013   ----------------------------------------
Label_019B6895:
 BYTE   W01
 BYTE   N04  Ds1  v127
 BYTE   W06
 BYTE   N01
 BYTE   W06
 BYTE   N11
 BYTE   W12
 BYTE   N04  Ds2
 BYTE   W06
 BYTE   N11  Ds1
 BYTE   W12
 BYTE   N11
 BYTE   W12
 BYTE   N04  Ds2
 BYTE   W06
 BYTE   N11  As1
 BYTE   W12
 BYTE   N04  Ds2
 BYTE   W06
 BYTE   Ds1
 BYTE   W06
 BYTE   N11  Ds2
 BYTE   W11
 BYTE   PEND 
//  #01 //014   ----------------------------------------
 BYTE   PATT
  POIN2 Label_019B6853
//  #01 //015   ----------------------------------------
Label_019B68BA:
 BYTE   W01
 BYTE   N11  Gs0  v127
 BYTE   W12
 BYTE   N04  Gs1
 BYTE   W06
 BYTE   N04
 BYTE   W06
 BYTE   Gs0
 BYTE   W06
 BYTE   N04
 BYTE   W06
 BYTE   N11
 BYTE   W12
 BYTE   N11
 BYTE   W12
 BYTE   N11
 BYTE   W12
 BYTE   N04  Gs1
 BYTE   W06
 BYTE   N04
 BYTE   W06
 BYTE   N11  Gs0
 BYTE   W11
 BYTE   PEND 
//  #01 //016   ----------------------------------------
 BYTE   PATT
  POIN2 Label_019B680F
//  #01 //017   ----------------------------------------
 BYTE   PATT
  POIN2 Label_019B67F3
//  #01 //018   ----------------------------------------
 BYTE   PATT
  POIN2 Label_019B680F
//  #01 //019   ----------------------------------------
 BYTE   PATT
  POIN2 Label_019B6823
//  #01 //020   ----------------------------------------
 BYTE   PATT
  POIN2 Label_019B680F
//  #01 //021   ----------------------------------------
 BYTE   PATT
  POIN2 Label_019B67F3
//  #01 //022   ----------------------------------------
 BYTE   PATT
  POIN2 Label_019B680F
//  #01 //023   ----------------------------------------
 BYTE   PATT
  POIN2 Label_019B6823
//  #01 //024   ----------------------------------------
 BYTE   PATT
  POIN2 Label_019B6853
//  #01 //025   ----------------------------------------
 BYTE   PATT
  POIN2 Label_019B6853
//  #01 //026   ----------------------------------------
 BYTE   PATT
  POIN2 Label_019B6853
//  #01 //027   ----------------------------------------
 BYTE   PATT
  POIN2 Label_019B687D
//  #01 //028   ----------------------------------------
 BYTE   PATT
  POIN2 Label_019B6853
//  #01 //029   ----------------------------------------
 BYTE   PATT
  POIN2 Label_019B6895
//  #01 //030   ----------------------------------------
 BYTE   PATT
  POIN2 Label_019B6853
//  #01 //031   ----------------------------------------
 BYTE   PATT
  POIN2 Label_019B68BA
//  #01 //032   ----------------------------------------
Label_019B6927:
 BYTE   W01
 BYTE   N11  Gn0  v127
 BYTE   W12
 BYTE   N01
 BYTE   W06
 BYTE   N11  Fn0
 BYTE   W12
 BYTE   N01
 BYTE   W06
 BYTE   N11  Gn0
 BYTE   W12
 BYTE   N01
 BYTE   W06
 BYTE   N11  Fn0
 BYTE   W12
 BYTE   N01
 BYTE   W06
 BYTE   N11  Gn0
 BYTE   W12
 BYTE   Fn0
 BYTE   W11
 BYTE   PEND 
//  #01 //033   ----------------------------------------
Label_019B6943:
 BYTE   W01
 BYTE   N11  Gn0  v127
 BYTE   W12
 BYTE   N01  Gn1
 BYTE   W06
 BYTE   N11  Fn0
 BYTE   W12
 BYTE   N01
 BYTE   W06
 BYTE   N11  Gn0
 BYTE   W12
 BYTE   N01
 BYTE   W06
 BYTE   N11  Fn0
 BYTE   W12
 BYTE   N01  Fn1
 BYTE   W06
 BYTE   N04  Gn0
 BYTE   W06
 BYTE   N01
 BYTE   W06
 BYTE   N11  Fn0
 BYTE   W11
 BYTE   PEND 
//  #01 //034   ----------------------------------------
 BYTE   PATT
  POIN2 Label_019B6927
//  #01 //035   ----------------------------------------
 BYTE   PATT
  POIN2 Label_019B6943
//  #01 //036   ----------------------------------------
 BYTE   PATT
  POIN2 Label_019B6927
//  #01 //037   ----------------------------------------
 BYTE   PATT
  POIN2 Label_019B6943
//  #01 //038   ----------------------------------------
 BYTE   PATT
  POIN2 Label_019B6927
//  #01 //039   ----------------------------------------
 BYTE   PATT
  POIN2 Label_019B6943
//  #01 //040   ----------------------------------------
 BYTE   PATT
  POIN2 Label_019B6927
//  #01 //041   ----------------------------------------
 BYTE   PATT
  POIN2 Label_019B6943
//  #01 //042   ----------------------------------------
 BYTE   PATT
  POIN2 Label_019B6927
//  #01 //043   ----------------------------------------
 BYTE   PATT
  POIN2 Label_019B6943
//  #01 //044   ----------------------------------------
 BYTE   PATT
  POIN2 Label_019B6927
//  #01 //045   ----------------------------------------
 BYTE   PATT
  POIN2 Label_019B6943
//  #01 //046   ----------------------------------------
 BYTE   PATT
  POIN2 Label_019B6927
//  #01 //047   ----------------------------------------
 BYTE   PATT
  POIN2 Label_019B6943
//  #01 //048   ----------------------------------------
Label_019B69AA:
 BYTE   W01
 BYTE   N11  As0  v127
 BYTE   W12
 BYTE   N01
 BYTE   W06
 BYTE   N11  Gs0
 BYTE   W12
 BYTE   N01
 BYTE   W06
 BYTE   N11  As0
 BYTE   W12
 BYTE   N01
 BYTE   W06
 BYTE   N11  Gs0
 BYTE   W12
 BYTE   N01
 BYTE   W06
 BYTE   N11  As0
 BYTE   W12
 BYTE   Gs0
 BYTE   W11
 BYTE   PEND 
//  #01 //049   ----------------------------------------
Label_019B69C6:
 BYTE   W01
 BYTE   N11  As0  v127
 BYTE   W12
 BYTE   N01  As1
 BYTE   W06
 BYTE   N11  Gs0
 BYTE   W12
 BYTE   N01
 BYTE   W06
 BYTE   N11  As0
 BYTE   W12
 BYTE   N01
 BYTE   W06
 BYTE   N11  Gs0
 BYTE   W12
 BYTE   N01  Gs1
 BYTE   W06
 BYTE   N04  As0
 BYTE   W06
 BYTE   N01
 BYTE   W06
 BYTE   N11  Gs0
 BYTE   W11
 BYTE   PEND 
//  #01 //050   ----------------------------------------
 BYTE   PATT
  POIN2 Label_019B69AA
//  #01 //051   ----------------------------------------
 BYTE   PATT
  POIN2 Label_019B69C6
//  #01 //052   ----------------------------------------
 BYTE   PATT
  POIN2 Label_019B69AA
//  #01 //053   ----------------------------------------
 BYTE   PATT
  POIN2 Label_019B69C6
//  #01 //054   ----------------------------------------
 BYTE   PATT
  POIN2 Label_019B69AA
//  #01 //055   ----------------------------------------
 BYTE   PATT
  POIN2 Label_019B69C6
//  #01 //056   ----------------------------------------
Label_019B6A05:
 BYTE   W01
 BYTE   N11  Fn0  v127
 BYTE   W12
 BYTE   N11
 BYTE   W12
 BYTE   N01
 BYTE   W12
 BYTE   N11
 BYTE   W12
 BYTE   N22  Fn1
 BYTE   W24
 BYTE   N11  Fn0
 BYTE   W12
 BYTE   N11
 BYTE   W11
 BYTE   PEND 
//  #01 //057   ----------------------------------------
Label_019B6A19:
 BYTE   W01
 BYTE   N11  Fn0  v127
 BYTE   W12
 BYTE   N11
 BYTE   W12
 BYTE   N01
 BYTE   W12
 BYTE   N11
 BYTE   W12
 BYTE   Fn1
 BYTE   W12
 BYTE   Fn0
 BYTE   W12
 BYTE   Ds1
 BYTE   W12
 BYTE   Fn1
 BYTE   W11
 BYTE   PEND 
//  #01 //058   ----------------------------------------
 BYTE   PATT
  POIN2 Label_019B6A05
//  #01 //059   ----------------------------------------
 BYTE   PATT
  POIN2 Label_019B6A19
//  #01 //060   ----------------------------------------
Label_019B6A37:
 BYTE   W01
 BYTE   N11  Gn0  v127
 BYTE   W12
 BYTE   N11
 BYTE   W12
 BYTE   N01
 BYTE   W12
 BYTE   N11
 BYTE   W12
 BYTE   N22  Gn1
 BYTE   W24
 BYTE   N11  Gn0
 BYTE   W12
 BYTE   N11
 BYTE   W11
 BYTE   PEND 
//  #01 //061   ----------------------------------------
Label_019B6A4B:
 BYTE   W01
 BYTE   N11  Gn0  v127
 BYTE   W12
 BYTE   N11
 BYTE   W12
 BYTE   N01
 BYTE   W12
 BYTE   N11
 BYTE   W12
 BYTE   Gn1
 BYTE   W12
 BYTE   Gn0
 BYTE   W12
 BYTE   Fn1
 BYTE   W12
 BYTE   Gn1
 BYTE   W11
 BYTE   PEND 
//  #01 //062   ----------------------------------------
 BYTE   PATT
  POIN2 Label_019B6A37
//  #01 //063   ----------------------------------------
 BYTE   PATT
  POIN2 Label_019B6A4B
//  #01 //064   ----------------------------------------
 BYTE   PATT
  POIN2 Label_019B6A05
//  #01 //065   ----------------------------------------
 BYTE   PATT
  POIN2 Label_019B6A19
//  #01 //066   ----------------------------------------
 BYTE   PATT
  POIN2 Label_019B6A05
//  #01 //067   ----------------------------------------
 BYTE   PATT
  POIN2 Label_019B6A19
//  #01 //068   ----------------------------------------
 BYTE   PATT
  POIN2 Label_019B6A37
//  #01 //069   ----------------------------------------
 BYTE   PATT
  POIN2 Label_019B6A4B
//  #01 //070   ----------------------------------------
 BYTE   PATT
  POIN2 Label_019B6A37
//  #01 //071   ----------------------------------------
 BYTE   PATT
  POIN2 Label_019B6A4B
//  #01 //072   ----------------------------------------
Label_019B6A91:
 BYTE   W01
 BYTE   N56  As0  v127
 BYTE   W18
 BYTE   N16  As1
 BYTE   W18
 BYTE   N22
 BYTE   W24
 BYTE   N32  As0
 BYTE   W12
 BYTE   N04  Gs1
 BYTE   W06
 BYTE   N11  As1
 BYTE   W12
 BYTE   N04
 BYTE   W05
 BYTE   PEND 
//  #01 //073   ----------------------------------------
Label_019B6AA7:
 BYTE   W01
 BYTE   N56  As0  v127
 BYTE   W18
 BYTE   N16  As1
 BYTE   W18
 BYTE   N22
 BYTE   W24
 BYTE   N32  As0
 BYTE   W12
 BYTE   N04  Cn2
 BYTE   W06
 BYTE   N11  Cs2
 BYTE   W12
 BYTE   N04
 BYTE   W05
 BYTE   PEND 
//  #01 //074   ----------------------------------------
 BYTE   PATT
  POIN2 Label_019B6A91
//  #01 //075   ----------------------------------------
Label_019B6AC2:
 BYTE   W01
 BYTE   N05  Cs2  v127
 BYTE   W06
 BYTE   Cn2
 BYTE   W06
 BYTE   As1
 BYTE   W06
 BYTE   Ds2
 BYTE   W06
 BYTE   Cs2
 BYTE   W06
 BYTE   N04  Cn2
 BYTE   W06
 BYTE   As1
 BYTE   W06
 BYTE   Gs1
 BYTE   W06
 BYTE   Fs1
 BYTE   W06
 BYTE   Fn1
 BYTE   W06
 BYTE   Ds1
 BYTE   W06
 BYTE   Fn1
 BYTE   W06
 BYTE   N05  Cs1
 BYTE   W06
 BYTE   Ds1
 BYTE   W06
 BYTE   Cn1
 BYTE   W06
 BYTE   Cs1
 BYTE   W05
 BYTE   PEND 
//  #01 //076   ----------------------------------------
 BYTE   PATT
  POIN2 Label_019B6A91
//  #01 //077   ----------------------------------------
 BYTE   PATT
  POIN2 Label_019B6AA7
//  #01 //078   ----------------------------------------
 BYTE   PATT
  POIN2 Label_019B6A91
//  #01 //079   ----------------------------------------
 BYTE   W01
 BYTE   N16  En0  v127
 BYTE   W18
 BYTE   Fn0
 BYTE   W18
 BYTE   N10  Fs0
 BYTE   W12
 BYTE   N16  Gn0
 BYTE   W18
 BYTE   Gs0
 BYTE   W18
 BYTE   N10  An0
 BYTE   W11
//  #01 //080   ----------------------------------------
 BYTE   PATT
  POIN2 Label_019B6A91
//  #01 //081   ----------------------------------------
 BYTE   PATT
  POIN2 Label_019B6AA7
//  #01 //082   ----------------------------------------
 BYTE   PATT
  POIN2 Label_019B6A91
//  #01 //083   ----------------------------------------
 BYTE   PATT
  POIN2 Label_019B6AC2
//  #01 //084   ----------------------------------------
 BYTE   PATT
  POIN2 Label_019B6A91
//  #01 //085   ----------------------------------------
 BYTE   PATT
  POIN2 Label_019B6AA7
//  #01 //086   ----------------------------------------
 BYTE   PATT
  POIN2 Label_019B6A91
//  #01 //087   ----------------------------------------
 BYTE   W01
 BYTE   N16  En0  v127
 BYTE   W18
 BYTE   Fn0
 BYTE   W18
 BYTE   N10  Fs0
 BYTE   W12
 BYTE   N16  Gn0
 BYTE   W18
 BYTE   Gs0
 BYTE   W18
 BYTE   N10  An0
 BYTE   W10
 BYTE   GoTo
  POIN2 Label_019B67D6
//  #01 //088   ----------------------------------------
 BYTE   BEND   c_v+0
 BYTE   FINE

//**************** Track 2 (Midi-Chn.1) ****************//

DeepSpace2_002:
//  #02 //000   ----------------------------------------
 BYTE   KEYSH   DeepSpace2_key+0
Label_019B653A:
 BYTE   VOICE   60
 BYTE   VOL   19*DeepSpace2_mvl/mxv
 BYTE   PAN   c_v+10
 BYTE   BEND   c_v+0
 BYTE   W01
 BYTE   N04  Cs3  v127
 BYTE   W02
 BYTE   Dn3
 BYTE   W02
 BYTE   N88  Ds3
 BYTE   W90
 BYTE   W01
//  #02 //001   ----------------------------------------
Label_019B654D:
 BYTE   W01
 BYTE   N04  En3  v127
 BYTE   W02
 BYTE   N14  Fn3
 BYTE   W16
 BYTE   N16  Fs3
 BYTE   W18
 BYTE   N56  Gs3
 BYTE   W56
 BYTE   W03
 BYTE   PEND 
//  #02 //002   ----------------------------------------
 BYTE   W01
 BYTE   N04  Gn3
 BYTE   W02
 BYTE   N32  Gs3
 BYTE   W32
 BYTE   W02
 BYTE   N14  Fs3
 BYTE   W24
 BYTE   N10
 BYTE   W12
 BYTE   Fn3
 BYTE   W12
 BYTE   Fs3
 BYTE   W11
//  #02 //003   ----------------------------------------
 BYTE   W01
 BYTE   N04  Gn3
 BYTE   W02
 BYTE   N32  Gs3
 BYTE   W32
 BYTE   W02
 BYTE   N56  Ds3
 BYTE   W56
 BYTE   W03
//  #02 //004   ----------------------------------------
 BYTE   W01
 BYTE   N04  Cs3
 BYTE   W02
 BYTE   Dn3
 BYTE   W02
 BYTE   N54  Ds3
 BYTE   W56
 BYTE   N10
 BYTE   W12
 BYTE   Cs3
 BYTE   W12
 BYTE   Ds3
 BYTE   W11
//  #02 //005   ----------------------------------------
 BYTE   PATT
  POIN2 Label_019B654D
//  #02 //006   ----------------------------------------
 BYTE   W01
 BYTE   N04  An3  v127
 BYTE   W02
 BYTE   N32  As3
 BYTE   W32
 BYTE   W02
 BYTE   N14  Gs3
 BYTE   W24
 BYTE   N10  As3
 BYTE   W12
 BYTE   Gs3
 BYTE   W12
 BYTE   Fs3
 BYTE   W11
//  #02 //007   ----------------------------------------
 BYTE   W01
 BYTE   N32  Ds3
 BYTE   W36
 BYTE   Cs3
 BYTE   W36
 BYTE   N22  Cn3
 BYTE   W23
//  #02 //008   ----------------------------------------
Label_019B65AA:
 BYTE   W01
 BYTE   N36  As2  v127
 BYTE   W48
 BYTE   N04  En3
 BYTE   W02
 BYTE   N16  Fn3
 BYTE   W16
 BYTE   Ds3
 BYTE   W18
 BYTE   N10  Cs3
 BYTE   W11
 BYTE   PEND 
//  #02 //009   ----------------------------------------
Label_019B65BB:
 BYTE   W01
 BYTE   N32  Ds3  v127
 BYTE   W36
 BYTE   N07  As2
 BYTE   W12
 BYTE   N36
 BYTE   W44
 BYTE   W03
 BYTE   PEND 
//  #02 //010   ----------------------------------------
 BYTE   PATT
  POIN2 Label_019B65AA
//  #02 //011   ----------------------------------------
Label_019B65CC:
 BYTE   W01
 BYTE   N92  Ds3  v127
 BYTE   W92
 BYTE   W03
 BYTE   PEND 
//  #02 //012   ----------------------------------------
 BYTE   PATT
  POIN2 Label_019B65AA
//  #02 //013   ----------------------------------------
 BYTE   PATT
  POIN2 Label_019B65BB
//  #02 //014   ----------------------------------------
 BYTE   PATT
  POIN2 Label_019B65AA
//  #02 //015   ----------------------------------------
Label_019B65E2:
 BYTE   W01
 BYTE   N32  Cs3  v127
 BYTE   W36
 BYTE   N04  Cn3
 BYTE   W06
 BYTE   Cs3
 BYTE   W06
 BYTE   N36  Cn3
 BYTE   W44
 BYTE   W03
 BYTE   PEND 
//  #02 //016   ----------------------------------------
 BYTE   W01
 BYTE   N04  Cs3  v120
 BYTE   W02
 BYTE   Dn3
 BYTE   W02
 BYTE   N88  Ds3
 BYTE   W90
 BYTE   W01
//  #02 //017   ----------------------------------------
Label_019B65FC:
 BYTE   W01
 BYTE   N04  En3  v120
 BYTE   W02
 BYTE   N14  Fn3
 BYTE   W16
 BYTE   N16  Fs3
 BYTE   W18
 BYTE   N56  Gs3
 BYTE   W56
 BYTE   W03
 BYTE   PEND 
//  #02 //018   ----------------------------------------
 BYTE   W01
 BYTE   N04  Gn3
 BYTE   W02
 BYTE   N32  Gs3
 BYTE   W32
 BYTE   W02
 BYTE   N14  Fs3
 BYTE   W24
 BYTE   N10
 BYTE   W12
 BYTE   Fn3
 BYTE   W12
 BYTE   Fs3
 BYTE   W11
//  #02 //019   ----------------------------------------
 BYTE   W01
 BYTE   N04  Gn3
 BYTE   W02
 BYTE   N32  Gs3
 BYTE   W32
 BYTE   W02
 BYTE   N56  Ds3
 BYTE   W56
 BYTE   W03
//  #02 //020   ----------------------------------------
 BYTE   W01
 BYTE   N04  Cs3
 BYTE   W02
 BYTE   Dn3
 BYTE   W02
 BYTE   N54  Ds3
 BYTE   W56
 BYTE   N10
 BYTE   W12
 BYTE   Cs3
 BYTE   W12
 BYTE   Ds3
 BYTE   W11
//  #02 //021   ----------------------------------------
 BYTE   PATT
  POIN2 Label_019B65FC
//  #02 //022   ----------------------------------------
 BYTE   W01
 BYTE   N04  An3  v120
 BYTE   W02
 BYTE   N32  As3
 BYTE   W32
 BYTE   W02
 BYTE   N14  Gs3
 BYTE   W24
 BYTE   N10  As3
 BYTE   W12
 BYTE   Gs3
 BYTE   W12
 BYTE   Fs3
 BYTE   W11
//  #02 //023   ----------------------------------------
 BYTE   W01
 BYTE   N32  Ds3
 BYTE   W36
 BYTE   Cs3
 BYTE   W36
 BYTE   N22  Cn3
 BYTE   W23
//  #02 //024   ----------------------------------------
 BYTE   PATT
  POIN2 Label_019B65AA
//  #02 //025   ----------------------------------------
 BYTE   PATT
  POIN2 Label_019B65BB
//  #02 //026   ----------------------------------------
 BYTE   PATT
  POIN2 Label_019B65AA
//  #02 //027   ----------------------------------------
 BYTE   PATT
  POIN2 Label_019B65CC
//  #02 //028   ----------------------------------------
 BYTE   PATT
  POIN2 Label_019B65AA
//  #02 //029   ----------------------------------------
 BYTE   PATT
  POIN2 Label_019B65BB
//  #02 //030   ----------------------------------------
 BYTE   PATT
  POIN2 Label_019B65AA
//  #02 //031   ----------------------------------------
 BYTE   PATT
  POIN2 Label_019B65E2
//  #02 //032   ----------------------------------------
 BYTE   W96
//  #02 //033   ----------------------------------------
 BYTE   W96
//  #02 //034   ----------------------------------------
 BYTE   W96
//  #02 //035   ----------------------------------------
 BYTE   W96
//  #02 //036   ----------------------------------------
 BYTE   W96
//  #02 //037   ----------------------------------------
 BYTE   W96
//  #02 //038   ----------------------------------------
 BYTE   W96
//  #02 //039   ----------------------------------------
 BYTE   W72
 BYTE   W01
 BYTE   N05  Gn2  v108
 BYTE   W06
 BYTE   An2
 BYTE   W06
 BYTE   As2
 BYTE   W06
 BYTE   Cn3
 BYTE   W05
//  #02 //040   ----------------------------------------
Label_019B6694:
 BYTE   W01
 BYTE   N88  Dn3  v108
 BYTE   W92
 BYTE   W03
 BYTE   PEND 
//  #02 //041   ----------------------------------------
Label_019B669B:
 BYTE   W01
 BYTE   N36  Cn3  v108
 BYTE   W48
 BYTE   Fn3
 BYTE   W44
 BYTE   W03
 BYTE   PEND 
//  #02 //042   ----------------------------------------
 BYTE   W01
 BYTE   N56  Dn3
 BYTE   W72
 BYTE   N10  Ds3
 BYTE   W12
 BYTE   Fn3
 BYTE   W11
//  #02 //043   ----------------------------------------
 BYTE   W01
 BYTE   N36  Gn3
 BYTE   W48
 BYTE   N19  An3
 BYTE   W24
 BYTE   N05  Gn2
 BYTE   W06
 BYTE   An2
 BYTE   W06
 BYTE   As2
 BYTE   W06
 BYTE   Cn3
 BYTE   W05
//  #02 //044   ----------------------------------------
 BYTE   PATT
  POIN2 Label_019B6694
//  #02 //045   ----------------------------------------
 BYTE   PATT
  POIN2 Label_019B669B
//  #02 //046   ----------------------------------------
 BYTE   W01
 BYTE   N56  Gn3  v108
 BYTE   W72
 BYTE   N10  An3
 BYTE   W12
 BYTE   As3
 BYTE   W11
//  #02 //047   ----------------------------------------
 BYTE   W01
 BYTE   N88  An3
 BYTE   W92
 BYTE   W03
//  #02 //048   ----------------------------------------
Label_019B66D6:
 BYTE   W01
 BYTE   N88  Fn3  v108
 BYTE   W92
 BYTE   W03
 BYTE   PEND 
//  #02 //049   ----------------------------------------
Label_019B66DD:
 BYTE   W01
 BYTE   N36  Ds3  v108
 BYTE   W48
 BYTE   Gs3
 BYTE   W44
 BYTE   W03
 BYTE   PEND 
//  #02 //050   ----------------------------------------
 BYTE   W01
 BYTE   N56  Fn3
 BYTE   W72
 BYTE   N10  Fs3
 BYTE   W12
 BYTE   Gs3
 BYTE   W11
//  #02 //051   ----------------------------------------
 BYTE   W01
 BYTE   N36  As3
 BYTE   W48
 BYTE   N19  Cn4
 BYTE   W24
 BYTE   N05  As2
 BYTE   W06
 BYTE   Cn3
 BYTE   W06
 BYTE   Cs3
 BYTE   W06
 BYTE   Ds3
 BYTE   W05
//  #02 //052   ----------------------------------------
 BYTE   PATT
  POIN2 Label_019B66D6
//  #02 //053   ----------------------------------------
 BYTE   PATT
  POIN2 Label_019B66DD
//  #02 //054   ----------------------------------------
 BYTE   W01
 BYTE   N56  As3  v108
 BYTE   W72
 BYTE   N10  Cn4
 BYTE   W12
 BYTE   Cs4
 BYTE   W11
//  #02 //055   ----------------------------------------
 BYTE   W01
 BYTE   N88  Cn4
 BYTE   W92
 BYTE   W03
//  #02 //056   ----------------------------------------
Label_019B6718:
 BYTE   W01
 BYTE   N88  Fn2  v108
 BYTE   N88  An2
 BYTE   N88  Cn3
 BYTE   W92
 BYTE   W03
 BYTE   PEND 
//  #02 //057   ----------------------------------------
Label_019B6723:
 BYTE   W01
 BYTE   N88  Ds2  v108
 BYTE   N88  Gn2
 BYTE   N88  As2
 BYTE   W92
 BYTE   W03
 BYTE   PEND 
//  #02 //058   ----------------------------------------
Label_019B672E:
 BYTE   W01
 BYTE   N88  Cs2  v108
 BYTE   N88  Fn2
 BYTE   N88  Gs2
 BYTE   W92
 BYTE   W03
 BYTE   PEND 
//  #02 //059   ----------------------------------------
 BYTE   PATT
  POIN2 Label_019B6723
//  #02 //060   ----------------------------------------
Label_019B673E:
 BYTE   W01
 BYTE   N88  Gn2  v108
 BYTE   N88  Bn2
 BYTE   N88  Dn3
 BYTE   W92
 BYTE   W03
 BYTE   PEND 
//  #02 //061   ----------------------------------------
 BYTE   PATT
  POIN2 Label_019B6718
//  #02 //062   ----------------------------------------
 BYTE   PATT
  POIN2 Label_019B6723
//  #02 //063   ----------------------------------------
 BYTE   PATT
  POIN2 Label_019B6718
//  #02 //064   ----------------------------------------
 BYTE   PATT
  POIN2 Label_019B6718
//  #02 //065   ----------------------------------------
 BYTE   PATT
  POIN2 Label_019B6723
//  #02 //066   ----------------------------------------
 BYTE   PATT
  POIN2 Label_019B672E
//  #02 //067   ----------------------------------------
 BYTE   PATT
  POIN2 Label_019B6723
//  #02 //068   ----------------------------------------
 BYTE   PATT
  POIN2 Label_019B673E
//  #02 //069   ----------------------------------------
 BYTE   PATT
  POIN2 Label_019B6718
//  #02 //070   ----------------------------------------
 BYTE   PATT
  POIN2 Label_019B6723
//  #02 //071   ----------------------------------------
 BYTE   PATT
  POIN2 Label_019B6718
//  #02 //072   ----------------------------------------
 BYTE   W96
//  #02 //073   ----------------------------------------
 BYTE   W96
//  #02 //074   ----------------------------------------
 BYTE   W96
//  #02 //075   ----------------------------------------
 BYTE   W96
//  #02 //076   ----------------------------------------
 BYTE   W96
//  #02 //077   ----------------------------------------
 BYTE   W96
//  #02 //078   ----------------------------------------
 BYTE   W96
//  #02 //079   ----------------------------------------
 BYTE   W96
//  #02 //080   ----------------------------------------
 BYTE   W96
//  #02 //081   ----------------------------------------
 BYTE   W96
//  #02 //082   ----------------------------------------
 BYTE   W96
//  #02 //083   ----------------------------------------
 BYTE   W96
//  #02 //084   ----------------------------------------
 BYTE   W96
//  #02 //085   ----------------------------------------
 BYTE   W96
//  #02 //086   ----------------------------------------
 BYTE   W96
//  #02 //087   ----------------------------------------
 BYTE   W92
 BYTE   W03
 BYTE   GoTo
  POIN2 Label_019B653A
//  #02 //088   ----------------------------------------
 BYTE   PAN   c_v+10
 BYTE   BEND   c_v+0
 BYTE   FINE

//**************** Track 3 (Midi-Chn.2) ****************//

DeepSpace2_003:
//  #03 //000   ----------------------------------------
 BYTE   KEYSH   DeepSpace2_key+0
Label_019B3EC6:
 BYTE   VOICE   62
 BYTE   VOL   20*DeepSpace2_mvl/mxv
 BYTE   PAN   c_v-13
 BYTE   BEND   c_v+0
 BYTE   W96
//  #03 //001   ----------------------------------------
 BYTE   W96
//  #03 //002   ----------------------------------------
 BYTE   W96
//  #03 //003   ----------------------------------------
 BYTE   W96
//  #03 //004   ----------------------------------------
 BYTE   W96
//  #03 //005   ----------------------------------------
 BYTE   W96
//  #03 //006   ----------------------------------------
 BYTE   W96
//  #03 //007   ----------------------------------------
 BYTE   W96
//  #03 //008   ----------------------------------------
Label_019B3ED6:
 BYTE   W01
 BYTE   N36  As2  v127
 BYTE   W48
 BYTE   N16  Fn3
 BYTE   W18
 BYTE   Ds3
 BYTE   W18
 BYTE   N10  Cs3
 BYTE   W11
 BYTE   PEND 
//  #03 //009   ----------------------------------------
Label_019B3EE4:
 BYTE   W01
 BYTE   N32  Ds3  v127
 BYTE   W36
 BYTE   N11  As2
 BYTE   W12
 BYTE   N36
 BYTE   W44
 BYTE   W03
 BYTE   PEND 
//  #03 //010   ----------------------------------------
 BYTE   PATT
  POIN2 Label_019B3ED6
//  #03 //011   ----------------------------------------
Label_019B3EF5:
 BYTE   W01
 BYTE   N92  Ds3  v127
 BYTE   W92
 BYTE   W03
 BYTE   PEND 
//  #03 //012   ----------------------------------------
 BYTE   PATT
  POIN2 Label_019B3ED6
//  #03 //013   ----------------------------------------
 BYTE   PATT
  POIN2 Label_019B3EE4
//  #03 //014   ----------------------------------------
 BYTE   PATT
  POIN2 Label_019B3ED6
//  #03 //015   ----------------------------------------
Label_019B3F0B:
 BYTE   W01
 BYTE   N32  Cs3  v127
 BYTE   W36
 BYTE   N05  Cn3
 BYTE   W06
 BYTE   Cs3
 BYTE   W06
 BYTE   N36  Cn3
 BYTE   W44
 BYTE   W03
 BYTE   PEND 
//  #03 //016   ----------------------------------------
 BYTE   W96
//  #03 //017   ----------------------------------------
 BYTE   W96
//  #03 //018   ----------------------------------------
 BYTE   W96
//  #03 //019   ----------------------------------------
 BYTE   W96
//  #03 //020   ----------------------------------------
 BYTE   W96
//  #03 //021   ----------------------------------------
 BYTE   W96
//  #03 //022   ----------------------------------------
 BYTE   W96
//  #03 //023   ----------------------------------------
 BYTE   W96
//  #03 //024   ----------------------------------------
 BYTE   PATT
  POIN2 Label_019B3ED6
//  #03 //025   ----------------------------------------
 BYTE   PATT
  POIN2 Label_019B3EE4
//  #03 //026   ----------------------------------------
 BYTE   PATT
  POIN2 Label_019B3ED6
//  #03 //027   ----------------------------------------
 BYTE   PATT
  POIN2 Label_019B3EF5
//  #03 //028   ----------------------------------------
 BYTE   PATT
  POIN2 Label_019B3ED6
//  #03 //029   ----------------------------------------
 BYTE   PATT
  POIN2 Label_019B3EE4
//  #03 //030   ----------------------------------------
 BYTE   PATT
  POIN2 Label_019B3ED6
//  #03 //031   ----------------------------------------
 BYTE   PATT
  POIN2 Label_019B3F0B
//  #03 //032   ----------------------------------------
 BYTE   W96
//  #03 //033   ----------------------------------------
 BYTE   W96
//  #03 //034   ----------------------------------------
 BYTE   W96
//  #03 //035   ----------------------------------------
 BYTE   W96
//  #03 //036   ----------------------------------------
 BYTE   W96
//  #03 //037   ----------------------------------------
 BYTE   W96
//  #03 //038   ----------------------------------------
 BYTE   W96
//  #03 //039   ----------------------------------------
 BYTE   W72
 BYTE   W01
 BYTE   N05  Gn2  v127
 BYTE   W06
 BYTE   An2
 BYTE   W06
 BYTE   As2
 BYTE   W06
 BYTE   Cn3
 BYTE   W05
//  #03 //040   ----------------------------------------
Label_019B3F5D:
 BYTE   W01
 BYTE   N88  Dn3  v127
 BYTE   W92
 BYTE   W03
 BYTE   PEND 
//  #03 //041   ----------------------------------------
Label_019B3F64:
 BYTE   W01
 BYTE   N36  Cn3  v127
 BYTE   W48
 BYTE   Fn3
 BYTE   W44
 BYTE   W03
 BYTE   PEND 
//  #03 //042   ----------------------------------------
 BYTE   W01
 BYTE   N56  Dn3
 BYTE   W72
 BYTE   N10  Ds3
 BYTE   W12
 BYTE   Fn3
 BYTE   W11
//  #03 //043   ----------------------------------------
 BYTE   W01
 BYTE   N36  Gn3
 BYTE   W48
 BYTE   N19  An3
 BYTE   W24
 BYTE   N05  Gn2
 BYTE   W06
 BYTE   An2
 BYTE   W06
 BYTE   As2
 BYTE   W06
 BYTE   Cn3
 BYTE   W05
//  #03 //044   ----------------------------------------
 BYTE   PATT
  POIN2 Label_019B3F5D
//  #03 //045   ----------------------------------------
 BYTE   PATT
  POIN2 Label_019B3F64
//  #03 //046   ----------------------------------------
 BYTE   W01
 BYTE   N56  Gn3  v127
 BYTE   W72
 BYTE   N10  An3
 BYTE   W12
 BYTE   As3
 BYTE   W11
//  #03 //047   ----------------------------------------
 BYTE   W01
 BYTE   N88  An3
 BYTE   W92
 BYTE   W03
//  #03 //048   ----------------------------------------
Label_019B3F9F:
 BYTE   W01
 BYTE   N88  Fn3  v127
 BYTE   W92
 BYTE   W03
 BYTE   PEND 
//  #03 //049   ----------------------------------------
Label_019B3FA6:
 BYTE   W01
 BYTE   N36  Ds3  v127
 BYTE   W48
 BYTE   Gs3
 BYTE   W44
 BYTE   W03
 BYTE   PEND 
//  #03 //050   ----------------------------------------
 BYTE   W01
 BYTE   N56  Fn3
 BYTE   W72
 BYTE   N10  Fs3
 BYTE   W12
 BYTE   Gs3
 BYTE   W11
//  #03 //051   ----------------------------------------
 BYTE   W01
 BYTE   N36  As3
 BYTE   W48
 BYTE   N19  Cn4
 BYTE   W24
 BYTE   N05  As2
 BYTE   W06
 BYTE   Cn3
 BYTE   W06
 BYTE   Cs3
 BYTE   W06
 BYTE   Ds3
 BYTE   W05
//  #03 //052   ----------------------------------------
 BYTE   PATT
  POIN2 Label_019B3F9F
//  #03 //053   ----------------------------------------
 BYTE   PATT
  POIN2 Label_019B3FA6
//  #03 //054   ----------------------------------------
 BYTE   W01
 BYTE   N56  As3  v127
 BYTE   W72
 BYTE   N10  Cn4
 BYTE   W12
 BYTE   Cs4
 BYTE   W11
//  #03 //055   ----------------------------------------
 BYTE   W01
 BYTE   N88  Cn4
 BYTE   W92
 BYTE   W03
//  #03 //056   ----------------------------------------
 BYTE   W96
//  #03 //057   ----------------------------------------
 BYTE   W96
//  #03 //058   ----------------------------------------
 BYTE   W96
//  #03 //059   ----------------------------------------
 BYTE   W96
//  #03 //060   ----------------------------------------
 BYTE   W96
//  #03 //061   ----------------------------------------
 BYTE   W96
//  #03 //062   ----------------------------------------
 BYTE   W96
//  #03 //063   ----------------------------------------
 BYTE   W96
//  #03 //064   ----------------------------------------
 BYTE   W96
//  #03 //065   ----------------------------------------
 BYTE   W96
//  #03 //066   ----------------------------------------
 BYTE   W96
//  #03 //067   ----------------------------------------
 BYTE   W96
//  #03 //068   ----------------------------------------
 BYTE   W96
//  #03 //069   ----------------------------------------
 BYTE   W96
//  #03 //070   ----------------------------------------
 BYTE   W96
//  #03 //071   ----------------------------------------
 BYTE   W96
//  #03 //072   ----------------------------------------
 BYTE   W96
//  #03 //073   ----------------------------------------
 BYTE   W96
//  #03 //074   ----------------------------------------
 BYTE   W96
//  #03 //075   ----------------------------------------
 BYTE   W96
//  #03 //076   ----------------------------------------
 BYTE   W96
//  #03 //077   ----------------------------------------
 BYTE   W96
//  #03 //078   ----------------------------------------
 BYTE   W96
//  #03 //079   ----------------------------------------
 BYTE   W96
//  #03 //080   ----------------------------------------
 BYTE   W96
//  #03 //081   ----------------------------------------
 BYTE   W96
//  #03 //082   ----------------------------------------
 BYTE   W96
//  #03 //083   ----------------------------------------
 BYTE   W96
//  #03 //084   ----------------------------------------
 BYTE   W96
//  #03 //085   ----------------------------------------
 BYTE   W96
//  #03 //086   ----------------------------------------
 BYTE   W96
//  #03 //087   ----------------------------------------
 BYTE   W92
 BYTE   W03
 BYTE   GoTo
  POIN2 Label_019B3EC6
//  #03 //088   ----------------------------------------
 BYTE   BEND   c_v+0
 BYTE   FINE

//**************** Track 4 (Midi-Chn.3) ****************//

DeepSpace2_004:
//  #04 //000   ----------------------------------------
 BYTE   KEYSH   DeepSpace2_key+0
Label_019B52E2:
 BYTE   VOICE   46
 BYTE   VOL   22*DeepSpace2_mvl/mxv
 BYTE   PAN   c_v+32
 BYTE   BEND   c_v+0
 BYTE   W96
//  #04 //001   ----------------------------------------
 BYTE   W96
//  #04 //002   ----------------------------------------
 BYTE   W96
//  #04 //003   ----------------------------------------
 BYTE   W96
//  #04 //004   ----------------------------------------
 BYTE   W96
//  #04 //005   ----------------------------------------
 BYTE   W96
//  #04 //006   ----------------------------------------
 BYTE   W96
//  #04 //007   ----------------------------------------
 BYTE   W96
//  #04 //008   ----------------------------------------
Label_019B52F2:
 BYTE   W01
 BYTE   N04  As5  v108
 BYTE   W12
 BYTE   As4
 BYTE   W12
 BYTE   As5
 BYTE   W12
 BYTE   As4
 BYTE   W12
 BYTE   As5
 BYTE   W12
 BYTE   As4
 BYTE   W12
 BYTE   As5
 BYTE   W12
 BYTE   As4
 BYTE   W11
 BYTE   PEND 
//  #04 //009   ----------------------------------------
 BYTE   PATT
  POIN2 Label_019B52F2
//  #04 //010   ----------------------------------------
 BYTE   PATT
  POIN2 Label_019B52F2
//  #04 //011   ----------------------------------------
 BYTE   PATT
  POIN2 Label_019B52F2
//  #04 //012   ----------------------------------------
 BYTE   PATT
  POIN2 Label_019B52F2
//  #04 //013   ----------------------------------------
 BYTE   PATT
  POIN2 Label_019B52F2
//  #04 //014   ----------------------------------------
 BYTE   PATT
  POIN2 Label_019B52F2
//  #04 //015   ----------------------------------------
Label_019B5324:
 BYTE   W01
 BYTE   N04  Gs5  v108
 BYTE   W12
 BYTE   Gs4
 BYTE   W12
 BYTE   Gs5
 BYTE   W12
 BYTE   Gs4
 BYTE   W12
 BYTE   Gs5
 BYTE   W12
 BYTE   Gs4
 BYTE   W12
 BYTE   Gs5
 BYTE   W12
 BYTE   Gs4
 BYTE   W11
 BYTE   PEND 
//  #04 //016   ----------------------------------------
 BYTE   W96
//  #04 //017   ----------------------------------------
 BYTE   W96
//  #04 //018   ----------------------------------------
 BYTE   W96
//  #04 //019   ----------------------------------------
 BYTE   W96
//  #04 //020   ----------------------------------------
 BYTE   W96
//  #04 //021   ----------------------------------------
 BYTE   W96
//  #04 //022   ----------------------------------------
 BYTE   W96
//  #04 //023   ----------------------------------------
 BYTE   W96
//  #04 //024   ----------------------------------------
 BYTE   PATT
  POIN2 Label_019B52F2
//  #04 //025   ----------------------------------------
 BYTE   PATT
  POIN2 Label_019B52F2
//  #04 //026   ----------------------------------------
 BYTE   PATT
  POIN2 Label_019B52F2
//  #04 //027   ----------------------------------------
 BYTE   PATT
  POIN2 Label_019B52F2
//  #04 //028   ----------------------------------------
 BYTE   PATT
  POIN2 Label_019B52F2
//  #04 //029   ----------------------------------------
 BYTE   PATT
  POIN2 Label_019B52F2
//  #04 //030   ----------------------------------------
 BYTE   PATT
  POIN2 Label_019B52F2
//  #04 //031   ----------------------------------------
 BYTE   PATT
  POIN2 Label_019B5324
//  #04 //032   ----------------------------------------
 BYTE   W96
//  #04 //033   ----------------------------------------
 BYTE   W96
//  #04 //034   ----------------------------------------
 BYTE   W96
//  #04 //035   ----------------------------------------
 BYTE   W96
//  #04 //036   ----------------------------------------
 BYTE   W96
//  #04 //037   ----------------------------------------
 BYTE   W96
//  #04 //038   ----------------------------------------
 BYTE   W96
//  #04 //039   ----------------------------------------
 BYTE   W96
//  #04 //040   ----------------------------------------
Label_019B5370:
 BYTE   W01
 BYTE   N03  Gn5  v108
 BYTE   W06
 BYTE   Dn5
 BYTE   W06
 BYTE   Gn4
 BYTE   W06
 BYTE   Dn5
 BYTE   W06
 BYTE   Gn5
 BYTE   W06
 BYTE   Dn5
 BYTE   W06
 BYTE   Gn4
 BYTE   W06
 BYTE   Dn5
 BYTE   W06
 BYTE   Gn5
 BYTE   W06
 BYTE   Dn5
 BYTE   W06
 BYTE   Gn4
 BYTE   W06
 BYTE   Dn5
 BYTE   W06
 BYTE   Gn5
 BYTE   W06
 BYTE   Dn5
 BYTE   W06
 BYTE   Gn4
 BYTE   W06
 BYTE   Dn5
 BYTE   W05
 BYTE   PEND 
//  #04 //041   ----------------------------------------
 BYTE   PATT
  POIN2 Label_019B5370
//  #04 //042   ----------------------------------------
 BYTE   PATT
  POIN2 Label_019B5370
//  #04 //043   ----------------------------------------
 BYTE   PATT
  POIN2 Label_019B5370
//  #04 //044   ----------------------------------------
 BYTE   PATT
  POIN2 Label_019B5370
//  #04 //045   ----------------------------------------
 BYTE   PATT
  POIN2 Label_019B5370
//  #04 //046   ----------------------------------------
 BYTE   PATT
  POIN2 Label_019B5370
//  #04 //047   ----------------------------------------
 BYTE   PATT
  POIN2 Label_019B5370
//  #04 //048   ----------------------------------------
Label_019B53B7:
 BYTE   W01
 BYTE   N03  As5  v108
 BYTE   W06
 BYTE   Fn5
 BYTE   W06
 BYTE   As4
 BYTE   W06
 BYTE   Fn5
 BYTE   W06
 BYTE   As5
 BYTE   W06
 BYTE   Fn5
 BYTE   W06
 BYTE   As4
 BYTE   W06
 BYTE   Fn5
 BYTE   W06
 BYTE   As5
 BYTE   W06
 BYTE   Fn5
 BYTE   W06
 BYTE   As4
 BYTE   W06
 BYTE   Fn5
 BYTE   W06
 BYTE   As5
 BYTE   W06
 BYTE   Fn5
 BYTE   W06
 BYTE   As4
 BYTE   W06
 BYTE   Fn5
 BYTE   W05
 BYTE   PEND 
//  #04 //049   ----------------------------------------
 BYTE   PATT
  POIN2 Label_019B53B7
//  #04 //050   ----------------------------------------
 BYTE   PATT
  POIN2 Label_019B53B7
//  #04 //051   ----------------------------------------
 BYTE   PATT
  POIN2 Label_019B53B7
//  #04 //052   ----------------------------------------
 BYTE   PATT
  POIN2 Label_019B53B7
//  #04 //053   ----------------------------------------
 BYTE   PATT
  POIN2 Label_019B53B7
//  #04 //054   ----------------------------------------
 BYTE   PATT
  POIN2 Label_019B53B7
//  #04 //055   ----------------------------------------
 BYTE   PATT
  POIN2 Label_019B53B7
//  #04 //056   ----------------------------------------
 BYTE   W96
//  #04 //057   ----------------------------------------
 BYTE   W96
//  #04 //058   ----------------------------------------
 BYTE   W96
//  #04 //059   ----------------------------------------
 BYTE   W96
//  #04 //060   ----------------------------------------
 BYTE   W96
//  #04 //061   ----------------------------------------
 BYTE   W96
//  #04 //062   ----------------------------------------
 BYTE   W96
//  #04 //063   ----------------------------------------
 BYTE   W96
//  #04 //064   ----------------------------------------
 BYTE   W96
//  #04 //065   ----------------------------------------
 BYTE   W96
//  #04 //066   ----------------------------------------
 BYTE   W96
//  #04 //067   ----------------------------------------
 BYTE   W96
//  #04 //068   ----------------------------------------
 BYTE   W96
//  #04 //069   ----------------------------------------
 BYTE   W96
//  #04 //070   ----------------------------------------
 BYTE   W96
//  #04 //071   ----------------------------------------
 BYTE   W96
//  #04 //072   ----------------------------------------
 BYTE   W96
//  #04 //073   ----------------------------------------
 BYTE   W96
//  #04 //074   ----------------------------------------
 BYTE   W96
//  #04 //075   ----------------------------------------
 BYTE   W96
//  #04 //076   ----------------------------------------
 BYTE   W96
//  #04 //077   ----------------------------------------
 BYTE   W96
//  #04 //078   ----------------------------------------
 BYTE   W96
//  #04 //079   ----------------------------------------
 BYTE   W96
//  #04 //080   ----------------------------------------
 BYTE   W01
 BYTE   N04  As4  v108
 BYTE   W06
 BYTE   N04
 BYTE   W06
 BYTE   Gs4
 BYTE   W06
 BYTE   N68  As4
 BYTE   W76
 BYTE   W01
//  #04 //081   ----------------------------------------
 BYTE   W01
 BYTE   N04  Cn5
 BYTE   W06
 BYTE   N04
 BYTE   W06
 BYTE   As4
 BYTE   W06
 BYTE   N68  Ds5
 BYTE   W76
 BYTE   W01
//  #04 //082   ----------------------------------------
 BYTE   W01
 BYTE   N04  Cs5
 BYTE   W06
 BYTE   N04
 BYTE   W06
 BYTE   Cn5
 BYTE   W06
 BYTE   N68  Cs5
 BYTE   W76
 BYTE   W01
//  #04 //083   ----------------------------------------
 BYTE   W01
 BYTE   N04  Ds5
 BYTE   W06
 BYTE   N04
 BYTE   W06
 BYTE   Cs5
 BYTE   W06
 BYTE   N68  Ds5
 BYTE   W76
 BYTE   W01
//  #04 //084   ----------------------------------------
Label_019B5447:
 BYTE   W01
 BYTE   N04  Fn4  v108
 BYTE   W06
 BYTE   Gs4
 BYTE   W06
 BYTE   Cs5
 BYTE   W06
 BYTE   Fn5
 BYTE   W06
 BYTE   Gs5
 BYTE   W06
 BYTE   Fn5
 BYTE   W06
 BYTE   Cs5
 BYTE   W06
 BYTE   Gs4
 BYTE   W06
 BYTE   Cs6
 BYTE   W06
 BYTE   Gs5
 BYTE   W06
 BYTE   Fn5
 BYTE   W06
 BYTE   Cs5
 BYTE   W06
 BYTE   Gs4
 BYTE   W06
 BYTE   Fn4
 BYTE   W06
 BYTE   Gs4
 BYTE   W06
 BYTE   Cs5
 BYTE   W05
 BYTE   PEND 
//  #04 //085   ----------------------------------------
 BYTE   W01
 BYTE   Gn4
 BYTE   W06
 BYTE   As4
 BYTE   W06
 BYTE   Ds5
 BYTE   W06
 BYTE   Gn5
 BYTE   W06
 BYTE   As5
 BYTE   W06
 BYTE   Gn5
 BYTE   W06
 BYTE   Ds5
 BYTE   W06
 BYTE   As4
 BYTE   W06
 BYTE   Ds6
 BYTE   W06
 BYTE   As5
 BYTE   W06
 BYTE   Gn5
 BYTE   W06
 BYTE   Ds5
 BYTE   W06
 BYTE   As4
 BYTE   W06
 BYTE   N04
 BYTE   W06
 BYTE   Gn4
 BYTE   W06
 BYTE   As4
 BYTE   W05
//  #04 //086   ----------------------------------------
 BYTE   PATT
  POIN2 Label_019B5447
//  #04 //087   ----------------------------------------
 BYTE   W01
 BYTE   N04  Gn4  v108
 BYTE   W06
 BYTE   As4
 BYTE   W06
 BYTE   Ds5
 BYTE   W06
 BYTE   Gn5
 BYTE   W06
 BYTE   As5
 BYTE   W06
 BYTE   Gn5
 BYTE   W06
 BYTE   Ds5
 BYTE   W06
 BYTE   As4
 BYTE   W06
 BYTE   Ds6
 BYTE   W06
 BYTE   As5
 BYTE   W06
 BYTE   Gn5
 BYTE   W06
 BYTE   Ds5
 BYTE   W06
 BYTE   As4
 BYTE   W06
 BYTE   N04
 BYTE   W06
 BYTE   Gn4
 BYTE   W06
 BYTE   As4
 BYTE   W04
 BYTE   GoTo
  POIN2 Label_019B52E2
//  #04 //088   ----------------------------------------
 BYTE   PAN   c_v+32
 BYTE   BEND   c_v+0
 BYTE   FINE

//**************** Track 5 (Midi-Chn.4) ****************//

DeepSpace2_005:
//  #05 //000   ----------------------------------------
 BYTE   KEYSH   DeepSpace2_key+0
Label_019B588A:
 BYTE   VOICE   61
 BYTE   VOL   20*DeepSpace2_mvl/mxv
 BYTE   PAN   c_v-8
 BYTE   BEND   c_v+0
 BYTE   W01
 BYTE   N88  As3  v112
 BYTE   N88  Fs4
 BYTE   N88  Ds5
 BYTE   W92
 BYTE   W03
//  #05 //001   ----------------------------------------
 BYTE   W01
 BYTE   Gs3
 BYTE   N88  Ds4
 BYTE   N32  Cn5
 BYTE   W36
 BYTE   Cs5
 BYTE   W36
 BYTE   N17  Ds5
 BYTE   W23
//  #05 //002   ----------------------------------------
Label_019B58A8:
 BYTE   W01
 BYTE   N88  As3  v112
 BYTE   N88  Fs4
 BYTE   N32  Fn5
 BYTE   W36
 BYTE   TIE  Ds5
 BYTE   W56
 BYTE   W03
 BYTE   PEND 
//  #05 //003   ----------------------------------------
 BYTE   W01
 BYTE   N40  Cn4
 BYTE   N40  Gs4
 BYTE   W40
 BYTE   W01
 BYTE   EOT
 BYTE   Ds5
 BYTE   W07
 BYTE   N40  Gs3
 BYTE   TIE  Ds4
 BYTE   N40  Cn5
 BYTE   W44
 BYTE   W03
//  #05 //004   ----------------------------------------
 BYTE   W01
 BYTE   N88  Fs3
 BYTE   N28  As4
 BYTE   W36
 BYTE   Cn5
 BYTE   W36
 BYTE   N16  Cs5
 BYTE   W23
//  #05 //005   ----------------------------------------
 BYTE   W01
 BYTE   N88  Gs3
 BYTE   N32  Cn5
 BYTE   W36
 BYTE   Cs5
 BYTE   W36
 BYTE   N17  Ds5
 BYTE   W17
 BYTE   EOT
 BYTE   Ds4
 BYTE   W06
//  #05 //006   ----------------------------------------
 BYTE   PATT
  POIN2 Label_019B58A8
//  #05 //007   ----------------------------------------
 BYTE   W01
 BYTE   N88  Cn4  v112
 BYTE   N88  Gs4
 BYTE   W88
 BYTE   W01
 BYTE   EOT
 BYTE   Ds5
 BYTE   W06
//  #05 //008   ----------------------------------------
 BYTE   W96
//  #05 //009   ----------------------------------------
 BYTE   W96
//  #05 //010   ----------------------------------------
 BYTE   W96
//  #05 //011   ----------------------------------------
 BYTE   W96
//  #05 //012   ----------------------------------------
 BYTE   W96
//  #05 //013   ----------------------------------------
 BYTE   W96
//  #05 //014   ----------------------------------------
 BYTE   W96
//  #05 //015   ----------------------------------------
 BYTE   W96
//  #05 //016   ----------------------------------------
 BYTE   W01
 BYTE   N90  As3
 BYTE   N90  Fs4
 BYTE   N90  Ds5
 BYTE   W92
 BYTE   W03
//  #05 //017   ----------------------------------------
 BYTE   W01
 BYTE   Gs3
 BYTE   N90  Ds4
 BYTE   N32  Cn5
 BYTE   W36
 BYTE   Cs5
 BYTE   W36
 BYTE   N18  Ds5
 BYTE   W23
//  #05 //018   ----------------------------------------
Label_019B590E:
 BYTE   W01
 BYTE   N90  As3  v112
 BYTE   N90  Fs4
 BYTE   N32  Fn5
 BYTE   W36
 BYTE   TIE  Ds5
 BYTE   W56
 BYTE   W03
 BYTE   PEND 
//  #05 //019   ----------------------------------------
 BYTE   W01
 BYTE   N42  Cn4
 BYTE   N42  Gs4
 BYTE   W42
 BYTE   EOT
 BYTE   Ds5
 BYTE   W06
 BYTE   N42  Gs3
 BYTE   TIE  Ds4
 BYTE   N42  Cn5
 BYTE   W44
 BYTE   W03
//  #05 //020   ----------------------------------------
 BYTE   W01
 BYTE   N90  Fs3
 BYTE   N32  As4
 BYTE   W36
 BYTE   Cn5
 BYTE   W36
 BYTE   N18  Cs5
 BYTE   W23
//  #05 //021   ----------------------------------------
 BYTE   W01
 BYTE   N90  Gs3
 BYTE   N32  Cn5
 BYTE   W36
 BYTE   Cs5
 BYTE   W36
 BYTE   N18  Ds5
 BYTE   W18
 BYTE   EOT
 BYTE   Ds4
 BYTE   W05
//  #05 //022   ----------------------------------------
 BYTE   PATT
  POIN2 Label_019B590E
//  #05 //023   ----------------------------------------
 BYTE   W01
 BYTE   N90  Cn4  v112
 BYTE   N90  Gs4
 BYTE   W90
 BYTE   EOT
 BYTE   Ds5
 BYTE   W05
//  #05 //024   ----------------------------------------
 BYTE   W96
//  #05 //025   ----------------------------------------
 BYTE   W96
//  #05 //026   ----------------------------------------
 BYTE   W96
//  #05 //027   ----------------------------------------
 BYTE   W96
//  #05 //028   ----------------------------------------
 BYTE   W96
//  #05 //029   ----------------------------------------
 BYTE   W96
//  #05 //030   ----------------------------------------
 BYTE   W96
//  #05 //031   ----------------------------------------
 BYTE   W01
 BYTE   N96  Ds3
 BYTE   N48  Cs4
 BYTE   N96  Gs4
 BYTE   W48
 BYTE   N48  Cn4
 BYTE   W44
 BYTE   W03
//  #05 //032   ----------------------------------------
 BYTE   W01
 BYTE   TIE  Gn3
 BYTE   TIE  Dn4
 BYTE   W92
 BYTE   W03
//  #05 //033   ----------------------------------------
 BYTE   W96
//  #05 //034   ----------------------------------------
 BYTE   W96
//  #05 //035   ----------------------------------------
 BYTE   W96
//  #05 //036   ----------------------------------------
 BYTE   W01
 BYTE   EOT
 BYTE   Gn3  v074
 BYTE   W92
 BYTE   W03
//  #05 //037   ----------------------------------------
 BYTE   W96
//  #05 //038   ----------------------------------------
 BYTE   W96
//  #05 //039   ----------------------------------------
 BYTE   W96
//  #05 //040   ----------------------------------------
 BYTE   W96
//  #05 //041   ----------------------------------------
 BYTE   W96
//  #05 //042   ----------------------------------------
 BYTE   W96
//  #05 //043   ----------------------------------------
 BYTE   W96
//  #05 //044   ----------------------------------------
 BYTE   W96
//  #05 //045   ----------------------------------------
 BYTE   W96
//  #05 //046   ----------------------------------------
 BYTE   W96
//  #05 //047   ----------------------------------------
 BYTE   W96
//  #05 //048   ----------------------------------------
 BYTE   W96
//  #05 //049   ----------------------------------------
 BYTE   W96
//  #05 //050   ----------------------------------------
 BYTE   W96
//  #05 //051   ----------------------------------------
 BYTE   W96
//  #05 //052   ----------------------------------------
 BYTE   W96
//  #05 //053   ----------------------------------------
 BYTE   W96
//  #05 //054   ----------------------------------------
 BYTE   W96
//  #05 //055   ----------------------------------------
 BYTE   W96
//  #05 //056   ----------------------------------------
 BYTE   W96
//  #05 //057   ----------------------------------------
 BYTE   W96
//  #05 //058   ----------------------------------------
 BYTE   W96
//  #05 //059   ----------------------------------------
 BYTE   W96
//  #05 //060   ----------------------------------------
 BYTE   W96
//  #05 //061   ----------------------------------------
 BYTE   W96
//  #05 //062   ----------------------------------------
 BYTE   W96
//  #05 //063   ----------------------------------------
 BYTE   W96
//  #05 //064   ----------------------------------------
 BYTE   W96
//  #05 //065   ----------------------------------------
 BYTE   W96
//  #05 //066   ----------------------------------------
 BYTE   W96
//  #05 //067   ----------------------------------------
 BYTE   W96
//  #05 //068   ----------------------------------------
 BYTE   W96
//  #05 //069   ----------------------------------------
 BYTE   W96
//  #05 //070   ----------------------------------------
 BYTE   W96
//  #05 //071   ----------------------------------------
 BYTE   W96
//  #05 //072   ----------------------------------------
 BYTE   W96
//  #05 //073   ----------------------------------------
 BYTE   W96
//  #05 //074   ----------------------------------------
 BYTE   W96
//  #05 //075   ----------------------------------------
 BYTE   W96
//  #05 //076   ----------------------------------------
 BYTE   W96
//  #05 //077   ----------------------------------------
 BYTE   W96
//  #05 //078   ----------------------------------------
 BYTE   W96
//  #05 //079   ----------------------------------------
 BYTE   W96
//  #05 //080   ----------------------------------------
 BYTE   W01
 BYTE   N96  Cs3  v108
 BYTE   N96  Gs3
 BYTE   N96  Fn4
 BYTE   W92
 BYTE   W03
//  #05 //081   ----------------------------------------
 BYTE   W01
 BYTE   N48  Ds3
 BYTE   N48  As3
 BYTE   N48  Gn4
 BYTE   W48
 BYTE   Gn3
 BYTE   N48  Ds4
 BYTE   N48  As4
 BYTE   W44
 BYTE   W03
//  #05 //082   ----------------------------------------
 BYTE   W01
 BYTE   N96  Gs3
 BYTE   N96  Fn4
 BYTE   N96  Cs5
 BYTE   W92
 BYTE   W03
//  #05 //083   ----------------------------------------
 BYTE   W01
 BYTE   N48  As3
 BYTE   N48  Gn4
 BYTE   N48  Ds5
 BYTE   W48
 BYTE   Gn3
 BYTE   N48  Ds4
 BYTE   N48  As4
 BYTE   W44
 BYTE   W03
//  #05 //084   ----------------------------------------
 BYTE   W01
 BYTE   N96  Fn3
 BYTE   N96  Cs4
 BYTE   N96  Gs4
 BYTE   W92
 BYTE   W03
//  #05 //085   ----------------------------------------
 BYTE   W01
 BYTE   Gn3
 BYTE   N96  Ds4
 BYTE   N96  As4
 BYTE   W92
 BYTE   W03
//  #05 //086   ----------------------------------------
 BYTE   W01
 BYTE   Gs3
 BYTE   N96  Fn4
 BYTE   N96  Cn5
 BYTE   W92
 BYTE   W03
//  #05 //087   ----------------------------------------
 BYTE   W01
 BYTE   N92  As3
 BYTE   N92  Gn4
 BYTE   N92  Ds5
 BYTE   W92
 BYTE   W02
 BYTE   GoTo
  POIN2 Label_019B588A
//  #05 //088   ----------------------------------------
 BYTE   PAN   c_v-8
 BYTE   BEND   c_v+0
 BYTE   FINE

//**************** Track 6 (Midi-Chn.5) ****************//

DeepSpace2_006:
//  #06 //000   ----------------------------------------
 BYTE   KEYSH   DeepSpace2_key+0
Label_019B8F16:
 BYTE   VOICE   48
 BYTE   VOL   14*DeepSpace2_mvl/mxv
 BYTE   PAN   c_v+16
 BYTE   BEND   c_v-2
 BYTE   W01
 BYTE   N14  Fs3  v068
 BYTE   W18
 BYTE   Fn3
 BYTE   W18
 BYTE   N09  Fs3
 BYTE   W18
 BYTE   N04
 BYTE   W06
 BYTE   N04
 BYTE   W12
 BYTE   N09  Gs3
 BYTE   W12
 BYTE   As3
 BYTE   W11
//  #06 //001   ----------------------------------------
Label_019B8F31:
 BYTE   W01
 BYTE   N14  Cn4  v068
 BYTE   W18
 BYTE   As3
 BYTE   W18
 BYTE   N09  Cn4
 BYTE   W18
 BYTE   N04
 BYTE   W06
 BYTE   N04
 BYTE   W12
 BYTE   N09  Cs4
 BYTE   W12
 BYTE   Ds4
 BYTE   W11
 BYTE   PEND 
//  #06 //002   ----------------------------------------
Label_019B8F45:
 BYTE   W01
 BYTE   N14  Fs3  v068
 BYTE   W18
 BYTE   Fn3
 BYTE   W18
 BYTE   N09  Fs3
 BYTE   W18
 BYTE   N04
 BYTE   W06
 BYTE   N04
 BYTE   W12
 BYTE   N09  Gs3
 BYTE   W12
 BYTE   As3
 BYTE   W11
 BYTE   PEND 
//  #06 //003   ----------------------------------------
 BYTE   PATT
  POIN2 Label_019B8F31
//  #06 //004   ----------------------------------------
 BYTE   PATT
  POIN2 Label_019B8F45
//  #06 //005   ----------------------------------------
 BYTE   PATT
  POIN2 Label_019B8F31
//  #06 //006   ----------------------------------------
 BYTE   PATT
  POIN2 Label_019B8F45
//  #06 //007   ----------------------------------------
 BYTE   PATT
  POIN2 Label_019B8F31
//  #06 //008   ----------------------------------------
Label_019B8F72:
 BYTE   W01
 BYTE   N92  Fn3  v068
 BYTE   W92
 BYTE   W03
 BYTE   PEND 
//  #06 //009   ----------------------------------------
Label_019B8F79:
 BYTE   W01
 BYTE   N92  Gn3  v068
 BYTE   W92
 BYTE   W03
 BYTE   PEND 
//  #06 //010   ----------------------------------------
Label_019B8F80:
 BYTE   W01
 BYTE   N92  As3  v068
 BYTE   W92
 BYTE   W03
 BYTE   PEND 
//  #06 //011   ----------------------------------------
 BYTE   PATT
  POIN2 Label_019B8F80
//  #06 //012   ----------------------------------------
 BYTE   PATT
  POIN2 Label_019B8F80
//  #06 //013   ----------------------------------------
 BYTE   PATT
  POIN2 Label_019B8F80
//  #06 //014   ----------------------------------------
 BYTE   PATT
  POIN2 Label_019B8F80
//  #06 //015   ----------------------------------------
Label_019B8F9B:
 BYTE   W01
 BYTE   N92  Gs3  v068
 BYTE   W92
 BYTE   W03
 BYTE   PEND 
//  #06 //016   ----------------------------------------
 BYTE   PATT
  POIN2 Label_019B8F45
//  #06 //017   ----------------------------------------
 BYTE   PATT
  POIN2 Label_019B8F31
//  #06 //018   ----------------------------------------
 BYTE   PATT
  POIN2 Label_019B8F45
//  #06 //019   ----------------------------------------
 BYTE   PATT
  POIN2 Label_019B8F31
//  #06 //020   ----------------------------------------
 BYTE   PATT
  POIN2 Label_019B8F45
//  #06 //021   ----------------------------------------
 BYTE   PATT
  POIN2 Label_019B8F31
//  #06 //022   ----------------------------------------
 BYTE   PATT
  POIN2 Label_019B8F45
//  #06 //023   ----------------------------------------
 BYTE   PATT
  POIN2 Label_019B8F31
//  #06 //024   ----------------------------------------
 BYTE   PATT
  POIN2 Label_019B8F72
//  #06 //025   ----------------------------------------
 BYTE   PATT
  POIN2 Label_019B8F79
//  #06 //026   ----------------------------------------
 BYTE   PATT
  POIN2 Label_019B8F80
//  #06 //027   ----------------------------------------
 BYTE   PATT
  POIN2 Label_019B8F80
//  #06 //028   ----------------------------------------
 BYTE   PATT
  POIN2 Label_019B8F80
//  #06 //029   ----------------------------------------
 BYTE   PATT
  POIN2 Label_019B8F80
//  #06 //030   ----------------------------------------
 BYTE   PATT
  POIN2 Label_019B8F80
//  #06 //031   ----------------------------------------
 BYTE   PATT
  POIN2 Label_019B8F9B
//  #06 //032   ----------------------------------------
 BYTE   W01
 BYTE   N11  Dn4  v088
 BYTE   W18
 BYTE   Cn4
 BYTE   W18
 BYTE   Dn4
 BYTE   W18
 BYTE   Cn4
 BYTE   W18
 BYTE   N04  Dn4
 BYTE   W06
 BYTE   N04
 BYTE   W06
 BYTE   N11  Cn4
 BYTE   W11
//  #06 //033   ----------------------------------------
 BYTE   W01
 BYTE   Ds4
 BYTE   W18
 BYTE   Dn4
 BYTE   W18
 BYTE   Ds4
 BYTE   W18
 BYTE   Dn4
 BYTE   W18
 BYTE   N04  Ds4
 BYTE   W06
 BYTE   N04
 BYTE   W06
 BYTE   N11  Dn4
 BYTE   W11
//  #06 //034   ----------------------------------------
 BYTE   W01
 BYTE   Fn4
 BYTE   W18
 BYTE   Ds4
 BYTE   W18
 BYTE   Dn4
 BYTE   W18
 BYTE   Cn4
 BYTE   W18
 BYTE   N04  Dn4
 BYTE   W06
 BYTE   N04
 BYTE   W06
 BYTE   N11  Ds4
 BYTE   W11
//  #06 //035   ----------------------------------------
 BYTE   W01
 BYTE   As4
 BYTE   W18
 BYTE   An4
 BYTE   W18
 BYTE   As4
 BYTE   W18
 BYTE   An4
 BYTE   W18
 BYTE   N04  As4
 BYTE   W06
 BYTE   N04
 BYTE   W06
 BYTE   N11  An4
 BYTE   W11
//  #06 //036   ----------------------------------------
 BYTE   W96
//  #06 //037   ----------------------------------------
 BYTE   W96
//  #06 //038   ----------------------------------------
 BYTE   W96
//  #06 //039   ----------------------------------------
 BYTE   W96
//  #06 //040   ----------------------------------------
 BYTE   PATT
  POIN2 Label_019B8F72
//  #06 //041   ----------------------------------------
 BYTE   PATT
  POIN2 Label_019B8F72
//  #06 //042   ----------------------------------------
 BYTE   PATT
  POIN2 Label_019B8F80
//  #06 //043   ----------------------------------------
 BYTE   W01
 BYTE   N44  An3  v068
 BYTE   W48
 BYTE   N04  An4
 BYTE   W06
 BYTE   N04
 BYTE   W06
 BYTE   N11
 BYTE   W12
 BYTE   N04
 BYTE   W06
 BYTE   N04
 BYTE   W06
 BYTE   N04
 BYTE   W06
 BYTE   N04
 BYTE   W05
//  #06 //044   ----------------------------------------
 BYTE   PATT
  POIN2 Label_019B8F72
//  #06 //045   ----------------------------------------
 BYTE   PATT
  POIN2 Label_019B8F72
//  #06 //046   ----------------------------------------
 BYTE   PATT
  POIN2 Label_019B8F80
//  #06 //047   ----------------------------------------
 BYTE   W01
 BYTE   N44  An3  v068
 BYTE   W48
 BYTE   BEND   c_v+0
 BYTE   N44  An4
 BYTE   W12
 BYTE   BEND   c_v-1
 BYTE   W06
 BYTE   BEND   c_v-2
 BYTE   W04
 BYTE   BEND   c_v-3
 BYTE   W02
 BYTE   BEND   c_v-4
 BYTE   W02
 BYTE   BEND   c_v-5
 BYTE   W02
 BYTE   BEND   c_v-6
 BYTE   W01
 BYTE   BEND   c_v-7
 BYTE   W01
 BYTE   BEND   c_v-8
 BYTE   W01
 BYTE   BEND   c_v-9
 BYTE   W01
 BYTE   BEND   c_v-10
 BYTE   W01
 BYTE   BEND   c_v-11
 BYTE   W01
 BYTE   BEND   c_v-13
 BYTE   W01
 BYTE   BEND   c_v-14
 BYTE   W01
 BYTE   BEND   c_v-16
 BYTE   W01
 BYTE   BEND   c_v-18
 BYTE   W01
 BYTE   BEND   c_v-20
 BYTE   W01
 BYTE   BEND   c_v-23
 BYTE   W01
 BYTE   BEND   c_v-26
 BYTE   W01
 BYTE   BEND   c_v-29
 BYTE   W01
 BYTE   BEND   c_v-33
 BYTE   W01
 BYTE   BEND   c_v-37
 BYTE   W01
 BYTE   BEND   c_v-42
 BYTE   W01
 BYTE   BEND   c_v-47
 BYTE   W01
 BYTE   BEND   c_v-52
 BYTE   W01
//  #06 //048   ----------------------------------------
 BYTE   BEND   c_v-59
 BYTE   W01
 BYTE   BEND   c_v+0
 BYTE   N92  Gs3
 BYTE   W92
 BYTE   W03
//  #06 //049   ----------------------------------------
 BYTE   PATT
  POIN2 Label_019B8F9B
//  #06 //050   ----------------------------------------
Label_019B90B5:
 BYTE   W01
 BYTE   N92  Cs4  v068
 BYTE   W92
 BYTE   W03
 BYTE   PEND 
//  #06 //051   ----------------------------------------
 BYTE   W01
 BYTE   N44  Cn4
 BYTE   W48
 BYTE   N04  Cn5
 BYTE   W06
 BYTE   N04
 BYTE   W06
 BYTE   N11
 BYTE   W12
 BYTE   N04
 BYTE   W06
 BYTE   N04
 BYTE   W06
 BYTE   N04
 BYTE   W06
 BYTE   N04
 BYTE   W05
//  #06 //052   ----------------------------------------
 BYTE   PATT
  POIN2 Label_019B8F9B
//  #06 //053   ----------------------------------------
 BYTE   PATT
  POIN2 Label_019B8F9B
//  #06 //054   ----------------------------------------
 BYTE   PATT
  POIN2 Label_019B90B5
//  #06 //055   ----------------------------------------
 BYTE   W01
 BYTE   N44  Cn4  v068
 BYTE   W48
 BYTE   BEND   c_v+0
 BYTE   N44  Cn5
 BYTE   W12
 BYTE   BEND   c_v-1
 BYTE   W06
 BYTE   BEND   c_v-2
 BYTE   W04
 BYTE   BEND   c_v-3
 BYTE   W02
 BYTE   BEND   c_v-4
 BYTE   W02
 BYTE   BEND   c_v-5
 BYTE   W02
 BYTE   BEND   c_v-6
 BYTE   W01
 BYTE   BEND   c_v-7
 BYTE   W01
 BYTE   BEND   c_v-8
 BYTE   W01
 BYTE   BEND   c_v-9
 BYTE   W01
 BYTE   BEND   c_v-10
 BYTE   W01
 BYTE   BEND   c_v-11
 BYTE   W01
 BYTE   BEND   c_v-13
 BYTE   W01
 BYTE   BEND   c_v-14
 BYTE   W01
 BYTE   BEND   c_v-16
 BYTE   W01
 BYTE   BEND   c_v-18
 BYTE   W01
 BYTE   BEND   c_v-20
 BYTE   W01
 BYTE   BEND   c_v-23
 BYTE   W01
 BYTE   BEND   c_v-26
 BYTE   W01
 BYTE   BEND   c_v-29
 BYTE   W01
 BYTE   BEND   c_v-33
 BYTE   W01
 BYTE   BEND   c_v-37
 BYTE   W01
 BYTE   BEND   c_v-42
 BYTE   W01
 BYTE   BEND   c_v-47
 BYTE   W01
 BYTE   BEND   c_v-52
 BYTE   W01
//  #06 //056   ----------------------------------------
 BYTE   BEND   c_v-59
 BYTE   W01
 BYTE   BEND   c_v+0
 BYTE   N88  An4  v088
 BYTE   N88  Cn5
 BYTE   W92
 BYTE   W03
//  #06 //057   ----------------------------------------
Label_019B9123:
 BYTE   W01
 BYTE   N88  Gn4  v088
 BYTE   N88  As4
 BYTE   W92
 BYTE   W03
 BYTE   PEND 
//  #06 //058   ----------------------------------------
Label_019B912C:
 BYTE   W01
 BYTE   N88  Fn4  v088
 BYTE   N88  Gs4
 BYTE   W92
 BYTE   W03
 BYTE   PEND 
//  #06 //059   ----------------------------------------
 BYTE   PATT
  POIN2 Label_019B9123
//  #06 //060   ----------------------------------------
Label_019B913A:
 BYTE   W01
 BYTE   N88  Cs5  v088
 BYTE   N88  En5
 BYTE   W92
 BYTE   W03
 BYTE   PEND 
//  #06 //061   ----------------------------------------
Label_019B9143:
 BYTE   W01
 BYTE   N88  Bn4  v088
 BYTE   N88  Dn5
 BYTE   W92
 BYTE   W03
 BYTE   PEND 
//  #06 //062   ----------------------------------------
Label_019B914C:
 BYTE   W01
 BYTE   N88  An4  v088
 BYTE   N88  Cn5
 BYTE   W92
 BYTE   W03
 BYTE   PEND 
//  #06 //063   ----------------------------------------
 BYTE   PATT
  POIN2 Label_019B9143
//  #06 //064   ----------------------------------------
 BYTE   PATT
  POIN2 Label_019B914C
//  #06 //065   ----------------------------------------
 BYTE   PATT
  POIN2 Label_019B9123
//  #06 //066   ----------------------------------------
 BYTE   PATT
  POIN2 Label_019B912C
//  #06 //067   ----------------------------------------
 BYTE   PATT
  POIN2 Label_019B9123
//  #06 //068   ----------------------------------------
 BYTE   PATT
  POIN2 Label_019B913A
//  #06 //069   ----------------------------------------
 BYTE   PATT
  POIN2 Label_019B9143
//  #06 //070   ----------------------------------------
 BYTE   PATT
  POIN2 Label_019B914C
//  #06 //071   ----------------------------------------
 BYTE   PATT
  POIN2 Label_019B9143
//  #06 //072   ----------------------------------------
 BYTE   W96
//  #06 //073   ----------------------------------------
 BYTE   W96
//  #06 //074   ----------------------------------------
 BYTE   W96
//  #06 //075   ----------------------------------------
 BYTE   W96
//  #06 //076   ----------------------------------------
 BYTE   W96
//  #06 //077   ----------------------------------------
 BYTE   W96
//  #06 //078   ----------------------------------------
 BYTE   W96
//  #06 //079   ----------------------------------------
 BYTE   W01
 BYTE   N16  En3  v088
 BYTE   W18
 BYTE   Cs3
 BYTE   W18
 BYTE   N10  Fs3
 BYTE   W12
 BYTE   N16  Gn3
 BYTE   W18
 BYTE   Gs3
 BYTE   W18
 BYTE   N10  An3
 BYTE   W11
//  #06 //080   ----------------------------------------
Label_019B919B:
 BYTE   W01
 BYTE   N92  Cs4  v100
 BYTE   W92
 BYTE   W03
 BYTE   PEND 
//  #06 //081   ----------------------------------------
Label_019B91A2:
 BYTE   W01
 BYTE   N44  Ds4  v100
 BYTE   W48
 BYTE   As3
 BYTE   W44
 BYTE   W03
 BYTE   PEND 
//  #06 //082   ----------------------------------------
Label_019B91AB:
 BYTE   W01
 BYTE   N68  Cs4  v100
 BYTE   W72
 BYTE   N11  Cn4
 BYTE   W12
 BYTE   Cs4
 BYTE   W11
 BYTE   PEND 
//  #06 //083   ----------------------------------------
 BYTE   W01
 BYTE   N92  Ds4
 BYTE   W92
 BYTE   W03
//  #06 //084   ----------------------------------------
 BYTE   PATT
  POIN2 Label_019B919B
//  #06 //085   ----------------------------------------
 BYTE   PATT
  POIN2 Label_019B91A2
//  #06 //086   ----------------------------------------
 BYTE   PATT
  POIN2 Label_019B91AB
//  #06 //087   ----------------------------------------
 BYTE   W01
 BYTE   N44  As3  v100
 BYTE   W48
 BYTE   N22  Ds4
 BYTE   W24
 BYTE   Gn4
 BYTE   W22
 BYTE   GoTo
  POIN2 Label_019B8F16
//  #06 //088   ----------------------------------------
 BYTE   VOL   14*DeepSpace2_mvl/mxv
 BYTE   PAN   c_v+16
 BYTE   BEND   c_v-2
 BYTE   FINE

//**************** Track 7 (Midi-Chn.6) ****************//

DeepSpace2_007:
//  #07 //000   ----------------------------------------
 BYTE   KEYSH   DeepSpace2_key+0
Label_019B8C46:
 BYTE   VOICE   49
 BYTE   PAN   c_v-16
 BYTE   VOL   14*DeepSpace2_mvl/mxv
 BYTE   BEND   c_v+0
 BYTE   W01
 BYTE   N14  Ds3  v068
 BYTE   W18
 BYTE   N14
 BYTE   W18
 BYTE   N09
 BYTE   W18
 BYTE   N04
 BYTE   W06
 BYTE   N04
 BYTE   W12
 BYTE   N09
 BYTE   W12
 BYTE   N09
 BYTE   W11
//  #07 //001   ----------------------------------------
Label_019B8C5F:
 BYTE   W01
 BYTE   N14  Gs3  v068
 BYTE   W18
 BYTE   N14
 BYTE   W18
 BYTE   N09
 BYTE   W18
 BYTE   N04
 BYTE   W06
 BYTE   N04
 BYTE   W12
 BYTE   N09
 BYTE   W12
 BYTE   N09
 BYTE   W11
 BYTE   PEND 
//  #07 //002   ----------------------------------------
Label_019B8C71:
 BYTE   W01
 BYTE   N14  Ds3  v068
 BYTE   W18
 BYTE   N14
 BYTE   W18
 BYTE   N09
 BYTE   W18
 BYTE   N04
 BYTE   W06
 BYTE   N04
 BYTE   W12
 BYTE   N09
 BYTE   W12
 BYTE   N09
 BYTE   W11
 BYTE   PEND 
//  #07 //003   ----------------------------------------
 BYTE   PATT
  POIN2 Label_019B8C5F
//  #07 //004   ----------------------------------------
 BYTE   W01
 BYTE   N14  Fs3  v068
 BYTE   W18
 BYTE   Fn3
 BYTE   W18
 BYTE   N09  Fs3
 BYTE   W18
 BYTE   N04
 BYTE   W06
 BYTE   N04
 BYTE   W12
 BYTE   N09  Ds3
 BYTE   W12
 BYTE   N09
 BYTE   W11
//  #07 //005   ----------------------------------------
 BYTE   PATT
  POIN2 Label_019B8C5F
//  #07 //006   ----------------------------------------
 BYTE   PATT
  POIN2 Label_019B8C71
//  #07 //007   ----------------------------------------
 BYTE   PATT
  POIN2 Label_019B8C5F
//  #07 //008   ----------------------------------------
Label_019B8CAA:
 BYTE   W01
 BYTE   N92  Cs3  v068
 BYTE   W92
 BYTE   W03
 BYTE   PEND 
//  #07 //009   ----------------------------------------
Label_019B8CB1:
 BYTE   W01
 BYTE   N92  Ds3  v068
 BYTE   W92
 BYTE   W03
 BYTE   PEND 
//  #07 //010   ----------------------------------------
Label_019B8CB8:
 BYTE   W01
 BYTE   N92  Fn3  v068
 BYTE   W92
 BYTE   W03
 BYTE   PEND 
//  #07 //011   ----------------------------------------
Label_019B8CBF:
 BYTE   W01
 BYTE   N92  Gn3  v068
 BYTE   W92
 BYTE   W03
 BYTE   PEND 
//  #07 //012   ----------------------------------------
 BYTE   PATT
  POIN2 Label_019B8CB8
//  #07 //013   ----------------------------------------
 BYTE   PATT
  POIN2 Label_019B8CBF
//  #07 //014   ----------------------------------------
 BYTE   PATT
  POIN2 Label_019B8CB8
//  #07 //015   ----------------------------------------
 BYTE   PATT
  POIN2 Label_019B8CB1
//  #07 //016   ----------------------------------------
 BYTE   PATT
  POIN2 Label_019B8C71
//  #07 //017   ----------------------------------------
 BYTE   PATT
  POIN2 Label_019B8C5F
//  #07 //018   ----------------------------------------
 BYTE   PATT
  POIN2 Label_019B8C71
//  #07 //019   ----------------------------------------
 BYTE   PATT
  POIN2 Label_019B8C5F
//  #07 //020   ----------------------------------------
 BYTE   PATT
  POIN2 Label_019B8C71
//  #07 //021   ----------------------------------------
 BYTE   PATT
  POIN2 Label_019B8C5F
//  #07 //022   ----------------------------------------
 BYTE   PATT
  POIN2 Label_019B8C71
//  #07 //023   ----------------------------------------
 BYTE   PATT
  POIN2 Label_019B8C5F
//  #07 //024   ----------------------------------------
 BYTE   PATT
  POIN2 Label_019B8CAA
//  #07 //025   ----------------------------------------
 BYTE   PATT
  POIN2 Label_019B8CB1
//  #07 //026   ----------------------------------------
 BYTE   PATT
  POIN2 Label_019B8CB8
//  #07 //027   ----------------------------------------
 BYTE   PATT
  POIN2 Label_019B8CBF
//  #07 //028   ----------------------------------------
 BYTE   PATT
  POIN2 Label_019B8CB8
//  #07 //029   ----------------------------------------
 BYTE   PATT
  POIN2 Label_019B8CBF
//  #07 //030   ----------------------------------------
 BYTE   PATT
  POIN2 Label_019B8CB8
//  #07 //031   ----------------------------------------
 BYTE   PATT
  POIN2 Label_019B8CB1
//  #07 //032   ----------------------------------------
 BYTE   W96
//  #07 //033   ----------------------------------------
 BYTE   W96
//  #07 //034   ----------------------------------------
 BYTE   W96
//  #07 //035   ----------------------------------------
 BYTE   W96
//  #07 //036   ----------------------------------------
 BYTE   W96
//  #07 //037   ----------------------------------------
 BYTE   W96
//  #07 //038   ----------------------------------------
 BYTE   W96
//  #07 //039   ----------------------------------------
 BYTE   W96
//  #07 //040   ----------------------------------------
Label_019B8D32:
 BYTE   W01
 BYTE   N92  As2  v068
 BYTE   N92  Dn3
 BYTE   W92
 BYTE   W03
 BYTE   PEND 
//  #07 //041   ----------------------------------------
Label_019B8D3B:
 BYTE   W01
 BYTE   N92  Cn3  v068
 BYTE   N92  Dn3
 BYTE   W92
 BYTE   W03
 BYTE   PEND 
//  #07 //042   ----------------------------------------
Label_019B8D44:
 BYTE   W01
 BYTE   N92  Fn3  v068
 BYTE   N92  Gn3
 BYTE   W92
 BYTE   W03
 BYTE   PEND 
//  #07 //043   ----------------------------------------
 BYTE   W01
 BYTE   N44  Fn3
 BYTE   N44  Gn3
 BYTE   W48
 BYTE   N04  Fn4
 BYTE   N04  Gn4
 BYTE   W06
 BYTE   Fn4
 BYTE   N04  Gn4
 BYTE   W06
 BYTE   N11  Fn4
 BYTE   N11  Gn4
 BYTE   W12
 BYTE   N04  Fn4
 BYTE   N04  Gn4
 BYTE   W06
 BYTE   Fn4
 BYTE   N04  Gn4
 BYTE   W06
 BYTE   Fn4
 BYTE   N04  Gn4
 BYTE   W06
 BYTE   Fn4
 BYTE   N04  Gn4
 BYTE   W05
//  #07 //044   ----------------------------------------
 BYTE   PATT
  POIN2 Label_019B8D32
//  #07 //045   ----------------------------------------
 BYTE   PATT
  POIN2 Label_019B8D3B
//  #07 //046   ----------------------------------------
 BYTE   PATT
  POIN2 Label_019B8D44
//  #07 //047   ----------------------------------------
 BYTE   W01
 BYTE   N44  Fn3  v068
 BYTE   N44  Gn3
 BYTE   W48
 BYTE   BEND   c_v+0
 BYTE   N44  Fn4
 BYTE   N44  Gn4
 BYTE   W12
 BYTE   BEND   c_v-1
 BYTE   W06
 BYTE   BEND   c_v-2
 BYTE   W04
 BYTE   BEND   c_v-3
 BYTE   W02
 BYTE   BEND   c_v-4
 BYTE   W02
 BYTE   BEND   c_v-5
 BYTE   W02
 BYTE   BEND   c_v-6
 BYTE   W01
 BYTE   BEND   c_v-7
 BYTE   W01
 BYTE   BEND   c_v-8
 BYTE   W01
 BYTE   BEND   c_v-9
 BYTE   W01
 BYTE   BEND   c_v-10
 BYTE   W01
 BYTE   BEND   c_v-11
 BYTE   W01
 BYTE   BEND   c_v-13
 BYTE   W01
 BYTE   BEND   c_v-14
 BYTE   W01
 BYTE   BEND   c_v-16
 BYTE   W01
 BYTE   BEND   c_v-18
 BYTE   W01
 BYTE   BEND   c_v-20
 BYTE   W01
 BYTE   BEND   c_v-23
 BYTE   W01
 BYTE   BEND   c_v-26
 BYTE   W01
 BYTE   BEND   c_v-29
 BYTE   W01
 BYTE   BEND   c_v-33
 BYTE   W01
 BYTE   BEND   c_v-37
 BYTE   W01
 BYTE   BEND   c_v-42
 BYTE   W01
 BYTE   BEND   c_v-47
 BYTE   W01
 BYTE   BEND   c_v-52
 BYTE   W01
//  #07 //048   ----------------------------------------
 BYTE   BEND   c_v-59
 BYTE   W01
 BYTE   BEND   c_v+0
 BYTE   N92  Cs3
 BYTE   N92  Fn3
 BYTE   W92
 BYTE   W03
//  #07 //049   ----------------------------------------
Label_019B8DC9:
 BYTE   W01
 BYTE   N92  Ds3  v068
 BYTE   N92  Fn3
 BYTE   W92
 BYTE   W03
 BYTE   PEND 
//  #07 //050   ----------------------------------------
Label_019B8DD2:
 BYTE   W01
 BYTE   N92  Gs3  v068
 BYTE   N92  As3
 BYTE   W92
 BYTE   W03
 BYTE   PEND 
//  #07 //051   ----------------------------------------
 BYTE   W01
 BYTE   N44  Gs3
 BYTE   N44  As3
 BYTE   W48
 BYTE   N04  Gs4
 BYTE   N04  As4
 BYTE   W06
 BYTE   Gs4
 BYTE   N04  As4
 BYTE   W06
 BYTE   N11  Gs4
 BYTE   N11  As4
 BYTE   W12
 BYTE   N04  Gs4
 BYTE   N04  As4
 BYTE   W06
 BYTE   Gs4
 BYTE   N04  As4
 BYTE   W06
 BYTE   Gs4
 BYTE   N04  As4
 BYTE   W06
 BYTE   Gs4
 BYTE   N04  As4
 BYTE   W05
//  #07 //052   ----------------------------------------
 BYTE   W01
 BYTE   N92  Cs3
 BYTE   N92  Fn3
 BYTE   W92
 BYTE   W03
//  #07 //053   ----------------------------------------
 BYTE   PATT
  POIN2 Label_019B8DC9
//  #07 //054   ----------------------------------------
 BYTE   PATT
  POIN2 Label_019B8DD2
//  #07 //055   ----------------------------------------
 BYTE   W01
 BYTE   N44  Gs3  v068
 BYTE   N44  As3
 BYTE   W48
 BYTE   BEND   c_v+0
 BYTE   N44  Gs4
 BYTE   N44  As4
 BYTE   W12
 BYTE   BEND   c_v-1
 BYTE   W06
 BYTE   BEND   c_v-2
 BYTE   W04
 BYTE   BEND   c_v-3
 BYTE   W02
 BYTE   BEND   c_v-4
 BYTE   W02
 BYTE   BEND   c_v-5
 BYTE   W02
 BYTE   BEND   c_v-6
 BYTE   W01
 BYTE   BEND   c_v-7
 BYTE   W01
 BYTE   BEND   c_v-8
 BYTE   W01
 BYTE   BEND   c_v-9
 BYTE   W01
 BYTE   BEND   c_v-10
 BYTE   W01
 BYTE   BEND   c_v-11
 BYTE   W01
 BYTE   BEND   c_v-13
 BYTE   W01
 BYTE   BEND   c_v-14
 BYTE   W01
 BYTE   BEND   c_v-16
 BYTE   W01
 BYTE   BEND   c_v-18
 BYTE   W01
 BYTE   BEND   c_v-20
 BYTE   W01
 BYTE   BEND   c_v-23
 BYTE   W01
 BYTE   BEND   c_v-26
 BYTE   W01
 BYTE   BEND   c_v-29
 BYTE   W01
 BYTE   BEND   c_v-33
 BYTE   W01
 BYTE   BEND   c_v-37
 BYTE   W01
 BYTE   BEND   c_v-42
 BYTE   W01
 BYTE   BEND   c_v-47
 BYTE   W01
 BYTE   BEND   c_v-52
 BYTE   W01
//  #07 //056   ----------------------------------------
 BYTE   BEND   c_v-59
 BYTE   W01
 BYTE   BEND   c_v+0
 BYTE   N88  As3  v088
 BYTE   N88  Fn4
 BYTE   W92
 BYTE   W03
//  #07 //057   ----------------------------------------
Label_019B8E5A:
 BYTE   W01
 BYTE   N88  Gs3  v088
 BYTE   N88  Ds4
 BYTE   W92
 BYTE   W03
 BYTE   PEND 
//  #07 //058   ----------------------------------------
Label_019B8E63:
 BYTE   W01
 BYTE   N88  Fs3  v088
 BYTE   N88  Cs4
 BYTE   W92
 BYTE   W03
 BYTE   PEND 
//  #07 //059   ----------------------------------------
 BYTE   PATT
  POIN2 Label_019B8E5A
//  #07 //060   ----------------------------------------
Label_019B8E71:
 BYTE   W01
 BYTE   N88  Dn4  v088
 BYTE   N88  An4
 BYTE   W92
 BYTE   W03
 BYTE   PEND 
//  #07 //061   ----------------------------------------
Label_019B8E7A:
 BYTE   W01
 BYTE   N88  Cn4  v088
 BYTE   N88  Gn4
 BYTE   W92
 BYTE   W03
 BYTE   PEND 
//  #07 //062   ----------------------------------------
Label_019B8E83:
 BYTE   W01
 BYTE   N88  As3  v088
 BYTE   N88  Fn4
 BYTE   W92
 BYTE   W03
 BYTE   PEND 
//  #07 //063   ----------------------------------------
 BYTE   PATT
  POIN2 Label_019B8E7A
//  #07 //064   ----------------------------------------
 BYTE   PATT
  POIN2 Label_019B8E83
//  #07 //065   ----------------------------------------
 BYTE   PATT
  POIN2 Label_019B8E5A
//  #07 //066   ----------------------------------------
 BYTE   PATT
  POIN2 Label_019B8E63
//  #07 //067   ----------------------------------------
 BYTE   PATT
  POIN2 Label_019B8E5A
//  #07 //068   ----------------------------------------
 BYTE   PATT
  POIN2 Label_019B8E71
//  #07 //069   ----------------------------------------
 BYTE   PATT
  POIN2 Label_019B8E7A
//  #07 //070   ----------------------------------------
 BYTE   PATT
  POIN2 Label_019B8E83
//  #07 //071   ----------------------------------------
 BYTE   PATT
  POIN2 Label_019B8E7A
//  #07 //072   ----------------------------------------
 BYTE   W96
//  #07 //073   ----------------------------------------
 BYTE   W96
//  #07 //074   ----------------------------------------
 BYTE   W96
//  #07 //075   ----------------------------------------
 BYTE   W96
//  #07 //076   ----------------------------------------
 BYTE   W96
//  #07 //077   ----------------------------------------
 BYTE   W96
//  #07 //078   ----------------------------------------
 BYTE   W96
//  #07 //079   ----------------------------------------
 BYTE   W01
 BYTE   N16  Cs3  v088
 BYTE   W18
 BYTE   N16
 BYTE   W18
 BYTE   N10
 BYTE   W12
 BYTE   N16
 BYTE   W18
 BYTE   N16
 BYTE   W18
 BYTE   N10
 BYTE   W11
//  #07 //080   ----------------------------------------
Label_019B8ECF:
 BYTE   W01
 BYTE   N92  Gs3  v100
 BYTE   W92
 BYTE   W03
 BYTE   PEND 
//  #07 //081   ----------------------------------------
Label_019B8ED6:
 BYTE   W01
 BYTE   N44  As3  v100
 BYTE   W48
 BYTE   Gn3
 BYTE   W44
 BYTE   W03
 BYTE   PEND 
//  #07 //082   ----------------------------------------
Label_019B8EDF:
 BYTE   W01
 BYTE   N68  Gs3  v100
 BYTE   W72
 BYTE   N11
 BYTE   W12
 BYTE   N11
 BYTE   W11
 BYTE   PEND 
//  #07 //083   ----------------------------------------
 BYTE   W01
 BYTE   N92  As3
 BYTE   W92
 BYTE   W03
//  #07 //084   ----------------------------------------
 BYTE   PATT
  POIN2 Label_019B8ECF
//  #07 //085   ----------------------------------------
 BYTE   PATT
  POIN2 Label_019B8ED6
//  #07 //086   ----------------------------------------
 BYTE   PATT
  POIN2 Label_019B8EDF
//  #07 //087   ----------------------------------------
 BYTE   W01
 BYTE   N44  Gn3  v100
 BYTE   W48
 BYTE   N22  As3
 BYTE   W24
 BYTE   Ds4
 BYTE   W22
 BYTE   GoTo
  POIN2 Label_019B8C46
//  #07 //088   ----------------------------------------
 BYTE   VOL   14*DeepSpace2_mvl/mxv
 BYTE   BEND   c_v+0
 BYTE   FINE

//**************** Track 8 (Midi-Chn.7) ****************//

DeepSpace2_008:
//  #08 //000   ----------------------------------------
 BYTE   KEYSH   DeepSpace2_key+0
Label_019B5FA6:
 BYTE   VOICE   59
 BYTE   PAN   c_v-1
 BYTE   VOL   14*DeepSpace2_mvl/mxv
 BYTE   BEND   c_v-1
 BYTE   W01
 BYTE   N14  As2  v068
 BYTE   W18
 BYTE   N14
 BYTE   W18
 BYTE   N09
 BYTE   W18
 BYTE   N04
 BYTE   W06
 BYTE   N04
 BYTE   W12
 BYTE   N09
 BYTE   W12
 BYTE   N09
 BYTE   W11
//  #08 //001   ----------------------------------------
Label_019B5FBF:
 BYTE   W01
 BYTE   N14  Ds3  v068
 BYTE   W18
 BYTE   N14
 BYTE   W18
 BYTE   N09
 BYTE   W18
 BYTE   N04
 BYTE   W06
 BYTE   N04
 BYTE   W12
 BYTE   N09
 BYTE   W12
 BYTE   N09
 BYTE   W11
 BYTE   PEND 
//  #08 //002   ----------------------------------------
Label_019B5FD1:
 BYTE   W01
 BYTE   N14  As2  v068
 BYTE   W18
 BYTE   N14
 BYTE   W18
 BYTE   N09
 BYTE   W18
 BYTE   N04
 BYTE   W06
 BYTE   N04
 BYTE   W12
 BYTE   N09
 BYTE   W12
 BYTE   N09
 BYTE   W11
 BYTE   PEND 
//  #08 //003   ----------------------------------------
 BYTE   PATT
  POIN2 Label_019B5FBF
//  #08 //004   ----------------------------------------
 BYTE   PATT
  POIN2 Label_019B5FD1
//  #08 //005   ----------------------------------------
 BYTE   PATT
  POIN2 Label_019B5FBF
//  #08 //006   ----------------------------------------
 BYTE   PATT
  POIN2 Label_019B5FD1
//  #08 //007   ----------------------------------------
 BYTE   PATT
  POIN2 Label_019B5FBF
//  #08 //008   ----------------------------------------
Label_019B5FFC:
 BYTE   W01
 BYTE   N92  As2  v068
 BYTE   W92
 BYTE   W03
 BYTE   PEND 
//  #08 //009   ----------------------------------------
 BYTE   PATT
  POIN2 Label_019B5FFC
//  #08 //010   ----------------------------------------
Label_019B6008:
 BYTE   W01
 BYTE   N92  Cs3  v068
 BYTE   W92
 BYTE   W03
 BYTE   PEND 
//  #08 //011   ----------------------------------------
Label_019B600F:
 BYTE   W01
 BYTE   N92  Ds3  v068
 BYTE   W92
 BYTE   W03
 BYTE   PEND 
//  #08 //012   ----------------------------------------
 BYTE   PATT
  POIN2 Label_019B6008
//  #08 //013   ----------------------------------------
 BYTE   PATT
  POIN2 Label_019B600F
//  #08 //014   ----------------------------------------
 BYTE   PATT
  POIN2 Label_019B6008
//  #08 //015   ----------------------------------------
Label_019B6025:
 BYTE   W01
 BYTE   N48  Cs3  v068
 BYTE   W48
 BYTE   N44  Cn3
 BYTE   W44
 BYTE   W03
 BYTE   PEND 
//  #08 //016   ----------------------------------------
 BYTE   PATT
  POIN2 Label_019B5FD1
//  #08 //017   ----------------------------------------
 BYTE   PATT
  POIN2 Label_019B5FBF
//  #08 //018   ----------------------------------------
 BYTE   PATT
  POIN2 Label_019B5FD1
//  #08 //019   ----------------------------------------
 BYTE   PATT
  POIN2 Label_019B5FBF
//  #08 //020   ----------------------------------------
 BYTE   PATT
  POIN2 Label_019B5FD1
//  #08 //021   ----------------------------------------
 BYTE   PATT
  POIN2 Label_019B5FBF
//  #08 //022   ----------------------------------------
 BYTE   PATT
  POIN2 Label_019B5FD1
//  #08 //023   ----------------------------------------
 BYTE   PATT
  POIN2 Label_019B5FBF
//  #08 //024   ----------------------------------------
 BYTE   PATT
  POIN2 Label_019B5FFC
//  #08 //025   ----------------------------------------
 BYTE   PATT
  POIN2 Label_019B5FFC
//  #08 //026   ----------------------------------------
 BYTE   PATT
  POIN2 Label_019B6008
//  #08 //027   ----------------------------------------
 BYTE   PATT
  POIN2 Label_019B600F
//  #08 //028   ----------------------------------------
 BYTE   PATT
  POIN2 Label_019B6008
//  #08 //029   ----------------------------------------
 BYTE   PATT
  POIN2 Label_019B600F
//  #08 //030   ----------------------------------------
 BYTE   PATT
  POIN2 Label_019B6008
//  #08 //031   ----------------------------------------
 BYTE   PATT
  POIN2 Label_019B6025
//  #08 //032   ----------------------------------------
 BYTE   W01
 BYTE   N11  As3  v088
 BYTE   W18
 BYTE   An3
 BYTE   W18
 BYTE   As3
 BYTE   W18
 BYTE   An3
 BYTE   W18
 BYTE   N04  As3
 BYTE   W06
 BYTE   N04
 BYTE   W06
 BYTE   N11  Cn4
 BYTE   W11
//  #08 //033   ----------------------------------------
 BYTE   W01
 BYTE   Ds4
 BYTE   W18
 BYTE   Dn4
 BYTE   W18
 BYTE   Cn4
 BYTE   W18
 BYTE   As3
 BYTE   W18
 BYTE   N04  Cn4
 BYTE   W06
 BYTE   N04
 BYTE   W06
 BYTE   N11  As3
 BYTE   W11
//  #08 //034   ----------------------------------------
 BYTE   W01
 BYTE   Dn4
 BYTE   W18
 BYTE   Cn4
 BYTE   W18
 BYTE   As3
 BYTE   W18
 BYTE   An3
 BYTE   W18
 BYTE   N04  As3
 BYTE   W06
 BYTE   N04
 BYTE   W06
 BYTE   N11  Cn4
 BYTE   W11
//  #08 //035   ----------------------------------------
 BYTE   W01
 BYTE   Gn4
 BYTE   W18
 BYTE   Fn4
 BYTE   W18
 BYTE   Gn4
 BYTE   W18
 BYTE   Fn4
 BYTE   W18
 BYTE   N04  Gn4
 BYTE   W06
 BYTE   N04
 BYTE   W06
 BYTE   N11  Fn4
 BYTE   W11
//  #08 //036   ----------------------------------------
 BYTE   W96
//  #08 //037   ----------------------------------------
 BYTE   W96
//  #08 //038   ----------------------------------------
 BYTE   W96
//  #08 //039   ----------------------------------------
 BYTE   W96
//  #08 //040   ----------------------------------------
Label_019B60C9:
 BYTE   W01
 BYTE   N92  Gn2  v068
 BYTE   W92
 BYTE   W03
 BYTE   PEND 
//  #08 //041   ----------------------------------------
Label_019B60D0:
 BYTE   W01
 BYTE   N92  An2  v068
 BYTE   W92
 BYTE   W03
 BYTE   PEND 
//  #08 //042   ----------------------------------------
Label_019B60D7:
 BYTE   W01
 BYTE   N92  Dn3  v068
 BYTE   W92
 BYTE   W03
 BYTE   PEND 
//  #08 //043   ----------------------------------------
 BYTE   W01
 BYTE   N44  Cn3
 BYTE   W48
 BYTE   N04  Dn4
 BYTE   W06
 BYTE   N04
 BYTE   W06
 BYTE   N11
 BYTE   W12
 BYTE   N04
 BYTE   W06
 BYTE   N04
 BYTE   W06
 BYTE   N04
 BYTE   W06
 BYTE   N04
 BYTE   W05
//  #08 //044   ----------------------------------------
 BYTE   PATT
  POIN2 Label_019B60C9
//  #08 //045   ----------------------------------------
 BYTE   PATT
  POIN2 Label_019B60D0
//  #08 //046   ----------------------------------------
 BYTE   PATT
  POIN2 Label_019B60D7
//  #08 //047   ----------------------------------------
 BYTE   W01
 BYTE   N44  Cn3  v068
 BYTE   W48
 BYTE   BEND   c_v+0
 BYTE   N44  Dn4
 BYTE   W12
 BYTE   BEND   c_v-1
 BYTE   W06
 BYTE   BEND   c_v-2
 BYTE   W04
 BYTE   BEND   c_v-3
 BYTE   W02
 BYTE   BEND   c_v-4
 BYTE   W02
 BYTE   BEND   c_v-5
 BYTE   W02
 BYTE   BEND   c_v-6
 BYTE   W01
 BYTE   BEND   c_v-7
 BYTE   W01
 BYTE   BEND   c_v-8
 BYTE   W01
 BYTE   BEND   c_v-9
 BYTE   W01
 BYTE   BEND   c_v-10
 BYTE   W01
 BYTE   BEND   c_v-11
 BYTE   W01
 BYTE   BEND   c_v-13
 BYTE   W01
 BYTE   BEND   c_v-14
 BYTE   W01
 BYTE   BEND   c_v-16
 BYTE   W01
 BYTE   BEND   c_v-18
 BYTE   W01
 BYTE   BEND   c_v-20
 BYTE   W01
 BYTE   BEND   c_v-23
 BYTE   W01
 BYTE   BEND   c_v-26
 BYTE   W01
 BYTE   BEND   c_v-29
 BYTE   W01
 BYTE   BEND   c_v-33
 BYTE   W01
 BYTE   BEND   c_v-37
 BYTE   W01
 BYTE   BEND   c_v-42
 BYTE   W01
 BYTE   BEND   c_v-47
 BYTE   W01
 BYTE   BEND   c_v-52
 BYTE   W01
//  #08 //048   ----------------------------------------
 BYTE   BEND   c_v-59
 BYTE   W01
 BYTE   BEND   c_v+0
 BYTE   N92  As2
 BYTE   W92
 BYTE   W03
//  #08 //049   ----------------------------------------
Label_019B6142:
 BYTE   W01
 BYTE   N92  Cn3  v068
 BYTE   W92
 BYTE   W03
 BYTE   PEND 
//  #08 //050   ----------------------------------------
Label_019B6149:
 BYTE   W01
 BYTE   N92  Fn3  v068
 BYTE   W92
 BYTE   W03
 BYTE   PEND 
//  #08 //051   ----------------------------------------
 BYTE   W01
 BYTE   N44  Ds3
 BYTE   W48
 BYTE   N04  Fn4
 BYTE   W06
 BYTE   N04
 BYTE   W06
 BYTE   N11
 BYTE   W12
 BYTE   N04
 BYTE   W06
 BYTE   N04
 BYTE   W06
 BYTE   N04
 BYTE   W06
 BYTE   N04
 BYTE   W05
//  #08 //052   ----------------------------------------
 BYTE   PATT
  POIN2 Label_019B5FFC
//  #08 //053   ----------------------------------------
 BYTE   PATT
  POIN2 Label_019B6142
//  #08 //054   ----------------------------------------
 BYTE   PATT
  POIN2 Label_019B6149
//  #08 //055   ----------------------------------------
 BYTE   W01
 BYTE   N44  Ds3  v068
 BYTE   W48
 BYTE   BEND   c_v+0
 BYTE   N44  Fn4
 BYTE   W12
 BYTE   BEND   c_v-1
 BYTE   W06
 BYTE   BEND   c_v-2
 BYTE   W04
 BYTE   BEND   c_v-3
 BYTE   W02
 BYTE   BEND   c_v-4
 BYTE   W02
 BYTE   BEND   c_v-5
 BYTE   W02
 BYTE   BEND   c_v-6
 BYTE   W01
 BYTE   BEND   c_v-7
 BYTE   W01
 BYTE   BEND   c_v-8
 BYTE   W01
 BYTE   BEND   c_v-9
 BYTE   W01
 BYTE   BEND   c_v-10
 BYTE   W01
 BYTE   BEND   c_v-11
 BYTE   W01
 BYTE   BEND   c_v-13
 BYTE   W01
 BYTE   BEND   c_v-14
 BYTE   W01
 BYTE   BEND   c_v-16
 BYTE   W01
 BYTE   BEND   c_v-18
 BYTE   W01
 BYTE   BEND   c_v-20
 BYTE   W01
 BYTE   BEND   c_v-23
 BYTE   W01
 BYTE   BEND   c_v-26
 BYTE   W01
 BYTE   BEND   c_v-29
 BYTE   W01
 BYTE   BEND   c_v-33
 BYTE   W01
 BYTE   BEND   c_v-37
 BYTE   W01
 BYTE   BEND   c_v-42
 BYTE   W01
 BYTE   BEND   c_v-47
 BYTE   W01
 BYTE   BEND   c_v-52
 BYTE   W01
//  #08 //056   ----------------------------------------
 BYTE   BEND   c_v-59
 BYTE   W01
 BYTE   BEND   c_v+0
 BYTE   N88  Ds3  v088
 BYTE   N88  Gn3
 BYTE   W92
 BYTE   W03
//  #08 //057   ----------------------------------------
Label_019B61B7:
 BYTE   W01
 BYTE   N88  Cs3  v088
 BYTE   N88  Fn3
 BYTE   W92
 BYTE   W03
 BYTE   PEND 
//  #08 //058   ----------------------------------------
Label_019B61C0:
 BYTE   W01
 BYTE   N88  Bn2  v088
 BYTE   N88  Ds3
 BYTE   W92
 BYTE   W03
 BYTE   PEND 
//  #08 //059   ----------------------------------------
 BYTE   PATT
  POIN2 Label_019B61B7
//  #08 //060   ----------------------------------------
Label_019B61CE:
 BYTE   W01
 BYTE   N88  Gn3  v088
 BYTE   N88  Bn3
 BYTE   W92
 BYTE   W03
 BYTE   PEND 
//  #08 //061   ----------------------------------------
Label_019B61D7:
 BYTE   W01
 BYTE   N88  Fn3  v088
 BYTE   N88  An3
 BYTE   W92
 BYTE   W03
 BYTE   PEND 
//  #08 //062   ----------------------------------------
Label_019B61E0:
 BYTE   W01
 BYTE   N88  Ds3  v088
 BYTE   N88  Gn3
 BYTE   W92
 BYTE   W03
 BYTE   PEND 
//  #08 //063   ----------------------------------------
 BYTE   PATT
  POIN2 Label_019B61D7
//  #08 //064   ----------------------------------------
 BYTE   PATT
  POIN2 Label_019B61E0
//  #08 //065   ----------------------------------------
 BYTE   PATT
  POIN2 Label_019B61B7
//  #08 //066   ----------------------------------------
 BYTE   PATT
  POIN2 Label_019B61C0
//  #08 //067   ----------------------------------------
 BYTE   PATT
  POIN2 Label_019B61B7
//  #08 //068   ----------------------------------------
 BYTE   PATT
  POIN2 Label_019B61CE
//  #08 //069   ----------------------------------------
 BYTE   PATT
  POIN2 Label_019B61D7
//  #08 //070   ----------------------------------------
 BYTE   PATT
  POIN2 Label_019B61E0
//  #08 //071   ----------------------------------------
 BYTE   PATT
  POIN2 Label_019B61D7
//  #08 //072   ----------------------------------------
 BYTE   W96
//  #08 //073   ----------------------------------------
 BYTE   W96
//  #08 //074   ----------------------------------------
 BYTE   W96
//  #08 //075   ----------------------------------------
 BYTE   W96
//  #08 //076   ----------------------------------------
 BYTE   W96
//  #08 //077   ----------------------------------------
 BYTE   W96
//  #08 //078   ----------------------------------------
 BYTE   W96
//  #08 //079   ----------------------------------------
 BYTE   W01
 BYTE   N16  As2  v088
 BYTE   W18
 BYTE   N16
 BYTE   W18
 BYTE   N10
 BYTE   W12
 BYTE   N16
 BYTE   W18
 BYTE   N16
 BYTE   W18
 BYTE   N10
 BYTE   W11
//  #08 //080   ----------------------------------------
Label_019B622C:
 BYTE   W01
 BYTE   N92  Fn3  v100
 BYTE   W92
 BYTE   W03
 BYTE   PEND 
//  #08 //081   ----------------------------------------
Label_019B6233:
 BYTE   W01
 BYTE   N44  Gn3  v100
 BYTE   W48
 BYTE   Ds3
 BYTE   W44
 BYTE   W03
 BYTE   PEND 
//  #08 //082   ----------------------------------------
Label_019B623C:
 BYTE   W01
 BYTE   N68  Fn3  v100
 BYTE   W72
 BYTE   N11
 BYTE   W12
 BYTE   N11
 BYTE   W11
 BYTE   PEND 
//  #08 //083   ----------------------------------------
 BYTE   W01
 BYTE   N92  Gn3
 BYTE   W92
 BYTE   W03
//  #08 //084   ----------------------------------------
 BYTE   PATT
  POIN2 Label_019B622C
//  #08 //085   ----------------------------------------
 BYTE   PATT
  POIN2 Label_019B6233
//  #08 //086   ----------------------------------------
 BYTE   PATT
  POIN2 Label_019B623C
//  #08 //087   ----------------------------------------
 BYTE   W01
 BYTE   N44  Ds3  v100
 BYTE   W48
 BYTE   N22  Gn3
 BYTE   W24
 BYTE   As3
 BYTE   W22
 BYTE   GoTo
  POIN2 Label_019B5FA6
//  #08 //088   ----------------------------------------
 BYTE   VOL   14*DeepSpace2_mvl/mxv
 BYTE   BEND   c_v-1
 BYTE   FINE

//**************** Track 9 (Midi-Chn.8) ****************//

DeepSpace2_009:
//  #09 //000   ----------------------------------------
 BYTE   KEYSH   DeepSpace2_key+0
Label_019B91E2:
 BYTE   VOICE   36
 BYTE   PAN   c_v-5
 BYTE   VOL   18*DeepSpace2_mvl/mxv
 BYTE   BEND   c_v-1
 BYTE   W01
 BYTE   N11  Ds0  v127
 BYTE   W12
 BYTE   N11
 BYTE   W12
 BYTE   N11
 BYTE   W12
 BYTE   N11
 BYTE   W12
 BYTE   Ds1
 BYTE   W12
 BYTE   Ds0
 BYTE   W12
 BYTE   As0
 BYTE   W12
 BYTE   Ds1
 BYTE   W11
//  #09 //001   ----------------------------------------
Label_019B91FD:
 BYTE   W01
 BYTE   N11  Ds0  v127
 BYTE   W12
 BYTE   N11
 BYTE   W12
 BYTE   N11
 BYTE   W12
 BYTE   N11
 BYTE   W12
 BYTE   N04  Ds1
 BYTE   W06
 BYTE   N04
 BYTE   W06
 BYTE   N11  Ds0
 BYTE   W12
 BYTE   N04  As0
 BYTE   W06
 BYTE   N04
 BYTE   W06
 BYTE   N11  Ds1
 BYTE   W11
 BYTE   PEND 
//  #09 //002   ----------------------------------------
Label_019B9219:
 BYTE   W01
 BYTE   N11  Ds0  v127
 BYTE   W12
 BYTE   N11
 BYTE   W12
 BYTE   N11
 BYTE   W12
 BYTE   N11
 BYTE   W12
 BYTE   Ds1
 BYTE   W12
 BYTE   Ds0
 BYTE   W12
 BYTE   As0
 BYTE   W12
 BYTE   Ds1
 BYTE   W11
 BYTE   PEND 
//  #09 //003   ----------------------------------------
Label_019B922D:
 BYTE   W01
 BYTE   N11  Gs0  v127
 BYTE   W12
 BYTE   N11
 BYTE   W12
 BYTE   N11
 BYTE   W12
 BYTE   N11
 BYTE   W12
 BYTE   N04  Gs1
 BYTE   W06
 BYTE   N04
 BYTE   W06
 BYTE   N11  Gs0
 BYTE   W12
 BYTE   N04  Ds1
 BYTE   W06
 BYTE   N04
 BYTE   W06
 BYTE   N11  Gs1
 BYTE   W11
 BYTE   PEND 
//  #09 //004   ----------------------------------------
 BYTE   PATT
  POIN2 Label_019B9219
//  #09 //005   ----------------------------------------
 BYTE   PATT
  POIN2 Label_019B91FD
//  #09 //006   ----------------------------------------
 BYTE   PATT
  POIN2 Label_019B9219
//  #09 //007   ----------------------------------------
 BYTE   PATT
  POIN2 Label_019B922D
//  #09 //008   ----------------------------------------
Label_019B925D:
 BYTE   W01
 BYTE   N04  As0  v127
 BYTE   W06
 BYTE   N01
 BYTE   W06
 BYTE   N11
 BYTE   W12
 BYTE   N04  As1
 BYTE   W06
 BYTE   N11  As0
 BYTE   W12
 BYTE   Gs1
 BYTE   W12
 BYTE   N04  As1
 BYTE   W06
 BYTE   N11  As0
 BYTE   W12
 BYTE   N04  As1
 BYTE   W06
 BYTE   N01
 BYTE   W06
 BYTE   N11  As0
 BYTE   W11
 BYTE   PEND 
//  #09 //009   ----------------------------------------
 BYTE   PATT
  POIN2 Label_019B925D
//  #09 //010   ----------------------------------------
 BYTE   PATT
  POIN2 Label_019B925D
//  #09 //011   ----------------------------------------
Label_019B9287:
 BYTE   W01
 BYTE   N16  Ds1  v127
 BYTE   W18
 BYTE   Cs1
 BYTE   W18
 BYTE   N11  Cn1
 BYTE   W12
 BYTE   N16  Gn0
 BYTE   W18
 BYTE   Gs0
 BYTE   W18
 BYTE   N11  An0
 BYTE   W11
 BYTE   PEND 
//  #09 //012   ----------------------------------------
 BYTE   PATT
  POIN2 Label_019B925D
//  #09 //013   ----------------------------------------
Label_019B929F:
 BYTE   W01
 BYTE   N04  Ds1  v127
 BYTE   W06
 BYTE   N01
 BYTE   W06
 BYTE   N11
 BYTE   W12
 BYTE   N04  Ds2
 BYTE   W06
 BYTE   N11  Ds1
 BYTE   W12
 BYTE   N11
 BYTE   W12
 BYTE   N04  Ds2
 BYTE   W06
 BYTE   N11  As1
 BYTE   W12
 BYTE   N04  Ds2
 BYTE   W06
 BYTE   Ds1
 BYTE   W06
 BYTE   N11  Ds2
 BYTE   W11
 BYTE   PEND 
//  #09 //014   ----------------------------------------
 BYTE   PATT
  POIN2 Label_019B925D
//  #09 //015   ----------------------------------------
Label_019B92C4:
 BYTE   W01
 BYTE   N11  Gs0  v127
 BYTE   W12
 BYTE   N04  Gs1
 BYTE   W06
 BYTE   N04
 BYTE   W06
 BYTE   Gs0
 BYTE   W06
 BYTE   N04
 BYTE   W06
 BYTE   N11
 BYTE   W12
 BYTE   N11
 BYTE   W12
 BYTE   N11
 BYTE   W12
 BYTE   N04  Gs1
 BYTE   W06
 BYTE   N04
 BYTE   W06
 BYTE   N11  Gs0
 BYTE   W11
 BYTE   PEND 
//  #09 //016   ----------------------------------------
 BYTE   PATT
  POIN2 Label_019B9219
//  #09 //017   ----------------------------------------
 BYTE   PATT
  POIN2 Label_019B91FD
//  #09 //018   ----------------------------------------
 BYTE   PATT
  POIN2 Label_019B9219
//  #09 //019   ----------------------------------------
 BYTE   PATT
  POIN2 Label_019B922D
//  #09 //020   ----------------------------------------
 BYTE   PATT
  POIN2 Label_019B9219
//  #09 //021   ----------------------------------------
 BYTE   PATT
  POIN2 Label_019B91FD
//  #09 //022   ----------------------------------------
 BYTE   PATT
  POIN2 Label_019B9219
//  #09 //023   ----------------------------------------
 BYTE   PATT
  POIN2 Label_019B922D
//  #09 //024   ----------------------------------------
 BYTE   PATT
  POIN2 Label_019B925D
//  #09 //025   ----------------------------------------
 BYTE   PATT
  POIN2 Label_019B925D
//  #09 //026   ----------------------------------------
 BYTE   PATT
  POIN2 Label_019B925D
//  #09 //027   ----------------------------------------
 BYTE   PATT
  POIN2 Label_019B9287
//  #09 //028   ----------------------------------------
 BYTE   PATT
  POIN2 Label_019B925D
//  #09 //029   ----------------------------------------
 BYTE   PATT
  POIN2 Label_019B929F
//  #09 //030   ----------------------------------------
 BYTE   PATT
  POIN2 Label_019B925D
//  #09 //031   ----------------------------------------
 BYTE   PATT
  POIN2 Label_019B92C4
//  #09 //032   ----------------------------------------
Label_019B9331:
 BYTE   W01
 BYTE   N11  Gn0  v127
 BYTE   W12
 BYTE   N01
 BYTE   W06
 BYTE   N11  Fn0
 BYTE   W12
 BYTE   N01
 BYTE   W06
 BYTE   N11  Gn0
 BYTE   W12
 BYTE   N01
 BYTE   W06
 BYTE   N11  Fn0
 BYTE   W12
 BYTE   N01
 BYTE   W06
 BYTE   N11  Gn0
 BYTE   W12
 BYTE   Fn0
 BYTE   W11
 BYTE   PEND 
//  #09 //033   ----------------------------------------
Label_019B934D:
 BYTE   W01
 BYTE   N11  Gn0  v127
 BYTE   W12
 BYTE   N01  Gn1
 BYTE   W06
 BYTE   N11  Fn0
 BYTE   W12
 BYTE   N01
 BYTE   W06
 BYTE   N11  Gn0
 BYTE   W12
 BYTE   N01
 BYTE   W06
 BYTE   N11  Fn0
 BYTE   W12
 BYTE   N01  Fn1
 BYTE   W06
 BYTE   N04  Gn0
 BYTE   W06
 BYTE   N01
 BYTE   W06
 BYTE   N11  Fn0
 BYTE   W11
 BYTE   PEND 
//  #09 //034   ----------------------------------------
 BYTE   PATT
  POIN2 Label_019B9331
//  #09 //035   ----------------------------------------
 BYTE   PATT
  POIN2 Label_019B934D
//  #09 //036   ----------------------------------------
 BYTE   PATT
  POIN2 Label_019B9331
//  #09 //037   ----------------------------------------
 BYTE   PATT
  POIN2 Label_019B934D
//  #09 //038   ----------------------------------------
 BYTE   PATT
  POIN2 Label_019B9331
//  #09 //039   ----------------------------------------
 BYTE   PATT
  POIN2 Label_019B934D
//  #09 //040   ----------------------------------------
 BYTE   PATT
  POIN2 Label_019B9331
//  #09 //041   ----------------------------------------
 BYTE   PATT
  POIN2 Label_019B934D
//  #09 //042   ----------------------------------------
 BYTE   PATT
  POIN2 Label_019B9331
//  #09 //043   ----------------------------------------
 BYTE   PATT
  POIN2 Label_019B934D
//  #09 //044   ----------------------------------------
 BYTE   PATT
  POIN2 Label_019B9331
//  #09 //045   ----------------------------------------
 BYTE   PATT
  POIN2 Label_019B934D
//  #09 //046   ----------------------------------------
 BYTE   PATT
  POIN2 Label_019B9331
//  #09 //047   ----------------------------------------
 BYTE   PATT
  POIN2 Label_019B934D
//  #09 //048   ----------------------------------------
Label_019B93B4:
 BYTE   W01
 BYTE   N11  As0  v127
 BYTE   W12
 BYTE   N01
 BYTE   W06
 BYTE   N11  Gs0
 BYTE   W12
 BYTE   N01
 BYTE   W06
 BYTE   N11  As0
 BYTE   W12
 BYTE   N01
 BYTE   W06
 BYTE   N11  Gs0
 BYTE   W12
 BYTE   N01
 BYTE   W06
 BYTE   N11  As0
 BYTE   W12
 BYTE   Gs0
 BYTE   W11
 BYTE   PEND 
//  #09 //049   ----------------------------------------
Label_019B93D0:
 BYTE   W01
 BYTE   N11  As0  v127
 BYTE   W12
 BYTE   N01  As1
 BYTE   W06
 BYTE   N11  Gs0
 BYTE   W12
 BYTE   N01
 BYTE   W06
 BYTE   N11  As0
 BYTE   W12
 BYTE   N01
 BYTE   W06
 BYTE   N11  Gs0
 BYTE   W12
 BYTE   N01  Gs1
 BYTE   W06
 BYTE   N04  As0
 BYTE   W06
 BYTE   N01
 BYTE   W06
 BYTE   N11  Gs0
 BYTE   W11
 BYTE   PEND 
//  #09 //050   ----------------------------------------
 BYTE   PATT
  POIN2 Label_019B93B4
//  #09 //051   ----------------------------------------
 BYTE   PATT
  POIN2 Label_019B93D0
//  #09 //052   ----------------------------------------
 BYTE   PATT
  POIN2 Label_019B93B4
//  #09 //053   ----------------------------------------
 BYTE   PATT
  POIN2 Label_019B93D0
//  #09 //054   ----------------------------------------
 BYTE   PATT
  POIN2 Label_019B93B4
//  #09 //055   ----------------------------------------
 BYTE   PATT
  POIN2 Label_019B93D0
//  #09 //056   ----------------------------------------
Label_019B940F:
 BYTE   W01
 BYTE   N11  Fn0  v127
 BYTE   W12
 BYTE   N11
 BYTE   W12
 BYTE   N01
 BYTE   W12
 BYTE   N11
 BYTE   W12
 BYTE   N22  Fn1
 BYTE   W24
 BYTE   N11  Fn0
 BYTE   W12
 BYTE   N11
 BYTE   W11
 BYTE   PEND 
//  #09 //057   ----------------------------------------
Label_019B9423:
 BYTE   W01
 BYTE   N11  Fn0  v127
 BYTE   W12
 BYTE   N11
 BYTE   W12
 BYTE   N01
 BYTE   W12
 BYTE   N11
 BYTE   W12
 BYTE   Fn1
 BYTE   W12
 BYTE   Fn0
 BYTE   W12
 BYTE   Ds1
 BYTE   W12
 BYTE   Fn1
 BYTE   W11
 BYTE   PEND 
//  #09 //058   ----------------------------------------
 BYTE   PATT
  POIN2 Label_019B940F
//  #09 //059   ----------------------------------------
 BYTE   PATT
  POIN2 Label_019B9423
//  #09 //060   ----------------------------------------
Label_019B9441:
 BYTE   W01
 BYTE   N11  Gn0  v127
 BYTE   W12
 BYTE   N11
 BYTE   W12
 BYTE   N01
 BYTE   W12
 BYTE   N11
 BYTE   W12
 BYTE   N22  Gn1
 BYTE   W24
 BYTE   N11  Gn0
 BYTE   W12
 BYTE   N11
 BYTE   W11
 BYTE   PEND 
//  #09 //061   ----------------------------------------
Label_019B9455:
 BYTE   W01
 BYTE   N11  Gn0  v127
 BYTE   W12
 BYTE   N11
 BYTE   W12
 BYTE   N01
 BYTE   W12
 BYTE   N11
 BYTE   W12
 BYTE   Gn1
 BYTE   W12
 BYTE   Gn0
 BYTE   W12
 BYTE   Fn1
 BYTE   W12
 BYTE   Gn1
 BYTE   W11
 BYTE   PEND 
//  #09 //062   ----------------------------------------
 BYTE   PATT
  POIN2 Label_019B9441
//  #09 //063   ----------------------------------------
 BYTE   PATT
  POIN2 Label_019B9455
//  #09 //064   ----------------------------------------
 BYTE   PATT
  POIN2 Label_019B940F
//  #09 //065   ----------------------------------------
 BYTE   PATT
  POIN2 Label_019B9423
//  #09 //066   ----------------------------------------
 BYTE   PATT
  POIN2 Label_019B940F
//  #09 //067   ----------------------------------------
 BYTE   PATT
  POIN2 Label_019B9423
//  #09 //068   ----------------------------------------
 BYTE   PATT
  POIN2 Label_019B9441
//  #09 //069   ----------------------------------------
 BYTE   PATT
  POIN2 Label_019B9455
//  #09 //070   ----------------------------------------
 BYTE   PATT
  POIN2 Label_019B9441
//  #09 //071   ----------------------------------------
 BYTE   PATT
  POIN2 Label_019B9455
//  #09 //072   ----------------------------------------
Label_019B949B:
 BYTE   W01
 BYTE   N56  As0  v127
 BYTE   W18
 BYTE   N16  As1
 BYTE   W18
 BYTE   N22
 BYTE   W24
 BYTE   N32  As0
 BYTE   W12
 BYTE   N04  Gs1
 BYTE   W06
 BYTE   N11  As1
 BYTE   W12
 BYTE   N04
 BYTE   W05
 BYTE   PEND 
//  #09 //073   ----------------------------------------
Label_019B94B1:
 BYTE   W01
 BYTE   N56  As0  v127
 BYTE   W18
 BYTE   N16  As1
 BYTE   W18
 BYTE   N22
 BYTE   W24
 BYTE   N32  As0
 BYTE   W12
 BYTE   N04  Cn2
 BYTE   W06
 BYTE   N11  Cs2
 BYTE   W12
 BYTE   N04
 BYTE   W05
 BYTE   PEND 
//  #09 //074   ----------------------------------------
 BYTE   PATT
  POIN2 Label_019B949B
//  #09 //075   ----------------------------------------
Label_019B94CC:
 BYTE   W01
 BYTE   N05  Cs2  v127
 BYTE   W06
 BYTE   Cn2
 BYTE   W06
 BYTE   As1
 BYTE   W06
 BYTE   Ds2
 BYTE   W06
 BYTE   Cs2
 BYTE   W06
 BYTE   N04  Cn2
 BYTE   W06
 BYTE   As1
 BYTE   W06
 BYTE   Gs1
 BYTE   W06
 BYTE   Fs1
 BYTE   W06
 BYTE   Fn1
 BYTE   W06
 BYTE   Ds1
 BYTE   W06
 BYTE   Fn1
 BYTE   W06
 BYTE   N05  Cs1
 BYTE   W06
 BYTE   Ds1
 BYTE   W06
 BYTE   Cn1
 BYTE   W06
 BYTE   Cs1
 BYTE   W05
 BYTE   PEND 
//  #09 //076   ----------------------------------------
 BYTE   PATT
  POIN2 Label_019B949B
//  #09 //077   ----------------------------------------
 BYTE   PATT
  POIN2 Label_019B94B1
//  #09 //078   ----------------------------------------
 BYTE   PATT
  POIN2 Label_019B949B
//  #09 //079   ----------------------------------------
 BYTE   W01
 BYTE   N16  En0  v127
 BYTE   W18
 BYTE   Fn0
 BYTE   W18
 BYTE   N10  Fs0
 BYTE   W12
 BYTE   N16  Gn0
 BYTE   W18
 BYTE   Gs0
 BYTE   W18
 BYTE   N10  An0
 BYTE   W11
//  #09 //080   ----------------------------------------
 BYTE   PATT
  POIN2 Label_019B949B
//  #09 //081   ----------------------------------------
 BYTE   PATT
  POIN2 Label_019B94B1
//  #09 //082   ----------------------------------------
 BYTE   PATT
  POIN2 Label_019B949B
//  #09 //083   ----------------------------------------
 BYTE   PATT
  POIN2 Label_019B94CC
//  #09 //084   ----------------------------------------
 BYTE   PATT
  POIN2 Label_019B949B
//  #09 //085   ----------------------------------------
 BYTE   PATT
  POIN2 Label_019B94B1
//  #09 //086   ----------------------------------------
 BYTE   PATT
  POIN2 Label_019B949B
//  #09 //087   ----------------------------------------
 BYTE   W01
 BYTE   N16  En0  v127
 BYTE   W18
 BYTE   Fn0
 BYTE   W18
 BYTE   N10  Fs0
 BYTE   W12
 BYTE   N16  Gn0
 BYTE   W18
 BYTE   Gs0
 BYTE   W18
 BYTE   N10  An0
 BYTE   W10
 BYTE   GoTo
  POIN2 Label_019B91E2
//  #09 //088   ----------------------------------------
 BYTE   VOL   18*DeepSpace2_mvl/mxv
 BYTE   BEND   c_v-1
 BYTE   FINE

//**************** Track 10 (Midi-Chn.9) ****************//

DeepSpace2_010:
//  #10 //000   ----------------------------------------
 BYTE   KEYSH   DeepSpace2_key+0
Label_019B9556:
 BYTE   VOICE   127
 BYTE   VOL   19*DeepSpace2_mvl/mxv
 BYTE   PAN   c_v+0
 BYTE   W01
 BYTE   N09  Cn1  v127
 BYTE   N92  Cs2
 BYTE   W12
 BYTE   N09  Ds2  v076
 BYTE   W06
 BYTE   Cn1  v127
 BYTE   W06
 BYTE   Ds2  v048
 BYTE   W12
 BYTE   Dn1  v127
 BYTE   N09  Ds2  v076
 BYTE   W12
 BYTE   Ds2  v048
 BYTE   W12
 BYTE   Cn1  v127
 BYTE   N09  Ds2  v076
 BYTE   W12
 BYTE   Dn1  v127
 BYTE   N09  Ds2  v048
 BYTE   W12
 BYTE   Cn1  v127
 BYTE   N09  Ds2  v076
 BYTE   W11
//  #10 //001   ----------------------------------------
Label_019B9588:
 BYTE   W01
 BYTE   N09  Cn1  v127
 BYTE   N09  Ds2  v076
 BYTE   W12
 BYTE   N09
 BYTE   W06
 BYTE   Cn1  v127
 BYTE   W06
 BYTE   Ds2  v048
 BYTE   W12
 BYTE   Dn1  v127
 BYTE   N09  Ds2  v076
 BYTE   W12
 BYTE   Ds2  v048
 BYTE   W12
 BYTE   Cn1  v127
 BYTE   N09  Ds2  v076
 BYTE   W12
 BYTE   Dn1  v127
 BYTE   N09  Ds2  v048
 BYTE   W12
 BYTE   Cn1  v127
 BYTE   N09  Ds2  v076
 BYTE   W11
 BYTE   PEND 
//  #10 //002   ----------------------------------------
Label_019B95B4:
 BYTE   W01
 BYTE   N09  Cn1  v127
 BYTE   N09  Ds2  v076
 BYTE   W12
 BYTE   N09
 BYTE   W06
 BYTE   Cn1  v127
 BYTE   W06
 BYTE   Ds2  v048
 BYTE   W12
 BYTE   Dn1  v127
 BYTE   N09  Ds2  v076
 BYTE   W12
 BYTE   Ds2  v048
 BYTE   W12
 BYTE   Cn1  v127
 BYTE   N09  Ds2  v076
 BYTE   W12
 BYTE   N04  Dn1  v127
 BYTE   N09  Ds2  v048
 BYTE   W06
 BYTE   N04  Dn1  v127
 BYTE   W06
 BYTE   N09  Cn1
 BYTE   N09  Ds2  v076
 BYTE   W11
 BYTE   PEND 
//  #10 //003   ----------------------------------------
Label_019B95E5:
 BYTE   W01
 BYTE   N09  Cn1  v127
 BYTE   N09  Ds2  v076
 BYTE   W12
 BYTE   N09
 BYTE   W06
 BYTE   Cn1  v127
 BYTE   W06
 BYTE   Ds2  v048
 BYTE   W12
 BYTE   Dn1  v127
 BYTE   N09  Ds2  v076
 BYTE   W12
 BYTE   Ds2  v048
 BYTE   W12
 BYTE   Cn1  v127
 BYTE   N09  Ds2  v076
 BYTE   W12
 BYTE   N04  Dn1  v127
 BYTE   W06
 BYTE   N04
 BYTE   W06
 BYTE   N11
 BYTE   W11
 BYTE   PEND 
//  #10 //004   ----------------------------------------
Label_019B960D:
 BYTE   W01
 BYTE   N09  Cn1  v127
 BYTE   N92  Cs2
 BYTE   W12
 BYTE   N09  Ds2  v076
 BYTE   W06
 BYTE   Cn1  v127
 BYTE   W06
 BYTE   Ds2  v048
 BYTE   W12
 BYTE   Dn1  v127
 BYTE   N09  Ds2  v076
 BYTE   W12
 BYTE   Ds2  v048
 BYTE   W12
 BYTE   Cn1  v127
 BYTE   N09  Ds2  v076
 BYTE   W12
 BYTE   Dn1  v127
 BYTE   N09  Ds2  v048
 BYTE   W12
 BYTE   Cn1  v127
 BYTE   N09  Ds2  v076
 BYTE   W11
 BYTE   PEND 
//  #10 //005   ----------------------------------------
 BYTE   PATT
  POIN2 Label_019B9588
//  #10 //006   ----------------------------------------
 BYTE   PATT
  POIN2 Label_019B95B4
//  #10 //007   ----------------------------------------
Label_019B9644:
 BYTE   W01
 BYTE   N09  Cn1  v127
 BYTE   N09  Ds2  v076
 BYTE   W12
 BYTE   N09
 BYTE   W06
 BYTE   Cn1  v127
 BYTE   W06
 BYTE   Ds2  v048
 BYTE   W12
 BYTE   Dn1  v127
 BYTE   N09  Ds2  v076
 BYTE   W12
 BYTE   Ds2  v048
 BYTE   W12
 BYTE   Cn1  v127
 BYTE   N09  Ds2  v076
 BYTE   W12
 BYTE   N04  Dn1  v127
 BYTE   W06
 BYTE   N04
 BYTE   W06
 BYTE   N04
 BYTE   W06
 BYTE   N04
 BYTE   W05
 BYTE   PEND 
//  #10 //008   ----------------------------------------
Label_019B966E:
 BYTE   W01
 BYTE   N09  Cn1  v127
 BYTE   N92  Cs2
 BYTE   W12
 BYTE   N14  Ds2  v076
 BYTE   W12
 BYTE   N09  Dn1  v127
 BYTE   W12
 BYTE   N14  Ds2  v076
 BYTE   W12
 BYTE   N04  Cn1  v127
 BYTE   W06
 BYTE   N04
 BYTE   W06
 BYTE   N09
 BYTE   N14  Ds2  v076
 BYTE   W12
 BYTE   N09  Dn1  v127
 BYTE   W12
 BYTE   Cn1
 BYTE   N14  Ds2  v076
 BYTE   W11
 BYTE   PEND 
//  #10 //009   ----------------------------------------
Label_019B9696:
 BYTE   W01
 BYTE   N09  Cn1  v127
 BYTE   W12
 BYTE   N14  Ds2  v076
 BYTE   W12
 BYTE   N09  Dn1  v127
 BYTE   W12
 BYTE   N14  Ds2  v076
 BYTE   W12
 BYTE   N04  Cn1  v127
 BYTE   W06
 BYTE   N04
 BYTE   W06
 BYTE   N09
 BYTE   N14  Ds2  v076
 BYTE   W12
 BYTE   N09  Dn1  v127
 BYTE   W12
 BYTE   Cn1
 BYTE   N14  Ds2  v076
 BYTE   W11
 BYTE   PEND 
//  #10 //010   ----------------------------------------
 BYTE   PATT
  POIN2 Label_019B9696
//  #10 //011   ----------------------------------------
Label_019B96C1:
 BYTE   W01
 BYTE   N09  Cn1  v127
 BYTE   W12
 BYTE   N14  Ds2  v076
 BYTE   W12
 BYTE   N09  Dn1  v127
 BYTE   W12
 BYTE   N14  Ds2  v076
 BYTE   W12
 BYTE   N04  Cn1  v127
 BYTE   W06
 BYTE   N04
 BYTE   W06
 BYTE   N09
 BYTE   N14  Ds2  v076
 BYTE   W12
 BYTE   N04  Dn1  v127
 BYTE   W06
 BYTE   N04
 BYTE   W06
 BYTE   N04
 BYTE   W06
 BYTE   N04
 BYTE   W05
 BYTE   PEND 
//  #10 //012   ----------------------------------------
 BYTE   PATT
  POIN2 Label_019B966E
//  #10 //013   ----------------------------------------
 BYTE   PATT
  POIN2 Label_019B9696
//  #10 //014   ----------------------------------------
 BYTE   PATT
  POIN2 Label_019B9696
//  #10 //015   ----------------------------------------
Label_019B96F7:
 BYTE   W01
 BYTE   N09  Dn1  v127
 BYTE   N44  Cs2
 BYTE   W12
 BYTE   N09  Cn1
 BYTE   W12
 BYTE   N04  Dn1
 BYTE   W06
 BYTE   N09
 BYTE   W06
 BYTE   Cn1
 BYTE   W12
 BYTE   Dn1
 BYTE   N44  Cs2
 BYTE   W12
 BYTE   N09  Cn1
 BYTE   W12
 BYTE   N04  Dn1
 BYTE   W06
 BYTE   N04
 BYTE   W06
 BYTE   N04
 BYTE   W06
 BYTE   N04
 BYTE   W05
 BYTE   PEND 
//  #10 //016   ----------------------------------------
 BYTE   PATT
  POIN2 Label_019B960D
//  #10 //017   ----------------------------------------
 BYTE   PATT
  POIN2 Label_019B9588
//  #10 //018   ----------------------------------------
 BYTE   PATT
  POIN2 Label_019B95B4
//  #10 //019   ----------------------------------------
 BYTE   PATT
  POIN2 Label_019B95E5
//  #10 //020   ----------------------------------------
 BYTE   PATT
  POIN2 Label_019B960D
//  #10 //021   ----------------------------------------
 BYTE   PATT
  POIN2 Label_019B9588
//  #10 //022   ----------------------------------------
 BYTE   PATT
  POIN2 Label_019B95B4
//  #10 //023   ----------------------------------------
 BYTE   PATT
  POIN2 Label_019B9644
//  #10 //024   ----------------------------------------
 BYTE   PATT
  POIN2 Label_019B966E
//  #10 //025   ----------------------------------------
 BYTE   PATT
  POIN2 Label_019B9696
//  #10 //026   ----------------------------------------
 BYTE   PATT
  POIN2 Label_019B9696
//  #10 //027   ----------------------------------------
 BYTE   PATT
  POIN2 Label_019B96C1
//  #10 //028   ----------------------------------------
 BYTE   PATT
  POIN2 Label_019B966E
//  #10 //029   ----------------------------------------
 BYTE   PATT
  POIN2 Label_019B9696
//  #10 //030   ----------------------------------------
 BYTE   PATT
  POIN2 Label_019B9696
//  #10 //031   ----------------------------------------
 BYTE   PATT
  POIN2 Label_019B96F7
//  #10 //032   ----------------------------------------
 BYTE   W01
 BYTE   N19  Cn1  v127
 BYTE   N92  Cs2
 BYTE   W24
 BYTE   N19  Cn1
 BYTE   W24
 BYTE   N19
 BYTE   W24
 BYTE   N19
 BYTE   W23
//  #10 //033   ----------------------------------------
Label_019B9777:
 BYTE   W01
 BYTE   N19  Cn1  v127
 BYTE   W24
 BYTE   N19
 BYTE   W24
 BYTE   N19
 BYTE   W24
 BYTE   N19
 BYTE   W23
 BYTE   PEND 
//  #10 //034   ----------------------------------------
 BYTE   PATT
  POIN2 Label_019B9777
//  #10 //035   ----------------------------------------
 BYTE   W01
 BYTE   N19  Cn1  v127
 BYTE   W24
 BYTE   N19
 BYTE   W24
 BYTE   N19
 BYTE   W24
 BYTE   N19
 BYTE   N04  Dn1
 BYTE   W06
 BYTE   N04
 BYTE   W06
 BYTE   N04
 BYTE   W06
 BYTE   N04
 BYTE   W05
//  #10 //036   ----------------------------------------
Label_019B979B:
 BYTE   W01
 BYTE   N09  Cn1  v127
 BYTE   N92  Cs2
 BYTE   W12
 BYTE   N09  Ds2  v020
 BYTE   W12
 BYTE   Dn1  v127
 BYTE   N09  Ds2  v076
 BYTE   W12
 BYTE   Ds2  v020
 BYTE   W12
 BYTE   Cn1  v127
 BYTE   N09  Ds2  v076
 BYTE   W12
 BYTE   Ds2  v020
 BYTE   W06
 BYTE   Cn1  v127
 BYTE   W06
 BYTE   Dn1
 BYTE   N09  Ds2  v076
 BYTE   W12
 BYTE   Ds2  v020
 BYTE   W11
 BYTE   PEND 
//  #10 //037   ----------------------------------------
 BYTE   W01
 BYTE   N04  Cn1  v127
 BYTE   N09  Ds2  v076
 BYTE   W06
 BYTE   N04  Cn1  v127
 BYTE   W06
 BYTE   N09
 BYTE   N09  Ds2  v020
 BYTE   W12
 BYTE   Dn1  v127
 BYTE   N09  Ds2  v076
 BYTE   W12
 BYTE   Ds2  v020
 BYTE   W12
 BYTE   Cn1  v127
 BYTE   N09  Ds2  v076
 BYTE   W12
 BYTE   Ds2  v020
 BYTE   W06
 BYTE   Cn1  v127
 BYTE   W06
 BYTE   Dn1
 BYTE   N09  Ds2  v076
 BYTE   W12
 BYTE   Ds2  v020
 BYTE   W11
//  #10 //038   ----------------------------------------
 BYTE   PATT
  POIN2 Label_019B979B
//  #10 //039   ----------------------------------------
 BYTE   W01
 BYTE   N04  Cn1  v127
 BYTE   N09  Ds2  v076
 BYTE   W06
 BYTE   N04  Cn1  v127
 BYTE   W06
 BYTE   N09
 BYTE   N09  Ds2  v020
 BYTE   W12
 BYTE   Dn1  v127
 BYTE   N09  Ds2  v076
 BYTE   W12
 BYTE   Ds2  v020
 BYTE   W12
 BYTE   Cn1  v127
 BYTE   N09  Ds2  v076
 BYTE   W12
 BYTE   Ds2  v020
 BYTE   W06
 BYTE   Cn1  v127
 BYTE   W06
 BYTE   Dn1
 BYTE   N09  Ds2  v076
 BYTE   W12
 BYTE   Dn1  v127
 BYTE   W11
//  #10 //040   ----------------------------------------
Label_019B9825:
 BYTE   W01
 BYTE   N09  Cn1  v127
 BYTE   N92  Cs2
 BYTE   W06
 BYTE   N04  Ds2  v020
 BYTE   W06
 BYTE   N09  Ds2  v076
 BYTE   W12
 BYTE   Cn1  v127
 BYTE   N04  Ds2  v020
 BYTE   W06
 BYTE   N04
 BYTE   W06
 BYTE   N09  Ds2  v076
 BYTE   W12
 BYTE   Cn1  v127
 BYTE   N04  Ds2  v020
 BYTE   W06
 BYTE   N04
 BYTE   W06
 BYTE   N09  Ds2  v076
 BYTE   W12
 BYTE   Cn1  v127
 BYTE   N04  Ds2  v020
 BYTE   W06
 BYTE   N04
 BYTE   W06
 BYTE   N09  Ds2  v076
 BYTE   W06
 BYTE   N04  Cn1  v127
 BYTE   W05
 BYTE   PEND 
//  #10 //041   ----------------------------------------
Label_019B985D:
 BYTE   W01
 BYTE   N09  Cn1  v127
 BYTE   N04  Ds2  v076
 BYTE   W06
 BYTE   Ds2  v020
 BYTE   W06
 BYTE   N09  Ds2  v076
 BYTE   W12
 BYTE   Cn1  v127
 BYTE   N04  Ds2  v020
 BYTE   W06
 BYTE   N04
 BYTE   W06
 BYTE   N09  Ds2  v076
 BYTE   W12
 BYTE   Cn1  v127
 BYTE   N04  Ds2  v020
 BYTE   W06
 BYTE   N04
 BYTE   W06
 BYTE   N09  Ds2  v076
 BYTE   W12
 BYTE   Cn1  v127
 BYTE   N04  Ds2  v020
 BYTE   W06
 BYTE   N04
 BYTE   W06
 BYTE   N09  Ds2  v076
 BYTE   W06
 BYTE   N04  Cn1  v127
 BYTE   W05
 BYTE   PEND 
//  #10 //042   ----------------------------------------
 BYTE   PATT
  POIN2 Label_019B9825
//  #10 //043   ----------------------------------------
 BYTE   PATT
  POIN2 Label_019B985D
//  #10 //044   ----------------------------------------
 BYTE   PATT
  POIN2 Label_019B9825
//  #10 //045   ----------------------------------------
 BYTE   PATT
  POIN2 Label_019B985D
//  #10 //046   ----------------------------------------
 BYTE   PATT
  POIN2 Label_019B9825
//  #10 //047   ----------------------------------------
 BYTE   W01
 BYTE   N09  Cn1  v127
 BYTE   N04  Ds2  v076
 BYTE   W06
 BYTE   Ds2  v020
 BYTE   W06
 BYTE   N09  Ds2  v076
 BYTE   W12
 BYTE   Cn1  v127
 BYTE   N04  Ds2  v020
 BYTE   W06
 BYTE   N04
 BYTE   W06
 BYTE   N09  Ds2  v076
 BYTE   W12
 BYTE   Cn1  v127
 BYTE   N04  Ds2  v020
 BYTE   W06
 BYTE   N04
 BYTE   W06
 BYTE   N09  Ds2  v076
 BYTE   W12
 BYTE   Cn1  v127
 BYTE   N04  Dn1
 BYTE   W06
 BYTE   N04
 BYTE   W06
 BYTE   N04
 BYTE   W06
 BYTE   N04
 BYTE   W05
//  #10 //048   ----------------------------------------
 BYTE   PATT
  POIN2 Label_019B960D
//  #10 //049   ----------------------------------------
 BYTE   PATT
  POIN2 Label_019B9588
//  #10 //050   ----------------------------------------
 BYTE   PATT
  POIN2 Label_019B95B4
//  #10 //051   ----------------------------------------
 BYTE   PATT
  POIN2 Label_019B95E5
//  #10 //052   ----------------------------------------
 BYTE   PATT
  POIN2 Label_019B960D
//  #10 //053   ----------------------------------------
 BYTE   PATT
  POIN2 Label_019B9588
//  #10 //054   ----------------------------------------
 BYTE   PATT
  POIN2 Label_019B95B4
//  #10 //055   ----------------------------------------
 BYTE   PATT
  POIN2 Label_019B9644
//  #10 //056   ----------------------------------------
Label_019B9908:
 BYTE   W01
 BYTE   N09  Cn1  v127
 BYTE   N92  Cs2
 BYTE   W24
 BYTE   N22  Ds2  v076
 BYTE   W12
 BYTE   N09  Cn1  v127
 BYTE   W12
 BYTE   N22  Dn1
 BYTE   N22  Ds2  v076
 BYTE   W24
 BYTE   N22
 BYTE   W23
 BYTE   PEND 
//  #10 //057   ----------------------------------------
Label_019B9920:
 BYTE   W01
 BYTE   N09  Cn1  v127
 BYTE   N22  Ds2  v076
 BYTE   W12
 BYTE   N09  Cn1  v120
 BYTE   W12
 BYTE   N22  Ds2  v076
 BYTE   W12
 BYTE   N09  Cn1  v127
 BYTE   W12
 BYTE   N22  Dn1
 BYTE   N22  Ds2  v076
 BYTE   W24
 BYTE   N22
 BYTE   W23
 BYTE   PEND 
//  #10 //058   ----------------------------------------
Label_019B993D:
 BYTE   W01
 BYTE   N09  Cn1  v127
 BYTE   N22  Ds2  v076
 BYTE   W12
 BYTE   N09  Cn1  v120
 BYTE   W12
 BYTE   N22  Ds2  v076
 BYTE   W12
 BYTE   N09  Cn1  v127
 BYTE   W12
 BYTE   N22  Dn1
 BYTE   N22  Ds2  v076
 BYTE   W12
 BYTE   N09  Cn1  v127
 BYTE   W12
 BYTE   N11  Dn1
 BYTE   N22  Ds2  v076
 BYTE   W12
 BYTE   N11  Dn1  v127
 BYTE   W11
 BYTE   PEND 
//  #10 //059   ----------------------------------------
 BYTE   W01
 BYTE   N09  Cn1
 BYTE   N22  Ds2  v076
 BYTE   W12
 BYTE   N09  Cn1  v120
 BYTE   W12
 BYTE   N22  Ds2  v076
 BYTE   W12
 BYTE   N09  Cn1  v127
 BYTE   W12
 BYTE   N22  Dn1
 BYTE   N22  Ds2  v076
 BYTE   W06
 BYTE   N09  Cn1  v127
 BYTE   W12
 BYTE   N04
 BYTE   W06
 BYTE   Dn1  v052
 BYTE   N22  Ds2  v076
 BYTE   W06
 BYTE   N04  Dn1
 BYTE   W06
 BYTE   Dn1  v104
 BYTE   W06
 BYTE   Dn1  v127
 BYTE   W05
//  #10 //060   ----------------------------------------
 BYTE   PATT
  POIN2 Label_019B9908
//  #10 //061   ----------------------------------------
 BYTE   PATT
  POIN2 Label_019B9920
//  #10 //062   ----------------------------------------
 BYTE   PATT
  POIN2 Label_019B993D
//  #10 //063   ----------------------------------------
 BYTE   W01
 BYTE   N09  Cn1  v127
 BYTE   N22  Ds2  v076
 BYTE   W12
 BYTE   N09  Cn1  v120
 BYTE   W12
 BYTE   N22  Ds2  v076
 BYTE   W12
 BYTE   N09  Cn1  v127
 BYTE   W12
 BYTE   N22  Dn1
 BYTE   N22  Ds2  v076
 BYTE   W06
 BYTE   N09  Cn1  v127
 BYTE   W12
 BYTE   N04
 BYTE   W06
 BYTE   N11  Dn1
 BYTE   N22  Ds2  v076
 BYTE   W12
 BYTE   N11  Dn1  v127
 BYTE   W11
//  #10 //064   ----------------------------------------
Label_019B99CD:
 BYTE   W01
 BYTE   N09  Dn1  v127
 BYTE   N92  Cs2
 BYTE   W12
 BYTE   N09  Cn1
 BYTE   W12
 BYTE   Dn1
 BYTE   N09  Ds2  v076
 BYTE   W12
 BYTE   Cn1  v127
 BYTE   W12
 BYTE   Dn1
 BYTE   N09  Ds2  v076
 BYTE   W12
 BYTE   Cn1  v127
 BYTE   W12
 BYTE   Dn1
 BYTE   N09  Ds2  v076
 BYTE   W06
 BYTE   Cn1  v127
 BYTE   W17
 BYTE   PEND 
//  #10 //065   ----------------------------------------
 BYTE   W01
 BYTE   Dn1
 BYTE   N09  Ds2  v076
 BYTE   W12
 BYTE   Cn1  v127
 BYTE   W12
 BYTE   Dn1
 BYTE   N09  Ds2  v076
 BYTE   W12
 BYTE   Cn1  v127
 BYTE   W12
 BYTE   Dn1
 BYTE   N09  Ds2  v076
 BYTE   W12
 BYTE   Cn1  v127
 BYTE   W12
 BYTE   Dn1
 BYTE   N09  Ds2  v076
 BYTE   W06
 BYTE   Cn1  v127
 BYTE   W17
//  #10 //066   ----------------------------------------
 BYTE   PATT
  POIN2 Label_019B99CD
//  #10 //067   ----------------------------------------
 BYTE   W01
 BYTE   N09  Dn1  v127
 BYTE   N09  Ds2  v076
 BYTE   W12
 BYTE   Cn1  v127
 BYTE   W12
 BYTE   Dn1
 BYTE   N09  Ds2  v076
 BYTE   W12
 BYTE   Cn1  v127
 BYTE   W12
 BYTE   Dn1
 BYTE   N09  Ds2  v076
 BYTE   W12
 BYTE   Cn1  v127
 BYTE   W12
 BYTE   Dn1
 BYTE   N09  Ds2  v076
 BYTE   W06
 BYTE   N04  Cn1  v127
 BYTE   W06
 BYTE   N04
 BYTE   W06
 BYTE   N04
 BYTE   W05
//  #10 //068   ----------------------------------------
Label_019B9A3E:
 BYTE   W01
 BYTE   N09  Dn1  v127
 BYTE   N44  Cs2
 BYTE   W12
 BYTE   N09  Cn1
 BYTE   W12
 BYTE   Dn1
 BYTE   W06
 BYTE   Cn1
 BYTE   W12
 BYTE   N09
 BYTE   W06
 BYTE   Dn1
 BYTE   N44  Cs2
 BYTE   W12
 BYTE   N09  Cn1
 BYTE   W12
 BYTE   Dn1
 BYTE   W06
 BYTE   Cn1
 BYTE   W12
 BYTE   N09
 BYTE   W05
 BYTE   PEND 
//  #10 //069   ----------------------------------------
 BYTE   PATT
  POIN2 Label_019B9A3E
//  #10 //070   ----------------------------------------
 BYTE   PATT
  POIN2 Label_019B9A3E
//  #10 //071   ----------------------------------------
 BYTE   W01
 BYTE   N09  Dn1  v127
 BYTE   N44  Cs2
 BYTE   W12
 BYTE   N09  Cn1
 BYTE   W12
 BYTE   Dn1
 BYTE   W06
 BYTE   Cn1
 BYTE   W12
 BYTE   N09
 BYTE   W06
 BYTE   Dn1
 BYTE   N44  Cs2
 BYTE   W12
 BYTE   N09  Cn1
 BYTE   W12
 BYTE   N04  Dn1
 BYTE   W06
 BYTE   N04
 BYTE   W06
 BYTE   N04
 BYTE   W06
 BYTE   N09
 BYTE   W05
//  #10 //072   ----------------------------------------
 BYTE   W01
 BYTE   N22  Cn1
 BYTE   N22  Cs2
 BYTE   W24
 BYTE   Cn1
 BYTE   W24
 BYTE   N22
 BYTE   W24
 BYTE   N22
 BYTE   W23
//  #10 //073   ----------------------------------------
Label_019B9A92:
 BYTE   W01
 BYTE   N22  Cn1  v127
 BYTE   W24
 BYTE   N22
 BYTE   W24
 BYTE   N22
 BYTE   W24
 BYTE   N22
 BYTE   W23
 BYTE   PEND 
//  #10 //074   ----------------------------------------
 BYTE   PATT
  POIN2 Label_019B9A92
//  #10 //075   ----------------------------------------
 BYTE   W01
 BYTE   N22  Cn1  v127
 BYTE   N92  Cs2
 BYTE   W24
 BYTE   N22  Cn1
 BYTE   W24
 BYTE   N22
 BYTE   N22  Ds2  v076
 BYTE   W24
 BYTE   N04  Cn1  v127
 BYTE   N04  Dn1
 BYTE   W06
 BYTE   N04
 BYTE   W06
 BYTE   N04
 BYTE   W06
 BYTE   N04
 BYTE   W05
//  #10 //076   ----------------------------------------
 BYTE   PATT
  POIN2 Label_019B9825
//  #10 //077   ----------------------------------------
 BYTE   PATT
  POIN2 Label_019B985D
//  #10 //078   ----------------------------------------
 BYTE   PATT
  POIN2 Label_019B9825
//  #10 //079   ----------------------------------------
 BYTE   W01
 BYTE   N09  Dn1  v127
 BYTE   N44  Cs2
 BYTE   W12
 BYTE   N09  Ds2  v076
 BYTE   W06
 BYTE   Cn1  v127
 BYTE   W18
 BYTE   Dn1
 BYTE   N09  Ds2  v076
 BYTE   W12
 BYTE   Dn1  v127
 BYTE   N44  Cs2
 BYTE   W12
 BYTE   N09  Cn1
 BYTE   N09  Ds2  v076
 BYTE   W12
 BYTE   N04  Dn1  v127
 BYTE   W06
 BYTE   N04
 BYTE   W06
 BYTE   N04
 BYTE   W06
 BYTE   N04
 BYTE   W05
//  #10 //080   ----------------------------------------
 BYTE   W01
 BYTE   N09  Cn1
 BYTE   N92  Cs2
 BYTE   W92
 BYTE   W03
//  #10 //081   ----------------------------------------
 BYTE   W96
//  #10 //082   ----------------------------------------
 BYTE   W96
//  #10 //083   ----------------------------------------
 BYTE   W01
 BYTE   N04  Dn1
 BYTE   N44  Cs2
 BYTE   W06
 BYTE   N04  Dn1
 BYTE   W06
 BYTE   N04
 BYTE   W06
 BYTE   N04
 BYTE   W06
 BYTE   Cn1
 BYTE   W06
 BYTE   N04
 BYTE   W06
 BYTE   Dn1
 BYTE   W12
 BYTE   N04
 BYTE   N44  Cs2
 BYTE   W06
 BYTE   N04  Dn1
 BYTE   W06
 BYTE   Cn1
 BYTE   W12
 BYTE   Dn1
 BYTE   W06
 BYTE   N04
 BYTE   W06
 BYTE   N04
 BYTE   W06
 BYTE   N04
 BYTE   W05
//  #10 //084   ----------------------------------------
 BYTE   PATT
  POIN2 Label_019B9A3E
//  #10 //085   ----------------------------------------
 BYTE   PATT
  POIN2 Label_019B9A3E
//  #10 //086   ----------------------------------------
 BYTE   PATT
  POIN2 Label_019B9A3E
//  #10 //087   ----------------------------------------
 BYTE   W01
 BYTE   N09  Dn1  v127
 BYTE   N44  Cs2
 BYTE   W12
 BYTE   N09  Cn1
 BYTE   W12
 BYTE   Dn1
 BYTE   W06
 BYTE   Cn1
 BYTE   W12
 BYTE   N09
 BYTE   W06
 BYTE   Dn1
 BYTE   N44  Cs2
 BYTE   W12
 BYTE   N09  Cn1
 BYTE   W12
 BYTE   N04  Dn1
 BYTE   W06
 BYTE   N04
 BYTE   W06
 BYTE   N04
 BYTE   W06
 BYTE   N04
 BYTE   W04
 BYTE   GoTo
  POIN2 Label_019B9556
//  #10 //088   ----------------------------------------
 BYTE   VOL   19*DeepSpace2_mvl/mxv
 BYTE   PAN   c_v+0
 BYTE   FINE

//******************************************************//
	ALIGN 4

DeepSpace2:
	BYTE	10	// NumTrks
	BYTE	0	// NumBlks
	BYTE	DeepSpace2_pri	// Priority
	BYTE	DeepSpace2_rev	// Reverb.
    
	POIN2	DeepSpace2_grp
    
	POIN2	DeepSpace2_001
	POIN2	DeepSpace2_002
	POIN2	DeepSpace2_003
	POIN2	DeepSpace2_004
	POIN2	DeepSpace2_005
	POIN2	DeepSpace2_006
	POIN2	DeepSpace2_007
	POIN2	DeepSpace2_008
	POIN2	DeepSpace2_009
	POIN2	DeepSpace2_010

	
