//Event file generated from Sappy .s format.
	#include "MPlayDef.event"

	#define	song0B_grp  voicegroup001
	#define	song0B_pri  0
	#define	song0B_rev  0
	#define	song0B_mvl  127
	#define	song0B_key  0
	#define	song0B_tbs  1
	#define	song0B_exg  0
	#define	song0B_cmp  1

	// .rodata
	//	song0B
	ALIGN 4


//**************** Track 1 (Midi-Chn.0) ****************//

song0B_001:
// 000   ----------------------------------------
 BYTE   KEYSH   song0B_key+0
Label_0_012C73C6:
 BYTE   TEMPO   144*song0B_tbs/2
 BYTE   VOICE   48
 BYTE   VOL   13*song0B_mvl/mxv
 BYTE   PAN   c_v-40
 BYTE   BEND   c_v+0
 BYTE   W96
// 001   ----------------------------------------
 BYTE   W96
// 002   ----------------------------------------
 BYTE   W96
// 003   ----------------------------------------
 BYTE   W96
// 004   ----------------------------------------
 BYTE   W96
// 005   ----------------------------------------
 BYTE   W96
// 006   ----------------------------------------
 BYTE   W96
// 007   ----------------------------------------
 BYTE   W96
// 008   ----------------------------------------
 BYTE   W01
 BYTE   TIE  Gs4  v100
 BYTE   TIE  Cn5
 BYTE   W02
 BYTE   W02
 BYTE   W02
 BYTE   W01
 BYTE   W02
 BYTE   W02
 BYTE   W02
 BYTE   W02
 BYTE   W02
 BYTE   W01
 BYTE   W02
 BYTE   W02
 BYTE   W02
 BYTE   W02
 BYTE   W02
 BYTE   W01
 BYTE   W02
 BYTE   W02
 BYTE   W02
 BYTE   W02
 BYTE   W02
 BYTE   W02
 BYTE   W01
 BYTE   W02
 BYTE   W02
 BYTE   W02
 BYTE   W02
 BYTE   W02
 BYTE   W01
 BYTE   W02
 BYTE   W02
 BYTE   W02
 BYTE   W02
 BYTE   W02
 BYTE   W01
 BYTE   W02
 BYTE   W02
 BYTE   W02
 BYTE   W02
 BYTE   W02
 BYTE   W01
 BYTE   W02
 BYTE   W02
 BYTE   W02
 BYTE   W02
 BYTE   W02
 BYTE   W02
 BYTE   W01
 BYTE   W02
 BYTE   W02
 BYTE   W02
 BYTE   W01
// 009   ----------------------------------------
 BYTE   W01
 BYTE   W02
 BYTE   W01
 BYTE   W02
 BYTE   W02
 BYTE   W02
 BYTE   W02
 BYTE   W02
 BYTE   W01
 BYTE   W02
 BYTE   W02
 BYTE   W02
 BYTE   W02
 BYTE   W02
 BYTE   W02
 BYTE   W01
 BYTE   W02
 BYTE   W02
 BYTE   W02
 BYTE   W02
 BYTE   W02
 BYTE   W01
 BYTE   W02
 BYTE   W02
 BYTE   W02
 BYTE   W02
 BYTE   W02
 BYTE   W01
 BYTE   W02
 BYTE   W02
 BYTE   W02
 BYTE   W02
 BYTE   W02
 BYTE   W02
 BYTE   W01
 BYTE   W02
 BYTE   W02
 BYTE   W02
 BYTE   W02
 BYTE   W02
 BYTE   W01
 BYTE   W02
 BYTE   W02
 BYTE   W02
 BYTE   W02
 BYTE   W02
 BYTE   W01
 BYTE   W02
 BYTE   W02
 BYTE   W02
 BYTE   W02
 BYTE   W02
 BYTE   W01
// 010   ----------------------------------------
 BYTE   EOT
 BYTE   Gs4  v084
 BYTE   W01
 BYTE   N92  Gn4
 BYTE   N92  Ds5
 BYTE   W92
 BYTE   W03
// 011   ----------------------------------------
 BYTE   W01
 BYTE   As4
 BYTE   N92  Gn5
 BYTE   W92
 BYTE   W03
// 012   ----------------------------------------
 BYTE   W01
 BYTE   Cn5
 BYTE   TIE  Gs5
 BYTE   W92
 BYTE   W03
// 013   ----------------------------------------
 BYTE   W01
 BYTE   N80  Cs5
 BYTE   W80
 BYTE   W03
 BYTE   EOT
 BYTE   Gs5
 BYTE   W01
 BYTE   N92  Ds5
 BYTE   TIE  As5
 BYTE   W11
// 014   ----------------------------------------
 BYTE   W84
 BYTE   W01
 BYTE   N56  En5
 BYTE   W11
// 015   ----------------------------------------
 BYTE   W48
 BYTE   EOT
 BYTE   As5
 BYTE   W01
 BYTE   N44  Cn5
 BYTE   N44  Gn5
 BYTE   W44
 BYTE   W03
// 016   ----------------------------------------
Label_0_012C7479:
 BYTE   W01
 BYTE   TIE  As5  v100
 BYTE   W92
 BYTE   W03
 BYTE   PEND 
// 017   ----------------------------------------
 BYTE   W96
// 018   ----------------------------------------
 BYTE   W96
// 019   ----------------------------------------
 BYTE   W96
// 020   ----------------------------------------
 BYTE   W96
// 021   ----------------------------------------
 BYTE   W96
// 022   ----------------------------------------
 BYTE   W96
// 023   ----------------------------------------
 BYTE   W96
// 024   ----------------------------------------
Label_0_012C7487:
 BYTE   W01
 BYTE   N96  Fn5  v100
 BYTE   W92
 BYTE   W03
 BYTE   PEND 
// 025   ----------------------------------------
Label_0_012C748E:
 BYTE   W01
 BYTE   N96  Ds5  v100
 BYTE   W92
 BYTE   W03
 BYTE   PEND 
// 026   ----------------------------------------
 BYTE   PATT
  POIN2 Label_0_012C7487
// 027   ----------------------------------------
 BYTE   PATT
  POIN2 Label_0_012C748E
// 028   ----------------------------------------
 BYTE   PATT
  POIN2 Label_0_012C7487
// 029   ----------------------------------------
 BYTE   PATT
  POIN2 Label_0_012C748E
// 030   ----------------------------------------
 BYTE   PATT
  POIN2 Label_0_012C7487
// 031   ----------------------------------------
 BYTE   W01
 BYTE   EOT
 BYTE   As5
 BYTE   N48  Cs5  v100
 BYTE   N96  Gs5
 BYTE   W48
 BYTE   N48  Cn5
 BYTE   W44
 BYTE   W03
// 032   ----------------------------------------
 BYTE   PATT
  POIN2 Label_0_012C7479
// 033   ----------------------------------------
 BYTE   W96
// 034   ----------------------------------------
 BYTE   W96
// 035   ----------------------------------------
 BYTE   W96
// 036   ----------------------------------------
 BYTE   W96
// 037   ----------------------------------------
 BYTE   W96
// 038   ----------------------------------------
 BYTE   W96
// 039   ----------------------------------------
 BYTE   W96
// 040   ----------------------------------------
 BYTE   PATT
  POIN2 Label_0_012C7487
// 041   ----------------------------------------
 BYTE   PATT
  POIN2 Label_0_012C748E
// 042   ----------------------------------------
 BYTE   PATT
  POIN2 Label_0_012C7487
// 043   ----------------------------------------
 BYTE   PATT
  POIN2 Label_0_012C748E
// 044   ----------------------------------------
 BYTE   PATT
  POIN2 Label_0_012C7487
// 045   ----------------------------------------
 BYTE   PATT
  POIN2 Label_0_012C748E
// 046   ----------------------------------------
 BYTE   PATT
  POIN2 Label_0_012C7487
// 047   ----------------------------------------
 BYTE   W01
 BYTE   EOT
 BYTE   As5
 BYTE   N48  Cs5  v100
 BYTE   N96  Gs5
 BYTE   W48
 BYTE   N48  Cn5
 BYTE   W44
 BYTE   W03
// 048   ----------------------------------------
 BYTE   W01
 BYTE   N96  Dn5
 BYTE   W92
 BYTE   W03
// 049   ----------------------------------------
 BYTE   PATT
  POIN2 Label_0_012C748E
// 050   ----------------------------------------
 BYTE   W01
 BYTE   TIE  Fn5  v100
 BYTE   W92
 BYTE   W03
// 051   ----------------------------------------
 BYTE   W96
// 052   ----------------------------------------
 BYTE   W01
 BYTE   EOT
 BYTE   W92
 BYTE   W03
// 053   ----------------------------------------
 BYTE   W96
// 054   ----------------------------------------
 BYTE   W96
// 055   ----------------------------------------
 BYTE   W96
// 056   ----------------------------------------
 BYTE   W01
 BYTE   TIE  Fn5  v108
 BYTE   W92
 BYTE   W03
// 057   ----------------------------------------
 BYTE   W96
// 058   ----------------------------------------
 BYTE   W96
// 059   ----------------------------------------
 BYTE   W96
// 060   ----------------------------------------
 BYTE   W96
// 061   ----------------------------------------
 BYTE   W96
// 062   ----------------------------------------
 BYTE   W96
// 063   ----------------------------------------
 BYTE   W96
// 064   ----------------------------------------
 BYTE   W01
 BYTE   EOT
 BYTE   TIE  Gs5
 BYTE   W92
 BYTE   W03
// 065   ----------------------------------------
 BYTE   W96
// 066   ----------------------------------------
 BYTE   W96
// 067   ----------------------------------------
 BYTE   W96
// 068   ----------------------------------------
 BYTE   W96
// 069   ----------------------------------------
 BYTE   W96
// 070   ----------------------------------------
 BYTE   W96
// 071   ----------------------------------------
 BYTE   W96
// 072   ----------------------------------------
 BYTE   W01
 BYTE   EOT
 BYTE   W92
 BYTE   W03
// 073   ----------------------------------------
 BYTE   W96
// 074   ----------------------------------------
 BYTE   W96
// 075   ----------------------------------------
 BYTE   W96
// 076   ----------------------------------------
 BYTE   W96
// 077   ----------------------------------------
 BYTE   W96
// 078   ----------------------------------------
 BYTE   W96
// 079   ----------------------------------------
 BYTE   W96
// 080   ----------------------------------------
 BYTE   W96
// 081   ----------------------------------------
 BYTE   W96
// 082   ----------------------------------------
 BYTE   W96
// 083   ----------------------------------------
 BYTE   W96
// 084   ----------------------------------------
 BYTE   W96
// 085   ----------------------------------------
 BYTE   W96
// 086   ----------------------------------------
 BYTE   W96
// 087   ----------------------------------------
 BYTE   W96
// 088   ----------------------------------------
 BYTE   W96
// 089   ----------------------------------------
 BYTE   W96
// 090   ----------------------------------------
 BYTE   W96
// 091   ----------------------------------------
 BYTE   W96
// 092   ----------------------------------------
 BYTE   W96
// 093   ----------------------------------------
 BYTE   W96
// 094   ----------------------------------------
 BYTE   W96
// 095   ----------------------------------------
 BYTE   W96
// 096   ----------------------------------------
Label_0_012C7544:
 BYTE   W01
 BYTE   N96  Fn5  v108
 BYTE   W92
 BYTE   W03
 BYTE   PEND 
// 097   ----------------------------------------
Label_0_012C754B:
 BYTE   W01
 BYTE   N96  Gn5  v108
 BYTE   W92
 BYTE   W03
 BYTE   PEND 
// 098   ----------------------------------------
Label_0_012C7552:
 BYTE   W01
 BYTE   N96  Gs5  v108
 BYTE   W92
 BYTE   W03
 BYTE   PEND 
// 099   ----------------------------------------
 BYTE   PATT
  POIN2 Label_0_012C754B
// 100   ----------------------------------------
 BYTE   PATT
  POIN2 Label_0_012C7544
// 101   ----------------------------------------
 BYTE   PATT
  POIN2 Label_0_012C754B
// 102   ----------------------------------------
 BYTE   PATT
  POIN2 Label_0_012C7552
// 103   ----------------------------------------
 BYTE   W01
 BYTE   N92  As5  v108
 BYTE   W92
 BYTE   W02
 BYTE   GoTo
  POIN2 Label_0_012C73C6
 BYTE   FINE

//**************** Track 2 (Midi-Chn.1) ****************//

song0B_002:
// 000   ----------------------------------------
 BYTE   KEYSH   song0B_key+0
Label_1_012C6386:
 BYTE   VOICE   33
 BYTE   VOL   34*song0B_mvl/mxv
 BYTE   PAN   c_v+0
 BYTE   BEND   c_v+0
 BYTE   W01
 BYTE   N11  Fn0  v127
 BYTE   W12
 BYTE   N09
 BYTE   W12
 BYTE   N11
 BYTE   W12
 BYTE   N11
 BYTE   W12
 BYTE   N09
 BYTE   W12
 BYTE   N11
 BYTE   W12
 BYTE   N09
 BYTE   W12
 BYTE   N11
 BYTE   W11
// 001   ----------------------------------------
Label_1_012C63A1:
 BYTE   W01
 BYTE   N11  Fn0  v127
 BYTE   W12
 BYTE   N09
 BYTE   W12
 BYTE   N11
 BYTE   W12
 BYTE   N11
 BYTE   W12
 BYTE   N09
 BYTE   W12
 BYTE   N11
 BYTE   W12
 BYTE   N09
 BYTE   W12
 BYTE   N11
 BYTE   W11
 BYTE   PEND 
// 002   ----------------------------------------
 BYTE   PATT
  POIN2 Label_1_012C63A1
// 003   ----------------------------------------
 BYTE   W01
 BYTE   N11  Fn0  v127
 BYTE   W12
 BYTE   N09
 BYTE   W12
 BYTE   N11
 BYTE   W12
 BYTE   N11
 BYTE   W12
 BYTE   N09
 BYTE   W12
 BYTE   N11  Fn1
 BYTE   W12
 BYTE   N09  Fn0
 BYTE   W12
 BYTE   N11
 BYTE   W11
// 004   ----------------------------------------
Label_1_012C63CF:
 BYTE   W01
 BYTE   N11  Fn0  v127
 BYTE   W12
 BYTE   N09
 BYTE   W12
 BYTE   N11
 BYTE   W12
 BYTE   N11
 BYTE   W12
 BYTE   N09  Fn1
 BYTE   W12
 BYTE   N11  Fn0
 BYTE   W12
 BYTE   N09
 BYTE   W12
 BYTE   N11
 BYTE   W11
 BYTE   PEND 
// 005   ----------------------------------------
Label_1_012C63E5:
 BYTE   W01
 BYTE   N11  Fn0  v127
 BYTE   W12
 BYTE   N09
 BYTE   W12
 BYTE   N11  Fn1
 BYTE   W12
 BYTE   Fn0
 BYTE   W12
 BYTE   N09
 BYTE   W12
 BYTE   N11  Fn1
 BYTE   W12
 BYTE   N09  Fn0
 BYTE   W12
 BYTE   N11
 BYTE   W11
 BYTE   PEND 
// 006   ----------------------------------------
 BYTE   PATT
  POIN2 Label_1_012C63CF
// 007   ----------------------------------------
Label_1_012C6401:
 BYTE   W01
 BYTE   N11  Fn1  v127
 BYTE   W12
 BYTE   N09  Fn0
 BYTE   W12
 BYTE   N11
 BYTE   W12
 BYTE   Fn1
 BYTE   W12
 BYTE   N09  Fn0
 BYTE   W12
 BYTE   N11
 BYTE   W12
 BYTE   N09  Fn1
 BYTE   W12
 BYTE   N11  Fn0
 BYTE   W11
 BYTE   PEND 
// 008   ----------------------------------------
 BYTE   PATT
  POIN2 Label_1_012C63E5
// 009   ----------------------------------------
 BYTE   PATT
  POIN2 Label_1_012C6401
// 010   ----------------------------------------
 BYTE   PATT
  POIN2 Label_1_012C63CF
// 011   ----------------------------------------
 BYTE   W01
 BYTE   N11  Fn1  v127
 BYTE   W12
 BYTE   N09  Fn0
 BYTE   W12
 BYTE   N11
 BYTE   W12
 BYTE   N11
 BYTE   W12
 BYTE   N09
 BYTE   W12
 BYTE   N11  Fn1
 BYTE   W12
 BYTE   N09  Fn0
 BYTE   W12
 BYTE   N11
 BYTE   W11
// 012   ----------------------------------------
 BYTE   PATT
  POIN2 Label_1_012C6401
// 013   ----------------------------------------
 BYTE   PATT
  POIN2 Label_1_012C63CF
// 014   ----------------------------------------
 BYTE   W01
 BYTE   N11  Fn0  v127
 BYTE   W12
 BYTE   N09
 BYTE   W12
 BYTE   N11
 BYTE   W12
 BYTE   N11
 BYTE   W12
 BYTE   N09  Fn1
 BYTE   W12
 BYTE   N11  Fn0
 BYTE   W12
 BYTE   N09
 BYTE   W12
 BYTE   N11  Fn1
 BYTE   W11
// 015   ----------------------------------------
 BYTE   W01
 BYTE   N11
 BYTE   W12
 BYTE   N09  Fn0
 BYTE   W12
 BYTE   N11
 BYTE   W12
 BYTE   Fn1
 BYTE   W12
 BYTE   N09  Fn0
 BYTE   W12
 BYTE   N11
 BYTE   W12
 BYTE   N09  Fn1
 BYTE   W12
 BYTE   N11
 BYTE   W11
// 016   ----------------------------------------
Label_1_012C6472:
 BYTE   W01
 BYTE   N11  Ds0  v127
 BYTE   W12
 BYTE   N11
 BYTE   W12
 BYTE   N11
 BYTE   W12
 BYTE   N11
 BYTE   W12
 BYTE   Ds1
 BYTE   W12
 BYTE   Ds0
 BYTE   W12
 BYTE   As0
 BYTE   W12
 BYTE   Ds1
 BYTE   W11
 BYTE   PEND 
// 017   ----------------------------------------
Label_1_012C6486:
 BYTE   W01
 BYTE   N11  Ds0  v127
 BYTE   W12
 BYTE   N11
 BYTE   W12
 BYTE   N11
 BYTE   W12
 BYTE   N11
 BYTE   W12
 BYTE   N04  Ds1
 BYTE   W06
 BYTE   N04
 BYTE   W06
 BYTE   N11  Ds0
 BYTE   W12
 BYTE   N04  As0
 BYTE   W06
 BYTE   N04
 BYTE   W06
 BYTE   N11  Ds1
 BYTE   W11
 BYTE   PEND 
// 018   ----------------------------------------
 BYTE   PATT
  POIN2 Label_1_012C6472
// 019   ----------------------------------------
Label_1_012C64A7:
 BYTE   W01
 BYTE   N11  Gs0  v127
 BYTE   W12
 BYTE   N11
 BYTE   W12
 BYTE   N11
 BYTE   W12
 BYTE   N11
 BYTE   W12
 BYTE   N04  Gs1
 BYTE   W06
 BYTE   N04
 BYTE   W06
 BYTE   N11  Gs0
 BYTE   W12
 BYTE   N04  Ds1
 BYTE   W06
 BYTE   N04
 BYTE   W06
 BYTE   N11  Gs1
 BYTE   W11
 BYTE   PEND 
// 020   ----------------------------------------
 BYTE   PATT
  POIN2 Label_1_012C6472
// 021   ----------------------------------------
 BYTE   PATT
  POIN2 Label_1_012C6486
// 022   ----------------------------------------
 BYTE   PATT
  POIN2 Label_1_012C6472
// 023   ----------------------------------------
 BYTE   PATT
  POIN2 Label_1_012C64A7
// 024   ----------------------------------------
Label_1_012C64D7:
 BYTE   W01
 BYTE   N04  As0  v127
 BYTE   W06
 BYTE   N01
 BYTE   W06
 BYTE   N11
 BYTE   W12
 BYTE   N04  As1
 BYTE   W06
 BYTE   N11  As0
 BYTE   W12
 BYTE   Gs1
 BYTE   W12
 BYTE   N04  As1
 BYTE   W06
 BYTE   N11  As0
 BYTE   W12
 BYTE   N04  As1
 BYTE   W06
 BYTE   N01
 BYTE   W06
 BYTE   N11  As0
 BYTE   W11
 BYTE   PEND 
// 025   ----------------------------------------
 BYTE   PATT
  POIN2 Label_1_012C64D7
// 026   ----------------------------------------
 BYTE   PATT
  POIN2 Label_1_012C64D7
// 027   ----------------------------------------
Label_1_012C6501:
 BYTE   W01
 BYTE   N16  Ds1  v127
 BYTE   W18
 BYTE   Cs1
 BYTE   W18
 BYTE   N11  Cn1
 BYTE   W12
 BYTE   N16  Gn0
 BYTE   W18
 BYTE   Gs0
 BYTE   W18
 BYTE   N11  An0
 BYTE   W11
 BYTE   PEND 
// 028   ----------------------------------------
 BYTE   PATT
  POIN2 Label_1_012C64D7
// 029   ----------------------------------------
Label_1_012C6519:
 BYTE   W01
 BYTE   N04  Ds1  v127
 BYTE   W06
 BYTE   N01
 BYTE   W06
 BYTE   N11
 BYTE   W12
 BYTE   N04  Ds2
 BYTE   W06
 BYTE   N11  Ds1
 BYTE   W12
 BYTE   N11
 BYTE   W12
 BYTE   N04  Ds2
 BYTE   W06
 BYTE   N11  As1
 BYTE   W12
 BYTE   N04  Ds2
 BYTE   W06
 BYTE   Ds1
 BYTE   W06
 BYTE   N11  Ds2
 BYTE   W11
 BYTE   PEND 
// 030   ----------------------------------------
 BYTE   PATT
  POIN2 Label_1_012C64D7
// 031   ----------------------------------------
Label_1_012C653E:
 BYTE   W01
 BYTE   N11  Gs0  v127
 BYTE   W12
 BYTE   N04  Gs1
 BYTE   W06
 BYTE   N04
 BYTE   W06
 BYTE   Gs0
 BYTE   W06
 BYTE   N04
 BYTE   W06
 BYTE   N11
 BYTE   W12
 BYTE   N11
 BYTE   W12
 BYTE   N11
 BYTE   W12
 BYTE   N04  Gs1
 BYTE   W06
 BYTE   N04
 BYTE   W06
 BYTE   N11  Gs0
 BYTE   W11
 BYTE   PEND 
// 032   ----------------------------------------
 BYTE   PATT
  POIN2 Label_1_012C6472
// 033   ----------------------------------------
 BYTE   PATT
  POIN2 Label_1_012C6486
// 034   ----------------------------------------
 BYTE   PATT
  POIN2 Label_1_012C6472
// 035   ----------------------------------------
 BYTE   PATT
  POIN2 Label_1_012C64A7
// 036   ----------------------------------------
 BYTE   PATT
  POIN2 Label_1_012C6472
// 037   ----------------------------------------
 BYTE   PATT
  POIN2 Label_1_012C6486
// 038   ----------------------------------------
 BYTE   PATT
  POIN2 Label_1_012C6472
// 039   ----------------------------------------
 BYTE   PATT
  POIN2 Label_1_012C64A7
// 040   ----------------------------------------
 BYTE   PATT
  POIN2 Label_1_012C64D7
// 041   ----------------------------------------
 BYTE   PATT
  POIN2 Label_1_012C64D7
// 042   ----------------------------------------
 BYTE   PATT
  POIN2 Label_1_012C64D7
// 043   ----------------------------------------
 BYTE   PATT
  POIN2 Label_1_012C6501
// 044   ----------------------------------------
 BYTE   PATT
  POIN2 Label_1_012C64D7
// 045   ----------------------------------------
 BYTE   PATT
  POIN2 Label_1_012C6519
// 046   ----------------------------------------
 BYTE   PATT
  POIN2 Label_1_012C64D7
// 047   ----------------------------------------
 BYTE   PATT
  POIN2 Label_1_012C653E
// 048   ----------------------------------------
Label_1_012C65AB:
 BYTE   W01
 BYTE   N11  Gn0  v127
 BYTE   W12
 BYTE   N01
 BYTE   W06
 BYTE   N11  Fn0
 BYTE   W12
 BYTE   N01
 BYTE   W06
 BYTE   N11  Gn0
 BYTE   W12
 BYTE   N01
 BYTE   W06
 BYTE   N11  Fn0
 BYTE   W12
 BYTE   N01
 BYTE   W06
 BYTE   N11  Gn0
 BYTE   W12
 BYTE   Fn0
 BYTE   W11
 BYTE   PEND 
// 049   ----------------------------------------
Label_1_012C65C7:
 BYTE   W01
 BYTE   N11  Gn0  v127
 BYTE   W12
 BYTE   N01  Gn1
 BYTE   W06
 BYTE   N11  Fn0
 BYTE   W12
 BYTE   N01
 BYTE   W06
 BYTE   N11  Gn0
 BYTE   W12
 BYTE   N01
 BYTE   W06
 BYTE   N11  Fn0
 BYTE   W12
 BYTE   N01  Fn1
 BYTE   W06
 BYTE   N04  Gn0
 BYTE   W06
 BYTE   N01
 BYTE   W06
 BYTE   N11  Fn0
 BYTE   W11
 BYTE   PEND 
// 050   ----------------------------------------
 BYTE   PATT
  POIN2 Label_1_012C65AB
// 051   ----------------------------------------
 BYTE   PATT
  POIN2 Label_1_012C65C7
// 052   ----------------------------------------
 BYTE   PATT
  POIN2 Label_1_012C65AB
// 053   ----------------------------------------
 BYTE   PATT
  POIN2 Label_1_012C65C7
// 054   ----------------------------------------
 BYTE   PATT
  POIN2 Label_1_012C65AB
// 055   ----------------------------------------
 BYTE   PATT
  POIN2 Label_1_012C65C7
// 056   ----------------------------------------
 BYTE   PATT
  POIN2 Label_1_012C65AB
// 057   ----------------------------------------
 BYTE   PATT
  POIN2 Label_1_012C65C7
// 058   ----------------------------------------
 BYTE   PATT
  POIN2 Label_1_012C65AB
// 059   ----------------------------------------
 BYTE   PATT
  POIN2 Label_1_012C65C7
// 060   ----------------------------------------
 BYTE   PATT
  POIN2 Label_1_012C65AB
// 061   ----------------------------------------
 BYTE   PATT
  POIN2 Label_1_012C65C7
// 062   ----------------------------------------
 BYTE   PATT
  POIN2 Label_1_012C65AB
// 063   ----------------------------------------
 BYTE   PATT
  POIN2 Label_1_012C65C7
// 064   ----------------------------------------
Label_1_012C662E:
 BYTE   W01
 BYTE   N11  As0  v127
 BYTE   W12
 BYTE   N01
 BYTE   W06
 BYTE   N11  Gs0
 BYTE   W12
 BYTE   N01
 BYTE   W06
 BYTE   N11  As0
 BYTE   W12
 BYTE   N01
 BYTE   W06
 BYTE   N11  Gs0
 BYTE   W12
 BYTE   N01
 BYTE   W06
 BYTE   N11  As0
 BYTE   W12
 BYTE   Gs0
 BYTE   W11
 BYTE   PEND 
// 065   ----------------------------------------
Label_1_012C664A:
 BYTE   W01
 BYTE   N11  As0  v127
 BYTE   W12
 BYTE   N01  As1
 BYTE   W06
 BYTE   N11  Gs0
 BYTE   W12
 BYTE   N01
 BYTE   W06
 BYTE   N11  As0
 BYTE   W12
 BYTE   N01
 BYTE   W06
 BYTE   N11  Gs0
 BYTE   W12
 BYTE   N01  Gs1
 BYTE   W06
 BYTE   N04  As0
 BYTE   W06
 BYTE   N01
 BYTE   W06
 BYTE   N11  Gs0
 BYTE   W11
 BYTE   PEND 
// 066   ----------------------------------------
 BYTE   PATT
  POIN2 Label_1_012C662E
// 067   ----------------------------------------
 BYTE   PATT
  POIN2 Label_1_012C664A
// 068   ----------------------------------------
 BYTE   PATT
  POIN2 Label_1_012C662E
// 069   ----------------------------------------
 BYTE   PATT
  POIN2 Label_1_012C664A
// 070   ----------------------------------------
 BYTE   PATT
  POIN2 Label_1_012C662E
// 071   ----------------------------------------
 BYTE   PATT
  POIN2 Label_1_012C664A
// 072   ----------------------------------------
Label_1_012C6689:
 BYTE   W01
 BYTE   N11  Fn0  v127
 BYTE   W12
 BYTE   N11
 BYTE   W12
 BYTE   N01
 BYTE   W12
 BYTE   N11
 BYTE   W12
 BYTE   N22  Fn1
 BYTE   W24
 BYTE   N11  Fn0
 BYTE   W12
 BYTE   N11
 BYTE   W11
 BYTE   PEND 
// 073   ----------------------------------------
Label_1_012C669D:
 BYTE   W01
 BYTE   N11  Fn0  v127
 BYTE   W12
 BYTE   N11
 BYTE   W12
 BYTE   N01
 BYTE   W12
 BYTE   N11
 BYTE   W12
 BYTE   Fn1
 BYTE   W12
 BYTE   Fn0
 BYTE   W12
 BYTE   Ds1
 BYTE   W12
 BYTE   Fn1
 BYTE   W11
 BYTE   PEND 
// 074   ----------------------------------------
 BYTE   PATT
  POIN2 Label_1_012C6689
// 075   ----------------------------------------
 BYTE   PATT
  POIN2 Label_1_012C669D
// 076   ----------------------------------------
Label_1_012C66BB:
 BYTE   W01
 BYTE   N11  Gn0  v127
 BYTE   W12
 BYTE   N11
 BYTE   W12
 BYTE   N01
 BYTE   W12
 BYTE   N11
 BYTE   W12
 BYTE   N22  Gn1
 BYTE   W24
 BYTE   N11  Gn0
 BYTE   W12
 BYTE   N11
 BYTE   W11
 BYTE   PEND 
// 077   ----------------------------------------
Label_1_012C66CF:
 BYTE   W01
 BYTE   N11  Gn0  v127
 BYTE   W12
 BYTE   N11
 BYTE   W12
 BYTE   N01
 BYTE   W12
 BYTE   N11
 BYTE   W12
 BYTE   Gn1
 BYTE   W12
 BYTE   Gn0
 BYTE   W12
 BYTE   Fn1
 BYTE   W12
 BYTE   Gn1
 BYTE   W11
 BYTE   PEND 
// 078   ----------------------------------------
 BYTE   PATT
  POIN2 Label_1_012C66BB
// 079   ----------------------------------------
 BYTE   PATT
  POIN2 Label_1_012C66CF
// 080   ----------------------------------------
 BYTE   PATT
  POIN2 Label_1_012C6689
// 081   ----------------------------------------
 BYTE   PATT
  POIN2 Label_1_012C669D
// 082   ----------------------------------------
 BYTE   PATT
  POIN2 Label_1_012C6689
// 083   ----------------------------------------
 BYTE   PATT
  POIN2 Label_1_012C669D
// 084   ----------------------------------------
 BYTE   PATT
  POIN2 Label_1_012C66BB
// 085   ----------------------------------------
 BYTE   PATT
  POIN2 Label_1_012C66CF
// 086   ----------------------------------------
 BYTE   PATT
  POIN2 Label_1_012C66BB
// 087   ----------------------------------------
 BYTE   PATT
  POIN2 Label_1_012C66CF
// 088   ----------------------------------------
Label_1_012C6715:
 BYTE   W01
 BYTE   N56  As0  v127
 BYTE   W18
 BYTE   N16  As1
 BYTE   W18
 BYTE   N22
 BYTE   W24
 BYTE   N32  As0
 BYTE   W12
 BYTE   N04  Gs1
 BYTE   W06
 BYTE   N11  As1
 BYTE   W12
 BYTE   N04
 BYTE   W05
 BYTE   PEND 
// 089   ----------------------------------------
Label_1_012C672B:
 BYTE   W01
 BYTE   N56  As0  v127
 BYTE   W18
 BYTE   N16  As1
 BYTE   W18
 BYTE   N22
 BYTE   W24
 BYTE   N32  As0
 BYTE   W12
 BYTE   N04  Cn2
 BYTE   W06
 BYTE   N11  Cs2
 BYTE   W12
 BYTE   N04
 BYTE   W05
 BYTE   PEND 
// 090   ----------------------------------------
 BYTE   PATT
  POIN2 Label_1_012C6715
// 091   ----------------------------------------
Label_1_012C6746:
 BYTE   W01
 BYTE   N05  Cs2  v127
 BYTE   W06
 BYTE   Cn2
 BYTE   W06
 BYTE   As1
 BYTE   W06
 BYTE   Ds2
 BYTE   W06
 BYTE   Cs2
 BYTE   W06
 BYTE   N04  Cn2
 BYTE   W06
 BYTE   As1
 BYTE   W06
 BYTE   Gs1
 BYTE   W06
 BYTE   Fs1
 BYTE   W06
 BYTE   Fn1
 BYTE   W06
 BYTE   Ds1
 BYTE   W06
 BYTE   Fn1
 BYTE   W06
 BYTE   N05  Cs1
 BYTE   W06
 BYTE   Ds1
 BYTE   W06
 BYTE   Cn1
 BYTE   W06
 BYTE   Cs1
 BYTE   W05
 BYTE   PEND 
// 092   ----------------------------------------
 BYTE   PATT
  POIN2 Label_1_012C6715
// 093   ----------------------------------------
 BYTE   PATT
  POIN2 Label_1_012C672B
// 094   ----------------------------------------
 BYTE   PATT
  POIN2 Label_1_012C6715
// 095   ----------------------------------------
 BYTE   W01
 BYTE   N16  En0  v127
 BYTE   W18
 BYTE   Fn0
 BYTE   W18
 BYTE   N10  Fs0
 BYTE   W12
 BYTE   N16  Gn0
 BYTE   W18
 BYTE   Gs0
 BYTE   W18
 BYTE   N10  An0
 BYTE   W11
// 096   ----------------------------------------
 BYTE   PATT
  POIN2 Label_1_012C6715
// 097   ----------------------------------------
 BYTE   PATT
  POIN2 Label_1_012C672B
// 098   ----------------------------------------
 BYTE   PATT
  POIN2 Label_1_012C6715
// 099   ----------------------------------------
 BYTE   PATT
  POIN2 Label_1_012C6746
// 100   ----------------------------------------
 BYTE   PATT
  POIN2 Label_1_012C6715
// 101   ----------------------------------------
 BYTE   PATT
  POIN2 Label_1_012C672B
// 102   ----------------------------------------
 BYTE   PATT
  POIN2 Label_1_012C6715
// 103   ----------------------------------------
 BYTE   W01
 BYTE   N16  En0  v127
 BYTE   W18
 BYTE   Fn0
 BYTE   W18
 BYTE   N10  Fs0
 BYTE   W12
 BYTE   N16  Gn0
 BYTE   W18
 BYTE   Gs0
 BYTE   W18
 BYTE   N10  An0
 BYTE   W10
 BYTE   GoTo
  POIN2 Label_1_012C6386
 BYTE   FINE

//**************** Track 3 (Midi-Chn.2) ****************//

song0B_003:
// 000   ----------------------------------------
 BYTE   KEYSH   song0B_key+0
Label_2_012C6CFA:
 BYTE   VOICE   46
 BYTE   VOL   29*song0B_mvl/mxv
 BYTE   PAN   c_v+10
 BYTE   BEND   c_v+0
 BYTE   W96
// 001   ----------------------------------------
 BYTE   W96
// 002   ----------------------------------------
 BYTE   W96
// 003   ----------------------------------------
 BYTE   W96
// 004   ----------------------------------------
 BYTE   W96
// 005   ----------------------------------------
 BYTE   W96
// 006   ----------------------------------------
 BYTE   W96
// 007   ----------------------------------------
 BYTE   W96
// 008   ----------------------------------------
 BYTE   W01
 BYTE   N04  Fn3  v052
 BYTE   W06
 BYTE   Cn3
 BYTE   W06
 BYTE   Fn3
 BYTE   W06
 BYTE   Fn2
 BYTE   W06
 BYTE   Cn3
 BYTE   W06
 BYTE   Fn3
 BYTE   W06
 BYTE   Fn2  v056
 BYTE   W06
 BYTE   Fn3
 BYTE   W06
 BYTE   Cn3
 BYTE   W06
 BYTE   Fn2
 BYTE   W06
 BYTE   Fn3
 BYTE   W06
 BYTE   Fn2
 BYTE   W06
 BYTE   Fn3
 BYTE   W06
 BYTE   Fn2  v060
 BYTE   W06
 BYTE   Cn3
 BYTE   W06
 BYTE   Fn3
 BYTE   W05
// 009   ----------------------------------------
 BYTE   W01
 BYTE   Fn2
 BYTE   W06
 BYTE   Cn3
 BYTE   W06
 BYTE   Fn3
 BYTE   W06
 BYTE   Fn2
 BYTE   W06
 BYTE   Fn3  v064
 BYTE   W06
 BYTE   Fn2
 BYTE   W06
 BYTE   Cn3
 BYTE   W06
 BYTE   Fn3
 BYTE   W06
 BYTE   Fn2
 BYTE   W06
 BYTE   Fn3
 BYTE   W06
 BYTE   Fn2
 BYTE   W06
 BYTE   Cn3  v068
 BYTE   W06
 BYTE   Fn3
 BYTE   W06
 BYTE   Fn2
 BYTE   W06
 BYTE   Fn3
 BYTE   W06
 BYTE   Cn3
 BYTE   W05
// 010   ----------------------------------------
 BYTE   W01
 BYTE   Fn2
 BYTE   W06
 BYTE   Cn3
 BYTE   W06
 BYTE   Fn3  v072
 BYTE   W06
 BYTE   Fn2
 BYTE   W06
 BYTE   Fn3
 BYTE   W06
 BYTE   Fn2
 BYTE   W06
 BYTE   Cn3
 BYTE   W06
 BYTE   Fn3
 BYTE   W06
 BYTE   Fn2
 BYTE   W06
 BYTE   Cn3  v076
 BYTE   W06
 BYTE   Fn3
 BYTE   W06
 BYTE   Fn2
 BYTE   W06
 BYTE   Fn3
 BYTE   W06
 BYTE   Fn2
 BYTE   W06
 BYTE   Cn3
 BYTE   W06
 BYTE   Fn3
 BYTE   W05
// 011   ----------------------------------------
 BYTE   W01
 BYTE   Fn2  v080
 BYTE   W06
 BYTE   Cn3
 BYTE   W06
 BYTE   Fn3
 BYTE   W06
 BYTE   Fn2
 BYTE   W06
 BYTE   Fn3
 BYTE   W06
 BYTE   Fn2
 BYTE   W06
 BYTE   Cn3
 BYTE   W06
 BYTE   Fn3
 BYTE   W06
 BYTE   Fn2  v084
 BYTE   W06
 BYTE   Fn3
 BYTE   W06
 BYTE   Fn2
 BYTE   W06
 BYTE   Cn3
 BYTE   W06
 BYTE   Fn3
 BYTE   W06
 BYTE   Fn2
 BYTE   W06
 BYTE   Cn3
 BYTE   W06
 BYTE   Fn3  v088
 BYTE   W05
// 012   ----------------------------------------
 BYTE   W01
 BYTE   Fn2
 BYTE   W06
 BYTE   Fn3
 BYTE   W06
 BYTE   Fn2
 BYTE   W06
 BYTE   Cn3
 BYTE   W06
 BYTE   Fn3
 BYTE   W06
 BYTE   Fn2
 BYTE   W06
 BYTE   Fn3  v092
 BYTE   W06
 BYTE   Fn2
 BYTE   W06
 BYTE   Cn3
 BYTE   W06
 BYTE   Fn3
 BYTE   W06
 BYTE   Fn2
 BYTE   W06
 BYTE   Fn3
 BYTE   W06
 BYTE   Fn2
 BYTE   W06
 BYTE   Cn3  v096
 BYTE   W06
 BYTE   Fn3
 BYTE   W06
 BYTE   Fn2
 BYTE   W05
// 013   ----------------------------------------
 BYTE   W01
 BYTE   Fn3
 BYTE   W06
 BYTE   Fn2
 BYTE   W06
 BYTE   Cn3
 BYTE   W06
 BYTE   Fn3
 BYTE   W06
 BYTE   Fn2  v100
 BYTE   W06
 BYTE   Fn3
 BYTE   W06
 BYTE   Cn3
 BYTE   W06
 BYTE   Fn2
 BYTE   W06
 BYTE   Fn3
 BYTE   W06
 BYTE   Fn2
 BYTE   W06
 BYTE   Fn3
 BYTE   W06
 BYTE   Fn2  v104
 BYTE   W06
 BYTE   Cn3
 BYTE   W06
 BYTE   Fn3
 BYTE   W06
 BYTE   Fn2
 BYTE   W06
 BYTE   Fn3
 BYTE   W05
// 014   ----------------------------------------
 BYTE   W01
 BYTE   Fn2
 BYTE   W06
 BYTE   Cn3
 BYTE   W06
 BYTE   Fn3  v108
 BYTE   W06
 BYTE   Fn2
 BYTE   W06
 BYTE   Fn3
 BYTE   W06
 BYTE   Fn2
 BYTE   W06
 BYTE   Cn3
 BYTE   W06
 BYTE   Fn3
 BYTE   W06
 BYTE   Fn2
 BYTE   W06
 BYTE   Cn3  v112
 BYTE   W06
 BYTE   Fn3
 BYTE   W06
 BYTE   Fn2
 BYTE   W06
 BYTE   Fn3
 BYTE   W06
 BYTE   Fn2
 BYTE   W06
 BYTE   En2
 BYTE   W06
 BYTE   Cn3
 BYTE   W05
// 015   ----------------------------------------
 BYTE   W01
 BYTE   En3  v116
 BYTE   W06
 BYTE   En2
 BYTE   W06
 BYTE   Cn3
 BYTE   W06
 BYTE   En2
 BYTE   W06
 BYTE   En3
 BYTE   W06
 BYTE   En2
 BYTE   W06
 BYTE   Cn3
 BYTE   W06
 BYTE   En3
 BYTE   W06
 BYTE   En2  v120
 BYTE   W06
 BYTE   En3
 BYTE   W06
 BYTE   En2
 BYTE   W06
 BYTE   Cn3
 BYTE   W06
 BYTE   En3
 BYTE   W06
 BYTE   En2
 BYTE   W06
 BYTE   Cn3
 BYTE   W06
 BYTE   En3  v124
 BYTE   W05
// 016   ----------------------------------------
 BYTE   W01
 BYTE   Cs3  v127
 BYTE   W02
 BYTE   Dn3
 BYTE   W02
 BYTE   N88  Ds3
 BYTE   W90
 BYTE   W01
// 017   ----------------------------------------
Label_2_012C6E30:
 BYTE   W01
 BYTE   N04  En3  v127
 BYTE   W02
 BYTE   N14  Fn3
 BYTE   W16
 BYTE   N16  Fs3
 BYTE   W18
 BYTE   N56  Gs3
 BYTE   W56
 BYTE   W03
 BYTE   PEND 
// 018   ----------------------------------------
 BYTE   W01
 BYTE   N04  Gn3
 BYTE   W02
 BYTE   N32  Gs3
 BYTE   W32
 BYTE   W02
 BYTE   N14  Fs3
 BYTE   W24
 BYTE   N10
 BYTE   W12
 BYTE   Fn3
 BYTE   W12
 BYTE   Fs3
 BYTE   W11
// 019   ----------------------------------------
 BYTE   W01
 BYTE   N04  Gn3
 BYTE   W02
 BYTE   N32  Gs3
 BYTE   W32
 BYTE   W02
 BYTE   N56  Ds3
 BYTE   W56
 BYTE   W03
// 020   ----------------------------------------
 BYTE   W01
 BYTE   N04  Cs3
 BYTE   W02
 BYTE   Dn3
 BYTE   W02
 BYTE   N54  Ds3
 BYTE   W56
 BYTE   N10
 BYTE   W12
 BYTE   Cs3
 BYTE   W12
 BYTE   Ds3
 BYTE   W11
// 021   ----------------------------------------
 BYTE   PATT
  POIN2 Label_2_012C6E30
// 022   ----------------------------------------
 BYTE   W01
 BYTE   N04  An3  v127
 BYTE   W02
 BYTE   N32  As3
 BYTE   W32
 BYTE   W02
 BYTE   N14  Gs3
 BYTE   W24
 BYTE   N10  As3
 BYTE   W12
 BYTE   Gs3
 BYTE   W12
 BYTE   Fs3
 BYTE   W11
// 023   ----------------------------------------
 BYTE   W01
 BYTE   N32  Ds3
 BYTE   W36
 BYTE   Cs3
 BYTE   W36
 BYTE   N22  Cn3
 BYTE   W23
// 024   ----------------------------------------
Label_2_012C6E8D:
 BYTE   W01
 BYTE   N36  As2  v127
 BYTE   W48
 BYTE   N04  En3
 BYTE   W02
 BYTE   N16  Fn3
 BYTE   W16
 BYTE   Ds3
 BYTE   W18
 BYTE   N10  Cs3
 BYTE   W11
 BYTE   PEND 
// 025   ----------------------------------------
Label_2_012C6E9E:
 BYTE   W01
 BYTE   N32  Ds3  v127
 BYTE   W36
 BYTE   N07  As2
 BYTE   W12
 BYTE   N36
 BYTE   W44
 BYTE   W03
 BYTE   PEND 
// 026   ----------------------------------------
 BYTE   PATT
  POIN2 Label_2_012C6E8D
// 027   ----------------------------------------
Label_2_012C6EAF:
 BYTE   W01
 BYTE   N92  Ds3  v127
 BYTE   W92
 BYTE   W03
 BYTE   PEND 
// 028   ----------------------------------------
 BYTE   PATT
  POIN2 Label_2_012C6E8D
// 029   ----------------------------------------
 BYTE   PATT
  POIN2 Label_2_012C6E9E
// 030   ----------------------------------------
 BYTE   PATT
  POIN2 Label_2_012C6E8D
// 031   ----------------------------------------
Label_2_012C6EC5:
 BYTE   W01
 BYTE   N32  Cs3  v127
 BYTE   W36
 BYTE   N04  Cn3
 BYTE   W06
 BYTE   Cs3
 BYTE   W06
 BYTE   N36  Cn3
 BYTE   W44
 BYTE   W03
 BYTE   PEND 
// 032   ----------------------------------------
 BYTE   W01
 BYTE   N04  Cs3  v120
 BYTE   W02
 BYTE   Dn3
 BYTE   W02
 BYTE   N88  Ds3
 BYTE   W90
 BYTE   W01
// 033   ----------------------------------------
Label_2_012C6EDF:
 BYTE   W01
 BYTE   N04  En3  v120
 BYTE   W02
 BYTE   N14  Fn3
 BYTE   W16
 BYTE   N16  Fs3
 BYTE   W18
 BYTE   N56  Gs3
 BYTE   W56
 BYTE   W03
 BYTE   PEND 
// 034   ----------------------------------------
 BYTE   W01
 BYTE   N04  Gn3
 BYTE   W02
 BYTE   N32  Gs3
 BYTE   W32
 BYTE   W02
 BYTE   N14  Fs3
 BYTE   W24
 BYTE   N10
 BYTE   W12
 BYTE   Fn3
 BYTE   W12
 BYTE   Fs3
 BYTE   W11
// 035   ----------------------------------------
 BYTE   W01
 BYTE   N04  Gn3
 BYTE   W02
 BYTE   N32  Gs3
 BYTE   W32
 BYTE   W02
 BYTE   N56  Ds3
 BYTE   W56
 BYTE   W03
// 036   ----------------------------------------
 BYTE   W01
 BYTE   N04  Cs3
 BYTE   W02
 BYTE   Dn3
 BYTE   W02
 BYTE   N54  Ds3
 BYTE   W56
 BYTE   N10
 BYTE   W12
 BYTE   Cs3
 BYTE   W12
 BYTE   Ds3
 BYTE   W11
// 037   ----------------------------------------
 BYTE   PATT
  POIN2 Label_2_012C6EDF
// 038   ----------------------------------------
 BYTE   W01
 BYTE   N04  An3  v120
 BYTE   W02
 BYTE   N32  As3
 BYTE   W32
 BYTE   W02
 BYTE   N14  Gs3
 BYTE   W24
 BYTE   N10  As3
 BYTE   W12
 BYTE   Gs3
 BYTE   W12
 BYTE   Fs3
 BYTE   W11
// 039   ----------------------------------------
 BYTE   W01
 BYTE   N32  Ds3
 BYTE   W36
 BYTE   Cs3
 BYTE   W36
 BYTE   N22  Cn3
 BYTE   W23
// 040   ----------------------------------------
 BYTE   PATT
  POIN2 Label_2_012C6E8D
// 041   ----------------------------------------
 BYTE   PATT
  POIN2 Label_2_012C6E9E
// 042   ----------------------------------------
 BYTE   PATT
  POIN2 Label_2_012C6E8D
// 043   ----------------------------------------
 BYTE   PATT
  POIN2 Label_2_012C6EAF
// 044   ----------------------------------------
 BYTE   PATT
  POIN2 Label_2_012C6E8D
// 045   ----------------------------------------
 BYTE   PATT
  POIN2 Label_2_012C6E9E
// 046   ----------------------------------------
 BYTE   PATT
  POIN2 Label_2_012C6E8D
// 047   ----------------------------------------
 BYTE   PATT
  POIN2 Label_2_012C6EC5
// 048   ----------------------------------------
 BYTE   W96
// 049   ----------------------------------------
 BYTE   W96
// 050   ----------------------------------------
 BYTE   W96
// 051   ----------------------------------------
 BYTE   W96
// 052   ----------------------------------------
 BYTE   W96
// 053   ----------------------------------------
 BYTE   W96
// 054   ----------------------------------------
 BYTE   W96
// 055   ----------------------------------------
 BYTE   W72
 BYTE   W01
 BYTE   N05  Gn2  v108
 BYTE   W06
 BYTE   An2
 BYTE   W06
 BYTE   As2
 BYTE   W06
 BYTE   Cn3
 BYTE   W05
// 056   ----------------------------------------
Label_2_012C6F77:
 BYTE   W01
 BYTE   N88  Dn3  v108
 BYTE   W92
 BYTE   W03
 BYTE   PEND 
// 057   ----------------------------------------
Label_2_012C6F7E:
 BYTE   W01
 BYTE   N36  Cn3  v108
 BYTE   W48
 BYTE   Fn3
 BYTE   W44
 BYTE   W03
 BYTE   PEND 
// 058   ----------------------------------------
 BYTE   W01
 BYTE   N56  Dn3
 BYTE   W72
 BYTE   N10  Ds3
 BYTE   W12
 BYTE   Fn3
 BYTE   W11
// 059   ----------------------------------------
 BYTE   W01
 BYTE   N36  Gn3
 BYTE   W48
 BYTE   N19  An3
 BYTE   W24
 BYTE   N05  Gn2
 BYTE   W06
 BYTE   An2
 BYTE   W06
 BYTE   As2
 BYTE   W06
 BYTE   Cn3
 BYTE   W05
// 060   ----------------------------------------
 BYTE   PATT
  POIN2 Label_2_012C6F77
// 061   ----------------------------------------
 BYTE   PATT
  POIN2 Label_2_012C6F7E
// 062   ----------------------------------------
 BYTE   W01
 BYTE   N56  Gn3  v108
 BYTE   W72
 BYTE   N10  An3
 BYTE   W12
 BYTE   As3
 BYTE   W11
// 063   ----------------------------------------
 BYTE   W01
 BYTE   N88  An3
 BYTE   W92
 BYTE   W03
// 064   ----------------------------------------
Label_2_012C6FB9:
 BYTE   W01
 BYTE   N88  Fn3  v108
 BYTE   W92
 BYTE   W03
 BYTE   PEND 
// 065   ----------------------------------------
Label_2_012C6FC0:
 BYTE   W01
 BYTE   N36  Ds3  v108
 BYTE   W48
 BYTE   Gs3
 BYTE   W44
 BYTE   W03
 BYTE   PEND 
// 066   ----------------------------------------
 BYTE   W01
 BYTE   N56  Fn3
 BYTE   W72
 BYTE   N10  Fs3
 BYTE   W12
 BYTE   Gs3
 BYTE   W11
// 067   ----------------------------------------
 BYTE   W01
 BYTE   N36  As3
 BYTE   W48
 BYTE   N19  Cn4
 BYTE   W24
 BYTE   N05  As2
 BYTE   W06
 BYTE   Cn3
 BYTE   W06
 BYTE   Cs3
 BYTE   W06
 BYTE   Ds3
 BYTE   W05
// 068   ----------------------------------------
 BYTE   PATT
  POIN2 Label_2_012C6FB9
// 069   ----------------------------------------
 BYTE   PATT
  POIN2 Label_2_012C6FC0
// 070   ----------------------------------------
 BYTE   W01
 BYTE   N56  As3  v108
 BYTE   W72
 BYTE   N10  Cn4
 BYTE   W12
 BYTE   Cs4
 BYTE   W11
// 071   ----------------------------------------
 BYTE   W01
 BYTE   N88  Cn4
 BYTE   W92
 BYTE   W03
// 072   ----------------------------------------
Label_2_012C6FFB:
 BYTE   W01
 BYTE   N88  Fn2  v108
 BYTE   N88  An2
 BYTE   N88  Cn3
 BYTE   W92
 BYTE   W03
 BYTE   PEND 
// 073   ----------------------------------------
Label_2_012C7006:
 BYTE   W01
 BYTE   N88  Ds2  v108
 BYTE   N88  Gn2
 BYTE   N88  As2
 BYTE   W92
 BYTE   W03
 BYTE   PEND 
// 074   ----------------------------------------
Label_2_012C7011:
 BYTE   W01
 BYTE   N88  Cs2  v108
 BYTE   N88  Fn2
 BYTE   N88  Gs2
 BYTE   W92
 BYTE   W03
 BYTE   PEND 
// 075   ----------------------------------------
 BYTE   PATT
  POIN2 Label_2_012C7006
// 076   ----------------------------------------
Label_2_012C7021:
 BYTE   W01
 BYTE   N88  Gn2  v108
 BYTE   N88  Bn2
 BYTE   N88  Dn3
 BYTE   W92
 BYTE   W03
 BYTE   PEND 
// 077   ----------------------------------------
 BYTE   PATT
  POIN2 Label_2_012C6FFB
// 078   ----------------------------------------
 BYTE   PATT
  POIN2 Label_2_012C7006
// 079   ----------------------------------------
 BYTE   PATT
  POIN2 Label_2_012C6FFB
// 080   ----------------------------------------
 BYTE   PATT
  POIN2 Label_2_012C6FFB
// 081   ----------------------------------------
 BYTE   PATT
  POIN2 Label_2_012C7006
// 082   ----------------------------------------
 BYTE   PATT
  POIN2 Label_2_012C7011
// 083   ----------------------------------------
 BYTE   PATT
  POIN2 Label_2_012C7006
// 084   ----------------------------------------
 BYTE   PATT
  POIN2 Label_2_012C7021
// 085   ----------------------------------------
 BYTE   PATT
  POIN2 Label_2_012C6FFB
// 086   ----------------------------------------
 BYTE   PATT
  POIN2 Label_2_012C7006
// 087   ----------------------------------------
 BYTE   PATT
  POIN2 Label_2_012C6FFB
// 088   ----------------------------------------
 BYTE   W96
// 089   ----------------------------------------
 BYTE   W96
// 090   ----------------------------------------
 BYTE   W96
// 091   ----------------------------------------
 BYTE   W96
// 092   ----------------------------------------
 BYTE   W96
// 093   ----------------------------------------
 BYTE   W96
// 094   ----------------------------------------
 BYTE   W96
// 095   ----------------------------------------
 BYTE   W96
// 096   ----------------------------------------
 BYTE   W96
// 097   ----------------------------------------
 BYTE   W96
// 098   ----------------------------------------
 BYTE   W96
// 099   ----------------------------------------
 BYTE   W96
// 100   ----------------------------------------
 BYTE   W96
// 101   ----------------------------------------
 BYTE   W96
// 102   ----------------------------------------
 BYTE   W96
// 103   ----------------------------------------
 BYTE   W92
 BYTE   W03
 BYTE   GoTo
  POIN2 Label_2_012C6CFA
 BYTE   FINE

//**************** Track 4 (Midi-Chn.3) ****************//

song0B_004:
// 000   ----------------------------------------
 BYTE   KEYSH   song0B_key+0
Label_3_012C71D6:
 BYTE   VOICE   56
 BYTE   VOL   28*song0B_mvl/mxv
 BYTE   PAN   c_v-20
 BYTE   BEND   c_v+0
 BYTE   W96
// 001   ----------------------------------------
 BYTE   W96
// 002   ----------------------------------------
 BYTE   W96
// 003   ----------------------------------------
 BYTE   W96
// 004   ----------------------------------------
 BYTE   W96
// 005   ----------------------------------------
 BYTE   W96
// 006   ----------------------------------------
 BYTE   W96
// 007   ----------------------------------------
 BYTE   W96
// 008   ----------------------------------------
 BYTE   W96
// 009   ----------------------------------------
 BYTE   W96
// 010   ----------------------------------------
 BYTE   W96
// 011   ----------------------------------------
 BYTE   W96
// 012   ----------------------------------------
 BYTE   W96
// 013   ----------------------------------------
 BYTE   W96
// 014   ----------------------------------------
 BYTE   W96
// 015   ----------------------------------------
 BYTE   W96
// 016   ----------------------------------------
 BYTE   W96
// 017   ----------------------------------------
 BYTE   W96
// 018   ----------------------------------------
 BYTE   W96
// 019   ----------------------------------------
 BYTE   W96
// 020   ----------------------------------------
 BYTE   W96
// 021   ----------------------------------------
 BYTE   W96
// 022   ----------------------------------------
 BYTE   W96
// 023   ----------------------------------------
 BYTE   W96
// 024   ----------------------------------------
Label_3_012C71F6:
 BYTE   W01
 BYTE   N36  As2  v127
 BYTE   W48
 BYTE   N16  Fn3
 BYTE   W18
 BYTE   Ds3
 BYTE   W18
 BYTE   N10  Cs3
 BYTE   W11
 BYTE   PEND 
// 025   ----------------------------------------
Label_3_012C7204:
 BYTE   W01
 BYTE   N32  Ds3  v127
 BYTE   W36
 BYTE   N11  As2
 BYTE   W12
 BYTE   N36
 BYTE   W44
 BYTE   W03
 BYTE   PEND 
// 026   ----------------------------------------
 BYTE   PATT
  POIN2 Label_3_012C71F6
// 027   ----------------------------------------
Label_3_012C7215:
 BYTE   W01
 BYTE   N92  Ds3  v127
 BYTE   W92
 BYTE   W03
 BYTE   PEND 
// 028   ----------------------------------------
 BYTE   PATT
  POIN2 Label_3_012C71F6
// 029   ----------------------------------------
 BYTE   PATT
  POIN2 Label_3_012C7204
// 030   ----------------------------------------
 BYTE   PATT
  POIN2 Label_3_012C71F6
// 031   ----------------------------------------
Label_3_012C722B:
 BYTE   W01
 BYTE   N32  Cs3  v127
 BYTE   W36
 BYTE   N05  Cn3
 BYTE   W06
 BYTE   Cs3
 BYTE   W06
 BYTE   N36  Cn3
 BYTE   W44
 BYTE   W03
 BYTE   PEND 
// 032   ----------------------------------------
 BYTE   W96
// 033   ----------------------------------------
 BYTE   W96
// 034   ----------------------------------------
 BYTE   W96
// 035   ----------------------------------------
 BYTE   W96
// 036   ----------------------------------------
 BYTE   W96
// 037   ----------------------------------------
 BYTE   W96
// 038   ----------------------------------------
 BYTE   W96
// 039   ----------------------------------------
 BYTE   W96
// 040   ----------------------------------------
 BYTE   PATT
  POIN2 Label_3_012C71F6
// 041   ----------------------------------------
 BYTE   PATT
  POIN2 Label_3_012C7204
// 042   ----------------------------------------
 BYTE   PATT
  POIN2 Label_3_012C71F6
// 043   ----------------------------------------
 BYTE   PATT
  POIN2 Label_3_012C7215
// 044   ----------------------------------------
 BYTE   PATT
  POIN2 Label_3_012C71F6
// 045   ----------------------------------------
 BYTE   PATT
  POIN2 Label_3_012C7204
// 046   ----------------------------------------
 BYTE   PATT
  POIN2 Label_3_012C71F6
// 047   ----------------------------------------
 BYTE   PATT
  POIN2 Label_3_012C722B
// 048   ----------------------------------------
 BYTE   W96
// 049   ----------------------------------------
 BYTE   W96
// 050   ----------------------------------------
 BYTE   W96
// 051   ----------------------------------------
 BYTE   W96
// 052   ----------------------------------------
 BYTE   W96
// 053   ----------------------------------------
 BYTE   W96
// 054   ----------------------------------------
 BYTE   W96
// 055   ----------------------------------------
 BYTE   W72
 BYTE   W01
 BYTE   N05  Gn2  v127
 BYTE   W06
 BYTE   An2
 BYTE   W06
 BYTE   As2
 BYTE   W06
 BYTE   Cn3
 BYTE   W05
// 056   ----------------------------------------
Label_3_012C727D:
 BYTE   W01
 BYTE   N88  Dn3  v127
 BYTE   W92
 BYTE   W03
 BYTE   PEND 
// 057   ----------------------------------------
Label_3_012C7284:
 BYTE   W01
 BYTE   N36  Cn3  v127
 BYTE   W48
 BYTE   Fn3
 BYTE   W44
 BYTE   W03
 BYTE   PEND 
// 058   ----------------------------------------
 BYTE   W01
 BYTE   N56  Dn3
 BYTE   W72
 BYTE   N10  Ds3
 BYTE   W12
 BYTE   Fn3
 BYTE   W11
// 059   ----------------------------------------
 BYTE   W01
 BYTE   N36  Gn3
 BYTE   W48
 BYTE   N19  An3
 BYTE   W24
 BYTE   N05  Gn2
 BYTE   W06
 BYTE   An2
 BYTE   W06
 BYTE   As2
 BYTE   W06
 BYTE   Cn3
 BYTE   W05
// 060   ----------------------------------------
 BYTE   PATT
  POIN2 Label_3_012C727D
// 061   ----------------------------------------
 BYTE   PATT
  POIN2 Label_3_012C7284
// 062   ----------------------------------------
 BYTE   W01
 BYTE   N56  Gn3  v127
 BYTE   W72
 BYTE   N10  An3
 BYTE   W12
 BYTE   As3
 BYTE   W11
// 063   ----------------------------------------
 BYTE   W01
 BYTE   N88  An3
 BYTE   W92
 BYTE   W03
// 064   ----------------------------------------
Label_3_012C72BF:
 BYTE   W01
 BYTE   N88  Fn3  v127
 BYTE   W92
 BYTE   W03
 BYTE   PEND 
// 065   ----------------------------------------
Label_3_012C72C6:
 BYTE   W01
 BYTE   N36  Ds3  v127
 BYTE   W48
 BYTE   Gs3
 BYTE   W44
 BYTE   W03
 BYTE   PEND 
// 066   ----------------------------------------
 BYTE   W01
 BYTE   N56  Fn3
 BYTE   W72
 BYTE   N10  Fs3
 BYTE   W12
 BYTE   Gs3
 BYTE   W11
// 067   ----------------------------------------
 BYTE   W01
 BYTE   N36  As3
 BYTE   W48
 BYTE   N19  Cn4
 BYTE   W24
 BYTE   N05  As2
 BYTE   W06
 BYTE   Cn3
 BYTE   W06
 BYTE   Cs3
 BYTE   W06
 BYTE   Ds3
 BYTE   W05
// 068   ----------------------------------------
 BYTE   PATT
  POIN2 Label_3_012C72BF
// 069   ----------------------------------------
 BYTE   PATT
  POIN2 Label_3_012C72C6
// 070   ----------------------------------------
 BYTE   W01
 BYTE   N56  As3  v127
 BYTE   W72
 BYTE   N10  Cn4
 BYTE   W12
 BYTE   Cs4
 BYTE   W11
// 071   ----------------------------------------
 BYTE   W01
 BYTE   N88  Cn4
 BYTE   W92
 BYTE   W03
// 072   ----------------------------------------
 BYTE   W96
// 073   ----------------------------------------
 BYTE   W96
// 074   ----------------------------------------
 BYTE   W96
// 075   ----------------------------------------
 BYTE   W96
// 076   ----------------------------------------
 BYTE   W96
// 077   ----------------------------------------
 BYTE   W96
// 078   ----------------------------------------
 BYTE   W96
// 079   ----------------------------------------
 BYTE   W96
// 080   ----------------------------------------
 BYTE   W96
// 081   ----------------------------------------
 BYTE   W96
// 082   ----------------------------------------
 BYTE   W96
// 083   ----------------------------------------
 BYTE   W96
// 084   ----------------------------------------
 BYTE   W96
// 085   ----------------------------------------
 BYTE   W96
// 086   ----------------------------------------
 BYTE   W96
// 087   ----------------------------------------
 BYTE   W96
// 088   ----------------------------------------
 BYTE   W96
// 089   ----------------------------------------
 BYTE   W96
// 090   ----------------------------------------
 BYTE   W96
// 091   ----------------------------------------
 BYTE   W96
// 092   ----------------------------------------
 BYTE   W96
// 093   ----------------------------------------
 BYTE   W96
// 094   ----------------------------------------
 BYTE   W96
// 095   ----------------------------------------
 BYTE   W96
// 096   ----------------------------------------
 BYTE   W96
// 097   ----------------------------------------
 BYTE   W96
// 098   ----------------------------------------
 BYTE   W96
// 099   ----------------------------------------
 BYTE   W96
// 100   ----------------------------------------
 BYTE   W96
// 101   ----------------------------------------
 BYTE   W96
// 102   ----------------------------------------
 BYTE   W96
// 103   ----------------------------------------
 BYTE   W92
 BYTE   W03
 BYTE   GoTo
  POIN2 Label_3_012C71D6
 BYTE   FINE

//**************** Track 5 (Midi-Chn.4) ****************//

song0B_005:
// 000   ----------------------------------------
 BYTE   KEYSH   song0B_key+0
Label_4_012C6902:
 BYTE   VOICE   63
 BYTE   VOL   17*song0B_mvl/mxv
 BYTE   PAN   c_v+32
 BYTE   BEND   c_v+0
 BYTE   W96
// 001   ----------------------------------------
 BYTE   W96
// 002   ----------------------------------------
 BYTE   W96
// 003   ----------------------------------------
 BYTE   W96
// 004   ----------------------------------------
 BYTE   W96
// 005   ----------------------------------------
 BYTE   W96
// 006   ----------------------------------------
 BYTE   W96
// 007   ----------------------------------------
 BYTE   W96
// 008   ----------------------------------------
 BYTE   W01
 BYTE   N01  Cn6  v108
 BYTE   W01
 BYTE   N04  Fn5
 BYTE   W07
 BYTE   W04
 BYTE   Fn4
 BYTE   W03
 BYTE   W08
 BYTE   W01
 BYTE   N01  Cn6
 BYTE   W01
 BYTE   N04  Fn5
 BYTE   W06
 BYTE   W05
 BYTE   Fn4
 BYTE   W02
 BYTE   W08
 BYTE   W02
 BYTE   N01  Cn6
 BYTE   W01
 BYTE   N04  Fn5
 BYTE   W04
 BYTE   W07
 BYTE   Fn4
 BYTE   W01
 BYTE   W08
 BYTE   W03
 BYTE   N01  Cn6
 BYTE   W01
 BYTE   N04  Fn5
 BYTE   W03
 BYTE   W08
 BYTE   Fn4
 BYTE   W08
 BYTE   W03
// 009   ----------------------------------------
 BYTE   W01
 BYTE   N01  Cn6
 BYTE   W01
 BYTE   N04  Fn5
 BYTE   W02
 BYTE   W08
 BYTE   W01
 BYTE   Fn4
 BYTE   W06
 BYTE   W06
 BYTE   N01  Cn6
 BYTE   W01
 BYTE   N04  Fn5
 BYTE   W01
 BYTE   W08
 BYTE   W02
 BYTE   Fn4
 BYTE   W05
 BYTE   W07
 BYTE   N01  Cn6
 BYTE   W01
 BYTE   N04  Fn5
 BYTE   W08
 BYTE   W03
 BYTE   Fn4
 BYTE   W04
 BYTE   W08
 BYTE   N01  Cn6
 BYTE   W01
 BYTE   N04  Fn5
 BYTE   W07
 BYTE   W04
 BYTE   Fn4
 BYTE   W03
 BYTE   W08
// 010   ----------------------------------------
 BYTE   W01
 BYTE   N01  Cn6
 BYTE   W01
 BYTE   N04  Fn5
 BYTE   W05
 BYTE   W06
 BYTE   Fn4
 BYTE   W02
 BYTE   W08
 BYTE   W02
 BYTE   N01  Cn6
 BYTE   W01
 BYTE   N04  Fn5
 BYTE   W04
 BYTE   W07
 BYTE   Fn4
 BYTE   W01
 BYTE   W08
 BYTE   W03
 BYTE   N01  Cn6
 BYTE   W01
 BYTE   N04  Fn5
 BYTE   W03
 BYTE   W08
 BYTE   Fn4
 BYTE   W07
 BYTE   W05
 BYTE   N01  Cn6
 BYTE   W01
 BYTE   N04  Fn5
 BYTE   W02
 BYTE   W08
 BYTE   W01
 BYTE   Fn4
 BYTE   W06
 BYTE   W05
// 011   ----------------------------------------
 BYTE   W01
 BYTE   N01  Cn6
 BYTE   W01
 BYTE   N04  Fn5
 BYTE   W01
 BYTE   W08
 BYTE   W02
 BYTE   Fn4
 BYTE   W05
 BYTE   W07
 BYTE   N01  Cn6
 BYTE   W01
 BYTE   N04  Fn5
 BYTE   W07
 BYTE   W04
 BYTE   Fn4
 BYTE   W04
 BYTE   W08
 BYTE   N01  Cn6
 BYTE   W01
 BYTE   N04  Fn5
 BYTE   W06
 BYTE   W05
 BYTE   Fn4
 BYTE   W03
 BYTE   W08
 BYTE   W01
 BYTE   N01  Cn6
 BYTE   W01
 BYTE   N04  Fn5
 BYTE   W05
 BYTE   W06
 BYTE   Fn4
 BYTE   W02
 BYTE   W08
 BYTE   W01
// 012   ----------------------------------------
 BYTE   W01
 BYTE   N01  Cn6
 BYTE   W01
 BYTE   N04  Fn5
 BYTE   W04
 BYTE   W07
 BYTE   Fn4
 BYTE   W01
 BYTE   W07
 BYTE   W04
 BYTE   N01  Cn6
 BYTE   W01
 BYTE   N04  Fn5
 BYTE   W03
 BYTE   W08
 BYTE   Fn4
 BYTE   W07
 BYTE   W05
 BYTE   N01  Cn6
 BYTE   W01
 BYTE   N04  Fn5
 BYTE   W02
 BYTE   W08
 BYTE   W01
 BYTE   Fn4
 BYTE   W06
 BYTE   W06
 BYTE   N01  Cn6
 BYTE   W01
 BYTE   N04  Fn5
 BYTE   W01
 BYTE   W07
 BYTE   W03
 BYTE   Fn4
 BYTE   W05
 BYTE   W06
// 013   ----------------------------------------
 BYTE   W01
 BYTE   N01  Cn6
 BYTE   W01
 BYTE   N04  Fn5
 BYTE   W07
 BYTE   W04
 BYTE   Fn4
 BYTE   W04
 BYTE   W08
 BYTE   N01  Cn6
 BYTE   W01
 BYTE   N04  Fn5
 BYTE   W06
 BYTE   W05
 BYTE   Fn4
 BYTE   W03
 BYTE   W08
 BYTE   W01
 BYTE   N01  Cn6
 BYTE   W01
 BYTE   N04  Fn5
 BYTE   W05
 BYTE   W06
 BYTE   Fn4
 BYTE   W02
 BYTE   W07
 BYTE   W03
 BYTE   N01  Cn6
 BYTE   W01
 BYTE   N04  Fn5
 BYTE   W04
 BYTE   W07
 BYTE   Fn4
 BYTE   W01
 BYTE   W07
 BYTE   W03
// 014   ----------------------------------------
 BYTE   W01
 BYTE   N01  Cn6
 BYTE   W01
 BYTE   N04  Fn5
 BYTE   W03
 BYTE   W08
 BYTE   Fn4
 BYTE   W07
 BYTE   W05
 BYTE   N01  Cn6
 BYTE   W01
 BYTE   N04  Fn5
 BYTE   W02
 BYTE   W07
 BYTE   W02
 BYTE   Fn4
 BYTE   W06
 BYTE   W06
 BYTE   N01  Cn6
 BYTE   W01
 BYTE   N04  Fn5
 BYTE   W01
 BYTE   W07
 BYTE   W03
 BYTE   Fn4
 BYTE   W05
 BYTE   W07
 BYTE   N01  Cn6
 BYTE   W01
 BYTE   N04  Fn5
 BYTE   W07
 BYTE   W04
 BYTE   En4
 BYTE   W04
 BYTE   W07
// 015   ----------------------------------------
 BYTE   W01
 BYTE   N01  Cn5
 BYTE   W01
 BYTE   N04  Gn5
 BYTE   W11
 BYTE   En4
 BYTE   W12
 BYTE   N01  Cn5
 BYTE   W01
 BYTE   N04  Gn5
 BYTE   W11
 BYTE   Cn4
 BYTE   W12
 BYTE   N01  Cn5
 BYTE   W01
 BYTE   N04  Gn5
 BYTE   W11
 BYTE   Cn4
 BYTE   W12
 BYTE   N01  Cn5
 BYTE   W01
 BYTE   N04  Gn5
 BYTE   W11
 BYTE   Cn4
 BYTE   W11
// 016   ----------------------------------------
 BYTE   W96
// 017   ----------------------------------------
 BYTE   W96
// 018   ----------------------------------------
 BYTE   W96
// 019   ----------------------------------------
 BYTE   W96
// 020   ----------------------------------------
 BYTE   W96
// 021   ----------------------------------------
 BYTE   W96
// 022   ----------------------------------------
 BYTE   W96
// 023   ----------------------------------------
 BYTE   W96
// 024   ----------------------------------------
Label_4_012C6A6E:
 BYTE   W01
 BYTE   N04  As5  v108
 BYTE   W12
 BYTE   As4
 BYTE   W12
 BYTE   As5
 BYTE   W12
 BYTE   As4
 BYTE   W12
 BYTE   As5
 BYTE   W12
 BYTE   As4
 BYTE   W12
 BYTE   As5
 BYTE   W12
 BYTE   As4
 BYTE   W11
 BYTE   PEND 
// 025   ----------------------------------------
 BYTE   PATT
  POIN2 Label_4_012C6A6E
// 026   ----------------------------------------
 BYTE   PATT
  POIN2 Label_4_012C6A6E
// 027   ----------------------------------------
 BYTE   PATT
  POIN2 Label_4_012C6A6E
// 028   ----------------------------------------
 BYTE   PATT
  POIN2 Label_4_012C6A6E
// 029   ----------------------------------------
 BYTE   PATT
  POIN2 Label_4_012C6A6E
// 030   ----------------------------------------
 BYTE   PATT
  POIN2 Label_4_012C6A6E
// 031   ----------------------------------------
Label_4_012C6AA0:
 BYTE   W01
 BYTE   N04  Gs5  v108
 BYTE   W12
 BYTE   Gs4
 BYTE   W12
 BYTE   Gs5
 BYTE   W12
 BYTE   Gs4
 BYTE   W12
 BYTE   Gs5
 BYTE   W12
 BYTE   Gs4
 BYTE   W12
 BYTE   Gs5
 BYTE   W12
 BYTE   Gs4
 BYTE   W11
 BYTE   PEND 
// 032   ----------------------------------------
 BYTE   W96
// 033   ----------------------------------------
 BYTE   W96
// 034   ----------------------------------------
 BYTE   W96
// 035   ----------------------------------------
 BYTE   W96
// 036   ----------------------------------------
 BYTE   W96
// 037   ----------------------------------------
 BYTE   W96
// 038   ----------------------------------------
 BYTE   W96
// 039   ----------------------------------------
 BYTE   W96
// 040   ----------------------------------------
 BYTE   PATT
  POIN2 Label_4_012C6A6E
// 041   ----------------------------------------
 BYTE   PATT
  POIN2 Label_4_012C6A6E
// 042   ----------------------------------------
 BYTE   PATT
  POIN2 Label_4_012C6A6E
// 043   ----------------------------------------
 BYTE   PATT
  POIN2 Label_4_012C6A6E
// 044   ----------------------------------------
 BYTE   PATT
  POIN2 Label_4_012C6A6E
// 045   ----------------------------------------
 BYTE   PATT
  POIN2 Label_4_012C6A6E
// 046   ----------------------------------------
 BYTE   PATT
  POIN2 Label_4_012C6A6E
// 047   ----------------------------------------
 BYTE   PATT
  POIN2 Label_4_012C6AA0
// 048   ----------------------------------------
 BYTE   W96
// 049   ----------------------------------------
 BYTE   W96
// 050   ----------------------------------------
 BYTE   W96
// 051   ----------------------------------------
 BYTE   W96
// 052   ----------------------------------------
 BYTE   W96
// 053   ----------------------------------------
 BYTE   W96
// 054   ----------------------------------------
 BYTE   W96
// 055   ----------------------------------------
 BYTE   W96
// 056   ----------------------------------------
Label_4_012C6AEC:
 BYTE   W01
 BYTE   N03  Gn5  v108
 BYTE   W06
 BYTE   Dn5
 BYTE   W06
 BYTE   Gn4
 BYTE   W06
 BYTE   Dn5
 BYTE   W06
 BYTE   Gn5
 BYTE   W06
 BYTE   Dn5
 BYTE   W06
 BYTE   Gn4
 BYTE   W06
 BYTE   Dn5
 BYTE   W06
 BYTE   Gn5
 BYTE   W06
 BYTE   Dn5
 BYTE   W06
 BYTE   Gn4
 BYTE   W06
 BYTE   Dn5
 BYTE   W06
 BYTE   Gn5
 BYTE   W06
 BYTE   Dn5
 BYTE   W06
 BYTE   Gn4
 BYTE   W06
 BYTE   Dn5
 BYTE   W05
 BYTE   PEND 
// 057   ----------------------------------------
 BYTE   PATT
  POIN2 Label_4_012C6AEC
// 058   ----------------------------------------
 BYTE   PATT
  POIN2 Label_4_012C6AEC
// 059   ----------------------------------------
 BYTE   PATT
  POIN2 Label_4_012C6AEC
// 060   ----------------------------------------
 BYTE   PATT
  POIN2 Label_4_012C6AEC
// 061   ----------------------------------------
 BYTE   PATT
  POIN2 Label_4_012C6AEC
// 062   ----------------------------------------
 BYTE   PATT
  POIN2 Label_4_012C6AEC
// 063   ----------------------------------------
 BYTE   PATT
  POIN2 Label_4_012C6AEC
// 064   ----------------------------------------
Label_4_012C6B33:
 BYTE   W01
 BYTE   N03  As5  v108
 BYTE   W06
 BYTE   Fn5
 BYTE   W06
 BYTE   As4
 BYTE   W06
 BYTE   Fn5
 BYTE   W06
 BYTE   As5
 BYTE   W06
 BYTE   Fn5
 BYTE   W06
 BYTE   As4
 BYTE   W06
 BYTE   Fn5
 BYTE   W06
 BYTE   As5
 BYTE   W06
 BYTE   Fn5
 BYTE   W06
 BYTE   As4
 BYTE   W06
 BYTE   Fn5
 BYTE   W06
 BYTE   As5
 BYTE   W06
 BYTE   Fn5
 BYTE   W06
 BYTE   As4
 BYTE   W06
 BYTE   Fn5
 BYTE   W05
 BYTE   PEND 
// 065   ----------------------------------------
 BYTE   PATT
  POIN2 Label_4_012C6B33
// 066   ----------------------------------------
 BYTE   PATT
  POIN2 Label_4_012C6B33
// 067   ----------------------------------------
 BYTE   PATT
  POIN2 Label_4_012C6B33
// 068   ----------------------------------------
 BYTE   PATT
  POIN2 Label_4_012C6B33
// 069   ----------------------------------------
 BYTE   PATT
  POIN2 Label_4_012C6B33
// 070   ----------------------------------------
 BYTE   PATT
  POIN2 Label_4_012C6B33
// 071   ----------------------------------------
 BYTE   PATT
  POIN2 Label_4_012C6B33
// 072   ----------------------------------------
 BYTE   W96
// 073   ----------------------------------------
 BYTE   W96
// 074   ----------------------------------------
 BYTE   W96
// 075   ----------------------------------------
 BYTE   W96
// 076   ----------------------------------------
 BYTE   W96
// 077   ----------------------------------------
 BYTE   W96
// 078   ----------------------------------------
 BYTE   W96
// 079   ----------------------------------------
 BYTE   W96
// 080   ----------------------------------------
 BYTE   W96
// 081   ----------------------------------------
 BYTE   W96
// 082   ----------------------------------------
 BYTE   W96
// 083   ----------------------------------------
 BYTE   W96
// 084   ----------------------------------------
 BYTE   W96
// 085   ----------------------------------------
 BYTE   W96
// 086   ----------------------------------------
 BYTE   W96
// 087   ----------------------------------------
 BYTE   W96
// 088   ----------------------------------------
 BYTE   W96
// 089   ----------------------------------------
 BYTE   W96
// 090   ----------------------------------------
 BYTE   W96
// 091   ----------------------------------------
 BYTE   W96
// 092   ----------------------------------------
 BYTE   W96
// 093   ----------------------------------------
 BYTE   W96
// 094   ----------------------------------------
 BYTE   W96
// 095   ----------------------------------------
 BYTE   W96
// 096   ----------------------------------------
 BYTE   W01
 BYTE   N04  As4  v108
 BYTE   W06
 BYTE   N04
 BYTE   W06
 BYTE   Gs4
 BYTE   W06
 BYTE   N68  As4
 BYTE   W76
 BYTE   W01
// 097   ----------------------------------------
 BYTE   W01
 BYTE   N04  Cn5
 BYTE   W06
 BYTE   N04
 BYTE   W06
 BYTE   As4
 BYTE   W06
 BYTE   N68  Ds5
 BYTE   W76
 BYTE   W01
// 098   ----------------------------------------
 BYTE   W01
 BYTE   N04  Cs5
 BYTE   W06
 BYTE   N04
 BYTE   W06
 BYTE   Cn5
 BYTE   W06
 BYTE   N68  Cs5
 BYTE   W76
 BYTE   W01
// 099   ----------------------------------------
 BYTE   W01
 BYTE   N04  Ds5
 BYTE   W06
 BYTE   N04
 BYTE   W06
 BYTE   Cs5
 BYTE   W06
 BYTE   N68  Ds5
 BYTE   W76
 BYTE   W01
// 100   ----------------------------------------
Label_4_012C6BC3:
 BYTE   W01
 BYTE   N04  Fn4  v108
 BYTE   W06
 BYTE   Gs4
 BYTE   W06
 BYTE   Cs5
 BYTE   W06
 BYTE   Fn5
 BYTE   W06
 BYTE   Gs5
 BYTE   W06
 BYTE   Fn5
 BYTE   W06
 BYTE   Cs5
 BYTE   W06
 BYTE   Gs4
 BYTE   W06
 BYTE   Cs6
 BYTE   W06
 BYTE   Gs5
 BYTE   W06
 BYTE   Fn5
 BYTE   W06
 BYTE   Cs5
 BYTE   W06
 BYTE   Gs4
 BYTE   W06
 BYTE   Fn4
 BYTE   W06
 BYTE   Gs4
 BYTE   W06
 BYTE   Cs5
 BYTE   W05
 BYTE   PEND 
// 101   ----------------------------------------
 BYTE   W01
 BYTE   Gn4
 BYTE   W06
 BYTE   As4
 BYTE   W06
 BYTE   Ds5
 BYTE   W06
 BYTE   Gn5
 BYTE   W06
 BYTE   As5
 BYTE   W06
 BYTE   Gn5
 BYTE   W06
 BYTE   Ds5
 BYTE   W06
 BYTE   As4
 BYTE   W06
 BYTE   Ds6
 BYTE   W06
 BYTE   As5
 BYTE   W06
 BYTE   Gn5
 BYTE   W06
 BYTE   Ds5
 BYTE   W06
 BYTE   As4
 BYTE   W06
 BYTE   N04
 BYTE   W06
 BYTE   Gn4
 BYTE   W06
 BYTE   As4
 BYTE   W05
// 102   ----------------------------------------
 BYTE   PATT
  POIN2 Label_4_012C6BC3
// 103   ----------------------------------------
 BYTE   W01
 BYTE   N04  Gn4  v108
 BYTE   W06
 BYTE   As4
 BYTE   W06
 BYTE   Ds5
 BYTE   W06
 BYTE   Gn5
 BYTE   W06
 BYTE   As5
 BYTE   W06
 BYTE   Gn5
 BYTE   W06
 BYTE   Ds5
 BYTE   W06
 BYTE   As4
 BYTE   W06
 BYTE   Ds6
 BYTE   W06
 BYTE   As5
 BYTE   W06
 BYTE   Gn5
 BYTE   W06
 BYTE   Ds5
 BYTE   W06
 BYTE   As4
 BYTE   W06
 BYTE   N04
 BYTE   W06
 BYTE   Gn4
 BYTE   W06
 BYTE   As4
 BYTE   W04
 BYTE   GoTo
  POIN2 Label_4_012C6902
 BYTE   FINE

//**************** Track 6 (Midi-Chn.5) ****************//

song0B_006:
// 000   ----------------------------------------
 BYTE   KEYSH   song0B_key+0
Label_5_012C618A:
 BYTE   VOICE   51
 BYTE   VOL   18*song0B_mvl/mxv
 BYTE   PAN   c_v-8
 BYTE   BEND   c_v+0
 BYTE   W96
// 001   ----------------------------------------
 BYTE   W96
// 002   ----------------------------------------
 BYTE   W96
// 003   ----------------------------------------
 BYTE   W96
// 004   ----------------------------------------
 BYTE   W96
// 005   ----------------------------------------
 BYTE   W96
// 006   ----------------------------------------
 BYTE   W96
// 007   ----------------------------------------
 BYTE   W96
// 008   ----------------------------------------
 BYTE   W96
// 009   ----------------------------------------
 BYTE   W96
// 010   ----------------------------------------
 BYTE   W96
// 011   ----------------------------------------
 BYTE   W96
// 012   ----------------------------------------
 BYTE   W96
// 013   ----------------------------------------
 BYTE   W96
// 014   ----------------------------------------
 BYTE   W96
// 015   ----------------------------------------
 BYTE   W96
// 016   ----------------------------------------
 BYTE   W01
 BYTE   N88  As3  v112
 BYTE   N88  Fs4
 BYTE   N88  Ds5
 BYTE   W92
 BYTE   W03
// 017   ----------------------------------------
 BYTE   W01
 BYTE   Gs3
 BYTE   N88  Ds4
 BYTE   N32  Cn5
 BYTE   W36
 BYTE   Cs5
 BYTE   W36
 BYTE   N17  Ds5
 BYTE   W23
// 018   ----------------------------------------
Label_5_012C61B8:
 BYTE   W01
 BYTE   N88  As3  v112
 BYTE   N88  Fs4
 BYTE   N32  Fn5
 BYTE   W36
 BYTE   TIE  Ds5
 BYTE   W56
 BYTE   W03
 BYTE   PEND 
// 019   ----------------------------------------
 BYTE   W01
 BYTE   N40  Cn4
 BYTE   N40  Gs4
 BYTE   W40
 BYTE   W01
 BYTE   EOT
 BYTE   Ds5
 BYTE   W07
 BYTE   N40  Gs3
 BYTE   TIE  Ds4
 BYTE   N40  Cn5
 BYTE   W44
 BYTE   W03
// 020   ----------------------------------------
 BYTE   W01
 BYTE   N88  Fs3
 BYTE   N28  As4
 BYTE   W36
 BYTE   Cn5
 BYTE   W36
 BYTE   N16  Cs5
 BYTE   W23
// 021   ----------------------------------------
 BYTE   W01
 BYTE   N88  Gs3
 BYTE   N32  Cn5
 BYTE   W36
 BYTE   Cs5
 BYTE   W36
 BYTE   N17  Ds5
 BYTE   W17
 BYTE   EOT
 BYTE   Ds4
 BYTE   W06
// 022   ----------------------------------------
 BYTE   PATT
  POIN2 Label_5_012C61B8
// 023   ----------------------------------------
 BYTE   W01
 BYTE   N88  Cn4  v112
 BYTE   N88  Gs4
 BYTE   W88
 BYTE   W01
 BYTE   EOT
 BYTE   Ds5
 BYTE   W06
// 024   ----------------------------------------
 BYTE   W96
// 025   ----------------------------------------
 BYTE   W96
// 026   ----------------------------------------
 BYTE   W96
// 027   ----------------------------------------
 BYTE   W96
// 028   ----------------------------------------
 BYTE   W96
// 029   ----------------------------------------
 BYTE   W96
// 030   ----------------------------------------
 BYTE   W96
// 031   ----------------------------------------
 BYTE   W96
// 032   ----------------------------------------
 BYTE   W01
 BYTE   N90  As3
 BYTE   N90  Fs4
 BYTE   N90  Ds5
 BYTE   W92
 BYTE   W03
// 033   ----------------------------------------
 BYTE   W01
 BYTE   Gs3
 BYTE   N90  Ds4
 BYTE   N32  Cn5
 BYTE   W36
 BYTE   Cs5
 BYTE   W36
 BYTE   N18  Ds5
 BYTE   W23
// 034   ----------------------------------------
Label_5_012C621E:
 BYTE   W01
 BYTE   N90  As3  v112
 BYTE   N90  Fs4
 BYTE   N32  Fn5
 BYTE   W36
 BYTE   TIE  Ds5
 BYTE   W56
 BYTE   W03
 BYTE   PEND 
// 035   ----------------------------------------
 BYTE   W01
 BYTE   N42  Cn4
 BYTE   N42  Gs4
 BYTE   W42
 BYTE   EOT
 BYTE   Ds5
 BYTE   W06
 BYTE   N42  Gs3
 BYTE   TIE  Ds4
 BYTE   N42  Cn5
 BYTE   W44
 BYTE   W03
// 036   ----------------------------------------
 BYTE   W01
 BYTE   N90  Fs3
 BYTE   N32  As4
 BYTE   W36
 BYTE   Cn5
 BYTE   W36
 BYTE   N18  Cs5
 BYTE   W23
// 037   ----------------------------------------
 BYTE   W01
 BYTE   N90  Gs3
 BYTE   N32  Cn5
 BYTE   W36
 BYTE   Cs5
 BYTE   W36
 BYTE   N18  Ds5
 BYTE   W18
 BYTE   EOT
 BYTE   Ds4
 BYTE   W05
// 038   ----------------------------------------
 BYTE   PATT
  POIN2 Label_5_012C621E
// 039   ----------------------------------------
 BYTE   W01
 BYTE   N90  Cn4  v112
 BYTE   N90  Gs4
 BYTE   W90
 BYTE   EOT
 BYTE   Ds5
 BYTE   W05
// 040   ----------------------------------------
 BYTE   W96
// 041   ----------------------------------------
 BYTE   W96
// 042   ----------------------------------------
 BYTE   W96
// 043   ----------------------------------------
 BYTE   W96
// 044   ----------------------------------------
 BYTE   W96
// 045   ----------------------------------------
 BYTE   W96
// 046   ----------------------------------------
 BYTE   W96
// 047   ----------------------------------------
 BYTE   W01
 BYTE   N96  Ds3
 BYTE   N48  Cs4
 BYTE   N96  Gs4
 BYTE   W48
 BYTE   N48  Cn4
 BYTE   W44
 BYTE   W03
// 048   ----------------------------------------
 BYTE   W01
 BYTE   TIE  Gn3
 BYTE   TIE  Dn4
 BYTE   W92
 BYTE   W03
// 049   ----------------------------------------
 BYTE   W96
// 050   ----------------------------------------
 BYTE   W96
// 051   ----------------------------------------
 BYTE   W96
// 052   ----------------------------------------
 BYTE   W01
 BYTE   EOT
 BYTE   Gn3  v074
 BYTE   W92
 BYTE   W03
// 053   ----------------------------------------
 BYTE   W96
// 054   ----------------------------------------
 BYTE   W96
// 055   ----------------------------------------
 BYTE   W96
// 056   ----------------------------------------
 BYTE   W96
// 057   ----------------------------------------
 BYTE   W96
// 058   ----------------------------------------
 BYTE   W96
// 059   ----------------------------------------
 BYTE   W96
// 060   ----------------------------------------
 BYTE   W96
// 061   ----------------------------------------
 BYTE   W96
// 062   ----------------------------------------
 BYTE   W96
// 063   ----------------------------------------
 BYTE   W96
// 064   ----------------------------------------
 BYTE   W96
// 065   ----------------------------------------
 BYTE   W96
// 066   ----------------------------------------
 BYTE   W96
// 067   ----------------------------------------
 BYTE   W96
// 068   ----------------------------------------
 BYTE   W96
// 069   ----------------------------------------
 BYTE   W96
// 070   ----------------------------------------
 BYTE   W96
// 071   ----------------------------------------
 BYTE   W96
// 072   ----------------------------------------
 BYTE   W96
// 073   ----------------------------------------
 BYTE   W96
// 074   ----------------------------------------
 BYTE   W96
// 075   ----------------------------------------
 BYTE   W96
// 076   ----------------------------------------
 BYTE   W96
// 077   ----------------------------------------
 BYTE   W96
// 078   ----------------------------------------
 BYTE   W96
// 079   ----------------------------------------
 BYTE   W96
// 080   ----------------------------------------
 BYTE   W96
// 081   ----------------------------------------
 BYTE   W96
// 082   ----------------------------------------
 BYTE   W96
// 083   ----------------------------------------
 BYTE   W96
// 084   ----------------------------------------
 BYTE   W96
// 085   ----------------------------------------
 BYTE   W96
// 086   ----------------------------------------
 BYTE   W96
// 087   ----------------------------------------
 BYTE   W96
// 088   ----------------------------------------
 BYTE   W96
// 089   ----------------------------------------
 BYTE   W96
// 090   ----------------------------------------
 BYTE   W96
// 091   ----------------------------------------
 BYTE   W96
// 092   ----------------------------------------
 BYTE   W96
// 093   ----------------------------------------
 BYTE   W96
// 094   ----------------------------------------
 BYTE   W96
// 095   ----------------------------------------
 BYTE   W96
// 096   ----------------------------------------
 BYTE   W01
 BYTE   N96  Cs3  v108
 BYTE   N96  Gs3
 BYTE   N96  Fn4
 BYTE   W92
 BYTE   W03
// 097   ----------------------------------------
 BYTE   W01
 BYTE   N48  Ds3
 BYTE   N48  As3
 BYTE   N48  Gn4
 BYTE   W48
 BYTE   Gn3
 BYTE   N48  Ds4
 BYTE   N48  As4
 BYTE   W44
 BYTE   W03
// 098   ----------------------------------------
 BYTE   W01
 BYTE   N96  Gs3
 BYTE   N96  Fn4
 BYTE   N96  Cs5
 BYTE   W92
 BYTE   W03
// 099   ----------------------------------------
 BYTE   W01
 BYTE   N48  As3
 BYTE   N48  Gn4
 BYTE   N48  Ds5
 BYTE   W48
 BYTE   Gn3
 BYTE   N48  Ds4
 BYTE   N48  As4
 BYTE   W44
 BYTE   W03
// 100   ----------------------------------------
 BYTE   W01
 BYTE   N96  Fn3
 BYTE   N96  Cs4
 BYTE   N96  Gs4
 BYTE   W92
 BYTE   W03
// 101   ----------------------------------------
 BYTE   W01
 BYTE   Gn3
 BYTE   N96  Ds4
 BYTE   N96  As4
 BYTE   W92
 BYTE   W03
// 102   ----------------------------------------
 BYTE   W01
 BYTE   Gs3
 BYTE   N96  Fn4
 BYTE   N96  Cn5
 BYTE   W92
 BYTE   W03
// 103   ----------------------------------------
 BYTE   W01
 BYTE   N92  As3
 BYTE   N92  Gn4
 BYTE   N92  Ds5
 BYTE   W92
 BYTE   W02
 BYTE   GoTo
  POIN2 Label_5_012C618A
 BYTE   FINE

//**************** Track 7 (Midi-Chn.6) ****************//

song0B_007:
// 000   ----------------------------------------
 BYTE   KEYSH   song0B_key+0
Label_6_012C768E:
 BYTE   VOICE   62
 BYTE   VOL   26*song0B_mvl/mxv
 BYTE   PAN   c_v+16
 BYTE   BEND   c_v-2
 BYTE   W01
 BYTE   N72  Gs3  v120
 BYTE   W84
 BYTE   N84
 BYTE   W11
// 001   ----------------------------------------
Label_6_012C769D:
 BYTE   W84
 BYTE   W01
 BYTE   TIE  As3  v120
 BYTE   W11
 BYTE   PEND 
// 002   ----------------------------------------
 BYTE   W96
// 003   ----------------------------------------
 BYTE   W92
 BYTE   W03
 BYTE   EOT
 BYTE   W01
// 004   ----------------------------------------
Label_6_012C76A9:
 BYTE   W01
 BYTE   N72  Gs3  v120
 BYTE   W84
 BYTE   N84
 BYTE   W11
 BYTE   PEND 
// 005   ----------------------------------------
Label_6_012C76B1:
 BYTE   W84
 BYTE   W01
 BYTE   N84  As3  v120
 BYTE   W11
 BYTE   PEND 
// 006   ----------------------------------------
 BYTE   W84
 BYTE   W01
 BYTE   TIE  Ds4
 BYTE   W11
// 007   ----------------------------------------
 BYTE   W92
 BYTE   W03
 BYTE   EOT
 BYTE   W01
// 008   ----------------------------------------
 BYTE   PATT
  POIN2 Label_6_012C76A9
// 009   ----------------------------------------
 BYTE   PATT
  POIN2 Label_6_012C769D
// 010   ----------------------------------------
 BYTE   W96
// 011   ----------------------------------------
 BYTE   W92
 BYTE   W03
 BYTE   EOT
 BYTE   As3
 BYTE   W01
// 012   ----------------------------------------
 BYTE   PATT
  POIN2 Label_6_012C76A9
// 013   ----------------------------------------
 BYTE   PATT
  POIN2 Label_6_012C76B1
// 014   ----------------------------------------
 BYTE   W84
 BYTE   W01
 BYTE   TIE  Cn4  v120
 BYTE   W11
// 015   ----------------------------------------
 BYTE   W92
 BYTE   W03
 BYTE   EOT
 BYTE   W01
// 016   ----------------------------------------
Label_6_012C76E5:
 BYTE   W01
 BYTE   N14  Fs3  v068
 BYTE   W18
 BYTE   Fn3
 BYTE   W18
 BYTE   N09  Fs3
 BYTE   W18
 BYTE   N04
 BYTE   W06
 BYTE   N04
 BYTE   W12
 BYTE   N09  Gs3
 BYTE   W12
 BYTE   As3
 BYTE   W11
 BYTE   PEND 
// 017   ----------------------------------------
Label_6_012C76F9:
 BYTE   W01
 BYTE   N14  Cn4  v068
 BYTE   W18
 BYTE   As3
 BYTE   W18
 BYTE   N09  Cn4
 BYTE   W18
 BYTE   N04
 BYTE   W06
 BYTE   N04
 BYTE   W12
 BYTE   N09  Cs4
 BYTE   W12
 BYTE   Ds4
 BYTE   W11
 BYTE   PEND 
// 018   ----------------------------------------
 BYTE   PATT
  POIN2 Label_6_012C76E5
// 019   ----------------------------------------
 BYTE   PATT
  POIN2 Label_6_012C76F9
// 020   ----------------------------------------
 BYTE   PATT
  POIN2 Label_6_012C76E5
// 021   ----------------------------------------
 BYTE   PATT
  POIN2 Label_6_012C76F9
// 022   ----------------------------------------
 BYTE   PATT
  POIN2 Label_6_012C76E5
// 023   ----------------------------------------
 BYTE   PATT
  POIN2 Label_6_012C76F9
// 024   ----------------------------------------
Label_6_012C772B:
 BYTE   W01
 BYTE   N92  Fn3  v068
 BYTE   W92
 BYTE   W03
 BYTE   PEND 
// 025   ----------------------------------------
Label_6_012C7732:
 BYTE   W01
 BYTE   N92  Gn3  v068
 BYTE   W92
 BYTE   W03
 BYTE   PEND 
// 026   ----------------------------------------
Label_6_012C7739:
 BYTE   W01
 BYTE   N92  As3  v068
 BYTE   W92
 BYTE   W03
 BYTE   PEND 
// 027   ----------------------------------------
 BYTE   PATT
  POIN2 Label_6_012C7739
// 028   ----------------------------------------
 BYTE   PATT
  POIN2 Label_6_012C7739
// 029   ----------------------------------------
 BYTE   PATT
  POIN2 Label_6_012C7739
// 030   ----------------------------------------
 BYTE   PATT
  POIN2 Label_6_012C7739
// 031   ----------------------------------------
Label_6_012C7754:
 BYTE   W01
 BYTE   N92  Gs3  v068
 BYTE   W92
 BYTE   W03
 BYTE   PEND 
// 032   ----------------------------------------
 BYTE   PATT
  POIN2 Label_6_012C76E5
// 033   ----------------------------------------
 BYTE   PATT
  POIN2 Label_6_012C76F9
// 034   ----------------------------------------
 BYTE   PATT
  POIN2 Label_6_012C76E5
// 035   ----------------------------------------
 BYTE   PATT
  POIN2 Label_6_012C76F9
// 036   ----------------------------------------
 BYTE   PATT
  POIN2 Label_6_012C76E5
// 037   ----------------------------------------
 BYTE   PATT
  POIN2 Label_6_012C76F9
// 038   ----------------------------------------
 BYTE   PATT
  POIN2 Label_6_012C76E5
// 039   ----------------------------------------
 BYTE   PATT
  POIN2 Label_6_012C76F9
// 040   ----------------------------------------
 BYTE   PATT
  POIN2 Label_6_012C772B
// 041   ----------------------------------------
 BYTE   PATT
  POIN2 Label_6_012C7732
// 042   ----------------------------------------
 BYTE   PATT
  POIN2 Label_6_012C7739
// 043   ----------------------------------------
 BYTE   PATT
  POIN2 Label_6_012C7739
// 044   ----------------------------------------
 BYTE   PATT
  POIN2 Label_6_012C7739
// 045   ----------------------------------------
 BYTE   PATT
  POIN2 Label_6_012C7739
// 046   ----------------------------------------
 BYTE   PATT
  POIN2 Label_6_012C7739
// 047   ----------------------------------------
 BYTE   PATT
  POIN2 Label_6_012C7754
// 048   ----------------------------------------
 BYTE   W01
 BYTE   N11  Dn4  v088
 BYTE   W18
 BYTE   Cn4
 BYTE   W18
 BYTE   Dn4
 BYTE   W18
 BYTE   Cn4
 BYTE   W18
 BYTE   N04  Dn4
 BYTE   W06
 BYTE   N04
 BYTE   W06
 BYTE   N11  Cn4
 BYTE   W11
// 049   ----------------------------------------
 BYTE   W01
 BYTE   Ds4
 BYTE   W18
 BYTE   Dn4
 BYTE   W18
 BYTE   Ds4
 BYTE   W18
 BYTE   Dn4
 BYTE   W18
 BYTE   N04  Ds4
 BYTE   W06
 BYTE   N04
 BYTE   W06
 BYTE   N11  Dn4
 BYTE   W11
// 050   ----------------------------------------
 BYTE   W01
 BYTE   Fn4
 BYTE   W18
 BYTE   Ds4
 BYTE   W18
 BYTE   Dn4
 BYTE   W18
 BYTE   Cn4
 BYTE   W18
 BYTE   N04  Dn4
 BYTE   W06
 BYTE   N04
 BYTE   W06
 BYTE   N11  Ds4
 BYTE   W11
// 051   ----------------------------------------
 BYTE   W01
 BYTE   As4
 BYTE   W18
 BYTE   An4
 BYTE   W18
 BYTE   As4
 BYTE   W18
 BYTE   An4
 BYTE   W18
 BYTE   N04  As4
 BYTE   W06
 BYTE   N04
 BYTE   W06
 BYTE   N11  An4
 BYTE   W11
// 052   ----------------------------------------
 BYTE   W96
// 053   ----------------------------------------
 BYTE   W96
// 054   ----------------------------------------
 BYTE   W96
// 055   ----------------------------------------
 BYTE   W96
// 056   ----------------------------------------
 BYTE   PATT
  POIN2 Label_6_012C772B
// 057   ----------------------------------------
 BYTE   PATT
  POIN2 Label_6_012C772B
// 058   ----------------------------------------
 BYTE   PATT
  POIN2 Label_6_012C7739
// 059   ----------------------------------------
 BYTE   W01
 BYTE   N44  An3  v068
 BYTE   W48
 BYTE   N04  An4
 BYTE   W06
 BYTE   N04
 BYTE   W06
 BYTE   N11
 BYTE   W12
 BYTE   N04
 BYTE   W06
 BYTE   N04
 BYTE   W06
 BYTE   N04
 BYTE   W06
 BYTE   N04
 BYTE   W05
// 060   ----------------------------------------
 BYTE   PATT
  POIN2 Label_6_012C772B
// 061   ----------------------------------------
 BYTE   PATT
  POIN2 Label_6_012C772B
// 062   ----------------------------------------
 BYTE   PATT
  POIN2 Label_6_012C7739
// 063   ----------------------------------------
 BYTE   W01
 BYTE   N44  An3  v068
 BYTE   W48
 BYTE   BEND   c_v+0
 BYTE   N44  An4
 BYTE   W12
 BYTE   BEND   c_v-1
 BYTE   W06
 BYTE   Dn3
 BYTE   W04
 BYTE   Cs3
 BYTE   W02
 BYTE   Cn3
 BYTE   W02
 BYTE   Bn2
 BYTE   W02
 BYTE   As2
 BYTE   W01
 BYTE   An2
 BYTE   W01
 BYTE   Gs2
 BYTE   W01
 BYTE   Gn2
 BYTE   W01
 BYTE   Fs2
 BYTE   W01
 BYTE   Fn2
 BYTE   W01
 BYTE   Ds2
 BYTE   W01
 BYTE   Dn2
 BYTE   W01
 BYTE   Cn2
 BYTE   W01
 BYTE   As1
 BYTE   W01
 BYTE   Gs1
 BYTE   W01
 BYTE   Fn1
 BYTE   W01
 BYTE   Dn1
 BYTE   W01
 BYTE   Bn0
 BYTE   W01
 BYTE   Gn0
 BYTE   W01
 BYTE   Ds0
 BYTE   W01
 BYTE   AsM1
 BYTE   W01
 BYTE   FnM1
 BYTE   W01
 BYTE   CnM1
 BYTE   W01
// 064   ----------------------------------------
 BYTE   FnM2
 BYTE   W01
 BYTE   En3
 BYTE   N92  Gs3
 BYTE   W92
 BYTE   W03
// 065   ----------------------------------------
 BYTE   PATT
  POIN2 Label_6_012C7754
// 066   ----------------------------------------
Label_6_012C786E:
 BYTE   W01
 BYTE   N92  Cs4  v068
 BYTE   W92
 BYTE   W03
 BYTE   PEND 
// 067   ----------------------------------------
 BYTE   W01
 BYTE   N44  Cn4
 BYTE   W48
 BYTE   N04  Cn5
 BYTE   W06
 BYTE   N04
 BYTE   W06
 BYTE   N11
 BYTE   W12
 BYTE   N04
 BYTE   W06
 BYTE   N04
 BYTE   W06
 BYTE   N04
 BYTE   W06
 BYTE   N04
 BYTE   W05
// 068   ----------------------------------------
 BYTE   PATT
  POIN2 Label_6_012C7754
// 069   ----------------------------------------
 BYTE   PATT
  POIN2 Label_6_012C7754
// 070   ----------------------------------------
 BYTE   PATT
  POIN2 Label_6_012C786E
// 071   ----------------------------------------
 BYTE   W01
 BYTE   N44  Cn4  v068
 BYTE   W48
 BYTE   BEND   c_v+0
 BYTE   N44  Cn5
 BYTE   W12
 BYTE   BEND   c_v-1
 BYTE   W06
 BYTE   Dn3
 BYTE   W04
 BYTE   Cs3
 BYTE   W02
 BYTE   Cn3
 BYTE   W02
 BYTE   Bn2
 BYTE   W02
 BYTE   As2
 BYTE   W01
 BYTE   An2
 BYTE   W01
 BYTE   Gs2
 BYTE   W01
 BYTE   Gn2
 BYTE   W01
 BYTE   Fs2
 BYTE   W01
 BYTE   Fn2
 BYTE   W01
 BYTE   Ds2
 BYTE   W01
 BYTE   Dn2
 BYTE   W01
 BYTE   Cn2
 BYTE   W01
 BYTE   As1
 BYTE   W01
 BYTE   Gs1
 BYTE   W01
 BYTE   Fn1
 BYTE   W01
 BYTE   Dn1
 BYTE   W01
 BYTE   Bn0
 BYTE   W01
 BYTE   Gn0
 BYTE   W01
 BYTE   Ds0
 BYTE   W01
 BYTE   AsM1
 BYTE   W01
 BYTE   FnM1
 BYTE   W01
 BYTE   CnM1
 BYTE   W01
// 072   ----------------------------------------
 BYTE   FnM2
 BYTE   W01
 BYTE   En3
 BYTE   N88  An4  v088
 BYTE   N88  Cn5
 BYTE   W92
 BYTE   W03
// 073   ----------------------------------------
Label_6_012C78DC:
 BYTE   W01
 BYTE   N88  Gn4  v088
 BYTE   N88  As4
 BYTE   W92
 BYTE   W03
 BYTE   PEND 
// 074   ----------------------------------------
Label_6_012C78E5:
 BYTE   W01
 BYTE   N88  Fn4  v088
 BYTE   N88  Gs4
 BYTE   W92
 BYTE   W03
 BYTE   PEND 
// 075   ----------------------------------------
 BYTE   PATT
  POIN2 Label_6_012C78DC
// 076   ----------------------------------------
Label_6_012C78F3:
 BYTE   W01
 BYTE   N88  Cs5  v088
 BYTE   N88  En5
 BYTE   W92
 BYTE   W03
 BYTE   PEND 
// 077   ----------------------------------------
Label_6_012C78FC:
 BYTE   W01
 BYTE   N88  Bn4  v088
 BYTE   N88  Dn5
 BYTE   W92
 BYTE   W03
 BYTE   PEND 
// 078   ----------------------------------------
Label_6_012C7905:
 BYTE   W01
 BYTE   N88  An4  v088
 BYTE   N88  Cn5
 BYTE   W92
 BYTE   W03
 BYTE   PEND 
// 079   ----------------------------------------
 BYTE   PATT
  POIN2 Label_6_012C78FC
// 080   ----------------------------------------
 BYTE   PATT
  POIN2 Label_6_012C7905
// 081   ----------------------------------------
 BYTE   PATT
  POIN2 Label_6_012C78DC
// 082   ----------------------------------------
 BYTE   PATT
  POIN2 Label_6_012C78E5
// 083   ----------------------------------------
 BYTE   PATT
  POIN2 Label_6_012C78DC
// 084   ----------------------------------------
 BYTE   PATT
  POIN2 Label_6_012C78F3
// 085   ----------------------------------------
 BYTE   PATT
  POIN2 Label_6_012C78FC
// 086   ----------------------------------------
 BYTE   PATT
  POIN2 Label_6_012C7905
// 087   ----------------------------------------
 BYTE   PATT
  POIN2 Label_6_012C78FC
// 088   ----------------------------------------
 BYTE   W96
// 089   ----------------------------------------
 BYTE   W96
// 090   ----------------------------------------
 BYTE   W96
// 091   ----------------------------------------
 BYTE   W96
// 092   ----------------------------------------
 BYTE   W96
// 093   ----------------------------------------
 BYTE   W96
// 094   ----------------------------------------
 BYTE   W96
// 095   ----------------------------------------
 BYTE   W01
 BYTE   N16  En3  v088
 BYTE   W18
 BYTE   Cs3
 BYTE   W18
 BYTE   N10  Fs3
 BYTE   W12
 BYTE   N16  Gn3
 BYTE   W18
 BYTE   Gs3
 BYTE   W18
 BYTE   N10  An3
 BYTE   W11
// 096   ----------------------------------------
Label_6_012C7954:
 BYTE   W01
 BYTE   N92  Cs4  v100
 BYTE   W92
 BYTE   W03
 BYTE   PEND 
// 097   ----------------------------------------
Label_6_012C795B:
 BYTE   W01
 BYTE   N44  Ds4  v100
 BYTE   W48
 BYTE   As3
 BYTE   W44
 BYTE   W03
 BYTE   PEND 
// 098   ----------------------------------------
Label_6_012C7964:
 BYTE   W01
 BYTE   N68  Cs4  v100
 BYTE   W72
 BYTE   N11  Cn4
 BYTE   W12
 BYTE   Cs4
 BYTE   W11
 BYTE   PEND 
// 099   ----------------------------------------
 BYTE   W01
 BYTE   N92  Ds4
 BYTE   W92
 BYTE   W03
// 100   ----------------------------------------
 BYTE   PATT
  POIN2 Label_6_012C7954
// 101   ----------------------------------------
 BYTE   PATT
  POIN2 Label_6_012C795B
// 102   ----------------------------------------
 BYTE   PATT
  POIN2 Label_6_012C7964
// 103   ----------------------------------------
 BYTE   W01
 BYTE   N44  As3  v100
 BYTE   W48
 BYTE   N22  Ds4
 BYTE   W24
 BYTE   Gn4
 BYTE   W22
 BYTE   GoTo
  POIN2 Label_6_012C768E
 BYTE   FINE

//**************** Track 8 (Midi-Chn.7) ****************//

song0B_008:
// 000   ----------------------------------------
 BYTE   KEYSH   song0B_key+0
Label_7_017C7CFA:
 BYTE   VOICE   62
 BYTE   VOL   26*song0B_mvl/mxv
 BYTE   PAN   c_v+0
 BYTE   BEND   c_v+0
 BYTE   W01
 BYTE   N72  Fn3  v120
 BYTE   W84
 BYTE   N84
 BYTE   W11
// 001   ----------------------------------------
Label_7_017C7D09:
 BYTE   W84
 BYTE   W01
 BYTE   TIE  Gn3  v120
 BYTE   W11
 BYTE   PEND 
// 002   ----------------------------------------
 BYTE   W96
// 003   ----------------------------------------
 BYTE   W92
 BYTE   W03
 BYTE   EOT
 BYTE   W01
// 004   ----------------------------------------
Label_7_017C7D15:
 BYTE   W01
 BYTE   N72  Fn3  v120
 BYTE   W84
 BYTE   N84
 BYTE   W11
 BYTE   PEND 
// 005   ----------------------------------------
Label_7_017C7D1D:
 BYTE   W84
 BYTE   W01
 BYTE   N84  Gn3  v120
 BYTE   W11
 BYTE   PEND 
// 006   ----------------------------------------
 BYTE   W84
 BYTE   W01
 BYTE   TIE  As3
 BYTE   W11
// 007   ----------------------------------------
 BYTE   W92
 BYTE   W03
 BYTE   EOT
 BYTE   W01
// 008   ----------------------------------------
 BYTE   PATT
  POIN2 Label_7_017C7D15
// 009   ----------------------------------------
 BYTE   PATT
  POIN2 Label_7_017C7D09
// 010   ----------------------------------------
 BYTE   W96
// 011   ----------------------------------------
 BYTE   W92
 BYTE   W03
 BYTE   EOT
 BYTE   Gn3
 BYTE   W01
// 012   ----------------------------------------
 BYTE   PATT
  POIN2 Label_7_017C7D15
// 013   ----------------------------------------
 BYTE   PATT
  POIN2 Label_7_017C7D1D
// 014   ----------------------------------------
 BYTE   PATT
  POIN2 Label_7_017C7D09
// 015   ----------------------------------------
 BYTE   W92
 BYTE   W03
 BYTE   EOT
 BYTE   Gn3
 BYTE   W01
// 016   ----------------------------------------
Label_7_017C7D51:
 BYTE   W01
 BYTE   N14  Ds3  v068
 BYTE   W18
 BYTE   N14
 BYTE   W18
 BYTE   N09
 BYTE   W18
 BYTE   N04
 BYTE   W06
 BYTE   N04
 BYTE   W12
 BYTE   N09
 BYTE   W12
 BYTE   N09
 BYTE   W11
 BYTE   PEND 
// 017   ----------------------------------------
Label_7_017C7D63:
 BYTE   W01
 BYTE   N14  Gs3  v068
 BYTE   W18
 BYTE   N14
 BYTE   W18
 BYTE   N09
 BYTE   W18
 BYTE   N04
 BYTE   W06
 BYTE   N04
 BYTE   W12
 BYTE   N09
 BYTE   W12
 BYTE   N09
 BYTE   W11
 BYTE   PEND 
// 018   ----------------------------------------
 BYTE   PATT
  POIN2 Label_7_017C7D51
// 019   ----------------------------------------
 BYTE   PATT
  POIN2 Label_7_017C7D63
// 020   ----------------------------------------
 BYTE   W01
 BYTE   N14  Fs3  v068
 BYTE   W18
 BYTE   Fn3
 BYTE   W18
 BYTE   N09  Fs3
 BYTE   W18
 BYTE   N04
 BYTE   W06
 BYTE   N04
 BYTE   W12
 BYTE   N09  Ds3
 BYTE   W12
 BYTE   N09
 BYTE   W11
// 021   ----------------------------------------
 BYTE   PATT
  POIN2 Label_7_017C7D63
// 022   ----------------------------------------
 BYTE   PATT
  POIN2 Label_7_017C7D51
// 023   ----------------------------------------
 BYTE   PATT
  POIN2 Label_7_017C7D63
// 024   ----------------------------------------
Label_7_017C7DA1:
 BYTE   W01
 BYTE   N92  Cs3  v068
 BYTE   W92
 BYTE   W03
 BYTE   PEND 
// 025   ----------------------------------------
Label_7_017C7DA8:
 BYTE   W01
 BYTE   N92  Ds3  v068
 BYTE   W92
 BYTE   W03
 BYTE   PEND 
// 026   ----------------------------------------
Label_7_017C7DAF:
 BYTE   W01
 BYTE   N92  Fn3  v068
 BYTE   W92
 BYTE   W03
 BYTE   PEND 
// 027   ----------------------------------------
Label_7_017C7DB6:
 BYTE   W01
 BYTE   N92  Gn3  v068
 BYTE   W92
 BYTE   W03
 BYTE   PEND 
// 028   ----------------------------------------
 BYTE   PATT
  POIN2 Label_7_017C7DAF
// 029   ----------------------------------------
 BYTE   PATT
  POIN2 Label_7_017C7DB6
// 030   ----------------------------------------
 BYTE   PATT
  POIN2 Label_7_017C7DAF
// 031   ----------------------------------------
 BYTE   PATT
  POIN2 Label_7_017C7DA8
// 032   ----------------------------------------
 BYTE   PATT
  POIN2 Label_7_017C7D51
// 033   ----------------------------------------
 BYTE   PATT
  POIN2 Label_7_017C7D63
// 034   ----------------------------------------
 BYTE   PATT
  POIN2 Label_7_017C7D51
// 035   ----------------------------------------
 BYTE   PATT
  POIN2 Label_7_017C7D63
// 036   ----------------------------------------
 BYTE   PATT
  POIN2 Label_7_017C7D51
// 037   ----------------------------------------
 BYTE   PATT
  POIN2 Label_7_017C7D63
// 038   ----------------------------------------
 BYTE   PATT
  POIN2 Label_7_017C7D51
// 039   ----------------------------------------
 BYTE   PATT
  POIN2 Label_7_017C7D63
// 040   ----------------------------------------
 BYTE   PATT
  POIN2 Label_7_017C7DA1
// 041   ----------------------------------------
 BYTE   PATT
  POIN2 Label_7_017C7DA8
// 042   ----------------------------------------
 BYTE   PATT
  POIN2 Label_7_017C7DAF
// 043   ----------------------------------------
 BYTE   PATT
  POIN2 Label_7_017C7DB6
// 044   ----------------------------------------
 BYTE   PATT
  POIN2 Label_7_017C7DAF
// 045   ----------------------------------------
 BYTE   PATT
  POIN2 Label_7_017C7DB6
// 046   ----------------------------------------
 BYTE   PATT
  POIN2 Label_7_017C7DAF
// 047   ----------------------------------------
 BYTE   PATT
  POIN2 Label_7_017C7DA8
// 048   ----------------------------------------
 BYTE   W96
// 049   ----------------------------------------
 BYTE   W96
// 050   ----------------------------------------
 BYTE   W96
// 051   ----------------------------------------
 BYTE   W96
// 052   ----------------------------------------
 BYTE   W96
// 053   ----------------------------------------
 BYTE   W96
// 054   ----------------------------------------
 BYTE   W96
// 055   ----------------------------------------
 BYTE   W96
// 056   ----------------------------------------
Label_7_017C7E29:
 BYTE   W01
 BYTE   N92  As2  v068
 BYTE   N92  Dn3
 BYTE   W92
 BYTE   W03
 BYTE   PEND 
// 057   ----------------------------------------
Label_7_017C7E32:
 BYTE   W01
 BYTE   N92  Cn3  v068
 BYTE   N92  Dn3
 BYTE   W92
 BYTE   W03
 BYTE   PEND 
// 058   ----------------------------------------
Label_7_017C7E3B:
 BYTE   W01
 BYTE   N92  Fn3  v068
 BYTE   N92  Gn3
 BYTE   W92
 BYTE   W03
 BYTE   PEND 
// 059   ----------------------------------------
 BYTE   W01
 BYTE   N44  Fn3
 BYTE   N44  Gn3
 BYTE   W48
 BYTE   N04  Fn4
 BYTE   N04  Gn4
 BYTE   W06
 BYTE   Fn4
 BYTE   N04  Gn4
 BYTE   W06
 BYTE   N11  Fn4
 BYTE   N11  Gn4
 BYTE   W12
 BYTE   N04  Fn4
 BYTE   N04  Gn4
 BYTE   W06
 BYTE   Fn4
 BYTE   N04  Gn4
 BYTE   W06
 BYTE   Fn4
 BYTE   N04  Gn4
 BYTE   W06
 BYTE   Fn4
 BYTE   N04  Gn4
 BYTE   W05
// 060   ----------------------------------------
 BYTE   PATT
  POIN2 Label_7_017C7E29
// 061   ----------------------------------------
 BYTE   PATT
  POIN2 Label_7_017C7E32
// 062   ----------------------------------------
 BYTE   PATT
  POIN2 Label_7_017C7E3B
// 063   ----------------------------------------
 BYTE   W01
 BYTE   N44  Fn3  v068
 BYTE   N44  Gn3
 BYTE   W48
 BYTE   BEND   c_v+0
 BYTE   N44  Fn4
 BYTE   N44  Gn4
 BYTE   W12
 BYTE   BEND   c_v-1
 BYTE   W06
 BYTE   Dn3
 BYTE   W04
 BYTE   Cs3
 BYTE   W02
 BYTE   Cn3
 BYTE   W02
 BYTE   Bn2
 BYTE   W02
 BYTE   As2
 BYTE   W01
 BYTE   An2
 BYTE   W01
 BYTE   Gs2
 BYTE   W01
 BYTE   Gn2
 BYTE   W01
 BYTE   Fs2
 BYTE   W01
 BYTE   Fn2
 BYTE   W01
 BYTE   Ds2
 BYTE   W01
 BYTE   Dn2
 BYTE   W01
 BYTE   Cn2
 BYTE   W01
 BYTE   As1
 BYTE   W01
 BYTE   Gs1
 BYTE   W01
 BYTE   Fn1
 BYTE   W01
 BYTE   Dn1
 BYTE   W01
 BYTE   Bn0
 BYTE   W01
 BYTE   Gn0
 BYTE   W01
 BYTE   Ds0
 BYTE   W01
 BYTE   AsM1
 BYTE   W01
 BYTE   FnM1
 BYTE   W01
 BYTE   CnM1
 BYTE   W01
// 064   ----------------------------------------
 BYTE   FnM2
 BYTE   W01
 BYTE   En3
 BYTE   N92  Cs3
 BYTE   N92  Fn3
 BYTE   W92
 BYTE   W03
// 065   ----------------------------------------
Label_7_017C7EC0:
 BYTE   W01
 BYTE   N92  Ds3  v068
 BYTE   N92  Fn3
 BYTE   W92
 BYTE   W03
 BYTE   PEND 
// 066   ----------------------------------------
Label_7_017C7EC9:
 BYTE   W01
 BYTE   N92  Gs3  v068
 BYTE   N92  As3
 BYTE   W92
 BYTE   W03
 BYTE   PEND 
// 067   ----------------------------------------
 BYTE   W01
 BYTE   N44  Gs3
 BYTE   N44  As3
 BYTE   W48
 BYTE   N04  Gs4
 BYTE   N04  As4
 BYTE   W06
 BYTE   Gs4
 BYTE   N04  As4
 BYTE   W06
 BYTE   N11  Gs4
 BYTE   N11  As4
 BYTE   W12
 BYTE   N04  Gs4
 BYTE   N04  As4
 BYTE   W06
 BYTE   Gs4
 BYTE   N04  As4
 BYTE   W06
 BYTE   Gs4
 BYTE   N04  As4
 BYTE   W06
 BYTE   Gs4
 BYTE   N04  As4
 BYTE   W05
// 068   ----------------------------------------
 BYTE   W01
 BYTE   N92  Cs3
 BYTE   N92  Fn3
 BYTE   W92
 BYTE   W03
// 069   ----------------------------------------
 BYTE   PATT
  POIN2 Label_7_017C7EC0
// 070   ----------------------------------------
 BYTE   PATT
  POIN2 Label_7_017C7EC9
// 071   ----------------------------------------
 BYTE   W01
 BYTE   N44  Gs3  v068
 BYTE   N44  As3
 BYTE   W48
 BYTE   BEND   c_v+0
 BYTE   N44  Gs4
 BYTE   N44  As4
 BYTE   W12
 BYTE   BEND   c_v-1
 BYTE   W06
 BYTE   Dn3
 BYTE   W04
 BYTE   Cs3
 BYTE   W02
 BYTE   Cn3
 BYTE   W02
 BYTE   Bn2
 BYTE   W02
 BYTE   As2
 BYTE   W01
 BYTE   An2
 BYTE   W01
 BYTE   Gs2
 BYTE   W01
 BYTE   Gn2
 BYTE   W01
 BYTE   Fs2
 BYTE   W01
 BYTE   Fn2
 BYTE   W01
 BYTE   Ds2
 BYTE   W01
 BYTE   Dn2
 BYTE   W01
 BYTE   Cn2
 BYTE   W01
 BYTE   As1
 BYTE   W01
 BYTE   Gs1
 BYTE   W01
 BYTE   Fn1
 BYTE   W01
 BYTE   Dn1
 BYTE   W01
 BYTE   Bn0
 BYTE   W01
 BYTE   Gn0
 BYTE   W01
 BYTE   Ds0
 BYTE   W01
 BYTE   AsM1
 BYTE   W01
 BYTE   FnM1
 BYTE   W01
 BYTE   CnM1
 BYTE   W01
// 072   ----------------------------------------
 BYTE   FnM2
 BYTE   W01
 BYTE   En3
 BYTE   N88  As3  v088
 BYTE   N88  Fn4
 BYTE   W92
 BYTE   W03
// 073   ----------------------------------------
Label_7_017C7F51:
 BYTE   W01
 BYTE   N88  Gs3  v088
 BYTE   N88  Ds4
 BYTE   W92
 BYTE   W03
 BYTE   PEND 
// 074   ----------------------------------------
Label_7_017C7F5A:
 BYTE   W01
 BYTE   N88  Fs3  v088
 BYTE   N88  Cs4
 BYTE   W92
 BYTE   W03
 BYTE   PEND 
// 075   ----------------------------------------
 BYTE   PATT
  POIN2 Label_7_017C7F51
// 076   ----------------------------------------
Label_7_017C7F68:
 BYTE   W01
 BYTE   N88  Dn4  v088
 BYTE   N88  An4
 BYTE   W92
 BYTE   W03
 BYTE   PEND 
// 077   ----------------------------------------
Label_7_017C7F71:
 BYTE   W01
 BYTE   N88  Cn4  v088
 BYTE   N88  Gn4
 BYTE   W92
 BYTE   W03
 BYTE   PEND 
// 078   ----------------------------------------
Label_7_017C7F7A:
 BYTE   W01
 BYTE   N88  As3  v088
 BYTE   N88  Fn4
 BYTE   W92
 BYTE   W03
 BYTE   PEND 
// 079   ----------------------------------------
 BYTE   PATT
  POIN2 Label_7_017C7F71
// 080   ----------------------------------------
 BYTE   PATT
  POIN2 Label_7_017C7F7A
// 081   ----------------------------------------
 BYTE   PATT
  POIN2 Label_7_017C7F51
// 082   ----------------------------------------
 BYTE   PATT
  POIN2 Label_7_017C7F5A
// 083   ----------------------------------------
 BYTE   PATT
  POIN2 Label_7_017C7F51
// 084   ----------------------------------------
 BYTE   PATT
  POIN2 Label_7_017C7F68
// 085   ----------------------------------------
 BYTE   PATT
  POIN2 Label_7_017C7F71
// 086   ----------------------------------------
 BYTE   PATT
  POIN2 Label_7_017C7F7A
// 087   ----------------------------------------
 BYTE   PATT
  POIN2 Label_7_017C7F71
// 088   ----------------------------------------
 BYTE   W96
// 089   ----------------------------------------
 BYTE   W96
// 090   ----------------------------------------
 BYTE   W96
// 091   ----------------------------------------
 BYTE   W96
// 092   ----------------------------------------
 BYTE   W96
// 093   ----------------------------------------
 BYTE   W96
// 094   ----------------------------------------
 BYTE   W96
// 095   ----------------------------------------
 BYTE   W01
 BYTE   N16  Cs3  v088
 BYTE   W18
 BYTE   N16
 BYTE   W18
 BYTE   N10
 BYTE   W12
 BYTE   N16
 BYTE   W18
 BYTE   N16
 BYTE   W18
 BYTE   N10
 BYTE   W11
// 096   ----------------------------------------
Label_7_017C7FC6:
 BYTE   W01
 BYTE   N92  Gs3  v100
 BYTE   W92
 BYTE   W03
 BYTE   PEND 
// 097   ----------------------------------------
Label_7_017C7FCD:
 BYTE   W01
 BYTE   N44  As3  v100
 BYTE   W48
 BYTE   Gn3
 BYTE   W44
 BYTE   W03
 BYTE   PEND 
// 098   ----------------------------------------
Label_7_017C7FD6:
 BYTE   W01
 BYTE   N68  Gs3  v100
 BYTE   W72
 BYTE   N11
 BYTE   W12
 BYTE   N11
 BYTE   W11
 BYTE   PEND 
// 099   ----------------------------------------
 BYTE   W01
 BYTE   N92  As3
 BYTE   W92
 BYTE   W03
// 100   ----------------------------------------
 BYTE   PATT
  POIN2 Label_7_017C7FC6
// 101   ----------------------------------------
 BYTE   PATT
  POIN2 Label_7_017C7FCD
// 102   ----------------------------------------
 BYTE   PATT
  POIN2 Label_7_017C7FD6
// 103   ----------------------------------------
 BYTE   W01
 BYTE   N44  Gn3  v100
 BYTE   W48
 BYTE   N22  As3
 BYTE   W24
 BYTE   Ds4
 BYTE   W22
 BYTE   GoTo
  POIN2 Label_7_017C7CFA
 BYTE   FINE

//**************** Track 9 (Midi-Chn.8) ****************//

song0B_009:
// 000   ----------------------------------------
 BYTE   KEYSH   song0B_key+0
Label_8_017C8006:
 BYTE   VOICE   62
 BYTE   VOL   26*song0B_mvl/mxv
 BYTE   PAN   c_v-16
 BYTE   BEND   c_v-1
 BYTE   W01
 BYTE   N72  Cn3  v120
 BYTE   W84
 BYTE   N84  Cs3
 BYTE   W11
// 001   ----------------------------------------
Label_8_017C8016:
 BYTE   W84
 BYTE   W01
 BYTE   TIE  Ds3  v120
 BYTE   W11
 BYTE   PEND 
// 002   ----------------------------------------
 BYTE   W96
// 003   ----------------------------------------
 BYTE   W92
 BYTE   W03
 BYTE   EOT
 BYTE   W01
// 004   ----------------------------------------
Label_8_017C8022:
 BYTE   W01
 BYTE   N72  Cn3  v120
 BYTE   W84
 BYTE   N84  Cs3
 BYTE   W11
 BYTE   PEND 
// 005   ----------------------------------------
Label_8_017C802B:
 BYTE   W84
 BYTE   W01
 BYTE   N84  Ds3  v120
 BYTE   W11
 BYTE   PEND 
// 006   ----------------------------------------
 BYTE   W84
 BYTE   W01
 BYTE   TIE  Gn3
 BYTE   W11
// 007   ----------------------------------------
 BYTE   W92
 BYTE   W03
 BYTE   EOT
 BYTE   W01
// 008   ----------------------------------------
 BYTE   PATT
  POIN2 Label_8_017C8022
// 009   ----------------------------------------
 BYTE   PATT
  POIN2 Label_8_017C8016
// 010   ----------------------------------------
 BYTE   W96
// 011   ----------------------------------------
 BYTE   W92
 BYTE   W03
 BYTE   EOT
 BYTE   Ds3
 BYTE   W01
// 012   ----------------------------------------
 BYTE   PATT
  POIN2 Label_8_017C8022
// 013   ----------------------------------------
 BYTE   PATT
  POIN2 Label_8_017C802B
// 014   ----------------------------------------
 BYTE   W84
 BYTE   W01
 BYTE   TIE  En3  v120
 BYTE   W11
// 015   ----------------------------------------
 BYTE   W92
 BYTE   W03
 BYTE   EOT
 BYTE   W01
// 016   ----------------------------------------
Label_8_017C805F:
 BYTE   W01
 BYTE   N14  As2  v068
 BYTE   W18
 BYTE   N14
 BYTE   W18
 BYTE   N09
 BYTE   W18
 BYTE   N04
 BYTE   W06
 BYTE   N04
 BYTE   W12
 BYTE   N09
 BYTE   W12
 BYTE   N09
 BYTE   W11
 BYTE   PEND 
// 017   ----------------------------------------
Label_8_017C8071:
 BYTE   W01
 BYTE   N14  Ds3  v068
 BYTE   W18
 BYTE   N14
 BYTE   W18
 BYTE   N09
 BYTE   W18
 BYTE   N04
 BYTE   W06
 BYTE   N04
 BYTE   W12
 BYTE   N09
 BYTE   W12
 BYTE   N09
 BYTE   W11
 BYTE   PEND 
// 018   ----------------------------------------
 BYTE   PATT
  POIN2 Label_8_017C805F
// 019   ----------------------------------------
 BYTE   PATT
  POIN2 Label_8_017C8071
// 020   ----------------------------------------
 BYTE   PATT
  POIN2 Label_8_017C805F
// 021   ----------------------------------------
 BYTE   PATT
  POIN2 Label_8_017C8071
// 022   ----------------------------------------
 BYTE   PATT
  POIN2 Label_8_017C805F
// 023   ----------------------------------------
 BYTE   PATT
  POIN2 Label_8_017C8071
// 024   ----------------------------------------
Label_8_017C80A1:
 BYTE   W01
 BYTE   N92  As2  v068
 BYTE   W92
 BYTE   W03
 BYTE   PEND 
// 025   ----------------------------------------
 BYTE   PATT
  POIN2 Label_8_017C80A1
// 026   ----------------------------------------
Label_8_017C80AD:
 BYTE   W01
 BYTE   N92  Cs3  v068
 BYTE   W92
 BYTE   W03
 BYTE   PEND 
// 027   ----------------------------------------
Label_8_017C80B4:
 BYTE   W01
 BYTE   N92  Ds3  v068
 BYTE   W92
 BYTE   W03
 BYTE   PEND 
// 028   ----------------------------------------
 BYTE   PATT
  POIN2 Label_8_017C80AD
// 029   ----------------------------------------
 BYTE   PATT
  POIN2 Label_8_017C80B4
// 030   ----------------------------------------
 BYTE   PATT
  POIN2 Label_8_017C80AD
// 031   ----------------------------------------
Label_8_017C80CA:
 BYTE   W01
 BYTE   N48  Cs3  v068
 BYTE   W48
 BYTE   N44  Cn3
 BYTE   W44
 BYTE   W03
 BYTE   PEND 
// 032   ----------------------------------------
 BYTE   PATT
  POIN2 Label_8_017C805F
// 033   ----------------------------------------
 BYTE   PATT
  POIN2 Label_8_017C8071
// 034   ----------------------------------------
 BYTE   PATT
  POIN2 Label_8_017C805F
// 035   ----------------------------------------
 BYTE   PATT
  POIN2 Label_8_017C8071
// 036   ----------------------------------------
 BYTE   PATT
  POIN2 Label_8_017C805F
// 037   ----------------------------------------
 BYTE   PATT
  POIN2 Label_8_017C8071
// 038   ----------------------------------------
 BYTE   PATT
  POIN2 Label_8_017C805F
// 039   ----------------------------------------
 BYTE   PATT
  POIN2 Label_8_017C8071
// 040   ----------------------------------------
 BYTE   PATT
  POIN2 Label_8_017C80A1
// 041   ----------------------------------------
 BYTE   PATT
  POIN2 Label_8_017C80A1
// 042   ----------------------------------------
 BYTE   PATT
  POIN2 Label_8_017C80AD
// 043   ----------------------------------------
 BYTE   PATT
  POIN2 Label_8_017C80B4
// 044   ----------------------------------------
 BYTE   PATT
  POIN2 Label_8_017C80AD
// 045   ----------------------------------------
 BYTE   PATT
  POIN2 Label_8_017C80B4
// 046   ----------------------------------------
 BYTE   PATT
  POIN2 Label_8_017C80AD
// 047   ----------------------------------------
 BYTE   PATT
  POIN2 Label_8_017C80CA
// 048   ----------------------------------------
 BYTE   W01
 BYTE   N11  As3  v088
 BYTE   W18
 BYTE   An3
 BYTE   W18
 BYTE   As3
 BYTE   W18
 BYTE   An3
 BYTE   W18
 BYTE   N04  As3
 BYTE   W06
 BYTE   N04
 BYTE   W06
 BYTE   N11  Cn4
 BYTE   W11
// 049   ----------------------------------------
 BYTE   W01
 BYTE   Ds4
 BYTE   W18
 BYTE   Dn4
 BYTE   W18
 BYTE   Cn4
 BYTE   W18
 BYTE   As3
 BYTE   W18
 BYTE   N04  Cn4
 BYTE   W06
 BYTE   N04
 BYTE   W06
 BYTE   N11  As3
 BYTE   W11
// 050   ----------------------------------------
 BYTE   W01
 BYTE   Dn4
 BYTE   W18
 BYTE   Cn4
 BYTE   W18
 BYTE   As3
 BYTE   W18
 BYTE   An3
 BYTE   W18
 BYTE   N04  As3
 BYTE   W06
 BYTE   N04
 BYTE   W06
 BYTE   N11  Cn4
 BYTE   W11
// 051   ----------------------------------------
 BYTE   W01
 BYTE   Gn4
 BYTE   W18
 BYTE   Fn4
 BYTE   W18
 BYTE   Gn4
 BYTE   W18
 BYTE   Fn4
 BYTE   W18
 BYTE   N04  Gn4
 BYTE   W06
 BYTE   N04
 BYTE   W06
 BYTE   N11  Fn4
 BYTE   W11
// 052   ----------------------------------------
 BYTE   W96
// 053   ----------------------------------------
 BYTE   W96
// 054   ----------------------------------------
 BYTE   W96
// 055   ----------------------------------------
 BYTE   W96
// 056   ----------------------------------------
Label_8_017C816E:
 BYTE   W01
 BYTE   N92  Gn2  v068
 BYTE   W92
 BYTE   W03
 BYTE   PEND 
// 057   ----------------------------------------
Label_8_017C8175:
 BYTE   W01
 BYTE   N92  An2  v068
 BYTE   W92
 BYTE   W03
 BYTE   PEND 
// 058   ----------------------------------------
Label_8_017C817C:
 BYTE   W01
 BYTE   N92  Dn3  v068
 BYTE   W92
 BYTE   W03
 BYTE   PEND 
// 059   ----------------------------------------
 BYTE   W01
 BYTE   N44  Cn3
 BYTE   W48
 BYTE   N04  Dn4
 BYTE   W06
 BYTE   N04
 BYTE   W06
 BYTE   N11
 BYTE   W12
 BYTE   N04
 BYTE   W06
 BYTE   N04
 BYTE   W06
 BYTE   N04
 BYTE   W06
 BYTE   N04
 BYTE   W05
// 060   ----------------------------------------
 BYTE   PATT
  POIN2 Label_8_017C816E
// 061   ----------------------------------------
 BYTE   PATT
  POIN2 Label_8_017C8175
// 062   ----------------------------------------
 BYTE   PATT
  POIN2 Label_8_017C817C
// 063   ----------------------------------------
 BYTE   W01
 BYTE   N44  Cn3  v068
 BYTE   W48
 BYTE   BEND   c_v+0
 BYTE   N44  Dn4
 BYTE   W12
 BYTE   BEND   c_v-1
 BYTE   W06
 BYTE   Dn3
 BYTE   W04
 BYTE   Cs3
 BYTE   W02
 BYTE   Cn3
 BYTE   W02
 BYTE   Bn2
 BYTE   W02
 BYTE   As2
 BYTE   W01
 BYTE   An2
 BYTE   W01
 BYTE   Gs2
 BYTE   W01
 BYTE   Gn2
 BYTE   W01
 BYTE   Fs2
 BYTE   W01
 BYTE   Fn2
 BYTE   W01
 BYTE   Ds2
 BYTE   W01
 BYTE   Dn2
 BYTE   W01
 BYTE   Cn2
 BYTE   W01
 BYTE   As1
 BYTE   W01
 BYTE   Gs1
 BYTE   W01
 BYTE   Fn1
 BYTE   W01
 BYTE   Dn1
 BYTE   W01
 BYTE   Bn0
 BYTE   W01
 BYTE   Gn0
 BYTE   W01
 BYTE   Ds0
 BYTE   W01
 BYTE   AsM1
 BYTE   W01
 BYTE   FnM1
 BYTE   W01
 BYTE   CnM1
 BYTE   W01
// 064   ----------------------------------------
 BYTE   FnM2
 BYTE   W01
 BYTE   En3
 BYTE   N92  As2
 BYTE   W92
 BYTE   W03
// 065   ----------------------------------------
Label_8_017C81E7:
 BYTE   W01
 BYTE   N92  Cn3  v068
 BYTE   W92
 BYTE   W03
 BYTE   PEND 
// 066   ----------------------------------------
Label_8_017C81EE:
 BYTE   W01
 BYTE   N92  Fn3  v068
 BYTE   W92
 BYTE   W03
 BYTE   PEND 
// 067   ----------------------------------------
 BYTE   W01
 BYTE   N44  Ds3
 BYTE   W48
 BYTE   N04  Fn4
 BYTE   W06
 BYTE   N04
 BYTE   W06
 BYTE   N11
 BYTE   W12
 BYTE   N04
 BYTE   W06
 BYTE   N04
 BYTE   W06
 BYTE   N04
 BYTE   W06
 BYTE   N04
 BYTE   W05
// 068   ----------------------------------------
 BYTE   PATT
  POIN2 Label_8_017C80A1
// 069   ----------------------------------------
 BYTE   PATT
  POIN2 Label_8_017C81E7
// 070   ----------------------------------------
 BYTE   PATT
  POIN2 Label_8_017C81EE
// 071   ----------------------------------------
 BYTE   W01
 BYTE   N44  Ds3  v068
 BYTE   W48
 BYTE   BEND   c_v+0
 BYTE   N44  Fn4
 BYTE   W12
 BYTE   BEND   c_v-1
 BYTE   W06
 BYTE   Dn3
 BYTE   W04
 BYTE   Cs3
 BYTE   W02
 BYTE   Cn3
 BYTE   W02
 BYTE   Bn2
 BYTE   W02
 BYTE   As2
 BYTE   W01
 BYTE   An2
 BYTE   W01
 BYTE   Gs2
 BYTE   W01
 BYTE   Gn2
 BYTE   W01
 BYTE   Fs2
 BYTE   W01
 BYTE   Fn2
 BYTE   W01
 BYTE   Ds2
 BYTE   W01
 BYTE   Dn2
 BYTE   W01
 BYTE   Cn2
 BYTE   W01
 BYTE   As1
 BYTE   W01
 BYTE   Gs1
 BYTE   W01
 BYTE   Fn1
 BYTE   W01
 BYTE   Dn1
 BYTE   W01
 BYTE   Bn0
 BYTE   W01
 BYTE   Gn0
 BYTE   W01
 BYTE   Ds0
 BYTE   W01
 BYTE   AsM1
 BYTE   W01
 BYTE   FnM1
 BYTE   W01
 BYTE   CnM1
 BYTE   W01
// 072   ----------------------------------------
 BYTE   FnM2
 BYTE   W01
 BYTE   En3
 BYTE   N88  Ds3  v088
 BYTE   N88  Gn3
 BYTE   W92
 BYTE   W03
// 073   ----------------------------------------
Label_8_017C825C:
 BYTE   W01
 BYTE   N88  Cs3  v088
 BYTE   N88  Fn3
 BYTE   W92
 BYTE   W03
 BYTE   PEND 
// 074   ----------------------------------------
Label_8_017C8265:
 BYTE   W01
 BYTE   N88  Bn2  v088
 BYTE   N88  Ds3
 BYTE   W92
 BYTE   W03
 BYTE   PEND 
// 075   ----------------------------------------
 BYTE   PATT
  POIN2 Label_8_017C825C
// 076   ----------------------------------------
Label_8_017C8273:
 BYTE   W01
 BYTE   N88  Gn3  v088
 BYTE   N88  Bn3
 BYTE   W92
 BYTE   W03
 BYTE   PEND 
// 077   ----------------------------------------
Label_8_017C827C:
 BYTE   W01
 BYTE   N88  Fn3  v088
 BYTE   N88  An3
 BYTE   W92
 BYTE   W03
 BYTE   PEND 
// 078   ----------------------------------------
Label_8_017C8285:
 BYTE   W01
 BYTE   N88  Ds3  v088
 BYTE   N88  Gn3
 BYTE   W92
 BYTE   W03
 BYTE   PEND 
// 079   ----------------------------------------
 BYTE   PATT
  POIN2 Label_8_017C827C
// 080   ----------------------------------------
 BYTE   PATT
  POIN2 Label_8_017C8285
// 081   ----------------------------------------
 BYTE   PATT
  POIN2 Label_8_017C825C
// 082   ----------------------------------------
 BYTE   PATT
  POIN2 Label_8_017C8265
// 083   ----------------------------------------
 BYTE   PATT
  POIN2 Label_8_017C825C
// 084   ----------------------------------------
 BYTE   PATT
  POIN2 Label_8_017C8273
// 085   ----------------------------------------
 BYTE   PATT
  POIN2 Label_8_017C827C
// 086   ----------------------------------------
 BYTE   PATT
  POIN2 Label_8_017C8285
// 087   ----------------------------------------
 BYTE   PATT
  POIN2 Label_8_017C827C
// 088   ----------------------------------------
 BYTE   W96
// 089   ----------------------------------------
 BYTE   W96
// 090   ----------------------------------------
 BYTE   W96
// 091   ----------------------------------------
 BYTE   W96
// 092   ----------------------------------------
 BYTE   W96
// 093   ----------------------------------------
 BYTE   W96
// 094   ----------------------------------------
 BYTE   W96
// 095   ----------------------------------------
 BYTE   W01
 BYTE   N16  As2  v088
 BYTE   W18
 BYTE   N16
 BYTE   W18
 BYTE   N10
 BYTE   W12
 BYTE   N16
 BYTE   W18
 BYTE   N16
 BYTE   W18
 BYTE   N10
 BYTE   W11
// 096   ----------------------------------------
Label_8_017C82D1:
 BYTE   W01
 BYTE   N92  Fn3  v100
 BYTE   W92
 BYTE   W03
 BYTE   PEND 
// 097   ----------------------------------------
Label_8_017C82D8:
 BYTE   W01
 BYTE   N44  Gn3  v100
 BYTE   W48
 BYTE   Ds3
 BYTE   W44
 BYTE   W03
 BYTE   PEND 
// 098   ----------------------------------------
Label_8_017C82E1:
 BYTE   W01
 BYTE   N68  Fn3  v100
 BYTE   W72
 BYTE   N11
 BYTE   W12
 BYTE   N11
 BYTE   W11
 BYTE   PEND 
// 099   ----------------------------------------
 BYTE   W01
 BYTE   N92  Gn3
 BYTE   W92
 BYTE   W03
// 100   ----------------------------------------
 BYTE   PATT
  POIN2 Label_8_017C82D1
// 101   ----------------------------------------
 BYTE   PATT
  POIN2 Label_8_017C82D8
// 102   ----------------------------------------
 BYTE   PATT
  POIN2 Label_8_017C82E1
// 103   ----------------------------------------
 BYTE   W01
 BYTE   N44  Ds3  v100
 BYTE   W48
 BYTE   N22  Gn3
 BYTE   W24
 BYTE   As3
 BYTE   W22
 BYTE   GoTo
  POIN2 Label_8_017C8006
 BYTE   FINE

//**************** Track 10 (Midi-Chn.9) ****************//

song0B_010:
// 000   ----------------------------------------
 BYTE   KEYSH   song0B_key+0
Label_9_017C8312:
 BYTE   VOICE   127
 BYTE   VOL   34*song0B_mvl/mxv
 BYTE   PAN   c_v+0
 BYTE   W01
 BYTE   N09  Cn1  v127
 BYTE   N92  Cs2
 BYTE   W12
 BYTE   N14  Ds2  v076
 BYTE   W12
 BYTE   N09  Cn1  v127
 BYTE   W12
 BYTE   N14  Ds2  v076
 BYTE   W12
 BYTE   N09  Cn1  v127
 BYTE   W12
 BYTE   N14  Ds2  v076
 BYTE   W12
 BYTE   N09  Cn1  v127
 BYTE   W12
 BYTE   N14  Ds2  v076
 BYTE   W11
// 001   ----------------------------------------
Label_9_017C833B:
 BYTE   W01
 BYTE   N09  Cn1  v127
 BYTE   W12
 BYTE   N14  Ds2  v076
 BYTE   W12
 BYTE   N09  Cn1  v127
 BYTE   W12
 BYTE   N14  Ds2  v076
 BYTE   W12
 BYTE   N09  Cn1  v127
 BYTE   W12
 BYTE   N14  Ds2  v076
 BYTE   W12
 BYTE   N09  Cn1  v127
 BYTE   W12
 BYTE   N14  Ds2  v076
 BYTE   W11
 BYTE   PEND 
// 002   ----------------------------------------
 BYTE   PATT
  POIN2 Label_9_017C833B
// 003   ----------------------------------------
 BYTE   W01
 BYTE   N09  Cn1  v127
 BYTE   W12
 BYTE   N14  Ds2  v076
 BYTE   W12
 BYTE   N09  Cn1  v127
 BYTE   W12
 BYTE   N14  Ds2  v076
 BYTE   W12
 BYTE   N09  Cn1  v127
 BYTE   W12
 BYTE   N14  Ds2  v076
 BYTE   W12
 BYTE   N04  Dn1  v127
 BYTE   W06
 BYTE   N04
 BYTE   W06
 BYTE   N04
 BYTE   W06
 BYTE   N04
 BYTE   W05
// 004   ----------------------------------------
 BYTE   W01
 BYTE   N09  Cn1
 BYTE   N92  Cs2
 BYTE   W12
 BYTE   N14  Ds2  v076
 BYTE   W12
 BYTE   N09  Cn1  v127
 BYTE   W12
 BYTE   N14  Ds2  v076
 BYTE   W12
 BYTE   N09  Cn1  v127
 BYTE   W12
 BYTE   N14  Ds2  v076
 BYTE   W12
 BYTE   N09  Cn1  v127
 BYTE   W12
 BYTE   N09
 BYTE   N14  Ds2  v076
 BYTE   W11
// 005   ----------------------------------------
 BYTE   PATT
  POIN2 Label_9_017C833B
// 006   ----------------------------------------
 BYTE   PATT
  POIN2 Label_9_017C833B
// 007   ----------------------------------------
Label_9_017C83B2:
 BYTE   W01
 BYTE   N09  Dn1  v127
 BYTE   N44  Cs2
 BYTE   W12
 BYTE   N09  Cn1
 BYTE   W12
 BYTE   N04  Dn1
 BYTE   W06
 BYTE   N09
 BYTE   W06
 BYTE   Cn1
 BYTE   W12
 BYTE   Dn1
 BYTE   N44  Cs2
 BYTE   W12
 BYTE   N09  Cn1
 BYTE   W12
 BYTE   N04  Dn1
 BYTE   W06
 BYTE   N04
 BYTE   W06
 BYTE   N04
 BYTE   W06
 BYTE   N04
 BYTE   W05
 BYTE   PEND 
// 008   ----------------------------------------
Label_9_017C83D4:
 BYTE   W01
 BYTE   N09  Cn1  v127
 BYTE   N92  Cs2
 BYTE   W12
 BYTE   N14  Ds2  v076
 BYTE   W12
 BYTE   N09  Dn1  v127
 BYTE   W12
 BYTE   N14  Ds2  v076
 BYTE   W12
 BYTE   N04  Cn1  v127
 BYTE   W06
 BYTE   N04
 BYTE   W06
 BYTE   N09
 BYTE   N14  Ds2  v076
 BYTE   W12
 BYTE   N09  Dn1  v127
 BYTE   W12
 BYTE   Cn1
 BYTE   N14  Ds2  v076
 BYTE   W11
 BYTE   PEND 
// 009   ----------------------------------------
Label_9_017C83FC:
 BYTE   W01
 BYTE   N09  Cn1  v127
 BYTE   W12
 BYTE   N14  Ds2  v076
 BYTE   W12
 BYTE   N09  Dn1  v127
 BYTE   W12
 BYTE   N14  Ds2  v076
 BYTE   W12
 BYTE   N04  Cn1  v127
 BYTE   W06
 BYTE   N04
 BYTE   W06
 BYTE   N09
 BYTE   N14  Ds2  v076
 BYTE   W12
 BYTE   N09  Dn1  v127
 BYTE   W12
 BYTE   Cn1
 BYTE   N14  Ds2  v076
 BYTE   W11
 BYTE   PEND 
// 010   ----------------------------------------
 BYTE   PATT
  POIN2 Label_9_017C83FC
// 011   ----------------------------------------
Label_9_017C8427:
 BYTE   W01
 BYTE   N09  Cn1  v127
 BYTE   W12
 BYTE   N14  Ds2  v076
 BYTE   W12
 BYTE   N09  Dn1  v127
 BYTE   W12
 BYTE   N14  Ds2  v076
 BYTE   W12
 BYTE   N04  Cn1  v127
 BYTE   W06
 BYTE   N04
 BYTE   W06
 BYTE   N09
 BYTE   N14  Ds2  v076
 BYTE   W12
 BYTE   N04  Dn1  v127
 BYTE   W06
 BYTE   N04
 BYTE   W06
 BYTE   N04
 BYTE   W06
 BYTE   N04
 BYTE   W05
 BYTE   PEND 
// 012   ----------------------------------------
 BYTE   PATT
  POIN2 Label_9_017C83D4
// 013   ----------------------------------------
 BYTE   PATT
  POIN2 Label_9_017C83FC
// 014   ----------------------------------------
 BYTE   PATT
  POIN2 Label_9_017C83FC
// 015   ----------------------------------------
 BYTE   PATT
  POIN2 Label_9_017C83B2
// 016   ----------------------------------------
Label_9_017C8462:
 BYTE   W01
 BYTE   N09  Cn1  v127
 BYTE   N92  Cs2
 BYTE   W12
 BYTE   N09  Ds2  v076
 BYTE   W06
 BYTE   Cn1  v127
 BYTE   W06
 BYTE   Ds2  v048
 BYTE   W12
 BYTE   Dn1  v127
 BYTE   N09  Ds2  v076
 BYTE   W12
 BYTE   Ds2  v048
 BYTE   W12
 BYTE   Cn1  v127
 BYTE   N09  Ds2  v076
 BYTE   W12
 BYTE   Dn1  v127
 BYTE   N09  Ds2  v048
 BYTE   W12
 BYTE   Cn1  v127
 BYTE   N09  Ds2  v076
 BYTE   W11
 BYTE   PEND 
// 017   ----------------------------------------
Label_9_017C848F:
 BYTE   W01
 BYTE   N09  Cn1  v127
 BYTE   N09  Ds2  v076
 BYTE   W12
 BYTE   N09
 BYTE   W06
 BYTE   Cn1  v127
 BYTE   W06
 BYTE   Ds2  v048
 BYTE   W12
 BYTE   Dn1  v127
 BYTE   N09  Ds2  v076
 BYTE   W12
 BYTE   Ds2  v048
 BYTE   W12
 BYTE   Cn1  v127
 BYTE   N09  Ds2  v076
 BYTE   W12
 BYTE   Dn1  v127
 BYTE   N09  Ds2  v048
 BYTE   W12
 BYTE   Cn1  v127
 BYTE   N09  Ds2  v076
 BYTE   W11
 BYTE   PEND 
// 018   ----------------------------------------
Label_9_017C84BB:
 BYTE   W01
 BYTE   N09  Cn1  v127
 BYTE   N09  Ds2  v076
 BYTE   W12
 BYTE   N09
 BYTE   W06
 BYTE   Cn1  v127
 BYTE   W06
 BYTE   Ds2  v048
 BYTE   W12
 BYTE   Dn1  v127
 BYTE   N09  Ds2  v076
 BYTE   W12
 BYTE   Ds2  v048
 BYTE   W12
 BYTE   Cn1  v127
 BYTE   N09  Ds2  v076
 BYTE   W12
 BYTE   N04  Dn1  v127
 BYTE   N09  Ds2  v048
 BYTE   W06
 BYTE   N04  Dn1  v127
 BYTE   W06
 BYTE   N09  Cn1
 BYTE   N09  Ds2  v076
 BYTE   W11
 BYTE   PEND 
// 019   ----------------------------------------
Label_9_017C84EC:
 BYTE   W01
 BYTE   N09  Cn1  v127
 BYTE   N09  Ds2  v076
 BYTE   W12
 BYTE   N09
 BYTE   W06
 BYTE   Cn1  v127
 BYTE   W06
 BYTE   Ds2  v048
 BYTE   W12
 BYTE   Dn1  v127
 BYTE   N09  Ds2  v076
 BYTE   W12
 BYTE   Ds2  v048
 BYTE   W12
 BYTE   Cn1  v127
 BYTE   N09  Ds2  v076
 BYTE   W12
 BYTE   N04  Dn1  v127
 BYTE   W06
 BYTE   N04
 BYTE   W06
 BYTE   N11
 BYTE   W11
 BYTE   PEND 
// 020   ----------------------------------------
 BYTE   PATT
  POIN2 Label_9_017C8462
// 021   ----------------------------------------
 BYTE   PATT
  POIN2 Label_9_017C848F
// 022   ----------------------------------------
 BYTE   PATT
  POIN2 Label_9_017C84BB
// 023   ----------------------------------------
Label_9_017C8523:
 BYTE   W01
 BYTE   N09  Cn1  v127
 BYTE   N09  Ds2  v076
 BYTE   W12
 BYTE   N09
 BYTE   W06
 BYTE   Cn1  v127
 BYTE   W06
 BYTE   Ds2  v048
 BYTE   W12
 BYTE   Dn1  v127
 BYTE   N09  Ds2  v076
 BYTE   W12
 BYTE   Ds2  v048
 BYTE   W12
 BYTE   Cn1  v127
 BYTE   N09  Ds2  v076
 BYTE   W12
 BYTE   N04  Dn1  v127
 BYTE   W06
 BYTE   N04
 BYTE   W06
 BYTE   N04
 BYTE   W06
 BYTE   N04
 BYTE   W05
 BYTE   PEND 
// 024   ----------------------------------------
 BYTE   PATT
  POIN2 Label_9_017C83D4
// 025   ----------------------------------------
 BYTE   PATT
  POIN2 Label_9_017C83FC
// 026   ----------------------------------------
 BYTE   PATT
  POIN2 Label_9_017C83FC
// 027   ----------------------------------------
 BYTE   PATT
  POIN2 Label_9_017C8427
// 028   ----------------------------------------
 BYTE   PATT
  POIN2 Label_9_017C83D4
// 029   ----------------------------------------
 BYTE   PATT
  POIN2 Label_9_017C83FC
// 030   ----------------------------------------
 BYTE   PATT
  POIN2 Label_9_017C83FC
// 031   ----------------------------------------
 BYTE   PATT
  POIN2 Label_9_017C83B2
// 032   ----------------------------------------
 BYTE   PATT
  POIN2 Label_9_017C8462
// 033   ----------------------------------------
 BYTE   PATT
  POIN2 Label_9_017C848F
// 034   ----------------------------------------
 BYTE   PATT
  POIN2 Label_9_017C84BB
// 035   ----------------------------------------
 BYTE   PATT
  POIN2 Label_9_017C84EC
// 036   ----------------------------------------
 BYTE   PATT
  POIN2 Label_9_017C8462
// 037   ----------------------------------------
 BYTE   PATT
  POIN2 Label_9_017C848F
// 038   ----------------------------------------
 BYTE   PATT
  POIN2 Label_9_017C84BB
// 039   ----------------------------------------
 BYTE   PATT
  POIN2 Label_9_017C8523
// 040   ----------------------------------------
 BYTE   PATT
  POIN2 Label_9_017C83D4
// 041   ----------------------------------------
 BYTE   PATT
  POIN2 Label_9_017C83FC
// 042   ----------------------------------------
 BYTE   PATT
  POIN2 Label_9_017C83FC
// 043   ----------------------------------------
 BYTE   PATT
  POIN2 Label_9_017C8427
// 044   ----------------------------------------
 BYTE   PATT
  POIN2 Label_9_017C83D4
// 045   ----------------------------------------
 BYTE   PATT
  POIN2 Label_9_017C83FC
// 046   ----------------------------------------
 BYTE   PATT
  POIN2 Label_9_017C83FC
// 047   ----------------------------------------
 BYTE   PATT
  POIN2 Label_9_017C83B2
// 048   ----------------------------------------
 BYTE   W01
 BYTE   N19  Cn1  v127
 BYTE   N92  Cs2
 BYTE   W24
 BYTE   N19  Cn1
 BYTE   W24
 BYTE   N19
 BYTE   W24
 BYTE   N19
 BYTE   W23
// 049   ----------------------------------------
Label_9_017C85D3:
 BYTE   W01
 BYTE   N19  Cn1  v127
 BYTE   W24
 BYTE   N19
 BYTE   W24
 BYTE   N19
 BYTE   W24
 BYTE   N19
 BYTE   W23
 BYTE   PEND 
// 050   ----------------------------------------
 BYTE   PATT
  POIN2 Label_9_017C85D3
// 051   ----------------------------------------
 BYTE   W01
 BYTE   N19  Cn1  v127
 BYTE   W24
 BYTE   N19
 BYTE   W24
 BYTE   N19
 BYTE   W24
 BYTE   N19
 BYTE   N04  Dn1
 BYTE   W06
 BYTE   N04
 BYTE   W06
 BYTE   N04
 BYTE   W06
 BYTE   N04
 BYTE   W05
// 052   ----------------------------------------
Label_9_017C85F7:
 BYTE   W01
 BYTE   N09  Cn1  v127
 BYTE   N92  Cs2
 BYTE   W12
 BYTE   N09  Ds2  v020
 BYTE   W12
 BYTE   Dn1  v127
 BYTE   N09  Ds2  v076
 BYTE   W12
 BYTE   Ds2  v020
 BYTE   W12
 BYTE   Cn1  v127
 BYTE   N09  Ds2  v076
 BYTE   W12
 BYTE   Ds2  v020
 BYTE   W06
 BYTE   Cn1  v127
 BYTE   W06
 BYTE   Dn1
 BYTE   N09  Ds2  v076
 BYTE   W12
 BYTE   Ds2  v020
 BYTE   W11
 BYTE   PEND 
// 053   ----------------------------------------
 BYTE   W01
 BYTE   N04  Cn1  v127
 BYTE   N09  Ds2  v076
 BYTE   W06
 BYTE   N04  Cn1  v127
 BYTE   W06
 BYTE   N09
 BYTE   N09  Ds2  v020
 BYTE   W12
 BYTE   Dn1  v127
 BYTE   N09  Ds2  v076
 BYTE   W12
 BYTE   Ds2  v020
 BYTE   W12
 BYTE   Cn1  v127
 BYTE   N09  Ds2  v076
 BYTE   W12
 BYTE   Ds2  v020
 BYTE   W06
 BYTE   Cn1  v127
 BYTE   W06
 BYTE   Dn1
 BYTE   N09  Ds2  v076
 BYTE   W12
 BYTE   Ds2  v020
 BYTE   W11
// 054   ----------------------------------------
 BYTE   PATT
  POIN2 Label_9_017C85F7
// 055   ----------------------------------------
 BYTE   W01
 BYTE   N04  Cn1  v127
 BYTE   N09  Ds2  v076
 BYTE   W06
 BYTE   N04  Cn1  v127
 BYTE   W06
 BYTE   N09
 BYTE   N09  Ds2  v020
 BYTE   W12
 BYTE   Dn1  v127
 BYTE   N09  Ds2  v076
 BYTE   W12
 BYTE   Ds2  v020
 BYTE   W12
 BYTE   Cn1  v127
 BYTE   N09  Ds2  v076
 BYTE   W12
 BYTE   Ds2  v020
 BYTE   W06
 BYTE   Cn1  v127
 BYTE   W06
 BYTE   Dn1
 BYTE   N09  Ds2  v076
 BYTE   W12
 BYTE   Dn1  v127
 BYTE   W11
// 056   ----------------------------------------
Label_9_017C8681:
 BYTE   W01
 BYTE   N09  Cn1  v127
 BYTE   N92  Cs2
 BYTE   W06
 BYTE   N04  Ds2  v020
 BYTE   W06
 BYTE   N09  Ds2  v076
 BYTE   W12
 BYTE   Cn1  v127
 BYTE   N04  Ds2  v020
 BYTE   W06
 BYTE   N04
 BYTE   W06
 BYTE   N09  Ds2  v076
 BYTE   W12
 BYTE   Cn1  v127
 BYTE   N04  Ds2  v020
 BYTE   W06
 BYTE   N04
 BYTE   W06
 BYTE   N09  Ds2  v076
 BYTE   W12
 BYTE   Cn1  v127
 BYTE   N04  Ds2  v020
 BYTE   W06
 BYTE   N04
 BYTE   W06
 BYTE   N09  Ds2  v076
 BYTE   W06
 BYTE   N04  Cn1  v127
 BYTE   W05
 BYTE   PEND 
// 057   ----------------------------------------
Label_9_017C86B9:
 BYTE   W01
 BYTE   N09  Cn1  v127
 BYTE   N04  Ds2  v076
 BYTE   W06
 BYTE   Ds2  v020
 BYTE   W06
 BYTE   N09  Ds2  v076
 BYTE   W12
 BYTE   Cn1  v127
 BYTE   N04  Ds2  v020
 BYTE   W06
 BYTE   N04
 BYTE   W06
 BYTE   N09  Ds2  v076
 BYTE   W12
 BYTE   Cn1  v127
 BYTE   N04  Ds2  v020
 BYTE   W06
 BYTE   N04
 BYTE   W06
 BYTE   N09  Ds2  v076
 BYTE   W12
 BYTE   Cn1  v127
 BYTE   N04  Ds2  v020
 BYTE   W06
 BYTE   N04
 BYTE   W06
 BYTE   N09  Ds2  v076
 BYTE   W06
 BYTE   N04  Cn1  v127
 BYTE   W05
 BYTE   PEND 
// 058   ----------------------------------------
 BYTE   PATT
  POIN2 Label_9_017C8681
// 059   ----------------------------------------
 BYTE   PATT
  POIN2 Label_9_017C86B9
// 060   ----------------------------------------
 BYTE   PATT
  POIN2 Label_9_017C8681
// 061   ----------------------------------------
 BYTE   PATT
  POIN2 Label_9_017C86B9
// 062   ----------------------------------------
 BYTE   PATT
  POIN2 Label_9_017C8681
// 063   ----------------------------------------
 BYTE   W01
 BYTE   N09  Cn1  v127
 BYTE   N04  Ds2  v076
 BYTE   W06
 BYTE   Ds2  v020
 BYTE   W06
 BYTE   N09  Ds2  v076
 BYTE   W12
 BYTE   Cn1  v127
 BYTE   N04  Ds2  v020
 BYTE   W06
 BYTE   N04
 BYTE   W06
 BYTE   N09  Ds2  v076
 BYTE   W12
 BYTE   Cn1  v127
 BYTE   N04  Ds2  v020
 BYTE   W06
 BYTE   N04
 BYTE   W06
 BYTE   N09  Ds2  v076
 BYTE   W12
 BYTE   Cn1  v127
 BYTE   N04  Dn1
 BYTE   W06
 BYTE   N04
 BYTE   W06
 BYTE   N04
 BYTE   W06
 BYTE   N04
 BYTE   W05
// 064   ----------------------------------------
 BYTE   PATT
  POIN2 Label_9_017C8462
// 065   ----------------------------------------
 BYTE   PATT
  POIN2 Label_9_017C848F
// 066   ----------------------------------------
 BYTE   PATT
  POIN2 Label_9_017C84BB
// 067   ----------------------------------------
 BYTE   PATT
  POIN2 Label_9_017C84EC
// 068   ----------------------------------------
 BYTE   PATT
  POIN2 Label_9_017C8462
// 069   ----------------------------------------
 BYTE   PATT
  POIN2 Label_9_017C848F
// 070   ----------------------------------------
 BYTE   PATT
  POIN2 Label_9_017C84BB
// 071   ----------------------------------------
 BYTE   PATT
  POIN2 Label_9_017C8523
// 072   ----------------------------------------
Label_9_017C8764:
 BYTE   W01
 BYTE   N09  Cn1  v127
 BYTE   N92  Cs2
 BYTE   W24
 BYTE   N22  Ds2  v076
 BYTE   W12
 BYTE   N09  Cn1  v127
 BYTE   W12
 BYTE   N22  Dn1
 BYTE   N22  Ds2  v076
 BYTE   W24
 BYTE   N22
 BYTE   W23
 BYTE   PEND 
// 073   ----------------------------------------
Label_9_017C877C:
 BYTE   W01
 BYTE   N09  Cn1  v127
 BYTE   N22  Ds2  v076
 BYTE   W12
 BYTE   N09  Cn1  v120
 BYTE   W12
 BYTE   N22  Ds2  v076
 BYTE   W12
 BYTE   N09  Cn1  v127
 BYTE   W12
 BYTE   N22  Dn1
 BYTE   N22  Ds2  v076
 BYTE   W24
 BYTE   N22
 BYTE   W23
 BYTE   PEND 
// 074   ----------------------------------------
Label_9_017C8799:
 BYTE   W01
 BYTE   N09  Cn1  v127
 BYTE   N22  Ds2  v076
 BYTE   W12
 BYTE   N09  Cn1  v120
 BYTE   W12
 BYTE   N22  Ds2  v076
 BYTE   W12
 BYTE   N09  Cn1  v127
 BYTE   W12
 BYTE   N22  Dn1
 BYTE   N22  Ds2  v076
 BYTE   W12
 BYTE   N09  Cn1  v127
 BYTE   W12
 BYTE   N11  Dn1
 BYTE   N22  Ds2  v076
 BYTE   W12
 BYTE   N11  Dn1  v127
 BYTE   W11
 BYTE   PEND 
// 075   ----------------------------------------
 BYTE   W01
 BYTE   N09  Cn1
 BYTE   N22  Ds2  v076
 BYTE   W12
 BYTE   N09  Cn1  v120
 BYTE   W12
 BYTE   N22  Ds2  v076
 BYTE   W12
 BYTE   N09  Cn1  v127
 BYTE   W12
 BYTE   N22  Dn1
 BYTE   N22  Ds2  v076
 BYTE   W06
 BYTE   N09  Cn1  v127
 BYTE   W12
 BYTE   N04
 BYTE   W06
 BYTE   Dn1  v052
 BYTE   N22  Ds2  v076
 BYTE   W06
 BYTE   N04  Dn1
 BYTE   W06
 BYTE   Dn1  v104
 BYTE   W06
 BYTE   Dn1  v127
 BYTE   W05
// 076   ----------------------------------------
 BYTE   PATT
  POIN2 Label_9_017C8764
// 077   ----------------------------------------
 BYTE   PATT
  POIN2 Label_9_017C877C
// 078   ----------------------------------------
 BYTE   PATT
  POIN2 Label_9_017C8799
// 079   ----------------------------------------
 BYTE   W01
 BYTE   N09  Cn1  v127
 BYTE   N22  Ds2  v076
 BYTE   W12
 BYTE   N09  Cn1  v120
 BYTE   W12
 BYTE   N22  Ds2  v076
 BYTE   W12
 BYTE   N09  Cn1  v127
 BYTE   W12
 BYTE   N22  Dn1
 BYTE   N22  Ds2  v076
 BYTE   W06
 BYTE   N09  Cn1  v127
 BYTE   W12
 BYTE   N04
 BYTE   W06
 BYTE   N11  Dn1
 BYTE   N22  Ds2  v076
 BYTE   W12
 BYTE   N11  Dn1  v127
 BYTE   W11
// 080   ----------------------------------------
Label_9_017C8829:
 BYTE   W01
 BYTE   N09  Dn1  v127
 BYTE   N92  Cs2
 BYTE   W12
 BYTE   N09  Cn1
 BYTE   W12
 BYTE   Dn1
 BYTE   N09  Ds2  v076
 BYTE   W12
 BYTE   Cn1  v127
 BYTE   W12
 BYTE   Dn1
 BYTE   N09  Ds2  v076
 BYTE   W12
 BYTE   Cn1  v127
 BYTE   W12
 BYTE   Dn1
 BYTE   N09  Ds2  v076
 BYTE   W06
 BYTE   Cn1  v127
 BYTE   W17
 BYTE   PEND 
// 081   ----------------------------------------
 BYTE   W01
 BYTE   Dn1
 BYTE   N09  Ds2  v076
 BYTE   W12
 BYTE   Cn1  v127
 BYTE   W12
 BYTE   Dn1
 BYTE   N09  Ds2  v076
 BYTE   W12
 BYTE   Cn1  v127
 BYTE   W12
 BYTE   Dn1
 BYTE   N09  Ds2  v076
 BYTE   W12
 BYTE   Cn1  v127
 BYTE   W12
 BYTE   Dn1
 BYTE   N09  Ds2  v076
 BYTE   W06
 BYTE   Cn1  v127
 BYTE   W17
// 082   ----------------------------------------
 BYTE   PATT
  POIN2 Label_9_017C8829
// 083   ----------------------------------------
 BYTE   W01
 BYTE   N09  Dn1  v127
 BYTE   N09  Ds2  v076
 BYTE   W12
 BYTE   Cn1  v127
 BYTE   W12
 BYTE   Dn1
 BYTE   N09  Ds2  v076
 BYTE   W12
 BYTE   Cn1  v127
 BYTE   W12
 BYTE   Dn1
 BYTE   N09  Ds2  v076
 BYTE   W12
 BYTE   Cn1  v127
 BYTE   W12
 BYTE   Dn1
 BYTE   N09  Ds2  v076
 BYTE   W06
 BYTE   N04  Cn1  v127
 BYTE   W06
 BYTE   N04
 BYTE   W06
 BYTE   N04
 BYTE   W05
// 084   ----------------------------------------
Label_9_017C889A:
 BYTE   W01
 BYTE   N09  Dn1  v127
 BYTE   N44  Cs2
 BYTE   W12
 BYTE   N09  Cn1
 BYTE   W12
 BYTE   Dn1
 BYTE   W06
 BYTE   Cn1
 BYTE   W12
 BYTE   N09
 BYTE   W06
 BYTE   Dn1
 BYTE   N44  Cs2
 BYTE   W12
 BYTE   N09  Cn1
 BYTE   W12
 BYTE   Dn1
 BYTE   W06
 BYTE   Cn1
 BYTE   W12
 BYTE   N09
 BYTE   W05
 BYTE   PEND 
// 085   ----------------------------------------
 BYTE   PATT
  POIN2 Label_9_017C889A
// 086   ----------------------------------------
 BYTE   PATT
  POIN2 Label_9_017C889A
// 087   ----------------------------------------
 BYTE   W01
 BYTE   N09  Dn1  v127
 BYTE   N44  Cs2
 BYTE   W12
 BYTE   N09  Cn1
 BYTE   W12
 BYTE   Dn1
 BYTE   W06
 BYTE   Cn1
 BYTE   W12
 BYTE   N09
 BYTE   W06
 BYTE   Dn1
 BYTE   N44  Cs2
 BYTE   W12
 BYTE   N09  Cn1
 BYTE   W12
 BYTE   N04  Dn1
 BYTE   W06
 BYTE   N04
 BYTE   W06
 BYTE   N04
 BYTE   W06
 BYTE   N09
 BYTE   W05
// 088   ----------------------------------------
 BYTE   W01
 BYTE   N22  Cn1
 BYTE   N22  Cs2
 BYTE   W24
 BYTE   Cn1
 BYTE   W24
 BYTE   N22
 BYTE   W24
 BYTE   N22
 BYTE   W23
// 089   ----------------------------------------
Label_9_017C88EE:
 BYTE   W01
 BYTE   N22  Cn1  v127
 BYTE   W24
 BYTE   N22
 BYTE   W24
 BYTE   N22
 BYTE   W24
 BYTE   N22
 BYTE   W23
 BYTE   PEND 
// 090   ----------------------------------------
 BYTE   PATT
  POIN2 Label_9_017C88EE
// 091   ----------------------------------------
 BYTE   W01
 BYTE   N22  Cn1  v127
 BYTE   N92  Cs2
 BYTE   W24
 BYTE   N22  Cn1
 BYTE   W24
 BYTE   N22
 BYTE   N22  Ds2  v076
 BYTE   W24
 BYTE   N04  Cn1  v127
 BYTE   N04  Dn1
 BYTE   W06
 BYTE   N04
 BYTE   W06
 BYTE   N04
 BYTE   W06
 BYTE   N04
 BYTE   W05
// 092   ----------------------------------------
 BYTE   PATT
  POIN2 Label_9_017C8681
// 093   ----------------------------------------
 BYTE   PATT
  POIN2 Label_9_017C86B9
// 094   ----------------------------------------
 BYTE   PATT
  POIN2 Label_9_017C8681
// 095   ----------------------------------------
 BYTE   W01
 BYTE   N09  Dn1  v127
 BYTE   N44  Cs2
 BYTE   W12
 BYTE   N09  Ds2  v076
 BYTE   W06
 BYTE   Cn1  v127
 BYTE   W18
 BYTE   Dn1
 BYTE   N09  Ds2  v076
 BYTE   W12
 BYTE   Dn1  v127
 BYTE   N44  Cs2
 BYTE   W12
 BYTE   N09  Cn1
 BYTE   N09  Ds2  v076
 BYTE   W12
 BYTE   N04  Dn1  v127
 BYTE   W06
 BYTE   N04
 BYTE   W06
 BYTE   N04
 BYTE   W06
 BYTE   N04
 BYTE   W05
// 096   ----------------------------------------
 BYTE   W01
 BYTE   N09  Cn1
 BYTE   N92  Cs2
 BYTE   W92
 BYTE   W03
// 097   ----------------------------------------
 BYTE   W96
// 098   ----------------------------------------
 BYTE   W96
// 099   ----------------------------------------
 BYTE   W01
 BYTE   N04  Dn1
 BYTE   N44  Cs2
 BYTE   W06
 BYTE   N04  Dn1
 BYTE   W06
 BYTE   N04
 BYTE   W06
 BYTE   N04
 BYTE   W06
 BYTE   Cn1
 BYTE   W06
 BYTE   N04
 BYTE   W06
 BYTE   Dn1
 BYTE   W12
 BYTE   N04
 BYTE   N44  Cs2
 BYTE   W06
 BYTE   N04  Dn1
 BYTE   W06
 BYTE   Cn1
 BYTE   W12
 BYTE   Dn1
 BYTE   W06
 BYTE   N04
 BYTE   W06
 BYTE   N04
 BYTE   W06
 BYTE   N04
 BYTE   W05
// 100   ----------------------------------------
 BYTE   PATT
  POIN2 Label_9_017C889A
// 101   ----------------------------------------
 BYTE   PATT
  POIN2 Label_9_017C889A
// 102   ----------------------------------------
 BYTE   PATT
  POIN2 Label_9_017C889A
// 103   ----------------------------------------
 BYTE   W01
 BYTE   N09  Dn1  v127
 BYTE   N44  Cs2
 BYTE   W12
 BYTE   N09  Cn1
 BYTE   W12
 BYTE   Dn1
 BYTE   W06
 BYTE   Cn1
 BYTE   W12
 BYTE   N09
 BYTE   W06
 BYTE   Dn1
 BYTE   N44  Cs2
 BYTE   W12
 BYTE   N09  Cn1
 BYTE   W12
 BYTE   N04  Dn1
 BYTE   W06
 BYTE   N04
 BYTE   W06
 BYTE   N04
 BYTE   W06
 BYTE   N04
 BYTE   W04
 BYTE   GoTo
  POIN2 Label_9_017C8312
 BYTE   FINE

//**************** Track 11 (Midi-Chn.10) ****************//

song0B_011:
// 000   ----------------------------------------
 BYTE   KEYSH   song0B_key+0
Label_10_012C5DAE:
 BYTE   VOICE   46
 BYTE   VOL   17*song0B_mvl/mxv
 BYTE   PAN   c_v+0
 BYTE   BEND   c_v-1
 BYTE   W01
 BYTE   N72  Cn4  v127
 BYTE   N72  Fn4
 BYTE   N72  Gs4
 BYTE   W84
 BYTE   N84  Cs4
 BYTE   N84  Fn4
 BYTE   N84  Gs4
 BYTE   W11
// 001   ----------------------------------------
Label_10_012C5DC6:
 BYTE   W84
 BYTE   W01
 BYTE   TIE  Ds4  v127
 BYTE   TIE  Gn4
 BYTE   TIE  As4
 BYTE   W11
 BYTE   PEND 
// 002   ----------------------------------------
 BYTE   W96
// 003   ----------------------------------------
 BYTE   W92
 BYTE   W03
 BYTE   EOT
 BYTE   Ds4  v079
 BYTE   As4
 BYTE   W01
// 004   ----------------------------------------
Label_10_012C5DD9:
 BYTE   W01
 BYTE   N72  Cn4  v127
 BYTE   N72  Fn4
 BYTE   N72  Gs4
 BYTE   W84
 BYTE   N84  Cs4
 BYTE   N84  Fn4
 BYTE   N84  Gs4
 BYTE   W11
 BYTE   PEND 
// 005   ----------------------------------------
Label_10_012C5DEA:
 BYTE   W84
 BYTE   W01
 BYTE   N84  Ds4  v127
 BYTE   N84  Gn4
 BYTE   N84  As4
 BYTE   W11
 BYTE   PEND 
// 006   ----------------------------------------
 BYTE   W84
 BYTE   W01
 BYTE   TIE  Gn4
 BYTE   TIE  As4
 BYTE   TIE  Ds5
 BYTE   W11
// 007   ----------------------------------------
 BYTE   W92
 BYTE   W03
 BYTE   EOT
 BYTE   Gn4  v082
 BYTE   Ds5
 BYTE   W01
// 008   ----------------------------------------
 BYTE   PATT
  POIN2 Label_10_012C5DD9
// 009   ----------------------------------------
 BYTE   PATT
  POIN2 Label_10_012C5DC6
// 010   ----------------------------------------
 BYTE   W96
// 011   ----------------------------------------
 BYTE   W92
 BYTE   W03
 BYTE   EOT
 BYTE   Ds4  v079
 BYTE   As4
 BYTE   W01
// 012   ----------------------------------------
 BYTE   PATT
  POIN2 Label_10_012C5DD9
// 013   ----------------------------------------
 BYTE   PATT
  POIN2 Label_10_012C5DEA
// 014   ----------------------------------------
 BYTE   W84
 BYTE   W01
 BYTE   TIE  En4  v127
 BYTE   TIE  Gn4
 BYTE   TIE  Cn5
 BYTE   W11
// 015   ----------------------------------------
 BYTE   W92
 BYTE   W03
 BYTE   EOT
 BYTE   En4  v079
 BYTE   Cn5
 BYTE   W01
// 016   ----------------------------------------
 BYTE   W96
// 017   ----------------------------------------
 BYTE   W96
// 018   ----------------------------------------
 BYTE   W96
// 019   ----------------------------------------
 BYTE   W96
// 020   ----------------------------------------
 BYTE   W96
// 021   ----------------------------------------
 BYTE   W96
// 022   ----------------------------------------
 BYTE   W96
// 023   ----------------------------------------
 BYTE   W96
// 024   ----------------------------------------
 BYTE   W96
// 025   ----------------------------------------
 BYTE   W96
// 026   ----------------------------------------
 BYTE   W96
// 027   ----------------------------------------
 BYTE   W96
// 028   ----------------------------------------
 BYTE   W96
// 029   ----------------------------------------
 BYTE   W96
// 030   ----------------------------------------
 BYTE   W96
// 031   ----------------------------------------
 BYTE   W96
// 032   ----------------------------------------
 BYTE   W96
// 033   ----------------------------------------
 BYTE   W96
// 034   ----------------------------------------
 BYTE   W96
// 035   ----------------------------------------
 BYTE   W96
// 036   ----------------------------------------
 BYTE   W96
// 037   ----------------------------------------
 BYTE   W96
// 038   ----------------------------------------
 BYTE   W96
// 039   ----------------------------------------
 BYTE   W96
// 040   ----------------------------------------
 BYTE   W96
// 041   ----------------------------------------
 BYTE   W96
// 042   ----------------------------------------
 BYTE   W96
// 043   ----------------------------------------
 BYTE   W96
// 044   ----------------------------------------
 BYTE   W96
// 045   ----------------------------------------
 BYTE   W96
// 046   ----------------------------------------
 BYTE   W96
// 047   ----------------------------------------
 BYTE   W96
// 048   ----------------------------------------
 BYTE   W96
// 049   ----------------------------------------
 BYTE   W96
// 050   ----------------------------------------
 BYTE   W96
// 051   ----------------------------------------
 BYTE   W96
// 052   ----------------------------------------
 BYTE   W96
// 053   ----------------------------------------
 BYTE   W96
// 054   ----------------------------------------
 BYTE   W96
// 055   ----------------------------------------
 BYTE   W96
// 056   ----------------------------------------
 BYTE   W96
// 057   ----------------------------------------
 BYTE   W96
// 058   ----------------------------------------
 BYTE   W96
// 059   ----------------------------------------
 BYTE   W96
// 060   ----------------------------------------
 BYTE   W96
// 061   ----------------------------------------
 BYTE   W96
// 062   ----------------------------------------
 BYTE   W96
// 063   ----------------------------------------
Label_10_012C5E61:
 BYTE   W48
 BYTE   W01
 BYTE   BEND   c_v+0
 BYTE   W12
 BYTE   Ds3
 BYTE   W06
 BYTE   Dn3
 BYTE   W04
 BYTE   Cs3
 BYTE   W02
 BYTE   Cn3
 BYTE   W02
 BYTE   Bn2
 BYTE   W02
 BYTE   As2
 BYTE   W01
 BYTE   An2
 BYTE   W01
 BYTE   Gs2
 BYTE   W01
 BYTE   Gn2
 BYTE   W01
 BYTE   Fs2
 BYTE   W01
 BYTE   Fn2
 BYTE   W01
 BYTE   Ds2
 BYTE   W01
 BYTE   Dn2
 BYTE   W01
 BYTE   Cn2
 BYTE   W01
 BYTE   As1
 BYTE   W01
 BYTE   Gs1
 BYTE   W01
 BYTE   Fn1
 BYTE   W01
 BYTE   Dn1
 BYTE   W01
 BYTE   Bn0
 BYTE   W01
 BYTE   Gn0
 BYTE   W01
 BYTE   Ds0
 BYTE   W01
 BYTE   AsM1
 BYTE   W01
 BYTE   FnM1
 BYTE   W01
 BYTE   CnM1
 BYTE   W01
 BYTE   PEND 
// 064   ----------------------------------------
Label_10_012C5E97:
 BYTE   BEND   c_v-59
 BYTE   W01
 BYTE   En3
 BYTE   W92
 BYTE   W03
 BYTE   PEND 
// 065   ----------------------------------------
 BYTE   W96
// 066   ----------------------------------------
 BYTE   W96
// 067   ----------------------------------------
 BYTE   W96
// 068   ----------------------------------------
 BYTE   W96
// 069   ----------------------------------------
 BYTE   W96
// 070   ----------------------------------------
 BYTE   W96
// 071   ----------------------------------------
 BYTE   PATT
  POIN2 Label_10_012C5E61
// 072   ----------------------------------------
 BYTE   PATT
  POIN2 Label_10_012C5E97
// 073   ----------------------------------------
 BYTE   W96
// 074   ----------------------------------------
 BYTE   W96
// 075   ----------------------------------------
 BYTE   W96
// 076   ----------------------------------------
 BYTE   W96
// 077   ----------------------------------------
 BYTE   W96
// 078   ----------------------------------------
 BYTE   W96
// 079   ----------------------------------------
 BYTE   W96
// 080   ----------------------------------------
 BYTE   W96
// 081   ----------------------------------------
 BYTE   W96
// 082   ----------------------------------------
 BYTE   W96
// 083   ----------------------------------------
 BYTE   W96
// 084   ----------------------------------------
 BYTE   W96
// 085   ----------------------------------------
 BYTE   W96
// 086   ----------------------------------------
 BYTE   W96
// 087   ----------------------------------------
 BYTE   W96
// 088   ----------------------------------------
 BYTE   W96
// 089   ----------------------------------------
 BYTE   W96
// 090   ----------------------------------------
 BYTE   W96
// 091   ----------------------------------------
 BYTE   W96
// 092   ----------------------------------------
 BYTE   W96
// 093   ----------------------------------------
 BYTE   W96
// 094   ----------------------------------------
 BYTE   W96
// 095   ----------------------------------------
 BYTE   W96
// 096   ----------------------------------------
 BYTE   W96
// 097   ----------------------------------------
 BYTE   W96
// 098   ----------------------------------------
 BYTE   W96
// 099   ----------------------------------------
 BYTE   W96
// 100   ----------------------------------------
 BYTE   W96
// 101   ----------------------------------------
 BYTE   W96
// 102   ----------------------------------------
 BYTE   W96
// 103   ----------------------------------------
 BYTE   W92
 BYTE   W03
 BYTE   GoTo
  POIN2 Label_10_012C5DAE
 BYTE   FINE

//**************** Track 12 (Midi-Chn.11) ****************//

song0B_012:
// 000   ----------------------------------------
 BYTE   KEYSH   song0B_key+0
Label_11_017C89B6:
 BYTE   VOICE   38
 BYTE   VOL   32*song0B_mvl/mxv
 BYTE   PAN   c_v+0
 BYTE   BEND   c_v-1
 BYTE   W01
 BYTE   N11  Fn0  v127
 BYTE   W12
 BYTE   N09
 BYTE   W12
 BYTE   N11
 BYTE   W12
 BYTE   N11
 BYTE   W12
 BYTE   N09
 BYTE   W12
 BYTE   N11
 BYTE   W12
 BYTE   N09
 BYTE   W12
 BYTE   N11
 BYTE   W11
// 001   ----------------------------------------
Label_11_017C89D1:
 BYTE   W01
 BYTE   N11  Fn0  v127
 BYTE   W12
 BYTE   N09
 BYTE   W12
 BYTE   N11
 BYTE   W12
 BYTE   N11
 BYTE   W12
 BYTE   N09
 BYTE   W12
 BYTE   N11
 BYTE   W12
 BYTE   N09
 BYTE   W12
 BYTE   N11
 BYTE   W11
 BYTE   PEND 
// 002   ----------------------------------------
 BYTE   PATT
  POIN2 Label_11_017C89D1
// 003   ----------------------------------------
 BYTE   W01
 BYTE   N11  Fn0  v127
 BYTE   W12
 BYTE   N09
 BYTE   W12
 BYTE   N11
 BYTE   W12
 BYTE   N11
 BYTE   W12
 BYTE   N09
 BYTE   W12
 BYTE   N11  Fn1
 BYTE   W12
 BYTE   N09  Fn0
 BYTE   W12
 BYTE   N11
 BYTE   W11
// 004   ----------------------------------------
Label_11_017C89FF:
 BYTE   W01
 BYTE   N11  Fn0  v127
 BYTE   W12
 BYTE   N09
 BYTE   W12
 BYTE   N11
 BYTE   W12
 BYTE   N11
 BYTE   W12
 BYTE   N09  Fn1
 BYTE   W12
 BYTE   N11  Fn0
 BYTE   W12
 BYTE   N09
 BYTE   W12
 BYTE   N11
 BYTE   W11
 BYTE   PEND 
// 005   ----------------------------------------
Label_11_017C8A15:
 BYTE   W01
 BYTE   N11  Fn0  v127
 BYTE   W12
 BYTE   N09
 BYTE   W12
 BYTE   N11  Fn1
 BYTE   W12
 BYTE   Fn0
 BYTE   W12
 BYTE   N09
 BYTE   W12
 BYTE   N11  Fn1
 BYTE   W12
 BYTE   N09  Fn0
 BYTE   W12
 BYTE   N11
 BYTE   W11
 BYTE   PEND 
// 006   ----------------------------------------
 BYTE   PATT
  POIN2 Label_11_017C89FF
// 007   ----------------------------------------
Label_11_017C8A31:
 BYTE   W01
 BYTE   N11  Fn1  v127
 BYTE   W12
 BYTE   N09  Fn0
 BYTE   W12
 BYTE   N11
 BYTE   W12
 BYTE   Fn1
 BYTE   W12
 BYTE   N09  Fn0
 BYTE   W12
 BYTE   N11
 BYTE   W12
 BYTE   N09  Fn1
 BYTE   W12
 BYTE   N11  Fn0
 BYTE   W11
 BYTE   PEND 
// 008   ----------------------------------------
 BYTE   PATT
  POIN2 Label_11_017C8A15
// 009   ----------------------------------------
 BYTE   PATT
  POIN2 Label_11_017C8A31
// 010   ----------------------------------------
 BYTE   PATT
  POIN2 Label_11_017C89FF
// 011   ----------------------------------------
 BYTE   W01
 BYTE   N11  Fn1  v127
 BYTE   W12
 BYTE   N09  Fn0
 BYTE   W12
 BYTE   N11
 BYTE   W12
 BYTE   N11
 BYTE   W12
 BYTE   N09
 BYTE   W12
 BYTE   N11  Fn1
 BYTE   W12
 BYTE   N09  Fn0
 BYTE   W12
 BYTE   N11
 BYTE   W11
// 012   ----------------------------------------
 BYTE   PATT
  POIN2 Label_11_017C8A31
// 013   ----------------------------------------
 BYTE   PATT
  POIN2 Label_11_017C89FF
// 014   ----------------------------------------
 BYTE   W01
 BYTE   N11  Fn0  v127
 BYTE   W12
 BYTE   N09
 BYTE   W12
 BYTE   N11
 BYTE   W12
 BYTE   N11
 BYTE   W12
 BYTE   N09  Fn1
 BYTE   W12
 BYTE   N11  Fn0
 BYTE   W12
 BYTE   N09
 BYTE   W12
 BYTE   N11  Fn1
 BYTE   W11
// 015   ----------------------------------------
 BYTE   W01
 BYTE   N11
 BYTE   W12
 BYTE   N09  Fn0
 BYTE   W12
 BYTE   N11
 BYTE   W12
 BYTE   Fn1
 BYTE   W12
 BYTE   N09  Fn0
 BYTE   W12
 BYTE   N11
 BYTE   W12
 BYTE   N09  Fn1
 BYTE   W12
 BYTE   N11
 BYTE   W11
// 016   ----------------------------------------
Label_11_017C8AA2:
 BYTE   W01
 BYTE   N11  Ds0  v127
 BYTE   W12
 BYTE   N11
 BYTE   W12
 BYTE   N11
 BYTE   W12
 BYTE   N11
 BYTE   W12
 BYTE   Ds1
 BYTE   W12
 BYTE   Ds0
 BYTE   W12
 BYTE   As0
 BYTE   W12
 BYTE   Ds1
 BYTE   W11
 BYTE   PEND 
// 017   ----------------------------------------
Label_11_017C8AB6:
 BYTE   W01
 BYTE   N11  Ds0  v127
 BYTE   W12
 BYTE   N11
 BYTE   W12
 BYTE   N11
 BYTE   W12
 BYTE   N11
 BYTE   W12
 BYTE   N04  Ds1
 BYTE   W06
 BYTE   N04
 BYTE   W06
 BYTE   N11  Ds0
 BYTE   W12
 BYTE   N04  As0
 BYTE   W06
 BYTE   N04
 BYTE   W06
 BYTE   N11  Ds1
 BYTE   W11
 BYTE   PEND 
// 018   ----------------------------------------
 BYTE   PATT
  POIN2 Label_11_017C8AA2
// 019   ----------------------------------------
Label_11_017C8AD7:
 BYTE   W01
 BYTE   N11  Gs0  v127
 BYTE   W12
 BYTE   N11
 BYTE   W12
 BYTE   N11
 BYTE   W12
 BYTE   N11
 BYTE   W12
 BYTE   N04  Gs1
 BYTE   W06
 BYTE   N04
 BYTE   W06
 BYTE   N11  Gs0
 BYTE   W12
 BYTE   N04  Ds1
 BYTE   W06
 BYTE   N04
 BYTE   W06
 BYTE   N11  Gs1
 BYTE   W11
 BYTE   PEND 
// 020   ----------------------------------------
 BYTE   PATT
  POIN2 Label_11_017C8AA2
// 021   ----------------------------------------
 BYTE   PATT
  POIN2 Label_11_017C8AB6
// 022   ----------------------------------------
 BYTE   PATT
  POIN2 Label_11_017C8AA2
// 023   ----------------------------------------
 BYTE   PATT
  POIN2 Label_11_017C8AD7
// 024   ----------------------------------------
Label_11_017C8B07:
 BYTE   W01
 BYTE   N04  As0  v127
 BYTE   W06
 BYTE   N01
 BYTE   W06
 BYTE   N11
 BYTE   W12
 BYTE   N04  As1
 BYTE   W06
 BYTE   N11  As0
 BYTE   W12
 BYTE   Gs1
 BYTE   W12
 BYTE   N04  As1
 BYTE   W06
 BYTE   N11  As0
 BYTE   W12
 BYTE   N04  As1
 BYTE   W06
 BYTE   N01
 BYTE   W06
 BYTE   N11  As0
 BYTE   W11
 BYTE   PEND 
// 025   ----------------------------------------
 BYTE   PATT
  POIN2 Label_11_017C8B07
// 026   ----------------------------------------
 BYTE   PATT
  POIN2 Label_11_017C8B07
// 027   ----------------------------------------
Label_11_017C8B31:
 BYTE   W01
 BYTE   N16  Ds1  v127
 BYTE   W18
 BYTE   Cs1
 BYTE   W18
 BYTE   N11  Cn1
 BYTE   W12
 BYTE   N16  Gn0
 BYTE   W18
 BYTE   Gs0
 BYTE   W18
 BYTE   N11  An0
 BYTE   W11
 BYTE   PEND 
// 028   ----------------------------------------
 BYTE   PATT
  POIN2 Label_11_017C8B07
// 029   ----------------------------------------
Label_11_017C8B49:
 BYTE   W01
 BYTE   N04  Ds1  v127
 BYTE   W06
 BYTE   N01
 BYTE   W06
 BYTE   N11
 BYTE   W12
 BYTE   N04  Ds2
 BYTE   W06
 BYTE   N11  Ds1
 BYTE   W12
 BYTE   N11
 BYTE   W12
 BYTE   N04  Ds2
 BYTE   W06
 BYTE   N11  As1
 BYTE   W12
 BYTE   N04  Ds2
 BYTE   W06
 BYTE   Ds1
 BYTE   W06
 BYTE   N11  Ds2
 BYTE   W11
 BYTE   PEND 
// 030   ----------------------------------------
 BYTE   PATT
  POIN2 Label_11_017C8B07
// 031   ----------------------------------------
Label_11_017C8B6E:
 BYTE   W01
 BYTE   N11  Gs0  v127
 BYTE   W12
 BYTE   N04  Gs1
 BYTE   W06
 BYTE   N04
 BYTE   W06
 BYTE   Gs0
 BYTE   W06
 BYTE   N04
 BYTE   W06
 BYTE   N11
 BYTE   W12
 BYTE   N11
 BYTE   W12
 BYTE   N11
 BYTE   W12
 BYTE   N04  Gs1
 BYTE   W06
 BYTE   N04
 BYTE   W06
 BYTE   N11  Gs0
 BYTE   W11
 BYTE   PEND 
// 032   ----------------------------------------
 BYTE   PATT
  POIN2 Label_11_017C8AA2
// 033   ----------------------------------------
 BYTE   PATT
  POIN2 Label_11_017C8AB6
// 034   ----------------------------------------
 BYTE   PATT
  POIN2 Label_11_017C8AA2
// 035   ----------------------------------------
 BYTE   PATT
  POIN2 Label_11_017C8AD7
// 036   ----------------------------------------
 BYTE   PATT
  POIN2 Label_11_017C8AA2
// 037   ----------------------------------------
 BYTE   PATT
  POIN2 Label_11_017C8AB6
// 038   ----------------------------------------
 BYTE   PATT
  POIN2 Label_11_017C8AA2
// 039   ----------------------------------------
 BYTE   PATT
  POIN2 Label_11_017C8AD7
// 040   ----------------------------------------
 BYTE   PATT
  POIN2 Label_11_017C8B07
// 041   ----------------------------------------
 BYTE   PATT
  POIN2 Label_11_017C8B07
// 042   ----------------------------------------
 BYTE   PATT
  POIN2 Label_11_017C8B07
// 043   ----------------------------------------
 BYTE   PATT
  POIN2 Label_11_017C8B31
// 044   ----------------------------------------
 BYTE   PATT
  POIN2 Label_11_017C8B07
// 045   ----------------------------------------
 BYTE   PATT
  POIN2 Label_11_017C8B49
// 046   ----------------------------------------
 BYTE   PATT
  POIN2 Label_11_017C8B07
// 047   ----------------------------------------
 BYTE   PATT
  POIN2 Label_11_017C8B6E
// 048   ----------------------------------------
Label_11_017C8BDB:
 BYTE   W01
 BYTE   N11  Gn0  v127
 BYTE   W12
 BYTE   N01
 BYTE   W06
 BYTE   N11  Fn0
 BYTE   W12
 BYTE   N01
 BYTE   W06
 BYTE   N11  Gn0
 BYTE   W12
 BYTE   N01
 BYTE   W06
 BYTE   N11  Fn0
 BYTE   W12
 BYTE   N01
 BYTE   W06
 BYTE   N11  Gn0
 BYTE   W12
 BYTE   Fn0
 BYTE   W11
 BYTE   PEND 
// 049   ----------------------------------------
Label_11_017C8BF7:
 BYTE   W01
 BYTE   N11  Gn0  v127
 BYTE   W12
 BYTE   N01  Gn1
 BYTE   W06
 BYTE   N11  Fn0
 BYTE   W12
 BYTE   N01
 BYTE   W06
 BYTE   N11  Gn0
 BYTE   W12
 BYTE   N01
 BYTE   W06
 BYTE   N11  Fn0
 BYTE   W12
 BYTE   N01  Fn1
 BYTE   W06
 BYTE   N04  Gn0
 BYTE   W06
 BYTE   N01
 BYTE   W06
 BYTE   N11  Fn0
 BYTE   W11
 BYTE   PEND 
// 050   ----------------------------------------
 BYTE   PATT
  POIN2 Label_11_017C8BDB
// 051   ----------------------------------------
 BYTE   PATT
  POIN2 Label_11_017C8BF7
// 052   ----------------------------------------
 BYTE   PATT
  POIN2 Label_11_017C8BDB
// 053   ----------------------------------------
 BYTE   PATT
  POIN2 Label_11_017C8BF7
// 054   ----------------------------------------
 BYTE   PATT
  POIN2 Label_11_017C8BDB
// 055   ----------------------------------------
 BYTE   PATT
  POIN2 Label_11_017C8BF7
// 056   ----------------------------------------
 BYTE   PATT
  POIN2 Label_11_017C8BDB
// 057   ----------------------------------------
 BYTE   PATT
  POIN2 Label_11_017C8BF7
// 058   ----------------------------------------
 BYTE   PATT
  POIN2 Label_11_017C8BDB
// 059   ----------------------------------------
 BYTE   PATT
  POIN2 Label_11_017C8BF7
// 060   ----------------------------------------
 BYTE   PATT
  POIN2 Label_11_017C8BDB
// 061   ----------------------------------------
 BYTE   PATT
  POIN2 Label_11_017C8BF7
// 062   ----------------------------------------
 BYTE   PATT
  POIN2 Label_11_017C8BDB
// 063   ----------------------------------------
 BYTE   PATT
  POIN2 Label_11_017C8BF7
// 064   ----------------------------------------
Label_11_017C8C5E:
 BYTE   W01
 BYTE   N11  As0  v127
 BYTE   W12
 BYTE   N01
 BYTE   W06
 BYTE   N11  Gs0
 BYTE   W12
 BYTE   N01
 BYTE   W06
 BYTE   N11  As0
 BYTE   W12
 BYTE   N01
 BYTE   W06
 BYTE   N11  Gs0
 BYTE   W12
 BYTE   N01
 BYTE   W06
 BYTE   N11  As0
 BYTE   W12
 BYTE   Gs0
 BYTE   W11
 BYTE   PEND 
// 065   ----------------------------------------
Label_11_017C8C7A:
 BYTE   W01
 BYTE   N11  As0  v127
 BYTE   W12
 BYTE   N01  As1
 BYTE   W06
 BYTE   N11  Gs0
 BYTE   W12
 BYTE   N01
 BYTE   W06
 BYTE   N11  As0
 BYTE   W12
 BYTE   N01
 BYTE   W06
 BYTE   N11  Gs0
 BYTE   W12
 BYTE   N01  Gs1
 BYTE   W06
 BYTE   N04  As0
 BYTE   W06
 BYTE   N01
 BYTE   W06
 BYTE   N11  Gs0
 BYTE   W11
 BYTE   PEND 
// 066   ----------------------------------------
 BYTE   PATT
  POIN2 Label_11_017C8C5E
// 067   ----------------------------------------
 BYTE   PATT
  POIN2 Label_11_017C8C7A
// 068   ----------------------------------------
 BYTE   PATT
  POIN2 Label_11_017C8C5E
// 069   ----------------------------------------
 BYTE   PATT
  POIN2 Label_11_017C8C7A
// 070   ----------------------------------------
 BYTE   PATT
  POIN2 Label_11_017C8C5E
// 071   ----------------------------------------
 BYTE   PATT
  POIN2 Label_11_017C8C7A
// 072   ----------------------------------------
Label_11_017C8CB9:
 BYTE   W01
 BYTE   N11  Fn0  v127
 BYTE   W12
 BYTE   N11
 BYTE   W12
 BYTE   N01
 BYTE   W12
 BYTE   N11
 BYTE   W12
 BYTE   N22  Fn1
 BYTE   W24
 BYTE   N11  Fn0
 BYTE   W12
 BYTE   N11
 BYTE   W11
 BYTE   PEND 
// 073   ----------------------------------------
Label_11_017C8CCD:
 BYTE   W01
 BYTE   N11  Fn0  v127
 BYTE   W12
 BYTE   N11
 BYTE   W12
 BYTE   N01
 BYTE   W12
 BYTE   N11
 BYTE   W12
 BYTE   Fn1
 BYTE   W12
 BYTE   Fn0
 BYTE   W12
 BYTE   Ds1
 BYTE   W12
 BYTE   Fn1
 BYTE   W11
 BYTE   PEND 
// 074   ----------------------------------------
 BYTE   PATT
  POIN2 Label_11_017C8CB9
// 075   ----------------------------------------
 BYTE   PATT
  POIN2 Label_11_017C8CCD
// 076   ----------------------------------------
Label_11_017C8CEB:
 BYTE   W01
 BYTE   N11  Gn0  v127
 BYTE   W12
 BYTE   N11
 BYTE   W12
 BYTE   N01
 BYTE   W12
 BYTE   N11
 BYTE   W12
 BYTE   N22  Gn1
 BYTE   W24
 BYTE   N11  Gn0
 BYTE   W12
 BYTE   N11
 BYTE   W11
 BYTE   PEND 
// 077   ----------------------------------------
Label_11_017C8CFF:
 BYTE   W01
 BYTE   N11  Gn0  v127
 BYTE   W12
 BYTE   N11
 BYTE   W12
 BYTE   N01
 BYTE   W12
 BYTE   N11
 BYTE   W12
 BYTE   Gn1
 BYTE   W12
 BYTE   Gn0
 BYTE   W12
 BYTE   Fn1
 BYTE   W12
 BYTE   Gn1
 BYTE   W11
 BYTE   PEND 
// 078   ----------------------------------------
 BYTE   PATT
  POIN2 Label_11_017C8CEB
// 079   ----------------------------------------
 BYTE   PATT
  POIN2 Label_11_017C8CFF
// 080   ----------------------------------------
 BYTE   PATT
  POIN2 Label_11_017C8CB9
// 081   ----------------------------------------
 BYTE   PATT
  POIN2 Label_11_017C8CCD
// 082   ----------------------------------------
 BYTE   PATT
  POIN2 Label_11_017C8CB9
// 083   ----------------------------------------
 BYTE   PATT
  POIN2 Label_11_017C8CCD
// 084   ----------------------------------------
 BYTE   PATT
  POIN2 Label_11_017C8CEB
// 085   ----------------------------------------
 BYTE   PATT
  POIN2 Label_11_017C8CFF
// 086   ----------------------------------------
 BYTE   PATT
  POIN2 Label_11_017C8CEB
// 087   ----------------------------------------
 BYTE   PATT
  POIN2 Label_11_017C8CFF
// 088   ----------------------------------------
Label_11_017C8D45:
 BYTE   W01
 BYTE   N56  As0  v127
 BYTE   W18
 BYTE   N16  As1
 BYTE   W18
 BYTE   N22
 BYTE   W24
 BYTE   N32  As0
 BYTE   W12
 BYTE   N04  Gs1
 BYTE   W06
 BYTE   N11  As1
 BYTE   W12
 BYTE   N04
 BYTE   W05
 BYTE   PEND 
// 089   ----------------------------------------
Label_11_017C8D5B:
 BYTE   W01
 BYTE   N56  As0  v127
 BYTE   W18
 BYTE   N16  As1
 BYTE   W18
 BYTE   N22
 BYTE   W24
 BYTE   N32  As0
 BYTE   W12
 BYTE   N04  Cn2
 BYTE   W06
 BYTE   N11  Cs2
 BYTE   W12
 BYTE   N04
 BYTE   W05
 BYTE   PEND 
// 090   ----------------------------------------
 BYTE   PATT
  POIN2 Label_11_017C8D45
// 091   ----------------------------------------
Label_11_017C8D76:
 BYTE   W01
 BYTE   N05  Cs2  v127
 BYTE   W06
 BYTE   Cn2
 BYTE   W06
 BYTE   As1
 BYTE   W06
 BYTE   Ds2
 BYTE   W06
 BYTE   Cs2
 BYTE   W06
 BYTE   N04  Cn2
 BYTE   W06
 BYTE   As1
 BYTE   W06
 BYTE   Gs1
 BYTE   W06
 BYTE   Fs1
 BYTE   W06
 BYTE   Fn1
 BYTE   W06
 BYTE   Ds1
 BYTE   W06
 BYTE   Fn1
 BYTE   W06
 BYTE   N05  Cs1
 BYTE   W06
 BYTE   Ds1
 BYTE   W06
 BYTE   Cn1
 BYTE   W06
 BYTE   Cs1
 BYTE   W05
 BYTE   PEND 
// 092   ----------------------------------------
 BYTE   PATT
  POIN2 Label_11_017C8D45
// 093   ----------------------------------------
 BYTE   PATT
  POIN2 Label_11_017C8D5B
// 094   ----------------------------------------
 BYTE   PATT
  POIN2 Label_11_017C8D45
// 095   ----------------------------------------
 BYTE   W01
 BYTE   N16  En0  v127
 BYTE   W18
 BYTE   Fn0
 BYTE   W18
 BYTE   N10  Fs0
 BYTE   W12
 BYTE   N16  Gn0
 BYTE   W18
 BYTE   Gs0
 BYTE   W18
 BYTE   N10  An0
 BYTE   W11
// 096   ----------------------------------------
 BYTE   PATT
  POIN2 Label_11_017C8D45
// 097   ----------------------------------------
 BYTE   PATT
  POIN2 Label_11_017C8D5B
// 098   ----------------------------------------
 BYTE   PATT
  POIN2 Label_11_017C8D45
// 099   ----------------------------------------
 BYTE   PATT
  POIN2 Label_11_017C8D76
// 100   ----------------------------------------
 BYTE   PATT
  POIN2 Label_11_017C8D45
// 101   ----------------------------------------
 BYTE   PATT
  POIN2 Label_11_017C8D5B
// 102   ----------------------------------------
 BYTE   PATT
  POIN2 Label_11_017C8D45
// 103   ----------------------------------------
 BYTE   W01
 BYTE   N16  En0  v127
 BYTE   W18
 BYTE   Fn0
 BYTE   W18
 BYTE   N10  Fs0
 BYTE   W12
 BYTE   N16  Gn0
 BYTE   W18
 BYTE   Gs0
 BYTE   W18
 BYTE   N10  An0
 BYTE   W10
 BYTE   GoTo
  POIN2 Label_11_017C89B6
 BYTE   FINE

//******************************************************//
	ALIGN 4

song0B:
	BYTE	12	// NumTrks
	BYTE	0	// NumBlks
	BYTE	song0B_pri	// Priority
	BYTE	song0B_rev	// Reverb.
    
	POIN2	song0B_grp
    
	POIN2	song0B_001
	POIN2	song0B_002
	POIN2	song0B_003
	POIN2	song0B_004
	POIN2	song0B_005
	POIN2	song0B_006
	POIN2	song0B_007
	POIN2	song0B_008
	POIN2	song0B_009
	POIN2	song0B_010
	POIN2	song0B_011
	POIN2	song0B_012

	
