//Event file generated from Sappy .s format.
	#include "MPlayDef.event"

	#define	song03_grp  voicegroup001
	#define	song03_pri  0
	#define	song03_rev  0
	#define	song03_mvl  127
	#define	song03_key  0
	#define	song03_tbs  1
	#define	song03_exg  0
	#define	song03_cmp  1

	// .rodata
	//	song03
	ALIGN 4


//**************** Track 1 (Midi-Chn.0) ****************//

song03_001:
// 000   ----------------------------------------
 BYTE   KEYSH   song03_key+0
Label_0_013A6D4A:
 BYTE   TEMPO   156*song03_tbs/2
 BYTE   VOICE   29
 BYTE   PAN   c_v+23
 BYTE   VOL   26*song03_mvl/mxv
 BYTE   BEND   c_v+0
 BYTE   W01
 BYTE   N56  En4  v127
 BYTE   W56
 BYTE   W03
 BYTE   BEND   c_v-11
 BYTE   W01
 BYTE   Gn2
 BYTE   N16  Fs4
 BYTE   W01
 BYTE   BEND   c_v-7
 BYTE   W01
 BYTE   Bn2
 BYTE   W01
 BYTE   Cn3
 BYTE   W01
 BYTE   Cs3
 BYTE   W01
 BYTE   Dn3
 BYTE   W01
 BYTE   Dn3
 BYTE   W01
 BYTE   Ds3
 BYTE   W01
 BYTE   Ds3
 BYTE   W01
 BYTE   Ds3
 BYTE   W01
 BYTE   Ds3
 BYTE   W01
 BYTE   Ds3
 BYTE   W02
 BYTE   En3
 BYTE   W05
 BYTE   N16  En4
 BYTE   W17
// 001   ----------------------------------------
 BYTE   W01
 BYTE   N44  Ds4
 BYTE   W44
 BYTE   W03
 BYTE   BEND   c_v-11
 BYTE   W01
 BYTE   Gn2
 BYTE   N15  Bn3
 BYTE   W01
 BYTE   BEND   c_v-7
 BYTE   W01
 BYTE   Bn2
 BYTE   W01
 BYTE   Cn3
 BYTE   W01
 BYTE   Cs3
 BYTE   W01
 BYTE   Dn3
 BYTE   W01
 BYTE   Dn3
 BYTE   W01
 BYTE   Ds3
 BYTE   W01
 BYTE   Ds3
 BYTE   W01
 BYTE   Ds3
 BYTE   W01
 BYTE   Ds3
 BYTE   W01
 BYTE   Ds3
 BYTE   W02
 BYTE   En3
 BYTE   W05
 BYTE   N16
 BYTE   W18
 BYTE   N10  Cs4
 BYTE   W11
// 002   ----------------------------------------
 BYTE   W01
 BYTE   N56  Dn4
 BYTE   W56
 BYTE   W03
 BYTE   BEND   c_v-11
 BYTE   W01
 BYTE   Gn2
 BYTE   N16  En4
 BYTE   W01
 BYTE   BEND   c_v-7
 BYTE   W01
 BYTE   Bn2
 BYTE   W01
 BYTE   Cn3
 BYTE   W01
 BYTE   Cs3
 BYTE   W01
 BYTE   Dn3
 BYTE   W01
 BYTE   Dn3
 BYTE   W01
 BYTE   Ds3
 BYTE   W01
 BYTE   Ds3
 BYTE   W01
 BYTE   Ds3
 BYTE   W01
 BYTE   Ds3
 BYTE   W01
 BYTE   Ds3
 BYTE   W02
 BYTE   En3
 BYTE   W05
 BYTE   N16  Dn4
 BYTE   W17
// 003   ----------------------------------------
 BYTE   W01
 BYTE   N36  Cs4
 BYTE   W48
 BYTE   N16  An3
 BYTE   W18
 BYTE   En4
 BYTE   W17
 BYTE   BEND   c_v-11
 BYTE   W01
 BYTE   Gs2
 BYTE   N10  An4
 BYTE   W01
 BYTE   BEND   c_v-5
 BYTE   W01
 BYTE   Cn3
 BYTE   W01
 BYTE   Dn3
 BYTE   W01
 BYTE   Dn3
 BYTE   W01
 BYTE   Ds3
 BYTE   W01
 BYTE   Ds3
 BYTE   W01
 BYTE   Ds3
 BYTE   W02
 BYTE   En3
 BYTE   W02
// 004   ----------------------------------------
 BYTE   En3
 BYTE   W01
 BYTE   N92  Gn4
 BYTE   W24
 BYTE   BEND   c_v-1
 BYTE   W12
 BYTE   Ds3
 BYTE   W07
 BYTE   Ds3
 BYTE   W05
 BYTE   Ds3
 BYTE   W04
 BYTE   Ds3
 BYTE   W03
 BYTE   Ds3
 BYTE   W02
 BYTE   Dn3
 BYTE   W03
 BYTE   Dn3
 BYTE   W02
 BYTE   Dn3
 BYTE   W02
 BYTE   Dn3
 BYTE   W01
 BYTE   Dn3
 BYTE   W02
 BYTE   Dn3
 BYTE   W01
 BYTE   Cs3
 BYTE   W01
 BYTE   Cs3
 BYTE   W02
 BYTE   Cs3
 BYTE   W01
 BYTE   Cs3
 BYTE   W01
 BYTE   Cs3
 BYTE   W01
 BYTE   Cs3
 BYTE   W01
 BYTE   Cn3
 BYTE   W01
 BYTE   Cn3
 BYTE   W01
 BYTE   Cn3
 BYTE   W01
 BYTE   Cn3
 BYTE   W01
 BYTE   Cn3
 BYTE   W01
 BYTE   Bn2
 BYTE   W01
 BYTE   Bn2
 BYTE   W01
 BYTE   Bn2
 BYTE   W01
 BYTE   Bn2
 BYTE   W01
 BYTE   As2
 BYTE   W01
 BYTE   As2
 BYTE   W01
 BYTE   As2
 BYTE   W01
 BYTE   An2
 BYTE   W01
 BYTE   An2
 BYTE   W01
 BYTE   Gs2
 BYTE   W01
 BYTE   Gs2
 BYTE   W01
 BYTE   Gs2
 BYTE   W01
 BYTE   Gn2
 BYTE   W01
 BYTE   Gn2
 BYTE   W01
 BYTE   Fs2
 BYTE   W01
// 005   ----------------------------------------
 BYTE   Fn2
 BYTE   W01
 BYTE   En3
 BYTE   W92
 BYTE   W03
// 006   ----------------------------------------
 BYTE   W96
// 007   ----------------------------------------
 BYTE   W96
// 008   ----------------------------------------
 BYTE   W96
// 009   ----------------------------------------
 BYTE   W96
// 010   ----------------------------------------
 BYTE   W96
// 011   ----------------------------------------
 BYTE   W96
// 012   ----------------------------------------
 BYTE   W96
// 013   ----------------------------------------
 BYTE   W01
 BYTE   En3
 BYTE   W92
 BYTE   W03
// 014   ----------------------------------------
 BYTE   W96
// 015   ----------------------------------------
 BYTE   W96
// 016   ----------------------------------------
 BYTE   W96
// 017   ----------------------------------------
 BYTE   W96
// 018   ----------------------------------------
 BYTE   W96
// 019   ----------------------------------------
 BYTE   W96
// 020   ----------------------------------------
 BYTE   W96
// 021   ----------------------------------------
 BYTE   VOL   43*song03_mvl/mxv
 BYTE   W01
 BYTE   N05  En4  v120
 BYTE   W12
 BYTE   Dn4
 BYTE   W12
 BYTE   N04  En4
 BYTE   W06
 BYTE   N05  Bn3
 BYTE   W12
 BYTE   Dn4
 BYTE   W12
 BYTE   En4
 BYTE   W12
 BYTE   N04
 BYTE   W06
 BYTE   N05  Dn4
 BYTE   W12
 BYTE   En4
 BYTE   W11
// 022   ----------------------------------------
 BYTE   W01
 BYTE   N16  Fs4
 BYTE   W18
 BYTE   Gn4
 BYTE   W18
 BYTE   N11  An4
 BYTE   W12
 BYTE   N04  Gn4
 BYTE   W06
 BYTE   Fs4
 BYTE   W06
 BYTE   En4
 BYTE   W06
 BYTE   Gn4
 BYTE   W06
 BYTE   Fs4
 BYTE   W06
 BYTE   En4
 BYTE   W06
 BYTE   Dn4
 BYTE   W06
 BYTE   An3
 BYTE   W05
// 023   ----------------------------------------
 BYTE   W01
 BYTE   N05  Bn3
 BYTE   W12
 BYTE   An3
 BYTE   W12
 BYTE   N04  Bn3
 BYTE   W06
 BYTE   N05  En3
 BYTE   W12
 BYTE   An3
 BYTE   W12
 BYTE   Bn3
 BYTE   W12
 BYTE   N04
 BYTE   W06
 BYTE   N05  An3
 BYTE   W12
 BYTE   Bn3
 BYTE   W11
// 024   ----------------------------------------
 BYTE   BEND   c_v-11
 BYTE   W01
 BYTE   Fs2
 BYTE   N32  Cn4
 BYTE   W01
 BYTE   BEND   c_v-8
 BYTE   W01
 BYTE   An2
 BYTE   W01
 BYTE   As2
 BYTE   W01
 BYTE   Bn2
 BYTE   W01
 BYTE   Bn2
 BYTE   W01
 BYTE   Cn3
 BYTE   W01
 BYTE   Cn3
 BYTE   W01
 BYTE   Cs3
 BYTE   W01
 BYTE   Cs3
 BYTE   W01
 BYTE   Dn3
 BYTE   W01
 BYTE   Dn3
 BYTE   W01
 BYTE   Dn3
 BYTE   W01
 BYTE   Dn3
 BYTE   W01
 BYTE   Ds3
 BYTE   W01
 BYTE   Ds3
 BYTE   W01
 BYTE   Ds3
 BYTE   W02
 BYTE   Ds3
 BYTE   W02
 BYTE   Ds3
 BYTE   W02
 BYTE   Ds3
 BYTE   W05
 BYTE   En3
 BYTE   W08
 BYTE   En3
 BYTE   W01
 BYTE   N56  Bn3
 BYTE   W15
 BYTE   BEND   c_v-1
 BYTE   W07
 BYTE   Ds3
 BYTE   W05
 BYTE   Ds3
 BYTE   W03
 BYTE   Ds3
 BYTE   W02
 BYTE   Ds3
 BYTE   W02
 BYTE   Ds3
 BYTE   W02
 BYTE   Dn3
 BYTE   W01
 BYTE   Dn3
 BYTE   W02
 BYTE   Dn3
 BYTE   W01
 BYTE   Dn3
 BYTE   W01
 BYTE   Dn3
 BYTE   W01
 BYTE   Dn3
 BYTE   W01
 BYTE   Cs3
 BYTE   W01
 BYTE   Cs3
 BYTE   W01
 BYTE   Cs3
 BYTE   W01
 BYTE   Cn3
 BYTE   W01
 BYTE   Cn3
 BYTE   W01
 BYTE   Cn3
 BYTE   W01
 BYTE   Cn3
 BYTE   W01
 BYTE   Bn2
 BYTE   W01
 BYTE   Bn2
 BYTE   W01
 BYTE   As2
 BYTE   W01
 BYTE   As2
 BYTE   W01
 BYTE   An2
 BYTE   W01
 BYTE   An2
 BYTE   W01
 BYTE   Gs2
 BYTE   W01
 BYTE   Gn2
 BYTE   W01
 BYTE   Fs2
 BYTE   W01
// 025   ----------------------------------------
 BYTE   En3
 BYTE   W01
 BYTE   N05  En4
 BYTE   W12
 BYTE   Dn4
 BYTE   W12
 BYTE   N04  En4
 BYTE   W06
 BYTE   N05  Bn3
 BYTE   W12
 BYTE   Dn4
 BYTE   W12
 BYTE   En4
 BYTE   W12
 BYTE   N04
 BYTE   W06
 BYTE   N05  Dn4
 BYTE   W12
 BYTE   En4
 BYTE   W11
// 026   ----------------------------------------
 BYTE   W01
 BYTE   N05
 BYTE   W12
 BYTE   Dn4
 BYTE   W12
 BYTE   N04  En4
 BYTE   W06
 BYTE   N05  Bn3
 BYTE   W12
 BYTE   Dn4
 BYTE   W12
 BYTE   En4
 BYTE   W12
 BYTE   N04
 BYTE   W06
 BYTE   N05  Dn4
 BYTE   W12
 BYTE   En4
 BYTE   W11
// 027   ----------------------------------------
 BYTE   W01
 BYTE   N04  Ds4
 BYTE   W06
 BYTE   En4
 BYTE   W06
 BYTE   Fs4
 BYTE   W06
 BYTE   Bn3
 BYTE   W06
 BYTE   Bn4
 BYTE   W06
 BYTE   An4
 BYTE   W06
 BYTE   Gn4
 BYTE   W06
 BYTE   Fs4
 BYTE   W06
 BYTE   En4
 BYTE   W06
 BYTE   Ds4
 BYTE   W06
 BYTE   En4
 BYTE   W06
 BYTE   Fs4
 BYTE   W06
 BYTE   En4
 BYTE   W06
 BYTE   Ds4
 BYTE   W06
 BYTE   Bn3
 BYTE   W06
 BYTE   An3
 BYTE   W05
// 028   ----------------------------------------
 BYTE   W01
 BYTE   N44  Bn3
 BYTE   W44
 BYTE   W03
 BYTE   BEND   c_v-11
 BYTE   W01
 BYTE   Gn2
 BYTE   N22  Cn4
 BYTE   W01
 BYTE   BEND   c_v-8
 BYTE   W01
 BYTE   As2
 BYTE   W01
 BYTE   Bn2
 BYTE   W01
 BYTE   Cn3
 BYTE   W01
 BYTE   Cs3
 BYTE   W01
 BYTE   Cs3
 BYTE   W01
 BYTE   Dn3
 BYTE   W01
 BYTE   Dn3
 BYTE   W01
 BYTE   Ds3
 BYTE   W01
 BYTE   Ds3
 BYTE   W01
 BYTE   Ds3
 BYTE   W01
 BYTE   Ds3
 BYTE   W01
 BYTE   Ds3
 BYTE   W02
 BYTE   Ds3
 BYTE   W03
 BYTE   En3
 BYTE   W06
 BYTE   N22  Dn4
 BYTE   W23
// 029   ----------------------------------------
 BYTE   W96
// 030   ----------------------------------------
 BYTE   W96
// 031   ----------------------------------------
 BYTE   W96
// 032   ----------------------------------------
 BYTE   W96
// 033   ----------------------------------------
 BYTE   W96
// 034   ----------------------------------------
 BYTE   W96
// 035   ----------------------------------------
 BYTE   W96
// 036   ----------------------------------------
 BYTE   W96
// 037   ----------------------------------------
 BYTE   W96
// 038   ----------------------------------------
 BYTE   W96
// 039   ----------------------------------------
 BYTE   W96
// 040   ----------------------------------------
 BYTE   W96
// 041   ----------------------------------------
 BYTE   W96
// 042   ----------------------------------------
 BYTE   W96
// 043   ----------------------------------------
 BYTE   W96
// 044   ----------------------------------------
 BYTE   W96
// 045   ----------------------------------------
Label_0_013A6FA0:
 BYTE   W01
 BYTE   N04  En3  v120
 BYTE   W06
 BYTE   Fs3
 BYTE   W06
 BYTE   N05  Gn3
 BYTE   W24
 BYTE   N04  An3
 BYTE   W06
 BYTE   Bn3
 BYTE   W05
 BYTE   BEND   c_v+0
 BYTE   W01
 BYTE   N22  Cn4
 BYTE   W06
 BYTE   BEND   c_v-1
 BYTE   W03
 BYTE   Ds3
 BYTE   W02
 BYTE   Ds3
 BYTE   W01
 BYTE   Ds3
 BYTE   W01
 BYTE   Ds3
 BYTE   W01
 BYTE   Dn3
 BYTE   W01
 BYTE   Dn3
 BYTE   W01
 BYTE   Dn3
 BYTE   W01
 BYTE   Cs3
 BYTE   W01
 BYTE   Cn3
 BYTE   W01
 BYTE   Cn3
 BYTE   W01
 BYTE   Bn2
 BYTE   W01
 BYTE   An2
 BYTE   W01
 BYTE   Gs2
 BYTE   W01
 BYTE   Fn2
 BYTE   W01
 BYTE   An2
 BYTE   N04  Dn4
 BYTE   W01
 BYTE   BEND   c_v-3
 BYTE   W01
 BYTE   Ds3
 BYTE   W01
 BYTE   Ds3
 BYTE   W01
 BYTE   En3
 BYTE   W02
 BYTE   N04  En4
 BYTE   W06
 BYTE   Fs4
 BYTE   W06
 BYTE   Gn4
 BYTE   W05
 BYTE   PEND 
// 046   ----------------------------------------
Label_0_013A6FE9:
 BYTE   BEND   c_v-11
 BYTE   W01
 BYTE   Gn2
 BYTE   N16  Fs4  v120
 BYTE   W01
 BYTE   BEND   c_v-7
 BYTE   W01
 BYTE   Bn2
 BYTE   W01
 BYTE   Cn3
 BYTE   W01
 BYTE   Cs3
 BYTE   W01
 BYTE   Dn3
 BYTE   W01
 BYTE   Dn3
 BYTE   W01
 BYTE   Ds3
 BYTE   W01
 BYTE   Ds3
 BYTE   W01
 BYTE   Ds3
 BYTE   W01
 BYTE   Ds3
 BYTE   W01
 BYTE   Ds3
 BYTE   W02
 BYTE   En3
 BYTE   W05
 BYTE   N16  Bn3
 BYTE   W18
 BYTE   N11  Ds4
 BYTE   W11
 BYTE   BEND   c_v-11
 BYTE   W01
 BYTE   Gn2
 BYTE   N16  An4
 BYTE   W01
 BYTE   BEND   c_v-7
 BYTE   W01
 BYTE   Bn2
 BYTE   W01
 BYTE   Cn3
 BYTE   W01
 BYTE   Cs3
 BYTE   W01
 BYTE   Dn3
 BYTE   W01
 BYTE   Dn3
 BYTE   W01
 BYTE   Ds3
 BYTE   W01
 BYTE   Ds3
 BYTE   W01
 BYTE   Ds3
 BYTE   W01
 BYTE   Ds3
 BYTE   W01
 BYTE   Ds3
 BYTE   W02
 BYTE   En3
 BYTE   W05
 BYTE   N16  Gn4
 BYTE   W18
 BYTE   N11  Fs4
 BYTE   W11
 BYTE   PEND 
// 047   ----------------------------------------
Label_0_013A7037:
 BYTE   W01
 BYTE   N16  En4  v120
 BYTE   W18
 BYTE   Dn4
 BYTE   W18
 BYTE   N11  Cn4
 BYTE   W12
 BYTE   N16  Bn3
 BYTE   W18
 BYTE   An3
 BYTE   W18
 BYTE   N11  Bn3
 BYTE   W11
 BYTE   PEND 
// 048   ----------------------------------------
 BYTE   W01
 BYTE   N05  Cn4
 BYTE   W06
 BYTE   An3
 BYTE   W06
 BYTE   Fs3
 BYTE   W06
 BYTE   Ds3
 BYTE   W06
 BYTE   Ds4
 BYTE   W06
 BYTE   Cn4
 BYTE   W06
 BYTE   An3
 BYTE   W06
 BYTE   Fs3
 BYTE   W06
 BYTE   Fs4
 BYTE   W06
 BYTE   Ds4
 BYTE   W06
 BYTE   Cn4
 BYTE   W06
 BYTE   An3
 BYTE   W06
 BYTE   An4
 BYTE   W06
 BYTE   Fs4
 BYTE   W06
 BYTE   Ds4
 BYTE   W06
 BYTE   Cn4
 BYTE   W05
 BYTE   PATT
  POIN2 Label_0_013A6FA0
 BYTE   PATT
  POIN2 Label_0_013A6FE9
 BYTE   PATT
  POIN2 Label_0_013A7037
// 049   ----------------------------------------
 BYTE   W01
 BYTE   N05  Cn4  v120
 BYTE   W06
 BYTE   An3
 BYTE   W06
 BYTE   Fs3
 BYTE   W06
 BYTE   Ds3
 BYTE   W06
 BYTE   Dn4
 BYTE   W06
 BYTE   Bn3
 BYTE   W06
 BYTE   Gs3
 BYTE   W06
 BYTE   Fn3
 BYTE   W06
 BYTE   Ds4
 BYTE   W06
 BYTE   Cn4
 BYTE   W06
 BYTE   An3
 BYTE   W06
 BYTE   Fs3
 BYTE   W06
 BYTE   Fn4
 BYTE   W06
 BYTE   Dn4
 BYTE   W06
 BYTE   Bn3
 BYTE   W06
 BYTE   Gs3
 BYTE   W05
// 050   ----------------------------------------
Label_0_013A709E:
 BYTE   W01
 BYTE   N05  En4  v124
 BYTE   W12
 BYTE   Dn4
 BYTE   W12
 BYTE   N04  En4
 BYTE   W06
 BYTE   N05  Bn3
 BYTE   W12
 BYTE   Dn4
 BYTE   W12
 BYTE   En4
 BYTE   W12
 BYTE   N04
 BYTE   W06
 BYTE   N05  Dn4
 BYTE   W12
 BYTE   En4
 BYTE   W11
 BYTE   PEND 
// 051   ----------------------------------------
 BYTE   W01
 BYTE   N16  Fs4
 BYTE   W18
 BYTE   Gn4
 BYTE   W18
 BYTE   N11  An4
 BYTE   W12
 BYTE   N04  Gn4
 BYTE   W06
 BYTE   Fs4
 BYTE   W06
 BYTE   En4
 BYTE   W06
 BYTE   Gn4
 BYTE   W06
 BYTE   Fs4
 BYTE   W06
 BYTE   En4
 BYTE   W06
 BYTE   Dn4
 BYTE   W06
 BYTE   An3
 BYTE   W05
// 052   ----------------------------------------
 BYTE   W01
 BYTE   N05  Bn3
 BYTE   W12
 BYTE   An3
 BYTE   W12
 BYTE   N04  Bn3
 BYTE   W06
 BYTE   N05  En3
 BYTE   W12
 BYTE   An3
 BYTE   W12
 BYTE   Bn3
 BYTE   W12
 BYTE   N04
 BYTE   W06
 BYTE   N05  An3
 BYTE   W12
 BYTE   Bn3
 BYTE   W11
// 053   ----------------------------------------
 BYTE   BEND   c_v-11
 BYTE   W01
 BYTE   Fs2
 BYTE   N32  Cn4
 BYTE   W01
 BYTE   BEND   c_v-8
 BYTE   W01
 BYTE   An2
 BYTE   W01
 BYTE   As2
 BYTE   W01
 BYTE   Bn2
 BYTE   W01
 BYTE   Bn2
 BYTE   W01
 BYTE   Cn3
 BYTE   W01
 BYTE   Cn3
 BYTE   W01
 BYTE   Cs3
 BYTE   W01
 BYTE   Cs3
 BYTE   W01
 BYTE   Dn3
 BYTE   W01
 BYTE   Dn3
 BYTE   W01
 BYTE   Dn3
 BYTE   W01
 BYTE   Dn3
 BYTE   W01
 BYTE   Ds3
 BYTE   W01
 BYTE   Ds3
 BYTE   W01
 BYTE   Ds3
 BYTE   W02
 BYTE   Ds3
 BYTE   W02
 BYTE   Ds3
 BYTE   W02
 BYTE   Ds3
 BYTE   W05
 BYTE   En3
 BYTE   W08
 BYTE   En3
 BYTE   W01
 BYTE   N56  Bn3
 BYTE   W15
 BYTE   BEND   c_v-1
 BYTE   W07
 BYTE   Ds3
 BYTE   W05
 BYTE   Ds3
 BYTE   W03
 BYTE   Ds3
 BYTE   W02
 BYTE   Ds3
 BYTE   W02
 BYTE   Ds3
 BYTE   W02
 BYTE   Dn3
 BYTE   W01
 BYTE   Dn3
 BYTE   W02
 BYTE   Dn3
 BYTE   W01
 BYTE   Dn3
 BYTE   W01
 BYTE   Dn3
 BYTE   W01
 BYTE   Dn3
 BYTE   W01
 BYTE   Cs3
 BYTE   W01
 BYTE   Cs3
 BYTE   W01
 BYTE   Cs3
 BYTE   W01
 BYTE   Cn3
 BYTE   W01
 BYTE   Cn3
 BYTE   W01
 BYTE   Cn3
 BYTE   W01
 BYTE   Cn3
 BYTE   W01
 BYTE   Bn2
 BYTE   W01
 BYTE   Bn2
 BYTE   W01
 BYTE   As2
 BYTE   W01
 BYTE   As2
 BYTE   W01
 BYTE   An2
 BYTE   W01
 BYTE   An2
 BYTE   W01
 BYTE   Gs2
 BYTE   W01
 BYTE   Gn2
 BYTE   W01
 BYTE   Fs2
 BYTE   W01
// 054   ----------------------------------------
 BYTE   En3
 BYTE   W01
 BYTE   N05  En4
 BYTE   W12
 BYTE   Dn4
 BYTE   W12
 BYTE   N04  En4
 BYTE   W06
 BYTE   N05  Bn3
 BYTE   W12
 BYTE   Dn4
 BYTE   W12
 BYTE   En4
 BYTE   W12
 BYTE   N04
 BYTE   W06
 BYTE   N05  Dn4
 BYTE   W12
 BYTE   En4
 BYTE   W11
 BYTE   PATT
  POIN2 Label_0_013A709E
// 055   ----------------------------------------
 BYTE   W01
 BYTE   N04  Ds4  v124
 BYTE   W06
 BYTE   En4
 BYTE   W06
 BYTE   Fs4
 BYTE   W06
 BYTE   Bn3
 BYTE   W06
 BYTE   Bn4
 BYTE   W06
 BYTE   An4
 BYTE   W06
 BYTE   Gn4
 BYTE   W06
 BYTE   Fs4
 BYTE   W06
 BYTE   En4
 BYTE   W06
 BYTE   Ds4
 BYTE   W06
 BYTE   En4
 BYTE   W06
 BYTE   Fs4
 BYTE   W06
 BYTE   En4
 BYTE   W06
 BYTE   Ds4
 BYTE   W06
 BYTE   Bn3
 BYTE   W06
 BYTE   An3
 BYTE   W05
// 056   ----------------------------------------
 BYTE   W01
 BYTE   N44  Bn3
 BYTE   W44
 BYTE   W03
 BYTE   BEND   c_v-11
 BYTE   W01
 BYTE   Gn2
 BYTE   N22  Cn4
 BYTE   W01
 BYTE   BEND   c_v-8
 BYTE   W01
 BYTE   As2
 BYTE   W01
 BYTE   Bn2
 BYTE   W01
 BYTE   Cn3
 BYTE   W01
 BYTE   Cs3
 BYTE   W01
 BYTE   Cs3
 BYTE   W01
 BYTE   Dn3
 BYTE   W01
 BYTE   Dn3
 BYTE   W01
 BYTE   Ds3
 BYTE   W01
 BYTE   Ds3
 BYTE   W01
 BYTE   Ds3
 BYTE   W01
 BYTE   Ds3
 BYTE   W01
 BYTE   Ds3
 BYTE   W02
 BYTE   Ds3
 BYTE   W03
 BYTE   En3
 BYTE   W06
 BYTE   N22  Dn4
 BYTE   W23
// 057   ----------------------------------------
 BYTE   W96
// 058   ----------------------------------------
 BYTE   W96
// 059   ----------------------------------------
 BYTE   W96
// 060   ----------------------------------------
 BYTE   W96
// 061   ----------------------------------------
 BYTE   W96
// 062   ----------------------------------------
 BYTE   W96
// 063   ----------------------------------------
 BYTE   W96
// 064   ----------------------------------------
 BYTE   W96
// 065   ----------------------------------------
 BYTE   GoTo
  POIN2 Label_0_013A6D4A
 BYTE   FINE

//**************** Track 2 (Midi-Chn.1) ****************//

song03_002:
// 000   ----------------------------------------
 BYTE   KEYSH   song03_key+0
Label_1_013A71D6:
 BYTE   VOICE   73
 BYTE   VOL   24*song03_mvl/mxv
 BYTE   PAN   c_v+23
 BYTE   MOD 0
 BYTE   FnM2
 BYTE   BEND   c_v+0
 BYTE   W96
// 001   ----------------------------------------
 BYTE   W96
// 002   ----------------------------------------
 BYTE   W96
// 003   ----------------------------------------
 BYTE   W96
// 004   ----------------------------------------
 BYTE   W96
// 005   ----------------------------------------
Label_1_013A71E5:
 BYTE   W01
 BYTE   N16  Gs5  v127
 BYTE   W18
 BYTE   An5  v116
 BYTE   W18
 BYTE   N54  En5  v127
 BYTE   W56
 BYTE   W03
 BYTE   PEND 
// 006   ----------------------------------------
Label_1_013A71F3:
 BYTE   W01
 BYTE   N16  Ds5  v127
 BYTE   W18
 BYTE   En5  v116
 BYTE   W18
 BYTE   N10  Fs5  v127
 BYTE   W12
 BYTE   N16  En5
 BYTE   W18
 BYTE   Ds5  v116
 BYTE   W18
 BYTE   N10  Cn5  v127
 BYTE   W11
 BYTE   PEND 
// 007   ----------------------------------------
Label_1_013A720A:
 BYTE   W01
 BYTE   N44  Bn4  v127
 BYTE   W48
 BYTE   N11  Bn4  v116
 BYTE   W12
 BYTE   Bn4  v127
 BYTE   W12
 BYTE   N10  An4  v116
 BYTE   W12
 BYTE   Bn4  v127
 BYTE   W11
 BYTE   PEND 
// 008   ----------------------------------------
Label_1_013A721E:
 BYTE   W01
 BYTE   N16  Ds5  v127
 BYTE   W18
 BYTE   En5  v116
 BYTE   W18
 BYTE   N56  Fs5  v127
 BYTE   W56
 BYTE   W03
 BYTE   PEND 
 BYTE   PATT
  POIN2 Label_1_013A71E5
// 009   ----------------------------------------
Label_1_013A7231:
 BYTE   W01
 BYTE   N16  Fs5  v127
 BYTE   W18
 BYTE   En5  v116
 BYTE   W18
 BYTE   N10  Ds5  v127
 BYTE   W12
 BYTE   N16  Cn5
 BYTE   W18
 BYTE   Bn4  v116
 BYTE   W18
 BYTE   N10  An4  v127
 BYTE   W11
 BYTE   PEND 
// 010   ----------------------------------------
Label_1_013A7248:
 BYTE   W01
 BYTE   N16  Gn4  v127
 BYTE   W18
 BYTE   An4  v116
 BYTE   W18
 BYTE   N56  Bn4  v127
 BYTE   W56
 BYTE   W03
 BYTE   PEND 
 BYTE   PATT
  POIN2 Label_1_013A721E
 BYTE   PATT
  POIN2 Label_1_013A71E5
 BYTE   PATT
  POIN2 Label_1_013A71F3
 BYTE   PATT
  POIN2 Label_1_013A720A
 BYTE   PATT
  POIN2 Label_1_013A721E
 BYTE   PATT
  POIN2 Label_1_013A71E5
 BYTE   PATT
  POIN2 Label_1_013A7231
 BYTE   PATT
  POIN2 Label_1_013A7248
 BYTE   PATT
  POIN2 Label_1_013A721E
// 011   ----------------------------------------
 BYTE   W96
// 012   ----------------------------------------
 BYTE   W96
// 013   ----------------------------------------
 BYTE   W96
// 014   ----------------------------------------
 BYTE   W96
// 015   ----------------------------------------
 BYTE   W96
// 016   ----------------------------------------
 BYTE   W96
// 017   ----------------------------------------
 BYTE   W96
// 018   ----------------------------------------
 BYTE   W96
 BYTE   PATT
  POIN2 Label_1_013A71E5
 BYTE   PATT
  POIN2 Label_1_013A71F3
 BYTE   PATT
  POIN2 Label_1_013A720A
 BYTE   PATT
  POIN2 Label_1_013A721E
 BYTE   PATT
  POIN2 Label_1_013A71E5
 BYTE   PATT
  POIN2 Label_1_013A7231
 BYTE   PATT
  POIN2 Label_1_013A7248
 BYTE   PATT
  POIN2 Label_1_013A721E
// 019   ----------------------------------------
 BYTE   W96
// 020   ----------------------------------------
 BYTE   W96
// 021   ----------------------------------------
 BYTE   W96
// 022   ----------------------------------------
 BYTE   W96
// 023   ----------------------------------------
 BYTE   W96
// 024   ----------------------------------------
 BYTE   W96
// 025   ----------------------------------------
 BYTE   W96
// 026   ----------------------------------------
 BYTE   W96
// 027   ----------------------------------------
Label_1_013A72BB:
 BYTE   W01
 BYTE   N04  En4  v112
 BYTE   W06
 BYTE   Fs4  v100
 BYTE   W06
 BYTE   N05  Gn4  v112
 BYTE   W24
 BYTE   N04  An4
 BYTE   W06
 BYTE   Bn4  v100
 BYTE   W06
 BYTE   N05  Cn5  v112
 BYTE   W24
 BYTE   N04  Dn5
 BYTE   W06
 BYTE   En5  v100
 BYTE   W06
 BYTE   Fs5  v112
 BYTE   W06
 BYTE   Gn5  v100
 BYTE   W05
 BYTE   PEND 
// 028   ----------------------------------------
Label_1_013A72DE:
 BYTE   W01
 BYTE   N16  Fs5  v112
 BYTE   W18
 BYTE   Bn4  v100
 BYTE   W18
 BYTE   N11  Ds5  v112
 BYTE   W12
 BYTE   N16  An5
 BYTE   W18
 BYTE   Gn5  v100
 BYTE   W18
 BYTE   N11  Fs5  v112
 BYTE   W11
 BYTE   PEND 
// 029   ----------------------------------------
Label_1_013A72F5:
 BYTE   W01
 BYTE   N16  En5  v112
 BYTE   W18
 BYTE   Dn5  v100
 BYTE   W18
 BYTE   N11  Cn5  v112
 BYTE   W12
 BYTE   N16  Bn4
 BYTE   W18
 BYTE   An4  v100
 BYTE   W18
 BYTE   N11  Bn4  v112
 BYTE   W11
 BYTE   PEND 
// 030   ----------------------------------------
 BYTE   W01
 BYTE   N05  Cn5
 BYTE   W06
 BYTE   An4  v100
 BYTE   W06
 BYTE   Fs4  v112
 BYTE   W06
 BYTE   Ds4  v100
 BYTE   W06
 BYTE   Ds5  v112
 BYTE   W06
 BYTE   Cn5  v100
 BYTE   W06
 BYTE   An4  v112
 BYTE   W06
 BYTE   Fs4  v100
 BYTE   W06
 BYTE   Fs5  v112
 BYTE   W06
 BYTE   Ds5  v100
 BYTE   W06
 BYTE   Cn5  v112
 BYTE   W06
 BYTE   An4  v100
 BYTE   W06
 BYTE   An5  v112
 BYTE   W06
 BYTE   Fs5
 BYTE   W06
 BYTE   Ds5
 BYTE   W06
 BYTE   Cn5
 BYTE   W05
 BYTE   PATT
  POIN2 Label_1_013A72BB
 BYTE   PATT
  POIN2 Label_1_013A72DE
 BYTE   PATT
  POIN2 Label_1_013A72F5
// 031   ----------------------------------------
 BYTE   W01
 BYTE   N05  Ds5  v124
 BYTE   W06
 BYTE   Cn5  v112
 BYTE   W06
 BYTE   An4  v124
 BYTE   W06
 BYTE   Fs4  v112
 BYTE   W06
 BYTE   Fn5  v124
 BYTE   W06
 BYTE   Dn5  v112
 BYTE   W06
 BYTE   Bn4  v124
 BYTE   W06
 BYTE   Gs4  v112
 BYTE   W06
 BYTE   Fs5  v124
 BYTE   W06
 BYTE   Ds5  v112
 BYTE   W06
 BYTE   Cn5  v124
 BYTE   W06
 BYTE   An4  v112
 BYTE   W06
 BYTE   Gs5  v124
 BYTE   W06
 BYTE   Fn5
 BYTE   W06
 BYTE   Dn5
 BYTE   W06
 BYTE   Bn4
 BYTE   W05
// 032   ----------------------------------------
Label_1_013A7378:
 BYTE   W01
 BYTE   N05  En5  v112
 BYTE   W12
 BYTE   Dn5
 BYTE   W12
 BYTE   N04  En5
 BYTE   W06
 BYTE   N05  Bn4
 BYTE   W12
 BYTE   Dn5
 BYTE   W12
 BYTE   En5
 BYTE   W12
 BYTE   N04
 BYTE   W06
 BYTE   N05  Dn5
 BYTE   W12
 BYTE   En5
 BYTE   W11
 BYTE   PEND 
// 033   ----------------------------------------
 BYTE   W01
 BYTE   N16  Fs5
 BYTE   W18
 BYTE   Gn5
 BYTE   W18
 BYTE   N11  An5
 BYTE   W12
 BYTE   N04  Gn5
 BYTE   W06
 BYTE   Fs5
 BYTE   W06
 BYTE   En5
 BYTE   W06
 BYTE   Gn5
 BYTE   W06
 BYTE   Fs5
 BYTE   W06
 BYTE   En5
 BYTE   W06
 BYTE   Dn5
 BYTE   W06
 BYTE   An4
 BYTE   W05
// 034   ----------------------------------------
 BYTE   W01
 BYTE   N05  Bn4
 BYTE   W12
 BYTE   An4
 BYTE   W12
 BYTE   N04  Bn4
 BYTE   W06
 BYTE   N05  En4
 BYTE   W12
 BYTE   An4
 BYTE   W12
 BYTE   Bn4
 BYTE   W12
 BYTE   N04
 BYTE   W06
 BYTE   N05  An4
 BYTE   W12
 BYTE   Bn4
 BYTE   W11
// 035   ----------------------------------------
 BYTE   W01
 BYTE   N32  Cn5
 BYTE   W36
 BYTE   N56  Bn4
 BYTE   W56
 BYTE   W03
 BYTE   PATT
  POIN2 Label_1_013A7378
 BYTE   PATT
  POIN2 Label_1_013A7378
// 036   ----------------------------------------
 BYTE   W01
 BYTE   N04  Ds5  v112
 BYTE   W06
 BYTE   En5
 BYTE   W06
 BYTE   Fs5
 BYTE   W06
 BYTE   Bn4
 BYTE   W06
 BYTE   Bn5
 BYTE   W06
 BYTE   An5
 BYTE   W06
 BYTE   Gn5
 BYTE   W06
 BYTE   Fs5
 BYTE   W06
 BYTE   En5
 BYTE   W06
 BYTE   Ds5
 BYTE   W06
 BYTE   En5
 BYTE   W06
 BYTE   Fs5
 BYTE   W06
 BYTE   En5
 BYTE   W06
 BYTE   Ds5
 BYTE   W06
 BYTE   Bn4
 BYTE   W06
 BYTE   An4
 BYTE   W05
// 037   ----------------------------------------
 BYTE   W01
 BYTE   N44  Bn4
 BYTE   W48
 BYTE   N22  Cn5
 BYTE   W24
 BYTE   Dn5
 BYTE   W23
// 038   ----------------------------------------
 BYTE   W96
// 039   ----------------------------------------
 BYTE   W96
// 040   ----------------------------------------
 BYTE   W96
// 041   ----------------------------------------
 BYTE   W96
// 042   ----------------------------------------
 BYTE   W96
// 043   ----------------------------------------
 BYTE   W96
// 044   ----------------------------------------
 BYTE   W96
// 045   ----------------------------------------
 BYTE   W96
// 046   ----------------------------------------
 BYTE   GoTo
  POIN2 Label_1_013A71D6
 BYTE   FINE

//**************** Track 3 (Midi-Chn.2) ****************//

song03_003:
// 000   ----------------------------------------
 BYTE   KEYSH   song03_key+0
Label_2_013A7412:
 BYTE   VOICE   33
 BYTE   PAN   c_v-28
 BYTE   VOL   30*song03_mvl/mxv
 BYTE   BEND   c_v+0
 BYTE   W01
 BYTE   N11  Fs0  v127
 BYTE   W12
 BYTE   N11
 BYTE   W12
 BYTE   N11
 BYTE   W12
 BYTE   N11
 BYTE   W12
 BYTE   N11
 BYTE   W12
 BYTE   N11
 BYTE   W12
 BYTE   N11
 BYTE   W12
 BYTE   N11
 BYTE   W11
// 001   ----------------------------------------
 BYTE   W01
 BYTE   N11
 BYTE   W12
 BYTE   N11
 BYTE   W12
 BYTE   N11
 BYTE   W12
 BYTE   N11
 BYTE   W12
 BYTE   Fs1
 BYTE   W12
 BYTE   Fs0
 BYTE   W12
 BYTE   N11
 BYTE   W12
 BYTE   Fs1
 BYTE   W11
// 002   ----------------------------------------
 BYTE   W01
 BYTE   Fs0
 BYTE   W12
 BYTE   N11
 BYTE   W12
 BYTE   N11
 BYTE   W12
 BYTE   N11
 BYTE   W12
 BYTE   N11
 BYTE   W12
 BYTE   N11
 BYTE   W12
 BYTE   Fs1
 BYTE   W12
 BYTE   Fs0
 BYTE   W11
// 003   ----------------------------------------
 BYTE   W01
 BYTE   N11
 BYTE   W12
 BYTE   N11
 BYTE   W12
 BYTE   Fs1
 BYTE   W12
 BYTE   Fs0
 BYTE   W12
 BYTE   An0
 BYTE   W12
 BYTE   N11
 BYTE   W12
 BYTE   An1
 BYTE   W12
 BYTE   An0
 BYTE   W11
// 004   ----------------------------------------
 BYTE   W01
 BYTE   Gn0
 BYTE   W12
 BYTE   Gn1
 BYTE   W12
 BYTE   Gn0
 BYTE   W12
 BYTE   Gn1
 BYTE   W12
 BYTE   Gn0
 BYTE   W12
 BYTE   Gn1
 BYTE   W12
 BYTE   Gn0
 BYTE   W12
 BYTE   Gn1
 BYTE   W11
// 005   ----------------------------------------
Label_2_013A7471:
 BYTE   W01
 BYTE   N11  Fs0  v127
 BYTE   W12
 BYTE   N01  Fs0  v092
 BYTE   W06
 BYTE   N11  Fs0  v127
 BYTE   W12
 BYTE   N04
 BYTE   W06
 BYTE   N11  En0
 BYTE   W12
 BYTE   N04  Fs0
 BYTE   W06
 BYTE   Fs1
 BYTE   W06
 BYTE   Cs1
 BYTE   W06
 BYTE   N01  Cs1  v092
 BYTE   W06
 BYTE   N11  En1  v127
 BYTE   W12
 BYTE   N05  An0
 BYTE   W06
 BYTE   En0
 BYTE   W05
 BYTE   PEND 
// 006   ----------------------------------------
Label_2_013A7498:
 BYTE   W01
 BYTE   N11  Fs0  v127
 BYTE   W12
 BYTE   N01  Fs0  v092
 BYTE   W06
 BYTE   N11  Fs0  v127
 BYTE   W12
 BYTE   N04
 BYTE   W06
 BYTE   N11  En0
 BYTE   W12
 BYTE   N04  Bn0
 BYTE   W06
 BYTE   Bn1
 BYTE   W06
 BYTE   Fs0
 BYTE   W06
 BYTE   N01  Fs1  v092
 BYTE   W06
 BYTE   N11  Bn0  v127
 BYTE   W12
 BYTE   N05  Ds1
 BYTE   W06
 BYTE   Fs0
 BYTE   W05
 BYTE   PEND 
// 007   ----------------------------------------
Label_2_013A74BF:
 BYTE   W01
 BYTE   N11  En0  v127
 BYTE   W12
 BYTE   N01  En1  v092
 BYTE   W06
 BYTE   N11  En0  v127
 BYTE   W12
 BYTE   N04
 BYTE   W06
 BYTE   N11  Dn0
 BYTE   W12
 BYTE   N04  En0
 BYTE   W06
 BYTE   N04
 BYTE   W06
 BYTE   N04
 BYTE   W06
 BYTE   N01  En1  v092
 BYTE   W06
 BYTE   N11  En0  v127
 BYTE   W12
 BYTE   N05  Bn0
 BYTE   W06
 BYTE   En1
 BYTE   W05
 BYTE   PEND 
// 008   ----------------------------------------
Label_2_013A74E6:
 BYTE   W01
 BYTE   N11  Bn0  v127
 BYTE   W12
 BYTE   N01  Bn1  v092
 BYTE   W06
 BYTE   N11  Bn0  v127
 BYTE   W12
 BYTE   N04
 BYTE   W06
 BYTE   N11  An0
 BYTE   W12
 BYTE   N04  Bn0
 BYTE   W06
 BYTE   Bn1
 BYTE   W06
 BYTE   Bn0
 BYTE   W06
 BYTE   N01  Bn1  v092
 BYTE   W06
 BYTE   N11  Bn0  v127
 BYTE   W12
 BYTE   N05  Fs1
 BYTE   W06
 BYTE   Bn1
 BYTE   W05
 BYTE   PEND 
 BYTE   PATT
  POIN2 Label_2_013A7471
 BYTE   PATT
  POIN2 Label_2_013A7498
 BYTE   PATT
  POIN2 Label_2_013A74BF
 BYTE   PATT
  POIN2 Label_2_013A74E6
 BYTE   PATT
  POIN2 Label_2_013A7471
 BYTE   PATT
  POIN2 Label_2_013A7498
 BYTE   PATT
  POIN2 Label_2_013A74BF
 BYTE   PATT
  POIN2 Label_2_013A74E6
 BYTE   PATT
  POIN2 Label_2_013A7471
 BYTE   PATT
  POIN2 Label_2_013A7498
 BYTE   PATT
  POIN2 Label_2_013A74BF
 BYTE   PATT
  POIN2 Label_2_013A74E6
// 009   ----------------------------------------
Label_2_013A7549:
 BYTE   W01
 BYTE   N11  Cn1  v127
 BYTE   W12
 BYTE   Gn0
 BYTE   W12
 BYTE   Cn1
 BYTE   W12
 BYTE   Gn0
 BYTE   W12
 BYTE   Cn1
 BYTE   W12
 BYTE   Gn0
 BYTE   W12
 BYTE   Cn1
 BYTE   W12
 BYTE   Gn0
 BYTE   W11
 BYTE   PEND 
// 010   ----------------------------------------
Label_2_013A755D:
 BYTE   W01
 BYTE   N11  Dn1  v127
 BYTE   W12
 BYTE   An0
 BYTE   W12
 BYTE   Dn1
 BYTE   W12
 BYTE   An0
 BYTE   W12
 BYTE   Dn1
 BYTE   W12
 BYTE   An0
 BYTE   W12
 BYTE   Dn1
 BYTE   W12
 BYTE   An0
 BYTE   W11
 BYTE   PEND 
// 011   ----------------------------------------
Label_2_013A7571:
 BYTE   W01
 BYTE   N11  En0  v127
 BYTE   W12
 BYTE   N05  En1
 BYTE   W12
 BYTE   N11  En0
 BYTE   W12
 BYTE   N05  En1
 BYTE   W12
 BYTE   N11  En0
 BYTE   W12
 BYTE   N05  En1
 BYTE   W12
 BYTE   N11  En0
 BYTE   W12
 BYTE   N05  En1
 BYTE   W11
 BYTE   PEND 
// 012   ----------------------------------------
Label_2_013A758C:
 BYTE   W01
 BYTE   N11  Bn0  v127
 BYTE   W12
 BYTE   N05  Bn1
 BYTE   W12
 BYTE   N11  Bn0
 BYTE   W12
 BYTE   N05  Bn1
 BYTE   W12
 BYTE   N11  Bn0
 BYTE   W12
 BYTE   N05  Bn1
 BYTE   W12
 BYTE   N04  Fs1
 BYTE   W06
 BYTE   Ds1
 BYTE   W06
 BYTE   Bn0
 BYTE   W06
 BYTE   Bn1
 BYTE   W05
 BYTE   PEND 
 BYTE   PATT
  POIN2 Label_2_013A7549
 BYTE   PATT
  POIN2 Label_2_013A755D
// 013   ----------------------------------------
Label_2_013A75B4:
 BYTE   W01
 BYTE   N11  Bn0  v127
 BYTE   W12
 BYTE   Bn1
 BYTE   W12
 BYTE   Bn0
 BYTE   W12
 BYTE   Bn1
 BYTE   W12
 BYTE   Bn0
 BYTE   W12
 BYTE   Bn1
 BYTE   W12
 BYTE   Bn0
 BYTE   W12
 BYTE   Bn1
 BYTE   W11
 BYTE   PEND 
// 014   ----------------------------------------
Label_2_013A75C8:
 BYTE   W01
 BYTE   N11  Bn0  v127
 BYTE   W12
 BYTE   Bn1
 BYTE   W12
 BYTE   Bn0
 BYTE   W12
 BYTE   Bn1
 BYTE   W12
 BYTE   Cn1
 BYTE   W12
 BYTE   Gn0
 BYTE   W12
 BYTE   Dn1
 BYTE   W12
 BYTE   An0
 BYTE   W11
 BYTE   PEND 
 BYTE   PATT
  POIN2 Label_2_013A7471
 BYTE   PATT
  POIN2 Label_2_013A7498
 BYTE   PATT
  POIN2 Label_2_013A74BF
 BYTE   PATT
  POIN2 Label_2_013A74E6
 BYTE   PATT
  POIN2 Label_2_013A7471
 BYTE   PATT
  POIN2 Label_2_013A7498
 BYTE   PATT
  POIN2 Label_2_013A74BF
 BYTE   PATT
  POIN2 Label_2_013A74E6
// 015   ----------------------------------------
Label_2_013A7604:
 BYTE   W01
 BYTE   N11  Cn1  v127
 BYTE   W12
 BYTE   N05  Cn2
 BYTE   W06
 BYTE   N05
 BYTE   W06
 BYTE   N11  Cn1
 BYTE   W12
 BYTE   N05  Cn2
 BYTE   W06
 BYTE   N05
 BYTE   W06
 BYTE   N11  Cn1
 BYTE   W12
 BYTE   N05  Cn2
 BYTE   W06
 BYTE   N05
 BYTE   W06
 BYTE   N11  Cn1
 BYTE   W12
 BYTE   N05  Cn2
 BYTE   W06
 BYTE   N05
 BYTE   W05
 BYTE   PEND 
 BYTE   PATT
  POIN2 Label_2_013A7604
 BYTE   PATT
  POIN2 Label_2_013A7604
// 016   ----------------------------------------
Label_2_013A7631:
 BYTE   W01
 BYTE   N11  An0  v127
 BYTE   W12
 BYTE   N05  An1
 BYTE   W06
 BYTE   N05
 BYTE   W06
 BYTE   N11  An0
 BYTE   W12
 BYTE   N05  An1
 BYTE   W06
 BYTE   N05
 BYTE   W06
 BYTE   N11  Bn0
 BYTE   W12
 BYTE   N05  Bn1
 BYTE   W06
 BYTE   N05
 BYTE   W06
 BYTE   N11  Bn0
 BYTE   W12
 BYTE   N05  Bn1
 BYTE   W06
 BYTE   N05
 BYTE   W05
 BYTE   PEND 
 BYTE   PATT
  POIN2 Label_2_013A7604
 BYTE   PATT
  POIN2 Label_2_013A7604
 BYTE   PATT
  POIN2 Label_2_013A7604
// 017   ----------------------------------------
 BYTE   W01
 BYTE   N11  Dn0  v127
 BYTE   W12
 BYTE   N05  Dn1
 BYTE   W06
 BYTE   N05
 BYTE   W06
 BYTE   N11  Dn0
 BYTE   W12
 BYTE   N05  Dn1
 BYTE   W06
 BYTE   N05
 BYTE   W06
 BYTE   N11  Dn0
 BYTE   W12
 BYTE   N05  Dn1
 BYTE   W06
 BYTE   N05
 BYTE   W06
 BYTE   N11  Dn0
 BYTE   W12
 BYTE   N05  Dn1
 BYTE   W06
 BYTE   N05
 BYTE   W05
// 018   ----------------------------------------
 BYTE   W01
 BYTE   N11  En0
 BYTE   W12
 BYTE   N11
 BYTE   W12
 BYTE   N11
 BYTE   W12
 BYTE   N11
 BYTE   W12
 BYTE   N11
 BYTE   W12
 BYTE   N11
 BYTE   W12
 BYTE   N11
 BYTE   W12
 BYTE   N11
 BYTE   W11
// 019   ----------------------------------------
 BYTE   W01
 BYTE   Bn0
 BYTE   W12
 BYTE   N11
 BYTE   W12
 BYTE   N11
 BYTE   W12
 BYTE   N11
 BYTE   W12
 BYTE   N11
 BYTE   W12
 BYTE   N11
 BYTE   W12
 BYTE   N11
 BYTE   W12
 BYTE   N11
 BYTE   W11
// 020   ----------------------------------------
 BYTE   W01
 BYTE   Cn1
 BYTE   W12
 BYTE   N11
 BYTE   W12
 BYTE   N11
 BYTE   W12
 BYTE   N11
 BYTE   W12
 BYTE   N11
 BYTE   W12
 BYTE   Gn0
 BYTE   W12
 BYTE   Cn1
 BYTE   W12
 BYTE   Gn0
 BYTE   W11
// 021   ----------------------------------------
 BYTE   W01
 BYTE   Cn1
 BYTE   W12
 BYTE   Ds1
 BYTE   W12
 BYTE   An1
 BYTE   W12
 BYTE   Fs1
 BYTE   W12
 BYTE   Ds1
 BYTE   W12
 BYTE   Cn1
 BYTE   W12
 BYTE   An0
 BYTE   W12
 BYTE   Fs0
 BYTE   W11
 BYTE   PATT
  POIN2 Label_2_013A74BF
// 022   ----------------------------------------
 BYTE   W01
 BYTE   N11  Bn0  v127
 BYTE   W12
 BYTE   N01  Bn1  v092
 BYTE   W06
 BYTE   N11  Bn0  v127
 BYTE   W12
 BYTE   N04
 BYTE   W06
 BYTE   N11  An0
 BYTE   W12
 BYTE   N04  Bn0
 BYTE   W06
 BYTE   N04
 BYTE   W06
 BYTE   N04
 BYTE   W06
 BYTE   N01  Bn1  v092
 BYTE   W06
 BYTE   N11  Bn0  v127
 BYTE   W12
 BYTE   N05  Fs1
 BYTE   W06
 BYTE   Bn1
 BYTE   W05
// 023   ----------------------------------------
 BYTE   W01
 BYTE   N11  Cn1
 BYTE   W12
 BYTE   N01  Cn2  v092
 BYTE   W06
 BYTE   N11  Cn1  v127
 BYTE   W12
 BYTE   N04
 BYTE   W06
 BYTE   N11  Bn0
 BYTE   W12
 BYTE   N04  Cn1
 BYTE   W06
 BYTE   Cn2
 BYTE   W06
 BYTE   Cn1
 BYTE   W06
 BYTE   N01  Cn1  v092
 BYTE   W06
 BYTE   N11  Bn0  v127
 BYTE   W12
 BYTE   N05  Cn1
 BYTE   W06
 BYTE   Cn2
 BYTE   W05
// 024   ----------------------------------------
 BYTE   W01
 BYTE   N11  Bn0
 BYTE   W12
 BYTE   Fs0
 BYTE   W12
 BYTE   Bn0
 BYTE   W12
 BYTE   Fs0
 BYTE   W12
 BYTE   Bn0
 BYTE   W12
 BYTE   Fs0
 BYTE   W12
 BYTE   Bn0
 BYTE   W12
 BYTE   Fs0
 BYTE   W11
 BYTE   PATT
  POIN2 Label_2_013A7549
 BYTE   PATT
  POIN2 Label_2_013A755D
 BYTE   PATT
  POIN2 Label_2_013A7571
 BYTE   PATT
  POIN2 Label_2_013A758C
 BYTE   PATT
  POIN2 Label_2_013A7549
 BYTE   PATT
  POIN2 Label_2_013A755D
 BYTE   PATT
  POIN2 Label_2_013A75B4
 BYTE   PATT
  POIN2 Label_2_013A75C8
 BYTE   PATT
  POIN2 Label_2_013A7604
 BYTE   PATT
  POIN2 Label_2_013A7604
 BYTE   PATT
  POIN2 Label_2_013A7604
 BYTE   PATT
  POIN2 Label_2_013A7631
 BYTE   PATT
  POIN2 Label_2_013A7604
 BYTE   PATT
  POIN2 Label_2_013A7604
 BYTE   PATT
  POIN2 Label_2_013A7604
// 025   ----------------------------------------
 BYTE   W01
 BYTE   N11  Dn0  v127
 BYTE   W12
 BYTE   N05  Dn1
 BYTE   W06
 BYTE   N05
 BYTE   W06
 BYTE   N11  Dn0
 BYTE   W12
 BYTE   N05  Dn1
 BYTE   W06
 BYTE   N05
 BYTE   W06
 BYTE   N11  Dn0
 BYTE   W12
 BYTE   N05  Dn1
 BYTE   W06
 BYTE   N05
 BYTE   W06
 BYTE   N11  Dn0
 BYTE   W12
 BYTE   N05  Dn1
 BYTE   W06
 BYTE   N04
 BYTE   W05
// 026   ----------------------------------------
 BYTE   GoTo
  POIN2 Label_2_013A7412
 BYTE   FINE

//**************** Track 4 (Midi-Chn.3) ****************//

song03_004:
// 000   ----------------------------------------
 BYTE   KEYSH   song03_key+0
Label_3_013A77A2:
 BYTE   VOICE   62
 BYTE   PAN   c_v-42
 BYTE   VOL   26*song03_mvl/mxv
 BYTE   BEND   c_v+0
 BYTE   W96
// 001   ----------------------------------------
 BYTE   W96
// 002   ----------------------------------------
 BYTE   W96
// 003   ----------------------------------------
 BYTE   W96
// 004   ----------------------------------------
 BYTE   W96
// 005   ----------------------------------------
 BYTE   W96
// 006   ----------------------------------------
 BYTE   W96
// 007   ----------------------------------------
 BYTE   W96
// 008   ----------------------------------------
 BYTE   W96
// 009   ----------------------------------------
 BYTE   W96
// 010   ----------------------------------------
 BYTE   W96
// 011   ----------------------------------------
 BYTE   W96
// 012   ----------------------------------------
 BYTE   W96
// 013   ----------------------------------------
 BYTE   W96
// 014   ----------------------------------------
 BYTE   W96
// 015   ----------------------------------------
 BYTE   W96
// 016   ----------------------------------------
 BYTE   W96
// 017   ----------------------------------------
 BYTE   W96
// 018   ----------------------------------------
 BYTE   W96
// 019   ----------------------------------------
 BYTE   W96
// 020   ----------------------------------------
 BYTE   W96
// 021   ----------------------------------------
 BYTE   W96
// 022   ----------------------------------------
 BYTE   W96
// 023   ----------------------------------------
 BYTE   W96
// 024   ----------------------------------------
 BYTE   W96
// 025   ----------------------------------------
 BYTE   W96
// 026   ----------------------------------------
 BYTE   W96
// 027   ----------------------------------------
 BYTE   W96
// 028   ----------------------------------------
 BYTE   W96
// 029   ----------------------------------------
 BYTE   W96
// 030   ----------------------------------------
 BYTE   W96
// 031   ----------------------------------------
 BYTE   W96
// 032   ----------------------------------------
 BYTE   W96
// 033   ----------------------------------------
 BYTE   W96
// 034   ----------------------------------------
 BYTE   W96
// 035   ----------------------------------------
 BYTE   W96
// 036   ----------------------------------------
 BYTE   W96
// 037   ----------------------------------------
Label_3_013A77CF:
 BYTE   W01
 BYTE   N14  Gn3  v112
 BYTE   N14  Cn4
 BYTE   N14  En4
 BYTE   W18
 BYTE   N11  Gn3
 BYTE   N11  Cn4
 BYTE   N11  En4
 BYTE   W12
 BYTE   N05  Gn3
 BYTE   N05  Cn4
 BYTE   N05  Dn4
 BYTE   W06
 BYTE   Gn3
 BYTE   N05  Cn4
 BYTE   N05  En4
 BYTE   W12
 BYTE   N16  An3
 BYTE   N16  Dn4
 BYTE   N16  Fs4
 BYTE   W18
 BYTE   Bn3
 BYTE   N16  Dn4
 BYTE   N16  Gn4
 BYTE   W18
 BYTE   N11  An3
 BYTE   N11  Dn4
 BYTE   N11  Fs4
 BYTE   W11
 BYTE   PEND 
// 038   ----------------------------------------
Label_3_013A7801:
 BYTE   W01
 BYTE   N14  Gn3  v112
 BYTE   N14  Cn4
 BYTE   N14  En4
 BYTE   W18
 BYTE   N11  Gn3
 BYTE   N11  Cn4
 BYTE   N11  En4
 BYTE   W12
 BYTE   N05  Gn3
 BYTE   N05  Cn4
 BYTE   N05  Dn4
 BYTE   W06
 BYTE   Gn3
 BYTE   N05  Cn4
 BYTE   N05  En4
 BYTE   W12
 BYTE   N16  An3
 BYTE   N16  Dn4
 BYTE   N16  Fs4
 BYTE   W18
 BYTE   An3
 BYTE   N16  Dn4
 BYTE   N16  En4
 BYTE   W18
 BYTE   N11  An3
 BYTE   N11  Dn4
 BYTE   N11  Fs4
 BYTE   W11
 BYTE   PEND 
 BYTE   PATT
  POIN2 Label_3_013A77CF
// 039   ----------------------------------------
 BYTE   W01
 BYTE   BEND   c_v-10
 BYTE   N44  An3  v112
 BYTE   N44  Dn4
 BYTE   N44  En4
 BYTE   W01
 BYTE   BEND   c_v-9
 BYTE   W01
 BYTE   Gs2
 BYTE   W01
 BYTE   An2
 BYTE   W01
 BYTE   As2
 BYTE   W01
 BYTE   As2
 BYTE   W01
 BYTE   Bn2
 BYTE   W01
 BYTE   Bn2
 BYTE   W01
 BYTE   Cn3
 BYTE   W01
 BYTE   Cn3
 BYTE   W01
 BYTE   Cs3
 BYTE   W01
 BYTE   Cs3
 BYTE   W01
 BYTE   Cs3
 BYTE   W01
 BYTE   Cs3
 BYTE   W01
 BYTE   Dn3
 BYTE   W01
 BYTE   Dn3
 BYTE   W01
 BYTE   Dn3
 BYTE   W01
 BYTE   Dn3
 BYTE   W01
 BYTE   Dn3
 BYTE   W01
 BYTE   Ds3
 BYTE   W01
 BYTE   Ds3
 BYTE   W02
 BYTE   Ds3
 BYTE   W02
 BYTE   Ds3
 BYTE   W02
 BYTE   Ds3
 BYTE   W04
 BYTE   Ds3
 BYTE   W06
 BYTE   En3
 BYTE   W12
 BYTE   En3
 BYTE   N44  Bn3
 BYTE   N44  En4
 BYTE   N44  Fs4
 BYTE   W12
 BYTE   BEND   c_v-1
 BYTE   W06
 BYTE   Ds3
 BYTE   W03
 BYTE   Ds3
 BYTE   W03
 BYTE   Ds3
 BYTE   W02
 BYTE   Ds3
 BYTE   W01
 BYTE   Ds3
 BYTE   W02
 BYTE   Dn3
 BYTE   W01
 BYTE   Dn3
 BYTE   W01
 BYTE   Dn3
 BYTE   W01
 BYTE   Dn3
 BYTE   W01
 BYTE   Dn3
 BYTE   W01
 BYTE   Cs3
 BYTE   W01
 BYTE   Cs3
 BYTE   W01
 BYTE   Cs3
 BYTE   W01
 BYTE   Cn3
 BYTE   W01
 BYTE   Cn3
 BYTE   W01
 BYTE   Cn3
 BYTE   W01
 BYTE   Bn2
 BYTE   W01
 BYTE   Bn2
 BYTE   W01
 BYTE   As2
 BYTE   W01
 BYTE   An2
 BYTE   W01
 BYTE   Gs2
 BYTE   W01
 BYTE   Gs2
 BYTE   W01
 BYTE   Gn2
 BYTE   W01
// 040   ----------------------------------------
 BYTE   Fn2
 BYTE   W01
 BYTE   En3
 BYTE   N14  Gn3
 BYTE   N14  Cn4
 BYTE   N14  En4
 BYTE   W18
 BYTE   N11  Gn3
 BYTE   N11  Cn4
 BYTE   N11  En4
 BYTE   W12
 BYTE   N05  Gn3
 BYTE   N05  Cn4
 BYTE   N05  Dn4
 BYTE   W06
 BYTE   Gn3
 BYTE   N05  Cn4
 BYTE   N05  En4
 BYTE   W12
 BYTE   N16  An3
 BYTE   N16  Dn4
 BYTE   N16  Fs4
 BYTE   W18
 BYTE   Bn3
 BYTE   N16  Dn4
 BYTE   N16  Gn4
 BYTE   W18
 BYTE   N11  An3
 BYTE   N11  Dn4
 BYTE   N11  Fs4
 BYTE   W11
 BYTE   PATT
  POIN2 Label_3_013A7801
 BYTE   PATT
  POIN2 Label_3_013A77CF
// 041   ----------------------------------------
 BYTE   W01
 BYTE   N16  Gn3  v112
 BYTE   N16  Cn4
 BYTE   N16  Fs4
 BYTE   W18
 BYTE   Gn3
 BYTE   N16  Cn4
 BYTE   N16  En4
 BYTE   W18
 BYTE   N07  Gn3
 BYTE   N07  Cn4
 BYTE   N07  Dn4
 BYTE   W12
 BYTE   N16  Gn3
 BYTE   N16  Cn4
 BYTE   N16  Fs4
 BYTE   W18
 BYTE   Gn3
 BYTE   N16  Cn4
 BYTE   N16  En4
 BYTE   W18
 BYTE   N07  Gn3
 BYTE   N07  Cn4
 BYTE   N07  Dn4
 BYTE   W11
// 042   ----------------------------------------
 BYTE   W96
// 043   ----------------------------------------
 BYTE   W96
// 044   ----------------------------------------
 BYTE   W96
// 045   ----------------------------------------
 BYTE   W96
// 046   ----------------------------------------
 BYTE   W96
// 047   ----------------------------------------
 BYTE   W96
// 048   ----------------------------------------
 BYTE   W96
// 049   ----------------------------------------
 BYTE   W96
// 050   ----------------------------------------
 BYTE   W96
// 051   ----------------------------------------
 BYTE   W96
// 052   ----------------------------------------
 BYTE   W96
// 053   ----------------------------------------
 BYTE   W96
// 054   ----------------------------------------
 BYTE   W96
// 055   ----------------------------------------
 BYTE   W96
// 056   ----------------------------------------
 BYTE   W96
// 057   ----------------------------------------
 BYTE   W96
// 058   ----------------------------------------
Label_3_013A7925:
 BYTE   W01
 BYTE   N14  Gn3  v124
 BYTE   N14  Cn4
 BYTE   N14  En4
 BYTE   W18
 BYTE   N11  Gn3
 BYTE   N11  Cn4
 BYTE   N11  En4
 BYTE   W12
 BYTE   N05  Gn3
 BYTE   N05  Cn4
 BYTE   N05  Dn4
 BYTE   W06
 BYTE   Gn3
 BYTE   N05  Cn4
 BYTE   N05  En4
 BYTE   W12
 BYTE   N16  An3
 BYTE   N16  Dn4
 BYTE   N16  Fs4
 BYTE   W18
 BYTE   Bn3
 BYTE   N16  Dn4
 BYTE   N16  Gn4
 BYTE   W18
 BYTE   N11  An3
 BYTE   N11  Dn4
 BYTE   N11  Fs4
 BYTE   W11
 BYTE   PEND 
// 059   ----------------------------------------
Label_3_013A7957:
 BYTE   W01
 BYTE   N14  Gn3  v124
 BYTE   N14  Cn4
 BYTE   N14  En4
 BYTE   W18
 BYTE   N11  Gn3
 BYTE   N11  Cn4
 BYTE   N11  En4
 BYTE   W12
 BYTE   N05  Gn3
 BYTE   N05  Cn4
 BYTE   N05  Dn4
 BYTE   W06
 BYTE   Gn3
 BYTE   N05  Cn4
 BYTE   N05  En4
 BYTE   W12
 BYTE   N16  An3
 BYTE   N16  Dn4
 BYTE   N16  Fs4
 BYTE   W18
 BYTE   An3
 BYTE   N16  Dn4
 BYTE   N16  En4
 BYTE   W18
 BYTE   N11  An3
 BYTE   N11  Dn4
 BYTE   N11  Fs4
 BYTE   W11
 BYTE   PEND 
 BYTE   PATT
  POIN2 Label_3_013A7925
// 060   ----------------------------------------
 BYTE   W01
 BYTE   BEND   c_v-10
 BYTE   N44  An3  v124
 BYTE   N44  Dn4
 BYTE   N44  En4
 BYTE   W01
 BYTE   BEND   c_v-9
 BYTE   W01
 BYTE   Gs2
 BYTE   W01
 BYTE   An2
 BYTE   W01
 BYTE   As2
 BYTE   W01
 BYTE   As2
 BYTE   W01
 BYTE   Bn2
 BYTE   W01
 BYTE   Bn2
 BYTE   W01
 BYTE   Cn3
 BYTE   W01
 BYTE   Cn3
 BYTE   W01
 BYTE   Cs3
 BYTE   W01
 BYTE   Cs3
 BYTE   W01
 BYTE   Cs3
 BYTE   W01
 BYTE   Cs3
 BYTE   W01
 BYTE   Dn3
 BYTE   W01
 BYTE   Dn3
 BYTE   W01
 BYTE   Dn3
 BYTE   W01
 BYTE   Dn3
 BYTE   W01
 BYTE   Dn3
 BYTE   W01
 BYTE   Ds3
 BYTE   W01
 BYTE   Ds3
 BYTE   W02
 BYTE   Ds3
 BYTE   W02
 BYTE   Ds3
 BYTE   W02
 BYTE   Ds3
 BYTE   W04
 BYTE   Ds3
 BYTE   W06
 BYTE   En3
 BYTE   W12
 BYTE   En3
 BYTE   N44  Bn3
 BYTE   N44  En4
 BYTE   N44  Fs4
 BYTE   W12
 BYTE   BEND   c_v-1
 BYTE   W06
 BYTE   Ds3
 BYTE   W03
 BYTE   Ds3
 BYTE   W03
 BYTE   Ds3
 BYTE   W02
 BYTE   Ds3
 BYTE   W01
 BYTE   Ds3
 BYTE   W02
 BYTE   Dn3
 BYTE   W01
 BYTE   Dn3
 BYTE   W01
 BYTE   Dn3
 BYTE   W01
 BYTE   Dn3
 BYTE   W01
 BYTE   Dn3
 BYTE   W01
 BYTE   Cs3
 BYTE   W01
 BYTE   Cs3
 BYTE   W01
 BYTE   Cs3
 BYTE   W01
 BYTE   Cn3
 BYTE   W01
 BYTE   Cn3
 BYTE   W01
 BYTE   Cn3
 BYTE   W01
 BYTE   Bn2
 BYTE   W01
 BYTE   Bn2
 BYTE   W01
 BYTE   As2
 BYTE   W01
 BYTE   An2
 BYTE   W01
 BYTE   Gs2
 BYTE   W01
 BYTE   Gs2
 BYTE   W01
 BYTE   Gn2
 BYTE   W01
// 061   ----------------------------------------
 BYTE   Fn2
 BYTE   W01
 BYTE   En3
 BYTE   N14  Gn3
 BYTE   N14  Cn4
 BYTE   N14  En4
 BYTE   W18
 BYTE   N11  Gn3
 BYTE   N11  Cn4
 BYTE   N11  En4
 BYTE   W12
 BYTE   N05  Gn3
 BYTE   N05  Cn4
 BYTE   N05  Dn4
 BYTE   W06
 BYTE   Gn3
 BYTE   N05  Cn4
 BYTE   N05  En4
 BYTE   W12
 BYTE   N16  An3
 BYTE   N16  Dn4
 BYTE   N16  Fs4
 BYTE   W18
 BYTE   Bn3
 BYTE   N16  Dn4
 BYTE   N16  Gn4
 BYTE   W18
 BYTE   N11  An3
 BYTE   N11  Dn4
 BYTE   N11  Fs4
 BYTE   W11
 BYTE   PATT
  POIN2 Label_3_013A7957
 BYTE   PATT
  POIN2 Label_3_013A7925
// 062   ----------------------------------------
 BYTE   W01
 BYTE   N16  Gn3  v124
 BYTE   N16  Cn4
 BYTE   N16  Fs4
 BYTE   W18
 BYTE   Gn3
 BYTE   N16  Cn4
 BYTE   N16  En4
 BYTE   W18
 BYTE   N07  Gn3
 BYTE   N07  Cn4
 BYTE   N07  Dn4
 BYTE   W12
 BYTE   N16  Gn3
 BYTE   N16  Cn4
 BYTE   N16  Fs4
 BYTE   W18
 BYTE   Gn3
 BYTE   N16  Cn4
 BYTE   N16  En4
 BYTE   W18
 BYTE   N07  Gn3
 BYTE   N07  Cn4
 BYTE   N07  Dn4
 BYTE   W11
// 063   ----------------------------------------
 BYTE   GoTo
  POIN2 Label_3_013A77A2
 BYTE   FINE

//**************** Track 5 (Midi-Chn.4) ****************//

song03_005:
// 000   ----------------------------------------
 BYTE   KEYSH   song03_key+0
Label_4_013A7A76:
 BYTE   VOICE   49
 BYTE   PAN   c_v+0
 BYTE   VOL   24*song03_mvl/mxv
 BYTE   BEND   c_v+0
 BYTE   W01
 BYTE   TIE  Fs2  v127
 BYTE   N92  Cs3
 BYTE   N92  An3
 BYTE   N92  En4
 BYTE   W92
 BYTE   W03
// 001   ----------------------------------------
 BYTE   W01
 BYTE   Ds3
 BYTE   TIE  Bn3
 BYTE   TIE  Fs4
 BYTE   W92
 BYTE   W03
// 002   ----------------------------------------
 BYTE   W01
 BYTE   N92  Dn3
 BYTE   W92
 BYTE   W02
 BYTE   EOT
 BYTE   Bn3
 BYTE   W01
// 003   ----------------------------------------
 BYTE   W01
 BYTE   N92  Cs3
 BYTE   N44  As3
 BYTE   W44
 BYTE   W02
 BYTE   EOT
 BYTE   Fs2  v078
 BYTE   W02
 BYTE   N44  En2
 BYTE   N44  An3
 BYTE   N44  En4
 BYTE   W44
 BYTE   W03
// 004   ----------------------------------------
 BYTE   W01
 BYTE   N92  Gn2
 BYTE   N92  Dn3
 BYTE   N92  Bn3
 BYTE   N92  Gn4
 BYTE   W92
 BYTE   W03
// 005   ----------------------------------------
 BYTE   W96
// 006   ----------------------------------------
 BYTE   W96
// 007   ----------------------------------------
 BYTE   W96
// 008   ----------------------------------------
 BYTE   W96
// 009   ----------------------------------------
 BYTE   W96
// 010   ----------------------------------------
 BYTE   W96
// 011   ----------------------------------------
 BYTE   W96
// 012   ----------------------------------------
 BYTE   W96
// 013   ----------------------------------------
Label_4_013A7AC0:
 BYTE   W01
 BYTE   TIE  Fs2  v120
 BYTE   N92  Cs3
 BYTE   N92  An3
 BYTE   N92  En4
 BYTE   W92
 BYTE   W03
 BYTE   PEND 
// 014   ----------------------------------------
Label_4_013A7ACD:
 BYTE   W01
 BYTE   N92  Ds3  v120
 BYTE   N92  Bn3
 BYTE   N92  Fs4
 BYTE   W92
 BYTE   W02
 BYTE   PEND 
 BYTE   EOT
 BYTE   Fs2
 BYTE   W01
// 015   ----------------------------------------
Label_4_013A7ADB:
 BYTE   W01
 BYTE   N92  En2  v120
 BYTE   TIE  Bn2
 BYTE   N92  Gn3
 BYTE   TIE  En4
 BYTE   W92
 BYTE   W03
 BYTE   PEND 
// 016   ----------------------------------------
Label_4_013A7AE8:
 BYTE   W01
 BYTE   N92  Ds2  v120
 BYTE   N92  Fs3
 BYTE   W44
 BYTE   W02
 BYTE   PEND 
 BYTE   EOT
 BYTE   En4
 BYTE   W02
 BYTE   N44  Ds4
 BYTE   W44
 BYTE   W02
 BYTE   EOT
 BYTE   Bn2
 BYTE   W01
 BYTE   PATT
  POIN2 Label_4_013A7AC0
 BYTE   PATT
  POIN2 Label_4_013A7ACD
// 017   ----------------------------------------
 BYTE   EOT
 BYTE   Fs2
 BYTE   W01
 BYTE   PATT
  POIN2 Label_4_013A7ADB
 BYTE   PATT
  POIN2 Label_4_013A7AE8
// 018   ----------------------------------------
 BYTE   EOT
 BYTE   En4
 BYTE   W02
 BYTE   N44  Ds4  v120
 BYTE   W44
 BYTE   W02
 BYTE   EOT
 BYTE   Bn2
 BYTE   W01
 BYTE   W01
 BYTE   N92  En4
 BYTE   W92
// 019   ----------------------------------------
 BYTE   W03
 BYTE   W01
 BYTE   N44  Dn4
 BYTE   W48
 BYTE   Fs4
 BYTE   W44
// 020   ----------------------------------------
 BYTE   W03
 BYTE   W01
 BYTE   Gn4
 BYTE   W48
 BYTE   Bn4
 BYTE   W44
// 021   ----------------------------------------
 BYTE   W03
 BYTE   W01
 BYTE   An4
 BYTE   W48
 BYTE   TIE  Bn4
 BYTE   W44
// 022   ----------------------------------------
 BYTE   W03
 BYTE   W92
 BYTE   W03
// 023   ----------------------------------------
 BYTE   EOT
 BYTE   W01
 BYTE   W01
 BYTE   N44  An4
 BYTE   W48
 BYTE   TIE  Fs4
 BYTE   W44
 BYTE   W03
// 024   ----------------------------------------
 BYTE   W92
 BYTE   W03
 BYTE   EOT
 BYTE   W01
// 025   ----------------------------------------
 BYTE   W01
 BYTE   N92  Bn4
 BYTE   W92
 BYTE   W03
 BYTE   PATT
  POIN2 Label_4_013A7AC0
 BYTE   PATT
  POIN2 Label_4_013A7ACD
// 026   ----------------------------------------
 BYTE   EOT
 BYTE   Fs2
 BYTE   W01
 BYTE   PATT
  POIN2 Label_4_013A7ADB
 BYTE   PATT
  POIN2 Label_4_013A7AE8
// 027   ----------------------------------------
 BYTE   EOT
 BYTE   En4
 BYTE   W02
 BYTE   N44  Ds4  v120
 BYTE   W44
 BYTE   W02
 BYTE   EOT
 BYTE   Bn2
 BYTE   W01
 BYTE   PATT
  POIN2 Label_4_013A7AC0
 BYTE   PATT
  POIN2 Label_4_013A7ACD
// 028   ----------------------------------------
 BYTE   EOT
 BYTE   Fs2
 BYTE   W01
 BYTE   PATT
  POIN2 Label_4_013A7ADB
 BYTE   PATT
  POIN2 Label_4_013A7AE8
// 029   ----------------------------------------
 BYTE   EOT
 BYTE   En4
 BYTE   W02
 BYTE   N44  Ds4  v120
 BYTE   W44
 BYTE   W02
 BYTE   EOT
 BYTE   Bn2
 BYTE   W01
Label_4_013A7B8F:
 BYTE   W01
 BYTE   N44  Cn5  v127
 BYTE   W48
// 030   ----------------------------------------
 BYTE   Bn4
 BYTE   W44
 BYTE   W03
 BYTE   PEND 
Label_4_013A7B98:
 BYTE   W01
 BYTE   N44  An4  v127
 BYTE   W48
// 031   ----------------------------------------
 BYTE   Gn4
 BYTE   W44
 BYTE   W03
 BYTE   PEND 
Label_4_013A7BA1:
 BYTE   W01
 BYTE   N92  Fs4  v127
 BYTE   W92
// 032   ----------------------------------------
 BYTE   W03
 BYTE   PEND 
Label_4_013A7BA8:
 BYTE   W01
 BYTE   N44  En4  v127
 BYTE   N44  An4
 BYTE   W48
 BYTE   Fs4
 BYTE   N44  Bn4
 BYTE   W44
// 033   ----------------------------------------
 BYTE   W03
 BYTE   PEND 
Label_4_013A7BB5:
 BYTE   W01
 BYTE   N18  Cn5  v127
 BYTE   W18
 BYTE   Bn4
 BYTE   W18
 BYTE   N12  An4
 BYTE   W12
 BYTE   N18  Gn4
 BYTE   W18
 BYTE   Fs4
 BYTE   W18
 BYTE   N12  Gn4
 BYTE   W11
 BYTE   PEND 
// 034   ----------------------------------------
Label_4_013A7BC8:
 BYTE   W01
 BYTE   N44  An4  v127
 BYTE   W48
 BYTE   En4
 BYTE   W44
 BYTE   W03
 BYTE   PEND 
// 035   ----------------------------------------
Label_4_013A7BD1:
 BYTE   W01
 BYTE   N44  Dn4  v127
 BYTE   W48
 BYTE   En4
 BYTE   W44
 BYTE   W03
 BYTE   PEND 
// 036   ----------------------------------------
 BYTE   W01
 BYTE   N18  Fs4
 BYTE   W18
 BYTE   Gn4
 BYTE   W18
 BYTE   N30  An4
 BYTE   W30
 BYTE   N18  Gn4
 BYTE   W18
 BYTE   N11  Fs4
 BYTE   W11
// 037   ----------------------------------------
 BYTE   W01
 BYTE   N92  Gn4
 BYTE   W92
 BYTE   W03
// 038   ----------------------------------------
Label_4_013A7BEE:
 BYTE   W01
 BYTE   N44  An4  v127
 BYTE   W48
 BYTE   TIE  Bn4
 BYTE   W44
 BYTE   W03
 BYTE   PEND 
// 039   ----------------------------------------
 BYTE   W96
// 040   ----------------------------------------
 BYTE   W96
// 041   ----------------------------------------
 BYTE   W44
 BYTE   W03
 BYTE   EOT
 BYTE   W02
 BYTE   N44  An4
 BYTE   W44
 BYTE   W03
// 042   ----------------------------------------
 BYTE   W01
 BYTE   Bn4
 BYTE   W48
 BYTE   Cn5
 BYTE   W44
 BYTE   W03
// 043   ----------------------------------------
 BYTE   W01
 BYTE   Dn5
 BYTE   W48
 BYTE   Cn5
 BYTE   W44
 BYTE   W03
// 044   ----------------------------------------
Label_4_013A7C0E:
 BYTE   W01
 BYTE   N92  Bn4  v127
 BYTE   W92
 BYTE   W03
 BYTE   PEND 
// 045   ----------------------------------------
 BYTE   W01
 BYTE   En4
 BYTE   W92
 BYTE   W03
// 046   ----------------------------------------
 BYTE   W01
 BYTE   N44  Dn4
 BYTE   W48
 BYTE   Fs4
 BYTE   W44
 BYTE   W03
// 047   ----------------------------------------
 BYTE   W01
 BYTE   Gn4
 BYTE   W48
 BYTE   Bn4
 BYTE   W44
 BYTE   W03
 BYTE   PATT
  POIN2 Label_4_013A7BEE
// 048   ----------------------------------------
 BYTE   W92
 BYTE   W03
 BYTE   EOT
 BYTE   Bn4
 BYTE   W01
// 049   ----------------------------------------
 BYTE   W01
 BYTE   N44  An4  v127
 BYTE   W48
 BYTE   TIE  Fs4
 BYTE   W44
 BYTE   W03
// 050   ----------------------------------------
 BYTE   W92
 BYTE   W03
 BYTE   EOT
 BYTE   W01
 BYTE   PATT
  POIN2 Label_4_013A7C0E
 BYTE   PATT
  POIN2 Label_4_013A7B8F
 BYTE   PATT
  POIN2 Label_4_013A7B98
 BYTE   PATT
  POIN2 Label_4_013A7BA1
 BYTE   PATT
  POIN2 Label_4_013A7BA8
 BYTE   PATT
  POIN2 Label_4_013A7BB5
 BYTE   PATT
  POIN2 Label_4_013A7BC8
 BYTE   PATT
  POIN2 Label_4_013A7BD1
// 051   ----------------------------------------
 BYTE   W01
 BYTE   N18  Fs4  v127
 BYTE   W18
 BYTE   Gn4
 BYTE   W18
 BYTE   N30  An4
 BYTE   W30
 BYTE   N18  Gn4
 BYTE   W18
 BYTE   N10  Fs4
 BYTE   W11
// 052   ----------------------------------------
 BYTE   GoTo
  POIN2 Label_4_013A7A76
 BYTE   FINE

//**************** Track 6 (Midi-Chn.5) ****************//

song03_006:
// 000   ----------------------------------------
 BYTE   KEYSH   song03_key+0
Label_5_013A7C7E:
 BYTE   VOICE   80
 BYTE   VOL   6*song03_mvl/mxv
 BYTE   PAN   c_v+42
 BYTE   BEND   c_v+0
 BYTE   W01
 BYTE   N04  Fs6  v112
 BYTE   W06
 BYTE   Cs6
 BYTE   W06
 BYTE   Fs5
 BYTE   W06
 BYTE   Cs6
 BYTE   W06
 BYTE   Fs6
 BYTE   W06
 BYTE   Cs6
 BYTE   W06
 BYTE   Fs5
 BYTE   W06
 BYTE   Cs6
 BYTE   W06
 BYTE   Fs6
 BYTE   W06
 BYTE   Cs6
 BYTE   W06
 BYTE   Fs5
 BYTE   W06
 BYTE   Cs6
 BYTE   W06
 BYTE   Fs6
 BYTE   W06
 BYTE   Cs6
 BYTE   W06
 BYTE   Fs5
 BYTE   W06
 BYTE   Cs6
 BYTE   W05
// 001   ----------------------------------------
Label_5_013A7CA9:
 BYTE   W01
 BYTE   N04  Fs6  v112
 BYTE   W06
 BYTE   Bn5
 BYTE   W06
 BYTE   Fs5
 BYTE   W06
 BYTE   Bn5
 BYTE   W06
 BYTE   Fs6
 BYTE   W06
 BYTE   Bn5
 BYTE   W06
 BYTE   Fs5
 BYTE   W06
 BYTE   Bn5
 BYTE   W06
 BYTE   Fs6
 BYTE   W06
 BYTE   Bn5
 BYTE   W06
 BYTE   Fs5
 BYTE   W06
 BYTE   Bn5
 BYTE   W06
 BYTE   Fs6
 BYTE   W06
 BYTE   Bn5
 BYTE   W06
 BYTE   Fs5
 BYTE   W06
 BYTE   Bn5
 BYTE   W05
 BYTE   PEND 
 BYTE   PATT
  POIN2 Label_5_013A7CA9
// 002   ----------------------------------------
 BYTE   W01
 BYTE   N04  Fs6  v112
 BYTE   W06
 BYTE   Cs6
 BYTE   W06
 BYTE   Fs5
 BYTE   W06
 BYTE   Cs6
 BYTE   W06
 BYTE   Fs6
 BYTE   W06
 BYTE   Cs6
 BYTE   W06
 BYTE   Fs5
 BYTE   W06
 BYTE   Cs6
 BYTE   W06
 BYTE   An4
 BYTE   W06
 BYTE   Cs5
 BYTE   W06
 BYTE   En5
 BYTE   W06
 BYTE   An5
 BYTE   W06
 BYTE   En5
 BYTE   W06
 BYTE   An5
 BYTE   W06
 BYTE   Cs6
 BYTE   W06
 BYTE   En6
 BYTE   W05
// 003   ----------------------------------------
 BYTE   W01
 BYTE   Gn6
 BYTE   W06
 BYTE   Dn6
 BYTE   W06
 BYTE   Gn5
 BYTE   W06
 BYTE   Dn6
 BYTE   W06
 BYTE   Gn6
 BYTE   W06
 BYTE   Dn6
 BYTE   W06
 BYTE   Gn5
 BYTE   W06
 BYTE   Dn6
 BYTE   W06
 BYTE   Gn6
 BYTE   W06
 BYTE   Dn6
 BYTE   W06
 BYTE   Gn5
 BYTE   W06
 BYTE   Dn6
 BYTE   W06
 BYTE   Gn6
 BYTE   W06
 BYTE   Dn6
 BYTE   W06
 BYTE   Gn5
 BYTE   W06
 BYTE   Dn6
 BYTE   W05
// 004   ----------------------------------------
Label_5_013A7D16:
 BYTE   W01
 BYTE   N04  En6  v108
 BYTE   W06
 BYTE   Cs6
 BYTE   W06
 BYTE   An5
 BYTE   W06
 BYTE   Fs5
 BYTE   W06
 BYTE   En5
 BYTE   W06
 BYTE   Cs5
 BYTE   W06
 BYTE   An4
 BYTE   W06
 BYTE   Fs4
 BYTE   W06
 BYTE   An4
 BYTE   W06
 BYTE   Cs5
 BYTE   W06
 BYTE   En5
 BYTE   W06
 BYTE   Fs5
 BYTE   W06
 BYTE   An5
 BYTE   W06
 BYTE   Cs6
 BYTE   W06
 BYTE   En6
 BYTE   W06
 BYTE   Fs5
 BYTE   W05
 BYTE   PEND 
// 005   ----------------------------------------
Label_5_013A7D3A:
 BYTE   W01
 BYTE   N04  Fs4  v108
 BYTE   W06
 BYTE   Bn4
 BYTE   W06
 BYTE   Ds5
 BYTE   W06
 BYTE   Fs5
 BYTE   W06
 BYTE   Bn4
 BYTE   W06
 BYTE   Ds5
 BYTE   W06
 BYTE   Fs5
 BYTE   W06
 BYTE   Bn5
 BYTE   W06
 BYTE   Ds5
 BYTE   W06
 BYTE   Fs5
 BYTE   W06
 BYTE   Bn5
 BYTE   W06
 BYTE   Ds6
 BYTE   W06
 BYTE   Fs6
 BYTE   W06
 BYTE   Ds6
 BYTE   W06
 BYTE   Bn5
 BYTE   W06
 BYTE   Fs5
 BYTE   W05
 BYTE   PEND 
// 006   ----------------------------------------
Label_5_013A7D5E:
 BYTE   W01
 BYTE   N04  En4  v108
 BYTE   W06
 BYTE   Fs4
 BYTE   W06
 BYTE   Gn4
 BYTE   W06
 BYTE   Bn4
 BYTE   W06
 BYTE   En5
 BYTE   W06
 BYTE   Fs5
 BYTE   W06
 BYTE   Gn5
 BYTE   W06
 BYTE   Bn5
 BYTE   W06
 BYTE   En6
 BYTE   W06
 BYTE   Bn5
 BYTE   W06
 BYTE   Gn5
 BYTE   W06
 BYTE   En5
 BYTE   W06
 BYTE   Bn4
 BYTE   W06
 BYTE   Gn4
 BYTE   W06
 BYTE   En4
 BYTE   W06
 BYTE   Bn3
 BYTE   W05
 BYTE   PEND 
// 007   ----------------------------------------
Label_5_013A7D82:
 BYTE   W01
 BYTE   N04  Fs4  v108
 BYTE   W06
 BYTE   Bn4
 BYTE   W06
 BYTE   Ds5
 BYTE   W06
 BYTE   Fs5
 BYTE   W06
 BYTE   Bn4
 BYTE   W06
 BYTE   Ds5
 BYTE   W06
 BYTE   Fs5
 BYTE   W06
 BYTE   Bn5
 BYTE   W06
 BYTE   Ds5
 BYTE   W06
 BYTE   Fs5
 BYTE   W06
 BYTE   Bn5
 BYTE   W06
 BYTE   Ds6
 BYTE   W06
 BYTE   Fs5
 BYTE   W06
 BYTE   Bn5
 BYTE   W06
 BYTE   Ds6
 BYTE   W06
 BYTE   Fs6
 BYTE   W05
 BYTE   PEND 
 BYTE   PATT
  POIN2 Label_5_013A7D16
 BYTE   PATT
  POIN2 Label_5_013A7D3A
 BYTE   PATT
  POIN2 Label_5_013A7D5E
 BYTE   PATT
  POIN2 Label_5_013A7D82
 BYTE   PATT
  POIN2 Label_5_013A7D16
 BYTE   PATT
  POIN2 Label_5_013A7D3A
 BYTE   PATT
  POIN2 Label_5_013A7D5E
 BYTE   PATT
  POIN2 Label_5_013A7D82
 BYTE   PATT
  POIN2 Label_5_013A7D16
 BYTE   PATT
  POIN2 Label_5_013A7D3A
 BYTE   PATT
  POIN2 Label_5_013A7D5E
 BYTE   PATT
  POIN2 Label_5_013A7D82
// 008   ----------------------------------------
 BYTE   W96
// 009   ----------------------------------------
 BYTE   W96
// 010   ----------------------------------------
 BYTE   W96
// 011   ----------------------------------------
 BYTE   W96
// 012   ----------------------------------------
 BYTE   W96
// 013   ----------------------------------------
 BYTE   W96
// 014   ----------------------------------------
 BYTE   W96
// 015   ----------------------------------------
Label_5_013A7DE9:
 BYTE   W01
 BYTE   N04  Fs4  v127
 BYTE   W06
 BYTE   Bn4
 BYTE   W06
 BYTE   Ds5
 BYTE   W06
 BYTE   Fs5
 BYTE   W06
 BYTE   Bn5
 BYTE   W06
 BYTE   Fs5
 BYTE   W06
 BYTE   Ds5
 BYTE   W06
 BYTE   Bn4
 BYTE   W06
 BYTE   Cn5
 BYTE   W06
 BYTE   En5
 BYTE   W06
 BYTE   Gn5
 BYTE   W06
 BYTE   Cn6
 BYTE   W06
 BYTE   Dn5
 BYTE   W06
 BYTE   Fs5
 BYTE   W06
 BYTE   An5
 BYTE   W06
 BYTE   Dn6
 BYTE   W05
 BYTE   PEND 
 BYTE   PATT
  POIN2 Label_5_013A7D16
 BYTE   PATT
  POIN2 Label_5_013A7D3A
 BYTE   PATT
  POIN2 Label_5_013A7D5E
 BYTE   PATT
  POIN2 Label_5_013A7D82
 BYTE   PATT
  POIN2 Label_5_013A7D16
 BYTE   PATT
  POIN2 Label_5_013A7D3A
 BYTE   PATT
  POIN2 Label_5_013A7D5E
 BYTE   PATT
  POIN2 Label_5_013A7D82
// 016   ----------------------------------------
 BYTE   W96
// 017   ----------------------------------------
 BYTE   W96
// 018   ----------------------------------------
 BYTE   W96
// 019   ----------------------------------------
 BYTE   W96
// 020   ----------------------------------------
 BYTE   W96
// 021   ----------------------------------------
 BYTE   W96
// 022   ----------------------------------------
 BYTE   W96
// 023   ----------------------------------------
 BYTE   W96
// 024   ----------------------------------------
Label_5_013A7E3D:
 BYTE   W01
 BYTE   N04  En6  v108
 BYTE   W06
 BYTE   Bn5
 BYTE   W06
 BYTE   En5
 BYTE   W06
 BYTE   Bn5
 BYTE   W06
 BYTE   En6
 BYTE   W06
 BYTE   Bn5
 BYTE   W06
 BYTE   En5
 BYTE   W06
 BYTE   Bn5
 BYTE   W06
 BYTE   En6
 BYTE   W06
 BYTE   Bn5
 BYTE   W06
 BYTE   En5
 BYTE   W06
 BYTE   Bn5
 BYTE   W06
 BYTE   En6
 BYTE   W06
 BYTE   Bn5
 BYTE   W06
 BYTE   En5
 BYTE   W06
 BYTE   Bn5
 BYTE   W05
 BYTE   PEND 
// 025   ----------------------------------------
Label_5_013A7E61:
 BYTE   W01
 BYTE   N04  Fs6  v108
 BYTE   W06
 BYTE   Bn5
 BYTE   W06
 BYTE   Fs5
 BYTE   W06
 BYTE   Bn5
 BYTE   W06
 BYTE   Fs6
 BYTE   W06
 BYTE   Bn5
 BYTE   W06
 BYTE   Fs5
 BYTE   W06
 BYTE   Bn5
 BYTE   W06
 BYTE   Fs6
 BYTE   W06
 BYTE   Bn5
 BYTE   W06
 BYTE   Fs5
 BYTE   W06
 BYTE   Bn5
 BYTE   W06
 BYTE   Fs6
 BYTE   W06
 BYTE   Bn5
 BYTE   W06
 BYTE   Fs5
 BYTE   W06
 BYTE   Bn5
 BYTE   W05
 BYTE   PEND 
// 026   ----------------------------------------
Label_5_013A7E85:
 BYTE   W01
 BYTE   N04  Gn6  v108
 BYTE   W06
 BYTE   Cn6
 BYTE   W06
 BYTE   Gn5
 BYTE   W06
 BYTE   Cn6
 BYTE   W06
 BYTE   Gn6
 BYTE   W06
 BYTE   Cn6
 BYTE   W06
 BYTE   Gn5
 BYTE   W06
 BYTE   Cn6
 BYTE   W06
 BYTE   Gn6
 BYTE   W06
 BYTE   Cn6
 BYTE   W06
 BYTE   Gn5
 BYTE   W06
 BYTE   Cn6
 BYTE   W06
 BYTE   Gn6
 BYTE   W06
 BYTE   Cn6
 BYTE   W06
 BYTE   Gn5
 BYTE   W06
 BYTE   Cn6
 BYTE   W05
 BYTE   PEND 
// 027   ----------------------------------------
 BYTE   W01
 BYTE   Fs6
 BYTE   W06
 BYTE   Cn6
 BYTE   W06
 BYTE   Fs5
 BYTE   W06
 BYTE   Cn6
 BYTE   W06
 BYTE   Fs6
 BYTE   W06
 BYTE   Cn6
 BYTE   W06
 BYTE   Fs5
 BYTE   W06
 BYTE   Cn6
 BYTE   W06
 BYTE   Fs6
 BYTE   W06
 BYTE   Cn6
 BYTE   W06
 BYTE   Fs5
 BYTE   W06
 BYTE   Cn6
 BYTE   W06
 BYTE   Fs6
 BYTE   W06
 BYTE   Cn6
 BYTE   W06
 BYTE   Fs5
 BYTE   W06
 BYTE   Cn6
 BYTE   W05
 BYTE   PATT
  POIN2 Label_5_013A7E3D
 BYTE   PATT
  POIN2 Label_5_013A7E61
 BYTE   PATT
  POIN2 Label_5_013A7E85
// 028   ----------------------------------------
 BYTE   W96
// 029   ----------------------------------------
 BYTE   W96
// 030   ----------------------------------------
 BYTE   W96
// 031   ----------------------------------------
 BYTE   W96
// 032   ----------------------------------------
 BYTE   W96
// 033   ----------------------------------------
 BYTE   W96
// 034   ----------------------------------------
 BYTE   W96
// 035   ----------------------------------------
 BYTE   W96
 BYTE   PATT
  POIN2 Label_5_013A7DE9
// 036   ----------------------------------------
 BYTE   W96
// 037   ----------------------------------------
 BYTE   W96
// 038   ----------------------------------------
 BYTE   W96
// 039   ----------------------------------------
 BYTE   W96
// 040   ----------------------------------------
 BYTE   W96
// 041   ----------------------------------------
 BYTE   W96
// 042   ----------------------------------------
 BYTE   W96
// 043   ----------------------------------------
 BYTE   W96
// 044   ----------------------------------------
 BYTE   GoTo
  POIN2 Label_5_013A7C7E
 BYTE   FINE

//**************** Track 7 (Midi-Chn.6) ****************//

song03_007:
// 000   ----------------------------------------
 BYTE   KEYSH   song03_key+0
Label_6_013A7EF6:
 BYTE   VOICE   52
 BYTE   PAN   c_v-38
 BYTE   VOL   22*song03_mvl/mxv
 BYTE   BEND   c_v+0
 BYTE   W96
// 001   ----------------------------------------
 BYTE   W96
// 002   ----------------------------------------
 BYTE   W96
// 003   ----------------------------------------
 BYTE   W96
// 004   ----------------------------------------
 BYTE   W96
// 005   ----------------------------------------
 BYTE   W96
// 006   ----------------------------------------
 BYTE   W96
// 007   ----------------------------------------
 BYTE   W96
// 008   ----------------------------------------
 BYTE   W96
// 009   ----------------------------------------
 BYTE   W96
// 010   ----------------------------------------
 BYTE   W96
// 011   ----------------------------------------
 BYTE   W96
// 012   ----------------------------------------
 BYTE   W96
// 013   ----------------------------------------
Label_6_013A7F0B:
 BYTE   W01
 BYTE   N17  Gs3  v127
 BYTE   W18
 BYTE   An3
 BYTE   W18
 BYTE   N56  En3
 BYTE   W56
 BYTE   W03
 BYTE   PEND 
// 014   ----------------------------------------
Label_6_013A7F17:
 BYTE   W01
 BYTE   N17  Ds3  v127
 BYTE   W18
 BYTE   En3
 BYTE   W18
 BYTE   N11  Fs3
 BYTE   W12
 BYTE   N17  En3
 BYTE   W18
 BYTE   Ds3
 BYTE   W18
 BYTE   N11  Cn3
 BYTE   W11
 BYTE   PEND 
// 015   ----------------------------------------
Label_6_013A7F2A:
 BYTE   W01
 BYTE   N44  Bn2  v127
 BYTE   W48
 BYTE   N11
 BYTE   W12
 BYTE   N11
 BYTE   W12
 BYTE   An2
 BYTE   W12
 BYTE   Bn2
 BYTE   W11
 BYTE   PEND 
// 016   ----------------------------------------
Label_6_013A7F38:
 BYTE   W01
 BYTE   N17  Ds3  v127
 BYTE   W18
 BYTE   En3
 BYTE   W18
 BYTE   N56  Fs3
 BYTE   W56
 BYTE   W03
 BYTE   PEND 
 BYTE   PATT
  POIN2 Label_6_013A7F0B
// 017   ----------------------------------------
Label_6_013A7F49:
 BYTE   W01
 BYTE   N17  Fs3  v127
 BYTE   W18
 BYTE   En3
 BYTE   W18
 BYTE   N11  Ds3
 BYTE   W12
 BYTE   N17  Cn3
 BYTE   W18
 BYTE   Bn2
 BYTE   W18
 BYTE   N11  An2
 BYTE   W11
 BYTE   PEND 
// 018   ----------------------------------------
Label_6_013A7F5C:
 BYTE   W01
 BYTE   N17  Gn2  v127
 BYTE   W18
 BYTE   An2
 BYTE   W18
 BYTE   N56  Bn2
 BYTE   W56
 BYTE   W03
 BYTE   PEND 
 BYTE   PATT
  POIN2 Label_6_013A7F38
// 019   ----------------------------------------
Label_6_013A7F6D:
 BYTE   W01
 BYTE   N92  Cn3  v100
 BYTE   N92  En3
 BYTE   N92  Gn3
 BYTE   N92  Bn3
 BYTE   W92
 BYTE   W03
 BYTE   PEND 
// 020   ----------------------------------------
 BYTE   W01
 BYTE   Cn3
 BYTE   N92  Dn3
 BYTE   N92  Fs3
 BYTE   N92  An3
 BYTE   W92
 BYTE   W03
// 021   ----------------------------------------
 BYTE   W01
 BYTE   En3
 BYTE   N92  Fs3
 BYTE   N92  Gn3
 BYTE   N92  Bn3
 BYTE   W92
 BYTE   W03
// 022   ----------------------------------------
 BYTE   W01
 BYTE   Bn2
 BYTE   N92  Ds3
 BYTE   N92  Fs3
 BYTE   N32  Cn4
 BYTE   W36
 BYTE   N56  Bn3
 BYTE   W56
 BYTE   W03
 BYTE   PATT
  POIN2 Label_6_013A7F6D
// 023   ----------------------------------------
 BYTE   W01
 BYTE   N92  Dn3  v100
 BYTE   N92  Fs3
 BYTE   N92  An3
 BYTE   N92  Dn4
 BYTE   W92
 BYTE   W03
// 024   ----------------------------------------
 BYTE   W01
 BYTE   Bn2
 BYTE   N92  Ds3
 BYTE   N92  Fs3
 BYTE   N92  Bn3
 BYTE   W92
 BYTE   W03
// 025   ----------------------------------------
 BYTE   W01
 BYTE   N44  Bn2  v120
 BYTE   N44  Ds3
 BYTE   N44  Fs3
 BYTE   N44  Bn3
 BYTE   W48
 BYTE   N22  Cn3
 BYTE   N22  En3
 BYTE   N22  Gn3
 BYTE   N22  Cn4
 BYTE   W24
 BYTE   Dn3
 BYTE   N22  Fs3
 BYTE   N22  An3
 BYTE   N22  Dn4
 BYTE   W23
 BYTE   PATT
  POIN2 Label_6_013A7F0B
 BYTE   PATT
  POIN2 Label_6_013A7F17
 BYTE   PATT
  POIN2 Label_6_013A7F2A
 BYTE   PATT
  POIN2 Label_6_013A7F38
 BYTE   PATT
  POIN2 Label_6_013A7F0B
 BYTE   PATT
  POIN2 Label_6_013A7F49
 BYTE   PATT
  POIN2 Label_6_013A7F5C
 BYTE   PATT
  POIN2 Label_6_013A7F38
// 026   ----------------------------------------
Label_6_013A7FFA:
 BYTE   W01
 BYTE   N44  Cn4  v127
 BYTE   W48
 BYTE   Bn3
 BYTE   W44
 BYTE   W03
 BYTE   PEND 
// 027   ----------------------------------------
Label_6_013A8003:
 BYTE   W01
 BYTE   N44  An3  v127
 BYTE   W48
 BYTE   Gn3
 BYTE   W44
 BYTE   W03
 BYTE   PEND 
// 028   ----------------------------------------
Label_6_013A800C:
 BYTE   W01
 BYTE   N92  Fs3  v127
 BYTE   W92
 BYTE   W03
 BYTE   PEND 
// 029   ----------------------------------------
Label_6_013A8013:
 BYTE   W01
 BYTE   N44  En3  v127
 BYTE   N44  An3
 BYTE   W48
 BYTE   Fs3
 BYTE   N44  Bn3
 BYTE   W44
 BYTE   W03
 BYTE   PEND 
// 030   ----------------------------------------
Label_6_013A8020:
 BYTE   W01
 BYTE   N16  Cn4  v127
 BYTE   W18
 BYTE   Bn3
 BYTE   W18
 BYTE   N11  An3
 BYTE   W12
 BYTE   N16  Gn3
 BYTE   W18
 BYTE   Fs3
 BYTE   W18
 BYTE   N11  Gn3
 BYTE   W11
 BYTE   PEND 
// 031   ----------------------------------------
Label_6_013A8033:
 BYTE   W01
 BYTE   N44  An3  v127
 BYTE   W48
 BYTE   En3
 BYTE   W44
 BYTE   W03
 BYTE   PEND 
// 032   ----------------------------------------
Label_6_013A803C:
 BYTE   W01
 BYTE   N44  Dn3  v127
 BYTE   W48
 BYTE   En3
 BYTE   W44
 BYTE   W03
 BYTE   PEND 
// 033   ----------------------------------------
 BYTE   W01
 BYTE   N16  Fs3
 BYTE   W18
 BYTE   Gn3
 BYTE   W18
 BYTE   N11  An3
 BYTE   W12
 BYTE   N16
 BYTE   W18
 BYTE   Gn3
 BYTE   W18
 BYTE   N11  Fs3
 BYTE   W11
// 034   ----------------------------------------
Label_6_013A8055:
 BYTE   W01
 BYTE   TIE  Bn2  v127
 BYTE   N92  En3
 BYTE   N92  Gn3
 BYTE   W92
 BYTE   W03
 BYTE   PEND 
// 035   ----------------------------------------
Label_6_013A8060:
 BYTE   W01
 BYTE   N92  Ds3  v127
 BYTE   N92  Fs3
 BYTE   W92
 BYTE   W02
 BYTE   PEND 
 BYTE   EOT
 BYTE   Bn2
 BYTE   W01
// 036   ----------------------------------------
Label_6_013A806C:
 BYTE   W01
 BYTE   N92  Cn3  v127
 BYTE   N92  En3
 BYTE   N92  Gn3
 BYTE   W92
 BYTE   W03
 BYTE   PEND 
// 037   ----------------------------------------
 BYTE   W01
 BYTE   Cn3
 BYTE   N92  Ds3
 BYTE   N92  Fs3
 BYTE   N92  An3
 BYTE   W92
 BYTE   W03
 BYTE   PATT
  POIN2 Label_6_013A8055
 BYTE   PATT
  POIN2 Label_6_013A8060
// 038   ----------------------------------------
 BYTE   EOT
 BYTE   Bn2
 BYTE   W01
 BYTE   PATT
  POIN2 Label_6_013A806C
// 039   ----------------------------------------
 BYTE   W96
// 040   ----------------------------------------
Label_6_013A8094:
 BYTE   W01
 BYTE   N92  Cn3  v108
 BYTE   N92  En3
 BYTE   N92  Gn3
 BYTE   N92  Bn3
 BYTE   W92
 BYTE   W03
 BYTE   PEND 
// 041   ----------------------------------------
 BYTE   W01
 BYTE   Cn3
 BYTE   N92  Dn3
 BYTE   N92  Fs3
 BYTE   N92  An3
 BYTE   W92
 BYTE   W03
// 042   ----------------------------------------
 BYTE   W01
 BYTE   En3
 BYTE   N92  Fs3
 BYTE   N92  Gn3
 BYTE   N92  Bn3
 BYTE   W92
 BYTE   W03
// 043   ----------------------------------------
 BYTE   W01
 BYTE   Bn2
 BYTE   N92  Ds3
 BYTE   N92  Fs3
 BYTE   N32  Cn4
 BYTE   W36
 BYTE   N56  Bn3
 BYTE   W56
 BYTE   W03
 BYTE   PATT
  POIN2 Label_6_013A8094
// 044   ----------------------------------------
 BYTE   W01
 BYTE   N92  Dn3  v108
 BYTE   N92  Fs3
 BYTE   N92  An3
 BYTE   N92  Dn4
 BYTE   W92
 BYTE   W03
// 045   ----------------------------------------
 BYTE   W01
 BYTE   Bn2
 BYTE   N92  Ds3
 BYTE   N92  Fs3
 BYTE   N92  Bn3
 BYTE   W92
 BYTE   W03
// 046   ----------------------------------------
 BYTE   W01
 BYTE   N44  Bn2  v127
 BYTE   N44  Ds3
 BYTE   N44  Fs3
 BYTE   N44  Bn3
 BYTE   W48
 BYTE   N22  Cn3
 BYTE   N22  En3
 BYTE   N22  Gn3
 BYTE   N22  Cn4
 BYTE   W24
 BYTE   Dn3
 BYTE   N22  Fs3
 BYTE   N22  An3
 BYTE   N22  Dn4
 BYTE   W23
 BYTE   PATT
  POIN2 Label_6_013A7FFA
 BYTE   PATT
  POIN2 Label_6_013A8003
 BYTE   PATT
  POIN2 Label_6_013A800C
 BYTE   PATT
  POIN2 Label_6_013A8013
 BYTE   PATT
  POIN2 Label_6_013A8020
 BYTE   PATT
  POIN2 Label_6_013A8033
 BYTE   PATT
  POIN2 Label_6_013A803C
// 047   ----------------------------------------
 BYTE   W01
 BYTE   N16  Fs3  v127
 BYTE   W18
 BYTE   Gn3
 BYTE   W18
 BYTE   N11  An3
 BYTE   W12
 BYTE   N16
 BYTE   W18
 BYTE   Gn3
 BYTE   W18
 BYTE   N10  Fs3
 BYTE   W11
// 048   ----------------------------------------
 BYTE   GoTo
  POIN2 Label_6_013A7EF6
 BYTE   FINE

//**************** Track 8 (Midi-Chn.7) ****************//

song03_008:
// 000   ----------------------------------------
 BYTE   KEYSH   song03_key+0
Label_7_013A8136:
 BYTE   VOICE   127
 BYTE   PAN   c_v-1
 BYTE   VOL   42*song03_mvl/mxv
 BYTE   BEND   c_v+0
 BYTE   W01
 BYTE   N05  Cn1  v127
 BYTE   N92  Cs2  v120
 BYTE   N11  Ds2  v100
 BYTE   W12
 BYTE   Ds2  v064
 BYTE   W12
 BYTE   Ds2  v100
 BYTE   W12
 BYTE   N05  Ds2  v064
 BYTE   W06
 BYTE   N05
 BYTE   W06
 BYTE   N11  Ds2  v100
 BYTE   W12
 BYTE   Ds2  v064
 BYTE   W12
 BYTE   Ds2  v100
 BYTE   W12
 BYTE   N05  Cn1  v127
 BYTE   N05  Ds2  v064
 BYTE   W06
 BYTE   Cn1  v127
 BYTE   N05  Ds2  v064
 BYTE   W05
// 001   ----------------------------------------
 BYTE   W01
 BYTE   Cn1  v127
 BYTE   N11  Ds2  v100
 BYTE   W12
 BYTE   Ds2  v064
 BYTE   W12
 BYTE   Ds2  v100
 BYTE   W12
 BYTE   N05  Ds2  v064
 BYTE   W06
 BYTE   N05
 BYTE   W06
 BYTE   Cn1  v127
 BYTE   N11  Ds2  v100
 BYTE   W12
 BYTE   Ds2  v064
 BYTE   W06
 BYTE   N05  Cn1  v127
 BYTE   W06
 BYTE   N11  Ds2  v100
 BYTE   W12
 BYTE   N05  Cn1  v127
 BYTE   N05  Ds2  v064
 BYTE   W06
 BYTE   N05
 BYTE   W05
// 002   ----------------------------------------
 BYTE   W01
 BYTE   Cn1  v127
 BYTE   N92  Cs2  v120
 BYTE   N11  Ds2  v100
 BYTE   W12
 BYTE   Ds2  v064
 BYTE   W12
 BYTE   Ds2  v100
 BYTE   W12
 BYTE   N05  Ds2  v064
 BYTE   W06
 BYTE   N05
 BYTE   W06
 BYTE   N11  Ds2  v100
 BYTE   W12
 BYTE   Ds2  v064
 BYTE   W12
 BYTE   Ds2  v100
 BYTE   W12
 BYTE   N05  Cn1  v127
 BYTE   N05  Ds2  v064
 BYTE   W06
 BYTE   Cn1  v127
 BYTE   N05  Ds2  v064
 BYTE   W05
// 003   ----------------------------------------
 BYTE   W01
 BYTE   Cn1  v127
 BYTE   N11  Ds2  v100
 BYTE   W12
 BYTE   Ds2  v064
 BYTE   W12
 BYTE   Ds2  v100
 BYTE   W12
 BYTE   N05  Ds2  v064
 BYTE   W06
 BYTE   N05
 BYTE   W06
 BYTE   Cn1  v127
 BYTE   N44  Cs2  v120
 BYTE   N11  Ds2  v100
 BYTE   W06
 BYTE   N05  Dn1  v064
 BYTE   W06
 BYTE   Dn1  v072
 BYTE   N11  Ds2  v064
 BYTE   W06
 BYTE   N05  Dn1  v076
 BYTE   W06
 BYTE   Dn1  v084
 BYTE   N11  Ds2  v100
 BYTE   W06
 BYTE   N05  Dn1  v088
 BYTE   W06
 BYTE   Dn1  v096
 BYTE   N05  Ds2  v064
 BYTE   W06
 BYTE   Dn1  v100
 BYTE   N05  Ds2  v064
 BYTE   W05
// 004   ----------------------------------------
 BYTE   W01
 BYTE   Cn1  v127
 BYTE   N92  Cs2  v120
 BYTE   N11  Ds2  v100
 BYTE   W12
 BYTE   Ds2  v064
 BYTE   W12
 BYTE   N05  Cn1  v127
 BYTE   N11  Ds2  v100
 BYTE   W12
 BYTE   N05  Ds2  v064
 BYTE   W06
 BYTE   N05
 BYTE   W06
 BYTE   Cn1  v127
 BYTE   N11  Ds2  v100
 BYTE   W12
 BYTE   Ds2  v064
 BYTE   W12
 BYTE   N05  Cn1  v127
 BYTE   N11  Ds2  v100
 BYTE   W12
 BYTE   N05  Dn1
 BYTE   N05  Ds2  v064
 BYTE   W06
 BYTE   Dn1  v100
 BYTE   N05  Ds2  v064
 BYTE   W05
// 005   ----------------------------------------
Label_7_013A823C:
 BYTE   W01
 BYTE   N05  Cn1  v127
 BYTE   N92  Cs2  v120
 BYTE   N11  Ds2  v100
 BYTE   W12
 BYTE   Ds2  v064
 BYTE   W12
 BYTE   N05  Dn1  v100
 BYTE   N11  Ds2
 BYTE   W12
 BYTE   N05  Ds2  v064
 BYTE   W06
 BYTE   N05
 BYTE   W06
 BYTE   Cn1  v127
 BYTE   N11  Ds2  v100
 BYTE   W12
 BYTE   Ds2  v064
 BYTE   W06
 BYTE   N05  Cn1  v127
 BYTE   W06
 BYTE   Dn1  v100
 BYTE   N11  Ds2
 BYTE   W12
 BYTE   N05  Ds2  v064
 BYTE   W06
 BYTE   N05
 BYTE   W05
 BYTE   PEND 
// 006   ----------------------------------------
Label_7_013A826F:
 BYTE   W01
 BYTE   N05  Cn1  v127
 BYTE   N11  Ds2  v100
 BYTE   W12
 BYTE   Ds2  v064
 BYTE   W12
 BYTE   N05  Dn1  v100
 BYTE   N11  Ds2
 BYTE   W12
 BYTE   N05  Ds2  v064
 BYTE   W06
 BYTE   N05
 BYTE   W06
 BYTE   Cn1  v127
 BYTE   N11  Ds2  v100
 BYTE   W12
 BYTE   Ds2  v064
 BYTE   W06
 BYTE   N05  Cn1  v127
 BYTE   W06
 BYTE   Dn1  v100
 BYTE   N11  Ds2
 BYTE   W12
 BYTE   N05  Ds2  v064
 BYTE   W06
 BYTE   N05
 BYTE   W05
 BYTE   PEND 
 BYTE   PATT
  POIN2 Label_7_013A826F
// 007   ----------------------------------------
Label_7_013A82A4:
 BYTE   W01
 BYTE   N05  Cn1  v127
 BYTE   N11  Ds2  v100
 BYTE   W12
 BYTE   Ds2  v064
 BYTE   W12
 BYTE   N05  Dn1  v100
 BYTE   N11  Ds2
 BYTE   W12
 BYTE   N05  Ds2  v064
 BYTE   W06
 BYTE   N05
 BYTE   W06
 BYTE   Cn1  v127
 BYTE   N11  Ds2  v100
 BYTE   W12
 BYTE   Ds2  v064
 BYTE   W06
 BYTE   N05  Cn1  v127
 BYTE   W06
 BYTE   Dn1  v100
 BYTE   N11  Ds2
 BYTE   W12
 BYTE   N05  Dn1
 BYTE   N05  Ds2  v064
 BYTE   W06
 BYTE   Dn1  v100
 BYTE   N05  Ds2  v064
 BYTE   W05
 BYTE   PEND 
 BYTE   PATT
  POIN2 Label_7_013A826F
 BYTE   PATT
  POIN2 Label_7_013A826F
 BYTE   PATT
  POIN2 Label_7_013A826F
// 008   ----------------------------------------
Label_7_013A82E9:
 BYTE   W01
 BYTE   N05  Cn1  v127
 BYTE   N11  Ds2  v100
 BYTE   W12
 BYTE   Ds2  v064
 BYTE   W12
 BYTE   N05  Dn1  v100
 BYTE   N11  Ds2
 BYTE   W12
 BYTE   N05  Ds2  v064
 BYTE   W06
 BYTE   N05
 BYTE   W06
 BYTE   Cn1  v127
 BYTE   N11  Ds2  v100
 BYTE   W12
 BYTE   Ds2  v064
 BYTE   W06
 BYTE   N05  Cn1  v127
 BYTE   W06
 BYTE   Dn1  v100
 BYTE   N11  Ds2
 BYTE   W06
 BYTE   N05  Dn1
 BYTE   W06
 BYTE   N05
 BYTE   N05  Ds2  v064
 BYTE   W06
 BYTE   Dn1  v100
 BYTE   N05  Ds2  v064
 BYTE   W05
 BYTE   PEND 
 BYTE   PATT
  POIN2 Label_7_013A823C
 BYTE   PATT
  POIN2 Label_7_013A826F
 BYTE   PATT
  POIN2 Label_7_013A826F
 BYTE   PATT
  POIN2 Label_7_013A82A4
 BYTE   PATT
  POIN2 Label_7_013A823C
 BYTE   PATT
  POIN2 Label_7_013A826F
 BYTE   PATT
  POIN2 Label_7_013A826F
 BYTE   PATT
  POIN2 Label_7_013A82E9
// 009   ----------------------------------------
Label_7_013A8349:
 BYTE   W01
 BYTE   N05  Dn1  v100
 BYTE   N92  Cs2  v120
 BYTE   N11  Ds2  v100
 BYTE   W12
 BYTE   N05  Cn1  v127
 BYTE   N11  Ds2  v064
 BYTE   W12
 BYTE   N05  Dn1  v100
 BYTE   N11  Ds2
 BYTE   W12
 BYTE   N05  Cn1  v127
 BYTE   N05  Ds2  v064
 BYTE   W06
 BYTE   N05
 BYTE   W06
 BYTE   Dn1  v100
 BYTE   N11  Ds2
 BYTE   W12
 BYTE   N05  Cn1  v127
 BYTE   N11  Ds2  v064
 BYTE   W12
 BYTE   N05  Dn1  v100
 BYTE   N11  Ds2
 BYTE   W12
 BYTE   N05  Cn1  v127
 BYTE   N05  Ds2  v064
 BYTE   W06
 BYTE   N05
 BYTE   W05
 BYTE   PEND 
// 010   ----------------------------------------
Label_7_013A8386:
 BYTE   W01
 BYTE   N05  Dn1  v100
 BYTE   N11  Ds2
 BYTE   W12
 BYTE   N05  Cn1  v127
 BYTE   N11  Ds2  v064
 BYTE   W12
 BYTE   N05  Dn1  v100
 BYTE   N11  Ds2
 BYTE   W12
 BYTE   N05  Cn1  v127
 BYTE   N05  Ds2  v064
 BYTE   W06
 BYTE   N05
 BYTE   W06
 BYTE   Dn1  v100
 BYTE   N11  Ds2
 BYTE   W12
 BYTE   N05  Cn1  v127
 BYTE   N11  Ds2  v064
 BYTE   W12
 BYTE   N05  Dn1  v100
 BYTE   N11  Ds2
 BYTE   W06
 BYTE   N05  Dn1
 BYTE   W06
 BYTE   Cn1  v127
 BYTE   N05  Ds2  v064
 BYTE   W06
 BYTE   N05
 BYTE   W05
 BYTE   PEND 
// 011   ----------------------------------------
Label_7_013A83C1:
 BYTE   W01
 BYTE   N05  Dn1  v100
 BYTE   N11  Ds2
 BYTE   W12
 BYTE   N05  Cn1  v127
 BYTE   N11  Ds2  v064
 BYTE   W12
 BYTE   N05  Dn1  v100
 BYTE   N11  Ds2
 BYTE   W12
 BYTE   N05  Cn1  v127
 BYTE   N05  Ds2  v064
 BYTE   W06
 BYTE   N05
 BYTE   W06
 BYTE   Dn1  v100
 BYTE   N11  Ds2
 BYTE   W12
 BYTE   N05  Cn1  v127
 BYTE   N11  Ds2  v064
 BYTE   W12
 BYTE   N05  Dn1  v100
 BYTE   N11  Ds2
 BYTE   W12
 BYTE   N05  Cn1  v127
 BYTE   N05  Ds2  v064
 BYTE   W06
 BYTE   N05
 BYTE   W05
 BYTE   PEND 
// 012   ----------------------------------------
Label_7_013A83FA:
 BYTE   W01
 BYTE   N05  Dn1  v100
 BYTE   N11  Ds2
 BYTE   W12
 BYTE   N05  Cn1  v127
 BYTE   N11  Ds2  v064
 BYTE   W12
 BYTE   N05  Dn1  v100
 BYTE   N11  Ds2
 BYTE   W12
 BYTE   N05  Cn1  v127
 BYTE   N05  Ds2  v064
 BYTE   W06
 BYTE   N05
 BYTE   W06
 BYTE   Dn1  v100
 BYTE   N11  Ds2
 BYTE   W12
 BYTE   N05  Cn1  v127
 BYTE   N11  Ds2  v064
 BYTE   W12
 BYTE   N05  Dn1  v100
 BYTE   N11  Ds2
 BYTE   W06
 BYTE   N05  Dn1
 BYTE   W06
 BYTE   N05
 BYTE   N05  Ds2  v064
 BYTE   W06
 BYTE   Dn1  v100
 BYTE   N05  Ds2  v064
 BYTE   W05
 BYTE   PEND 
// 013   ----------------------------------------
Label_7_013A8438:
 BYTE   W01
 BYTE   N05  Dn1  v100
 BYTE   N92  Cs2  v120
 BYTE   N11  Ds2  v100
 BYTE   W12
 BYTE   N05  Cn1  v127
 BYTE   N11  Ds2  v064
 BYTE   W12
 BYTE   N05  Dn1  v100
 BYTE   N11  Ds2
 BYTE   W06
 BYTE   N05  Cn1  v127
 BYTE   W06
 BYTE   Ds2  v064
 BYTE   W06
 BYTE   Cn1  v127
 BYTE   N05  Ds2  v064
 BYTE   W06
 BYTE   Dn1  v100
 BYTE   N11  Ds2
 BYTE   W12
 BYTE   N05  Cn1  v127
 BYTE   N11  Ds2  v064
 BYTE   W12
 BYTE   N05  Dn1  v100
 BYTE   N11  Ds2
 BYTE   W06
 BYTE   N05  Dn1
 BYTE   W06
 BYTE   Cn1  v127
 BYTE   N05  Ds2  v064
 BYTE   W06
 BYTE   N05
 BYTE   W05
 BYTE   PEND 
// 014   ----------------------------------------
Label_7_013A847B:
 BYTE   W01
 BYTE   N05  Dn1  v100
 BYTE   N11  Ds2
 BYTE   W12
 BYTE   N05  Cn1  v127
 BYTE   N11  Ds2  v064
 BYTE   W12
 BYTE   N05  Dn1  v100
 BYTE   N11  Ds2
 BYTE   W06
 BYTE   N05  Cn1  v127
 BYTE   W06
 BYTE   Ds2  v064
 BYTE   W06
 BYTE   Cn1  v127
 BYTE   N05  Ds2  v064
 BYTE   W06
 BYTE   Dn1  v100
 BYTE   N11  Ds2
 BYTE   W12
 BYTE   N05  Cn1  v127
 BYTE   N11  Ds2  v064
 BYTE   W12
 BYTE   N05  Dn1  v100
 BYTE   N11  Ds2
 BYTE   W06
 BYTE   N05  Dn1
 BYTE   W06
 BYTE   Cn1  v127
 BYTE   N05  Ds2  v064
 BYTE   W06
 BYTE   N05
 BYTE   W05
 BYTE   PEND 
 BYTE   PATT
  POIN2 Label_7_013A847B
// 015   ----------------------------------------
Label_7_013A84BF:
 BYTE   W01
 BYTE   N05  Dn1  v100
 BYTE   N68  Cs2  v120
 BYTE   N11  Ds2  v100
 BYTE   W12
 BYTE   N05  Cn1  v127
 BYTE   N11  Ds2  v064
 BYTE   W12
 BYTE   N05  Dn1  v100
 BYTE   N11  Ds2
 BYTE   W06
 BYTE   N05  Cn1  v127
 BYTE   W06
 BYTE   Ds2  v064
 BYTE   W06
 BYTE   Cn1  v127
 BYTE   N05  Ds2  v064
 BYTE   W06
 BYTE   Dn1  v100
 BYTE   N11  Ds2
 BYTE   N24  An2  v120
 BYTE   W12
 BYTE   N05  Cn1  v127
 BYTE   N11  Ds2  v064
 BYTE   W12
 BYTE   N05  Dn1  v100
 BYTE   N11  Ds2
 BYTE   N22  An2  v120
 BYTE   W06
 BYTE   N05  Dn1  v100
 BYTE   W06
 BYTE   N05
 BYTE   N05  Ds2  v064
 BYTE   W06
 BYTE   Dn1  v100
 BYTE   N05  Ds2  v064
 BYTE   W05
 BYTE   PEND 
 BYTE   PATT
  POIN2 Label_7_013A823C
 BYTE   PATT
  POIN2 Label_7_013A826F
 BYTE   PATT
  POIN2 Label_7_013A826F
 BYTE   PATT
  POIN2 Label_7_013A82A4
 BYTE   PATT
  POIN2 Label_7_013A823C
 BYTE   PATT
  POIN2 Label_7_013A826F
 BYTE   PATT
  POIN2 Label_7_013A826F
 BYTE   PATT
  POIN2 Label_7_013A82E9
 BYTE   PATT
  POIN2 Label_7_013A823C
 BYTE   PATT
  POIN2 Label_7_013A826F
 BYTE   PATT
  POIN2 Label_7_013A826F
 BYTE   PATT
  POIN2 Label_7_013A82E9
 BYTE   PATT
  POIN2 Label_7_013A823C
 BYTE   PATT
  POIN2 Label_7_013A826F
 BYTE   PATT
  POIN2 Label_7_013A826F
// 016   ----------------------------------------
 BYTE   W01
 BYTE   N05  Cn1  v127
 BYTE   N44  Cs2  v120
 BYTE   N11  Ds2  v100
 BYTE   W12
 BYTE   Ds2  v064
 BYTE   W12
 BYTE   N05  Dn1  v100
 BYTE   N11  Ds2
 BYTE   W12
 BYTE   N05  Ds2  v064
 BYTE   W06
 BYTE   N05
 BYTE   W06
 BYTE   Cn1  v127
 BYTE   N44  Cs2  v120
 BYTE   N11  Ds2  v100
 BYTE   W12
 BYTE   Ds2  v064
 BYTE   W06
 BYTE   N05  Cn1  v127
 BYTE   W06
 BYTE   Dn1  v100
 BYTE   N11  Ds2
 BYTE   W06
 BYTE   N05  Dn1
 BYTE   W06
 BYTE   N05
 BYTE   N05  Ds2  v064
 BYTE   W06
 BYTE   Dn1  v100
 BYTE   N05  Ds2  v064
 BYTE   W05
 BYTE   PATT
  POIN2 Label_7_013A823C
 BYTE   PATT
  POIN2 Label_7_013A826F
 BYTE   PATT
  POIN2 Label_7_013A826F
 BYTE   PATT
  POIN2 Label_7_013A826F
 BYTE   PATT
  POIN2 Label_7_013A823C
 BYTE   PATT
  POIN2 Label_7_013A826F
 BYTE   PATT
  POIN2 Label_7_013A826F
// 017   ----------------------------------------
 BYTE   N05  En1  v064
 BYTE   W01
 BYTE   Cn1  v127
 BYTE   N05  Dn1  v064
 BYTE   N11  Ds2  v100
 BYTE   W05
 BYTE   N05  En1  v076
 BYTE   W01
 BYTE   Dn1
 BYTE   W05
 BYTE   En1  v088
 BYTE   W01
 BYTE   Dn1
 BYTE   N11  Ds2  v064
 BYTE   W05
 BYTE   N05  En1  v100
 BYTE   W01
 BYTE   Dn1
 BYTE   W05
 BYTE   En1  v064
 BYTE   W01
 BYTE   Dn1
 BYTE   N11  Ds2  v100
 BYTE   W05
 BYTE   N05  En1  v076
 BYTE   W01
 BYTE   Dn1
 BYTE   W05
 BYTE   En1  v088
 BYTE   W01
 BYTE   Dn1
 BYTE   N05  Ds2  v064
 BYTE   W05
 BYTE   En1  v100
 BYTE   W01
 BYTE   Dn1
 BYTE   N05  Ds2  v064
 BYTE   W05
 BYTE   En1
 BYTE   W01
 BYTE   Cn1  v127
 BYTE   N05  Dn1  v064
 BYTE   N11  Ds2  v100
 BYTE   W05
 BYTE   N05  En1  v076
 BYTE   W01
 BYTE   Dn1
 BYTE   W05
 BYTE   En1  v088
 BYTE   W01
 BYTE   Dn1
 BYTE   N11  Ds2  v064
 BYTE   W05
 BYTE   N05  En1  v100
 BYTE   W01
 BYTE   Cn1  v127
 BYTE   N05  Dn1  v100
 BYTE   W05
 BYTE   En1  v064
 BYTE   W01
 BYTE   Dn1
 BYTE   N11  Ds2  v100
 BYTE   W05
 BYTE   N05  En1  v076
 BYTE   W01
 BYTE   Dn1
 BYTE   W05
 BYTE   En1  v088
 BYTE   W01
 BYTE   Dn1
 BYTE   N05  Ds2  v064
 BYTE   W05
 BYTE   En1  v100
 BYTE   W01
 BYTE   Dn1
 BYTE   N05  Ds2  v064
 BYTE   W05
 BYTE   PATT
  POIN2 Label_7_013A8349
 BYTE   PATT
  POIN2 Label_7_013A8386
 BYTE   PATT
  POIN2 Label_7_013A83C1
 BYTE   PATT
  POIN2 Label_7_013A83FA
 BYTE   PATT
  POIN2 Label_7_013A8438
 BYTE   PATT
  POIN2 Label_7_013A847B
 BYTE   PATT
  POIN2 Label_7_013A847B
 BYTE   PATT
  POIN2 Label_7_013A84BF
// 018   ----------------------------------------
Label_7_013A865F:
 BYTE   W01
 BYTE   N05  Cn1  v100
 BYTE   N92  Cs2  v120
 BYTE   N11  Ds2  v100
 BYTE   W06
 BYTE   N05  Cn1
 BYTE   W06
 BYTE   N05
 BYTE   N11  Ds2  v064
 BYTE   W06
 BYTE   N05  Cn1  v100
 BYTE   W06
 BYTE   N05
 BYTE   N05  Dn1
 BYTE   N11  Ds2
 BYTE   W06
 BYTE   N05  Cn1
 BYTE   W06
 BYTE   N05
 BYTE   N05  Ds2  v064
 BYTE   W06
 BYTE   Cn1  v100
 BYTE   N05  Ds2  v064
 BYTE   W06
 BYTE   Cn1  v100
 BYTE   N11  Ds2
 BYTE   W06
 BYTE   N05  Cn1
 BYTE   W06
 BYTE   N05
 BYTE   N11  Ds2  v064
 BYTE   W06
 BYTE   N05  Cn1  v100
 BYTE   W06
 BYTE   N05
 BYTE   N05  Dn1
 BYTE   N11  Ds2
 BYTE   W06
 BYTE   N05  Cn1
 BYTE   W06
 BYTE   N05
 BYTE   N05  Ds2  v064
 BYTE   W06
 BYTE   Cn1  v100
 BYTE   N05  Ds2  v064
 BYTE   W05
 BYTE   PEND 
// 019   ----------------------------------------
Label_7_013A86B0:
 BYTE   W01
 BYTE   N05  Cn1  v100
 BYTE   N11  Ds2
 BYTE   W06
 BYTE   N05  Cn1
 BYTE   W06
 BYTE   N05
 BYTE   N11  Ds2  v064
 BYTE   W06
 BYTE   N05  Cn1  v100
 BYTE   W06
 BYTE   N05
 BYTE   N05  Dn1
 BYTE   N11  Ds2
 BYTE   W06
 BYTE   N05  Cn1
 BYTE   W06
 BYTE   N05
 BYTE   N05  Ds2  v064
 BYTE   W06
 BYTE   Cn1  v100
 BYTE   N05  Ds2  v064
 BYTE   W06
 BYTE   Cn1  v100
 BYTE   N11  Ds2
 BYTE   W06
 BYTE   N05  Cn1
 BYTE   W06
 BYTE   N05
 BYTE   N11  Ds2  v064
 BYTE   W06
 BYTE   N05  Cn1  v100
 BYTE   W06
 BYTE   N05
 BYTE   N05  Dn1
 BYTE   N11  Ds2
 BYTE   W06
 BYTE   N05  Cn1
 BYTE   W06
 BYTE   N05
 BYTE   N05  Ds2  v064
 BYTE   W06
 BYTE   Cn1  v100
 BYTE   N05  Ds2  v064
 BYTE   W05
 BYTE   PEND 
 BYTE   PATT
  POIN2 Label_7_013A86B0
// 020   ----------------------------------------
 BYTE   W01
 BYTE   N05  Cn1  v100
 BYTE   N11  Ds2
 BYTE   W06
 BYTE   N05  Cn1
 BYTE   W06
 BYTE   N05
 BYTE   N11  Ds2  v064
 BYTE   W06
 BYTE   N05  Cn1  v100
 BYTE   W06
 BYTE   N05
 BYTE   N05  Dn1
 BYTE   N11  Ds2
 BYTE   W06
 BYTE   N05  Cn1
 BYTE   W06
 BYTE   N05
 BYTE   N05  Ds2  v064
 BYTE   W06
 BYTE   Cn1  v100
 BYTE   N05  Ds2  v064
 BYTE   W06
 BYTE   Cn1  v100
 BYTE   N11  Ds2
 BYTE   W06
 BYTE   N05  Cn1
 BYTE   W06
 BYTE   N05
 BYTE   N11  Ds2  v064
 BYTE   W06
 BYTE   N05  Cn1  v100
 BYTE   W06
 BYTE   N05
 BYTE   N05  Dn1
 BYTE   N11  Ds2
 BYTE   W06
 BYTE   N05  Cn1
 BYTE   N05  Dn1
 BYTE   W06
 BYTE   Cn1
 BYTE   N05  Dn1
 BYTE   N05  Ds2  v064
 BYTE   W06
 BYTE   Cn1  v100
 BYTE   N05  Dn1
 BYTE   N05  Ds2  v064
 BYTE   W05
 BYTE   PATT
  POIN2 Label_7_013A865F
 BYTE   PATT
  POIN2 Label_7_013A86B0
 BYTE   PATT
  POIN2 Label_7_013A86B0
// 021   ----------------------------------------
 BYTE   W01
 BYTE   N05  Cn1  v100
 BYTE   N44  Cs2  v120
 BYTE   N11  Ds2  v100
 BYTE   W06
 BYTE   N05  Cn1
 BYTE   W06
 BYTE   N05
 BYTE   N11  Ds2  v064
 BYTE   W06
 BYTE   N05  Cn1  v100
 BYTE   W06
 BYTE   N05
 BYTE   N05  Dn1
 BYTE   N11  Ds2
 BYTE   W06
 BYTE   N05  Cn1
 BYTE   W06
 BYTE   N05
 BYTE   N05  Ds2  v064
 BYTE   W06
 BYTE   Cn1  v100
 BYTE   N05  Ds2  v064
 BYTE   W06
 BYTE   Cn1  v100
 BYTE   N44  Cs2  v120
 BYTE   N11  Ds2  v100
 BYTE   W06
 BYTE   N05  Cn1
 BYTE   W06
 BYTE   N05
 BYTE   N11  Ds2  v064
 BYTE   W06
 BYTE   N05  Cn1  v100
 BYTE   W06
 BYTE   N05
 BYTE   N05  Dn1
 BYTE   N11  Ds2
 BYTE   W06
 BYTE   N05  Cn1
 BYTE   N05  Dn1
 BYTE   W06
 BYTE   Cn1
 BYTE   N05  Dn1
 BYTE   N05  Ds2  v064
 BYTE   W06
 BYTE   Cn1  v100
 BYTE   N05  Dn1
 BYTE   N04  Ds2  v064
 BYTE   W05
// 022   ----------------------------------------
 BYTE   GoTo
  POIN2 Label_7_013A8136
 BYTE   FINE

//**************** Track 9 (Midi-Chn.8) ****************//

song03_009:
// 000   ----------------------------------------
 BYTE   KEYSH   song03_key+0
Label_8_013A87C6:
 BYTE   VOICE   80
 BYTE   VOL   8*song03_mvl/mxv
 BYTE   PAN   c_v-50
 BYTE   BEND   c_v-1
 BYTE   W12
 BYTE   N04  Fs6  v120
 BYTE   W06
 BYTE   Cs6
 BYTE   W06
 BYTE   Fs5
 BYTE   W06
 BYTE   Cs6
 BYTE   W06
 BYTE   Fs6
 BYTE   W06
 BYTE   Cs6
 BYTE   W06
 BYTE   Fs5
 BYTE   W06
 BYTE   Cs6
 BYTE   W06
 BYTE   Fs6
 BYTE   W06
 BYTE   Cs6
 BYTE   W06
 BYTE   Fs5
 BYTE   W06
 BYTE   Cs6
 BYTE   W06
 BYTE   Fs6
 BYTE   W06
 BYTE   Cs6
 BYTE   W06
// 001   ----------------------------------------
 BYTE   Fs5
 BYTE   W06
 BYTE   Cs6
 BYTE   W06
 BYTE   Fs6
 BYTE   W06
 BYTE   Bn5
 BYTE   W06
 BYTE   Fs5
 BYTE   W06
 BYTE   Bn5
 BYTE   W06
 BYTE   Fs6
 BYTE   W06
 BYTE   Bn5
 BYTE   W06
 BYTE   Fs5
 BYTE   W06
 BYTE   Bn5
 BYTE   W06
 BYTE   Fs6
 BYTE   W06
 BYTE   Bn5
 BYTE   W06
 BYTE   Fs5
 BYTE   W06
 BYTE   Bn5
 BYTE   W06
 BYTE   Fs6
 BYTE   W06
 BYTE   Bn5
 BYTE   W06
// 002   ----------------------------------------
 BYTE   Fs5
 BYTE   W06
 BYTE   Bn5
 BYTE   W06
 BYTE   Fs6
 BYTE   W06
 BYTE   Bn5
 BYTE   W06
 BYTE   Fs5
 BYTE   W06
 BYTE   Bn5
 BYTE   W06
 BYTE   Fs6
 BYTE   W06
 BYTE   Bn5
 BYTE   W06
 BYTE   Fs5
 BYTE   W06
 BYTE   Bn5
 BYTE   W06
 BYTE   Fs6
 BYTE   W06
 BYTE   Bn5
 BYTE   W06
 BYTE   Fs5
 BYTE   W06
 BYTE   Bn5
 BYTE   W06
 BYTE   Fs6
 BYTE   W06
 BYTE   Bn5
 BYTE   W06
// 003   ----------------------------------------
 BYTE   Fs5
 BYTE   W06
 BYTE   Bn5
 BYTE   W06
 BYTE   Fs6
 BYTE   W06
 BYTE   Cs6
 BYTE   W06
 BYTE   Fs5
 BYTE   W06
 BYTE   Cs6
 BYTE   W06
 BYTE   Fs6
 BYTE   W06
 BYTE   Cs6
 BYTE   W06
 BYTE   Fs5
 BYTE   W06
 BYTE   Cs6
 BYTE   W06
 BYTE   An4
 BYTE   W06
 BYTE   Cs5
 BYTE   W06
 BYTE   En5
 BYTE   W06
 BYTE   An5
 BYTE   W06
 BYTE   En5
 BYTE   W06
 BYTE   An5
 BYTE   W06
// 004   ----------------------------------------
 BYTE   Cs6
 BYTE   W06
 BYTE   En6
 BYTE   W06
 BYTE   Gn6
 BYTE   W06
 BYTE   Dn6
 BYTE   W06
 BYTE   Gn5
 BYTE   W06
 BYTE   Dn6
 BYTE   W06
 BYTE   Gn6
 BYTE   W06
 BYTE   Dn6
 BYTE   W06
 BYTE   Gn5
 BYTE   W06
 BYTE   Dn6
 BYTE   W06
 BYTE   Gn6
 BYTE   W06
 BYTE   Dn6
 BYTE   W06
 BYTE   Gn5
 BYTE   W06
 BYTE   Dn6
 BYTE   W06
 BYTE   Gn6
 BYTE   W06
 BYTE   Dn6
 BYTE   W06
// 005   ----------------------------------------
 BYTE   Gn5
 BYTE   W06
 BYTE   Dn6
 BYTE   W06
 BYTE   En6  v108
 BYTE   W06
 BYTE   Cs6
 BYTE   W06
 BYTE   An5
 BYTE   W06
 BYTE   Fs5
 BYTE   W06
 BYTE   En5
 BYTE   W06
 BYTE   Cs5
 BYTE   W06
 BYTE   An4
 BYTE   W06
 BYTE   Fs4
 BYTE   W06
 BYTE   An4
 BYTE   W06
 BYTE   Cs5
 BYTE   W06
 BYTE   En5
 BYTE   W06
 BYTE   Fs5
 BYTE   W06
 BYTE   An5
 BYTE   W06
 BYTE   Cs6
 BYTE   W06
// 006   ----------------------------------------
Label_8_013A888E:
 BYTE   N04  En6  v108
 BYTE   W06
 BYTE   Fs5
 BYTE   W06
 BYTE   Fs4
 BYTE   W06
 BYTE   Bn4
 BYTE   W06
 BYTE   Ds5
 BYTE   W06
 BYTE   Fs5
 BYTE   W06
 BYTE   Bn4
 BYTE   W06
 BYTE   Ds5
 BYTE   W06
 BYTE   Fs5
 BYTE   W06
 BYTE   Bn5
 BYTE   W06
 BYTE   Ds5
 BYTE   W06
 BYTE   Fs5
 BYTE   W06
 BYTE   Bn5
 BYTE   W06
 BYTE   Ds6
 BYTE   W06
 BYTE   Fs6
 BYTE   W06
 BYTE   Ds6
 BYTE   W06
 BYTE   PEND 
// 007   ----------------------------------------
Label_8_013A88B1:
 BYTE   N04  Bn5  v108
 BYTE   W06
 BYTE   Fs5
 BYTE   W06
 BYTE   En4
 BYTE   W06
 BYTE   Fs4
 BYTE   W06
 BYTE   Gn4
 BYTE   W06
 BYTE   Bn4
 BYTE   W06
 BYTE   En5
 BYTE   W06
 BYTE   Fs5
 BYTE   W06
 BYTE   Gn5
 BYTE   W06
 BYTE   Bn5
 BYTE   W06
 BYTE   En6
 BYTE   W06
 BYTE   Bn5
 BYTE   W06
 BYTE   Gn5
 BYTE   W06
 BYTE   En5
 BYTE   W06
 BYTE   Bn4
 BYTE   W06
 BYTE   Gn4
 BYTE   W06
 BYTE   PEND 
// 008   ----------------------------------------
Label_8_013A88D4:
 BYTE   N04  En4  v108
 BYTE   W06
 BYTE   Bn3
 BYTE   W06
 BYTE   Fs4
 BYTE   W06
 BYTE   Bn4
 BYTE   W06
 BYTE   Ds5
 BYTE   W06
 BYTE   Fs5
 BYTE   W06
 BYTE   Bn4
 BYTE   W06
 BYTE   Ds5
 BYTE   W06
 BYTE   Fs5
 BYTE   W06
 BYTE   Bn5
 BYTE   W06
 BYTE   Ds5
 BYTE   W06
 BYTE   Fs5
 BYTE   W06
 BYTE   Bn5
 BYTE   W06
 BYTE   Ds6
 BYTE   W06
 BYTE   Fs5
 BYTE   W06
 BYTE   Bn5
 BYTE   W06
 BYTE   PEND 
// 009   ----------------------------------------
Label_8_013A88F7:
 BYTE   N04  Ds6  v108
 BYTE   W06
 BYTE   Fs6
 BYTE   W06
 BYTE   En6
 BYTE   W06
 BYTE   Cs6
 BYTE   W06
 BYTE   An5
 BYTE   W06
 BYTE   Fs5
 BYTE   W06
 BYTE   En5
 BYTE   W06
 BYTE   Cs5
 BYTE   W06
 BYTE   An4
 BYTE   W06
 BYTE   Fs4
 BYTE   W06
 BYTE   An4
 BYTE   W06
 BYTE   Cs5
 BYTE   W06
 BYTE   En5
 BYTE   W06
 BYTE   Fs5
 BYTE   W06
 BYTE   An5
 BYTE   W06
 BYTE   Cs6
 BYTE   W06
 BYTE   PEND 
 BYTE   PATT
  POIN2 Label_8_013A888E
 BYTE   PATT
  POIN2 Label_8_013A88B1
 BYTE   PATT
  POIN2 Label_8_013A88D4
 BYTE   PATT
  POIN2 Label_8_013A88F7
 BYTE   PATT
  POIN2 Label_8_013A888E
 BYTE   PATT
  POIN2 Label_8_013A88B1
 BYTE   PATT
  POIN2 Label_8_013A88D4
 BYTE   PATT
  POIN2 Label_8_013A88F7
 BYTE   PATT
  POIN2 Label_8_013A888E
 BYTE   PATT
  POIN2 Label_8_013A88B1
 BYTE   PATT
  POIN2 Label_8_013A88D4
// 010   ----------------------------------------
Label_8_013A8951:
 BYTE   N04  Ds6  v108
 BYTE   W06
 BYTE   Fs6
 BYTE   W90
 BYTE   PEND 
// 011   ----------------------------------------
 BYTE   W96
// 012   ----------------------------------------
 BYTE   W96
// 013   ----------------------------------------
 BYTE   W96
// 014   ----------------------------------------
 BYTE   W96
// 015   ----------------------------------------
 BYTE   W96
// 016   ----------------------------------------
 BYTE   W96
// 017   ----------------------------------------
Label_8_013A895E:
 BYTE   W12
 BYTE   N04  Fs4  v127
 BYTE   W06
 BYTE   Bn4
 BYTE   W06
 BYTE   Ds5
 BYTE   W06
 BYTE   Fs5
 BYTE   W06
 BYTE   Bn5
 BYTE   W06
 BYTE   Fs5
 BYTE   W06
 BYTE   Ds5
 BYTE   W06
 BYTE   Bn4
 BYTE   W06
 BYTE   Cn5
 BYTE   W06
 BYTE   En5
 BYTE   W06
 BYTE   Gn5
 BYTE   W06
 BYTE   Cn6
 BYTE   W06
 BYTE   Dn5
 BYTE   W06
 BYTE   Fs5
 BYTE   W06
 BYTE   PEND 
// 018   ----------------------------------------
 BYTE   An5
 BYTE   W06
 BYTE   Dn6
 BYTE   W06
 BYTE   En6  v108
 BYTE   W06
 BYTE   Cs6
 BYTE   W06
 BYTE   An5
 BYTE   W06
 BYTE   Fs5
 BYTE   W06
 BYTE   En5
 BYTE   W06
 BYTE   Cs5
 BYTE   W06
 BYTE   An4
 BYTE   W06
 BYTE   Fs4
 BYTE   W06
 BYTE   An4
 BYTE   W06
 BYTE   Cs5
 BYTE   W06
 BYTE   En5
 BYTE   W06
 BYTE   Fs5
 BYTE   W06
 BYTE   An5
 BYTE   W06
 BYTE   Cs6
 BYTE   W06
 BYTE   PATT
  POIN2 Label_8_013A888E
 BYTE   PATT
  POIN2 Label_8_013A88B1
 BYTE   PATT
  POIN2 Label_8_013A88D4
 BYTE   PATT
  POIN2 Label_8_013A88F7
 BYTE   PATT
  POIN2 Label_8_013A888E
 BYTE   PATT
  POIN2 Label_8_013A88B1
 BYTE   PATT
  POIN2 Label_8_013A88D4
 BYTE   PATT
  POIN2 Label_8_013A8951
// 019   ----------------------------------------
 BYTE   W96
// 020   ----------------------------------------
 BYTE   W96
// 021   ----------------------------------------
 BYTE   W96
// 022   ----------------------------------------
 BYTE   W96
// 023   ----------------------------------------
 BYTE   W96
// 024   ----------------------------------------
 BYTE   W96
// 025   ----------------------------------------
 BYTE   W96
// 026   ----------------------------------------
 BYTE   W12
 BYTE   N04  En6  v108
 BYTE   W06
 BYTE   Bn5
 BYTE   W06
 BYTE   En5
 BYTE   W06
 BYTE   Bn5
 BYTE   W06
 BYTE   En6
 BYTE   W06
 BYTE   Bn5
 BYTE   W06
 BYTE   En5
 BYTE   W06
 BYTE   Bn5
 BYTE   W06
 BYTE   En6
 BYTE   W06
 BYTE   Bn5
 BYTE   W06
 BYTE   En5
 BYTE   W06
 BYTE   Bn5
 BYTE   W06
 BYTE   En6
 BYTE   W06
 BYTE   Bn5
 BYTE   W06
// 027   ----------------------------------------
Label_8_013A89ED:
 BYTE   N04  En5  v108
 BYTE   W06
 BYTE   Bn5
 BYTE   W06
 BYTE   Fs6
 BYTE   W06
 BYTE   Bn5
 BYTE   W06
 BYTE   Fs5
 BYTE   W06
 BYTE   Bn5
 BYTE   W06
 BYTE   Fs6
 BYTE   W06
 BYTE   Bn5
 BYTE   W06
 BYTE   Fs5
 BYTE   W06
 BYTE   Bn5
 BYTE   W06
 BYTE   Fs6
 BYTE   W06
 BYTE   Bn5
 BYTE   W06
 BYTE   Fs5
 BYTE   W06
 BYTE   Bn5
 BYTE   W06
 BYTE   Fs6
 BYTE   W06
 BYTE   Bn5
 BYTE   W06
 BYTE   PEND 
// 028   ----------------------------------------
Label_8_013A8A10:
 BYTE   N04  Fs5  v108
 BYTE   W06
 BYTE   Bn5
 BYTE   W06
 BYTE   Gn6
 BYTE   W06
 BYTE   Cn6
 BYTE   W06
 BYTE   Gn5
 BYTE   W06
 BYTE   Cn6
 BYTE   W06
 BYTE   Gn6
 BYTE   W06
 BYTE   Cn6
 BYTE   W06
 BYTE   Gn5
 BYTE   W06
 BYTE   Cn6
 BYTE   W06
 BYTE   Gn6
 BYTE   W06
 BYTE   Cn6
 BYTE   W06
 BYTE   Gn5
 BYTE   W06
 BYTE   Cn6
 BYTE   W06
 BYTE   Gn6
 BYTE   W06
 BYTE   Cn6
 BYTE   W06
 BYTE   PEND 
// 029   ----------------------------------------
 BYTE   Gn5
 BYTE   W06
 BYTE   Cn6
 BYTE   W06
 BYTE   Fs6
 BYTE   W06
 BYTE   Cn6
 BYTE   W06
 BYTE   Fs5
 BYTE   W06
 BYTE   Cn6
 BYTE   W06
 BYTE   Fs6
 BYTE   W06
 BYTE   Cn6
 BYTE   W06
 BYTE   Fs5
 BYTE   W06
 BYTE   Cn6
 BYTE   W06
 BYTE   Fs6
 BYTE   W06
 BYTE   Cn6
 BYTE   W06
 BYTE   Fs5
 BYTE   W06
 BYTE   Cn6
 BYTE   W06
 BYTE   Fs6
 BYTE   W06
 BYTE   Cn6
 BYTE   W06
// 030   ----------------------------------------
 BYTE   Fs5
 BYTE   W06
 BYTE   Cn6
 BYTE   W06
 BYTE   En6
 BYTE   W06
 BYTE   Bn5
 BYTE   W06
 BYTE   En5
 BYTE   W06
 BYTE   Bn5
 BYTE   W06
 BYTE   En6
 BYTE   W06
 BYTE   Bn5
 BYTE   W06
 BYTE   En5
 BYTE   W06
 BYTE   Bn5
 BYTE   W06
 BYTE   En6
 BYTE   W06
 BYTE   Bn5
 BYTE   W06
 BYTE   En5
 BYTE   W06
 BYTE   Bn5
 BYTE   W06
 BYTE   En6
 BYTE   W06
 BYTE   Bn5
 BYTE   W06
 BYTE   PATT
  POIN2 Label_8_013A89ED
 BYTE   PATT
  POIN2 Label_8_013A8A10
// 031   ----------------------------------------
 BYTE   N04  Gn5  v108
 BYTE   W06
 BYTE   Cn6
 BYTE   W90
// 032   ----------------------------------------
 BYTE   W96
// 033   ----------------------------------------
 BYTE   W96
// 034   ----------------------------------------
 BYTE   W96
// 035   ----------------------------------------
 BYTE   W96
// 036   ----------------------------------------
 BYTE   W96
// 037   ----------------------------------------
 BYTE   W96
// 038   ----------------------------------------
 BYTE   W96
 BYTE   PATT
  POIN2 Label_8_013A895E
// 039   ----------------------------------------
 BYTE   N04  An5  v127
 BYTE   W06
 BYTE   Dn6
 BYTE   W90
// 040   ----------------------------------------
 BYTE   W96
// 041   ----------------------------------------
 BYTE   W96
// 042   ----------------------------------------
 BYTE   W96
// 043   ----------------------------------------
 BYTE   W96
// 044   ----------------------------------------
 BYTE   W96
// 045   ----------------------------------------
 BYTE   W96
// 046   ----------------------------------------
 BYTE   W96
// 047   ----------------------------------------
 BYTE   GoTo
  POIN2 Label_8_013A87C6
 BYTE   FINE

//**************** Track 10 (Midi-Chn.9) ****************//

song03_010:
// 000   ----------------------------------------
 BYTE   KEYSH   song03_key+0
Label_9_013A8AA6:
 BYTE   VOICE   49
 BYTE   PAN   c_v+0
 BYTE   VOL   24*song03_mvl/mxv
 BYTE   BEND   c_v-2
 BYTE   W12
 BYTE   N56  En4  v127
 BYTE   W56
 BYTE   W03
 BYTE   BEND   c_v-12
 BYTE   W01
 BYTE   Fs2
 BYTE   N16  Fs4
 BYTE   W01
 BYTE   BEND   c_v-8
 BYTE   W01
 BYTE   As2
 BYTE   W01
 BYTE   Bn2
 BYTE   W01
 BYTE   Cn3
 BYTE   W01
 BYTE   Cn3
 BYTE   W01
 BYTE   Cs3
 BYTE   W01
 BYTE   Cs3
 BYTE   W01
 BYTE   Cs3
 BYTE   W01
 BYTE   Dn3
 BYTE   W01
 BYTE   Dn3
 BYTE   W01
 BYTE   Dn3
 BYTE   W02
 BYTE   Dn3
 BYTE   W05
 BYTE   N16  En4
 BYTE   W06
// 001   ----------------------------------------
 BYTE   W12
 BYTE   N44  Ds4
 BYTE   W44
 BYTE   W03
 BYTE   BEND   c_v-12
 BYTE   W01
 BYTE   Fs2
 BYTE   N15  Bn3
 BYTE   W01
 BYTE   BEND   c_v-8
 BYTE   W01
 BYTE   As2
 BYTE   W01
 BYTE   Bn2
 BYTE   W01
 BYTE   Cn3
 BYTE   W01
 BYTE   Cn3
 BYTE   W01
 BYTE   Cs3
 BYTE   W01
 BYTE   Cs3
 BYTE   W01
 BYTE   Cs3
 BYTE   W01
 BYTE   Dn3
 BYTE   W01
 BYTE   Dn3
 BYTE   W01
 BYTE   Dn3
 BYTE   W02
 BYTE   Dn3
 BYTE   W05
 BYTE   N16
 BYTE   W18
// 002   ----------------------------------------
 BYTE   N10  Cs4
 BYTE   W12
 BYTE   N56  Dn4
 BYTE   W56
 BYTE   W03
 BYTE   BEND   c_v-12
 BYTE   W01
 BYTE   Fs2
 BYTE   N16  En4
 BYTE   W01
 BYTE   BEND   c_v-8
 BYTE   W01
 BYTE   As2
 BYTE   W01
 BYTE   Bn2
 BYTE   W01
 BYTE   Cn3
 BYTE   W01
 BYTE   Cn3
 BYTE   W01
 BYTE   Cs3
 BYTE   W01
 BYTE   Cs3
 BYTE   W01
 BYTE   Cs3
 BYTE   W01
 BYTE   Dn3
 BYTE   W01
 BYTE   Dn3
 BYTE   W01
 BYTE   Dn3
 BYTE   W02
 BYTE   Dn3
 BYTE   W05
 BYTE   N16  Dn4
 BYTE   W06
// 003   ----------------------------------------
 BYTE   W12
 BYTE   N36  Cs4
 BYTE   W48
 BYTE   N16  An3
 BYTE   W18
 BYTE   En4
 BYTE   W17
 BYTE   BEND   c_v-12
 BYTE   W01
// 004   ----------------------------------------
 BYTE   Fs2
 BYTE   N10  An4
 BYTE   W01
 BYTE   BEND   c_v-7
 BYTE   W01
 BYTE   Bn2
 BYTE   W01
 BYTE   Cn3
 BYTE   W01
 BYTE   Cs3
 BYTE   W01
 BYTE   Cs3
 BYTE   W01
 BYTE   Dn3
 BYTE   W01
 BYTE   Dn3
 BYTE   W02
 BYTE   Dn3
 BYTE   W02
 BYTE   Dn3
 BYTE   W01
 BYTE   N92  Gn4
 BYTE   W24
 BYTE   BEND   c_v-2
 BYTE   W12
 BYTE   Dn3
 BYTE   W07
 BYTE   Dn3
 BYTE   W05
 BYTE   Cs3
 BYTE   W04
 BYTE   Cs3
 BYTE   W03
 BYTE   Cs3
 BYTE   W02
 BYTE   Cs3
 BYTE   W03
 BYTE   Cs3
 BYTE   W02
 BYTE   Cs3
 BYTE   W02
 BYTE   Cn3
 BYTE   W01
 BYTE   Cn3
 BYTE   W02
 BYTE   Cn3
 BYTE   W01
 BYTE   Cn3
 BYTE   W01
 BYTE   Cn3
 BYTE   W02
 BYTE   Cn3
 BYTE   W01
 BYTE   Bn2
 BYTE   W01
 BYTE   Bn2
 BYTE   W01
 BYTE   Bn2
 BYTE   W01
 BYTE   Bn2
 BYTE   W01
 BYTE   Bn2
 BYTE   W01
 BYTE   As2
 BYTE   W01
 BYTE   As2
 BYTE   W01
 BYTE   As2
 BYTE   W01
 BYTE   As2
 BYTE   W01
 BYTE   As2
 BYTE   W01
 BYTE   An2
 BYTE   W01
 BYTE   An2
 BYTE   W01
// 005   ----------------------------------------
 BYTE   An2
 BYTE   W01
 BYTE   Gs2
 BYTE   W01
 BYTE   Gs2
 BYTE   W01
 BYTE   Gs2
 BYTE   W01
 BYTE   Gn2
 BYTE   W01
 BYTE   Gn2
 BYTE   W01
 BYTE   Fs2
 BYTE   W01
 BYTE   Fs2
 BYTE   W01
 BYTE   Fs2
 BYTE   W01
 BYTE   Fn2
 BYTE   W01
 BYTE   Fn2
 BYTE   W01
 BYTE   En2
 BYTE   W01
 BYTE   Dn3
 BYTE   W84
// 006   ----------------------------------------
 BYTE   W96
// 007   ----------------------------------------
 BYTE   W96
// 008   ----------------------------------------
 BYTE   W96
// 009   ----------------------------------------
 BYTE   W96
// 010   ----------------------------------------
 BYTE   W96
// 011   ----------------------------------------
 BYTE   W96
// 012   ----------------------------------------
 BYTE   W96
// 013   ----------------------------------------
 BYTE   W12
 BYTE   Dn3
 BYTE   W84
// 014   ----------------------------------------
 BYTE   W96
// 015   ----------------------------------------
 BYTE   W96
// 016   ----------------------------------------
 BYTE   W96
// 017   ----------------------------------------
 BYTE   W96
// 018   ----------------------------------------
 BYTE   W96
// 019   ----------------------------------------
 BYTE   W96
// 020   ----------------------------------------
 BYTE   W96
// 021   ----------------------------------------
 BYTE   W12
 BYTE   N05  En4
 BYTE   W12
 BYTE   Dn4
 BYTE   W12
 BYTE   N04  En4
 BYTE   W06
 BYTE   N05  Bn3
 BYTE   W12
 BYTE   Dn4
 BYTE   W12
 BYTE   En4
 BYTE   W12
 BYTE   N04
 BYTE   W06
 BYTE   N05  Dn4
 BYTE   W12
// 022   ----------------------------------------
Label_9_013A8BC5:
 BYTE   N05  En4  v127
 BYTE   W12
 BYTE   N16  Fs4
 BYTE   W18
 BYTE   Gn4
 BYTE   W18
 BYTE   N11  An4
 BYTE   W12
 BYTE   N04  Gn4
 BYTE   W06
 BYTE   Fs4
 BYTE   W06
 BYTE   En4
 BYTE   W06
 BYTE   Gn4
 BYTE   W06
 BYTE   Fs4
 BYTE   W06
 BYTE   En4
 BYTE   W06
 BYTE   PEND 
// 023   ----------------------------------------
Label_9_013A8BDF:
 BYTE   N04  Dn4  v127
 BYTE   W06
 BYTE   An3
 BYTE   W06
 BYTE   N05  Bn3
 BYTE   W12
 BYTE   An3
 BYTE   W12
 BYTE   N04  Bn3
 BYTE   W06
 BYTE   N05  En3
 BYTE   W12
 BYTE   An3
 BYTE   W12
 BYTE   Bn3
 BYTE   W12
 BYTE   N04
 BYTE   W06
 BYTE   N05  An3
 BYTE   W12
 BYTE   PEND 
// 024   ----------------------------------------
Label_9_013A8BFA:
 BYTE   N05  Bn3  v127
 BYTE   W11
 BYTE   BEND   c_v-12
 BYTE   W01
 BYTE   Fn2
 BYTE   N32  Cn4
 BYTE   W01
 BYTE   BEND   c_v-10
 BYTE   W01
 BYTE   Gn2
 BYTE   W01
 BYTE   Gs2
 BYTE   W01
 BYTE   An2
 BYTE   W01
 BYTE   As2
 BYTE   W01
 BYTE   As2
 BYTE   W01
 BYTE   Bn2
 BYTE   W01
 BYTE   Bn2
 BYTE   W01
 BYTE   Cn3
 BYTE   W01
 BYTE   Cn3
 BYTE   W01
 BYTE   Cn3
 BYTE   W01
 BYTE   Cs3
 BYTE   W01
 BYTE   Cs3
 BYTE   W01
 BYTE   Cs3
 BYTE   W01
 BYTE   Cs3
 BYTE   W01
 BYTE   Cs3
 BYTE   W02
 BYTE   Dn3
 BYTE   W02
 BYTE   Dn3
 BYTE   W02
 BYTE   Dn3
 BYTE   W05
 BYTE   Dn3
 BYTE   W08
 BYTE   Dn3
 BYTE   W01
 BYTE   N56  Bn3
 BYTE   W15
 BYTE   BEND   c_v-2
 BYTE   W07
 BYTE   Dn3
 BYTE   W05
 BYTE   Dn3
 BYTE   W03
 BYTE   Cs3
 BYTE   W02
 BYTE   Cs3
 BYTE   W02
 BYTE   Cs3
 BYTE   W02
 BYTE   Cs3
 BYTE   W01
 BYTE   Cs3
 BYTE   W02
 BYTE   Cs3
 BYTE   W01
 BYTE   Cn3
 BYTE   W01
 BYTE   Cn3
 BYTE   W01
 BYTE   Cn3
 BYTE   W01
 BYTE   Cn3
 BYTE   W01
 BYTE   Cn3
 BYTE   W01
 BYTE   Bn2
 BYTE   W01
 BYTE   Bn2
 BYTE   W01
 BYTE   Bn2
 BYTE   W01
 BYTE   PEND 
// 025   ----------------------------------------
Label_9_013A8C57:
 BYTE   BEND   c_v-6
 BYTE   W01
 BYTE   As2
 BYTE   W01
 BYTE   As2
 BYTE   W01
 BYTE   An2
 BYTE   W01
 BYTE   An2
 BYTE   W01
 BYTE   Gs2
 BYTE   W01
 BYTE   Gs2
 BYTE   W01
 BYTE   Gn2
 BYTE   W01
 BYTE   Fs2
 BYTE   W01
 BYTE   Fs2
 BYTE   W01
 BYTE   Fn2
 BYTE   W01
 BYTE   Dn3
 BYTE   W01
 BYTE   N05  En4  v127
 BYTE   W12
 BYTE   Dn4
 BYTE   W12
 BYTE   N04  En4
 BYTE   W06
 BYTE   N05  Bn3
 BYTE   W12
 BYTE   Dn4
 BYTE   W12
 BYTE   En4
 BYTE   W12
 BYTE   N04
 BYTE   W06
 BYTE   N05  Dn4
 BYTE   W12
 BYTE   PEND 
// 026   ----------------------------------------
Label_9_013A8C86:
 BYTE   N05  En4  v127
 BYTE   W12
 BYTE   N05
 BYTE   W12
 BYTE   Dn4
 BYTE   W12
 BYTE   N04  En4
 BYTE   W06
 BYTE   N05  Bn3
 BYTE   W12
 BYTE   Dn4
 BYTE   W12
 BYTE   En4
 BYTE   W12
 BYTE   N04
 BYTE   W06
 BYTE   N05  Dn4
 BYTE   W12
 BYTE   PEND 
// 027   ----------------------------------------
Label_9_013A8C9E:
 BYTE   N05  En4  v127
 BYTE   W12
 BYTE   N04  Ds4
 BYTE   W06
 BYTE   En4
 BYTE   W06
 BYTE   Fs4
 BYTE   W06
 BYTE   Bn3
 BYTE   W06
 BYTE   Bn4
 BYTE   W06
 BYTE   An4
 BYTE   W06
 BYTE   Gn4
 BYTE   W06
 BYTE   Fs4
 BYTE   W06
 BYTE   En4
 BYTE   W06
 BYTE   Ds4
 BYTE   W06
 BYTE   En4
 BYTE   W06
 BYTE   Fs4
 BYTE   W06
 BYTE   En4
 BYTE   W06
 BYTE   Ds4
 BYTE   W06
 BYTE   PEND 
// 028   ----------------------------------------
Label_9_013A8CC0:
 BYTE   N04  Bn3  v127
 BYTE   W06
 BYTE   An3
 BYTE   W06
 BYTE   N44  Bn3
 BYTE   W44
 BYTE   W03
 BYTE   BEND   c_v-12
 BYTE   W01
 BYTE   Fn2
 BYTE   N22  Cn4
 BYTE   W01
 BYTE   BEND   c_v-9
 BYTE   W01
 BYTE   An2
 BYTE   W01
 BYTE   As2
 BYTE   W01
 BYTE   Bn2
 BYTE   W01
 BYTE   Bn2
 BYTE   W01
 BYTE   Cn3
 BYTE   W01
 BYTE   Cn3
 BYTE   W01
 BYTE   Cs3
 BYTE   W01
 BYTE   Cs3
 BYTE   W01
 BYTE   Cs3
 BYTE   W01
 BYTE   Cs3
 BYTE   W01
 BYTE   Dn3
 BYTE   W01
 BYTE   Dn3
 BYTE   W02
 BYTE   Dn3
 BYTE   W03
 BYTE   Dn3
 BYTE   W06
 BYTE   N22  Dn4
 BYTE   W12
 BYTE   PEND 
// 029   ----------------------------------------
 BYTE   W96
// 030   ----------------------------------------
 BYTE   W96
// 031   ----------------------------------------
 BYTE   W96
// 032   ----------------------------------------
 BYTE   W96
// 033   ----------------------------------------
 BYTE   W96
// 034   ----------------------------------------
 BYTE   W96
// 035   ----------------------------------------
 BYTE   W96
// 036   ----------------------------------------
 BYTE   W96
// 037   ----------------------------------------
 BYTE   W96
// 038   ----------------------------------------
 BYTE   W96
// 039   ----------------------------------------
 BYTE   W96
// 040   ----------------------------------------
 BYTE   W96
// 041   ----------------------------------------
 BYTE   W96
// 042   ----------------------------------------
 BYTE   W96
// 043   ----------------------------------------
 BYTE   W96
// 044   ----------------------------------------
 BYTE   W96
// 045   ----------------------------------------
 BYTE   W12
 BYTE   N04  En3
 BYTE   W06
 BYTE   Fs3
 BYTE   W06
 BYTE   N05  Gn3
 BYTE   W24
 BYTE   N04  An3
 BYTE   W06
 BYTE   Bn3
 BYTE   W05
 BYTE   BEND   c_v-2
 BYTE   W01
 BYTE   N22  Cn4
 BYTE   W06
 BYTE   BEND   c_v-2
 BYTE   W03
 BYTE   Dn3
 BYTE   W02
 BYTE   Dn3
 BYTE   W01
 BYTE   Cs3
 BYTE   W01
 BYTE   Cs3
 BYTE   W01
 BYTE   Cs3
 BYTE   W01
 BYTE   Cs3
 BYTE   W01
 BYTE   Cn3
 BYTE   W01
 BYTE   Cn3
 BYTE   W01
 BYTE   Bn2
 BYTE   W01
 BYTE   As2
 BYTE   W01
 BYTE   An2
 BYTE   W01
 BYTE   Gs2
 BYTE   W01
 BYTE   Fs2
 BYTE   W01
 BYTE   En2
 BYTE   W01
 BYTE   Gs2
 BYTE   N04  Dn4
 BYTE   W01
 BYTE   BEND   c_v-4
 BYTE   W01
 BYTE   Cs3
 BYTE   W01
 BYTE   Dn3
 BYTE   W01
 BYTE   Dn3
 BYTE   W02
 BYTE   N04  En4
 BYTE   W06
// 046   ----------------------------------------
Label_9_013A8D47:
 BYTE   N04  Fs4  v127
 BYTE   W06
 BYTE   Gn4
 BYTE   W05
 BYTE   BEND   c_v-12
 BYTE   W01
 BYTE   Fs2
 BYTE   N16  Fs4
 BYTE   W01
 BYTE   BEND   c_v-8
 BYTE   W01
 BYTE   As2
 BYTE   W01
 BYTE   Bn2
 BYTE   W01
 BYTE   Cn3
 BYTE   W01
 BYTE   Cn3
 BYTE   W01
 BYTE   Cs3
 BYTE   W01
 BYTE   Cs3
 BYTE   W01
 BYTE   Cs3
 BYTE   W01
 BYTE   Dn3
 BYTE   W01
 BYTE   Dn3
 BYTE   W01
 BYTE   Dn3
 BYTE   W02
 BYTE   Dn3
 BYTE   W05
 BYTE   N16  Bn3
 BYTE   W18
 BYTE   N11  Ds4
 BYTE   W11
 BYTE   BEND   c_v-12
 BYTE   W01
 BYTE   Fs2
 BYTE   N16  An4
 BYTE   W01
 BYTE   BEND   c_v-8
 BYTE   W01
 BYTE   As2
 BYTE   W01
 BYTE   Bn2
 BYTE   W01
 BYTE   Cn3
 BYTE   W01
 BYTE   Cn3
 BYTE   W01
 BYTE   Cs3
 BYTE   W01
 BYTE   Cs3
 BYTE   W01
 BYTE   Cs3
 BYTE   W01
 BYTE   Dn3
 BYTE   W01
 BYTE   Dn3
 BYTE   W01
 BYTE   Dn3
 BYTE   W02
 BYTE   Dn3
 BYTE   W05
 BYTE   N16  Gn4
 BYTE   W18
 BYTE   PEND 
// 047   ----------------------------------------
Label_9_013A8D97:
 BYTE   N11  Fs4  v127
 BYTE   W12
 BYTE   N16  En4
 BYTE   W18
 BYTE   Dn4
 BYTE   W18
 BYTE   N11  Cn4
 BYTE   W12
 BYTE   N16  Bn3
 BYTE   W18
 BYTE   An3
 BYTE   W18
 BYTE   PEND 
// 048   ----------------------------------------
 BYTE   N11  Bn3
 BYTE   W12
 BYTE   N05  Cn4
 BYTE   W06
 BYTE   An3
 BYTE   W06
 BYTE   Fs3
 BYTE   W06
 BYTE   Ds3
 BYTE   W06
 BYTE   Ds4
 BYTE   W06
 BYTE   Cn4
 BYTE   W06
 BYTE   An3
 BYTE   W06
 BYTE   Fs3
 BYTE   W06
 BYTE   Fs4
 BYTE   W06
 BYTE   Ds4
 BYTE   W06
 BYTE   Cn4
 BYTE   W06
 BYTE   An3
 BYTE   W06
 BYTE   An4
 BYTE   W06
 BYTE   Fs4
 BYTE   W06
// 049   ----------------------------------------
 BYTE   Ds4
 BYTE   W06
 BYTE   Cn4
 BYTE   W06
 BYTE   N04  En3
 BYTE   W06
 BYTE   Fs3
 BYTE   W06
 BYTE   N05  Gn3
 BYTE   W24
 BYTE   N04  An3
 BYTE   W06
 BYTE   Bn3
 BYTE   W05
 BYTE   BEND   c_v-2
 BYTE   W01
 BYTE   N22  Cn4
 BYTE   W06
 BYTE   BEND   c_v-2
 BYTE   W03
 BYTE   Dn3
 BYTE   W02
 BYTE   Dn3
 BYTE   W01
 BYTE   Cs3
 BYTE   W01
 BYTE   Cs3
 BYTE   W01
 BYTE   Cs3
 BYTE   W01
 BYTE   Cs3
 BYTE   W01
 BYTE   Cn3
 BYTE   W01
 BYTE   Cn3
 BYTE   W01
 BYTE   Bn2
 BYTE   W01
 BYTE   As2
 BYTE   W01
 BYTE   An2
 BYTE   W01
 BYTE   Gs2
 BYTE   W01
 BYTE   Fs2
 BYTE   W01
 BYTE   En2
 BYTE   W01
 BYTE   Gs2
 BYTE   N04  Dn4
 BYTE   W01
 BYTE   BEND   c_v-4
 BYTE   W01
 BYTE   Cs3
 BYTE   W01
 BYTE   Dn3
 BYTE   W01
 BYTE   Dn3
 BYTE   W02
 BYTE   N04  En4
 BYTE   W06
 BYTE   PATT
  POIN2 Label_9_013A8D47
 BYTE   PATT
  POIN2 Label_9_013A8D97
// 050   ----------------------------------------
 BYTE   N11  Bn3  v127
 BYTE   W12
 BYTE   N05  Cn4
 BYTE   W06
 BYTE   An3
 BYTE   W06
 BYTE   Fs3
 BYTE   W06
 BYTE   Ds3
 BYTE   W06
 BYTE   Dn4
 BYTE   W06
 BYTE   Bn3
 BYTE   W06
 BYTE   Gs3
 BYTE   W06
 BYTE   Fn3
 BYTE   W06
 BYTE   Ds4
 BYTE   W06
 BYTE   Cn4
 BYTE   W06
 BYTE   An3
 BYTE   W06
 BYTE   Fs3
 BYTE   W06
 BYTE   Fn4
 BYTE   W06
 BYTE   Dn4
 BYTE   W06
// 051   ----------------------------------------
 BYTE   Bn3
 BYTE   W06
 BYTE   Gs3
 BYTE   W06
 BYTE   En4
 BYTE   W12
 BYTE   Dn4
 BYTE   W12
 BYTE   N04  En4
 BYTE   W06
 BYTE   N05  Bn3
 BYTE   W12
 BYTE   Dn4
 BYTE   W12
 BYTE   En4
 BYTE   W12
 BYTE   N04
 BYTE   W06
 BYTE   N05  Dn4
 BYTE   W12
 BYTE   PATT
  POIN2 Label_9_013A8BC5
 BYTE   PATT
  POIN2 Label_9_013A8BDF
 BYTE   PATT
  POIN2 Label_9_013A8BFA
 BYTE   PATT
  POIN2 Label_9_013A8C57
 BYTE   PATT
  POIN2 Label_9_013A8C86
 BYTE   PATT
  POIN2 Label_9_013A8C9E
 BYTE   PATT
  POIN2 Label_9_013A8CC0
// 052   ----------------------------------------
 BYTE   W96
// 053   ----------------------------------------
 BYTE   W96
// 054   ----------------------------------------
 BYTE   W96
// 055   ----------------------------------------
 BYTE   W96
// 056   ----------------------------------------
 BYTE   W96
// 057   ----------------------------------------
 BYTE   W96
// 058   ----------------------------------------
 BYTE   W96
// 059   ----------------------------------------
 BYTE   W96
// 060   ----------------------------------------
 BYTE   GoTo
  POIN2 Label_9_013A8AA6
 BYTE   FINE

//**************** Track 11 (Midi-Chn.10) ****************//

song03_011:
// 000   ----------------------------------------
 BYTE   KEYSH   song03_key+0
Label_10_013A8E86:
 BYTE   VOICE   14
 BYTE   VOL   11*song03_mvl/mxv
 BYTE   PAN   c_v+24
 BYTE   BEND   c_v-2
 BYTE   W96
// 001   ----------------------------------------
 BYTE   W96
// 002   ----------------------------------------
 BYTE   W96
// 003   ----------------------------------------
 BYTE   W96
// 004   ----------------------------------------
 BYTE   W96
// 005   ----------------------------------------
Label_10_013A8E93:
 BYTE   W09
 BYTE   N16  Gs5  v127
 BYTE   W18
 BYTE   An5  v116
 BYTE   W18
 BYTE   N54  En5  v127
 BYTE   W48
 BYTE   W03
 BYTE   PEND 
// 006   ----------------------------------------
Label_10_013A8EA1:
 BYTE   W09
 BYTE   N16  Ds5  v127
 BYTE   W18
 BYTE   En5  v116
 BYTE   W18
 BYTE   N10  Fs5  v127
 BYTE   W12
 BYTE   N16  En5
 BYTE   W18
 BYTE   Ds5  v116
 BYTE   W18
 BYTE   N10  Cn5  v127
 BYTE   W03
 BYTE   PEND 
// 007   ----------------------------------------
Label_10_013A8EB8:
 BYTE   W09
 BYTE   N44  Bn4  v127
 BYTE   W48
 BYTE   N11  Bn4  v116
 BYTE   W12
 BYTE   Bn4  v127
 BYTE   W12
 BYTE   N10  An4  v116
 BYTE   W12
 BYTE   Bn4  v127
 BYTE   W03
 BYTE   PEND 
// 008   ----------------------------------------
Label_10_013A8ECC:
 BYTE   W09
 BYTE   N16  Ds5  v127
 BYTE   W18
 BYTE   En5  v116
 BYTE   W18
 BYTE   N56  Fs5  v127
 BYTE   W48
 BYTE   W03
 BYTE   PEND 
 BYTE   PATT
  POIN2 Label_10_013A8E93
// 009   ----------------------------------------
Label_10_013A8EDF:
 BYTE   W09
 BYTE   N16  Fs5  v127
 BYTE   W18
 BYTE   En5  v116
 BYTE   W18
 BYTE   N10  Ds5  v127
 BYTE   W12
 BYTE   N16  Cn5
 BYTE   W18
 BYTE   Bn4  v116
 BYTE   W18
 BYTE   N10  An4  v127
 BYTE   W03
 BYTE   PEND 
// 010   ----------------------------------------
Label_10_013A8EF6:
 BYTE   W09
 BYTE   N16  Gn4  v127
 BYTE   W18
 BYTE   An4  v116
 BYTE   W18
 BYTE   N56  Bn4  v127
 BYTE   W48
 BYTE   W03
 BYTE   PEND 
 BYTE   PATT
  POIN2 Label_10_013A8ECC
 BYTE   PATT
  POIN2 Label_10_013A8E93
 BYTE   PATT
  POIN2 Label_10_013A8EA1
 BYTE   PATT
  POIN2 Label_10_013A8EB8
 BYTE   PATT
  POIN2 Label_10_013A8ECC
 BYTE   PATT
  POIN2 Label_10_013A8E93
 BYTE   PATT
  POIN2 Label_10_013A8EDF
 BYTE   PATT
  POIN2 Label_10_013A8EF6
 BYTE   PATT
  POIN2 Label_10_013A8ECC
// 011   ----------------------------------------
 BYTE   W96
// 012   ----------------------------------------
 BYTE   W96
// 013   ----------------------------------------
 BYTE   W96
// 014   ----------------------------------------
 BYTE   W96
// 015   ----------------------------------------
 BYTE   W96
// 016   ----------------------------------------
 BYTE   W96
// 017   ----------------------------------------
 BYTE   W96
// 018   ----------------------------------------
 BYTE   W96
// 019   ----------------------------------------
Label_10_013A8F39:
 BYTE   W06
 BYTE   N16  Gs5  v127
 BYTE   W18
 BYTE   An5  v116
 BYTE   W18
 BYTE   N54  En5  v127
 BYTE   W54
 BYTE   PEND 
// 020   ----------------------------------------
 BYTE   W06
 BYTE   N16  Ds5
 BYTE   W18
 BYTE   En5  v116
 BYTE   W18
 BYTE   N10  Fs5  v127
 BYTE   W12
 BYTE   N16  En5
 BYTE   W18
 BYTE   Ds5  v116
 BYTE   W18
 BYTE   N10  Cn5  v127
 BYTE   W06
// 021   ----------------------------------------
 BYTE   W06
 BYTE   N44  Bn4
 BYTE   W48
 BYTE   N11  Bn4  v116
 BYTE   W12
 BYTE   Bn4  v127
 BYTE   W12
 BYTE   N10  An4  v116
 BYTE   W12
 BYTE   Bn4  v127
 BYTE   W06
// 022   ----------------------------------------
Label_10_013A8F6D:
 BYTE   W06
 BYTE   N16  Ds5  v127
 BYTE   W18
 BYTE   En5  v116
 BYTE   W18
 BYTE   N56  Fs5  v127
 BYTE   W54
 BYTE   PEND 
 BYTE   PATT
  POIN2 Label_10_013A8F39
// 023   ----------------------------------------
 BYTE   W06
 BYTE   N16  Fs5  v127
 BYTE   W18
 BYTE   En5  v116
 BYTE   W18
 BYTE   N10  Ds5  v127
 BYTE   W12
 BYTE   N16  Cn5
 BYTE   W18
 BYTE   Bn4  v116
 BYTE   W18
 BYTE   N10  An4  v127
 BYTE   W06
// 024   ----------------------------------------
 BYTE   W06
 BYTE   N16  Gn4
 BYTE   W18
 BYTE   An4  v116
 BYTE   W18
 BYTE   N56  Bn4  v127
 BYTE   W54
 BYTE   PATT
  POIN2 Label_10_013A8F6D
// 025   ----------------------------------------
 BYTE   W96
// 026   ----------------------------------------
 BYTE   W96
// 027   ----------------------------------------
 BYTE   W96
// 028   ----------------------------------------
 BYTE   W96
// 029   ----------------------------------------
 BYTE   W96
// 030   ----------------------------------------
 BYTE   W96
// 031   ----------------------------------------
 BYTE   W96
// 032   ----------------------------------------
 BYTE   W96
// 033   ----------------------------------------
 BYTE   W96
// 034   ----------------------------------------
 BYTE   W96
// 035   ----------------------------------------
 BYTE   W96
// 036   ----------------------------------------
 BYTE   W96
// 037   ----------------------------------------
 BYTE   W96
// 038   ----------------------------------------
 BYTE   W96
// 039   ----------------------------------------
 BYTE   W96
// 040   ----------------------------------------
 BYTE   W96
// 041   ----------------------------------------
 BYTE   W96
// 042   ----------------------------------------
 BYTE   W96
// 043   ----------------------------------------
 BYTE   W96
// 044   ----------------------------------------
 BYTE   W96
// 045   ----------------------------------------
 BYTE   W96
// 046   ----------------------------------------
 BYTE   W96
// 047   ----------------------------------------
 BYTE   W96
// 048   ----------------------------------------
 BYTE   W96
// 049   ----------------------------------------
 BYTE   W96
// 050   ----------------------------------------
 BYTE   W96
// 051   ----------------------------------------
 BYTE   W96
// 052   ----------------------------------------
 BYTE   W96
// 053   ----------------------------------------
 BYTE   W96
// 054   ----------------------------------------
 BYTE   W96
// 055   ----------------------------------------
 BYTE   W96
// 056   ----------------------------------------
 BYTE   W96
// 057   ----------------------------------------
 BYTE   GoTo
  POIN2 Label_10_013A8E86
 BYTE   FINE

//******************************************************//
	ALIGN 4

song03:
	BYTE	11	// NumTrks
	BYTE	0	// NumBlks
	BYTE	song03_pri	// Priority
	BYTE	song03_rev	// Reverb.
    
	POIN2	song03_grp
    
	POIN2	song03_001
	POIN2	song03_002
	POIN2	song03_003
	POIN2	song03_004
	POIN2	song03_005
	POIN2	song03_006
	POIN2	song03_007
	POIN2	song03_008
	POIN2	song03_009
	POIN2	song03_010
	POIN2	song03_011

	
