//Event file generated from Sappy .s format.
	#include "MPlayDef.event"

	#define	song01_grp  voicegroup000
	#define	song01_pri  0
	#define	song01_rev  148
	#define	song01_mvl  127
	#define	song01_key  0
	#define	song01_tbs  1
	#define	song01_exg  0
	#define	song01_cmp  1

	// .rodata
	//	song01
	ALIGN 4


//**************** Track 1 (Midi-Chn.0) ****************//

song01_001:
//  #01 //000   ----------------------------------------
 BYTE   KEYSH   song01_key+0
 BYTE   TEMPO   134*song01_tbs/2
 BYTE   VOICE   48
 BYTE   MODT 0
 BYTE   LFOS 44
 BYTE   PAN   c_v+14
 BYTE   VOL   36*song01_mvl/mxv
 BYTE   W96
//  #01 //001   ----------------------------------------
 BYTE   W96
//  #01 //002   ----------------------------------------
 BYTE   W96
//  #01 //003   ----------------------------------------
 BYTE   W96
//  #01 //004   ----------------------------------------
Label_019DB95A:
 BYTE   W24
 BYTE   N05  Gn4  v116
 BYTE   W06
 BYTE   Fn4
 BYTE   W12
 BYTE   N88  Gn4
 BYTE   W54
 BYTE   PEND 
//  #01 //005   ----------------------------------------
Label_019DB965:
 BYTE   W36
 BYTE   N05  Fn4  v116
 BYTE   W06
 BYTE   Gn4
 BYTE   W06
 BYTE   N17  Fn4
 BYTE   W18
 BYTE   En4
 BYTE   W18
 BYTE   N11  Cn4
 BYTE   W12
 BYTE   PEND 
//  #01 //006   ----------------------------------------
 BYTE   TIE  An3
 BYTE   W96
//  #01 //007   ----------------------------------------
 BYTE   W92
 BYTE   W03
 BYTE   EOT
 BYTE   W01
//  #01 //008   ----------------------------------------
Label_019DB97C:
 BYTE   W24
 BYTE   N05  Gn4  v116
 BYTE   W12
 BYTE   An4
 BYTE   W06
 BYTE   N88  Gn4
 BYTE   W54
 BYTE   PEND 
//  #01 //009   ----------------------------------------
 BYTE   PATT
  POIN2 Label_019DB965
//  #01 //010   ----------------------------------------
Label_019DB98C:
 BYTE   N32  Dn4  v116
 BYTE   W36
 BYTE   TIE  An4
 BYTE   W60
 BYTE   PEND 
//  #01 //011   ----------------------------------------
 BYTE   W68
 BYTE   W03
 BYTE   EOT
 BYTE   W24
 BYTE   W01
//  #01 //012   ----------------------------------------
 BYTE   W96
//  #01 //013   ----------------------------------------
 BYTE   W96
//  #01 //014   ----------------------------------------
 BYTE   W96
//  #01 //015   ----------------------------------------
 BYTE   W96
//  #01 //016   ----------------------------------------
 BYTE   W96
//  #01 //017   ----------------------------------------
 BYTE   W96
//  #01 //018   ----------------------------------------
 BYTE   W96
//  #01 //019   ----------------------------------------
Label_019DB9A0:
 BYTE   W72
 BYTE   N05  Ds4  v116
 BYTE   W06
 BYTE   En4
 BYTE   W06
 BYTE   Fn4
 BYTE   W06
 BYTE   Fs4
 BYTE   W06
 BYTE   PEND 
//  #01 //020   ----------------------------------------
Label_019DB9AC:
 BYTE   N17  Gn4  v116
 BYTE   W18
 BYTE   Ds4
 BYTE   W18
 BYTE   Cn4
 BYTE   W18
 BYTE   Ds4
 BYTE   W18
 BYTE   N11  Fn4
 BYTE   W12
 BYTE   Gn4
 BYTE   W12
 BYTE   PEND 
//  #01 //021   ----------------------------------------
Label_019DB9BC:
 BYTE   N17  An4  v116
 BYTE   W18
 BYTE   Fn4
 BYTE   W18
 BYTE   Dn4
 BYTE   W18
 BYTE   Fn4
 BYTE   W18
 BYTE   N11  Gn4
 BYTE   W12
 BYTE   An4
 BYTE   W12
 BYTE   PEND 
//  #01 //022   ----------------------------------------
Label_019DB9CC:
 BYTE   N17  As4  v116
 BYTE   W18
 BYTE   Fn4
 BYTE   W18
 BYTE   Ds4
 BYTE   W18
 BYTE   Fn4
 BYTE   W18
 BYTE   N11  As4
 BYTE   W12
 BYTE   Cn5
 BYTE   W12
 BYTE   PEND 
//  #01 //023   ----------------------------------------
 BYTE   N92  Cs5
 BYTE   W96
//  #01 //024   ----------------------------------------
 BYTE   TIE  Dn5
 BYTE   W96
//  #01 //025   ----------------------------------------
 BYTE   W92
 BYTE   W03
 BYTE   EOT
 BYTE   W01
//  #01 //026   ----------------------------------------
 BYTE   W96
//  #01 //027   ----------------------------------------
 BYTE   W96
//  #01 //028   ----------------------------------------
 BYTE   PATT
  POIN2 Label_019DB95A
//  #01 //029   ----------------------------------------
 BYTE   PATT
  POIN2 Label_019DB965
//  #01 //030   ----------------------------------------
 BYTE   TIE  An3  v116
 BYTE   W96
//  #01 //031   ----------------------------------------
 BYTE   W92
 BYTE   W03
 BYTE   EOT
 BYTE   W01
//  #01 //032   ----------------------------------------
 BYTE   PATT
  POIN2 Label_019DB97C
//  #01 //033   ----------------------------------------
 BYTE   PATT
  POIN2 Label_019DB965
//  #01 //034   ----------------------------------------
 BYTE   PATT
  POIN2 Label_019DB98C
//  #01 //035   ----------------------------------------
 BYTE   W68
 BYTE   W03
 BYTE   EOT
 BYTE   An4
 BYTE   W24
 BYTE   W01
//  #01 //036   ----------------------------------------
 BYTE   W96
//  #01 //037   ----------------------------------------
 BYTE   W96
//  #01 //038   ----------------------------------------
 BYTE   W96
//  #01 //039   ----------------------------------------
 BYTE   W96
//  #01 //040   ----------------------------------------
 BYTE   W96
//  #01 //041   ----------------------------------------
 BYTE   W96
//  #01 //042   ----------------------------------------
 BYTE   W96
//  #01 //043   ----------------------------------------
 BYTE   PATT
  POIN2 Label_019DB9A0
//  #01 //044   ----------------------------------------
 BYTE   PATT
  POIN2 Label_019DB9AC
//  #01 //045   ----------------------------------------
 BYTE   PATT
  POIN2 Label_019DB9BC
//  #01 //046   ----------------------------------------
 BYTE   PATT
  POIN2 Label_019DB9CC
//  #01 //047   ----------------------------------------
 BYTE   N92  Cs5  v116
 BYTE   W96
//  #01 //048   ----------------------------------------
 BYTE   TIE  Dn5
 BYTE   W96
//  #01 //049   ----------------------------------------
 BYTE   W92
 BYTE   W03
 BYTE   EOT
 BYTE   W01
//  #01 //050   ----------------------------------------
 BYTE   W96
//  #01 //051   ----------------------------------------
 BYTE   W96
//  #01 //052   ----------------------------------------
 BYTE   GoTo
  POIN2 Label_019DB95A
 BYTE   FINE

//**************** Track 2 (Midi-Chn.1) ****************//

song01_002:
//  #02 //000   ----------------------------------------
 BYTE   KEYSH   song01_key+0
 BYTE   VOICE   36
 BYTE   MODT 0
 BYTE   LFOS 44
 BYTE   PAN   c_v+0
 BYTE   VOL   35*song01_mvl/mxv
 BYTE   N10  Dn1  v112
 BYTE   W12
 BYTE   N10
 BYTE   W24
 BYTE   N04  Cn1
 BYTE   W06
 BYTE   N28  Dn1
 BYTE   W30
 BYTE   N04  Fn1
 BYTE   W06
 BYTE   N10  Gn1
 BYTE   W12
 BYTE   N04  Cn1
 BYTE   W06
//  #02 //001   ----------------------------------------
Label_019DA6ED:
 BYTE   N10  Dn1  v112
 BYTE   W12
 BYTE   N10
 BYTE   W24
 BYTE   N04  Cn1
 BYTE   W06
 BYTE   N10  Dn1
 BYTE   W12
 BYTE   N10
 BYTE   W12
 BYTE   N04
 BYTE   W06
 BYTE   Fn1
 BYTE   W06
 BYTE   Gn1
 BYTE   W06
 BYTE   Bn0
 BYTE   W06
 BYTE   Cn1
 BYTE   W06
 BYTE   PEND 
//  #02 //002   ----------------------------------------
Label_019DA706:
 BYTE   N10  Dn1  v112
 BYTE   W12
 BYTE   N10
 BYTE   W24
 BYTE   N04  Cn1
 BYTE   W06
 BYTE   N28  Dn1
 BYTE   W30
 BYTE   N04  Fn1
 BYTE   W06
 BYTE   N10  Gn1
 BYTE   W12
 BYTE   N04  Cn1
 BYTE   W06
 BYTE   PEND 
//  #02 //003   ----------------------------------------
Label_019DA71C:
 BYTE   N10  Dn1  v112
 BYTE   W12
 BYTE   N10
 BYTE   W18
 BYTE   N04
 BYTE   W06
 BYTE   Cn1
 BYTE   W06
 BYTE   Dn1
 BYTE   W06
 BYTE   N22  Fn1
 BYTE   W24
 BYTE   Gn1
 BYTE   W24
 BYTE   PEND 
//  #02 //004   ----------------------------------------
Label_019DA72E:
//  #02 //005   ----------------------------------------
 BYTE   PATT
  POIN2 Label_019DA706
//  #02 //006   ----------------------------------------
 BYTE   PATT
  POIN2 Label_019DA6ED
//  #02 //007   ----------------------------------------
 BYTE   PATT
  POIN2 Label_019DA706
//  #02 //008   ----------------------------------------
 BYTE   PATT
  POIN2 Label_019DA71C
//  #02 //009   ----------------------------------------
 BYTE   PATT
  POIN2 Label_019DA706
//  #02 //010   ----------------------------------------
 BYTE   PATT
  POIN2 Label_019DA6ED
//  #02 //011   ----------------------------------------
 BYTE   PATT
  POIN2 Label_019DA706
//  #02 //012   ----------------------------------------
 BYTE   PATT
  POIN2 Label_019DA71C
//  #02 //013   ----------------------------------------
 BYTE   PATT
  POIN2 Label_019DA706
//  #02 //014   ----------------------------------------
 BYTE   PATT
  POIN2 Label_019DA6ED
//  #02 //015   ----------------------------------------
 BYTE   PATT
  POIN2 Label_019DA706
//  #02 //016   ----------------------------------------
Label_019DA765:
 BYTE   N04  Dn1  v112
 BYTE   W06
 BYTE   N04
 BYTE   W06
 BYTE   Dn2
 BYTE   W06
 BYTE   Cn2
 BYTE   W06
 BYTE   Gs1
 BYTE   W06
 BYTE   Gn1
 BYTE   W06
 BYTE   Fn1
 BYTE   W06
 BYTE   Dn1
 BYTE   W06
 BYTE   N22  Fn1
 BYTE   W24
 BYTE   Gn1
 BYTE   W24
 BYTE   PEND 
//  #02 //017   ----------------------------------------
 BYTE   PATT
  POIN2 Label_019DA706
//  #02 //018   ----------------------------------------
 BYTE   PATT
  POIN2 Label_019DA6ED
//  #02 //019   ----------------------------------------
 BYTE   PATT
  POIN2 Label_019DA706
//  #02 //020   ----------------------------------------
Label_019DA78C:
 BYTE   N04  Dn1  v112
 BYTE   W06
 BYTE   N04
 BYTE   W06
 BYTE   Fn1
 BYTE   W06
 BYTE   Gn1
 BYTE   W06
 BYTE   En1
 BYTE   W06
 BYTE   Fn1
 BYTE   W06
 BYTE   En1
 BYTE   W06
 BYTE   Dn1
 BYTE   W12
 BYTE   Fn1
 BYTE   W06
 BYTE   Dn1
 BYTE   W06
 BYTE   Fn1
 BYTE   W12
 BYTE   Gn1
 BYTE   W06
 BYTE   En1
 BYTE   W06
 BYTE   Gn1
 BYTE   W06
 BYTE   PEND 
//  #02 //021   ----------------------------------------
Label_019DA7AB:
 BYTE   N10  Gs1  v112
 BYTE   W12
 BYTE   N10
 BYTE   W24
 BYTE   N04  Gn1
 BYTE   W06
 BYTE   N10  Gs1
 BYTE   W12
 BYTE   N10
 BYTE   W18
 BYTE   Gn1
 BYTE   W12
 BYTE   Gs1
 BYTE   W12
 BYTE   PEND 
//  #02 //022   ----------------------------------------
Label_019DA7BE:
 BYTE   N10  Gn1  v112
 BYTE   W12
 BYTE   N10
 BYTE   W24
 BYTE   N04  Fs1
 BYTE   W06
 BYTE   N10  Gn1
 BYTE   W12
 BYTE   N10
 BYTE   W18
 BYTE   Fs1
 BYTE   W12
 BYTE   Gn1
 BYTE   W12
 BYTE   PEND 
//  #02 //023   ----------------------------------------
Label_019DA7D1:
 BYTE   N10  Fn1  v112
 BYTE   W12
 BYTE   N10
 BYTE   W24
 BYTE   N04  Ds1
 BYTE   W06
 BYTE   N10  Fn1
 BYTE   W12
 BYTE   N10
 BYTE   W18
 BYTE   Ds1
 BYTE   W12
 BYTE   N04
 BYTE   W06
 BYTE   Fn1
 BYTE   W06
 BYTE   PEND 
//  #02 //024   ----------------------------------------
 BYTE   N92  Ds1
 BYTE   W96
//  #02 //025   ----------------------------------------
 BYTE   PATT
  POIN2 Label_019DA706
//  #02 //026   ----------------------------------------
 BYTE   PATT
  POIN2 Label_019DA6ED
//  #02 //027   ----------------------------------------
 BYTE   PATT
  POIN2 Label_019DA706
//  #02 //028   ----------------------------------------
Label_019DA7F8:
 BYTE   N10  Dn1  v112
 BYTE   W12
 BYTE   N10
 BYTE   W18
 BYTE   N04
 BYTE   W06
 BYTE   Cn1
 BYTE   W06
 BYTE   Dn1
 BYTE   W12
 BYTE   N04
 BYTE   W06
 BYTE   Fn1
 BYTE   W06
 BYTE   Gn1
 BYTE   W06
 BYTE   Fn1
 BYTE   W06
 BYTE   En1
 BYTE   W06
 BYTE   N10  Cn1
 BYTE   W12
 BYTE   PEND 
//  #02 //029   ----------------------------------------
 BYTE   PATT
  POIN2 Label_019DA706
//  #02 //030   ----------------------------------------
 BYTE   PATT
  POIN2 Label_019DA6ED
//  #02 //031   ----------------------------------------
 BYTE   PATT
  POIN2 Label_019DA706
//  #02 //032   ----------------------------------------
 BYTE   PATT
  POIN2 Label_019DA71C
//  #02 //033   ----------------------------------------
 BYTE   PATT
  POIN2 Label_019DA706
//  #02 //034   ----------------------------------------
 BYTE   PATT
  POIN2 Label_019DA6ED
//  #02 //035   ----------------------------------------
 BYTE   PATT
  POIN2 Label_019DA706
//  #02 //036   ----------------------------------------
 BYTE   PATT
  POIN2 Label_019DA71C
//  #02 //037   ----------------------------------------
 BYTE   PATT
  POIN2 Label_019DA706
//  #02 //038   ----------------------------------------
 BYTE   PATT
  POIN2 Label_019DA6ED
//  #02 //039   ----------------------------------------
 BYTE   PATT
  POIN2 Label_019DA706
//  #02 //040   ----------------------------------------
 BYTE   PATT
  POIN2 Label_019DA765
//  #02 //041   ----------------------------------------
 BYTE   PATT
  POIN2 Label_019DA706
//  #02 //042   ----------------------------------------
 BYTE   PATT
  POIN2 Label_019DA6ED
//  #02 //043   ----------------------------------------
 BYTE   PATT
  POIN2 Label_019DA706
//  #02 //044   ----------------------------------------
 BYTE   PATT
  POIN2 Label_019DA78C
//  #02 //045   ----------------------------------------
 BYTE   PATT
  POIN2 Label_019DA7AB
//  #02 //046   ----------------------------------------
 BYTE   PATT
  POIN2 Label_019DA7BE
//  #02 //047   ----------------------------------------
 BYTE   PATT
  POIN2 Label_019DA7D1
//  #02 //048   ----------------------------------------
 BYTE   N92  Ds1  v112
 BYTE   W96
//  #02 //049   ----------------------------------------
 BYTE   PATT
  POIN2 Label_019DA706
//  #02 //050   ----------------------------------------
 BYTE   PATT
  POIN2 Label_019DA6ED
//  #02 //051   ----------------------------------------
 BYTE   PATT
  POIN2 Label_019DA706
//  #02 //052   ----------------------------------------
 BYTE   PATT
  POIN2 Label_019DA7F8
//  #02 //053   ----------------------------------------
 BYTE   GoTo
  POIN2 Label_019DA72E
 BYTE   FINE

//**************** Track 3 (Midi-Chn.2) ****************//

song01_003:
//  #03 //000   ----------------------------------------
 BYTE   KEYSH   song01_key+0
 BYTE   VOICE   1
 BYTE   MODT 0
 BYTE   LFOS 44
 BYTE   PAN   c_v+26
 BYTE   VOL   28*song01_mvl/mxv
 BYTE   N22  Dn2  v044
 BYTE   W24
 BYTE   N10  Fn3  v092
 BYTE   N10  An3
 BYTE   N10  Cn4
 BYTE   W12
 BYTE   Dn2  v044
 BYTE   W12
 BYTE   Fn3  v092
 BYTE   N10  An3
 BYTE   N10  Cn4
 BYTE   W12
 BYTE   N04  Dn2  v044
 BYTE   W06
 BYTE   Fn3  v092
 BYTE   N04  An3
 BYTE   N04  Cn4
 BYTE   W12
 BYTE   Dn3
 BYTE   N04  Gn3
 BYTE   N04  Bn3
 BYTE   W12
 BYTE   Cn2  v044
 BYTE   W06
//  #03 //001   ----------------------------------------
Label_019DB16A:
 BYTE   N22  Dn2  v044
 BYTE   W24
 BYTE   N10  Fn3  v092
 BYTE   N10  An3
 BYTE   N10  Cn4
 BYTE   W12
 BYTE   Dn2  v044
 BYTE   W12
 BYTE   Fn3  v092
 BYTE   N10  An3
 BYTE   N10  Cn4
 BYTE   W12
 BYTE   N04  Dn2  v044
 BYTE   W06
 BYTE   Fn3  v092
 BYTE   N04  An3
 BYTE   N04  Cn4
 BYTE   W12
 BYTE   Fn3
 BYTE   N04  An3
 BYTE   N04  Bn3
 BYTE   W06
 BYTE   Bn1  v044
 BYTE   W06
 BYTE   Cn2
 BYTE   W06
 BYTE   PEND 
//  #03 //002   ----------------------------------------
Label_019DB197:
 BYTE   N22  Dn2  v044
 BYTE   W24
 BYTE   N10  Fn3  v092
 BYTE   N10  An3
 BYTE   N10  Cn4
 BYTE   W12
 BYTE   Dn2  v044
 BYTE   W12
 BYTE   Fn3  v092
 BYTE   N10  An3
 BYTE   N10  Cn4
 BYTE   W12
 BYTE   N04  Dn2  v044
 BYTE   W06
 BYTE   Fn3  v092
 BYTE   N04  An3
 BYTE   N04  Cn4
 BYTE   W12
 BYTE   Dn3
 BYTE   N04  Gn3
 BYTE   N04  Bn3
 BYTE   W12
 BYTE   Cn2  v044
 BYTE   W06
 BYTE   PEND 
//  #03 //003   ----------------------------------------
Label_019DB1C2:
 BYTE   N22  Dn2  v044
 BYTE   W24
 BYTE   N10  Fn3  v092
 BYTE   N10  An3
 BYTE   N10  Cn4
 BYTE   W12
 BYTE   Dn2  v044
 BYTE   W12
 BYTE   N22  Fn3  v092
 BYTE   N22  An3
 BYTE   N22  Cn4
 BYTE   W24
 BYTE   Fn3
 BYTE   N22  An3
 BYTE   N22  Bn3
 BYTE   W24
 BYTE   PEND 
//  #03 //004   ----------------------------------------
Label_019DB1E0:
//  #03 //005   ----------------------------------------
 BYTE   PATT
  POIN2 Label_019DB197
//  #03 //006   ----------------------------------------
 BYTE   PATT
  POIN2 Label_019DB16A
//  #03 //007   ----------------------------------------
 BYTE   PATT
  POIN2 Label_019DB197
//  #03 //008   ----------------------------------------
 BYTE   PATT
  POIN2 Label_019DB1C2
//  #03 //009   ----------------------------------------
 BYTE   PATT
  POIN2 Label_019DB197
//  #03 //010   ----------------------------------------
 BYTE   PATT
  POIN2 Label_019DB16A
//  #03 //011   ----------------------------------------
 BYTE   PATT
  POIN2 Label_019DB197
//  #03 //012   ----------------------------------------
 BYTE   PATT
  POIN2 Label_019DB1C2
//  #03 //013   ----------------------------------------
Label_019DB208:
 BYTE   TIE  En3  v092
 BYTE   TIE  Fn3
 BYTE   TIE  An3
 BYTE   TIE  Cn4
 BYTE   W96
 BYTE   PEND 
//  #03 //014   ----------------------------------------
 BYTE   W92
 BYTE   W02
 BYTE   EOT
 BYTE   En3  v065
 BYTE   An3  v072
 BYTE   W02
//  #03 //015   ----------------------------------------
Label_019DB21B:
 BYTE   N44  Dn3  v092
 BYTE   N44  Fn3
 BYTE   N44  Gn3
 BYTE   N44  Bn3
 BYTE   W48
 BYTE   N16
 BYTE   N16  Dn4
 BYTE   W18
 BYTE   N04  Bn3
 BYTE   N04  Dn4
 BYTE   W30
 BYTE   PEND 
//  #03 //016   ----------------------------------------
Label_019DB22F:
 BYTE   W48
 BYTE   N22  Cn3  v092
 BYTE   N22  Fn3
 BYTE   N22  An3
 BYTE   W24
 BYTE   Bn2
 BYTE   N22  Fn3
 BYTE   N22  An3
 BYTE   W24
 BYTE   PEND 
//  #03 //017   ----------------------------------------
 BYTE   PATT
  POIN2 Label_019DB208
//  #03 //018   ----------------------------------------
 BYTE   W92
 BYTE   W02
 BYTE   EOT
 BYTE   En3  v065
 BYTE   An3  v072
 BYTE   W02
//  #03 //019   ----------------------------------------
 BYTE   PATT
  POIN2 Label_019DB21B
//  #03 //020   ----------------------------------------
 BYTE   PATT
  POIN2 Label_019DB22F
//  #03 //021   ----------------------------------------
 BYTE   N92  Cn3  v092
 BYTE   N92  Gn3
 BYTE   W96
//  #03 //022   ----------------------------------------
 BYTE   Dn3
 BYTE   N92  An3
 BYTE   W96
//  #03 //023   ----------------------------------------
 BYTE   Cn3
 BYTE   N92  As3
 BYTE   W96
//  #03 //024   ----------------------------------------
 BYTE   Fn3
 BYTE   N92  An3
 BYTE   W96
//  #03 //025   ----------------------------------------
Label_019DB268:
 BYTE   TIE  En3  v092
 BYTE   TIE  An3
 BYTE   W96
 BYTE   PEND 
//  #03 //026   ----------------------------------------
 BYTE   W92
 BYTE   W02
 BYTE   EOT
 BYTE   En3  v069
 BYTE   W02
//  #03 //027   ----------------------------------------
Label_019DB275:
 BYTE   TIE  En3  v092
 BYTE   TIE  Gn3
 BYTE   TIE  Cn4
 BYTE   W96
 BYTE   PEND 
//  #03 //028   ----------------------------------------
 BYTE   W92
 BYTE   W02
 BYTE   EOT
 BYTE   En3  v067
 BYTE   Cn4
 BYTE   W02
//  #03 //029   ----------------------------------------
 BYTE   PATT
  POIN2 Label_019DB197
//  #03 //030   ----------------------------------------
 BYTE   PATT
  POIN2 Label_019DB16A
//  #03 //031   ----------------------------------------
 BYTE   PATT
  POIN2 Label_019DB197
//  #03 //032   ----------------------------------------
 BYTE   PATT
  POIN2 Label_019DB1C2
//  #03 //033   ----------------------------------------
 BYTE   PATT
  POIN2 Label_019DB197
//  #03 //034   ----------------------------------------
 BYTE   PATT
  POIN2 Label_019DB16A
//  #03 //035   ----------------------------------------
 BYTE   PATT
  POIN2 Label_019DB197
//  #03 //036   ----------------------------------------
 BYTE   PATT
  POIN2 Label_019DB1C2
//  #03 //037   ----------------------------------------
 BYTE   PATT
  POIN2 Label_019DB208
//  #03 //038   ----------------------------------------
 BYTE   W92
 BYTE   W02
 BYTE   EOT
 BYTE   En3  v065
 BYTE   An3  v072
 BYTE   W02
//  #03 //039   ----------------------------------------
 BYTE   PATT
  POIN2 Label_019DB21B
//  #03 //040   ----------------------------------------
 BYTE   PATT
  POIN2 Label_019DB22F
//  #03 //041   ----------------------------------------
 BYTE   PATT
  POIN2 Label_019DB208
//  #03 //042   ----------------------------------------
 BYTE   W92
 BYTE   W02
 BYTE   EOT
 BYTE   En3  v065
 BYTE   An3  v072
 BYTE   W02
//  #03 //043   ----------------------------------------
 BYTE   PATT
  POIN2 Label_019DB21B
//  #03 //044   ----------------------------------------
 BYTE   PATT
  POIN2 Label_019DB22F
//  #03 //045   ----------------------------------------
 BYTE   N92  Cn3  v092
 BYTE   N92  Gn3
 BYTE   W96
//  #03 //046   ----------------------------------------
 BYTE   Dn3
 BYTE   N92  An3
 BYTE   W96
//  #03 //047   ----------------------------------------
 BYTE   Cn3
 BYTE   N92  As3
 BYTE   W96
//  #03 //048   ----------------------------------------
 BYTE   Fn3
 BYTE   N92  An3
 BYTE   W96
//  #03 //049   ----------------------------------------
 BYTE   PATT
  POIN2 Label_019DB268
//  #03 //050   ----------------------------------------
 BYTE   W92
 BYTE   W02
 BYTE   EOT
 BYTE   En3  v069
 BYTE   W02
//  #03 //051   ----------------------------------------
 BYTE   PATT
  POIN2 Label_019DB275
//  #03 //052   ----------------------------------------
 BYTE   W92
 BYTE   W02
 BYTE   EOT
 BYTE   En3  v067
 BYTE   Cn4
 BYTE   W02
//  #03 //053   ----------------------------------------
 BYTE   GoTo
  POIN2 Label_019DB1E0
 BYTE   FINE

//**************** Track 4 (Midi-Chn.3) ****************//

song01_004:
//  #04 //000   ----------------------------------------
 BYTE   KEYSH   song01_key+0
 BYTE   VOICE   61
 BYTE   MODT 0
 BYTE   LFOS 44
 BYTE   VOL   24*song01_mvl/mxv
 BYTE   PAN   c_v-4
 BYTE   N92  Dn2  v092
 BYTE   W96
//  #04 //001   ----------------------------------------
 BYTE   N68
 BYTE   W84
 BYTE   N05  Bn1
 BYTE   W06
 BYTE   Cn2
 BYTE   W06
//  #04 //002   ----------------------------------------
 BYTE   N92  Dn2
 BYTE   W96
//  #04 //003   ----------------------------------------
Label_019DAF7E:
 BYTE   N44  Dn2  v092
 BYTE   W48
 BYTE   N23  Fn2
 BYTE   W24
 BYTE   Gn2
 BYTE   W24
 BYTE   PEND 
//  #04 //004   ----------------------------------------
Label_019DAF88:
 BYTE   N92  Dn2  v092
 BYTE   W96
//  #04 //005   ----------------------------------------
Label_019DAF8C:
 BYTE   N68  Dn2  v092
 BYTE   W84
 BYTE   N11  Cn2
 BYTE   W12
 BYTE   PEND 
//  #04 //006   ----------------------------------------
 BYTE   N92  Dn2
 BYTE   W96
//  #04 //007   ----------------------------------------
 BYTE   PATT
  POIN2 Label_019DAF7E
//  #04 //008   ----------------------------------------
 BYTE   N92  Dn2  v092
 BYTE   W96
//  #04 //009   ----------------------------------------
 BYTE   PATT
  POIN2 Label_019DAF8C
//  #04 //010   ----------------------------------------
 BYTE   N92  Dn2  v092
 BYTE   W96
//  #04 //011   ----------------------------------------
 BYTE   PATT
  POIN2 Label_019DAF7E
//  #04 //012   ----------------------------------------
 BYTE   N92  Dn2  v092
 BYTE   W96
//  #04 //013   ----------------------------------------
 BYTE   PATT
  POIN2 Label_019DAF8C
//  #04 //014   ----------------------------------------
 BYTE   N92  Dn2  v092
 BYTE   W96
//  #04 //015   ----------------------------------------
 BYTE   PATT
  POIN2 Label_019DAF7E
//  #04 //016   ----------------------------------------
 BYTE   N92  Dn2  v092
 BYTE   W96
//  #04 //017   ----------------------------------------
 BYTE   PATT
  POIN2 Label_019DAF8C
//  #04 //018   ----------------------------------------
 BYTE   N92  Dn2  v092
 BYTE   W96
//  #04 //019   ----------------------------------------
 BYTE   PATT
  POIN2 Label_019DAF7E
//  #04 //020   ----------------------------------------
 BYTE   N92  Gs2  v092
 BYTE   W96
//  #04 //021   ----------------------------------------
 BYTE   Gn2
 BYTE   W96
//  #04 //022   ----------------------------------------
 BYTE   Fn2
 BYTE   W96
//  #04 //023   ----------------------------------------
 BYTE   Ds2
 BYTE   W96
//  #04 //024   ----------------------------------------
 BYTE   TIE  Dn2
 BYTE   W96
//  #04 //025   ----------------------------------------
 BYTE   W92
 BYTE   W03
 BYTE   EOT
 BYTE   W01
//  #04 //026   ----------------------------------------
 BYTE   TIE  Cn2
 BYTE   W96
//  #04 //027   ----------------------------------------
 BYTE   W92
 BYTE   W03
 BYTE   EOT
 BYTE   W01
//  #04 //028   ----------------------------------------
 BYTE   N92  Dn2
 BYTE   W96
//  #04 //029   ----------------------------------------
 BYTE   PATT
  POIN2 Label_019DAF8C
//  #04 //030   ----------------------------------------
 BYTE   N92  Dn2  v092
 BYTE   W96
//  #04 //031   ----------------------------------------
 BYTE   PATT
  POIN2 Label_019DAF7E
//  #04 //032   ----------------------------------------
 BYTE   N92  Dn2  v092
 BYTE   W96
//  #04 //033   ----------------------------------------
 BYTE   PATT
  POIN2 Label_019DAF8C
//  #04 //034   ----------------------------------------
 BYTE   N92  Dn2  v092
 BYTE   W96
//  #04 //035   ----------------------------------------
 BYTE   PATT
  POIN2 Label_019DAF7E
//  #04 //036   ----------------------------------------
 BYTE   N92  Dn2  v092
 BYTE   W96
//  #04 //037   ----------------------------------------
 BYTE   PATT
  POIN2 Label_019DAF8C
//  #04 //038   ----------------------------------------
 BYTE   N92  Dn2  v092
 BYTE   W96
//  #04 //039   ----------------------------------------
 BYTE   PATT
  POIN2 Label_019DAF7E
//  #04 //040   ----------------------------------------
 BYTE   N92  Dn2  v092
 BYTE   W96
//  #04 //041   ----------------------------------------
 BYTE   PATT
  POIN2 Label_019DAF8C
//  #04 //042   ----------------------------------------
 BYTE   N92  Dn2  v092
 BYTE   W96
//  #04 //043   ----------------------------------------
 BYTE   PATT
  POIN2 Label_019DAF7E
//  #04 //044   ----------------------------------------
 BYTE   N92  Gs2  v092
 BYTE   W96
//  #04 //045   ----------------------------------------
 BYTE   Gn2
 BYTE   W96
//  #04 //046   ----------------------------------------
 BYTE   Fn2
 BYTE   W96
//  #04 //047   ----------------------------------------
 BYTE   Ds2
 BYTE   W96
//  #04 //048   ----------------------------------------
 BYTE   TIE  Dn2
 BYTE   W96
//  #04 //049   ----------------------------------------
 BYTE   W92
 BYTE   W03
 BYTE   EOT
 BYTE   W01
//  #04 //050   ----------------------------------------
 BYTE   TIE  Cn2
 BYTE   W96
//  #04 //051   ----------------------------------------
 BYTE   W92
 BYTE   W03
 BYTE   EOT
 BYTE   W01
//  #04 //052   ----------------------------------------
 BYTE   GoTo
  POIN2 Label_019DAF88
 BYTE   FINE

//**************** Track 5 (Midi-Chn.4) ****************//

song01_005:
//  #05 //000   ----------------------------------------
 BYTE   KEYSH   song01_key+0
 BYTE   VOICE   5
 BYTE   MODT 0
 BYTE   LFOS 44
 BYTE   PAN   c_v-25
 BYTE   VOL   34*song01_mvl/mxv
 BYTE   BENDR  12
 BYTE   W96
//  #05 //001   ----------------------------------------
 BYTE   W96
//  #05 //002   ----------------------------------------
 BYTE   W96
//  #05 //003   ----------------------------------------
 BYTE   W96
//  #05 //004   ----------------------------------------
Label_019D9632:
 BYTE   W96
//  #05 //005   ----------------------------------------
 BYTE   W96
//  #05 //006   ----------------------------------------
 BYTE   W96
//  #05 //007   ----------------------------------------
Label_019D9635:
 BYTE   N05  An5  v100
 BYTE   W06
 BYTE   Gn5
 BYTE   W06
 BYTE   Fn5
 BYTE   W06
 BYTE   Dn5
 BYTE   W06
 BYTE   Ds5
 BYTE   W06
 BYTE   En5
 BYTE   W06
 BYTE   Cn5
 BYTE   W06
 BYTE   Gn4
 BYTE   W06
 BYTE   Gs4
 BYTE   W06
 BYTE   An4
 BYTE   W06
 BYTE   Cn5
 BYTE   W06
 BYTE   Dn5
 BYTE   W06
 BYTE   Fn5
 BYTE   W06
 BYTE   Gn5
 BYTE   W06
 BYTE   An5
 BYTE   W06
 BYTE   Cn6
 BYTE   W06
 BYTE   PEND 
//  #05 //008   ----------------------------------------
 BYTE   W96
//  #05 //009   ----------------------------------------
 BYTE   W96
//  #05 //010   ----------------------------------------
 BYTE   W96
//  #05 //011   ----------------------------------------
 BYTE   W96
//  #05 //012   ----------------------------------------
Label_019D965C:
 BYTE   N05  Gs5  v100
 BYTE   W06
 BYTE   Gn5
 BYTE   W06
 BYTE   Fn5
 BYTE   W06
 BYTE   Dn5
 BYTE   W06
 BYTE   Cn5
 BYTE   W06
 BYTE   Dn5
 BYTE   W06
 BYTE   Fn5
 BYTE   W06
 BYTE   Cn5
 BYTE   W06
 BYTE   Dn5
 BYTE   W06
 BYTE   Gn4
 BYTE   W06
 BYTE   An4
 BYTE   W06
 BYTE   Cn5
 BYTE   W06
 BYTE   Bn5
 BYTE   N05  Dn6
 BYTE   W06
 BYTE   Gn5
 BYTE   W06
 BYTE   Fn5
 BYTE   W06
 BYTE   Dn5
 BYTE   W06
 BYTE   PEND 
//  #05 //013   ----------------------------------------
Label_019D9681:
 BYTE   W12
 BYTE   N32  An4  v100
 BYTE   N32  Cn5
 BYTE   N32  En5
 BYTE   W36
 BYTE   N05  Fn5
 BYTE   W18
 BYTE   En5
 BYTE   W18
 BYTE   Cn5
 BYTE   W12
 BYTE   PEND 
//  #05 //014   ----------------------------------------
Label_019D9692:
 BYTE   N17  Bn4  v100
 BYTE   N17  Dn5
 BYTE   W18
 BYTE   N05  Bn4
 BYTE   N05  Dn5
 BYTE   W78
 BYTE   PEND 
//  #05 //015   ----------------------------------------
 BYTE   W96
//  #05 //016   ----------------------------------------
Label_019D969F:
 BYTE   N05  Gn5  v100
 BYTE   W06
 BYTE   An5
 BYTE   W06
 BYTE   Cn6
 BYTE   W06
 BYTE   Dn6
 BYTE   W06
 BYTE   En6
 BYTE   W06
 BYTE   Fn6
 BYTE   W06
 BYTE   En6
 BYTE   W06
 BYTE   Cn6
 BYTE   W06
 BYTE   Dn6
 BYTE   W06
 BYTE   Gs5
 BYTE   W06
 BYTE   Gn5
 BYTE   W06
 BYTE   Fn5
 BYTE   W06
 BYTE   En5
 BYTE   W06
 BYTE   Fn5
 BYTE   W06
 BYTE   En5
 BYTE   W06
 BYTE   Cn5
 BYTE   W06
 BYTE   PEND 
//  #05 //017   ----------------------------------------
Label_019D96C2:
 BYTE   W06
 BYTE   N05  Dn5  v100
 BYTE   W06
 BYTE   Fn5
 BYTE   W06
 BYTE   Gn5
 BYTE   W06
 BYTE   En5
 BYTE   W06
 BYTE   Fn5
 BYTE   W06
 BYTE   Cn5
 BYTE   W06
 BYTE   Dn5
 BYTE   W06
 BYTE   Ds5
 BYTE   W06
 BYTE   En5
 BYTE   W06
 BYTE   Cn5
 BYTE   W06
 BYTE   Gn4
 BYTE   W06
 BYTE   Gs4
 BYTE   W06
 BYTE   An4
 BYTE   W06
 BYTE   Cn5
 BYTE   W06
 BYTE   En5
 BYTE   W06
 BYTE   PEND 
//  #05 //018   ----------------------------------------
 BYTE   PATT
  POIN2 Label_019D9692
//  #05 //019   ----------------------------------------
 BYTE   W96
//  #05 //020   ----------------------------------------
Label_019D96EA:
 BYTE   N05  Gn5  v100
 BYTE   W06
 BYTE   Cn5
 BYTE   W06
 BYTE   Dn5
 BYTE   W06
 BYTE   Gn5
 BYTE   W06
 BYTE   Cn5  v072
 BYTE   W06
 BYTE   Dn5
 BYTE   W06
 BYTE   Gn5
 BYTE   W60
 BYTE   PEND 
//  #05 //021   ----------------------------------------
Label_019D96FC:
 BYTE   N05  An5  v100
 BYTE   W06
 BYTE   Dn5
 BYTE   W06
 BYTE   Fn5
 BYTE   W06
 BYTE   An5
 BYTE   W06
 BYTE   Dn5  v072
 BYTE   W72
 BYTE   PEND 
//  #05 //022   ----------------------------------------
Label_019D970A:
 BYTE   N05  As5  v100
 BYTE   W06
 BYTE   Ds5
 BYTE   W06
 BYTE   Gn5
 BYTE   W06
 BYTE   As5
 BYTE   W06
 BYTE   Ds5  v048
 BYTE   W06
 BYTE   Gn5
 BYTE   W06
 BYTE   As5
 BYTE   W06
 BYTE   Ds5
 BYTE   W54
 BYTE   PEND 
//  #05 //023   ----------------------------------------
Label_019D971E:
 BYTE   N96  Fn5  v100
 BYTE   N96  An5
 BYTE   N96  Cs6
 BYTE   W24
 BYTE   BEND   c_v-4
 BYTE   W01
 BYTE   BEND   c_v-8
 BYTE   W02
 BYTE   BEND   c_v-12
 BYTE   W01
 BYTE   BEND   c_v-16
 BYTE   W02
 BYTE   BEND   c_v-20
 BYTE   W01
 BYTE   BEND   c_v-24
 BYTE   W02
 BYTE   BEND   c_v-28
 BYTE   W01
 BYTE   BEND   c_v-32
 BYTE   W02
 BYTE   BEND   c_v-36
 BYTE   W01
 BYTE   BEND   c_v-40
 BYTE   W02
 BYTE   BEND   c_v-44
 BYTE   W01
 BYTE   BEND   c_v-48
 BYTE   W02
 BYTE   BEND   c_v-52
 BYTE   W01
 BYTE   BEND   c_v-56
 BYTE   W02
 BYTE   BEND   c_v-60
 BYTE   W01
 BYTE   BEND   c_v-64
 BYTE   W48
 BYTE   W02
 BYTE   PEND 
//  #05 //024   ----------------------------------------
 BYTE   En3
 BYTE   W96
//  #05 //025   ----------------------------------------
 BYTE   W96
//  #05 //026   ----------------------------------------
 BYTE   W96
//  #05 //027   ----------------------------------------
 BYTE   W96
//  #05 //028   ----------------------------------------
 BYTE   W96
//  #05 //029   ----------------------------------------
 BYTE   W96
//  #05 //030   ----------------------------------------
 BYTE   W96
//  #05 //031   ----------------------------------------
 BYTE   PATT
  POIN2 Label_019D9635
//  #05 //032   ----------------------------------------
 BYTE   W96
//  #05 //033   ----------------------------------------
 BYTE   W96
//  #05 //034   ----------------------------------------
 BYTE   W96
//  #05 //035   ----------------------------------------
 BYTE   W96
//  #05 //036   ----------------------------------------
 BYTE   PATT
  POIN2 Label_019D965C
//  #05 //037   ----------------------------------------
 BYTE   PATT
  POIN2 Label_019D9681
//  #05 //038   ----------------------------------------
 BYTE   PATT
  POIN2 Label_019D9692
//  #05 //039   ----------------------------------------
 BYTE   W96
//  #05 //040   ----------------------------------------
 BYTE   PATT
  POIN2 Label_019D969F
//  #05 //041   ----------------------------------------
 BYTE   PATT
  POIN2 Label_019D96C2
//  #05 //042   ----------------------------------------
 BYTE   PATT
  POIN2 Label_019D9692
//  #05 //043   ----------------------------------------
 BYTE   W96
//  #05 //044   ----------------------------------------
 BYTE   PATT
  POIN2 Label_019D96EA
//  #05 //045   ----------------------------------------
 BYTE   PATT
  POIN2 Label_019D96FC
//  #05 //046   ----------------------------------------
 BYTE   PATT
  POIN2 Label_019D970A
//  #05 //047   ----------------------------------------
 BYTE   PATT
  POIN2 Label_019D971E
//  #05 //048   ----------------------------------------
 BYTE   BEND   c_v+0
 BYTE   W96
//  #05 //049   ----------------------------------------
 BYTE   W96
//  #05 //050   ----------------------------------------
 BYTE   W96
//  #05 //051   ----------------------------------------
 BYTE   W96
//  #05 //052   ----------------------------------------
 BYTE   GoTo
  POIN2 Label_019D9632
 BYTE   FINE

//**************** Track 6 (Midi-Chn.5) ****************//

song01_006:
//  #06 //000   ----------------------------------------
 BYTE   KEYSH   song01_key+0
 BYTE   VOICE   10
 BYTE   MODT 0
 BYTE   LFOS 44
 BYTE   PAN   c_v+63
 BYTE   VOL   22*song01_mvl/mxv
 BYTE   W96
//  #06 //001   ----------------------------------------
 BYTE   W96
//  #06 //002   ----------------------------------------
 BYTE   W96
//  #06 //003   ----------------------------------------
 BYTE   W96
//  #06 //004   ----------------------------------------
Label_019DBF2C:
 BYTE   W24
 BYTE   N05  Gn5  v072
 BYTE   W06
 BYTE   Fn5
 BYTE   W12
 BYTE   N88  Gn5
 BYTE   W54
 BYTE   PEND 
//  #06 //005   ----------------------------------------
Label_019DBF37:
 BYTE   W36
 BYTE   N05  Fn5  v072
 BYTE   W06
 BYTE   Gn5
 BYTE   W06
 BYTE   N17  Fn5
 BYTE   W18
 BYTE   En5
 BYTE   W18
 BYTE   N11  Cn5
 BYTE   W12
 BYTE   PEND 
//  #06 //006   ----------------------------------------
 BYTE   TIE  An4
 BYTE   W96
//  #06 //007   ----------------------------------------
 BYTE   W92
 BYTE   W03
 BYTE   EOT
 BYTE   W01
//  #06 //008   ----------------------------------------
Label_019DBF4E:
 BYTE   W24
 BYTE   N05  Gn5  v072
 BYTE   W12
 BYTE   An5
 BYTE   W06
 BYTE   N88  Gn5
 BYTE   W54
 BYTE   PEND 
//  #06 //009   ----------------------------------------
 BYTE   PATT
  POIN2 Label_019DBF37
//  #06 //010   ----------------------------------------
Label_019DBF5E:
 BYTE   N32  Dn5  v072
 BYTE   W36
 BYTE   TIE  An5
 BYTE   W60
 BYTE   PEND 
//  #06 //011   ----------------------------------------
 BYTE   W68
 BYTE   W03
 BYTE   EOT
 BYTE   W24
 BYTE   W01
//  #06 //012   ----------------------------------------
 BYTE   W96
//  #06 //013   ----------------------------------------
 BYTE   W96
//  #06 //014   ----------------------------------------
 BYTE   W96
//  #06 //015   ----------------------------------------
 BYTE   W96
//  #06 //016   ----------------------------------------
 BYTE   W96
//  #06 //017   ----------------------------------------
 BYTE   W96
//  #06 //018   ----------------------------------------
 BYTE   W96
//  #06 //019   ----------------------------------------
Label_019DBF72:
 BYTE   W72
 BYTE   N05  Ds5  v072
 BYTE   W06
 BYTE   En5
 BYTE   W06
 BYTE   Fn5
 BYTE   W06
 BYTE   Fs5
 BYTE   W06
 BYTE   PEND 
//  #06 //020   ----------------------------------------
Label_019DBF7E:
 BYTE   N17  Gn5  v072
 BYTE   W18
 BYTE   Ds5
 BYTE   W18
 BYTE   Cn5
 BYTE   W18
 BYTE   Ds5
 BYTE   W18
 BYTE   N11  Fn5
 BYTE   W12
 BYTE   Gn5
 BYTE   W12
 BYTE   PEND 
//  #06 //021   ----------------------------------------
Label_019DBF8E:
 BYTE   N17  An5  v072
 BYTE   W18
 BYTE   Fn5
 BYTE   W18
 BYTE   Dn5
 BYTE   W18
 BYTE   Fn5
 BYTE   W18
 BYTE   N11  Gn5
 BYTE   W12
 BYTE   An5
 BYTE   W12
 BYTE   PEND 
//  #06 //022   ----------------------------------------
Label_019DBF9E:
 BYTE   N17  As5  v072
 BYTE   W18
 BYTE   Fn5
 BYTE   W18
 BYTE   Ds5
 BYTE   W18
 BYTE   Fn5
 BYTE   W18
 BYTE   N11  As5
 BYTE   W12
 BYTE   Cn6
 BYTE   W12
 BYTE   PEND 
//  #06 //023   ----------------------------------------
 BYTE   N92  Cs6
 BYTE   W96
//  #06 //024   ----------------------------------------
 BYTE   TIE  Dn6
 BYTE   W96
//  #06 //025   ----------------------------------------
 BYTE   W92
 BYTE   W03
 BYTE   EOT
 BYTE   W01
//  #06 //026   ----------------------------------------
 BYTE   W96
//  #06 //027   ----------------------------------------
 BYTE   W96
//  #06 //028   ----------------------------------------
 BYTE   PATT
  POIN2 Label_019DBF2C
//  #06 //029   ----------------------------------------
 BYTE   PATT
  POIN2 Label_019DBF37
//  #06 //030   ----------------------------------------
 BYTE   TIE  An4  v072
 BYTE   W96
//  #06 //031   ----------------------------------------
 BYTE   W92
 BYTE   W03
 BYTE   EOT
 BYTE   W01
//  #06 //032   ----------------------------------------
 BYTE   PATT
  POIN2 Label_019DBF4E
//  #06 //033   ----------------------------------------
 BYTE   PATT
  POIN2 Label_019DBF37
//  #06 //034   ----------------------------------------
 BYTE   PATT
  POIN2 Label_019DBF5E
//  #06 //035   ----------------------------------------
 BYTE   W68
 BYTE   W03
 BYTE   EOT
 BYTE   An5
 BYTE   W24
 BYTE   W01
//  #06 //036   ----------------------------------------
 BYTE   W96
//  #06 //037   ----------------------------------------
 BYTE   W96
//  #06 //038   ----------------------------------------
 BYTE   W96
//  #06 //039   ----------------------------------------
 BYTE   W96
//  #06 //040   ----------------------------------------
 BYTE   W96
//  #06 //041   ----------------------------------------
 BYTE   W96
//  #06 //042   ----------------------------------------
 BYTE   W96
//  #06 //043   ----------------------------------------
 BYTE   PATT
  POIN2 Label_019DBF72
//  #06 //044   ----------------------------------------
 BYTE   PATT
  POIN2 Label_019DBF7E
//  #06 //045   ----------------------------------------
 BYTE   PATT
  POIN2 Label_019DBF8E
//  #06 //046   ----------------------------------------
 BYTE   PATT
  POIN2 Label_019DBF9E
//  #06 //047   ----------------------------------------
 BYTE   N92  Cs6  v072
 BYTE   W96
//  #06 //048   ----------------------------------------
 BYTE   TIE  Dn6
 BYTE   W96
//  #06 //049   ----------------------------------------
 BYTE   W92
 BYTE   W03
 BYTE   EOT
 BYTE   W01
//  #06 //050   ----------------------------------------
 BYTE   W96
//  #06 //051   ----------------------------------------
 BYTE   W96
//  #06 //052   ----------------------------------------
 BYTE   GoTo
  POIN2 Label_019DBF2C
 BYTE   FINE

//**************** Track 7 (Midi-Chn.6) ****************//

song01_007:
//  #07 //000   ----------------------------------------
 BYTE   KEYSH   song01_key+0
 BYTE   VOICE   49
 BYTE   MODT 0
 BYTE   LFOS 44
 BYTE   PAN   c_v-13
 BYTE   VOL   22*song01_mvl/mxv
 BYTE   TIE  Fn3  v072
 BYTE   TIE  An3
 BYTE   W96
//  #07 //001   ----------------------------------------
 BYTE   W96
//  #07 //002   ----------------------------------------
 BYTE   W96
//  #07 //003   ----------------------------------------
 BYTE   W96
//  #07 //004   ----------------------------------------
 BYTE   EOT
 BYTE   Fn3  v069
Label_019DA8B0:
 BYTE   TIE  An3  v072
 BYTE   W96
//  #07 //005   ----------------------------------------
 BYTE   W96
//  #07 //006   ----------------------------------------
 BYTE   W96
//  #07 //007   ----------------------------------------
 BYTE   W96
//  #07 //008   ----------------------------------------
 BYTE   EOT
 BYTE   TIE
 BYTE   W96
//  #07 //009   ----------------------------------------
 BYTE   W96
//  #07 //010   ----------------------------------------
 BYTE   W96
//  #07 //011   ----------------------------------------
 BYTE   W96
//  #07 //012   ----------------------------------------
 BYTE   EOT
 BYTE   W96
//  #07 //013   ----------------------------------------
 BYTE   W96
//  #07 //014   ----------------------------------------
 BYTE   W96
//  #07 //015   ----------------------------------------
 BYTE   W96
//  #07 //016   ----------------------------------------
 BYTE   W96
//  #07 //017   ----------------------------------------
 BYTE   W96
//  #07 //018   ----------------------------------------
 BYTE   W96
//  #07 //019   ----------------------------------------
 BYTE   W96
//  #07 //020   ----------------------------------------
 BYTE   N96  Cn3
 BYTE   W96
//  #07 //021   ----------------------------------------
 BYTE   Dn3
 BYTE   W96
//  #07 //022   ----------------------------------------
 BYTE   Cn3
 BYTE   W96
//  #07 //023   ----------------------------------------
 BYTE   Fn3
 BYTE   W96
//  #07 //024   ----------------------------------------
 BYTE   TIE  En3
 BYTE   W96
//  #07 //025   ----------------------------------------
 BYTE   W96
//  #07 //026   ----------------------------------------
 BYTE   EOT
 BYTE   W96
//  #07 //027   ----------------------------------------
 BYTE   W96
//  #07 //028   ----------------------------------------
 BYTE   TIE  An3
 BYTE   W96
//  #07 //029   ----------------------------------------
 BYTE   W96
//  #07 //030   ----------------------------------------
 BYTE   W96
//  #07 //031   ----------------------------------------
 BYTE   W96
//  #07 //032   ----------------------------------------
 BYTE   EOT
 BYTE   TIE
 BYTE   W96
//  #07 //033   ----------------------------------------
 BYTE   W96
//  #07 //034   ----------------------------------------
 BYTE   W96
//  #07 //035   ----------------------------------------
 BYTE   W96
//  #07 //036   ----------------------------------------
 BYTE   EOT
 BYTE   W96
//  #07 //037   ----------------------------------------
 BYTE   W96
//  #07 //038   ----------------------------------------
 BYTE   W96
//  #07 //039   ----------------------------------------
 BYTE   W96
//  #07 //040   ----------------------------------------
 BYTE   W96
//  #07 //041   ----------------------------------------
 BYTE   W96
//  #07 //042   ----------------------------------------
 BYTE   W96
//  #07 //043   ----------------------------------------
 BYTE   W96
//  #07 //044   ----------------------------------------
 BYTE   N96  Cn3
 BYTE   W96
//  #07 //045   ----------------------------------------
 BYTE   Dn3
 BYTE   W96
//  #07 //046   ----------------------------------------
 BYTE   Cn3
 BYTE   W96
//  #07 //047   ----------------------------------------
 BYTE   Fn3
 BYTE   W96
//  #07 //048   ----------------------------------------
 BYTE   TIE  En3
 BYTE   W96
//  #07 //049   ----------------------------------------
 BYTE   W96
//  #07 //050   ----------------------------------------
 BYTE   EOT
 BYTE   W96
//  #07 //051   ----------------------------------------
 BYTE   W96
//  #07 //052   ----------------------------------------
 BYTE   GoTo
  POIN2 Label_019DA8B0
 BYTE   FINE

//**************** Track 8 (Midi-Chn.7) ****************//

song01_008:
//  #08 //000   ----------------------------------------
 BYTE   KEYSH   song01_key+0
 BYTE   VOICE   124
 BYTE   MODT 0
 BYTE   LFOS 44
 BYTE   PAN   c_v+0
 BYTE   VOL   31*song01_mvl/mxv
 BYTE   N01  Fs1  v072
 BYTE   N01  Cs2
 BYTE   W12
 BYTE   Fs1
 BYTE   W12
 BYTE   N01
 BYTE   W12
 BYTE   N01
 BYTE   W12
 BYTE   N01
 BYTE   W12
 BYTE   N01
 BYTE   W12
 BYTE   N01
 BYTE   W12
 BYTE   N01
 BYTE   W12
//  #08 //001   ----------------------------------------
Label_019DC030:
 BYTE   N01  Fs1  v072
 BYTE   W12
 BYTE   N01
 BYTE   W12
 BYTE   N01
 BYTE   W12
 BYTE   N01
 BYTE   W12
 BYTE   N01
 BYTE   W12
 BYTE   N01
 BYTE   W12
 BYTE   N01
 BYTE   W12
 BYTE   As1
 BYTE   W12
 BYTE   PEND 
//  #08 //002   ----------------------------------------
 BYTE   Fs1
 BYTE   W12
 BYTE   N01
 BYTE   W12
 BYTE   N01
 BYTE   N01  Cs2
 BYTE   W12
 BYTE   Fs1
 BYTE   W12
 BYTE   N01
 BYTE   W12
 BYTE   N01
 BYTE   W12
 BYTE   N01
 BYTE   W12
 BYTE   N01
 BYTE   W12
//  #08 //003   ----------------------------------------
 BYTE   PATT
  POIN2 Label_019DC030
//  #08 //004   ----------------------------------------
Label_019DC05A:
 BYTE   N01  Fs1  v072
 BYTE   N01  Cs2
 BYTE   W12
 BYTE   Fs1
 BYTE   W12
 BYTE   N01
 BYTE   W12
 BYTE   N01
 BYTE   W12
 BYTE   N01
 BYTE   W12
 BYTE   N01
 BYTE   W12
 BYTE   N01
 BYTE   W12
 BYTE   N01
 BYTE   W12
 BYTE   PEND 
//  #08 //005   ----------------------------------------
 BYTE   PATT
  POIN2 Label_019DC030
//  #08 //006   ----------------------------------------
Label_019DC074:
 BYTE   N01  Fs1  v072
 BYTE   W12
 BYTE   N01
 BYTE   W12
 BYTE   N01
 BYTE   W12
 BYTE   N01
 BYTE   W12
 BYTE   N01
 BYTE   W12
 BYTE   N01
 BYTE   W12
 BYTE   N01
 BYTE   W12
 BYTE   N01
 BYTE   W12
 BYTE   PEND 
//  #08 //007   ----------------------------------------
Label_019DC087:
 BYTE   N01  Fs1  v072
 BYTE   W06
 BYTE   N01
 BYTE   W12
 BYTE   N01
 BYTE   W12
 BYTE   N01
 BYTE   W18
 BYTE   As1
 BYTE   W48
 BYTE   PEND 
//  #08 //008   ----------------------------------------
 BYTE   PATT
  POIN2 Label_019DC05A
//  #08 //009   ----------------------------------------
 BYTE   PATT
  POIN2 Label_019DC030
//  #08 //010   ----------------------------------------
 BYTE   PATT
  POIN2 Label_019DC074
//  #08 //011   ----------------------------------------
Label_019DC0A3:
 BYTE   N01  Fs1  v072
 BYTE   W12
 BYTE   N01
 BYTE   W12
 BYTE   N01
 BYTE   W12
 BYTE   N01
 BYTE   W12
 BYTE   N01
 BYTE   W06
 BYTE   N01
 BYTE   W06
 BYTE   As1
 BYTE   W36
 BYTE   PEND 
//  #08 //012   ----------------------------------------
 BYTE   PATT
  POIN2 Label_019DC05A
//  #08 //013   ----------------------------------------
 BYTE   PATT
  POIN2 Label_019DC030
//  #08 //014   ----------------------------------------
 BYTE   PATT
  POIN2 Label_019DC074
//  #08 //015   ----------------------------------------
Label_019DC0C3:
 BYTE   N01  Fs1  v072
 BYTE   W12
 BYTE   An2
 BYTE   W24
 BYTE   Fs1
 BYTE   W06
 BYTE   Cs2
 BYTE   W06
 BYTE   Fs1
 BYTE   W12
 BYTE   N01
 BYTE   W12
 BYTE   N01
 BYTE   W06
 BYTE   An2
 BYTE   W06
 BYTE   Fs1
 BYTE   W12
 BYTE   PEND 
//  #08 //016   ----------------------------------------
 BYTE   PATT
  POIN2 Label_019DC05A
//  #08 //017   ----------------------------------------
 BYTE   PATT
  POIN2 Label_019DC030
//  #08 //018   ----------------------------------------
Label_019DC0E2:
 BYTE   N01  Fs1  v072
 BYTE   N01  An2
 BYTE   W12
 BYTE   Fs1
 BYTE   W12
 BYTE   N01
 BYTE   W12
 BYTE   N01
 BYTE   W12
 BYTE   N01
 BYTE   W12
 BYTE   N01
 BYTE   W12
 BYTE   N01
 BYTE   W12
 BYTE   N01
 BYTE   W12
 BYTE   PEND 
//  #08 //019   ----------------------------------------
 BYTE   PATT
  POIN2 Label_019DC074
//  #08 //020   ----------------------------------------
 BYTE   PATT
  POIN2 Label_019DC05A
//  #08 //021   ----------------------------------------
 BYTE   PATT
  POIN2 Label_019DC030
//  #08 //022   ----------------------------------------
 BYTE   PATT
  POIN2 Label_019DC030
//  #08 //023   ----------------------------------------
Label_019DC10B:
 BYTE   N01  Cs2  v072
 BYTE   W48
 BYTE   Fs1
 BYTE   W12
 BYTE   N01
 BYTE   W12
 BYTE   N01
 BYTE   W12
 BYTE   As1
 BYTE   W12
 BYTE   PEND 
//  #08 //024   ----------------------------------------
Label_019DC118:
 BYTE   N01  Fs1  v072
 BYTE   N01  Cs2
 BYTE   W12
 BYTE   Fs1
 BYTE   W12
 BYTE   N01
 BYTE   W12
 BYTE   N01
 BYTE   W12
 BYTE   N01
 BYTE   W12
 BYTE   N01
 BYTE   W12
 BYTE   N01
 BYTE   W06
 BYTE   As1
 BYTE   W18
 BYTE   PEND 
//  #08 //025   ----------------------------------------
 BYTE   PATT
  POIN2 Label_019DC074
//  #08 //026   ----------------------------------------
 BYTE   PATT
  POIN2 Label_019DC074
//  #08 //027   ----------------------------------------
Label_019DC137:
 BYTE   N01  Fs1  v072
 BYTE   W06
 BYTE   Gn2
 BYTE   W12
 BYTE   N01
 BYTE   W30
 BYTE   N01
 BYTE   W48
 BYTE   PEND 
//  #08 //028   ----------------------------------------
 BYTE   PATT
  POIN2 Label_019DC05A
//  #08 //029   ----------------------------------------
 BYTE   PATT
  POIN2 Label_019DC030
//  #08 //030   ----------------------------------------
 BYTE   PATT
  POIN2 Label_019DC074
//  #08 //031   ----------------------------------------
 BYTE   PATT
  POIN2 Label_019DC087
//  #08 //032   ----------------------------------------
 BYTE   PATT
  POIN2 Label_019DC05A
//  #08 //033   ----------------------------------------
 BYTE   PATT
  POIN2 Label_019DC030
//  #08 //034   ----------------------------------------
 BYTE   PATT
  POIN2 Label_019DC074
//  #08 //035   ----------------------------------------
 BYTE   PATT
  POIN2 Label_019DC0A3
//  #08 //036   ----------------------------------------
 BYTE   PATT
  POIN2 Label_019DC05A
//  #08 //037   ----------------------------------------
 BYTE   PATT
  POIN2 Label_019DC030
//  #08 //038   ----------------------------------------
 BYTE   PATT
  POIN2 Label_019DC074
//  #08 //039   ----------------------------------------
 BYTE   PATT
  POIN2 Label_019DC0C3
//  #08 //040   ----------------------------------------
 BYTE   PATT
  POIN2 Label_019DC05A
//  #08 //041   ----------------------------------------
 BYTE   PATT
  POIN2 Label_019DC030
//  #08 //042   ----------------------------------------
 BYTE   PATT
  POIN2 Label_019DC0E2
//  #08 //043   ----------------------------------------
 BYTE   PATT
  POIN2 Label_019DC074
//  #08 //044   ----------------------------------------
 BYTE   PATT
  POIN2 Label_019DC05A
//  #08 //045   ----------------------------------------
 BYTE   PATT
  POIN2 Label_019DC030
//  #08 //046   ----------------------------------------
 BYTE   PATT
  POIN2 Label_019DC030
//  #08 //047   ----------------------------------------
 BYTE   PATT
  POIN2 Label_019DC10B
//  #08 //048   ----------------------------------------
 BYTE   PATT
  POIN2 Label_019DC118
//  #08 //049   ----------------------------------------
 BYTE   PATT
  POIN2 Label_019DC074
//  #08 //050   ----------------------------------------
 BYTE   PATT
  POIN2 Label_019DC074
//  #08 //051   ----------------------------------------
 BYTE   PATT
  POIN2 Label_019DC137
//  #08 //052   ----------------------------------------
 BYTE   GoTo
  POIN2 Label_019DC05A
 BYTE   FINE

//**************** Track 9 (Midi-Chn.8) ****************//

song01_009:
//  #09 //000   ----------------------------------------
 BYTE   KEYSH   song01_key+0
 BYTE   VOICE   124
 BYTE   MODT 0
 BYTE   LFOS 44
 BYTE   PAN   c_v+0
 BYTE   VOL   31*song01_mvl/mxv
 BYTE   N01  Cn1  v100
 BYTE   W24
 BYTE   Dn1
 BYTE   W12
 BYTE   Cn1
 BYTE   W06
 BYTE   N01
 BYTE   W24
 BYTE   N01
 BYTE   W06
 BYTE   Dn1
 BYTE   W18
 BYTE   Cn1
 BYTE   W06
//  #09 //001   ----------------------------------------
Label_019DC1DC:
 BYTE   N01  Cn1  v100
 BYTE   W24
 BYTE   Dn1
 BYTE   W12
 BYTE   Cn1
 BYTE   W06
 BYTE   N01
 BYTE   W24
 BYTE   N01
 BYTE   W06
 BYTE   Dn1
 BYTE   W12
 BYTE   Cn1
 BYTE   W06
 BYTE   Dn1
 BYTE   W06
 BYTE   PEND 
//  #09 //002   ----------------------------------------
 BYTE   Cn1
 BYTE   W24
 BYTE   N01
 BYTE   N01  Dn1
 BYTE   W18
 BYTE   Cn1
 BYTE   W24
 BYTE   N01
 BYTE   W06
 BYTE   Dn1
 BYTE   W18
 BYTE   Cn1
 BYTE   W06
//  #09 //003   ----------------------------------------
 BYTE   N01
 BYTE   W24
 BYTE   Dn1
 BYTE   W12
 BYTE   Cn1
 BYTE   W10
 BYTE   Dn1
 BYTE   W02
 BYTE   N01
 BYTE   W12
 BYTE   En1  v048
 BYTE   W04
 BYTE   En1  v072
 BYTE   W04
 BYTE   En1  v100
 BYTE   W04
 BYTE   Dn1
 BYTE   W06
 BYTE   N01
 BYTE   W06
 BYTE   Cn2
 BYTE   W12
//  #09 //004   ----------------------------------------
Label_019DC216:
 BYTE   N01  Cn1  v100
 BYTE   W24
 BYTE   Dn1
 BYTE   W12
 BYTE   Cn1
 BYTE   W06
 BYTE   N01
 BYTE   W24
 BYTE   N01
 BYTE   W06
 BYTE   Dn1
 BYTE   W18
 BYTE   Cn1
 BYTE   W06
 BYTE   PEND 
//  #09 //005   ----------------------------------------
 BYTE   PATT
  POIN2 Label_019DC1DC
//  #09 //006   ----------------------------------------
 BYTE   PATT
  POIN2 Label_019DC216
//  #09 //007   ----------------------------------------
Label_019DC231:
 BYTE   N01  Cn1  v100
 BYTE   W24
 BYTE   Dn1
 BYTE   W12
 BYTE   Cn1
 BYTE   W10
 BYTE   Dn1
 BYTE   W02
 BYTE   N01
 BYTE   W12
 BYTE   En1  v048
 BYTE   W04
 BYTE   En1  v072
 BYTE   W04
 BYTE   En1  v100
 BYTE   W04
 BYTE   Dn1
 BYTE   W06
 BYTE   N01
 BYTE   W06
 BYTE   Gn1
 BYTE   W12
 BYTE   PEND 
//  #09 //008   ----------------------------------------
 BYTE   PATT
  POIN2 Label_019DC216
//  #09 //009   ----------------------------------------
 BYTE   PATT
  POIN2 Label_019DC1DC
//  #09 //010   ----------------------------------------
 BYTE   PATT
  POIN2 Label_019DC216
//  #09 //011   ----------------------------------------
Label_019DC25C:
 BYTE   N01  Cn1  v100
 BYTE   W24
 BYTE   Dn1
 BYTE   W12
 BYTE   Cn1
 BYTE   W06
 BYTE   N01
 BYTE   W12
 BYTE   En1  v060
 BYTE   W12
 BYTE   Cn1  v100
 BYTE   W12
 BYTE   N01
 BYTE   W06
 BYTE   Dn1
 BYTE   W06
 BYTE   Cn1
 BYTE   W06
 BYTE   PEND 
//  #09 //012   ----------------------------------------
Label_019DC273:
 BYTE   N01  Cn1  v100
 BYTE   W06
 BYTE   N01
 BYTE   W18
 BYTE   Dn1
 BYTE   W12
 BYTE   Cn1
 BYTE   W06
 BYTE   N01
 BYTE   W24
 BYTE   N01
 BYTE   W06
 BYTE   Dn1
 BYTE   W18
 BYTE   Cn1
 BYTE   W06
 BYTE   PEND 
//  #09 //013   ----------------------------------------
Label_019DC286:
 BYTE   N01  Cn1  v100
 BYTE   W24
 BYTE   Dn1
 BYTE   W12
 BYTE   Cn1
 BYTE   W06
 BYTE   N01
 BYTE   W12
 BYTE   Dn1
 BYTE   W12
 BYTE   Cn1
 BYTE   W06
 BYTE   Dn1
 BYTE   W12
 BYTE   Cn1
 BYTE   W06
 BYTE   Dn1
 BYTE   W06
 BYTE   PEND 
//  #09 //014   ----------------------------------------
 BYTE   PATT
  POIN2 Label_019DC216
//  #09 //015   ----------------------------------------
Label_019DC2A0:
 BYTE   N01  Cn1  v100
 BYTE   W06
 BYTE   N01
 BYTE   W06
 BYTE   Dn1
 BYTE   W03
 BYTE   Cn2
 BYTE   W01
 BYTE   N01
 BYTE   W02
 BYTE   Cn1
 BYTE   W12
 BYTE   Gn1
 BYTE   W06
 BYTE   Cn1
 BYTE   W06
 BYTE   Dn1
 BYTE   W06
 BYTE   Cn1
 BYTE   W06
 BYTE   N01
 BYTE   W12
 BYTE   N01
 BYTE   W04
 BYTE   Dn1
 BYTE   W02
 BYTE   N01
 BYTE   W06
 BYTE   Cn1
 BYTE   N01  Cn2
 BYTE   W06
 BYTE   Cn1
 BYTE   N01  Gn1
 BYTE   W12
 BYTE   PEND 
//  #09 //016   ----------------------------------------
 BYTE   PATT
  POIN2 Label_019DC216
//  #09 //017   ----------------------------------------
Label_019DC2CC:
 BYTE   N01  Cn1  v100
 BYTE   W06
 BYTE   En1  v072
 BYTE   W18
 BYTE   Dn1  v100
 BYTE   W12
 BYTE   Cn1
 BYTE   W06
 BYTE   N01
 BYTE   W24
 BYTE   N01
 BYTE   W06
 BYTE   Dn1
 BYTE   W12
 BYTE   Cn1
 BYTE   W06
 BYTE   Dn1
 BYTE   W06
 BYTE   PEND 
//  #09 //018   ----------------------------------------
 BYTE   PATT
  POIN2 Label_019DC216
//  #09 //019   ----------------------------------------
Label_019DC2E8:
 BYTE   N01  Cn1  v100
 BYTE   N01  Dn1
 BYTE   W24
 BYTE   N01
 BYTE   W12
 BYTE   Cn1
 BYTE   W06
 BYTE   N01
 BYTE   W12
 BYTE   Dn1
 BYTE   W06
 BYTE   Cn1
 BYTE   W12
 BYTE   Dn1
 BYTE   W06
 BYTE   N01
 BYTE   W06
 BYTE   Cn1
 BYTE   N01  Cn2
 BYTE   W06
 BYTE   Cn1
 BYTE   W06
 BYTE   PEND 
//  #09 //020   ----------------------------------------
Label_019DC303:
 BYTE   N01  Cn1  v100
 BYTE   N01  Cn2
 BYTE   W24
 BYTE   Dn1
 BYTE   W12
 BYTE   Cn1
 BYTE   W06
 BYTE   N01
 BYTE   W24
 BYTE   N01
 BYTE   W06
 BYTE   Dn1
 BYTE   W18
 BYTE   Cn1
 BYTE   W06
 BYTE   PEND 
//  #09 //021   ----------------------------------------
 BYTE   PATT
  POIN2 Label_019DC1DC
//  #09 //022   ----------------------------------------
Label_019DC31B:
 BYTE   N01  Cn1  v100
 BYTE   W24
 BYTE   Dn1
 BYTE   W12
 BYTE   Cn1  v060
 BYTE   W10
 BYTE   Dn1  v100
 BYTE   W02
 BYTE   N01
 BYTE   W12
 BYTE   En1  v048
 BYTE   W04
 BYTE   En1  v072
 BYTE   W04
 BYTE   En1  v100
 BYTE   W04
 BYTE   Dn1
 BYTE   W06
 BYTE   N01
 BYTE   W06
 BYTE   Cn1
 BYTE   W12
 BYTE   PEND 
//  #09 //023   ----------------------------------------
Label_019DC339:
 BYTE   N01  Cn1  v100
 BYTE   W36
 BYTE   Cn1  v072
 BYTE   W12
 BYTE   Dn1  v100
 BYTE   W06
 BYTE   N01
 BYTE   W06
 BYTE   Cn1
 BYTE   W06
 BYTE   Dn1
 BYTE   W06
 BYTE   N01
 BYTE   W06
 BYTE   Cn1
 BYTE   W06
 BYTE   Dn1
 BYTE   W06
 BYTE   N01
 BYTE   W06
 BYTE   PEND 
//  #09 //024   ----------------------------------------
 BYTE   PATT
  POIN2 Label_019DC216
//  #09 //025   ----------------------------------------
Label_019DC357:
 BYTE   N01  Cn1  v100
 BYTE   W24
 BYTE   Dn1
 BYTE   W12
 BYTE   Cn1
 BYTE   W06
 BYTE   N01
 BYTE   W24
 BYTE   N01
 BYTE   W06
 BYTE   Dn1
 BYTE   W12
 BYTE   Cn1
 BYTE   W06
 BYTE   En1  v060
 BYTE   W06
 BYTE   PEND 
//  #09 //026   ----------------------------------------
 BYTE   PATT
  POIN2 Label_019DC216
//  #09 //027   ----------------------------------------
Label_019DC370:
 BYTE   N01  Cn1  v100
 BYTE   W06
 BYTE   Dn1
 BYTE   W12
 BYTE   N01
 BYTE   W24
 BYTE   Cn1
 BYTE   W06
 BYTE   Dn1
 BYTE   W12
 BYTE   En1  v028
 BYTE   N01  Cn2  v100
 BYTE   W04
 BYTE   En1  v048
 BYTE   W04
 BYTE   En1  v072
 BYTE   W04
 BYTE   Dn1  v100
 BYTE   W06
 BYTE   N01
 BYTE   W06
 BYTE   Gn1
 BYTE   W12
 BYTE   PEND 
//  #09 //028   ----------------------------------------
 BYTE   PATT
  POIN2 Label_019DC216
//  #09 //029   ----------------------------------------
 BYTE   PATT
  POIN2 Label_019DC1DC
//  #09 //030   ----------------------------------------
 BYTE   PATT
  POIN2 Label_019DC216
//  #09 //031   ----------------------------------------
 BYTE   PATT
  POIN2 Label_019DC231
//  #09 //032   ----------------------------------------
 BYTE   PATT
  POIN2 Label_019DC216
//  #09 //033   ----------------------------------------
 BYTE   PATT
  POIN2 Label_019DC1DC
//  #09 //034   ----------------------------------------
 BYTE   PATT
  POIN2 Label_019DC216
//  #09 //035   ----------------------------------------
 BYTE   PATT
  POIN2 Label_019DC25C
//  #09 //036   ----------------------------------------
 BYTE   PATT
  POIN2 Label_019DC273
//  #09 //037   ----------------------------------------
 BYTE   PATT
  POIN2 Label_019DC286
//  #09 //038   ----------------------------------------
 BYTE   PATT
  POIN2 Label_019DC216
//  #09 //039   ----------------------------------------
 BYTE   PATT
  POIN2 Label_019DC2A0
//  #09 //040   ----------------------------------------
 BYTE   PATT
  POIN2 Label_019DC216
//  #09 //041   ----------------------------------------
 BYTE   PATT
  POIN2 Label_019DC2CC
//  #09 //042   ----------------------------------------
 BYTE   PATT
  POIN2 Label_019DC216
//  #09 //043   ----------------------------------------
 BYTE   PATT
  POIN2 Label_019DC2E8
//  #09 //044   ----------------------------------------
 BYTE   PATT
  POIN2 Label_019DC303
//  #09 //045   ----------------------------------------
 BYTE   PATT
  POIN2 Label_019DC1DC
//  #09 //046   ----------------------------------------
 BYTE   PATT
  POIN2 Label_019DC31B
//  #09 //047   ----------------------------------------
 BYTE   PATT
  POIN2 Label_019DC339
//  #09 //048   ----------------------------------------
 BYTE   PATT
  POIN2 Label_019DC216
//  #09 //049   ----------------------------------------
 BYTE   PATT
  POIN2 Label_019DC357
//  #09 //050   ----------------------------------------
 BYTE   PATT
  POIN2 Label_019DC216
//  #09 //051   ----------------------------------------
 BYTE   PATT
  POIN2 Label_019DC370
//  #09 //052   ----------------------------------------
 BYTE   GoTo
  POIN2 Label_019DC216
 BYTE   FINE

//******************************************************//
	ALIGN 4

song01:
	BYTE	9	// NumTrks
	BYTE	0	// NumBlks
	BYTE	song01_pri	// Priority
	BYTE	song01_rev	// Reverb.
    
	POIN2	song01_grp
    
	POIN2	song01_001
	POIN2	song01_002
	POIN2	song01_003
	POIN2	song01_004
	POIN2	song01_005
	POIN2	song01_006
	POIN2	song01_007
	POIN2	song01_008
	POIN2	song01_009

	
