	.include "MPlayDef.s"

	.equ	song03B1_grp, voicegroup000
	.equ	song03B1_pri, 0
	.equ	song03B1_rev, 0
	.equ	song03B1_mvl, 127
	.equ	song03B1_key, 0
	.equ	song03B1_tbs, 1
	.equ	song03B1_exg, 0
	.equ	song03B1_cmp, 1

	.section .rodata
	.global	song03B1
	.align	2


@**************** Track 1 (Midi-Chn.0) ****************@

song03B1_001:
@  #01 @000   ----------------------------------------
 .byte   KEYSH , song03B1_key+0
Label_0197487E:
 .byte   TEMPO , 156*song03B1_tbs/2
 .byte   VOICE , 62
 .byte   VOL , 27*song03B1_mvl/mxv
 .byte   PAN , c_v+6
 .byte   W96
@  #01 @001   ----------------------------------------
 .byte   W96
@  #01 @002   ----------------------------------------
 .byte   W96
@  #01 @003   ----------------------------------------
 .byte   W96
@  #01 @004   ----------------------------------------
 .byte   W96
@  #01 @005   ----------------------------------------
 .byte   W96
@  #01 @006   ----------------------------------------
 .byte   W48
 .byte   N48 ,Fs2 ,v108
 .byte   W48
@  #01 @007   ----------------------------------------
 .byte   Bn2
 .byte   W48
 .byte   Dn3
 .byte   W48
@  #01 @008   ----------------------------------------
 .byte   TIE ,Cn3
 .byte   W96
@  #01 @009   ----------------------------------------
 .byte   W96
@  #01 @010   ----------------------------------------
 .byte   EOT
 .byte   W96
@  #01 @011   ----------------------------------------
 .byte   W96
@  #01 @012   ----------------------------------------
 .byte   N96 ,Bn2 ,v127
 .byte   W96
@  #01 @013   ----------------------------------------
 .byte   En3
 .byte   W96
@  #01 @014   ----------------------------------------
 .byte   W48
 .byte   N48 ,Dn3
 .byte   W48
@  #01 @015   ----------------------------------------
 .byte   Fs3
 .byte   W48
 .byte   An3
 .byte   W48
@  #01 @016   ----------------------------------------
 .byte   N96 ,Gn3
 .byte   W96
@  #01 @017   ----------------------------------------
 .byte   Cn4
 .byte   W96
@  #01 @018   ----------------------------------------
 .byte   N48 ,Bn3
 .byte   W48
 .byte   N72 ,Fs3
 .byte   W48
@  #01 @019   ----------------------------------------
 .byte   W48
 .byte   N48 ,Gn3
 .byte   W48
@  #01 @020   ----------------------------------------
 .byte   N96 ,En3
 .byte   W96
@  #01 @021   ----------------------------------------
 .byte   TIE ,Bn3
 .byte   W96
@  #01 @022   ----------------------------------------
 .byte   W24
 .byte   EOT
 .byte   W24
 .byte   N48 ,An3
 .byte   W48
@  #01 @023   ----------------------------------------
 .byte   Gn3
 .byte   W48
 .byte   Fs3
 .byte   W48
@  #01 @024   ----------------------------------------
 .byte   TIE ,En3
 .byte   W96
@  #01 @025   ----------------------------------------
 .byte   W96
@  #01 @026   ----------------------------------------
 .byte   EOT
 .byte   W96
@  #01 @027   ----------------------------------------
 .byte   W96
@  #01 @028   ----------------------------------------
 .byte   N96 ,Bn2
 .byte   W96
@  #01 @029   ----------------------------------------
 .byte   Bn2 ,v108
 .byte   N96 ,En3 ,v127
 .byte   W96
@  #01 @030   ----------------------------------------
 .byte   W48
 .byte   N48 ,Dn3
 .byte   W48
@  #01 @031   ----------------------------------------
 .byte   Dn3 ,v108
 .byte   N48 ,Fs3 ,v127
 .byte   W48
 .byte   Fs3 ,v108
 .byte   N48 ,An3 ,v127
 .byte   W48
@  #01 @032   ----------------------------------------
 .byte   N96 ,En3 ,v108
 .byte   N96 ,Gn3 ,v127
 .byte   W96
@  #01 @033   ----------------------------------------
 .byte   Gn3 ,v108
 .byte   N96 ,Cn4 ,v127
 .byte   W96
@  #01 @034   ----------------------------------------
 .byte   N48 ,Fs3 ,v108
 .byte   N48 ,Bn3 ,v127
 .byte   W48
 .byte   N72 ,Dn3 ,v108
 .byte   N72 ,Fs3 ,v127
 .byte   W48
@  #01 @035   ----------------------------------------
 .byte   W48
 .byte   N48 ,En3 ,v108
 .byte   N48 ,Gn3 ,v127
 .byte   W48
@  #01 @036   ----------------------------------------
 .byte   N96 ,Cn3 ,v108
 .byte   N96 ,En3 ,v127
 .byte   W96
@  #01 @037   ----------------------------------------
Label_01974913:
 .byte   TIE ,Gn3 ,v108
 .byte   TIE ,Bn3 ,v127
 .byte   W96
 .byte   PEND 
@  #01 @038   ----------------------------------------
 .byte   W24
 .byte   EOT
 .byte   Gn3 ,v071
 .byte   W24
 .byte   N48 ,Fn3 ,v108
 .byte   N48 ,An3 ,v127
 .byte   W48
@  #01 @039   ----------------------------------------
 .byte   An3 ,v108
 .byte   N48 ,Dn4 ,v127
 .byte   W48
 .byte   An3 ,v108
 .byte   N48 ,Cn4 ,v127
 .byte   W48
@  #01 @040   ----------------------------------------
 .byte   PATT
  .word Label_01974913
@  #01 @041   ----------------------------------------
 .byte   W96
@  #01 @042   ----------------------------------------
 .byte   EOT
 .byte   Gn3 ,v071
 .byte   W96
@  #01 @043   ----------------------------------------
 .byte   W96
@  #01 @044   ----------------------------------------
 .byte   W96
@  #01 @045   ----------------------------------------
 .byte   W96
@  #01 @046   ----------------------------------------
 .byte   W48
 .byte   N48 ,Gn2 ,v127
 .byte   W48
@  #01 @047   ----------------------------------------
 .byte   Bn2
 .byte   W48
 .byte   Bn2 ,v108
 .byte   N48 ,Dn3 ,v127
 .byte   W48
@  #01 @048   ----------------------------------------
 .byte   TIE ,Cn3 ,v100
 .byte   TIE ,En3 ,v127
 .byte   W96
@  #01 @049   ----------------------------------------
 .byte   W96
@  #01 @050   ----------------------------------------
 .byte   EOT
 .byte   Cn3 ,v064
 .byte   W96
@  #01 @051   ----------------------------------------
 .byte   VOICE , 0
 .byte   VOL , 25*song03B1_mvl/mxv
 .byte   PAN , c_v+0
 .byte   W96
@  #01 @052   ----------------------------------------
 .byte   TIE ,En0 ,v120
 .byte   TIE ,En1 ,v112
 .byte   W96
@  #01 @053   ----------------------------------------
 .byte   W96
@  #01 @054   ----------------------------------------
 .byte   EOT
 .byte   En0 ,v040
 .byte   W96
@  #01 @055   ----------------------------------------
 .byte   W96
@  #01 @056   ----------------------------------------
 .byte   W96
@  #01 @057   ----------------------------------------
 .byte   W96
@  #01 @058   ----------------------------------------
 .byte   VOICE , 60
 .byte   PAN , c_v+6
 .byte   W96
@  #01 @059   ----------------------------------------
 .byte   W96
@  #01 @060   ----------------------------------------
 .byte   N84 ,En2 ,v127
 .byte   W96
@  #01 @061   ----------------------------------------
 .byte   N36
 .byte   W36
 .byte   Fs2
 .byte   W36
 .byte   N24 ,En2 ,v100
 .byte   N24 ,Gn2 ,v127
 .byte   W24
@  #01 @062   ----------------------------------------
 .byte   N96 ,Fn2 ,v100
 .byte   N96 ,An2 ,v127
 .byte   W96
@  #01 @063   ----------------------------------------
 .byte   Dn2 ,v100
 .byte   N96 ,Fn2 ,v127
 .byte   W96
@  #01 @064   ----------------------------------------
 .byte   Bn1 ,v100
 .byte   N96 ,En2 ,v127
 .byte   W96
@  #01 @065   ----------------------------------------
 .byte   N36 ,En2 ,v100
 .byte   N36 ,Gn2 ,v127
 .byte   W36
 .byte   Gn2 ,v100
 .byte   N36 ,Bn2 ,v127
 .byte   W36
 .byte   N24 ,Bn2 ,v100
 .byte   N24 ,Gn3 ,v127
 .byte   W24
@  #01 @066   ----------------------------------------
 .byte   TIE ,An2 ,v100
 .byte   N96 ,Fn3 ,v127
 .byte   W96
@  #01 @067   ----------------------------------------
 .byte   Dn3
 .byte   W96
@  #01 @068   ----------------------------------------
 .byte   EOT
 .byte   An2
 .byte   N36 ,Bn2 ,v112
 .byte   N36 ,En3 ,v127
 .byte   W36
 .byte   Bn2 ,v112
 .byte   N36 ,Fs3 ,v127
 .byte   W36
 .byte   N24 ,Bn2 ,v112
 .byte   N24 ,Gn3 ,v127
 .byte   W24
@  #01 @069   ----------------------------------------
 .byte   TIE ,En3 ,v112
 .byte   TIE ,An3 ,v127
 .byte   W96
@  #01 @070   ----------------------------------------
 .byte   W24
 .byte   EOT
 .byte   En3 ,v069
 .byte   W12
 .byte   N36 ,Fn3 ,v112
 .byte   N36 ,Bn3 ,v127
 .byte   W36
 .byte   N24 ,Fn3 ,v112
 .byte   N24 ,An3 ,v127
 .byte   W24
@  #01 @071   ----------------------------------------
 .byte   N36 ,An3 ,v112
 .byte   N36 ,Cn4 ,v127
 .byte   W36
 .byte   Gn3 ,v112
 .byte   N36 ,Bn3 ,v127
 .byte   W36
 .byte   N24 ,Fn3 ,v112
 .byte   N24 ,An3 ,v127
 .byte   W24
@  #01 @072   ----------------------------------------
 .byte   N36 ,Gn3 ,v112
 .byte   N36 ,Bn3 ,v127
 .byte   W36
 .byte   En3 ,v112
 .byte   N36 ,Gn3 ,v127
 .byte   W36
 .byte   TIE ,Bn2 ,v112
 .byte   TIE ,En3 ,v127
 .byte   W24
@  #01 @073   ----------------------------------------
 .byte   W96
@  #01 @074   ----------------------------------------
 .byte   W24
 .byte   EOT
 .byte   Bn2 ,v064
 .byte   W12
 .byte   N36 ,An2 ,v112
 .byte   N36 ,Dn3 ,v127
 .byte   W36
 .byte   N24 ,An3 ,v112
 .byte   N24 ,Cn4 ,v127
 .byte   W24
@  #01 @075   ----------------------------------------
 .byte   N36 ,Fn3 ,v112
 .byte   N36 ,An3 ,v127
 .byte   W36
 .byte   Fn3 ,v112
 .byte   N36 ,Bn3 ,v127
 .byte   W36
 .byte   N24 ,Fn3 ,v112
 .byte   N24 ,Cn4 ,v127
 .byte   W24
@  #01 @076   ----------------------------------------
 .byte   GOTO
  .word Label_0197487E
@  #01 @077   ----------------------------------------
 .byte   TEMPO , 156*song03B1_tbs/2
 .byte   VOICE , 60
 .byte   VOL , 27*song03B1_mvl/mxv
 .byte   FINE

@**************** Track 2 (Midi-Chn.1) ****************@

song03B1_002:
@  #02 @000   ----------------------------------------
 .byte   KEYSH , song03B1_key+0
Label_01974D7A:
 .byte   VOICE , 60
 .byte   VOL , 25*song03B1_mvl/mxv
 .byte   PAN , c_v+10
 .byte   W96
 .byte   PEND 
@  #02 @001   ----------------------------------------
 .byte   W96
@  #02 @002   ----------------------------------------
 .byte   W96
@  #02 @003   ----------------------------------------
 .byte   W96
@  #02 @004   ----------------------------------------
 .byte   N96 ,Fs3 ,v100
 .byte   N96 ,An3
 .byte   W96
@  #02 @005   ----------------------------------------
 .byte   Fs3
 .byte   N96 ,Bn3
 .byte   W96
@  #02 @006   ----------------------------------------
 .byte   TIE ,Dn3
 .byte   TIE ,Fs3
 .byte   W96
@  #02 @007   ----------------------------------------
 .byte   W96
@  #02 @008   ----------------------------------------
 .byte   EOT
 .byte   Dn3 ,v066
 .byte   TIE ,Cn3
 .byte   TIE ,En3
 .byte   W96
@  #02 @009   ----------------------------------------
 .byte   W96
@  #02 @010   ----------------------------------------
 .byte   EOT
 .byte   Cn3 ,v064
 .byte   TIE ,En3 ,v108
 .byte   TIE ,An3
 .byte   W96
@  #02 @011   ----------------------------------------
 .byte   W96
@  #02 @012   ----------------------------------------
 .byte   EOT
 .byte   En3 ,v069
 .byte   W96
@  #02 @013   ----------------------------------------
 .byte   W96
@  #02 @014   ----------------------------------------
 .byte   W96
@  #02 @015   ----------------------------------------
 .byte   W96
@  #02 @016   ----------------------------------------
 .byte   W96
@  #02 @017   ----------------------------------------
 .byte   W96
@  #02 @018   ----------------------------------------
 .byte   W96
@  #02 @019   ----------------------------------------
 .byte   W96
@  #02 @020   ----------------------------------------
 .byte   W96
@  #02 @021   ----------------------------------------
 .byte   W96
@  #02 @022   ----------------------------------------
 .byte   W96
@  #02 @023   ----------------------------------------
 .byte   W96
@  #02 @024   ----------------------------------------
 .byte   W96
@  #02 @025   ----------------------------------------
 .byte   W96
@  #02 @026   ----------------------------------------
 .byte   W96
@  #02 @027   ----------------------------------------
 .byte   W96
@  #02 @028   ----------------------------------------
 .byte   W96
@  #02 @029   ----------------------------------------
 .byte   W96
@  #02 @030   ----------------------------------------
 .byte   W96
@  #02 @031   ----------------------------------------
 .byte   W96
@  #02 @032   ----------------------------------------
 .byte   W96
@  #02 @033   ----------------------------------------
 .byte   W96
@  #02 @034   ----------------------------------------
 .byte   W96
@  #02 @035   ----------------------------------------
 .byte   W96
@  #02 @036   ----------------------------------------
 .byte   W96
@  #02 @037   ----------------------------------------
 .byte   W96
@  #02 @038   ----------------------------------------
 .byte   W96
@  #02 @039   ----------------------------------------
 .byte   W96
@  #02 @040   ----------------------------------------
 .byte   W96
@  #02 @041   ----------------------------------------
 .byte   W96
@  #02 @042   ----------------------------------------
 .byte   W96
@  #02 @043   ----------------------------------------
 .byte   W96
@  #02 @044   ----------------------------------------
 .byte   W96
@  #02 @045   ----------------------------------------
 .byte   W96
@  #02 @046   ----------------------------------------
 .byte   W96
@  #02 @047   ----------------------------------------
 .byte   W96
@  #02 @048   ----------------------------------------
 .byte   W96
@  #02 @049   ----------------------------------------
 .byte   W96
@  #02 @050   ----------------------------------------
 .byte   W96
@  #02 @051   ----------------------------------------
 .byte   VOICE , 19
 .byte   VOL , 21*song03B1_mvl/mxv
 .byte   PAN , c_v+0
 .byte   W96
@  #02 @052   ----------------------------------------
 .byte   TIE ,En1 ,v092
 .byte   TIE ,En2
 .byte   W96
@  #02 @053   ----------------------------------------
 .byte   W96
@  #02 @054   ----------------------------------------
 .byte   EOT
 .byte   En1 ,v052
 .byte   TIE ,Fs1
 .byte   TIE ,Fs2
 .byte   W96
@  #02 @055   ----------------------------------------
 .byte   W96
@  #02 @056   ----------------------------------------
 .byte   EOT
 .byte   Fs1 ,v054
 .byte   TIE ,An1
 .byte   TIE ,An2
 .byte   W96
@  #02 @057   ----------------------------------------
 .byte   W96
@  #02 @058   ----------------------------------------
 .byte   EOT
 .byte   An1 ,v057
 .byte   N96 ,Bn1
 .byte   N96 ,Bn2
 .byte   W96
@  #02 @059   ----------------------------------------
 .byte   Bn0
 .byte   N96 ,Bn1
 .byte   W96
@  #02 @060   ----------------------------------------
 .byte   W96
@  #02 @061   ----------------------------------------
 .byte   W96
@  #02 @062   ----------------------------------------
 .byte   W96
@  #02 @063   ----------------------------------------
 .byte   W96
@  #02 @064   ----------------------------------------
 .byte   W96
@  #02 @065   ----------------------------------------
 .byte   W96
@  #02 @066   ----------------------------------------
 .byte   W96
@  #02 @067   ----------------------------------------
 .byte   W96
@  #02 @068   ----------------------------------------
 .byte   W96
@  #02 @069   ----------------------------------------
 .byte   W96
@  #02 @070   ----------------------------------------
 .byte   W96
@  #02 @071   ----------------------------------------
 .byte   W96
@  #02 @072   ----------------------------------------
 .byte   W96
@  #02 @073   ----------------------------------------
 .byte   W96
@  #02 @074   ----------------------------------------
 .byte   PATT
  .word Label_01974D7A
@  #02 @075   ----------------------------------------
 .byte   W96
@  #02 @076   ----------------------------------------
 .byte   GOTO
  .word Label_01974D7A
@  #02 @077   ----------------------------------------
 .byte   VOICE , 60
 .byte   FINE

@**************** Track 3 (Midi-Chn.2) ****************@

song03B1_003:
@  #03 @000   ----------------------------------------
 .byte   KEYSH , song03B1_key+0
Label_01974A42:
 .byte   VOICE , 48
 .byte   PAN , c_v-7
 .byte   W96
@  #03 @001   ----------------------------------------
 .byte   W96
@  #03 @002   ----------------------------------------
 .byte   W96
@  #03 @003   ----------------------------------------
 .byte   W96
@  #03 @004   ----------------------------------------
 .byte   W96
@  #03 @005   ----------------------------------------
 .byte   W96
@  #03 @006   ----------------------------------------
 .byte   W96
@  #03 @007   ----------------------------------------
 .byte   W96
@  #03 @008   ----------------------------------------
 .byte   W96
@  #03 @009   ----------------------------------------
 .byte   W96
@  #03 @010   ----------------------------------------
 .byte   W96
@  #03 @011   ----------------------------------------
 .byte   VOL , 21*song03B1_mvl/mxv
 .byte   W96
@  #03 @012   ----------------------------------------
Label_01974A54:
 .byte   TIE ,Bn2 ,v100
 .byte   TIE ,En3
 .byte   TIE ,Gn3
 .byte   W96
 .byte   PEND 
@  #03 @013   ----------------------------------------
 .byte   W96
@  #03 @014   ----------------------------------------
 .byte   EOT
 .byte   Bn2 ,v064
 .byte   Gn3
Label_01974A62:
 .byte   TIE ,Bn2 ,v100
 .byte   TIE ,Dn3
 .byte   TIE ,Fs3
 .byte   W96
 .byte   PEND 
@  #03 @015   ----------------------------------------
 .byte   W96
@  #03 @016   ----------------------------------------
 .byte   EOT
 .byte   Bn2 ,v062
 .byte   Fs3
Label_01974A70:
 .byte   TIE ,Bn2 ,v100
 .byte   TIE ,Cn3
 .byte   TIE ,En3
 .byte   W96
 .byte   PEND 
@  #03 @017   ----------------------------------------
 .byte   W96
@  #03 @018   ----------------------------------------
 .byte   EOT
 .byte   Bn2 ,v060
 .byte   En3
@  #03 @019   ----------------------------------------
 .byte   PATT
  .word Label_01974A62
@  #03 @020   ----------------------------------------
 .byte   W96
@  #03 @021   ----------------------------------------
 .byte   EOT
 .byte   Bn2 ,v062
 .byte   Fs3
Label_01974A88:
 .byte   N96 ,Dn3 ,v108
 .byte   TIE ,En3 ,v096
 .byte   TIE ,Gn3
 .byte   W96
 .byte   PEND 
@  #03 @022   ----------------------------------------
 .byte   N96 ,Cn3 ,v108
 .byte   W96
@  #03 @023   ----------------------------------------
 .byte   Bn2
 .byte   W96
@  #03 @024   ----------------------------------------
 .byte   Cn3
 .byte   W96
@  #03 @025   ----------------------------------------
 .byte   EOT
 .byte   En3 ,v067
 .byte   TIE ,Bn2 ,v080
 .byte   TIE ,En3
 .byte   TIE ,Gn3
 .byte   W96
@  #03 @026   ----------------------------------------
 .byte   W96
@  #03 @027   ----------------------------------------
 .byte   EOT
 .byte   Bn2 ,v064
 .byte   Gn3
 .byte   N96 ,Bn2 ,v088
 .byte   TIE ,En3 ,v076
 .byte   N96 ,Fs3 ,v088
 .byte   W96
@  #03 @028   ----------------------------------------
 .byte   Bn3
 .byte   N96 ,Dn4
 .byte   W96
@  #03 @029   ----------------------------------------
 .byte   EOT
 .byte   En3
@  #03 @030   ----------------------------------------
 .byte   PATT
  .word Label_01974A54
@  #03 @031   ----------------------------------------
 .byte   W96
@  #03 @032   ----------------------------------------
 .byte   EOT
 .byte   Bn2 ,v064
 .byte   Gn3
@  #03 @033   ----------------------------------------
 .byte   PATT
  .word Label_01974A62
@  #03 @034   ----------------------------------------
 .byte   W96
@  #03 @035   ----------------------------------------
 .byte   EOT
 .byte   Bn2 ,v062
 .byte   Fs3
@  #03 @036   ----------------------------------------
 .byte   PATT
  .word Label_01974A70
@  #03 @037   ----------------------------------------
 .byte   W96
@  #03 @038   ----------------------------------------
 .byte   EOT
 .byte   Bn2 ,v060
 .byte   En3
@  #03 @039   ----------------------------------------
 .byte   PATT
  .word Label_01974A62
@  #03 @040   ----------------------------------------
 .byte   W96
@  #03 @041   ----------------------------------------
 .byte   EOT
 .byte   Bn2 ,v062
 .byte   Fs3
@  #03 @042   ----------------------------------------
 .byte   PATT
  .word Label_01974A88
@  #03 @043   ----------------------------------------
 .byte   N96 ,Cn3 ,v108
 .byte   W96
@  #03 @044   ----------------------------------------
 .byte   EOT
 .byte   En3 ,v067
 .byte   N96 ,En3
 .byte   TIE ,Fn3 ,v096
 .byte   TIE ,An3
 .byte   W96
@  #03 @045   ----------------------------------------
 .byte   N96 ,Cn3 ,v108
 .byte   W96
@  #03 @046   ----------------------------------------
 .byte   EOT
 .byte   Fn3 ,v069
@  #03 @047   ----------------------------------------
 .byte   PATT
  .word Label_01974A54
@  #03 @048   ----------------------------------------
 .byte   W96
@  #03 @049   ----------------------------------------
 .byte   EOT
 .byte   Bn2 ,v064
 .byte   Gn3
 .byte   TIE ,Bn2 ,v127
 .byte   TIE ,En3 ,v100
 .byte   N96 ,Fs3 ,v127
 .byte   W96
@  #03 @050   ----------------------------------------
 .byte   Bn3
 .byte   N96 ,Dn4
 .byte   W96
@  #03 @051   ----------------------------------------
 .byte   EOT
 .byte   Bn2 ,v064
 .byte   VOL , 18*song03B1_mvl/mxv
 .byte   TIE ,Bn4 ,v100
 .byte   TIE ,En5
 .byte   W96
@  #03 @052   ----------------------------------------
 .byte   W96
@  #03 @053   ----------------------------------------
 .byte   EOT
 .byte   Bn4 ,v088
 .byte   TIE ,Gn4
 .byte   TIE ,Bn4
 .byte   W96
@  #03 @054   ----------------------------------------
 .byte   W96
@  #03 @055   ----------------------------------------
 .byte   EOT
 .byte   Gn4 ,v083
 .byte   TIE
 .byte   TIE ,En5
 .byte   W96
@  #03 @056   ----------------------------------------
 .byte   W96
@  #03 @057   ----------------------------------------
 .byte   EOT
 .byte   Bn4 ,v088
 .byte   N36 ,Gn4
 .byte   N36 ,Bn4
 .byte   W36
 .byte   Fs4
 .byte   N36 ,An4
 .byte   W36
 .byte   N24 ,En4
 .byte   N24 ,Gn4
 .byte   W24
@  #03 @058   ----------------------------------------
 .byte   N36 ,Fs4
 .byte   N36 ,An4
 .byte   W36
 .byte   En4
 .byte   N36 ,Gn4
 .byte   W36
 .byte   N24 ,Ds4
 .byte   N24 ,Fs4
 .byte   W24
@  #03 @059   ----------------------------------------
 .byte   W96
@  #03 @060   ----------------------------------------
 .byte   W96
@  #03 @061   ----------------------------------------
 .byte   W96
@  #03 @062   ----------------------------------------
 .byte   W96
@  #03 @063   ----------------------------------------
 .byte   W96
@  #03 @064   ----------------------------------------
 .byte   W96
@  #03 @065   ----------------------------------------
 .byte   W96
@  #03 @066   ----------------------------------------
 .byte   W72
 .byte   N04 ,Ds3
 .byte   N04 ,Fs3
 .byte   W04
 .byte   En3
 .byte   N04 ,Gn3
 .byte   W04
 .byte   Fs3
 .byte   N04 ,An3
 .byte   W04
 .byte   Gn3
 .byte   N04 ,Bn3
 .byte   W04
 .byte   An3
 .byte   N04 ,Cn4
 .byte   W04
 .byte   Bn3
 .byte   N04 ,Dn4
 .byte   W04
@  #03 @067   ----------------------------------------
 .byte   N36 ,Bn3
 .byte   N36 ,En4
 .byte   W36
 .byte   Bn3
 .byte   N36 ,Fs4
 .byte   W36
 .byte   N24 ,Bn3
 .byte   N24 ,Gn4
 .byte   W24
@  #03 @068   ----------------------------------------
 .byte   TIE ,En4
 .byte   TIE ,An4
 .byte   W96
@  #03 @069   ----------------------------------------
 .byte   W24
 .byte   EOT
 .byte   En4 ,v081
 .byte   W12
 .byte   N36 ,Fn4
 .byte   N36 ,Bn4
 .byte   W36
 .byte   N24 ,Fn4
 .byte   N24 ,An4
 .byte   W24
@  #03 @070   ----------------------------------------
 .byte   N36
 .byte   N36 ,Cn5
 .byte   W36
 .byte   Gn4
 .byte   N36 ,Bn4
 .byte   W36
 .byte   N24 ,Fn4
 .byte   N24 ,An4
 .byte   W24
@  #03 @071   ----------------------------------------
 .byte   N36 ,Gn4
 .byte   N36 ,Bn4
 .byte   W36
 .byte   En4
 .byte   N36 ,Gn4
 .byte   W36
 .byte   TIE ,Bn3
 .byte   TIE ,En4
 .byte   W24
@  #03 @072   ----------------------------------------
 .byte   W96
@  #03 @073   ----------------------------------------
 .byte   W24
 .byte   EOT
 .byte   Bn3 ,v076
 .byte   W12
 .byte   N36 ,An3
 .byte   N36 ,Dn4
 .byte   W36
 .byte   N24 ,An4
 .byte   N24 ,Cn5
 .byte   W24
@  #03 @074   ----------------------------------------
 .byte   N36 ,Fn4
 .byte   N36 ,An4
 .byte   W36
 .byte   Fn4
 .byte   N36 ,Bn4
 .byte   W36
 .byte   N24 ,Fn4
 .byte   N24 ,Cn5
 .byte   W24
@  #03 @075   ----------------------------------------
 .byte   N96 ,En4
 .byte   N96 ,Bn4
 .byte   W96
@  #03 @076   ----------------------------------------
 .byte   An3
 .byte   N96 ,En4
 .byte   W96
@  #03 @077   ----------------------------------------
 .byte   An3
 .byte   N96 ,Cn4
 .byte   W96
@  #03 @078   ----------------------------------------
 .byte   N36
 .byte   N36 ,En4
 .byte   W36
 .byte   Bn3
 .byte   N36 ,Dn4
 .byte   W36
 .byte   N24 ,An3
 .byte   N24 ,Cn4
 .byte   W24
@  #03 @079   ----------------------------------------
 .byte   N96 ,Gn3
 .byte   N96 ,Bn3
 .byte   W96
@  #03 @080   ----------------------------------------
 .byte   N36
 .byte   N36 ,En4
 .byte   W36
 .byte   N36
 .byte   N36 ,Bn4
 .byte   W36
 .byte   N24
 .byte   N24 ,Gn5
 .byte   W24
@  #03 @081   ----------------------------------------
 .byte   N96 ,An4
 .byte   N96 ,Fn5
 .byte   W96
@  #03 @082   ----------------------------------------
 .byte   W96
@  #03 @083   ----------------------------------------
 .byte   GOTO
  .word Label_01974A42
@  #03 @084   ----------------------------------------
 .byte   VOICE , 48
 .byte   FINE

@**************** Track 4 (Midi-Chn.3) ****************@

song03B1_004:
@  #04 @000   ----------------------------------------
 .byte   KEYSH , song03B1_key+0
Label_01974CAA:
 .byte   VOICE , 49
 .byte   VOL , 21*song03B1_mvl/mxv
 .byte   PAN , c_v-4
 .byte   TIE ,Bn1 ,v100
 .byte   TIE ,En2
 .byte   W96
@  #04 @001   ----------------------------------------
 .byte   N96 ,Bn2
 .byte   W96
@  #04 @002   ----------------------------------------
 .byte   TIE ,An2 ,v080
 .byte   N96 ,Cn3 ,v100
 .byte   W96
@  #04 @003   ----------------------------------------
 .byte   Dn3
 .byte   W96
@  #04 @004   ----------------------------------------
 .byte   EOT
 .byte   Bn1 ,v052
 .byte   An2
 .byte   N96 ,En3 ,v096
 .byte   N96 ,Fs3
 .byte   W96
@  #04 @005   ----------------------------------------
 .byte   En3
 .byte   N96 ,Fs3
 .byte   W96
@  #04 @006   ----------------------------------------
 .byte   TIE ,Bn2
 .byte   TIE ,Dn3
 .byte   W96
@  #04 @007   ----------------------------------------
 .byte   W96
@  #04 @008   ----------------------------------------
 .byte   EOT
 .byte   Bn2 ,v062
 .byte   TIE ,An2
 .byte   TIE ,Cn3
 .byte   W96
@  #04 @009   ----------------------------------------
 .byte   W96
@  #04 @010   ----------------------------------------
 .byte   EOT
 .byte   An2 ,v060
 .byte   TIE
 .byte   TIE ,En3
 .byte   W96
@  #04 @011   ----------------------------------------
 .byte   W96
@  #04 @012   ----------------------------------------
 .byte   EOT
 .byte   Cn3 ,v064
 .byte   W96
@  #04 @013   ----------------------------------------
 .byte   W96
@  #04 @014   ----------------------------------------
 .byte   W96
@  #04 @015   ----------------------------------------
 .byte   W96
@  #04 @016   ----------------------------------------
 .byte   W96
@  #04 @017   ----------------------------------------
 .byte   W96
@  #04 @018   ----------------------------------------
 .byte   W96
@  #04 @019   ----------------------------------------
 .byte   W96
@  #04 @020   ----------------------------------------
 .byte   W96
@  #04 @021   ----------------------------------------
 .byte   W96
@  #04 @022   ----------------------------------------
 .byte   W96
@  #04 @023   ----------------------------------------
 .byte   W96
@  #04 @024   ----------------------------------------
 .byte   W96
@  #04 @025   ----------------------------------------
 .byte   W96
@  #04 @026   ----------------------------------------
 .byte   W96
@  #04 @027   ----------------------------------------
 .byte   W96
@  #04 @028   ----------------------------------------
 .byte   W96
@  #04 @029   ----------------------------------------
 .byte   W96
@  #04 @030   ----------------------------------------
 .byte   W96
@  #04 @031   ----------------------------------------
 .byte   W96
@  #04 @032   ----------------------------------------
 .byte   W96
@  #04 @033   ----------------------------------------
 .byte   W96
@  #04 @034   ----------------------------------------
 .byte   W96
@  #04 @035   ----------------------------------------
 .byte   W96
@  #04 @036   ----------------------------------------
 .byte   W96
@  #04 @037   ----------------------------------------
 .byte   W96
@  #04 @038   ----------------------------------------
 .byte   W96
@  #04 @039   ----------------------------------------
 .byte   W96
@  #04 @040   ----------------------------------------
 .byte   W96
@  #04 @041   ----------------------------------------
 .byte   W96
@  #04 @042   ----------------------------------------
 .byte   W96
@  #04 @043   ----------------------------------------
 .byte   W96
@  #04 @044   ----------------------------------------
 .byte   W96
@  #04 @045   ----------------------------------------
 .byte   W96
@  #04 @046   ----------------------------------------
 .byte   W96
@  #04 @047   ----------------------------------------
 .byte   W96
@  #04 @048   ----------------------------------------
 .byte   W96
@  #04 @049   ----------------------------------------
 .byte   W96
@  #04 @050   ----------------------------------------
 .byte   W96
@  #04 @051   ----------------------------------------
 .byte   VOICE , 46
 .byte   VOL , 17*song03B1_mvl/mxv
 .byte   PAN , c_v+0
 .byte   W96
@  #04 @052   ----------------------------------------
 .byte   N24 ,En4 ,v112
 .byte   W24
 .byte   Bn3
 .byte   W24
 .byte   En4
 .byte   W24
 .byte   Fs4
 .byte   W24
@  #04 @053   ----------------------------------------
 .byte   Gn4
 .byte   W24
 .byte   Bn3
 .byte   W24
 .byte   En4
 .byte   W24
 .byte   Fs4
 .byte   W24
@  #04 @054   ----------------------------------------
 .byte   Gn4
 .byte   W24
 .byte   An4
 .byte   W24
 .byte   Gn4
 .byte   W24
 .byte   Fs4
 .byte   W24
@  #04 @055   ----------------------------------------
 .byte   En4
 .byte   W24
 .byte   Dn4
 .byte   W24
 .byte   Cn4
 .byte   W24
 .byte   Bn3
 .byte   W24
@  #04 @056   ----------------------------------------
 .byte   Cn5
 .byte   W24
 .byte   Bn4
 .byte   W24
 .byte   An4
 .byte   W24
 .byte   Gn4
 .byte   W24
@  #04 @057   ----------------------------------------
 .byte   Fs4
 .byte   W24
 .byte   En4
 .byte   W24
 .byte   Dn4
 .byte   W24
 .byte   Cn4
 .byte   W24
@  #04 @058   ----------------------------------------
 .byte   Bn3
 .byte   W24
 .byte   Cn4
 .byte   W24
 .byte   Bn3
 .byte   W24
 .byte   An3
 .byte   W24
@  #04 @059   ----------------------------------------
 .byte   Bn3
 .byte   W24
 .byte   An3
 .byte   W24
 .byte   Gn3
 .byte   W24
 .byte   Fs3
 .byte   W24
@  #04 @060   ----------------------------------------
 .byte   W96
@  #04 @061   ----------------------------------------
 .byte   W96
@  #04 @062   ----------------------------------------
 .byte   W96
@  #04 @063   ----------------------------------------
 .byte   W96
@  #04 @064   ----------------------------------------
 .byte   W96
@  #04 @065   ----------------------------------------
 .byte   W96
@  #04 @066   ----------------------------------------
 .byte   W96
@  #04 @067   ----------------------------------------
 .byte   W96
@  #04 @068   ----------------------------------------
 .byte   W96
@  #04 @069   ----------------------------------------
 .byte   W96
@  #04 @070   ----------------------------------------
 .byte   W96
@  #04 @071   ----------------------------------------
 .byte   W96
@  #04 @072   ----------------------------------------
 .byte   W96
@  #04 @073   ----------------------------------------
 .byte   W96
@  #04 @074   ----------------------------------------
 .byte   VOICE , 48
 .byte   VOL , 21*song03B1_mvl/mxv
 .byte   PAN , c_v-4
 .byte   W96
@  #04 @075   ----------------------------------------
 .byte   W96
@  #04 @076   ----------------------------------------
 .byte   GOTO
  .word Label_01974CAA
@  #04 @077   ----------------------------------------
 .byte   VOICE , 48
 .byte   FINE

@**************** Track 5 (Midi-Chn.4) ****************@

song03B1_005:
@  #05 @000   ----------------------------------------
 .byte   KEYSH , song03B1_key+0
Label_01974EBE:
 .byte   VOICE , 42
 .byte   PAN , c_v-16
 .byte   VOL , 25*song03B1_mvl/mxv
 .byte   W96
@  #05 @001   ----------------------------------------
 .byte   W96
@  #05 @002   ----------------------------------------
 .byte   W96
@  #05 @003   ----------------------------------------
 .byte   W96
@  #05 @004   ----------------------------------------
 .byte   W96
@  #05 @005   ----------------------------------------
 .byte   W96
@  #05 @006   ----------------------------------------
 .byte   W96
@  #05 @007   ----------------------------------------
 .byte   W96
@  #05 @008   ----------------------------------------
 .byte   W96
@  #05 @009   ----------------------------------------
 .byte   W96
@  #05 @010   ----------------------------------------
 .byte   W96
@  #05 @011   ----------------------------------------
 .byte   W96
@  #05 @012   ----------------------------------------
 .byte   W96
@  #05 @013   ----------------------------------------
 .byte   W96
@  #05 @014   ----------------------------------------
 .byte   W96
@  #05 @015   ----------------------------------------
 .byte   W96
@  #05 @016   ----------------------------------------
 .byte   W96
@  #05 @017   ----------------------------------------
 .byte   W96
@  #05 @018   ----------------------------------------
 .byte   W96
@  #05 @019   ----------------------------------------
 .byte   W96
@  #05 @020   ----------------------------------------
 .byte   W96
@  #05 @021   ----------------------------------------
 .byte   W96
@  #05 @022   ----------------------------------------
 .byte   W96
@  #05 @023   ----------------------------------------
 .byte   W96
@  #05 @024   ----------------------------------------
 .byte   W96
@  #05 @025   ----------------------------------------
 .byte   W96
@  #05 @026   ----------------------------------------
 .byte   W96
@  #05 @027   ----------------------------------------
 .byte   W96
@  #05 @028   ----------------------------------------
 .byte   W96
@  #05 @029   ----------------------------------------
 .byte   W96
@  #05 @030   ----------------------------------------
 .byte   W96
@  #05 @031   ----------------------------------------
 .byte   W96
@  #05 @032   ----------------------------------------
 .byte   W96
@  #05 @033   ----------------------------------------
 .byte   W96
@  #05 @034   ----------------------------------------
 .byte   W96
@  #05 @035   ----------------------------------------
 .byte   W96
@  #05 @036   ----------------------------------------
 .byte   W96
@  #05 @037   ----------------------------------------
 .byte   W96
@  #05 @038   ----------------------------------------
 .byte   W96
@  #05 @039   ----------------------------------------
 .byte   W96
@  #05 @040   ----------------------------------------
 .byte   W96
@  #05 @041   ----------------------------------------
 .byte   W96
@  #05 @042   ----------------------------------------
 .byte   W96
@  #05 @043   ----------------------------------------
 .byte   N96 ,Cn2 ,v108
 .byte   W96
@  #05 @044   ----------------------------------------
Label_01974EF3:
 .byte   N48 ,En2 ,v108
 .byte   W48
 .byte   Gn2
 .byte   W48
 .byte   PEND 
@  #05 @045   ----------------------------------------
 .byte   Fs2
 .byte   W48
 .byte   Gn2
 .byte   W48
@  #05 @046   ----------------------------------------
 .byte   N96 ,En2
 .byte   W96
@  #05 @047   ----------------------------------------
 .byte   Cn2
 .byte   W96
@  #05 @048   ----------------------------------------
 .byte   PATT
  .word Label_01974EF3
@  #05 @049   ----------------------------------------
 .byte   N36 ,Ds2 ,v116
 .byte   W36
 .byte   En2
 .byte   W36
 .byte   N24 ,Fs2
 .byte   W24
@  #05 @050   ----------------------------------------
 .byte   N36
 .byte   W36
 .byte   Gn2
 .byte   W36
 .byte   N24 ,An2
 .byte   W24
@  #05 @051   ----------------------------------------
 .byte   W96
@  #05 @052   ----------------------------------------
 .byte   W96
@  #05 @053   ----------------------------------------
 .byte   W96
@  #05 @054   ----------------------------------------
 .byte   W96
@  #05 @055   ----------------------------------------
 .byte   W96
@  #05 @056   ----------------------------------------
 .byte   W96
@  #05 @057   ----------------------------------------
 .byte   W96
@  #05 @058   ----------------------------------------
 .byte   W96
@  #05 @059   ----------------------------------------
 .byte   W96
@  #05 @060   ----------------------------------------
 .byte   W96
@  #05 @061   ----------------------------------------
 .byte   W96
@  #05 @062   ----------------------------------------
 .byte   W96
@  #05 @063   ----------------------------------------
 .byte   W96
@  #05 @064   ----------------------------------------
 .byte   W96
@  #05 @065   ----------------------------------------
 .byte   W96
@  #05 @066   ----------------------------------------
 .byte   W96
@  #05 @067   ----------------------------------------
 .byte   W96
@  #05 @068   ----------------------------------------
 .byte   W96
@  #05 @069   ----------------------------------------
 .byte   W96
@  #05 @070   ----------------------------------------
 .byte   W96
@  #05 @071   ----------------------------------------
 .byte   W96
@  #05 @072   ----------------------------------------
 .byte   W96
@  #05 @073   ----------------------------------------
 .byte   W96
@  #05 @074   ----------------------------------------
 .byte   W96
@  #05 @075   ----------------------------------------
 .byte   W96
@  #05 @076   ----------------------------------------
 .byte   GOTO
  .word Label_01974EBE
@  #05 @077   ----------------------------------------
 .byte   VOICE , 42
 .byte   FINE

@**************** Track 6 (Midi-Chn.5) ****************@

song03B1_006:
@  #06 @000   ----------------------------------------
 .byte   KEYSH , song03B1_key+0
Label_01975B6E:
 .byte   W96
@  #06 @001   ----------------------------------------
 .byte   W96
@  #06 @002   ----------------------------------------
 .byte   W96
@  #06 @003   ----------------------------------------
 .byte   W96
@  #06 @004   ----------------------------------------
 .byte   W96
@  #06 @005   ----------------------------------------
 .byte   W96
@  #06 @006   ----------------------------------------
 .byte   W96
@  #06 @007   ----------------------------------------
 .byte   W96
@  #06 @008   ----------------------------------------
 .byte   W96
@  #06 @009   ----------------------------------------
 .byte   W96
@  #06 @010   ----------------------------------------
 .byte   W96
@  #06 @011   ----------------------------------------
 .byte   W96
@  #06 @012   ----------------------------------------
 .byte   W96
@  #06 @013   ----------------------------------------
 .byte   W96
@  #06 @014   ----------------------------------------
 .byte   W96
@  #06 @015   ----------------------------------------
 .byte   W96
@  #06 @016   ----------------------------------------
 .byte   W96
@  #06 @017   ----------------------------------------
 .byte   W96
@  #06 @018   ----------------------------------------
 .byte   W96
@  #06 @019   ----------------------------------------
 .byte   W96
@  #06 @020   ----------------------------------------
 .byte   W96
@  #06 @021   ----------------------------------------
 .byte   W96
@  #06 @022   ----------------------------------------
 .byte   W96
@  #06 @023   ----------------------------------------
 .byte   W96
@  #06 @024   ----------------------------------------
 .byte   W96
@  #06 @025   ----------------------------------------
 .byte   W96
@  #06 @026   ----------------------------------------
 .byte   W96
@  #06 @027   ----------------------------------------
 .byte   W96
@  #06 @028   ----------------------------------------
 .byte   W96
@  #06 @029   ----------------------------------------
 .byte   W96
@  #06 @030   ----------------------------------------
 .byte   W96
@  #06 @031   ----------------------------------------
 .byte   W96
@  #06 @032   ----------------------------------------
 .byte   W96
@  #06 @033   ----------------------------------------
 .byte   W96
@  #06 @034   ----------------------------------------
 .byte   W96
@  #06 @035   ----------------------------------------
 .byte   W96
@  #06 @036   ----------------------------------------
 .byte   W96
@  #06 @037   ----------------------------------------
 .byte   W96
@  #06 @038   ----------------------------------------
 .byte   W96
@  #06 @039   ----------------------------------------
 .byte   W96
@  #06 @040   ----------------------------------------
 .byte   W96
@  #06 @041   ----------------------------------------
 .byte   W96
@  #06 @042   ----------------------------------------
 .byte   W96
@  #06 @043   ----------------------------------------
 .byte   W96
@  #06 @044   ----------------------------------------
 .byte   W96
@  #06 @045   ----------------------------------------
 .byte   W96
@  #06 @046   ----------------------------------------
 .byte   W96
@  #06 @047   ----------------------------------------
 .byte   W96
@  #06 @048   ----------------------------------------
 .byte   W96
@  #06 @049   ----------------------------------------
 .byte   W96
@  #06 @050   ----------------------------------------
 .byte   W96
@  #06 @051   ----------------------------------------
 .byte   VOICE , 46
 .byte   VOL , 21*song03B1_mvl/mxv
 .byte   PAN , c_v+0
 .byte   W96
@  #06 @052   ----------------------------------------
 .byte   W18
 .byte   N24 ,En4 ,v088
 .byte   W24
 .byte   Bn3
 .byte   W24
 .byte   En4
 .byte   W24
 .byte   Fs4
 .byte   W06
@  #06 @053   ----------------------------------------
 .byte   W18
 .byte   Gn4
 .byte   W24
 .byte   Bn3
 .byte   W24
 .byte   En4
 .byte   W24
 .byte   Fs4
 .byte   W06
@  #06 @054   ----------------------------------------
 .byte   W18
 .byte   Gn4
 .byte   W24
 .byte   An4
 .byte   W24
 .byte   Gn4
 .byte   W24
 .byte   Fs4
 .byte   W06
@  #06 @055   ----------------------------------------
 .byte   W18
 .byte   En4
 .byte   W24
 .byte   Dn4
 .byte   W24
 .byte   Cn4
 .byte   W24
 .byte   Bn3
 .byte   W06
@  #06 @056   ----------------------------------------
 .byte   W18
 .byte   Cn5
 .byte   W24
 .byte   Bn4
 .byte   W24
 .byte   An4
 .byte   W24
 .byte   Gn4
 .byte   W06
@  #06 @057   ----------------------------------------
 .byte   W18
 .byte   Fs4
 .byte   W24
 .byte   En4
 .byte   W24
 .byte   Dn4
 .byte   W24
 .byte   Cn4
 .byte   W06
@  #06 @058   ----------------------------------------
 .byte   W18
 .byte   Bn3
 .byte   W24
 .byte   Cn4
 .byte   W24
 .byte   Bn3
 .byte   W24
 .byte   An3
 .byte   W06
@  #06 @059   ----------------------------------------
 .byte   W18
 .byte   Bn3
 .byte   W24
 .byte   An3
 .byte   W24
 .byte   Gn3
 .byte   W24
 .byte   Fs3
 .byte   W06
@  #06 @060   ----------------------------------------
 .byte   W96
@  #06 @061   ----------------------------------------
 .byte   W96
@  #06 @062   ----------------------------------------
 .byte   W96
@  #06 @063   ----------------------------------------
 .byte   W96
@  #06 @064   ----------------------------------------
 .byte   W96
@  #06 @065   ----------------------------------------
 .byte   W96
@  #06 @066   ----------------------------------------
 .byte   W96
@  #06 @067   ----------------------------------------
 .byte   W96
@  #06 @068   ----------------------------------------
 .byte   VOICE , 68
 .byte   W96
@  #06 @069   ----------------------------------------
 .byte   N36 ,En4 ,v108
 .byte   W36
 .byte   Fs4
 .byte   W36
 .byte   N03 ,Gn4 ,v116
 .byte   W03
 .byte   Fs4
 .byte   W03
 .byte   N18 ,Gn4 ,v108
 .byte   W18
@  #06 @070   ----------------------------------------
 .byte   N96 ,An4
 .byte   W96
@  #06 @071   ----------------------------------------
 .byte   N36 ,Cn5
 .byte   W36
 .byte   Bn4
 .byte   W36
 .byte   N24 ,An4
 .byte   W24
@  #06 @072   ----------------------------------------
 .byte   N36 ,Bn4
 .byte   W36
 .byte   Gn4
 .byte   W36
 .byte   N24 ,En4
 .byte   W24
@  #06 @073   ----------------------------------------
 .byte   N36
 .byte   W36
 .byte   Gn4
 .byte   W36
 .byte   N24 ,Bn4
 .byte   W24
@  #06 @074   ----------------------------------------
 .byte   N96 ,An4 ,v096
 .byte   W96
@  #06 @075   ----------------------------------------
 .byte   W96
@  #06 @076   ----------------------------------------
 .byte   GOTO
  .word Label_01975B6E
 .byte   FINE

@**************** Track 7 (Midi-Chn.6) ****************@

song03B1_007:
@  #07 @000   ----------------------------------------
 .byte   KEYSH , song03B1_key+0
Label_019758E2:
 .byte   VOICE , 40
 .byte   PAN , c_v-8
 .byte   VOL , 27*song03B1_mvl/mxv
 .byte   N12 ,En1 ,v127
 .byte   W12
 .byte   N12
 .byte   W24
 .byte   N12
 .byte   W24
 .byte   N12
 .byte   W24
 .byte   N12
 .byte   W12
@  #07 @001   ----------------------------------------
Label_019758F4:
 .byte   N12 ,En1 ,v127
 .byte   W12
 .byte   N12
 .byte   W24
 .byte   N12
 .byte   W24
 .byte   N12
 .byte   W24
 .byte   N12
 .byte   W12
 .byte   PEND 
@  #07 @002   ----------------------------------------
 .byte   PATT
  .word Label_019758F4
@  #07 @003   ----------------------------------------
 .byte   PATT
  .word Label_019758F4
@  #07 @004   ----------------------------------------
 .byte   PATT
  .word Label_019758F4
@  #07 @005   ----------------------------------------
 .byte   PATT
  .word Label_019758F4
@  #07 @006   ----------------------------------------
 .byte   PATT
  .word Label_019758F4
@  #07 @007   ----------------------------------------
 .byte   PATT
  .word Label_019758F4
@  #07 @008   ----------------------------------------
 .byte   PATT
  .word Label_019758F4
@  #07 @009   ----------------------------------------
 .byte   PATT
  .word Label_019758F4
@  #07 @010   ----------------------------------------
 .byte   PATT
  .word Label_019758F4
@  #07 @011   ----------------------------------------
 .byte   PATT
  .word Label_019758F4
@  #07 @012   ----------------------------------------
 .byte   PATT
  .word Label_019758F4
@  #07 @013   ----------------------------------------
 .byte   PATT
  .word Label_019758F4
@  #07 @014   ----------------------------------------
 .byte   PATT
  .word Label_019758F4
@  #07 @015   ----------------------------------------
 .byte   PATT
  .word Label_019758F4
@  #07 @016   ----------------------------------------
 .byte   PATT
  .word Label_019758F4
@  #07 @017   ----------------------------------------
 .byte   PATT
  .word Label_019758F4
@  #07 @018   ----------------------------------------
 .byte   PATT
  .word Label_019758F4
@  #07 @019   ----------------------------------------
 .byte   PATT
  .word Label_019758F4
@  #07 @020   ----------------------------------------
Label_0197595B:
 .byte   N12 ,Cn1 ,v127
 .byte   W12
 .byte   N12
 .byte   W24
 .byte   N12
 .byte   W24
 .byte   N12
 .byte   W24
 .byte   N12
 .byte   W12
 .byte   PEND 
@  #07 @021   ----------------------------------------
 .byte   PATT
  .word Label_0197595B
@  #07 @022   ----------------------------------------
 .byte   PATT
  .word Label_0197595B
@  #07 @023   ----------------------------------------
 .byte   PATT
  .word Label_0197595B
@  #07 @024   ----------------------------------------
 .byte   PATT
  .word Label_019758F4
@  #07 @025   ----------------------------------------
 .byte   PATT
  .word Label_019758F4
@  #07 @026   ----------------------------------------
 .byte   PATT
  .word Label_019758F4
@  #07 @027   ----------------------------------------
 .byte   PATT
  .word Label_019758F4
@  #07 @028   ----------------------------------------
 .byte   PATT
  .word Label_019758F4
@  #07 @029   ----------------------------------------
 .byte   PATT
  .word Label_019758F4
@  #07 @030   ----------------------------------------
 .byte   PATT
  .word Label_019758F4
@  #07 @031   ----------------------------------------
 .byte   PATT
  .word Label_019758F4
@  #07 @032   ----------------------------------------
 .byte   PATT
  .word Label_019758F4
@  #07 @033   ----------------------------------------
 .byte   PATT
  .word Label_019758F4
@  #07 @034   ----------------------------------------
 .byte   PATT
  .word Label_019758F4
@  #07 @035   ----------------------------------------
 .byte   PATT
  .word Label_019758F4
@  #07 @036   ----------------------------------------
 .byte   PATT
  .word Label_0197595B
@  #07 @037   ----------------------------------------
 .byte   PATT
  .word Label_0197595B
@  #07 @038   ----------------------------------------
Label_019759BD:
 .byte   N12 ,Fn1 ,v127
 .byte   W12
 .byte   N12
 .byte   W24
 .byte   N12
 .byte   W24
 .byte   N12
 .byte   W24
 .byte   N12
 .byte   W12
 .byte   PEND 
@  #07 @039   ----------------------------------------
 .byte   PATT
  .word Label_019759BD
@  #07 @040   ----------------------------------------
 .byte   PATT
  .word Label_019758F4
@  #07 @041   ----------------------------------------
 .byte   PATT
  .word Label_019758F4
@  #07 @042   ----------------------------------------
 .byte   PATT
  .word Label_019758F4
@  #07 @043   ----------------------------------------
 .byte   PATT
  .word Label_019758F4
@  #07 @044   ----------------------------------------
 .byte   PATT
  .word Label_0197595B
@  #07 @045   ----------------------------------------
 .byte   PATT
  .word Label_0197595B
@  #07 @046   ----------------------------------------
 .byte   PATT
  .word Label_019758F4
@  #07 @047   ----------------------------------------
 .byte   PATT
  .word Label_019758F4
@  #07 @048   ----------------------------------------
 .byte   PATT
  .word Label_0197595B
@  #07 @049   ----------------------------------------
 .byte   PATT
  .word Label_0197595B
@  #07 @050   ----------------------------------------
 .byte   N36 ,Bn0 ,v127
 .byte   W36
 .byte   Cs1
 .byte   W36
 .byte   N24 ,Ds1
 .byte   W24
@  #07 @051   ----------------------------------------
 .byte   N36
 .byte   W36
 .byte   En1
 .byte   W36
 .byte   N24 ,Fs1
 .byte   W24
@  #07 @052   ----------------------------------------
Label_01975A11:
 .byte   N12 ,En1 ,v120
 .byte   W24
 .byte   N12
 .byte   W72
 .byte   PEND 
@  #07 @053   ----------------------------------------
 .byte   PATT
  .word Label_01975A11
@  #07 @054   ----------------------------------------
Label_01975A1D:
 .byte   N12 ,Fs1 ,v120
 .byte   W24
 .byte   N12
 .byte   W72
 .byte   PEND 
@  #07 @055   ----------------------------------------
 .byte   PATT
  .word Label_01975A1D
@  #07 @056   ----------------------------------------
Label_01975A29:
 .byte   N12 ,An0 ,v120
 .byte   W24
 .byte   N12
 .byte   W72
 .byte   PEND 
@  #07 @057   ----------------------------------------
 .byte   PATT
  .word Label_01975A29
@  #07 @058   ----------------------------------------
Label_01975A35:
 .byte   N12 ,Bn0 ,v120
 .byte   W24
 .byte   N12
 .byte   W72
 .byte   PEND 
@  #07 @059   ----------------------------------------
 .byte   PATT
  .word Label_01975A35
@  #07 @060   ----------------------------------------
 .byte   PATT
  .word Label_019758F4
@  #07 @061   ----------------------------------------
 .byte   PATT
  .word Label_019758F4
@  #07 @062   ----------------------------------------
 .byte   PATT
  .word Label_019759BD
@  #07 @063   ----------------------------------------
Label_01975A50:
 .byte   N12 ,Dn1 ,v127
 .byte   W12
 .byte   N12
 .byte   W24
 .byte   N12
 .byte   W24
 .byte   N12
 .byte   W24
 .byte   N12
 .byte   W12
 .byte   PEND 
@  #07 @064   ----------------------------------------
 .byte   PATT
  .word Label_019758F4
@  #07 @065   ----------------------------------------
 .byte   PATT
  .word Label_019758F4
@  #07 @066   ----------------------------------------
 .byte   PATT
  .word Label_019759BD
@  #07 @067   ----------------------------------------
 .byte   PATT
  .word Label_01975A50
@  #07 @068   ----------------------------------------
 .byte   PATT
  .word Label_019758F4
@  #07 @069   ----------------------------------------
 .byte   PATT
  .word Label_019758F4
@  #07 @070   ----------------------------------------
 .byte   PATT
  .word Label_019759BD
@  #07 @071   ----------------------------------------
 .byte   PATT
  .word Label_01975A50
@  #07 @072   ----------------------------------------
 .byte   PATT
  .word Label_019758F4
@  #07 @073   ----------------------------------------
 .byte   PATT
  .word Label_019758F4
@  #07 @074   ----------------------------------------
 .byte   PATT
  .word Label_019759BD
@  #07 @075   ----------------------------------------
 .byte   PATT
  .word Label_01975A50
@  #07 @076   ----------------------------------------
 .byte   GOTO
  .word Label_019758E2
@  #07 @077   ----------------------------------------
 .byte   VOICE , 40
 .byte   FINE

@**************** Track 8 (Midi-Chn.7) ****************@

song03B1_008:
@  #08 @000   ----------------------------------------
 .byte   KEYSH , song03B1_key+0
Label_0197510A:
 .byte   VOICE , 52
 .byte   PAN , c_v-16
 .byte   VOL , 21*song03B1_mvl/mxv
 .byte   W96
@  #08 @001   ----------------------------------------
 .byte   W96
@  #08 @002   ----------------------------------------
 .byte   W96
@  #08 @003   ----------------------------------------
 .byte   W96
@  #08 @004   ----------------------------------------
 .byte   W96
@  #08 @005   ----------------------------------------
 .byte   W96
@  #08 @006   ----------------------------------------
 .byte   W96
@  #08 @007   ----------------------------------------
 .byte   W96
@  #08 @008   ----------------------------------------
 .byte   W96
@  #08 @009   ----------------------------------------
 .byte   W96
@  #08 @010   ----------------------------------------
 .byte   W96
@  #08 @011   ----------------------------------------
 .byte   W96
@  #08 @012   ----------------------------------------
 .byte   W96
@  #08 @013   ----------------------------------------
 .byte   W96
@  #08 @014   ----------------------------------------
 .byte   W96
@  #08 @015   ----------------------------------------
 .byte   W96
@  #08 @016   ----------------------------------------
 .byte   W96
@  #08 @017   ----------------------------------------
 .byte   W96
@  #08 @018   ----------------------------------------
 .byte   W96
@  #08 @019   ----------------------------------------
 .byte   W96
@  #08 @020   ----------------------------------------
 .byte   W96
@  #08 @021   ----------------------------------------
 .byte   W96
@  #08 @022   ----------------------------------------
 .byte   W96
@  #08 @023   ----------------------------------------
 .byte   W96
@  #08 @024   ----------------------------------------
 .byte   W96
@  #08 @025   ----------------------------------------
 .byte   W96
@  #08 @026   ----------------------------------------
 .byte   W96
@  #08 @027   ----------------------------------------
 .byte   W96
@  #08 @028   ----------------------------------------
 .byte   W96
@  #08 @029   ----------------------------------------
 .byte   W96
@  #08 @030   ----------------------------------------
 .byte   W96
@  #08 @031   ----------------------------------------
 .byte   W96
@  #08 @032   ----------------------------------------
 .byte   W96
@  #08 @033   ----------------------------------------
 .byte   W96
@  #08 @034   ----------------------------------------
 .byte   W96
@  #08 @035   ----------------------------------------
 .byte   W96
@  #08 @036   ----------------------------------------
 .byte   W96
@  #08 @037   ----------------------------------------
 .byte   W96
@  #08 @038   ----------------------------------------
 .byte   W96
@  #08 @039   ----------------------------------------
 .byte   W96
@  #08 @040   ----------------------------------------
 .byte   W96
@  #08 @041   ----------------------------------------
 .byte   W96
@  #08 @042   ----------------------------------------
 .byte   W96
@  #08 @043   ----------------------------------------
 .byte   W96
@  #08 @044   ----------------------------------------
 .byte   W96
@  #08 @045   ----------------------------------------
 .byte   W96
@  #08 @046   ----------------------------------------
 .byte   W96
@  #08 @047   ----------------------------------------
 .byte   W96
@  #08 @048   ----------------------------------------
 .byte   W96
@  #08 @049   ----------------------------------------
 .byte   W96
@  #08 @050   ----------------------------------------
 .byte   W96
@  #08 @051   ----------------------------------------
 .byte   W96
@  #08 @052   ----------------------------------------
 .byte   TIE ,En2 ,v100
 .byte   TIE ,En4 ,v092
 .byte   TIE ,Bn4 ,v100
 .byte   W96
@  #08 @053   ----------------------------------------
 .byte   W96
@  #08 @054   ----------------------------------------
 .byte   EOT
 .byte   En2 ,v083
 .byte   TIE ,Fs2
 .byte   N96 ,Cn5
 .byte   W96
@  #08 @055   ----------------------------------------
 .byte   An4
 .byte   W96
@  #08 @056   ----------------------------------------
 .byte   EOT
 .byte   Fs2 ,v076
 .byte   TIE ,An2
 .byte   TIE ,Fs4 ,v092
 .byte   TIE ,An4 ,v100
 .byte   W96
@  #08 @057   ----------------------------------------
 .byte   W96
@  #08 @058   ----------------------------------------
 .byte   EOT
 .byte   An2 ,v078
 .byte   An4
 .byte   N96 ,Bn2
 .byte   TIE ,Bn3 ,v092
 .byte   N96 ,Gn4 ,v100
 .byte   W90
 .byte   Fs4
 .byte   W06
@  #08 @059   ----------------------------------------
 .byte   Bn1
 .byte   W96
@  #08 @060   ----------------------------------------
 .byte   EOT
 .byte   Bn3
 .byte   W96
@  #08 @061   ----------------------------------------
 .byte   W96
@  #08 @062   ----------------------------------------
 .byte   W96
@  #08 @063   ----------------------------------------
 .byte   W96
@  #08 @064   ----------------------------------------
 .byte   W96
@  #08 @065   ----------------------------------------
 .byte   W96
@  #08 @066   ----------------------------------------
 .byte   W96
@  #08 @067   ----------------------------------------
 .byte   W96
@  #08 @068   ----------------------------------------
 .byte   W96
@  #08 @069   ----------------------------------------
 .byte   W96
@  #08 @070   ----------------------------------------
 .byte   W96
@  #08 @071   ----------------------------------------
 .byte   W96
@  #08 @072   ----------------------------------------
 .byte   W96
@  #08 @073   ----------------------------------------
 .byte   W96
@  #08 @074   ----------------------------------------
 .byte   W96
@  #08 @075   ----------------------------------------
 .byte   W96
@  #08 @076   ----------------------------------------
 .byte   GOTO
  .word Label_0197510A
@  #08 @077   ----------------------------------------
 .byte   VOICE , 52
 .byte   FINE

@**************** Track 9 (Midi-Chn.8) ****************@

song03B1_009:
@  #09 @000   ----------------------------------------
 .byte   KEYSH , song03B1_key+0
Label_019ACEAE:
 .byte   VOICE , 127
 .byte   VOL , 22*song03B1_mvl/mxv
 .byte   PAN , c_v+0
 .byte   N12 ,Dn1 ,v064
 .byte   W12
 .byte   N06 ,Dn1 ,v088
 .byte   W06
 .byte   Dn1 ,v076
 .byte   W06
 .byte   N12 ,Dn1 ,v092
 .byte   W12
 .byte   Dn1 ,v088
 .byte   W12
 .byte   N06 ,Dn1 ,v080
 .byte   W06
 .byte   Dn1 ,v076
 .byte   W06
 .byte   N12 ,Dn1 ,v092
 .byte   W12
 .byte   N06 ,Dn1 ,v088
 .byte   W06
 .byte   Dn1 ,v080
 .byte   W06
 .byte   N12 ,Dn1 ,v076
 .byte   W12
@  #09 @001   ----------------------------------------
Label_019ACEDC:
 .byte   N12 ,Dn1 ,v092
 .byte   W12
 .byte   N06 ,Dn1 ,v088
 .byte   W06
 .byte   Dn1 ,v076
 .byte   W06
 .byte   N12 ,Dn1 ,v092
 .byte   W12
 .byte   Dn1 ,v088
 .byte   W12
 .byte   N06 ,Dn1 ,v080
 .byte   W06
 .byte   Dn1 ,v076
 .byte   W06
 .byte   N12 ,Dn1 ,v092
 .byte   W12
 .byte   N06 ,Dn1 ,v088
 .byte   W06
 .byte   Dn1 ,v080
 .byte   W06
 .byte   Dn1 ,v076
 .byte   W06
 .byte   Dn1 ,v092
 .byte   W06
 .byte   PEND 
@  #09 @002   ----------------------------------------
 .byte   N12 ,Dn1 ,v076
 .byte   W12
 .byte   N06 ,Dn1 ,v088
 .byte   W06
 .byte   Dn1 ,v076
 .byte   W06
 .byte   N12 ,Dn1 ,v092
 .byte   W12
 .byte   Dn1 ,v088
 .byte   W12
 .byte   N06 ,Dn1 ,v080
 .byte   W06
 .byte   Dn1 ,v076
 .byte   W06
 .byte   N12 ,Dn1 ,v092
 .byte   W12
 .byte   N06 ,Dn1 ,v088
 .byte   W06
 .byte   Dn1 ,v080
 .byte   W06
 .byte   N12 ,Dn1 ,v076
 .byte   W12
@  #09 @003   ----------------------------------------
 .byte   PATT
  .word Label_019ACEDC
@  #09 @004   ----------------------------------------
Label_019ACF34:
 .byte   N12 ,Dn1 ,v096
 .byte   W12
 .byte   N06
 .byte   W06
 .byte   N06
 .byte   W06
 .byte   N12 ,Dn1 ,v092
 .byte   W12
 .byte   Dn1 ,v080
 .byte   W12
 .byte   N06 ,Dn1 ,v088
 .byte   W06
 .byte   Dn1 ,v080
 .byte   W06
 .byte   N12 ,Dn1 ,v096
 .byte   W12
 .byte   N06 ,Dn1 ,v092
 .byte   W06
 .byte   Dn1 ,v088
 .byte   W06
 .byte   N12 ,Dn1 ,v080
 .byte   W12
 .byte   PEND 
@  #09 @005   ----------------------------------------
Label_019ACF5A:
 .byte   N12 ,Dn1 ,v076
 .byte   W12
 .byte   N06 ,Dn1 ,v092
 .byte   W06
 .byte   Dn1 ,v088
 .byte   W06
 .byte   N12 ,Dn1 ,v076
 .byte   W12
 .byte   Dn1 ,v092
 .byte   W12
 .byte   N06 ,Dn1 ,v088
 .byte   W06
 .byte   Dn1 ,v080
 .byte   W06
 .byte   N12 ,Dn1 ,v076
 .byte   W12
 .byte   N06 ,Dn1 ,v092
 .byte   W06
 .byte   Dn1 ,v088
 .byte   W06
 .byte   Dn1 ,v080
 .byte   W06
 .byte   Dn1 ,v076
 .byte   W06
 .byte   PEND 
@  #09 @006   ----------------------------------------
Label_019ACF85:
 .byte   N12 ,Dn1 ,v092
 .byte   W12
 .byte   N06 ,Dn1 ,v076
 .byte   W06
 .byte   Dn1 ,v088
 .byte   W06
 .byte   N12 ,Dn1 ,v076
 .byte   W12
 .byte   Dn1 ,v092
 .byte   W12
 .byte   N06 ,Dn1 ,v088
 .byte   W06
 .byte   Dn1 ,v080
 .byte   W06
 .byte   N12 ,Dn1 ,v076
 .byte   W12
 .byte   N06 ,Dn1 ,v092
 .byte   W06
 .byte   Dn1 ,v088
 .byte   W06
 .byte   N12 ,Dn1 ,v080
 .byte   W12
 .byte   PEND 
@  #09 @007   ----------------------------------------
 .byte   PATT
  .word Label_019ACF5A
@  #09 @008   ----------------------------------------
 .byte   PATT
  .word Label_019ACF85
@  #09 @009   ----------------------------------------
 .byte   PATT
  .word Label_019ACF5A
@  #09 @010   ----------------------------------------
 .byte   N12 ,Dn1 ,v092
 .byte   N96 ,Gn2 ,v100
 .byte   W12
 .byte   N06 ,Dn1 ,v076
 .byte   W06
 .byte   Dn1 ,v088
 .byte   W06
 .byte   N12 ,Dn1 ,v076
 .byte   W12
 .byte   Dn1 ,v092
 .byte   W12
 .byte   N06 ,Dn1 ,v088
 .byte   W06
 .byte   Dn1 ,v080
 .byte   W06
 .byte   N12 ,Dn1 ,v076
 .byte   W12
 .byte   N06 ,Dn1 ,v092
 .byte   W06
 .byte   Dn1 ,v088
 .byte   W06
 .byte   N12 ,Dn1 ,v080
 .byte   W12
@  #09 @011   ----------------------------------------
 .byte   Dn1 ,v076
 .byte   N96 ,An2 ,v127
 .byte   W12
 .byte   N06 ,Dn1 ,v092
 .byte   W06
 .byte   Dn1 ,v088
 .byte   W06
 .byte   N12 ,Dn1 ,v076
 .byte   W12
 .byte   Dn1 ,v092
 .byte   W12
 .byte   N06 ,Dn1 ,v088
 .byte   W06
 .byte   Dn1 ,v080
 .byte   W06
 .byte   Dn1 ,v076
 .byte   W06
 .byte   Dn1 ,v092
 .byte   W06
 .byte   Dn1 ,v088
 .byte   W06
 .byte   Dn1 ,v080
 .byte   W06
 .byte   Dn1 ,v076
 .byte   W06
 .byte   Dn1 ,v092
 .byte   W06
@  #09 @012   ----------------------------------------
 .byte   N12 ,Dn1 ,v096
 .byte   N96 ,Cs2 ,v127
 .byte   W12
 .byte   N06 ,Dn1 ,v096
 .byte   W06
 .byte   N06
 .byte   W06
 .byte   N12 ,Dn1 ,v092
 .byte   W12
 .byte   Dn1 ,v080
 .byte   W12
 .byte   N06 ,Dn1 ,v088
 .byte   W06
 .byte   Dn1 ,v080
 .byte   W06
 .byte   N12 ,Dn1 ,v096
 .byte   W12
 .byte   N06 ,Dn1 ,v092
 .byte   W06
 .byte   Dn1 ,v088
 .byte   W06
 .byte   N12 ,Dn1 ,v080
 .byte   W12
@  #09 @013   ----------------------------------------
 .byte   PATT
  .word Label_019ACF5A
@  #09 @014   ----------------------------------------
 .byte   PATT
  .word Label_019ACF85
@  #09 @015   ----------------------------------------
 .byte   PATT
  .word Label_019ACF5A
@  #09 @016   ----------------------------------------
 .byte   PATT
  .word Label_019ACF85
@  #09 @017   ----------------------------------------
 .byte   PATT
  .word Label_019ACF5A
@  #09 @018   ----------------------------------------
 .byte   PATT
  .word Label_019ACF85
@  #09 @019   ----------------------------------------
 .byte   PATT
  .word Label_019ACF5A
@  #09 @020   ----------------------------------------
 .byte   N12 ,Dn1 ,v092
 .byte   W12
 .byte   N06
 .byte   W06
 .byte   Dn1 ,v080
 .byte   W06
 .byte   N12 ,Dn1 ,v072
 .byte   W12
 .byte   Dn1 ,v076
 .byte   W12
 .byte   N06 ,Dn1 ,v080
 .byte   W06
 .byte   Dn1 ,v072
 .byte   W06
 .byte   N12 ,Dn1 ,v068
 .byte   W12
 .byte   N06 ,Dn1 ,v060
 .byte   W06
 .byte   Dn1 ,v052
 .byte   W06
 .byte   N12
 .byte   W12
@  #09 @021   ----------------------------------------
 .byte   Dn1 ,v072
 .byte   W12
 .byte   N06
 .byte   W06
 .byte   Dn1 ,v068
 .byte   W06
 .byte   N12 ,Dn1 ,v060
 .byte   W12
 .byte   Dn1 ,v072
 .byte   W12
 .byte   N06 ,Dn1 ,v068
 .byte   W06
 .byte   Dn1 ,v060
 .byte   W06
 .byte   N12 ,Dn1 ,v068
 .byte   W12
 .byte   N06 ,Dn1 ,v072
 .byte   W06
 .byte   N06
 .byte   W06
 .byte   Dn1 ,v068
 .byte   W06
 .byte   Dn1 ,v072
 .byte   W06
@  #09 @022   ----------------------------------------
 .byte   N12 ,Dn1 ,v068
 .byte   TIE ,An2 ,v127
 .byte   W12
 .byte   N06 ,Dn1 ,v060
 .byte   W06
 .byte   Dn1 ,v052
 .byte   W06
 .byte   N12
 .byte   W12
 .byte   Dn1 ,v072
 .byte   W12
 .byte   N06
 .byte   W06
 .byte   Dn1 ,v068
 .byte   W06
 .byte   N12 ,Dn1 ,v060
 .byte   W12
 .byte   N06 ,Dn1 ,v072
 .byte   W06
 .byte   Dn1 ,v068
 .byte   W06
 .byte   N12 ,Dn1 ,v060
 .byte   W12
@  #09 @023   ----------------------------------------
 .byte   Dn1 ,v068
 .byte   W12
 .byte   N06 ,Dn1 ,v072
 .byte   W06
 .byte   N06
 .byte   W06
 .byte   N12 ,Dn1 ,v068
 .byte   W12
 .byte   Dn1 ,v072
 .byte   W12
 .byte   N06 ,Dn1 ,v068
 .byte   W06
 .byte   Dn1 ,v060
 .byte   W06
 .byte   Dn1 ,v052
 .byte   W06
 .byte   N06
 .byte   W06
 .byte   Dn1 ,v072
 .byte   W06
 .byte   N06
 .byte   W06
 .byte   Dn1 ,v068
 .byte   W06
 .byte   Dn1 ,v060
 .byte   W06
@  #09 @024   ----------------------------------------
 .byte   EOT
 .byte   An2
 .byte   N12 ,Dn1 ,v072
 .byte   N96 ,Cs2 ,v127
 .byte   W12
 .byte   N06 ,Dn1 ,v068
 .byte   W06
 .byte   Dn1 ,v060
 .byte   W06
 .byte   N12 ,Dn1 ,v068
 .byte   W12
 .byte   Dn1 ,v072
 .byte   W12
 .byte   N06
 .byte   W06
 .byte   Dn1 ,v068
 .byte   W06
 .byte   N12 ,Dn1 ,v072
 .byte   W12
 .byte   N06 ,Dn1 ,v068
 .byte   W06
 .byte   Dn1 ,v060
 .byte   W06
 .byte   N12 ,Dn1 ,v052
 .byte   W12
@  #09 @025   ----------------------------------------
 .byte   N12
 .byte   W12
 .byte   N06 ,Dn1 ,v072
 .byte   W06
 .byte   N06
 .byte   W06
 .byte   N12 ,Dn1 ,v068
 .byte   W12
 .byte   Dn1 ,v060
 .byte   W12
 .byte   N06 ,Dn1 ,v072
 .byte   W06
 .byte   Dn1 ,v068
 .byte   W06
 .byte   N12 ,Dn1 ,v060
 .byte   W12
 .byte   N06 ,Dn1 ,v068
 .byte   W06
 .byte   Dn1 ,v072
 .byte   W06
 .byte   Dn1 ,v096
 .byte   W06
 .byte   N06
 .byte   W06
@  #09 @026   ----------------------------------------
Label_019AD14B:
 .byte   N12 ,Dn1 ,v096
 .byte   W12
 .byte   N06 ,Dn1 ,v092
 .byte   W06
 .byte   Dn1 ,v080
 .byte   W06
 .byte   N12 ,Dn1 ,v088
 .byte   W12
 .byte   Dn1 ,v080
 .byte   W12
 .byte   N06 ,Dn1 ,v096
 .byte   W06
 .byte   Dn1 ,v092
 .byte   W06
 .byte   N12 ,Dn1 ,v088
 .byte   W12
 .byte   N06 ,Dn1 ,v080
 .byte   W06
 .byte   Dn1 ,v076
 .byte   W06
 .byte   N12 ,Dn1 ,v092
 .byte   W12
 .byte   PEND 
@  #09 @027   ----------------------------------------
Label_019AD174:
 .byte   N12 ,Dn1 ,v088
 .byte   W12
 .byte   N06 ,Dn1 ,v076
 .byte   W06
 .byte   Dn1 ,v092
 .byte   W06
 .byte   N12 ,Dn1 ,v088
 .byte   W12
 .byte   Dn1 ,v080
 .byte   W12
 .byte   N06 ,Dn1 ,v076
 .byte   W06
 .byte   Dn1 ,v092
 .byte   W06
 .byte   Dn1 ,v088
 .byte   W06
 .byte   Dn1 ,v080
 .byte   W06
 .byte   Dn1 ,v076
 .byte   W06
 .byte   Dn1 ,v092
 .byte   W06
 .byte   Dn1 ,v076
 .byte   W06
 .byte   Dn1 ,v088
 .byte   W06
 .byte   PEND 
@  #09 @028   ----------------------------------------
Label_019AD1A0:
 .byte   N12 ,Dn1 ,v076
 .byte   N96 ,Cs2 ,v127
 .byte   W12
 .byte   N06 ,Dn1 ,v092
 .byte   W06
 .byte   Dn1 ,v088
 .byte   W06
 .byte   N12 ,Dn1 ,v080
 .byte   W12
 .byte   Dn1 ,v076
 .byte   W12
 .byte   N06 ,Dn1 ,v092
 .byte   W06
 .byte   Dn1 ,v088
 .byte   W06
 .byte   N12 ,Dn1 ,v080
 .byte   W12
 .byte   N06 ,Dn1 ,v076
 .byte   W06
 .byte   Dn1 ,v092
 .byte   W06
 .byte   N12 ,Dn1 ,v088
 .byte   W12
 .byte   PEND 
@  #09 @029   ----------------------------------------
Label_019AD1CC:
 .byte   N12 ,Dn1 ,v076
 .byte   W12
 .byte   N06 ,Dn1 ,v092
 .byte   W06
 .byte   Dn1 ,v088
 .byte   W06
 .byte   N12 ,Dn1 ,v080
 .byte   W12
 .byte   Dn1 ,v076
 .byte   W12
 .byte   N06 ,Dn1 ,v092
 .byte   W06
 .byte   Dn1 ,v088
 .byte   W06
 .byte   N12 ,Dn1 ,v080
 .byte   W12
 .byte   N06 ,Dn1 ,v076
 .byte   W06
 .byte   Dn1 ,v092
 .byte   W06
 .byte   Dn1 ,v076
 .byte   W06
 .byte   Dn1 ,v088
 .byte   W06
 .byte   PEND 
@  #09 @030   ----------------------------------------
Label_019AD1F7:
 .byte   N12 ,Dn1 ,v076
 .byte   W12
 .byte   N06 ,Dn1 ,v092
 .byte   W06
 .byte   Dn1 ,v088
 .byte   W06
 .byte   N12 ,Dn1 ,v080
 .byte   W12
 .byte   Dn1 ,v076
 .byte   W12
 .byte   N06 ,Dn1 ,v092
 .byte   W06
 .byte   Dn1 ,v088
 .byte   W06
 .byte   N12 ,Dn1 ,v080
 .byte   W12
 .byte   N06 ,Dn1 ,v076
 .byte   W06
 .byte   Dn1 ,v092
 .byte   W06
 .byte   N12 ,Dn1 ,v088
 .byte   W12
 .byte   PEND 
@  #09 @031   ----------------------------------------
 .byte   PATT
  .word Label_019AD1CC
@  #09 @032   ----------------------------------------
 .byte   PATT
  .word Label_019AD1F7
@  #09 @033   ----------------------------------------
 .byte   N12 ,Dn1 ,v076
 .byte   W12
 .byte   N06 ,Dn1 ,v092
 .byte   W06
 .byte   Dn1 ,v088
 .byte   W06
 .byte   N12 ,Dn1 ,v080
 .byte   W12
 .byte   Dn1 ,v076
 .byte   W12
 .byte   N06 ,Dn1 ,v092
 .byte   W06
 .byte   Dn1 ,v088
 .byte   W06
 .byte   N12 ,Dn1 ,v080
 .byte   W12
 .byte   N06 ,Dn1 ,v076
 .byte   W06
 .byte   Dn1 ,v096
 .byte   W06
 .byte   N06
 .byte   W06
 .byte   N06
 .byte   W06
@  #09 @034   ----------------------------------------
 .byte   PATT
  .word Label_019AD14B
@  #09 @035   ----------------------------------------
Label_019AD257:
 .byte   N12 ,Dn1 ,v088
 .byte   W12
 .byte   N06 ,Dn1 ,v076
 .byte   W06
 .byte   Dn1 ,v092
 .byte   W06
 .byte   N12 ,Dn1 ,v088
 .byte   W12
 .byte   Dn1 ,v080
 .byte   W12
 .byte   N06 ,Dn1 ,v076
 .byte   W06
 .byte   Dn1 ,v092
 .byte   W06
 .byte   N12 ,Dn1 ,v088
 .byte   W12
 .byte   N06 ,Dn1 ,v080
 .byte   W06
 .byte   Dn1 ,v076
 .byte   W06
 .byte   Dn1 ,v092
 .byte   W06
 .byte   Dn1 ,v076
 .byte   W06
 .byte   PEND 
@  #09 @036   ----------------------------------------
 .byte   N12 ,Dn1 ,v088
 .byte   W12
 .byte   N06 ,Dn1 ,v076
 .byte   W06
 .byte   Dn1 ,v092
 .byte   W06
 .byte   N12 ,Dn1 ,v088
 .byte   W12
 .byte   Dn1 ,v080
 .byte   W12
 .byte   N06 ,Dn1 ,v076
 .byte   W06
 .byte   Dn1 ,v092
 .byte   W06
 .byte   N12 ,Dn1 ,v088
 .byte   W12
 .byte   N06 ,Dn1 ,v080
 .byte   W06
 .byte   Dn1 ,v076
 .byte   W06
 .byte   N12 ,Dn1 ,v092
 .byte   W12
@  #09 @037   ----------------------------------------
 .byte   PATT
  .word Label_019AD257
@  #09 @038   ----------------------------------------
Label_019AD2AF:
 .byte   N12 ,Dn1 ,v088
 .byte   TIE ,An2 ,v127
 .byte   W12
 .byte   N06 ,Dn1 ,v076
 .byte   W06
 .byte   Dn1 ,v092
 .byte   W06
 .byte   N12 ,Dn1 ,v088
 .byte   W12
 .byte   Dn1 ,v080
 .byte   W12
 .byte   N06 ,Dn1 ,v076
 .byte   W06
 .byte   Dn1 ,v092
 .byte   W06
 .byte   N12 ,Dn1 ,v088
 .byte   W12
 .byte   N06 ,Dn1 ,v080
 .byte   W06
 .byte   Dn1 ,v076
 .byte   W06
 .byte   N12 ,Dn1 ,v092
 .byte   W12
 .byte   PEND 
@  #09 @039   ----------------------------------------
 .byte   PATT
  .word Label_019AD257
@  #09 @040   ----------------------------------------
 .byte   EOT
 .byte   An2
 .byte   N12 ,Dn1 ,v088
 .byte   N96 ,Cs2 ,v127
 .byte   W12
 .byte   N06 ,Dn1 ,v076
 .byte   W06
 .byte   Dn1 ,v092
 .byte   W06
 .byte   N12 ,Dn1 ,v088
 .byte   W12
 .byte   Dn1 ,v080
 .byte   W12
 .byte   N06 ,Dn1 ,v076
 .byte   W06
 .byte   Dn1 ,v092
 .byte   W06
 .byte   N12 ,Dn1 ,v088
 .byte   W12
 .byte   N06 ,Dn1 ,v080
 .byte   W06
 .byte   Dn1 ,v076
 .byte   W06
 .byte   N12 ,Dn1 ,v092
 .byte   W12
@  #09 @041   ----------------------------------------
 .byte   PATT
  .word Label_019AD257
@  #09 @042   ----------------------------------------
 .byte   PATT
  .word Label_019AD2AF
@  #09 @043   ----------------------------------------
 .byte   PATT
  .word Label_019AD174
@  #09 @044   ----------------------------------------
 .byte   EOT
 .byte   An2
@  #09 @045   ----------------------------------------
 .byte   PATT
  .word Label_019AD1A0
@  #09 @046   ----------------------------------------
 .byte   PATT
  .word Label_019AD1CC
@  #09 @047   ----------------------------------------
 .byte   PATT
  .word Label_019AD1F7
@  #09 @048   ----------------------------------------
 .byte   PATT
  .word Label_019AD1CC
@  #09 @049   ----------------------------------------
 .byte   PATT
  .word Label_019AD1F7
@  #09 @050   ----------------------------------------
 .byte   N12 ,Dn1 ,v076
 .byte   W12
 .byte   N06 ,Dn1 ,v092
 .byte   W06
 .byte   Dn1 ,v088
 .byte   W06
 .byte   N12 ,Dn1 ,v080
 .byte   W12
 .byte   Dn1 ,v076
 .byte   W12
 .byte   N06 ,Dn1 ,v092
 .byte   W06
 .byte   Dn1 ,v088
 .byte   W06
 .byte   N12 ,Dn1 ,v080
 .byte   W12
 .byte   N06 ,Dn1 ,v076
 .byte   W06
 .byte   Dn1 ,v092
 .byte   W06
 .byte   Dn1 ,v096
 .byte   W06
 .byte   N06
 .byte   W06
@  #09 @051   ----------------------------------------
 .byte   N12
 .byte   TIE ,An2 ,v127
 .byte   W12
 .byte   N06 ,Dn1 ,v092
 .byte   W06
 .byte   Dn1 ,v080
 .byte   W06
 .byte   N12 ,Dn1 ,v088
 .byte   W12
 .byte   Dn1 ,v080
 .byte   W12
 .byte   N06 ,Dn1 ,v096
 .byte   W06
 .byte   Dn1 ,v092
 .byte   W06
 .byte   N12 ,Dn1 ,v088
 .byte   W12
 .byte   N06 ,Dn1 ,v080
 .byte   W06
 .byte   Dn1 ,v076
 .byte   W06
 .byte   N12 ,Dn1 ,v092
 .byte   W12
@  #09 @052   ----------------------------------------
 .byte   PATT
  .word Label_019AD174
@  #09 @053   ----------------------------------------
 .byte   EOT
 .byte   An2
 .byte   N01 ,Dn1 ,v076
 .byte   N24 ,Ds1 ,v127
 .byte   N96 ,Cs2
 .byte   W01
 .byte   N11 ,Dn1 ,v092
 .byte   W23
 .byte   N12 ,Dn1 ,v088
 .byte   N24 ,Ds1 ,v112
 .byte   W12
 .byte   N12 ,Dn1 ,v080
 .byte   W12
 .byte   Dn1 ,v076
 .byte   W12
 .byte   Dn1 ,v092
 .byte   W12
 .byte   Dn1 ,v088
 .byte   W12
 .byte   Dn1 ,v080
 .byte   W12
@  #09 @054   ----------------------------------------
 .byte   Dn1 ,v076
 .byte   W12
 .byte   N01 ,Dn1 ,v092
 .byte   W01
 .byte   N11 ,Dn1 ,v088
 .byte   W11
 .byte   N12 ,Dn1 ,v076
 .byte   W12
 .byte   Dn1 ,v092
 .byte   W12
 .byte   Dn1 ,v088
 .byte   W24
 .byte   Dn1 ,v080
 .byte   W12
 .byte   Dn1 ,v076
 .byte   W12
@  #09 @055   ----------------------------------------
 .byte   N01 ,Dn1 ,v092
 .byte   N24 ,Ds1 ,v127
 .byte   W01
 .byte   N11 ,Dn1 ,v088
 .byte   W23
 .byte   N12 ,Dn1 ,v080
 .byte   N24 ,Ds1 ,v112
 .byte   W12
 .byte   N12 ,Dn1 ,v076
 .byte   W12
 .byte   Dn1 ,v092
 .byte   W12
 .byte   Dn1 ,v096
 .byte   W12
 .byte   N12
 .byte   W12
 .byte   N12
 .byte   W12
@  #09 @056   ----------------------------------------
 .byte   Dn1 ,v092
 .byte   W12
 .byte   N01 ,Dn1 ,v080
 .byte   W01
 .byte   N11 ,Dn1 ,v088
 .byte   W11
 .byte   N12 ,Dn1 ,v080
 .byte   W12
 .byte   Dn1 ,v096
 .byte   W12
 .byte   Dn1 ,v092
 .byte   W24
 .byte   Dn1 ,v088
 .byte   W12
 .byte   Dn1 ,v080
 .byte   W12
@  #09 @057   ----------------------------------------
 .byte   N01 ,Dn1 ,v076
 .byte   N24 ,Ds1 ,v127
 .byte   W01
 .byte   N11 ,Dn1 ,v092
 .byte   W23
 .byte   N12 ,Dn1 ,v088
 .byte   N24 ,Ds1 ,v112
 .byte   W12
 .byte   N12 ,Dn1 ,v076
 .byte   W12
 .byte   Dn1 ,v092
 .byte   W12
 .byte   Dn1 ,v088
 .byte   W12
 .byte   Dn1 ,v080
 .byte   W12
 .byte   Dn1 ,v076
 .byte   W12
@  #09 @058   ----------------------------------------
 .byte   Dn1 ,v092
 .byte   W12
 .byte   N01 ,Dn1 ,v088
 .byte   W01
 .byte   N11 ,Dn1 ,v080
 .byte   W11
 .byte   N12 ,Dn1 ,v076
 .byte   W12
 .byte   Dn1 ,v092
 .byte   W12
 .byte   Dn1 ,v076
 .byte   W24
 .byte   Dn1 ,v088
 .byte   W12
 .byte   Dn1 ,v076
 .byte   W12
@  #09 @059   ----------------------------------------
 .byte   N01 ,Dn1 ,v092
 .byte   N24 ,Ds1 ,v127
 .byte   TIE ,An2
 .byte   W01
 .byte   N11 ,Dn1 ,v088
 .byte   W23
 .byte   N12 ,Dn1 ,v080
 .byte   N24 ,Ds1 ,v112
 .byte   W12
 .byte   N12 ,Dn1 ,v076
 .byte   W12
 .byte   Dn1 ,v092
 .byte   W12
 .byte   Dn1 ,v088
 .byte   W12
 .byte   Dn1 ,v080
 .byte   W12
 .byte   Dn1 ,v076
 .byte   W12
@  #09 @060   ----------------------------------------
 .byte   Dn1 ,v092
 .byte   N24 ,Ds1 ,v127
 .byte   W12
 .byte   N01 ,Dn1 ,v088
 .byte   W01
 .byte   N11 ,Dn1 ,v076
 .byte   W11
 .byte   N12 ,Dn1 ,v092
 .byte   N24 ,Ds1 ,v120
 .byte   W12
 .byte   N12 ,Dn1 ,v088
 .byte   W12
 .byte   Dn1 ,v080
 .byte   W24
 .byte   N06 ,Dn1 ,v076
 .byte   W06
 .byte   N03 ,Dn1 ,v092
 .byte   W03
 .byte   Dn1 ,v088
 .byte   W03
 .byte   N06 ,Dn1 ,v080
 .byte   W06
 .byte   Dn1 ,v076
 .byte   W06
@  #09 @061   ----------------------------------------
 .byte   EOT
 .byte   An2
 .byte   N12 ,Dn1 ,v092
 .byte   N24 ,Ds1 ,v127
 .byte   N96 ,Cs2
 .byte   W12
 .byte   N06 ,Dn1 ,v076
 .byte   W06
 .byte   Dn1 ,v088
 .byte   W06
 .byte   N12 ,Dn1 ,v076
 .byte   W12
 .byte   Dn1 ,v092
 .byte   W12
 .byte   N06 ,Dn1 ,v088
 .byte   W06
 .byte   Dn1 ,v080
 .byte   W06
 .byte   N12 ,Dn1 ,v076
 .byte   W12
 .byte   N06 ,Dn1 ,v092
 .byte   W06
 .byte   Dn1 ,v088
 .byte   W06
 .byte   N12 ,Dn1 ,v080
 .byte   W12
@  #09 @062   ----------------------------------------
 .byte   PATT
  .word Label_019ACF5A
@  #09 @063   ----------------------------------------
 .byte   PATT
  .word Label_019ACF85
@  #09 @064   ----------------------------------------
 .byte   PATT
  .word Label_019ACF5A
@  #09 @065   ----------------------------------------
 .byte   PATT
  .word Label_019ACF85
@  #09 @066   ----------------------------------------
 .byte   PATT
  .word Label_019ACF5A
@  #09 @067   ----------------------------------------
 .byte   PATT
  .word Label_019ACF85
@  #09 @068   ----------------------------------------
 .byte   N12 ,Dn1 ,v076
 .byte   W12
 .byte   N06 ,Dn1 ,v092
 .byte   W06
 .byte   Dn1 ,v088
 .byte   W06
 .byte   N12 ,Dn1 ,v076
 .byte   W12
 .byte   Dn1 ,v092
 .byte   W12
 .byte   N06 ,Dn1 ,v088
 .byte   W06
 .byte   Dn1 ,v080
 .byte   W06
 .byte   Dn1 ,v076
 .byte   W06
 .byte   Dn1 ,v092
 .byte   W06
 .byte   Dn1 ,v088
 .byte   W06
 .byte   Dn1 ,v080
 .byte   W06
 .byte   Dn1 ,v076
 .byte   W06
 .byte   Dn1 ,v096
 .byte   W06
@  #09 @069   ----------------------------------------
 .byte   PATT
  .word Label_019ACF34
@  #09 @070   ----------------------------------------
 .byte   PATT
  .word Label_019ACF5A
@  #09 @071   ----------------------------------------
 .byte   PATT
  .word Label_019ACF85
@  #09 @072   ----------------------------------------
 .byte   PATT
  .word Label_019ACF5A
@  #09 @073   ----------------------------------------
 .byte   PATT
  .word Label_019ACF85
@  #09 @074   ----------------------------------------
 .byte   PATT
  .word Label_019ACF5A
@  #09 @075   ----------------------------------------
 .byte   N12 ,Dn1 ,v092
 .byte   TIE ,An2 ,v127
 .byte   W12
 .byte   N06 ,Dn1 ,v076
 .byte   W06
 .byte   Dn1 ,v088
 .byte   W06
 .byte   N12 ,Dn1 ,v076
 .byte   W12
 .byte   Dn1 ,v092
 .byte   W12
 .byte   N06 ,Dn1 ,v088
 .byte   W06
 .byte   Dn1 ,v080
 .byte   W06
 .byte   N12 ,Dn1 ,v076
 .byte   W12
 .byte   N06 ,Dn1 ,v092
 .byte   W06
 .byte   Dn1 ,v088
 .byte   W06
 .byte   N12 ,Dn1 ,v080
 .byte   W12
@  #09 @076   ----------------------------------------
 .byte   Dn1 ,v076
 .byte   W12
 .byte   N06 ,Dn1 ,v092
 .byte   W06
 .byte   Dn1 ,v088
 .byte   W06
 .byte   N12 ,Dn1 ,v076
 .byte   W12
 .byte   Dn1 ,v092
 .byte   W12
 .byte   N06 ,Dn1 ,v088
 .byte   W06
 .byte   Dn1 ,v080
 .byte   W06
 .byte   Dn1 ,v076
 .byte   W06
 .byte   Dn1 ,v092
 .byte   W06
 .byte   Dn1 ,v088
 .byte   W06
 .byte   Dn1 ,v080
 .byte   W06
 .byte   Dn1 ,v076
 .byte   W06
 .byte   Dn1 ,v092
 .byte   W06
@  #09 @077   ----------------------------------------
 .byte   EOT
 .byte   An2
 .byte   GOTO
  .word Label_019ACEAE
@  #09 @078   ----------------------------------------
 .byte   VOICE , 127
 .byte   FINE

@**************** Track 10 (Midi-Chn.9) ****************@

song03B1_010:
@  #10 @000   ----------------------------------------
 .byte   KEYSH , song03B1_key+0
Label_01975D12:
 .byte   VOICE , 61
 .byte   PAN , c_v+12
 .byte   VOL , 22*song03B1_mvl/mxv
 .byte   W96
@  #10 @001   ----------------------------------------
 .byte   W96
@  #10 @002   ----------------------------------------
 .byte   W96
@  #10 @003   ----------------------------------------
 .byte   W96
@  #10 @004   ----------------------------------------
 .byte   W96
@  #10 @005   ----------------------------------------
 .byte   W96
@  #10 @006   ----------------------------------------
 .byte   W96
@  #10 @007   ----------------------------------------
 .byte   W96
@  #10 @008   ----------------------------------------
 .byte   W96
@  #10 @009   ----------------------------------------
 .byte   W96
@  #10 @010   ----------------------------------------
 .byte   W96
@  #10 @011   ----------------------------------------
 .byte   W96
@  #10 @012   ----------------------------------------
 .byte   W96
@  #10 @013   ----------------------------------------
 .byte   W96
@  #10 @014   ----------------------------------------
 .byte   W96
@  #10 @015   ----------------------------------------
 .byte   W96
@  #10 @016   ----------------------------------------
 .byte   W96
@  #10 @017   ----------------------------------------
 .byte   W96
@  #10 @018   ----------------------------------------
 .byte   W96
@  #10 @019   ----------------------------------------
 .byte   W96
@  #10 @020   ----------------------------------------
 .byte   W96
@  #10 @021   ----------------------------------------
 .byte   W96
@  #10 @022   ----------------------------------------
 .byte   W96
@  #10 @023   ----------------------------------------
 .byte   W96
@  #10 @024   ----------------------------------------
 .byte   W96
@  #10 @025   ----------------------------------------
 .byte   W96
@  #10 @026   ----------------------------------------
 .byte   W96
@  #10 @027   ----------------------------------------
 .byte   W96
@  #10 @028   ----------------------------------------
 .byte   W96
@  #10 @029   ----------------------------------------
 .byte   W96
@  #10 @030   ----------------------------------------
 .byte   W96
@  #10 @031   ----------------------------------------
 .byte   W96
@  #10 @032   ----------------------------------------
 .byte   W96
@  #10 @033   ----------------------------------------
 .byte   W96
@  #10 @034   ----------------------------------------
 .byte   W96
@  #10 @035   ----------------------------------------
 .byte   W96
@  #10 @036   ----------------------------------------
 .byte   W96
@  #10 @037   ----------------------------------------
 .byte   W96
@  #10 @038   ----------------------------------------
 .byte   W96
@  #10 @039   ----------------------------------------
 .byte   W96
@  #10 @040   ----------------------------------------
 .byte   W96
@  #10 @041   ----------------------------------------
 .byte   W96
@  #10 @042   ----------------------------------------
 .byte   W96
@  #10 @043   ----------------------------------------
 .byte   W96
@  #10 @044   ----------------------------------------
Label_01975D44:
 .byte   N08 ,Cn4 ,v100
 .byte   N08 ,En4 ,v120
 .byte   W18
 .byte   Cn4 ,v108
 .byte   N08 ,En4 ,v120
 .byte   W18
 .byte   N06 ,Cn4 ,v100
 .byte   N06 ,En4 ,v120
 .byte   W06
 .byte   Dn4 ,v096
 .byte   N06 ,Fs4 ,v116
 .byte   W06
 .byte   N60 ,En4 ,v096
 .byte   N60 ,Gn4 ,v116
 .byte   W48
 .byte   PEND 
@  #10 @045   ----------------------------------------
 .byte   W16
 .byte   N16 ,Fs4 ,v096
 .byte   N16 ,An4 ,v116
 .byte   W16
 .byte   En4 ,v096
 .byte   N16 ,Gn4 ,v116
 .byte   W16
 .byte   Dn4 ,v096
 .byte   N16 ,Fs4 ,v116
 .byte   W16
 .byte   Cn4 ,v096
 .byte   N16 ,En4 ,v116
 .byte   W16
 .byte   Bn3 ,v096
 .byte   N16 ,Dn4 ,v116
 .byte   W16
@  #10 @046   ----------------------------------------
 .byte   N36 ,Fs3 ,v096
 .byte   N36 ,Bn3 ,v116
 .byte   W36
 .byte   TIE ,Gn3 ,v096
 .byte   TIE ,En4 ,v116
 .byte   W60
@  #10 @047   ----------------------------------------
 .byte   W84
 .byte   EOT
 .byte   Gn3 ,v076
 .byte   W12
@  #10 @048   ----------------------------------------
 .byte   PATT
  .word Label_01975D44
@  #10 @049   ----------------------------------------
 .byte   W16
 .byte   N16 ,Fs4 ,v096
 .byte   N16 ,An4 ,v116
 .byte   W16
 .byte   En4 ,v096
 .byte   N16 ,Gn4 ,v116
 .byte   W16
 .byte   Gn4 ,v096
 .byte   N16 ,Bn4 ,v116
 .byte   W16
 .byte   Fs4 ,v096
 .byte   N16 ,An4 ,v116
 .byte   W16
 .byte   En4 ,v096
 .byte   N16 ,Gn4 ,v116
 .byte   W16
@  #10 @050   ----------------------------------------
 .byte   N36 ,Gn4 ,v096
 .byte   N36 ,Bn4 ,v116
 .byte   W36
 .byte   Fs4 ,v096
 .byte   N36 ,An4 ,v116
 .byte   W36
 .byte   N24 ,En4 ,v096
 .byte   N24 ,Gn4 ,v116
 .byte   W24
@  #10 @051   ----------------------------------------
 .byte   N36 ,Fs4 ,v096
 .byte   N36 ,An4 ,v116
 .byte   W36
 .byte   En4 ,v096
 .byte   N36 ,Gn4 ,v116
 .byte   W36
 .byte   N24 ,Ds4 ,v096
 .byte   N24 ,Fs4 ,v116
 .byte   W24
@  #10 @052   ----------------------------------------
 .byte   W96
@  #10 @053   ----------------------------------------
 .byte   W96
@  #10 @054   ----------------------------------------
 .byte   W96
@  #10 @055   ----------------------------------------
 .byte   W96
@  #10 @056   ----------------------------------------
 .byte   W96
@  #10 @057   ----------------------------------------
 .byte   W96
@  #10 @058   ----------------------------------------
 .byte   W96
@  #10 @059   ----------------------------------------
 .byte   W96
@  #10 @060   ----------------------------------------
 .byte   W96
@  #10 @061   ----------------------------------------
 .byte   W96
@  #10 @062   ----------------------------------------
 .byte   W96
@  #10 @063   ----------------------------------------
 .byte   W96
@  #10 @064   ----------------------------------------
 .byte   W96
@  #10 @065   ----------------------------------------
 .byte   W96
@  #10 @066   ----------------------------------------
 .byte   W96
@  #10 @067   ----------------------------------------
 .byte   W96
@  #10 @068   ----------------------------------------
 .byte   W96
@  #10 @069   ----------------------------------------
 .byte   W96
@  #10 @070   ----------------------------------------
 .byte   W96
@  #10 @071   ----------------------------------------
 .byte   W96
@  #10 @072   ----------------------------------------
 .byte   W96
@  #10 @073   ----------------------------------------
 .byte   W96
@  #10 @074   ----------------------------------------
 .byte   W96
@  #10 @075   ----------------------------------------
 .byte   W96
@  #10 @076   ----------------------------------------
 .byte   GOTO
  .word Label_01975D12
@  #10 @077   ----------------------------------------
 .byte   VOICE , 56
 .byte   FINE

@**************** Track 11 (Midi-Chn.10) ****************@

song03B1_011:
@  #11 @000   ----------------------------------------
 .byte   KEYSH , song03B1_key+0
Label_019AD592:
 .byte   VOICE , 47
 .byte   PAN , c_v+0
 .byte   VOL , 27*song03B1_mvl/mxv
 .byte   W96
@  #11 @001   ----------------------------------------
 .byte   W96
@  #11 @002   ----------------------------------------
 .byte   W96
@  #11 @003   ----------------------------------------
 .byte   W96
@  #11 @004   ----------------------------------------
 .byte   W96
@  #11 @005   ----------------------------------------
 .byte   W96
@  #11 @006   ----------------------------------------
Label_019AD59E:
 .byte   N12 ,En1 ,v112
 .byte   W36
 .byte   En1 ,v100
 .byte   W60
 .byte   PEND 
@  #11 @007   ----------------------------------------
 .byte   En1 ,v112
 .byte   W36
 .byte   En1 ,v120
 .byte   W36
 .byte   En1 ,v112
 .byte   W24
@  #11 @008   ----------------------------------------
 .byte   PATT
  .word Label_019AD59E
@  #11 @009   ----------------------------------------
Label_019AD5B4:
 .byte   N12 ,En1 ,v112
 .byte   W36
 .byte   En1 ,v120
 .byte   W36
 .byte   En1 ,v112
 .byte   W12
 .byte   N12
 .byte   W12
 .byte   PEND 
@  #11 @010   ----------------------------------------
 .byte   PATT
  .word Label_019AD59E
@  #11 @011   ----------------------------------------
Label_019AD5C6:
 .byte   N12 ,En1 ,v112
 .byte   W12
 .byte   En1 ,v100
 .byte   W24
 .byte   N12
 .byte   W36
 .byte   En1 ,v092
 .byte   W12
 .byte   En1 ,v100
 .byte   W12
 .byte   PEND 
@  #11 @012   ----------------------------------------
 .byte   PATT
  .word Label_019AD59E
@  #11 @013   ----------------------------------------
 .byte   PATT
  .word Label_019AD5B4
@  #11 @014   ----------------------------------------
 .byte   PATT
  .word Label_019AD59E
@  #11 @015   ----------------------------------------
 .byte   PATT
  .word Label_019AD5C6
@  #11 @016   ----------------------------------------
 .byte   PATT
  .word Label_019AD59E
@  #11 @017   ----------------------------------------
 .byte   PATT
  .word Label_019AD5B4
@  #11 @018   ----------------------------------------
 .byte   PATT
  .word Label_019AD59E
@  #11 @019   ----------------------------------------
 .byte   PATT
  .word Label_019AD5C6
@  #11 @020   ----------------------------------------
Label_019AD5FE:
 .byte   N12 ,Cn2 ,v112
 .byte   W36
 .byte   Cn2 ,v100
 .byte   W60
 .byte   PEND 
@  #11 @021   ----------------------------------------
Label_019AD606:
 .byte   N12 ,Cn2 ,v112
 .byte   W36
 .byte   Cn2 ,v120
 .byte   W36
 .byte   Cn2 ,v112
 .byte   W12
 .byte   N12
 .byte   W12
 .byte   PEND 
@  #11 @022   ----------------------------------------
 .byte   PATT
  .word Label_019AD5FE
@  #11 @023   ----------------------------------------
 .byte   N12 ,Cn2 ,v112
 .byte   W12
 .byte   Cn2 ,v100
 .byte   W24
 .byte   N12
 .byte   W12
 .byte   N12
 .byte   W24
 .byte   Cn2 ,v092
 .byte   W12
 .byte   N04 ,Cn2 ,v100
 .byte   W04
 .byte   Cn2 ,v108
 .byte   W04
 .byte   Cn2 ,v112
 .byte   W04
@  #11 @024   ----------------------------------------
 .byte   PATT
  .word Label_019AD59E
@  #11 @025   ----------------------------------------
 .byte   PATT
  .word Label_019AD5B4
@  #11 @026   ----------------------------------------
 .byte   PATT
  .word Label_019AD59E
@  #11 @027   ----------------------------------------
 .byte   PATT
  .word Label_019AD5C6
@  #11 @028   ----------------------------------------
 .byte   PATT
  .word Label_019AD59E
@  #11 @029   ----------------------------------------
 .byte   PATT
  .word Label_019AD5B4
@  #11 @030   ----------------------------------------
 .byte   PATT
  .word Label_019AD59E
@  #11 @031   ----------------------------------------
 .byte   PATT
  .word Label_019AD5C6
@  #11 @032   ----------------------------------------
 .byte   PATT
  .word Label_019AD59E
@  #11 @033   ----------------------------------------
 .byte   PATT
  .word Label_019AD5B4
@  #11 @034   ----------------------------------------
 .byte   PATT
  .word Label_019AD59E
@  #11 @035   ----------------------------------------
 .byte   PATT
  .word Label_019AD5C6
@  #11 @036   ----------------------------------------
 .byte   PATT
  .word Label_019AD5FE
@  #11 @037   ----------------------------------------
 .byte   PATT
  .word Label_019AD606
@  #11 @038   ----------------------------------------
 .byte   N12 ,Fn1 ,v112
 .byte   W36
 .byte   Fn1 ,v100
 .byte   W60
@  #11 @039   ----------------------------------------
 .byte   Fn1 ,v112
 .byte   W12
 .byte   Fn1 ,v100
 .byte   W24
 .byte   N12
 .byte   W12
 .byte   N12
 .byte   W24
 .byte   Fn1 ,v092
 .byte   W12
 .byte   N04 ,Fn1 ,v100
 .byte   W04
 .byte   Fn1 ,v108
 .byte   W04
 .byte   Fn1 ,v112
 .byte   W04
@  #11 @040   ----------------------------------------
 .byte   PATT
  .word Label_019AD59E
@  #11 @041   ----------------------------------------
 .byte   PATT
  .word Label_019AD5B4
@  #11 @042   ----------------------------------------
 .byte   PATT
  .word Label_019AD59E
@  #11 @043   ----------------------------------------
 .byte   PATT
  .word Label_019AD5C6
@  #11 @044   ----------------------------------------
Label_019AD6A8:
 .byte   N24 ,Cn2 ,v120
 .byte   W24
 .byte   N12 ,Cn2 ,v100
 .byte   W12
 .byte   N24 ,Gn1 ,v112
 .byte   W24
 .byte   N12 ,Gn1 ,v092
 .byte   W12
 .byte   N24 ,Cn2 ,v112
 .byte   W24
 .byte   PEND 
@  #11 @045   ----------------------------------------
 .byte   Gn1 ,v120
 .byte   W24
 .byte   N12 ,Gn1 ,v100
 .byte   W12
 .byte   N24 ,Cn2 ,v112
 .byte   W24
 .byte   N12 ,Cn2 ,v092
 .byte   W12
 .byte   Gn1 ,v112
 .byte   W12
 .byte   Cn2
 .byte   W12
@  #11 @046   ----------------------------------------
Label_019AD6D1:
 .byte   N24 ,En1 ,v120
 .byte   W24
 .byte   N12 ,En1 ,v100
 .byte   W12
 .byte   N24 ,Bn1 ,v112
 .byte   W24
 .byte   N12 ,Bn1 ,v092
 .byte   W12
 .byte   N24 ,En1 ,v112
 .byte   W24
 .byte   PEND 
@  #11 @047   ----------------------------------------
Label_019AD6E6:
 .byte   N24 ,Bn1 ,v120
 .byte   W24
 .byte   N12 ,Bn1 ,v100
 .byte   W12
 .byte   N24 ,En1 ,v112
 .byte   W24
 .byte   N12 ,En1 ,v092
 .byte   W12
 .byte   Bn1 ,v112
 .byte   W12
 .byte   En1
 .byte   W12
 .byte   PEND 
@  #11 @048   ----------------------------------------
 .byte   PATT
  .word Label_019AD6A8
@  #11 @049   ----------------------------------------
 .byte   N24 ,Gn1 ,v120
 .byte   W24
 .byte   N12 ,Gn1 ,v100
 .byte   W12
 .byte   N24 ,Cn2 ,v112
 .byte   W24
 .byte   N12 ,Cn2 ,v092
 .byte   W12
 .byte   Gn1 ,v112
 .byte   W12
 .byte   N04 ,Fs1
 .byte   W04
 .byte   N04
 .byte   W04
 .byte   Fs1 ,v120
 .byte   W04
@  #11 @050   ----------------------------------------
Label_019AD71C:
 .byte   N12 ,Bn1 ,v127
 .byte   W12
 .byte   N06 ,Fs1 ,v092
 .byte   W06
 .byte   Fs1 ,v108
 .byte   W06
 .byte   N12 ,Fs1 ,v120
 .byte   W12
 .byte   Bn1 ,v127
 .byte   W12
 .byte   N06 ,Fs1 ,v092
 .byte   W06
 .byte   Fs1 ,v108
 .byte   W06
 .byte   N12 ,Fs1 ,v120
 .byte   W12
 .byte   N06 ,Bn1 ,v127
 .byte   W06
 .byte   Fs1 ,v100
 .byte   W06
 .byte   N12 ,Fs1 ,v120
 .byte   W12
 .byte   PEND 
@  #11 @051   ----------------------------------------
 .byte   PATT
  .word Label_019AD71C
@  #11 @052   ----------------------------------------
 .byte   N24 ,En1 ,v120
 .byte   W96
@  #11 @053   ----------------------------------------
 .byte   W96
@  #11 @054   ----------------------------------------
 .byte   W96
@  #11 @055   ----------------------------------------
 .byte   W96
@  #11 @056   ----------------------------------------
 .byte   W96
@  #11 @057   ----------------------------------------
 .byte   W96
@  #11 @058   ----------------------------------------
 .byte   W96
@  #11 @059   ----------------------------------------
 .byte   N06 ,Bn1 ,v032
 .byte   W06
 .byte   N03
 .byte   W03
 .byte   N03
 .byte   W03
 .byte   N03
 .byte   W03
 .byte   N03
 .byte   W03
 .byte   N03
 .byte   W03
 .byte   N03
 .byte   W03
 .byte   N03
 .byte   W03
 .byte   Bn1 ,v036
 .byte   W03
 .byte   N03
 .byte   W03
 .byte   N03
 .byte   W03
 .byte   N03
 .byte   W03
 .byte   Bn1 ,v040
 .byte   W03
 .byte   N03
 .byte   W03
 .byte   Bn1 ,v048
 .byte   W03
 .byte   N06
 .byte   W06
 .byte   N03 ,Bn1 ,v052
 .byte   W03
 .byte   N03
 .byte   W03
 .byte   Bn1 ,v056
 .byte   W03
 .byte   Bn1 ,v060
 .byte   W03
 .byte   Bn1 ,v068
 .byte   W03
 .byte   Bn1 ,v072
 .byte   W03
 .byte   Bn1 ,v076
 .byte   W03
 .byte   Bn1 ,v080
 .byte   W03
 .byte   Bn1 ,v088
 .byte   W03
 .byte   Bn1 ,v092
 .byte   W03
 .byte   Bn1 ,v096
 .byte   W03
 .byte   Bn1 ,v100
 .byte   W03
 .byte   Bn1 ,v108
 .byte   W03
 .byte   Bn1 ,v112
 .byte   W03
@  #11 @060   ----------------------------------------
 .byte   PATT
  .word Label_019AD6D1
@  #11 @061   ----------------------------------------
 .byte   PATT
  .word Label_019AD6E6
@  #11 @062   ----------------------------------------
Label_019AD7AD:
 .byte   N24 ,Fn1 ,v120
 .byte   W24
 .byte   N12 ,Fn1 ,v100
 .byte   W12
 .byte   N24 ,Cn2 ,v112
 .byte   W24
 .byte   N12 ,Cn2 ,v092
 .byte   W12
 .byte   N24 ,Fn1 ,v112
 .byte   W24
 .byte   PEND 
@  #11 @063   ----------------------------------------
Label_019AD7C2:
 .byte   N24 ,An1 ,v120
 .byte   W24
 .byte   N12 ,An1 ,v100
 .byte   W12
 .byte   N24 ,Dn1 ,v112
 .byte   W24
 .byte   N12 ,Dn1 ,v092
 .byte   W12
 .byte   An1 ,v112
 .byte   W12
 .byte   Dn1
 .byte   W12
 .byte   PEND 
@  #11 @064   ----------------------------------------
 .byte   PATT
  .word Label_019AD6D1
@  #11 @065   ----------------------------------------
 .byte   PATT
  .word Label_019AD6E6
@  #11 @066   ----------------------------------------
 .byte   PATT
  .word Label_019AD7AD
@  #11 @067   ----------------------------------------
 .byte   PATT
  .word Label_019AD7C2
@  #11 @068   ----------------------------------------
 .byte   PATT
  .word Label_019AD6D1
@  #11 @069   ----------------------------------------
 .byte   PATT
  .word Label_019AD6E6
@  #11 @070   ----------------------------------------
 .byte   PATT
  .word Label_019AD7AD
@  #11 @071   ----------------------------------------
 .byte   PATT
  .word Label_019AD7C2
@  #11 @072   ----------------------------------------
 .byte   PATT
  .word Label_019AD6D1
@  #11 @073   ----------------------------------------
 .byte   PATT
  .word Label_019AD6E6
@  #11 @074   ----------------------------------------
 .byte   PATT
  .word Label_019AD7AD
@  #11 @075   ----------------------------------------
 .byte   PATT
  .word Label_019AD7C2
@  #11 @076   ----------------------------------------
 .byte   GOTO
  .word Label_019AD592
@  #11 @077   ----------------------------------------
 .byte   VOICE , 47
 .byte   FINE

@**************** Track 12 (Midi-Chn.11) ****************@

song03B1_012:
@  #12 @000   ----------------------------------------
 .byte   KEYSH , song03B1_key+0
Label_019AD81E:
 .byte   VOICE , 111
 .byte   VOL , 24*song03B1_mvl/mxv
 .byte   PAN , c_v+63
 .byte   N96 ,Cn4 ,v080
 .byte   W96
@  #12 @001   ----------------------------------------
 .byte   N96
 .byte   W96
@  #12 @002   ----------------------------------------
 .byte   N96
 .byte   W96
@  #12 @003   ----------------------------------------
 .byte   Dn4
 .byte   W96
@  #12 @004   ----------------------------------------
 .byte   Cn4
 .byte   W96
@  #12 @005   ----------------------------------------
 .byte   N96
 .byte   W96
@  #12 @006   ----------------------------------------
 .byte   N96
 .byte   W96
@  #12 @007   ----------------------------------------
 .byte   Dn4
 .byte   W96
@  #12 @008   ----------------------------------------
 .byte   Cn4
 .byte   W96
@  #12 @009   ----------------------------------------
 .byte   N96
 .byte   W96
@  #12 @010   ----------------------------------------
 .byte   N96
 .byte   W96
@  #12 @011   ----------------------------------------
 .byte   Dn4
 .byte   W96
@  #12 @012   ----------------------------------------
 .byte   Cn4
 .byte   W96
@  #12 @013   ----------------------------------------
 .byte   N96
 .byte   W96
@  #12 @014   ----------------------------------------
 .byte   N96
 .byte   W96
@  #12 @015   ----------------------------------------
 .byte   Dn4
 .byte   W96
@  #12 @016   ----------------------------------------
 .byte   Cn4
 .byte   W96
@  #12 @017   ----------------------------------------
 .byte   N96
 .byte   W96
@  #12 @018   ----------------------------------------
 .byte   N96
 .byte   W96
@  #12 @019   ----------------------------------------
 .byte   Dn4
 .byte   W96
@  #12 @020   ----------------------------------------
 .byte   Cn4
 .byte   W96
@  #12 @021   ----------------------------------------
 .byte   N96
 .byte   W96
@  #12 @022   ----------------------------------------
 .byte   N96
 .byte   W96
@  #12 @023   ----------------------------------------
 .byte   Dn4
 .byte   W96
@  #12 @024   ----------------------------------------
 .byte   Cn4
 .byte   W96
@  #12 @025   ----------------------------------------
 .byte   N96
 .byte   W96
@  #12 @026   ----------------------------------------
 .byte   N96
 .byte   W96
@  #12 @027   ----------------------------------------
 .byte   Dn4
 .byte   W96
@  #12 @028   ----------------------------------------
 .byte   Cn4
 .byte   W96
@  #12 @029   ----------------------------------------
 .byte   N96
 .byte   W96
@  #12 @030   ----------------------------------------
 .byte   N96
 .byte   W96
@  #12 @031   ----------------------------------------
 .byte   Dn4
 .byte   W96
@  #12 @032   ----------------------------------------
 .byte   Cn4
 .byte   W96
@  #12 @033   ----------------------------------------
 .byte   N96
 .byte   W96
@  #12 @034   ----------------------------------------
 .byte   N96
 .byte   W96
@  #12 @035   ----------------------------------------
 .byte   Dn4
 .byte   W96
@  #12 @036   ----------------------------------------
 .byte   Cn4
 .byte   W96
@  #12 @037   ----------------------------------------
 .byte   N96
 .byte   W96
@  #12 @038   ----------------------------------------
 .byte   N96
 .byte   W96
@  #12 @039   ----------------------------------------
 .byte   Dn4
 .byte   W96
@  #12 @040   ----------------------------------------
 .byte   Cn4
 .byte   W96
@  #12 @041   ----------------------------------------
 .byte   N96
 .byte   W96
@  #12 @042   ----------------------------------------
 .byte   N96
 .byte   W96
@  #12 @043   ----------------------------------------
 .byte   Dn4
 .byte   W96
@  #12 @044   ----------------------------------------
 .byte   Cn4
 .byte   W96
@  #12 @045   ----------------------------------------
 .byte   N96
 .byte   W96
@  #12 @046   ----------------------------------------
 .byte   N96
 .byte   W96
@  #12 @047   ----------------------------------------
 .byte   Dn4
 .byte   W96
@  #12 @048   ----------------------------------------
 .byte   Cn4
 .byte   W96
@  #12 @049   ----------------------------------------
 .byte   N96
 .byte   W96
@  #12 @050   ----------------------------------------
 .byte   N96
 .byte   W96
@  #12 @051   ----------------------------------------
 .byte   Dn4
 .byte   W96
@  #12 @052   ----------------------------------------
 .byte   W96
@  #12 @053   ----------------------------------------
 .byte   W96
@  #12 @054   ----------------------------------------
 .byte   W96
@  #12 @055   ----------------------------------------
 .byte   W96
@  #12 @056   ----------------------------------------
 .byte   W96
@  #12 @057   ----------------------------------------
 .byte   W96
@  #12 @058   ----------------------------------------
 .byte   VOL , 15*song03B1_mvl/mxv
 .byte   N96 ,Cn4
 .byte   W03
 .byte   VOL , 16*song03B1_mvl/mxv
 .byte   W15
 .byte   VOL , 17*song03B1_mvl/mxv
 .byte   W15
 .byte   VOL , 17*song03B1_mvl/mxv
 .byte   W15
 .byte   VOL , 18*song03B1_mvl/mxv
 .byte   W14
 .byte   VOL , 19*song03B1_mvl/mxv
 .byte   W15
 .byte   VOL , 20*song03B1_mvl/mxv
 .byte   W15
 .byte   VOL , 21*song03B1_mvl/mxv
 .byte   W04
@  #12 @059   ----------------------------------------
 .byte   N96
 .byte   W11
 .byte   VOL , 22*song03B1_mvl/mxv
 .byte   W14
 .byte   VOL , 22*song03B1_mvl/mxv
 .byte   W15
 .byte   VOL , 23*song03B1_mvl/mxv
 .byte   W15
 .byte   VOL , 24*song03B1_mvl/mxv
 .byte   W15
 .byte   VOL , 25*song03B1_mvl/mxv
 .byte   W14
 .byte   VOL , 26*song03B1_mvl/mxv
 .byte   W12
@  #12 @060   ----------------------------------------
 .byte   VOL , 27*song03B1_mvl/mxv
 .byte   N96
 .byte   W96
@  #12 @061   ----------------------------------------
 .byte   N96
 .byte   W96
@  #12 @062   ----------------------------------------
 .byte   N96
 .byte   W96
@  #12 @063   ----------------------------------------
 .byte   Dn4
 .byte   W96
@  #12 @064   ----------------------------------------
 .byte   Cn4
 .byte   W96
@  #12 @065   ----------------------------------------
 .byte   N96
 .byte   W96
@  #12 @066   ----------------------------------------
 .byte   N96
 .byte   W96
@  #12 @067   ----------------------------------------
 .byte   Dn4
 .byte   W96
@  #12 @068   ----------------------------------------
 .byte   Cn4
 .byte   W96
@  #12 @069   ----------------------------------------
 .byte   N96
 .byte   W96
@  #12 @070   ----------------------------------------
 .byte   N96
 .byte   W96
@  #12 @071   ----------------------------------------
 .byte   Dn4
 .byte   W96
@  #12 @072   ----------------------------------------
 .byte   Cn4
 .byte   W96
@  #12 @073   ----------------------------------------
 .byte   N96
 .byte   W96
@  #12 @074   ----------------------------------------
 .byte   N96
 .byte   W96
@  #12 @075   ----------------------------------------
 .byte   Dn4
 .byte   W96
@  #12 @076   ----------------------------------------
 .byte   GOTO
  .word Label_019AD81E
@  #12 @077   ----------------------------------------
 .byte   VOICE , 111
 .byte   VOL , 24*song03B1_mvl/mxv
 .byte   FINE

@**************** Track 13 (Midi-Chn.12) ****************@

song03B1_013:
@  #13 @000   ----------------------------------------
 .byte   KEYSH , song03B1_key+0
Label_019AD8E6:
 .byte   VOICE , 111
 .byte   VOL , 24*song03B1_mvl/mxv
 .byte   PAN , c_v-64
 .byte   N96 ,Cn3 ,v080
 .byte   W96
@  #13 @001   ----------------------------------------
 .byte   N96
 .byte   W96
@  #13 @002   ----------------------------------------
 .byte   N96
 .byte   W96
@  #13 @003   ----------------------------------------
 .byte   Dn3
 .byte   W96
@  #13 @004   ----------------------------------------
 .byte   Cn3
 .byte   W96
@  #13 @005   ----------------------------------------
 .byte   N96
 .byte   W96
@  #13 @006   ----------------------------------------
 .byte   N96
 .byte   W96
@  #13 @007   ----------------------------------------
 .byte   Dn3
 .byte   W96
@  #13 @008   ----------------------------------------
 .byte   Cn3
 .byte   W96
@  #13 @009   ----------------------------------------
 .byte   N96
 .byte   W96
@  #13 @010   ----------------------------------------
 .byte   N96
 .byte   W96
@  #13 @011   ----------------------------------------
 .byte   Dn3
 .byte   W96
@  #13 @012   ----------------------------------------
 .byte   Cn3
 .byte   W96
@  #13 @013   ----------------------------------------
 .byte   N96
 .byte   W96
@  #13 @014   ----------------------------------------
 .byte   N96
 .byte   W96
@  #13 @015   ----------------------------------------
 .byte   Dn3
 .byte   W96
@  #13 @016   ----------------------------------------
 .byte   Cn3
 .byte   W96
@  #13 @017   ----------------------------------------
 .byte   N96
 .byte   W96
@  #13 @018   ----------------------------------------
 .byte   N96
 .byte   W96
@  #13 @019   ----------------------------------------
 .byte   Dn3
 .byte   W96
@  #13 @020   ----------------------------------------
 .byte   Cn3
 .byte   W96
@  #13 @021   ----------------------------------------
 .byte   N96
 .byte   W96
@  #13 @022   ----------------------------------------
 .byte   N96
 .byte   W96
@  #13 @023   ----------------------------------------
 .byte   Dn3
 .byte   W96
@  #13 @024   ----------------------------------------
 .byte   Cn3
 .byte   W96
@  #13 @025   ----------------------------------------
 .byte   N96
 .byte   W96
@  #13 @026   ----------------------------------------
 .byte   N96
 .byte   W96
@  #13 @027   ----------------------------------------
 .byte   Dn3
 .byte   W96
@  #13 @028   ----------------------------------------
 .byte   Cn3
 .byte   W96
@  #13 @029   ----------------------------------------
 .byte   N96
 .byte   W96
@  #13 @030   ----------------------------------------
 .byte   N96
 .byte   W96
@  #13 @031   ----------------------------------------
 .byte   Dn3
 .byte   W96
@  #13 @032   ----------------------------------------
 .byte   Cn3
 .byte   W96
@  #13 @033   ----------------------------------------
 .byte   N96
 .byte   W96
@  #13 @034   ----------------------------------------
 .byte   N96
 .byte   W96
@  #13 @035   ----------------------------------------
 .byte   Dn3
 .byte   W96
@  #13 @036   ----------------------------------------
 .byte   Cn3
 .byte   W96
@  #13 @037   ----------------------------------------
 .byte   N96
 .byte   W96
@  #13 @038   ----------------------------------------
 .byte   N96
 .byte   W96
@  #13 @039   ----------------------------------------
 .byte   Dn3
 .byte   W96
@  #13 @040   ----------------------------------------
 .byte   Cn3
 .byte   W96
@  #13 @041   ----------------------------------------
 .byte   N96
 .byte   W96
@  #13 @042   ----------------------------------------
 .byte   N96
 .byte   W96
@  #13 @043   ----------------------------------------
 .byte   Dn3
 .byte   W96
@  #13 @044   ----------------------------------------
 .byte   Cn3
 .byte   W96
@  #13 @045   ----------------------------------------
 .byte   N96
 .byte   W96
@  #13 @046   ----------------------------------------
 .byte   N96
 .byte   W96
@  #13 @047   ----------------------------------------
 .byte   Dn3
 .byte   W96
@  #13 @048   ----------------------------------------
 .byte   Cn3
 .byte   W96
@  #13 @049   ----------------------------------------
 .byte   N96
 .byte   W96
@  #13 @050   ----------------------------------------
 .byte   N96
 .byte   W96
@  #13 @051   ----------------------------------------
 .byte   Dn3
 .byte   W96
@  #13 @052   ----------------------------------------
 .byte   W96
@  #13 @053   ----------------------------------------
 .byte   W96
@  #13 @054   ----------------------------------------
 .byte   W96
@  #13 @055   ----------------------------------------
 .byte   W96
@  #13 @056   ----------------------------------------
 .byte   W96
@  #13 @057   ----------------------------------------
 .byte   W96
@  #13 @058   ----------------------------------------
 .byte   VOL , 15*song03B1_mvl/mxv
 .byte   N96 ,Cn3
 .byte   W03
 .byte   VOL , 16*song03B1_mvl/mxv
 .byte   W15
 .byte   VOL , 17*song03B1_mvl/mxv
 .byte   W15
 .byte   VOL , 17*song03B1_mvl/mxv
 .byte   W15
 .byte   VOL , 18*song03B1_mvl/mxv
 .byte   W14
 .byte   VOL , 19*song03B1_mvl/mxv
 .byte   W15
 .byte   VOL , 20*song03B1_mvl/mxv
 .byte   W15
 .byte   VOL , 21*song03B1_mvl/mxv
 .byte   W04
@  #13 @059   ----------------------------------------
 .byte   N96
 .byte   W11
 .byte   VOL , 22*song03B1_mvl/mxv
 .byte   W14
 .byte   VOL , 22*song03B1_mvl/mxv
 .byte   W15
 .byte   VOL , 23*song03B1_mvl/mxv
 .byte   W15
 .byte   VOL , 24*song03B1_mvl/mxv
 .byte   W15
 .byte   VOL , 25*song03B1_mvl/mxv
 .byte   W14
 .byte   VOL , 26*song03B1_mvl/mxv
 .byte   W12
@  #13 @060   ----------------------------------------
 .byte   VOL , 27*song03B1_mvl/mxv
 .byte   N96
 .byte   W96
@  #13 @061   ----------------------------------------
 .byte   N96
 .byte   W96
@  #13 @062   ----------------------------------------
 .byte   N96
 .byte   W96
@  #13 @063   ----------------------------------------
 .byte   Dn3
 .byte   W96
@  #13 @064   ----------------------------------------
 .byte   Cn3
 .byte   W96
@  #13 @065   ----------------------------------------
 .byte   N96
 .byte   W96
@  #13 @066   ----------------------------------------
 .byte   N96
 .byte   W96
@  #13 @067   ----------------------------------------
 .byte   Dn3
 .byte   W96
@  #13 @068   ----------------------------------------
 .byte   Cn3
 .byte   W96
@  #13 @069   ----------------------------------------
 .byte   N96
 .byte   W96
@  #13 @070   ----------------------------------------
 .byte   N96
 .byte   W96
@  #13 @071   ----------------------------------------
 .byte   Dn3
 .byte   W96
@  #13 @072   ----------------------------------------
 .byte   Cn3
 .byte   W96
@  #13 @073   ----------------------------------------
 .byte   N96
 .byte   W96
@  #13 @074   ----------------------------------------
 .byte   N96
 .byte   W96
@  #13 @075   ----------------------------------------
 .byte   Dn3
 .byte   W96
@  #13 @076   ----------------------------------------
 .byte   GOTO
  .word Label_019AD8E6
@  #13 @077   ----------------------------------------
 .byte   VOICE , 111
 .byte   VOL , 24*song03B1_mvl/mxv
 .byte   FINE

@**************** Track 14 (Midi-Chn.13) ****************@

song03B1_014:
@  #14 @000   ----------------------------------------
 .byte   KEYSH , song03B1_key+0
Label_019AD9AE:
 .byte   VOICE , 57
 .byte   PAN , c_v+6
 .byte   VOL , 21*song03B1_mvl/mxv
 .byte   W96
@  #14 @001   ----------------------------------------
 .byte   W96
@  #14 @002   ----------------------------------------
 .byte   W96
@  #14 @003   ----------------------------------------
 .byte   W96
@  #14 @004   ----------------------------------------
 .byte   W96
@  #14 @005   ----------------------------------------
 .byte   W96
@  #14 @006   ----------------------------------------
 .byte   W48
 .byte   N48 ,Fs2 ,v100
 .byte   W48
@  #14 @007   ----------------------------------------
 .byte   Bn2
 .byte   W48
 .byte   Bn2 ,v088
 .byte   N48 ,Dn3 ,v100
 .byte   W48
@  #14 @008   ----------------------------------------
 .byte   TIE ,An2 ,v088
 .byte   TIE ,Cn3 ,v100
 .byte   W96
@  #14 @009   ----------------------------------------
 .byte   W92
 .byte   W02
 .byte   EOT
 .byte   An2 ,v060
 .byte   W02
@  #14 @010   ----------------------------------------
 .byte   TIE ,En3
 .byte   TIE ,An3 ,v112
 .byte   W96
@  #14 @011   ----------------------------------------
 .byte   W48
 .byte   EOT
 .byte   En3 ,v069
 .byte   N48 ,En3 ,v100
 .byte   N48 ,Bn3 ,v112
 .byte   W48
@  #14 @012   ----------------------------------------
 .byte   TIE ,En3 ,v092
 .byte   TIE ,Gn3 ,v100
 .byte   W96
@  #14 @013   ----------------------------------------
 .byte   W96
@  #14 @014   ----------------------------------------
 .byte   EOT
 .byte   En3 ,v067
 .byte   W96
@  #14 @015   ----------------------------------------
 .byte   W96
@  #14 @016   ----------------------------------------
 .byte   W96
@  #14 @017   ----------------------------------------
 .byte   W96
@  #14 @018   ----------------------------------------
 .byte   W96
@  #14 @019   ----------------------------------------
 .byte   W96
@  #14 @020   ----------------------------------------
 .byte   W96
@  #14 @021   ----------------------------------------
 .byte   W96
@  #14 @022   ----------------------------------------
 .byte   W96
@  #14 @023   ----------------------------------------
 .byte   W96
@  #14 @024   ----------------------------------------
 .byte   W96
@  #14 @025   ----------------------------------------
 .byte   W96
@  #14 @026   ----------------------------------------
 .byte   W96
@  #14 @027   ----------------------------------------
 .byte   W96
@  #14 @028   ----------------------------------------
 .byte   W96
@  #14 @029   ----------------------------------------
 .byte   W48
 .byte   N48 ,Gn1 ,v108
 .byte   N48 ,Bn1 ,v116
 .byte   W48
@  #14 @030   ----------------------------------------
 .byte   TIE ,An1 ,v100
 .byte   TIE ,Dn2 ,v112
 .byte   W96
@  #14 @031   ----------------------------------------
 .byte   W48
 .byte   EOT
 .byte   An1 ,v050
 .byte   W48
@  #14 @032   ----------------------------------------
 .byte   W48
 .byte   N48 ,En2 ,v120
 .byte   W48
@  #14 @033   ----------------------------------------
 .byte   En2 ,v112
 .byte   N48 ,Gn2 ,v120
 .byte   W48
 .byte   Gn2 ,v112
 .byte   N48 ,Cn3 ,v120
 .byte   W48
@  #14 @034   ----------------------------------------
 .byte   TIE ,Fs2 ,v112
 .byte   TIE ,Dn3 ,v120
 .byte   W96
@  #14 @035   ----------------------------------------
 .byte   W48
 .byte   EOT
 .byte   Fs2 ,v062
 .byte   W48
@  #14 @036   ----------------------------------------
 .byte   TIE ,Gn2 ,v100
 .byte   TIE ,Cn3 ,v112
 .byte   W96
@  #14 @037   ----------------------------------------
 .byte   W96
@  #14 @038   ----------------------------------------
 .byte   EOT
 .byte   Gn2
 .byte   TIE ,Fn2 ,v100
 .byte   W96
@  #14 @039   ----------------------------------------
 .byte   W96
@  #14 @040   ----------------------------------------
 .byte   EOT
 .byte   EOT
 .byte   Cn3
 .byte   TIE ,En2
 .byte   TIE ,Bn2 ,v112
 .byte   W96
@  #14 @041   ----------------------------------------
 .byte   W96
@  #14 @042   ----------------------------------------
 .byte   W96
@  #14 @043   ----------------------------------------
 .byte   W96
@  #14 @044   ----------------------------------------
 .byte   EOT
 .byte   En2 ,v059
Label_019ADA4E:
 .byte   N08 ,Cn3 ,v080
 .byte   N08 ,En3 ,v100
 .byte   W18
 .byte   Cn3 ,v088
 .byte   N08 ,En3 ,v100
 .byte   W18
 .byte   N06 ,Cn3 ,v080
 .byte   N06 ,En3 ,v100
 .byte   W06
 .byte   Dn3 ,v076
 .byte   N06 ,Fs3 ,v096
 .byte   W06
 .byte   N60 ,En3 ,v076
 .byte   N60 ,Gn3 ,v096
 .byte   W48
 .byte   PEND 
@  #14 @045   ----------------------------------------
 .byte   W16
 .byte   N16 ,An2 ,v088
 .byte   W16
 .byte   Gn2
 .byte   W16
 .byte   Fs2
 .byte   W16
 .byte   En2
 .byte   W16
 .byte   Dn2
 .byte   W16
@  #14 @046   ----------------------------------------
 .byte   N36 ,Bn1 ,v096
 .byte   W36
 .byte   TIE ,En2
 .byte   W60
@  #14 @047   ----------------------------------------
 .byte   W84
 .byte   EOT
 .byte   W12
@  #14 @048   ----------------------------------------
 .byte   PATT
  .word Label_019ADA4E
@  #14 @049   ----------------------------------------
 .byte   W16
 .byte   N16 ,An2 ,v096
 .byte   W16
 .byte   Gn2
 .byte   W16
 .byte   Bn2
 .byte   W16
 .byte   An2
 .byte   W16
 .byte   Gn2
 .byte   W16
@  #14 @050   ----------------------------------------
 .byte   N36 ,Bn1 ,v100
 .byte   N36 ,Ds2 ,v092
 .byte   W36
 .byte   Cs2
 .byte   N36 ,En2 ,v080
 .byte   W36
 .byte   N24 ,Ds2 ,v092
 .byte   N24 ,Fs2 ,v080
 .byte   W24
@  #14 @051   ----------------------------------------
 .byte   N36 ,Ds2 ,v092
 .byte   N36 ,Fs2 ,v080
 .byte   W36
 .byte   En2 ,v100
 .byte   N36 ,Gn2 ,v092
 .byte   W36
 .byte   N24 ,Fs2 ,v112
 .byte   N24 ,An2 ,v100
 .byte   W24
@  #14 @052   ----------------------------------------
 .byte   W96
@  #14 @053   ----------------------------------------
 .byte   W96
@  #14 @054   ----------------------------------------
 .byte   W96
@  #14 @055   ----------------------------------------
 .byte   W96
@  #14 @056   ----------------------------------------
 .byte   W96
@  #14 @057   ----------------------------------------
 .byte   W96
@  #14 @058   ----------------------------------------
 .byte   W96
@  #14 @059   ----------------------------------------
 .byte   W96
@  #14 @060   ----------------------------------------
 .byte   W96
@  #14 @061   ----------------------------------------
 .byte   W96
@  #14 @062   ----------------------------------------
 .byte   W96
@  #14 @063   ----------------------------------------
 .byte   W96
@  #14 @064   ----------------------------------------
 .byte   W96
@  #14 @065   ----------------------------------------
 .byte   W96
@  #14 @066   ----------------------------------------
 .byte   W96
@  #14 @067   ----------------------------------------
 .byte   W96
@  #14 @068   ----------------------------------------
 .byte   W96
@  #14 @069   ----------------------------------------
 .byte   W96
@  #14 @070   ----------------------------------------
 .byte   W96
@  #14 @071   ----------------------------------------
 .byte   W96
@  #14 @072   ----------------------------------------
 .byte   W96
@  #14 @073   ----------------------------------------
 .byte   W96
@  #14 @074   ----------------------------------------
 .byte   W96
@  #14 @075   ----------------------------------------
 .byte   W96
@  #14 @076   ----------------------------------------
 .byte   GOTO
  .word Label_019AD9AE
@  #14 @077   ----------------------------------------
 .byte   VOICE , 57
 .byte   FINE

@******************************************************@
	.align	2

song03B1:
	.byte	14	@ NumTrks
	.byte	0	@ NumBlks
	.byte	song03B1_pri	@ Priority
	.byte	song03B1_rev	@ Reverb.
    
	.word	song03B1_grp
    
	.word	song03B1_001
	.word	song03B1_002
	.word	song03B1_003
	.word	song03B1_004
	.word	song03B1_005
	.word	song03B1_006
	.word	song03B1_007
	.word	song03B1_008
	.word	song03B1_009
	.word	song03B1_010
	.word	song03B1_011
	.word	song03B1_012
	.word	song03B1_013
	.word	song03B1_014

	.end
