//Event file generated from Sappy .s format.
	#include "MPlayDef.event"

	#define	song0146_grp  voicegroup001
	#define	song0146_pri  0
	#define	song0146_rev  0
	#define	song0146_mvl  127
	#define	song0146_key  0
	#define	song0146_tbs  1
	#define	song0146_exg  0
	#define	song0146_cmp  1

	// .rodata
	//	song0146
	ALIGN 4


//**************** Track 1 (Midi-Chn.0) ****************//

song0146_001:
// 000   ----------------------------------------
 BYTE   KEYSH   song0146_key+0
 BYTE   TEMPO   156*song0146_tbs/2
 BYTE   VOICE   60
 BYTE   VOL   31*song0146_mvl/mxv
 BYTE   PAN   c_v+6
 BYTE   W96
// 001   ----------------------------------------
 BYTE   W96
// 002   ----------------------------------------
 BYTE   W96
// 003   ----------------------------------------
 BYTE   W96
// 004   ----------------------------------------
Label_0_01480FEE:
 BYTE   W96
// 005   ----------------------------------------
 BYTE   W96
// 006   ----------------------------------------
 BYTE   W48
 BYTE   N48  Fs2  v108
 BYTE   W48
// 007   ----------------------------------------
 BYTE   Bn2
 BYTE   W48
 BYTE   Dn3
 BYTE   W48
// 008   ----------------------------------------
 BYTE   TIE  Cn3
 BYTE   W96
// 009   ----------------------------------------
Label_0_01480FFC:
 BYTE   W01
 BYTE   W01
 BYTE   W01
 BYTE   W01
 BYTE   W01
 BYTE   W01
 BYTE   W01
 BYTE   W01
 BYTE   W01
 BYTE   W01
 BYTE   W01
 BYTE   W01
 BYTE   W01
 BYTE   W01
 BYTE   W01
 BYTE   W01
 BYTE   W01
 BYTE   W01
 BYTE   W01
 BYTE   W01
 BYTE   W01
 BYTE   W01
 BYTE   W01
 BYTE   W01
 BYTE   W01
 BYTE   W01
 BYTE   W01
 BYTE   W01
 BYTE   W01
 BYTE   W01
 BYTE   W01
 BYTE   W01
 BYTE   W01
 BYTE   W01
 BYTE   W01
 BYTE   W01
 BYTE   W01
 BYTE   W01
 BYTE   W01
 BYTE   W01
 BYTE   W01
 BYTE   W01
 BYTE   W01
 BYTE   W01
 BYTE   W01
 BYTE   W01
 BYTE   W01
 BYTE   W01
 BYTE   W01
 BYTE   W01
 BYTE   W01
 BYTE   W01
 BYTE   W01
 BYTE   W01
 BYTE   W01
 BYTE   W01
 BYTE   W01
 BYTE   W01
 BYTE   W01
 BYTE   W01
 BYTE   W01
 BYTE   W01
 BYTE   W01
 BYTE   W01
 BYTE   W01
 BYTE   W01
 BYTE   W01
 BYTE   W01
 BYTE   W01
 BYTE   W01
 BYTE   W01
 BYTE   W01
 BYTE   W01
 BYTE   W01
 BYTE   W01
 BYTE   W01
 BYTE   W01
 BYTE   W01
 BYTE   W01
 BYTE   W01
 BYTE   W01
 BYTE   W01
 BYTE   W01
 BYTE   W01
 BYTE   W01
 BYTE   W01
 BYTE   W01
 BYTE   W01
 BYTE   W01
 BYTE   W01
 BYTE   W01
 BYTE   W01
 BYTE   W01
 BYTE   W01
 BYTE   W01
 BYTE   W01
 BYTE   PEND 
// 010   ----------------------------------------
 BYTE   EOT
 BYTE   Cn3
 BYTE   W96
// 011   ----------------------------------------
 BYTE   W96
// 012   ----------------------------------------
 BYTE   N96  Bn2  v127
 BYTE   W96
// 013   ----------------------------------------
 BYTE   En3
 BYTE   W96
// 014   ----------------------------------------
 BYTE   W48
 BYTE   N48  Dn3
 BYTE   W48
// 015   ----------------------------------------
 BYTE   Fs3
 BYTE   W48
 BYTE   An3
 BYTE   W48
// 016   ----------------------------------------
 BYTE   N96  Gn3
 BYTE   W96
// 017   ----------------------------------------
 BYTE   Cn4
 BYTE   W96
// 018   ----------------------------------------
 BYTE   N48  Bn3
 BYTE   W48
 BYTE   N72  Fs3
 BYTE   W48
// 019   ----------------------------------------
 BYTE   W48
 BYTE   N48  Gn3
 BYTE   W48
// 020   ----------------------------------------
 BYTE   N96  En3
 BYTE   W96
// 021   ----------------------------------------
 BYTE   TIE  Bn3
 BYTE   W96
// 022   ----------------------------------------
 BYTE   W24
 BYTE   EOT
 BYTE   W24
 BYTE   N48  An3
 BYTE   W48
// 023   ----------------------------------------
 BYTE   Gn3
 BYTE   W48
 BYTE   Fs3
 BYTE   W48
// 024   ----------------------------------------
 BYTE   TIE  En3
 BYTE   W96
// 025   ----------------------------------------
 BYTE   W96
// 026   ----------------------------------------
 BYTE   EOT
 BYTE   W96
// 027   ----------------------------------------
 BYTE   W96
// 028   ----------------------------------------
 BYTE   N96  Bn2
 BYTE   W96
// 029   ----------------------------------------
 BYTE   Bn2  v108
 BYTE   N96  En3  v127
 BYTE   W96
// 030   ----------------------------------------
 BYTE   W48
 BYTE   N48  Dn3
 BYTE   W48
// 031   ----------------------------------------
 BYTE   Dn3  v108
 BYTE   N48  Fs3  v127
 BYTE   W48
 BYTE   Fs3  v108
 BYTE   N48  An3  v127
 BYTE   W48
// 032   ----------------------------------------
 BYTE   N96  En3  v108
 BYTE   N96  Gn3  v127
 BYTE   W96
// 033   ----------------------------------------
 BYTE   Gn3  v108
 BYTE   N96  Cn4  v127
 BYTE   W96
// 034   ----------------------------------------
 BYTE   N48  Fs3  v108
 BYTE   N48  Bn3  v127
 BYTE   W48
 BYTE   N72  Dn3  v108
 BYTE   N72  Fs3  v127
 BYTE   W48
// 035   ----------------------------------------
 BYTE   W48
 BYTE   N48  En3  v108
 BYTE   N48  Gn3  v127
 BYTE   W48
// 036   ----------------------------------------
 BYTE   N96  Cn3  v108
 BYTE   N96  En3  v127
 BYTE   W96
// 037   ----------------------------------------
Label_0_014810D8:
 BYTE   TIE  Gn3  v108
 BYTE   TIE  Bn3  v127
 BYTE   W96
 BYTE   PEND 
// 038   ----------------------------------------
 BYTE   W24
 BYTE   EOT
 BYTE   Gn3  v071
 BYTE   W24
 BYTE   N48  Fn3  v108
 BYTE   N48  An3  v127
 BYTE   W48
// 039   ----------------------------------------
 BYTE   An3  v108
 BYTE   N48  Dn4  v127
 BYTE   W48
 BYTE   An3  v108
 BYTE   N48  Cn4  v127
 BYTE   W48
// 040   ----------------------------------------
 BYTE   PATT
  POIN2 Label_0_014810D8
// 041   ----------------------------------------
 BYTE   W96
// 042   ----------------------------------------
 BYTE   EOT
 BYTE   Gn3  v071
 BYTE   W96
// 043   ----------------------------------------
 BYTE   W96
// 044   ----------------------------------------
 BYTE   W96
// 045   ----------------------------------------
 BYTE   W96
// 046   ----------------------------------------
 BYTE   W48
 BYTE   N48  Gn2  v127
 BYTE   W48
// 047   ----------------------------------------
 BYTE   Bn2
 BYTE   W48
 BYTE   Bn2  v108
 BYTE   N48  Dn3  v127
 BYTE   W48
// 048   ----------------------------------------
 BYTE   TIE  Cn3  v100
 BYTE   TIE  En3  v127
 BYTE   W96
// 049   ----------------------------------------
 BYTE   PATT
  POIN2 Label_0_01480FFC
// 050   ----------------------------------------
 BYTE   EOT
 BYTE   Cn3  v064
 BYTE   W96
// 051   ----------------------------------------
 BYTE   VOICE   0
 BYTE   VOL   29*song0146_mvl/mxv
 BYTE   PAN   c_v+0
 BYTE   W96
// 052   ----------------------------------------
 BYTE   TIE  En0  v120
 BYTE   TIE  En1  v112
 BYTE   W96
// 053   ----------------------------------------
 BYTE   W96
// 054   ----------------------------------------
 BYTE   EOT
 BYTE   En0  v040
 BYTE   W96
// 055   ----------------------------------------
 BYTE   W96
// 056   ----------------------------------------
 BYTE   W96
// 057   ----------------------------------------
 BYTE   W96
// 058   ----------------------------------------
 BYTE   VOICE   60
 BYTE   VOL   29*song0146_mvl/mxv
 BYTE   PAN   c_v+6
 BYTE   W96
// 059   ----------------------------------------
 BYTE   W96
// 060   ----------------------------------------
 BYTE   N84  En2  v127
 BYTE   W96
// 061   ----------------------------------------
 BYTE   N36
 BYTE   W36
 BYTE   Fs2
 BYTE   W36
 BYTE   N24  En2  v100
 BYTE   N24  Gn2  v127
 BYTE   W24
// 062   ----------------------------------------
 BYTE   N96  Fn2  v100
 BYTE   N96  An2  v127
 BYTE   W96
// 063   ----------------------------------------
 BYTE   Dn2  v100
 BYTE   N96  Fn2  v127
 BYTE   W96
// 064   ----------------------------------------
 BYTE   Bn1  v100
 BYTE   N96  En2  v127
 BYTE   W96
// 065   ----------------------------------------
 BYTE   N36  En2  v100
 BYTE   N36  Gn2  v127
 BYTE   W36
 BYTE   Gn2  v100
 BYTE   N36  Bn2  v127
 BYTE   W36
 BYTE   N24  Bn2  v100
 BYTE   N24  Gn3  v127
 BYTE   W24
// 066   ----------------------------------------
 BYTE   TIE  An2  v100
 BYTE   N96  Fn3  v127
 BYTE   W96
// 067   ----------------------------------------
 BYTE   Dn3
 BYTE   W96
// 068   ----------------------------------------
 BYTE   EOT
 BYTE   An2
 BYTE   N36  Bn2  v112
 BYTE   N36  En3  v127
 BYTE   W36
 BYTE   Bn2  v112
 BYTE   N36  Fs3  v127
 BYTE   W36
 BYTE   N24  Bn2  v112
 BYTE   N24  Gn3  v127
 BYTE   W24
// 069   ----------------------------------------
 BYTE   TIE  En3  v112
 BYTE   TIE  An3  v127
 BYTE   W96
// 070   ----------------------------------------
 BYTE   W24
 BYTE   EOT
 BYTE   En3  v069
 BYTE   W12
 BYTE   N36  Fn3  v112
 BYTE   N36  Bn3  v127
 BYTE   W36
 BYTE   N24  Fn3  v112
 BYTE   N24  An3  v127
 BYTE   W24
// 071   ----------------------------------------
 BYTE   N36  An3  v112
 BYTE   N36  Cn4  v127
 BYTE   W36
 BYTE   Gn3  v112
 BYTE   N36  Bn3  v127
 BYTE   W36
 BYTE   N24  Fn3  v112
 BYTE   N24  An3  v127
 BYTE   W24
// 072   ----------------------------------------
 BYTE   N36  Gn3  v112
 BYTE   N36  Bn3  v127
 BYTE   W36
 BYTE   En3  v112
 BYTE   N36  Gn3  v127
 BYTE   W36
 BYTE   TIE  Bn2  v112
 BYTE   TIE  En3  v127
 BYTE   W24
// 073   ----------------------------------------
 BYTE   W96
// 074   ----------------------------------------
 BYTE   W24
 BYTE   EOT
 BYTE   Bn2  v064
 BYTE   W12
 BYTE   N36  An2  v112
 BYTE   N36  Dn3  v127
 BYTE   W36
 BYTE   N24  An3  v112
 BYTE   N24  Cn4  v127
 BYTE   W24
// 075   ----------------------------------------
 BYTE   N36  Fn3  v112
 BYTE   N36  An3  v127
 BYTE   W36
 BYTE   Fn3  v112
 BYTE   N36  Bn3  v127
 BYTE   W36
 BYTE   N24  Fn3  v112
 BYTE   N24  Cn4  v127
 BYTE   W24
// 076   ----------------------------------------
 BYTE   TIE  En3  v100
 BYTE   TIE  Bn3  v120
 BYTE   W72
 BYTE   W01
 BYTE   W01
 BYTE   W01
 BYTE   W01
 BYTE   W01
 BYTE   W01
 BYTE   W01
 BYTE   W02
 BYTE   W01
 BYTE   W01
 BYTE   W01
 BYTE   W02
 BYTE   W01
 BYTE   W01
 BYTE   W01
 BYTE   W01
 BYTE   W01
 BYTE   W01
 BYTE   W01
 BYTE   W02
 BYTE   W01
// 077   ----------------------------------------
 BYTE   W01
 BYTE   W01
 BYTE   W02
 BYTE   W01
 BYTE   W01
 BYTE   W01
 BYTE   W02
 BYTE   W01
 BYTE   W01
 BYTE   W01
 BYTE   W01
 BYTE   W01
 BYTE   W01
 BYTE   W01
 BYTE   W02
 BYTE   W01
 BYTE   W01
 BYTE   W01
 BYTE   W02
 BYTE   W01
 BYTE   W01
 BYTE   W01
 BYTE   W01
 BYTE   W01
 BYTE   W01
 BYTE   W01
 BYTE   W02
 BYTE   W01
 BYTE   W01
 BYTE   W01
 BYTE   W02
 BYTE   W01
 BYTE   W01
 BYTE   W01
 BYTE   W02
 BYTE   W01
 BYTE   W01
 BYTE   W01
 BYTE   W01
 BYTE   W01
 BYTE   W01
 BYTE   W01
 BYTE   W02
 BYTE   W01
 BYTE   W01
 BYTE   W01
 BYTE   W02
 BYTE   W01
 BYTE   W01
 BYTE   W01
 BYTE   W02
 BYTE   W01
 BYTE   W01
 BYTE   W01
 BYTE   W01
 BYTE   W01
 BYTE   W01
 BYTE   W01
 BYTE   W02
 BYTE   W01
 BYTE   W01
 BYTE   W01
 BYTE   W02
 BYTE   W01
 BYTE   W01
 BYTE   W01
 BYTE   W01
 BYTE   W01
 BYTE   W01
 BYTE   W01
 BYTE   W02
 BYTE   W01
 BYTE   W01
 BYTE   W01
 BYTE   W02
 BYTE   W01
 BYTE   W01
 BYTE   W01
 BYTE   W02
 BYTE   W01
 BYTE   W01
// 078   ----------------------------------------
 BYTE   EOT
 BYTE   En3  v071
 BYTE   W96
// 079   ----------------------------------------
 BYTE   W96
// 080   ----------------------------------------
 BYTE   GoTo
  POIN2 Label_0_01480FEE
 BYTE   FINE

//**************** Track 2 (Midi-Chn.1) ****************//

song0146_002:
// 000   ----------------------------------------
 BYTE   KEYSH   song0146_key+0
 BYTE   VOICE   60
 BYTE   VOL   29*song0146_mvl/mxv
 BYTE   PAN   c_v+10
 BYTE   W96
// 001   ----------------------------------------
 BYTE   W96
// 002   ----------------------------------------
 BYTE   W96
// 003   ----------------------------------------
 BYTE   W96
// 004   ----------------------------------------
Label_1_014537D4:
 BYTE   N96  Fs3  v100
 BYTE   N96  An3
 BYTE   W96
// 005   ----------------------------------------
 BYTE   Fs3
 BYTE   N96  Bn3
 BYTE   W96
// 006   ----------------------------------------
 BYTE   TIE  Dn3
 BYTE   TIE  Fs3
 BYTE   W96
// 007   ----------------------------------------
 BYTE   W96
// 008   ----------------------------------------
 BYTE   EOT
 BYTE   Dn3  v066
 BYTE   TIE  Cn3
 BYTE   TIE  En3
 BYTE   W96
// 009   ----------------------------------------
 BYTE   W96
// 010   ----------------------------------------
 BYTE   EOT
 BYTE   Cn3  v064
 BYTE   TIE
 BYTE   TIE  An3
 BYTE   W96
// 011   ----------------------------------------
 BYTE   W96
// 012   ----------------------------------------
 BYTE   EOT
 BYTE   En3  v069
 BYTE   W96
// 013   ----------------------------------------
 BYTE   W96
// 014   ----------------------------------------
 BYTE   W96
// 015   ----------------------------------------
 BYTE   W96
// 016   ----------------------------------------
 BYTE   W96
// 017   ----------------------------------------
 BYTE   W96
// 018   ----------------------------------------
 BYTE   W96
// 019   ----------------------------------------
 BYTE   W96
// 020   ----------------------------------------
 BYTE   W96
// 021   ----------------------------------------
 BYTE   W96
// 022   ----------------------------------------
 BYTE   W96
// 023   ----------------------------------------
 BYTE   W96
// 024   ----------------------------------------
 BYTE   W96
// 025   ----------------------------------------
 BYTE   W96
// 026   ----------------------------------------
 BYTE   W96
// 027   ----------------------------------------
 BYTE   W96
// 028   ----------------------------------------
 BYTE   W96
// 029   ----------------------------------------
 BYTE   W96
// 030   ----------------------------------------
 BYTE   W96
// 031   ----------------------------------------
 BYTE   W96
// 032   ----------------------------------------
 BYTE   W96
// 033   ----------------------------------------
 BYTE   W96
// 034   ----------------------------------------
 BYTE   W96
// 035   ----------------------------------------
 BYTE   W96
// 036   ----------------------------------------
 BYTE   W96
// 037   ----------------------------------------
 BYTE   W96
// 038   ----------------------------------------
 BYTE   W96
// 039   ----------------------------------------
 BYTE   W96
// 040   ----------------------------------------
 BYTE   W96
// 041   ----------------------------------------
 BYTE   W96
// 042   ----------------------------------------
 BYTE   W96
// 043   ----------------------------------------
 BYTE   W96
// 044   ----------------------------------------
 BYTE   W96
// 045   ----------------------------------------
 BYTE   W96
// 046   ----------------------------------------
 BYTE   W96
// 047   ----------------------------------------
 BYTE   W96
// 048   ----------------------------------------
 BYTE   W96
// 049   ----------------------------------------
 BYTE   W96
// 050   ----------------------------------------
 BYTE   W96
// 051   ----------------------------------------
 BYTE   VOICE   19
 BYTE   VOL   24*song0146_mvl/mxv
 BYTE   PAN   c_v+0
 BYTE   W96
// 052   ----------------------------------------
 BYTE   TIE  En1  v092
 BYTE   TIE  En2
 BYTE   W96
// 053   ----------------------------------------
 BYTE   W96
// 054   ----------------------------------------
 BYTE   EOT
 BYTE   En1  v052
 BYTE   TIE  Fs1
 BYTE   TIE  Fs2
 BYTE   W96
// 055   ----------------------------------------
 BYTE   W96
// 056   ----------------------------------------
 BYTE   EOT
 BYTE   Fs1  v054
 BYTE   TIE  An1
 BYTE   TIE  An2
 BYTE   W96
// 057   ----------------------------------------
 BYTE   W96
// 058   ----------------------------------------
 BYTE   EOT
 BYTE   An1  v057
 BYTE   N96  Bn1
 BYTE   N96  Bn2
 BYTE   W96
// 059   ----------------------------------------
 BYTE   Bn0
 BYTE   N96  Bn1
 BYTE   W96
// 060   ----------------------------------------
 BYTE   W96
// 061   ----------------------------------------
 BYTE   W96
// 062   ----------------------------------------
 BYTE   W96
// 063   ----------------------------------------
 BYTE   W96
// 064   ----------------------------------------
 BYTE   W96
// 065   ----------------------------------------
 BYTE   W96
// 066   ----------------------------------------
 BYTE   W96
// 067   ----------------------------------------
 BYTE   W96
// 068   ----------------------------------------
 BYTE   W96
// 069   ----------------------------------------
 BYTE   W96
// 070   ----------------------------------------
 BYTE   W96
// 071   ----------------------------------------
 BYTE   W96
// 072   ----------------------------------------
 BYTE   W96
// 073   ----------------------------------------
 BYTE   W96
// 074   ----------------------------------------
 BYTE   VOICE   60
 BYTE   VOL   29*song0146_mvl/mxv
 BYTE   PAN   c_v+10
 BYTE   W96
// 075   ----------------------------------------
 BYTE   W96
// 076   ----------------------------------------
 BYTE   W96
// 077   ----------------------------------------
 BYTE   W96
// 078   ----------------------------------------
 BYTE   W96
// 079   ----------------------------------------
 BYTE   W96
// 080   ----------------------------------------
 BYTE   GoTo
  POIN2 Label_1_014537D4
 BYTE   FINE

//**************** Track 3 (Midi-Chn.2) ****************//

song0146_003:
// 000   ----------------------------------------
 BYTE   KEYSH   song0146_key+0
 BYTE   VOICE   48
 BYTE   PAN   c_v-8
 BYTE   W96
// 001   ----------------------------------------
 BYTE   W96
// 002   ----------------------------------------
 BYTE   W96
// 003   ----------------------------------------
 BYTE   W96
// 004   ----------------------------------------
Label_2_01481282:
 BYTE   W96
// 005   ----------------------------------------
 BYTE   W96
// 006   ----------------------------------------
 BYTE   W96
// 007   ----------------------------------------
 BYTE   W96
// 008   ----------------------------------------
 BYTE   W96
// 009   ----------------------------------------
 BYTE   W96
// 010   ----------------------------------------
 BYTE   W96
// 011   ----------------------------------------
 BYTE   VOL   24*song0146_mvl/mxv
 BYTE   W96
// 012   ----------------------------------------
Label_2_0148128C:
 BYTE   TIE  Bn2  v100
 BYTE   TIE  En3
 BYTE   TIE  Gn3
 BYTE   W96
 BYTE   PEND 
// 013   ----------------------------------------
 BYTE   W96
// 014   ----------------------------------------
 BYTE   EOT
 BYTE   Bn2  v064
 BYTE   Gn3
Label_2_0148129A:
 BYTE   TIE  Bn2  v100
 BYTE   TIE  Dn3
 BYTE   TIE  Fs3
 BYTE   W96
 BYTE   PEND 
// 015   ----------------------------------------
 BYTE   W96
// 016   ----------------------------------------
 BYTE   EOT
 BYTE   Bn2  v062
 BYTE   Fs3
Label_2_014812A8:
 BYTE   TIE  Bn2  v100
 BYTE   TIE  Cn3
 BYTE   TIE  En3
 BYTE   W96
 BYTE   PEND 
// 017   ----------------------------------------
 BYTE   W96
// 018   ----------------------------------------
 BYTE   EOT
 BYTE   Bn2  v060
 BYTE   En3
// 019   ----------------------------------------
 BYTE   PATT
  POIN2 Label_2_0148129A
// 020   ----------------------------------------
 BYTE   W96
// 021   ----------------------------------------
 BYTE   EOT
 BYTE   Bn2  v062
 BYTE   Fs3
Label_2_014812C0:
 BYTE   N96  Dn3  v108
 BYTE   TIE  En3  v096
 BYTE   TIE  Gn3
 BYTE   W96
 BYTE   PEND 
// 022   ----------------------------------------
 BYTE   N96  Cn3  v108
 BYTE   W96
// 023   ----------------------------------------
 BYTE   Bn2
 BYTE   W96
// 024   ----------------------------------------
 BYTE   Cn3
 BYTE   W96
// 025   ----------------------------------------
 BYTE   EOT
 BYTE   En3  v067
 BYTE   TIE  Bn2  v080
 BYTE   TIE  En3
 BYTE   TIE  Gn3
 BYTE   W96
// 026   ----------------------------------------
 BYTE   W96
// 027   ----------------------------------------
 BYTE   EOT
 BYTE   Bn2  v064
 BYTE   Gn3
 BYTE   N96  Bn2  v088
 BYTE   TIE  En3  v076
 BYTE   N96  Fs3  v088
 BYTE   W96
// 028   ----------------------------------------
 BYTE   Bn3
 BYTE   N96  Dn4
 BYTE   W96
// 029   ----------------------------------------
 BYTE   EOT
 BYTE   En3
// 030   ----------------------------------------
 BYTE   PATT
  POIN2 Label_2_0148128C
// 031   ----------------------------------------
 BYTE   W96
// 032   ----------------------------------------
 BYTE   EOT
 BYTE   Bn2  v064
 BYTE   Gn3
// 033   ----------------------------------------
 BYTE   PATT
  POIN2 Label_2_0148129A
// 034   ----------------------------------------
 BYTE   W96
// 035   ----------------------------------------
 BYTE   EOT
 BYTE   Bn2  v062
 BYTE   Fs3
// 036   ----------------------------------------
 BYTE   PATT
  POIN2 Label_2_014812A8
// 037   ----------------------------------------
 BYTE   W96
// 038   ----------------------------------------
 BYTE   EOT
 BYTE   Bn2  v060
 BYTE   En3
// 039   ----------------------------------------
 BYTE   PATT
  POIN2 Label_2_0148129A
// 040   ----------------------------------------
 BYTE   W96
// 041   ----------------------------------------
 BYTE   EOT
 BYTE   Bn2  v062
 BYTE   Fs3
// 042   ----------------------------------------
 BYTE   PATT
  POIN2 Label_2_014812C0
// 043   ----------------------------------------
 BYTE   N96  Cn3  v108
 BYTE   W96
// 044   ----------------------------------------
 BYTE   EOT
 BYTE   En3  v067
 BYTE   N96  En3
 BYTE   TIE  Fn3  v096
 BYTE   TIE  An3
 BYTE   W96
// 045   ----------------------------------------
 BYTE   N96  Cn3  v108
 BYTE   W96
// 046   ----------------------------------------
 BYTE   EOT
 BYTE   Fn3  v069
// 047   ----------------------------------------
 BYTE   PATT
  POIN2 Label_2_0148128C
// 048   ----------------------------------------
 BYTE   W96
// 049   ----------------------------------------
 BYTE   EOT
 BYTE   Bn2  v064
 BYTE   Gn3
 BYTE   TIE  Bn2  v127
 BYTE   TIE  En3  v116
 BYTE   N96  Fs3  v127
 BYTE   W02
 BYTE   W03
 BYTE   W03
 BYTE   W03
 BYTE   W03
 BYTE   W03
 BYTE   W03
 BYTE   W02
 BYTE   W03
 BYTE   W03
 BYTE   W03
 BYTE   W03
 BYTE   W03
 BYTE   W03
 BYTE   W02
 BYTE   W03
 BYTE   W03
 BYTE   W03
 BYTE   W03
 BYTE   W03
 BYTE   W03
 BYTE   W03
 BYTE   W02
 BYTE   W03
 BYTE   W03
 BYTE   W03
 BYTE   W03
 BYTE   W03
 BYTE   W03
 BYTE   W02
 BYTE   W03
 BYTE   W03
 BYTE   W03
 BYTE   W02
// 050   ----------------------------------------
 BYTE   Bn3
 BYTE   N96  Dn4
 BYTE   W01
 BYTE   W01
 BYTE   W02
 BYTE   W01
 BYTE   W02
 BYTE   W01
 BYTE   W02
 BYTE   W01
 BYTE   W01
 BYTE   W02
 BYTE   W01
 BYTE   W02
 BYTE   W01
 BYTE   W02
 BYTE   W01
 BYTE   W01
 BYTE   W02
 BYTE   W01
 BYTE   W02
 BYTE   W01
 BYTE   W02
 BYTE   W01
 BYTE   W01
 BYTE   W02
 BYTE   W01
 BYTE   W02
 BYTE   W01
 BYTE   W02
 BYTE   W01
 BYTE   W01
 BYTE   W02
 BYTE   W01
 BYTE   W02
 BYTE   W01
 BYTE   W02
 BYTE   W01
 BYTE   W02
 BYTE   W01
 BYTE   W01
 BYTE   W02
 BYTE   W01
 BYTE   W02
 BYTE   W01
 BYTE   W02
 BYTE   W01
 BYTE   W01
 BYTE   W02
 BYTE   W01
 BYTE   W02
 BYTE   W01
 BYTE   W02
 BYTE   W01
 BYTE   W01
 BYTE   W02
 BYTE   W01
 BYTE   W02
 BYTE   W01
 BYTE   W02
 BYTE   W01
 BYTE   W01
 BYTE   W02
 BYTE   W01
 BYTE   W02
 BYTE   W01
 BYTE   W02
 BYTE   W01
 BYTE   W02
// 051   ----------------------------------------
 BYTE   EOT
 BYTE   Bn2  v064
 BYTE   VOL   21*song0146_mvl/mxv
 BYTE   TIE  Bn4  v100
 BYTE   TIE  En5
 BYTE   W96
// 052   ----------------------------------------
 BYTE   W96
// 053   ----------------------------------------
 BYTE   EOT
 BYTE   Bn4  v088
 BYTE   TIE  Gn4
 BYTE   TIE  Bn4
 BYTE   W96
// 054   ----------------------------------------
 BYTE   W96
// 055   ----------------------------------------
 BYTE   EOT
 BYTE   Gn4  v083
 BYTE   TIE
 BYTE   TIE  En5
 BYTE   W96
// 056   ----------------------------------------
 BYTE   W96
// 057   ----------------------------------------
 BYTE   EOT
 BYTE   Bn4  v088
 BYTE   N36  Gn4
 BYTE   N36  Bn4
 BYTE   W36
 BYTE   Fs4
 BYTE   N36  An4
 BYTE   W36
 BYTE   N24  En4
 BYTE   N24  Gn4
 BYTE   W24
// 058   ----------------------------------------
 BYTE   N36  Fs4
 BYTE   N36  An4
 BYTE   W36
 BYTE   En4
 BYTE   N36  Gn4
 BYTE   W36
 BYTE   N24  Ds4
 BYTE   N24  Fs4
 BYTE   W24
// 059   ----------------------------------------
 BYTE   W96
// 060   ----------------------------------------
 BYTE   W96
// 061   ----------------------------------------
 BYTE   W96
// 062   ----------------------------------------
 BYTE   W96
// 063   ----------------------------------------
 BYTE   W96
// 064   ----------------------------------------
 BYTE   W96
// 065   ----------------------------------------
 BYTE   W96
// 066   ----------------------------------------
 BYTE   W72
 BYTE   N04  Ds3
 BYTE   N04  Fs3
 BYTE   W04
 BYTE   En3
 BYTE   N04  Gn3
 BYTE   W04
 BYTE   Fs3
 BYTE   N04  An3
 BYTE   W04
 BYTE   Gn3
 BYTE   N04  Bn3
 BYTE   W04
 BYTE   An3
 BYTE   N04  Cn4
 BYTE   W04
 BYTE   Bn3
 BYTE   N04  Dn4
 BYTE   W04
// 067   ----------------------------------------
 BYTE   N36  Bn3
 BYTE   N36  En4
 BYTE   W36
 BYTE   Bn3
 BYTE   N36  Fs4
 BYTE   W36
 BYTE   N24  Bn3
 BYTE   N24  Gn4
 BYTE   W24
// 068   ----------------------------------------
 BYTE   TIE  En4
 BYTE   TIE  An4
 BYTE   W96
// 069   ----------------------------------------
 BYTE   W24
 BYTE   EOT
 BYTE   En4  v081
 BYTE   W12
 BYTE   N36  Fn4
 BYTE   N36  Bn4
 BYTE   W36
 BYTE   N24  Fn4
 BYTE   N24  An4
 BYTE   W24
// 070   ----------------------------------------
 BYTE   N36
 BYTE   N36  Cn5
 BYTE   W36
 BYTE   Gn4
 BYTE   N36  Bn4
 BYTE   W36
 BYTE   N24  Fn4
 BYTE   N24  An4
 BYTE   W24
// 071   ----------------------------------------
 BYTE   N36  Gn4
 BYTE   N36  Bn4
 BYTE   W36
 BYTE   En4
 BYTE   N36  Gn4
 BYTE   W36
 BYTE   TIE  Bn3
 BYTE   TIE  En4
 BYTE   W24
// 072   ----------------------------------------
 BYTE   W96
// 073   ----------------------------------------
 BYTE   W24
 BYTE   EOT
 BYTE   Bn3  v076
 BYTE   W12
 BYTE   N36  An3
 BYTE   N36  Dn4
 BYTE   W36
 BYTE   N24  An4
 BYTE   N24  Cn5
 BYTE   W24
// 074   ----------------------------------------
 BYTE   N36  Fn4
 BYTE   N36  An4
 BYTE   W36
 BYTE   Fn4
 BYTE   N36  Bn4
 BYTE   W36
 BYTE   N24  Fn4
 BYTE   N24  Cn5
 BYTE   W24
// 075   ----------------------------------------
 BYTE   N96  En4
 BYTE   N96  Bn4
 BYTE   W96
// 076   ----------------------------------------
 BYTE   An3
 BYTE   N96  En4
 BYTE   W96
// 077   ----------------------------------------
 BYTE   An3
 BYTE   N96  Cn4
 BYTE   W96
// 078   ----------------------------------------
 BYTE   N36
 BYTE   N36  En4
 BYTE   W36
 BYTE   Bn3
 BYTE   N36  Dn4
 BYTE   W36
 BYTE   N24  An3
 BYTE   N24  Cn4
 BYTE   W24
// 079   ----------------------------------------
 BYTE   N96  Gn3
 BYTE   N96  Bn3
 BYTE   W96
// 080   ----------------------------------------
 BYTE   N36
 BYTE   N36  En4
 BYTE   W36
 BYTE   N36
 BYTE   N36  Bn4
 BYTE   W36
 BYTE   N24
 BYTE   N24  Gn5
 BYTE   W24
// 081   ----------------------------------------
 BYTE   N96  An4
 BYTE   N96  Fn5
 BYTE   W96
// 082   ----------------------------------------
 BYTE   An4
 BYTE   N96  Dn5
 BYTE   W96
// 083   ----------------------------------------
 BYTE   TIE  Bn4
 BYTE   TIE  En5
 BYTE   W72
 BYTE   W01
 BYTE   W01
 BYTE   W01
 BYTE   W01
 BYTE   W01
 BYTE   W01
 BYTE   W01
 BYTE   W02
 BYTE   W01
 BYTE   W01
 BYTE   W01
 BYTE   W02
 BYTE   W01
 BYTE   W01
 BYTE   W01
 BYTE   W01
 BYTE   W01
 BYTE   W01
 BYTE   W01
 BYTE   W02
 BYTE   W01
// 084   ----------------------------------------
 BYTE   W01
 BYTE   W01
 BYTE   W02
 BYTE   W01
 BYTE   W01
 BYTE   W01
 BYTE   W02
 BYTE   W01
 BYTE   W01
 BYTE   W01
 BYTE   W01
 BYTE   W01
 BYTE   W01
 BYTE   W01
 BYTE   W02
 BYTE   W01
 BYTE   W01
 BYTE   W01
 BYTE   W02
 BYTE   W01
 BYTE   W01
 BYTE   W01
 BYTE   W01
 BYTE   W01
 BYTE   W01
 BYTE   W01
 BYTE   W02
 BYTE   W01
 BYTE   W01
 BYTE   W01
 BYTE   W02
 BYTE   W01
 BYTE   W01
 BYTE   W01
 BYTE   W02
 BYTE   W01
 BYTE   W01
 BYTE   W01
 BYTE   W01
 BYTE   W01
 BYTE   W01
 BYTE   W01
 BYTE   W02
 BYTE   W01
 BYTE   W01
 BYTE   W01
 BYTE   W02
 BYTE   W01
 BYTE   W01
 BYTE   W01
 BYTE   W02
 BYTE   W01
 BYTE   W01
 BYTE   W01
 BYTE   W01
 BYTE   W01
 BYTE   W01
 BYTE   W01
 BYTE   W02
 BYTE   W01
 BYTE   W01
 BYTE   W01
 BYTE   W02
 BYTE   W01
 BYTE   W01
 BYTE   W01
 BYTE   W01
 BYTE   W01
 BYTE   W01
 BYTE   W01
 BYTE   W02
 BYTE   W01
 BYTE   W01
 BYTE   W01
 BYTE   W02
 BYTE   W01
 BYTE   W01
 BYTE   W01
 BYTE   W02
 BYTE   W01
 BYTE   W01
// 085   ----------------------------------------
 BYTE   EOT
 BYTE   Bn4  v088
 BYTE   W96
// 086   ----------------------------------------
 BYTE   W96
// 087   ----------------------------------------
 BYTE   GoTo
  POIN2 Label_2_01481282
 BYTE   FINE

//**************** Track 4 (Midi-Chn.3) ****************//

song0146_004:
// 000   ----------------------------------------
 BYTE   KEYSH   song0146_key+0
 BYTE   VOICE   48
 BYTE   VOL   24*song0146_mvl/mxv
 BYTE   PAN   c_v-4
 BYTE   TIE  Bn1  v100
 BYTE   TIE  En2
 BYTE   W96
// 001   ----------------------------------------
 BYTE   N96  Bn2
 BYTE   W96
// 002   ----------------------------------------
Label_3_014544FD:
 BYTE   TIE  An2  v080
 BYTE   N96  Cn3  v100
 BYTE   W96
 BYTE   PEND 
// 003   ----------------------------------------
 BYTE   Dn3
 BYTE   W96
// 004   ----------------------------------------
 BYTE   EOT
 BYTE   Bn1  v052
 BYTE   An2
Label_3_0145450B:
 BYTE   N96  En3  v096
 BYTE   N96  Fs3
 BYTE   W96
// 005   ----------------------------------------
 BYTE   En3
 BYTE   N96  Fs3
 BYTE   W96
// 006   ----------------------------------------
 BYTE   TIE  Bn2
 BYTE   TIE  Dn3
 BYTE   W96
// 007   ----------------------------------------
 BYTE   W96
// 008   ----------------------------------------
 BYTE   EOT
 BYTE   Bn2  v062
 BYTE   TIE  An2
 BYTE   TIE  Cn3
 BYTE   W96
// 009   ----------------------------------------
 BYTE   W96
// 010   ----------------------------------------
 BYTE   EOT
 BYTE   An2  v060
 BYTE   TIE
 BYTE   TIE  En3
 BYTE   W96
// 011   ----------------------------------------
 BYTE   W96
// 012   ----------------------------------------
 BYTE   EOT
 BYTE   Cn3  v064
 BYTE   W96
// 013   ----------------------------------------
 BYTE   W96
// 014   ----------------------------------------
 BYTE   W96
// 015   ----------------------------------------
 BYTE   W96
// 016   ----------------------------------------
 BYTE   W96
// 017   ----------------------------------------
 BYTE   W96
// 018   ----------------------------------------
 BYTE   W96
// 019   ----------------------------------------
 BYTE   W96
// 020   ----------------------------------------
 BYTE   W96
// 021   ----------------------------------------
 BYTE   W96
// 022   ----------------------------------------
 BYTE   W96
// 023   ----------------------------------------
 BYTE   W96
// 024   ----------------------------------------
 BYTE   W96
// 025   ----------------------------------------
 BYTE   W96
// 026   ----------------------------------------
 BYTE   W96
// 027   ----------------------------------------
 BYTE   W96
// 028   ----------------------------------------
 BYTE   W96
// 029   ----------------------------------------
 BYTE   W96
// 030   ----------------------------------------
 BYTE   W96
// 031   ----------------------------------------
 BYTE   W96
// 032   ----------------------------------------
 BYTE   W96
// 033   ----------------------------------------
 BYTE   W96
// 034   ----------------------------------------
 BYTE   W96
// 035   ----------------------------------------
 BYTE   W96
// 036   ----------------------------------------
 BYTE   W96
// 037   ----------------------------------------
 BYTE   W96
// 038   ----------------------------------------
 BYTE   W96
// 039   ----------------------------------------
 BYTE   W96
// 040   ----------------------------------------
 BYTE   W96
// 041   ----------------------------------------
 BYTE   W96
// 042   ----------------------------------------
 BYTE   W96
// 043   ----------------------------------------
 BYTE   W96
// 044   ----------------------------------------
 BYTE   W96
// 045   ----------------------------------------
 BYTE   W96
// 046   ----------------------------------------
 BYTE   W96
// 047   ----------------------------------------
 BYTE   W96
// 048   ----------------------------------------
 BYTE   W96
// 049   ----------------------------------------
 BYTE   W96
// 050   ----------------------------------------
 BYTE   W96
// 051   ----------------------------------------
 BYTE   VOICE   46
 BYTE   VOL   19*song0146_mvl/mxv
 BYTE   PAN   c_v+0
 BYTE   W96
// 052   ----------------------------------------
 BYTE   N24  En4  v112
 BYTE   W24
 BYTE   Bn3
 BYTE   W24
 BYTE   En4
 BYTE   W24
 BYTE   Fs4
 BYTE   W24
// 053   ----------------------------------------
 BYTE   Gn4
 BYTE   W24
 BYTE   Bn3
 BYTE   W24
 BYTE   En4
 BYTE   W24
 BYTE   Fs4
 BYTE   W24
// 054   ----------------------------------------
 BYTE   Gn4
 BYTE   W24
 BYTE   An4
 BYTE   W24
 BYTE   Gn4
 BYTE   W24
 BYTE   Fs4
 BYTE   W24
// 055   ----------------------------------------
 BYTE   En4
 BYTE   W24
 BYTE   Dn4
 BYTE   W24
 BYTE   Cn4
 BYTE   W24
 BYTE   Bn3
 BYTE   W24
// 056   ----------------------------------------
 BYTE   Cn5
 BYTE   W24
 BYTE   Bn4
 BYTE   W24
 BYTE   An4
 BYTE   W24
 BYTE   Gn4
 BYTE   W24
// 057   ----------------------------------------
 BYTE   Fs4
 BYTE   W24
 BYTE   En4
 BYTE   W24
 BYTE   Dn4
 BYTE   W24
 BYTE   Cn4
 BYTE   W24
// 058   ----------------------------------------
 BYTE   Bn3
 BYTE   W24
 BYTE   Cn4
 BYTE   W24
 BYTE   Bn3
 BYTE   W24
 BYTE   An3
 BYTE   W24
// 059   ----------------------------------------
 BYTE   Bn3
 BYTE   W24
 BYTE   An3
 BYTE   W24
 BYTE   Gn3
 BYTE   W24
 BYTE   Fs3
 BYTE   W24
// 060   ----------------------------------------
 BYTE   W96
// 061   ----------------------------------------
 BYTE   W96
// 062   ----------------------------------------
 BYTE   W96
// 063   ----------------------------------------
 BYTE   W96
// 064   ----------------------------------------
 BYTE   W96
// 065   ----------------------------------------
 BYTE   W96
// 066   ----------------------------------------
 BYTE   W96
// 067   ----------------------------------------
 BYTE   W96
// 068   ----------------------------------------
 BYTE   W96
// 069   ----------------------------------------
 BYTE   W96
// 070   ----------------------------------------
 BYTE   W96
// 071   ----------------------------------------
 BYTE   W96
// 072   ----------------------------------------
 BYTE   W96
// 073   ----------------------------------------
 BYTE   W96
// 074   ----------------------------------------
 BYTE   VOICE   48
 BYTE   VOL   24*song0146_mvl/mxv
 BYTE   PAN   c_v-4
 BYTE   W96
// 075   ----------------------------------------
 BYTE   W96
// 076   ----------------------------------------
 BYTE   TIE  Bn1  v100
 BYTE   TIE  En2
 BYTE   W96
// 077   ----------------------------------------
 BYTE   N96  Bn2
 BYTE   W96
// 078   ----------------------------------------
 BYTE   PATT
  POIN2 Label_3_014544FD
// 079   ----------------------------------------
 BYTE   N96  Dn3  v100
 BYTE   W96
// 080   ----------------------------------------
 BYTE   EOT
 BYTE   Bn1  v052
 BYTE   An2
 BYTE   GoTo
  POIN2 Label_3_0145450B
 BYTE   FINE

//**************** Track 5 (Midi-Chn.4) ****************//

song0146_005:
// 000   ----------------------------------------
 BYTE   KEYSH   song0146_key+0
 BYTE   VOICE   42
 BYTE   VOL   29*song0146_mvl/mxv
 BYTE   PAN   c_v+0
 BYTE   W96
// 001   ----------------------------------------
 BYTE   W96
// 002   ----------------------------------------
 BYTE   W96
// 003   ----------------------------------------
 BYTE   W96
// 004   ----------------------------------------
Label_4_01453918:
 BYTE   W96
// 005   ----------------------------------------
 BYTE   W96
// 006   ----------------------------------------
 BYTE   W96
// 007   ----------------------------------------
 BYTE   W96
// 008   ----------------------------------------
 BYTE   W96
// 009   ----------------------------------------
 BYTE   W96
// 010   ----------------------------------------
 BYTE   W96
// 011   ----------------------------------------
 BYTE   W96
// 012   ----------------------------------------
 BYTE   W96
// 013   ----------------------------------------
 BYTE   W96
// 014   ----------------------------------------
 BYTE   W96
// 015   ----------------------------------------
 BYTE   W96
// 016   ----------------------------------------
 BYTE   W96
// 017   ----------------------------------------
 BYTE   W96
// 018   ----------------------------------------
 BYTE   W96
// 019   ----------------------------------------
 BYTE   W96
// 020   ----------------------------------------
 BYTE   W96
// 021   ----------------------------------------
 BYTE   W96
// 022   ----------------------------------------
 BYTE   W96
// 023   ----------------------------------------
 BYTE   W96
// 024   ----------------------------------------
 BYTE   W96
// 025   ----------------------------------------
 BYTE   W96
// 026   ----------------------------------------
 BYTE   W96
// 027   ----------------------------------------
 BYTE   W96
// 028   ----------------------------------------
 BYTE   W96
// 029   ----------------------------------------
 BYTE   W96
// 030   ----------------------------------------
 BYTE   W96
// 031   ----------------------------------------
 BYTE   W96
// 032   ----------------------------------------
 BYTE   W96
// 033   ----------------------------------------
 BYTE   W96
// 034   ----------------------------------------
 BYTE   W96
// 035   ----------------------------------------
 BYTE   W96
// 036   ----------------------------------------
 BYTE   W96
// 037   ----------------------------------------
 BYTE   W96
// 038   ----------------------------------------
 BYTE   W96
// 039   ----------------------------------------
 BYTE   W96
// 040   ----------------------------------------
 BYTE   W96
// 041   ----------------------------------------
 BYTE   W96
// 042   ----------------------------------------
 BYTE   W96
// 043   ----------------------------------------
 BYTE   N96  Cn2  v108
 BYTE   W96
// 044   ----------------------------------------
Label_4_01453943:
 BYTE   N48  En2  v108
 BYTE   W48
 BYTE   Gn2
 BYTE   W48
 BYTE   PEND 
// 045   ----------------------------------------
 BYTE   Fs2
 BYTE   W48
 BYTE   Gn2
 BYTE   W48
// 046   ----------------------------------------
 BYTE   N96  En2
 BYTE   W96
// 047   ----------------------------------------
 BYTE   Cn2
 BYTE   W96
// 048   ----------------------------------------
 BYTE   PATT
  POIN2 Label_4_01453943
// 049   ----------------------------------------
 BYTE   N36  Ds2  v116
 BYTE   W36
 BYTE   En2
 BYTE   W36
 BYTE   N24  Fs2
 BYTE   W24
// 050   ----------------------------------------
 BYTE   N36
 BYTE   W36
 BYTE   Gn2
 BYTE   W36
 BYTE   N24  An2
 BYTE   W24
// 051   ----------------------------------------
 BYTE   W96
// 052   ----------------------------------------
 BYTE   W96
// 053   ----------------------------------------
 BYTE   W96
// 054   ----------------------------------------
 BYTE   W96
// 055   ----------------------------------------
 BYTE   W96
// 056   ----------------------------------------
 BYTE   W96
// 057   ----------------------------------------
 BYTE   W96
// 058   ----------------------------------------
 BYTE   W96
// 059   ----------------------------------------
 BYTE   W96
// 060   ----------------------------------------
 BYTE   W96
// 061   ----------------------------------------
 BYTE   W96
// 062   ----------------------------------------
 BYTE   W96
// 063   ----------------------------------------
 BYTE   W96
// 064   ----------------------------------------
 BYTE   W96
// 065   ----------------------------------------
 BYTE   W96
// 066   ----------------------------------------
 BYTE   W96
// 067   ----------------------------------------
 BYTE   W96
// 068   ----------------------------------------
 BYTE   W96
// 069   ----------------------------------------
 BYTE   W96
// 070   ----------------------------------------
 BYTE   W96
// 071   ----------------------------------------
 BYTE   W96
// 072   ----------------------------------------
 BYTE   W96
// 073   ----------------------------------------
 BYTE   W96
// 074   ----------------------------------------
 BYTE   W96
// 075   ----------------------------------------
 BYTE   W96
// 076   ----------------------------------------
 BYTE   W96
// 077   ----------------------------------------
 BYTE   W96
// 078   ----------------------------------------
 BYTE   W96
// 079   ----------------------------------------
 BYTE   W96
// 080   ----------------------------------------
 BYTE   GoTo
  POIN2 Label_4_01453918
 BYTE   FINE

//**************** Track 6 (Midi-Chn.5) ****************//

song0146_006:
// 000   ----------------------------------------
 BYTE   KEYSH   song0146_key+0
 BYTE   W96
// 001   ----------------------------------------
 BYTE   W96
// 002   ----------------------------------------
 BYTE   W96
// 003   ----------------------------------------
 BYTE   W96
// 004   ----------------------------------------
Label_5_014816C6:
 BYTE   W96
// 005   ----------------------------------------
 BYTE   W96
// 006   ----------------------------------------
 BYTE   W96
// 007   ----------------------------------------
 BYTE   W96
// 008   ----------------------------------------
 BYTE   W96
// 009   ----------------------------------------
 BYTE   W96
// 010   ----------------------------------------
 BYTE   W96
// 011   ----------------------------------------
 BYTE   W96
// 012   ----------------------------------------
 BYTE   W96
// 013   ----------------------------------------
 BYTE   W96
// 014   ----------------------------------------
 BYTE   W96
// 015   ----------------------------------------
 BYTE   W96
// 016   ----------------------------------------
 BYTE   W96
// 017   ----------------------------------------
 BYTE   W96
// 018   ----------------------------------------
 BYTE   W96
// 019   ----------------------------------------
 BYTE   W96
// 020   ----------------------------------------
 BYTE   W96
// 021   ----------------------------------------
 BYTE   W96
// 022   ----------------------------------------
 BYTE   W96
// 023   ----------------------------------------
 BYTE   W96
// 024   ----------------------------------------
 BYTE   W96
// 025   ----------------------------------------
 BYTE   W96
// 026   ----------------------------------------
 BYTE   W96
// 027   ----------------------------------------
 BYTE   W96
// 028   ----------------------------------------
 BYTE   W96
// 029   ----------------------------------------
 BYTE   W96
// 030   ----------------------------------------
 BYTE   W96
// 031   ----------------------------------------
 BYTE   W96
// 032   ----------------------------------------
 BYTE   W96
// 033   ----------------------------------------
 BYTE   W96
// 034   ----------------------------------------
 BYTE   W96
// 035   ----------------------------------------
 BYTE   W96
// 036   ----------------------------------------
 BYTE   W96
// 037   ----------------------------------------
 BYTE   W96
// 038   ----------------------------------------
 BYTE   W96
// 039   ----------------------------------------
 BYTE   W96
// 040   ----------------------------------------
 BYTE   W96
// 041   ----------------------------------------
 BYTE   W96
// 042   ----------------------------------------
 BYTE   W96
// 043   ----------------------------------------
 BYTE   W96
// 044   ----------------------------------------
 BYTE   W96
// 045   ----------------------------------------
 BYTE   W96
// 046   ----------------------------------------
 BYTE   W96
// 047   ----------------------------------------
 BYTE   W96
// 048   ----------------------------------------
 BYTE   W96
// 049   ----------------------------------------
 BYTE   W96
// 050   ----------------------------------------
 BYTE   W96
// 051   ----------------------------------------
 BYTE   VOICE   46
 BYTE   VOL   24*song0146_mvl/mxv
 BYTE   PAN   c_v+0
 BYTE   W96
// 052   ----------------------------------------
 BYTE   W18
 BYTE   N24  En4  v088
 BYTE   W24
 BYTE   Bn3
 BYTE   W24
 BYTE   En4
 BYTE   W24
 BYTE   Fs4
 BYTE   W06
// 053   ----------------------------------------
 BYTE   W18
 BYTE   Gn4
 BYTE   W24
 BYTE   Bn3
 BYTE   W24
 BYTE   En4
 BYTE   W24
 BYTE   Fs4
 BYTE   W06
// 054   ----------------------------------------
 BYTE   W18
 BYTE   Gn4
 BYTE   W24
 BYTE   An4
 BYTE   W24
 BYTE   Gn4
 BYTE   W24
 BYTE   Fs4
 BYTE   W06
// 055   ----------------------------------------
 BYTE   W18
 BYTE   En4
 BYTE   W24
 BYTE   Dn4
 BYTE   W24
 BYTE   Cn4
 BYTE   W24
 BYTE   Bn3
 BYTE   W06
// 056   ----------------------------------------
 BYTE   W18
 BYTE   Cn5
 BYTE   W24
 BYTE   Bn4
 BYTE   W24
 BYTE   An4
 BYTE   W24
 BYTE   Gn4
 BYTE   W06
// 057   ----------------------------------------
 BYTE   W18
 BYTE   Fs4
 BYTE   W24
 BYTE   En4
 BYTE   W24
 BYTE   Dn4
 BYTE   W24
 BYTE   Cn4
 BYTE   W06
// 058   ----------------------------------------
 BYTE   W18
 BYTE   Bn3
 BYTE   W24
 BYTE   Cn4
 BYTE   W24
 BYTE   Bn3
 BYTE   W24
 BYTE   An3
 BYTE   W06
// 059   ----------------------------------------
 BYTE   W18
 BYTE   Bn3
 BYTE   W24
 BYTE   An3
 BYTE   W24
 BYTE   Gn3
 BYTE   W24
 BYTE   Fs3
 BYTE   W06
// 060   ----------------------------------------
 BYTE   W96
// 061   ----------------------------------------
 BYTE   W96
// 062   ----------------------------------------
 BYTE   W96
// 063   ----------------------------------------
 BYTE   W96
// 064   ----------------------------------------
 BYTE   W96
// 065   ----------------------------------------
 BYTE   W96
// 066   ----------------------------------------
 BYTE   W96
// 067   ----------------------------------------
 BYTE   W96
// 068   ----------------------------------------
 BYTE   VOICE   68
 BYTE   VOL   24*song0146_mvl/mxv
 BYTE   PAN   c_v+0
 BYTE   W96
// 069   ----------------------------------------
 BYTE   N36  En4  v108
 BYTE   W36
 BYTE   Fs4
 BYTE   W36
 BYTE   N03  Gn4  v116
 BYTE   W03
 BYTE   Fs4
 BYTE   W03
 BYTE   N18  Gn4  v108
 BYTE   W18
// 070   ----------------------------------------
 BYTE   N96  An4
 BYTE   W96
// 071   ----------------------------------------
 BYTE   N36  Cn5
 BYTE   W36
 BYTE   Bn4
 BYTE   W36
 BYTE   N24  An4
 BYTE   W24
// 072   ----------------------------------------
 BYTE   N36  Bn4
 BYTE   W36
 BYTE   Gn4
 BYTE   W36
 BYTE   N24  En4
 BYTE   W24
// 073   ----------------------------------------
 BYTE   N36
 BYTE   W36
 BYTE   Gn4
 BYTE   W36
 BYTE   N24  Bn4
 BYTE   W24
// 074   ----------------------------------------
 BYTE   N96  An4  v096
 BYTE   W96
// 075   ----------------------------------------
 BYTE   Fn4
 BYTE   W96
// 076   ----------------------------------------
 BYTE   TIE  En4  v092
 BYTE   W72
 BYTE   W01
 BYTE   W01
 BYTE   W01
 BYTE   W01
 BYTE   W01
 BYTE   W01
 BYTE   W01
 BYTE   W02
 BYTE   W01
 BYTE   W01
 BYTE   W01
 BYTE   W02
 BYTE   W01
 BYTE   W01
 BYTE   W01
 BYTE   W01
 BYTE   W01
 BYTE   W01
 BYTE   W01
 BYTE   W02
 BYTE   W01
// 077   ----------------------------------------
 BYTE   W01
 BYTE   W01
 BYTE   W02
 BYTE   W01
 BYTE   W01
 BYTE   W01
 BYTE   W02
 BYTE   W01
 BYTE   W01
 BYTE   W01
 BYTE   W01
 BYTE   W01
 BYTE   W01
 BYTE   W01
 BYTE   W02
 BYTE   W01
 BYTE   W01
 BYTE   W01
 BYTE   W02
 BYTE   W01
 BYTE   W01
 BYTE   W01
 BYTE   W01
 BYTE   W01
 BYTE   W01
 BYTE   W01
 BYTE   W02
 BYTE   W01
 BYTE   W01
 BYTE   W01
 BYTE   W02
 BYTE   W01
 BYTE   W01
 BYTE   W01
 BYTE   W02
 BYTE   W01
 BYTE   W01
 BYTE   W01
 BYTE   W01
 BYTE   W01
 BYTE   W01
 BYTE   W01
 BYTE   W02
 BYTE   W01
 BYTE   W01
 BYTE   W01
 BYTE   W02
 BYTE   W01
 BYTE   W01
 BYTE   W01
 BYTE   W02
 BYTE   W01
 BYTE   W01
 BYTE   W01
 BYTE   W01
 BYTE   W01
 BYTE   W01
 BYTE   W01
 BYTE   W02
 BYTE   W01
 BYTE   W01
 BYTE   W01
 BYTE   W02
 BYTE   W01
 BYTE   W01
 BYTE   W01
 BYTE   W01
 BYTE   W01
 BYTE   W01
 BYTE   W01
 BYTE   W02
 BYTE   W01
 BYTE   W01
 BYTE   W01
 BYTE   W02
 BYTE   W01
 BYTE   W01
 BYTE   W01
 BYTE   W02
 BYTE   W01
 BYTE   W01
// 078   ----------------------------------------
 BYTE   EOT
 BYTE   W96
// 079   ----------------------------------------
 BYTE   W96
// 080   ----------------------------------------
 BYTE   GoTo
  POIN2 Label_5_014816C6
 BYTE   FINE

//**************** Track 7 (Midi-Chn.6) ****************//

song0146_007:
// 000   ----------------------------------------
 BYTE   KEYSH   song0146_key+0
 BYTE   VOICE   40
 BYTE   VOL   31*song0146_mvl/mxv
 BYTE   PAN   c_v+2
 BYTE   N12  En1  v127
 BYTE   W12
 BYTE   N12
 BYTE   W24
 BYTE   N12
 BYTE   W24
 BYTE   N12
 BYTE   W24
 BYTE   N12
 BYTE   W12
// 001   ----------------------------------------
Label_6_01453B94:
 BYTE   N12  En1  v127
 BYTE   W12
 BYTE   N12
 BYTE   W24
 BYTE   N12
 BYTE   W24
 BYTE   N12
 BYTE   W24
 BYTE   N12
 BYTE   W12
 BYTE   PEND 
// 002   ----------------------------------------
 BYTE   PATT
  POIN2 Label_6_01453B94
// 003   ----------------------------------------
 BYTE   PATT
  POIN2 Label_6_01453B94
// 004   ----------------------------------------
Label_6_01453BAB:
// 005   ----------------------------------------
 BYTE   PATT
  POIN2 Label_6_01453B94
// 006   ----------------------------------------
 BYTE   PATT
  POIN2 Label_6_01453B94
// 007   ----------------------------------------
 BYTE   PATT
  POIN2 Label_6_01453B94
// 008   ----------------------------------------
 BYTE   PATT
  POIN2 Label_6_01453B94
// 009   ----------------------------------------
 BYTE   PATT
  POIN2 Label_6_01453B94
// 010   ----------------------------------------
 BYTE   PATT
  POIN2 Label_6_01453B94
// 011   ----------------------------------------
 BYTE   PATT
  POIN2 Label_6_01453B94
// 012   ----------------------------------------
 BYTE   PATT
  POIN2 Label_6_01453B94
// 013   ----------------------------------------
 BYTE   PATT
  POIN2 Label_6_01453B94
// 014   ----------------------------------------
 BYTE   PATT
  POIN2 Label_6_01453B94
// 015   ----------------------------------------
 BYTE   PATT
  POIN2 Label_6_01453B94
// 016   ----------------------------------------
 BYTE   PATT
  POIN2 Label_6_01453B94
// 017   ----------------------------------------
 BYTE   PATT
  POIN2 Label_6_01453B94
// 018   ----------------------------------------
 BYTE   PATT
  POIN2 Label_6_01453B94
// 019   ----------------------------------------
 BYTE   PATT
  POIN2 Label_6_01453B94
// 020   ----------------------------------------
 BYTE   PATT
  POIN2 Label_6_01453B94
// 021   ----------------------------------------
Label_6_01453BFB:
 BYTE   N12  Cn1  v127
 BYTE   W12
 BYTE   N12
 BYTE   W24
 BYTE   N12
 BYTE   W24
 BYTE   N12
 BYTE   W24
 BYTE   N12
 BYTE   W12
 BYTE   PEND 
// 022   ----------------------------------------
 BYTE   PATT
  POIN2 Label_6_01453BFB
// 023   ----------------------------------------
 BYTE   PATT
  POIN2 Label_6_01453BFB
// 024   ----------------------------------------
 BYTE   PATT
  POIN2 Label_6_01453BFB
// 025   ----------------------------------------
 BYTE   PATT
  POIN2 Label_6_01453B94
// 026   ----------------------------------------
 BYTE   PATT
  POIN2 Label_6_01453B94
// 027   ----------------------------------------
 BYTE   PATT
  POIN2 Label_6_01453B94
// 028   ----------------------------------------
 BYTE   PATT
  POIN2 Label_6_01453B94
// 029   ----------------------------------------
 BYTE   PATT
  POIN2 Label_6_01453B94
// 030   ----------------------------------------
 BYTE   PATT
  POIN2 Label_6_01453B94
// 031   ----------------------------------------
 BYTE   PATT
  POIN2 Label_6_01453B94
// 032   ----------------------------------------
 BYTE   PATT
  POIN2 Label_6_01453B94
// 033   ----------------------------------------
 BYTE   PATT
  POIN2 Label_6_01453B94
// 034   ----------------------------------------
 BYTE   PATT
  POIN2 Label_6_01453B94
// 035   ----------------------------------------
 BYTE   PATT
  POIN2 Label_6_01453B94
// 036   ----------------------------------------
 BYTE   PATT
  POIN2 Label_6_01453B94
// 037   ----------------------------------------
 BYTE   PATT
  POIN2 Label_6_01453BFB
// 038   ----------------------------------------
 BYTE   PATT
  POIN2 Label_6_01453BFB
// 039   ----------------------------------------
Label_6_01453C5D:
 BYTE   N12  Fn1  v127
 BYTE   W12
 BYTE   N12
 BYTE   W24
 BYTE   N12
 BYTE   W24
 BYTE   N12
 BYTE   W24
 BYTE   N12
 BYTE   W12
 BYTE   PEND 
// 040   ----------------------------------------
 BYTE   PATT
  POIN2 Label_6_01453C5D
// 041   ----------------------------------------
 BYTE   PATT
  POIN2 Label_6_01453B94
// 042   ----------------------------------------
 BYTE   PATT
  POIN2 Label_6_01453B94
// 043   ----------------------------------------
 BYTE   PATT
  POIN2 Label_6_01453B94
// 044   ----------------------------------------
 BYTE   PATT
  POIN2 Label_6_01453B94
// 045   ----------------------------------------
 BYTE   PATT
  POIN2 Label_6_01453BFB
// 046   ----------------------------------------
 BYTE   PATT
  POIN2 Label_6_01453BFB
// 047   ----------------------------------------
 BYTE   PATT
  POIN2 Label_6_01453B94
// 048   ----------------------------------------
 BYTE   PATT
  POIN2 Label_6_01453B94
// 049   ----------------------------------------
 BYTE   PATT
  POIN2 Label_6_01453BFB
// 050   ----------------------------------------
 BYTE   PATT
  POIN2 Label_6_01453BFB
// 051   ----------------------------------------
 BYTE   N36  Bn0  v127
 BYTE   W36
 BYTE   Cs1
 BYTE   W36
 BYTE   N24  Ds1
 BYTE   W24
// 052   ----------------------------------------
 BYTE   N36
 BYTE   W36
 BYTE   En1
 BYTE   W36
 BYTE   N24  Fs1
 BYTE   W24
// 053   ----------------------------------------
Label_6_01453CB1:
 BYTE   N12  En1  v120
 BYTE   W24
 BYTE   N12
 BYTE   W72
 BYTE   PEND 
// 054   ----------------------------------------
 BYTE   PATT
  POIN2 Label_6_01453CB1
// 055   ----------------------------------------
Label_6_01453CBD:
 BYTE   N12  Fs1  v120
 BYTE   W24
 BYTE   N12
 BYTE   W72
 BYTE   PEND 
// 056   ----------------------------------------
 BYTE   PATT
  POIN2 Label_6_01453CBD
// 057   ----------------------------------------
Label_6_01453CC9:
 BYTE   N12  An0  v120
 BYTE   W24
 BYTE   N12
 BYTE   W72
 BYTE   PEND 
// 058   ----------------------------------------
 BYTE   PATT
  POIN2 Label_6_01453CC9
// 059   ----------------------------------------
Label_6_01453CD5:
 BYTE   N12  Bn0  v120
 BYTE   W24
 BYTE   N12
 BYTE   W72
 BYTE   PEND 
// 060   ----------------------------------------
 BYTE   PATT
  POIN2 Label_6_01453CD5
// 061   ----------------------------------------
 BYTE   PATT
  POIN2 Label_6_01453B94
// 062   ----------------------------------------
 BYTE   PATT
  POIN2 Label_6_01453B94
// 063   ----------------------------------------
 BYTE   PATT
  POIN2 Label_6_01453C5D
// 064   ----------------------------------------
Label_6_01453CF0:
 BYTE   N12  Dn1  v127
 BYTE   W12
 BYTE   N12
 BYTE   W24
 BYTE   N12
 BYTE   W24
 BYTE   N12
 BYTE   W24
 BYTE   N12
 BYTE   W12
 BYTE   PEND 
// 065   ----------------------------------------
 BYTE   PATT
  POIN2 Label_6_01453B94
// 066   ----------------------------------------
 BYTE   PATT
  POIN2 Label_6_01453B94
// 067   ----------------------------------------
 BYTE   PATT
  POIN2 Label_6_01453C5D
// 068   ----------------------------------------
 BYTE   PATT
  POIN2 Label_6_01453CF0
// 069   ----------------------------------------
 BYTE   PATT
  POIN2 Label_6_01453B94
// 070   ----------------------------------------
 BYTE   PATT
  POIN2 Label_6_01453B94
// 071   ----------------------------------------
 BYTE   PATT
  POIN2 Label_6_01453C5D
// 072   ----------------------------------------
 BYTE   PATT
  POIN2 Label_6_01453CF0
// 073   ----------------------------------------
 BYTE   PATT
  POIN2 Label_6_01453B94
// 074   ----------------------------------------
 BYTE   PATT
  POIN2 Label_6_01453B94
// 075   ----------------------------------------
 BYTE   PATT
  POIN2 Label_6_01453C5D
// 076   ----------------------------------------
 BYTE   PATT
  POIN2 Label_6_01453CF0
// 077   ----------------------------------------
 BYTE   PATT
  POIN2 Label_6_01453B94
// 078   ----------------------------------------
 BYTE   PATT
  POIN2 Label_6_01453B94
// 079   ----------------------------------------
 BYTE   PATT
  POIN2 Label_6_01453B94
// 080   ----------------------------------------
 BYTE   PATT
  POIN2 Label_6_01453B94
// 081   ----------------------------------------
 BYTE   GoTo
  POIN2 Label_6_01453BAB
 BYTE   FINE

//**************** Track 8 (Midi-Chn.7) ****************//

song0146_008:
// 000   ----------------------------------------
 BYTE   KEYSH   song0146_key+0
 BYTE   VOICE   52
 BYTE   VOL   24*song0146_mvl/mxv
 BYTE   PAN   c_v+16
 BYTE   W96
// 001   ----------------------------------------
 BYTE   W96
// 002   ----------------------------------------
 BYTE   W96
// 003   ----------------------------------------
 BYTE   W96
// 004   ----------------------------------------
Label_7_014534E0:
 BYTE   W96
// 005   ----------------------------------------
 BYTE   W96
// 006   ----------------------------------------
 BYTE   W96
// 007   ----------------------------------------
 BYTE   W96
// 008   ----------------------------------------
 BYTE   W96
// 009   ----------------------------------------
 BYTE   W96
// 010   ----------------------------------------
 BYTE   W96
// 011   ----------------------------------------
 BYTE   W96
// 012   ----------------------------------------
 BYTE   W96
// 013   ----------------------------------------
 BYTE   W96
// 014   ----------------------------------------
 BYTE   W96
// 015   ----------------------------------------
 BYTE   W96
// 016   ----------------------------------------
 BYTE   W96
// 017   ----------------------------------------
 BYTE   W96
// 018   ----------------------------------------
 BYTE   W96
// 019   ----------------------------------------
 BYTE   W96
// 020   ----------------------------------------
 BYTE   W96
// 021   ----------------------------------------
 BYTE   W96
// 022   ----------------------------------------
 BYTE   W96
// 023   ----------------------------------------
 BYTE   W96
// 024   ----------------------------------------
 BYTE   W96
// 025   ----------------------------------------
 BYTE   W96
// 026   ----------------------------------------
 BYTE   W96
// 027   ----------------------------------------
 BYTE   W96
// 028   ----------------------------------------
 BYTE   W96
// 029   ----------------------------------------
 BYTE   W96
// 030   ----------------------------------------
 BYTE   W96
// 031   ----------------------------------------
 BYTE   W96
// 032   ----------------------------------------
 BYTE   W96
// 033   ----------------------------------------
 BYTE   W96
// 034   ----------------------------------------
 BYTE   W96
// 035   ----------------------------------------
 BYTE   W96
// 036   ----------------------------------------
 BYTE   W96
// 037   ----------------------------------------
 BYTE   W96
// 038   ----------------------------------------
 BYTE   W96
// 039   ----------------------------------------
 BYTE   W96
// 040   ----------------------------------------
 BYTE   W96
// 041   ----------------------------------------
 BYTE   W96
// 042   ----------------------------------------
 BYTE   W96
// 043   ----------------------------------------
 BYTE   W96
// 044   ----------------------------------------
 BYTE   W96
// 045   ----------------------------------------
 BYTE   W96
// 046   ----------------------------------------
 BYTE   W96
// 047   ----------------------------------------
 BYTE   W96
// 048   ----------------------------------------
 BYTE   W96
// 049   ----------------------------------------
 BYTE   W96
// 050   ----------------------------------------
 BYTE   W96
// 051   ----------------------------------------
 BYTE   W96
// 052   ----------------------------------------
 BYTE   TIE  En2  v100
 BYTE   TIE  En4  v092
 BYTE   TIE  Bn4  v100
 BYTE   W96
// 053   ----------------------------------------
 BYTE   W96
// 054   ----------------------------------------
 BYTE   EOT
 BYTE   En2  v083
 BYTE   TIE  Fs2
 BYTE   N96  Cn5
 BYTE   W96
// 055   ----------------------------------------
 BYTE   An4
 BYTE   W96
// 056   ----------------------------------------
 BYTE   EOT
 BYTE   Fs2  v076
 BYTE   TIE  An2
 BYTE   TIE  Fs4  v092
 BYTE   TIE  An4  v100
 BYTE   W96
// 057   ----------------------------------------
 BYTE   W96
// 058   ----------------------------------------
 BYTE   EOT
 BYTE   An2  v078
 BYTE   An4
 BYTE   N96  Bn2
 BYTE   TIE  Bn3  v092
 BYTE   N96  Gn4  v100
 BYTE   W04
 BYTE   W04
 BYTE   W04
 BYTE   W04
 BYTE   W04
 BYTE   W04
 BYTE   W04
 BYTE   W04
 BYTE   W04
 BYTE   W04
 BYTE   W04
 BYTE   W05
 BYTE   W04
 BYTE   W04
 BYTE   W04
 BYTE   W04
 BYTE   W04
 BYTE   W04
 BYTE   W04
 BYTE   W04
 BYTE   W04
 BYTE   W04
 BYTE   W01
 BYTE   Fs4
 BYTE   W03
 BYTE   W03
// 059   ----------------------------------------
 BYTE   Bn1
 BYTE   W02
 BYTE   W04
 BYTE   W04
 BYTE   W04
 BYTE   W04
 BYTE   W04
 BYTE   W04
 BYTE   W04
 BYTE   W04
 BYTE   W04
 BYTE   W04
 BYTE   W04
 BYTE   W05
 BYTE   W04
 BYTE   W04
 BYTE   W04
 BYTE   W04
 BYTE   W04
 BYTE   W04
 BYTE   W04
 BYTE   W04
 BYTE   W04
 BYTE   W04
 BYTE   W05
// 060   ----------------------------------------
 BYTE   EOT
 BYTE   Bn3
 BYTE   W96
// 061   ----------------------------------------
 BYTE   W96
// 062   ----------------------------------------
 BYTE   W96
// 063   ----------------------------------------
 BYTE   W96
// 064   ----------------------------------------
 BYTE   W96
// 065   ----------------------------------------
 BYTE   W96
// 066   ----------------------------------------
 BYTE   W96
// 067   ----------------------------------------
 BYTE   W96
// 068   ----------------------------------------
 BYTE   W96
// 069   ----------------------------------------
 BYTE   W96
// 070   ----------------------------------------
 BYTE   W96
// 071   ----------------------------------------
 BYTE   W96
// 072   ----------------------------------------
 BYTE   W96
// 073   ----------------------------------------
 BYTE   W96
// 074   ----------------------------------------
 BYTE   W96
// 075   ----------------------------------------
 BYTE   W96
// 076   ----------------------------------------
 BYTE   W96
// 077   ----------------------------------------
 BYTE   W96
// 078   ----------------------------------------
 BYTE   W96
// 079   ----------------------------------------
 BYTE   W96
// 080   ----------------------------------------
 BYTE   GoTo
  POIN2 Label_7_014534E0
 BYTE   FINE

//**************** Track 9 (Midi-Chn.8) ****************//

song0146_009:
// 000   ----------------------------------------
 BYTE   KEYSH   song0146_key+0
 BYTE   VOICE   127
 BYTE   VOL   26*song0146_mvl/mxv
 BYTE   PAN   c_v+0
 BYTE   N12  Dn1  v064
 BYTE   W12
 BYTE   N06  Dn1  v088
 BYTE   W06
 BYTE   Dn1  v076
 BYTE   W06
 BYTE   N12  Dn1  v092
 BYTE   W12
 BYTE   Dn1  v088
 BYTE   W12
 BYTE   N06  Dn1  v080
 BYTE   W06
 BYTE   Dn1  v076
 BYTE   W06
 BYTE   N12  Dn1  v092
 BYTE   W12
 BYTE   N06  Dn1  v088
 BYTE   W06
 BYTE   Dn1  v080
 BYTE   W06
 BYTE   N12  Dn1  v076
 BYTE   W12
// 001   ----------------------------------------
Label_8_01481E88:
 BYTE   N12  Dn1  v092
 BYTE   W12
 BYTE   N06  Dn1  v088
 BYTE   W06
 BYTE   Dn1  v076
 BYTE   W06
 BYTE   N12  Dn1  v092
 BYTE   W12
 BYTE   Dn1  v088
 BYTE   W12
 BYTE   N06  Dn1  v080
 BYTE   W06
 BYTE   Dn1  v076
 BYTE   W06
 BYTE   N12  Dn1  v092
 BYTE   W12
 BYTE   N06  Dn1  v088
 BYTE   W06
 BYTE   Dn1  v080
 BYTE   W06
 BYTE   Dn1  v076
 BYTE   W06
 BYTE   Dn1  v092
 BYTE   W06
 BYTE   PEND 
// 002   ----------------------------------------
Label_8_01481EB3:
 BYTE   N12  Dn1  v076
 BYTE   W12
 BYTE   N06  Dn1  v088
 BYTE   W06
 BYTE   Dn1  v076
 BYTE   W06
 BYTE   N12  Dn1  v092
 BYTE   W12
 BYTE   Dn1  v088
 BYTE   W12
 BYTE   N06  Dn1  v080
 BYTE   W06
 BYTE   Dn1  v076
 BYTE   W06
 BYTE   N12  Dn1  v092
 BYTE   W12
 BYTE   N06  Dn1  v088
 BYTE   W06
 BYTE   Dn1  v080
 BYTE   W06
 BYTE   N12  Dn1  v076
 BYTE   W12
 BYTE   PEND 
// 003   ----------------------------------------
 BYTE   PATT
  POIN2 Label_8_01481E88
// 004   ----------------------------------------
Label_8_01481EE1:
 BYTE   N12  Dn1  v096
 BYTE   W12
 BYTE   N06
 BYTE   W06
 BYTE   N06
 BYTE   W06
 BYTE   N12  Dn1  v092
 BYTE   W12
 BYTE   Dn1  v080
 BYTE   W12
 BYTE   N06  Dn1  v088
 BYTE   W06
 BYTE   Dn1  v080
 BYTE   W06
 BYTE   N12  Dn1  v096
 BYTE   W12
 BYTE   N06  Dn1  v092
 BYTE   W06
 BYTE   Dn1  v088
 BYTE   W06
 BYTE   N12  Dn1  v080
 BYTE   W12
 BYTE   PEND 
// 005   ----------------------------------------
Label_8_01481F07:
 BYTE   N12  Dn1  v076
 BYTE   W12
 BYTE   N06  Dn1  v092
 BYTE   W06
 BYTE   Dn1  v088
 BYTE   W06
 BYTE   N12  Dn1  v076
 BYTE   W12
 BYTE   Dn1  v092
 BYTE   W12
 BYTE   N06  Dn1  v088
 BYTE   W06
 BYTE   Dn1  v080
 BYTE   W06
 BYTE   N12  Dn1  v076
 BYTE   W12
 BYTE   N06  Dn1  v092
 BYTE   W06
 BYTE   Dn1  v088
 BYTE   W06
 BYTE   Dn1  v080
 BYTE   W06
 BYTE   Dn1  v076
 BYTE   W06
 BYTE   PEND 
// 006   ----------------------------------------
Label_8_01481F32:
 BYTE   N12  Dn1  v092
 BYTE   W12
 BYTE   N06  Dn1  v076
 BYTE   W06
 BYTE   Dn1  v088
 BYTE   W06
 BYTE   N12  Dn1  v076
 BYTE   W12
 BYTE   Dn1  v092
 BYTE   W12
 BYTE   N06  Dn1  v088
 BYTE   W06
 BYTE   Dn1  v080
 BYTE   W06
 BYTE   N12  Dn1  v076
 BYTE   W12
 BYTE   N06  Dn1  v092
 BYTE   W06
 BYTE   Dn1  v088
 BYTE   W06
 BYTE   N12  Dn1  v080
 BYTE   W12
 BYTE   PEND 
// 007   ----------------------------------------
 BYTE   PATT
  POIN2 Label_8_01481F07
// 008   ----------------------------------------
 BYTE   PATT
  POIN2 Label_8_01481F32
// 009   ----------------------------------------
 BYTE   PATT
  POIN2 Label_8_01481F07
// 010   ----------------------------------------
 BYTE   N12  Dn1  v092
 BYTE   N96  Gn2  v100
 BYTE   W12
 BYTE   N06  Dn1  v076
 BYTE   W06
 BYTE   Dn1  v088
 BYTE   W06
 BYTE   N12  Dn1  v076
 BYTE   W12
 BYTE   Dn1  v092
 BYTE   W12
 BYTE   N06  Dn1  v088
 BYTE   W06
 BYTE   Dn1  v080
 BYTE   W06
 BYTE   N12  Dn1  v076
 BYTE   W12
 BYTE   N06  Dn1  v092
 BYTE   W06
 BYTE   Dn1  v088
 BYTE   W06
 BYTE   N12  Dn1  v080
 BYTE   W12
// 011   ----------------------------------------
 BYTE   Dn1  v076
 BYTE   N96  An2  v127
 BYTE   W12
 BYTE   N06  Dn1  v092
 BYTE   W06
 BYTE   Dn1  v088
 BYTE   W06
 BYTE   N12  Dn1  v076
 BYTE   W12
 BYTE   Dn1  v092
 BYTE   W12
 BYTE   N06  Dn1  v088
 BYTE   W06
 BYTE   Dn1  v080
 BYTE   W06
 BYTE   Dn1  v076
 BYTE   W06
 BYTE   Dn1  v092
 BYTE   W06
 BYTE   Dn1  v088
 BYTE   W06
 BYTE   Dn1  v080
 BYTE   W06
 BYTE   Dn1  v076
 BYTE   W06
 BYTE   Dn1  v092
 BYTE   W06
// 012   ----------------------------------------
 BYTE   N12  Dn1  v096
 BYTE   N96  Cs2  v127
 BYTE   W12
 BYTE   N06  Dn1  v096
 BYTE   W06
 BYTE   N06
 BYTE   W06
 BYTE   N12  Dn1  v092
 BYTE   W12
 BYTE   Dn1  v080
 BYTE   W12
 BYTE   N06  Dn1  v088
 BYTE   W06
 BYTE   Dn1  v080
 BYTE   W06
 BYTE   N12  Dn1  v096
 BYTE   W12
 BYTE   N06  Dn1  v092
 BYTE   W06
 BYTE   Dn1  v088
 BYTE   W06
 BYTE   N12  Dn1  v080
 BYTE   W12
// 013   ----------------------------------------
 BYTE   PATT
  POIN2 Label_8_01481F07
// 014   ----------------------------------------
 BYTE   PATT
  POIN2 Label_8_01481F32
// 015   ----------------------------------------
 BYTE   PATT
  POIN2 Label_8_01481F07
// 016   ----------------------------------------
 BYTE   PATT
  POIN2 Label_8_01481F32
// 017   ----------------------------------------
 BYTE   PATT
  POIN2 Label_8_01481F07
// 018   ----------------------------------------
 BYTE   PATT
  POIN2 Label_8_01481F32
// 019   ----------------------------------------
 BYTE   PATT
  POIN2 Label_8_01481F07
// 020   ----------------------------------------
 BYTE   N12  Dn1  v092
 BYTE   W12
 BYTE   N06
 BYTE   W06
 BYTE   Dn1  v080
 BYTE   W06
 BYTE   N12  Dn1  v072
 BYTE   W12
 BYTE   Dn1  v076
 BYTE   W12
 BYTE   N06  Dn1  v080
 BYTE   W06
 BYTE   Dn1  v072
 BYTE   W06
 BYTE   N12  Dn1  v068
 BYTE   W12
 BYTE   N06  Dn1  v060
 BYTE   W06
 BYTE   Dn1  v052
 BYTE   W06
 BYTE   N12
 BYTE   W12
// 021   ----------------------------------------
 BYTE   Dn1  v072
 BYTE   W12
 BYTE   N06
 BYTE   W06
 BYTE   Dn1  v068
 BYTE   W06
 BYTE   N12  Dn1  v060
 BYTE   W12
 BYTE   Dn1  v072
 BYTE   W12
 BYTE   N06  Dn1  v068
 BYTE   W06
 BYTE   Dn1  v060
 BYTE   W06
 BYTE   N12  Dn1  v068
 BYTE   W12
 BYTE   N06  Dn1  v072
 BYTE   W06
 BYTE   N06
 BYTE   W06
 BYTE   Dn1  v068
 BYTE   W06
 BYTE   Dn1  v072
 BYTE   W06
// 022   ----------------------------------------
 BYTE   N12  Dn1  v068
 BYTE   TIE  An2  v127
 BYTE   W12
 BYTE   N06  Dn1  v060
 BYTE   W06
 BYTE   Dn1  v052
 BYTE   W06
 BYTE   N12
 BYTE   W12
 BYTE   Dn1  v072
 BYTE   W12
 BYTE   N06
 BYTE   W06
 BYTE   Dn1  v068
 BYTE   W06
 BYTE   N12  Dn1  v060
 BYTE   W12
 BYTE   N06  Dn1  v072
 BYTE   W06
 BYTE   Dn1  v068
 BYTE   W06
 BYTE   N12  Dn1  v060
 BYTE   W12
// 023   ----------------------------------------
 BYTE   Dn1  v068
 BYTE   W12
 BYTE   N06  Dn1  v072
 BYTE   W06
 BYTE   N06
 BYTE   W06
 BYTE   N12  Dn1  v068
 BYTE   W12
 BYTE   Dn1  v072
 BYTE   W12
 BYTE   N06  Dn1  v068
 BYTE   W06
 BYTE   Dn1  v060
 BYTE   W06
 BYTE   Dn1  v052
 BYTE   W06
 BYTE   N06
 BYTE   W06
 BYTE   Dn1  v072
 BYTE   W06
 BYTE   N06
 BYTE   W06
 BYTE   Dn1  v068
 BYTE   W06
 BYTE   Dn1  v060
 BYTE   W06
// 024   ----------------------------------------
 BYTE   EOT
 BYTE   An2
 BYTE   N12  Dn1  v072
 BYTE   N96  Cs2  v127
 BYTE   W12
 BYTE   N06  Dn1  v068
 BYTE   W06
 BYTE   Dn1  v060
 BYTE   W06
 BYTE   N12  Dn1  v068
 BYTE   W12
 BYTE   Dn1  v072
 BYTE   W12
 BYTE   N06
 BYTE   W06
 BYTE   Dn1  v068
 BYTE   W06
 BYTE   N12  Dn1  v072
 BYTE   W12
 BYTE   N06  Dn1  v068
 BYTE   W06
 BYTE   Dn1  v060
 BYTE   W06
 BYTE   N12  Dn1  v052
 BYTE   W12
// 025   ----------------------------------------
 BYTE   N12
 BYTE   W12
 BYTE   N06  Dn1  v072
 BYTE   W06
 BYTE   N06
 BYTE   W06
 BYTE   N12  Dn1  v068
 BYTE   W12
 BYTE   Dn1  v060
 BYTE   W12
 BYTE   N06  Dn1  v072
 BYTE   W06
 BYTE   Dn1  v068
 BYTE   W06
 BYTE   N12  Dn1  v060
 BYTE   W12
 BYTE   N06  Dn1  v068
 BYTE   W06
 BYTE   Dn1  v072
 BYTE   W06
 BYTE   Dn1  v096
 BYTE   W06
 BYTE   N06
 BYTE   W06
// 026   ----------------------------------------
Label_8_014820F8:
 BYTE   N12  Dn1  v096
 BYTE   W12
 BYTE   N06  Dn1  v092
 BYTE   W06
 BYTE   Dn1  v080
 BYTE   W06
 BYTE   N12  Dn1  v088
 BYTE   W12
 BYTE   Dn1  v080
 BYTE   W12
 BYTE   N06  Dn1  v096
 BYTE   W06
 BYTE   Dn1  v092
 BYTE   W06
 BYTE   N12  Dn1  v088
 BYTE   W12
 BYTE   N06  Dn1  v080
 BYTE   W06
 BYTE   Dn1  v076
 BYTE   W06
 BYTE   N12  Dn1  v092
 BYTE   W12
 BYTE   PEND 
// 027   ----------------------------------------
Label_8_01482121:
 BYTE   N12  Dn1  v088
 BYTE   W12
 BYTE   N06  Dn1  v076
 BYTE   W06
 BYTE   Dn1  v092
 BYTE   W06
 BYTE   N12  Dn1  v088
 BYTE   W12
 BYTE   Dn1  v080
 BYTE   W12
 BYTE   N06  Dn1  v076
 BYTE   W06
 BYTE   Dn1  v092
 BYTE   W06
 BYTE   Dn1  v088
 BYTE   W06
 BYTE   Dn1  v080
 BYTE   W06
 BYTE   Dn1  v076
 BYTE   W06
 BYTE   Dn1  v092
 BYTE   W06
 BYTE   Dn1  v076
 BYTE   W06
 BYTE   Dn1  v088
 BYTE   W06
 BYTE   PEND 
// 028   ----------------------------------------
Label_8_0148214D:
 BYTE   N12  Dn1  v076
 BYTE   N96  Cs2  v127
 BYTE   W12
 BYTE   N06  Dn1  v092
 BYTE   W06
 BYTE   Dn1  v088
 BYTE   W06
 BYTE   N12  Dn1  v080
 BYTE   W12
 BYTE   Dn1  v076
 BYTE   W12
 BYTE   N06  Dn1  v092
 BYTE   W06
 BYTE   Dn1  v088
 BYTE   W06
 BYTE   N12  Dn1  v080
 BYTE   W12
 BYTE   N06  Dn1  v076
 BYTE   W06
 BYTE   Dn1  v092
 BYTE   W06
 BYTE   N12  Dn1  v088
 BYTE   W12
 BYTE   PEND 
// 029   ----------------------------------------
Label_8_01482179:
 BYTE   N12  Dn1  v076
 BYTE   W12
 BYTE   N06  Dn1  v092
 BYTE   W06
 BYTE   Dn1  v088
 BYTE   W06
 BYTE   N12  Dn1  v080
 BYTE   W12
 BYTE   Dn1  v076
 BYTE   W12
 BYTE   N06  Dn1  v092
 BYTE   W06
 BYTE   Dn1  v088
 BYTE   W06
 BYTE   N12  Dn1  v080
 BYTE   W12
 BYTE   N06  Dn1  v076
 BYTE   W06
 BYTE   Dn1  v092
 BYTE   W06
 BYTE   Dn1  v076
 BYTE   W06
 BYTE   Dn1  v088
 BYTE   W06
 BYTE   PEND 
// 030   ----------------------------------------
Label_8_014821A4:
 BYTE   N12  Dn1  v076
 BYTE   W12
 BYTE   N06  Dn1  v092
 BYTE   W06
 BYTE   Dn1  v088
 BYTE   W06
 BYTE   N12  Dn1  v080
 BYTE   W12
 BYTE   Dn1  v076
 BYTE   W12
 BYTE   N06  Dn1  v092
 BYTE   W06
 BYTE   Dn1  v088
 BYTE   W06
 BYTE   N12  Dn1  v080
 BYTE   W12
 BYTE   N06  Dn1  v076
 BYTE   W06
 BYTE   Dn1  v092
 BYTE   W06
 BYTE   N12  Dn1  v088
 BYTE   W12
 BYTE   PEND 
// 031   ----------------------------------------
 BYTE   PATT
  POIN2 Label_8_01482179
// 032   ----------------------------------------
 BYTE   PATT
  POIN2 Label_8_014821A4
// 033   ----------------------------------------
 BYTE   N12  Dn1  v076
 BYTE   W12
 BYTE   N06  Dn1  v092
 BYTE   W06
 BYTE   Dn1  v088
 BYTE   W06
 BYTE   N12  Dn1  v080
 BYTE   W12
 BYTE   Dn1  v076
 BYTE   W12
 BYTE   N06  Dn1  v092
 BYTE   W06
 BYTE   Dn1  v088
 BYTE   W06
 BYTE   N12  Dn1  v080
 BYTE   W12
 BYTE   N06  Dn1  v076
 BYTE   W06
 BYTE   Dn1  v096
 BYTE   W06
 BYTE   N06
 BYTE   W06
 BYTE   N06
 BYTE   W06
// 034   ----------------------------------------
 BYTE   PATT
  POIN2 Label_8_014820F8
// 035   ----------------------------------------
Label_8_01482204:
 BYTE   N12  Dn1  v088
 BYTE   W12
 BYTE   N06  Dn1  v076
 BYTE   W06
 BYTE   Dn1  v092
 BYTE   W06
 BYTE   N12  Dn1  v088
 BYTE   W12
 BYTE   Dn1  v080
 BYTE   W12
 BYTE   N06  Dn1  v076
 BYTE   W06
 BYTE   Dn1  v092
 BYTE   W06
 BYTE   N12  Dn1  v088
 BYTE   W12
 BYTE   N06  Dn1  v080
 BYTE   W06
 BYTE   Dn1  v076
 BYTE   W06
 BYTE   Dn1  v092
 BYTE   W06
 BYTE   Dn1  v076
 BYTE   W06
 BYTE   PEND 
// 036   ----------------------------------------
 BYTE   N12  Dn1  v088
 BYTE   W12
 BYTE   N06  Dn1  v076
 BYTE   W06
 BYTE   Dn1  v092
 BYTE   W06
 BYTE   N12  Dn1  v088
 BYTE   W12
 BYTE   Dn1  v080
 BYTE   W12
 BYTE   N06  Dn1  v076
 BYTE   W06
 BYTE   Dn1  v092
 BYTE   W06
 BYTE   N12  Dn1  v088
 BYTE   W12
 BYTE   N06  Dn1  v080
 BYTE   W06
 BYTE   Dn1  v076
 BYTE   W06
 BYTE   N12  Dn1  v092
 BYTE   W12
// 037   ----------------------------------------
 BYTE   PATT
  POIN2 Label_8_01482204
// 038   ----------------------------------------
Label_8_0148225C:
 BYTE   N12  Dn1  v088
 BYTE   TIE  An2  v127
 BYTE   W12
 BYTE   N06  Dn1  v076
 BYTE   W06
 BYTE   Dn1  v092
 BYTE   W06
 BYTE   N12  Dn1  v088
 BYTE   W12
 BYTE   Dn1  v080
 BYTE   W12
 BYTE   N06  Dn1  v076
 BYTE   W06
 BYTE   Dn1  v092
 BYTE   W06
 BYTE   N12  Dn1  v088
 BYTE   W12
 BYTE   N06  Dn1  v080
 BYTE   W06
 BYTE   Dn1  v076
 BYTE   W06
 BYTE   N12  Dn1  v092
 BYTE   W12
 BYTE   PEND 
// 039   ----------------------------------------
 BYTE   PATT
  POIN2 Label_8_01482204
// 040   ----------------------------------------
 BYTE   EOT
 BYTE   An2
 BYTE   N12  Dn1  v088
 BYTE   N96  Cs2  v127
 BYTE   W12
 BYTE   N06  Dn1  v076
 BYTE   W06
 BYTE   Dn1  v092
 BYTE   W06
 BYTE   N12  Dn1  v088
 BYTE   W12
 BYTE   Dn1  v080
 BYTE   W12
 BYTE   N06  Dn1  v076
 BYTE   W06
 BYTE   Dn1  v092
 BYTE   W06
 BYTE   N12  Dn1  v088
 BYTE   W12
 BYTE   N06  Dn1  v080
 BYTE   W06
 BYTE   Dn1  v076
 BYTE   W06
 BYTE   N12  Dn1  v092
 BYTE   W12
// 041   ----------------------------------------
 BYTE   PATT
  POIN2 Label_8_01482204
// 042   ----------------------------------------
 BYTE   PATT
  POIN2 Label_8_0148225C
// 043   ----------------------------------------
 BYTE   PATT
  POIN2 Label_8_01482121
// 044   ----------------------------------------
 BYTE   EOT
 BYTE   An2
// 045   ----------------------------------------
 BYTE   PATT
  POIN2 Label_8_0148214D
// 046   ----------------------------------------
 BYTE   PATT
  POIN2 Label_8_01482179
// 047   ----------------------------------------
 BYTE   PATT
  POIN2 Label_8_014821A4
// 048   ----------------------------------------
 BYTE   PATT
  POIN2 Label_8_01482179
// 049   ----------------------------------------
 BYTE   PATT
  POIN2 Label_8_014821A4
// 050   ----------------------------------------
 BYTE   N12  Dn1  v076
 BYTE   W12
 BYTE   N06  Dn1  v092
 BYTE   W06
 BYTE   Dn1  v088
 BYTE   W06
 BYTE   N12  Dn1  v080
 BYTE   W12
 BYTE   Dn1  v076
 BYTE   W12
 BYTE   N06  Dn1  v092
 BYTE   W06
 BYTE   Dn1  v088
 BYTE   W06
 BYTE   N12  Dn1  v080
 BYTE   W12
 BYTE   N06  Dn1  v076
 BYTE   W06
 BYTE   Dn1  v092
 BYTE   W06
 BYTE   Dn1  v096
 BYTE   W06
 BYTE   N06
 BYTE   W06
// 051   ----------------------------------------
 BYTE   N12
 BYTE   TIE  An2  v127
 BYTE   W12
 BYTE   N06  Dn1  v092
 BYTE   W06
 BYTE   Dn1  v080
 BYTE   W06
 BYTE   N12  Dn1  v088
 BYTE   W12
 BYTE   Dn1  v080
 BYTE   W12
 BYTE   N06  Dn1  v096
 BYTE   W06
 BYTE   Dn1  v092
 BYTE   W06
 BYTE   N12  Dn1  v088
 BYTE   W12
 BYTE   N06  Dn1  v080
 BYTE   W06
 BYTE   Dn1  v076
 BYTE   W06
 BYTE   N12  Dn1  v092
 BYTE   W12
// 052   ----------------------------------------
 BYTE   PATT
  POIN2 Label_8_01482121
// 053   ----------------------------------------
 BYTE   EOT
 BYTE   An2
 BYTE   N01  Dn1  v076
 BYTE   N24  Ds1  v127
 BYTE   N96  Cs2
 BYTE   W01
 BYTE   N11  Dn1  v092
 BYTE   W23
 BYTE   N12  Dn1  v088
 BYTE   N24  Ds1  v112
 BYTE   W12
 BYTE   N12  Dn1  v080
 BYTE   W12
 BYTE   Dn1  v076
 BYTE   W12
 BYTE   Dn1  v092
 BYTE   W12
 BYTE   Dn1  v088
 BYTE   W12
 BYTE   Dn1  v080
 BYTE   W12
// 054   ----------------------------------------
 BYTE   Dn1  v076
 BYTE   W12
 BYTE   N01  Dn1  v092
 BYTE   W01
 BYTE   N11  Dn1  v088
 BYTE   W11
 BYTE   N12  Dn1  v076
 BYTE   W12
 BYTE   Dn1  v092
 BYTE   W12
 BYTE   Dn1  v088
 BYTE   W24
 BYTE   Dn1  v080
 BYTE   W12
 BYTE   Dn1  v076
 BYTE   W12
// 055   ----------------------------------------
 BYTE   N01  Dn1  v092
 BYTE   N24  Ds1  v127
 BYTE   W01
 BYTE   N11  Dn1  v088
 BYTE   W23
 BYTE   N12  Dn1  v080
 BYTE   N24  Ds1  v112
 BYTE   W12
 BYTE   N12  Dn1  v076
 BYTE   W12
 BYTE   Dn1  v092
 BYTE   W12
 BYTE   Dn1  v096
 BYTE   W12
 BYTE   N12
 BYTE   W12
 BYTE   N12
 BYTE   W12
// 056   ----------------------------------------
 BYTE   Dn1  v092
 BYTE   W12
 BYTE   N01  Dn1  v080
 BYTE   W01
 BYTE   N11  Dn1  v088
 BYTE   W11
 BYTE   N12  Dn1  v080
 BYTE   W12
 BYTE   Dn1  v096
 BYTE   W12
 BYTE   Dn1  v092
 BYTE   W24
 BYTE   Dn1  v088
 BYTE   W12
 BYTE   Dn1  v080
 BYTE   W12
// 057   ----------------------------------------
 BYTE   N01  Dn1  v076
 BYTE   N24  Ds1  v127
 BYTE   W01
 BYTE   N11  Dn1  v092
 BYTE   W23
 BYTE   N12  Dn1  v088
 BYTE   N24  Ds1  v112
 BYTE   W12
 BYTE   N12  Dn1  v076
 BYTE   W12
 BYTE   Dn1  v092
 BYTE   W12
 BYTE   Dn1  v088
 BYTE   W12
 BYTE   Dn1  v080
 BYTE   W12
 BYTE   Dn1  v076
 BYTE   W12
// 058   ----------------------------------------
 BYTE   Dn1  v092
 BYTE   W12
 BYTE   N01  Dn1  v088
 BYTE   W01
 BYTE   N11  Dn1  v080
 BYTE   W11
 BYTE   N12  Dn1  v076
 BYTE   W12
 BYTE   Dn1  v092
 BYTE   W12
 BYTE   Dn1  v076
 BYTE   W24
 BYTE   Dn1  v088
 BYTE   W12
 BYTE   Dn1  v076
 BYTE   W12
// 059   ----------------------------------------
 BYTE   N01  Dn1  v092
 BYTE   N24  Ds1  v127
 BYTE   TIE  An2
 BYTE   W01
 BYTE   N11  Dn1  v088
 BYTE   W23
 BYTE   N12  Dn1  v080
 BYTE   N24  Ds1  v112
 BYTE   W12
 BYTE   N12  Dn1  v076
 BYTE   W12
 BYTE   Dn1  v092
 BYTE   W12
 BYTE   Dn1  v088
 BYTE   W12
 BYTE   Dn1  v080
 BYTE   W12
 BYTE   Dn1  v076
 BYTE   W12
// 060   ----------------------------------------
 BYTE   Dn1  v092
 BYTE   N24  Ds1  v127
 BYTE   W12
 BYTE   N01  Dn1  v088
 BYTE   W01
 BYTE   N11  Dn1  v076
 BYTE   W11
 BYTE   N12  Dn1  v092
 BYTE   N24  Ds1  v120
 BYTE   W12
 BYTE   N12  Dn1  v088
 BYTE   W12
 BYTE   Dn1  v080
 BYTE   W24
 BYTE   N06  Dn1  v076
 BYTE   W06
 BYTE   N03  Dn1  v092
 BYTE   W03
 BYTE   Dn1  v088
 BYTE   W03
 BYTE   N06  Dn1  v080
 BYTE   W06
 BYTE   Dn1  v076
 BYTE   W06
// 061   ----------------------------------------
 BYTE   EOT
 BYTE   An2
 BYTE   N12  Dn1  v092
 BYTE   N24  Ds1  v127
 BYTE   N96  Cs2
 BYTE   W12
 BYTE   N06  Dn1  v076
 BYTE   W06
 BYTE   Dn1  v088
 BYTE   W06
 BYTE   N12  Dn1  v076
 BYTE   W12
 BYTE   Dn1  v092
 BYTE   W12
 BYTE   N06  Dn1  v088
 BYTE   W06
 BYTE   Dn1  v080
 BYTE   W06
 BYTE   N12  Dn1  v076
 BYTE   W12
 BYTE   N06  Dn1  v092
 BYTE   W06
 BYTE   Dn1  v088
 BYTE   W06
 BYTE   N12  Dn1  v080
 BYTE   W12
// 062   ----------------------------------------
 BYTE   PATT
  POIN2 Label_8_01481F07
// 063   ----------------------------------------
 BYTE   PATT
  POIN2 Label_8_01481F32
// 064   ----------------------------------------
 BYTE   PATT
  POIN2 Label_8_01481F07
// 065   ----------------------------------------
 BYTE   PATT
  POIN2 Label_8_01481F32
// 066   ----------------------------------------
 BYTE   PATT
  POIN2 Label_8_01481F07
// 067   ----------------------------------------
 BYTE   PATT
  POIN2 Label_8_01481F32
// 068   ----------------------------------------
 BYTE   N12  Dn1  v076
 BYTE   W12
 BYTE   N06  Dn1  v092
 BYTE   W06
 BYTE   Dn1  v088
 BYTE   W06
 BYTE   N12  Dn1  v076
 BYTE   W12
 BYTE   Dn1  v092
 BYTE   W12
 BYTE   N06  Dn1  v088
 BYTE   W06
 BYTE   Dn1  v080
 BYTE   W06
 BYTE   Dn1  v076
 BYTE   W06
 BYTE   Dn1  v092
 BYTE   W06
 BYTE   Dn1  v088
 BYTE   W06
 BYTE   Dn1  v080
 BYTE   W06
 BYTE   Dn1  v076
 BYTE   W06
 BYTE   Dn1  v096
 BYTE   W06
// 069   ----------------------------------------
 BYTE   PATT
  POIN2 Label_8_01481EE1
// 070   ----------------------------------------
 BYTE   PATT
  POIN2 Label_8_01481F07
// 071   ----------------------------------------
 BYTE   PATT
  POIN2 Label_8_01481F32
// 072   ----------------------------------------
 BYTE   PATT
  POIN2 Label_8_01481F07
// 073   ----------------------------------------
 BYTE   PATT
  POIN2 Label_8_01481F32
// 074   ----------------------------------------
 BYTE   PATT
  POIN2 Label_8_01481F07
// 075   ----------------------------------------
 BYTE   N12  Dn1  v092
 BYTE   TIE  An2  v127
 BYTE   W12
 BYTE   N06  Dn1  v076
 BYTE   W06
 BYTE   Dn1  v088
 BYTE   W06
 BYTE   N12  Dn1  v076
 BYTE   W12
 BYTE   Dn1  v092
 BYTE   W12
 BYTE   N06  Dn1  v088
 BYTE   W06
 BYTE   Dn1  v080
 BYTE   W06
 BYTE   N12  Dn1  v076
 BYTE   W12
 BYTE   N06  Dn1  v092
 BYTE   W06
 BYTE   Dn1  v088
 BYTE   W06
 BYTE   N12  Dn1  v080
 BYTE   W12
// 076   ----------------------------------------
 BYTE   Dn1  v076
 BYTE   W12
 BYTE   N06  Dn1  v092
 BYTE   W06
 BYTE   Dn1  v088
 BYTE   W06
 BYTE   N12  Dn1  v076
 BYTE   W12
 BYTE   Dn1  v092
 BYTE   W12
 BYTE   N06  Dn1  v088
 BYTE   W06
 BYTE   Dn1  v080
 BYTE   W06
 BYTE   Dn1  v076
 BYTE   W06
 BYTE   Dn1  v092
 BYTE   W06
 BYTE   Dn1  v088
 BYTE   W06
 BYTE   Dn1  v080
 BYTE   W06
 BYTE   Dn1  v076
 BYTE   W06
 BYTE   Dn1  v092
 BYTE   W06
// 077   ----------------------------------------
 BYTE   EOT
 BYTE   An2
 BYTE   N12  Dn1  v076
 BYTE   N96  Cs2  v127
 BYTE   W12
 BYTE   N06  Dn1  v088
 BYTE   W06
 BYTE   Dn1  v076
 BYTE   W06
 BYTE   N12  Dn1  v092
 BYTE   W12
 BYTE   Dn1  v088
 BYTE   W12
 BYTE   N06  Dn1  v080
 BYTE   W06
 BYTE   Dn1  v076
 BYTE   W06
 BYTE   N12  Dn1  v092
 BYTE   W12
 BYTE   N06  Dn1  v088
 BYTE   W06
 BYTE   Dn1  v080
 BYTE   W06
 BYTE   N12  Dn1  v076
 BYTE   W12
// 078   ----------------------------------------
 BYTE   PATT
  POIN2 Label_8_01481E88
// 079   ----------------------------------------
 BYTE   PATT
  POIN2 Label_8_01481EB3
// 080   ----------------------------------------
 BYTE   PATT
  POIN2 Label_8_01481E88
// 081   ----------------------------------------
 BYTE   GoTo
  POIN2 Label_8_01481EE1
 BYTE   FINE

//**************** Track 10 (Midi-Chn.9) ****************//

song0146_010:
// 000   ----------------------------------------
 BYTE   KEYSH   song0146_key+0
 BYTE   VOICE   57
 BYTE   VOL   24*song0146_mvl/mxv
 BYTE   PAN   c_v-8
 BYTE   W96
// 001   ----------------------------------------
 BYTE   W96
// 002   ----------------------------------------
 BYTE   W96
// 003   ----------------------------------------
 BYTE   W96
// 004   ----------------------------------------
Label_9_01453FD8:
 BYTE   W96
// 005   ----------------------------------------
 BYTE   W96
// 006   ----------------------------------------
 BYTE   W48
 BYTE   N48  Fs2  v100
 BYTE   W48
// 007   ----------------------------------------
 BYTE   Bn2
 BYTE   W48
 BYTE   Bn2  v088
 BYTE   N48  Dn3  v100
 BYTE   W48
// 008   ----------------------------------------
 BYTE   TIE  An2  v088
 BYTE   TIE  Cn3  v100
 BYTE   W96
// 009   ----------------------------------------
 BYTE   W92
 BYTE   W02
 BYTE   EOT
 BYTE   An2  v060
 BYTE   W02
// 010   ----------------------------------------
 BYTE   TIE  En3
 BYTE   TIE  An3  v112
 BYTE   W96
// 011   ----------------------------------------
 BYTE   W48
 BYTE   EOT
 BYTE   En3  v069
 BYTE   N48  En3  v100
 BYTE   N48  Bn3  v112
 BYTE   W48
// 012   ----------------------------------------
 BYTE   TIE  En3  v092
 BYTE   TIE  Gn3  v100
 BYTE   W48
 BYTE   W01
 BYTE   W02
 BYTE   W01
 BYTE   W02
 BYTE   W01
 BYTE   W01
 BYTE   W02
 BYTE   W01
 BYTE   W02
 BYTE   W01
 BYTE   W01
 BYTE   W02
 BYTE   W01
 BYTE   W02
 BYTE   W01
 BYTE   W02
 BYTE   W01
 BYTE   W01
 BYTE   W02
 BYTE   W01
 BYTE   W02
 BYTE   W01
 BYTE   W01
 BYTE   W02
 BYTE   W01
 BYTE   W02
 BYTE   W01
 BYTE   W02
 BYTE   W01
 BYTE   W01
 BYTE   W02
 BYTE   W01
 BYTE   W02
 BYTE   W01
// 013   ----------------------------------------
 BYTE   W01
 BYTE   W02
 BYTE   W01
 BYTE   W02
 BYTE   W01
 BYTE   W02
 BYTE   W01
 BYTE   W01
 BYTE   W02
 BYTE   W01
 BYTE   W02
 BYTE   W01
 BYTE   W01
 BYTE   W02
 BYTE   W01
 BYTE   W02
 BYTE   W01
 BYTE   W02
 BYTE   W01
 BYTE   W01
 BYTE   W02
 BYTE   W01
 BYTE   W02
 BYTE   W01
 BYTE   W01
 BYTE   W02
 BYTE   W01
 BYTE   W02
 BYTE   W01
 BYTE   W02
 BYTE   W01
 BYTE   W01
 BYTE   W02
 BYTE   W01
 BYTE   W02
 BYTE   W01
 BYTE   W01
 BYTE   W02
 BYTE   W01
 BYTE   W02
 BYTE   W01
 BYTE   W02
 BYTE   W01
 BYTE   W01
 BYTE   W02
 BYTE   W01
 BYTE   W02
 BYTE   W01
 BYTE   W01
 BYTE   W02
 BYTE   W01
 BYTE   W02
 BYTE   W01
 BYTE   W02
 BYTE   W01
 BYTE   W01
 BYTE   W02
 BYTE   W01
 BYTE   W02
 BYTE   W01
 BYTE   W01
 BYTE   W02
 BYTE   W01
 BYTE   W02
 BYTE   W01
 BYTE   W02
 BYTE   W01
 BYTE   W01
// 014   ----------------------------------------
 BYTE   EOT
 BYTE   En3  v067
 BYTE   W96
// 015   ----------------------------------------
 BYTE   W96
// 016   ----------------------------------------
 BYTE   W96
// 017   ----------------------------------------
 BYTE   W96
// 018   ----------------------------------------
 BYTE   W96
// 019   ----------------------------------------
 BYTE   W96
// 020   ----------------------------------------
 BYTE   W96
// 021   ----------------------------------------
 BYTE   W96
// 022   ----------------------------------------
 BYTE   W96
// 023   ----------------------------------------
 BYTE   W96
// 024   ----------------------------------------
 BYTE   W96
// 025   ----------------------------------------
 BYTE   W96
// 026   ----------------------------------------
 BYTE   W96
// 027   ----------------------------------------
 BYTE   W96
// 028   ----------------------------------------
 BYTE   W96
// 029   ----------------------------------------
 BYTE   W48
 BYTE   N48  Gn1  v108
 BYTE   N48  Bn1  v116
 BYTE   W48
// 030   ----------------------------------------
 BYTE   TIE  An1  v100
 BYTE   TIE  Dn2  v112
 BYTE   W96
// 031   ----------------------------------------
 BYTE   W48
 BYTE   EOT
 BYTE   An1  v050
 BYTE   W48
// 032   ----------------------------------------
 BYTE   W48
 BYTE   N48  En2  v120
 BYTE   W48
// 033   ----------------------------------------
 BYTE   En2  v112
 BYTE   N48  Gn2  v120
 BYTE   W48
 BYTE   Gn2  v112
 BYTE   N48  Cn3  v120
 BYTE   W48
// 034   ----------------------------------------
 BYTE   TIE  Fs2  v112
 BYTE   TIE  Dn3  v120
 BYTE   W96
// 035   ----------------------------------------
 BYTE   W48
 BYTE   EOT
 BYTE   Fs2  v062
 BYTE   W48
// 036   ----------------------------------------
 BYTE   TIE  Gn2  v100
 BYTE   TIE  Cn3  v112
 BYTE   W96
// 037   ----------------------------------------
 BYTE   W96
// 038   ----------------------------------------
 BYTE   EOT
 BYTE   Gn2
 BYTE   TIE  Fn2  v100
 BYTE   W96
// 039   ----------------------------------------
 BYTE   W96
// 040   ----------------------------------------
 BYTE   EOT
 BYTE   EOT
 BYTE   Cn3
 BYTE   TIE  En2
 BYTE   TIE  Bn2  v112
 BYTE   W96
// 041   ----------------------------------------
 BYTE   W96
// 042   ----------------------------------------
 BYTE   W96
// 043   ----------------------------------------
 BYTE   W96
// 044   ----------------------------------------
 BYTE   EOT
 BYTE   En2  v059
Label_9_014540D3:
 BYTE   N08  Cn3  v080
 BYTE   N08  En3  v100
 BYTE   W18
 BYTE   Cn3  v088
 BYTE   N08  En3  v100
 BYTE   W18
 BYTE   N06  Cn3  v080
 BYTE   N06  En3  v100
 BYTE   W06
 BYTE   Dn3  v076
 BYTE   N06  Fs3  v096
 BYTE   W06
 BYTE   N60  En3  v076
 BYTE   N60  Gn3  v096
 BYTE   W48
 BYTE   PEND 
// 045   ----------------------------------------
 BYTE   W16
 BYTE   N16  An2  v088
 BYTE   W16
 BYTE   Gn2
 BYTE   W16
 BYTE   Fs2
 BYTE   W16
 BYTE   En2
 BYTE   W16
 BYTE   Dn2
 BYTE   W16
// 046   ----------------------------------------
 BYTE   N36  Bn1  v096
 BYTE   W36
 BYTE   TIE  En2
 BYTE   W60
// 047   ----------------------------------------
 BYTE   W84
 BYTE   EOT
 BYTE   W12
// 048   ----------------------------------------
 BYTE   PATT
  POIN2 Label_9_014540D3
// 049   ----------------------------------------
 BYTE   W16
 BYTE   N16  An2  v096
 BYTE   W16
 BYTE   Gn2
 BYTE   W16
 BYTE   Bn2
 BYTE   W16
 BYTE   An2
 BYTE   W16
 BYTE   Gn2
 BYTE   W16
// 050   ----------------------------------------
 BYTE   N36  Bn1  v100
 BYTE   N36  Ds2  v092
 BYTE   W36
 BYTE   Cs2
 BYTE   N36  En2  v080
 BYTE   W36
 BYTE   N24  Ds2  v092
 BYTE   N24  Fs2  v080
 BYTE   W24
// 051   ----------------------------------------
 BYTE   N36  Ds2  v092
 BYTE   N36  Fs2  v080
 BYTE   W36
 BYTE   En2  v100
 BYTE   N36  Gn2  v092
 BYTE   W36
 BYTE   N24  Fs2  v112
 BYTE   N24  An2  v100
 BYTE   W24
// 052   ----------------------------------------
 BYTE   W96
// 053   ----------------------------------------
 BYTE   W96
// 054   ----------------------------------------
 BYTE   W96
// 055   ----------------------------------------
 BYTE   W96
// 056   ----------------------------------------
 BYTE   W96
// 057   ----------------------------------------
 BYTE   W96
// 058   ----------------------------------------
 BYTE   W96
// 059   ----------------------------------------
 BYTE   W96
// 060   ----------------------------------------
 BYTE   W96
// 061   ----------------------------------------
 BYTE   W96
// 062   ----------------------------------------
 BYTE   W96
// 063   ----------------------------------------
 BYTE   W96
// 064   ----------------------------------------
 BYTE   W96
// 065   ----------------------------------------
 BYTE   W96
// 066   ----------------------------------------
 BYTE   W96
// 067   ----------------------------------------
 BYTE   W96
// 068   ----------------------------------------
 BYTE   W96
// 069   ----------------------------------------
 BYTE   W96
// 070   ----------------------------------------
 BYTE   W96
// 071   ----------------------------------------
 BYTE   W96
// 072   ----------------------------------------
 BYTE   W96
// 073   ----------------------------------------
 BYTE   W96
// 074   ----------------------------------------
 BYTE   W96
// 075   ----------------------------------------
 BYTE   W96
// 076   ----------------------------------------
 BYTE   W96
// 077   ----------------------------------------
 BYTE   W96
// 078   ----------------------------------------
 BYTE   W96
// 079   ----------------------------------------
 BYTE   W96
// 080   ----------------------------------------
 BYTE   GoTo
  POIN2 Label_9_01453FD8
 BYTE   FINE

//**************** Track 11 (Midi-Chn.10) ****************//

song0146_011:
// 000   ----------------------------------------
 BYTE   KEYSH   song0146_key+0
 BYTE   VOICE   56
 BYTE   VOL   26*song0146_mvl/mxv
 BYTE   PAN   c_v+0
 BYTE   W96
// 001   ----------------------------------------
 BYTE   W96
// 002   ----------------------------------------
 BYTE   W96
// 003   ----------------------------------------
 BYTE   W96
// 004   ----------------------------------------
Label_10_01481AF0:
 BYTE   W96
// 005   ----------------------------------------
 BYTE   W96
// 006   ----------------------------------------
 BYTE   W96
// 007   ----------------------------------------
 BYTE   W96
// 008   ----------------------------------------
 BYTE   W96
// 009   ----------------------------------------
 BYTE   W96
// 010   ----------------------------------------
 BYTE   W96
// 011   ----------------------------------------
 BYTE   W96
// 012   ----------------------------------------
 BYTE   W96
// 013   ----------------------------------------
 BYTE   W96
// 014   ----------------------------------------
 BYTE   W96
// 015   ----------------------------------------
 BYTE   W96
// 016   ----------------------------------------
 BYTE   W96
// 017   ----------------------------------------
 BYTE   W96
// 018   ----------------------------------------
 BYTE   W96
// 019   ----------------------------------------
 BYTE   W96
// 020   ----------------------------------------
 BYTE   W96
// 021   ----------------------------------------
 BYTE   W96
// 022   ----------------------------------------
 BYTE   W96
// 023   ----------------------------------------
 BYTE   W96
// 024   ----------------------------------------
 BYTE   W96
// 025   ----------------------------------------
 BYTE   W96
// 026   ----------------------------------------
 BYTE   W96
// 027   ----------------------------------------
 BYTE   W96
// 028   ----------------------------------------
 BYTE   W96
// 029   ----------------------------------------
 BYTE   W96
// 030   ----------------------------------------
 BYTE   W96
// 031   ----------------------------------------
 BYTE   W96
// 032   ----------------------------------------
 BYTE   W96
// 033   ----------------------------------------
 BYTE   W96
// 034   ----------------------------------------
 BYTE   W96
// 035   ----------------------------------------
 BYTE   W96
// 036   ----------------------------------------
 BYTE   W96
// 037   ----------------------------------------
 BYTE   W96
// 038   ----------------------------------------
 BYTE   W96
// 039   ----------------------------------------
 BYTE   W96
// 040   ----------------------------------------
 BYTE   W96
// 041   ----------------------------------------
 BYTE   W96
// 042   ----------------------------------------
 BYTE   W96
// 043   ----------------------------------------
 BYTE   W96
// 044   ----------------------------------------
Label_10_01481B18:
 BYTE   N08  Cn4  v100
 BYTE   N08  En4  v120
 BYTE   W18
 BYTE   Cn4  v108
 BYTE   N08  En4  v120
 BYTE   W18
 BYTE   N06  Cn4  v100
 BYTE   N06  En4  v120
 BYTE   W06
 BYTE   Dn4  v096
 BYTE   N06  Fs4  v116
 BYTE   W06
 BYTE   N60  En4  v096
 BYTE   N60  Gn4  v116
 BYTE   W48
 BYTE   PEND 
// 045   ----------------------------------------
 BYTE   W16
 BYTE   N16  Fs4  v096
 BYTE   N16  An4  v116
 BYTE   W16
 BYTE   En4  v096
 BYTE   N16  Gn4  v116
 BYTE   W16
 BYTE   Dn4  v096
 BYTE   N16  Fs4  v116
 BYTE   W16
 BYTE   Cn4  v096
 BYTE   N16  En4  v116
 BYTE   W16
 BYTE   Bn3  v096
 BYTE   N16  Dn4  v116
 BYTE   W16
// 046   ----------------------------------------
 BYTE   N36  Fs3  v096
 BYTE   N36  Bn3  v116
 BYTE   W36
 BYTE   TIE  Gn3  v096
 BYTE   TIE  En4  v116
 BYTE   W60
// 047   ----------------------------------------
 BYTE   W84
 BYTE   EOT
 BYTE   Gn3  v076
 BYTE   W12
// 048   ----------------------------------------
 BYTE   PATT
  POIN2 Label_10_01481B18
// 049   ----------------------------------------
 BYTE   W16
 BYTE   N16  Fs4  v096
 BYTE   N16  An4  v116
 BYTE   W16
 BYTE   En4  v096
 BYTE   N16  Gn4  v116
 BYTE   W16
 BYTE   Gn4  v096
 BYTE   N16  Bn4  v116
 BYTE   W16
 BYTE   Fs4  v096
 BYTE   N16  An4  v116
 BYTE   W16
 BYTE   En4  v096
 BYTE   N16  Gn4  v116
 BYTE   W16
// 050   ----------------------------------------
 BYTE   N36  Gn4  v096
 BYTE   N36  Bn4  v116
 BYTE   W36
 BYTE   Fs4  v096
 BYTE   N36  An4  v116
 BYTE   W36
 BYTE   N24  En4  v096
 BYTE   N24  Gn4  v116
 BYTE   W24
// 051   ----------------------------------------
 BYTE   N36  Fs4  v096
 BYTE   N36  An4  v116
 BYTE   W36
 BYTE   En4  v096
 BYTE   N36  Gn4  v116
 BYTE   W36
 BYTE   N24  Ds4  v096
 BYTE   N24  Fs4  v116
 BYTE   W24
// 052   ----------------------------------------
 BYTE   W96
// 053   ----------------------------------------
 BYTE   W96
// 054   ----------------------------------------
 BYTE   W96
// 055   ----------------------------------------
 BYTE   W96
// 056   ----------------------------------------
 BYTE   W96
// 057   ----------------------------------------
 BYTE   W96
// 058   ----------------------------------------
 BYTE   W96
// 059   ----------------------------------------
 BYTE   W96
// 060   ----------------------------------------
 BYTE   W96
// 061   ----------------------------------------
 BYTE   W96
// 062   ----------------------------------------
 BYTE   W96
// 063   ----------------------------------------
 BYTE   W96
// 064   ----------------------------------------
 BYTE   W96
// 065   ----------------------------------------
 BYTE   W96
// 066   ----------------------------------------
 BYTE   W96
// 067   ----------------------------------------
 BYTE   W96
// 068   ----------------------------------------
 BYTE   W96
// 069   ----------------------------------------
 BYTE   W96
// 070   ----------------------------------------
 BYTE   W96
// 071   ----------------------------------------
 BYTE   W96
// 072   ----------------------------------------
 BYTE   W96
// 073   ----------------------------------------
 BYTE   W96
// 074   ----------------------------------------
 BYTE   W96
// 075   ----------------------------------------
 BYTE   W96
// 076   ----------------------------------------
 BYTE   W96
// 077   ----------------------------------------
 BYTE   W96
// 078   ----------------------------------------
 BYTE   W96
// 079   ----------------------------------------
 BYTE   W96
// 080   ----------------------------------------
 BYTE   GoTo
  POIN2 Label_10_01481AF0
 BYTE   FINE

//**************** Track 12 (Midi-Chn.11) ****************//

song0146_012:
// 000   ----------------------------------------
 BYTE   KEYSH   song0146_key+0
 BYTE   VOICE   47
 BYTE   VOL   31*song0146_mvl/mxv
 BYTE   PAN   c_v-2
 BYTE   W96
// 001   ----------------------------------------
 BYTE   W96
// 002   ----------------------------------------
 BYTE   W96
// 003   ----------------------------------------
 BYTE   W96
// 004   ----------------------------------------
Label_11_01482814:
 BYTE   W96
// 005   ----------------------------------------
 BYTE   W96
// 006   ----------------------------------------
Label_11_01482816:
 BYTE   N12  En1  v112
 BYTE   W36
 BYTE   En1  v100
 BYTE   W60
 BYTE   PEND 
// 007   ----------------------------------------
 BYTE   En1  v112
 BYTE   W36
 BYTE   En1  v120
 BYTE   W36
 BYTE   En1  v112
 BYTE   W24
// 008   ----------------------------------------
 BYTE   PATT
  POIN2 Label_11_01482816
// 009   ----------------------------------------
Label_11_0148282C:
 BYTE   N12  En1  v112
 BYTE   W36
 BYTE   En1  v120
 BYTE   W36
 BYTE   En1  v112
 BYTE   W12
 BYTE   N12
 BYTE   W12
 BYTE   PEND 
// 010   ----------------------------------------
 BYTE   PATT
  POIN2 Label_11_01482816
// 011   ----------------------------------------
Label_11_0148283E:
 BYTE   N12  En1  v112
 BYTE   W12
 BYTE   En1  v100
 BYTE   W24
 BYTE   N12
 BYTE   W36
 BYTE   En1  v092
 BYTE   W12
 BYTE   En1  v100
 BYTE   W12
 BYTE   PEND 
// 012   ----------------------------------------
 BYTE   PATT
  POIN2 Label_11_01482816
// 013   ----------------------------------------
 BYTE   PATT
  POIN2 Label_11_0148282C
// 014   ----------------------------------------
 BYTE   PATT
  POIN2 Label_11_01482816
// 015   ----------------------------------------
 BYTE   PATT
  POIN2 Label_11_0148283E
// 016   ----------------------------------------
 BYTE   PATT
  POIN2 Label_11_01482816
// 017   ----------------------------------------
 BYTE   PATT
  POIN2 Label_11_0148282C
// 018   ----------------------------------------
 BYTE   PATT
  POIN2 Label_11_01482816
// 019   ----------------------------------------
 BYTE   PATT
  POIN2 Label_11_0148283E
// 020   ----------------------------------------
Label_11_01482876:
 BYTE   N12  Cn2  v112
 BYTE   W36
 BYTE   Cn2  v100
 BYTE   W60
 BYTE   PEND 
// 021   ----------------------------------------
Label_11_0148287E:
 BYTE   N12  Cn2  v112
 BYTE   W36
 BYTE   Cn2  v120
 BYTE   W36
 BYTE   Cn2  v112
 BYTE   W12
 BYTE   N12
 BYTE   W12
 BYTE   PEND 
// 022   ----------------------------------------
 BYTE   PATT
  POIN2 Label_11_01482876
// 023   ----------------------------------------
 BYTE   N12  Cn2  v112
 BYTE   W12
 BYTE   Cn2  v100
 BYTE   W24
 BYTE   N12
 BYTE   W12
 BYTE   N12
 BYTE   W24
 BYTE   Cn2  v092
 BYTE   W12
 BYTE   N04  Cn2  v100
 BYTE   W04
 BYTE   Cn2  v108
 BYTE   W04
 BYTE   Cn2  v112
 BYTE   W04
// 024   ----------------------------------------
 BYTE   PATT
  POIN2 Label_11_01482816
// 025   ----------------------------------------
 BYTE   PATT
  POIN2 Label_11_0148282C
// 026   ----------------------------------------
 BYTE   PATT
  POIN2 Label_11_01482816
// 027   ----------------------------------------
 BYTE   PATT
  POIN2 Label_11_0148283E
// 028   ----------------------------------------
 BYTE   PATT
  POIN2 Label_11_01482816
// 029   ----------------------------------------
 BYTE   PATT
  POIN2 Label_11_0148282C
// 030   ----------------------------------------
 BYTE   PATT
  POIN2 Label_11_01482816
// 031   ----------------------------------------
 BYTE   PATT
  POIN2 Label_11_0148283E
// 032   ----------------------------------------
 BYTE   PATT
  POIN2 Label_11_01482816
// 033   ----------------------------------------
 BYTE   PATT
  POIN2 Label_11_0148282C
// 034   ----------------------------------------
 BYTE   PATT
  POIN2 Label_11_01482816
// 035   ----------------------------------------
 BYTE   PATT
  POIN2 Label_11_0148283E
// 036   ----------------------------------------
 BYTE   PATT
  POIN2 Label_11_01482876
// 037   ----------------------------------------
 BYTE   PATT
  POIN2 Label_11_0148287E
// 038   ----------------------------------------
 BYTE   N12  Fn1  v112
 BYTE   W36
 BYTE   Fn1  v100
 BYTE   W60
// 039   ----------------------------------------
 BYTE   Fn1  v112
 BYTE   W12
 BYTE   Fn1  v100
 BYTE   W24
 BYTE   N12
 BYTE   W12
 BYTE   N12
 BYTE   W24
 BYTE   Fn1  v092
 BYTE   W12
 BYTE   N04  Fn1  v100
 BYTE   W04
 BYTE   Fn1  v108
 BYTE   W04
 BYTE   Fn1  v112
 BYTE   W04
// 040   ----------------------------------------
 BYTE   PATT
  POIN2 Label_11_01482816
// 041   ----------------------------------------
 BYTE   PATT
  POIN2 Label_11_0148282C
// 042   ----------------------------------------
 BYTE   PATT
  POIN2 Label_11_01482816
// 043   ----------------------------------------
 BYTE   PATT
  POIN2 Label_11_0148283E
// 044   ----------------------------------------
Label_11_01482920:
 BYTE   N24  Cn2  v120
 BYTE   W24
 BYTE   N12  Cn2  v100
 BYTE   W12
 BYTE   N24  Gn1  v112
 BYTE   W24
 BYTE   N12  Gn1  v092
 BYTE   W12
 BYTE   N24  Cn2  v112
 BYTE   W24
 BYTE   PEND 
// 045   ----------------------------------------
 BYTE   Gn1  v120
 BYTE   W24
 BYTE   N12  Gn1  v100
 BYTE   W12
 BYTE   N24  Cn2  v112
 BYTE   W24
 BYTE   N12  Cn2  v092
 BYTE   W12
 BYTE   Gn1  v112
 BYTE   W12
 BYTE   Cn2
 BYTE   W12
// 046   ----------------------------------------
Label_11_01482949:
 BYTE   N24  En1  v120
 BYTE   W24
 BYTE   N12  En1  v100
 BYTE   W12
 BYTE   N24  Bn1  v112
 BYTE   W24
 BYTE   N12  Bn1  v092
 BYTE   W12
 BYTE   N24  En1  v112
 BYTE   W24
 BYTE   PEND 
// 047   ----------------------------------------
Label_11_0148295E:
 BYTE   N24  Bn1  v120
 BYTE   W24
 BYTE   N12  Bn1  v100
 BYTE   W12
 BYTE   N24  En1  v112
 BYTE   W24
 BYTE   N12  En1  v092
 BYTE   W12
 BYTE   Bn1  v112
 BYTE   W12
 BYTE   En1
 BYTE   W12
 BYTE   PEND 
// 048   ----------------------------------------
 BYTE   PATT
  POIN2 Label_11_01482920
// 049   ----------------------------------------
 BYTE   N24  Gn1  v120
 BYTE   W24
 BYTE   N12  Gn1  v100
 BYTE   W12
 BYTE   N24  Cn2  v112
 BYTE   W24
 BYTE   N12  Cn2  v092
 BYTE   W12
 BYTE   Gn1  v112
 BYTE   W12
 BYTE   N04  Fs1
 BYTE   W04
 BYTE   N04
 BYTE   W04
 BYTE   Fs1  v120
 BYTE   W04
// 050   ----------------------------------------
Label_11_01482994:
 BYTE   N12  Bn1  v127
 BYTE   W12
 BYTE   N06  Fs1  v092
 BYTE   W06
 BYTE   Fs1  v108
 BYTE   W06
 BYTE   N12  Fs1  v120
 BYTE   W12
 BYTE   Bn1  v127
 BYTE   W12
 BYTE   N06  Fs1  v092
 BYTE   W06
 BYTE   Fs1  v108
 BYTE   W06
 BYTE   N12  Fs1  v120
 BYTE   W12
 BYTE   N06  Bn1  v127
 BYTE   W06
 BYTE   Fs1  v100
 BYTE   W06
 BYTE   N12  Fs1  v120
 BYTE   W12
 BYTE   PEND 
// 051   ----------------------------------------
 BYTE   PATT
  POIN2 Label_11_01482994
// 052   ----------------------------------------
 BYTE   N24  En1  v120
 BYTE   W96
// 053   ----------------------------------------
 BYTE   W96
// 054   ----------------------------------------
 BYTE   W96
// 055   ----------------------------------------
 BYTE   W96
// 056   ----------------------------------------
 BYTE   W96
// 057   ----------------------------------------
 BYTE   W96
// 058   ----------------------------------------
 BYTE   W96
// 059   ----------------------------------------
 BYTE   N06  Bn1  v032
 BYTE   W06
 BYTE   N03
 BYTE   W03
 BYTE   N03
 BYTE   W03
 BYTE   N03
 BYTE   W03
 BYTE   N03
 BYTE   W03
 BYTE   N03
 BYTE   W03
 BYTE   N03
 BYTE   W03
 BYTE   N03
 BYTE   W03
 BYTE   Bn1  v036
 BYTE   W03
 BYTE   N03
 BYTE   W03
 BYTE   N03
 BYTE   W03
 BYTE   N03
 BYTE   W03
 BYTE   Bn1  v040
 BYTE   W03
 BYTE   N03
 BYTE   W03
 BYTE   Bn1  v048
 BYTE   W03
 BYTE   N06
 BYTE   W06
 BYTE   N03  Bn1  v052
 BYTE   W03
 BYTE   N03
 BYTE   W03
 BYTE   Bn1  v056
 BYTE   W03
 BYTE   Bn1  v060
 BYTE   W03
 BYTE   Bn1  v068
 BYTE   W03
 BYTE   Bn1  v072
 BYTE   W03
 BYTE   Bn1  v076
 BYTE   W03
 BYTE   Bn1  v080
 BYTE   W03
 BYTE   Bn1  v088
 BYTE   W03
 BYTE   Bn1  v092
 BYTE   W03
 BYTE   Bn1  v096
 BYTE   W03
 BYTE   Bn1  v100
 BYTE   W03
 BYTE   Bn1  v108
 BYTE   W03
 BYTE   Bn1  v112
 BYTE   W03
// 060   ----------------------------------------
 BYTE   PATT
  POIN2 Label_11_01482949
// 061   ----------------------------------------
 BYTE   PATT
  POIN2 Label_11_0148295E
// 062   ----------------------------------------
Label_11_01482A25:
 BYTE   N24  Fn1  v120
 BYTE   W24
 BYTE   N12  Fn1  v100
 BYTE   W12
 BYTE   N24  Cn2  v112
 BYTE   W24
 BYTE   N12  Cn2  v092
 BYTE   W12
 BYTE   N24  Fn1  v112
 BYTE   W24
 BYTE   PEND 
// 063   ----------------------------------------
Label_11_01482A3A:
 BYTE   N24  An1  v120
 BYTE   W24
 BYTE   N12  An1  v100
 BYTE   W12
 BYTE   N24  Dn1  v112
 BYTE   W24
 BYTE   N12  Dn1  v092
 BYTE   W12
 BYTE   An1  v112
 BYTE   W12
 BYTE   Dn1
 BYTE   W12
 BYTE   PEND 
// 064   ----------------------------------------
 BYTE   PATT
  POIN2 Label_11_01482949
// 065   ----------------------------------------
 BYTE   PATT
  POIN2 Label_11_0148295E
// 066   ----------------------------------------
 BYTE   PATT
  POIN2 Label_11_01482A25
// 067   ----------------------------------------
 BYTE   PATT
  POIN2 Label_11_01482A3A
// 068   ----------------------------------------
 BYTE   PATT
  POIN2 Label_11_01482949
// 069   ----------------------------------------
 BYTE   PATT
  POIN2 Label_11_0148295E
// 070   ----------------------------------------
 BYTE   PATT
  POIN2 Label_11_01482A25
// 071   ----------------------------------------
 BYTE   PATT
  POIN2 Label_11_01482A3A
// 072   ----------------------------------------
 BYTE   PATT
  POIN2 Label_11_01482949
// 073   ----------------------------------------
 BYTE   PATT
  POIN2 Label_11_0148295E
// 074   ----------------------------------------
 BYTE   PATT
  POIN2 Label_11_01482A25
// 075   ----------------------------------------
 BYTE   PATT
  POIN2 Label_11_01482A3A
// 076   ----------------------------------------
 BYTE   N24  En1  v120
 BYTE   W96
// 077   ----------------------------------------
 BYTE   W96
// 078   ----------------------------------------
 BYTE   W96
// 079   ----------------------------------------
 BYTE   W96
// 080   ----------------------------------------
 BYTE   GoTo
  POIN2 Label_11_01482814
 BYTE   FINE

//**************** Track 13 (Midi-Chn.12) ****************//

song0146_013:
// 000   ----------------------------------------
 BYTE   KEYSH   song0146_key+0
 BYTE   VOICE   111
 BYTE   VOL   28*song0146_mvl/mxv
 BYTE   PAN   c_v+63
 BYTE   N96  Cn4  v080
 BYTE   W96
// 001   ----------------------------------------
 BYTE   N96
 BYTE   W96
// 002   ----------------------------------------
 BYTE   N96
 BYTE   W96
// 003   ----------------------------------------
 BYTE   Dn4
 BYTE   W96
// 004   ----------------------------------------
Label_12_0148186A:
 BYTE   N96  Cn4  v080
 BYTE   W96
// 005   ----------------------------------------
 BYTE   N96
 BYTE   W96
// 006   ----------------------------------------
 BYTE   N96
 BYTE   W96
// 007   ----------------------------------------
 BYTE   Dn4
 BYTE   W96
// 008   ----------------------------------------
 BYTE   Cn4
 BYTE   W96
// 009   ----------------------------------------
 BYTE   N96
 BYTE   W96
// 010   ----------------------------------------
 BYTE   N96
 BYTE   W96
// 011   ----------------------------------------
 BYTE   Dn4
 BYTE   W96
// 012   ----------------------------------------
 BYTE   Cn4
 BYTE   W96
// 013   ----------------------------------------
 BYTE   N96
 BYTE   W96
// 014   ----------------------------------------
 BYTE   N96
 BYTE   W96
// 015   ----------------------------------------
 BYTE   Dn4
 BYTE   W96
// 016   ----------------------------------------
 BYTE   Cn4
 BYTE   W96
// 017   ----------------------------------------
 BYTE   N96
 BYTE   W96
// 018   ----------------------------------------
 BYTE   N96
 BYTE   W96
// 019   ----------------------------------------
 BYTE   Dn4
 BYTE   W96
// 020   ----------------------------------------
 BYTE   Cn4
 BYTE   W96
// 021   ----------------------------------------
 BYTE   N96
 BYTE   W96
// 022   ----------------------------------------
 BYTE   N96
 BYTE   W96
// 023   ----------------------------------------
 BYTE   Dn4
 BYTE   W96
// 024   ----------------------------------------
 BYTE   Cn4
 BYTE   W96
// 025   ----------------------------------------
 BYTE   N96
 BYTE   W96
// 026   ----------------------------------------
 BYTE   N96
 BYTE   W96
// 027   ----------------------------------------
 BYTE   Dn4
 BYTE   W96
// 028   ----------------------------------------
 BYTE   Cn4
 BYTE   W96
// 029   ----------------------------------------
 BYTE   N96
 BYTE   W96
// 030   ----------------------------------------
 BYTE   N96
 BYTE   W96
// 031   ----------------------------------------
 BYTE   Dn4
 BYTE   W96
// 032   ----------------------------------------
 BYTE   Cn4
 BYTE   W96
// 033   ----------------------------------------
 BYTE   N96
 BYTE   W96
// 034   ----------------------------------------
 BYTE   N96
 BYTE   W96
// 035   ----------------------------------------
 BYTE   Dn4
 BYTE   W96
// 036   ----------------------------------------
 BYTE   Cn4
 BYTE   W96
// 037   ----------------------------------------
 BYTE   N96
 BYTE   W96
// 038   ----------------------------------------
 BYTE   N96
 BYTE   W96
// 039   ----------------------------------------
 BYTE   Dn4
 BYTE   W96
// 040   ----------------------------------------
 BYTE   Cn4
 BYTE   W96
// 041   ----------------------------------------
 BYTE   N96
 BYTE   W96
// 042   ----------------------------------------
 BYTE   N96
 BYTE   W96
// 043   ----------------------------------------
 BYTE   Dn4
 BYTE   W96
// 044   ----------------------------------------
 BYTE   Cn4
 BYTE   W96
// 045   ----------------------------------------
 BYTE   N96
 BYTE   W96
// 046   ----------------------------------------
 BYTE   N96
 BYTE   W96
// 047   ----------------------------------------
 BYTE   Dn4
 BYTE   W96
// 048   ----------------------------------------
 BYTE   Cn4
 BYTE   W96
// 049   ----------------------------------------
 BYTE   N96
 BYTE   W96
// 050   ----------------------------------------
 BYTE   N96
 BYTE   W96
// 051   ----------------------------------------
 BYTE   Dn4
 BYTE   W96
// 052   ----------------------------------------
 BYTE   W96
// 053   ----------------------------------------
 BYTE   W96
// 054   ----------------------------------------
 BYTE   W96
// 055   ----------------------------------------
 BYTE   W96
// 056   ----------------------------------------
 BYTE   W96
// 057   ----------------------------------------
 BYTE   W96
// 058   ----------------------------------------
 BYTE   VOL   18*song0146_mvl/mxv
 BYTE   N96  Cn4
 BYTE   W03
 BYTE   VOL   18*song0146_mvl/mxv
 BYTE   W04
 BYTE   FsM1
 BYTE   W04
 BYTE   GnM1
 BYTE   W03
 BYTE   GnM1
 BYTE   W04
 BYTE   GnM1
 BYTE   W04
 BYTE   GnM1
 BYTE   W03
 BYTE   GsM1
 BYTE   W04
 BYTE   GsM1
 BYTE   W04
 BYTE   GsM1
 BYTE   W03
 BYTE   GsM1
 BYTE   W04
 BYTE   GsM1
 BYTE   W04
 BYTE   AnM1
 BYTE   W04
 BYTE   AnM1
 BYTE   W03
 BYTE   AnM1
 BYTE   W04
 BYTE   AnM1
 BYTE   W04
 BYTE   AsM1
 BYTE   W03
 BYTE   AsM1
 BYTE   W04
 BYTE   AsM1
 BYTE   W04
 BYTE   AsM1
 BYTE   W03
 BYTE   BnM1
 BYTE   W04
 BYTE   BnM1
 BYTE   W04
 BYTE   BnM1
 BYTE   W03
 BYTE   BnM1
 BYTE   W04
 BYTE   Cn0
 BYTE   W04
 BYTE   Cn0
 BYTE   W04
// 059   ----------------------------------------
 BYTE   Cn0
 BYTE   N96
 BYTE   W03
 BYTE   VOL   24*song0146_mvl/mxv
 BYTE   W04
 BYTE   Cs0
 BYTE   W04
 BYTE   Cs0
 BYTE   W03
 BYTE   Cs0
 BYTE   W04
 BYTE   Cs0
 BYTE   W04
 BYTE   Dn0
 BYTE   W03
 BYTE   Dn0
 BYTE   W04
 BYTE   Dn0
 BYTE   W04
 BYTE   Dn0
 BYTE   W03
 BYTE   Ds0
 BYTE   W04
 BYTE   Ds0
 BYTE   W04
 BYTE   Ds0
 BYTE   W04
 BYTE   Ds0
 BYTE   W03
 BYTE   En0
 BYTE   W04
 BYTE   En0
 BYTE   W04
 BYTE   En0
 BYTE   W03
 BYTE   En0
 BYTE   W04
 BYTE   Fn0
 BYTE   W04
 BYTE   Fn0
 BYTE   W03
 BYTE   Fn0
 BYTE   W04
 BYTE   Fn0
 BYTE   W04
 BYTE   Fs0
 BYTE   W03
 BYTE   Fs0
 BYTE   W04
 BYTE   Fs0
 BYTE   W04
 BYTE   Fs0
 BYTE   W04
// 060   ----------------------------------------
 BYTE   Gn0
 BYTE   N96
 BYTE   W96
// 061   ----------------------------------------
 BYTE   N96
 BYTE   W96
// 062   ----------------------------------------
 BYTE   N96
 BYTE   W96
// 063   ----------------------------------------
 BYTE   Dn4
 BYTE   W96
// 064   ----------------------------------------
 BYTE   Cn4
 BYTE   W96
// 065   ----------------------------------------
 BYTE   N96
 BYTE   W96
// 066   ----------------------------------------
 BYTE   N96
 BYTE   W96
// 067   ----------------------------------------
 BYTE   Dn4
 BYTE   W96
// 068   ----------------------------------------
 BYTE   Cn4
 BYTE   W96
// 069   ----------------------------------------
 BYTE   N96
 BYTE   W96
// 070   ----------------------------------------
 BYTE   N96
 BYTE   W96
// 071   ----------------------------------------
 BYTE   Dn4
 BYTE   W96
// 072   ----------------------------------------
 BYTE   Cn4
 BYTE   W96
// 073   ----------------------------------------
 BYTE   N96
 BYTE   W96
// 074   ----------------------------------------
 BYTE   N96
 BYTE   W96
// 075   ----------------------------------------
 BYTE   Dn4
 BYTE   W96
// 076   ----------------------------------------
 BYTE   Cn4
 BYTE   W96
// 077   ----------------------------------------
 BYTE   N96
 BYTE   W96
// 078   ----------------------------------------
 BYTE   N96
 BYTE   W96
// 079   ----------------------------------------
 BYTE   Dn4
 BYTE   W96
// 080   ----------------------------------------
 BYTE   GoTo
  POIN2 Label_12_0148186A
 BYTE   FINE

//**************** Track 14 (Midi-Chn.13) ****************//

song0146_014:
// 000   ----------------------------------------
 BYTE   KEYSH   song0146_key+0
 BYTE   VOICE   111
 BYTE   VOL   28*song0146_mvl/mxv
 BYTE   PAN   c_v-64
 BYTE   N96  Cn3  v080
 BYTE   W96
// 001   ----------------------------------------
 BYTE   N96
 BYTE   W96
// 002   ----------------------------------------
 BYTE   N96
 BYTE   W96
// 003   ----------------------------------------
 BYTE   Dn3
 BYTE   W96
// 004   ----------------------------------------
Label_13_01453DB2:
 BYTE   N96  Cn3  v080
 BYTE   W96
// 005   ----------------------------------------
 BYTE   N96
 BYTE   W96
// 006   ----------------------------------------
 BYTE   N96
 BYTE   W96
// 007   ----------------------------------------
 BYTE   Dn3
 BYTE   W96
// 008   ----------------------------------------
 BYTE   Cn3
 BYTE   W96
// 009   ----------------------------------------
 BYTE   N96
 BYTE   W96
// 010   ----------------------------------------
 BYTE   N96
 BYTE   W96
// 011   ----------------------------------------
 BYTE   Dn3
 BYTE   W96
// 012   ----------------------------------------
 BYTE   Cn3
 BYTE   W96
// 013   ----------------------------------------
 BYTE   N96
 BYTE   W96
// 014   ----------------------------------------
 BYTE   N96
 BYTE   W96
// 015   ----------------------------------------
 BYTE   Dn3
 BYTE   W96
// 016   ----------------------------------------
 BYTE   Cn3
 BYTE   W96
// 017   ----------------------------------------
 BYTE   N96
 BYTE   W96
// 018   ----------------------------------------
 BYTE   N96
 BYTE   W96
// 019   ----------------------------------------
 BYTE   Dn3
 BYTE   W96
// 020   ----------------------------------------
 BYTE   Cn3
 BYTE   W96
// 021   ----------------------------------------
 BYTE   N96
 BYTE   W96
// 022   ----------------------------------------
 BYTE   N96
 BYTE   W96
// 023   ----------------------------------------
 BYTE   Dn3
 BYTE   W96
// 024   ----------------------------------------
 BYTE   Cn3
 BYTE   W96
// 025   ----------------------------------------
 BYTE   N96
 BYTE   W96
// 026   ----------------------------------------
 BYTE   N96
 BYTE   W96
// 027   ----------------------------------------
 BYTE   Dn3
 BYTE   W96
// 028   ----------------------------------------
 BYTE   Cn3
 BYTE   W96
// 029   ----------------------------------------
 BYTE   N96
 BYTE   W96
// 030   ----------------------------------------
 BYTE   N96
 BYTE   W96
// 031   ----------------------------------------
 BYTE   Dn3
 BYTE   W96
// 032   ----------------------------------------
 BYTE   Cn3
 BYTE   W96
// 033   ----------------------------------------
 BYTE   N96
 BYTE   W96
// 034   ----------------------------------------
 BYTE   N96
 BYTE   W96
// 035   ----------------------------------------
 BYTE   Dn3
 BYTE   W96
// 036   ----------------------------------------
 BYTE   Cn3
 BYTE   W96
// 037   ----------------------------------------
 BYTE   N96
 BYTE   W96
// 038   ----------------------------------------
 BYTE   N96
 BYTE   W96
// 039   ----------------------------------------
 BYTE   Dn3
 BYTE   W96
// 040   ----------------------------------------
 BYTE   Cn3
 BYTE   W96
// 041   ----------------------------------------
 BYTE   N96
 BYTE   W96
// 042   ----------------------------------------
 BYTE   N96
 BYTE   W96
// 043   ----------------------------------------
 BYTE   Dn3
 BYTE   W96
// 044   ----------------------------------------
 BYTE   Cn3
 BYTE   W96
// 045   ----------------------------------------
 BYTE   N96
 BYTE   W96
// 046   ----------------------------------------
 BYTE   N96
 BYTE   W96
// 047   ----------------------------------------
 BYTE   Dn3
 BYTE   W96
// 048   ----------------------------------------
 BYTE   Cn3
 BYTE   W96
// 049   ----------------------------------------
 BYTE   N96
 BYTE   W96
// 050   ----------------------------------------
 BYTE   N96
 BYTE   W96
// 051   ----------------------------------------
 BYTE   Dn3
 BYTE   W96
// 052   ----------------------------------------
 BYTE   W96
// 053   ----------------------------------------
 BYTE   W96
// 054   ----------------------------------------
 BYTE   W96
// 055   ----------------------------------------
 BYTE   W96
// 056   ----------------------------------------
 BYTE   W96
// 057   ----------------------------------------
 BYTE   W96
// 058   ----------------------------------------
 BYTE   VOL   18*song0146_mvl/mxv
 BYTE   N96  Cn3
 BYTE   W03
 BYTE   VOL   18*song0146_mvl/mxv
 BYTE   W04
 BYTE   FsM1
 BYTE   W04
 BYTE   GnM1
 BYTE   W03
 BYTE   GnM1
 BYTE   W04
 BYTE   GnM1
 BYTE   W04
 BYTE   GnM1
 BYTE   W03
 BYTE   GsM1
 BYTE   W04
 BYTE   GsM1
 BYTE   W04
 BYTE   GsM1
 BYTE   W03
 BYTE   GsM1
 BYTE   W04
 BYTE   GsM1
 BYTE   W04
 BYTE   AnM1
 BYTE   W04
 BYTE   AnM1
 BYTE   W03
 BYTE   AnM1
 BYTE   W04
 BYTE   AnM1
 BYTE   W04
 BYTE   AsM1
 BYTE   W03
 BYTE   AsM1
 BYTE   W04
 BYTE   AsM1
 BYTE   W04
 BYTE   AsM1
 BYTE   W03
 BYTE   BnM1
 BYTE   W04
 BYTE   BnM1
 BYTE   W04
 BYTE   BnM1
 BYTE   W03
 BYTE   BnM1
 BYTE   W04
 BYTE   Cn0
 BYTE   W04
 BYTE   Cn0
 BYTE   W04
// 059   ----------------------------------------
 BYTE   Cn0
 BYTE   N96
 BYTE   W03
 BYTE   VOL   24*song0146_mvl/mxv
 BYTE   W04
 BYTE   Cs0
 BYTE   W04
 BYTE   Cs0
 BYTE   W03
 BYTE   Cs0
 BYTE   W04
 BYTE   Cs0
 BYTE   W04
 BYTE   Dn0
 BYTE   W03
 BYTE   Dn0
 BYTE   W04
 BYTE   Dn0
 BYTE   W04
 BYTE   Dn0
 BYTE   W03
 BYTE   Ds0
 BYTE   W04
 BYTE   Ds0
 BYTE   W04
 BYTE   Ds0
 BYTE   W04
 BYTE   Ds0
 BYTE   W03
 BYTE   En0
 BYTE   W04
 BYTE   En0
 BYTE   W04
 BYTE   En0
 BYTE   W03
 BYTE   En0
 BYTE   W04
 BYTE   Fn0
 BYTE   W04
 BYTE   Fn0
 BYTE   W03
 BYTE   Fn0
 BYTE   W04
 BYTE   Fn0
 BYTE   W04
 BYTE   Fs0
 BYTE   W03
 BYTE   Fs0
 BYTE   W04
 BYTE   Fs0
 BYTE   W04
 BYTE   Fs0
 BYTE   W04
// 060   ----------------------------------------
 BYTE   Gn0
 BYTE   N96
 BYTE   W96
// 061   ----------------------------------------
 BYTE   N96
 BYTE   W96
// 062   ----------------------------------------
 BYTE   N96
 BYTE   W96
// 063   ----------------------------------------
 BYTE   Dn3
 BYTE   W96
// 064   ----------------------------------------
 BYTE   Cn3
 BYTE   W96
// 065   ----------------------------------------
 BYTE   N96
 BYTE   W96
// 066   ----------------------------------------
 BYTE   N96
 BYTE   W96
// 067   ----------------------------------------
 BYTE   Dn3
 BYTE   W96
// 068   ----------------------------------------
 BYTE   Cn3
 BYTE   W96
// 069   ----------------------------------------
 BYTE   N96
 BYTE   W96
// 070   ----------------------------------------
 BYTE   N96
 BYTE   W96
// 071   ----------------------------------------
 BYTE   Dn3
 BYTE   W96
// 072   ----------------------------------------
 BYTE   Cn3
 BYTE   W96
// 073   ----------------------------------------
 BYTE   N96
 BYTE   W96
// 074   ----------------------------------------
 BYTE   N96
 BYTE   W96
// 075   ----------------------------------------
 BYTE   Dn3
 BYTE   W96
// 076   ----------------------------------------
 BYTE   Cn3
 BYTE   W96
// 077   ----------------------------------------
 BYTE   N96
 BYTE   W96
// 078   ----------------------------------------
 BYTE   N96
 BYTE   W96
// 079   ----------------------------------------
 BYTE   Dn3
 BYTE   W96
// 080   ----------------------------------------
 BYTE   GoTo
  POIN2 Label_13_01453DB2
 BYTE   FINE

//******************************************************//
	ALIGN 4

song0146:
	BYTE	14	// NumTrks
	BYTE	0	// NumBlks
	BYTE	song0146_pri	// Priority
	BYTE	song0146_rev	// Reverb.
    
	POIN2	song0146_grp
    
	POIN2	song0146_001
	POIN2	song0146_002
	POIN2	song0146_003
	POIN2	song0146_004
	POIN2	song0146_005
	POIN2	song0146_006
	POIN2	song0146_007
	POIN2	song0146_008
	POIN2	song0146_009
	POIN2	song0146_010
	POIN2	song0146_011
	POIN2	song0146_012
	POIN2	song0146_013
	POIN2	song0146_014

	
