//Event file generated from Sappy .s format.
	#include "MPlayDef.event"

	#define	song0146_grp  voicegroup001
	#define	song0146_pri  0
	#define	song0146_rev  0
	#define	song0146_mvl  127
	#define	song0146_key  0
	#define	song0146_tbs  1
	#define	song0146_exg  0
	#define	song0146_cmp  1

	// .rodata
	//	song0146
	ALIGN 4


//**************** Track 1 (Midi-Chn.0) ****************//

song0146_001:
// 000   ----------------------------------------
 BYTE   KEYSH   song0146_key+0
Label_0_01455392:
 BYTE   TEMPO   168*song0146_tbs/2
 BYTE   VOICE   127
 BYTE   VOL   28*song0146_mvl/mxv
 BYTE   PAN   c_v-21
 BYTE   W96
// 001   ----------------------------------------
 BYTE   W96
// 002   ----------------------------------------
 BYTE   W96
// 003   ----------------------------------------
 BYTE   N10  An1  v120
 BYTE   W24
 BYTE   Dn1
 BYTE   W12
 BYTE   An1
 BYTE   W24
 BYTE   Dn1
 BYTE   W12
 BYTE   An1
 BYTE   W24
// 004   ----------------------------------------
 BYTE   Dn1
 BYTE   W12
 BYTE   An1
 BYTE   W24
 BYTE   Dn1
 BYTE   W12
 BYTE   An1
 BYTE   W24
 BYTE   N01  Dn1
 BYTE   W03
 BYTE   N01
 BYTE   W03
 BYTE   N01
 BYTE   W03
 BYTE   N01
 BYTE   W03
 BYTE   N01
 BYTE   W03
 BYTE   N01
 BYTE   W03
 BYTE   N01
 BYTE   W03
 BYTE   N01
 BYTE   W03
// 005   ----------------------------------------
 BYTE   N10
 BYTE   W12
 BYTE   N10
 BYTE   W12
 BYTE   N10
 BYTE   W12
 BYTE   N10
 BYTE   W12
 BYTE   An1
 BYTE   W24
 BYTE   Dn1
 BYTE   W12
 BYTE   N10
 BYTE   W12
// 006   ----------------------------------------
 BYTE   An1
 BYTE   W24
 BYTE   Dn1
 BYTE   W12
 BYTE   N10
 BYTE   W24
 BYTE   N10
 BYTE   W12
 BYTE   N10
 BYTE   W12
 BYTE   N10
 BYTE   W12
// 007   ----------------------------------------
 BYTE   N10
 BYTE   W12
 BYTE   N10
 BYTE   W12
 BYTE   An1
 BYTE   W24
 BYTE   Dn1
 BYTE   W12
 BYTE   N10
 BYTE   W12
 BYTE   An1
 BYTE   W24
// 008   ----------------------------------------
 BYTE   Dn1
 BYTE   W12
 BYTE   N10
 BYTE   W24
 BYTE   N10
 BYTE   W12
 BYTE   N10
 BYTE   W48
// 009   ----------------------------------------
Label_0_014553F0:
 BYTE   W24
 BYTE   N04  An1  v120
 BYTE   W06
 BYTE   N04
 BYTE   W06
 BYTE   N10  Dn1
 BYTE   W60
 BYTE   PEND 
// 010   ----------------------------------------
 BYTE   N04  An1
 BYTE   W06
 BYTE   N04
 BYTE   W06
 BYTE   N10  Dn1
 BYTE   W60
 BYTE   N04  An1
 BYTE   W06
 BYTE   N04
 BYTE   W06
 BYTE   N10  Dn1
 BYTE   W12
// 011   ----------------------------------------
 BYTE   W48
 BYTE   N04
 BYTE   W06
 BYTE   N04
 BYTE   W06
 BYTE   N04
 BYTE   W06
 BYTE   N04
 BYTE   W06
 BYTE   N10
 BYTE   W24
// 012   ----------------------------------------
 BYTE   W48
 BYTE   N04  An1
 BYTE   W06
 BYTE   N04
 BYTE   W06
 BYTE   N10  Dn1
 BYTE   W36
// 013   ----------------------------------------
 BYTE   PATT
  POIN2 Label_0_014553F0
// 014   ----------------------------------------
 BYTE   N04  An1  v120
 BYTE   W06
 BYTE   N04
 BYTE   W06
 BYTE   N10  Dn1
 BYTE   W60
 BYTE   N04
 BYTE   W06
 BYTE   N04
 BYTE   W06
 BYTE   N04
 BYTE   W06
 BYTE   N04
 BYTE   W06
// 015   ----------------------------------------
 BYTE   N10
 BYTE   W24
 BYTE   N22  Dn2
 BYTE   W48
 BYTE   Dn1
 BYTE   W24
// 016   ----------------------------------------
Label_0_0145543C:
 BYTE   W24
 BYTE   N22  Dn2  v120
 BYTE   W24
 BYTE   Dn1
 BYTE   W48
 BYTE   PEND 
// 017   ----------------------------------------
Label_0_01455444:
 BYTE   N02  Dn1  v112
 BYTE   W04
 BYTE   N02
 BYTE   W04
 BYTE   N02
 BYTE   W04
 BYTE   N02
 BYTE   W04
 BYTE   N02
 BYTE   W04
 BYTE   N02
 BYTE   W04
 BYTE   N22  An1  v120
 BYTE   W48
 BYTE   Dn1
 BYTE   W24
 BYTE   PEND 
// 018   ----------------------------------------
Label_0_01455459:
 BYTE   W24
 BYTE   N22  An1  v120
 BYTE   W24
 BYTE   Dn1
 BYTE   W48
 BYTE   PEND 
// 019   ----------------------------------------
 BYTE   N02  Dn1  v112
 BYTE   W04
 BYTE   N02
 BYTE   W04
 BYTE   N02
 BYTE   W04
 BYTE   N02
 BYTE   W04
 BYTE   N02
 BYTE   W04
 BYTE   N02
 BYTE   W04
 BYTE   N22  Dn2  v120
 BYTE   W48
 BYTE   Dn1
 BYTE   W24
// 020   ----------------------------------------
 BYTE   PATT
  POIN2 Label_0_0145543C
// 021   ----------------------------------------
 BYTE   PATT
  POIN2 Label_0_01455444
// 022   ----------------------------------------
 BYTE   PATT
  POIN2 Label_0_01455459
// 023   ----------------------------------------
 BYTE   N02  Dn1  v112
 BYTE   W04
 BYTE   N02
 BYTE   W04
 BYTE   N02
 BYTE   W04
 BYTE   N02
 BYTE   W04
 BYTE   N02
 BYTE   W04
 BYTE   N02
 BYTE   W04
 BYTE   N10  Cn2  v120
 BYTE   W12
 BYTE   Gn1
 BYTE   W12
 BYTE   N10
 BYTE   W12
 BYTE   Bn1
 BYTE   W12
 BYTE   Gn1
 BYTE   W12
 BYTE   N10
 BYTE   W12
// 024   ----------------------------------------
Label_0_014554A0:
 BYTE   N10  Dn1  v120
 BYTE   W12
 BYTE   Gn1
 BYTE   W12
 BYTE   N10
 BYTE   W72
 BYTE   PEND 
// 025   ----------------------------------------
 BYTE   W24
 BYTE   Cn2
 BYTE   W12
 BYTE   Gn1
 BYTE   W12
 BYTE   N10
 BYTE   W12
 BYTE   Bn1
 BYTE   W12
 BYTE   Gn1
 BYTE   W12
 BYTE   N10
 BYTE   W12
// 026   ----------------------------------------
 BYTE   PATT
  POIN2 Label_0_014554A0
// 027   ----------------------------------------
 BYTE   W96
// 028   ----------------------------------------
 BYTE   W96
// 029   ----------------------------------------
 BYTE   W96
// 030   ----------------------------------------
 BYTE   W96
// 031   ----------------------------------------
 BYTE   W96
// 032   ----------------------------------------
 BYTE   W96
// 033   ----------------------------------------
 BYTE   W96
// 034   ----------------------------------------
 BYTE   N02  Dn1  v120
 BYTE   W04
 BYTE   N02
 BYTE   W04
 BYTE   N02
 BYTE   W04
 BYTE   N02
 BYTE   W04
 BYTE   N02
 BYTE   W04
 BYTE   N02
 BYTE   W04
 BYTE   N22  An1
 BYTE   W24
 BYTE   Dn1
 BYTE   W24
 BYTE   An1
 BYTE   W24
// 035   ----------------------------------------
 BYTE   Dn1
 BYTE   W24
 BYTE   N24  An1
 BYTE   W72
// 036   ----------------------------------------
 BYTE   W96
// 037   ----------------------------------------
 BYTE   N02  Dn1  v112
 BYTE   W04
 BYTE   N02
 BYTE   W04
 BYTE   N02
 BYTE   W04
 BYTE   N02
 BYTE   W04
 BYTE   N02
 BYTE   W04
 BYTE   N02
 BYTE   W04
 BYTE   N24  An1  v120
 BYTE   W48
 BYTE   N02  Dn1  v112
 BYTE   W04
 BYTE   N02
 BYTE   W04
 BYTE   N02
 BYTE   W04
 BYTE   N02
 BYTE   W04
 BYTE   N02
 BYTE   W04
 BYTE   N02
 BYTE   W04
// 038   ----------------------------------------
 BYTE   N22  An1  v120
 BYTE   W24
 BYTE   N24
 BYTE   W72
// 039   ----------------------------------------
 BYTE   W96
// 040   ----------------------------------------
 BYTE   N02  Dn1  v112
 BYTE   W04
 BYTE   N02
 BYTE   W04
 BYTE   N02
 BYTE   W04
 BYTE   N02
 BYTE   W04
 BYTE   N02
 BYTE   W04
 BYTE   N02
 BYTE   W04
 BYTE   N22  An1  v120
 BYTE   W24
 BYTE   N22
 BYTE   W48
// 041   ----------------------------------------
 BYTE   N02  Dn1  v112
 BYTE   W04
 BYTE   N02
 BYTE   W04
 BYTE   N02
 BYTE   W04
 BYTE   N02
 BYTE   W04
 BYTE   N02
 BYTE   W04
 BYTE   N02
 BYTE   W04
 BYTE   N10  An1  v120
 BYTE   W12
 BYTE   N10
 BYTE   W12
 BYTE   N10
 BYTE   W12
 BYTE   Dn1
 BYTE   W12
 BYTE   N10
 BYTE   W12
 BYTE   N10
 BYTE   W12
// 042   ----------------------------------------
 BYTE   An1
 BYTE   W12
 BYTE   N10
 BYTE   W12
 BYTE   N10
 BYTE   W12
 BYTE   Dn1
 BYTE   W12
 BYTE   N10
 BYTE   W12
 BYTE   N10
 BYTE   W12
 BYTE   An1
 BYTE   W12
 BYTE   N10
 BYTE   W12
// 043   ----------------------------------------
 BYTE   Dn1
 BYTE   W12
 BYTE   N10
 BYTE   W12
 BYTE   An1
 BYTE   W12
 BYTE   N10
 BYTE   W12
 BYTE   Dn1
 BYTE   W12
 BYTE   N10
 BYTE   W12
 BYTE   An1
 BYTE   W12
 BYTE   Dn1
 BYTE   W12
// 044   ----------------------------------------
 BYTE   W96
// 045   ----------------------------------------
 BYTE   W72
 BYTE   N24  An1
 BYTE   W24
// 046   ----------------------------------------
 BYTE   W96
// 047   ----------------------------------------
 BYTE   W48
 BYTE   N02  Dn1  v112
 BYTE   W04
 BYTE   N02
 BYTE   W04
 BYTE   N02
 BYTE   W04
 BYTE   N02
 BYTE   W04
 BYTE   N02
 BYTE   W04
 BYTE   N02
 BYTE   W04
 BYTE   N24  An1  v120
 BYTE   W24
// 048   ----------------------------------------
 BYTE   W24
 BYTE   N02  Dn1  v112
 BYTE   W04
 BYTE   N02
 BYTE   W04
 BYTE   N02
 BYTE   W04
 BYTE   N02
 BYTE   W04
 BYTE   N02
 BYTE   W04
 BYTE   N02
 BYTE   W04
 BYTE   N22  An1  v120
 BYTE   W24
 BYTE   N24
 BYTE   W24
// 049   ----------------------------------------
 BYTE   W96
// 050   ----------------------------------------
 BYTE   W48
 BYTE   N02  Dn1  v112
 BYTE   W04
 BYTE   N02
 BYTE   W04
 BYTE   N02
 BYTE   W04
 BYTE   N02
 BYTE   W04
 BYTE   N02
 BYTE   W04
 BYTE   N02
 BYTE   W04
 BYTE   N22  An1  v120
 BYTE   W24
// 051   ----------------------------------------
 BYTE   N22
 BYTE   W48
 BYTE   N02  Dn1  v112
 BYTE   W04
 BYTE   N02
 BYTE   W04
 BYTE   N02
 BYTE   W04
 BYTE   N02
 BYTE   W04
 BYTE   N02
 BYTE   W04
 BYTE   N02
 BYTE   W04
 BYTE   N10  An1  v120
 BYTE   W12
 BYTE   N10
 BYTE   W12
// 052   ----------------------------------------
 BYTE   N10
 BYTE   W12
 BYTE   Dn1
 BYTE   W12
 BYTE   N10
 BYTE   W12
 BYTE   N10
 BYTE   W12
 BYTE   An1
 BYTE   W12
 BYTE   N10
 BYTE   W12
 BYTE   N10
 BYTE   W12
 BYTE   Dn1
 BYTE   W12
// 053   ----------------------------------------
 BYTE   N10
 BYTE   W12
 BYTE   N10
 BYTE   W12
 BYTE   An1
 BYTE   W12
 BYTE   N10
 BYTE   W12
 BYTE   Dn1
 BYTE   W12
 BYTE   N10
 BYTE   W12
 BYTE   An1
 BYTE   W12
 BYTE   N10
 BYTE   W12
// 054   ----------------------------------------
 BYTE   Dn1
 BYTE   W12
 BYTE   N10
 BYTE   W12
 BYTE   An1
 BYTE   W12
 BYTE   Dn1
 BYTE   W60
// 055   ----------------------------------------
 BYTE   W96
// 056   ----------------------------------------
 BYTE   W96
// 057   ----------------------------------------
 BYTE   W96
// 058   ----------------------------------------
 BYTE   W96
// 059   ----------------------------------------
 BYTE   W96
// 060   ----------------------------------------
 BYTE   W48
 BYTE   N22  An1
 BYTE   W48
// 061   ----------------------------------------
 BYTE   Dn1
 BYTE   W48
 BYTE   Dn2
 BYTE   W48
// 062   ----------------------------------------
 BYTE   Dn1
 BYTE   W96
// 063   ----------------------------------------
 BYTE   W96
// 064   ----------------------------------------
 BYTE   W36
 BYTE   GoTo
  POIN2 Label_0_01455392
 BYTE   FINE

//**************** Track 2 (Midi-Chn.1) ****************//

song0146_002:
// 000   ----------------------------------------
 BYTE   KEYSH   song0146_key+0
Label_1_01454C32:
 BYTE   VOICE   124
 BYTE   VOL   24*song0146_mvl/mxv
 BYTE   PAN   c_v+32
 BYTE   W96
// 001   ----------------------------------------
 BYTE   W96
// 002   ----------------------------------------
 BYTE   W96
// 003   ----------------------------------------
 BYTE   W96
// 004   ----------------------------------------
 BYTE   W96
// 005   ----------------------------------------
 BYTE   W96
// 006   ----------------------------------------
 BYTE   W96
// 007   ----------------------------------------
 BYTE   W96
// 008   ----------------------------------------
 BYTE   W96
// 009   ----------------------------------------
 BYTE   W96
// 010   ----------------------------------------
 BYTE   W96
// 011   ----------------------------------------
 BYTE   W96
// 012   ----------------------------------------
 BYTE   W96
// 013   ----------------------------------------
 BYTE   W96
// 014   ----------------------------------------
 BYTE   W96
// 015   ----------------------------------------
Label_1_01454C47:
 BYTE   W24
 BYTE   N01  Fs1  v116
 BYTE   W24
 BYTE   N01
 BYTE   W24
 BYTE   N01
 BYTE   W24
 BYTE   PEND 
// 016   ----------------------------------------
Label_1_01454C51:
 BYTE   N01  Fs1  v116
 BYTE   W24
 BYTE   N01
 BYTE   W24
 BYTE   N01
 BYTE   W24
 BYTE   N01
 BYTE   W24
 BYTE   PEND 
// 017   ----------------------------------------
 BYTE   PATT
  POIN2 Label_1_01454C51
// 018   ----------------------------------------
 BYTE   PATT
  POIN2 Label_1_01454C51
// 019   ----------------------------------------
 BYTE   PATT
  POIN2 Label_1_01454C51
// 020   ----------------------------------------
 BYTE   PATT
  POIN2 Label_1_01454C51
// 021   ----------------------------------------
 BYTE   PATT
  POIN2 Label_1_01454C51
// 022   ----------------------------------------
 BYTE   PATT
  POIN2 Label_1_01454C51
// 023   ----------------------------------------
 BYTE   N01  Fs1  v116
 BYTE   W96
// 024   ----------------------------------------
 BYTE   W96
// 025   ----------------------------------------
 BYTE   W96
// 026   ----------------------------------------
 BYTE   W96
// 027   ----------------------------------------
 BYTE   PATT
  POIN2 Label_1_01454C47
// 028   ----------------------------------------
 BYTE   PATT
  POIN2 Label_1_01454C51
// 029   ----------------------------------------
 BYTE   PATT
  POIN2 Label_1_01454C51
// 030   ----------------------------------------
 BYTE   PATT
  POIN2 Label_1_01454C51
// 031   ----------------------------------------
 BYTE   PATT
  POIN2 Label_1_01454C51
// 032   ----------------------------------------
 BYTE   PATT
  POIN2 Label_1_01454C51
// 033   ----------------------------------------
 BYTE   PATT
  POIN2 Label_1_01454C51
// 034   ----------------------------------------
 BYTE   PATT
  POIN2 Label_1_01454C51
// 035   ----------------------------------------
 BYTE   N01  Fs1  v116
 BYTE   W24
 BYTE   N01
 BYTE   W12
 BYTE   N01
 BYTE   W06
 BYTE   N01
 BYTE   W06
 BYTE   N01
 BYTE   W12
 BYTE   N01
 BYTE   W06
 BYTE   N01
 BYTE   W06
 BYTE   N01
 BYTE   W12
 BYTE   N01
 BYTE   W06
 BYTE   N01
 BYTE   W06
// 036   ----------------------------------------
Label_1_01454CBF:
 BYTE   N01  Fs1  v116
 BYTE   W12
 BYTE   N01
 BYTE   W06
 BYTE   N01
 BYTE   W06
 BYTE   N01
 BYTE   W12
 BYTE   N01
 BYTE   W06
 BYTE   N01
 BYTE   W06
 BYTE   N01
 BYTE   W12
 BYTE   N01
 BYTE   W06
 BYTE   N01
 BYTE   W06
 BYTE   N01
 BYTE   W12
 BYTE   N01
 BYTE   W06
 BYTE   N01
 BYTE   W06
 BYTE   PEND 
// 037   ----------------------------------------
 BYTE   PATT
  POIN2 Label_1_01454CBF
// 038   ----------------------------------------
 BYTE   PATT
  POIN2 Label_1_01454CBF
// 039   ----------------------------------------
 BYTE   PATT
  POIN2 Label_1_01454CBF
// 040   ----------------------------------------
 BYTE   PATT
  POIN2 Label_1_01454CBF
// 041   ----------------------------------------
 BYTE   PATT
  POIN2 Label_1_01454CBF
// 042   ----------------------------------------
 BYTE   PATT
  POIN2 Label_1_01454CBF
// 043   ----------------------------------------
 BYTE   N01  Fs1  v116
 BYTE   W12
 BYTE   N01
 BYTE   W06
 BYTE   N01
 BYTE   W06
 BYTE   N01
 BYTE   W12
 BYTE   N01
 BYTE   W06
 BYTE   N01
 BYTE   W06
 BYTE   N01
 BYTE   W12
 BYTE   N01
 BYTE   W06
 BYTE   N01
 BYTE   W06
 BYTE   N01
 BYTE   W24
// 044   ----------------------------------------
 BYTE   PATT
  POIN2 Label_1_01454C51
// 045   ----------------------------------------
 BYTE   N01  Fs1  v116
 BYTE   W24
 BYTE   N01
 BYTE   W12
 BYTE   N01
 BYTE   W06
 BYTE   N01
 BYTE   W30
 BYTE   N01
 BYTE   W12
 BYTE   N01
 BYTE   W06
 BYTE   N01
 BYTE   W06
// 046   ----------------------------------------
 BYTE   PATT
  POIN2 Label_1_01454CBF
// 047   ----------------------------------------
 BYTE   PATT
  POIN2 Label_1_01454CBF
// 048   ----------------------------------------
 BYTE   PATT
  POIN2 Label_1_01454CBF
// 049   ----------------------------------------
 BYTE   PATT
  POIN2 Label_1_01454CBF
// 050   ----------------------------------------
 BYTE   PATT
  POIN2 Label_1_01454CBF
// 051   ----------------------------------------
 BYTE   PATT
  POIN2 Label_1_01454CBF
// 052   ----------------------------------------
 BYTE   PATT
  POIN2 Label_1_01454CBF
// 053   ----------------------------------------
 BYTE   PATT
  POIN2 Label_1_01454CBF
// 054   ----------------------------------------
 BYTE   N01  Fs1  v116
 BYTE   W12
 BYTE   N01
 BYTE   W06
 BYTE   N01
 BYTE   W06
 BYTE   N01
 BYTE   W24
 BYTE   N01
 BYTE   W24
 BYTE   N01
 BYTE   W24
// 055   ----------------------------------------
 BYTE   N01
 BYTE   W24
 BYTE   N01
 BYTE   W24
 BYTE   N01
 BYTE   W24
 BYTE   N01
 BYTE   W12
 BYTE   N01
 BYTE   W06
 BYTE   N01
 BYTE   W06
// 056   ----------------------------------------
 BYTE   PATT
  POIN2 Label_1_01454C47
// 057   ----------------------------------------
 BYTE   PATT
  POIN2 Label_1_01454C51
// 058   ----------------------------------------
 BYTE   PATT
  POIN2 Label_1_01454C51
// 059   ----------------------------------------
 BYTE   PATT
  POIN2 Label_1_01454C51
// 060   ----------------------------------------
 BYTE   N01  Fs1  v116
 BYTE   W24
 BYTE   N01
 BYTE   W12
 BYTE   N01
 BYTE   W36
 BYTE   N01
 BYTE   W12
 BYTE   N01
 BYTE   W12
// 061   ----------------------------------------
 BYTE   W24
 BYTE   N01
 BYTE   W12
 BYTE   N01
 BYTE   W36
 BYTE   N01
 BYTE   W12
 BYTE   N01
 BYTE   W12
// 062   ----------------------------------------
 BYTE   PATT
  POIN2 Label_1_01454C47
// 063   ----------------------------------------
 BYTE   PATT
  POIN2 Label_1_01454C51
// 064   ----------------------------------------
 BYTE   N01  Fs1  v116
 BYTE   W36
 BYTE   GoTo
  POIN2 Label_1_01454C32
 BYTE   FINE

//**************** Track 3 (Midi-Chn.2) ****************//

song0146_003:
// 000   ----------------------------------------
 BYTE   KEYSH   song0146_key+0
Label_2_01455E76:
 BYTE   VOICE   127
 BYTE   VOL   26*song0146_mvl/mxv
 BYTE   PAN   c_v+0
 BYTE   N24  An2  v124
 BYTE   W96
// 001   ----------------------------------------
 BYTE   W96
// 002   ----------------------------------------
 BYTE   W96
// 003   ----------------------------------------
 BYTE   W96
// 004   ----------------------------------------
 BYTE   W96
// 005   ----------------------------------------
 BYTE   W96
// 006   ----------------------------------------
 BYTE   W48
 BYTE   N23
 BYTE   W48
// 007   ----------------------------------------
 BYTE   W96
// 008   ----------------------------------------
Label_2_01455E89:
 BYTE   W24
 BYTE   N23  An2  v124
 BYTE   W48
 BYTE   N23
 BYTE   W24
 BYTE   PEND 
// 009   ----------------------------------------
 BYTE   W48
 BYTE   N23
 BYTE   W48
// 010   ----------------------------------------
 BYTE   W24
 BYTE   N23
 BYTE   W72
// 011   ----------------------------------------
 BYTE   W72
 BYTE   N23
 BYTE   W24
// 012   ----------------------------------------
 BYTE   N23
 BYTE   W72
 BYTE   N23
 BYTE   W24
// 013   ----------------------------------------
 BYTE   W48
 BYTE   N23
 BYTE   W48
// 014   ----------------------------------------
 BYTE   W96
// 015   ----------------------------------------
 BYTE   N23
 BYTE   W24
 BYTE   N23
 BYTE   W72
// 016   ----------------------------------------
 BYTE   W96
// 017   ----------------------------------------
 BYTE   W24
 BYTE   N23
 BYTE   W72
// 018   ----------------------------------------
 BYTE   W96
// 019   ----------------------------------------
 BYTE   W24
 BYTE   N23
 BYTE   W72
// 020   ----------------------------------------
 BYTE   W96
// 021   ----------------------------------------
 BYTE   W24
 BYTE   N23
 BYTE   W72
// 022   ----------------------------------------
 BYTE   W96
// 023   ----------------------------------------
 BYTE   W96
// 024   ----------------------------------------
 BYTE   W48
 BYTE   N23
 BYTE   W48
// 025   ----------------------------------------
 BYTE   W96
// 026   ----------------------------------------
 BYTE   W48
 BYTE   N23
 BYTE   W48
// 027   ----------------------------------------
 BYTE   W24
 BYTE   N23
 BYTE   W72
// 028   ----------------------------------------
 BYTE   W96
// 029   ----------------------------------------
 BYTE   W96
// 030   ----------------------------------------
 BYTE   W96
// 031   ----------------------------------------
 BYTE   W24
 BYTE   N23
 BYTE   W72
// 032   ----------------------------------------
 BYTE   W96
// 033   ----------------------------------------
 BYTE   W96
// 034   ----------------------------------------
 BYTE   PATT
  POIN2 Label_2_01455E89
// 035   ----------------------------------------
 BYTE   W96
// 036   ----------------------------------------
 BYTE   W96
// 037   ----------------------------------------
 BYTE   W24
 BYTE   N23  An2  v124
 BYTE   W72
// 038   ----------------------------------------
 BYTE   N23
 BYTE   W96
// 039   ----------------------------------------
 BYTE   W96
// 040   ----------------------------------------
 BYTE   W24
 BYTE   N23
 BYTE   W72
// 041   ----------------------------------------
 BYTE   W24
 BYTE   N23
 BYTE   W72
// 042   ----------------------------------------
 BYTE   W96
// 043   ----------------------------------------
 BYTE   W96
// 044   ----------------------------------------
 BYTE   W96
// 045   ----------------------------------------
 BYTE   W48
 BYTE   N23
 BYTE   W48
// 046   ----------------------------------------
 BYTE   W96
// 047   ----------------------------------------
 BYTE   W72
 BYTE   N23
 BYTE   W24
// 048   ----------------------------------------
 BYTE   W48
 BYTE   N23
 BYTE   W48
// 049   ----------------------------------------
 BYTE   W96
// 050   ----------------------------------------
 BYTE   W72
 BYTE   N23
 BYTE   W24
// 051   ----------------------------------------
 BYTE   W72
 BYTE   N23
 BYTE   W24
// 052   ----------------------------------------
 BYTE   W96
// 053   ----------------------------------------
 BYTE   W96
// 054   ----------------------------------------
 BYTE   W96
// 055   ----------------------------------------
 BYTE   W96
// 056   ----------------------------------------
 BYTE   N23
 BYTE   W96
// 057   ----------------------------------------
 BYTE   W96
// 058   ----------------------------------------
 BYTE   W96
// 059   ----------------------------------------
 BYTE   W96
// 060   ----------------------------------------
 BYTE   W48
 BYTE   N23
 BYTE   W48
// 061   ----------------------------------------
 BYTE   N23
 BYTE   W48
 BYTE   N23
 BYTE   W48
// 062   ----------------------------------------
 BYTE   N23
 BYTE   W96
// 063   ----------------------------------------
 BYTE   W96
// 064   ----------------------------------------
 BYTE   W36
 BYTE   GoTo
  POIN2 Label_2_01455E76
 BYTE   FINE

//**************** Track 4 (Midi-Chn.3) ****************//

song0146_004:
// 000   ----------------------------------------
 BYTE   KEYSH   song0146_key+0
Label_3_0145635A:
 BYTE   VOICE   36
 BYTE   VOL   21*song0146_mvl/mxv
 BYTE   PAN   c_v-64
 BYTE   N12  An2  v127
 BYTE   W12
 BYTE   N09  An1
 BYTE   W12
 BYTE   N09
 BYTE   W12
 BYTE   An2
 BYTE   W12
 BYTE   An1
 BYTE   W12
 BYTE   N09
 BYTE   W12
 BYTE   An2
 BYTE   W12
 BYTE   An1
 BYTE   W12
// 001   ----------------------------------------
 BYTE   N09
 BYTE   W12
 BYTE   An2
 BYTE   W12
 BYTE   An1
 BYTE   W12
 BYTE   N09
 BYTE   W12
 BYTE   An2
 BYTE   W12
 BYTE   An1
 BYTE   W12
 BYTE   An2
 BYTE   W12
 BYTE   An1
 BYTE   W12
// 002   ----------------------------------------
 BYTE   An2
 BYTE   W12
 BYTE   An1
 BYTE   W12
 BYTE   N09
 BYTE   W12
 BYTE   An2
 BYTE   W12
 BYTE   An1
 BYTE   W12
 BYTE   N09
 BYTE   W12
 BYTE   An2
 BYTE   W12
 BYTE   An1
 BYTE   W12
// 003   ----------------------------------------
 BYTE   N68  En2  v108
 BYTE   W72
 BYTE   N23  Bn1
 BYTE   W24
// 004   ----------------------------------------
 BYTE   N44  Cn2
 BYTE   W48
 BYTE   Gs1
 BYTE   W48
// 005   ----------------------------------------
 BYTE   N11  An2
 BYTE   W48
 BYTE   An1
 BYTE   W48
// 006   ----------------------------------------
 BYTE   An2
 BYTE   W24
 BYTE   An1
 BYTE   W48
 BYTE   Bn1
 BYTE   W24
// 007   ----------------------------------------
 BYTE   W24
 BYTE   N11
 BYTE   W48
 BYTE   N11
 BYTE   W24
// 008   ----------------------------------------
 BYTE   N11
 BYTE   W48
 BYTE   N03  Dn2
 BYTE   W06
 BYTE   Cn2
 BYTE   W06
 BYTE   Bn1
 BYTE   W06
 BYTE   As1
 BYTE   W06
 BYTE   N09  An1
 BYTE   W12
 BYTE   N09
 BYTE   W12
// 009   ----------------------------------------
Label_3_014563BF:
 BYTE   N09  An1  v108
 BYTE   W12
 BYTE   N09
 BYTE   W12
 BYTE   N09
 BYTE   W12
 BYTE   N09
 BYTE   W12
 BYTE   N09
 BYTE   W12
 BYTE   N09
 BYTE   W12
 BYTE   N09
 BYTE   W12
 BYTE   N09
 BYTE   W12
 BYTE   PEND 
// 010   ----------------------------------------
 BYTE   PATT
  POIN2 Label_3_014563BF
// 011   ----------------------------------------
 BYTE   PATT
  POIN2 Label_3_014563BF
// 012   ----------------------------------------
 BYTE   PATT
  POIN2 Label_3_014563BF
// 013   ----------------------------------------
 BYTE   PATT
  POIN2 Label_3_014563BF
// 014   ----------------------------------------
 BYTE   PATT
  POIN2 Label_3_014563BF
// 015   ----------------------------------------
 BYTE   N09  An1  v108
 BYTE   W12
 BYTE   N09
 BYTE   W12
 BYTE   N11  En2
 BYTE   W12
 BYTE   Bn1
 BYTE   W12
 BYTE   En2
 BYTE   W12
 BYTE   Bn1
 BYTE   W12
 BYTE   En2
 BYTE   W12
 BYTE   Bn1
 BYTE   W12
// 016   ----------------------------------------
Label_3_014563FE:
 BYTE   N11  En2  v108
 BYTE   W12
 BYTE   Bn1
 BYTE   W12
 BYTE   En2
 BYTE   W12
 BYTE   Bn1
 BYTE   W12
 BYTE   En2
 BYTE   W12
 BYTE   Bn1
 BYTE   W12
 BYTE   En2
 BYTE   W12
 BYTE   Bn1
 BYTE   W12
 BYTE   PEND 
// 017   ----------------------------------------
Label_3_01456411:
 BYTE   N11  En2  v108
 BYTE   W12
 BYTE   Bn1
 BYTE   W12
 BYTE   Fn1
 BYTE   W12
 BYTE   Cn2
 BYTE   W12
 BYTE   Fn1
 BYTE   W12
 BYTE   Cn2
 BYTE   W12
 BYTE   Fn1
 BYTE   W12
 BYTE   Cn2
 BYTE   W12
 BYTE   PEND 
// 018   ----------------------------------------
Label_3_01456424:
 BYTE   N11  Fn1  v108
 BYTE   W12
 BYTE   Cn2
 BYTE   W12
 BYTE   Fn1
 BYTE   W12
 BYTE   Cn2
 BYTE   W12
 BYTE   Fn1
 BYTE   W12
 BYTE   Cn2
 BYTE   W12
 BYTE   Fn1
 BYTE   W12
 BYTE   Cn2
 BYTE   W12
 BYTE   PEND 
// 019   ----------------------------------------
 BYTE   Fn1
 BYTE   W12
 BYTE   Cn2
 BYTE   W12
 BYTE   En2
 BYTE   W12
 BYTE   Bn1
 BYTE   W12
 BYTE   En2
 BYTE   W12
 BYTE   Bn1
 BYTE   W12
 BYTE   En2
 BYTE   W12
 BYTE   Bn1
 BYTE   W12
// 020   ----------------------------------------
 BYTE   PATT
  POIN2 Label_3_014563FE
// 021   ----------------------------------------
 BYTE   PATT
  POIN2 Label_3_01456411
// 022   ----------------------------------------
 BYTE   PATT
  POIN2 Label_3_01456424
// 023   ----------------------------------------
 BYTE   N11  Fn1  v108
 BYTE   W12
 BYTE   Cn2
 BYTE   W12
 BYTE   N09  Gn1
 BYTE   W12
 BYTE   N09
 BYTE   W12
 BYTE   N09
 BYTE   W12
 BYTE   Fn1
 BYTE   W12
 BYTE   N09
 BYTE   W12
 BYTE   N09
 BYTE   W12
// 024   ----------------------------------------
Label_3_01456469:
 BYTE   N09  En2  v108
 BYTE   W12
 BYTE   N09
 BYTE   W12
 BYTE   N09
 BYTE   W72
 BYTE   PEND 
// 025   ----------------------------------------
 BYTE   W24
 BYTE   Gn1
 BYTE   W12
 BYTE   N09
 BYTE   W12
 BYTE   N09
 BYTE   W12
 BYTE   Fn1
 BYTE   W12
 BYTE   N09
 BYTE   W12
 BYTE   N09
 BYTE   W12
// 026   ----------------------------------------
 BYTE   PATT
  POIN2 Label_3_01456469
// 027   ----------------------------------------
 BYTE   W24
 BYTE   N21  An1  v108
 BYTE   W24
 BYTE   N21
 BYTE   W24
 BYTE   N21
 BYTE   W24
// 028   ----------------------------------------
Label_3_0145648D:
 BYTE   N21  An1  v108
 BYTE   W24
 BYTE   N21
 BYTE   W24
 BYTE   N21
 BYTE   W24
 BYTE   N21
 BYTE   W24
 BYTE   PEND 
// 029   ----------------------------------------
 BYTE   PATT
  POIN2 Label_3_0145648D
// 030   ----------------------------------------
 BYTE   PATT
  POIN2 Label_3_0145648D
// 031   ----------------------------------------
 BYTE   PATT
  POIN2 Label_3_0145648D
// 032   ----------------------------------------
 BYTE   PATT
  POIN2 Label_3_0145648D
// 033   ----------------------------------------
 BYTE   PATT
  POIN2 Label_3_0145648D
// 034   ----------------------------------------
 BYTE   PATT
  POIN2 Label_3_0145648D
// 035   ----------------------------------------
 BYTE   N21  An1  v108
 BYTE   W24
 BYTE   N11
 BYTE   W12
 BYTE   N11
 BYTE   W12
 BYTE   Gn1
 BYTE   W12
 BYTE   N23  Fs1
 BYTE   W24
 BYTE   N11  En2
 BYTE   W12
// 036   ----------------------------------------
Label_3_014564C6:
 BYTE   N11  Ds1  v108
 BYTE   W12
 BYTE   En2
 BYTE   W12
 BYTE   An1
 BYTE   W12
 BYTE   N11
 BYTE   W12
 BYTE   Gn1
 BYTE   W12
 BYTE   N23  Fs1
 BYTE   W24
 BYTE   N11  En2
 BYTE   W12
 BYTE   PEND 
// 037   ----------------------------------------
 BYTE   Ds1
 BYTE   W12
 BYTE   En2
 BYTE   W12
 BYTE   N23  Bn1
 BYTE   W24
 BYTE   N11  An1
 BYTE   W12
 BYTE   Cn2
 BYTE   W12
 BYTE   En2
 BYTE   W12
 BYTE   Gn1
 BYTE   W12
// 038   ----------------------------------------
 BYTE   N23  Fs1
 BYTE   W24
 BYTE   N11  An1
 BYTE   W12
 BYTE   N11
 BYTE   W12
 BYTE   Gn1
 BYTE   W12
 BYTE   N23  Fs1
 BYTE   W24
 BYTE   N11  En2
 BYTE   W12
// 039   ----------------------------------------
 BYTE   PATT
  POIN2 Label_3_014564C6
// 040   ----------------------------------------
 BYTE   N11  Ds1  v108
 BYTE   W12
 BYTE   En2
 BYTE   W12
 BYTE   N23  Bn1
 BYTE   W24
 BYTE   N23
 BYTE   W24
 BYTE   N11  An1
 BYTE   W12
 BYTE   Cn2
 BYTE   W12
// 041   ----------------------------------------
 BYTE   En2
 BYTE   W12
 BYTE   Gn1
 BYTE   W12
 BYTE   N32  Bn1
 BYTE   W36
 BYTE   As1
 BYTE   W36
// 042   ----------------------------------------
 BYTE   An1
 BYTE   W36
 BYTE   Gs1
 BYTE   W36
 BYTE   N23  Gn1
 BYTE   W24
// 043   ----------------------------------------
 BYTE   Fs1
 BYTE   W24
 BYTE   Fn1
 BYTE   W24
 BYTE   En1
 BYTE   W24
 BYTE   N11  Cn2
 BYTE   W12
 BYTE   An1
 BYTE   W12
// 044   ----------------------------------------
 BYTE   W12
 BYTE   En2
 BYTE   W12
 BYTE   Ds1
 BYTE   W24
 BYTE   Cn2
 BYTE   W12
 BYTE   An1
 BYTE   W12
 BYTE   Cn2
 BYTE   W12
 BYTE   N12  An1
 BYTE   W12
// 045   ----------------------------------------
 BYTE   W48
 BYTE   N01  Fn1  v100
 BYTE   W03
 BYTE   En2
 BYTE   W03
 BYTE   Ds1
 BYTE   W03
 BYTE   Dn2
 BYTE   W03
 BYTE   Cs1
 BYTE   W03
 BYTE   Cn2
 BYTE   W03
 BYTE   Bn1
 BYTE   W03
 BYTE   As1
 BYTE   W03
 BYTE   N11  An1  v108
 BYTE   W12
 BYTE   N11
 BYTE   W12
// 046   ----------------------------------------
Label_3_01456550:
 BYTE   N11  Gn1  v108
 BYTE   W12
 BYTE   N23  Fs1
 BYTE   W24
 BYTE   N11  En2
 BYTE   W12
 BYTE   Ds1
 BYTE   W12
 BYTE   En2
 BYTE   W12
 BYTE   An1
 BYTE   W12
 BYTE   N11
 BYTE   W12
 BYTE   PEND 
// 047   ----------------------------------------
Label_3_01456563:
 BYTE   N11  Gn1  v108
 BYTE   W12
 BYTE   N23  Fs1
 BYTE   W24
 BYTE   N11  En2
 BYTE   W12
 BYTE   Ds1
 BYTE   W12
 BYTE   En2
 BYTE   W12
 BYTE   N23  Bn1
 BYTE   W24
 BYTE   PEND 
// 048   ----------------------------------------
 BYTE   N11  An1
 BYTE   W12
 BYTE   Cn2
 BYTE   W12
 BYTE   En2
 BYTE   W12
 BYTE   Gn1
 BYTE   W12
 BYTE   N23  Fs1
 BYTE   W24
 BYTE   N11  An1
 BYTE   W12
 BYTE   N11
 BYTE   W12
// 049   ----------------------------------------
 BYTE   PATT
  POIN2 Label_3_01456550
// 050   ----------------------------------------
 BYTE   PATT
  POIN2 Label_3_01456563
// 051   ----------------------------------------
 BYTE   N23  Bn1  v108
 BYTE   W24
 BYTE   N11  An1
 BYTE   W12
 BYTE   Cn2
 BYTE   W12
 BYTE   En2
 BYTE   W12
 BYTE   Gn1
 BYTE   W12
 BYTE   N32  Bn1
 BYTE   W24
// 052   ----------------------------------------
 BYTE   W12
 BYTE   As1
 BYTE   W36
 BYTE   An1
 BYTE   W36
 BYTE   Gs1
 BYTE   W12
// 053   ----------------------------------------
 BYTE   W24
 BYTE   N23  Gn1
 BYTE   W24
 BYTE   Fs1
 BYTE   W24
 BYTE   Fn1
 BYTE   W24
// 054   ----------------------------------------
 BYTE   En1
 BYTE   W24
 BYTE   N11  Cn2
 BYTE   W12
 BYTE   An1
 BYTE   W24
 BYTE   En2
 BYTE   W12
 BYTE   Ds1
 BYTE   W24
// 055   ----------------------------------------
 BYTE   Cn2
 BYTE   W12
 BYTE   An1
 BYTE   W12
 BYTE   Cn2
 BYTE   W12
 BYTE   An1
 BYTE   W60
// 056   ----------------------------------------
 BYTE   N01  Fn1  v100
 BYTE   W03
 BYTE   En2
 BYTE   W03
 BYTE   Ds1
 BYTE   W03
 BYTE   Dn2
 BYTE   W03
 BYTE   Cs1
 BYTE   W03
 BYTE   Cn2
 BYTE   W03
 BYTE   Bn1
 BYTE   W03
 BYTE   As1
 BYTE   W03
 BYTE   N11  Fn1  v108
 BYTE   W12
 BYTE   N11
 BYTE   W12
 BYTE   Cn2
 BYTE   W12
 BYTE   N23  Fn1
 BYTE   W24
 BYTE   N11  Cn2
 BYTE   W12
// 057   ----------------------------------------
 BYTE   Fn1
 BYTE   W12
 BYTE   Cn2
 BYTE   W12
 BYTE   Fn1
 BYTE   W12
 BYTE   N11
 BYTE   W12
 BYTE   Cn2
 BYTE   W12
 BYTE   N23  Fn1
 BYTE   W24
 BYTE   N11  Cn2
 BYTE   W12
// 058   ----------------------------------------
 BYTE   Fn1
 BYTE   W12
 BYTE   En2
 BYTE   W12
 BYTE   N32  Dn2
 BYTE   W36
 BYTE   N23  Dn1
 BYTE   W24
 BYTE   N11
 BYTE   W12
// 059   ----------------------------------------
 BYTE   En1
 BYTE   W12
 BYTE   Fn1
 BYTE   W12
 BYTE   En1
 BYTE   W12
 BYTE   N11
 BYTE   W12
 BYTE   En2
 BYTE   W12
 BYTE   En1
 BYTE   W12
 BYTE   Dn2
 BYTE   W12
 BYTE   En2
 BYTE   W12
// 060   ----------------------------------------
 BYTE   Dn2
 BYTE   W12
 BYTE   En1
 BYTE   W12
 BYTE   Fn1
 BYTE   W12
 BYTE   N11
 BYTE   W12
 BYTE   N23
 BYTE   W24
 BYTE   N11  En1
 BYTE   W12
 BYTE   N11
 BYTE   W12
// 061   ----------------------------------------
 BYTE   N23  En2
 BYTE   W24
 BYTE   N11  Ds1
 BYTE   W12
 BYTE   N11
 BYTE   W12
 BYTE   N23
 BYTE   W24
 BYTE   N11  En1
 BYTE   W12
 BYTE   N11
 BYTE   W12
// 062   ----------------------------------------
 BYTE   N23  En2
 BYTE   W24
 BYTE   N11  Dn1
 BYTE   W12
 BYTE   N11
 BYTE   W12
 BYTE   Dn2
 BYTE   W12
 BYTE   Dn1
 BYTE   W12
 BYTE   N11
 BYTE   W12
 BYTE   Dn2
 BYTE   W12
// 063   ----------------------------------------
 BYTE   Dn1
 BYTE   W12
 BYTE   N11
 BYTE   W12
 BYTE   En1
 BYTE   W12
 BYTE   N11
 BYTE   W12
 BYTE   En2
 BYTE   W12
 BYTE   En1
 BYTE   W12
 BYTE   N11
 BYTE   W12
 BYTE   En2
 BYTE   W12
// 064   ----------------------------------------
 BYTE   En1
 BYTE   W12
 BYTE   N11
 BYTE   W24
 BYTE   GoTo
  POIN2 Label_3_0145635A
 BYTE   FINE

//**************** Track 5 (Midi-Chn.4) ****************//

song0146_005:
// 000   ----------------------------------------
 BYTE   KEYSH   song0146_key+0
Label_4_01455FA6:
 BYTE   VOICE   36
 BYTE   VOL   21*song0146_mvl/mxv
 BYTE   PAN   c_v+63
 BYTE   BEND   c_v-2
 BYTE   W01
 BYTE   N09  An0  v127
 BYTE   W12
 BYTE   AnM1
 BYTE   W12
 BYTE   N09
 BYTE   W12
 BYTE   An0
 BYTE   W12
 BYTE   AnM1
 BYTE   W12
 BYTE   N09
 BYTE   W12
 BYTE   An0
 BYTE   W12
 BYTE   AnM1
 BYTE   W11
// 001   ----------------------------------------
 BYTE   W01
 BYTE   N09
 BYTE   W12
 BYTE   An0
 BYTE   W12
 BYTE   AnM1
 BYTE   W12
 BYTE   N09
 BYTE   W12
 BYTE   An0
 BYTE   W12
 BYTE   AnM1
 BYTE   W12
 BYTE   An0
 BYTE   W12
 BYTE   AnM1
 BYTE   W11
// 002   ----------------------------------------
 BYTE   W01
 BYTE   An0
 BYTE   W12
 BYTE   AnM1
 BYTE   W12
 BYTE   N09
 BYTE   W12
 BYTE   An0
 BYTE   W12
 BYTE   AnM1
 BYTE   W12
 BYTE   N09
 BYTE   W12
 BYTE   An0
 BYTE   W12
 BYTE   AnM1
 BYTE   W11
// 003   ----------------------------------------
 BYTE   W01
 BYTE   N68  En0  v108
 BYTE   W72
 BYTE   N23  Bn0
 BYTE   W23
// 004   ----------------------------------------
 BYTE   W01
 BYTE   N44  Cn1
 BYTE   W48
 BYTE   Gs0
 BYTE   W44
 BYTE   W03
// 005   ----------------------------------------
 BYTE   W01
 BYTE   N11  An0
 BYTE   W48
 BYTE   AnM1
 BYTE   W44
 BYTE   W03
// 006   ----------------------------------------
 BYTE   W01
 BYTE   An0
 BYTE   W24
 BYTE   AnM1
 BYTE   W48
 BYTE   Bn0
 BYTE   W23
// 007   ----------------------------------------
 BYTE   W24
 BYTE   W01
 BYTE   BnM1
 BYTE   W48
 BYTE   Bn0
 BYTE   W23
// 008   ----------------------------------------
 BYTE   W01
 BYTE   BnM1
 BYTE   W48
 BYTE   N03  Dn0
 BYTE   W06
 BYTE   Cn0
 BYTE   W06
 BYTE   BnM1
 BYTE   W06
 BYTE   AsM1
 BYTE   W06
 BYTE   N09  AnM1
 BYTE   W12
 BYTE   N09
 BYTE   W11
// 009   ----------------------------------------
Label_4_01456017:
 BYTE   W01
 BYTE   N09  AnM1  v108
 BYTE   W12
 BYTE   N09
 BYTE   W12
 BYTE   N09
 BYTE   W12
 BYTE   N09
 BYTE   W12
 BYTE   N09
 BYTE   W12
 BYTE   N09
 BYTE   W12
 BYTE   N09
 BYTE   W12
 BYTE   N09
 BYTE   W11
 BYTE   PEND 
// 010   ----------------------------------------
 BYTE   PATT
  POIN2 Label_4_01456017
// 011   ----------------------------------------
 BYTE   PATT
  POIN2 Label_4_01456017
// 012   ----------------------------------------
 BYTE   PATT
  POIN2 Label_4_01456017
// 013   ----------------------------------------
 BYTE   PATT
  POIN2 Label_4_01456017
// 014   ----------------------------------------
 BYTE   PATT
  POIN2 Label_4_01456017
// 015   ----------------------------------------
 BYTE   W01
 BYTE   N09  AnM1  v108
 BYTE   W12
 BYTE   N09
 BYTE   W12
 BYTE   N11  En0
 BYTE   W12
 BYTE   BnM1
 BYTE   W12
 BYTE   En0
 BYTE   W12
 BYTE   BnM1
 BYTE   W12
 BYTE   En0
 BYTE   W12
 BYTE   BnM1
 BYTE   W11
// 016   ----------------------------------------
Label_4_01456058:
 BYTE   W01
 BYTE   N11  En0  v108
 BYTE   W12
 BYTE   BnM1
 BYTE   W12
 BYTE   En0
 BYTE   W12
 BYTE   BnM1
 BYTE   W12
 BYTE   En0
 BYTE   W12
 BYTE   BnM1
 BYTE   W12
 BYTE   En0
 BYTE   W12
 BYTE   BnM1
 BYTE   W11
 BYTE   PEND 
// 017   ----------------------------------------
Label_4_0145606C:
 BYTE   W01
 BYTE   N11  En0  v108
 BYTE   W12
 BYTE   BnM1
 BYTE   W12
 BYTE   Fn0
 BYTE   W12
 BYTE   Cn0
 BYTE   W12
 BYTE   Fn0
 BYTE   W12
 BYTE   Cn0
 BYTE   W12
 BYTE   Fn0
 BYTE   W12
 BYTE   Cn0
 BYTE   W11
 BYTE   PEND 
// 018   ----------------------------------------
Label_4_01456080:
 BYTE   W01
 BYTE   N11  Fn0  v108
 BYTE   W12
 BYTE   Cn0
 BYTE   W12
 BYTE   Fn0
 BYTE   W12
 BYTE   Cn0
 BYTE   W12
 BYTE   Fn0
 BYTE   W12
 BYTE   Cn0
 BYTE   W12
 BYTE   Fn0
 BYTE   W12
 BYTE   Cn0
 BYTE   W11
 BYTE   PEND 
// 019   ----------------------------------------
 BYTE   W01
 BYTE   Fn0
 BYTE   W12
 BYTE   Cn0
 BYTE   W12
 BYTE   En0
 BYTE   W12
 BYTE   BnM1
 BYTE   W12
 BYTE   En0
 BYTE   W12
 BYTE   BnM1
 BYTE   W12
 BYTE   En0
 BYTE   W12
 BYTE   BnM1
 BYTE   W11
// 020   ----------------------------------------
 BYTE   PATT
  POIN2 Label_4_01456058
// 021   ----------------------------------------
 BYTE   PATT
  POIN2 Label_4_0145606C
// 022   ----------------------------------------
 BYTE   PATT
  POIN2 Label_4_01456080
// 023   ----------------------------------------
 BYTE   W01
 BYTE   N11  Fn0  v108
 BYTE   W12
 BYTE   Cn0
 BYTE   W12
 BYTE   N09  Gn0
 BYTE   W12
 BYTE   N09
 BYTE   W12
 BYTE   N09
 BYTE   W12
 BYTE   Fn0
 BYTE   W12
 BYTE   N09
 BYTE   W12
 BYTE   N09
 BYTE   W11
// 024   ----------------------------------------
Label_4_014560C8:
 BYTE   W01
 BYTE   N09  En0  v108
 BYTE   W12
 BYTE   N09
 BYTE   W12
 BYTE   N09
 BYTE   W68
 BYTE   W03
 BYTE   PEND 
// 025   ----------------------------------------
 BYTE   W24
 BYTE   W01
 BYTE   Gn0
 BYTE   W12
 BYTE   N09
 BYTE   W12
 BYTE   N09
 BYTE   W12
 BYTE   Fn0
 BYTE   W12
 BYTE   N09
 BYTE   W12
 BYTE   N09
 BYTE   W11
// 026   ----------------------------------------
 BYTE   PATT
  POIN2 Label_4_014560C8
// 027   ----------------------------------------
 BYTE   W24
 BYTE   W01
 BYTE   N21  AnM1  v108
 BYTE   W24
 BYTE   N21
 BYTE   W24
 BYTE   N21
 BYTE   W23
// 028   ----------------------------------------
Label_4_014560F0:
 BYTE   W01
 BYTE   N21  AnM1  v108
 BYTE   W24
 BYTE   N21
 BYTE   W24
 BYTE   N21
 BYTE   W24
 BYTE   N21
 BYTE   W23
 BYTE   PEND 
// 029   ----------------------------------------
 BYTE   PATT
  POIN2 Label_4_014560F0
// 030   ----------------------------------------
 BYTE   PATT
  POIN2 Label_4_014560F0
// 031   ----------------------------------------
 BYTE   PATT
  POIN2 Label_4_014560F0
// 032   ----------------------------------------
 BYTE   PATT
  POIN2 Label_4_014560F0
// 033   ----------------------------------------
 BYTE   PATT
  POIN2 Label_4_014560F0
// 034   ----------------------------------------
 BYTE   PATT
  POIN2 Label_4_014560F0
// 035   ----------------------------------------
 BYTE   W01
 BYTE   N21  AnM1  v108
 BYTE   W24
 BYTE   N11
 BYTE   W12
 BYTE   N11
 BYTE   W12
 BYTE   Gn0
 BYTE   W12
 BYTE   N23  Fs0
 BYTE   W24
 BYTE   N11  En0
 BYTE   W11
// 036   ----------------------------------------
Label_4_0145612B:
 BYTE   W01
 BYTE   N11  Ds0  v108
 BYTE   W12
 BYTE   En0
 BYTE   W12
 BYTE   AnM1
 BYTE   W12
 BYTE   N11
 BYTE   W12
 BYTE   Gn0
 BYTE   W12
 BYTE   N23  Fs0
 BYTE   W24
 BYTE   N11  En0
 BYTE   W11
 BYTE   PEND 
// 037   ----------------------------------------
 BYTE   W01
 BYTE   Ds0
 BYTE   W12
 BYTE   En0
 BYTE   W12
 BYTE   N23  BnM1
 BYTE   W24
 BYTE   N11  AnM1
 BYTE   W12
 BYTE   Cn0
 BYTE   W12
 BYTE   En0
 BYTE   W12
 BYTE   Gn0
 BYTE   W11
// 038   ----------------------------------------
 BYTE   W01
 BYTE   N23  Fs0
 BYTE   W24
 BYTE   N11  AnM1
 BYTE   W12
 BYTE   N11
 BYTE   W12
 BYTE   Gn0
 BYTE   W12
 BYTE   N23  Fs0
 BYTE   W24
 BYTE   N11  En0
 BYTE   W11
// 039   ----------------------------------------
 BYTE   PATT
  POIN2 Label_4_0145612B
// 040   ----------------------------------------
 BYTE   W01
 BYTE   N11  Ds0  v108
 BYTE   W12
 BYTE   En0
 BYTE   W12
 BYTE   N23  BnM1
 BYTE   W24
 BYTE   N23
 BYTE   W24
 BYTE   N11  AnM1
 BYTE   W12
 BYTE   Cn0
 BYTE   W11
// 041   ----------------------------------------
 BYTE   W01
 BYTE   En0
 BYTE   W12
 BYTE   Gn0
 BYTE   W12
 BYTE   N32  BnM1
 BYTE   W36
 BYTE   AsM1
 BYTE   W32
 BYTE   W03
// 042   ----------------------------------------
 BYTE   W01
 BYTE   AnM1
 BYTE   W36
 BYTE   GsM1
 BYTE   W36
 BYTE   N23  GnM1
 BYTE   W23
// 043   ----------------------------------------
 BYTE   W01
 BYTE   FsM1
 BYTE   W24
 BYTE   FnM1
 BYTE   W24
 BYTE   EnM1
 BYTE   W24
 BYTE   N11  Cn0
 BYTE   W12
 BYTE   AnM1
 BYTE   W11
// 044   ----------------------------------------
 BYTE   W13
 BYTE   En0
 BYTE   W12
 BYTE   Ds0
 BYTE   W24
 BYTE   Cn0
 BYTE   W12
 BYTE   AnM1
 BYTE   W12
 BYTE   Cn0
 BYTE   W12
 BYTE   N12  AnM1
 BYTE   W11
// 045   ----------------------------------------
 BYTE   W48
 BYTE   W01
 BYTE   N01  Fn0  v100
 BYTE   W03
 BYTE   En0
 BYTE   W03
 BYTE   Ds0
 BYTE   W03
 BYTE   Dn0
 BYTE   W03
 BYTE   Cs0
 BYTE   W03
 BYTE   Cn0
 BYTE   W03
 BYTE   BnM1
 BYTE   W03
 BYTE   AsM1
 BYTE   W03
 BYTE   N11  AnM1  v108
 BYTE   W12
 BYTE   N11
 BYTE   W11
// 046   ----------------------------------------
Label_4_014561BE:
 BYTE   W01
 BYTE   N11  Gn0  v108
 BYTE   W12
 BYTE   N23  Fs0
 BYTE   W24
 BYTE   N11  En0
 BYTE   W12
 BYTE   Ds0
 BYTE   W12
 BYTE   En0
 BYTE   W12
 BYTE   AnM1
 BYTE   W12
 BYTE   N11
 BYTE   W11
 BYTE   PEND 
// 047   ----------------------------------------
Label_4_014561D2:
 BYTE   W01
 BYTE   N11  Gn0  v108
 BYTE   W12
 BYTE   N23  Fs0
 BYTE   W24
 BYTE   N11  En0
 BYTE   W12
 BYTE   Ds0
 BYTE   W12
 BYTE   En0
 BYTE   W12
 BYTE   N23  BnM1
 BYTE   W23
 BYTE   PEND 
// 048   ----------------------------------------
 BYTE   W01
 BYTE   N11  AnM1
 BYTE   W12
 BYTE   Cn0
 BYTE   W12
 BYTE   En0
 BYTE   W12
 BYTE   Gn0
 BYTE   W12
 BYTE   N23  Fs0
 BYTE   W24
 BYTE   N11  AnM1
 BYTE   W12
 BYTE   N11
 BYTE   W11
// 049   ----------------------------------------
 BYTE   PATT
  POIN2 Label_4_014561BE
// 050   ----------------------------------------
 BYTE   PATT
  POIN2 Label_4_014561D2
// 051   ----------------------------------------
 BYTE   W01
 BYTE   N23  BnM1  v108
 BYTE   W24
 BYTE   N11  AnM1
 BYTE   W12
 BYTE   Cn0
 BYTE   W12
 BYTE   En0
 BYTE   W12
 BYTE   Gn0
 BYTE   W12
 BYTE   N32  BnM1
 BYTE   W23
// 052   ----------------------------------------
 BYTE   W13
 BYTE   AsM1
 BYTE   W36
 BYTE   AnM1
 BYTE   W36
 BYTE   GsM1
 BYTE   W11
// 053   ----------------------------------------
 BYTE   W24
 BYTE   W01
 BYTE   N23  GnM1
 BYTE   W24
 BYTE   FsM1
 BYTE   W24
 BYTE   FnM1
 BYTE   W23
// 054   ----------------------------------------
 BYTE   W01
 BYTE   EnM1
 BYTE   W24
 BYTE   N11  Cn0
 BYTE   W12
 BYTE   AnM1
 BYTE   W24
 BYTE   En0
 BYTE   W12
 BYTE   Ds0
 BYTE   W23
// 055   ----------------------------------------
 BYTE   W01
 BYTE   Cn0
 BYTE   W12
 BYTE   AnM1
 BYTE   W12
 BYTE   Cn0
 BYTE   W12
 BYTE   AnM1
 BYTE   W56
 BYTE   W03
// 056   ----------------------------------------
 BYTE   W01
 BYTE   N01  Fn0  v100
 BYTE   W03
 BYTE   En0
 BYTE   W03
 BYTE   Ds0
 BYTE   W03
 BYTE   Dn0
 BYTE   W03
 BYTE   Cs0
 BYTE   W03
 BYTE   Cn0
 BYTE   W03
 BYTE   BnM1
 BYTE   W03
 BYTE   AsM1
 BYTE   W03
 BYTE   N11  FnM1  v108
 BYTE   W12
 BYTE   N11
 BYTE   W12
 BYTE   Cn0
 BYTE   W12
 BYTE   N23  Fn0
 BYTE   W24
 BYTE   N11  Cn0
 BYTE   W11
// 057   ----------------------------------------
 BYTE   W01
 BYTE   Fn0
 BYTE   W12
 BYTE   Cn0
 BYTE   W12
 BYTE   FnM1
 BYTE   W12
 BYTE   N11
 BYTE   W12
 BYTE   Cn0
 BYTE   W12
 BYTE   N23  Fn0
 BYTE   W24
 BYTE   N11  Cn0
 BYTE   W11
// 058   ----------------------------------------
 BYTE   W01
 BYTE   Fn0
 BYTE   W12
 BYTE   En0
 BYTE   W12
 BYTE   N32  Dn0
 BYTE   W36
 BYTE   N23  DnM1
 BYTE   W24
 BYTE   N11
 BYTE   W11
// 059   ----------------------------------------
 BYTE   W01
 BYTE   EnM1
 BYTE   W12
 BYTE   FnM1
 BYTE   W12
 BYTE   EnM1
 BYTE   W12
 BYTE   N11
 BYTE   W12
 BYTE   En0
 BYTE   W12
 BYTE   EnM1
 BYTE   W12
 BYTE   Dn0
 BYTE   W12
 BYTE   En0
 BYTE   W11
// 060   ----------------------------------------
 BYTE   W01
 BYTE   Dn0
 BYTE   W12
 BYTE   EnM1
 BYTE   W12
 BYTE   FnM1
 BYTE   W12
 BYTE   N11
 BYTE   W12
 BYTE   N23  Fn0
 BYTE   W24
 BYTE   N11  EnM1
 BYTE   W12
 BYTE   N11
 BYTE   W11
// 061   ----------------------------------------
 BYTE   W01
 BYTE   N23  En0
 BYTE   W24
 BYTE   N11  DsM1
 BYTE   W12
 BYTE   N11
 BYTE   W12
 BYTE   N23  Ds0
 BYTE   W24
 BYTE   N11  EnM1
 BYTE   W12
 BYTE   N11
 BYTE   W11
// 062   ----------------------------------------
 BYTE   W01
 BYTE   N23  En0
 BYTE   W24
 BYTE   N11  DnM1
 BYTE   W12
 BYTE   N11
 BYTE   W12
 BYTE   Dn0
 BYTE   W12
 BYTE   DnM1
 BYTE   W12
 BYTE   N11
 BYTE   W12
 BYTE   Dn0
 BYTE   W11
// 063   ----------------------------------------
 BYTE   W01
 BYTE   DnM1
 BYTE   W12
 BYTE   N11
 BYTE   W12
 BYTE   EnM1
 BYTE   W12
 BYTE   N11
 BYTE   W12
 BYTE   En0
 BYTE   W12
 BYTE   EnM1
 BYTE   W12
 BYTE   N11
 BYTE   W12
 BYTE   En0
 BYTE   W11
// 064   ----------------------------------------
 BYTE   W01
 BYTE   EnM1
 BYTE   W12
 BYTE   N11
 BYTE   W23
 BYTE   GoTo
  POIN2 Label_4_01455FA6
 BYTE   FINE

//**************** Track 6 (Midi-Chn.5) ****************//

song0146_006:
// 000   ----------------------------------------
 BYTE   KEYSH   song0146_key+0
Label_5_01455962:
 BYTE   VOICE   63
 BYTE   VOL   31*song0146_mvl/mxv
 BYTE   PAN   c_v-7
 BYTE   N11  Gs1  v124
 BYTE   W12
 BYTE   An1
 BYTE   W12
 BYTE   Bn1
 BYTE   W12
 BYTE   N22  Cn2
 BYTE   W24
 BYTE   N11  Bn1
 BYTE   W12
 BYTE   Cn2
 BYTE   W12
 BYTE   Dn2
 BYTE   W12
// 001   ----------------------------------------
 BYTE   N23  En2
 BYTE   W24
 BYTE   N10  Ds2
 BYTE   W12
 BYTE   N23  Fn2
 BYTE   W24
 BYTE   N10  En2
 BYTE   W12
 BYTE   N11  An2
 BYTE   W12
 BYTE   N10  Gs2
 BYTE   W12
// 002   ----------------------------------------
 BYTE   N11  Cn3
 BYTE   W12
 BYTE   Gs2
 BYTE   W12
 BYTE   An2
 BYTE   W12
 BYTE   Fn3
 BYTE   W12
 BYTE   N10  En3
 BYTE   W12
 BYTE   N11  An3
 BYTE   W12
 BYTE   N10  Gs3
 BYTE   W12
 BYTE   N11  Cn4
 BYTE   W12
// 003   ----------------------------------------
 BYTE   TIE  Bn3
 BYTE   W96
// 004   ----------------------------------------
 BYTE   W90
 BYTE   EOT
 BYTE   W06
// 005   ----------------------------------------
 BYTE   N10  An2  v127
 BYTE   W48
 BYTE   An1
 BYTE   W48
// 006   ----------------------------------------
 BYTE   An2
 BYTE   W24
 BYTE   An1
 BYTE   W48
 BYTE   Bn2
 BYTE   W24
// 007   ----------------------------------------
 BYTE   W24
 BYTE   Bn1
 BYTE   W48
 BYTE   Bn2
 BYTE   W24
// 008   ----------------------------------------
 BYTE   Bn1
 BYTE   W48
 BYTE   N05  An1
 BYTE   W06
 BYTE   Bn1
 BYTE   W06
 BYTE   Cn2
 BYTE   W06
 BYTE   N04  En2
 BYTE   W06
 BYTE   N23  Gn2  v124
 BYTE   W24
// 009   ----------------------------------------
 BYTE   N10  Fs2
 BYTE   W48
 BYTE   N23
 BYTE   W24
 BYTE   N10  Fn2
 BYTE   W24
// 010   ----------------------------------------
 BYTE   W24
 BYTE   N23
 BYTE   W24
 BYTE   N10  En2
 BYTE   W48
// 011   ----------------------------------------
 BYTE   N23  Ds2
 BYTE   W24
 BYTE   N22  En2
 BYTE   W24
 BYTE   N04  Fn2
 BYTE   W06
 BYTE   En2
 BYTE   W06
 BYTE   Ds2
 BYTE   W06
 BYTE   En2
 BYTE   W06
 BYTE   N22  Fn2
 BYTE   W24
// 012   ----------------------------------------
 BYTE   N23  Gn2
 BYTE   W24
 BYTE   N10  Fs2
 BYTE   W48
 BYTE   N23
 BYTE   W24
// 013   ----------------------------------------
 BYTE   N10  Fn2
 BYTE   W48
 BYTE   N23
 BYTE   W24
 BYTE   N10  En2
 BYTE   W24
// 014   ----------------------------------------
 BYTE   W24
 BYTE   N23  Ds2
 BYTE   W24
 BYTE   N22  En2
 BYTE   W24
 BYTE   N04  Fn2
 BYTE   W06
 BYTE   En2
 BYTE   W06
 BYTE   Ds2
 BYTE   W06
 BYTE   En2
 BYTE   W06
// 015   ----------------------------------------
 BYTE   N22  Fn2
 BYTE   W24
 BYTE   N04  En2  v096
 BYTE   W12
 BYTE   N22
 BYTE   W24
 BYTE   N04
 BYTE   W12
 BYTE   N22
 BYTE   W24
// 016   ----------------------------------------
Label_5_01455A15:
 BYTE   N04  En2  v096
 BYTE   W12
 BYTE   N22
 BYTE   W24
 BYTE   N04
 BYTE   W12
 BYTE   N22
 BYTE   W24
 BYTE   N22
 BYTE   W24
 BYTE   PEND 
// 017   ----------------------------------------
Label_5_01455A22:
 BYTE   N22  En2  v096
 BYTE   W24
 BYTE   N04  Fn2
 BYTE   W12
 BYTE   N22
 BYTE   W24
 BYTE   N04
 BYTE   W12
 BYTE   N22
 BYTE   W24
 BYTE   PEND 
// 018   ----------------------------------------
Label_5_01455A30:
 BYTE   N04  Fn2  v096
 BYTE   W12
 BYTE   N22
 BYTE   W24
 BYTE   N04
 BYTE   W12
 BYTE   N22
 BYTE   W24
 BYTE   N22
 BYTE   W24
 BYTE   PEND 
// 019   ----------------------------------------
 BYTE   N22
 BYTE   W24
 BYTE   N04  En2
 BYTE   W12
 BYTE   N22
 BYTE   W24
 BYTE   N04
 BYTE   W12
 BYTE   N22
 BYTE   W24
// 020   ----------------------------------------
 BYTE   PATT
  POIN2 Label_5_01455A15
// 021   ----------------------------------------
 BYTE   PATT
  POIN2 Label_5_01455A22
// 022   ----------------------------------------
 BYTE   PATT
  POIN2 Label_5_01455A30
// 023   ----------------------------------------
 BYTE   N22  Fn2  v096
 BYTE   W36
 BYTE   N04  Gn3  v124
 BYTE   W12
 BYTE   N04
 BYTE   W24
 BYTE   Fn3
 BYTE   W12
 BYTE   N04
 BYTE   W12
// 024   ----------------------------------------
Label_5_01455A65:
 BYTE   W12
 BYTE   N04  En3  v124
 BYTE   W12
 BYTE   N04
 BYTE   W72
 BYTE   PEND 
// 025   ----------------------------------------
 BYTE   W36
 BYTE   Gn3
 BYTE   W12
 BYTE   N04
 BYTE   W24
 BYTE   Fn3
 BYTE   W12
 BYTE   N04
 BYTE   W12
// 026   ----------------------------------------
 BYTE   PATT
  POIN2 Label_5_01455A65
// 027   ----------------------------------------
 BYTE   W24
 BYTE   N80  An2  v124
 BYTE   W72
// 028   ----------------------------------------
 BYTE   W12
 BYTE   N92  As2
 BYTE   W84
// 029   ----------------------------------------
 BYTE   W12
 BYTE   An2
 BYTE   W84
// 030   ----------------------------------------
 BYTE   W12
 BYTE   TIE  Gn2
 BYTE   W84
// 031   ----------------------------------------
 BYTE   W22
 BYTE   EOT
 BYTE   W02
 BYTE   N80  An2
 BYTE   W72
// 032   ----------------------------------------
 BYTE   W12
 BYTE   N92  As2
 BYTE   W84
// 033   ----------------------------------------
 BYTE   W12
 BYTE   An2
 BYTE   W84
// 034   ----------------------------------------
 BYTE   W24
 BYTE   N22  En3
 BYTE   W24
 BYTE   Ds3
 BYTE   W24
 BYTE   Fn3
 BYTE   W24
// 035   ----------------------------------------
 BYTE   En3
 BYTE   W24
 BYTE   N04  An2  v127
 BYTE   W12
 BYTE   Bn2
 BYTE   W12
 BYTE   N22  Cn3
 BYTE   W24
 BYTE   N04  An2
 BYTE   W12
 BYTE   Bn2
 BYTE   W12
// 036   ----------------------------------------
 BYTE   N22  Cn3
 BYTE   W24
 BYTE   N04  An2
 BYTE   W12
 BYTE   Bn2
 BYTE   W12
 BYTE   Cn3
 BYTE   W12
 BYTE   Bn2
 BYTE   W12
 BYTE   An2
 BYTE   W12
 BYTE   Bn2
 BYTE   W12
// 037   ----------------------------------------
 BYTE   Cn3
 BYTE   W12
 BYTE   En3
 BYTE   W12
 BYTE   N22  Ds3
 BYTE   W24
 BYTE   N04  An2
 BYTE   W12
 BYTE   Bn2
 BYTE   W12
 BYTE   Cn3
 BYTE   W12
 BYTE   En3
 BYTE   W12
// 038   ----------------------------------------
 BYTE   N22  Ds3
 BYTE   W24
 BYTE   N04  Cn3
 BYTE   W12
 BYTE   Dn3
 BYTE   W12
 BYTE   N22  En3
 BYTE   W24
 BYTE   N04  Cn3
 BYTE   W12
 BYTE   Dn3
 BYTE   W12
// 039   ----------------------------------------
 BYTE   N22  En3
 BYTE   W24
 BYTE   N04  Cn3
 BYTE   W12
 BYTE   Dn3
 BYTE   W12
 BYTE   En3
 BYTE   W12
 BYTE   Dn3
 BYTE   W12
 BYTE   Cn3
 BYTE   W12
 BYTE   Dn3
 BYTE   W12
// 040   ----------------------------------------
 BYTE   En3
 BYTE   W12
 BYTE   Gn3
 BYTE   W12
 BYTE   N22  Fs3
 BYTE   W24
 BYTE   N22
 BYTE   W24
 BYTE   N04  Cn3
 BYTE   W12
 BYTE   Dn3
 BYTE   W12
// 041   ----------------------------------------
 BYTE   En3
 BYTE   W12
 BYTE   Gn3
 BYTE   W12
 BYTE   N23  Fs3
 BYTE   W24
 BYTE   N10  Ds3
 BYTE   W12
 BYTE   N23  Fn3
 BYTE   W24
 BYTE   N10  Dn3
 BYTE   W12
// 042   ----------------------------------------
 BYTE   N23  En3
 BYTE   W24
 BYTE   N10  Cs3
 BYTE   W12
 BYTE   N23  Ds3
 BYTE   W24
 BYTE   N11  Cn3
 BYTE   W12
 BYTE   Dn3
 BYTE   W12
 BYTE   Bn2
 BYTE   W12
// 043   ----------------------------------------
 BYTE   Cs3
 BYTE   W12
 BYTE   As2
 BYTE   W12
 BYTE   Cn3
 BYTE   W12
 BYTE   An2
 BYTE   W12
 BYTE   Bn2
 BYTE   W12
 BYTE   Gs2
 BYTE   W12
 BYTE   En3
 BYTE   W12
 BYTE   N10  Cn3
 BYTE   W12
// 044   ----------------------------------------
 BYTE   W96
// 045   ----------------------------------------
 BYTE   W72
 BYTE   N05  An2
 BYTE   W12
 BYTE   Bn2
 BYTE   W12
// 046   ----------------------------------------
 BYTE   N22  Cn3
 BYTE   W24
 BYTE   N05  An2
 BYTE   W12
 BYTE   Bn2
 BYTE   W12
 BYTE   N22  Cn3
 BYTE   W24
 BYTE   N05  An2
 BYTE   W12
 BYTE   Bn2
 BYTE   W12
// 047   ----------------------------------------
 BYTE   Cn3
 BYTE   W12
 BYTE   Bn2
 BYTE   W12
 BYTE   An2
 BYTE   W12
 BYTE   Bn2
 BYTE   W12
 BYTE   Cn3
 BYTE   W12
 BYTE   En3
 BYTE   W12
 BYTE   N22  Ds3
 BYTE   W24
// 048   ----------------------------------------
 BYTE   N05  An2
 BYTE   W12
 BYTE   Bn2
 BYTE   W12
 BYTE   Cn3
 BYTE   W12
 BYTE   En3
 BYTE   W12
 BYTE   N22  Ds3
 BYTE   W24
 BYTE   N05  Cn3
 BYTE   W12
 BYTE   Dn3
 BYTE   W12
// 049   ----------------------------------------
 BYTE   N22  En3
 BYTE   W24
 BYTE   N05  Cn3
 BYTE   W12
 BYTE   Dn3
 BYTE   W12
 BYTE   N22  En3
 BYTE   W24
 BYTE   N05  Cn3
 BYTE   W12
 BYTE   Dn3
 BYTE   W12
// 050   ----------------------------------------
 BYTE   En3
 BYTE   W12
 BYTE   Dn3
 BYTE   W12
 BYTE   Cn3
 BYTE   W12
 BYTE   Dn3
 BYTE   W12
 BYTE   En3
 BYTE   W12
 BYTE   Gn3
 BYTE   W12
 BYTE   N22  Fs3
 BYTE   W24
// 051   ----------------------------------------
 BYTE   N22
 BYTE   W24
 BYTE   N05  Cn3
 BYTE   W12
 BYTE   Dn3
 BYTE   W12
 BYTE   En3
 BYTE   W12
 BYTE   Gn3
 BYTE   W12
 BYTE   N23  Fs3
 BYTE   W24
// 052   ----------------------------------------
 BYTE   N10  Ds3
 BYTE   W12
 BYTE   N23  Fn3
 BYTE   W24
 BYTE   N10  Dn3
 BYTE   W12
 BYTE   N23  En3
 BYTE   W24
 BYTE   N10  Cs3
 BYTE   W12
 BYTE   N23  Ds3
 BYTE   W12
// 053   ----------------------------------------
 BYTE   W12
 BYTE   N11  Cn3
 BYTE   W12
 BYTE   Dn3
 BYTE   W12
 BYTE   Bn2
 BYTE   W12
 BYTE   Cs3
 BYTE   W12
 BYTE   As2
 BYTE   W12
 BYTE   Cn3
 BYTE   W12
 BYTE   An2
 BYTE   W12
// 054   ----------------------------------------
 BYTE   Bn2
 BYTE   W12
 BYTE   Gs2
 BYTE   W12
 BYTE   En3
 BYTE   W12
 BYTE   N10  Cn3
 BYTE   W60
// 055   ----------------------------------------
 BYTE   W96
// 056   ----------------------------------------
Label_5_01455BBF:
 BYTE   W24
 BYTE   N44  Fn3  v127
 BYTE   W48
 BYTE   En3
 BYTE   W24
 BYTE   PEND 
// 057   ----------------------------------------
Label_5_01455BC7:
 BYTE   W24
 BYTE   N44  Ds3  v127
 BYTE   W48
 BYTE   En3
 BYTE   W24
 BYTE   PEND 
// 058   ----------------------------------------
Label_5_01455BCF:
 BYTE   W24
 BYTE   N44  Fn3  v127
 BYTE   W48
 BYTE   N22  Gn3
 BYTE   W24
 BYTE   PEND 
// 059   ----------------------------------------
Label_5_01455BD8:
 BYTE   N22  Fn3  v127
 BYTE   W24
 BYTE   N92  En3
 BYTE   W72
 BYTE   PEND 
// 060   ----------------------------------------
 BYTE   PATT
  POIN2 Label_5_01455BBF
// 061   ----------------------------------------
 BYTE   PATT
  POIN2 Label_5_01455BC7
// 062   ----------------------------------------
 BYTE   PATT
  POIN2 Label_5_01455BCF
// 063   ----------------------------------------
 BYTE   PATT
  POIN2 Label_5_01455BD8
// 064   ----------------------------------------
 BYTE   W36
 BYTE   GoTo
  POIN2 Label_5_01455962
 BYTE   FINE

//**************** Track 7 (Midi-Chn.6) ****************//

song0146_007:
// 000   ----------------------------------------
 BYTE   KEYSH   song0146_key+0
Label_6_01455002:
 BYTE   VOICE   62
 BYTE   VOL   29*song0146_mvl/mxv
 BYTE   PAN   c_v+20
 BYTE   MOD 0
 BYTE   W96
// 001   ----------------------------------------
 BYTE   W96
// 002   ----------------------------------------
 BYTE   W36
 BYTE   N11  Fn2  v124
 BYTE   W12
 BYTE   N10  En2
 BYTE   W12
 BYTE   N11  An2
 BYTE   W12
 BYTE   N10  Gs2
 BYTE   W12
 BYTE   N11  Cn3
 BYTE   W12
// 003   ----------------------------------------
 BYTE   TIE  Dn3
 BYTE   W42
 BYTE   W01
 BYTE   MOD 0
 BYTE   W02
 BYTE   CsM2
 BYTE   W01
 BYTE   DnM2
 BYTE   W02
 BYTE   DsM2
 BYTE   W01
 BYTE   DsM2
 BYTE   W02
 BYTE   EnM2
 BYTE   W01
 BYTE   FnM2
 BYTE   W02
 BYTE   FnM2
 BYTE   W01
 BYTE   FnM2
 BYTE   W02
 BYTE   FsM2
 BYTE   W01
 BYTE   FsM2
 BYTE   W02
 BYTE   FsM2
 BYTE   W01
 BYTE   GnM2
 BYTE   W02
 BYTE   GnM2
 BYTE   W01
 BYTE   GnM2
 BYTE   W03
 BYTE   EnM2
 BYTE   W01
 BYTE   EnM2
 BYTE   W28
// 004   ----------------------------------------
 BYTE   W90
 BYTE   EOT
 BYTE   W04
 BYTE   MOD 4
 BYTE   W01
 BYTE   DsM2
 BYTE   W01
// 005   ----------------------------------------
 BYTE   DnM2
 BYTE   N10  Ds2
 BYTE   W01
 BYTE   MOD 0
 BYTE   W12
 BYTE   N10  Ds2  v076
 BYTE   W13
 BYTE   Ds2  v048
 BYTE   W68
 BYTE   W02
// 006   ----------------------------------------
 BYTE   Ds2  v124
 BYTE   W13
 BYTE   Ds2  v076
 BYTE   W13
 BYTE   Ds2  v048
 BYTE   W44
 BYTE   W02
 BYTE   Fn2  v124
 BYTE   W13
 BYTE   Fn2  v076
 BYTE   W11
// 007   ----------------------------------------
 BYTE   W02
 BYTE   Fn2  v048
 BYTE   W68
 BYTE   W02
 BYTE   Fn2  v124
 BYTE   W13
 BYTE   Fn2  v076
 BYTE   W11
// 008   ----------------------------------------
 BYTE   W02
 BYTE   Fn2  v048
 BYTE   W68
 BYTE   W02
 BYTE   N22  Cn2  v124
 BYTE   W24
// 009   ----------------------------------------
Label_6_0145507F:
 BYTE   N10  Cn2  v124
 BYTE   W48
 BYTE   N22
 BYTE   W24
 BYTE   N10
 BYTE   W24
 BYTE   PEND 
// 010   ----------------------------------------
 BYTE   W24
 BYTE   N22
 BYTE   W24
 BYTE   N10
 BYTE   W48
// 011   ----------------------------------------
 BYTE   N22
 BYTE   W24
 BYTE   N22
 BYTE   W24
 BYTE   N04
 BYTE   W06
 BYTE   N04
 BYTE   W06
 BYTE   N04
 BYTE   W06
 BYTE   N04
 BYTE   W06
 BYTE   N22
 BYTE   W24
// 012   ----------------------------------------
 BYTE   N22
 BYTE   W24
 BYTE   N10
 BYTE   W48
 BYTE   N22
 BYTE   W24
// 013   ----------------------------------------
 BYTE   PATT
  POIN2 Label_6_0145507F
// 014   ----------------------------------------
 BYTE   W24
 BYTE   N22  Cn2  v124
 BYTE   W24
 BYTE   N22
 BYTE   W24
 BYTE   N04
 BYTE   W06
 BYTE   N04
 BYTE   W06
 BYTE   N04
 BYTE   W06
 BYTE   N04
 BYTE   W06
// 015   ----------------------------------------
 BYTE   N22
 BYTE   W24
 BYTE   N04  Dn2  v096
 BYTE   W12
 BYTE   N22
 BYTE   W24
 BYTE   N04
 BYTE   W12
 BYTE   N22
 BYTE   W24
// 016   ----------------------------------------
Label_6_014550C1:
 BYTE   N04  Dn2  v096
 BYTE   W12
 BYTE   N22
 BYTE   W24
 BYTE   N04
 BYTE   W12
 BYTE   N22
 BYTE   W24
 BYTE   N22
 BYTE   W24
 BYTE   PEND 
// 017   ----------------------------------------
Label_6_014550CE:
 BYTE   N22  Dn2  v096
 BYTE   W24
 BYTE   N04  Cn2
 BYTE   W12
 BYTE   N22
 BYTE   W24
 BYTE   N04
 BYTE   W12
 BYTE   N22
 BYTE   W24
 BYTE   PEND 
// 018   ----------------------------------------
Label_6_014550DC:
 BYTE   N04  Cn2  v096
 BYTE   W12
 BYTE   N22
 BYTE   W24
 BYTE   N04
 BYTE   W12
 BYTE   N22
 BYTE   W24
 BYTE   N22
 BYTE   W24
 BYTE   PEND 
// 019   ----------------------------------------
 BYTE   N22
 BYTE   W24
 BYTE   N04  Dn2
 BYTE   W12
 BYTE   N22
 BYTE   W24
 BYTE   N04
 BYTE   W12
 BYTE   N22
 BYTE   W24
// 020   ----------------------------------------
 BYTE   PATT
  POIN2 Label_6_014550C1
// 021   ----------------------------------------
 BYTE   PATT
  POIN2 Label_6_014550CE
// 022   ----------------------------------------
 BYTE   PATT
  POIN2 Label_6_014550DC
// 023   ----------------------------------------
 BYTE   N22  Cn2  v096
 BYTE   W36
 BYTE   N04  Dn3  v124
 BYTE   W12
 BYTE   N04
 BYTE   W24
 BYTE   N04
 BYTE   W12
 BYTE   N04
 BYTE   W12
// 024   ----------------------------------------
Label_6_01455111:
 BYTE   W12
 BYTE   N04  Dn3  v124
 BYTE   W12
 BYTE   N04
 BYTE   W72
 BYTE   PEND 
// 025   ----------------------------------------
 BYTE   W36
 BYTE   N04
 BYTE   W12
 BYTE   N04
 BYTE   W24
 BYTE   N04
 BYTE   W12
 BYTE   N04
 BYTE   W12
// 026   ----------------------------------------
 BYTE   PATT
  POIN2 Label_6_01455111
// 027   ----------------------------------------
 BYTE   W24
 BYTE   N80  En2  v124
 BYTE   W72
// 028   ----------------------------------------
 BYTE   W12
 BYTE   N92
 BYTE   W84
// 029   ----------------------------------------
 BYTE   W12
 BYTE   N92
 BYTE   W84
// 030   ----------------------------------------
 BYTE   W12
 BYTE   TIE
 BYTE   W84
// 031   ----------------------------------------
 BYTE   W22
 BYTE   EOT
 BYTE   W02
 BYTE   N80
 BYTE   W72
// 032   ----------------------------------------
 BYTE   W12
 BYTE   N92
 BYTE   W84
// 033   ----------------------------------------
 BYTE   W12
 BYTE   N92
 BYTE   W84
// 034   ----------------------------------------
 BYTE   W24
 BYTE   N22  Cn3
 BYTE   W24
 BYTE   Bn2
 BYTE   W24
 BYTE   Cs3
 BYTE   W24
// 035   ----------------------------------------
 BYTE   Cn3
 BYTE   W96
// 036   ----------------------------------------
 BYTE   W96
// 037   ----------------------------------------
 BYTE   W96
// 038   ----------------------------------------
 BYTE   W24
 BYTE   N04  An2
 BYTE   W12
 BYTE   Bn2
 BYTE   W12
 BYTE   N22  Cn3
 BYTE   W24
 BYTE   N04  An2
 BYTE   W12
 BYTE   Bn2
 BYTE   W12
// 039   ----------------------------------------
 BYTE   N22  Cn3
 BYTE   W24
 BYTE   N04  An2
 BYTE   W12
 BYTE   Bn2
 BYTE   W12
 BYTE   Cn3
 BYTE   W12
 BYTE   Bn2
 BYTE   W12
 BYTE   An2
 BYTE   W12
 BYTE   Bn2
 BYTE   W12
// 040   ----------------------------------------
 BYTE   Cn3
 BYTE   W12
 BYTE   En3
 BYTE   W12
 BYTE   N22  Ds3
 BYTE   W24
 BYTE   N22
 BYTE   W24
 BYTE   N04  An2
 BYTE   W12
 BYTE   Bn2
 BYTE   W12
// 041   ----------------------------------------
 BYTE   Cn3
 BYTE   W12
 BYTE   En3
 BYTE   W12
 BYTE   N23  Ds3
 BYTE   W24
 BYTE   N10  Bn2
 BYTE   W12
 BYTE   N23  Dn3
 BYTE   W24
 BYTE   N10  As2
 BYTE   W12
// 042   ----------------------------------------
 BYTE   N23  Cs3
 BYTE   W24
 BYTE   N10  An2
 BYTE   W12
 BYTE   N23  Cn3
 BYTE   W24
 BYTE   N11  Gs2
 BYTE   W12
 BYTE   Bn2
 BYTE   W12
 BYTE   Gn2
 BYTE   W12
// 043   ----------------------------------------
 BYTE   As2
 BYTE   W12
 BYTE   Fs2
 BYTE   W12
 BYTE   An2
 BYTE   W12
 BYTE   Fn2
 BYTE   W12
 BYTE   Gs2
 BYTE   W12
 BYTE   En2
 BYTE   W12
 BYTE   Cn3
 BYTE   W12
 BYTE   N10  An2
 BYTE   W12
// 044   ----------------------------------------
 BYTE   W96
// 045   ----------------------------------------
 BYTE   W96
// 046   ----------------------------------------
 BYTE   W96
// 047   ----------------------------------------
 BYTE   W96
// 048   ----------------------------------------
 BYTE   W72
 BYTE   N05
 BYTE   W12
 BYTE   Bn2
 BYTE   W12
// 049   ----------------------------------------
 BYTE   N22  Cn3
 BYTE   W24
 BYTE   N05  An2
 BYTE   W12
 BYTE   Bn2
 BYTE   W12
 BYTE   N22  Cn3
 BYTE   W24
 BYTE   N05  An2
 BYTE   W12
 BYTE   Bn2
 BYTE   W12
// 050   ----------------------------------------
 BYTE   Cn3
 BYTE   W12
 BYTE   Bn2
 BYTE   W12
 BYTE   An2
 BYTE   W12
 BYTE   Bn2
 BYTE   W12
 BYTE   Cn3
 BYTE   W12
 BYTE   En3
 BYTE   W12
 BYTE   N22  Ds3
 BYTE   W24
// 051   ----------------------------------------
 BYTE   N22
 BYTE   W24
 BYTE   N05  An2
 BYTE   W12
 BYTE   Bn2
 BYTE   W12
 BYTE   Cn3
 BYTE   W12
 BYTE   En3
 BYTE   W12
 BYTE   N23  Ds3
 BYTE   W24
// 052   ----------------------------------------
 BYTE   N10  Bn2
 BYTE   W12
 BYTE   N23  Dn3
 BYTE   W24
 BYTE   N10  As2
 BYTE   W12
 BYTE   N23  Cs3
 BYTE   W24
 BYTE   N10  An2
 BYTE   W12
 BYTE   N23  Cn3
 BYTE   W12
// 053   ----------------------------------------
 BYTE   W12
 BYTE   N11  Gs2
 BYTE   W12
 BYTE   Bn2
 BYTE   W12
 BYTE   Gn2
 BYTE   W12
 BYTE   As2
 BYTE   W12
 BYTE   Fs2
 BYTE   W12
 BYTE   An2
 BYTE   W12
 BYTE   Fn2
 BYTE   W12
// 054   ----------------------------------------
 BYTE   Gs2
 BYTE   W12
 BYTE   En2
 BYTE   W12
 BYTE   Cn3
 BYTE   W12
 BYTE   N10  An2
 BYTE   W60
// 055   ----------------------------------------
 BYTE   W96
// 056   ----------------------------------------
 BYTE   W96
// 057   ----------------------------------------
 BYTE   W48
 BYTE   N23  Cn3
 BYTE   W24
 BYTE   Bn2
 BYTE   W24
// 058   ----------------------------------------
 BYTE   N21  An2
 BYTE   W24
 BYTE   N44
 BYTE   W48
 BYTE   N23  Bn2
 BYTE   W24
// 059   ----------------------------------------
 BYTE   N22  An2
 BYTE   W24
 BYTE   N92  Gs2
 BYTE   W72
// 060   ----------------------------------------
 BYTE   W48
 BYTE   N22  Fn2
 BYTE   W48
// 061   ----------------------------------------
 BYTE   En2
 BYTE   W48
 BYTE   Ds2
 BYTE   W48
// 062   ----------------------------------------
 BYTE   En2
 BYTE   W24
 BYTE   N44  An2
 BYTE   W48
 BYTE   Fn2
 BYTE   W24
// 063   ----------------------------------------
 BYTE   W24
 BYTE   N92  Gs2
 BYTE   W72
// 064   ----------------------------------------
 BYTE   W36
 BYTE   GoTo
  POIN2 Label_6_01455002
 BYTE   FINE

//**************** Track 8 (Midi-Chn.7) ****************//

song0146_008:
// 000   ----------------------------------------
 BYTE   KEYSH   song0146_key+0
Label_7_01484052:
 BYTE   VOICE   63
 BYTE   VOL   18*song0146_mvl/mxv
 BYTE   PAN   c_v+63
 BYTE   BEND   c_v-2
 BYTE   W14
 BYTE   N11  Gs1  v124
 BYTE   W12
 BYTE   An1
 BYTE   W12
 BYTE   Bn1
 BYTE   W12
 BYTE   N22  Cn2
 BYTE   W24
 BYTE   N11  Bn1
 BYTE   W12
 BYTE   Cn2
 BYTE   W10
// 001   ----------------------------------------
 BYTE   W02
 BYTE   Dn2
 BYTE   W12
 BYTE   N23  En2
 BYTE   W24
 BYTE   N10  Ds2
 BYTE   W12
 BYTE   N23  Fn2
 BYTE   W24
 BYTE   N10  En2
 BYTE   W12
 BYTE   N11  An2
 BYTE   W10
// 002   ----------------------------------------
 BYTE   W02
 BYTE   N10  Gs2
 BYTE   W12
 BYTE   N11  Cn3
 BYTE   W12
 BYTE   Gs2
 BYTE   W12
 BYTE   An2
 BYTE   W12
 BYTE   Fn3
 BYTE   W12
 BYTE   N10  En3
 BYTE   W12
 BYTE   N11  An3
 BYTE   W12
 BYTE   N10  Gs3
 BYTE   W10
// 003   ----------------------------------------
 BYTE   W02
 BYTE   N11  Cn4
 BYTE   W12
 BYTE   TIE  Bn3
 BYTE   W80
 BYTE   W02
// 004   ----------------------------------------
 BYTE   W96
// 005   ----------------------------------------
 BYTE   W08
 BYTE   EOT
 BYTE   W06
 BYTE   N10  An2
 BYTE   W48
 BYTE   An1
 BYTE   W32
 BYTE   W02
// 006   ----------------------------------------
 BYTE   W14
 BYTE   An2
 BYTE   W24
 BYTE   An1
 BYTE   W48
 BYTE   Bn2
 BYTE   W10
// 007   ----------------------------------------
 BYTE   W36
 BYTE   W02
 BYTE   Bn1
 BYTE   W48
 BYTE   Bn2
 BYTE   W10
// 008   ----------------------------------------
 BYTE   W14
 BYTE   Bn1
 BYTE   W48
 BYTE   N05  An1
 BYTE   W06
 BYTE   Bn1
 BYTE   W06
 BYTE   Cn2
 BYTE   W06
 BYTE   N04  En2
 BYTE   W06
 BYTE   N23  Gn2
 BYTE   W10
// 009   ----------------------------------------
 BYTE   W14
 BYTE   N10  Fs2
 BYTE   W48
 BYTE   N23
 BYTE   W24
 BYTE   N10  Fn2
 BYTE   W10
// 010   ----------------------------------------
 BYTE   W36
 BYTE   W02
 BYTE   N23
 BYTE   W24
 BYTE   N10  En2
 BYTE   W32
 BYTE   W02
// 011   ----------------------------------------
 BYTE   W14
 BYTE   N23  Ds2
 BYTE   W24
 BYTE   N22  En2
 BYTE   W24
 BYTE   N04  Fn2
 BYTE   W06
 BYTE   En2
 BYTE   W06
 BYTE   Ds2
 BYTE   W06
 BYTE   En2
 BYTE   W06
 BYTE   N22  Fn2
 BYTE   W10
// 012   ----------------------------------------
 BYTE   W14
 BYTE   N23  Gn2
 BYTE   W24
 BYTE   N10  Fs2
 BYTE   W48
 BYTE   N23
 BYTE   W10
// 013   ----------------------------------------
 BYTE   W14
 BYTE   N10  Fn2
 BYTE   W48
 BYTE   N23
 BYTE   W24
 BYTE   N10  En2
 BYTE   W10
// 014   ----------------------------------------
 BYTE   W36
 BYTE   W02
 BYTE   N23  Ds2
 BYTE   W24
 BYTE   N22  En2
 BYTE   W24
 BYTE   N04  Fn2
 BYTE   W06
 BYTE   En2
 BYTE   W04
// 015   ----------------------------------------
 BYTE   W02
 BYTE   Ds2
 BYTE   W06
 BYTE   En2
 BYTE   W06
 BYTE   N22  Fn2
 BYTE   W24
 BYTE   N04  En2
 BYTE   W12
 BYTE   N22
 BYTE   W24
 BYTE   N04
 BYTE   W12
 BYTE   N22
 BYTE   W10
// 016   ----------------------------------------
Label_7_01484116:
 BYTE   W14
 BYTE   N04  En2  v124
 BYTE   W12
 BYTE   N22
 BYTE   W24
 BYTE   N04
 BYTE   W12
 BYTE   N22
 BYTE   W24
 BYTE   N22
 BYTE   W10
 BYTE   PEND 
// 017   ----------------------------------------
Label_7_01484124:
 BYTE   W14
 BYTE   N22  En2  v124
 BYTE   W24
 BYTE   N04  Fn2
 BYTE   W12
 BYTE   N22
 BYTE   W24
 BYTE   N04
 BYTE   W12
 BYTE   N22
 BYTE   W10
 BYTE   PEND 
// 018   ----------------------------------------
Label_7_01484133:
 BYTE   W14
 BYTE   N04  Fn2  v124
 BYTE   W12
 BYTE   N22
 BYTE   W24
 BYTE   N04
 BYTE   W12
 BYTE   N22
 BYTE   W24
 BYTE   N22
 BYTE   W10
 BYTE   PEND 
// 019   ----------------------------------------
 BYTE   W14
 BYTE   N22
 BYTE   W24
 BYTE   N04  En2
 BYTE   W12
 BYTE   N22
 BYTE   W24
 BYTE   N04
 BYTE   W12
 BYTE   N22
 BYTE   W10
// 020   ----------------------------------------
 BYTE   PATT
  POIN2 Label_7_01484116
// 021   ----------------------------------------
 BYTE   PATT
  POIN2 Label_7_01484124
// 022   ----------------------------------------
 BYTE   PATT
  POIN2 Label_7_01484133
// 023   ----------------------------------------
 BYTE   W14
 BYTE   N22  Fn2  v124
 BYTE   W36
 BYTE   N04  Gn3
 BYTE   W12
 BYTE   N04
 BYTE   W24
 BYTE   Fn3
 BYTE   W10
// 024   ----------------------------------------
Label_7_01484168:
 BYTE   W02
 BYTE   N04  Fn3  v124
 BYTE   W24
 BYTE   En3
 BYTE   W12
 BYTE   N04
 BYTE   W56
 BYTE   W02
 BYTE   PEND 
// 025   ----------------------------------------
 BYTE   W48
 BYTE   W02
 BYTE   Gn3
 BYTE   W12
 BYTE   N04
 BYTE   W24
 BYTE   Fn3
 BYTE   W10
// 026   ----------------------------------------
 BYTE   PATT
  POIN2 Label_7_01484168
// 027   ----------------------------------------
 BYTE   W36
 BYTE   W02
 BYTE   N80  An2  v124
 BYTE   W56
 BYTE   W02
// 028   ----------------------------------------
Label_7_01484187:
 BYTE   W24
 BYTE   W02
 BYTE   N92  As2  v124
 BYTE   W68
 BYTE   W02
 BYTE   PEND 
// 029   ----------------------------------------
Label_7_0148418F:
 BYTE   W24
 BYTE   W02
 BYTE   N92  An2  v124
 BYTE   W68
 BYTE   W02
 BYTE   PEND 
// 030   ----------------------------------------
 BYTE   W24
 BYTE   W02
 BYTE   TIE  Gn2
 BYTE   W68
 BYTE   W02
// 031   ----------------------------------------
 BYTE   W36
 BYTE   EOT
 BYTE   W02
 BYTE   N80  An2
 BYTE   W56
 BYTE   W02
// 032   ----------------------------------------
 BYTE   PATT
  POIN2 Label_7_01484187
// 033   ----------------------------------------
 BYTE   PATT
  POIN2 Label_7_0148418F
// 034   ----------------------------------------
 BYTE   W36
 BYTE   W02
 BYTE   N22  En3  v124
 BYTE   W24
 BYTE   Ds3
 BYTE   W24
 BYTE   Fn3
 BYTE   W10
// 035   ----------------------------------------
 BYTE   W14
 BYTE   En3
 BYTE   W24
 BYTE   N04  An2
 BYTE   W12
 BYTE   Bn2
 BYTE   W12
 BYTE   N22  Cn3
 BYTE   W24
 BYTE   N04  An2
 BYTE   W10
// 036   ----------------------------------------
 BYTE   W02
 BYTE   Bn2
 BYTE   W12
 BYTE   N22  Cn3
 BYTE   W24
 BYTE   N04  An2
 BYTE   W12
 BYTE   Bn2
 BYTE   W12
 BYTE   Cn3
 BYTE   W12
 BYTE   Bn2
 BYTE   W12
 BYTE   An2
 BYTE   W10
// 037   ----------------------------------------
 BYTE   W02
 BYTE   Bn2
 BYTE   W12
 BYTE   Cn3
 BYTE   W12
 BYTE   En3
 BYTE   W12
 BYTE   N22  Ds3
 BYTE   W24
 BYTE   N04  An2
 BYTE   W12
 BYTE   Bn2
 BYTE   W12
 BYTE   Cn3
 BYTE   W10
// 038   ----------------------------------------
 BYTE   W02
 BYTE   En3
 BYTE   W12
 BYTE   N22  Ds3
 BYTE   W24
 BYTE   N04  Cn3
 BYTE   W12
 BYTE   Dn3
 BYTE   W12
 BYTE   N22  En3
 BYTE   W24
 BYTE   N04  Cn3
 BYTE   W10
// 039   ----------------------------------------
 BYTE   W02
 BYTE   Dn3
 BYTE   W12
 BYTE   N22  En3
 BYTE   W24
 BYTE   N04  Cn3
 BYTE   W12
 BYTE   Dn3
 BYTE   W12
 BYTE   En3
 BYTE   W12
 BYTE   Dn3
 BYTE   W12
 BYTE   Cn3
 BYTE   W10
// 040   ----------------------------------------
 BYTE   W02
 BYTE   Dn3
 BYTE   W12
 BYTE   En3
 BYTE   W12
 BYTE   Gn3
 BYTE   W12
 BYTE   N22  Fs3
 BYTE   W24
 BYTE   N22
 BYTE   W24
 BYTE   N04  Cn3
 BYTE   W10
// 041   ----------------------------------------
 BYTE   W02
 BYTE   Dn3
 BYTE   W12
 BYTE   En3
 BYTE   W12
 BYTE   Gn3
 BYTE   W12
 BYTE   N23  Fs3
 BYTE   W24
 BYTE   N10  Ds3
 BYTE   W12
 BYTE   N23  Fn3
 BYTE   W22
// 042   ----------------------------------------
 BYTE   W02
 BYTE   N10  Dn3
 BYTE   W12
 BYTE   N23  En3
 BYTE   W24
 BYTE   N10  Cs3
 BYTE   W12
 BYTE   N23  Ds3
 BYTE   W24
 BYTE   N11  Cn3
 BYTE   W12
 BYTE   Dn3
 BYTE   W10
// 043   ----------------------------------------
 BYTE   W02
 BYTE   Bn2
 BYTE   W12
 BYTE   Cs3
 BYTE   W12
 BYTE   As2
 BYTE   W12
 BYTE   Cn3
 BYTE   W12
 BYTE   An2
 BYTE   W12
 BYTE   Bn2
 BYTE   W12
 BYTE   Gs2
 BYTE   W12
 BYTE   En3
 BYTE   W10
// 044   ----------------------------------------
 BYTE   W02
 BYTE   N10  Cn3
 BYTE   W92
 BYTE   W02
// 045   ----------------------------------------
 BYTE   W84
 BYTE   W02
 BYTE   N05  An2
 BYTE   W10
// 046   ----------------------------------------
 BYTE   W02
 BYTE   Bn2
 BYTE   W12
 BYTE   N22  Cn3
 BYTE   W24
 BYTE   N05  An2
 BYTE   W12
 BYTE   Bn2
 BYTE   W12
 BYTE   N22  Cn3
 BYTE   W24
 BYTE   N05  An2
 BYTE   W10
// 047   ----------------------------------------
 BYTE   W02
 BYTE   Bn2
 BYTE   W12
 BYTE   Cn3
 BYTE   W12
 BYTE   Bn2
 BYTE   W12
 BYTE   An2
 BYTE   W12
 BYTE   Bn2
 BYTE   W12
 BYTE   Cn3
 BYTE   W12
 BYTE   En3
 BYTE   W12
 BYTE   N22  Ds3
 BYTE   W10
// 048   ----------------------------------------
 BYTE   W14
 BYTE   N05  An2
 BYTE   W12
 BYTE   Bn2
 BYTE   W12
 BYTE   Cn3
 BYTE   W12
 BYTE   En3
 BYTE   W12
 BYTE   N22  Ds3
 BYTE   W24
 BYTE   N05  Cn3
 BYTE   W10
// 049   ----------------------------------------
 BYTE   W02
 BYTE   Dn3
 BYTE   W12
 BYTE   N22  En3
 BYTE   W24
 BYTE   N05  Cn3
 BYTE   W12
 BYTE   Dn3
 BYTE   W12
 BYTE   N22  En3
 BYTE   W24
 BYTE   N05  Cn3
 BYTE   W10
// 050   ----------------------------------------
 BYTE   W02
 BYTE   Dn3
 BYTE   W12
 BYTE   En3
 BYTE   W12
 BYTE   Dn3
 BYTE   W12
 BYTE   Cn3
 BYTE   W12
 BYTE   Dn3
 BYTE   W12
 BYTE   En3
 BYTE   W12
 BYTE   Gn3
 BYTE   W12
 BYTE   N22  Fs3
 BYTE   W10
// 051   ----------------------------------------
 BYTE   W14
 BYTE   N22
 BYTE   W24
 BYTE   N05  Cn3
 BYTE   W12
 BYTE   Dn3
 BYTE   W12
 BYTE   En3
 BYTE   W12
 BYTE   Gn3
 BYTE   W12
 BYTE   N23  Fs3
 BYTE   W10
// 052   ----------------------------------------
 BYTE   W14
 BYTE   N10  Ds3
 BYTE   W12
 BYTE   N23  Fn3
 BYTE   W24
 BYTE   N10  Dn3
 BYTE   W12
 BYTE   N23  En3
 BYTE   W24
 BYTE   N10  Cs3
 BYTE   W10
// 053   ----------------------------------------
 BYTE   W02
 BYTE   N23  Ds3
 BYTE   W24
 BYTE   N11  Cn3
 BYTE   W12
 BYTE   Dn3
 BYTE   W12
 BYTE   Bn2
 BYTE   W12
 BYTE   Cs3
 BYTE   W12
 BYTE   As2
 BYTE   W12
 BYTE   Cn3
 BYTE   W10
// 054   ----------------------------------------
 BYTE   W02
 BYTE   An2
 BYTE   W12
 BYTE   Bn2
 BYTE   W12
 BYTE   Gs2
 BYTE   W12
 BYTE   En3
 BYTE   W12
 BYTE   N10  Cn3
 BYTE   W44
 BYTE   W02
// 055   ----------------------------------------
 BYTE   W96
// 056   ----------------------------------------
Label_7_014842EA:
 BYTE   W36
 BYTE   W02
 BYTE   N44  Fn3  v124
 BYTE   W48
 BYTE   En3
 BYTE   W10
 BYTE   PEND 
// 057   ----------------------------------------
Label_7_014842F3:
 BYTE   W36
 BYTE   W02
 BYTE   N44  Ds3  v124
 BYTE   W48
 BYTE   En3
 BYTE   W10
 BYTE   PEND 
// 058   ----------------------------------------
Label_7_014842FC:
 BYTE   W36
 BYTE   W02
 BYTE   N44  Fn3  v124
 BYTE   W48
 BYTE   N22  Gn3
 BYTE   W10
 BYTE   PEND 
// 059   ----------------------------------------
Label_7_01484306:
 BYTE   W14
 BYTE   N22  Fn3  v124
 BYTE   W24
 BYTE   N92  En3
 BYTE   W56
 BYTE   W02
 BYTE   PEND 
// 060   ----------------------------------------
 BYTE   PATT
  POIN2 Label_7_014842EA
// 061   ----------------------------------------
 BYTE   PATT
  POIN2 Label_7_014842F3
// 062   ----------------------------------------
 BYTE   PATT
  POIN2 Label_7_014842FC
// 063   ----------------------------------------
 BYTE   PATT
  POIN2 Label_7_01484306
// 064   ----------------------------------------
 BYTE   W36
 BYTE   GoTo
  POIN2 Label_7_01484052
 BYTE   FINE

//**************** Track 9 (Midi-Chn.8) ****************//

song0146_009:
// 000   ----------------------------------------
 BYTE   KEYSH   song0146_key+0
Label_8_0148432E:
 BYTE   VOICE   47
 BYTE   VOL   31*song0146_mvl/mxv
 BYTE   MOD 4
 BYTE   PAN   c_v-15
 BYTE   N11  Gs0  v124
 BYTE   W12
 BYTE   An0
 BYTE   W12
 BYTE   Bn0
 BYTE   W12
 BYTE   N22  Cn1
 BYTE   W24
 BYTE   N11  Bn0
 BYTE   W12
 BYTE   Cn1
 BYTE   W12
 BYTE   Dn1
 BYTE   W12
// 001   ----------------------------------------
 BYTE   N23  En1
 BYTE   W24
 BYTE   N10  Ds1
 BYTE   W12
 BYTE   N23  Fn1
 BYTE   W24
 BYTE   N10  En1
 BYTE   W12
 BYTE   N11  An1
 BYTE   W12
 BYTE   N10  Gs1
 BYTE   W12
// 002   ----------------------------------------
 BYTE   N11  Cn2
 BYTE   W12
 BYTE   Gs1
 BYTE   W12
 BYTE   An1
 BYTE   W12
 BYTE   Fn1
 BYTE   W12
 BYTE   N10  En1
 BYTE   W12
 BYTE   N11  An1
 BYTE   W12
 BYTE   N10  Gs1
 BYTE   W12
 BYTE   N11  Cn2
 BYTE   W12
// 003   ----------------------------------------
 BYTE   TIE  Dn2
 BYTE   W96
// 004   ----------------------------------------
 BYTE   W90
 BYTE   EOT
 BYTE   W06
// 005   ----------------------------------------
 BYTE   W48
 BYTE   N12  Ds1
 BYTE   W13
 BYTE   Ds1  v076
 BYTE   W13
 BYTE   Ds1  v048
 BYTE   W22
// 006   ----------------------------------------
 BYTE   W24
 BYTE   Ds1  v124
 BYTE   W13
 BYTE   Ds1  v076
 BYTE   W13
 BYTE   Ds1  v048
 BYTE   W44
 BYTE   W02
// 007   ----------------------------------------
 BYTE   W24
 BYTE   Fn1  v124
 BYTE   W13
 BYTE   Fn1  v076
 BYTE   W13
 BYTE   Fn1  v048
 BYTE   W44
 BYTE   W02
// 008   ----------------------------------------
 BYTE   Fn1  v124
 BYTE   W13
 BYTE   Fn1  v076
 BYTE   W13
 BYTE   Fn1  v048
 BYTE   W44
 BYTE   W02
 BYTE   N92  An0  v108
 BYTE   W24
// 009   ----------------------------------------
 BYTE   W72
 BYTE   N68
 BYTE   W24
// 010   ----------------------------------------
 BYTE   W48
 BYTE   N92
 BYTE   W48
// 011   ----------------------------------------
 BYTE   W48
 BYTE   N44
 BYTE   W48
// 012   ----------------------------------------
 BYTE   N92
 BYTE   W96
// 013   ----------------------------------------
 BYTE   N68
 BYTE   W72
 BYTE   N92
 BYTE   W24
// 014   ----------------------------------------
 BYTE   W72
 BYTE   N44
 BYTE   W24
// 015   ----------------------------------------
 BYTE   W96
// 016   ----------------------------------------
 BYTE   W96
// 017   ----------------------------------------
 BYTE   W96
// 018   ----------------------------------------
 BYTE   W96
// 019   ----------------------------------------
 BYTE   W96
// 020   ----------------------------------------
 BYTE   W96
// 021   ----------------------------------------
 BYTE   W96
// 022   ----------------------------------------
 BYTE   W96
// 023   ----------------------------------------
Label_8_014843BD:
 BYTE   W24
 BYTE   N13  Gn1  v124
 BYTE   W24
 BYTE   Gn1  v060
 BYTE   W12
 BYTE   Fn1  v124
 BYTE   W24
 BYTE   Fn1  v060
 BYTE   W12
 BYTE   PEND 
// 024   ----------------------------------------
Label_8_014843CC:
 BYTE   N13  En1  v124
 BYTE   W24
 BYTE   En1  v060
 BYTE   W72
 BYTE   PEND 
// 025   ----------------------------------------
 BYTE   PATT
  POIN2 Label_8_014843BD
// 026   ----------------------------------------
 BYTE   PATT
  POIN2 Label_8_014843CC
// 027   ----------------------------------------
 BYTE   W24
 BYTE   N80  En1  v124
 BYTE   W72
// 028   ----------------------------------------
 BYTE   W12
 BYTE   N92
 BYTE   W84
// 029   ----------------------------------------
 BYTE   W12
 BYTE   N92
 BYTE   W84
// 030   ----------------------------------------
 BYTE   W12
 BYTE   TIE
 BYTE   W84
// 031   ----------------------------------------
 BYTE   W22
 BYTE   EOT
 BYTE   W02
 BYTE   N80
 BYTE   W72
// 032   ----------------------------------------
 BYTE   W12
 BYTE   N92
 BYTE   W84
// 033   ----------------------------------------
 BYTE   W12
 BYTE   N92
 BYTE   W84
// 034   ----------------------------------------
 BYTE   W96
// 035   ----------------------------------------
 BYTE   W96
// 036   ----------------------------------------
 BYTE   W96
// 037   ----------------------------------------
 BYTE   W96
// 038   ----------------------------------------
 BYTE   W96
// 039   ----------------------------------------
 BYTE   W96
// 040   ----------------------------------------
 BYTE   W96
// 041   ----------------------------------------
 BYTE   W96
// 042   ----------------------------------------
 BYTE   W96
// 043   ----------------------------------------
 BYTE   W96
// 044   ----------------------------------------
 BYTE   W96
// 045   ----------------------------------------
 BYTE   W96
// 046   ----------------------------------------
 BYTE   W96
// 047   ----------------------------------------
 BYTE   W96
// 048   ----------------------------------------
 BYTE   W96
// 049   ----------------------------------------
 BYTE   W96
// 050   ----------------------------------------
 BYTE   W96
// 051   ----------------------------------------
 BYTE   W96
// 052   ----------------------------------------
 BYTE   W96
// 053   ----------------------------------------
 BYTE   W96
// 054   ----------------------------------------
 BYTE   W96
// 055   ----------------------------------------
 BYTE   W96
// 056   ----------------------------------------
 BYTE   W24
 BYTE   N44  An1
 BYTE   W48
 BYTE   Cn2
 BYTE   W24
// 057   ----------------------------------------
 BYTE   W24
 BYTE   Bn1
 BYTE   W48
 BYTE   An1
 BYTE   W24
// 058   ----------------------------------------
 BYTE   W24
 BYTE   Dn2
 BYTE   W48
 BYTE   N22
 BYTE   W24
// 059   ----------------------------------------
 BYTE   N22
 BYTE   W24
 BYTE   N92  Bn1
 BYTE   W72
// 060   ----------------------------------------
 BYTE   W24
 BYTE   N06  Fn1
 BYTE   N06  An1
 BYTE   W12
 BYTE   Fn1
 BYTE   N06  An1
 BYTE   W36
 BYTE   En1
 BYTE   N06  Gs1
 BYTE   W12
 BYTE   En1
 BYTE   N06  Gs1
 BYTE   W12
// 061   ----------------------------------------
 BYTE   W24
 BYTE   Ds1
 BYTE   N06  Gn1
 BYTE   W12
 BYTE   Ds1
 BYTE   N06  Gn1
 BYTE   W36
 BYTE   En1
 BYTE   N06  Gs1
 BYTE   W12
 BYTE   En1
 BYTE   N06  Gs1
 BYTE   W12
// 062   ----------------------------------------
 BYTE   W24
 BYTE   N44  An1
 BYTE   W48
 BYTE   N22  Fn1
 BYTE   W24
// 063   ----------------------------------------
 BYTE   N22
 BYTE   W24
 BYTE   En2
 BYTE   W24
 BYTE   Dn2
 BYTE   W24
 BYTE   Cn2
 BYTE   W24
// 064   ----------------------------------------
 BYTE   Bn1
 BYTE   W36
 BYTE   GoTo
  POIN2 Label_8_0148432E
 BYTE   FINE

//**************** Track 10 (Midi-Chn.9) ****************//

song0146_010:
// 000   ----------------------------------------
 BYTE   KEYSH   song0146_key+0
Label_9_0148445E:
 BYTE   VOICE   48
 BYTE   VOL   23*song0146_mvl/mxv
 BYTE   PAN   c_v-30
 BYTE   N11  Gs1  v112
 BYTE   W12
 BYTE   An1
 BYTE   W12
 BYTE   Bn1
 BYTE   W12
 BYTE   N23  Cn2
 BYTE   W24
 BYTE   N11  Bn1
 BYTE   W12
 BYTE   Cn2
 BYTE   W12
 BYTE   Dn2
 BYTE   W12
// 001   ----------------------------------------
 BYTE   N23  En2
 BYTE   W24
 BYTE   N11  Ds2
 BYTE   W12
 BYTE   N23  Fn2
 BYTE   W24
 BYTE   N11  En2
 BYTE   W12
 BYTE   An2
 BYTE   W12
 BYTE   Gs2
 BYTE   W12
// 002   ----------------------------------------
 BYTE   Cn3
 BYTE   W12
 BYTE   Gs2
 BYTE   W12
 BYTE   An2
 BYTE   W12
 BYTE   Fn3
 BYTE   W12
 BYTE   En3
 BYTE   W12
 BYTE   An3
 BYTE   W12
 BYTE   Gs3
 BYTE   W12
 BYTE   Cn4
 BYTE   W12
// 003   ----------------------------------------
 BYTE   TIE  Fn3
 BYTE   W96
// 004   ----------------------------------------
 BYTE   W92
 BYTE   W02
 BYTE   EOT
 BYTE   W02
// 005   ----------------------------------------
 BYTE   N10  An3
 BYTE   W13
 BYTE   An3  v072
 BYTE   W13
 BYTE   N15  An3  v040
 BYTE   W22
 BYTE   N10  An2  v112
 BYTE   W13
 BYTE   An2  v072
 BYTE   W13
 BYTE   N15  An2  v040
 BYTE   W22
// 006   ----------------------------------------
 BYTE   N10  An3  v112
 BYTE   W13
 BYTE   An3  v072
 BYTE   W11
 BYTE   An2  v112
 BYTE   W02
 BYTE   N15  An3  v040
 BYTE   W11
 BYTE   N10  An2  v072
 BYTE   W13
 BYTE   N15  An2  v040
 BYTE   W22
 BYTE   N10  Bn3  v112
 BYTE   W13
 BYTE   Bn3  v072
 BYTE   W11
// 007   ----------------------------------------
 BYTE   W02
 BYTE   N15  Bn3  v040
 BYTE   W22
 BYTE   N10  Bn2  v112
 BYTE   W13
 BYTE   Bn2  v072
 BYTE   W13
 BYTE   N15  Bn2  v040
 BYTE   W22
 BYTE   N10  Bn3  v112
 BYTE   W13
 BYTE   Bn3  v072
 BYTE   W11
// 008   ----------------------------------------
 BYTE   Bn2  v112
 BYTE   W02
 BYTE   N15  Bn3  v040
 BYTE   W11
 BYTE   N10  Bn2  v072
 BYTE   W13
 BYTE   N15  Bn2  v040
 BYTE   W44
 BYTE   W02
 BYTE   N92  En3  v104
 BYTE   W24
// 009   ----------------------------------------
 BYTE   W72
 BYTE   N68  Fn3
 BYTE   W24
// 010   ----------------------------------------
 BYTE   W48
 BYTE   N92  Fs3
 BYTE   W48
// 011   ----------------------------------------
 BYTE   W48
 BYTE   N44  Fn3
 BYTE   W48
// 012   ----------------------------------------
 BYTE   N92  En3
 BYTE   W96
// 013   ----------------------------------------
 BYTE   N68  Fn3
 BYTE   W72
 BYTE   N92  Fs3
 BYTE   W24
// 014   ----------------------------------------
 BYTE   W72
 BYTE   N44  Fn3
 BYTE   W24
// 015   ----------------------------------------
 BYTE   W24
 BYTE   N32  Bn2  v116
 BYTE   W36
 BYTE   N11  Cn3
 BYTE   W12
 BYTE   N32  Dn3
 BYTE   W24
// 016   ----------------------------------------
Label_9_0148451E:
 BYTE   W12
 BYTE   N11  En3  v116
 BYTE   W12
 BYTE   N32  Fn3
 BYTE   W36
 BYTE   N11  En3
 BYTE   W12
 BYTE   N32  Dn3
 BYTE   W24
 BYTE   PEND 
// 017   ----------------------------------------
Label_9_0148452D:
 BYTE   W12
 BYTE   N11  Bn2  v116
 BYTE   W12
 BYTE   N32  Cn3
 BYTE   W36
 BYTE   N11  Dn3
 BYTE   W12
 BYTE   N32  En3
 BYTE   W24
 BYTE   PEND 
// 018   ----------------------------------------
 BYTE   W12
 BYTE   N11  Fn3
 BYTE   W12
 BYTE   N32  Gn3
 BYTE   W36
 BYTE   N11  Fn3
 BYTE   W12
 BYTE   N32  En3
 BYTE   W24
// 019   ----------------------------------------
 BYTE   W12
 BYTE   N11  Cn3
 BYTE   W12
 BYTE   N32  Bn2
 BYTE   W36
 BYTE   N11  Cn3
 BYTE   W12
 BYTE   N32  Dn3
 BYTE   W24
// 020   ----------------------------------------
 BYTE   PATT
  POIN2 Label_9_0148451E
// 021   ----------------------------------------
 BYTE   PATT
  POIN2 Label_9_0148452D
// 022   ----------------------------------------
 BYTE   W12
 BYTE   N11  Fn3  v116
 BYTE   W12
 BYTE   N04  Gn3
 BYTE   W06
 BYTE   An3
 BYTE   W06
 BYTE   Gn3
 BYTE   W06
 BYTE   Fn3
 BYTE   W06
 BYTE   Gn3
 BYTE   W06
 BYTE   Fn3
 BYTE   W06
 BYTE   En3
 BYTE   W06
 BYTE   Fn3
 BYTE   W06
 BYTE   En3
 BYTE   W06
 BYTE   Dn3
 BYTE   W06
 BYTE   En3
 BYTE   W06
 BYTE   Dn3
 BYTE   W06
// 023   ----------------------------------------
 BYTE   Cn3
 BYTE   W06
 BYTE   Dn3
 BYTE   W06
 BYTE   Cn3
 BYTE   W06
 BYTE   An2
 BYTE   W06
 BYTE   N32  Bn2  v104
 BYTE   W36
 BYTE   An2
 BYTE   W36
// 024   ----------------------------------------
 BYTE   Gs2
 BYTE   W32
 BYTE   W03
 BYTE   N23  Gs2  v060
 BYTE   W36
 BYTE   W01
 BYTE   N04  Bn1  v116
 BYTE   W06
 BYTE   Cn2
 BYTE   W06
 BYTE   Dn2
 BYTE   W06
 BYTE   En2
 BYTE   W06
// 025   ----------------------------------------
 BYTE   N22  Dn2
 BYTE   W24
 BYTE   N32  Bn2  v104
 BYTE   W36
 BYTE   An2
 BYTE   W36
// 026   ----------------------------------------
 BYTE   Gs2
 BYTE   W32
 BYTE   W03
 BYTE   N23  Gs2  v060
 BYTE   W36
 BYTE   W01
 BYTE   N04  Gs3  v116
 BYTE   W06
 BYTE   Fn3
 BYTE   W06
 BYTE   En3
 BYTE   W06
 BYTE   Dn3
 BYTE   W06
// 027   ----------------------------------------
 BYTE   Cn3
 BYTE   W06
 BYTE   Bn2
 BYTE   W06
 BYTE   An2
 BYTE   W06
 BYTE   Gs2
 BYTE   W06
 BYTE   N80  Cn2  v104
 BYTE   W72
// 028   ----------------------------------------
 BYTE   W12
 BYTE   N92  Dn2
 BYTE   W84
// 029   ----------------------------------------
 BYTE   W12
 BYTE   Cn2
 BYTE   W84
// 030   ----------------------------------------
 BYTE   W12
 BYTE   TIE  Bn1
 BYTE   W84
// 031   ----------------------------------------
 BYTE   W22
 BYTE   EOT
 BYTE   W02
 BYTE   N80  Cn2
 BYTE   W72
// 032   ----------------------------------------
 BYTE   W12
 BYTE   N92  Dn2
 BYTE   W84
// 033   ----------------------------------------
 BYTE   W12
 BYTE   Cn2
 BYTE   W84
// 034   ----------------------------------------
 BYTE   W24
 BYTE   N04  Gn2  v127
 BYTE   W06
 BYTE   Cn3
 BYTE   W06
 BYTE   En3
 BYTE   W06
 BYTE   Gn3
 BYTE   W06
 BYTE   Fs2
 BYTE   W06
 BYTE   Bn2
 BYTE   W06
 BYTE   Ds3
 BYTE   W06
 BYTE   Fs3
 BYTE   W06
 BYTE   Gs2
 BYTE   W06
 BYTE   Cs3
 BYTE   W06
 BYTE   Fn3
 BYTE   W06
 BYTE   Gs3
 BYTE   W06
// 035   ----------------------------------------
 BYTE   Gn2
 BYTE   W06
 BYTE   Cn3
 BYTE   W06
 BYTE   En3
 BYTE   W06
 BYTE   Gn3
 BYTE   W06
 BYTE   N03  En2  v112
 BYTE   W12
 BYTE   N03
 BYTE   W12
 BYTE   N03
 BYTE   W12
 BYTE   N03
 BYTE   W12
 BYTE   N03
 BYTE   W12
 BYTE   N03
 BYTE   W12
// 036   ----------------------------------------
Label_9_0148460E:
 BYTE   N03  En2  v112
 BYTE   W12
 BYTE   N03
 BYTE   W12
 BYTE   N03
 BYTE   W12
 BYTE   N03
 BYTE   W12
 BYTE   N03
 BYTE   W12
 BYTE   N03
 BYTE   W12
 BYTE   N03
 BYTE   W12
 BYTE   N03
 BYTE   W12
 BYTE   PEND 
// 037   ----------------------------------------
 BYTE   N03
 BYTE   W12
 BYTE   N03
 BYTE   W12
 BYTE   N22  Ds2  v104
 BYTE   W24
 BYTE   N03  En2  v112
 BYTE   W12
 BYTE   N03
 BYTE   W12
 BYTE   N03
 BYTE   W12
 BYTE   N03
 BYTE   W12
// 038   ----------------------------------------
 BYTE   N22  Ds2  v104
 BYTE   W24
 BYTE   N03  En2  v112
 BYTE   W12
 BYTE   N03
 BYTE   W12
 BYTE   N03
 BYTE   W12
 BYTE   N03
 BYTE   W12
 BYTE   N03
 BYTE   W12
 BYTE   N03
 BYTE   W12
// 039   ----------------------------------------
 BYTE   PATT
  POIN2 Label_9_0148460E
// 040   ----------------------------------------
 BYTE   N03  En2  v112
 BYTE   W12
 BYTE   N03
 BYTE   W12
 BYTE   N22  Ds2  v104
 BYTE   W24
 BYTE   N22
 BYTE   W24
 BYTE   N03  En2  v112
 BYTE   W12
 BYTE   N03
 BYTE   W12
// 041   ----------------------------------------
 BYTE   N03
 BYTE   W12
 BYTE   N03
 BYTE   W12
 BYTE   N32  Fs2  v104
 BYTE   W36
 BYTE   Fn2
 BYTE   W36
// 042   ----------------------------------------
 BYTE   En2
 BYTE   W36
 BYTE   Ds2
 BYTE   W36
 BYTE   N23  Dn2
 BYTE   W24
// 043   ----------------------------------------
 BYTE   Cs2
 BYTE   W24
 BYTE   Cn2
 BYTE   W24
 BYTE   N22  Bn1
 BYTE   W24
 BYTE   N11  En3  v124
 BYTE   W12
 BYTE   N05  Cn3
 BYTE   N11  En3  v068
 BYTE   W12
// 044   ----------------------------------------
 BYTE   N05  Cn3
 BYTE   W12
 BYTE   Cn3  v040
 BYTE   N11  En3  v124
 BYTE   W12
 BYTE   N05  Ds3
 BYTE   N11  En3  v068
 BYTE   W12
 BYTE   N05  Ds3
 BYTE   N11  En3  v040
 BYTE   W12
 BYTE   Cn3  v124
 BYTE   N05  Ds3  v040
 BYTE   W12
 BYTE   An2  v124
 BYTE   N11  Cn3  v068
 BYTE   W12
 BYTE   N05  An2
 BYTE   N11  Cn3  v124
 BYTE   W12
 BYTE   N05  An2
 BYTE   N11  Cn3  v068
 BYTE   W12
// 045   ----------------------------------------
 BYTE   N05  An2
 BYTE   N11  Cn3  v040
 BYTE   W12
 BYTE   N05  An2
 BYTE   N11  Cn3  v028
 BYTE   W12
 BYTE   N05  An2
 BYTE   W48
 BYTE   N03  En2  v112
 BYTE   W12
 BYTE   N03
 BYTE   W12
// 046   ----------------------------------------
 BYTE   PATT
  POIN2 Label_9_0148460E
// 047   ----------------------------------------
Label_9_014846C5:
 BYTE   N03  En2  v112
 BYTE   W12
 BYTE   N03
 BYTE   W12
 BYTE   N03
 BYTE   W12
 BYTE   N03
 BYTE   W12
 BYTE   N03
 BYTE   W12
 BYTE   N03
 BYTE   W12
 BYTE   N22  Ds2  v104
 BYTE   W24
 BYTE   PEND 
// 048   ----------------------------------------
 BYTE   N03  En2  v112
 BYTE   W12
 BYTE   N03
 BYTE   W12
 BYTE   N03
 BYTE   W12
 BYTE   N03
 BYTE   W12
 BYTE   N22  Ds2  v104
 BYTE   W24
 BYTE   N03  En2  v112
 BYTE   W12
 BYTE   N03
 BYTE   W12
// 049   ----------------------------------------
 BYTE   PATT
  POIN2 Label_9_0148460E
// 050   ----------------------------------------
 BYTE   PATT
  POIN2 Label_9_014846C5
// 051   ----------------------------------------
 BYTE   N22  Ds2  v104
 BYTE   W24
 BYTE   N03  En2  v112
 BYTE   W12
 BYTE   N03
 BYTE   W12
 BYTE   N03
 BYTE   W12
 BYTE   N03
 BYTE   W12
 BYTE   N32  Fs2  v104
 BYTE   W24
// 052   ----------------------------------------
 BYTE   W12
 BYTE   Fn2
 BYTE   W36
 BYTE   En2
 BYTE   W36
 BYTE   Ds2
 BYTE   W12
// 053   ----------------------------------------
 BYTE   W24
 BYTE   N23  Dn2
 BYTE   W24
 BYTE   Cs2
 BYTE   W24
 BYTE   Cn2
 BYTE   W24
// 054   ----------------------------------------
 BYTE   Bn1
 BYTE   W24
 BYTE   N10  En3  v124
 BYTE   W12
 BYTE   N04  Cn3
 BYTE   N10  En3  v068
 BYTE   W12
 BYTE   N04  Cn3
 BYTE   W12
 BYTE   Cn3  v040
 BYTE   N10  En3  v124
 BYTE   W12
 BYTE   N04  Ds3
 BYTE   N10  En3  v068
 BYTE   W12
 BYTE   N04  Ds3
 BYTE   N10  En3  v040
 BYTE   W12
// 055   ----------------------------------------
 BYTE   Cn3  v124
 BYTE   N04  Ds3  v040
 BYTE   W12
 BYTE   An2  v124
 BYTE   N10  Cn3  v068
 BYTE   W12
 BYTE   N04  An2
 BYTE   N10  Cn3  v124
 BYTE   W12
 BYTE   N04  An2
 BYTE   N10  Cn3  v068
 BYTE   W12
 BYTE   N04  An2
 BYTE   N10  Cn3  v040
 BYTE   W12
 BYTE   N04  An2
 BYTE   N10  Cn3  v028
 BYTE   W12
 BYTE   N04  An2
 BYTE   W24
// 056   ----------------------------------------
 BYTE   W24
 BYTE   N11  Fn2  v104
 BYTE   W12
 BYTE   Gn2
 BYTE   W12
 BYTE   An2
 BYTE   W12
 BYTE   Gn2
 BYTE   W12
 BYTE   En2
 BYTE   W12
 BYTE   Gn2
 BYTE   W12
// 057   ----------------------------------------
 BYTE   An2
 BYTE   W12
 BYTE   Gn2
 BYTE   W12
 BYTE   Ds2
 BYTE   W12
 BYTE   Gn2
 BYTE   W12
 BYTE   An2
 BYTE   W12
 BYTE   Gn2
 BYTE   W12
 BYTE   En2
 BYTE   W12
 BYTE   Gn2
 BYTE   W12
// 058   ----------------------------------------
 BYTE   An2
 BYTE   W12
 BYTE   Gn2
 BYTE   W12
 BYTE   N44  An2
 BYTE   W48
 BYTE   Cn3
 BYTE   W24
// 059   ----------------------------------------
 BYTE   W24
 BYTE   N92  Bn2
 BYTE   W72
// 060   ----------------------------------------
 BYTE   W24
 BYTE   N10  An2
 BYTE   W12
 BYTE   N01  Bn2
 BYTE   W02
 BYTE   Cn3
 BYTE   W02
 BYTE   Dn3
 BYTE   W02
 BYTE   En3
 BYTE   W02
 BYTE   Fn3
 BYTE   W02
 BYTE   Gn3
 BYTE   W02
 BYTE   N22  An3
 BYTE   W24
 BYTE   N10  Gs2
 BYTE   W12
 BYTE   N01  An2
 BYTE   W02
 BYTE   Bn2
 BYTE   W02
 BYTE   Cn3
 BYTE   W02
 BYTE   Dn3
 BYTE   W02
 BYTE   En3
 BYTE   W02
 BYTE   Fn3
 BYTE   W02
// 061   ----------------------------------------
 BYTE   N22  Gs3
 BYTE   W24
 BYTE   N10  Gn2
 BYTE   W12
 BYTE   N01  An2
 BYTE   W02
 BYTE   Bn2
 BYTE   W02
 BYTE   Cn3
 BYTE   W02
 BYTE   Dn3
 BYTE   W02
 BYTE   Ds3
 BYTE   W02
 BYTE   Fn3
 BYTE   W02
 BYTE   N22  Gn3
 BYTE   W24
 BYTE   N10  Gs2
 BYTE   W12
 BYTE   N01  An2
 BYTE   W02
 BYTE   Bn2
 BYTE   W02
 BYTE   Cn3
 BYTE   W02
 BYTE   Dn3
 BYTE   W02
 BYTE   En3
 BYTE   W02
 BYTE   Fn3
 BYTE   W02
// 062   ----------------------------------------
 BYTE   N22  Gs3
 BYTE   W24
 BYTE   N11  An3
 BYTE   W12
 BYTE   Gn3
 BYTE   W12
 BYTE   Fn3
 BYTE   W12
 BYTE   En3
 BYTE   W12
 BYTE   Dn3
 BYTE   W12
 BYTE   Cn3
 BYTE   W12
// 063   ----------------------------------------
 BYTE   Bn2
 BYTE   W12
 BYTE   An2
 BYTE   W12
 BYTE   N04  Gs2
 BYTE   W06
 BYTE   Bn2
 BYTE   W06
 BYTE   Gs2
 BYTE   W06
 BYTE   En2
 BYTE   W06
 BYTE   Dn2
 BYTE   W06
 BYTE   En2
 BYTE   W06
 BYTE   Gs2
 BYTE   W06
 BYTE   Dn2
 BYTE   W06
 BYTE   En2
 BYTE   W06
 BYTE   N04
 BYTE   W06
 BYTE   Gs2
 BYTE   W06
 BYTE   En2
 BYTE   W06
// 064   ----------------------------------------
 BYTE   Dn2
 BYTE   W06
 BYTE   N04
 BYTE   W06
 BYTE   En2
 BYTE   W06
 BYTE   Dn2
 BYTE   W18
 BYTE   GoTo
  POIN2 Label_9_0148445E
 BYTE   FINE

//**************** Track 11 (Midi-Chn.10) ****************//

song0146_011:
// 000   ----------------------------------------
 BYTE   KEYSH   song0146_key+0
Label_10_01484812:
 BYTE   VOICE   49
 BYTE   VOL   24*song0146_mvl/mxv
 BYTE   PAN   c_v+30
 BYTE   N10  Gs0  v116
 BYTE   W12
 BYTE   An0
 BYTE   W12
 BYTE   Bn0
 BYTE   W12
 BYTE   N22  Cn1
 BYTE   W24
 BYTE   N10  Bn0
 BYTE   W12
 BYTE   Cn1
 BYTE   W12
 BYTE   Dn1
 BYTE   W12
// 001   ----------------------------------------
 BYTE   N22  En1
 BYTE   W24
 BYTE   N10  Ds1
 BYTE   W12
 BYTE   N22  Fn1
 BYTE   W24
 BYTE   N10  En1
 BYTE   W12
 BYTE   An1
 BYTE   W12
 BYTE   Gs1
 BYTE   W12
// 002   ----------------------------------------
 BYTE   Cn2
 BYTE   W12
 BYTE   Gs1
 BYTE   W12
 BYTE   An1
 BYTE   W12
 BYTE   Fn2
 BYTE   W12
 BYTE   En2
 BYTE   W12
 BYTE   An2
 BYTE   W12
 BYTE   Gs2
 BYTE   W12
 BYTE   Cn3
 BYTE   W12
// 003   ----------------------------------------
 BYTE   TIE  Gs2  v112
 BYTE   W96
// 004   ----------------------------------------
 BYTE   W92
 BYTE   W02
 BYTE   EOT
 BYTE   W02
// 005   ----------------------------------------
 BYTE   N10  An2  v100
 BYTE   W13
 BYTE   An2  v072
 BYTE   W13
 BYTE   N15  An2  v040
 BYTE   W22
 BYTE   N10  An1  v100
 BYTE   W13
 BYTE   An1  v072
 BYTE   W13
 BYTE   N15  An1  v040
 BYTE   W22
// 006   ----------------------------------------
 BYTE   N10  An2  v100
 BYTE   W13
 BYTE   An2  v072
 BYTE   W11
 BYTE   An1  v100
 BYTE   W02
 BYTE   N15  An2  v040
 BYTE   W11
 BYTE   N10  An1  v072
 BYTE   W13
 BYTE   N15  An1  v040
 BYTE   W22
 BYTE   N10  Bn2  v100
 BYTE   W13
 BYTE   Bn2  v072
 BYTE   W11
// 007   ----------------------------------------
 BYTE   W02
 BYTE   N15  Bn2  v040
 BYTE   W22
 BYTE   N10  Bn1  v100
 BYTE   W13
 BYTE   Bn1  v072
 BYTE   W13
 BYTE   N15  Bn1  v040
 BYTE   W22
 BYTE   N10  Bn2  v100
 BYTE   W13
 BYTE   Bn2  v072
 BYTE   W11
// 008   ----------------------------------------
 BYTE   Bn1  v100
 BYTE   W02
 BYTE   N15  Bn2  v040
 BYTE   W11
 BYTE   N10  Bn1  v072
 BYTE   W13
 BYTE   N15  Bn1  v040
 BYTE   W44
 BYTE   W02
 BYTE   N92  An2  v104
 BYTE   W24
// 009   ----------------------------------------
 BYTE   W72
 BYTE   N68
 BYTE   W24
// 010   ----------------------------------------
 BYTE   W48
 BYTE   N92
 BYTE   W48
// 011   ----------------------------------------
 BYTE   W48
 BYTE   N44
 BYTE   W48
// 012   ----------------------------------------
 BYTE   N92
 BYTE   W96
// 013   ----------------------------------------
 BYTE   N68
 BYTE   W72
 BYTE   N92
 BYTE   W24
// 014   ----------------------------------------
 BYTE   W72
 BYTE   N44
 BYTE   W24
// 015   ----------------------------------------
 BYTE   W24
 BYTE   N32  Gs2  v116
 BYTE   W36
 BYTE   N10  An2
 BYTE   W12
 BYTE   N32  Bn2
 BYTE   W24
// 016   ----------------------------------------
Label_10_014848CD:
 BYTE   W12
 BYTE   N10  Cn3  v116
 BYTE   W12
 BYTE   N32  Dn3
 BYTE   W36
 BYTE   N10  Cn3
 BYTE   W12
 BYTE   N32  Bn2
 BYTE   W24
 BYTE   PEND 
// 017   ----------------------------------------
Label_10_014848DC:
 BYTE   W12
 BYTE   N10  Gs2  v116
 BYTE   W12
 BYTE   N32  An2
 BYTE   W36
 BYTE   N10  Bn2
 BYTE   W12
 BYTE   N32  Cn3
 BYTE   W24
 BYTE   PEND 
// 018   ----------------------------------------
 BYTE   W12
 BYTE   N10  Dn3
 BYTE   W12
 BYTE   N32  En3
 BYTE   W36
 BYTE   N10  Dn3
 BYTE   W12
 BYTE   N32  Cn3
 BYTE   W24
// 019   ----------------------------------------
 BYTE   W12
 BYTE   N10  An2
 BYTE   W12
 BYTE   N32  Gs2
 BYTE   W36
 BYTE   N10  An2
 BYTE   W12
 BYTE   N32  Bn2
 BYTE   W24
// 020   ----------------------------------------
 BYTE   PATT
  POIN2 Label_10_014848CD
// 021   ----------------------------------------
 BYTE   PATT
  POIN2 Label_10_014848DC
// 022   ----------------------------------------
 BYTE   W12
 BYTE   N10  Dn3  v116
 BYTE   W12
 BYTE   N04  En3
 BYTE   W06
 BYTE   Fn3
 BYTE   W06
 BYTE   En3
 BYTE   W06
 BYTE   Dn3
 BYTE   W06
 BYTE   En3
 BYTE   W06
 BYTE   Dn3
 BYTE   W06
 BYTE   Cn3
 BYTE   W06
 BYTE   Dn3
 BYTE   W06
 BYTE   Cn3
 BYTE   W06
 BYTE   Bn2
 BYTE   W06
 BYTE   Cn3
 BYTE   W06
 BYTE   Bn2
 BYTE   W06
// 023   ----------------------------------------
 BYTE   An2
 BYTE   W06
 BYTE   Bn2
 BYTE   W06
 BYTE   An2
 BYTE   W06
 BYTE   Fn2
 BYTE   W06
 BYTE   N32  Gn2  v104
 BYTE   W36
 BYTE   Fn2
 BYTE   W36
// 024   ----------------------------------------
 BYTE   En2
 BYTE   W32
 BYTE   W03
 BYTE   N23  En2  v060
 BYTE   W36
 BYTE   W01
 BYTE   N04  Gs1  v116
 BYTE   W06
 BYTE   An1
 BYTE   W06
 BYTE   Bn1
 BYTE   W06
 BYTE   Cn2
 BYTE   W06
// 025   ----------------------------------------
 BYTE   N22  Bn1
 BYTE   W24
 BYTE   N32  Gn2  v104
 BYTE   W36
 BYTE   Fn2
 BYTE   W36
// 026   ----------------------------------------
 BYTE   En2
 BYTE   W32
 BYTE   W03
 BYTE   N23  En2  v060
 BYTE   W36
 BYTE   W01
 BYTE   N04  En3  v116
 BYTE   W06
 BYTE   Dn3
 BYTE   W06
 BYTE   Cn3
 BYTE   W06
 BYTE   Bn2
 BYTE   W06
// 027   ----------------------------------------
 BYTE   An2
 BYTE   W06
 BYTE   Gs2
 BYTE   W06
 BYTE   Fn2
 BYTE   W06
 BYTE   En2
 BYTE   W06
 BYTE   N80  An1  v104
 BYTE   W72
// 028   ----------------------------------------
 BYTE   W12
 BYTE   N92  As1
 BYTE   W84
// 029   ----------------------------------------
 BYTE   W12
 BYTE   An1
 BYTE   W84
// 030   ----------------------------------------
 BYTE   W12
 BYTE   TIE  Gn1
 BYTE   W84
// 031   ----------------------------------------
 BYTE   W22
 BYTE   EOT
 BYTE   W02
 BYTE   N80  An1
 BYTE   W72
// 032   ----------------------------------------
 BYTE   W12
 BYTE   N92  As1
 BYTE   W84
// 033   ----------------------------------------
 BYTE   W12
 BYTE   An1
 BYTE   W84
// 034   ----------------------------------------
 BYTE   W24
 BYTE   N23  En2
 BYTE   W24
 BYTE   Ds2
 BYTE   W24
 BYTE   Fn2
 BYTE   W24
// 035   ----------------------------------------
 BYTE   En2
 BYTE   W24
 BYTE   N03  Cn2  v112
 BYTE   W12
 BYTE   N03
 BYTE   W12
 BYTE   N03
 BYTE   W12
 BYTE   N03
 BYTE   W12
 BYTE   N03
 BYTE   W12
 BYTE   N03
 BYTE   W12
// 036   ----------------------------------------
Label_10_014849A4:
 BYTE   N03  Cn2  v112
 BYTE   W12
 BYTE   N03
 BYTE   W12
 BYTE   N03
 BYTE   W12
 BYTE   N03
 BYTE   W12
 BYTE   N03
 BYTE   W12
 BYTE   N03
 BYTE   W12
 BYTE   N03
 BYTE   W12
 BYTE   N03
 BYTE   W12
 BYTE   PEND 
// 037   ----------------------------------------
 BYTE   N03
 BYTE   W12
 BYTE   N03
 BYTE   W12
 BYTE   N22  Bn1  v104
 BYTE   W24
 BYTE   N03  Cn2  v112
 BYTE   W12
 BYTE   N03
 BYTE   W12
 BYTE   N03
 BYTE   W12
 BYTE   N03
 BYTE   W12
// 038   ----------------------------------------
 BYTE   N22  Bn1  v104
 BYTE   W24
 BYTE   N03  Cn2  v112
 BYTE   W12
 BYTE   N03
 BYTE   W12
 BYTE   N03
 BYTE   W12
 BYTE   N03
 BYTE   W12
 BYTE   N03
 BYTE   W12
 BYTE   N03
 BYTE   W12
// 039   ----------------------------------------
 BYTE   PATT
  POIN2 Label_10_014849A4
// 040   ----------------------------------------
 BYTE   N03  Cn2  v112
 BYTE   W12
 BYTE   N03
 BYTE   W12
 BYTE   N22  Bn1  v104
 BYTE   W24
 BYTE   N22
 BYTE   W24
 BYTE   N03  Cn2  v112
 BYTE   W12
 BYTE   N03
 BYTE   W12
// 041   ----------------------------------------
 BYTE   N03
 BYTE   W12
 BYTE   N03
 BYTE   W12
 BYTE   N32  Ds2  v104
 BYTE   W36
 BYTE   Dn2
 BYTE   W36
// 042   ----------------------------------------
 BYTE   Cs2
 BYTE   W36
 BYTE   Cn2
 BYTE   W36
 BYTE   N23  Bn1
 BYTE   W24
// 043   ----------------------------------------
 BYTE   As1
 BYTE   W24
 BYTE   An1
 BYTE   W24
 BYTE   Gs1
 BYTE   W24
 BYTE   N11  Cn3  v120
 BYTE   W12
 BYTE   N05  An2
 BYTE   N11  Cn3  v064
 BYTE   W12
// 044   ----------------------------------------
 BYTE   N05  An2
 BYTE   N11  Cn3  v040
 BYTE   W12
 BYTE   En2  v120
 BYTE   N05  An2  v040
 BYTE   W12
 BYTE   Ds2  v120
 BYTE   N11  En2  v064
 BYTE   W12
 BYTE   N05  Ds2
 BYTE   N11  En2  v040
 BYTE   W12
 BYTE   Cn2  v120
 BYTE   N05  Ds2  v040
 BYTE   W12
 BYTE   An1  v120
 BYTE   N11  Cn2  v064
 BYTE   W12
 BYTE   N05  An1
 BYTE   N11  Cn2  v120
 BYTE   W12
 BYTE   N05  An1
 BYTE   N11  Cn2  v064
 BYTE   W12
// 045   ----------------------------------------
 BYTE   N05  An1
 BYTE   N11  Cn2  v040
 BYTE   W12
 BYTE   N05  An1
 BYTE   N11  Cn2  v028
 BYTE   W12
 BYTE   N05  An1
 BYTE   W48
 BYTE   N03  Cn2  v112
 BYTE   W12
 BYTE   N03
 BYTE   W12
// 046   ----------------------------------------
 BYTE   PATT
  POIN2 Label_10_014849A4
// 047   ----------------------------------------
Label_10_01484A5D:
 BYTE   N03  Cn2  v112
 BYTE   W12
 BYTE   N03
 BYTE   W12
 BYTE   N03
 BYTE   W12
 BYTE   N03
 BYTE   W12
 BYTE   N03
 BYTE   W12
 BYTE   N03
 BYTE   W12
 BYTE   N22  Bn1  v104
 BYTE   W24
 BYTE   PEND 
// 048   ----------------------------------------
 BYTE   N03  Cn2  v112
 BYTE   W12
 BYTE   N03
 BYTE   W12
 BYTE   N03
 BYTE   W12
 BYTE   N03
 BYTE   W12
 BYTE   N22  Bn1  v104
 BYTE   W24
 BYTE   N03  Cn2  v112
 BYTE   W12
 BYTE   N03
 BYTE   W12
// 049   ----------------------------------------
 BYTE   PATT
  POIN2 Label_10_014849A4
// 050   ----------------------------------------
 BYTE   PATT
  POIN2 Label_10_01484A5D
// 051   ----------------------------------------
 BYTE   N22  Bn1  v104
 BYTE   W24
 BYTE   N03  Cn2  v112
 BYTE   W12
 BYTE   N03
 BYTE   W12
 BYTE   N03
 BYTE   W12
 BYTE   N03
 BYTE   W12
 BYTE   N32  Ds2  v104
 BYTE   W24
// 052   ----------------------------------------
 BYTE   W12
 BYTE   Dn2
 BYTE   W36
 BYTE   Cs2
 BYTE   W36
 BYTE   Cn2
 BYTE   W12
// 053   ----------------------------------------
 BYTE   W24
 BYTE   N23  Bn1
 BYTE   W24
 BYTE   As1
 BYTE   W24
 BYTE   An1
 BYTE   W24
// 054   ----------------------------------------
 BYTE   Gs1
 BYTE   W24
 BYTE   N10  Cn3  v120
 BYTE   W12
 BYTE   N04  An2
 BYTE   N10  Cn3  v064
 BYTE   W12
 BYTE   N04  An2
 BYTE   N10  Cn3  v040
 BYTE   W12
 BYTE   En2  v120
 BYTE   N04  An2  v040
 BYTE   W12
 BYTE   Ds2  v120
 BYTE   N10  En2  v064
 BYTE   W12
 BYTE   N04  Ds2
 BYTE   N10  En2  v040
 BYTE   W12
// 055   ----------------------------------------
 BYTE   Cn2  v120
 BYTE   N04  Ds2  v040
 BYTE   W12
 BYTE   An1  v120
 BYTE   N10  Cn2  v064
 BYTE   W12
 BYTE   N04  An1
 BYTE   N10  Cn2  v120
 BYTE   W12
 BYTE   N04  An1
 BYTE   N10  Cn2  v064
 BYTE   W12
 BYTE   N04  An1
 BYTE   N10  Cn2  v040
 BYTE   W12
 BYTE   N04  An1
 BYTE   N10  Cn2  v028
 BYTE   W12
 BYTE   N04  An1
 BYTE   W24
// 056   ----------------------------------------
 BYTE   W24
 BYTE   N11  An1  v104
 BYTE   W12
 BYTE   Cn2
 BYTE   W12
 BYTE   Fn2
 BYTE   W12
 BYTE   Cn2
 BYTE   W12
 BYTE   An1
 BYTE   W12
 BYTE   Cn2
 BYTE   W12
// 057   ----------------------------------------
 BYTE   En2
 BYTE   W12
 BYTE   Cn2
 BYTE   W12
 BYTE   An1
 BYTE   W12
 BYTE   Cn2
 BYTE   W12
 BYTE   Ds2
 BYTE   W12
 BYTE   Cn2
 BYTE   W12
 BYTE   An1
 BYTE   W12
 BYTE   Cn2
 BYTE   W12
// 058   ----------------------------------------
 BYTE   En2
 BYTE   W12
 BYTE   Cn2
 BYTE   W12
 BYTE   N44  Fn2
 BYTE   W48
 BYTE   An2
 BYTE   W24
// 059   ----------------------------------------
 BYTE   W24
 BYTE   N92  Gs2
 BYTE   W72
// 060   ----------------------------------------
 BYTE   W24
 BYTE   N10  Fn2
 BYTE   W12
 BYTE   N01  Gs2
 BYTE   W02
 BYTE   An2
 BYTE   W02
 BYTE   Bn2
 BYTE   W02
 BYTE   Cn3
 BYTE   W02
 BYTE   Dn3
 BYTE   W02
 BYTE   En3
 BYTE   W02
 BYTE   N22  Fn3
 BYTE   W24
 BYTE   N10  En2
 BYTE   W12
 BYTE   N01  Fn2
 BYTE   W02
 BYTE   Gs2
 BYTE   W02
 BYTE   An2
 BYTE   W02
 BYTE   Bn2
 BYTE   W02
 BYTE   Cn3
 BYTE   W02
 BYTE   Dn3
 BYTE   W02
// 061   ----------------------------------------
 BYTE   N22  En3
 BYTE   W24
 BYTE   N10  Ds2
 BYTE   W12
 BYTE   N01  Fn2
 BYTE   W02
 BYTE   Gn2
 BYTE   W02
 BYTE   An2
 BYTE   W02
 BYTE   Bn2
 BYTE   W02
 BYTE   Cn3
 BYTE   W02
 BYTE   Dn3
 BYTE   W02
 BYTE   N22  Ds3
 BYTE   W24
 BYTE   N10  En2
 BYTE   W12
 BYTE   N01  Fn2
 BYTE   W02
 BYTE   Gs2
 BYTE   W02
 BYTE   An2
 BYTE   W02
 BYTE   Bn2
 BYTE   W02
 BYTE   Cn3
 BYTE   W02
 BYTE   Dn3
 BYTE   W02
// 062   ----------------------------------------
 BYTE   N22  En3
 BYTE   W24
 BYTE   N11  Fn3
 BYTE   W12
 BYTE   En3
 BYTE   W12
 BYTE   Dn3
 BYTE   W12
 BYTE   Cn3
 BYTE   W12
 BYTE   Bn2
 BYTE   W12
 BYTE   An2
 BYTE   W12
// 063   ----------------------------------------
 BYTE   Gs2
 BYTE   W12
 BYTE   Fn2
 BYTE   W12
 BYTE   N04  En2
 BYTE   W06
 BYTE   Gs2
 BYTE   W06
 BYTE   En2
 BYTE   W06
 BYTE   Dn2
 BYTE   W06
 BYTE   Bn1
 BYTE   W06
 BYTE   Dn2
 BYTE   W06
 BYTE   Fn2
 BYTE   W06
 BYTE   Bn1
 BYTE   W06
 BYTE   N04
 BYTE   W06
 BYTE   N04
 BYTE   W06
 BYTE   En2
 BYTE   W06
 BYTE   Bn1
 BYTE   W06
// 064   ----------------------------------------
 BYTE   An1
 BYTE   W06
 BYTE   Bn1
 BYTE   W06
 BYTE   N04
 BYTE   W06
 BYTE   N04
 BYTE   W18
 BYTE   GoTo
  POIN2 Label_10_01484812
 BYTE   FINE

//******************************************************//
	ALIGN 4

song0146:
	BYTE	11	// NumTrks
	BYTE	0	// NumBlks
	BYTE	song0146_pri	// Priority
	BYTE	song0146_rev	// Reverb.
    
	POIN2	song0146_grp
    
	POIN2	song0146_001
	POIN2	song0146_002
	POIN2	song0146_003
	POIN2	song0146_004
	POIN2	song0146_005
	POIN2	song0146_006
	POIN2	song0146_007
	POIN2	song0146_008
	POIN2	song0146_009
	POIN2	song0146_010
	POIN2	song0146_011

	
