//Event file generated from Sappy .s format.
	#include "MPlayDef.event"

	#define	Dreaming_grp  voicegroup001
	#define	Dreaming_pri  0
	#define	Dreaming_rev  0
	#define	Dreaming_mvl  127
	#define	Dreaming_key  0
	#define	Dreaming_tbs  1
	#define	Dreaming_exg  0
	#define	Dreaming_cmp  1

	// .rodata
	//	Dreaming
	ALIGN 4

//**************** Track 1 (Midi-Chn.1) ****************//

Dreaming_1:
	BYTE	KEYSH   Dreaming_key+0
Dreaming_1_B1:
// 000   ----------------------------------------
	BYTE	TEMPO   142*Dreaming_tbs/2
	BYTE		VOICE   38
	BYTE		VOL     25*Dreaming_mvl/mxv
	BYTE		PAN     c_v+0
	BYTE		N90     Gn0   v127
	BYTE	W96
// 001   ----------------------------------------
	BYTE		        Fn0 
	BYTE	W96
// 002   ----------------------------------------
	BYTE		        Gn0 
	BYTE	W96
// 003   ----------------------------------------
	BYTE		        Fn0 
	BYTE	W96
// 004   ----------------------------------------
	BYTE		        Gn0 
	BYTE	W96
// 005   ----------------------------------------
	BYTE		        Fn0 
	BYTE	W96
// 006   ----------------------------------------
	BYTE		        Gn0 
	BYTE	W96
// 007   ----------------------------------------
	BYTE		        Fn0 
	BYTE	W96
// 008   ----------------------------------------
	BYTE		        Ds0 
	BYTE	W96
// 009   ----------------------------------------
	BYTE		        Fn0 
	BYTE	W96
// 010   ----------------------------------------
	BYTE		TIE     Gn0 
	BYTE	W96
// 011   ----------------------------------------
	BYTE	W92
	BYTE		EOT   
	BYTE	W04
// 012   ----------------------------------------
	BYTE		N90   
	BYTE	W96
// 013   ----------------------------------------
	BYTE		        Fn0 
	BYTE	W96
// 014   ----------------------------------------
	BYTE		        Ds0 
	BYTE	W96
// 015   ----------------------------------------
	BYTE		        Fn0 
	BYTE	W96
// 016   ----------------------------------------
	BYTE		        Gn0 
	BYTE	W96
// 017   ----------------------------------------
	BYTE		        Fn0 
	BYTE	W96
// 018   ----------------------------------------
	BYTE		        Ds0 
	BYTE	W96
// 019   ----------------------------------------
	BYTE		        Fn0 
	BYTE	W96
// 020   ----------------------------------------
	BYTE		        Gn0 
	BYTE	W96
// 021   ----------------------------------------
	BYTE		N90   
	BYTE	W96
// 022   ----------------------------------------
	BYTE		        Ds0 
	BYTE	W96
// 023   ----------------------------------------
	BYTE		        Fn0 
	BYTE	W96
// 024   ----------------------------------------
	BYTE		        Gn0 
	BYTE	W96
// 025   ----------------------------------------
Dreaming_1_025:
	BYTE		N56     Gn0   v127
	BYTE	W18
	BYTE		BEND    c_v+28
	BYTE	W18
	BYTE		        c_v+48
	BYTE	W18
	BYTE		        c_v+0
	BYTE	W06
	BYTE		N32   
	BYTE	W36
	BYTE	PEND
// 026   ----------------------------------------
	BYTE		N90     Ds0 
	BYTE	W96
// 027   ----------------------------------------
	BYTE		        Fn0 
	BYTE	W96
// 028   ----------------------------------------
	BYTE		        Gn0 
	BYTE	W96
// 029   ----------------------------------------
	BYTE	PATT
	 POIN2	Dreaming_1_025
// 030   ----------------------------------------
	BYTE		N90     Ds0   v127
	BYTE	W96
// 031   ----------------------------------------
	BYTE		        Fn0 
	BYTE	W96
// 032   ----------------------------------------
	BYTE		        Gn0 
	BYTE	W96
// 033   ----------------------------------------
	BYTE	PATT
	 POIN2	Dreaming_1_025
// 034   ----------------------------------------
	BYTE		N90     Ds0   v127
	BYTE	W96
// 035   ----------------------------------------
	BYTE		        Fn0 
	BYTE	W96
// 036   ----------------------------------------
	BYTE		        Gn0 
	BYTE	W96
// 037   ----------------------------------------
	BYTE		N90   
	BYTE	W96
// 038   ----------------------------------------
	BYTE	W08
	BYTE	GoTo
	 POIN2	Dreaming_1_B1
Dreaming_1_B2:
	BYTE	TEMPO   142*Dreaming_tbs/2
	BYTE		VOICE   38
	BYTE		VOL     25*Dreaming_mvl/mxv
	BYTE		PAN     c_v+0
	BYTE	FINE

//**************** Track 2 (Midi-Chn.2) ****************//

Dreaming_2:
	BYTE	KEYSH   Dreaming_key+0
Dreaming_2_B1:
// 000   ----------------------------------------
	BYTE		VOICE   52
	BYTE		VOL     24*Dreaming_mvl/mxv
	BYTE		PAN     c_v-10
	BYTE		MOD     5
	BYTE	W96
// 001   ----------------------------------------
	BYTE	W96
// 002   ----------------------------------------
	BYTE	W96
// 003   ----------------------------------------
	BYTE	W96
// 004   ----------------------------------------
	BYTE	W96
// 005   ----------------------------------------
	BYTE	W96
// 006   ----------------------------------------
	BYTE	W96
// 007   ----------------------------------------
	BYTE	W96
// 008   ----------------------------------------
	BYTE	W96
// 009   ----------------------------------------
	BYTE	W96
// 010   ----------------------------------------
	BYTE	W96
// 011   ----------------------------------------
	BYTE	W96
// 012   ----------------------------------------
	BYTE		BEND    c_v-64
	BYTE		N44     Dn3   v112
	BYTE	W03
	BYTE		BEND    c_v-34
	BYTE	W04
	BYTE		        c_v-11
	BYTE	W04
	BYTE		        c_v-1
	BYTE	W01
	BYTE		        c_v-1
	BYTE	W36
	BYTE		N22     An3 
	BYTE	W24
	BYTE		N44     As3 
	BYTE	W24
// 013   ----------------------------------------
Dreaming_2_013:
	BYTE	W24
	BYTE		N22     An3   v112
	BYTE	W24
	BYTE		        Gn3 
	BYTE	W24
	BYTE		N44     Dn3 
	BYTE	W24
	BYTE	PEND
// 014   ----------------------------------------
	BYTE	W24
	BYTE		BEND    c_v-64
	BYTE		N22   
	BYTE	W02
	BYTE		BEND    c_v-46
	BYTE	W02
	BYTE		        c_v-26
	BYTE	W03
	BYTE		        c_v-11
	BYTE	W02
	BYTE		        c_v-3
	BYTE	W03
	BYTE		        c_v-1
	BYTE	W12
	BYTE		N22     An3 
	BYTE	W24
	BYTE		        As3 
	BYTE	W24
// 015   ----------------------------------------
	BYTE		        Cn4 
	BYTE	W24
	BYTE		        As3 
	BYTE	W24
	BYTE		        An3 
	BYTE	W24
	BYTE		N68     Dn3 
	BYTE	W24
// 016   ----------------------------------------
	BYTE	W48
	BYTE		N22     An3 
	BYTE	W24
	BYTE		BEND    c_v-64
	BYTE		N44     As3 
	BYTE	W02
	BYTE		BEND    c_v-29
	BYTE	W02
	BYTE		        c_v-3
	BYTE	W02
	BYTE		        c_v-1
	BYTE	W18
// 017   ----------------------------------------
	BYTE	PATT
	 POIN2	Dreaming_2_013
// 018   ----------------------------------------
	BYTE	W24
	BYTE		BEND    c_v-64
	BYTE		N22     Dn3   v112
	BYTE	W02
	BYTE		BEND    c_v-24
	BYTE	W02
	BYTE		        c_v-3
	BYTE	W02
	BYTE		        c_v-1
	BYTE	W18
	BYTE		N22     Cn3 
	BYTE	W24
	BYTE		        As2 
	BYTE	W24
// 019   ----------------------------------------
	BYTE		        Cn3 
	BYTE	W24
	BYTE		        As2 
	BYTE	W24
	BYTE		        An2 
	BYTE	W24
	BYTE		        Fn2 
	BYTE	W24
// 020   ----------------------------------------
	BYTE		BEND    c_v-64
	BYTE		TIE     Gn2 
	BYTE	W02
	BYTE		BEND    c_v-44
	BYTE	W02
	BYTE		        c_v-24
	BYTE	W03
	BYTE		        c_v-11
	BYTE	W02
	BYTE		        c_v-3
	BYTE	W03
	BYTE		        c_v-1
	BYTE	W84
// 021   ----------------------------------------
	BYTE	W92
	BYTE	W01
	BYTE		EOT   
	BYTE	W03
// 022   ----------------------------------------
	BYTE	W96
// 023   ----------------------------------------
	BYTE	W96
// 024   ----------------------------------------
	BYTE	W96
// 025   ----------------------------------------
	BYTE	W96
// 026   ----------------------------------------
	BYTE	W96
// 027   ----------------------------------------
	BYTE	W96
// 028   ----------------------------------------
	BYTE	W96
// 029   ----------------------------------------
	BYTE	W96
// 030   ----------------------------------------
	BYTE	W96
// 031   ----------------------------------------
	BYTE	W96
// 032   ----------------------------------------
	BYTE	W96
// 033   ----------------------------------------
	BYTE	W96
// 034   ----------------------------------------
	BYTE	W96
// 035   ----------------------------------------
	BYTE	W96
// 036   ----------------------------------------
	BYTE	W96
// 037   ----------------------------------------
	BYTE	W96
// 038   ----------------------------------------
	BYTE	W08
	BYTE	GoTo
	 POIN2	Dreaming_2_B1
Dreaming_2_B2:
	BYTE		VOICE   52
	BYTE		VOL     24*Dreaming_mvl/mxv
	BYTE		PAN     c_v-10
	BYTE		MOD     5
	BYTE	FINE

//**************** Track 3 (Midi-Chn.3) ****************//

Dreaming_3:
	BYTE	KEYSH   Dreaming_key+0
Dreaming_3_B1:
// 000   ----------------------------------------
	BYTE		VOICE   100
	BYTE		VOL     25*Dreaming_mvl/mxv
	BYTE		PAN     c_v+20
	BYTE		N90     Dn3   v080
	BYTE		N90     An3 
	BYTE	W96
// 001   ----------------------------------------
Dreaming_3_001:
	BYTE		N44     Dn3   v080
	BYTE		N44     An3 
	BYTE	W48
	BYTE		N22     Cn3 
	BYTE		N22     Gn3 
	BYTE	W24
	BYTE		N17     Ds3 
	BYTE		N17     As3 
	BYTE	W18
	BYTE		TIE     Dn3 
	BYTE		TIE     An3 
	BYTE	W06
	BYTE	PEND
// 002   ----------------------------------------
	BYTE	W92
	BYTE	W01
	BYTE		EOT     Dn3 
	BYTE		        An3 
	BYTE	W03
// 003   ----------------------------------------
	BYTE		N44     Dn3 
	BYTE		N44     An3 
	BYTE	W48
	BYTE		N22     Ds3 
	BYTE		N22     As3 
	BYTE	W24
	BYTE		N17     Fn3 
	BYTE		N17     Cn4 
	BYTE	W18
	BYTE		TIE     Dn3 
	BYTE		TIE     An3 
	BYTE	W06
// 004   ----------------------------------------
	BYTE	W92
	BYTE	W01
	BYTE		EOT     Dn3 
	BYTE		        An3 
	BYTE	W03
// 005   ----------------------------------------
	BYTE	PATT
	 POIN2	Dreaming_3_001
// 006   ----------------------------------------
	BYTE	W92
	BYTE	W01
	BYTE		EOT     Dn3 
	BYTE		        An3 
	BYTE	W03
// 007   ----------------------------------------
	BYTE		N44     Dn3   v080
	BYTE		N44     An3 
	BYTE	W48
	BYTE		N22     Ds3 
	BYTE		N22     As3 
	BYTE	W24
	BYTE		N17     Fn3 
	BYTE		N17     Cn4 
	BYTE	W18
	BYTE		N52     Gn3 
	BYTE		N52     Dn4 
	BYTE	W06
// 008   ----------------------------------------
	BYTE	W48
	BYTE		N21     As2 
	BYTE		N11     Gn3 
	BYTE	W12
	BYTE		        As3 
	BYTE	W12
	BYTE		        Gn3 
	BYTE		N11     Dn4 
	BYTE	W12
	BYTE		N56     Fn3 
	BYTE		N56     Cn4 
	BYTE	W12
// 009   ----------------------------------------
	BYTE	W48
	BYTE		N22     Cn3 
	BYTE		N22     An3 
	BYTE	W24
	BYTE		N17     Fn3 
	BYTE		N17     Cn4 
	BYTE	W18
	BYTE		TIE     Gn3 
	BYTE		TIE     As3 
	BYTE	W06
// 010   ----------------------------------------
	BYTE	W96
// 011   ----------------------------------------
	BYTE	W92
	BYTE	W01
	BYTE		EOT     Gn3 
	BYTE		        As3 
	BYTE	W03
// 012   ----------------------------------------
	BYTE	W96
// 013   ----------------------------------------
	BYTE	W96
// 014   ----------------------------------------
	BYTE	W96
// 015   ----------------------------------------
	BYTE	W96
// 016   ----------------------------------------
	BYTE	W96
// 017   ----------------------------------------
	BYTE	W96
// 018   ----------------------------------------
	BYTE	W96
// 019   ----------------------------------------
	BYTE	W96
// 020   ----------------------------------------
	BYTE	W96
// 021   ----------------------------------------
	BYTE	W96
// 022   ----------------------------------------
	BYTE		N44     Ds3   v104
	BYTE	W48
	BYTE		N11   
	BYTE	W12
	BYTE		        Fn3 
	BYTE	W12
	BYTE		        Gn3 
	BYTE	W12
	BYTE		N56     An3 
	BYTE	W12
// 023   ----------------------------------------
	BYTE	W48
	BYTE		N11   
	BYTE	W12
	BYTE		        As3 
	BYTE	W12
	BYTE		        Cn4 
	BYTE	W12
	BYTE		TIE     Dn4 
	BYTE	W12
// 024   ----------------------------------------
	BYTE	W92
	BYTE	W01
	BYTE		EOT   
	BYTE	W03
// 025   ----------------------------------------
	BYTE		N11   
	BYTE	W12
	BYTE		        Cn4 
	BYTE	W12
	BYTE		        Fn4 
	BYTE	W12
	BYTE		N56     Dn4 
	BYTE	W60
// 026   ----------------------------------------
	BYTE		N68     Ds3 
	BYTE	W72
	BYTE		N11   
	BYTE	W12
	BYTE		N56     Fn3 
	BYTE	W12
// 027   ----------------------------------------
	BYTE	W48
	BYTE		N44     An3 
	BYTE	W48
// 028   ----------------------------------------
	BYTE		TIE     As3 
	BYTE	W96
// 029   ----------------------------------------
	BYTE	W92
	BYTE		EOT   
	BYTE	W04
// 030   ----------------------------------------
	BYTE		N44     Ds3   v092
	BYTE		N44     Gn3 
	BYTE	W48
	BYTE		N11     Ds3 
	BYTE		N11     Gn3 
	BYTE	W12
	BYTE		        Fn3 
	BYTE		N11     An3 
	BYTE	W12
	BYTE		        Gn3 
	BYTE		N11     As3 
	BYTE	W12
	BYTE		N56     An3 
	BYTE		N56     Cn4 
	BYTE	W12
// 031   ----------------------------------------
	BYTE	W48
	BYTE		N11     An3 
	BYTE		N11     Dn4 
	BYTE	W12
	BYTE		        As3 
	BYTE		N11     Ds4 
	BYTE	W12
	BYTE		        Cn4 
	BYTE		N11     Fn4 
	BYTE	W12
	BYTE		TIE     Dn4 
	BYTE		TIE     Gn4 
	BYTE	W12
// 032   ----------------------------------------
	BYTE	W92
	BYTE	W01
	BYTE		EOT     Dn4 
	BYTE		        Gn4 
	BYTE	W03
// 033   ----------------------------------------
	BYTE		N11     Dn4 
	BYTE		N11     Gn4 
	BYTE	W12
	BYTE		        Cn4 
	BYTE		N11     Fn4 
	BYTE	W12
	BYTE		N11   
	BYTE		N11     As4 
	BYTE	W12
	BYTE		N56     Dn4 
	BYTE		N56     Gn4 
	BYTE	W60
// 034   ----------------------------------------
	BYTE		N68     Ds3 
	BYTE		N68     Gn3 
	BYTE	W72
	BYTE		N11     Ds3 
	BYTE		N11     Gn3 
	BYTE	W12
	BYTE		N56     Fn3 
	BYTE		N56     An3 
	BYTE	W12
// 035   ----------------------------------------
	BYTE	W48
	BYTE		N44   
	BYTE		N44     Cn4 
	BYTE	W48
// 036   ----------------------------------------
	BYTE		TIE     Gn3 
	BYTE		TIE     As3 
	BYTE	W96
// 037   ----------------------------------------
	BYTE	W92
	BYTE		EOT     Gn3 
	BYTE		        As3 
	BYTE	W04
// 038   ----------------------------------------
	BYTE	W08
	BYTE	GoTo
	 POIN2	Dreaming_3_B1
Dreaming_3_B2:
	BYTE		VOICE   100
	BYTE		VOL     25*Dreaming_mvl/mxv
	BYTE		PAN     c_v+20
	BYTE	FINE

//**************** Track 4 (Midi-Chn.4) ****************//

Dreaming_4:
	BYTE	KEYSH   Dreaming_key+0
Dreaming_4_B1:
// 000   ----------------------------------------
	BYTE		VOICE   2
	BYTE		VOL     17*Dreaming_mvl/mxv
	BYTE		PAN     c_v-10
	BYTE	W96
// 001   ----------------------------------------
	BYTE	W96
// 002   ----------------------------------------
	BYTE	W96
// 003   ----------------------------------------
	BYTE	W96
// 004   ----------------------------------------
	BYTE	W96
// 005   ----------------------------------------
	BYTE	W96
// 006   ----------------------------------------
	BYTE	W96
// 007   ----------------------------------------
	BYTE	W96
// 008   ----------------------------------------
	BYTE	W96
// 009   ----------------------------------------
	BYTE	W96
// 010   ----------------------------------------
	BYTE	W96
// 011   ----------------------------------------
	BYTE	W96
// 012   ----------------------------------------
Dreaming_4_012:
	BYTE		N12     Gn1   v104
	BYTE		N18     As2 
	BYTE		N18     Dn3 
	BYTE		N18     Fn3 
	BYTE	W12
	BYTE		N12     Gn1 
	BYTE	W06
	BYTE		N06     As2 
	BYTE		N06     Dn3 
	BYTE		N06     Fn3 
	BYTE	W06
	BYTE		N36     Gn1 
	BYTE	W06
	BYTE		N18     As2 
	BYTE		N18     Dn3 
	BYTE		N18     Fn3 
	BYTE	W18
	BYTE		N06     Gn2 
	BYTE		N06     As2 
	BYTE		N06     Ds3 
	BYTE	W12
	BYTE		N12     Gn1 
	BYTE	W06
	BYTE		N18     Gn2 
	BYTE		N18     As2 
	BYTE		N18     Ds3 
	BYTE	W12
	BYTE		N12     Gn1 
	BYTE	W06
	BYTE		        Gn2 
	BYTE		N12     As2 
	BYTE		N12     Ds3 
	BYTE	W12
	BYTE	PEND
// 013   ----------------------------------------
Dreaming_4_013:
	BYTE		N12     Fn1   v104
	BYTE		N18     Fn2 
	BYTE		N18     An2 
	BYTE		N18     Dn3 
	BYTE	W12
	BYTE		N12     Fn1 
	BYTE	W06
	BYTE		N06     Fn2 
	BYTE		N06     An2 
	BYTE		N06     Dn3 
	BYTE	W06
	BYTE		N36     Fn1 
	BYTE	W06
	BYTE		N18     Fn2 
	BYTE		N18     An2 
	BYTE		N18     Dn3 
	BYTE	W18
	BYTE		N06     Fn2 
	BYTE		N06     An2 
	BYTE		N06     Ds3 
	BYTE	W12
	BYTE		N12     Fn1 
	BYTE	W06
	BYTE		N18     Fn2 
	BYTE		N18     An2 
	BYTE		N18     Ds3 
	BYTE	W12
	BYTE		N12     Fn1 
	BYTE	W06
	BYTE		        Fn2 
	BYTE		N12     An2 
	BYTE		N12     Ds3 
	BYTE	W12
	BYTE	PEND
// 014   ----------------------------------------
Dreaming_4_014:
	BYTE		N12     Ds1   v104
	BYTE		N18     As2 
	BYTE		N18     Ds3 
	BYTE		N18     Fn3 
	BYTE	W12
	BYTE		N12     Ds1 
	BYTE	W06
	BYTE		N06     As2 
	BYTE		N06     Ds3 
	BYTE		N06     Fn3 
	BYTE	W06
	BYTE		N36     Ds1 
	BYTE	W06
	BYTE		N18     As2 
	BYTE		N18     Ds3 
	BYTE		N18     Fn3 
	BYTE	W18
	BYTE		N06     Gn2 
	BYTE		N06     As2 
	BYTE		N06     Ds3 
	BYTE	W12
	BYTE		N12     Ds1 
	BYTE	W06
	BYTE		N18     Gn2 
	BYTE		N18     As2 
	BYTE		N18     Ds3 
	BYTE	W12
	BYTE		N12     Ds1 
	BYTE	W06
	BYTE		        Gn2 
	BYTE		N12     As2 
	BYTE		N12     Ds3 
	BYTE	W12
	BYTE	PEND
// 015   ----------------------------------------
Dreaming_4_015:
	BYTE		N12     Fn1   v104
	BYTE		N18     Fn2 
	BYTE		N18     An2 
	BYTE		N18     Dn3 
	BYTE	W12
	BYTE		N12     Fn1 
	BYTE	W06
	BYTE		N06     Fn2 
	BYTE		N06     An2 
	BYTE		N06     Dn3 
	BYTE	W06
	BYTE		N36     Fn1 
	BYTE	W06
	BYTE		N18     Fn2 
	BYTE		N18     An2 
	BYTE		N18     Dn3 
	BYTE	W18
	BYTE		N06     Fn2 
	BYTE		N06     An2 
	BYTE		N06     Dn3 
	BYTE	W12
	BYTE		N12     Fn1 
	BYTE	W06
	BYTE		N18     Fn2 
	BYTE		N18     An2 
	BYTE		N18     Dn3 
	BYTE	W12
	BYTE		N12     Fn1 
	BYTE	W06
	BYTE		        Fn2 
	BYTE		N12     An2 
	BYTE		N12     Dn3 
	BYTE	W12
	BYTE	PEND
// 016   ----------------------------------------
	BYTE	PATT
	 POIN2	Dreaming_4_012
// 017   ----------------------------------------
	BYTE	PATT
	 POIN2	Dreaming_4_013
// 018   ----------------------------------------
	BYTE	PATT
	 POIN2	Dreaming_4_014
// 019   ----------------------------------------
	BYTE	PATT
	 POIN2	Dreaming_4_015
// 020   ----------------------------------------
	BYTE	PATT
	 POIN2	Dreaming_4_012
// 021   ----------------------------------------
Dreaming_4_021:
	BYTE		N12     Gn1   v104
	BYTE		N18     Gn2 
	BYTE		N18     As2 
	BYTE		N18     Dn3 
	BYTE	W12
	BYTE		N12     Gn1 
	BYTE	W06
	BYTE		N06     Gn2 
	BYTE		N06     As2 
	BYTE		N06     Dn3 
	BYTE	W06
	BYTE		N36     Gn1 
	BYTE	W06
	BYTE		N18     Gn2 
	BYTE		N18     As2 
	BYTE		N18     Dn3 
	BYTE	W18
	BYTE		N06     Gn2 
	BYTE		N06     As2 
	BYTE		N06     Ds3 
	BYTE	W12
	BYTE		N12     Gn1 
	BYTE	W06
	BYTE		N18     Gn2 
	BYTE		N18     As2 
	BYTE		N18     Ds3 
	BYTE	W12
	BYTE		N12     Gn1 
	BYTE	W06
	BYTE		        Gn2 
	BYTE		N12     As2 
	BYTE		N12     Ds3 
	BYTE	W12
	BYTE	PEND
// 022   ----------------------------------------
	BYTE	PATT
	 POIN2	Dreaming_4_014
// 023   ----------------------------------------
	BYTE	PATT
	 POIN2	Dreaming_4_015
// 024   ----------------------------------------
	BYTE	PATT
	 POIN2	Dreaming_4_012
// 025   ----------------------------------------
	BYTE	PATT
	 POIN2	Dreaming_4_021
// 026   ----------------------------------------
	BYTE	PATT
	 POIN2	Dreaming_4_014
// 027   ----------------------------------------
	BYTE	PATT
	 POIN2	Dreaming_4_015
// 028   ----------------------------------------
	BYTE	PATT
	 POIN2	Dreaming_4_012
// 029   ----------------------------------------
	BYTE	PATT
	 POIN2	Dreaming_4_021
// 030   ----------------------------------------
	BYTE	PATT
	 POIN2	Dreaming_4_014
// 031   ----------------------------------------
	BYTE	PATT
	 POIN2	Dreaming_4_015
// 032   ----------------------------------------
	BYTE	PATT
	 POIN2	Dreaming_4_012
// 033   ----------------------------------------
	BYTE	PATT
	 POIN2	Dreaming_4_021
// 034   ----------------------------------------
	BYTE	PATT
	 POIN2	Dreaming_4_014
// 035   ----------------------------------------
	BYTE	PATT
	 POIN2	Dreaming_4_015
// 036   ----------------------------------------
	BYTE	PATT
	 POIN2	Dreaming_4_012
// 037   ----------------------------------------
	BYTE	PATT
	 POIN2	Dreaming_4_021
// 038   ----------------------------------------
	BYTE	W08
	BYTE	GoTo
	 POIN2	Dreaming_4_B1
Dreaming_4_B2:
	BYTE		VOICE   2
	BYTE		VOL     17*Dreaming_mvl/mxv
	BYTE		PAN     c_v-10
	BYTE	FINE

//**************** Track 5 (Midi-Chn.5) ****************//

Dreaming_5:
	BYTE	KEYSH   Dreaming_key+0
Dreaming_5_B1:
// 000   ----------------------------------------
	BYTE		VOICE   61
	BYTE		VOL     19*Dreaming_mvl/mxv
	BYTE		PAN     c_v-30
	BYTE	W96
// 001   ----------------------------------------
	BYTE	W96
// 002   ----------------------------------------
	BYTE	W96
// 003   ----------------------------------------
	BYTE	W96
// 004   ----------------------------------------
	BYTE	W96
// 005   ----------------------------------------
	BYTE	W96
// 006   ----------------------------------------
	BYTE	W96
// 007   ----------------------------------------
	BYTE	W96
// 008   ----------------------------------------
	BYTE	W96
// 009   ----------------------------------------
	BYTE	W96
// 010   ----------------------------------------
	BYTE	W96
// 011   ----------------------------------------
	BYTE	W12
	BYTE		N04     Dn4   v100
	BYTE		N04     Gn4 
	BYTE	W18
	BYTE		        Dn4 
	BYTE		N04     Gn4 
	BYTE	W18
	BYTE		        Dn4 
	BYTE		N04     Gn4 
	BYTE	W18
	BYTE		N16     Dn4 
	BYTE		N16     Fn4 
	BYTE	W18
	BYTE		N04     Dn4 
	BYTE		N04     Gn4 
	BYTE	W12
// 012   ----------------------------------------
	BYTE	W96
// 013   ----------------------------------------
Dreaming_5_013:
	BYTE	W12
	BYTE		N04     Dn4   v100
	BYTE		N04     Gn4 
	BYTE	W06
	BYTE		        Dn4 
	BYTE		N04     Gn4 
	BYTE	W06
	BYTE		        Dn4 
	BYTE		N04     Fn4 
	BYTE	W06
	BYTE		        Dn4 
	BYTE		N04     Gn4 
	BYTE	W12
	BYTE		        Dn4 
	BYTE		N04     Gn4 
	BYTE	W54
	BYTE	PEND
// 014   ----------------------------------------
	BYTE	W96
// 015   ----------------------------------------
Dreaming_5_015:
	BYTE	W12
	BYTE		N04     Dn4   v100
	BYTE		N04     Gn4 
	BYTE	W06
	BYTE		        Dn4 
	BYTE		N04     Gn4 
	BYTE	W06
	BYTE		        Dn4 
	BYTE		N04     Fn4 
	BYTE	W06
	BYTE		        Dn4 
	BYTE		N04     Gn4 
	BYTE	W12
	BYTE		        Dn4 
	BYTE		N04     Gn4 
	BYTE	W12
	BYTE		        Dn4 
	BYTE		N04     Gn4 
	BYTE	W12
	BYTE		        Dn4 
	BYTE		N04     Gn4 
	BYTE	W06
	BYTE		        Dn4 
	BYTE		N04     Fn4 
	BYTE	W12
	BYTE		N10     Dn4 
	BYTE		N10     Gn4 
	BYTE	W12
	BYTE	PEND
// 016   ----------------------------------------
	BYTE	W96
// 017   ----------------------------------------
	BYTE	PATT
	 POIN2	Dreaming_5_013
// 018   ----------------------------------------
	BYTE	W96
// 019   ----------------------------------------
	BYTE	PATT
	 POIN2	Dreaming_5_015
// 020   ----------------------------------------
	BYTE	W96
// 021   ----------------------------------------
	BYTE	W96
// 022   ----------------------------------------
	BYTE	W96
// 023   ----------------------------------------
	BYTE	W96
// 024   ----------------------------------------
Dreaming_5_024:
	BYTE	W12
	BYTE		N04     Dn4   v100
	BYTE		N04     Gn4 
	BYTE	W06
	BYTE		        Dn4 
	BYTE		N04     Gn4 
	BYTE	W06
	BYTE		        Dn4 
	BYTE		N04     Fn4 
	BYTE	W06
	BYTE		        Dn4 
	BYTE		N04     Gn4 
	BYTE	W18
	BYTE		        Dn4 
	BYTE		N04     Gn4 
	BYTE	W18
	BYTE		N16     Dn4 
	BYTE		N16     Fn4 
	BYTE	W18
	BYTE		N10     Dn4 
	BYTE		N10     Gn4 
	BYTE	W12
	BYTE	PEND
// 025   ----------------------------------------
	BYTE	PATT
	 POIN2	Dreaming_5_024
// 026   ----------------------------------------
	BYTE	W96
// 027   ----------------------------------------
	BYTE	W96
// 028   ----------------------------------------
	BYTE	PATT
	 POIN2	Dreaming_5_024
// 029   ----------------------------------------
	BYTE	PATT
	 POIN2	Dreaming_5_024
// 030   ----------------------------------------
	BYTE	W96
// 031   ----------------------------------------
	BYTE	W96
// 032   ----------------------------------------
	BYTE	PATT
	 POIN2	Dreaming_5_024
// 033   ----------------------------------------
	BYTE	PATT
	 POIN2	Dreaming_5_024
// 034   ----------------------------------------
	BYTE	W96
// 035   ----------------------------------------
	BYTE	W96
// 036   ----------------------------------------
	BYTE	PATT
	 POIN2	Dreaming_5_024
// 037   ----------------------------------------
	BYTE	PATT
	 POIN2	Dreaming_5_024
// 038   ----------------------------------------
	BYTE	W08
	BYTE	GoTo
	 POIN2	Dreaming_5_B1
Dreaming_5_B2:
	BYTE		VOICE   61
	BYTE		VOL     19*Dreaming_mvl/mxv
	BYTE		PAN     c_v-30
	BYTE	FINE

//**************** Track 6 (Midi-Chn.6) ****************//

Dreaming_6:
	BYTE	KEYSH   Dreaming_key+0
Dreaming_6_B1:
// 000   ----------------------------------------
	BYTE		VOICE   48
	BYTE		VOL     18*Dreaming_mvl/mxv
	BYTE		PAN     c_v-20
	BYTE		N90     Dn4   v076
	BYTE		N90     An4 
	BYTE	W96
// 001   ----------------------------------------
Dreaming_6_001:
	BYTE		N44     Dn4   v076
	BYTE		N44     An4 
	BYTE	W48
	BYTE		N22     Cn4 
	BYTE		N22     Gn4 
	BYTE	W24
	BYTE		N17     Ds4 
	BYTE		N17     As4 
	BYTE	W18
	BYTE		TIE     Dn4 
	BYTE		TIE     An4 
	BYTE	W06
	BYTE	PEND
// 002   ----------------------------------------
	BYTE	W92
	BYTE	W01
	BYTE		EOT     Dn4 
	BYTE		        An4 
	BYTE	W03
// 003   ----------------------------------------
	BYTE		N44     Dn4 
	BYTE		N44     An4 
	BYTE	W48
	BYTE		N22     Ds4 
	BYTE		N22     As4 
	BYTE	W24
	BYTE		N17     Fn4 
	BYTE		N17     Cn5 
	BYTE	W18
	BYTE		TIE     Dn4 
	BYTE		TIE     An4 
	BYTE	W06
// 004   ----------------------------------------
	BYTE	W92
	BYTE	W01
	BYTE		EOT     Dn4 
	BYTE		        An4 
	BYTE	W03
// 005   ----------------------------------------
	BYTE	PATT
	 POIN2	Dreaming_6_001
// 006   ----------------------------------------
	BYTE	W92
	BYTE	W01
	BYTE		EOT     Dn4 
	BYTE		        An4 
	BYTE	W03
// 007   ----------------------------------------
	BYTE		N44     Dn4   v076
	BYTE		N44     An4 
	BYTE	W48
	BYTE		N22     Ds4 
	BYTE		N22     As4 
	BYTE	W24
	BYTE		N17     Fn4 
	BYTE		N17     Cn5 
	BYTE	W18
	BYTE		N52     Gn4 
	BYTE		N52     Dn5 
	BYTE	W06
// 008   ----------------------------------------
	BYTE	W48
	BYTE		N21     As3 
	BYTE		N11     Gn4 
	BYTE	W12
	BYTE		        As4 
	BYTE	W12
	BYTE		        Gn4 
	BYTE		N11     Dn5 
	BYTE	W12
	BYTE		N56     Fn4 
	BYTE		N56     Cn5 
	BYTE	W12
// 009   ----------------------------------------
	BYTE	W48
	BYTE		N22     Cn4 
	BYTE		N22     An4 
	BYTE	W24
	BYTE		N17     Fn4 
	BYTE		N17     Cn5 
	BYTE	W18
	BYTE		TIE     Gn4 
	BYTE		TIE     As4 
	BYTE	W06
// 010   ----------------------------------------
	BYTE	W96
// 011   ----------------------------------------
	BYTE	W92
	BYTE	W01
	BYTE		EOT     Gn4 
	BYTE		        As4 
	BYTE	W03
// 012   ----------------------------------------
	BYTE	W96
// 013   ----------------------------------------
	BYTE	W96
// 014   ----------------------------------------
	BYTE	W96
// 015   ----------------------------------------
	BYTE	W96
// 016   ----------------------------------------
	BYTE	W96
// 017   ----------------------------------------
	BYTE	W96
// 018   ----------------------------------------
	BYTE	W96
// 019   ----------------------------------------
	BYTE	W96
// 020   ----------------------------------------
	BYTE	W96
// 021   ----------------------------------------
	BYTE	W96
// 022   ----------------------------------------
Dreaming_6_022:
	BYTE		N44     Ds4   v084
	BYTE	W48
	BYTE		N11   
	BYTE	W12
	BYTE		        Fn4 
	BYTE	W12
	BYTE		        Gn4 
	BYTE	W12
	BYTE		N56     An4 
	BYTE	W12
	BYTE	PEND
// 023   ----------------------------------------
Dreaming_6_023:
	BYTE	W48
	BYTE		N11     An4   v084
	BYTE	W12
	BYTE		        As4 
	BYTE	W12
	BYTE		        Cn5 
	BYTE	W12
	BYTE		TIE     Dn5 
	BYTE	W12
	BYTE	PEND
// 024   ----------------------------------------
	BYTE	W92
	BYTE	W01
	BYTE		EOT   
	BYTE	W03
// 025   ----------------------------------------
Dreaming_6_025:
	BYTE		N11     Dn5   v084
	BYTE	W12
	BYTE		        Cn5 
	BYTE	W12
	BYTE		        Fn5 
	BYTE	W12
	BYTE		N56     Dn5 
	BYTE	W60
	BYTE	PEND
// 026   ----------------------------------------
Dreaming_6_026:
	BYTE		N68     Ds4   v084
	BYTE	W72
	BYTE		N11   
	BYTE	W12
	BYTE		N56     Fn4 
	BYTE	W12
	BYTE	PEND
// 027   ----------------------------------------
	BYTE	W48
	BYTE		N44     An4 
	BYTE	W48
// 028   ----------------------------------------
	BYTE		TIE     As4 
	BYTE	W96
// 029   ----------------------------------------
	BYTE	W92
	BYTE		EOT   
	BYTE	W04
// 030   ----------------------------------------
	BYTE	PATT
	 POIN2	Dreaming_6_022
// 031   ----------------------------------------
	BYTE	PATT
	 POIN2	Dreaming_6_023
// 032   ----------------------------------------
	BYTE	W92
	BYTE	W01
	BYTE		EOT     Dn5 
	BYTE	W03
// 033   ----------------------------------------
	BYTE	PATT
	 POIN2	Dreaming_6_025
// 034   ----------------------------------------
	BYTE	PATT
	 POIN2	Dreaming_6_026
// 035   ----------------------------------------
	BYTE	W48
	BYTE		N44     An4   v084
	BYTE	W48
// 036   ----------------------------------------
	BYTE		TIE     Gn4 
	BYTE	W96
// 037   ----------------------------------------
	BYTE	W92
	BYTE		EOT   
	BYTE	W04
// 038   ----------------------------------------
	BYTE	W08
	BYTE	GoTo
	 POIN2	Dreaming_6_B1
Dreaming_6_B2:
	BYTE		VOICE   48
	BYTE		VOL     18*Dreaming_mvl/mxv
	BYTE		PAN     c_v-20
	BYTE	FINE

//**************** Track 7 (Midi-Chn.7) ****************//

Dreaming_7:
	BYTE	KEYSH   Dreaming_key+0
Dreaming_7_B1:
// 000   ----------------------------------------
	BYTE		VOICE   102
	BYTE		VOL     15*Dreaming_mvl/mxv
	BYTE		PAN     c_v+63
	BYTE		MOD     0
	BYTE	W96
// 001   ----------------------------------------
	BYTE	W96
// 002   ----------------------------------------
	BYTE	W96
// 003   ----------------------------------------
	BYTE	W96
// 004   ----------------------------------------
	BYTE	W96
// 005   ----------------------------------------
	BYTE	W96
// 006   ----------------------------------------
	BYTE	W96
// 007   ----------------------------------------
	BYTE	W96
// 008   ----------------------------------------
	BYTE	W96
// 009   ----------------------------------------
	BYTE	W96
// 010   ----------------------------------------
	BYTE	W96
// 011   ----------------------------------------
	BYTE	W96
// 012   ----------------------------------------
	BYTE	W12
	BYTE		BEND    c_v-64
	BYTE		N44     Dn3   v112
	BYTE	W03
	BYTE		BEND    c_v-34
	BYTE	W04
	BYTE		        c_v-11
	BYTE	W04
	BYTE		        c_v-1
	BYTE	W01
	BYTE		        c_v-1
	BYTE	W36
	BYTE		N22     An3 
	BYTE	W24
	BYTE		N44     As3 
	BYTE	W12
// 013   ----------------------------------------
Dreaming_7_013:
	BYTE	W36
	BYTE		N22     An3   v112
	BYTE	W24
	BYTE		        Gn3 
	BYTE	W24
	BYTE		N44     Dn3 
	BYTE	W12
	BYTE	PEND
// 014   ----------------------------------------
	BYTE	W36
	BYTE		BEND    c_v-64
	BYTE		N22   
	BYTE	W02
	BYTE		BEND    c_v-46
	BYTE	W02
	BYTE		        c_v-26
	BYTE	W03
	BYTE		        c_v-11
	BYTE	W02
	BYTE		        c_v-3
	BYTE	W03
	BYTE		        c_v-1
	BYTE	W12
	BYTE		N22     An3 
	BYTE	W24
	BYTE		        As3 
	BYTE	W12
// 015   ----------------------------------------
	BYTE	W12
	BYTE		        Cn4 
	BYTE	W24
	BYTE		        As3 
	BYTE	W24
	BYTE		        An3 
	BYTE	W24
	BYTE		N68     Dn3 
	BYTE	W12
// 016   ----------------------------------------
	BYTE	W60
	BYTE		N22     An3 
	BYTE	W24
	BYTE		BEND    c_v-64
	BYTE		N44     As3 
	BYTE	W02
	BYTE		BEND    c_v-29
	BYTE	W02
	BYTE		        c_v-3
	BYTE	W02
	BYTE		        c_v-1
	BYTE	W06
// 017   ----------------------------------------
	BYTE	PATT
	 POIN2	Dreaming_7_013
// 018   ----------------------------------------
	BYTE	W36
	BYTE		BEND    c_v-64
	BYTE		N22     Dn3   v112
	BYTE	W02
	BYTE		BEND    c_v-24
	BYTE	W02
	BYTE		        c_v-3
	BYTE	W02
	BYTE		        c_v-1
	BYTE	W18
	BYTE		N22     Cn3 
	BYTE	W24
	BYTE		        As2 
	BYTE	W12
// 019   ----------------------------------------
	BYTE	W12
	BYTE		        Cn3 
	BYTE	W24
	BYTE		        As2 
	BYTE	W24
	BYTE		        An2 
	BYTE	W24
	BYTE		        Fn2 
	BYTE	W12
// 020   ----------------------------------------
	BYTE	W12
	BYTE		BEND    c_v-64
	BYTE		TIE     Gn2 
	BYTE	W02
	BYTE		BEND    c_v-44
	BYTE	W02
	BYTE		        c_v-24
	BYTE	W03
	BYTE		        c_v-11
	BYTE	W02
	BYTE		        c_v-3
	BYTE	W03
	BYTE		        c_v-1
	BYTE	W72
// 021   ----------------------------------------
	BYTE	W96
// 022   ----------------------------------------
	BYTE	W09
	BYTE		EOT   
	BYTE	W84
	BYTE	W03
// 023   ----------------------------------------
	BYTE	W96
// 024   ----------------------------------------
	BYTE	W96
// 025   ----------------------------------------
	BYTE	W96
// 026   ----------------------------------------
	BYTE	W96
// 027   ----------------------------------------
	BYTE	W96
// 028   ----------------------------------------
	BYTE	W96
// 029   ----------------------------------------
	BYTE	W96
// 030   ----------------------------------------
	BYTE	W96
// 031   ----------------------------------------
	BYTE	W96
// 032   ----------------------------------------
	BYTE	W96
// 033   ----------------------------------------
	BYTE	W96
// 034   ----------------------------------------
	BYTE	W96
// 035   ----------------------------------------
	BYTE	W96
// 036   ----------------------------------------
	BYTE	W96
// 037   ----------------------------------------
	BYTE	W96
// 038   ----------------------------------------
	BYTE	W08
	BYTE	GoTo
	 POIN2	Dreaming_7_B1
Dreaming_7_B2:
	BYTE		VOICE   102
	BYTE		VOL     15*Dreaming_mvl/mxv
	BYTE		PAN     c_v+63
	BYTE		MOD     0
	BYTE	FINE

//**************** Track 8 (Midi-Chn.8) ****************//

Dreaming_8:
	BYTE	KEYSH   Dreaming_key+0
Dreaming_8_B1:
// 000   ----------------------------------------
	BYTE	W09
	BYTE		VOICE   100
	BYTE		VOL     15*Dreaming_mvl/mxv
	BYTE		PAN     c_v-64
	BYTE		BEND    c_v-1
	BYTE	W03
	BYTE		N90     Dn3   v080
	BYTE		N90     An3 
	BYTE	W84
// 001   ----------------------------------------
	BYTE	W12
	BYTE		N44     Dn3 
	BYTE		N44     An3 
	BYTE	W48
	BYTE		N22     Cn3 
	BYTE		N22     Gn3 
	BYTE	W24
	BYTE		N17     Ds3 
	BYTE		N17     As3 
	BYTE	W12
// 002   ----------------------------------------
Dreaming_8_002:
	BYTE	W06
	BYTE		TIE     Dn3   v080
	BYTE		TIE     An3 
	BYTE	W90
	BYTE	PEND
// 003   ----------------------------------------
	BYTE	W09
	BYTE		EOT     Dn3 
	BYTE		        An3 
	BYTE	W03
	BYTE		N44     Dn3 
	BYTE		N44     An3 
	BYTE	W48
	BYTE		N22     Ds3 
	BYTE		N22     As3 
	BYTE	W24
	BYTE		N17     Fn3 
	BYTE		N17     Cn4 
	BYTE	W12
// 004   ----------------------------------------
	BYTE	PATT
	 POIN2	Dreaming_8_002
// 005   ----------------------------------------
	BYTE	W09
	BYTE		EOT     Dn3 
	BYTE		        An3 
	BYTE	W03
	BYTE		N44     Dn3   v080
	BYTE		N44     An3 
	BYTE	W48
	BYTE		N22     Cn3 
	BYTE		N22     Gn3 
	BYTE	W24
	BYTE		N17     Ds3 
	BYTE		N17     As3 
	BYTE	W12
// 006   ----------------------------------------
	BYTE	PATT
	 POIN2	Dreaming_8_002
// 007   ----------------------------------------
	BYTE	W09
	BYTE		EOT     Dn3 
	BYTE		        An3 
	BYTE	W03
	BYTE		N44     Dn3   v080
	BYTE		N44     An3 
	BYTE	W48
	BYTE		N22     Ds3 
	BYTE		N22     As3 
	BYTE	W24
	BYTE		N17     Fn3 
	BYTE		N17     Cn4 
	BYTE	W12
// 008   ----------------------------------------
	BYTE	W06
	BYTE		N52     Gn3 
	BYTE		N52     Dn4 
	BYTE	W54
	BYTE		N21     As2 
	BYTE		N11     Gn3 
	BYTE	W12
	BYTE		        As3 
	BYTE	W12
	BYTE		        Gn3 
	BYTE		N11     Dn4 
	BYTE	W12
// 009   ----------------------------------------
	BYTE		N56     Fn3 
	BYTE		N56     Cn4 
	BYTE	W60
	BYTE		N22     Cn3 
	BYTE		N22     An3 
	BYTE	W24
	BYTE		N17     Fn3 
	BYTE		N17     Cn4 
	BYTE	W12
// 010   ----------------------------------------
	BYTE	W06
	BYTE		TIE     Gn3 
	BYTE		TIE     As3 
	BYTE	W90
// 011   ----------------------------------------
	BYTE	W96
// 012   ----------------------------------------
	BYTE	W09
	BYTE		EOT     Gn3 
	BYTE		        As3 
	BYTE	W84
	BYTE	W03
// 013   ----------------------------------------
	BYTE	W96
// 014   ----------------------------------------
	BYTE	W96
// 015   ----------------------------------------
	BYTE	W96
// 016   ----------------------------------------
	BYTE	W96
// 017   ----------------------------------------
	BYTE	W96
// 018   ----------------------------------------
	BYTE	W96
// 019   ----------------------------------------
	BYTE	W96
// 020   ----------------------------------------
	BYTE	W96
// 021   ----------------------------------------
	BYTE	W96
// 022   ----------------------------------------
	BYTE	W12
	BYTE		N44     Ds3   v104
	BYTE	W48
	BYTE		N11   
	BYTE	W12
	BYTE		        Fn3 
	BYTE	W12
	BYTE		        Gn3 
	BYTE	W12
// 023   ----------------------------------------
	BYTE		N56     An3 
	BYTE	W60
	BYTE		N11   
	BYTE	W12
	BYTE		        As3 
	BYTE	W12
	BYTE		        Cn4 
	BYTE	W12
// 024   ----------------------------------------
	BYTE		TIE     Dn4 
	BYTE	W96
// 025   ----------------------------------------
	BYTE	W09
	BYTE		EOT   
	BYTE	W03
	BYTE		N11   
	BYTE	W12
	BYTE		        Cn4 
	BYTE	W12
	BYTE		        Fn4 
	BYTE	W12
	BYTE		N56     Dn4 
	BYTE	W48
// 026   ----------------------------------------
	BYTE	W12
	BYTE		N68     Ds3 
	BYTE	W72
	BYTE		N11   
	BYTE	W12
// 027   ----------------------------------------
	BYTE		N56     Fn3 
	BYTE	W60
	BYTE		N44     An3 
	BYTE	W36
// 028   ----------------------------------------
	BYTE	W12
	BYTE		TIE     As3 
	BYTE	W84
// 029   ----------------------------------------
	BYTE	W96
// 030   ----------------------------------------
	BYTE	W08
	BYTE		EOT   
	BYTE	W04
	BYTE		N44     Ds3   v092
	BYTE		N44     Gn3 
	BYTE	W48
	BYTE		N11     Ds3 
	BYTE		N11     Gn3 
	BYTE	W12
	BYTE		        Fn3 
	BYTE		N11     An3 
	BYTE	W12
	BYTE		        Gn3 
	BYTE		N11     As3 
	BYTE	W12
// 031   ----------------------------------------
	BYTE		N56     An3 
	BYTE		N56     Cn4 
	BYTE	W60
	BYTE		N11     An3 
	BYTE		N11     Dn4 
	BYTE	W12
	BYTE		        As3 
	BYTE		N11     Ds4 
	BYTE	W12
	BYTE		        Cn4 
	BYTE		N11     Fn4 
	BYTE	W12
// 032   ----------------------------------------
	BYTE		TIE     Dn4 
	BYTE		TIE     Gn4 
	BYTE	W96
// 033   ----------------------------------------
	BYTE	W09
	BYTE		EOT     Dn4 
	BYTE		        Gn4 
	BYTE	W03
	BYTE		N11     Dn4 
	BYTE		N11     Gn4 
	BYTE	W12
	BYTE		        Cn4 
	BYTE		N11     Fn4 
	BYTE	W12
	BYTE		N11   
	BYTE		N11     As4 
	BYTE	W12
	BYTE		N56     Dn4 
	BYTE		N56     Gn4 
	BYTE	W48
// 034   ----------------------------------------
	BYTE	W12
	BYTE		N68     Ds3 
	BYTE		N68     Gn3 
	BYTE	W72
	BYTE		N11     Ds3 
	BYTE		N11     Gn3 
	BYTE	W12
// 035   ----------------------------------------
	BYTE		N56     Fn3 
	BYTE		N56     An3 
	BYTE	W60
	BYTE		N44   
	BYTE		N44     Cn4 
	BYTE	W36
// 036   ----------------------------------------
	BYTE	W12
	BYTE		TIE     Gn3 
	BYTE		TIE     As3 
	BYTE	W84
// 037   ----------------------------------------
	BYTE	W96
// 038   ----------------------------------------
	BYTE	W08
	BYTE		EOT     Gn3 
	BYTE		        As3 
	BYTE	GoTo
	 POIN2	Dreaming_8_B1
Dreaming_8_B2:
	BYTE	FINE

//**************** Track 9 (Midi-Chn.9) ****************//

Dreaming_9:
	BYTE	KEYSH   Dreaming_key+0
Dreaming_9_B1:
// 000   ----------------------------------------
	BYTE		VOICE   124
	BYTE		VOL     25*Dreaming_mvl/mxv
	BYTE		PAN     c_v+0
	BYTE		N12     Cn1   v127
	BYTE		N24     An2   v108
	BYTE	W12
	BYTE		N06     Fs1   v064
	BYTE	W06
	BYTE		        Cn1   v127
	BYTE		N06     Fs1   v032
	BYTE	W06
	BYTE		N12     Dn1   v127
	BYTE		N06     As1   v044
	BYTE	W06
	BYTE		        Fs1   v036
	BYTE	W06
	BYTE		        Fs1   v068
	BYTE	W06
	BYTE		        Cn1   v127
	BYTE		N06     Fs1   v036
	BYTE	W06
	BYTE		N12     Cn1   v084
	BYTE		N06     Fs1   v064
	BYTE	W06
	BYTE		N12     Dn1   v127
	BYTE		N06     Fs1   v032
	BYTE	W06
	BYTE		N12     Cn1   v127
	BYTE		N06     Fs1   v052
	BYTE	W06
	BYTE		        Fs1   v032
	BYTE	W06
	BYTE		N12     Dn1   v127
	BYTE		N06     As1   v044
	BYTE	W06
	BYTE		        Fs1   v036
	BYTE	W06
	BYTE		        Fs1   v068
	BYTE	W06
	BYTE		        Cn1   v127
	BYTE		N06     Fs1   v036
	BYTE	W06
// 001   ----------------------------------------
Dreaming_9_001:
	BYTE		N12     Cn1   v127
	BYTE		N06     Fs1   v064
	BYTE	W06
	BYTE		        Fs1   v032
	BYTE	W06
	BYTE		N12     Cn1   v127
	BYTE		N06     Fs1   v052
	BYTE	W06
	BYTE		        Fs1   v032
	BYTE	W06
	BYTE		N12     Dn1   v127
	BYTE		N06     As1   v044
	BYTE	W06
	BYTE		        Fs1   v036
	BYTE	W06
	BYTE		        Fs1   v068
	BYTE	W06
	BYTE		        Cn1   v127
	BYTE		N06     Fs1   v036
	BYTE	W06
	BYTE		N12     Cn1   v084
	BYTE		N06     Fs1   v064
	BYTE	W06
	BYTE		N12     Dn1   v127
	BYTE		N06     Fs1   v032
	BYTE	W06
	BYTE		N12     Cn1   v127
	BYTE		N06     Fs1   v052
	BYTE	W06
	BYTE		        Fs1   v032
	BYTE	W06
	BYTE		N12     Dn1   v127
	BYTE		N06     As1   v044
	BYTE	W06
	BYTE		        Fs1   v036
	BYTE	W06
	BYTE		        Cn1   v127
	BYTE		N06     Fs1   v068
	BYTE	W06
	BYTE		        Cn1   v127
	BYTE		N06     Fs1   v036
	BYTE	W06
	BYTE	PEND
// 002   ----------------------------------------
Dreaming_9_002:
	BYTE		N12     Cn1   v127
	BYTE		N06     Fs1   v064
	BYTE	W06
	BYTE		        Fs1   v032
	BYTE	W06
	BYTE		        Fs1   v052
	BYTE	W06
	BYTE		        Cn1   v127
	BYTE		N06     Fs1   v032
	BYTE	W06
	BYTE		N12     Dn1   v127
	BYTE		N06     As1   v044
	BYTE	W06
	BYTE		        Fs1   v036
	BYTE	W06
	BYTE		        Fs1   v068
	BYTE	W06
	BYTE		        Cn1   v127
	BYTE		N06     Fs1   v036
	BYTE	W06
	BYTE		N12     Cn1   v084
	BYTE		N06     Fs1   v064
	BYTE	W06
	BYTE		N12     Dn1   v127
	BYTE		N06     Fs1   v032
	BYTE	W06
	BYTE		N12     Cn1   v127
	BYTE		N06     Fs1   v052
	BYTE	W06
	BYTE		        Fs1   v032
	BYTE	W06
	BYTE		N12     Dn1   v127
	BYTE		N06     As1   v044
	BYTE	W06
	BYTE		        Fs1   v036
	BYTE	W06
	BYTE		        Fs1   v068
	BYTE	W06
	BYTE		        Cn1   v127
	BYTE		N06     Fs1   v036
	BYTE	W06
	BYTE	PEND
// 003   ----------------------------------------
	BYTE	PATT
	 POIN2	Dreaming_9_001
// 004   ----------------------------------------
	BYTE	PATT
	 POIN2	Dreaming_9_002
// 005   ----------------------------------------
	BYTE	PATT
	 POIN2	Dreaming_9_001
// 006   ----------------------------------------
	BYTE	PATT
	 POIN2	Dreaming_9_002
// 007   ----------------------------------------
	BYTE	PATT
	 POIN2	Dreaming_9_001
// 008   ----------------------------------------
Dreaming_9_008:
	BYTE		N12     Cn1   v127
	BYTE		N24     An2   v108
	BYTE	W12
	BYTE		N06     Fs1   v064
	BYTE	W06
	BYTE		        Cn1   v127
	BYTE		N06     Fs1   v032
	BYTE	W06
	BYTE		N12     Dn1   v127
	BYTE		N06     As1   v044
	BYTE	W06
	BYTE		        Fs1   v036
	BYTE	W06
	BYTE		        Fs1   v068
	BYTE	W06
	BYTE		        Cn1   v127
	BYTE		N06     Fs1   v036
	BYTE	W06
	BYTE		N12     Cn1   v084
	BYTE		N06     Fs1   v064
	BYTE	W06
	BYTE		N12     Dn1   v127
	BYTE		N06     Fs1   v032
	BYTE	W06
	BYTE		N12     Cn1   v127
	BYTE		N06     Fs1   v052
	BYTE	W06
	BYTE		        Fs1   v032
	BYTE	W06
	BYTE		N12     Dn1   v127
	BYTE		N06     As1   v044
	BYTE	W06
	BYTE		        Fs1   v036
	BYTE	W06
	BYTE		        Fs1   v068
	BYTE	W06
	BYTE		        Cn1   v127
	BYTE		N06     Fs1   v036
	BYTE	W06
	BYTE	PEND
// 009   ----------------------------------------
	BYTE	PATT
	 POIN2	Dreaming_9_001
// 010   ----------------------------------------
	BYTE	PATT
	 POIN2	Dreaming_9_002
// 011   ----------------------------------------
Dreaming_9_011:
	BYTE		N12     Cn1   v127
	BYTE		N06     Fs1   v064
	BYTE	W06
	BYTE		        Fs1   v032
	BYTE	W06
	BYTE		N12     Cn1   v127
	BYTE		N06     Fs1   v052
	BYTE	W06
	BYTE		        Fs1   v032
	BYTE	W06
	BYTE		N12     Dn1   v127
	BYTE		N06     As1   v044
	BYTE	W06
	BYTE		        Fs1   v036
	BYTE	W06
	BYTE		        Cn1   v127
	BYTE		N06     Fs1   v068
	BYTE	W06
	BYTE		        Dn1   v127
	BYTE		N06     Fs1   v036
	BYTE	W06
	BYTE		N12     Cn1   v084
	BYTE		N06     Fs1   v064
	BYTE	W06
	BYTE		N12     Dn1   v127
	BYTE		N06     Fs1   v032
	BYTE	W06
	BYTE		N12     Cn1   v127
	BYTE		N06     Fs1   v052
	BYTE	W06
	BYTE		        Fs1   v032
	BYTE	W06
	BYTE		N12     Dn1   v127
	BYTE		N06     As1   v044
	BYTE	W06
	BYTE		        Fs1   v036
	BYTE	W06
	BYTE		        Cn1   v127
	BYTE		N06     Fs1   v068
	BYTE	W06
	BYTE		        Dn1   v127
	BYTE		N06     Fs1   v036
	BYTE	W06
	BYTE	PEND
// 012   ----------------------------------------
	BYTE	PATT
	 POIN2	Dreaming_9_008
// 013   ----------------------------------------
	BYTE	PATT
	 POIN2	Dreaming_9_001
// 014   ----------------------------------------
	BYTE	PATT
	 POIN2	Dreaming_9_002
// 015   ----------------------------------------
	BYTE	PATT
	 POIN2	Dreaming_9_001
// 016   ----------------------------------------
	BYTE	PATT
	 POIN2	Dreaming_9_002
// 017   ----------------------------------------
	BYTE	PATT
	 POIN2	Dreaming_9_001
// 018   ----------------------------------------
	BYTE	PATT
	 POIN2	Dreaming_9_002
// 019   ----------------------------------------
	BYTE	PATT
	 POIN2	Dreaming_9_001
// 020   ----------------------------------------
	BYTE	PATT
	 POIN2	Dreaming_9_002
// 021   ----------------------------------------
	BYTE	PATT
	 POIN2	Dreaming_9_011
// 022   ----------------------------------------
	BYTE	PATT
	 POIN2	Dreaming_9_008
// 023   ----------------------------------------
	BYTE	PATT
	 POIN2	Dreaming_9_001
// 024   ----------------------------------------
	BYTE	PATT
	 POIN2	Dreaming_9_002
// 025   ----------------------------------------
	BYTE	PATT
	 POIN2	Dreaming_9_001
// 026   ----------------------------------------
	BYTE	PATT
	 POIN2	Dreaming_9_002
// 027   ----------------------------------------
	BYTE	PATT
	 POIN2	Dreaming_9_001
// 028   ----------------------------------------
	BYTE	PATT
	 POIN2	Dreaming_9_002
// 029   ----------------------------------------
	BYTE	PATT
	 POIN2	Dreaming_9_011
// 030   ----------------------------------------
	BYTE	PATT
	 POIN2	Dreaming_9_008
// 031   ----------------------------------------
	BYTE	PATT
	 POIN2	Dreaming_9_001
// 032   ----------------------------------------
	BYTE	PATT
	 POIN2	Dreaming_9_002
// 033   ----------------------------------------
	BYTE	PATT
	 POIN2	Dreaming_9_001
// 034   ----------------------------------------
	BYTE	PATT
	 POIN2	Dreaming_9_002
// 035   ----------------------------------------
	BYTE	PATT
	 POIN2	Dreaming_9_001
// 036   ----------------------------------------
	BYTE	PATT
	 POIN2	Dreaming_9_002
// 037   ----------------------------------------
	BYTE	PATT
	 POIN2	Dreaming_9_011
// 038   ----------------------------------------
	BYTE	W08
	BYTE	GoTo
	 POIN2	Dreaming_9_B1
Dreaming_9_B2:
	BYTE		VOICE   124
	BYTE		VOL     25*Dreaming_mvl/mxv
	BYTE		PAN     c_v+0
	BYTE	FINE

//**************** Track 10 (Midi-Chn.11) ****************//

Dreaming_10:
	BYTE	KEYSH   Dreaming_key+0
Dreaming_10_B1:
// 000   ----------------------------------------
	BYTE		VOICE   2
	BYTE		VOL     17*Dreaming_mvl/mxv
	BYTE		PAN     c_v-1
	BYTE		N90     Dn4   v076
	BYTE		N90     An4 
	BYTE	W96
// 001   ----------------------------------------
Dreaming_10_001:
	BYTE		N44     Dn4   v076
	BYTE		N44     An4 
	BYTE	W48
	BYTE		N22     Cn4 
	BYTE		N22     Gn4 
	BYTE	W24
	BYTE		N17     Ds4 
	BYTE		N17     As4 
	BYTE	W18
	BYTE		TIE     Dn4 
	BYTE		TIE     An4 
	BYTE	W06
	BYTE	PEND
// 002   ----------------------------------------
	BYTE	W92
	BYTE	W01
	BYTE		EOT     Dn4 
	BYTE		        An4 
	BYTE	W03
// 003   ----------------------------------------
	BYTE		N44     Dn4 
	BYTE		N44     An4 
	BYTE	W48
	BYTE		N22     Ds4 
	BYTE		N22     As4 
	BYTE	W24
	BYTE		N17     Fn4 
	BYTE		N17     Cn5 
	BYTE	W18
	BYTE		TIE     Dn4 
	BYTE		TIE     An4 
	BYTE	W06
// 004   ----------------------------------------
	BYTE	W92
	BYTE	W01
	BYTE		EOT     Dn4 
	BYTE		        An4 
	BYTE	W03
// 005   ----------------------------------------
	BYTE	PATT
	 POIN2	Dreaming_10_001
// 006   ----------------------------------------
	BYTE	W92
	BYTE	W01
	BYTE		EOT     Dn4 
	BYTE		        An4 
	BYTE	W03
// 007   ----------------------------------------
	BYTE	W96
// 008   ----------------------------------------
	BYTE	W96
// 009   ----------------------------------------
	BYTE	W96
// 010   ----------------------------------------
	BYTE	W96
// 011   ----------------------------------------
	BYTE	W96
// 012   ----------------------------------------
	BYTE	W96
// 013   ----------------------------------------
	BYTE	W96
// 014   ----------------------------------------
	BYTE	W96
// 015   ----------------------------------------
	BYTE	W96
// 016   ----------------------------------------
	BYTE	W96
// 017   ----------------------------------------
	BYTE	W96
// 018   ----------------------------------------
	BYTE	W96
// 019   ----------------------------------------
	BYTE	W96
// 020   ----------------------------------------
	BYTE	W96
// 021   ----------------------------------------
	BYTE	W96
// 022   ----------------------------------------
	BYTE	W96
// 023   ----------------------------------------
	BYTE	W96
// 024   ----------------------------------------
	BYTE	W96
// 025   ----------------------------------------
	BYTE	W96
// 026   ----------------------------------------
	BYTE	W96
// 027   ----------------------------------------
	BYTE	W96
// 028   ----------------------------------------
	BYTE	W96
// 029   ----------------------------------------
	BYTE	W96
// 030   ----------------------------------------
	BYTE	W96
// 031   ----------------------------------------
	BYTE	W96
// 032   ----------------------------------------
	BYTE	W96
// 033   ----------------------------------------
	BYTE	W96
// 034   ----------------------------------------
	BYTE	W96
// 035   ----------------------------------------
	BYTE	W96
// 036   ----------------------------------------
	BYTE	W96
// 037   ----------------------------------------
	BYTE	W96
// 038   ----------------------------------------
	BYTE	W08
	BYTE	GoTo
	 POIN2	Dreaming_10_B1
Dreaming_10_B2:
	BYTE		VOICE   2
	BYTE		VOL     17*Dreaming_mvl/mxv
	BYTE		PAN     c_v-1
	BYTE	FINE

//******************************************************//
	ALIGN 4

Dreaming:
	BYTE	10	// NumTrks
	BYTE	0	// NumBlks
	BYTE	Dreaming_pri	// Priority
	BYTE	Dreaming_rev	// Reverb.

	POIN2	Dreaming_grp

	POIN2	Dreaming_1
	POIN2	Dreaming_2
	POIN2	Dreaming_3
	POIN2	Dreaming_4
	POIN2	Dreaming_5
	POIN2	Dreaming_6
	POIN2	Dreaming_7
	POIN2	Dreaming_8
	POIN2	Dreaming_9
	POIN2	Dreaming_10

	
