	.include "MPlayDef.s"

	.equ	song01_grp, voicegroup000
	.equ	song01_pri, 0
	.equ	song01_rev, 0
	.equ	song01_mvl, 127
	.equ	song01_key, 0
	.equ	song01_tbs, 1
	.equ	song01_exg, 0
	.equ	song01_cmp, 1

	.section .rodata
	.global	song01
	.align	2


@**************** Track 1 (Midi-Chn.0) ****************@

song01_001:
@ 000   ----------------------------------------
 .byte   KEYSH , song01_key+0
Label_0_014B4C4E:
 .byte   TEMPO , 96*song01_tbs/2
 .byte   VOICE , 60
 .byte   VOL , 31*song01_mvl/mxv
 .byte   PAN , c_v+0
 .byte   BEND , c_v+0
 .byte   W96
@ 001   ----------------------------------------
 .byte   W96
@ 002   ----------------------------------------
 .byte   W96
@ 003   ----------------------------------------
 .byte   W96
@ 004   ----------------------------------------
 .byte   N32 ,Cn2 ,v120
 .byte   W36
 .byte   TIE ,Gn2
 .byte   W60
@ 005   ----------------------------------------
 .byte   W56
 .byte   W03
 .byte   EOT
 .byte   W13
 .byte   N22 ,Cn3
 .byte   W24
@ 006   ----------------------------------------
 .byte   N36 ,Dn3
 .byte   W48
 .byte   N44 ,As2
 .byte   W48
@ 007   ----------------------------------------
 .byte   N80 ,Fn2
 .byte   W96
@ 008   ----------------------------------------
 .byte   N88 ,Cn1 ,v112
 .byte   N88 ,Gn1
 .byte   W96
@ 009   ----------------------------------------
 .byte   Fn1
 .byte   N88 ,Cn2
 .byte   W96
@ 010   ----------------------------------------
 .byte   Gn1
 .byte   N88 ,Dn2
 .byte   W96
@ 011   ----------------------------------------
 .byte   As1
 .byte   N88 ,Fn2
 .byte   W96
@ 012   ----------------------------------------
 .byte   W96
@ 013   ----------------------------------------
 .byte   W96
@ 014   ----------------------------------------
 .byte   W96
@ 015   ----------------------------------------
 .byte   W96
@ 016   ----------------------------------------
Label_0_014B4C89:
 .byte   N44 ,Cn3 ,v120
 .byte   W48
 .byte   N22 ,Gn2
 .byte   W24
 .byte   Cn2
 .byte   W24
 .byte   PEND 
@ 017   ----------------------------------------
Label_0_014B4C93:
 .byte   N42 ,As2 ,v120
 .byte   W48
 .byte   An2
 .byte   W48
 .byte   PEND 
@ 018   ----------------------------------------
Label_0_014B4C9A:
 .byte   N16 ,Gn2 ,v120
 .byte   W18
 .byte   Cn3
 .byte   W18
 .byte   N11 ,Dn3
 .byte   W12
 .byte   N42 ,Fn3
 .byte   W48
 .byte   PEND 
@ 019   ----------------------------------------
 .byte   N88 ,Dn3
 .byte   W96
@ 020   ----------------------------------------
 .byte   PATT
  .word Label_0_014B4C89
@ 021   ----------------------------------------
 .byte   PATT
  .word Label_0_014B4C93
@ 022   ----------------------------------------
 .byte   PATT
  .word Label_0_014B4C9A
@ 023   ----------------------------------------
 .byte   N44 ,Gn3 ,v120
 .byte   W48
 .byte   N22 ,Cn3
 .byte   W24
 .byte   Gn3
 .byte   W24
@ 024   ----------------------------------------
 .byte   N88 ,Gn1 ,v108
 .byte   N88 ,Cn2
 .byte   W96
@ 025   ----------------------------------------
Label_0_014B4CC8:
 .byte   N44 ,Gn1 ,v108
 .byte   N44 ,Ds2
 .byte   W48
 .byte   Cn2
 .byte   N44 ,Fn2
 .byte   W48
 .byte   PEND 
@ 026   ----------------------------------------
 .byte   N88 ,Gn1
 .byte   N88 ,Cn2
 .byte   W96
@ 027   ----------------------------------------
 .byte   PATT
  .word Label_0_014B4CC8
@ 028   ----------------------------------------
 .byte   N88 ,Gn1 ,v108
 .byte   N88 ,Cn2
 .byte   W96
@ 029   ----------------------------------------
 .byte   PATT
  .word Label_0_014B4CC8
@ 030   ----------------------------------------
 .byte   N88 ,Gn1 ,v108
 .byte   N88 ,Cn2
 .byte   W96
@ 031   ----------------------------------------
 .byte   PATT
  .word Label_0_014B4CC8
@ 032   ----------------------------------------
 .byte   N92 ,Cs2 ,v112
 .byte   N92 ,Gs2
 .byte   W96
@ 033   ----------------------------------------
 .byte   N44 ,Ds2
 .byte   N44 ,As2
 .byte   W48
 .byte   Cn2
 .byte   N44 ,Gn2
 .byte   W48
@ 034   ----------------------------------------
 .byte   N92 ,As1
 .byte   N92 ,Fn2
 .byte   W96
@ 035   ----------------------------------------
 .byte   N44 ,Cn2
 .byte   N44 ,Gn2
 .byte   W48
 .byte   Gs1
 .byte   N44 ,Ds2
 .byte   W48
@ 036   ----------------------------------------
 .byte   N88 ,Gn1
 .byte   N88 ,Dn2
 .byte   W96
@ 037   ----------------------------------------
 .byte   Gn1
 .byte   N88 ,Dn2
 .byte   W96
@ 038   ----------------------------------------
 .byte   Gn1
 .byte   N88 ,Dn2
 .byte   W96
@ 039   ----------------------------------------
 .byte   Gn1
 .byte   N88 ,Dn2
 .byte   W96
@ 040   ----------------------------------------
Label_0_014B4D21:
 .byte   N32 ,Gn2 ,v120
 .byte   W36
 .byte   N06 ,Cn2
 .byte   W06
 .byte   Gn2
 .byte   W06
 .byte   N22 ,Cn3
 .byte   W24
 .byte   Fn3
 .byte   W24
 .byte   PEND 
@ 041   ----------------------------------------
Label_0_014B4D30:
 .byte   N32 ,Gn3 ,v120
 .byte   W36
 .byte   N11 ,Cn3
 .byte   W12
 .byte   N22
 .byte   W24
 .byte   As3
 .byte   W24
 .byte   PEND 
@ 042   ----------------------------------------
Label_0_014B4D3C:
 .byte   N42 ,An3 ,v120
 .byte   W48
 .byte   Cn3
 .byte   W48
 .byte   PEND 
@ 043   ----------------------------------------
Label_0_014B4D43:
 .byte   N42 ,An3 ,v120
 .byte   W48
 .byte   N22 ,Fn3
 .byte   W24
 .byte   An3
 .byte   W24
 .byte   PEND 
@ 044   ----------------------------------------
 .byte   TIE ,Gn3
 .byte   W96
@ 045   ----------------------------------------
 .byte   W68
 .byte   W03
 .byte   EOT
 .byte   W24
 .byte   W01
@ 046   ----------------------------------------
 .byte   PATT
  .word Label_0_014B4D21
@ 047   ----------------------------------------
 .byte   PATT
  .word Label_0_014B4D30
@ 048   ----------------------------------------
 .byte   PATT
  .word Label_0_014B4D3C
@ 049   ----------------------------------------
 .byte   PATT
  .word Label_0_014B4D43
@ 050   ----------------------------------------
 .byte   TIE ,Gn3 ,v120
 .byte   W96
@ 051   ----------------------------------------
 .byte   W68
 .byte   W03
 .byte   EOT
 .byte   W24
 .byte   W01
@ 052   ----------------------------------------
 .byte   W09
 .byte   GOTO
  .word Label_0_014B4C4E
@ 053   ----------------------------------------
 .byte   TEMPO , 96*song01_tbs/2
 .byte   VOICE , 60
 .byte   VOL , 31*song01_mvl/mxv
 .byte   PAN , c_v+0
 .byte   BEND , c_v+0
 .byte   FINE

@**************** Track 2 (Midi-Chn.1) ****************@

song01_002:
@ 000   ----------------------------------------
 .byte   KEYSH , song01_key+0
Label_1_01440712:
 .byte   VOICE , 56
 .byte   VOL , 29*song01_mvl/mxv
 .byte   PAN , c_v-14
 .byte   MOD 5
 .byte   BEND , c_v+0
 .byte   W96
@ 001   ----------------------------------------
 .byte   W96
@ 002   ----------------------------------------
 .byte   W96
@ 003   ----------------------------------------
 .byte   W96
@ 004   ----------------------------------------
 .byte   W96
@ 005   ----------------------------------------
 .byte   W96
@ 006   ----------------------------------------
 .byte   W96
@ 007   ----------------------------------------
 .byte   W96
@ 008   ----------------------------------------
Label_1_01440724:
 .byte   N28 ,Gn3 ,v104
 .byte   W36
 .byte   N03 ,Cn3
 .byte   W06
 .byte   N03
 .byte   W06
 .byte   N36 ,Gn3
 .byte   W48
 .byte   PEND 
@ 009   ----------------------------------------
Label_1_01440731:
 .byte   N03 ,Cn3 ,v104
 .byte   W06
 .byte   Gn3
 .byte   W06
 .byte   N04 ,Cn3
 .byte   W12
 .byte   N56 ,Gn3
 .byte   W72
 .byte   PEND 
@ 010   ----------------------------------------
 .byte   PATT
  .word Label_1_01440724
@ 011   ----------------------------------------
 .byte   PATT
  .word Label_1_01440731
@ 012   ----------------------------------------
 .byte   W96
@ 013   ----------------------------------------
 .byte   W96
@ 014   ----------------------------------------
 .byte   W96
@ 015   ----------------------------------------
 .byte   W96
@ 016   ----------------------------------------
 .byte   W96
@ 017   ----------------------------------------
 .byte   W96
@ 018   ----------------------------------------
 .byte   W96
@ 019   ----------------------------------------
 .byte   W96
@ 020   ----------------------------------------
Label_1_01440750:
 .byte   N04 ,Cn4 ,v104
 .byte   W12
 .byte   N03 ,Gn3
 .byte   W06
 .byte   Cn4
 .byte   W06
 .byte   N56 ,Fn4
 .byte   W72
 .byte   PEND 
@ 021   ----------------------------------------
 .byte   N03 ,Gn4
 .byte   W06
 .byte   Cn4
 .byte   W06
 .byte   N03
 .byte   W06
 .byte   Gn4
 .byte   W06
 .byte   N56 ,Cn4
 .byte   W72
@ 022   ----------------------------------------
 .byte   PATT
  .word Label_1_01440750
@ 023   ----------------------------------------
 .byte   N03 ,As4 ,v104
 .byte   W06
 .byte   Cn4
 .byte   W06
 .byte   N03
 .byte   W06
 .byte   As4
 .byte   W06
 .byte   N22 ,An4
 .byte   W24
 .byte   N42 ,Gn4
 .byte   W48
@ 024   ----------------------------------------
 .byte   N03 ,Cn5
 .byte   W06
 .byte   Gn4
 .byte   W06
 .byte   Fn4
 .byte   W06
 .byte   As4
 .byte   W06
 .byte   N56 ,Gn4
 .byte   W72
@ 025   ----------------------------------------
 .byte   N03 ,Dn5
 .byte   W06
 .byte   Gn4
 .byte   W06
 .byte   Cn5
 .byte   W06
 .byte   Dn5
 .byte   W06
 .byte   N56 ,Gn4
 .byte   W72
@ 026   ----------------------------------------
 .byte   N03 ,Cn5
 .byte   W06
 .byte   Fn4
 .byte   W06
 .byte   Gn4
 .byte   W06
 .byte   As4
 .byte   W06
 .byte   N56 ,Dn4
 .byte   W72
@ 027   ----------------------------------------
 .byte   N03 ,Gn4
 .byte   W06
 .byte   Cn4
 .byte   W06
 .byte   Gn4
 .byte   W06
 .byte   Cn5
 .byte   W06
 .byte   N56 ,As4
 .byte   W72
@ 028   ----------------------------------------
Label_1_014407AE:
 .byte   N03 ,Cn4 ,v092
 .byte   W12
 .byte   N03
 .byte   W24
 .byte   N02
 .byte   W04
 .byte   N02
 .byte   W04
 .byte   N02
 .byte   W04
 .byte   N03
 .byte   W12
 .byte   N03
 .byte   W36
 .byte   PEND 
@ 029   ----------------------------------------
 .byte   PATT
  .word Label_1_014407AE
@ 030   ----------------------------------------
 .byte   PATT
  .word Label_1_014407AE
@ 031   ----------------------------------------
 .byte   PATT
  .word Label_1_014407AE
@ 032   ----------------------------------------
 .byte   W96
@ 033   ----------------------------------------
 .byte   W96
@ 034   ----------------------------------------
 .byte   W96
@ 035   ----------------------------------------
 .byte   W96
@ 036   ----------------------------------------
 .byte   W96
@ 037   ----------------------------------------
 .byte   W96
@ 038   ----------------------------------------
 .byte   W96
@ 039   ----------------------------------------
 .byte   W96
@ 040   ----------------------------------------
 .byte   W96
@ 041   ----------------------------------------
 .byte   W96
@ 042   ----------------------------------------
 .byte   W96
@ 043   ----------------------------------------
 .byte   W96
@ 044   ----------------------------------------
 .byte   W96
@ 045   ----------------------------------------
 .byte   W96
@ 046   ----------------------------------------
Label_1_014407DC:
 .byte   N03 ,Gn4 ,v104
 .byte   W06
 .byte   Cn4
 .byte   W06
 .byte   N03
 .byte   W06
 .byte   Gn4
 .byte   W06
 .byte   N03
 .byte   W06
 .byte   Cn4
 .byte   W06
 .byte   N03
 .byte   W06
 .byte   Gn4
 .byte   W06
 .byte   N42
 .byte   W48
 .byte   PEND 
@ 047   ----------------------------------------
Label_1_014407F1:
 .byte   N04 ,Cn4 ,v104
 .byte   W12
 .byte   N02
 .byte   W04
 .byte   N02
 .byte   W04
 .byte   N02
 .byte   W04
 .byte   N56 ,Gn4
 .byte   W72
 .byte   PEND 
@ 048   ----------------------------------------
 .byte   PATT
  .word Label_1_014407DC
@ 049   ----------------------------------------
 .byte   PATT
  .word Label_1_014407F1
@ 050   ----------------------------------------
 .byte   W96
@ 051   ----------------------------------------
 .byte   W96
@ 052   ----------------------------------------
 .byte   W09
 .byte   GOTO
  .word Label_1_01440712
@ 053   ----------------------------------------
 .byte   VOICE , 56
 .byte   VOL , 29*song01_mvl/mxv
 .byte   PAN , c_v-14
 .byte   MOD 5
 .byte   BEND , c_v+0
 .byte   FINE

@**************** Track 3 (Midi-Chn.2) ****************@

song01_003:
@ 000   ----------------------------------------
 .byte   KEYSH , song01_key+0
Label_2_0143FD6A:
 .byte   VOICE , 57
 .byte   VOL , 29*song01_mvl/mxv
 .byte   PAN , c_v+16
 .byte   MOD 5
 .byte   BEND , c_v+0
 .byte   W96
@ 001   ----------------------------------------
 .byte   W96
@ 002   ----------------------------------------
 .byte   W96
@ 003   ----------------------------------------
 .byte   W96
@ 004   ----------------------------------------
 .byte   W96
@ 005   ----------------------------------------
 .byte   W96
@ 006   ----------------------------------------
 .byte   W96
@ 007   ----------------------------------------
 .byte   W96
@ 008   ----------------------------------------
 .byte   W96
@ 009   ----------------------------------------
 .byte   W96
@ 010   ----------------------------------------
 .byte   W96
@ 011   ----------------------------------------
 .byte   W96
@ 012   ----------------------------------------
 .byte   W96
@ 013   ----------------------------------------
 .byte   W96
@ 014   ----------------------------------------
 .byte   W96
@ 015   ----------------------------------------
 .byte   W96
@ 016   ----------------------------------------
 .byte   W96
@ 017   ----------------------------------------
 .byte   W96
@ 018   ----------------------------------------
 .byte   W96
@ 019   ----------------------------------------
 .byte   W96
@ 020   ----------------------------------------
 .byte   W96
@ 021   ----------------------------------------
 .byte   W96
@ 022   ----------------------------------------
 .byte   W96
@ 023   ----------------------------------------
 .byte   W96
@ 024   ----------------------------------------
 .byte   W96
@ 025   ----------------------------------------
 .byte   W96
@ 026   ----------------------------------------
 .byte   W96
@ 027   ----------------------------------------
 .byte   W96
@ 028   ----------------------------------------
 .byte   W96
@ 029   ----------------------------------------
 .byte   W96
@ 030   ----------------------------------------
 .byte   W96
@ 031   ----------------------------------------
 .byte   W96
@ 032   ----------------------------------------
 .byte   N32 ,Cs3 ,v104
 .byte   W36
 .byte   N11 ,Cn3
 .byte   W12
 .byte   N16 ,Ds3
 .byte   W18
 .byte   Cs3
 .byte   W18
 .byte   N11 ,Cn3
 .byte   W12
@ 033   ----------------------------------------
 .byte   N44 ,As2
 .byte   W48
 .byte   N22 ,Cn3
 .byte   W24
 .byte   Ds3
 .byte   W24
@ 034   ----------------------------------------
 .byte   N32 ,Fn3
 .byte   W36
 .byte   N11 ,As2
 .byte   W12
 .byte   N44 ,Fn3
 .byte   W48
@ 035   ----------------------------------------
 .byte   Gn3
 .byte   W48
 .byte   Ds3
 .byte   W48
@ 036   ----------------------------------------
 .byte   N64 ,Fn3
 .byte   W72
 .byte   N11 ,Ds3
 .byte   W12
 .byte   Fn3
 .byte   W12
@ 037   ----------------------------------------
 .byte   N88 ,Gn3
 .byte   W96
@ 038   ----------------------------------------
Label_2_0143FDC3:
 .byte   N32 ,Gs3 ,v104
 .byte   W36
 .byte   N06 ,Gn3
 .byte   W06
 .byte   Gs3
 .byte   W06
 .byte   N44 ,Gn3
 .byte   W48
 .byte   PEND 
@ 039   ----------------------------------------
 .byte   PATT
  .word Label_2_0143FDC3
@ 040   ----------------------------------------
 .byte   MOD 14
 .byte   N88 ,Cn1 ,v096
 .byte   N88 ,Gn1
 .byte   W96
@ 041   ----------------------------------------
 .byte   Cn1
 .byte   N88 ,Gn1
 .byte   W96
@ 042   ----------------------------------------
 .byte   Cn1
 .byte   N88 ,Gn1
 .byte   W96
@ 043   ----------------------------------------
 .byte   Cn1
 .byte   N88 ,Gn1
 .byte   W96
@ 044   ----------------------------------------
 .byte   Cn1
 .byte   N88 ,Gn1
 .byte   W96
@ 045   ----------------------------------------
 .byte   Cn1
 .byte   N88 ,Gn1
 .byte   W96
@ 046   ----------------------------------------
 .byte   Cn1
 .byte   N88 ,Gn1
 .byte   W96
@ 047   ----------------------------------------
 .byte   Cn1
 .byte   N88 ,Gn1
 .byte   W96
@ 048   ----------------------------------------
 .byte   Cn1
 .byte   N88 ,Gn1
 .byte   W96
@ 049   ----------------------------------------
 .byte   Cn1
 .byte   N88 ,Gn1
 .byte   W96
@ 050   ----------------------------------------
Label_2_0143FE01:
 .byte   N88 ,Cn1 ,v096
 .byte   N88 ,Gn1
 .byte   N88 ,Cn2
 .byte   W96
 .byte   PEND 
@ 051   ----------------------------------------
 .byte   PATT
  .word Label_2_0143FE01
@ 052   ----------------------------------------
 .byte   W09
 .byte   GOTO
  .word Label_2_0143FD6A
@ 053   ----------------------------------------
 .byte   VOICE , 57
 .byte   VOL , 29*song01_mvl/mxv
 .byte   PAN , c_v+16
 .byte   MOD 5
 .byte   BEND , c_v+0
 .byte   FINE

@**************** Track 4 (Midi-Chn.3) ****************@

song01_004:
@ 000   ----------------------------------------
 .byte   KEYSH , song01_key+0
Label_3_0143F872:
 .byte   VOICE , 47
 .byte   VOL , 19*song01_mvl/mxv
 .byte   PAN , c_v+0
 .byte   BEND , c_v+0
 .byte   W96
@ 001   ----------------------------------------
 .byte   W96
@ 002   ----------------------------------------
 .byte   W96
@ 003   ----------------------------------------
 .byte   W96
@ 004   ----------------------------------------
 .byte   W96
@ 005   ----------------------------------------
 .byte   W96
@ 006   ----------------------------------------
 .byte   W96
@ 007   ----------------------------------------
 .byte   W96
@ 008   ----------------------------------------
 .byte   W96
@ 009   ----------------------------------------
 .byte   W96
@ 010   ----------------------------------------
 .byte   W96
@ 011   ----------------------------------------
 .byte   W96
@ 012   ----------------------------------------
Label_3_0143F886:
 .byte   N23 ,Cn1 ,v127
 .byte   W36
 .byte   N03
 .byte   W04
 .byte   N03
 .byte   W04
 .byte   N03
 .byte   W04
 .byte   N14 ,Cn2
 .byte   W12
 .byte   Gn1
 .byte   W12
 .byte   Cn2
 .byte   W12
 .byte   Gn1
 .byte   W12
 .byte   PEND 
@ 013   ----------------------------------------
Label_3_0143F89A:
 .byte   N22 ,Cn1 ,v127
 .byte   W36
 .byte   N04
 .byte   W06
 .byte   N11
 .byte   W18
 .byte   Cn2
 .byte   W24
 .byte   N11
 .byte   W12
 .byte   PEND 
@ 014   ----------------------------------------
 .byte   PATT
  .word Label_3_0143F886
@ 015   ----------------------------------------
 .byte   PATT
  .word Label_3_0143F89A
@ 016   ----------------------------------------
 .byte   W96
@ 017   ----------------------------------------
 .byte   W96
@ 018   ----------------------------------------
 .byte   W96
@ 019   ----------------------------------------
 .byte   W96
@ 020   ----------------------------------------
 .byte   W96
@ 021   ----------------------------------------
 .byte   W96
@ 022   ----------------------------------------
 .byte   W96
@ 023   ----------------------------------------
 .byte   W96
@ 024   ----------------------------------------
 .byte   W96
@ 025   ----------------------------------------
 .byte   W96
@ 026   ----------------------------------------
 .byte   W96
@ 027   ----------------------------------------
 .byte   W96
@ 028   ----------------------------------------
 .byte   PATT
  .word Label_3_0143F886
@ 029   ----------------------------------------
 .byte   PATT
  .word Label_3_0143F89A
@ 030   ----------------------------------------
 .byte   PATT
  .word Label_3_0143F886
@ 031   ----------------------------------------
 .byte   PATT
  .word Label_3_0143F89A
@ 032   ----------------------------------------
 .byte   PATT
  .word Label_3_0143F886
@ 033   ----------------------------------------
 .byte   PATT
  .word Label_3_0143F89A
@ 034   ----------------------------------------
 .byte   PATT
  .word Label_3_0143F886
@ 035   ----------------------------------------
 .byte   PATT
  .word Label_3_0143F89A
@ 036   ----------------------------------------
 .byte   PATT
  .word Label_3_0143F886
@ 037   ----------------------------------------
 .byte   PATT
  .word Label_3_0143F89A
@ 038   ----------------------------------------
 .byte   PATT
  .word Label_3_0143F886
@ 039   ----------------------------------------
 .byte   PATT
  .word Label_3_0143F89A
@ 040   ----------------------------------------
 .byte   PATT
  .word Label_3_0143F886
@ 041   ----------------------------------------
 .byte   PATT
  .word Label_3_0143F89A
@ 042   ----------------------------------------
 .byte   PATT
  .word Label_3_0143F886
@ 043   ----------------------------------------
 .byte   PATT
  .word Label_3_0143F89A
@ 044   ----------------------------------------
 .byte   PATT
  .word Label_3_0143F886
@ 045   ----------------------------------------
 .byte   PATT
  .word Label_3_0143F89A
@ 046   ----------------------------------------
 .byte   PATT
  .word Label_3_0143F886
@ 047   ----------------------------------------
 .byte   PATT
  .word Label_3_0143F89A
@ 048   ----------------------------------------
 .byte   PATT
  .word Label_3_0143F886
@ 049   ----------------------------------------
 .byte   PATT
  .word Label_3_0143F89A
@ 050   ----------------------------------------
 .byte   PATT
  .word Label_3_0143F886
@ 051   ----------------------------------------
 .byte   PATT
  .word Label_3_0143F89A
@ 052   ----------------------------------------
 .byte   W09
 .byte   GOTO
  .word Label_3_0143F872
@ 053   ----------------------------------------
 .byte   VOICE , 47
 .byte   VOL , 19*song01_mvl/mxv
 .byte   PAN , c_v+0
 .byte   BEND , c_v+0
 .byte   FINE

@**************** Track 5 (Midi-Chn.4) ****************@

song01_005:
@ 000   ----------------------------------------
 .byte   KEYSH , song01_key+0
Label_4_0144081E:
 .byte   VOICE , 60
 .byte   VOL , 17*song01_mvl/mxv
 .byte   PAN , c_v-50
 .byte   BEND , c_v-1
 .byte   W96
@ 001   ----------------------------------------
 .byte   W96
@ 002   ----------------------------------------
 .byte   W96
@ 003   ----------------------------------------
 .byte   W96
@ 004   ----------------------------------------
 .byte   W12
 .byte   N32 ,Cn2 ,v096
 .byte   W36
 .byte   TIE ,Gn2
 .byte   W48
@ 005   ----------------------------------------
 .byte   W68
 .byte   W03
 .byte   EOT
 .byte   W13
 .byte   N22 ,Cn3
 .byte   W12
@ 006   ----------------------------------------
 .byte   W12
 .byte   N36 ,Dn3
 .byte   W48
 .byte   N44 ,As2
 .byte   W36
@ 007   ----------------------------------------
 .byte   W12
 .byte   N92 ,Fn2
 .byte   W84
@ 008   ----------------------------------------
 .byte   W96
@ 009   ----------------------------------------
 .byte   W96
@ 010   ----------------------------------------
 .byte   W96
@ 011   ----------------------------------------
 .byte   W96
@ 012   ----------------------------------------
 .byte   W96
@ 013   ----------------------------------------
 .byte   W96
@ 014   ----------------------------------------
 .byte   W96
@ 015   ----------------------------------------
 .byte   W96
@ 016   ----------------------------------------
Label_4_0144084C:
 .byte   W12
 .byte   N44 ,Cn3 ,v096
 .byte   W48
 .byte   N22 ,Gn2
 .byte   W24
 .byte   Cn2
 .byte   W12
 .byte   PEND 
@ 017   ----------------------------------------
Label_4_01440857:
 .byte   W12
 .byte   N42 ,As2 ,v096
 .byte   W48
 .byte   An2
 .byte   W36
 .byte   PEND 
@ 018   ----------------------------------------
Label_4_0144085F:
 .byte   W12
 .byte   N16 ,Gn2 ,v096
 .byte   W18
 .byte   Cn3
 .byte   W18
 .byte   N11 ,Dn3
 .byte   W12
 .byte   N42 ,Fn3
 .byte   W36
 .byte   PEND 
@ 019   ----------------------------------------
 .byte   W12
 .byte   N88 ,Dn3
 .byte   W84
@ 020   ----------------------------------------
 .byte   PATT
  .word Label_4_0144084C
@ 021   ----------------------------------------
 .byte   PATT
  .word Label_4_01440857
@ 022   ----------------------------------------
 .byte   PATT
  .word Label_4_0144085F
@ 023   ----------------------------------------
 .byte   W12
 .byte   N44 ,Gn3 ,v096
 .byte   W48
 .byte   N22 ,Cn3
 .byte   W24
 .byte   Gn3
 .byte   W12
@ 024   ----------------------------------------
 .byte   W96
@ 025   ----------------------------------------
 .byte   W96
@ 026   ----------------------------------------
 .byte   W96
@ 027   ----------------------------------------
 .byte   W96
@ 028   ----------------------------------------
 .byte   W96
@ 029   ----------------------------------------
 .byte   W96
@ 030   ----------------------------------------
 .byte   W96
@ 031   ----------------------------------------
 .byte   W96
@ 032   ----------------------------------------
 .byte   W96
@ 033   ----------------------------------------
 .byte   W96
@ 034   ----------------------------------------
 .byte   W96
@ 035   ----------------------------------------
 .byte   W96
@ 036   ----------------------------------------
 .byte   W96
@ 037   ----------------------------------------
 .byte   W96
@ 038   ----------------------------------------
 .byte   W96
@ 039   ----------------------------------------
 .byte   W96
@ 040   ----------------------------------------
Label_4_0144089A:
 .byte   W12
 .byte   N32 ,Gn2 ,v112
 .byte   W36
 .byte   N06 ,Cn2
 .byte   W06
 .byte   Gn2
 .byte   W06
 .byte   N22 ,Cn3
 .byte   W24
 .byte   Fn3
 .byte   W12
 .byte   PEND 
@ 041   ----------------------------------------
Label_4_014408AA:
 .byte   W12
 .byte   N32 ,Gn3 ,v112
 .byte   W36
 .byte   N11 ,Cn3
 .byte   W12
 .byte   N22
 .byte   W24
 .byte   As3
 .byte   W12
 .byte   PEND 
@ 042   ----------------------------------------
Label_4_014408B7:
 .byte   W12
 .byte   N42 ,An3 ,v112
 .byte   W48
 .byte   Cn3
 .byte   W36
 .byte   PEND 
@ 043   ----------------------------------------
Label_4_014408BF:
 .byte   W12
 .byte   N42 ,An3 ,v112
 .byte   W48
 .byte   N22 ,Fn3
 .byte   W24
 .byte   An3
 .byte   W12
 .byte   PEND 
@ 044   ----------------------------------------
Label_4_014408CA:
 .byte   W12
 .byte   TIE ,Gn3 ,v112
 .byte   W84
 .byte   PEND 
@ 045   ----------------------------------------
 .byte   W80
 .byte   W03
 .byte   EOT
 .byte   W13
@ 046   ----------------------------------------
 .byte   PATT
  .word Label_4_0144089A
@ 047   ----------------------------------------
 .byte   PATT
  .word Label_4_014408AA
@ 048   ----------------------------------------
 .byte   PATT
  .word Label_4_014408B7
@ 049   ----------------------------------------
 .byte   PATT
  .word Label_4_014408BF
@ 050   ----------------------------------------
 .byte   PATT
  .word Label_4_014408CA
@ 051   ----------------------------------------
 .byte   W72
 .byte   W01
 .byte   EOT
 .byte   Gn3
 .byte   W23
@ 052   ----------------------------------------
 .byte   W09
 .byte   GOTO
  .word Label_4_0144081E
@ 053   ----------------------------------------
 .byte   VOICE , 60
 .byte   VOL , 17*song01_mvl/mxv
 .byte   PAN , c_v-50
 .byte   BEND , c_v-1
 .byte   FINE

@**************** Track 6 (Midi-Chn.5) ****************@

song01_006:
@ 000   ----------------------------------------
 .byte   KEYSH , song01_key+0
Label_5_0144045E:
 .byte   VOICE , 60
 .byte   VOL , 17*song01_mvl/mxv
 .byte   PAN , c_v+50
 .byte   BEND , c_v-2
 .byte   W96
@ 001   ----------------------------------------
 .byte   W96
@ 002   ----------------------------------------
 .byte   W96
@ 003   ----------------------------------------
 .byte   W96
@ 004   ----------------------------------------
 .byte   W18
 .byte   N32 ,Cn2 ,v096
 .byte   W36
 .byte   TIE ,Gn2
 .byte   W42
@ 005   ----------------------------------------
 .byte   W76
 .byte   W01
 .byte   EOT
 .byte   W13
 .byte   N22 ,Cn3
 .byte   W06
@ 006   ----------------------------------------
 .byte   W18
 .byte   N36 ,Dn3
 .byte   W48
 .byte   N44 ,As2
 .byte   W30
@ 007   ----------------------------------------
 .byte   W18
 .byte   N92 ,Fn2
 .byte   W78
@ 008   ----------------------------------------
 .byte   W96
@ 009   ----------------------------------------
 .byte   W96
@ 010   ----------------------------------------
 .byte   W96
@ 011   ----------------------------------------
 .byte   W96
@ 012   ----------------------------------------
 .byte   W96
@ 013   ----------------------------------------
 .byte   W96
@ 014   ----------------------------------------
 .byte   W96
@ 015   ----------------------------------------
 .byte   W96
@ 016   ----------------------------------------
Label_5_0144048C:
 .byte   W18
 .byte   N44 ,Cn3 ,v096
 .byte   W48
 .byte   N22 ,Gn2
 .byte   W24
 .byte   Cn2
 .byte   W06
 .byte   PEND 
@ 017   ----------------------------------------
Label_5_01440497:
 .byte   W18
 .byte   N42 ,As2 ,v096
 .byte   W48
 .byte   An2
 .byte   W30
 .byte   PEND 
@ 018   ----------------------------------------
Label_5_0144049F:
 .byte   W18
 .byte   N16 ,Gn2 ,v096
 .byte   W18
 .byte   Cn3
 .byte   W18
 .byte   N11 ,Dn3
 .byte   W12
 .byte   N42 ,Fn3
 .byte   W30
 .byte   PEND 
@ 019   ----------------------------------------
 .byte   W18
 .byte   N88 ,Dn3
 .byte   W78
@ 020   ----------------------------------------
 .byte   PATT
  .word Label_5_0144048C
@ 021   ----------------------------------------
 .byte   PATT
  .word Label_5_01440497
@ 022   ----------------------------------------
 .byte   PATT
  .word Label_5_0144049F
@ 023   ----------------------------------------
 .byte   W18
 .byte   N44 ,Gn3 ,v096
 .byte   W48
 .byte   N22 ,Cn3
 .byte   W24
 .byte   Gn3
 .byte   W06
@ 024   ----------------------------------------
 .byte   W96
@ 025   ----------------------------------------
 .byte   W96
@ 026   ----------------------------------------
 .byte   W96
@ 027   ----------------------------------------
 .byte   W96
@ 028   ----------------------------------------
 .byte   W96
@ 029   ----------------------------------------
 .byte   W96
@ 030   ----------------------------------------
 .byte   W96
@ 031   ----------------------------------------
 .byte   W96
@ 032   ----------------------------------------
 .byte   W96
@ 033   ----------------------------------------
 .byte   W96
@ 034   ----------------------------------------
 .byte   W96
@ 035   ----------------------------------------
 .byte   W96
@ 036   ----------------------------------------
 .byte   W96
@ 037   ----------------------------------------
 .byte   W96
@ 038   ----------------------------------------
 .byte   W96
@ 039   ----------------------------------------
 .byte   W96
@ 040   ----------------------------------------
Label_5_014404DA:
 .byte   W18
 .byte   N32 ,Gn2 ,v112
 .byte   W36
 .byte   N06 ,Cn2
 .byte   W06
 .byte   Gn2
 .byte   W06
 .byte   N22 ,Cn3
 .byte   W24
 .byte   Fn3
 .byte   W06
 .byte   PEND 
@ 041   ----------------------------------------
Label_5_014404EA:
 .byte   W18
 .byte   N32 ,Gn3 ,v112
 .byte   W36
 .byte   N11 ,Cn3
 .byte   W12
 .byte   N22
 .byte   W24
 .byte   As3
 .byte   W06
 .byte   PEND 
@ 042   ----------------------------------------
Label_5_014404F7:
 .byte   W18
 .byte   N42 ,An3 ,v112
 .byte   W48
 .byte   Cn3
 .byte   W30
 .byte   PEND 
@ 043   ----------------------------------------
Label_5_014404FF:
 .byte   W18
 .byte   N42 ,An3 ,v112
 .byte   W48
 .byte   N22 ,Fn3
 .byte   W24
 .byte   An3
 .byte   W06
 .byte   PEND 
@ 044   ----------------------------------------
Label_5_0144050A:
 .byte   W18
 .byte   TIE ,Gn3 ,v112
 .byte   W78
 .byte   PEND 
@ 045   ----------------------------------------
 .byte   W88
 .byte   W01
 .byte   EOT
 .byte   W07
@ 046   ----------------------------------------
 .byte   PATT
  .word Label_5_014404DA
@ 047   ----------------------------------------
 .byte   PATT
  .word Label_5_014404EA
@ 048   ----------------------------------------
 .byte   PATT
  .word Label_5_014404F7
@ 049   ----------------------------------------
 .byte   PATT
  .word Label_5_014404FF
@ 050   ----------------------------------------
 .byte   PATT
  .word Label_5_0144050A
@ 051   ----------------------------------------
 .byte   W78
 .byte   W01
 .byte   EOT
 .byte   Gn3
 .byte   W17
@ 052   ----------------------------------------
 .byte   W09
 .byte   GOTO
  .word Label_5_0144045E
@ 053   ----------------------------------------
 .byte   VOICE , 60
 .byte   VOL , 17*song01_mvl/mxv
 .byte   PAN , c_v+50
 .byte   BEND , c_v-2
 .byte   FINE

@**************** Track 7 (Midi-Chn.6) ****************@

song01_007:
@ 000   ----------------------------------------
 .byte   KEYSH , song01_key+0
Label_6_0143FFC6:
 .byte   VOICE , 56
 .byte   VOL , 17*song01_mvl/mxv
 .byte   PAN , c_v-50
 .byte   BEND , c_v-1
 .byte   W96
@ 001   ----------------------------------------
 .byte   W96
@ 002   ----------------------------------------
 .byte   W96
@ 003   ----------------------------------------
 .byte   W96
@ 004   ----------------------------------------
 .byte   W96
@ 005   ----------------------------------------
 .byte   W96
@ 006   ----------------------------------------
 .byte   W96
@ 007   ----------------------------------------
 .byte   W96
@ 008   ----------------------------------------
Label_6_0143FFD6:
 .byte   W12
 .byte   N28 ,Gn3 ,v104
 .byte   W36
 .byte   N03 ,Cn3
 .byte   W06
 .byte   N03
 .byte   W06
 .byte   N36 ,Gn3
 .byte   W36
 .byte   PEND 
@ 009   ----------------------------------------
Label_6_0143FFE4:
 .byte   W12
 .byte   N03 ,Cn3 ,v104
 .byte   W06
 .byte   Gn3
 .byte   W06
 .byte   N04 ,Cn3
 .byte   W12
 .byte   N56 ,Gn3
 .byte   W60
 .byte   PEND 
@ 010   ----------------------------------------
 .byte   PATT
  .word Label_6_0143FFD6
@ 011   ----------------------------------------
 .byte   PATT
  .word Label_6_0143FFE4
@ 012   ----------------------------------------
 .byte   W96
@ 013   ----------------------------------------
 .byte   W96
@ 014   ----------------------------------------
 .byte   W96
@ 015   ----------------------------------------
 .byte   W96
@ 016   ----------------------------------------
 .byte   W96
@ 017   ----------------------------------------
 .byte   W96
@ 018   ----------------------------------------
 .byte   W96
@ 019   ----------------------------------------
 .byte   W96
@ 020   ----------------------------------------
Label_6_01440004:
 .byte   W12
 .byte   N04 ,Cn4 ,v104
 .byte   W12
 .byte   N03 ,Gn3
 .byte   W06
 .byte   Cn4
 .byte   W06
 .byte   N56 ,Fn4
 .byte   W60
 .byte   PEND 
@ 021   ----------------------------------------
 .byte   W12
 .byte   N03 ,Gn4
 .byte   W06
 .byte   Cn4
 .byte   W06
 .byte   N03
 .byte   W06
 .byte   Gn4
 .byte   W06
 .byte   N56 ,Cn4
 .byte   W60
@ 022   ----------------------------------------
 .byte   PATT
  .word Label_6_01440004
@ 023   ----------------------------------------
 .byte   W12
 .byte   N03 ,As4 ,v104
 .byte   W06
 .byte   Cn4
 .byte   W06
 .byte   N03
 .byte   W06
 .byte   As4
 .byte   W06
 .byte   N22 ,An4
 .byte   W24
 .byte   N42 ,Gn4
 .byte   W36
@ 024   ----------------------------------------
 .byte   W12
 .byte   N03 ,Cn5
 .byte   W06
 .byte   Gn4
 .byte   W06
 .byte   Fn4
 .byte   W06
 .byte   As4
 .byte   W06
 .byte   N56 ,Gn4
 .byte   W60
@ 025   ----------------------------------------
 .byte   W12
 .byte   N03 ,Dn5
 .byte   W06
 .byte   Gn4
 .byte   W06
 .byte   Cn5
 .byte   W06
 .byte   Dn5
 .byte   W06
 .byte   N56 ,Gn4
 .byte   W60
@ 026   ----------------------------------------
 .byte   W12
 .byte   N03 ,Cn5
 .byte   W06
 .byte   Fn4
 .byte   W06
 .byte   Gn4
 .byte   W06
 .byte   As4
 .byte   W06
 .byte   N56 ,Dn4
 .byte   W60
@ 027   ----------------------------------------
 .byte   W12
 .byte   N03 ,Gn4
 .byte   W06
 .byte   Cn4
 .byte   W06
 .byte   Gn4
 .byte   W06
 .byte   Cn5
 .byte   W06
 .byte   N56 ,As4
 .byte   W60
@ 028   ----------------------------------------
Label_6_01440069:
 .byte   W12
 .byte   N03 ,Cn4 ,v104
 .byte   W12
 .byte   N03
 .byte   W24
 .byte   N02
 .byte   W04
 .byte   N02
 .byte   W04
 .byte   N02
 .byte   W04
 .byte   N03
 .byte   W12
 .byte   N03
 .byte   W24
 .byte   PEND 
@ 029   ----------------------------------------
 .byte   PATT
  .word Label_6_01440069
@ 030   ----------------------------------------
 .byte   PATT
  .word Label_6_01440069
@ 031   ----------------------------------------
 .byte   PATT
  .word Label_6_01440069
@ 032   ----------------------------------------
 .byte   W96
@ 033   ----------------------------------------
 .byte   W96
@ 034   ----------------------------------------
 .byte   W96
@ 035   ----------------------------------------
 .byte   W96
@ 036   ----------------------------------------
 .byte   W96
@ 037   ----------------------------------------
 .byte   W96
@ 038   ----------------------------------------
 .byte   W96
@ 039   ----------------------------------------
 .byte   W96
@ 040   ----------------------------------------
 .byte   W96
@ 041   ----------------------------------------
 .byte   W96
@ 042   ----------------------------------------
 .byte   W96
@ 043   ----------------------------------------
 .byte   W96
@ 044   ----------------------------------------
 .byte   W96
@ 045   ----------------------------------------
 .byte   W96
@ 046   ----------------------------------------
Label_6_01440098:
 .byte   W12
 .byte   N03 ,Gn4 ,v104
 .byte   W06
 .byte   Cn4
 .byte   W06
 .byte   N03
 .byte   W06
 .byte   Gn4
 .byte   W06
 .byte   N03
 .byte   W06
 .byte   Cn4
 .byte   W06
 .byte   N03
 .byte   W06
 .byte   Gn4
 .byte   W06
 .byte   N42
 .byte   W36
 .byte   PEND 
@ 047   ----------------------------------------
Label_6_014400AE:
 .byte   W12
 .byte   N04 ,Cn4 ,v104
 .byte   W12
 .byte   N02
 .byte   W04
 .byte   N02
 .byte   W04
 .byte   N02
 .byte   W04
 .byte   N56 ,Gn4
 .byte   W60
 .byte   PEND 
@ 048   ----------------------------------------
 .byte   PATT
  .word Label_6_01440098
@ 049   ----------------------------------------
 .byte   PATT
  .word Label_6_014400AE
@ 050   ----------------------------------------
 .byte   W96
@ 051   ----------------------------------------
 .byte   W96
@ 052   ----------------------------------------
 .byte   W09
 .byte   GOTO
  .word Label_6_0143FFC6
@ 053   ----------------------------------------
 .byte   VOICE , 56
 .byte   VOL , 17*song01_mvl/mxv
 .byte   PAN , c_v-50
 .byte   BEND , c_v-1
 .byte   FINE

@**************** Track 8 (Midi-Chn.7) ****************@

song01_008:
@ 000   ----------------------------------------
 .byte   KEYSH , song01_key+0
Label_7_014B48CA:
 .byte   VOICE , 56
 .byte   VOL , 12*song01_mvl/mxv
 .byte   PAN , c_v+50
 .byte   BEND , c_v-2
 .byte   W96
@ 001   ----------------------------------------
 .byte   W96
@ 002   ----------------------------------------
 .byte   W96
@ 003   ----------------------------------------
 .byte   W96
@ 004   ----------------------------------------
 .byte   W96
@ 005   ----------------------------------------
 .byte   W96
@ 006   ----------------------------------------
 .byte   W96
@ 007   ----------------------------------------
 .byte   W96
@ 008   ----------------------------------------
Label_7_014B48DA:
 .byte   W18
 .byte   N28 ,Gn3 ,v104
 .byte   W36
 .byte   N03 ,Cn3
 .byte   W06
 .byte   N03
 .byte   W06
 .byte   N36 ,Gn3
 .byte   W30
 .byte   PEND 
@ 009   ----------------------------------------
Label_7_014B48E8:
 .byte   W18
 .byte   N03 ,Cn3 ,v104
 .byte   W06
 .byte   Gn3
 .byte   W06
 .byte   N04 ,Cn3
 .byte   W12
 .byte   N56 ,Gn3
 .byte   W54
 .byte   PEND 
@ 010   ----------------------------------------
 .byte   PATT
  .word Label_7_014B48DA
@ 011   ----------------------------------------
 .byte   PATT
  .word Label_7_014B48E8
@ 012   ----------------------------------------
 .byte   W96
@ 013   ----------------------------------------
 .byte   W96
@ 014   ----------------------------------------
 .byte   W96
@ 015   ----------------------------------------
 .byte   W96
@ 016   ----------------------------------------
 .byte   W96
@ 017   ----------------------------------------
 .byte   W96
@ 018   ----------------------------------------
 .byte   W96
@ 019   ----------------------------------------
 .byte   W96
@ 020   ----------------------------------------
Label_7_014B4908:
 .byte   W18
 .byte   N04 ,Cn4 ,v104
 .byte   W12
 .byte   N03 ,Gn3
 .byte   W06
 .byte   Cn4
 .byte   W06
 .byte   N56 ,Fn4
 .byte   W54
 .byte   PEND 
@ 021   ----------------------------------------
 .byte   W18
 .byte   N03 ,Gn4
 .byte   W06
 .byte   Cn4
 .byte   W06
 .byte   N03
 .byte   W06
 .byte   Gn4
 .byte   W06
 .byte   N56 ,Cn4
 .byte   W54
@ 022   ----------------------------------------
 .byte   PATT
  .word Label_7_014B4908
@ 023   ----------------------------------------
 .byte   W18
 .byte   N03 ,As4 ,v104
 .byte   W06
 .byte   Cn4
 .byte   W06
 .byte   N03
 .byte   W06
 .byte   As4
 .byte   W06
 .byte   N22 ,An4
 .byte   W24
 .byte   N42 ,Gn4
 .byte   W30
@ 024   ----------------------------------------
 .byte   W18
 .byte   N03 ,Cn5
 .byte   W06
 .byte   Gn4
 .byte   W06
 .byte   Fn4
 .byte   W06
 .byte   As4
 .byte   W06
 .byte   N56 ,Gn4
 .byte   W54
@ 025   ----------------------------------------
 .byte   W18
 .byte   N03 ,Dn5
 .byte   W06
 .byte   Gn4
 .byte   W06
 .byte   Cn5
 .byte   W06
 .byte   Dn5
 .byte   W06
 .byte   N56 ,Gn4
 .byte   W54
@ 026   ----------------------------------------
 .byte   W18
 .byte   N03 ,Cn5
 .byte   W06
 .byte   Fn4
 .byte   W06
 .byte   Gn4
 .byte   W06
 .byte   As4
 .byte   W06
 .byte   N56 ,Dn4
 .byte   W54
@ 027   ----------------------------------------
 .byte   W18
 .byte   N03 ,Gn4
 .byte   W06
 .byte   Cn4
 .byte   W06
 .byte   Gn4
 .byte   W06
 .byte   Cn5
 .byte   W06
 .byte   N56 ,As4
 .byte   W54
@ 028   ----------------------------------------
Label_7_014B496D:
 .byte   W18
 .byte   N03 ,Cn4 ,v104
 .byte   W12
 .byte   N03
 .byte   W24
 .byte   N02
 .byte   W04
 .byte   N02
 .byte   W04
 .byte   N02
 .byte   W04
 .byte   N03
 .byte   W12
 .byte   N03
 .byte   W18
 .byte   PEND 
@ 029   ----------------------------------------
 .byte   PATT
  .word Label_7_014B496D
@ 030   ----------------------------------------
 .byte   PATT
  .word Label_7_014B496D
@ 031   ----------------------------------------
 .byte   PATT
  .word Label_7_014B496D
@ 032   ----------------------------------------
 .byte   W96
@ 033   ----------------------------------------
 .byte   W96
@ 034   ----------------------------------------
 .byte   W96
@ 035   ----------------------------------------
 .byte   W96
@ 036   ----------------------------------------
 .byte   W96
@ 037   ----------------------------------------
 .byte   W96
@ 038   ----------------------------------------
 .byte   W96
@ 039   ----------------------------------------
 .byte   W96
@ 040   ----------------------------------------
 .byte   W96
@ 041   ----------------------------------------
 .byte   W96
@ 042   ----------------------------------------
 .byte   W96
@ 043   ----------------------------------------
 .byte   W96
@ 044   ----------------------------------------
 .byte   W96
@ 045   ----------------------------------------
 .byte   W96
@ 046   ----------------------------------------
Label_7_014B499C:
 .byte   W18
 .byte   N03 ,Gn4 ,v104
 .byte   W06
 .byte   Cn4
 .byte   W06
 .byte   N03
 .byte   W06
 .byte   Gn4
 .byte   W06
 .byte   N03
 .byte   W06
 .byte   Cn4
 .byte   W06
 .byte   N03
 .byte   W06
 .byte   Gn4
 .byte   W06
 .byte   N42
 .byte   W30
 .byte   PEND 
@ 047   ----------------------------------------
Label_7_014B49B2:
 .byte   W18
 .byte   N04 ,Cn4 ,v104
 .byte   W12
 .byte   N02
 .byte   W04
 .byte   N02
 .byte   W04
 .byte   N02
 .byte   W04
 .byte   N56 ,Gn4
 .byte   W54
 .byte   PEND 
@ 048   ----------------------------------------
 .byte   PATT
  .word Label_7_014B499C
@ 049   ----------------------------------------
 .byte   PATT
  .word Label_7_014B49B2
@ 050   ----------------------------------------
 .byte   W96
@ 051   ----------------------------------------
 .byte   W96
@ 052   ----------------------------------------
 .byte   W09
 .byte   GOTO
  .word Label_7_014B48CA
@ 053   ----------------------------------------
 .byte   VOICE , 56
 .byte   VOL , 12*song01_mvl/mxv
 .byte   PAN , c_v+50
 .byte   BEND , c_v-2
 .byte   FINE

@**************** Track 9 (Midi-Chn.8) ****************@

song01_009:
@ 000   ----------------------------------------
 .byte   KEYSH , song01_key+0
Label_8_0143F642:
 .byte   VOICE , 57
 .byte   VOL , 18*song01_mvl/mxv
 .byte   PAN , c_v-50
 .byte   BEND , c_v-1
 .byte   W96
@ 001   ----------------------------------------
 .byte   W96
@ 002   ----------------------------------------
 .byte   W96
@ 003   ----------------------------------------
 .byte   W96
@ 004   ----------------------------------------
 .byte   W96
@ 005   ----------------------------------------
 .byte   W96
@ 006   ----------------------------------------
 .byte   W96
@ 007   ----------------------------------------
 .byte   W96
@ 008   ----------------------------------------
 .byte   W96
@ 009   ----------------------------------------
 .byte   W96
@ 010   ----------------------------------------
 .byte   W96
@ 011   ----------------------------------------
 .byte   W96
@ 012   ----------------------------------------
 .byte   W96
@ 013   ----------------------------------------
 .byte   W96
@ 014   ----------------------------------------
 .byte   W96
@ 015   ----------------------------------------
 .byte   W96
@ 016   ----------------------------------------
 .byte   W96
@ 017   ----------------------------------------
 .byte   W96
@ 018   ----------------------------------------
 .byte   W96
@ 019   ----------------------------------------
 .byte   W96
@ 020   ----------------------------------------
 .byte   W96
@ 021   ----------------------------------------
 .byte   W96
@ 022   ----------------------------------------
 .byte   W96
@ 023   ----------------------------------------
 .byte   W96
@ 024   ----------------------------------------
 .byte   W96
@ 025   ----------------------------------------
 .byte   W96
@ 026   ----------------------------------------
 .byte   W96
@ 027   ----------------------------------------
 .byte   W96
@ 028   ----------------------------------------
 .byte   W96
@ 029   ----------------------------------------
 .byte   W96
@ 030   ----------------------------------------
 .byte   W96
@ 031   ----------------------------------------
 .byte   W96
@ 032   ----------------------------------------
 .byte   W11
 .byte   N32 ,Cs3 ,v104
 .byte   W36
 .byte   N11 ,Cn3
 .byte   W12
 .byte   N16 ,Ds3
 .byte   W18
 .byte   Cs3
 .byte   W18
 .byte   N11 ,Cn3
 .byte   W01
@ 033   ----------------------------------------
 .byte   W11
 .byte   N44 ,As2
 .byte   W48
 .byte   N22 ,Cn3
 .byte   W24
 .byte   Ds3
 .byte   W13
@ 034   ----------------------------------------
 .byte   W11
 .byte   N32 ,Fn3
 .byte   W36
 .byte   N11 ,As2
 .byte   W12
 .byte   N44 ,Fn3
 .byte   W36
 .byte   W01
@ 035   ----------------------------------------
 .byte   W11
 .byte   Gn3
 .byte   W48
 .byte   Ds3
 .byte   W36
 .byte   W01
@ 036   ----------------------------------------
 .byte   W11
 .byte   N64 ,Fn3
 .byte   W72
 .byte   N11 ,Ds3
 .byte   W12
 .byte   Fn3
 .byte   W01
@ 037   ----------------------------------------
 .byte   W11
 .byte   N88 ,Gn3
 .byte   W84
 .byte   W01
@ 038   ----------------------------------------
Label_8_0143F6A2:
 .byte   W11
 .byte   N32 ,Gs3 ,v104
 .byte   W36
 .byte   N06 ,Gn3
 .byte   W06
 .byte   Gs3
 .byte   W06
 .byte   N44 ,Gn3
 .byte   W36
 .byte   W01
 .byte   PEND 
@ 039   ----------------------------------------
 .byte   PATT
  .word Label_8_0143F6A2
@ 040   ----------------------------------------
 .byte   W96
@ 041   ----------------------------------------
 .byte   W96
@ 042   ----------------------------------------
 .byte   W96
@ 043   ----------------------------------------
 .byte   W96
@ 044   ----------------------------------------
 .byte   W96
@ 045   ----------------------------------------
 .byte   W96
@ 046   ----------------------------------------
 .byte   W96
@ 047   ----------------------------------------
 .byte   W96
@ 048   ----------------------------------------
 .byte   W96
@ 049   ----------------------------------------
 .byte   W96
@ 050   ----------------------------------------
 .byte   W96
@ 051   ----------------------------------------
 .byte   W96
@ 052   ----------------------------------------
 .byte   W09
 .byte   GOTO
  .word Label_8_0143F642
@ 053   ----------------------------------------
 .byte   VOICE , 57
 .byte   VOL , 18*song01_mvl/mxv
 .byte   PAN , c_v-50
 .byte   BEND , c_v-1
 .byte   FINE

@**************** Track 10 (Midi-Chn.9) ****************@

song01_010:
@ 000   ----------------------------------------
 .byte   KEYSH , song01_key+0
Label_9_0143FA52:
 .byte   VOICE , 57
 .byte   VOL , 18*song01_mvl/mxv
 .byte   PAN , c_v+50
 .byte   BEND , c_v-2
 .byte   W96
@ 001   ----------------------------------------
 .byte   W96
@ 002   ----------------------------------------
 .byte   W96
@ 003   ----------------------------------------
 .byte   W96
@ 004   ----------------------------------------
 .byte   W96
@ 005   ----------------------------------------
 .byte   W96
@ 006   ----------------------------------------
 .byte   W96
@ 007   ----------------------------------------
 .byte   W96
@ 008   ----------------------------------------
 .byte   W96
@ 009   ----------------------------------------
 .byte   W96
@ 010   ----------------------------------------
 .byte   W96
@ 011   ----------------------------------------
 .byte   W96
@ 012   ----------------------------------------
 .byte   W96
@ 013   ----------------------------------------
 .byte   W96
@ 014   ----------------------------------------
 .byte   W96
@ 015   ----------------------------------------
 .byte   W96
@ 016   ----------------------------------------
 .byte   W96
@ 017   ----------------------------------------
 .byte   W96
@ 018   ----------------------------------------
 .byte   W96
@ 019   ----------------------------------------
 .byte   W96
@ 020   ----------------------------------------
 .byte   W96
@ 021   ----------------------------------------
 .byte   W96
@ 022   ----------------------------------------
 .byte   W96
@ 023   ----------------------------------------
 .byte   W96
@ 024   ----------------------------------------
 .byte   W96
@ 025   ----------------------------------------
 .byte   W96
@ 026   ----------------------------------------
 .byte   W96
@ 027   ----------------------------------------
 .byte   W96
@ 028   ----------------------------------------
 .byte   W96
@ 029   ----------------------------------------
 .byte   W96
@ 030   ----------------------------------------
 .byte   W96
@ 031   ----------------------------------------
 .byte   W96
@ 032   ----------------------------------------
 .byte   W18
 .byte   N32 ,Cs3 ,v104
 .byte   W36
 .byte   N11 ,Cn3
 .byte   W12
 .byte   N16 ,Ds3
 .byte   W18
 .byte   Cs3
 .byte   W12
@ 033   ----------------------------------------
 .byte   W06
 .byte   N11 ,Cn3
 .byte   W12
 .byte   N44 ,As2
 .byte   W48
 .byte   N22 ,Cn3
 .byte   W24
 .byte   Ds3
 .byte   W06
@ 034   ----------------------------------------
 .byte   W18
 .byte   N32 ,Fn3
 .byte   W36
 .byte   N11 ,As2
 .byte   W12
 .byte   N44 ,Fn3
 .byte   W30
@ 035   ----------------------------------------
 .byte   W18
 .byte   Gn3
 .byte   W48
 .byte   Ds3
 .byte   W30
@ 036   ----------------------------------------
 .byte   W18
 .byte   N64 ,Fn3
 .byte   W72
 .byte   N11 ,Ds3
 .byte   W06
@ 037   ----------------------------------------
 .byte   W06
 .byte   Fn3
 .byte   W12
 .byte   N88 ,Gn3
 .byte   W78
@ 038   ----------------------------------------
Label_9_0143FAAF:
 .byte   W18
 .byte   N32 ,Gs3 ,v104
 .byte   W36
 .byte   N06 ,Gn3
 .byte   W06
 .byte   Gs3
 .byte   W06
 .byte   N44 ,Gn3
 .byte   W30
 .byte   PEND 
@ 039   ----------------------------------------
 .byte   PATT
  .word Label_9_0143FAAF
@ 040   ----------------------------------------
 .byte   W96
@ 041   ----------------------------------------
 .byte   W96
@ 042   ----------------------------------------
 .byte   W96
@ 043   ----------------------------------------
 .byte   W96
@ 044   ----------------------------------------
 .byte   W96
@ 045   ----------------------------------------
 .byte   W96
@ 046   ----------------------------------------
 .byte   W96
@ 047   ----------------------------------------
 .byte   W96
@ 048   ----------------------------------------
 .byte   W96
@ 049   ----------------------------------------
 .byte   W96
@ 050   ----------------------------------------
 .byte   W96
@ 051   ----------------------------------------
 .byte   W96
@ 052   ----------------------------------------
 .byte   W09
 .byte   GOTO
  .word Label_9_0143FA52
@ 053   ----------------------------------------
 .byte   VOICE , 57
 .byte   VOL , 18*song01_mvl/mxv
 .byte   PAN , c_v+50
 .byte   BEND , c_v-2
 .byte   FINE

@**************** Track 11 (Midi-Chn.10) ****************@

song01_011:
@ 000   ----------------------------------------
 .byte   KEYSH , song01_key+0
Label_10_014B4F7A:
 .byte   VOICE , 127
 .byte   VOL , 9*song01_mvl/mxv
 .byte   PAN , c_v-4
 .byte   BEND , c_v-1
 .byte   W11
 .byte   N11 ,Cn1 ,v100
 .byte   N44 ,En2 ,v127
 .byte   W12
 .byte   N22 ,Cn1 ,v064
 .byte   W24
 .byte   N03 ,Cn1 ,v092
 .byte   W04
 .byte   Cn1 ,v064
 .byte   W04
 .byte   Cn1 ,v080
 .byte   W04
 .byte   N23 ,Cn1 ,v100
 .byte   W36
 .byte   N04 ,Cn1 ,v064
 .byte   W01
@ 001   ----------------------------------------
Label_10_014B4FA0:
 .byte   W05
 .byte   N04 ,Cn1 ,v040
 .byte   W06
 .byte   N11 ,Cn1 ,v100
 .byte   N44 ,En2 ,v127
 .byte   W12
 .byte   N22 ,Cn1 ,v080
 .byte   W24
 .byte   N04 ,Cn1 ,v064
 .byte   W06
 .byte   Cn1 ,v080
 .byte   W06
 .byte   N11 ,Cn1 ,v100
 .byte   N22 ,En2 ,v127
 .byte   W12
 .byte   N11 ,Cn1 ,v100
 .byte   W12
 .byte   N03 ,Cn1 ,v040
 .byte   N22 ,En2 ,v127
 .byte   W04
 .byte   N03 ,Cn1 ,v064
 .byte   W04
 .byte   Cn1 ,v040
 .byte   W04
 .byte   N11 ,Cn1 ,v100
 .byte   W01
 .byte   PEND 
@ 002   ----------------------------------------
Label_10_014B4FD5:
 .byte   W11
 .byte   N11 ,Cn1 ,v100
 .byte   N68 ,En2 ,v127
 .byte   W12
 .byte   N22 ,Cn1 ,v064
 .byte   W24
 .byte   N03 ,Cn1 ,v092
 .byte   W04
 .byte   Cn1 ,v064
 .byte   W04
 .byte   Cn1 ,v080
 .byte   W04
 .byte   N23 ,Cn1 ,v100
 .byte   W24
 .byte   N22 ,En2 ,v127
 .byte   W12
 .byte   N04 ,Cn1 ,v064
 .byte   W01
 .byte   PEND 
@ 003   ----------------------------------------
Label_10_014B4FF8:
 .byte   W05
 .byte   N04 ,Cn1 ,v040
 .byte   W06
 .byte   N11 ,Cn1 ,v100
 .byte   N44 ,En2 ,v127
 .byte   W12
 .byte   N22 ,Cn1 ,v080
 .byte   W24
 .byte   N04 ,Cn1 ,v064
 .byte   W06
 .byte   Cn1 ,v080
 .byte   W06
 .byte   N11 ,Cn1 ,v100
 .byte   N22 ,En2 ,v127
 .byte   W12
 .byte   N11 ,Cn1 ,v100
 .byte   W12
 .byte   N02
 .byte   N22 ,En2 ,v127
 .byte   W03
 .byte   N02 ,Cn1 ,v080
 .byte   W03
 .byte   Cn1 ,v064
 .byte   W03
 .byte   Cn1 ,v040
 .byte   W03
 .byte   Cn1 ,v032
 .byte   W01
 .byte   PEND 
@ 004   ----------------------------------------
Label_10_014B502D:
 .byte   W02
 .byte   N02 ,Cn1 ,v020
 .byte   W03
 .byte   Cn1 ,v012
 .byte   W03
 .byte   Cn1 ,v008
 .byte   W03
 .byte   N11 ,Cn1 ,v100
 .byte   N44 ,En2 ,v127
 .byte   W12
 .byte   N22 ,Cn1 ,v064
 .byte   W24
 .byte   N03 ,Cn1 ,v092
 .byte   W04
 .byte   Cn1 ,v064
 .byte   W04
 .byte   Cn1 ,v080
 .byte   W04
 .byte   N23 ,Cn1 ,v100
 .byte   W36
 .byte   N04 ,Cn1 ,v064
 .byte   W01
 .byte   PEND 
@ 005   ----------------------------------------
Label_10_014B5056:
 .byte   W05
 .byte   N04 ,Cn1 ,v040
 .byte   W06
 .byte   N11 ,Cn1 ,v100
 .byte   N44 ,En2 ,v127
 .byte   W12
 .byte   N22 ,Cn1 ,v080
 .byte   W24
 .byte   N04 ,Cn1 ,v064
 .byte   W06
 .byte   Cn1 ,v080
 .byte   W06
 .byte   N22 ,Cn1 ,v100
 .byte   N22 ,En2 ,v127
 .byte   W24
 .byte   N22
 .byte   W12
 .byte   N03 ,Cn1 ,v040
 .byte   W01
 .byte   PEND 
@ 006   ----------------------------------------
Label_10_014B507B:
 .byte   W03
 .byte   N03 ,Cn1 ,v064
 .byte   W04
 .byte   Cn1 ,v040
 .byte   W04
 .byte   N11 ,Cn1 ,v100
 .byte   N68 ,En2 ,v127
 .byte   W12
 .byte   N22 ,Cn1 ,v064
 .byte   W24
 .byte   N03 ,Cn1 ,v092
 .byte   W04
 .byte   Cn1 ,v064
 .byte   W04
 .byte   Cn1 ,v080
 .byte   W04
 .byte   N23 ,Cn1 ,v100
 .byte   W24
 .byte   N22 ,En2 ,v127
 .byte   W12
 .byte   N04 ,Cn1 ,v064
 .byte   W01
 .byte   PEND 
@ 007   ----------------------------------------
 .byte   PATT
  .word Label_10_014B4FF8
@ 008   ----------------------------------------
 .byte   PATT
  .word Label_10_014B502D
@ 009   ----------------------------------------
 .byte   PATT
  .word Label_10_014B5056
@ 010   ----------------------------------------
 .byte   PATT
  .word Label_10_014B507B
@ 011   ----------------------------------------
 .byte   PATT
  .word Label_10_014B4FF8
@ 012   ----------------------------------------
Label_10_014B50BE:
 .byte   W02
 .byte   N02 ,Cn1 ,v020
 .byte   W03
 .byte   Cn1 ,v012
 .byte   W03
 .byte   Cn1 ,v008
 .byte   W03
 .byte   N11 ,Cn1 ,v100
 .byte   N68 ,En2 ,v127
 .byte   W12
 .byte   N11 ,Cn1 ,v080
 .byte   W12
 .byte   N04
 .byte   W06
 .byte   Cn1 ,v064
 .byte   W06
 .byte   Cn1 ,v080
 .byte   W06
 .byte   Cn1 ,v040
 .byte   W06
 .byte   N11 ,Cn1 ,v100
 .byte   W12
 .byte   Cn1 ,v080
 .byte   W12
 .byte   N02
 .byte   N22 ,En2 ,v127
 .byte   W03
 .byte   N02 ,Cn1 ,v064
 .byte   W03
 .byte   Cn1 ,v040
 .byte   W03
 .byte   Cn1 ,v032
 .byte   W03
 .byte   N11 ,Cn1 ,v100
 .byte   W01
 .byte   PEND 
@ 013   ----------------------------------------
Label_10_014B50FA:
 .byte   W11
 .byte   N04 ,Cn1 ,v064
 .byte   N44 ,En2 ,v127
 .byte   W06
 .byte   N04 ,Cn1 ,v112
 .byte   W06
 .byte   Cn1 ,v064
 .byte   W06
 .byte   N04
 .byte   W06
 .byte   Cn1 ,v112
 .byte   W06
 .byte   Cn1 ,v064
 .byte   W06
 .byte   N04
 .byte   W06
 .byte   Cn1 ,v100
 .byte   W06
 .byte   N11
 .byte   N22 ,En2 ,v127
 .byte   W12
 .byte   N11 ,Cn1 ,v092
 .byte   W12
 .byte   N03 ,Cn1 ,v072
 .byte   N22 ,En2 ,v127
 .byte   W04
 .byte   N03 ,Cn1 ,v092
 .byte   W04
 .byte   Cn1 ,v072
 .byte   W04
 .byte   N04 ,Cn1 ,v100
 .byte   W01
 .byte   PEND 
@ 014   ----------------------------------------
Label_10_014B5132:
 .byte   W05
 .byte   N04 ,Cn1 ,v072
 .byte   W06
 .byte   N11 ,Cn1 ,v100
 .byte   N68 ,En2 ,v127
 .byte   W12
 .byte   N11 ,Cn1 ,v080
 .byte   W12
 .byte   N04
 .byte   W06
 .byte   Cn1 ,v064
 .byte   W06
 .byte   Cn1 ,v080
 .byte   W06
 .byte   Cn1 ,v040
 .byte   W06
 .byte   N11 ,Cn1 ,v100
 .byte   W12
 .byte   Cn1 ,v080
 .byte   W12
 .byte   N02
 .byte   N22 ,En2 ,v127
 .byte   W03
 .byte   N02 ,Cn1 ,v064
 .byte   W03
 .byte   Cn1 ,v040
 .byte   W03
 .byte   Cn1 ,v032
 .byte   W03
 .byte   N11 ,Cn1 ,v100
 .byte   W01
 .byte   PEND 
@ 015   ----------------------------------------
 .byte   PATT
  .word Label_10_014B50FA
@ 016   ----------------------------------------
 .byte   PATT
  .word Label_10_014B5132
@ 017   ----------------------------------------
 .byte   PATT
  .word Label_10_014B50FA
@ 018   ----------------------------------------
 .byte   PATT
  .word Label_10_014B5132
@ 019   ----------------------------------------
 .byte   PATT
  .word Label_10_014B50FA
@ 020   ----------------------------------------
 .byte   PATT
  .word Label_10_014B5132
@ 021   ----------------------------------------
 .byte   PATT
  .word Label_10_014B50FA
@ 022   ----------------------------------------
 .byte   PATT
  .word Label_10_014B5132
@ 023   ----------------------------------------
 .byte   PATT
  .word Label_10_014B50FA
@ 024   ----------------------------------------
 .byte   PATT
  .word Label_10_014B5132
@ 025   ----------------------------------------
 .byte   PATT
  .word Label_10_014B50FA
@ 026   ----------------------------------------
 .byte   PATT
  .word Label_10_014B5132
@ 027   ----------------------------------------
 .byte   PATT
  .word Label_10_014B50FA
@ 028   ----------------------------------------
Label_10_014B51A9:
 .byte   W05
 .byte   N04 ,Cn1 ,v072
 .byte   W06
 .byte   N11 ,Cn1 ,v100
 .byte   N44 ,En2 ,v127
 .byte   W12
 .byte   N11 ,Cn1 ,v080
 .byte   W12
 .byte   N04
 .byte   W06
 .byte   Cn1 ,v064
 .byte   W06
 .byte   Cn1 ,v080
 .byte   W06
 .byte   Cn1 ,v040
 .byte   W06
 .byte   N11 ,Cn1 ,v100
 .byte   N44 ,En2 ,v127
 .byte   W12
 .byte   N11 ,Cn1 ,v080
 .byte   W12
 .byte   N02
 .byte   W03
 .byte   Cn1 ,v064
 .byte   W03
 .byte   Cn1 ,v040
 .byte   W03
 .byte   Cn1 ,v032
 .byte   W03
 .byte   N11 ,Cn1 ,v100
 .byte   W01
 .byte   PEND 
@ 029   ----------------------------------------
 .byte   W11
 .byte   N04 ,Cn1 ,v064
 .byte   N44 ,En2 ,v127
 .byte   W06
 .byte   N04 ,Cn1 ,v112
 .byte   W06
 .byte   Cn1 ,v064
 .byte   W06
 .byte   N04
 .byte   W06
 .byte   Cn1 ,v112
 .byte   W06
 .byte   Cn1 ,v064
 .byte   W06
 .byte   N04
 .byte   W06
 .byte   Cn1 ,v100
 .byte   W06
 .byte   N11
 .byte   N44 ,En2 ,v127
 .byte   W12
 .byte   N11 ,Cn1 ,v092
 .byte   W12
 .byte   N03 ,Cn1 ,v072
 .byte   W04
 .byte   Cn1 ,v092
 .byte   W04
 .byte   Cn1 ,v072
 .byte   W04
 .byte   N04 ,Cn1 ,v100
 .byte   W01
@ 030   ----------------------------------------
 .byte   PATT
  .word Label_10_014B51A9
@ 031   ----------------------------------------
 .byte   PATT
  .word Label_10_014B50FA
@ 032   ----------------------------------------
 .byte   W05
 .byte   N04 ,Cn1 ,v072
 .byte   W06
 .byte   N11 ,Cn1 ,v100
 .byte   N44 ,En2 ,v127
 .byte   W12
 .byte   N22 ,Cn1 ,v064
 .byte   W24
 .byte   N03 ,Cn1 ,v092
 .byte   W04
 .byte   Cn1 ,v064
 .byte   W04
 .byte   Cn1 ,v080
 .byte   W04
 .byte   N23 ,Cn1 ,v100
 .byte   W36
 .byte   N04 ,Cn1 ,v064
 .byte   W01
@ 033   ----------------------------------------
 .byte   PATT
  .word Label_10_014B4FA0
@ 034   ----------------------------------------
 .byte   PATT
  .word Label_10_014B4FD5
@ 035   ----------------------------------------
 .byte   PATT
  .word Label_10_014B4FF8
@ 036   ----------------------------------------
 .byte   PATT
  .word Label_10_014B502D
@ 037   ----------------------------------------
 .byte   PATT
  .word Label_10_014B5056
@ 038   ----------------------------------------
 .byte   PATT
  .word Label_10_014B507B
@ 039   ----------------------------------------
 .byte   PATT
  .word Label_10_014B4FF8
@ 040   ----------------------------------------
 .byte   PATT
  .word Label_10_014B502D
@ 041   ----------------------------------------
 .byte   PATT
  .word Label_10_014B5056
@ 042   ----------------------------------------
 .byte   PATT
  .word Label_10_014B507B
@ 043   ----------------------------------------
 .byte   PATT
  .word Label_10_014B4FF8
@ 044   ----------------------------------------
 .byte   PATT
  .word Label_10_014B50BE
@ 045   ----------------------------------------
 .byte   PATT
  .word Label_10_014B50FA
@ 046   ----------------------------------------
 .byte   PATT
  .word Label_10_014B5132
@ 047   ----------------------------------------
 .byte   PATT
  .word Label_10_014B50FA
@ 048   ----------------------------------------
 .byte   PATT
  .word Label_10_014B5132
@ 049   ----------------------------------------
 .byte   PATT
  .word Label_10_014B50FA
@ 050   ----------------------------------------
 .byte   PATT
  .word Label_10_014B5132
@ 051   ----------------------------------------
 .byte   PATT
  .word Label_10_014B50FA
@ 052   ----------------------------------------
 .byte   W09
 .byte   GOTO
  .word Label_10_014B4F7A
@ 053   ----------------------------------------
 .byte   VOICE , 127
 .byte   VOL , 9*song01_mvl/mxv
 .byte   PAN , c_v-4
 .byte   BEND , c_v-1
 .byte   FINE

@**************** Track 12 (Midi-Chn.11) ****************@

song01_012:
@ 000   ----------------------------------------
 .byte   KEYSH , song01_key+0
Label_11_014B52AE:
 .byte   VOICE , 127
 .byte   VOL , 31*song01_mvl/mxv
 .byte   PAN , c_v+0
 .byte   BEND , c_v+0
 .byte   N12 ,Cn1 ,v100
 .byte   N42 ,Dn1 ,v127
 .byte   W12
 .byte   N22 ,Cn1 ,v064
 .byte   W24
 .byte   N03 ,Cn1 ,v092
 .byte   W04
 .byte   Cn1 ,v064
 .byte   W04
 .byte   Cn1 ,v080
 .byte   W04
 .byte   N23 ,Cn1 ,v100
 .byte   W36
 .byte   N04 ,Cn1 ,v064
 .byte   W06
 .byte   Cn1 ,v040
 .byte   W06
@ 001   ----------------------------------------
Label_11_014B52D6:
 .byte   N11 ,Cn1 ,v100
 .byte   N44 ,Dn1 ,v127
 .byte   W12
 .byte   N22 ,Cn1 ,v080
 .byte   W24
 .byte   N04 ,Cn1 ,v064
 .byte   W06
 .byte   Cn1 ,v080
 .byte   W06
 .byte   N11 ,Cn1 ,v100
 .byte   N22 ,Dn1 ,v127
 .byte   W12
 .byte   N11 ,Cn1 ,v100
 .byte   W12
 .byte   N03 ,Cn1 ,v040
 .byte   N22 ,Dn1 ,v127
 .byte   W04
 .byte   N03 ,Cn1 ,v064
 .byte   W04
 .byte   Cn1 ,v040
 .byte   W04
 .byte   N11 ,Cn1 ,v100
 .byte   W12
 .byte   PEND 
@ 002   ----------------------------------------
Label_11_014B5306:
 .byte   N11 ,Cn1 ,v100
 .byte   N68 ,Dn1 ,v127
 .byte   W12
 .byte   N22 ,Cn1 ,v064
 .byte   W24
 .byte   N03 ,Cn1 ,v092
 .byte   W04
 .byte   Cn1 ,v064
 .byte   W04
 .byte   Cn1 ,v080
 .byte   W04
 .byte   N23 ,Cn1 ,v100
 .byte   W24
 .byte   N22 ,Dn1 ,v127
 .byte   W12
 .byte   N04 ,Cn1 ,v064
 .byte   W06
 .byte   Cn1 ,v040
 .byte   W06
 .byte   PEND 
@ 003   ----------------------------------------
Label_11_014B532B:
 .byte   N11 ,Cn1 ,v100
 .byte   N44 ,Dn1 ,v127
 .byte   W12
 .byte   N22 ,Cn1 ,v080
 .byte   W24
 .byte   N04 ,Cn1 ,v064
 .byte   W06
 .byte   Cn1 ,v080
 .byte   W06
 .byte   N11 ,Cn1 ,v100
 .byte   N22 ,Dn1 ,v127
 .byte   W12
 .byte   N11 ,Cn1 ,v100
 .byte   W12
 .byte   N02
 .byte   N22 ,Dn1 ,v127
 .byte   W03
 .byte   N02 ,Cn1 ,v080
 .byte   W03
 .byte   Cn1 ,v064
 .byte   W03
 .byte   Cn1 ,v040
 .byte   W03
 .byte   Cn1 ,v032
 .byte   W03
 .byte   Cn1 ,v020
 .byte   W03
 .byte   Cn1 ,v012
 .byte   W03
 .byte   Cn1 ,v008
 .byte   W03
 .byte   PEND 
@ 004   ----------------------------------------
Label_11_014B5364:
 .byte   N11 ,Cn1 ,v100
 .byte   N44 ,Dn1 ,v127
 .byte   W12
 .byte   N22 ,Cn1 ,v064
 .byte   W24
 .byte   N03 ,Cn1 ,v092
 .byte   W04
 .byte   Cn1 ,v064
 .byte   W04
 .byte   Cn1 ,v080
 .byte   W04
 .byte   N23 ,Cn1 ,v100
 .byte   W36
 .byte   N04 ,Cn1 ,v064
 .byte   W06
 .byte   Cn1 ,v040
 .byte   W06
 .byte   PEND 
@ 005   ----------------------------------------
Label_11_014B5385:
 .byte   N11 ,Cn1 ,v100
 .byte   N44 ,Dn1 ,v127
 .byte   W12
 .byte   N22 ,Cn1 ,v080
 .byte   W24
 .byte   N04 ,Cn1 ,v064
 .byte   W06
 .byte   Cn1 ,v080
 .byte   W06
 .byte   N22 ,Cn1 ,v100
 .byte   N22 ,Dn1 ,v127
 .byte   W24
 .byte   N22
 .byte   W12
 .byte   N03 ,Cn1 ,v040
 .byte   W04
 .byte   Cn1 ,v064
 .byte   W04
 .byte   Cn1 ,v040
 .byte   W04
 .byte   PEND 
@ 006   ----------------------------------------
 .byte   PATT
  .word Label_11_014B5306
@ 007   ----------------------------------------
 .byte   PATT
  .word Label_11_014B532B
@ 008   ----------------------------------------
 .byte   PATT
  .word Label_11_014B5364
@ 009   ----------------------------------------
 .byte   PATT
  .word Label_11_014B5385
@ 010   ----------------------------------------
 .byte   PATT
  .word Label_11_014B5306
@ 011   ----------------------------------------
 .byte   PATT
  .word Label_11_014B532B
@ 012   ----------------------------------------
Label_11_014B53C9:
 .byte   N11 ,Cn1 ,v100
 .byte   N68 ,Dn1 ,v127
 .byte   W12
 .byte   N11 ,Cn1 ,v080
 .byte   W12
 .byte   N04
 .byte   W06
 .byte   Cn1 ,v064
 .byte   W06
 .byte   Cn1 ,v080
 .byte   W06
 .byte   Cn1 ,v040
 .byte   W06
 .byte   N11 ,Cn1 ,v100
 .byte   W12
 .byte   Cn1 ,v080
 .byte   W12
 .byte   N02
 .byte   N22 ,Dn1 ,v127
 .byte   W03
 .byte   N02 ,Cn1 ,v064
 .byte   W03
 .byte   Cn1 ,v040
 .byte   W03
 .byte   Cn1 ,v032
 .byte   W03
 .byte   N11 ,Cn1 ,v100
 .byte   W12
 .byte   PEND 
@ 013   ----------------------------------------
Label_11_014B53FA:
 .byte   N04 ,Cn1 ,v064
 .byte   N44 ,Dn1 ,v127
 .byte   W06
 .byte   N04 ,Cn1 ,v112
 .byte   W06
 .byte   Cn1 ,v064
 .byte   W06
 .byte   N04
 .byte   W06
 .byte   Cn1 ,v112
 .byte   W06
 .byte   Cn1 ,v064
 .byte   W06
 .byte   N04
 .byte   W06
 .byte   Cn1 ,v100
 .byte   W06
 .byte   N11
 .byte   N22 ,Dn1 ,v127
 .byte   W12
 .byte   N11 ,Cn1 ,v092
 .byte   W12
 .byte   N03 ,Cn1 ,v072
 .byte   N22 ,Dn1 ,v127
 .byte   W04
 .byte   N03 ,Cn1 ,v092
 .byte   W04
 .byte   Cn1 ,v072
 .byte   W04
 .byte   N04 ,Cn1 ,v100
 .byte   W06
 .byte   Cn1 ,v072
 .byte   W06
 .byte   PEND 
@ 014   ----------------------------------------
 .byte   PATT
  .word Label_11_014B53C9
@ 015   ----------------------------------------
 .byte   PATT
  .word Label_11_014B53FA
@ 016   ----------------------------------------
 .byte   PATT
  .word Label_11_014B53C9
@ 017   ----------------------------------------
 .byte   PATT
  .word Label_11_014B53FA
@ 018   ----------------------------------------
 .byte   PATT
  .word Label_11_014B53C9
@ 019   ----------------------------------------
 .byte   PATT
  .word Label_11_014B53FA
@ 020   ----------------------------------------
 .byte   PATT
  .word Label_11_014B53C9
@ 021   ----------------------------------------
 .byte   PATT
  .word Label_11_014B53FA
@ 022   ----------------------------------------
 .byte   PATT
  .word Label_11_014B53C9
@ 023   ----------------------------------------
 .byte   PATT
  .word Label_11_014B53FA
@ 024   ----------------------------------------
 .byte   PATT
  .word Label_11_014B53C9
@ 025   ----------------------------------------
 .byte   PATT
  .word Label_11_014B53FA
@ 026   ----------------------------------------
 .byte   PATT
  .word Label_11_014B53C9
@ 027   ----------------------------------------
 .byte   PATT
  .word Label_11_014B53FA
@ 028   ----------------------------------------
Label_11_014B547A:
 .byte   N11 ,Cn1 ,v100
 .byte   N44 ,Dn1 ,v127
 .byte   W12
 .byte   N11 ,Cn1 ,v080
 .byte   W12
 .byte   N04
 .byte   W06
 .byte   Cn1 ,v064
 .byte   W06
 .byte   Cn1 ,v080
 .byte   W06
 .byte   Cn1 ,v040
 .byte   W06
 .byte   N11 ,Cn1 ,v100
 .byte   N44 ,Dn1 ,v127
 .byte   W12
 .byte   N11 ,Cn1 ,v080
 .byte   W12
 .byte   N02
 .byte   W03
 .byte   Cn1 ,v064
 .byte   W03
 .byte   Cn1 ,v040
 .byte   W03
 .byte   Cn1 ,v032
 .byte   W03
 .byte   N11 ,Cn1 ,v100
 .byte   W12
 .byte   PEND 
@ 029   ----------------------------------------
 .byte   N04 ,Cn1 ,v064
 .byte   N44 ,Dn1 ,v127
 .byte   W06
 .byte   N04 ,Cn1 ,v112
 .byte   W06
 .byte   Cn1 ,v064
 .byte   W06
 .byte   N04
 .byte   W06
 .byte   Cn1 ,v112
 .byte   W06
 .byte   Cn1 ,v064
 .byte   W06
 .byte   N04
 .byte   W06
 .byte   Cn1 ,v100
 .byte   W06
 .byte   N11
 .byte   N44 ,Dn1 ,v127
 .byte   W12
 .byte   N11 ,Cn1 ,v092
 .byte   W12
 .byte   N03 ,Cn1 ,v072
 .byte   W04
 .byte   Cn1 ,v092
 .byte   W04
 .byte   Cn1 ,v072
 .byte   W04
 .byte   N04 ,Cn1 ,v100
 .byte   W06
 .byte   Cn1 ,v072
 .byte   W06
@ 030   ----------------------------------------
 .byte   PATT
  .word Label_11_014B547A
@ 031   ----------------------------------------
 .byte   PATT
  .word Label_11_014B53FA
@ 032   ----------------------------------------
Label_11_014B54EA:
 .byte   N11 ,Cn1 ,v100
 .byte   N44 ,Dn1 ,v127
 .byte   N92 ,En2 ,v100
 .byte   W12
 .byte   N22 ,Cn1 ,v064
 .byte   W24
 .byte   N03 ,Cn1 ,v092
 .byte   W04
 .byte   Cn1 ,v064
 .byte   W04
 .byte   Cn1 ,v080
 .byte   W04
 .byte   N23 ,Cn1 ,v100
 .byte   W36
 .byte   N04 ,Cn1 ,v064
 .byte   W06
 .byte   Cn1 ,v040
 .byte   W06
 .byte   PEND 
@ 033   ----------------------------------------
 .byte   PATT
  .word Label_11_014B52D6
@ 034   ----------------------------------------
Label_11_014B5513:
 .byte   N11 ,Cn1 ,v100
 .byte   N68 ,Dn1 ,v127
 .byte   N92 ,En2 ,v100
 .byte   W12
 .byte   N22 ,Cn1 ,v064
 .byte   W24
 .byte   N03 ,Cn1 ,v092
 .byte   W04
 .byte   Cn1 ,v064
 .byte   W04
 .byte   Cn1 ,v080
 .byte   W04
 .byte   N23 ,Cn1 ,v100
 .byte   W24
 .byte   N22 ,Dn1 ,v127
 .byte   W12
 .byte   N04 ,Cn1 ,v064
 .byte   W06
 .byte   Cn1 ,v040
 .byte   W06
 .byte   PEND 
@ 035   ----------------------------------------
 .byte   N11 ,Cn1 ,v100
 .byte   N44 ,Dn1 ,v127
 .byte   N44 ,En2 ,v100
 .byte   W12
 .byte   N22 ,Cn1 ,v080
 .byte   W24
 .byte   N04 ,Cn1 ,v064
 .byte   W06
 .byte   Cn1 ,v080
 .byte   W06
 .byte   N11 ,Cn1 ,v100
 .byte   N22 ,Dn1 ,v127
 .byte   N44 ,En2 ,v100
 .byte   W12
 .byte   N11 ,Cn1
 .byte   W12
 .byte   N02
 .byte   N22 ,Dn1 ,v127
 .byte   W03
 .byte   N02 ,Cn1 ,v080
 .byte   W03
 .byte   Cn1 ,v064
 .byte   W03
 .byte   Cn1 ,v040
 .byte   W03
 .byte   Cn1 ,v032
 .byte   W03
 .byte   Cn1 ,v020
 .byte   W03
 .byte   Cn1 ,v012
 .byte   W03
 .byte   Cn1 ,v008
 .byte   W03
@ 036   ----------------------------------------
 .byte   PATT
  .word Label_11_014B54EA
@ 037   ----------------------------------------
 .byte   N11 ,Cn1 ,v100
 .byte   N44 ,Dn1 ,v127
 .byte   N92 ,En2 ,v100
 .byte   W12
 .byte   N22 ,Cn1 ,v080
 .byte   W24
 .byte   N04 ,Cn1 ,v064
 .byte   W06
 .byte   Cn1 ,v080
 .byte   W06
 .byte   N22 ,Cn1 ,v100
 .byte   N22 ,Dn1 ,v127
 .byte   W24
 .byte   N22
 .byte   W12
 .byte   N03 ,Cn1 ,v040
 .byte   W04
 .byte   Cn1 ,v064
 .byte   W04
 .byte   Cn1 ,v040
 .byte   W04
@ 038   ----------------------------------------
 .byte   PATT
  .word Label_11_014B5513
@ 039   ----------------------------------------
 .byte   N11 ,Cn1 ,v100
 .byte   N44 ,Dn1 ,v127
 .byte   N44 ,En2 ,v100
 .byte   W12
 .byte   N22 ,Cn1 ,v080
 .byte   W24
 .byte   N04 ,Cn1 ,v064
 .byte   W06
 .byte   Cn1 ,v080
 .byte   W06
 .byte   N11 ,Cn1 ,v100
 .byte   N22 ,Dn1 ,v127
 .byte   N22 ,En2 ,v100
 .byte   W12
 .byte   N11 ,Cn1
 .byte   W12
 .byte   N02
 .byte   N22 ,Dn1 ,v127
 .byte   N22 ,En2 ,v100
 .byte   W03
 .byte   N02 ,Cn1 ,v080
 .byte   W03
 .byte   Cn1 ,v064
 .byte   W03
 .byte   Cn1 ,v040
 .byte   W03
 .byte   Cn1 ,v032
 .byte   W03
 .byte   Cn1 ,v020
 .byte   W03
 .byte   Cn1 ,v012
 .byte   W03
 .byte   Cn1 ,v008
 .byte   W03
@ 040   ----------------------------------------
 .byte   PATT
  .word Label_11_014B5364
@ 041   ----------------------------------------
 .byte   PATT
  .word Label_11_014B5385
@ 042   ----------------------------------------
 .byte   PATT
  .word Label_11_014B5306
@ 043   ----------------------------------------
 .byte   PATT
  .word Label_11_014B532B
@ 044   ----------------------------------------
 .byte   PATT
  .word Label_11_014B53C9
@ 045   ----------------------------------------
 .byte   PATT
  .word Label_11_014B53FA
@ 046   ----------------------------------------
 .byte   PATT
  .word Label_11_014B53C9
@ 047   ----------------------------------------
 .byte   PATT
  .word Label_11_014B53FA
@ 048   ----------------------------------------
 .byte   PATT
  .word Label_11_014B53C9
@ 049   ----------------------------------------
 .byte   PATT
  .word Label_11_014B53FA
@ 050   ----------------------------------------
 .byte   PATT
  .word Label_11_014B53C9
@ 051   ----------------------------------------
 .byte   PATT
  .word Label_11_014B53FA
@ 052   ----------------------------------------
 .byte   W09
 .byte   GOTO
  .word Label_11_014B52AE
@ 053   ----------------------------------------
 .byte   VOICE , 127
 .byte   VOL , 31*song01_mvl/mxv
 .byte   PAN , c_v+0
 .byte   BEND , c_v+0
 .byte   FINE

@******************************************************@
	.align	2

song01:
	.byte	12	@ NumTrks
	.byte	0	@ NumBlks
	.byte	song01_pri	@ Priority
	.byte	song01_rev	@ Reverb.
    
	.word	song01_grp
    
	.word	song01_001
	.word	song01_002
	.word	song01_003
	.word	song01_004
	.word	song01_005
	.word	song01_006
	.word	song01_007
	.word	song01_008
	.word	song01_009
	.word	song01_010
	.word	song01_011
	.word	song01_012

	.end
