//Event file generated from Sappy .s format.
	#include "MPlayDef.event"

	#define	Sussy_grp  voicegroup001
	#define	Sussy_pri  0
	#define	Sussy_rev  0
	#define	Sussy_mvl  127
	#define	Sussy_key  0
	#define	Sussy_tbs  1
	#define	Sussy_exg  0
	#define	Sussy_cmp  1

	// .rodata
	//	Sussy
	ALIGN 4


//**************** Track 1 (Midi-Chn.0) ****************//

Sussy_001:
// 000   ----------------------------------------
 BYTE   KEYSH   Sussy_key+0
Label_0_014B4C4E:
 BYTE   TEMPO   96*Sussy_tbs/2
 BYTE   VOICE   60
 BYTE   VOL   31*Sussy_mvl/mxv
 BYTE   PAN   c_v+0
 BYTE   BEND   c_v+0
 BYTE   W96
// 001   ----------------------------------------
 BYTE   W96
// 002   ----------------------------------------
 BYTE   W96
// 003   ----------------------------------------
 BYTE   W96
// 004   ----------------------------------------
 BYTE   N32  Cn2  v120
 BYTE   W36
 BYTE   TIE  Gn2
 BYTE   W60
// 005   ----------------------------------------
 BYTE   W56
 BYTE   W03
 BYTE   EOT
 BYTE   W13
 BYTE   N22  Cn3
 BYTE   W24
// 006   ----------------------------------------
 BYTE   N36  Dn3
 BYTE   W48
 BYTE   N44  As2
 BYTE   W48
// 007   ----------------------------------------
 BYTE   N80  Fn2
 BYTE   W96
// 008   ----------------------------------------
 BYTE   N88  Cn1  v112
 BYTE   N88  Gn1
 BYTE   W96
// 009   ----------------------------------------
 BYTE   Fn1
 BYTE   N88  Cn2
 BYTE   W96
// 010   ----------------------------------------
 BYTE   Gn1
 BYTE   N88  Dn2
 BYTE   W96
// 011   ----------------------------------------
 BYTE   As1
 BYTE   N88  Fn2
 BYTE   W96
// 012   ----------------------------------------
 BYTE   W96
// 013   ----------------------------------------
 BYTE   W96
// 014   ----------------------------------------
 BYTE   W96
// 015   ----------------------------------------
 BYTE   W96
// 016   ----------------------------------------
Label_0_014B4C89:
 BYTE   N44  Cn3  v120
 BYTE   W48
 BYTE   N22  Gn2
 BYTE   W24
 BYTE   Cn2
 BYTE   W24
 BYTE   PEND 
// 017   ----------------------------------------
Label_0_014B4C93:
 BYTE   N42  As2  v120
 BYTE   W48
 BYTE   An2
 BYTE   W48
 BYTE   PEND 
// 018   ----------------------------------------
Label_0_014B4C9A:
 BYTE   N16  Gn2  v120
 BYTE   W18
 BYTE   Cn3
 BYTE   W18
 BYTE   N11  Dn3
 BYTE   W12
 BYTE   N42  Fn3
 BYTE   W48
 BYTE   PEND 
// 019   ----------------------------------------
 BYTE   N88  Dn3
 BYTE   W96
// 020   ----------------------------------------
 BYTE   PATT
  POIN2 Label_0_014B4C89
// 021   ----------------------------------------
 BYTE   PATT
  POIN2 Label_0_014B4C93
// 022   ----------------------------------------
 BYTE   PATT
  POIN2 Label_0_014B4C9A
// 023   ----------------------------------------
 BYTE   N44  Gn3  v120
 BYTE   W48
 BYTE   N22  Cn3
 BYTE   W24
 BYTE   Gn3
 BYTE   W24
// 024   ----------------------------------------
 BYTE   N88  Gn1  v108
 BYTE   N88  Cn2
 BYTE   W96
// 025   ----------------------------------------
Label_0_014B4CC8:
 BYTE   N44  Gn1  v108
 BYTE   N44  Ds2
 BYTE   W48
 BYTE   Cn2
 BYTE   N44  Fn2
 BYTE   W48
 BYTE   PEND 
// 026   ----------------------------------------
 BYTE   N88  Gn1
 BYTE   N88  Cn2
 BYTE   W96
// 027   ----------------------------------------
 BYTE   PATT
  POIN2 Label_0_014B4CC8
// 028   ----------------------------------------
 BYTE   N88  Gn1  v108
 BYTE   N88  Cn2
 BYTE   W96
// 029   ----------------------------------------
 BYTE   PATT
  POIN2 Label_0_014B4CC8
// 030   ----------------------------------------
 BYTE   N88  Gn1  v108
 BYTE   N88  Cn2
 BYTE   W96
// 031   ----------------------------------------
 BYTE   PATT
  POIN2 Label_0_014B4CC8
// 032   ----------------------------------------
 BYTE   N92  Cs2  v112
 BYTE   N92  Gs2
 BYTE   W96
// 033   ----------------------------------------
 BYTE   N44  Ds2
 BYTE   N44  As2
 BYTE   W48
 BYTE   Cn2
 BYTE   N44  Gn2
 BYTE   W48
// 034   ----------------------------------------
 BYTE   N92  As1
 BYTE   N92  Fn2
 BYTE   W96
// 035   ----------------------------------------
 BYTE   N44  Cn2
 BYTE   N44  Gn2
 BYTE   W48
 BYTE   Gs1
 BYTE   N44  Ds2
 BYTE   W48
// 036   ----------------------------------------
 BYTE   N88  Gn1
 BYTE   N88  Dn2
 BYTE   W96
// 037   ----------------------------------------
 BYTE   Gn1
 BYTE   N88  Dn2
 BYTE   W96
// 038   ----------------------------------------
 BYTE   Gn1
 BYTE   N88  Dn2
 BYTE   W96
// 039   ----------------------------------------
 BYTE   Gn1
 BYTE   N88  Dn2
 BYTE   W96
// 040   ----------------------------------------
Label_0_014B4D21:
 BYTE   N32  Gn2  v120
 BYTE   W36
 BYTE   N06  Cn2
 BYTE   W06
 BYTE   Gn2
 BYTE   W06
 BYTE   N22  Cn3
 BYTE   W24
 BYTE   Fn3
 BYTE   W24
 BYTE   PEND 
// 041   ----------------------------------------
Label_0_014B4D30:
 BYTE   N32  Gn3  v120
 BYTE   W36
 BYTE   N11  Cn3
 BYTE   W12
 BYTE   N22
 BYTE   W24
 BYTE   As3
 BYTE   W24
 BYTE   PEND 
// 042   ----------------------------------------
Label_0_014B4D3C:
 BYTE   N42  An3  v120
 BYTE   W48
 BYTE   Cn3
 BYTE   W48
 BYTE   PEND 
// 043   ----------------------------------------
Label_0_014B4D43:
 BYTE   N42  An3  v120
 BYTE   W48
 BYTE   N22  Fn3
 BYTE   W24
 BYTE   An3
 BYTE   W24
 BYTE   PEND 
// 044   ----------------------------------------
 BYTE   TIE  Gn3
 BYTE   W96
// 045   ----------------------------------------
 BYTE   W68
 BYTE   W03
 BYTE   EOT
 BYTE   W24
 BYTE   W01
// 046   ----------------------------------------
 BYTE   PATT
  POIN2 Label_0_014B4D21
// 047   ----------------------------------------
 BYTE   PATT
  POIN2 Label_0_014B4D30
// 048   ----------------------------------------
 BYTE   PATT
  POIN2 Label_0_014B4D3C
// 049   ----------------------------------------
 BYTE   PATT
  POIN2 Label_0_014B4D43
// 050   ----------------------------------------
 BYTE   TIE  Gn3  v120
 BYTE   W96
// 051   ----------------------------------------
 BYTE   W68
 BYTE   W03
 BYTE   EOT
 BYTE   W24
 BYTE   W01
// 052   ----------------------------------------
 BYTE   W09
 BYTE   GoTo
  POIN2 Label_0_014B4C4E
// 053   ----------------------------------------
 BYTE   TEMPO   96*Sussy_tbs/2
 BYTE   VOICE   60
 BYTE   VOL   31*Sussy_mvl/mxv
 BYTE   PAN   c_v+0
 BYTE   BEND   c_v+0
 BYTE   FINE

//**************** Track 2 (Midi-Chn.1) ****************//

Sussy_002:
// 000   ----------------------------------------
 BYTE   KEYSH   Sussy_key+0
Label_1_01440712:
 BYTE   VOICE   56
 BYTE   VOL   29*Sussy_mvl/mxv
 BYTE   PAN   c_v-14
 BYTE   MOD 5
 BYTE   BEND   c_v+0
 BYTE   W96
// 001   ----------------------------------------
 BYTE   W96
// 002   ----------------------------------------
 BYTE   W96
// 003   ----------------------------------------
 BYTE   W96
// 004   ----------------------------------------
 BYTE   W96
// 005   ----------------------------------------
 BYTE   W96
// 006   ----------------------------------------
 BYTE   W96
// 007   ----------------------------------------
 BYTE   W96
// 008   ----------------------------------------
Label_1_01440724:
 BYTE   N28  Gn3  v104
 BYTE   W36
 BYTE   N03  Cn3
 BYTE   W06
 BYTE   N03
 BYTE   W06
 BYTE   N36  Gn3
 BYTE   W48
 BYTE   PEND 
// 009   ----------------------------------------
Label_1_01440731:
 BYTE   N03  Cn3  v104
 BYTE   W06
 BYTE   Gn3
 BYTE   W06
 BYTE   N04  Cn3
 BYTE   W12
 BYTE   N56  Gn3
 BYTE   W72
 BYTE   PEND 
// 010   ----------------------------------------
 BYTE   PATT
  POIN2 Label_1_01440724
// 011   ----------------------------------------
 BYTE   PATT
  POIN2 Label_1_01440731
// 012   ----------------------------------------
 BYTE   W96
// 013   ----------------------------------------
 BYTE   W96
// 014   ----------------------------------------
 BYTE   W96
// 015   ----------------------------------------
 BYTE   W96
// 016   ----------------------------------------
 BYTE   W96
// 017   ----------------------------------------
 BYTE   W96
// 018   ----------------------------------------
 BYTE   W96
// 019   ----------------------------------------
 BYTE   W96
// 020   ----------------------------------------
Label_1_01440750:
 BYTE   N04  Cn4  v104
 BYTE   W12
 BYTE   N03  Gn3
 BYTE   W06
 BYTE   Cn4
 BYTE   W06
 BYTE   N56  Fn4
 BYTE   W72
 BYTE   PEND 
// 021   ----------------------------------------
 BYTE   N03  Gn4
 BYTE   W06
 BYTE   Cn4
 BYTE   W06
 BYTE   N03
 BYTE   W06
 BYTE   Gn4
 BYTE   W06
 BYTE   N56  Cn4
 BYTE   W72
// 022   ----------------------------------------
 BYTE   PATT
  POIN2 Label_1_01440750
// 023   ----------------------------------------
 BYTE   N03  As4  v104
 BYTE   W06
 BYTE   Cn4
 BYTE   W06
 BYTE   N03
 BYTE   W06
 BYTE   As4
 BYTE   W06
 BYTE   N22  An4
 BYTE   W24
 BYTE   N42  Gn4
 BYTE   W48
// 024   ----------------------------------------
 BYTE   N03  Cn5
 BYTE   W06
 BYTE   Gn4
 BYTE   W06
 BYTE   Fn4
 BYTE   W06
 BYTE   As4
 BYTE   W06
 BYTE   N56  Gn4
 BYTE   W72
// 025   ----------------------------------------
 BYTE   N03  Dn5
 BYTE   W06
 BYTE   Gn4
 BYTE   W06
 BYTE   Cn5
 BYTE   W06
 BYTE   Dn5
 BYTE   W06
 BYTE   N56  Gn4
 BYTE   W72
// 026   ----------------------------------------
 BYTE   N03  Cn5
 BYTE   W06
 BYTE   Fn4
 BYTE   W06
 BYTE   Gn4
 BYTE   W06
 BYTE   As4
 BYTE   W06
 BYTE   N56  Dn4
 BYTE   W72
// 027   ----------------------------------------
 BYTE   N03  Gn4
 BYTE   W06
 BYTE   Cn4
 BYTE   W06
 BYTE   Gn4
 BYTE   W06
 BYTE   Cn5
 BYTE   W06
 BYTE   N56  As4
 BYTE   W72
// 028   ----------------------------------------
Label_1_014407AE:
 BYTE   N03  Cn4  v092
 BYTE   W12
 BYTE   N03
 BYTE   W24
 BYTE   N02
 BYTE   W04
 BYTE   N02
 BYTE   W04
 BYTE   N02
 BYTE   W04
 BYTE   N03
 BYTE   W12
 BYTE   N03
 BYTE   W36
 BYTE   PEND 
// 029   ----------------------------------------
 BYTE   PATT
  POIN2 Label_1_014407AE
// 030   ----------------------------------------
 BYTE   PATT
  POIN2 Label_1_014407AE
// 031   ----------------------------------------
 BYTE   PATT
  POIN2 Label_1_014407AE
// 032   ----------------------------------------
 BYTE   W96
// 033   ----------------------------------------
 BYTE   W96
// 034   ----------------------------------------
 BYTE   W96
// 035   ----------------------------------------
 BYTE   W96
// 036   ----------------------------------------
 BYTE   W96
// 037   ----------------------------------------
 BYTE   W96
// 038   ----------------------------------------
 BYTE   W96
// 039   ----------------------------------------
 BYTE   W96
// 040   ----------------------------------------
 BYTE   W96
// 041   ----------------------------------------
 BYTE   W96
// 042   ----------------------------------------
 BYTE   W96
// 043   ----------------------------------------
 BYTE   W96
// 044   ----------------------------------------
 BYTE   W96
// 045   ----------------------------------------
 BYTE   W96
// 046   ----------------------------------------
Label_1_014407DC:
 BYTE   N03  Gn4  v104
 BYTE   W06
 BYTE   Cn4
 BYTE   W06
 BYTE   N03
 BYTE   W06
 BYTE   Gn4
 BYTE   W06
 BYTE   N03
 BYTE   W06
 BYTE   Cn4
 BYTE   W06
 BYTE   N03
 BYTE   W06
 BYTE   Gn4
 BYTE   W06
 BYTE   N42
 BYTE   W48
 BYTE   PEND 
// 047   ----------------------------------------
Label_1_014407F1:
 BYTE   N04  Cn4  v104
 BYTE   W12
 BYTE   N02
 BYTE   W04
 BYTE   N02
 BYTE   W04
 BYTE   N02
 BYTE   W04
 BYTE   N56  Gn4
 BYTE   W72
 BYTE   PEND 
// 048   ----------------------------------------
 BYTE   PATT
  POIN2 Label_1_014407DC
// 049   ----------------------------------------
 BYTE   PATT
  POIN2 Label_1_014407F1
// 050   ----------------------------------------
 BYTE   W96
// 051   ----------------------------------------
 BYTE   W96
// 052   ----------------------------------------
 BYTE   W09
 BYTE   GoTo
  POIN2 Label_1_01440712
// 053   ----------------------------------------
 BYTE   VOICE   56
 BYTE   VOL   29*Sussy_mvl/mxv
 BYTE   PAN   c_v-14
 BYTE   MOD 5
 BYTE   BEND   c_v+0
 BYTE   FINE

//**************** Track 3 (Midi-Chn.2) ****************//

Sussy_003:
// 000   ----------------------------------------
 BYTE   KEYSH   Sussy_key+0
Label_2_0143FD6A:
 BYTE   VOICE   57
 BYTE   VOL   29*Sussy_mvl/mxv
 BYTE   PAN   c_v+16
 BYTE   MOD 5
 BYTE   BEND   c_v+0
 BYTE   W96
// 001   ----------------------------------------
 BYTE   W96
// 002   ----------------------------------------
 BYTE   W96
// 003   ----------------------------------------
 BYTE   W96
// 004   ----------------------------------------
 BYTE   W96
// 005   ----------------------------------------
 BYTE   W96
// 006   ----------------------------------------
 BYTE   W96
// 007   ----------------------------------------
 BYTE   W96
// 008   ----------------------------------------
 BYTE   W96
// 009   ----------------------------------------
 BYTE   W96
// 010   ----------------------------------------
 BYTE   W96
// 011   ----------------------------------------
 BYTE   W96
// 012   ----------------------------------------
 BYTE   W96
// 013   ----------------------------------------
 BYTE   W96
// 014   ----------------------------------------
 BYTE   W96
// 015   ----------------------------------------
 BYTE   W96
// 016   ----------------------------------------
 BYTE   W96
// 017   ----------------------------------------
 BYTE   W96
// 018   ----------------------------------------
 BYTE   W96
// 019   ----------------------------------------
 BYTE   W96
// 020   ----------------------------------------
 BYTE   W96
// 021   ----------------------------------------
 BYTE   W96
// 022   ----------------------------------------
 BYTE   W96
// 023   ----------------------------------------
 BYTE   W96
// 024   ----------------------------------------
 BYTE   W96
// 025   ----------------------------------------
 BYTE   W96
// 026   ----------------------------------------
 BYTE   W96
// 027   ----------------------------------------
 BYTE   W96
// 028   ----------------------------------------
 BYTE   W96
// 029   ----------------------------------------
 BYTE   W96
// 030   ----------------------------------------
 BYTE   W96
// 031   ----------------------------------------
 BYTE   W96
// 032   ----------------------------------------
 BYTE   N32  Cs3  v104
 BYTE   W36
 BYTE   N11  Cn3
 BYTE   W12
 BYTE   N16  Ds3
 BYTE   W18
 BYTE   Cs3
 BYTE   W18
 BYTE   N11  Cn3
 BYTE   W12
// 033   ----------------------------------------
 BYTE   N44  As2
 BYTE   W48
 BYTE   N22  Cn3
 BYTE   W24
 BYTE   Ds3
 BYTE   W24
// 034   ----------------------------------------
 BYTE   N32  Fn3
 BYTE   W36
 BYTE   N11  As2
 BYTE   W12
 BYTE   N44  Fn3
 BYTE   W48
// 035   ----------------------------------------
 BYTE   Gn3
 BYTE   W48
 BYTE   Ds3
 BYTE   W48
// 036   ----------------------------------------
 BYTE   N64  Fn3
 BYTE   W72
 BYTE   N11  Ds3
 BYTE   W12
 BYTE   Fn3
 BYTE   W12
// 037   ----------------------------------------
 BYTE   N88  Gn3
 BYTE   W96
// 038   ----------------------------------------
Label_2_0143FDC3:
 BYTE   N32  Gs3  v104
 BYTE   W36
 BYTE   N06  Gn3
 BYTE   W06
 BYTE   Gs3
 BYTE   W06
 BYTE   N44  Gn3
 BYTE   W48
 BYTE   PEND 
// 039   ----------------------------------------
 BYTE   PATT
  POIN2 Label_2_0143FDC3
// 040   ----------------------------------------
 BYTE   MOD 14
 BYTE   N88  Cn1  v096
 BYTE   N88  Gn1
 BYTE   W96
// 041   ----------------------------------------
 BYTE   Cn1
 BYTE   N88  Gn1
 BYTE   W96
// 042   ----------------------------------------
 BYTE   Cn1
 BYTE   N88  Gn1
 BYTE   W96
// 043   ----------------------------------------
 BYTE   Cn1
 BYTE   N88  Gn1
 BYTE   W96
// 044   ----------------------------------------
 BYTE   Cn1
 BYTE   N88  Gn1
 BYTE   W96
// 045   ----------------------------------------
 BYTE   Cn1
 BYTE   N88  Gn1
 BYTE   W96
// 046   ----------------------------------------
 BYTE   Cn1
 BYTE   N88  Gn1
 BYTE   W96
// 047   ----------------------------------------
 BYTE   Cn1
 BYTE   N88  Gn1
 BYTE   W96
// 048   ----------------------------------------
 BYTE   Cn1
 BYTE   N88  Gn1
 BYTE   W96
// 049   ----------------------------------------
 BYTE   Cn1
 BYTE   N88  Gn1
 BYTE   W96
// 050   ----------------------------------------
Label_2_0143FE01:
 BYTE   N88  Cn1  v096
 BYTE   N88  Gn1
 BYTE   N88  Cn2
 BYTE   W96
 BYTE   PEND 
// 051   ----------------------------------------
 BYTE   PATT
  POIN2 Label_2_0143FE01
// 052   ----------------------------------------
 BYTE   W09
 BYTE   GoTo
  POIN2 Label_2_0143FD6A
// 053   ----------------------------------------
 BYTE   VOICE   57
 BYTE   VOL   29*Sussy_mvl/mxv
 BYTE   PAN   c_v+16
 BYTE   MOD 5
 BYTE   BEND   c_v+0
 BYTE   FINE

//**************** Track 4 (Midi-Chn.3) ****************//

Sussy_004:
// 000   ----------------------------------------
 BYTE   KEYSH   Sussy_key+0
Label_3_0143F872:
 BYTE   VOICE   47
 BYTE   VOL   19*Sussy_mvl/mxv
 BYTE   PAN   c_v+0
 BYTE   BEND   c_v+0
 BYTE   W96
// 001   ----------------------------------------
 BYTE   W96
// 002   ----------------------------------------
 BYTE   W96
// 003   ----------------------------------------
 BYTE   W96
// 004   ----------------------------------------
 BYTE   W96
// 005   ----------------------------------------
 BYTE   W96
// 006   ----------------------------------------
 BYTE   W96
// 007   ----------------------------------------
 BYTE   W96
// 008   ----------------------------------------
 BYTE   W96
// 009   ----------------------------------------
 BYTE   W96
// 010   ----------------------------------------
 BYTE   W96
// 011   ----------------------------------------
 BYTE   W96
// 012   ----------------------------------------
Label_3_0143F886:
 BYTE   N23  Cn1  v127
 BYTE   W36
 BYTE   N03
 BYTE   W04
 BYTE   N03
 BYTE   W04
 BYTE   N03
 BYTE   W04
 BYTE   N14  Cn2
 BYTE   W12
 BYTE   Gn1
 BYTE   W12
 BYTE   Cn2
 BYTE   W12
 BYTE   Gn1
 BYTE   W12
 BYTE   PEND 
// 013   ----------------------------------------
Label_3_0143F89A:
 BYTE   N22  Cn1  v127
 BYTE   W36
 BYTE   N04
 BYTE   W06
 BYTE   N11
 BYTE   W18
 BYTE   Cn2
 BYTE   W24
 BYTE   N11
 BYTE   W12
 BYTE   PEND 
// 014   ----------------------------------------
 BYTE   PATT
  POIN2 Label_3_0143F886
// 015   ----------------------------------------
 BYTE   PATT
  POIN2 Label_3_0143F89A
// 016   ----------------------------------------
 BYTE   W96
// 017   ----------------------------------------
 BYTE   W96
// 018   ----------------------------------------
 BYTE   W96
// 019   ----------------------------------------
 BYTE   W96
// 020   ----------------------------------------
 BYTE   W96
// 021   ----------------------------------------
 BYTE   W96
// 022   ----------------------------------------
 BYTE   W96
// 023   ----------------------------------------
 BYTE   W96
// 024   ----------------------------------------
 BYTE   W96
// 025   ----------------------------------------
 BYTE   W96
// 026   ----------------------------------------
 BYTE   W96
// 027   ----------------------------------------
 BYTE   W96
// 028   ----------------------------------------
 BYTE   PATT
  POIN2 Label_3_0143F886
// 029   ----------------------------------------
 BYTE   PATT
  POIN2 Label_3_0143F89A
// 030   ----------------------------------------
 BYTE   PATT
  POIN2 Label_3_0143F886
// 031   ----------------------------------------
 BYTE   PATT
  POIN2 Label_3_0143F89A
// 032   ----------------------------------------
 BYTE   PATT
  POIN2 Label_3_0143F886
// 033   ----------------------------------------
 BYTE   PATT
  POIN2 Label_3_0143F89A
// 034   ----------------------------------------
 BYTE   PATT
  POIN2 Label_3_0143F886
// 035   ----------------------------------------
 BYTE   PATT
  POIN2 Label_3_0143F89A
// 036   ----------------------------------------
 BYTE   PATT
  POIN2 Label_3_0143F886
// 037   ----------------------------------------
 BYTE   PATT
  POIN2 Label_3_0143F89A
// 038   ----------------------------------------
 BYTE   PATT
  POIN2 Label_3_0143F886
// 039   ----------------------------------------
 BYTE   PATT
  POIN2 Label_3_0143F89A
// 040   ----------------------------------------
 BYTE   PATT
  POIN2 Label_3_0143F886
// 041   ----------------------------------------
 BYTE   PATT
  POIN2 Label_3_0143F89A
// 042   ----------------------------------------
 BYTE   PATT
  POIN2 Label_3_0143F886
// 043   ----------------------------------------
 BYTE   PATT
  POIN2 Label_3_0143F89A
// 044   ----------------------------------------
 BYTE   PATT
  POIN2 Label_3_0143F886
// 045   ----------------------------------------
 BYTE   PATT
  POIN2 Label_3_0143F89A
// 046   ----------------------------------------
 BYTE   PATT
  POIN2 Label_3_0143F886
// 047   ----------------------------------------
 BYTE   PATT
  POIN2 Label_3_0143F89A
// 048   ----------------------------------------
 BYTE   PATT
  POIN2 Label_3_0143F886
// 049   ----------------------------------------
 BYTE   PATT
  POIN2 Label_3_0143F89A
// 050   ----------------------------------------
 BYTE   PATT
  POIN2 Label_3_0143F886
// 051   ----------------------------------------
 BYTE   PATT
  POIN2 Label_3_0143F89A
// 052   ----------------------------------------
 BYTE   W09
 BYTE   GoTo
  POIN2 Label_3_0143F872
// 053   ----------------------------------------
 BYTE   VOICE   47
 BYTE   VOL   19*Sussy_mvl/mxv
 BYTE   PAN   c_v+0
 BYTE   BEND   c_v+0
 BYTE   FINE

//**************** Track 5 (Midi-Chn.4) ****************//

Sussy_005:
// 000   ----------------------------------------
 BYTE   KEYSH   Sussy_key+0
Label_4_0144081E:
 BYTE   VOICE   60
 BYTE   VOL   17*Sussy_mvl/mxv
 BYTE   PAN   c_v-50
 BYTE   BEND   c_v-1
 BYTE   W96
// 001   ----------------------------------------
 BYTE   W96
// 002   ----------------------------------------
 BYTE   W96
// 003   ----------------------------------------
 BYTE   W96
// 004   ----------------------------------------
 BYTE   W12
 BYTE   N32  Cn2  v096
 BYTE   W36
 BYTE   TIE  Gn2
 BYTE   W48
// 005   ----------------------------------------
 BYTE   W68
 BYTE   W03
 BYTE   EOT
 BYTE   W13
 BYTE   N22  Cn3
 BYTE   W12
// 006   ----------------------------------------
 BYTE   W12
 BYTE   N36  Dn3
 BYTE   W48
 BYTE   N44  As2
 BYTE   W36
// 007   ----------------------------------------
 BYTE   W12
 BYTE   N92  Fn2
 BYTE   W84
// 008   ----------------------------------------
 BYTE   W96
// 009   ----------------------------------------
 BYTE   W96
// 010   ----------------------------------------
 BYTE   W96
// 011   ----------------------------------------
 BYTE   W96
// 012   ----------------------------------------
 BYTE   W96
// 013   ----------------------------------------
 BYTE   W96
// 014   ----------------------------------------
 BYTE   W96
// 015   ----------------------------------------
 BYTE   W96
// 016   ----------------------------------------
Label_4_0144084C:
 BYTE   W12
 BYTE   N44  Cn3  v096
 BYTE   W48
 BYTE   N22  Gn2
 BYTE   W24
 BYTE   Cn2
 BYTE   W12
 BYTE   PEND 
// 017   ----------------------------------------
Label_4_01440857:
 BYTE   W12
 BYTE   N42  As2  v096
 BYTE   W48
 BYTE   An2
 BYTE   W36
 BYTE   PEND 
// 018   ----------------------------------------
Label_4_0144085F:
 BYTE   W12
 BYTE   N16  Gn2  v096
 BYTE   W18
 BYTE   Cn3
 BYTE   W18
 BYTE   N11  Dn3
 BYTE   W12
 BYTE   N42  Fn3
 BYTE   W36
 BYTE   PEND 
// 019   ----------------------------------------
 BYTE   W12
 BYTE   N88  Dn3
 BYTE   W84
// 020   ----------------------------------------
 BYTE   PATT
  POIN2 Label_4_0144084C
// 021   ----------------------------------------
 BYTE   PATT
  POIN2 Label_4_01440857
// 022   ----------------------------------------
 BYTE   PATT
  POIN2 Label_4_0144085F
// 023   ----------------------------------------
 BYTE   W12
 BYTE   N44  Gn3  v096
 BYTE   W48
 BYTE   N22  Cn3
 BYTE   W24
 BYTE   Gn3
 BYTE   W12
// 024   ----------------------------------------
 BYTE   W96
// 025   ----------------------------------------
 BYTE   W96
// 026   ----------------------------------------
 BYTE   W96
// 027   ----------------------------------------
 BYTE   W96
// 028   ----------------------------------------
 BYTE   W96
// 029   ----------------------------------------
 BYTE   W96
// 030   ----------------------------------------
 BYTE   W96
// 031   ----------------------------------------
 BYTE   W96
// 032   ----------------------------------------
 BYTE   W96
// 033   ----------------------------------------
 BYTE   W96
// 034   ----------------------------------------
 BYTE   W96
// 035   ----------------------------------------
 BYTE   W96
// 036   ----------------------------------------
 BYTE   W96
// 037   ----------------------------------------
 BYTE   W96
// 038   ----------------------------------------
 BYTE   W96
// 039   ----------------------------------------
 BYTE   W96
// 040   ----------------------------------------
Label_4_0144089A:
 BYTE   W12
 BYTE   N32  Gn2  v112
 BYTE   W36
 BYTE   N06  Cn2
 BYTE   W06
 BYTE   Gn2
 BYTE   W06
 BYTE   N22  Cn3
 BYTE   W24
 BYTE   Fn3
 BYTE   W12
 BYTE   PEND 
// 041   ----------------------------------------
Label_4_014408AA:
 BYTE   W12
 BYTE   N32  Gn3  v112
 BYTE   W36
 BYTE   N11  Cn3
 BYTE   W12
 BYTE   N22
 BYTE   W24
 BYTE   As3
 BYTE   W12
 BYTE   PEND 
// 042   ----------------------------------------
Label_4_014408B7:
 BYTE   W12
 BYTE   N42  An3  v112
 BYTE   W48
 BYTE   Cn3
 BYTE   W36
 BYTE   PEND 
// 043   ----------------------------------------
Label_4_014408BF:
 BYTE   W12
 BYTE   N42  An3  v112
 BYTE   W48
 BYTE   N22  Fn3
 BYTE   W24
 BYTE   An3
 BYTE   W12
 BYTE   PEND 
// 044   ----------------------------------------
Label_4_014408CA:
 BYTE   W12
 BYTE   TIE  Gn3  v112
 BYTE   W84
 BYTE   PEND 
// 045   ----------------------------------------
 BYTE   W80
 BYTE   W03
 BYTE   EOT
 BYTE   W13
// 046   ----------------------------------------
 BYTE   PATT
  POIN2 Label_4_0144089A
// 047   ----------------------------------------
 BYTE   PATT
  POIN2 Label_4_014408AA
// 048   ----------------------------------------
 BYTE   PATT
  POIN2 Label_4_014408B7
// 049   ----------------------------------------
 BYTE   PATT
  POIN2 Label_4_014408BF
// 050   ----------------------------------------
 BYTE   PATT
  POIN2 Label_4_014408CA
// 051   ----------------------------------------
 BYTE   W72
 BYTE   W01
 BYTE   EOT
 BYTE   Gn3
 BYTE   W23
// 052   ----------------------------------------
 BYTE   W09
 BYTE   GoTo
  POIN2 Label_4_0144081E
// 053   ----------------------------------------
 BYTE   VOICE   60
 BYTE   VOL   17*Sussy_mvl/mxv
 BYTE   PAN   c_v-50
 BYTE   BEND   c_v-1
 BYTE   FINE

//**************** Track 6 (Midi-Chn.5) ****************//

Sussy_006:
// 000   ----------------------------------------
 BYTE   KEYSH   Sussy_key+0
Label_5_0144045E:
 BYTE   VOICE   60
 BYTE   VOL   17*Sussy_mvl/mxv
 BYTE   PAN   c_v+50
 BYTE   BEND   c_v-2
 BYTE   W96
// 001   ----------------------------------------
 BYTE   W96
// 002   ----------------------------------------
 BYTE   W96
// 003   ----------------------------------------
 BYTE   W96
// 004   ----------------------------------------
 BYTE   W18
 BYTE   N32  Cn2  v096
 BYTE   W36
 BYTE   TIE  Gn2
 BYTE   W42
// 005   ----------------------------------------
 BYTE   W76
 BYTE   W01
 BYTE   EOT
 BYTE   W13
 BYTE   N22  Cn3
 BYTE   W06
// 006   ----------------------------------------
 BYTE   W18
 BYTE   N36  Dn3
 BYTE   W48
 BYTE   N44  As2
 BYTE   W30
// 007   ----------------------------------------
 BYTE   W18
 BYTE   N92  Fn2
 BYTE   W78
// 008   ----------------------------------------
 BYTE   W96
// 009   ----------------------------------------
 BYTE   W96
// 010   ----------------------------------------
 BYTE   W96
// 011   ----------------------------------------
 BYTE   W96
// 012   ----------------------------------------
 BYTE   W96
// 013   ----------------------------------------
 BYTE   W96
// 014   ----------------------------------------
 BYTE   W96
// 015   ----------------------------------------
 BYTE   W96
// 016   ----------------------------------------
Label_5_0144048C:
 BYTE   W18
 BYTE   N44  Cn3  v096
 BYTE   W48
 BYTE   N22  Gn2
 BYTE   W24
 BYTE   Cn2
 BYTE   W06
 BYTE   PEND 
// 017   ----------------------------------------
Label_5_01440497:
 BYTE   W18
 BYTE   N42  As2  v096
 BYTE   W48
 BYTE   An2
 BYTE   W30
 BYTE   PEND 
// 018   ----------------------------------------
Label_5_0144049F:
 BYTE   W18
 BYTE   N16  Gn2  v096
 BYTE   W18
 BYTE   Cn3
 BYTE   W18
 BYTE   N11  Dn3
 BYTE   W12
 BYTE   N42  Fn3
 BYTE   W30
 BYTE   PEND 
// 019   ----------------------------------------
 BYTE   W18
 BYTE   N88  Dn3
 BYTE   W78
// 020   ----------------------------------------
 BYTE   PATT
  POIN2 Label_5_0144048C
// 021   ----------------------------------------
 BYTE   PATT
  POIN2 Label_5_01440497
// 022   ----------------------------------------
 BYTE   PATT
  POIN2 Label_5_0144049F
// 023   ----------------------------------------
 BYTE   W18
 BYTE   N44  Gn3  v096
 BYTE   W48
 BYTE   N22  Cn3
 BYTE   W24
 BYTE   Gn3
 BYTE   W06
// 024   ----------------------------------------
 BYTE   W96
// 025   ----------------------------------------
 BYTE   W96
// 026   ----------------------------------------
 BYTE   W96
// 027   ----------------------------------------
 BYTE   W96
// 028   ----------------------------------------
 BYTE   W96
// 029   ----------------------------------------
 BYTE   W96
// 030   ----------------------------------------
 BYTE   W96
// 031   ----------------------------------------
 BYTE   W96
// 032   ----------------------------------------
 BYTE   W96
// 033   ----------------------------------------
 BYTE   W96
// 034   ----------------------------------------
 BYTE   W96
// 035   ----------------------------------------
 BYTE   W96
// 036   ----------------------------------------
 BYTE   W96
// 037   ----------------------------------------
 BYTE   W96
// 038   ----------------------------------------
 BYTE   W96
// 039   ----------------------------------------
 BYTE   W96
// 040   ----------------------------------------
Label_5_014404DA:
 BYTE   W18
 BYTE   N32  Gn2  v112
 BYTE   W36
 BYTE   N06  Cn2
 BYTE   W06
 BYTE   Gn2
 BYTE   W06
 BYTE   N22  Cn3
 BYTE   W24
 BYTE   Fn3
 BYTE   W06
 BYTE   PEND 
// 041   ----------------------------------------
Label_5_014404EA:
 BYTE   W18
 BYTE   N32  Gn3  v112
 BYTE   W36
 BYTE   N11  Cn3
 BYTE   W12
 BYTE   N22
 BYTE   W24
 BYTE   As3
 BYTE   W06
 BYTE   PEND 
// 042   ----------------------------------------
Label_5_014404F7:
 BYTE   W18
 BYTE   N42  An3  v112
 BYTE   W48
 BYTE   Cn3
 BYTE   W30
 BYTE   PEND 
// 043   ----------------------------------------
Label_5_014404FF:
 BYTE   W18
 BYTE   N42  An3  v112
 BYTE   W48
 BYTE   N22  Fn3
 BYTE   W24
 BYTE   An3
 BYTE   W06
 BYTE   PEND 
// 044   ----------------------------------------
Label_5_0144050A:
 BYTE   W18
 BYTE   TIE  Gn3  v112
 BYTE   W78
 BYTE   PEND 
// 045   ----------------------------------------
 BYTE   W88
 BYTE   W01
 BYTE   EOT
 BYTE   W07
// 046   ----------------------------------------
 BYTE   PATT
  POIN2 Label_5_014404DA
// 047   ----------------------------------------
 BYTE   PATT
  POIN2 Label_5_014404EA
// 048   ----------------------------------------
 BYTE   PATT
  POIN2 Label_5_014404F7
// 049   ----------------------------------------
 BYTE   PATT
  POIN2 Label_5_014404FF
// 050   ----------------------------------------
 BYTE   PATT
  POIN2 Label_5_0144050A
// 051   ----------------------------------------
 BYTE   W78
 BYTE   W01
 BYTE   EOT
 BYTE   Gn3
 BYTE   W17
// 052   ----------------------------------------
 BYTE   W09
 BYTE   GoTo
  POIN2 Label_5_0144045E
// 053   ----------------------------------------
 BYTE   VOICE   60
 BYTE   VOL   17*Sussy_mvl/mxv
 BYTE   PAN   c_v+50
 BYTE   BEND   c_v-2
 BYTE   FINE

//**************** Track 7 (Midi-Chn.6) ****************//

Sussy_007:
// 000   ----------------------------------------
 BYTE   KEYSH   Sussy_key+0
Label_6_0143FFC6:
 BYTE   VOICE   56
 BYTE   VOL   17*Sussy_mvl/mxv
 BYTE   PAN   c_v-50
 BYTE   BEND   c_v-1
 BYTE   W96
// 001   ----------------------------------------
 BYTE   W96
// 002   ----------------------------------------
 BYTE   W96
// 003   ----------------------------------------
 BYTE   W96
// 004   ----------------------------------------
 BYTE   W96
// 005   ----------------------------------------
 BYTE   W96
// 006   ----------------------------------------
 BYTE   W96
// 007   ----------------------------------------
 BYTE   W96
// 008   ----------------------------------------
Label_6_0143FFD6:
 BYTE   W12
 BYTE   N28  Gn3  v104
 BYTE   W36
 BYTE   N03  Cn3
 BYTE   W06
 BYTE   N03
 BYTE   W06
 BYTE   N36  Gn3
 BYTE   W36
 BYTE   PEND 
// 009   ----------------------------------------
Label_6_0143FFE4:
 BYTE   W12
 BYTE   N03  Cn3  v104
 BYTE   W06
 BYTE   Gn3
 BYTE   W06
 BYTE   N04  Cn3
 BYTE   W12
 BYTE   N56  Gn3
 BYTE   W60
 BYTE   PEND 
// 010   ----------------------------------------
 BYTE   PATT
  POIN2 Label_6_0143FFD6
// 011   ----------------------------------------
 BYTE   PATT
  POIN2 Label_6_0143FFE4
// 012   ----------------------------------------
 BYTE   W96
// 013   ----------------------------------------
 BYTE   W96
// 014   ----------------------------------------
 BYTE   W96
// 015   ----------------------------------------
 BYTE   W96
// 016   ----------------------------------------
 BYTE   W96
// 017   ----------------------------------------
 BYTE   W96
// 018   ----------------------------------------
 BYTE   W96
// 019   ----------------------------------------
 BYTE   W96
// 020   ----------------------------------------
Label_6_01440004:
 BYTE   W12
 BYTE   N04  Cn4  v104
 BYTE   W12
 BYTE   N03  Gn3
 BYTE   W06
 BYTE   Cn4
 BYTE   W06
 BYTE   N56  Fn4
 BYTE   W60
 BYTE   PEND 
// 021   ----------------------------------------
 BYTE   W12
 BYTE   N03  Gn4
 BYTE   W06
 BYTE   Cn4
 BYTE   W06
 BYTE   N03
 BYTE   W06
 BYTE   Gn4
 BYTE   W06
 BYTE   N56  Cn4
 BYTE   W60
// 022   ----------------------------------------
 BYTE   PATT
  POIN2 Label_6_01440004
// 023   ----------------------------------------
 BYTE   W12
 BYTE   N03  As4  v104
 BYTE   W06
 BYTE   Cn4
 BYTE   W06
 BYTE   N03
 BYTE   W06
 BYTE   As4
 BYTE   W06
 BYTE   N22  An4
 BYTE   W24
 BYTE   N42  Gn4
 BYTE   W36
// 024   ----------------------------------------
 BYTE   W12
 BYTE   N03  Cn5
 BYTE   W06
 BYTE   Gn4
 BYTE   W06
 BYTE   Fn4
 BYTE   W06
 BYTE   As4
 BYTE   W06
 BYTE   N56  Gn4
 BYTE   W60
// 025   ----------------------------------------
 BYTE   W12
 BYTE   N03  Dn5
 BYTE   W06
 BYTE   Gn4
 BYTE   W06
 BYTE   Cn5
 BYTE   W06
 BYTE   Dn5
 BYTE   W06
 BYTE   N56  Gn4
 BYTE   W60
// 026   ----------------------------------------
 BYTE   W12
 BYTE   N03  Cn5
 BYTE   W06
 BYTE   Fn4
 BYTE   W06
 BYTE   Gn4
 BYTE   W06
 BYTE   As4
 BYTE   W06
 BYTE   N56  Dn4
 BYTE   W60
// 027   ----------------------------------------
 BYTE   W12
 BYTE   N03  Gn4
 BYTE   W06
 BYTE   Cn4
 BYTE   W06
 BYTE   Gn4
 BYTE   W06
 BYTE   Cn5
 BYTE   W06
 BYTE   N56  As4
 BYTE   W60
// 028   ----------------------------------------
Label_6_01440069:
 BYTE   W12
 BYTE   N03  Cn4  v104
 BYTE   W12
 BYTE   N03
 BYTE   W24
 BYTE   N02
 BYTE   W04
 BYTE   N02
 BYTE   W04
 BYTE   N02
 BYTE   W04
 BYTE   N03
 BYTE   W12
 BYTE   N03
 BYTE   W24
 BYTE   PEND 
// 029   ----------------------------------------
 BYTE   PATT
  POIN2 Label_6_01440069
// 030   ----------------------------------------
 BYTE   PATT
  POIN2 Label_6_01440069
// 031   ----------------------------------------
 BYTE   PATT
  POIN2 Label_6_01440069
// 032   ----------------------------------------
 BYTE   W96
// 033   ----------------------------------------
 BYTE   W96
// 034   ----------------------------------------
 BYTE   W96
// 035   ----------------------------------------
 BYTE   W96
// 036   ----------------------------------------
 BYTE   W96
// 037   ----------------------------------------
 BYTE   W96
// 038   ----------------------------------------
 BYTE   W96
// 039   ----------------------------------------
 BYTE   W96
// 040   ----------------------------------------
 BYTE   W96
// 041   ----------------------------------------
 BYTE   W96
// 042   ----------------------------------------
 BYTE   W96
// 043   ----------------------------------------
 BYTE   W96
// 044   ----------------------------------------
 BYTE   W96
// 045   ----------------------------------------
 BYTE   W96
// 046   ----------------------------------------
Label_6_01440098:
 BYTE   W12
 BYTE   N03  Gn4  v104
 BYTE   W06
 BYTE   Cn4
 BYTE   W06
 BYTE   N03
 BYTE   W06
 BYTE   Gn4
 BYTE   W06
 BYTE   N03
 BYTE   W06
 BYTE   Cn4
 BYTE   W06
 BYTE   N03
 BYTE   W06
 BYTE   Gn4
 BYTE   W06
 BYTE   N42
 BYTE   W36
 BYTE   PEND 
// 047   ----------------------------------------
Label_6_014400AE:
 BYTE   W12
 BYTE   N04  Cn4  v104
 BYTE   W12
 BYTE   N02
 BYTE   W04
 BYTE   N02
 BYTE   W04
 BYTE   N02
 BYTE   W04
 BYTE   N56  Gn4
 BYTE   W60
 BYTE   PEND 
// 048   ----------------------------------------
 BYTE   PATT
  POIN2 Label_6_01440098
// 049   ----------------------------------------
 BYTE   PATT
  POIN2 Label_6_014400AE
// 050   ----------------------------------------
 BYTE   W96
// 051   ----------------------------------------
 BYTE   W96
// 052   ----------------------------------------
 BYTE   W09
 BYTE   GoTo
  POIN2 Label_6_0143FFC6
// 053   ----------------------------------------
 BYTE   VOICE   56
 BYTE   VOL   17*Sussy_mvl/mxv
 BYTE   PAN   c_v-50
 BYTE   BEND   c_v-1
 BYTE   FINE

//**************** Track 8 (Midi-Chn.7) ****************//

Sussy_008:
// 000   ----------------------------------------
 BYTE   KEYSH   Sussy_key+0
Label_7_014B48CA:
 BYTE   VOICE   56
 BYTE   VOL   12*Sussy_mvl/mxv
 BYTE   PAN   c_v+50
 BYTE   BEND   c_v-2
 BYTE   W96
// 001   ----------------------------------------
 BYTE   W96
// 002   ----------------------------------------
 BYTE   W96
// 003   ----------------------------------------
 BYTE   W96
// 004   ----------------------------------------
 BYTE   W96
// 005   ----------------------------------------
 BYTE   W96
// 006   ----------------------------------------
 BYTE   W96
// 007   ----------------------------------------
 BYTE   W96
// 008   ----------------------------------------
Label_7_014B48DA:
 BYTE   W18
 BYTE   N28  Gn3  v104
 BYTE   W36
 BYTE   N03  Cn3
 BYTE   W06
 BYTE   N03
 BYTE   W06
 BYTE   N36  Gn3
 BYTE   W30
 BYTE   PEND 
// 009   ----------------------------------------
Label_7_014B48E8:
 BYTE   W18
 BYTE   N03  Cn3  v104
 BYTE   W06
 BYTE   Gn3
 BYTE   W06
 BYTE   N04  Cn3
 BYTE   W12
 BYTE   N56  Gn3
 BYTE   W54
 BYTE   PEND 
// 010   ----------------------------------------
 BYTE   PATT
  POIN2 Label_7_014B48DA
// 011   ----------------------------------------
 BYTE   PATT
  POIN2 Label_7_014B48E8
// 012   ----------------------------------------
 BYTE   W96
// 013   ----------------------------------------
 BYTE   W96
// 014   ----------------------------------------
 BYTE   W96
// 015   ----------------------------------------
 BYTE   W96
// 016   ----------------------------------------
 BYTE   W96
// 017   ----------------------------------------
 BYTE   W96
// 018   ----------------------------------------
 BYTE   W96
// 019   ----------------------------------------
 BYTE   W96
// 020   ----------------------------------------
Label_7_014B4908:
 BYTE   W18
 BYTE   N04  Cn4  v104
 BYTE   W12
 BYTE   N03  Gn3
 BYTE   W06
 BYTE   Cn4
 BYTE   W06
 BYTE   N56  Fn4
 BYTE   W54
 BYTE   PEND 
// 021   ----------------------------------------
 BYTE   W18
 BYTE   N03  Gn4
 BYTE   W06
 BYTE   Cn4
 BYTE   W06
 BYTE   N03
 BYTE   W06
 BYTE   Gn4
 BYTE   W06
 BYTE   N56  Cn4
 BYTE   W54
// 022   ----------------------------------------
 BYTE   PATT
  POIN2 Label_7_014B4908
// 023   ----------------------------------------
 BYTE   W18
 BYTE   N03  As4  v104
 BYTE   W06
 BYTE   Cn4
 BYTE   W06
 BYTE   N03
 BYTE   W06
 BYTE   As4
 BYTE   W06
 BYTE   N22  An4
 BYTE   W24
 BYTE   N42  Gn4
 BYTE   W30
// 024   ----------------------------------------
 BYTE   W18
 BYTE   N03  Cn5
 BYTE   W06
 BYTE   Gn4
 BYTE   W06
 BYTE   Fn4
 BYTE   W06
 BYTE   As4
 BYTE   W06
 BYTE   N56  Gn4
 BYTE   W54
// 025   ----------------------------------------
 BYTE   W18
 BYTE   N03  Dn5
 BYTE   W06
 BYTE   Gn4
 BYTE   W06
 BYTE   Cn5
 BYTE   W06
 BYTE   Dn5
 BYTE   W06
 BYTE   N56  Gn4
 BYTE   W54
// 026   ----------------------------------------
 BYTE   W18
 BYTE   N03  Cn5
 BYTE   W06
 BYTE   Fn4
 BYTE   W06
 BYTE   Gn4
 BYTE   W06
 BYTE   As4
 BYTE   W06
 BYTE   N56  Dn4
 BYTE   W54
// 027   ----------------------------------------
 BYTE   W18
 BYTE   N03  Gn4
 BYTE   W06
 BYTE   Cn4
 BYTE   W06
 BYTE   Gn4
 BYTE   W06
 BYTE   Cn5
 BYTE   W06
 BYTE   N56  As4
 BYTE   W54
// 028   ----------------------------------------
Label_7_014B496D:
 BYTE   W18
 BYTE   N03  Cn4  v104
 BYTE   W12
 BYTE   N03
 BYTE   W24
 BYTE   N02
 BYTE   W04
 BYTE   N02
 BYTE   W04
 BYTE   N02
 BYTE   W04
 BYTE   N03
 BYTE   W12
 BYTE   N03
 BYTE   W18
 BYTE   PEND 
// 029   ----------------------------------------
 BYTE   PATT
  POIN2 Label_7_014B496D
// 030   ----------------------------------------
 BYTE   PATT
  POIN2 Label_7_014B496D
// 031   ----------------------------------------
 BYTE   PATT
  POIN2 Label_7_014B496D
// 032   ----------------------------------------
 BYTE   W96
// 033   ----------------------------------------
 BYTE   W96
// 034   ----------------------------------------
 BYTE   W96
// 035   ----------------------------------------
 BYTE   W96
// 036   ----------------------------------------
 BYTE   W96
// 037   ----------------------------------------
 BYTE   W96
// 038   ----------------------------------------
 BYTE   W96
// 039   ----------------------------------------
 BYTE   W96
// 040   ----------------------------------------
 BYTE   W96
// 041   ----------------------------------------
 BYTE   W96
// 042   ----------------------------------------
 BYTE   W96
// 043   ----------------------------------------
 BYTE   W96
// 044   ----------------------------------------
 BYTE   W96
// 045   ----------------------------------------
 BYTE   W96
// 046   ----------------------------------------
Label_7_014B499C:
 BYTE   W18
 BYTE   N03  Gn4  v104
 BYTE   W06
 BYTE   Cn4
 BYTE   W06
 BYTE   N03
 BYTE   W06
 BYTE   Gn4
 BYTE   W06
 BYTE   N03
 BYTE   W06
 BYTE   Cn4
 BYTE   W06
 BYTE   N03
 BYTE   W06
 BYTE   Gn4
 BYTE   W06
 BYTE   N42
 BYTE   W30
 BYTE   PEND 
// 047   ----------------------------------------
Label_7_014B49B2:
 BYTE   W18
 BYTE   N04  Cn4  v104
 BYTE   W12
 BYTE   N02
 BYTE   W04
 BYTE   N02
 BYTE   W04
 BYTE   N02
 BYTE   W04
 BYTE   N56  Gn4
 BYTE   W54
 BYTE   PEND 
// 048   ----------------------------------------
 BYTE   PATT
  POIN2 Label_7_014B499C
// 049   ----------------------------------------
 BYTE   PATT
  POIN2 Label_7_014B49B2
// 050   ----------------------------------------
 BYTE   W96
// 051   ----------------------------------------
 BYTE   W96
// 052   ----------------------------------------
 BYTE   W09
 BYTE   GoTo
  POIN2 Label_7_014B48CA
// 053   ----------------------------------------
 BYTE   VOICE   56
 BYTE   VOL   12*Sussy_mvl/mxv
 BYTE   PAN   c_v+50
 BYTE   BEND   c_v-2
 BYTE   FINE

//**************** Track 9 (Midi-Chn.8) ****************//

Sussy_009:
// 000   ----------------------------------------
 BYTE   KEYSH   Sussy_key+0
Label_8_0143F642:
 BYTE   VOICE   57
 BYTE   VOL   18*Sussy_mvl/mxv
 BYTE   PAN   c_v-50
 BYTE   BEND   c_v-1
 BYTE   W96
// 001   ----------------------------------------
 BYTE   W96
// 002   ----------------------------------------
 BYTE   W96
// 003   ----------------------------------------
 BYTE   W96
// 004   ----------------------------------------
 BYTE   W96
// 005   ----------------------------------------
 BYTE   W96
// 006   ----------------------------------------
 BYTE   W96
// 007   ----------------------------------------
 BYTE   W96
// 008   ----------------------------------------
 BYTE   W96
// 009   ----------------------------------------
 BYTE   W96
// 010   ----------------------------------------
 BYTE   W96
// 011   ----------------------------------------
 BYTE   W96
// 012   ----------------------------------------
 BYTE   W96
// 013   ----------------------------------------
 BYTE   W96
// 014   ----------------------------------------
 BYTE   W96
// 015   ----------------------------------------
 BYTE   W96
// 016   ----------------------------------------
 BYTE   W96
// 017   ----------------------------------------
 BYTE   W96
// 018   ----------------------------------------
 BYTE   W96
// 019   ----------------------------------------
 BYTE   W96
// 020   ----------------------------------------
 BYTE   W96
// 021   ----------------------------------------
 BYTE   W96
// 022   ----------------------------------------
 BYTE   W96
// 023   ----------------------------------------
 BYTE   W96
// 024   ----------------------------------------
 BYTE   W96
// 025   ----------------------------------------
 BYTE   W96
// 026   ----------------------------------------
 BYTE   W96
// 027   ----------------------------------------
 BYTE   W96
// 028   ----------------------------------------
 BYTE   W96
// 029   ----------------------------------------
 BYTE   W96
// 030   ----------------------------------------
 BYTE   W96
// 031   ----------------------------------------
 BYTE   W96
// 032   ----------------------------------------
 BYTE   W11
 BYTE   N32  Cs3  v104
 BYTE   W36
 BYTE   N11  Cn3
 BYTE   W12
 BYTE   N16  Ds3
 BYTE   W18
 BYTE   Cs3
 BYTE   W18
 BYTE   N11  Cn3
 BYTE   W01
// 033   ----------------------------------------
 BYTE   W11
 BYTE   N44  As2
 BYTE   W48
 BYTE   N22  Cn3
 BYTE   W24
 BYTE   Ds3
 BYTE   W13
// 034   ----------------------------------------
 BYTE   W11
 BYTE   N32  Fn3
 BYTE   W36
 BYTE   N11  As2
 BYTE   W12
 BYTE   N44  Fn3
 BYTE   W36
 BYTE   W01
// 035   ----------------------------------------
 BYTE   W11
 BYTE   Gn3
 BYTE   W48
 BYTE   Ds3
 BYTE   W36
 BYTE   W01
// 036   ----------------------------------------
 BYTE   W11
 BYTE   N64  Fn3
 BYTE   W72
 BYTE   N11  Ds3
 BYTE   W12
 BYTE   Fn3
 BYTE   W01
// 037   ----------------------------------------
 BYTE   W11
 BYTE   N88  Gn3
 BYTE   W84
 BYTE   W01
// 038   ----------------------------------------
Label_8_0143F6A2:
 BYTE   W11
 BYTE   N32  Gs3  v104
 BYTE   W36
 BYTE   N06  Gn3
 BYTE   W06
 BYTE   Gs3
 BYTE   W06
 BYTE   N44  Gn3
 BYTE   W36
 BYTE   W01
 BYTE   PEND 
// 039   ----------------------------------------
 BYTE   PATT
  POIN2 Label_8_0143F6A2
// 040   ----------------------------------------
 BYTE   W96
// 041   ----------------------------------------
 BYTE   W96
// 042   ----------------------------------------
 BYTE   W96
// 043   ----------------------------------------
 BYTE   W96
// 044   ----------------------------------------
 BYTE   W96
// 045   ----------------------------------------
 BYTE   W96
// 046   ----------------------------------------
 BYTE   W96
// 047   ----------------------------------------
 BYTE   W96
// 048   ----------------------------------------
 BYTE   W96
// 049   ----------------------------------------
 BYTE   W96
// 050   ----------------------------------------
 BYTE   W96
// 051   ----------------------------------------
 BYTE   W96
// 052   ----------------------------------------
 BYTE   W09
 BYTE   GoTo
  POIN2 Label_8_0143F642
// 053   ----------------------------------------
 BYTE   VOICE   57
 BYTE   VOL   18*Sussy_mvl/mxv
 BYTE   PAN   c_v-50
 BYTE   BEND   c_v-1
 BYTE   FINE

//**************** Track 10 (Midi-Chn.9) ****************//

Sussy_010:
// 000   ----------------------------------------
 BYTE   KEYSH   Sussy_key+0
Label_9_0143FA52:
 BYTE   VOICE   57
 BYTE   VOL   18*Sussy_mvl/mxv
 BYTE   PAN   c_v+50
 BYTE   BEND   c_v-2
 BYTE   W96
// 001   ----------------------------------------
 BYTE   W96
// 002   ----------------------------------------
 BYTE   W96
// 003   ----------------------------------------
 BYTE   W96
// 004   ----------------------------------------
 BYTE   W96
// 005   ----------------------------------------
 BYTE   W96
// 006   ----------------------------------------
 BYTE   W96
// 007   ----------------------------------------
 BYTE   W96
// 008   ----------------------------------------
 BYTE   W96
// 009   ----------------------------------------
 BYTE   W96
// 010   ----------------------------------------
 BYTE   W96
// 011   ----------------------------------------
 BYTE   W96
// 012   ----------------------------------------
 BYTE   W96
// 013   ----------------------------------------
 BYTE   W96
// 014   ----------------------------------------
 BYTE   W96
// 015   ----------------------------------------
 BYTE   W96
// 016   ----------------------------------------
 BYTE   W96
// 017   ----------------------------------------
 BYTE   W96
// 018   ----------------------------------------
 BYTE   W96
// 019   ----------------------------------------
 BYTE   W96
// 020   ----------------------------------------
 BYTE   W96
// 021   ----------------------------------------
 BYTE   W96
// 022   ----------------------------------------
 BYTE   W96
// 023   ----------------------------------------
 BYTE   W96
// 024   ----------------------------------------
 BYTE   W96
// 025   ----------------------------------------
 BYTE   W96
// 026   ----------------------------------------
 BYTE   W96
// 027   ----------------------------------------
 BYTE   W96
// 028   ----------------------------------------
 BYTE   W96
// 029   ----------------------------------------
 BYTE   W96
// 030   ----------------------------------------
 BYTE   W96
// 031   ----------------------------------------
 BYTE   W96
// 032   ----------------------------------------
 BYTE   W18
 BYTE   N32  Cs3  v104
 BYTE   W36
 BYTE   N11  Cn3
 BYTE   W12
 BYTE   N16  Ds3
 BYTE   W18
 BYTE   Cs3
 BYTE   W12
// 033   ----------------------------------------
 BYTE   W06
 BYTE   N11  Cn3
 BYTE   W12
 BYTE   N44  As2
 BYTE   W48
 BYTE   N22  Cn3
 BYTE   W24
 BYTE   Ds3
 BYTE   W06
// 034   ----------------------------------------
 BYTE   W18
 BYTE   N32  Fn3
 BYTE   W36
 BYTE   N11  As2
 BYTE   W12
 BYTE   N44  Fn3
 BYTE   W30
// 035   ----------------------------------------
 BYTE   W18
 BYTE   Gn3
 BYTE   W48
 BYTE   Ds3
 BYTE   W30
// 036   ----------------------------------------
 BYTE   W18
 BYTE   N64  Fn3
 BYTE   W72
 BYTE   N11  Ds3
 BYTE   W06
// 037   ----------------------------------------
 BYTE   W06
 BYTE   Fn3
 BYTE   W12
 BYTE   N88  Gn3
 BYTE   W78
// 038   ----------------------------------------
Label_9_0143FAAF:
 BYTE   W18
 BYTE   N32  Gs3  v104
 BYTE   W36
 BYTE   N06  Gn3
 BYTE   W06
 BYTE   Gs3
 BYTE   W06
 BYTE   N44  Gn3
 BYTE   W30
 BYTE   PEND 
// 039   ----------------------------------------
 BYTE   PATT
  POIN2 Label_9_0143FAAF
// 040   ----------------------------------------
 BYTE   W96
// 041   ----------------------------------------
 BYTE   W96
// 042   ----------------------------------------
 BYTE   W96
// 043   ----------------------------------------
 BYTE   W96
// 044   ----------------------------------------
 BYTE   W96
// 045   ----------------------------------------
 BYTE   W96
// 046   ----------------------------------------
 BYTE   W96
// 047   ----------------------------------------
 BYTE   W96
// 048   ----------------------------------------
 BYTE   W96
// 049   ----------------------------------------
 BYTE   W96
// 050   ----------------------------------------
 BYTE   W96
// 051   ----------------------------------------
 BYTE   W96
// 052   ----------------------------------------
 BYTE   W09
 BYTE   GoTo
  POIN2 Label_9_0143FA52
// 053   ----------------------------------------
 BYTE   VOICE   57
 BYTE   VOL   18*Sussy_mvl/mxv
 BYTE   PAN   c_v+50
 BYTE   BEND   c_v-2
 BYTE   FINE

//**************** Track 11 (Midi-Chn.10) ****************//

Sussy_011:
// 000   ----------------------------------------
 BYTE   KEYSH   Sussy_key+0
Label_10_014B4F7A:
 BYTE   VOICE   127
 BYTE   VOL   9*Sussy_mvl/mxv
 BYTE   PAN   c_v-4
 BYTE   BEND   c_v-1
 BYTE   W11
 BYTE   N11  Cn1  v100
 BYTE   N44  En2  v127
 BYTE   W12
 BYTE   N22  Cn1  v064
 BYTE   W24
 BYTE   N03  Cn1  v092
 BYTE   W04
 BYTE   Cn1  v064
 BYTE   W04
 BYTE   Cn1  v080
 BYTE   W04
 BYTE   N23  Cn1  v100
 BYTE   W36
 BYTE   N04  Cn1  v064
 BYTE   W01
// 001   ----------------------------------------
Label_10_014B4FA0:
 BYTE   W05
 BYTE   N04  Cn1  v040
 BYTE   W06
 BYTE   N11  Cn1  v100
 BYTE   N44  En2  v127
 BYTE   W12
 BYTE   N22  Cn1  v080
 BYTE   W24
 BYTE   N04  Cn1  v064
 BYTE   W06
 BYTE   Cn1  v080
 BYTE   W06
 BYTE   N11  Cn1  v100
 BYTE   N22  En2  v127
 BYTE   W12
 BYTE   N11  Cn1  v100
 BYTE   W12
 BYTE   N03  Cn1  v040
 BYTE   N22  En2  v127
 BYTE   W04
 BYTE   N03  Cn1  v064
 BYTE   W04
 BYTE   Cn1  v040
 BYTE   W04
 BYTE   N11  Cn1  v100
 BYTE   W01
 BYTE   PEND 
// 002   ----------------------------------------
Label_10_014B4FD5:
 BYTE   W11
 BYTE   N11  Cn1  v100
 BYTE   N68  En2  v127
 BYTE   W12
 BYTE   N22  Cn1  v064
 BYTE   W24
 BYTE   N03  Cn1  v092
 BYTE   W04
 BYTE   Cn1  v064
 BYTE   W04
 BYTE   Cn1  v080
 BYTE   W04
 BYTE   N23  Cn1  v100
 BYTE   W24
 BYTE   N22  En2  v127
 BYTE   W12
 BYTE   N04  Cn1  v064
 BYTE   W01
 BYTE   PEND 
// 003   ----------------------------------------
Label_10_014B4FF8:
 BYTE   W05
 BYTE   N04  Cn1  v040
 BYTE   W06
 BYTE   N11  Cn1  v100
 BYTE   N44  En2  v127
 BYTE   W12
 BYTE   N22  Cn1  v080
 BYTE   W24
 BYTE   N04  Cn1  v064
 BYTE   W06
 BYTE   Cn1  v080
 BYTE   W06
 BYTE   N11  Cn1  v100
 BYTE   N22  En2  v127
 BYTE   W12
 BYTE   N11  Cn1  v100
 BYTE   W12
 BYTE   N02
 BYTE   N22  En2  v127
 BYTE   W03
 BYTE   N02  Cn1  v080
 BYTE   W03
 BYTE   Cn1  v064
 BYTE   W03
 BYTE   Cn1  v040
 BYTE   W03
 BYTE   Cn1  v032
 BYTE   W01
 BYTE   PEND 
// 004   ----------------------------------------
Label_10_014B502D:
 BYTE   W02
 BYTE   N02  Cn1  v020
 BYTE   W03
 BYTE   Cn1  v012
 BYTE   W03
 BYTE   Cn1  v008
 BYTE   W03
 BYTE   N11  Cn1  v100
 BYTE   N44  En2  v127
 BYTE   W12
 BYTE   N22  Cn1  v064
 BYTE   W24
 BYTE   N03  Cn1  v092
 BYTE   W04
 BYTE   Cn1  v064
 BYTE   W04
 BYTE   Cn1  v080
 BYTE   W04
 BYTE   N23  Cn1  v100
 BYTE   W36
 BYTE   N04  Cn1  v064
 BYTE   W01
 BYTE   PEND 
// 005   ----------------------------------------
Label_10_014B5056:
 BYTE   W05
 BYTE   N04  Cn1  v040
 BYTE   W06
 BYTE   N11  Cn1  v100
 BYTE   N44  En2  v127
 BYTE   W12
 BYTE   N22  Cn1  v080
 BYTE   W24
 BYTE   N04  Cn1  v064
 BYTE   W06
 BYTE   Cn1  v080
 BYTE   W06
 BYTE   N22  Cn1  v100
 BYTE   N22  En2  v127
 BYTE   W24
 BYTE   N22
 BYTE   W12
 BYTE   N03  Cn1  v040
 BYTE   W01
 BYTE   PEND 
// 006   ----------------------------------------
Label_10_014B507B:
 BYTE   W03
 BYTE   N03  Cn1  v064
 BYTE   W04
 BYTE   Cn1  v040
 BYTE   W04
 BYTE   N11  Cn1  v100
 BYTE   N68  En2  v127
 BYTE   W12
 BYTE   N22  Cn1  v064
 BYTE   W24
 BYTE   N03  Cn1  v092
 BYTE   W04
 BYTE   Cn1  v064
 BYTE   W04
 BYTE   Cn1  v080
 BYTE   W04
 BYTE   N23  Cn1  v100
 BYTE   W24
 BYTE   N22  En2  v127
 BYTE   W12
 BYTE   N04  Cn1  v064
 BYTE   W01
 BYTE   PEND 
// 007   ----------------------------------------
 BYTE   PATT
  POIN2 Label_10_014B4FF8
// 008   ----------------------------------------
 BYTE   PATT
  POIN2 Label_10_014B502D
// 009   ----------------------------------------
 BYTE   PATT
  POIN2 Label_10_014B5056
// 010   ----------------------------------------
 BYTE   PATT
  POIN2 Label_10_014B507B
// 011   ----------------------------------------
 BYTE   PATT
  POIN2 Label_10_014B4FF8
// 012   ----------------------------------------
Label_10_014B50BE:
 BYTE   W02
 BYTE   N02  Cn1  v020
 BYTE   W03
 BYTE   Cn1  v012
 BYTE   W03
 BYTE   Cn1  v008
 BYTE   W03
 BYTE   N11  Cn1  v100
 BYTE   N68  En2  v127
 BYTE   W12
 BYTE   N11  Cn1  v080
 BYTE   W12
 BYTE   N04
 BYTE   W06
 BYTE   Cn1  v064
 BYTE   W06
 BYTE   Cn1  v080
 BYTE   W06
 BYTE   Cn1  v040
 BYTE   W06
 BYTE   N11  Cn1  v100
 BYTE   W12
 BYTE   Cn1  v080
 BYTE   W12
 BYTE   N02
 BYTE   N22  En2  v127
 BYTE   W03
 BYTE   N02  Cn1  v064
 BYTE   W03
 BYTE   Cn1  v040
 BYTE   W03
 BYTE   Cn1  v032
 BYTE   W03
 BYTE   N11  Cn1  v100
 BYTE   W01
 BYTE   PEND 
// 013   ----------------------------------------
Label_10_014B50FA:
 BYTE   W11
 BYTE   N04  Cn1  v064
 BYTE   N44  En2  v127
 BYTE   W06
 BYTE   N04  Cn1  v112
 BYTE   W06
 BYTE   Cn1  v064
 BYTE   W06
 BYTE   N04
 BYTE   W06
 BYTE   Cn1  v112
 BYTE   W06
 BYTE   Cn1  v064
 BYTE   W06
 BYTE   N04
 BYTE   W06
 BYTE   Cn1  v100
 BYTE   W06
 BYTE   N11
 BYTE   N22  En2  v127
 BYTE   W12
 BYTE   N11  Cn1  v092
 BYTE   W12
 BYTE   N03  Cn1  v072
 BYTE   N22  En2  v127
 BYTE   W04
 BYTE   N03  Cn1  v092
 BYTE   W04
 BYTE   Cn1  v072
 BYTE   W04
 BYTE   N04  Cn1  v100
 BYTE   W01
 BYTE   PEND 
// 014   ----------------------------------------
Label_10_014B5132:
 BYTE   W05
 BYTE   N04  Cn1  v072
 BYTE   W06
 BYTE   N11  Cn1  v100
 BYTE   N68  En2  v127
 BYTE   W12
 BYTE   N11  Cn1  v080
 BYTE   W12
 BYTE   N04
 BYTE   W06
 BYTE   Cn1  v064
 BYTE   W06
 BYTE   Cn1  v080
 BYTE   W06
 BYTE   Cn1  v040
 BYTE   W06
 BYTE   N11  Cn1  v100
 BYTE   W12
 BYTE   Cn1  v080
 BYTE   W12
 BYTE   N02
 BYTE   N22  En2  v127
 BYTE   W03
 BYTE   N02  Cn1  v064
 BYTE   W03
 BYTE   Cn1  v040
 BYTE   W03
 BYTE   Cn1  v032
 BYTE   W03
 BYTE   N11  Cn1  v100
 BYTE   W01
 BYTE   PEND 
// 015   ----------------------------------------
 BYTE   PATT
  POIN2 Label_10_014B50FA
// 016   ----------------------------------------
 BYTE   PATT
  POIN2 Label_10_014B5132
// 017   ----------------------------------------
 BYTE   PATT
  POIN2 Label_10_014B50FA
// 018   ----------------------------------------
 BYTE   PATT
  POIN2 Label_10_014B5132
// 019   ----------------------------------------
 BYTE   PATT
  POIN2 Label_10_014B50FA
// 020   ----------------------------------------
 BYTE   PATT
  POIN2 Label_10_014B5132
// 021   ----------------------------------------
 BYTE   PATT
  POIN2 Label_10_014B50FA
// 022   ----------------------------------------
 BYTE   PATT
  POIN2 Label_10_014B5132
// 023   ----------------------------------------
 BYTE   PATT
  POIN2 Label_10_014B50FA
// 024   ----------------------------------------
 BYTE   PATT
  POIN2 Label_10_014B5132
// 025   ----------------------------------------
 BYTE   PATT
  POIN2 Label_10_014B50FA
// 026   ----------------------------------------
 BYTE   PATT
  POIN2 Label_10_014B5132
// 027   ----------------------------------------
 BYTE   PATT
  POIN2 Label_10_014B50FA
// 028   ----------------------------------------
Label_10_014B51A9:
 BYTE   W05
 BYTE   N04  Cn1  v072
 BYTE   W06
 BYTE   N11  Cn1  v100
 BYTE   N44  En2  v127
 BYTE   W12
 BYTE   N11  Cn1  v080
 BYTE   W12
 BYTE   N04
 BYTE   W06
 BYTE   Cn1  v064
 BYTE   W06
 BYTE   Cn1  v080
 BYTE   W06
 BYTE   Cn1  v040
 BYTE   W06
 BYTE   N11  Cn1  v100
 BYTE   N44  En2  v127
 BYTE   W12
 BYTE   N11  Cn1  v080
 BYTE   W12
 BYTE   N02
 BYTE   W03
 BYTE   Cn1  v064
 BYTE   W03
 BYTE   Cn1  v040
 BYTE   W03
 BYTE   Cn1  v032
 BYTE   W03
 BYTE   N11  Cn1  v100
 BYTE   W01
 BYTE   PEND 
// 029   ----------------------------------------
 BYTE   W11
 BYTE   N04  Cn1  v064
 BYTE   N44  En2  v127
 BYTE   W06
 BYTE   N04  Cn1  v112
 BYTE   W06
 BYTE   Cn1  v064
 BYTE   W06
 BYTE   N04
 BYTE   W06
 BYTE   Cn1  v112
 BYTE   W06
 BYTE   Cn1  v064
 BYTE   W06
 BYTE   N04
 BYTE   W06
 BYTE   Cn1  v100
 BYTE   W06
 BYTE   N11
 BYTE   N44  En2  v127
 BYTE   W12
 BYTE   N11  Cn1  v092
 BYTE   W12
 BYTE   N03  Cn1  v072
 BYTE   W04
 BYTE   Cn1  v092
 BYTE   W04
 BYTE   Cn1  v072
 BYTE   W04
 BYTE   N04  Cn1  v100
 BYTE   W01
// 030   ----------------------------------------
 BYTE   PATT
  POIN2 Label_10_014B51A9
// 031   ----------------------------------------
 BYTE   PATT
  POIN2 Label_10_014B50FA
// 032   ----------------------------------------
 BYTE   W05
 BYTE   N04  Cn1  v072
 BYTE   W06
 BYTE   N11  Cn1  v100
 BYTE   N44  En2  v127
 BYTE   W12
 BYTE   N22  Cn1  v064
 BYTE   W24
 BYTE   N03  Cn1  v092
 BYTE   W04
 BYTE   Cn1  v064
 BYTE   W04
 BYTE   Cn1  v080
 BYTE   W04
 BYTE   N23  Cn1  v100
 BYTE   W36
 BYTE   N04  Cn1  v064
 BYTE   W01
// 033   ----------------------------------------
 BYTE   PATT
  POIN2 Label_10_014B4FA0
// 034   ----------------------------------------
 BYTE   PATT
  POIN2 Label_10_014B4FD5
// 035   ----------------------------------------
 BYTE   PATT
  POIN2 Label_10_014B4FF8
// 036   ----------------------------------------
 BYTE   PATT
  POIN2 Label_10_014B502D
// 037   ----------------------------------------
 BYTE   PATT
  POIN2 Label_10_014B5056
// 038   ----------------------------------------
 BYTE   PATT
  POIN2 Label_10_014B507B
// 039   ----------------------------------------
 BYTE   PATT
  POIN2 Label_10_014B4FF8
// 040   ----------------------------------------
 BYTE   PATT
  POIN2 Label_10_014B502D
// 041   ----------------------------------------
 BYTE   PATT
  POIN2 Label_10_014B5056
// 042   ----------------------------------------
 BYTE   PATT
  POIN2 Label_10_014B507B
// 043   ----------------------------------------
 BYTE   PATT
  POIN2 Label_10_014B4FF8
// 044   ----------------------------------------
 BYTE   PATT
  POIN2 Label_10_014B50BE
// 045   ----------------------------------------
 BYTE   PATT
  POIN2 Label_10_014B50FA
// 046   ----------------------------------------
 BYTE   PATT
  POIN2 Label_10_014B5132
// 047   ----------------------------------------
 BYTE   PATT
  POIN2 Label_10_014B50FA
// 048   ----------------------------------------
 BYTE   PATT
  POIN2 Label_10_014B5132
// 049   ----------------------------------------
 BYTE   PATT
  POIN2 Label_10_014B50FA
// 050   ----------------------------------------
 BYTE   PATT
  POIN2 Label_10_014B5132
// 051   ----------------------------------------
 BYTE   PATT
  POIN2 Label_10_014B50FA
// 052   ----------------------------------------
 BYTE   W09
 BYTE   GoTo
  POIN2 Label_10_014B4F7A
// 053   ----------------------------------------
 BYTE   VOICE   127
 BYTE   VOL   9*Sussy_mvl/mxv
 BYTE   PAN   c_v-4
 BYTE   BEND   c_v-1
 BYTE   FINE

//**************** Track 12 (Midi-Chn.11) ****************//

Sussy_012:
// 000   ----------------------------------------
 BYTE   KEYSH   Sussy_key+0
Label_11_014B52AE:
 BYTE   VOICE   127
 BYTE   VOL   31*Sussy_mvl/mxv
 BYTE   PAN   c_v+0
 BYTE   BEND   c_v+0
 BYTE   N12  Cn1  v100
 BYTE   N42  Dn1  v127
 BYTE   W12
 BYTE   N22  Cn1  v064
 BYTE   W24
 BYTE   N03  Cn1  v092
 BYTE   W04
 BYTE   Cn1  v064
 BYTE   W04
 BYTE   Cn1  v080
 BYTE   W04
 BYTE   N23  Cn1  v100
 BYTE   W36
 BYTE   N04  Cn1  v064
 BYTE   W06
 BYTE   Cn1  v040
 BYTE   W06
// 001   ----------------------------------------
Label_11_014B52D6:
 BYTE   N11  Cn1  v100
 BYTE   N44  Dn1  v127
 BYTE   W12
 BYTE   N22  Cn1  v080
 BYTE   W24
 BYTE   N04  Cn1  v064
 BYTE   W06
 BYTE   Cn1  v080
 BYTE   W06
 BYTE   N11  Cn1  v100
 BYTE   N22  Dn1  v127
 BYTE   W12
 BYTE   N11  Cn1  v100
 BYTE   W12
 BYTE   N03  Cn1  v040
 BYTE   N22  Dn1  v127
 BYTE   W04
 BYTE   N03  Cn1  v064
 BYTE   W04
 BYTE   Cn1  v040
 BYTE   W04
 BYTE   N11  Cn1  v100
 BYTE   W12
 BYTE   PEND 
// 002   ----------------------------------------
Label_11_014B5306:
 BYTE   N11  Cn1  v100
 BYTE   N68  Dn1  v127
 BYTE   W12
 BYTE   N22  Cn1  v064
 BYTE   W24
 BYTE   N03  Cn1  v092
 BYTE   W04
 BYTE   Cn1  v064
 BYTE   W04
 BYTE   Cn1  v080
 BYTE   W04
 BYTE   N23  Cn1  v100
 BYTE   W24
 BYTE   N22  Dn1  v127
 BYTE   W12
 BYTE   N04  Cn1  v064
 BYTE   W06
 BYTE   Cn1  v040
 BYTE   W06
 BYTE   PEND 
// 003   ----------------------------------------
Label_11_014B532B:
 BYTE   N11  Cn1  v100
 BYTE   N44  Dn1  v127
 BYTE   W12
 BYTE   N22  Cn1  v080
 BYTE   W24
 BYTE   N04  Cn1  v064
 BYTE   W06
 BYTE   Cn1  v080
 BYTE   W06
 BYTE   N11  Cn1  v100
 BYTE   N22  Dn1  v127
 BYTE   W12
 BYTE   N11  Cn1  v100
 BYTE   W12
 BYTE   N02
 BYTE   N22  Dn1  v127
 BYTE   W03
 BYTE   N02  Cn1  v080
 BYTE   W03
 BYTE   Cn1  v064
 BYTE   W03
 BYTE   Cn1  v040
 BYTE   W03
 BYTE   Cn1  v032
 BYTE   W03
 BYTE   Cn1  v020
 BYTE   W03
 BYTE   Cn1  v012
 BYTE   W03
 BYTE   Cn1  v008
 BYTE   W03
 BYTE   PEND 
// 004   ----------------------------------------
Label_11_014B5364:
 BYTE   N11  Cn1  v100
 BYTE   N44  Dn1  v127
 BYTE   W12
 BYTE   N22  Cn1  v064
 BYTE   W24
 BYTE   N03  Cn1  v092
 BYTE   W04
 BYTE   Cn1  v064
 BYTE   W04
 BYTE   Cn1  v080
 BYTE   W04
 BYTE   N23  Cn1  v100
 BYTE   W36
 BYTE   N04  Cn1  v064
 BYTE   W06
 BYTE   Cn1  v040
 BYTE   W06
 BYTE   PEND 
// 005   ----------------------------------------
Label_11_014B5385:
 BYTE   N11  Cn1  v100
 BYTE   N44  Dn1  v127
 BYTE   W12
 BYTE   N22  Cn1  v080
 BYTE   W24
 BYTE   N04  Cn1  v064
 BYTE   W06
 BYTE   Cn1  v080
 BYTE   W06
 BYTE   N22  Cn1  v100
 BYTE   N22  Dn1  v127
 BYTE   W24
 BYTE   N22
 BYTE   W12
 BYTE   N03  Cn1  v040
 BYTE   W04
 BYTE   Cn1  v064
 BYTE   W04
 BYTE   Cn1  v040
 BYTE   W04
 BYTE   PEND 
// 006   ----------------------------------------
 BYTE   PATT
  POIN2 Label_11_014B5306
// 007   ----------------------------------------
 BYTE   PATT
  POIN2 Label_11_014B532B
// 008   ----------------------------------------
 BYTE   PATT
  POIN2 Label_11_014B5364
// 009   ----------------------------------------
 BYTE   PATT
  POIN2 Label_11_014B5385
// 010   ----------------------------------------
 BYTE   PATT
  POIN2 Label_11_014B5306
// 011   ----------------------------------------
 BYTE   PATT
  POIN2 Label_11_014B532B
// 012   ----------------------------------------
Label_11_014B53C9:
 BYTE   N11  Cn1  v100
 BYTE   N68  Dn1  v127
 BYTE   W12
 BYTE   N11  Cn1  v080
 BYTE   W12
 BYTE   N04
 BYTE   W06
 BYTE   Cn1  v064
 BYTE   W06
 BYTE   Cn1  v080
 BYTE   W06
 BYTE   Cn1  v040
 BYTE   W06
 BYTE   N11  Cn1  v100
 BYTE   W12
 BYTE   Cn1  v080
 BYTE   W12
 BYTE   N02
 BYTE   N22  Dn1  v127
 BYTE   W03
 BYTE   N02  Cn1  v064
 BYTE   W03
 BYTE   Cn1  v040
 BYTE   W03
 BYTE   Cn1  v032
 BYTE   W03
 BYTE   N11  Cn1  v100
 BYTE   W12
 BYTE   PEND 
// 013   ----------------------------------------
Label_11_014B53FA:
 BYTE   N04  Cn1  v064
 BYTE   N44  Dn1  v127
 BYTE   W06
 BYTE   N04  Cn1  v112
 BYTE   W06
 BYTE   Cn1  v064
 BYTE   W06
 BYTE   N04
 BYTE   W06
 BYTE   Cn1  v112
 BYTE   W06
 BYTE   Cn1  v064
 BYTE   W06
 BYTE   N04
 BYTE   W06
 BYTE   Cn1  v100
 BYTE   W06
 BYTE   N11
 BYTE   N22  Dn1  v127
 BYTE   W12
 BYTE   N11  Cn1  v092
 BYTE   W12
 BYTE   N03  Cn1  v072
 BYTE   N22  Dn1  v127
 BYTE   W04
 BYTE   N03  Cn1  v092
 BYTE   W04
 BYTE   Cn1  v072
 BYTE   W04
 BYTE   N04  Cn1  v100
 BYTE   W06
 BYTE   Cn1  v072
 BYTE   W06
 BYTE   PEND 
// 014   ----------------------------------------
 BYTE   PATT
  POIN2 Label_11_014B53C9
// 015   ----------------------------------------
 BYTE   PATT
  POIN2 Label_11_014B53FA
// 016   ----------------------------------------
 BYTE   PATT
  POIN2 Label_11_014B53C9
// 017   ----------------------------------------
 BYTE   PATT
  POIN2 Label_11_014B53FA
// 018   ----------------------------------------
 BYTE   PATT
  POIN2 Label_11_014B53C9
// 019   ----------------------------------------
 BYTE   PATT
  POIN2 Label_11_014B53FA
// 020   ----------------------------------------
 BYTE   PATT
  POIN2 Label_11_014B53C9
// 021   ----------------------------------------
 BYTE   PATT
  POIN2 Label_11_014B53FA
// 022   ----------------------------------------
 BYTE   PATT
  POIN2 Label_11_014B53C9
// 023   ----------------------------------------
 BYTE   PATT
  POIN2 Label_11_014B53FA
// 024   ----------------------------------------
 BYTE   PATT
  POIN2 Label_11_014B53C9
// 025   ----------------------------------------
 BYTE   PATT
  POIN2 Label_11_014B53FA
// 026   ----------------------------------------
 BYTE   PATT
  POIN2 Label_11_014B53C9
// 027   ----------------------------------------
 BYTE   PATT
  POIN2 Label_11_014B53FA
// 028   ----------------------------------------
Label_11_014B547A:
 BYTE   N11  Cn1  v100
 BYTE   N44  Dn1  v127
 BYTE   W12
 BYTE   N11  Cn1  v080
 BYTE   W12
 BYTE   N04
 BYTE   W06
 BYTE   Cn1  v064
 BYTE   W06
 BYTE   Cn1  v080
 BYTE   W06
 BYTE   Cn1  v040
 BYTE   W06
 BYTE   N11  Cn1  v100
 BYTE   N44  Dn1  v127
 BYTE   W12
 BYTE   N11  Cn1  v080
 BYTE   W12
 BYTE   N02
 BYTE   W03
 BYTE   Cn1  v064
 BYTE   W03
 BYTE   Cn1  v040
 BYTE   W03
 BYTE   Cn1  v032
 BYTE   W03
 BYTE   N11  Cn1  v100
 BYTE   W12
 BYTE   PEND 
// 029   ----------------------------------------
 BYTE   N04  Cn1  v064
 BYTE   N44  Dn1  v127
 BYTE   W06
 BYTE   N04  Cn1  v112
 BYTE   W06
 BYTE   Cn1  v064
 BYTE   W06
 BYTE   N04
 BYTE   W06
 BYTE   Cn1  v112
 BYTE   W06
 BYTE   Cn1  v064
 BYTE   W06
 BYTE   N04
 BYTE   W06
 BYTE   Cn1  v100
 BYTE   W06
 BYTE   N11
 BYTE   N44  Dn1  v127
 BYTE   W12
 BYTE   N11  Cn1  v092
 BYTE   W12
 BYTE   N03  Cn1  v072
 BYTE   W04
 BYTE   Cn1  v092
 BYTE   W04
 BYTE   Cn1  v072
 BYTE   W04
 BYTE   N04  Cn1  v100
 BYTE   W06
 BYTE   Cn1  v072
 BYTE   W06
// 030   ----------------------------------------
 BYTE   PATT
  POIN2 Label_11_014B547A
// 031   ----------------------------------------
 BYTE   PATT
  POIN2 Label_11_014B53FA
// 032   ----------------------------------------
Label_11_014B54EA:
 BYTE   N11  Cn1  v100
 BYTE   N44  Dn1  v127
 BYTE   N92  En2  v100
 BYTE   W12
 BYTE   N22  Cn1  v064
 BYTE   W24
 BYTE   N03  Cn1  v092
 BYTE   W04
 BYTE   Cn1  v064
 BYTE   W04
 BYTE   Cn1  v080
 BYTE   W04
 BYTE   N23  Cn1  v100
 BYTE   W36
 BYTE   N04  Cn1  v064
 BYTE   W06
 BYTE   Cn1  v040
 BYTE   W06
 BYTE   PEND 
// 033   ----------------------------------------
 BYTE   PATT
  POIN2 Label_11_014B52D6
// 034   ----------------------------------------
Label_11_014B5513:
 BYTE   N11  Cn1  v100
 BYTE   N68  Dn1  v127
 BYTE   N92  En2  v100
 BYTE   W12
 BYTE   N22  Cn1  v064
 BYTE   W24
 BYTE   N03  Cn1  v092
 BYTE   W04
 BYTE   Cn1  v064
 BYTE   W04
 BYTE   Cn1  v080
 BYTE   W04
 BYTE   N23  Cn1  v100
 BYTE   W24
 BYTE   N22  Dn1  v127
 BYTE   W12
 BYTE   N04  Cn1  v064
 BYTE   W06
 BYTE   Cn1  v040
 BYTE   W06
 BYTE   PEND 
// 035   ----------------------------------------
 BYTE   N11  Cn1  v100
 BYTE   N44  Dn1  v127
 BYTE   N44  En2  v100
 BYTE   W12
 BYTE   N22  Cn1  v080
 BYTE   W24
 BYTE   N04  Cn1  v064
 BYTE   W06
 BYTE   Cn1  v080
 BYTE   W06
 BYTE   N11  Cn1  v100
 BYTE   N22  Dn1  v127
 BYTE   N44  En2  v100
 BYTE   W12
 BYTE   N11  Cn1
 BYTE   W12
 BYTE   N02
 BYTE   N22  Dn1  v127
 BYTE   W03
 BYTE   N02  Cn1  v080
 BYTE   W03
 BYTE   Cn1  v064
 BYTE   W03
 BYTE   Cn1  v040
 BYTE   W03
 BYTE   Cn1  v032
 BYTE   W03
 BYTE   Cn1  v020
 BYTE   W03
 BYTE   Cn1  v012
 BYTE   W03
 BYTE   Cn1  v008
 BYTE   W03
// 036   ----------------------------------------
 BYTE   PATT
  POIN2 Label_11_014B54EA
// 037   ----------------------------------------
 BYTE   N11  Cn1  v100
 BYTE   N44  Dn1  v127
 BYTE   N92  En2  v100
 BYTE   W12
 BYTE   N22  Cn1  v080
 BYTE   W24
 BYTE   N04  Cn1  v064
 BYTE   W06
 BYTE   Cn1  v080
 BYTE   W06
 BYTE   N22  Cn1  v100
 BYTE   N22  Dn1  v127
 BYTE   W24
 BYTE   N22
 BYTE   W12
 BYTE   N03  Cn1  v040
 BYTE   W04
 BYTE   Cn1  v064
 BYTE   W04
 BYTE   Cn1  v040
 BYTE   W04
// 038   ----------------------------------------
 BYTE   PATT
  POIN2 Label_11_014B5513
// 039   ----------------------------------------
 BYTE   N11  Cn1  v100
 BYTE   N44  Dn1  v127
 BYTE   N44  En2  v100
 BYTE   W12
 BYTE   N22  Cn1  v080
 BYTE   W24
 BYTE   N04  Cn1  v064
 BYTE   W06
 BYTE   Cn1  v080
 BYTE   W06
 BYTE   N11  Cn1  v100
 BYTE   N22  Dn1  v127
 BYTE   N22  En2  v100
 BYTE   W12
 BYTE   N11  Cn1
 BYTE   W12
 BYTE   N02
 BYTE   N22  Dn1  v127
 BYTE   N22  En2  v100
 BYTE   W03
 BYTE   N02  Cn1  v080
 BYTE   W03
 BYTE   Cn1  v064
 BYTE   W03
 BYTE   Cn1  v040
 BYTE   W03
 BYTE   Cn1  v032
 BYTE   W03
 BYTE   Cn1  v020
 BYTE   W03
 BYTE   Cn1  v012
 BYTE   W03
 BYTE   Cn1  v008
 BYTE   W03
// 040   ----------------------------------------
 BYTE   PATT
  POIN2 Label_11_014B5364
// 041   ----------------------------------------
 BYTE   PATT
  POIN2 Label_11_014B5385
// 042   ----------------------------------------
 BYTE   PATT
  POIN2 Label_11_014B5306
// 043   ----------------------------------------
 BYTE   PATT
  POIN2 Label_11_014B532B
// 044   ----------------------------------------
 BYTE   PATT
  POIN2 Label_11_014B53C9
// 045   ----------------------------------------
 BYTE   PATT
  POIN2 Label_11_014B53FA
// 046   ----------------------------------------
 BYTE   PATT
  POIN2 Label_11_014B53C9
// 047   ----------------------------------------
 BYTE   PATT
  POIN2 Label_11_014B53FA
// 048   ----------------------------------------
 BYTE   PATT
  POIN2 Label_11_014B53C9
// 049   ----------------------------------------
 BYTE   PATT
  POIN2 Label_11_014B53FA
// 050   ----------------------------------------
 BYTE   PATT
  POIN2 Label_11_014B53C9
// 051   ----------------------------------------
 BYTE   PATT
  POIN2 Label_11_014B53FA
// 052   ----------------------------------------
 BYTE   W09
 BYTE   GoTo
  POIN2 Label_11_014B52AE
// 053   ----------------------------------------
 BYTE   VOICE   127
 BYTE   VOL   31*Sussy_mvl/mxv
 BYTE   PAN   c_v+0
 BYTE   BEND   c_v+0
 BYTE   FINE

//******************************************************//
	ALIGN 4

Sussy:
	BYTE	12	// NumTrks
	BYTE	0	// NumBlks
	BYTE	Sussy_pri	// Priority
	BYTE	Sussy_rev	// Reverb.
    
	POIN2	Sussy_grp
    
	POIN2	Sussy_001
	POIN2	Sussy_002
	POIN2	Sussy_003
	POIN2	Sussy_004
	POIN2	Sussy_005
	POIN2	Sussy_006
	POIN2	Sussy_007
	POIN2	Sussy_008
	POIN2	Sussy_009
	POIN2	Sussy_010
	POIN2	Sussy_011
	POIN2	Sussy_012

	
