//Event file generated from Sappy .s format.
	#include "MPlayDef.event"

	#define	song0152_grp  voicegroup001
	#define	song0152_pri  0
	#define	song0152_rev  0
	#define	song0152_mvl  127
	#define	song0152_key  0
	#define	song0152_tbs  1
	#define	song0152_exg  0
	#define	song0152_cmp  1

	// .rodata
	//	song0152
	ALIGN 4


//**************** Track 1 (Midi-Chn.0) ****************//

song0152_001:
// 000   ----------------------------------------
 BYTE   KEYSH   song0152_key+0
 BYTE   TEMPO   140*song0152_tbs/2
 BYTE   VOICE   61
 BYTE   PAN   c_v+5
 BYTE   VOL   23*song0152_mvl/mxv
 BYTE   BEND   c_v+0
 BYTE   N23  Ds4  v100
 BYTE   W24
 BYTE   N24  Cs4
 BYTE   W24
 BYTE   Ds4
 BYTE   W24
 BYTE   Gs4
 BYTE   W24
// 001   ----------------------------------------
 BYTE   Fs4
 BYTE   W24
 BYTE   Fn4
 BYTE   W24
 BYTE   Ds4
 BYTE   W24
 BYTE   Cs4
 BYTE   W24
// 002   ----------------------------------------
 BYTE   N44  As3
 BYTE   W48
 BYTE   N48  Cs4
 BYTE   W48
// 003   ----------------------------------------
 BYTE   N11  Ds4
 BYTE   W96
// 004   ----------------------------------------
 BYTE   W96
// 005   ----------------------------------------
 BYTE   W96
// 006   ----------------------------------------
Label_0_0145721A:
 BYTE   N23  Fs4  v100
 BYTE   W24
 BYTE   N24  Ds4
 BYTE   W24
 BYTE   Fn4
 BYTE   W24
 BYTE   Cs4
 BYTE   W24
 BYTE   PEND 
// 007   ----------------------------------------
Label_0_01457226:
 BYTE   N23  Ds4  v100
 BYTE   W24
 BYTE   N44  As4
 BYTE   W48
 BYTE   N11  Gs4
 BYTE   W12
 BYTE   N12  As4
 BYTE   W12
// 008   ----------------------------------------
 BYTE   N23  Fs4
 BYTE   W24
 BYTE   N24  Fn4
 BYTE   W24
 BYTE   Ds4
 BYTE   W24
 BYTE   Cs5
 BYTE   W24
// 009   ----------------------------------------
 BYTE   Cn5
 BYTE   W24
 BYTE   As4
 BYTE   W24
 BYTE   Gs4
 BYTE   W24
 BYTE   Fs4
 BYTE   W24
// 010   ----------------------------------------
 BYTE   As4
 BYTE   W24
 BYTE   Fs4
 BYTE   W24
 BYTE   Gs4
 BYTE   W24
 BYTE   Fn4
 BYTE   W24
// 011   ----------------------------------------
 BYTE   Ds4
 BYTE   W24
 BYTE   As4
 BYTE   W24
 BYTE   N05  Gs4
 BYTE   W06
 BYTE   N06  As4
 BYTE   W06
 BYTE   Fs4
 BYTE   W06
 BYTE   Gs4
 BYTE   W06
 BYTE   Fn4
 BYTE   W06
 BYTE   Fs4
 BYTE   W06
 BYTE   Ds4
 BYTE   W06
 BYTE   Fn4
 BYTE   W06
// 012   ----------------------------------------
 BYTE   N23  Ds4
 BYTE   W24
 BYTE   N24  Cs5
 BYTE   W24
 BYTE   N05  Cn5
 BYTE   W06
 BYTE   N06  Cs5
 BYTE   W06
 BYTE   As4
 BYTE   W06
 BYTE   Cn5
 BYTE   W06
 BYTE   Gs4
 BYTE   W06
 BYTE   As4
 BYTE   W06
 BYTE   Fs4
 BYTE   W06
 BYTE   Gs4
 BYTE   W06
// 013   ----------------------------------------
 BYTE   As4
 BYTE   W06
 BYTE   N05
 BYTE   W06
 BYTE   N06  Ds5
 BYTE   W06
 BYTE   Fs4
 BYTE   W06
 BYTE   As4
 BYTE   W06
 BYTE   N05
 BYTE   W06
 BYTE   N06  Fs4
 BYTE   W06
 BYTE   Gs4
 BYTE   W06
 BYTE   As4
 BYTE   W06
 BYTE   N05
 BYTE   W06
 BYTE   N06  Fs5
 BYTE   W06
 BYTE   As4
 BYTE   W06
 BYTE   Gs4
 BYTE   W06
 BYTE   As4
 BYTE   W06
 BYTE   Fs4
 BYTE   W06
 BYTE   Fn4
 BYTE   W06
// 014   ----------------------------------------
 BYTE   N11  Fs4
 BYTE   W12
 BYTE   N05
 BYTE   W06
 BYTE   N05
 BYTE   W06
 BYTE   N11  Gs4
 BYTE   W12
 BYTE   N11
 BYTE   W12
 BYTE   N12  Fn4
 BYTE   W12
 BYTE   N05
 BYTE   W06
 BYTE   N05
 BYTE   W06
 BYTE   N06  Ds4
 BYTE   W06
 BYTE   N05
 BYTE   W06
 BYTE   N05
 BYTE   W06
 BYTE   N05
 BYTE   W06
// 015   ----------------------------------------
 BYTE   N23  Fn3
 BYTE   N23  Fn4
 BYTE   W24
 BYTE   Gs3
 BYTE   N23  Gs4
 BYTE   W24
 BYTE   N11  Fn3
 BYTE   N11  Fn4
 BYTE   W12
 BYTE   Fs3
 BYTE   N11  Fs4
 BYTE   W12
 BYTE   N23  Fn3
 BYTE   N23  Fn4
 BYTE   W24
// 016   ----------------------------------------
 BYTE   N11  Fn3
 BYTE   N11  Fn4
 BYTE   W12
 BYTE   N05  Gs3
 BYTE   N05  Gs4
 BYTE   W06
 BYTE   Fn3
 BYTE   N05  Fn4
 BYTE   W06
 BYTE   N11  Gs3
 BYTE   N11  Gs4
 BYTE   W12
 BYTE   N05  As3
 BYTE   N05  As4
 BYTE   W06
 BYTE   Gs3
 BYTE   N05  Gs4
 BYTE   W06
 BYTE   N11  Fn3
 BYTE   N11  Fn4
 BYTE   W12
 BYTE   Ds4
 BYTE   N11  Ds5
 BYTE   W12
 BYTE   N23  Cs4
 BYTE   N23  Cs5
 BYTE   W24
// 017   ----------------------------------------
 BYTE   N11  As3
 BYTE   N11  As4
 BYTE   W12
 BYTE   N05  Gs3
 BYTE   N05  Gs4
 BYTE   W06
 BYTE   As3
 BYTE   N05  As4
 BYTE   W06
 BYTE   N11  Gs3
 BYTE   N11  Gs4
 BYTE   W12
 BYTE   N05  Fs3
 BYTE   N05  Fs4
 BYTE   W06
 BYTE   Gs3
 BYTE   N05  Gs4
 BYTE   W06
 BYTE   N11  As3
 BYTE   N11  As4
 BYTE   W12
 BYTE   N05  Gs3
 BYTE   N05  Gs4
 BYTE   W06
 BYTE   As3
 BYTE   N05  As4
 BYTE   W06
 BYTE   Gs3
 BYTE   N05  Gs4
 BYTE   W06
 BYTE   As3
 BYTE   N05  As4
 BYTE   W06
 BYTE   Bn3
 BYTE   N05  Bn4
 BYTE   W06
 BYTE   Gs3
 BYTE   N05  Gs4
 BYTE   W06
// 018   ----------------------------------------
 BYTE   N23  As3
 BYTE   N23  As4
 BYTE   W24
 BYTE   Gs3
 BYTE   N23  Gs4
 BYTE   W24
 BYTE   Fs3
 BYTE   N23  Fs4
 BYTE   W24
 BYTE   Fn3
 BYTE   N23  Fn4
 BYTE   W24
// 019   ----------------------------------------
 BYTE   N11  Fn3
 BYTE   N11  Fn4
 BYTE   W12
 BYTE   Fs3
 BYTE   N11  Fs4
 BYTE   W12
 BYTE   Gs3
 BYTE   N11  Gs4
 BYTE   W12
 BYTE   As3
 BYTE   N11  As4
 BYTE   W12
 BYTE   Fn3
 BYTE   N11  Fn4
 BYTE   W12
 BYTE   Fs3
 BYTE   N11  Fs4
 BYTE   W12
 BYTE   N23  Fn3
 BYTE   N23  Fn4
 BYTE   W24
// 020   ----------------------------------------
 BYTE   N11  Fn3
 BYTE   N11  Fn4
 BYTE   W12
 BYTE   N05  Gs3
 BYTE   N05  Gs4
 BYTE   W06
 BYTE   As3
 BYTE   N05  As4
 BYTE   W06
 BYTE   N11  Gs3
 BYTE   N11  Gs4
 BYTE   W12
 BYTE   N05  As3
 BYTE   N05  As4
 BYTE   W06
 BYTE   Cs4
 BYTE   N05  Cs5
 BYTE   W06
 BYTE   N11  Fn3
 BYTE   N11  Fn4
 BYTE   W12
 BYTE   Ds4
 BYTE   N11  Ds5
 BYTE   W12
 BYTE   N23  Cs4
 BYTE   N23  Cs5
 BYTE   W24
// 021   ----------------------------------------
 BYTE   N11  Ds4
 BYTE   N11  Ds5
 BYTE   W12
 BYTE   N05  Ds4
 BYTE   N05  Ds5
 BYTE   W06
 BYTE   Ds4
 BYTE   N05  Ds5
 BYTE   W06
 BYTE   N11  Ds4
 BYTE   N11  Ds5
 BYTE   W12
 BYTE   N05  Ds4
 BYTE   N05  Ds5
 BYTE   W06
 BYTE   Ds4
 BYTE   N05  Ds5
 BYTE   W06
 BYTE   N11  Ds4
 BYTE   N11  Ds5
 BYTE   W12
 BYTE   Ds4
 BYTE   N11  Ds5
 BYTE   W12
 BYTE   N05  Ds4
 BYTE   N05  Ds5
 BYTE   W06
 BYTE   Ds4
 BYTE   N05  Ds5
 BYTE   W06
 BYTE   Ds4
 BYTE   N05  Ds5
 BYTE   W06
 BYTE   Ds4
 BYTE   N05  Ds5
 BYTE   W06
// 022   ----------------------------------------
 BYTE   N17  Ds4
 BYTE   N17  Ds5
 BYTE   W18
 BYTE   As3
 BYTE   N17  As4
 BYTE   W18
 BYTE   Cs4
 BYTE   N17  Cs5
 BYTE   W18
 BYTE   Gs3
 BYTE   N17  Gs4
 BYTE   W18
 BYTE   N11  Fs3
 BYTE   N11  Fs4
 BYTE   W12
 BYTE   Gs3
 BYTE   N11  Gs4
 BYTE   W12
// 023   ----------------------------------------
 BYTE   TIE  Ds4
 BYTE   W96
// 024   ----------------------------------------
 BYTE   W92
 BYTE   W03
 BYTE   EOT
 BYTE   W01
// 025   ----------------------------------------
 BYTE   W96
// 026   ----------------------------------------
 BYTE   W96
// 027   ----------------------------------------
 BYTE   W96
// 028   ----------------------------------------
 BYTE   W96
// 029   ----------------------------------------
 BYTE   W96
// 030   ----------------------------------------
 BYTE   W96
// 031   ----------------------------------------
 BYTE   W96
// 032   ----------------------------------------
 BYTE   PATT
  POIN2 Label_0_0145721A
// 033   ----------------------------------------
 BYTE   GoTo
  POIN2 Label_0_01457226
// 034   ----------------------------------------
 BYTE   BEND   c_v+0
 BYTE   FINE

//**************** Track 2 (Midi-Chn.1) ****************//

song0152_002:
// 000   ----------------------------------------
 BYTE   KEYSH   song0152_key+0
 BYTE   VOICE   1
 BYTE   PAN   c_v-20
 BYTE   VOL   24*song0152_mvl/mxv
 BYTE   BEND   c_v+0
 BYTE   N96  En3  v088
 BYTE   N54  An3  v064
 BYTE   W96
// 001   ----------------------------------------
 BYTE   N72  Fs3  v088
 BYTE   N48  Bn3  v076
 BYTE   W96
// 002   ----------------------------------------
 BYTE   As3  v100
 BYTE   W48
 BYTE   Cs4  v116
 BYTE   W48
// 003   ----------------------------------------
 BYTE   N78  Cs3  v064
 BYTE   N78  Dn4  v127
 BYTE   W96
// 004   ----------------------------------------
 BYTE   W96
// 005   ----------------------------------------
 BYTE   W96
// 006   ----------------------------------------
 BYTE   W96
// 007   ----------------------------------------
Label_1_01490BC0:
 BYTE   N11  Ds4  v100
 BYTE   W12
 BYTE   N05  Cs4
 BYTE   W06
 BYTE   N06  Ds4
 BYTE   W06
 BYTE   N11
 BYTE   W12
 BYTE   N05  Cs4
 BYTE   W06
 BYTE   N06  Ds4
 BYTE   W06
 BYTE   N05
 BYTE   W06
 BYTE   N06  Fn4
 BYTE   W06
 BYTE   Fs4
 BYTE   W06
 BYTE   Ds4
 BYTE   W06
 BYTE   As4
 BYTE   W06
 BYTE   Gs4
 BYTE   W06
 BYTE   Fs4
 BYTE   W06
 BYTE   Fn4
 BYTE   W06
 BYTE   PEND 
// 008   ----------------------------------------
 BYTE   PATT
  POIN2 Label_1_01490BC0
// 009   ----------------------------------------
 BYTE   PATT
  POIN2 Label_1_01490BC0
// 010   ----------------------------------------
Label_1_01490BEE:
 BYTE   N05  Ds4  v100
 BYTE   W06
 BYTE   N06  Cs4
 BYTE   W06
 BYTE   Ds4
 BYTE   W06
 BYTE   Cs4
 BYTE   W06
 BYTE   Fs4
 BYTE   W06
 BYTE   Fn4
 BYTE   W06
 BYTE   Fs4
 BYTE   W06
 BYTE   Fn4
 BYTE   W06
 BYTE   As4
 BYTE   W06
 BYTE   Gs4
 BYTE   W06
 BYTE   Fs4
 BYTE   W06
 BYTE   Fn4
 BYTE   W06
 BYTE   Gs4
 BYTE   W06
 BYTE   Fs4
 BYTE   W06
 BYTE   Fn4
 BYTE   W06
 BYTE   Fs4
 BYTE   W06
 BYTE   PEND 
// 011   ----------------------------------------
 BYTE   PATT
  POIN2 Label_1_01490BC0
// 012   ----------------------------------------
 BYTE   PATT
  POIN2 Label_1_01490BC0
// 013   ----------------------------------------
 BYTE   PATT
  POIN2 Label_1_01490BC0
// 014   ----------------------------------------
 BYTE   PATT
  POIN2 Label_1_01490BEE
// 015   ----------------------------------------
Label_1_01490C26:
 BYTE   N11  Fn4  v100
 BYTE   W12
 BYTE   N05  Ds4
 BYTE   W06
 BYTE   N06  Fn4
 BYTE   W06
 BYTE   N11
 BYTE   W12
 BYTE   N05  Ds4
 BYTE   W06
 BYTE   N06  Fn4
 BYTE   W06
 BYTE   N05
 BYTE   W06
 BYTE   N06  Fs4
 BYTE   W06
 BYTE   Gs4
 BYTE   W06
 BYTE   Fn4
 BYTE   W06
 BYTE   As4
 BYTE   W06
 BYTE   Gs4
 BYTE   W06
 BYTE   Fs4
 BYTE   W06
 BYTE   Gs4
 BYTE   W06
 BYTE   PEND 
// 016   ----------------------------------------
 BYTE   PATT
  POIN2 Label_1_01490C26
// 017   ----------------------------------------
 BYTE   PATT
  POIN2 Label_1_01490C26
// 018   ----------------------------------------
Label_1_01490C54:
 BYTE   N05  Fn4  v100
 BYTE   W06
 BYTE   N06  Ds4
 BYTE   W06
 BYTE   Fn4
 BYTE   W06
 BYTE   Fs4
 BYTE   W06
 BYTE   Fn4
 BYTE   W06
 BYTE   Fs4
 BYTE   W06
 BYTE   Gs4
 BYTE   W06
 BYTE   As4
 BYTE   W06
 BYTE   Fn4
 BYTE   W06
 BYTE   Ds4
 BYTE   W06
 BYTE   Fn4
 BYTE   W06
 BYTE   Fs4
 BYTE   W06
 BYTE   Fn4
 BYTE   W06
 BYTE   Fs4
 BYTE   W06
 BYTE   Gs4
 BYTE   W06
 BYTE   As4
 BYTE   W06
 BYTE   PEND 
// 019   ----------------------------------------
 BYTE   PATT
  POIN2 Label_1_01490C26
// 020   ----------------------------------------
 BYTE   PATT
  POIN2 Label_1_01490C26
// 021   ----------------------------------------
 BYTE   PATT
  POIN2 Label_1_01490C26
// 022   ----------------------------------------
 BYTE   PATT
  POIN2 Label_1_01490C54
// 023   ----------------------------------------
 BYTE   W96
// 024   ----------------------------------------
 BYTE   W96
// 025   ----------------------------------------
 BYTE   W96
// 026   ----------------------------------------
 BYTE   W96
// 027   ----------------------------------------
 BYTE   W96
// 028   ----------------------------------------
 BYTE   W96
// 029   ----------------------------------------
 BYTE   PATT
  POIN2 Label_1_01490BC0
// 030   ----------------------------------------
 BYTE   PATT
  POIN2 Label_1_01490BC0
// 031   ----------------------------------------
 BYTE   PATT
  POIN2 Label_1_01490BC0
// 032   ----------------------------------------
 BYTE   PATT
  POIN2 Label_1_01490BEE
// 033   ----------------------------------------
 BYTE   GoTo
  POIN2 Label_1_01490BC0
// 034   ----------------------------------------
 BYTE   BEND   c_v+0
 BYTE   FINE

//**************** Track 3 (Midi-Chn.2) ****************//

song0152_003:
// 000   ----------------------------------------
 BYTE   KEYSH   song0152_key+0
 BYTE   VOICE   51
 BYTE   PAN   c_v-10
 BYTE   VOL   23*song0152_mvl/mxv
 BYTE   BEND   c_v+0
 BYTE   N92  Ds1  v100
 BYTE   N92  Ds2
 BYTE   W96
// 001   ----------------------------------------
 BYTE   Cs1
 BYTE   N92  Cs2
 BYTE   W96
// 002   ----------------------------------------
Label_2_01457410:
 BYTE   N44  Fs1  v100
 BYTE   N44  Fs2
 BYTE   W48
 BYTE   Fn1
 BYTE   N44  Fn2
 BYTE   W48
 BYTE   PEND 
// 003   ----------------------------------------
 BYTE   N92  Ds1
 BYTE   N92  Ds2
 BYTE   W96
// 004   ----------------------------------------
Label_2_01457420:
 BYTE   N44  Ds1  v100
 BYTE   N44  Ds2
 BYTE   W48
 BYTE   Fs1
 BYTE   N44  Fs2
 BYTE   W48
 BYTE   PEND 
// 005   ----------------------------------------
 BYTE   N92  Ds1
 BYTE   N92  Ds2
 BYTE   W96
// 006   ----------------------------------------
 BYTE   PATT
  POIN2 Label_2_01457410
// 007   ----------------------------------------
Label_2_01457435:
 BYTE   N92  Ds1  v100
 BYTE   N92  Ds2
 BYTE   W96
// 008   ----------------------------------------
 BYTE   PATT
  POIN2 Label_2_01457420
// 009   ----------------------------------------
 BYTE   N92  Ds1  v100
 BYTE   N92  Ds2
 BYTE   W96
// 010   ----------------------------------------
 BYTE   PATT
  POIN2 Label_2_01457410
// 011   ----------------------------------------
 BYTE   N92  Ds1  v100
 BYTE   N92  Ds2
 BYTE   W96
// 012   ----------------------------------------
 BYTE   PATT
  POIN2 Label_2_01457420
// 013   ----------------------------------------
 BYTE   N92  Ds1  v100
 BYTE   N92  Ds2
 BYTE   W96
// 014   ----------------------------------------
 BYTE   N44  Fs1
 BYTE   N44  Fs2
 BYTE   W48
 BYTE   Gs1
 BYTE   N44  Gs2
 BYTE   W48
// 015   ----------------------------------------
 BYTE   N92  Fs1
 BYTE   N92  Fs2
 BYTE   W96
// 016   ----------------------------------------
Label_2_0145746A:
 BYTE   N44  Gs1  v100
 BYTE   N44  Gs2
 BYTE   W48
 BYTE   Cs2
 BYTE   N44  Cs3
 BYTE   W48
 BYTE   PEND 
// 017   ----------------------------------------
 BYTE   N92  As1
 BYTE   N92  As2
 BYTE   W96
// 018   ----------------------------------------
Label_2_0145747A:
 BYTE   N44  As1  v100
 BYTE   N44  As2
 BYTE   W48
 BYTE   Gs1
 BYTE   N44  Gs2
 BYTE   W48
 BYTE   PEND 
// 019   ----------------------------------------
 BYTE   N92  Fs1
 BYTE   N92  Fs2
 BYTE   W96
// 020   ----------------------------------------
 BYTE   PATT
  POIN2 Label_2_0145746A
// 021   ----------------------------------------
 BYTE   N92  As1  v100
 BYTE   N92  As2
 BYTE   W96
// 022   ----------------------------------------
 BYTE   PATT
  POIN2 Label_2_0145747A
// 023   ----------------------------------------
 BYTE   N92  Ds2  v100
 BYTE   W96
// 024   ----------------------------------------
 BYTE   Ds1
 BYTE   N92  Ds2
 BYTE   W96
// 025   ----------------------------------------
 BYTE   Ds1
 BYTE   N92  Ds2
 BYTE   W96
// 026   ----------------------------------------
 BYTE   Cs1
 BYTE   N92  Cs2
 BYTE   W96
// 027   ----------------------------------------
 BYTE   Fs1
 BYTE   N92  Fs2
 BYTE   W96
// 028   ----------------------------------------
Label_2_014574AE:
 BYTE   N44  Gs1  v100
 BYTE   N44  Gs2
 BYTE   W48
 BYTE   Fs1
 BYTE   N44  Fs2
 BYTE   W48
 BYTE   PEND 
// 029   ----------------------------------------
 BYTE   N92  Ds1
 BYTE   N92  Ds2
 BYTE   W96
// 030   ----------------------------------------
 BYTE   Cs1
 BYTE   N92  Cs2
 BYTE   W96
// 031   ----------------------------------------
 BYTE   Fs1
 BYTE   N92  Fs2
 BYTE   W96
// 032   ----------------------------------------
 BYTE   PATT
  POIN2 Label_2_014574AE
// 033   ----------------------------------------
 BYTE   GoTo
  POIN2 Label_2_01457435
// 034   ----------------------------------------
 BYTE   BEND   c_v+0
 BYTE   FINE

//**************** Track 4 (Midi-Chn.3) ****************//

song0152_004:
// 000   ----------------------------------------
 BYTE   KEYSH   song0152_key+0
 BYTE   VOICE   124
 BYTE   VOL   29*song0152_mvl/mxv
 BYTE   PAN   c_v+0
 BYTE   BEND   c_v+0
 BYTE   N80  Cn1  v100
 BYTE   N44  Ds2
 BYTE   N44  An2  v064
 BYTE   W84
 BYTE   N05  Cn1  v100
 BYTE   W06
 BYTE   N05
 BYTE   W06
// 001   ----------------------------------------
 BYTE   N80
 BYTE   N44  Ds2
 BYTE   W84
 BYTE   N05  Cn1
 BYTE   W06
 BYTE   N05
 BYTE   W06
// 002   ----------------------------------------
 BYTE   N23
 BYTE   N44  Ds2
 BYTE   W24
 BYTE   N11  Cn1
 BYTE   W12
 BYTE   N05
 BYTE   W06
 BYTE   N05
 BYTE   W06
 BYTE   N23
 BYTE   N44  Ds2
 BYTE   W24
 BYTE   N11  Cn1
 BYTE   N23  Cs2
 BYTE   W12
 BYTE   N05  Cn1
 BYTE   TIE  Fn2
 BYTE   W06
 BYTE   N05  Cn1
 BYTE   W06
// 003   ----------------------------------------
Label_3_01490CEE:
 BYTE   N23  Cn1  v100
 BYTE   N11  Dn1
 BYTE   N23  Ds2
 BYTE   W24
 BYTE   N11  Cn1
 BYTE   N11  Dn1
 BYTE   W12
 BYTE   N05  Cn1
 BYTE   W06
 BYTE   N05
 BYTE   W06
 BYTE   N23
 BYTE   N11  Dn1
 BYTE   W24
 BYTE   Cn1
 BYTE   N11  Dn1
 BYTE   W12
 BYTE   N05  Cn1
 BYTE   W06
 BYTE   N05
 BYTE   W06
 BYTE   PEND 
// 004   ----------------------------------------
 BYTE   N23
 BYTE   N11  Dn1
 BYTE   N23  Ds2
 BYTE   W24
 BYTE   N11  Cn1
 BYTE   N11  Dn1
 BYTE   W12
 BYTE   N05  Cn1
 BYTE   N05  Dn1
 BYTE   W06
 BYTE   Cn1
 BYTE   N05  Dn1
 BYTE   W06
 BYTE   N23  Cn1
 BYTE   N11  Dn1
 BYTE   W24
 BYTE   Cn1
 BYTE   N11  Dn1
 BYTE   N23  Ds2
 BYTE   W12
 BYTE   N05  Cn1
 BYTE   N05  Dn1
 BYTE   W06
 BYTE   Cn1
 BYTE   N05  Dn1
 BYTE   W05
 BYTE   EOT
 BYTE   Fn2
 BYTE   N01
 BYTE   W01
// 005   ----------------------------------------
Label_3_01490D3A:
 BYTE   N23  Cn1  v100
 BYTE   N23  Ds2
 BYTE   W06
 BYTE   N11  Dn1
 BYTE   W18
 BYTE   Cn1
 BYTE   N11  Dn1
 BYTE   W12
 BYTE   N05  Cn1
 BYTE   W06
 BYTE   N05
 BYTE   N11  Dn1
 BYTE   W06
 BYTE   N23  Cn1
 BYTE   W12
 BYTE   N11  Dn1
 BYTE   W12
 BYTE   Cn1
 BYTE   N11  Dn1
 BYTE   W12
 BYTE   N05  Cn1
 BYTE   N05  Dn1
 BYTE   W06
 BYTE   Cn1
 BYTE   N05  Dn1
 BYTE   W06
 BYTE   PEND 
// 006   ----------------------------------------
Label_3_01490D62:
 BYTE   N23  Cn1  v100
 BYTE   N23  Ds2
 BYTE   W24
 BYTE   N11  Cn1
 BYTE   N11  Dn1
 BYTE   W12
 BYTE   N05  Cn1
 BYTE   N05  Dn1
 BYTE   W06
 BYTE   Cn1
 BYTE   N05  Dn1
 BYTE   W06
 BYTE   N23  Cn1
 BYTE   W06
 BYTE   N05  Dn1
 BYTE   W12
 BYTE   N05
 BYTE   W06
 BYTE   N11  Cn1
 BYTE   W06
 BYTE   N05  Dn1
 BYTE   W06
 BYTE   N06  Cn1
 BYTE   N11  Cs2
 BYTE   TIE  Fn2
 BYTE   W06
 BYTE   N05  Cn1
 BYTE   W06
 BYTE   PEND 
// 007   ----------------------------------------
Label_3_01490D8F:
// 008   ----------------------------------------
 BYTE   PATT
  POIN2 Label_3_01490CEE
// 009   ----------------------------------------
Label_3_01490D94:
 BYTE   N23  Cn1  v100
 BYTE   N11  Dn1
 BYTE   W24
 BYTE   Cn1
 BYTE   N11  Dn1
 BYTE   W12
 BYTE   N05  Cn1
 BYTE   N05  Dn1
 BYTE   W06
 BYTE   Cn1
 BYTE   N05  Dn1
 BYTE   W06
 BYTE   N23  Cn1
 BYTE   N11  Dn1
 BYTE   W24
 BYTE   Cn1
 BYTE   N11  Dn1
 BYTE   N23  Ds2
 BYTE   W12
 BYTE   N05  Cn1
 BYTE   N05  Dn1
 BYTE   W06
 BYTE   Cn1
 BYTE   N05  Dn1
 BYTE   W05
 BYTE   PEND 
 BYTE   EOT
 BYTE   Fn2
 BYTE   N01
 BYTE   W01
// 010   ----------------------------------------
 BYTE   PATT
  POIN2 Label_3_01490D3A
// 011   ----------------------------------------
Label_3_01490DC5:
 BYTE   N23  Cn1  v100
 BYTE   W24
 BYTE   N11
 BYTE   N11  Dn1
 BYTE   W12
 BYTE   N05  Cn1
 BYTE   N05  Dn1
 BYTE   W06
 BYTE   Cn1
 BYTE   N05  Dn1
 BYTE   W06
 BYTE   N23  Cn1
 BYTE   W06
 BYTE   N05  Dn1
 BYTE   W12
 BYTE   N05
 BYTE   W06
 BYTE   N11  Cn1
 BYTE   W06
 BYTE   N05  Dn1
 BYTE   W06
 BYTE   N06  Cn1
 BYTE   N11  Cs2
 BYTE   TIE  Fn2
 BYTE   W06
 BYTE   N05  Cn1
 BYTE   W06
 BYTE   PEND 
// 012   ----------------------------------------
 BYTE   PATT
  POIN2 Label_3_01490CEE
// 013   ----------------------------------------
 BYTE   PATT
  POIN2 Label_3_01490D94
// 014   ----------------------------------------
 BYTE   EOT
 BYTE   Fn2
 BYTE   N01  Fn2  v100
 BYTE   W01
// 015   ----------------------------------------
 BYTE   PATT
  POIN2 Label_3_01490D3A
// 016   ----------------------------------------
 BYTE   PATT
  POIN2 Label_3_01490DC5
// 017   ----------------------------------------
Label_3_01490E09:
 BYTE   N23  Cn1  v100
 BYTE   N11  Dn1
 BYTE   N23  Ds2
 BYTE   W12
 BYTE   N11  En1
 BYTE   W12
 BYTE   Cn1
 BYTE   N11  Dn1
 BYTE   W12
 BYTE   N05  Cn1
 BYTE   W06
 BYTE   N05
 BYTE   W06
 BYTE   N23
 BYTE   N11  Dn1
 BYTE   W12
 BYTE   En1
 BYTE   W12
 BYTE   Cn1
 BYTE   N11  Dn1
 BYTE   W12
 BYTE   N05  Cn1
 BYTE   W06
 BYTE   N05
 BYTE   W06
 BYTE   PEND 
// 018   ----------------------------------------
Label_3_01490E2D:
 BYTE   N23  Cn1  v100
 BYTE   N11  Dn1
 BYTE   W12
 BYTE   En1
 BYTE   W12
 BYTE   Cn1
 BYTE   N11  Dn1
 BYTE   W12
 BYTE   N05  Cn1
 BYTE   N05  Dn1
 BYTE   W06
 BYTE   Cn1
 BYTE   N05  Dn1
 BYTE   W06
 BYTE   N23  Cn1
 BYTE   N11  Dn1
 BYTE   W12
 BYTE   En1
 BYTE   W12
 BYTE   Cn1
 BYTE   N11  Dn1
 BYTE   N23  Ds2
 BYTE   W12
 BYTE   N05  Cn1
 BYTE   N05  Dn1
 BYTE   W06
 BYTE   Cn1
 BYTE   N05  Dn1
 BYTE   W05
 BYTE   PEND 
 BYTE   EOT
 BYTE   Fn2
 BYTE   N01
 BYTE   W01
// 019   ----------------------------------------
Label_3_01490E5D:
 BYTE   N23  Cn1  v100
 BYTE   N23  Ds2
 BYTE   W06
 BYTE   N11  Dn1
 BYTE   W06
 BYTE   N05  En1
 BYTE   W12
 BYTE   N11  Cn1
 BYTE   N11  Dn1
 BYTE   W12
 BYTE   N05  Cn1
 BYTE   W06
 BYTE   N05
 BYTE   N11  Dn1
 BYTE   W06
 BYTE   N23  Cn1
 BYTE   W12
 BYTE   N11  Dn1
 BYTE   N11  En1
 BYTE   W12
 BYTE   Cn1
 BYTE   N11  Dn1
 BYTE   W12
 BYTE   N05  Cn1
 BYTE   N05  Dn1
 BYTE   W06
 BYTE   Cn1
 BYTE   N05  Dn1
 BYTE   W06
 BYTE   PEND 
// 020   ----------------------------------------
Label_3_01490E8B:
 BYTE   N23  Cn1  v100
 BYTE   W12
 BYTE   N11  En1
 BYTE   W12
 BYTE   Cn1
 BYTE   N11  Dn1
 BYTE   W12
 BYTE   N05  Cn1
 BYTE   N05  Dn1
 BYTE   W06
 BYTE   Cn1
 BYTE   N05  Dn1
 BYTE   W06
 BYTE   N23  Cn1
 BYTE   W06
 BYTE   N05  Dn1
 BYTE   W06
 BYTE   N11  En1
 BYTE   W06
 BYTE   N05  Dn1
 BYTE   W06
 BYTE   N11  Cn1
 BYTE   N05  En1
 BYTE   W06
 BYTE   Dn1
 BYTE   N05  En1
 BYTE   W06
 BYTE   Cn1
 BYTE   N05  En1
 BYTE   N11  Cs2
 BYTE   TIE  Fn2
 BYTE   W06
 BYTE   N05  Cn1
 BYTE   N05  En1
 BYTE   W06
 BYTE   PEND 
// 021   ----------------------------------------
 BYTE   PATT
  POIN2 Label_3_01490E09
// 022   ----------------------------------------
 BYTE   PATT
  POIN2 Label_3_01490E2D
// 023   ----------------------------------------
 BYTE   EOT
 BYTE   Fn2
 BYTE   N01  Fn2  v100
 BYTE   W01
// 024   ----------------------------------------
 BYTE   PATT
  POIN2 Label_3_01490E5D
// 025   ----------------------------------------
 BYTE   N23  Cn1  v100
 BYTE   N17  En1
 BYTE   N17  Ds2
 BYTE   W18
 BYTE   N05  En1
 BYTE   N17  Ds2
 BYTE   W06
 BYTE   N11  Cn1
 BYTE   N11  Dn1
 BYTE   W12
 BYTE   N05  Cn1
 BYTE   N05  Dn1
 BYTE   N17  En1
 BYTE   N17  Ds2
 BYTE   W06
 BYTE   N05  Cn1
 BYTE   N05  Dn1
 BYTE   W06
 BYTE   N23  Cn1
 BYTE   W06
 BYTE   N05  Dn1
 BYTE   N17  En1
 BYTE   N17  Ds2
 BYTE   W12
 BYTE   N05  Dn1
 BYTE   W06
 BYTE   N11  Cn1
 BYTE   N05  En1
 BYTE   N23  Cs2
 BYTE   N23  Ds2
 BYTE   W06
 BYTE   N05  Dn1
 BYTE   N05  En1
 BYTE   W06
 BYTE   Cn1
 BYTE   N05  En1
 BYTE   W06
 BYTE   Cn1
 BYTE   N05  En1
 BYTE   W06
// 026   ----------------------------------------
 BYTE   PATT
  POIN2 Label_3_01490D3A
// 027   ----------------------------------------
 BYTE   PATT
  POIN2 Label_3_01490D62
// 028   ----------------------------------------
 BYTE   PATT
  POIN2 Label_3_01490E09
// 029   ----------------------------------------
 BYTE   PATT
  POIN2 Label_3_01490E2D
// 030   ----------------------------------------
 BYTE   EOT
 BYTE   Fn2
 BYTE   N01  Fn2  v100
 BYTE   W01
// 031   ----------------------------------------
 BYTE   PATT
  POIN2 Label_3_01490E5D
// 032   ----------------------------------------
 BYTE   PATT
  POIN2 Label_3_01490E8B
// 033   ----------------------------------------
 BYTE   PATT
  POIN2 Label_3_01490E09
// 034   ----------------------------------------
 BYTE   PATT
  POIN2 Label_3_01490E2D
// 035   ----------------------------------------
 BYTE   EOT
 BYTE   Fn2
 BYTE   N01  Fn2  v100
 BYTE   W01
// 036   ----------------------------------------
 BYTE   PATT
  POIN2 Label_3_01490E5D
// 037   ----------------------------------------
 BYTE   N23  Cn1  v100
 BYTE   N23  Ds2
 BYTE   W12
 BYTE   N11  En1
 BYTE   W12
 BYTE   Cn1
 BYTE   N11  Dn1
 BYTE   W12
 BYTE   N05  Cn1
 BYTE   N05  Dn1
 BYTE   W06
 BYTE   Cn1
 BYTE   N05  Dn1
 BYTE   W06
 BYTE   N23  Cn1
 BYTE   W06
 BYTE   N05  Dn1
 BYTE   W06
 BYTE   N11  En1
 BYTE   W06
 BYTE   N05  Dn1
 BYTE   W06
 BYTE   N11  Cn1
 BYTE   N05  En1
 BYTE   W06
 BYTE   Dn1
 BYTE   N05  En1
 BYTE   W06
 BYTE   Cn1
 BYTE   N05  En1
 BYTE   N11  Cs2
 BYTE   W06
 BYTE   N05  Cn1
 BYTE   N05  En1
 BYTE   W06
// 038   ----------------------------------------
 BYTE   GoTo
  POIN2 Label_3_01490D8F
// 039   ----------------------------------------
 BYTE   PAN   c_v+0
 BYTE   BEND   c_v+0
 BYTE   FINE

//**************** Track 5 (Midi-Chn.4) ****************//

song0152_005:
// 000   ----------------------------------------
 BYTE   KEYSH   song0152_key+0
 BYTE   VOICE   10
 BYTE   VOL   14*song0152_mvl/mxv
 BYTE   PAN   c_v-47
 BYTE   BEND   c_v+0
 BYTE   W96
// 001   ----------------------------------------
 BYTE   W96
// 002   ----------------------------------------
 BYTE   W96
// 003   ----------------------------------------
 BYTE   W96
// 004   ----------------------------------------
 BYTE   W96
// 005   ----------------------------------------
 BYTE   W96
// 006   ----------------------------------------
 BYTE   W96
// 007   ----------------------------------------
Label_4_014910A5:
 BYTE   N11  Ds4  v100
 BYTE   W12
 BYTE   N05  Cs4
 BYTE   W06
 BYTE   N06  Ds4
 BYTE   W06
 BYTE   N11
 BYTE   W12
 BYTE   N05  Cs4
 BYTE   W06
 BYTE   N06  Ds4
 BYTE   W06
 BYTE   N05
 BYTE   W06
 BYTE   N06  Fn4
 BYTE   W06
 BYTE   Fs4
 BYTE   W06
 BYTE   Ds4
 BYTE   W06
 BYTE   As4
 BYTE   W06
 BYTE   Gs4
 BYTE   W06
 BYTE   Fs4
 BYTE   W06
 BYTE   Fn4
 BYTE   W06
 BYTE   PEND 
// 008   ----------------------------------------
 BYTE   PATT
  POIN2 Label_4_014910A5
// 009   ----------------------------------------
 BYTE   PATT
  POIN2 Label_4_014910A5
// 010   ----------------------------------------
Label_4_014910D3:
 BYTE   N05  Ds4  v100
 BYTE   W06
 BYTE   N06  Cs4
 BYTE   W06
 BYTE   Ds4
 BYTE   W06
 BYTE   Cs4
 BYTE   W06
 BYTE   Fs4
 BYTE   W06
 BYTE   Fn4
 BYTE   W06
 BYTE   Fs4
 BYTE   W06
 BYTE   Fn4
 BYTE   W06
 BYTE   As4
 BYTE   W06
 BYTE   Gs4
 BYTE   W06
 BYTE   Fs4
 BYTE   W06
 BYTE   Fn4
 BYTE   W06
 BYTE   Gs4
 BYTE   W06
 BYTE   Fs4
 BYTE   W06
 BYTE   Fn4
 BYTE   W06
 BYTE   Fs4
 BYTE   W06
 BYTE   PEND 
// 011   ----------------------------------------
 BYTE   PATT
  POIN2 Label_4_014910A5
// 012   ----------------------------------------
 BYTE   PATT
  POIN2 Label_4_014910A5
// 013   ----------------------------------------
 BYTE   PATT
  POIN2 Label_4_014910A5
// 014   ----------------------------------------
 BYTE   PATT
  POIN2 Label_4_014910D3
// 015   ----------------------------------------
Label_4_0149110B:
 BYTE   N11  Fn4  v100
 BYTE   W12
 BYTE   N05  Ds4
 BYTE   W06
 BYTE   N06  Fn4
 BYTE   W06
 BYTE   N11
 BYTE   W12
 BYTE   N05  Ds4
 BYTE   W06
 BYTE   N06  Fn4
 BYTE   W06
 BYTE   N05
 BYTE   W06
 BYTE   N06  Fs4
 BYTE   W06
 BYTE   Gs4
 BYTE   W06
 BYTE   Fn4
 BYTE   W06
 BYTE   As4
 BYTE   W06
 BYTE   Gs4
 BYTE   W06
 BYTE   Fs4
 BYTE   W06
 BYTE   Gs4
 BYTE   W06
 BYTE   PEND 
// 016   ----------------------------------------
 BYTE   PATT
  POIN2 Label_4_0149110B
// 017   ----------------------------------------
 BYTE   PATT
  POIN2 Label_4_0149110B
// 018   ----------------------------------------
Label_4_01491139:
 BYTE   N05  Fn4  v100
 BYTE   W06
 BYTE   N06  Ds4
 BYTE   W06
 BYTE   Fn4
 BYTE   W06
 BYTE   Fs4
 BYTE   W06
 BYTE   Fn4
 BYTE   W06
 BYTE   Fs4
 BYTE   W06
 BYTE   Gs4
 BYTE   W06
 BYTE   As4
 BYTE   W06
 BYTE   Fn4
 BYTE   W06
 BYTE   Ds4
 BYTE   W06
 BYTE   Fn4
 BYTE   W06
 BYTE   Fs4
 BYTE   W06
 BYTE   Fn4
 BYTE   W06
 BYTE   Fs4
 BYTE   W06
 BYTE   Gs4
 BYTE   W06
 BYTE   As4
 BYTE   W06
 BYTE   PEND 
// 019   ----------------------------------------
 BYTE   PATT
  POIN2 Label_4_0149110B
// 020   ----------------------------------------
 BYTE   PATT
  POIN2 Label_4_0149110B
// 021   ----------------------------------------
 BYTE   PATT
  POIN2 Label_4_0149110B
// 022   ----------------------------------------
 BYTE   PATT
  POIN2 Label_4_01491139
// 023   ----------------------------------------
 BYTE   W96
// 024   ----------------------------------------
 BYTE   W96
// 025   ----------------------------------------
 BYTE   W96
// 026   ----------------------------------------
 BYTE   W96
// 027   ----------------------------------------
 BYTE   W96
// 028   ----------------------------------------
 BYTE   W96
// 029   ----------------------------------------
 BYTE   PATT
  POIN2 Label_4_014910A5
// 030   ----------------------------------------
 BYTE   PATT
  POIN2 Label_4_014910A5
// 031   ----------------------------------------
 BYTE   PATT
  POIN2 Label_4_014910A5
// 032   ----------------------------------------
 BYTE   PATT
  POIN2 Label_4_014910D3
// 033   ----------------------------------------
 BYTE   GoTo
  POIN2 Label_4_014910A5
// 034   ----------------------------------------
 BYTE   BEND   c_v+0
 BYTE   FINE

//**************** Track 6 (Midi-Chn.5) ****************//

song0152_006:
// 000   ----------------------------------------
 BYTE   KEYSH   song0152_key+0
 BYTE   VOICE   69
 BYTE   VOL   19*song0152_mvl/mxv
 BYTE   PAN   c_v+17
 BYTE   BEND   c_v+0
 BYTE   N92  Ds1  v100
 BYTE   W96
// 001   ----------------------------------------
 BYTE   Cs1
 BYTE   W96
// 002   ----------------------------------------
Label_5_014579E0:
 BYTE   N44  Fs1  v100
 BYTE   W48
 BYTE   Fn1
 BYTE   W48
 BYTE   PEND 
// 003   ----------------------------------------
 BYTE   N92  Ds1
 BYTE   W96
// 004   ----------------------------------------
Label_5_014579EA:
 BYTE   N44  Ds1  v100
 BYTE   W48
 BYTE   Fs1
 BYTE   W48
 BYTE   PEND 
// 005   ----------------------------------------
 BYTE   N92  Ds1
 BYTE   W96
// 006   ----------------------------------------
 BYTE   PATT
  POIN2 Label_5_014579E0
// 007   ----------------------------------------
Label_5_014579F9:
 BYTE   N92  Ds1  v100
 BYTE   W96
// 008   ----------------------------------------
 BYTE   PATT
  POIN2 Label_5_014579EA
// 009   ----------------------------------------
 BYTE   N92  Ds1  v100
 BYTE   W96
// 010   ----------------------------------------
 BYTE   PATT
  POIN2 Label_5_014579E0
// 011   ----------------------------------------
 BYTE   N92  Ds1  v100
 BYTE   W96
// 012   ----------------------------------------
 BYTE   PATT
  POIN2 Label_5_014579EA
// 013   ----------------------------------------
 BYTE   N92  Ds1  v100
 BYTE   W96
// 014   ----------------------------------------
 BYTE   N44  Fs1
 BYTE   W48
 BYTE   Gs1
 BYTE   W48
// 015   ----------------------------------------
 BYTE   N92  Fs1
 BYTE   W96
// 016   ----------------------------------------
Label_5_01457A20:
 BYTE   N44  Gs1  v100
 BYTE   W48
 BYTE   Cs2
 BYTE   W48
 BYTE   PEND 
// 017   ----------------------------------------
 BYTE   N92  As1
 BYTE   W96
// 018   ----------------------------------------
Label_5_01457A2A:
 BYTE   N44  As1  v100
 BYTE   W48
 BYTE   Gs1
 BYTE   W48
 BYTE   PEND 
// 019   ----------------------------------------
 BYTE   N92  Fs1
 BYTE   W96
// 020   ----------------------------------------
 BYTE   PATT
  POIN2 Label_5_01457A20
// 021   ----------------------------------------
 BYTE   N92  As1  v100
 BYTE   W96
// 022   ----------------------------------------
 BYTE   PATT
  POIN2 Label_5_01457A2A
// 023   ----------------------------------------
 BYTE   W96
// 024   ----------------------------------------
 BYTE   N92  Ds1  v100
 BYTE   W96
// 025   ----------------------------------------
 BYTE   N92
 BYTE   W96
// 026   ----------------------------------------
 BYTE   Cs1
 BYTE   W96
// 027   ----------------------------------------
 BYTE   Fs1
 BYTE   W96
// 028   ----------------------------------------
Label_5_01457A4D:
 BYTE   N44  Gs1  v100
 BYTE   W48
 BYTE   Fs1
 BYTE   W48
 BYTE   PEND 
// 029   ----------------------------------------
 BYTE   N92  Ds1
 BYTE   W96
// 030   ----------------------------------------
 BYTE   Cs1
 BYTE   W96
// 031   ----------------------------------------
 BYTE   Fs1
 BYTE   W96
// 032   ----------------------------------------
 BYTE   PATT
  POIN2 Label_5_01457A4D
// 033   ----------------------------------------
 BYTE   GoTo
  POIN2 Label_5_014579F9
// 034   ----------------------------------------
 BYTE   BEND   c_v+0
 BYTE   FINE

//**************** Track 7 (Midi-Chn.6) ****************//

song0152_007:
// 000   ----------------------------------------
 BYTE   KEYSH   song0152_key+0
 BYTE   VOICE   100
 BYTE   VOL   21*song0152_mvl/mxv
 BYTE   PAN   c_v+54
 BYTE   BEND   c_v+0
 BYTE   W96
// 001   ----------------------------------------
 BYTE   W96
// 002   ----------------------------------------
 BYTE   W96
// 003   ----------------------------------------
 BYTE   N42  Ds4  v100
 BYTE   N12  Fs4  v052
 BYTE   W96
// 004   ----------------------------------------
 BYTE   W96
// 005   ----------------------------------------
 BYTE   W96
// 006   ----------------------------------------
 BYTE   N23  Fs4  v100
 BYTE   N24  An4  v064
 BYTE   W24
 BYTE   Ds4  v100
 BYTE   N24  Gn4  v064
 BYTE   W24
 BYTE   Fn4  v100
 BYTE   N24  An4  v064
 BYTE   W24
 BYTE   Cs4  v100
 BYTE   N24  Gn4  v064
 BYTE   W24
// 007   ----------------------------------------
Label_6_01457B33:
 BYTE   N54  Ds4  v100
 BYTE   N42  Fs4  v064
 BYTE   W96
// 008   ----------------------------------------
 BYTE   W96
// 009   ----------------------------------------
 BYTE   W96
// 010   ----------------------------------------
 BYTE   W96
// 011   ----------------------------------------
 BYTE   W96
// 012   ----------------------------------------
 BYTE   W96
// 013   ----------------------------------------
 BYTE   W96
// 014   ----------------------------------------
 BYTE   W96
// 015   ----------------------------------------
 BYTE   W96
// 016   ----------------------------------------
 BYTE   W96
// 017   ----------------------------------------
 BYTE   W96
// 018   ----------------------------------------
 BYTE   W96
// 019   ----------------------------------------
 BYTE   W96
// 020   ----------------------------------------
 BYTE   W96
// 021   ----------------------------------------
 BYTE   W96
// 022   ----------------------------------------
 BYTE   W96
// 023   ----------------------------------------
 BYTE   W96
// 024   ----------------------------------------
 BYTE   W96
// 025   ----------------------------------------
 BYTE   W96
// 026   ----------------------------------------
 BYTE   W96
// 027   ----------------------------------------
 BYTE   W96
// 028   ----------------------------------------
 BYTE   W96
// 029   ----------------------------------------
 BYTE   W96
// 030   ----------------------------------------
 BYTE   W96
// 031   ----------------------------------------
 BYTE   W96
// 032   ----------------------------------------
 BYTE   W96
// 033   ----------------------------------------
 BYTE   GoTo
  POIN2 Label_6_01457B33
// 034   ----------------------------------------
 BYTE   BEND   c_v+0
 BYTE   FINE

//**************** Track 8 (Midi-Chn.7) ****************//

song0152_008:
// 000   ----------------------------------------
 BYTE   KEYSH   song0152_key+0
 BYTE   VOICE   42
 BYTE   VOL   20*song0152_mvl/mxv
 BYTE   PAN   c_v+46
 BYTE   BEND   c_v+0
 BYTE   W96
// 001   ----------------------------------------
 BYTE   W96
// 002   ----------------------------------------
 BYTE   W96
// 003   ----------------------------------------
 BYTE   N12  Fs4  v052
 BYTE   W96
// 004   ----------------------------------------
 BYTE   W96
// 005   ----------------------------------------
 BYTE   W96
// 006   ----------------------------------------
 BYTE   N54  Fs4  v064
 BYTE   W48
 BYTE   Fn4  v100
 BYTE   W48
// 007   ----------------------------------------
Label_7_01457A86:
 BYTE   N60  Ds4  v116
 BYTE   W96
// 008   ----------------------------------------
 BYTE   W96
// 009   ----------------------------------------
 BYTE   W96
// 010   ----------------------------------------
 BYTE   W96
// 011   ----------------------------------------
 BYTE   W96
// 012   ----------------------------------------
 BYTE   W96
// 013   ----------------------------------------
 BYTE   W96
// 014   ----------------------------------------
 BYTE   W96
// 015   ----------------------------------------
 BYTE   W96
// 016   ----------------------------------------
 BYTE   W96
// 017   ----------------------------------------
 BYTE   W96
// 018   ----------------------------------------
 BYTE   W96
// 019   ----------------------------------------
 BYTE   W96
// 020   ----------------------------------------
 BYTE   W96
// 021   ----------------------------------------
 BYTE   W96
// 022   ----------------------------------------
 BYTE   W96
// 023   ----------------------------------------
 BYTE   W96
// 024   ----------------------------------------
 BYTE   W96
// 025   ----------------------------------------
 BYTE   W96
// 026   ----------------------------------------
 BYTE   W96
// 027   ----------------------------------------
 BYTE   W96
// 028   ----------------------------------------
 BYTE   W96
// 029   ----------------------------------------
 BYTE   W96
// 030   ----------------------------------------
 BYTE   W96
// 031   ----------------------------------------
 BYTE   W96
// 032   ----------------------------------------
 BYTE   W96
// 033   ----------------------------------------
 BYTE   GoTo
  POIN2 Label_7_01457A86
// 034   ----------------------------------------
 BYTE   BEND   c_v+0
 BYTE   FINE

//**************** Track 9 (Midi-Chn.8) ****************//

song0152_009:
// 000   ----------------------------------------
 BYTE   KEYSH   song0152_key+0
 BYTE   VOICE   54
 BYTE   VOL   28*song0152_mvl/mxv
 BYTE   PAN   c_v+27
 BYTE   BEND   c_v+0
 BYTE   W96
// 001   ----------------------------------------
 BYTE   W96
// 002   ----------------------------------------
 BYTE   W96
// 003   ----------------------------------------
 BYTE   W96
// 004   ----------------------------------------
 BYTE   W96
// 005   ----------------------------------------
 BYTE   W96
// 006   ----------------------------------------
 BYTE   W96
// 007   ----------------------------------------
Label_8_01457601:
 BYTE   W96
// 008   ----------------------------------------
 BYTE   W96
// 009   ----------------------------------------
 BYTE   W96
// 010   ----------------------------------------
 BYTE   W96
// 011   ----------------------------------------
 BYTE   W96
// 012   ----------------------------------------
 BYTE   W96
// 013   ----------------------------------------
 BYTE   W96
// 014   ----------------------------------------
 BYTE   W96
// 015   ----------------------------------------
 BYTE   N23  Fn4  v100
 BYTE   W24
 BYTE   Gs4
 BYTE   W24
 BYTE   N11  Fn4
 BYTE   W12
 BYTE   Fs4
 BYTE   W12
 BYTE   N23  Fn4
 BYTE   W24
// 016   ----------------------------------------
 BYTE   N11
 BYTE   W12
 BYTE   N05  Gs4
 BYTE   W06
 BYTE   Fn4
 BYTE   W06
 BYTE   N11  Gs4
 BYTE   W12
 BYTE   N05  As4
 BYTE   W06
 BYTE   Gs4
 BYTE   W06
 BYTE   N11  Fn4
 BYTE   W12
 BYTE   Ds4
 BYTE   N11  Ds5
 BYTE   W12
 BYTE   N23  Cs4
 BYTE   N23  Cs5
 BYTE   W24
// 017   ----------------------------------------
 BYTE   N11  As4
 BYTE   W12
 BYTE   N05  Gs4
 BYTE   W06
 BYTE   As4
 BYTE   W06
 BYTE   N11  Gs4
 BYTE   W12
 BYTE   N05  Fs4
 BYTE   W06
 BYTE   Gs4
 BYTE   W06
 BYTE   N11  As4
 BYTE   W12
 BYTE   N05  Gs4
 BYTE   W06
 BYTE   As4
 BYTE   W06
 BYTE   Gs4
 BYTE   W06
 BYTE   As4
 BYTE   W06
 BYTE   Bn4
 BYTE   W06
 BYTE   Gs4
 BYTE   W06
// 018   ----------------------------------------
 BYTE   N23  As4
 BYTE   W24
 BYTE   Gs4
 BYTE   W24
 BYTE   Fs4
 BYTE   W24
 BYTE   Fn4
 BYTE   W24
// 019   ----------------------------------------
 BYTE   N11
 BYTE   W12
 BYTE   Fs4
 BYTE   W12
 BYTE   Gs4
 BYTE   W12
 BYTE   As4
 BYTE   W12
 BYTE   Fn4
 BYTE   W12
 BYTE   Fs4
 BYTE   W12
 BYTE   N23  Fn4
 BYTE   W24
// 020   ----------------------------------------
 BYTE   N11
 BYTE   W12
 BYTE   N05  Gs4
 BYTE   W06
 BYTE   As4
 BYTE   W06
 BYTE   N11  Gs4
 BYTE   W12
 BYTE   N05  As4
 BYTE   W06
 BYTE   Cs5
 BYTE   W06
 BYTE   N24  Ds5
 BYTE   W24
 BYTE   N23  Cs5
 BYTE   W24
// 021   ----------------------------------------
 BYTE   N24  Ds5
 BYTE   W24
 BYTE   N24
 BYTE   W24
 BYTE   N24
 BYTE   W24
 BYTE   N18
 BYTE   W24
// 022   ----------------------------------------
 BYTE   N17
 BYTE   W18
 BYTE   As4
 BYTE   W18
 BYTE   Cs5
 BYTE   W18
 BYTE   Gs4
 BYTE   W18
 BYTE   N11  Fs4
 BYTE   W12
 BYTE   Gs4
 BYTE   W12
// 023   ----------------------------------------
 BYTE   TIE  Ds4
 BYTE   W96
// 024   ----------------------------------------
 BYTE   W92
 BYTE   W03
 BYTE   EOT
 BYTE   W01
// 025   ----------------------------------------
 BYTE   W96
// 026   ----------------------------------------
 BYTE   W96
// 027   ----------------------------------------
 BYTE   W96
// 028   ----------------------------------------
 BYTE   W96
// 029   ----------------------------------------
 BYTE   W96
// 030   ----------------------------------------
 BYTE   W96
// 031   ----------------------------------------
 BYTE   W96
// 032   ----------------------------------------
 BYTE   W96
// 033   ----------------------------------------
 BYTE   GoTo
  POIN2 Label_8_01457601
// 034   ----------------------------------------
 BYTE   BEND   c_v+0
 BYTE   FINE

//******************************************************//
	ALIGN 4

song0152:
	BYTE	9	// NumTrks
	BYTE	0	// NumBlks
	BYTE	song0152_pri	// Priority
	BYTE	song0152_rev	// Reverb.
    
	POIN2	song0152_grp
    
	POIN2	song0152_001
	POIN2	song0152_002
	POIN2	song0152_003
	POIN2	song0152_004
	POIN2	song0152_005
	POIN2	song0152_006
	POIN2	song0152_007
	POIN2	song0152_008
	POIN2	song0152_009

	
