//Event file generated from Sappy .s format.
	#include "MPlayDef.event"

	#define	song26_grp  voicegroup001
	#define	song26_pri  0
	#define	song26_rev  0
	#define	song26_mvl  127
	#define	song26_key  0
	#define	song26_tbs  1
	#define	song26_exg  0
	#define	song26_cmp  1

	// .rodata
	//	song26
	ALIGN 4


//**************** Track 1 (Midi-Chn.0) ****************//

song26_001:
// 000   ----------------------------------------
 BYTE   KEYSH   song26_key+0
Label_0_0149FD86:
 BYTE   TEMPO   136*song26_tbs/2
 BYTE   VOICE   48
 BYTE   VOL   53*song26_mvl/mxv
 BYTE   PAN   c_v-30
 BYTE   W96
// 001   ----------------------------------------
 BYTE   W96
// 002   ----------------------------------------
 BYTE   W96
// 003   ----------------------------------------
 BYTE   W96
// 004   ----------------------------------------
 BYTE   W96
// 005   ----------------------------------------
 BYTE   W96
// 006   ----------------------------------------
 BYTE   W96
// 007   ----------------------------------------
 BYTE   W96
// 008   ----------------------------------------
 BYTE   W96
// 009   ----------------------------------------
 BYTE   W96
// 010   ----------------------------------------
 BYTE   W96
// 011   ----------------------------------------
 BYTE   W96
// 012   ----------------------------------------
 BYTE   W96
// 013   ----------------------------------------
 BYTE   W96
// 014   ----------------------------------------
 BYTE   W96
// 015   ----------------------------------------
 BYTE   W96
// 016   ----------------------------------------
 BYTE   W96
// 017   ----------------------------------------
 BYTE   W96
// 018   ----------------------------------------
 BYTE   W96
// 019   ----------------------------------------
 BYTE   W96
// 020   ----------------------------------------
Label_0_0149FDA2:
 BYTE   N04  Ds5  v124
 BYTE   W08
 BYTE   En5  v120
 BYTE   W08
 BYTE   Ds5  v116
 BYTE   W08
 BYTE   Cs5  v112
 BYTE   W08
 BYTE   Bn4  v104
 BYTE   W08
 BYTE   As4  v100
 BYTE   W08
 BYTE   Ds5  v120
 BYTE   W08
 BYTE   En5  v116
 BYTE   W08
 BYTE   Ds5  v112
 BYTE   W08
 BYTE   Cs5  v104
 BYTE   W08
 BYTE   Bn4  v100
 BYTE   W08
 BYTE   As4  v096
 BYTE   W08
 BYTE   PEND 
// 021   ----------------------------------------
Label_0_0149FDC8:
 BYTE   N04  Ds5  v120
 BYTE   W08
 BYTE   En5  v116
 BYTE   W08
 BYTE   Ds5  v112
 BYTE   W08
 BYTE   Cs5  v108
 BYTE   W08
 BYTE   Bn4  v104
 BYTE   W08
 BYTE   As4  v100
 BYTE   W08
 BYTE   Ds5  v124
 BYTE   W08
 BYTE   En5  v120
 BYTE   W08
 BYTE   Ds5  v116
 BYTE   W08
 BYTE   Cs5  v112
 BYTE   W08
 BYTE   Bn4  v108
 BYTE   W08
 BYTE   As4  v104
 BYTE   W08
 BYTE   PEND 
// 022   ----------------------------------------
Label_0_0149FDEE:
 BYTE   N04  Ds5  v124
 BYTE   W08
 BYTE   En5  v120
 BYTE   W08
 BYTE   Ds5  v116
 BYTE   W08
 BYTE   Cs5  v112
 BYTE   W08
 BYTE   Bn4  v108
 BYTE   W08
 BYTE   As4  v104
 BYTE   W08
 BYTE   Ds5  v124
 BYTE   W08
 BYTE   En5  v120
 BYTE   W08
 BYTE   Ds5  v116
 BYTE   W08
 BYTE   Cs5  v112
 BYTE   W08
 BYTE   Bn4  v108
 BYTE   W08
 BYTE   As4  v104
 BYTE   W08
 BYTE   PEND 
// 023   ----------------------------------------
 BYTE   PATT
  POIN2 Label_0_0149FDEE
// 024   ----------------------------------------
 BYTE   W96
// 025   ----------------------------------------
 BYTE   W96
// 026   ----------------------------------------
 BYTE   W96
// 027   ----------------------------------------
 BYTE   W96
// 028   ----------------------------------------
 BYTE   W96
// 029   ----------------------------------------
 BYTE   W96
// 030   ----------------------------------------
Label_0_0149FE1F:
 BYTE   N48  Ds5  v100
 BYTE   W48
 BYTE   Gs5
 BYTE   W48
 BYTE   PEND 
// 031   ----------------------------------------
Label_0_0149FE26:
 BYTE   N48  Fs5  v100
 BYTE   W48
 BYTE   Fn5
 BYTE   W48
 BYTE   PEND 
// 032   ----------------------------------------
Label_0_0149FE2D:
 BYTE   N48  Ds5  v100
 BYTE   W48
 BYTE   As5
 BYTE   W48
 BYTE   PEND 
// 033   ----------------------------------------
Label_0_0149FE34:
 BYTE   N48  Fs5  v100
 BYTE   W48
 BYTE   Gs5
 BYTE   W48
 BYTE   PEND 
// 034   ----------------------------------------
 BYTE   PATT
  POIN2 Label_0_0149FE1F
// 035   ----------------------------------------
 BYTE   PATT
  POIN2 Label_0_0149FE26
// 036   ----------------------------------------
 BYTE   PATT
  POIN2 Label_0_0149FE2D
// 037   ----------------------------------------
 BYTE   PATT
  POIN2 Label_0_0149FE34
// 038   ----------------------------------------
 BYTE   W96
// 039   ----------------------------------------
 BYTE   W96
// 040   ----------------------------------------
Label_0_0149FE51:
 BYTE   N20  Ds5  v100
 BYTE   W24
 BYTE   En5  v104
 BYTE   W24
 BYTE   Fs5  v108
 BYTE   W24
 BYTE   Gs5  v112
 BYTE   W24
 BYTE   PEND 
// 041   ----------------------------------------
Label_0_0149FE5F:
 BYTE   N20  An5  v120
 BYTE   W24
 BYTE   Bn5  v124
 BYTE   W24
 BYTE   N24  Cn6  v127
 BYTE   W48
 BYTE   PEND 
// 042   ----------------------------------------
 BYTE   W96
// 043   ----------------------------------------
 BYTE   W96
// 044   ----------------------------------------
 BYTE   W96
// 045   ----------------------------------------
 BYTE   W96
// 046   ----------------------------------------
 BYTE   W96
// 047   ----------------------------------------
 BYTE   W96
// 048   ----------------------------------------
 BYTE   W96
// 049   ----------------------------------------
 BYTE   W96
// 050   ----------------------------------------
 BYTE   W96
// 051   ----------------------------------------
 BYTE   W96
// 052   ----------------------------------------
 BYTE   W96
// 053   ----------------------------------------
 BYTE   W96
// 054   ----------------------------------------
 BYTE   W96
// 055   ----------------------------------------
 BYTE   W96
// 056   ----------------------------------------
 BYTE   W96
// 057   ----------------------------------------
 BYTE   W96
// 058   ----------------------------------------
 BYTE   W96
// 059   ----------------------------------------
 BYTE   W96
// 060   ----------------------------------------
 BYTE   W96
// 061   ----------------------------------------
 BYTE   W96
// 062   ----------------------------------------
 BYTE   PATT
  POIN2 Label_0_0149FDA2
// 063   ----------------------------------------
 BYTE   PATT
  POIN2 Label_0_0149FDC8
// 064   ----------------------------------------
 BYTE   PATT
  POIN2 Label_0_0149FDEE
// 065   ----------------------------------------
 BYTE   PATT
  POIN2 Label_0_0149FDEE
// 066   ----------------------------------------
 BYTE   W96
// 067   ----------------------------------------
 BYTE   W96
// 068   ----------------------------------------
 BYTE   W96
// 069   ----------------------------------------
 BYTE   W96
// 070   ----------------------------------------
 BYTE   W96
// 071   ----------------------------------------
 BYTE   W96
// 072   ----------------------------------------
 BYTE   PATT
  POIN2 Label_0_0149FE1F
// 073   ----------------------------------------
 BYTE   PATT
  POIN2 Label_0_0149FE26
// 074   ----------------------------------------
 BYTE   PATT
  POIN2 Label_0_0149FE2D
// 075   ----------------------------------------
 BYTE   PATT
  POIN2 Label_0_0149FE34
// 076   ----------------------------------------
 BYTE   PATT
  POIN2 Label_0_0149FE1F
// 077   ----------------------------------------
 BYTE   PATT
  POIN2 Label_0_0149FE26
// 078   ----------------------------------------
 BYTE   PATT
  POIN2 Label_0_0149FE2D
// 079   ----------------------------------------
 BYTE   PATT
  POIN2 Label_0_0149FE34
// 080   ----------------------------------------
 BYTE   W96
// 081   ----------------------------------------
 BYTE   W96
// 082   ----------------------------------------
 BYTE   PATT
  POIN2 Label_0_0149FE51
// 083   ----------------------------------------
 BYTE   PATT
  POIN2 Label_0_0149FE5F
// 084   ----------------------------------------
 BYTE   GoTo
  POIN2 Label_0_0149FD86
 BYTE   FINE

//**************** Track 2 (Midi-Chn.1) ****************//

song26_002:
// 000   ----------------------------------------
 BYTE   KEYSH   song26_key+0
Label_1_0149FED6:
 BYTE   VOICE   48
 BYTE   VOL   52*song26_mvl/mxv
 BYTE   PAN   c_v-12
 BYTE   BEND   c_v+0
 BYTE   N06  As3  v100
 BYTE   W08
 BYTE   Gs3  v088
 BYTE   W08
 BYTE   As3  v084
 BYTE   W08
 BYTE   Bn3  v100
 BYTE   W08
 BYTE   Cs4  v088
 BYTE   W08
 BYTE   Bn3  v084
 BYTE   W08
 BYTE   As3  v100
 BYTE   W08
 BYTE   Gs3  v088
 BYTE   W08
 BYTE   As3  v084
 BYTE   W08
 BYTE   Bn3  v100
 BYTE   W08
 BYTE   Cs4  v088
 BYTE   W08
 BYTE   Bn3  v084
 BYTE   W08
// 001   ----------------------------------------
Label_1_0149FF03:
 BYTE   N06  As3  v100
 BYTE   W08
 BYTE   Gs3  v088
 BYTE   W08
 BYTE   As3  v084
 BYTE   W08
 BYTE   Bn3  v100
 BYTE   W08
 BYTE   Cs4  v088
 BYTE   W08
 BYTE   Bn3  v084
 BYTE   W08
 BYTE   As3  v100
 BYTE   W08
 BYTE   Gs3  v088
 BYTE   W08
 BYTE   As3  v084
 BYTE   W08
 BYTE   Bn3  v100
 BYTE   W08
 BYTE   Cs4  v088
 BYTE   W08
 BYTE   Bn3  v084
 BYTE   W08
 BYTE   PEND 
// 002   ----------------------------------------
 BYTE   PATT
  POIN2 Label_1_0149FF03
// 003   ----------------------------------------
 BYTE   PATT
  POIN2 Label_1_0149FF03
// 004   ----------------------------------------
 BYTE   PATT
  POIN2 Label_1_0149FF03
// 005   ----------------------------------------
 BYTE   PATT
  POIN2 Label_1_0149FF03
// 006   ----------------------------------------
 BYTE   PATT
  POIN2 Label_1_0149FF03
// 007   ----------------------------------------
 BYTE   PATT
  POIN2 Label_1_0149FF03
// 008   ----------------------------------------
 BYTE   PATT
  POIN2 Label_1_0149FF03
// 009   ----------------------------------------
 BYTE   PATT
  POIN2 Label_1_0149FF03
// 010   ----------------------------------------
 BYTE   PATT
  POIN2 Label_1_0149FF03
// 011   ----------------------------------------
 BYTE   PATT
  POIN2 Label_1_0149FF03
// 012   ----------------------------------------
 BYTE   PATT
  POIN2 Label_1_0149FF03
// 013   ----------------------------------------
 BYTE   PATT
  POIN2 Label_1_0149FF03
// 014   ----------------------------------------
 BYTE   PATT
  POIN2 Label_1_0149FF03
// 015   ----------------------------------------
 BYTE   PATT
  POIN2 Label_1_0149FF03
// 016   ----------------------------------------
 BYTE   PATT
  POIN2 Label_1_0149FF03
// 017   ----------------------------------------
 BYTE   PATT
  POIN2 Label_1_0149FF03
// 018   ----------------------------------------
 BYTE   PATT
  POIN2 Label_1_0149FF03
// 019   ----------------------------------------
 BYTE   PATT
  POIN2 Label_1_0149FF03
// 020   ----------------------------------------
Label_1_0149FF83:
 BYTE   N04  Ds4  v124
 BYTE   W08
 BYTE   En4  v120
 BYTE   W08
 BYTE   Ds4  v116
 BYTE   W08
 BYTE   Cs4  v112
 BYTE   W08
 BYTE   Bn3  v104
 BYTE   W08
 BYTE   As3  v100
 BYTE   W08
 BYTE   Ds4  v120
 BYTE   W08
 BYTE   En4  v116
 BYTE   W08
 BYTE   Ds4  v112
 BYTE   W08
 BYTE   Cs4  v104
 BYTE   W08
 BYTE   Bn3  v100
 BYTE   W08
 BYTE   As3  v096
 BYTE   W08
 BYTE   PEND 
// 021   ----------------------------------------
Label_1_0149FFA9:
 BYTE   N04  Ds4  v120
 BYTE   W08
 BYTE   En4  v116
 BYTE   W08
 BYTE   Ds4  v112
 BYTE   W08
 BYTE   Cs4  v108
 BYTE   W08
 BYTE   Bn3  v104
 BYTE   W08
 BYTE   As3  v100
 BYTE   W08
 BYTE   Ds4  v124
 BYTE   W08
 BYTE   En4  v120
 BYTE   W08
 BYTE   Ds4  v116
 BYTE   W08
 BYTE   Cs4  v112
 BYTE   W08
 BYTE   Bn3  v108
 BYTE   W08
 BYTE   As3  v104
 BYTE   W08
 BYTE   PEND 
// 022   ----------------------------------------
Label_1_0149FFCF:
 BYTE   N04  Ds4  v124
 BYTE   W08
 BYTE   En4  v120
 BYTE   W08
 BYTE   Ds4  v116
 BYTE   W08
 BYTE   Cs4  v112
 BYTE   W08
 BYTE   Bn3  v108
 BYTE   W08
 BYTE   As3  v104
 BYTE   W08
 BYTE   Ds4  v124
 BYTE   W08
 BYTE   En4  v120
 BYTE   W08
 BYTE   Ds4  v116
 BYTE   W08
 BYTE   Cs4  v112
 BYTE   W08
 BYTE   Bn3  v108
 BYTE   W08
 BYTE   As3  v104
 BYTE   W08
 BYTE   PEND 
// 023   ----------------------------------------
 BYTE   PATT
  POIN2 Label_1_0149FFCF
// 024   ----------------------------------------
 BYTE   W96
// 025   ----------------------------------------
 BYTE   W96
// 026   ----------------------------------------
Label_1_0149FFFC:
 BYTE   N06  Ds5  v124
 BYTE   W16
 BYTE   N04  Ds4  v092
 BYTE   W08
 BYTE   Ds5  v108
 BYTE   W08
 BYTE   Ds5  v088
 BYTE   W08
 BYTE   Ds5  v080
 BYTE   W08
 BYTE   Ds5  v124
 BYTE   W08
 BYTE   Ds5  v088
 BYTE   W08
 BYTE   Ds4  v080
 BYTE   W08
 BYTE   Ds5  v096
 BYTE   W08
 BYTE   Ds5  v088
 BYTE   W08
 BYTE   Ds5  v080
 BYTE   W08
 BYTE   PEND 
// 027   ----------------------------------------
 BYTE   PATT
  POIN2 Label_1_0149FFFC
// 028   ----------------------------------------
 BYTE   PATT
  POIN2 Label_1_0149FFFC
// 029   ----------------------------------------
 BYTE   PATT
  POIN2 Label_1_0149FFFC
// 030   ----------------------------------------
Label_1_014A002F:
 BYTE   N06  Ds5  v116
 BYTE   W16
 BYTE   Ds5  v084
 BYTE   W16
 BYTE   Ds5  v092
 BYTE   W08
 BYTE   Ds5  v096
 BYTE   W08
 BYTE   Ds5  v116
 BYTE   W16
 BYTE   Ds5  v084
 BYTE   W16
 BYTE   Ds5  v092
 BYTE   W08
 BYTE   Ds5  v096
 BYTE   W08
 BYTE   PEND 
// 031   ----------------------------------------
Label_1_014A0049:
 BYTE   N06  Ds5  v112
 BYTE   W16
 BYTE   Ds5  v084
 BYTE   W16
 BYTE   Ds5  v092
 BYTE   W08
 BYTE   Ds5  v096
 BYTE   W08
 BYTE   Ds5  v112
 BYTE   W16
 BYTE   Ds5  v084
 BYTE   W16
 BYTE   Ds5  v092
 BYTE   W08
 BYTE   Ds5  v096
 BYTE   W08
 BYTE   PEND 
// 032   ----------------------------------------
Label_1_014A0063:
 BYTE   N06  Ds5  v120
 BYTE   W16
 BYTE   Ds5  v084
 BYTE   W16
 BYTE   Ds5  v092
 BYTE   W08
 BYTE   Ds5  v096
 BYTE   W08
 BYTE   Ds5  v108
 BYTE   W16
 BYTE   Ds5  v084
 BYTE   W16
 BYTE   Ds5  v092
 BYTE   W08
 BYTE   Ds5  v096
 BYTE   W08
 BYTE   PEND 
// 033   ----------------------------------------
Label_1_014A007D:
 BYTE   N06  Ds5  v120
 BYTE   W16
 BYTE   Ds5  v084
 BYTE   W16
 BYTE   Ds5  v092
 BYTE   W08
 BYTE   Ds5  v096
 BYTE   W08
 BYTE   Ds5  v100
 BYTE   W16
 BYTE   Ds5  v084
 BYTE   W08
 BYTE   N06
 BYTE   W08
 BYTE   Ds5  v092
 BYTE   W08
 BYTE   Ds5  v096
 BYTE   W08
 BYTE   PEND 
// 034   ----------------------------------------
 BYTE   PATT
  POIN2 Label_1_014A002F
// 035   ----------------------------------------
 BYTE   PATT
  POIN2 Label_1_014A0049
// 036   ----------------------------------------
 BYTE   PATT
  POIN2 Label_1_014A0063
// 037   ----------------------------------------
 BYTE   PATT
  POIN2 Label_1_014A007D
// 038   ----------------------------------------
 BYTE   W96
// 039   ----------------------------------------
 BYTE   W96
// 040   ----------------------------------------
Label_1_014A00AF:
 BYTE   N20  Ds4  v100
 BYTE   W24
 BYTE   En4  v104
 BYTE   W24
 BYTE   Fs4  v108
 BYTE   W24
 BYTE   Gs4  v112
 BYTE   W24
 BYTE   PEND 
// 041   ----------------------------------------
Label_1_014A00BD:
 BYTE   N20  An4  v120
 BYTE   W24
 BYTE   Bn4  v124
 BYTE   W24
 BYTE   N24  Cn5  v127
 BYTE   W48
 BYTE   PEND 
// 042   ----------------------------------------
 BYTE   BEND   c_v+0
 BYTE   N06  As3  v100
 BYTE   W08
 BYTE   Gs3  v088
 BYTE   W08
 BYTE   As3  v084
 BYTE   W08
 BYTE   Bn3  v100
 BYTE   W08
 BYTE   Cs4  v088
 BYTE   W08
 BYTE   Bn3  v084
 BYTE   W08
 BYTE   As3  v100
 BYTE   W08
 BYTE   Gs3  v088
 BYTE   W08
 BYTE   As3  v084
 BYTE   W08
 BYTE   Bn3  v100
 BYTE   W08
 BYTE   Cs4  v088
 BYTE   W08
 BYTE   Bn3  v084
 BYTE   W08
// 043   ----------------------------------------
 BYTE   PATT
  POIN2 Label_1_0149FF03
// 044   ----------------------------------------
 BYTE   PATT
  POIN2 Label_1_0149FF03
// 045   ----------------------------------------
 BYTE   PATT
  POIN2 Label_1_0149FF03
// 046   ----------------------------------------
 BYTE   PATT
  POIN2 Label_1_0149FF03
// 047   ----------------------------------------
 BYTE   PATT
  POIN2 Label_1_0149FF03
// 048   ----------------------------------------
 BYTE   PATT
  POIN2 Label_1_0149FF03
// 049   ----------------------------------------
 BYTE   PATT
  POIN2 Label_1_0149FF03
// 050   ----------------------------------------
 BYTE   PATT
  POIN2 Label_1_0149FF03
// 051   ----------------------------------------
 BYTE   PATT
  POIN2 Label_1_0149FF03
// 052   ----------------------------------------
 BYTE   PATT
  POIN2 Label_1_0149FF03
// 053   ----------------------------------------
 BYTE   PATT
  POIN2 Label_1_0149FF03
// 054   ----------------------------------------
 BYTE   PATT
  POIN2 Label_1_0149FF03
// 055   ----------------------------------------
 BYTE   PATT
  POIN2 Label_1_0149FF03
// 056   ----------------------------------------
 BYTE   PATT
  POIN2 Label_1_0149FF03
// 057   ----------------------------------------
 BYTE   PATT
  POIN2 Label_1_0149FF03
// 058   ----------------------------------------
 BYTE   PATT
  POIN2 Label_1_0149FF03
// 059   ----------------------------------------
 BYTE   PATT
  POIN2 Label_1_0149FF03
// 060   ----------------------------------------
 BYTE   PATT
  POIN2 Label_1_0149FF03
// 061   ----------------------------------------
 BYTE   PATT
  POIN2 Label_1_0149FF03
// 062   ----------------------------------------
 BYTE   PATT
  POIN2 Label_1_0149FF83
// 063   ----------------------------------------
 BYTE   PATT
  POIN2 Label_1_0149FFA9
// 064   ----------------------------------------
 BYTE   PATT
  POIN2 Label_1_0149FFCF
// 065   ----------------------------------------
 BYTE   PATT
  POIN2 Label_1_0149FFCF
// 066   ----------------------------------------
 BYTE   W96
// 067   ----------------------------------------
 BYTE   W96
// 068   ----------------------------------------
 BYTE   PATT
  POIN2 Label_1_0149FFFC
// 069   ----------------------------------------
 BYTE   PATT
  POIN2 Label_1_0149FFFC
// 070   ----------------------------------------
 BYTE   PATT
  POIN2 Label_1_0149FFFC
// 071   ----------------------------------------
 BYTE   PATT
  POIN2 Label_1_0149FFFC
// 072   ----------------------------------------
 BYTE   PATT
  POIN2 Label_1_014A002F
// 073   ----------------------------------------
 BYTE   PATT
  POIN2 Label_1_014A0049
// 074   ----------------------------------------
 BYTE   PATT
  POIN2 Label_1_014A0063
// 075   ----------------------------------------
 BYTE   PATT
  POIN2 Label_1_014A007D
// 076   ----------------------------------------
 BYTE   PATT
  POIN2 Label_1_014A002F
// 077   ----------------------------------------
 BYTE   PATT
  POIN2 Label_1_014A0049
// 078   ----------------------------------------
 BYTE   PATT
  POIN2 Label_1_014A0063
// 079   ----------------------------------------
 BYTE   PATT
  POIN2 Label_1_014A007D
// 080   ----------------------------------------
 BYTE   W96
// 081   ----------------------------------------
 BYTE   W96
// 082   ----------------------------------------
 BYTE   PATT
  POIN2 Label_1_014A00AF
// 083   ----------------------------------------
 BYTE   PATT
  POIN2 Label_1_014A00BD
// 084   ----------------------------------------
 BYTE   GoTo
  POIN2 Label_1_0149FED6
 BYTE   FINE

//**************** Track 3 (Midi-Chn.2) ****************//

song26_003:
// 000   ----------------------------------------
 BYTE   KEYSH   song26_key+0
Label_2_014A01B6:
 BYTE   VOICE   48
 BYTE   VOL   53*song26_mvl/mxv
 BYTE   PAN   c_v+4
 BYTE   BEND   c_v-1
 BYTE   N06  Ds3  v100
 BYTE   W08
 BYTE   Cs3  v088
 BYTE   W08
 BYTE   Ds3  v084
 BYTE   W08
 BYTE   Fn3  v100
 BYTE   W08
 BYTE   Fs3  v088
 BYTE   W08
 BYTE   Fn3  v084
 BYTE   W08
 BYTE   Ds3  v100
 BYTE   W08
 BYTE   Cs3  v088
 BYTE   W08
 BYTE   Ds3  v084
 BYTE   W08
 BYTE   Fn3  v100
 BYTE   W08
 BYTE   Fs3  v088
 BYTE   W08
 BYTE   Fn3  v084
 BYTE   W08
// 001   ----------------------------------------
Label_2_014A01E3:
 BYTE   N06  Ds3  v100
 BYTE   W08
 BYTE   Cs3  v088
 BYTE   W08
 BYTE   Ds3  v084
 BYTE   W08
 BYTE   Fn3  v100
 BYTE   W08
 BYTE   Fs3  v088
 BYTE   W08
 BYTE   Fn3  v084
 BYTE   W08
 BYTE   Ds3  v100
 BYTE   W08
 BYTE   Cs3  v088
 BYTE   W08
 BYTE   Ds3  v084
 BYTE   W08
 BYTE   Fn3  v100
 BYTE   W08
 BYTE   Fs3  v088
 BYTE   W08
 BYTE   Fn3  v084
 BYTE   W08
 BYTE   PEND 
// 002   ----------------------------------------
 BYTE   PATT
  POIN2 Label_2_014A01E3
// 003   ----------------------------------------
 BYTE   PATT
  POIN2 Label_2_014A01E3
// 004   ----------------------------------------
 BYTE   PATT
  POIN2 Label_2_014A01E3
// 005   ----------------------------------------
 BYTE   PATT
  POIN2 Label_2_014A01E3
// 006   ----------------------------------------
 BYTE   PATT
  POIN2 Label_2_014A01E3
// 007   ----------------------------------------
 BYTE   PATT
  POIN2 Label_2_014A01E3
// 008   ----------------------------------------
 BYTE   PATT
  POIN2 Label_2_014A01E3
// 009   ----------------------------------------
 BYTE   PATT
  POIN2 Label_2_014A01E3
// 010   ----------------------------------------
 BYTE   PATT
  POIN2 Label_2_014A01E3
// 011   ----------------------------------------
 BYTE   PATT
  POIN2 Label_2_014A01E3
// 012   ----------------------------------------
 BYTE   PATT
  POIN2 Label_2_014A01E3
// 013   ----------------------------------------
 BYTE   PATT
  POIN2 Label_2_014A01E3
// 014   ----------------------------------------
 BYTE   PATT
  POIN2 Label_2_014A01E3
// 015   ----------------------------------------
 BYTE   PATT
  POIN2 Label_2_014A01E3
// 016   ----------------------------------------
 BYTE   PATT
  POIN2 Label_2_014A01E3
// 017   ----------------------------------------
 BYTE   PATT
  POIN2 Label_2_014A01E3
// 018   ----------------------------------------
 BYTE   PATT
  POIN2 Label_2_014A01E3
// 019   ----------------------------------------
 BYTE   PATT
  POIN2 Label_2_014A01E3
// 020   ----------------------------------------
 BYTE   W96
// 021   ----------------------------------------
 BYTE   W96
// 022   ----------------------------------------
 BYTE   W96
// 023   ----------------------------------------
 BYTE   W96
// 024   ----------------------------------------
 BYTE   W96
// 025   ----------------------------------------
 BYTE   W96
// 026   ----------------------------------------
 BYTE   W96
// 027   ----------------------------------------
 BYTE   W96
// 028   ----------------------------------------
 BYTE   W96
// 029   ----------------------------------------
 BYTE   W96
// 030   ----------------------------------------
Label_2_014A026D:
 BYTE   N06  Ds4  v116
 BYTE   W16
 BYTE   Ds4  v084
 BYTE   W16
 BYTE   Ds4  v092
 BYTE   W08
 BYTE   Ds4  v096
 BYTE   W08
 BYTE   Ds4  v116
 BYTE   W16
 BYTE   Ds4  v084
 BYTE   W16
 BYTE   Ds4  v092
 BYTE   W08
 BYTE   Ds4  v096
 BYTE   W08
 BYTE   PEND 
// 031   ----------------------------------------
Label_2_014A0287:
 BYTE   N06  Ds4  v112
 BYTE   W16
 BYTE   Ds4  v084
 BYTE   W16
 BYTE   Ds4  v092
 BYTE   W08
 BYTE   Ds4  v096
 BYTE   W08
 BYTE   Ds4  v112
 BYTE   W16
 BYTE   Ds4  v084
 BYTE   W16
 BYTE   Ds4  v092
 BYTE   W08
 BYTE   Ds4  v096
 BYTE   W08
 BYTE   PEND 
// 032   ----------------------------------------
Label_2_014A02A1:
 BYTE   N06  Ds4  v120
 BYTE   W16
 BYTE   Ds4  v084
 BYTE   W16
 BYTE   Ds4  v092
 BYTE   W08
 BYTE   Ds4  v096
 BYTE   W08
 BYTE   Ds4  v108
 BYTE   W16
 BYTE   Ds4  v084
 BYTE   W16
 BYTE   Ds4  v092
 BYTE   W08
 BYTE   Ds4  v096
 BYTE   W08
 BYTE   PEND 
// 033   ----------------------------------------
Label_2_014A02BB:
 BYTE   N06  Ds4  v120
 BYTE   W16
 BYTE   Ds4  v084
 BYTE   W16
 BYTE   Ds4  v092
 BYTE   W08
 BYTE   Ds4  v096
 BYTE   W08
 BYTE   Ds4  v100
 BYTE   W16
 BYTE   Ds4  v084
 BYTE   W08
 BYTE   N06
 BYTE   W08
 BYTE   Ds4  v092
 BYTE   W08
 BYTE   Ds4  v096
 BYTE   W08
 BYTE   PEND 
// 034   ----------------------------------------
 BYTE   PATT
  POIN2 Label_2_014A026D
// 035   ----------------------------------------
 BYTE   PATT
  POIN2 Label_2_014A0287
// 036   ----------------------------------------
 BYTE   PATT
  POIN2 Label_2_014A02A1
// 037   ----------------------------------------
 BYTE   PATT
  POIN2 Label_2_014A02BB
// 038   ----------------------------------------
Label_2_014A02EB:
 BYTE   N06  Ds3  v124
 BYTE   W24
 BYTE   As2  v120
 BYTE   W08
 BYTE   As2  v084
 BYTE   W08
 BYTE   Fn3  v080
 BYTE   W08
 BYTE   Fs3  v120
 BYTE   W08
 BYTE   Cs3  v100
 BYTE   W08
 BYTE   Fs3
 BYTE   W08
 BYTE   Gs3  v120
 BYTE   W08
 BYTE   Ds3  v100
 BYTE   W08
 BYTE   Gs3
 BYTE   W08
 BYTE   PEND 
// 039   ----------------------------------------
Label_2_014A0309:
 BYTE   N06  An3  v100
 BYTE   W08
 BYTE   An3  v088
 BYTE   W08
 BYTE   An3  v080
 BYTE   W08
 BYTE   Bn3  v108
 BYTE   W08
 BYTE   Bn3  v096
 BYTE   W08
 BYTE   Bn3  v088
 BYTE   W08
 BYTE   Cs4  v116
 BYTE   W08
 BYTE   Cs4  v104
 BYTE   W08
 BYTE   Cs4  v088
 BYTE   W08
 BYTE   Ds4  v124
 BYTE   W08
 BYTE   Ds4  v108
 BYTE   W08
 BYTE   Ds4  v096
 BYTE   W08
 BYTE   PEND 
// 040   ----------------------------------------
Label_2_014A032F:
 BYTE   W01
 BYTE   N14  Ds3  v116
 BYTE   W23
 BYTE   Cs3
 BYTE   W24
 BYTE   Bn2
 BYTE   W24
 BYTE   An2
 BYTE   W24
 BYTE   PEND 
// 041   ----------------------------------------
Label_2_014A033B:
 BYTE   N14  Gn2  v116
 BYTE   W24
 BYTE   Fn2
 BYTE   W24
 BYTE   N18  Ds2
 BYTE   W48
 BYTE   PEND 
// 042   ----------------------------------------
 BYTE   BEND   c_v-1
 BYTE   N06  Ds3  v100
 BYTE   W08
 BYTE   Cs3  v088
 BYTE   W08
 BYTE   Ds3  v084
 BYTE   W08
 BYTE   Fn3  v100
 BYTE   W08
 BYTE   Fs3  v088
 BYTE   W08
 BYTE   Fn3  v084
 BYTE   W08
 BYTE   Ds3  v100
 BYTE   W08
 BYTE   Cs3  v088
 BYTE   W08
 BYTE   Ds3  v084
 BYTE   W08
 BYTE   Fn3  v100
 BYTE   W08
 BYTE   Fs3  v088
 BYTE   W08
 BYTE   Fn3  v084
 BYTE   W08
// 043   ----------------------------------------
 BYTE   PATT
  POIN2 Label_2_014A01E3
// 044   ----------------------------------------
 BYTE   PATT
  POIN2 Label_2_014A01E3
// 045   ----------------------------------------
 BYTE   PATT
  POIN2 Label_2_014A01E3
// 046   ----------------------------------------
 BYTE   PATT
  POIN2 Label_2_014A01E3
// 047   ----------------------------------------
 BYTE   PATT
  POIN2 Label_2_014A01E3
// 048   ----------------------------------------
 BYTE   PATT
  POIN2 Label_2_014A01E3
// 049   ----------------------------------------
 BYTE   PATT
  POIN2 Label_2_014A01E3
// 050   ----------------------------------------
 BYTE   PATT
  POIN2 Label_2_014A01E3
// 051   ----------------------------------------
 BYTE   PATT
  POIN2 Label_2_014A01E3
// 052   ----------------------------------------
 BYTE   PATT
  POIN2 Label_2_014A01E3
// 053   ----------------------------------------
 BYTE   PATT
  POIN2 Label_2_014A01E3
// 054   ----------------------------------------
 BYTE   PATT
  POIN2 Label_2_014A01E3
// 055   ----------------------------------------
 BYTE   PATT
  POIN2 Label_2_014A01E3
// 056   ----------------------------------------
 BYTE   PATT
  POIN2 Label_2_014A01E3
// 057   ----------------------------------------
 BYTE   PATT
  POIN2 Label_2_014A01E3
// 058   ----------------------------------------
 BYTE   PATT
  POIN2 Label_2_014A01E3
// 059   ----------------------------------------
 BYTE   PATT
  POIN2 Label_2_014A01E3
// 060   ----------------------------------------
 BYTE   PATT
  POIN2 Label_2_014A01E3
// 061   ----------------------------------------
 BYTE   PATT
  POIN2 Label_2_014A01E3
// 062   ----------------------------------------
 BYTE   W96
// 063   ----------------------------------------
 BYTE   W96
// 064   ----------------------------------------
 BYTE   W96
// 065   ----------------------------------------
 BYTE   W96
// 066   ----------------------------------------
 BYTE   W96
// 067   ----------------------------------------
 BYTE   W96
// 068   ----------------------------------------
 BYTE   W96
// 069   ----------------------------------------
 BYTE   W96
// 070   ----------------------------------------
 BYTE   W96
// 071   ----------------------------------------
 BYTE   W96
// 072   ----------------------------------------
 BYTE   PATT
  POIN2 Label_2_014A026D
// 073   ----------------------------------------
 BYTE   PATT
  POIN2 Label_2_014A0287
// 074   ----------------------------------------
 BYTE   PATT
  POIN2 Label_2_014A02A1
// 075   ----------------------------------------
 BYTE   PATT
  POIN2 Label_2_014A02BB
// 076   ----------------------------------------
 BYTE   PATT
  POIN2 Label_2_014A026D
// 077   ----------------------------------------
 BYTE   PATT
  POIN2 Label_2_014A0287
// 078   ----------------------------------------
 BYTE   PATT
  POIN2 Label_2_014A02A1
// 079   ----------------------------------------
 BYTE   PATT
  POIN2 Label_2_014A02BB
// 080   ----------------------------------------
 BYTE   PATT
  POIN2 Label_2_014A02EB
// 081   ----------------------------------------
 BYTE   PATT
  POIN2 Label_2_014A0309
// 082   ----------------------------------------
 BYTE   PATT
  POIN2 Label_2_014A032F
// 083   ----------------------------------------
 BYTE   PATT
  POIN2 Label_2_014A033B
// 084   ----------------------------------------
 BYTE   GoTo
  POIN2 Label_2_014A01B6
 BYTE   FINE

//**************** Track 4 (Midi-Chn.3) ****************//

song26_004:
// 000   ----------------------------------------
 BYTE   KEYSH   song26_key+0
Label_3_014A041A:
 BYTE   VOICE   48
 BYTE   VOL   53*song26_mvl/mxv
 BYTE   PAN   c_v+13
 BYTE   BEND   c_v+0
 BYTE   N06  Ds1  v100
 BYTE   N06  Ds2
 BYTE   W08
 BYTE   Ds1  v088
 BYTE   N06  Ds2
 BYTE   W08
 BYTE   Ds1  v084
 BYTE   N06  Ds2
 BYTE   W08
 BYTE   Ds1  v100
 BYTE   N06  Ds2
 BYTE   W08
 BYTE   Ds1  v088
 BYTE   N06  Ds2
 BYTE   W08
 BYTE   Ds1  v084
 BYTE   N06  Ds2
 BYTE   W08
 BYTE   Ds1  v100
 BYTE   N06  Ds2
 BYTE   W08
 BYTE   Ds1  v088
 BYTE   N06  Ds2
 BYTE   W08
 BYTE   Ds1  v084
 BYTE   N06  Ds2
 BYTE   W08
 BYTE   Ds1  v100
 BYTE   N06  Ds2
 BYTE   W08
 BYTE   Ds1  v088
 BYTE   N06  Ds2
 BYTE   W08
 BYTE   Ds1  v084
 BYTE   N06  Ds2
 BYTE   W08
// 001   ----------------------------------------
Label_3_014A045F:
 BYTE   N06  Ds1  v100
 BYTE   N06  Ds2
 BYTE   W08
 BYTE   Ds1  v088
 BYTE   N06  Ds2
 BYTE   W08
 BYTE   Ds1  v084
 BYTE   N06  Ds2
 BYTE   W08
 BYTE   Ds1  v100
 BYTE   N06  Ds2
 BYTE   W08
 BYTE   Ds1  v088
 BYTE   N06  Ds2
 BYTE   W08
 BYTE   Ds1  v084
 BYTE   N06  Ds2
 BYTE   W08
 BYTE   Ds1  v100
 BYTE   N06  Ds2
 BYTE   W08
 BYTE   Ds1  v088
 BYTE   N06  Ds2
 BYTE   W08
 BYTE   Ds1  v084
 BYTE   N06  Ds2
 BYTE   W08
 BYTE   Ds1  v100
 BYTE   N06  Ds2
 BYTE   W08
 BYTE   Ds1  v088
 BYTE   N06  Ds2
 BYTE   W08
 BYTE   Ds1  v084
 BYTE   N06  Ds2
 BYTE   W08
 BYTE   PEND 
// 002   ----------------------------------------
 BYTE   PATT
  POIN2 Label_3_014A045F
// 003   ----------------------------------------
 BYTE   PATT
  POIN2 Label_3_014A045F
// 004   ----------------------------------------
 BYTE   PATT
  POIN2 Label_3_014A045F
// 005   ----------------------------------------
 BYTE   PATT
  POIN2 Label_3_014A045F
// 006   ----------------------------------------
 BYTE   PATT
  POIN2 Label_3_014A045F
// 007   ----------------------------------------
 BYTE   PATT
  POIN2 Label_3_014A045F
// 008   ----------------------------------------
 BYTE   PATT
  POIN2 Label_3_014A045F
// 009   ----------------------------------------
 BYTE   PATT
  POIN2 Label_3_014A045F
// 010   ----------------------------------------
 BYTE   PATT
  POIN2 Label_3_014A045F
// 011   ----------------------------------------
 BYTE   PATT
  POIN2 Label_3_014A045F
// 012   ----------------------------------------
 BYTE   PATT
  POIN2 Label_3_014A045F
// 013   ----------------------------------------
 BYTE   PATT
  POIN2 Label_3_014A045F
// 014   ----------------------------------------
 BYTE   PATT
  POIN2 Label_3_014A045F
// 015   ----------------------------------------
 BYTE   PATT
  POIN2 Label_3_014A045F
// 016   ----------------------------------------
 BYTE   PATT
  POIN2 Label_3_014A045F
// 017   ----------------------------------------
 BYTE   PATT
  POIN2 Label_3_014A045F
// 018   ----------------------------------------
 BYTE   PATT
  POIN2 Label_3_014A045F
// 019   ----------------------------------------
 BYTE   PATT
  POIN2 Label_3_014A045F
// 020   ----------------------------------------
 BYTE   PATT
  POIN2 Label_3_014A045F
// 021   ----------------------------------------
 BYTE   PATT
  POIN2 Label_3_014A045F
// 022   ----------------------------------------
 BYTE   PATT
  POIN2 Label_3_014A045F
// 023   ----------------------------------------
 BYTE   PATT
  POIN2 Label_3_014A045F
// 024   ----------------------------------------
 BYTE   W96
// 025   ----------------------------------------
 BYTE   W96
// 026   ----------------------------------------
 BYTE   N96  Ds1  v100
 BYTE   N96  Ds2
 BYTE   W96
// 027   ----------------------------------------
 BYTE   Ds1
 BYTE   N96  Ds2
 BYTE   W96
// 028   ----------------------------------------
 BYTE   Ds1
 BYTE   N96  Ds2
 BYTE   W96
// 029   ----------------------------------------
 BYTE   Ds1
 BYTE   N96  Ds2
 BYTE   W96
// 030   ----------------------------------------
Label_3_014A051F:
 BYTE   N06  Ds1  v127
 BYTE   N06  Ds2
 BYTE   W16
 BYTE   Ds1  v104
 BYTE   N06  Ds2
 BYTE   W16
 BYTE   Ds1  v112
 BYTE   N06  Ds2
 BYTE   W08
 BYTE   Ds1  v116
 BYTE   N06  Ds2
 BYTE   W08
 BYTE   Ds1  v127
 BYTE   N06  Ds2
 BYTE   W16
 BYTE   Ds1  v104
 BYTE   N06  Ds2
 BYTE   W16
 BYTE   Ds1  v112
 BYTE   N06  Ds2
 BYTE   W08
 BYTE   Ds1  v116
 BYTE   N06  Ds2
 BYTE   W08
 BYTE   PEND 
// 031   ----------------------------------------
 BYTE   PATT
  POIN2 Label_3_014A051F
// 032   ----------------------------------------
 BYTE   PATT
  POIN2 Label_3_014A051F
// 033   ----------------------------------------
Label_3_014A0553:
 BYTE   N06  Ds1  v127
 BYTE   N06  Ds2
 BYTE   W16
 BYTE   Ds1  v104
 BYTE   N06  Ds2
 BYTE   W16
 BYTE   Ds1  v112
 BYTE   N06  Ds2
 BYTE   W08
 BYTE   Ds1  v116
 BYTE   N06  Ds2
 BYTE   W08
 BYTE   Ds1  v120
 BYTE   N06  Ds2
 BYTE   W16
 BYTE   Ds1  v104
 BYTE   N06  Ds2
 BYTE   W08
 BYTE   Ds1
 BYTE   N06  Ds2
 BYTE   W08
 BYTE   Ds1  v112
 BYTE   N06  Ds2
 BYTE   W08
 BYTE   Ds1  v116
 BYTE   N06  Ds2
 BYTE   W08
 BYTE   PEND 
// 034   ----------------------------------------
 BYTE   PATT
  POIN2 Label_3_014A051F
// 035   ----------------------------------------
 BYTE   PATT
  POIN2 Label_3_014A051F
// 036   ----------------------------------------
 BYTE   PATT
  POIN2 Label_3_014A051F
// 037   ----------------------------------------
 BYTE   PATT
  POIN2 Label_3_014A0553
// 038   ----------------------------------------
Label_3_014A0595:
 BYTE   N06  Ds1  v124
 BYTE   N06  Ds2
 BYTE   W24
 BYTE   As0  v120
 BYTE   N06  As1
 BYTE   W08
 BYTE   As0  v084
 BYTE   N06  As1
 BYTE   W08
 BYTE   Fn1  v080
 BYTE   N06  Fn2
 BYTE   W08
 BYTE   Fs1  v120
 BYTE   N06  Fs2
 BYTE   W08
 BYTE   Cs1  v100
 BYTE   N06  Cs2
 BYTE   W08
 BYTE   Fs1
 BYTE   N06  Fs2
 BYTE   W08
 BYTE   Gs1  v120
 BYTE   N06  Gs2
 BYTE   W08
 BYTE   Ds1  v100
 BYTE   N06  Ds2
 BYTE   W08
 BYTE   Gs1
 BYTE   N06  Gs2
 BYTE   W08
 BYTE   PEND 
// 039   ----------------------------------------
Label_3_014A05C7:
 BYTE   N06  An1  v100
 BYTE   N06  An2
 BYTE   W08
 BYTE   An1  v088
 BYTE   N06  An2
 BYTE   W08
 BYTE   An1  v080
 BYTE   N06  An2
 BYTE   W08
 BYTE   Bn1  v108
 BYTE   N06  Bn2
 BYTE   W08
 BYTE   Bn1  v096
 BYTE   N06  Bn2
 BYTE   W08
 BYTE   Bn1  v088
 BYTE   N06  Bn2
 BYTE   W08
 BYTE   Cs2  v116
 BYTE   N06  Cs3
 BYTE   W08
 BYTE   Cs2  v104
 BYTE   N06  Cs3
 BYTE   W08
 BYTE   Cs2  v088
 BYTE   N06  Cs3
 BYTE   W08
 BYTE   Ds2  v124
 BYTE   N06  Ds3
 BYTE   W08
 BYTE   Ds2  v108
 BYTE   N06  Ds3
 BYTE   W08
 BYTE   Ds2  v096
 BYTE   N06  Ds3
 BYTE   W08
 BYTE   PEND 
// 040   ----------------------------------------
Label_3_014A0605:
 BYTE   N14  Ds1  v116
 BYTE   N14  Ds2
 BYTE   W24
 BYTE   Cs1
 BYTE   N14  Cs2
 BYTE   W24
 BYTE   Bn0
 BYTE   N14  Bn1
 BYTE   W24
 BYTE   An0
 BYTE   N14  An1
 BYTE   W24
 BYTE   PEND 
// 041   ----------------------------------------
Label_3_014A0618:
 BYTE   N14  Gn0  v116
 BYTE   N14  Gn1
 BYTE   W24
 BYTE   Fn0
 BYTE   N14  Fn1
 BYTE   W24
 BYTE   N18  Ds0
 BYTE   N18  Ds1
 BYTE   W48
 BYTE   PEND 
// 042   ----------------------------------------
 BYTE   BEND   c_v+0
 BYTE   N06  Ds1  v100
 BYTE   N06  Ds2
 BYTE   W08
 BYTE   Ds1  v088
 BYTE   N06  Ds2
 BYTE   W08
 BYTE   Ds1  v084
 BYTE   N06  Ds2
 BYTE   W08
 BYTE   Ds1  v100
 BYTE   N06  Ds2
 BYTE   W08
 BYTE   Ds1  v088
 BYTE   N06  Ds2
 BYTE   W08
 BYTE   Ds1  v084
 BYTE   N06  Ds2
 BYTE   W08
 BYTE   Ds1  v100
 BYTE   N06  Ds2
 BYTE   W08
 BYTE   Ds1  v088
 BYTE   N06  Ds2
 BYTE   W08
 BYTE   Ds1  v084
 BYTE   N06  Ds2
 BYTE   W08
 BYTE   Ds1  v100
 BYTE   N06  Ds2
 BYTE   W08
 BYTE   Ds1  v088
 BYTE   N06  Ds2
 BYTE   W08
 BYTE   Ds1  v084
 BYTE   N06  Ds2
 BYTE   W08
// 043   ----------------------------------------
 BYTE   PATT
  POIN2 Label_3_014A045F
// 044   ----------------------------------------
 BYTE   PATT
  POIN2 Label_3_014A045F
// 045   ----------------------------------------
 BYTE   PATT
  POIN2 Label_3_014A045F
// 046   ----------------------------------------
 BYTE   PATT
  POIN2 Label_3_014A045F
// 047   ----------------------------------------
 BYTE   PATT
  POIN2 Label_3_014A045F
// 048   ----------------------------------------
 BYTE   PATT
  POIN2 Label_3_014A045F
// 049   ----------------------------------------
 BYTE   PATT
  POIN2 Label_3_014A045F
// 050   ----------------------------------------
 BYTE   PATT
  POIN2 Label_3_014A045F
// 051   ----------------------------------------
 BYTE   PATT
  POIN2 Label_3_014A045F
// 052   ----------------------------------------
 BYTE   PATT
  POIN2 Label_3_014A045F
// 053   ----------------------------------------
 BYTE   PATT
  POIN2 Label_3_014A045F
// 054   ----------------------------------------
 BYTE   PATT
  POIN2 Label_3_014A045F
// 055   ----------------------------------------
 BYTE   PATT
  POIN2 Label_3_014A045F
// 056   ----------------------------------------
 BYTE   PATT
  POIN2 Label_3_014A045F
// 057   ----------------------------------------
 BYTE   PATT
  POIN2 Label_3_014A045F
// 058   ----------------------------------------
 BYTE   PATT
  POIN2 Label_3_014A045F
// 059   ----------------------------------------
 BYTE   PATT
  POIN2 Label_3_014A045F
// 060   ----------------------------------------
 BYTE   PATT
  POIN2 Label_3_014A045F
// 061   ----------------------------------------
 BYTE   PATT
  POIN2 Label_3_014A045F
// 062   ----------------------------------------
 BYTE   PATT
  POIN2 Label_3_014A045F
// 063   ----------------------------------------
 BYTE   PATT
  POIN2 Label_3_014A045F
// 064   ----------------------------------------
 BYTE   PATT
  POIN2 Label_3_014A045F
// 065   ----------------------------------------
 BYTE   PATT
  POIN2 Label_3_014A045F
// 066   ----------------------------------------
 BYTE   W96
// 067   ----------------------------------------
 BYTE   W96
// 068   ----------------------------------------
 BYTE   N96  Ds1  v100
 BYTE   N96  Ds2
 BYTE   W96
// 069   ----------------------------------------
 BYTE   Ds1
 BYTE   N96  Ds2
 BYTE   W96
// 070   ----------------------------------------
 BYTE   Ds1
 BYTE   N96  Ds2
 BYTE   W96
// 071   ----------------------------------------
 BYTE   Ds1
 BYTE   N96  Ds2
 BYTE   W96
// 072   ----------------------------------------
 BYTE   PATT
  POIN2 Label_3_014A051F
// 073   ----------------------------------------
 BYTE   PATT
  POIN2 Label_3_014A051F
// 074   ----------------------------------------
 BYTE   PATT
  POIN2 Label_3_014A051F
// 075   ----------------------------------------
 BYTE   PATT
  POIN2 Label_3_014A0553
// 076   ----------------------------------------
 BYTE   PATT
  POIN2 Label_3_014A051F
// 077   ----------------------------------------
 BYTE   PATT
  POIN2 Label_3_014A051F
// 078   ----------------------------------------
 BYTE   PATT
  POIN2 Label_3_014A051F
// 079   ----------------------------------------
 BYTE   PATT
  POIN2 Label_3_014A0553
// 080   ----------------------------------------
 BYTE   PATT
  POIN2 Label_3_014A0595
// 081   ----------------------------------------
 BYTE   PATT
  POIN2 Label_3_014A05C7
// 082   ----------------------------------------
 BYTE   PATT
  POIN2 Label_3_014A0605
// 083   ----------------------------------------
 BYTE   PATT
  POIN2 Label_3_014A0618
// 084   ----------------------------------------
 BYTE   GoTo
  POIN2 Label_3_014A041A
 BYTE   FINE

//**************** Track 5 (Midi-Chn.4) ****************//

song26_005:
// 000   ----------------------------------------
 BYTE   KEYSH   song26_key+0
Label_4_014A0732:
 BYTE   VOICE   61
 BYTE   VOL   53*song26_mvl/mxv
 BYTE   PAN   c_v-7
 BYTE   W96
// 001   ----------------------------------------
 BYTE   W96
// 002   ----------------------------------------
 BYTE   W96
// 003   ----------------------------------------
 BYTE   W96
// 004   ----------------------------------------
 BYTE   W96
// 005   ----------------------------------------
 BYTE   W96
// 006   ----------------------------------------
 BYTE   W96
// 007   ----------------------------------------
 BYTE   W96
// 008   ----------------------------------------
 BYTE   W96
// 009   ----------------------------------------
 BYTE   W96
// 010   ----------------------------------------
 BYTE   W96
// 011   ----------------------------------------
 BYTE   W96
// 012   ----------------------------------------
 BYTE   W96
// 013   ----------------------------------------
 BYTE   W96
// 014   ----------------------------------------
 BYTE   W96
// 015   ----------------------------------------
 BYTE   W96
// 016   ----------------------------------------
 BYTE   W96
// 017   ----------------------------------------
 BYTE   W96
// 018   ----------------------------------------
 BYTE   W96
// 019   ----------------------------------------
 BYTE   W96
// 020   ----------------------------------------
 BYTE   W96
// 021   ----------------------------------------
 BYTE   W96
// 022   ----------------------------------------
 BYTE   W96
// 023   ----------------------------------------
 BYTE   W96
// 024   ----------------------------------------
Label_4_014A0750:
 BYTE   W24
 BYTE   N18  As2  v112
 BYTE   N18  Ds3
 BYTE   W24
 BYTE   Cs3
 BYTE   N18  Fs3
 BYTE   W24
 BYTE   Bn2
 BYTE   N18  En3  v108
 BYTE   W24
 BYTE   PEND 
// 025   ----------------------------------------
Label_4_014A0761:
 BYTE   N18  As2  v112
 BYTE   N18  Ds3  v108
 BYTE   W24
 BYTE   Cs3  v112
 BYTE   N18  Fs3  v108
 BYTE   W24
 BYTE   Bn2  v112
 BYTE   N18  En3  v108
 BYTE   W24
 BYTE   As2  v112
 BYTE   N18  Ds3  v108
 BYTE   W24
 BYTE   PEND 
// 026   ----------------------------------------
 BYTE   N96  Ds2
 BYTE   N96  Ds3
 BYTE   W96
// 027   ----------------------------------------
 BYTE   Ds2
 BYTE   W96
// 028   ----------------------------------------
 BYTE   N96
 BYTE   W96
// 029   ----------------------------------------
 BYTE   N96
 BYTE   W96
// 030   ----------------------------------------
 BYTE   W96
// 031   ----------------------------------------
 BYTE   W96
// 032   ----------------------------------------
 BYTE   W96
// 033   ----------------------------------------
 BYTE   W96
// 034   ----------------------------------------
Label_4_014A078A:
 BYTE   N06  Ds4  v127
 BYTE   W16
 BYTE   Ds4  v100
 BYTE   W16
 BYTE   Ds4  v108
 BYTE   W08
 BYTE   Ds4  v116
 BYTE   W08
 BYTE   Ds4  v127
 BYTE   W16
 BYTE   Ds4  v100
 BYTE   W16
 BYTE   Ds4  v108
 BYTE   W08
 BYTE   Ds4  v116
 BYTE   W08
 BYTE   PEND 
// 035   ----------------------------------------
 BYTE   PATT
  POIN2 Label_4_014A078A
// 036   ----------------------------------------
 BYTE   PATT
  POIN2 Label_4_014A078A
// 037   ----------------------------------------
Label_4_014A07AE:
 BYTE   N06  Ds4  v127
 BYTE   W16
 BYTE   Ds4  v100
 BYTE   W16
 BYTE   Ds4  v108
 BYTE   W08
 BYTE   Ds4  v116
 BYTE   W08
 BYTE   Ds4  v120
 BYTE   W16
 BYTE   As4  v100
 BYTE   W16
 BYTE   Ds4  v108
 BYTE   W08
 BYTE   Ds4  v116
 BYTE   W08
 BYTE   PEND 
// 038   ----------------------------------------
 BYTE   N08  Ds4  v127
 BYTE   W96
// 039   ----------------------------------------
 BYTE   W96
// 040   ----------------------------------------
Label_4_014A07CD:
 BYTE   N14  Ds2  v116
 BYTE   W24
 BYTE   Cs2
 BYTE   W24
 BYTE   Bn1
 BYTE   W24
 BYTE   An1
 BYTE   W24
 BYTE   PEND 
// 041   ----------------------------------------
Label_4_014A07D8:
 BYTE   N14  Gn1  v116
 BYTE   W24
 BYTE   Fn1
 BYTE   W24
 BYTE   N18  Ds1
 BYTE   W48
 BYTE   PEND 
// 042   ----------------------------------------
 BYTE   W96
// 043   ----------------------------------------
 BYTE   W96
// 044   ----------------------------------------
 BYTE   W96
// 045   ----------------------------------------
 BYTE   W96
// 046   ----------------------------------------
 BYTE   W96
// 047   ----------------------------------------
 BYTE   W96
// 048   ----------------------------------------
 BYTE   W96
// 049   ----------------------------------------
 BYTE   W96
// 050   ----------------------------------------
 BYTE   W96
// 051   ----------------------------------------
 BYTE   W96
// 052   ----------------------------------------
 BYTE   W96
// 053   ----------------------------------------
 BYTE   W96
// 054   ----------------------------------------
 BYTE   W96
// 055   ----------------------------------------
 BYTE   W96
// 056   ----------------------------------------
 BYTE   W96
// 057   ----------------------------------------
 BYTE   W96
// 058   ----------------------------------------
 BYTE   W96
// 059   ----------------------------------------
 BYTE   W96
// 060   ----------------------------------------
 BYTE   W96
// 061   ----------------------------------------
 BYTE   W96
// 062   ----------------------------------------
 BYTE   W96
// 063   ----------------------------------------
 BYTE   W96
// 064   ----------------------------------------
 BYTE   W96
// 065   ----------------------------------------
 BYTE   W96
// 066   ----------------------------------------
 BYTE   PATT
  POIN2 Label_4_014A0750
// 067   ----------------------------------------
 BYTE   PATT
  POIN2 Label_4_014A0761
// 068   ----------------------------------------
 BYTE   N96  Ds2  v108
 BYTE   N96  Ds3
 BYTE   W96
// 069   ----------------------------------------
 BYTE   Ds2
 BYTE   W96
// 070   ----------------------------------------
 BYTE   N96
 BYTE   W96
// 071   ----------------------------------------
 BYTE   N96
 BYTE   W96
// 072   ----------------------------------------
 BYTE   W96
// 073   ----------------------------------------
 BYTE   W96
// 074   ----------------------------------------
 BYTE   W96
// 075   ----------------------------------------
 BYTE   W96
// 076   ----------------------------------------
 BYTE   PATT
  POIN2 Label_4_014A078A
// 077   ----------------------------------------
 BYTE   PATT
  POIN2 Label_4_014A078A
// 078   ----------------------------------------
 BYTE   PATT
  POIN2 Label_4_014A078A
// 079   ----------------------------------------
 BYTE   PATT
  POIN2 Label_4_014A07AE
// 080   ----------------------------------------
 BYTE   N08  Ds4  v127
 BYTE   W96
// 081   ----------------------------------------
 BYTE   W96
// 082   ----------------------------------------
 BYTE   PATT
  POIN2 Label_4_014A07CD
// 083   ----------------------------------------
 BYTE   PATT
  POIN2 Label_4_014A07D8
// 084   ----------------------------------------
 BYTE   GoTo
  POIN2 Label_4_014A0732
 BYTE   FINE

//**************** Track 6 (Midi-Chn.5) ****************//

song26_006:
// 000   ----------------------------------------
 BYTE   KEYSH   song26_key+0
Label_5_014A0842:
 BYTE   VOICE   56
 BYTE   VOL   53*song26_mvl/mxv
 BYTE   PAN   c_v+0
 BYTE   W96
// 001   ----------------------------------------
 BYTE   W96
// 002   ----------------------------------------
 BYTE   W96
// 003   ----------------------------------------
 BYTE   W96
// 004   ----------------------------------------
 BYTE   W96
// 005   ----------------------------------------
 BYTE   W96
// 006   ----------------------------------------
 BYTE   W96
// 007   ----------------------------------------
 BYTE   W96
// 008   ----------------------------------------
 BYTE   W96
// 009   ----------------------------------------
 BYTE   W96
// 010   ----------------------------------------
 BYTE   W96
// 011   ----------------------------------------
 BYTE   W96
// 012   ----------------------------------------
 BYTE   W96
// 013   ----------------------------------------
 BYTE   W96
// 014   ----------------------------------------
 BYTE   W96
// 015   ----------------------------------------
 BYTE   W96
// 016   ----------------------------------------
 BYTE   W96
// 017   ----------------------------------------
 BYTE   W96
// 018   ----------------------------------------
 BYTE   W96
// 019   ----------------------------------------
 BYTE   W96
// 020   ----------------------------------------
 BYTE   W96
// 021   ----------------------------------------
 BYTE   W96
// 022   ----------------------------------------
 BYTE   W96
// 023   ----------------------------------------
 BYTE   W96
// 024   ----------------------------------------
Label_5_014A0860:
 BYTE   N12  As4  v124
 BYTE   W24
 BYTE   Ds4  v120
 BYTE   W24
 BYTE   N06  Fs4
 BYTE   W12
 BYTE   Gs4  v112
 BYTE   W12
 BYTE   Cs5  v120
 BYTE   W12
 BYTE   Bn4  v112
 BYTE   W12
 BYTE   PEND 
// 025   ----------------------------------------
Label_5_014A0874:
 BYTE   N06  As4  v124
 BYTE   W12
 BYTE   Gs4  v116
 BYTE   W12
 BYTE   As4  v124
 BYTE   W12
 BYTE   Ds4  v116
 BYTE   W12
 BYTE   N32  Gs4  v124
 BYTE   W36
 BYTE   N06  Fs4  v112
 BYTE   W06
 BYTE   En4  v108
 BYTE   W06
 BYTE   PEND 
// 026   ----------------------------------------
 BYTE   N84  Ds4  v116
 BYTE   W96
// 027   ----------------------------------------
 BYTE   W96
// 028   ----------------------------------------
 BYTE   W96
// 029   ----------------------------------------
 BYTE   W96
// 030   ----------------------------------------
 BYTE   W96
// 031   ----------------------------------------
 BYTE   W96
// 032   ----------------------------------------
 BYTE   W96
// 033   ----------------------------------------
 BYTE   W96
// 034   ----------------------------------------
Label_5_014A0898:
 BYTE   N06  Ds4  v127
 BYTE   W16
 BYTE   Ds4  v100
 BYTE   W16
 BYTE   Ds4  v108
 BYTE   W08
 BYTE   Ds4  v116
 BYTE   W08
 BYTE   Ds4  v127
 BYTE   W16
 BYTE   Ds4  v100
 BYTE   W16
 BYTE   Ds4  v108
 BYTE   W08
 BYTE   Ds4  v116
 BYTE   W08
 BYTE   PEND 
// 035   ----------------------------------------
 BYTE   PATT
  POIN2 Label_5_014A0898
// 036   ----------------------------------------
 BYTE   PATT
  POIN2 Label_5_014A0898
// 037   ----------------------------------------
Label_5_014A08BC:
 BYTE   N06  Ds4  v127
 BYTE   W16
 BYTE   Ds4  v100
 BYTE   W16
 BYTE   Ds4  v108
 BYTE   W08
 BYTE   Ds4  v116
 BYTE   W08
 BYTE   Ds4  v120
 BYTE   W16
 BYTE   As4  v100
 BYTE   W16
 BYTE   Ds4  v108
 BYTE   W08
 BYTE   Ds4  v116
 BYTE   W08
 BYTE   PEND 
// 038   ----------------------------------------
 BYTE   N08  Ds4  v127
 BYTE   W96
// 039   ----------------------------------------
 BYTE   W96
// 040   ----------------------------------------
Label_5_014A08DB:
 BYTE   N14  Ds3  v116
 BYTE   W24
 BYTE   Cs3
 BYTE   W24
 BYTE   Bn2
 BYTE   W24
 BYTE   An2
 BYTE   W24
 BYTE   PEND 
// 041   ----------------------------------------
Label_5_014A08E6:
 BYTE   N14  Gn2  v116
 BYTE   W24
 BYTE   Fn2
 BYTE   W24
 BYTE   N18  Ds2
 BYTE   W48
 BYTE   PEND 
// 042   ----------------------------------------
 BYTE   W96
// 043   ----------------------------------------
 BYTE   W96
// 044   ----------------------------------------
 BYTE   W96
// 045   ----------------------------------------
 BYTE   W96
// 046   ----------------------------------------
 BYTE   W96
// 047   ----------------------------------------
 BYTE   W96
// 048   ----------------------------------------
 BYTE   W96
// 049   ----------------------------------------
 BYTE   W96
// 050   ----------------------------------------
 BYTE   W96
// 051   ----------------------------------------
 BYTE   W96
// 052   ----------------------------------------
 BYTE   W96
// 053   ----------------------------------------
 BYTE   W96
// 054   ----------------------------------------
 BYTE   W96
// 055   ----------------------------------------
 BYTE   W96
// 056   ----------------------------------------
 BYTE   W96
// 057   ----------------------------------------
 BYTE   W96
// 058   ----------------------------------------
 BYTE   W96
// 059   ----------------------------------------
 BYTE   W96
// 060   ----------------------------------------
 BYTE   W96
// 061   ----------------------------------------
 BYTE   W96
// 062   ----------------------------------------
 BYTE   W96
// 063   ----------------------------------------
 BYTE   W96
// 064   ----------------------------------------
 BYTE   W96
// 065   ----------------------------------------
 BYTE   W96
// 066   ----------------------------------------
 BYTE   PATT
  POIN2 Label_5_014A0860
// 067   ----------------------------------------
 BYTE   PATT
  POIN2 Label_5_014A0874
// 068   ----------------------------------------
 BYTE   N84  Ds4  v116
 BYTE   W96
// 069   ----------------------------------------
 BYTE   W96
// 070   ----------------------------------------
 BYTE   W96
// 071   ----------------------------------------
 BYTE   W96
// 072   ----------------------------------------
 BYTE   W96
// 073   ----------------------------------------
 BYTE   W96
// 074   ----------------------------------------
 BYTE   W96
// 075   ----------------------------------------
 BYTE   W96
// 076   ----------------------------------------
 BYTE   PATT
  POIN2 Label_5_014A0898
// 077   ----------------------------------------
 BYTE   PATT
  POIN2 Label_5_014A0898
// 078   ----------------------------------------
 BYTE   PATT
  POIN2 Label_5_014A0898
// 079   ----------------------------------------
 BYTE   PATT
  POIN2 Label_5_014A08BC
// 080   ----------------------------------------
 BYTE   N08  Ds4  v127
 BYTE   W96
// 081   ----------------------------------------
 BYTE   W96
// 082   ----------------------------------------
 BYTE   PATT
  POIN2 Label_5_014A08DB
// 083   ----------------------------------------
 BYTE   PATT
  POIN2 Label_5_014A08E6
// 084   ----------------------------------------
 BYTE   GoTo
  POIN2 Label_5_014A0842
 BYTE   FINE

//**************** Track 7 (Midi-Chn.6) ****************//

song26_007:
// 000   ----------------------------------------
 BYTE   KEYSH   song26_key+0
Label_6_014A094A:
 BYTE   VOICE   60
 BYTE   VOL   53*song26_mvl/mxv
 BYTE   PAN   c_v+24
 BYTE   W96
// 001   ----------------------------------------
 BYTE   W96
// 002   ----------------------------------------
 BYTE   W96
// 003   ----------------------------------------
 BYTE   W96
// 004   ----------------------------------------
 BYTE   TIE  Ds3  v116
 BYTE   W96
// 005   ----------------------------------------
 BYTE   W88
 BYTE   EOT
 BYTE   W08
// 006   ----------------------------------------
 BYTE   N96  Fn3
 BYTE   W96
// 007   ----------------------------------------
 BYTE   Fs3
 BYTE   W96
// 008   ----------------------------------------
 BYTE   TIE  Gs3
 BYTE   W96
// 009   ----------------------------------------
 BYTE   W88
 BYTE   EOT
 BYTE   W08
// 010   ----------------------------------------
 BYTE   TIE  Fn3
 BYTE   W96
// 011   ----------------------------------------
 BYTE   W88
 BYTE   EOT
 BYTE   W08
// 012   ----------------------------------------
 BYTE   TIE  Ds3
 BYTE   W96
// 013   ----------------------------------------
 BYTE   W88
 BYTE   EOT
 BYTE   W08
// 014   ----------------------------------------
 BYTE   N96  Fn3
 BYTE   W96
// 015   ----------------------------------------
 BYTE   Fs3
 BYTE   W96
// 016   ----------------------------------------
 BYTE   TIE  Gs3
 BYTE   W96
// 017   ----------------------------------------
 BYTE   W88
 BYTE   EOT
 BYTE   W08
// 018   ----------------------------------------
 BYTE   TIE  Fn3
 BYTE   W96
// 019   ----------------------------------------
 BYTE   W88
 BYTE   EOT
 BYTE   W08
// 020   ----------------------------------------
Label_6_014A0983:
 BYTE   W48
 BYTE   N48  Gn3  v100
 BYTE   N48  As3
 BYTE   W48
 BYTE   PEND 
// 021   ----------------------------------------
 BYTE   N88  Gs3
 BYTE   N88  Bn3
 BYTE   W96
// 022   ----------------------------------------
 BYTE   PATT
  POIN2 Label_6_014A0983
// 023   ----------------------------------------
 BYTE   N88  Gs3  v100
 BYTE   N88  Bn3
 BYTE   W96
// 024   ----------------------------------------
Label_6_014A099B:
 BYTE   W24
 BYTE   N18  Ds3  v112
 BYTE   W24
 BYTE   Fs3
 BYTE   W24
 BYTE   En3  v108
 BYTE   W24
 BYTE   PEND 
// 025   ----------------------------------------
Label_6_014A09A6:
 BYTE   N18  Ds3  v108
 BYTE   W24
 BYTE   Fs3
 BYTE   W24
 BYTE   En3
 BYTE   W24
 BYTE   Ds3
 BYTE   W24
 BYTE   PEND 
// 026   ----------------------------------------
 BYTE   N96
 BYTE   W96
// 027   ----------------------------------------
Label_6_014A09B3:
 BYTE   N48  As2  v112
 BYTE   W48
 BYTE   Ds3
 BYTE   W48
 BYTE   PEND 
// 028   ----------------------------------------
 BYTE   N96  Gs3
 BYTE   W96
// 029   ----------------------------------------
Label_6_014A09BD:
 BYTE   W24
 BYTE   N12  As3  v124
 BYTE   W24
 BYTE   Gs3  v120
 BYTE   W16
 BYTE   Fs3  v112
 BYTE   W16
 BYTE   Fn3  v104
 BYTE   W16
 BYTE   PEND 
// 030   ----------------------------------------
 BYTE   N96  Ds3  v127
 BYTE   W96
// 031   ----------------------------------------
 BYTE   Cs3  v116
 BYTE   W96
// 032   ----------------------------------------
Label_6_014A09D3:
 BYTE   N88  Bn2  v116
 BYTE   W90
 BYTE   N03  En3  v127
 BYTE   W06
 BYTE   PEND 
// 033   ----------------------------------------
 BYTE   N96  En3  v116
 BYTE   W96
// 034   ----------------------------------------
 BYTE   Ds3
 BYTE   W96
// 035   ----------------------------------------
 BYTE   Cs3
 BYTE   W96
// 036   ----------------------------------------
 BYTE   PATT
  POIN2 Label_6_014A09D3
// 037   ----------------------------------------
 BYTE   N96  En3  v116
 BYTE   W96
// 038   ----------------------------------------
 BYTE   N08  Ds3  v127
 BYTE   W96
// 039   ----------------------------------------
 BYTE   W96
// 040   ----------------------------------------
Label_6_014A09F2:
 BYTE   N14  Ds3  v116
 BYTE   W24
 BYTE   Cs3
 BYTE   W24
 BYTE   Bn2
 BYTE   W24
 BYTE   An2
 BYTE   W24
 BYTE   PEND 
// 041   ----------------------------------------
Label_6_014A09FD:
 BYTE   N14  Gn2  v116
 BYTE   W24
 BYTE   Fn2
 BYTE   W24
 BYTE   N18  Ds2
 BYTE   W48
 BYTE   PEND 
// 042   ----------------------------------------
 BYTE   W96
// 043   ----------------------------------------
 BYTE   W96
// 044   ----------------------------------------
 BYTE   W96
// 045   ----------------------------------------
 BYTE   W96
// 046   ----------------------------------------
 BYTE   TIE  Ds3
 BYTE   W96
// 047   ----------------------------------------
 BYTE   W88
 BYTE   EOT
 BYTE   W08
// 048   ----------------------------------------
 BYTE   N96  Fn3
 BYTE   W96
// 049   ----------------------------------------
 BYTE   Fs3
 BYTE   W96
// 050   ----------------------------------------
 BYTE   TIE  Gs3
 BYTE   W96
// 051   ----------------------------------------
 BYTE   W88
 BYTE   EOT
 BYTE   W08
// 052   ----------------------------------------
 BYTE   TIE  Fn3
 BYTE   W96
// 053   ----------------------------------------
 BYTE   W88
 BYTE   EOT
 BYTE   W08
// 054   ----------------------------------------
 BYTE   TIE  Ds3
 BYTE   W96
// 055   ----------------------------------------
 BYTE   W88
 BYTE   EOT
 BYTE   W08
// 056   ----------------------------------------
 BYTE   N96  Fn3
 BYTE   W96
// 057   ----------------------------------------
 BYTE   Fs3
 BYTE   W96
// 058   ----------------------------------------
 BYTE   TIE  Gs3
 BYTE   W96
// 059   ----------------------------------------
 BYTE   W88
 BYTE   EOT
 BYTE   W08
// 060   ----------------------------------------
 BYTE   TIE  Fn3
 BYTE   W96
// 061   ----------------------------------------
 BYTE   W88
 BYTE   EOT
 BYTE   W08
// 062   ----------------------------------------
 BYTE   PATT
  POIN2 Label_6_014A0983
// 063   ----------------------------------------
 BYTE   N88  Gs3  v100
 BYTE   N88  Bn3
 BYTE   W96
// 064   ----------------------------------------
 BYTE   PATT
  POIN2 Label_6_014A0983
// 065   ----------------------------------------
 BYTE   N88  Gs3  v100
 BYTE   N88  Bn3
 BYTE   W96
// 066   ----------------------------------------
 BYTE   PATT
  POIN2 Label_6_014A099B
// 067   ----------------------------------------
 BYTE   PATT
  POIN2 Label_6_014A09A6
// 068   ----------------------------------------
 BYTE   N96  Ds3  v108
 BYTE   W96
// 069   ----------------------------------------
 BYTE   PATT
  POIN2 Label_6_014A09B3
// 070   ----------------------------------------
 BYTE   N96  Gs3  v112
 BYTE   W96
// 071   ----------------------------------------
 BYTE   PATT
  POIN2 Label_6_014A09BD
// 072   ----------------------------------------
 BYTE   N96  Ds3  v127
 BYTE   W96
// 073   ----------------------------------------
 BYTE   Cs3  v116
 BYTE   W96
// 074   ----------------------------------------
 BYTE   PATT
  POIN2 Label_6_014A09D3
// 075   ----------------------------------------
 BYTE   N96  En3  v116
 BYTE   W96
// 076   ----------------------------------------
 BYTE   Ds3
 BYTE   W96
// 077   ----------------------------------------
 BYTE   Cs3
 BYTE   W96
// 078   ----------------------------------------
 BYTE   N84  Bn2
 BYTE   W90
 BYTE   N03  En3  v127
 BYTE   W06
// 079   ----------------------------------------
 BYTE   N96  En3  v116
 BYTE   W96
// 080   ----------------------------------------
 BYTE   N08  Ds3  v127
 BYTE   W96
// 081   ----------------------------------------
 BYTE   W96
// 082   ----------------------------------------
 BYTE   PATT
  POIN2 Label_6_014A09F2
// 083   ----------------------------------------
 BYTE   PATT
  POIN2 Label_6_014A09FD
// 084   ----------------------------------------
 BYTE   GoTo
  POIN2 Label_6_014A094A
 BYTE   FINE

//**************** Track 8 (Midi-Chn.7) ****************//

song26_008:
// 000   ----------------------------------------
 BYTE   KEYSH   song26_key+0
Label_7_014A0AA2:
 BYTE   VOICE   60
 BYTE   VOL   53*song26_mvl/mxv
 BYTE   PAN   c_v-15
 BYTE   W96
// 001   ----------------------------------------
 BYTE   W96
// 002   ----------------------------------------
 BYTE   W96
// 003   ----------------------------------------
 BYTE   W96
// 004   ----------------------------------------
 BYTE   TIE  Ds2  v116
 BYTE   W96
// 005   ----------------------------------------
 BYTE   W88
 BYTE   EOT
 BYTE   W08
// 006   ----------------------------------------
 BYTE   N96  Fn2
 BYTE   W96
// 007   ----------------------------------------
 BYTE   Fs2
 BYTE   W96
// 008   ----------------------------------------
 BYTE   TIE  Gs2
 BYTE   W96
// 009   ----------------------------------------
 BYTE   W88
 BYTE   EOT
 BYTE   W08
// 010   ----------------------------------------
 BYTE   TIE  Fn2
 BYTE   W96
// 011   ----------------------------------------
 BYTE   W88
 BYTE   EOT
 BYTE   W08
// 012   ----------------------------------------
 BYTE   TIE  Ds2
 BYTE   W96
// 013   ----------------------------------------
 BYTE   W88
 BYTE   EOT
 BYTE   W08
// 014   ----------------------------------------
 BYTE   N96  Fn2
 BYTE   W96
// 015   ----------------------------------------
 BYTE   Fs2
 BYTE   W96
// 016   ----------------------------------------
 BYTE   TIE  Gs2
 BYTE   W96
// 017   ----------------------------------------
 BYTE   W88
 BYTE   EOT
 BYTE   W08
// 018   ----------------------------------------
 BYTE   TIE  Fn2
 BYTE   W96
// 019   ----------------------------------------
 BYTE   W88
 BYTE   EOT
 BYTE   W08
// 020   ----------------------------------------
Label_7_014A0ADB:
 BYTE   N96  Ds2  v100
 BYTE   W48
 BYTE   N48  As2
 BYTE   N48  Ds3
 BYTE   W48
 BYTE   PEND 
// 021   ----------------------------------------
Label_7_014A0AE5:
 BYTE   N96  En2  v100
 BYTE   N88  Bn2
 BYTE   N88  En3
 BYTE   W96
 BYTE   PEND 
// 022   ----------------------------------------
 BYTE   PATT
  POIN2 Label_7_014A0ADB
// 023   ----------------------------------------
 BYTE   PATT
  POIN2 Label_7_014A0AE5
// 024   ----------------------------------------
Label_7_014A0AF8:
 BYTE   W24
 BYTE   N18  As2  v112
 BYTE   W24
 BYTE   Cs3
 BYTE   W24
 BYTE   Bn2
 BYTE   W24
 BYTE   PEND 
// 025   ----------------------------------------
Label_7_014A0B02:
 BYTE   N18  As2  v112
 BYTE   W24
 BYTE   Cs3
 BYTE   W24
 BYTE   Bn2
 BYTE   W24
 BYTE   As2
 BYTE   W24
 BYTE   PEND 
// 026   ----------------------------------------
 BYTE   N96  Ds2  v108
 BYTE   W96
// 027   ----------------------------------------
 BYTE   N96
 BYTE   W96
// 028   ----------------------------------------
 BYTE   N96
 BYTE   W96
// 029   ----------------------------------------
 BYTE   N96
 BYTE   W96
// 030   ----------------------------------------
 BYTE   Ds2  v127
 BYTE   N96  As2
 BYTE   W96
// 031   ----------------------------------------
Label_7_014A0B1C:
 BYTE   N96  Cs2  v127
 BYTE   N96  Gs2  v116
 BYTE   W96
 BYTE   PEND 
// 032   ----------------------------------------
Label_7_014A0B24:
 BYTE   N88  Bn1  v127
 BYTE   N88  Fs2  v116
 BYTE   W90
 BYTE   N03  En2  v127
 BYTE   N03  Bn2
 BYTE   W05
 BYTE   N96  En2  v116
 BYTE   W01
 BYTE   PEND 
// 033   ----------------------------------------
 BYTE   Bn2
 BYTE   W96
// 034   ----------------------------------------
Label_7_014A0B38:
 BYTE   N96  Ds2  v127
 BYTE   N96  As2  v116
 BYTE   W96
 BYTE   PEND 
// 035   ----------------------------------------
 BYTE   PATT
  POIN2 Label_7_014A0B1C
// 036   ----------------------------------------
 BYTE   PATT
  POIN2 Label_7_014A0B24
// 037   ----------------------------------------
 BYTE   N96  Bn2  v116
 BYTE   W96
// 038   ----------------------------------------
 BYTE   N08  Ds2  v127
 BYTE   N08  As2
 BYTE   W96
// 039   ----------------------------------------
 BYTE   W96
// 040   ----------------------------------------
Label_7_014A0B55:
 BYTE   N14  Ds2  v116
 BYTE   W24
 BYTE   Cs2
 BYTE   W24
 BYTE   Bn1
 BYTE   W24
 BYTE   An1
 BYTE   W24
 BYTE   PEND 
// 041   ----------------------------------------
Label_7_014A0B60:
 BYTE   N14  Gn1  v116
 BYTE   W24
 BYTE   Fn1
 BYTE   W24
 BYTE   N18  Ds1
 BYTE   W48
 BYTE   PEND 
// 042   ----------------------------------------
 BYTE   W96
// 043   ----------------------------------------
 BYTE   W96
// 044   ----------------------------------------
 BYTE   W96
// 045   ----------------------------------------
 BYTE   W96
// 046   ----------------------------------------
 BYTE   TIE  Ds2
 BYTE   W96
// 047   ----------------------------------------
 BYTE   W88
 BYTE   EOT
 BYTE   W08
// 048   ----------------------------------------
 BYTE   N96  Fn2
 BYTE   W96
// 049   ----------------------------------------
 BYTE   Fs2
 BYTE   W96
// 050   ----------------------------------------
 BYTE   TIE  Gs2
 BYTE   W96
// 051   ----------------------------------------
 BYTE   W88
 BYTE   EOT
 BYTE   W08
// 052   ----------------------------------------
 BYTE   TIE  Fn2
 BYTE   W96
// 053   ----------------------------------------
 BYTE   W88
 BYTE   EOT
 BYTE   W08
// 054   ----------------------------------------
 BYTE   TIE  Ds2
 BYTE   W96
// 055   ----------------------------------------
 BYTE   W88
 BYTE   EOT
 BYTE   W08
// 056   ----------------------------------------
 BYTE   N96  Fn2
 BYTE   W96
// 057   ----------------------------------------
 BYTE   Fs2
 BYTE   W96
// 058   ----------------------------------------
 BYTE   TIE  Gs2
 BYTE   W96
// 059   ----------------------------------------
 BYTE   W88
 BYTE   EOT
 BYTE   W08
// 060   ----------------------------------------
 BYTE   TIE  Fn2
 BYTE   W96
// 061   ----------------------------------------
 BYTE   W88
 BYTE   EOT
 BYTE   W08
// 062   ----------------------------------------
 BYTE   PATT
  POIN2 Label_7_014A0ADB
// 063   ----------------------------------------
 BYTE   PATT
  POIN2 Label_7_014A0AE5
// 064   ----------------------------------------
 BYTE   PATT
  POIN2 Label_7_014A0ADB
// 065   ----------------------------------------
 BYTE   PATT
  POIN2 Label_7_014A0AE5
// 066   ----------------------------------------
 BYTE   PATT
  POIN2 Label_7_014A0AF8
// 067   ----------------------------------------
 BYTE   PATT
  POIN2 Label_7_014A0B02
// 068   ----------------------------------------
 BYTE   N96  Ds2  v108
 BYTE   W96
// 069   ----------------------------------------
 BYTE   N96
 BYTE   W96
// 070   ----------------------------------------
 BYTE   N96
 BYTE   W96
// 071   ----------------------------------------
 BYTE   N96
 BYTE   W96
// 072   ----------------------------------------
 BYTE   Ds2  v127
 BYTE   N96  As2
 BYTE   W96
// 073   ----------------------------------------
 BYTE   PATT
  POIN2 Label_7_014A0B1C
// 074   ----------------------------------------
 BYTE   PATT
  POIN2 Label_7_014A0B24
// 075   ----------------------------------------
 BYTE   N96  Bn2  v116
 BYTE   W96
// 076   ----------------------------------------
 BYTE   PATT
  POIN2 Label_7_014A0B38
// 077   ----------------------------------------
 BYTE   PATT
  POIN2 Label_7_014A0B1C
// 078   ----------------------------------------
 BYTE   N84  Bn1  v127
 BYTE   N84  Fs2  v116
 BYTE   W90
 BYTE   N03  En2  v127
 BYTE   N03  Bn2
 BYTE   W05
 BYTE   N96  En2  v116
 BYTE   W01
// 079   ----------------------------------------
 BYTE   Bn2
 BYTE   W96
// 080   ----------------------------------------
 BYTE   N08  Ds2  v127
 BYTE   N08  As2
 BYTE   W96
// 081   ----------------------------------------
 BYTE   W96
// 082   ----------------------------------------
 BYTE   PATT
  POIN2 Label_7_014A0B55
// 083   ----------------------------------------
 BYTE   PATT
  POIN2 Label_7_014A0B60
// 084   ----------------------------------------
 BYTE   GoTo
  POIN2 Label_7_014A0AA2
 BYTE   FINE

//**************** Track 9 (Midi-Chn.8) ****************//

song26_009:
// 000   ----------------------------------------
 BYTE   KEYSH   song26_key+0
Label_8_014A0C0E:
 BYTE   VOICE   117
 BYTE   VOL   53*song26_mvl/mxv
 BYTE   PAN   c_v+0
 BYTE   N06  As1  v100
 BYTE   W24
 BYTE   As1  v072
 BYTE   W16
 BYTE   Bn1  v068
 BYTE   W08
 BYTE   As1  v100
 BYTE   W16
 BYTE   Bn1  v064
 BYTE   W08
 BYTE   As1  v084
 BYTE   W24
// 001   ----------------------------------------
Label_8_014A0C27:
 BYTE   N06  As1  v100
 BYTE   W24
 BYTE   As1  v072
 BYTE   W16
 BYTE   Bn1  v068
 BYTE   W08
 BYTE   As1  v100
 BYTE   W16
 BYTE   Bn1  v064
 BYTE   W08
 BYTE   As1  v084
 BYTE   W24
 BYTE   PEND 
// 002   ----------------------------------------
 BYTE   PATT
  POIN2 Label_8_014A0C27
// 003   ----------------------------------------
 BYTE   PATT
  POIN2 Label_8_014A0C27
// 004   ----------------------------------------
 BYTE   PATT
  POIN2 Label_8_014A0C27
// 005   ----------------------------------------
 BYTE   PATT
  POIN2 Label_8_014A0C27
// 006   ----------------------------------------
 BYTE   PATT
  POIN2 Label_8_014A0C27
// 007   ----------------------------------------
 BYTE   PATT
  POIN2 Label_8_014A0C27
// 008   ----------------------------------------
 BYTE   PATT
  POIN2 Label_8_014A0C27
// 009   ----------------------------------------
 BYTE   PATT
  POIN2 Label_8_014A0C27
// 010   ----------------------------------------
 BYTE   PATT
  POIN2 Label_8_014A0C27
// 011   ----------------------------------------
 BYTE   PATT
  POIN2 Label_8_014A0C27
// 012   ----------------------------------------
 BYTE   PATT
  POIN2 Label_8_014A0C27
// 013   ----------------------------------------
 BYTE   PATT
  POIN2 Label_8_014A0C27
// 014   ----------------------------------------
 BYTE   PATT
  POIN2 Label_8_014A0C27
// 015   ----------------------------------------
 BYTE   PATT
  POIN2 Label_8_014A0C27
// 016   ----------------------------------------
 BYTE   PATT
  POIN2 Label_8_014A0C27
// 017   ----------------------------------------
 BYTE   PATT
  POIN2 Label_8_014A0C27
// 018   ----------------------------------------
 BYTE   PATT
  POIN2 Label_8_014A0C27
// 019   ----------------------------------------
 BYTE   PATT
  POIN2 Label_8_014A0C27
// 020   ----------------------------------------
 BYTE   W96
// 021   ----------------------------------------
 BYTE   W96
// 022   ----------------------------------------
 BYTE   W96
// 023   ----------------------------------------
 BYTE   W96
// 024   ----------------------------------------
 BYTE   W96
// 025   ----------------------------------------
 BYTE   W96
// 026   ----------------------------------------
 BYTE   W96
// 027   ----------------------------------------
 BYTE   W96
// 028   ----------------------------------------
 BYTE   W96
// 029   ----------------------------------------
 BYTE   W96
// 030   ----------------------------------------
 BYTE   PATT
  POIN2 Label_8_014A0C27
// 031   ----------------------------------------
 BYTE   PATT
  POIN2 Label_8_014A0C27
// 032   ----------------------------------------
 BYTE   PATT
  POIN2 Label_8_014A0C27
// 033   ----------------------------------------
 BYTE   PATT
  POIN2 Label_8_014A0C27
// 034   ----------------------------------------
 BYTE   PATT
  POIN2 Label_8_014A0C27
// 035   ----------------------------------------
 BYTE   PATT
  POIN2 Label_8_014A0C27
// 036   ----------------------------------------
 BYTE   PATT
  POIN2 Label_8_014A0C27
// 037   ----------------------------------------
 BYTE   PATT
  POIN2 Label_8_014A0C27
// 038   ----------------------------------------
 BYTE   W96
// 039   ----------------------------------------
 BYTE   W96
// 040   ----------------------------------------
 BYTE   W96
// 041   ----------------------------------------
 BYTE   W96
// 042   ----------------------------------------
 BYTE   N06  As1  v100
 BYTE   W24
 BYTE   As1  v072
 BYTE   W16
 BYTE   Bn1  v068
 BYTE   W08
 BYTE   As1  v100
 BYTE   W16
 BYTE   Bn1  v064
 BYTE   W08
 BYTE   As1  v084
 BYTE   W24
// 043   ----------------------------------------
 BYTE   PATT
  POIN2 Label_8_014A0C27
// 044   ----------------------------------------
 BYTE   PATT
  POIN2 Label_8_014A0C27
// 045   ----------------------------------------
 BYTE   PATT
  POIN2 Label_8_014A0C27
// 046   ----------------------------------------
 BYTE   PATT
  POIN2 Label_8_014A0C27
// 047   ----------------------------------------
 BYTE   PATT
  POIN2 Label_8_014A0C27
// 048   ----------------------------------------
 BYTE   PATT
  POIN2 Label_8_014A0C27
// 049   ----------------------------------------
 BYTE   PATT
  POIN2 Label_8_014A0C27
// 050   ----------------------------------------
 BYTE   PATT
  POIN2 Label_8_014A0C27
// 051   ----------------------------------------
 BYTE   PATT
  POIN2 Label_8_014A0C27
// 052   ----------------------------------------
 BYTE   PATT
  POIN2 Label_8_014A0C27
// 053   ----------------------------------------
 BYTE   PATT
  POIN2 Label_8_014A0C27
// 054   ----------------------------------------
 BYTE   PATT
  POIN2 Label_8_014A0C27
// 055   ----------------------------------------
 BYTE   PATT
  POIN2 Label_8_014A0C27
// 056   ----------------------------------------
 BYTE   PATT
  POIN2 Label_8_014A0C27
// 057   ----------------------------------------
 BYTE   PATT
  POIN2 Label_8_014A0C27
// 058   ----------------------------------------
 BYTE   PATT
  POIN2 Label_8_014A0C27
// 059   ----------------------------------------
 BYTE   PATT
  POIN2 Label_8_014A0C27
// 060   ----------------------------------------
 BYTE   PATT
  POIN2 Label_8_014A0C27
// 061   ----------------------------------------
 BYTE   PATT
  POIN2 Label_8_014A0C27
// 062   ----------------------------------------
 BYTE   W96
// 063   ----------------------------------------
 BYTE   W96
// 064   ----------------------------------------
 BYTE   W96
// 065   ----------------------------------------
 BYTE   W96
// 066   ----------------------------------------
 BYTE   W96
// 067   ----------------------------------------
 BYTE   W96
// 068   ----------------------------------------
 BYTE   W96
// 069   ----------------------------------------
 BYTE   W96
// 070   ----------------------------------------
 BYTE   W96
// 071   ----------------------------------------
 BYTE   W96
// 072   ----------------------------------------
 BYTE   PATT
  POIN2 Label_8_014A0C27
// 073   ----------------------------------------
 BYTE   PATT
  POIN2 Label_8_014A0C27
// 074   ----------------------------------------
 BYTE   PATT
  POIN2 Label_8_014A0C27
// 075   ----------------------------------------
 BYTE   PATT
  POIN2 Label_8_014A0C27
// 076   ----------------------------------------
 BYTE   PATT
  POIN2 Label_8_014A0C27
// 077   ----------------------------------------
 BYTE   PATT
  POIN2 Label_8_014A0C27
// 078   ----------------------------------------
 BYTE   PATT
  POIN2 Label_8_014A0C27
// 079   ----------------------------------------
 BYTE   PATT
  POIN2 Label_8_014A0C27
// 080   ----------------------------------------
 BYTE   W96
// 081   ----------------------------------------
 BYTE   W96
// 082   ----------------------------------------
 BYTE   W96
// 083   ----------------------------------------
 BYTE   W96
// 084   ----------------------------------------
 BYTE   GoTo
  POIN2 Label_8_014A0C0E
 BYTE   FINE

//**************** Track 10 (Midi-Chn.9) ****************//

song26_010:
// 000   ----------------------------------------
 BYTE   KEYSH   song26_key+0
Label_9_014A0D7E:
 BYTE   VOICE   127
 BYTE   VOL   53*song26_mvl/mxv
 BYTE   PAN   c_v+0
 BYTE   BEND   c_v+0
 BYTE   N06  Cn1  v100
 BYTE   N01  Dn1  v120
 BYTE   N92  An2  v100
 BYTE   N06  As3  v060
 BYTE   W01
 BYTE   N01  Dn1  v100
 BYTE   W07
 BYTE   N06  As3  v052
 BYTE   W08
 BYTE   N03  Dn1  v076
 BYTE   N06  As3  v052
 BYTE   W08
 BYTE   N03  Dn1  v108
 BYTE   N06  As3  v060
 BYTE   W08
 BYTE   N03  Dn1  v084
 BYTE   N06  As3  v052
 BYTE   W08
 BYTE   N03  Dn1  v080
 BYTE   N06  As3  v052
 BYTE   W08
 BYTE   Cn1  v100
 BYTE   N01  Dn1  v120
 BYTE   N06  As3  v060
 BYTE   W01
 BYTE   N01  Dn1  v100
 BYTE   W07
 BYTE   N03  Dn1  v056
 BYTE   N06  As3  v052
 BYTE   W08
 BYTE   Cn1  v072
 BYTE   N01  Dn1  v124
 BYTE   N06  As3  v052
 BYTE   W01
 BYTE   N01  Dn1  v100
 BYTE   W07
 BYTE   N03  Dn1  v076
 BYTE   N06  As3  v060
 BYTE   W08
 BYTE   N03  Dn1  v076
 BYTE   N06  As3  v052
 BYTE   W08
 BYTE   Cn1  v076
 BYTE   N03  Dn1  v112
 BYTE   N06  As3  v052
 BYTE   W08
// 001   ----------------------------------------
Label_9_014A0DEF:
 BYTE   N06  Cn1  v100
 BYTE   N01  Dn1  v120
 BYTE   N06  As3  v060
 BYTE   W01
 BYTE   N01  Dn1  v100
 BYTE   W07
 BYTE   N06  As3  v052
 BYTE   W08
 BYTE   N03  Dn1  v076
 BYTE   N06  As3  v052
 BYTE   W08
 BYTE   N03  Dn1  v108
 BYTE   N06  As3  v060
 BYTE   W08
 BYTE   N03  Dn1  v084
 BYTE   N06  As3  v052
 BYTE   W08
 BYTE   N03  Dn1  v080
 BYTE   N06  As3  v052
 BYTE   W08
 BYTE   Cn1  v100
 BYTE   N01  Dn1  v120
 BYTE   N06  As3  v060
 BYTE   W01
 BYTE   N01  Dn1  v100
 BYTE   W07
 BYTE   N03  Dn1  v056
 BYTE   N06  As3  v052
 BYTE   W08
 BYTE   Cn1  v072
 BYTE   N01  Dn1  v124
 BYTE   N06  As3  v052
 BYTE   W01
 BYTE   N01  Dn1  v100
 BYTE   W07
 BYTE   N06  Cn1  v076
 BYTE   N03  Dn1
 BYTE   N06  As3  v060
 BYTE   W08
 BYTE   Cn1  v084
 BYTE   N03  Dn1  v076
 BYTE   N06  As3  v052
 BYTE   W08
 BYTE   Cn1  v088
 BYTE   N03  Dn1  v100
 BYTE   N06  As3  v052
 BYTE   W08
 BYTE   PEND 
// 002   ----------------------------------------
Label_9_014A0E5A:
 BYTE   N06  Cn1  v100
 BYTE   N01  Dn1  v120
 BYTE   N06  As3  v060
 BYTE   W01
 BYTE   N01  Dn1  v100
 BYTE   W07
 BYTE   N06  As3  v052
 BYTE   W08
 BYTE   N03  Dn1  v076
 BYTE   N06  As3  v052
 BYTE   W08
 BYTE   N03  Dn1  v108
 BYTE   N06  As3  v060
 BYTE   W08
 BYTE   N03  Dn1  v084
 BYTE   N06  As3  v052
 BYTE   W08
 BYTE   N03  Dn1  v080
 BYTE   N06  As3  v052
 BYTE   W08
 BYTE   Cn1  v100
 BYTE   N01  Dn1  v120
 BYTE   N06  As3  v060
 BYTE   W01
 BYTE   N01  Dn1  v100
 BYTE   W07
 BYTE   N03  Dn1  v056
 BYTE   N06  As3  v052
 BYTE   W08
 BYTE   Cn1  v072
 BYTE   N01  Dn1  v120
 BYTE   N06  As3  v052
 BYTE   W01
 BYTE   N01  Dn1  v100
 BYTE   W07
 BYTE   N03  Dn1  v068
 BYTE   N06  As3  v060
 BYTE   W08
 BYTE   N03  Dn1  v076
 BYTE   N06  As3  v052
 BYTE   W08
 BYTE   Cn1  v076
 BYTE   N03  Dn1  v104
 BYTE   N06  As3  v052
 BYTE   W08
 BYTE   PEND 
// 003   ----------------------------------------
Label_9_014A0EC1:
 BYTE   N06  Cn1  v100
 BYTE   N01  Dn1  v116
 BYTE   N06  As3  v060
 BYTE   W01
 BYTE   N01  Dn1  v100
 BYTE   W07
 BYTE   N06  As3  v052
 BYTE   W08
 BYTE   N03  Dn1  v076
 BYTE   N06  As3  v052
 BYTE   W08
 BYTE   N03  Dn1  v108
 BYTE   N06  As3  v060
 BYTE   W08
 BYTE   N03  Dn1  v084
 BYTE   N06  As3  v052
 BYTE   W08
 BYTE   N03  Dn1  v080
 BYTE   N06  As3  v052
 BYTE   W08
 BYTE   Cn1  v100
 BYTE   N01  Dn1  v120
 BYTE   N06  As3  v060
 BYTE   W01
 BYTE   N01  Dn1  v100
 BYTE   W07
 BYTE   N03  Dn1  v056
 BYTE   N06  As3  v052
 BYTE   W08
 BYTE   Cn1  v072
 BYTE   N01  Dn1  v120
 BYTE   N06  As3  v052
 BYTE   W01
 BYTE   N01  Dn1  v100
 BYTE   W07
 BYTE   N06  Cn1  v076
 BYTE   N03  Dn1  v080
 BYTE   N06  As3  v060
 BYTE   W08
 BYTE   Cn1  v084
 BYTE   N03  Dn1  v076
 BYTE   N06  As3  v052
 BYTE   W08
 BYTE   Cn1  v088
 BYTE   N03  Dn1  v104
 BYTE   N06  As3  v052
 BYTE   W08
 BYTE   PEND 
// 004   ----------------------------------------
Label_9_014A0F2D:
 BYTE   N06  Cn1  v100
 BYTE   N01  Dn1  v120
 BYTE   N96  An2  v100
 BYTE   N06  As3  v060
 BYTE   W01
 BYTE   N01  Dn1  v100
 BYTE   W07
 BYTE   N06  As3  v052
 BYTE   W08
 BYTE   N03  Dn1  v076
 BYTE   N06  As3  v052
 BYTE   W08
 BYTE   N03  Dn1  v108
 BYTE   N06  As3  v060
 BYTE   W08
 BYTE   N03  Dn1  v084
 BYTE   N06  As3  v052
 BYTE   W08
 BYTE   N03  Dn1  v080
 BYTE   N06  As3  v052
 BYTE   W08
 BYTE   Cn1  v100
 BYTE   N01  Dn1  v120
 BYTE   N06  As3  v060
 BYTE   W01
 BYTE   N01  Dn1  v100
 BYTE   W07
 BYTE   N03  Dn1  v056
 BYTE   N06  As3  v052
 BYTE   W08
 BYTE   Cn1  v072
 BYTE   N01  Dn1  v124
 BYTE   N06  As3  v052
 BYTE   W01
 BYTE   N01  Dn1  v100
 BYTE   W07
 BYTE   N03  Dn1  v076
 BYTE   N06  As3  v060
 BYTE   W08
 BYTE   N03  Dn1  v076
 BYTE   N06  As3  v052
 BYTE   W08
 BYTE   Cn1  v076
 BYTE   N03  Dn1  v112
 BYTE   N06  As3  v052
 BYTE   W08
 BYTE   PEND 
// 005   ----------------------------------------
 BYTE   PATT
  POIN2 Label_9_014A0DEF
// 006   ----------------------------------------
 BYTE   PATT
  POIN2 Label_9_014A0E5A
// 007   ----------------------------------------
 BYTE   PATT
  POIN2 Label_9_014A0EC1
// 008   ----------------------------------------
 BYTE   PATT
  POIN2 Label_9_014A0F2D
// 009   ----------------------------------------
 BYTE   PATT
  POIN2 Label_9_014A0DEF
// 010   ----------------------------------------
 BYTE   PATT
  POIN2 Label_9_014A0E5A
// 011   ----------------------------------------
 BYTE   PATT
  POIN2 Label_9_014A0EC1
// 012   ----------------------------------------
 BYTE   PATT
  POIN2 Label_9_014A0F2D
// 013   ----------------------------------------
 BYTE   PATT
  POIN2 Label_9_014A0DEF
// 014   ----------------------------------------
 BYTE   PATT
  POIN2 Label_9_014A0E5A
// 015   ----------------------------------------
 BYTE   PATT
  POIN2 Label_9_014A0EC1
// 016   ----------------------------------------
 BYTE   PATT
  POIN2 Label_9_014A0F2D
// 017   ----------------------------------------
 BYTE   PATT
  POIN2 Label_9_014A0DEF
// 018   ----------------------------------------
 BYTE   PATT
  POIN2 Label_9_014A0E5A
// 019   ----------------------------------------
 BYTE   PATT
  POIN2 Label_9_014A0EC1
// 020   ----------------------------------------
Label_9_014A0FE2:
 BYTE   N06  Cn1  v100
 BYTE   N01  Dn1  v120
 BYTE   N96  An2  v100
 BYTE   N06  As3  v060
 BYTE   W01
 BYTE   N01  Dn1  v100
 BYTE   W07
 BYTE   N06  As3  v052
 BYTE   W08
 BYTE   N03  Dn1  v076
 BYTE   N06  As3  v052
 BYTE   W08
 BYTE   N03  Dn1  v108
 BYTE   N06  As3  v060
 BYTE   W08
 BYTE   N03  Dn1  v084
 BYTE   N06  As3  v052
 BYTE   W08
 BYTE   N03  Dn1  v080
 BYTE   N06  As3  v052
 BYTE   W08
 BYTE   Cn1  v084
 BYTE   N01  Dn1  v120
 BYTE   N06  As3  v060
 BYTE   W01
 BYTE   N01  Dn1  v100
 BYTE   W07
 BYTE   N03  Dn1  v056
 BYTE   N06  As3  v052
 BYTE   W08
 BYTE   N03  Dn1  v092
 BYTE   N06  As3  v052
 BYTE   W08
 BYTE   N03  Dn1  v076
 BYTE   N06  As3  v060
 BYTE   W08
 BYTE   N03  Dn1  v076
 BYTE   N06  As3  v052
 BYTE   W08
 BYTE   Cn1  v064
 BYTE   N03  Dn1  v112
 BYTE   N06  As3  v052
 BYTE   W08
 BYTE   PEND 
// 021   ----------------------------------------
Label_9_014A1046:
 BYTE   N06  Cn1  v100
 BYTE   N01  Dn1  v120
 BYTE   N06  As3  v060
 BYTE   W01
 BYTE   N01  Dn1  v100
 BYTE   W07
 BYTE   N06  As3  v052
 BYTE   W08
 BYTE   N03  Dn1  v076
 BYTE   N06  As3  v052
 BYTE   W08
 BYTE   N03  Dn1  v108
 BYTE   N06  As3  v060
 BYTE   W08
 BYTE   N03  Dn1  v084
 BYTE   N06  As3  v052
 BYTE   W08
 BYTE   N03  Dn1  v080
 BYTE   N06  As3  v052
 BYTE   W08
 BYTE   Cn1  v084
 BYTE   N01  Dn1  v120
 BYTE   N06  As3  v060
 BYTE   W01
 BYTE   N01  Dn1  v100
 BYTE   W07
 BYTE   N03  Dn1  v056
 BYTE   N06  As3  v052
 BYTE   W08
 BYTE   N03  Dn1  v072
 BYTE   N06  As3  v052
 BYTE   W08
 BYTE   N03  Dn1  v096
 BYTE   N06  As3  v060
 BYTE   W08
 BYTE   N03  Dn1  v096
 BYTE   N06  As3  v052
 BYTE   W08
 BYTE   N03  Dn1  v100
 BYTE   N06  As3  v052
 BYTE   W08
 BYTE   PEND 
// 022   ----------------------------------------
Label_9_014A10A5:
 BYTE   N06  Cn1  v100
 BYTE   N01  Dn1  v120
 BYTE   N96  An2  v100
 BYTE   N06  As3  v060
 BYTE   W01
 BYTE   N01  Dn1  v100
 BYTE   W07
 BYTE   N06  As3  v052
 BYTE   W08
 BYTE   N03  Dn1  v076
 BYTE   N06  As3  v052
 BYTE   W08
 BYTE   N03  Dn1  v108
 BYTE   N06  As3  v060
 BYTE   W08
 BYTE   N03  Dn1  v084
 BYTE   N06  As3  v052
 BYTE   W08
 BYTE   N03  Dn1  v080
 BYTE   N06  As3  v052
 BYTE   W08
 BYTE   Cn1  v080
 BYTE   N01  Dn1  v120
 BYTE   N06  As3  v060
 BYTE   W01
 BYTE   N01  Dn1  v100
 BYTE   W07
 BYTE   N03  Dn1  v056
 BYTE   N06  As3  v052
 BYTE   W08
 BYTE   N03  Dn1  v088
 BYTE   N06  As3  v052
 BYTE   W08
 BYTE   N03  Dn1  v068
 BYTE   N06  As3  v060
 BYTE   W08
 BYTE   N03  Dn1  v076
 BYTE   N06  As3  v052
 BYTE   W08
 BYTE   Cn1  v076
 BYTE   N03  Dn1  v104
 BYTE   N06  As3  v052
 BYTE   W08
 BYTE   PEND 
// 023   ----------------------------------------
Label_9_014A1109:
 BYTE   N06  Cn1  v100
 BYTE   N01  Dn1  v116
 BYTE   N06  As3  v060
 BYTE   W01
 BYTE   N01  Dn1  v100
 BYTE   W07
 BYTE   N06  As3  v052
 BYTE   W08
 BYTE   N03  Dn1  v076
 BYTE   N06  As3  v052
 BYTE   W08
 BYTE   N03  Dn1  v108
 BYTE   N06  As3  v060
 BYTE   W08
 BYTE   N03  Dn1  v084
 BYTE   N06  As3  v052
 BYTE   W08
 BYTE   N03  Dn1  v080
 BYTE   N06  As3  v052
 BYTE   W08
 BYTE   Cn1  v088
 BYTE   N01  Dn1  v120
 BYTE   N06  As3  v060
 BYTE   W01
 BYTE   N01  Dn1  v100
 BYTE   W07
 BYTE   N03  Dn1  v056
 BYTE   N06  As3  v052
 BYTE   W08
 BYTE   N03  Dn1  v076
 BYTE   N06  As3  v052
 BYTE   W08
 BYTE   N03  Dn1  v100
 BYTE   N06  As3  v060
 BYTE   W08
 BYTE   N03  Dn1  v100
 BYTE   N06  As3  v052
 BYTE   W08
 BYTE   N03  Dn1  v104
 BYTE   N06  As3  v052
 BYTE   W06
 BYTE   W01
 BYTE   W01
 BYTE   PEND 
// 024   ----------------------------------------
Label_9_014A116A:
 BYTE   BEND   c_v-64
 BYTE   N96  An2  v127
 BYTE   W96
 BYTE   PEND 
// 025   ----------------------------------------
 BYTE   W96
// 026   ----------------------------------------
Label_9_014A1172:
 BYTE   BEND   c_v+0
 BYTE   N03  Dn1  v108
 BYTE   N96  An2  v120
 BYTE   W16
 BYTE   N03  Dn1  v076
 BYTE   W08
 BYTE   Dn1  v108
 BYTE   W08
 BYTE   Dn1  v084
 BYTE   W08
 BYTE   Dn1  v080
 BYTE   W08
 BYTE   Dn1  v120
 BYTE   W08
 BYTE   Dn1  v056
 BYTE   W08
 BYTE   Dn1  v080
 BYTE   W08
 BYTE   Dn1  v104
 BYTE   W08
 BYTE   Dn1  v076
 BYTE   W08
 BYTE   Dn1  v064
 BYTE   W08
 BYTE   PEND 
// 027   ----------------------------------------
Label_9_014A119B:
 BYTE   N03  Dn1  v108
 BYTE   W16
 BYTE   Dn1  v076
 BYTE   W08
 BYTE   Dn1  v108
 BYTE   W08
 BYTE   Dn1  v084
 BYTE   W08
 BYTE   Dn1  v080
 BYTE   W08
 BYTE   Dn1  v120
 BYTE   W08
 BYTE   Dn1  v056
 BYTE   W08
 BYTE   Dn1  v080
 BYTE   W08
 BYTE   Dn1  v104
 BYTE   W08
 BYTE   Dn1  v076
 BYTE   W08
 BYTE   Dn1  v064
 BYTE   W08
 BYTE   PEND 
// 028   ----------------------------------------
 BYTE   PATT
  POIN2 Label_9_014A119B
// 029   ----------------------------------------
 BYTE   PATT
  POIN2 Label_9_014A119B
// 030   ----------------------------------------
Label_9_014A11C8:
 BYTE   N06  Cn1  v100
 BYTE   N02  Dn1  v124
 BYTE   N96  An2  v100
 BYTE   N06  As3  v060
 BYTE   W02
 BYTE   N01  Dn1  v108
 BYTE   W06
 BYTE   N06  As3  v052
 BYTE   W08
 BYTE   N03  Dn1  v076
 BYTE   N06  As3  v052
 BYTE   W08
 BYTE   N03  Dn1  v108
 BYTE   N06  As3  v060
 BYTE   W08
 BYTE   N03  Dn1  v072
 BYTE   N06  As3  v052
 BYTE   W08
 BYTE   N03  Dn1  v104
 BYTE   N06  As3  v052
 BYTE   W08
 BYTE   Cn1  v084
 BYTE   N02  Dn1  v120
 BYTE   N06  As3  v060
 BYTE   W02
 BYTE   N01  Dn1  v108
 BYTE   W06
 BYTE   N03  Dn1  v056
 BYTE   N06  As3  v052
 BYTE   W08
 BYTE   N03  Dn1  v080
 BYTE   N06  As3  v052
 BYTE   W08
 BYTE   N03  Dn1  v104
 BYTE   N06  As3  v060
 BYTE   W08
 BYTE   N03  Dn1  v076
 BYTE   N06  As3  v052
 BYTE   W08
 BYTE   Cn1  v064
 BYTE   N03  Dn1  v104
 BYTE   N06  As3  v052
 BYTE   W08
 BYTE   PEND 
// 031   ----------------------------------------
Label_9_014A122C:
 BYTE   N06  Cn1  v100
 BYTE   N02  Dn1  v124
 BYTE   N06  As3  v060
 BYTE   W02
 BYTE   N01  Dn1  v108
 BYTE   W06
 BYTE   N06  As3  v052
 BYTE   W08
 BYTE   N03  Dn1  v076
 BYTE   N06  As3  v052
 BYTE   W08
 BYTE   N03  Dn1  v096
 BYTE   N06  As3  v060
 BYTE   W08
 BYTE   N03  Dn1  v080
 BYTE   N06  As3  v052
 BYTE   W08
 BYTE   N03  Dn1  v096
 BYTE   N06  As3  v052
 BYTE   W08
 BYTE   Cn1  v084
 BYTE   N03  Dn1  v088
 BYTE   N06  As3  v060
 BYTE   W08
 BYTE   N03  Dn1  v088
 BYTE   N06  As3  v052
 BYTE   W08
 BYTE   N03  Dn1  v092
 BYTE   N06  As3  v052
 BYTE   W08
 BYTE   N03  Dn1  v092
 BYTE   N06  As3  v060
 BYTE   W08
 BYTE   N03  Dn1  v096
 BYTE   N06  As3  v052
 BYTE   W08
 BYTE   N03  Dn1  v096
 BYTE   N06  As3  v052
 BYTE   W08
 BYTE   PEND 
// 032   ----------------------------------------
Label_9_014A1287:
 BYTE   N06  Cn1  v100
 BYTE   N02  Dn1  v124
 BYTE   N96  An2  v100
 BYTE   N06  As3  v060
 BYTE   W02
 BYTE   N01  Dn1  v108
 BYTE   W06
 BYTE   N06  As3  v052
 BYTE   W08
 BYTE   N03  Dn1  v076
 BYTE   N06  As3  v052
 BYTE   W08
 BYTE   N03  Dn1  v108
 BYTE   N06  As3  v060
 BYTE   W08
 BYTE   N03  Dn1  v072
 BYTE   N06  As3  v052
 BYTE   W08
 BYTE   N03  Dn1  v104
 BYTE   N06  As3  v052
 BYTE   W08
 BYTE   Cn1  v080
 BYTE   N02  Dn1  v120
 BYTE   N06  As3  v060
 BYTE   W02
 BYTE   N01  Dn1  v108
 BYTE   W06
 BYTE   N03  Dn1  v056
 BYTE   N06  As3  v052
 BYTE   W08
 BYTE   N03  Dn1  v080
 BYTE   N06  As3  v052
 BYTE   W08
 BYTE   N03  Dn1  v104
 BYTE   N06  As3  v060
 BYTE   W08
 BYTE   N03  Dn1  v076
 BYTE   N06  As3  v052
 BYTE   W08
 BYTE   Cn1  v076
 BYTE   N03  Dn1  v104
 BYTE   N06  As3  v052
 BYTE   W08
 BYTE   PEND 
// 033   ----------------------------------------
Label_9_014A12EB:
 BYTE   N06  Cn1  v100
 BYTE   N02  Dn1  v124
 BYTE   N06  As3  v060
 BYTE   W02
 BYTE   N01  Dn1  v108
 BYTE   W06
 BYTE   N06  As3  v052
 BYTE   W08
 BYTE   N03  Dn1  v076
 BYTE   N06  As3  v052
 BYTE   W08
 BYTE   N03  Dn1  v096
 BYTE   N06  As3  v060
 BYTE   W08
 BYTE   N03  Dn1  v080
 BYTE   N06  As3  v052
 BYTE   W08
 BYTE   N03  Dn1  v096
 BYTE   N06  As3  v052
 BYTE   W08
 BYTE   Cn1  v088
 BYTE   N03  Dn1
 BYTE   N06  As3  v060
 BYTE   W08
 BYTE   N03  Dn1  v088
 BYTE   N06  As3  v052
 BYTE   W08
 BYTE   N03  Dn1  v092
 BYTE   N06  As3  v052
 BYTE   W08
 BYTE   Cn1  v064
 BYTE   N03  Dn1  v092
 BYTE   N06  As3  v060
 BYTE   W08
 BYTE   Cn1  v072
 BYTE   N03  Dn1  v096
 BYTE   N06  As3  v052
 BYTE   W08
 BYTE   Cn1  v076
 BYTE   N03  Dn1  v096
 BYTE   N06  As3  v052
 BYTE   W08
 BYTE   PEND 
// 034   ----------------------------------------
 BYTE   PATT
  POIN2 Label_9_014A11C8
// 035   ----------------------------------------
 BYTE   PATT
  POIN2 Label_9_014A122C
// 036   ----------------------------------------
 BYTE   PATT
  POIN2 Label_9_014A1287
// 037   ----------------------------------------
 BYTE   PATT
  POIN2 Label_9_014A12EB
// 038   ----------------------------------------
Label_9_014A135F:
 BYTE   BEND   c_v-64
 BYTE   N06  Cn1  v127
 BYTE   N96  An2
 BYTE   W96
 BYTE   PEND 
// 039   ----------------------------------------
Label_9_014A1368:
 BYTE   W48
 BYTE   BEND   c_v+0
 BYTE   N03  Cn1  v032
 BYTE   W03
 BYTE   Cn1  v040
 BYTE   W03
 BYTE   Cn1  v044
 BYTE   W03
 BYTE   Cn1  v052
 BYTE   W03
 BYTE   Cn1  v056
 BYTE   W03
 BYTE   Cn1  v064
 BYTE   W03
 BYTE   Cn1  v068
 BYTE   W03
 BYTE   Cn1  v076
 BYTE   W03
 BYTE   Cn1  v084
 BYTE   W03
 BYTE   Cn1  v088
 BYTE   W03
 BYTE   Cn1  v096
 BYTE   W03
 BYTE   Cn1  v100
 BYTE   W03
 BYTE   Cn1  v108
 BYTE   W03
 BYTE   Cn1  v112
 BYTE   W03
 BYTE   Cn1  v120
 BYTE   W03
 BYTE   Cn1  v124
 BYTE   W03
 BYTE   PEND 
// 040   ----------------------------------------
 BYTE   W96
// 041   ----------------------------------------
 BYTE   W48
 BYTE   Cn1  v032
 BYTE   W03
 BYTE   Cn1  v040
 BYTE   W03
 BYTE   Cn1  v044
 BYTE   W03
 BYTE   Cn1  v052
 BYTE   W03
 BYTE   Cn1  v056
 BYTE   W03
 BYTE   Cn1  v064
 BYTE   W03
 BYTE   Cn1  v068
 BYTE   W03
 BYTE   Cn1  v076
 BYTE   W03
 BYTE   Cn1  v084
 BYTE   W03
 BYTE   Cn1  v088
 BYTE   W03
 BYTE   Cn1  v096
 BYTE   W03
 BYTE   Cn1  v100
 BYTE   W03
 BYTE   Cn1  v108
 BYTE   W03
 BYTE   Cn1  v112
 BYTE   W03
 BYTE   Cn1  v120
 BYTE   W03
 BYTE   Cn1  v124
 BYTE   W01
 BYTE   W01
 BYTE   W01
// 042   ----------------------------------------
 BYTE   BEND   c_v+0
 BYTE   N06  Cn1  v100
 BYTE   N01  Dn1  v120
 BYTE   N96  An2  v100
 BYTE   N06  As3  v060
 BYTE   W01
 BYTE   N01  Dn1  v100
 BYTE   W07
 BYTE   N06  As3  v052
 BYTE   W08
 BYTE   N03  Dn1  v076
 BYTE   N06  As3  v052
 BYTE   W08
 BYTE   N03  Dn1  v108
 BYTE   N06  As3  v060
 BYTE   W08
 BYTE   N03  Dn1  v084
 BYTE   N06  As3  v052
 BYTE   W08
 BYTE   N03  Dn1  v080
 BYTE   N06  As3  v052
 BYTE   W08
 BYTE   Cn1  v100
 BYTE   N01  Dn1  v120
 BYTE   N06  As3  v060
 BYTE   W01
 BYTE   N01  Dn1  v100
 BYTE   W07
 BYTE   N03  Dn1  v056
 BYTE   N06  As3  v052
 BYTE   W08
 BYTE   Cn1  v072
 BYTE   N01  Dn1  v124
 BYTE   N06  As3  v052
 BYTE   W01
 BYTE   N01  Dn1  v100
 BYTE   W07
 BYTE   N03  Dn1  v076
 BYTE   N06  As3  v060
 BYTE   W08
 BYTE   N03  Dn1  v076
 BYTE   N06  As3  v052
 BYTE   W08
 BYTE   Cn1  v076
 BYTE   N03  Dn1  v112
 BYTE   N06  As3  v052
 BYTE   W08
// 043   ----------------------------------------
 BYTE   PATT
  POIN2 Label_9_014A0DEF
// 044   ----------------------------------------
 BYTE   PATT
  POIN2 Label_9_014A0E5A
// 045   ----------------------------------------
 BYTE   PATT
  POIN2 Label_9_014A0EC1
// 046   ----------------------------------------
 BYTE   PATT
  POIN2 Label_9_014A0F2D
// 047   ----------------------------------------
 BYTE   PATT
  POIN2 Label_9_014A0DEF
// 048   ----------------------------------------
 BYTE   PATT
  POIN2 Label_9_014A0E5A
// 049   ----------------------------------------
 BYTE   PATT
  POIN2 Label_9_014A0EC1
// 050   ----------------------------------------
 BYTE   PATT
  POIN2 Label_9_014A0F2D
// 051   ----------------------------------------
 BYTE   PATT
  POIN2 Label_9_014A0DEF
// 052   ----------------------------------------
 BYTE   PATT
  POIN2 Label_9_014A0E5A
// 053   ----------------------------------------
 BYTE   PATT
  POIN2 Label_9_014A0EC1
// 054   ----------------------------------------
 BYTE   PATT
  POIN2 Label_9_014A0F2D
// 055   ----------------------------------------
 BYTE   PATT
  POIN2 Label_9_014A0DEF
// 056   ----------------------------------------
 BYTE   PATT
  POIN2 Label_9_014A0E5A
// 057   ----------------------------------------
 BYTE   PATT
  POIN2 Label_9_014A0EC1
// 058   ----------------------------------------
 BYTE   PATT
  POIN2 Label_9_014A0F2D
// 059   ----------------------------------------
 BYTE   PATT
  POIN2 Label_9_014A0DEF
// 060   ----------------------------------------
 BYTE   PATT
  POIN2 Label_9_014A0E5A
// 061   ----------------------------------------
 BYTE   PATT
  POIN2 Label_9_014A0EC1
// 062   ----------------------------------------
 BYTE   PATT
  POIN2 Label_9_014A0FE2
// 063   ----------------------------------------
 BYTE   PATT
  POIN2 Label_9_014A1046
// 064   ----------------------------------------
 BYTE   PATT
  POIN2 Label_9_014A10A5
// 065   ----------------------------------------
 BYTE   PATT
  POIN2 Label_9_014A1109
// 066   ----------------------------------------
 BYTE   PATT
  POIN2 Label_9_014A116A
// 067   ----------------------------------------
 BYTE   W96
// 068   ----------------------------------------
 BYTE   PATT
  POIN2 Label_9_014A1172
// 069   ----------------------------------------
 BYTE   PATT
  POIN2 Label_9_014A119B
// 070   ----------------------------------------
 BYTE   PATT
  POIN2 Label_9_014A119B
// 071   ----------------------------------------
 BYTE   PATT
  POIN2 Label_9_014A119B
// 072   ----------------------------------------
 BYTE   PATT
  POIN2 Label_9_014A11C8
// 073   ----------------------------------------
 BYTE   PATT
  POIN2 Label_9_014A122C
// 074   ----------------------------------------
 BYTE   PATT
  POIN2 Label_9_014A1287
// 075   ----------------------------------------
 BYTE   PATT
  POIN2 Label_9_014A12EB
// 076   ----------------------------------------
 BYTE   PATT
  POIN2 Label_9_014A11C8
// 077   ----------------------------------------
 BYTE   PATT
  POIN2 Label_9_014A122C
// 078   ----------------------------------------
 BYTE   PATT
  POIN2 Label_9_014A1287
// 079   ----------------------------------------
 BYTE   PATT
  POIN2 Label_9_014A12EB
// 080   ----------------------------------------
 BYTE   PATT
  POIN2 Label_9_014A135F
// 081   ----------------------------------------
 BYTE   PATT
  POIN2 Label_9_014A1368
// 082   ----------------------------------------
 BYTE   W96
// 083   ----------------------------------------
 BYTE   W48
 BYTE   N03  Cn1  v032
 BYTE   W03
 BYTE   Cn1  v040
 BYTE   W03
 BYTE   Cn1  v044
 BYTE   W03
 BYTE   Cn1  v052
 BYTE   W03
 BYTE   Cn1  v056
 BYTE   W03
 BYTE   Cn1  v064
 BYTE   W03
 BYTE   Cn1  v068
 BYTE   W03
 BYTE   Cn1  v076
 BYTE   W03
 BYTE   Cn1  v084
 BYTE   W03
 BYTE   Cn1  v088
 BYTE   W03
 BYTE   Cn1  v096
 BYTE   W03
 BYTE   Cn1  v100
 BYTE   W03
 BYTE   Cn1  v108
 BYTE   W03
 BYTE   Cn1  v112
 BYTE   W03
 BYTE   Cn1  v120
 BYTE   W03
 BYTE   Cn1  v124
 BYTE   W03
// 084   ----------------------------------------
 BYTE   GoTo
  POIN2 Label_9_014A0D7E
 BYTE   FINE

//******************************************************//
	ALIGN 4

song26:
	BYTE	10	// NumTrks
	BYTE	0	// NumBlks
	BYTE	song26_pri	// Priority
	BYTE	song26_rev	// Reverb.
    
	POIN2	song26_grp
    
	POIN2	song26_001
	POIN2	song26_002
	POIN2	song26_003
	POIN2	song26_004
	POIN2	song26_005
	POIN2	song26_006
	POIN2	song26_007
	POIN2	song26_008
	POIN2	song26_009
	POIN2	song26_010

	
