//Event file generated from Sappy .s format.
	#include "MPlayDef.event"

	#define	Endgame2Test_FINAL_grp  voicegroup000
	#define	Endgame2Test_FINAL_pri  0
	#define	Endgame2Test_FINAL_rev  0xC0
	#define	Endgame2Test_FINAL_mvl  35
	#define	Endgame2Test_FINAL_key  0
	#define	Endgame2Test_FINAL_tbs  1
	#define	Endgame2Test_FINAL_exg  0
	#define	Endgame2Test_FINAL_cmp  1

	// .rodata
	//	Endgame2Test_FINAL
	ALIGN 4

//**************** Track 1 (Midi-Chn.1) ****************//

Endgame2Test_FINAL_1:
	BYTE	KEYSH   Endgame2Test_FINAL_key+0
Endgame2Test_FINAL_1_B1:
// 000   ----------------------------------------
	BYTE	TEMPO   80*Endgame2Test_FINAL_tbs/2
	BYTE		VOICE   48
	BYTE		MODT    0
	BYTE		LFOS    44
	BYTE		PAN     c_v-13
	BYTE		VOL     127*Endgame2Test_FINAL_mvl/mxv
	BYTE	W96
// 001   ----------------------------------------
	BYTE	W96
// 002   ----------------------------------------
	BYTE	W96
// 003   ----------------------------------------
	BYTE	W96
// 004   ----------------------------------------
	BYTE	W96
// 005   ----------------------------------------
	BYTE	W96
// 006   ----------------------------------------
	BYTE	W96
// 007   ----------------------------------------
	BYTE	W96
// 008   ----------------------------------------
	BYTE		        127*Endgame2Test_FINAL_mvl/mxv
	BYTE		N96     An2   v076
	BYTE		N96     Cn3 
	BYTE		N96     En3 
	BYTE	W96
// 009   ----------------------------------------
Endgame2Test_FINAL_1_009:
	BYTE		N48     Gn2   v076
	BYTE		N48     Cn3 
	BYTE		N48     En3 
	BYTE	W48
	BYTE		N42     Gn2 
	BYTE		N42     Bn2 
	BYTE		N24     Dn3 
	BYTE	W24
	BYTE		        Gn3 
	BYTE	W24
	BYTE	PEND
// 010   ----------------------------------------
Endgame2Test_FINAL_1_010:
	BYTE		N48     Fn2   v076
	BYTE		N48     An2 
	BYTE		N48     En3 
	BYTE	W48
	BYTE		N42     Fn2 
	BYTE		N42     An2 
	BYTE		N24     Dn3 
	BYTE	W24
	BYTE		        Cn3 
	BYTE	W24
	BYTE	PEND
// 011   ----------------------------------------
	BYTE		N96     Fs2 
	BYTE		N96     Bn2 
	BYTE	W96
// 012   ----------------------------------------
Endgame2Test_FINAL_1_012:
	BYTE		N96     An2   v076
	BYTE		N96     Cn3 
	BYTE		N96     En3 
	BYTE	W96
	BYTE	PEND
// 013   ----------------------------------------
	BYTE	PATT
	 POIN2	Endgame2Test_FINAL_1_009
// 014   ----------------------------------------
	BYTE	PATT
	 POIN2	Endgame2Test_FINAL_1_010
// 015   ----------------------------------------
	BYTE		N90     Fs2   v076
	BYTE		N90     Bn2 
	BYTE	W96
// 016   ----------------------------------------
	BYTE	W96
// 017   ----------------------------------------
	BYTE	W96
// 018   ----------------------------------------
	BYTE	W96
// 019   ----------------------------------------
	BYTE	W96
// 020   ----------------------------------------
	BYTE	W96
// 021   ----------------------------------------
	BYTE	W96
// 022   ----------------------------------------
	BYTE	W96
// 023   ----------------------------------------
	BYTE	W96
// 024   ----------------------------------------
Endgame2Test_FINAL_1_024:
	BYTE		N96     Gn2   v076
	BYTE		N96     Cn3 
	BYTE		N96     En3 
	BYTE	W96
	BYTE	PEND
// 025   ----------------------------------------
Endgame2Test_FINAL_1_025:
	BYTE		N96     An2   v076
	BYTE		N96     Dn3 
	BYTE		N96     Fn3 
	BYTE	W96
	BYTE	PEND
// 026   ----------------------------------------
	BYTE	PATT
	 POIN2	Endgame2Test_FINAL_1_012
// 027   ----------------------------------------
Endgame2Test_FINAL_1_027:
	BYTE		N96     Gn2   v076
	BYTE		N96     Bn2 
	BYTE		N96     Dn3 
	BYTE	W96
	BYTE	PEND
// 028   ----------------------------------------
Endgame2Test_FINAL_1_028:
	BYTE		N96     An2   v076
	BYTE		N96     Cn3 
	BYTE		N96     Fn3 
	BYTE	W96
	BYTE	PEND
// 029   ----------------------------------------
Endgame2Test_FINAL_1_029:
	BYTE		N90     Bn2   v076
	BYTE		N90     Dn3 
	BYTE		N48     Gn3 
	BYTE	W48
	BYTE		        Fn3 
	BYTE	W48
	BYTE	PEND
// 030   ----------------------------------------
Endgame2Test_FINAL_1_030:
	BYTE		N90     Gn2   v076
	BYTE		N90     Bn2 
	BYTE		N48     En3 
	BYTE	W48
	BYTE		N24     Dn3 
	BYTE	W24
	BYTE		        Fn3 
	BYTE	W24
	BYTE	PEND
// 031   ----------------------------------------
Endgame2Test_FINAL_1_031:
	BYTE		N96     Gs2   v076
	BYTE		N96     Bn2 
	BYTE		N96     En3 
	BYTE	W96
	BYTE	PEND
// 032   ----------------------------------------
	BYTE	PATT
	 POIN2	Endgame2Test_FINAL_1_024
// 033   ----------------------------------------
	BYTE	PATT
	 POIN2	Endgame2Test_FINAL_1_025
// 034   ----------------------------------------
	BYTE	PATT
	 POIN2	Endgame2Test_FINAL_1_012
// 035   ----------------------------------------
	BYTE	PATT
	 POIN2	Endgame2Test_FINAL_1_027
// 036   ----------------------------------------
	BYTE	PATT
	 POIN2	Endgame2Test_FINAL_1_028
// 037   ----------------------------------------
	BYTE	PATT
	 POIN2	Endgame2Test_FINAL_1_029
// 038   ----------------------------------------
	BYTE	PATT
	 POIN2	Endgame2Test_FINAL_1_030
// 039   ----------------------------------------
	BYTE	PATT
	 POIN2	Endgame2Test_FINAL_1_031
// 040   ----------------------------------------
Endgame2Test_FINAL_1_040:
	BYTE		N48     An2   v076
	BYTE		N48     Cn3 
	BYTE		N90     En3 
	BYTE	W48
	BYTE		N48     Gs2 
	BYTE		N48     Bn2 
	BYTE	W48
	BYTE	PEND
// 041   ----------------------------------------
Endgame2Test_FINAL_1_041:
	BYTE		N90     An2   v076
	BYTE		N90     Cn3 
	BYTE		N48     Fn3 
	BYTE	W48
	BYTE		        En3 
	BYTE	W48
	BYTE	PEND
// 042   ----------------------------------------
Endgame2Test_FINAL_1_042:
	BYTE		N90     Gn2   v076
	BYTE		N90     Bn2 
	BYTE		N48     Dn3 
	BYTE	W48
	BYTE		        Fn3 
	BYTE	W48
	BYTE	PEND
// 043   ----------------------------------------
	BYTE		        Gn2 
	BYTE		N48     Cn3 
	BYTE		N90     En3 
	BYTE	W48
	BYTE		N48     Gn2 
	BYTE		N48     Bn2 
	BYTE	W48
// 044   ----------------------------------------
	BYTE	PATT
	 POIN2	Endgame2Test_FINAL_1_040
// 045   ----------------------------------------
	BYTE	PATT
	 POIN2	Endgame2Test_FINAL_1_041
// 046   ----------------------------------------
	BYTE	PATT
	 POIN2	Endgame2Test_FINAL_1_042
// 047   ----------------------------------------
	BYTE		N48     Gn2   v076
	BYTE		N48     Cn3 
	BYTE		N90     En3 
	BYTE	W48
	BYTE		N42     Gn2 
	BYTE		N42     Bn2 
	BYTE	W44
	BYTE	GoTo
	 POIN2	Endgame2Test_FINAL_1_B1
Endgame2Test_FINAL_1_B2:
	BYTE	FINE

//**************** Track 2 (Midi-Chn.2) ****************//

Endgame2Test_FINAL_2:
	BYTE	KEYSH   Endgame2Test_FINAL_key+0
Endgame2Test_FINAL_2_B1:
// 000   ----------------------------------------
	BYTE		VOICE   0
	BYTE		MODT    0
	BYTE		LFOS    44
	BYTE		PAN     c_v+6
	BYTE		VOL     127*Endgame2Test_FINAL_mvl/mxv
	BYTE		N11     An1   v127
	BYTE	W12
	BYTE		        Bn1 
	BYTE	W12
	BYTE		        Cn2 
	BYTE	W12
	BYTE		        An1 
	BYTE	W24
	BYTE		        Bn1 
	BYTE	W12
	BYTE		        Cn2 
	BYTE	W12
	BYTE		        An1 
	BYTE	W12
// 001   ----------------------------------------
Endgame2Test_FINAL_2_001:
	BYTE		N11     Gn1   v127
	BYTE	W12
	BYTE		        Cn2 
	BYTE	W12
	BYTE		        En2 
	BYTE	W12
	BYTE		        Cn2 
	BYTE	W24
	BYTE		        Bn1 
	BYTE	W12
	BYTE		        An1 
	BYTE	W12
	BYTE		        Gn1 
	BYTE	W12
	BYTE	PEND
// 002   ----------------------------------------
Endgame2Test_FINAL_2_002:
	BYTE		N11     An1   v127
	BYTE	W12
	BYTE		        Bn1 
	BYTE	W12
	BYTE		        Cn2 
	BYTE	W12
	BYTE		        An1 
	BYTE	W24
	BYTE		        Cn2 
	BYTE	W12
	BYTE		        An1 
	BYTE	W12
	BYTE		        Fn1 
	BYTE	W12
	BYTE	PEND
// 003   ----------------------------------------
Endgame2Test_FINAL_2_003:
	BYTE		N11     Fs1   v127
	BYTE	W12
	BYTE		        Bn1 
	BYTE	W12
	BYTE		        Ds2 
	BYTE	W12
	BYTE		        Bn1 
	BYTE	W12
	BYTE		        Fs1 
	BYTE	W12
	BYTE		        Bn1 
	BYTE	W12
	BYTE		        Ds2 
	BYTE	W12
	BYTE		        Bn1 
	BYTE	W12
	BYTE	PEND
// 004   ----------------------------------------
Endgame2Test_FINAL_2_004:
	BYTE		N11     An1   v127
	BYTE	W12
	BYTE		        Bn1 
	BYTE	W12
	BYTE		        Cn2 
	BYTE	W12
	BYTE		        An1 
	BYTE	W24
	BYTE		        Bn1 
	BYTE	W12
	BYTE		        Cn2 
	BYTE	W12
	BYTE		        An1 
	BYTE	W12
	BYTE	PEND
// 005   ----------------------------------------
	BYTE	PATT
	 POIN2	Endgame2Test_FINAL_2_001
// 006   ----------------------------------------
	BYTE	PATT
	 POIN2	Endgame2Test_FINAL_2_002
// 007   ----------------------------------------
	BYTE	PATT
	 POIN2	Endgame2Test_FINAL_2_003
// 008   ----------------------------------------
	BYTE		VOL     127*Endgame2Test_FINAL_mvl/mxv
	BYTE		N11     An1   v127
	BYTE	W12
	BYTE		        Bn1 
	BYTE	W12
	BYTE		        Cn2 
	BYTE	W12
	BYTE		        An1 
	BYTE	W24
	BYTE		        Bn1 
	BYTE	W12
	BYTE		        Cn2 
	BYTE	W12
	BYTE		        An1 
	BYTE	W12
// 009   ----------------------------------------
	BYTE	PATT
	 POIN2	Endgame2Test_FINAL_2_001
// 010   ----------------------------------------
	BYTE	PATT
	 POIN2	Endgame2Test_FINAL_2_002
// 011   ----------------------------------------
	BYTE	PATT
	 POIN2	Endgame2Test_FINAL_2_003
// 012   ----------------------------------------
	BYTE	PATT
	 POIN2	Endgame2Test_FINAL_2_004
// 013   ----------------------------------------
	BYTE	PATT
	 POIN2	Endgame2Test_FINAL_2_001
// 014   ----------------------------------------
	BYTE	PATT
	 POIN2	Endgame2Test_FINAL_2_002
// 015   ----------------------------------------
	BYTE	PATT
	 POIN2	Endgame2Test_FINAL_2_003
// 016   ----------------------------------------
	BYTE		N11     Cn2   v127
	BYTE	W12
	BYTE		        Fn2 
	BYTE	W12
	BYTE		        An2 
	BYTE	W12
	BYTE		        Fn2 
	BYTE	W12
	BYTE		        En2 
	BYTE	W12
	BYTE		        Bn1 
	BYTE	W12
	BYTE		        Gn1 
	BYTE	W12
	BYTE		        Bn1 
	BYTE	W12
// 017   ----------------------------------------
	BYTE		        An1 
	BYTE	W12
	BYTE		        Cn2 
	BYTE	W12
	BYTE		        En2 
	BYTE	W12
	BYTE		        Cn2 
	BYTE	W12
	BYTE		        Bn1 
	BYTE	W12
	BYTE		        An1 
	BYTE	W12
	BYTE		        Gn1 
	BYTE	W12
	BYTE		        Bn1 
	BYTE	W12
// 018   ----------------------------------------
	BYTE		        An1 
	BYTE	W12
	BYTE		        Gn1 
	BYTE	W12
	BYTE		        Fn1 
	BYTE	W12
	BYTE		        An1 
	BYTE	W12
	BYTE		        Bn1 
	BYTE	W12
	BYTE		        Cn2 
	BYTE	W12
	BYTE		        Dn2 
	BYTE	W12
	BYTE		        Bn1 
	BYTE	W12
// 019   ----------------------------------------
	BYTE		        Cn2 
	BYTE	W12
	BYTE		        Dn2 
	BYTE	W12
	BYTE		        En2 
	BYTE	W12
	BYTE		        Cn2 
	BYTE	W12
	BYTE		        Bn1 
	BYTE	W12
	BYTE		        Gn1 
	BYTE	W12
	BYTE		        An1 
	BYTE	W12
	BYTE		        Gn1 
	BYTE	W12
// 020   ----------------------------------------
	BYTE		        Cn2 
	BYTE	W12
	BYTE		        Dn2 
	BYTE	W12
	BYTE		        En2 
	BYTE	W12
	BYTE		        Cn2 
	BYTE	W12
	BYTE		        An1 
	BYTE	W12
	BYTE		        Bn1 
	BYTE	W12
	BYTE		        Cn2 
	BYTE	W12
	BYTE		        An1 
	BYTE	W12
// 021   ----------------------------------------
	BYTE		        Cn2 
	BYTE	W12
	BYTE		        Gn2 
	BYTE	W12
	BYTE		        Fn2 
	BYTE	W12
	BYTE		        En2 
	BYTE	W12
	BYTE		        Dn2 
	BYTE	W12
	BYTE		        Cn2 
	BYTE	W12
	BYTE		        An1 
	BYTE	W12
	BYTE		        Fn1 
	BYTE	W12
// 022   ----------------------------------------
	BYTE		        Gn1 
	BYTE	W12
	BYTE		        Cn2 
	BYTE	W12
	BYTE		        En2 
	BYTE	W12
	BYTE		        Cn2 
	BYTE	W12
	BYTE		        Gn1 
	BYTE	W12
	BYTE		        Bn1 
	BYTE	W12
	BYTE		        Dn2 
	BYTE	W12
	BYTE		        Bn1 
	BYTE	W12
// 023   ----------------------------------------
	BYTE		        Cn2 
	BYTE	W12
	BYTE		        Bn1 
	BYTE	W12
	BYTE		        An1 
	BYTE	W12
	BYTE		        Gn1 
	BYTE	W12
	BYTE		        An1 
	BYTE	W12
	BYTE		        Bn1 
	BYTE	W12
	BYTE		N20     An1 
	BYTE	W24
// 024   ----------------------------------------
Endgame2Test_FINAL_2_024:
	BYTE		N11     Cn2   v127
	BYTE	W12
	BYTE		        Dn2 
	BYTE	W12
	BYTE		        En2 
	BYTE	W12
	BYTE		        Fn2 
	BYTE	W12
	BYTE		N42     En2 
	BYTE	W48
	BYTE	PEND
// 025   ----------------------------------------
Endgame2Test_FINAL_2_025:
	BYTE		N11     Dn2   v127
	BYTE	W12
	BYTE		        En2 
	BYTE	W12
	BYTE		        Fn2 
	BYTE	W12
	BYTE		        Gn2 
	BYTE	W12
	BYTE		N42     Fn2 
	BYTE	W48
	BYTE	PEND
// 026   ----------------------------------------
Endgame2Test_FINAL_2_026:
	BYTE		N11     An1   v127
	BYTE	W12
	BYTE		        Bn1 
	BYTE	W12
	BYTE		        Cn2 
	BYTE	W12
	BYTE		        Dn2 
	BYTE	W12
	BYTE		N42     Cn2 
	BYTE	W48
	BYTE	PEND
// 027   ----------------------------------------
Endgame2Test_FINAL_2_027:
	BYTE		N11     Bn1   v127
	BYTE	W12
	BYTE		        Cn2 
	BYTE	W12
	BYTE		        Dn2 
	BYTE	W12
	BYTE		        En2 
	BYTE	W12
	BYTE		N42     Dn2 
	BYTE	W48
	BYTE	PEND
// 028   ----------------------------------------
Endgame2Test_FINAL_2_028:
	BYTE		N11     Fn1   v127
	BYTE	W12
	BYTE		        Gn1 
	BYTE	W12
	BYTE		        An1 
	BYTE	W12
	BYTE		        Bn1 
	BYTE	W12
	BYTE		N42     An1 
	BYTE	W48
	BYTE	PEND
// 029   ----------------------------------------
Endgame2Test_FINAL_2_029:
	BYTE		N11     Gn1   v127
	BYTE	W12
	BYTE		        An1 
	BYTE	W12
	BYTE		        Bn1 
	BYTE	W12
	BYTE		        Gn1 
	BYTE	W12
	BYTE		        Fn1 
	BYTE	W12
	BYTE		        Gn1 
	BYTE	W12
	BYTE		        An1 
	BYTE	W12
	BYTE		        Fn1 
	BYTE	W12
	BYTE	PEND
// 030   ----------------------------------------
Endgame2Test_FINAL_2_030:
	BYTE		N11     En1   v127
	BYTE	W12
	BYTE		        Gn1 
	BYTE	W12
	BYTE		        Bn1 
	BYTE	W12
	BYTE		        Gn1 
	BYTE	W12
	BYTE		        Dn2 
	BYTE	W12
	BYTE		        Bn1 
	BYTE	W12
	BYTE		        Fn1 
	BYTE	W12
	BYTE		        Bn1 
	BYTE	W12
	BYTE	PEND
// 031   ----------------------------------------
Endgame2Test_FINAL_2_031:
	BYTE		N11     Gs1   v127
	BYTE	W12
	BYTE		        An1 
	BYTE	W12
	BYTE		        Bn1 
	BYTE	W12
	BYTE		        An1 
	BYTE	W12
	BYTE		N42     Gs1 
	BYTE	W48
	BYTE	PEND
// 032   ----------------------------------------
	BYTE	PATT
	 POIN2	Endgame2Test_FINAL_2_024
// 033   ----------------------------------------
	BYTE	PATT
	 POIN2	Endgame2Test_FINAL_2_025
// 034   ----------------------------------------
	BYTE	PATT
	 POIN2	Endgame2Test_FINAL_2_026
// 035   ----------------------------------------
	BYTE	PATT
	 POIN2	Endgame2Test_FINAL_2_027
// 036   ----------------------------------------
	BYTE	PATT
	 POIN2	Endgame2Test_FINAL_2_028
// 037   ----------------------------------------
	BYTE	PATT
	 POIN2	Endgame2Test_FINAL_2_029
// 038   ----------------------------------------
	BYTE	PATT
	 POIN2	Endgame2Test_FINAL_2_030
// 039   ----------------------------------------
	BYTE	PATT
	 POIN2	Endgame2Test_FINAL_2_031
// 040   ----------------------------------------
	BYTE	W96
// 041   ----------------------------------------
	BYTE	W96
// 042   ----------------------------------------
	BYTE	W96
// 043   ----------------------------------------
	BYTE	W96
// 044   ----------------------------------------
	BYTE		N42     An1   v127
	BYTE	W48
	BYTE		        Gs1 
	BYTE	W48
// 045   ----------------------------------------
	BYTE		        Cn2 
	BYTE	W48
	BYTE		        An1 
	BYTE	W48
// 046   ----------------------------------------
	BYTE		        Dn2 
	BYTE	W48
	BYTE		N20     Bn1 
	BYTE	W24
	BYTE		        An1 
	BYTE	W24
// 047   ----------------------------------------
	BYTE		        Gn1 
	BYTE	W24
	BYTE		        An1 
	BYTE	W24
	BYTE		N42     Gn1 
	BYTE	W44
	BYTE	GoTo
	 POIN2	Endgame2Test_FINAL_2_B1
Endgame2Test_FINAL_2_B2:
	BYTE	FINE

//**************** Track 3 (Midi-Chn.3) ****************//

Endgame2Test_FINAL_3:
	BYTE	KEYSH   Endgame2Test_FINAL_key+0
Endgame2Test_FINAL_3_B1:
// 000   ----------------------------------------
	BYTE		VOICE   48
	BYTE		MODT    0
	BYTE		LFOS    44
	BYTE		PAN     c_v+31
	BYTE		VOL     127*Endgame2Test_FINAL_mvl/mxv
	BYTE		N90     En3   v056
	BYTE		N90     Gn3 
	BYTE		N90     Bn3 
	BYTE		N48     En4 
	BYTE	W48
	BYTE		        Bn4 
	BYTE	W48
// 001   ----------------------------------------
Endgame2Test_FINAL_3_001:
	BYTE		N90     Dn3   v056
	BYTE		N90     Gn3 
	BYTE		N48     Fs4 
	BYTE	W48
	BYTE		N16     Dn4 
	BYTE	W16
	BYTE		        Cn4 
	BYTE	W16
	BYTE		        Bn3 
	BYTE	W16
	BYTE	PEND
// 002   ----------------------------------------
Endgame2Test_FINAL_3_002:
	BYTE		N90     En3   v056
	BYTE		N90     Gn3 
	BYTE		N90     Cn4 
	BYTE		N48     En4 
	BYTE	W48
	BYTE		        Gn4 
	BYTE	W48
	BYTE	PEND
// 003   ----------------------------------------
	BYTE		N90     Fs3 
	BYTE		N90     An3 
	BYTE		N90     Dn4 
	BYTE		N24     Fs4 
	BYTE	W24
	BYTE		        Gn4 
	BYTE	W24
	BYTE		N48     An4 
	BYTE	W48
// 004   ----------------------------------------
	BYTE		N90     En3 
	BYTE		N90     Gn3 
	BYTE		N90     Bn3 
	BYTE		N48     En4 
	BYTE	W48
	BYTE		        Bn4 
	BYTE	W48
// 005   ----------------------------------------
	BYTE	PATT
	 POIN2	Endgame2Test_FINAL_3_001
// 006   ----------------------------------------
	BYTE	PATT
	 POIN2	Endgame2Test_FINAL_3_002
// 007   ----------------------------------------
	BYTE		N90     Fs3   v056
	BYTE		N90     Bn3 
	BYTE		N90     Ds4 
	BYTE		N90     Fs4 
	BYTE	W96
// 008   ----------------------------------------
	BYTE		VOL     127*Endgame2Test_FINAL_mvl/mxv
	BYTE	W96
// 009   ----------------------------------------
	BYTE	W96
// 010   ----------------------------------------
	BYTE	W96
// 011   ----------------------------------------
	BYTE	W96
// 012   ----------------------------------------
	BYTE	W96
// 013   ----------------------------------------
	BYTE	W96
// 014   ----------------------------------------
	BYTE	W96
// 015   ----------------------------------------
	BYTE	W96
// 016   ----------------------------------------
	BYTE	W96
// 017   ----------------------------------------
	BYTE	W96
// 018   ----------------------------------------
	BYTE	W96
// 019   ----------------------------------------
	BYTE	W96
// 020   ----------------------------------------
	BYTE	W96
// 021   ----------------------------------------
	BYTE	W96
// 022   ----------------------------------------
	BYTE	W96
// 023   ----------------------------------------
	BYTE	W96
// 024   ----------------------------------------
	BYTE	W96
// 025   ----------------------------------------
	BYTE	W96
// 026   ----------------------------------------
	BYTE	W96
// 027   ----------------------------------------
	BYTE	W96
// 028   ----------------------------------------
	BYTE	W96
// 029   ----------------------------------------
	BYTE	W96
// 030   ----------------------------------------
	BYTE	W96
// 031   ----------------------------------------
	BYTE	W96
// 032   ----------------------------------------
	BYTE	W96
// 033   ----------------------------------------
	BYTE	W96
// 034   ----------------------------------------
	BYTE	W96
// 035   ----------------------------------------
	BYTE	W96
// 036   ----------------------------------------
	BYTE	W96
// 037   ----------------------------------------
	BYTE	W96
// 038   ----------------------------------------
	BYTE	W96
// 039   ----------------------------------------
	BYTE	W96
// 040   ----------------------------------------
	BYTE	W96
// 041   ----------------------------------------
	BYTE	W96
// 042   ----------------------------------------
	BYTE	W96
// 043   ----------------------------------------
	BYTE	W96
// 044   ----------------------------------------
	BYTE	W96
// 045   ----------------------------------------
	BYTE	W96
// 046   ----------------------------------------
	BYTE	W96
// 047   ----------------------------------------
	BYTE	W92
	BYTE	GoTo
	 POIN2	Endgame2Test_FINAL_3_B1
Endgame2Test_FINAL_3_B2:
	BYTE	FINE

//**************** Track 4 (Midi-Chn.4) ****************//

Endgame2Test_FINAL_4:
	BYTE	KEYSH   Endgame2Test_FINAL_key+0
Endgame2Test_FINAL_4_B1:
// 000   ----------------------------------------
	BYTE		VOICE   1
	BYTE		MODT    0
	BYTE		LFOS    44
	BYTE		PAN     c_v-7
	BYTE		VOL     114*Endgame2Test_FINAL_mvl/mxv
	BYTE	W96
// 001   ----------------------------------------
	BYTE	W96
// 002   ----------------------------------------
	BYTE	W96
// 003   ----------------------------------------
	BYTE	W96
// 004   ----------------------------------------
	BYTE	W96
// 005   ----------------------------------------
	BYTE	W96
// 006   ----------------------------------------
	BYTE	W96
// 007   ----------------------------------------
	BYTE	W96
// 008   ----------------------------------------
	BYTE	W96
// 009   ----------------------------------------
	BYTE	W96
// 010   ----------------------------------------
	BYTE	W96
// 011   ----------------------------------------
	BYTE	W96
// 012   ----------------------------------------
	BYTE	W96
// 013   ----------------------------------------
	BYTE	W96
// 014   ----------------------------------------
	BYTE	W96
// 015   ----------------------------------------
	BYTE	W96
// 016   ----------------------------------------
Endgame2Test_FINAL_4_016:
	BYTE		N42     An2   v076
	BYTE		N42     Cn3 
	BYTE		N42     Fn3 
	BYTE	W48
	BYTE		        Bn2 
	BYTE		N42     Dn3 
	BYTE		N42     Gn3 
	BYTE	W48
	BYTE	PEND
// 017   ----------------------------------------
	BYTE		        An2 
	BYTE		N42     Cn3 
	BYTE		N42     En3 
	BYTE	W48
	BYTE		        Bn2 
	BYTE		N42     Dn3 
	BYTE		N42     Gn3 
	BYTE	W48
// 018   ----------------------------------------
	BYTE	PATT
	 POIN2	Endgame2Test_FINAL_4_016
// 019   ----------------------------------------
	BYTE		N42     Gn2   v076
	BYTE		N42     Cn3 
	BYTE		N42     En3 
	BYTE	W48
	BYTE		        Bn2 
	BYTE		N42     Dn3 
	BYTE		N42     Fn3 
	BYTE	W48
// 020   ----------------------------------------
	BYTE		        Gn2 
	BYTE		N42     Cn3 
	BYTE		N42     En3 
	BYTE	W48
	BYTE		        An2 
	BYTE		N42     Cn3 
	BYTE		N42     Fn3 
	BYTE	W48
// 021   ----------------------------------------
	BYTE		        Gn2 
	BYTE		N42     Cn3 
	BYTE		N42     En3 
	BYTE	W48
	BYTE		        An2 
	BYTE		N42     Dn3 
	BYTE		N42     Fn3 
	BYTE	W48
// 022   ----------------------------------------
	BYTE		        Gn2 
	BYTE		N42     Cn3 
	BYTE		N42     En3 
	BYTE	W48
	BYTE		        Gn2 
	BYTE		N42     Bn2 
	BYTE		N42     Dn3 
	BYTE	W48
// 023   ----------------------------------------
	BYTE		N20     An2 
	BYTE		N20     Cn3 
	BYTE		N20     En3 
	BYTE	W24
	BYTE		        Gn2 
	BYTE		N20     Bn2 
	BYTE		N20     Dn3 
	BYTE	W24
	BYTE		N42     An2 
	BYTE		N42     Cn3 
	BYTE		N42     En3 
	BYTE	W48
// 024   ----------------------------------------
Endgame2Test_FINAL_4_024:
	BYTE		N05     Cn3   v076
	BYTE	W06
	BYTE		        Dn3 
	BYTE	W06
	BYTE		        En3 
	BYTE	W06
	BYTE		        Gn3 
	BYTE	W06
	BYTE		        Cn4 
	BYTE	W06
	BYTE		        Dn4 
	BYTE	W06
	BYTE		        En4 
	BYTE	W06
	BYTE		        Gn4 
	BYTE	W06
	BYTE		        Cn5 
	BYTE	W06
	BYTE		        Gn4 
	BYTE	W06
	BYTE		        En4 
	BYTE	W06
	BYTE		        Dn4 
	BYTE	W06
	BYTE		        Cn4 
	BYTE	W06
	BYTE		        Gn3 
	BYTE	W06
	BYTE		        En3 
	BYTE	W06
	BYTE		        Dn3 
	BYTE	W06
	BYTE	PEND
// 025   ----------------------------------------
Endgame2Test_FINAL_4_025:
	BYTE		N05     An2   v076
	BYTE	W06
	BYTE		        Dn3 
	BYTE	W06
	BYTE		        En3 
	BYTE	W06
	BYTE		        Fn3 
	BYTE	W06
	BYTE		        An3 
	BYTE	W06
	BYTE		        Dn4 
	BYTE	W06
	BYTE		        En4 
	BYTE	W06
	BYTE		        Fn4 
	BYTE	W06
	BYTE		        An4 
	BYTE	W06
	BYTE		        Fn4 
	BYTE	W06
	BYTE		        Dn4 
	BYTE	W06
	BYTE		        Cn4 
	BYTE	W06
	BYTE		        An3 
	BYTE	W06
	BYTE		        Fn3 
	BYTE	W06
	BYTE		        Dn3 
	BYTE	W06
	BYTE		        Cn3 
	BYTE	W06
	BYTE	PEND
// 026   ----------------------------------------
Endgame2Test_FINAL_4_026:
	BYTE		N05     An2   v076
	BYTE	W06
	BYTE		        Bn2 
	BYTE	W06
	BYTE		        Cn3 
	BYTE	W06
	BYTE		        En3 
	BYTE	W06
	BYTE		        An3 
	BYTE	W06
	BYTE		        Bn3 
	BYTE	W06
	BYTE		        Cn4 
	BYTE	W06
	BYTE		        En4 
	BYTE	W06
	BYTE		        An4 
	BYTE	W06
	BYTE		        En4 
	BYTE	W06
	BYTE		        Dn4 
	BYTE	W06
	BYTE		        Cn4 
	BYTE	W06
	BYTE		        An3 
	BYTE	W06
	BYTE		        En3 
	BYTE	W06
	BYTE		        Dn3 
	BYTE	W06
	BYTE		        Cn3 
	BYTE	W06
	BYTE	PEND
// 027   ----------------------------------------
Endgame2Test_FINAL_4_027:
	BYTE		N05     Dn3   v076
	BYTE	W06
	BYTE		        Gn3 
	BYTE	W06
	BYTE		        An3 
	BYTE	W06
	BYTE		        Bn3 
	BYTE	W06
	BYTE		        Dn4 
	BYTE	W06
	BYTE		        Gn4 
	BYTE	W06
	BYTE		        An4 
	BYTE	W06
	BYTE		        Bn4 
	BYTE	W06
	BYTE		        Dn5 
	BYTE	W06
	BYTE		        Bn4 
	BYTE	W06
	BYTE		        An4 
	BYTE	W06
	BYTE		        Gn4 
	BYTE	W06
	BYTE		        Dn4 
	BYTE	W06
	BYTE		        Bn3 
	BYTE	W06
	BYTE		        An3 
	BYTE	W06
	BYTE		        Gn3 
	BYTE	W06
	BYTE	PEND
// 028   ----------------------------------------
Endgame2Test_FINAL_4_028:
	BYTE		N11     Cn3   v076
	BYTE		N11     Fn3 
	BYTE		N11     An3 
	BYTE	W12
	BYTE		N04     Cn3 
	BYTE		N04     Fn3 
	BYTE		N04     An3 
	BYTE	W24
	BYTE		N54     Cn3 
	BYTE		N54     Fn3 
	BYTE		N54     An3 
	BYTE	W60
	BYTE	PEND
// 029   ----------------------------------------
Endgame2Test_FINAL_4_029:
	BYTE		N11     Bn2   v076
	BYTE		N11     Dn3 
	BYTE		N11     Gn3 
	BYTE	W12
	BYTE		N04     Bn2 
	BYTE		N04     Dn3 
	BYTE		N04     Gn3 
	BYTE	W24
	BYTE		N54     Bn2 
	BYTE		N54     Dn3 
	BYTE		N54     Fn3 
	BYTE	W60
	BYTE	PEND
// 030   ----------------------------------------
Endgame2Test_FINAL_4_030:
	BYTE		N11     Gn2   v076
	BYTE		N11     Bn2 
	BYTE		N11     En3 
	BYTE	W12
	BYTE		N04     Gn2 
	BYTE		N04     Bn2 
	BYTE		N04     En3 
	BYTE	W24
	BYTE		N54     Gn2 
	BYTE		N54     Bn2 
	BYTE		N54     Dn3 
	BYTE	W60
	BYTE	PEND
// 031   ----------------------------------------
Endgame2Test_FINAL_4_031:
	BYTE		N11     Gs2   v076
	BYTE		N11     Bn2 
	BYTE		N11     En3 
	BYTE	W12
	BYTE		N04     Gs2 
	BYTE		N04     Bn2 
	BYTE		N04     En3 
	BYTE	W24
	BYTE		N54     Gs2 
	BYTE		N54     Bn2 
	BYTE		N54     En3 
	BYTE	W60
	BYTE	PEND
// 032   ----------------------------------------
	BYTE	PATT
	 POIN2	Endgame2Test_FINAL_4_024
// 033   ----------------------------------------
	BYTE	PATT
	 POIN2	Endgame2Test_FINAL_4_025
// 034   ----------------------------------------
	BYTE	PATT
	 POIN2	Endgame2Test_FINAL_4_026
// 035   ----------------------------------------
	BYTE	PATT
	 POIN2	Endgame2Test_FINAL_4_027
// 036   ----------------------------------------
	BYTE	PATT
	 POIN2	Endgame2Test_FINAL_4_028
// 037   ----------------------------------------
	BYTE	PATT
	 POIN2	Endgame2Test_FINAL_4_029
// 038   ----------------------------------------
	BYTE	PATT
	 POIN2	Endgame2Test_FINAL_4_030
// 039   ----------------------------------------
	BYTE	PATT
	 POIN2	Endgame2Test_FINAL_4_031
// 040   ----------------------------------------
	BYTE	W96
// 041   ----------------------------------------
	BYTE	W96
// 042   ----------------------------------------
	BYTE	W96
// 043   ----------------------------------------
	BYTE	W96
// 044   ----------------------------------------
	BYTE		N48     An2   v076
	BYTE		N48     Cn3 
	BYTE		N90     En3 
	BYTE	W48
	BYTE		N48     Gs2 
	BYTE		N48     Bn2 
	BYTE	W48
// 045   ----------------------------------------
	BYTE		N90     An2 
	BYTE		N90     Cn3 
	BYTE		N48     Fn3 
	BYTE	W48
	BYTE		        En3 
	BYTE	W48
// 046   ----------------------------------------
	BYTE		N90     Gn2 
	BYTE		N90     Bn2 
	BYTE		N48     Dn3 
	BYTE	W48
	BYTE		        Fn3 
	BYTE	W48
// 047   ----------------------------------------
	BYTE		        Gn2 
	BYTE		N48     Cn3 
	BYTE		N90     En3 
	BYTE	W48
	BYTE		N42     Gn2 
	BYTE		N42     Bn2 
	BYTE	W44
	BYTE	GoTo
	 POIN2	Endgame2Test_FINAL_4_B1
Endgame2Test_FINAL_4_B2:
	BYTE	FINE

//**************** Track 5 (Midi-Chn.5) ****************//

Endgame2Test_FINAL_5:
	BYTE	KEYSH   Endgame2Test_FINAL_key+0
Endgame2Test_FINAL_5_B1:
// 000   ----------------------------------------
	BYTE		VOICE   127
	BYTE		MODT    0
	BYTE		LFOS    44
	BYTE		VOL     127*Endgame2Test_FINAL_mvl/mxv
	BYTE		PAN     c_v+0
	BYTE		N11     Cn1   v100
	BYTE	W12
	BYTE		N11   
	BYTE	W48
	BYTE		N05     Fs2 
	BYTE	W06
	BYTE		N05   
	BYTE	W06
	BYTE		N20   
	BYTE	W24
// 001   ----------------------------------------
Endgame2Test_FINAL_5_001:
	BYTE		N11     Cn1   v100
	BYTE	W12
	BYTE		N11   
	BYTE	W48
	BYTE		N05     Fs2 
	BYTE	W06
	BYTE		N05   
	BYTE	W06
	BYTE		N20   
	BYTE	W24
	BYTE	PEND
// 002   ----------------------------------------
	BYTE	PATT
	 POIN2	Endgame2Test_FINAL_5_001
// 003   ----------------------------------------
	BYTE	PATT
	 POIN2	Endgame2Test_FINAL_5_001
// 004   ----------------------------------------
	BYTE	PATT
	 POIN2	Endgame2Test_FINAL_5_001
// 005   ----------------------------------------
	BYTE	PATT
	 POIN2	Endgame2Test_FINAL_5_001
// 006   ----------------------------------------
	BYTE	PATT
	 POIN2	Endgame2Test_FINAL_5_001
// 007   ----------------------------------------
	BYTE	PATT
	 POIN2	Endgame2Test_FINAL_5_001
// 008   ----------------------------------------
	BYTE		VOL     127*Endgame2Test_FINAL_mvl/mxv
	BYTE		PAN     c_v+0
	BYTE		N11     Cn1   v100
	BYTE	W12
	BYTE		N11   
	BYTE	W48
	BYTE		N05     Fs2 
	BYTE	W06
	BYTE		N05   
	BYTE	W06
	BYTE		N20   
	BYTE	W24
// 009   ----------------------------------------
	BYTE	PATT
	 POIN2	Endgame2Test_FINAL_5_001
// 010   ----------------------------------------
	BYTE	PATT
	 POIN2	Endgame2Test_FINAL_5_001
// 011   ----------------------------------------
	BYTE	PATT
	 POIN2	Endgame2Test_FINAL_5_001
// 012   ----------------------------------------
	BYTE	PATT
	 POIN2	Endgame2Test_FINAL_5_001
// 013   ----------------------------------------
	BYTE	PATT
	 POIN2	Endgame2Test_FINAL_5_001
// 014   ----------------------------------------
	BYTE	PATT
	 POIN2	Endgame2Test_FINAL_5_001
// 015   ----------------------------------------
	BYTE	PATT
	 POIN2	Endgame2Test_FINAL_5_001
// 016   ----------------------------------------
	BYTE	W96
// 017   ----------------------------------------
	BYTE	W96
// 018   ----------------------------------------
	BYTE	W96
// 019   ----------------------------------------
	BYTE	W96
// 020   ----------------------------------------
	BYTE	W96
// 021   ----------------------------------------
	BYTE	W96
// 022   ----------------------------------------
	BYTE	W96
// 023   ----------------------------------------
	BYTE	W96
// 024   ----------------------------------------
Endgame2Test_FINAL_5_024:
	BYTE		N05     Cn1   v100
	BYTE		N05     Fs2 
	BYTE	W06
	BYTE		N05   
	BYTE	W06
	BYTE		N05   
	BYTE	W06
	BYTE		N05   
	BYTE	W06
	BYTE		        Cs1 
	BYTE		N05     Fs2 
	BYTE	W06
	BYTE		N05   
	BYTE	W06
	BYTE		        Cn1 
	BYTE		N05     Fs2 
	BYTE	W06
	BYTE		N05   
	BYTE	W06
	BYTE		        Cn1 
	BYTE		N05     Fs2 
	BYTE	W06
	BYTE		N05   
	BYTE	W06
	BYTE		N05   
	BYTE	W06
	BYTE		N05   
	BYTE	W06
	BYTE		        Cs1 
	BYTE		N05     Fs2 
	BYTE	W06
	BYTE		N05   
	BYTE	W06
	BYTE		        Cn1 
	BYTE		N05     Fs2 
	BYTE	W06
	BYTE		N05   
	BYTE	W06
	BYTE	PEND
// 025   ----------------------------------------
	BYTE	PATT
	 POIN2	Endgame2Test_FINAL_5_024
// 026   ----------------------------------------
	BYTE	PATT
	 POIN2	Endgame2Test_FINAL_5_024
// 027   ----------------------------------------
	BYTE	PATT
	 POIN2	Endgame2Test_FINAL_5_024
// 028   ----------------------------------------
	BYTE	PATT
	 POIN2	Endgame2Test_FINAL_5_024
// 029   ----------------------------------------
	BYTE	PATT
	 POIN2	Endgame2Test_FINAL_5_024
// 030   ----------------------------------------
	BYTE	PATT
	 POIN2	Endgame2Test_FINAL_5_024
// 031   ----------------------------------------
	BYTE	PATT
	 POIN2	Endgame2Test_FINAL_5_024
// 032   ----------------------------------------
	BYTE	PATT
	 POIN2	Endgame2Test_FINAL_5_024
// 033   ----------------------------------------
	BYTE	PATT
	 POIN2	Endgame2Test_FINAL_5_024
// 034   ----------------------------------------
	BYTE	PATT
	 POIN2	Endgame2Test_FINAL_5_024
// 035   ----------------------------------------
	BYTE	PATT
	 POIN2	Endgame2Test_FINAL_5_024
// 036   ----------------------------------------
	BYTE	PATT
	 POIN2	Endgame2Test_FINAL_5_024
// 037   ----------------------------------------
	BYTE	PATT
	 POIN2	Endgame2Test_FINAL_5_024
// 038   ----------------------------------------
	BYTE	PATT
	 POIN2	Endgame2Test_FINAL_5_024
// 039   ----------------------------------------
	BYTE	PATT
	 POIN2	Endgame2Test_FINAL_5_024
// 040   ----------------------------------------
	BYTE	PATT
	 POIN2	Endgame2Test_FINAL_5_001
// 041   ----------------------------------------
	BYTE	PATT
	 POIN2	Endgame2Test_FINAL_5_001
// 042   ----------------------------------------
	BYTE	PATT
	 POIN2	Endgame2Test_FINAL_5_001
// 043   ----------------------------------------
	BYTE	PATT
	 POIN2	Endgame2Test_FINAL_5_001
// 044   ----------------------------------------
	BYTE	PATT
	 POIN2	Endgame2Test_FINAL_5_001
// 045   ----------------------------------------
	BYTE	PATT
	 POIN2	Endgame2Test_FINAL_5_001
// 046   ----------------------------------------
	BYTE	PATT
	 POIN2	Endgame2Test_FINAL_5_001
// 047   ----------------------------------------
	BYTE		N11     Cn1   v100
	BYTE	W12
	BYTE		N11   
	BYTE	W48
	BYTE		N05     Fs2 
	BYTE	W06
	BYTE		N05   
	BYTE	W06
	BYTE		N20   
	BYTE	W20
	BYTE	GoTo
	 POIN2	Endgame2Test_FINAL_5_B1
Endgame2Test_FINAL_5_B2:
	BYTE	FINE

//**************** Track 6 (Midi-Chn.6) ****************//

Endgame2Test_FINAL_6:
	BYTE	KEYSH   Endgame2Test_FINAL_key+0
Endgame2Test_FINAL_6_B1:
// 000   ----------------------------------------
	BYTE		VOICE   52
	BYTE		MODT    0
	BYTE		LFOS    44
	BYTE		VOL     114*Endgame2Test_FINAL_mvl/mxv
	BYTE		PAN     c_v-19
	BYTE	W96
// 001   ----------------------------------------
	BYTE	W96
// 002   ----------------------------------------
	BYTE	W96
// 003   ----------------------------------------
	BYTE	W96
// 004   ----------------------------------------
	BYTE	W96
// 005   ----------------------------------------
	BYTE	W96
// 006   ----------------------------------------
	BYTE	W96
// 007   ----------------------------------------
	BYTE	W96
// 008   ----------------------------------------
	BYTE	W96
// 009   ----------------------------------------
	BYTE	W96
// 010   ----------------------------------------
	BYTE	W96
// 011   ----------------------------------------
	BYTE	W96
// 012   ----------------------------------------
	BYTE	W96
// 013   ----------------------------------------
	BYTE	W96
// 014   ----------------------------------------
	BYTE	W96
// 015   ----------------------------------------
	BYTE	W96
// 016   ----------------------------------------
	BYTE		N15     Fn3   v127
	BYTE	W16
	BYTE		        Dn3 
	BYTE	W16
	BYTE		        Fn3 
	BYTE	W16
	BYTE		        An3 
	BYTE	W16
	BYTE		        Gn3 
	BYTE	W16
	BYTE		        Fn3 
	BYTE	W16
// 017   ----------------------------------------
	BYTE		        En3 
	BYTE	W16
	BYTE		        Dn3 
	BYTE	W16
	BYTE		        En3 
	BYTE	W16
	BYTE		N20     Cn3 
	BYTE	W24
	BYTE		        Gn2 
	BYTE	W24
// 018   ----------------------------------------
	BYTE		N15     Bn2 
	BYTE	W16
	BYTE		        An2 
	BYTE	W16
	BYTE		        Bn2 
	BYTE	W16
	BYTE		N42     Dn3 
	BYTE	W48
// 019   ----------------------------------------
	BYTE		N15     En3 
	BYTE	W16
	BYTE		        Dn3 
	BYTE	W16
	BYTE		        Cn3 
	BYTE	W16
	BYTE		N42     Gn3 
	BYTE	W48
// 020   ----------------------------------------
	BYTE		N15     An3 
	BYTE	W16
	BYTE		        Gn3 
	BYTE	W16
	BYTE		        An3 
	BYTE	W16
	BYTE		        Dn4 
	BYTE	W16
	BYTE		        En4 
	BYTE	W16
	BYTE		        Dn4 
	BYTE	W16
// 021   ----------------------------------------
	BYTE		        Cn4 
	BYTE	W16
	BYTE		        Bn3 
	BYTE	W16
	BYTE		        An3 
	BYTE	W16
	BYTE		        Gn3 
	BYTE	W16
	BYTE		        Fn3 
	BYTE	W16
	BYTE		        En3 
	BYTE	W16
// 022   ----------------------------------------
	BYTE		        Fn3 
	BYTE	W16
	BYTE		        Gn3 
	BYTE	W16
	BYTE		        Bn3 
	BYTE	W16
	BYTE		        Dn4 
	BYTE	W16
	BYTE		        Cn4 
	BYTE	W16
	BYTE		        Bn3 
	BYTE	W16
// 023   ----------------------------------------
	BYTE		N42     An3 
	BYTE	W48
	BYTE		        Gn3 
	BYTE	W48
// 024   ----------------------------------------
	BYTE	W96
// 025   ----------------------------------------
	BYTE	W96
// 026   ----------------------------------------
	BYTE	W96
// 027   ----------------------------------------
	BYTE	W96
// 028   ----------------------------------------
	BYTE		N48     En3 
	BYTE	W48
	BYTE		N24     Gs3 
	BYTE	W24
	BYTE		        En3 
	BYTE	W24
// 029   ----------------------------------------
	BYTE		N48     Ds3 
	BYTE	W48
	BYTE		N24     An3 
	BYTE	W24
	BYTE		        Gs3 
	BYTE	W24
// 030   ----------------------------------------
	BYTE		N48     Fs3 
	BYTE	W48
	BYTE		N24     Cs3 
	BYTE	W24
	BYTE		        Fs3 
	BYTE	W24
// 031   ----------------------------------------
	BYTE		N36     Gs3 
	BYTE	W36
	BYTE		N12     Fs3 
	BYTE	W12
	BYTE		N48   
	BYTE	W48
// 032   ----------------------------------------
	BYTE	W96
// 033   ----------------------------------------
	BYTE	W96
// 034   ----------------------------------------
	BYTE	W96
// 035   ----------------------------------------
	BYTE	W96
// 036   ----------------------------------------
	BYTE	W96
// 037   ----------------------------------------
	BYTE	W96
// 038   ----------------------------------------
	BYTE	W96
// 039   ----------------------------------------
	BYTE	W96
// 040   ----------------------------------------
	BYTE	W96
// 041   ----------------------------------------
	BYTE	W96
// 042   ----------------------------------------
	BYTE	W96
// 043   ----------------------------------------
	BYTE	W96
// 044   ----------------------------------------
	BYTE	W96
// 045   ----------------------------------------
	BYTE	W96
// 046   ----------------------------------------
	BYTE	W96
// 047   ----------------------------------------
	BYTE	W92
	BYTE	GoTo
	 POIN2	Endgame2Test_FINAL_6_B1
Endgame2Test_FINAL_6_B2:
	BYTE	FINE

//**************** Track 7 (Midi-Chn.7) ****************//

Endgame2Test_FINAL_7:
	BYTE	KEYSH   Endgame2Test_FINAL_key+0
Endgame2Test_FINAL_7_B1:
// 000   ----------------------------------------
	BYTE		VOICE   73
	BYTE		MODT    0
	BYTE		LFOS    44
	BYTE		PAN     c_v+21
	BYTE		VOL     127*Endgame2Test_FINAL_mvl/mxv
	BYTE	W96
// 001   ----------------------------------------
	BYTE	W96
// 002   ----------------------------------------
	BYTE	W96
// 003   ----------------------------------------
	BYTE	W96
// 004   ----------------------------------------
	BYTE	W96
// 005   ----------------------------------------
	BYTE	W96
// 006   ----------------------------------------
	BYTE	W96
// 007   ----------------------------------------
	BYTE	W96
// 008   ----------------------------------------
	BYTE		N42     An4   v127
	BYTE	W48
	BYTE		N11     En5 
	BYTE	W12
	BYTE		        Dn5 
	BYTE	W12
	BYTE		        Cn5 
	BYTE	W12
	BYTE		N54     Dn5 
	BYTE	W12
// 009   ----------------------------------------
	BYTE	W48
	BYTE		N11     Bn4 
	BYTE	W12
	BYTE		        Cn5 
	BYTE	W12
	BYTE		        Dn5 
	BYTE	W12
	BYTE		        Gn5 
	BYTE	W12
// 010   ----------------------------------------
	BYTE		N42     En5 
	BYTE	W48
	BYTE		N11     Cn5 
	BYTE	W12
	BYTE		        Bn4 
	BYTE	W12
	BYTE		        Cn5 
	BYTE	W12
	BYTE		N54     Dn5 
	BYTE	W12
// 011   ----------------------------------------
	BYTE	W48
	BYTE		N42     En5 
	BYTE	W48
// 012   ----------------------------------------
	BYTE		        Cn5 
	BYTE	W48
	BYTE		N11   
	BYTE	W12
	BYTE		        Bn4 
	BYTE	W12
	BYTE		        An4 
	BYTE	W12
	BYTE		N54     Bn4 
	BYTE	W12
// 013   ----------------------------------------
	BYTE	W48
	BYTE		N42     Cn5 
	BYTE	W48
// 014   ----------------------------------------
	BYTE		        An4 
	BYTE	W48
	BYTE		TIE     En4 
	BYTE	W48
// 015   ----------------------------------------
	BYTE	W90
	BYTE		EOT   
	BYTE	W06
// 016   ----------------------------------------
	BYTE	W96
// 017   ----------------------------------------
	BYTE	W96
// 018   ----------------------------------------
	BYTE	W96
// 019   ----------------------------------------
	BYTE	W96
// 020   ----------------------------------------
	BYTE	W96
// 021   ----------------------------------------
	BYTE	W96
// 022   ----------------------------------------
	BYTE	W96
// 023   ----------------------------------------
	BYTE	W96
// 024   ----------------------------------------
	BYTE	W96
// 025   ----------------------------------------
	BYTE	W96
// 026   ----------------------------------------
	BYTE	W96
// 027   ----------------------------------------
	BYTE	W96
// 028   ----------------------------------------
	BYTE	W96
// 029   ----------------------------------------
	BYTE	W96
// 030   ----------------------------------------
	BYTE	W96
// 031   ----------------------------------------
	BYTE	W96
// 032   ----------------------------------------
	BYTE	W96
// 033   ----------------------------------------
	BYTE	W96
// 034   ----------------------------------------
	BYTE	W96
// 035   ----------------------------------------
	BYTE	W96
// 036   ----------------------------------------
	BYTE	W96
// 037   ----------------------------------------
	BYTE	W96
// 038   ----------------------------------------
	BYTE	W96
// 039   ----------------------------------------
	BYTE	W96
// 040   ----------------------------------------
	BYTE	W96
// 041   ----------------------------------------
	BYTE	W96
// 042   ----------------------------------------
	BYTE	W96
// 043   ----------------------------------------
	BYTE	W96
// 044   ----------------------------------------
	BYTE	W96
// 045   ----------------------------------------
	BYTE	W96
// 046   ----------------------------------------
	BYTE	W96
// 047   ----------------------------------------
	BYTE	W92
	BYTE	GoTo
	 POIN2	Endgame2Test_FINAL_7_B1
Endgame2Test_FINAL_7_B2:
	BYTE	FINE

//**************** Track 8 (Midi-Chn.9) ****************//

Endgame2Test_FINAL_8:
	BYTE	KEYSH   Endgame2Test_FINAL_key+0
Endgame2Test_FINAL_8_B1:
// 000   ----------------------------------------
	BYTE		VOICE   49
	BYTE		MODT    0
	BYTE		LFOS    44
	BYTE		PAN     c_v+0
	BYTE		VOL     127*Endgame2Test_FINAL_mvl/mxv
	BYTE		PAN     c_v+0
	BYTE	W96
// 001   ----------------------------------------
	BYTE	W96
// 002   ----------------------------------------
	BYTE	W96
// 003   ----------------------------------------
	BYTE	W96
// 004   ----------------------------------------
	BYTE	W96
// 005   ----------------------------------------
	BYTE	W96
// 006   ----------------------------------------
	BYTE	W96
// 007   ----------------------------------------
	BYTE	W96
// 008   ----------------------------------------
	BYTE		        c_v+0
	BYTE		VOL     127*Endgame2Test_FINAL_mvl/mxv
	BYTE	W96
// 009   ----------------------------------------
	BYTE	W96
// 010   ----------------------------------------
	BYTE	W96
// 011   ----------------------------------------
	BYTE	W96
// 012   ----------------------------------------
	BYTE	W96
// 013   ----------------------------------------
	BYTE	W96
// 014   ----------------------------------------
	BYTE	W96
// 015   ----------------------------------------
	BYTE	W72
	BYTE		N11     Cn4   v127
	BYTE	W12
	BYTE		        Bn3 
	BYTE	W12
// 016   ----------------------------------------
	BYTE		N20     An3 
	BYTE	W24
	BYTE		        Cn4 
	BYTE	W24
	BYTE		N11     Bn3 
	BYTE	W12
	BYTE		        An3 
	BYTE	W12
	BYTE		        Gn3 
	BYTE	W12
	BYTE		        Bn3 
	BYTE	W12
// 017   ----------------------------------------
	BYTE		N20     An3 
	BYTE	W24
	BYTE		        En3 
	BYTE	W24
	BYTE		N11     Gn3 
	BYTE	W12
	BYTE		        Fn3 
	BYTE	W12
	BYTE		        En3 
	BYTE	W12
	BYTE		        Gn3 
	BYTE	W12
// 018   ----------------------------------------
	BYTE		N20     An3 
	BYTE	W24
	BYTE		        Fn4 
	BYTE	W24
	BYTE		N11     Gn4 
	BYTE	W12
	BYTE		        Fn4 
	BYTE	W12
	BYTE		        En4 
	BYTE	W12
	BYTE		        Dn4 
	BYTE	W12
// 019   ----------------------------------------
	BYTE		N42     Cn4 
	BYTE	W48
	BYTE		        Bn3 
	BYTE	W48
// 020   ----------------------------------------
	BYTE		N20     Gn4 
	BYTE	W24
	BYTE		        En4 
	BYTE	W24
	BYTE		N11     Dn4 
	BYTE	W12
	BYTE		        En4 
	BYTE	W12
	BYTE		        Fn4 
	BYTE	W12
	BYTE		        Dn4 
	BYTE	W12
// 021   ----------------------------------------
	BYTE		N20     Cn4 
	BYTE	W24
	BYTE		        Gn3 
	BYTE	W24
	BYTE		N11     Fn3 
	BYTE	W12
	BYTE		        Gn3 
	BYTE	W12
	BYTE		        An3 
	BYTE	W12
	BYTE		        Fn3 
	BYTE	W12
// 022   ----------------------------------------
	BYTE		        Gn3 
	BYTE	W12
	BYTE		        Fn3 
	BYTE	W12
	BYTE		N20     En3 
	BYTE	W24
	BYTE		        Dn3 
	BYTE	W24
	BYTE		N11     Cn3 
	BYTE	W12
	BYTE		        Bn2 
	BYTE	W12
// 023   ----------------------------------------
	BYTE		N20     Cn3 
	BYTE	W24
	BYTE		        Bn2 
	BYTE	W24
	BYTE		N42     An2 
	BYTE	W48
// 024   ----------------------------------------
	BYTE		N32     En3 
	BYTE	W36
	BYTE		N11     Fn3 
	BYTE	W12
	BYTE		        Gn3 
	BYTE	W12
	BYTE		        Fn3 
	BYTE	W12
	BYTE		        En3 
	BYTE	W12
	BYTE		        Gn3 
	BYTE	W12
// 025   ----------------------------------------
	BYTE		        Fn3 
	BYTE	W12
	BYTE		        En3 
	BYTE	W12
	BYTE		        Dn3 
	BYTE	W12
	BYTE		        Cn3 
	BYTE	W12
	BYTE		N42     Dn3 
	BYTE	W48
// 026   ----------------------------------------
	BYTE		N32     En3 
	BYTE	W36
	BYTE		N11     An3 
	BYTE	W12
	BYTE		        Cn4 
	BYTE	W12
	BYTE		        Bn3 
	BYTE	W12
	BYTE		        An3 
	BYTE	W12
	BYTE		        Cn4 
	BYTE	W12
// 027   ----------------------------------------
	BYTE		        Bn3 
	BYTE	W12
	BYTE		        Cn4 
	BYTE	W12
	BYTE		        Dn4 
	BYTE	W12
	BYTE		        Cn4 
	BYTE	W12
	BYTE		        Bn3 
	BYTE	W12
	BYTE		        An3 
	BYTE	W12
	BYTE		N20     Gn3 
	BYTE	W24
// 028   ----------------------------------------
	BYTE		N32     An3 
	BYTE	W36
	BYTE		N11     Bn3 
	BYTE	W12
	BYTE		        Cn4 
	BYTE	W12
	BYTE		        Bn3 
	BYTE	W12
	BYTE		        An3 
	BYTE	W12
	BYTE		        Cn4 
	BYTE	W12
// 029   ----------------------------------------
	BYTE		N32     Bn3 
	BYTE	W36
	BYTE		N11     Gn3 
	BYTE	W12
	BYTE		        Fn3 
	BYTE	W12
	BYTE		        En3 
	BYTE	W12
	BYTE		        Dn3 
	BYTE	W12
	BYTE		        Fn3 
	BYTE	W12
// 030   ----------------------------------------
	BYTE		N20     En3 
	BYTE	W24
	BYTE		        Gn3 
	BYTE	W24
	BYTE		        Dn3 
	BYTE	W24
	BYTE		N11     En3 
	BYTE	W12
	BYTE		        Fn3 
	BYTE	W12
// 031   ----------------------------------------
	BYTE		        En3 
	BYTE	W12
	BYTE		        Dn3 
	BYTE	W12
	BYTE		        Cn3 
	BYTE	W12
	BYTE		        Dn3 
	BYTE	W12
	BYTE		N42     En3 
	BYTE	W48
// 032   ----------------------------------------
	BYTE		PAN     c_v+17
	BYTE		VOL     127*Endgame2Test_FINAL_mvl/mxv
	BYTE		N20   
	BYTE	W24
	BYTE		N66     Bn2 
	BYTE	W72
// 033   ----------------------------------------
	BYTE		N11     Gn2 
	BYTE	W12
	BYTE		        An2 
	BYTE	W12
	BYTE		        Bn2 
	BYTE	W12
	BYTE		N05     Cn3 
	BYTE	W06
	BYTE		N17     Bn2 
	BYTE	W18
	BYTE		N11     An2 
	BYTE	W12
	BYTE		N20     Gn2 
	BYTE	W24
// 034   ----------------------------------------
	BYTE		        En3 
	BYTE	W24
	BYTE		N66     Bn2 
	BYTE	W72
// 035   ----------------------------------------
Endgame2Test_FINAL_8_035:
	BYTE		N11     Gn3   v127
	BYTE	W12
	BYTE		        Fn3 
	BYTE	W12
	BYTE		        En3 
	BYTE	W12
	BYTE		        Fn3 
	BYTE	W12
	BYTE		N42     Gn3 
	BYTE	W48
	BYTE	PEND
// 036   ----------------------------------------
Endgame2Test_FINAL_8_036:
	BYTE		N20     An3   v127
	BYTE	W24
	BYTE		        En3 
	BYTE	W24
	BYTE		        Gs3 
	BYTE	W24
	BYTE		        En3 
	BYTE	W24
	BYTE	PEND
// 037   ----------------------------------------
Endgame2Test_FINAL_8_037:
	BYTE		N20     Fn3   v127
	BYTE	W24
	BYTE		        An3 
	BYTE	W24
	BYTE		N11     Gn3 
	BYTE	W12
	BYTE		        Fn3 
	BYTE	W12
	BYTE		N20     En3 
	BYTE	W24
	BYTE	PEND
// 038   ----------------------------------------
Endgame2Test_FINAL_8_038:
	BYTE		N20     Dn3   v127
	BYTE	W24
	BYTE		        Fn3 
	BYTE	W24
	BYTE		N11     An3 
	BYTE	W12
	BYTE		        Gn3 
	BYTE	W12
	BYTE		        Fn3 
	BYTE	W12
	BYTE		        An3 
	BYTE	W12
	BYTE	PEND
// 039   ----------------------------------------
	BYTE		        Gn3 
	BYTE	W12
	BYTE		        Fn3 
	BYTE	W12
	BYTE		        En3 
	BYTE	W12
	BYTE		        Fn3 
	BYTE	W12
	BYTE		N48     Gn3 
	BYTE	W48
// 040   ----------------------------------------
	BYTE	PATT
	 POIN2	Endgame2Test_FINAL_8_036
// 041   ----------------------------------------
	BYTE	PATT
	 POIN2	Endgame2Test_FINAL_8_037
// 042   ----------------------------------------
	BYTE	PATT
	 POIN2	Endgame2Test_FINAL_8_038
// 043   ----------------------------------------
	BYTE	PATT
	 POIN2	Endgame2Test_FINAL_8_035
// 044   ----------------------------------------
	BYTE	PATT
	 POIN2	Endgame2Test_FINAL_8_036
// 045   ----------------------------------------
	BYTE	PATT
	 POIN2	Endgame2Test_FINAL_8_037
// 046   ----------------------------------------
	BYTE	PATT
	 POIN2	Endgame2Test_FINAL_8_038
// 047   ----------------------------------------
	BYTE		N11     Gn3   v127
	BYTE	W12
	BYTE		        Fn3 
	BYTE	W12
	BYTE		        En3 
	BYTE	W12
	BYTE		        Fn3 
	BYTE	W12
	BYTE		N42     Gn3 
	BYTE	W44
	BYTE	GoTo
	 POIN2	Endgame2Test_FINAL_8_B1
Endgame2Test_FINAL_8_B2:
	BYTE	FINE

//**************** Track 9 (Midi-Chn.12) ****************//

Endgame2Test_FINAL_9:
	BYTE	KEYSH   Endgame2Test_FINAL_key+0
Endgame2Test_FINAL_9_B1:
// 000   ----------------------------------------
	BYTE		VOICE   10
	BYTE		MODT    0
	BYTE		LFOS    44
	BYTE		PAN     c_v-64
	BYTE		VOL     127*Endgame2Test_FINAL_mvl/mxv
	BYTE	W96
// 001   ----------------------------------------
	BYTE	W96
// 002   ----------------------------------------
	BYTE	W96
// 003   ----------------------------------------
	BYTE	W96
// 004   ----------------------------------------
	BYTE	W96
// 005   ----------------------------------------
	BYTE	W96
// 006   ----------------------------------------
	BYTE	W96
// 007   ----------------------------------------
	BYTE	W96
// 008   ----------------------------------------
	BYTE	W96
// 009   ----------------------------------------
	BYTE	W96
// 010   ----------------------------------------
	BYTE	W96
// 011   ----------------------------------------
	BYTE	W96
// 012   ----------------------------------------
	BYTE	W96
// 013   ----------------------------------------
	BYTE	W96
// 014   ----------------------------------------
	BYTE	W96
// 015   ----------------------------------------
	BYTE	W96
// 016   ----------------------------------------
	BYTE	W96
// 017   ----------------------------------------
	BYTE	W96
// 018   ----------------------------------------
	BYTE	W96
// 019   ----------------------------------------
	BYTE	W96
// 020   ----------------------------------------
	BYTE	W96
// 021   ----------------------------------------
	BYTE	W96
// 022   ----------------------------------------
	BYTE	W96
// 023   ----------------------------------------
	BYTE	W96
// 024   ----------------------------------------
	BYTE	W96
// 025   ----------------------------------------
	BYTE	W96
// 026   ----------------------------------------
	BYTE	W96
// 027   ----------------------------------------
	BYTE	W96
// 028   ----------------------------------------
	BYTE	W96
// 029   ----------------------------------------
	BYTE	W96
// 030   ----------------------------------------
	BYTE	W96
// 031   ----------------------------------------
	BYTE	W96
// 032   ----------------------------------------
	BYTE	W96
// 033   ----------------------------------------
	BYTE	W96
// 034   ----------------------------------------
	BYTE	W96
// 035   ----------------------------------------
	BYTE	W96
// 036   ----------------------------------------
	BYTE		N32     En4   v127
	BYTE	W36
	BYTE		N11     Gs4 
	BYTE	W12
	BYTE		N20     Ds4 
	BYTE	W24
	BYTE		N11     En4 
	BYTE	W12
	BYTE		        Fs4 
	BYTE	W12
// 037   ----------------------------------------
	BYTE		N32     En4 
	BYTE	W36
	BYTE		N11     Cs4 
	BYTE	W12
	BYTE		        An3 
	BYTE	W12
	BYTE		        Bn3 
	BYTE	W12
	BYTE		        Cs4 
	BYTE	W12
	BYTE		        En4 
	BYTE	W12
// 038   ----------------------------------------
	BYTE		N32     Ds4 
	BYTE	W36
	BYTE		N11     Cs4 
	BYTE	W12
	BYTE		N20     Bn3 
	BYTE	W24
	BYTE		        As3 
	BYTE	W24
// 039   ----------------------------------------
	BYTE		N11     Gs3 
	BYTE	W12
	BYTE		        Fs3 
	BYTE	W12
	BYTE		        Gs3 
	BYTE	W12
	BYTE		        Bn3 
	BYTE	W12
	BYTE		        An3 
	BYTE	W12
	BYTE		        Bn3 
	BYTE	W12
	BYTE		        Cs4 
	BYTE	W12
	BYTE		        Ds4 
	BYTE	W12
// 040   ----------------------------------------
	BYTE	W96
// 041   ----------------------------------------
	BYTE	W96
// 042   ----------------------------------------
	BYTE	W96
// 043   ----------------------------------------
	BYTE	W96
// 044   ----------------------------------------
	BYTE	W96
// 045   ----------------------------------------
	BYTE	W96
// 046   ----------------------------------------
	BYTE	W96
// 047   ----------------------------------------
	BYTE	W92
	BYTE	GoTo
	 POIN2	Endgame2Test_FINAL_9_B1
Endgame2Test_FINAL_9_B2:
	BYTE	FINE

//**************** Track 10 (Midi-Chn.13) ****************//

Endgame2Test_FINAL_10:
	BYTE	KEYSH   Endgame2Test_FINAL_key+0
Endgame2Test_FINAL_10_B1:
// 000   ----------------------------------------
	BYTE		VOICE   73
	BYTE		MODT    0
	BYTE		LFOS    44
	BYTE		PAN     c_v-23
	BYTE		VOL     127*Endgame2Test_FINAL_mvl/mxv
	BYTE	W96
// 001   ----------------------------------------
	BYTE	W96
// 002   ----------------------------------------
	BYTE	W96
// 003   ----------------------------------------
	BYTE	W96
// 004   ----------------------------------------
	BYTE	W96
// 005   ----------------------------------------
	BYTE	W96
// 006   ----------------------------------------
	BYTE	W96
// 007   ----------------------------------------
	BYTE	W96
// 008   ----------------------------------------
	BYTE	W96
// 009   ----------------------------------------
	BYTE	W96
// 010   ----------------------------------------
	BYTE	W96
// 011   ----------------------------------------
	BYTE	W96
// 012   ----------------------------------------
	BYTE	W96
// 013   ----------------------------------------
	BYTE	W96
// 014   ----------------------------------------
	BYTE	W96
// 015   ----------------------------------------
	BYTE	W96
// 016   ----------------------------------------
	BYTE	W96
// 017   ----------------------------------------
	BYTE	W96
// 018   ----------------------------------------
	BYTE	W96
// 019   ----------------------------------------
	BYTE	W96
// 020   ----------------------------------------
	BYTE	W96
// 021   ----------------------------------------
	BYTE	W96
// 022   ----------------------------------------
	BYTE	W96
// 023   ----------------------------------------
	BYTE	W96
// 024   ----------------------------------------
	BYTE	W96
// 025   ----------------------------------------
	BYTE	W96
// 026   ----------------------------------------
	BYTE	W96
// 027   ----------------------------------------
	BYTE	W96
// 028   ----------------------------------------
	BYTE	W96
// 029   ----------------------------------------
	BYTE	W96
// 030   ----------------------------------------
	BYTE	W96
// 031   ----------------------------------------
	BYTE	W96
// 032   ----------------------------------------
	BYTE	W96
// 033   ----------------------------------------
	BYTE	W96
// 034   ----------------------------------------
	BYTE	W96
// 035   ----------------------------------------
	BYTE	W96
// 036   ----------------------------------------
	BYTE	W96
// 037   ----------------------------------------
	BYTE	W96
// 038   ----------------------------------------
	BYTE	W96
// 039   ----------------------------------------
	BYTE	W96
// 040   ----------------------------------------
Endgame2Test_FINAL_10_040:
	BYTE		N48     En5   v127
	BYTE	W48
	BYTE		N24     Gs5 
	BYTE	W24
	BYTE		        En5 
	BYTE	W24
	BYTE	PEND
// 041   ----------------------------------------
Endgame2Test_FINAL_10_041:
	BYTE		N48     Ds5   v127
	BYTE	W48
	BYTE		N24     An5 
	BYTE	W24
	BYTE		        Gs5 
	BYTE	W24
	BYTE	PEND
// 042   ----------------------------------------
Endgame2Test_FINAL_10_042:
	BYTE		N48     Fs5   v127
	BYTE	W48
	BYTE		N24     Cs5 
	BYTE	W24
	BYTE		        Fs5 
	BYTE	W24
	BYTE	PEND
// 043   ----------------------------------------
	BYTE		N36     Gs5 
	BYTE	W36
	BYTE		N12     Fs5 
	BYTE	W12
	BYTE		N48   
	BYTE	W48
// 044   ----------------------------------------
	BYTE	PATT
	 POIN2	Endgame2Test_FINAL_10_040
// 045   ----------------------------------------
	BYTE	PATT
	 POIN2	Endgame2Test_FINAL_10_041
// 046   ----------------------------------------
	BYTE	PATT
	 POIN2	Endgame2Test_FINAL_10_042
// 047   ----------------------------------------
	BYTE		N36     Gs5   v127
	BYTE	W36
	BYTE		N12     Fs5 
	BYTE	W12
	BYTE		N48   
	BYTE	W44
	BYTE	GoTo
	 POIN2	Endgame2Test_FINAL_10_B1
Endgame2Test_FINAL_10_B2:
	BYTE	W04
// 048   ----------------------------------------
	BYTE	FINE

//******************************************************//
	ALIGN 4

Endgame2Test_FINAL:
	BYTE	10	// NumTrks
	BYTE	0	// NumBlks
	BYTE	Endgame2Test_FINAL_pri	// Priority
	BYTE	Endgame2Test_FINAL_rev	// Reverb.

	POIN2	Endgame2Test_FINAL_grp

	POIN2	Endgame2Test_FINAL_1
	POIN2	Endgame2Test_FINAL_2
	POIN2	Endgame2Test_FINAL_3
	POIN2	Endgame2Test_FINAL_4
	POIN2	Endgame2Test_FINAL_5
	POIN2	Endgame2Test_FINAL_6
	POIN2	Endgame2Test_FINAL_7
	POIN2	Endgame2Test_FINAL_8
	POIN2	Endgame2Test_FINAL_9
	POIN2	Endgame2Test_FINAL_10

	
