//Event file generated from Sappy .s format.
	#include "MPlayDef.event"

	#define	song94_grp  voicegroup000
	#define	song94_pri  0
	#define	song94_rev  160
	#define	song94_mvl  127
	#define	song94_key  0
	#define	song94_tbs  1
	#define	song94_exg  0
	#define	song94_cmp  1

	// .rodata
	//	song94
	ALIGN 4


//**************** Track 1 (Midi-Chn.0) ****************//

song94_001:
//  #01 //000   ----------------------------------------
 BYTE   KEYSH   song94_key+0
 BYTE   TEMPO   136*song94_tbs/2
 BYTE   VOICE   2
 BYTE   VOL   28*song94_mvl/mxv
 BYTE   PAN   c_v+0
 BYTE   BEND   c_v+0
 BYTE   N30  En0  v127
 BYTE   W36
 BYTE   N30
 BYTE   W36
 BYTE   N19
 BYTE   W24
//  #01 //001   ----------------------------------------
 BYTE   N30
 BYTE   W36
 BYTE   N30
 BYTE   W36
 BYTE   N10
 BYTE   W12
 BYTE   N03  Bn0  v104
 BYTE   W06
 BYTE   En0
 BYTE   W06
//  #01 //002   ----------------------------------------
Label_0192A9B8:
 BYTE   N18  An0  v100
 BYTE   W18
 BYTE   N12
 BYTE   W12
 BYTE   N06
 BYTE   W06
 BYTE   N12  En0
 BYTE   W12
 BYTE   Fn0
 BYTE   W36
 BYTE   N06
 BYTE   W06
 BYTE   N06
 BYTE   W06
 BYTE   PEND 
//  #01 //003   ----------------------------------------
Label_0192A9CA:
 BYTE   N18  Gn0  v100
 BYTE   W18
 BYTE   N12
 BYTE   W12
 BYTE   N06
 BYTE   W06
 BYTE   N12  Dn0
 BYTE   W12
 BYTE   An0
 BYTE   W36
 BYTE   N06  En0
 BYTE   W06
 BYTE   Gn0
 BYTE   W06
 BYTE   PEND 
//  #01 //004   ----------------------------------------
 BYTE   PATT
  POIN2 Label_0192A9B8
//  #01 //005   ----------------------------------------
 BYTE   PATT
  POIN2 Label_0192A9CA
//  #01 //006   ----------------------------------------
Label_0192A9E7:
 BYTE   N30  Dn0  v100
 BYTE   W30
 BYTE   N06
 BYTE   W06
 BYTE   N12
 BYTE   W12
 BYTE   Gn0
 BYTE   W36
 BYTE   N06
 BYTE   W06
 BYTE   Fn0
 BYTE   W06
 BYTE   PEND 
//  #01 //007   ----------------------------------------
Label_0192A9F6:
 BYTE   N12  En0  v100
 BYTE   W12
 BYTE   N06
 BYTE   W06
 BYTE   N12
 BYTE   W12
 BYTE   N06
 BYTE   W06
 BYTE   N12  An0
 BYTE   W12
 BYTE   N12
 BYTE   W12
 BYTE   N12
 BYTE   W12
 BYTE   N06  Gn0
 BYTE   W24
 BYTE   PEND 
//  #01 //008   ----------------------------------------
 BYTE   PATT
  POIN2 Label_0192A9E7
//  #01 //009   ----------------------------------------
 BYTE   PATT
  POIN2 Label_0192A9F6
//  #01 //010   ----------------------------------------
 BYTE   PATT
  POIN2 Label_0192A9B8
//  #01 //011   ----------------------------------------
 BYTE   PATT
  POIN2 Label_0192A9CA
//  #01 //012   ----------------------------------------
 BYTE   PATT
  POIN2 Label_0192A9B8
//  #01 //013   ----------------------------------------
 BYTE   PATT
  POIN2 Label_0192A9CA
//  #01 //014   ----------------------------------------
 BYTE   PATT
  POIN2 Label_0192A9E7
//  #01 //015   ----------------------------------------
 BYTE   PATT
  POIN2 Label_0192A9F6
//  #01 //016   ----------------------------------------
 BYTE   PATT
  POIN2 Label_0192A9E7
//  #01 //017   ----------------------------------------
 BYTE   PATT
  POIN2 Label_0192A9F6
//  #01 //018   ----------------------------------------
 BYTE   N44  As0  v116
 BYTE   W48
 BYTE   N21  Fn1
 BYTE   W24
 BYTE   As1
 BYTE   W24
//  #01 //019   ----------------------------------------
 BYTE   N22  Cn2
 BYTE   W24
 BYTE   N52  Cn1
 BYTE   W60
 BYTE   N04  Dn1
 BYTE   W06
 BYTE   En1
 BYTE   W06
//  #01 //020   ----------------------------------------
 BYTE   N44  Fn1
 BYTE   W48
 BYTE   N22  Cn1
 BYTE   W24
 BYTE   Fn1
 BYTE   W24
//  #01 //021   ----------------------------------------
 BYTE   N44  Gn1
 BYTE   W48
 BYTE   N22  Dn1
 BYTE   W24
 BYTE   Bn0
 BYTE   W24
//  #01 //022   ----------------------------------------
 BYTE   N68  As0
 BYTE   W72
 BYTE   N22  Fn1
 BYTE   W24
//  #01 //023   ----------------------------------------
 BYTE   Cn1
 BYTE   W24
 BYTE   Gn1
 BYTE   W24
 BYTE   Dn2
 BYTE   W24
 BYTE   Cn2
 BYTE   W24
//  #01 //024   ----------------------------------------
 BYTE   N44  Bn1
 BYTE   W48
 BYTE   Bn0
 BYTE   W48
//  #01 //025   ----------------------------------------
 BYTE   N22  Gn1
 BYTE   W24
 BYTE   Fn1
 BYTE   W24
 BYTE   Dn1
 BYTE   W24
 BYTE   Bn0
 BYTE   W24
//  #01 //026   ----------------------------------------
 BYTE   PATT
  POIN2 Label_0192A9B8
//  #01 //027   ----------------------------------------
 BYTE   PATT
  POIN2 Label_0192A9CA
//  #01 //028   ----------------------------------------
 BYTE   PATT
  POIN2 Label_0192A9B8
//  #01 //029   ----------------------------------------
 BYTE   PATT
  POIN2 Label_0192A9CA
//  #01 //030   ----------------------------------------
 BYTE   PATT
  POIN2 Label_0192A9E7
//  #01 //031   ----------------------------------------
 BYTE   PATT
  POIN2 Label_0192A9F6
//  #01 //032   ----------------------------------------
 BYTE   PATT
  POIN2 Label_0192A9E7
//  #01 //033   ----------------------------------------
 BYTE   PATT
  POIN2 Label_0192A9F6
//  #01 //034   ----------------------------------------
 BYTE   PATT
  POIN2 Label_0192A9B8
//  #01 //035   ----------------------------------------
 BYTE   PATT
  POIN2 Label_0192A9CA
//  #01 //036   ----------------------------------------
 BYTE   PATT
  POIN2 Label_0192A9B8
//  #01 //037   ----------------------------------------
 BYTE   PATT
  POIN2 Label_0192A9CA
//  #01 //038   ----------------------------------------
Label_0192AAB9:
 BYTE   N18  En1  v100
 BYTE   W18
 BYTE   N12
 BYTE   W12
 BYTE   N06
 BYTE   W06
 BYTE   N12
 BYTE   W12
 BYTE   N12
 BYTE   W36
 BYTE   N06
 BYTE   W06
 BYTE   N06
 BYTE   W06
 BYTE   PEND 
//  #01 //039   ----------------------------------------
Label_0192AACA:
 BYTE   N18  Dn1  v100
 BYTE   W18
 BYTE   N12
 BYTE   W12
 BYTE   N06
 BYTE   W06
 BYTE   N12
 BYTE   W12
 BYTE   N12
 BYTE   W36
 BYTE   N06  An0
 BYTE   W06
 BYTE   Dn1
 BYTE   W06
 BYTE   PEND 
//  #01 //040   ----------------------------------------
 BYTE   PATT
  POIN2 Label_0192AAB9
//  #01 //041   ----------------------------------------
 BYTE   PATT
  POIN2 Label_0192AACA
//  #01 //042   ----------------------------------------
Label_0192AAE6:
 BYTE   N30  An0  v100
 BYTE   W30
 BYTE   N06
 BYTE   W06
 BYTE   N12
 BYTE   W12
 BYTE   Dn1
 BYTE   W36
 BYTE   N06
 BYTE   W06
 BYTE   Cn1
 BYTE   W06
 BYTE   PEND 
//  #01 //043   ----------------------------------------
Label_0192AAF5:
 BYTE   N12  Gn0  v100
 BYTE   W12
 BYTE   N06
 BYTE   W06
 BYTE   N12
 BYTE   W12
 BYTE   N06
 BYTE   W06
 BYTE   N12  Dn1
 BYTE   W12
 BYTE   N12
 BYTE   W12
 BYTE   N12
 BYTE   W12
 BYTE   N06  Cn1
 BYTE   W24
 BYTE   PEND 
//  #01 //044   ----------------------------------------
 BYTE   PATT
  POIN2 Label_0192AAE6
//  #01 //045   ----------------------------------------
 BYTE   PATT
  POIN2 Label_0192AAF5
//  #01 //046   ----------------------------------------
 BYTE   PATT
  POIN2 Label_0192A9B8
//  #01 //047   ----------------------------------------
 BYTE   PATT
  POIN2 Label_0192A9CA
//  #01 //048   ----------------------------------------
 BYTE   PATT
  POIN2 Label_0192A9B8
//  #01 //049   ----------------------------------------
 BYTE   PATT
  POIN2 Label_0192A9CA
//  #01 //050   ----------------------------------------
 BYTE   PATT
  POIN2 Label_0192A9E7
//  #01 //051   ----------------------------------------
 BYTE   PATT
  POIN2 Label_0192A9F6
//  #01 //052   ----------------------------------------
 BYTE   PATT
  POIN2 Label_0192A9E7
//  #01 //053   ----------------------------------------
 BYTE   PATT
  POIN2 Label_0192A9F6
//  #01 //054   ----------------------------------------
 BYTE   PATT
  POIN2 Label_0192A9B8
//  #01 //055   ----------------------------------------
 BYTE   PATT
  POIN2 Label_0192A9CA
//  #01 //056   ----------------------------------------
 BYTE   PATT
  POIN2 Label_0192A9B8
//  #01 //057   ----------------------------------------
 BYTE   PATT
  POIN2 Label_0192A9CA
//  #01 //058   ----------------------------------------
 BYTE   PATT
  POIN2 Label_0192A9E7
//  #01 //059   ----------------------------------------
 BYTE   PATT
  POIN2 Label_0192A9F6
//  #01 //060   ----------------------------------------
 BYTE   GoTo
  POIN2 Label_0192A9B8
 BYTE   FINE

//**************** Track 2 (Midi-Chn.1) ****************//

song94_002:
//  #02 //000   ----------------------------------------
 BYTE   KEYSH   song94_key+0
 BYTE   VOICE   60
 BYTE   VOL   24*song94_mvl/mxv
 BYTE   PAN   c_v-26
 BYTE   BEND   c_v+0
 BYTE   N11  Bn2  v068
 BYTE   N11  En3
 BYTE   W36
 BYTE   Bn2  v076
 BYTE   N11  En3
 BYTE   W36
 BYTE   Bn2  v092
 BYTE   N11  En3
 BYTE   W24
//  #02 //001   ----------------------------------------
 BYTE   Bn2  v108
 BYTE   N11  En3
 BYTE   W36
 BYTE   Bn2  v084
 BYTE   N11  En3
 BYTE   W36
 BYTE   Bn2  v092
 BYTE   N11  En3
 BYTE   W24
//  #02 //002   ----------------------------------------
Label_019B3835:
 BYTE   N11  Cn3  v104
 BYTE   N11  En3
 BYTE   W24
 BYTE   Cn3  v072
 BYTE   N11  En3
 BYTE   W24
 BYTE   Cn3  v084
 BYTE   N11  En3
 BYTE   W24
 BYTE   Cn3  v072
 BYTE   N11  En3
 BYTE   W24
//  #02 //003   ----------------------------------------
Label_019B384A:
 BYTE   N11  Bn2  v104
 BYTE   N11  Dn3
 BYTE   W24
 BYTE   Bn2  v072
 BYTE   N11  Dn3
 BYTE   W24
 BYTE   Bn2  v084
 BYTE   N11  Dn3
 BYTE   W24
 BYTE   Bn2  v072
 BYTE   N11  Dn3
 BYTE   W24
 BYTE   PEND 
//  #02 //004   ----------------------------------------
Label_019B3860:
 BYTE   N11  An2  v104
 BYTE   N11  Cn3
 BYTE   W24
 BYTE   An2  v072
 BYTE   N11  Cn3
 BYTE   W24
 BYTE   An2  v084
 BYTE   N11  Cn3
 BYTE   W24
 BYTE   An2  v072
 BYTE   N11  Cn3
 BYTE   W24
 BYTE   PEND 
//  #02 //005   ----------------------------------------
 BYTE   Gn2  v104
 BYTE   N11  Bn2
 BYTE   W24
 BYTE   Gn2  v072
 BYTE   N11  Bn2
 BYTE   W24
 BYTE   Gn2  v084
 BYTE   N11  Bn2
 BYTE   W24
 BYTE   Gn2  v072
 BYTE   N11  Bn2
 BYTE   W24
//  #02 //006   ----------------------------------------
 BYTE   Fn2  v104
 BYTE   N11  An2
 BYTE   W24
 BYTE   Fn2  v072
 BYTE   N11  An2
 BYTE   W24
 BYTE   Fn2  v084
 BYTE   N11  An2
 BYTE   W24
 BYTE   Fn2  v072
 BYTE   N11  An2
 BYTE   W24
//  #02 //007   ----------------------------------------
 BYTE   Gn2  v104
 BYTE   N11  An2
 BYTE   W24
 BYTE   Gn2  v072
 BYTE   N11  An2
 BYTE   W24
 BYTE   Gn2  v084
 BYTE   N11  An2
 BYTE   W24
 BYTE   Gn2  v072
 BYTE   N11  An2
 BYTE   W24
//  #02 //008   ----------------------------------------
 BYTE   Fn2  v104
 BYTE   N11  Bn2
 BYTE   W24
 BYTE   Fn2  v072
 BYTE   N11  Bn2
 BYTE   W24
 BYTE   An2  v084
 BYTE   N11  Dn3
 BYTE   W24
 BYTE   An2  v072
 BYTE   N11  Dn3
 BYTE   W24
//  #02 //009   ----------------------------------------
 BYTE   Bn2  v104
 BYTE   N11  En3
 BYTE   W24
 BYTE   Bn2  v072
 BYTE   N11  En3
 BYTE   W24
 BYTE   Bn2  v084
 BYTE   N11  En3
 BYTE   W24
 BYTE   Bn2  v072
 BYTE   N11  En3
 BYTE   W24
//  #02 //010   ----------------------------------------
Label_019B38DA:
 BYTE   N11  Cn3  v104
 BYTE   N11  En3
 BYTE   W24
 BYTE   Cn3  v072
 BYTE   N11  En3
 BYTE   W24
 BYTE   Cn3  v084
 BYTE   N11  En3
 BYTE   W24
 BYTE   Cn3  v072
 BYTE   N11  En3
 BYTE   W24
 BYTE   PEND 
//  #02 //011   ----------------------------------------
 BYTE   PATT
  POIN2 Label_019B384A
//  #02 //012   ----------------------------------------
Label_019B38F5:
 BYTE   N11  An2  v104
 BYTE   N11  Dn3
 BYTE   W24
 BYTE   An2  v072
 BYTE   N11  Dn3
 BYTE   W24
 BYTE   An2  v084
 BYTE   N11  Dn3
 BYTE   W24
 BYTE   An2  v072
 BYTE   N11  Dn3
 BYTE   W24
 BYTE   PEND 
//  #02 //013   ----------------------------------------
 BYTE   PATT
  POIN2 Label_019B38DA
//  #02 //014   ----------------------------------------
 BYTE   PATT
  POIN2 Label_019B3860
//  #02 //015   ----------------------------------------
 BYTE   PATT
  POIN2 Label_019B38F5
//  #02 //016   ----------------------------------------
 BYTE   N11  Cs3  v104
 BYTE   N11  Fs3
 BYTE   W24
 BYTE   Cs3  v072
 BYTE   N11  Fs3
 BYTE   W24
 BYTE   Cs3  v084
 BYTE   N11  Fs3
 BYTE   W24
 BYTE   Cs3  v072
 BYTE   N11  Fs3
 BYTE   W24
//  #02 //017   ----------------------------------------
 BYTE   Bn2  v104
 BYTE   N11  En3
 BYTE   W24
 BYTE   En3  v072
 BYTE   N11  An3
 BYTE   W24
 BYTE   Dn3  v084
 BYTE   N11  Bn3
 BYTE   W24
 BYTE   Bn2  v072
 BYTE   N11  En3
 BYTE   W24
//  #02 //018   ----------------------------------------
 BYTE   N23  An1
 BYTE   N23  Cn3
 BYTE   W05
 BYTE   W04
 BYTE   W03
 BYTE   W04
 BYTE   W04
 BYTE   W04
 BYTE   As1
 BYTE   N23  Dn3
 BYTE   W04
 BYTE   W04
 BYTE   W04
 BYTE   W04
 BYTE   W03
 BYTE   W04
 BYTE   W01
 BYTE   Dn2
 BYTE   N23  Fn3
 BYTE   W03
 BYTE   W04
 BYTE   W04
 BYTE   W04
 BYTE   W04
 BYTE   W03
 BYTE   W02
 BYTE   Fn2
 BYTE   N23  An3
 BYTE   W02
 BYTE   W04
 BYTE   W04
 BYTE   W04
 BYTE   W04
 BYTE   W04
 BYTE   W02
//  #02 //019   ----------------------------------------
 BYTE   Gn2
 BYTE   N44  Cn4
 BYTE   W04
 BYTE   W06
 BYTE   W07
 BYTE   W06
 BYTE   W01
 BYTE   N23  An2
 BYTE   W05
 BYTE   W06
 BYTE   W07
 BYTE   W06
 BYTE   Cn2
 BYTE   N44  Gn3
 BYTE   W24
 BYTE   N23  En2
 BYTE   W24
//  #02 //020   ----------------------------------------
 BYTE   Cn2
 BYTE   N44  Fn3
 BYTE   W24
 BYTE   N80  An1
 BYTE   W24
 BYTE   N56  Cn3
 BYTE   W05
 BYTE   W03
 BYTE   W03
 BYTE   W03
 BYTE   W03
 BYTE   W03
 BYTE   W03
 BYTE   W03
 BYTE   W03
 BYTE   W03
 BYTE   W03
 BYTE   W03
 BYTE   W01
 BYTE   W02
 BYTE   W01
 BYTE   W02
 BYTE   W01
 BYTE   W02
 BYTE   W01
//  #02 //021   ----------------------------------------
 BYTE   W02
 BYTE   W01
 BYTE   W02
 BYTE   W01
 BYTE   W02
 BYTE   W01
 BYTE   W01
 BYTE   W01
 BYTE   W01
 BYTE   W01
 BYTE   W01
 BYTE   W01
 BYTE   W01
 BYTE   W01
 BYTE   W01
 BYTE   W01
 BYTE   W01
 BYTE   W01
 BYTE   W01
 BYTE   W01
 BYTE   W01
 BYTE   N23  Gn1
 BYTE   N23  Bn2
 BYTE   W24
 BYTE   Bn1
 BYTE   N23  Dn3
 BYTE   W24
 BYTE   Fn2
 BYTE   N44  Gn3
 BYTE   W24
//  #02 //022   ----------------------------------------
 BYTE   Dn2
 BYTE   W24
 BYTE   N23  An3
 BYTE   W24
 BYTE   N44  Cn2
 BYTE   N23  En3
 BYTE   W24
 BYTE   Fn3
 BYTE   W24
//  #02 //023   ----------------------------------------
 BYTE   N22  En2
 BYTE   N44  Gn3
 BYTE   W24
 BYTE   N22  Dn2
 BYTE   W24
 BYTE   N44  Cn2
 BYTE   N44  En3
 BYTE   W48
//  #02 //024   ----------------------------------------
 BYTE   N23  An1
 BYTE   N44  Dn3
 BYTE   W24
 BYTE   N23  Bn1
 BYTE   W24
 BYTE   Dn2
 BYTE   N23  Gn3
 BYTE   W24
 BYTE   Fn2
 BYTE   N23  An3
 BYTE   W24
//  #02 //025   ----------------------------------------
 BYTE   Gn2
 BYTE   N23  Bn3
 BYTE   W24
 BYTE   Bn2
 BYTE   N23  Dn4
 BYTE   W24
 BYTE   N44  Dn2
 BYTE   N23  Gn3
 BYTE   W48
//  #02 //026   ----------------------------------------
 BYTE   N92  Fn2
 BYTE   W96
//  #02 //027   ----------------------------------------
 BYTE   Gn2
 BYTE   W96
//  #02 //028   ----------------------------------------
 BYTE   Cn2
 BYTE   W96
//  #02 //029   ----------------------------------------
 BYTE   Dn2
 BYTE   W96
//  #02 //030   ----------------------------------------
 BYTE   Fn2
 BYTE   W96
//  #02 //031   ----------------------------------------
 BYTE   An2
 BYTE   W96
//  #02 //032   ----------------------------------------
 BYTE   Gn2
 BYTE   W96
//  #02 //033   ----------------------------------------
 BYTE   En2
 BYTE   W96
//  #02 //034   ----------------------------------------
 BYTE   N32  Cn3  v068
 BYTE   W02
 BYTE   W03
 BYTE   W03
 BYTE   W03
 BYTE   W03
 BYTE   W03
 BYTE   W02
 BYTE   W08
 BYTE   W04
 BYTE   W04
 BYTE   W01
 BYTE   En3
 BYTE   W02
 BYTE   W04
 BYTE   W04
 BYTE   W04
 BYTE   W04
 BYTE   W04
 BYTE   W08
 BYTE   W06
 BYTE   N44  Cn3
 BYTE   W03
 BYTE   W08
 BYTE   W09
 BYTE   W04
//  #02 //035   ----------------------------------------
Label_019B3A22:
 BYTE   W05
 BYTE   W08
 BYTE   W09
 BYTE   W02
 BYTE   N23  An2  v068
 BYTE   W07
 BYTE   W08
 BYTE   W09
 BYTE   Gn2
 BYTE   W08
 BYTE   W09
 BYTE   W07
 BYTE   Fn2
 BYTE   W02
 BYTE   W08
 BYTE   W09
 BYTE   W05
 BYTE   PEND 
//  #02 //036   ----------------------------------------
Label_019B3A36:
 BYTE   N32  Gn2  v068
 BYTE   W04
 BYTE   W03
 BYTE   W03
 BYTE   W04
 BYTE   W03
 BYTE   W03
 BYTE   W04
 BYTE   W03
 BYTE   W04
 BYTE   W03
 BYTE   W02
 BYTE   Cn3
 BYTE   W01
 BYTE   W04
 BYTE   W03
 BYTE   W03
 BYTE   W04
 BYTE   W03
 BYTE   W04
 BYTE   W14
 BYTE   Dn3
 BYTE   W24
 BYTE   PEND 
//  #02 //037   ----------------------------------------
Label_019B3A50:
 BYTE   W01
 BYTE   W06
 BYTE   W03
 BYTE   W02
 BYTE   N80  Cn3  v068
 BYTE   W01
 BYTE   W04
 BYTE   W03
 BYTE   W03
 BYTE   W03
 BYTE   W03
 BYTE   W03
 BYTE   W03
 BYTE   W03
 BYTE   W03
 BYTE   W03
 BYTE   W03
 BYTE   W03
 BYTE   W03
 BYTE   W03
 BYTE   W02
 BYTE   W01
 BYTE   W02
 BYTE   W01
 BYTE   W02
 BYTE   W01
 BYTE   W02
 BYTE   W01
 BYTE   W02
 BYTE   W01
 BYTE   W02
 BYTE   W01
 BYTE   W02
 BYTE   W01
 BYTE   W02
 BYTE   W01
 BYTE   W02
 BYTE   W01
 BYTE   W02
 BYTE   W01
 BYTE   W02
 BYTE   W01
 BYTE   W02
 BYTE   W01
 BYTE   W02
 BYTE   W01
 BYTE   W01
 BYTE   PEND 
//  #02 //038   ----------------------------------------
 BYTE   W96
//  #02 //039   ----------------------------------------
 BYTE   W96
//  #02 //040   ----------------------------------------
 BYTE   W96
//  #02 //041   ----------------------------------------
 BYTE   W96
//  #02 //042   ----------------------------------------
 BYTE   W96
//  #02 //043   ----------------------------------------
 BYTE   W96
//  #02 //044   ----------------------------------------
 BYTE   W96
//  #02 //045   ----------------------------------------
 BYTE   W96
//  #02 //046   ----------------------------------------
 BYTE   W96
//  #02 //047   ----------------------------------------
 BYTE   W96
//  #02 //048   ----------------------------------------
 BYTE   W96
//  #02 //049   ----------------------------------------
 BYTE   W48
 BYTE   N12  Gn3  v100
 BYTE   N12  Gn4
 BYTE   W24
 BYTE   N24  An3
 BYTE   N24  An4
 BYTE   W24
//  #02 //050   ----------------------------------------
 BYTE   W96
//  #02 //051   ----------------------------------------
Label_019B3A9A:
 BYTE   N24  En2  v100
 BYTE   N24  Gn3
 BYTE   W24
 BYTE   N06  En2
 BYTE   N06  Gn3
 BYTE   W24
 BYTE   N24  An2
 BYTE   N24  An3
 BYTE   W24
 BYTE   N06  An2
 BYTE   N06  An3
 BYTE   W24
 BYTE   PEND 
//  #02 //052   ----------------------------------------
 BYTE   W96
//  #02 //053   ----------------------------------------
 BYTE   PATT
  POIN2 Label_019B3A9A
//  #02 //054   ----------------------------------------
 BYTE   N32  Cn3  v068
 BYTE   W02
 BYTE   W03
 BYTE   W03
 BYTE   W03
 BYTE   W03
 BYTE   W03
 BYTE   W02
 BYTE   W08
 BYTE   W04
 BYTE   W04
 BYTE   W01
 BYTE   En3
 BYTE   W02
 BYTE   W04
 BYTE   W04
 BYTE   W04
 BYTE   W04
 BYTE   W04
 BYTE   W08
 BYTE   W06
 BYTE   N44  Cn3
 BYTE   W03
 BYTE   W08
 BYTE   W09
 BYTE   W04
//  #02 //055   ----------------------------------------
 BYTE   PATT
  POIN2 Label_019B3A22
//  #02 //056   ----------------------------------------
 BYTE   PATT
  POIN2 Label_019B3A36
//  #02 //057   ----------------------------------------
 BYTE   PATT
  POIN2 Label_019B3A50
//  #02 //058   ----------------------------------------
 BYTE   N11  Bn2  v068
 BYTE   N11  En3
 BYTE   W36
 BYTE   Bn2  v076
 BYTE   N11  En3
 BYTE   W36
 BYTE   Bn2  v092
 BYTE   N11  En3
 BYTE   W24
//  #02 //059   ----------------------------------------
 BYTE   Bn2
 BYTE   N11  En3
 BYTE   W36
 BYTE   Bn2  v068
 BYTE   N11  En3
 BYTE   W36
 BYTE   Bn2  v092
 BYTE   N11  En3
 BYTE   W24
//  #02 //060   ----------------------------------------
 BYTE   GoTo
  POIN2 Label_019B3835
 BYTE   FINE

//**************** Track 3 (Midi-Chn.2) ****************//

song94_003:
//  #03 //000   ----------------------------------------
 BYTE   KEYSH   song94_key+0
 BYTE   VOICE   17
 BYTE   VOL   23*song94_mvl/mxv
 BYTE   PAN   c_v+15
 BYTE   BEND   c_v+0
 BYTE   N11  An3  v068
 BYTE   W12
 BYTE   N04  En3  v064
 BYTE   W12
 BYTE   En3  v076
 BYTE   W12
 BYTE   N11  An3
 BYTE   W12
 BYTE   N04  En3
 BYTE   W12
 BYTE   En3  v064
 BYTE   W12
 BYTE   N11  An3  v092
 BYTE   W12
 BYTE   N04  En3  v064
 BYTE   W12
//  #03 //001   ----------------------------------------
 BYTE   N11  Gs3  v108
 BYTE   W12
 BYTE   N04  En3  v064
 BYTE   W12
 BYTE   En3  v076
 BYTE   W12
 BYTE   N11  Gs3  v084
 BYTE   W12
 BYTE   N04  En3  v076
 BYTE   W12
 BYTE   En3  v064
 BYTE   W12
 BYTE   N11  Gs3  v092
 BYTE   W12
 BYTE   N04  En3  v064
 BYTE   W12
//  #03 //002   ----------------------------------------
Label_0192B158:
 BYTE   N11  Bn3  v104
 BYTE   W12
 BYTE   N04  En3  v076
 BYTE   W12
 BYTE   N11  Bn3  v072
 BYTE   W12
 BYTE   N04  En3  v076
 BYTE   W12
 BYTE   N11  Bn3  v084
 BYTE   W12
 BYTE   N04  En3  v076
 BYTE   W12
 BYTE   N11  Bn3  v072
 BYTE   W12
 BYTE   N04  En3  v076
 BYTE   W12
 BYTE   PEND 
//  #03 //003   ----------------------------------------
Label_0192B179:
 BYTE   N11  An3  v104
 BYTE   W12
 BYTE   N04  Dn3  v076
 BYTE   W12
 BYTE   N11  An3  v072
 BYTE   W12
 BYTE   N04  Dn3  v076
 BYTE   W12
 BYTE   N11  An3  v084
 BYTE   W12
 BYTE   N04  Dn3  v076
 BYTE   W12
 BYTE   N11  An3  v072
 BYTE   W12
 BYTE   N04  Dn3  v076
 BYTE   W12
 BYTE   PEND 
//  #03 //004   ----------------------------------------
Label_0192B19A:
 BYTE   N11  Gn3  v104
 BYTE   W12
 BYTE   N04  En3  v076
 BYTE   W12
 BYTE   N11  Gn3  v072
 BYTE   W12
 BYTE   N04  En3  v076
 BYTE   W12
 BYTE   N11  Gn3  v084
 BYTE   W12
 BYTE   N04  En3  v076
 BYTE   W12
 BYTE   N11  Gn3  v072
 BYTE   W12
 BYTE   N04  En3  v076
 BYTE   W12
 BYTE   PEND 
//  #03 //005   ----------------------------------------
ENDLESSLABEL:
 BYTE   N11  Fs3  v104
 BYTE   W12
 BYTE   N04  Dn3  v076
 BYTE   W12
 BYTE   N11  Fs3  v072
 BYTE   W12
 BYTE   N04  Dn3  v076
 BYTE   W12
 BYTE   N11  Fs3  v084
 BYTE   W12
 BYTE   N04  Dn3  v076
 BYTE   W12
 BYTE   N11  Fs3  v072
 BYTE   W12
 BYTE   N04  Dn3  v076
 BYTE   W12
 BYTE   PEND 
//  #03 //006   ----------------------------------------
Label_0192B1DC:
 BYTE   N11  En3  v104
 BYTE   W12
 BYTE   N04  Cn3  v076
 BYTE   W12
 BYTE   N11  En3  v072
 BYTE   W12
 BYTE   N04  Cn3  v076
 BYTE   W12
 BYTE   N11  En3  v084
 BYTE   W12
 BYTE   N04  Cn3  v076
 BYTE   W12
 BYTE   N11  En3  v072
 BYTE   W12
 BYTE   N04  Cn3  v076
 BYTE   W12
 BYTE   PEND 
//  #03 //007   ----------------------------------------
 BYTE   PATT
  POIN2 Label_0192B1DC
//  #03 //008   ----------------------------------------
 BYTE   N11  Dn3  v104
 BYTE   W12
 BYTE   N04  Bn2  v076
 BYTE   W12
 BYTE   N11  Dn3  v072
 BYTE   W12
 BYTE   N04  Bn2  v076
 BYTE   W12
 BYTE   N11  Fn3  v084
 BYTE   W12
 BYTE   N04  Dn3  v076
 BYTE   W12
 BYTE   N11  Fn3  v072
 BYTE   W12
 BYTE   N04  Dn3  v076
 BYTE   W12
//  #03 //009   ----------------------------------------
 BYTE   N11  An3  v104
 BYTE   W12
 BYTE   N04  En3  v076
 BYTE   W12
 BYTE   N11  An3  v072
 BYTE   W12
 BYTE   N04  En3  v076
 BYTE   W12
 BYTE   N11  Gs3  v084
 BYTE   W12
 BYTE   N04  En3  v076
 BYTE   W12
 BYTE   N11  Gs3  v072
 BYTE   W12
 BYTE   N04  En3  v076
 BYTE   W12
//  #03 //010   ----------------------------------------
 BYTE   PATT
  POIN2 Label_0192B158
//  #03 //011   ----------------------------------------
 BYTE   PATT
  POIN2 Label_0192B179
//  #03 //012   ----------------------------------------
 BYTE   PATT
  POIN2 ENDLESSLABEL
//  #03 //013   ----------------------------------------
 BYTE   PATT
  POIN2 Label_0192B19A
//  #03 //014   ----------------------------------------
Label_0192B256:
 BYTE   N11  Fn3  v104
 BYTE   W12
 BYTE   N04  Dn3  v076
 BYTE   W12
 BYTE   N11  Fn3  v072
 BYTE   W12
 BYTE   N04  Dn3  v076
 BYTE   W12
 BYTE   N11  Fn3  v084
 BYTE   W12
 BYTE   N04  Dn3  v076
 BYTE   W12
 BYTE   N11  Fn3  v072
 BYTE   W12
 BYTE   N04  Dn3  v076
 BYTE   W12
 BYTE   PEND 
//  #03 //015   ----------------------------------------
 BYTE   PATT
  POIN2 Label_0192B256
//  #03 //016   ----------------------------------------
 BYTE   N11  An3  v104
 BYTE   W12
 BYTE   N04  Fs3  v076
 BYTE   W12
 BYTE   N11  An3  v072
 BYTE   W12
 BYTE   N04  Fs3  v076
 BYTE   W12
 BYTE   N11  An3  v084
 BYTE   W12
 BYTE   N04  Fs3  v076
 BYTE   W12
 BYTE   N11  An3  v072
 BYTE   W12
 BYTE   N04  Fs3  v076
 BYTE   W12
//  #03 //017   ----------------------------------------
 BYTE   N11  An3  v104
 BYTE   W12
 BYTE   N04  En3  v076
 BYTE   W12
 BYTE   N11  Bn3  v072
 BYTE   W12
 BYTE   N04  An3  v076
 BYTE   W12
 BYTE   N11  Gs3  v084
 BYTE   W12
 BYTE   N04  En3  v076
 BYTE   W12
 BYTE   N11  Gs3  v072
 BYTE   W12
 BYTE   N04  En3  v076
 BYTE   W12
//  #03 //018   ----------------------------------------
 BYTE   W96
//  #03 //019   ----------------------------------------
 BYTE   W96
//  #03 //020   ----------------------------------------
 BYTE   W96
//  #03 //021   ----------------------------------------
 BYTE   W96
//  #03 //022   ----------------------------------------
 BYTE   W96
//  #03 //023   ----------------------------------------
 BYTE   W96
//  #03 //024   ----------------------------------------
 BYTE   W96
//  #03 //025   ----------------------------------------
 BYTE   W96
//  #03 //026   ----------------------------------------
 BYTE   W96
//  #03 //027   ----------------------------------------
 BYTE   W96
//  #03 //028   ----------------------------------------
 BYTE   W96
//  #03 //029   ----------------------------------------
 BYTE   W96
//  #03 //030   ----------------------------------------
 BYTE   W96
//  #03 //031   ----------------------------------------
 BYTE   W96
//  #03 //032   ----------------------------------------
 BYTE   W96
//  #03 //033   ----------------------------------------
 BYTE   W96
//  #03 //034   ----------------------------------------
 BYTE   W96
//  #03 //035   ----------------------------------------
 BYTE   W96
//  #03 //036   ----------------------------------------
 BYTE   W96
//  #03 //037   ----------------------------------------
 BYTE   W96
//  #03 //038   ----------------------------------------
 BYTE   W96
//  #03 //039   ----------------------------------------
 BYTE   W96
//  #03 //040   ----------------------------------------
 BYTE   W96
//  #03 //041   ----------------------------------------
 BYTE   W84
 BYTE   N06  Cn4  v100
 BYTE   W12
//  #03 //042   ----------------------------------------
Label_0192B2D8:
 BYTE   N18  Cn4  v100
 BYTE   W18
 BYTE   N06  An3
 BYTE   W18
 BYTE   N30  Fn3
 BYTE   W36
 BYTE   N18  En4
 BYTE   W18
 BYTE   N66  Dn4
 BYTE   W06
 BYTE   PEND 
//  #03 //043   ----------------------------------------
 BYTE   W84
 BYTE   N06  Cn4
 BYTE   W12
//  #03 //044   ----------------------------------------
 BYTE   PATT
  POIN2 Label_0192B2D8
//  #03 //045   ----------------------------------------
 BYTE   W96
//  #03 //046   ----------------------------------------
 BYTE   W06
 BYTE   VOICE   0
 BYTE   N06  An1  v100
 BYTE   N06  An2
 BYTE   W06
 BYTE   Cn2
 BYTE   N06  Cn3
 BYTE   W06
 BYTE   N08  En2
 BYTE   N08  En3
 BYTE   W12
 BYTE   Cn2
 BYTE   N08  Cn3
 BYTE   W12
 BYTE   N12  An1
 BYTE   N12  An2
 BYTE   W54
//  #03 //047   ----------------------------------------
Label_0192B30E:
 BYTE   W06
 BYTE   N06  Gn1  v100
 BYTE   N06  Gn2
 BYTE   W06
 BYTE   Bn1
 BYTE   N06  Bn2
 BYTE   W06
 BYTE   N08  Dn2
 BYTE   N08  Dn3
 BYTE   W12
 BYTE   Bn1
 BYTE   N08  Bn2
 BYTE   W12
 BYTE   N12  Cn2
 BYTE   N12  Cn3
 BYTE   W54
 BYTE   PEND 
//  #03 //048   ----------------------------------------
 BYTE   W06
 BYTE   N06  An1
 BYTE   N06  An2
 BYTE   W06
 BYTE   Cn2
 BYTE   N06  Cn3
 BYTE   W06
 BYTE   N08  En2
 BYTE   N08  En3
 BYTE   W12
 BYTE   Cn2
 BYTE   N08  Cn3
 BYTE   W12
 BYTE   N12  An1
 BYTE   N12  An2
 BYTE   W54
//  #03 //049   ----------------------------------------
 BYTE   PATT
  POIN2 Label_0192B30E
//  #03 //050   ----------------------------------------
 BYTE   W12
 BYTE   VOICE   52
 BYTE   N12  En4  v100
 BYTE   W12
 BYTE   N06  Dn4
 BYTE   W06
 BYTE   N12  En4
 BYTE   W12
 BYTE   N24  Dn4
 BYTE   W54
//  #03 //051   ----------------------------------------
 BYTE   W96
//  #03 //052   ----------------------------------------
 BYTE   W12
 BYTE   N12  En4
 BYTE   W12
 BYTE   N06  Dn4
 BYTE   W06
 BYTE   N12  En4
 BYTE   W12
 BYTE   N24  Dn4
 BYTE   W54
//  #03 //053   ----------------------------------------
 BYTE   N12  Gn4
 BYTE   W12
 BYTE   N12
 BYTE   W12
 BYTE   En4
 BYTE   W12
 BYTE   N24  Cn4
 BYTE   W24
 BYTE   An3
 BYTE   W36
//  #03 //054   ----------------------------------------
 BYTE   W96
//  #03 //055   ----------------------------------------
 BYTE   W96
//  #03 //056   ----------------------------------------
 BYTE   W96
//  #03 //057   ----------------------------------------
 BYTE   W96
//  #03 //058   ----------------------------------------
 BYTE   N11  An3  v068
 BYTE   W12
 BYTE   N04  En3  v064
 BYTE   W12
 BYTE   En3  v076
 BYTE   W12
 BYTE   N11  An3
 BYTE   W12
 BYTE   N04  En3
 BYTE   W12
 BYTE   En3  v064
 BYTE   W12
 BYTE   N11  An3  v092
 BYTE   W12
 BYTE   N04  En3  v064
 BYTE   W12
//  #03 //059   ----------------------------------------
 BYTE   N11  Gs3  v092
 BYTE   W12
 BYTE   N04  En3  v064
 BYTE   W12
 BYTE   En3  v076
 BYTE   W12
 BYTE   N11  Gs3  v068
 BYTE   W12
 BYTE   N04  En3  v076
 BYTE   W12
 BYTE   En3  v064
 BYTE   W12
 BYTE   N11  Gs3  v092
 BYTE   W12
 BYTE   N04  En3  v064
 BYTE   W12
//  #03 //060   ----------------------------------------
 BYTE   GoTo
  POIN2 Label_0192B158
 BYTE   FINE

//**************** Track 4 (Midi-Chn.3) ****************//

song94_004:
//  #04 //000   ----------------------------------------
 BYTE   KEYSH   song94_key+0
 BYTE   VOICE   53
 BYTE   VOL   30*song94_mvl/mxv
 BYTE   PAN   c_v+37
 BYTE   BEND   c_v+0
 BYTE   W96
//  #04 //001   ----------------------------------------
 BYTE   W92
 BYTE   W01
 BYTE   W03
//  #04 //002   ----------------------------------------
Label_0192B836:
 BYTE   W96
//  #04 //003   ----------------------------------------
 BYTE   W96
//  #04 //004   ----------------------------------------
 BYTE   W96
//  #04 //005   ----------------------------------------
 BYTE   W96
//  #04 //006   ----------------------------------------
 BYTE   W96
//  #04 //007   ----------------------------------------
 BYTE   W96
//  #04 //008   ----------------------------------------
 BYTE   W96
//  #04 //009   ----------------------------------------
 BYTE   W96
//  #04 //010   ----------------------------------------
 BYTE   W96
//  #04 //011   ----------------------------------------
 BYTE   W96
//  #04 //012   ----------------------------------------
 BYTE   W96
//  #04 //013   ----------------------------------------
 BYTE   W96
//  #04 //014   ----------------------------------------
 BYTE   W96
//  #04 //015   ----------------------------------------
 BYTE   W96
//  #04 //016   ----------------------------------------
 BYTE   W96
//  #04 //017   ----------------------------------------
 BYTE   W96
//  #04 //018   ----------------------------------------
 BYTE   W64
 BYTE   W01
 BYTE   W30
 BYTE   W01
//  #04 //019   ----------------------------------------
 BYTE   W44
 BYTE   W01
 BYTE   W48
 BYTE   W03
//  #04 //020   ----------------------------------------
 BYTE   W24
 BYTE   W02
 BYTE   W68
 BYTE   W02
//  #04 //021   ----------------------------------------
 BYTE   W07
 BYTE   W76
 BYTE   W01
 BYTE   W12
//  #04 //022   ----------------------------------------
 BYTE   W64
 BYTE   W32
//  #04 //023   ----------------------------------------
 BYTE   W44
 BYTE   W01
 BYTE   W48
 BYTE   W03
//  #04 //024   ----------------------------------------
 BYTE   W24
 BYTE   W02
 BYTE   W01
 BYTE   W01
 BYTE   W01
 BYTE   W01
 BYTE   W01
 BYTE   W01
 BYTE   W01
 BYTE   W01
 BYTE   W01
 BYTE   W01
 BYTE   W01
 BYTE   W01
 BYTE   W01
 BYTE   W01
 BYTE   W01
 BYTE   W01
 BYTE   N02  Cn5  v084
 BYTE   W01
 BYTE   W02
 BYTE   Cs5
 BYTE   W01
 BYTE   W02
 BYTE   N17  Dn5  v108
 BYTE   W01
 BYTE   W01
 BYTE   W01
 BYTE   W01
 BYTE   W07
 BYTE   W01
 BYTE   W02
 BYTE   W01
 BYTE   W02
 BYTE   W01
 BYTE   N05  En5
 BYTE   W06
 BYTE   TIE  Dn5
 BYTE   W02
 BYTE   W01
 BYTE   W02
 BYTE   W01
 BYTE   W02
 BYTE   W01
 BYTE   W02
 BYTE   W01
 BYTE   W02
 BYTE   W03
 BYTE   W03
 BYTE   W03
 BYTE   W01
//  #04 //025   ----------------------------------------
 BYTE   W02
 BYTE   W03
 BYTE   W03
 BYTE   W03
 BYTE   W03
 BYTE   W03
 BYTE   W03
 BYTE   W03
 BYTE   W03
 BYTE   W03
 BYTE   W03
 BYTE   W03
 BYTE   W03
 BYTE   W03
 BYTE   W03
 BYTE   W01
 BYTE   W01
 BYTE   W02
 BYTE   W01
 BYTE   W02
 BYTE   W01
 BYTE   W02
 BYTE   W01
 BYTE   W02
 BYTE   W01
 BYTE   W02
 BYTE   W01
 BYTE   W02
 BYTE   W01
 BYTE   W02
 BYTE   W01
 BYTE   W02
 BYTE   W01
 BYTE   W02
 BYTE   W01
 BYTE   W02
 BYTE   W01
 BYTE   W02
 BYTE   W01
 BYTE   W02
 BYTE   W01
 BYTE   W02
 BYTE   W01
 BYTE   W02
 BYTE   W01
 BYTE   W02
 BYTE   W01
 BYTE   EOT
 BYTE   W02
 BYTE   W01
 BYTE   W02
//  #04 //026   ----------------------------------------
 BYTE   W01
 BYTE   W48
 BYTE   W03
 BYTE   W24
 BYTE   W02
 BYTE   W18
//  #04 //027   ----------------------------------------
 BYTE   W08
 BYTE   W24
 BYTE   W01
 BYTE   W24
 BYTE   W02
 BYTE   W24
 BYTE   W02
 BYTE   W11
//  #04 //028   ----------------------------------------
 BYTE   W96
//  #04 //029   ----------------------------------------
 BYTE   W96
//  #04 //030   ----------------------------------------
 BYTE   W96
//  #04 //031   ----------------------------------------
 BYTE   W96
//  #04 //032   ----------------------------------------
 BYTE   W96
//  #04 //033   ----------------------------------------
 BYTE   W96
//  #04 //034   ----------------------------------------
 BYTE   W96
//  #04 //035   ----------------------------------------
 BYTE   W96
//  #04 //036   ----------------------------------------
 BYTE   W96
//  #04 //037   ----------------------------------------
 BYTE   W84
 BYTE   W02
 BYTE   W01
 BYTE   W02
 BYTE   W01
 BYTE   W02
 BYTE   W01
 BYTE   W02
 BYTE   W01
//  #04 //038   ----------------------------------------
 BYTE   W96
//  #04 //039   ----------------------------------------
 BYTE   W96
//  #04 //040   ----------------------------------------
 BYTE   W96
//  #04 //041   ----------------------------------------
 BYTE   W96
//  #04 //042   ----------------------------------------
 BYTE   W96
//  #04 //043   ----------------------------------------
 BYTE   W96
//  #04 //044   ----------------------------------------
 BYTE   W96
//  #04 //045   ----------------------------------------
 BYTE   W96
//  #04 //046   ----------------------------------------
 BYTE   W96
//  #04 //047   ----------------------------------------
 BYTE   W96
//  #04 //048   ----------------------------------------
 BYTE   W96
//  #04 //049   ----------------------------------------
 BYTE   W96
//  #04 //050   ----------------------------------------
 BYTE   W96
//  #04 //051   ----------------------------------------
 BYTE   W96
//  #04 //052   ----------------------------------------
 BYTE   W96
//  #04 //053   ----------------------------------------
 BYTE   W72
 BYTE   W18
 BYTE   N01  Bn4  v036
 BYTE   W02
 BYTE   Cn5  v056
 BYTE   W02
 BYTE   Cs5  v068
 BYTE   W02
//  #04 //054   ----------------------------------------
 BYTE   N17  Dn5  v092
 BYTE   W01
 BYTE   W01
 BYTE   W01
 BYTE   W01
 BYTE   W02
 BYTE   W01
 BYTE   W02
 BYTE   W02
 BYTE   W01
 BYTE   W02
 BYTE   W01
 BYTE   W02
 BYTE   W01
 BYTE   N05  En5
 BYTE   W06
 BYTE   N11  Dn5
 BYTE   W12
 BYTE   N23  Cn5  v100
 BYTE   W02
 BYTE   W01
 BYTE   W01
 BYTE   W01
 BYTE   W02
 BYTE   W01
 BYTE   W02
 BYTE   W01
 BYTE   W02
 BYTE   W01
 BYTE   W02
 BYTE   W01
 BYTE   W02
 BYTE   W01
 BYTE   W02
 BYTE   W01
 BYTE   W02
 BYTE   W01
 BYTE   W02
 BYTE   W01
 BYTE   W02
 BYTE   W01
 BYTE   W02
 BYTE   W01
 BYTE   W01
 BYTE   N17  Bn4
 BYTE   W01
 BYTE   W01
 BYTE   W01
 BYTE   W01
 BYTE   W02
 BYTE   W01
 BYTE   W02
 BYTE   W01
 BYTE   W02
 BYTE   W01
 BYTE   W01
 BYTE   W01
 BYTE   W01
 BYTE   W01
 BYTE   W01
 BYTE   N05  Cn5
 BYTE   W06
//  #04 //055   ----------------------------------------
 BYTE   N11  Bn4
 BYTE   W01
 BYTE   W02
 BYTE   W01
 BYTE   W02
 BYTE   W02
 BYTE   W01
 BYTE   W02
 BYTE   W01
 BYTE   N52  An4
 BYTE   W02
 BYTE   W02
 BYTE   W01
 BYTE   W02
 BYTE   W01
 BYTE   W03
 BYTE   W03
 BYTE   W03
 BYTE   W03
 BYTE   W03
 BYTE   W03
 BYTE   W03
 BYTE   W01
 BYTE   W02
 BYTE   W01
 BYTE   W02
 BYTE   W01
 BYTE   W02
 BYTE   W01
 BYTE   W02
 BYTE   W01
 BYTE   W02
 BYTE   W01
 BYTE   W02
 BYTE   W01
 BYTE   W02
 BYTE   W01
 BYTE   W02
 BYTE   W01
 BYTE   W02
 BYTE   W01
 BYTE   W01
 BYTE   W01
 BYTE   W01
 BYTE   N11  Bn4
 BYTE   W03
 BYTE   W03
 BYTE   W03
 BYTE   W03
 BYTE   Cn5
 BYTE   W03
 BYTE   W03
 BYTE   W03
 BYTE   W03
//  #04 //056   ----------------------------------------
 BYTE   N17  Dn5  v092
 BYTE   W01
 BYTE   W01
 BYTE   W01
 BYTE   W13
 BYTE   W01
 BYTE   W01
 BYTE   N05  En5
 BYTE   W06
 BYTE   N11  Dn5
 BYTE   W03
 BYTE   W03
 BYTE   W03
 BYTE   W03
 BYTE   N28  Cn5  v100
 BYTE   W01
 BYTE   W02
 BYTE   W01
 BYTE   W02
 BYTE   W01
 BYTE   W01
 BYTE   W03
 BYTE   W03
 BYTE   W03
 BYTE   W01
 BYTE   W02
 BYTE   W01
 BYTE   W02
 BYTE   W01
 BYTE   W02
 BYTE   W02
 BYTE   W01
 BYTE   W01
 BYTE   N01  Dn5  v048
 BYTE   W01
 BYTE   W01
 BYTE   En5  v064
 BYTE   W02
 BYTE   Fn5  v072
 BYTE   W01
 BYTE   W01
 BYTE   N23  Gn5  v084
 BYTE   W01
 BYTE   W01
 BYTE   W02
 BYTE   W01
 BYTE   W02
 BYTE   W02
 BYTE   W01
 BYTE   W02
 BYTE   W01
 BYTE   W02
 BYTE   W01
 BYTE   W02
 BYTE   W01
 BYTE   W02
 BYTE   W01
 BYTE   W02
//  #04 //057   ----------------------------------------
 BYTE   N05  Fn5  v092
 BYTE   W06
 BYTE   En5
 BYTE   W06
 BYTE   N72  Cn5  v100
 BYTE   W01
 BYTE   W01
 BYTE   W01
 BYTE   W01
 BYTE   W01
 BYTE   W01
 BYTE   W01
 BYTE   W03
 BYTE   W03
 BYTE   W03
 BYTE   W03
 BYTE   W03
 BYTE   W03
 BYTE   W03
 BYTE   W03
 BYTE   W02
 BYTE   W03
 BYTE   W03
 BYTE   W03
 BYTE   W03
 BYTE   W03
 BYTE   W03
 BYTE   W03
 BYTE   W03
 BYTE   W03
 BYTE   W03
 BYTE   W03
 BYTE   W02
 BYTE   W01
 BYTE   W02
 BYTE   W01
 BYTE   W02
 BYTE   W01
 BYTE   W02
 BYTE   W01
 BYTE   W02
 BYTE   W01
 BYTE   W02
 BYTE   W01
//  #04 //058   ----------------------------------------
 BYTE   N44  En3  v108
 BYTE   W01
 BYTE   W01
 BYTE   W01
 BYTE   W01
 BYTE   W01
 BYTE   W01
 BYTE   W01
 BYTE   W01
 BYTE   W01
 BYTE   W01
 BYTE   W01
 BYTE   W01
 BYTE   W01
 BYTE   W01
 BYTE   W01
 BYTE   W01
 BYTE   W03
 BYTE   W03
 BYTE   W03
 BYTE   W03
 BYTE   W03
 BYTE   W01
 BYTE   W01
 BYTE   W01
 BYTE   W01
 BYTE   W01
 BYTE   W01
 BYTE   W01
 BYTE   W01
 BYTE   W01
 BYTE   W01
 BYTE   W01
 BYTE   W01
 BYTE   W01
 BYTE   W01
 BYTE   W01
 BYTE   W01
 BYTE   W01
 BYTE   N36  Bn3
 BYTE   W01
 BYTE   W01
 BYTE   W01
 BYTE   W01
 BYTE   W01
 BYTE   W01
 BYTE   W01
 BYTE   W01
 BYTE   W01
 BYTE   W01
 BYTE   W01
 BYTE   W01
 BYTE   W07
 BYTE   W02
 BYTE   W01
 BYTE   W02
 BYTE   W01
 BYTE   W02
 BYTE   W01
 BYTE   W02
 BYTE   W10
 BYTE   N03  As3
 BYTE   W04
 BYTE   An3
 BYTE   W04
//  #04 //059   ----------------------------------------
 BYTE   N80  Gs3
 BYTE   W04
 BYTE   W03
 BYTE   W03
 BYTE   W03
 BYTE   W03
 BYTE   W03
 BYTE   W03
 BYTE   W03
 BYTE   W03
 BYTE   W03
 BYTE   W03
 BYTE   W03
 BYTE   W03
 BYTE   W03
 BYTE   W03
 BYTE   W01
 BYTE   W02
 BYTE   W01
 BYTE   W02
 BYTE   W01
 BYTE   W02
 BYTE   W01
 BYTE   W02
 BYTE   W01
 BYTE   W02
 BYTE   W01
 BYTE   W02
 BYTE   W01
 BYTE   W02
 BYTE   W01
 BYTE   W02
 BYTE   W01
 BYTE   W02
 BYTE   W01
 BYTE   W02
 BYTE   W01
 BYTE   W02
 BYTE   W01
 BYTE   W02
 BYTE   W01
 BYTE   W02
 BYTE   W07
 BYTE   W01
 BYTE   W03
//  #04 //060   ----------------------------------------
 BYTE   GoTo
  POIN2 Label_0192B836
 BYTE   FINE

//**************** Track 5 (Midi-Chn.4) ****************//

song94_005:
//  #05 //000   ----------------------------------------
 BYTE   KEYSH   song94_key+0
 BYTE   VOICE   62
 BYTE   VOL   40*song94_mvl/mxv
 BYTE   PAN   c_v-19
 BYTE   BEND   c_v+0
 BYTE   N11  An4  v072
 BYTE   N11  En5
 BYTE   W12
 BYTE   An4  v040
 BYTE   N11  En5
 BYTE   W12
 BYTE   An4  v016
 BYTE   N11  En5
 BYTE   W12
 BYTE   An4  v092
 BYTE   N11  En5
 BYTE   W12
 BYTE   An4  v060
 BYTE   N11  En5
 BYTE   W12
 BYTE   An4  v036
 BYTE   N11  En5
 BYTE   W12
 BYTE   An4  v092
 BYTE   N11  En5
 BYTE   W12
 BYTE   An4  v076
 BYTE   N11  En5
 BYTE   W12
//  #05 //001   ----------------------------------------
 BYTE   Gs4  v108
 BYTE   N11  En5
 BYTE   W12
 BYTE   Gs4  v076
 BYTE   N11  En5
 BYTE   W12
 BYTE   Gs4  v052
 BYTE   N11  En5
 BYTE   W12
 BYTE   Gs4  v108
 BYTE   N11  En5
 BYTE   W12
 BYTE   Gs4  v076
 BYTE   N11  En5
 BYTE   W12
 BYTE   Gs4  v052
 BYTE   N11  En5
 BYTE   W12
 BYTE   Gs4  v108
 BYTE   N11  En5
 BYTE   W12
 BYTE   Gs4  v076
 BYTE   N11  En5
 BYTE   W12
//  #05 //002   ----------------------------------------
ENDLESSLABEL2:
 BYTE   N44  An1  v096
 BYTE   N44  En2
 BYTE   W03
 BYTE   W03
 BYTE   W03
 BYTE   W03
 BYTE   W03
 BYTE   W03
 BYTE   W03
 BYTE   W03
 BYTE   W03
 BYTE   W03
 BYTE   W03
 BYTE   W03
 BYTE   W03
 BYTE   W03
 BYTE   W03
 BYTE   W03
 BYTE   Cn2
 BYTE   N44  An2
 BYTE   W03
 BYTE   W03
 BYTE   W03
 BYTE   W03
 BYTE   W03
 BYTE   W03
 BYTE   W03
 BYTE   W03
 BYTE   W03
 BYTE   W03
 BYTE   W03
 BYTE   W03
 BYTE   W03
 BYTE   W03
 BYTE   W03
 BYTE   W03
//  #05 //003   ----------------------------------------
 BYTE   Bn1
 BYTE   N44  Gn2
 BYTE   W06
 BYTE   W04
 BYTE   W03
 BYTE   W03
 BYTE   W03
 BYTE   W04
 BYTE   W03
 BYTE   W03
 BYTE   W03
 BYTE   W03
 BYTE   W04
 BYTE   W03
 BYTE   W03
 BYTE   W03
 BYTE   Gn1
 BYTE   N44  Dn2
 BYTE   W04
 BYTE   W03
 BYTE   W03
 BYTE   W03
 BYTE   W03
 BYTE   W04
 BYTE   W03
 BYTE   W03
 BYTE   W03
 BYTE   W04
 BYTE   W03
 BYTE   W03
 BYTE   W03
 BYTE   W03
 BYTE   W03
//  #05 //004   ----------------------------------------
 BYTE   N32  An1
 BYTE   N32  Dn2
 BYTE   W01
 BYTE   W03
 BYTE   W03
 BYTE   W03
 BYTE   W04
 BYTE   W01
 BYTE   W02
 BYTE   W01
 BYTE   W02
 BYTE   W01
 BYTE   W02
 BYTE   W01
 BYTE   W02
 BYTE   W01
 BYTE   W02
 BYTE   W01
 BYTE   W02
 BYTE   W01
 BYTE   W02
 BYTE   W01
 BYTE   N02  As1
 BYTE   N02  En2
 BYTE   W02
 BYTE   W01
 BYTE   Bn1
 BYTE   N02  Fs2
 BYTE   W02
 BYTE   W01
 BYTE   Cn2
 BYTE   N02  Gn2
 BYTE   W02
 BYTE   W01
 BYTE   Cs2
 BYTE   N02  An2
 BYTE   W02
 BYTE   W01
 BYTE   N17  Dn2
 BYTE   N17  Bn2
 BYTE   W18
 BYTE   En2
 BYTE   N17  Cn3
 BYTE   W12
 BYTE   W06
 BYTE   N11  Fs2
 BYTE   N11  Dn3
 BYTE   W09
 BYTE   W03
//  #05 //005   ----------------------------------------
 BYTE   N17  An2
 BYTE   N17  En3
 BYTE   W12
 BYTE   W06
 BYTE   N05  Fn2
 BYTE   N05  Dn3
 BYTE   W06
 BYTE   N68  Cn2
 BYTE   N68  An2
 BYTE   W03
 BYTE   W03
 BYTE   W03
 BYTE   W03
 BYTE   W03
 BYTE   W03
 BYTE   W03
 BYTE   W03
 BYTE   W03
 BYTE   W03
 BYTE   W03
 BYTE   W03
 BYTE   W03
 BYTE   W03
 BYTE   W01
 BYTE   W02
 BYTE   W01
 BYTE   W02
 BYTE   W01
 BYTE   W02
 BYTE   W01
 BYTE   W02
 BYTE   W01
 BYTE   W02
 BYTE   W01
 BYTE   W02
 BYTE   W01
 BYTE   W02
 BYTE   W01
 BYTE   W02
 BYTE   W01
 BYTE   W02
 BYTE   W01
 BYTE   W02
//  #05 //006   ----------------------------------------
 BYTE   N44  As1
 BYTE   N44  Fn2
 BYTE   W01
 BYTE   W02
 BYTE   W01
 BYTE   W02
 BYTE   W01
 BYTE   W02
 BYTE   W01
 BYTE   W02
 BYTE   W01
 BYTE   W02
 BYTE   W01
 BYTE   W02
 BYTE   W01
 BYTE   W02
 BYTE   W01
 BYTE   W04
 BYTE   W04
 BYTE   W04
 BYTE   W04
 BYTE   W04
 BYTE   W04
 BYTE   W02
 BYTE   N40  Dn2
 BYTE   N36  An2
 BYTE   W08
 BYTE   W06
 BYTE   W05
 BYTE   W06
 BYTE   W05
 BYTE   W06
 BYTE   W03
 BYTE   N02  Bn2  v104
 BYTE   W02
 BYTE   W01
 BYTE   Ds2
 BYTE   N02  Cn3
 BYTE   W03
 BYTE   En2
 BYTE   N02  Cs3
 BYTE   W01
 BYTE   W02
//  #05 //007   ----------------------------------------
 BYTE   N44  Fn2  v096
 BYTE   N44  Dn3
 BYTE   W30
 BYTE   W07
 BYTE   W03
 BYTE   W03
 BYTE   W04
 BYTE   W01
 BYTE   Dn2
 BYTE   N44  An2
 BYTE   W02
 BYTE   W03
 BYTE   W03
 BYTE   W04
 BYTE   W03
 BYTE   W03
 BYTE   W04
 BYTE   W03
 BYTE   W03
 BYTE   W03
 BYTE   W04
 BYTE   W03
 BYTE   W03
 BYTE   W04
 BYTE   W03
//  #05 //008   ----------------------------------------
 BYTE   Dn2
 BYTE   N44  An2
 BYTE   W03
 BYTE   W09
 BYTE   W04
 BYTE   W04
 BYTE   W04
 BYTE   W04
 BYTE   W04
 BYTE   W04
 BYTE   W04
 BYTE   W05
 BYTE   W03
 BYTE   N17  An1
 BYTE   N17  Fs2
 BYTE   W01
 BYTE   W04
 BYTE   W04
 BYTE   W04
 BYTE   W04
 BYTE   W01
 BYTE   N02  Bn1
 BYTE   N02  Gn2
 BYTE   W03
 BYTE   Cs2
 BYTE   N02  Gs2
 BYTE   W03
 BYTE   N23  Dn2
 BYTE   N23  An2
 BYTE   W02
 BYTE   W04
 BYTE   W04
 BYTE   W04
 BYTE   W04
 BYTE   W04
 BYTE   W02
//  #05 //009   ----------------------------------------
 BYTE   N48  En2
 BYTE   N48  An2
 BYTE   W02
 BYTE   W06
 BYTE   W06
 BYTE   W06
 BYTE   W05
 BYTE   W06
 BYTE   W06
 BYTE   W06
 BYTE   W05
 BYTE   N30  Bn1
 BYTE   N30  Gs2
 BYTE   W02
 BYTE   W01
 BYTE   W02
 BYTE   W01
 BYTE   W02
 BYTE   W01
 BYTE   W02
 BYTE   W01
 BYTE   W02
 BYTE   W01
 BYTE   W02
 BYTE   W01
 BYTE   W02
 BYTE   W01
 BYTE   W01
 BYTE   W02
 BYTE   W01
 BYTE   W02
 BYTE   W01
 BYTE   W02
 BYTE   W01
 BYTE   W02
 BYTE   W01
 BYTE   W02
 BYTE   W01
 BYTE   W02
 BYTE   W01
 BYTE   W01
 BYTE   W01
 BYTE   W03
 BYTE   W03
//  #05 //010   ----------------------------------------
 BYTE   W01
 BYTE   N44  An1
 BYTE   N44  En2
 BYTE   W03
 BYTE   W03
 BYTE   W03
 BYTE   W03
 BYTE   W03
 BYTE   W03
 BYTE   W03
 BYTE   W03
 BYTE   W03
 BYTE   W03
 BYTE   W03
 BYTE   W03
 BYTE   W03
 BYTE   W03
 BYTE   W03
 BYTE   W03
 BYTE   Cn2
 BYTE   N44  An2
 BYTE   W03
 BYTE   W03
 BYTE   W03
 BYTE   W03
 BYTE   W03
 BYTE   W03
 BYTE   W03
 BYTE   W03
 BYTE   W03
 BYTE   W03
 BYTE   W03
 BYTE   W03
 BYTE   W03
 BYTE   W03
 BYTE   W03
 BYTE   W02
//  #05 //011   ----------------------------------------
 BYTE   W01
 BYTE   Bn1
 BYTE   N44  Gn2
 BYTE   W06
 BYTE   W03
 BYTE   W03
 BYTE   W04
 BYTE   W03
 BYTE   W03
 BYTE   W03
 BYTE   W04
 BYTE   W03
 BYTE   W03
 BYTE   W03
 BYTE   W03
 BYTE   W04
 BYTE   W03
 BYTE   Gn1
 BYTE   N44  Dn2
 BYTE   W03
 BYTE   W03
 BYTE   W03
 BYTE   W04
 BYTE   W03
 BYTE   W03
 BYTE   W03
 BYTE   W04
 BYTE   W03
 BYTE   W03
 BYTE   W03
 BYTE   W03
 BYTE   W04
 BYTE   W03
 BYTE   W02
//  #05 //012   ----------------------------------------
 BYTE   W01
 BYTE   N32  An1
 BYTE   N32  Dn2
 BYTE   W03
 BYTE   W04
 BYTE   W03
 BYTE   W03
 BYTE   W02
 BYTE   W01
 BYTE   W02
 BYTE   W01
 BYTE   W02
 BYTE   W01
 BYTE   W02
 BYTE   W01
 BYTE   W02
 BYTE   W01
 BYTE   W02
 BYTE   W01
 BYTE   W02
 BYTE   W01
 BYTE   W02
 BYTE   N02  As1
 BYTE   N02  En2
 BYTE   W01
 BYTE   W02
 BYTE   Bn1
 BYTE   N02  Fs2
 BYTE   W01
 BYTE   W02
 BYTE   Cn2
 BYTE   N02  Gn2
 BYTE   W01
 BYTE   W02
 BYTE   Cs2
 BYTE   N02  An2
 BYTE   W01
 BYTE   W01
 BYTE   W01
 BYTE   N17  Dn2
 BYTE   N17  Bn2
 BYTE   W18
 BYTE   En2
 BYTE   N17  Cn3
 BYTE   W11
 BYTE   W07
 BYTE   N11  Fs2
 BYTE   N11  Dn3
 BYTE   W09
 BYTE   W02
//  #05 //013   ----------------------------------------
 BYTE   W01
 BYTE   N17  An2
 BYTE   N17  En3
 BYTE   W12
 BYTE   W06
 BYTE   N05  Fn2
 BYTE   N05  Dn3
 BYTE   W06
 BYTE   N68  Cn2
 BYTE   N68  An2
 BYTE   W03
 BYTE   W03
 BYTE   W03
 BYTE   W03
 BYTE   W03
 BYTE   W03
 BYTE   W03
 BYTE   W03
 BYTE   W03
 BYTE   W03
 BYTE   W03
 BYTE   W03
 BYTE   W03
 BYTE   W03
 BYTE   W01
 BYTE   W01
 BYTE   W02
 BYTE   W01
 BYTE   W02
 BYTE   W01
 BYTE   W02
 BYTE   W01
 BYTE   W02
 BYTE   W01
 BYTE   W02
 BYTE   W01
 BYTE   W02
 BYTE   W01
 BYTE   W02
 BYTE   W01
 BYTE   W02
 BYTE   W01
 BYTE   W02
 BYTE   W01
//  #05 //014   ----------------------------------------
 BYTE   W01
 BYTE   N44  As1
 BYTE   N44  Fn2
 BYTE   W01
 BYTE   W01
 BYTE   W02
 BYTE   W01
 BYTE   W02
 BYTE   W01
 BYTE   W02
 BYTE   W01
 BYTE   W02
 BYTE   W01
 BYTE   W02
 BYTE   W01
 BYTE   W02
 BYTE   W01
 BYTE   W01
 BYTE   W04
 BYTE   W04
 BYTE   W04
 BYTE   W04
 BYTE   W04
 BYTE   W04
 BYTE   W03
 BYTE   N40  Dn2
 BYTE   N36  An2
 BYTE   W08
 BYTE   W05
 BYTE   W06
 BYTE   W05
 BYTE   W06
 BYTE   W05
 BYTE   W04
 BYTE   N02  Bn2  v104
 BYTE   W02
 BYTE   W01
 BYTE   Ds2
 BYTE   N02  Cn3
 BYTE   W03
 BYTE   En2
 BYTE   N02  Cs3
 BYTE   W01
 BYTE   W01
//  #05 //015   ----------------------------------------
 BYTE   W01
 BYTE   N44  Fn2  v096
 BYTE   N44  Dn3
 BYTE   W30
 BYTE   W06
 BYTE   W03
 BYTE   W04
 BYTE   W03
 BYTE   W02
 BYTE   Dn2
 BYTE   N44  An2
 BYTE   W01
 BYTE   W04
 BYTE   W03
 BYTE   W03
 BYTE   W03
 BYTE   W04
 BYTE   W03
 BYTE   W03
 BYTE   W04
 BYTE   W03
 BYTE   W03
 BYTE   W04
 BYTE   W03
 BYTE   W03
 BYTE   W03
//  #05 //016   ----------------------------------------
 BYTE   W01
 BYTE   Dn2
 BYTE   N44  An2
 BYTE   W03
 BYTE   W08
 BYTE   W04
 BYTE   W04
 BYTE   W04
 BYTE   W05
 BYTE   W04
 BYTE   W04
 BYTE   W04
 BYTE   W04
 BYTE   W04
 BYTE   N17  An1
 BYTE   N17  Fs2
 BYTE   W04
 BYTE   W05
 BYTE   W04
 BYTE   W04
 BYTE   W01
 BYTE   N02  Bn1
 BYTE   N02  Gn2
 BYTE   W03
 BYTE   Cs2
 BYTE   N02  Gs2
 BYTE   W03
 BYTE   N23  Dn2
 BYTE   N23  An2
 BYTE   W01
 BYTE   W04
 BYTE   W04
 BYTE   W05
 BYTE   W04
 BYTE   W04
 BYTE   W01
//  #05 //017   ----------------------------------------
 BYTE   W01
 BYTE   N48  En2
 BYTE   N48  An2
 BYTE   W02
 BYTE   W06
 BYTE   W05
 BYTE   W06
 BYTE   W06
 BYTE   W06
 BYTE   W05
 BYTE   W06
 BYTE   W06
 BYTE   N30  Bn1
 BYTE   N30  Gs2
 BYTE   W01
 BYTE   W02
 BYTE   W01
 BYTE   W02
 BYTE   W01
 BYTE   W02
 BYTE   W01
 BYTE   W02
 BYTE   W01
 BYTE   W02
 BYTE   W01
 BYTE   W02
 BYTE   W01
 BYTE   W02
 BYTE   W01
 BYTE   W01
 BYTE   W02
 BYTE   W01
 BYTE   W02
 BYTE   W01
 BYTE   W02
 BYTE   W01
 BYTE   W02
 BYTE   W01
 BYTE   W02
 BYTE   W01
 BYTE   W01
 BYTE   W01
 BYTE   W01
 BYTE   W01
 BYTE   W03
 BYTE   W02
//  #05 //018   ----------------------------------------
 BYTE   W01
 BYTE   N44  An3  v127
 BYTE   W03
 BYTE   W03
 BYTE   W03
 BYTE   W03
 BYTE   W03
 BYTE   W03
 BYTE   W03
 BYTE   W03
 BYTE   W03
 BYTE   W03
 BYTE   W03
 BYTE   W03
 BYTE   W12
 BYTE   Dn4
 BYTE   W04
 BYTE   W03
 BYTE   W03
 BYTE   W03
 BYTE   W03
 BYTE   W03
 BYTE   W03
 BYTE   W02
 BYTE   W03
 BYTE   W03
 BYTE   W03
 BYTE   W03
 BYTE   W03
 BYTE   W03
 BYTE   W03
 BYTE   W02
//  #05 //019   ----------------------------------------
 BYTE   W01
 BYTE   W14
 BYTE   W02
 BYTE   W01
 BYTE   W02
 BYTE   W01
 BYTE   W01
 BYTE   W03
 BYTE   N23
 BYTE   W03
 BYTE   W03
 BYTE   W03
 BYTE   W03
 BYTE   W03
 BYTE   W03
 BYTE   W03
 BYTE   W03
 BYTE   En4
 BYTE   W24
 BYTE   Cn4
 BYTE   W23
//  #05 //020   ----------------------------------------
 BYTE   W01
 BYTE   N44  An3
 BYTE   W05
 BYTE   W03
 BYTE   W03
 BYTE   W03
 BYTE   W03
 BYTE   W03
 BYTE   W03
 BYTE   W02
 BYTE   W03
 BYTE   W03
 BYTE   W03
 BYTE   W03
 BYTE   W03
 BYTE   W03
 BYTE   W03
 BYTE   W02
 BYTE   N32  Fn3
 BYTE   W36
 BYTE   N05  Gn3
 BYTE   W06
 BYTE   An3
 BYTE   W05
//  #05 //021   ----------------------------------------
 BYTE   W01
 BYTE   N44  Gn3
 BYTE   W01
 BYTE   W04
 BYTE   W05
 BYTE   W05
 BYTE   W05
 BYTE   W04
 BYTE   W05
 BYTE   W05
 BYTE   W05
 BYTE   W03
 BYTE   W03
 BYTE   W03
 BYTE   W03
 BYTE   W03
 BYTE   W02
 BYTE   W01
 BYTE   W02
 BYTE   W01
 BYTE   N23  Dn3
 BYTE   W02
 BYTE   W01
 BYTE   W02
 BYTE   W01
 BYTE   W02
 BYTE   W01
 BYTE   W02
 BYTE   W01
 BYTE   W01
 BYTE   W11
 BYTE   N11  En3
 BYTE   W11
//  #05 //022   ----------------------------------------
 BYTE   W01
 BYTE   N44  Fn3
 BYTE   W48
 BYTE   N23  Gn3
 BYTE   W24
 BYTE   An3
 BYTE   W23
//  #05 //023   ----------------------------------------
 BYTE   W01
 BYTE   N44  Cn4
 BYTE   W06
 BYTE   W03
 BYTE   W03
 BYTE   W03
 BYTE   W03
 BYTE   W03
 BYTE   W01
 BYTE   W03
 BYTE   W03
 BYTE   W03
 BYTE   W03
 BYTE   W03
 BYTE   W03
 BYTE   W03
 BYTE   W03
 BYTE   W02
 BYTE   N17  Gn3
 BYTE   W01
 BYTE   W01
 BYTE   W16
 BYTE   An3
 BYTE   W18
 BYTE   N11  Cn4
 BYTE   W11
//  #05 //024   ----------------------------------------
 BYTE   W01
 BYTE   N17  Dn4
 BYTE   W18
 BYTE   N05  En4
 BYTE   W06
 BYTE   TIE  Dn4
 BYTE   W02
 BYTE   W03
 BYTE   W03
 BYTE   W03
 BYTE   W02
 BYTE   W03
 BYTE   W03
 BYTE   W03
 BYTE   W03
 BYTE   W03
 BYTE   W03
 BYTE   W01
 BYTE   W08
 BYTE   W04
 BYTE   W04
 BYTE   W04
 BYTE   W04
 BYTE   W04
 BYTE   W04
 BYTE   W04
 BYTE   W03
//  #05 //025   ----------------------------------------
 BYTE   W01
 BYTE   W04
 BYTE   W04
 BYTE   W04
 BYTE   W04
 BYTE   W04
 BYTE   W03
 BYTE   W03
 BYTE   W03
 BYTE   W03
 BYTE   W03
 BYTE   W03
 BYTE   W03
 BYTE   W03
 BYTE   W03
 BYTE   W03
 BYTE   W03
 BYTE   W03
 BYTE   W03
 BYTE   W03
 BYTE   W03
 BYTE   W03
 BYTE   W03
 BYTE   EOT
 BYTE   W03
 BYTE   W03
 BYTE   W03
 BYTE   W03
 BYTE   W03
 BYTE   W03
 BYTE   W02
 BYTE   W03
 BYTE   W01
//  #05 //026   ----------------------------------------
 BYTE   W01
 BYTE   N48  Fn2  v104
 BYTE   N24  An2
 BYTE   W01
 BYTE   W03
 BYTE   W03
 BYTE   W03
 BYTE   W03
 BYTE   W03
 BYTE   W03
 BYTE   W03
 BYTE   W02
 BYTE   Cn3
 BYTE   W01
 BYTE   W03
 BYTE   W03
 BYTE   W03
 BYTE   W03
 BYTE   W03
 BYTE   W03
 BYTE   W03
 BYTE   W01
 BYTE   W01
 BYTE   An2
 BYTE   N24  Fn3
 BYTE   W02
 BYTE   W03
 BYTE   W03
 BYTE   W03
 BYTE   W03
 BYTE   W03
 BYTE   W03
 BYTE   W03
 BYTE   W01
 BYTE   Cn3
 BYTE   N24  An3
 BYTE   W02
 BYTE   W03
 BYTE   W03
 BYTE   W03
 BYTE   W03
 BYTE   W03
 BYTE   W03
 BYTE   W03
//  #05 //027   ----------------------------------------
 BYTE   W01
 BYTE   N48  Dn3
 BYTE   N48  Bn3
 BYTE   W30
 BYTE   W17
 BYTE   W01
 BYTE   Bn2
 BYTE   N48  Gn3
 BYTE   W16
 BYTE   W17
 BYTE   W14
//  #05 //028   ----------------------------------------
 BYTE   W01
 BYTE   N24  Dn4
 BYTE   N48  En4
 BYTE   W02
 BYTE   W01
 BYTE   W02
 BYTE   W01
 BYTE   W02
 BYTE   W01
 BYTE   W02
 BYTE   W01
 BYTE   W02
 BYTE   W01
 BYTE   W01
 BYTE   W06
 BYTE   W02
 BYTE   N24  Cn4
 BYTE   W02
 BYTE   W03
 BYTE   W04
 BYTE   W03
 BYTE   W04
 BYTE   W03
 BYTE   W04
 BYTE   W01
 BYTE   Gn3
 BYTE   N24  Dn4  v080
 BYTE   W02
 BYTE   W03
 BYTE   W04
 BYTE   W03
 BYTE   W03
 BYTE   W03
 BYTE   W03
 BYTE   W03
 BYTE   En3  v104
 BYTE   N24  Cn4  v080
 BYTE   W03
 BYTE   W03
 BYTE   W03
 BYTE   W03
 BYTE   W03
 BYTE   W03
 BYTE   W03
 BYTE   W02
//  #05 //029   ----------------------------------------
 BYTE   W01
 BYTE   N48  Fs3  v104
 BYTE   N96  An3
 BYTE   W03
 BYTE   W03
 BYTE   W02
 BYTE   W02
 BYTE   W01
 BYTE   W02
 BYTE   W01
 BYTE   W02
 BYTE   W01
 BYTE   W02
 BYTE   W01
 BYTE   W02
 BYTE   W01
 BYTE   W02
 BYTE   W01
 BYTE   W02
 BYTE   W01
 BYTE   W02
 BYTE   W01
 BYTE   W02
 BYTE   W01
 BYTE   W02
 BYTE   W01
 BYTE   W02
 BYTE   W01
 BYTE   W02
 BYTE   W01
 BYTE   W02
 BYTE   W01
 BYTE   W01
 BYTE   N48  Dn3
 BYTE   W01
 BYTE   W03
 BYTE   W03
 BYTE   W03
 BYTE   W03
 BYTE   W03
 BYTE   W03
 BYTE   W03
 BYTE   W03
 BYTE   W03
 BYTE   W03
 BYTE   W03
 BYTE   W03
 BYTE   W03
 BYTE   W03
 BYTE   W03
 BYTE   W01
//  #05 //030   ----------------------------------------
 BYTE   W02
 BYTE   W03
 BYTE   W03
 BYTE   W02
 BYTE   W03
 BYTE   W03
 BYTE   W03
 BYTE   W03
 BYTE   W03
 BYTE   An2
 BYTE   N48  Cn3
 BYTE   W03
 BYTE   W03
 BYTE   W03
 BYTE   W03
 BYTE   W03
 BYTE   W03
 BYTE   W03
 BYTE   W03
 BYTE   W03
 BYTE   W03
 BYTE   W03
 BYTE   W03
 BYTE   W03
 BYTE   W03
 BYTE   W03
 BYTE   W01
 BYTE   W02
 BYTE   Bn2
 BYTE   N48  Dn3
 BYTE   W23
//  #05 //031   ----------------------------------------
 BYTE   W11
 BYTE   W14
 BYTE   N24  Cn3
 BYTE   N24  En3
 BYTE   W04
 BYTE   W18
 BYTE   W02
 BYTE   An2
 BYTE   N24  Fn3
 BYTE   W16
 BYTE   W08
 BYTE   N23  Cn3
 BYTE   N24  An3
 BYTE   W10
 BYTE   W13
//  #05 //032   ----------------------------------------
 BYTE   W01
 BYTE   N72  Dn3
 BYTE   N72  Bn3
 BYTE   W04
 BYTE   W02
 BYTE   W01
 BYTE   W02
 BYTE   W01
 BYTE   W02
 BYTE   W01
 BYTE   W02
 BYTE   W01
 BYTE   W02
 BYTE   W01
 BYTE   W02
 BYTE   W01
 BYTE   W08
 BYTE   W04
 BYTE   W04
 BYTE   W04
 BYTE   W04
 BYTE   W04
 BYTE   W04
 BYTE   W04
 BYTE   W04
 BYTE   W03
 BYTE   W03
 BYTE   W03
 BYTE   W01
 BYTE   N24  Fn3
 BYTE   N24  Dn4
 BYTE   W02
 BYTE   W03
 BYTE   W02
 BYTE   W03
 BYTE   W03
 BYTE   W03
 BYTE   W03
 BYTE   W03
 BYTE   W01
//  #05 //033   ----------------------------------------
 BYTE   W01
 BYTE   N96  Dn3
 BYTE   N96  Bn3
 BYTE   W03
 BYTE   W03
 BYTE   W03
 BYTE   W01
 BYTE   W01
 BYTE   W02
 BYTE   W01
 BYTE   W02
 BYTE   W01
 BYTE   W02
 BYTE   W01
 BYTE   W02
 BYTE   W01
 BYTE   W02
 BYTE   W01
 BYTE   W02
 BYTE   W01
 BYTE   W02
 BYTE   W01
 BYTE   W02
 BYTE   W01
 BYTE   W02
 BYTE   W01
 BYTE   W02
 BYTE   W01
 BYTE   W02
 BYTE   W01
 BYTE   W02
 BYTE   W01
 BYTE   W02
 BYTE   W01
 BYTE   W02
 BYTE   W01
 BYTE   W02
 BYTE   W01
 BYTE   W02
 BYTE   W01
 BYTE   W02
 BYTE   W01
 BYTE   W02
 BYTE   W01
 BYTE   W02
 BYTE   W01
 BYTE   W01
 BYTE   W03
 BYTE   W03
 BYTE   W03
 BYTE   W03
 BYTE   W02
 BYTE   W01
 BYTE   W02
 BYTE   W01
 BYTE   W02
 BYTE   W01
 BYTE   W02
 BYTE   W01
 BYTE   W02
//  #05 //034   ----------------------------------------
 BYTE   W01
 BYTE   N36  En3
 BYTE   N36  Dn4
 BYTE   W36
 BYTE   N12  En3
 BYTE   N12  Cn4
 BYTE   W12
 BYTE   En3  v056
 BYTE   N12  Cn4
 BYTE   W12
 BYTE   En3  v040
 BYTE   N12  Cn4
 BYTE   W12
 BYTE   N36  Dn3  v104
 BYTE   N36  Bn3
 BYTE   W23
//  #05 //035   ----------------------------------------
Label_019B4074:
 BYTE   W13
 BYTE   N72  Cn3  v104
 BYTE   N72  An3
 BYTE   W04
 BYTE   W01
 BYTE   W02
 BYTE   W01
 BYTE   W02
 BYTE   W01
 BYTE   W02
 BYTE   W01
 BYTE   W02
 BYTE   W01
 BYTE   W01
 BYTE   W03
 BYTE   W03
 BYTE   W03
 BYTE   W03
 BYTE   W03
 BYTE   W03
 BYTE   W03
 BYTE   W03
 BYTE   W03
 BYTE   W03
 BYTE   W03
 BYTE   W03
 BYTE   W03
 BYTE   W03
 BYTE   W03
 BYTE   W03
 BYTE   W03
 BYTE   W03
 BYTE   W03
 BYTE   W03
 BYTE   W03
 BYTE   W01
 BYTE   W01
 BYTE   PEND 
//  #05 //036   ----------------------------------------
Label_019B409D:
 BYTE   W01
 BYTE   N36  En3  v104
 BYTE   N36  Dn4
 BYTE   W36
 BYTE   N12  En3
 BYTE   N12  Cn4
 BYTE   W12
 BYTE   En3  v056
 BYTE   N12  Cn4
 BYTE   W12
 BYTE   En3  v040
 BYTE   N12  Cn4
 BYTE   W12
 BYTE   N36  Dn3  v104
 BYTE   N36  Bn3
 BYTE   W23
 BYTE   PEND 
//  #05 //037   ----------------------------------------
Label_019B40BA:
 BYTE   W10
 BYTE   W03
 BYTE   N66  Cn3  v104
 BYTE   N66  An3
 BYTE   W03
 BYTE   W03
 BYTE   W03
 BYTE   W03
 BYTE   W03
 BYTE   W03
 BYTE   W03
 BYTE   W03
 BYTE   W03
 BYTE   W03
 BYTE   W03
 BYTE   W03
 BYTE   W03
 BYTE   W03
 BYTE   W03
 BYTE   W03
 BYTE   W03
 BYTE   W03
 BYTE   W01
 BYTE   W01
 BYTE   W02
 BYTE   W01
 BYTE   W02
 BYTE   W01
 BYTE   W02
 BYTE   W01
 BYTE   W02
 BYTE   W01
 BYTE   W02
 BYTE   W01
 BYTE   W02
 BYTE   W01
 BYTE   W02
 BYTE   W01
 BYTE   W02
 BYTE   W01
 BYTE   W02
 BYTE   W01
 BYTE   PEND 
//  #05 //038   ----------------------------------------
 BYTE   N96  Cn3  v100
 BYTE   N96  En3
 BYTE   W96
//  #05 //039   ----------------------------------------
 BYTE   An2
 BYTE   N96  Dn3
 BYTE   W96
//  #05 //040   ----------------------------------------
 BYTE   Cn3
 BYTE   N96  En3
 BYTE   W96
//  #05 //041   ----------------------------------------
 BYTE   An2
 BYTE   N96  Dn3
 BYTE   W96
//  #05 //042   ----------------------------------------
 BYTE   An2
 BYTE   N96  Cn3
 BYTE   W96
//  #05 //043   ----------------------------------------
Label_019B40FE:
 BYTE   N96  Dn2  v100
 BYTE   N96  Gn2
 BYTE   N96  Bn2
 BYTE   W96
 BYTE   PEND 
//  #05 //044   ----------------------------------------
 BYTE   An2
 BYTE   N96  Cn3
 BYTE   W96
//  #05 //045   ----------------------------------------
 BYTE   PATT
  POIN2 Label_019B40FE
//  #05 //046   ----------------------------------------
 BYTE   W96
//  #05 //047   ----------------------------------------
 BYTE   W96
//  #05 //048   ----------------------------------------
 BYTE   W96
//  #05 //049   ----------------------------------------
 BYTE   W96
//  #05 //050   ----------------------------------------
Label_019B4114:
 BYTE   N48  Fn3  v100
 BYTE   N48  An3
 BYTE   W48
 BYTE   Gn3
 BYTE   N48  Bn3
 BYTE   W48
 BYTE   PEND 
//  #05 //051   ----------------------------------------
Label_019B411F:
 BYTE   N48  Gn3  v100
 BYTE   N48  Bn3
 BYTE   W48
 BYTE   An3
 BYTE   N48  Cn4
 BYTE   W48
 BYTE   PEND 
//  #05 //052   ----------------------------------------
 BYTE   PATT
  POIN2 Label_019B4114
//  #05 //053   ----------------------------------------
 BYTE   PATT
  POIN2 Label_019B411F
//  #05 //054   ----------------------------------------
 BYTE   W01
 BYTE   N36  En3  v104
 BYTE   N36  Dn4
 BYTE   W36
 BYTE   N12  En3
 BYTE   N12  Cn4
 BYTE   W12
 BYTE   En3  v056
 BYTE   N12  Cn4
 BYTE   W12
 BYTE   En3  v040
 BYTE   N12  Cn4
 BYTE   W12
 BYTE   N36  Dn3  v104
 BYTE   N36  Bn3
 BYTE   W23
//  #05 //055   ----------------------------------------
 BYTE   PATT
  POIN2 Label_019B4074
//  #05 //056   ----------------------------------------
 BYTE   PATT
  POIN2 Label_019B409D
//  #05 //057   ----------------------------------------
 BYTE   PATT
  POIN2 Label_019B40BA
//  #05 //058   ----------------------------------------
 BYTE   W01
 BYTE   N11  An4  v072
 BYTE   N11  En5
 BYTE   W12
 BYTE   An4  v040
 BYTE   N11  En5
 BYTE   W12
 BYTE   An4  v016
 BYTE   N11  En5
 BYTE   W12
 BYTE   An4  v092
 BYTE   N11  En5
 BYTE   W12
 BYTE   An4  v060
 BYTE   N11  En5
 BYTE   W12
 BYTE   An4  v036
 BYTE   N11  En5
 BYTE   W12
 BYTE   An4  v092
 BYTE   N11  En5
 BYTE   W12
 BYTE   An4  v076
 BYTE   N11  En5
 BYTE   W11
//  #05 //059   ----------------------------------------
 BYTE   W01
 BYTE   Gs4  v108
 BYTE   N11  En5
 BYTE   W12
 BYTE   Gs4  v076
 BYTE   N11  En5
 BYTE   W12
 BYTE   Gs4  v052
 BYTE   N11  En5
 BYTE   W12
 BYTE   Gs4  v108
 BYTE   N11  En5
 BYTE   W12
 BYTE   Gs4  v076
 BYTE   N11  En5
 BYTE   W12
 BYTE   Gs4  v052
 BYTE   N11  En5
 BYTE   W12
 BYTE   Gs4  v108
 BYTE   N11  En5
 BYTE   W12
 BYTE   Gs4  v076
 BYTE   N11  En5
 BYTE   W11
//  #05 //060   ----------------------------------------
 BYTE   GoTo
  POIN2 ENDLESSLABEL2
 BYTE   FINE

//**************** Track 6 (Midi-Chn.5) ****************//

song94_006:
//  #06 //000   ----------------------------------------
 BYTE   KEYSH   song94_key+0
 BYTE   VOICE   122
 BYTE   VOL   43*song94_mvl/mxv
 BYTE   PAN   c_v+0
 BYTE   N06  Cs1  v100
 BYTE   W36
 BYTE   N06
 BYTE   W36
 BYTE   N06
 BYTE   W24
//  #06 //001   ----------------------------------------
 BYTE   N06
 BYTE   W24
 BYTE   Dn1  v120
 BYTE   W12
 BYTE   Cs1  v100
 BYTE   W06
 BYTE   Dn1  v080
 BYTE   W12
 BYTE   Dn1  v064
 BYTE   W18
 BYTE   Cs1  v100
 BYTE   N06  Dn1  v120
 BYTE   W24
//  #06 //002   ----------------------------------------
Label_019B41DC:
 BYTE   N06  Cs1  v100
 BYTE   N24  An2
 BYTE   N06  An3
 BYTE   W12
 BYTE   Dn3
 BYTE   N06  An3
 BYTE   W06
 BYTE   Cs1
 BYTE   N06  Dn3
 BYTE   W06
 BYTE   Dn1
 BYTE   N06  Ds3
 BYTE   N06  An3
 BYTE   W06
 BYTE   Ds3
 BYTE   W06
 BYTE   Cs1
 BYTE   N06  En3
 BYTE   N06  An3
 BYTE   W06
 BYTE   En3
 BYTE   W06
 BYTE   Cs1
 BYTE   N06  Fs3
 BYTE   N06  An3
 BYTE   W12
 BYTE   Fn3
 BYTE   N06  An3
 BYTE   W06
 BYTE   Fn3
 BYTE   W06
 BYTE   Dn1
 BYTE   N06  Ds3
 BYTE   N06  An3
 BYTE   W06
 BYTE   Ds3
 BYTE   W06
 BYTE   En3
 BYTE   N06  An3
 BYTE   W06
 BYTE   En3
 BYTE   W06
//  #06 //003   ----------------------------------------
Label_019B4216:
 BYTE   N06  Cs1  v100
 BYTE   N06  An3
 BYTE   W12
 BYTE   Dn3
 BYTE   N06  An3
 BYTE   W06
 BYTE   Cs1
 BYTE   W06
 BYTE   Dn1
 BYTE   N06  Ds3
 BYTE   N06  An3
 BYTE   W06
 BYTE   Ds3
 BYTE   W06
 BYTE   Cs1
 BYTE   N06  En3
 BYTE   N06  An3
 BYTE   W06
 BYTE   En3
 BYTE   W06
 BYTE   Cs1
 BYTE   N06  Fs3
 BYTE   N06  An3
 BYTE   W12
 BYTE   Fn3
 BYTE   N06  An3
 BYTE   W06
 BYTE   Fn3
 BYTE   W06
 BYTE   Dn1
 BYTE   N06  Ds3
 BYTE   N06  An3
 BYTE   W06
 BYTE   Ds3
 BYTE   W06
 BYTE   En3
 BYTE   N06  An3
 BYTE   W06
 BYTE   En3
 BYTE   W06
 BYTE   PEND 
//  #06 //004   ----------------------------------------
Label_019B424D:
 BYTE   N06  Cs1  v100
 BYTE   N06  An3
 BYTE   W12
 BYTE   Dn3
 BYTE   N06  An3
 BYTE   W06
 BYTE   Cs1
 BYTE   N06  Dn3
 BYTE   W06
 BYTE   Dn1
 BYTE   N06  Ds3
 BYTE   N06  An3
 BYTE   W06
 BYTE   Ds3
 BYTE   W06
 BYTE   Cs1
 BYTE   N06  En3
 BYTE   N06  An3
 BYTE   W06
 BYTE   En3
 BYTE   W06
 BYTE   Cs1
 BYTE   N06  Fs3
 BYTE   N06  An3
 BYTE   W12
 BYTE   Fn3
 BYTE   N06  An3
 BYTE   W06
 BYTE   Fn3
 BYTE   W06
 BYTE   Dn1
 BYTE   N06  Ds3
 BYTE   N06  An3
 BYTE   W06
 BYTE   Ds3
 BYTE   W06
 BYTE   En3
 BYTE   N06  An3
 BYTE   W06
 BYTE   En3
 BYTE   W06
 BYTE   PEND 
//  #06 //005   ----------------------------------------
 BYTE   PATT
  POIN2 Label_019B4216
//  #06 //006   ----------------------------------------
 BYTE   PATT
  POIN2 Label_019B424D
//  #06 //007   ----------------------------------------
 BYTE   PATT
  POIN2 Label_019B4216
//  #06 //008   ----------------------------------------
 BYTE   PATT
  POIN2 Label_019B424D
//  #06 //009   ----------------------------------------
Label_019B429A:
 BYTE   N06  Cs1  v100
 BYTE   N06  An3
 BYTE   W12
 BYTE   Dn3
 BYTE   N06  An3
 BYTE   W06
 BYTE   Cs1
 BYTE   W06
 BYTE   Dn1
 BYTE   N06  Ds3
 BYTE   N06  An3
 BYTE   W06
 BYTE   Ds3
 BYTE   W06
 BYTE   Cs1
 BYTE   N06  En3
 BYTE   N06  An3
 BYTE   W06
 BYTE   En3
 BYTE   W06
 BYTE   Cs1
 BYTE   N06  Fn3
 BYTE   N06  An3
 BYTE   W06
 BYTE   Fn3  v064
 BYTE   W06
 BYTE   Dn1  v100
 BYTE   N06  Fn3
 BYTE   N06  An3
 BYTE   W06
 BYTE   Fn3  v064
 BYTE   W06
 BYTE   Dn1  v100
 BYTE   N06  Fn3
 BYTE   N06  An3
 BYTE   W06
 BYTE   Fn3  v064
 BYTE   W06
 BYTE   Dn1  v100
 BYTE   N06  Fs3
 BYTE   N06  An3
 BYTE   W06
 BYTE   Dn1
 BYTE   N06  Fs3
 BYTE   W06
 BYTE   PEND 
//  #06 //010   ----------------------------------------
 BYTE   PATT
  POIN2 Label_019B424D
//  #06 //011   ----------------------------------------
 BYTE   PATT
  POIN2 Label_019B4216
//  #06 //012   ----------------------------------------
 BYTE   PATT
  POIN2 Label_019B424D
//  #06 //013   ----------------------------------------
 BYTE   PATT
  POIN2 Label_019B4216
//  #06 //014   ----------------------------------------
 BYTE   PATT
  POIN2 Label_019B424D
//  #06 //015   ----------------------------------------
 BYTE   PATT
  POIN2 Label_019B4216
//  #06 //016   ----------------------------------------
 BYTE   PATT
  POIN2 Label_019B424D
//  #06 //017   ----------------------------------------
 BYTE   PATT
  POIN2 Label_019B429A
//  #06 //018   ----------------------------------------
 BYTE   PATT
  POIN2 Label_019B424D
//  #06 //019   ----------------------------------------
 BYTE   PATT
  POIN2 Label_019B4216
//  #06 //020   ----------------------------------------
 BYTE   PATT
  POIN2 Label_019B424D
//  #06 //021   ----------------------------------------
 BYTE   PATT
  POIN2 Label_019B4216
//  #06 //022   ----------------------------------------
 BYTE   PATT
  POIN2 Label_019B424D
//  #06 //023   ----------------------------------------
 BYTE   PATT
  POIN2 Label_019B4216
//  #06 //024   ----------------------------------------
 BYTE   PATT
  POIN2 Label_019B424D
//  #06 //025   ----------------------------------------
 BYTE   PATT
  POIN2 Label_019B429A
//  #06 //026   ----------------------------------------
 BYTE   PATT
  POIN2 Label_019B424D
//  #06 //027   ----------------------------------------
 BYTE   PATT
  POIN2 Label_019B4216
//  #06 //028   ----------------------------------------
 BYTE   PATT
  POIN2 Label_019B424D
//  #06 //029   ----------------------------------------
 BYTE   PATT
  POIN2 Label_019B4216
//  #06 //030   ----------------------------------------
 BYTE   PATT
  POIN2 Label_019B424D
//  #06 //031   ----------------------------------------
 BYTE   PATT
  POIN2 Label_019B4216
//  #06 //032   ----------------------------------------
 BYTE   PATT
  POIN2 Label_019B424D
//  #06 //033   ----------------------------------------
 BYTE   PATT
  POIN2 Label_019B429A
//  #06 //034   ----------------------------------------
 BYTE   PATT
  POIN2 Label_019B424D
//  #06 //035   ----------------------------------------
 BYTE   PATT
  POIN2 Label_019B4216
//  #06 //036   ----------------------------------------
 BYTE   PATT
  POIN2 Label_019B424D
//  #06 //037   ----------------------------------------
 BYTE   PATT
  POIN2 Label_019B429A
//  #06 //038   ----------------------------------------
Label_019B436B:
 BYTE   W12
 BYTE   N06  Dn3  v100
 BYTE   W06
 BYTE   N06
 BYTE   W06
 BYTE   Ds3
 BYTE   W06
 BYTE   N06
 BYTE   W06
 BYTE   En3
 BYTE   W06
 BYTE   N06
 BYTE   W06
 BYTE   Fs3
 BYTE   W12
 BYTE   Fn3
 BYTE   W06
 BYTE   N06
 BYTE   W06
 BYTE   Ds3
 BYTE   W06
 BYTE   N06
 BYTE   W06
 BYTE   En3
 BYTE   W06
 BYTE   N06
 BYTE   W06
 BYTE   PEND 
//  #06 //039   ----------------------------------------
Label_019B4389:
 BYTE   W12
 BYTE   N06  Dn3  v100
 BYTE   W12
 BYTE   Ds3
 BYTE   W06
 BYTE   N06
 BYTE   W06
 BYTE   En3
 BYTE   W06
 BYTE   N06
 BYTE   W06
 BYTE   Fs3
 BYTE   W12
 BYTE   Fn3
 BYTE   W06
 BYTE   N06
 BYTE   W06
 BYTE   Ds3
 BYTE   W06
 BYTE   N06
 BYTE   W06
 BYTE   En3
 BYTE   W06
 BYTE   N06
 BYTE   W06
 BYTE   PEND 
//  #06 //040   ----------------------------------------
 BYTE   PATT
  POIN2 Label_019B436B
//  #06 //041   ----------------------------------------
 BYTE   PATT
  POIN2 Label_019B4389
//  #06 //042   ----------------------------------------
 BYTE   PATT
  POIN2 Label_019B436B
//  #06 //043   ----------------------------------------
 BYTE   PATT
  POIN2 Label_019B4389
//  #06 //044   ----------------------------------------
 BYTE   PATT
  POIN2 Label_019B436B
//  #06 //045   ----------------------------------------
 BYTE   W12
 BYTE   N06  Dn3  v100
 BYTE   W12
 BYTE   Ds3
 BYTE   W06
 BYTE   N06
 BYTE   W06
 BYTE   En3
 BYTE   W06
 BYTE   N06
 BYTE   W06
 BYTE   Fn3
 BYTE   W06
 BYTE   Fn3  v064
 BYTE   W06
 BYTE   Dn1  v100
 BYTE   N06  Fn3
 BYTE   W06
 BYTE   Fn3  v064
 BYTE   W06
 BYTE   Dn1  v100
 BYTE   N06  Fn3
 BYTE   W06
 BYTE   Fn3  v064
 BYTE   W06
 BYTE   Dn1  v100
 BYTE   N06  Fs3
 BYTE   W06
 BYTE   Dn1
 BYTE   N06  Fs3
 BYTE   W06
//  #06 //046   ----------------------------------------
 BYTE   PATT
  POIN2 Label_019B424D
//  #06 //047   ----------------------------------------
 BYTE   PATT
  POIN2 Label_019B4216
//  #06 //048   ----------------------------------------
 BYTE   PATT
  POIN2 Label_019B424D
//  #06 //049   ----------------------------------------
 BYTE   PATT
  POIN2 Label_019B4216
//  #06 //050   ----------------------------------------
 BYTE   PATT
  POIN2 Label_019B424D
//  #06 //051   ----------------------------------------
 BYTE   PATT
  POIN2 Label_019B4216
//  #06 //052   ----------------------------------------
 BYTE   PATT
  POIN2 Label_019B424D
//  #06 //053   ----------------------------------------
 BYTE   PATT
  POIN2 Label_019B429A
//  #06 //054   ----------------------------------------
 BYTE   PATT
  POIN2 Label_019B424D
//  #06 //055   ----------------------------------------
 BYTE   PATT
  POIN2 Label_019B4216
//  #06 //056   ----------------------------------------
 BYTE   PATT
  POIN2 Label_019B424D
//  #06 //057   ----------------------------------------
 BYTE   N06  Cs1  v100
 BYTE   N06  An3
 BYTE   W12
 BYTE   Dn3
 BYTE   N06  An3
 BYTE   W06
 BYTE   Cs1
 BYTE   W06
 BYTE   Dn1
 BYTE   N06  Ds3
 BYTE   N06  An3
 BYTE   W06
 BYTE   Ds3
 BYTE   W06
 BYTE   Cs1
 BYTE   N06  En3
 BYTE   N06  An3
 BYTE   W06
 BYTE   En3
 BYTE   W06
 BYTE   Cs1
 BYTE   N06  Fn3
 BYTE   N06  An3
 BYTE   W06
 BYTE   Fn3  v064
 BYTE   W06
 BYTE   Dn1  v100
 BYTE   N06  Fn3
 BYTE   N06  An3
 BYTE   W06
 BYTE   Fn3
 BYTE   W06
 BYTE   Dn1
 BYTE   N06  Fn3
 BYTE   N06  An3
 BYTE   W06
 BYTE   Fn3  v064
 BYTE   W06
 BYTE   Dn1  v100
 BYTE   N06  Fs3
 BYTE   N06  An3
 BYTE   W06
 BYTE   Dn1
 BYTE   N06  Fs3
 BYTE   W06
//  #06 //058   ----------------------------------------
 BYTE   PATT
  POIN2 Label_019B424D
//  #06 //059   ----------------------------------------
 BYTE   PATT
  POIN2 Label_019B429A
//  #06 //060   ----------------------------------------
 BYTE   GoTo
  POIN2 Label_019B41DC
 BYTE   FINE

//**************** Track 7 (Midi-Chn.6) ****************//

song94_007:
//  #07 //000   ----------------------------------------
 BYTE   KEYSH   song94_key+0
 BYTE   VOICE   55
 BYTE   VOL   31*song94_mvl/mxv
 BYTE   PAN   c_v+0
 BYTE   BEND   c_v+0
 BYTE   N24  An3  v088
 BYTE   W96
//  #07 //001   ----------------------------------------
 BYTE   Gs3  v108
 BYTE   W96
//  #07 //002   ----------------------------------------
Label_019B4485:
 BYTE   N12  An3  v100
 BYTE   W96
//  #07 //003   ----------------------------------------
 BYTE   W84
 BYTE   En3
 BYTE   W12
//  #07 //004   ----------------------------------------
 BYTE   An3
 BYTE   W96
//  #07 //005   ----------------------------------------
 BYTE   W84
 BYTE   En3
 BYTE   W12
//  #07 //006   ----------------------------------------
 BYTE   An3
 BYTE   W96
//  #07 //007   ----------------------------------------
 BYTE   W84
 BYTE   En3
 BYTE   W12
//  #07 //008   ----------------------------------------
 BYTE   An3
 BYTE   W96
//  #07 //009   ----------------------------------------
 BYTE   W96
//  #07 //010   ----------------------------------------
 BYTE   N12
 BYTE   W96
//  #07 //011   ----------------------------------------
 BYTE   W84
 BYTE   En3
 BYTE   W12
//  #07 //012   ----------------------------------------
 BYTE   An3
 BYTE   W96
//  #07 //013   ----------------------------------------
 BYTE   W84
 BYTE   En3
 BYTE   W12
//  #07 //014   ----------------------------------------
 BYTE   An3
 BYTE   W96
//  #07 //015   ----------------------------------------
 BYTE   W84
 BYTE   En3
 BYTE   W12
//  #07 //016   ----------------------------------------
 BYTE   An3
 BYTE   W96
//  #07 //017   ----------------------------------------
 BYTE   W96
//  #07 //018   ----------------------------------------
 BYTE   VOL   25*song94_mvl/mxv
 BYTE   N44  An2  v124
 BYTE   W03
 BYTE   W03
 BYTE   W03
 BYTE   W03
 BYTE   W03
 BYTE   W03
 BYTE   W03
 BYTE   W03
 BYTE   W03
 BYTE   W03
 BYTE   W03
 BYTE   W03
 BYTE   W12
 BYTE   Dn3
 BYTE   W04
 BYTE   W03
 BYTE   W03
 BYTE   W03
 BYTE   W03
 BYTE   W03
 BYTE   W03
 BYTE   W02
 BYTE   W03
 BYTE   W03
 BYTE   W03
 BYTE   W03
 BYTE   W03
 BYTE   W03
 BYTE   W03
 BYTE   W03
//  #07 //019   ----------------------------------------
 BYTE   W14
 BYTE   W02
 BYTE   W01
 BYTE   W02
 BYTE   W01
 BYTE   W01
 BYTE   W03
 BYTE   N23
 BYTE   W03
 BYTE   W03
 BYTE   W03
 BYTE   W03
 BYTE   W03
 BYTE   W03
 BYTE   W03
 BYTE   W03
 BYTE   En3
 BYTE   W24
 BYTE   Cn3
 BYTE   W24
//  #07 //020   ----------------------------------------
 BYTE   N44  An2
 BYTE   W05
 BYTE   W03
 BYTE   W03
 BYTE   W03
 BYTE   W03
 BYTE   W03
 BYTE   W03
 BYTE   W02
 BYTE   W03
 BYTE   W03
 BYTE   W03
 BYTE   W03
 BYTE   W03
 BYTE   W03
 BYTE   W03
 BYTE   W02
 BYTE   N32  Fn2
 BYTE   W36
 BYTE   N05  Gn2
 BYTE   W06
 BYTE   An2
 BYTE   W06
//  #07 //021   ----------------------------------------
 BYTE   N44  Gn2
 BYTE   W01
 BYTE   W04
 BYTE   W05
 BYTE   W05
 BYTE   W05
 BYTE   W04
 BYTE   W05
 BYTE   W05
 BYTE   W05
 BYTE   W03
 BYTE   W03
 BYTE   W03
 BYTE   W03
 BYTE   W03
 BYTE   W02
 BYTE   W01
 BYTE   W02
 BYTE   W01
 BYTE   N23  Dn2
 BYTE   W02
 BYTE   W01
 BYTE   W02
 BYTE   W01
 BYTE   W02
 BYTE   W01
 BYTE   W02
 BYTE   W01
 BYTE   W01
 BYTE   W11
 BYTE   N11  En2
 BYTE   W12
//  #07 //022   ----------------------------------------
 BYTE   N44  Fn2
 BYTE   W48
 BYTE   N23  Gn2
 BYTE   W24
 BYTE   An2
 BYTE   W24
//  #07 //023   ----------------------------------------
 BYTE   N44  Cn3
 BYTE   W06
 BYTE   W03
 BYTE   W03
 BYTE   W03
 BYTE   W03
 BYTE   W03
 BYTE   W01
 BYTE   W03
 BYTE   W03
 BYTE   W03
 BYTE   W03
 BYTE   W03
 BYTE   W03
 BYTE   W03
 BYTE   W03
 BYTE   W02
 BYTE   N17  Gn2
 BYTE   W01
 BYTE   W01
 BYTE   W16
 BYTE   An2
 BYTE   W18
 BYTE   N11  Cn3
 BYTE   W12
//  #07 //024   ----------------------------------------
 BYTE   N17  Dn3
 BYTE   W18
 BYTE   N05  En3
 BYTE   W06
 BYTE   TIE  Dn3
 BYTE   W02
 BYTE   W03
 BYTE   W03
 BYTE   W03
 BYTE   W02
 BYTE   W03
 BYTE   W03
 BYTE   W03
 BYTE   W03
 BYTE   W03
 BYTE   W03
 BYTE   W01
 BYTE   W08
 BYTE   W05
 BYTE   W04
 BYTE   W05
 BYTE   W04
 BYTE   W05
 BYTE   W04
 BYTE   W05
//  #07 //025   ----------------------------------------
 BYTE   W01
 BYTE   W01
 BYTE   W01
 BYTE   W01
 BYTE   W01
 BYTE   W01
 BYTE   W01
 BYTE   W01
 BYTE   W01
 BYTE   W01
 BYTE   W01
 BYTE   W01
 BYTE   W01
 BYTE   W01
 BYTE   W01
 BYTE   W01
 BYTE   W01
 BYTE   W01
 BYTE   W01
 BYTE   W01
 BYTE   W09
 BYTE   EOT
 BYTE   W07
 BYTE   VOL   24*song94_mvl/mxv
 BYTE   PAN   c_v-25
 BYTE   BEND   c_v+0
 BYTE   W36
 BYTE   N03  En3  v108
 BYTE   W01
 BYTE   W02
 BYTE   Fs3
 BYTE   W04
 BYTE   Gn3
 BYTE   W04
 BYTE   An3
 BYTE   W03
 BYTE   Bn3
 BYTE   W03
 BYTE   Cn4
 BYTE   W04
 BYTE   N02  Dn4
 BYTE   W03
//  #07 //026   ----------------------------------------
 BYTE   N44  En4
 BYTE   W07
 BYTE   W01
 BYTE   W02
 BYTE   W01
 BYTE   W02
 BYTE   W01
 BYTE   W02
 BYTE   W01
 BYTE   W02
 BYTE   W01
 BYTE   W02
 BYTE   W01
 BYTE   W02
 BYTE   W01
 BYTE   W06
 BYTE   W03
 BYTE   W03
 BYTE   W03
 BYTE   W03
 BYTE   W03
 BYTE   W01
 BYTE   Cn5
 BYTE   W02
 BYTE   W03
 BYTE   W03
 BYTE   W03
 BYTE   W03
 BYTE   W03
 BYTE   W03
 BYTE   W03
 BYTE   W03
 BYTE   W03
 BYTE   W03
 BYTE   W03
 BYTE   W04
 BYTE   W09
//  #07 //027   ----------------------------------------
 BYTE   W24
 BYTE   N23  Bn4
 BYTE   W24
 BYTE   An4
 BYTE   W24
 BYTE   Gn4
 BYTE   W22
 BYTE   W02
//  #07 //028   ----------------------------------------
 BYTE   N44  En4
 BYTE   W01
 BYTE   W03
 BYTE   W03
 BYTE   W03
 BYTE   W03
 BYTE   W03
 BYTE   W02
 BYTE   W03
 BYTE   W03
 BYTE   W03
 BYTE   W03
 BYTE   W03
 BYTE   W03
 BYTE   W03
 BYTE   W03
 BYTE   W03
 BYTE   W03
 BYTE   N17  Gn4
 BYTE   W18
 BYTE   Cn4
 BYTE   W18
 BYTE   N11  En4
 BYTE   W12
//  #07 //029   ----------------------------------------
 BYTE   N44  Dn4
 BYTE   W03
 BYTE   W03
 BYTE   W03
 BYTE   W03
 BYTE   W03
 BYTE   W03
 BYTE   W01
 BYTE   W03
 BYTE   W03
 BYTE   W03
 BYTE   W03
 BYTE   W03
 BYTE   W03
 BYTE   W03
 BYTE   W03
 BYTE   W03
 BYTE   W02
 BYTE   N23  An3
 BYTE   W24
 BYTE   Bn3
 BYTE   W24
//  #07 //030   ----------------------------------------
 BYTE   TIE  Cn4
 BYTE   W03
 BYTE   W03
 BYTE   W03
 BYTE   W03
 BYTE   W03
 BYTE   W03
 BYTE   W03
 BYTE   W03
 BYTE   W03
 BYTE   W03
 BYTE   W03
 BYTE   W03
 BYTE   W03
 BYTE   W03
 BYTE   W03
 BYTE   W03
 BYTE   W03
 BYTE   W03
 BYTE   W01
 BYTE   W03
 BYTE   W04
 BYTE   W04
 BYTE   W04
 BYTE   W03
 BYTE   W04
 BYTE   W04
 BYTE   W03
 BYTE   W04
 BYTE   W04
 BYTE   W03
 BYTE   W01
//  #07 //031   ----------------------------------------
 BYTE   W03
 BYTE   W04
 BYTE   W04
 BYTE   W03
 BYTE   W04
 BYTE   W04
 BYTE   W03
 BYTE   W04
 BYTE   W04
 BYTE   W03
 BYTE   W04
 BYTE   W04
 BYTE   W03
 BYTE   EOT
 BYTE   W01
 BYTE   N17  Bn3
 BYTE   W18
 BYTE   Cn4
 BYTE   W18
 BYTE   N11  Dn4
 BYTE   W12
//  #07 //032   ----------------------------------------
 BYTE   N60  En4
 BYTE   W03
 BYTE   W03
 BYTE   W03
 BYTE   W03
 BYTE   W03
 BYTE   W03
 BYTE   W01
 BYTE   W03
 BYTE   W03
 BYTE   W03
 BYTE   W03
 BYTE   W03
 BYTE   W03
 BYTE   W03
 BYTE   W03
 BYTE   W03
 BYTE   W03
 BYTE   W03
 BYTE   W03
 BYTE   W03
 BYTE   W03
 BYTE   W11
 BYTE   N17
 BYTE   W18
 BYTE   N05  Fn4
 BYTE   W06
//  #07 //033   ----------------------------------------
 BYTE   N92  En4
 BYTE   W06
 BYTE   W08
 BYTE   W05
 BYTE   W04
 BYTE   W05
 BYTE   W04
 BYTE   W05
 BYTE   W04
 BYTE   W05
 BYTE   W03
 BYTE   W03
 BYTE   W03
 BYTE   W03
 BYTE   W03
 BYTE   W03
 BYTE   W03
 BYTE   W03
 BYTE   W03
 BYTE   W03
 BYTE   W03
 BYTE   W03
 BYTE   W03
 BYTE   W03
 BYTE   W03
 BYTE   W03
 BYTE   W02
//  #07 //034   ----------------------------------------
 BYTE   W68
 BYTE   W03
 BYTE   VOL   31*song94_mvl/mxv
 BYTE   W24
 BYTE   W01
//  #07 //035   ----------------------------------------
 BYTE   W96
//  #07 //036   ----------------------------------------
 BYTE   W96
//  #07 //037   ----------------------------------------
 BYTE   W84
 BYTE   N12  En3  v100
 BYTE   W12
//  #07 //038   ----------------------------------------
 BYTE   An3
 BYTE   W96
//  #07 //039   ----------------------------------------
 BYTE   W96
//  #07 //040   ----------------------------------------
 BYTE   W96
//  #07 //041   ----------------------------------------
 BYTE   W96
//  #07 //042   ----------------------------------------
 BYTE   W96
//  #07 //043   ----------------------------------------
 BYTE   W96
//  #07 //044   ----------------------------------------
 BYTE   W96
//  #07 //045   ----------------------------------------
 BYTE   W84
 BYTE   En3
 BYTE   W12
//  #07 //046   ----------------------------------------
 BYTE   An3
 BYTE   W96
//  #07 //047   ----------------------------------------
 BYTE   W84
 BYTE   En3
 BYTE   W12
//  #07 //048   ----------------------------------------
 BYTE   An3
 BYTE   W96
//  #07 //049   ----------------------------------------
 BYTE   W84
 BYTE   En3
 BYTE   W12
//  #07 //050   ----------------------------------------
 BYTE   An3
 BYTE   W96
//  #07 //051   ----------------------------------------
 BYTE   W84
 BYTE   En3
 BYTE   W12
//  #07 //052   ----------------------------------------
 BYTE   An3
 BYTE   W96
//  #07 //053   ----------------------------------------
 BYTE   W84
 BYTE   En3
 BYTE   W12
//  #07 //054   ----------------------------------------
 BYTE   An3
 BYTE   W96
//  #07 //055   ----------------------------------------
 BYTE   W96
//  #07 //056   ----------------------------------------
 BYTE   W96
//  #07 //057   ----------------------------------------
 BYTE   W96
//  #07 //058   ----------------------------------------
 BYTE   W96
//  #07 //059   ----------------------------------------
 BYTE   W96
//  #07 //060   ----------------------------------------
 BYTE   GoTo
  POIN2 Label_019B4485
 BYTE   FINE

//**************** Track 8 (Midi-Chn.7) ****************//

song94_008:
//  #08 //000   ----------------------------------------
 BYTE   KEYSH   song94_key+0
 BYTE   VOICE   45
 BYTE   VOL   23*song94_mvl/mxv
 BYTE   PAN   c_v+12
 BYTE   W96
//  #08 //001   ----------------------------------------
 BYTE   W96
//  #08 //002   ----------------------------------------
Label_0192AEB2:
 BYTE   N06  An3  v100
 BYTE   W06
 BYTE   N06
 BYTE   W06
 BYTE   En4
 BYTE   W12
 BYTE   Dn4
 BYTE   W12
 BYTE   En4
 BYTE   W06
 BYTE   An3
 BYTE   W12
 BYTE   N06
 BYTE   W06
 BYTE   En4
 BYTE   W12
 BYTE   An4
 BYTE   W06
 BYTE   N06
 BYTE   W06
 BYTE   En4
 BYTE   W12
 BYTE   PEND 
//  #08 //003   ----------------------------------------
Label_0192AECB:
 BYTE   N06  An3  v100
 BYTE   W06
 BYTE   N06
 BYTE   W06
 BYTE   En4
 BYTE   W12
 BYTE   Dn4
 BYTE   W12
 BYTE   En4
 BYTE   W06
 BYTE   An3
 BYTE   W12
 BYTE   N06
 BYTE   W06
 BYTE   En4
 BYTE   W12
 BYTE   Bn3
 BYTE   W06
 BYTE   N06
 BYTE   W06
 BYTE   Cn4
 BYTE   W12
 BYTE   PEND 
//  #08 //004   ----------------------------------------
 BYTE   PATT
  POIN2 Label_0192AEB2
//  #08 //005   ----------------------------------------
 BYTE   PATT
  POIN2 Label_0192AECB
//  #08 //006   ----------------------------------------
 BYTE   PATT
  POIN2 Label_0192AEB2
//  #08 //007   ----------------------------------------
 BYTE   PATT
  POIN2 Label_0192AECB
//  #08 //008   ----------------------------------------
 BYTE   PATT
  POIN2 Label_0192AEB2
//  #08 //009   ----------------------------------------
 BYTE   PATT
  POIN2 Label_0192AECB
//  #08 //010   ----------------------------------------
 BYTE   PATT
  POIN2 Label_0192AEB2
//  #08 //011   ----------------------------------------
 BYTE   PATT
  POIN2 Label_0192AECB
//  #08 //012   ----------------------------------------
 BYTE   PATT
  POIN2 Label_0192AEB2
//  #08 //013   ----------------------------------------
 BYTE   PATT
  POIN2 Label_0192AECB
//  #08 //014   ----------------------------------------
 BYTE   PATT
  POIN2 Label_0192AEB2
//  #08 //015   ----------------------------------------
 BYTE   PATT
  POIN2 Label_0192AECB
//  #08 //016   ----------------------------------------
 BYTE   PATT
  POIN2 Label_0192AEB2
//  #08 //017   ----------------------------------------
 BYTE   PATT
  POIN2 Label_0192AECB
//  #08 //018   ----------------------------------------
 BYTE   W96
//  #08 //019   ----------------------------------------
 BYTE   W96
//  #08 //020   ----------------------------------------
 BYTE   W96
//  #08 //021   ----------------------------------------
 BYTE   W96
//  #08 //022   ----------------------------------------
 BYTE   W96
//  #08 //023   ----------------------------------------
 BYTE   W96
//  #08 //024   ----------------------------------------
 BYTE   W96
//  #08 //025   ----------------------------------------
 BYTE   W96
//  #08 //026   ----------------------------------------
 BYTE   PATT
  POIN2 Label_0192AEB2
//  #08 //027   ----------------------------------------
 BYTE   PATT
  POIN2 Label_0192AECB
//  #08 //028   ----------------------------------------
 BYTE   PATT
  POIN2 Label_0192AEB2
//  #08 //029   ----------------------------------------
 BYTE   PATT
  POIN2 Label_0192AECB
//  #08 //030   ----------------------------------------
 BYTE   PATT
  POIN2 Label_0192AEB2
//  #08 //031   ----------------------------------------
 BYTE   PATT
  POIN2 Label_0192AECB
//  #08 //032   ----------------------------------------
 BYTE   PATT
  POIN2 Label_0192AEB2
//  #08 //033   ----------------------------------------
 BYTE   PATT
  POIN2 Label_0192AECB
//  #08 //034   ----------------------------------------
 BYTE   W96
//  #08 //035   ----------------------------------------
 BYTE   W96
//  #08 //036   ----------------------------------------
 BYTE   W96
//  #08 //037   ----------------------------------------
 BYTE   W96
//  #08 //038   ----------------------------------------
 BYTE   W96
//  #08 //039   ----------------------------------------
 BYTE   W96
//  #08 //040   ----------------------------------------
 BYTE   W96
//  #08 //041   ----------------------------------------
 BYTE   W96
//  #08 //042   ----------------------------------------
 BYTE   W96
//  #08 //043   ----------------------------------------
 BYTE   W96
//  #08 //044   ----------------------------------------
 BYTE   W96
//  #08 //045   ----------------------------------------
 BYTE   W96
//  #08 //046   ----------------------------------------
 BYTE   W96
//  #08 //047   ----------------------------------------
 BYTE   W96
//  #08 //048   ----------------------------------------
 BYTE   W96
//  #08 //049   ----------------------------------------
 BYTE   W96
//  #08 //050   ----------------------------------------
 BYTE   PATT
  POIN2 Label_0192AEB2
//  #08 //051   ----------------------------------------
 BYTE   PATT
  POIN2 Label_0192AECB
//  #08 //052   ----------------------------------------
 BYTE   PATT
  POIN2 Label_0192AEB2
//  #08 //053   ----------------------------------------
 BYTE   PATT
  POIN2 Label_0192AECB
//  #08 //054   ----------------------------------------
 BYTE   W96
//  #08 //055   ----------------------------------------
 BYTE   W96
//  #08 //056   ----------------------------------------
 BYTE   W96
//  #08 //057   ----------------------------------------
 BYTE   W96
//  #08 //058   ----------------------------------------
 BYTE   W96
//  #08 //059   ----------------------------------------
 BYTE   W96
//  #08 //060   ----------------------------------------
 BYTE   GoTo
  POIN2 Label_0192AEB2
 BYTE   FINE

//******************************************************//
	ALIGN 4

song94:
	BYTE	8	// NumTrks
	BYTE	0	// NumBlks
	BYTE	song94_pri	// Priority
	BYTE	song94_rev	// Reverb.
    
	POIN2	song94_grp
    
	POIN2	song94_001
	POIN2	song94_002
	POIN2	song94_003
	POIN2	song94_004
	POIN2	song94_005
	POIN2	song94_006
	POIN2	song94_007
	POIN2	song94_008

	
