	.include "MPlayDef.s"

	.equ	song94_grp, voicegroup000
	.equ	song94_pri, 0
	.equ	song94_rev, 0
	.equ	song94_mvl, 127
	.equ	song94_key, 0
	.equ	song94_tbs, 1
	.equ	song94_exg, 0
	.equ	song94_cmp, 1

	.section .rodata
	.global	song94
	.align	2


@**************** Track 1 (Midi-Chn.0) ****************@

song94_001:
@ 000   ----------------------------------------
 .byte   KEYSH , song94_key+0
 .byte   TEMPO , 122*song94_tbs/2
 .byte   VOICE , 75
 .byte   VOL , 28*song94_mvl/mxv
 .byte   PAN , c_v+49
 .byte   BEND , c_v+0
 .byte   W96
@ 001   ----------------------------------------
 .byte   W96
@ 002   ----------------------------------------
Label_0_012E770E:
 .byte   W96
@ 003   ----------------------------------------
 .byte   W96
@ 004   ----------------------------------------
 .byte   W96
@ 005   ----------------------------------------
 .byte   W96
@ 006   ----------------------------------------
 .byte   W96
@ 007   ----------------------------------------
 .byte   W96
@ 008   ----------------------------------------
 .byte   W96
@ 009   ----------------------------------------
 .byte   W96
@ 010   ----------------------------------------
 .byte   W96
@ 011   ----------------------------------------
 .byte   W96
@ 012   ----------------------------------------
 .byte   W96
@ 013   ----------------------------------------
 .byte   W96
@ 014   ----------------------------------------
 .byte   W96
@ 015   ----------------------------------------
 .byte   W96
@ 016   ----------------------------------------
 .byte   W96
@ 017   ----------------------------------------
 .byte   W96
@ 018   ----------------------------------------
 .byte   W96
@ 019   ----------------------------------------
 .byte   W96
@ 020   ----------------------------------------
 .byte   W96
@ 021   ----------------------------------------
 .byte   W96
@ 022   ----------------------------------------
 .byte   W96
@ 023   ----------------------------------------
 .byte   W96
@ 024   ----------------------------------------
 .byte   W96
@ 025   ----------------------------------------
 .byte   W96
@ 026   ----------------------------------------
 .byte   W96
@ 027   ----------------------------------------
 .byte   W96
@ 028   ----------------------------------------
 .byte   W96
@ 029   ----------------------------------------
 .byte   W96
@ 030   ----------------------------------------
 .byte   W96
@ 031   ----------------------------------------
 .byte   W96
@ 032   ----------------------------------------
 .byte   W96
@ 033   ----------------------------------------
 .byte   W96
@ 034   ----------------------------------------
 .byte   W96
@ 035   ----------------------------------------
 .byte   W96
@ 036   ----------------------------------------
 .byte   W96
@ 037   ----------------------------------------
 .byte   W96
@ 038   ----------------------------------------
 .byte   N44 ,Gn3 ,v108
 .byte   W48
 .byte   N36 ,Dn4
 .byte   W40
 .byte   N03 ,Cs4
 .byte   W04
 .byte   Cn4
 .byte   W04
@ 039   ----------------------------------------
 .byte   N80 ,Bn3
 .byte   W96
@ 040   ----------------------------------------
 .byte   GOTO
  .word Label_0_012E770E
 .byte   FINE

@**************** Track 2 (Midi-Chn.1) ****************@

song94_002:
@ 000   ----------------------------------------
 .byte   KEYSH , song94_key+0
 .byte   VOICE , 1
 .byte   VOL , 23*song94_mvl/mxv
 .byte   PAN , c_v-64
 .byte   BEND , c_v+0
 .byte   N11 ,Gn5 ,v072
 .byte   W12
 .byte   Gn5 ,v040
 .byte   W12
 .byte   Gn5 ,v016
 .byte   W12
 .byte   Gn5 ,v092
 .byte   W12
 .byte   Gn5 ,v060
 .byte   W12
 .byte   Gn5 ,v036
 .byte   W12
 .byte   Gn5 ,v092
 .byte   W12
 .byte   Gn5 ,v076
 .byte   W12
@ 001   ----------------------------------------
 .byte   Gn5 ,v108
 .byte   W12
 .byte   Gn5 ,v076
 .byte   W12
 .byte   Gn5 ,v052
 .byte   W12
 .byte   Gn5 ,v108
 .byte   W12
 .byte   Gn5 ,v076
 .byte   W12
 .byte   Gn5 ,v052
 .byte   W12
 .byte   Gn5 ,v108
 .byte   W12
 .byte   Gn5 ,v076
 .byte   W12
@ 002   ----------------------------------------
Label_1_012E7667:
 .byte   PAN , c_v-64
 .byte   BEND , c_v+0
 .byte   W96
@ 003   ----------------------------------------
 .byte   W96
@ 004   ----------------------------------------
 .byte   W96
@ 005   ----------------------------------------
 .byte   W96
@ 006   ----------------------------------------
 .byte   W96
@ 007   ----------------------------------------
 .byte   W96
@ 008   ----------------------------------------
 .byte   W96
@ 009   ----------------------------------------
 .byte   W96
@ 010   ----------------------------------------
 .byte   W96
@ 011   ----------------------------------------
 .byte   W96
@ 012   ----------------------------------------
 .byte   W96
@ 013   ----------------------------------------
 .byte   W96
@ 014   ----------------------------------------
 .byte   W96
@ 015   ----------------------------------------
 .byte   W96
@ 016   ----------------------------------------
 .byte   W96
@ 017   ----------------------------------------
 .byte   W96
@ 018   ----------------------------------------
 .byte   W96
@ 019   ----------------------------------------
 .byte   W96
@ 020   ----------------------------------------
 .byte   W96
@ 021   ----------------------------------------
 .byte   W96
@ 022   ----------------------------------------
 .byte   W96
@ 023   ----------------------------------------
 .byte   W96
@ 024   ----------------------------------------
 .byte   W96
@ 025   ----------------------------------------
 .byte   W96
@ 026   ----------------------------------------
 .byte   W96
@ 027   ----------------------------------------
 .byte   W96
@ 028   ----------------------------------------
 .byte   W96
@ 029   ----------------------------------------
 .byte   W96
@ 030   ----------------------------------------
 .byte   W96
@ 031   ----------------------------------------
 .byte   W96
@ 032   ----------------------------------------
 .byte   W96
@ 033   ----------------------------------------
 .byte   W96
@ 034   ----------------------------------------
 .byte   W96
@ 035   ----------------------------------------
 .byte   W96
@ 036   ----------------------------------------
 .byte   W96
@ 037   ----------------------------------------
 .byte   W96
@ 038   ----------------------------------------
 .byte   N11 ,Gn5 ,v072
 .byte   W12
 .byte   Gn5 ,v040
 .byte   W12
 .byte   Gn5 ,v016
 .byte   W12
 .byte   Gn5 ,v092
 .byte   W12
 .byte   Gn5 ,v060
 .byte   W12
 .byte   Gn5 ,v036
 .byte   W12
 .byte   Gn5 ,v092
 .byte   W12
 .byte   Gn5 ,v076
 .byte   W12
@ 039   ----------------------------------------
 .byte   Gn5 ,v108
 .byte   W12
 .byte   Gn5 ,v076
 .byte   W12
 .byte   Gn5 ,v052
 .byte   W12
 .byte   Gn5 ,v108
 .byte   W12
 .byte   Gn5 ,v076
 .byte   W12
 .byte   Gn5 ,v052
 .byte   W12
 .byte   Gn5 ,v108
 .byte   W12
 .byte   N12 ,Gn5 ,v064
 .byte   W06
 .byte   PAN , c_v-64
 .byte   BEND , c_v+0
 .byte   W06
@ 040   ----------------------------------------
 .byte   GOTO
  .word Label_1_012E7667
@ 041   ----------------------------------------
 .byte   PAN , c_v-64
 .byte   BEND , c_v+0
 .byte   FINE

@**************** Track 3 (Midi-Chn.2) ****************@

song94_003:
@ 000   ----------------------------------------
 .byte   KEYSH , song94_key+0
 .byte   VOICE , 1
 .byte   VOL , 23*song94_mvl/mxv
 .byte   PAN , c_v+63
 .byte   BEND , c_v+0
 .byte   N11 ,Gn5 ,v072
 .byte   W12
 .byte   Gn5 ,v040
 .byte   W12
 .byte   Gn5 ,v016
 .byte   W12
 .byte   Gn5 ,v092
 .byte   W12
 .byte   Gn5 ,v060
 .byte   W12
 .byte   Gn5 ,v036
 .byte   W12
 .byte   Gn5 ,v092
 .byte   W12
 .byte   Gn5 ,v076
 .byte   W12
@ 001   ----------------------------------------
 .byte   Gn5 ,v108
 .byte   W12
 .byte   Gn5 ,v076
 .byte   W12
 .byte   Gn5 ,v052
 .byte   W12
 .byte   Gn5 ,v108
 .byte   W12
 .byte   Gn5 ,v076
 .byte   W12
 .byte   Gn5 ,v052
 .byte   W12
 .byte   Gn5 ,v108
 .byte   W12
 .byte   Gn5 ,v076
 .byte   W12
@ 002   ----------------------------------------
Label_2_012E6E8F:
 .byte   BEND , c_v+0
 .byte   W96
@ 003   ----------------------------------------
 .byte   W96
@ 004   ----------------------------------------
 .byte   W96
@ 005   ----------------------------------------
 .byte   W96
@ 006   ----------------------------------------
 .byte   W96
@ 007   ----------------------------------------
 .byte   W96
@ 008   ----------------------------------------
 .byte   W96
@ 009   ----------------------------------------
 .byte   W96
@ 010   ----------------------------------------
 .byte   W96
@ 011   ----------------------------------------
 .byte   W96
@ 012   ----------------------------------------
 .byte   W96
@ 013   ----------------------------------------
 .byte   W96
@ 014   ----------------------------------------
 .byte   W96
@ 015   ----------------------------------------
 .byte   W96
@ 016   ----------------------------------------
 .byte   W96
@ 017   ----------------------------------------
 .byte   W96
@ 018   ----------------------------------------
 .byte   W96
@ 019   ----------------------------------------
 .byte   W96
@ 020   ----------------------------------------
 .byte   W96
@ 021   ----------------------------------------
 .byte   W96
@ 022   ----------------------------------------
 .byte   W96
@ 023   ----------------------------------------
 .byte   W96
@ 024   ----------------------------------------
 .byte   W96
@ 025   ----------------------------------------
 .byte   W96
@ 026   ----------------------------------------
 .byte   W96
@ 027   ----------------------------------------
 .byte   W96
@ 028   ----------------------------------------
 .byte   W96
@ 029   ----------------------------------------
 .byte   W96
@ 030   ----------------------------------------
 .byte   W96
@ 031   ----------------------------------------
 .byte   W96
@ 032   ----------------------------------------
 .byte   W96
@ 033   ----------------------------------------
 .byte   W96
@ 034   ----------------------------------------
 .byte   W96
@ 035   ----------------------------------------
 .byte   W96
@ 036   ----------------------------------------
 .byte   W96
@ 037   ----------------------------------------
 .byte   W96
@ 038   ----------------------------------------
 .byte   N11 ,Gn5 ,v072
 .byte   W12
 .byte   Gn5 ,v040
 .byte   W12
 .byte   Gn5 ,v016
 .byte   W12
 .byte   Gn5 ,v092
 .byte   W12
 .byte   Gn5 ,v060
 .byte   W12
 .byte   Gn5 ,v036
 .byte   W12
 .byte   Gn5 ,v092
 .byte   W12
 .byte   Gn5 ,v076
 .byte   W12
@ 039   ----------------------------------------
 .byte   Gn5 ,v108
 .byte   W12
 .byte   Gn5 ,v076
 .byte   W12
 .byte   Gn5 ,v052
 .byte   W12
 .byte   Gn5 ,v108
 .byte   W12
 .byte   Gn5 ,v076
 .byte   W12
 .byte   Gn5 ,v052
 .byte   W12
 .byte   Gn5 ,v108
 .byte   W12
 .byte   N12 ,Gn5 ,v064
 .byte   W06
 .byte   BEND , c_v+0
 .byte   W06
@ 040   ----------------------------------------
 .byte   GOTO
  .word Label_2_012E6E8F
@ 041   ----------------------------------------
 .byte   BEND , c_v+0
 .byte   FINE

@**************** Track 4 (Midi-Chn.3) ****************@

song94_004:
@ 000   ----------------------------------------
 .byte   KEYSH , song94_key+0
 .byte   VOICE , 48
 .byte   VOL , 26*song94_mvl/mxv
 .byte   PAN , c_v-23
 .byte   BEND , c_v+0
 .byte   W96
@ 001   ----------------------------------------
 .byte   W96
@ 002   ----------------------------------------
Label_3_012E7294:
 .byte   N32 ,Ds4 ,v108
 .byte   W36
 .byte   N05 ,Fn4
 .byte   W06
 .byte   Gn4
 .byte   W06
 .byte   N56 ,Cn5
 .byte   W48
 .byte   PEND 
@ 003   ----------------------------------------
 .byte   W18
 .byte   N02 ,Cn5 ,v084
 .byte   W03
 .byte   Cs5
 .byte   W03
 .byte   N23 ,Dn5 ,v104
 .byte   W24
 .byte   As4 ,v108
 .byte   W24
 .byte   Fn4
 .byte   W24
@ 004   ----------------------------------------
 .byte   N17 ,Gn4
 .byte   W18
 .byte   N05 ,Fn4
 .byte   W06
 .byte   N92 ,Gn4
 .byte   W72
@ 005   ----------------------------------------
 .byte   W42
 .byte   N02 ,As4 ,v084
 .byte   W03
 .byte   Bn4
 .byte   W03
 .byte   N23 ,Cn5 ,v108
 .byte   W24
 .byte   As4
 .byte   W24
@ 006   ----------------------------------------
 .byte   N32 ,Gn4
 .byte   W36
 .byte   N05
 .byte   W06
 .byte   Gs4
 .byte   W06
 .byte   N44 ,Fn4
 .byte   W48
@ 007   ----------------------------------------
 .byte   W24
 .byte   N23 ,Gn4
 .byte   W24
 .byte   N17 ,Cn4
 .byte   W18
 .byte   Dn4
 .byte   W18
 .byte   N11 ,Ds4
 .byte   W12
@ 008   ----------------------------------------
Label_3_012E72DD:
 .byte   N17 ,Gn4 ,v108
 .byte   W18
 .byte   N05 ,Fn4
 .byte   W06
 .byte   TIE ,Gn4
 .byte   W72
 .byte   PEND 
@ 009   ----------------------------------------
 .byte   W60
 .byte   W02
 .byte   EOT
 .byte   W32
 .byte   W02
@ 010   ----------------------------------------
 .byte   PATT
  .word Label_3_012E7294
@ 011   ----------------------------------------
 .byte   W24
 .byte   N23 ,Cn5 ,v108
 .byte   W24
 .byte   N17 ,Dn5 ,v104
 .byte   W18
 .byte   Ds5 ,v092
 .byte   W18
 .byte   N11 ,Fn5 ,v088
 .byte   W12
@ 012   ----------------------------------------
 .byte   N40 ,Gn5 ,v080
 .byte   W42
 .byte   N05 ,Fn5 ,v088
 .byte   W06
 .byte   N44 ,Cn5 ,v108
 .byte   W48
@ 013   ----------------------------------------
 .byte   W24
 .byte   N23 ,Gn4
 .byte   W24
 .byte   Ds5 ,v092
 .byte   W24
 .byte   Dn5 ,v104
 .byte   W24
@ 014   ----------------------------------------
 .byte   N40 ,Cn5 ,v108
 .byte   W42
 .byte   N05 ,As4
 .byte   W06
 .byte   N44 ,Fn4
 .byte   W48
@ 015   ----------------------------------------
 .byte   W24
 .byte   N23
 .byte   W24
 .byte   N17 ,Gn4
 .byte   W18
 .byte   Gs4
 .byte   W18
 .byte   N11 ,As4
 .byte   W12
@ 016   ----------------------------------------
 .byte   PATT
  .word Label_3_012E72DD
@ 017   ----------------------------------------
 .byte   W76
 .byte   W01
 .byte   EOT
 .byte   Gn4
 .byte   W19
@ 018   ----------------------------------------
 .byte   W96
@ 019   ----------------------------------------
 .byte   W96
@ 020   ----------------------------------------
 .byte   W96
@ 021   ----------------------------------------
 .byte   W96
@ 022   ----------------------------------------
 .byte   W96
@ 023   ----------------------------------------
 .byte   W96
@ 024   ----------------------------------------
 .byte   W42
 .byte   N02 ,As4 ,v084
 .byte   W03
 .byte   Bn4
 .byte   W03
 .byte   N17 ,Cn5 ,v108
 .byte   W18
 .byte   N05 ,Dn5
 .byte   W06
 .byte   TIE ,Cn5
 .byte   W24
@ 025   ----------------------------------------
 .byte   W90
 .byte   W01
 .byte   EOT
 .byte   W05
@ 026   ----------------------------------------
 .byte   W96
@ 027   ----------------------------------------
 .byte   W96
@ 028   ----------------------------------------
 .byte   W96
@ 029   ----------------------------------------
 .byte   W96
@ 030   ----------------------------------------
 .byte   W96
@ 031   ----------------------------------------
 .byte   W96
@ 032   ----------------------------------------
 .byte   W96
@ 033   ----------------------------------------
 .byte   W90
 .byte   N01 ,Dn5 ,v036
 .byte   W02
 .byte   Ds5 ,v056
 .byte   W02
 .byte   En5 ,v068
 .byte   W02
@ 034   ----------------------------------------
 .byte   N17 ,Fn5 ,v092
 .byte   W18
 .byte   N05 ,Gn5
 .byte   W06
 .byte   N11 ,Fn5
 .byte   W12
 .byte   N23 ,Ds5 ,v100
 .byte   W36
 .byte   N17 ,Dn5
 .byte   W18
 .byte   N05 ,Ds5
 .byte   W06
@ 035   ----------------------------------------
 .byte   N11 ,Dn5
 .byte   W12
 .byte   N52 ,Cn5
 .byte   W60
 .byte   N11 ,Dn5
 .byte   W12
 .byte   Ds5
 .byte   W12
@ 036   ----------------------------------------
 .byte   N17 ,Fn5 ,v092
 .byte   W18
 .byte   N05 ,Gn5
 .byte   W06
 .byte   N11 ,Fn5
 .byte   W12
 .byte   N28 ,Ds5 ,v100
 .byte   W30
 .byte   N01 ,Fn5 ,v048
 .byte   W02
 .byte   Gn5 ,v064
 .byte   W02
 .byte   Gs5 ,v072
 .byte   W02
 .byte   N23 ,As5 ,v084
 .byte   W24
@ 037   ----------------------------------------
 .byte   N05 ,Gs5 ,v092
 .byte   W06
 .byte   Gn5
 .byte   W06
 .byte   N72 ,Ds5 ,v100
 .byte   W84
@ 038   ----------------------------------------
 .byte   W96
@ 039   ----------------------------------------
 .byte   W96
@ 040   ----------------------------------------
 .byte   GOTO
  .word Label_3_012E7294
 .byte   FINE

@**************** Track 5 (Midi-Chn.4) ****************@

song94_005:
@ 000   ----------------------------------------
 .byte   KEYSH , song94_key+0
 .byte   VOICE , 73
 .byte   PAN , c_v+18
 .byte   VOL , 27*song94_mvl/mxv
 .byte   BEND , c_v+0
 .byte   W96
@ 001   ----------------------------------------
 .byte   W96
@ 002   ----------------------------------------
Label_4_012E6A68:
 .byte   W96
@ 003   ----------------------------------------
 .byte   W96
@ 004   ----------------------------------------
 .byte   W96
@ 005   ----------------------------------------
 .byte   W96
@ 006   ----------------------------------------
 .byte   W96
@ 007   ----------------------------------------
 .byte   W96
@ 008   ----------------------------------------
 .byte   W96
@ 009   ----------------------------------------
 .byte   W96
@ 010   ----------------------------------------
 .byte   W96
@ 011   ----------------------------------------
 .byte   W96
@ 012   ----------------------------------------
 .byte   W96
@ 013   ----------------------------------------
 .byte   W96
@ 014   ----------------------------------------
 .byte   W96
@ 015   ----------------------------------------
 .byte   W96
@ 016   ----------------------------------------
 .byte   W96
@ 017   ----------------------------------------
 .byte   W96
@ 018   ----------------------------------------
 .byte   W96
@ 019   ----------------------------------------
 .byte   W96
@ 020   ----------------------------------------
 .byte   W96
@ 021   ----------------------------------------
 .byte   W96
@ 022   ----------------------------------------
 .byte   W96
@ 023   ----------------------------------------
 .byte   W96
@ 024   ----------------------------------------
 .byte   W96
@ 025   ----------------------------------------
 .byte   W96
@ 026   ----------------------------------------
 .byte   W96
@ 027   ----------------------------------------
 .byte   W96
@ 028   ----------------------------------------
 .byte   W96
@ 029   ----------------------------------------
 .byte   W96
@ 030   ----------------------------------------
 .byte   W96
@ 031   ----------------------------------------
 .byte   W96
@ 032   ----------------------------------------
 .byte   W96
@ 033   ----------------------------------------
 .byte   W90
 .byte   N01 ,Dn5 ,v036
 .byte   W02
 .byte   Ds5 ,v056
 .byte   W02
 .byte   En5 ,v068
 .byte   W02
@ 034   ----------------------------------------
 .byte   N17 ,Fn5 ,v092
 .byte   W18
 .byte   N05 ,Gn5
 .byte   W06
 .byte   N11 ,Fn5
 .byte   W12
 .byte   N23 ,Ds5 ,v100
 .byte   W36
 .byte   N17 ,Dn5
 .byte   W18
 .byte   N05 ,Ds5
 .byte   W06
@ 035   ----------------------------------------
 .byte   N11 ,Dn5
 .byte   W12
 .byte   N52 ,Cn5
 .byte   W60
 .byte   N11 ,Dn5
 .byte   W12
 .byte   Ds5
 .byte   W12
@ 036   ----------------------------------------
 .byte   N17 ,Fn5 ,v092
 .byte   W18
 .byte   N05 ,Gn5
 .byte   W06
 .byte   N11 ,Fn5
 .byte   W12
 .byte   N28 ,Ds5 ,v100
 .byte   W30
 .byte   N01 ,Fn5 ,v048
 .byte   W02
 .byte   Gn5 ,v064
 .byte   W02
 .byte   Gs5 ,v072
 .byte   W02
 .byte   N23 ,As5 ,v084
 .byte   W24
@ 037   ----------------------------------------
 .byte   N05 ,Gs5 ,v092
 .byte   W06
 .byte   Gn5
 .byte   W06
 .byte   N72 ,Ds5 ,v100
 .byte   W84
@ 038   ----------------------------------------
 .byte   BEND , c_v+0
 .byte   W96
@ 039   ----------------------------------------
 .byte   W96
@ 040   ----------------------------------------
 .byte   GOTO
  .word Label_4_012E6A68
 .byte   FINE

@**************** Track 6 (Midi-Chn.5) ****************@

song94_006:
@ 000   ----------------------------------------
 .byte   KEYSH , song94_key+0
 .byte   VOICE , 49
 .byte   VOL , 24*song94_mvl/mxv
 .byte   PAN , c_v+12
 .byte   BEND , c_v+0
 .byte   N11 ,Gn2 ,v068
 .byte   W36
 .byte   Gn2 ,v076
 .byte   W36
 .byte   Gn2 ,v092
 .byte   W24
@ 001   ----------------------------------------
 .byte   Gn2 ,v108
 .byte   W36
 .byte   Gn2 ,v084
 .byte   W36
 .byte   Gn2 ,v092
 .byte   W24
@ 002   ----------------------------------------
Label_5_01303D3D:
 .byte   N11 ,Gn2 ,v104
 .byte   W24
 .byte   Gn2 ,v072
 .byte   W24
 .byte   Gn2 ,v084
 .byte   W24
 .byte   Gn2 ,v072
 .byte   W24
 .byte   PEND 
@ 003   ----------------------------------------
Label_5_01303D4B:
 .byte   N11 ,Fn2 ,v104
 .byte   W24
 .byte   Fn2 ,v072
 .byte   W24
 .byte   Fn2 ,v084
 .byte   W24
 .byte   Fn2 ,v072
 .byte   W24
 .byte   PEND 
@ 004   ----------------------------------------
Label_5_01303D59:
 .byte   N11 ,Ds2 ,v104
 .byte   W24
 .byte   Ds2 ,v072
 .byte   W24
 .byte   Ds2 ,v084
 .byte   W24
 .byte   Ds2 ,v072
 .byte   W24
 .byte   PEND 
@ 005   ----------------------------------------
 .byte   Dn2 ,v104
 .byte   W24
 .byte   Dn2 ,v072
 .byte   W24
 .byte   Dn2 ,v084
 .byte   W24
 .byte   Dn2 ,v072
 .byte   W24
@ 006   ----------------------------------------
Label_5_01303D73:
 .byte   N11 ,Cn2 ,v104
 .byte   W24
 .byte   Cn2 ,v072
 .byte   W24
 .byte   Cn2 ,v084
 .byte   W24
 .byte   Cn2 ,v072
 .byte   W24
 .byte   PEND 
@ 007   ----------------------------------------
 .byte   PATT
  .word Label_5_01303D73
@ 008   ----------------------------------------
 .byte   N11 ,Dn2 ,v104
 .byte   W24
 .byte   Dn2 ,v072
 .byte   W24
 .byte   Fn2 ,v084
 .byte   W24
 .byte   Fn2 ,v072
 .byte   W24
@ 009   ----------------------------------------
 .byte   PATT
  .word Label_5_01303D3D
@ 010   ----------------------------------------
 .byte   PATT
  .word Label_5_01303D3D
@ 011   ----------------------------------------
 .byte   PATT
  .word Label_5_01303D4B
@ 012   ----------------------------------------
 .byte   PATT
  .word Label_5_01303D4B
@ 013   ----------------------------------------
 .byte   PATT
  .word Label_5_01303D3D
@ 014   ----------------------------------------
 .byte   PATT
  .word Label_5_01303D59
@ 015   ----------------------------------------
 .byte   PATT
  .word Label_5_01303D4B
@ 016   ----------------------------------------
 .byte   PATT
  .word Label_5_01303D4B
@ 017   ----------------------------------------
 .byte   N11 ,Gn2 ,v104
 .byte   W24
 .byte   Cn3 ,v072
 .byte   W24
 .byte   Dn3 ,v084
 .byte   W24
 .byte   Gn2 ,v072
 .byte   W24
@ 018   ----------------------------------------
 .byte   W96
@ 019   ----------------------------------------
 .byte   W96
@ 020   ----------------------------------------
 .byte   W96
@ 021   ----------------------------------------
 .byte   W96
@ 022   ----------------------------------------
 .byte   W96
@ 023   ----------------------------------------
 .byte   W96
@ 024   ----------------------------------------
 .byte   W96
@ 025   ----------------------------------------
 .byte   W96
@ 026   ----------------------------------------
 .byte   W96
@ 027   ----------------------------------------
 .byte   W96
@ 028   ----------------------------------------
 .byte   W96
@ 029   ----------------------------------------
 .byte   W96
@ 030   ----------------------------------------
 .byte   W96
@ 031   ----------------------------------------
 .byte   W96
@ 032   ----------------------------------------
 .byte   W96
@ 033   ----------------------------------------
 .byte   W96
@ 034   ----------------------------------------
 .byte   W96
@ 035   ----------------------------------------
 .byte   W96
@ 036   ----------------------------------------
 .byte   W96
@ 037   ----------------------------------------
 .byte   W96
@ 038   ----------------------------------------
 .byte   Gn2 ,v068
 .byte   W36
 .byte   Gn2 ,v076
 .byte   W36
 .byte   Gn2 ,v092
 .byte   W24
@ 039   ----------------------------------------
 .byte   N11
 .byte   W36
 .byte   Gn2 ,v068
 .byte   W36
 .byte   Gn2 ,v092
 .byte   W24
@ 040   ----------------------------------------
 .byte   GOTO
  .word Label_5_01303D3D
 .byte   FINE

@**************** Track 7 (Midi-Chn.6) ****************@

song94_007:
@ 000   ----------------------------------------
 .byte   KEYSH , song94_key+0
 .byte   VOICE , 30
 .byte   VOL , 26*song94_mvl/mxv
 .byte   PAN , c_v+0
 .byte   BEND , c_v+0
 .byte   N30 ,Gn0 ,v127
 .byte   W36
 .byte   N30
 .byte   W36
 .byte   N19
 .byte   W24
@ 001   ----------------------------------------
 .byte   N30
 .byte   W36
 .byte   N30
 .byte   W36
 .byte   N10
 .byte   W12
 .byte   N03 ,Dn1 ,v104
 .byte   W06
 .byte   Gn0
 .byte   W06
@ 002   ----------------------------------------
Label_6_013038F2:
 .byte   N11 ,Cn1 ,v127
 .byte   W12
 .byte   N03
 .byte   W12
 .byte   N07 ,Cn1 ,v092
 .byte   W12
 .byte   N11 ,Cn1 ,v127
 .byte   W12
 .byte   N02
 .byte   W12
 .byte   N06 ,Cn1 ,v092
 .byte   W12
 .byte   N11 ,Cn1 ,v127
 .byte   W12
 .byte   N02 ,Cn1 ,v092
 .byte   W06
 .byte   Cn1 ,v080
 .byte   W06
 .byte   PEND 
@ 003   ----------------------------------------
Label_6_01303912:
 .byte   N11 ,As0 ,v127
 .byte   W12
 .byte   N03
 .byte   W12
 .byte   N07 ,As0 ,v092
 .byte   W12
 .byte   N11 ,As0 ,v127
 .byte   W12
 .byte   N02
 .byte   W12
 .byte   N06 ,As0 ,v092
 .byte   W12
 .byte   N11 ,As0 ,v127
 .byte   W12
 .byte   N02 ,As0 ,v092
 .byte   W06
 .byte   As0 ,v080
 .byte   W06
 .byte   PEND 
@ 004   ----------------------------------------
Label_6_01303932:
 .byte   N11 ,Gs0 ,v127
 .byte   W12
 .byte   N03
 .byte   W12
 .byte   N07 ,Gs0 ,v092
 .byte   W12
 .byte   N11 ,Gs0 ,v127
 .byte   W12
 .byte   N02
 .byte   W12
 .byte   N06 ,Gs0 ,v092
 .byte   W12
 .byte   N11 ,Gs0 ,v127
 .byte   W12
 .byte   N02 ,Gs0 ,v092
 .byte   W06
 .byte   Gs0 ,v080
 .byte   W06
 .byte   PEND 
@ 005   ----------------------------------------
Label_6_01303952:
 .byte   N11 ,Gn0 ,v127
 .byte   W12
 .byte   N03
 .byte   W12
 .byte   N07 ,Gn0 ,v092
 .byte   W12
 .byte   N11 ,Gn0 ,v127
 .byte   W12
 .byte   N02
 .byte   W12
 .byte   N06 ,Gn0 ,v092
 .byte   W12
 .byte   N11 ,Gn0 ,v127
 .byte   W12
 .byte   N02 ,Gn0 ,v092
 .byte   W06
 .byte   Gn0 ,v080
 .byte   W06
 .byte   PEND 
@ 006   ----------------------------------------
 .byte   N11 ,Fn0 ,v127
 .byte   W12
 .byte   N03
 .byte   W12
 .byte   N07 ,Fn0 ,v092
 .byte   W12
 .byte   N11 ,Fn0 ,v127
 .byte   W12
 .byte   N02
 .byte   W12
 .byte   N06 ,Fn0 ,v092
 .byte   W12
 .byte   N11 ,Fn0 ,v127
 .byte   W12
 .byte   N02 ,Fn0 ,v092
 .byte   W06
 .byte   Fn0 ,v080
 .byte   W06
@ 007   ----------------------------------------
 .byte   N11 ,Ds1 ,v127
 .byte   W12
 .byte   N03
 .byte   W12
 .byte   N07 ,Ds1 ,v092
 .byte   W12
 .byte   N11 ,Ds1 ,v127
 .byte   W12
 .byte   N02
 .byte   W12
 .byte   N06 ,Ds1 ,v092
 .byte   W12
 .byte   N11 ,Ds1 ,v127
 .byte   W12
 .byte   N02 ,Ds1 ,v092
 .byte   W06
 .byte   Ds1 ,v080
 .byte   W06
@ 008   ----------------------------------------
Label_6_013039B0:
 .byte   N11 ,Dn1 ,v127
 .byte   W12
 .byte   N03
 .byte   W12
 .byte   N07 ,Dn1 ,v092
 .byte   W12
 .byte   N11 ,Dn1 ,v127
 .byte   W12
 .byte   N02
 .byte   W12
 .byte   N06 ,Dn1 ,v092
 .byte   W12
 .byte   N11 ,Dn1 ,v127
 .byte   W12
 .byte   N02 ,Dn1 ,v092
 .byte   W06
 .byte   Dn1 ,v080
 .byte   W06
 .byte   PEND 
@ 009   ----------------------------------------
 .byte   N11 ,Gn0 ,v127
 .byte   W12
 .byte   N03
 .byte   W12
 .byte   N07 ,Gn0 ,v092
 .byte   W12
 .byte   N11 ,Gn0 ,v127
 .byte   W12
 .byte   N02
 .byte   W12
 .byte   N06 ,Gn0 ,v092
 .byte   W12
 .byte   N11 ,Gn0 ,v127
 .byte   W12
 .byte   N03 ,Dn1
 .byte   W06
 .byte   Gn1
 .byte   W06
@ 010   ----------------------------------------
 .byte   PATT
  .word Label_6_013038F2
@ 011   ----------------------------------------
 .byte   PATT
  .word Label_6_01303912
@ 012   ----------------------------------------
 .byte   N11 ,An0 ,v127
 .byte   W12
 .byte   N03
 .byte   W12
 .byte   N07 ,An0 ,v092
 .byte   W12
 .byte   N11 ,An0 ,v127
 .byte   W12
 .byte   N02
 .byte   W12
 .byte   N06 ,An0 ,v092
 .byte   W12
 .byte   N11 ,An0 ,v127
 .byte   W12
 .byte   N02 ,An0 ,v092
 .byte   W06
 .byte   An0 ,v080
 .byte   W06
@ 013   ----------------------------------------
 .byte   PATT
  .word Label_6_01303932
@ 014   ----------------------------------------
Label_6_01303A1B:
 .byte   N11 ,Cs1 ,v127
 .byte   W12
 .byte   N03
 .byte   W12
 .byte   N07 ,Cs1 ,v092
 .byte   W12
 .byte   N11 ,Cs1 ,v127
 .byte   W12
 .byte   N02
 .byte   W12
 .byte   N06 ,Cs1 ,v092
 .byte   W12
 .byte   N11 ,Cs1 ,v127
 .byte   W12
 .byte   N02 ,Cs1 ,v092
 .byte   W06
 .byte   Cs1 ,v080
 .byte   W06
 .byte   PEND 
@ 015   ----------------------------------------
 .byte   PATT
  .word Label_6_01303A1B
@ 016   ----------------------------------------
 .byte   PATT
  .word Label_6_013039B0
@ 017   ----------------------------------------
 .byte   PATT
  .word Label_6_01303952
@ 018   ----------------------------------------
 .byte   N44 ,Gs0 ,v116
 .byte   W48
 .byte   N21 ,Ds1
 .byte   W24
 .byte   Gs1
 .byte   W24
@ 019   ----------------------------------------
 .byte   N22 ,As1
 .byte   W24
 .byte   N52 ,As0
 .byte   W60
 .byte   N04 ,Cn1
 .byte   W06
 .byte   Dn1
 .byte   W06
@ 020   ----------------------------------------
Label_6_01303A5E:
 .byte   N44 ,Ds1 ,v116
 .byte   W48
 .byte   N22 ,As0
 .byte   W24
 .byte   Ds1
 .byte   W24
 .byte   PEND 
@ 021   ----------------------------------------
 .byte   N44 ,Fn1
 .byte   W48
 .byte   N22 ,Cn1
 .byte   W24
 .byte   An0
 .byte   W24
@ 022   ----------------------------------------
 .byte   N68 ,Gs0
 .byte   W72
 .byte   N22 ,Ds1
 .byte   W24
@ 023   ----------------------------------------
 .byte   As0
 .byte   W24
 .byte   Fn1
 .byte   W24
 .byte   Cn2
 .byte   W24
 .byte   As1
 .byte   W24
@ 024   ----------------------------------------
 .byte   N44 ,An1
 .byte   W48
 .byte   An0
 .byte   W48
@ 025   ----------------------------------------
 .byte   N22 ,Fn1
 .byte   W24
 .byte   Ds1
 .byte   W24
 .byte   Cn1
 .byte   W24
 .byte   An0
 .byte   W24
@ 026   ----------------------------------------
 .byte   N76 ,Gs0
 .byte   W84
 .byte   N04 ,As0
 .byte   W06
 .byte   Cn1
 .byte   W06
@ 027   ----------------------------------------
 .byte   N44 ,As0
 .byte   W48
 .byte   N22 ,Cn1
 .byte   W24
 .byte   Dn1
 .byte   W24
@ 028   ----------------------------------------
 .byte   PATT
  .word Label_6_01303A5E
@ 029   ----------------------------------------
 .byte   N44 ,Fn1 ,v116
 .byte   W48
 .byte   Fn0
 .byte   W48
@ 030   ----------------------------------------
 .byte   Gs0
 .byte   W48
 .byte   N22 ,Ds1
 .byte   W24
 .byte   N44 ,Gs1
 .byte   W24
@ 031   ----------------------------------------
 .byte   W24
 .byte   Gs0
 .byte   W48
 .byte   N22 ,Cn1
 .byte   W24
@ 032   ----------------------------------------
 .byte   As0
 .byte   W24
 .byte   N22
 .byte   W24
 .byte   N22
 .byte   W24
 .byte   N22
 .byte   W24
@ 033   ----------------------------------------
 .byte   Bn0
 .byte   W24
 .byte   N22
 .byte   W24
 .byte   Gn0
 .byte   W24
 .byte   Bn0
 .byte   W24
@ 034   ----------------------------------------
 .byte   N32 ,Cn1
 .byte   W36
 .byte   As0
 .byte   W36
 .byte   N22 ,Gs0
 .byte   W24
@ 035   ----------------------------------------
Label_6_01303ACD:
 .byte   N30 ,Gs0 ,v116
 .byte   W36
 .byte   N30
 .byte   W36
 .byte   N19
 .byte   W24
 .byte   PEND 
@ 036   ----------------------------------------
 .byte   N32 ,Cn1
 .byte   W36
 .byte   As0
 .byte   W36
 .byte   N20 ,Gs0
 .byte   W24
@ 037   ----------------------------------------
 .byte   PATT
  .word Label_6_01303ACD
@ 038   ----------------------------------------
 .byte   N30 ,Gn0 ,v127
 .byte   W36
 .byte   N30
 .byte   W36
 .byte   N19
 .byte   W24
@ 039   ----------------------------------------
 .byte   N30
 .byte   W36
 .byte   N30
 .byte   W36
 .byte   N03 ,Dn1 ,v104
 .byte   W12
 .byte   Gn0
 .byte   W12
@ 040   ----------------------------------------
 .byte   GOTO
  .word Label_6_013038F2
 .byte   FINE

@**************** Track 8 (Midi-Chn.7) ****************@

song94_008:
@ 000   ----------------------------------------
 .byte   KEYSH , song94_key+0
 .byte   VOICE , 57
 .byte   VOL , 26*song94_mvl/mxv
 .byte   PAN , c_v-13
 .byte   BEND , c_v+0
 .byte   W96
@ 001   ----------------------------------------
 .byte   W96
@ 002   ----------------------------------------
Label_7_012E67A4:
 .byte   W96
@ 003   ----------------------------------------
 .byte   W96
@ 004   ----------------------------------------
 .byte   W96
@ 005   ----------------------------------------
 .byte   W96
@ 006   ----------------------------------------
 .byte   W96
@ 007   ----------------------------------------
 .byte   W96
@ 008   ----------------------------------------
 .byte   W96
@ 009   ----------------------------------------
 .byte   W96
@ 010   ----------------------------------------
 .byte   W96
@ 011   ----------------------------------------
 .byte   W96
@ 012   ----------------------------------------
 .byte   W96
@ 013   ----------------------------------------
 .byte   W96
@ 014   ----------------------------------------
 .byte   W96
@ 015   ----------------------------------------
 .byte   W96
@ 016   ----------------------------------------
 .byte   W96
@ 017   ----------------------------------------
 .byte   W96
@ 018   ----------------------------------------
 .byte   W96
@ 019   ----------------------------------------
 .byte   W96
@ 020   ----------------------------------------
 .byte   W96
@ 021   ----------------------------------------
 .byte   W96
@ 022   ----------------------------------------
 .byte   W96
@ 023   ----------------------------------------
 .byte   W96
@ 024   ----------------------------------------
 .byte   W96
@ 025   ----------------------------------------
 .byte   W72
 .byte   N03 ,Gn2 ,v108
 .byte   W04
 .byte   An2
 .byte   W03
 .byte   As2
 .byte   W04
 .byte   Cn3
 .byte   W03
 .byte   Dn3
 .byte   W04
 .byte   Ds3
 .byte   W03
 .byte   N02 ,Fn3
 .byte   W03
@ 026   ----------------------------------------
 .byte   N44 ,Gn3
 .byte   W48
 .byte   Ds4
 .byte   W48
@ 027   ----------------------------------------
 .byte   W24
 .byte   N23 ,Dn4
 .byte   W24
 .byte   Cn4
 .byte   W24
 .byte   As3
 .byte   W24
@ 028   ----------------------------------------
 .byte   N44 ,Gn3
 .byte   W48
 .byte   N17 ,As3
 .byte   W18
 .byte   Ds3
 .byte   W18
 .byte   N11 ,Gn3
 .byte   W12
@ 029   ----------------------------------------
 .byte   N44 ,Fn3
 .byte   W48
 .byte   N23 ,Cn3
 .byte   W24
 .byte   Dn3
 .byte   W24
@ 030   ----------------------------------------
 .byte   TIE ,Ds3
 .byte   W96
@ 031   ----------------------------------------
 .byte   W44
 .byte   W03
 .byte   EOT
 .byte   W01
 .byte   N17 ,Dn3
 .byte   W18
 .byte   Ds3
 .byte   W18
 .byte   N11 ,Fn3
 .byte   W12
@ 032   ----------------------------------------
 .byte   N60 ,Gn3
 .byte   W72
 .byte   N17
 .byte   W18
 .byte   N05 ,Gs3
 .byte   W06
@ 033   ----------------------------------------
 .byte   N92 ,Gn3
 .byte   W96
@ 034   ----------------------------------------
 .byte   W96
@ 035   ----------------------------------------
 .byte   W96
@ 036   ----------------------------------------
 .byte   W96
@ 037   ----------------------------------------
 .byte   W96
@ 038   ----------------------------------------
 .byte   W96
@ 039   ----------------------------------------
 .byte   W96
@ 040   ----------------------------------------
 .byte   GOTO
  .word Label_7_012E67A4
 .byte   FINE

@**************** Track 9 (Midi-Chn.8) ****************@

song94_009:
@ 000   ----------------------------------------
 .byte   KEYSH , song94_key+0
 .byte   VOICE , 52
 .byte   VOL , 28*song94_mvl/mxv
 .byte   PAN , c_v+21
 .byte   BEND , c_v+0
 .byte   W96
@ 001   ----------------------------------------
 .byte   W96
@ 002   ----------------------------------------
Label_8_012E6890:
 .byte   W96
@ 003   ----------------------------------------
 .byte   W96
@ 004   ----------------------------------------
 .byte   W96
@ 005   ----------------------------------------
 .byte   W96
@ 006   ----------------------------------------
 .byte   W96
@ 007   ----------------------------------------
 .byte   W96
@ 008   ----------------------------------------
 .byte   W96
@ 009   ----------------------------------------
 .byte   W96
@ 010   ----------------------------------------
 .byte   W96
@ 011   ----------------------------------------
 .byte   W96
@ 012   ----------------------------------------
 .byte   W96
@ 013   ----------------------------------------
 .byte   W96
@ 014   ----------------------------------------
 .byte   W96
@ 015   ----------------------------------------
 .byte   W96
@ 016   ----------------------------------------
 .byte   W96
@ 017   ----------------------------------------
 .byte   W96
@ 018   ----------------------------------------
 .byte   W96
@ 019   ----------------------------------------
 .byte   W96
@ 020   ----------------------------------------
 .byte   W96
@ 021   ----------------------------------------
 .byte   W96
@ 022   ----------------------------------------
 .byte   W96
@ 023   ----------------------------------------
 .byte   W96
@ 024   ----------------------------------------
 .byte   W96
@ 025   ----------------------------------------
 .byte   W72
 .byte   N03 ,Gn2 ,v108
 .byte   W04
 .byte   An2
 .byte   W03
 .byte   As2
 .byte   W04
 .byte   Cn3
 .byte   W03
 .byte   Dn3
 .byte   W04
 .byte   Ds3
 .byte   W03
 .byte   N02 ,Fn3
 .byte   W03
@ 026   ----------------------------------------
 .byte   N44 ,Gn3
 .byte   W48
 .byte   Ds4
 .byte   W48
@ 027   ----------------------------------------
 .byte   W24
 .byte   N23 ,Dn4
 .byte   W24
 .byte   Cn4
 .byte   W24
 .byte   As3
 .byte   W24
@ 028   ----------------------------------------
 .byte   N44 ,Gn3
 .byte   W48
 .byte   N17 ,As3
 .byte   W18
 .byte   Ds3
 .byte   W18
 .byte   N11 ,Gn3
 .byte   W12
@ 029   ----------------------------------------
 .byte   N44 ,Fn3
 .byte   W48
 .byte   N23 ,Cn3
 .byte   W24
 .byte   Dn3
 .byte   W24
@ 030   ----------------------------------------
 .byte   TIE ,Ds3
 .byte   W96
@ 031   ----------------------------------------
 .byte   W44
 .byte   W03
 .byte   EOT
 .byte   W01
 .byte   N17 ,Dn3
 .byte   W18
 .byte   Ds3
 .byte   W18
 .byte   N11 ,Fn3
 .byte   W12
@ 032   ----------------------------------------
 .byte   N60 ,Gn3
 .byte   W72
 .byte   N17
 .byte   W18
 .byte   N05 ,Gs3
 .byte   W06
@ 033   ----------------------------------------
 .byte   N92 ,Gn3
 .byte   W96
@ 034   ----------------------------------------
 .byte   W96
@ 035   ----------------------------------------
 .byte   W96
@ 036   ----------------------------------------
 .byte   W96
@ 037   ----------------------------------------
 .byte   W96
@ 038   ----------------------------------------
 .byte   W96
@ 039   ----------------------------------------
 .byte   W96
@ 040   ----------------------------------------
 .byte   GOTO
  .word Label_8_012E6890
 .byte   FINE

@**************** Track 10 (Midi-Chn.9) ****************@

song94_010:
@ 000   ----------------------------------------
 .byte   KEYSH , song94_key+0
 .byte   VOICE , 49
 .byte   VOL , 26*song94_mvl/mxv
 .byte   PAN , c_v-7
 .byte   BEND , c_v+0
 .byte   N11 ,Gn2 ,v116
 .byte   W12
 .byte   Gn2 ,v096
 .byte   W12
 .byte   Gn2 ,v056
 .byte   W12
 .byte   Gn2 ,v116
 .byte   W12
 .byte   Gn2 ,v096
 .byte   W12
 .byte   Gn2 ,v056
 .byte   W12
 .byte   Gn2 ,v116
 .byte   W12
 .byte   Gn2 ,v096
 .byte   W12
@ 001   ----------------------------------------
Label_9_012E7007:
 .byte   N11 ,Gn2 ,v116
 .byte   W12
 .byte   Gn2 ,v096
 .byte   W12
 .byte   Gn2 ,v056
 .byte   W12
 .byte   Gn2 ,v116
 .byte   W12
 .byte   Gn2 ,v096
 .byte   W12
 .byte   Gn2 ,v056
 .byte   W12
 .byte   Gn2 ,v116
 .byte   W12
 .byte   Gn2 ,v096
 .byte   W12
 .byte   PEND 
@ 002   ----------------------------------------
Label_9_012E7021:
 .byte   N11 ,Cn3 ,v116
 .byte   W12
 .byte   Cn3 ,v096
 .byte   W12
 .byte   Cn3 ,v056
 .byte   W12
 .byte   Cn3 ,v116
 .byte   W12
 .byte   Cn3 ,v096
 .byte   W12
 .byte   Cn3 ,v056
 .byte   W12
 .byte   Cn3 ,v116
 .byte   W12
 .byte   Cn3 ,v096
 .byte   W12
 .byte   PEND 
@ 003   ----------------------------------------
Label_9_012E703B:
 .byte   N11 ,As2 ,v116
 .byte   W12
 .byte   As2 ,v096
 .byte   W12
 .byte   As2 ,v056
 .byte   W12
 .byte   As2 ,v116
 .byte   W12
 .byte   As2 ,v096
 .byte   W12
 .byte   As2 ,v056
 .byte   W12
 .byte   As2 ,v116
 .byte   W12
 .byte   As2 ,v096
 .byte   W12
 .byte   PEND 
@ 004   ----------------------------------------
Label_9_012E7055:
 .byte   N11 ,Gs2 ,v116
 .byte   W12
 .byte   Gs2 ,v096
 .byte   W12
 .byte   Gs2 ,v056
 .byte   W12
 .byte   Gs2 ,v116
 .byte   W12
 .byte   Gs2 ,v096
 .byte   W12
 .byte   Gs2 ,v056
 .byte   W12
 .byte   Gs2 ,v116
 .byte   W12
 .byte   Gs2 ,v096
 .byte   W12
 .byte   PEND 
@ 005   ----------------------------------------
 .byte   PATT
  .word Label_9_012E7007
@ 006   ----------------------------------------
 .byte   N11 ,Fn2 ,v116
 .byte   W12
 .byte   Fn2 ,v096
 .byte   W12
 .byte   Fn2 ,v056
 .byte   W12
 .byte   Fn2 ,v116
 .byte   W12
 .byte   Fn2 ,v096
 .byte   W12
 .byte   Fn2 ,v056
 .byte   W12
 .byte   Fn2 ,v116
 .byte   W12
 .byte   Fn2 ,v096
 .byte   W12
@ 007   ----------------------------------------
 .byte   Ds2 ,v116
 .byte   W12
 .byte   Ds2 ,v096
 .byte   W12
 .byte   Ds2 ,v056
 .byte   W12
 .byte   Ds2 ,v116
 .byte   W12
 .byte   Ds2 ,v096
 .byte   W12
 .byte   Ds2 ,v056
 .byte   W12
 .byte   Ds2 ,v116
 .byte   W12
 .byte   Ds2 ,v096
 .byte   W12
@ 008   ----------------------------------------
Label_9_012E70A5:
 .byte   N11 ,Dn3 ,v116
 .byte   W12
 .byte   Dn3 ,v096
 .byte   W12
 .byte   Dn3 ,v056
 .byte   W12
 .byte   Dn3 ,v116
 .byte   W12
 .byte   Dn3 ,v096
 .byte   W12
 .byte   Dn3 ,v056
 .byte   W12
 .byte   Dn3 ,v116
 .byte   W12
 .byte   Dn3 ,v096
 .byte   W12
 .byte   PEND 
@ 009   ----------------------------------------
 .byte   PATT
  .word Label_9_012E7007
@ 010   ----------------------------------------
 .byte   PATT
  .word Label_9_012E7021
@ 011   ----------------------------------------
 .byte   PATT
  .word Label_9_012E703B
@ 012   ----------------------------------------
 .byte   N11 ,An2 ,v116
 .byte   W12
 .byte   An2 ,v096
 .byte   W12
 .byte   An2 ,v056
 .byte   W12
 .byte   An2 ,v116
 .byte   W12
 .byte   An2 ,v096
 .byte   W12
 .byte   An2 ,v056
 .byte   W12
 .byte   An2 ,v116
 .byte   W12
 .byte   An2 ,v096
 .byte   W12
@ 013   ----------------------------------------
 .byte   PATT
  .word Label_9_012E7055
@ 014   ----------------------------------------
Label_9_012E70EC:
 .byte   N11 ,Cs3 ,v116
 .byte   W12
 .byte   Cs3 ,v096
 .byte   W12
 .byte   Cs3 ,v056
 .byte   W12
 .byte   Cs3 ,v116
 .byte   W12
 .byte   Cs3 ,v096
 .byte   W12
 .byte   Cs3 ,v056
 .byte   W12
 .byte   Cs3 ,v116
 .byte   W12
 .byte   Cs3 ,v096
 .byte   W12
 .byte   PEND 
@ 015   ----------------------------------------
 .byte   PATT
  .word Label_9_012E70EC
@ 016   ----------------------------------------
 .byte   PATT
  .word Label_9_012E70A5
@ 017   ----------------------------------------
 .byte   PATT
  .word Label_9_012E7007
@ 018   ----------------------------------------
 .byte   N44 ,Gs0 ,v076
 .byte   W48
 .byte   N22 ,Ds1
 .byte   W24
 .byte   Gs1
 .byte   W24
@ 019   ----------------------------------------
 .byte   N24 ,As1
 .byte   W24
 .byte   N52 ,As0
 .byte   W60
 .byte   N05 ,Cn1
 .byte   W06
 .byte   Dn1
 .byte   W06
@ 020   ----------------------------------------
Label_9_012E7129:
 .byte   N48 ,Ds1 ,v076
 .byte   W48
 .byte   N24 ,As0
 .byte   W24
 .byte   N23 ,Ds1
 .byte   W24
 .byte   PEND 
@ 021   ----------------------------------------
 .byte   N48 ,Fn1
 .byte   W48
 .byte   N23 ,Cn1
 .byte   W24
 .byte   An0
 .byte   W24
@ 022   ----------------------------------------
 .byte   N68 ,Gs0
 .byte   W72
 .byte   N23 ,Ds1
 .byte   W24
@ 023   ----------------------------------------
 .byte   N24 ,As0
 .byte   W24
 .byte   Fn1
 .byte   W24
 .byte   Cn2
 .byte   W24
 .byte   N23 ,As1
 .byte   W24
@ 024   ----------------------------------------
 .byte   N48 ,An1
 .byte   W48
 .byte   N44 ,An0
 .byte   W48
@ 025   ----------------------------------------
 .byte   N24 ,Fn1
 .byte   W24
 .byte   Ds1
 .byte   W24
 .byte   Cn1
 .byte   W24
 .byte   N23 ,An0
 .byte   W24
@ 026   ----------------------------------------
 .byte   N76 ,Gs0
 .byte   W84
 .byte   N05 ,As0
 .byte   W06
 .byte   Cn1
 .byte   W06
@ 027   ----------------------------------------
 .byte   N44 ,As0
 .byte   W48
 .byte   N23 ,Cn1
 .byte   W24
 .byte   Dn1
 .byte   W24
@ 028   ----------------------------------------
 .byte   PATT
  .word Label_9_012E7129
@ 029   ----------------------------------------
 .byte   N48 ,Fn1 ,v076
 .byte   W48
 .byte   N44 ,Fn0
 .byte   W48
@ 030   ----------------------------------------
 .byte   Gs0
 .byte   W48
 .byte   N23 ,Ds1
 .byte   W24
 .byte   N44 ,Gs1
 .byte   W24
@ 031   ----------------------------------------
 .byte   W24
 .byte   N48 ,Gs0
 .byte   W48
 .byte   N23 ,Cn1
 .byte   W24
@ 032   ----------------------------------------
 .byte   N24 ,As2 ,v096
 .byte   W24
 .byte   N24
 .byte   W24
 .byte   N24
 .byte   W24
 .byte   N23
 .byte   W24
@ 033   ----------------------------------------
 .byte   N24 ,Bn2
 .byte   W24
 .byte   N24
 .byte   W24
 .byte   Gn2
 .byte   W24
 .byte   N23 ,Bn2
 .byte   W24
@ 034   ----------------------------------------
Label_9_012E719B:
 .byte   N11 ,Cn3 ,v116
 .byte   W12
 .byte   Cn3 ,v096
 .byte   W12
 .byte   Cn3 ,v056
 .byte   W12
 .byte   As2 ,v116
 .byte   W12
 .byte   As2 ,v096
 .byte   W12
 .byte   As2 ,v056
 .byte   W12
 .byte   Gs2 ,v116
 .byte   W12
 .byte   Gs2 ,v096
 .byte   W12
 .byte   PEND 
@ 035   ----------------------------------------
 .byte   PATT
  .word Label_9_012E7055
@ 036   ----------------------------------------
 .byte   PATT
  .word Label_9_012E719B
@ 037   ----------------------------------------
 .byte   PATT
  .word Label_9_012E7055
@ 038   ----------------------------------------
 .byte   PATT
  .word Label_9_012E7007
@ 039   ----------------------------------------
 .byte   N11 ,Gn2 ,v116
 .byte   W12
 .byte   Gn2 ,v096
 .byte   W12
 .byte   Gn2 ,v056
 .byte   W12
 .byte   Gn2 ,v116
 .byte   W12
 .byte   Gn2 ,v096
 .byte   W12
 .byte   Gn2 ,v056
 .byte   W12
 .byte   Gn2 ,v116
 .byte   W24
@ 040   ----------------------------------------
 .byte   GOTO
  .word Label_9_012E7021
 .byte   FINE

@**************** Track 11 (Midi-Chn.10) ****************@

song94_011:
@ 000   ----------------------------------------
 .byte   KEYSH , song94_key+0
 .byte   VOICE , 127
 .byte   VOL , 29*song94_mvl/mxv
 .byte   PAN , c_v+0
 .byte   BEND , c_v+0
 .byte   N05 ,Dn1 ,v112
 .byte   N13 ,Fs6 ,v040
 .byte   W06
 .byte   N05 ,Dn1 ,v064
 .byte   W06
 .byte   Dn1 ,v100
 .byte   W06
 .byte   Dn1 ,v040
 .byte   W06
 .byte   Dn1 ,v028
 .byte   W06
 .byte   Dn1 ,v020
 .byte   W06
 .byte   Dn1 ,v064
 .byte   N13 ,Fs6 ,v048
 .byte   W06
 .byte   N05 ,Dn1 ,v068
 .byte   W06
 .byte   Dn1 ,v076
 .byte   W06
 .byte   Dn1 ,v064
 .byte   W06
 .byte   Dn1 ,v084
 .byte   W06
 .byte   Dn1 ,v040
 .byte   W06
 .byte   Dn1 ,v096
 .byte   N13 ,Fs6 ,v040
 .byte   W06
 .byte   N05 ,Dn1 ,v020
 .byte   W06
 .byte   Dn1 ,v044
 .byte   W06
 .byte   N02 ,Dn1 ,v056
 .byte   W03
 .byte   Dn1 ,v064
 .byte   W03
@ 001   ----------------------------------------
 .byte   N05 ,Dn1 ,v112
 .byte   N13 ,Fs6 ,v056
 .byte   W06
 .byte   N05 ,Dn1 ,v064
 .byte   W06
 .byte   Dn1 ,v100
 .byte   W06
 .byte   Dn1 ,v040
 .byte   W06
 .byte   Dn1 ,v028
 .byte   W06
 .byte   Dn1 ,v020
 .byte   W06
 .byte   Dn1 ,v064
 .byte   N13 ,Fs6 ,v048
 .byte   W06
 .byte   N05 ,Dn1 ,v080
 .byte   W06
 .byte   Dn1 ,v092
 .byte   W06
 .byte   Dn1 ,v064
 .byte   W06
 .byte   Dn1 ,v100
 .byte   W06
 .byte   Dn1 ,v040
 .byte   W06
 .byte   N23 ,Ds1 ,v092
 .byte   N13 ,Fs6 ,v040
 .byte   W24
@ 002   ----------------------------------------
Label_10_01303EF3:
 .byte   N05 ,Dn1 ,v112
 .byte   N84 ,Cs2 ,v048
 .byte   W06
 .byte   N05 ,Dn1 ,v064
 .byte   W06
 .byte   Dn1 ,v100
 .byte   W06
 .byte   Dn1 ,v040
 .byte   W06
 .byte   Dn1 ,v028
 .byte   W06
 .byte   Dn1 ,v020
 .byte   W06
 .byte   Dn1 ,v064
 .byte   W06
 .byte   Dn1 ,v080
 .byte   W06
 .byte   Dn1 ,v092
 .byte   W06
 .byte   Dn1 ,v064
 .byte   W06
 .byte   Dn1 ,v100
 .byte   W06
 .byte   Dn1 ,v040
 .byte   W06
 .byte   Dn1 ,v028
 .byte   W06
 .byte   Dn1 ,v020
 .byte   W12
 .byte   N02 ,Dn1 ,v056
 .byte   W03
 .byte   Dn1 ,v064
 .byte   W03
@ 003   ----------------------------------------
Label_10_01303F29:
 .byte   N05 ,Dn1 ,v112
 .byte   W06
 .byte   Dn1 ,v064
 .byte   W06
 .byte   Dn1 ,v100
 .byte   W06
 .byte   Dn1 ,v040
 .byte   W06
 .byte   Dn1 ,v028
 .byte   W06
 .byte   Dn1 ,v020
 .byte   W06
 .byte   Dn1 ,v064
 .byte   W06
 .byte   Dn1 ,v080
 .byte   W06
 .byte   Dn1 ,v092
 .byte   W06
 .byte   Dn1 ,v064
 .byte   W06
 .byte   Dn1 ,v100
 .byte   W06
 .byte   Dn1 ,v040
 .byte   W06
 .byte   N23 ,Ds1 ,v080
 .byte   W24
 .byte   PEND 
@ 004   ----------------------------------------
Label_10_01303F53:
 .byte   N05 ,Dn1 ,v112
 .byte   W06
 .byte   Dn1 ,v064
 .byte   W06
 .byte   Dn1 ,v100
 .byte   W06
 .byte   Dn1 ,v040
 .byte   W06
 .byte   Dn1 ,v028
 .byte   W06
 .byte   Dn1 ,v020
 .byte   W06
 .byte   Dn1 ,v064
 .byte   W06
 .byte   Dn1 ,v080
 .byte   W06
 .byte   Dn1 ,v092
 .byte   W06
 .byte   Dn1 ,v064
 .byte   W06
 .byte   Dn1 ,v100
 .byte   W06
 .byte   Dn1 ,v040
 .byte   W06
 .byte   Dn1 ,v028
 .byte   W06
 .byte   Dn1 ,v020
 .byte   W12
 .byte   N02 ,Dn1 ,v056
 .byte   W03
 .byte   Dn1 ,v064
 .byte   W03
 .byte   PEND 
@ 005   ----------------------------------------
 .byte   PATT
  .word Label_10_01303F29
@ 006   ----------------------------------------
 .byte   PATT
  .word Label_10_01303F53
@ 007   ----------------------------------------
 .byte   PATT
  .word Label_10_01303F29
@ 008   ----------------------------------------
 .byte   PATT
  .word Label_10_01303F53
@ 009   ----------------------------------------
 .byte   PATT
  .word Label_10_01303F29
@ 010   ----------------------------------------
 .byte   N05 ,Dn1 ,v112
 .byte   N84 ,Cs2 ,v032
 .byte   W06
 .byte   N05 ,Dn1 ,v064
 .byte   W06
 .byte   Dn1 ,v100
 .byte   W06
 .byte   Dn1 ,v040
 .byte   W06
 .byte   Dn1 ,v028
 .byte   W06
 .byte   Dn1 ,v020
 .byte   W06
 .byte   Dn1 ,v064
 .byte   W06
 .byte   Dn1 ,v080
 .byte   W06
 .byte   Dn1 ,v092
 .byte   W06
 .byte   Dn1 ,v064
 .byte   W06
 .byte   Dn1 ,v100
 .byte   W06
 .byte   Dn1 ,v040
 .byte   W06
 .byte   Dn1 ,v028
 .byte   W06
 .byte   Dn1 ,v020
 .byte   W12
 .byte   N02 ,Dn1 ,v056
 .byte   W03
 .byte   Dn1 ,v064
 .byte   W03
@ 011   ----------------------------------------
 .byte   PATT
  .word Label_10_01303F29
@ 012   ----------------------------------------
 .byte   PATT
  .word Label_10_01303F53
@ 013   ----------------------------------------
 .byte   PATT
  .word Label_10_01303F29
@ 014   ----------------------------------------
 .byte   PATT
  .word Label_10_01303F53
@ 015   ----------------------------------------
 .byte   PATT
  .word Label_10_01303F29
@ 016   ----------------------------------------
 .byte   PATT
  .word Label_10_01303F53
@ 017   ----------------------------------------
 .byte   PATT
  .word Label_10_01303F29
@ 018   ----------------------------------------
Label_10_01303FF8:
 .byte   N15 ,Dn1 ,v064
 .byte   N12 ,Fs6 ,v036
 .byte   W16
 .byte   N15 ,Dn1 ,v064
 .byte   W08
 .byte   N12 ,Fs6 ,v016
 .byte   W08
 .byte   N15 ,Dn1 ,v064
 .byte   W16
 .byte   N15
 .byte   N12 ,Fs6 ,v036
 .byte   W16
 .byte   N15 ,Dn1 ,v064
 .byte   W08
 .byte   N12 ,Fs6 ,v016
 .byte   W08
 .byte   N15 ,Dn1 ,v064
 .byte   W16
 .byte   PEND 
@ 019   ----------------------------------------
Label_10_0130401D:
 .byte   N15 ,Dn1 ,v100
 .byte   N12 ,Fs6 ,v036
 .byte   W16
 .byte   N15 ,Dn1 ,v068
 .byte   W08
 .byte   N12 ,Fs6 ,v016
 .byte   W08
 .byte   N15 ,Dn1 ,v052
 .byte   W16
 .byte   Dn1 ,v040
 .byte   N12 ,Fs6 ,v036
 .byte   W16
 .byte   N15 ,Dn1 ,v032
 .byte   W08
 .byte   N12 ,Fs6 ,v016
 .byte   W08
 .byte   N15 ,Dn1 ,v020
 .byte   W16
 .byte   PEND 
@ 020   ----------------------------------------
 .byte   PATT
  .word Label_10_01303FF8
@ 021   ----------------------------------------
 .byte   PATT
  .word Label_10_0130401D
@ 022   ----------------------------------------
 .byte   PATT
  .word Label_10_01303FF8
@ 023   ----------------------------------------
 .byte   PATT
  .word Label_10_0130401D
@ 024   ----------------------------------------
 .byte   PATT
  .word Label_10_01303FF8
@ 025   ----------------------------------------
 .byte   N15 ,Dn1 ,v100
 .byte   N12 ,Fs6 ,v036
 .byte   W16
 .byte   N15 ,Dn1 ,v068
 .byte   W08
 .byte   N12 ,Fs6 ,v016
 .byte   W08
 .byte   N15 ,Dn1 ,v052
 .byte   W16
 .byte   Dn1 ,v040
 .byte   N12 ,Fs6 ,v036
 .byte   W24
 .byte   N23 ,Ds1 ,v092
 .byte   N03 ,Fn2 ,v004
 .byte   N12 ,Fs6 ,v016
 .byte   W04
 .byte   N03 ,Fn2
 .byte   W04
 .byte   Fn2 ,v028
 .byte   W04
 .byte   Fn2 ,v040
 .byte   W04
 .byte   Fn2 ,v048
 .byte   W04
 .byte   Fn2 ,v060
 .byte   W04
@ 026   ----------------------------------------
 .byte   N05 ,Dn1 ,v120
 .byte   TIE ,Fn2 ,v064
 .byte   W06
 .byte   N05 ,Dn1
 .byte   W06
 .byte   Dn1 ,v108
 .byte   W06
 .byte   Dn1 ,v048
 .byte   W06
 .byte   Dn1 ,v036
 .byte   W06
 .byte   Dn1 ,v028
 .byte   W06
 .byte   Dn1 ,v064
 .byte   W06
 .byte   Dn1 ,v088
 .byte   W06
 .byte   Dn1 ,v100
 .byte   W06
 .byte   Dn1 ,v064
 .byte   W06
 .byte   Dn1 ,v108
 .byte   W06
 .byte   Dn1 ,v048
 .byte   W06
 .byte   Dn1 ,v036
 .byte   W06
 .byte   Dn1 ,v028
 .byte   W12
 .byte   N02 ,Dn1 ,v064
 .byte   W03
 .byte   N02
 .byte   W03
@ 027   ----------------------------------------
 .byte   N05 ,Dn1 ,v120
 .byte   W02
 .byte   EOT
 .byte   Fn2
 .byte   W04
 .byte   N05 ,Dn1 ,v064
 .byte   W06
 .byte   Dn1 ,v108
 .byte   W06
 .byte   Dn1 ,v048
 .byte   W06
 .byte   Dn1 ,v036
 .byte   W06
 .byte   Dn1 ,v028
 .byte   W06
 .byte   Dn1 ,v064
 .byte   W06
 .byte   Dn1 ,v088
 .byte   W06
 .byte   Dn1 ,v100
 .byte   W06
 .byte   Dn1 ,v064
 .byte   W06
 .byte   Dn1 ,v108
 .byte   W06
 .byte   Dn1 ,v048
 .byte   W06
 .byte   N23 ,Ds1 ,v088
 .byte   W24
@ 028   ----------------------------------------
Label_10_013040EF:
 .byte   N05 ,Dn1 ,v120
 .byte   W06
 .byte   Dn1 ,v064
 .byte   W06
 .byte   Dn1 ,v108
 .byte   W06
 .byte   Dn1 ,v048
 .byte   W06
 .byte   Dn1 ,v036
 .byte   W06
 .byte   Dn1 ,v028
 .byte   W06
 .byte   Dn1 ,v064
 .byte   W06
 .byte   Dn1 ,v088
 .byte   W06
 .byte   Dn1 ,v100
 .byte   W06
 .byte   Dn1 ,v064
 .byte   W06
 .byte   Dn1 ,v108
 .byte   W06
 .byte   Dn1 ,v048
 .byte   W06
 .byte   Dn1 ,v036
 .byte   W06
 .byte   Dn1 ,v028
 .byte   W12
 .byte   N02 ,Dn1 ,v064
 .byte   W03
 .byte   N02
 .byte   W03
 .byte   PEND 
@ 029   ----------------------------------------
Label_10_01304121:
 .byte   N05 ,Dn1 ,v120
 .byte   W06
 .byte   Dn1 ,v064
 .byte   W06
 .byte   Dn1 ,v108
 .byte   W06
 .byte   Dn1 ,v048
 .byte   W06
 .byte   Dn1 ,v036
 .byte   W06
 .byte   Dn1 ,v028
 .byte   W06
 .byte   Dn1 ,v064
 .byte   W06
 .byte   Dn1 ,v088
 .byte   W06
 .byte   Dn1 ,v100
 .byte   W06
 .byte   Dn1 ,v064
 .byte   W06
 .byte   Dn1 ,v108
 .byte   W06
 .byte   Dn1 ,v048
 .byte   W06
 .byte   N23 ,Ds1 ,v088
 .byte   W24
 .byte   PEND 
@ 030   ----------------------------------------
 .byte   PATT
  .word Label_10_013040EF
@ 031   ----------------------------------------
 .byte   PATT
  .word Label_10_01304121
@ 032   ----------------------------------------
 .byte   PATT
  .word Label_10_013040EF
@ 033   ----------------------------------------
 .byte   N05 ,Dn1 ,v120
 .byte   W06
 .byte   Dn1 ,v064
 .byte   W06
 .byte   Dn1 ,v108
 .byte   W06
 .byte   Dn1 ,v048
 .byte   W06
 .byte   Dn1 ,v036
 .byte   W06
 .byte   Dn1 ,v028
 .byte   W06
 .byte   Dn1 ,v064
 .byte   W06
 .byte   Dn1 ,v088
 .byte   W06
 .byte   Dn1 ,v044
 .byte   W06
 .byte   Dn1 ,v064
 .byte   W06
 .byte   Dn1 ,v068
 .byte   W06
 .byte   Dn1 ,v064
 .byte   W06
 .byte   N11 ,Ds1 ,v100
 .byte   W12
 .byte   N05 ,Dn1 ,v096
 .byte   W06
 .byte   Dn1 ,v064
 .byte   W06
@ 034   ----------------------------------------
 .byte   N23 ,Ds1 ,v096
 .byte   N92 ,Cs2 ,v048
 .byte   W24
 .byte   N05 ,Dn1 ,v088
 .byte   W06
 .byte   Dn1 ,v064
 .byte   W06
 .byte   Dn1 ,v088
 .byte   W06
 .byte   Dn1 ,v048
 .byte   W06
 .byte   Dn1 ,v036
 .byte   W06
 .byte   Dn1 ,v028
 .byte   W06
 .byte   Dn1 ,v064
 .byte   W06
 .byte   Dn1 ,v096
 .byte   W06
 .byte   N23 ,Ds1
 .byte   W24
@ 035   ----------------------------------------
 .byte   N05 ,Dn1 ,v088
 .byte   W06
 .byte   Dn1 ,v064
 .byte   W06
 .byte   Dn1 ,v088
 .byte   W06
 .byte   Dn1 ,v048
 .byte   W06
 .byte   Dn1 ,v036
 .byte   W06
 .byte   Dn1 ,v072
 .byte   W06
 .byte   Dn1 ,v064
 .byte   W06
 .byte   Dn1 ,v096
 .byte   W06
 .byte   Dn1 ,v064
 .byte   W06
 .byte   Dn1 ,v080
 .byte   W06
 .byte   Dn1 ,v064
 .byte   W06
 .byte   Dn1 ,v048
 .byte   W06
 .byte   N02 ,Dn1 ,v064
 .byte   W03
 .byte   Dn1 ,v076
 .byte   W03
 .byte   N05 ,Dn1 ,v064
 .byte   W06
 .byte   Dn1 ,v068
 .byte   W06
 .byte   Dn1 ,v064
 .byte   W06
@ 036   ----------------------------------------
 .byte   N23 ,Ds1 ,v096
 .byte   N92 ,En2 ,v048
 .byte   W24
 .byte   N05 ,Dn1 ,v088
 .byte   W06
 .byte   Dn1 ,v064
 .byte   W06
 .byte   Dn1 ,v088
 .byte   W06
 .byte   Dn1 ,v048
 .byte   W06
 .byte   Dn1 ,v036
 .byte   W06
 .byte   Dn1 ,v028
 .byte   W06
 .byte   Dn1 ,v064
 .byte   W06
 .byte   Dn1 ,v096
 .byte   W06
 .byte   N23 ,Ds1
 .byte   W24
@ 037   ----------------------------------------
 .byte   N05 ,Dn1 ,v088
 .byte   W06
 .byte   Dn1 ,v064
 .byte   W06
 .byte   Dn1 ,v088
 .byte   W06
 .byte   Dn1 ,v048
 .byte   W06
 .byte   Dn1 ,v036
 .byte   W06
 .byte   Dn1 ,v072
 .byte   W06
 .byte   Dn1 ,v064
 .byte   W06
 .byte   Dn1 ,v096
 .byte   W06
 .byte   Dn1 ,v064
 .byte   W06
 .byte   Dn1 ,v088
 .byte   W06
 .byte   Dn1 ,v064
 .byte   W06
 .byte   Dn1 ,v048
 .byte   W06
 .byte   N02 ,Dn1 ,v064
 .byte   W03
 .byte   Dn1 ,v076
 .byte   W03
 .byte   N05 ,Dn1 ,v064
 .byte   W06
 .byte   Dn1 ,v068
 .byte   W06
 .byte   Dn1 ,v064
 .byte   W06
@ 038   ----------------------------------------
 .byte   Dn1 ,v112
 .byte   N32 ,Fs6 ,v040
 .byte   W06
 .byte   N05 ,Dn1 ,v064
 .byte   W06
 .byte   Dn1 ,v100
 .byte   W06
 .byte   Dn1 ,v040
 .byte   W06
 .byte   Dn1 ,v028
 .byte   W06
 .byte   Dn1 ,v020
 .byte   W06
 .byte   Dn1 ,v064
 .byte   N13 ,Fs6 ,v048
 .byte   W06
 .byte   N05 ,Dn1 ,v068
 .byte   W06
 .byte   Dn1 ,v076
 .byte   W06
 .byte   Dn1 ,v064
 .byte   W06
 .byte   Dn1 ,v084
 .byte   W06
 .byte   Dn1 ,v040
 .byte   W06
 .byte   Dn1 ,v096
 .byte   N13 ,Fs6 ,v040
 .byte   W06
 .byte   N05 ,Dn1 ,v020
 .byte   W06
 .byte   Dn1 ,v044
 .byte   W06
 .byte   N02 ,Dn1 ,v056
 .byte   W03
 .byte   Dn1 ,v064
 .byte   W03
@ 039   ----------------------------------------
 .byte   N05 ,Dn1 ,v112
 .byte   N13 ,Fs6 ,v056
 .byte   W06
 .byte   N05 ,Dn1 ,v064
 .byte   W06
 .byte   Dn1 ,v100
 .byte   W06
 .byte   Dn1 ,v040
 .byte   W06
 .byte   Dn1 ,v028
 .byte   W06
 .byte   Dn1 ,v020
 .byte   W06
 .byte   Dn1 ,v064
 .byte   N13 ,Fs6 ,v048
 .byte   W06
 .byte   N05 ,Dn1 ,v080
 .byte   W06
 .byte   Dn1 ,v092
 .byte   W06
 .byte   Dn1 ,v064
 .byte   W06
 .byte   Dn1 ,v100
 .byte   W06
 .byte   Dn1 ,v040
 .byte   W06
 .byte   N23 ,Ds1 ,v092
 .byte   N13 ,Fs6 ,v040
 .byte   W23
 .byte   PAN , c_v+0
 .byte   BEND , c_v+0
 .byte   W01
@ 040   ----------------------------------------
 .byte   GOTO
  .word Label_10_01303EF3
 .byte   FINE

@**************** Track 12 (Midi-Chn.11) ****************@

song94_012:
@ 000   ----------------------------------------
 .byte   KEYSH , song94_key+0
 .byte   VOICE , 63
 .byte   VOL , 26*song94_mvl/mxv
 .byte   PAN , c_v-14
 .byte   BEND , c_v+0
 .byte   N11 ,Gn5 ,v072
 .byte   W12
 .byte   Gn5 ,v040
 .byte   W12
 .byte   Gn5 ,v016
 .byte   W12
 .byte   Gn5 ,v092
 .byte   W12
 .byte   Gn5 ,v060
 .byte   W12
 .byte   Gn5 ,v036
 .byte   W12
 .byte   Gn5 ,v092
 .byte   W12
 .byte   Gn5 ,v076
 .byte   W12
@ 001   ----------------------------------------
 .byte   Gn5 ,v108
 .byte   W12
 .byte   Gn5 ,v076
 .byte   W12
 .byte   Gn5 ,v052
 .byte   W12
 .byte   Gn5 ,v108
 .byte   W12
 .byte   Gn5 ,v076
 .byte   W12
 .byte   Gn5 ,v052
 .byte   W12
 .byte   Gn5 ,v108
 .byte   W12
 .byte   Gn5 ,v076
 .byte   W12
@ 002   ----------------------------------------
Label_11_0130370B:
 .byte   W96
@ 003   ----------------------------------------
 .byte   W96
@ 004   ----------------------------------------
 .byte   W96
@ 005   ----------------------------------------
 .byte   W96
@ 006   ----------------------------------------
 .byte   W96
@ 007   ----------------------------------------
 .byte   W96
@ 008   ----------------------------------------
 .byte   W96
@ 009   ----------------------------------------
 .byte   W96
@ 010   ----------------------------------------
 .byte   N44 ,Gn2 ,v096
 .byte   W48
 .byte   Cn3
 .byte   W48
@ 011   ----------------------------------------
 .byte   As2
 .byte   W48
 .byte   Fn2
 .byte   W48
@ 012   ----------------------------------------
 .byte   N32
 .byte   W36
 .byte   N02 ,Gn2
 .byte   W03
 .byte   An2
 .byte   W03
 .byte   As2
 .byte   W03
 .byte   Cn3
 .byte   W03
 .byte   N17 ,Dn3
 .byte   W18
 .byte   Ds3
 .byte   W18
 .byte   N11 ,Fn3
 .byte   W12
@ 013   ----------------------------------------
 .byte   N17 ,Gn3
 .byte   W18
 .byte   N05 ,Fn3
 .byte   W06
 .byte   N68 ,Cn3
 .byte   W72
@ 014   ----------------------------------------
 .byte   N44 ,Gs2
 .byte   W48
 .byte   N36 ,Cn3
 .byte   W36
 .byte   W03
 .byte   N02 ,Dn3 ,v104
 .byte   W03
 .byte   Ds3
 .byte   W03
 .byte   En3
 .byte   W03
@ 015   ----------------------------------------
 .byte   N44 ,Fn3 ,v096
 .byte   W48
 .byte   Cn3
 .byte   W48
@ 016   ----------------------------------------
 .byte   N44
 .byte   W48
 .byte   N17 ,An2
 .byte   W18
 .byte   N02 ,As2
 .byte   W03
 .byte   Bn2
 .byte   W03
 .byte   N23 ,Cn3
 .byte   W24
@ 017   ----------------------------------------
 .byte   N48
 .byte   W48
 .byte   N30 ,Bn2
 .byte   W48
@ 018   ----------------------------------------
 .byte   N44 ,Gn2 ,v127
 .byte   W48
 .byte   Cn3
 .byte   W48
@ 019   ----------------------------------------
 .byte   W24
 .byte   N23
 .byte   W24
 .byte   Dn3
 .byte   W24
 .byte   As2
 .byte   W24
@ 020   ----------------------------------------
 .byte   N44 ,Gn2
 .byte   W48
 .byte   N32 ,Ds2
 .byte   W36
 .byte   N05 ,Fn2
 .byte   W06
 .byte   Gn2
 .byte   W06
@ 021   ----------------------------------------
 .byte   N44 ,Fn2
 .byte   W60
 .byte   N23 ,Cn2
 .byte   W24
 .byte   N11 ,Dn2
 .byte   W12
@ 022   ----------------------------------------
 .byte   N44 ,Ds2
 .byte   W48
 .byte   N23 ,Fn2
 .byte   W24
 .byte   Gn2
 .byte   W24
@ 023   ----------------------------------------
 .byte   N44 ,As2
 .byte   W48
 .byte   N17 ,Fn2
 .byte   W18
 .byte   Gn2
 .byte   W18
 .byte   N11 ,As2
 .byte   W12
@ 024   ----------------------------------------
 .byte   N17 ,Cn3
 .byte   W18
 .byte   N05 ,Dn3
 .byte   W06
 .byte   TIE ,Cn3
 .byte   W72
@ 025   ----------------------------------------
 .byte   W68
 .byte   W03
 .byte   EOT
 .byte   W24
 .byte   W01
@ 026   ----------------------------------------
 .byte   N24 ,Cn2 ,v104
 .byte   W24
 .byte   Ds2
 .byte   W24
 .byte   Gs2
 .byte   W24
 .byte   Cn3
 .byte   W24
@ 027   ----------------------------------------
 .byte   N48 ,Dn3
 .byte   W48
 .byte   As2
 .byte   W48
@ 028   ----------------------------------------
 .byte   Gn3
 .byte   W48
 .byte   N24 ,Fn3 ,v080
 .byte   W24
 .byte   Ds3
 .byte   W24
@ 029   ----------------------------------------
 .byte   N96 ,Cn3 ,v104
 .byte   W96
@ 030   ----------------------------------------
 .byte   W24
 .byte   N48 ,Ds2
 .byte   W48
 .byte   Fn2
 .byte   W24
@ 031   ----------------------------------------
 .byte   W24
 .byte   N24 ,Gn2
 .byte   W24
 .byte   Gs2
 .byte   W24
 .byte   Cn3
 .byte   W24
@ 032   ----------------------------------------
 .byte   N72 ,Dn3
 .byte   W72
 .byte   N24 ,Fn3
 .byte   W24
@ 033   ----------------------------------------
 .byte   N96 ,Dn3
 .byte   W96
@ 034   ----------------------------------------
Label_11_013037D4:
 .byte   N36 ,Fn3 ,v104
 .byte   W36
 .byte   N12 ,Ds3
 .byte   W12
 .byte   Ds3 ,v056
 .byte   W12
 .byte   Ds3 ,v040
 .byte   W12
 .byte   N36 ,Dn3 ,v104
 .byte   W24
 .byte   PEND 
@ 035   ----------------------------------------
 .byte   W12
 .byte   N72 ,Cn3
 .byte   W84
@ 036   ----------------------------------------
 .byte   PATT
  .word Label_11_013037D4
@ 037   ----------------------------------------
 .byte   W12
 .byte   N66 ,Cn3 ,v104
 .byte   W84
@ 038   ----------------------------------------
 .byte   N11 ,Gn5 ,v072
 .byte   W12
 .byte   Gn5 ,v040
 .byte   W12
 .byte   Gn5 ,v016
 .byte   W12
 .byte   Gn5 ,v092
 .byte   W12
 .byte   Gn5 ,v060
 .byte   W12
 .byte   Gn5 ,v036
 .byte   W12
 .byte   Gn5 ,v092
 .byte   W12
 .byte   Gn5 ,v076
 .byte   W12
@ 039   ----------------------------------------
 .byte   Gn5 ,v108
 .byte   W12
 .byte   Gn5 ,v076
 .byte   W12
 .byte   Gn5 ,v052
 .byte   W12
 .byte   Gn5 ,v108
 .byte   W12
 .byte   Gn5 ,v076
 .byte   W12
 .byte   Gn5 ,v052
 .byte   W12
 .byte   Gn5 ,v108
 .byte   W24
@ 040   ----------------------------------------
 .byte   GOTO
  .word Label_11_0130370B
 .byte   FINE

@**************** Track 13 (Midi-Chn.12) ****************@

song94_013:
@ 000   ----------------------------------------
 .byte   KEYSH , song94_key+0
 .byte   VOICE , 48
 .byte   VOL , 26*song94_mvl/mxv
 .byte   PAN , c_v+6
 .byte   BEND , c_v+0
 .byte   N32 ,Gn1 ,v116
 .byte   W36
 .byte   Gn1 ,v088
 .byte   W36
 .byte   N23 ,Gn1 ,v116
 .byte   W24
@ 001   ----------------------------------------
 .byte   N32
 .byte   W36
 .byte   Gn1 ,v088
 .byte   W36
 .byte   N11 ,Gn1 ,v116
 .byte   W12
 .byte   N03 ,Gn1 ,v084
 .byte   W04
 .byte   Gn1 ,v092
 .byte   W04
 .byte   Gn1 ,v104
 .byte   W04
@ 002   ----------------------------------------
Label_12_01303B24:
 .byte   N32 ,Cn2 ,v100
 .byte   W36
 .byte   N56 ,Cn2 ,v096
 .byte   W60
 .byte   PEND 
@ 003   ----------------------------------------
Label_12_01303B2D:
 .byte   N32 ,As1 ,v100
 .byte   W36
 .byte   N56 ,As1 ,v096
 .byte   W60
 .byte   PEND 
@ 004   ----------------------------------------
Label_12_01303B36:
 .byte   N32 ,Gs1 ,v100
 .byte   W36
 .byte   N56 ,Gs1 ,v096
 .byte   W60
 .byte   PEND 
@ 005   ----------------------------------------
Label_12_01303B3F:
 .byte   N32 ,Gn1 ,v100
 .byte   W36
 .byte   N56 ,Gn1 ,v096
 .byte   W60
 .byte   PEND 
@ 006   ----------------------------------------
 .byte   N32 ,Fn1 ,v100
 .byte   W36
 .byte   N56 ,Fn1 ,v096
 .byte   W60
@ 007   ----------------------------------------
 .byte   N32 ,Ds1 ,v100
 .byte   W36
 .byte   N56 ,Ds1 ,v096
 .byte   W60
@ 008   ----------------------------------------
Label_12_01303B58:
 .byte   N32 ,Dn2 ,v100
 .byte   W36
 .byte   N56 ,Dn2 ,v096
 .byte   W60
 .byte   PEND 
@ 009   ----------------------------------------
 .byte   PATT
  .word Label_12_01303B3F
@ 010   ----------------------------------------
 .byte   PATT
  .word Label_12_01303B24
@ 011   ----------------------------------------
 .byte   PATT
  .word Label_12_01303B2D
@ 012   ----------------------------------------
 .byte   N32 ,An1 ,v100
 .byte   W36
 .byte   N56 ,An1 ,v096
 .byte   W60
@ 013   ----------------------------------------
 .byte   PATT
  .word Label_12_01303B36
@ 014   ----------------------------------------
Label_12_01303B7D:
 .byte   N32 ,Cs2 ,v100
 .byte   W36
 .byte   N56 ,Cs2 ,v096
 .byte   W60
 .byte   PEND 
@ 015   ----------------------------------------
 .byte   PATT
  .word Label_12_01303B7D
@ 016   ----------------------------------------
 .byte   PATT
  .word Label_12_01303B58
@ 017   ----------------------------------------
 .byte   PATT
  .word Label_12_01303B3F
@ 018   ----------------------------------------
 .byte   N92 ,Gs1 ,v092
 .byte   W96
@ 019   ----------------------------------------
 .byte   As1
 .byte   W96
@ 020   ----------------------------------------
 .byte   Ds1
 .byte   W96
@ 021   ----------------------------------------
 .byte   Fn1
 .byte   W96
@ 022   ----------------------------------------
 .byte   Gs1
 .byte   W96
@ 023   ----------------------------------------
 .byte   As1
 .byte   W96
@ 024   ----------------------------------------
 .byte   An1
 .byte   W96
@ 025   ----------------------------------------
 .byte   N92
 .byte   W96
@ 026   ----------------------------------------
 .byte   Gs1
 .byte   W96
@ 027   ----------------------------------------
 .byte   As1
 .byte   W96
@ 028   ----------------------------------------
 .byte   Ds1
 .byte   W96
@ 029   ----------------------------------------
 .byte   Fn1
 .byte   W96
@ 030   ----------------------------------------
 .byte   Gs1
 .byte   W96
@ 031   ----------------------------------------
 .byte   N92
 .byte   W96
@ 032   ----------------------------------------
 .byte   N24 ,As1 ,v088
 .byte   W24
 .byte   As1 ,v084
 .byte   W24
 .byte   N24
 .byte   W24
 .byte   N23
 .byte   W24
@ 033   ----------------------------------------
 .byte   N24 ,Bn1 ,v116
 .byte   W24
 .byte   Bn1 ,v084
 .byte   W24
 .byte   N24
 .byte   W24
 .byte   N23
 .byte   W24
@ 034   ----------------------------------------
 .byte   N32 ,Cn4 ,v116
 .byte   W36
 .byte   As1 ,v104
 .byte   W36
 .byte   N92 ,Gs1
 .byte   W24
@ 035   ----------------------------------------
 .byte   W72
 .byte   N05 ,Gs1 ,v072
 .byte   W06
 .byte   Gs1 ,v088
 .byte   W06
 .byte   Gs1 ,v096
 .byte   W06
 .byte   Gs1 ,v116
 .byte   W06
@ 036   ----------------------------------------
 .byte   N32 ,Cn4
 .byte   W36
 .byte   As1 ,v104
 .byte   W36
 .byte   N68 ,Gs1
 .byte   W24
@ 037   ----------------------------------------
 .byte   W48
 .byte   N24 ,Ds1 ,v108
 .byte   W24
 .byte   Gs1 ,v116
 .byte   W24
@ 038   ----------------------------------------
 .byte   N32 ,Gn1
 .byte   W36
 .byte   Gn1 ,v088
 .byte   W36
 .byte   N23 ,Gn1 ,v116
 .byte   W24
@ 039   ----------------------------------------
 .byte   N32
 .byte   W36
 .byte   Gn1 ,v088
 .byte   W36
 .byte   N11 ,Gn1 ,v116
 .byte   W12
 .byte   N03 ,Gn1 ,v084
 .byte   W12
@ 040   ----------------------------------------
 .byte   GOTO
  .word Label_12_01303B24
 .byte   FINE

@******************************************************@
	.align	2

song94:
	.byte	13	@ NumTrks
	.byte	0	@ NumBlks
	.byte	song94_pri	@ Priority
	.byte	song94_rev	@ Reverb.
    
	.word	song94_grp
    
	.word	song94_001
	.word	song94_002
	.word	song94_003
	.word	song94_004
	.word	song94_005
	.word	song94_006
	.word	song94_007
	.word	song94_008
	.word	song94_009
	.word	song94_010
	.word	song94_011
	.word	song94_012
	.word	song94_013

	.end
