//Event file generated from Sappy .s format.
	#include "MPlayDef.event"

	#define	song62_grp  voicegroup001
	#define	song62_pri  0
	#define	song62_rev  0
	#define	song62_mvl  127
	#define	song62_key  0
	#define	song62_tbs  1
	#define	song62_exg  0
	#define	song62_cmp  1

	// .rodata
	//	song62
	ALIGN 4


//**************** Track 1 (Midi-Chn.0) ****************//

song62_001:
// 000   ----------------------------------------
 BYTE   KEYSH   song62_key+0
 BYTE   TEMPO   122*song62_tbs/2
 BYTE   VOICE   48
 BYTE   VOL   28*song62_mvl/mxv
 BYTE   PAN   c_v+32
 BYTE   BEND   c_v+0
 BYTE   W96
// 001   ----------------------------------------
 BYTE   W96
// 002   ----------------------------------------
Label_0_0131C156:
 BYTE   W96
// 003   ----------------------------------------
 BYTE   W96
// 004   ----------------------------------------
 BYTE   W96
// 005   ----------------------------------------
 BYTE   W96
// 006   ----------------------------------------
 BYTE   W96
// 007   ----------------------------------------
 BYTE   W96
// 008   ----------------------------------------
 BYTE   W96
// 009   ----------------------------------------
 BYTE   W96
// 010   ----------------------------------------
 BYTE   W96
// 011   ----------------------------------------
 BYTE   W96
// 012   ----------------------------------------
 BYTE   W96
// 013   ----------------------------------------
 BYTE   W96
// 014   ----------------------------------------
 BYTE   W96
// 015   ----------------------------------------
 BYTE   W96
// 016   ----------------------------------------
 BYTE   W96
// 017   ----------------------------------------
 BYTE   N11  Gn0  v127
 BYTE   W12
 BYTE   N03
 BYTE   W12
 BYTE   N07  Gn0  v092
 BYTE   W12
 BYTE   N11  Gn0  v127
 BYTE   W12
 BYTE   N02
 BYTE   W12
 BYTE   N06  Gn0  v092
 BYTE   W12
 BYTE   N11  Gn0  v127
 BYTE   W12
 BYTE   N02  Gn0  v092
 BYTE   W06
 BYTE   Gn0  v080
 BYTE   W06
// 018   ----------------------------------------
 BYTE   N44  Gs0  v116
 BYTE   W48
 BYTE   N21  Ds1
 BYTE   W24
 BYTE   Gs1
 BYTE   W24
// 019   ----------------------------------------
 BYTE   N22  As1
 BYTE   W24
 BYTE   N52  As0
 BYTE   W60
 BYTE   N04  Cn1
 BYTE   W06
 BYTE   Dn1
 BYTE   W06
// 020   ----------------------------------------
Label_0_0131C198:
 BYTE   N44  Ds1  v116
 BYTE   W48
 BYTE   N22  As0
 BYTE   W24
 BYTE   Ds1
 BYTE   W24
 BYTE   PEND 
// 021   ----------------------------------------
 BYTE   N44  Fn1
 BYTE   W48
 BYTE   N22  Cn1
 BYTE   W24
 BYTE   An0
 BYTE   W24
// 022   ----------------------------------------
 BYTE   N68  Gs0
 BYTE   W72
 BYTE   N22  Ds1
 BYTE   W24
// 023   ----------------------------------------
 BYTE   As0
 BYTE   W24
 BYTE   Fn1
 BYTE   W24
 BYTE   Cn2
 BYTE   W24
 BYTE   As1
 BYTE   W24
// 024   ----------------------------------------
 BYTE   N44  An1
 BYTE   W48
 BYTE   An0
 BYTE   W48
// 025   ----------------------------------------
 BYTE   N22  Fn1
 BYTE   W24
 BYTE   Ds1
 BYTE   W24
 BYTE   Cn1
 BYTE   W24
 BYTE   An0
 BYTE   W24
// 026   ----------------------------------------
 BYTE   N76  Gs0
 BYTE   W84
 BYTE   N04  As0
 BYTE   W06
 BYTE   Cn1
 BYTE   W06
// 027   ----------------------------------------
 BYTE   N44  As0
 BYTE   W48
 BYTE   N22  Cn1
 BYTE   W24
 BYTE   Dn1
 BYTE   W24
// 028   ----------------------------------------
 BYTE   PATT
  POIN2 Label_0_0131C198
// 029   ----------------------------------------
 BYTE   N44  Fn1  v116
 BYTE   W48
 BYTE   Fn0
 BYTE   W48
// 030   ----------------------------------------
 BYTE   Gs0
 BYTE   W48
 BYTE   N22  Ds1
 BYTE   W24
 BYTE   N44  Gs1
 BYTE   W24
// 031   ----------------------------------------
 BYTE   W24
 BYTE   Gs0
 BYTE   W48
 BYTE   N22  Cn1
 BYTE   W24
// 032   ----------------------------------------
 BYTE   As0
 BYTE   W24
 BYTE   N22
 BYTE   W24
 BYTE   N22
 BYTE   W24
 BYTE   N22
 BYTE   W24
// 033   ----------------------------------------
 BYTE   Bn0
 BYTE   W24
 BYTE   N22
 BYTE   W24
 BYTE   Gn0
 BYTE   W24
 BYTE   Bn0
 BYTE   W24
// 034   ----------------------------------------
 BYTE   N32  Cn1
 BYTE   W36
 BYTE   As0
 BYTE   W36
 BYTE   N22  Gs0
 BYTE   W24
// 035   ----------------------------------------
Label_0_0131C207:
 BYTE   N30  Gs0  v116
 BYTE   W36
 BYTE   N30
 BYTE   W36
 BYTE   N19
 BYTE   W24
 BYTE   PEND 
// 036   ----------------------------------------
 BYTE   N32  Cn1
 BYTE   W36
 BYTE   As0
 BYTE   W36
 BYTE   N20  Gs0
 BYTE   W24
// 037   ----------------------------------------
 BYTE   PATT
  POIN2 Label_0_0131C207
// 038   ----------------------------------------
 BYTE   N30  Gn0  v127
 BYTE   W36
 BYTE   N30
 BYTE   W36
 BYTE   N19
 BYTE   W24
// 039   ----------------------------------------
 BYTE   N30
 BYTE   W36
 BYTE   N30
 BYTE   W36
 BYTE   N03  Dn1  v104
 BYTE   W12
 BYTE   Gn0
 BYTE   W12
// 040   ----------------------------------------
 BYTE   GoTo
  POIN2 Label_0_0131C156
 BYTE   FINE

//**************** Track 2 (Midi-Chn.1) ****************//

song62_002:
// 000   ----------------------------------------
 BYTE   KEYSH   song62_key+0
 BYTE   VOICE   40
 BYTE   VOL   28*song62_mvl/mxv
 BYTE   PAN   c_v+32
 BYTE   BEND   c_v+0
 BYTE   N11  Gn2  v068
 BYTE   W36
 BYTE   Gn2  v076
 BYTE   W36
 BYTE   Gn2  v092
 BYTE   W24
// 001   ----------------------------------------
 BYTE   Gn2  v108
 BYTE   W36
 BYTE   Gn2  v084
 BYTE   W36
 BYTE   Gn2  v092
 BYTE   W24
// 002   ----------------------------------------
Label_1_0131C65D:
 BYTE   N11  Gn2  v104
 BYTE   W24
 BYTE   Gn2  v072
 BYTE   W24
 BYTE   Gn2  v084
 BYTE   W24
 BYTE   Gn2  v072
 BYTE   W24
 BYTE   PEND 
// 003   ----------------------------------------
Label_1_0131C66B:
 BYTE   N11  Fn2  v104
 BYTE   W24
 BYTE   Fn2  v072
 BYTE   W24
 BYTE   Fn2  v084
 BYTE   W24
 BYTE   Fn2  v072
 BYTE   W24
 BYTE   PEND 
// 004   ----------------------------------------
Label_1_0131C679:
 BYTE   N11  Ds2  v104
 BYTE   W24
 BYTE   Ds2  v072
 BYTE   W24
 BYTE   Ds2  v084
 BYTE   W24
 BYTE   Ds2  v072
 BYTE   W24
 BYTE   PEND 
// 005   ----------------------------------------
 BYTE   Dn2  v104
 BYTE   W24
 BYTE   Dn2  v072
 BYTE   W24
 BYTE   Dn2  v084
 BYTE   W24
 BYTE   Dn2  v072
 BYTE   W24
// 006   ----------------------------------------
Label_1_0131C693:
 BYTE   N11  Cn2  v104
 BYTE   W24
 BYTE   Cn2  v072
 BYTE   W24
 BYTE   Cn2  v084
 BYTE   W24
 BYTE   Cn2  v072
 BYTE   W24
 BYTE   PEND 
// 007   ----------------------------------------
 BYTE   PATT
  POIN2 Label_1_0131C693
// 008   ----------------------------------------
 BYTE   N11  Dn2  v104
 BYTE   W24
 BYTE   Dn2  v072
 BYTE   W24
 BYTE   Fn2  v084
 BYTE   W24
 BYTE   Fn2  v072
 BYTE   W24
// 009   ----------------------------------------
 BYTE   PATT
  POIN2 Label_1_0131C65D
// 010   ----------------------------------------
 BYTE   PATT
  POIN2 Label_1_0131C65D
// 011   ----------------------------------------
 BYTE   PATT
  POIN2 Label_1_0131C66B
// 012   ----------------------------------------
 BYTE   PATT
  POIN2 Label_1_0131C66B
// 013   ----------------------------------------
 BYTE   PATT
  POIN2 Label_1_0131C65D
// 014   ----------------------------------------
 BYTE   PATT
  POIN2 Label_1_0131C679
// 015   ----------------------------------------
 BYTE   PATT
  POIN2 Label_1_0131C66B
// 016   ----------------------------------------
 BYTE   PATT
  POIN2 Label_1_0131C66B
// 017   ----------------------------------------
 BYTE   N11  Gn2  v104
 BYTE   W24
 BYTE   Cn3  v072
 BYTE   W24
 BYTE   Dn3  v084
 BYTE   W24
 BYTE   Gn2  v072
 BYTE   W24
// 018   ----------------------------------------
 BYTE   W96
// 019   ----------------------------------------
 BYTE   W96
// 020   ----------------------------------------
 BYTE   W96
// 021   ----------------------------------------
 BYTE   W96
// 022   ----------------------------------------
 BYTE   W96
// 023   ----------------------------------------
 BYTE   W96
// 024   ----------------------------------------
 BYTE   W96
// 025   ----------------------------------------
 BYTE   W96
// 026   ----------------------------------------
 BYTE   W96
// 027   ----------------------------------------
 BYTE   W96
// 028   ----------------------------------------
 BYTE   W96
// 029   ----------------------------------------
 BYTE   W96
// 030   ----------------------------------------
 BYTE   W96
// 031   ----------------------------------------
 BYTE   W96
// 032   ----------------------------------------
 BYTE   W96
// 033   ----------------------------------------
 BYTE   W96
// 034   ----------------------------------------
 BYTE   W96
// 035   ----------------------------------------
 BYTE   W96
// 036   ----------------------------------------
 BYTE   W96
// 037   ----------------------------------------
 BYTE   W96
// 038   ----------------------------------------
 BYTE   Gn2  v068
 BYTE   W36
 BYTE   Gn2  v076
 BYTE   W36
 BYTE   Gn2  v092
 BYTE   W24
// 039   ----------------------------------------
 BYTE   N11
 BYTE   W36
 BYTE   Gn2  v068
 BYTE   W36
 BYTE   Gn2  v092
 BYTE   W24
// 040   ----------------------------------------
 BYTE   GoTo
  POIN2 Label_1_0131C65D
 BYTE   FINE

//**************** Track 3 (Midi-Chn.2) ****************//

song62_003:
// 000   ----------------------------------------
 BYTE   KEYSH   song62_key+0
 BYTE   VOICE   40
 BYTE   VOL   28*song62_mvl/mxv
 BYTE   PAN   c_v+0
 BYTE   BEND   c_v+0
 BYTE   N11  Dn2  v068
 BYTE   W36
 BYTE   Dn2  v076
 BYTE   W36
 BYTE   Dn2  v092
 BYTE   W24
// 001   ----------------------------------------
 BYTE   Dn2  v108
 BYTE   W36
 BYTE   Dn2  v084
 BYTE   W36
 BYTE   Dn2  v092
 BYTE   W24
// 002   ----------------------------------------
Label_2_0131C731:
 BYTE   N11  Ds2  v104
 BYTE   W24
 BYTE   Ds2  v072
 BYTE   W24
 BYTE   Ds2  v084
 BYTE   W24
 BYTE   Ds2  v072
 BYTE   W24
 BYTE   PEND 
// 003   ----------------------------------------
Label_2_0131C73F:
 BYTE   N11  Dn2  v104
 BYTE   W24
 BYTE   Dn2  v072
 BYTE   W24
 BYTE   Dn2  v084
 BYTE   W24
 BYTE   Dn2  v072
 BYTE   W24
 BYTE   PEND 
// 004   ----------------------------------------
Label_2_0131C74D:
 BYTE   N11  Cn2  v104
 BYTE   W24
 BYTE   Cn2  v072
 BYTE   W24
 BYTE   Cn2  v084
 BYTE   W24
 BYTE   Cn2  v072
 BYTE   W24
 BYTE   PEND 
// 005   ----------------------------------------
Label_2_0131C75B:
 BYTE   N11  As1  v104
 BYTE   W24
 BYTE   As1  v072
 BYTE   W24
 BYTE   As1  v084
 BYTE   W24
 BYTE   As1  v072
 BYTE   W24
 BYTE   PEND 
// 006   ----------------------------------------
 BYTE   Gs1  v104
 BYTE   W24
 BYTE   Gs1  v072
 BYTE   W24
 BYTE   Gs1  v084
 BYTE   W24
 BYTE   Gs1  v072
 BYTE   W24
// 007   ----------------------------------------
 BYTE   PATT
  POIN2 Label_2_0131C75B
// 008   ----------------------------------------
 BYTE   N11  Gs1  v104
 BYTE   W24
 BYTE   Gs1  v072
 BYTE   W24
 BYTE   Cn2  v084
 BYTE   W24
 BYTE   Cn2  v072
 BYTE   W24
// 009   ----------------------------------------
 BYTE   PATT
  POIN2 Label_2_0131C73F
// 010   ----------------------------------------
 BYTE   PATT
  POIN2 Label_2_0131C731
// 011   ----------------------------------------
 BYTE   PATT
  POIN2 Label_2_0131C73F
// 012   ----------------------------------------
 BYTE   PATT
  POIN2 Label_2_0131C74D
// 013   ----------------------------------------
 BYTE   PATT
  POIN2 Label_2_0131C731
// 014   ----------------------------------------
 BYTE   PATT
  POIN2 Label_2_0131C74D
// 015   ----------------------------------------
 BYTE   PATT
  POIN2 Label_2_0131C74D
// 016   ----------------------------------------
 BYTE   N11  En2  v104
 BYTE   W24
 BYTE   En2  v072
 BYTE   W24
 BYTE   En2  v084
 BYTE   W24
 BYTE   En2  v072
 BYTE   W24
// 017   ----------------------------------------
 BYTE   Dn2  v104
 BYTE   W24
 BYTE   Gn2  v072
 BYTE   W24
 BYTE   Fn2  v084
 BYTE   W24
 BYTE   Dn2  v072
 BYTE   W24
// 018   ----------------------------------------
 BYTE   W96
// 019   ----------------------------------------
 BYTE   W96
// 020   ----------------------------------------
 BYTE   W96
// 021   ----------------------------------------
 BYTE   W96
// 022   ----------------------------------------
 BYTE   W96
// 023   ----------------------------------------
 BYTE   W96
// 024   ----------------------------------------
 BYTE   W96
// 025   ----------------------------------------
 BYTE   W96
// 026   ----------------------------------------
 BYTE   W96
// 027   ----------------------------------------
 BYTE   W96
// 028   ----------------------------------------
 BYTE   W96
// 029   ----------------------------------------
 BYTE   W96
// 030   ----------------------------------------
 BYTE   W96
// 031   ----------------------------------------
 BYTE   W96
// 032   ----------------------------------------
 BYTE   W96
// 033   ----------------------------------------
 BYTE   W96
// 034   ----------------------------------------
 BYTE   W96
// 035   ----------------------------------------
 BYTE   W96
// 036   ----------------------------------------
 BYTE   W96
// 037   ----------------------------------------
 BYTE   W96
// 038   ----------------------------------------
 BYTE   Dn2  v068
 BYTE   W36
 BYTE   Dn2  v076
 BYTE   W36
 BYTE   Dn2  v092
 BYTE   W24
// 039   ----------------------------------------
 BYTE   N11
 BYTE   W36
 BYTE   Dn2  v068
 BYTE   W36
 BYTE   Dn2  v092
 BYTE   W24
// 040   ----------------------------------------
 BYTE   GoTo
  POIN2 Label_2_0131C731
 BYTE   FINE

//**************** Track 4 (Midi-Chn.3) ****************//

song62_004:
// 000   ----------------------------------------
 BYTE   KEYSH   song62_key+0
 BYTE   VOICE   40
 BYTE   PAN   c_v+15
 BYTE   VOL   28*song62_mvl/mxv
 BYTE   BEND   c_v+0
 BYTE   N11  Cn2  v068
 BYTE   W12
 BYTE   N04  Gn1  v064
 BYTE   W12
 BYTE   Gn1  v076
 BYTE   W12
 BYTE   N11  Cn2
 BYTE   W12
 BYTE   N04  Gn1
 BYTE   W12
 BYTE   Gn1  v064
 BYTE   W12
 BYTE   N11  Cn2  v092
 BYTE   W12
 BYTE   N04  Gn1  v064
 BYTE   W12
// 001   ----------------------------------------
 BYTE   N11  Bn1  v108
 BYTE   W12
 BYTE   N04  Gn1  v064
 BYTE   W12
 BYTE   Gn1  v076
 BYTE   W12
 BYTE   N11  Bn1  v084
 BYTE   W12
 BYTE   N04  Gn1  v076
 BYTE   W12
 BYTE   Gn1  v064
 BYTE   W12
 BYTE   N11  Bn1  v092
 BYTE   W12
 BYTE   N04  Gn1  v064
 BYTE   W12
// 002   ----------------------------------------
Label_3_0131B7FC:
 BYTE   N11  Dn2  v104
 BYTE   W12
 BYTE   N04  Gn1  v076
 BYTE   W12
 BYTE   N11  Dn2  v072
 BYTE   W12
 BYTE   N04  Gn1  v076
 BYTE   W12
 BYTE   N11  Dn2  v084
 BYTE   W12
 BYTE   N04  Gn1  v076
 BYTE   W12
 BYTE   N11  Dn2  v072
 BYTE   W12
 BYTE   N04  Gn1  v076
 BYTE   W12
 BYTE   PEND 
// 003   ----------------------------------------
Label_3_0131B81D:
 BYTE   N11  Cn2  v104
 BYTE   W12
 BYTE   N04  Fn1  v076
 BYTE   W12
 BYTE   N11  Cn2  v072
 BYTE   W12
 BYTE   N04  Fn1  v076
 BYTE   W12
 BYTE   N11  Cn2  v084
 BYTE   W12
 BYTE   N04  Fn1  v076
 BYTE   W12
 BYTE   N11  Cn2  v072
 BYTE   W12
 BYTE   N04  Fn1  v076
 BYTE   W12
 BYTE   PEND 
// 004   ----------------------------------------
Label_3_0131B83E:
 BYTE   N11  As1  v104
 BYTE   W12
 BYTE   N04  Gn1  v076
 BYTE   W12
 BYTE   N11  As1  v072
 BYTE   W12
 BYTE   N04  Gn1  v076
 BYTE   W12
 BYTE   N11  As1  v084
 BYTE   W12
 BYTE   N04  Gn1  v076
 BYTE   W12
 BYTE   N11  As1  v072
 BYTE   W12
 BYTE   N04  Gn1  v076
 BYTE   W12
 BYTE   PEND 
// 005   ----------------------------------------
Label_3_0131B85F:
 BYTE   N11  An1  v104
 BYTE   W12
 BYTE   N04  Fn1  v076
 BYTE   W12
 BYTE   N11  An1  v072
 BYTE   W12
 BYTE   N04  Fn1  v076
 BYTE   W12
 BYTE   N11  An1  v084
 BYTE   W12
 BYTE   N04  Fn1  v076
 BYTE   W12
 BYTE   N11  An1  v072
 BYTE   W12
 BYTE   N04  Fn1  v076
 BYTE   W12
 BYTE   PEND 
// 006   ----------------------------------------
Label_3_0131B880:
 BYTE   N11  Gn1  v104
 BYTE   W12
 BYTE   N04  Ds1  v076
 BYTE   W12
 BYTE   N11  Gn1  v072
 BYTE   W12
 BYTE   N04  Ds1  v076
 BYTE   W12
 BYTE   N11  Gn1  v084
 BYTE   W12
 BYTE   N04  Ds1  v076
 BYTE   W12
 BYTE   N11  Gn1  v072
 BYTE   W12
 BYTE   N04  Ds1  v076
 BYTE   W12
 BYTE   PEND 
// 007   ----------------------------------------
 BYTE   PATT
  POIN2 Label_3_0131B880
// 008   ----------------------------------------
 BYTE   N11  Fn1  v104
 BYTE   W12
 BYTE   N04  Dn1  v076
 BYTE   W12
 BYTE   N11  Fn1  v072
 BYTE   W12
 BYTE   N04  Dn1  v076
 BYTE   W12
 BYTE   N11  Gs1  v084
 BYTE   W12
 BYTE   N04  Fn1  v076
 BYTE   W12
 BYTE   N11  Gs1  v072
 BYTE   W12
 BYTE   N04  Fn1  v076
 BYTE   W12
// 009   ----------------------------------------
 BYTE   N11  Cn2  v104
 BYTE   W12
 BYTE   N04  Gn1  v076
 BYTE   W12
 BYTE   N11  Cn2  v072
 BYTE   W12
 BYTE   N04  Gn1  v076
 BYTE   W12
 BYTE   N11  Bn1  v084
 BYTE   W12
 BYTE   N04  Gn1  v076
 BYTE   W12
 BYTE   N11  Bn1  v072
 BYTE   W12
 BYTE   N04  Gn1  v076
 BYTE   W12
// 010   ----------------------------------------
 BYTE   PATT
  POIN2 Label_3_0131B7FC
// 011   ----------------------------------------
 BYTE   PATT
  POIN2 Label_3_0131B81D
// 012   ----------------------------------------
 BYTE   PATT
  POIN2 Label_3_0131B85F
// 013   ----------------------------------------
 BYTE   PATT
  POIN2 Label_3_0131B83E
// 014   ----------------------------------------
Label_3_0131B8FA:
 BYTE   N11  Gs1  v104
 BYTE   W12
 BYTE   N04  Fn1  v076
 BYTE   W12
 BYTE   N11  Gs1  v072
 BYTE   W12
 BYTE   N04  Fn1  v076
 BYTE   W12
 BYTE   N11  Gs1  v084
 BYTE   W12
 BYTE   N04  Fn1  v076
 BYTE   W12
 BYTE   N11  Gs1  v072
 BYTE   W12
 BYTE   N04  Fn1  v076
 BYTE   W12
 BYTE   PEND 
// 015   ----------------------------------------
 BYTE   PATT
  POIN2 Label_3_0131B8FA
// 016   ----------------------------------------
 BYTE   N11  Cn2  v104
 BYTE   W12
 BYTE   N04  An1  v076
 BYTE   W12
 BYTE   N11  Cn2  v072
 BYTE   W12
 BYTE   N04  An1  v076
 BYTE   W12
 BYTE   N11  Cn2  v084
 BYTE   W12
 BYTE   N04  An1  v076
 BYTE   W12
 BYTE   N11  Cn2  v072
 BYTE   W12
 BYTE   N04  An1  v076
 BYTE   W12
// 017   ----------------------------------------
 BYTE   N11  Cn2  v104
 BYTE   W12
 BYTE   N04  Gn1  v076
 BYTE   W12
 BYTE   N11  Dn2  v072
 BYTE   W12
 BYTE   N04  Cn2  v076
 BYTE   W12
 BYTE   N11  Bn1  v084
 BYTE   W12
 BYTE   N04  Gn1  v076
 BYTE   W12
 BYTE   N11  Bn1  v072
 BYTE   W12
 BYTE   N04  Gn1  v076
 BYTE   W12
// 018   ----------------------------------------
 BYTE   W96
// 019   ----------------------------------------
 BYTE   W96
// 020   ----------------------------------------
 BYTE   W96
// 021   ----------------------------------------
 BYTE   W96
// 022   ----------------------------------------
 BYTE   W96
// 023   ----------------------------------------
 BYTE   W96
// 024   ----------------------------------------
 BYTE   W96
// 025   ----------------------------------------
 BYTE   W96
// 026   ----------------------------------------
 BYTE   W96
// 027   ----------------------------------------
 BYTE   W96
// 028   ----------------------------------------
 BYTE   W96
// 029   ----------------------------------------
 BYTE   W96
// 030   ----------------------------------------
 BYTE   W96
// 031   ----------------------------------------
 BYTE   W96
// 032   ----------------------------------------
 BYTE   W96
// 033   ----------------------------------------
 BYTE   W96
// 034   ----------------------------------------
 BYTE   W96
// 035   ----------------------------------------
 BYTE   W96
// 036   ----------------------------------------
 BYTE   W96
// 037   ----------------------------------------
 BYTE   W96
// 038   ----------------------------------------
 BYTE   N11  Cn2  v068
 BYTE   W12
 BYTE   N04  Gn1  v064
 BYTE   W12
 BYTE   Gn1  v076
 BYTE   W12
 BYTE   N11  Cn2
 BYTE   W12
 BYTE   N04  Gn1
 BYTE   W12
 BYTE   Gn1  v064
 BYTE   W12
 BYTE   N11  Cn2  v092
 BYTE   W12
 BYTE   N04  Gn1  v064
 BYTE   W12
// 039   ----------------------------------------
 BYTE   N11  Bn1  v092
 BYTE   W12
 BYTE   N04  Gn1  v064
 BYTE   W12
 BYTE   Gn1  v076
 BYTE   W12
 BYTE   N11  Bn1  v068
 BYTE   W12
 BYTE   N04  Gn1  v076
 BYTE   W12
 BYTE   Gn1  v064
 BYTE   W12
 BYTE   N11  Bn1  v092
 BYTE   W12
 BYTE   N04  Gn1  v064
 BYTE   W12
// 040   ----------------------------------------
 BYTE   GoTo
  POIN2 Label_3_0131B7FC
 BYTE   FINE

//**************** Track 5 (Midi-Chn.4) ****************//

song62_005:
// 000   ----------------------------------------
 BYTE   KEYSH   song62_key+0
 BYTE   VOICE   73
 BYTE   VOL   23*song62_mvl/mxv
 BYTE   PAN   c_v-23
 BYTE   BEND   c_v+0
 BYTE   W96
// 001   ----------------------------------------
 BYTE   W92
 BYTE   W01
 BYTE   W03
// 002   ----------------------------------------
Label_4_0133B71E:
 BYTE   N32  Ds4  v108
 BYTE   W02
 BYTE   W01
 BYTE   W01
 BYTE   W01
 BYTE   W01
 BYTE   W01
 BYTE   W10
 BYTE   W01
 BYTE   W02
 BYTE   W01
 BYTE   W02
 BYTE   W01
 BYTE   W02
 BYTE   W01
 BYTE   W02
 BYTE   W01
 BYTE   W01
 BYTE   W02
 BYTE   W01
 BYTE   W01
 BYTE   W01
 BYTE   N05  Fn4
 BYTE   W01
 BYTE   W01
 BYTE   W02
 BYTE   W01
 BYTE   W01
 BYTE   Gn4
 BYTE   W01
 BYTE   W01
 BYTE   W02
 BYTE   W01
 BYTE   W01
 BYTE   N56  Cn5
 BYTE   W01
 BYTE   W02
 BYTE   W01
 BYTE   W02
 BYTE   W01
 BYTE   W02
 BYTE   W01
 BYTE   W01
 BYTE   W08
 BYTE   W04
 BYTE   W05
 BYTE   W04
 BYTE   W01
 BYTE   W02
 BYTE   W01
 BYTE   W02
 BYTE   W01
 BYTE   W02
 BYTE   W01
 BYTE   W02
 BYTE   W01
 BYTE   W02
 BYTE   W01
// 003   ----------------------------------------
 BYTE   W02
 BYTE   W01
 BYTE   W15
 BYTE   N02  Cn5  v084
 BYTE   W03
 BYTE   Cs5
 BYTE   W03
 BYTE   N23  Dn5  v104
 BYTE   W02
 BYTE   W01
 BYTE   W01
 BYTE   W01
 BYTE   W01
 BYTE   W01
 BYTE   W01
 BYTE   W01
 BYTE   W02
 BYTE   W01
 BYTE   W02
 BYTE   W01
 BYTE   W02
 BYTE   W01
 BYTE   W02
 BYTE   W01
 BYTE   W02
 BYTE   W01
 BYTE   As4  v108
 BYTE   W08
 BYTE   W05
 BYTE   W04
 BYTE   W04
 BYTE   W03
 BYTE   Fn4
 BYTE   W01
 BYTE   W04
 BYTE   W03
 BYTE   W03
 BYTE   W03
 BYTE   W03
 BYTE   W03
 BYTE   W03
 BYTE   W01
// 004   ----------------------------------------
 BYTE   N17  Gn4
 BYTE   W06
 BYTE   W06
 BYTE   W06
 BYTE   N05  Fn4
 BYTE   W01
 BYTE   W05
 BYTE   N92  Gn4
 BYTE   W01
 BYTE   W01
 BYTE   W01
 BYTE   W01
 BYTE   W01
 BYTE   W01
 BYTE   W03
 BYTE   W03
 BYTE   W03
 BYTE   W03
 BYTE   W01
 BYTE   W01
 BYTE   W02
 BYTE   W01
 BYTE   W02
 BYTE   W01
 BYTE   W02
 BYTE   W01
 BYTE   W02
 BYTE   W01
 BYTE   W03
 BYTE   W03
 BYTE   W03
 BYTE   W03
 BYTE   W03
 BYTE   W03
 BYTE   W03
 BYTE   W03
 BYTE   W03
 BYTE   W01
 BYTE   W02
 BYTE   W01
 BYTE   W02
 BYTE   W01
 BYTE   W02
 BYTE   W01
 BYTE   W02
 BYTE   W01
// 005   ----------------------------------------
 BYTE   W02
 BYTE   W01
 BYTE   W02
 BYTE   W01
 BYTE   W02
 BYTE   W01
 BYTE   W02
 BYTE   W01
 BYTE   W02
 BYTE   W01
 BYTE   W02
 BYTE   W01
 BYTE   W02
 BYTE   W01
 BYTE   W02
 BYTE   W01
 BYTE   W02
 BYTE   W01
 BYTE   W01
 BYTE   W02
 BYTE   W01
 BYTE   W02
 BYTE   W01
 BYTE   W02
 BYTE   W01
 BYTE   W02
 BYTE   W01
 BYTE   W02
 BYTE   N02  As4  v084
 BYTE   W01
 BYTE   W02
 BYTE   Bn4
 BYTE   W01
 BYTE   W02
 BYTE   N23  Cn5  v108
 BYTE   W01
 BYTE   W02
 BYTE   W01
 BYTE   W02
 BYTE   W01
 BYTE   W01
 BYTE   W09
 BYTE   W05
 BYTE   W02
 BYTE   As4
 BYTE   W03
 BYTE   W04
 BYTE   W02
 BYTE   W01
 BYTE   W02
 BYTE   W01
 BYTE   W02
 BYTE   W01
 BYTE   W02
 BYTE   W01
 BYTE   W02
 BYTE   W01
 BYTE   W01
 BYTE   W01
// 006   ----------------------------------------
 BYTE   N32  Gn4
 BYTE   W01
 BYTE   W01
 BYTE   W01
 BYTE   W01
 BYTE   W03
 BYTE   W03
 BYTE   W03
 BYTE   W03
 BYTE   W02
 BYTE   W01
 BYTE   W02
 BYTE   W01
 BYTE   W02
 BYTE   W01
 BYTE   W02
 BYTE   W01
 BYTE   W02
 BYTE   W01
 BYTE   W02
 BYTE   W01
 BYTE   W01
 BYTE   W01
 BYTE   N05
 BYTE   W06
 BYTE   Gs4
 BYTE   W06
 BYTE   N44  Fn4
 BYTE   W02
 BYTE   W03
 BYTE   W03
 BYTE   W03
 BYTE   W03
 BYTE   W03
 BYTE   W03
 BYTE   W03
 BYTE   W01
 BYTE   W01
 BYTE   W02
 BYTE   W01
 BYTE   W02
 BYTE   W01
 BYTE   W02
 BYTE   W01
 BYTE   W02
 BYTE   W01
 BYTE   W02
 BYTE   W01
 BYTE   W02
 BYTE   W01
 BYTE   W02
 BYTE   W01
 BYTE   W02
// 007   ----------------------------------------
 BYTE   W01
 BYTE   W01
 BYTE   W02
 BYTE   W01
 BYTE   W02
 BYTE   W01
 BYTE   W02
 BYTE   W01
 BYTE   W02
 BYTE   W01
 BYTE   W02
 BYTE   W01
 BYTE   W02
 BYTE   W01
 BYTE   W01
 BYTE   W03
 BYTE   N23  Gn4
 BYTE   W03
 BYTE   W03
 BYTE   W02
 BYTE   W01
 BYTE   W02
 BYTE   W01
 BYTE   W02
 BYTE   W01
 BYTE   W02
 BYTE   W01
 BYTE   W01
 BYTE   W05
 BYTE   N17  Cn4
 BYTE   W02
 BYTE   W01
 BYTE   W02
 BYTE   W01
 BYTE   W02
 BYTE   W01
 BYTE   W06
 BYTE   W03
 BYTE   Dn4
 BYTE   W03
 BYTE   W03
 BYTE   W03
 BYTE   W03
 BYTE   W03
 BYTE   W03
 BYTE   N11  Ds4
 BYTE   W03
 BYTE   W03
 BYTE   W03
 BYTE   W03
// 008   ----------------------------------------
 BYTE   N17  Gn4
 BYTE   W02
 BYTE   W01
 BYTE   W02
 BYTE   W01
 BYTE   W02
 BYTE   W01
 BYTE   W01
 BYTE   W03
 BYTE   W03
 BYTE   W02
 BYTE   N05  Fn4
 BYTE   W01
 BYTE   W02
 BYTE   W01
 BYTE   W02
 BYTE   TIE  Gn4
 BYTE   W01
 BYTE   W01
 BYTE   W01
 BYTE   W01
 BYTE   W01
 BYTE   W01
 BYTE   W01
 BYTE   W01
 BYTE   W01
 BYTE   W03
 BYTE   W03
 BYTE   W03
 BYTE   W03
 BYTE   W03
 BYTE   W03
 BYTE   W01
 BYTE   W02
 BYTE   W01
 BYTE   W02
 BYTE   W01
 BYTE   W01
 BYTE   W03
 BYTE   W03
 BYTE   W03
 BYTE   W03
 BYTE   W03
 BYTE   W03
 BYTE   W03
 BYTE   W02
 BYTE   W03
 BYTE   W03
 BYTE   W03
 BYTE   W03
 BYTE   W02
// 009   ----------------------------------------
 BYTE   W01
 BYTE   W03
 BYTE   W03
 BYTE   W03
 BYTE   W03
 BYTE   W03
 BYTE   W03
 BYTE   W01
 BYTE   W02
 BYTE   W01
 BYTE   W02
 BYTE   W01
 BYTE   W02
 BYTE   W01
 BYTE   W02
 BYTE   W01
 BYTE   W02
 BYTE   W01
 BYTE   W02
 BYTE   W01
 BYTE   W02
 BYTE   W01
 BYTE   W02
 BYTE   W01
 BYTE   W02
 BYTE   W01
 BYTE   W02
 BYTE   W01
 BYTE   W02
 BYTE   W01
 BYTE   W02
 BYTE   W01
 BYTE   W02
 BYTE   W01
 BYTE   W02
 BYTE   W01
 BYTE   EOT
 BYTE   W02
 BYTE   W01
 BYTE   W02
 BYTE   W01
 BYTE   W02
 BYTE   W01
 BYTE   W01
 BYTE   W01
 BYTE   W01
 BYTE   W01
 BYTE   W01
 BYTE   W01
 BYTE   W01
 BYTE   W01
 BYTE   W01
 BYTE   W01
 BYTE   W01
 BYTE   W01
 BYTE   W01
 BYTE   W01
 BYTE   W01
 BYTE   W01
 BYTE   W01
 BYTE   W01
 BYTE   W01
 BYTE   W01
 BYTE   W01
 BYTE   W01
 BYTE   W01
 BYTE   W01
 BYTE   W01
// 010   ----------------------------------------
 BYTE   N32  Ds4
 BYTE   W01
 BYTE   W01
 BYTE   W01
 BYTE   W01
 BYTE   W01
 BYTE   W09
 BYTE   W08
 BYTE   W02
 BYTE   W01
 BYTE   W02
 BYTE   W01
 BYTE   W02
 BYTE   W01
 BYTE   W02
 BYTE   W01
 BYTE   W02
 BYTE   N05  Fn4
 BYTE   W01
 BYTE   W03
 BYTE   W02
 BYTE   Gn4
 BYTE   W01
 BYTE   W03
 BYTE   W02
 BYTE   N56  Cn5
 BYTE   W01
 BYTE   W01
 BYTE   W01
 BYTE   W01
 BYTE   W01
 BYTE   W03
 BYTE   W03
 BYTE   W03
 BYTE   W02
 BYTE   W01
 BYTE   W02
 BYTE   W01
 BYTE   W02
 BYTE   W01
 BYTE   W02
 BYTE   W01
 BYTE   W02
 BYTE   W01
 BYTE   W02
 BYTE   W01
 BYTE   W02
 BYTE   W02
 BYTE   W01
 BYTE   W02
 BYTE   W01
 BYTE   W02
 BYTE   W01
 BYTE   W02
 BYTE   W01
 BYTE   W01
 BYTE   W01
// 011   ----------------------------------------
 BYTE   W02
 BYTE   W01
 BYTE   W02
 BYTE   W01
 BYTE   W02
 BYTE   W01
 BYTE   W01
 BYTE   W02
 BYTE   W01
 BYTE   W02
 BYTE   W09
 BYTE   N23
 BYTE   W01
 BYTE   W01
 BYTE   W02
 BYTE   W01
 BYTE   W02
 BYTE   W01
 BYTE   W01
 BYTE   W02
 BYTE   W01
 BYTE   W02
 BYTE   W01
 BYTE   W02
 BYTE   W01
 BYTE   W02
 BYTE   W01
 BYTE   W02
 BYTE   W01
 BYTE   N17  Dn5  v104
 BYTE   W02
 BYTE   W01
 BYTE   W13
 BYTE   W02
 BYTE   Ds5  v092
 BYTE   W10
 BYTE   W03
 BYTE   W03
 BYTE   W02
 BYTE   N11  Fn5  v088
 BYTE   W01
 BYTE   W03
 BYTE   W03
 BYTE   W03
 BYTE   W02
// 012   ----------------------------------------
 BYTE   N40  Gn5  v080
 BYTE   W02
 BYTE   W01
 BYTE   W02
 BYTE   W01
 BYTE   W02
 BYTE   W01
 BYTE   W02
 BYTE   W01
 BYTE   W02
 BYTE   W01
 BYTE   W01
 BYTE   W03
 BYTE   W03
 BYTE   W03
 BYTE   W03
 BYTE   W03
 BYTE   W03
 BYTE   W02
 BYTE   W01
 BYTE   W02
 BYTE   W01
 BYTE   W01
 BYTE   W01
 BYTE   N05  Fn5  v088
 BYTE   W06
 BYTE   N44  Cn5  v108
 BYTE   W06
 BYTE   W02
 BYTE   W01
 BYTE   W02
 BYTE   W01
 BYTE   W02
 BYTE   W01
 BYTE   W01
 BYTE   W08
 BYTE   W08
 BYTE   W08
 BYTE   W08
// 013   ----------------------------------------
 BYTE   W02
 BYTE   W01
 BYTE   W01
 BYTE   W03
 BYTE   W03
 BYTE   W03
 BYTE   W03
 BYTE   W03
 BYTE   W03
 BYTE   W02
 BYTE   N23  Gn4
 BYTE   W02
 BYTE   W01
 BYTE   W02
 BYTE   W01
 BYTE   W02
 BYTE   W01
 BYTE   W02
 BYTE   W01
 BYTE   W02
 BYTE   W01
 BYTE   W02
 BYTE   W01
 BYTE   W02
 BYTE   W01
 BYTE   W02
 BYTE   W01
 BYTE   Ds5  v092
 BYTE   W02
 BYTE   W01
 BYTE   W02
 BYTE   W01
 BYTE   W02
 BYTE   W03
 BYTE   W03
 BYTE   W03
 BYTE   W03
 BYTE   W03
 BYTE   W01
 BYTE   Dn5  v104
 BYTE   W07
 BYTE   W09
 BYTE   W01
 BYTE   W02
 BYTE   W01
 BYTE   W02
 BYTE   W01
 BYTE   W01
// 014   ----------------------------------------
 BYTE   N40  Cn5  v108
 BYTE   W01
 BYTE   W01
 BYTE   W02
 BYTE   W01
 BYTE   W02
 BYTE   W01
 BYTE   W03
 BYTE   W03
 BYTE   W03
 BYTE   W03
 BYTE   W03
 BYTE   W03
 BYTE   W02
 BYTE   W01
 BYTE   W02
 BYTE   W01
 BYTE   W02
 BYTE   W01
 BYTE   W02
 BYTE   W01
 BYTE   W02
 BYTE   W02
 BYTE   N05  As4
 BYTE   W06
 BYTE   N44  Fn4
 BYTE   W08
 BYTE   W03
 BYTE   W03
 BYTE   W03
 BYTE   W03
 BYTE   W03
 BYTE   W01
 BYTE   W02
 BYTE   W01
 BYTE   W02
 BYTE   W01
 BYTE   W02
 BYTE   W01
 BYTE   W02
 BYTE   W01
 BYTE   W02
 BYTE   W01
 BYTE   W02
 BYTE   W01
 BYTE   W02
 BYTE   W01
 BYTE   W02
 BYTE   W01
// 015   ----------------------------------------
 BYTE   W02
 BYTE   W01
 BYTE   W02
 BYTE   W03
 BYTE   W03
 BYTE   W03
 BYTE   W03
 BYTE   W03
 BYTE   W01
 BYTE   W02
 BYTE   W01
 BYTE   N23
 BYTE   W02
 BYTE   W01
 BYTE   W02
 BYTE   W01
 BYTE   W02
 BYTE   W01
 BYTE   W02
 BYTE   W01
 BYTE   W01
 BYTE   W03
 BYTE   W03
 BYTE   W03
 BYTE   W02
 BYTE   N17  Gn4
 BYTE   W18
 BYTE   Gs4
 BYTE   W18
 BYTE   N11  As4
 BYTE   W12
// 016   ----------------------------------------
 BYTE   N17  Gn4
 BYTE   W02
 BYTE   W01
 BYTE   W01
 BYTE   W01
 BYTE   W01
 BYTE   W01
 BYTE   W01
 BYTE   W02
 BYTE   W01
 BYTE   W02
 BYTE   W01
 BYTE   W02
 BYTE   W01
 BYTE   W01
 BYTE   N05  Fn4
 BYTE   W01
 BYTE   W01
 BYTE   W02
 BYTE   W01
 BYTE   W01
 BYTE   TIE  Gn4
 BYTE   W01
 BYTE   W01
 BYTE   W01
 BYTE   W01
 BYTE   W01
 BYTE   W01
 BYTE   W01
 BYTE   W18
 BYTE   W02
 BYTE   W01
 BYTE   W02
 BYTE   W01
 BYTE   W03
 BYTE   W03
 BYTE   W03
 BYTE   W03
 BYTE   W03
 BYTE   W03
 BYTE   W03
 BYTE   W03
 BYTE   W03
 BYTE   W03
 BYTE   W03
 BYTE   W03
 BYTE   W03
 BYTE   W02
// 017   ----------------------------------------
 BYTE   W01
 BYTE   W03
 BYTE   W03
 BYTE   W03
 BYTE   W03
 BYTE   W01
 BYTE   W03
 BYTE   W03
 BYTE   W03
 BYTE   W03
 BYTE   W03
 BYTE   W03
 BYTE   W03
 BYTE   W03
 BYTE   W03
 BYTE   W03
 BYTE   W03
 BYTE   W03
 BYTE   W03
 BYTE   W03
 BYTE   W03
 BYTE   W03
 BYTE   W03
 BYTE   W03
 BYTE   W03
 BYTE   W03
 BYTE   W03
 BYTE   EOT
 BYTE   W03
 BYTE   W03
 BYTE   W01
 BYTE   W12
// 018   ----------------------------------------
 BYTE   W64
 BYTE   W01
 BYTE   W30
 BYTE   W01
// 019   ----------------------------------------
 BYTE   W44
 BYTE   W01
 BYTE   W48
 BYTE   W03
// 020   ----------------------------------------
 BYTE   W24
 BYTE   W02
 BYTE   W68
 BYTE   W02
// 021   ----------------------------------------
 BYTE   W07
 BYTE   W76
 BYTE   W01
 BYTE   W12
// 022   ----------------------------------------
 BYTE   W64
 BYTE   W32
// 023   ----------------------------------------
 BYTE   W44
 BYTE   W01
 BYTE   W48
 BYTE   W03
// 024   ----------------------------------------
 BYTE   W24
 BYTE   W02
 BYTE   W01
 BYTE   W01
 BYTE   W01
 BYTE   W01
 BYTE   W01
 BYTE   W01
 BYTE   W01
 BYTE   W01
 BYTE   W01
 BYTE   W01
 BYTE   W01
 BYTE   W01
 BYTE   W01
 BYTE   W01
 BYTE   W01
 BYTE   W01
 BYTE   N02  As4  v084
 BYTE   W01
 BYTE   W02
 BYTE   Bn4
 BYTE   W01
 BYTE   W02
 BYTE   N17  Cn5  v108
 BYTE   W01
 BYTE   W01
 BYTE   W01
 BYTE   W01
 BYTE   W07
 BYTE   W01
 BYTE   W02
 BYTE   W01
 BYTE   W02
 BYTE   W01
 BYTE   N05  Dn5
 BYTE   W06
 BYTE   TIE  Cn5
 BYTE   W02
 BYTE   W01
 BYTE   W02
 BYTE   W01
 BYTE   W02
 BYTE   W01
 BYTE   W02
 BYTE   W01
 BYTE   W02
 BYTE   W03
 BYTE   W03
 BYTE   W03
 BYTE   W01
// 025   ----------------------------------------
 BYTE   W02
 BYTE   W03
 BYTE   W03
 BYTE   W03
 BYTE   W03
 BYTE   W03
 BYTE   W03
 BYTE   W03
 BYTE   W03
 BYTE   W03
 BYTE   W03
 BYTE   W03
 BYTE   W03
 BYTE   W03
 BYTE   W03
 BYTE   W01
 BYTE   W01
 BYTE   W02
 BYTE   W01
 BYTE   W02
 BYTE   W01
 BYTE   W02
 BYTE   W01
 BYTE   W02
 BYTE   W01
 BYTE   W02
 BYTE   W01
 BYTE   W02
 BYTE   W01
 BYTE   W02
 BYTE   W01
 BYTE   W02
 BYTE   W01
 BYTE   W02
 BYTE   W01
 BYTE   W02
 BYTE   W01
 BYTE   W02
 BYTE   W01
 BYTE   W02
 BYTE   W01
 BYTE   W02
 BYTE   W01
 BYTE   W02
 BYTE   W01
 BYTE   W02
 BYTE   W01
 BYTE   EOT
 BYTE   W02
 BYTE   W01
 BYTE   W02
// 026   ----------------------------------------
 BYTE   W01
 BYTE   W48
 BYTE   W03
 BYTE   W24
 BYTE   W02
 BYTE   W18
// 027   ----------------------------------------
 BYTE   W08
 BYTE   W24
 BYTE   W01
 BYTE   W24
 BYTE   W02
 BYTE   W24
 BYTE   W02
 BYTE   W11
// 028   ----------------------------------------
 BYTE   W14
 BYTE   W24
 BYTE   W02
 BYTE   W24
 BYTE   W01
 BYTE   W24
 BYTE   W02
 BYTE   W05
// 029   ----------------------------------------
 BYTE   W21
 BYTE   W24
 BYTE   W01
 BYTE   W24
 BYTE   W02
 BYTE   W24
// 030   ----------------------------------------
 BYTE   W01
 BYTE   W24
 BYTE   W02
 BYTE   W24
 BYTE   W02
 BYTE   W24
 BYTE   W01
 BYTE   W18
// 031   ----------------------------------------
 BYTE   W08
 BYTE   W24
 BYTE   W01
 BYTE   W24
 BYTE   W02
 BYTE   W24
 BYTE   W02
 BYTE   W11
// 032   ----------------------------------------
 BYTE   W14
 BYTE   W24
 BYTE   W02
 BYTE   W24
 BYTE   W02
 BYTE   W24
 BYTE   W01
 BYTE   W05
// 033   ----------------------------------------
 BYTE   W21
 BYTE   W24
 BYTE   W01
 BYTE   W24
 BYTE   W02
 BYTE   W18
 BYTE   N01  Dn5  v036
 BYTE   W02
 BYTE   Ds5  v056
 BYTE   W02
 BYTE   En5  v068
 BYTE   W02
// 034   ----------------------------------------
 BYTE   N17  Fn5  v092
 BYTE   W01
 BYTE   W01
 BYTE   W01
 BYTE   W01
 BYTE   W02
 BYTE   W01
 BYTE   W02
 BYTE   W02
 BYTE   W01
 BYTE   W02
 BYTE   W01
 BYTE   W02
 BYTE   W01
 BYTE   N05  Gn5
 BYTE   W06
 BYTE   N11  Fn5
 BYTE   W12
 BYTE   N23  Ds5  v100
 BYTE   W02
 BYTE   W01
 BYTE   W01
 BYTE   W01
 BYTE   W02
 BYTE   W01
 BYTE   W02
 BYTE   W01
 BYTE   W02
 BYTE   W01
 BYTE   W02
 BYTE   W01
 BYTE   W02
 BYTE   W01
 BYTE   W02
 BYTE   W01
 BYTE   W02
 BYTE   W01
 BYTE   W02
 BYTE   W01
 BYTE   W02
 BYTE   W01
 BYTE   W02
 BYTE   W01
 BYTE   W01
 BYTE   N17  Dn5
 BYTE   W01
 BYTE   W01
 BYTE   W01
 BYTE   W01
 BYTE   W02
 BYTE   W01
 BYTE   W02
 BYTE   W01
 BYTE   W02
 BYTE   W01
 BYTE   W01
 BYTE   W01
 BYTE   W01
 BYTE   W01
 BYTE   W01
 BYTE   N05  Ds5
 BYTE   W06
// 035   ----------------------------------------
 BYTE   N11  Dn5
 BYTE   W01
 BYTE   W02
 BYTE   W01
 BYTE   W02
 BYTE   W02
 BYTE   W01
 BYTE   W02
 BYTE   W01
 BYTE   N52  Cn5
 BYTE   W02
 BYTE   W02
 BYTE   W01
 BYTE   W02
 BYTE   W01
 BYTE   W03
 BYTE   W03
 BYTE   W03
 BYTE   W03
 BYTE   W03
 BYTE   W03
 BYTE   W03
 BYTE   W01
 BYTE   W02
 BYTE   W01
 BYTE   W02
 BYTE   W01
 BYTE   W02
 BYTE   W01
 BYTE   W02
 BYTE   W01
 BYTE   W02
 BYTE   W01
 BYTE   W02
 BYTE   W01
 BYTE   W02
 BYTE   W01
 BYTE   W02
 BYTE   W01
 BYTE   W02
 BYTE   W01
 BYTE   W01
 BYTE   W01
 BYTE   W01
 BYTE   N11  Dn5
 BYTE   W03
 BYTE   W03
 BYTE   W03
 BYTE   W03
 BYTE   Ds5
 BYTE   W03
 BYTE   W03
 BYTE   W03
 BYTE   W03
// 036   ----------------------------------------
 BYTE   N17  Fn5  v092
 BYTE   W01
 BYTE   W01
 BYTE   W01
 BYTE   W13
 BYTE   W01
 BYTE   W01
 BYTE   N05  Gn5
 BYTE   W06
 BYTE   N11  Fn5
 BYTE   W03
 BYTE   W03
 BYTE   W03
 BYTE   W03
 BYTE   N28  Ds5  v100
 BYTE   W01
 BYTE   W02
 BYTE   W01
 BYTE   W02
 BYTE   W01
 BYTE   W01
 BYTE   W03
 BYTE   W03
 BYTE   W03
 BYTE   W01
 BYTE   W02
 BYTE   W01
 BYTE   W02
 BYTE   W01
 BYTE   W02
 BYTE   W02
 BYTE   W01
 BYTE   W01
 BYTE   N01  Fn5  v048
 BYTE   W01
 BYTE   W01
 BYTE   Gn5  v064
 BYTE   W02
 BYTE   Gs5  v072
 BYTE   W01
 BYTE   W01
 BYTE   N23  As5  v084
 BYTE   W01
 BYTE   W01
 BYTE   W02
 BYTE   W01
 BYTE   W02
 BYTE   W02
 BYTE   W01
 BYTE   W02
 BYTE   W01
 BYTE   W02
 BYTE   W01
 BYTE   W02
 BYTE   W01
 BYTE   W02
 BYTE   W01
 BYTE   W02
// 037   ----------------------------------------
 BYTE   N05  Gs5  v092
 BYTE   W06
 BYTE   Gn5
 BYTE   W06
 BYTE   N72  Ds5  v100
 BYTE   W01
 BYTE   W01
 BYTE   W01
 BYTE   W01
 BYTE   W01
 BYTE   W01
 BYTE   W01
 BYTE   W03
 BYTE   W03
 BYTE   W03
 BYTE   W03
 BYTE   W03
 BYTE   W03
 BYTE   W03
 BYTE   W03
 BYTE   W02
 BYTE   W03
 BYTE   W03
 BYTE   W03
 BYTE   W03
 BYTE   W03
 BYTE   W03
 BYTE   W03
 BYTE   W03
 BYTE   W03
 BYTE   W03
 BYTE   W03
 BYTE   W02
 BYTE   W01
 BYTE   W02
 BYTE   W01
 BYTE   W02
 BYTE   W01
 BYTE   W02
 BYTE   W01
 BYTE   W02
 BYTE   W01
 BYTE   W02
 BYTE   W01
// 038   ----------------------------------------
 BYTE   N44  Gn3  v108
 BYTE   W01
 BYTE   W01
 BYTE   W01
 BYTE   W01
 BYTE   W01
 BYTE   W01
 BYTE   W01
 BYTE   W01
 BYTE   W01
 BYTE   W01
 BYTE   W01
 BYTE   W01
 BYTE   W01
 BYTE   W01
 BYTE   W01
 BYTE   W01
 BYTE   W03
 BYTE   W03
 BYTE   W03
 BYTE   W03
 BYTE   W03
 BYTE   W01
 BYTE   W01
 BYTE   W01
 BYTE   W01
 BYTE   W01
 BYTE   W01
 BYTE   W01
 BYTE   W01
 BYTE   W01
 BYTE   W01
 BYTE   W01
 BYTE   W01
 BYTE   W01
 BYTE   W01
 BYTE   W01
 BYTE   W01
 BYTE   W01
 BYTE   N36  Dn4
 BYTE   W01
 BYTE   W01
 BYTE   W01
 BYTE   W01
 BYTE   W01
 BYTE   W01
 BYTE   W01
 BYTE   W01
 BYTE   W01
 BYTE   W01
 BYTE   W01
 BYTE   W01
 BYTE   W07
 BYTE   W02
 BYTE   W01
 BYTE   W02
 BYTE   W01
 BYTE   W02
 BYTE   W01
 BYTE   W02
 BYTE   W10
 BYTE   N03  Cs4
 BYTE   W04
 BYTE   Cn4
 BYTE   W04
// 039   ----------------------------------------
 BYTE   N80  Bn3
 BYTE   W04
 BYTE   W03
 BYTE   W03
 BYTE   W03
 BYTE   W03
 BYTE   W03
 BYTE   W03
 BYTE   W03
 BYTE   W03
 BYTE   W03
 BYTE   W03
 BYTE   W03
 BYTE   W03
 BYTE   W03
 BYTE   W03
 BYTE   W01
 BYTE   W02
 BYTE   W01
 BYTE   W02
 BYTE   W01
 BYTE   W02
 BYTE   W01
 BYTE   W02
 BYTE   W01
 BYTE   W02
 BYTE   W01
 BYTE   W02
 BYTE   W01
 BYTE   W02
 BYTE   W01
 BYTE   W02
 BYTE   W01
 BYTE   W02
 BYTE   W01
 BYTE   W02
 BYTE   W01
 BYTE   W02
 BYTE   W01
 BYTE   W02
 BYTE   W01
 BYTE   W02
 BYTE   W07
 BYTE   W01
 BYTE   W03
// 040   ----------------------------------------
 BYTE   GoTo
  POIN2 Label_4_0133B71E
 BYTE   FINE

//**************** Track 6 (Midi-Chn.5) ****************//

song62_006:
// 000   ----------------------------------------
 BYTE   KEYSH   song62_key+0
 BYTE   VOICE   73
 BYTE   VOL   16*song62_mvl/mxv
 BYTE   PAN   c_v+17
 BYTE   BEND   c_v+0
 BYTE   W09
 BYTE   W84
 BYTE   W03
// 001   ----------------------------------------
 BYTE   W96
// 002   ----------------------------------------
Label_5_0133BC9A:
 BYTE   W09
 BYTE   N32  Ds4  v108
 BYTE   W02
 BYTE   W01
 BYTE   W01
 BYTE   W01
 BYTE   W01
 BYTE   W01
 BYTE   W10
 BYTE   W01
 BYTE   W02
 BYTE   W01
 BYTE   W02
 BYTE   W01
 BYTE   W02
 BYTE   W01
 BYTE   W02
 BYTE   W01
 BYTE   W01
 BYTE   W02
 BYTE   W01
 BYTE   W01
 BYTE   W01
 BYTE   N05  Fn4
 BYTE   W01
 BYTE   W01
 BYTE   W02
 BYTE   W01
 BYTE   W01
 BYTE   Gn4
 BYTE   W01
 BYTE   W01
 BYTE   W02
 BYTE   W01
 BYTE   W01
 BYTE   N56  Cn5
 BYTE   W01
 BYTE   W02
 BYTE   W01
 BYTE   W02
 BYTE   W01
 BYTE   W02
 BYTE   W01
 BYTE   W01
 BYTE   W08
 BYTE   W04
 BYTE   W05
 BYTE   W04
 BYTE   W01
 BYTE   W02
 BYTE   W01
 BYTE   W02
 BYTE   W01
// 003   ----------------------------------------
 BYTE   W02
 BYTE   W01
 BYTE   W02
 BYTE   W01
 BYTE   W02
 BYTE   W01
 BYTE   W02
 BYTE   W01
 BYTE   W15
 BYTE   N02  Cn5  v084
 BYTE   W03
 BYTE   Cs5
 BYTE   W03
 BYTE   N23  Dn5  v104
 BYTE   W02
 BYTE   W01
 BYTE   W01
 BYTE   W01
 BYTE   W01
 BYTE   W01
 BYTE   W01
 BYTE   W01
 BYTE   W02
 BYTE   W01
 BYTE   W02
 BYTE   W01
 BYTE   W02
 BYTE   W01
 BYTE   W02
 BYTE   W01
 BYTE   W02
 BYTE   W01
 BYTE   As4  v108
 BYTE   W08
 BYTE   W05
 BYTE   W04
 BYTE   W04
 BYTE   W03
 BYTE   Fn4
 BYTE   W01
 BYTE   W04
 BYTE   W03
 BYTE   W03
 BYTE   W03
 BYTE   W01
// 004   ----------------------------------------
 BYTE   W02
 BYTE   W03
 BYTE   W03
 BYTE   W01
 BYTE   N17  Gn4
 BYTE   W06
 BYTE   W06
 BYTE   W06
 BYTE   N05  Fn4
 BYTE   W01
 BYTE   W05
 BYTE   N92  Gn4
 BYTE   W01
 BYTE   W01
 BYTE   W01
 BYTE   W01
 BYTE   W01
 BYTE   W01
 BYTE   W03
 BYTE   W03
 BYTE   W03
 BYTE   W03
 BYTE   W01
 BYTE   W01
 BYTE   W02
 BYTE   W01
 BYTE   W02
 BYTE   W01
 BYTE   W02
 BYTE   W01
 BYTE   W02
 BYTE   W01
 BYTE   W03
 BYTE   W03
 BYTE   W03
 BYTE   W03
 BYTE   W03
 BYTE   W03
 BYTE   W03
 BYTE   W03
 BYTE   W03
 BYTE   W01
 BYTE   W02
 BYTE   W01
// 005   ----------------------------------------
 BYTE   W02
 BYTE   W01
 BYTE   W02
 BYTE   W01
 BYTE   W02
 BYTE   W01
 BYTE   W02
 BYTE   W01
 BYTE   W02
 BYTE   W01
 BYTE   W02
 BYTE   W01
 BYTE   W02
 BYTE   W01
 BYTE   W02
 BYTE   W01
 BYTE   W02
 BYTE   W01
 BYTE   W02
 BYTE   W01
 BYTE   W02
 BYTE   W01
 BYTE   W02
 BYTE   W01
 BYTE   W01
 BYTE   W02
 BYTE   W01
 BYTE   W02
 BYTE   W01
 BYTE   W02
 BYTE   W01
 BYTE   W02
 BYTE   W01
 BYTE   W02
 BYTE   N02  As4  v084
 BYTE   W01
 BYTE   W02
 BYTE   Bn4
 BYTE   W01
 BYTE   W02
 BYTE   N23  Cn5  v108
 BYTE   W01
 BYTE   W02
 BYTE   W01
 BYTE   W02
 BYTE   W01
 BYTE   W01
 BYTE   W09
 BYTE   W05
 BYTE   W02
 BYTE   As4
 BYTE   W03
 BYTE   W04
 BYTE   W02
 BYTE   W01
 BYTE   W02
 BYTE   W01
 BYTE   W02
// 006   ----------------------------------------
 BYTE   W01
 BYTE   W02
 BYTE   W01
 BYTE   W02
 BYTE   W01
 BYTE   W01
 BYTE   W01
 BYTE   N32  Gn4
 BYTE   W01
 BYTE   W01
 BYTE   W01
 BYTE   W01
 BYTE   W03
 BYTE   W03
 BYTE   W03
 BYTE   W03
 BYTE   W02
 BYTE   W01
 BYTE   W02
 BYTE   W01
 BYTE   W02
 BYTE   W01
 BYTE   W02
 BYTE   W01
 BYTE   W02
 BYTE   W01
 BYTE   W02
 BYTE   W01
 BYTE   W01
 BYTE   W01
 BYTE   N05
 BYTE   W06
 BYTE   Gs4
 BYTE   W06
 BYTE   N44  Fn4
 BYTE   W02
 BYTE   W03
 BYTE   W03
 BYTE   W03
 BYTE   W03
 BYTE   W03
 BYTE   W03
 BYTE   W03
 BYTE   W01
 BYTE   W01
 BYTE   W02
 BYTE   W01
 BYTE   W02
 BYTE   W01
 BYTE   W02
 BYTE   W01
 BYTE   W02
 BYTE   W01
 BYTE   W02
// 007   ----------------------------------------
 BYTE   W01
 BYTE   W02
 BYTE   W01
 BYTE   W02
 BYTE   W01
 BYTE   W02
 BYTE   W01
 BYTE   W01
 BYTE   W02
 BYTE   W01
 BYTE   W02
 BYTE   W01
 BYTE   W02
 BYTE   W01
 BYTE   W02
 BYTE   W01
 BYTE   W02
 BYTE   W01
 BYTE   W02
 BYTE   W01
 BYTE   W01
 BYTE   W03
 BYTE   N23  Gn4
 BYTE   W03
 BYTE   W03
 BYTE   W02
 BYTE   W01
 BYTE   W02
 BYTE   W01
 BYTE   W02
 BYTE   W01
 BYTE   W02
 BYTE   W01
 BYTE   W01
 BYTE   W05
 BYTE   N17  Cn4
 BYTE   W02
 BYTE   W01
 BYTE   W02
 BYTE   W01
 BYTE   W02
 BYTE   W01
 BYTE   W06
 BYTE   W03
 BYTE   Dn4
 BYTE   W03
 BYTE   W03
 BYTE   W03
 BYTE   W03
 BYTE   W03
 BYTE   W03
 BYTE   N11  Ds4
 BYTE   W03
// 008   ----------------------------------------
 BYTE   W03
 BYTE   W03
 BYTE   W03
 BYTE   N17  Gn4
 BYTE   W02
 BYTE   W01
 BYTE   W02
 BYTE   W01
 BYTE   W02
 BYTE   W01
 BYTE   W01
 BYTE   W03
 BYTE   W03
 BYTE   W02
 BYTE   N05  Fn4
 BYTE   W01
 BYTE   W02
 BYTE   W01
 BYTE   W02
 BYTE   TIE  Gn4
 BYTE   W01
 BYTE   W01
 BYTE   W01
 BYTE   W01
 BYTE   W01
 BYTE   W01
 BYTE   W01
 BYTE   W01
 BYTE   W01
 BYTE   W03
 BYTE   W03
 BYTE   W03
 BYTE   W03
 BYTE   W03
 BYTE   W03
 BYTE   W01
 BYTE   W02
 BYTE   W01
 BYTE   W02
 BYTE   W01
 BYTE   W01
 BYTE   W03
 BYTE   W03
 BYTE   W03
 BYTE   W03
 BYTE   W03
 BYTE   W03
 BYTE   W03
 BYTE   W02
 BYTE   W03
 BYTE   W02
// 009   ----------------------------------------
 BYTE   W01
 BYTE   W03
 BYTE   W03
 BYTE   W03
 BYTE   W03
 BYTE   W03
 BYTE   W03
 BYTE   W03
 BYTE   W03
 BYTE   W03
 BYTE   W01
 BYTE   W02
 BYTE   W01
 BYTE   W02
 BYTE   W01
 BYTE   W02
 BYTE   W01
 BYTE   W02
 BYTE   W01
 BYTE   W02
 BYTE   W01
 BYTE   W02
 BYTE   W01
 BYTE   W02
 BYTE   W01
 BYTE   W02
 BYTE   W01
 BYTE   W02
 BYTE   W01
 BYTE   W02
 BYTE   W01
 BYTE   W02
 BYTE   W01
 BYTE   W02
 BYTE   W01
 BYTE   W02
 BYTE   W01
 BYTE   W02
 BYTE   W01
 BYTE   EOT
 BYTE   W02
 BYTE   W01
 BYTE   W02
 BYTE   W01
 BYTE   W02
 BYTE   W01
 BYTE   W01
 BYTE   W01
 BYTE   W01
 BYTE   W01
 BYTE   W01
 BYTE   W01
 BYTE   W01
 BYTE   W01
 BYTE   W01
 BYTE   W01
 BYTE   W01
 BYTE   W01
 BYTE   W01
 BYTE   W01
 BYTE   W01
 BYTE   W01
// 010   ----------------------------------------
 BYTE   W01
 BYTE   W01
 BYTE   W01
 BYTE   W01
 BYTE   W01
 BYTE   W01
 BYTE   W01
 BYTE   W01
 BYTE   W01
 BYTE   N32  Ds4
 BYTE   W01
 BYTE   W01
 BYTE   W01
 BYTE   W01
 BYTE   W01
 BYTE   W09
 BYTE   W08
 BYTE   W02
 BYTE   W01
 BYTE   W02
 BYTE   W01
 BYTE   W02
 BYTE   W01
 BYTE   W02
 BYTE   W01
 BYTE   W02
 BYTE   N05  Fn4
 BYTE   W01
 BYTE   W03
 BYTE   W02
 BYTE   Gn4
 BYTE   W01
 BYTE   W03
 BYTE   W02
 BYTE   N56  Cn5
 BYTE   W01
 BYTE   W01
 BYTE   W01
 BYTE   W01
 BYTE   W01
 BYTE   W03
 BYTE   W03
 BYTE   W03
 BYTE   W02
 BYTE   W01
 BYTE   W02
 BYTE   W01
 BYTE   W02
 BYTE   W01
 BYTE   W02
 BYTE   W01
 BYTE   W02
 BYTE   W01
 BYTE   W02
 BYTE   W01
 BYTE   W02
 BYTE   W02
 BYTE   W01
 BYTE   W02
// 011   ----------------------------------------
 BYTE   W01
 BYTE   W02
 BYTE   W01
 BYTE   W02
 BYTE   W01
 BYTE   W01
 BYTE   W01
 BYTE   W02
 BYTE   W01
 BYTE   W02
 BYTE   W01
 BYTE   W02
 BYTE   W01
 BYTE   W01
 BYTE   W02
 BYTE   W01
 BYTE   W02
 BYTE   W09
 BYTE   N23
 BYTE   W01
 BYTE   W01
 BYTE   W02
 BYTE   W01
 BYTE   W02
 BYTE   W01
 BYTE   W01
 BYTE   W02
 BYTE   W01
 BYTE   W02
 BYTE   W01
 BYTE   W02
 BYTE   W01
 BYTE   W02
 BYTE   W01
 BYTE   W02
 BYTE   W01
 BYTE   N17  Dn5  v104
 BYTE   W02
 BYTE   W01
 BYTE   W13
 BYTE   W02
 BYTE   Ds5  v092
 BYTE   W10
 BYTE   W03
 BYTE   W03
 BYTE   W02
 BYTE   N11  Fn5  v088
 BYTE   W01
 BYTE   W02
// 012   ----------------------------------------
 BYTE   W01
 BYTE   W03
 BYTE   W03
 BYTE   W02
 BYTE   N40  Gn5  v080
 BYTE   W02
 BYTE   W01
 BYTE   W02
 BYTE   W01
 BYTE   W02
 BYTE   W01
 BYTE   W02
 BYTE   W01
 BYTE   W02
 BYTE   W01
 BYTE   W01
 BYTE   W03
 BYTE   W03
 BYTE   W03
 BYTE   W03
 BYTE   W03
 BYTE   W03
 BYTE   W02
 BYTE   W01
 BYTE   W02
 BYTE   W01
 BYTE   W01
 BYTE   W01
 BYTE   N05  Fn5  v088
 BYTE   W06
 BYTE   N44  Cn5  v108
 BYTE   W06
 BYTE   W02
 BYTE   W01
 BYTE   W02
 BYTE   W01
 BYTE   W02
 BYTE   W01
 BYTE   W01
 BYTE   W08
 BYTE   W08
 BYTE   W07
// 013   ----------------------------------------
 BYTE   W01
 BYTE   W08
 BYTE   W02
 BYTE   W01
 BYTE   W01
 BYTE   W03
 BYTE   W03
 BYTE   W03
 BYTE   W03
 BYTE   W03
 BYTE   W03
 BYTE   W02
 BYTE   N23  Gn4
 BYTE   W02
 BYTE   W01
 BYTE   W02
 BYTE   W01
 BYTE   W02
 BYTE   W01
 BYTE   W02
 BYTE   W01
 BYTE   W02
 BYTE   W01
 BYTE   W02
 BYTE   W01
 BYTE   W02
 BYTE   W01
 BYTE   W02
 BYTE   W01
 BYTE   Ds5  v092
 BYTE   W02
 BYTE   W01
 BYTE   W02
 BYTE   W01
 BYTE   W02
 BYTE   W03
 BYTE   W03
 BYTE   W03
 BYTE   W03
 BYTE   W03
 BYTE   W01
 BYTE   Dn5  v104
 BYTE   W07
 BYTE   W08
// 014   ----------------------------------------
 BYTE   W01
 BYTE   W01
 BYTE   W02
 BYTE   W01
 BYTE   W02
 BYTE   W01
 BYTE   W01
 BYTE   N40  Cn5  v108
 BYTE   W01
 BYTE   W01
 BYTE   W02
 BYTE   W01
 BYTE   W02
 BYTE   W01
 BYTE   W03
 BYTE   W03
 BYTE   W03
 BYTE   W03
 BYTE   W03
 BYTE   W03
 BYTE   W02
 BYTE   W01
 BYTE   W02
 BYTE   W01
 BYTE   W02
 BYTE   W01
 BYTE   W02
 BYTE   W01
 BYTE   W02
 BYTE   W02
 BYTE   N05  As4
 BYTE   W06
 BYTE   N44  Fn4
 BYTE   W08
 BYTE   W03
 BYTE   W03
 BYTE   W03
 BYTE   W03
 BYTE   W03
 BYTE   W01
 BYTE   W02
 BYTE   W01
 BYTE   W02
 BYTE   W01
 BYTE   W02
 BYTE   W01
 BYTE   W02
 BYTE   W01
 BYTE   W02
 BYTE   W01
// 015   ----------------------------------------
 BYTE   W02
 BYTE   W01
 BYTE   W02
 BYTE   W01
 BYTE   W02
 BYTE   W01
 BYTE   W02
 BYTE   W01
 BYTE   W02
 BYTE   W03
 BYTE   W03
 BYTE   W03
 BYTE   W03
 BYTE   W03
 BYTE   W01
 BYTE   W02
 BYTE   W01
 BYTE   N23
 BYTE   W02
 BYTE   W01
 BYTE   W02
 BYTE   W01
 BYTE   W02
 BYTE   W01
 BYTE   W02
 BYTE   W01
 BYTE   W01
 BYTE   W03
 BYTE   W03
 BYTE   W03
 BYTE   W02
 BYTE   N17  Gn4
 BYTE   W18
 BYTE   Gs4
 BYTE   W18
 BYTE   N11  As4
 BYTE   W03
// 016   ----------------------------------------
 BYTE   W09
 BYTE   N17  Gn4
 BYTE   W02
 BYTE   W01
 BYTE   W01
 BYTE   W01
 BYTE   W01
 BYTE   W01
 BYTE   W01
 BYTE   W02
 BYTE   W01
 BYTE   W02
 BYTE   W01
 BYTE   W02
 BYTE   W01
 BYTE   W01
 BYTE   N05  Fn4
 BYTE   W01
 BYTE   W01
 BYTE   W02
 BYTE   W01
 BYTE   W01
 BYTE   TIE  Gn4
 BYTE   W01
 BYTE   W01
 BYTE   W01
 BYTE   W01
 BYTE   W01
 BYTE   W01
 BYTE   W01
 BYTE   W18
 BYTE   W02
 BYTE   W01
 BYTE   W02
 BYTE   W01
 BYTE   W03
 BYTE   W03
 BYTE   W03
 BYTE   W03
 BYTE   W03
 BYTE   W03
 BYTE   W03
 BYTE   W03
 BYTE   W03
 BYTE   W03
 BYTE   W02
// 017   ----------------------------------------
 BYTE   W01
 BYTE   W03
 BYTE   W03
 BYTE   W03
 BYTE   W03
 BYTE   W03
 BYTE   W03
 BYTE   W03
 BYTE   W01
 BYTE   W03
 BYTE   W03
 BYTE   W03
 BYTE   W03
 BYTE   W03
 BYTE   W03
 BYTE   W03
 BYTE   W03
 BYTE   W03
 BYTE   W03
 BYTE   W03
 BYTE   W03
 BYTE   W03
 BYTE   W03
 BYTE   W03
 BYTE   W03
 BYTE   W03
 BYTE   W03
 BYTE   W03
 BYTE   W03
 BYTE   W03
 BYTE   EOT
 BYTE   W03
 BYTE   W03
 BYTE   W01
 BYTE   W03
// 018   ----------------------------------------
 BYTE   W72
 BYTE   W02
 BYTE   W22
// 019   ----------------------------------------
 BYTE   W54
 BYTE   W42
// 020   ----------------------------------------
 BYTE   W32
 BYTE   W03
 BYTE   W60
 BYTE   W01
// 021   ----------------------------------------
 BYTE   W16
 BYTE   W76
 BYTE   W01
 BYTE   W03
// 022   ----------------------------------------
 BYTE   W72
 BYTE   W01
 BYTE   W23
// 023   ----------------------------------------
 BYTE   W54
 BYTE   W42
// 024   ----------------------------------------
 BYTE   W32
 BYTE   W03
 BYTE   W01
 BYTE   W01
 BYTE   W01
 BYTE   W01
 BYTE   W01
 BYTE   W01
 BYTE   W01
 BYTE   W01
 BYTE   W01
 BYTE   W01
 BYTE   W01
 BYTE   W01
 BYTE   W01
 BYTE   W01
 BYTE   W01
 BYTE   W01
 BYTE   N02  As4  v084
 BYTE   W01
 BYTE   W02
 BYTE   Bn4
 BYTE   W01
 BYTE   W02
 BYTE   N17  Cn5  v108
 BYTE   W01
 BYTE   W01
 BYTE   W01
 BYTE   W01
 BYTE   W07
 BYTE   W01
 BYTE   W02
 BYTE   W01
 BYTE   W02
 BYTE   W01
 BYTE   N05  Dn5
 BYTE   W06
 BYTE   TIE  Cn5
 BYTE   W02
 BYTE   W01
 BYTE   W02
 BYTE   W01
 BYTE   W02
 BYTE   W01
 BYTE   W02
 BYTE   W01
 BYTE   W02
 BYTE   W01
// 025   ----------------------------------------
 BYTE   W02
 BYTE   W03
 BYTE   W03
 BYTE   W03
 BYTE   W03
 BYTE   W03
 BYTE   W03
 BYTE   W03
 BYTE   W03
 BYTE   W03
 BYTE   W03
 BYTE   W03
 BYTE   W03
 BYTE   W03
 BYTE   W03
 BYTE   W03
 BYTE   W03
 BYTE   W03
 BYTE   W01
 BYTE   W01
 BYTE   W02
 BYTE   W01
 BYTE   W02
 BYTE   W01
 BYTE   W02
 BYTE   W01
 BYTE   W02
 BYTE   W01
 BYTE   W02
 BYTE   W01
 BYTE   W02
 BYTE   W01
 BYTE   W02
 BYTE   W01
 BYTE   W02
 BYTE   W01
 BYTE   W02
 BYTE   W01
 BYTE   W02
 BYTE   W01
 BYTE   W02
 BYTE   W01
 BYTE   W02
 BYTE   W01
 BYTE   W02
 BYTE   W01
 BYTE   W02
// 026   ----------------------------------------
 BYTE   W01
 BYTE   W02
 BYTE   W01
 BYTE   EOT
 BYTE   W02
 BYTE   W01
 BYTE   W02
 BYTE   W01
 BYTE   W48
 BYTE   W03
 BYTE   W24
 BYTE   W02
 BYTE   W09
// 027   ----------------------------------------
 BYTE   W17
 BYTE   W24
 BYTE   W01
 BYTE   W24
 BYTE   W02
 BYTE   W24
 BYTE   W02
 BYTE   W02
// 028   ----------------------------------------
 BYTE   W23
 BYTE   W24
 BYTE   W02
 BYTE   W24
 BYTE   W01
 BYTE   W22
// 029   ----------------------------------------
 BYTE   W04
 BYTE   W24
 BYTE   W02
 BYTE   W24
 BYTE   W01
 BYTE   W24
 BYTE   W02
 BYTE   W15
// 030   ----------------------------------------
 BYTE   W10
 BYTE   W24
 BYTE   W02
 BYTE   W24
 BYTE   W02
 BYTE   W24
 BYTE   W01
 BYTE   W09
// 031   ----------------------------------------
 BYTE   W17
 BYTE   W24
 BYTE   W01
 BYTE   W24
 BYTE   W02
 BYTE   W24
 BYTE   W02
 BYTE   W02
// 032   ----------------------------------------
 BYTE   W23
 BYTE   W24
 BYTE   W02
 BYTE   W24
 BYTE   W02
 BYTE   W21
// 033   ----------------------------------------
 BYTE   W04
 BYTE   W24
 BYTE   W02
 BYTE   W24
 BYTE   W01
 BYTE   W24
 BYTE   W02
 BYTE   W15
// 034   ----------------------------------------
 BYTE   W03
 BYTE   N01  Dn5  v036
 BYTE   W02
 BYTE   Ds5  v056
 BYTE   W02
 BYTE   En5  v068
 BYTE   W02
 BYTE   N17  Fn5  v092
 BYTE   W01
 BYTE   W01
 BYTE   W01
 BYTE   W01
 BYTE   W02
 BYTE   W01
 BYTE   W02
 BYTE   W02
 BYTE   W01
 BYTE   W02
 BYTE   W01
 BYTE   W02
 BYTE   W01
 BYTE   N05  Gn5
 BYTE   W06
 BYTE   N11  Fn5
 BYTE   W12
 BYTE   N23  Ds5  v100
 BYTE   W02
 BYTE   W01
 BYTE   W01
 BYTE   W01
 BYTE   W02
 BYTE   W01
 BYTE   W02
 BYTE   W01
 BYTE   W02
 BYTE   W01
 BYTE   W02
 BYTE   W01
 BYTE   W02
 BYTE   W01
 BYTE   W02
 BYTE   W01
 BYTE   W02
 BYTE   W01
 BYTE   W02
 BYTE   W01
 BYTE   W02
 BYTE   W01
 BYTE   W02
 BYTE   W01
 BYTE   W01
 BYTE   N17  Dn5
 BYTE   W01
 BYTE   W01
 BYTE   W01
 BYTE   W01
 BYTE   W02
 BYTE   W01
 BYTE   W02
 BYTE   W01
 BYTE   W02
 BYTE   W01
 BYTE   W01
 BYTE   W01
// 035   ----------------------------------------
 BYTE   W01
 BYTE   W01
 BYTE   W01
 BYTE   N05  Ds5
 BYTE   W06
 BYTE   N11  Dn5
 BYTE   W01
 BYTE   W02
 BYTE   W01
 BYTE   W02
 BYTE   W02
 BYTE   W01
 BYTE   W02
 BYTE   W01
 BYTE   N52  Cn5
 BYTE   W02
 BYTE   W02
 BYTE   W01
 BYTE   W02
 BYTE   W01
 BYTE   W03
 BYTE   W03
 BYTE   W03
 BYTE   W03
 BYTE   W03
 BYTE   W03
 BYTE   W03
 BYTE   W01
 BYTE   W02
 BYTE   W01
 BYTE   W02
 BYTE   W01
 BYTE   W02
 BYTE   W01
 BYTE   W02
 BYTE   W01
 BYTE   W02
 BYTE   W01
 BYTE   W02
 BYTE   W01
 BYTE   W02
 BYTE   W01
 BYTE   W02
 BYTE   W01
 BYTE   W02
 BYTE   W01
 BYTE   W01
 BYTE   W01
 BYTE   W01
 BYTE   N11  Dn5
 BYTE   W03
 BYTE   W03
 BYTE   W03
 BYTE   W03
 BYTE   Ds5
 BYTE   W03
// 036   ----------------------------------------
 BYTE   W03
 BYTE   W03
 BYTE   W03
 BYTE   N17  Fn5  v092
 BYTE   W01
 BYTE   W01
 BYTE   W01
 BYTE   W13
 BYTE   W01
 BYTE   W01
 BYTE   N05  Gn5
 BYTE   W06
 BYTE   N11  Fn5
 BYTE   W03
 BYTE   W03
 BYTE   W03
 BYTE   W03
 BYTE   N28  Ds5  v100
 BYTE   W01
 BYTE   W02
 BYTE   W01
 BYTE   W02
 BYTE   W01
 BYTE   W01
 BYTE   W03
 BYTE   W03
 BYTE   W03
 BYTE   W01
 BYTE   W02
 BYTE   W01
 BYTE   W02
 BYTE   W01
 BYTE   W02
 BYTE   W02
 BYTE   W01
 BYTE   W01
 BYTE   N01  Fn5  v048
 BYTE   W01
 BYTE   W01
 BYTE   Gn5  v064
 BYTE   W02
 BYTE   Gs5  v072
 BYTE   W01
 BYTE   W01
 BYTE   N23  As5  v084
 BYTE   W01
 BYTE   W01
 BYTE   W02
 BYTE   W01
 BYTE   W02
 BYTE   W02
 BYTE   W01
 BYTE   W02
 BYTE   W01
 BYTE   W02
// 037   ----------------------------------------
 BYTE   W01
 BYTE   W02
 BYTE   W01
 BYTE   W02
 BYTE   W01
 BYTE   W02
 BYTE   N05  Gs5  v092
 BYTE   W06
 BYTE   Gn5
 BYTE   W06
 BYTE   N72  Ds5  v100
 BYTE   W01
 BYTE   W01
 BYTE   W01
 BYTE   W01
 BYTE   W01
 BYTE   W01
 BYTE   W01
 BYTE   W03
 BYTE   W03
 BYTE   W03
 BYTE   W03
 BYTE   W03
 BYTE   W03
 BYTE   W03
 BYTE   W03
 BYTE   W02
 BYTE   W03
 BYTE   W03
 BYTE   W03
 BYTE   W03
 BYTE   W03
 BYTE   W03
 BYTE   W03
 BYTE   W03
 BYTE   W03
 BYTE   W03
 BYTE   W03
 BYTE   W02
 BYTE   W01
 BYTE   W02
 BYTE   W01
 BYTE   W02
 BYTE   W01
// 038   ----------------------------------------
 BYTE   W02
 BYTE   W01
 BYTE   W02
 BYTE   W01
 BYTE   W02
 BYTE   W01
 BYTE   N44  Gn3  v108
 BYTE   W01
 BYTE   W01
 BYTE   W01
 BYTE   W01
 BYTE   W01
 BYTE   W01
 BYTE   W01
 BYTE   W01
 BYTE   W01
 BYTE   W01
 BYTE   W01
 BYTE   W01
 BYTE   W01
 BYTE   W01
 BYTE   W01
 BYTE   W01
 BYTE   W03
 BYTE   W03
 BYTE   W03
 BYTE   W03
 BYTE   W03
 BYTE   W01
 BYTE   W01
 BYTE   W01
 BYTE   W01
 BYTE   W01
 BYTE   W01
 BYTE   W01
 BYTE   W01
 BYTE   W01
 BYTE   W01
 BYTE   W01
 BYTE   W01
 BYTE   W01
 BYTE   W01
 BYTE   W01
 BYTE   W01
 BYTE   W01
 BYTE   N36  Dn4
 BYTE   W01
 BYTE   W01
 BYTE   W01
 BYTE   W01
 BYTE   W01
 BYTE   W01
 BYTE   W01
 BYTE   W01
 BYTE   W01
 BYTE   W01
 BYTE   W01
 BYTE   W01
 BYTE   W07
 BYTE   W02
 BYTE   W01
 BYTE   W02
 BYTE   W01
 BYTE   W02
 BYTE   W01
 BYTE   W02
 BYTE   W09
// 039   ----------------------------------------
 BYTE   W01
 BYTE   N03  Cs4
 BYTE   W04
 BYTE   Cn4
 BYTE   W04
 BYTE   N80  Bn3
 BYTE   W04
 BYTE   W03
 BYTE   W03
 BYTE   W03
 BYTE   W03
 BYTE   W03
 BYTE   W03
 BYTE   W03
 BYTE   W03
 BYTE   W03
 BYTE   W03
 BYTE   W03
 BYTE   W03
 BYTE   W03
 BYTE   W03
 BYTE   W01
 BYTE   W02
 BYTE   W01
 BYTE   W02
 BYTE   W01
 BYTE   W02
 BYTE   W01
 BYTE   W02
 BYTE   W01
 BYTE   W02
 BYTE   W01
 BYTE   W02
 BYTE   W01
 BYTE   W02
 BYTE   W01
 BYTE   W02
 BYTE   W01
 BYTE   W02
 BYTE   W01
 BYTE   W02
 BYTE   W01
 BYTE   W02
 BYTE   W01
 BYTE   W02
 BYTE   W01
 BYTE   W02
 BYTE   W02
// 040   ----------------------------------------
 BYTE   GoTo
  POIN2 Label_5_0133BC9A
 BYTE   FINE

//**************** Track 7 (Midi-Chn.6) ****************//

song62_007:
// 000   ----------------------------------------
 BYTE   KEYSH   song62_key+0
 BYTE   VOICE   48
 BYTE   VOL   32*song62_mvl/mxv
 BYTE   PAN   c_v-10
 BYTE   BEND   c_v+0
 BYTE   N11  Gn4  v072
 BYTE   W12
 BYTE   Gn4  v040
 BYTE   W12
 BYTE   Gn4  v016
 BYTE   W12
 BYTE   Gn4  v092
 BYTE   W12
 BYTE   Gn4  v060
 BYTE   W12
 BYTE   Gn4  v036
 BYTE   W12
 BYTE   Gn4  v092
 BYTE   W12
 BYTE   Gn4  v076
 BYTE   W12
// 001   ----------------------------------------
 BYTE   Gn4  v108
 BYTE   W12
 BYTE   Gn4  v076
 BYTE   W12
 BYTE   Gn4  v052
 BYTE   W12
 BYTE   Gn4  v108
 BYTE   W12
 BYTE   Gn4  v076
 BYTE   W12
 BYTE   Gn4  v052
 BYTE   W12
 BYTE   Gn4  v108
 BYTE   W12
 BYTE   Gn4  v076
 BYTE   W12
// 002   ----------------------------------------
Label_6_0131CA4F:
 BYTE   W96
// 003   ----------------------------------------
 BYTE   W96
// 004   ----------------------------------------
 BYTE   W96
// 005   ----------------------------------------
 BYTE   W96
// 006   ----------------------------------------
 BYTE   W96
// 007   ----------------------------------------
 BYTE   W96
// 008   ----------------------------------------
 BYTE   W96
// 009   ----------------------------------------
 BYTE   VOICE   58
 BYTE   W96
// 010   ----------------------------------------
 BYTE   N44  Gn2  v096
 BYTE   W03
 BYTE   W03
 BYTE   W03
 BYTE   W03
 BYTE   W03
 BYTE   W03
 BYTE   W03
 BYTE   W03
 BYTE   W03
 BYTE   W03
 BYTE   W03
 BYTE   W03
 BYTE   W03
 BYTE   W03
 BYTE   W03
 BYTE   W03
 BYTE   Cn3
 BYTE   W03
 BYTE   W03
 BYTE   W03
 BYTE   W03
 BYTE   W03
 BYTE   W03
 BYTE   W03
 BYTE   W03
 BYTE   W03
 BYTE   W03
 BYTE   W03
 BYTE   W03
 BYTE   W03
 BYTE   W03
 BYTE   W03
 BYTE   W03
// 011   ----------------------------------------
 BYTE   As2
 BYTE   W06
 BYTE   W04
 BYTE   W03
 BYTE   W03
 BYTE   W03
 BYTE   W04
 BYTE   W03
 BYTE   W03
 BYTE   W03
 BYTE   W03
 BYTE   W04
 BYTE   W03
 BYTE   W03
 BYTE   W03
 BYTE   Fn2
 BYTE   W04
 BYTE   W03
 BYTE   W03
 BYTE   W03
 BYTE   W03
 BYTE   W04
 BYTE   W03
 BYTE   W03
 BYTE   W03
 BYTE   W04
 BYTE   W03
 BYTE   W03
 BYTE   W03
 BYTE   W03
 BYTE   W03
// 012   ----------------------------------------
 BYTE   N32
 BYTE   W01
 BYTE   W03
 BYTE   W03
 BYTE   W03
 BYTE   W04
 BYTE   W01
 BYTE   W02
 BYTE   W01
 BYTE   W02
 BYTE   W01
 BYTE   W02
 BYTE   W01
 BYTE   W02
 BYTE   W01
 BYTE   W02
 BYTE   W01
 BYTE   W02
 BYTE   W01
 BYTE   W02
 BYTE   W01
 BYTE   N02  Gn2
 BYTE   W02
 BYTE   W01
 BYTE   An2
 BYTE   W02
 BYTE   W01
 BYTE   As2
 BYTE   W02
 BYTE   W01
 BYTE   Cn3
 BYTE   W02
 BYTE   W01
 BYTE   N17  Dn3
 BYTE   W18
 BYTE   Ds3
 BYTE   W12
 BYTE   W06
 BYTE   N11  Fn3
 BYTE   W09
 BYTE   W03
// 013   ----------------------------------------
 BYTE   N17  Gn3
 BYTE   W12
 BYTE   W06
 BYTE   N05  Fn3
 BYTE   W06
 BYTE   N68  Cn3
 BYTE   W03
 BYTE   W03
 BYTE   W03
 BYTE   W03
 BYTE   W03
 BYTE   W03
 BYTE   W03
 BYTE   W03
 BYTE   W03
 BYTE   W03
 BYTE   W03
 BYTE   W03
 BYTE   W03
 BYTE   W03
 BYTE   W01
 BYTE   W02
 BYTE   W01
 BYTE   W02
 BYTE   W01
 BYTE   W02
 BYTE   W01
 BYTE   W02
 BYTE   W01
 BYTE   W02
 BYTE   W01
 BYTE   W02
 BYTE   W01
 BYTE   W02
 BYTE   W01
 BYTE   W02
 BYTE   W01
 BYTE   W02
 BYTE   W01
 BYTE   W02
// 014   ----------------------------------------
 BYTE   N44  Gs2
 BYTE   W01
 BYTE   W02
 BYTE   W01
 BYTE   W02
 BYTE   W01
 BYTE   W02
 BYTE   W01
 BYTE   W02
 BYTE   W01
 BYTE   W02
 BYTE   W01
 BYTE   W02
 BYTE   W01
 BYTE   W02
 BYTE   W01
 BYTE   W04
 BYTE   W04
 BYTE   W04
 BYTE   W04
 BYTE   W04
 BYTE   W04
 BYTE   W02
 BYTE   N36  Cn3
 BYTE   W08
 BYTE   W06
 BYTE   W05
 BYTE   W06
 BYTE   W05
 BYTE   W06
 BYTE   W03
 BYTE   N02  Dn3  v104
 BYTE   W02
 BYTE   W01
 BYTE   Ds3
 BYTE   W03
 BYTE   En3
 BYTE   W01
 BYTE   W02
// 015   ----------------------------------------
 BYTE   N44  Fn3  v096
 BYTE   W30
 BYTE   W07
 BYTE   W03
 BYTE   W03
 BYTE   W04
 BYTE   W01
 BYTE   Cn3
 BYTE   W02
 BYTE   W03
 BYTE   W03
 BYTE   W04
 BYTE   W03
 BYTE   W03
 BYTE   W04
 BYTE   W03
 BYTE   W03
 BYTE   W03
 BYTE   W04
 BYTE   W03
 BYTE   W03
 BYTE   W04
 BYTE   W03
// 016   ----------------------------------------
 BYTE   N44
 BYTE   W03
 BYTE   W09
 BYTE   W04
 BYTE   W04
 BYTE   W04
 BYTE   W04
 BYTE   W04
 BYTE   W04
 BYTE   W04
 BYTE   W05
 BYTE   W03
 BYTE   N17  An2
 BYTE   W01
 BYTE   W04
 BYTE   W04
 BYTE   W04
 BYTE   W04
 BYTE   W01
 BYTE   N02  As2
 BYTE   W03
 BYTE   Bn2
 BYTE   W03
 BYTE   N23  Cn3
 BYTE   W02
 BYTE   W04
 BYTE   W04
 BYTE   W04
 BYTE   W04
 BYTE   W04
 BYTE   W02
// 017   ----------------------------------------
 BYTE   N48
 BYTE   W02
 BYTE   W06
 BYTE   W06
 BYTE   W06
 BYTE   W05
 BYTE   W06
 BYTE   W06
 BYTE   W06
 BYTE   W05
 BYTE   N30  Bn2
 BYTE   W02
 BYTE   W01
 BYTE   W02
 BYTE   W01
 BYTE   W02
 BYTE   W01
 BYTE   W02
 BYTE   W01
 BYTE   W02
 BYTE   W01
 BYTE   W02
 BYTE   W01
 BYTE   W02
 BYTE   W01
 BYTE   W01
 BYTE   W02
 BYTE   W01
 BYTE   W02
 BYTE   W01
 BYTE   W02
 BYTE   W01
 BYTE   W02
 BYTE   W01
 BYTE   W02
 BYTE   W01
 BYTE   W02
 BYTE   W01
 BYTE   W01
 BYTE   W01
 BYTE   W03
 BYTE   W03
// 018   ----------------------------------------
 BYTE   N44  Gn2  v127
 BYTE   W03
 BYTE   W03
 BYTE   W03
 BYTE   W03
 BYTE   W03
 BYTE   W03
 BYTE   W03
 BYTE   W03
 BYTE   W03
 BYTE   W03
 BYTE   W03
 BYTE   W03
 BYTE   W12
 BYTE   Cn3
 BYTE   W04
 BYTE   W03
 BYTE   W03
 BYTE   W03
 BYTE   W03
 BYTE   W03
 BYTE   W03
 BYTE   W02
 BYTE   W03
 BYTE   W03
 BYTE   W03
 BYTE   W03
 BYTE   W03
 BYTE   W03
 BYTE   W03
 BYTE   W03
// 019   ----------------------------------------
 BYTE   W15
 BYTE   W01
 BYTE   W02
 BYTE   W01
 BYTE   W02
 BYTE   W03
 BYTE   N23
 BYTE   W03
 BYTE   W03
 BYTE   W03
 BYTE   W03
 BYTE   W03
 BYTE   W03
 BYTE   W03
 BYTE   W03
 BYTE   Dn3
 BYTE   W24
 BYTE   As2
 BYTE   W24
// 020   ----------------------------------------
 BYTE   N44  Gn2
 BYTE   W05
 BYTE   W03
 BYTE   W03
 BYTE   W03
 BYTE   W03
 BYTE   W03
 BYTE   W03
 BYTE   W02
 BYTE   W03
 BYTE   W03
 BYTE   W03
 BYTE   W03
 BYTE   W03
 BYTE   W03
 BYTE   W03
 BYTE   W02
 BYTE   N32  Ds2
 BYTE   W01
 BYTE   W32
 BYTE   W03
 BYTE   N05  Fn2
 BYTE   W06
 BYTE   Gn2
 BYTE   W06
// 021   ----------------------------------------
 BYTE   N44  Fn2
 BYTE   W01
 BYTE   W05
 BYTE   W05
 BYTE   W04
 BYTE   W05
 BYTE   W05
 BYTE   W05
 BYTE   W04
 BYTE   W05
 BYTE   W03
 BYTE   W03
 BYTE   W03
 BYTE   W03
 BYTE   W03
 BYTE   W02
 BYTE   W02
 BYTE   W01
 BYTE   W01
 BYTE   N23  Cn2
 BYTE   W01
 BYTE   W01
 BYTE   W02
 BYTE   W01
 BYTE   W02
 BYTE   W01
 BYTE   W02
 BYTE   W01
 BYTE   W02
 BYTE   W11
 BYTE   N11  Dn2
 BYTE   W12
// 022   ----------------------------------------
 BYTE   N44  Ds2
 BYTE   W48
 BYTE   N23  Fn2
 BYTE   W24
 BYTE   Gn2
 BYTE   W24
// 023   ----------------------------------------
 BYTE   N44  As2
 BYTE   W06
 BYTE   W03
 BYTE   W03
 BYTE   W03
 BYTE   W03
 BYTE   W03
 BYTE   W01
 BYTE   W03
 BYTE   W03
 BYTE   W03
 BYTE   W03
 BYTE   W03
 BYTE   W03
 BYTE   W03
 BYTE   W03
 BYTE   W02
 BYTE   N17  Fn2
 BYTE   W01
 BYTE   W01
 BYTE   W16
 BYTE   Gn2
 BYTE   W18
 BYTE   N11  As2
 BYTE   W12
// 024   ----------------------------------------
 BYTE   N17  Cn3
 BYTE   W18
 BYTE   N05  Dn3
 BYTE   W06
 BYTE   TIE  Cn3
 BYTE   W02
 BYTE   W03
 BYTE   W03
 BYTE   W03
 BYTE   W03
 BYTE   W03
 BYTE   W03
 BYTE   W03
 BYTE   W03
 BYTE   W03
 BYTE   W03
 BYTE   W08
 BYTE   W04
 BYTE   W04
 BYTE   W04
 BYTE   W04
 BYTE   W04
 BYTE   W04
 BYTE   W05
 BYTE   W03
// 025   ----------------------------------------
 BYTE   W01
 BYTE   W04
 BYTE   W04
 BYTE   W04
 BYTE   W04
 BYTE   W04
 BYTE   W03
 BYTE   W03
 BYTE   W03
 BYTE   W03
 BYTE   W03
 BYTE   W03
 BYTE   W03
 BYTE   W03
 BYTE   W03
 BYTE   W03
 BYTE   W03
 BYTE   W03
 BYTE   W03
 BYTE   W03
 BYTE   W03
 BYTE   W03
 BYTE   W02
 BYTE   EOT
 BYTE   W01
 BYTE   W03
 BYTE   W03
 BYTE   W03
 BYTE   W03
 BYTE   W03
 BYTE   W03
 BYTE   W01
 BYTE   W03
 BYTE   W02
// 026   ----------------------------------------
 BYTE   N24  Cn2  v104
 BYTE   W01
 BYTE   W03
 BYTE   W03
 BYTE   W03
 BYTE   W03
 BYTE   W03
 BYTE   W03
 BYTE   W03
 BYTE   W02
 BYTE   Ds2
 BYTE   W01
 BYTE   W03
 BYTE   W03
 BYTE   W03
 BYTE   W03
 BYTE   W03
 BYTE   W03
 BYTE   W03
 BYTE   W01
 BYTE   W01
 BYTE   Gs2
 BYTE   W02
 BYTE   W03
 BYTE   W03
 BYTE   W03
 BYTE   W03
 BYTE   W03
 BYTE   W03
 BYTE   W03
 BYTE   W01
 BYTE   Cn3
 BYTE   W02
 BYTE   W03
 BYTE   W03
 BYTE   W03
 BYTE   W03
 BYTE   W03
 BYTE   W03
 BYTE   W04
// 027   ----------------------------------------
 BYTE   N48  Dn3
 BYTE   W30
 BYTE   W17
 BYTE   W01
 BYTE   As2
 BYTE   W16
 BYTE   W17
 BYTE   W15
// 028   ----------------------------------------
 BYTE   Gn3
 BYTE   W02
 BYTE   W02
 BYTE   W01
 BYTE   W02
 BYTE   W01
 BYTE   W02
 BYTE   W01
 BYTE   W02
 BYTE   W01
 BYTE   W02
 BYTE   W07
 BYTE   W03
 BYTE   W04
 BYTE   W03
 BYTE   W04
 BYTE   W03
 BYTE   W04
 BYTE   W03
 BYTE   W01
 BYTE   N24  Fn3  v080
 BYTE   W02
 BYTE   W04
 BYTE   W03
 BYTE   W04
 BYTE   W03
 BYTE   W03
 BYTE   W03
 BYTE   W02
 BYTE   Ds3
 BYTE   W01
 BYTE   W03
 BYTE   W03
 BYTE   W03
 BYTE   W03
 BYTE   W03
 BYTE   W03
 BYTE   W03
 BYTE   W02
// 029   ----------------------------------------
 BYTE   N96  Cn3  v104
 BYTE   W01
 BYTE   W03
 BYTE   W03
 BYTE   W02
 BYTE   W01
 BYTE   W02
 BYTE   W01
 BYTE   W02
 BYTE   W01
 BYTE   W02
 BYTE   W01
 BYTE   W02
 BYTE   W01
 BYTE   W02
 BYTE   W01
 BYTE   W02
 BYTE   W01
 BYTE   W02
 BYTE   W01
 BYTE   W02
 BYTE   W01
 BYTE   W02
 BYTE   W01
 BYTE   W02
 BYTE   W01
 BYTE   W02
 BYTE   W01
 BYTE   W02
 BYTE   W01
 BYTE   W02
 BYTE   W01
 BYTE   W01
 BYTE   W03
 BYTE   W03
 BYTE   W03
 BYTE   W03
 BYTE   W03
 BYTE   W03
 BYTE   W03
 BYTE   W03
 BYTE   W03
 BYTE   W03
 BYTE   W03
 BYTE   W03
 BYTE   W03
 BYTE   W03
 BYTE   W03
 BYTE   W01
// 030   ----------------------------------------
 BYTE   W02
 BYTE   W03
 BYTE   W03
 BYTE   W02
 BYTE   W03
 BYTE   W03
 BYTE   W03
 BYTE   W03
 BYTE   W02
 BYTE   N48  Ds2
 BYTE   W01
 BYTE   W03
 BYTE   W03
 BYTE   W03
 BYTE   W03
 BYTE   W03
 BYTE   W03
 BYTE   W03
 BYTE   W03
 BYTE   W03
 BYTE   W03
 BYTE   W03
 BYTE   W03
 BYTE   W03
 BYTE   W03
 BYTE   W03
 BYTE   W02
 BYTE   Fn2
 BYTE   W24
// 031   ----------------------------------------
 BYTE   W10
 BYTE   W14
 BYTE   N24  Gn2
 BYTE   W04
 BYTE   W19
 BYTE   W01
 BYTE   Gs2
 BYTE   W17
 BYTE   W07
 BYTE   Cn3
 BYTE   W11
 BYTE   W13
// 032   ----------------------------------------
 BYTE   N72  Dn3
 BYTE   W05
 BYTE   W01
 BYTE   W02
 BYTE   W01
 BYTE   W02
 BYTE   W01
 BYTE   W02
 BYTE   W01
 BYTE   W02
 BYTE   W01
 BYTE   W02
 BYTE   W01
 BYTE   W01
 BYTE   W08
 BYTE   W04
 BYTE   W04
 BYTE   W04
 BYTE   W04
 BYTE   W04
 BYTE   W04
 BYTE   W04
 BYTE   W04
 BYTE   W03
 BYTE   W03
 BYTE   W03
 BYTE   W01
 BYTE   N24  Fn3
 BYTE   W02
 BYTE   W03
 BYTE   W02
 BYTE   W03
 BYTE   W03
 BYTE   W03
 BYTE   W03
 BYTE   W03
 BYTE   W02
// 033   ----------------------------------------
 BYTE   N96  Dn3
 BYTE   W03
 BYTE   W03
 BYTE   W03
 BYTE   W01
 BYTE   W02
 BYTE   W01
 BYTE   W02
 BYTE   W01
 BYTE   W02
 BYTE   W01
 BYTE   W02
 BYTE   W01
 BYTE   W02
 BYTE   W01
 BYTE   W02
 BYTE   W01
 BYTE   W02
 BYTE   W01
 BYTE   W02
 BYTE   W01
 BYTE   W02
 BYTE   W01
 BYTE   W02
 BYTE   W01
 BYTE   W02
 BYTE   W01
 BYTE   W02
 BYTE   W01
 BYTE   W02
 BYTE   W01
 BYTE   W02
 BYTE   W01
 BYTE   W02
 BYTE   W01
 BYTE   W02
 BYTE   W01
 BYTE   W02
 BYTE   W01
 BYTE   W02
 BYTE   W01
 BYTE   W02
 BYTE   W01
 BYTE   W02
 BYTE   W03
 BYTE   W03
 BYTE   W03
 BYTE   W03
 BYTE   W01
 BYTE   W01
 BYTE   W02
 BYTE   W01
 BYTE   W02
 BYTE   W01
 BYTE   W02
 BYTE   W01
 BYTE   W02
 BYTE   W01
 BYTE   W01
// 034   ----------------------------------------
 BYTE   N36  Fn3
 BYTE   W01
 BYTE   W32
 BYTE   W03
 BYTE   N12  Ds3
 BYTE   W12
 BYTE   Ds3  v056
 BYTE   W12
 BYTE   Ds3  v040
 BYTE   W12
 BYTE   N36  Dn3  v104
 BYTE   W24
// 035   ----------------------------------------
 BYTE   W12
 BYTE   N72  Cn3
 BYTE   W04
 BYTE   W02
 BYTE   W01
 BYTE   W02
 BYTE   W01
 BYTE   W02
 BYTE   W01
 BYTE   W02
 BYTE   W01
 BYTE   W02
 BYTE   W03
 BYTE   W03
 BYTE   W03
 BYTE   W03
 BYTE   W03
 BYTE   W03
 BYTE   W03
 BYTE   W03
 BYTE   W03
 BYTE   W03
 BYTE   W03
 BYTE   W03
 BYTE   W03
 BYTE   W03
 BYTE   W03
 BYTE   W03
 BYTE   W03
 BYTE   W03
 BYTE   W03
 BYTE   W03
 BYTE   W03
 BYTE   W01
 BYTE   W02
// 036   ----------------------------------------
 BYTE   N36  Fn3
 BYTE   W36
 BYTE   N12  Ds3
 BYTE   W12
 BYTE   Ds3  v056
 BYTE   W12
 BYTE   Ds3  v040
 BYTE   W12
 BYTE   N36  Dn3  v104
 BYTE   W24
// 037   ----------------------------------------
 BYTE   W10
 BYTE   W02
 BYTE   N66  Cn3
 BYTE   W01
 BYTE   W03
 BYTE   W02
 BYTE   W03
 BYTE   W03
 BYTE   W03
 BYTE   W03
 BYTE   W03
 BYTE   W03
 BYTE   W03
 BYTE   W03
 BYTE   W03
 BYTE   W03
 BYTE   W03
 BYTE   W03
 BYTE   W03
 BYTE   W03
 BYTE   W03
 BYTE   W03
 BYTE   W01
 BYTE   W02
 BYTE   W01
 BYTE   W02
 BYTE   W01
 BYTE   W02
 BYTE   W01
 BYTE   W02
 BYTE   W01
 BYTE   W02
 BYTE   W01
 BYTE   W02
 BYTE   W01
 BYTE   W02
 BYTE   W01
 BYTE   W02
 BYTE   W01
 BYTE   W02
 BYTE   W01
 BYTE   W01
 BYTE   W01
// 038   ----------------------------------------
 BYTE   VOICE   48
 BYTE   N11  Gn4  v072
 BYTE   W12
 BYTE   Gn4  v040
 BYTE   W12
 BYTE   Gn4  v016
 BYTE   W12
 BYTE   Gn4  v092
 BYTE   W12
 BYTE   Gn4  v060
 BYTE   W12
 BYTE   Gn4  v036
 BYTE   W12
 BYTE   Gn4  v092
 BYTE   W12
 BYTE   Gn4  v076
 BYTE   W12
// 039   ----------------------------------------
 BYTE   Gn4  v108
 BYTE   W12
 BYTE   Gn4  v076
 BYTE   W12
 BYTE   Gn4  v052
 BYTE   W12
 BYTE   Gn4  v108
 BYTE   W12
 BYTE   Gn4  v076
 BYTE   W12
 BYTE   Gn4  v052
 BYTE   W12
 BYTE   Gn4  v108
 BYTE   W12
 BYTE   Gn4  v076
 BYTE   W11
 BYTE   VOL   32*song62_mvl/mxv
 BYTE   PAN   c_v-10
 BYTE   BEND   c_v+0
 BYTE   W01
// 040   ----------------------------------------
 BYTE   GoTo
  POIN2 Label_6_0131CA4F
 BYTE   FINE

//**************** Track 8 (Midi-Chn.7) ****************//

song62_008:
// 000   ----------------------------------------
 BYTE   KEYSH   song62_key+0
 BYTE   VOICE   48
 BYTE   VOL   32*song62_mvl/mxv
 BYTE   PAN   c_v-35
 BYTE   BEND   c_v+0
 BYTE   N11  Cn4  v072
 BYTE   W12
 BYTE   Cn4  v040
 BYTE   W12
 BYTE   Cn4  v016
 BYTE   W12
 BYTE   Cn4  v092
 BYTE   W12
 BYTE   Cn4  v060
 BYTE   W12
 BYTE   Cn4  v036
 BYTE   W12
 BYTE   Cn4  v092
 BYTE   W12
 BYTE   Cn4  v076
 BYTE   W12
// 001   ----------------------------------------
 BYTE   Bn3  v108
 BYTE   W12
 BYTE   Bn3  v076
 BYTE   W12
 BYTE   Bn3  v052
 BYTE   W12
 BYTE   Bn3  v108
 BYTE   W12
 BYTE   Bn3  v076
 BYTE   W12
 BYTE   Bn3  v052
 BYTE   W12
 BYTE   Bn3  v108
 BYTE   W12
 BYTE   Bn3  v076
 BYTE   W12
// 002   ----------------------------------------
Label_7_0131B277:
 BYTE   W96
// 003   ----------------------------------------
 BYTE   W96
// 004   ----------------------------------------
 BYTE   W96
// 005   ----------------------------------------
 BYTE   W96
// 006   ----------------------------------------
 BYTE   W96
// 007   ----------------------------------------
 BYTE   W96
// 008   ----------------------------------------
 BYTE   W96
// 009   ----------------------------------------
 BYTE   W96
// 010   ----------------------------------------
 BYTE   VOICE   58
 BYTE   N44  Cn2  v096
 BYTE   W03
 BYTE   W03
 BYTE   W03
 BYTE   W03
 BYTE   W03
 BYTE   W03
 BYTE   W03
 BYTE   W03
 BYTE   W03
 BYTE   W03
 BYTE   W03
 BYTE   W03
 BYTE   W03
 BYTE   W03
 BYTE   W03
 BYTE   W03
 BYTE   Ds2
 BYTE   W03
 BYTE   W03
 BYTE   W03
 BYTE   W03
 BYTE   W03
 BYTE   W03
 BYTE   W03
 BYTE   W03
 BYTE   W03
 BYTE   W03
 BYTE   W03
 BYTE   W03
 BYTE   W03
 BYTE   W03
 BYTE   W03
 BYTE   W03
// 011   ----------------------------------------
 BYTE   Dn2
 BYTE   W06
 BYTE   W04
 BYTE   W03
 BYTE   W03
 BYTE   W03
 BYTE   W04
 BYTE   W03
 BYTE   W03
 BYTE   W03
 BYTE   W03
 BYTE   W04
 BYTE   W03
 BYTE   W03
 BYTE   W03
 BYTE   As1
 BYTE   W04
 BYTE   W03
 BYTE   W03
 BYTE   W03
 BYTE   W03
 BYTE   W04
 BYTE   W03
 BYTE   W03
 BYTE   W03
 BYTE   W04
 BYTE   W03
 BYTE   W03
 BYTE   W03
 BYTE   W03
 BYTE   W03
// 012   ----------------------------------------
 BYTE   N32  Cn2
 BYTE   W01
 BYTE   W03
 BYTE   W03
 BYTE   W03
 BYTE   W04
 BYTE   W01
 BYTE   W02
 BYTE   W01
 BYTE   W02
 BYTE   W01
 BYTE   W02
 BYTE   W01
 BYTE   W02
 BYTE   W01
 BYTE   W02
 BYTE   W01
 BYTE   W02
 BYTE   W01
 BYTE   W02
 BYTE   W01
 BYTE   N02  Cs2
 BYTE   W02
 BYTE   W01
 BYTE   Dn2
 BYTE   W02
 BYTE   W01
 BYTE   Ds2
 BYTE   W02
 BYTE   W01
 BYTE   En2
 BYTE   W02
 BYTE   W01
 BYTE   N17  Fn2
 BYTE   W18
 BYTE   Gn2
 BYTE   W12
 BYTE   W06
 BYTE   N11  An2
 BYTE   W09
 BYTE   W03
// 013   ----------------------------------------
 BYTE   N17  Cn3
 BYTE   W12
 BYTE   W06
 BYTE   N05  Gs2
 BYTE   W06
 BYTE   N68  Ds2
 BYTE   W03
 BYTE   W03
 BYTE   W03
 BYTE   W03
 BYTE   W03
 BYTE   W03
 BYTE   W03
 BYTE   W03
 BYTE   W03
 BYTE   W03
 BYTE   W03
 BYTE   W03
 BYTE   W03
 BYTE   W03
 BYTE   W01
 BYTE   W02
 BYTE   W01
 BYTE   W02
 BYTE   W01
 BYTE   W02
 BYTE   W01
 BYTE   W02
 BYTE   W01
 BYTE   W02
 BYTE   W01
 BYTE   W02
 BYTE   W01
 BYTE   W02
 BYTE   W01
 BYTE   W02
 BYTE   W01
 BYTE   W02
 BYTE   W01
 BYTE   W02
// 014   ----------------------------------------
 BYTE   N44  Cs2
 BYTE   W01
 BYTE   W02
 BYTE   W01
 BYTE   W02
 BYTE   W01
 BYTE   W02
 BYTE   W01
 BYTE   W02
 BYTE   W01
 BYTE   W02
 BYTE   W01
 BYTE   W02
 BYTE   W01
 BYTE   W02
 BYTE   W01
 BYTE   W04
 BYTE   W04
 BYTE   W04
 BYTE   W04
 BYTE   W04
 BYTE   W04
 BYTE   W02
 BYTE   N40  Fn2
 BYTE   W08
 BYTE   W06
 BYTE   W05
 BYTE   W06
 BYTE   W05
 BYTE   W06
 BYTE   W05
 BYTE   W01
 BYTE   N02  Fs2  v104
 BYTE   W03
 BYTE   Gn2
 BYTE   W01
 BYTE   W02
// 015   ----------------------------------------
 BYTE   N44  Gs2  v096
 BYTE   W30
 BYTE   W07
 BYTE   W03
 BYTE   W03
 BYTE   W04
 BYTE   W01
 BYTE   Fn2
 BYTE   W02
 BYTE   W03
 BYTE   W03
 BYTE   W04
 BYTE   W03
 BYTE   W03
 BYTE   W04
 BYTE   W03
 BYTE   W03
 BYTE   W03
 BYTE   W04
 BYTE   W03
 BYTE   W03
 BYTE   W04
 BYTE   W03
// 016   ----------------------------------------
 BYTE   N44
 BYTE   W03
 BYTE   W09
 BYTE   W04
 BYTE   W04
 BYTE   W04
 BYTE   W04
 BYTE   W04
 BYTE   W04
 BYTE   W04
 BYTE   W05
 BYTE   W03
 BYTE   N17  Cn2
 BYTE   W01
 BYTE   W04
 BYTE   W04
 BYTE   W04
 BYTE   W04
 BYTE   W01
 BYTE   N02  Dn2
 BYTE   W03
 BYTE   En2
 BYTE   W03
 BYTE   N23  Fn2
 BYTE   W02
 BYTE   W04
 BYTE   W04
 BYTE   W04
 BYTE   W04
 BYTE   W04
 BYTE   W02
// 017   ----------------------------------------
 BYTE   N48  Gn2
 BYTE   W02
 BYTE   W06
 BYTE   W06
 BYTE   W06
 BYTE   W05
 BYTE   W06
 BYTE   W06
 BYTE   W06
 BYTE   W05
 BYTE   N30  Dn2
 BYTE   W02
 BYTE   W01
 BYTE   W02
 BYTE   W01
 BYTE   W02
 BYTE   W01
 BYTE   W02
 BYTE   W01
 BYTE   W02
 BYTE   W01
 BYTE   W02
 BYTE   W01
 BYTE   W02
 BYTE   W01
 BYTE   W01
 BYTE   W02
 BYTE   W01
 BYTE   W02
 BYTE   W01
 BYTE   W02
 BYTE   W01
 BYTE   W02
 BYTE   W01
 BYTE   W02
 BYTE   W01
 BYTE   W02
 BYTE   W01
 BYTE   W01
 BYTE   W01
 BYTE   W03
 BYTE   W03
// 018   ----------------------------------------
 BYTE   W03
 BYTE   W03
 BYTE   W03
 BYTE   W03
 BYTE   W03
 BYTE   W03
 BYTE   W03
 BYTE   W03
 BYTE   W03
 BYTE   W03
 BYTE   W03
 BYTE   W03
 BYTE   W16
 BYTE   W03
 BYTE   W03
 BYTE   W03
 BYTE   W03
 BYTE   W03
 BYTE   W03
 BYTE   W02
 BYTE   W03
 BYTE   W03
 BYTE   W03
 BYTE   W03
 BYTE   W03
 BYTE   W03
 BYTE   W03
 BYTE   W03
// 019   ----------------------------------------
 BYTE   W15
 BYTE   W01
 BYTE   W02
 BYTE   W01
 BYTE   W02
 BYTE   W03
 BYTE   W03
 BYTE   W03
 BYTE   W03
 BYTE   W03
 BYTE   W03
 BYTE   W03
 BYTE   W03
 BYTE   W48
 BYTE   W03
// 020   ----------------------------------------
 BYTE   W05
 BYTE   W03
 BYTE   W03
 BYTE   W03
 BYTE   W03
 BYTE   W03
 BYTE   W03
 BYTE   W02
 BYTE   W03
 BYTE   W03
 BYTE   W03
 BYTE   W03
 BYTE   W03
 BYTE   W03
 BYTE   W03
 BYTE   W03
 BYTE   W44
 BYTE   W03
// 021   ----------------------------------------
 BYTE   W01
 BYTE   W05
 BYTE   W05
 BYTE   W04
 BYTE   W05
 BYTE   W05
 BYTE   W05
 BYTE   W04
 BYTE   W05
 BYTE   W03
 BYTE   W03
 BYTE   W03
 BYTE   W03
 BYTE   W03
 BYTE   W02
 BYTE   W02
 BYTE   W01
 BYTE   W02
 BYTE   W01
 BYTE   W02
 BYTE   W01
 BYTE   W02
 BYTE   W01
 BYTE   W02
 BYTE   W01
 BYTE   W02
 BYTE   W23
// 022   ----------------------------------------
 BYTE   W96
// 023   ----------------------------------------
 BYTE   W06
 BYTE   W03
 BYTE   W03
 BYTE   W03
 BYTE   W03
 BYTE   W03
 BYTE   W01
 BYTE   W03
 BYTE   W03
 BYTE   W03
 BYTE   W03
 BYTE   W03
 BYTE   W03
 BYTE   W03
 BYTE   W03
 BYTE   W03
 BYTE   W01
 BYTE   W44
 BYTE   W02
// 024   ----------------------------------------
 BYTE   W24
 BYTE   W02
 BYTE   W03
 BYTE   W03
 BYTE   W03
 BYTE   W03
 BYTE   W03
 BYTE   W03
 BYTE   W03
 BYTE   W03
 BYTE   W03
 BYTE   W03
 BYTE   W08
 BYTE   W04
 BYTE   W04
 BYTE   W04
 BYTE   W04
 BYTE   W04
 BYTE   W04
 BYTE   W05
 BYTE   W03
// 025   ----------------------------------------
 BYTE   W01
 BYTE   W04
 BYTE   W04
 BYTE   W04
 BYTE   W04
 BYTE   W04
 BYTE   W03
 BYTE   W03
 BYTE   W03
 BYTE   W03
 BYTE   W03
 BYTE   W03
 BYTE   W03
 BYTE   W03
 BYTE   W03
 BYTE   W03
 BYTE   W03
 BYTE   W03
 BYTE   W03
 BYTE   W03
 BYTE   W03
 BYTE   W03
 BYTE   W03
 BYTE   W03
 BYTE   W03
 BYTE   W03
 BYTE   W03
 BYTE   W03
 BYTE   W03
 BYTE   W01
 BYTE   W03
 BYTE   W02
// 026   ----------------------------------------
 BYTE   N48  Gs1  v104
 BYTE   W01
 BYTE   W03
 BYTE   W03
 BYTE   W03
 BYTE   W03
 BYTE   W03
 BYTE   W03
 BYTE   W03
 BYTE   W03
 BYTE   W03
 BYTE   W03
 BYTE   W03
 BYTE   W03
 BYTE   W03
 BYTE   W03
 BYTE   W03
 BYTE   W01
 BYTE   W01
 BYTE   N24  Cn2
 BYTE   W02
 BYTE   W03
 BYTE   W03
 BYTE   W03
 BYTE   W03
 BYTE   W03
 BYTE   W03
 BYTE   W03
 BYTE   W01
 BYTE   Ds2
 BYTE   W02
 BYTE   W03
 BYTE   W03
 BYTE   W03
 BYTE   W03
 BYTE   W03
 BYTE   W03
 BYTE   W04
// 027   ----------------------------------------
 BYTE   N48  Fn2
 BYTE   W30
 BYTE   W17
 BYTE   W01
 BYTE   Dn2
 BYTE   W16
 BYTE   W17
 BYTE   W15
// 028   ----------------------------------------
 BYTE   N24  Fn3
 BYTE   W02
 BYTE   W02
 BYTE   W01
 BYTE   W02
 BYTE   W01
 BYTE   W02
 BYTE   W01
 BYTE   W02
 BYTE   W01
 BYTE   W02
 BYTE   W07
 BYTE   W01
 BYTE   Ds3
 BYTE   W02
 BYTE   W04
 BYTE   W03
 BYTE   W04
 BYTE   W03
 BYTE   W04
 BYTE   W03
 BYTE   W01
 BYTE   As2
 BYTE   W02
 BYTE   W04
 BYTE   W03
 BYTE   W04
 BYTE   W03
 BYTE   W03
 BYTE   W03
 BYTE   W02
 BYTE   Gn2
 BYTE   W01
 BYTE   W03
 BYTE   W03
 BYTE   W03
 BYTE   W03
 BYTE   W03
 BYTE   W03
 BYTE   W03
 BYTE   W02
// 029   ----------------------------------------
 BYTE   N48  An2
 BYTE   W01
 BYTE   W03
 BYTE   W03
 BYTE   W02
 BYTE   W01
 BYTE   W02
 BYTE   W01
 BYTE   W02
 BYTE   W01
 BYTE   W02
 BYTE   W01
 BYTE   W02
 BYTE   W01
 BYTE   W02
 BYTE   W01
 BYTE   W02
 BYTE   W01
 BYTE   W02
 BYTE   W01
 BYTE   W02
 BYTE   W01
 BYTE   W02
 BYTE   W01
 BYTE   W02
 BYTE   W01
 BYTE   W02
 BYTE   W01
 BYTE   W02
 BYTE   W01
 BYTE   W02
 BYTE   Fn2
 BYTE   W01
 BYTE   W01
 BYTE   W03
 BYTE   W03
 BYTE   W03
 BYTE   W03
 BYTE   W03
 BYTE   W03
 BYTE   W03
 BYTE   W03
 BYTE   W03
 BYTE   W03
 BYTE   W03
 BYTE   W03
 BYTE   W03
 BYTE   W03
 BYTE   W03
 BYTE   W01
// 030   ----------------------------------------
 BYTE   W02
 BYTE   W03
 BYTE   W03
 BYTE   W02
 BYTE   W03
 BYTE   W03
 BYTE   W03
 BYTE   W03
 BYTE   W02
 BYTE   Cn2
 BYTE   W01
 BYTE   W03
 BYTE   W03
 BYTE   W03
 BYTE   W03
 BYTE   W03
 BYTE   W03
 BYTE   W03
 BYTE   W03
 BYTE   W03
 BYTE   W03
 BYTE   W03
 BYTE   W03
 BYTE   W03
 BYTE   W03
 BYTE   W03
 BYTE   W02
 BYTE   Dn2
 BYTE   W24
// 031   ----------------------------------------
 BYTE   W10
 BYTE   W14
 BYTE   N24  Ds2
 BYTE   W04
 BYTE   W19
 BYTE   W01
 BYTE   Cn2
 BYTE   W17
 BYTE   W07
 BYTE   N23  Ds2
 BYTE   W11
 BYTE   W13
// 032   ----------------------------------------
 BYTE   N72  Fn2
 BYTE   W05
 BYTE   W01
 BYTE   W02
 BYTE   W01
 BYTE   W02
 BYTE   W01
 BYTE   W02
 BYTE   W01
 BYTE   W02
 BYTE   W01
 BYTE   W02
 BYTE   W01
 BYTE   W01
 BYTE   W08
 BYTE   W04
 BYTE   W04
 BYTE   W04
 BYTE   W04
 BYTE   W04
 BYTE   W04
 BYTE   W04
 BYTE   W04
 BYTE   W03
 BYTE   W03
 BYTE   W03
 BYTE   W01
 BYTE   N24  Gs2
 BYTE   W02
 BYTE   W03
 BYTE   W02
 BYTE   W03
 BYTE   W03
 BYTE   W03
 BYTE   W03
 BYTE   W03
 BYTE   W02
// 033   ----------------------------------------
 BYTE   N96  Fn2
 BYTE   W03
 BYTE   W03
 BYTE   W03
 BYTE   W01
 BYTE   W02
 BYTE   W01
 BYTE   W02
 BYTE   W01
 BYTE   W02
 BYTE   W01
 BYTE   W02
 BYTE   W01
 BYTE   W02
 BYTE   W01
 BYTE   W02
 BYTE   W01
 BYTE   W02
 BYTE   W01
 BYTE   W02
 BYTE   W01
 BYTE   W02
 BYTE   W01
 BYTE   W02
 BYTE   W01
 BYTE   W02
 BYTE   W01
 BYTE   W02
 BYTE   W01
 BYTE   W02
 BYTE   W01
 BYTE   W02
 BYTE   W01
 BYTE   W02
 BYTE   W01
 BYTE   W02
 BYTE   W01
 BYTE   W02
 BYTE   W01
 BYTE   W02
 BYTE   W01
 BYTE   W02
 BYTE   W01
 BYTE   W02
 BYTE   W03
 BYTE   W03
 BYTE   W03
 BYTE   W03
 BYTE   W01
 BYTE   W01
 BYTE   W02
 BYTE   W01
 BYTE   W02
 BYTE   W01
 BYTE   W02
 BYTE   W01
 BYTE   W02
 BYTE   W01
 BYTE   W01
// 034   ----------------------------------------
 BYTE   N36  Gn2
 BYTE   W01
 BYTE   W32
 BYTE   W03
 BYTE   N12
 BYTE   W12
 BYTE   Gn2  v056
 BYTE   W12
 BYTE   Gn2  v040
 BYTE   W12
 BYTE   N36  Fn2  v104
 BYTE   W24
// 035   ----------------------------------------
 BYTE   W12
 BYTE   N72  Ds2
 BYTE   W04
 BYTE   W02
 BYTE   W01
 BYTE   W02
 BYTE   W01
 BYTE   W02
 BYTE   W01
 BYTE   W02
 BYTE   W01
 BYTE   W02
 BYTE   W03
 BYTE   W03
 BYTE   W03
 BYTE   W03
 BYTE   W03
 BYTE   W03
 BYTE   W03
 BYTE   W03
 BYTE   W03
 BYTE   W03
 BYTE   W03
 BYTE   W03
 BYTE   W03
 BYTE   W03
 BYTE   W03
 BYTE   W03
 BYTE   W03
 BYTE   W03
 BYTE   W03
 BYTE   W03
 BYTE   W03
 BYTE   W01
 BYTE   W02
// 036   ----------------------------------------
 BYTE   N36  Gn2
 BYTE   W36
 BYTE   N12
 BYTE   W12
 BYTE   Gn2  v056
 BYTE   W12
 BYTE   Gn2  v040
 BYTE   W12
 BYTE   N36  Fn2  v104
 BYTE   W24
// 037   ----------------------------------------
 BYTE   W10
 BYTE   W02
 BYTE   N66  Ds2
 BYTE   W01
 BYTE   W03
 BYTE   W02
 BYTE   W03
 BYTE   W03
 BYTE   W03
 BYTE   W03
 BYTE   W03
 BYTE   W03
 BYTE   W03
 BYTE   W03
 BYTE   W03
 BYTE   W03
 BYTE   W03
 BYTE   W03
 BYTE   W03
 BYTE   W03
 BYTE   W03
 BYTE   W03
 BYTE   W01
 BYTE   W02
 BYTE   W01
 BYTE   W02
 BYTE   W01
 BYTE   W02
 BYTE   W01
 BYTE   W02
 BYTE   W01
 BYTE   W02
 BYTE   W01
 BYTE   W02
 BYTE   W01
 BYTE   W02
 BYTE   W01
 BYTE   W02
 BYTE   W01
 BYTE   W02
 BYTE   W01
 BYTE   W01
 BYTE   W01
// 038   ----------------------------------------
 BYTE   VOICE   48
 BYTE   N11  Cn4  v072
 BYTE   W12
 BYTE   Cn4  v040
 BYTE   W12
 BYTE   Cn4  v016
 BYTE   W12
 BYTE   Cn4  v092
 BYTE   W12
 BYTE   Cn4  v060
 BYTE   W12
 BYTE   Cn4  v036
 BYTE   W12
 BYTE   Cn4  v092
 BYTE   W12
 BYTE   Cn4  v076
 BYTE   W12
// 039   ----------------------------------------
 BYTE   Bn3  v108
 BYTE   W12
 BYTE   Bn3  v076
 BYTE   W12
 BYTE   Bn3  v052
 BYTE   W12
 BYTE   Bn3  v108
 BYTE   W12
 BYTE   Bn3  v076
 BYTE   W12
 BYTE   Bn3  v052
 BYTE   W12
 BYTE   Bn3  v108
 BYTE   W12
 BYTE   Bn3  v076
 BYTE   W11
 BYTE   VOL   32*song62_mvl/mxv
 BYTE   PAN   c_v-35
 BYTE   BEND   c_v+0
 BYTE   W01
// 040   ----------------------------------------
 BYTE   GoTo
  POIN2 Label_7_0131B277
 BYTE   FINE

//**************** Track 9 (Midi-Chn.8) ****************//

song62_009:
// 000   ----------------------------------------
 BYTE   KEYSH   song62_key+0
 BYTE   VOICE   41
 BYTE   VOL   27*song62_mvl/mxv
 BYTE   PAN   c_v+21
 BYTE   BEND   c_v+0
 BYTE   W96
// 001   ----------------------------------------
 BYTE   W96
// 002   ----------------------------------------
Label_8_0131AF70:
 BYTE   W96
// 003   ----------------------------------------
 BYTE   W96
// 004   ----------------------------------------
 BYTE   W96
// 005   ----------------------------------------
 BYTE   W96
// 006   ----------------------------------------
 BYTE   W96
// 007   ----------------------------------------
 BYTE   W96
// 008   ----------------------------------------
 BYTE   W96
// 009   ----------------------------------------
 BYTE   W96
// 010   ----------------------------------------
 BYTE   W96
// 011   ----------------------------------------
 BYTE   W96
// 012   ----------------------------------------
 BYTE   W96
// 013   ----------------------------------------
 BYTE   W96
// 014   ----------------------------------------
 BYTE   W96
// 015   ----------------------------------------
 BYTE   W96
// 016   ----------------------------------------
 BYTE   W96
// 017   ----------------------------------------
 BYTE   W96
// 018   ----------------------------------------
 BYTE   W96
// 019   ----------------------------------------
 BYTE   W96
// 020   ----------------------------------------
 BYTE   W96
// 021   ----------------------------------------
 BYTE   W96
// 022   ----------------------------------------
 BYTE   W96
// 023   ----------------------------------------
 BYTE   W96
// 024   ----------------------------------------
 BYTE   W96
// 025   ----------------------------------------
 BYTE   W60
 BYTE   W02
 BYTE   W10
 BYTE   N03  Gn2  v108
 BYTE   W04
 BYTE   An2
 BYTE   W03
 BYTE   As2
 BYTE   W04
 BYTE   Cn3
 BYTE   W03
 BYTE   Dn3
 BYTE   W04
 BYTE   Ds3
 BYTE   W03
 BYTE   N02  Fn3
 BYTE   W03
// 026   ----------------------------------------
 BYTE   N44  Gn3
 BYTE   W07
 BYTE   W02
 BYTE   W01
 BYTE   W02
 BYTE   W01
 BYTE   W02
 BYTE   W01
 BYTE   W02
 BYTE   W01
 BYTE   W02
 BYTE   W01
 BYTE   W02
 BYTE   W01
 BYTE   W01
 BYTE   W06
 BYTE   W04
 BYTE   W03
 BYTE   W03
 BYTE   W03
 BYTE   W03
 BYTE   Ds4
 BYTE   W03
 BYTE   W03
 BYTE   W03
 BYTE   W03
 BYTE   W03
 BYTE   W03
 BYTE   W03
 BYTE   W03
 BYTE   W03
 BYTE   W03
 BYTE   W03
 BYTE   W03
 BYTE   W03
 BYTE   W09
// 027   ----------------------------------------
 BYTE   W24
 BYTE   N23  Dn4
 BYTE   W24
 BYTE   Cn4
 BYTE   W24
 BYTE   As3
 BYTE   W23
 BYTE   W01
// 028   ----------------------------------------
 BYTE   N44  Gn3
 BYTE   W02
 BYTE   W03
 BYTE   W03
 BYTE   W03
 BYTE   W03
 BYTE   W03
 BYTE   W02
 BYTE   W03
 BYTE   W03
 BYTE   W03
 BYTE   W03
 BYTE   W03
 BYTE   W03
 BYTE   W03
 BYTE   W03
 BYTE   W03
 BYTE   W02
 BYTE   N17  As3
 BYTE   W18
 BYTE   Ds3
 BYTE   W18
 BYTE   N11  Gn3
 BYTE   W12
// 029   ----------------------------------------
 BYTE   N44  Fn3
 BYTE   W01
 BYTE   W03
 BYTE   W03
 BYTE   W03
 BYTE   W03
 BYTE   W03
 BYTE   W03
 BYTE   W01
 BYTE   W03
 BYTE   W03
 BYTE   W03
 BYTE   W03
 BYTE   W03
 BYTE   W03
 BYTE   W03
 BYTE   W03
 BYTE   W03
 BYTE   W01
 BYTE   N23  Cn3
 BYTE   W24
 BYTE   Dn3
 BYTE   W24
// 030   ----------------------------------------
 BYTE   TIE  Ds3
 BYTE   W04
 BYTE   W03
 BYTE   W03
 BYTE   W03
 BYTE   W03
 BYTE   W03
 BYTE   W03
 BYTE   W03
 BYTE   W03
 BYTE   W03
 BYTE   W03
 BYTE   W03
 BYTE   W03
 BYTE   W03
 BYTE   W03
 BYTE   W03
 BYTE   W03
 BYTE   W03
 BYTE   W04
 BYTE   W04
 BYTE   W03
 BYTE   W04
 BYTE   W04
 BYTE   W03
 BYTE   W04
 BYTE   W04
 BYTE   W04
 BYTE   W03
 BYTE   W04
// 031   ----------------------------------------
 BYTE   W04
 BYTE   W03
 BYTE   W04
 BYTE   W04
 BYTE   W03
 BYTE   W04
 BYTE   W04
 BYTE   W04
 BYTE   W03
 BYTE   W04
 BYTE   W04
 BYTE   W03
 BYTE   W03
 BYTE   EOT
 BYTE   W01
 BYTE   N17  Dn3
 BYTE   W18
 BYTE   Ds3
 BYTE   W18
 BYTE   N11  Fn3
 BYTE   W12
// 032   ----------------------------------------
 BYTE   N60  Gn3
 BYTE   W01
 BYTE   W03
 BYTE   W03
 BYTE   W03
 BYTE   W03
 BYTE   W03
 BYTE   W03
 BYTE   W01
 BYTE   W03
 BYTE   W03
 BYTE   W03
 BYTE   W03
 BYTE   W03
 BYTE   W03
 BYTE   W03
 BYTE   W03
 BYTE   W03
 BYTE   W03
 BYTE   W03
 BYTE   W03
 BYTE   W03
 BYTE   W03
 BYTE   W10
 BYTE   N17
 BYTE   W18
 BYTE   N05  Gs3
 BYTE   W06
// 033   ----------------------------------------
 BYTE   N92  Gn3
 BYTE   W06
 BYTE   W09
 BYTE   W04
 BYTE   W05
 BYTE   W04
 BYTE   W05
 BYTE   W04
 BYTE   W05
 BYTE   W04
 BYTE   W03
 BYTE   W03
 BYTE   W03
 BYTE   W03
 BYTE   W03
 BYTE   W03
 BYTE   W03
 BYTE   W03
 BYTE   W03
 BYTE   W03
 BYTE   W03
 BYTE   W03
 BYTE   W03
 BYTE   W03
 BYTE   W03
 BYTE   W03
 BYTE   W02
// 034   ----------------------------------------
 BYTE   W01
 BYTE   W02
 BYTE   W92
 BYTE   W01
// 035   ----------------------------------------
 BYTE   W96
// 036   ----------------------------------------
 BYTE   W96
// 037   ----------------------------------------
 BYTE   W96
// 038   ----------------------------------------
 BYTE   W96
// 039   ----------------------------------------
 BYTE   W96
// 040   ----------------------------------------
 BYTE   GoTo
  POIN2 Label_8_0131AF70
 BYTE   FINE

//**************** Track 10 (Midi-Chn.9) ****************//

song62_010:
// 000   ----------------------------------------
 BYTE   KEYSH   song62_key+0
 BYTE   VOICE   51
 BYTE   PAN   c_v+33
 BYTE   VOL   20*song62_mvl/mxv
 BYTE   W96
// 001   ----------------------------------------
 BYTE   W96
// 002   ----------------------------------------
Label_9_0131B9BE:
 BYTE   W96
// 003   ----------------------------------------
 BYTE   W96
// 004   ----------------------------------------
 BYTE   W96
// 005   ----------------------------------------
 BYTE   W96
// 006   ----------------------------------------
 BYTE   W96
// 007   ----------------------------------------
 BYTE   W96
// 008   ----------------------------------------
 BYTE   W96
// 009   ----------------------------------------
 BYTE   W96
// 010   ----------------------------------------
 BYTE   W96
// 011   ----------------------------------------
 BYTE   W96
// 012   ----------------------------------------
 BYTE   W96
// 013   ----------------------------------------
 BYTE   W96
// 014   ----------------------------------------
 BYTE   W96
// 015   ----------------------------------------
 BYTE   BEND   c_v+0
 BYTE   W96
// 016   ----------------------------------------
 BYTE   W96
// 017   ----------------------------------------
 BYTE   W96
// 018   ----------------------------------------
 BYTE   W06
 BYTE   W03
 BYTE   W03
 BYTE   N44  Gn2  v124
 BYTE   W03
 BYTE   W03
 BYTE   W03
 BYTE   W03
 BYTE   W03
 BYTE   W03
 BYTE   W03
 BYTE   W03
 BYTE   W03
 BYTE   W03
 BYTE   W03
 BYTE   W03
 BYTE   W12
 BYTE   Cn3
 BYTE   W04
 BYTE   W03
 BYTE   W03
 BYTE   W03
 BYTE   W03
 BYTE   W03
 BYTE   W03
 BYTE   W02
 BYTE   W03
 BYTE   W03
 BYTE   W03
 BYTE   W03
// 019   ----------------------------------------
 BYTE   W03
 BYTE   W03
 BYTE   W03
 BYTE   W03
 BYTE   W15
 BYTE   W01
 BYTE   W02
 BYTE   W01
 BYTE   W02
 BYTE   W03
 BYTE   N23
 BYTE   W03
 BYTE   W03
 BYTE   W03
 BYTE   W03
 BYTE   W03
 BYTE   W03
 BYTE   W03
 BYTE   W03
 BYTE   Dn3
 BYTE   W24
 BYTE   As2
 BYTE   W12
// 020   ----------------------------------------
 BYTE   W12
 BYTE   N44  Gn2
 BYTE   W05
 BYTE   W03
 BYTE   W03
 BYTE   W03
 BYTE   W03
 BYTE   W03
 BYTE   W03
 BYTE   W02
 BYTE   W03
 BYTE   W03
 BYTE   W03
 BYTE   W03
 BYTE   W03
 BYTE   W03
 BYTE   W03
 BYTE   W02
 BYTE   N32  Ds2
 BYTE   W01
 BYTE   W32
 BYTE   W03
// 021   ----------------------------------------
 BYTE   N05  Fn2
 BYTE   W06
 BYTE   Gn2
 BYTE   W06
 BYTE   N44  Fn2
 BYTE   W01
 BYTE   W05
 BYTE   W05
 BYTE   W04
 BYTE   W05
 BYTE   W05
 BYTE   W05
 BYTE   W04
 BYTE   W05
 BYTE   W03
 BYTE   W03
 BYTE   W03
 BYTE   W03
 BYTE   W03
 BYTE   W02
 BYTE   W02
 BYTE   W01
 BYTE   W01
 BYTE   N23  Cn2
 BYTE   W01
 BYTE   W01
 BYTE   W02
 BYTE   W01
 BYTE   W02
 BYTE   W01
 BYTE   W02
 BYTE   W01
 BYTE   W02
 BYTE   W11
// 022   ----------------------------------------
 BYTE   N11  Dn2
 BYTE   W12
 BYTE   N44  Ds2
 BYTE   W48
 BYTE   N23  Fn2
 BYTE   W24
 BYTE   Gn2
 BYTE   W12
// 023   ----------------------------------------
 BYTE   W12
 BYTE   N44  As2
 BYTE   W06
 BYTE   W03
 BYTE   W03
 BYTE   W03
 BYTE   W03
 BYTE   W03
 BYTE   W01
 BYTE   W03
 BYTE   W03
 BYTE   W03
 BYTE   W03
 BYTE   W03
 BYTE   W03
 BYTE   W03
 BYTE   W03
 BYTE   W02
 BYTE   N17  Fn2
 BYTE   W01
 BYTE   W01
 BYTE   W16
 BYTE   Gn2
 BYTE   W18
// 024   ----------------------------------------
 BYTE   N11  As2
 BYTE   W12
 BYTE   N17  Cn3
 BYTE   W18
 BYTE   N05  Dn3
 BYTE   W06
 BYTE   TIE  Cn3
 BYTE   W02
 BYTE   W03
 BYTE   W03
 BYTE   W03
 BYTE   W03
 BYTE   W03
 BYTE   W03
 BYTE   W03
 BYTE   W03
 BYTE   W03
 BYTE   W03
 BYTE   W09
 BYTE   W04
 BYTE   W05
 BYTE   W04
 BYTE   W05
 BYTE   W01
// 025   ----------------------------------------
 BYTE   W03
 BYTE   W05
 BYTE   W04
 BYTE   W01
 BYTE   W01
 BYTE   W01
 BYTE   W01
 BYTE   W01
 BYTE   W01
 BYTE   W01
 BYTE   W01
 BYTE   W01
 BYTE   W01
 BYTE   W01
 BYTE   W01
 BYTE   W01
 BYTE   W01
 BYTE   W01
 BYTE   W01
 BYTE   W01
 BYTE   W01
 BYTE   W01
 BYTE   W01
 BYTE   W01
 BYTE   W08
 BYTE   EOT
 BYTE   W07
 BYTE   BEND   c_v+0
 BYTE   W24
 BYTE   W02
 BYTE   W10
 BYTE   N03  Gn2  v108
 BYTE   W04
 BYTE   An2
 BYTE   W03
 BYTE   As2
 BYTE   W04
 BYTE   Cn3
 BYTE   W01
// 026   ----------------------------------------
 BYTE   W02
 BYTE   Dn3
 BYTE   W04
 BYTE   Ds3
 BYTE   W03
 BYTE   N02  Fn3
 BYTE   W03
 BYTE   N44  Gn3
 BYTE   W07
 BYTE   W02
 BYTE   W01
 BYTE   W02
 BYTE   W01
 BYTE   W02
 BYTE   W01
 BYTE   W02
 BYTE   W01
 BYTE   W02
 BYTE   W01
 BYTE   W02
 BYTE   W01
 BYTE   W01
 BYTE   W06
 BYTE   W04
 BYTE   W03
 BYTE   W03
 BYTE   W03
 BYTE   W03
 BYTE   Ds4
 BYTE   W03
 BYTE   W03
 BYTE   W03
 BYTE   W03
 BYTE   W03
 BYTE   W03
 BYTE   W03
 BYTE   W03
 BYTE   W03
 BYTE   W03
 BYTE   W03
 BYTE   W03
// 027   ----------------------------------------
 BYTE   W03
 BYTE   W32
 BYTE   W01
 BYTE   N23  Dn4
 BYTE   W24
 BYTE   Cn4
 BYTE   W24
 BYTE   As3
 BYTE   W12
// 028   ----------------------------------------
 BYTE   W11
 BYTE   W01
 BYTE   N44  Gn3
 BYTE   W02
 BYTE   W03
 BYTE   W03
 BYTE   W03
 BYTE   W03
 BYTE   W03
 BYTE   W02
 BYTE   W03
 BYTE   W03
 BYTE   W03
 BYTE   W03
 BYTE   W03
 BYTE   W03
 BYTE   W03
 BYTE   W03
 BYTE   W03
 BYTE   W02
 BYTE   N17  As3
 BYTE   W18
 BYTE   Ds3
 BYTE   W18
// 029   ----------------------------------------
 BYTE   N11  Gn3
 BYTE   W12
 BYTE   N44  Fn3
 BYTE   W01
 BYTE   W03
 BYTE   W03
 BYTE   W03
 BYTE   W03
 BYTE   W03
 BYTE   W03
 BYTE   W01
 BYTE   W03
 BYTE   W03
 BYTE   W03
 BYTE   W03
 BYTE   W03
 BYTE   W03
 BYTE   W03
 BYTE   W03
 BYTE   W03
 BYTE   W01
 BYTE   N23  Cn3
 BYTE   W24
 BYTE   Dn3
 BYTE   W12
// 030   ----------------------------------------
 BYTE   W12
 BYTE   TIE  Ds3
 BYTE   W04
 BYTE   W03
 BYTE   W03
 BYTE   W03
 BYTE   W03
 BYTE   W03
 BYTE   W03
 BYTE   W03
 BYTE   W03
 BYTE   W03
 BYTE   W03
 BYTE   W03
 BYTE   W03
 BYTE   W03
 BYTE   W03
 BYTE   W03
 BYTE   W03
 BYTE   W03
 BYTE   W04
 BYTE   W04
 BYTE   W03
 BYTE   W04
 BYTE   W04
 BYTE   W03
 BYTE   W04
 BYTE   W03
// 031   ----------------------------------------
 BYTE   W01
 BYTE   W04
 BYTE   W03
 BYTE   W04
 BYTE   W04
 BYTE   W03
 BYTE   W04
 BYTE   W04
 BYTE   W03
 BYTE   W04
 BYTE   W04
 BYTE   W04
 BYTE   W03
 BYTE   W04
 BYTE   W04
 BYTE   W03
 BYTE   W03
 BYTE   EOT
 BYTE   W01
 BYTE   N17  Dn3
 BYTE   W18
 BYTE   Ds3
 BYTE   W18
// 032   ----------------------------------------
 BYTE   N11  Fn3
 BYTE   W12
 BYTE   N60  Gn3
 BYTE   W01
 BYTE   W03
 BYTE   W03
 BYTE   W03
 BYTE   W03
 BYTE   W03
 BYTE   W03
 BYTE   W01
 BYTE   W03
 BYTE   W03
 BYTE   W03
 BYTE   W03
 BYTE   W03
 BYTE   W03
 BYTE   W03
 BYTE   W03
 BYTE   W03
 BYTE   W03
 BYTE   W03
 BYTE   W03
 BYTE   W03
 BYTE   W03
 BYTE   W10
 BYTE   N17
 BYTE   W12
// 033   ----------------------------------------
 BYTE   W06
 BYTE   N05  Gs3
 BYTE   W06
 BYTE   N92  Gn3
 BYTE   W06
 BYTE   W09
 BYTE   W04
 BYTE   W05
 BYTE   W04
 BYTE   W05
 BYTE   W04
 BYTE   W05
 BYTE   W04
 BYTE   W03
 BYTE   W03
 BYTE   W03
 BYTE   W03
 BYTE   W03
 BYTE   W03
 BYTE   W03
 BYTE   W03
 BYTE   W03
 BYTE   W03
 BYTE   W03
 BYTE   W03
 BYTE   W02
// 034   ----------------------------------------
 BYTE   W01
 BYTE   W03
 BYTE   W03
 BYTE   W03
 BYTE   W84
 BYTE   W02
// 035   ----------------------------------------
 BYTE   W96
// 036   ----------------------------------------
 BYTE   W96
// 037   ----------------------------------------
 BYTE   W96
// 038   ----------------------------------------
 BYTE   W96
// 039   ----------------------------------------
 BYTE   W96
// 040   ----------------------------------------
 BYTE   GoTo
  POIN2 Label_9_0131B9BE
 BYTE   FINE

//**************** Track 11 (Midi-Chn.10) ****************//

song62_011:
// 000   ----------------------------------------
 BYTE   KEYSH   song62_key+0
 BYTE   VOICE   49
 BYTE   VOL   28*song62_mvl/mxv
 BYTE   PAN   c_v-24
 BYTE   BEND   c_v+0
 BYTE   N11  Gn2  v116
 BYTE   W12
 BYTE   Gn2  v096
 BYTE   W12
 BYTE   Gn2  v056
 BYTE   W12
 BYTE   Gn2  v116
 BYTE   W12
 BYTE   Gn2  v096
 BYTE   W12
 BYTE   Gn2  v056
 BYTE   W12
 BYTE   Gn2  v116
 BYTE   W12
 BYTE   Gn2  v096
 BYTE   W12
// 001   ----------------------------------------
Label_10_0133C22F:
 BYTE   N11  Gn2  v116
 BYTE   W12
 BYTE   Gn2  v096
 BYTE   W12
 BYTE   Gn2  v056
 BYTE   W12
 BYTE   Gn2  v116
 BYTE   W12
 BYTE   Gn2  v096
 BYTE   W12
 BYTE   Gn2  v056
 BYTE   W12
 BYTE   Gn2  v116
 BYTE   W12
 BYTE   Gn2  v096
 BYTE   W12
 BYTE   PEND 
// 002   ----------------------------------------
Label_10_0133C249:
 BYTE   N11  Cn3  v116
 BYTE   W12
 BYTE   Cn3  v096
 BYTE   W12
 BYTE   Cn3  v056
 BYTE   W12
 BYTE   Cn3  v116
 BYTE   W12
 BYTE   Cn3  v096
 BYTE   W12
 BYTE   Cn3  v056
 BYTE   W12
 BYTE   Cn3  v116
 BYTE   W12
 BYTE   Cn3  v096
 BYTE   W12
 BYTE   PEND 
// 003   ----------------------------------------
Label_10_0133C263:
 BYTE   N11  As2  v116
 BYTE   W12
 BYTE   As2  v096
 BYTE   W12
 BYTE   As2  v056
 BYTE   W12
 BYTE   As2  v116
 BYTE   W12
 BYTE   As2  v096
 BYTE   W12
 BYTE   As2  v056
 BYTE   W12
 BYTE   As2  v116
 BYTE   W12
 BYTE   As2  v096
 BYTE   W12
 BYTE   PEND 
// 004   ----------------------------------------
Label_10_0133C27D:
 BYTE   N11  Gs2  v116
 BYTE   W12
 BYTE   Gs2  v096
 BYTE   W12
 BYTE   Gs2  v056
 BYTE   W12
 BYTE   Gs2  v116
 BYTE   W12
 BYTE   Gs2  v096
 BYTE   W12
 BYTE   Gs2  v056
 BYTE   W12
 BYTE   Gs2  v116
 BYTE   W12
 BYTE   Gs2  v096
 BYTE   W12
 BYTE   PEND 
// 005   ----------------------------------------
 BYTE   PATT
  POIN2 Label_10_0133C22F
// 006   ----------------------------------------
 BYTE   N11  Fn2  v116
 BYTE   W12
 BYTE   Fn2  v096
 BYTE   W12
 BYTE   Fn2  v056
 BYTE   W12
 BYTE   Fn2  v116
 BYTE   W12
 BYTE   Fn2  v096
 BYTE   W12
 BYTE   Fn2  v056
 BYTE   W12
 BYTE   Fn2  v116
 BYTE   W12
 BYTE   Fn2  v096
 BYTE   W12
// 007   ----------------------------------------
 BYTE   Ds2  v116
 BYTE   W12
 BYTE   Ds2  v096
 BYTE   W12
 BYTE   Ds2  v056
 BYTE   W12
 BYTE   Ds2  v116
 BYTE   W12
 BYTE   Ds2  v096
 BYTE   W12
 BYTE   Ds2  v056
 BYTE   W12
 BYTE   Ds2  v116
 BYTE   W12
 BYTE   Ds2  v096
 BYTE   W12
// 008   ----------------------------------------
Label_10_0133C2CD:
 BYTE   N11  Dn3  v116
 BYTE   W12
 BYTE   Dn3  v096
 BYTE   W12
 BYTE   Dn3  v056
 BYTE   W12
 BYTE   Dn3  v116
 BYTE   W12
 BYTE   Dn3  v096
 BYTE   W12
 BYTE   Dn3  v056
 BYTE   W12
 BYTE   Dn3  v116
 BYTE   W12
 BYTE   Dn3  v096
 BYTE   W12
 BYTE   PEND 
// 009   ----------------------------------------
 BYTE   PATT
  POIN2 Label_10_0133C22F
// 010   ----------------------------------------
 BYTE   PATT
  POIN2 Label_10_0133C249
// 011   ----------------------------------------
 BYTE   PATT
  POIN2 Label_10_0133C263
// 012   ----------------------------------------
 BYTE   N11  An2  v116
 BYTE   W12
 BYTE   An2  v096
 BYTE   W12
 BYTE   An2  v056
 BYTE   W12
 BYTE   An2  v116
 BYTE   W12
 BYTE   An2  v096
 BYTE   W12
 BYTE   An2  v056
 BYTE   W12
 BYTE   An2  v116
 BYTE   W12
 BYTE   An2  v096
 BYTE   W12
// 013   ----------------------------------------
 BYTE   PATT
  POIN2 Label_10_0133C27D
// 014   ----------------------------------------
Label_10_0133C314:
 BYTE   N11  Cs3  v116
 BYTE   W12
 BYTE   Cs3  v096
 BYTE   W12
 BYTE   Cs3  v056
 BYTE   W12
 BYTE   Cs3  v116
 BYTE   W12
 BYTE   Cs3  v096
 BYTE   W12
 BYTE   Cs3  v056
 BYTE   W12
 BYTE   Cs3  v116
 BYTE   W12
 BYTE   Cs3  v096
 BYTE   W12
 BYTE   PEND 
// 015   ----------------------------------------
 BYTE   PATT
  POIN2 Label_10_0133C314
// 016   ----------------------------------------
 BYTE   PATT
  POIN2 Label_10_0133C2CD
// 017   ----------------------------------------
 BYTE   PATT
  POIN2 Label_10_0133C22F
// 018   ----------------------------------------
 BYTE   N44  Gs0  v076
 BYTE   W48
 BYTE   N22  Ds1
 BYTE   W24
 BYTE   Gs1
 BYTE   W24
// 019   ----------------------------------------
 BYTE   N24  As1
 BYTE   W24
 BYTE   N52  As0
 BYTE   W60
 BYTE   N05  Cn1
 BYTE   W06
 BYTE   Dn1
 BYTE   W06
// 020   ----------------------------------------
Label_10_0133C351:
 BYTE   N48  Ds1  v076
 BYTE   W48
 BYTE   N24  As0
 BYTE   W24
 BYTE   N23  Ds1
 BYTE   W24
 BYTE   PEND 
// 021   ----------------------------------------
 BYTE   N48  Fn1
 BYTE   W48
 BYTE   N23  Cn1
 BYTE   W24
 BYTE   An0
 BYTE   W24
// 022   ----------------------------------------
 BYTE   N68  Gs0
 BYTE   W72
 BYTE   N23  Ds1
 BYTE   W24
// 023   ----------------------------------------
 BYTE   N24  As0
 BYTE   W24
 BYTE   Fn1
 BYTE   W24
 BYTE   Cn2
 BYTE   W24
 BYTE   N23  As1
 BYTE   W24
// 024   ----------------------------------------
 BYTE   N48  An1
 BYTE   W48
 BYTE   N44  An0
 BYTE   W48
// 025   ----------------------------------------
 BYTE   N24  Fn1
 BYTE   W24
 BYTE   Ds1
 BYTE   W24
 BYTE   Cn1
 BYTE   W24
 BYTE   N23  An0
 BYTE   W24
// 026   ----------------------------------------
 BYTE   N76  Gs0
 BYTE   W84
 BYTE   N05  As0
 BYTE   W06
 BYTE   Cn1
 BYTE   W06
// 027   ----------------------------------------
 BYTE   N44  As0
 BYTE   W48
 BYTE   N23  Cn1
 BYTE   W24
 BYTE   Dn1
 BYTE   W24
// 028   ----------------------------------------
 BYTE   PATT
  POIN2 Label_10_0133C351
// 029   ----------------------------------------
 BYTE   N48  Fn1  v076
 BYTE   W48
 BYTE   N44  Fn0
 BYTE   W48
// 030   ----------------------------------------
 BYTE   Gs0
 BYTE   W48
 BYTE   N23  Ds1
 BYTE   W24
 BYTE   N44  Gs1
 BYTE   W24
// 031   ----------------------------------------
 BYTE   W24
 BYTE   N48  Gs0
 BYTE   W48
 BYTE   N23  Cn1
 BYTE   W24
// 032   ----------------------------------------
 BYTE   N24  As2  v096
 BYTE   W24
 BYTE   N24
 BYTE   W24
 BYTE   N24
 BYTE   W24
 BYTE   N23
 BYTE   W24
// 033   ----------------------------------------
 BYTE   N24  Bn2
 BYTE   W24
 BYTE   N24
 BYTE   W24
 BYTE   Gn2
 BYTE   W24
 BYTE   N23  Bn2
 BYTE   W24
// 034   ----------------------------------------
Label_10_0133C3C3:
 BYTE   N11  Cn3  v116
 BYTE   W12
 BYTE   Cn3  v096
 BYTE   W12
 BYTE   Cn3  v056
 BYTE   W12
 BYTE   As2  v116
 BYTE   W12
 BYTE   As2  v096
 BYTE   W12
 BYTE   As2  v056
 BYTE   W12
 BYTE   Gs2  v116
 BYTE   W12
 BYTE   Gs2  v096
 BYTE   W12
 BYTE   PEND 
// 035   ----------------------------------------
 BYTE   PATT
  POIN2 Label_10_0133C27D
// 036   ----------------------------------------
 BYTE   PATT
  POIN2 Label_10_0133C3C3
// 037   ----------------------------------------
 BYTE   PATT
  POIN2 Label_10_0133C27D
// 038   ----------------------------------------
 BYTE   PATT
  POIN2 Label_10_0133C22F
// 039   ----------------------------------------
 BYTE   PATT
  POIN2 Label_10_0133C22F
// 040   ----------------------------------------
 BYTE   GoTo
  POIN2 Label_10_0133C249
 BYTE   FINE

//**************** Track 12 (Midi-Chn.11) ****************//

song62_012:
// 000   ----------------------------------------
 BYTE   KEYSH   song62_key+0
 BYTE   VOICE   47
 BYTE   VOL   34*song62_mvl/mxv
 BYTE   PAN   c_v+19
 BYTE   BEND   c_v+0
 BYTE   N32  Gn1  v116
 BYTE   W36
 BYTE   Gn1  v088
 BYTE   W36
 BYTE   N23  Gn1  v116
 BYTE   W24
// 001   ----------------------------------------
Label_11_0131B631:
 BYTE   N32  Gn1  v116
 BYTE   W36
 BYTE   Gn1  v088
 BYTE   W36
 BYTE   N11  Gn1  v116
 BYTE   W12
 BYTE   N03  Gn1  v084
 BYTE   W04
 BYTE   Gn1  v092
 BYTE   W04
 BYTE   Gn1  v104
 BYTE   W04
 BYTE   PEND 
// 002   ----------------------------------------
Label_11_0131B647:
 BYTE   N32  Cn2  v100
 BYTE   W36
 BYTE   N56  Cn2  v096
 BYTE   W60
 BYTE   PEND 
// 003   ----------------------------------------
Label_11_0131B650:
 BYTE   N32  As1  v100
 BYTE   W36
 BYTE   N56  As1  v096
 BYTE   W60
 BYTE   PEND 
// 004   ----------------------------------------
Label_11_0131B659:
 BYTE   N32  Gs1  v100
 BYTE   W36
 BYTE   N56  Gs1  v096
 BYTE   W60
 BYTE   PEND 
// 005   ----------------------------------------
Label_11_0131B662:
 BYTE   N32  Gn1  v100
 BYTE   W36
 BYTE   N56  Gn1  v096
 BYTE   W60
 BYTE   PEND 
// 006   ----------------------------------------
 BYTE   N32  Fn1  v100
 BYTE   W36
 BYTE   N56  Fn1  v096
 BYTE   W60
// 007   ----------------------------------------
 BYTE   N32  Ds1  v100
 BYTE   W36
 BYTE   N56  Ds1  v096
 BYTE   W60
// 008   ----------------------------------------
Label_11_0131B67B:
 BYTE   N32  Dn2  v100
 BYTE   W36
 BYTE   N56  Dn2  v096
 BYTE   W60
 BYTE   PEND 
// 009   ----------------------------------------
 BYTE   PATT
  POIN2 Label_11_0131B662
// 010   ----------------------------------------
 BYTE   PATT
  POIN2 Label_11_0131B647
// 011   ----------------------------------------
 BYTE   PATT
  POIN2 Label_11_0131B650
// 012   ----------------------------------------
 BYTE   N32  An1  v100
 BYTE   W36
 BYTE   N56  An1  v096
 BYTE   W60
// 013   ----------------------------------------
 BYTE   PATT
  POIN2 Label_11_0131B659
// 014   ----------------------------------------
Label_11_0131B6A0:
 BYTE   N32  Cs2  v100
 BYTE   W36
 BYTE   N56  Cs2  v096
 BYTE   W60
 BYTE   PEND 
// 015   ----------------------------------------
 BYTE   PATT
  POIN2 Label_11_0131B6A0
// 016   ----------------------------------------
 BYTE   PATT
  POIN2 Label_11_0131B67B
// 017   ----------------------------------------
 BYTE   PATT
  POIN2 Label_11_0131B662
// 018   ----------------------------------------
 BYTE   N92  Gs1  v092
 BYTE   W96
// 019   ----------------------------------------
 BYTE   As1
 BYTE   W96
// 020   ----------------------------------------
 BYTE   Ds1
 BYTE   W96
// 021   ----------------------------------------
 BYTE   Fn1
 BYTE   W96
// 022   ----------------------------------------
 BYTE   Gs1
 BYTE   W96
// 023   ----------------------------------------
 BYTE   As1
 BYTE   W96
// 024   ----------------------------------------
 BYTE   An1
 BYTE   W96
// 025   ----------------------------------------
 BYTE   N92
 BYTE   W96
// 026   ----------------------------------------
 BYTE   Gs1
 BYTE   W96
// 027   ----------------------------------------
 BYTE   As1
 BYTE   W96
// 028   ----------------------------------------
 BYTE   Ds1
 BYTE   W96
// 029   ----------------------------------------
 BYTE   Fn1
 BYTE   W96
// 030   ----------------------------------------
 BYTE   Gs1
 BYTE   W96
// 031   ----------------------------------------
 BYTE   N92
 BYTE   W96
// 032   ----------------------------------------
 BYTE   N24  As1  v088
 BYTE   W24
 BYTE   As1  v084
 BYTE   W24
 BYTE   N24
 BYTE   W24
 BYTE   N23
 BYTE   W24
// 033   ----------------------------------------
 BYTE   N24  Bn1  v116
 BYTE   W24
 BYTE   Bn1  v084
 BYTE   W24
 BYTE   N24
 BYTE   W24
 BYTE   N23
 BYTE   W24
// 034   ----------------------------------------
 BYTE   N32  Cn4  v116
 BYTE   W36
 BYTE   As1  v104
 BYTE   W36
 BYTE   N92  Gs1
 BYTE   W24
// 035   ----------------------------------------
 BYTE   W72
 BYTE   N05  Gs1  v072
 BYTE   W06
 BYTE   Gs1  v088
 BYTE   W06
 BYTE   Gs1  v096
 BYTE   W06
 BYTE   Gs1  v116
 BYTE   W06
// 036   ----------------------------------------
 BYTE   N32  Cn4
 BYTE   W36
 BYTE   As1  v104
 BYTE   W36
 BYTE   N68  Gs1
 BYTE   W24
// 037   ----------------------------------------
 BYTE   W48
 BYTE   N24  Ds1  v108
 BYTE   W24
 BYTE   Gs1  v116
 BYTE   W24
// 038   ----------------------------------------
 BYTE   N32  Gn1
 BYTE   W36
 BYTE   Gn1  v088
 BYTE   W36
 BYTE   N23  Gn1  v116
 BYTE   W24
// 039   ----------------------------------------
 BYTE   PATT
  POIN2 Label_11_0131B631
// 040   ----------------------------------------
 BYTE   GoTo
  POIN2 Label_11_0131B647
 BYTE   FINE

//**************** Track 13 (Midi-Chn.12) ****************//

song62_013:
// 000   ----------------------------------------
 BYTE   KEYSH   song62_key+0
 BYTE   VOICE   127
 BYTE   VOL   33*song62_mvl/mxv
 BYTE   PAN   c_v+0
 BYTE   BEND   c_v+0
 BYTE   N05  Dn1  v112
 BYTE   N13  Fs6  v040
 BYTE   W06
 BYTE   N05  Dn1  v064
 BYTE   W06
 BYTE   Dn1  v100
 BYTE   W06
 BYTE   Dn1  v040
 BYTE   W06
 BYTE   Dn1  v028
 BYTE   W06
 BYTE   Dn1  v020
 BYTE   W06
 BYTE   Dn1  v064
 BYTE   N13  Fs6  v048
 BYTE   W06
 BYTE   N05  Dn1  v068
 BYTE   W06
 BYTE   Dn1  v076
 BYTE   W06
 BYTE   Dn1  v064
 BYTE   W06
 BYTE   Dn1  v084
 BYTE   W06
 BYTE   Dn1  v040
 BYTE   W06
 BYTE   Dn1  v096
 BYTE   N13  Fs6  v040
 BYTE   W06
 BYTE   N05  Dn1  v020
 BYTE   W06
 BYTE   Dn1  v044
 BYTE   W06
 BYTE   N02  Dn1  v056
 BYTE   W03
 BYTE   Dn1  v064
 BYTE   W03
// 001   ----------------------------------------
 BYTE   N05  Dn1  v112
 BYTE   N13  Fs6  v056
 BYTE   W06
 BYTE   N05  Dn1  v064
 BYTE   W06
 BYTE   Dn1  v100
 BYTE   W06
 BYTE   Dn1  v040
 BYTE   W06
 BYTE   Dn1  v028
 BYTE   W06
 BYTE   Dn1  v020
 BYTE   W06
 BYTE   Dn1  v064
 BYTE   N13  Fs6  v048
 BYTE   W06
 BYTE   N05  Dn1  v080
 BYTE   W06
 BYTE   Dn1  v092
 BYTE   W06
 BYTE   Dn1  v064
 BYTE   W06
 BYTE   Dn1  v100
 BYTE   W06
 BYTE   Dn1  v040
 BYTE   W06
 BYTE   N23  Ds1  v092
 BYTE   N13  Fs6  v040
 BYTE   W24
// 002   ----------------------------------------
Label_12_0133C47B:
 BYTE   N05  Dn1  v112
 BYTE   N84  Cs2  v124
 BYTE   W06
 BYTE   N05  Dn1  v064
 BYTE   W06
 BYTE   Dn1  v100
 BYTE   W06
 BYTE   Dn1  v040
 BYTE   W06
 BYTE   Dn1  v028
 BYTE   W06
 BYTE   Dn1  v020
 BYTE   W06
 BYTE   Dn1  v064
 BYTE   W06
 BYTE   Dn1  v080
 BYTE   W06
 BYTE   Dn1  v092
 BYTE   W06
 BYTE   Dn1  v064
 BYTE   W06
 BYTE   Dn1  v100
 BYTE   W06
 BYTE   Dn1  v040
 BYTE   W06
 BYTE   Dn1  v028
 BYTE   W06
 BYTE   Dn1  v020
 BYTE   W12
 BYTE   N02  Dn1  v056
 BYTE   W03
 BYTE   Dn1  v064
 BYTE   W03
// 003   ----------------------------------------
Label_12_0133C4B1:
 BYTE   N05  Dn1  v112
 BYTE   W06
 BYTE   Dn1  v064
 BYTE   W06
 BYTE   Dn1  v100
 BYTE   W06
 BYTE   Dn1  v040
 BYTE   W06
 BYTE   Dn1  v028
 BYTE   W06
 BYTE   Dn1  v020
 BYTE   W06
 BYTE   Dn1  v064
 BYTE   W06
 BYTE   Dn1  v080
 BYTE   W06
 BYTE   Dn1  v092
 BYTE   W06
 BYTE   Dn1  v064
 BYTE   W06
 BYTE   Dn1  v100
 BYTE   W06
 BYTE   Dn1  v040
 BYTE   W06
 BYTE   N23  Ds1  v080
 BYTE   W24
 BYTE   PEND 
// 004   ----------------------------------------
Label_12_0133C4DB:
 BYTE   N05  Dn1  v112
 BYTE   W06
 BYTE   Dn1  v064
 BYTE   W06
 BYTE   Dn1  v100
 BYTE   W06
 BYTE   Dn1  v040
 BYTE   W06
 BYTE   Dn1  v028
 BYTE   W06
 BYTE   Dn1  v020
 BYTE   W06
 BYTE   Dn1  v064
 BYTE   W06
 BYTE   Dn1  v080
 BYTE   W06
 BYTE   Dn1  v092
 BYTE   W06
 BYTE   Dn1  v064
 BYTE   W06
 BYTE   Dn1  v100
 BYTE   W06
 BYTE   Dn1  v040
 BYTE   W06
 BYTE   Dn1  v028
 BYTE   W06
 BYTE   Dn1  v020
 BYTE   W12
 BYTE   N02  Dn1  v056
 BYTE   W03
 BYTE   Dn1  v064
 BYTE   W03
 BYTE   PEND 
// 005   ----------------------------------------
 BYTE   PATT
  POIN2 Label_12_0133C4B1
// 006   ----------------------------------------
 BYTE   PATT
  POIN2 Label_12_0133C4DB
// 007   ----------------------------------------
 BYTE   PATT
  POIN2 Label_12_0133C4B1
// 008   ----------------------------------------
 BYTE   PATT
  POIN2 Label_12_0133C4DB
// 009   ----------------------------------------
 BYTE   PATT
  POIN2 Label_12_0133C4B1
// 010   ----------------------------------------
 BYTE   N05  Dn1  v112
 BYTE   N84  Cs2  v108
 BYTE   W06
 BYTE   N05  Dn1  v064
 BYTE   W06
 BYTE   Dn1  v100
 BYTE   W06
 BYTE   Dn1  v040
 BYTE   W06
 BYTE   Dn1  v028
 BYTE   W06
 BYTE   Dn1  v020
 BYTE   W06
 BYTE   Dn1  v064
 BYTE   W06
 BYTE   Dn1  v080
 BYTE   W06
 BYTE   Dn1  v092
 BYTE   W06
 BYTE   Dn1  v064
 BYTE   W06
 BYTE   Dn1  v100
 BYTE   W06
 BYTE   Dn1  v040
 BYTE   W06
 BYTE   Dn1  v028
 BYTE   W06
 BYTE   Dn1  v020
 BYTE   W12
 BYTE   N02  Dn1  v056
 BYTE   W03
 BYTE   Dn1  v064
 BYTE   W03
// 011   ----------------------------------------
 BYTE   PATT
  POIN2 Label_12_0133C4B1
// 012   ----------------------------------------
 BYTE   PATT
  POIN2 Label_12_0133C4DB
// 013   ----------------------------------------
 BYTE   PATT
  POIN2 Label_12_0133C4B1
// 014   ----------------------------------------
 BYTE   PATT
  POIN2 Label_12_0133C4DB
// 015   ----------------------------------------
 BYTE   PATT
  POIN2 Label_12_0133C4B1
// 016   ----------------------------------------
 BYTE   PATT
  POIN2 Label_12_0133C4DB
// 017   ----------------------------------------
 BYTE   PATT
  POIN2 Label_12_0133C4B1
// 018   ----------------------------------------
Label_12_0133C580:
 BYTE   N15  Dn1  v064
 BYTE   N12  Fs6  v036
 BYTE   W16
 BYTE   N15  Dn1  v064
 BYTE   W08
 BYTE   N12  Fs6  v016
 BYTE   W08
 BYTE   N15  Dn1  v064
 BYTE   W16
 BYTE   N15
 BYTE   N12  Fs6  v036
 BYTE   W16
 BYTE   N15  Dn1  v064
 BYTE   W08
 BYTE   N12  Fs6  v016
 BYTE   W08
 BYTE   N15  Dn1  v064
 BYTE   W16
 BYTE   PEND 
// 019   ----------------------------------------
Label_12_0133C5A5:
 BYTE   N15  Dn1  v100
 BYTE   N12  Fs6  v036
 BYTE   W16
 BYTE   N15  Dn1  v068
 BYTE   W08
 BYTE   N12  Fs6  v016
 BYTE   W08
 BYTE   N15  Dn1  v052
 BYTE   W16
 BYTE   Dn1  v040
 BYTE   N12  Fs6  v036
 BYTE   W16
 BYTE   N15  Dn1  v032
 BYTE   W08
 BYTE   N12  Fs6  v016
 BYTE   W08
 BYTE   N15  Dn1  v020
 BYTE   W16
 BYTE   PEND 
// 020   ----------------------------------------
 BYTE   PATT
  POIN2 Label_12_0133C580
// 021   ----------------------------------------
 BYTE   PATT
  POIN2 Label_12_0133C5A5
// 022   ----------------------------------------
 BYTE   PATT
  POIN2 Label_12_0133C580
// 023   ----------------------------------------
 BYTE   PATT
  POIN2 Label_12_0133C5A5
// 024   ----------------------------------------
 BYTE   PATT
  POIN2 Label_12_0133C580
// 025   ----------------------------------------
 BYTE   N15  Dn1  v100
 BYTE   N12  Fs6  v036
 BYTE   W16
 BYTE   N15  Dn1  v068
 BYTE   W08
 BYTE   N12  Fs6  v016
 BYTE   W08
 BYTE   N15  Dn1  v052
 BYTE   W16
 BYTE   Dn1  v040
 BYTE   N12  Fs6  v036
 BYTE   W24
 BYTE   N23  Ds1  v092
 BYTE   N03  Fn2  v004
 BYTE   N12  Fs6  v016
 BYTE   W04
 BYTE   N03  Fn2
 BYTE   W04
 BYTE   Fn2  v028
 BYTE   W04
 BYTE   Fn2  v040
 BYTE   W04
 BYTE   Fn2  v048
 BYTE   W04
 BYTE   Fn2  v060
 BYTE   W04
// 026   ----------------------------------------
 BYTE   N05  Dn1  v120
 BYTE   TIE  Fn2  v064
 BYTE   W06
 BYTE   N05  Dn1
 BYTE   W06
 BYTE   Dn1  v108
 BYTE   W06
 BYTE   Dn1  v048
 BYTE   W06
 BYTE   Dn1  v036
 BYTE   W06
 BYTE   Dn1  v028
 BYTE   W06
 BYTE   Dn1  v064
 BYTE   W06
 BYTE   Dn1  v088
 BYTE   W06
 BYTE   Dn1  v100
 BYTE   W06
 BYTE   Dn1  v064
 BYTE   W06
 BYTE   Dn1  v108
 BYTE   W06
 BYTE   Dn1  v048
 BYTE   W06
 BYTE   Dn1  v036
 BYTE   W06
 BYTE   Dn1  v028
 BYTE   W12
 BYTE   N02  Dn1  v064
 BYTE   W03
 BYTE   N02
 BYTE   W03
// 027   ----------------------------------------
 BYTE   N05  Dn1  v120
 BYTE   W02
 BYTE   EOT
 BYTE   Fn2
 BYTE   W04
 BYTE   N05  Dn1  v064
 BYTE   W06
 BYTE   Dn1  v108
 BYTE   W06
 BYTE   Dn1  v048
 BYTE   W06
 BYTE   Dn1  v036
 BYTE   W06
 BYTE   Dn1  v028
 BYTE   W06
 BYTE   Dn1  v064
 BYTE   W06
 BYTE   Dn1  v088
 BYTE   W06
 BYTE   Dn1  v100
 BYTE   W06
 BYTE   Dn1  v064
 BYTE   W06
 BYTE   Dn1  v108
 BYTE   W06
 BYTE   Dn1  v048
 BYTE   W06
 BYTE   N23  Ds1  v088
 BYTE   W24
// 028   ----------------------------------------
Label_12_0133C677:
 BYTE   N05  Dn1  v120
 BYTE   W06
 BYTE   Dn1  v064
 BYTE   W06
 BYTE   Dn1  v108
 BYTE   W06
 BYTE   Dn1  v048
 BYTE   W06
 BYTE   Dn1  v036
 BYTE   W06
 BYTE   Dn1  v028
 BYTE   W06
 BYTE   Dn1  v064
 BYTE   W06
 BYTE   Dn1  v088
 BYTE   W06
 BYTE   Dn1  v100
 BYTE   W06
 BYTE   Dn1  v064
 BYTE   W06
 BYTE   Dn1  v108
 BYTE   W06
 BYTE   Dn1  v048
 BYTE   W06
 BYTE   Dn1  v036
 BYTE   W06
 BYTE   Dn1  v028
 BYTE   W12
 BYTE   N02  Dn1  v064
 BYTE   W03
 BYTE   N02
 BYTE   W03
 BYTE   PEND 
// 029   ----------------------------------------
Label_12_0133C6A9:
 BYTE   N05  Dn1  v120
 BYTE   W06
 BYTE   Dn1  v064
 BYTE   W06
 BYTE   Dn1  v108
 BYTE   W06
 BYTE   Dn1  v048
 BYTE   W06
 BYTE   Dn1  v036
 BYTE   W06
 BYTE   Dn1  v028
 BYTE   W06
 BYTE   Dn1  v064
 BYTE   W06
 BYTE   Dn1  v088
 BYTE   W06
 BYTE   Dn1  v100
 BYTE   W06
 BYTE   Dn1  v064
 BYTE   W06
 BYTE   Dn1  v108
 BYTE   W06
 BYTE   Dn1  v048
 BYTE   W06
 BYTE   N23  Ds1  v088
 BYTE   W24
 BYTE   PEND 
// 030   ----------------------------------------
 BYTE   PATT
  POIN2 Label_12_0133C677
// 031   ----------------------------------------
 BYTE   PATT
  POIN2 Label_12_0133C6A9
// 032   ----------------------------------------
 BYTE   PATT
  POIN2 Label_12_0133C677
// 033   ----------------------------------------
 BYTE   N05  Dn1  v120
 BYTE   W06
 BYTE   Dn1  v064
 BYTE   W06
 BYTE   Dn1  v108
 BYTE   W06
 BYTE   Dn1  v048
 BYTE   W06
 BYTE   Dn1  v036
 BYTE   W06
 BYTE   Dn1  v028
 BYTE   W06
 BYTE   Dn1  v064
 BYTE   W06
 BYTE   Dn1  v088
 BYTE   W06
 BYTE   Dn1  v044
 BYTE   W06
 BYTE   Dn1  v064
 BYTE   W06
 BYTE   Dn1  v068
 BYTE   W06
 BYTE   Dn1  v064
 BYTE   W06
 BYTE   N11  Ds1  v100
 BYTE   W12
 BYTE   N05  Dn1  v096
 BYTE   W06
 BYTE   Dn1  v064
 BYTE   W06
// 034   ----------------------------------------
 BYTE   N23  Ds1  v096
 BYTE   N92  Cs2  v108
 BYTE   W24
 BYTE   N05  Dn1  v088
 BYTE   W06
 BYTE   Dn1  v064
 BYTE   W06
 BYTE   Dn1  v088
 BYTE   W06
 BYTE   Dn1  v048
 BYTE   W06
 BYTE   Dn1  v036
 BYTE   W06
 BYTE   Dn1  v028
 BYTE   W06
 BYTE   Dn1  v064
 BYTE   W06
 BYTE   Dn1  v096
 BYTE   W06
 BYTE   N23  Ds1
 BYTE   W24
// 035   ----------------------------------------
 BYTE   N05  Dn1  v088
 BYTE   W06
 BYTE   Dn1  v064
 BYTE   W06
 BYTE   Dn1  v088
 BYTE   W06
 BYTE   Dn1  v048
 BYTE   W06
 BYTE   Dn1  v036
 BYTE   W06
 BYTE   Dn1  v072
 BYTE   W06
 BYTE   Dn1  v064
 BYTE   W06
 BYTE   Dn1  v096
 BYTE   W06
 BYTE   Dn1  v064
 BYTE   W06
 BYTE   Dn1  v080
 BYTE   W06
 BYTE   Dn1  v064
 BYTE   W06
 BYTE   Dn1  v048
 BYTE   W06
 BYTE   N02  Dn1  v064
 BYTE   W03
 BYTE   Dn1  v076
 BYTE   W03
 BYTE   N05  Dn1  v064
 BYTE   W06
 BYTE   Dn1  v068
 BYTE   W06
 BYTE   Dn1  v064
 BYTE   W06
// 036   ----------------------------------------
 BYTE   N23  Ds1  v096
 BYTE   N92  En2  v048
 BYTE   W24
 BYTE   N05  Dn1  v088
 BYTE   W06
 BYTE   Dn1  v064
 BYTE   W06
 BYTE   Dn1  v088
 BYTE   W06
 BYTE   Dn1  v048
 BYTE   W06
 BYTE   Dn1  v036
 BYTE   W06
 BYTE   Dn1  v028
 BYTE   W06
 BYTE   Dn1  v064
 BYTE   W06
 BYTE   Dn1  v096
 BYTE   W06
 BYTE   N23  Ds1
 BYTE   W24
// 037   ----------------------------------------
 BYTE   N05  Dn1  v088
 BYTE   W06
 BYTE   Dn1  v064
 BYTE   W06
 BYTE   Dn1  v088
 BYTE   W06
 BYTE   Dn1  v048
 BYTE   W06
 BYTE   Dn1  v036
 BYTE   W06
 BYTE   Dn1  v072
 BYTE   W06
 BYTE   Dn1  v064
 BYTE   W06
 BYTE   Dn1  v096
 BYTE   W06
 BYTE   Dn1  v064
 BYTE   W06
 BYTE   Dn1  v088
 BYTE   W06
 BYTE   Dn1  v064
 BYTE   W06
 BYTE   Dn1  v048
 BYTE   W06
 BYTE   N02  Dn1  v064
 BYTE   W03
 BYTE   Dn1  v076
 BYTE   W03
 BYTE   N05  Dn1  v064
 BYTE   W06
 BYTE   Dn1  v068
 BYTE   W06
 BYTE   Dn1  v064
 BYTE   W06
// 038   ----------------------------------------
 BYTE   Dn1  v112
 BYTE   N32  Fs6  v040
 BYTE   W06
 BYTE   N05  Dn1  v064
 BYTE   W06
 BYTE   Dn1  v100
 BYTE   W06
 BYTE   Dn1  v040
 BYTE   W06
 BYTE   Dn1  v028
 BYTE   W06
 BYTE   Dn1  v020
 BYTE   W06
 BYTE   Dn1  v064
 BYTE   N13  Fs6  v048
 BYTE   W06
 BYTE   N05  Dn1  v068
 BYTE   W06
 BYTE   Dn1  v076
 BYTE   W06
 BYTE   Dn1  v064
 BYTE   W06
 BYTE   Dn1  v084
 BYTE   W06
 BYTE   Dn1  v040
 BYTE   W06
 BYTE   Dn1  v096
 BYTE   N13  Fs6  v040
 BYTE   W06
 BYTE   N05  Dn1  v020
 BYTE   W06
 BYTE   Dn1  v044
 BYTE   W06
 BYTE   N02  Dn1  v056
 BYTE   W03
 BYTE   Dn1  v064
 BYTE   W03
// 039   ----------------------------------------
 BYTE   N05  Dn1  v112
 BYTE   N13  Fs6  v056
 BYTE   W06
 BYTE   N05  Dn1  v064
 BYTE   W06
 BYTE   Dn1  v100
 BYTE   W06
 BYTE   Dn1  v040
 BYTE   W06
 BYTE   Dn1  v028
 BYTE   W06
 BYTE   Dn1  v020
 BYTE   W06
 BYTE   Dn1  v064
 BYTE   N13  Fs6  v048
 BYTE   W06
 BYTE   N05  Dn1  v080
 BYTE   W06
 BYTE   Dn1  v092
 BYTE   W06
 BYTE   Dn1  v064
 BYTE   W06
 BYTE   Dn1  v100
 BYTE   W06
 BYTE   Dn1  v040
 BYTE   W06
 BYTE   N23  Ds1  v092
 BYTE   N13  Fs6  v040
 BYTE   W23
 BYTE   PAN   c_v+0
 BYTE   BEND   c_v+0
 BYTE   W01
// 040   ----------------------------------------
 BYTE   GoTo
  POIN2 Label_12_0133C47B
 BYTE   FINE

//******************************************************//
	ALIGN 4

song62:
	BYTE	13	// NumTrks
	BYTE	0	// NumBlks
	BYTE	song62_pri	// Priority
	BYTE	song62_rev	// Reverb.
    
	POIN2	song62_grp
    
	POIN2	song62_001
	POIN2	song62_002
	POIN2	song62_003
	POIN2	song62_004
	POIN2	song62_005
	POIN2	song62_006
	POIN2	song62_007
	POIN2	song62_008
	POIN2	song62_009
	POIN2	song62_010
	POIN2	song62_011
	POIN2	song62_012
	POIN2	song62_013

	
