//Event file generated from Sappy .s format.
	#include "MPlayDef.event"

	#define	EscapeSong_grp  voicegroup001
	#define	EscapeSong_pri  0
	#define	EscapeSong_rev  0
	#define	EscapeSong_mvl  127
	#define	EscapeSong_key  0
	#define	EscapeSong_tbs  1
	#define	EscapeSong_exg  0
	#define	EscapeSong_cmp  1

	// .rodata
	//	EscapeSong
	ALIGN 4


//**************** Track 1 (Midi-Chn.0) ****************//

EscapeSong_001:
//  #01 //000   ----------------------------------------
 BYTE   KEYSH   EscapeSong_key+0
Label_014B1932:
 BYTE   TEMPO   140*EscapeSong_tbs/2
 BYTE   VOICE   127
 BYTE   VOL   28*EscapeSong_mvl/mxv
 BYTE   PAN   c_v+0
 BYTE   BEND   c_v+0
 BYTE   N11  Bn2  v100
 BYTE   W12
 BYTE   N11
 BYTE   W12
 BYTE   N11
 BYTE   W12
 BYTE   N11
 BYTE   W12
 BYTE   N11
 BYTE   W12
 BYTE   N11
 BYTE   W12
 BYTE   N11
 BYTE   W12
 BYTE   N11
 BYTE   W12
//  #01 //001   ----------------------------------------
 BYTE   N11
 BYTE   W12
 BYTE   N11
 BYTE   W12
 BYTE   N11
 BYTE   W12
 BYTE   N11
 BYTE   W12
 BYTE   N11
 BYTE   W12
 BYTE   N11
 BYTE   W12
 BYTE   Dn1
 BYTE   N11  Gs1
 BYTE   N05  Cn2
 BYTE   N11  Gn2
 BYTE   N11  Bn2
 BYTE   W06
 BYTE   N05  Cn2
 BYTE   W06
 BYTE   N11  Dn1
 BYTE   N11  Gs1
 BYTE   N05  Bn1
 BYTE   N11  Gn2
 BYTE   N11  Bn2
 BYTE   W06
 BYTE   N05  Bn1
 BYTE   W06
//  #01 //002   ----------------------------------------
Label_014B1975:
 BYTE   N11  Dn1  v100
 BYTE   N11  Bn2
 BYTE   W12
 BYTE   Gn2
 BYTE   N11  Bn2
 BYTE   W12
 BYTE   Gs1
 BYTE   N44  An2
 BYTE   N11  Bn2
 BYTE   W12
 BYTE   Dn1
 BYTE   N11  Bn2
 BYTE   W12
 BYTE   Dn1
 BYTE   N11  Bn2
 BYTE   W12
 BYTE   Gn2
 BYTE   N11  Bn2
 BYTE   W12
 BYTE   Gs1
 BYTE   N44  An2
 BYTE   N11  Bn2
 BYTE   W12
 BYTE   Dn1
 BYTE   N11  Bn2
 BYTE   W12
 BYTE   PEND 
//  #01 //003   ----------------------------------------
 BYTE   PATT
  POIN2 Label_014B1975
//  #01 //004   ----------------------------------------
 BYTE   PATT
  POIN2 Label_014B1975
//  #01 //005   ----------------------------------------
Label_014B19A6:
 BYTE   N11  Dn1  v100
 BYTE   N11  Bn2
 BYTE   W12
 BYTE   Gn2
 BYTE   N11  Bn2
 BYTE   W12
 BYTE   Gs1
 BYTE   N44  An2
 BYTE   N11  Bn2
 BYTE   W12
 BYTE   Dn1
 BYTE   N11  Bn2
 BYTE   W12
 BYTE   Dn1
 BYTE   N11  Bn2
 BYTE   W12
 BYTE   Gn2
 BYTE   N11  Bn2
 BYTE   W12
 BYTE   Dn1
 BYTE   N11  Gs1
 BYTE   N05  Cn2
 BYTE   N11  Gn2
 BYTE   N44  An2
 BYTE   N11  Bn2
 BYTE   W06
 BYTE   N05  Cn2
 BYTE   W06
 BYTE   N11  Dn1
 BYTE   N11  Gs1
 BYTE   N05  Bn1
 BYTE   N11  Gn2
 BYTE   N11  Bn2
 BYTE   W06
 BYTE   N05  Bn1
 BYTE   W06
 BYTE   PEND 
//  #01 //006   ----------------------------------------
 BYTE   PATT
  POIN2 Label_014B1975
//  #01 //007   ----------------------------------------
 BYTE   PATT
  POIN2 Label_014B1975
//  #01 //008   ----------------------------------------
 BYTE   PATT
  POIN2 Label_014B1975
//  #01 //009   ----------------------------------------
 BYTE   PATT
  POIN2 Label_014B1975
//  #01 //010   ----------------------------------------
 BYTE   PATT
  POIN2 Label_014B1975
//  #01 //011   ----------------------------------------
 BYTE   PATT
  POIN2 Label_014B1975
//  #01 //012   ----------------------------------------
 BYTE   PATT
  POIN2 Label_014B1975
//  #01 //013   ----------------------------------------
 BYTE   PATT
  POIN2 Label_014B19A6
//  #01 //014   ----------------------------------------
 BYTE   PATT
  POIN2 Label_014B1975
//  #01 //015   ----------------------------------------
 BYTE   PATT
  POIN2 Label_014B1975
//  #01 //016   ----------------------------------------
 BYTE   PATT
  POIN2 Label_014B1975
//  #01 //017   ----------------------------------------
 BYTE   PATT
  POIN2 Label_014B1975
//  #01 //018   ----------------------------------------
 BYTE   PATT
  POIN2 Label_014B1975
//  #01 //019   ----------------------------------------
 BYTE   PATT
  POIN2 Label_014B1975
//  #01 //020   ----------------------------------------
 BYTE   PATT
  POIN2 Label_014B1975
//  #01 //021   ----------------------------------------
 BYTE   PATT
  POIN2 Label_014B19A6
//  #01 //022   ----------------------------------------
 BYTE   PATT
  POIN2 Label_014B1975
//  #01 //023   ----------------------------------------
 BYTE   PATT
  POIN2 Label_014B1975
//  #01 //024   ----------------------------------------
 BYTE   PATT
  POIN2 Label_014B1975
//  #01 //025   ----------------------------------------
 BYTE   PATT
  POIN2 Label_014B1975
//  #01 //026   ----------------------------------------
 BYTE   PATT
  POIN2 Label_014B1975
//  #01 //027   ----------------------------------------
 BYTE   PATT
  POIN2 Label_014B1975
//  #01 //028   ----------------------------------------
 BYTE   PATT
  POIN2 Label_014B1975
//  #01 //029   ----------------------------------------
 BYTE   PATT
  POIN2 Label_014B19A6
//  #01 //030   ----------------------------------------
 BYTE   PATT
  POIN2 Label_014B1975
//  #01 //031   ----------------------------------------
 BYTE   PATT
  POIN2 Label_014B1975
//  #01 //032   ----------------------------------------
 BYTE   PATT
  POIN2 Label_014B1975
//  #01 //033   ----------------------------------------
 BYTE   PATT
  POIN2 Label_014B1975
//  #01 //034   ----------------------------------------
 BYTE   PATT
  POIN2 Label_014B1975
//  #01 //035   ----------------------------------------
 BYTE   PATT
  POIN2 Label_014B1975
//  #01 //036   ----------------------------------------
 BYTE   PATT
  POIN2 Label_014B1975
//  #01 //037   ----------------------------------------
 BYTE   PATT
  POIN2 Label_014B19A6
//  #01 //038   ----------------------------------------
 BYTE   PATT
  POIN2 Label_014B1975
//  #01 //039   ----------------------------------------
 BYTE   PATT
  POIN2 Label_014B1975
//  #01 //040   ----------------------------------------
 BYTE   PATT
  POIN2 Label_014B1975
//  #01 //041   ----------------------------------------
 BYTE   PATT
  POIN2 Label_014B1975
//  #01 //042   ----------------------------------------
 BYTE   PATT
  POIN2 Label_014B1975
//  #01 //043   ----------------------------------------
 BYTE   PATT
  POIN2 Label_014B1975
//  #01 //044   ----------------------------------------
 BYTE   PATT
  POIN2 Label_014B1975
//  #01 //045   ----------------------------------------
 BYTE   PATT
  POIN2 Label_014B19A6
//  #01 //046   ----------------------------------------
 BYTE   PATT
  POIN2 Label_014B1975
//  #01 //047   ----------------------------------------
 BYTE   PATT
  POIN2 Label_014B1975
//  #01 //048   ----------------------------------------
 BYTE   PATT
  POIN2 Label_014B1975
//  #01 //049   ----------------------------------------
 BYTE   PATT
  POIN2 Label_014B1975
//  #01 //050   ----------------------------------------
 BYTE   PATT
  POIN2 Label_014B1975
//  #01 //051   ----------------------------------------
 BYTE   PATT
  POIN2 Label_014B1975
//  #01 //052   ----------------------------------------
 BYTE   PATT
  POIN2 Label_014B1975
//  #01 //053   ----------------------------------------
 BYTE   PATT
  POIN2 Label_014B19A6
//  #01 //054   ----------------------------------------
 BYTE   PATT
  POIN2 Label_014B1975
//  #01 //055   ----------------------------------------
 BYTE   PATT
  POIN2 Label_014B1975
//  #01 //056   ----------------------------------------
 BYTE   PATT
  POIN2 Label_014B1975
//  #01 //057   ----------------------------------------
 BYTE   PATT
  POIN2 Label_014B1975
//  #01 //058   ----------------------------------------
 BYTE   PATT
  POIN2 Label_014B1975
//  #01 //059   ----------------------------------------
 BYTE   PATT
  POIN2 Label_014B1975
//  #01 //060   ----------------------------------------
 BYTE   PATT
  POIN2 Label_014B1975
//  #01 //061   ----------------------------------------
 BYTE   PATT
  POIN2 Label_014B19A6
//  #01 //062   ----------------------------------------
 BYTE   PATT
  POIN2 Label_014B1975
//  #01 //063   ----------------------------------------
 BYTE   PATT
  POIN2 Label_014B1975
//  #01 //064   ----------------------------------------
 BYTE   PATT
  POIN2 Label_014B1975
//  #01 //065   ----------------------------------------
 BYTE   PATT
  POIN2 Label_014B1975
//  #01 //066   ----------------------------------------
 BYTE   PATT
  POIN2 Label_014B1975
//  #01 //067   ----------------------------------------
 BYTE   PATT
  POIN2 Label_014B1975
//  #01 //068   ----------------------------------------
 BYTE   PATT
  POIN2 Label_014B1975
//  #01 //069   ----------------------------------------
 BYTE   PATT
  POIN2 Label_014B19A6
//  #01 //070   ----------------------------------------
 BYTE   PATT
  POIN2 Label_014B1975
//  #01 //071   ----------------------------------------
 BYTE   PATT
  POIN2 Label_014B1975
//  #01 //072   ----------------------------------------
 BYTE   PATT
  POIN2 Label_014B1975
//  #01 //073   ----------------------------------------
 BYTE   PATT
  POIN2 Label_014B1975
//  #01 //074   ----------------------------------------
 BYTE   PATT
  POIN2 Label_014B1975
//  #01 //075   ----------------------------------------
 BYTE   PATT
  POIN2 Label_014B1975
//  #01 //076   ----------------------------------------
 BYTE   PATT
  POIN2 Label_014B1975
//  #01 //077   ----------------------------------------
 BYTE   PATT
  POIN2 Label_014B19A6
//  #01 //078   ----------------------------------------
 BYTE   PATT
  POIN2 Label_014B1975
//  #01 //079   ----------------------------------------
 BYTE   PATT
  POIN2 Label_014B1975
//  #01 //080   ----------------------------------------
 BYTE   PATT
  POIN2 Label_014B1975
//  #01 //081   ----------------------------------------
 BYTE   PATT
  POIN2 Label_014B1975
//  #01 //082   ----------------------------------------
 BYTE   PATT
  POIN2 Label_014B1975
//  #01 //083   ----------------------------------------
 BYTE   PATT
  POIN2 Label_014B1975
//  #01 //084   ----------------------------------------
 BYTE   PATT
  POIN2 Label_014B1975
//  #01 //085   ----------------------------------------
 BYTE   N11  Dn1  v100
 BYTE   N11  Bn2
 BYTE   W12
 BYTE   Gn2
 BYTE   N11  Bn2
 BYTE   W12
 BYTE   Gs1
 BYTE   N44  An2
 BYTE   N11  Bn2
 BYTE   W12
 BYTE   Dn1
 BYTE   N11  Bn2
 BYTE   W12
 BYTE   Dn1
 BYTE   N11  Bn2
 BYTE   W12
 BYTE   Gn2
 BYTE   N11  Bn2
 BYTE   W12
 BYTE   Dn1
 BYTE   N11  Gs1
 BYTE   N05  Cn2
 BYTE   N11  Gn2
 BYTE   N23  An2
 BYTE   N11  Bn2
 BYTE   W06
 BYTE   N05  Cn2
 BYTE   W06
 BYTE   N11  Dn1
 BYTE   N11  Gs1
 BYTE   N05  Bn1
 BYTE   N11  Gn2
 BYTE   N11  Bn2
 BYTE   W06
 BYTE   N05  Bn1
 BYTE   W06
//  #01 //086   ----------------------------------------
 BYTE   GoTo
  POIN2 Label_014B1932
 BYTE   FINE

//**************** Track 2 (Midi-Chn.1) ****************//

EscapeSong_002:
//  #02 //000   ----------------------------------------
 BYTE   KEYSH   EscapeSong_key+0
Label_014B17BE:
 BYTE   VOICE   50
 BYTE   VOL   21*EscapeSong_mvl/mxv
 BYTE   PAN   c_v-13
 BYTE   BEND   c_v+0
 BYTE   TIE  En1  v100
 BYTE   W96
//  #02 //001   ----------------------------------------
 BYTE   W92
 BYTE   W03
 BYTE   EOT
 BYTE   W01
//  #02 //002   ----------------------------------------
 BYTE   TIE
 BYTE   W96
//  #02 //003   ----------------------------------------
 BYTE   W92
 BYTE   W03
 BYTE   EOT
 BYTE   W01
//  #02 //004   ----------------------------------------
 BYTE   TIE
 BYTE   W96
//  #02 //005   ----------------------------------------
 BYTE   W92
 BYTE   W03
 BYTE   EOT
 BYTE   W01
//  #02 //006   ----------------------------------------
 BYTE   TIE
 BYTE   W96
//  #02 //007   ----------------------------------------
 BYTE   W92
 BYTE   W03
 BYTE   EOT
 BYTE   W01
//  #02 //008   ----------------------------------------
 BYTE   TIE  Dn1
 BYTE   W96
//  #02 //009   ----------------------------------------
 BYTE   W92
 BYTE   W03
 BYTE   EOT
 BYTE   W01
//  #02 //010   ----------------------------------------
 BYTE   TIE  Cn1
 BYTE   W96
//  #02 //011   ----------------------------------------
 BYTE   W92
 BYTE   W03
 BYTE   EOT
 BYTE   W01
//  #02 //012   ----------------------------------------
 BYTE   N92  Dn1
 BYTE   W96
//  #02 //013   ----------------------------------------
Label_014B17F1:
 BYTE   N44  Gn1  v100
 BYTE   W48
 BYTE   Fs1
 BYTE   W48
 BYTE   PEND 
//  #02 //014   ----------------------------------------
 BYTE   TIE  En1
 BYTE   W96
//  #02 //015   ----------------------------------------
 BYTE   W92
 BYTE   W03
 BYTE   EOT
 BYTE   W01
//  #02 //016   ----------------------------------------
 BYTE   TIE  Dn1
 BYTE   W96
//  #02 //017   ----------------------------------------
 BYTE   W92
 BYTE   W03
 BYTE   EOT
 BYTE   W01
//  #02 //018   ----------------------------------------
 BYTE   TIE  Cn1
 BYTE   W96
//  #02 //019   ----------------------------------------
 BYTE   W92
 BYTE   W03
 BYTE   EOT
 BYTE   W01
//  #02 //020   ----------------------------------------
 BYTE   N92  Dn1
 BYTE   W96
//  #02 //021   ----------------------------------------
 BYTE   Ds1
 BYTE   W96
//  #02 //022   ----------------------------------------
 BYTE   TIE  En1
 BYTE   W96
//  #02 //023   ----------------------------------------
 BYTE   W92
 BYTE   W03
 BYTE   EOT
 BYTE   W01
//  #02 //024   ----------------------------------------
 BYTE   TIE  Cn1
 BYTE   W96
//  #02 //025   ----------------------------------------
 BYTE   W92
 BYTE   W03
 BYTE   EOT
 BYTE   W01
//  #02 //026   ----------------------------------------
 BYTE   TIE  Dn1
 BYTE   W96
//  #02 //027   ----------------------------------------
 BYTE   W92
 BYTE   W03
 BYTE   EOT
 BYTE   W01
//  #02 //028   ----------------------------------------
 BYTE   N92  En1
 BYTE   W96
//  #02 //029   ----------------------------------------
 BYTE   PATT
  POIN2 Label_014B17F1
//  #02 //030   ----------------------------------------
 BYTE   TIE  En1  v100
 BYTE   W96
//  #02 //031   ----------------------------------------
 BYTE   W92
 BYTE   W03
 BYTE   EOT
 BYTE   W01
//  #02 //032   ----------------------------------------
 BYTE   TIE  Dn1
 BYTE   W96
//  #02 //033   ----------------------------------------
 BYTE   W92
 BYTE   W03
 BYTE   EOT
 BYTE   W01
//  #02 //034   ----------------------------------------
 BYTE   TIE  Cn1
 BYTE   W96
//  #02 //035   ----------------------------------------
 BYTE   W92
 BYTE   W03
 BYTE   EOT
 BYTE   W01
//  #02 //036   ----------------------------------------
 BYTE   N92  Bn0
 BYTE   W96
//  #02 //037   ----------------------------------------
 BYTE   Ds1
 BYTE   W96
//  #02 //038   ----------------------------------------
 BYTE   TIE  En1
 BYTE   W96
//  #02 //039   ----------------------------------------
 BYTE   W92
 BYTE   W03
 BYTE   EOT
 BYTE   W01
//  #02 //040   ----------------------------------------
 BYTE   TIE  Dn1
 BYTE   W96
//  #02 //041   ----------------------------------------
 BYTE   W92
 BYTE   W03
 BYTE   EOT
 BYTE   W01
//  #02 //042   ----------------------------------------
 BYTE   TIE  Cn1
 BYTE   W96
//  #02 //043   ----------------------------------------
 BYTE   W92
 BYTE   W03
 BYTE   EOT
 BYTE   W01
//  #02 //044   ----------------------------------------
 BYTE   N92  Dn1
 BYTE   W96
//  #02 //045   ----------------------------------------
 BYTE   PATT
  POIN2 Label_014B17F1
//  #02 //046   ----------------------------------------
 BYTE   TIE  En1  v100
 BYTE   W96
//  #02 //047   ----------------------------------------
 BYTE   W92
 BYTE   W03
 BYTE   EOT
 BYTE   W01
//  #02 //048   ----------------------------------------
 BYTE   TIE  Dn1
 BYTE   W96
//  #02 //049   ----------------------------------------
 BYTE   W92
 BYTE   W03
 BYTE   EOT
 BYTE   W01
//  #02 //050   ----------------------------------------
 BYTE   TIE  Cn1
 BYTE   W96
//  #02 //051   ----------------------------------------
 BYTE   W92
 BYTE   W03
 BYTE   EOT
 BYTE   W01
//  #02 //052   ----------------------------------------
 BYTE   N92  Dn1
 BYTE   W96
//  #02 //053   ----------------------------------------
 BYTE   Ds1
 BYTE   W96
//  #02 //054   ----------------------------------------
 BYTE   TIE  En1
 BYTE   W96
//  #02 //055   ----------------------------------------
 BYTE   W92
 BYTE   W03
 BYTE   EOT
 BYTE   W01
//  #02 //056   ----------------------------------------
 BYTE   TIE  Dn1
 BYTE   W96
//  #02 //057   ----------------------------------------
 BYTE   W92
 BYTE   W03
 BYTE   EOT
 BYTE   W01
//  #02 //058   ----------------------------------------
 BYTE   TIE  Cn1
 BYTE   W96
//  #02 //059   ----------------------------------------
 BYTE   W92
 BYTE   W03
 BYTE   EOT
 BYTE   W01
//  #02 //060   ----------------------------------------
 BYTE   N92  Dn1
 BYTE   W96
//  #02 //061   ----------------------------------------
 BYTE   PATT
  POIN2 Label_014B17F1
//  #02 //062   ----------------------------------------
 BYTE   TIE  En1  v100
 BYTE   W96
//  #02 //063   ----------------------------------------
 BYTE   W92
 BYTE   W03
 BYTE   EOT
 BYTE   W01
//  #02 //064   ----------------------------------------
 BYTE   TIE  Dn1
 BYTE   W96
//  #02 //065   ----------------------------------------
 BYTE   W92
 BYTE   W03
 BYTE   EOT
 BYTE   W01
//  #02 //066   ----------------------------------------
 BYTE   TIE  Cn1
 BYTE   W96
//  #02 //067   ----------------------------------------
 BYTE   W92
 BYTE   W03
 BYTE   EOT
 BYTE   W01
//  #02 //068   ----------------------------------------
 BYTE   N92  Dn1
 BYTE   W96
//  #02 //069   ----------------------------------------
 BYTE   Ds1
 BYTE   W96
//  #02 //070   ----------------------------------------
 BYTE   TIE  En1
 BYTE   W96
//  #02 //071   ----------------------------------------
 BYTE   W92
 BYTE   W03
 BYTE   EOT
 BYTE   W01
//  #02 //072   ----------------------------------------
 BYTE   TIE  Dn1
 BYTE   W96
//  #02 //073   ----------------------------------------
 BYTE   W92
 BYTE   W03
 BYTE   EOT
 BYTE   W01
//  #02 //074   ----------------------------------------
 BYTE   TIE  Cn1
 BYTE   W96
//  #02 //075   ----------------------------------------
 BYTE   W92
 BYTE   W03
 BYTE   EOT
 BYTE   W01
//  #02 //076   ----------------------------------------
 BYTE   N92  Dn1
 BYTE   W96
//  #02 //077   ----------------------------------------
 BYTE   PATT
  POIN2 Label_014B17F1
//  #02 //078   ----------------------------------------
 BYTE   TIE  En1  v100
 BYTE   W96
//  #02 //079   ----------------------------------------
 BYTE   W92
 BYTE   W03
 BYTE   EOT
 BYTE   W01
//  #02 //080   ----------------------------------------
 BYTE   TIE  Dn1
 BYTE   W96
//  #02 //081   ----------------------------------------
 BYTE   W92
 BYTE   W03
 BYTE   EOT
 BYTE   W01
//  #02 //082   ----------------------------------------
 BYTE   TIE  Cn1
 BYTE   W96
//  #02 //083   ----------------------------------------
 BYTE   W92
 BYTE   W03
 BYTE   EOT
 BYTE   W01
//  #02 //084   ----------------------------------------
 BYTE   N92  Dn1
 BYTE   W96
//  #02 //085   ----------------------------------------
 BYTE   Ds1
 BYTE   W96
//  #02 //086   ----------------------------------------
 BYTE   GoTo
  POIN2 Label_014B17BE
 BYTE   FINE

//**************** Track 3 (Midi-Chn.2) ****************//

EscapeSong_003:
//  #03 //000   ----------------------------------------
 BYTE   KEYSH   EscapeSong_key+0
Label_014B106A:
 BYTE   VOICE   68
 BYTE   PAN   c_v-22
 BYTE   VOL   26*EscapeSong_mvl/mxv
 BYTE   BEND   c_v+0
 BYTE   W96
//  #03 //001   ----------------------------------------
 BYTE   W96
//  #03 //002   ----------------------------------------
 BYTE   W96
//  #03 //003   ----------------------------------------
 BYTE   W96
//  #03 //004   ----------------------------------------
 BYTE   W96
//  #03 //005   ----------------------------------------
 BYTE   W96
//  #03 //006   ----------------------------------------
 BYTE   W96
//  #03 //007   ----------------------------------------
 BYTE   W96
//  #03 //008   ----------------------------------------
 BYTE   W96
//  #03 //009   ----------------------------------------
 BYTE   W96
//  #03 //010   ----------------------------------------
 BYTE   W96
//  #03 //011   ----------------------------------------
 BYTE   W96
//  #03 //012   ----------------------------------------
 BYTE   W96
//  #03 //013   ----------------------------------------
 BYTE   W96
//  #03 //014   ----------------------------------------
 BYTE   W96
//  #03 //015   ----------------------------------------
 BYTE   W96
//  #03 //016   ----------------------------------------
 BYTE   W96
//  #03 //017   ----------------------------------------
 BYTE   W96
//  #03 //018   ----------------------------------------
 BYTE   W96
//  #03 //019   ----------------------------------------
 BYTE   W96
//  #03 //020   ----------------------------------------
 BYTE   W96
//  #03 //021   ----------------------------------------
 BYTE   W96
//  #03 //022   ----------------------------------------
 BYTE   W24
 BYTE   N92  Bn3  v100
 BYTE   W72
//  #03 //023   ----------------------------------------
 BYTE   W24
 BYTE   N23
 BYTE   W24
 BYTE   An3
 BYTE   W24
 BYTE   Gn3
 BYTE   W24
//  #03 //024   ----------------------------------------
 BYTE   N92
 BYTE   W96
//  #03 //025   ----------------------------------------
 BYTE   N11
 BYTE   W12
 BYTE   An3
 BYTE   W12
 BYTE   Gn3
 BYTE   W12
 BYTE   Fs3
 BYTE   W12
 BYTE   Gn3
 BYTE   W12
 BYTE   Fs3
 BYTE   W12
 BYTE   En3
 BYTE   W12
 BYTE   Gn3
 BYTE   W12
//  #03 //026   ----------------------------------------
 BYTE   N23  An3
 BYTE   W24
 BYTE   Gn3
 BYTE   W24
 BYTE   Fs3
 BYTE   W24
 BYTE   Dn3
 BYTE   W24
//  #03 //027   ----------------------------------------
Label_014B10AF:
 BYTE   N23  An3  v100
 BYTE   W24
 BYTE   Bn3
 BYTE   W24
 BYTE   Dn4
 BYTE   W24
 BYTE   Bn3
 BYTE   W24
 BYTE   PEND 
//  #03 //028   ----------------------------------------
 BYTE   N92  En4
 BYTE   W96
//  #03 //029   ----------------------------------------
 BYTE   N05  Gn4
 BYTE   W06
 BYTE   En4
 BYTE   W06
 BYTE   Dn4
 BYTE   W06
 BYTE   Bn3
 BYTE   W06
 BYTE   En4
 BYTE   W06
 BYTE   Dn4
 BYTE   W06
 BYTE   Bn3
 BYTE   W06
 BYTE   An3
 BYTE   W06
 BYTE   Fs4
 BYTE   W06
 BYTE   En4
 BYTE   W06
 BYTE   Cs4
 BYTE   W06
 BYTE   Bn3
 BYTE   W06
 BYTE   En4
 BYTE   W06
 BYTE   Cs4
 BYTE   W06
 BYTE   Bn3
 BYTE   W06
 BYTE   An3
 BYTE   W06
//  #03 //030   ----------------------------------------
 BYTE   Bn3
 BYTE   W06
 BYTE   N11  En4
 BYTE   W12
 BYTE   N05  Bn3
 BYTE   W06
 BYTE   N11  En4
 BYTE   W12
 BYTE   N05  Bn3
 BYTE   W06
 BYTE   N76  En4
 BYTE   W54
//  #03 //031   ----------------------------------------
 BYTE   W24
 BYTE   N05  Gn4
 BYTE   W06
 BYTE   Fs4
 BYTE   W06
 BYTE   Gn4
 BYTE   W06
 BYTE   En4
 BYTE   W06
 BYTE   Fs4
 BYTE   W06
 BYTE   En4
 BYTE   W06
 BYTE   Fs4
 BYTE   W06
 BYTE   Dn4
 BYTE   W06
 BYTE   En4
 BYTE   W06
 BYTE   Dn4
 BYTE   W06
 BYTE   En4
 BYTE   W06
 BYTE   Bn3
 BYTE   W06
//  #03 //032   ----------------------------------------
 BYTE   N11  Dn4
 BYTE   W12
 BYTE   En4
 BYTE   W12
 BYTE   N92  Fs4
 BYTE   W72
//  #03 //033   ----------------------------------------
 BYTE   W24
 BYTE   N23  Gn4
 BYTE   W24
 BYTE   An4
 BYTE   W24
 BYTE   Bn4
 BYTE   W24
//  #03 //034   ----------------------------------------
 BYTE   An4
 BYTE   W24
 BYTE   N11  Gn4
 BYTE   W12
 BYTE   Fs4
 BYTE   W12
 BYTE   N23  Gn4
 BYTE   W24
 BYTE   N11  Fs4
 BYTE   W12
 BYTE   En4
 BYTE   W12
//  #03 //035   ----------------------------------------
 BYTE   N05  Fs4
 BYTE   W06
 BYTE   Gn4
 BYTE   W06
 BYTE   Fs4
 BYTE   W06
 BYTE   Gn4
 BYTE   W06
 BYTE   Fs4
 BYTE   W06
 BYTE   En4
 BYTE   W06
 BYTE   Dn4
 BYTE   W06
 BYTE   Bn3
 BYTE   W06
 BYTE   Fs4
 BYTE   W06
 BYTE   Gn4
 BYTE   W06
 BYTE   Fs4
 BYTE   W06
 BYTE   Gn4
 BYTE   W06
 BYTE   An4
 BYTE   W06
 BYTE   Bn4
 BYTE   W06
 BYTE   Dn5
 BYTE   W06
 BYTE   Cn5
 BYTE   W06
//  #03 //036   ----------------------------------------
 BYTE   N44  Bn4
 BYTE   W48
 BYTE   N11
 BYTE   W12
 BYTE   An4
 BYTE   W12
 BYTE   N05  Bn4
 BYTE   W06
 BYTE   Cn5
 BYTE   W06
 BYTE   Bn4
 BYTE   W06
 BYTE   Cn5
 BYTE   W06
//  #03 //037   ----------------------------------------
 BYTE   Bn4
 BYTE   W06
 BYTE   An4
 BYTE   W06
 BYTE   Gn4
 BYTE   W06
 BYTE   Fs4
 BYTE   W06
 BYTE   An4
 BYTE   W06
 BYTE   Gn4
 BYTE   W06
 BYTE   Fs4
 BYTE   W06
 BYTE   En4
 BYTE   W06
 BYTE   Gn4
 BYTE   W06
 BYTE   Fs4
 BYTE   W06
 BYTE   En4
 BYTE   W06
 BYTE   Dn4
 BYTE   W06
 BYTE   Fs4
 BYTE   W06
 BYTE   En4
 BYTE   W06
 BYTE   Dn4
 BYTE   W06
 BYTE   Bn3
 BYTE   W06
//  #03 //038   ----------------------------------------
 BYTE   W96
//  #03 //039   ----------------------------------------
 BYTE   W96
//  #03 //040   ----------------------------------------
 BYTE   W96
//  #03 //041   ----------------------------------------
 BYTE   W96
//  #03 //042   ----------------------------------------
 BYTE   W96
//  #03 //043   ----------------------------------------
 BYTE   W96
//  #03 //044   ----------------------------------------
 BYTE   W96
//  #03 //045   ----------------------------------------
 BYTE   W96
//  #03 //046   ----------------------------------------
Label_014B1181:
 BYTE   N23  En4  v100
 BYTE   W24
 BYTE   Ds4
 BYTE   W24
 BYTE   En4
 BYTE   W24
 BYTE   An4
 BYTE   W24
 BYTE   PEND 
//  #03 //047   ----------------------------------------
Label_014B118C:
 BYTE   N23  Gn4  v100
 BYTE   W24
 BYTE   Fs4
 BYTE   W24
 BYTE   Gn4
 BYTE   W24
 BYTE   An4
 BYTE   W24
 BYTE   PEND 
//  #03 //048   ----------------------------------------
Label_014B1197:
 BYTE   N05  Fs4  v100
 BYTE   W06
 BYTE   Dn4
 BYTE   W06
 BYTE   N80  Bn3
 BYTE   W84
 BYTE   PEND 
//  #03 //049   ----------------------------------------
 BYTE   PATT
  POIN2 Label_014B10AF
//  #03 //050   ----------------------------------------
Label_014B11A6:
 BYTE   N44  En4  v100
 BYTE   W48
 BYTE   N23  Fs4
 BYTE   W24
 BYTE   En4
 BYTE   W24
 BYTE   PEND 
//  #03 //051   ----------------------------------------
Label_014B11B0:
 BYTE   N23  Gn4  v100
 BYTE   W24
 BYTE   Fs4
 BYTE   W24
 BYTE   An4
 BYTE   W24
 BYTE   Bn4
 BYTE   W24
 BYTE   PEND 
//  #03 //052   ----------------------------------------
 BYTE   N92  Dn5
 BYTE   W96
//  #03 //053   ----------------------------------------
 BYTE   Ds5
 BYTE   W96
//  #03 //054   ----------------------------------------
 BYTE   N11  En4
 BYTE   W96
//  #03 //055   ----------------------------------------
 BYTE   W96
//  #03 //056   ----------------------------------------
 BYTE   W96
//  #03 //057   ----------------------------------------
 BYTE   W96
//  #03 //058   ----------------------------------------
 BYTE   W96
//  #03 //059   ----------------------------------------
 BYTE   W96
//  #03 //060   ----------------------------------------
 BYTE   W96
//  #03 //061   ----------------------------------------
 BYTE   W96
//  #03 //062   ----------------------------------------
 BYTE   W96
//  #03 //063   ----------------------------------------
 BYTE   W96
//  #03 //064   ----------------------------------------
 BYTE   W96
//  #03 //065   ----------------------------------------
 BYTE   W96
//  #03 //066   ----------------------------------------
 BYTE   W96
//  #03 //067   ----------------------------------------
 BYTE   W96
//  #03 //068   ----------------------------------------
 BYTE   W96
//  #03 //069   ----------------------------------------
 BYTE   W96
//  #03 //070   ----------------------------------------
 BYTE   W96
//  #03 //071   ----------------------------------------
 BYTE   W96
//  #03 //072   ----------------------------------------
 BYTE   W96
//  #03 //073   ----------------------------------------
 BYTE   W96
//  #03 //074   ----------------------------------------
 BYTE   W96
//  #03 //075   ----------------------------------------
 BYTE   W96
//  #03 //076   ----------------------------------------
 BYTE   W96
//  #03 //077   ----------------------------------------
 BYTE   W96
//  #03 //078   ----------------------------------------
 BYTE   PATT
  POIN2 Label_014B1181
//  #03 //079   ----------------------------------------
 BYTE   PATT
  POIN2 Label_014B118C
//  #03 //080   ----------------------------------------
 BYTE   PATT
  POIN2 Label_014B1197
//  #03 //081   ----------------------------------------
 BYTE   PATT
  POIN2 Label_014B10AF
//  #03 //082   ----------------------------------------
 BYTE   PATT
  POIN2 Label_014B11A6
//  #03 //083   ----------------------------------------
 BYTE   PATT
  POIN2 Label_014B11B0
//  #03 //084   ----------------------------------------
 BYTE   N92  Dn5  v100
 BYTE   W96
//  #03 //085   ----------------------------------------
 BYTE   Ds5
 BYTE   W96
//  #03 //086   ----------------------------------------
 BYTE   GoTo
  POIN2 Label_014B106A
 BYTE   FINE

//**************** Track 4 (Midi-Chn.3) ****************//

EscapeSong_004:
//  #04 //000   ----------------------------------------
 BYTE   KEYSH   EscapeSong_key+0
Label_014B1F0A:
 BYTE   VOICE   2
 BYTE   PAN   c_v+21
 BYTE   VOL   28*EscapeSong_mvl/mxv
 BYTE   BEND   c_v+0
 BYTE   W96
//  #04 //001   ----------------------------------------
 BYTE   W96
//  #04 //002   ----------------------------------------
 BYTE   W96
//  #04 //003   ----------------------------------------
 BYTE   W96
//  #04 //004   ----------------------------------------
 BYTE   W96
//  #04 //005   ----------------------------------------
 BYTE   W96
//  #04 //006   ----------------------------------------
Label_014B1F18:
 BYTE   N23  En3  v100
 BYTE   W24
 BYTE   Ds3
 BYTE   W24
 BYTE   En3
 BYTE   W24
 BYTE   An3
 BYTE   W24
 BYTE   PEND 
//  #04 //007   ----------------------------------------
Label_014B1F23:
 BYTE   N23  Gn3  v100
 BYTE   W24
 BYTE   Fs3
 BYTE   W24
 BYTE   Gn3
 BYTE   W24
 BYTE   An3
 BYTE   W24
 BYTE   PEND 
//  #04 //008   ----------------------------------------
 BYTE   TIE  Fs3
 BYTE   W96
//  #04 //009   ----------------------------------------
 BYTE   W23
 BYTE   EOT
 BYTE   W01
 BYTE   N23  Gn3
 BYTE   W24
 BYTE   N05  Fs3
 BYTE   W06
 BYTE   Gn3
 BYTE   W06
 BYTE   Fs3
 BYTE   W06
 BYTE   Gn3
 BYTE   W06
 BYTE   Fs3
 BYTE   W06
 BYTE   En3
 BYTE   W06
 BYTE   Dn3
 BYTE   W06
 BYTE   Bn2
 BYTE   W06
//  #04 //010   ----------------------------------------
Label_014B1F48:
 BYTE   N05  An2  v100
 BYTE   W06
 BYTE   Dn3
 BYTE   W06
 BYTE   N11  En3
 BYTE   W12
 BYTE   N05  Dn3
 BYTE   W06
 BYTE   N11  En3
 BYTE   W12
 BYTE   N05  Dn3
 BYTE   W06
 BYTE   N68  En3
 BYTE   W48
 BYTE   PEND 
//  #04 //011   ----------------------------------------
Label_014B1F5E:
 BYTE   W24
 BYTE   N23  Fs3  v100
 BYTE   W24
 BYTE   Gn3
 BYTE   W24
 BYTE   An3
 BYTE   W24
 BYTE   PEND 
//  #04 //012   ----------------------------------------
Label_014B1F68:
 BYTE   N05  Fs3  v100
 BYTE   W06
 BYTE   Gn3
 BYTE   W06
 BYTE   N56  Fs3
 BYTE   W60
 BYTE   N23  Gn3
 BYTE   W24
 BYTE   PEND 
//  #04 //013   ----------------------------------------
Label_014B1F75:
 BYTE   N11  An3  v100
 BYTE   W12
 BYTE   Bn3
 BYTE   W12
 BYTE   An3
 BYTE   W12
 BYTE   Gn3
 BYTE   W12
 BYTE   An3
 BYTE   W12
 BYTE   Bn3
 BYTE   W12
 BYTE   Gn3
 BYTE   W12
 BYTE   Fs3
 BYTE   W12
 BYTE   PEND 
//  #04 //014   ----------------------------------------
 BYTE   PATT
  POIN2 Label_014B1F18
//  #04 //015   ----------------------------------------
 BYTE   PATT
  POIN2 Label_014B1F23
//  #04 //016   ----------------------------------------
Label_014B1F92:
 BYTE   N05  Fs3  v100
 BYTE   W06
 BYTE   Dn3
 BYTE   W06
 BYTE   N80  Bn2
 BYTE   W84
 BYTE   PEND 
//  #04 //017   ----------------------------------------
Label_014B1F9C:
 BYTE   N23  An2  v100
 BYTE   W24
 BYTE   Bn2
 BYTE   W24
 BYTE   Dn3
 BYTE   W24
 BYTE   Bn2
 BYTE   W24
 BYTE   PEND 
//  #04 //018   ----------------------------------------
Label_014B1FA7:
 BYTE   N44  En3  v100
 BYTE   W48
 BYTE   N23  Fs3
 BYTE   W24
 BYTE   En3
 BYTE   W24
 BYTE   PEND 
//  #04 //019   ----------------------------------------
Label_014B1FB1:
 BYTE   N23  Gn3  v100
 BYTE   W24
 BYTE   Fs3
 BYTE   W24
 BYTE   An3
 BYTE   W24
 BYTE   Bn3
 BYTE   W24
 BYTE   PEND 
//  #04 //020   ----------------------------------------
 BYTE   N92  Dn4
 BYTE   W96
//  #04 //021   ----------------------------------------
 BYTE   Ds4
 BYTE   W96
//  #04 //022   ----------------------------------------
 BYTE   N11  En4
 BYTE   W96
//  #04 //023   ----------------------------------------
 BYTE   W96
//  #04 //024   ----------------------------------------
 BYTE   W96
//  #04 //025   ----------------------------------------
 BYTE   W96
//  #04 //026   ----------------------------------------
 BYTE   W96
//  #04 //027   ----------------------------------------
 BYTE   W96
//  #04 //028   ----------------------------------------
 BYTE   W96
//  #04 //029   ----------------------------------------
 BYTE   W96
//  #04 //030   ----------------------------------------
 BYTE   N05  Bn2
 BYTE   W06
 BYTE   N11  En3
 BYTE   W12
 BYTE   N05  Bn2
 BYTE   W06
 BYTE   N11  En3
 BYTE   W12
 BYTE   N05  Bn2
 BYTE   W06
 BYTE   N76  En3
 BYTE   W54
//  #04 //031   ----------------------------------------
 BYTE   W24
 BYTE   N05  Gn3
 BYTE   W06
 BYTE   Fs3
 BYTE   W06
 BYTE   Gn3
 BYTE   W06
 BYTE   En3
 BYTE   W06
 BYTE   Fs3
 BYTE   W06
 BYTE   En3
 BYTE   W06
 BYTE   Fs3
 BYTE   W06
 BYTE   Dn3
 BYTE   W06
 BYTE   En3
 BYTE   W06
 BYTE   Dn3
 BYTE   W06
 BYTE   En3
 BYTE   W06
 BYTE   Bn2
 BYTE   W06
//  #04 //032   ----------------------------------------
 BYTE   N11  Dn3
 BYTE   W12
 BYTE   En3
 BYTE   W12
 BYTE   N92  Fs3
 BYTE   W72
//  #04 //033   ----------------------------------------
 BYTE   W24
 BYTE   N23  Gn3
 BYTE   W24
 BYTE   An3
 BYTE   W24
 BYTE   Bn3
 BYTE   W24
//  #04 //034   ----------------------------------------
 BYTE   An3
 BYTE   W24
 BYTE   N11  Gn3
 BYTE   W12
 BYTE   Fs3
 BYTE   W12
 BYTE   N23  Gn3
 BYTE   W24
 BYTE   N11  Fs3
 BYTE   W12
 BYTE   En3
 BYTE   W12
//  #04 //035   ----------------------------------------
 BYTE   N05  Fs3
 BYTE   W06
 BYTE   Gn3
 BYTE   W06
 BYTE   Fs3
 BYTE   W06
 BYTE   Gn3
 BYTE   W06
 BYTE   Fs3
 BYTE   W06
 BYTE   En3
 BYTE   W06
 BYTE   Dn3
 BYTE   W06
 BYTE   Bn2
 BYTE   W06
 BYTE   Fs3
 BYTE   W06
 BYTE   Gn3
 BYTE   W06
 BYTE   Fs3
 BYTE   W06
 BYTE   Gn3
 BYTE   W06
 BYTE   An3
 BYTE   W06
 BYTE   Bn3
 BYTE   W06
 BYTE   Dn4
 BYTE   W06
 BYTE   Cn4
 BYTE   W06
//  #04 //036   ----------------------------------------
 BYTE   N44  Bn3
 BYTE   W48
 BYTE   N11
 BYTE   W12
 BYTE   An3
 BYTE   W12
 BYTE   N05  Bn3
 BYTE   W06
 BYTE   Cn4
 BYTE   W06
 BYTE   Bn3
 BYTE   W06
 BYTE   Cn4
 BYTE   W06
//  #04 //037   ----------------------------------------
 BYTE   Bn3
 BYTE   W06
 BYTE   An3
 BYTE   W06
 BYTE   Gn3
 BYTE   W06
 BYTE   Fs3
 BYTE   W06
 BYTE   En3
 BYTE   W06
 BYTE   Dn3
 BYTE   W06
 BYTE   Cn3
 BYTE   W06
 BYTE   Bn2
 BYTE   W06
 BYTE   Cn3
 BYTE   W06
 BYTE   Dn3
 BYTE   W06
 BYTE   Cn3
 BYTE   W06
 BYTE   Dn3
 BYTE   W06
 BYTE   En3
 BYTE   W06
 BYTE   Dn3
 BYTE   W06
 BYTE   En3
 BYTE   W06
 BYTE   Fs3
 BYTE   W06
//  #04 //038   ----------------------------------------
 BYTE   PATT
  POIN2 Label_014B1F18
//  #04 //039   ----------------------------------------
 BYTE   PATT
  POIN2 Label_014B1F23
//  #04 //040   ----------------------------------------
 BYTE   TIE  Fs3  v100
 BYTE   W96
//  #04 //041   ----------------------------------------
 BYTE   W23
 BYTE   EOT
 BYTE   W01
 BYTE   N23  Gn3
 BYTE   W24
 BYTE   N05  Fs3
 BYTE   W06
 BYTE   Gn3
 BYTE   W06
 BYTE   Fs3
 BYTE   W06
 BYTE   Gn3
 BYTE   W06
 BYTE   Fs3
 BYTE   W06
 BYTE   En3
 BYTE   W06
 BYTE   Dn3
 BYTE   W06
 BYTE   Bn2
 BYTE   W06
//  #04 //042   ----------------------------------------
 BYTE   PATT
  POIN2 Label_014B1F48
//  #04 //043   ----------------------------------------
 BYTE   PATT
  POIN2 Label_014B1F5E
//  #04 //044   ----------------------------------------
 BYTE   PATT
  POIN2 Label_014B1F68
//  #04 //045   ----------------------------------------
 BYTE   PATT
  POIN2 Label_014B1F75
//  #04 //046   ----------------------------------------
 BYTE   PATT
  POIN2 Label_014B1F18
//  #04 //047   ----------------------------------------
 BYTE   PATT
  POIN2 Label_014B1F23
//  #04 //048   ----------------------------------------
 BYTE   PATT
  POIN2 Label_014B1F92
//  #04 //049   ----------------------------------------
 BYTE   PATT
  POIN2 Label_014B1F9C
//  #04 //050   ----------------------------------------
 BYTE   PATT
  POIN2 Label_014B1FA7
//  #04 //051   ----------------------------------------
 BYTE   PATT
  POIN2 Label_014B1FB1
//  #04 //052   ----------------------------------------
 BYTE   N92  Dn4  v100
 BYTE   W96
//  #04 //053   ----------------------------------------
 BYTE   Ds4
 BYTE   W96
//  #04 //054   ----------------------------------------
 BYTE   N11  En4
 BYTE   W96
//  #04 //055   ----------------------------------------
 BYTE   W96
//  #04 //056   ----------------------------------------
 BYTE   W96
//  #04 //057   ----------------------------------------
 BYTE   W96
//  #04 //058   ----------------------------------------
 BYTE   W96
//  #04 //059   ----------------------------------------
 BYTE   W96
//  #04 //060   ----------------------------------------
 BYTE   W96
//  #04 //061   ----------------------------------------
 BYTE   W96
//  #04 //062   ----------------------------------------
 BYTE   W96
//  #04 //063   ----------------------------------------
 BYTE   W96
//  #04 //064   ----------------------------------------
 BYTE   W96
//  #04 //065   ----------------------------------------
 BYTE   W96
//  #04 //066   ----------------------------------------
 BYTE   W96
//  #04 //067   ----------------------------------------
 BYTE   W96
//  #04 //068   ----------------------------------------
 BYTE   W96
//  #04 //069   ----------------------------------------
 BYTE   W96
//  #04 //070   ----------------------------------------
 BYTE   W96
//  #04 //071   ----------------------------------------
 BYTE   W96
//  #04 //072   ----------------------------------------
 BYTE   W96
//  #04 //073   ----------------------------------------
 BYTE   W96
//  #04 //074   ----------------------------------------
 BYTE   W96
//  #04 //075   ----------------------------------------
 BYTE   W96
//  #04 //076   ----------------------------------------
 BYTE   W96
//  #04 //077   ----------------------------------------
 BYTE   W96
//  #04 //078   ----------------------------------------
 BYTE   PATT
  POIN2 Label_014B1F18
//  #04 //079   ----------------------------------------
 BYTE   PATT
  POIN2 Label_014B1F23
//  #04 //080   ----------------------------------------
 BYTE   PATT
  POIN2 Label_014B1F92
//  #04 //081   ----------------------------------------
 BYTE   PATT
  POIN2 Label_014B1F9C
//  #04 //082   ----------------------------------------
 BYTE   PATT
  POIN2 Label_014B1FA7
//  #04 //083   ----------------------------------------
 BYTE   PATT
  POIN2 Label_014B1FB1
//  #04 //084   ----------------------------------------
 BYTE   N92  Dn4  v100
 BYTE   W96
//  #04 //085   ----------------------------------------
 BYTE   Ds4
 BYTE   W96
//  #04 //086   ----------------------------------------
 BYTE   GoTo
  POIN2 Label_014B1F0A
 BYTE   FINE

//**************** Track 5 (Midi-Chn.4) ****************//

EscapeSong_005:
//  #05 //000   ----------------------------------------
 BYTE   KEYSH   EscapeSong_key+0
Label_014B1C56:
 BYTE   VOICE   11
 BYTE   PAN   c_v-48
 BYTE   VOL   19*EscapeSong_mvl/mxv
 BYTE   BEND   c_v+0
 BYTE   W96
//  #05 //001   ----------------------------------------
 BYTE   W96
//  #05 //002   ----------------------------------------
 BYTE   W96
//  #05 //003   ----------------------------------------
 BYTE   W96
//  #05 //004   ----------------------------------------
 BYTE   W96
//  #05 //005   ----------------------------------------
 BYTE   W96
//  #05 //006   ----------------------------------------
 BYTE   W96
//  #05 //007   ----------------------------------------
 BYTE   W96
//  #05 //008   ----------------------------------------
 BYTE   W96
//  #05 //009   ----------------------------------------
 BYTE   W96
//  #05 //010   ----------------------------------------
 BYTE   W96
//  #05 //011   ----------------------------------------
 BYTE   W96
//  #05 //012   ----------------------------------------
 BYTE   W96
//  #05 //013   ----------------------------------------
 BYTE   W96
//  #05 //014   ----------------------------------------
 BYTE   W96
//  #05 //015   ----------------------------------------
 BYTE   W96
//  #05 //016   ----------------------------------------
 BYTE   W96
//  #05 //017   ----------------------------------------
 BYTE   W96
//  #05 //018   ----------------------------------------
 BYTE   W96
//  #05 //019   ----------------------------------------
 BYTE   W96
//  #05 //020   ----------------------------------------
 BYTE   W96
//  #05 //021   ----------------------------------------
 BYTE   W96
//  #05 //022   ----------------------------------------
 BYTE   W96
//  #05 //023   ----------------------------------------
 BYTE   W96
//  #05 //024   ----------------------------------------
 BYTE   W96
//  #05 //025   ----------------------------------------
 BYTE   W96
//  #05 //026   ----------------------------------------
 BYTE   W96
//  #05 //027   ----------------------------------------
 BYTE   W96
//  #05 //028   ----------------------------------------
 BYTE   W96
//  #05 //029   ----------------------------------------
 BYTE   W96
//  #05 //030   ----------------------------------------
 BYTE   W96
//  #05 //031   ----------------------------------------
 BYTE   W96
//  #05 //032   ----------------------------------------
 BYTE   W96
//  #05 //033   ----------------------------------------
 BYTE   W96
//  #05 //034   ----------------------------------------
 BYTE   W96
//  #05 //035   ----------------------------------------
 BYTE   W96
//  #05 //036   ----------------------------------------
 BYTE   W96
//  #05 //037   ----------------------------------------
 BYTE   W96
//  #05 //038   ----------------------------------------
 BYTE   W96
//  #05 //039   ----------------------------------------
 BYTE   W96
//  #05 //040   ----------------------------------------
 BYTE   W96
//  #05 //041   ----------------------------------------
 BYTE   W96
//  #05 //042   ----------------------------------------
 BYTE   W96
//  #05 //043   ----------------------------------------
 BYTE   W96
//  #05 //044   ----------------------------------------
 BYTE   W96
//  #05 //045   ----------------------------------------
 BYTE   W96
//  #05 //046   ----------------------------------------
 BYTE   W96
//  #05 //047   ----------------------------------------
 BYTE   W96
//  #05 //048   ----------------------------------------
 BYTE   W96
//  #05 //049   ----------------------------------------
 BYTE   W96
//  #05 //050   ----------------------------------------
 BYTE   W96
//  #05 //051   ----------------------------------------
 BYTE   W96
//  #05 //052   ----------------------------------------
 BYTE   W96
//  #05 //053   ----------------------------------------
 BYTE   W96
//  #05 //054   ----------------------------------------
 BYTE   W96
//  #05 //055   ----------------------------------------
 BYTE   W96
//  #05 //056   ----------------------------------------
 BYTE   W96
//  #05 //057   ----------------------------------------
 BYTE   W96
//  #05 //058   ----------------------------------------
 BYTE   W96
//  #05 //059   ----------------------------------------
 BYTE   W96
//  #05 //060   ----------------------------------------
 BYTE   W96
//  #05 //061   ----------------------------------------
 BYTE   W96
//  #05 //062   ----------------------------------------
 BYTE   W96
//  #05 //063   ----------------------------------------
 BYTE   W96
//  #05 //064   ----------------------------------------
 BYTE   W96
//  #05 //065   ----------------------------------------
 BYTE   W96
//  #05 //066   ----------------------------------------
 BYTE   W96
//  #05 //067   ----------------------------------------
 BYTE   W96
//  #05 //068   ----------------------------------------
 BYTE   W96
//  #05 //069   ----------------------------------------
 BYTE   W96
//  #05 //070   ----------------------------------------
Label_014B1CA4:
 BYTE   N23  En4  v100
 BYTE   W24
 BYTE   N23
 BYTE   W36
 BYTE   N23
 BYTE   W36
 BYTE   PEND 
//  #05 //071   ----------------------------------------
 BYTE   PATT
  POIN2 Label_014B1CA4
//  #05 //072   ----------------------------------------
Label_014B1CB2:
 BYTE   N23  Dn4  v100
 BYTE   W24
 BYTE   N23
 BYTE   W36
 BYTE   N23
 BYTE   W36
 BYTE   PEND 
//  #05 //073   ----------------------------------------
 BYTE   PATT
  POIN2 Label_014B1CB2
//  #05 //074   ----------------------------------------
Label_014B1CC0:
 BYTE   N23  Cn4  v100
 BYTE   W24
 BYTE   N23
 BYTE   W36
 BYTE   N23
 BYTE   W36
 BYTE   PEND 
//  #05 //075   ----------------------------------------
 BYTE   PATT
  POIN2 Label_014B1CC0
//  #05 //076   ----------------------------------------
 BYTE   PATT
  POIN2 Label_014B1CB2
//  #05 //077   ----------------------------------------
 BYTE   N23  Gn4  v100
 BYTE   W24
 BYTE   N23
 BYTE   W36
 BYTE   Fs4
 BYTE   W36
//  #05 //078   ----------------------------------------
 BYTE   PATT
  POIN2 Label_014B1CA4
//  #05 //079   ----------------------------------------
 BYTE   PATT
  POIN2 Label_014B1CA4
//  #05 //080   ----------------------------------------
 BYTE   PATT
  POIN2 Label_014B1CB2
//  #05 //081   ----------------------------------------
 BYTE   PATT
  POIN2 Label_014B1CB2
//  #05 //082   ----------------------------------------
 BYTE   PATT
  POIN2 Label_014B1CC0
//  #05 //083   ----------------------------------------
 BYTE   PATT
  POIN2 Label_014B1CC0
//  #05 //084   ----------------------------------------
 BYTE   PATT
  POIN2 Label_014B1CB2
//  #05 //085   ----------------------------------------
 BYTE   N23  Ds4  v100
 BYTE   W24
 BYTE   N23
 BYTE   W36
 BYTE   N23
 BYTE   W36
//  #05 //086   ----------------------------------------
 BYTE   GoTo
  POIN2 Label_014B1C56
 BYTE   FINE

//**************** Track 6 (Midi-Chn.5) ****************//

EscapeSong_006:
//  #06 //000   ----------------------------------------
 BYTE   KEYSH   EscapeSong_key+0
Label_015261A2:
 BYTE   VOICE   75
 BYTE   PAN   c_v-11
 BYTE   VOL   25*EscapeSong_mvl/mxv
 BYTE   BEND   c_v+0
 BYTE   W96
//  #06 //001   ----------------------------------------
 BYTE   W96
//  #06 //002   ----------------------------------------
 BYTE   W96
//  #06 //003   ----------------------------------------
 BYTE   W96
//  #06 //004   ----------------------------------------
 BYTE   W96
//  #06 //005   ----------------------------------------
 BYTE   W96
//  #06 //006   ----------------------------------------
Label_015261B0:
 BYTE   N23  En3  v100
 BYTE   W24
 BYTE   Ds3
 BYTE   W24
 BYTE   En3
 BYTE   W24
 BYTE   An3
 BYTE   W24
 BYTE   PEND 
//  #06 //007   ----------------------------------------
Label_015261BB:
 BYTE   N23  Gn3  v100
 BYTE   W24
 BYTE   Fs3
 BYTE   W24
 BYTE   Gn3
 BYTE   W24
 BYTE   An3
 BYTE   W24
 BYTE   PEND 
//  #06 //008   ----------------------------------------
 BYTE   TIE  Fs3
 BYTE   W96
//  #06 //009   ----------------------------------------
 BYTE   W23
 BYTE   EOT
 BYTE   W01
 BYTE   N23  Gn3
 BYTE   W24
 BYTE   N05  Fs3
 BYTE   W06
 BYTE   Gn3
 BYTE   W06
 BYTE   Fs3
 BYTE   W06
 BYTE   Gn3
 BYTE   W06
 BYTE   Fs3
 BYTE   W06
 BYTE   En3
 BYTE   W06
 BYTE   Dn3
 BYTE   W06
 BYTE   Bn2
 BYTE   W06
//  #06 //010   ----------------------------------------
Label_015261E0:
 BYTE   N05  An2  v100
 BYTE   W06
 BYTE   Dn3
 BYTE   W06
 BYTE   N11  En3
 BYTE   W12
 BYTE   N05  Dn3
 BYTE   W06
 BYTE   N11  En3
 BYTE   W12
 BYTE   N05  Dn3
 BYTE   W06
 BYTE   N68  En3
 BYTE   W48
 BYTE   PEND 
//  #06 //011   ----------------------------------------
Label_015261F6:
 BYTE   W24
 BYTE   N23  Fs3  v100
 BYTE   W24
 BYTE   Gn3
 BYTE   W24
 BYTE   An3
 BYTE   W24
 BYTE   PEND 
//  #06 //012   ----------------------------------------
Label_01526200:
 BYTE   N05  Fs3  v100
 BYTE   W06
 BYTE   Gn3
 BYTE   W06
 BYTE   N56  Fs3
 BYTE   W60
 BYTE   N23  Gn3
 BYTE   W24
 BYTE   PEND 
//  #06 //013   ----------------------------------------
Label_0152620D:
 BYTE   N11  An3  v100
 BYTE   W12
 BYTE   Bn3
 BYTE   W12
 BYTE   An3
 BYTE   W12
 BYTE   Gn3
 BYTE   W12
 BYTE   An3
 BYTE   W12
 BYTE   Bn3
 BYTE   W12
 BYTE   Gn3
 BYTE   W12
 BYTE   Fs3
 BYTE   W12
 BYTE   PEND 
//  #06 //014   ----------------------------------------
 BYTE   PATT
  POIN2 Label_015261B0
//  #06 //015   ----------------------------------------
 BYTE   PATT
  POIN2 Label_015261BB
//  #06 //016   ----------------------------------------
Label_0152622A:
 BYTE   N05  Fs3  v100
 BYTE   W06
 BYTE   Dn3
 BYTE   W06
 BYTE   N80  Bn2
 BYTE   W84
 BYTE   PEND 
//  #06 //017   ----------------------------------------
Label_01526234:
 BYTE   N23  An2  v100
 BYTE   W24
 BYTE   Bn2
 BYTE   W24
 BYTE   Dn3
 BYTE   W24
 BYTE   Bn2
 BYTE   W24
 BYTE   PEND 
//  #06 //018   ----------------------------------------
Label_0152623F:
 BYTE   N44  En3  v100
 BYTE   W48
 BYTE   N23  Fs3
 BYTE   W24
 BYTE   En3
 BYTE   W24
 BYTE   PEND 
//  #06 //019   ----------------------------------------
Label_01526249:
 BYTE   N23  Gn3  v100
 BYTE   W24
 BYTE   Fs3
 BYTE   W24
 BYTE   An3
 BYTE   W24
 BYTE   Bn3
 BYTE   W24
 BYTE   PEND 
//  #06 //020   ----------------------------------------
 BYTE   N92  Dn4
 BYTE   W96
//  #06 //021   ----------------------------------------
 BYTE   Ds4
 BYTE   W96
//  #06 //022   ----------------------------------------
 BYTE   N11  En4
 BYTE   W96
//  #06 //023   ----------------------------------------
 BYTE   W96
//  #06 //024   ----------------------------------------
 BYTE   W96
//  #06 //025   ----------------------------------------
 BYTE   W96
//  #06 //026   ----------------------------------------
 BYTE   W96
//  #06 //027   ----------------------------------------
 BYTE   W96
//  #06 //028   ----------------------------------------
 BYTE   W96
//  #06 //029   ----------------------------------------
 BYTE   W96
//  #06 //030   ----------------------------------------
 BYTE   N05  Bn2
 BYTE   W06
 BYTE   N11  En3
 BYTE   W12
 BYTE   N05  Bn2
 BYTE   W06
 BYTE   N11  En3
 BYTE   W12
 BYTE   N05  Bn2
 BYTE   W06
 BYTE   N76  En3
 BYTE   W54
//  #06 //031   ----------------------------------------
 BYTE   W24
 BYTE   N05  Gn3
 BYTE   W06
 BYTE   Fs3
 BYTE   W06
 BYTE   Gn3
 BYTE   W06
 BYTE   En3
 BYTE   W06
 BYTE   Fs3
 BYTE   W06
 BYTE   En3
 BYTE   W06
 BYTE   Fs3
 BYTE   W06
 BYTE   Dn3
 BYTE   W06
 BYTE   En3
 BYTE   W06
 BYTE   Dn3
 BYTE   W06
 BYTE   En3
 BYTE   W06
 BYTE   Bn2
 BYTE   W06
//  #06 //032   ----------------------------------------
 BYTE   N11  Dn3
 BYTE   W12
 BYTE   En3
 BYTE   W12
 BYTE   N92  Fs3
 BYTE   W72
//  #06 //033   ----------------------------------------
 BYTE   W24
 BYTE   N23  Gn3
 BYTE   W24
 BYTE   An3
 BYTE   W24
 BYTE   Bn3
 BYTE   W24
//  #06 //034   ----------------------------------------
 BYTE   An3
 BYTE   W24
 BYTE   N11  Gn3
 BYTE   W12
 BYTE   Fs3
 BYTE   W12
 BYTE   N23  Gn3
 BYTE   W24
 BYTE   N11  Fs3
 BYTE   W12
 BYTE   En3
 BYTE   W12
//  #06 //035   ----------------------------------------
 BYTE   N05  Fs3
 BYTE   W06
 BYTE   Gn3
 BYTE   W06
 BYTE   Fs3
 BYTE   W06
 BYTE   Gn3
 BYTE   W06
 BYTE   Fs3
 BYTE   W06
 BYTE   En3
 BYTE   W06
 BYTE   Dn3
 BYTE   W06
 BYTE   Bn2
 BYTE   W06
 BYTE   Fs3
 BYTE   W06
 BYTE   Gn3
 BYTE   W06
 BYTE   Fs3
 BYTE   W06
 BYTE   Gn3
 BYTE   W06
 BYTE   An3
 BYTE   W06
 BYTE   Bn3
 BYTE   W06
 BYTE   Dn4
 BYTE   W06
 BYTE   Cn4
 BYTE   W06
//  #06 //036   ----------------------------------------
 BYTE   N44  Bn3
 BYTE   W48
 BYTE   N11
 BYTE   W12
 BYTE   An3
 BYTE   W12
 BYTE   N05  Bn3
 BYTE   W06
 BYTE   Cn4
 BYTE   W06
 BYTE   Bn3
 BYTE   W06
 BYTE   Cn4
 BYTE   W06
//  #06 //037   ----------------------------------------
 BYTE   Bn3
 BYTE   W06
 BYTE   An3
 BYTE   W06
 BYTE   Gn3
 BYTE   W06
 BYTE   Fs3
 BYTE   W06
 BYTE   En3
 BYTE   W06
 BYTE   Dn3
 BYTE   W06
 BYTE   Cn3
 BYTE   W06
 BYTE   Bn2
 BYTE   W06
 BYTE   Cn3
 BYTE   W06
 BYTE   Dn3
 BYTE   W06
 BYTE   Cn3
 BYTE   W06
 BYTE   Dn3
 BYTE   W06
 BYTE   En3
 BYTE   W06
 BYTE   Dn3
 BYTE   W06
 BYTE   En3
 BYTE   W06
 BYTE   Fs3
 BYTE   W06
//  #06 //038   ----------------------------------------
 BYTE   PATT
  POIN2 Label_015261B0
//  #06 //039   ----------------------------------------
 BYTE   PATT
  POIN2 Label_015261BB
//  #06 //040   ----------------------------------------
 BYTE   TIE  Fs3  v100
 BYTE   W96
//  #06 //041   ----------------------------------------
 BYTE   W23
 BYTE   EOT
 BYTE   W01
 BYTE   N23  Gn3
 BYTE   W24
 BYTE   N05  Fs3
 BYTE   W06
 BYTE   Gn3
 BYTE   W06
 BYTE   Fs3
 BYTE   W06
 BYTE   Gn3
 BYTE   W06
 BYTE   Fs3
 BYTE   W06
 BYTE   En3
 BYTE   W06
 BYTE   Dn3
 BYTE   W06
 BYTE   Bn2
 BYTE   W06
//  #06 //042   ----------------------------------------
 BYTE   PATT
  POIN2 Label_015261E0
//  #06 //043   ----------------------------------------
 BYTE   PATT
  POIN2 Label_015261F6
//  #06 //044   ----------------------------------------
 BYTE   PATT
  POIN2 Label_01526200
//  #06 //045   ----------------------------------------
 BYTE   PATT
  POIN2 Label_0152620D
//  #06 //046   ----------------------------------------
 BYTE   PATT
  POIN2 Label_015261B0
//  #06 //047   ----------------------------------------
 BYTE   PATT
  POIN2 Label_015261BB
//  #06 //048   ----------------------------------------
 BYTE   PATT
  POIN2 Label_0152622A
//  #06 //049   ----------------------------------------
 BYTE   PATT
  POIN2 Label_01526234
//  #06 //050   ----------------------------------------
 BYTE   PATT
  POIN2 Label_0152623F
//  #06 //051   ----------------------------------------
 BYTE   PATT
  POIN2 Label_01526249
//  #06 //052   ----------------------------------------
 BYTE   N92  Dn4  v100
 BYTE   W96
//  #06 //053   ----------------------------------------
 BYTE   Ds4
 BYTE   W96
//  #06 //054   ----------------------------------------
 BYTE   N11  En4
 BYTE   W96
//  #06 //055   ----------------------------------------
 BYTE   W96
//  #06 //056   ----------------------------------------
 BYTE   W96
//  #06 //057   ----------------------------------------
 BYTE   W96
//  #06 //058   ----------------------------------------
 BYTE   W96
//  #06 //059   ----------------------------------------
 BYTE   W96
//  #06 //060   ----------------------------------------
 BYTE   W96
//  #06 //061   ----------------------------------------
 BYTE   W96
//  #06 //062   ----------------------------------------
 BYTE   W96
//  #06 //063   ----------------------------------------
 BYTE   W96
//  #06 //064   ----------------------------------------
 BYTE   W96
//  #06 //065   ----------------------------------------
 BYTE   W96
//  #06 //066   ----------------------------------------
 BYTE   W96
//  #06 //067   ----------------------------------------
 BYTE   W96
//  #06 //068   ----------------------------------------
 BYTE   W96
//  #06 //069   ----------------------------------------
 BYTE   W96
//  #06 //070   ----------------------------------------
 BYTE   W96
//  #06 //071   ----------------------------------------
 BYTE   W96
//  #06 //072   ----------------------------------------
 BYTE   W96
//  #06 //073   ----------------------------------------
 BYTE   W96
//  #06 //074   ----------------------------------------
 BYTE   W96
//  #06 //075   ----------------------------------------
 BYTE   W96
//  #06 //076   ----------------------------------------
 BYTE   W96
//  #06 //077   ----------------------------------------
 BYTE   W96
//  #06 //078   ----------------------------------------
 BYTE   PATT
  POIN2 Label_015261B0
//  #06 //079   ----------------------------------------
 BYTE   PATT
  POIN2 Label_015261BB
//  #06 //080   ----------------------------------------
 BYTE   PATT
  POIN2 Label_0152622A
//  #06 //081   ----------------------------------------
 BYTE   PATT
  POIN2 Label_01526234
//  #06 //082   ----------------------------------------
 BYTE   PATT
  POIN2 Label_0152623F
//  #06 //083   ----------------------------------------
 BYTE   PATT
  POIN2 Label_01526249
//  #06 //084   ----------------------------------------
 BYTE   N92  Dn4  v100
 BYTE   W96
//  #06 //085   ----------------------------------------
 BYTE   Ds4
 BYTE   W96
//  #06 //086   ----------------------------------------
 BYTE   GoTo
  POIN2 Label_015261A2
 BYTE   FINE

//**************** Track 7 (Midi-Chn.6) ****************//

EscapeSong_007:
//  #07 //000   ----------------------------------------
 BYTE   KEYSH   EscapeSong_key+0
Label_015263A2:
 BYTE   VOICE   2
 BYTE   VOL   11*EscapeSong_mvl/mxv
 BYTE   PAN   c_v+12
 BYTE   BEND   c_v+0
 BYTE   W96
//  #07 //001   ----------------------------------------
 BYTE   W96
//  #07 //002   ----------------------------------------
 BYTE   W96
//  #07 //003   ----------------------------------------
 BYTE   W96
//  #07 //004   ----------------------------------------
 BYTE   W96
//  #07 //005   ----------------------------------------
 BYTE   W96
//  #07 //006   ----------------------------------------
Label_015263B0:
 BYTE   N23  En3  v100
 BYTE   W24
 BYTE   Ds3
 BYTE   W24
 BYTE   En3
 BYTE   W24
 BYTE   An3
 BYTE   W24
 BYTE   PEND 
//  #07 //007   ----------------------------------------
Label_015263BB:
 BYTE   N23  Gn3  v100
 BYTE   W24
 BYTE   Fs3
 BYTE   W24
 BYTE   Gn3
 BYTE   W24
 BYTE   An3
 BYTE   W24
 BYTE   PEND 
//  #07 //008   ----------------------------------------
 BYTE   TIE  Fs3
 BYTE   W96
//  #07 //009   ----------------------------------------
 BYTE   W23
 BYTE   EOT
 BYTE   W01
 BYTE   N23  Gn3
 BYTE   W24
 BYTE   N05  Fs3
 BYTE   W06
 BYTE   Gn3
 BYTE   W06
 BYTE   Fs3
 BYTE   W06
 BYTE   Gn3
 BYTE   W06
 BYTE   Fs3
 BYTE   W06
 BYTE   En3
 BYTE   W06
 BYTE   Dn3
 BYTE   W06
 BYTE   Bn2
 BYTE   W06
//  #07 //010   ----------------------------------------
Label_015263E0:
 BYTE   N05  An2  v100
 BYTE   W06
 BYTE   Dn3
 BYTE   W06
 BYTE   N11  En3
 BYTE   W12
 BYTE   N05  Dn3
 BYTE   W06
 BYTE   N11  En3
 BYTE   W12
 BYTE   N05  Dn3
 BYTE   W06
 BYTE   N68  En3
 BYTE   W48
 BYTE   PEND 
//  #07 //011   ----------------------------------------
Label_015263F6:
 BYTE   W24
 BYTE   N23  Fs3  v100
 BYTE   W24
 BYTE   Gn3
 BYTE   W24
 BYTE   An3
 BYTE   W24
 BYTE   PEND 
//  #07 //012   ----------------------------------------
Label_01526400:
 BYTE   N05  Fs3  v100
 BYTE   W06
 BYTE   Gn3
 BYTE   W06
 BYTE   N56  Fs3
 BYTE   W60
 BYTE   N23  Gn3
 BYTE   W24
 BYTE   PEND 
//  #07 //013   ----------------------------------------
Label_0152640D:
 BYTE   N11  An3  v100
 BYTE   W12
 BYTE   Bn3
 BYTE   W12
 BYTE   An3
 BYTE   W12
 BYTE   Gn3
 BYTE   W12
 BYTE   An3
 BYTE   W12
 BYTE   Bn3
 BYTE   W12
 BYTE   Gn3
 BYTE   W12
 BYTE   Fs3
 BYTE   W12
 BYTE   PEND 
//  #07 //014   ----------------------------------------
 BYTE   PATT
  POIN2 Label_015263B0
//  #07 //015   ----------------------------------------
 BYTE   PATT
  POIN2 Label_015263BB
//  #07 //016   ----------------------------------------
Label_0152642A:
 BYTE   N05  Fs3  v100
 BYTE   W06
 BYTE   Dn3
 BYTE   W06
 BYTE   N80  Bn2
 BYTE   W84
 BYTE   PEND 
//  #07 //017   ----------------------------------------
Label_01526434:
 BYTE   N23  An2  v100
 BYTE   W24
 BYTE   Bn2
 BYTE   W24
 BYTE   Dn3
 BYTE   W24
 BYTE   Bn2
 BYTE   W24
 BYTE   PEND 
//  #07 //018   ----------------------------------------
Label_0152643F:
 BYTE   N44  En3  v100
 BYTE   W48
 BYTE   N23  Fs3
 BYTE   W24
 BYTE   En3
 BYTE   W24
 BYTE   PEND 
//  #07 //019   ----------------------------------------
Label_01526449:
 BYTE   N23  Gn3  v100
 BYTE   W24
 BYTE   Fs3
 BYTE   W24
 BYTE   An3
 BYTE   W24
 BYTE   Bn3
 BYTE   W24
 BYTE   PEND 
//  #07 //020   ----------------------------------------
 BYTE   N92  Dn4
 BYTE   W96
//  #07 //021   ----------------------------------------
 BYTE   Ds4
 BYTE   W96
//  #07 //022   ----------------------------------------
 BYTE   N11  En4
 BYTE   W96
//  #07 //023   ----------------------------------------
 BYTE   W96
//  #07 //024   ----------------------------------------
 BYTE   W96
//  #07 //025   ----------------------------------------
 BYTE   W96
//  #07 //026   ----------------------------------------
 BYTE   W96
//  #07 //027   ----------------------------------------
 BYTE   W96
//  #07 //028   ----------------------------------------
 BYTE   W96
//  #07 //029   ----------------------------------------
 BYTE   W96
//  #07 //030   ----------------------------------------
 BYTE   N05  Bn2
 BYTE   W06
 BYTE   N11  En3
 BYTE   W12
 BYTE   N05  Bn2
 BYTE   W06
 BYTE   N11  En3
 BYTE   W12
 BYTE   N05  Bn2
 BYTE   W06
 BYTE   N76  En3
 BYTE   W54
//  #07 //031   ----------------------------------------
 BYTE   W24
 BYTE   N05  Gn3
 BYTE   W06
 BYTE   Fs3
 BYTE   W06
 BYTE   Gn3
 BYTE   W06
 BYTE   En3
 BYTE   W06
 BYTE   Fs3
 BYTE   W06
 BYTE   En3
 BYTE   W06
 BYTE   Fs3
 BYTE   W06
 BYTE   Dn3
 BYTE   W06
 BYTE   En3
 BYTE   W06
 BYTE   Dn3
 BYTE   W06
 BYTE   En3
 BYTE   W06
 BYTE   Bn2
 BYTE   W06
//  #07 //032   ----------------------------------------
 BYTE   N11  Dn3
 BYTE   W12
 BYTE   En3
 BYTE   W12
 BYTE   N92  Fs3
 BYTE   W72
//  #07 //033   ----------------------------------------
 BYTE   W24
 BYTE   N23  Gn3
 BYTE   W24
 BYTE   An3
 BYTE   W24
 BYTE   Bn3
 BYTE   W24
//  #07 //034   ----------------------------------------
 BYTE   An3
 BYTE   W24
 BYTE   N11  Gn3
 BYTE   W12
 BYTE   Fs3
 BYTE   W12
 BYTE   N23  Gn3
 BYTE   W24
 BYTE   N11  Fs3
 BYTE   W12
 BYTE   En3
 BYTE   W12
//  #07 //035   ----------------------------------------
 BYTE   N05  Fs3
 BYTE   W06
 BYTE   Gn3
 BYTE   W06
 BYTE   Fs3
 BYTE   W06
 BYTE   Gn3
 BYTE   W06
 BYTE   Fs3
 BYTE   W06
 BYTE   En3
 BYTE   W06
 BYTE   Dn3
 BYTE   W06
 BYTE   Bn2
 BYTE   W06
 BYTE   Fs3
 BYTE   W06
 BYTE   Gn3
 BYTE   W06
 BYTE   Fs3
 BYTE   W06
 BYTE   Gn3
 BYTE   W06
 BYTE   An3
 BYTE   W06
 BYTE   Bn3
 BYTE   W06
 BYTE   Dn4
 BYTE   W06
 BYTE   Cn4
 BYTE   W06
//  #07 //036   ----------------------------------------
 BYTE   N44  Bn3
 BYTE   W48
 BYTE   N11
 BYTE   W12
 BYTE   An3
 BYTE   W12
 BYTE   N05  Bn3
 BYTE   W06
 BYTE   Cn4
 BYTE   W06
 BYTE   Bn3
 BYTE   W06
 BYTE   Cn4
 BYTE   W06
//  #07 //037   ----------------------------------------
 BYTE   Bn3
 BYTE   W06
 BYTE   An3
 BYTE   W06
 BYTE   Gn3
 BYTE   W06
 BYTE   Fs3
 BYTE   W06
 BYTE   En3
 BYTE   W06
 BYTE   Dn3
 BYTE   W06
 BYTE   Cn3
 BYTE   W06
 BYTE   Bn2
 BYTE   W06
 BYTE   Cn3
 BYTE   W06
 BYTE   Dn3
 BYTE   W06
 BYTE   Cn3
 BYTE   W06
 BYTE   Dn3
 BYTE   W06
 BYTE   En3
 BYTE   W06
 BYTE   Dn3
 BYTE   W06
 BYTE   En3
 BYTE   W06
 BYTE   Fs3
 BYTE   W06
//  #07 //038   ----------------------------------------
 BYTE   PATT
  POIN2 Label_015263B0
//  #07 //039   ----------------------------------------
 BYTE   PATT
  POIN2 Label_015263BB
//  #07 //040   ----------------------------------------
 BYTE   TIE  Fs3  v100
 BYTE   W96
//  #07 //041   ----------------------------------------
 BYTE   W23
 BYTE   EOT
 BYTE   W01
 BYTE   N23  Gn3
 BYTE   W24
 BYTE   N05  Fs3
 BYTE   W06
 BYTE   Gn3
 BYTE   W06
 BYTE   Fs3
 BYTE   W06
 BYTE   Gn3
 BYTE   W06
 BYTE   Fs3
 BYTE   W06
 BYTE   En3
 BYTE   W06
 BYTE   Dn3
 BYTE   W06
 BYTE   Bn2
 BYTE   W06
//  #07 //042   ----------------------------------------
 BYTE   PATT
  POIN2 Label_015263E0
//  #07 //043   ----------------------------------------
 BYTE   PATT
  POIN2 Label_015263F6
//  #07 //044   ----------------------------------------
 BYTE   PATT
  POIN2 Label_01526400
//  #07 //045   ----------------------------------------
 BYTE   PATT
  POIN2 Label_0152640D
//  #07 //046   ----------------------------------------
 BYTE   PATT
  POIN2 Label_015263B0
//  #07 //047   ----------------------------------------
 BYTE   PATT
  POIN2 Label_015263BB
//  #07 //048   ----------------------------------------
 BYTE   PATT
  POIN2 Label_0152642A
//  #07 //049   ----------------------------------------
 BYTE   PATT
  POIN2 Label_01526434
//  #07 //050   ----------------------------------------
 BYTE   PATT
  POIN2 Label_0152643F
//  #07 //051   ----------------------------------------
 BYTE   PATT
  POIN2 Label_01526449
//  #07 //052   ----------------------------------------
 BYTE   N92  Dn4  v100
 BYTE   W96
//  #07 //053   ----------------------------------------
 BYTE   Ds4
 BYTE   W96
//  #07 //054   ----------------------------------------
 BYTE   N11  En4
 BYTE   W96
//  #07 //055   ----------------------------------------
 BYTE   W96
//  #07 //056   ----------------------------------------
 BYTE   W96
//  #07 //057   ----------------------------------------
 BYTE   W96
//  #07 //058   ----------------------------------------
 BYTE   W96
//  #07 //059   ----------------------------------------
 BYTE   W96
//  #07 //060   ----------------------------------------
 BYTE   W96
//  #07 //061   ----------------------------------------
 BYTE   W96
//  #07 //062   ----------------------------------------
 BYTE   W96
//  #07 //063   ----------------------------------------
 BYTE   W96
//  #07 //064   ----------------------------------------
 BYTE   W96
//  #07 //065   ----------------------------------------
 BYTE   W96
//  #07 //066   ----------------------------------------
 BYTE   W96
//  #07 //067   ----------------------------------------
 BYTE   W96
//  #07 //068   ----------------------------------------
 BYTE   W96
//  #07 //069   ----------------------------------------
 BYTE   W96
//  #07 //070   ----------------------------------------
 BYTE   W96
//  #07 //071   ----------------------------------------
 BYTE   W96
//  #07 //072   ----------------------------------------
 BYTE   W96
//  #07 //073   ----------------------------------------
 BYTE   W96
//  #07 //074   ----------------------------------------
 BYTE   W96
//  #07 //075   ----------------------------------------
 BYTE   W96
//  #07 //076   ----------------------------------------
 BYTE   W96
//  #07 //077   ----------------------------------------
 BYTE   W96
//  #07 //078   ----------------------------------------
 BYTE   PATT
  POIN2 Label_015263B0
//  #07 //079   ----------------------------------------
 BYTE   PATT
  POIN2 Label_015263BB
//  #07 //080   ----------------------------------------
 BYTE   PATT
  POIN2 Label_0152642A
//  #07 //081   ----------------------------------------
 BYTE   PATT
  POIN2 Label_01526434
//  #07 //082   ----------------------------------------
 BYTE   PATT
  POIN2 Label_0152643F
//  #07 //083   ----------------------------------------
 BYTE   PATT
  POIN2 Label_01526449
//  #07 //084   ----------------------------------------
 BYTE   N92  Dn4  v100
 BYTE   W96
//  #07 //085   ----------------------------------------
 BYTE   Ds4
 BYTE   W96
//  #07 //086   ----------------------------------------
 BYTE   GoTo
  POIN2 Label_015263A2
 BYTE   FINE

//**************** Track 8 (Midi-Chn.7) ****************//

EscapeSong_008:
//  #08 //000   ----------------------------------------
 BYTE   KEYSH   EscapeSong_key+0
Label_015265A2:
 BYTE   VOICE   11
 BYTE   PAN   c_v+48
 BYTE   VOL   19*EscapeSong_mvl/mxv
 BYTE   BEND   c_v+0
 BYTE   W96
//  #08 //001   ----------------------------------------
 BYTE   W96
//  #08 //002   ----------------------------------------
 BYTE   W96
//  #08 //003   ----------------------------------------
 BYTE   W96
//  #08 //004   ----------------------------------------
 BYTE   W96
//  #08 //005   ----------------------------------------
 BYTE   W96
//  #08 //006   ----------------------------------------
 BYTE   W96
//  #08 //007   ----------------------------------------
 BYTE   W96
//  #08 //008   ----------------------------------------
 BYTE   W96
//  #08 //009   ----------------------------------------
 BYTE   W96
//  #08 //010   ----------------------------------------
 BYTE   W96
//  #08 //011   ----------------------------------------
 BYTE   W96
//  #08 //012   ----------------------------------------
 BYTE   W96
//  #08 //013   ----------------------------------------
 BYTE   W96
//  #08 //014   ----------------------------------------
 BYTE   W96
//  #08 //015   ----------------------------------------
 BYTE   W96
//  #08 //016   ----------------------------------------
 BYTE   W96
//  #08 //017   ----------------------------------------
 BYTE   W96
//  #08 //018   ----------------------------------------
 BYTE   W96
//  #08 //019   ----------------------------------------
 BYTE   W96
//  #08 //020   ----------------------------------------
 BYTE   W96
//  #08 //021   ----------------------------------------
 BYTE   W96
//  #08 //022   ----------------------------------------
 BYTE   W96
//  #08 //023   ----------------------------------------
 BYTE   W96
//  #08 //024   ----------------------------------------
 BYTE   W96
//  #08 //025   ----------------------------------------
 BYTE   W96
//  #08 //026   ----------------------------------------
 BYTE   W96
//  #08 //027   ----------------------------------------
 BYTE   W96
//  #08 //028   ----------------------------------------
 BYTE   W96
//  #08 //029   ----------------------------------------
 BYTE   W96
//  #08 //030   ----------------------------------------
 BYTE   W96
//  #08 //031   ----------------------------------------
 BYTE   W96
//  #08 //032   ----------------------------------------
 BYTE   W96
//  #08 //033   ----------------------------------------
 BYTE   W96
//  #08 //034   ----------------------------------------
 BYTE   W96
//  #08 //035   ----------------------------------------
 BYTE   W96
//  #08 //036   ----------------------------------------
 BYTE   W96
//  #08 //037   ----------------------------------------
 BYTE   W96
//  #08 //038   ----------------------------------------
 BYTE   W96
//  #08 //039   ----------------------------------------
 BYTE   W96
//  #08 //040   ----------------------------------------
 BYTE   W96
//  #08 //041   ----------------------------------------
 BYTE   W96
//  #08 //042   ----------------------------------------
 BYTE   W96
//  #08 //043   ----------------------------------------
 BYTE   W96
//  #08 //044   ----------------------------------------
 BYTE   W96
//  #08 //045   ----------------------------------------
 BYTE   W96
//  #08 //046   ----------------------------------------
 BYTE   W96
//  #08 //047   ----------------------------------------
 BYTE   W96
//  #08 //048   ----------------------------------------
 BYTE   W96
//  #08 //049   ----------------------------------------
 BYTE   W96
//  #08 //050   ----------------------------------------
 BYTE   W96
//  #08 //051   ----------------------------------------
 BYTE   W96
//  #08 //052   ----------------------------------------
 BYTE   W96
//  #08 //053   ----------------------------------------
 BYTE   W96
//  #08 //054   ----------------------------------------
 BYTE   W96
//  #08 //055   ----------------------------------------
 BYTE   W96
//  #08 //056   ----------------------------------------
 BYTE   W96
//  #08 //057   ----------------------------------------
 BYTE   W96
//  #08 //058   ----------------------------------------
 BYTE   W96
//  #08 //059   ----------------------------------------
 BYTE   W96
//  #08 //060   ----------------------------------------
 BYTE   W96
//  #08 //061   ----------------------------------------
 BYTE   W96
//  #08 //062   ----------------------------------------
 BYTE   W96
//  #08 //063   ----------------------------------------
 BYTE   W96
//  #08 //064   ----------------------------------------
 BYTE   W96
//  #08 //065   ----------------------------------------
 BYTE   W96
//  #08 //066   ----------------------------------------
 BYTE   W96
//  #08 //067   ----------------------------------------
 BYTE   W96
//  #08 //068   ----------------------------------------
 BYTE   W96
//  #08 //069   ----------------------------------------
 BYTE   W96
//  #08 //070   ----------------------------------------
Label_015265F0:
 BYTE   N23  En4  v100
 BYTE   W24
 BYTE   N23
 BYTE   W36
 BYTE   N23
 BYTE   W36
 BYTE   PEND 
//  #08 //071   ----------------------------------------
 BYTE   PATT
  POIN2 Label_015265F0
//  #08 //072   ----------------------------------------
Label_015265FE:
 BYTE   N23  Dn4  v100
 BYTE   W24
 BYTE   N23
 BYTE   W36
 BYTE   N23
 BYTE   W36
 BYTE   PEND 
//  #08 //073   ----------------------------------------
 BYTE   PATT
  POIN2 Label_015265FE
//  #08 //074   ----------------------------------------
Label_0152660C:
 BYTE   N23  Cn4  v100
 BYTE   W24
 BYTE   N23
 BYTE   W36
 BYTE   N23
 BYTE   W36
 BYTE   PEND 
//  #08 //075   ----------------------------------------
 BYTE   PATT
  POIN2 Label_0152660C
//  #08 //076   ----------------------------------------
 BYTE   PATT
  POIN2 Label_015265FE
//  #08 //077   ----------------------------------------
 BYTE   N23  Gn4  v100
 BYTE   W24
 BYTE   N23
 BYTE   W36
 BYTE   Fs4
 BYTE   W36
//  #08 //078   ----------------------------------------
 BYTE   PATT
  POIN2 Label_015265F0
//  #08 //079   ----------------------------------------
 BYTE   PATT
  POIN2 Label_015265F0
//  #08 //080   ----------------------------------------
 BYTE   PATT
  POIN2 Label_015265FE
//  #08 //081   ----------------------------------------
 BYTE   PATT
  POIN2 Label_015265FE
//  #08 //082   ----------------------------------------
 BYTE   PATT
  POIN2 Label_0152660C
//  #08 //083   ----------------------------------------
 BYTE   PATT
  POIN2 Label_0152660C
//  #08 //084   ----------------------------------------
 BYTE   PATT
  POIN2 Label_015265FE
//  #08 //085   ----------------------------------------
 BYTE   N23  Ds4  v100
 BYTE   W24
 BYTE   N23
 BYTE   W36
 BYTE   N23
 BYTE   W36
//  #08 //086   ----------------------------------------
 BYTE   GoTo
  POIN2 Label_015265A2
 BYTE   FINE

//**************** Track 9 (Midi-Chn.8) ****************//

EscapeSong_009:
//  #09 //000   ----------------------------------------
 BYTE   KEYSH   EscapeSong_key+0
Label_0152665A:
 BYTE   VOICE   94
 BYTE   VOL   11*EscapeSong_mvl/mxv
 BYTE   PAN   c_v-1
 BYTE   BEND   c_v+0
 BYTE   W96
//  #09 //001   ----------------------------------------
 BYTE   W96
//  #09 //002   ----------------------------------------
 BYTE   W96
//  #09 //003   ----------------------------------------
 BYTE   W96
//  #09 //004   ----------------------------------------
 BYTE   W96
//  #09 //005   ----------------------------------------
 BYTE   W96
//  #09 //006   ----------------------------------------
 BYTE   W96
//  #09 //007   ----------------------------------------
 BYTE   W96
//  #09 //008   ----------------------------------------
 BYTE   W96
//  #09 //009   ----------------------------------------
 BYTE   W96
//  #09 //010   ----------------------------------------
 BYTE   W96
//  #09 //011   ----------------------------------------
 BYTE   W96
//  #09 //012   ----------------------------------------
 BYTE   W96
//  #09 //013   ----------------------------------------
 BYTE   W96
//  #09 //014   ----------------------------------------
 BYTE   W96
//  #09 //015   ----------------------------------------
 BYTE   W96
//  #09 //016   ----------------------------------------
 BYTE   W96
//  #09 //017   ----------------------------------------
 BYTE   W96
//  #09 //018   ----------------------------------------
 BYTE   W96
//  #09 //019   ----------------------------------------
 BYTE   W96
//  #09 //020   ----------------------------------------
 BYTE   W96
//  #09 //021   ----------------------------------------
 BYTE   W96
//  #09 //022   ----------------------------------------
 BYTE   W96
//  #09 //023   ----------------------------------------
 BYTE   W96
//  #09 //024   ----------------------------------------
 BYTE   W96
//  #09 //025   ----------------------------------------
 BYTE   W96
//  #09 //026   ----------------------------------------
 BYTE   W96
//  #09 //027   ----------------------------------------
 BYTE   W96
//  #09 //028   ----------------------------------------
 BYTE   W96
//  #09 //029   ----------------------------------------
 BYTE   W96
//  #09 //030   ----------------------------------------
 BYTE   W96
//  #09 //031   ----------------------------------------
 BYTE   W96
//  #09 //032   ----------------------------------------
 BYTE   W96
//  #09 //033   ----------------------------------------
 BYTE   W96
//  #09 //034   ----------------------------------------
 BYTE   W96
//  #09 //035   ----------------------------------------
 BYTE   W96
//  #09 //036   ----------------------------------------
 BYTE   W96
//  #09 //037   ----------------------------------------
 BYTE   W96
//  #09 //038   ----------------------------------------
 BYTE   W96
//  #09 //039   ----------------------------------------
 BYTE   W96
//  #09 //040   ----------------------------------------
 BYTE   W96
//  #09 //041   ----------------------------------------
 BYTE   W96
//  #09 //042   ----------------------------------------
 BYTE   W96
//  #09 //043   ----------------------------------------
 BYTE   W96
//  #09 //044   ----------------------------------------
 BYTE   W96
//  #09 //045   ----------------------------------------
 BYTE   W96
//  #09 //046   ----------------------------------------
 BYTE   W96
//  #09 //047   ----------------------------------------
 BYTE   W96
//  #09 //048   ----------------------------------------
 BYTE   W96
//  #09 //049   ----------------------------------------
 BYTE   W96
//  #09 //050   ----------------------------------------
 BYTE   W96
//  #09 //051   ----------------------------------------
 BYTE   W96
//  #09 //052   ----------------------------------------
 BYTE   W96
//  #09 //053   ----------------------------------------
 BYTE   W96
//  #09 //054   ----------------------------------------
 BYTE   W96
//  #09 //055   ----------------------------------------
 BYTE   W96
//  #09 //056   ----------------------------------------
 BYTE   W96
//  #09 //057   ----------------------------------------
 BYTE   W96
//  #09 //058   ----------------------------------------
 BYTE   W96
//  #09 //059   ----------------------------------------
 BYTE   W96
//  #09 //060   ----------------------------------------
 BYTE   W96
//  #09 //061   ----------------------------------------
 BYTE   W96
//  #09 //062   ----------------------------------------
 BYTE   W96
//  #09 //063   ----------------------------------------
 BYTE   W96
//  #09 //064   ----------------------------------------
 BYTE   W96
//  #09 //065   ----------------------------------------
 BYTE   W96
//  #09 //066   ----------------------------------------
 BYTE   W96
//  #09 //067   ----------------------------------------
 BYTE   W96
//  #09 //068   ----------------------------------------
 BYTE   W96
//  #09 //069   ----------------------------------------
 BYTE   W96
//  #09 //070   ----------------------------------------
Label_015266A8:
 BYTE   N23  En4  v100
 BYTE   W24
 BYTE   N23
 BYTE   W36
 BYTE   N23
 BYTE   W36
 BYTE   PEND 
//  #09 //071   ----------------------------------------
 BYTE   PATT
  POIN2 Label_015266A8
//  #09 //072   ----------------------------------------
Label_015266B6:
 BYTE   N23  Dn4  v100
 BYTE   W24
 BYTE   N23
 BYTE   W36
 BYTE   N23
 BYTE   W36
 BYTE   PEND 
//  #09 //073   ----------------------------------------
 BYTE   PATT
  POIN2 Label_015266B6
//  #09 //074   ----------------------------------------
Label_015266C4:
 BYTE   N23  Cn4  v100
 BYTE   W24
 BYTE   N23
 BYTE   W36
 BYTE   N23
 BYTE   W36
 BYTE   PEND 
//  #09 //075   ----------------------------------------
 BYTE   PATT
  POIN2 Label_015266C4
//  #09 //076   ----------------------------------------
 BYTE   PATT
  POIN2 Label_015266B6
//  #09 //077   ----------------------------------------
 BYTE   N23  Gn4  v100
 BYTE   W24
 BYTE   N23
 BYTE   W36
 BYTE   Fs4
 BYTE   W36
//  #09 //078   ----------------------------------------
 BYTE   PATT
  POIN2 Label_015266A8
//  #09 //079   ----------------------------------------
 BYTE   PATT
  POIN2 Label_015266A8
//  #09 //080   ----------------------------------------
 BYTE   PATT
  POIN2 Label_015266B6
//  #09 //081   ----------------------------------------
 BYTE   PATT
  POIN2 Label_015266B6
//  #09 //082   ----------------------------------------
 BYTE   PATT
  POIN2 Label_015266C4
//  #09 //083   ----------------------------------------
 BYTE   PATT
  POIN2 Label_015266C4
//  #09 //084   ----------------------------------------
 BYTE   PATT
  POIN2 Label_015266B6
//  #09 //085   ----------------------------------------
 BYTE   N23  Ds4  v100
 BYTE   W24
 BYTE   N23
 BYTE   W36
 BYTE   N23
 BYTE   W36
//  #09 //086   ----------------------------------------
 BYTE   GoTo
  POIN2 Label_0152665A
 BYTE   FINE

//******************************************************//
	ALIGN 4

EscapeSong:
	BYTE	9	// NumTrks
	BYTE	0	// NumBlks
	BYTE	EscapeSong_pri	// Priority
	BYTE	EscapeSong_rev	// Reverb.
    
	POIN2	EscapeSong_grp
    
	POIN2	EscapeSong_001
	POIN2	EscapeSong_002
	POIN2	EscapeSong_003
	POIN2	EscapeSong_004
	POIN2	EscapeSong_005
	POIN2	EscapeSong_006
	POIN2	EscapeSong_007
	POIN2	EscapeSong_008
	POIN2	EscapeSong_009

	
