	.include "MPlayDef.s"

	.equ	song01_grp, voicegroup000
	.equ	song01_pri, 0
	.equ	song01_rev, 0
	.equ	song01_mvl, 127
	.equ	song01_key, 0
	.equ	song01_tbs, 1
	.equ	song01_exg, 0
	.equ	song01_cmp, 1

	.section .rodata
	.global	song01
	.align	2


@**************** Track 1 (Midi-Chn.0) ****************@

song01_001:
@  #01 @000   ----------------------------------------
 .byte   KEYSH , song01_key+0
Label_014B1932:
 .byte   TEMPO , 140*song01_tbs/2
 .byte   VOICE , 127
 .byte   VOL , 28*song01_mvl/mxv
 .byte   PAN , c_v+0
 .byte   BEND , c_v+0
 .byte   N11 ,Bn2 ,v100
 .byte   W12
 .byte   N11
 .byte   W12
 .byte   N11
 .byte   W12
 .byte   N11
 .byte   W12
 .byte   N11
 .byte   W12
 .byte   N11
 .byte   W12
 .byte   N11
 .byte   W12
 .byte   N11
 .byte   W12
@  #01 @001   ----------------------------------------
 .byte   N11
 .byte   W12
 .byte   N11
 .byte   W12
 .byte   N11
 .byte   W12
 .byte   N11
 .byte   W12
 .byte   N11
 .byte   W12
 .byte   N11
 .byte   W12
 .byte   Dn1
 .byte   N11 ,Gs1
 .byte   N05 ,Cn2
 .byte   N11 ,Gn2
 .byte   N11 ,Bn2
 .byte   W06
 .byte   N05 ,Cn2
 .byte   W06
 .byte   N11 ,Dn1
 .byte   N11 ,Gs1
 .byte   N05 ,Bn1
 .byte   N11 ,Gn2
 .byte   N11 ,Bn2
 .byte   W06
 .byte   N05 ,Bn1
 .byte   W06
@  #01 @002   ----------------------------------------
Label_014B1975:
 .byte   N11 ,Dn1 ,v100
 .byte   N11 ,Bn2
 .byte   W12
 .byte   Gn2
 .byte   N11 ,Bn2
 .byte   W12
 .byte   Gs1
 .byte   N44 ,An2
 .byte   N11 ,Bn2
 .byte   W12
 .byte   Dn1
 .byte   N11 ,Bn2
 .byte   W12
 .byte   Dn1
 .byte   N11 ,Bn2
 .byte   W12
 .byte   Gn2
 .byte   N11 ,Bn2
 .byte   W12
 .byte   Gs1
 .byte   N44 ,An2
 .byte   N11 ,Bn2
 .byte   W12
 .byte   Dn1
 .byte   N11 ,Bn2
 .byte   W12
 .byte   PEND 
@  #01 @003   ----------------------------------------
 .byte   PATT
  .word Label_014B1975
@  #01 @004   ----------------------------------------
 .byte   PATT
  .word Label_014B1975
@  #01 @005   ----------------------------------------
Label_014B19A6:
 .byte   N11 ,Dn1 ,v100
 .byte   N11 ,Bn2
 .byte   W12
 .byte   Gn2
 .byte   N11 ,Bn2
 .byte   W12
 .byte   Gs1
 .byte   N44 ,An2
 .byte   N11 ,Bn2
 .byte   W12
 .byte   Dn1
 .byte   N11 ,Bn2
 .byte   W12
 .byte   Dn1
 .byte   N11 ,Bn2
 .byte   W12
 .byte   Gn2
 .byte   N11 ,Bn2
 .byte   W12
 .byte   Dn1
 .byte   N11 ,Gs1
 .byte   N05 ,Cn2
 .byte   N11 ,Gn2
 .byte   N44 ,An2
 .byte   N11 ,Bn2
 .byte   W06
 .byte   N05 ,Cn2
 .byte   W06
 .byte   N11 ,Dn1
 .byte   N11 ,Gs1
 .byte   N05 ,Bn1
 .byte   N11 ,Gn2
 .byte   N11 ,Bn2
 .byte   W06
 .byte   N05 ,Bn1
 .byte   W06
 .byte   PEND 
@  #01 @006   ----------------------------------------
 .byte   PATT
  .word Label_014B1975
@  #01 @007   ----------------------------------------
 .byte   PATT
  .word Label_014B1975
@  #01 @008   ----------------------------------------
 .byte   PATT
  .word Label_014B1975
@  #01 @009   ----------------------------------------
 .byte   PATT
  .word Label_014B1975
@  #01 @010   ----------------------------------------
 .byte   PATT
  .word Label_014B1975
@  #01 @011   ----------------------------------------
 .byte   PATT
  .word Label_014B1975
@  #01 @012   ----------------------------------------
 .byte   PATT
  .word Label_014B1975
@  #01 @013   ----------------------------------------
 .byte   PATT
  .word Label_014B19A6
@  #01 @014   ----------------------------------------
 .byte   PATT
  .word Label_014B1975
@  #01 @015   ----------------------------------------
 .byte   PATT
  .word Label_014B1975
@  #01 @016   ----------------------------------------
 .byte   PATT
  .word Label_014B1975
@  #01 @017   ----------------------------------------
 .byte   PATT
  .word Label_014B1975
@  #01 @018   ----------------------------------------
 .byte   PATT
  .word Label_014B1975
@  #01 @019   ----------------------------------------
 .byte   PATT
  .word Label_014B1975
@  #01 @020   ----------------------------------------
 .byte   PATT
  .word Label_014B1975
@  #01 @021   ----------------------------------------
 .byte   PATT
  .word Label_014B19A6
@  #01 @022   ----------------------------------------
 .byte   PATT
  .word Label_014B1975
@  #01 @023   ----------------------------------------
 .byte   PATT
  .word Label_014B1975
@  #01 @024   ----------------------------------------
 .byte   PATT
  .word Label_014B1975
@  #01 @025   ----------------------------------------
 .byte   PATT
  .word Label_014B1975
@  #01 @026   ----------------------------------------
 .byte   PATT
  .word Label_014B1975
@  #01 @027   ----------------------------------------
 .byte   PATT
  .word Label_014B1975
@  #01 @028   ----------------------------------------
 .byte   PATT
  .word Label_014B1975
@  #01 @029   ----------------------------------------
 .byte   PATT
  .word Label_014B19A6
@  #01 @030   ----------------------------------------
 .byte   PATT
  .word Label_014B1975
@  #01 @031   ----------------------------------------
 .byte   PATT
  .word Label_014B1975
@  #01 @032   ----------------------------------------
 .byte   PATT
  .word Label_014B1975
@  #01 @033   ----------------------------------------
 .byte   PATT
  .word Label_014B1975
@  #01 @034   ----------------------------------------
 .byte   PATT
  .word Label_014B1975
@  #01 @035   ----------------------------------------
 .byte   PATT
  .word Label_014B1975
@  #01 @036   ----------------------------------------
 .byte   PATT
  .word Label_014B1975
@  #01 @037   ----------------------------------------
 .byte   PATT
  .word Label_014B19A6
@  #01 @038   ----------------------------------------
 .byte   PATT
  .word Label_014B1975
@  #01 @039   ----------------------------------------
 .byte   PATT
  .word Label_014B1975
@  #01 @040   ----------------------------------------
 .byte   PATT
  .word Label_014B1975
@  #01 @041   ----------------------------------------
 .byte   PATT
  .word Label_014B1975
@  #01 @042   ----------------------------------------
 .byte   PATT
  .word Label_014B1975
@  #01 @043   ----------------------------------------
 .byte   PATT
  .word Label_014B1975
@  #01 @044   ----------------------------------------
 .byte   PATT
  .word Label_014B1975
@  #01 @045   ----------------------------------------
 .byte   PATT
  .word Label_014B19A6
@  #01 @046   ----------------------------------------
 .byte   PATT
  .word Label_014B1975
@  #01 @047   ----------------------------------------
 .byte   PATT
  .word Label_014B1975
@  #01 @048   ----------------------------------------
 .byte   PATT
  .word Label_014B1975
@  #01 @049   ----------------------------------------
 .byte   PATT
  .word Label_014B1975
@  #01 @050   ----------------------------------------
 .byte   PATT
  .word Label_014B1975
@  #01 @051   ----------------------------------------
 .byte   PATT
  .word Label_014B1975
@  #01 @052   ----------------------------------------
 .byte   PATT
  .word Label_014B1975
@  #01 @053   ----------------------------------------
 .byte   PATT
  .word Label_014B19A6
@  #01 @054   ----------------------------------------
 .byte   PATT
  .word Label_014B1975
@  #01 @055   ----------------------------------------
 .byte   PATT
  .word Label_014B1975
@  #01 @056   ----------------------------------------
 .byte   PATT
  .word Label_014B1975
@  #01 @057   ----------------------------------------
 .byte   PATT
  .word Label_014B1975
@  #01 @058   ----------------------------------------
 .byte   PATT
  .word Label_014B1975
@  #01 @059   ----------------------------------------
 .byte   PATT
  .word Label_014B1975
@  #01 @060   ----------------------------------------
 .byte   PATT
  .word Label_014B1975
@  #01 @061   ----------------------------------------
 .byte   PATT
  .word Label_014B19A6
@  #01 @062   ----------------------------------------
 .byte   PATT
  .word Label_014B1975
@  #01 @063   ----------------------------------------
 .byte   PATT
  .word Label_014B1975
@  #01 @064   ----------------------------------------
 .byte   PATT
  .word Label_014B1975
@  #01 @065   ----------------------------------------
 .byte   PATT
  .word Label_014B1975
@  #01 @066   ----------------------------------------
 .byte   PATT
  .word Label_014B1975
@  #01 @067   ----------------------------------------
 .byte   PATT
  .word Label_014B1975
@  #01 @068   ----------------------------------------
 .byte   PATT
  .word Label_014B1975
@  #01 @069   ----------------------------------------
 .byte   PATT
  .word Label_014B19A6
@  #01 @070   ----------------------------------------
 .byte   PATT
  .word Label_014B1975
@  #01 @071   ----------------------------------------
 .byte   PATT
  .word Label_014B1975
@  #01 @072   ----------------------------------------
 .byte   PATT
  .word Label_014B1975
@  #01 @073   ----------------------------------------
 .byte   PATT
  .word Label_014B1975
@  #01 @074   ----------------------------------------
 .byte   PATT
  .word Label_014B1975
@  #01 @075   ----------------------------------------
 .byte   PATT
  .word Label_014B1975
@  #01 @076   ----------------------------------------
 .byte   PATT
  .word Label_014B1975
@  #01 @077   ----------------------------------------
 .byte   PATT
  .word Label_014B19A6
@  #01 @078   ----------------------------------------
 .byte   PATT
  .word Label_014B1975
@  #01 @079   ----------------------------------------
 .byte   PATT
  .word Label_014B1975
@  #01 @080   ----------------------------------------
 .byte   PATT
  .word Label_014B1975
@  #01 @081   ----------------------------------------
 .byte   PATT
  .word Label_014B1975
@  #01 @082   ----------------------------------------
 .byte   PATT
  .word Label_014B1975
@  #01 @083   ----------------------------------------
 .byte   PATT
  .word Label_014B1975
@  #01 @084   ----------------------------------------
 .byte   PATT
  .word Label_014B1975
@  #01 @085   ----------------------------------------
 .byte   N11 ,Dn1 ,v100
 .byte   N11 ,Bn2
 .byte   W12
 .byte   Gn2
 .byte   N11 ,Bn2
 .byte   W12
 .byte   Gs1
 .byte   N44 ,An2
 .byte   N11 ,Bn2
 .byte   W12
 .byte   Dn1
 .byte   N11 ,Bn2
 .byte   W12
 .byte   Dn1
 .byte   N11 ,Bn2
 .byte   W12
 .byte   Gn2
 .byte   N11 ,Bn2
 .byte   W12
 .byte   Dn1
 .byte   N11 ,Gs1
 .byte   N05 ,Cn2
 .byte   N11 ,Gn2
 .byte   N23 ,An2
 .byte   N11 ,Bn2
 .byte   W06
 .byte   N05 ,Cn2
 .byte   W06
 .byte   N11 ,Dn1
 .byte   N11 ,Gs1
 .byte   N05 ,Bn1
 .byte   N11 ,Gn2
 .byte   N11 ,Bn2
 .byte   W06
 .byte   N05 ,Bn1
 .byte   W06
@  #01 @086   ----------------------------------------
 .byte   GOTO
  .word Label_014B1932
 .byte   FINE

@**************** Track 2 (Midi-Chn.1) ****************@

song01_002:
@  #02 @000   ----------------------------------------
 .byte   KEYSH , song01_key+0
Label_014B17BE:
 .byte   VOICE , 50
 .byte   VOL , 21*song01_mvl/mxv
 .byte   PAN , c_v-13
 .byte   BEND , c_v+0
 .byte   TIE ,En1 ,v100
 .byte   W96
@  #02 @001   ----------------------------------------
 .byte   W92
 .byte   W03
 .byte   EOT
 .byte   W01
@  #02 @002   ----------------------------------------
 .byte   TIE
 .byte   W96
@  #02 @003   ----------------------------------------
 .byte   W92
 .byte   W03
 .byte   EOT
 .byte   W01
@  #02 @004   ----------------------------------------
 .byte   TIE
 .byte   W96
@  #02 @005   ----------------------------------------
 .byte   W92
 .byte   W03
 .byte   EOT
 .byte   W01
@  #02 @006   ----------------------------------------
 .byte   TIE
 .byte   W96
@  #02 @007   ----------------------------------------
 .byte   W92
 .byte   W03
 .byte   EOT
 .byte   W01
@  #02 @008   ----------------------------------------
 .byte   TIE ,Dn1
 .byte   W96
@  #02 @009   ----------------------------------------
 .byte   W92
 .byte   W03
 .byte   EOT
 .byte   W01
@  #02 @010   ----------------------------------------
 .byte   TIE ,Cn1
 .byte   W96
@  #02 @011   ----------------------------------------
 .byte   W92
 .byte   W03
 .byte   EOT
 .byte   W01
@  #02 @012   ----------------------------------------
 .byte   N92 ,Dn1
 .byte   W96
@  #02 @013   ----------------------------------------
Label_014B17F1:
 .byte   N44 ,Gn1 ,v100
 .byte   W48
 .byte   Fs1
 .byte   W48
 .byte   PEND 
@  #02 @014   ----------------------------------------
 .byte   TIE ,En1
 .byte   W96
@  #02 @015   ----------------------------------------
 .byte   W92
 .byte   W03
 .byte   EOT
 .byte   W01
@  #02 @016   ----------------------------------------
 .byte   TIE ,Dn1
 .byte   W96
@  #02 @017   ----------------------------------------
 .byte   W92
 .byte   W03
 .byte   EOT
 .byte   W01
@  #02 @018   ----------------------------------------
 .byte   TIE ,Cn1
 .byte   W96
@  #02 @019   ----------------------------------------
 .byte   W92
 .byte   W03
 .byte   EOT
 .byte   W01
@  #02 @020   ----------------------------------------
 .byte   N92 ,Dn1
 .byte   W96
@  #02 @021   ----------------------------------------
 .byte   Ds1
 .byte   W96
@  #02 @022   ----------------------------------------
 .byte   TIE ,En1
 .byte   W96
@  #02 @023   ----------------------------------------
 .byte   W92
 .byte   W03
 .byte   EOT
 .byte   W01
@  #02 @024   ----------------------------------------
 .byte   TIE ,Cn1
 .byte   W96
@  #02 @025   ----------------------------------------
 .byte   W92
 .byte   W03
 .byte   EOT
 .byte   W01
@  #02 @026   ----------------------------------------
 .byte   TIE ,Dn1
 .byte   W96
@  #02 @027   ----------------------------------------
 .byte   W92
 .byte   W03
 .byte   EOT
 .byte   W01
@  #02 @028   ----------------------------------------
 .byte   N92 ,En1
 .byte   W96
@  #02 @029   ----------------------------------------
 .byte   PATT
  .word Label_014B17F1
@  #02 @030   ----------------------------------------
 .byte   TIE ,En1 ,v100
 .byte   W96
@  #02 @031   ----------------------------------------
 .byte   W92
 .byte   W03
 .byte   EOT
 .byte   W01
@  #02 @032   ----------------------------------------
 .byte   TIE ,Dn1
 .byte   W96
@  #02 @033   ----------------------------------------
 .byte   W92
 .byte   W03
 .byte   EOT
 .byte   W01
@  #02 @034   ----------------------------------------
 .byte   TIE ,Cn1
 .byte   W96
@  #02 @035   ----------------------------------------
 .byte   W92
 .byte   W03
 .byte   EOT
 .byte   W01
@  #02 @036   ----------------------------------------
 .byte   N92 ,Bn0
 .byte   W96
@  #02 @037   ----------------------------------------
 .byte   Ds1
 .byte   W96
@  #02 @038   ----------------------------------------
 .byte   TIE ,En1
 .byte   W96
@  #02 @039   ----------------------------------------
 .byte   W92
 .byte   W03
 .byte   EOT
 .byte   W01
@  #02 @040   ----------------------------------------
 .byte   TIE ,Dn1
 .byte   W96
@  #02 @041   ----------------------------------------
 .byte   W92
 .byte   W03
 .byte   EOT
 .byte   W01
@  #02 @042   ----------------------------------------
 .byte   TIE ,Cn1
 .byte   W96
@  #02 @043   ----------------------------------------
 .byte   W92
 .byte   W03
 .byte   EOT
 .byte   W01
@  #02 @044   ----------------------------------------
 .byte   N92 ,Dn1
 .byte   W96
@  #02 @045   ----------------------------------------
 .byte   PATT
  .word Label_014B17F1
@  #02 @046   ----------------------------------------
 .byte   TIE ,En1 ,v100
 .byte   W96
@  #02 @047   ----------------------------------------
 .byte   W92
 .byte   W03
 .byte   EOT
 .byte   W01
@  #02 @048   ----------------------------------------
 .byte   TIE ,Dn1
 .byte   W96
@  #02 @049   ----------------------------------------
 .byte   W92
 .byte   W03
 .byte   EOT
 .byte   W01
@  #02 @050   ----------------------------------------
 .byte   TIE ,Cn1
 .byte   W96
@  #02 @051   ----------------------------------------
 .byte   W92
 .byte   W03
 .byte   EOT
 .byte   W01
@  #02 @052   ----------------------------------------
 .byte   N92 ,Dn1
 .byte   W96
@  #02 @053   ----------------------------------------
 .byte   Ds1
 .byte   W96
@  #02 @054   ----------------------------------------
 .byte   TIE ,En1
 .byte   W96
@  #02 @055   ----------------------------------------
 .byte   W92
 .byte   W03
 .byte   EOT
 .byte   W01
@  #02 @056   ----------------------------------------
 .byte   TIE ,Dn1
 .byte   W96
@  #02 @057   ----------------------------------------
 .byte   W92
 .byte   W03
 .byte   EOT
 .byte   W01
@  #02 @058   ----------------------------------------
 .byte   TIE ,Cn1
 .byte   W96
@  #02 @059   ----------------------------------------
 .byte   W92
 .byte   W03
 .byte   EOT
 .byte   W01
@  #02 @060   ----------------------------------------
 .byte   N92 ,Dn1
 .byte   W96
@  #02 @061   ----------------------------------------
 .byte   PATT
  .word Label_014B17F1
@  #02 @062   ----------------------------------------
 .byte   TIE ,En1 ,v100
 .byte   W96
@  #02 @063   ----------------------------------------
 .byte   W92
 .byte   W03
 .byte   EOT
 .byte   W01
@  #02 @064   ----------------------------------------
 .byte   TIE ,Dn1
 .byte   W96
@  #02 @065   ----------------------------------------
 .byte   W92
 .byte   W03
 .byte   EOT
 .byte   W01
@  #02 @066   ----------------------------------------
 .byte   TIE ,Cn1
 .byte   W96
@  #02 @067   ----------------------------------------
 .byte   W92
 .byte   W03
 .byte   EOT
 .byte   W01
@  #02 @068   ----------------------------------------
 .byte   N92 ,Dn1
 .byte   W96
@  #02 @069   ----------------------------------------
 .byte   Ds1
 .byte   W96
@  #02 @070   ----------------------------------------
 .byte   TIE ,En1
 .byte   W96
@  #02 @071   ----------------------------------------
 .byte   W92
 .byte   W03
 .byte   EOT
 .byte   W01
@  #02 @072   ----------------------------------------
 .byte   TIE ,Dn1
 .byte   W96
@  #02 @073   ----------------------------------------
 .byte   W92
 .byte   W03
 .byte   EOT
 .byte   W01
@  #02 @074   ----------------------------------------
 .byte   TIE ,Cn1
 .byte   W96
@  #02 @075   ----------------------------------------
 .byte   W92
 .byte   W03
 .byte   EOT
 .byte   W01
@  #02 @076   ----------------------------------------
 .byte   N92 ,Dn1
 .byte   W96
@  #02 @077   ----------------------------------------
 .byte   PATT
  .word Label_014B17F1
@  #02 @078   ----------------------------------------
 .byte   TIE ,En1 ,v100
 .byte   W96
@  #02 @079   ----------------------------------------
 .byte   W92
 .byte   W03
 .byte   EOT
 .byte   W01
@  #02 @080   ----------------------------------------
 .byte   TIE ,Dn1
 .byte   W96
@  #02 @081   ----------------------------------------
 .byte   W92
 .byte   W03
 .byte   EOT
 .byte   W01
@  #02 @082   ----------------------------------------
 .byte   TIE ,Cn1
 .byte   W96
@  #02 @083   ----------------------------------------
 .byte   W92
 .byte   W03
 .byte   EOT
 .byte   W01
@  #02 @084   ----------------------------------------
 .byte   N92 ,Dn1
 .byte   W96
@  #02 @085   ----------------------------------------
 .byte   Ds1
 .byte   W96
@  #02 @086   ----------------------------------------
 .byte   GOTO
  .word Label_014B17BE
 .byte   FINE

@**************** Track 3 (Midi-Chn.2) ****************@

song01_003:
@  #03 @000   ----------------------------------------
 .byte   KEYSH , song01_key+0
Label_014B106A:
 .byte   VOICE , 68
 .byte   PAN , c_v-22
 .byte   VOL , 26*song01_mvl/mxv
 .byte   BEND , c_v+0
 .byte   W96
@  #03 @001   ----------------------------------------
 .byte   W96
@  #03 @002   ----------------------------------------
 .byte   W96
@  #03 @003   ----------------------------------------
 .byte   W96
@  #03 @004   ----------------------------------------
 .byte   W96
@  #03 @005   ----------------------------------------
 .byte   W96
@  #03 @006   ----------------------------------------
 .byte   W96
@  #03 @007   ----------------------------------------
 .byte   W96
@  #03 @008   ----------------------------------------
 .byte   W96
@  #03 @009   ----------------------------------------
 .byte   W96
@  #03 @010   ----------------------------------------
 .byte   W96
@  #03 @011   ----------------------------------------
 .byte   W96
@  #03 @012   ----------------------------------------
 .byte   W96
@  #03 @013   ----------------------------------------
 .byte   W96
@  #03 @014   ----------------------------------------
 .byte   W96
@  #03 @015   ----------------------------------------
 .byte   W96
@  #03 @016   ----------------------------------------
 .byte   W96
@  #03 @017   ----------------------------------------
 .byte   W96
@  #03 @018   ----------------------------------------
 .byte   W96
@  #03 @019   ----------------------------------------
 .byte   W96
@  #03 @020   ----------------------------------------
 .byte   W96
@  #03 @021   ----------------------------------------
 .byte   W96
@  #03 @022   ----------------------------------------
 .byte   W24
 .byte   N92 ,Bn3 ,v100
 .byte   W72
@  #03 @023   ----------------------------------------
 .byte   W24
 .byte   N23
 .byte   W24
 .byte   An3
 .byte   W24
 .byte   Gn3
 .byte   W24
@  #03 @024   ----------------------------------------
 .byte   N92
 .byte   W96
@  #03 @025   ----------------------------------------
 .byte   N11
 .byte   W12
 .byte   An3
 .byte   W12
 .byte   Gn3
 .byte   W12
 .byte   Fs3
 .byte   W12
 .byte   Gn3
 .byte   W12
 .byte   Fs3
 .byte   W12
 .byte   En3
 .byte   W12
 .byte   Gn3
 .byte   W12
@  #03 @026   ----------------------------------------
 .byte   N23 ,An3
 .byte   W24
 .byte   Gn3
 .byte   W24
 .byte   Fs3
 .byte   W24
 .byte   Dn3
 .byte   W24
@  #03 @027   ----------------------------------------
Label_014B10AF:
 .byte   N23 ,An3 ,v100
 .byte   W24
 .byte   Bn3
 .byte   W24
 .byte   Dn4
 .byte   W24
 .byte   Bn3
 .byte   W24
 .byte   PEND 
@  #03 @028   ----------------------------------------
 .byte   N92 ,En4
 .byte   W96
@  #03 @029   ----------------------------------------
 .byte   N05 ,Gn4
 .byte   W06
 .byte   En4
 .byte   W06
 .byte   Dn4
 .byte   W06
 .byte   Bn3
 .byte   W06
 .byte   En4
 .byte   W06
 .byte   Dn4
 .byte   W06
 .byte   Bn3
 .byte   W06
 .byte   An3
 .byte   W06
 .byte   Fs4
 .byte   W06
 .byte   En4
 .byte   W06
 .byte   Cs4
 .byte   W06
 .byte   Bn3
 .byte   W06
 .byte   En4
 .byte   W06
 .byte   Cs4
 .byte   W06
 .byte   Bn3
 .byte   W06
 .byte   An3
 .byte   W06
@  #03 @030   ----------------------------------------
 .byte   Bn3
 .byte   W06
 .byte   N11 ,En4
 .byte   W12
 .byte   N05 ,Bn3
 .byte   W06
 .byte   N11 ,En4
 .byte   W12
 .byte   N05 ,Bn3
 .byte   W06
 .byte   N76 ,En4
 .byte   W54
@  #03 @031   ----------------------------------------
 .byte   W24
 .byte   N05 ,Gn4
 .byte   W06
 .byte   Fs4
 .byte   W06
 .byte   Gn4
 .byte   W06
 .byte   En4
 .byte   W06
 .byte   Fs4
 .byte   W06
 .byte   En4
 .byte   W06
 .byte   Fs4
 .byte   W06
 .byte   Dn4
 .byte   W06
 .byte   En4
 .byte   W06
 .byte   Dn4
 .byte   W06
 .byte   En4
 .byte   W06
 .byte   Bn3
 .byte   W06
@  #03 @032   ----------------------------------------
 .byte   N11 ,Dn4
 .byte   W12
 .byte   En4
 .byte   W12
 .byte   N92 ,Fs4
 .byte   W72
@  #03 @033   ----------------------------------------
 .byte   W24
 .byte   N23 ,Gn4
 .byte   W24
 .byte   An4
 .byte   W24
 .byte   Bn4
 .byte   W24
@  #03 @034   ----------------------------------------
 .byte   An4
 .byte   W24
 .byte   N11 ,Gn4
 .byte   W12
 .byte   Fs4
 .byte   W12
 .byte   N23 ,Gn4
 .byte   W24
 .byte   N11 ,Fs4
 .byte   W12
 .byte   En4
 .byte   W12
@  #03 @035   ----------------------------------------
 .byte   N05 ,Fs4
 .byte   W06
 .byte   Gn4
 .byte   W06
 .byte   Fs4
 .byte   W06
 .byte   Gn4
 .byte   W06
 .byte   Fs4
 .byte   W06
 .byte   En4
 .byte   W06
 .byte   Dn4
 .byte   W06
 .byte   Bn3
 .byte   W06
 .byte   Fs4
 .byte   W06
 .byte   Gn4
 .byte   W06
 .byte   Fs4
 .byte   W06
 .byte   Gn4
 .byte   W06
 .byte   An4
 .byte   W06
 .byte   Bn4
 .byte   W06
 .byte   Dn5
 .byte   W06
 .byte   Cn5
 .byte   W06
@  #03 @036   ----------------------------------------
 .byte   N44 ,Bn4
 .byte   W48
 .byte   N11
 .byte   W12
 .byte   An4
 .byte   W12
 .byte   N05 ,Bn4
 .byte   W06
 .byte   Cn5
 .byte   W06
 .byte   Bn4
 .byte   W06
 .byte   Cn5
 .byte   W06
@  #03 @037   ----------------------------------------
 .byte   Bn4
 .byte   W06
 .byte   An4
 .byte   W06
 .byte   Gn4
 .byte   W06
 .byte   Fs4
 .byte   W06
 .byte   An4
 .byte   W06
 .byte   Gn4
 .byte   W06
 .byte   Fs4
 .byte   W06
 .byte   En4
 .byte   W06
 .byte   Gn4
 .byte   W06
 .byte   Fs4
 .byte   W06
 .byte   En4
 .byte   W06
 .byte   Dn4
 .byte   W06
 .byte   Fs4
 .byte   W06
 .byte   En4
 .byte   W06
 .byte   Dn4
 .byte   W06
 .byte   Bn3
 .byte   W06
@  #03 @038   ----------------------------------------
 .byte   W96
@  #03 @039   ----------------------------------------
 .byte   W96
@  #03 @040   ----------------------------------------
 .byte   W96
@  #03 @041   ----------------------------------------
 .byte   W96
@  #03 @042   ----------------------------------------
 .byte   W96
@  #03 @043   ----------------------------------------
 .byte   W96
@  #03 @044   ----------------------------------------
 .byte   W96
@  #03 @045   ----------------------------------------
 .byte   W96
@  #03 @046   ----------------------------------------
Label_014B1181:
 .byte   N23 ,En4 ,v100
 .byte   W24
 .byte   Ds4
 .byte   W24
 .byte   En4
 .byte   W24
 .byte   An4
 .byte   W24
 .byte   PEND 
@  #03 @047   ----------------------------------------
Label_014B118C:
 .byte   N23 ,Gn4 ,v100
 .byte   W24
 .byte   Fs4
 .byte   W24
 .byte   Gn4
 .byte   W24
 .byte   An4
 .byte   W24
 .byte   PEND 
@  #03 @048   ----------------------------------------
Label_014B1197:
 .byte   N05 ,Fs4 ,v100
 .byte   W06
 .byte   Dn4
 .byte   W06
 .byte   N80 ,Bn3
 .byte   W84
 .byte   PEND 
@  #03 @049   ----------------------------------------
 .byte   PATT
  .word Label_014B10AF
@  #03 @050   ----------------------------------------
Label_014B11A6:
 .byte   N44 ,En4 ,v100
 .byte   W48
 .byte   N23 ,Fs4
 .byte   W24
 .byte   En4
 .byte   W24
 .byte   PEND 
@  #03 @051   ----------------------------------------
Label_014B11B0:
 .byte   N23 ,Gn4 ,v100
 .byte   W24
 .byte   Fs4
 .byte   W24
 .byte   An4
 .byte   W24
 .byte   Bn4
 .byte   W24
 .byte   PEND 
@  #03 @052   ----------------------------------------
 .byte   N92 ,Dn5
 .byte   W96
@  #03 @053   ----------------------------------------
 .byte   Ds5
 .byte   W96
@  #03 @054   ----------------------------------------
 .byte   N11 ,En4
 .byte   W96
@  #03 @055   ----------------------------------------
 .byte   W96
@  #03 @056   ----------------------------------------
 .byte   W96
@  #03 @057   ----------------------------------------
 .byte   W96
@  #03 @058   ----------------------------------------
 .byte   W96
@  #03 @059   ----------------------------------------
 .byte   W96
@  #03 @060   ----------------------------------------
 .byte   W96
@  #03 @061   ----------------------------------------
 .byte   W96
@  #03 @062   ----------------------------------------
 .byte   W96
@  #03 @063   ----------------------------------------
 .byte   W96
@  #03 @064   ----------------------------------------
 .byte   W96
@  #03 @065   ----------------------------------------
 .byte   W96
@  #03 @066   ----------------------------------------
 .byte   W96
@  #03 @067   ----------------------------------------
 .byte   W96
@  #03 @068   ----------------------------------------
 .byte   W96
@  #03 @069   ----------------------------------------
 .byte   W96
@  #03 @070   ----------------------------------------
 .byte   W96
@  #03 @071   ----------------------------------------
 .byte   W96
@  #03 @072   ----------------------------------------
 .byte   W96
@  #03 @073   ----------------------------------------
 .byte   W96
@  #03 @074   ----------------------------------------
 .byte   W96
@  #03 @075   ----------------------------------------
 .byte   W96
@  #03 @076   ----------------------------------------
 .byte   W96
@  #03 @077   ----------------------------------------
 .byte   W96
@  #03 @078   ----------------------------------------
 .byte   PATT
  .word Label_014B1181
@  #03 @079   ----------------------------------------
 .byte   PATT
  .word Label_014B118C
@  #03 @080   ----------------------------------------
 .byte   PATT
  .word Label_014B1197
@  #03 @081   ----------------------------------------
 .byte   PATT
  .word Label_014B10AF
@  #03 @082   ----------------------------------------
 .byte   PATT
  .word Label_014B11A6
@  #03 @083   ----------------------------------------
 .byte   PATT
  .word Label_014B11B0
@  #03 @084   ----------------------------------------
 .byte   N92 ,Dn5 ,v100
 .byte   W96
@  #03 @085   ----------------------------------------
 .byte   Ds5
 .byte   W96
@  #03 @086   ----------------------------------------
 .byte   GOTO
  .word Label_014B106A
 .byte   FINE

@**************** Track 4 (Midi-Chn.3) ****************@

song01_004:
@  #04 @000   ----------------------------------------
 .byte   KEYSH , song01_key+0
Label_014B1F0A:
 .byte   VOICE , 2
 .byte   PAN , c_v+21
 .byte   VOL , 28*song01_mvl/mxv
 .byte   BEND , c_v+0
 .byte   W96
@  #04 @001   ----------------------------------------
 .byte   W96
@  #04 @002   ----------------------------------------
 .byte   W96
@  #04 @003   ----------------------------------------
 .byte   W96
@  #04 @004   ----------------------------------------
 .byte   W96
@  #04 @005   ----------------------------------------
 .byte   W96
@  #04 @006   ----------------------------------------
Label_014B1F18:
 .byte   N23 ,En3 ,v100
 .byte   W24
 .byte   Ds3
 .byte   W24
 .byte   En3
 .byte   W24
 .byte   An3
 .byte   W24
 .byte   PEND 
@  #04 @007   ----------------------------------------
Label_014B1F23:
 .byte   N23 ,Gn3 ,v100
 .byte   W24
 .byte   Fs3
 .byte   W24
 .byte   Gn3
 .byte   W24
 .byte   An3
 .byte   W24
 .byte   PEND 
@  #04 @008   ----------------------------------------
 .byte   TIE ,Fs3
 .byte   W96
@  #04 @009   ----------------------------------------
 .byte   W23
 .byte   EOT
 .byte   W01
 .byte   N23 ,Gn3
 .byte   W24
 .byte   N05 ,Fs3
 .byte   W06
 .byte   Gn3
 .byte   W06
 .byte   Fs3
 .byte   W06
 .byte   Gn3
 .byte   W06
 .byte   Fs3
 .byte   W06
 .byte   En3
 .byte   W06
 .byte   Dn3
 .byte   W06
 .byte   Bn2
 .byte   W06
@  #04 @010   ----------------------------------------
Label_014B1F48:
 .byte   N05 ,An2 ,v100
 .byte   W06
 .byte   Dn3
 .byte   W06
 .byte   N11 ,En3
 .byte   W12
 .byte   N05 ,Dn3
 .byte   W06
 .byte   N11 ,En3
 .byte   W12
 .byte   N05 ,Dn3
 .byte   W06
 .byte   N68 ,En3
 .byte   W48
 .byte   PEND 
@  #04 @011   ----------------------------------------
Label_014B1F5E:
 .byte   W24
 .byte   N23 ,Fs3 ,v100
 .byte   W24
 .byte   Gn3
 .byte   W24
 .byte   An3
 .byte   W24
 .byte   PEND 
@  #04 @012   ----------------------------------------
Label_014B1F68:
 .byte   N05 ,Fs3 ,v100
 .byte   W06
 .byte   Gn3
 .byte   W06
 .byte   N56 ,Fs3
 .byte   W60
 .byte   N23 ,Gn3
 .byte   W24
 .byte   PEND 
@  #04 @013   ----------------------------------------
Label_014B1F75:
 .byte   N11 ,An3 ,v100
 .byte   W12
 .byte   Bn3
 .byte   W12
 .byte   An3
 .byte   W12
 .byte   Gn3
 .byte   W12
 .byte   An3
 .byte   W12
 .byte   Bn3
 .byte   W12
 .byte   Gn3
 .byte   W12
 .byte   Fs3
 .byte   W12
 .byte   PEND 
@  #04 @014   ----------------------------------------
 .byte   PATT
  .word Label_014B1F18
@  #04 @015   ----------------------------------------
 .byte   PATT
  .word Label_014B1F23
@  #04 @016   ----------------------------------------
Label_014B1F92:
 .byte   N05 ,Fs3 ,v100
 .byte   W06
 .byte   Dn3
 .byte   W06
 .byte   N80 ,Bn2
 .byte   W84
 .byte   PEND 
@  #04 @017   ----------------------------------------
Label_014B1F9C:
 .byte   N23 ,An2 ,v100
 .byte   W24
 .byte   Bn2
 .byte   W24
 .byte   Dn3
 .byte   W24
 .byte   Bn2
 .byte   W24
 .byte   PEND 
@  #04 @018   ----------------------------------------
Label_014B1FA7:
 .byte   N44 ,En3 ,v100
 .byte   W48
 .byte   N23 ,Fs3
 .byte   W24
 .byte   En3
 .byte   W24
 .byte   PEND 
@  #04 @019   ----------------------------------------
Label_014B1FB1:
 .byte   N23 ,Gn3 ,v100
 .byte   W24
 .byte   Fs3
 .byte   W24
 .byte   An3
 .byte   W24
 .byte   Bn3
 .byte   W24
 .byte   PEND 
@  #04 @020   ----------------------------------------
 .byte   N92 ,Dn4
 .byte   W96
@  #04 @021   ----------------------------------------
 .byte   Ds4
 .byte   W96
@  #04 @022   ----------------------------------------
 .byte   N11 ,En4
 .byte   W96
@  #04 @023   ----------------------------------------
 .byte   W96
@  #04 @024   ----------------------------------------
 .byte   W96
@  #04 @025   ----------------------------------------
 .byte   W96
@  #04 @026   ----------------------------------------
 .byte   W96
@  #04 @027   ----------------------------------------
 .byte   W96
@  #04 @028   ----------------------------------------
 .byte   W96
@  #04 @029   ----------------------------------------
 .byte   W96
@  #04 @030   ----------------------------------------
 .byte   N05 ,Bn2
 .byte   W06
 .byte   N11 ,En3
 .byte   W12
 .byte   N05 ,Bn2
 .byte   W06
 .byte   N11 ,En3
 .byte   W12
 .byte   N05 ,Bn2
 .byte   W06
 .byte   N76 ,En3
 .byte   W54
@  #04 @031   ----------------------------------------
 .byte   W24
 .byte   N05 ,Gn3
 .byte   W06
 .byte   Fs3
 .byte   W06
 .byte   Gn3
 .byte   W06
 .byte   En3
 .byte   W06
 .byte   Fs3
 .byte   W06
 .byte   En3
 .byte   W06
 .byte   Fs3
 .byte   W06
 .byte   Dn3
 .byte   W06
 .byte   En3
 .byte   W06
 .byte   Dn3
 .byte   W06
 .byte   En3
 .byte   W06
 .byte   Bn2
 .byte   W06
@  #04 @032   ----------------------------------------
 .byte   N11 ,Dn3
 .byte   W12
 .byte   En3
 .byte   W12
 .byte   N92 ,Fs3
 .byte   W72
@  #04 @033   ----------------------------------------
 .byte   W24
 .byte   N23 ,Gn3
 .byte   W24
 .byte   An3
 .byte   W24
 .byte   Bn3
 .byte   W24
@  #04 @034   ----------------------------------------
 .byte   An3
 .byte   W24
 .byte   N11 ,Gn3
 .byte   W12
 .byte   Fs3
 .byte   W12
 .byte   N23 ,Gn3
 .byte   W24
 .byte   N11 ,Fs3
 .byte   W12
 .byte   En3
 .byte   W12
@  #04 @035   ----------------------------------------
 .byte   N05 ,Fs3
 .byte   W06
 .byte   Gn3
 .byte   W06
 .byte   Fs3
 .byte   W06
 .byte   Gn3
 .byte   W06
 .byte   Fs3
 .byte   W06
 .byte   En3
 .byte   W06
 .byte   Dn3
 .byte   W06
 .byte   Bn2
 .byte   W06
 .byte   Fs3
 .byte   W06
 .byte   Gn3
 .byte   W06
 .byte   Fs3
 .byte   W06
 .byte   Gn3
 .byte   W06
 .byte   An3
 .byte   W06
 .byte   Bn3
 .byte   W06
 .byte   Dn4
 .byte   W06
 .byte   Cn4
 .byte   W06
@  #04 @036   ----------------------------------------
 .byte   N44 ,Bn3
 .byte   W48
 .byte   N11
 .byte   W12
 .byte   An3
 .byte   W12
 .byte   N05 ,Bn3
 .byte   W06
 .byte   Cn4
 .byte   W06
 .byte   Bn3
 .byte   W06
 .byte   Cn4
 .byte   W06
@  #04 @037   ----------------------------------------
 .byte   Bn3
 .byte   W06
 .byte   An3
 .byte   W06
 .byte   Gn3
 .byte   W06
 .byte   Fs3
 .byte   W06
 .byte   En3
 .byte   W06
 .byte   Dn3
 .byte   W06
 .byte   Cn3
 .byte   W06
 .byte   Bn2
 .byte   W06
 .byte   Cn3
 .byte   W06
 .byte   Dn3
 .byte   W06
 .byte   Cn3
 .byte   W06
 .byte   Dn3
 .byte   W06
 .byte   En3
 .byte   W06
 .byte   Dn3
 .byte   W06
 .byte   En3
 .byte   W06
 .byte   Fs3
 .byte   W06
@  #04 @038   ----------------------------------------
 .byte   PATT
  .word Label_014B1F18
@  #04 @039   ----------------------------------------
 .byte   PATT
  .word Label_014B1F23
@  #04 @040   ----------------------------------------
 .byte   TIE ,Fs3 ,v100
 .byte   W96
@  #04 @041   ----------------------------------------
 .byte   W23
 .byte   EOT
 .byte   W01
 .byte   N23 ,Gn3
 .byte   W24
 .byte   N05 ,Fs3
 .byte   W06
 .byte   Gn3
 .byte   W06
 .byte   Fs3
 .byte   W06
 .byte   Gn3
 .byte   W06
 .byte   Fs3
 .byte   W06
 .byte   En3
 .byte   W06
 .byte   Dn3
 .byte   W06
 .byte   Bn2
 .byte   W06
@  #04 @042   ----------------------------------------
 .byte   PATT
  .word Label_014B1F48
@  #04 @043   ----------------------------------------
 .byte   PATT
  .word Label_014B1F5E
@  #04 @044   ----------------------------------------
 .byte   PATT
  .word Label_014B1F68
@  #04 @045   ----------------------------------------
 .byte   PATT
  .word Label_014B1F75
@  #04 @046   ----------------------------------------
 .byte   PATT
  .word Label_014B1F18
@  #04 @047   ----------------------------------------
 .byte   PATT
  .word Label_014B1F23
@  #04 @048   ----------------------------------------
 .byte   PATT
  .word Label_014B1F92
@  #04 @049   ----------------------------------------
 .byte   PATT
  .word Label_014B1F9C
@  #04 @050   ----------------------------------------
 .byte   PATT
  .word Label_014B1FA7
@  #04 @051   ----------------------------------------
 .byte   PATT
  .word Label_014B1FB1
@  #04 @052   ----------------------------------------
 .byte   N92 ,Dn4 ,v100
 .byte   W96
@  #04 @053   ----------------------------------------
 .byte   Ds4
 .byte   W96
@  #04 @054   ----------------------------------------
 .byte   N11 ,En4
 .byte   W96
@  #04 @055   ----------------------------------------
 .byte   W96
@  #04 @056   ----------------------------------------
 .byte   W96
@  #04 @057   ----------------------------------------
 .byte   W96
@  #04 @058   ----------------------------------------
 .byte   W96
@  #04 @059   ----------------------------------------
 .byte   W96
@  #04 @060   ----------------------------------------
 .byte   W96
@  #04 @061   ----------------------------------------
 .byte   W96
@  #04 @062   ----------------------------------------
 .byte   W96
@  #04 @063   ----------------------------------------
 .byte   W96
@  #04 @064   ----------------------------------------
 .byte   W96
@  #04 @065   ----------------------------------------
 .byte   W96
@  #04 @066   ----------------------------------------
 .byte   W96
@  #04 @067   ----------------------------------------
 .byte   W96
@  #04 @068   ----------------------------------------
 .byte   W96
@  #04 @069   ----------------------------------------
 .byte   W96
@  #04 @070   ----------------------------------------
 .byte   W96
@  #04 @071   ----------------------------------------
 .byte   W96
@  #04 @072   ----------------------------------------
 .byte   W96
@  #04 @073   ----------------------------------------
 .byte   W96
@  #04 @074   ----------------------------------------
 .byte   W96
@  #04 @075   ----------------------------------------
 .byte   W96
@  #04 @076   ----------------------------------------
 .byte   W96
@  #04 @077   ----------------------------------------
 .byte   W96
@  #04 @078   ----------------------------------------
 .byte   PATT
  .word Label_014B1F18
@  #04 @079   ----------------------------------------
 .byte   PATT
  .word Label_014B1F23
@  #04 @080   ----------------------------------------
 .byte   PATT
  .word Label_014B1F92
@  #04 @081   ----------------------------------------
 .byte   PATT
  .word Label_014B1F9C
@  #04 @082   ----------------------------------------
 .byte   PATT
  .word Label_014B1FA7
@  #04 @083   ----------------------------------------
 .byte   PATT
  .word Label_014B1FB1
@  #04 @084   ----------------------------------------
 .byte   N92 ,Dn4 ,v100
 .byte   W96
@  #04 @085   ----------------------------------------
 .byte   Ds4
 .byte   W96
@  #04 @086   ----------------------------------------
 .byte   GOTO
  .word Label_014B1F0A
 .byte   FINE

@**************** Track 5 (Midi-Chn.4) ****************@

song01_005:
@  #05 @000   ----------------------------------------
 .byte   KEYSH , song01_key+0
Label_014B1C56:
 .byte   VOICE , 11
 .byte   PAN , c_v-48
 .byte   VOL , 19*song01_mvl/mxv
 .byte   BEND , c_v+0
 .byte   W96
@  #05 @001   ----------------------------------------
 .byte   W96
@  #05 @002   ----------------------------------------
 .byte   W96
@  #05 @003   ----------------------------------------
 .byte   W96
@  #05 @004   ----------------------------------------
 .byte   W96
@  #05 @005   ----------------------------------------
 .byte   W96
@  #05 @006   ----------------------------------------
 .byte   W96
@  #05 @007   ----------------------------------------
 .byte   W96
@  #05 @008   ----------------------------------------
 .byte   W96
@  #05 @009   ----------------------------------------
 .byte   W96
@  #05 @010   ----------------------------------------
 .byte   W96
@  #05 @011   ----------------------------------------
 .byte   W96
@  #05 @012   ----------------------------------------
 .byte   W96
@  #05 @013   ----------------------------------------
 .byte   W96
@  #05 @014   ----------------------------------------
 .byte   W96
@  #05 @015   ----------------------------------------
 .byte   W96
@  #05 @016   ----------------------------------------
 .byte   W96
@  #05 @017   ----------------------------------------
 .byte   W96
@  #05 @018   ----------------------------------------
 .byte   W96
@  #05 @019   ----------------------------------------
 .byte   W96
@  #05 @020   ----------------------------------------
 .byte   W96
@  #05 @021   ----------------------------------------
 .byte   W96
@  #05 @022   ----------------------------------------
 .byte   W96
@  #05 @023   ----------------------------------------
 .byte   W96
@  #05 @024   ----------------------------------------
 .byte   W96
@  #05 @025   ----------------------------------------
 .byte   W96
@  #05 @026   ----------------------------------------
 .byte   W96
@  #05 @027   ----------------------------------------
 .byte   W96
@  #05 @028   ----------------------------------------
 .byte   W96
@  #05 @029   ----------------------------------------
 .byte   W96
@  #05 @030   ----------------------------------------
 .byte   W96
@  #05 @031   ----------------------------------------
 .byte   W96
@  #05 @032   ----------------------------------------
 .byte   W96
@  #05 @033   ----------------------------------------
 .byte   W96
@  #05 @034   ----------------------------------------
 .byte   W96
@  #05 @035   ----------------------------------------
 .byte   W96
@  #05 @036   ----------------------------------------
 .byte   W96
@  #05 @037   ----------------------------------------
 .byte   W96
@  #05 @038   ----------------------------------------
 .byte   W96
@  #05 @039   ----------------------------------------
 .byte   W96
@  #05 @040   ----------------------------------------
 .byte   W96
@  #05 @041   ----------------------------------------
 .byte   W96
@  #05 @042   ----------------------------------------
 .byte   W96
@  #05 @043   ----------------------------------------
 .byte   W96
@  #05 @044   ----------------------------------------
 .byte   W96
@  #05 @045   ----------------------------------------
 .byte   W96
@  #05 @046   ----------------------------------------
 .byte   W96
@  #05 @047   ----------------------------------------
 .byte   W96
@  #05 @048   ----------------------------------------
 .byte   W96
@  #05 @049   ----------------------------------------
 .byte   W96
@  #05 @050   ----------------------------------------
 .byte   W96
@  #05 @051   ----------------------------------------
 .byte   W96
@  #05 @052   ----------------------------------------
 .byte   W96
@  #05 @053   ----------------------------------------
 .byte   W96
@  #05 @054   ----------------------------------------
 .byte   W96
@  #05 @055   ----------------------------------------
 .byte   W96
@  #05 @056   ----------------------------------------
 .byte   W96
@  #05 @057   ----------------------------------------
 .byte   W96
@  #05 @058   ----------------------------------------
 .byte   W96
@  #05 @059   ----------------------------------------
 .byte   W96
@  #05 @060   ----------------------------------------
 .byte   W96
@  #05 @061   ----------------------------------------
 .byte   W96
@  #05 @062   ----------------------------------------
 .byte   W96
@  #05 @063   ----------------------------------------
 .byte   W96
@  #05 @064   ----------------------------------------
 .byte   W96
@  #05 @065   ----------------------------------------
 .byte   W96
@  #05 @066   ----------------------------------------
 .byte   W96
@  #05 @067   ----------------------------------------
 .byte   W96
@  #05 @068   ----------------------------------------
 .byte   W96
@  #05 @069   ----------------------------------------
 .byte   W96
@  #05 @070   ----------------------------------------
Label_014B1CA4:
 .byte   N23 ,En4 ,v100
 .byte   W24
 .byte   N23
 .byte   W36
 .byte   N23
 .byte   W36
 .byte   PEND 
@  #05 @071   ----------------------------------------
 .byte   PATT
  .word Label_014B1CA4
@  #05 @072   ----------------------------------------
Label_014B1CB2:
 .byte   N23 ,Dn4 ,v100
 .byte   W24
 .byte   N23
 .byte   W36
 .byte   N23
 .byte   W36
 .byte   PEND 
@  #05 @073   ----------------------------------------
 .byte   PATT
  .word Label_014B1CB2
@  #05 @074   ----------------------------------------
Label_014B1CC0:
 .byte   N23 ,Cn4 ,v100
 .byte   W24
 .byte   N23
 .byte   W36
 .byte   N23
 .byte   W36
 .byte   PEND 
@  #05 @075   ----------------------------------------
 .byte   PATT
  .word Label_014B1CC0
@  #05 @076   ----------------------------------------
 .byte   PATT
  .word Label_014B1CB2
@  #05 @077   ----------------------------------------
 .byte   N23 ,Gn4 ,v100
 .byte   W24
 .byte   N23
 .byte   W36
 .byte   Fs4
 .byte   W36
@  #05 @078   ----------------------------------------
 .byte   PATT
  .word Label_014B1CA4
@  #05 @079   ----------------------------------------
 .byte   PATT
  .word Label_014B1CA4
@  #05 @080   ----------------------------------------
 .byte   PATT
  .word Label_014B1CB2
@  #05 @081   ----------------------------------------
 .byte   PATT
  .word Label_014B1CB2
@  #05 @082   ----------------------------------------
 .byte   PATT
  .word Label_014B1CC0
@  #05 @083   ----------------------------------------
 .byte   PATT
  .word Label_014B1CC0
@  #05 @084   ----------------------------------------
 .byte   PATT
  .word Label_014B1CB2
@  #05 @085   ----------------------------------------
 .byte   N23 ,Ds4 ,v100
 .byte   W24
 .byte   N23
 .byte   W36
 .byte   N23
 .byte   W36
@  #05 @086   ----------------------------------------
 .byte   GOTO
  .word Label_014B1C56
 .byte   FINE

@**************** Track 6 (Midi-Chn.5) ****************@

song01_006:
@  #06 @000   ----------------------------------------
 .byte   KEYSH , song01_key+0
Label_015261A2:
 .byte   VOICE , 75
 .byte   PAN , c_v-11
 .byte   VOL , 25*song01_mvl/mxv
 .byte   BEND , c_v+0
 .byte   W96
@  #06 @001   ----------------------------------------
 .byte   W96
@  #06 @002   ----------------------------------------
 .byte   W96
@  #06 @003   ----------------------------------------
 .byte   W96
@  #06 @004   ----------------------------------------
 .byte   W96
@  #06 @005   ----------------------------------------
 .byte   W96
@  #06 @006   ----------------------------------------
Label_015261B0:
 .byte   N23 ,En3 ,v100
 .byte   W24
 .byte   Ds3
 .byte   W24
 .byte   En3
 .byte   W24
 .byte   An3
 .byte   W24
 .byte   PEND 
@  #06 @007   ----------------------------------------
Label_015261BB:
 .byte   N23 ,Gn3 ,v100
 .byte   W24
 .byte   Fs3
 .byte   W24
 .byte   Gn3
 .byte   W24
 .byte   An3
 .byte   W24
 .byte   PEND 
@  #06 @008   ----------------------------------------
 .byte   TIE ,Fs3
 .byte   W96
@  #06 @009   ----------------------------------------
 .byte   W23
 .byte   EOT
 .byte   W01
 .byte   N23 ,Gn3
 .byte   W24
 .byte   N05 ,Fs3
 .byte   W06
 .byte   Gn3
 .byte   W06
 .byte   Fs3
 .byte   W06
 .byte   Gn3
 .byte   W06
 .byte   Fs3
 .byte   W06
 .byte   En3
 .byte   W06
 .byte   Dn3
 .byte   W06
 .byte   Bn2
 .byte   W06
@  #06 @010   ----------------------------------------
Label_015261E0:
 .byte   N05 ,An2 ,v100
 .byte   W06
 .byte   Dn3
 .byte   W06
 .byte   N11 ,En3
 .byte   W12
 .byte   N05 ,Dn3
 .byte   W06
 .byte   N11 ,En3
 .byte   W12
 .byte   N05 ,Dn3
 .byte   W06
 .byte   N68 ,En3
 .byte   W48
 .byte   PEND 
@  #06 @011   ----------------------------------------
Label_015261F6:
 .byte   W24
 .byte   N23 ,Fs3 ,v100
 .byte   W24
 .byte   Gn3
 .byte   W24
 .byte   An3
 .byte   W24
 .byte   PEND 
@  #06 @012   ----------------------------------------
Label_01526200:
 .byte   N05 ,Fs3 ,v100
 .byte   W06
 .byte   Gn3
 .byte   W06
 .byte   N56 ,Fs3
 .byte   W60
 .byte   N23 ,Gn3
 .byte   W24
 .byte   PEND 
@  #06 @013   ----------------------------------------
Label_0152620D:
 .byte   N11 ,An3 ,v100
 .byte   W12
 .byte   Bn3
 .byte   W12
 .byte   An3
 .byte   W12
 .byte   Gn3
 .byte   W12
 .byte   An3
 .byte   W12
 .byte   Bn3
 .byte   W12
 .byte   Gn3
 .byte   W12
 .byte   Fs3
 .byte   W12
 .byte   PEND 
@  #06 @014   ----------------------------------------
 .byte   PATT
  .word Label_015261B0
@  #06 @015   ----------------------------------------
 .byte   PATT
  .word Label_015261BB
@  #06 @016   ----------------------------------------
Label_0152622A:
 .byte   N05 ,Fs3 ,v100
 .byte   W06
 .byte   Dn3
 .byte   W06
 .byte   N80 ,Bn2
 .byte   W84
 .byte   PEND 
@  #06 @017   ----------------------------------------
Label_01526234:
 .byte   N23 ,An2 ,v100
 .byte   W24
 .byte   Bn2
 .byte   W24
 .byte   Dn3
 .byte   W24
 .byte   Bn2
 .byte   W24
 .byte   PEND 
@  #06 @018   ----------------------------------------
Label_0152623F:
 .byte   N44 ,En3 ,v100
 .byte   W48
 .byte   N23 ,Fs3
 .byte   W24
 .byte   En3
 .byte   W24
 .byte   PEND 
@  #06 @019   ----------------------------------------
Label_01526249:
 .byte   N23 ,Gn3 ,v100
 .byte   W24
 .byte   Fs3
 .byte   W24
 .byte   An3
 .byte   W24
 .byte   Bn3
 .byte   W24
 .byte   PEND 
@  #06 @020   ----------------------------------------
 .byte   N92 ,Dn4
 .byte   W96
@  #06 @021   ----------------------------------------
 .byte   Ds4
 .byte   W96
@  #06 @022   ----------------------------------------
 .byte   N11 ,En4
 .byte   W96
@  #06 @023   ----------------------------------------
 .byte   W96
@  #06 @024   ----------------------------------------
 .byte   W96
@  #06 @025   ----------------------------------------
 .byte   W96
@  #06 @026   ----------------------------------------
 .byte   W96
@  #06 @027   ----------------------------------------
 .byte   W96
@  #06 @028   ----------------------------------------
 .byte   W96
@  #06 @029   ----------------------------------------
 .byte   W96
@  #06 @030   ----------------------------------------
 .byte   N05 ,Bn2
 .byte   W06
 .byte   N11 ,En3
 .byte   W12
 .byte   N05 ,Bn2
 .byte   W06
 .byte   N11 ,En3
 .byte   W12
 .byte   N05 ,Bn2
 .byte   W06
 .byte   N76 ,En3
 .byte   W54
@  #06 @031   ----------------------------------------
 .byte   W24
 .byte   N05 ,Gn3
 .byte   W06
 .byte   Fs3
 .byte   W06
 .byte   Gn3
 .byte   W06
 .byte   En3
 .byte   W06
 .byte   Fs3
 .byte   W06
 .byte   En3
 .byte   W06
 .byte   Fs3
 .byte   W06
 .byte   Dn3
 .byte   W06
 .byte   En3
 .byte   W06
 .byte   Dn3
 .byte   W06
 .byte   En3
 .byte   W06
 .byte   Bn2
 .byte   W06
@  #06 @032   ----------------------------------------
 .byte   N11 ,Dn3
 .byte   W12
 .byte   En3
 .byte   W12
 .byte   N92 ,Fs3
 .byte   W72
@  #06 @033   ----------------------------------------
 .byte   W24
 .byte   N23 ,Gn3
 .byte   W24
 .byte   An3
 .byte   W24
 .byte   Bn3
 .byte   W24
@  #06 @034   ----------------------------------------
 .byte   An3
 .byte   W24
 .byte   N11 ,Gn3
 .byte   W12
 .byte   Fs3
 .byte   W12
 .byte   N23 ,Gn3
 .byte   W24
 .byte   N11 ,Fs3
 .byte   W12
 .byte   En3
 .byte   W12
@  #06 @035   ----------------------------------------
 .byte   N05 ,Fs3
 .byte   W06
 .byte   Gn3
 .byte   W06
 .byte   Fs3
 .byte   W06
 .byte   Gn3
 .byte   W06
 .byte   Fs3
 .byte   W06
 .byte   En3
 .byte   W06
 .byte   Dn3
 .byte   W06
 .byte   Bn2
 .byte   W06
 .byte   Fs3
 .byte   W06
 .byte   Gn3
 .byte   W06
 .byte   Fs3
 .byte   W06
 .byte   Gn3
 .byte   W06
 .byte   An3
 .byte   W06
 .byte   Bn3
 .byte   W06
 .byte   Dn4
 .byte   W06
 .byte   Cn4
 .byte   W06
@  #06 @036   ----------------------------------------
 .byte   N44 ,Bn3
 .byte   W48
 .byte   N11
 .byte   W12
 .byte   An3
 .byte   W12
 .byte   N05 ,Bn3
 .byte   W06
 .byte   Cn4
 .byte   W06
 .byte   Bn3
 .byte   W06
 .byte   Cn4
 .byte   W06
@  #06 @037   ----------------------------------------
 .byte   Bn3
 .byte   W06
 .byte   An3
 .byte   W06
 .byte   Gn3
 .byte   W06
 .byte   Fs3
 .byte   W06
 .byte   En3
 .byte   W06
 .byte   Dn3
 .byte   W06
 .byte   Cn3
 .byte   W06
 .byte   Bn2
 .byte   W06
 .byte   Cn3
 .byte   W06
 .byte   Dn3
 .byte   W06
 .byte   Cn3
 .byte   W06
 .byte   Dn3
 .byte   W06
 .byte   En3
 .byte   W06
 .byte   Dn3
 .byte   W06
 .byte   En3
 .byte   W06
 .byte   Fs3
 .byte   W06
@  #06 @038   ----------------------------------------
 .byte   PATT
  .word Label_015261B0
@  #06 @039   ----------------------------------------
 .byte   PATT
  .word Label_015261BB
@  #06 @040   ----------------------------------------
 .byte   TIE ,Fs3 ,v100
 .byte   W96
@  #06 @041   ----------------------------------------
 .byte   W23
 .byte   EOT
 .byte   W01
 .byte   N23 ,Gn3
 .byte   W24
 .byte   N05 ,Fs3
 .byte   W06
 .byte   Gn3
 .byte   W06
 .byte   Fs3
 .byte   W06
 .byte   Gn3
 .byte   W06
 .byte   Fs3
 .byte   W06
 .byte   En3
 .byte   W06
 .byte   Dn3
 .byte   W06
 .byte   Bn2
 .byte   W06
@  #06 @042   ----------------------------------------
 .byte   PATT
  .word Label_015261E0
@  #06 @043   ----------------------------------------
 .byte   PATT
  .word Label_015261F6
@  #06 @044   ----------------------------------------
 .byte   PATT
  .word Label_01526200
@  #06 @045   ----------------------------------------
 .byte   PATT
  .word Label_0152620D
@  #06 @046   ----------------------------------------
 .byte   PATT
  .word Label_015261B0
@  #06 @047   ----------------------------------------
 .byte   PATT
  .word Label_015261BB
@  #06 @048   ----------------------------------------
 .byte   PATT
  .word Label_0152622A
@  #06 @049   ----------------------------------------
 .byte   PATT
  .word Label_01526234
@  #06 @050   ----------------------------------------
 .byte   PATT
  .word Label_0152623F
@  #06 @051   ----------------------------------------
 .byte   PATT
  .word Label_01526249
@  #06 @052   ----------------------------------------
 .byte   N92 ,Dn4 ,v100
 .byte   W96
@  #06 @053   ----------------------------------------
 .byte   Ds4
 .byte   W96
@  #06 @054   ----------------------------------------
 .byte   N11 ,En4
 .byte   W96
@  #06 @055   ----------------------------------------
 .byte   W96
@  #06 @056   ----------------------------------------
 .byte   W96
@  #06 @057   ----------------------------------------
 .byte   W96
@  #06 @058   ----------------------------------------
 .byte   W96
@  #06 @059   ----------------------------------------
 .byte   W96
@  #06 @060   ----------------------------------------
 .byte   W96
@  #06 @061   ----------------------------------------
 .byte   W96
@  #06 @062   ----------------------------------------
 .byte   W96
@  #06 @063   ----------------------------------------
 .byte   W96
@  #06 @064   ----------------------------------------
 .byte   W96
@  #06 @065   ----------------------------------------
 .byte   W96
@  #06 @066   ----------------------------------------
 .byte   W96
@  #06 @067   ----------------------------------------
 .byte   W96
@  #06 @068   ----------------------------------------
 .byte   W96
@  #06 @069   ----------------------------------------
 .byte   W96
@  #06 @070   ----------------------------------------
 .byte   W96
@  #06 @071   ----------------------------------------
 .byte   W96
@  #06 @072   ----------------------------------------
 .byte   W96
@  #06 @073   ----------------------------------------
 .byte   W96
@  #06 @074   ----------------------------------------
 .byte   W96
@  #06 @075   ----------------------------------------
 .byte   W96
@  #06 @076   ----------------------------------------
 .byte   W96
@  #06 @077   ----------------------------------------
 .byte   W96
@  #06 @078   ----------------------------------------
 .byte   PATT
  .word Label_015261B0
@  #06 @079   ----------------------------------------
 .byte   PATT
  .word Label_015261BB
@  #06 @080   ----------------------------------------
 .byte   PATT
  .word Label_0152622A
@  #06 @081   ----------------------------------------
 .byte   PATT
  .word Label_01526234
@  #06 @082   ----------------------------------------
 .byte   PATT
  .word Label_0152623F
@  #06 @083   ----------------------------------------
 .byte   PATT
  .word Label_01526249
@  #06 @084   ----------------------------------------
 .byte   N92 ,Dn4 ,v100
 .byte   W96
@  #06 @085   ----------------------------------------
 .byte   Ds4
 .byte   W96
@  #06 @086   ----------------------------------------
 .byte   GOTO
  .word Label_015261A2
 .byte   FINE

@**************** Track 7 (Midi-Chn.6) ****************@

song01_007:
@  #07 @000   ----------------------------------------
 .byte   KEYSH , song01_key+0
Label_015263A2:
 .byte   VOICE , 2
 .byte   VOL , 11*song01_mvl/mxv
 .byte   PAN , c_v+12
 .byte   BEND , c_v+0
 .byte   W96
@  #07 @001   ----------------------------------------
 .byte   W96
@  #07 @002   ----------------------------------------
 .byte   W96
@  #07 @003   ----------------------------------------
 .byte   W96
@  #07 @004   ----------------------------------------
 .byte   W96
@  #07 @005   ----------------------------------------
 .byte   W96
@  #07 @006   ----------------------------------------
Label_015263B0:
 .byte   N23 ,En3 ,v100
 .byte   W24
 .byte   Ds3
 .byte   W24
 .byte   En3
 .byte   W24
 .byte   An3
 .byte   W24
 .byte   PEND 
@  #07 @007   ----------------------------------------
Label_015263BB:
 .byte   N23 ,Gn3 ,v100
 .byte   W24
 .byte   Fs3
 .byte   W24
 .byte   Gn3
 .byte   W24
 .byte   An3
 .byte   W24
 .byte   PEND 
@  #07 @008   ----------------------------------------
 .byte   TIE ,Fs3
 .byte   W96
@  #07 @009   ----------------------------------------
 .byte   W23
 .byte   EOT
 .byte   W01
 .byte   N23 ,Gn3
 .byte   W24
 .byte   N05 ,Fs3
 .byte   W06
 .byte   Gn3
 .byte   W06
 .byte   Fs3
 .byte   W06
 .byte   Gn3
 .byte   W06
 .byte   Fs3
 .byte   W06
 .byte   En3
 .byte   W06
 .byte   Dn3
 .byte   W06
 .byte   Bn2
 .byte   W06
@  #07 @010   ----------------------------------------
Label_015263E0:
 .byte   N05 ,An2 ,v100
 .byte   W06
 .byte   Dn3
 .byte   W06
 .byte   N11 ,En3
 .byte   W12
 .byte   N05 ,Dn3
 .byte   W06
 .byte   N11 ,En3
 .byte   W12
 .byte   N05 ,Dn3
 .byte   W06
 .byte   N68 ,En3
 .byte   W48
 .byte   PEND 
@  #07 @011   ----------------------------------------
Label_015263F6:
 .byte   W24
 .byte   N23 ,Fs3 ,v100
 .byte   W24
 .byte   Gn3
 .byte   W24
 .byte   An3
 .byte   W24
 .byte   PEND 
@  #07 @012   ----------------------------------------
Label_01526400:
 .byte   N05 ,Fs3 ,v100
 .byte   W06
 .byte   Gn3
 .byte   W06
 .byte   N56 ,Fs3
 .byte   W60
 .byte   N23 ,Gn3
 .byte   W24
 .byte   PEND 
@  #07 @013   ----------------------------------------
Label_0152640D:
 .byte   N11 ,An3 ,v100
 .byte   W12
 .byte   Bn3
 .byte   W12
 .byte   An3
 .byte   W12
 .byte   Gn3
 .byte   W12
 .byte   An3
 .byte   W12
 .byte   Bn3
 .byte   W12
 .byte   Gn3
 .byte   W12
 .byte   Fs3
 .byte   W12
 .byte   PEND 
@  #07 @014   ----------------------------------------
 .byte   PATT
  .word Label_015263B0
@  #07 @015   ----------------------------------------
 .byte   PATT
  .word Label_015263BB
@  #07 @016   ----------------------------------------
Label_0152642A:
 .byte   N05 ,Fs3 ,v100
 .byte   W06
 .byte   Dn3
 .byte   W06
 .byte   N80 ,Bn2
 .byte   W84
 .byte   PEND 
@  #07 @017   ----------------------------------------
Label_01526434:
 .byte   N23 ,An2 ,v100
 .byte   W24
 .byte   Bn2
 .byte   W24
 .byte   Dn3
 .byte   W24
 .byte   Bn2
 .byte   W24
 .byte   PEND 
@  #07 @018   ----------------------------------------
Label_0152643F:
 .byte   N44 ,En3 ,v100
 .byte   W48
 .byte   N23 ,Fs3
 .byte   W24
 .byte   En3
 .byte   W24
 .byte   PEND 
@  #07 @019   ----------------------------------------
Label_01526449:
 .byte   N23 ,Gn3 ,v100
 .byte   W24
 .byte   Fs3
 .byte   W24
 .byte   An3
 .byte   W24
 .byte   Bn3
 .byte   W24
 .byte   PEND 
@  #07 @020   ----------------------------------------
 .byte   N92 ,Dn4
 .byte   W96
@  #07 @021   ----------------------------------------
 .byte   Ds4
 .byte   W96
@  #07 @022   ----------------------------------------
 .byte   N11 ,En4
 .byte   W96
@  #07 @023   ----------------------------------------
 .byte   W96
@  #07 @024   ----------------------------------------
 .byte   W96
@  #07 @025   ----------------------------------------
 .byte   W96
@  #07 @026   ----------------------------------------
 .byte   W96
@  #07 @027   ----------------------------------------
 .byte   W96
@  #07 @028   ----------------------------------------
 .byte   W96
@  #07 @029   ----------------------------------------
 .byte   W96
@  #07 @030   ----------------------------------------
 .byte   N05 ,Bn2
 .byte   W06
 .byte   N11 ,En3
 .byte   W12
 .byte   N05 ,Bn2
 .byte   W06
 .byte   N11 ,En3
 .byte   W12
 .byte   N05 ,Bn2
 .byte   W06
 .byte   N76 ,En3
 .byte   W54
@  #07 @031   ----------------------------------------
 .byte   W24
 .byte   N05 ,Gn3
 .byte   W06
 .byte   Fs3
 .byte   W06
 .byte   Gn3
 .byte   W06
 .byte   En3
 .byte   W06
 .byte   Fs3
 .byte   W06
 .byte   En3
 .byte   W06
 .byte   Fs3
 .byte   W06
 .byte   Dn3
 .byte   W06
 .byte   En3
 .byte   W06
 .byte   Dn3
 .byte   W06
 .byte   En3
 .byte   W06
 .byte   Bn2
 .byte   W06
@  #07 @032   ----------------------------------------
 .byte   N11 ,Dn3
 .byte   W12
 .byte   En3
 .byte   W12
 .byte   N92 ,Fs3
 .byte   W72
@  #07 @033   ----------------------------------------
 .byte   W24
 .byte   N23 ,Gn3
 .byte   W24
 .byte   An3
 .byte   W24
 .byte   Bn3
 .byte   W24
@  #07 @034   ----------------------------------------
 .byte   An3
 .byte   W24
 .byte   N11 ,Gn3
 .byte   W12
 .byte   Fs3
 .byte   W12
 .byte   N23 ,Gn3
 .byte   W24
 .byte   N11 ,Fs3
 .byte   W12
 .byte   En3
 .byte   W12
@  #07 @035   ----------------------------------------
 .byte   N05 ,Fs3
 .byte   W06
 .byte   Gn3
 .byte   W06
 .byte   Fs3
 .byte   W06
 .byte   Gn3
 .byte   W06
 .byte   Fs3
 .byte   W06
 .byte   En3
 .byte   W06
 .byte   Dn3
 .byte   W06
 .byte   Bn2
 .byte   W06
 .byte   Fs3
 .byte   W06
 .byte   Gn3
 .byte   W06
 .byte   Fs3
 .byte   W06
 .byte   Gn3
 .byte   W06
 .byte   An3
 .byte   W06
 .byte   Bn3
 .byte   W06
 .byte   Dn4
 .byte   W06
 .byte   Cn4
 .byte   W06
@  #07 @036   ----------------------------------------
 .byte   N44 ,Bn3
 .byte   W48
 .byte   N11
 .byte   W12
 .byte   An3
 .byte   W12
 .byte   N05 ,Bn3
 .byte   W06
 .byte   Cn4
 .byte   W06
 .byte   Bn3
 .byte   W06
 .byte   Cn4
 .byte   W06
@  #07 @037   ----------------------------------------
 .byte   Bn3
 .byte   W06
 .byte   An3
 .byte   W06
 .byte   Gn3
 .byte   W06
 .byte   Fs3
 .byte   W06
 .byte   En3
 .byte   W06
 .byte   Dn3
 .byte   W06
 .byte   Cn3
 .byte   W06
 .byte   Bn2
 .byte   W06
 .byte   Cn3
 .byte   W06
 .byte   Dn3
 .byte   W06
 .byte   Cn3
 .byte   W06
 .byte   Dn3
 .byte   W06
 .byte   En3
 .byte   W06
 .byte   Dn3
 .byte   W06
 .byte   En3
 .byte   W06
 .byte   Fs3
 .byte   W06
@  #07 @038   ----------------------------------------
 .byte   PATT
  .word Label_015263B0
@  #07 @039   ----------------------------------------
 .byte   PATT
  .word Label_015263BB
@  #07 @040   ----------------------------------------
 .byte   TIE ,Fs3 ,v100
 .byte   W96
@  #07 @041   ----------------------------------------
 .byte   W23
 .byte   EOT
 .byte   W01
 .byte   N23 ,Gn3
 .byte   W24
 .byte   N05 ,Fs3
 .byte   W06
 .byte   Gn3
 .byte   W06
 .byte   Fs3
 .byte   W06
 .byte   Gn3
 .byte   W06
 .byte   Fs3
 .byte   W06
 .byte   En3
 .byte   W06
 .byte   Dn3
 .byte   W06
 .byte   Bn2
 .byte   W06
@  #07 @042   ----------------------------------------
 .byte   PATT
  .word Label_015263E0
@  #07 @043   ----------------------------------------
 .byte   PATT
  .word Label_015263F6
@  #07 @044   ----------------------------------------
 .byte   PATT
  .word Label_01526400
@  #07 @045   ----------------------------------------
 .byte   PATT
  .word Label_0152640D
@  #07 @046   ----------------------------------------
 .byte   PATT
  .word Label_015263B0
@  #07 @047   ----------------------------------------
 .byte   PATT
  .word Label_015263BB
@  #07 @048   ----------------------------------------
 .byte   PATT
  .word Label_0152642A
@  #07 @049   ----------------------------------------
 .byte   PATT
  .word Label_01526434
@  #07 @050   ----------------------------------------
 .byte   PATT
  .word Label_0152643F
@  #07 @051   ----------------------------------------
 .byte   PATT
  .word Label_01526449
@  #07 @052   ----------------------------------------
 .byte   N92 ,Dn4 ,v100
 .byte   W96
@  #07 @053   ----------------------------------------
 .byte   Ds4
 .byte   W96
@  #07 @054   ----------------------------------------
 .byte   N11 ,En4
 .byte   W96
@  #07 @055   ----------------------------------------
 .byte   W96
@  #07 @056   ----------------------------------------
 .byte   W96
@  #07 @057   ----------------------------------------
 .byte   W96
@  #07 @058   ----------------------------------------
 .byte   W96
@  #07 @059   ----------------------------------------
 .byte   W96
@  #07 @060   ----------------------------------------
 .byte   W96
@  #07 @061   ----------------------------------------
 .byte   W96
@  #07 @062   ----------------------------------------
 .byte   W96
@  #07 @063   ----------------------------------------
 .byte   W96
@  #07 @064   ----------------------------------------
 .byte   W96
@  #07 @065   ----------------------------------------
 .byte   W96
@  #07 @066   ----------------------------------------
 .byte   W96
@  #07 @067   ----------------------------------------
 .byte   W96
@  #07 @068   ----------------------------------------
 .byte   W96
@  #07 @069   ----------------------------------------
 .byte   W96
@  #07 @070   ----------------------------------------
 .byte   W96
@  #07 @071   ----------------------------------------
 .byte   W96
@  #07 @072   ----------------------------------------
 .byte   W96
@  #07 @073   ----------------------------------------
 .byte   W96
@  #07 @074   ----------------------------------------
 .byte   W96
@  #07 @075   ----------------------------------------
 .byte   W96
@  #07 @076   ----------------------------------------
 .byte   W96
@  #07 @077   ----------------------------------------
 .byte   W96
@  #07 @078   ----------------------------------------
 .byte   PATT
  .word Label_015263B0
@  #07 @079   ----------------------------------------
 .byte   PATT
  .word Label_015263BB
@  #07 @080   ----------------------------------------
 .byte   PATT
  .word Label_0152642A
@  #07 @081   ----------------------------------------
 .byte   PATT
  .word Label_01526434
@  #07 @082   ----------------------------------------
 .byte   PATT
  .word Label_0152643F
@  #07 @083   ----------------------------------------
 .byte   PATT
  .word Label_01526449
@  #07 @084   ----------------------------------------
 .byte   N92 ,Dn4 ,v100
 .byte   W96
@  #07 @085   ----------------------------------------
 .byte   Ds4
 .byte   W96
@  #07 @086   ----------------------------------------
 .byte   GOTO
  .word Label_015263A2
 .byte   FINE

@**************** Track 8 (Midi-Chn.7) ****************@

song01_008:
@  #08 @000   ----------------------------------------
 .byte   KEYSH , song01_key+0
Label_015265A2:
 .byte   VOICE , 11
 .byte   PAN , c_v+48
 .byte   VOL , 19*song01_mvl/mxv
 .byte   BEND , c_v+0
 .byte   W96
@  #08 @001   ----------------------------------------
 .byte   W96
@  #08 @002   ----------------------------------------
 .byte   W96
@  #08 @003   ----------------------------------------
 .byte   W96
@  #08 @004   ----------------------------------------
 .byte   W96
@  #08 @005   ----------------------------------------
 .byte   W96
@  #08 @006   ----------------------------------------
 .byte   W96
@  #08 @007   ----------------------------------------
 .byte   W96
@  #08 @008   ----------------------------------------
 .byte   W96
@  #08 @009   ----------------------------------------
 .byte   W96
@  #08 @010   ----------------------------------------
 .byte   W96
@  #08 @011   ----------------------------------------
 .byte   W96
@  #08 @012   ----------------------------------------
 .byte   W96
@  #08 @013   ----------------------------------------
 .byte   W96
@  #08 @014   ----------------------------------------
 .byte   W96
@  #08 @015   ----------------------------------------
 .byte   W96
@  #08 @016   ----------------------------------------
 .byte   W96
@  #08 @017   ----------------------------------------
 .byte   W96
@  #08 @018   ----------------------------------------
 .byte   W96
@  #08 @019   ----------------------------------------
 .byte   W96
@  #08 @020   ----------------------------------------
 .byte   W96
@  #08 @021   ----------------------------------------
 .byte   W96
@  #08 @022   ----------------------------------------
 .byte   W96
@  #08 @023   ----------------------------------------
 .byte   W96
@  #08 @024   ----------------------------------------
 .byte   W96
@  #08 @025   ----------------------------------------
 .byte   W96
@  #08 @026   ----------------------------------------
 .byte   W96
@  #08 @027   ----------------------------------------
 .byte   W96
@  #08 @028   ----------------------------------------
 .byte   W96
@  #08 @029   ----------------------------------------
 .byte   W96
@  #08 @030   ----------------------------------------
 .byte   W96
@  #08 @031   ----------------------------------------
 .byte   W96
@  #08 @032   ----------------------------------------
 .byte   W96
@  #08 @033   ----------------------------------------
 .byte   W96
@  #08 @034   ----------------------------------------
 .byte   W96
@  #08 @035   ----------------------------------------
 .byte   W96
@  #08 @036   ----------------------------------------
 .byte   W96
@  #08 @037   ----------------------------------------
 .byte   W96
@  #08 @038   ----------------------------------------
 .byte   W96
@  #08 @039   ----------------------------------------
 .byte   W96
@  #08 @040   ----------------------------------------
 .byte   W96
@  #08 @041   ----------------------------------------
 .byte   W96
@  #08 @042   ----------------------------------------
 .byte   W96
@  #08 @043   ----------------------------------------
 .byte   W96
@  #08 @044   ----------------------------------------
 .byte   W96
@  #08 @045   ----------------------------------------
 .byte   W96
@  #08 @046   ----------------------------------------
 .byte   W96
@  #08 @047   ----------------------------------------
 .byte   W96
@  #08 @048   ----------------------------------------
 .byte   W96
@  #08 @049   ----------------------------------------
 .byte   W96
@  #08 @050   ----------------------------------------
 .byte   W96
@  #08 @051   ----------------------------------------
 .byte   W96
@  #08 @052   ----------------------------------------
 .byte   W96
@  #08 @053   ----------------------------------------
 .byte   W96
@  #08 @054   ----------------------------------------
 .byte   W96
@  #08 @055   ----------------------------------------
 .byte   W96
@  #08 @056   ----------------------------------------
 .byte   W96
@  #08 @057   ----------------------------------------
 .byte   W96
@  #08 @058   ----------------------------------------
 .byte   W96
@  #08 @059   ----------------------------------------
 .byte   W96
@  #08 @060   ----------------------------------------
 .byte   W96
@  #08 @061   ----------------------------------------
 .byte   W96
@  #08 @062   ----------------------------------------
 .byte   W96
@  #08 @063   ----------------------------------------
 .byte   W96
@  #08 @064   ----------------------------------------
 .byte   W96
@  #08 @065   ----------------------------------------
 .byte   W96
@  #08 @066   ----------------------------------------
 .byte   W96
@  #08 @067   ----------------------------------------
 .byte   W96
@  #08 @068   ----------------------------------------
 .byte   W96
@  #08 @069   ----------------------------------------
 .byte   W96
@  #08 @070   ----------------------------------------
Label_015265F0:
 .byte   N23 ,En4 ,v100
 .byte   W24
 .byte   N23
 .byte   W36
 .byte   N23
 .byte   W36
 .byte   PEND 
@  #08 @071   ----------------------------------------
 .byte   PATT
  .word Label_015265F0
@  #08 @072   ----------------------------------------
Label_015265FE:
 .byte   N23 ,Dn4 ,v100
 .byte   W24
 .byte   N23
 .byte   W36
 .byte   N23
 .byte   W36
 .byte   PEND 
@  #08 @073   ----------------------------------------
 .byte   PATT
  .word Label_015265FE
@  #08 @074   ----------------------------------------
Label_0152660C:
 .byte   N23 ,Cn4 ,v100
 .byte   W24
 .byte   N23
 .byte   W36
 .byte   N23
 .byte   W36
 .byte   PEND 
@  #08 @075   ----------------------------------------
 .byte   PATT
  .word Label_0152660C
@  #08 @076   ----------------------------------------
 .byte   PATT
  .word Label_015265FE
@  #08 @077   ----------------------------------------
 .byte   N23 ,Gn4 ,v100
 .byte   W24
 .byte   N23
 .byte   W36
 .byte   Fs4
 .byte   W36
@  #08 @078   ----------------------------------------
 .byte   PATT
  .word Label_015265F0
@  #08 @079   ----------------------------------------
 .byte   PATT
  .word Label_015265F0
@  #08 @080   ----------------------------------------
 .byte   PATT
  .word Label_015265FE
@  #08 @081   ----------------------------------------
 .byte   PATT
  .word Label_015265FE
@  #08 @082   ----------------------------------------
 .byte   PATT
  .word Label_0152660C
@  #08 @083   ----------------------------------------
 .byte   PATT
  .word Label_0152660C
@  #08 @084   ----------------------------------------
 .byte   PATT
  .word Label_015265FE
@  #08 @085   ----------------------------------------
 .byte   N23 ,Ds4 ,v100
 .byte   W24
 .byte   N23
 .byte   W36
 .byte   N23
 .byte   W36
@  #08 @086   ----------------------------------------
 .byte   GOTO
  .word Label_015265A2
 .byte   FINE

@**************** Track 9 (Midi-Chn.8) ****************@

song01_009:
@  #09 @000   ----------------------------------------
 .byte   KEYSH , song01_key+0
Label_0152665A:
 .byte   VOICE , 94
 .byte   VOL , 11*song01_mvl/mxv
 .byte   PAN , c_v-1
 .byte   BEND , c_v+0
 .byte   W96
@  #09 @001   ----------------------------------------
 .byte   W96
@  #09 @002   ----------------------------------------
 .byte   W96
@  #09 @003   ----------------------------------------
 .byte   W96
@  #09 @004   ----------------------------------------
 .byte   W96
@  #09 @005   ----------------------------------------
 .byte   W96
@  #09 @006   ----------------------------------------
 .byte   W96
@  #09 @007   ----------------------------------------
 .byte   W96
@  #09 @008   ----------------------------------------
 .byte   W96
@  #09 @009   ----------------------------------------
 .byte   W96
@  #09 @010   ----------------------------------------
 .byte   W96
@  #09 @011   ----------------------------------------
 .byte   W96
@  #09 @012   ----------------------------------------
 .byte   W96
@  #09 @013   ----------------------------------------
 .byte   W96
@  #09 @014   ----------------------------------------
 .byte   W96
@  #09 @015   ----------------------------------------
 .byte   W96
@  #09 @016   ----------------------------------------
 .byte   W96
@  #09 @017   ----------------------------------------
 .byte   W96
@  #09 @018   ----------------------------------------
 .byte   W96
@  #09 @019   ----------------------------------------
 .byte   W96
@  #09 @020   ----------------------------------------
 .byte   W96
@  #09 @021   ----------------------------------------
 .byte   W96
@  #09 @022   ----------------------------------------
 .byte   W96
@  #09 @023   ----------------------------------------
 .byte   W96
@  #09 @024   ----------------------------------------
 .byte   W96
@  #09 @025   ----------------------------------------
 .byte   W96
@  #09 @026   ----------------------------------------
 .byte   W96
@  #09 @027   ----------------------------------------
 .byte   W96
@  #09 @028   ----------------------------------------
 .byte   W96
@  #09 @029   ----------------------------------------
 .byte   W96
@  #09 @030   ----------------------------------------
 .byte   W96
@  #09 @031   ----------------------------------------
 .byte   W96
@  #09 @032   ----------------------------------------
 .byte   W96
@  #09 @033   ----------------------------------------
 .byte   W96
@  #09 @034   ----------------------------------------
 .byte   W96
@  #09 @035   ----------------------------------------
 .byte   W96
@  #09 @036   ----------------------------------------
 .byte   W96
@  #09 @037   ----------------------------------------
 .byte   W96
@  #09 @038   ----------------------------------------
 .byte   W96
@  #09 @039   ----------------------------------------
 .byte   W96
@  #09 @040   ----------------------------------------
 .byte   W96
@  #09 @041   ----------------------------------------
 .byte   W96
@  #09 @042   ----------------------------------------
 .byte   W96
@  #09 @043   ----------------------------------------
 .byte   W96
@  #09 @044   ----------------------------------------
 .byte   W96
@  #09 @045   ----------------------------------------
 .byte   W96
@  #09 @046   ----------------------------------------
 .byte   W96
@  #09 @047   ----------------------------------------
 .byte   W96
@  #09 @048   ----------------------------------------
 .byte   W96
@  #09 @049   ----------------------------------------
 .byte   W96
@  #09 @050   ----------------------------------------
 .byte   W96
@  #09 @051   ----------------------------------------
 .byte   W96
@  #09 @052   ----------------------------------------
 .byte   W96
@  #09 @053   ----------------------------------------
 .byte   W96
@  #09 @054   ----------------------------------------
 .byte   W96
@  #09 @055   ----------------------------------------
 .byte   W96
@  #09 @056   ----------------------------------------
 .byte   W96
@  #09 @057   ----------------------------------------
 .byte   W96
@  #09 @058   ----------------------------------------
 .byte   W96
@  #09 @059   ----------------------------------------
 .byte   W96
@  #09 @060   ----------------------------------------
 .byte   W96
@  #09 @061   ----------------------------------------
 .byte   W96
@  #09 @062   ----------------------------------------
 .byte   W96
@  #09 @063   ----------------------------------------
 .byte   W96
@  #09 @064   ----------------------------------------
 .byte   W96
@  #09 @065   ----------------------------------------
 .byte   W96
@  #09 @066   ----------------------------------------
 .byte   W96
@  #09 @067   ----------------------------------------
 .byte   W96
@  #09 @068   ----------------------------------------
 .byte   W96
@  #09 @069   ----------------------------------------
 .byte   W96
@  #09 @070   ----------------------------------------
Label_015266A8:
 .byte   N23 ,En4 ,v100
 .byte   W24
 .byte   N23
 .byte   W36
 .byte   N23
 .byte   W36
 .byte   PEND 
@  #09 @071   ----------------------------------------
 .byte   PATT
  .word Label_015266A8
@  #09 @072   ----------------------------------------
Label_015266B6:
 .byte   N23 ,Dn4 ,v100
 .byte   W24
 .byte   N23
 .byte   W36
 .byte   N23
 .byte   W36
 .byte   PEND 
@  #09 @073   ----------------------------------------
 .byte   PATT
  .word Label_015266B6
@  #09 @074   ----------------------------------------
Label_015266C4:
 .byte   N23 ,Cn4 ,v100
 .byte   W24
 .byte   N23
 .byte   W36
 .byte   N23
 .byte   W36
 .byte   PEND 
@  #09 @075   ----------------------------------------
 .byte   PATT
  .word Label_015266C4
@  #09 @076   ----------------------------------------
 .byte   PATT
  .word Label_015266B6
@  #09 @077   ----------------------------------------
 .byte   N23 ,Gn4 ,v100
 .byte   W24
 .byte   N23
 .byte   W36
 .byte   Fs4
 .byte   W36
@  #09 @078   ----------------------------------------
 .byte   PATT
  .word Label_015266A8
@  #09 @079   ----------------------------------------
 .byte   PATT
  .word Label_015266A8
@  #09 @080   ----------------------------------------
 .byte   PATT
  .word Label_015266B6
@  #09 @081   ----------------------------------------
 .byte   PATT
  .word Label_015266B6
@  #09 @082   ----------------------------------------
 .byte   PATT
  .word Label_015266C4
@  #09 @083   ----------------------------------------
 .byte   PATT
  .word Label_015266C4
@  #09 @084   ----------------------------------------
 .byte   PATT
  .word Label_015266B6
@  #09 @085   ----------------------------------------
 .byte   N23 ,Ds4 ,v100
 .byte   W24
 .byte   N23
 .byte   W36
 .byte   N23
 .byte   W36
@  #09 @086   ----------------------------------------
 .byte   GOTO
  .word Label_0152665A
 .byte   FINE

@******************************************************@
	.align	2

song01:
	.byte	9	@ NumTrks
	.byte	0	@ NumBlks
	.byte	song01_pri	@ Priority
	.byte	song01_rev	@ Reverb.
    
	.word	song01_grp
    
	.word	song01_001
	.word	song01_002
	.word	song01_003
	.word	song01_004
	.word	song01_005
	.word	song01_006
	.word	song01_007
	.word	song01_008
	.word	song01_009

	.end
