//Event file generated from Sappy .s format.
	#include "MPlayDef.event"

	#define	song03A5_grp  voicegroup000
	#define	song03A5_pri  0
	#define	song03A5_rev  0
	#define	song03A5_mvl  127
	#define	song03A5_key  0
	#define	song03A5_tbs  1
	#define	song03A5_exg  0
	#define	song03A5_cmp  1

	// .rodata
	//	song03A5
	ALIGN 4


//**************** Track 1 (Midi-Chn.0) ****************//

song03A5_001:
// 000   ----------------------------------------
 BYTE   KEYSH   song03A5_key+0
Label_0_016EE632:
 BYTE   TEMPO   128*song03A5_tbs/2
 BYTE   VOICE   36
 BYTE   VOL   32*song03A5_mvl/mxv
 BYTE   PAN   c_v+0
 BYTE   N12  En0  v100
 BYTE   W12
 BYTE   N12
 BYTE   W12
 BYTE   N06  En1
 BYTE   W06
 BYTE   En0
 BYTE   W06
 BYTE   Bn0
 BYTE   W06
 BYTE   N12  Dn1
 BYTE   W12
 BYTE   N06  En1
 BYTE   W06
 BYTE   N12  Gn0
 BYTE   W12
 BYTE   N12
 BYTE   W12
 BYTE   N06  Gn1
 BYTE   W06
 BYTE   Gn0
 BYTE   W06
// 001   ----------------------------------------
 BYTE   Dn1
 BYTE   W06
 BYTE   N12  Gn1
 BYTE   W12
 BYTE   N06  Dn1
 BYTE   W06
Label_0_016EE65F:
 BYTE   N12  An0  v100
 BYTE   W12
 BYTE   N12
 BYTE   W12
 BYTE   N06  An1
 BYTE   W06
 BYTE   An0
 BYTE   W06
 BYTE   En1
 BYTE   W06
 BYTE   N12  An1
 BYTE   W12
 BYTE   N06  En1
 BYTE   W06
 BYTE   N12  Dn0
 BYTE   W12
// 002   ----------------------------------------
 BYTE   Dn1
 BYTE   W12
 BYTE   N06  Dn0
 BYTE   W06
 BYTE   An0
 BYTE   W06
 BYTE   Dn1
 BYTE   W06
 BYTE   N12  Dn0
 BYTE   W12
 BYTE   N06  Dn1
 BYTE   W06
 BYTE   PEND 
Label_0_016EE685:
 BYTE   N12  Cn1  v100
 BYTE   W12
 BYTE   N12
 BYTE   W12
 BYTE   N06  Gn0
 BYTE   W06
 BYTE   Cn1
 BYTE   W06
 BYTE   N06
 BYTE   W06
 BYTE   N12  Gn0
 BYTE   W12
// 003   ----------------------------------------
 BYTE   N06  Cn1
 BYTE   W06
 BYTE   N12  Gn0
 BYTE   W12
 BYTE   N12
 BYTE   W12
 BYTE   N12
 BYTE   W06
 BYTE   N06  Gn1
 BYTE   W06
 BYTE   Gn0
 BYTE   W06
 BYTE   N12  Dn1
 BYTE   W12
 BYTE   N06  Gn1
 BYTE   W06
 BYTE   PEND 
Label_0_016EE6AB:
 BYTE   N12  Fn0  v100
 BYTE   W12
 BYTE   N12
 BYTE   W12
 BYTE   N06
 BYTE   W06
// 004   ----------------------------------------
 BYTE   Fn1
 BYTE   W06
 BYTE   Fn0
 BYTE   W06
 BYTE   N12  Cn1
 BYTE   W12
 BYTE   N06  Fn1
 BYTE   W06
 BYTE   N12  Gn0
 BYTE   W12
 BYTE   N12
 BYTE   W12
 BYTE   N06
 BYTE   W06
 BYTE   Gn1
 BYTE   W06
 BYTE   Gn0
 BYTE   W06
 BYTE   N12  Dn1
 BYTE   W12
 BYTE   N06  Gn1
 BYTE   W06
 BYTE   PEND 
Label_0_016EE6CF:
 BYTE   N12  En0  v100
 BYTE   W12
// 005   ----------------------------------------
 BYTE   N12
 BYTE   W12
 BYTE   N06  En1
 BYTE   W06
 BYTE   En0
 BYTE   W06
 BYTE   Bn0
 BYTE   W06
 BYTE   N12  Dn1
 BYTE   W12
 BYTE   N06  En1
 BYTE   W06
 BYTE   N12  Gn0
 BYTE   W12
 BYTE   N12
 BYTE   W12
 BYTE   N06  Gn1
 BYTE   W06
 BYTE   Gn0
 BYTE   W06
 BYTE   Dn1
 BYTE   W06
 BYTE   N12  Gn1
 BYTE   W12
// 006   ----------------------------------------
 BYTE   N06  Dn1
 BYTE   W06
 BYTE   PEND 
// 007   ----------------------------------------
 BYTE   PATT
  POIN2 Label_0_016EE65F
// 008   ----------------------------------------
 BYTE   PATT
  POIN2 Label_0_016EE685
// 009   ----------------------------------------
 BYTE   PATT
  POIN2 Label_0_016EE6AB
// 010   ----------------------------------------
Label_0_016EE704:
 BYTE   N12  Ds0  v100
 BYTE   W12
 BYTE   N12
 BYTE   W12
 BYTE   N12
 BYTE   W12
 BYTE   N12
 BYTE   W12
 BYTE   N12
 BYTE   W12
 BYTE   N12
 BYTE   W12
 BYTE   PEND 
Label_0_016EE713:
 BYTE   N12  Gs0  v100
 BYTE   W12
 BYTE   N12
 BYTE   W12
// 011   ----------------------------------------
 BYTE   N12
 BYTE   W12
 BYTE   N12
 BYTE   W12
 BYTE   N12
 BYTE   W12
 BYTE   N12
 BYTE   W12
 BYTE   PEND 
// 012   ----------------------------------------
 BYTE   PATT
  POIN2 Label_0_016EE704
// 013   ----------------------------------------
 BYTE   PATT
  POIN2 Label_0_016EE713
// 014   ----------------------------------------
 BYTE   PATT
  POIN2 Label_0_016EE704
// 015   ----------------------------------------
 BYTE   PATT
  POIN2 Label_0_016EE713
// 016   ----------------------------------------
Label_0_016EE736:
 BYTE   N12  Fs0  v100
 BYTE   W12
 BYTE   N12
 BYTE   W12
 BYTE   N12
 BYTE   W12
 BYTE   N12
 BYTE   W12
 BYTE   N12
 BYTE   W12
 BYTE   N06  Fs1
 BYTE   W06
 BYTE   N06
 BYTE   W06
 BYTE   PEND 
// 017   ----------------------------------------
 BYTE   PATT
  POIN2 Label_0_016EE736
// 018   ----------------------------------------
 BYTE   PATT
  POIN2 Label_0_016EE6CF
// 019   ----------------------------------------
 BYTE   PATT
  POIN2 Label_0_016EE65F
// 020   ----------------------------------------
 BYTE   PATT
  POIN2 Label_0_016EE685
// 021   ----------------------------------------
 BYTE   PATT
  POIN2 Label_0_016EE6AB
// 022   ----------------------------------------
 BYTE   PATT
  POIN2 Label_0_016EE6CF
// 023   ----------------------------------------
 BYTE   PATT
  POIN2 Label_0_016EE65F
// 024   ----------------------------------------
 BYTE   PATT
  POIN2 Label_0_016EE685
// 025   ----------------------------------------
 BYTE   PATT
  POIN2 Label_0_016EE6AB
// 026   ----------------------------------------
 BYTE   PATT
  POIN2 Label_0_016EE704
// 027   ----------------------------------------
 BYTE   PATT
  POIN2 Label_0_016EE713
// 028   ----------------------------------------
 BYTE   PATT
  POIN2 Label_0_016EE704
// 029   ----------------------------------------
 BYTE   PATT
  POIN2 Label_0_016EE713
// 030   ----------------------------------------
 BYTE   PATT
  POIN2 Label_0_016EE704
// 031   ----------------------------------------
 BYTE   PATT
  POIN2 Label_0_016EE713
// 032   ----------------------------------------
 BYTE   PATT
  POIN2 Label_0_016EE736
// 033   ----------------------------------------
 BYTE   PATT
  POIN2 Label_0_016EE736
// 034   ----------------------------------------
 BYTE   N12  Gs0  v100
 BYTE   W12
 BYTE   N06
 BYTE   W06
 BYTE   N12
 BYTE   W12
 BYTE   N06
 BYTE   W06
 BYTE   N06
 BYTE   W06
 BYTE   N06
 BYTE   W06
 BYTE   N12
 BYTE   W12
 BYTE   N06  Gs1
 BYTE   W06
 BYTE   N06
 BYTE   W06
 BYTE   N12  Gs0
 BYTE   W12
 BYTE   N06  Gs1
 BYTE   W06
 BYTE   Gs0
 BYTE   W06
// 035   ----------------------------------------
 BYTE   Ds1
 BYTE   W06
 BYTE   Gs1
 BYTE   W06
 BYTE   Gs0
 BYTE   W06
 BYTE   Ds1
 BYTE   W06
 BYTE   Gs1
 BYTE   W06
 BYTE   Gs0
 BYTE   W06
 BYTE   Ds1
 BYTE   W06
 BYTE   Gs1
 BYTE   W06
Label_0_016EE7CA:
 BYTE   N12  Cs1  v100
 BYTE   W12
 BYTE   N12
 BYTE   W12
 BYTE   N12
 BYTE   W12
 BYTE   N12
 BYTE   W12
// 036   ----------------------------------------
 BYTE   N12
 BYTE   W12
 BYTE   N12
 BYTE   W12
 BYTE   N12
 BYTE   W12
 BYTE   N12
 BYTE   W12
 BYTE   PEND 
// 037   ----------------------------------------
 BYTE   PATT
  POIN2 Label_0_016EE7CA
// 038   ----------------------------------------
 BYTE   PATT
  POIN2 Label_0_016EE7CA
// 039   ----------------------------------------
 BYTE   PATT
  POIN2 Label_0_016EE7CA
// 040   ----------------------------------------
 BYTE   PATT
  POIN2 Label_0_016EE7CA
// 041   ----------------------------------------
 BYTE   PATT
  POIN2 Label_0_016EE7CA
// 042   ----------------------------------------
 BYTE   PATT
  POIN2 Label_0_016EE7CA
// 043   ----------------------------------------
 BYTE   N12  Cs1  v100
 BYTE   W12
 BYTE   N12
 BYTE   W12
 BYTE   N12
 BYTE   W12
 BYTE   N12
 BYTE   W12
 BYTE   N12
 BYTE   W12
 BYTE   N12
 BYTE   W12
 BYTE   GoTo
  POIN2 Label_0_016EE632
 BYTE   FINE

//**************** Track 2 (Midi-Chn.1) ****************//

song03A5_002:
// 000   ----------------------------------------
 BYTE   KEYSH   song03A5_key+0
Label_1_016EE826:
 BYTE   VOICE   46
 BYTE   VOL   32*song03A5_mvl/mxv
 BYTE   PAN   c_v+16
 BYTE   N06  Bn2  v100
 BYTE   W06
 BYTE   En3
 BYTE   W06
 BYTE   Gn3
 BYTE   W06
 BYTE   Bn3
 BYTE   W06
 BYTE   En3
 BYTE   W06
 BYTE   Gn3
 BYTE   W06
 BYTE   Gn2
 BYTE   W06
 BYTE   En3
 BYTE   W06
 BYTE   Gn3
 BYTE   W06
 BYTE   Bn3
 BYTE   W06
 BYTE   Bn2
 BYTE   W06
 BYTE   Dn3
 BYTE   W06
 BYTE   Gn3
 BYTE   W06
 BYTE   Bn3
 BYTE   W06
 BYTE   Gn3
 BYTE   W06
 BYTE   Dn3
 BYTE   W06
// 001   ----------------------------------------
 BYTE   Bn3
 BYTE   W06
 BYTE   Gn3
 BYTE   W06
 BYTE   N06
 BYTE   W06
 BYTE   Dn3
 BYTE   W06
Label_1_016EE856:
 BYTE   N06  An3  v100
 BYTE   W06
 BYTE   En3
 BYTE   W06
 BYTE   An3
 BYTE   W06
 BYTE   Cs4
 BYTE   W06
 BYTE   An3
 BYTE   W06
 BYTE   En3
 BYTE   W06
 BYTE   Cs4
 BYTE   W06
 BYTE   En3
 BYTE   W06
 BYTE   An3
 BYTE   W06
 BYTE   Cs4
 BYTE   W06
 BYTE   An2
 BYTE   W06
 BYTE   Dn3
 BYTE   W06
// 002   ----------------------------------------
 BYTE   Fs3
 BYTE   W06
 BYTE   An3
 BYTE   W06
 BYTE   Dn4
 BYTE   W06
 BYTE   Dn3
 BYTE   W06
 BYTE   An3
 BYTE   W06
 BYTE   Dn3
 BYTE   W06
 BYTE   Fs3
 BYTE   W06
 BYTE   An3
 BYTE   W06
 BYTE   PEND 
Label_1_016EE881:
 BYTE   N06  Cn3  v100
 BYTE   W06
 BYTE   Ds3
 BYTE   W06
 BYTE   Gn3
 BYTE   W06
 BYTE   Cn4
 BYTE   W06
 BYTE   Cn3
 BYTE   W06
 BYTE   Gn3
 BYTE   W06
 BYTE   N06
 BYTE   W06
 BYTE   Ds3
 BYTE   W06
// 003   ----------------------------------------
 BYTE   Gn3
 BYTE   W06
 BYTE   Cn3
 BYTE   W06
 BYTE   Gn2
 BYTE   W06
 BYTE   Bn2
 BYTE   W06
 BYTE   Dn3
 BYTE   W06
 BYTE   Gn3
 BYTE   W06
 BYTE   Bn3
 BYTE   W06
 BYTE   Dn3
 BYTE   W06
 BYTE   Gn3
 BYTE   W06
 BYTE   Bn3
 BYTE   W06
 BYTE   Dn3
 BYTE   W06
 BYTE   Gn3
 BYTE   W06
 BYTE   PEND 
Label_1_016EE8AC:
 BYTE   N06  Gs2  v100
 BYTE   W06
 BYTE   Cn3
 BYTE   W06
 BYTE   Fn3
 BYTE   W06
 BYTE   Gs3
 BYTE   W06
// 004   ----------------------------------------
 BYTE   Cn4
 BYTE   W06
 BYTE   Cn3
 BYTE   W06
 BYTE   Gs3
 BYTE   W06
 BYTE   Cn3
 BYTE   W06
 BYTE   Fn3
 BYTE   W06
 BYTE   Gs3
 BYTE   W06
 BYTE   Gn2
 BYTE   W06
 BYTE   Bn2
 BYTE   W06
 BYTE   Dn3
 BYTE   W06
 BYTE   Gn3
 BYTE   W06
 BYTE   Bn3
 BYTE   W06
 BYTE   Gn3
 BYTE   W06
 BYTE   Dn3
 BYTE   W06
 BYTE   Bn2
 BYTE   W06
 BYTE   Dn3
 BYTE   W06
 BYTE   Gn3
 BYTE   W06
 BYTE   PEND 
// 005   ----------------------------------------
Label_1_016EE8D7:
 BYTE   N06  Bn2  v100
 BYTE   W06
 BYTE   En3
 BYTE   W06
 BYTE   Gn3
 BYTE   W06
 BYTE   Bn3
 BYTE   W06
 BYTE   En3
 BYTE   W06
 BYTE   Gn3
 BYTE   W06
 BYTE   Gn2
 BYTE   W06
 BYTE   En3
 BYTE   W06
 BYTE   Gn3
 BYTE   W06
 BYTE   Bn3
 BYTE   W06
 BYTE   Bn2
 BYTE   W06
 BYTE   Dn3
 BYTE   W06
 BYTE   Gn3
 BYTE   W06
 BYTE   Bn3
 BYTE   W06
 BYTE   Gn3
 BYTE   W06
 BYTE   Dn3
 BYTE   W06
// 006   ----------------------------------------
 BYTE   Bn3
 BYTE   W06
 BYTE   Gn3
 BYTE   W06
 BYTE   N06
 BYTE   W06
 BYTE   Dn3
 BYTE   W06
 BYTE   PEND 
// 007   ----------------------------------------
 BYTE   PATT
  POIN2 Label_1_016EE856
// 008   ----------------------------------------
 BYTE   PATT
  POIN2 Label_1_016EE881
// 009   ----------------------------------------
 BYTE   PATT
  POIN2 Label_1_016EE8AC
// 010   ----------------------------------------
Label_1_016EE911:
 BYTE   N18  Gn3  v100
 BYTE   W18
 BYTE   Gs3
 BYTE   W18
 BYTE   N12  As3
 BYTE   W12
 BYTE   Gs3
 BYTE   W12
 BYTE   Gn3
 BYTE   W12
 BYTE   PEND 
Label_1_016EE91F:
 BYTE   N18  Gs3  v100
 BYTE   W18
 BYTE   N54  Ds3
 BYTE   W54
 BYTE   PEND 
// 011   ----------------------------------------
Label_1_016EE927:
 BYTE   N18  Gn3  v100
 BYTE   W18
 BYTE   Gs3
 BYTE   W18
 BYTE   N12  As3
 BYTE   W12
 BYTE   Gs3
 BYTE   W12
 BYTE   As3
 BYTE   W12
 BYTE   PEND 
Label_1_016EE935:
 BYTE   N24  Bn3  v100
 BYTE   W24
// 012   ----------------------------------------
 BYTE   Cs4
 BYTE   W24
 BYTE   Ds4
 BYTE   W24
 BYTE   PEND 
Label_1_016EE93E:
 BYTE   N06  En4  v100
 BYTE   W06
 BYTE   Ds4
 BYTE   W06
 BYTE   Cs4
 BYTE   W06
 BYTE   Bn3
 BYTE   W06
 BYTE   As3
 BYTE   W06
 BYTE   Gs3
 BYTE   W06
 BYTE   Bn3
 BYTE   W06
 BYTE   As3
 BYTE   W06
// 013   ----------------------------------------
 BYTE   Gs3
 BYTE   W06
 BYTE   Gn3
 BYTE   W06
 BYTE   Gs3
 BYTE   W06
 BYTE   As3
 BYTE   W06
 BYTE   PEND 
Label_1_016EE959:
 BYTE   N12  Bn3  v100
 BYTE   W12
 BYTE   As3
 BYTE   W12
 BYTE   Bn3
 BYTE   W12
 BYTE   Cs4
 BYTE   W12
 BYTE   Ds4
 BYTE   W12
 BYTE   En4
 BYTE   W12
 BYTE   PEND 
// 014   ----------------------------------------
 BYTE   N72  Ds4
 BYTE   W72
 BYTE   Cs4
 BYTE   W72
// 015   ----------------------------------------
 BYTE   N06  Bn2
 BYTE   W06
 BYTE   En3
 BYTE   W06
 BYTE   Gn3
 BYTE   W06
 BYTE   Bn3
 BYTE   W06
 BYTE   En3
 BYTE   W06
 BYTE   Gn3
 BYTE   W06
 BYTE   Gn2
 BYTE   W06
 BYTE   En3
 BYTE   W06
 BYTE   Gn3
 BYTE   W06
 BYTE   Bn3
 BYTE   W06
 BYTE   Bn2
 BYTE   W06
 BYTE   Dn3
 BYTE   W06
 BYTE   Gn3
 BYTE   W06
 BYTE   Bn3
 BYTE   W06
 BYTE   Gn3
 BYTE   W06
 BYTE   Dn3
 BYTE   W06
// 016   ----------------------------------------
 BYTE   Bn3
 BYTE   W06
 BYTE   Gn3
 BYTE   W06
 BYTE   N06
 BYTE   W06
 BYTE   Dn3
 BYTE   W06
// 017   ----------------------------------------
 BYTE   PATT
  POIN2 Label_1_016EE856
// 018   ----------------------------------------
 BYTE   PATT
  POIN2 Label_1_016EE881
// 019   ----------------------------------------
 BYTE   PATT
  POIN2 Label_1_016EE8AC
// 020   ----------------------------------------
 BYTE   PATT
  POIN2 Label_1_016EE8D7
// 021   ----------------------------------------
 BYTE   PATT
  POIN2 Label_1_016EE856
// 022   ----------------------------------------
 BYTE   PATT
  POIN2 Label_1_016EE881
// 023   ----------------------------------------
 BYTE   PATT
  POIN2 Label_1_016EE8AC
// 024   ----------------------------------------
 BYTE   PATT
  POIN2 Label_1_016EE911
// 025   ----------------------------------------
 BYTE   PATT
  POIN2 Label_1_016EE91F
// 026   ----------------------------------------
 BYTE   PATT
  POIN2 Label_1_016EE927
// 027   ----------------------------------------
 BYTE   PATT
  POIN2 Label_1_016EE935
// 028   ----------------------------------------
 BYTE   PATT
  POIN2 Label_1_016EE93E
// 029   ----------------------------------------
 BYTE   PATT
  POIN2 Label_1_016EE959
// 030   ----------------------------------------
 BYTE   N72  Ds4  v100
 BYTE   W72
 BYTE   Cs4
 BYTE   W72
// 031   ----------------------------------------
 BYTE   W72
 BYTE   W72
// 032   ----------------------------------------
 BYTE   N06  Cs3
 BYTE   W06
 BYTE   En3
 BYTE   W06
 BYTE   Gs3
 BYTE   W06
 BYTE   En3
 BYTE   W06
 BYTE   Cs3
 BYTE   W06
 BYTE   En3
 BYTE   W06
 BYTE   Gs3
 BYTE   W06
 BYTE   En3
 BYTE   W06
 BYTE   Cs3
 BYTE   W06
 BYTE   En3
 BYTE   W06
 BYTE   Gs3
 BYTE   W06
 BYTE   En3
 BYTE   W06
 BYTE   Cs3
 BYTE   W06
 BYTE   En3
 BYTE   W06
 BYTE   Gs3
 BYTE   W06
 BYTE   En3
 BYTE   W06
// 033   ----------------------------------------
Label_1_016EEA00:
 BYTE   N06  Cn3  v100
 BYTE   W06
 BYTE   Ds3
 BYTE   W06
 BYTE   Gs3
 BYTE   W06
 BYTE   Ds3
 BYTE   W06
 BYTE   Cn3
 BYTE   W06
 BYTE   Ds3
 BYTE   W06
 BYTE   Gs3
 BYTE   W06
 BYTE   Ds3
 BYTE   W06
 BYTE   Cn3
 BYTE   W06
 BYTE   Ds3
 BYTE   W06
 BYTE   Gs3
 BYTE   W06
 BYTE   Ds3
 BYTE   W06
 BYTE   Cn3
 BYTE   W06
 BYTE   Ds3
 BYTE   W06
 BYTE   Gs3
 BYTE   W06
 BYTE   Ds3
 BYTE   W06
 BYTE   PEND 
// 034   ----------------------------------------
Label_1_016EEA23:
 BYTE   N06  Bn2  v100
 BYTE   W06
 BYTE   Ds3
 BYTE   W06
 BYTE   Gs3
 BYTE   W06
 BYTE   Ds3
 BYTE   W06
 BYTE   Bn2
 BYTE   W06
 BYTE   Ds3
 BYTE   W06
 BYTE   Gs3
 BYTE   W06
 BYTE   Ds3
 BYTE   W06
 BYTE   Bn2
 BYTE   W06
 BYTE   Ds3
 BYTE   W06
 BYTE   Gs3
 BYTE   W06
 BYTE   Ds3
 BYTE   W06
 BYTE   Bn2
 BYTE   W06
 BYTE   Ds3
 BYTE   W06
 BYTE   Gs3
 BYTE   W06
 BYTE   Ds3
 BYTE   W06
 BYTE   PEND 
// 035   ----------------------------------------
 BYTE   As2
 BYTE   W06
 BYTE   Cs3
 BYTE   W06
 BYTE   Gs3
 BYTE   W06
 BYTE   Cs3
 BYTE   W06
 BYTE   As2
 BYTE   W06
 BYTE   Cs3
 BYTE   W06
 BYTE   Gs3
 BYTE   W06
 BYTE   Cs3
 BYTE   W06
 BYTE   As2
 BYTE   W06
 BYTE   Cs3
 BYTE   W06
 BYTE   Gs3
 BYTE   W06
 BYTE   Cs3
 BYTE   W06
 BYTE   As2
 BYTE   W06
 BYTE   Cs3
 BYTE   W06
 BYTE   Gs3
 BYTE   W06
 BYTE   Cs3
 BYTE   W06
// 036   ----------------------------------------
 BYTE   N06
 BYTE   W06
 BYTE   En3
 BYTE   W06
 BYTE   Gs3
 BYTE   W06
 BYTE   En3
 BYTE   W06
 BYTE   Cs3
 BYTE   W06
 BYTE   En3
 BYTE   W06
 BYTE   Gs3
 BYTE   W06
 BYTE   En3
 BYTE   W06
 BYTE   Cs3
 BYTE   W06
 BYTE   En3
 BYTE   W06
 BYTE   Gs3
 BYTE   W06
 BYTE   En3
 BYTE   W06
 BYTE   Cs3
 BYTE   W06
 BYTE   En3
 BYTE   W06
 BYTE   Gs3
 BYTE   W06
 BYTE   En3
 BYTE   W06
// 037   ----------------------------------------
 BYTE   PATT
  POIN2 Label_1_016EEA00
// 038   ----------------------------------------
 BYTE   PATT
  POIN2 Label_1_016EEA23
// 039   ----------------------------------------
 BYTE   N06  Cn3  v100
 BYTE   W06
 BYTE   Ds3
 BYTE   W06
 BYTE   Gs3
 BYTE   W06
 BYTE   Ds3
 BYTE   W06
 BYTE   Cn3
 BYTE   W06
 BYTE   Ds3
 BYTE   W06
 BYTE   Gs3
 BYTE   W06
 BYTE   Ds3
 BYTE   W06
 BYTE   Cn3
 BYTE   W06
 BYTE   Ds3
 BYTE   W06
 BYTE   Gs3
 BYTE   W06
 BYTE   Ds3
 BYTE   W06
 BYTE   GoTo
  POIN2 Label_1_016EE826
 BYTE   FINE

//**************** Track 3 (Midi-Chn.2) ****************//

song03A5_003:
// 000   ----------------------------------------
 BYTE   KEYSH   song03A5_key+0
Label_2_016EEAC6:
 BYTE   VOICE   52
 BYTE   VOL   25*song03A5_mvl/mxv
 BYTE   PAN   c_v-8
 BYTE   N60  Gn2  v100
 BYTE   N60  Bn2
 BYTE   N60  En3
 BYTE   W60
 BYTE   Gn2
 BYTE   N60  Bn2
 BYTE   N60  Dn3
 BYTE   W60
// 001   ----------------------------------------
Label_2_016EEADA:
 BYTE   N60  An2  v100
 BYTE   N60  Cs3
 BYTE   N60  En3
 BYTE   W60
 BYTE   Fs2
 BYTE   N60  An2
 BYTE   N60  Dn3
 BYTE   W60
 BYTE   PEND 
// 002   ----------------------------------------
Label_2_016EEAE9:
 BYTE   N60  Ds2  v100
 BYTE   N60  Gn2
 BYTE   N60  Cn3
 BYTE   W60
 BYTE   Dn2
 BYTE   N60  Gn2
 BYTE   N60  Bn2
 BYTE   W60
 BYTE   PEND 
// 003   ----------------------------------------
Label_2_016EEAF8:
 BYTE   N60  Fn2  v100
 BYTE   N60  Gs2
 BYTE   N60  Cn3
 BYTE   W60
 BYTE   Gn2
 BYTE   N60  Bn2
 BYTE   N60  Dn3
 BYTE   W60
 BYTE   PEND 
// 004   ----------------------------------------
Label_2_016EEB07:
 BYTE   N60  Gn2  v100
 BYTE   N60  Bn2
 BYTE   N60  En3
 BYTE   W60
 BYTE   Gn2
 BYTE   N60  Bn2
 BYTE   N60  Dn3
 BYTE   W60
 BYTE   PEND 
// 005   ----------------------------------------
 BYTE   PATT
  POIN2 Label_2_016EEADA
// 006   ----------------------------------------
 BYTE   PATT
  POIN2 Label_2_016EEAE9
// 007   ----------------------------------------
 BYTE   PATT
  POIN2 Label_2_016EEAF8
// 008   ----------------------------------------
Label_2_016EEB25:
 BYTE   N72  As2  v100
 BYTE   N72  Cs3
 BYTE   N72  Gn3
 BYTE   W72
 BYTE   PEND 
Label_2_016EEB2E:
 BYTE   N72  Bn2  v100
 BYTE   N72  Ds3
 BYTE   N72  Gs3
 BYTE   W72
 BYTE   PEND 
// 009   ----------------------------------------
 BYTE   PATT
  POIN2 Label_2_016EEB25
// 010   ----------------------------------------
 BYTE   PATT
  POIN2 Label_2_016EEB2E
// 011   ----------------------------------------
 BYTE   PATT
  POIN2 Label_2_016EEB25
// 012   ----------------------------------------
 BYTE   PATT
  POIN2 Label_2_016EEB2E
// 013   ----------------------------------------
Label_2_016EEB4B:
 BYTE   N72  Bn2  v100
 BYTE   N72  Ds3
 BYTE   N72  Fs3
 BYTE   W72
 BYTE   PEND 
Label_2_016EEB54:
 BYTE   N72  As2  v100
 BYTE   N72  Cs3
 BYTE   N72  Fs3
 BYTE   W72
 BYTE   PEND 
// 014   ----------------------------------------
 BYTE   PATT
  POIN2 Label_2_016EEB07
// 015   ----------------------------------------
 BYTE   PATT
  POIN2 Label_2_016EEADA
// 016   ----------------------------------------
 BYTE   PATT
  POIN2 Label_2_016EEAE9
// 017   ----------------------------------------
 BYTE   PATT
  POIN2 Label_2_016EEAF8
// 018   ----------------------------------------
 BYTE   PATT
  POIN2 Label_2_016EEB07
// 019   ----------------------------------------
 BYTE   PATT
  POIN2 Label_2_016EEADA
// 020   ----------------------------------------
 BYTE   PATT
  POIN2 Label_2_016EEAE9
// 021   ----------------------------------------
 BYTE   PATT
  POIN2 Label_2_016EEAF8
// 022   ----------------------------------------
 BYTE   PATT
  POIN2 Label_2_016EEB25
// 023   ----------------------------------------
 BYTE   PATT
  POIN2 Label_2_016EEB2E
// 024   ----------------------------------------
 BYTE   PATT
  POIN2 Label_2_016EEB25
// 025   ----------------------------------------
 BYTE   PATT
  POIN2 Label_2_016EEB2E
// 026   ----------------------------------------
 BYTE   PATT
  POIN2 Label_2_016EEB25
// 027   ----------------------------------------
 BYTE   PATT
  POIN2 Label_2_016EEB2E
// 028   ----------------------------------------
 BYTE   PATT
  POIN2 Label_2_016EEB4B
// 029   ----------------------------------------
 BYTE   PATT
  POIN2 Label_2_016EEB54
// 030   ----------------------------------------
 BYTE   VOL   29*song03A5_mvl/mxv
 BYTE   N72  Cs3  v100
 BYTE   N72  Ds3
 BYTE   W72
 BYTE   Cn3
 BYTE   N72  Ds3
 BYTE   W72
// 031   ----------------------------------------
Label_2_016EEBB9:
 BYTE   N96  Cs3  v100
 BYTE   N96  En3
 BYTE   N96  Gs3
 BYTE   W96
 BYTE   PEND 
// 032   ----------------------------------------
Label_2_016EEBC2:
 BYTE   N96  Cn3  v100
 BYTE   N96  Ds3
 BYTE   N96  Gs3
 BYTE   W96
 BYTE   PEND 
// 033   ----------------------------------------
Label_2_016EEBCB:
 BYTE   N96  Bn2  v100
 BYTE   N96  Ds3
 BYTE   N96  Gs3
 BYTE   W96
 BYTE   PEND 
// 034   ----------------------------------------
 BYTE   As2
 BYTE   N96  Cs3
 BYTE   N96  Gs3
 BYTE   W96
// 035   ----------------------------------------
 BYTE   PATT
  POIN2 Label_2_016EEBB9
// 036   ----------------------------------------
 BYTE   PATT
  POIN2 Label_2_016EEBC2
// 037   ----------------------------------------
 BYTE   PATT
  POIN2 Label_2_016EEBCB
// 038   ----------------------------------------
 BYTE   W72
 BYTE   GoTo
  POIN2 Label_2_016EEAC6
 BYTE   FINE

//**************** Track 4 (Midi-Chn.3) ****************//

song03A5_004:
// 000   ----------------------------------------
 BYTE   KEYSH   song03A5_key+0
Label_3_016EEC06:
 BYTE   VOICE   73
 BYTE   VOL   32*song03A5_mvl/mxv
 BYTE   PAN   c_v+0
 BYTE   W96
// 001   ----------------------------------------
 BYTE   W24
 BYTE   W96
// 002   ----------------------------------------
 BYTE   W24
 BYTE   W96
// 003   ----------------------------------------
 BYTE   W24
 BYTE   W96
// 004   ----------------------------------------
 BYTE   W24
 BYTE   N06  En4  v100
 BYTE   W06
 BYTE   Fs4
 BYTE   W06
 BYTE   Gn4
 BYTE   W06
 BYTE   An4
 BYTE   W06
 BYTE   Gn4
 BYTE   W06
 BYTE   En4
 BYTE   W06
 BYTE   Dn4
 BYTE   W06
 BYTE   En5
 BYTE   W06
 BYTE   Dn5
 BYTE   W06
 BYTE   En5
 BYTE   W06
 BYTE   N36  Dn5
 BYTE   W36
// 005   ----------------------------------------
 BYTE   N06  Cn5
 BYTE   W06
 BYTE   Bn4
 BYTE   W06
 BYTE   An4
 BYTE   W06
 BYTE   Gn4
 BYTE   W06
Label_3_016EEC36:
 BYTE   N18  An4  v100
 BYTE   W18
 BYTE   En4
 BYTE   W18
 BYTE   N24  An4
 BYTE   W24
 BYTE   N06  Fs4
 BYTE   W06
 BYTE   Gn4
 BYTE   W06
// 006   ----------------------------------------
 BYTE   Fs4
 BYTE   W06
 BYTE   N42  Dn4
 BYTE   W42
 BYTE   PEND 
Label_3_016EEC4A:
 BYTE   N36  Ds4  v100
 BYTE   W36
 BYTE   N12  Dn4
 BYTE   W12
// 007   ----------------------------------------
 BYTE   Ds4
 BYTE   W12
 BYTE   N30  Dn4
 BYTE   W30
 BYTE   Gn4
 BYTE   W30
 BYTE   PEND 
Label_3_016EEC59:
 BYTE   N36  Fn4  v100
 BYTE   W36
// 008   ----------------------------------------
 BYTE   N12  Gn4
 BYTE   W12
 BYTE   Gs4
 BYTE   W12
 BYTE   N30  Gn4
 BYTE   W30
 BYTE   N06  Dn5
 BYTE   W06
 BYTE   Cn5
 BYTE   W06
 BYTE   Bn4
 BYTE   W06
 BYTE   Gn4
 BYTE   W06
 BYTE   Dn4
 BYTE   W06
 BYTE   PEND 
 BYTE   W72
// 009   ----------------------------------------
 BYTE   W72
 BYTE   W72
// 010   ----------------------------------------
 BYTE   W72
 BYTE   W72
// 011   ----------------------------------------
 BYTE   W72
 BYTE   W72
// 012   ----------------------------------------
 BYTE   W72
Label_3_016EEC79:
 BYTE   N06  En4  v100
 BYTE   W06
 BYTE   Fs4
 BYTE   W06
 BYTE   Gn4
 BYTE   W06
 BYTE   An4
 BYTE   W06
// 013   ----------------------------------------
 BYTE   Gn4
 BYTE   W06
 BYTE   En4
 BYTE   W06
 BYTE   Dn4
 BYTE   W06
 BYTE   En5
 BYTE   W06
 BYTE   Dn5
 BYTE   W06
 BYTE   En5
 BYTE   W06
 BYTE   N36  Dn5
 BYTE   W36
 BYTE   N06  Cn5
 BYTE   W06
 BYTE   Bn4
 BYTE   W06
 BYTE   An4
 BYTE   W06
 BYTE   Gn4
 BYTE   W06
 BYTE   PEND 
// 014   ----------------------------------------
 BYTE   PATT
  POIN2 Label_3_016EEC36
// 015   ----------------------------------------
 BYTE   PATT
  POIN2 Label_3_016EEC4A
// 016   ----------------------------------------
 BYTE   PATT
  POIN2 Label_3_016EEC59
// 017   ----------------------------------------
 BYTE   PATT
  POIN2 Label_3_016EEC79
// 018   ----------------------------------------
 BYTE   PATT
  POIN2 Label_3_016EEC36
// 019   ----------------------------------------
 BYTE   PATT
  POIN2 Label_3_016EEC4A
// 020   ----------------------------------------
 BYTE   PATT
  POIN2 Label_3_016EEC59
// 021   ----------------------------------------
 BYTE   W72
 BYTE   W72
// 022   ----------------------------------------
 BYTE   W72
 BYTE   W72
// 023   ----------------------------------------
 BYTE   W72
 BYTE   W72
// 024   ----------------------------------------
 BYTE   W72
 BYTE   W72
// 025   ----------------------------------------
 BYTE   W72
 BYTE   W72
// 026   ----------------------------------------
 BYTE   W96
// 027   ----------------------------------------
 BYTE   W96
// 028   ----------------------------------------
 BYTE   W96
// 029   ----------------------------------------
 BYTE   W96
// 030   ----------------------------------------
 BYTE   W96
// 031   ----------------------------------------
 BYTE   W96
// 032   ----------------------------------------
 BYTE   W96
// 033   ----------------------------------------
 BYTE   W72
 BYTE   GoTo
  POIN2 Label_3_016EEC06
 BYTE   FINE

//**************** Track 5 (Midi-Chn.4) ****************//

song03A5_005:
// 000   ----------------------------------------
 BYTE   KEYSH   song03A5_key+0
Label_4_017D1BDA:
 BYTE   VOICE   40
 BYTE   VOL   27*song03A5_mvl/mxv
 BYTE   PAN   c_v+8
 BYTE   W96
// 001   ----------------------------------------
 BYTE   W24
 BYTE   W96
// 002   ----------------------------------------
 BYTE   W24
 BYTE   W96
// 003   ----------------------------------------
 BYTE   W24
 BYTE   W96
// 004   ----------------------------------------
 BYTE   W24
 BYTE   W96
// 005   ----------------------------------------
 BYTE   W24
 BYTE   W96
// 006   ----------------------------------------
 BYTE   W24
 BYTE   W96
// 007   ----------------------------------------
 BYTE   W24
 BYTE   W96
// 008   ----------------------------------------
 BYTE   W24
Label_4_017D1BF0:
 BYTE   N18  Gn3  v100
 BYTE   W18
 BYTE   Gs3
 BYTE   W18
 BYTE   N12  As3
 BYTE   W12
 BYTE   Gs3
 BYTE   W12
 BYTE   Gn3
 BYTE   W12
 BYTE   PEND 
// 009   ----------------------------------------
Label_4_017D1BFE:
 BYTE   N18  Gs3  v100
 BYTE   W18
 BYTE   N54  Ds3
 BYTE   W54
 BYTE   PEND 
Label_4_017D1C06:
 BYTE   N18  Gn3  v100
 BYTE   W18
 BYTE   Gs3
 BYTE   W18
// 010   ----------------------------------------
 BYTE   N12  As3
 BYTE   W12
 BYTE   Gs3
 BYTE   W12
 BYTE   As3
 BYTE   W12
 BYTE   PEND 
Label_4_017D1C14:
 BYTE   N24  Bn3  v100
 BYTE   W24
 BYTE   Cs4
 BYTE   W24
 BYTE   Ds4
 BYTE   W24
 BYTE   PEND 
// 011   ----------------------------------------
Label_4_017D1C1D:
 BYTE   N06  En4  v100
 BYTE   W06
 BYTE   Ds4
 BYTE   W06
 BYTE   Cs4
 BYTE   W06
 BYTE   Bn3
 BYTE   W06
 BYTE   As3
 BYTE   W06
 BYTE   Gs3
 BYTE   W06
 BYTE   Bn3
 BYTE   W06
 BYTE   As3
 BYTE   W06
 BYTE   Gs3
 BYTE   W06
 BYTE   Gn3
 BYTE   W06
 BYTE   Gs3
 BYTE   W06
 BYTE   As3
 BYTE   W06
 BYTE   PEND 
Label_4_017D1C38:
 BYTE   N12  Bn3  v100
 BYTE   W12
 BYTE   As3
 BYTE   W12
// 012   ----------------------------------------
 BYTE   Bn3
 BYTE   W12
 BYTE   Cs4
 BYTE   W12
 BYTE   Ds4
 BYTE   W12
 BYTE   En4
 BYTE   W12
 BYTE   PEND 
 BYTE   N72  Ds4
 BYTE   W72
// 013   ----------------------------------------
 BYTE   Cs4
 BYTE   W72
 BYTE   W96
// 014   ----------------------------------------
 BYTE   W24
 BYTE   W96
// 015   ----------------------------------------
 BYTE   W24
 BYTE   W96
// 016   ----------------------------------------
 BYTE   W24
 BYTE   W96
// 017   ----------------------------------------
 BYTE   W24
 BYTE   W96
// 018   ----------------------------------------
 BYTE   W24
 BYTE   W96
// 019   ----------------------------------------
 BYTE   W24
 BYTE   W96
// 020   ----------------------------------------
 BYTE   W24
 BYTE   W96
// 021   ----------------------------------------
 BYTE   W24
// 022   ----------------------------------------
 BYTE   PATT
  POIN2 Label_4_017D1BF0
// 023   ----------------------------------------
 BYTE   PATT
  POIN2 Label_4_017D1BFE
// 024   ----------------------------------------
 BYTE   PATT
  POIN2 Label_4_017D1C06
// 025   ----------------------------------------
 BYTE   PATT
  POIN2 Label_4_017D1C14
// 026   ----------------------------------------
 BYTE   PATT
  POIN2 Label_4_017D1C1D
// 027   ----------------------------------------
 BYTE   PATT
  POIN2 Label_4_017D1C38
// 028   ----------------------------------------
 BYTE   N72  Ds4  v100
 BYTE   W72
 BYTE   Cs4
 BYTE   W72
// 029   ----------------------------------------
 BYTE   VOICE   48
 BYTE   VOL   32*song03A5_mvl/mxv
 BYTE   TIE  Gs3
 BYTE   W72
 BYTE   W72
// 030   ----------------------------------------
 BYTE   EOT
Label_4_017D1C89:
 BYTE   N36  Cs3  v100
 BYTE   W36
 BYTE   TIE  Gs3
 BYTE   W60
 BYTE   PEND 
// 031   ----------------------------------------
 BYTE   W48
 BYTE   EOT
 BYTE   N48  Fs3
 BYTE   W48
// 032   ----------------------------------------
 BYTE   N36  Gs3
 BYTE   W36
 BYTE   N60  Ds3
 BYTE   W60
// 033   ----------------------------------------
 BYTE   N48  Cs3
 BYTE   W48
 BYTE   As2
 BYTE   W48
// 034   ----------------------------------------
 BYTE   PATT
  POIN2 Label_4_017D1C89
// 035   ----------------------------------------
 BYTE   W60
 BYTE   EOT
 BYTE   Gs3
 BYTE   N12  An3  v100
 BYTE   W12
 BYTE   Gs3
 BYTE   W12
 BYTE   Fs3
 BYTE   W12
// 036   ----------------------------------------
 BYTE   N36  Gs3
 BYTE   W36
 BYTE   N60  Cs3
 BYTE   W60
// 037   ----------------------------------------
 BYTE   N48  Cn3
 BYTE   W72
 BYTE   GoTo
  POIN2 Label_4_017D1BDA
 BYTE   FINE

//**************** Track 6 (Midi-Chn.5) ****************//

song03A5_006:
// 000   ----------------------------------------
 BYTE   KEYSH   song03A5_key+0
Label_5_017D1CC2:
 BYTE   VOICE   124
 BYTE   VOL   32*song03A5_mvl/mxv
 BYTE   PAN   c_v-8
 BYTE   N12  Bn0  v100
 BYTE   N48  An2
 BYTE   W12
 BYTE   N06  Gs1  v092
 BYTE   W06
 BYTE   N06
 BYTE   W12
 BYTE   N06
 BYTE   W06
 BYTE   N06
 BYTE   W12
 BYTE   N12  Dn1  v100
 BYTE   N06  Gs1  v092
 BYTE   W06
 BYTE   N06
 BYTE   W06
 BYTE   N06
 BYTE   W12
 BYTE   N06
 BYTE   W06
 BYTE   N06
 BYTE   W06
 BYTE   N12  Dn1  v100
 BYTE   W06
 BYTE   N06  Gs1  v092
 BYTE   W06
// 001   ----------------------------------------
 BYTE   N06
 BYTE   W12
 BYTE   N06
 BYTE   W12
Label_5_017D1CF3:
 BYTE   N06  Gs1  v092
 BYTE   W12
 BYTE   N06
 BYTE   W06
 BYTE   N06
 BYTE   W12
 BYTE   N06
 BYTE   W06
 BYTE   N06
 BYTE   W12
 BYTE   N12  Dn1  v100
 BYTE   N06  Gs1  v092
 BYTE   W06
 BYTE   N06
 BYTE   W06
 BYTE   N06
 BYTE   W12
// 002   ----------------------------------------
 BYTE   N06
 BYTE   W06
 BYTE   N06
 BYTE   W06
 BYTE   N12  Dn1  v100
 BYTE   W06
 BYTE   N06  Gs1  v092
 BYTE   W06
 BYTE   N06
 BYTE   W06
 BYTE   N12  Dn1  v100
 BYTE   W06
 BYTE   N06  Gs1  v092
 BYTE   W06
 BYTE   Dn1  v100
 BYTE   W06
 BYTE   PEND 
Label_5_017D1D24:
 BYTE   N24  Bn0  v100
 BYTE   N06  Gs1  v092
 BYTE   W12
 BYTE   N06
 BYTE   W06
 BYTE   Dn1  v100
 BYTE   N06  Gs1  v092
 BYTE   W12
 BYTE   N06
 BYTE   W06
 BYTE   Dn1  v100
 BYTE   N06  Gs1  v092
 BYTE   W06
 BYTE   Dn1  v100
 BYTE   W06
// 003   ----------------------------------------
 BYTE   Gs1  v092
 BYTE   W12
 BYTE   N06
 BYTE   W12
 BYTE   N06
 BYTE   W06
 BYTE   Dn1  v100
 BYTE   N06  Gs1  v092
 BYTE   W12
 BYTE   N06
 BYTE   W06
 BYTE   Dn1  v100
 BYTE   N06  Gs1  v092
 BYTE   W06
 BYTE   N06
 BYTE   W06
 BYTE   N06
 BYTE   W12
 BYTE   PEND 
Label_5_017D1D58:
 BYTE   N06  Gs1  v092
 BYTE   N48  An2  v100
 BYTE   W12
 BYTE   N06  Gs1  v092
 BYTE   W06
 BYTE   Dn1  v100
 BYTE   N06  Gs1  v092
 BYTE   W12
// 004   ----------------------------------------
 BYTE   N06
 BYTE   W06
 BYTE   Dn1  v100
 BYTE   N06  Gs1  v092
 BYTE   W06
 BYTE   Dn1  v100
 BYTE   W06
 BYTE   Gs1  v092
 BYTE   W12
 BYTE   N06
 BYTE   N48  An2  v100
 BYTE   W12
 BYTE   N06  Gs1  v092
 BYTE   W06
 BYTE   Dn1  v100
 BYTE   N06  Gs1  v092
 BYTE   W12
 BYTE   N06
 BYTE   W06
 BYTE   Dn1  v100
 BYTE   N06  Gs1  v092
 BYTE   W06
 BYTE   Dn1  v100
 BYTE   N06  Gs1  v092
 BYTE   W06
 BYTE   Dn1  v100
 BYTE   N06  Gs1  v092
 BYTE   W12
 BYTE   PEND 
Label_5_017D1D9B:
 BYTE   N12  Bn0  v100
 BYTE   N48  An2
 BYTE   W12
// 005   ----------------------------------------
 BYTE   N06  Gs1  v092
 BYTE   W06
 BYTE   N06
 BYTE   W12
 BYTE   N06
 BYTE   W06
 BYTE   N06
 BYTE   W12
 BYTE   N12  Dn1  v100
 BYTE   N06  Gs1  v092
 BYTE   W06
 BYTE   N06
 BYTE   W06
 BYTE   N06
 BYTE   W12
 BYTE   N06
 BYTE   W06
 BYTE   N06
 BYTE   W06
 BYTE   N12  Dn1  v100
 BYTE   W06
 BYTE   N06  Gs1  v092
 BYTE   W06
 BYTE   N06
 BYTE   W12
// 006   ----------------------------------------
 BYTE   N06
 BYTE   W12
 BYTE   PEND 
// 007   ----------------------------------------
 BYTE   PATT
  POIN2 Label_5_017D1CF3
// 008   ----------------------------------------
 BYTE   PATT
  POIN2 Label_5_017D1D24
// 009   ----------------------------------------
 BYTE   PATT
  POIN2 Label_5_017D1D58
// 010   ----------------------------------------
Label_5_017D1DD6:
 BYTE   N24  Cn1  v100
 BYTE   N72  An2
 BYTE   W24
 BYTE   N24  Cn1
 BYTE   W24
 BYTE   Dn1
 BYTE   W24
 BYTE   PEND 
Label_5_017D1DE2:
 BYTE   N24  Cn1  v100
 BYTE   W24
// 011   ----------------------------------------
 BYTE   N24
 BYTE   W24
 BYTE   N12  Dn1
 BYTE   W12
 BYTE   N12
 BYTE   W12
 BYTE   PEND 
// 012   ----------------------------------------
 BYTE   PATT
  POIN2 Label_5_017D1DD6
// 013   ----------------------------------------
 BYTE   PATT
  POIN2 Label_5_017D1DE2
// 014   ----------------------------------------
Label_5_017D1DF8:
 BYTE   N24  Cn1  v100
 BYTE   N72  An2
 BYTE   W12
 BYTE   N06  Gs1  v092
 BYTE   W12
 BYTE   N24  Cn1  v100
 BYTE   W12
 BYTE   N06  Gs1  v092
 BYTE   W06
 BYTE   N06
 BYTE   W06
 BYTE   N24  Dn1  v100
 BYTE   N06  Gs1  v092
 BYTE   W12
 BYTE   N06
 BYTE   W12
 BYTE   PEND 
Label_5_017D1E16:
 BYTE   N24  Cn1  v100
 BYTE   N06  Gs1  v092
 BYTE   W12
 BYTE   N06
 BYTE   W12
// 015   ----------------------------------------
 BYTE   N24  Cn1  v100
 BYTE   N06  Gs1  v092
 BYTE   W12
 BYTE   N06
 BYTE   W06
 BYTE   N06
 BYTE   W06
 BYTE   N12  Dn1  v100
 BYTE   N06  Gs1  v092
 BYTE   W12
 BYTE   N12  Dn1  v100
 BYTE   N06  Gs1  v092
 BYTE   W12
 BYTE   PEND 
// 016   ----------------------------------------
 BYTE   PATT
  POIN2 Label_5_017D1DF8
// 017   ----------------------------------------
Label_5_017D1E3E:
 BYTE   N24  Cn1  v100
 BYTE   N72  An2
 BYTE   W12
 BYTE   N06  Gs1  v092
 BYTE   W12
 BYTE   N24  Cn1  v100
 BYTE   W12
 BYTE   N06  Gs1  v092
 BYTE   W06
 BYTE   N06
 BYTE   W06
 BYTE   N12  Dn1  v100
 BYTE   N06  Gs1  v092
 BYTE   W12
 BYTE   Dn1  v100
 BYTE   N06  Gs1
 BYTE   W06
 BYTE   Dn1
 BYTE   N06  Gs1  v092
 BYTE   W06
 BYTE   PEND 
// 018   ----------------------------------------
 BYTE   PATT
  POIN2 Label_5_017D1D9B
// 019   ----------------------------------------
 BYTE   PATT
  POIN2 Label_5_017D1CF3
// 020   ----------------------------------------
 BYTE   PATT
  POIN2 Label_5_017D1D24
// 021   ----------------------------------------
 BYTE   PATT
  POIN2 Label_5_017D1D58
// 022   ----------------------------------------
 BYTE   PATT
  POIN2 Label_5_017D1D9B
// 023   ----------------------------------------
 BYTE   PATT
  POIN2 Label_5_017D1CF3
// 024   ----------------------------------------
 BYTE   PATT
  POIN2 Label_5_017D1D24
// 025   ----------------------------------------
 BYTE   PATT
  POIN2 Label_5_017D1D58
// 026   ----------------------------------------
 BYTE   PATT
  POIN2 Label_5_017D1DD6
// 027   ----------------------------------------
 BYTE   PATT
  POIN2 Label_5_017D1DE2
// 028   ----------------------------------------
 BYTE   PATT
  POIN2 Label_5_017D1DD6
// 029   ----------------------------------------
 BYTE   PATT
  POIN2 Label_5_017D1DE2
// 030   ----------------------------------------
 BYTE   PATT
  POIN2 Label_5_017D1DF8
// 031   ----------------------------------------
 BYTE   PATT
  POIN2 Label_5_017D1E16
// 032   ----------------------------------------
 BYTE   PATT
  POIN2 Label_5_017D1DF8
// 033   ----------------------------------------
 BYTE   PATT
  POIN2 Label_5_017D1E3E
// 034   ----------------------------------------
 BYTE   N06  Gs1  v100
 BYTE   N72  An2
 BYTE   W12
 BYTE   N06  Gs1
 BYTE   W06
 BYTE   Dn1
 BYTE   N06  Gs1
 BYTE   W12
 BYTE   N06
 BYTE   W06
 BYTE   N06
 BYTE   W06
 BYTE   N06
 BYTE   W06
 BYTE   Dn1
 BYTE   N06  Gs1
 BYTE   W12
 BYTE   N06
 BYTE   W12
 BYTE   N06
 BYTE   N72  An2
 BYTE   W12
 BYTE   N06  Gs1
 BYTE   W06
 BYTE   Dn1
 BYTE   N06  Gs1
 BYTE   W12
// 035   ----------------------------------------
 BYTE   N06
 BYTE   W06
 BYTE   Dn1
 BYTE   N06  Gs1
 BYTE   W06
 BYTE   Dn1
 BYTE   N06  Gs1
 BYTE   W06
 BYTE   N06
 BYTE   W12
 BYTE   Dn1
 BYTE   N06  Gs1
 BYTE   W06
 BYTE   Dn1  v088
 BYTE   W06
Label_5_017D1EEB:
 BYTE   N24  Cn1  v100
 BYTE   N48  An2
 BYTE   W36
 BYTE   N12  Cn1
 BYTE   W12
 BYTE   Dn1
 BYTE   W48
 BYTE   PEND 
// 036   ----------------------------------------
Label_5_017D1EF7:
 BYTE   N12  Cn1  v100
 BYTE   W12
 BYTE   N12
 BYTE   W24
 BYTE   N12
 BYTE   W12
 BYTE   Dn1
 BYTE   W48
 BYTE   PEND 
// 037   ----------------------------------------
Label_5_017D1F02:
 BYTE   N24  Cn1  v100
 BYTE   W36
 BYTE   N12
 BYTE   W12
 BYTE   Dn1
 BYTE   W48
 BYTE   PEND 
// 038   ----------------------------------------
 BYTE   PATT
  POIN2 Label_5_017D1EF7
// 039   ----------------------------------------
 BYTE   PATT
  POIN2 Label_5_017D1EEB
// 040   ----------------------------------------
 BYTE   PATT
  POIN2 Label_5_017D1EF7
// 041   ----------------------------------------
 BYTE   PATT
  POIN2 Label_5_017D1F02
// 042   ----------------------------------------
 BYTE   N12  Cn1  v100
 BYTE   W12
 BYTE   N12
 BYTE   W24
 BYTE   N12
 BYTE   W12
 BYTE   Dn1
 BYTE   W24
 BYTE   GoTo
  POIN2 Label_5_017D1CC2
 BYTE   FINE

//******************************************************//
	ALIGN 4

song03A5:
	BYTE	6	// NumTrks
	BYTE	0	// NumBlks
	BYTE	song03A5_pri	// Priority
	BYTE	song03A5_rev	// Reverb.
    
	POIN2	song03A5_grp
    
	POIN2	song03A5_001
	POIN2	song03A5_002
	POIN2	song03A5_003
	POIN2	song03A5_004
	POIN2	song03A5_005
	POIN2	song03A5_006

	
