//Event file generated from Sappy .s format.
	#include "MPlayDef.event"

	#define	EyvelSong_grp  voicegroup000
	#define	EyvelSong_pri  0
	#define	EyvelSong_rev  208
	#define	EyvelSong_mvl  127
	#define	EyvelSong_key  0
	#define	EyvelSong_tbs  1
	#define	EyvelSong_exg  0
	#define	EyvelSong_cmp  1

	// .rodata
	//	EyvelSong
	ALIGN 4


//**************** Track 1 (Midi-Chn.0) ****************//

EyvelSong_001:
//  #01 //000   ----------------------------------------
 BYTE   KEYSH   EyvelSong_key+0
Label_01943956:
 BYTE   TEMPO   114*EyvelSong_tbs/2
 BYTE   VOICE   58
 BYTE   MODT 0
 BYTE   LFOS 44
 BYTE   PAN   c_v+6
 BYTE   VOL   50*EyvelSong_mvl/mxv
 BYTE   N12  An1  v084
 BYTE   W12
 BYTE   An1  v036
 BYTE   W12
 BYTE   N12
 BYTE   W12
 BYTE   An1  v084
 BYTE   W12
 BYTE   An1  v036
 BYTE   W12
 BYTE   N12
 BYTE   W12
 BYTE   An1  v084
 BYTE   W12
 BYTE   An1  v036
 BYTE   W12
//  #01 //001   ----------------------------------------
Label_01943979:
 BYTE   N12  An1  v084
 BYTE   W12
 BYTE   An1  v036
 BYTE   W12
 BYTE   N12
 BYTE   W12
 BYTE   An1  v084
 BYTE   W12
 BYTE   An1  v036
 BYTE   W12
 BYTE   N12
 BYTE   W12
 BYTE   An1  v084
 BYTE   W12
 BYTE   An1  v036
 BYTE   W12
 BYTE   PEND 
//  #01 //002   ----------------------------------------
 BYTE   PATT
  POIN2 Label_01943979
//  #01 //003   ----------------------------------------
Label_01943996:
 BYTE   N12  An1  v084
 BYTE   W12
 BYTE   An1  v036
 BYTE   W12
 BYTE   N12
 BYTE   W12
 BYTE   An1  v084
 BYTE   W12
 BYTE   An1  v036
 BYTE   W12
 BYTE   N12
 BYTE   W12
 BYTE   An1  v084
 BYTE   W12
 BYTE   N12
 BYTE   W12
 BYTE   PEND 
//  #01 //004   ----------------------------------------
 BYTE   PATT
  POIN2 Label_01943979
//  #01 //005   ----------------------------------------
 BYTE   PATT
  POIN2 Label_01943979
//  #01 //006   ----------------------------------------
 BYTE   PATT
  POIN2 Label_01943979
//  #01 //007   ----------------------------------------
 BYTE   PATT
  POIN2 Label_01943996
//  #01 //008   ----------------------------------------
Label_019439C1:
 BYTE   N12  Fn1  v084
 BYTE   W12
 BYTE   Fn1  v036
 BYTE   W12
 BYTE   N12
 BYTE   W12
 BYTE   Fn1  v084
 BYTE   W12
 BYTE   Fn1  v036
 BYTE   W12
 BYTE   N12
 BYTE   W12
 BYTE   Fn1  v084
 BYTE   W12
 BYTE   Fn1  v036
 BYTE   W12
 BYTE   PEND 
//  #01 //009   ----------------------------------------
 BYTE   PATT
  POIN2 Label_019439C1
//  #01 //010   ----------------------------------------
 BYTE   PATT
  POIN2 Label_019439C1
//  #01 //011   ----------------------------------------
 BYTE   N12  Fn1  v084
 BYTE   W12
 BYTE   Fn1  v036
 BYTE   W12
 BYTE   N12
 BYTE   W12
 BYTE   Fn1  v084
 BYTE   W12
 BYTE   Fn1  v036
 BYTE   W12
 BYTE   N12
 BYTE   W12
 BYTE   Fn1  v084
 BYTE   W12
 BYTE   N12
 BYTE   W12
//  #01 //012   ----------------------------------------
Label_019439F9:
 BYTE   N12  Gn1  v084
 BYTE   W12
 BYTE   Gn1  v036
 BYTE   W12
 BYTE   N12
 BYTE   W12
 BYTE   Gn1  v084
 BYTE   W12
 BYTE   Gn1  v036
 BYTE   W12
 BYTE   N12
 BYTE   W12
 BYTE   Gn1  v084
 BYTE   W12
 BYTE   Gn1  v036
 BYTE   W12
 BYTE   PEND 
//  #01 //013   ----------------------------------------
 BYTE   PATT
  POIN2 Label_019439F9
//  #01 //014   ----------------------------------------
 BYTE   N12  En1  v084
 BYTE   W12
 BYTE   En1  v036
 BYTE   W12
 BYTE   N12
 BYTE   W12
 BYTE   En1  v084
 BYTE   W12
 BYTE   En1  v036
 BYTE   W12
 BYTE   N12
 BYTE   W12
 BYTE   En1  v084
 BYTE   W12
 BYTE   En1  v036
 BYTE   W12
//  #01 //015   ----------------------------------------
 BYTE   En1  v084
 BYTE   W12
 BYTE   En1  v036
 BYTE   W12
 BYTE   N12
 BYTE   W12
 BYTE   En1  v084
 BYTE   W12
 BYTE   En1  v036
 BYTE   W12
 BYTE   N12
 BYTE   W12
 BYTE   En1  v084
 BYTE   W12
 BYTE   N12
 BYTE   W12
//  #01 //016   ----------------------------------------
 BYTE   PATT
  POIN2 Label_01943979
//  #01 //017   ----------------------------------------
 BYTE   PATT
  POIN2 Label_01943979
//  #01 //018   ----------------------------------------
 BYTE   PATT
  POIN2 Label_01943979
//  #01 //019   ----------------------------------------
 BYTE   PATT
  POIN2 Label_01943996
//  #01 //020   ----------------------------------------
 BYTE   GoTo
  POIN2 Label_01943956
 BYTE   FINE

//**************** Track 2 (Midi-Chn.1) ****************//

EyvelSong_002:
//  #02 //000   ----------------------------------------
 BYTE   KEYSH   EyvelSong_key+0
Label_019431FE:
 BYTE   VOICE   61
 BYTE   MODT 0
 BYTE   LFOS 44
 BYTE   PAN   c_v+14
 BYTE   VOL   51*EyvelSong_mvl/mxv
 BYTE   N09  An2  v084
 BYTE   W12
 BYTE   Bn2
 BYTE   W12
 BYTE   Cn3
 BYTE   W12
 BYTE   Bn2
 BYTE   W12
 BYTE   Dn3
 BYTE   W12
 BYTE   Cn3
 BYTE   W12
 BYTE   Bn2
 BYTE   W12
 BYTE   Cn3
 BYTE   W12
//  #02 //001   ----------------------------------------
Label_0194321A:
 BYTE   N09  An2  v084
 BYTE   W12
 BYTE   Bn2
 BYTE   W12
 BYTE   Cn3
 BYTE   W12
 BYTE   Bn2
 BYTE   W12
 BYTE   Dn3
 BYTE   W12
 BYTE   Cn3
 BYTE   W12
 BYTE   Bn2
 BYTE   W12
 BYTE   Cn3
 BYTE   W12
 BYTE   PEND 
//  #02 //002   ----------------------------------------
 BYTE   PATT
  POIN2 Label_0194321A
//  #02 //003   ----------------------------------------
 BYTE   PATT
  POIN2 Label_0194321A
//  #02 //004   ----------------------------------------
 BYTE   PATT
  POIN2 Label_0194321A
//  #02 //005   ----------------------------------------
 BYTE   PATT
  POIN2 Label_0194321A
//  #02 //006   ----------------------------------------
 BYTE   PATT
  POIN2 Label_0194321A
//  #02 //007   ----------------------------------------
 BYTE   PATT
  POIN2 Label_0194321A
//  #02 //008   ----------------------------------------
 BYTE   PATT
  POIN2 Label_0194321A
//  #02 //009   ----------------------------------------
 BYTE   PATT
  POIN2 Label_0194321A
//  #02 //010   ----------------------------------------
 BYTE   PATT
  POIN2 Label_0194321A
//  #02 //011   ----------------------------------------
 BYTE   PATT
  POIN2 Label_0194321A
//  #02 //012   ----------------------------------------
Label_0194325F:
 BYTE   N09  Bn2  v084
 BYTE   W12
 BYTE   Cn3
 BYTE   W12
 BYTE   Dn3
 BYTE   W12
 BYTE   Cn3
 BYTE   W12
 BYTE   En3
 BYTE   W12
 BYTE   Dn3
 BYTE   W12
 BYTE   Cn3
 BYTE   W12
 BYTE   Dn3
 BYTE   W12
 BYTE   PEND 
//  #02 //013   ----------------------------------------
 BYTE   PATT
  POIN2 Label_0194325F
//  #02 //014   ----------------------------------------
 BYTE   PATT
  POIN2 Label_0194325F
//  #02 //015   ----------------------------------------
 BYTE   N09  Bn2  v084
 BYTE   W12
 BYTE   Cn3
 BYTE   W12
 BYTE   Dn3
 BYTE   W12
 BYTE   Cn3
 BYTE   W12
 BYTE   En3
 BYTE   W12
 BYTE   Dn3
 BYTE   W12
 BYTE   Cn3
 BYTE   W12
 BYTE   Bn2
 BYTE   W12
//  #02 //016   ----------------------------------------
 BYTE   W96
//  #02 //017   ----------------------------------------
 BYTE   W96
//  #02 //018   ----------------------------------------
 BYTE   W96
//  #02 //019   ----------------------------------------
 BYTE   W96
//  #02 //020   ----------------------------------------
 BYTE   GoTo
  POIN2 Label_019431FE
 BYTE   FINE

//**************** Track 3 (Midi-Chn.2) ****************//

EyvelSong_003:
//  #03 //000   ----------------------------------------
 BYTE   KEYSH   EyvelSong_key+0
Label_01944666:
 BYTE   VOICE   48
 BYTE   MODT 0
 BYTE   LFOS 44
 BYTE   PAN   c_v+9
 BYTE   VOL   53*EyvelSong_mvl/mxv
 BYTE   N96  An2  v084
 BYTE   W96
//  #03 //001   ----------------------------------------
 BYTE   Bn2
 BYTE   W96
//  #03 //002   ----------------------------------------
 BYTE   TIE  Cn3
 BYTE   W96
//  #03 //003   ----------------------------------------
 BYTE   W96
//  #03 //004   ----------------------------------------
 BYTE   EOT
 BYTE   N96
 BYTE   W96
//  #03 //005   ----------------------------------------
 BYTE   Dn3
 BYTE   W96
//  #03 //006   ----------------------------------------
 BYTE   TIE  En3
 BYTE   W96
//  #03 //007   ----------------------------------------
 BYTE   W96
//  #03 //008   ----------------------------------------
 BYTE   EOT
 BYTE   W96
//  #03 //009   ----------------------------------------
 BYTE   W96
//  #03 //010   ----------------------------------------
 BYTE   W96
//  #03 //011   ----------------------------------------
 BYTE   W96
//  #03 //012   ----------------------------------------
 BYTE   W96
//  #03 //013   ----------------------------------------
 BYTE   W96
//  #03 //014   ----------------------------------------
 BYTE   W96
//  #03 //015   ----------------------------------------
 BYTE   W96
//  #03 //016   ----------------------------------------
 BYTE   N12
 BYTE   W96
//  #03 //017   ----------------------------------------
Label_0194468E:
 BYTE   W24
 BYTE   N12  Cn3  v084
 BYTE   W24
 BYTE   Dn3
 BYTE   W24
 BYTE   N18  Bn2
 BYTE   W24
 BYTE   PEND 
//  #03 //018   ----------------------------------------
 BYTE   N12  Cn3
 BYTE   W96
//  #03 //019   ----------------------------------------
 BYTE   PATT
  POIN2 Label_0194468E
//  #03 //020   ----------------------------------------
 BYTE   GoTo
  POIN2 Label_01944666
 BYTE   FINE

//**************** Track 4 (Midi-Chn.3) ****************//

EyvelSong_004:
//  #04 //000   ----------------------------------------
 BYTE   KEYSH   EyvelSong_key+0
Label_01944006:
 BYTE   VOICE   42
 BYTE   MODT 0
 BYTE   LFOS 44
 BYTE   VOL   32*EyvelSong_mvl/mxv
 BYTE   W06
 BYTE   N09  En3  v084
 BYTE   W12
 BYTE   N09
 BYTE   W12
 BYTE   N09
 BYTE   W12
 BYTE   N09
 BYTE   W12
 BYTE   N09
 BYTE   W12
 BYTE   N09
 BYTE   W12
 BYTE   N09
 BYTE   W12
 BYTE   N09
 BYTE   W06
//  #04 //001   ----------------------------------------
Label_01944021:
 BYTE   W06
 BYTE   N09  En3  v084
 BYTE   W12
 BYTE   N09
 BYTE   W12
 BYTE   N09
 BYTE   W12
 BYTE   N09
 BYTE   W12
 BYTE   N09
 BYTE   W12
 BYTE   N09
 BYTE   W12
 BYTE   N09
 BYTE   W12
 BYTE   N09
 BYTE   W06
 BYTE   PEND 
//  #04 //002   ----------------------------------------
 BYTE   PATT
  POIN2 Label_01944021
//  #04 //003   ----------------------------------------
 BYTE   PATT
  POIN2 Label_01944021
//  #04 //004   ----------------------------------------
 BYTE   PATT
  POIN2 Label_01944021
//  #04 //005   ----------------------------------------
 BYTE   PATT
  POIN2 Label_01944021
//  #04 //006   ----------------------------------------
 BYTE   PATT
  POIN2 Label_01944021
//  #04 //007   ----------------------------------------
 BYTE   PATT
  POIN2 Label_01944021
//  #04 //008   ----------------------------------------
 BYTE   PATT
  POIN2 Label_01944021
//  #04 //009   ----------------------------------------
 BYTE   PATT
  POIN2 Label_01944021
//  #04 //010   ----------------------------------------
 BYTE   PATT
  POIN2 Label_01944021
//  #04 //011   ----------------------------------------
 BYTE   PATT
  POIN2 Label_01944021
//  #04 //012   ----------------------------------------
 BYTE   PATT
  POIN2 Label_01944021
//  #04 //013   ----------------------------------------
 BYTE   PATT
  POIN2 Label_01944021
//  #04 //014   ----------------------------------------
 BYTE   PATT
  POIN2 Label_01944021
//  #04 //015   ----------------------------------------
 BYTE   PATT
  POIN2 Label_01944021
//  #04 //016   ----------------------------------------
 BYTE   PATT
  POIN2 Label_01944021
//  #04 //017   ----------------------------------------
 BYTE   PATT
  POIN2 Label_01944021
//  #04 //018   ----------------------------------------
 BYTE   PATT
  POIN2 Label_01944021
//  #04 //019   ----------------------------------------
 BYTE   W06
 BYTE   N09  En3  v084
 BYTE   W12
 BYTE   N09
 BYTE   W12
 BYTE   N09
 BYTE   W12
 BYTE   N09
 BYTE   W12
 BYTE   N09
 BYTE   W12
 BYTE   N09
 BYTE   W12
 BYTE   N09
 BYTE   W18
//  #04 //020   ----------------------------------------
 BYTE   GoTo
  POIN2 Label_01944006
 BYTE   FINE

//**************** Track 5 (Midi-Chn.4) ****************//

EyvelSong_005:
//  #05 //000   ----------------------------------------
 BYTE   KEYSH   EyvelSong_key+0
Label_0194362E:
 BYTE   VOICE   49
 BYTE   MODT 0
 BYTE   LFOS 44
 BYTE   PAN   c_v+3
 BYTE   VOL   53*EyvelSong_mvl/mxv
 BYTE   N96  En2  v084
 BYTE   W96
//  #05 //001   ----------------------------------------
 BYTE   Fn2
 BYTE   W96
//  #05 //002   ----------------------------------------
 BYTE   Gn2
 BYTE   W96
//  #05 //003   ----------------------------------------
 BYTE   N48  Fs2
 BYTE   W48
 BYTE   Fn2
 BYTE   W48
//  #05 //004   ----------------------------------------
 BYTE   N96  En2
 BYTE   W96
//  #05 //005   ----------------------------------------
 BYTE   N48  Fn2
 BYTE   W48
 BYTE   Gn2
 BYTE   W48
//  #05 //006   ----------------------------------------
 BYTE   N90  An2
 BYTE   W90
 BYTE   N06  Bn2
 BYTE   W06
//  #05 //007   ----------------------------------------
 BYTE   N90  Cn3
 BYTE   W90
 BYTE   N06  Dn3
 BYTE   W06
//  #05 //008   ----------------------------------------
 BYTE   W96
//  #05 //009   ----------------------------------------
 BYTE   W96
//  #05 //010   ----------------------------------------
 BYTE   W96
//  #05 //011   ----------------------------------------
 BYTE   W96
//  #05 //012   ----------------------------------------
 BYTE   W96
//  #05 //013   ----------------------------------------
 BYTE   W96
//  #05 //014   ----------------------------------------
 BYTE   W96
//  #05 //015   ----------------------------------------
 BYTE   W96
//  #05 //016   ----------------------------------------
 BYTE   N12  An1
 BYTE   W96
//  #05 //017   ----------------------------------------
 BYTE   W24
 BYTE   N12
 BYTE   W24
 BYTE   Bn1
 BYTE   W24
 BYTE   N18  Gn1
 BYTE   W24
//  #05 //018   ----------------------------------------
 BYTE   N12  An1
 BYTE   W96
//  #05 //019   ----------------------------------------
 BYTE   W24
 BYTE   N12
 BYTE   W24
 BYTE   Bn1
 BYTE   W24
 BYTE   N18  Fn1
 BYTE   W24
//  #05 //020   ----------------------------------------
 BYTE   GoTo
  POIN2 Label_0194362E
 BYTE   FINE

//**************** Track 6 (Midi-Chn.5) ****************//

EyvelSong_006:
//  #06 //000   ----------------------------------------
 BYTE   KEYSH   EyvelSong_key+0
Label_01944602:
 BYTE   VOICE   68
 BYTE   MODT 0
 BYTE   LFOS 44
 BYTE   VOL   45*EyvelSong_mvl/mxv
 BYTE   PAN   c_v+24
 BYTE   W96
//  #06 //001   ----------------------------------------
 BYTE   W96
//  #06 //002   ----------------------------------------
 BYTE   W96
//  #06 //003   ----------------------------------------
 BYTE   W96
//  #06 //004   ----------------------------------------
 BYTE   W96
//  #06 //005   ----------------------------------------
 BYTE   W96
//  #06 //006   ----------------------------------------
 BYTE   W96
//  #06 //007   ----------------------------------------
 BYTE   W96
//  #06 //008   ----------------------------------------
 BYTE   N96  En4  v084
 BYTE   W96
//  #06 //009   ----------------------------------------
 BYTE   N48  Dn4
 BYTE   W48
 BYTE   N24  Cn4
 BYTE   W24
 BYTE   Bn3
 BYTE   W24
//  #06 //010   ----------------------------------------
 BYTE   N96  An3
 BYTE   W96
//  #06 //011   ----------------------------------------
 BYTE   N48  Bn3
 BYTE   W48
 BYTE   N24  Cn4
 BYTE   W24
 BYTE   Dn4
 BYTE   W24
//  #06 //012   ----------------------------------------
 BYTE   TIE  Cn4
 BYTE   W96
//  #06 //013   ----------------------------------------
 BYTE   W84
 BYTE   EOT
 BYTE   N06  Dn4
 BYTE   W06
 BYTE   Cn4
 BYTE   W06
//  #06 //014   ----------------------------------------
 BYTE   TIE  Bn3
 BYTE   W96
//  #06 //015   ----------------------------------------
 BYTE   W48
 BYTE   EOT
 BYTE   W48
//  #06 //016   ----------------------------------------
 BYTE   W96
//  #06 //017   ----------------------------------------
 BYTE   W96
//  #06 //018   ----------------------------------------
 BYTE   W96
//  #06 //019   ----------------------------------------
 BYTE   W96
//  #06 //020   ----------------------------------------
 BYTE   GoTo
  POIN2 Label_01944602
 BYTE   FINE

//**************** Track 7 (Midi-Chn.6) ****************//

EyvelSong_007:
//  #07 //000   ----------------------------------------
 BYTE   KEYSH   EyvelSong_key+0
Label_019DD5B2:
 BYTE   VOICE   40
 BYTE   MODT 0
 BYTE   LFOS 44
 BYTE   VOL   51*EyvelSong_mvl/mxv
 BYTE   PAN   c_v-38
 BYTE   W96
//  #07 //001   ----------------------------------------
 BYTE   W96
//  #07 //002   ----------------------------------------
 BYTE   W72
 BYTE   N06  An3  v084
 BYTE   W06
 BYTE   Cn4
 BYTE   W06
 BYTE   En4
 BYTE   W06
 BYTE   An4
 BYTE   W06
//  #07 //003   ----------------------------------------
Label_019DD5C9:
 BYTE   N06  An3  v084
 BYTE   W06
 BYTE   Cn4
 BYTE   W06
 BYTE   En4
 BYTE   W06
 BYTE   An4
 BYTE   W06
 BYTE   An3
 BYTE   W06
 BYTE   Cn4
 BYTE   W06
 BYTE   En4
 BYTE   W06
 BYTE   An4
 BYTE   W06
 BYTE   An3
 BYTE   W06
 BYTE   Cn4
 BYTE   W06
 BYTE   En4
 BYTE   W06
 BYTE   An4
 BYTE   W06
 BYTE   En4
 BYTE   W06
 BYTE   An4
 BYTE   W06
 BYTE   En4
 BYTE   W06
 BYTE   Cn4
 BYTE   W06
 BYTE   PEND 
//  #07 //004   ----------------------------------------
 BYTE   W96
//  #07 //005   ----------------------------------------
 BYTE   W96
//  #07 //006   ----------------------------------------
 BYTE   W96
//  #07 //007   ----------------------------------------
 BYTE   PATT
  POIN2 Label_019DD5C9
//  #07 //008   ----------------------------------------
 BYTE   TIE  An2  v084
 BYTE   W96
//  #07 //009   ----------------------------------------
 BYTE   W96
//  #07 //010   ----------------------------------------
 BYTE   W96
//  #07 //011   ----------------------------------------
 BYTE   W96
//  #07 //012   ----------------------------------------
 BYTE   EOT
 BYTE   TIE  Gn2
 BYTE   W96
//  #07 //013   ----------------------------------------
 BYTE   W96
//  #07 //014   ----------------------------------------
 BYTE   EOT
 BYTE   N96  Gs2
 BYTE   W96
//  #07 //015   ----------------------------------------
 BYTE   N48  An2
 BYTE   W48
 BYTE   Bn2
 BYTE   W48
//  #07 //016   ----------------------------------------
 BYTE   W96
//  #07 //017   ----------------------------------------
Label_019DD60A:
 BYTE   W24
 BYTE   N12  En3  v084
 BYTE   W24
 BYTE   Fn3
 BYTE   W24
 BYTE   N18  Dn3
 BYTE   W24
 BYTE   PEND 
//  #07 //018   ----------------------------------------
 BYTE   W96
//  #07 //019   ----------------------------------------
 BYTE   PATT
  POIN2 Label_019DD60A
//  #07 //020   ----------------------------------------
 BYTE   GoTo
  POIN2 Label_019DD5B2
 BYTE   FINE

//**************** Track 8 (Midi-Chn.7) ****************//

EyvelSong_008:
//  #08 //000   ----------------------------------------
 BYTE   KEYSH   EyvelSong_key+0
Label_019440A6:
 BYTE   VOICE   41
 BYTE   MODT 0
 BYTE   LFOS 44
 BYTE   PAN   c_v-13
 BYTE   VOL   53*EyvelSong_mvl/mxv
 BYTE   N96  An3  v060
 BYTE   W96
//  #08 //001   ----------------------------------------
 BYTE   Bn3
 BYTE   W96
//  #08 //002   ----------------------------------------
 BYTE   TIE  Cn4
 BYTE   W96
//  #08 //003   ----------------------------------------
 BYTE   W96
//  #08 //004   ----------------------------------------
 BYTE   EOT
 BYTE   N96
 BYTE   W96
//  #08 //005   ----------------------------------------
 BYTE   Dn4
 BYTE   W96
//  #08 //006   ----------------------------------------
 BYTE   TIE  En4
 BYTE   W96
//  #08 //007   ----------------------------------------
 BYTE   W96
//  #08 //008   ----------------------------------------
 BYTE   EOT
 BYTE   W96
//  #08 //009   ----------------------------------------
 BYTE   W96
//  #08 //010   ----------------------------------------
 BYTE   W96
//  #08 //011   ----------------------------------------
 BYTE   W96
//  #08 //012   ----------------------------------------
 BYTE   W96
//  #08 //013   ----------------------------------------
 BYTE   W96
//  #08 //014   ----------------------------------------
 BYTE   W96
//  #08 //015   ----------------------------------------
 BYTE   W96
//  #08 //016   ----------------------------------------
 BYTE   W96
//  #08 //017   ----------------------------------------
Label_019440CD:
 BYTE   W24
 BYTE   N12  Cn4  v084
 BYTE   W24
 BYTE   Dn4
 BYTE   W24
 BYTE   N18  Bn3
 BYTE   W24
 BYTE   PEND 
//  #08 //018   ----------------------------------------
 BYTE   N06  An3
 BYTE   W06
 BYTE   Cn4
 BYTE   W06
 BYTE   En4
 BYTE   W06
 BYTE   An4
 BYTE   W06
 BYTE   An3
 BYTE   W06
 BYTE   Cn4
 BYTE   W06
 BYTE   En4
 BYTE   W06
 BYTE   An4
 BYTE   W06
 BYTE   An3
 BYTE   W06
 BYTE   Cn4
 BYTE   W06
 BYTE   En4
 BYTE   W06
 BYTE   An4
 BYTE   W06
 BYTE   An3
 BYTE   W06
 BYTE   Cn4
 BYTE   W06
 BYTE   En4
 BYTE   W06
 BYTE   An4
 BYTE   W06
//  #08 //019   ----------------------------------------
 BYTE   PATT
  POIN2 Label_019440CD
//  #08 //020   ----------------------------------------
 BYTE   GoTo
  POIN2 Label_019440A6
 BYTE   FINE

//******************************************************//
	ALIGN 4

EyvelSong:
	BYTE	8	// NumTrks
	BYTE	0	// NumBlks
	BYTE	EyvelSong_pri	// Priority
	BYTE	EyvelSong_rev	// Reverb.
    
	POIN2	EyvelSong_grp
    
	POIN2	EyvelSong_001
	POIN2	EyvelSong_002
	POIN2	EyvelSong_003
	POIN2	EyvelSong_004
	POIN2	EyvelSong_005
	POIN2	EyvelSong_006
	POIN2	EyvelSong_007
	POIN2	EyvelSong_008

	
