//Event file generated from Sappy .s format.
	#include "MPlayDef.event"

	#define	song34_grp  voicegroup001
	#define	song34_pri  0
	#define	song34_rev  160 //0xA0
	#define	song34_mvl  127
	#define	song34_key  0
	#define	song34_tbs  1
	#define	song34_exg  0
	#define	song34_cmp  1

	// .rodata
	//	song34
	ALIGN 4


//**************** Track 1 (Midi-Chn.0) ****************//

song34_001:
//  #01 //000   ----------------------------------------
 BYTE   KEYSH   song34_key+0
 BYTE   TEMPO   228*song34_tbs/2
 BYTE   VOICE   1
 BYTE   VOL   34*song34_mvl/mxv
 BYTE   PAN   c_v-8
 BYTE   BEND   c_v+0
 BYTE   N05  Ds3  v100
 BYTE   N05  As3
 BYTE   N05  Ds4
 BYTE   W12
 BYTE   Ds3
 BYTE   N05  As3
 BYTE   N05  Ds4
 BYTE   W24
 BYTE   Ds3
 BYTE   N05  As3
 BYTE   N05  Ds4
 BYTE   W24
 BYTE   Ds3
 BYTE   N05  As3
 BYTE   N05  Ds4
 BYTE   W12
 BYTE   Ds3
 BYTE   N05  As3
 BYTE   N05  Ds4
 BYTE   W24
//  #01 //001   ----------------------------------------
 BYTE   W96
//  #01 //002   ----------------------------------------
Label_0153CE4D:
 BYTE   N05  Fs3  v100
 BYTE   N05  Cs4
 BYTE   N05  Fs4
 BYTE   W12
 BYTE   Fs3
 BYTE   N05  Cs4
 BYTE   N05  Fs4
 BYTE   W24
 BYTE   Gs3
 BYTE   N05  Ds4
 BYTE   N05  Gs4
 BYTE   W24
 BYTE   Fs3
 BYTE   N05  Cs4
 BYTE   N05  Fs4
 BYTE   W12
 BYTE   Cs3
 BYTE   N05  Gs3
 BYTE   N05  Cs4
 BYTE   W24
 BYTE   PEND 
//  #01 //003   ----------------------------------------
 BYTE   W96
//  #01 //004   ----------------------------------------
Label_0153CE6F:
 BYTE   N05  As2  v100
 BYTE   N05  Fs3
 BYTE   N05  As3
 BYTE   W12
 BYTE   As2
 BYTE   N05  Fs3
 BYTE   N05  As3
 BYTE   W24
 BYTE   Bn2
 BYTE   N05  Fn3
 BYTE   N05  Bn3
 BYTE   W24
 BYTE   As2
 BYTE   N05  Ds3
 BYTE   N05  As3
 BYTE   W12
 BYTE   Gs2
 BYTE   N05  Cs3
 BYTE   N05  Gs3
 BYTE   W24
 BYTE   PEND 
//  #01 //005   ----------------------------------------
 BYTE   W96
//  #01 //006   ----------------------------------------
Label_0153CE91:
 BYTE   N05  Ds3  v100
 BYTE   N05  As3
 BYTE   N05  Ds4
 BYTE   W12
 BYTE   Ds3
 BYTE   N05  As3
 BYTE   N05  Ds4
 BYTE   W24
 BYTE   Cs3
 BYTE   N05  As3
 BYTE   N05  Cs4
 BYTE   W24
 BYTE   Ds3
 BYTE   N05  As3
 BYTE   N05  Ds4
 BYTE   W12
 BYTE   Ds3
 BYTE   N05  As3
 BYTE   N05  Ds4
 BYTE   W24
 BYTE   PEND 
//  #01 //007   ----------------------------------------
Label_0153CEB2:
 BYTE   N05  Ds3  v100
 BYTE   N05  As3
 BYTE   N05  Ds4
 BYTE   W12
 BYTE   Ds3
 BYTE   N05  As3
 BYTE   N05  Ds4
 BYTE   W24
 BYTE   Fs3
 BYTE   N05  Bn3
 BYTE   N05  Fs4
 BYTE   W24
 BYTE   Fn3
 BYTE   N05  Cs4
 BYTE   N05  Fn4
 BYTE   W12
 BYTE   Cs3
 BYTE   N05  Cs4
 BYTE   N05  Fs4
 BYTE   W24
 BYTE   PEND 
//  #01 //008   ----------------------------------------
Label_0153CED3:
 BYTE   N05  Ds3  v100
 BYTE   N05  As3
 BYTE   N05  Ds4
 BYTE   W12
 BYTE   Ds3
 BYTE   N05  As3
 BYTE   N05  Ds4
 BYTE   W24
 BYTE   Ds3
 BYTE   N05  As3
 BYTE   N05  Ds4
 BYTE   W24
 BYTE   Ds3
 BYTE   N05  As3
 BYTE   N05  Ds4
 BYTE   W12
 BYTE   Ds3
 BYTE   N05  As3
 BYTE   N05  Ds4
 BYTE   W24
 BYTE   PEND 
//  #01 //009   ----------------------------------------
 BYTE   W96
//  #01 //010   ----------------------------------------
 BYTE   PATT
  POIN2 Label_0153CE4D
//  #01 //011   ----------------------------------------
 BYTE   W96
//  #01 //012   ----------------------------------------
 BYTE   PATT
  POIN2 Label_0153CE6F
//  #01 //013   ----------------------------------------
 BYTE   W96
//  #01 //014   ----------------------------------------
 BYTE   PATT
  POIN2 Label_0153CE91
//  #01 //015   ----------------------------------------
 BYTE   PATT
  POIN2 Label_0153CEB2
//  #01 //016   ----------------------------------------
 BYTE   PATT
  POIN2 Label_0153CED3
//  #01 //017   ----------------------------------------
 BYTE   W96
//  #01 //018   ----------------------------------------
 BYTE   PATT
  POIN2 Label_0153CE4D
//  #01 //019   ----------------------------------------
 BYTE   W96
//  #01 //020   ----------------------------------------
 BYTE   PATT
  POIN2 Label_0153CE6F
//  #01 //021   ----------------------------------------
 BYTE   W96
//  #01 //022   ----------------------------------------
 BYTE   PATT
  POIN2 Label_0153CE91
//  #01 //023   ----------------------------------------
Label_0153CF22:
 BYTE   N05  Ds3  v100
 BYTE   N05  As3
 BYTE   N05  Ds4
 BYTE   W12
 BYTE   Ds3
 BYTE   N05  As3
 BYTE   N05  Ds4
 BYTE   W24
 BYTE   Ds3
 BYTE   N05  Gs3
 BYTE   N05  Ds4
 BYTE   W24
 BYTE   Fs3
 BYTE   N05  Cs4
 BYTE   N05  Fs4
 BYTE   W12
 BYTE   Fn3
 BYTE   N05  Ds4
 BYTE   N05  Fn4
 BYTE   W24
 BYTE   PEND 
//  #01 //024   ----------------------------------------
 BYTE   PATT
  POIN2 Label_0153CED3
//  #01 //025   ----------------------------------------
 BYTE   W96
//  #01 //026   ----------------------------------------
 BYTE   PATT
  POIN2 Label_0153CE4D
//  #01 //027   ----------------------------------------
 BYTE   W96
//  #01 //028   ----------------------------------------
 BYTE   PATT
  POIN2 Label_0153CE6F
//  #01 //029   ----------------------------------------
 BYTE   W96
//  #01 //030   ----------------------------------------
 BYTE   PATT
  POIN2 Label_0153CE91
//  #01 //031   ----------------------------------------
 BYTE   PATT
  POIN2 Label_0153CF22
//  #01 //032   ----------------------------------------
 BYTE   W96
//  #01 //033   ----------------------------------------
 BYTE   W96
//  #01 //034   ----------------------------------------
Label_0153CF61:
 BYTE   N32  Ds3  v100
 BYTE   N32  As3
 BYTE   N32  Ds4
 BYTE   W36
 BYTE   Fs3
 BYTE   N32  Cs4
 BYTE   N32  Fs4
 BYTE   W36
 BYTE   TIE  Cs3
 BYTE   TIE  Gs3
 BYTE   TIE  Cs4
 BYTE   W24
//  #01 //035   ----------------------------------------
 BYTE   W92
 BYTE   W03
 BYTE   EOT
 BYTE   Cs3  v068
 BYTE   Cs4
 BYTE   W01
//  #01 //036   ----------------------------------------
 BYTE   TIE  As2
 BYTE   TIE  Fs3
 BYTE   TIE  As3
 BYTE   W96
//  #01 //037   ----------------------------------------
 BYTE   W92
 BYTE   W03
 BYTE   EOT
 BYTE   As2  v066
 BYTE   As3
 BYTE   W01
//  #01 //038   ----------------------------------------
 BYTE   N32  Gs2
 BYTE   N32  Ds3
 BYTE   N32  Gs3
 BYTE   W36
 BYTE   As2
 BYTE   N32  Fn3
 BYTE   N32  As3
 BYTE   W36
 BYTE   TIE  Cs3
 BYTE   TIE  Fs3
 BYTE   TIE  Cs4
 BYTE   W24
//  #01 //039   ----------------------------------------
 BYTE   W92
 BYTE   W03
 BYTE   EOT
 BYTE   Cs3  v066
 BYTE   Cs4
 BYTE   W01
//  #01 //040   ----------------------------------------
 BYTE   N92  Ds3
 BYTE   N92  As3
 BYTE   N92  Ds4
 BYTE   W96
//  #01 //041   ----------------------------------------
 BYTE   N32  Fs3
 BYTE   N32  Cs4
 BYTE   N32  Fs4
 BYTE   W36
 BYTE   Fn3
 BYTE   N32  Cn4
 BYTE   N32  Fn4
 BYTE   W36
 BYTE   N11  Ds3
 BYTE   N11  As3
 BYTE   N11  Ds4
 BYTE   W12
 BYTE   Cs3
 BYTE   N11  Gs3
 BYTE   N11  Cs4
 BYTE   W12
//  #01 //042   ----------------------------------------
 BYTE   Fs2
 BYTE   N11  Ds3
 BYTE   N11  As3
 BYTE   W12
 BYTE   Cs3
 BYTE   N11  Fs3
 BYTE   N11  Cs4
 BYTE   W12
 BYTE   N68  As2
 BYTE   N68  Fn3
 BYTE   N68  As3
 BYTE   W72
//  #01 //043   ----------------------------------------
 BYTE   N92  Ds3
 BYTE   N92  Gs3
 BYTE   N92  Ds4
 BYTE   W96
//  #01 //044   ----------------------------------------
 BYTE   Fn3
 BYTE   N92  As3
 BYTE   N92  Cs4
 BYTE   W96
//  #01 //045   ----------------------------------------
 BYTE   N44  Ds3
 BYTE   N44  Fs3
 BYTE   N44  Bn3
 BYTE   W48
 BYTE   Cs3
 BYTE   N44  Fn3
 BYTE   N44  As3
 BYTE   W48
//  #01 //046   ----------------------------------------
 BYTE   N32  Cs3
 BYTE   N32  Fn3
 BYTE   N32  Gs3
 BYTE   W36
 BYTE   As2
 BYTE   N32  Fs3
 BYTE   N32  As3
 BYTE   W36
 BYTE   TIE  As2
 BYTE   TIE  Cs3
 BYTE   TIE  Fn3
 BYTE   TIE  Cs4
 BYTE   W24
//  #01 //047   ----------------------------------------
 BYTE   W92
 BYTE   W03
 BYTE   EOT
 BYTE   As2  v061
 BYTE   Fn3  v073
 BYTE   W01
//  #01 //048   ----------------------------------------
 BYTE   TIE  Fs2
 BYTE   TIE  As2
 BYTE   TIE  Ds3
 BYTE   TIE  As3
 BYTE   TIE  Ds4
 BYTE   W96
//  #01 //049   ----------------------------------------
 BYTE   W92
 BYTE   W03
 BYTE   EOT
 BYTE   Fs2  v058
 BYTE   Ds3  v070
 BYTE   Ds4
 BYTE   W01
//  #01 //050   ----------------------------------------
 BYTE   PATT
  POIN2 Label_0153CED3
//  #01 //051   ----------------------------------------
 BYTE   W96
//  #01 //052   ----------------------------------------
 BYTE   PATT
  POIN2 Label_0153CE4D
//  #01 //053   ----------------------------------------
 BYTE   W96
//  #01 //054   ----------------------------------------
 BYTE   PATT
  POIN2 Label_0153CE6F
//  #01 //055   ----------------------------------------
 BYTE   W96
//  #01 //056   ----------------------------------------
 BYTE   PATT
  POIN2 Label_0153CE91
//  #01 //057   ----------------------------------------
 BYTE   PATT
  POIN2 Label_0153CEB2
//  #01 //058   ----------------------------------------
 BYTE   PATT
  POIN2 Label_0153CED3
//  #01 //059   ----------------------------------------
 BYTE   W96
//  #01 //060   ----------------------------------------
 BYTE   PATT
  POIN2 Label_0153CE4D
//  #01 //061   ----------------------------------------
 BYTE   W96
//  #01 //062   ----------------------------------------
 BYTE   PATT
  POIN2 Label_0153CE6F
//  #01 //063   ----------------------------------------
 BYTE   W96
//  #01 //064   ----------------------------------------
 BYTE   PATT
  POIN2 Label_0153CE91
//  #01 //065   ----------------------------------------
 BYTE   PATT
  POIN2 Label_0153CF22
//  #01 //066   ----------------------------------------
 BYTE   PATT
  POIN2 Label_0153CED3
//  #01 //067   ----------------------------------------
 BYTE   W96
//  #01 //068   ----------------------------------------
 BYTE   PATT
  POIN2 Label_0153CE4D
//  #01 //069   ----------------------------------------
 BYTE   W96
//  #01 //070   ----------------------------------------
 BYTE   PATT
  POIN2 Label_0153CE6F
//  #01 //071   ----------------------------------------
 BYTE   W96
//  #01 //072   ----------------------------------------
 BYTE   PATT
  POIN2 Label_0153CE91
//  #01 //073   ----------------------------------------
 BYTE   PATT
  POIN2 Label_0153CEB2
//  #01 //074   ----------------------------------------
 BYTE   PATT
  POIN2 Label_0153CED3
//  #01 //075   ----------------------------------------
 BYTE   W96
//  #01 //076   ----------------------------------------
 BYTE   PATT
  POIN2 Label_0153CE4D
//  #01 //077   ----------------------------------------
 BYTE   W96
//  #01 //078   ----------------------------------------
 BYTE   PATT
  POIN2 Label_0153CE6F
//  #01 //079   ----------------------------------------
 BYTE   W96
//  #01 //080   ----------------------------------------
 BYTE   PATT
  POIN2 Label_0153CE91
//  #01 //081   ----------------------------------------
 BYTE   PATT
  POIN2 Label_0153CF22
//  #01 //082   ----------------------------------------
 BYTE   W96
//  #01 //083   ----------------------------------------
 BYTE   W96
//  #01 //084   ----------------------------------------
 BYTE   GoTo
  POIN2 Label_0153CF61
//  #01 //085   ----------------------------------------
 BYTE   PAN   c_v+0
 BYTE   BEND   c_v+0
 BYTE   FINE

//**************** Track 2 (Midi-Chn.1) ****************//

song34_002:
//  #02 //000   ----------------------------------------
 BYTE   KEYSH   song34_key+0
 BYTE   VOICE   36
 BYTE   VOL   42*song34_mvl/mxv
 BYTE   PAN   c_v+6
 BYTE   BEND   c_v+0
 BYTE   N05  Ds2  v100
 BYTE   W12
 BYTE   N05
 BYTE   W12
 BYTE   N05
 BYTE   W12
 BYTE   N05
 BYTE   W12
 BYTE   N05
 BYTE   W12
 BYTE   N05
 BYTE   W12
 BYTE   N05
 BYTE   W12
 BYTE   N05
 BYTE   W12
//  #02 //001   ----------------------------------------
Label_0153D0C0:
 BYTE   N05  Ds2  v100
 BYTE   W36
 BYTE   N05
 BYTE   W36
 BYTE   N05
 BYTE   W12
 BYTE   N05
 BYTE   W12
 BYTE   PEND 
//  #02 //002   ----------------------------------------
Label_0153D0CB:
 BYTE   N05  As1  v100
 BYTE   W12
 BYTE   N05
 BYTE   W12
 BYTE   N05
 BYTE   W12
 BYTE   N05
 BYTE   W12
 BYTE   N05
 BYTE   W12
 BYTE   N05
 BYTE   W12
 BYTE   N05
 BYTE   W12
 BYTE   N05
 BYTE   W12
 BYTE   PEND 
//  #02 //003   ----------------------------------------
Label_0153D0DE:
 BYTE   N05  As1  v100
 BYTE   W36
 BYTE   N05
 BYTE   W36
 BYTE   N05
 BYTE   W12
 BYTE   N05
 BYTE   W12
 BYTE   PEND 
//  #02 //004   ----------------------------------------
Label_0153D0E9:
 BYTE   N05  Gs1  v100
 BYTE   W12
 BYTE   N05
 BYTE   W12
 BYTE   N05
 BYTE   W12
 BYTE   N05
 BYTE   W12
 BYTE   N05
 BYTE   W12
 BYTE   N05
 BYTE   W12
 BYTE   N05
 BYTE   W12
 BYTE   N05
 BYTE   W12
 BYTE   PEND 
//  #02 //005   ----------------------------------------
Label_0153D0FC:
 BYTE   N05  Gs1  v100
 BYTE   W24
 BYTE   As1
 BYTE   W12
 BYTE   Cs2
 BYTE   W12
 BYTE   Gs1
 BYTE   W24
 BYTE   N05
 BYTE   W12
 BYTE   N05
 BYTE   W12
 BYTE   PEND 
//  #02 //006   ----------------------------------------
Label_0153D10B:
 BYTE   N05  Ds2  v100
 BYTE   W12
 BYTE   N05
 BYTE   W12
 BYTE   N05
 BYTE   W12
 BYTE   N05
 BYTE   W12
 BYTE   N05
 BYTE   W12
 BYTE   N05
 BYTE   W12
 BYTE   N05
 BYTE   W12
 BYTE   N05
 BYTE   W12
 BYTE   PEND 
//  #02 //007   ----------------------------------------
Label_0153D11E:
 BYTE   N05  Ds2  v100
 BYTE   W12
 BYTE   As1
 BYTE   W12
 BYTE   N05
 BYTE   W12
 BYTE   Fs2
 BYTE   W12
 BYTE   Cs2
 BYTE   W12
 BYTE   N05
 BYTE   W12
 BYTE   As1
 BYTE   W12
 BYTE   N05
 BYTE   W12
 BYTE   PEND 
//  #02 //008   ----------------------------------------
 BYTE   PATT
  POIN2 Label_0153D10B
//  #02 //009   ----------------------------------------
 BYTE   PATT
  POIN2 Label_0153D0C0
//  #02 //010   ----------------------------------------
 BYTE   PATT
  POIN2 Label_0153D0CB
//  #02 //011   ----------------------------------------
 BYTE   PATT
  POIN2 Label_0153D0DE
//  #02 //012   ----------------------------------------
 BYTE   PATT
  POIN2 Label_0153D0E9
//  #02 //013   ----------------------------------------
 BYTE   PATT
  POIN2 Label_0153D0FC
//  #02 //014   ----------------------------------------
 BYTE   PATT
  POIN2 Label_0153D10B
//  #02 //015   ----------------------------------------
 BYTE   PATT
  POIN2 Label_0153D11E
//  #02 //016   ----------------------------------------
 BYTE   PATT
  POIN2 Label_0153D10B
//  #02 //017   ----------------------------------------
 BYTE   PATT
  POIN2 Label_0153D0C0
//  #02 //018   ----------------------------------------
 BYTE   PATT
  POIN2 Label_0153D0CB
//  #02 //019   ----------------------------------------
 BYTE   PATT
  POIN2 Label_0153D0DE
//  #02 //020   ----------------------------------------
 BYTE   PATT
  POIN2 Label_0153D0E9
//  #02 //021   ----------------------------------------
 BYTE   PATT
  POIN2 Label_0153D0FC
//  #02 //022   ----------------------------------------
 BYTE   PATT
  POIN2 Label_0153D10B
//  #02 //023   ----------------------------------------
 BYTE   PATT
  POIN2 Label_0153D11E
//  #02 //024   ----------------------------------------
 BYTE   PATT
  POIN2 Label_0153D10B
//  #02 //025   ----------------------------------------
 BYTE   PATT
  POIN2 Label_0153D0C0
//  #02 //026   ----------------------------------------
 BYTE   PATT
  POIN2 Label_0153D0CB
//  #02 //027   ----------------------------------------
 BYTE   PATT
  POIN2 Label_0153D0DE
//  #02 //028   ----------------------------------------
 BYTE   PATT
  POIN2 Label_0153D0E9
//  #02 //029   ----------------------------------------
 BYTE   PATT
  POIN2 Label_0153D0FC
//  #02 //030   ----------------------------------------
 BYTE   PATT
  POIN2 Label_0153D10B
//  #02 //031   ----------------------------------------
 BYTE   PATT
  POIN2 Label_0153D11E
//  #02 //032   ----------------------------------------
 BYTE   PATT
  POIN2 Label_0153D10B
//  #02 //033   ----------------------------------------
Label_0153D1AE:
 BYTE   N05  As1  v100
 BYTE   W12
 BYTE   N05
 BYTE   W12
 BYTE   Cs2
 BYTE   W12
 BYTE   N05
 BYTE   W12
 BYTE   Ds2
 BYTE   W12
 BYTE   N05
 BYTE   W12
 BYTE   N05
 BYTE   W12
 BYTE   N05
 BYTE   W12
 BYTE   PEND 
//  #02 //034   ----------------------------------------
Label_0153D1C1:
//  #02 //035   ----------------------------------------
 BYTE   PATT
  POIN2 Label_0153D10B
//  #02 //036   ----------------------------------------
 BYTE   N05  Ds2  v100
 BYTE   W36
 BYTE   N05
 BYTE   W36
 BYTE   N05
 BYTE   W24
//  #02 //037   ----------------------------------------
 BYTE   PATT
  POIN2 Label_0153D0CB
//  #02 //038   ----------------------------------------
 BYTE   N05  As1  v100
 BYTE   W36
 BYTE   Bn1
 BYTE   W36
 BYTE   As1
 BYTE   W24
//  #02 //039   ----------------------------------------
 BYTE   Gs1
 BYTE   W12
 BYTE   N05
 BYTE   W12
 BYTE   N05
 BYTE   W12
 BYTE   N05
 BYTE   W12
 BYTE   Cs2
 BYTE   W12
 BYTE   N05
 BYTE   W12
 BYTE   N05
 BYTE   W12
 BYTE   N05
 BYTE   W12
//  #02 //040   ----------------------------------------
 BYTE   Gs1
 BYTE   W36
 BYTE   Cs2
 BYTE   W36
 BYTE   Fn2
 BYTE   W24
//  #02 //041   ----------------------------------------
 BYTE   PATT
  POIN2 Label_0153D10B
//  #02 //042   ----------------------------------------
 BYTE   N05  Fs2  v100
 BYTE   W36
 BYTE   Fn2
 BYTE   W36
 BYTE   Ds2
 BYTE   W12
 BYTE   Cs2
 BYTE   W12
//  #02 //043   ----------------------------------------
 BYTE   As1
 BYTE   W36
 BYTE   Cs2
 BYTE   W36
 BYTE   Ds2
 BYTE   W12
 BYTE   N05
 BYTE   W12
//  #02 //044   ----------------------------------------
 BYTE   Cs2
 BYTE   W36
 BYTE   N05
 BYTE   W36
 BYTE   N05
 BYTE   W12
 BYTE   N05
 BYTE   W12
//  #02 //045   ----------------------------------------
 BYTE   Bn1
 BYTE   W36
 BYTE   N05
 BYTE   W36
 BYTE   N05
 BYTE   W12
 BYTE   N05
 BYTE   W12
//  #02 //046   ----------------------------------------
 BYTE   N05
 BYTE   W12
 BYTE   N05
 BYTE   W12
 BYTE   N05
 BYTE   W12
 BYTE   N05
 BYTE   W12
 BYTE   As1
 BYTE   W12
 BYTE   N05
 BYTE   W12
 BYTE   N05
 BYTE   W12
 BYTE   N05
 BYTE   W12
//  #02 //047   ----------------------------------------
 BYTE   Gs1
 BYTE   W36
 BYTE   N05
 BYTE   W36
 BYTE   As1
 BYTE   W24
//  #02 //048   ----------------------------------------
 BYTE   Cs2
 BYTE   W12
 BYTE   N05
 BYTE   W12
 BYTE   N05
 BYTE   W12
 BYTE   N05
 BYTE   W12
 BYTE   N05
 BYTE   W12
 BYTE   N05
 BYTE   W12
 BYTE   N05
 BYTE   W12
 BYTE   N05
 BYTE   W12
//  #02 //049   ----------------------------------------
 BYTE   PATT
  POIN2 Label_0153D10B
//  #02 //050   ----------------------------------------
 BYTE   N05  Ds2  v100
 BYTE   W12
 BYTE   N05
 BYTE   W12
 BYTE   N05
 BYTE   W12
 BYTE   N05
 BYTE   W12
 BYTE   Fs2
 BYTE   W12
 BYTE   Fn2
 BYTE   W12
 BYTE   Ds2
 BYTE   W12
 BYTE   Cs2
 BYTE   W12
//  #02 //051   ----------------------------------------
 BYTE   PATT
  POIN2 Label_0153D10B
//  #02 //052   ----------------------------------------
 BYTE   PATT
  POIN2 Label_0153D0C0
//  #02 //053   ----------------------------------------
 BYTE   PATT
  POIN2 Label_0153D0CB
//  #02 //054   ----------------------------------------
 BYTE   PATT
  POIN2 Label_0153D0DE
//  #02 //055   ----------------------------------------
 BYTE   PATT
  POIN2 Label_0153D0E9
//  #02 //056   ----------------------------------------
 BYTE   PATT
  POIN2 Label_0153D0FC
//  #02 //057   ----------------------------------------
 BYTE   PATT
  POIN2 Label_0153D10B
//  #02 //058   ----------------------------------------
 BYTE   PATT
  POIN2 Label_0153D11E
//  #02 //059   ----------------------------------------
 BYTE   PATT
  POIN2 Label_0153D10B
//  #02 //060   ----------------------------------------
 BYTE   PATT
  POIN2 Label_0153D0C0
//  #02 //061   ----------------------------------------
 BYTE   PATT
  POIN2 Label_0153D0CB
//  #02 //062   ----------------------------------------
 BYTE   PATT
  POIN2 Label_0153D0DE
//  #02 //063   ----------------------------------------
 BYTE   PATT
  POIN2 Label_0153D0E9
//  #02 //064   ----------------------------------------
 BYTE   PATT
  POIN2 Label_0153D0FC
//  #02 //065   ----------------------------------------
 BYTE   PATT
  POIN2 Label_0153D10B
//  #02 //066   ----------------------------------------
 BYTE   PATT
  POIN2 Label_0153D11E
//  #02 //067   ----------------------------------------
 BYTE   PATT
  POIN2 Label_0153D10B
//  #02 //068   ----------------------------------------
 BYTE   PATT
  POIN2 Label_0153D0C0
//  #02 //069   ----------------------------------------
 BYTE   PATT
  POIN2 Label_0153D0CB
//  #02 //070   ----------------------------------------
 BYTE   PATT
  POIN2 Label_0153D0DE
//  #02 //071   ----------------------------------------
 BYTE   PATT
  POIN2 Label_0153D0E9
//  #02 //072   ----------------------------------------
 BYTE   PATT
  POIN2 Label_0153D0FC
//  #02 //073   ----------------------------------------
 BYTE   PATT
  POIN2 Label_0153D10B
//  #02 //074   ----------------------------------------
 BYTE   PATT
  POIN2 Label_0153D11E
//  #02 //075   ----------------------------------------
 BYTE   PATT
  POIN2 Label_0153D10B
//  #02 //076   ----------------------------------------
 BYTE   PATT
  POIN2 Label_0153D0C0
//  #02 //077   ----------------------------------------
 BYTE   PATT
  POIN2 Label_0153D0CB
//  #02 //078   ----------------------------------------
 BYTE   PATT
  POIN2 Label_0153D0DE
//  #02 //079   ----------------------------------------
 BYTE   PATT
  POIN2 Label_0153D0E9
//  #02 //080   ----------------------------------------
 BYTE   PATT
  POIN2 Label_0153D0FC
//  #02 //081   ----------------------------------------
 BYTE   PATT
  POIN2 Label_0153D10B
//  #02 //082   ----------------------------------------
 BYTE   PATT
  POIN2 Label_0153D11E
//  #02 //083   ----------------------------------------
 BYTE   PATT
  POIN2 Label_0153D10B
//  #02 //084   ----------------------------------------
 BYTE   PATT
  POIN2 Label_0153D1AE
//  #02 //085   ----------------------------------------
 BYTE   GoTo
  POIN2 Label_0153D1C1
//  #02 //086   ----------------------------------------
 BYTE   VOICE   36
 BYTE   PAN   c_v+0
 BYTE   BEND   c_v+0
 BYTE   FINE

//**************** Track 3 (Midi-Chn.2) ****************//

song34_003:
//  #03 //000   ----------------------------------------
 BYTE   KEYSH   song34_key+0
 BYTE   VOICE   46
 BYTE   PAN   c_v-7
 BYTE   VOL   39*song34_mvl/mxv
 BYTE   BEND   c_v+0
 BYTE   W96
//  #03 //001   ----------------------------------------
 BYTE   W96
//  #03 //002   ----------------------------------------
 BYTE   W96
//  #03 //003   ----------------------------------------
 BYTE   W96
//  #03 //004   ----------------------------------------
 BYTE   W96
//  #03 //005   ----------------------------------------
 BYTE   W96
//  #03 //006   ----------------------------------------
 BYTE   W96
//  #03 //007   ----------------------------------------
 BYTE   W96
//  #03 //008   ----------------------------------------
 BYTE   W96
//  #03 //009   ----------------------------------------
 BYTE   W96
//  #03 //010   ----------------------------------------
 BYTE   W96
//  #03 //011   ----------------------------------------
 BYTE   W96
//  #03 //012   ----------------------------------------
 BYTE   W96
//  #03 //013   ----------------------------------------
 BYTE   W96
//  #03 //014   ----------------------------------------
 BYTE   W96
//  #03 //015   ----------------------------------------
 BYTE   W96
//  #03 //016   ----------------------------------------
 BYTE   W96
//  #03 //017   ----------------------------------------
 BYTE   N05  Ds3  v100
 BYTE   W36
 BYTE   N05
 BYTE   W36
 BYTE   N05
 BYTE   W24
//  #03 //018   ----------------------------------------
 BYTE   W96
//  #03 //019   ----------------------------------------
Label_0153D394:
 BYTE   N05  Fs3  v100
 BYTE   W36
 BYTE   Fn3
 BYTE   W36
 BYTE   Ds3
 BYTE   W12
 BYTE   Cs3
 BYTE   W12
 BYTE   PEND 
//  #03 //020   ----------------------------------------
 BYTE   W96
//  #03 //021   ----------------------------------------
 BYTE   As2
 BYTE   W36
 BYTE   Cs3
 BYTE   W36
 BYTE   Fn3
 BYTE   W24
//  #03 //022   ----------------------------------------
 BYTE   W96
//  #03 //023   ----------------------------------------
 BYTE   W48
 BYTE   N03  As3
 BYTE   W08
 BYTE   Gs3
 BYTE   W08
 BYTE   Fs3
 BYTE   W08
 BYTE   Ds3
 BYTE   W08
 BYTE   Cs3
 BYTE   W08
 BYTE   As2
 BYTE   W08
//  #03 //024   ----------------------------------------
 BYTE   W96
//  #03 //025   ----------------------------------------
 BYTE   N05  Ds3
 BYTE   W12
 BYTE   N05
 BYTE   W12
 BYTE   Fs3
 BYTE   W12
 BYTE   Fn3
 BYTE   W12
 BYTE   Cs3
 BYTE   W12
 BYTE   N05
 BYTE   W12
 BYTE   N05
 BYTE   W24
//  #03 //026   ----------------------------------------
 BYTE   W96
//  #03 //027   ----------------------------------------
 BYTE   As3
 BYTE   W12
 BYTE   Gs3
 BYTE   W12
 BYTE   As3
 BYTE   W12
 BYTE   Gs3
 BYTE   W12
 BYTE   Fs3
 BYTE   W12
 BYTE   N05
 BYTE   W12
 BYTE   N05
 BYTE   W24
//  #03 //028   ----------------------------------------
 BYTE   W96
//  #03 //029   ----------------------------------------
 BYTE   N32  Fn4
 BYTE   W36
 BYTE   Ds4
 BYTE   W36
 BYTE   N23  Cs4
 BYTE   W24
//  #03 //030   ----------------------------------------
 BYTE   W96
//  #03 //031   ----------------------------------------
 BYTE   N05  Ds3
 BYTE   W12
 BYTE   Cs3
 BYTE   W12
 BYTE   Ds3
 BYTE   W12
 BYTE   Cs3
 BYTE   W12
 BYTE   Ds3
 BYTE   W12
 BYTE   N05
 BYTE   W12
 BYTE   N05
 BYTE   W24
//  #03 //032   ----------------------------------------
Label_0153D3ED:
 BYTE   N05  Ds3  v100
 BYTE   W12
 BYTE   As2
 BYTE   W12
 BYTE   Fs3
 BYTE   W12
 BYTE   Cs3
 BYTE   W12
 BYTE   As3
 BYTE   W12
 BYTE   Fs3
 BYTE   W12
 BYTE   Ds3
 BYTE   W12
 BYTE   As2
 BYTE   W12
 BYTE   PEND 
//  #03 //033   ----------------------------------------
Label_0153D400:
 BYTE   N05  Ds4  v100
 BYTE   W12
 BYTE   Cs4
 BYTE   W12
 BYTE   Fs4
 BYTE   W12
 BYTE   Cs4
 BYTE   W12
 BYTE   N03  As4
 BYTE   W08
 BYTE   Gs4
 BYTE   W08
 BYTE   Fs4
 BYTE   W08
 BYTE   Ds4
 BYTE   W08
 BYTE   Cs4
 BYTE   W08
 BYTE   As3
 BYTE   W08
 BYTE   PEND 
//  #03 //034   ----------------------------------------
Label_0153D418:
 BYTE   W96
//  #03 //035   ----------------------------------------
 BYTE   W96
//  #03 //036   ----------------------------------------
 BYTE   W96
//  #03 //037   ----------------------------------------
 BYTE   W96
//  #03 //038   ----------------------------------------
 BYTE   W96
//  #03 //039   ----------------------------------------
 BYTE   W96
//  #03 //040   ----------------------------------------
 BYTE   W96
//  #03 //041   ----------------------------------------
 BYTE   W96
//  #03 //042   ----------------------------------------
 BYTE   W96
//  #03 //043   ----------------------------------------
 BYTE   W96
//  #03 //044   ----------------------------------------
 BYTE   W96
//  #03 //045   ----------------------------------------
 BYTE   W96
//  #03 //046   ----------------------------------------
 BYTE   W96
//  #03 //047   ----------------------------------------
 BYTE   W96
//  #03 //048   ----------------------------------------
 BYTE   W96
//  #03 //049   ----------------------------------------
 BYTE   W96
//  #03 //050   ----------------------------------------
 BYTE   W96
//  #03 //051   ----------------------------------------
 BYTE   N05  Ds3  v100
 BYTE   W36
 BYTE   Fs3
 BYTE   W36
 BYTE   As3
 BYTE   W24
//  #03 //052   ----------------------------------------
 BYTE   W96
//  #03 //053   ----------------------------------------
 BYTE   Gs3
 BYTE   W36
 BYTE   Fn3
 BYTE   W36
 BYTE   Gs3
 BYTE   W24
//  #03 //054   ----------------------------------------
 BYTE   W96
//  #03 //055   ----------------------------------------
 BYTE   PATT
  POIN2 Label_0153D394
//  #03 //056   ----------------------------------------
 BYTE   W96
//  #03 //057   ----------------------------------------
 BYTE   N05  Ds3  v100
 BYTE   W12
 BYTE   Fs3
 BYTE   W12
 BYTE   As3
 BYTE   W12
 BYTE   Fs3
 BYTE   W12
 BYTE   Ds4
 BYTE   W12
 BYTE   As3
 BYTE   W12
 BYTE   Fs4
 BYTE   W12
 BYTE   Cs4
 BYTE   W12
//  #03 //058   ----------------------------------------
 BYTE   W96
//  #03 //059   ----------------------------------------
 BYTE   Ds4
 BYTE   W12
 BYTE   Fs4
 BYTE   W12
 BYTE   Ds4
 BYTE   W12
 BYTE   As4
 BYTE   W12
 BYTE   Gs4
 BYTE   W12
 BYTE   Fs4
 BYTE   W12
 BYTE   Fn4
 BYTE   W12
 BYTE   Ds4
 BYTE   W12
//  #03 //060   ----------------------------------------
 BYTE   W96
//  #03 //061   ----------------------------------------
 BYTE   Cs4
 BYTE   W24
 BYTE   As3
 BYTE   W24
 BYTE   Fs4
 BYTE   W18
 BYTE   Fn4
 BYTE   W18
 BYTE   Ds4
 BYTE   W12
//  #03 //062   ----------------------------------------
 BYTE   Cs4
 BYTE   W24
 BYTE   Ds4
 BYTE   W12
 BYTE   Fn4
 BYTE   W24
 BYTE   Ds4
 BYTE   W12
 BYTE   Cs4
 BYTE   W24
//  #03 //063   ----------------------------------------
 BYTE   As3
 BYTE   W36
 BYTE   Cs4
 BYTE   W36
 BYTE   As3
 BYTE   W24
//  #03 //064   ----------------------------------------
 BYTE   Ds4
 BYTE   W12
 BYTE   Cs4
 BYTE   W12
 BYTE   As3
 BYTE   W12
 BYTE   Gs3
 BYTE   W12
 BYTE   As4
 BYTE   W12
 BYTE   Gs4
 BYTE   W12
 BYTE   Fs4
 BYTE   W12
 BYTE   Fn4
 BYTE   W12
//  #03 //065   ----------------------------------------
 BYTE   Ds4
 BYTE   W12
 BYTE   Fs4
 BYTE   W12
 BYTE   As3
 BYTE   W12
 BYTE   Cs4
 BYTE   W12
 BYTE   Ds4
 BYTE   W12
 BYTE   Fs4
 BYTE   W12
 BYTE   As4
 BYTE   W12
 BYTE   Ds5
 BYTE   W12
//  #03 //066   ----------------------------------------
 BYTE   N92  Ds4
 BYTE   W96
//  #03 //067   ----------------------------------------
 BYTE   W96
//  #03 //068   ----------------------------------------
 BYTE   W96
//  #03 //069   ----------------------------------------
 BYTE   W96
//  #03 //070   ----------------------------------------
 BYTE   W96
//  #03 //071   ----------------------------------------
 BYTE   W96
//  #03 //072   ----------------------------------------
 BYTE   W96
//  #03 //073   ----------------------------------------
 BYTE   W96
//  #03 //074   ----------------------------------------
 BYTE   W96
//  #03 //075   ----------------------------------------
 BYTE   W96
//  #03 //076   ----------------------------------------
 BYTE   W96
//  #03 //077   ----------------------------------------
 BYTE   W96
//  #03 //078   ----------------------------------------
 BYTE   W96
//  #03 //079   ----------------------------------------
 BYTE   W96
//  #03 //080   ----------------------------------------
 BYTE   W96
//  #03 //081   ----------------------------------------
 BYTE   W96
//  #03 //082   ----------------------------------------
 BYTE   PATT
  POIN2 Label_0153D3ED
//  #03 //083   ----------------------------------------
 BYTE   PATT
  POIN2 Label_0153D400
//  #03 //084   ----------------------------------------
 BYTE   GoTo
  POIN2 Label_0153D418
//  #03 //085   ----------------------------------------
 BYTE   VOICE   46
 BYTE   BEND   c_v+0
 BYTE   FINE

//**************** Track 4 (Midi-Chn.3) ****************//

song34_004:
//  #04 //000   ----------------------------------------
 BYTE   KEYSH   song34_key+0
 BYTE   VOICE   14
 BYTE   VOL   38*song34_mvl/mxv
 BYTE   PAN   c_v+8
 BYTE   BEND   c_v+0
 BYTE   W96
//  #04 //001   ----------------------------------------
 BYTE   W96
//  #04 //002   ----------------------------------------
 BYTE   W96
//  #04 //003   ----------------------------------------
 BYTE   W96
//  #04 //004   ----------------------------------------
 BYTE   W96
//  #04 //005   ----------------------------------------
 BYTE   W96
//  #04 //006   ----------------------------------------
 BYTE   W96
//  #04 //007   ----------------------------------------
 BYTE   W96
//  #04 //008   ----------------------------------------
 BYTE   W96
//  #04 //009   ----------------------------------------
 BYTE   W96
//  #04 //010   ----------------------------------------
 BYTE   W96
//  #04 //011   ----------------------------------------
 BYTE   W96
//  #04 //012   ----------------------------------------
 BYTE   W96
//  #04 //013   ----------------------------------------
 BYTE   W96
//  #04 //014   ----------------------------------------
 BYTE   W96
//  #04 //015   ----------------------------------------
 BYTE   W96
//  #04 //016   ----------------------------------------
 BYTE   TIE  Ds3  v100
 BYTE   W96
//  #04 //017   ----------------------------------------
 BYTE   W92
 BYTE   W03
 BYTE   EOT
 BYTE   W01
//  #04 //018   ----------------------------------------
 BYTE   TIE  Fs3
 BYTE   W96
//  #04 //019   ----------------------------------------
 BYTE   W92
 BYTE   W03
 BYTE   EOT
 BYTE   W01
//  #04 //020   ----------------------------------------
 BYTE   TIE  Cs3
 BYTE   W96
//  #04 //021   ----------------------------------------
 BYTE   W92
 BYTE   W03
 BYTE   EOT
 BYTE   W01
//  #04 //022   ----------------------------------------
 BYTE   TIE  Ds3
 BYTE   W96
//  #04 //023   ----------------------------------------
 BYTE   W92
 BYTE   W03
 BYTE   EOT
 BYTE   W01
//  #04 //024   ----------------------------------------
 BYTE   TIE
 BYTE   W96
//  #04 //025   ----------------------------------------
 BYTE   W92
 BYTE   W03
 BYTE   EOT
 BYTE   W01
//  #04 //026   ----------------------------------------
 BYTE   TIE  Fs3
 BYTE   W96
//  #04 //027   ----------------------------------------
 BYTE   W92
 BYTE   W03
 BYTE   EOT
 BYTE   W01
//  #04 //028   ----------------------------------------
 BYTE   TIE  Cs3
 BYTE   W96
//  #04 //029   ----------------------------------------
 BYTE   W92
 BYTE   W03
 BYTE   EOT
 BYTE   W01
//  #04 //030   ----------------------------------------
 BYTE   TIE  Ds3
 BYTE   W96
//  #04 //031   ----------------------------------------
 BYTE   W92
 BYTE   W03
 BYTE   EOT
 BYTE   W01
//  #04 //032   ----------------------------------------
 BYTE   TIE
 BYTE   W96
//  #04 //033   ----------------------------------------
 BYTE   W92
 BYTE   W03
 BYTE   EOT
 BYTE   W01
//  #04 //034   ----------------------------------------
Label_0153D51C:
 BYTE   TIE  Ds3  v100
 BYTE   TIE  Ds4
 BYTE   W96
 BYTE   PEND 
//  #04 //035   ----------------------------------------
 BYTE   W92
 BYTE   W03
 BYTE   EOT
 BYTE   Ds3  v075
 BYTE   W01
//  #04 //036   ----------------------------------------
 BYTE   TIE  As2
 BYTE   TIE  As3
 BYTE   W96
//  #04 //037   ----------------------------------------
 BYTE   W92
 BYTE   W03
 BYTE   EOT
 BYTE   As2  v070
 BYTE   W01
//  #04 //038   ----------------------------------------
Label_0153D534:
 BYTE   TIE  Cs3  v100
 BYTE   TIE  Cs4
 BYTE   W96
 BYTE   PEND 
//  #04 //039   ----------------------------------------
 BYTE   W92
 BYTE   W03
 BYTE   EOT
 BYTE   Cs3  v073
 BYTE   W01
//  #04 //040   ----------------------------------------
 BYTE   PATT
  POIN2 Label_0153D51C
//  #04 //041   ----------------------------------------
 BYTE   W92
 BYTE   W03
 BYTE   EOT
 BYTE   Ds3  v075
 BYTE   W01
//  #04 //042   ----------------------------------------
 BYTE   W24
 BYTE   TIE  As2  v100
 BYTE   TIE  As3
 BYTE   W72
//  #04 //043   ----------------------------------------
 BYTE   W92
 BYTE   W03
 BYTE   EOT
 BYTE   As2  v070
 BYTE   W01
//  #04 //044   ----------------------------------------
 BYTE   PATT
  POIN2 Label_0153D51C
//  #04 //045   ----------------------------------------
 BYTE   W92
 BYTE   W03
 BYTE   EOT
 BYTE   Ds3  v075
 BYTE   W01
//  #04 //046   ----------------------------------------
 BYTE   N92  Cs3  v100
 BYTE   N92  Cs4
 BYTE   W96
//  #04 //047   ----------------------------------------
 BYTE   As2
 BYTE   N92  As3
 BYTE   W96
//  #04 //048   ----------------------------------------
 BYTE   PATT
  POIN2 Label_0153D51C
//  #04 //049   ----------------------------------------
 BYTE   W92
 BYTE   W03
 BYTE   EOT
 BYTE   Ds3  v075
 BYTE   W01
//  #04 //050   ----------------------------------------
 BYTE   PATT
  POIN2 Label_0153D51C
//  #04 //051   ----------------------------------------
 BYTE   W92
 BYTE   W03
 BYTE   EOT
 BYTE   Ds3  v075
 BYTE   W01
//  #04 //052   ----------------------------------------
Label_0153D584:
 BYTE   TIE  Fs3  v100
 BYTE   TIE  Fs4
 BYTE   W96
 BYTE   PEND 
//  #04 //053   ----------------------------------------
 BYTE   W92
 BYTE   W03
 BYTE   EOT
 BYTE   Fs3  v078
 BYTE   W01
//  #04 //054   ----------------------------------------
 BYTE   PATT
  POIN2 Label_0153D534
//  #04 //055   ----------------------------------------
 BYTE   W92
 BYTE   W03
 BYTE   EOT
 BYTE   Cs3  v073
 BYTE   W01
//  #04 //056   ----------------------------------------
 BYTE   PATT
  POIN2 Label_0153D51C
//  #04 //057   ----------------------------------------
 BYTE   W92
 BYTE   W03
 BYTE   EOT
 BYTE   Ds3  v075
 BYTE   W01
//  #04 //058   ----------------------------------------
 BYTE   PATT
  POIN2 Label_0153D51C
//  #04 //059   ----------------------------------------
 BYTE   W92
 BYTE   W03
 BYTE   EOT
 BYTE   Ds3  v075
 BYTE   W01
//  #04 //060   ----------------------------------------
 BYTE   PATT
  POIN2 Label_0153D584
//  #04 //061   ----------------------------------------
 BYTE   W92
 BYTE   W03
 BYTE   EOT
 BYTE   Fs3  v078
 BYTE   W01
//  #04 //062   ----------------------------------------
 BYTE   PATT
  POIN2 Label_0153D534
//  #04 //063   ----------------------------------------
 BYTE   W92
 BYTE   W03
 BYTE   EOT
 BYTE   Cs3  v073
 BYTE   W01
//  #04 //064   ----------------------------------------
 BYTE   PATT
  POIN2 Label_0153D51C
//  #04 //065   ----------------------------------------
 BYTE   W92
 BYTE   W03
 BYTE   EOT
 BYTE   Ds3  v075
 BYTE   W01
//  #04 //066   ----------------------------------------
 BYTE   PATT
  POIN2 Label_0153D51C
//  #04 //067   ----------------------------------------
 BYTE   W92
 BYTE   W03
 BYTE   EOT
 BYTE   Ds3  v075
 BYTE   W01
//  #04 //068   ----------------------------------------
 BYTE   PATT
  POIN2 Label_0153D584
//  #04 //069   ----------------------------------------
 BYTE   W92
 BYTE   W03
 BYTE   EOT
 BYTE   Fs3  v078
 BYTE   W01
//  #04 //070   ----------------------------------------
 BYTE   PATT
  POIN2 Label_0153D534
//  #04 //071   ----------------------------------------
 BYTE   W92
 BYTE   W03
 BYTE   EOT
 BYTE   Cs3  v073
 BYTE   W01
//  #04 //072   ----------------------------------------
 BYTE   PATT
  POIN2 Label_0153D51C
//  #04 //073   ----------------------------------------
 BYTE   W92
 BYTE   W03
 BYTE   EOT
 BYTE   Ds3  v075
 BYTE   W01
//  #04 //074   ----------------------------------------
 BYTE   PATT
  POIN2 Label_0153D51C
//  #04 //075   ----------------------------------------
 BYTE   W92
 BYTE   W03
 BYTE   EOT
 BYTE   Ds3  v075
 BYTE   W01
//  #04 //076   ----------------------------------------
 BYTE   PATT
  POIN2 Label_0153D584
//  #04 //077   ----------------------------------------
 BYTE   W92
 BYTE   W03
 BYTE   EOT
 BYTE   Fs3  v078
 BYTE   W01
//  #04 //078   ----------------------------------------
 BYTE   PATT
  POIN2 Label_0153D534
//  #04 //079   ----------------------------------------
 BYTE   W92
 BYTE   W03
 BYTE   EOT
 BYTE   Cs3  v073
 BYTE   W01
//  #04 //080   ----------------------------------------
 BYTE   PATT
  POIN2 Label_0153D51C
//  #04 //081   ----------------------------------------
 BYTE   W92
 BYTE   W03
 BYTE   EOT
 BYTE   Ds3  v075
 BYTE   W01
//  #04 //082   ----------------------------------------
 BYTE   PATT
  POIN2 Label_0153D51C
//  #04 //083   ----------------------------------------
 BYTE   W92
 BYTE   W03
 BYTE   EOT
 BYTE   Ds3  v075
 BYTE   W01
//  #04 //084   ----------------------------------------
 BYTE   GoTo
  POIN2 Label_0153D51C
//  #04 //085   ----------------------------------------
 BYTE   VOICE   14
 BYTE   PAN   c_v+0
 BYTE   BEND   c_v+0
 BYTE   FINE

//**************** Track 5 (Midi-Chn.4) ****************//

song34_005:
//  #05 //000   ----------------------------------------
 BYTE   KEYSH   song34_key+0
 BYTE   VOICE   124
 BYTE   VOL   42*song34_mvl/mxv
 BYTE   PAN   c_v-10
 BYTE   BEND   c_v+0
 BYTE   W96
//  #05 //001   ----------------------------------------
 BYTE   W96
//  #05 //002   ----------------------------------------
 BYTE   W96
//  #05 //003   ----------------------------------------
 BYTE   W96
//  #05 //004   ----------------------------------------
 BYTE   W96
//  #05 //005   ----------------------------------------
 BYTE   W96
//  #05 //006   ----------------------------------------
 BYTE   W96
//  #05 //007   ----------------------------------------
 BYTE   W96
//  #05 //008   ----------------------------------------
 BYTE   W96
//  #05 //009   ----------------------------------------
 BYTE   W96
//  #05 //010   ----------------------------------------
 BYTE   W96
//  #05 //011   ----------------------------------------
 BYTE   W96
//  #05 //012   ----------------------------------------
 BYTE   W96
//  #05 //013   ----------------------------------------
 BYTE   W96
//  #05 //014   ----------------------------------------
 BYTE   W96
//  #05 //015   ----------------------------------------
 BYTE   W96
//  #05 //016   ----------------------------------------
 BYTE   W96
//  #05 //017   ----------------------------------------
 BYTE   W96
//  #05 //018   ----------------------------------------
 BYTE   W96
//  #05 //019   ----------------------------------------
 BYTE   W96
//  #05 //020   ----------------------------------------
 BYTE   W96
//  #05 //021   ----------------------------------------
 BYTE   W96
//  #05 //022   ----------------------------------------
 BYTE   W96
//  #05 //023   ----------------------------------------
 BYTE   W96
//  #05 //024   ----------------------------------------
 BYTE   W96
//  #05 //025   ----------------------------------------
 BYTE   W96
//  #05 //026   ----------------------------------------
 BYTE   W96
//  #05 //027   ----------------------------------------
 BYTE   W96
//  #05 //028   ----------------------------------------
 BYTE   W96
//  #05 //029   ----------------------------------------
 BYTE   W96
//  #05 //030   ----------------------------------------
 BYTE   W96
//  #05 //031   ----------------------------------------
 BYTE   W84
 BYTE   N05  Dn1  v100
 BYTE   W06
 BYTE   N05
 BYTE   W06
//  #05 //032   ----------------------------------------
 BYTE   N44  Cn1
 BYTE   W24
 BYTE   N05  Dn1
 BYTE   W12
 BYTE   N05
 BYTE   W12
 BYTE   N44  Cn1
 BYTE   W24
 BYTE   N05  Dn1
 BYTE   W24
//  #05 //033   ----------------------------------------
 BYTE   N44  Cn1
 BYTE   W24
 BYTE   N05  Dn1
 BYTE   W12
 BYTE   N05
 BYTE   W12
 BYTE   N44  Cn1
 BYTE   N05  Dn1
 BYTE   W12
 BYTE   N05
 BYTE   W12
 BYTE   N05
 BYTE   W12
 BYTE   N05
 BYTE   W06
 BYTE   N05
 BYTE   W06
//  #05 //034   ----------------------------------------
Label_0153D697:
 BYTE   N44  Cn1  v100
 BYTE   W48
 BYTE   N44
 BYTE   W48
 BYTE   PEND 
//  #05 //035   ----------------------------------------
 BYTE   PATT
  POIN2 Label_0153D697
//  #05 //036   ----------------------------------------
 BYTE   PATT
  POIN2 Label_0153D697
//  #05 //037   ----------------------------------------
 BYTE   PATT
  POIN2 Label_0153D697
//  #05 //038   ----------------------------------------
 BYTE   PATT
  POIN2 Label_0153D697
//  #05 //039   ----------------------------------------
 BYTE   PATT
  POIN2 Label_0153D697
//  #05 //040   ----------------------------------------
 BYTE   PATT
  POIN2 Label_0153D697
//  #05 //041   ----------------------------------------
 BYTE   PATT
  POIN2 Label_0153D697
//  #05 //042   ----------------------------------------
 BYTE   N23  Cn1  v100
 BYTE   W24
 BYTE   N23
 BYTE   W24
 BYTE   N44
 BYTE   W48
//  #05 //043   ----------------------------------------
 BYTE   PATT
  POIN2 Label_0153D697
//  #05 //044   ----------------------------------------
 BYTE   PATT
  POIN2 Label_0153D697
//  #05 //045   ----------------------------------------
 BYTE   PATT
  POIN2 Label_0153D697
//  #05 //046   ----------------------------------------
 BYTE   PATT
  POIN2 Label_0153D697
//  #05 //047   ----------------------------------------
 BYTE   PATT
  POIN2 Label_0153D697
//  #05 //048   ----------------------------------------
 BYTE   PATT
  POIN2 Label_0153D697
//  #05 //049   ----------------------------------------
 BYTE   N44  Cn1  v100
 BYTE   W48
 BYTE   N44
 BYTE   W24
 BYTE   N05  Dn1
 BYTE   W12
 BYTE   N05
 BYTE   W06
 BYTE   N05
 BYTE   W06
//  #05 //050   ----------------------------------------
Label_0153D6F4:
 BYTE   N44  Cn1  v100
 BYTE   W12
 BYTE   N05  As1
 BYTE   W12
 BYTE   Dn1
 BYTE   W12
 BYTE   Fs1
 BYTE   W12
 BYTE   N44  Cn1
 BYTE   W12
 BYTE   N05  Fs1
 BYTE   W12
 BYTE   Dn1
 BYTE   W12
 BYTE   Fs1
 BYTE   W12
 BYTE   PEND 
//  #05 //051   ----------------------------------------
Label_0153D70A:
 BYTE   N44  Cn1  v100
 BYTE   W12
 BYTE   N05  Fs1
 BYTE   W12
 BYTE   Dn1
 BYTE   W12
 BYTE   Fs1
 BYTE   W12
 BYTE   N44  Cn1
 BYTE   W12
 BYTE   N05  Fs1
 BYTE   W12
 BYTE   Dn1
 BYTE   W12
 BYTE   Fs1
 BYTE   W12
 BYTE   PEND 
//  #05 //052   ----------------------------------------
 BYTE   PATT
  POIN2 Label_0153D6F4
//  #05 //053   ----------------------------------------
Label_0153D725:
 BYTE   N44  Cn1  v100
 BYTE   N05  Ds1
 BYTE   W12
 BYTE   Fs1
 BYTE   W12
 BYTE   Dn1
 BYTE   W12
 BYTE   Ds1
 BYTE   N05  Fs1
 BYTE   W12
 BYTE   N44  Cn1
 BYTE   W12
 BYTE   N05  Fs1
 BYTE   W12
 BYTE   Dn1
 BYTE   N05  Ds1
 BYTE   W12
 BYTE   Fs1
 BYTE   W12
 BYTE   PEND 
//  #05 //054   ----------------------------------------
 BYTE   PATT
  POIN2 Label_0153D6F4
//  #05 //055   ----------------------------------------
 BYTE   PATT
  POIN2 Label_0153D70A
//  #05 //056   ----------------------------------------
Label_0153D74A:
 BYTE   N44  Cn1  v100
 BYTE   W12
 BYTE   N05  As1
 BYTE   W12
 BYTE   Dn1
 BYTE   W12
 BYTE   Fs1
 BYTE   W12
 BYTE   N44  Cn1
 BYTE   N05  Dn1
 BYTE   W12
 BYTE   Fs1
 BYTE   W12
 BYTE   Dn1
 BYTE   W12
 BYTE   Fs1
 BYTE   W12
 BYTE   PEND 
//  #05 //057   ----------------------------------------
Label_0153D761:
 BYTE   N44  Cn1  v100
 BYTE   N05  Dn1
 BYTE   W12
 BYTE   Fs1
 BYTE   W12
 BYTE   Dn1
 BYTE   W12
 BYTE   Fs1
 BYTE   W12
 BYTE   N44  Cn1
 BYTE   N05  Dn1
 BYTE   W12
 BYTE   N05
 BYTE   N05  Fs1
 BYTE   W12
 BYTE   Dn1
 BYTE   W12
 BYTE   N05
 BYTE   N05  Fs1
 BYTE   W06
 BYTE   Dn1
 BYTE   W06
 BYTE   PEND 
//  #05 //058   ----------------------------------------
 BYTE   PATT
  POIN2 Label_0153D6F4
//  #05 //059   ----------------------------------------
 BYTE   PATT
  POIN2 Label_0153D70A
//  #05 //060   ----------------------------------------
 BYTE   PATT
  POIN2 Label_0153D6F4
//  #05 //061   ----------------------------------------
 BYTE   PATT
  POIN2 Label_0153D725
//  #05 //062   ----------------------------------------
 BYTE   PATT
  POIN2 Label_0153D6F4
//  #05 //063   ----------------------------------------
 BYTE   PATT
  POIN2 Label_0153D70A
//  #05 //064   ----------------------------------------
 BYTE   PATT
  POIN2 Label_0153D74A
//  #05 //065   ----------------------------------------
Label_0153D7A2:
 BYTE   N44  Cn1  v100
 BYTE   N05  Dn1
 BYTE   W12
 BYTE   Fs1
 BYTE   W12
 BYTE   Dn1
 BYTE   W12
 BYTE   N05
 BYTE   N05  Fs1
 BYTE   W06
 BYTE   Dn1
 BYTE   W06
 BYTE   N44  Cn1
 BYTE   N05  Dn1
 BYTE   W12
 BYTE   N05
 BYTE   N05  Fs1
 BYTE   W06
 BYTE   Dn1
 BYTE   W06
 BYTE   N05
 BYTE   W06
 BYTE   N05
 BYTE   W06
 BYTE   N05
 BYTE   N05  Fs1
 BYTE   W06
 BYTE   Dn1
 BYTE   W06
 BYTE   PEND 
//  #05 //066   ----------------------------------------
 BYTE   PATT
  POIN2 Label_0153D6F4
//  #05 //067   ----------------------------------------
 BYTE   PATT
  POIN2 Label_0153D70A
//  #05 //068   ----------------------------------------
 BYTE   PATT
  POIN2 Label_0153D6F4
//  #05 //069   ----------------------------------------
 BYTE   PATT
  POIN2 Label_0153D725
//  #05 //070   ----------------------------------------
 BYTE   PATT
  POIN2 Label_0153D6F4
//  #05 //071   ----------------------------------------
 BYTE   PATT
  POIN2 Label_0153D70A
//  #05 //072   ----------------------------------------
 BYTE   PATT
  POIN2 Label_0153D74A
//  #05 //073   ----------------------------------------
 BYTE   PATT
  POIN2 Label_0153D761
//  #05 //074   ----------------------------------------
 BYTE   PATT
  POIN2 Label_0153D6F4
//  #05 //075   ----------------------------------------
 BYTE   PATT
  POIN2 Label_0153D70A
//  #05 //076   ----------------------------------------
 BYTE   PATT
  POIN2 Label_0153D6F4
//  #05 //077   ----------------------------------------
 BYTE   PATT
  POIN2 Label_0153D725
//  #05 //078   ----------------------------------------
 BYTE   PATT
  POIN2 Label_0153D6F4
//  #05 //079   ----------------------------------------
 BYTE   PATT
  POIN2 Label_0153D70A
//  #05 //080   ----------------------------------------
 BYTE   PATT
  POIN2 Label_0153D74A
//  #05 //081   ----------------------------------------
 BYTE   PATT
  POIN2 Label_0153D7A2
//  #05 //082   ----------------------------------------
 BYTE   N44  Cn1  v100
 BYTE   W12
 BYTE   N05  Fs1
 BYTE   W12
 BYTE   Dn1
 BYTE   W12
 BYTE   N05
 BYTE   N05  Fs1
 BYTE   W12
 BYTE   N44  Cn1
 BYTE   W12
 BYTE   N05  Fs1
 BYTE   W12
 BYTE   Dn1
 BYTE   W12
 BYTE   Fs1
 BYTE   W12
//  #05 //083   ----------------------------------------
 BYTE   N44  Cn1
 BYTE   W12
 BYTE   N05  Fs1
 BYTE   W12
 BYTE   Dn1
 BYTE   W12
 BYTE   N05
 BYTE   N05  Fs1
 BYTE   W12
 BYTE   N44  Cn1
 BYTE   N05  Dn1
 BYTE   W12
 BYTE   N05
 BYTE   N05  Fs1
 BYTE   W12
 BYTE   Dn1
 BYTE   W12
 BYTE   N05
 BYTE   N05  Fs1
 BYTE   W06
 BYTE   Dn1
 BYTE   W06
//  #05 //084   ----------------------------------------
 BYTE   GoTo
  POIN2 Label_0153D697
//  #05 //085   ----------------------------------------
 BYTE   PAN   c_v+0
 BYTE   BEND   c_v+0
 BYTE   FINE

//******************************************************//
	ALIGN 4

song34:
	BYTE	5	// NumTrks
	BYTE	0	// NumBlks
	BYTE	song34_pri	// Priority
	BYTE	song34_rev	// Reverb.
    
	POIN2	song34_grp
    
	POIN2	song34_001
	POIN2	song34_002
	POIN2	song34_003
	POIN2	song34_004
	POIN2	song34_005

	
