//Event file generated from Sappy .s format.
	#include "MPlayDef.event"

	#define	FateCruelVariant_grp  voicegroup000
	#define	FateCruelVariant_pri  0
	#define	FateCruelVariant_rev  200
	#define	FateCruelVariant_mvl  127
	#define	FateCruelVariant_key  0
	#define	FateCruelVariant_tbs  1
	#define	FateCruelVariant_exg  0
	#define	FateCruelVariant_cmp  1

	// .rodata
	//	FateCruelVariant
	ALIGN 4


//**************** Track 1 (Midi-Chn.0) ****************//

FateCruelVariant_001:
//  #01 //000   ----------------------------------------
 BYTE   KEYSH   FateCruelVariant_key+0
Label_01983E6A:
 BYTE   TEMPO   160*FateCruelVariant_tbs/2
 BYTE   VOICE   100
 BYTE   PAN   c_v+8
 BYTE   VOL   18*FateCruelVariant_mvl/mxv
 BYTE   W96
//  #01 //001   ----------------------------------------
 BYTE   W96
//  #01 //002   ----------------------------------------
 BYTE   W96
//  #01 //003   ----------------------------------------
 BYTE   W96
//  #01 //004   ----------------------------------------
 BYTE   W96
//  #01 //005   ----------------------------------------
 BYTE   W96
//  #01 //006   ----------------------------------------
 BYTE   W96
//  #01 //007   ----------------------------------------
 BYTE   W96
//  #01 //008   ----------------------------------------
 BYTE   W96
//  #01 //009   ----------------------------------------
Label_01983E7B:
 BYTE   W84
 BYTE   N04  En3  v127
 BYTE   W04
 BYTE   Fs3  v112
 BYTE   W04
 BYTE   Gs3
 BYTE   W04
 BYTE   PEND 
//  #01 //010   ----------------------------------------
 BYTE   An3  v116
 BYTE   W04
 BYTE   Bn3  v120
 BYTE   W04
 BYTE   Cs4  v127
 BYTE   W04
 BYTE   N36  Ds4  v112
 BYTE   W36
 BYTE   N42  Gs3
 BYTE   W48
//  #01 //011   ----------------------------------------
Label_01983E96:
 BYTE   N24  Ds4  v112
 BYTE   W24
 BYTE   N12  En4
 BYTE   W12
 BYTE   Fs4
 BYTE   W12
 BYTE   En4
 BYTE   W12
 BYTE   N48  Ds4
 BYTE   W36
 BYTE   PEND 
//  #01 //012   ----------------------------------------
Label_01983EA5:
 BYTE   W24
 BYTE   N24  Ds4  v112
 BYTE   W24
 BYTE   N12  En4
 BYTE   W12
 BYTE   N36  Ds4
 BYTE   W36
 BYTE   PEND 
//  #01 //013   ----------------------------------------
 BYTE   N60  Cs4
 BYTE   W60
 BYTE   N24  Gs4
 BYTE   W24
 BYTE   N36  Fs4
 BYTE   W12
//  #01 //014   ----------------------------------------
 BYTE   W24
 BYTE   N54  En4
 BYTE   W60
 BYTE   N12  Ds4
 BYTE   W12
//  #01 //015   ----------------------------------------
 BYTE   En4
 BYTE   W12
 BYTE   N36  Ds4
 BYTE   W36
 BYTE   N42  Gs3
 BYTE   W48
//  #01 //016   ----------------------------------------
 BYTE   PATT
  POIN2 Label_01983E96
//  #01 //017   ----------------------------------------
 BYTE   PATT
  POIN2 Label_01983EA5
//  #01 //018   ----------------------------------------
 BYTE   N24  Cs4  v112
 BYTE   W24
 BYTE   N12  Ds4
 BYTE   W12
 BYTE   N96  En4
 BYTE   W60
//  #01 //019   ----------------------------------------
 BYTE   W36
 BYTE   N36
 BYTE   W60
//  #01 //020   ----------------------------------------
 BYTE   W96
//  #01 //021   ----------------------------------------
 BYTE   W96
//  #01 //022   ----------------------------------------
 BYTE   W96
//  #01 //023   ----------------------------------------
 BYTE   W96
//  #01 //024   ----------------------------------------
 BYTE   W96
//  #01 //025   ----------------------------------------
 BYTE   W96
//  #01 //026   ----------------------------------------
 BYTE   W96
//  #01 //027   ----------------------------------------
 BYTE   W96
//  #01 //028   ----------------------------------------
 BYTE   W96
//  #01 //029   ----------------------------------------
 BYTE   PATT
  POIN2 Label_01983E7B
//  #01 //030   ----------------------------------------
 BYTE   N04  An3  v116
 BYTE   W04
 BYTE   Bn3  v120
 BYTE   W04
 BYTE   Cs4  v127
 BYTE   W04
 BYTE   N12  Ds4  v120
 BYTE   N36  Cs5  v127
 BYTE   W24
 BYTE   N12  Ds4  v120
 BYTE   N36  Gs4  v116
 BYTE   W12
 BYTE   N24  Cs4
 BYTE   W24
 BYTE   N24
 BYTE   N09  En4  v120
 BYTE   W12
 BYTE   N12  Ds4  v127
 BYTE   N36  Gs4  v116
 BYTE   W12
//  #01 //031   ----------------------------------------
Label_01983F15:
 BYTE   N09  Cs4  v120
 BYTE   N12  Cs5  v116
 BYTE   W12
 BYTE   Ds4  v127
 BYTE   N24  Cs5  v116
 BYTE   W12
 BYTE   N12  En4  v120
 BYTE   N12  Gs4  v116
 BYTE   W12
 BYTE   N24  Fs4  v127
 BYTE   N36  Cs5  v116
 BYTE   W24
 BYTE   N12  Ds4  v120
 BYTE   N36  Gs4  v116
 BYTE   W12
 BYTE   N24  Cs4
 BYTE   W24
 BYTE   PEND 
//  #01 //032   ----------------------------------------
 BYTE   N24
 BYTE   N09  En4  v120
 BYTE   W12
 BYTE   N12  Ds4  v127
 BYTE   N36  Gs4  v116
 BYTE   W12
 BYTE   N09  Cs4  v120
 BYTE   N12  Cs5  v116
 BYTE   W12
 BYTE   Ds4  v127
 BYTE   N24  Cs5  v116
 BYTE   W12
 BYTE   N12  En4  v120
 BYTE   N12  Gs4  v116
 BYTE   W12
 BYTE   N54  Ds4  v120
 BYTE   N36  Cs5  v116
 BYTE   W24
 BYTE   N12  Gs4
 BYTE   W12
//  #01 //033   ----------------------------------------
 BYTE   N24  Cs4
 BYTE   W24
 BYTE   N24
 BYTE   N06  En4  v120
 BYTE   W06
 BYTE   Fs4
 BYTE   W06
 BYTE   N36  Gs4  v116
 BYTE   W12
 BYTE   N06  Fs4  v120
 BYTE   N12  Cs5  v116
 BYTE   W06
 BYTE   N06  En4  v120
 BYTE   W06
 BYTE   N24  Ds4
 BYTE   N24  Cs5  v116
 BYTE   W12
 BYTE   N12  Gs4
 BYTE   W12
 BYTE   Cs4  v120
 BYTE   N36  Cs5  v116
 BYTE   W12
//  #01 //034   ----------------------------------------
 BYTE   W06
 BYTE   N06  Gs4  v120
 BYTE   W06
 BYTE   N48  Gs4  v116
 BYTE   W12
 BYTE   N24  Cs4
 BYTE   W24
 BYTE   N24
 BYTE   W12
 BYTE   N36  Gs4
 BYTE   W12
 BYTE   N12  Cs5
 BYTE   W12
 BYTE   N24
 BYTE   W12
//  #01 //035   ----------------------------------------
 BYTE   N12  Gs4
 BYTE   W12
 BYTE   N24  Ds4  v120
 BYTE   N36  Cs5  v127
 BYTE   W24
 BYTE   N12  Ds4  v120
 BYTE   N36  Gs4  v116
 BYTE   W12
 BYTE   N24  Cs4
 BYTE   W24
 BYTE   N24
 BYTE   N09  En4  v120
 BYTE   W12
 BYTE   N12  Ds4  v127
 BYTE   N36  Gs4  v116
 BYTE   W12
//  #01 //036   ----------------------------------------
 BYTE   PATT
  POIN2 Label_01983F15
//  #01 //037   ----------------------------------------
 BYTE   N24  Cs4  v116
 BYTE   N09  En4  v120
 BYTE   W12
 BYTE   N12  Ds4  v127
 BYTE   N36  Gs4  v116
 BYTE   W12
 BYTE   N09  Cs4  v120
 BYTE   N12  Cs5  v116
 BYTE   W12
 BYTE   Ds4  v127
 BYTE   N24  Cs5  v116
 BYTE   W12
 BYTE   N12  En4  v120
 BYTE   N12  Gs4  v116
 BYTE   W12
 BYTE   N36  Ds4  v120
 BYTE   N36  Cs5  v116
 BYTE   W24
 BYTE   N12  Gs4
 BYTE   W12
//  #01 //038   ----------------------------------------
 BYTE   N24  Cs4
 BYTE   W24
 BYTE   N12
 BYTE   N06  En4  v120
 BYTE   W06
 BYTE   Ds4
 BYTE   W06
 BYTE   N12  Cs4
 BYTE   N36  Gs4  v116
 BYTE   W12
 BYTE   N06  Ds4  v120
 BYTE   N12  Cs5  v116
 BYTE   W06
 BYTE   N06  En4  v120
 BYTE   W06
 BYTE   N12  Fs4  v127
 BYTE   N24  Cs5  v116
 BYTE   W12
 BYTE   N12  Gs4
 BYTE   W12
 BYTE   Ds4  v120
 BYTE   N36  Cs5  v116
 BYTE   W12
//  #01 //039   ----------------------------------------
 BYTE   W06
 BYTE   N06  Cs4  v120
 BYTE   W06
 BYTE   N84  Gs3
 BYTE   N36  Gs4  v116
 BYTE   W12
 BYTE   N24  Cs4
 BYTE   W24
 BYTE   N24
 BYTE   W12
 BYTE   N36  Gs4
 BYTE   W12
 BYTE   N12  Cs5
 BYTE   W12
 BYTE   N24
 BYTE   W12
//  #01 //040   ----------------------------------------
 BYTE   N12  Gs4
 BYTE   W96
//  #01 //041   ----------------------------------------
 BYTE   W96
//  #01 //042   ----------------------------------------
 BYTE   W96
//  #01 //043   ----------------------------------------
 BYTE   W96
//  #01 //044   ----------------------------------------
 BYTE   W96
//  #01 //045   ----------------------------------------
 BYTE   W96
//  #01 //046   ----------------------------------------
 BYTE   W96
//  #01 //047   ----------------------------------------
 BYTE   W96
//  #01 //048   ----------------------------------------
 BYTE   W96
//  #01 //049   ----------------------------------------
 BYTE   W96
//  #01 //050   ----------------------------------------
 BYTE   W36
 BYTE   N24  Ds3
 BYTE   N24  Gs3
 BYTE   N24  Ds4  v127
 BYTE   W24
 BYTE   Cs3  v116
 BYTE   N24  Gs3  v108
 BYTE   N24  Cs4  v116
 BYTE   W24
 BYTE   N12  Gs3
 BYTE   N24  Cs4  v108
 BYTE   N24  Gs4  v116
 BYTE   W12
//  #01 //051   ----------------------------------------
 BYTE   W12
 BYTE   Ds3  v108
 BYTE   N24  Gs3
 BYTE   N24  Ds4  v116
 BYTE   W24
 BYTE   Cs3  v096
 BYTE   N24  An3
 BYTE   N24  Cs4  v108
 BYTE   W24
 BYTE   Dn3  v116
 BYTE   N24  An3
 BYTE   N24  Dn4  v127
 BYTE   W24
 BYTE   N12  Cs3  v116
 BYTE   N24  An3  v108
 BYTE   N24  Cs4  v116
 BYTE   W12
//  #01 //052   ----------------------------------------
 BYTE   W12
 BYTE   Gs3  v108
 BYTE   N24  Dn4
 BYTE   N24  Gs4  v116
 BYTE   W24
 BYTE   N48  Dn3  v096
 BYTE   N48  An3
 BYTE   N48  Dn4  v108
 BYTE   W24
 BYTE   N36  Cs4  v112
 BYTE   W24
 BYTE   N24  Ds3  v116
 BYTE   N24  Gs3  v108
 BYTE   N24  Ds4  v127
 BYTE   W12
//  #01 //053   ----------------------------------------
 BYTE   N36  Gs4  v112
 BYTE   W12
 BYTE   N24  Cs3  v116
 BYTE   N24  Gs3  v108
 BYTE   N24  Cs4  v116
 BYTE   W24
 BYTE   Gs3
 BYTE   N24  Cs4  v108
 BYTE   N48  Gs4  v116
 BYTE   W24
 BYTE   N24  Ds3  v108
 BYTE   N24  Gs3
 BYTE   N24  Ds4  v116
 BYTE   W24
 BYTE   N12  Cs3  v096
 BYTE   N24  An3
 BYTE   N24  Cs4  v108
 BYTE   N36  Fs4  v112
 BYTE   W12
//  #01 //054   ----------------------------------------
 BYTE   W12
 BYTE   N24  Dn3  v116
 BYTE   N24  An3
 BYTE   N24  Dn4  v127
 BYTE   W12
 BYTE   N36  Cs5  v112
 BYTE   W12
 BYTE   N24  Cs3  v116
 BYTE   N24  An3  v108
 BYTE   N24  Cs4  v116
 BYTE   W24
 BYTE   Gs3  v108
 BYTE   N24  Dn4
 BYTE   N24  Gs4  v116
 BYTE   N48  Bn4  v112
 BYTE   W24
 BYTE   N24  Dn3  v108
 BYTE   N24  An3
 BYTE   N24  Dn4  v116
 BYTE   W12
//  #01 //055   ----------------------------------------
 BYTE   W12
 BYTE   N96  Gs4  v100
 BYTE   W84
//  #01 //056   ----------------------------------------
 BYTE   W12
 BYTE   N72
 BYTE   W84
//  #01 //057   ----------------------------------------
 BYTE   W96
//  #01 //058   ----------------------------------------
 BYTE   W96
//  #01 //059   ----------------------------------------
 BYTE   W96
//  #01 //060   ----------------------------------------
 BYTE   W12
 BYTE   N36  Cs5  v127
 BYTE   W24
 BYTE   N12  Gs4  v120
 BYTE   W12
 BYTE   N24  Cs4
 BYTE   W24
 BYTE   N24
 BYTE   W12
 BYTE   N36  Gs4
 BYTE   W12
//  #01 //061   ----------------------------------------
 BYTE   N12  Cs5
 BYTE   W12
 BYTE   N24
 BYTE   W12
 BYTE   N12  Gs4
 BYTE   W12
 BYTE   N36  Cs5
 BYTE   W24
 BYTE   N12  Gs4
 BYTE   W12
 BYTE   N24  Cs4
 BYTE   W24
//  #01 //062   ----------------------------------------
 BYTE   N24
 BYTE   W12
 BYTE   N36  Gs4
 BYTE   W12
 BYTE   N12  Cs5
 BYTE   W12
 BYTE   N24
 BYTE   W12
 BYTE   N12  Gs4
 BYTE   W12
 BYTE   N36  Cs5
 BYTE   W24
 BYTE   N12  Gs4
 BYTE   W12
//  #01 //063   ----------------------------------------
 BYTE   N24  Cs4
 BYTE   W24
 BYTE   N24
 BYTE   W12
 BYTE   N36  Gs4
 BYTE   W12
 BYTE   N12  Cs5
 BYTE   W12
 BYTE   N24
 BYTE   W12
 BYTE   N12  Gs4
 BYTE   W12
 BYTE   N36  Cn5
 BYTE   W12
//  #01 //064   ----------------------------------------
 BYTE   W12
 BYTE   N12  Gs4
 BYTE   W12
 BYTE   N24  Cn4
 BYTE   W24
 BYTE   N24
 BYTE   W12
 BYTE   N36  Gs4
 BYTE   W12
 BYTE   N12  Cn5
 BYTE   W12
 BYTE   N24
 BYTE   W12
//  #01 //065   ----------------------------------------
 BYTE   N12  Gs4
 BYTE   W36
 BYTE   N24  Ds3  v116
 BYTE   N24  Gs3
 BYTE   N24  Ds4  v127
 BYTE   W24
 BYTE   Cs3  v116
 BYTE   N24  Gs3  v108
 BYTE   N24  Cs4  v116
 BYTE   W24
 BYTE   N12  Gs3
 BYTE   N24  Cs4  v108
 BYTE   N24  Gs4  v116
 BYTE   W12
//  #01 //066   ----------------------------------------
 BYTE   W12
 BYTE   Ds3  v108
 BYTE   N24  Gs3
 BYTE   N24  Ds4  v116
 BYTE   W24
 BYTE   Cs3  v100
 BYTE   N24  Gs3
 BYTE   N24  Cs4  v112
 BYTE   W24
 BYTE   Ds3  v116
 BYTE   N24  Gs3  v108
 BYTE   N24  Ds4  v127
 BYTE   W24
 BYTE   N12  Cs3  v116
 BYTE   N24  Gs3  v108
 BYTE   N24  Cs4  v116
 BYTE   W12
//  #01 //067   ----------------------------------------
 BYTE   W12
 BYTE   Gs3
 BYTE   N24  Cs4  v108
 BYTE   N24  Gs4  v116
 BYTE   W24
 BYTE   Ds3  v108
 BYTE   N24  Gs3
 BYTE   N24  Ds4  v116
 BYTE   W24
 BYTE   Cs3  v100
 BYTE   N24  Gs3
 BYTE   N24  Cs4  v112
 BYTE   W24
 BYTE   N12  Ds3  v116
 BYTE   N24  Gs3  v108
 BYTE   N24  Ds4  v127
 BYTE   W12
//  #01 //068   ----------------------------------------
 BYTE   W12
 BYTE   En3  v116
 BYTE   N24  Gs3  v108
 BYTE   N24  En4  v116
 BYTE   W24
 BYTE   Ds3
 BYTE   N24  Gs3  v108
 BYTE   N24  Ds4  v116
 BYTE   W24
 BYTE   Cs3  v108
 BYTE   N24  Gs3
 BYTE   N24  Cs4  v116
 BYTE   W24
 BYTE   N48  Gs2  v092
 BYTE   N48  Cs3
 BYTE   N48  Gs3  v100
 BYTE   W12
//  #01 //069   ----------------------------------------
 BYTE   W36
 BYTE   Ds3  v108
 BYTE   N48  Gs3  v096
 BYTE   N48  Ds4  v116
 BYTE   W48
 BYTE   N24  En3  v112
 BYTE   N24  Cs4  v100
 BYTE   N24  En4  v112
 BYTE   W12
//  #01 //070   ----------------------------------------
 BYTE   W12
 BYTE   GoTo
  POIN2 Label_01983E6A
//  #01 //071   ----------------------------------------
 BYTE   VOL   18*FateCruelVariant_mvl/mxv
 BYTE   W84
 BYTE   FINE

//**************** Track 2 (Midi-Chn.1) ****************//

FateCruelVariant_002:
//  #02 //000   ----------------------------------------
 BYTE   KEYSH   FateCruelVariant_key+0
Label_019850F2:
 BYTE   VOICE   126
 BYTE   PAN   c_v+63
 BYTE   VOL   52*FateCruelVariant_mvl/mxv
 BYTE   TIE  Gs3  v064
 BYTE   W96
//  #02 //001   ----------------------------------------
 BYTE   W96
//  #02 //002   ----------------------------------------
 BYTE   W96
//  #02 //003   ----------------------------------------
 BYTE   W96
//  #02 //004   ----------------------------------------
 BYTE   W96
//  #02 //005   ----------------------------------------
 BYTE   W96
//  #02 //006   ----------------------------------------
 BYTE   W96
//  #02 //007   ----------------------------------------
 BYTE   W96
//  #02 //008   ----------------------------------------
 BYTE   W96
//  #02 //009   ----------------------------------------
 BYTE   W96
//  #02 //010   ----------------------------------------
 BYTE   W96
//  #02 //011   ----------------------------------------
 BYTE   W96
//  #02 //012   ----------------------------------------
 BYTE   W96
//  #02 //013   ----------------------------------------
 BYTE   W96
//  #02 //014   ----------------------------------------
 BYTE   W96
//  #02 //015   ----------------------------------------
 BYTE   W96
//  #02 //016   ----------------------------------------
 BYTE   W96
//  #02 //017   ----------------------------------------
 BYTE   W96
//  #02 //018   ----------------------------------------
 BYTE   W96
//  #02 //019   ----------------------------------------
 BYTE   W96
//  #02 //020   ----------------------------------------
 BYTE   W96
//  #02 //021   ----------------------------------------
 BYTE   W96
//  #02 //022   ----------------------------------------
 BYTE   W96
//  #02 //023   ----------------------------------------
 BYTE   W96
//  #02 //024   ----------------------------------------
 BYTE   W96
//  #02 //025   ----------------------------------------
 BYTE   W96
//  #02 //026   ----------------------------------------
 BYTE   W96
//  #02 //027   ----------------------------------------
 BYTE   W96
//  #02 //028   ----------------------------------------
 BYTE   W96
//  #02 //029   ----------------------------------------
 BYTE   W96
//  #02 //030   ----------------------------------------
 BYTE   W96
//  #02 //031   ----------------------------------------
 BYTE   W96
//  #02 //032   ----------------------------------------
 BYTE   W96
//  #02 //033   ----------------------------------------
 BYTE   W96
//  #02 //034   ----------------------------------------
 BYTE   W96
//  #02 //035   ----------------------------------------
 BYTE   W96
//  #02 //036   ----------------------------------------
 BYTE   W96
//  #02 //037   ----------------------------------------
 BYTE   W96
//  #02 //038   ----------------------------------------
 BYTE   W96
//  #02 //039   ----------------------------------------
 BYTE   W96
//  #02 //040   ----------------------------------------
 BYTE   W96
//  #02 //041   ----------------------------------------
 BYTE   W96
//  #02 //042   ----------------------------------------
 BYTE   W96
//  #02 //043   ----------------------------------------
 BYTE   W96
//  #02 //044   ----------------------------------------
 BYTE   W96
//  #02 //045   ----------------------------------------
 BYTE   W96
//  #02 //046   ----------------------------------------
 BYTE   W96
//  #02 //047   ----------------------------------------
 BYTE   W96
//  #02 //048   ----------------------------------------
 BYTE   W96
//  #02 //049   ----------------------------------------
 BYTE   W96
//  #02 //050   ----------------------------------------
 BYTE   W96
//  #02 //051   ----------------------------------------
 BYTE   W96
//  #02 //052   ----------------------------------------
 BYTE   W96
//  #02 //053   ----------------------------------------
 BYTE   W96
//  #02 //054   ----------------------------------------
 BYTE   W96
//  #02 //055   ----------------------------------------
 BYTE   W96
//  #02 //056   ----------------------------------------
 BYTE   W96
//  #02 //057   ----------------------------------------
 BYTE   W96
//  #02 //058   ----------------------------------------
 BYTE   W96
//  #02 //059   ----------------------------------------
 BYTE   W96
//  #02 //060   ----------------------------------------
 BYTE   W96
//  #02 //061   ----------------------------------------
 BYTE   W96
//  #02 //062   ----------------------------------------
 BYTE   W96
//  #02 //063   ----------------------------------------
 BYTE   W96
//  #02 //064   ----------------------------------------
 BYTE   W96
//  #02 //065   ----------------------------------------
 BYTE   W96
//  #02 //066   ----------------------------------------
 BYTE   W96
//  #02 //067   ----------------------------------------
 BYTE   W96
//  #02 //068   ----------------------------------------
 BYTE   W96
//  #02 //069   ----------------------------------------
 BYTE   W96
//  #02 //070   ----------------------------------------
 BYTE   W12
 BYTE   GoTo
  POIN2 Label_019850F2
//  #02 //071   ----------------------------------------
 BYTE   W84
 BYTE   EOT
 BYTE   Gs3
 BYTE   FINE

//**************** Track 3 (Midi-Chn.2) ****************//

FateCruelVariant_003:
//  #03 //000   ----------------------------------------
 BYTE   KEYSH   FateCruelVariant_key+0
Label_01985302:
 BYTE   VOICE   54
 BYTE   VOL   29*FateCruelVariant_mvl/mxv
 BYTE   PAN   c_v-36
 BYTE   W96
//  #03 //001   ----------------------------------------
 BYTE   W96
//  #03 //002   ----------------------------------------
 BYTE   W96
//  #03 //003   ----------------------------------------
 BYTE   W96
//  #03 //004   ----------------------------------------
 BYTE   W96
//  #03 //005   ----------------------------------------
 BYTE   W96
//  #03 //006   ----------------------------------------
 BYTE   W96
//  #03 //007   ----------------------------------------
 BYTE   W96
//  #03 //008   ----------------------------------------
 BYTE   W96
//  #03 //009   ----------------------------------------
 BYTE   W84
 BYTE   N04  En3  v127
 BYTE   W04
 BYTE   Fs3  v112
 BYTE   W04
 BYTE   Gs3
 BYTE   W04
//  #03 //010   ----------------------------------------
 BYTE   An3  v116
 BYTE   W04
 BYTE   Bn3  v120
 BYTE   W04
 BYTE   Cs4  v127
 BYTE   W04
 BYTE   N36  Ds4  v112
 BYTE   W36
 BYTE   N42  Gs3
 BYTE   W48
//  #03 //011   ----------------------------------------
 BYTE   N24  Ds4
 BYTE   W24
 BYTE   N12  En4
 BYTE   W12
 BYTE   Fs4
 BYTE   W12
 BYTE   En4
 BYTE   W12
 BYTE   N48  Ds4
 BYTE   W36
//  #03 //012   ----------------------------------------
 BYTE   W24
 BYTE   N24
 BYTE   W24
 BYTE   N12  En4
 BYTE   W12
 BYTE   N36  Ds4
 BYTE   W36
//  #03 //013   ----------------------------------------
 BYTE   N60  Cs4
 BYTE   W60
 BYTE   N24  Gs4
 BYTE   W24
 BYTE   N36  Fs4
 BYTE   W12
//  #03 //014   ----------------------------------------
 BYTE   W24
 BYTE   N54  En4
 BYTE   W60
 BYTE   N24  Gs3  v108
 BYTE   N12  Ds4  v112
 BYTE   W12
//  #03 //015   ----------------------------------------
 BYTE   En4
 BYTE   W12
 BYTE   N36  Gs3  v108
 BYTE   N36  Ds4  v112
 BYTE   W36
 BYTE   N42  Cs3  v108
 BYTE   N42  Gs3  v112
 BYTE   W48
//  #03 //016   ----------------------------------------
 BYTE   N24  Gs3  v108
 BYTE   N24  Ds4  v112
 BYTE   W24
 BYTE   N12  Gs3  v108
 BYTE   N12  En4  v112
 BYTE   W12
 BYTE   Ds4  v108
 BYTE   N12  Fs4  v112
 BYTE   W12
 BYTE   Gs3  v108
 BYTE   N12  En4  v112
 BYTE   W12
 BYTE   N48  Gs3  v108
 BYTE   N48  Ds4  v112
 BYTE   W36
//  #03 //017   ----------------------------------------
 BYTE   W24
 BYTE   N24  Gs3  v108
 BYTE   N24  Ds4  v112
 BYTE   W24
 BYTE   N12  Gs3  v108
 BYTE   N12  En4  v112
 BYTE   W12
 BYTE   N36  Gs3  v108
 BYTE   N36  Ds4  v112
 BYTE   W36
//  #03 //018   ----------------------------------------
 BYTE   N24  Gs3  v108
 BYTE   N24  Cs4  v112
 BYTE   W24
 BYTE   N12  Gs3  v108
 BYTE   N12  Ds4  v112
 BYTE   W12
 BYTE   N96  Cs4  v108
 BYTE   N96  En4  v112
 BYTE   W60
//  #03 //019   ----------------------------------------
 BYTE   W36
 BYTE   N36  Cs4  v108
 BYTE   N36  En4  v112
 BYTE   W36
 BYTE   N24  Cs4  v076
 BYTE   W24
//  #03 //020   ----------------------------------------
 BYTE   W96
//  #03 //021   ----------------------------------------
 BYTE   W96
//  #03 //022   ----------------------------------------
 BYTE   W96
//  #03 //023   ----------------------------------------
 BYTE   W96
//  #03 //024   ----------------------------------------
 BYTE   W96
//  #03 //025   ----------------------------------------
 BYTE   W96
//  #03 //026   ----------------------------------------
 BYTE   W96
//  #03 //027   ----------------------------------------
 BYTE   W96
//  #03 //028   ----------------------------------------
 BYTE   W96
//  #03 //029   ----------------------------------------
 BYTE   W84
 BYTE   N04  En3  v127
 BYTE   W04
 BYTE   Fs3  v116
 BYTE   W04
 BYTE   Gs3
 BYTE   W04
//  #03 //030   ----------------------------------------
 BYTE   An3  v120
 BYTE   W04
 BYTE   Bn3  v127
 BYTE   W04
 BYTE   Cs4
 BYTE   W04
 BYTE   N12  Ds4
 BYTE   W24
 BYTE   N36
 BYTE   W36
 BYTE   N09  En4
 BYTE   W12
 BYTE   N12  Ds4
 BYTE   W12
//  #03 //031   ----------------------------------------
Label_019853E3:
 BYTE   N09  Cs4  v127
 BYTE   W12
 BYTE   N12  Ds4
 BYTE   W12
 BYTE   En4
 BYTE   W12
 BYTE   N24  Fs4
 BYTE   W24
 BYTE   N36  Ds4
 BYTE   W36
 BYTE   PEND 
//  #03 //032   ----------------------------------------
 BYTE   N09  En4
 BYTE   W12
 BYTE   N12  Ds4
 BYTE   W12
 BYTE   N09  Cs4
 BYTE   W12
 BYTE   N12  Ds4
 BYTE   W12
 BYTE   En4
 BYTE   W12
 BYTE   N54  Ds4
 BYTE   W36
//  #03 //033   ----------------------------------------
 BYTE   W24
 BYTE   N06  En4
 BYTE   W06
 BYTE   Fs4
 BYTE   W06
 BYTE   N12  Gs4
 BYTE   W12
 BYTE   N06  Fs4
 BYTE   W06
 BYTE   En4
 BYTE   W06
 BYTE   N24  Ds4
 BYTE   W24
 BYTE   N12  Cs4
 BYTE   W12
//  #03 //034   ----------------------------------------
 BYTE   W06
 BYTE   N06  Gs4
 BYTE   W06
 BYTE   N84
 BYTE   W84
//  #03 //035   ----------------------------------------
 BYTE   W12
 BYTE   N12  Ds4
 BYTE   W24
 BYTE   N36
 BYTE   W36
 BYTE   N09  En4
 BYTE   W12
 BYTE   N12  Ds4
 BYTE   W12
//  #03 //036   ----------------------------------------
 BYTE   PATT
  POIN2 Label_019853E3
//  #03 //037   ----------------------------------------
 BYTE   N09  En4  v127
 BYTE   W12
 BYTE   N12  Ds4
 BYTE   W12
 BYTE   N09  Cs4
 BYTE   W12
 BYTE   N12  Ds4
 BYTE   W12
 BYTE   En4
 BYTE   W12
 BYTE   N36  Ds4
 BYTE   W36
//  #03 //038   ----------------------------------------
 BYTE   W24
 BYTE   N06  En4
 BYTE   W06
 BYTE   Ds4
 BYTE   W06
 BYTE   N12  Cs4
 BYTE   W12
 BYTE   N06  Ds4
 BYTE   W06
 BYTE   En4
 BYTE   W06
 BYTE   N12  Fs4
 BYTE   W12
 BYTE   N06  Gs4
 BYTE   W12
 BYTE   N12  Ds4
 BYTE   W12
//  #03 //039   ----------------------------------------
 BYTE   W06
 BYTE   N06  Cs4
 BYTE   W06
 BYTE   N84  Gs3
 BYTE   W84
//  #03 //040   ----------------------------------------
 BYTE   W96
//  #03 //041   ----------------------------------------
 BYTE   W96
//  #03 //042   ----------------------------------------
 BYTE   W96
//  #03 //043   ----------------------------------------
 BYTE   W96
//  #03 //044   ----------------------------------------
 BYTE   W96
//  #03 //045   ----------------------------------------
 BYTE   W96
//  #03 //046   ----------------------------------------
 BYTE   W96
//  #03 //047   ----------------------------------------
 BYTE   W96
//  #03 //048   ----------------------------------------
 BYTE   W96
//  #03 //049   ----------------------------------------
 BYTE   W84
 BYTE   N04  Ds3  v116
 BYTE   W04
 BYTE   En3
 BYTE   W04
 BYTE   Fs3
 BYTE   W04
//  #03 //050   ----------------------------------------
 BYTE   Gs3  v120
 BYTE   W04
 BYTE   An3
 BYTE   W04
 BYTE   Bn3
 BYTE   W04
 BYTE   N36  Cs4
 BYTE   W36
 BYTE   N84  Gs4
 BYTE   W48
//  #03 //051   ----------------------------------------
 BYTE   W36
 BYTE   N36  Fs4
 BYTE   W36
 BYTE   N84  Cs5
 BYTE   W24
//  #03 //052   ----------------------------------------
 BYTE   W60
 BYTE   N36  An3
 BYTE   N36  Cs4
 BYTE   W36
//  #03 //053   ----------------------------------------
 BYTE   N84
 BYTE   N84  Gs4
 BYTE   W84
 BYTE   N36  Cs4
 BYTE   N36  Fs4
 BYTE   W12
//  #03 //054   ----------------------------------------
 BYTE   W24
 BYTE   N36
 BYTE   N36  Cs5
 BYTE   W36
 BYTE   N48  Fs4
 BYTE   N48  Bn4
 BYTE   W36
//  #03 //055   ----------------------------------------
 BYTE   W96
//  #03 //056   ----------------------------------------
 BYTE   W96
//  #03 //057   ----------------------------------------
 BYTE   W96
//  #03 //058   ----------------------------------------
 BYTE   W96
//  #03 //059   ----------------------------------------
 BYTE   W96
//  #03 //060   ----------------------------------------
 BYTE   W96
//  #03 //061   ----------------------------------------
 BYTE   W96
//  #03 //062   ----------------------------------------
 BYTE   W96
//  #03 //063   ----------------------------------------
 BYTE   W96
//  #03 //064   ----------------------------------------
 BYTE   W96
//  #03 //065   ----------------------------------------
 BYTE   W96
//  #03 //066   ----------------------------------------
 BYTE   W96
//  #03 //067   ----------------------------------------
 BYTE   W96
//  #03 //068   ----------------------------------------
 BYTE   W96
//  #03 //069   ----------------------------------------
 BYTE   W96
//  #03 //070   ----------------------------------------
 BYTE   W12
 BYTE   GoTo
  POIN2 Label_01985302
//  #03 //071   ----------------------------------------
 BYTE   W84
 BYTE   FINE

//**************** Track 4 (Midi-Chn.3) ****************//

FateCruelVariant_004:
//  #04 //000   ----------------------------------------
 BYTE   KEYSH   FateCruelVariant_key+0
Label_01985506:
 BYTE   VOICE   52
 BYTE   PAN   c_v-8
 BYTE   VOL   23*FateCruelVariant_mvl/mxv
 BYTE   W12
 BYTE   N96  Cs2  v120
 BYTE   W84
//  #04 //001   ----------------------------------------
Label_01985511:
 BYTE   W12
 BYTE   N24  Cs2  v120
 BYTE   W24
 BYTE   N96  Bn1  v100
 BYTE   N96  Ds2  v120
 BYTE   W60
 BYTE   PEND 
//  #04 //002   ----------------------------------------
Label_0198551E:
 BYTE   W36
 BYTE   N24  Bn1  v100
 BYTE   N24  Ds2  v120
 BYTE   W24
 BYTE   N36  Bn1  v052
 BYTE   N96  Cs2  v100
 BYTE   N96  En2  v120
 BYTE   W36
 BYTE   PEND 
//  #04 //003   ----------------------------------------
 BYTE   W96
//  #04 //004   ----------------------------------------
 BYTE   W96
//  #04 //005   ----------------------------------------
 BYTE   W12
 BYTE   Cs2
 BYTE   W84
//  #04 //006   ----------------------------------------
 BYTE   PATT
  POIN2 Label_01985511
//  #04 //007   ----------------------------------------
 BYTE   PATT
  POIN2 Label_0198551E
//  #04 //008   ----------------------------------------
 BYTE   W96
//  #04 //009   ----------------------------------------
 BYTE   W96
//  #04 //010   ----------------------------------------
 BYTE   W12
 BYTE   N96  An2  v112
 BYTE   N96  Cs3  v127
 BYTE   W84
//  #04 //011   ----------------------------------------
Label_0198554A:
 BYTE   W12
 BYTE   N24  An2  v112
 BYTE   N24  Cs3  v127
 BYTE   W24
 BYTE   N60  An2  v064
 BYTE   N96  Bn2  v100
 BYTE   N96  Ds3  v120
 BYTE   W60
 BYTE   PEND 
//  #04 //012   ----------------------------------------
Label_0198555D:
 BYTE   W36
 BYTE   N24  Bn2  v100
 BYTE   N24  Ds3  v120
 BYTE   W24
 BYTE   N36  Bn2  v064
 BYTE   N96  Cs3  v100
 BYTE   N96  En3  v120
 BYTE   W36
 BYTE   PEND 
//  #04 //013   ----------------------------------------
Label_01985570:
 BYTE   W60
 BYTE   N96  Cs3  v100
 BYTE   N96  En3  v120
 BYTE   W36
 BYTE   PEND 
//  #04 //014   ----------------------------------------
 BYTE   W60
 BYTE   N18  Cs3  v100
 BYTE   N18  En3  v120
 BYTE   W18
 BYTE   N06  Cs3  v064
 BYTE   W06
 BYTE   N96  Bn2  v100
 BYTE   N96  Ds3  v120
 BYTE   W12
//  #04 //015   ----------------------------------------
 BYTE   W12
 BYTE   An2  v112
 BYTE   N96  Cs3  v127
 BYTE   W72
 BYTE   N12  Bn2  v100
 BYTE   N12  Ds3  v120
 BYTE   W12
//  #04 //016   ----------------------------------------
 BYTE   PATT
  POIN2 Label_0198554A
//  #04 //017   ----------------------------------------
 BYTE   PATT
  POIN2 Label_0198555D
//  #04 //018   ----------------------------------------
 BYTE   PATT
  POIN2 Label_01985570
//  #04 //019   ----------------------------------------
 BYTE   W60
 BYTE   N36  Cs3  v100
 BYTE   N36  En3  v120
 BYTE   W36
//  #04 //020   ----------------------------------------
 BYTE   N12  Cs3  v064
 BYTE   W12
 BYTE   N96  Cs2  v120
 BYTE   W84
//  #04 //021   ----------------------------------------
Label_019855B9:
 BYTE   W12
 BYTE   N24  Cs2  v120
 BYTE   W24
 BYTE   N96  Bn1  v100
 BYTE   N60  Cs2  v120
 BYTE   N96  Ds2
 BYTE   W60
 BYTE   PEND 
//  #04 //022   ----------------------------------------
 BYTE   PATT
  POIN2 Label_0198551E
//  #04 //023   ----------------------------------------
 BYTE   W96
//  #04 //024   ----------------------------------------
 BYTE   W96
//  #04 //025   ----------------------------------------
 BYTE   W12
 BYTE   N96  Cs2  v120
 BYTE   W84
//  #04 //026   ----------------------------------------
 BYTE   PATT
  POIN2 Label_019855B9
//  #04 //027   ----------------------------------------
 BYTE   PATT
  POIN2 Label_0198551E
//  #04 //028   ----------------------------------------
 BYTE   W96
//  #04 //029   ----------------------------------------
 BYTE   W96
//  #04 //030   ----------------------------------------
 BYTE   W96
//  #04 //031   ----------------------------------------
 BYTE   W96
//  #04 //032   ----------------------------------------
 BYTE   W96
//  #04 //033   ----------------------------------------
 BYTE   W96
//  #04 //034   ----------------------------------------
 BYTE   W96
//  #04 //035   ----------------------------------------
 BYTE   W96
//  #04 //036   ----------------------------------------
 BYTE   W96
//  #04 //037   ----------------------------------------
 BYTE   W96
//  #04 //038   ----------------------------------------
 BYTE   W96
//  #04 //039   ----------------------------------------
 BYTE   W96
//  #04 //040   ----------------------------------------
Label_019855EA:
 BYTE   W12
 BYTE   N96  En2  v120
 BYTE   N96  Cs3
 BYTE   W84
 BYTE   PEND 
//  #04 //041   ----------------------------------------
Label_019855F2:
 BYTE   W12
 BYTE   N24  Bn2  v120
 BYTE   N24  Ds3
 BYTE   W24
 BYTE   N96  An2
 BYTE   N96  En3
 BYTE   W60
 BYTE   PEND 
//  #04 //042   ----------------------------------------
 BYTE   W36
 BYTE   N24  An2
 BYTE   N24  En3
 BYTE   W24
 BYTE   N96  Fs2  v064
 BYTE   N36  An2
 BYTE   N96  Cs3
 BYTE   W36
//  #04 //043   ----------------------------------------
 BYTE   W60
 BYTE   N24  Fs2
 BYTE   N24  Cs3
 BYTE   W24
 BYTE   N12  Fs2
 BYTE   N72  Cn3
 BYTE   W12
//  #04 //044   ----------------------------------------
Label_01985618:
 BYTE   W60
 BYTE   N96  Gs2  v120
 BYTE   N96  Cn3
 BYTE   W36
 BYTE   PEND 
//  #04 //045   ----------------------------------------
Label_01985620:
 BYTE   W12
 BYTE   N96  En2  v120
 BYTE   N96  Cs3
 BYTE   W48
 BYTE   Gs2
 BYTE   N96  Cn3
 BYTE   W36
 BYTE   PEND 
//  #04 //046   ----------------------------------------
Label_0198562C:
 BYTE   W12
 BYTE   N24  Bn2  v120
 BYTE   N24  Ds3
 BYTE   W24
 BYTE   N96  An2
 BYTE   N96  En3
 BYTE   W24
 BYTE   N36  Gs2
 BYTE   N36  Cn3
 BYTE   W36
 BYTE   PEND 
//  #04 //047   ----------------------------------------
Label_0198563E:
 BYTE   W36
 BYTE   N24  An2  v120
 BYTE   N24  En3
 BYTE   W24
 BYTE   N96  Fs2
 BYTE   N36  An2  v064
 BYTE   N96  Cs3  v120
 BYTE   W36
 BYTE   PEND 
//  #04 //048   ----------------------------------------
Label_0198564F:
 BYTE   W60
 BYTE   N24  Fs2  v120
 BYTE   N24  Cs3
 BYTE   W24
 BYTE   N12  Fs2  v064
 BYTE   N72  Cn3
 BYTE   W12
 BYTE   PEND 
//  #04 //049   ----------------------------------------
 BYTE   W96
//  #04 //050   ----------------------------------------
 BYTE   W96
//  #04 //051   ----------------------------------------
 BYTE   W96
//  #04 //052   ----------------------------------------
 BYTE   W96
//  #04 //053   ----------------------------------------
 BYTE   W96
//  #04 //054   ----------------------------------------
 BYTE   W96
//  #04 //055   ----------------------------------------
 BYTE   PATT
  POIN2 Label_019855EA
//  #04 //056   ----------------------------------------
 BYTE   PATT
  POIN2 Label_019855F2
//  #04 //057   ----------------------------------------
 BYTE   PATT
  POIN2 Label_0198563E
//  #04 //058   ----------------------------------------
 BYTE   PATT
  POIN2 Label_0198564F
//  #04 //059   ----------------------------------------
 BYTE   PATT
  POIN2 Label_01985618
//  #04 //060   ----------------------------------------
 BYTE   PATT
  POIN2 Label_01985620
//  #04 //061   ----------------------------------------
 BYTE   PATT
  POIN2 Label_0198562C
//  #04 //062   ----------------------------------------
 BYTE   PATT
  POIN2 Label_0198563E
//  #04 //063   ----------------------------------------
 BYTE   PATT
  POIN2 Label_0198564F
//  #04 //064   ----------------------------------------
 BYTE   W60
 BYTE   N36  Gs2  v120
 BYTE   N36  Cn3
 BYTE   W36
//  #04 //065   ----------------------------------------
Label_01985697:
 BYTE   W12
 BYTE   N96  Gs2  v120
 BYTE   N96  Cs3
 BYTE   W84
 BYTE   PEND 
//  #04 //066   ----------------------------------------
 BYTE   PATT
  POIN2 Label_01985697
//  #04 //067   ----------------------------------------
 BYTE   PATT
  POIN2 Label_01985697
//  #04 //068   ----------------------------------------
 BYTE   PATT
  POIN2 Label_01985697
//  #04 //069   ----------------------------------------
 BYTE   PATT
  POIN2 Label_01985697
//  #04 //070   ----------------------------------------
 BYTE   W12
 BYTE   GoTo
  POIN2 Label_01985506
//  #04 //071   ----------------------------------------
 BYTE   W84
 BYTE   FINE

//**************** Track 5 (Midi-Chn.4) ****************//

FateCruelVariant_005:
//  #05 //000   ----------------------------------------
 BYTE   KEYSH   FateCruelVariant_key+0
Label_0198420E:
 BYTE   VOICE   40
 BYTE   PAN   c_v+20
 BYTE   VOL   15*FateCruelVariant_mvl/mxv
 BYTE   W96
//  #05 //001   ----------------------------------------
 BYTE   W96
//  #05 //002   ----------------------------------------
 BYTE   W96
//  #05 //003   ----------------------------------------
 BYTE   W60
 BYTE   N24  Cs2  v120
 BYTE   W24
 BYTE   N96  Gs1  v112
 BYTE   N36  Ds2  v120
 BYTE   W12
//  #05 //004   ----------------------------------------
 BYTE   W24
 BYTE   Gs2
 BYTE   W36
 BYTE   N24  Fs2
 BYTE   W24
 BYTE   N12  Ds2  v112
 BYTE   N24  Bn2  v120
 BYTE   W12
//  #05 //005   ----------------------------------------
 BYTE   W12
 BYTE   N96  Cs2  v112
 BYTE   N96  Gs2  v120
 BYTE   W84
//  #05 //006   ----------------------------------------
Label_01984238:
 BYTE   W12
 BYTE   N24  Cs2  v112
 BYTE   N24  Gs2  v120
 BYTE   W24
 BYTE   N60  Cs2  v056
 BYTE   W60
 BYTE   PEND 
//  #05 //007   ----------------------------------------
 BYTE   W96
//  #05 //008   ----------------------------------------
 BYTE   W60
 BYTE   N24
 BYTE   W24
 BYTE   N96  Bn1  v112
 BYTE   N36  Ds2  v120
 BYTE   W12
//  #05 //009   ----------------------------------------
 BYTE   W24
 BYTE   Bn2
 BYTE   W36
 BYTE   N24  Gs2
 BYTE   W24
 BYTE   N12  Gs2  v112
 BYTE   N24  Ds3  v120
 BYTE   W12
//  #05 //010   ----------------------------------------
 BYTE   W96
//  #05 //011   ----------------------------------------
 BYTE   W96
//  #05 //012   ----------------------------------------
 BYTE   W96
//  #05 //013   ----------------------------------------
 BYTE   W96
//  #05 //014   ----------------------------------------
 BYTE   W96
//  #05 //015   ----------------------------------------
 BYTE   W96
//  #05 //016   ----------------------------------------
 BYTE   W96
//  #05 //017   ----------------------------------------
 BYTE   W96
//  #05 //018   ----------------------------------------
 BYTE   W96
//  #05 //019   ----------------------------------------
 BYTE   W96
//  #05 //020   ----------------------------------------
 BYTE   W96
//  #05 //021   ----------------------------------------
 BYTE   W96
//  #05 //022   ----------------------------------------
 BYTE   W96
//  #05 //023   ----------------------------------------
 BYTE   W60
 BYTE   Cs2
 BYTE   W24
 BYTE   N96  Gs1
 BYTE   N36  Ds2  v127
 BYTE   W12
//  #05 //024   ----------------------------------------
 BYTE   W24
 BYTE   Gs2
 BYTE   W36
 BYTE   N24  Fs2
 BYTE   W24
 BYTE   N12  Ds2  v120
 BYTE   N96  Bn2  v127
 BYTE   W12
//  #05 //025   ----------------------------------------
 BYTE   W12
 BYTE   Cs2  v112
 BYTE   N96  Gs2  v120
 BYTE   W72
 BYTE   N12  Bn2  v127
 BYTE   W12
//  #05 //026   ----------------------------------------
 BYTE   PATT
  POIN2 Label_01984238
//  #05 //027   ----------------------------------------
 BYTE   W96
//  #05 //028   ----------------------------------------
 BYTE   W60
 BYTE   N24  Cs2  v120
 BYTE   W24
 BYTE   N96  Bn1
 BYTE   N36  Ds2  v127
 BYTE   W12
//  #05 //029   ----------------------------------------
 BYTE   W24
 BYTE   Bn2
 BYTE   W36
 BYTE   N24  Gs2
 BYTE   W24
 BYTE   N12  Gs2  v120
 BYTE   N24  Ds3  v127
 BYTE   W12
//  #05 //030   ----------------------------------------
 BYTE   W12
 BYTE   N96  Gs2  v112
 BYTE   N96  Cs3  v127
 BYTE   W84
//  #05 //031   ----------------------------------------
 BYTE   W12
 BYTE   N24  Gs2  v112
 BYTE   N24  Cs3  v127
 BYTE   W24
 BYTE   N96  Ds2  v112
 BYTE   N60  Gs2  v127
 BYTE   W60
//  #05 //032   ----------------------------------------
 BYTE   W36
 BYTE   N24  Ds2  v112
 BYTE   N24  Fs2  v127
 BYTE   W24
 BYTE   N96  En2  v112
 BYTE   N96  Gs2  v127
 BYTE   W36
//  #05 //033   ----------------------------------------
 BYTE   W60
 BYTE   N24  En2  v112
 BYTE   N24  Gs2  v127
 BYTE   W24
 BYTE   N12  En2  v056
 BYTE   N72  Gs2  v112
 BYTE   N72  Bn2  v127
 BYTE   W12
//  #05 //034   ----------------------------------------
 BYTE   W60
 BYTE   N48  Gs2  v112
 BYTE   N48  Ds3  v127
 BYTE   W36
//  #05 //035   ----------------------------------------
 BYTE   W12
 BYTE   N96  Gs2  v116
 BYTE   N96  Cs3  v127
 BYTE   W84
//  #05 //036   ----------------------------------------
 BYTE   W12
 BYTE   N24  Gs2  v116
 BYTE   N24  Cs3  v127
 BYTE   W24
 BYTE   N72  Ds2  v112
 BYTE   N72  Fs2  v127
 BYTE   N60  Gs2  v064
 BYTE   W60
//  #05 //037   ----------------------------------------
 BYTE   W12
 BYTE   N48  Fs2  v112
 BYTE   N48  Ds3  v127
 BYTE   W48
 BYTE   N96  En2  v112
 BYTE   N96  Cs3  v127
 BYTE   W36
//  #05 //038   ----------------------------------------
 BYTE   W60
 BYTE   En2  v112
 BYTE   N96  Cs3  v127
 BYTE   W36
//  #05 //039   ----------------------------------------
 BYTE   W60
 BYTE   N48  En2  v112
 BYTE   N48  Cs3  v127
 BYTE   W36
//  #05 //040   ----------------------------------------
 BYTE   W12
 BYTE   N84  En2  v064
 BYTE   W84
//  #05 //041   ----------------------------------------
 BYTE   W96
//  #05 //042   ----------------------------------------
 BYTE   W96
//  #05 //043   ----------------------------------------
 BYTE   W96
//  #05 //044   ----------------------------------------
 BYTE   W96
//  #05 //045   ----------------------------------------
 BYTE   W96
//  #05 //046   ----------------------------------------
 BYTE   W96
//  #05 //047   ----------------------------------------
 BYTE   W96
//  #05 //048   ----------------------------------------
 BYTE   W96
//  #05 //049   ----------------------------------------
 BYTE   W60
 BYTE   N48  Gs1  v116
 BYTE   N48  Cn2  v127
 BYTE   W36
//  #05 //050   ----------------------------------------
 BYTE   W12
 BYTE   N36  An1  v120
 BYTE   N36  Cs2  v127
 BYTE   W36
 BYTE   N84  Cs2  v120
 BYTE   N84  Gs2  v127
 BYTE   W48
//  #05 //051   ----------------------------------------
 BYTE   W36
 BYTE   N36  Cs2  v120
 BYTE   N36  Fs2  v127
 BYTE   W36
 BYTE   N24  Fs2  v120
 BYTE   N84  Cs3  v127
 BYTE   W24
//  #05 //052   ----------------------------------------
 BYTE   W12
 BYTE   N48  Fs2  v120
 BYTE   W48
 BYTE   N96  En2
 BYTE   N96  Cs3
 BYTE   W36
//  #05 //053   ----------------------------------------
 BYTE   W60
 BYTE   N24  En2
 BYTE   N24  Cs3
 BYTE   W24
 BYTE   N12  En2  v064
 BYTE   N96  Fs2
 BYTE   N96  Dn3
 BYTE   W12
//  #05 //054   ----------------------------------------
 BYTE   W84
 BYTE   N24  Fs2
 BYTE   N24  Dn3
 BYTE   W12
//  #05 //055   ----------------------------------------
 BYTE   W12
 BYTE   N84  Fs2
 BYTE   W84
//  #05 //056   ----------------------------------------
 BYTE   W96
//  #05 //057   ----------------------------------------
 BYTE   W96
//  #05 //058   ----------------------------------------
 BYTE   W96
//  #05 //059   ----------------------------------------
 BYTE   W96
//  #05 //060   ----------------------------------------
 BYTE   W96
//  #05 //061   ----------------------------------------
 BYTE   W96
//  #05 //062   ----------------------------------------
 BYTE   W96
//  #05 //063   ----------------------------------------
 BYTE   W96
//  #05 //064   ----------------------------------------
 BYTE   W96
//  #05 //065   ----------------------------------------
 BYTE   W96
//  #05 //066   ----------------------------------------
 BYTE   W96
//  #05 //067   ----------------------------------------
 BYTE   W96
//  #05 //068   ----------------------------------------
 BYTE   W96
//  #05 //069   ----------------------------------------
 BYTE   W96
//  #05 //070   ----------------------------------------
 BYTE   W12
 BYTE   GoTo
  POIN2 Label_0198420E
//  #05 //071   ----------------------------------------
 BYTE   VOL   15*FateCruelVariant_mvl/mxv
 BYTE   W84
 BYTE   FINE

//**************** Track 6 (Midi-Chn.5) ****************//

FateCruelVariant_006:
//  #06 //000   ----------------------------------------
 BYTE   KEYSH   FateCruelVariant_key+0
Label_01984C2A:
 BYTE   VOICE   55
 BYTE   VOL   30*FateCruelVariant_mvl/mxv
 BYTE   PAN   c_v-20
 BYTE   W96
//  #06 //001   ----------------------------------------
 BYTE   W96
//  #06 //002   ----------------------------------------
 BYTE   W96
//  #06 //003   ----------------------------------------
 BYTE   W96
//  #06 //004   ----------------------------------------
 BYTE   W96
//  #06 //005   ----------------------------------------
 BYTE   W96
//  #06 //006   ----------------------------------------
 BYTE   W96
//  #06 //007   ----------------------------------------
 BYTE   W96
//  #06 //008   ----------------------------------------
 BYTE   W96
//  #06 //009   ----------------------------------------
 BYTE   W96
//  #06 //010   ----------------------------------------
 BYTE   W96
//  #06 //011   ----------------------------------------
 BYTE   W96
//  #06 //012   ----------------------------------------
 BYTE   W96
//  #06 //013   ----------------------------------------
 BYTE   W96
//  #06 //014   ----------------------------------------
 BYTE   W84
 BYTE   N24  Ds3  v100
 BYTE   N24  Gs3
 BYTE   W12
//  #06 //015   ----------------------------------------
 BYTE   W12
 BYTE   N96  Cs3
 BYTE   N96  An3
 BYTE   W84
//  #06 //016   ----------------------------------------
 BYTE   W12
 BYTE   N24  Cs3
 BYTE   N24  An3
 BYTE   W24
 BYTE   N60  Cs3  v080
 BYTE   N96  Ds3
 BYTE   N96  Bn3
 BYTE   W60
//  #06 //017   ----------------------------------------
 BYTE   W36
 BYTE   N24  Ds3
 BYTE   N24  Bn3
 BYTE   W24
 BYTE   N36  Ds3  v072
 BYTE   N96  En3
 BYTE   N96  Cs4
 BYTE   W36
//  #06 //018   ----------------------------------------
 BYTE   W60
 BYTE   En3
 BYTE   N96  Cs4
 BYTE   W36
//  #06 //019   ----------------------------------------
 BYTE   W60
 BYTE   N48  En3
 BYTE   N48  Cs4
 BYTE   W36
//  #06 //020   ----------------------------------------
 BYTE   W12
 BYTE   N84  En3  v076
 BYTE   N96  Cs4
 BYTE   W84
//  #06 //021   ----------------------------------------
 BYTE   W12
 BYTE   N24
 BYTE   W24
 BYTE   N60  En3
 BYTE   N96  Fs3
 BYTE   N96  Ds4
 BYTE   W60
//  #06 //022   ----------------------------------------
 BYTE   W36
 BYTE   N24  Fs3
 BYTE   N24  Ds4
 BYTE   W24
 BYTE   N36  Fs3
 BYTE   N96  Gs3
 BYTE   N96  En4
 BYTE   W36
//  #06 //023   ----------------------------------------
 BYTE   W60
 BYTE   N24  Gs3
 BYTE   N24  En4
 BYTE   W24
 BYTE   N12  Gs3
 BYTE   N96  Ds4
 BYTE   W12
//  #06 //024   ----------------------------------------
 BYTE   W84
 BYTE   N24
 BYTE   W12
//  #06 //025   ----------------------------------------
 BYTE   W12
 BYTE   N84  Gs3
 BYTE   N96  Cs4
 BYTE   W84
//  #06 //026   ----------------------------------------
 BYTE   W12
 BYTE   N24
 BYTE   W24
 BYTE   N60  Gs3
 BYTE   N96  Bn3
 BYTE   N96  Fs4
 BYTE   W60
//  #06 //027   ----------------------------------------
 BYTE   W36
 BYTE   N24  Bn3
 BYTE   N24  Fs4
 BYTE   W24
 BYTE   N36  Bn3  v080
 BYTE   N96  Cs4
 BYTE   N96  Gs4
 BYTE   W36
//  #06 //028   ----------------------------------------
 BYTE   W60
 BYTE   N24  Cs4
 BYTE   N24  Gs4
 BYTE   W24
 BYTE   N96  Bn3
 BYTE   N12  Cs4
 BYTE   N96  Fs4
 BYTE   W12
//  #06 //029   ----------------------------------------
 BYTE   W84
 BYTE   N24  Bn3
 BYTE   N24  Fs4
 BYTE   W12
//  #06 //030   ----------------------------------------
 BYTE   W12
 BYTE   N96  An2  v112
 BYTE   N96  Cs3
 BYTE   N84  Bn3  v080
 BYTE   W84
//  #06 //031   ----------------------------------------
 BYTE   W12
 BYTE   N24  An2  v112
 BYTE   N24  Cs3
 BYTE   W24
 BYTE   N60  An2  v064
 BYTE   N96  Bn2
 BYTE   N96  Ds3
 BYTE   W60
//  #06 //032   ----------------------------------------
Label_01984CE8:
 BYTE   W36
 BYTE   N24  Bn2  v064
 BYTE   N24  Ds3
 BYTE   W24
 BYTE   N36  Bn2
 BYTE   N96  Cs3
 BYTE   N96  En3
 BYTE   W36
 BYTE   PEND 
//  #06 //033   ----------------------------------------
Label_01984CF7:
 BYTE   W60
 BYTE   N96  Cs3  v064
 BYTE   N96  En3
 BYTE   W36
 BYTE   PEND 
//  #06 //034   ----------------------------------------
 BYTE   W60
 BYTE   N24  Cs3
 BYTE   N24  En3
 BYTE   W24
 BYTE   Bn2
 BYTE   N12  Cs3
 BYTE   N24  Ds3
 BYTE   W12
//  #06 //035   ----------------------------------------
 BYTE   W12
 BYTE   N96  An2  v120
 BYTE   N96  Cs3
 BYTE   W84
//  #06 //036   ----------------------------------------
 BYTE   W12
 BYTE   N24  An2
 BYTE   N24  Cs3
 BYTE   W24
 BYTE   N60  An2  v064
 BYTE   N96  Bn2
 BYTE   N96  Ds3
 BYTE   W60
//  #06 //037   ----------------------------------------
 BYTE   PATT
  POIN2 Label_01984CE8
//  #06 //038   ----------------------------------------
 BYTE   PATT
  POIN2 Label_01984CF7
//  #06 //039   ----------------------------------------
 BYTE   W60
 BYTE   N48  Cs3  v064
 BYTE   N48  En3
 BYTE   W36
//  #06 //040   ----------------------------------------
 BYTE   W12
 BYTE   N84  Cs3
 BYTE   N96  Gs3  v112
 BYTE   N96  Cs4
 BYTE   W84
//  #06 //041   ----------------------------------------
Label_01984D3A:
 BYTE   W12
 BYTE   N96  Gs3  v112
 BYTE   N96  Cs4
 BYTE   W84
 BYTE   PEND 
//  #06 //042   ----------------------------------------
Label_01984D42:
 BYTE   W12
 BYTE   N48  Gs3  v112
 BYTE   N48  Cs4
 BYTE   W48
 BYTE   N96  Fs3  v076
 BYTE   N36  Gs3
 BYTE   N96  Cs4
 BYTE   W36
 BYTE   PEND 
//  #06 //043   ----------------------------------------
Label_01984D52:
 BYTE   W60
 BYTE   N24  Fs3  v076
 BYTE   N24  Cs4
 BYTE   W24
 BYTE   N12  Fs3
 BYTE   N72  Cn4
 BYTE   W12
 BYTE   PEND 
//  #06 //044   ----------------------------------------
Label_01984D5F:
 BYTE   W60
 BYTE   N48  Gs3  v112
 BYTE   N48  Cn4
 BYTE   W36
 BYTE   PEND 
//  #06 //045   ----------------------------------------
 BYTE   PATT
  POIN2 Label_01984D3A
//  #06 //046   ----------------------------------------
Label_01984D6C:
 BYTE   W12
 BYTE   N24  Gs3  v112
 BYTE   N24  Cs4
 BYTE   W24
 BYTE   N60  Gs3
 BYTE   N96  An3
 BYTE   W60
 BYTE   PEND 
//  #06 //047   ----------------------------------------
Label_01984D79:
 BYTE   W36
 BYTE   N24  An3  v112
 BYTE   W24
 BYTE   N96  Fs3
 BYTE   N36  Cs4
 BYTE   W36
 BYTE   PEND 
//  #06 //048   ----------------------------------------
Label_01984D84:
 BYTE   W60
 BYTE   N24  Fs3  v112
 BYTE   W24
 BYTE   N12  Fs3  v076
 BYTE   N72  Cn4
 BYTE   W12
 BYTE   PEND 
//  #06 //049   ----------------------------------------
 BYTE   W60
 BYTE   N36  Gs3  v112
 BYTE   N36  Cn4
 BYTE   W36
//  #06 //050   ----------------------------------------
 BYTE   W12
 BYTE   N96  Gs3  v100
 BYTE   N96  Cs4
 BYTE   W84
//  #06 //051   ----------------------------------------
 BYTE   W12
 BYTE   N24  Gs3
 BYTE   N24  Cs4
 BYTE   W24
 BYTE   N96  Fs3  v076
 BYTE   N60  Gs3
 BYTE   N96  Dn4
 BYTE   W60
//  #06 //052   ----------------------------------------
 BYTE   W36
 BYTE   N24  Fs3
 BYTE   N24  Dn4
 BYTE   W24
 BYTE   N36  Fs3
 BYTE   N96  Gs3
 BYTE   N96  Cs4
 BYTE   W36
//  #06 //053   ----------------------------------------
 BYTE   W60
 BYTE   N24  Gs3
 BYTE   N24  Cs4
 BYTE   W24
 BYTE   N96  Fs3
 BYTE   N12  Gs3
 BYTE   N96  Dn4
 BYTE   W12
//  #06 //054   ----------------------------------------
 BYTE   W84
 BYTE   N24  Fs3
 BYTE   N24  Dn4
 BYTE   W12
//  #06 //055   ----------------------------------------
 BYTE   W12
 BYTE   N84  Fs3
 BYTE   N96  Gs3  v112
 BYTE   N96  Cs4
 BYTE   W84
//  #06 //056   ----------------------------------------
 BYTE   PATT
  POIN2 Label_01984D3A
//  #06 //057   ----------------------------------------
 BYTE   PATT
  POIN2 Label_01984D42
//  #06 //058   ----------------------------------------
 BYTE   PATT
  POIN2 Label_01984D52
//  #06 //059   ----------------------------------------
 BYTE   PATT
  POIN2 Label_01984D5F
//  #06 //060   ----------------------------------------
 BYTE   PATT
  POIN2 Label_01984D3A
//  #06 //061   ----------------------------------------
 BYTE   PATT
  POIN2 Label_01984D6C
//  #06 //062   ----------------------------------------
 BYTE   PATT
  POIN2 Label_01984D79
//  #06 //063   ----------------------------------------
 BYTE   PATT
  POIN2 Label_01984D84
//  #06 //064   ----------------------------------------
 BYTE   PATT
  POIN2 Label_01984D5F
//  #06 //065   ----------------------------------------
 BYTE   PATT
  POIN2 Label_01984D3A
//  #06 //066   ----------------------------------------
 BYTE   W12
 BYTE   N24  Gs3  v112
 BYTE   N24  Cs4
 BYTE   W24
 BYTE   N96  Bn2  v100
 BYTE   N96  Fs3
 BYTE   N60  Gs3  v076
 BYTE   W60
//  #06 //067   ----------------------------------------
 BYTE   W36
 BYTE   N24  Bn2  v100
 BYTE   N24  Fs3
 BYTE   W24
 BYTE   N36  Bn2  v068
 BYTE   N96  Cs3
 BYTE   N96  En3
 BYTE   W36
//  #06 //068   ----------------------------------------
 BYTE   W60
 BYTE   Cs3
 BYTE   N96  En3
 BYTE   W36
//  #06 //069   ----------------------------------------
 BYTE   W60
 BYTE   N48  Cs3
 BYTE   N48  En3
 BYTE   W36
//  #06 //070   ----------------------------------------
 BYTE   W12
 BYTE   GoTo
  POIN2 Label_01984C2A
//  #06 //071   ----------------------------------------
 BYTE   W84
 BYTE   FINE

//**************** Track 7 (Midi-Chn.6) ****************//

FateCruelVariant_007:
//  #07 //000   ----------------------------------------
 BYTE   KEYSH   FateCruelVariant_key+0
Label_0198593E:
 BYTE   VOICE   42
 BYTE   PAN   c_v-4
 BYTE   VOL   18*FateCruelVariant_mvl/mxv
 BYTE   W96
//  #07 //001   ----------------------------------------
 BYTE   W96
//  #07 //002   ----------------------------------------
 BYTE   W96
//  #07 //003   ----------------------------------------
 BYTE   W96
//  #07 //004   ----------------------------------------
 BYTE   W96
//  #07 //005   ----------------------------------------
 BYTE   W96
//  #07 //006   ----------------------------------------
 BYTE   W96
//  #07 //007   ----------------------------------------
 BYTE   W96
//  #07 //008   ----------------------------------------
 BYTE   W96
//  #07 //009   ----------------------------------------
 BYTE   W96
//  #07 //010   ----------------------------------------
 BYTE   W96
//  #07 //011   ----------------------------------------
 BYTE   W96
//  #07 //012   ----------------------------------------
 BYTE   W96
//  #07 //013   ----------------------------------------
 BYTE   W96
//  #07 //014   ----------------------------------------
 BYTE   W96
//  #07 //015   ----------------------------------------
 BYTE   W96
//  #07 //016   ----------------------------------------
 BYTE   W96
//  #07 //017   ----------------------------------------
 BYTE   W96
//  #07 //018   ----------------------------------------
 BYTE   W96
//  #07 //019   ----------------------------------------
 BYTE   W96
//  #07 //020   ----------------------------------------
 BYTE   W12
 BYTE   N06  Ds4  v100
 BYTE   N06  Gs4
 BYTE   W12
 BYTE   Gs3  v092
 BYTE   N06  Ds4
 BYTE   W12
 BYTE   N12  Gs3
 BYTE   W12
 BYTE   N06  Ds4  v100
 BYTE   N06  Gs4
 BYTE   W12
 BYTE   Gs3  v092
 BYTE   N06  Ds4
 BYTE   W12
 BYTE   N12  Gs3
 BYTE   W12
 BYTE   N06  Ds4  v100
 BYTE   N06  Gs4
 BYTE   W12
//  #07 //021   ----------------------------------------
Label_0198597B:
 BYTE   N06  Gs3  v092
 BYTE   N06  Ds4
 BYTE   W12
 BYTE   Ds4  v096
 BYTE   N06  Gs4
 BYTE   W12
 BYTE   Gs3  v092
 BYTE   N06  Ds4
 BYTE   W12
 BYTE   Ds4  v100
 BYTE   N06  Gs4
 BYTE   W12
 BYTE   Gs3  v092
 BYTE   N06  Ds4
 BYTE   W12
 BYTE   N12  Gs3
 BYTE   W12
 BYTE   N06  Ds4  v100
 BYTE   N06  Gs4
 BYTE   W12
 BYTE   Gs3  v092
 BYTE   N06  Ds4
 BYTE   W12
 BYTE   PEND 
//  #07 //022   ----------------------------------------
Label_019859A4:
 BYTE   N06  Gs3  v092
 BYTE   W12
 BYTE   Ds4  v100
 BYTE   N06  Gs4
 BYTE   W12
 BYTE   Gs3  v092
 BYTE   N06  Ds4
 BYTE   W12
 BYTE   Ds4  v096
 BYTE   N06  Gs4
 BYTE   W12
 BYTE   Gs3  v092
 BYTE   N06  Ds4
 BYTE   W12
 BYTE   Ds4  v100
 BYTE   N06  Gs4
 BYTE   W12
 BYTE   Gs3  v092
 BYTE   N06  Ds4
 BYTE   W12
 BYTE   N12  Gs3
 BYTE   W12
 BYTE   PEND 
//  #07 //023   ----------------------------------------
Label_019859CA:
 BYTE   N06  Ds4  v100
 BYTE   N06  Gs4
 BYTE   W12
 BYTE   Gs3  v092
 BYTE   N06  Ds4
 BYTE   W12
 BYTE   N12  Gs3
 BYTE   W12
 BYTE   N06  Ds4  v100
 BYTE   N06  Gs4
 BYTE   W12
 BYTE   Gs3  v092
 BYTE   N06  Ds4
 BYTE   W12
 BYTE   Ds4  v096
 BYTE   N06  Gs4
 BYTE   W12
 BYTE   Gs3  v092
 BYTE   N06  Ds4
 BYTE   W12
 BYTE   Ds4  v100
 BYTE   N06  Gs4
 BYTE   W12
 BYTE   PEND 
//  #07 //024   ----------------------------------------
Label_019859F3:
 BYTE   N06  Gs3  v092
 BYTE   N06  Ds4
 BYTE   W12
 BYTE   N12  Gs3
 BYTE   W12
 BYTE   N06  Ds4  v100
 BYTE   N06  Gs4
 BYTE   W12
 BYTE   Gs3  v092
 BYTE   N06  Ds4
 BYTE   W12
 BYTE   N12  Gs3
 BYTE   W12
 BYTE   N06  Ds4  v100
 BYTE   N06  Gs4
 BYTE   W12
 BYTE   Gs3  v092
 BYTE   N06  Ds4
 BYTE   W12
 BYTE   Ds4  v096
 BYTE   N06  Gs4
 BYTE   W12
 BYTE   PEND 
//  #07 //025   ----------------------------------------
 BYTE   Gs3  v092
 BYTE   N06  Ds4
 BYTE   W12
 BYTE   Ds4  v100
 BYTE   N06  Gs4
 BYTE   W12
 BYTE   Gs3  v092
 BYTE   N06  Ds4
 BYTE   W12
 BYTE   N12  Gs3
 BYTE   W12
 BYTE   N06  Ds4  v100
 BYTE   N06  Gs4
 BYTE   W12
 BYTE   Gs3  v092
 BYTE   N06  Ds4
 BYTE   W12
 BYTE   N12  Gs3
 BYTE   W12
 BYTE   N06  Ds4  v100
 BYTE   N06  Gs4
 BYTE   W12
//  #07 //026   ----------------------------------------
 BYTE   PATT
  POIN2 Label_0198597B
//  #07 //027   ----------------------------------------
 BYTE   PATT
  POIN2 Label_019859A4
//  #07 //028   ----------------------------------------
 BYTE   PATT
  POIN2 Label_019859CA
//  #07 //029   ----------------------------------------
 BYTE   PATT
  POIN2 Label_019859F3
//  #07 //030   ----------------------------------------
 BYTE   N06  Gs3  v092
 BYTE   N06  Ds4
 BYTE   W12
 BYTE   Ds3  v116
 BYTE   N06  Gs3
 BYTE   W12
 BYTE   Gs2  v108
 BYTE   N06  Ds3
 BYTE   W12
 BYTE   N12  Gs2
 BYTE   W12
 BYTE   N06  Ds3  v116
 BYTE   N06  Gs3
 BYTE   W12
 BYTE   Gs2  v108
 BYTE   N06  Ds3
 BYTE   W12
 BYTE   N12  Gs2
 BYTE   W12
 BYTE   N06  Ds3  v116
 BYTE   N06  Gs3
 BYTE   W12
//  #07 //031   ----------------------------------------
Label_01985A7C:
 BYTE   N06  Gs2  v108
 BYTE   N06  Ds3
 BYTE   W12
 BYTE   Ds3  v112
 BYTE   N06  Gs3
 BYTE   W12
 BYTE   Gs2  v108
 BYTE   N06  Ds3
 BYTE   W12
 BYTE   Ds3  v116
 BYTE   N06  Gs3
 BYTE   W12
 BYTE   Gs2  v108
 BYTE   N06  Ds3
 BYTE   W12
 BYTE   N12  Gs2
 BYTE   W12
 BYTE   N06  Ds3  v116
 BYTE   N06  Gs3
 BYTE   W12
 BYTE   Gs2  v108
 BYTE   N06  Ds3
 BYTE   W12
 BYTE   PEND 
//  #07 //032   ----------------------------------------
Label_01985AA5:
 BYTE   N06  Gs2  v108
 BYTE   W12
 BYTE   Ds3  v116
 BYTE   N06  Gs3
 BYTE   W12
 BYTE   Gs2  v108
 BYTE   N06  Ds3
 BYTE   W12
 BYTE   Ds3  v112
 BYTE   N06  Gs3
 BYTE   W12
 BYTE   Gs2  v108
 BYTE   N06  Ds3
 BYTE   W12
 BYTE   Cs3  v116
 BYTE   N06  Gs3
 BYTE   W12
 BYTE   Gs2  v108
 BYTE   N06  Cs3
 BYTE   W12
 BYTE   N12  Gs2
 BYTE   W12
 BYTE   PEND 
//  #07 //033   ----------------------------------------
Label_01985ACB:
 BYTE   N06  Cs3  v116
 BYTE   N06  Gs3
 BYTE   W12
 BYTE   Gs2  v108
 BYTE   N06  Cs3
 BYTE   W12
 BYTE   N12  Gs2
 BYTE   W12
 BYTE   N06  Cs3  v116
 BYTE   N06  Gs3
 BYTE   W12
 BYTE   Gs2  v108
 BYTE   N06  Cs3
 BYTE   W12
 BYTE   Cs3  v112
 BYTE   N06  Gs3
 BYTE   W12
 BYTE   Gs2  v108
 BYTE   N06  Cs3
 BYTE   W12
 BYTE   Cs3  v116
 BYTE   N06  Gs3
 BYTE   W12
 BYTE   PEND 
//  #07 //034   ----------------------------------------
Label_01985AF4:
 BYTE   N06  Gs2  v108
 BYTE   N06  Cs3
 BYTE   W12
 BYTE   N12  Gs2
 BYTE   W12
 BYTE   N06  Cs3  v116
 BYTE   N06  Gs3
 BYTE   W12
 BYTE   Gs2  v108
 BYTE   N06  Cs3
 BYTE   W12
 BYTE   N12  Gs2
 BYTE   W12
 BYTE   N06  Cs3  v116
 BYTE   N06  Gs3
 BYTE   W12
 BYTE   Gs2  v108
 BYTE   N06  Cs3
 BYTE   W12
 BYTE   Bn2  v112
 BYTE   N06  Gs3
 BYTE   W12
 BYTE   PEND 
//  #07 //035   ----------------------------------------
 BYTE   Gs2  v108
 BYTE   N06  Bn2
 BYTE   W12
 BYTE   Ds3  v116
 BYTE   N06  Gs3
 BYTE   W12
 BYTE   Gs2  v108
 BYTE   N06  Ds3
 BYTE   W12
 BYTE   N12  Gs2
 BYTE   W12
 BYTE   N06  Ds3  v116
 BYTE   N06  Gs3
 BYTE   W12
 BYTE   Gs2  v108
 BYTE   N06  Ds3
 BYTE   W12
 BYTE   N12  Gs2
 BYTE   W12
 BYTE   N06  Ds3  v116
 BYTE   N06  Gs3
 BYTE   W12
//  #07 //036   ----------------------------------------
 BYTE   PATT
  POIN2 Label_01985A7C
//  #07 //037   ----------------------------------------
 BYTE   PATT
  POIN2 Label_01985AA5
//  #07 //038   ----------------------------------------
 BYTE   PATT
  POIN2 Label_01985ACB
//  #07 //039   ----------------------------------------
 BYTE   PATT
  POIN2 Label_01985AF4
//  #07 //040   ----------------------------------------
 BYTE   N06  Gs2  v108
 BYTE   N06  Bn2
 BYTE   W96
//  #07 //041   ----------------------------------------
 BYTE   W96
//  #07 //042   ----------------------------------------
 BYTE   W96
//  #07 //043   ----------------------------------------
 BYTE   W96
//  #07 //044   ----------------------------------------
 BYTE   W96
//  #07 //045   ----------------------------------------
 BYTE   W96
//  #07 //046   ----------------------------------------
 BYTE   W96
//  #07 //047   ----------------------------------------
 BYTE   W96
//  #07 //048   ----------------------------------------
 BYTE   W96
//  #07 //049   ----------------------------------------
 BYTE   W96
//  #07 //050   ----------------------------------------
 BYTE   W96
//  #07 //051   ----------------------------------------
 BYTE   W96
//  #07 //052   ----------------------------------------
 BYTE   W96
//  #07 //053   ----------------------------------------
 BYTE   W96
//  #07 //054   ----------------------------------------
 BYTE   W96
//  #07 //055   ----------------------------------------
 BYTE   W96
//  #07 //056   ----------------------------------------
 BYTE   W96
//  #07 //057   ----------------------------------------
 BYTE   W96
//  #07 //058   ----------------------------------------
 BYTE   W96
//  #07 //059   ----------------------------------------
 BYTE   W96
//  #07 //060   ----------------------------------------
 BYTE   W96
//  #07 //061   ----------------------------------------
 BYTE   W96
//  #07 //062   ----------------------------------------
 BYTE   W96
//  #07 //063   ----------------------------------------
 BYTE   W96
//  #07 //064   ----------------------------------------
 BYTE   W96
//  #07 //065   ----------------------------------------
 BYTE   W12
 BYTE   Ds3  v112
 BYTE   N06  Gs3
 BYTE   W12
 BYTE   Gs2  v100
 BYTE   N06  Ds3
 BYTE   W12
 BYTE   N12  Gs2
 BYTE   W12
 BYTE   N06  Ds3  v112
 BYTE   N06  Gs3
 BYTE   W12
 BYTE   Gs2  v100
 BYTE   N06  Ds3
 BYTE   W12
 BYTE   N12  Gs2
 BYTE   W12
 BYTE   N06  Ds3  v112
 BYTE   N06  Gs3
 BYTE   W12
//  #07 //066   ----------------------------------------
 BYTE   Gs2  v100
 BYTE   N06  Ds3
 BYTE   W12
 BYTE   Ds3  v108
 BYTE   N06  Gs3
 BYTE   W12
 BYTE   Gs2  v100
 BYTE   N06  Ds3
 BYTE   W12
 BYTE   Ds3  v112
 BYTE   N06  Gs3
 BYTE   W12
 BYTE   Gs2  v100
 BYTE   N06  Ds3
 BYTE   W12
 BYTE   N12  Gs2
 BYTE   W12
 BYTE   N06  Ds3  v112
 BYTE   N06  Gs3
 BYTE   W12
 BYTE   Gs2  v100
 BYTE   N06  Ds3
 BYTE   W12
//  #07 //067   ----------------------------------------
 BYTE   N12  Gs2
 BYTE   W12
 BYTE   N06  Ds3  v112
 BYTE   N06  Gs3
 BYTE   W12
 BYTE   Gs2  v100
 BYTE   N06  Ds3
 BYTE   W12
 BYTE   Ds3  v108
 BYTE   N06  Gs3
 BYTE   W12
 BYTE   Gs2  v100
 BYTE   N06  Ds3
 BYTE   W12
 BYTE   Ds3  v108
 BYTE   N06  Gs3
 BYTE   W12
 BYTE   Gs2  v096
 BYTE   N06  Ds3
 BYTE   W12
 BYTE   N12  Gs2
 BYTE   W12
//  #07 //068   ----------------------------------------
 BYTE   N06  Ds3  v108
 BYTE   N06  Gs3
 BYTE   W12
 BYTE   Gs2  v096
 BYTE   N06  Ds3
 BYTE   W12
 BYTE   N12  Gs2
 BYTE   W12
 BYTE   N06  Ds3  v108
 BYTE   N06  Gs3
 BYTE   W12
 BYTE   Gs2  v096
 BYTE   N06  Ds3
 BYTE   W12
 BYTE   Ds3  v100
 BYTE   N06  Gs3
 BYTE   W12
 BYTE   Gs2  v096
 BYTE   N06  Ds3
 BYTE   W12
 BYTE   Ds3  v108
 BYTE   N06  Gs3
 BYTE   W12
//  #07 //069   ----------------------------------------
 BYTE   Gs2  v096
 BYTE   N06  Ds3
 BYTE   W12
 BYTE   N12  Gs2
 BYTE   W12
 BYTE   N06  Ds3  v108
 BYTE   N06  Gs3
 BYTE   W12
 BYTE   Gs2  v096
 BYTE   N06  Ds3
 BYTE   W12
 BYTE   N12  Gs2
 BYTE   W12
 BYTE   N06  Ds3  v108
 BYTE   N06  Gs3
 BYTE   W12
 BYTE   Gs2  v096
 BYTE   N06  Ds3
 BYTE   W12
 BYTE   Ds3  v100
 BYTE   N06  Gs3
 BYTE   W12
//  #07 //070   ----------------------------------------
 BYTE   Gs2  v096
 BYTE   N06  Ds3
 BYTE   W12
 BYTE   GoTo
  POIN2 Label_0198593E
//  #07 //071   ----------------------------------------
 BYTE   VOL   18*FateCruelVariant_mvl/mxv
 BYTE   W84
 BYTE   FINE

//**************** Track 8 (Midi-Chn.7) ****************//

FateCruelVariant_008:
//  #08 //000   ----------------------------------------
 BYTE   KEYSH   FateCruelVariant_key+0
Label_015DF236:
 BYTE   VOICE   1
 BYTE   VOL   16*FateCruelVariant_mvl/mxv
 BYTE   PAN   c_v+2
 BYTE   W96
//  #08 //001   ----------------------------------------
 BYTE   W96
//  #08 //002   ----------------------------------------
 BYTE   W96
//  #08 //003   ----------------------------------------
 BYTE   W96
//  #08 //004   ----------------------------------------
 BYTE   W96
//  #08 //005   ----------------------------------------
 BYTE   W96
//  #08 //006   ----------------------------------------
 BYTE   W96
//  #08 //007   ----------------------------------------
 BYTE   W96
//  #08 //008   ----------------------------------------
 BYTE   W96
//  #08 //009   ----------------------------------------
 BYTE   W96
//  #08 //010   ----------------------------------------
 BYTE   W12
 BYTE   N12  Gs3  v108
 BYTE   N12  Ds4  v112
 BYTE   W12
 BYTE   Gs3  v088
 BYTE   N12  Ds4  v092
 BYTE   W12
 BYTE   Ds3  v104
 BYTE   N12  Gs3  v108
 BYTE   W12
 BYTE   Gs3  v092
 BYTE   N12  Ds4  v112
 BYTE   W12
 BYTE   Gs3  v088
 BYTE   N12  Ds4  v092
 BYTE   W12
 BYTE   Ds4  v104
 BYTE   N12  Gs4  v108
 BYTE   W12
 BYTE   Ds4  v088
 BYTE   N12  Gs4  v092
 BYTE   W12
//  #08 //011   ----------------------------------------
Label_015DF272:
 BYTE   N12  Ds4  v072
 BYTE   N12  Gs4  v080
 BYTE   W12
 BYTE   Gs3  v104
 BYTE   N12  Ds4  v108
 BYTE   W12
 BYTE   Gs3  v084
 BYTE   N12  Ds4  v088
 BYTE   W12
 BYTE   Gs3  v108
 BYTE   N12  Ds4  v112
 BYTE   W12
 BYTE   Gs3  v088
 BYTE   N12  Ds4  v092
 BYTE   W12
 BYTE   Ds3  v104
 BYTE   N12  Gs3  v108
 BYTE   W12
 BYTE   Gs3  v092
 BYTE   N12  Ds4  v112
 BYTE   W12
 BYTE   Gs3  v088
 BYTE   N12  Ds4  v092
 BYTE   W12
 BYTE   PEND 
//  #08 //012   ----------------------------------------
Label_015DF2A4:
 BYTE   N12  Ds4  v104
 BYTE   N12  Gs4  v108
 BYTE   W12
 BYTE   Ds4  v104
 BYTE   N12  Gs4  v108
 BYTE   W12
 BYTE   Ds4  v088
 BYTE   N12  Gs4  v092
 BYTE   W12
 BYTE   Gs3  v100
 BYTE   N12  Ds4  v104
 BYTE   W12
 BYTE   Gs3  v084
 BYTE   N12  Ds4  v088
 BYTE   W12
 BYTE   Gs3  v108
 BYTE   N12  Cs4  v112
 BYTE   W12
 BYTE   Gs3  v088
 BYTE   N12  Cs4  v092
 BYTE   W12
 BYTE   Cs3  v104
 BYTE   N12  Gs3  v108
 BYTE   W12
 BYTE   PEND 
//  #08 //013   ----------------------------------------
Label_015DF2D6:
 BYTE   N12  Gs3  v092
 BYTE   N12  Cs4  v112
 BYTE   W12
 BYTE   Gs3  v088
 BYTE   N12  Cs4  v092
 BYTE   W12
 BYTE   Cs4  v104
 BYTE   N12  Gs4  v108
 BYTE   W12
 BYTE   Cs4  v088
 BYTE   N12  Gs4  v092
 BYTE   W12
 BYTE   Cs4  v072
 BYTE   N12  Gs4  v080
 BYTE   W12
 BYTE   Gs3  v104
 BYTE   N12  Cs4  v108
 BYTE   W12
 BYTE   Gs3  v084
 BYTE   N12  Cs4  v088
 BYTE   W12
 BYTE   Gs3  v108
 BYTE   N12  Cs4  v112
 BYTE   W12
 BYTE   PEND 
//  #08 //014   ----------------------------------------
Label_015DF308:
 BYTE   N12  Gs3  v088
 BYTE   N12  Cs4  v092
 BYTE   W12
 BYTE   Cs3  v104
 BYTE   N12  Gs3  v108
 BYTE   W12
 BYTE   Gs3  v092
 BYTE   N12  Cs4  v112
 BYTE   W12
 BYTE   Gs3  v088
 BYTE   N12  Cs4  v092
 BYTE   W12
 BYTE   Cs4  v104
 BYTE   N12  Gs4  v108
 BYTE   W12
 BYTE   Cs4  v104
 BYTE   N12  Gs4  v108
 BYTE   W12
 BYTE   Cs4  v088
 BYTE   N12  Gs4  v092
 BYTE   W12
 BYTE   Gs3  v100
 BYTE   N12  Cs4  v104
 BYTE   W12
 BYTE   PEND 
//  #08 //015   ----------------------------------------
 BYTE   Gs3  v084
 BYTE   N12  Cs4  v088
 BYTE   W12
 BYTE   Gs3  v108
 BYTE   N12  Ds4  v112
 BYTE   W12
 BYTE   Gs3  v088
 BYTE   N12  Ds4  v092
 BYTE   W12
 BYTE   Ds3  v104
 BYTE   N12  Gs3  v108
 BYTE   W12
 BYTE   Gs3  v092
 BYTE   N12  Ds4  v112
 BYTE   W12
 BYTE   Gs3  v088
 BYTE   N12  Ds4  v092
 BYTE   W12
 BYTE   Ds4  v104
 BYTE   N12  Gs4  v108
 BYTE   W12
 BYTE   Ds4  v088
 BYTE   N12  Gs4  v092
 BYTE   W12
//  #08 //016   ----------------------------------------
 BYTE   PATT
  POIN2 Label_015DF272
//  #08 //017   ----------------------------------------
 BYTE   PATT
  POIN2 Label_015DF2A4
//  #08 //018   ----------------------------------------
 BYTE   PATT
  POIN2 Label_015DF2D6
//  #08 //019   ----------------------------------------
 BYTE   PATT
  POIN2 Label_015DF308
//  #08 //020   ----------------------------------------
 BYTE   N12  Gs3  v084
 BYTE   N12  Cs4  v088
 BYTE   W96
//  #08 //021   ----------------------------------------
 BYTE   W96
//  #08 //022   ----------------------------------------
 BYTE   W96
//  #08 //023   ----------------------------------------
 BYTE   W96
//  #08 //024   ----------------------------------------
 BYTE   W96
//  #08 //025   ----------------------------------------
 BYTE   W96
//  #08 //026   ----------------------------------------
 BYTE   W96
//  #08 //027   ----------------------------------------
 BYTE   W96
//  #08 //028   ----------------------------------------
 BYTE   W96
//  #08 //029   ----------------------------------------
 BYTE   W96
//  #08 //030   ----------------------------------------
 BYTE   W96
//  #08 //031   ----------------------------------------
 BYTE   W96
//  #08 //032   ----------------------------------------
 BYTE   W96
//  #08 //033   ----------------------------------------
 BYTE   W96
//  #08 //034   ----------------------------------------
 BYTE   W96
//  #08 //035   ----------------------------------------
 BYTE   W96
//  #08 //036   ----------------------------------------
 BYTE   W96
//  #08 //037   ----------------------------------------
 BYTE   W96
//  #08 //038   ----------------------------------------
 BYTE   W96
//  #08 //039   ----------------------------------------
 BYTE   W96
//  #08 //040   ----------------------------------------
 BYTE   W96
//  #08 //041   ----------------------------------------
 BYTE   W96
//  #08 //042   ----------------------------------------
 BYTE   W96
//  #08 //043   ----------------------------------------
 BYTE   W96
//  #08 //044   ----------------------------------------
 BYTE   W96
//  #08 //045   ----------------------------------------
 BYTE   W96
//  #08 //046   ----------------------------------------
 BYTE   W96
//  #08 //047   ----------------------------------------
 BYTE   W96
//  #08 //048   ----------------------------------------
 BYTE   W96
//  #08 //049   ----------------------------------------
 BYTE   W96
//  #08 //050   ----------------------------------------
 BYTE   W96
//  #08 //051   ----------------------------------------
 BYTE   W96
//  #08 //052   ----------------------------------------
 BYTE   W96
//  #08 //053   ----------------------------------------
 BYTE   W96
//  #08 //054   ----------------------------------------
 BYTE   W96
//  #08 //055   ----------------------------------------
 BYTE   W96
//  #08 //056   ----------------------------------------
 BYTE   W96
//  #08 //057   ----------------------------------------
 BYTE   W96
//  #08 //058   ----------------------------------------
 BYTE   W96
//  #08 //059   ----------------------------------------
 BYTE   W96
//  #08 //060   ----------------------------------------
 BYTE   W96
//  #08 //061   ----------------------------------------
 BYTE   W96
//  #08 //062   ----------------------------------------
 BYTE   W96
//  #08 //063   ----------------------------------------
 BYTE   W96
//  #08 //064   ----------------------------------------
 BYTE   W96
//  #08 //065   ----------------------------------------
 BYTE   W96
//  #08 //066   ----------------------------------------
 BYTE   W96
//  #08 //067   ----------------------------------------
 BYTE   W96
//  #08 //068   ----------------------------------------
 BYTE   W96
//  #08 //069   ----------------------------------------
 BYTE   W96
//  #08 //070   ----------------------------------------
 BYTE   W12
 BYTE   GoTo
  POIN2 Label_015DF236
//  #08 //071   ----------------------------------------
 BYTE   VOL   16*FateCruelVariant_mvl/mxv
 BYTE   PAN   c_v+2
 BYTE   W84
 BYTE   FINE

//**************** Track 9 (Midi-Chn.8) ****************//

FateCruelVariant_009:
//  #09 //000   ----------------------------------------
 BYTE   KEYSH   FateCruelVariant_key+0
Label_019848EE:
 BYTE   VOICE   59
 BYTE   VOL   12*FateCruelVariant_mvl/mxv
 BYTE   PAN   c_v-5
 BYTE   W12
 BYTE   N96  Cs1  v120
 BYTE   W84
//  #09 //001   ----------------------------------------
 BYTE   W12
 BYTE   N24
 BYTE   W84
//  #09 //002   ----------------------------------------
 BYTE   W96
//  #09 //003   ----------------------------------------
 BYTE   W96
//  #09 //004   ----------------------------------------
 BYTE   W96
//  #09 //005   ----------------------------------------
 BYTE   W96
//  #09 //006   ----------------------------------------
 BYTE   W96
//  #09 //007   ----------------------------------------
 BYTE   W96
//  #09 //008   ----------------------------------------
 BYTE   W96
//  #09 //009   ----------------------------------------
 BYTE   W96
//  #09 //010   ----------------------------------------
 BYTE   W96
//  #09 //011   ----------------------------------------
 BYTE   W96
//  #09 //012   ----------------------------------------
 BYTE   W96
//  #09 //013   ----------------------------------------
 BYTE   W96
//  #09 //014   ----------------------------------------
 BYTE   W96
//  #09 //015   ----------------------------------------
 BYTE   W96
//  #09 //016   ----------------------------------------
 BYTE   W96
//  #09 //017   ----------------------------------------
 BYTE   W96
//  #09 //018   ----------------------------------------
 BYTE   W96
//  #09 //019   ----------------------------------------
 BYTE   W96
//  #09 //020   ----------------------------------------
 BYTE   W96
//  #09 //021   ----------------------------------------
 BYTE   W96
//  #09 //022   ----------------------------------------
 BYTE   W96
//  #09 //023   ----------------------------------------
 BYTE   W96
//  #09 //024   ----------------------------------------
 BYTE   W96
//  #09 //025   ----------------------------------------
 BYTE   W96
//  #09 //026   ----------------------------------------
 BYTE   W96
//  #09 //027   ----------------------------------------
 BYTE   W96
//  #09 //028   ----------------------------------------
 BYTE   W96
//  #09 //029   ----------------------------------------
 BYTE   W96
//  #09 //030   ----------------------------------------
 BYTE   W96
//  #09 //031   ----------------------------------------
 BYTE   W96
//  #09 //032   ----------------------------------------
 BYTE   W96
//  #09 //033   ----------------------------------------
 BYTE   W96
//  #09 //034   ----------------------------------------
 BYTE   W96
//  #09 //035   ----------------------------------------
 BYTE   W96
//  #09 //036   ----------------------------------------
 BYTE   W96
//  #09 //037   ----------------------------------------
 BYTE   W96
//  #09 //038   ----------------------------------------
 BYTE   W96
//  #09 //039   ----------------------------------------
 BYTE   W96
//  #09 //040   ----------------------------------------
 BYTE   W96
//  #09 //041   ----------------------------------------
 BYTE   W96
//  #09 //042   ----------------------------------------
 BYTE   W96
//  #09 //043   ----------------------------------------
 BYTE   W96
//  #09 //044   ----------------------------------------
 BYTE   W96
//  #09 //045   ----------------------------------------
 BYTE   W96
//  #09 //046   ----------------------------------------
 BYTE   W96
//  #09 //047   ----------------------------------------
 BYTE   W96
//  #09 //048   ----------------------------------------
 BYTE   W96
//  #09 //049   ----------------------------------------
 BYTE   W60
 BYTE   N48  Gs1  v127
 BYTE   W36
//  #09 //050   ----------------------------------------
 BYTE   W12
 BYTE   N96  An1
 BYTE   W84
//  #09 //051   ----------------------------------------
 BYTE   W12
 BYTE   N24
 BYTE   W24
 BYTE   N96  Dn1
 BYTE   W60
//  #09 //052   ----------------------------------------
 BYTE   W36
 BYTE   N24
 BYTE   W24
 BYTE   N96  An1
 BYTE   W36
//  #09 //053   ----------------------------------------
 BYTE   W60
 BYTE   N24
 BYTE   W24
 BYTE   N96  Dn1
 BYTE   W12
//  #09 //054   ----------------------------------------
 BYTE   W84
 BYTE   N24
 BYTE   W12
//  #09 //055   ----------------------------------------
 BYTE   W96
//  #09 //056   ----------------------------------------
 BYTE   W96
//  #09 //057   ----------------------------------------
 BYTE   W96
//  #09 //058   ----------------------------------------
 BYTE   W96
//  #09 //059   ----------------------------------------
 BYTE   W96
//  #09 //060   ----------------------------------------
 BYTE   W96
//  #09 //061   ----------------------------------------
 BYTE   W96
//  #09 //062   ----------------------------------------
 BYTE   W96
//  #09 //063   ----------------------------------------
 BYTE   W96
//  #09 //064   ----------------------------------------
 BYTE   W96
//  #09 //065   ----------------------------------------
 BYTE   W12
 BYTE   N96  An1
 BYTE   W84
//  #09 //066   ----------------------------------------
 BYTE   W12
 BYTE   N24
 BYTE   W24
 BYTE   N60
 BYTE   N96  Bn1
 BYTE   W60
//  #09 //067   ----------------------------------------
 BYTE   W36
 BYTE   N24
 BYTE   W24
 BYTE   N96  Cs2
 BYTE   W36
//  #09 //068   ----------------------------------------
 BYTE   W60
 BYTE   N24
 BYTE   W24
 BYTE   N96  Cs1
 BYTE   W12
//  #09 //069   ----------------------------------------
 BYTE   W84
 BYTE   N24
 BYTE   W12
//  #09 //070   ----------------------------------------
 BYTE   W12
 BYTE   GoTo
  POIN2 Label_019848EE
//  #09 //071   ----------------------------------------
 BYTE   VOL   12*FateCruelVariant_mvl/mxv
 BYTE   PAN   c_v-5
 BYTE   W84
 BYTE   FINE

//**************** Track 10 (Midi-Chn.9) ****************//

FateCruelVariant_010:
//  #10 //000   ----------------------------------------
 BYTE   KEYSH   FateCruelVariant_key+0
Label_015DF3D6:
 BYTE   VOICE   30
 BYTE   PAN   c_v-19
 BYTE   VOL   19*FateCruelVariant_mvl/mxv
 BYTE   W96
//  #10 //001   ----------------------------------------
 BYTE   W96
//  #10 //002   ----------------------------------------
 BYTE   W96
//  #10 //003   ----------------------------------------
 BYTE   W96
//  #10 //004   ----------------------------------------
 BYTE   W96
//  #10 //005   ----------------------------------------
 BYTE   W96
//  #10 //006   ----------------------------------------
 BYTE   W96
//  #10 //007   ----------------------------------------
 BYTE   W96
//  #10 //008   ----------------------------------------
 BYTE   W96
//  #10 //009   ----------------------------------------
 BYTE   W96
//  #10 //010   ----------------------------------------
Label_015DF3E6:
 BYTE   W12
 BYTE   N12  Ds2  v120
 BYTE   N12  Gs2
 BYTE   W36
 BYTE   Ds2  v112
 BYTE   N12  Gs2
 BYTE   W36
 BYTE   Ds2  v116
 BYTE   N12  Gs2
 BYTE   W12
 BYTE   PEND 
//  #10 //011   ----------------------------------------
Label_015DF3F8:
 BYTE   W12
 BYTE   N12  Ds2  v120
 BYTE   N12  Gs2
 BYTE   W24
 BYTE   Ds2
 BYTE   N12  Gs2
 BYTE   W36
 BYTE   Ds2  v112
 BYTE   N12  Gs2
 BYTE   W24
 BYTE   PEND 
//  #10 //012   ----------------------------------------
Label_015DF409:
 BYTE   N12  Ds2  v116
 BYTE   N12  Gs2
 BYTE   W12
 BYTE   Ds2
 BYTE   N12  Gs2
 BYTE   W24
 BYTE   Ds2  v120
 BYTE   N12  Gs2
 BYTE   W24
 BYTE   En2
 BYTE   N12  Gs2
 BYTE   W36
 BYTE   PEND 
//  #10 //013   ----------------------------------------
Label_015DF41D:
 BYTE   N12  En2  v112
 BYTE   N12  Gs2
 BYTE   W36
 BYTE   En2  v116
 BYTE   N12  Gs2
 BYTE   W24
 BYTE   En2  v120
 BYTE   N12  Gs2
 BYTE   W24
 BYTE   En2
 BYTE   N12  Gs2
 BYTE   W12
 BYTE   PEND 
//  #10 //014   ----------------------------------------
Label_015DF432:
 BYTE   W24
 BYTE   N12  En2  v112
 BYTE   N12  Gs2
 BYTE   W24
 BYTE   En2  v116
 BYTE   N12  Gs2
 BYTE   W12
 BYTE   En2
 BYTE   N12  Gs2
 BYTE   W24
 BYTE   En2  v120
 BYTE   N12  Gs2
 BYTE   W12
 BYTE   PEND 
//  #10 //015   ----------------------------------------
 BYTE   PATT
  POIN2 Label_015DF3E6
//  #10 //016   ----------------------------------------
 BYTE   PATT
  POIN2 Label_015DF3F8
//  #10 //017   ----------------------------------------
 BYTE   PATT
  POIN2 Label_015DF409
//  #10 //018   ----------------------------------------
 BYTE   PATT
  POIN2 Label_015DF41D
//  #10 //019   ----------------------------------------
 BYTE   PATT
  POIN2 Label_015DF432
//  #10 //020   ----------------------------------------
 BYTE   W96
//  #10 //021   ----------------------------------------
 BYTE   W96
//  #10 //022   ----------------------------------------
 BYTE   W96
//  #10 //023   ----------------------------------------
 BYTE   W96
//  #10 //024   ----------------------------------------
 BYTE   W96
//  #10 //025   ----------------------------------------
 BYTE   W96
//  #10 //026   ----------------------------------------
 BYTE   W96
//  #10 //027   ----------------------------------------
 BYTE   W96
//  #10 //028   ----------------------------------------
 BYTE   W96
//  #10 //029   ----------------------------------------
 BYTE   W96
//  #10 //030   ----------------------------------------
 BYTE   W96
//  #10 //031   ----------------------------------------
 BYTE   W96
//  #10 //032   ----------------------------------------
 BYTE   W96
//  #10 //033   ----------------------------------------
 BYTE   W96
//  #10 //034   ----------------------------------------
 BYTE   W96
//  #10 //035   ----------------------------------------
 BYTE   W96
//  #10 //036   ----------------------------------------
 BYTE   W96
//  #10 //037   ----------------------------------------
 BYTE   W96
//  #10 //038   ----------------------------------------
 BYTE   W96
//  #10 //039   ----------------------------------------
 BYTE   W96
//  #10 //040   ----------------------------------------
Label_015DF475:
 BYTE   W12
 BYTE   N12  En2  v127
 BYTE   N12  Gs2
 BYTE   W12
 BYTE   En2  v120
 BYTE   W12
 BYTE   N12
 BYTE   W12
 BYTE   En2  v127
 BYTE   N12  Gs2
 BYTE   W12
 BYTE   En2  v120
 BYTE   W12
 BYTE   N12
 BYTE   W12
 BYTE   En2  v127
 BYTE   N12  Gs2
 BYTE   W12
 BYTE   PEND 
//  #10 //041   ----------------------------------------
Label_015DF491:
 BYTE   N12  En2  v120
 BYTE   W12
 BYTE   En2  v127
 BYTE   N12  Gs2
 BYTE   W12
 BYTE   En2  v120
 BYTE   W12
 BYTE   En2  v127
 BYTE   N12  Gs2
 BYTE   W12
 BYTE   En2  v120
 BYTE   W12
 BYTE   N12
 BYTE   W12
 BYTE   En2  v127
 BYTE   N12  Gs2
 BYTE   W12
 BYTE   En2  v120
 BYTE   W12
 BYTE   PEND 
//  #10 //042   ----------------------------------------
Label_015DF4B0:
 BYTE   N12  En2  v127
 BYTE   N12  Gs2
 BYTE   W12
 BYTE   En2
 BYTE   N12  Gs2
 BYTE   W12
 BYTE   En2  v120
 BYTE   W12
 BYTE   En2  v127
 BYTE   N12  Gs2
 BYTE   W12
 BYTE   En2  v120
 BYTE   W12
 BYTE   Fs2  v127
 BYTE   N12  An2
 BYTE   W12
 BYTE   Fs2  v120
 BYTE   W12
 BYTE   N12
 BYTE   W12
 BYTE   PEND 
//  #10 //043   ----------------------------------------
Label_015DF4D0:
 BYTE   N12  Fs2  v127
 BYTE   N12  An2
 BYTE   W12
 BYTE   Fs2  v120
 BYTE   W12
 BYTE   N12
 BYTE   W12
 BYTE   Fs2  v127
 BYTE   N12  An2
 BYTE   W12
 BYTE   Fs2  v120
 BYTE   W12
 BYTE   Fs2  v127
 BYTE   N12  An2
 BYTE   W12
 BYTE   Fs2  v120
 BYTE   W12
 BYTE   Ds2  v127
 BYTE   N12  Gs2
 BYTE   W12
 BYTE   PEND 
//  #10 //044   ----------------------------------------
Label_015DF4F1:
 BYTE   N12  Ds2  v120
 BYTE   W12
 BYTE   N12
 BYTE   W12
 BYTE   Ds2  v127
 BYTE   N12  Gs2
 BYTE   W12
 BYTE   Ds2  v120
 BYTE   W12
 BYTE   Ds2  v127
 BYTE   N12  Gs2
 BYTE   W12
 BYTE   Ds2
 BYTE   N12  Gs2
 BYTE   W12
 BYTE   Ds2  v120
 BYTE   W12
 BYTE   Ds2  v127
 BYTE   N12  Gs2
 BYTE   W12
 BYTE   PEND 
//  #10 //045   ----------------------------------------
Label_015DF511:
 BYTE   N12  Ds2  v120
 BYTE   W12
 BYTE   En2  v127
 BYTE   N12  Gs2
 BYTE   W12
 BYTE   En2  v120
 BYTE   W12
 BYTE   N12
 BYTE   W12
 BYTE   En2  v127
 BYTE   N12  Gs2
 BYTE   W12
 BYTE   En2  v120
 BYTE   W12
 BYTE   N12
 BYTE   W12
 BYTE   En2  v127
 BYTE   N12  Gs2
 BYTE   W12
 BYTE   PEND 
//  #10 //046   ----------------------------------------
Label_015DF52F:
 BYTE   N12  En2  v120
 BYTE   W12
 BYTE   En2  v127
 BYTE   N12  Gs2
 BYTE   W12
 BYTE   En2  v120
 BYTE   W12
 BYTE   En2  v127
 BYTE   N12  An2
 BYTE   W12
 BYTE   En2  v120
 BYTE   W12
 BYTE   N12
 BYTE   W12
 BYTE   En2  v127
 BYTE   N12  An2
 BYTE   W12
 BYTE   En2  v120
 BYTE   W12
 BYTE   PEND 
//  #10 //047   ----------------------------------------
Label_015DF54E:
 BYTE   N12  En2  v127
 BYTE   N12  An2
 BYTE   W12
 BYTE   En2
 BYTE   N12  An2
 BYTE   W12
 BYTE   En2  v120
 BYTE   W12
 BYTE   En2  v127
 BYTE   N12  An2
 BYTE   W12
 BYTE   En2  v120
 BYTE   W12
 BYTE   Fs2  v127
 BYTE   N12  An2
 BYTE   W12
 BYTE   Fs2  v120
 BYTE   W12
 BYTE   N12
 BYTE   W12
 BYTE   PEND 
//  #10 //048   ----------------------------------------
 BYTE   PATT
  POIN2 Label_015DF4D0
//  #10 //049   ----------------------------------------
 BYTE   PATT
  POIN2 Label_015DF4F1
//  #10 //050   ----------------------------------------
 BYTE   N12  Ds2  v120
 BYTE   W96
//  #10 //051   ----------------------------------------
 BYTE   W96
//  #10 //052   ----------------------------------------
 BYTE   W96
//  #10 //053   ----------------------------------------
 BYTE   W96
//  #10 //054   ----------------------------------------
 BYTE   W96
//  #10 //055   ----------------------------------------
 BYTE   PATT
  POIN2 Label_015DF475
//  #10 //056   ----------------------------------------
 BYTE   PATT
  POIN2 Label_015DF491
//  #10 //057   ----------------------------------------
 BYTE   PATT
  POIN2 Label_015DF4B0
//  #10 //058   ----------------------------------------
 BYTE   PATT
  POIN2 Label_015DF4D0
//  #10 //059   ----------------------------------------
 BYTE   PATT
  POIN2 Label_015DF4F1
//  #10 //060   ----------------------------------------
 BYTE   PATT
  POIN2 Label_015DF511
//  #10 //061   ----------------------------------------
 BYTE   PATT
  POIN2 Label_015DF52F
//  #10 //062   ----------------------------------------
 BYTE   PATT
  POIN2 Label_015DF54E
//  #10 //063   ----------------------------------------
 BYTE   PATT
  POIN2 Label_015DF4D0
//  #10 //064   ----------------------------------------
 BYTE   PATT
  POIN2 Label_015DF4F1
//  #10 //065   ----------------------------------------
 BYTE   N12  Ds2  v120
 BYTE   W96
//  #10 //066   ----------------------------------------
 BYTE   W96
//  #10 //067   ----------------------------------------
 BYTE   W96
//  #10 //068   ----------------------------------------
 BYTE   W96
//  #10 //069   ----------------------------------------
 BYTE   W96
//  #10 //070   ----------------------------------------
 BYTE   W12
 BYTE   GoTo
  POIN2 Label_015DF3D6
//  #10 //071   ----------------------------------------
 BYTE   W84
 BYTE   FINE

//**************** Track 11 (Midi-Chn.10) ****************//

FateCruelVariant_011:
//  #11 //000   ----------------------------------------
 BYTE   KEYSH   FateCruelVariant_key+0
Label_015DF5D6:
 BYTE   VOICE   47
 BYTE   PAN   c_v-8
 BYTE   VOL   25*FateCruelVariant_mvl/mxv
 BYTE   N04  Gs1  v120
 BYTE   W04
 BYTE   N04
 BYTE   W04
 BYTE   N04
 BYTE   W04
 BYTE   N12  Cs2  v127
 BYTE   W36
 BYTE   N36  Cs2  v120
 BYTE   W36
 BYTE   N12  Gs1
 BYTE   W12
//  #11 //001   ----------------------------------------
Label_015DF5EF:
 BYTE   W12
 BYTE   N12  Cs2  v120
 BYTE   W24
 BYTE   N36  Bn1
 BYTE   W36
 BYTE   N12
 BYTE   W24
 BYTE   PEND 
//  #11 //002   ----------------------------------------
Label_015DF5FA:
 BYTE   N12  Fs1  v120
 BYTE   W12
 BYTE   N24  Bn1
 BYTE   W24
 BYTE   N12
 BYTE   W24
 BYTE   N36  An1
 BYTE   W36
 BYTE   PEND 
//  #11 //003   ----------------------------------------
Label_015DF607:
 BYTE   N12  An1  v120
 BYTE   W24
 BYTE   N06  En1
 BYTE   W06
 BYTE   N06
 BYTE   W06
 BYTE   N12  An1
 BYTE   W24
 BYTE   N12
 BYTE   W24
 BYTE   Bn1
 BYTE   W12
 BYTE   PEND 
//  #11 //004   ----------------------------------------
Label_015DF618:
 BYTE   W24
 BYTE   N12  Bn1  v120
 BYTE   W36
 BYTE   N24  Fs1
 BYTE   W24
 BYTE   N12  Bn1
 BYTE   W12
 BYTE   PEND 
//  #11 //005   ----------------------------------------
Label_015DF624:
 BYTE   N04  Bn1  v127
 BYTE   W04
 BYTE   Bn1  v112
 BYTE   W04
 BYTE   Bn1  v120
 BYTE   W04
 BYTE   N12  Cs2
 BYTE   W36
 BYTE   N12
 BYTE   W36
 BYTE   Gs1
 BYTE   W12
 BYTE   PEND 
//  #11 //006   ----------------------------------------
 BYTE   PATT
  POIN2 Label_015DF5EF
//  #11 //007   ----------------------------------------
 BYTE   PATT
  POIN2 Label_015DF5FA
//  #11 //008   ----------------------------------------
 BYTE   PATT
  POIN2 Label_015DF607
//  #11 //009   ----------------------------------------
 BYTE   PATT
  POIN2 Label_015DF618
//  #11 //010   ----------------------------------------
Label_015DF64A:
 BYTE   N04  Bn1  v127
 BYTE   W04
 BYTE   Bn1  v112
 BYTE   W04
 BYTE   Bn1  v120
 BYTE   W04
 BYTE   N12  An1
 BYTE   W36
 BYTE   N12
 BYTE   W36
 BYTE   En1
 BYTE   W12
 BYTE   PEND 
//  #11 //011   ----------------------------------------
Label_015DF65C:
 BYTE   W12
 BYTE   N12  An1  v120
 BYTE   W24
 BYTE   N36  Bn1
 BYTE   W36
 BYTE   N12
 BYTE   W24
 BYTE   PEND 
//  #11 //012   ----------------------------------------
Label_015DF667:
 BYTE   N12  Fs1  v120
 BYTE   W12
 BYTE   N24  Bn1
 BYTE   W24
 BYTE   N12
 BYTE   W24
 BYTE   N36  Cs2
 BYTE   W36
 BYTE   PEND 
//  #11 //013   ----------------------------------------
Label_015DF674:
 BYTE   N12  Cs2  v120
 BYTE   W24
 BYTE   N06  Gs1
 BYTE   W06
 BYTE   N06
 BYTE   W06
 BYTE   N12  Cs2
 BYTE   W24
 BYTE   N12
 BYTE   W24
 BYTE   N12
 BYTE   W12
 BYTE   PEND 
//  #11 //014   ----------------------------------------
Label_015DF685:
 BYTE   W24
 BYTE   N12  Cs2  v120
 BYTE   W36
 BYTE   N12
 BYTE   W24
 BYTE   Bn1
 BYTE   W12
 BYTE   PEND 
//  #11 //015   ----------------------------------------
 BYTE   PATT
  POIN2 Label_015DF64A
//  #11 //016   ----------------------------------------
 BYTE   PATT
  POIN2 Label_015DF65C
//  #11 //017   ----------------------------------------
 BYTE   PATT
  POIN2 Label_015DF667
//  #11 //018   ----------------------------------------
 BYTE   PATT
  POIN2 Label_015DF674
//  #11 //019   ----------------------------------------
Label_015DF6A3:
 BYTE   W24
 BYTE   N12  Cs2  v120
 BYTE   W36
 BYTE   N24  Gs1
 BYTE   W24
 BYTE   N12  Cs2
 BYTE   W12
 BYTE   PEND 
//  #11 //020   ----------------------------------------
Label_015DF6AF:
 BYTE   N04  Cs2  v127
 BYTE   W04
 BYTE   Gs1  v112
 BYTE   W04
 BYTE   Gs1  v120
 BYTE   W04
 BYTE   N12  Cs2
 BYTE   W36
 BYTE   N12
 BYTE   W36
 BYTE   Gs1
 BYTE   W12
 BYTE   PEND 
//  #11 //021   ----------------------------------------
 BYTE   PATT
  POIN2 Label_015DF5EF
//  #11 //022   ----------------------------------------
 BYTE   PATT
  POIN2 Label_015DF5FA
//  #11 //023   ----------------------------------------
 BYTE   PATT
  POIN2 Label_015DF607
//  #11 //024   ----------------------------------------
 BYTE   PATT
  POIN2 Label_015DF618
//  #11 //025   ----------------------------------------
 BYTE   PATT
  POIN2 Label_015DF624
//  #11 //026   ----------------------------------------
 BYTE   PATT
  POIN2 Label_015DF5EF
//  #11 //027   ----------------------------------------
 BYTE   PATT
  POIN2 Label_015DF5FA
//  #11 //028   ----------------------------------------
 BYTE   PATT
  POIN2 Label_015DF607
//  #11 //029   ----------------------------------------
 BYTE   PATT
  POIN2 Label_015DF618
//  #11 //030   ----------------------------------------
 BYTE   PATT
  POIN2 Label_015DF64A
//  #11 //031   ----------------------------------------
 BYTE   PATT
  POIN2 Label_015DF65C
//  #11 //032   ----------------------------------------
 BYTE   PATT
  POIN2 Label_015DF667
//  #11 //033   ----------------------------------------
 BYTE   PATT
  POIN2 Label_015DF674
//  #11 //034   ----------------------------------------
 BYTE   PATT
  POIN2 Label_015DF685
//  #11 //035   ----------------------------------------
 BYTE   PATT
  POIN2 Label_015DF64A
//  #11 //036   ----------------------------------------
 BYTE   PATT
  POIN2 Label_015DF65C
//  #11 //037   ----------------------------------------
 BYTE   PATT
  POIN2 Label_015DF667
//  #11 //038   ----------------------------------------
 BYTE   PATT
  POIN2 Label_015DF674
//  #11 //039   ----------------------------------------
 BYTE   PATT
  POIN2 Label_015DF6A3
//  #11 //040   ----------------------------------------
 BYTE   PATT
  POIN2 Label_015DF6AF
//  #11 //041   ----------------------------------------
Label_015DF725:
 BYTE   W12
 BYTE   N12  Cs2  v120
 BYTE   W24
 BYTE   N36  An1
 BYTE   W36
 BYTE   N12
 BYTE   W24
 BYTE   PEND 
//  #11 //042   ----------------------------------------
Label_015DF730:
 BYTE   N12  En1  v120
 BYTE   W12
 BYTE   N24  An1
 BYTE   W24
 BYTE   N12
 BYTE   W24
 BYTE   N36  Fs1
 BYTE   W36
 BYTE   PEND 
//  #11 //043   ----------------------------------------
Label_015DF73D:
 BYTE   N12  Fs1  v120
 BYTE   W36
 BYTE   N24  Cs2
 BYTE   W24
 BYTE   Fs1
 BYTE   W24
 BYTE   N12  Gs1
 BYTE   W12
 BYTE   PEND 
//  #11 //044   ----------------------------------------
Label_015DF74A:
 BYTE   W24
 BYTE   N12  Gs1  v120
 BYTE   W24
 BYTE   Ds1
 BYTE   W12
 BYTE   N24  Gs1
 BYTE   W24
 BYTE   N12
 BYTE   W12
 BYTE   PEND 
//  #11 //045   ----------------------------------------
Label_015DF757:
 BYTE   W12
 BYTE   N12  Cs2  v120
 BYTE   W36
 BYTE   N12
 BYTE   W36
 BYTE   Gs1
 BYTE   W12
 BYTE   PEND 
//  #11 //046   ----------------------------------------
 BYTE   PATT
  POIN2 Label_015DF725
//  #11 //047   ----------------------------------------
 BYTE   PATT
  POIN2 Label_015DF730
//  #11 //048   ----------------------------------------
 BYTE   PATT
  POIN2 Label_015DF73D
//  #11 //049   ----------------------------------------
 BYTE   PATT
  POIN2 Label_015DF74A
//  #11 //050   ----------------------------------------
Label_015DF775:
 BYTE   W12
 BYTE   N12  An1  v120
 BYTE   W36
 BYTE   N12
 BYTE   W36
 BYTE   En1
 BYTE   W12
 BYTE   PEND 
//  #11 //051   ----------------------------------------
 BYTE   W12
 BYTE   N24  An1
 BYTE   W24
 BYTE   N36  Dn2
 BYTE   W36
 BYTE   N12
 BYTE   W24
//  #11 //052   ----------------------------------------
 BYTE   An1
 BYTE   W12
 BYTE   N24  Dn2
 BYTE   W24
 BYTE   N12
 BYTE   W24
 BYTE   N36  An1
 BYTE   W36
//  #11 //053   ----------------------------------------
 BYTE   N12
 BYTE   W36
 BYTE   N24  En1
 BYTE   W24
 BYTE   An1
 BYTE   W24
 BYTE   N12  Dn2
 BYTE   W12
//  #11 //054   ----------------------------------------
 BYTE   W24
 BYTE   N12
 BYTE   W24
 BYTE   An1
 BYTE   W12
 BYTE   N24  Dn2
 BYTE   W24
 BYTE   N12
 BYTE   W12
//  #11 //055   ----------------------------------------
 BYTE   PATT
  POIN2 Label_015DF757
//  #11 //056   ----------------------------------------
 BYTE   PATT
  POIN2 Label_015DF725
//  #11 //057   ----------------------------------------
 BYTE   PATT
  POIN2 Label_015DF730
//  #11 //058   ----------------------------------------
 BYTE   PATT
  POIN2 Label_015DF73D
//  #11 //059   ----------------------------------------
 BYTE   PATT
  POIN2 Label_015DF74A
//  #11 //060   ----------------------------------------
 BYTE   PATT
  POIN2 Label_015DF757
//  #11 //061   ----------------------------------------
 BYTE   PATT
  POIN2 Label_015DF725
//  #11 //062   ----------------------------------------
 BYTE   PATT
  POIN2 Label_015DF730
//  #11 //063   ----------------------------------------
 BYTE   PATT
  POIN2 Label_015DF73D
//  #11 //064   ----------------------------------------
 BYTE   PATT
  POIN2 Label_015DF74A
//  #11 //065   ----------------------------------------
 BYTE   PATT
  POIN2 Label_015DF775
//  #11 //066   ----------------------------------------
 BYTE   PATT
  POIN2 Label_015DF65C
//  #11 //067   ----------------------------------------
 BYTE   PATT
  POIN2 Label_015DF667
//  #11 //068   ----------------------------------------
 BYTE   N12  Cs2  v120
 BYTE   W36
 BYTE   N24  Gs1
 BYTE   W24
 BYTE   Cs2
 BYTE   W24
 BYTE   N12
 BYTE   W12
//  #11 //069   ----------------------------------------
 BYTE   W24
 BYTE   N12
 BYTE   W24
 BYTE   Gs1
 BYTE   W12
 BYTE   N24  Cs2
 BYTE   W24
 BYTE   N12
 BYTE   W12
//  #11 //070   ----------------------------------------
 BYTE   W12
 BYTE   GoTo
  POIN2 Label_015DF5D6
//  #11 //071   ----------------------------------------
 BYTE   VOICE   47
 BYTE   W84
 BYTE   FINE

//**************** Track 12 (Midi-Chn.11) ****************//

FateCruelVariant_012:
//  #12 //000   ----------------------------------------
 BYTE   KEYSH   FateCruelVariant_key+0
Label_015DF81A:
 BYTE   VOICE   53
 BYTE   PAN   c_v+40
 BYTE   VOL   11*FateCruelVariant_mvl/mxv
 BYTE   BEND   c_v+1
 BYTE   W96
//  #12 //001   ----------------------------------------
 BYTE   W96
//  #12 //002   ----------------------------------------
 BYTE   W96
//  #12 //003   ----------------------------------------
 BYTE   W96
//  #12 //004   ----------------------------------------
 BYTE   W96
//  #12 //005   ----------------------------------------
 BYTE   W96
//  #12 //006   ----------------------------------------
 BYTE   W96
//  #12 //007   ----------------------------------------
 BYTE   W96
//  #12 //008   ----------------------------------------
 BYTE   W96
//  #12 //009   ----------------------------------------
 BYTE   W92
 BYTE   W01
 BYTE   N04  En3  v127
 BYTE   W03
//  #12 //010   ----------------------------------------
 BYTE   W01
 BYTE   Fs3  v112
 BYTE   W04
 BYTE   Gs3
 BYTE   W04
 BYTE   An3  v116
 BYTE   W04
 BYTE   Bn3  v120
 BYTE   W04
 BYTE   Cs4  v127
 BYTE   W04
 BYTE   N36  Ds4  v112
 BYTE   W36
 BYTE   N42  Gs3
 BYTE   W36
 BYTE   W03
//  #12 //011   ----------------------------------------
 BYTE   W09
 BYTE   N24  Ds4
 BYTE   W24
 BYTE   N12  En4
 BYTE   W12
 BYTE   Fs4
 BYTE   W12
 BYTE   En4
 BYTE   W12
 BYTE   N48  Ds4
 BYTE   W24
 BYTE   W03
//  #12 //012   ----------------------------------------
 BYTE   W32
 BYTE   W01
 BYTE   N24
 BYTE   W24
 BYTE   N12  En4
 BYTE   W12
 BYTE   N36  Ds4
 BYTE   W24
 BYTE   W03
//  #12 //013   ----------------------------------------
 BYTE   W09
 BYTE   N60  Cs4
 BYTE   W60
 BYTE   N24  Gs4
 BYTE   W24
 BYTE   N36  Fs4
 BYTE   W03
//  #12 //014   ----------------------------------------
 BYTE   W32
 BYTE   W01
 BYTE   N54  En4
 BYTE   W60
 BYTE   N24  Gs3  v108
 BYTE   N12  Ds4  v112
 BYTE   W03
//  #12 //015   ----------------------------------------
 BYTE   W09
 BYTE   En4
 BYTE   W12
 BYTE   N36  Gs3  v108
 BYTE   N36  Ds4  v112
 BYTE   W36
 BYTE   N42  Cs3  v108
 BYTE   N42  Gs3  v112
 BYTE   W36
 BYTE   W03
//  #12 //016   ----------------------------------------
 BYTE   W09
 BYTE   N24  Gs3  v108
 BYTE   N24  Ds4  v112
 BYTE   W24
 BYTE   N12  Gs3  v108
 BYTE   N12  En4  v112
 BYTE   W12
 BYTE   Ds4  v108
 BYTE   N12  Fs4  v112
 BYTE   W12
 BYTE   Gs3  v108
 BYTE   N12  En4  v112
 BYTE   W12
 BYTE   N48  Gs3  v108
 BYTE   N48  Ds4  v112
 BYTE   W24
 BYTE   W03
//  #12 //017   ----------------------------------------
 BYTE   W32
 BYTE   W01
 BYTE   N24  Gs3  v108
 BYTE   N24  Ds4  v112
 BYTE   W24
 BYTE   N12  Gs3  v108
 BYTE   N12  En4  v112
 BYTE   W12
 BYTE   N36  Gs3  v108
 BYTE   N36  Ds4  v112
 BYTE   W24
 BYTE   W03
//  #12 //018   ----------------------------------------
 BYTE   W09
 BYTE   N24  Gs3  v108
 BYTE   N24  Cs4  v112
 BYTE   W24
 BYTE   N12  Gs3  v108
 BYTE   N12  Ds4  v112
 BYTE   W12
 BYTE   N96  Cs4  v108
 BYTE   N96  En4  v112
 BYTE   W48
 BYTE   W03
//  #12 //019   ----------------------------------------
 BYTE   W44
 BYTE   W01
 BYTE   N36  Cs4  v108
 BYTE   N36  En4  v112
 BYTE   W36
 BYTE   N15  Cs4  v076
 BYTE   W15
//  #12 //020   ----------------------------------------
 BYTE   W96
//  #12 //021   ----------------------------------------
 BYTE   W96
//  #12 //022   ----------------------------------------
 BYTE   W96
//  #12 //023   ----------------------------------------
 BYTE   W96
//  #12 //024   ----------------------------------------
 BYTE   W96
//  #12 //025   ----------------------------------------
 BYTE   W96
//  #12 //026   ----------------------------------------
 BYTE   W96
//  #12 //027   ----------------------------------------
 BYTE   W96
//  #12 //028   ----------------------------------------
 BYTE   W96
//  #12 //029   ----------------------------------------
 BYTE   W92
 BYTE   W01
 BYTE   N03  En3  v127
 BYTE   W03
//  #12 //030   ----------------------------------------
 BYTE   W01
 BYTE   N04  Fs3  v116
 BYTE   W04
 BYTE   Gs3
 BYTE   W04
 BYTE   An3  v120
 BYTE   W04
 BYTE   Bn3  v127
 BYTE   W04
 BYTE   Cs4
 BYTE   W04
 BYTE   N12  Ds4
 BYTE   W24
 BYTE   N36
 BYTE   W36
 BYTE   N09  En4
 BYTE   W12
 BYTE   N12  Ds4
 BYTE   W03
//  #12 //031   ----------------------------------------
Label_015DF912:
 BYTE   W09
 BYTE   N09  Cs4  v127
 BYTE   W12
 BYTE   N12  Ds4
 BYTE   W12
 BYTE   En4
 BYTE   W12
 BYTE   N24  Fs4
 BYTE   W24
 BYTE   N36  Ds4
 BYTE   W24
 BYTE   W03
 BYTE   PEND 
//  #12 //032   ----------------------------------------
 BYTE   W09
 BYTE   N09  En4
 BYTE   W12
 BYTE   N12  Ds4
 BYTE   W12
 BYTE   N09  Cs4
 BYTE   W12
 BYTE   N12  Ds4
 BYTE   W12
 BYTE   En4
 BYTE   W12
 BYTE   N54  Ds4
 BYTE   W24
 BYTE   W03
//  #12 //033   ----------------------------------------
 BYTE   W32
 BYTE   W01
 BYTE   N06  En4
 BYTE   W06
 BYTE   Fs4
 BYTE   W06
 BYTE   N12  Gs4
 BYTE   W12
 BYTE   N06  Fs4
 BYTE   W06
 BYTE   En4
 BYTE   W06
 BYTE   N24  Ds4
 BYTE   W24
 BYTE   N12  Cs4
 BYTE   W03
//  #12 //034   ----------------------------------------
 BYTE   W15
 BYTE   N06  Gs4
 BYTE   W06
 BYTE   N84
 BYTE   W72
 BYTE   W03
//  #12 //035   ----------------------------------------
 BYTE   W21
 BYTE   N12  Ds4
 BYTE   W24
 BYTE   N36
 BYTE   W36
 BYTE   N09  En4
 BYTE   W12
 BYTE   N24  Ds4
 BYTE   W03
//  #12 //036   ----------------------------------------
 BYTE   PATT
  POIN2 Label_015DF912
//  #12 //037   ----------------------------------------
 BYTE   W09
 BYTE   N09  En4  v127
 BYTE   W12
 BYTE   N12  Ds4
 BYTE   W12
 BYTE   N09  Cs4
 BYTE   W12
 BYTE   N12  Ds4
 BYTE   W12
 BYTE   En4
 BYTE   W12
 BYTE   N24  Ds4
 BYTE   W24
 BYTE   N03
 BYTE   W03
//  #12 //038   ----------------------------------------
 BYTE   W32
 BYTE   W01
 BYTE   N06  En4
 BYTE   W06
 BYTE   Ds4
 BYTE   W06
 BYTE   N12  Cs4
 BYTE   W12
 BYTE   N06  Ds4
 BYTE   W06
 BYTE   En4
 BYTE   W06
 BYTE   N12  Fs4
 BYTE   W12
 BYTE   N06  Gs4
 BYTE   W12
 BYTE   N12  Ds4
 BYTE   W03
//  #12 //039   ----------------------------------------
 BYTE   W15
 BYTE   N06  Cs4
 BYTE   W06
 BYTE   N84  Gs3
 BYTE   W72
 BYTE   W03
//  #12 //040   ----------------------------------------
 BYTE   W96
//  #12 //041   ----------------------------------------
 BYTE   W96
//  #12 //042   ----------------------------------------
 BYTE   W96
//  #12 //043   ----------------------------------------
 BYTE   W96
//  #12 //044   ----------------------------------------
 BYTE   W96
//  #12 //045   ----------------------------------------
 BYTE   W96
//  #12 //046   ----------------------------------------
 BYTE   W96
//  #12 //047   ----------------------------------------
 BYTE   W96
//  #12 //048   ----------------------------------------
 BYTE   W96
//  #12 //049   ----------------------------------------
 BYTE   W92
 BYTE   W01
 BYTE   N04  Ds3  v116
 BYTE   W03
//  #12 //050   ----------------------------------------
 BYTE   W01
 BYTE   En3
 BYTE   W04
 BYTE   Fs3
 BYTE   W04
 BYTE   Gs3  v120
 BYTE   W04
 BYTE   An3
 BYTE   W04
 BYTE   Bn3
 BYTE   W04
 BYTE   N36  Cs4
 BYTE   W36
 BYTE   N84  Gs4
 BYTE   W36
 BYTE   W03
//  #12 //051   ----------------------------------------
 BYTE   W44
 BYTE   W01
 BYTE   N36  Fs4
 BYTE   W36
 BYTE   N84  Cs5
 BYTE   W15
//  #12 //052   ----------------------------------------
 BYTE   W68
 BYTE   W01
 BYTE   N36  An3
 BYTE   N36  Cs4
 BYTE   W24
 BYTE   W03
//  #12 //053   ----------------------------------------
 BYTE   W09
 BYTE   N84
 BYTE   N84  Gs4
 BYTE   W84
 BYTE   N36  Cs4
 BYTE   N36  Fs4
 BYTE   W03
//  #12 //054   ----------------------------------------
 BYTE   W32
 BYTE   W01
 BYTE   N36
 BYTE   N36  Cs5
 BYTE   W36
 BYTE   N48  Fs4
 BYTE   N48  Bn4
 BYTE   W24
 BYTE   W03
//  #12 //055   ----------------------------------------
 BYTE   W96
//  #12 //056   ----------------------------------------
 BYTE   W96
//  #12 //057   ----------------------------------------
 BYTE   W96
//  #12 //058   ----------------------------------------
 BYTE   W96
//  #12 //059   ----------------------------------------
 BYTE   W96
//  #12 //060   ----------------------------------------
 BYTE   W96
//  #12 //061   ----------------------------------------
 BYTE   W96
//  #12 //062   ----------------------------------------
 BYTE   W96
//  #12 //063   ----------------------------------------
 BYTE   W96
//  #12 //064   ----------------------------------------
 BYTE   W96
//  #12 //065   ----------------------------------------
 BYTE   W96
//  #12 //066   ----------------------------------------
 BYTE   W96
//  #12 //067   ----------------------------------------
 BYTE   W96
//  #12 //068   ----------------------------------------
 BYTE   W96
//  #12 //069   ----------------------------------------
 BYTE   W96
//  #12 //070   ----------------------------------------
 BYTE   W12
 BYTE   GoTo
  POIN2 Label_015DF81A
//  #12 //071   ----------------------------------------
 BYTE   BEND   c_v+1
 BYTE   W84
 BYTE   FINE

//**************** Track 13 (Midi-Chn.12) ****************//

FateCruelVariant_013:
//  #13 //000   ----------------------------------------
 BYTE   KEYSH   FateCruelVariant_key+0
Label_015DFA0E:
 BYTE   VOICE   124
 BYTE   PAN   c_v-20
 BYTE   VOL   29*FateCruelVariant_mvl/mxv
 BYTE   W12
 BYTE   N12  Dn1  v112
 BYTE   W12
 BYTE   N06  Dn1  v080
 BYTE   W06
 BYTE   Dn1  v092
 BYTE   W06
 BYTE   N12  Dn1  v100
 BYTE   W12
 BYTE   Dn1  v112
 BYTE   W12
 BYTE   N06  Dn1  v080
 BYTE   W06
 BYTE   Dn1  v092
 BYTE   W06
 BYTE   N12  Dn1  v100
 BYTE   W12
 BYTE   Dn1  v112
 BYTE   W12
//  #13 //001   ----------------------------------------
Label_015DFA35:
 BYTE   N06  Dn1  v092
 BYTE   W06
 BYTE   Dn1  v100
 BYTE   W06
 BYTE   Dn1  v112
 BYTE   W06
 BYTE   N03  Dn1  v080
 BYTE   W03
 BYTE   N03
 BYTE   W03
 BYTE   N06  Dn1  v092
 BYTE   W06
 BYTE   Dn1  v100
 BYTE   W06
 BYTE   N12  Dn1  v112
 BYTE   W12
 BYTE   N06  Dn1  v080
 BYTE   W06
 BYTE   Dn1  v092
 BYTE   W06
 BYTE   N12  Dn1  v100
 BYTE   W12
 BYTE   Dn1  v112
 BYTE   W12
 BYTE   N06  Dn1  v080
 BYTE   W06
 BYTE   Dn1  v092
 BYTE   W06
 BYTE   PEND 
//  #13 //002   ----------------------------------------
Label_015DFA66:
 BYTE   N12  Dn1  v100
 BYTE   W12
 BYTE   Dn1  v112
 BYTE   W12
 BYTE   N06  Dn1  v092
 BYTE   W06
 BYTE   Dn1  v096
 BYTE   W06
 BYTE   Dn1  v100
 BYTE   W06
 BYTE   N03
 BYTE   W03
 BYTE   N03
 BYTE   W03
 BYTE   N06  Dn1  v108
 BYTE   W06
 BYTE   Dn1  v112
 BYTE   W06
 BYTE   N12
 BYTE   W12
 BYTE   N06  Dn1  v080
 BYTE   W06
 BYTE   Dn1  v092
 BYTE   W06
 BYTE   N12  Dn1  v100
 BYTE   W12
 BYTE   PEND 
//  #13 //003   ----------------------------------------
Label_015DFA90:
 BYTE   N12  Dn1  v112
 BYTE   W12
 BYTE   N06  Dn1  v080
 BYTE   W06
 BYTE   Dn1  v092
 BYTE   W06
 BYTE   N12  Dn1  v100
 BYTE   W12
 BYTE   Dn1  v112
 BYTE   W12
 BYTE   N06  Dn1  v092
 BYTE   W06
 BYTE   Dn1  v100
 BYTE   W06
 BYTE   Dn1  v112
 BYTE   W06
 BYTE   N03  Dn1  v080
 BYTE   W03
 BYTE   N03
 BYTE   W03
 BYTE   N06  Dn1  v092
 BYTE   W06
 BYTE   Dn1  v100
 BYTE   W06
 BYTE   N12  Dn1  v112
 BYTE   W12
 BYTE   PEND 
//  #13 //004   ----------------------------------------
Label_015DFABE:
 BYTE   N06  Dn1  v080
 BYTE   W06
 BYTE   Dn1  v092
 BYTE   W06
 BYTE   N12  Dn1  v100
 BYTE   W12
 BYTE   Dn1  v112
 BYTE   W12
 BYTE   N06  Dn1  v080
 BYTE   W06
 BYTE   Dn1  v092
 BYTE   W06
 BYTE   N12  Dn1  v100
 BYTE   W12
 BYTE   Dn1  v112
 BYTE   W12
 BYTE   N06  Dn1  v092
 BYTE   W06
 BYTE   Dn1  v096
 BYTE   W06
 BYTE   Dn1  v100
 BYTE   W06
 BYTE   N03
 BYTE   W03
 BYTE   N03
 BYTE   W03
 BYTE   PEND 
//  #13 //005   ----------------------------------------
Label_015DFAE9:
 BYTE   N06  Dn1  v108
 BYTE   W06
 BYTE   Dn1  v112
 BYTE   W06
 BYTE   N12
 BYTE   W12
 BYTE   N06  Dn1  v080
 BYTE   W06
 BYTE   Dn1  v092
 BYTE   W06
 BYTE   N12  Dn1  v100
 BYTE   W12
 BYTE   Dn1  v112
 BYTE   W12
 BYTE   N06  Dn1  v080
 BYTE   W06
 BYTE   Dn1  v092
 BYTE   W06
 BYTE   N12  Dn1  v100
 BYTE   W12
 BYTE   Dn1  v112
 BYTE   W12
 BYTE   PEND 
//  #13 //006   ----------------------------------------
 BYTE   PATT
  POIN2 Label_015DFA35
//  #13 //007   ----------------------------------------
 BYTE   PATT
  POIN2 Label_015DFA66
//  #13 //008   ----------------------------------------
Label_015DFB19:
 BYTE   N12  Dn1  v112
 BYTE   W12
 BYTE   N06  Dn1  v080
 BYTE   W06
 BYTE   Dn1  v092
 BYTE   W06
 BYTE   N12  Dn1  v100
 BYTE   W12
 BYTE   Dn1  v112
 BYTE   W12
 BYTE   N06  Dn1  v092
 BYTE   W06
 BYTE   Dn1  v100
 BYTE   W06
 BYTE   Dn1  v112
 BYTE   N96  En2  v127
 BYTE   W06
 BYTE   N03  Dn1  v080
 BYTE   W03
 BYTE   N03
 BYTE   W03
 BYTE   N06  Dn1  v092
 BYTE   W06
 BYTE   Dn1  v100
 BYTE   W06
 BYTE   N12  Dn1  v112
 BYTE   W12
 BYTE   PEND 
//  #13 //009   ----------------------------------------
Label_015DFB4A:
 BYTE   N06  Dn1  v080
 BYTE   W06
 BYTE   Dn1  v092
 BYTE   W06
 BYTE   N12  Dn1  v100
 BYTE   W12
 BYTE   Dn1  v112
 BYTE   W12
 BYTE   N06  Dn1  v080
 BYTE   W06
 BYTE   Dn1  v092
 BYTE   W06
 BYTE   N12  Dn1  v100
 BYTE   W12
 BYTE   Dn1  v112
 BYTE   N96  En2  v127
 BYTE   W12
 BYTE   N06  Dn1  v092
 BYTE   W06
 BYTE   Dn1  v096
 BYTE   W06
 BYTE   Dn1  v100
 BYTE   W06
 BYTE   N03
 BYTE   W03
 BYTE   N03
 BYTE   W03
 BYTE   PEND 
//  #13 //010   ----------------------------------------
Label_015DFB78:
 BYTE   N06  Dn1  v108
 BYTE   W06
 BYTE   Dn1  v112
 BYTE   W06
 BYTE   N12
 BYTE   N72  Cs2  v127
 BYTE   W12
 BYTE   N06  Dn1  v080
 BYTE   W06
 BYTE   Dn1  v092
 BYTE   W06
 BYTE   N12  Dn1  v100
 BYTE   W12
 BYTE   Dn1  v112
 BYTE   W12
 BYTE   N06  Dn1  v080
 BYTE   N24  En2  v127
 BYTE   W06
 BYTE   N06  Dn1  v092
 BYTE   W06
 BYTE   N12  Dn1  v100
 BYTE   W12
 BYTE   Dn1  v112
 BYTE   N12  En2  v100
 BYTE   W12
 BYTE   PEND 
//  #13 //011   ----------------------------------------
Label_015DFBA8:
 BYTE   N06  Dn1  v092
 BYTE   W06
 BYTE   Dn1  v100
 BYTE   W06
 BYTE   Dn1  v112
 BYTE   W06
 BYTE   N03  Dn1  v080
 BYTE   W03
 BYTE   N03
 BYTE   W03
 BYTE   N06  Dn1  v092
 BYTE   W06
 BYTE   Dn1  v100
 BYTE   W06
 BYTE   N12  Dn1  v112
 BYTE   N12  Cs2  v100
 BYTE   W12
 BYTE   N06  Dn1  v080
 BYTE   W06
 BYTE   Dn1  v092
 BYTE   W06
 BYTE   N12  Dn1  v100
 BYTE   W12
 BYTE   Dn1  v112
 BYTE   W12
 BYTE   N06  Dn1  v080
 BYTE   W06
 BYTE   Dn1  v092
 BYTE   W06
 BYTE   PEND 
//  #13 //012   ----------------------------------------
 BYTE   PATT
  POIN2 Label_015DFA66
//  #13 //013   ----------------------------------------
 BYTE   PATT
  POIN2 Label_015DFA90
//  #13 //014   ----------------------------------------
 BYTE   PATT
  POIN2 Label_015DFABE
//  #13 //015   ----------------------------------------
 BYTE   N06  Dn1  v108
 BYTE   W06
 BYTE   Dn1  v112
 BYTE   W06
 BYTE   N12
 BYTE   N96  Cs2  v127
 BYTE   W12
 BYTE   N06  Dn1  v080
 BYTE   W06
 BYTE   Dn1  v092
 BYTE   W06
 BYTE   N12  Dn1  v100
 BYTE   W12
 BYTE   Dn1  v112
 BYTE   W12
 BYTE   N06  Dn1  v080
 BYTE   W06
 BYTE   Dn1  v092
 BYTE   W06
 BYTE   N12  Dn1  v100
 BYTE   W12
 BYTE   Dn1  v112
 BYTE   W12
//  #13 //016   ----------------------------------------
 BYTE   N06  Dn1  v092
 BYTE   W06
 BYTE   Dn1  v100
 BYTE   W06
 BYTE   Dn1  v112
 BYTE   N24  Cs2  v127
 BYTE   W06
 BYTE   N03  Dn1  v080
 BYTE   W03
 BYTE   N03
 BYTE   W03
 BYTE   N06  Dn1  v092
 BYTE   W06
 BYTE   Dn1  v100
 BYTE   W06
 BYTE   N12  Dn1  v112
 BYTE   N12  Cs2  v100
 BYTE   W12
 BYTE   N06  Dn1  v080
 BYTE   W06
 BYTE   Dn1  v092
 BYTE   W06
 BYTE   N12  Dn1  v100
 BYTE   W12
 BYTE   Dn1  v112
 BYTE   W12
 BYTE   N06  Dn1  v080
 BYTE   W06
 BYTE   Dn1  v092
 BYTE   W06
//  #13 //017   ----------------------------------------
 BYTE   PATT
  POIN2 Label_015DFA66
//  #13 //018   ----------------------------------------
 BYTE   PATT
  POIN2 Label_015DFA90
//  #13 //019   ----------------------------------------
 BYTE   PATT
  POIN2 Label_015DFABE
//  #13 //020   ----------------------------------------
 BYTE   PATT
  POIN2 Label_015DFAE9
//  #13 //021   ----------------------------------------
 BYTE   PATT
  POIN2 Label_015DFA35
//  #13 //022   ----------------------------------------
 BYTE   PATT
  POIN2 Label_015DFA66
//  #13 //023   ----------------------------------------
 BYTE   PATT
  POIN2 Label_015DFA90
//  #13 //024   ----------------------------------------
 BYTE   PATT
  POIN2 Label_015DFABE
//  #13 //025   ----------------------------------------
 BYTE   PATT
  POIN2 Label_015DFAE9
//  #13 //026   ----------------------------------------
 BYTE   PATT
  POIN2 Label_015DFA35
//  #13 //027   ----------------------------------------
 BYTE   PATT
  POIN2 Label_015DFA66
//  #13 //028   ----------------------------------------
 BYTE   PATT
  POIN2 Label_015DFB19
//  #13 //029   ----------------------------------------
 BYTE   PATT
  POIN2 Label_015DFB4A
//  #13 //030   ----------------------------------------
 BYTE   PATT
  POIN2 Label_015DFB78
//  #13 //031   ----------------------------------------
 BYTE   PATT
  POIN2 Label_015DFBA8
//  #13 //032   ----------------------------------------
 BYTE   PATT
  POIN2 Label_015DFA66
//  #13 //033   ----------------------------------------
 BYTE   PATT
  POIN2 Label_015DFA90
//  #13 //034   ----------------------------------------
 BYTE   PATT
  POIN2 Label_015DFABE
//  #13 //035   ----------------------------------------
 BYTE   PATT
  POIN2 Label_015DFAE9
//  #13 //036   ----------------------------------------
 BYTE   PATT
  POIN2 Label_015DFA35
//  #13 //037   ----------------------------------------
 BYTE   PATT
  POIN2 Label_015DFA66
//  #13 //038   ----------------------------------------
 BYTE   PATT
  POIN2 Label_015DFB19
//  #13 //039   ----------------------------------------
 BYTE   PATT
  POIN2 Label_015DFB4A
//  #13 //040   ----------------------------------------
 BYTE   PATT
  POIN2 Label_015DFB78
//  #13 //041   ----------------------------------------
 BYTE   PATT
  POIN2 Label_015DFBA8
//  #13 //042   ----------------------------------------
 BYTE   PATT
  POIN2 Label_015DFA66
//  #13 //043   ----------------------------------------
 BYTE   PATT
  POIN2 Label_015DFA90
//  #13 //044   ----------------------------------------
 BYTE   PATT
  POIN2 Label_015DFABE
//  #13 //045   ----------------------------------------
 BYTE   PATT
  POIN2 Label_015DFAE9
//  #13 //046   ----------------------------------------
 BYTE   PATT
  POIN2 Label_015DFA35
//  #13 //047   ----------------------------------------
 BYTE   PATT
  POIN2 Label_015DFA66
//  #13 //048   ----------------------------------------
 BYTE   PATT
  POIN2 Label_015DFA90
//  #13 //049   ----------------------------------------
 BYTE   PATT
  POIN2 Label_015DFABE
//  #13 //050   ----------------------------------------
 BYTE   PATT
  POIN2 Label_015DFAE9
//  #13 //051   ----------------------------------------
 BYTE   PATT
  POIN2 Label_015DFA35
//  #13 //052   ----------------------------------------
 BYTE   PATT
  POIN2 Label_015DFA66
//  #13 //053   ----------------------------------------
 BYTE   PATT
  POIN2 Label_015DFB19
//  #13 //054   ----------------------------------------
 BYTE   PATT
  POIN2 Label_015DFB4A
//  #13 //055   ----------------------------------------
 BYTE   PATT
  POIN2 Label_015DFB78
//  #13 //056   ----------------------------------------
 BYTE   PATT
  POIN2 Label_015DFBA8
//  #13 //057   ----------------------------------------
 BYTE   PATT
  POIN2 Label_015DFA66
//  #13 //058   ----------------------------------------
 BYTE   PATT
  POIN2 Label_015DFA90
//  #13 //059   ----------------------------------------
 BYTE   PATT
  POIN2 Label_015DFABE
//  #13 //060   ----------------------------------------
 BYTE   PATT
  POIN2 Label_015DFAE9
//  #13 //061   ----------------------------------------
 BYTE   PATT
  POIN2 Label_015DFA35
//  #13 //062   ----------------------------------------
 BYTE   PATT
  POIN2 Label_015DFA66
//  #13 //063   ----------------------------------------
 BYTE   PATT
  POIN2 Label_015DFB19
//  #13 //064   ----------------------------------------
 BYTE   PATT
  POIN2 Label_015DFB4A
//  #13 //065   ----------------------------------------
 BYTE   PATT
  POIN2 Label_015DFB78
//  #13 //066   ----------------------------------------
 BYTE   PATT
  POIN2 Label_015DFBA8
//  #13 //067   ----------------------------------------
 BYTE   PATT
  POIN2 Label_015DFA66
//  #13 //068   ----------------------------------------
 BYTE   PATT
  POIN2 Label_015DFA90
//  #13 //069   ----------------------------------------
 BYTE   PATT
  POIN2 Label_015DFABE
//  #13 //070   ----------------------------------------
 BYTE   N06  Dn1  v108
 BYTE   W06
 BYTE   Dn1  v112
 BYTE   W06
 BYTE   GoTo
  POIN2 Label_015DFA0E
//  #13 //071   ----------------------------------------
 BYTE   W84
 BYTE   FINE

//**************** Track 14 (Midi-Chn.13) ****************//

FateCruelVariant_014:
//  #14 //000   ----------------------------------------
 BYTE   KEYSH   FateCruelVariant_key+0
Label_015DFD76:
 BYTE   VOICE   29
 BYTE   VOL   16*FateCruelVariant_mvl/mxv
 BYTE   PAN   c_v+16
 BYTE   W12
 BYTE   N12  Cs1  v120
 BYTE   N12  Cs2
 BYTE   W36
 BYTE   Cs1
 BYTE   N12  Cs2
 BYTE   W36
 BYTE   Cs1
 BYTE   N12  Cs2
 BYTE   W12
//  #14 //001   ----------------------------------------
Label_015DFD8B:
 BYTE   W12
 BYTE   N12  Cs1  v120
 BYTE   N12  Cs2
 BYTE   W24
 BYTE   Bn0
 BYTE   N12  Bn1
 BYTE   W36
 BYTE   Bn0
 BYTE   N12  Bn1
 BYTE   W24
 BYTE   PEND 
//  #14 //002   ----------------------------------------
Label_015DFD9B:
 BYTE   W12
 BYTE   N12  Bn0  v120
 BYTE   N12  Bn1
 BYTE   W24
 BYTE   Bn0
 BYTE   N12  Bn1
 BYTE   W24
 BYTE   An0
 BYTE   N12  An1
 BYTE   W36
 BYTE   PEND 
//  #14 //003   ----------------------------------------
Label_015DFDAB:
 BYTE   N12  An0  v120
 BYTE   N12  An1
 BYTE   W36
 BYTE   An0
 BYTE   N12  An1
 BYTE   W24
 BYTE   An0
 BYTE   N12  An1
 BYTE   W24
 BYTE   Bn0
 BYTE   N12  Bn1
 BYTE   W12
 BYTE   PEND 
//  #14 //004   ----------------------------------------
Label_015DFDBE:
 BYTE   W24
 BYTE   N12  Bn0  v120
 BYTE   N12  Bn1
 BYTE   W36
 BYTE   Bn0
 BYTE   N12  Bn1
 BYTE   W24
 BYTE   Bn0
 BYTE   N12  Bn1
 BYTE   W12
 BYTE   PEND 
//  #14 //005   ----------------------------------------
Label_015DFDCE:
 BYTE   W12
 BYTE   N12  Cs1  v120
 BYTE   N12  Cs2
 BYTE   W36
 BYTE   Cs1
 BYTE   N12  Cs2
 BYTE   W36
 BYTE   Cs1
 BYTE   N12  Cs2
 BYTE   W12
 BYTE   PEND 
//  #14 //006   ----------------------------------------
 BYTE   PATT
  POIN2 Label_015DFD8B
//  #14 //007   ----------------------------------------
 BYTE   PATT
  POIN2 Label_015DFD9B
//  #14 //008   ----------------------------------------
 BYTE   PATT
  POIN2 Label_015DFDAB
//  #14 //009   ----------------------------------------
 BYTE   PATT
  POIN2 Label_015DFDBE
//  #14 //010   ----------------------------------------
Label_015DFDF2:
 BYTE   W12
 BYTE   N12  An0  v120
 BYTE   N12  An1
 BYTE   W36
 BYTE   An0
 BYTE   N12  An1
 BYTE   W36
 BYTE   An0
 BYTE   N12  An1
 BYTE   W12
 BYTE   PEND 
//  #14 //011   ----------------------------------------
Label_015DFE02:
 BYTE   W12
 BYTE   N12  An0  v120
 BYTE   N12  An1
 BYTE   W24
 BYTE   Bn0
 BYTE   N12  Bn1
 BYTE   W36
 BYTE   Bn0
 BYTE   N12  Bn1
 BYTE   W24
 BYTE   PEND 
//  #14 //012   ----------------------------------------
Label_015DFE12:
 BYTE   W12
 BYTE   N12  Bn0  v120
 BYTE   N12  Bn1
 BYTE   W24
 BYTE   Bn0
 BYTE   N12  Bn1
 BYTE   W24
 BYTE   Cs1
 BYTE   N12  Cs2
 BYTE   W36
 BYTE   PEND 
//  #14 //013   ----------------------------------------
Label_015DFE22:
 BYTE   N12  Cs1  v120
 BYTE   N12  Cs2
 BYTE   W36
 BYTE   Cs1
 BYTE   N12  Cs2
 BYTE   W24
 BYTE   Cs1
 BYTE   N12  Cs2
 BYTE   W24
 BYTE   Cs1
 BYTE   N12  Cs2
 BYTE   W12
 BYTE   PEND 
//  #14 //014   ----------------------------------------
 BYTE   W24
 BYTE   Cs1
 BYTE   N12  Cs2
 BYTE   W36
 BYTE   Cs1
 BYTE   N12  Cs2
 BYTE   W24
 BYTE   Bn0
 BYTE   N12  Bn1
 BYTE   W12
//  #14 //015   ----------------------------------------
 BYTE   PATT
  POIN2 Label_015DFDF2
//  #14 //016   ----------------------------------------
 BYTE   PATT
  POIN2 Label_015DFE02
//  #14 //017   ----------------------------------------
 BYTE   PATT
  POIN2 Label_015DFE12
//  #14 //018   ----------------------------------------
 BYTE   PATT
  POIN2 Label_015DFE22
//  #14 //019   ----------------------------------------
Label_015DFE56:
 BYTE   W24
 BYTE   N12  Cs1  v120
 BYTE   N12  Cs2
 BYTE   W36
 BYTE   Cs1
 BYTE   N12  Cs2
 BYTE   W24
 BYTE   Cs1
 BYTE   N12  Cs2
 BYTE   W12
 BYTE   PEND 
//  #14 //020   ----------------------------------------
 BYTE   PATT
  POIN2 Label_015DFDCE
//  #14 //021   ----------------------------------------
 BYTE   PATT
  POIN2 Label_015DFD8B
//  #14 //022   ----------------------------------------
 BYTE   PATT
  POIN2 Label_015DFD9B
//  #14 //023   ----------------------------------------
 BYTE   PATT
  POIN2 Label_015DFDAB
//  #14 //024   ----------------------------------------
 BYTE   PATT
  POIN2 Label_015DFDBE
//  #14 //025   ----------------------------------------
 BYTE   PATT
  POIN2 Label_015DFDCE
//  #14 //026   ----------------------------------------
 BYTE   PATT
  POIN2 Label_015DFD8B
//  #14 //027   ----------------------------------------
 BYTE   PATT
  POIN2 Label_015DFD9B
//  #14 //028   ----------------------------------------
 BYTE   PATT
  POIN2 Label_015DFDAB
//  #14 //029   ----------------------------------------
 BYTE   PATT
  POIN2 Label_015DFDBE
//  #14 //030   ----------------------------------------
 BYTE   PATT
  POIN2 Label_015DFDF2
//  #14 //031   ----------------------------------------
 BYTE   PATT
  POIN2 Label_015DFE02
//  #14 //032   ----------------------------------------
 BYTE   PATT
  POIN2 Label_015DFE12
//  #14 //033   ----------------------------------------
 BYTE   PATT
  POIN2 Label_015DFE22
//  #14 //034   ----------------------------------------
 BYTE   PATT
  POIN2 Label_015DFE56
//  #14 //035   ----------------------------------------
 BYTE   PATT
  POIN2 Label_015DFDF2
//  #14 //036   ----------------------------------------
 BYTE   PATT
  POIN2 Label_015DFE02
//  #14 //037   ----------------------------------------
 BYTE   PATT
  POIN2 Label_015DFE12
//  #14 //038   ----------------------------------------
 BYTE   PATT
  POIN2 Label_015DFE22
//  #14 //039   ----------------------------------------
 BYTE   PATT
  POIN2 Label_015DFE56
//  #14 //040   ----------------------------------------
 BYTE   PATT
  POIN2 Label_015DFDCE
//  #14 //041   ----------------------------------------
Label_015DFECF:
 BYTE   W12
 BYTE   N12  Cs1  v120
 BYTE   N12  Cs2
 BYTE   W24
 BYTE   An0
 BYTE   N12  An1
 BYTE   W36
 BYTE   An0
 BYTE   N12  An1
 BYTE   W24
 BYTE   PEND 
//  #14 //042   ----------------------------------------
Label_015DFEDF:
 BYTE   W12
 BYTE   N12  An0  v120
 BYTE   N12  An1
 BYTE   W24
 BYTE   An0
 BYTE   N12  An1
 BYTE   W24
 BYTE   Fs0
 BYTE   N12  Fs1
 BYTE   W36
 BYTE   PEND 
//  #14 //043   ----------------------------------------
Label_015DFEEF:
 BYTE   N12  Fs0  v120
 BYTE   N12  Fs1
 BYTE   W36
 BYTE   Fs0
 BYTE   N12  Fs1
 BYTE   W24
 BYTE   Fs0
 BYTE   N12  Fs1
 BYTE   W24
 BYTE   Gs0
 BYTE   N12  Gs1
 BYTE   W12
 BYTE   PEND 
//  #14 //044   ----------------------------------------
Label_015DFF02:
 BYTE   W24
 BYTE   N12  Gs0  v120
 BYTE   N12  Gs1
 BYTE   W36
 BYTE   Gs0
 BYTE   N12  Gs1
 BYTE   W24
 BYTE   Gs0
 BYTE   N12  Gs1
 BYTE   W12
 BYTE   PEND 
//  #14 //045   ----------------------------------------
 BYTE   PATT
  POIN2 Label_015DFDCE
//  #14 //046   ----------------------------------------
 BYTE   PATT
  POIN2 Label_015DFECF
//  #14 //047   ----------------------------------------
 BYTE   PATT
  POIN2 Label_015DFEDF
//  #14 //048   ----------------------------------------
 BYTE   PATT
  POIN2 Label_015DFEEF
//  #14 //049   ----------------------------------------
 BYTE   PATT
  POIN2 Label_015DFF02
//  #14 //050   ----------------------------------------
 BYTE   PATT
  POIN2 Label_015DFDF2
//  #14 //051   ----------------------------------------
 BYTE   W12
 BYTE   N12  An0  v120
 BYTE   N12  An1
 BYTE   W24
 BYTE   Dn1
 BYTE   N12  Dn2
 BYTE   W36
 BYTE   Dn1
 BYTE   N12  Dn2
 BYTE   W24
//  #14 //052   ----------------------------------------
 BYTE   W12
 BYTE   Dn1
 BYTE   N12  Dn2
 BYTE   W24
 BYTE   Dn1
 BYTE   N12  Dn2
 BYTE   W24
 BYTE   An0
 BYTE   N12  An1
 BYTE   W36
//  #14 //053   ----------------------------------------
 BYTE   An0
 BYTE   N12  An1
 BYTE   W36
 BYTE   An0
 BYTE   N12  An1
 BYTE   W24
 BYTE   An0
 BYTE   N12  An1
 BYTE   W24
 BYTE   Dn1
 BYTE   N12  Dn2
 BYTE   W12
//  #14 //054   ----------------------------------------
 BYTE   W24
 BYTE   Dn1
 BYTE   N12  Dn2
 BYTE   W36
 BYTE   Dn1
 BYTE   N12  Dn2
 BYTE   W24
 BYTE   Dn1
 BYTE   N12  Dn2
 BYTE   W12
//  #14 //055   ----------------------------------------
 BYTE   PATT
  POIN2 Label_015DFDCE
//  #14 //056   ----------------------------------------
 BYTE   PATT
  POIN2 Label_015DFECF
//  #14 //057   ----------------------------------------
 BYTE   PATT
  POIN2 Label_015DFEDF
//  #14 //058   ----------------------------------------
 BYTE   PATT
  POIN2 Label_015DFEEF
//  #14 //059   ----------------------------------------
 BYTE   PATT
  POIN2 Label_015DFF02
//  #14 //060   ----------------------------------------
 BYTE   PATT
  POIN2 Label_015DFDCE
//  #14 //061   ----------------------------------------
 BYTE   PATT
  POIN2 Label_015DFECF
//  #14 //062   ----------------------------------------
 BYTE   PATT
  POIN2 Label_015DFEDF
//  #14 //063   ----------------------------------------
 BYTE   PATT
  POIN2 Label_015DFEEF
//  #14 //064   ----------------------------------------
 BYTE   PATT
  POIN2 Label_015DFF02
//  #14 //065   ----------------------------------------
 BYTE   PATT
  POIN2 Label_015DFDF2
//  #14 //066   ----------------------------------------
 BYTE   PATT
  POIN2 Label_015DFE02
//  #14 //067   ----------------------------------------
 BYTE   PATT
  POIN2 Label_015DFE12
//  #14 //068   ----------------------------------------
 BYTE   PATT
  POIN2 Label_015DFE22
//  #14 //069   ----------------------------------------
 BYTE   PATT
  POIN2 Label_015DFE56
//  #14 //070   ----------------------------------------
 BYTE   W12
 BYTE   GoTo
  POIN2 Label_015DFD76
//  #14 //071   ----------------------------------------
 BYTE   VOL   16*FateCruelVariant_mvl/mxv
 BYTE   PAN   c_v+16
 BYTE   W84
 BYTE   FINE

//******************************************************//
	ALIGN 4

FateCruelVariant:
	BYTE	14	// NumTrks
	BYTE	0	// NumBlks
	BYTE	FateCruelVariant_pri	// Priority
	BYTE	FateCruelVariant_rev	// Reverb.
    
	POIN2	FateCruelVariant_grp
    
	POIN2	FateCruelVariant_001
	POIN2	FateCruelVariant_002
	POIN2	FateCruelVariant_003
	POIN2	FateCruelVariant_004
	POIN2	FateCruelVariant_005
	POIN2	FateCruelVariant_006
	POIN2	FateCruelVariant_007
	POIN2	FateCruelVariant_008
	POIN2	FateCruelVariant_009
	POIN2	FateCruelVariant_010
	POIN2	FateCruelVariant_011
	POIN2	FateCruelVariant_012
	POIN2	FateCruelVariant_013
	POIN2	FateCruelVariant_014

	
