//Event file generated from Sappy .s format.
	#include "MPlayDef.event"

	#define	songA8_grp  voicegroup000
	#define	songA8_pri  10
	#define	songA8_rev  192
	#define	songA8_mvl  95
	#define	songA8_key  0
	#define	songA8_tbs  1
	#define	songA8_exg  0
	#define	songA8_cmp  1

	// .rodata
	//	songA8
	ALIGN 4


//**************** Track 1 (Midi-Chn.0) ****************//

songA8_001:
//  #01 //000   ----------------------------------------
Label_019A4AFC:
 BYTE   TEMPO   154*songA8_tbs/2
 BYTE   KEYSH   songA8_key+0
 BYTE   VOICE   1
 BYTE   VOL   39*songA8_mvl/mxv
 BYTE   VOL   39*songA8_mvl/mxv
 BYTE   PAN   c_v+4
 BYTE   PAN   c_v-14
 BYTE   W96
//  #01 //001   ----------------------------------------
 BYTE   W96
//  #01 //002   ----------------------------------------
 BYTE   W96
//  #01 //003   ----------------------------------------
 BYTE   W96
//  #01 //004   ----------------------------------------
 BYTE   W96
//  #01 //005   ----------------------------------------
 BYTE   W96
//  #01 //006   ----------------------------------------
 BYTE   W96
//  #01 //007   ----------------------------------------
 BYTE   W96
//  #01 //008   ----------------------------------------
 BYTE   W96
//  #01 //009   ----------------------------------------
 BYTE   W84
 BYTE   N04  En3  v127
 BYTE   W04
 BYTE   Fs3  v112
 BYTE   W04
 BYTE   Gs3
 BYTE   W04
//  #01 //010   ----------------------------------------
 BYTE   An3  v116
 BYTE   W04
 BYTE   Bn3  v120
 BYTE   W04
 BYTE   Cs4  v127
 BYTE   W04
 BYTE   N36  Ds4  v112
 BYTE   W36
 BYTE   N42  Gs3
 BYTE   W48
//  #01 //011   ----------------------------------------
Label_019A4B2D:
 BYTE   N24  Ds4  v112
 BYTE   W24
 BYTE   N12  En4
 BYTE   W12
 BYTE   Fs4
 BYTE   W12
 BYTE   En4
 BYTE   W12
 BYTE   N48  Ds4
 BYTE   W60
 BYTE   PEND 
//  #01 //012   ----------------------------------------
 BYTE   N24  Ds4  v112
 BYTE   W24
 BYTE   N12  En4
 BYTE   W12
 BYTE   N36  Ds4
 BYTE   W36
 BYTE   N60  Cs4
 BYTE   W60
//  #01 //013   ----------------------------------------
 BYTE   N24  Gs4
 BYTE   W24
 BYTE   N36  Fs4
 BYTE   W36
 BYTE   N54  En4
 BYTE   W60
//  #01 //014   ----------------------------------------
 BYTE   N12  Ds4
 BYTE   W12
 BYTE   En4
 BYTE   W12
 BYTE   N36  Ds4
 BYTE   W36
 BYTE   N42  Gs3
 BYTE   W48
//  #01 //015   ----------------------------------------
 BYTE   PATT
  POIN2 Label_019A4B2D
//  #01 //016   ----------------------------------------
 BYTE   N24  Ds4  v112
 BYTE   W24
 BYTE   N12  En4
 BYTE   W12
 BYTE   N36  Ds4
 BYTE   W36
 BYTE   N24  Cs4
 BYTE   W24
//  #01 //017   ----------------------------------------
 BYTE   N12  Ds4
 BYTE   W12
 BYTE   N96  En4
 BYTE   W96
//  #01 //018   ----------------------------------------
 BYTE   N36
 BYTE   W96
//  #01 //019   ----------------------------------------
 BYTE   W96
//  #01 //020   ----------------------------------------
 BYTE   W96
//  #01 //021   ----------------------------------------
 BYTE   W96
//  #01 //022   ----------------------------------------
 BYTE   W96
//  #01 //023   ----------------------------------------
 BYTE   W96
//  #01 //024   ----------------------------------------
 BYTE   W96
//  #01 //025   ----------------------------------------
 BYTE   W96
//  #01 //026   ----------------------------------------
 BYTE   W96
//  #01 //027   ----------------------------------------
 BYTE   W96
//  #01 //028   ----------------------------------------
 BYTE   W48
 BYTE   N04  En3  v127
 BYTE   W04
 BYTE   Fs3  v112
 BYTE   W04
 BYTE   Gs3
 BYTE   W04
 BYTE   An3  v116
 BYTE   W04
 BYTE   Bn3  v120
 BYTE   W04
 BYTE   Cs4  v127
 BYTE   W04
 BYTE   N12  Ds4  v120
 BYTE   N36  Cs5  v127
 BYTE   W24
//  #01 //029   ----------------------------------------
 BYTE   N12  Ds4  v120
 BYTE   N36  Gs4  v116
 BYTE   W12
 BYTE   N24  Cs4
 BYTE   W24
 BYTE   N09  En4  v120
 BYTE   N24  Cs4  v116
 BYTE   W12
 BYTE   N12  Ds4  v127
 BYTE   N36  Gs4  v116
 BYTE   W12
 BYTE   N09  Cs4  v120
 BYTE   N12  Cs5  v116
 BYTE   W12
 BYTE   Ds4  v127
 BYTE   N24  Cs5  v116
 BYTE   W12
 BYTE   N12  En4  v120
 BYTE   N12  Gs4  v116
 BYTE   W12
//  #01 //030   ----------------------------------------
 BYTE   N24  Fs4  v127
 BYTE   N36  Cs5  v116
 BYTE   W24
 BYTE   N12  Ds4  v120
 BYTE   N36  Gs4  v116
 BYTE   W12
 BYTE   N24  Cs4
 BYTE   W24
 BYTE   N09  En4  v120
 BYTE   N24  Cs4  v116
 BYTE   W12
 BYTE   N12  Ds4  v127
 BYTE   N36  Gs4  v116
 BYTE   W12
 BYTE   N09  Cs4  v120
 BYTE   N12  Cs5  v116
 BYTE   W12
//  #01 //031   ----------------------------------------
 BYTE   Ds4  v127
 BYTE   N24  Cs5  v116
 BYTE   W12
 BYTE   N12  En4  v120
 BYTE   N12  Gs4  v116
 BYTE   W12
 BYTE   N36  Cs5
 BYTE   N54  Ds4  v120
 BYTE   W24
 BYTE   N12  Gs4  v116
 BYTE   W12
 BYTE   N24  Cs4
 BYTE   W24
 BYTE   N06  En4  v120
 BYTE   N24  Cs4  v116
 BYTE   W06
 BYTE   N06  Fs4  v120
 BYTE   W06
//  #01 //032   ----------------------------------------
 BYTE   N36  Gs4  v116
 BYTE   W12
 BYTE   N06  Fs4  v120
 BYTE   N12  Cs5  v116
 BYTE   W06
 BYTE   N06  En4  v120
 BYTE   W06
 BYTE   N24  Ds4
 BYTE   N24  Cs5  v116
 BYTE   W12
 BYTE   N12  Gs4
 BYTE   W12
 BYTE   Cs4  v120
 BYTE   N36  Cs5  v116
 BYTE   W18
 BYTE   N06  Gs4  v120
 BYTE   W06
 BYTE   N48  Gs4  v116
 BYTE   W12
 BYTE   N24  Cs4
 BYTE   W24
//  #01 //033   ----------------------------------------
 BYTE   Cs4
 BYTE   W12
 BYTE   N36  Gs4
 BYTE   W12
 BYTE   N12  Cs5
 BYTE   W12
 BYTE   N24
 BYTE   W12
 BYTE   N12  Gs4
 BYTE   W12
 BYTE   N24  Ds4  v120
 BYTE   N36  Cs5  v127
 BYTE   W24
 BYTE   N12  Ds4  v120
 BYTE   N36  Gs4  v116
 BYTE   W12
//  #01 //034   ----------------------------------------
 BYTE   N24  Cs4
 BYTE   W24
 BYTE   N09  En4  v120
 BYTE   N24  Cs4  v116
 BYTE   W12
 BYTE   N12  Ds4  v127
 BYTE   N36  Gs4  v116
 BYTE   W12
 BYTE   N09  Cs4  v120
 BYTE   N12  Cs5  v116
 BYTE   W12
 BYTE   Ds4  v127
 BYTE   N24  Cs5  v116
 BYTE   W12
 BYTE   N12  En4  v120
 BYTE   N12  Gs4  v116
 BYTE   W12
 BYTE   N24  Fs4  v127
 BYTE   N36  Cs5  v116
 BYTE   W24
//  #01 //035   ----------------------------------------
 BYTE   N12  Ds4  v120
 BYTE   N36  Gs4  v116
 BYTE   W12
 BYTE   N24  Cs4
 BYTE   W24
 BYTE   N09  En4  v120
 BYTE   N24  Cs4  v116
 BYTE   W12
 BYTE   N12  Ds4  v127
 BYTE   N36  Gs4  v116
 BYTE   W12
 BYTE   N09  Cs4  v120
 BYTE   N12  Cs5  v116
 BYTE   W12
 BYTE   Ds4  v127
 BYTE   N24  Cs5  v116
 BYTE   W12
 BYTE   N12  En4  v120
 BYTE   N12  Gs4  v116
 BYTE   W12
//  #01 //036   ----------------------------------------
 BYTE   N36  Ds4  v120
 BYTE   N36  Cs5  v116
 BYTE   W24
 BYTE   N12  Gs4
 BYTE   W12
 BYTE   N24  Cs4
 BYTE   W24
 BYTE   N06  En4  v120
 BYTE   N12  Cs4  v116
 BYTE   W06
 BYTE   N06  Ds4  v120
 BYTE   W06
 BYTE   N12  Cs4
 BYTE   N36  Gs4  v116
 BYTE   W12
 BYTE   N06  Ds4  v120
 BYTE   N12  Cs5  v116
 BYTE   W06
 BYTE   N06  En4  v120
 BYTE   W06
//  #01 //037   ----------------------------------------
 BYTE   N12  Fs4  v127
 BYTE   N24  Cs5  v116
 BYTE   W12
 BYTE   N12  Gs4
 BYTE   W12
 BYTE   Ds4  v120
 BYTE   N36  Cs5  v116
 BYTE   W18
 BYTE   N06  Cs4  v120
 BYTE   W06
 BYTE   N36  Gs4  v116
 BYTE   N84  Gs3  v120
 BYTE   W12
 BYTE   N24  Cs4  v116
 BYTE   W24
 BYTE   Cs4
 BYTE   W12
//  #01 //038   ----------------------------------------
 BYTE   N36  Gs4
 BYTE   W12
 BYTE   N12  Cs5
 BYTE   W12
 BYTE   N24
 BYTE   W12
 BYTE   N12  Gs4
 BYTE   W96
//  #01 //039   ----------------------------------------
 BYTE   W96
//  #01 //040   ----------------------------------------
 BYTE   W96
//  #01 //041   ----------------------------------------
 BYTE   W96
//  #01 //042   ----------------------------------------
 BYTE   W96
//  #01 //043   ----------------------------------------
 BYTE   W96
//  #01 //044   ----------------------------------------
 BYTE   W96
//  #01 //045   ----------------------------------------
 BYTE   W96
//  #01 //046   ----------------------------------------
 BYTE   W96
//  #01 //047   ----------------------------------------
 BYTE   W96
//  #01 //048   ----------------------------------------
 BYTE   W36
Label_019A4D0C:
 BYTE   N24  Ds3  v116
 BYTE   N24  Gs3
 BYTE   N24  Ds4  v127
 BYTE   W24
 BYTE   Cs3  v116
 BYTE   N24  Gs3  v108
 BYTE   N24  Cs4  v116
 BYTE   W24
 BYTE   N12  Gs3
 BYTE   N24  Cs4  v108
 BYTE   N24  Gs4  v116
 BYTE   W24
//  #01 //049   ----------------------------------------
 BYTE   Ds3  v108
 BYTE   N24  Gs3
 BYTE   N24  Ds4  v116
 BYTE   W24
 BYTE   PEND 
 BYTE   N24  Cs3  v096
 BYTE   N24  An3
 BYTE   N24  Cs4  v108
 BYTE   W24
 BYTE   Dn3  v116
 BYTE   N24  An3
 BYTE   N24  Dn4  v127
 BYTE   W24
 BYTE   N12  Cs3  v116
 BYTE   N24  An3  v108
 BYTE   N24  Cs4  v116
 BYTE   W24
//  #01 //050   ----------------------------------------
 BYTE   Gs3  v108
 BYTE   N24  Dn4
 BYTE   N24  Gs4  v116
 BYTE   W24
 BYTE   N48  Dn3  v096
 BYTE   N48  An3
 BYTE   N48  Dn4  v108
 BYTE   W24
 BYTE   N36  Cs4  v112
 BYTE   W24
 BYTE   N24  Ds3  v116
 BYTE   N24  Gs3  v108
 BYTE   N24  Ds4  v127
 BYTE   W12
 BYTE   N36  Gs4  v112
 BYTE   W12
//  #01 //051   ----------------------------------------
 BYTE   N24  Cs4  v116
 BYTE   N24  Cs3
 BYTE   N24  Gs3  v108
 BYTE   W24
 BYTE   Gs3  v116
 BYTE   N24  Cs4  v108
 BYTE   N48  Gs4  v116
 BYTE   W24
 BYTE   N24  Ds3  v108
 BYTE   N24  Ds4  v116
 BYTE   N24  Gs3  v108
 BYTE   W24
 BYTE   N12  Cs3  v096
 BYTE   N24  An3
 BYTE   N24  Cs4  v108
 BYTE   N36  Fs4  v112
 BYTE   W24
//  #01 //052   ----------------------------------------
 BYTE   N24  Dn3  v116
 BYTE   N24  An3
 BYTE   N24  Dn4  v127
 BYTE   W12
 BYTE   N36  Cs5  v112
 BYTE   W12
 BYTE   N24  Cs3  v116
 BYTE   N24  Cs4
 BYTE   N24  An3  v108
 BYTE   W24
 BYTE   Gs3
 BYTE   N24  Dn4
 BYTE   N24  Gs4  v116
 BYTE   N48  Bn4  v112
 BYTE   W24
 BYTE   N24  Dn4  v116
 BYTE   N24  Dn3  v108
 BYTE   N24  An3
 BYTE   W24
//  #01 //053   ----------------------------------------
 BYTE   N96  Gs4  v100
 BYTE   W96
//  #01 //054   ----------------------------------------
 BYTE   N72
 BYTE   W96
//  #01 //055   ----------------------------------------
 BYTE   W96
//  #01 //056   ----------------------------------------
 BYTE   W96
//  #01 //057   ----------------------------------------
 BYTE   W96
//  #01 //058   ----------------------------------------
 BYTE   N36  Cs5  v127
 BYTE   W24
 BYTE   N12  Gs4  v120
 BYTE   W12
 BYTE   N24  Cs4
 BYTE   W24
 BYTE   Cs4
 BYTE   W12
 BYTE   N36  Gs4
 BYTE   W12
 BYTE   N12  Cs5
 BYTE   W12
//  #01 //059   ----------------------------------------
 BYTE   N24
 BYTE   W12
 BYTE   N12  Gs4
 BYTE   W12
 BYTE   N36  Cs5
 BYTE   W24
 BYTE   N12  Gs4
 BYTE   W12
 BYTE   N24  Cs4
 BYTE   W24
 BYTE   Cs4
 BYTE   W12
//  #01 //060   ----------------------------------------
 BYTE   N36  Gs4
 BYTE   W12
 BYTE   N12  Cs5
 BYTE   W12
 BYTE   N24
 BYTE   W12
 BYTE   N12  Gs4
 BYTE   W12
 BYTE   N36  Cs5
 BYTE   W24
 BYTE   N12  Gs4
 BYTE   W12
 BYTE   N24  Cs4
 BYTE   W24
//  #01 //061   ----------------------------------------
 BYTE   Cs4
 BYTE   W12
 BYTE   N36  Gs4
 BYTE   W12
 BYTE   N12  Cs5
 BYTE   W12
 BYTE   N24
 BYTE   W12
 BYTE   N12  Gs4
 BYTE   W12
 BYTE   N36  Cn5
 BYTE   W24
 BYTE   N12  Gs4
 BYTE   W12
//  #01 //062   ----------------------------------------
 BYTE   N24  Cn4
 BYTE   W24
 BYTE   Cn4
 BYTE   W12
 BYTE   N36  Gs4
 BYTE   W12
 BYTE   N12  Cn5
 BYTE   W12
 BYTE   N24
 BYTE   W12
 BYTE   N12  Gs4
 BYTE   W36
//  #01 //063   ----------------------------------------
 BYTE   PATT
  POIN2 Label_019A4D0C
//  #01 //064   ----------------------------------------
 BYTE   N24  Cs3  v100
 BYTE   N24  Gs3
 BYTE   N24  Cs4  v112
 BYTE   W24
 BYTE   Ds3  v116
 BYTE   N24  Gs3  v108
 BYTE   N24  Ds4  v127
 BYTE   W24
 BYTE   N12  Cs3  v116
 BYTE   N24  Gs3  v108
 BYTE   N24  Cs4  v116
 BYTE   W24
 BYTE   Gs3
 BYTE   N24  Cs4  v108
 BYTE   N24  Gs4  v116
 BYTE   W24
//  #01 //065   ----------------------------------------
 BYTE   Ds3  v108
 BYTE   N24  Gs3
 BYTE   N24  Ds4  v116
 BYTE   W24
 BYTE   Cs3  v100
 BYTE   N24  Gs3
 BYTE   N24  Cs4  v112
 BYTE   W24
 BYTE   N12  Ds3  v116
 BYTE   N24  Gs3  v108
 BYTE   N24  Ds4  v127
 BYTE   W24
 BYTE   En3  v116
 BYTE   N24  Gs3  v108
 BYTE   N24  En4  v116
 BYTE   W24
//  #01 //066   ----------------------------------------
 BYTE   Ds3
 BYTE   N24  Gs3  v108
 BYTE   N24  Ds4  v116
 BYTE   W24
 BYTE   Cs3  v108
 BYTE   N24  Gs3
 BYTE   N24  Cs4  v116
 BYTE   W24
 BYTE   N48  Gs2  v092
 BYTE   N48  Cs3
 BYTE   N48  Gs3  v100
 BYTE   W48
//  #01 //067   ----------------------------------------
 BYTE   Ds3  v108
 BYTE   N48  Gs3  v096
 BYTE   N48  Ds4  v116
 BYTE   W48
 BYTE   N24  En3  v112
 BYTE   N24  Cs4  v100
 BYTE   N24  En4  v112
 BYTE   W24
 BYTE   GoTo
  POIN2 Label_019A4AFC
 BYTE   FINE

//**************** Track 2 (Midi-Chn.1) ****************//

songA8_002:
//  #02 //000   ----------------------------------------
Label_019A4EA8:
 BYTE   TEMPO   154*songA8_tbs/2
 BYTE   KEYSH   songA8_key+0
 BYTE   VOICE   49
 BYTE   VOL   39*songA8_mvl/mxv
 BYTE   PAN   c_v+0
 BYTE   PAN   c_v-4
 BYTE   W12
 BYTE   N06  Cs3  v116
 BYTE   W12
 BYTE   En3
 BYTE   N06  Gs3  v127
 BYTE   W06
 BYTE   Ds3  v116
 BYTE   N06  Fs3  v127
 BYTE   W06
 BYTE   N30  En3  v116
 BYTE   N30  Gs3  v127
 BYTE   W36
 BYTE   N12  Fs3  v116
 BYTE   N12  An3  v127
 BYTE   W12
 BYTE   Gs3  v116
 BYTE   N12  Bn3  v127
 BYTE   W12
//  #02 //001   ----------------------------------------
 BYTE   Fs3  v116
 BYTE   N12  An3  v127
 BYTE   W12
 BYTE   En3  v116
 BYTE   N12  Gs3  v127
 BYTE   W12
 BYTE   Ds3  v116
 BYTE   N12  Fs3  v127
 BYTE   W12
 BYTE   N06  Cs3  v116
 BYTE   W12
 BYTE   En3
 BYTE   N06  Gs3  v127
 BYTE   W06
 BYTE   Ds3  v116
 BYTE   N06  Fs3  v127
 BYTE   W06
 BYTE   N30  Ds3  v116
 BYTE   N30  Gs3  v127
 BYTE   W36
//  #02 //002   ----------------------------------------
 BYTE   N12  Fs3  v116
 BYTE   N12  An3  v127
 BYTE   W12
 BYTE   Fs3  v116
 BYTE   N12  Bn3  v127
 BYTE   W12
 BYTE   Fs3  v116
 BYTE   N12  Cs4  v127
 BYTE   W12
 BYTE   Gs3  v116
 BYTE   N12  Bn3  v127
 BYTE   W12
 BYTE   Fs3  v116
 BYTE   N12  An3  v127
 BYTE   W12
 BYTE   N06  Cs3  v116
 BYTE   W12
 BYTE   En3
 BYTE   N06  Gs3  v127
 BYTE   W06
 BYTE   Ds3  v116
 BYTE   N06  Fs3  v127
 BYTE   W06
 BYTE   N30  En3  v116
 BYTE   N30  Gs3  v127
 BYTE   W36
//  #02 //003   ----------------------------------------
 BYTE   N12  Ds3  v116
 BYTE   N12  Fs3  v127
 BYTE   W12
 BYTE   Cs3  v116
 BYTE   N12  En3  v127
 BYTE   W12
 BYTE   Bn2  v116
 BYTE   N12  Ds3  v127
 BYTE   W12
 BYTE   Cs3  v116
 BYTE   N12  En3  v127
 BYTE   W12
 BYTE   Ds3  v116
 BYTE   N12  Fs3  v127
 BYTE   W12
 BYTE   N06  Cs3  v116
 BYTE   W18
 BYTE   N04  En3
 BYTE   N04  Gs3  v127
 BYTE   W06
 BYTE   N96  En3  v116
 BYTE   N96  Gs3  v127
 BYTE   W96
//  #02 //004   ----------------------------------------
 BYTE   N06  Cs3  v116
 BYTE   W12
 BYTE   En3
 BYTE   N06  Gs3  v127
 BYTE   W06
 BYTE   Ds3  v116
 BYTE   N06  Fs3  v127
 BYTE   W06
 BYTE   N30  En3  v116
 BYTE   N30  Gs3  v127
 BYTE   W36
 BYTE   N12  Fs3  v116
 BYTE   N12  An3  v127
 BYTE   W12
 BYTE   Gs3  v116
 BYTE   N12  Bn3  v127
 BYTE   W12
 BYTE   Fs3  v116
 BYTE   N12  An3  v127
 BYTE   W12
//  #02 //005   ----------------------------------------
 BYTE   En3  v116
 BYTE   N12  Gs3  v127
 BYTE   W12
 BYTE   Ds3  v116
 BYTE   N12  Fs3  v127
 BYTE   W12
 BYTE   N06  Cs3  v116
 BYTE   W12
 BYTE   En3
 BYTE   N06  Gs3  v127
 BYTE   W06
 BYTE   Ds3  v116
 BYTE   N06  Fs3  v127
 BYTE   W06
 BYTE   N30  Ds3  v116
 BYTE   N30  Gs3  v127
 BYTE   W36
 BYTE   N12  Fs3  v116
 BYTE   N12  An3  v127
 BYTE   W12
//  #02 //006   ----------------------------------------
 BYTE   Fs3  v116
 BYTE   N12  Bn3  v127
 BYTE   W12
 BYTE   Fs3  v116
 BYTE   N12  Cs4  v127
 BYTE   W12
 BYTE   Gs3  v116
 BYTE   N12  Bn3  v127
 BYTE   W12
 BYTE   Fs3  v116
 BYTE   N12  An3  v127
 BYTE   W12
 BYTE   N06  Cs3  v116
 BYTE   W12
 BYTE   En3
 BYTE   N06  Gs3  v127
 BYTE   W06
 BYTE   Ds3  v116
 BYTE   N06  Fs3  v127
 BYTE   W06
 BYTE   N30  En3  v116
 BYTE   N30  Gs3  v127
 BYTE   W36
//  #02 //007   ----------------------------------------
 BYTE   N12  Ds3  v116
 BYTE   N12  Fs3  v127
 BYTE   W12
 BYTE   Cs3  v116
 BYTE   N12  En3  v127
 BYTE   W12
 BYTE   Bn2  v116
 BYTE   N12  Ds3  v127
 BYTE   W12
 BYTE   Cs3  v116
 BYTE   N12  En3  v127
 BYTE   W12
 BYTE   Ds3  v116
 BYTE   N12  Fs3  v127
 BYTE   W12
 BYTE   N06  Cs3  v116
 BYTE   W18
 BYTE   N04  En3
 BYTE   N04  Gs3  v127
 BYTE   W06
 BYTE   N84  En3  v116
 BYTE   N84  Gs3  v127
 BYTE   W96
//  #02 //008   ----------------------------------------
 BYTE   N36  Gs2  v112
 BYTE   N36  Ds3  v120
 BYTE   W36
 BYTE   N42  En2  v112
 BYTE   N42  Gs2  v120
 BYTE   W48
 BYTE   N24  Bn2  v112
 BYTE   N24  Ds3  v120
 BYTE   W24
//  #02 //009   ----------------------------------------
 BYTE   N12  Cs3  v112
 BYTE   N12  En3  v120
 BYTE   W12
 BYTE   Ds3  v112
 BYTE   N12  Fs3  v120
 BYTE   W12
 BYTE   Cs3  v112
 BYTE   N12  En3  v120
 BYTE   W12
 BYTE   N48  Bn2  v112
 BYTE   N48  Ds3  v120
 BYTE   W60
//  #02 //010   ----------------------------------------
 BYTE   N24  Bn2  v112
 BYTE   N24  Ds3  v120
 BYTE   W24
 BYTE   N12  Cs3  v112
 BYTE   N12  En3  v120
 BYTE   W12
 BYTE   N36  Fs2  v112
 BYTE   N36  Ds3  v120
 BYTE   W36
 BYTE   N60  En2  v112
 BYTE   N60  Cs3  v120
 BYTE   W60
//  #02 //011   ----------------------------------------
 BYTE   N24  En3  v112
 BYTE   N24  Gs3  v120
 BYTE   W24
 BYTE   N36  Ds3  v112
 BYTE   N36  Fs3  v120
 BYTE   W36
 BYTE   N54  Cs3  v112
 BYTE   N54  En3  v120
 BYTE   W60
//  #02 //012   ----------------------------------------
 BYTE   N12  Bn2  v112
 BYTE   N12  Ds3  v120
 BYTE   W12
 BYTE   Cs3  v112
 BYTE   N12  En3  v120
 BYTE   W12
 BYTE   N36  Gs2  v112
 BYTE   N36  Ds3  v120
 BYTE   W36
 BYTE   N42  En2  v112
 BYTE   N42  Gs2  v120
 BYTE   W48
//  #02 //013   ----------------------------------------
 BYTE   N24  Bn2  v112
 BYTE   N24  Ds3  v120
 BYTE   W24
 BYTE   N12  Cs3  v112
 BYTE   N12  En3  v120
 BYTE   W12
 BYTE   Ds3  v112
 BYTE   N12  Fs3  v120
 BYTE   W12
 BYTE   Cs3  v112
 BYTE   N12  En3  v120
 BYTE   W12
 BYTE   N36  Bn2  v112
 BYTE   N36  Ds3  v120
 BYTE   W60
//  #02 //014   ----------------------------------------
 BYTE   N24  Bn2  v112
 BYTE   N24  Ds3  v120
 BYTE   W24
 BYTE   N12  Cs3  v112
 BYTE   N12  En3  v120
 BYTE   W12
 BYTE   N36  Gs2  v112
 BYTE   N36  Ds3  v120
 BYTE   W36
 BYTE   N24  Gs2  v112
 BYTE   N24  Cs3  v120
 BYTE   W24
//  #02 //015   ----------------------------------------
 BYTE   N12  Gs2  v112
 BYTE   N12  Ds3  v120
 BYTE   W96
//  #02 //016   ----------------------------------------
 BYTE   W48
 BYTE   Cs3  v064
 BYTE   W12
 BYTE   N06  Gs3  v100
 BYTE   N06  Cs4  v112
 BYTE   W06
 BYTE   Gs3  v092
 BYTE   N06  Ds4  v100
 BYTE   W06
 BYTE   Cs4  v092
 BYTE   N06  En4  v100
 BYTE   W06
 BYTE   Ds4  v096
 BYTE   N06  Fs4  v108
 BYTE   W06
 BYTE   N12  Cs3  v120
 BYTE   W12
//  #02 //017   ----------------------------------------
 BYTE   N06  En3
 BYTE   N06  Gs3  v127
 BYTE   W06
 BYTE   Ds3  v120
 BYTE   N06  Fs3  v127
 BYTE   W06
 BYTE   N30  En3  v120
 BYTE   N30  Gs3  v127
 BYTE   W36
 BYTE   N12  Fs3  v120
 BYTE   N12  An3  v127
 BYTE   W12
 BYTE   Gs3  v120
 BYTE   N12  Bn3  v127
 BYTE   W12
 BYTE   Fs3  v120
 BYTE   N12  An3  v127
 BYTE   W12
 BYTE   En3  v120
 BYTE   N12  Gs3  v127
 BYTE   W12
//  #02 //018   ----------------------------------------
 BYTE   Ds3  v120
 BYTE   N12  Fs3  v127
 BYTE   W12
 BYTE   N06  Cs3  v120
 BYTE   W12
 BYTE   En3
 BYTE   N06  Gs3  v127
 BYTE   W06
 BYTE   Ds3  v120
 BYTE   N06  Fs3  v127
 BYTE   W06
 BYTE   N30  Ds3  v120
 BYTE   N30  Gs3  v127
 BYTE   W36
 BYTE   N12  Fs3  v120
 BYTE   N12  An3  v127
 BYTE   W12
 BYTE   Fs3  v120
 BYTE   N12  Bn3  v127
 BYTE   W12
//  #02 //019   ----------------------------------------
 BYTE   Fs3  v120
 BYTE   N12  Cs4  v127
 BYTE   W12
 BYTE   Gs3  v120
 BYTE   N12  Bn3  v127
 BYTE   W12
 BYTE   Fs3  v120
 BYTE   N12  An3  v127
 BYTE   W12
 BYTE   N06  Cs3  v120
 BYTE   W12
 BYTE   En3
 BYTE   N06  Gs3  v127
 BYTE   W06
 BYTE   Ds3  v120
 BYTE   N06  Fs3  v127
 BYTE   W06
 BYTE   N30  En3  v120
 BYTE   N30  Gs3  v127
 BYTE   W36
//  #02 //020   ----------------------------------------
 BYTE   N12  Ds3  v120
 BYTE   N12  Fs3  v127
 BYTE   W12
 BYTE   Cs3  v120
 BYTE   N12  En3  v127
 BYTE   W12
 BYTE   Bn2  v120
 BYTE   N12  Ds3  v127
 BYTE   W12
 BYTE   Cs3  v120
 BYTE   N12  En3  v127
 BYTE   W12
 BYTE   Ds3  v120
 BYTE   N12  Fs3  v127
 BYTE   W12
 BYTE   N06  Cs3  v120
 BYTE   W18
 BYTE   N04  En3
 BYTE   N04  Gs3  v127
 BYTE   W06
 BYTE   N96  En3  v120
 BYTE   N96  Gs3  v127
 BYTE   W96
//  #02 //021   ----------------------------------------
 BYTE   N06  Cs3  v120
 BYTE   W12
 BYTE   En3
 BYTE   N06  Gs3  v127
 BYTE   W06
 BYTE   Ds3  v120
 BYTE   N06  Fs3  v127
 BYTE   W06
 BYTE   N30  En3  v120
 BYTE   N30  Gs3  v127
 BYTE   W36
 BYTE   N12  Fs3  v120
 BYTE   N12  An3  v127
 BYTE   W12
 BYTE   Gs3  v120
 BYTE   N12  Bn3  v127
 BYTE   W12
 BYTE   Fs3  v120
 BYTE   N12  An3  v127
 BYTE   W12
//  #02 //022   ----------------------------------------
 BYTE   En3  v120
 BYTE   N12  Gs3  v127
 BYTE   W12
 BYTE   Ds3  v120
 BYTE   N12  Fs3  v127
 BYTE   W12
 BYTE   N06  Cs3  v120
 BYTE   W12
 BYTE   En3
 BYTE   N06  Gs3  v127
 BYTE   W06
 BYTE   Ds3  v120
 BYTE   N06  Fs3  v127
 BYTE   W06
 BYTE   N30  Ds3  v120
 BYTE   N30  Gs3  v127
 BYTE   W36
 BYTE   N12  Fs3  v120
 BYTE   N12  An3  v127
 BYTE   W12
//  #02 //023   ----------------------------------------
 BYTE   Fs3  v120
 BYTE   N12  Bn3  v127
 BYTE   W12
 BYTE   Fs3  v120
 BYTE   N12  Cs4  v127
 BYTE   W12
 BYTE   Gs3  v120
 BYTE   N12  Bn3  v127
 BYTE   W12
 BYTE   Fs3  v120
 BYTE   N12  An3  v127
 BYTE   W12
 BYTE   N06  Cs3  v120
 BYTE   W12
 BYTE   En3
 BYTE   N06  Gs3  v127
 BYTE   W06
 BYTE   Ds3  v120
 BYTE   N06  Fs3  v127
 BYTE   W06
 BYTE   N30  En3  v120
 BYTE   N30  Gs3  v127
 BYTE   W36
//  #02 //024   ----------------------------------------
 BYTE   N12  Ds3  v120
 BYTE   N12  Fs3  v127
 BYTE   W12
 BYTE   Cs3  v120
 BYTE   N12  En3  v127
 BYTE   W12
 BYTE   Bn2  v120
 BYTE   N12  Ds3  v127
 BYTE   W12
 BYTE   Cs3  v120
 BYTE   N12  En3  v127
 BYTE   W12
 BYTE   Ds3  v120
 BYTE   N12  Fs3  v127
 BYTE   W12
 BYTE   N06  Cs3  v120
 BYTE   W18
 BYTE   N04  En3
 BYTE   N04  Gs3  v127
 BYTE   W06
 BYTE   N84  En3  v120
 BYTE   N84  Gs3  v127
 BYTE   W96
//  #02 //025   ----------------------------------------
 BYTE   W96
//  #02 //026   ----------------------------------------
 BYTE   W96
//  #02 //027   ----------------------------------------
 BYTE   W96
//  #02 //028   ----------------------------------------
 BYTE   W96
//  #02 //029   ----------------------------------------
 BYTE   W96
//  #02 //030   ----------------------------------------
 BYTE   W96
//  #02 //031   ----------------------------------------
 BYTE   W96
//  #02 //032   ----------------------------------------
 BYTE   W96
//  #02 //033   ----------------------------------------
 BYTE   W96
//  #02 //034   ----------------------------------------
 BYTE   W48
 BYTE   N08  As2  v120
 BYTE   N08  Fs2  v116
 BYTE   W06
 BYTE   N02  Gs2
 BYTE   W02
 BYTE   N04  Bn2  v120
 BYTE   W04
 BYTE   As2  v116
 BYTE   W04
 BYTE   N08  Cs3  v120
 BYTE   W08
 BYTE   N06  Bn2  v116
 BYTE   N08  Ds3  v120
 BYTE   W06
 BYTE   N02  Cs3
 BYTE   W02
 BYTE   N04  En3
 BYTE   W04
 BYTE   Ds3
 BYTE   W04
 BYTE   N08  Fs3  v127
 BYTE   W08
//  #02 //035   ----------------------------------------
 BYTE   N36  Cs3  v120
 BYTE   N36  Gs3  v127
 BYTE   W36
 BYTE   Gs3  v120
 BYTE   N36  Cs4  v127
 BYTE   W36
 BYTE   N24  Gs3  v120
 BYTE   N24  Ds4  v127
 BYTE   W24
//  #02 //036   ----------------------------------------
 BYTE   Cs4  v120
 BYTE   N24  Gs4  v127
 BYTE   W24
 BYTE   N36  Cs3  v120
 BYTE   N36  Gs3  v127
 BYTE   W36
 BYTE   N24  Gs3  v120
 BYTE   N36  Cs4  v127
 BYTE   W36
//  #02 //037   ----------------------------------------
Label_019A52AC:
 BYTE   N24  Gs3  v120
 BYTE   N24  Ds4  v127
 BYTE   W24
 BYTE   N21  Cs4  v120
 BYTE   N21  Gs4  v127
 BYTE   W24
 BYTE   N36  Cs4  v120
 BYTE   N36  Gs4  v127
 BYTE   W36
 BYTE   Cs4  v120
 BYTE   N36  Fs4  v127
 BYTE   W36
 BYTE   PEND 
//  #02 //038   ----------------------------------------
Label_019A52C8:
 BYTE   N24  An3  v120
 BYTE   N24  Cs4  v127
 BYTE   W24
 BYTE   An3  v120
 BYTE   N24  Ds4  v127
 BYTE   W24
 BYTE   N36  Cs4  v120
 BYTE   N36  En4  v127
 BYTE   W36
 BYTE   Cn4  v120
 BYTE   N36  Ds4  v127
 BYTE   W36
 BYTE   PEND 
//  #02 //039   ----------------------------------------
Label_019A52E3:
 BYTE   N24  Ds4  v120
 BYTE   N24  Fs4  v127
 BYTE   W24
 BYTE   N21  Gs3  v120
 BYTE   N21  Cn4  v127
 BYTE   W24
 BYTE   N36  Cs3  v120
 BYTE   N36  Gs3  v127
 BYTE   W36
 BYTE   Gs3  v120
 BYTE   N36  Cs4  v127
 BYTE   W36
 BYTE   PEND 
//  #02 //040   ----------------------------------------
Label_019A52FF:
 BYTE   N24  Gs3  v120
 BYTE   N24  Ds4  v127
 BYTE   W24
 BYTE   Cs4  v120
 BYTE   N24  Gs4  v127
 BYTE   W24
 BYTE   N36  En4  v120
 BYTE   N36  Bn4  v127
 BYTE   W36
 BYTE   N24  En4  v120
 BYTE   N36  An4  v127
 BYTE   W36
 BYTE   PEND 
//  #02 //041   ----------------------------------------
Label_019A531B:
 BYTE   N24  En4  v120
 BYTE   N24  Gs4  v127
 BYTE   W24
 BYTE   N21  En4  v120
 BYTE   N21  An4  v127
 BYTE   W24
 BYTE   N36  En4  v120
 BYTE   N36  Gs4  v127
 BYTE   W36
 BYTE   Ds4  v120
 BYTE   N36  Fs4  v127
 BYTE   W36
 BYTE   PEND 
//  #02 //042   ----------------------------------------
 BYTE   N24  En4  v120
 BYTE   N24  Gs4  v127
 BYTE   W24
 BYTE   Fs4  v120
 BYTE   N24  An4  v127
 BYTE   W24
 BYTE   N36  Cn4  v120
 BYTE   N36  Ds4  v127
 BYTE   W36
 BYTE   Ds4  v120
 BYTE   N36  An4  v127
 BYTE   W36
//  #02 //043   ----------------------------------------
 BYTE   N44  Ds4  v120
 BYTE   N44  Gs4  v127
 BYTE   W96
//  #02 //044   ----------------------------------------
 BYTE   W72
 BYTE   N60  Cs4  v076
 BYTE   W96
//  #02 //045   ----------------------------------------
 BYTE   W24
 BYTE   N36  Dn4  v078
 BYTE   W96
//  #02 //046   ----------------------------------------
 BYTE   W24
 BYTE   N12  Cs3  v064
 BYTE   W96
//  #02 //047   ----------------------------------------
 BYTE   W24
 BYTE   N36  Dn3  v066
 BYTE   N36  Cs3  v120
 BYTE   N36  Gs3  v127
 BYTE   W36
 BYTE   Gs3  v120
 BYTE   N36  Cs4  v127
 BYTE   W36
//  #02 //048   ----------------------------------------
 BYTE   N48  Gs3  v120
 BYTE   W24
 BYTE   N24  Cs4
 BYTE   N24  Gs4  v127
 BYTE   W24
 BYTE   N36  Cs3  v120
 BYTE   N36  Gs3  v127
 BYTE   W36
 BYTE   N24  Gs3  v120
 BYTE   N36  Cs4  v127
 BYTE   W36
//  #02 //049   ----------------------------------------
 BYTE   PATT
  POIN2 Label_019A52AC
//  #02 //050   ----------------------------------------
 BYTE   PATT
  POIN2 Label_019A52C8
//  #02 //051   ----------------------------------------
 BYTE   PATT
  POIN2 Label_019A52E3
//  #02 //052   ----------------------------------------
 BYTE   PATT
  POIN2 Label_019A52FF
//  #02 //053   ----------------------------------------
 BYTE   PATT
  POIN2 Label_019A531B
//  #02 //054   ----------------------------------------
 BYTE   N24  En4  v120
 BYTE   N24  Gs4  v127
 BYTE   W24
 BYTE   Fs4  v120
 BYTE   N24  An4  v127
 BYTE   W24
 BYTE   N12  Cn4  v120
 BYTE   N12  Ds4  v127
 BYTE   W36
 BYTE   N36  Ds4  v120
 BYTE   N36  An4  v127
 BYTE   W36
//  #02 //055   ----------------------------------------
 BYTE   N48  Ds4  v120
 BYTE   N48  Gs4  v127
 BYTE   W96
//  #02 //056   ----------------------------------------
 BYTE   W96
//  #02 //057   ----------------------------------------
 BYTE   W96
//  #02 //058   ----------------------------------------
 BYTE   W96
//  #02 //059   ----------------------------------------
 BYTE   W96
//  #02 //060   ----------------------------------------
 BYTE   W48
 BYTE   GoTo
  POIN2 Label_019A4EA8
 BYTE   FINE

//**************** Track 3 (Midi-Chn.2) ****************//

songA8_003:
//  #03 //000   ----------------------------------------
Label_01982A1C:
 BYTE   TEMPO   154*songA8_tbs/2
 BYTE   KEYSH   songA8_key+0
 BYTE   VOICE   68
 BYTE   VOL   36*songA8_mvl/mxv
 BYTE   PAN   c_v+0
 BYTE   W96
//  #03 //001   ----------------------------------------
 BYTE   W96
//  #03 //002   ----------------------------------------
 BYTE   W96
//  #03 //003   ----------------------------------------
 BYTE   W96
//  #03 //004   ----------------------------------------
 BYTE   W96
//  #03 //005   ----------------------------------------
 BYTE   W96
//  #03 //006   ----------------------------------------
 BYTE   W96
//  #03 //007   ----------------------------------------
 BYTE   W96
//  #03 //008   ----------------------------------------
 BYTE   W96
//  #03 //009   ----------------------------------------
 BYTE   W84
 BYTE   N04  En3  v127
 BYTE   W04
 BYTE   Fs3  v112
 BYTE   W04
 BYTE   Gs3
 BYTE   W04
//  #03 //010   ----------------------------------------
 BYTE   An3  v116
 BYTE   W04
 BYTE   Bn3  v120
 BYTE   W04
 BYTE   Cs4  v127
 BYTE   W04
 BYTE   N36  Ds4  v112
 BYTE   W36
 BYTE   N42  Gs3
 BYTE   W48
//  #03 //011   ----------------------------------------
 BYTE   N24  Ds4
 BYTE   W24
 BYTE   N12  En4
 BYTE   W12
 BYTE   Fs4
 BYTE   W12
 BYTE   En4
 BYTE   W12
 BYTE   N48  Ds4
 BYTE   W60
//  #03 //012   ----------------------------------------
 BYTE   N24
 BYTE   W24
 BYTE   N12  En4
 BYTE   W12
 BYTE   N36  Ds4
 BYTE   W36
 BYTE   N60  Cs4
 BYTE   W60
//  #03 //013   ----------------------------------------
 BYTE   N24  Gs4
 BYTE   W24
 BYTE   N36  Fs4
 BYTE   W36
 BYTE   N54  En4
 BYTE   W60
//  #03 //014   ----------------------------------------
 BYTE   N12  Ds4
 BYTE   N24  Gs3  v108
 BYTE   W12
 BYTE   N12  En4  v112
 BYTE   W12
 BYTE   N36  Gs3  v108
 BYTE   N36  Ds4  v112
 BYTE   W36
 BYTE   N42  Cs3  v108
 BYTE   N42  Gs3  v112
 BYTE   W48
//  #03 //015   ----------------------------------------
 BYTE   N24  Gs3  v108
 BYTE   N24  Ds4  v112
 BYTE   W24
 BYTE   N12  Gs3  v108
 BYTE   N12  En4  v112
 BYTE   W12
 BYTE   Ds4  v108
 BYTE   N12  Fs4  v112
 BYTE   W12
 BYTE   Gs3  v108
 BYTE   N12  En4  v112
 BYTE   W12
 BYTE   N48  Gs3  v108
 BYTE   N48  Ds4  v112
 BYTE   W60
//  #03 //016   ----------------------------------------
 BYTE   N24  Gs3  v108
 BYTE   N24  Ds4  v112
 BYTE   W24
 BYTE   N12  Gs3  v108
 BYTE   N12  En4  v112
 BYTE   W12
 BYTE   N36  Gs3  v108
 BYTE   N36  Ds4  v112
 BYTE   W36
 BYTE   N24  Gs3  v108
 BYTE   N24  Cs4  v112
 BYTE   W24
//  #03 //017   ----------------------------------------
 BYTE   N12  Gs3  v108
 BYTE   N12  Ds4  v112
 BYTE   W12
 BYTE   N96  En4
 BYTE   N96  Cs4  v108
 BYTE   W96
//  #03 //018   ----------------------------------------
 BYTE   N36  En4  v112
 BYTE   N36  Cs4  v108
 BYTE   W36
 BYTE   N24  Cs4  v076
 BYTE   W96
//  #03 //019   ----------------------------------------
 BYTE   W96
//  #03 //020   ----------------------------------------
 BYTE   W96
//  #03 //021   ----------------------------------------
 BYTE   W96
//  #03 //022   ----------------------------------------
 BYTE   W96
//  #03 //023   ----------------------------------------
 BYTE   W96
//  #03 //024   ----------------------------------------
 BYTE   W96
//  #03 //025   ----------------------------------------
 BYTE   W96
//  #03 //026   ----------------------------------------
 BYTE   W96
//  #03 //027   ----------------------------------------
 BYTE   W96
//  #03 //028   ----------------------------------------
 BYTE   W12
 BYTE   N04  En3  v127
 BYTE   W04
 BYTE   Fs3  v116
 BYTE   W04
 BYTE   Gs3
 BYTE   W04
 BYTE   An3  v120
 BYTE   W04
 BYTE   Bn3  v127
 BYTE   W04
 BYTE   Cs4
 BYTE   W04
 BYTE   N12  Ds4
 BYTE   W24
 BYTE   N36
 BYTE   W36
//  #03 //029   ----------------------------------------
 BYTE   N09  En4
 BYTE   W12
 BYTE   N12  Ds4
 BYTE   W12
 BYTE   N09  Cs4
 BYTE   W12
 BYTE   N12  Ds4
 BYTE   W12
 BYTE   En4
 BYTE   W12
 BYTE   N24  Fs4
 BYTE   W24
 BYTE   N36  Ds4
 BYTE   W36
//  #03 //030   ----------------------------------------
 BYTE   N09  En4
 BYTE   W12
 BYTE   N12  Ds4
 BYTE   W12
 BYTE   N09  Cs4
 BYTE   W12
 BYTE   N12  Ds4
 BYTE   W12
 BYTE   En4
 BYTE   W12
 BYTE   N54  Ds4
 BYTE   W60
//  #03 //031   ----------------------------------------
 BYTE   N06  En4
 BYTE   W06
 BYTE   Fs4
 BYTE   W06
 BYTE   N12  Gs4
 BYTE   W12
 BYTE   N06  Fs4
 BYTE   W06
 BYTE   En4
 BYTE   W06
 BYTE   N24  Ds4
 BYTE   W24
 BYTE   N12  Cs4
 BYTE   W18
 BYTE   N06  Gs4
 BYTE   W06
 BYTE   N84
 BYTE   W96
//  #03 //032   ----------------------------------------
 BYTE   N12  Ds4
 BYTE   W24
 BYTE   N36
 BYTE   W36
 BYTE   N09  En4
 BYTE   W12
 BYTE   N12  Ds4
 BYTE   W12
 BYTE   N09  Cs4
 BYTE   W12
//  #03 //033   ----------------------------------------
 BYTE   N12  Ds4
 BYTE   W12
 BYTE   En4
 BYTE   W12
 BYTE   N24  Fs4
 BYTE   W24
 BYTE   N36  Ds4
 BYTE   W36
 BYTE   N09  En4
 BYTE   W12
//  #03 //034   ----------------------------------------
 BYTE   N12  Ds4
 BYTE   W12
 BYTE   N09  Cs4
 BYTE   W12
 BYTE   N12  Ds4
 BYTE   W12
 BYTE   En4
 BYTE   W12
 BYTE   N36  Ds4
 BYTE   W60
//  #03 //035   ----------------------------------------
 BYTE   N06  En4
 BYTE   W06
 BYTE   Ds4
 BYTE   W06
 BYTE   N12  Cs4
 BYTE   W12
 BYTE   N06  Ds4
 BYTE   W06
 BYTE   En4
 BYTE   W06
 BYTE   N12  Fs4
 BYTE   W12
 BYTE   N06  Gs4
 BYTE   W12
 BYTE   N12  Ds4
 BYTE   W18
 BYTE   N06  Cs4
 BYTE   W06
 BYTE   N84  Gs3
 BYTE   W96
//  #03 //036   ----------------------------------------
 BYTE   W96
//  #03 //037   ----------------------------------------
 BYTE   W96
//  #03 //038   ----------------------------------------
 BYTE   W96
//  #03 //039   ----------------------------------------
 BYTE   W96
//  #03 //040   ----------------------------------------
 BYTE   W96
//  #03 //041   ----------------------------------------
 BYTE   W96
//  #03 //042   ----------------------------------------
 BYTE   W96
//  #03 //043   ----------------------------------------
 BYTE   W96
//  #03 //044   ----------------------------------------
 BYTE   W96
//  #03 //045   ----------------------------------------
 BYTE   W72
 BYTE   N04  Ds3  v116
 BYTE   W04
 BYTE   En3
 BYTE   W04
 BYTE   Fs3
 BYTE   W04
 BYTE   Gs3  v120
 BYTE   W04
 BYTE   An3
 BYTE   W04
 BYTE   Bn3
 BYTE   W04
//  #03 //046   ----------------------------------------
 BYTE   N36  Cs4
 BYTE   W36
 BYTE   N84  Gs4
 BYTE   W84
//  #03 //047   ----------------------------------------
 BYTE   N36  Fs4
 BYTE   W36
 BYTE   N84  Cs5
 BYTE   W84
//  #03 //048   ----------------------------------------
 BYTE   N36  An3
 BYTE   N36  Cs4
 BYTE   W36
 BYTE   N84
 BYTE   N84  Gs4
 BYTE   W84
//  #03 //049   ----------------------------------------
 BYTE   N36  Cs4
 BYTE   N36  Fs4
 BYTE   W36
 BYTE   Fs4
 BYTE   N36  Cs5
 BYTE   W36
 BYTE   N48  Fs4
 BYTE   N48  Bn4
 BYTE   W96
//  #03 //050   ----------------------------------------
 BYTE   W96
//  #03 //051   ----------------------------------------
 BYTE   W96
//  #03 //052   ----------------------------------------
 BYTE   W96
//  #03 //053   ----------------------------------------
 BYTE   W96
//  #03 //054   ----------------------------------------
 BYTE   W96
//  #03 //055   ----------------------------------------
 BYTE   W96
//  #03 //056   ----------------------------------------
 BYTE   W96
//  #03 //057   ----------------------------------------
 BYTE   W96
//  #03 //058   ----------------------------------------
 BYTE   W96
//  #03 //059   ----------------------------------------
 BYTE   W96
//  #03 //060   ----------------------------------------
 BYTE   W96
//  #03 //061   ----------------------------------------
 BYTE   W96
//  #03 //062   ----------------------------------------
 BYTE   W96
//  #03 //063   ----------------------------------------
 BYTE   W96
//  #03 //064   ----------------------------------------
 BYTE   W48
 BYTE   GoTo
  POIN2 Label_01982A1C
 BYTE   FINE

//**************** Track 4 (Midi-Chn.3) ****************//

songA8_004:
//  #04 //000   ----------------------------------------
Label_019825DC:
 BYTE   TEMPO   154*songA8_tbs/2
 BYTE   KEYSH   songA8_key+0
 BYTE   VOICE   60
 BYTE   VOL   33*songA8_mvl/mxv
 BYTE   PAN   c_v+1
 BYTE   W12
 BYTE   N96  Cs2  v120
 BYTE   W96
//  #04 //001   ----------------------------------------
Label_019825EB:
 BYTE   N24  Cs2  v120
 BYTE   W24
 BYTE   N96  Ds2
 BYTE   N96  Bn1  v100
 BYTE   W96
 BYTE   PEND 
//  #04 //002   ----------------------------------------
Label_019825F6:
 BYTE   N24  Ds2  v120
 BYTE   N24  Bn1  v100
 BYTE   W24
 BYTE   N36  Bn1  v051
 BYTE   N96  Cs2  v100
 BYTE   N96  En2  v120
 BYTE   W96
//  #04 //003   ----------------------------------------
 BYTE   W96
//  #04 //004   ----------------------------------------
 BYTE   W48
 BYTE   PEND 
 BYTE   N96  Cs2  v120
 BYTE   W96
//  #04 //005   ----------------------------------------
 BYTE   PATT
  POIN2 Label_019825EB
//  #04 //006   ----------------------------------------
 BYTE   PATT
  POIN2 Label_019825F6
//  #04 //007   ----------------------------------------
 BYTE   N96  Cs3  v127
 BYTE   N96  An2  v112
 BYTE   W96
//  #04 //008   ----------------------------------------
 BYTE   N24  Cs3  v127
 BYTE   N24  An2  v112
 BYTE   W24
 BYTE   N60  An2  v061
 BYTE   N96  Ds3  v120
 BYTE   N96  Bn2  v100
 BYTE   W96
//  #04 //009   ----------------------------------------
Label_01982630:
 BYTE   N24  Ds3  v120
 BYTE   N24  Bn2  v100
 BYTE   W24
 BYTE   N36  Bn2  v063
 BYTE   N96  En3  v120
 BYTE   N96  Cs3  v100
 BYTE   W96
 BYTE   PEND 
//  #04 //010   ----------------------------------------
Label_01982642:
 BYTE   N96  En3  v120
 BYTE   N96  Cs3  v100
 BYTE   W96
 BYTE   PEND 
//  #04 //011   ----------------------------------------
 BYTE   N18  En3  v120
 BYTE   N18  Cs3  v100
 BYTE   W18
 BYTE   N06  Cs3  v064
 BYTE   W06
 BYTE   N96  Bn2  v100
 BYTE   N96  Ds3  v120
 BYTE   W24
 BYTE   An2  v112
 BYTE   N96  Cs3  v127
 BYTE   W72
//  #04 //012   ----------------------------------------
 BYTE   N12  Ds3  v120
 BYTE   N12  Bn2  v100
 BYTE   W24
 BYTE   N24  Cs3  v127
 BYTE   N24  An2  v112
 BYTE   W24
 BYTE   N60  An2  v061
 BYTE   N96  Ds3  v120
 BYTE   N96  Bn2  v100
 BYTE   W96
//  #04 //013   ----------------------------------------
 BYTE   PATT
  POIN2 Label_01982630
//  #04 //014   ----------------------------------------
 BYTE   PATT
  POIN2 Label_01982642
//  #04 //015   ----------------------------------------
 BYTE   N36  En3  v120
 BYTE   N36  Cs3  v100
 BYTE   W36
 BYTE   N12  Cs3  v064
 BYTE   W12
 BYTE   N96  Cs2  v120
 BYTE   W96
//  #04 //016   ----------------------------------------
Label_01982693:
 BYTE   N24  Cs2  v120
 BYTE   W24
 BYTE   N60
 BYTE   N96  Ds2
 BYTE   N96  Bn1  v100
 BYTE   W96
 BYTE   PEND 
//  #04 //017   ----------------------------------------
 BYTE   PATT
  POIN2 Label_019825F6
//  #04 //018   ----------------------------------------
 BYTE   N96  Cs2  v120
 BYTE   W96
//  #04 //019   ----------------------------------------
 BYTE   PATT
  POIN2 Label_01982693
//  #04 //020   ----------------------------------------
 BYTE   N24  Ds2  v120
 BYTE   N24  Bn1  v100
 BYTE   W24
 BYTE   N36  Bn1  v051
 BYTE   N96  Cs2  v100
 BYTE   N96  En2  v120
 BYTE   W96
//  #04 //021   ----------------------------------------
 BYTE   W96
//  #04 //022   ----------------------------------------
 BYTE   W96
//  #04 //023   ----------------------------------------
 BYTE   W96
//  #04 //024   ----------------------------------------
 BYTE   W96
//  #04 //025   ----------------------------------------
 BYTE   W96
//  #04 //026   ----------------------------------------
 BYTE   W96
//  #04 //027   ----------------------------------------
 BYTE   W96
//  #04 //028   ----------------------------------------
 BYTE   W96
//  #04 //029   ----------------------------------------
 BYTE   W96
//  #04 //030   ----------------------------------------
 BYTE   W96
//  #04 //031   ----------------------------------------
 BYTE   W96
//  #04 //032   ----------------------------------------
 BYTE   W48
Label_019826CA:
 BYTE   N96  En2  v120
 BYTE   N96  Cs3
 BYTE   W96
 BYTE   PEND 
//  #04 //033   ----------------------------------------
Label_019826D1:
 BYTE   N24  Bn2  v120
 BYTE   N24  Ds3
 BYTE   W24
 BYTE   N96  En3
 BYTE   N96  An2
 BYTE   W96
 BYTE   PEND 
//  #04 //034   ----------------------------------------
 BYTE   N24  En3  v120
 BYTE   N24  An2
 BYTE   W24
 BYTE   N36  An2  v064
 BYTE   N96  Cs3
 BYTE   N96  Fs2
 BYTE   W96
//  #04 //035   ----------------------------------------
 BYTE   N24  Cs3
 BYTE   N24  Fs2
 BYTE   W24
 BYTE   N12  Fs2  v061
 BYTE   N72  Cn3
 BYTE   W72
//  #04 //036   ----------------------------------------
 BYTE   N96  Gs2  v120
 BYTE   N96  Cn3
 BYTE   W48
 BYTE   Cs3
 BYTE   N96  En2
 BYTE   W48
//  #04 //037   ----------------------------------------
 BYTE   Gs2
 BYTE   N96  Cn3
 BYTE   W48
 BYTE   N24  Ds3
 BYTE   N24  Bn2
 BYTE   W24
 BYTE   N96  En3
 BYTE   N96  An2
 BYTE   W24
//  #04 //038   ----------------------------------------
Label_0198270E:
 BYTE   N36  Cn3  v120
 BYTE   N36  Gs2
 BYTE   W72
 BYTE   N24  En3
 BYTE   N24  An2
 BYTE   W24
 BYTE   PEND 
//  #04 //039   ----------------------------------------
Label_0198271A:
 BYTE   N36  An2  v064
 BYTE   N96  Cs3  v120
 BYTE   N96  Fs2
 BYTE   W96
 BYTE   PEND 
//  #04 //040   ----------------------------------------
 BYTE   N24  Cs3  v120
 BYTE   N24  Fs2
 BYTE   W24
 BYTE   N12  Fs2  v061
 BYTE   N72  Cn3
 BYTE   W96
//  #04 //041   ----------------------------------------
 BYTE   W96
//  #04 //042   ----------------------------------------
 BYTE   W96
//  #04 //043   ----------------------------------------
 BYTE   W96
//  #04 //044   ----------------------------------------
 BYTE   W96
//  #04 //045   ----------------------------------------
 BYTE   W96
//  #04 //046   ----------------------------------------
 BYTE   W24
//  #04 //047   ----------------------------------------
 BYTE   PATT
  POIN2 Label_019826CA
//  #04 //048   ----------------------------------------
 BYTE   PATT
  POIN2 Label_019826D1
//  #04 //049   ----------------------------------------
 BYTE   N24  En3  v120
 BYTE   N24  An2
 BYTE   W24
 BYTE   N36  An2  v064
 BYTE   N96  Cs3  v120
 BYTE   N96  Fs2
 BYTE   W96
//  #04 //050   ----------------------------------------
Label_0198274F:
 BYTE   N24  Cs3  v120
 BYTE   N24  Fs2
 BYTE   W24
 BYTE   N12  Fs2  v061
 BYTE   N72  Cn3
 BYTE   W72
 BYTE   PEND 
//  #04 //051   ----------------------------------------
 BYTE   N96  Cn3  v120
 BYTE   N96  Gs2
 BYTE   W48
 BYTE   En2
 BYTE   N96  Cs3
 BYTE   W48
//  #04 //052   ----------------------------------------
 BYTE   Cn3
 BYTE   N96  Gs2
 BYTE   W48
 BYTE   N24  Ds3
 BYTE   N24  Bn2
 BYTE   W24
 BYTE   N96  An2
 BYTE   N96  En3
 BYTE   W24
//  #04 //053   ----------------------------------------
 BYTE   PATT
  POIN2 Label_0198270E
//  #04 //054   ----------------------------------------
 BYTE   PATT
  POIN2 Label_0198271A
//  #04 //055   ----------------------------------------
 BYTE   PATT
  POIN2 Label_0198274F
//  #04 //056   ----------------------------------------
 BYTE   N36  Gs2  v120
 BYTE   N36  Cn3
 BYTE   W48
 BYTE   N96  Cs3
 BYTE   N96  Gs2
 BYTE   W96
//  #04 //057   ----------------------------------------
Label_0198278E:
 BYTE   N96  Cs3  v120
 BYTE   N96  Gs2
 BYTE   W96
 BYTE   PEND 
//  #04 //058   ----------------------------------------
 BYTE   N96  Gs2  v120
 BYTE   N96  Cs3
 BYTE   W96
//  #04 //059   ----------------------------------------
 BYTE   PATT
  POIN2 Label_0198278E
//  #04 //060   ----------------------------------------
 BYTE   PATT
  POIN2 Label_0198278E
//  #04 //061   ----------------------------------------
 BYTE   GoTo
  POIN2 Label_019825DC
 BYTE   FINE

//**************** Track 5 (Midi-Chn.4) ****************//

songA8_005:
//  #05 //000   ----------------------------------------
Label_0198136C:
 BYTE   TEMPO   154*songA8_tbs/2
 BYTE   KEYSH   songA8_key+0
 BYTE   VOICE   60
 BYTE   VOL   33*songA8_mvl/mxv
 BYTE   PAN   c_v-2
 BYTE   W96
//  #05 //001   ----------------------------------------
 BYTE   W96
//  #05 //002   ----------------------------------------
 BYTE   W96
//  #05 //003   ----------------------------------------
 BYTE   W60
 BYTE   N24  Cs2  v120
 BYTE   W24
 BYTE   N36  Ds2
 BYTE   N96  Gs1  v112
 BYTE   W36
//  #05 //004   ----------------------------------------
 BYTE   N36  Gs2  v120
 BYTE   W36
 BYTE   N24  Fs2
 BYTE   W24
 BYTE   N12  Ds2  v112
 BYTE   N24  Bn2  v120
 BYTE   W24
 BYTE   N96  Gs2
 BYTE   N96  Cs2  v112
 BYTE   W96
//  #05 //005   ----------------------------------------
 BYTE   N24  Gs2  v120
 BYTE   N24  Cs2  v112
 BYTE   W24
 BYTE   N60  Cs2  v056
 BYTE   W96
//  #05 //006   ----------------------------------------
 BYTE   W96
//  #05 //007   ----------------------------------------
 BYTE   W24
 BYTE   N24
 BYTE   W24
 BYTE   N36  Ds2  v120
 BYTE   N96  Bn1  v112
 BYTE   W36
 BYTE   N36  Bn2  v120
 BYTE   W36
//  #05 //008   ----------------------------------------
 BYTE   N24  Gs2
 BYTE   W24
 BYTE   N12  Gs2  v112
 BYTE   N24  Ds3  v120
 BYTE   W96
//  #05 //009   ----------------------------------------
 BYTE   W96
//  #05 //010   ----------------------------------------
 BYTE   W96
//  #05 //011   ----------------------------------------
 BYTE   W96
//  #05 //012   ----------------------------------------
 BYTE   W96
//  #05 //013   ----------------------------------------
 BYTE   W96
//  #05 //014   ----------------------------------------
 BYTE   W96
//  #05 //015   ----------------------------------------
 BYTE   W96
//  #05 //016   ----------------------------------------
 BYTE   W96
//  #05 //017   ----------------------------------------
 BYTE   W96
//  #05 //018   ----------------------------------------
 BYTE   W96
//  #05 //019   ----------------------------------------
 BYTE   W96
//  #05 //020   ----------------------------------------
 BYTE   W96
//  #05 //021   ----------------------------------------
 BYTE   W72
 BYTE   Cs2
 BYTE   W24
//  #05 //022   ----------------------------------------
 BYTE   N36  Ds2  v127
 BYTE   N96  Gs1  v120
 BYTE   W36
 BYTE   N36  Gs2  v127
 BYTE   W36
 BYTE   N24  Fs2
 BYTE   W24
//  #05 //023   ----------------------------------------
 BYTE   N12  Ds2  v120
 BYTE   N96  Bn2  v127
 BYTE   W24
 BYTE   Gs2  v120
 BYTE   N96  Cs2  v112
 BYTE   W72
//  #05 //024   ----------------------------------------
 BYTE   N12  Bn2  v127
 BYTE   W24
 BYTE   N24  Gs2  v120
 BYTE   N24  Cs2  v112
 BYTE   W24
 BYTE   N60  Cs2  v056
 BYTE   W96
//  #05 //025   ----------------------------------------
 BYTE   W96
//  #05 //026   ----------------------------------------
 BYTE   W24
 BYTE   N24  Cs2  v120
 BYTE   W24
 BYTE   N36  Ds2  v127
 BYTE   N96  Bn1  v120
 BYTE   W36
 BYTE   N36  Bn2  v127
 BYTE   W36
//  #05 //027   ----------------------------------------
 BYTE   N24  Gs2
 BYTE   W24
 BYTE   N12  Gs2  v120
 BYTE   N24  Ds3  v127
 BYTE   W24
 BYTE   N96  Cs3
 BYTE   N96  Gs2  v112
 BYTE   W96
//  #05 //028   ----------------------------------------
 BYTE   N24  Cs3  v127
 BYTE   N24  Gs2  v112
 BYTE   W24
 BYTE   N60  Gs2  v127
 BYTE   N96  Ds2  v112
 BYTE   W96
//  #05 //029   ----------------------------------------
 BYTE   N24
 BYTE   N24  Fs2  v127
 BYTE   W24
 BYTE   N96  Gs2
 BYTE   N96  En2  v112
 BYTE   W96
//  #05 //030   ----------------------------------------
 BYTE   N24  Gs2  v127
 BYTE   N24  En2  v112
 BYTE   W24
 BYTE   N12  En2  v056
 BYTE   N72  Gs2  v112
 BYTE   N72  Bn2  v127
 BYTE   W72
//  #05 //031   ----------------------------------------
 BYTE   N48  Gs2  v112
 BYTE   N48  Ds3  v127
 BYTE   W48
 BYTE   N96  Cs3
 BYTE   N96  Gs2  v116
 BYTE   W96
//  #05 //032   ----------------------------------------
 BYTE   N24  Cs3  v127
 BYTE   N24  Gs2  v116
 BYTE   W24
 BYTE   N60  Gs2  v061
 BYTE   N72  Ds2  v112
 BYTE   N72  Fs2  v127
 BYTE   W72
//  #05 //033   ----------------------------------------
 BYTE   N48  Fs2  v112
 BYTE   N48  Ds3  v127
 BYTE   W48
 BYTE   N96  Cs3
 BYTE   N96  En2  v112
 BYTE   W96
//  #05 //034   ----------------------------------------
 BYTE   Cs3  v127
 BYTE   N96  En2  v112
 BYTE   W96
//  #05 //035   ----------------------------------------
 BYTE   N48  Cs3  v127
 BYTE   N48  En2  v112
 BYTE   W48
 BYTE   N84  En2  v061
 BYTE   W96
//  #05 //036   ----------------------------------------
 BYTE   W96
//  #05 //037   ----------------------------------------
 BYTE   W96
//  #05 //038   ----------------------------------------
 BYTE   W96
//  #05 //039   ----------------------------------------
 BYTE   W96
//  #05 //040   ----------------------------------------
 BYTE   W96
//  #05 //041   ----------------------------------------
 BYTE   W96
//  #05 //042   ----------------------------------------
 BYTE   W96
//  #05 //043   ----------------------------------------
 BYTE   W96
//  #05 //044   ----------------------------------------
 BYTE   W48
 BYTE   N48  Gs1  v116
 BYTE   N48  Cn2  v127
 BYTE   W48
//  #05 //045   ----------------------------------------
 BYTE   N36  An1  v120
 BYTE   N36  Cs2  v127
 BYTE   W36
 BYTE   N84  Cs2  v120
 BYTE   N84  Gs2  v127
 BYTE   W84
//  #05 //046   ----------------------------------------
 BYTE   N36  Cs2  v120
 BYTE   N36  Fs2  v127
 BYTE   W36
 BYTE   N24  Fs2  v120
 BYTE   N84  Cs3  v127
 BYTE   W36
 BYTE   N48  Fs2  v120
 BYTE   W48
//  #05 //047   ----------------------------------------
 BYTE   N96  Cs3
 BYTE   N96  En2
 BYTE   W96
//  #05 //048   ----------------------------------------
 BYTE   N24  Cs3
 BYTE   N24  En2
 BYTE   W24
 BYTE   N12  En2  v061
 BYTE   N96  Dn3
 BYTE   N96  Fs2
 BYTE   W96
//  #05 //049   ----------------------------------------
 BYTE   N24  Dn3
 BYTE   N24  Fs2
 BYTE   W24
 BYTE   N84  Fs2  v062
 BYTE   W96
//  #05 //050   ----------------------------------------
 BYTE   W96
//  #05 //051   ----------------------------------------
 BYTE   W96
//  #05 //052   ----------------------------------------
 BYTE   W96
//  #05 //053   ----------------------------------------
 BYTE   W96
//  #05 //054   ----------------------------------------
 BYTE   W96
//  #05 //055   ----------------------------------------
 BYTE   W96
//  #05 //056   ----------------------------------------
 BYTE   W96
//  #05 //057   ----------------------------------------
 BYTE   W96
//  #05 //058   ----------------------------------------
 BYTE   W96
//  #05 //059   ----------------------------------------
 BYTE   W96
//  #05 //060   ----------------------------------------
 BYTE   W96
//  #05 //061   ----------------------------------------
 BYTE   W96
//  #05 //062   ----------------------------------------
 BYTE   W96
//  #05 //063   ----------------------------------------
 BYTE   W96
//  #05 //064   ----------------------------------------
 BYTE   GoTo
  POIN2 Label_0198136C
 BYTE   FINE

//**************** Track 6 (Midi-Chn.5) ****************//

songA8_006:
//  #06 //000   ----------------------------------------
Label_01981C48:
 BYTE   TEMPO   154*songA8_tbs/2
 BYTE   KEYSH   songA8_key+0
 BYTE   VOICE   52
 BYTE   VOL   39*songA8_mvl/mxv
 BYTE   PAN   c_v+0
 BYTE   W96
//  #06 //001   ----------------------------------------
 BYTE   W96
//  #06 //002   ----------------------------------------
 BYTE   W96
//  #06 //003   ----------------------------------------
 BYTE   W96
//  #06 //004   ----------------------------------------
 BYTE   W96
//  #06 //005   ----------------------------------------
 BYTE   W96
//  #06 //006   ----------------------------------------
 BYTE   W96
//  #06 //007   ----------------------------------------
 BYTE   W96
//  #06 //008   ----------------------------------------
 BYTE   W96
//  #06 //009   ----------------------------------------
 BYTE   W96
//  #06 //010   ----------------------------------------
 BYTE   W96
//  #06 //011   ----------------------------------------
 BYTE   W96
//  #06 //012   ----------------------------------------
 BYTE   W96
//  #06 //013   ----------------------------------------
 BYTE   W96
//  #06 //014   ----------------------------------------
 BYTE   W84
 BYTE   N24  Ds3  v100
 BYTE   N24  Gs3
 BYTE   W24
//  #06 //015   ----------------------------------------
 BYTE   N96  An3
 BYTE   N96  Cs3
 BYTE   W96
//  #06 //016   ----------------------------------------
 BYTE   N24  An3
 BYTE   N24  Cs3
 BYTE   W24
 BYTE   N60  Cs3  v069
 BYTE   N96  Bn3
 BYTE   N96  Ds3
 BYTE   W96
//  #06 //017   ----------------------------------------
 BYTE   N24  Bn3
 BYTE   N24  Ds3
 BYTE   W24
 BYTE   N36  Ds3  v071
 BYTE   N96  Cs4
 BYTE   N96  En3
 BYTE   W96
//  #06 //018   ----------------------------------------
 BYTE   Cs4
 BYTE   N96  En3
 BYTE   W96
//  #06 //019   ----------------------------------------
 BYTE   N48  Cs4
 BYTE   N48  En3
 BYTE   W48
 BYTE   N84  En3  v073
 BYTE   N96  Cs4
 BYTE   W96
//  #06 //020   ----------------------------------------
 BYTE   N24
 BYTE   W24
 BYTE   N60  En3
 BYTE   N96  Ds4
 BYTE   N96  Fs3
 BYTE   W96
//  #06 //021   ----------------------------------------
 BYTE   N24  Ds4
 BYTE   N24  Fs3
 BYTE   W24
 BYTE   N36  Fs3  v075
 BYTE   N96  En4
 BYTE   N96  Gs3
 BYTE   W96
//  #06 //022   ----------------------------------------
 BYTE   N24  En4
 BYTE   N24  Gs3
 BYTE   W24
 BYTE   N12  Gs3  v076
 BYTE   N96  Ds4
 BYTE   W96
//  #06 //023   ----------------------------------------
 BYTE   N24
 BYTE   W24
 BYTE   N84  Gs3  v075
 BYTE   N96  Cs4
 BYTE   W96
//  #06 //024   ----------------------------------------
 BYTE   N24
 BYTE   W24
 BYTE   N60  Gs3  v073
 BYTE   N96  Fs4
 BYTE   N96  Bn3
 BYTE   W96
//  #06 //025   ----------------------------------------
 BYTE   N24  Fs4
 BYTE   N24  Bn3
 BYTE   W24
 BYTE   N36  Bn3  v078
 BYTE   N96  Gs4
 BYTE   N96  Cs4
 BYTE   W96
//  #06 //026   ----------------------------------------
 BYTE   N24  Gs4
 BYTE   N24  Cs4
 BYTE   W24
 BYTE   N12  Cs4  v080
 BYTE   N96  Fs4
 BYTE   N96  Bn3
 BYTE   W96
//  #06 //027   ----------------------------------------
 BYTE   N24  Fs4
 BYTE   N24  Bn3
 BYTE   W24
 BYTE   N84  Bn3  v078
 BYTE   N96  Cs3  v112
 BYTE   N96  An2
 BYTE   W96
//  #06 //028   ----------------------------------------
 BYTE   N24  Cs3
 BYTE   N24  An2
 BYTE   W24
 BYTE   N60  An2  v061
 BYTE   N96  Ds3
 BYTE   N96  Bn2
 BYTE   W96
//  #06 //029   ----------------------------------------
Label_01981CFD:
 BYTE   N24  Ds3  v061
 BYTE   N24  Bn2
 BYTE   W24
 BYTE   N36  Bn2  v063
 BYTE   N96  En3
 BYTE   N96  Cs3
 BYTE   W96
 BYTE   PEND 
//  #06 //030   ----------------------------------------
Label_01981D0C:
 BYTE   N96  En3  v063
 BYTE   N96  Cs3
 BYTE   W96
 BYTE   PEND 
//  #06 //031   ----------------------------------------
 BYTE   N24  En3  v063
 BYTE   N24  Cs3
 BYTE   W24
 BYTE   N12  Cs3  v064
 BYTE   N24  Bn2
 BYTE   N24  Ds3
 BYTE   W24
 BYTE   N96  Cs3  v120
 BYTE   N96  An2
 BYTE   W96
//  #06 //032   ----------------------------------------
 BYTE   N24  Cs3
 BYTE   N24  An2
 BYTE   W24
 BYTE   N60  An2  v061
 BYTE   N96  Ds3
 BYTE   N96  Bn2
 BYTE   W96
//  #06 //033   ----------------------------------------
 BYTE   PATT
  POIN2 Label_01981CFD
//  #06 //034   ----------------------------------------
 BYTE   PATT
  POIN2 Label_01981D0C
//  #06 //035   ----------------------------------------
 BYTE   N48  En3  v063
 BYTE   N48  Cs3
 BYTE   W48
 BYTE   N84  Cs3  v064
 BYTE   N96  Cs4  v112
 BYTE   N96  Gs3
 BYTE   W96
//  #06 //036   ----------------------------------------
Label_01981D4D:
 BYTE   N96  Cs4  v112
 BYTE   N96  Gs3
 BYTE   W96
 BYTE   PEND 
//  #06 //037   ----------------------------------------
Label_01981D54:
 BYTE   N48  Cs4  v112
 BYTE   N48  Gs3
 BYTE   W48
 BYTE   N36  Gs3  v073
 BYTE   N96  Cs4
 BYTE   N96  Fs3
 BYTE   W96
 BYTE   PEND 
//  #06 //038   ----------------------------------------
Label_01981D63:
 BYTE   N24  Cs4  v073
 BYTE   N24  Fs3
 BYTE   W24
 BYTE   N12
 BYTE   N72  Cn4
 BYTE   W72
 BYTE   PEND 
//  #06 //039   ----------------------------------------
Label_01981D6E:
 BYTE   N48  Gs3  v112
 BYTE   N48  Cn4
 BYTE   W48
 BYTE   N96  Cs4
 BYTE   N96  Gs3
 BYTE   W96
 BYTE   PEND 
//  #06 //040   ----------------------------------------
Label_01981D7A:
 BYTE   N24  Cs4  v112
 BYTE   N24  Gs3
 BYTE   W24
 BYTE   N60
 BYTE   N96  An3
 BYTE   W96
 BYTE   PEND 
//  #06 //041   ----------------------------------------
Label_01981D85:
 BYTE   N24  An3  v112
 BYTE   W24
 BYTE   N36  Cs4
 BYTE   N96  Fs3
 BYTE   W96
 BYTE   PEND 
//  #06 //042   ----------------------------------------
Label_01981D8F:
 BYTE   N24  Fs3  v112
 BYTE   W24
 BYTE   N12  Fs3  v073
 BYTE   N72  Cn4
 BYTE   W72
 BYTE   PEND 
//  #06 //043   ----------------------------------------
 BYTE   N36  Gs3  v112
 BYTE   N36  Cn4
 BYTE   W48
 BYTE   N96  Cs4  v100
 BYTE   N96  Gs3
 BYTE   W96
//  #06 //044   ----------------------------------------
 BYTE   N24  Cs4
 BYTE   N24  Gs3
 BYTE   W24
 BYTE   N60  Gs3  v073
 BYTE   N96  Dn4
 BYTE   N96  Fs3
 BYTE   W96
//  #06 //045   ----------------------------------------
 BYTE   N24  Dn4
 BYTE   N24  Fs3
 BYTE   W24
 BYTE   N36  Fs3  v074
 BYTE   N96  Cs4
 BYTE   N96  Gs3
 BYTE   W96
//  #06 //046   ----------------------------------------
 BYTE   N24  Cs4
 BYTE   N24  Gs3
 BYTE   W24
 BYTE   N12  Gs3  v073
 BYTE   N96  Dn4
 BYTE   N96  Fs3
 BYTE   W96
//  #06 //047   ----------------------------------------
 BYTE   N24  Dn4
 BYTE   N24  Fs3
 BYTE   W24
 BYTE   N84  Fs3  v074
 BYTE   N96  Cs4  v112
 BYTE   N96  Gs3
 BYTE   W96
//  #06 //048   ----------------------------------------
 BYTE   PATT
  POIN2 Label_01981D4D
//  #06 //049   ----------------------------------------
 BYTE   PATT
  POIN2 Label_01981D54
//  #06 //050   ----------------------------------------
 BYTE   PATT
  POIN2 Label_01981D63
//  #06 //051   ----------------------------------------
 BYTE   PATT
  POIN2 Label_01981D6E
//  #06 //052   ----------------------------------------
 BYTE   PATT
  POIN2 Label_01981D7A
//  #06 //053   ----------------------------------------
 BYTE   PATT
  POIN2 Label_01981D85
//  #06 //054   ----------------------------------------
 BYTE   PATT
  POIN2 Label_01981D8F
//  #06 //055   ----------------------------------------
 BYTE   PATT
  POIN2 Label_01981D6E
//  #06 //056   ----------------------------------------
 BYTE   N24  Cs4  v112
 BYTE   N24  Gs3
 BYTE   W24
 BYTE   N60  Gs3  v073
 BYTE   N96  Fs3  v100
 BYTE   N96  Bn2
 BYTE   W96
//  #06 //057   ----------------------------------------
 BYTE   N24  Fs3
 BYTE   N24  Bn2
 BYTE   W24
 BYTE   N36  Bn2  v066
 BYTE   N96  En3
 BYTE   N96  Cs3
 BYTE   W96
//  #06 //058   ----------------------------------------
 BYTE   En3
 BYTE   N96  Cs3
 BYTE   W96
//  #06 //059   ----------------------------------------
 BYTE   N48  En3
 BYTE   N48  Cs3
 BYTE   W48
 BYTE   GoTo
  POIN2 Label_01981C48
 BYTE   FINE

//**************** Track 7 (Midi-Chn.6) ****************//

songA8_007:
//  #07 //000   ----------------------------------------
Label_01980FF8:
 BYTE   TEMPO   154*songA8_tbs/2
 BYTE   KEYSH   songA8_key+0
 BYTE   VOICE   48
 BYTE   VOL   39*songA8_mvl/mxv
 BYTE   PAN   c_v+0
 BYTE   W96
//  #07 //001   ----------------------------------------
 BYTE   W96
//  #07 //002   ----------------------------------------
 BYTE   W96
//  #07 //003   ----------------------------------------
 BYTE   W96
//  #07 //004   ----------------------------------------
 BYTE   W96
//  #07 //005   ----------------------------------------
 BYTE   W96
//  #07 //006   ----------------------------------------
 BYTE   W96
//  #07 //007   ----------------------------------------
 BYTE   W96
//  #07 //008   ----------------------------------------
 BYTE   W96
//  #07 //009   ----------------------------------------
 BYTE   W96
//  #07 //010   ----------------------------------------
 BYTE   W96
//  #07 //011   ----------------------------------------
 BYTE   W96
//  #07 //012   ----------------------------------------
 BYTE   W96
//  #07 //013   ----------------------------------------
 BYTE   W96
//  #07 //014   ----------------------------------------
 BYTE   W96
//  #07 //015   ----------------------------------------
 BYTE   W96
//  #07 //016   ----------------------------------------
 BYTE   W96
//  #07 //017   ----------------------------------------
 BYTE   W96
//  #07 //018   ----------------------------------------
 BYTE   W96
//  #07 //019   ----------------------------------------
 BYTE   W96
//  #07 //020   ----------------------------------------
 BYTE   W12
Label_01981017:
 BYTE   N06  Ds4  v100
 BYTE   N06  Gs4
 BYTE   W12
 BYTE   Gs3  v092
 BYTE   N06  Ds4
 BYTE   W12
 BYTE   N12  Gs3
 BYTE   W12
 BYTE   N06  Ds4  v100
 BYTE   N06  Gs4
 BYTE   W12
 BYTE   Gs3  v092
 BYTE   N06  Ds4
 BYTE   W12
 BYTE   N12  Gs3
 BYTE   W12
 BYTE   N06  Ds4  v100
 BYTE   N06  Gs4
 BYTE   W12
//  #07 //021   ----------------------------------------
 BYTE   Gs3  v092
 BYTE   N06  Ds4
 BYTE   W12
 BYTE   PEND 
Label_0198103F:
 BYTE   N06  Ds4  v096
 BYTE   N06  Gs4
 BYTE   W12
 BYTE   Gs3  v092
 BYTE   N06  Ds4
 BYTE   W12
 BYTE   Ds4  v100
 BYTE   N06  Gs4
 BYTE   W12
 BYTE   Gs3  v092
 BYTE   N06  Ds4
 BYTE   W12
 BYTE   N12  Gs3
 BYTE   W12
 BYTE   N06  Ds4  v100
 BYTE   N06  Gs4
 BYTE   W12
 BYTE   Gs3  v092
 BYTE   N06  Ds4
 BYTE   W12
//  #07 //022   ----------------------------------------
 BYTE   Gs3
 BYTE   W12
 BYTE   PEND 
Label_01981065:
 BYTE   N06  Ds4  v100
 BYTE   N06  Gs4
 BYTE   W12
 BYTE   Gs3  v092
 BYTE   N06  Ds4
 BYTE   W12
 BYTE   Ds4  v096
 BYTE   N06  Gs4
 BYTE   W12
 BYTE   Gs3  v092
 BYTE   N06  Ds4
 BYTE   W12
 BYTE   Ds4  v100
 BYTE   N06  Gs4
 BYTE   W12
 BYTE   Gs3  v092
 BYTE   N06  Ds4
 BYTE   W12
 BYTE   N12  Gs3
 BYTE   W12
//  #07 //023   ----------------------------------------
 BYTE   N06  Ds4  v100
 BYTE   N06  Gs4
 BYTE   W12
 BYTE   PEND 
Label_0198108E:
 BYTE   N06  Gs3  v092
 BYTE   N06  Ds4
 BYTE   W12
 BYTE   N12  Gs3
 BYTE   W12
 BYTE   N06  Ds4  v100
 BYTE   N06  Gs4
 BYTE   W12
 BYTE   Gs3  v092
 BYTE   N06  Ds4
 BYTE   W12
 BYTE   Ds4  v096
 BYTE   N06  Gs4
 BYTE   W12
 BYTE   Gs3  v092
 BYTE   N06  Ds4
 BYTE   W12
 BYTE   Ds4  v100
 BYTE   N06  Gs4
 BYTE   W12
//  #07 //024   ----------------------------------------
 BYTE   Gs3  v092
 BYTE   N06  Ds4
 BYTE   W12
 BYTE   PEND 
Label_019810B7:
 BYTE   N12  Gs3  v092
 BYTE   W12
 BYTE   N06  Ds4  v100
 BYTE   N06  Gs4
 BYTE   W12
 BYTE   Gs3  v092
 BYTE   N06  Ds4
 BYTE   W12
 BYTE   N12  Gs3
 BYTE   W12
 BYTE   N06  Ds4  v100
 BYTE   N06  Gs4
 BYTE   W12
 BYTE   Gs3  v092
 BYTE   N06  Ds4
 BYTE   W12
 BYTE   Ds4  v096
 BYTE   N06  Gs4
 BYTE   W12
//  #07 //025   ----------------------------------------
 BYTE   Gs3  v092
 BYTE   N06  Ds4
 BYTE   W12
 BYTE   PEND 
//  #07 //026   ----------------------------------------
 BYTE   PATT
  POIN2 Label_01981017
//  #07 //027   ----------------------------------------
 BYTE   PATT
  POIN2 Label_0198103F
//  #07 //028   ----------------------------------------
 BYTE   PATT
  POIN2 Label_01981065
//  #07 //029   ----------------------------------------
 BYTE   PATT
  POIN2 Label_0198108E
//  #07 //030   ----------------------------------------
 BYTE   PATT
  POIN2 Label_019810B7
//  #07 //031   ----------------------------------------
Label_019810F8:
 BYTE   N06  Ds3  v116
 BYTE   N06  Gs3
 BYTE   W12
 BYTE   Gs2  v108
 BYTE   N06  Ds3
 BYTE   W12
 BYTE   N12  Gs2
 BYTE   W12
 BYTE   N06  Ds3  v116
 BYTE   N06  Gs3
 BYTE   W12
 BYTE   Gs2  v108
 BYTE   N06  Ds3
 BYTE   W12
 BYTE   N12  Gs2
 BYTE   W12
 BYTE   N06  Ds3  v116
 BYTE   N06  Gs3
 BYTE   W12
 BYTE   Gs2  v108
 BYTE   N06  Ds3
 BYTE   W12
 BYTE   PEND 
//  #07 //032   ----------------------------------------
Label_01981120:
 BYTE   N06  Ds3  v112
 BYTE   N06  Gs3
 BYTE   W12
 BYTE   Gs2  v108
 BYTE   N06  Ds3
 BYTE   W12
 BYTE   Ds3  v116
 BYTE   N06  Gs3
 BYTE   W12
 BYTE   Gs2  v108
 BYTE   N06  Ds3
 BYTE   W12
 BYTE   N12  Gs2
 BYTE   W12
 BYTE   N06  Ds3  v116
 BYTE   N06  Gs3
 BYTE   W12
 BYTE   Gs2  v108
 BYTE   N06  Ds3
 BYTE   W12
 BYTE   Gs2
 BYTE   W12
 BYTE   PEND 
//  #07 //033   ----------------------------------------
Label_01981146:
 BYTE   N06  Ds3  v116
 BYTE   N06  Gs3
 BYTE   W12
 BYTE   Gs2  v108
 BYTE   N06  Ds3
 BYTE   W12
 BYTE   Ds3  v112
 BYTE   N06  Gs3
 BYTE   W12
 BYTE   Gs2  v108
 BYTE   N06  Ds3
 BYTE   W12
 BYTE   Cs3  v116
 BYTE   N06  Gs3
 BYTE   W12
 BYTE   Gs2  v108
 BYTE   N06  Cs3
 BYTE   W12
 BYTE   N12  Gs2
 BYTE   W12
 BYTE   N06  Cs3  v116
 BYTE   N06  Gs3
 BYTE   W12
 BYTE   PEND 
//  #07 //034   ----------------------------------------
Label_0198116F:
 BYTE   N06  Gs2  v108
 BYTE   N06  Cs3
 BYTE   W12
 BYTE   N12  Gs2
 BYTE   W12
 BYTE   N06  Cs3  v116
 BYTE   N06  Gs3
 BYTE   W12
 BYTE   Gs2  v108
 BYTE   N06  Cs3
 BYTE   W12
 BYTE   Cs3  v112
 BYTE   N06  Gs3
 BYTE   W12
 BYTE   Gs2  v108
 BYTE   N06  Cs3
 BYTE   W12
 BYTE   Cs3  v116
 BYTE   N06  Gs3
 BYTE   W12
 BYTE   Gs2  v108
 BYTE   N06  Cs3
 BYTE   W12
 BYTE   PEND 
//  #07 //035   ----------------------------------------
 BYTE   N12  Gs2  v108
 BYTE   W12
 BYTE   N06  Cs3  v116
 BYTE   N06  Gs3
 BYTE   W12
 BYTE   Gs2  v108
 BYTE   N06  Cs3
 BYTE   W12
 BYTE   N12  Gs2
 BYTE   W12
 BYTE   N06  Cs3  v116
 BYTE   N06  Gs3
 BYTE   W12
 BYTE   Gs2  v108
 BYTE   N06  Cs3
 BYTE   W12
 BYTE   Bn2  v112
 BYTE   N06  Gs3
 BYTE   W12
 BYTE   Gs2  v108
 BYTE   N06  Bn2
 BYTE   W12
//  #07 //036   ----------------------------------------
 BYTE   PATT
  POIN2 Label_019810F8
//  #07 //037   ----------------------------------------
 BYTE   PATT
  POIN2 Label_01981120
//  #07 //038   ----------------------------------------
 BYTE   PATT
  POIN2 Label_01981146
//  #07 //039   ----------------------------------------
 BYTE   PATT
  POIN2 Label_0198116F
//  #07 //040   ----------------------------------------
 BYTE   N12  Gs2  v108
 BYTE   W12
 BYTE   N06  Cs3  v116
 BYTE   N06  Gs3
 BYTE   W12
 BYTE   Gs2  v108
 BYTE   N06  Cs3
 BYTE   W12
 BYTE   N12  Gs2
 BYTE   W12
 BYTE   N06  Cs3  v116
 BYTE   N06  Gs3
 BYTE   W12
 BYTE   Gs2  v108
 BYTE   N06  Cs3
 BYTE   W12
 BYTE   Bn2  v112
 BYTE   N06  Gs3
 BYTE   W12
 BYTE   Gs2  v108
 BYTE   N06  Bn2
 BYTE   W96
//  #07 //041   ----------------------------------------
 BYTE   W96
//  #07 //042   ----------------------------------------
 BYTE   W96
//  #07 //043   ----------------------------------------
 BYTE   W96
//  #07 //044   ----------------------------------------
 BYTE   W96
//  #07 //045   ----------------------------------------
 BYTE   W96
//  #07 //046   ----------------------------------------
 BYTE   W96
//  #07 //047   ----------------------------------------
 BYTE   W96
//  #07 //048   ----------------------------------------
 BYTE   W96
//  #07 //049   ----------------------------------------
 BYTE   W96
//  #07 //050   ----------------------------------------
 BYTE   W96
//  #07 //051   ----------------------------------------
 BYTE   W96
//  #07 //052   ----------------------------------------
 BYTE   W96
//  #07 //053   ----------------------------------------
 BYTE   W96
//  #07 //054   ----------------------------------------
 BYTE   W96
//  #07 //055   ----------------------------------------
 BYTE   W96
//  #07 //056   ----------------------------------------
 BYTE   W96
//  #07 //057   ----------------------------------------
 BYTE   W96
//  #07 //058   ----------------------------------------
 BYTE   W96
//  #07 //059   ----------------------------------------
 BYTE   W96
//  #07 //060   ----------------------------------------
 BYTE   W96
//  #07 //061   ----------------------------------------
 BYTE   W96
//  #07 //062   ----------------------------------------
 BYTE   W96
//  #07 //063   ----------------------------------------
 BYTE   W96
//  #07 //064   ----------------------------------------
 BYTE   W96
//  #07 //065   ----------------------------------------
 BYTE   W12
 BYTE   Ds3  v112
 BYTE   N06  Gs3
 BYTE   W12
 BYTE   Gs2  v100
 BYTE   N06  Ds3
 BYTE   W12
 BYTE   N12  Gs2
 BYTE   W12
 BYTE   N06  Ds3  v112
 BYTE   N06  Gs3
 BYTE   W12
 BYTE   Gs2  v100
 BYTE   N06  Ds3
 BYTE   W12
 BYTE   N12  Gs2
 BYTE   W12
 BYTE   N06  Ds3  v112
 BYTE   N06  Gs3
 BYTE   W12
//  #07 //066   ----------------------------------------
 BYTE   Gs2  v100
 BYTE   N06  Ds3
 BYTE   W12
 BYTE   Ds3  v108
 BYTE   N06  Gs3
 BYTE   W12
 BYTE   Gs2  v100
 BYTE   N06  Ds3
 BYTE   W12
 BYTE   Ds3  v112
 BYTE   N06  Gs3
 BYTE   W12
 BYTE   Gs2  v100
 BYTE   N06  Ds3
 BYTE   W12
 BYTE   N12  Gs2
 BYTE   W12
 BYTE   N06  Ds3  v112
 BYTE   N06  Gs3
 BYTE   W12
 BYTE   Gs2  v100
 BYTE   N06  Ds3
 BYTE   W12
//  #07 //067   ----------------------------------------
 BYTE   N12  Gs2
 BYTE   W12
 BYTE   N06  Ds3  v112
 BYTE   N06  Gs3
 BYTE   W12
 BYTE   Gs2  v100
 BYTE   N06  Ds3
 BYTE   W12
 BYTE   Ds3  v108
 BYTE   N06  Gs3
 BYTE   W12
 BYTE   Gs2  v100
 BYTE   N06  Ds3
 BYTE   W12
 BYTE   Ds3  v108
 BYTE   N06  Gs3
 BYTE   W12
 BYTE   Gs2  v096
 BYTE   N06  Ds3
 BYTE   W12
 BYTE   N12  Gs2
 BYTE   W12
//  #07 //068   ----------------------------------------
 BYTE   N06  Ds3  v108
 BYTE   N06  Gs3
 BYTE   W12
 BYTE   Gs2  v096
 BYTE   N06  Ds3
 BYTE   W12
 BYTE   N12  Gs2
 BYTE   W12
 BYTE   N06  Ds3  v108
 BYTE   N06  Gs3
 BYTE   W12
 BYTE   Gs2  v096
 BYTE   N06  Ds3
 BYTE   W12
 BYTE   Ds3  v100
 BYTE   N06  Gs3
 BYTE   W12
 BYTE   Gs2  v096
 BYTE   N06  Ds3
 BYTE   W12
 BYTE   Ds3  v108
 BYTE   N06  Gs3
 BYTE   W12
//  #07 //069   ----------------------------------------
 BYTE   Gs2  v096
 BYTE   N06  Ds3
 BYTE   W12
 BYTE   N12  Gs2
 BYTE   W12
 BYTE   N06  Ds3  v108
 BYTE   N06  Gs3
 BYTE   W12
 BYTE   Gs2  v096
 BYTE   N06  Ds3
 BYTE   W12
 BYTE   N12  Gs2
 BYTE   W12
 BYTE   N06  Ds3  v108
 BYTE   N06  Gs3
 BYTE   W12
 BYTE   Gs2  v096
 BYTE   N06  Ds3
 BYTE   W12
 BYTE   Ds3  v100
 BYTE   N06  Gs3
 BYTE   W12
//  #07 //070   ----------------------------------------
 BYTE   Gs2  v096
 BYTE   N06  Ds3
 BYTE   W12
 BYTE   GoTo
  POIN2 Label_01980FF8
 BYTE   FINE

//**************** Track 8 (Midi-Chn.7) ****************//

songA8_008:
//  #08 //000   ----------------------------------------
Label_019820B4:
 BYTE   TEMPO   154*songA8_tbs/2
 BYTE   KEYSH   songA8_key+0
 BYTE   VOICE   9
 BYTE   VOL   36*songA8_mvl/mxv
 BYTE   PAN   c_v+2
 BYTE   W96
//  #08 //001   ----------------------------------------
 BYTE   W96
//  #08 //002   ----------------------------------------
 BYTE   W96
//  #08 //003   ----------------------------------------
 BYTE   W96
//  #08 //004   ----------------------------------------
 BYTE   W96
//  #08 //005   ----------------------------------------
 BYTE   W96
//  #08 //006   ----------------------------------------
 BYTE   W96
//  #08 //007   ----------------------------------------
 BYTE   W96
//  #08 //008   ----------------------------------------
 BYTE   W96
//  #08 //009   ----------------------------------------
 BYTE   W96
//  #08 //010   ----------------------------------------
 BYTE   W12
Label_019820C9:
 BYTE   N12  Gs3  v108
 BYTE   N12  Ds4  v112
 BYTE   W12
 BYTE   Gs3  v088
 BYTE   N12  Ds4  v092
 BYTE   W12
 BYTE   Ds3  v104
 BYTE   N12  Gs3  v108
 BYTE   W12
 BYTE   Gs3  v092
 BYTE   N12  Ds4  v112
 BYTE   W12
 BYTE   Gs3  v088
 BYTE   N12  Ds4  v092
 BYTE   W12
 BYTE   Ds4  v104
 BYTE   N12  Gs4  v108
 BYTE   W12
 BYTE   Ds4  v088
 BYTE   N12  Gs4  v092
 BYTE   W12
//  #08 //011   ----------------------------------------
 BYTE   Ds4  v072
 BYTE   N12  Gs4  v080
 BYTE   W12
 BYTE   PEND 
Label_019820FB:
 BYTE   N12  Gs3  v104
 BYTE   N12  Ds4  v108
 BYTE   W12
 BYTE   Gs3  v084
 BYTE   N12  Ds4  v088
 BYTE   W12
 BYTE   Gs3  v108
 BYTE   N12  Ds4  v112
 BYTE   W12
 BYTE   Gs3  v088
 BYTE   N12  Ds4  v092
 BYTE   W12
 BYTE   Ds3  v104
 BYTE   N12  Gs3  v108
 BYTE   W12
 BYTE   Gs3  v092
 BYTE   N12  Ds4  v112
 BYTE   W12
 BYTE   Gs3  v088
 BYTE   N12  Ds4  v092
 BYTE   W12
//  #08 //012   ----------------------------------------
 BYTE   Ds4  v104
 BYTE   N12  Gs4  v108
 BYTE   W12
 BYTE   PEND 
Label_0198212D:
 BYTE   N12  Ds4  v104
 BYTE   N12  Gs4  v108
 BYTE   W12
 BYTE   Ds4  v088
 BYTE   N12  Gs4  v092
 BYTE   W12
 BYTE   Gs3  v100
 BYTE   N12  Ds4  v104
 BYTE   W12
 BYTE   Gs3  v084
 BYTE   N12  Ds4  v088
 BYTE   W12
 BYTE   Gs3  v108
 BYTE   N12  Cs4  v112
 BYTE   W12
 BYTE   Gs3  v088
 BYTE   N12  Cs4  v092
 BYTE   W12
 BYTE   Cs3  v104
 BYTE   N12  Gs3  v108
 BYTE   W12
//  #08 //013   ----------------------------------------
 BYTE   Gs3  v092
 BYTE   N12  Cs4  v112
 BYTE   W12
 BYTE   PEND 
Label_0198215F:
 BYTE   N12  Gs3  v088
 BYTE   N12  Cs4  v092
 BYTE   W12
 BYTE   Cs4  v104
 BYTE   N12  Gs4  v108
 BYTE   W12
 BYTE   Cs4  v088
 BYTE   N12  Gs4  v092
 BYTE   W12
 BYTE   Cs4  v072
 BYTE   N12  Gs4  v080
 BYTE   W12
 BYTE   Gs3  v104
 BYTE   N12  Cs4  v108
 BYTE   W12
 BYTE   Gs3  v084
 BYTE   N12  Cs4  v088
 BYTE   W12
 BYTE   Gs3  v108
 BYTE   N12  Cs4  v112
 BYTE   W12
//  #08 //014   ----------------------------------------
 BYTE   Gs3  v088
 BYTE   N12  Cs4  v092
 BYTE   W12
 BYTE   PEND 
 BYTE   N12  Cs3  v104
 BYTE   N12  Gs3  v108
 BYTE   W12
 BYTE   Gs3  v092
 BYTE   N12  Cs4  v112
 BYTE   W12
 BYTE   Gs3  v088
 BYTE   N12  Cs4  v092
 BYTE   W12
 BYTE   Cs4  v104
 BYTE   N12  Gs4  v108
 BYTE   W12
 BYTE   Cs4  v104
 BYTE   N12  Gs4  v108
 BYTE   W12
 BYTE   Cs4  v088
 BYTE   N12  Gs4  v092
 BYTE   W12
 BYTE   Gs3  v100
 BYTE   N12  Cs4  v104
 BYTE   W12
//  #08 //015   ----------------------------------------
 BYTE   Gs3  v084
 BYTE   N12  Cs4  v088
 BYTE   W12
//  #08 //016   ----------------------------------------
 BYTE   PATT
  POIN2 Label_019820C9
//  #08 //017   ----------------------------------------
 BYTE   PATT
  POIN2 Label_019820FB
//  #08 //018   ----------------------------------------
 BYTE   PATT
  POIN2 Label_0198212D
//  #08 //019   ----------------------------------------
 BYTE   PATT
  POIN2 Label_0198215F
//  #08 //020   ----------------------------------------
 BYTE   N12  Cs3  v104
 BYTE   N12  Gs3  v108
 BYTE   W12
 BYTE   Gs3  v092
 BYTE   N12  Cs4  v112
 BYTE   W12
 BYTE   Gs3  v088
 BYTE   N12  Cs4  v092
 BYTE   W12
 BYTE   Cs4  v104
 BYTE   N12  Gs4  v108
 BYTE   W12
 BYTE   Cs4  v104
 BYTE   N12  Gs4  v108
 BYTE   W12
 BYTE   Cs4  v088
 BYTE   N12  Gs4  v092
 BYTE   W12
 BYTE   Gs3  v100
 BYTE   N12  Cs4  v104
 BYTE   W12
 BYTE   Gs3  v084
 BYTE   N12  Cs4  v088
 BYTE   W96
//  #08 //021   ----------------------------------------
 BYTE   W96
//  #08 //022   ----------------------------------------
 BYTE   W96
//  #08 //023   ----------------------------------------
 BYTE   W96
//  #08 //024   ----------------------------------------
 BYTE   W96
//  #08 //025   ----------------------------------------
 BYTE   W96
//  #08 //026   ----------------------------------------
 BYTE   W96
//  #08 //027   ----------------------------------------
 BYTE   W96
//  #08 //028   ----------------------------------------
 BYTE   W96
//  #08 //029   ----------------------------------------
 BYTE   W96
//  #08 //030   ----------------------------------------
 BYTE   W96
//  #08 //031   ----------------------------------------
 BYTE   W96
//  #08 //032   ----------------------------------------
 BYTE   W96
//  #08 //033   ----------------------------------------
 BYTE   W96
//  #08 //034   ----------------------------------------
 BYTE   W96
//  #08 //035   ----------------------------------------
 BYTE   W96
//  #08 //036   ----------------------------------------
 BYTE   W96
//  #08 //037   ----------------------------------------
 BYTE   W96
//  #08 //038   ----------------------------------------
 BYTE   W96
//  #08 //039   ----------------------------------------
 BYTE   W96
//  #08 //040   ----------------------------------------
 BYTE   W96
//  #08 //041   ----------------------------------------
 BYTE   W96
//  #08 //042   ----------------------------------------
 BYTE   W96
//  #08 //043   ----------------------------------------
 BYTE   W96
//  #08 //044   ----------------------------------------
 BYTE   W96
//  #08 //045   ----------------------------------------
 BYTE   W96
//  #08 //046   ----------------------------------------
 BYTE   W96
//  #08 //047   ----------------------------------------
 BYTE   W96
//  #08 //048   ----------------------------------------
 BYTE   W96
//  #08 //049   ----------------------------------------
 BYTE   W96
//  #08 //050   ----------------------------------------
 BYTE   W96
//  #08 //051   ----------------------------------------
 BYTE   W96
//  #08 //052   ----------------------------------------
 BYTE   W96
//  #08 //053   ----------------------------------------
 BYTE   W96
//  #08 //054   ----------------------------------------
 BYTE   W96
//  #08 //055   ----------------------------------------
 BYTE   W96
//  #08 //056   ----------------------------------------
 BYTE   W96
//  #08 //057   ----------------------------------------
 BYTE   W96
//  #08 //058   ----------------------------------------
 BYTE   W96
//  #08 //059   ----------------------------------------
 BYTE   W96
//  #08 //060   ----------------------------------------
 BYTE   W96
//  #08 //061   ----------------------------------------
 BYTE   W96
//  #08 //062   ----------------------------------------
 BYTE   W96
//  #08 //063   ----------------------------------------
 BYTE   W96
//  #08 //064   ----------------------------------------
 BYTE   W96
//  #08 //065   ----------------------------------------
 BYTE   W96
//  #08 //066   ----------------------------------------
 BYTE   W96
//  #08 //067   ----------------------------------------
 BYTE   W96
//  #08 //068   ----------------------------------------
 BYTE   W96
//  #08 //069   ----------------------------------------
 BYTE   W96
//  #08 //070   ----------------------------------------
 BYTE   W12
 BYTE   GoTo
  POIN2 Label_019820B4
 BYTE   FINE

//**************** Track 9 (Midi-Chn.8) ****************//

songA8_009:
//  #09 //000   ----------------------------------------
Label_01981980:
 BYTE   TEMPO   154*songA8_tbs/2
 BYTE   KEYSH   songA8_key+0
 BYTE   VOICE   59
 BYTE   VOL   28*songA8_mvl/mxv
 BYTE   PAN   c_v-5
 BYTE   W12
 BYTE   N96  Cs1  v120
 BYTE   W96
//  #09 //001   ----------------------------------------
 BYTE   N24
 BYTE   W96
//  #09 //002   ----------------------------------------
 BYTE   W96
//  #09 //003   ----------------------------------------
 BYTE   W96
//  #09 //004   ----------------------------------------
 BYTE   W96
//  #09 //005   ----------------------------------------
 BYTE   W96
//  #09 //006   ----------------------------------------
 BYTE   W96
//  #09 //007   ----------------------------------------
 BYTE   W96
//  #09 //008   ----------------------------------------
 BYTE   W96
//  #09 //009   ----------------------------------------
 BYTE   W96
//  #09 //010   ----------------------------------------
 BYTE   W96
//  #09 //011   ----------------------------------------
 BYTE   W96
//  #09 //012   ----------------------------------------
 BYTE   W96
//  #09 //013   ----------------------------------------
 BYTE   W96
//  #09 //014   ----------------------------------------
 BYTE   W96
//  #09 //015   ----------------------------------------
 BYTE   W96
//  #09 //016   ----------------------------------------
 BYTE   W96
//  #09 //017   ----------------------------------------
 BYTE   W96
//  #09 //018   ----------------------------------------
 BYTE   W96
//  #09 //019   ----------------------------------------
 BYTE   W96
//  #09 //020   ----------------------------------------
 BYTE   W96
//  #09 //021   ----------------------------------------
 BYTE   W96
//  #09 //022   ----------------------------------------
 BYTE   W96
//  #09 //023   ----------------------------------------
 BYTE   W96
//  #09 //024   ----------------------------------------
 BYTE   W96
//  #09 //025   ----------------------------------------
 BYTE   W96
//  #09 //026   ----------------------------------------
 BYTE   W96
//  #09 //027   ----------------------------------------
 BYTE   W96
//  #09 //028   ----------------------------------------
 BYTE   W96
//  #09 //029   ----------------------------------------
 BYTE   W96
//  #09 //030   ----------------------------------------
 BYTE   W96
//  #09 //031   ----------------------------------------
 BYTE   W96
//  #09 //032   ----------------------------------------
 BYTE   W96
//  #09 //033   ----------------------------------------
 BYTE   W96
//  #09 //034   ----------------------------------------
 BYTE   W96
//  #09 //035   ----------------------------------------
 BYTE   W96
//  #09 //036   ----------------------------------------
 BYTE   W96
//  #09 //037   ----------------------------------------
 BYTE   W96
//  #09 //038   ----------------------------------------
 BYTE   W96
//  #09 //039   ----------------------------------------
 BYTE   W96
//  #09 //040   ----------------------------------------
 BYTE   W96
//  #09 //041   ----------------------------------------
 BYTE   W96
//  #09 //042   ----------------------------------------
 BYTE   W96
//  #09 //043   ----------------------------------------
 BYTE   W96
//  #09 //044   ----------------------------------------
 BYTE   W96
//  #09 //045   ----------------------------------------
 BYTE   W96
//  #09 //046   ----------------------------------------
 BYTE   W96
//  #09 //047   ----------------------------------------
 BYTE   W96
//  #09 //048   ----------------------------------------
 BYTE   W96
//  #09 //049   ----------------------------------------
 BYTE   W48
 BYTE   N48  Gs1  v127
 BYTE   W48
//  #09 //050   ----------------------------------------
 BYTE   N96  An1
 BYTE   W96
//  #09 //051   ----------------------------------------
Label_019819C8:
 BYTE   N24  An1  v127
 BYTE   W24
 BYTE   N96  Dn1
 BYTE   W96
 BYTE   PEND 
//  #09 //052   ----------------------------------------
 BYTE   N24  Dn1  v127
 BYTE   W24
 BYTE   N96  An1
 BYTE   W96
//  #09 //053   ----------------------------------------
 BYTE   PATT
  POIN2 Label_019819C8
//  #09 //054   ----------------------------------------
 BYTE   N24  Dn1  v127
 BYTE   W96
//  #09 //055   ----------------------------------------
 BYTE   W96
//  #09 //056   ----------------------------------------
 BYTE   W96
//  #09 //057   ----------------------------------------
 BYTE   W96
//  #09 //058   ----------------------------------------
 BYTE   W96
//  #09 //059   ----------------------------------------
 BYTE   W96
//  #09 //060   ----------------------------------------
 BYTE   W96
//  #09 //061   ----------------------------------------
 BYTE   W96
//  #09 //062   ----------------------------------------
 BYTE   W96
//  #09 //063   ----------------------------------------
 BYTE   W96
//  #09 //064   ----------------------------------------
 BYTE   W24
 BYTE   N96  An1
 BYTE   W96
//  #09 //065   ----------------------------------------
 BYTE   N24
 BYTE   W24
 BYTE   N60
 BYTE   N96  Bn1
 BYTE   W96
//  #09 //066   ----------------------------------------
 BYTE   N24
 BYTE   W24
 BYTE   N96  Cs2
 BYTE   W96
//  #09 //067   ----------------------------------------
 BYTE   N24
 BYTE   W24
 BYTE   N96  Cs1
 BYTE   W96
//  #09 //068   ----------------------------------------
 BYTE   N24
 BYTE   W24
 BYTE   GoTo
  POIN2 Label_01981980
 BYTE   FINE

//**************** Track 10 (Midi-Chn.9) ****************//

songA8_010:
//  #10 //000   ----------------------------------------
Label_019A53DC:
 BYTE   TEMPO   154*songA8_tbs/2
 BYTE   KEYSH   songA8_key+0
 BYTE   VOICE   48
 BYTE   VOL   36*songA8_mvl/mxv
 BYTE   PAN   c_v+16
 BYTE   W12
 BYTE   N12  Cs1  v120
 BYTE   N12  Cs2
 BYTE   W36
 BYTE   Cs1
 BYTE   N12  Cs2
 BYTE   W36
 BYTE   Cs1
 BYTE   N12  Cs2
 BYTE   W24
//  #10 //001   ----------------------------------------
 BYTE   Cs1
 BYTE   N12  Cs2
 BYTE   W24
 BYTE   Bn0
 BYTE   N12  Bn1
 BYTE   W36
 BYTE   Bn0
 BYTE   N12  Bn1
 BYTE   W36
//  #10 //002   ----------------------------------------
Label_019A5401:
 BYTE   N12  Bn0  v120
 BYTE   N12  Bn1
 BYTE   W24
 BYTE   Bn0
 BYTE   N12  Bn1
 BYTE   W24
 BYTE   An0
 BYTE   N12  An1
 BYTE   W36
 BYTE   An0
 BYTE   N12  An1
 BYTE   W36
 BYTE   PEND 
//  #10 //003   ----------------------------------------
Label_019A5414:
 BYTE   N12  An0  v120
 BYTE   N12  An1
 BYTE   W24
 BYTE   An0
 BYTE   N12  An1
 BYTE   W24
 BYTE   Bn0
 BYTE   N12  Bn1
 BYTE   W36
 BYTE   Bn0
 BYTE   N12  Bn1
 BYTE   W36
 BYTE   PEND 
//  #10 //004   ----------------------------------------
Label_019A5427:
 BYTE   N12  Bn0  v120
 BYTE   N12  Bn1
 BYTE   W24
 BYTE   Bn0
 BYTE   N12  Bn1
 BYTE   W24
 BYTE   Cs1
 BYTE   N12  Cs2
 BYTE   W36
 BYTE   Cs1
 BYTE   N12  Cs2
 BYTE   W36
 BYTE   PEND 
//  #10 //005   ----------------------------------------
Label_019A543A:
 BYTE   N12  Cs1  v120
 BYTE   N12  Cs2
 BYTE   W24
 BYTE   Cs1
 BYTE   N12  Cs2
 BYTE   W24
 BYTE   Bn0
 BYTE   N12  Bn1
 BYTE   W36
 BYTE   Bn0
 BYTE   N12  Bn1
 BYTE   W36
 BYTE   PEND 
//  #10 //006   ----------------------------------------
 BYTE   PATT
  POIN2 Label_019A5401
//  #10 //007   ----------------------------------------
 BYTE   PATT
  POIN2 Label_019A5414
//  #10 //008   ----------------------------------------
 BYTE   PATT
  POIN2 Label_019A5401
//  #10 //009   ----------------------------------------
 BYTE   PATT
  POIN2 Label_019A5414
//  #10 //010   ----------------------------------------
 BYTE   PATT
  POIN2 Label_019A5427
//  #10 //011   ----------------------------------------
Label_019A5466:
 BYTE   N12  Cs1  v120
 BYTE   N12  Cs2
 BYTE   W24
 BYTE   Cs1
 BYTE   N12  Cs2
 BYTE   W24
 BYTE   Cs1
 BYTE   N12  Cs2
 BYTE   W36
 BYTE   Cs1
 BYTE   N12  Cs2
 BYTE   W36
 BYTE   PEND 
//  #10 //012   ----------------------------------------
 BYTE   N12  Cs1  v120
 BYTE   N12  Cs2
 BYTE   W24
 BYTE   Bn0
 BYTE   N12  Bn1
 BYTE   W24
 BYTE   An0
 BYTE   N12  An1
 BYTE   W36
 BYTE   An0
 BYTE   N12  An1
 BYTE   W36
//  #10 //013   ----------------------------------------
 BYTE   PATT
  POIN2 Label_019A5414
//  #10 //014   ----------------------------------------
 BYTE   PATT
  POIN2 Label_019A5427
//  #10 //015   ----------------------------------------
 BYTE   PATT
  POIN2 Label_019A5466
//  #10 //016   ----------------------------------------
 BYTE   PATT
  POIN2 Label_019A5466
//  #10 //017   ----------------------------------------
 BYTE   PATT
  POIN2 Label_019A543A
//  #10 //018   ----------------------------------------
 BYTE   PATT
  POIN2 Label_019A5401
//  #10 //019   ----------------------------------------
 BYTE   PATT
  POIN2 Label_019A5414
//  #10 //020   ----------------------------------------
 BYTE   PATT
  POIN2 Label_019A5427
//  #10 //021   ----------------------------------------
 BYTE   PATT
  POIN2 Label_019A543A
//  #10 //022   ----------------------------------------
 BYTE   PATT
  POIN2 Label_019A5401
//  #10 //023   ----------------------------------------
 BYTE   PATT
  POIN2 Label_019A5414
//  #10 //024   ----------------------------------------
 BYTE   PATT
  POIN2 Label_019A5401
//  #10 //025   ----------------------------------------
 BYTE   PATT
  POIN2 Label_019A5414
//  #10 //026   ----------------------------------------
 BYTE   PATT
  POIN2 Label_019A5427
//  #10 //027   ----------------------------------------
 BYTE   PATT
  POIN2 Label_019A5466
//  #10 //028   ----------------------------------------
Label_019A54D6:
 BYTE   N12  Cs1  v120
 BYTE   N12  Cs2
 BYTE   W24
 BYTE   Cs1
 BYTE   N12  Cs2
 BYTE   W24
 BYTE   An0
 BYTE   N12  An1
 BYTE   W36
 BYTE   An0
 BYTE   N12  An1
 BYTE   W36
 BYTE   PEND 
//  #10 //029   ----------------------------------------
 BYTE   PATT
  POIN2 Label_019A5414
//  #10 //030   ----------------------------------------
 BYTE   PATT
  POIN2 Label_019A5427
//  #10 //031   ----------------------------------------
 BYTE   PATT
  POIN2 Label_019A5466
//  #10 //032   ----------------------------------------
 BYTE   PATT
  POIN2 Label_019A5466
//  #10 //033   ----------------------------------------
 BYTE   PATT
  POIN2 Label_019A54D6
//  #10 //034   ----------------------------------------
Label_019A5502:
 BYTE   N12  An0  v120
 BYTE   N12  An1
 BYTE   W24
 BYTE   An0
 BYTE   N12  An1
 BYTE   W24
 BYTE   Fs0
 BYTE   N12  Fs1
 BYTE   W36
 BYTE   Fs0
 BYTE   N12  Fs1
 BYTE   W36
 BYTE   PEND 
//  #10 //035   ----------------------------------------
Label_019A5515:
 BYTE   N12  Fs0  v120
 BYTE   N12  Fs1
 BYTE   W24
 BYTE   Fs0
 BYTE   N12  Fs1
 BYTE   W24
 BYTE   Gs0
 BYTE   N12  Gs1
 BYTE   W36
 BYTE   Gs0
 BYTE   N12  Gs1
 BYTE   W36
 BYTE   PEND 
//  #10 //036   ----------------------------------------
Label_019A5528:
 BYTE   N12  Gs0  v120
 BYTE   N12  Gs1
 BYTE   W24
 BYTE   Gs0
 BYTE   N12  Gs1
 BYTE   W24
 BYTE   Cs1
 BYTE   N12  Cs2
 BYTE   W36
 BYTE   Cs1
 BYTE   N12  Cs2
 BYTE   W36
 BYTE   PEND 
//  #10 //037   ----------------------------------------
 BYTE   PATT
  POIN2 Label_019A54D6
//  #10 //038   ----------------------------------------
 BYTE   PATT
  POIN2 Label_019A5502
//  #10 //039   ----------------------------------------
 BYTE   PATT
  POIN2 Label_019A5515
//  #10 //040   ----------------------------------------
Label_019A554A:
 BYTE   N12  Gs0  v120
 BYTE   N12  Gs1
 BYTE   W24
 BYTE   Gs0
 BYTE   N12  Gs1
 BYTE   W24
 BYTE   An0
 BYTE   N12  An1
 BYTE   W36
 BYTE   An0
 BYTE   N12  An1
 BYTE   W36
 BYTE   PEND 
//  #10 //041   ----------------------------------------
Label_019A555D:
 BYTE   N12  An0  v120
 BYTE   N12  An1
 BYTE   W24
 BYTE   An0
 BYTE   N12  An1
 BYTE   W24
 BYTE   Dn1
 BYTE   N12  Dn2
 BYTE   W36
 BYTE   Dn1
 BYTE   N12  Dn2
 BYTE   W36
 BYTE   PEND 
//  #10 //042   ----------------------------------------
 BYTE   N12  Dn1  v120
 BYTE   N12  Dn2
 BYTE   W24
 BYTE   Dn1
 BYTE   N12  Dn2
 BYTE   W24
 BYTE   An0
 BYTE   N12  An1
 BYTE   W36
 BYTE   An0
 BYTE   N12  An1
 BYTE   W36
//  #10 //043   ----------------------------------------
 BYTE   PATT
  POIN2 Label_019A555D
//  #10 //044   ----------------------------------------
 BYTE   N12  Dn1  v120
 BYTE   N12  Dn2
 BYTE   W24
 BYTE   Dn1
 BYTE   N12  Dn2
 BYTE   W24
 BYTE   Cs1
 BYTE   N12  Cs2
 BYTE   W36
 BYTE   Cs1
 BYTE   N12  Cs2
 BYTE   W36
//  #10 //045   ----------------------------------------
 BYTE   PATT
  POIN2 Label_019A54D6
//  #10 //046   ----------------------------------------
 BYTE   PATT
  POIN2 Label_019A5502
//  #10 //047   ----------------------------------------
 BYTE   PATT
  POIN2 Label_019A5515
//  #10 //048   ----------------------------------------
 BYTE   PATT
  POIN2 Label_019A5528
//  #10 //049   ----------------------------------------
 BYTE   PATT
  POIN2 Label_019A54D6
//  #10 //050   ----------------------------------------
 BYTE   PATT
  POIN2 Label_019A5502
//  #10 //051   ----------------------------------------
 BYTE   PATT
  POIN2 Label_019A5515
//  #10 //052   ----------------------------------------
 BYTE   PATT
  POIN2 Label_019A554A
//  #10 //053   ----------------------------------------
 BYTE   PATT
  POIN2 Label_019A5414
//  #10 //054   ----------------------------------------
 BYTE   PATT
  POIN2 Label_019A5427
//  #10 //055   ----------------------------------------
 BYTE   PATT
  POIN2 Label_019A5466
//  #10 //056   ----------------------------------------
 BYTE   N12  Cs1  v120
 BYTE   N12  Cs2
 BYTE   W24
 BYTE   Cs1
 BYTE   N12  Cs2
 BYTE   W24
 BYTE   GoTo
  POIN2 Label_019A53DC
 BYTE   FINE

//**************** Track 11 (Midi-Chn.10) ****************//

songA8_011:
//  #11 //000   ----------------------------------------
Label_019A5818:
 BYTE   TEMPO   154*songA8_tbs/2
 BYTE   KEYSH   songA8_key+0
 BYTE   VOICE   50
 BYTE   VOL   39*songA8_mvl/mxv
 BYTE   PAN   c_v+6
 BYTE   W96
//  #11 //001   ----------------------------------------
 BYTE   W96
//  #11 //002   ----------------------------------------
 BYTE   W96
//  #11 //003   ----------------------------------------
 BYTE   W96
//  #11 //004   ----------------------------------------
 BYTE   W96
//  #11 //005   ----------------------------------------
 BYTE   W96
//  #11 //006   ----------------------------------------
 BYTE   W96
//  #11 //007   ----------------------------------------
 BYTE   W96
//  #11 //008   ----------------------------------------
 BYTE   W96
//  #11 //009   ----------------------------------------
 BYTE   W96
//  #11 //010   ----------------------------------------
 BYTE   W12
 BYTE   N12  Ds2  v120
 BYTE   N12  Gs2
 BYTE   W36
 BYTE   Ds2  v112
 BYTE   N12  Gs2
 BYTE   W36
 BYTE   Ds2  v116
 BYTE   N12  Gs2
 BYTE   W24
//  #11 //011   ----------------------------------------
 BYTE   Ds2  v120
 BYTE   N12  Gs2
 BYTE   W24
 BYTE   Ds2
 BYTE   N12  Gs2
 BYTE   W36
 BYTE   Ds2  v112
 BYTE   N12  Gs2
 BYTE   W24
 BYTE   Ds2  v116
 BYTE   N12  Gs2
 BYTE   W12
//  #11 //012   ----------------------------------------
 BYTE   Ds2
 BYTE   N12  Gs2
 BYTE   W24
 BYTE   Ds2  v120
 BYTE   N12  Gs2
 BYTE   W24
 BYTE   En2
 BYTE   N12  Gs2
 BYTE   W36
 BYTE   En2  v112
 BYTE   N12  Gs2
 BYTE   W36
//  #11 //013   ----------------------------------------
 BYTE   En2  v116
 BYTE   N12  Gs2
 BYTE   W24
 BYTE   En2  v120
 BYTE   N12  Gs2
 BYTE   W24
 BYTE   En2
 BYTE   N12  Gs2
 BYTE   W36
 BYTE   En2  v112
 BYTE   N12  Gs2
 BYTE   W24
//  #11 //014   ----------------------------------------
 BYTE   En2  v116
 BYTE   N12  Gs2
 BYTE   W12
 BYTE   En2
 BYTE   N12  Gs2
 BYTE   W24
 BYTE   En2  v120
 BYTE   N12  Gs2
 BYTE   W24
 BYTE   Ds2
 BYTE   N12  Gs2
 BYTE   W36
//  #11 //015   ----------------------------------------
 BYTE   Ds2  v112
 BYTE   N12  Gs2
 BYTE   W36
 BYTE   Ds2  v116
 BYTE   N12  Gs2
 BYTE   W24
 BYTE   Ds2  v120
 BYTE   N12  Gs2
 BYTE   W24
 BYTE   Ds2
 BYTE   N12  Gs2
 BYTE   W36
//  #11 //016   ----------------------------------------
 BYTE   Ds2  v112
 BYTE   N12  Gs2
 BYTE   W24
 BYTE   Ds2  v116
 BYTE   N12  Gs2
 BYTE   W12
 BYTE   Ds2
 BYTE   N12  Gs2
 BYTE   W24
 BYTE   Ds2  v120
 BYTE   N12  Gs2
 BYTE   W24
 BYTE   En2
 BYTE   N12  Gs2
 BYTE   W36
//  #11 //017   ----------------------------------------
 BYTE   En2  v112
 BYTE   N12  Gs2
 BYTE   W36
 BYTE   En2  v116
 BYTE   N12  Gs2
 BYTE   W24
 BYTE   En2  v120
 BYTE   N12  Gs2
 BYTE   W24
 BYTE   En2
 BYTE   N12  Gs2
 BYTE   W36
//  #11 //018   ----------------------------------------
 BYTE   En2  v112
 BYTE   N12  Gs2
 BYTE   W24
 BYTE   En2  v116
 BYTE   N12  Gs2
 BYTE   W12
 BYTE   En2
 BYTE   N12  Gs2
 BYTE   W24
 BYTE   En2  v120
 BYTE   N12  Gs2
 BYTE   W96
//  #11 //019   ----------------------------------------
 BYTE   W96
//  #11 //020   ----------------------------------------
 BYTE   W96
//  #11 //021   ----------------------------------------
 BYTE   W96
//  #11 //022   ----------------------------------------
 BYTE   W96
//  #11 //023   ----------------------------------------
 BYTE   W96
//  #11 //024   ----------------------------------------
 BYTE   W96
//  #11 //025   ----------------------------------------
 BYTE   W96
//  #11 //026   ----------------------------------------
 BYTE   W96
//  #11 //027   ----------------------------------------
 BYTE   W96
//  #11 //028   ----------------------------------------
 BYTE   W96
//  #11 //029   ----------------------------------------
 BYTE   W96
//  #11 //030   ----------------------------------------
 BYTE   W96
//  #11 //031   ----------------------------------------
 BYTE   W96
//  #11 //032   ----------------------------------------
 BYTE   W96
//  #11 //033   ----------------------------------------
 BYTE   W96
//  #11 //034   ----------------------------------------
 BYTE   W96
//  #11 //035   ----------------------------------------
 BYTE   W96
//  #11 //036   ----------------------------------------
 BYTE   W96
//  #11 //037   ----------------------------------------
 BYTE   W96
//  #11 //038   ----------------------------------------
 BYTE   W24
Label_019A58EB:
 BYTE   N12  En2  v127
 BYTE   N12  Gs2
 BYTE   W12
 BYTE   En2  v120
 BYTE   W12
 BYTE   En2
 BYTE   W12
 BYTE   En2  v127
 BYTE   N12  Gs2
 BYTE   W12
 BYTE   En2  v120
 BYTE   W12
 BYTE   En2
 BYTE   W12
//  #11 //039   ----------------------------------------
 BYTE   En2  v127
 BYTE   N12  Gs2
 BYTE   W12
 BYTE   En2  v120
 BYTE   W12
 BYTE   PEND 
Label_019A5909:
 BYTE   N12  En2  v127
 BYTE   N12  Gs2
 BYTE   W12
 BYTE   En2  v120
 BYTE   W12
 BYTE   En2  v127
 BYTE   N12  Gs2
 BYTE   W12
 BYTE   En2  v120
 BYTE   W12
 BYTE   En2
 BYTE   W12
 BYTE   En2  v127
 BYTE   N12  Gs2
 BYTE   W12
//  #11 //040   ----------------------------------------
 BYTE   En2  v120
 BYTE   W12
 BYTE   En2  v127
 BYTE   N12  Gs2
 BYTE   W12
 BYTE   PEND 
Label_019A592A:
 BYTE   N12  En2  v127
 BYTE   N12  Gs2
 BYTE   W12
 BYTE   En2  v120
 BYTE   W12
 BYTE   En2  v127
 BYTE   N12  Gs2
 BYTE   W12
 BYTE   En2  v120
 BYTE   W12
 BYTE   Fs2  v127
 BYTE   N12  An2
 BYTE   W12
 BYTE   Fs2  v120
 BYTE   W12
//  #11 //041   ----------------------------------------
 BYTE   Fs2
 BYTE   W12
 BYTE   Fs2  v127
 BYTE   N12  An2
 BYTE   W12
 BYTE   PEND 
Label_019A594B:
 BYTE   N12  Fs2  v120
 BYTE   W12
 BYTE   Fs2
 BYTE   W12
 BYTE   Fs2  v127
 BYTE   N12  An2
 BYTE   W12
 BYTE   Fs2  v120
 BYTE   W12
 BYTE   Fs2  v127
 BYTE   N12  An2
 BYTE   W12
 BYTE   Fs2  v120
 BYTE   W12
//  #11 //042   ----------------------------------------
 BYTE   Ds2  v127
 BYTE   N12  Gs2
 BYTE   W12
 BYTE   Ds2  v120
 BYTE   W12
 BYTE   PEND 
Label_019A596A:
 BYTE   N12  Ds2  v120
 BYTE   W12
 BYTE   Ds2  v127
 BYTE   N12  Gs2
 BYTE   W12
 BYTE   Ds2  v120
 BYTE   W12
 BYTE   Ds2  v127
 BYTE   N12  Gs2
 BYTE   W12
 BYTE   Ds2
 BYTE   N12  Gs2
 BYTE   W12
 BYTE   Ds2  v120
 BYTE   W12
//  #11 //043   ----------------------------------------
 BYTE   Ds2  v127
 BYTE   N12  Gs2
 BYTE   W12
 BYTE   Ds2  v120
 BYTE   W12
 BYTE   PEND 
//  #11 //044   ----------------------------------------
 BYTE   PATT
  POIN2 Label_019A58EB
//  #11 //045   ----------------------------------------
Label_019A5990:
 BYTE   N12  En2  v127
 BYTE   N12  Gs2
 BYTE   W12
 BYTE   En2  v120
 BYTE   W12
 BYTE   En2  v127
 BYTE   N12  An2
 BYTE   W12
 BYTE   En2  v120
 BYTE   W12
 BYTE   En2
 BYTE   W12
 BYTE   En2  v127
 BYTE   N12  An2
 BYTE   W12
 BYTE   En2  v120
 BYTE   W12
 BYTE   En2  v127
 BYTE   N12  An2
 BYTE   W12
 BYTE   PEND 
//  #11 //046   ----------------------------------------
Label_019A59B1:
 BYTE   N12  En2  v127
 BYTE   N12  An2
 BYTE   W12
 BYTE   En2  v120
 BYTE   W12
 BYTE   En2  v127
 BYTE   N12  An2
 BYTE   W12
 BYTE   En2  v120
 BYTE   W12
 BYTE   Fs2  v127
 BYTE   N12  An2
 BYTE   W12
 BYTE   Fs2  v120
 BYTE   W12
 BYTE   Fs2
 BYTE   W12
 BYTE   Fs2  v127
 BYTE   N12  An2
 BYTE   W12
 BYTE   PEND 
//  #11 //047   ----------------------------------------
 BYTE   PATT
  POIN2 Label_019A594B
//  #11 //048   ----------------------------------------
Label_019A59D7:
 BYTE   N12  Ds2  v120
 BYTE   W12
 BYTE   Ds2  v127
 BYTE   N12  Gs2
 BYTE   W12
 BYTE   Ds2  v120
 BYTE   W12
 BYTE   Ds2  v127
 BYTE   N12  Gs2
 BYTE   W12
 BYTE   Ds2
 BYTE   N12  Gs2
 BYTE   W12
 BYTE   Ds2  v120
 BYTE   W12
 BYTE   Ds2  v127
 BYTE   N12  Gs2
 BYTE   W12
 BYTE   Ds2  v120
 BYTE   W96
//  #11 //049   ----------------------------------------
 BYTE   W96
//  #11 //050   ----------------------------------------
 BYTE   W96
//  #11 //051   ----------------------------------------
 BYTE   W96
//  #11 //052   ----------------------------------------
 BYTE   W96
//  #11 //053   ----------------------------------------
 BYTE   W12
 BYTE   PEND 
//  #11 //054   ----------------------------------------
 BYTE   PATT
  POIN2 Label_019A58EB
//  #11 //055   ----------------------------------------
 BYTE   PATT
  POIN2 Label_019A5909
//  #11 //056   ----------------------------------------
 BYTE   PATT
  POIN2 Label_019A592A
//  #11 //057   ----------------------------------------
 BYTE   PATT
  POIN2 Label_019A594B
//  #11 //058   ----------------------------------------
 BYTE   PATT
  POIN2 Label_019A596A
//  #11 //059   ----------------------------------------
 BYTE   PATT
  POIN2 Label_019A58EB
//  #11 //060   ----------------------------------------
 BYTE   PATT
  POIN2 Label_019A5990
//  #11 //061   ----------------------------------------
 BYTE   PATT
  POIN2 Label_019A59B1
//  #11 //062   ----------------------------------------
 BYTE   PATT
  POIN2 Label_019A594B
//  #11 //063   ----------------------------------------
 BYTE   PATT
  POIN2 Label_019A59D7
//  #11 //064   ----------------------------------------
 BYTE   GoTo
  POIN2 Label_019A5818
 BYTE   FINE

//**************** Track 12 (Midi-Chn.11) ****************//

songA8_012:
//  #12 //000   ----------------------------------------
Label_019A55F4:
 BYTE   TEMPO   154*songA8_tbs/2
 BYTE   KEYSH   songA8_key+0
 BYTE   VOICE   47
 BYTE   VOL   42*songA8_mvl/mxv
 BYTE   PAN   c_v+12
 BYTE   N04  Gs1  v120
 BYTE   W04
 BYTE   Gs1
 BYTE   W04
 BYTE   Gs1
 BYTE   W04
 BYTE   N12  Cs2  v127
 BYTE   W36
 BYTE   N36  Cs2  v120
 BYTE   W36
 BYTE   N12  Gs1
 BYTE   W24
//  #12 //001   ----------------------------------------
 BYTE   Cs2
 BYTE   W24
 BYTE   N36  Bn1
 BYTE   W36
 BYTE   N12
 BYTE   W24
 BYTE   Fs1
 BYTE   W12
//  #12 //002   ----------------------------------------
 BYTE   N24  Bn1
 BYTE   W24
 BYTE   N12
 BYTE   W24
 BYTE   N36  An1
 BYTE   W36
 BYTE   N12
 BYTE   W24
//  #12 //003   ----------------------------------------
 BYTE   N06  En1
 BYTE   W06
 BYTE   En1
 BYTE   W06
 BYTE   N12  An1
 BYTE   W24
 BYTE   An1
 BYTE   W24
 BYTE   Bn1
 BYTE   W36
//  #12 //004   ----------------------------------------
Label_019A5630:
 BYTE   N12  Bn1  v120
 BYTE   W36
 BYTE   N24  Fs1
 BYTE   W24
 BYTE   N12  Bn1
 BYTE   W12
 BYTE   N04  Bn1  v127
 BYTE   W04
 BYTE   Bn1  v112
 BYTE   W04
 BYTE   Bn1  v120
 BYTE   W04
 BYTE   N12  Cs2
 BYTE   W36
 BYTE   PEND 
//  #12 //005   ----------------------------------------
Label_019A5648:
 BYTE   N12  Cs2  v120
 BYTE   W36
 BYTE   Gs1
 BYTE   W24
 BYTE   Cs2
 BYTE   W24
 BYTE   N36  Bn1
 BYTE   W36
 BYTE   PEND 
//  #12 //006   ----------------------------------------
Label_019A5654:
 BYTE   N12  Bn1  v120
 BYTE   W24
 BYTE   Fs1
 BYTE   W12
 BYTE   N24  Bn1
 BYTE   W24
 BYTE   N12
 BYTE   W24
 BYTE   N36  An1
 BYTE   W36
 BYTE   PEND 
//  #12 //007   ----------------------------------------
Label_019A5663:
 BYTE   N12  An1  v120
 BYTE   W24
 BYTE   N06  En1
 BYTE   W06
 BYTE   En1
 BYTE   W06
 BYTE   N12  An1
 BYTE   W24
 BYTE   An1
 BYTE   W24
 BYTE   Bn1
 BYTE   W36
 BYTE   PEND 
//  #12 //008   ----------------------------------------
Label_019A5674:
 BYTE   N12  Bn1  v120
 BYTE   W36
 BYTE   N24  Fs1
 BYTE   W24
 BYTE   N12  Bn1
 BYTE   W12
 BYTE   N04  Bn1  v127
 BYTE   W04
 BYTE   Bn1  v112
 BYTE   W04
 BYTE   Bn1  v120
 BYTE   W04
 BYTE   N12  An1
 BYTE   W36
 BYTE   PEND 
//  #12 //009   ----------------------------------------
Label_019A568C:
 BYTE   N12  An1  v120
 BYTE   W36
 BYTE   En1
 BYTE   W24
 BYTE   An1
 BYTE   W24
 BYTE   N36  Bn1
 BYTE   W36
 BYTE   PEND 
//  #12 //010   ----------------------------------------
Label_019A5698:
 BYTE   N12  Bn1  v120
 BYTE   W24
 BYTE   Fs1
 BYTE   W12
 BYTE   N24  Bn1
 BYTE   W24
 BYTE   N12
 BYTE   W24
 BYTE   N36  Cs2
 BYTE   W36
 BYTE   PEND 
//  #12 //011   ----------------------------------------
Label_019A56A7:
 BYTE   N12  Cs2  v120
 BYTE   W24
 BYTE   N06  Gs1
 BYTE   W06
 BYTE   Gs1
 BYTE   W06
 BYTE   N12  Cs2
 BYTE   W24
 BYTE   Cs2
 BYTE   W24
 BYTE   Cs2
 BYTE   W36
 BYTE   PEND 
//  #12 //012   ----------------------------------------
Label_019A56B8:
 BYTE   N12  Cs2  v120
 BYTE   W36
 BYTE   Cs2
 BYTE   W24
 BYTE   Bn1
 BYTE   W12
 BYTE   N04  Bn1  v127
 BYTE   W04
 BYTE   Bn1  v112
 BYTE   W04
 BYTE   Bn1  v120
 BYTE   W04
 BYTE   N12  An1
 BYTE   W36
 BYTE   PEND 
//  #12 //013   ----------------------------------------
 BYTE   PATT
  POIN2 Label_019A568C
//  #12 //014   ----------------------------------------
 BYTE   PATT
  POIN2 Label_019A5698
//  #12 //015   ----------------------------------------
 BYTE   PATT
  POIN2 Label_019A56A7
//  #12 //016   ----------------------------------------
Label_019A56DD:
 BYTE   N12  Cs2  v120
 BYTE   W36
 BYTE   N24  Gs1
 BYTE   W24
 BYTE   N12  Cs2
 BYTE   W12
 BYTE   N04  Cs2  v127
 BYTE   W04
 BYTE   Gs1  v112
 BYTE   W04
 BYTE   Gs1  v120
 BYTE   W04
 BYTE   N12  Cs2
 BYTE   W36
 BYTE   PEND 
//  #12 //017   ----------------------------------------
 BYTE   PATT
  POIN2 Label_019A5648
//  #12 //018   ----------------------------------------
 BYTE   PATT
  POIN2 Label_019A5654
//  #12 //019   ----------------------------------------
 BYTE   PATT
  POIN2 Label_019A5663
//  #12 //020   ----------------------------------------
 BYTE   PATT
  POIN2 Label_019A5630
//  #12 //021   ----------------------------------------
 BYTE   PATT
  POIN2 Label_019A5648
//  #12 //022   ----------------------------------------
 BYTE   PATT
  POIN2 Label_019A5654
//  #12 //023   ----------------------------------------
 BYTE   PATT
  POIN2 Label_019A5663
//  #12 //024   ----------------------------------------
 BYTE   PATT
  POIN2 Label_019A5674
//  #12 //025   ----------------------------------------
 BYTE   PATT
  POIN2 Label_019A568C
//  #12 //026   ----------------------------------------
 BYTE   PATT
  POIN2 Label_019A5698
//  #12 //027   ----------------------------------------
 BYTE   PATT
  POIN2 Label_019A56A7
//  #12 //028   ----------------------------------------
 BYTE   PATT
  POIN2 Label_019A56B8
//  #12 //029   ----------------------------------------
 BYTE   PATT
  POIN2 Label_019A568C
//  #12 //030   ----------------------------------------
 BYTE   PATT
  POIN2 Label_019A5698
//  #12 //031   ----------------------------------------
 BYTE   PATT
  POIN2 Label_019A56A7
//  #12 //032   ----------------------------------------
 BYTE   PATT
  POIN2 Label_019A56DD
//  #12 //033   ----------------------------------------
Label_019A5745:
 BYTE   N12  Cs2  v120
 BYTE   W36
 BYTE   Gs1
 BYTE   W24
 BYTE   Cs2
 BYTE   W24
 BYTE   N36  An1
 BYTE   W36
 BYTE   PEND 
//  #12 //034   ----------------------------------------
Label_019A5751:
 BYTE   N12  An1  v120
 BYTE   W24
 BYTE   En1
 BYTE   W12
 BYTE   N24  An1
 BYTE   W24
 BYTE   N12
 BYTE   W24
 BYTE   N36  Fs1
 BYTE   W36
 BYTE   PEND 
//  #12 //035   ----------------------------------------
Label_019A5760:
 BYTE   N12  Fs1  v120
 BYTE   W36
 BYTE   N24  Cs2
 BYTE   W24
 BYTE   Fs1
 BYTE   W24
 BYTE   N12  Gs1
 BYTE   W36
 BYTE   PEND 
//  #12 //036   ----------------------------------------
Label_019A576D:
 BYTE   N12  Gs1  v120
 BYTE   W24
 BYTE   Ds1
 BYTE   W12
 BYTE   N24  Gs1
 BYTE   W24
 BYTE   N12
 BYTE   W24
 BYTE   Cs2
 BYTE   W36
 BYTE   PEND 
//  #12 //037   ----------------------------------------
 BYTE   PATT
  POIN2 Label_019A5745
//  #12 //038   ----------------------------------------
 BYTE   PATT
  POIN2 Label_019A5751
//  #12 //039   ----------------------------------------
 BYTE   PATT
  POIN2 Label_019A5760
//  #12 //040   ----------------------------------------
Label_019A578A:
 BYTE   N12  Gs1  v120
 BYTE   W24
 BYTE   Ds1
 BYTE   W12
 BYTE   N24  Gs1
 BYTE   W24
 BYTE   N12
 BYTE   W24
 BYTE   An1
 BYTE   W36
 BYTE   PEND 
//  #12 //041   ----------------------------------------
 BYTE   N12  An1  v120
 BYTE   W36
 BYTE   En1
 BYTE   W24
 BYTE   N24  An1
 BYTE   W24
 BYTE   N36  Dn2
 BYTE   W36
//  #12 //042   ----------------------------------------
 BYTE   N12
 BYTE   W24
 BYTE   An1
 BYTE   W12
 BYTE   N24  Dn2
 BYTE   W24
 BYTE   N12
 BYTE   W24
 BYTE   N36  An1
 BYTE   W36
//  #12 //043   ----------------------------------------
 BYTE   N12
 BYTE   W36
 BYTE   N24  En1
 BYTE   W24
 BYTE   An1
 BYTE   W24
 BYTE   N12  Dn2
 BYTE   W36
//  #12 //044   ----------------------------------------
 BYTE   Dn2
 BYTE   W24
 BYTE   An1
 BYTE   W12
 BYTE   N24  Dn2
 BYTE   W24
 BYTE   N12
 BYTE   W24
 BYTE   Cs2
 BYTE   W36
//  #12 //045   ----------------------------------------
 BYTE   PATT
  POIN2 Label_019A5745
//  #12 //046   ----------------------------------------
 BYTE   PATT
  POIN2 Label_019A5751
//  #12 //047   ----------------------------------------
 BYTE   PATT
  POIN2 Label_019A5760
//  #12 //048   ----------------------------------------
 BYTE   PATT
  POIN2 Label_019A576D
//  #12 //049   ----------------------------------------
 BYTE   PATT
  POIN2 Label_019A5745
//  #12 //050   ----------------------------------------
 BYTE   PATT
  POIN2 Label_019A5751
//  #12 //051   ----------------------------------------
 BYTE   PATT
  POIN2 Label_019A5760
//  #12 //052   ----------------------------------------
 BYTE   PATT
  POIN2 Label_019A578A
//  #12 //053   ----------------------------------------
 BYTE   PATT
  POIN2 Label_019A568C
//  #12 //054   ----------------------------------------
 BYTE   PATT
  POIN2 Label_019A5698
//  #12 //055   ----------------------------------------
 BYTE   N12  Cs2  v120
 BYTE   W36
 BYTE   N24  Gs1
 BYTE   W24
 BYTE   Cs2
 BYTE   W24
 BYTE   N12
 BYTE   W36
//  #12 //056   ----------------------------------------
 BYTE   Cs2
 BYTE   W24
 BYTE   Gs1
 BYTE   W12
 BYTE   N24  Cs2
 BYTE   W24
 BYTE   N12
 BYTE   W24
 BYTE   GoTo
  POIN2 Label_019A55F4
 BYTE   FINE

//**************** Track 13 (Midi-Chn.12) ****************//

songA8_013:
//  #13 //000   ----------------------------------------
Label_01982244:
 BYTE   TEMPO   154*songA8_tbs/2
 BYTE   KEYSH   songA8_key+0
 BYTE   VOICE   68
 BYTE   VOL   21*songA8_mvl/mxv
 BYTE   PAN   c_v+56
 BYTE   BEND   c_v+1
 BYTE   W96
//  #13 //001   ----------------------------------------
 BYTE   W96
//  #13 //002   ----------------------------------------
 BYTE   W96
//  #13 //003   ----------------------------------------
 BYTE   W96
//  #13 //004   ----------------------------------------
 BYTE   W96
//  #13 //005   ----------------------------------------
 BYTE   W96
//  #13 //006   ----------------------------------------
 BYTE   W96
//  #13 //007   ----------------------------------------
 BYTE   W96
//  #13 //008   ----------------------------------------
 BYTE   W96
//  #13 //009   ----------------------------------------
 BYTE   W92
 BYTE   W01
 BYTE   N04  En3  v127
 BYTE   W04
//  #13 //010   ----------------------------------------
 BYTE   Fs3  v112
 BYTE   W04
 BYTE   Gs3
 BYTE   W04
 BYTE   An3  v116
 BYTE   W04
 BYTE   Bn3  v120
 BYTE   W04
 BYTE   Cs4  v127
 BYTE   W04
 BYTE   N36  Ds4  v112
 BYTE   W36
 BYTE   N42  Gs3
 BYTE   W48
//  #13 //011   ----------------------------------------
 BYTE   N24  Ds4
 BYTE   W24
 BYTE   N12  En4
 BYTE   W12
 BYTE   Fs4
 BYTE   W12
 BYTE   En4
 BYTE   W12
 BYTE   N48  Ds4
 BYTE   W60
//  #13 //012   ----------------------------------------
 BYTE   N24
 BYTE   W24
 BYTE   N12  En4
 BYTE   W12
 BYTE   N36  Ds4
 BYTE   W36
 BYTE   N60  Cs4
 BYTE   W60
//  #13 //013   ----------------------------------------
 BYTE   N24  Gs4
 BYTE   W24
 BYTE   N36  Fs4
 BYTE   W36
 BYTE   N54  En4
 BYTE   W60
//  #13 //014   ----------------------------------------
 BYTE   N12  Ds4
 BYTE   N24  Gs3  v108
 BYTE   W12
 BYTE   N12  En4  v112
 BYTE   W12
 BYTE   N36  Gs3  v108
 BYTE   N36  Ds4  v112
 BYTE   W36
 BYTE   N42  Cs3  v108
 BYTE   N42  Gs3  v112
 BYTE   W48
//  #13 //015   ----------------------------------------
 BYTE   N24  Gs3  v108
 BYTE   N24  Ds4  v112
 BYTE   W24
 BYTE   N12  Gs3  v108
 BYTE   N12  En4  v112
 BYTE   W12
 BYTE   Ds4  v108
 BYTE   N12  Fs4  v112
 BYTE   W12
 BYTE   Gs3  v108
 BYTE   N12  En4  v112
 BYTE   W12
 BYTE   N48  Gs3  v108
 BYTE   N48  Ds4  v112
 BYTE   W60
//  #13 //016   ----------------------------------------
 BYTE   N24  Gs3  v108
 BYTE   N24  Ds4  v112
 BYTE   W24
 BYTE   N12  Gs3  v108
 BYTE   N12  En4  v112
 BYTE   W12
 BYTE   N36  Gs3  v108
 BYTE   N36  Ds4  v112
 BYTE   W36
 BYTE   N24  Gs3  v108
 BYTE   N24  Cs4  v112
 BYTE   W24
//  #13 //017   ----------------------------------------
 BYTE   N12  Gs3  v108
 BYTE   N12  Ds4  v112
 BYTE   W12
 BYTE   N96  En4
 BYTE   N96  Cs4  v108
 BYTE   W96
//  #13 //018   ----------------------------------------
 BYTE   N36  En4  v112
 BYTE   N36  Cs4  v108
 BYTE   W36
 BYTE   N15  Cs4  v076
 BYTE   W96
//  #13 //019   ----------------------------------------
 BYTE   W96
//  #13 //020   ----------------------------------------
 BYTE   W96
//  #13 //021   ----------------------------------------
 BYTE   W96
//  #13 //022   ----------------------------------------
 BYTE   W96
//  #13 //023   ----------------------------------------
 BYTE   W96
//  #13 //024   ----------------------------------------
 BYTE   W96
//  #13 //025   ----------------------------------------
 BYTE   W96
//  #13 //026   ----------------------------------------
 BYTE   W96
//  #13 //027   ----------------------------------------
 BYTE   W96
//  #13 //028   ----------------------------------------
 BYTE   W12
 BYTE   N03  En3  v127
 BYTE   W04
 BYTE   N04  Fs3  v116
 BYTE   W04
 BYTE   Gs3
 BYTE   W04
 BYTE   An3  v120
 BYTE   W04
 BYTE   Bn3  v127
 BYTE   W04
 BYTE   Cs4
 BYTE   W04
 BYTE   N12  Ds4
 BYTE   W24
 BYTE   N36
 BYTE   W36
//  #13 //029   ----------------------------------------
 BYTE   N09  En4
 BYTE   W12
 BYTE   N12  Ds4
 BYTE   W12
 BYTE   N09  Cs4
 BYTE   W12
 BYTE   N12  Ds4
 BYTE   W12
 BYTE   En4
 BYTE   W12
 BYTE   N24  Fs4
 BYTE   W24
 BYTE   N36  Ds4
 BYTE   W36
//  #13 //030   ----------------------------------------
 BYTE   N09  En4
 BYTE   W12
 BYTE   N12  Ds4
 BYTE   W12
 BYTE   N09  Cs4
 BYTE   W12
 BYTE   N12  Ds4
 BYTE   W12
 BYTE   En4
 BYTE   W12
 BYTE   N54  Ds4
 BYTE   W60
//  #13 //031   ----------------------------------------
 BYTE   N06  En4
 BYTE   W06
 BYTE   Fs4
 BYTE   W06
 BYTE   N12  Gs4
 BYTE   W12
 BYTE   N06  Fs4
 BYTE   W06
 BYTE   En4
 BYTE   W06
 BYTE   N24  Ds4
 BYTE   W24
 BYTE   N12  Cs4
 BYTE   W18
 BYTE   N06  Gs4
 BYTE   W06
 BYTE   N84
 BYTE   W96
//  #13 //032   ----------------------------------------
 BYTE   N12  Ds4
 BYTE   W24
 BYTE   N36
 BYTE   W36
 BYTE   N09  En4
 BYTE   W12
 BYTE   N24  Ds4
 BYTE   W12
 BYTE   N09  Cs4
 BYTE   W12
//  #13 //033   ----------------------------------------
 BYTE   N12  Ds4
 BYTE   W12
 BYTE   En4
 BYTE   W12
 BYTE   N24  Fs4
 BYTE   W24
 BYTE   N36  Ds4
 BYTE   W36
 BYTE   N09  En4
 BYTE   W12
//  #13 //034   ----------------------------------------
 BYTE   N12  Ds4
 BYTE   W12
 BYTE   N09  Cs4
 BYTE   W12
 BYTE   N12  Ds4
 BYTE   W12
 BYTE   En4
 BYTE   W12
 BYTE   N24  Ds4
 BYTE   W24
 BYTE   N03
 BYTE   W36
//  #13 //035   ----------------------------------------
 BYTE   N06  En4
 BYTE   W06
 BYTE   Ds4
 BYTE   W06
 BYTE   N12  Cs4
 BYTE   W12
 BYTE   N06  Ds4
 BYTE   W06
 BYTE   En4
 BYTE   W06
 BYTE   N12  Fs4
 BYTE   W12
 BYTE   N06  Gs4
 BYTE   W12
 BYTE   N12  Ds4
 BYTE   W18
 BYTE   N06  Cs4
 BYTE   W06
 BYTE   N84  Gs3
 BYTE   W96
//  #13 //036   ----------------------------------------
 BYTE   W96
//  #13 //037   ----------------------------------------
 BYTE   W96
//  #13 //038   ----------------------------------------
 BYTE   W96
//  #13 //039   ----------------------------------------
 BYTE   W96
//  #13 //040   ----------------------------------------
 BYTE   W96
//  #13 //041   ----------------------------------------
 BYTE   W96
//  #13 //042   ----------------------------------------
 BYTE   W96
//  #13 //043   ----------------------------------------
 BYTE   W96
//  #13 //044   ----------------------------------------
 BYTE   W96
//  #13 //045   ----------------------------------------
 BYTE   W72
 BYTE   N04  Ds3  v116
 BYTE   W04
 BYTE   En3
 BYTE   W04
 BYTE   Fs3
 BYTE   W04
 BYTE   Gs3  v120
 BYTE   W04
 BYTE   An3
 BYTE   W04
 BYTE   Bn3
 BYTE   W04
//  #13 //046   ----------------------------------------
 BYTE   N36  Cs4
 BYTE   W36
 BYTE   N84  Gs4
 BYTE   W84
//  #13 //047   ----------------------------------------
 BYTE   N36  Fs4
 BYTE   W36
 BYTE   N84  Cs5
 BYTE   W84
//  #13 //048   ----------------------------------------
 BYTE   N36  An3
 BYTE   N36  Cs4
 BYTE   W36
 BYTE   N84
 BYTE   N84  Gs4
 BYTE   W84
//  #13 //049   ----------------------------------------
 BYTE   N36  Cs4
 BYTE   N36  Fs4
 BYTE   W36
 BYTE   Fs4
 BYTE   N36  Cs5
 BYTE   W36
 BYTE   N48  Fs4
 BYTE   N48  Bn4
 BYTE   W96
//  #13 //050   ----------------------------------------
 BYTE   W96
//  #13 //051   ----------------------------------------
 BYTE   W96
//  #13 //052   ----------------------------------------
 BYTE   W96
//  #13 //053   ----------------------------------------
 BYTE   W96
//  #13 //054   ----------------------------------------
 BYTE   W96
//  #13 //055   ----------------------------------------
 BYTE   W96
//  #13 //056   ----------------------------------------
 BYTE   W96
//  #13 //057   ----------------------------------------
 BYTE   W96
//  #13 //058   ----------------------------------------
 BYTE   W96
//  #13 //059   ----------------------------------------
 BYTE   W96
//  #13 //060   ----------------------------------------
 BYTE   W96
//  #13 //061   ----------------------------------------
 BYTE   W96
//  #13 //062   ----------------------------------------
 BYTE   W96
//  #13 //063   ----------------------------------------
 BYTE   W96
//  #13 //064   ----------------------------------------
 BYTE   W36
 BYTE   W03
 BYTE   GoTo
  POIN2 Label_01982244
 BYTE   FINE

//**************** Track 14 (Midi-Chn.13) ****************//

songA8_014:
//  #14 //000   ----------------------------------------
Label_019A5A44:
 BYTE   TEMPO   154*songA8_tbs/2
 BYTE   KEYSH   songA8_key+0
 BYTE   VOICE   127
 BYTE   VOL   39*songA8_mvl/mxv
 BYTE   PAN   c_v+0
 BYTE   W12
 BYTE   N12  Dn1  v112
 BYTE   W12
 BYTE   N06  Dn1  v080
 BYTE   W06
 BYTE   Dn1  v092
 BYTE   W06
 BYTE   N12  Dn1  v100
 BYTE   W12
 BYTE   Dn1  v112
 BYTE   W12
 BYTE   N06  Dn1  v080
 BYTE   W06
 BYTE   Dn1  v092
 BYTE   W06
 BYTE   N12  Dn1  v100
 BYTE   W12
 BYTE   Dn1  v112
 BYTE   W12
//  #14 //001   ----------------------------------------
Label_019A5A6F:
 BYTE   N06  Dn1  v092
 BYTE   W06
 BYTE   Dn1  v100
 BYTE   W06
 BYTE   Dn1  v112
 BYTE   W06
 BYTE   N03  Dn1  v080
 BYTE   W03
 BYTE   Dn1
 BYTE   W03
 BYTE   N06  Dn1  v092
 BYTE   W06
 BYTE   Dn1  v100
 BYTE   W06
 BYTE   N12  Dn1  v112
 BYTE   W12
 BYTE   N06  Dn1  v080
 BYTE   W06
 BYTE   Dn1  v092
 BYTE   W06
 BYTE   N12  Dn1  v100
 BYTE   W12
 BYTE   Dn1  v112
 BYTE   W12
 BYTE   N06  Dn1  v080
 BYTE   W06
 BYTE   Dn1  v092
 BYTE   W06
 BYTE   PEND 
//  #14 //002   ----------------------------------------
Label_019A5AA0:
 BYTE   N12  Dn1  v100
 BYTE   W12
 BYTE   Dn1  v112
 BYTE   W12
 BYTE   N06  Dn1  v092
 BYTE   W06
 BYTE   Dn1  v096
 BYTE   W06
 BYTE   Dn1  v100
 BYTE   W06
 BYTE   N03
 BYTE   W03
 BYTE   Dn1
 BYTE   W03
 BYTE   N06  Dn1  v108
 BYTE   W06
 BYTE   Dn1  v112
 BYTE   W06
 BYTE   N12
 BYTE   W12
 BYTE   N06  Dn1  v080
 BYTE   W06
 BYTE   Dn1  v092
 BYTE   W06
 BYTE   N12  Dn1  v100
 BYTE   W12
 BYTE   PEND 
//  #14 //003   ----------------------------------------
Label_019A5ACA:
 BYTE   N12  Dn1  v112
 BYTE   W12
 BYTE   N06  Dn1  v080
 BYTE   W06
 BYTE   Dn1  v092
 BYTE   W06
 BYTE   N12  Dn1  v100
 BYTE   W12
 BYTE   Dn1  v112
 BYTE   W12
 BYTE   N06  Dn1  v092
 BYTE   W06
 BYTE   Dn1  v100
 BYTE   W06
 BYTE   Dn1  v112
 BYTE   W06
 BYTE   N03  Dn1  v080
 BYTE   W03
 BYTE   Dn1
 BYTE   W03
 BYTE   N06  Dn1  v092
 BYTE   W06
 BYTE   Dn1  v100
 BYTE   W06
 BYTE   N12  Dn1  v112
 BYTE   W12
 BYTE   PEND 
//  #14 //004   ----------------------------------------
Label_019A5AF8:
 BYTE   N06  Dn1  v080
 BYTE   W06
 BYTE   Dn1  v092
 BYTE   W06
 BYTE   N12  Dn1  v100
 BYTE   W12
 BYTE   Dn1  v112
 BYTE   W12
 BYTE   N06  Dn1  v080
 BYTE   W06
 BYTE   Dn1  v092
 BYTE   W06
 BYTE   N12  Dn1  v100
 BYTE   W12
 BYTE   Dn1  v112
 BYTE   W12
 BYTE   N06  Dn1  v092
 BYTE   W06
 BYTE   Dn1  v096
 BYTE   W06
 BYTE   Dn1  v100
 BYTE   W06
 BYTE   N03
 BYTE   W03
 BYTE   Dn1
 BYTE   W03
 BYTE   PEND 
//  #14 //005   ----------------------------------------
Label_019A5B23:
 BYTE   N06  Dn1  v108
 BYTE   W06
 BYTE   Dn1  v112
 BYTE   W06
 BYTE   N12
 BYTE   W12
 BYTE   N06  Dn1  v080
 BYTE   W06
 BYTE   Dn1  v092
 BYTE   W06
 BYTE   N12  Dn1  v100
 BYTE   W12
 BYTE   Dn1  v112
 BYTE   W12
 BYTE   N06  Dn1  v080
 BYTE   W06
 BYTE   Dn1  v092
 BYTE   W06
 BYTE   N12  Dn1  v100
 BYTE   W12
 BYTE   Dn1  v112
 BYTE   W12
 BYTE   PEND 
//  #14 //006   ----------------------------------------
 BYTE   PATT
  POIN2 Label_019A5A6F
//  #14 //007   ----------------------------------------
 BYTE   PATT
  POIN2 Label_019A5AA0
//  #14 //008   ----------------------------------------
Label_019A5B53:
 BYTE   N12  Dn1  v112
 BYTE   W12
 BYTE   N06  Dn1  v080
 BYTE   W06
 BYTE   Dn1  v092
 BYTE   W06
 BYTE   N12  Dn1  v100
 BYTE   W12
 BYTE   Dn1  v112
 BYTE   W12
 BYTE   N06  Dn1  v092
 BYTE   W06
 BYTE   Dn1  v100
 BYTE   W06
 BYTE   Dn1  v112
 BYTE   N96  En2  v127
 BYTE   W06
 BYTE   N03  Dn1  v080
 BYTE   W03
 BYTE   Dn1
 BYTE   W03
 BYTE   N06  Dn1  v092
 BYTE   W06
 BYTE   Dn1  v100
 BYTE   W06
 BYTE   N12  Dn1  v112
 BYTE   W12
 BYTE   PEND 
//  #14 //009   ----------------------------------------
Label_019A5B84:
 BYTE   N06  Dn1  v080
 BYTE   W06
 BYTE   Dn1  v092
 BYTE   W06
 BYTE   N12  Dn1  v100
 BYTE   W12
 BYTE   Dn1  v112
 BYTE   W12
 BYTE   N06  Dn1  v080
 BYTE   W06
 BYTE   Dn1  v092
 BYTE   W06
 BYTE   N12  Dn1  v100
 BYTE   W12
 BYTE   Dn1  v112
 BYTE   N96  En2  v127
 BYTE   W12
 BYTE   N06  Dn1  v092
 BYTE   W06
 BYTE   Dn1  v096
 BYTE   W06
 BYTE   Dn1  v100
 BYTE   W06
 BYTE   N03
 BYTE   W03
 BYTE   Dn1
 BYTE   W03
 BYTE   PEND 
//  #14 //010   ----------------------------------------
Label_019A5BB2:
 BYTE   N06  Dn1  v108
 BYTE   W06
 BYTE   Dn1  v112
 BYTE   W06
 BYTE   N12
 BYTE   N72  Cs2  v127
 BYTE   W12
 BYTE   N06  Dn1  v080
 BYTE   W06
 BYTE   Dn1  v092
 BYTE   W06
 BYTE   N12  Dn1  v100
 BYTE   W12
 BYTE   Dn1  v112
 BYTE   W12
 BYTE   N06  Dn1  v080
 BYTE   N24  En2  v127
 BYTE   W06
 BYTE   N06  Dn1  v092
 BYTE   W06
 BYTE   N12  Dn1  v100
 BYTE   W12
 BYTE   En2
 BYTE   N12  Dn1  v112
 BYTE   W12
 BYTE   PEND 
//  #14 //011   ----------------------------------------
Label_019A5BE1:
 BYTE   N06  Dn1  v092
 BYTE   W06
 BYTE   Dn1  v100
 BYTE   W06
 BYTE   Dn1  v112
 BYTE   W06
 BYTE   N03  Dn1  v080
 BYTE   W03
 BYTE   Dn1
 BYTE   W03
 BYTE   N06  Dn1  v092
 BYTE   W06
 BYTE   Dn1  v100
 BYTE   W06
 BYTE   N12  Cs2
 BYTE   N12  Dn1  v112
 BYTE   W12
 BYTE   N06  Dn1  v080
 BYTE   W06
 BYTE   Dn1  v092
 BYTE   W06
 BYTE   N12  Dn1  v100
 BYTE   W12
 BYTE   Dn1  v112
 BYTE   W12
 BYTE   N06  Dn1  v080
 BYTE   W06
 BYTE   Dn1  v092
 BYTE   W06
 BYTE   PEND 
//  #14 //012   ----------------------------------------
 BYTE   PATT
  POIN2 Label_019A5AA0
//  #14 //013   ----------------------------------------
 BYTE   PATT
  POIN2 Label_019A5ACA
//  #14 //014   ----------------------------------------
 BYTE   PATT
  POIN2 Label_019A5AF8
//  #14 //015   ----------------------------------------
 BYTE   N06  Dn1  v108
 BYTE   W06
 BYTE   Dn1  v112
 BYTE   W06
 BYTE   N12
 BYTE   N96  Cs2  v127
 BYTE   W12
 BYTE   N06  Dn1  v080
 BYTE   W06
 BYTE   Dn1  v092
 BYTE   W06
 BYTE   N12  Dn1  v100
 BYTE   W12
 BYTE   Dn1  v112
 BYTE   W12
 BYTE   N06  Dn1  v080
 BYTE   W06
 BYTE   Dn1  v092
 BYTE   W06
 BYTE   N12  Dn1  v100
 BYTE   W12
 BYTE   Dn1  v112
 BYTE   W12
//  #14 //016   ----------------------------------------
 BYTE   N06  Dn1  v092
 BYTE   W06
 BYTE   Dn1  v100
 BYTE   W06
 BYTE   Dn1  v112
 BYTE   N24  Cs2  v127
 BYTE   W06
 BYTE   N03  Dn1  v080
 BYTE   W03
 BYTE   Dn1
 BYTE   W03
 BYTE   N06  Dn1  v092
 BYTE   W06
 BYTE   Dn1  v100
 BYTE   W06
 BYTE   N12  Cs2
 BYTE   N12  Dn1  v112
 BYTE   W12
 BYTE   N06  Dn1  v080
 BYTE   W06
 BYTE   Dn1  v092
 BYTE   W06
 BYTE   N12  Dn1  v100
 BYTE   W12
 BYTE   Dn1  v112
 BYTE   W12
 BYTE   N06  Dn1  v080
 BYTE   W06
 BYTE   Dn1  v092
 BYTE   W06
//  #14 //017   ----------------------------------------
 BYTE   PATT
  POIN2 Label_019A5AA0
//  #14 //018   ----------------------------------------
 BYTE   PATT
  POIN2 Label_019A5ACA
//  #14 //019   ----------------------------------------
 BYTE   PATT
  POIN2 Label_019A5AF8
//  #14 //020   ----------------------------------------
 BYTE   PATT
  POIN2 Label_019A5B23
//  #14 //021   ----------------------------------------
 BYTE   PATT
  POIN2 Label_019A5A6F
//  #14 //022   ----------------------------------------
 BYTE   PATT
  POIN2 Label_019A5AA0
//  #14 //023   ----------------------------------------
 BYTE   PATT
  POIN2 Label_019A5ACA
//  #14 //024   ----------------------------------------
 BYTE   PATT
  POIN2 Label_019A5AF8
//  #14 //025   ----------------------------------------
 BYTE   PATT
  POIN2 Label_019A5B23
//  #14 //026   ----------------------------------------
 BYTE   PATT
  POIN2 Label_019A5A6F
//  #14 //027   ----------------------------------------
 BYTE   PATT
  POIN2 Label_019A5AA0
//  #14 //028   ----------------------------------------
 BYTE   PATT
  POIN2 Label_019A5B53
//  #14 //029   ----------------------------------------
 BYTE   PATT
  POIN2 Label_019A5B84
//  #14 //030   ----------------------------------------
 BYTE   PATT
  POIN2 Label_019A5BB2
//  #14 //031   ----------------------------------------
 BYTE   PATT
  POIN2 Label_019A5BE1
//  #14 //032   ----------------------------------------
 BYTE   PATT
  POIN2 Label_019A5AA0
//  #14 //033   ----------------------------------------
 BYTE   PATT
  POIN2 Label_019A5ACA
//  #14 //034   ----------------------------------------
 BYTE   PATT
  POIN2 Label_019A5AF8
//  #14 //035   ----------------------------------------
 BYTE   PATT
  POIN2 Label_019A5B23
//  #14 //036   ----------------------------------------
 BYTE   PATT
  POIN2 Label_019A5A6F
//  #14 //037   ----------------------------------------
 BYTE   PATT
  POIN2 Label_019A5AA0
//  #14 //038   ----------------------------------------
 BYTE   PATT
  POIN2 Label_019A5B53
//  #14 //039   ----------------------------------------
 BYTE   PATT
  POIN2 Label_019A5B84
//  #14 //040   ----------------------------------------
 BYTE   PATT
  POIN2 Label_019A5BB2
//  #14 //041   ----------------------------------------
 BYTE   PATT
  POIN2 Label_019A5BE1
//  #14 //042   ----------------------------------------
 BYTE   PATT
  POIN2 Label_019A5AA0
//  #14 //043   ----------------------------------------
 BYTE   PATT
  POIN2 Label_019A5ACA
//  #14 //044   ----------------------------------------
 BYTE   PATT
  POIN2 Label_019A5AF8
//  #14 //045   ----------------------------------------
 BYTE   PATT
  POIN2 Label_019A5B23
//  #14 //046   ----------------------------------------
 BYTE   PATT
  POIN2 Label_019A5A6F
//  #14 //047   ----------------------------------------
 BYTE   PATT
  POIN2 Label_019A5AA0
//  #14 //048   ----------------------------------------
 BYTE   PATT
  POIN2 Label_019A5ACA
//  #14 //049   ----------------------------------------
 BYTE   PATT
  POIN2 Label_019A5AF8
//  #14 //050   ----------------------------------------
 BYTE   PATT
  POIN2 Label_019A5B23
//  #14 //051   ----------------------------------------
 BYTE   PATT
  POIN2 Label_019A5A6F
//  #14 //052   ----------------------------------------
 BYTE   PATT
  POIN2 Label_019A5AA0
//  #14 //053   ----------------------------------------
 BYTE   PATT
  POIN2 Label_019A5B53
//  #14 //054   ----------------------------------------
 BYTE   PATT
  POIN2 Label_019A5B84
//  #14 //055   ----------------------------------------
 BYTE   PATT
  POIN2 Label_019A5BB2
//  #14 //056   ----------------------------------------
 BYTE   PATT
  POIN2 Label_019A5BE1
//  #14 //057   ----------------------------------------
 BYTE   PATT
  POIN2 Label_019A5AA0
//  #14 //058   ----------------------------------------
 BYTE   PATT
  POIN2 Label_019A5ACA
//  #14 //059   ----------------------------------------
 BYTE   PATT
  POIN2 Label_019A5AF8
//  #14 //060   ----------------------------------------
 BYTE   PATT
  POIN2 Label_019A5B23
//  #14 //061   ----------------------------------------
 BYTE   PATT
  POIN2 Label_019A5A6F
//  #14 //062   ----------------------------------------
 BYTE   PATT
  POIN2 Label_019A5AA0
//  #14 //063   ----------------------------------------
 BYTE   PATT
  POIN2 Label_019A5B53
//  #14 //064   ----------------------------------------
 BYTE   PATT
  POIN2 Label_019A5B84
//  #14 //065   ----------------------------------------
 BYTE   PATT
  POIN2 Label_019A5BB2
//  #14 //066   ----------------------------------------
 BYTE   PATT
  POIN2 Label_019A5BE1
//  #14 //067   ----------------------------------------
 BYTE   PATT
  POIN2 Label_019A5AA0
//  #14 //068   ----------------------------------------
 BYTE   PATT
  POIN2 Label_019A5ACA
//  #14 //069   ----------------------------------------
 BYTE   PATT
  POIN2 Label_019A5AF8
//  #14 //070   ----------------------------------------
 BYTE   N06  Dn1  v108
 BYTE   W06
 BYTE   Dn1  v112
 BYTE   W06
 BYTE   GoTo
  POIN2 Label_019A5A44
 BYTE   FINE

//******************************************************//
	ALIGN 4

songA8:
	BYTE	14	// NumTrks
	BYTE	0	// NumBlks
	BYTE	songA8_pri	// Priority
	BYTE	songA8_rev	// Reverb.
    
	POIN2	songA8_grp
    
	POIN2	songA8_001
	POIN2	songA8_002
	POIN2	songA8_003
	POIN2	songA8_004
	POIN2	songA8_005
	POIN2	songA8_006
	POIN2	songA8_007
	POIN2	songA8_008
	POIN2	songA8_009
	POIN2	songA8_010
	POIN2	songA8_011
	POIN2	songA8_012
	POIN2	songA8_013
	POIN2	songA8_014

	
