	.include "MPlayDef.s"

	.equ	song03C1_grp, voicegroup000
	.equ	song03C1_pri, 0
	.equ	song03C1_rev, 0
	.equ	song03C1_mvl, 127
	.equ	song03C1_key, 0
	.equ	song03C1_tbs, 1
	.equ	song03C1_exg, 0
	.equ	song03C1_cmp, 1

	.section .rodata
	.global	song03C1
	.align	2


@**************** Track 1 (Midi-Chn.0) ****************@

song03C1_001:
@  #01 @000   ----------------------------------------
 .byte   KEYSH , song03C1_key+0
Label_01983E6A:
 .byte   TEMPO , 160*song03C1_tbs/2
 .byte   VOICE , 100
 .byte   PAN , c_v+8
 .byte   VOL , 18*song03C1_mvl/mxv
 .byte   W96
@  #01 @001   ----------------------------------------
 .byte   W96
@  #01 @002   ----------------------------------------
 .byte   W96
@  #01 @003   ----------------------------------------
 .byte   W96
@  #01 @004   ----------------------------------------
 .byte   W96
@  #01 @005   ----------------------------------------
 .byte   W96
@  #01 @006   ----------------------------------------
 .byte   W96
@  #01 @007   ----------------------------------------
 .byte   W96
@  #01 @008   ----------------------------------------
 .byte   W96
@  #01 @009   ----------------------------------------
Label_01983E7B:
 .byte   W84
 .byte   N04 ,En3 ,v127
 .byte   W04
 .byte   Fs3 ,v112
 .byte   W04
 .byte   Gs3
 .byte   W04
 .byte   PEND 
@  #01 @010   ----------------------------------------
 .byte   An3 ,v116
 .byte   W04
 .byte   Bn3 ,v120
 .byte   W04
 .byte   Cs4 ,v127
 .byte   W04
 .byte   N36 ,Ds4 ,v112
 .byte   W36
 .byte   N42 ,Gs3
 .byte   W48
@  #01 @011   ----------------------------------------
Label_01983E96:
 .byte   N24 ,Ds4 ,v112
 .byte   W24
 .byte   N12 ,En4
 .byte   W12
 .byte   Fs4
 .byte   W12
 .byte   En4
 .byte   W12
 .byte   N48 ,Ds4
 .byte   W36
 .byte   PEND 
@  #01 @012   ----------------------------------------
Label_01983EA5:
 .byte   W24
 .byte   N24 ,Ds4 ,v112
 .byte   W24
 .byte   N12 ,En4
 .byte   W12
 .byte   N36 ,Ds4
 .byte   W36
 .byte   PEND 
@  #01 @013   ----------------------------------------
 .byte   N60 ,Cs4
 .byte   W60
 .byte   N24 ,Gs4
 .byte   W24
 .byte   N36 ,Fs4
 .byte   W12
@  #01 @014   ----------------------------------------
 .byte   W24
 .byte   N54 ,En4
 .byte   W60
 .byte   N12 ,Ds4
 .byte   W12
@  #01 @015   ----------------------------------------
 .byte   En4
 .byte   W12
 .byte   N36 ,Ds4
 .byte   W36
 .byte   N42 ,Gs3
 .byte   W48
@  #01 @016   ----------------------------------------
 .byte   PATT
  .word Label_01983E96
@  #01 @017   ----------------------------------------
 .byte   PATT
  .word Label_01983EA5
@  #01 @018   ----------------------------------------
 .byte   N24 ,Cs4 ,v112
 .byte   W24
 .byte   N12 ,Ds4
 .byte   W12
 .byte   N96 ,En4
 .byte   W60
@  #01 @019   ----------------------------------------
 .byte   W36
 .byte   N36
 .byte   W60
@  #01 @020   ----------------------------------------
 .byte   W96
@  #01 @021   ----------------------------------------
 .byte   W96
@  #01 @022   ----------------------------------------
 .byte   W96
@  #01 @023   ----------------------------------------
 .byte   W96
@  #01 @024   ----------------------------------------
 .byte   W96
@  #01 @025   ----------------------------------------
 .byte   W96
@  #01 @026   ----------------------------------------
 .byte   W96
@  #01 @027   ----------------------------------------
 .byte   W96
@  #01 @028   ----------------------------------------
 .byte   W96
@  #01 @029   ----------------------------------------
 .byte   PATT
  .word Label_01983E7B
@  #01 @030   ----------------------------------------
 .byte   N04 ,An3 ,v116
 .byte   W04
 .byte   Bn3 ,v120
 .byte   W04
 .byte   Cs4 ,v127
 .byte   W04
 .byte   N12 ,Ds4 ,v120
 .byte   N36 ,Cs5 ,v127
 .byte   W24
 .byte   N12 ,Ds4 ,v120
 .byte   N36 ,Gs4 ,v116
 .byte   W12
 .byte   N24 ,Cs4
 .byte   W24
 .byte   N24
 .byte   N09 ,En4 ,v120
 .byte   W12
 .byte   N12 ,Ds4 ,v127
 .byte   N36 ,Gs4 ,v116
 .byte   W12
@  #01 @031   ----------------------------------------
Label_01983F15:
 .byte   N09 ,Cs4 ,v120
 .byte   N12 ,Cs5 ,v116
 .byte   W12
 .byte   Ds4 ,v127
 .byte   N24 ,Cs5 ,v116
 .byte   W12
 .byte   N12 ,En4 ,v120
 .byte   N12 ,Gs4 ,v116
 .byte   W12
 .byte   N24 ,Fs4 ,v127
 .byte   N36 ,Cs5 ,v116
 .byte   W24
 .byte   N12 ,Ds4 ,v120
 .byte   N36 ,Gs4 ,v116
 .byte   W12
 .byte   N24 ,Cs4
 .byte   W24
 .byte   PEND 
@  #01 @032   ----------------------------------------
 .byte   N24
 .byte   N09 ,En4 ,v120
 .byte   W12
 .byte   N12 ,Ds4 ,v127
 .byte   N36 ,Gs4 ,v116
 .byte   W12
 .byte   N09 ,Cs4 ,v120
 .byte   N12 ,Cs5 ,v116
 .byte   W12
 .byte   Ds4 ,v127
 .byte   N24 ,Cs5 ,v116
 .byte   W12
 .byte   N12 ,En4 ,v120
 .byte   N12 ,Gs4 ,v116
 .byte   W12
 .byte   N54 ,Ds4 ,v120
 .byte   N36 ,Cs5 ,v116
 .byte   W24
 .byte   N12 ,Gs4
 .byte   W12
@  #01 @033   ----------------------------------------
 .byte   N24 ,Cs4
 .byte   W24
 .byte   N24
 .byte   N06 ,En4 ,v120
 .byte   W06
 .byte   Fs4
 .byte   W06
 .byte   N36 ,Gs4 ,v116
 .byte   W12
 .byte   N06 ,Fs4 ,v120
 .byte   N12 ,Cs5 ,v116
 .byte   W06
 .byte   N06 ,En4 ,v120
 .byte   W06
 .byte   N24 ,Ds4
 .byte   N24 ,Cs5 ,v116
 .byte   W12
 .byte   N12 ,Gs4
 .byte   W12
 .byte   Cs4 ,v120
 .byte   N36 ,Cs5 ,v116
 .byte   W12
@  #01 @034   ----------------------------------------
 .byte   W06
 .byte   N06 ,Gs4 ,v120
 .byte   W06
 .byte   N48 ,Gs4 ,v116
 .byte   W12
 .byte   N24 ,Cs4
 .byte   W24
 .byte   N24
 .byte   W12
 .byte   N36 ,Gs4
 .byte   W12
 .byte   N12 ,Cs5
 .byte   W12
 .byte   N24
 .byte   W12
@  #01 @035   ----------------------------------------
 .byte   N12 ,Gs4
 .byte   W12
 .byte   N24 ,Ds4 ,v120
 .byte   N36 ,Cs5 ,v127
 .byte   W24
 .byte   N12 ,Ds4 ,v120
 .byte   N36 ,Gs4 ,v116
 .byte   W12
 .byte   N24 ,Cs4
 .byte   W24
 .byte   N24
 .byte   N09 ,En4 ,v120
 .byte   W12
 .byte   N12 ,Ds4 ,v127
 .byte   N36 ,Gs4 ,v116
 .byte   W12
@  #01 @036   ----------------------------------------
 .byte   PATT
  .word Label_01983F15
@  #01 @037   ----------------------------------------
 .byte   N24 ,Cs4 ,v116
 .byte   N09 ,En4 ,v120
 .byte   W12
 .byte   N12 ,Ds4 ,v127
 .byte   N36 ,Gs4 ,v116
 .byte   W12
 .byte   N09 ,Cs4 ,v120
 .byte   N12 ,Cs5 ,v116
 .byte   W12
 .byte   Ds4 ,v127
 .byte   N24 ,Cs5 ,v116
 .byte   W12
 .byte   N12 ,En4 ,v120
 .byte   N12 ,Gs4 ,v116
 .byte   W12
 .byte   N36 ,Ds4 ,v120
 .byte   N36 ,Cs5 ,v116
 .byte   W24
 .byte   N12 ,Gs4
 .byte   W12
@  #01 @038   ----------------------------------------
 .byte   N24 ,Cs4
 .byte   W24
 .byte   N12
 .byte   N06 ,En4 ,v120
 .byte   W06
 .byte   Ds4
 .byte   W06
 .byte   N12 ,Cs4
 .byte   N36 ,Gs4 ,v116
 .byte   W12
 .byte   N06 ,Ds4 ,v120
 .byte   N12 ,Cs5 ,v116
 .byte   W06
 .byte   N06 ,En4 ,v120
 .byte   W06
 .byte   N12 ,Fs4 ,v127
 .byte   N24 ,Cs5 ,v116
 .byte   W12
 .byte   N12 ,Gs4
 .byte   W12
 .byte   Ds4 ,v120
 .byte   N36 ,Cs5 ,v116
 .byte   W12
@  #01 @039   ----------------------------------------
 .byte   W06
 .byte   N06 ,Cs4 ,v120
 .byte   W06
 .byte   N84 ,Gs3
 .byte   N36 ,Gs4 ,v116
 .byte   W12
 .byte   N24 ,Cs4
 .byte   W24
 .byte   N24
 .byte   W12
 .byte   N36 ,Gs4
 .byte   W12
 .byte   N12 ,Cs5
 .byte   W12
 .byte   N24
 .byte   W12
@  #01 @040   ----------------------------------------
 .byte   N12 ,Gs4
 .byte   W96
@  #01 @041   ----------------------------------------
 .byte   W96
@  #01 @042   ----------------------------------------
 .byte   W96
@  #01 @043   ----------------------------------------
 .byte   W96
@  #01 @044   ----------------------------------------
 .byte   W96
@  #01 @045   ----------------------------------------
 .byte   W96
@  #01 @046   ----------------------------------------
 .byte   W96
@  #01 @047   ----------------------------------------
 .byte   W96
@  #01 @048   ----------------------------------------
 .byte   W96
@  #01 @049   ----------------------------------------
 .byte   W96
@  #01 @050   ----------------------------------------
 .byte   W36
 .byte   N24 ,Ds3
 .byte   N24 ,Gs3
 .byte   N24 ,Ds4 ,v127
 .byte   W24
 .byte   Cs3 ,v116
 .byte   N24 ,Gs3 ,v108
 .byte   N24 ,Cs4 ,v116
 .byte   W24
 .byte   N12 ,Gs3
 .byte   N24 ,Cs4 ,v108
 .byte   N24 ,Gs4 ,v116
 .byte   W12
@  #01 @051   ----------------------------------------
 .byte   W12
 .byte   Ds3 ,v108
 .byte   N24 ,Gs3
 .byte   N24 ,Ds4 ,v116
 .byte   W24
 .byte   Cs3 ,v096
 .byte   N24 ,An3
 .byte   N24 ,Cs4 ,v108
 .byte   W24
 .byte   Dn3 ,v116
 .byte   N24 ,An3
 .byte   N24 ,Dn4 ,v127
 .byte   W24
 .byte   N12 ,Cs3 ,v116
 .byte   N24 ,An3 ,v108
 .byte   N24 ,Cs4 ,v116
 .byte   W12
@  #01 @052   ----------------------------------------
 .byte   W12
 .byte   Gs3 ,v108
 .byte   N24 ,Dn4
 .byte   N24 ,Gs4 ,v116
 .byte   W24
 .byte   N48 ,Dn3 ,v096
 .byte   N48 ,An3
 .byte   N48 ,Dn4 ,v108
 .byte   W24
 .byte   N36 ,Cs4 ,v112
 .byte   W24
 .byte   N24 ,Ds3 ,v116
 .byte   N24 ,Gs3 ,v108
 .byte   N24 ,Ds4 ,v127
 .byte   W12
@  #01 @053   ----------------------------------------
 .byte   N36 ,Gs4 ,v112
 .byte   W12
 .byte   N24 ,Cs3 ,v116
 .byte   N24 ,Gs3 ,v108
 .byte   N24 ,Cs4 ,v116
 .byte   W24
 .byte   Gs3
 .byte   N24 ,Cs4 ,v108
 .byte   N48 ,Gs4 ,v116
 .byte   W24
 .byte   N24 ,Ds3 ,v108
 .byte   N24 ,Gs3
 .byte   N24 ,Ds4 ,v116
 .byte   W24
 .byte   N12 ,Cs3 ,v096
 .byte   N24 ,An3
 .byte   N24 ,Cs4 ,v108
 .byte   N36 ,Fs4 ,v112
 .byte   W12
@  #01 @054   ----------------------------------------
 .byte   W12
 .byte   N24 ,Dn3 ,v116
 .byte   N24 ,An3
 .byte   N24 ,Dn4 ,v127
 .byte   W12
 .byte   N36 ,Cs5 ,v112
 .byte   W12
 .byte   N24 ,Cs3 ,v116
 .byte   N24 ,An3 ,v108
 .byte   N24 ,Cs4 ,v116
 .byte   W24
 .byte   Gs3 ,v108
 .byte   N24 ,Dn4
 .byte   N24 ,Gs4 ,v116
 .byte   N48 ,Bn4 ,v112
 .byte   W24
 .byte   N24 ,Dn3 ,v108
 .byte   N24 ,An3
 .byte   N24 ,Dn4 ,v116
 .byte   W12
@  #01 @055   ----------------------------------------
 .byte   W12
 .byte   N96 ,Gs4 ,v100
 .byte   W84
@  #01 @056   ----------------------------------------
 .byte   W12
 .byte   N72
 .byte   W84
@  #01 @057   ----------------------------------------
 .byte   W96
@  #01 @058   ----------------------------------------
 .byte   W96
@  #01 @059   ----------------------------------------
 .byte   W96
@  #01 @060   ----------------------------------------
 .byte   W12
 .byte   N36 ,Cs5 ,v127
 .byte   W24
 .byte   N12 ,Gs4 ,v120
 .byte   W12
 .byte   N24 ,Cs4
 .byte   W24
 .byte   N24
 .byte   W12
 .byte   N36 ,Gs4
 .byte   W12
@  #01 @061   ----------------------------------------
 .byte   N12 ,Cs5
 .byte   W12
 .byte   N24
 .byte   W12
 .byte   N12 ,Gs4
 .byte   W12
 .byte   N36 ,Cs5
 .byte   W24
 .byte   N12 ,Gs4
 .byte   W12
 .byte   N24 ,Cs4
 .byte   W24
@  #01 @062   ----------------------------------------
 .byte   N24
 .byte   W12
 .byte   N36 ,Gs4
 .byte   W12
 .byte   N12 ,Cs5
 .byte   W12
 .byte   N24
 .byte   W12
 .byte   N12 ,Gs4
 .byte   W12
 .byte   N36 ,Cs5
 .byte   W24
 .byte   N12 ,Gs4
 .byte   W12
@  #01 @063   ----------------------------------------
 .byte   N24 ,Cs4
 .byte   W24
 .byte   N24
 .byte   W12
 .byte   N36 ,Gs4
 .byte   W12
 .byte   N12 ,Cs5
 .byte   W12
 .byte   N24
 .byte   W12
 .byte   N12 ,Gs4
 .byte   W12
 .byte   N36 ,Cn5
 .byte   W12
@  #01 @064   ----------------------------------------
 .byte   W12
 .byte   N12 ,Gs4
 .byte   W12
 .byte   N24 ,Cn4
 .byte   W24
 .byte   N24
 .byte   W12
 .byte   N36 ,Gs4
 .byte   W12
 .byte   N12 ,Cn5
 .byte   W12
 .byte   N24
 .byte   W12
@  #01 @065   ----------------------------------------
 .byte   N12 ,Gs4
 .byte   W36
 .byte   N24 ,Ds3 ,v116
 .byte   N24 ,Gs3
 .byte   N24 ,Ds4 ,v127
 .byte   W24
 .byte   Cs3 ,v116
 .byte   N24 ,Gs3 ,v108
 .byte   N24 ,Cs4 ,v116
 .byte   W24
 .byte   N12 ,Gs3
 .byte   N24 ,Cs4 ,v108
 .byte   N24 ,Gs4 ,v116
 .byte   W12
@  #01 @066   ----------------------------------------
 .byte   W12
 .byte   Ds3 ,v108
 .byte   N24 ,Gs3
 .byte   N24 ,Ds4 ,v116
 .byte   W24
 .byte   Cs3 ,v100
 .byte   N24 ,Gs3
 .byte   N24 ,Cs4 ,v112
 .byte   W24
 .byte   Ds3 ,v116
 .byte   N24 ,Gs3 ,v108
 .byte   N24 ,Ds4 ,v127
 .byte   W24
 .byte   N12 ,Cs3 ,v116
 .byte   N24 ,Gs3 ,v108
 .byte   N24 ,Cs4 ,v116
 .byte   W12
@  #01 @067   ----------------------------------------
 .byte   W12
 .byte   Gs3
 .byte   N24 ,Cs4 ,v108
 .byte   N24 ,Gs4 ,v116
 .byte   W24
 .byte   Ds3 ,v108
 .byte   N24 ,Gs3
 .byte   N24 ,Ds4 ,v116
 .byte   W24
 .byte   Cs3 ,v100
 .byte   N24 ,Gs3
 .byte   N24 ,Cs4 ,v112
 .byte   W24
 .byte   N12 ,Ds3 ,v116
 .byte   N24 ,Gs3 ,v108
 .byte   N24 ,Ds4 ,v127
 .byte   W12
@  #01 @068   ----------------------------------------
 .byte   W12
 .byte   En3 ,v116
 .byte   N24 ,Gs3 ,v108
 .byte   N24 ,En4 ,v116
 .byte   W24
 .byte   Ds3
 .byte   N24 ,Gs3 ,v108
 .byte   N24 ,Ds4 ,v116
 .byte   W24
 .byte   Cs3 ,v108
 .byte   N24 ,Gs3
 .byte   N24 ,Cs4 ,v116
 .byte   W24
 .byte   N48 ,Gs2 ,v092
 .byte   N48 ,Cs3
 .byte   N48 ,Gs3 ,v100
 .byte   W12
@  #01 @069   ----------------------------------------
 .byte   W36
 .byte   Ds3 ,v108
 .byte   N48 ,Gs3 ,v096
 .byte   N48 ,Ds4 ,v116
 .byte   W48
 .byte   N24 ,En3 ,v112
 .byte   N24 ,Cs4 ,v100
 .byte   N24 ,En4 ,v112
 .byte   W12
@  #01 @070   ----------------------------------------
 .byte   W12
 .byte   GOTO
  .word Label_01983E6A
@  #01 @071   ----------------------------------------
 .byte   VOL , 18*song03C1_mvl/mxv
 .byte   W84
 .byte   FINE

@**************** Track 2 (Midi-Chn.1) ****************@

song03C1_002:
@  #02 @000   ----------------------------------------
 .byte   KEYSH , song03C1_key+0
Label_019850F2:
 .byte   VOICE , 126
 .byte   PAN , c_v+63
 .byte   VOL , 52*song03C1_mvl/mxv
 .byte   TIE ,Gs3 ,v064
 .byte   W96
@  #02 @001   ----------------------------------------
 .byte   W96
@  #02 @002   ----------------------------------------
 .byte   W96
@  #02 @003   ----------------------------------------
 .byte   W96
@  #02 @004   ----------------------------------------
 .byte   W96
@  #02 @005   ----------------------------------------
 .byte   W96
@  #02 @006   ----------------------------------------
 .byte   W96
@  #02 @007   ----------------------------------------
 .byte   W96
@  #02 @008   ----------------------------------------
 .byte   W96
@  #02 @009   ----------------------------------------
 .byte   W96
@  #02 @010   ----------------------------------------
 .byte   W96
@  #02 @011   ----------------------------------------
 .byte   W96
@  #02 @012   ----------------------------------------
 .byte   W96
@  #02 @013   ----------------------------------------
 .byte   W96
@  #02 @014   ----------------------------------------
 .byte   W96
@  #02 @015   ----------------------------------------
 .byte   W96
@  #02 @016   ----------------------------------------
 .byte   W96
@  #02 @017   ----------------------------------------
 .byte   W96
@  #02 @018   ----------------------------------------
 .byte   W96
@  #02 @019   ----------------------------------------
 .byte   W96
@  #02 @020   ----------------------------------------
 .byte   W96
@  #02 @021   ----------------------------------------
 .byte   W96
@  #02 @022   ----------------------------------------
 .byte   W96
@  #02 @023   ----------------------------------------
 .byte   W96
@  #02 @024   ----------------------------------------
 .byte   W96
@  #02 @025   ----------------------------------------
 .byte   W96
@  #02 @026   ----------------------------------------
 .byte   W96
@  #02 @027   ----------------------------------------
 .byte   W96
@  #02 @028   ----------------------------------------
 .byte   W96
@  #02 @029   ----------------------------------------
 .byte   W96
@  #02 @030   ----------------------------------------
 .byte   W96
@  #02 @031   ----------------------------------------
 .byte   W96
@  #02 @032   ----------------------------------------
 .byte   W96
@  #02 @033   ----------------------------------------
 .byte   W96
@  #02 @034   ----------------------------------------
 .byte   W96
@  #02 @035   ----------------------------------------
 .byte   W96
@  #02 @036   ----------------------------------------
 .byte   W96
@  #02 @037   ----------------------------------------
 .byte   W96
@  #02 @038   ----------------------------------------
 .byte   W96
@  #02 @039   ----------------------------------------
 .byte   W96
@  #02 @040   ----------------------------------------
 .byte   W96
@  #02 @041   ----------------------------------------
 .byte   W96
@  #02 @042   ----------------------------------------
 .byte   W96
@  #02 @043   ----------------------------------------
 .byte   W96
@  #02 @044   ----------------------------------------
 .byte   W96
@  #02 @045   ----------------------------------------
 .byte   W96
@  #02 @046   ----------------------------------------
 .byte   W96
@  #02 @047   ----------------------------------------
 .byte   W96
@  #02 @048   ----------------------------------------
 .byte   W96
@  #02 @049   ----------------------------------------
 .byte   W96
@  #02 @050   ----------------------------------------
 .byte   W96
@  #02 @051   ----------------------------------------
 .byte   W96
@  #02 @052   ----------------------------------------
 .byte   W96
@  #02 @053   ----------------------------------------
 .byte   W96
@  #02 @054   ----------------------------------------
 .byte   W96
@  #02 @055   ----------------------------------------
 .byte   W96
@  #02 @056   ----------------------------------------
 .byte   W96
@  #02 @057   ----------------------------------------
 .byte   W96
@  #02 @058   ----------------------------------------
 .byte   W96
@  #02 @059   ----------------------------------------
 .byte   W96
@  #02 @060   ----------------------------------------
 .byte   W96
@  #02 @061   ----------------------------------------
 .byte   W96
@  #02 @062   ----------------------------------------
 .byte   W96
@  #02 @063   ----------------------------------------
 .byte   W96
@  #02 @064   ----------------------------------------
 .byte   W96
@  #02 @065   ----------------------------------------
 .byte   W96
@  #02 @066   ----------------------------------------
 .byte   W96
@  #02 @067   ----------------------------------------
 .byte   W96
@  #02 @068   ----------------------------------------
 .byte   W96
@  #02 @069   ----------------------------------------
 .byte   W96
@  #02 @070   ----------------------------------------
 .byte   W12
 .byte   GOTO
  .word Label_019850F2
@  #02 @071   ----------------------------------------
 .byte   W84
 .byte   EOT
 .byte   Gs3
 .byte   FINE

@**************** Track 3 (Midi-Chn.2) ****************@

song03C1_003:
@  #03 @000   ----------------------------------------
 .byte   KEYSH , song03C1_key+0
Label_01985302:
 .byte   VOICE , 54
 .byte   VOL , 29*song03C1_mvl/mxv
 .byte   PAN , c_v-36
 .byte   W96
@  #03 @001   ----------------------------------------
 .byte   W96
@  #03 @002   ----------------------------------------
 .byte   W96
@  #03 @003   ----------------------------------------
 .byte   W96
@  #03 @004   ----------------------------------------
 .byte   W96
@  #03 @005   ----------------------------------------
 .byte   W96
@  #03 @006   ----------------------------------------
 .byte   W96
@  #03 @007   ----------------------------------------
 .byte   W96
@  #03 @008   ----------------------------------------
 .byte   W96
@  #03 @009   ----------------------------------------
 .byte   W84
 .byte   N04 ,En3 ,v127
 .byte   W04
 .byte   Fs3 ,v112
 .byte   W04
 .byte   Gs3
 .byte   W04
@  #03 @010   ----------------------------------------
 .byte   An3 ,v116
 .byte   W04
 .byte   Bn3 ,v120
 .byte   W04
 .byte   Cs4 ,v127
 .byte   W04
 .byte   N36 ,Ds4 ,v112
 .byte   W36
 .byte   N42 ,Gs3
 .byte   W48
@  #03 @011   ----------------------------------------
 .byte   N24 ,Ds4
 .byte   W24
 .byte   N12 ,En4
 .byte   W12
 .byte   Fs4
 .byte   W12
 .byte   En4
 .byte   W12
 .byte   N48 ,Ds4
 .byte   W36
@  #03 @012   ----------------------------------------
 .byte   W24
 .byte   N24
 .byte   W24
 .byte   N12 ,En4
 .byte   W12
 .byte   N36 ,Ds4
 .byte   W36
@  #03 @013   ----------------------------------------
 .byte   N60 ,Cs4
 .byte   W60
 .byte   N24 ,Gs4
 .byte   W24
 .byte   N36 ,Fs4
 .byte   W12
@  #03 @014   ----------------------------------------
 .byte   W24
 .byte   N54 ,En4
 .byte   W60
 .byte   N24 ,Gs3 ,v108
 .byte   N12 ,Ds4 ,v112
 .byte   W12
@  #03 @015   ----------------------------------------
 .byte   En4
 .byte   W12
 .byte   N36 ,Gs3 ,v108
 .byte   N36 ,Ds4 ,v112
 .byte   W36
 .byte   N42 ,Cs3 ,v108
 .byte   N42 ,Gs3 ,v112
 .byte   W48
@  #03 @016   ----------------------------------------
 .byte   N24 ,Gs3 ,v108
 .byte   N24 ,Ds4 ,v112
 .byte   W24
 .byte   N12 ,Gs3 ,v108
 .byte   N12 ,En4 ,v112
 .byte   W12
 .byte   Ds4 ,v108
 .byte   N12 ,Fs4 ,v112
 .byte   W12
 .byte   Gs3 ,v108
 .byte   N12 ,En4 ,v112
 .byte   W12
 .byte   N48 ,Gs3 ,v108
 .byte   N48 ,Ds4 ,v112
 .byte   W36
@  #03 @017   ----------------------------------------
 .byte   W24
 .byte   N24 ,Gs3 ,v108
 .byte   N24 ,Ds4 ,v112
 .byte   W24
 .byte   N12 ,Gs3 ,v108
 .byte   N12 ,En4 ,v112
 .byte   W12
 .byte   N36 ,Gs3 ,v108
 .byte   N36 ,Ds4 ,v112
 .byte   W36
@  #03 @018   ----------------------------------------
 .byte   N24 ,Gs3 ,v108
 .byte   N24 ,Cs4 ,v112
 .byte   W24
 .byte   N12 ,Gs3 ,v108
 .byte   N12 ,Ds4 ,v112
 .byte   W12
 .byte   N96 ,Cs4 ,v108
 .byte   N96 ,En4 ,v112
 .byte   W60
@  #03 @019   ----------------------------------------
 .byte   W36
 .byte   N36 ,Cs4 ,v108
 .byte   N36 ,En4 ,v112
 .byte   W36
 .byte   N24 ,Cs4 ,v076
 .byte   W24
@  #03 @020   ----------------------------------------
 .byte   W96
@  #03 @021   ----------------------------------------
 .byte   W96
@  #03 @022   ----------------------------------------
 .byte   W96
@  #03 @023   ----------------------------------------
 .byte   W96
@  #03 @024   ----------------------------------------
 .byte   W96
@  #03 @025   ----------------------------------------
 .byte   W96
@  #03 @026   ----------------------------------------
 .byte   W96
@  #03 @027   ----------------------------------------
 .byte   W96
@  #03 @028   ----------------------------------------
 .byte   W96
@  #03 @029   ----------------------------------------
 .byte   W84
 .byte   N04 ,En3 ,v127
 .byte   W04
 .byte   Fs3 ,v116
 .byte   W04
 .byte   Gs3
 .byte   W04
@  #03 @030   ----------------------------------------
 .byte   An3 ,v120
 .byte   W04
 .byte   Bn3 ,v127
 .byte   W04
 .byte   Cs4
 .byte   W04
 .byte   N12 ,Ds4
 .byte   W24
 .byte   N36
 .byte   W36
 .byte   N09 ,En4
 .byte   W12
 .byte   N12 ,Ds4
 .byte   W12
@  #03 @031   ----------------------------------------
Label_019853E3:
 .byte   N09 ,Cs4 ,v127
 .byte   W12
 .byte   N12 ,Ds4
 .byte   W12
 .byte   En4
 .byte   W12
 .byte   N24 ,Fs4
 .byte   W24
 .byte   N36 ,Ds4
 .byte   W36
 .byte   PEND 
@  #03 @032   ----------------------------------------
 .byte   N09 ,En4
 .byte   W12
 .byte   N12 ,Ds4
 .byte   W12
 .byte   N09 ,Cs4
 .byte   W12
 .byte   N12 ,Ds4
 .byte   W12
 .byte   En4
 .byte   W12
 .byte   N54 ,Ds4
 .byte   W36
@  #03 @033   ----------------------------------------
 .byte   W24
 .byte   N06 ,En4
 .byte   W06
 .byte   Fs4
 .byte   W06
 .byte   N12 ,Gs4
 .byte   W12
 .byte   N06 ,Fs4
 .byte   W06
 .byte   En4
 .byte   W06
 .byte   N24 ,Ds4
 .byte   W24
 .byte   N12 ,Cs4
 .byte   W12
@  #03 @034   ----------------------------------------
 .byte   W06
 .byte   N06 ,Gs4
 .byte   W06
 .byte   N84
 .byte   W84
@  #03 @035   ----------------------------------------
 .byte   W12
 .byte   N12 ,Ds4
 .byte   W24
 .byte   N36
 .byte   W36
 .byte   N09 ,En4
 .byte   W12
 .byte   N12 ,Ds4
 .byte   W12
@  #03 @036   ----------------------------------------
 .byte   PATT
  .word Label_019853E3
@  #03 @037   ----------------------------------------
 .byte   N09 ,En4 ,v127
 .byte   W12
 .byte   N12 ,Ds4
 .byte   W12
 .byte   N09 ,Cs4
 .byte   W12
 .byte   N12 ,Ds4
 .byte   W12
 .byte   En4
 .byte   W12
 .byte   N36 ,Ds4
 .byte   W36
@  #03 @038   ----------------------------------------
 .byte   W24
 .byte   N06 ,En4
 .byte   W06
 .byte   Ds4
 .byte   W06
 .byte   N12 ,Cs4
 .byte   W12
 .byte   N06 ,Ds4
 .byte   W06
 .byte   En4
 .byte   W06
 .byte   N12 ,Fs4
 .byte   W12
 .byte   N06 ,Gs4
 .byte   W12
 .byte   N12 ,Ds4
 .byte   W12
@  #03 @039   ----------------------------------------
 .byte   W06
 .byte   N06 ,Cs4
 .byte   W06
 .byte   N84 ,Gs3
 .byte   W84
@  #03 @040   ----------------------------------------
 .byte   W96
@  #03 @041   ----------------------------------------
 .byte   W96
@  #03 @042   ----------------------------------------
 .byte   W96
@  #03 @043   ----------------------------------------
 .byte   W96
@  #03 @044   ----------------------------------------
 .byte   W96
@  #03 @045   ----------------------------------------
 .byte   W96
@  #03 @046   ----------------------------------------
 .byte   W96
@  #03 @047   ----------------------------------------
 .byte   W96
@  #03 @048   ----------------------------------------
 .byte   W96
@  #03 @049   ----------------------------------------
 .byte   W84
 .byte   N04 ,Ds3 ,v116
 .byte   W04
 .byte   En3
 .byte   W04
 .byte   Fs3
 .byte   W04
@  #03 @050   ----------------------------------------
 .byte   Gs3 ,v120
 .byte   W04
 .byte   An3
 .byte   W04
 .byte   Bn3
 .byte   W04
 .byte   N36 ,Cs4
 .byte   W36
 .byte   N84 ,Gs4
 .byte   W48
@  #03 @051   ----------------------------------------
 .byte   W36
 .byte   N36 ,Fs4
 .byte   W36
 .byte   N84 ,Cs5
 .byte   W24
@  #03 @052   ----------------------------------------
 .byte   W60
 .byte   N36 ,An3
 .byte   N36 ,Cs4
 .byte   W36
@  #03 @053   ----------------------------------------
 .byte   N84
 .byte   N84 ,Gs4
 .byte   W84
 .byte   N36 ,Cs4
 .byte   N36 ,Fs4
 .byte   W12
@  #03 @054   ----------------------------------------
 .byte   W24
 .byte   N36
 .byte   N36 ,Cs5
 .byte   W36
 .byte   N48 ,Fs4
 .byte   N48 ,Bn4
 .byte   W36
@  #03 @055   ----------------------------------------
 .byte   W96
@  #03 @056   ----------------------------------------
 .byte   W96
@  #03 @057   ----------------------------------------
 .byte   W96
@  #03 @058   ----------------------------------------
 .byte   W96
@  #03 @059   ----------------------------------------
 .byte   W96
@  #03 @060   ----------------------------------------
 .byte   W96
@  #03 @061   ----------------------------------------
 .byte   W96
@  #03 @062   ----------------------------------------
 .byte   W96
@  #03 @063   ----------------------------------------
 .byte   W96
@  #03 @064   ----------------------------------------
 .byte   W96
@  #03 @065   ----------------------------------------
 .byte   W96
@  #03 @066   ----------------------------------------
 .byte   W96
@  #03 @067   ----------------------------------------
 .byte   W96
@  #03 @068   ----------------------------------------
 .byte   W96
@  #03 @069   ----------------------------------------
 .byte   W96
@  #03 @070   ----------------------------------------
 .byte   W12
 .byte   GOTO
  .word Label_01985302
@  #03 @071   ----------------------------------------
 .byte   W84
 .byte   FINE

@**************** Track 4 (Midi-Chn.3) ****************@

song03C1_004:
@  #04 @000   ----------------------------------------
 .byte   KEYSH , song03C1_key+0
Label_01985506:
 .byte   VOICE , 52
 .byte   PAN , c_v-8
 .byte   VOL , 23*song03C1_mvl/mxv
 .byte   W12
 .byte   N96 ,Cs2 ,v120
 .byte   W84
@  #04 @001   ----------------------------------------
Label_01985511:
 .byte   W12
 .byte   N24 ,Cs2 ,v120
 .byte   W24
 .byte   N96 ,Bn1 ,v100
 .byte   N96 ,Ds2 ,v120
 .byte   W60
 .byte   PEND 
@  #04 @002   ----------------------------------------
Label_0198551E:
 .byte   W36
 .byte   N24 ,Bn1 ,v100
 .byte   N24 ,Ds2 ,v120
 .byte   W24
 .byte   N36 ,Bn1 ,v052
 .byte   N96 ,Cs2 ,v100
 .byte   N96 ,En2 ,v120
 .byte   W36
 .byte   PEND 
@  #04 @003   ----------------------------------------
 .byte   W96
@  #04 @004   ----------------------------------------
 .byte   W96
@  #04 @005   ----------------------------------------
 .byte   W12
 .byte   Cs2
 .byte   W84
@  #04 @006   ----------------------------------------
 .byte   PATT
  .word Label_01985511
@  #04 @007   ----------------------------------------
 .byte   PATT
  .word Label_0198551E
@  #04 @008   ----------------------------------------
 .byte   W96
@  #04 @009   ----------------------------------------
 .byte   W96
@  #04 @010   ----------------------------------------
 .byte   W12
 .byte   N96 ,An2 ,v112
 .byte   N96 ,Cs3 ,v127
 .byte   W84
@  #04 @011   ----------------------------------------
Label_0198554A:
 .byte   W12
 .byte   N24 ,An2 ,v112
 .byte   N24 ,Cs3 ,v127
 .byte   W24
 .byte   N60 ,An2 ,v064
 .byte   N96 ,Bn2 ,v100
 .byte   N96 ,Ds3 ,v120
 .byte   W60
 .byte   PEND 
@  #04 @012   ----------------------------------------
Label_0198555D:
 .byte   W36
 .byte   N24 ,Bn2 ,v100
 .byte   N24 ,Ds3 ,v120
 .byte   W24
 .byte   N36 ,Bn2 ,v064
 .byte   N96 ,Cs3 ,v100
 .byte   N96 ,En3 ,v120
 .byte   W36
 .byte   PEND 
@  #04 @013   ----------------------------------------
Label_01985570:
 .byte   W60
 .byte   N96 ,Cs3 ,v100
 .byte   N96 ,En3 ,v120
 .byte   W36
 .byte   PEND 
@  #04 @014   ----------------------------------------
 .byte   W60
 .byte   N18 ,Cs3 ,v100
 .byte   N18 ,En3 ,v120
 .byte   W18
 .byte   N06 ,Cs3 ,v064
 .byte   W06
 .byte   N96 ,Bn2 ,v100
 .byte   N96 ,Ds3 ,v120
 .byte   W12
@  #04 @015   ----------------------------------------
 .byte   W12
 .byte   An2 ,v112
 .byte   N96 ,Cs3 ,v127
 .byte   W72
 .byte   N12 ,Bn2 ,v100
 .byte   N12 ,Ds3 ,v120
 .byte   W12
@  #04 @016   ----------------------------------------
 .byte   PATT
  .word Label_0198554A
@  #04 @017   ----------------------------------------
 .byte   PATT
  .word Label_0198555D
@  #04 @018   ----------------------------------------
 .byte   PATT
  .word Label_01985570
@  #04 @019   ----------------------------------------
 .byte   W60
 .byte   N36 ,Cs3 ,v100
 .byte   N36 ,En3 ,v120
 .byte   W36
@  #04 @020   ----------------------------------------
 .byte   N12 ,Cs3 ,v064
 .byte   W12
 .byte   N96 ,Cs2 ,v120
 .byte   W84
@  #04 @021   ----------------------------------------
Label_019855B9:
 .byte   W12
 .byte   N24 ,Cs2 ,v120
 .byte   W24
 .byte   N96 ,Bn1 ,v100
 .byte   N60 ,Cs2 ,v120
 .byte   N96 ,Ds2
 .byte   W60
 .byte   PEND 
@  #04 @022   ----------------------------------------
 .byte   PATT
  .word Label_0198551E
@  #04 @023   ----------------------------------------
 .byte   W96
@  #04 @024   ----------------------------------------
 .byte   W96
@  #04 @025   ----------------------------------------
 .byte   W12
 .byte   N96 ,Cs2 ,v120
 .byte   W84
@  #04 @026   ----------------------------------------
 .byte   PATT
  .word Label_019855B9
@  #04 @027   ----------------------------------------
 .byte   PATT
  .word Label_0198551E
@  #04 @028   ----------------------------------------
 .byte   W96
@  #04 @029   ----------------------------------------
 .byte   W96
@  #04 @030   ----------------------------------------
 .byte   W96
@  #04 @031   ----------------------------------------
 .byte   W96
@  #04 @032   ----------------------------------------
 .byte   W96
@  #04 @033   ----------------------------------------
 .byte   W96
@  #04 @034   ----------------------------------------
 .byte   W96
@  #04 @035   ----------------------------------------
 .byte   W96
@  #04 @036   ----------------------------------------
 .byte   W96
@  #04 @037   ----------------------------------------
 .byte   W96
@  #04 @038   ----------------------------------------
 .byte   W96
@  #04 @039   ----------------------------------------
 .byte   W96
@  #04 @040   ----------------------------------------
Label_019855EA:
 .byte   W12
 .byte   N96 ,En2 ,v120
 .byte   N96 ,Cs3
 .byte   W84
 .byte   PEND 
@  #04 @041   ----------------------------------------
Label_019855F2:
 .byte   W12
 .byte   N24 ,Bn2 ,v120
 .byte   N24 ,Ds3
 .byte   W24
 .byte   N96 ,An2
 .byte   N96 ,En3
 .byte   W60
 .byte   PEND 
@  #04 @042   ----------------------------------------
 .byte   W36
 .byte   N24 ,An2
 .byte   N24 ,En3
 .byte   W24
 .byte   N96 ,Fs2 ,v064
 .byte   N36 ,An2
 .byte   N96 ,Cs3
 .byte   W36
@  #04 @043   ----------------------------------------
 .byte   W60
 .byte   N24 ,Fs2
 .byte   N24 ,Cs3
 .byte   W24
 .byte   N12 ,Fs2
 .byte   N72 ,Cn3
 .byte   W12
@  #04 @044   ----------------------------------------
Label_01985618:
 .byte   W60
 .byte   N96 ,Gs2 ,v120
 .byte   N96 ,Cn3
 .byte   W36
 .byte   PEND 
@  #04 @045   ----------------------------------------
Label_01985620:
 .byte   W12
 .byte   N96 ,En2 ,v120
 .byte   N96 ,Cs3
 .byte   W48
 .byte   Gs2
 .byte   N96 ,Cn3
 .byte   W36
 .byte   PEND 
@  #04 @046   ----------------------------------------
Label_0198562C:
 .byte   W12
 .byte   N24 ,Bn2 ,v120
 .byte   N24 ,Ds3
 .byte   W24
 .byte   N96 ,An2
 .byte   N96 ,En3
 .byte   W24
 .byte   N36 ,Gs2
 .byte   N36 ,Cn3
 .byte   W36
 .byte   PEND 
@  #04 @047   ----------------------------------------
Label_0198563E:
 .byte   W36
 .byte   N24 ,An2 ,v120
 .byte   N24 ,En3
 .byte   W24
 .byte   N96 ,Fs2
 .byte   N36 ,An2 ,v064
 .byte   N96 ,Cs3 ,v120
 .byte   W36
 .byte   PEND 
@  #04 @048   ----------------------------------------
Label_0198564F:
 .byte   W60
 .byte   N24 ,Fs2 ,v120
 .byte   N24 ,Cs3
 .byte   W24
 .byte   N12 ,Fs2 ,v064
 .byte   N72 ,Cn3
 .byte   W12
 .byte   PEND 
@  #04 @049   ----------------------------------------
 .byte   W96
@  #04 @050   ----------------------------------------
 .byte   W96
@  #04 @051   ----------------------------------------
 .byte   W96
@  #04 @052   ----------------------------------------
 .byte   W96
@  #04 @053   ----------------------------------------
 .byte   W96
@  #04 @054   ----------------------------------------
 .byte   W96
@  #04 @055   ----------------------------------------
 .byte   PATT
  .word Label_019855EA
@  #04 @056   ----------------------------------------
 .byte   PATT
  .word Label_019855F2
@  #04 @057   ----------------------------------------
 .byte   PATT
  .word Label_0198563E
@  #04 @058   ----------------------------------------
 .byte   PATT
  .word Label_0198564F
@  #04 @059   ----------------------------------------
 .byte   PATT
  .word Label_01985618
@  #04 @060   ----------------------------------------
 .byte   PATT
  .word Label_01985620
@  #04 @061   ----------------------------------------
 .byte   PATT
  .word Label_0198562C
@  #04 @062   ----------------------------------------
 .byte   PATT
  .word Label_0198563E
@  #04 @063   ----------------------------------------
 .byte   PATT
  .word Label_0198564F
@  #04 @064   ----------------------------------------
 .byte   W60
 .byte   N36 ,Gs2 ,v120
 .byte   N36 ,Cn3
 .byte   W36
@  #04 @065   ----------------------------------------
Label_01985697:
 .byte   W12
 .byte   N96 ,Gs2 ,v120
 .byte   N96 ,Cs3
 .byte   W84
 .byte   PEND 
@  #04 @066   ----------------------------------------
 .byte   PATT
  .word Label_01985697
@  #04 @067   ----------------------------------------
 .byte   PATT
  .word Label_01985697
@  #04 @068   ----------------------------------------
 .byte   PATT
  .word Label_01985697
@  #04 @069   ----------------------------------------
 .byte   PATT
  .word Label_01985697
@  #04 @070   ----------------------------------------
 .byte   W12
 .byte   GOTO
  .word Label_01985506
@  #04 @071   ----------------------------------------
 .byte   W84
 .byte   FINE

@**************** Track 5 (Midi-Chn.4) ****************@

song03C1_005:
@  #05 @000   ----------------------------------------
 .byte   KEYSH , song03C1_key+0
Label_0198420E:
 .byte   VOICE , 40
 .byte   PAN , c_v+20
 .byte   VOL , 15*song03C1_mvl/mxv
 .byte   W96
@  #05 @001   ----------------------------------------
 .byte   W96
@  #05 @002   ----------------------------------------
 .byte   W96
@  #05 @003   ----------------------------------------
 .byte   W60
 .byte   N24 ,Cs2 ,v120
 .byte   W24
 .byte   N96 ,Gs1 ,v112
 .byte   N36 ,Ds2 ,v120
 .byte   W12
@  #05 @004   ----------------------------------------
 .byte   W24
 .byte   Gs2
 .byte   W36
 .byte   N24 ,Fs2
 .byte   W24
 .byte   N12 ,Ds2 ,v112
 .byte   N24 ,Bn2 ,v120
 .byte   W12
@  #05 @005   ----------------------------------------
 .byte   W12
 .byte   N96 ,Cs2 ,v112
 .byte   N96 ,Gs2 ,v120
 .byte   W84
@  #05 @006   ----------------------------------------
Label_01984238:
 .byte   W12
 .byte   N24 ,Cs2 ,v112
 .byte   N24 ,Gs2 ,v120
 .byte   W24
 .byte   N60 ,Cs2 ,v056
 .byte   W60
 .byte   PEND 
@  #05 @007   ----------------------------------------
 .byte   W96
@  #05 @008   ----------------------------------------
 .byte   W60
 .byte   N24
 .byte   W24
 .byte   N96 ,Bn1 ,v112
 .byte   N36 ,Ds2 ,v120
 .byte   W12
@  #05 @009   ----------------------------------------
 .byte   W24
 .byte   Bn2
 .byte   W36
 .byte   N24 ,Gs2
 .byte   W24
 .byte   N12 ,Gs2 ,v112
 .byte   N24 ,Ds3 ,v120
 .byte   W12
@  #05 @010   ----------------------------------------
 .byte   W96
@  #05 @011   ----------------------------------------
 .byte   W96
@  #05 @012   ----------------------------------------
 .byte   W96
@  #05 @013   ----------------------------------------
 .byte   W96
@  #05 @014   ----------------------------------------
 .byte   W96
@  #05 @015   ----------------------------------------
 .byte   W96
@  #05 @016   ----------------------------------------
 .byte   W96
@  #05 @017   ----------------------------------------
 .byte   W96
@  #05 @018   ----------------------------------------
 .byte   W96
@  #05 @019   ----------------------------------------
 .byte   W96
@  #05 @020   ----------------------------------------
 .byte   W96
@  #05 @021   ----------------------------------------
 .byte   W96
@  #05 @022   ----------------------------------------
 .byte   W96
@  #05 @023   ----------------------------------------
 .byte   W60
 .byte   Cs2
 .byte   W24
 .byte   N96 ,Gs1
 .byte   N36 ,Ds2 ,v127
 .byte   W12
@  #05 @024   ----------------------------------------
 .byte   W24
 .byte   Gs2
 .byte   W36
 .byte   N24 ,Fs2
 .byte   W24
 .byte   N12 ,Ds2 ,v120
 .byte   N96 ,Bn2 ,v127
 .byte   W12
@  #05 @025   ----------------------------------------
 .byte   W12
 .byte   Cs2 ,v112
 .byte   N96 ,Gs2 ,v120
 .byte   W72
 .byte   N12 ,Bn2 ,v127
 .byte   W12
@  #05 @026   ----------------------------------------
 .byte   PATT
  .word Label_01984238
@  #05 @027   ----------------------------------------
 .byte   W96
@  #05 @028   ----------------------------------------
 .byte   W60
 .byte   N24 ,Cs2 ,v120
 .byte   W24
 .byte   N96 ,Bn1
 .byte   N36 ,Ds2 ,v127
 .byte   W12
@  #05 @029   ----------------------------------------
 .byte   W24
 .byte   Bn2
 .byte   W36
 .byte   N24 ,Gs2
 .byte   W24
 .byte   N12 ,Gs2 ,v120
 .byte   N24 ,Ds3 ,v127
 .byte   W12
@  #05 @030   ----------------------------------------
 .byte   W12
 .byte   N96 ,Gs2 ,v112
 .byte   N96 ,Cs3 ,v127
 .byte   W84
@  #05 @031   ----------------------------------------
 .byte   W12
 .byte   N24 ,Gs2 ,v112
 .byte   N24 ,Cs3 ,v127
 .byte   W24
 .byte   N96 ,Ds2 ,v112
 .byte   N60 ,Gs2 ,v127
 .byte   W60
@  #05 @032   ----------------------------------------
 .byte   W36
 .byte   N24 ,Ds2 ,v112
 .byte   N24 ,Fs2 ,v127
 .byte   W24
 .byte   N96 ,En2 ,v112
 .byte   N96 ,Gs2 ,v127
 .byte   W36
@  #05 @033   ----------------------------------------
 .byte   W60
 .byte   N24 ,En2 ,v112
 .byte   N24 ,Gs2 ,v127
 .byte   W24
 .byte   N12 ,En2 ,v056
 .byte   N72 ,Gs2 ,v112
 .byte   N72 ,Bn2 ,v127
 .byte   W12
@  #05 @034   ----------------------------------------
 .byte   W60
 .byte   N48 ,Gs2 ,v112
 .byte   N48 ,Ds3 ,v127
 .byte   W36
@  #05 @035   ----------------------------------------
 .byte   W12
 .byte   N96 ,Gs2 ,v116
 .byte   N96 ,Cs3 ,v127
 .byte   W84
@  #05 @036   ----------------------------------------
 .byte   W12
 .byte   N24 ,Gs2 ,v116
 .byte   N24 ,Cs3 ,v127
 .byte   W24
 .byte   N72 ,Ds2 ,v112
 .byte   N72 ,Fs2 ,v127
 .byte   N60 ,Gs2 ,v064
 .byte   W60
@  #05 @037   ----------------------------------------
 .byte   W12
 .byte   N48 ,Fs2 ,v112
 .byte   N48 ,Ds3 ,v127
 .byte   W48
 .byte   N96 ,En2 ,v112
 .byte   N96 ,Cs3 ,v127
 .byte   W36
@  #05 @038   ----------------------------------------
 .byte   W60
 .byte   En2 ,v112
 .byte   N96 ,Cs3 ,v127
 .byte   W36
@  #05 @039   ----------------------------------------
 .byte   W60
 .byte   N48 ,En2 ,v112
 .byte   N48 ,Cs3 ,v127
 .byte   W36
@  #05 @040   ----------------------------------------
 .byte   W12
 .byte   N84 ,En2 ,v064
 .byte   W84
@  #05 @041   ----------------------------------------
 .byte   W96
@  #05 @042   ----------------------------------------
 .byte   W96
@  #05 @043   ----------------------------------------
 .byte   W96
@  #05 @044   ----------------------------------------
 .byte   W96
@  #05 @045   ----------------------------------------
 .byte   W96
@  #05 @046   ----------------------------------------
 .byte   W96
@  #05 @047   ----------------------------------------
 .byte   W96
@  #05 @048   ----------------------------------------
 .byte   W96
@  #05 @049   ----------------------------------------
 .byte   W60
 .byte   N48 ,Gs1 ,v116
 .byte   N48 ,Cn2 ,v127
 .byte   W36
@  #05 @050   ----------------------------------------
 .byte   W12
 .byte   N36 ,An1 ,v120
 .byte   N36 ,Cs2 ,v127
 .byte   W36
 .byte   N84 ,Cs2 ,v120
 .byte   N84 ,Gs2 ,v127
 .byte   W48
@  #05 @051   ----------------------------------------
 .byte   W36
 .byte   N36 ,Cs2 ,v120
 .byte   N36 ,Fs2 ,v127
 .byte   W36
 .byte   N24 ,Fs2 ,v120
 .byte   N84 ,Cs3 ,v127
 .byte   W24
@  #05 @052   ----------------------------------------
 .byte   W12
 .byte   N48 ,Fs2 ,v120
 .byte   W48
 .byte   N96 ,En2
 .byte   N96 ,Cs3
 .byte   W36
@  #05 @053   ----------------------------------------
 .byte   W60
 .byte   N24 ,En2
 .byte   N24 ,Cs3
 .byte   W24
 .byte   N12 ,En2 ,v064
 .byte   N96 ,Fs2
 .byte   N96 ,Dn3
 .byte   W12
@  #05 @054   ----------------------------------------
 .byte   W84
 .byte   N24 ,Fs2
 .byte   N24 ,Dn3
 .byte   W12
@  #05 @055   ----------------------------------------
 .byte   W12
 .byte   N84 ,Fs2
 .byte   W84
@  #05 @056   ----------------------------------------
 .byte   W96
@  #05 @057   ----------------------------------------
 .byte   W96
@  #05 @058   ----------------------------------------
 .byte   W96
@  #05 @059   ----------------------------------------
 .byte   W96
@  #05 @060   ----------------------------------------
 .byte   W96
@  #05 @061   ----------------------------------------
 .byte   W96
@  #05 @062   ----------------------------------------
 .byte   W96
@  #05 @063   ----------------------------------------
 .byte   W96
@  #05 @064   ----------------------------------------
 .byte   W96
@  #05 @065   ----------------------------------------
 .byte   W96
@  #05 @066   ----------------------------------------
 .byte   W96
@  #05 @067   ----------------------------------------
 .byte   W96
@  #05 @068   ----------------------------------------
 .byte   W96
@  #05 @069   ----------------------------------------
 .byte   W96
@  #05 @070   ----------------------------------------
 .byte   W12
 .byte   GOTO
  .word Label_0198420E
@  #05 @071   ----------------------------------------
 .byte   VOL , 15*song03C1_mvl/mxv
 .byte   W84
 .byte   FINE

@**************** Track 6 (Midi-Chn.5) ****************@

song03C1_006:
@  #06 @000   ----------------------------------------
 .byte   KEYSH , song03C1_key+0
Label_01984C2A:
 .byte   VOICE , 55
 .byte   VOL , 30*song03C1_mvl/mxv
 .byte   PAN , c_v-20
 .byte   W96
@  #06 @001   ----------------------------------------
 .byte   W96
@  #06 @002   ----------------------------------------
 .byte   W96
@  #06 @003   ----------------------------------------
 .byte   W96
@  #06 @004   ----------------------------------------
 .byte   W96
@  #06 @005   ----------------------------------------
 .byte   W96
@  #06 @006   ----------------------------------------
 .byte   W96
@  #06 @007   ----------------------------------------
 .byte   W96
@  #06 @008   ----------------------------------------
 .byte   W96
@  #06 @009   ----------------------------------------
 .byte   W96
@  #06 @010   ----------------------------------------
 .byte   W96
@  #06 @011   ----------------------------------------
 .byte   W96
@  #06 @012   ----------------------------------------
 .byte   W96
@  #06 @013   ----------------------------------------
 .byte   W96
@  #06 @014   ----------------------------------------
 .byte   W84
 .byte   N24 ,Ds3 ,v100
 .byte   N24 ,Gs3
 .byte   W12
@  #06 @015   ----------------------------------------
 .byte   W12
 .byte   N96 ,Cs3
 .byte   N96 ,An3
 .byte   W84
@  #06 @016   ----------------------------------------
 .byte   W12
 .byte   N24 ,Cs3
 .byte   N24 ,An3
 .byte   W24
 .byte   N60 ,Cs3 ,v080
 .byte   N96 ,Ds3
 .byte   N96 ,Bn3
 .byte   W60
@  #06 @017   ----------------------------------------
 .byte   W36
 .byte   N24 ,Ds3
 .byte   N24 ,Bn3
 .byte   W24
 .byte   N36 ,Ds3 ,v072
 .byte   N96 ,En3
 .byte   N96 ,Cs4
 .byte   W36
@  #06 @018   ----------------------------------------
 .byte   W60
 .byte   En3
 .byte   N96 ,Cs4
 .byte   W36
@  #06 @019   ----------------------------------------
 .byte   W60
 .byte   N48 ,En3
 .byte   N48 ,Cs4
 .byte   W36
@  #06 @020   ----------------------------------------
 .byte   W12
 .byte   N84 ,En3 ,v076
 .byte   N96 ,Cs4
 .byte   W84
@  #06 @021   ----------------------------------------
 .byte   W12
 .byte   N24
 .byte   W24
 .byte   N60 ,En3
 .byte   N96 ,Fs3
 .byte   N96 ,Ds4
 .byte   W60
@  #06 @022   ----------------------------------------
 .byte   W36
 .byte   N24 ,Fs3
 .byte   N24 ,Ds4
 .byte   W24
 .byte   N36 ,Fs3
 .byte   N96 ,Gs3
 .byte   N96 ,En4
 .byte   W36
@  #06 @023   ----------------------------------------
 .byte   W60
 .byte   N24 ,Gs3
 .byte   N24 ,En4
 .byte   W24
 .byte   N12 ,Gs3
 .byte   N96 ,Ds4
 .byte   W12
@  #06 @024   ----------------------------------------
 .byte   W84
 .byte   N24
 .byte   W12
@  #06 @025   ----------------------------------------
 .byte   W12
 .byte   N84 ,Gs3
 .byte   N96 ,Cs4
 .byte   W84
@  #06 @026   ----------------------------------------
 .byte   W12
 .byte   N24
 .byte   W24
 .byte   N60 ,Gs3
 .byte   N96 ,Bn3
 .byte   N96 ,Fs4
 .byte   W60
@  #06 @027   ----------------------------------------
 .byte   W36
 .byte   N24 ,Bn3
 .byte   N24 ,Fs4
 .byte   W24
 .byte   N36 ,Bn3 ,v080
 .byte   N96 ,Cs4
 .byte   N96 ,Gs4
 .byte   W36
@  #06 @028   ----------------------------------------
 .byte   W60
 .byte   N24 ,Cs4
 .byte   N24 ,Gs4
 .byte   W24
 .byte   N96 ,Bn3
 .byte   N12 ,Cs4
 .byte   N96 ,Fs4
 .byte   W12
@  #06 @029   ----------------------------------------
 .byte   W84
 .byte   N24 ,Bn3
 .byte   N24 ,Fs4
 .byte   W12
@  #06 @030   ----------------------------------------
 .byte   W12
 .byte   N96 ,An2 ,v112
 .byte   N96 ,Cs3
 .byte   N84 ,Bn3 ,v080
 .byte   W84
@  #06 @031   ----------------------------------------
 .byte   W12
 .byte   N24 ,An2 ,v112
 .byte   N24 ,Cs3
 .byte   W24
 .byte   N60 ,An2 ,v064
 .byte   N96 ,Bn2
 .byte   N96 ,Ds3
 .byte   W60
@  #06 @032   ----------------------------------------
Label_01984CE8:
 .byte   W36
 .byte   N24 ,Bn2 ,v064
 .byte   N24 ,Ds3
 .byte   W24
 .byte   N36 ,Bn2
 .byte   N96 ,Cs3
 .byte   N96 ,En3
 .byte   W36
 .byte   PEND 
@  #06 @033   ----------------------------------------
Label_01984CF7:
 .byte   W60
 .byte   N96 ,Cs3 ,v064
 .byte   N96 ,En3
 .byte   W36
 .byte   PEND 
@  #06 @034   ----------------------------------------
 .byte   W60
 .byte   N24 ,Cs3
 .byte   N24 ,En3
 .byte   W24
 .byte   Bn2
 .byte   N12 ,Cs3
 .byte   N24 ,Ds3
 .byte   W12
@  #06 @035   ----------------------------------------
 .byte   W12
 .byte   N96 ,An2 ,v120
 .byte   N96 ,Cs3
 .byte   W84
@  #06 @036   ----------------------------------------
 .byte   W12
 .byte   N24 ,An2
 .byte   N24 ,Cs3
 .byte   W24
 .byte   N60 ,An2 ,v064
 .byte   N96 ,Bn2
 .byte   N96 ,Ds3
 .byte   W60
@  #06 @037   ----------------------------------------
 .byte   PATT
  .word Label_01984CE8
@  #06 @038   ----------------------------------------
 .byte   PATT
  .word Label_01984CF7
@  #06 @039   ----------------------------------------
 .byte   W60
 .byte   N48 ,Cs3 ,v064
 .byte   N48 ,En3
 .byte   W36
@  #06 @040   ----------------------------------------
 .byte   W12
 .byte   N84 ,Cs3
 .byte   N96 ,Gs3 ,v112
 .byte   N96 ,Cs4
 .byte   W84
@  #06 @041   ----------------------------------------
Label_01984D3A:
 .byte   W12
 .byte   N96 ,Gs3 ,v112
 .byte   N96 ,Cs4
 .byte   W84
 .byte   PEND 
@  #06 @042   ----------------------------------------
Label_01984D42:
 .byte   W12
 .byte   N48 ,Gs3 ,v112
 .byte   N48 ,Cs4
 .byte   W48
 .byte   N96 ,Fs3 ,v076
 .byte   N36 ,Gs3
 .byte   N96 ,Cs4
 .byte   W36
 .byte   PEND 
@  #06 @043   ----------------------------------------
Label_01984D52:
 .byte   W60
 .byte   N24 ,Fs3 ,v076
 .byte   N24 ,Cs4
 .byte   W24
 .byte   N12 ,Fs3
 .byte   N72 ,Cn4
 .byte   W12
 .byte   PEND 
@  #06 @044   ----------------------------------------
Label_01984D5F:
 .byte   W60
 .byte   N48 ,Gs3 ,v112
 .byte   N48 ,Cn4
 .byte   W36
 .byte   PEND 
@  #06 @045   ----------------------------------------
 .byte   PATT
  .word Label_01984D3A
@  #06 @046   ----------------------------------------
Label_01984D6C:
 .byte   W12
 .byte   N24 ,Gs3 ,v112
 .byte   N24 ,Cs4
 .byte   W24
 .byte   N60 ,Gs3
 .byte   N96 ,An3
 .byte   W60
 .byte   PEND 
@  #06 @047   ----------------------------------------
Label_01984D79:
 .byte   W36
 .byte   N24 ,An3 ,v112
 .byte   W24
 .byte   N96 ,Fs3
 .byte   N36 ,Cs4
 .byte   W36
 .byte   PEND 
@  #06 @048   ----------------------------------------
Label_01984D84:
 .byte   W60
 .byte   N24 ,Fs3 ,v112
 .byte   W24
 .byte   N12 ,Fs3 ,v076
 .byte   N72 ,Cn4
 .byte   W12
 .byte   PEND 
@  #06 @049   ----------------------------------------
 .byte   W60
 .byte   N36 ,Gs3 ,v112
 .byte   N36 ,Cn4
 .byte   W36
@  #06 @050   ----------------------------------------
 .byte   W12
 .byte   N96 ,Gs3 ,v100
 .byte   N96 ,Cs4
 .byte   W84
@  #06 @051   ----------------------------------------
 .byte   W12
 .byte   N24 ,Gs3
 .byte   N24 ,Cs4
 .byte   W24
 .byte   N96 ,Fs3 ,v076
 .byte   N60 ,Gs3
 .byte   N96 ,Dn4
 .byte   W60
@  #06 @052   ----------------------------------------
 .byte   W36
 .byte   N24 ,Fs3
 .byte   N24 ,Dn4
 .byte   W24
 .byte   N36 ,Fs3
 .byte   N96 ,Gs3
 .byte   N96 ,Cs4
 .byte   W36
@  #06 @053   ----------------------------------------
 .byte   W60
 .byte   N24 ,Gs3
 .byte   N24 ,Cs4
 .byte   W24
 .byte   N96 ,Fs3
 .byte   N12 ,Gs3
 .byte   N96 ,Dn4
 .byte   W12
@  #06 @054   ----------------------------------------
 .byte   W84
 .byte   N24 ,Fs3
 .byte   N24 ,Dn4
 .byte   W12
@  #06 @055   ----------------------------------------
 .byte   W12
 .byte   N84 ,Fs3
 .byte   N96 ,Gs3 ,v112
 .byte   N96 ,Cs4
 .byte   W84
@  #06 @056   ----------------------------------------
 .byte   PATT
  .word Label_01984D3A
@  #06 @057   ----------------------------------------
 .byte   PATT
  .word Label_01984D42
@  #06 @058   ----------------------------------------
 .byte   PATT
  .word Label_01984D52
@  #06 @059   ----------------------------------------
 .byte   PATT
  .word Label_01984D5F
@  #06 @060   ----------------------------------------
 .byte   PATT
  .word Label_01984D3A
@  #06 @061   ----------------------------------------
 .byte   PATT
  .word Label_01984D6C
@  #06 @062   ----------------------------------------
 .byte   PATT
  .word Label_01984D79
@  #06 @063   ----------------------------------------
 .byte   PATT
  .word Label_01984D84
@  #06 @064   ----------------------------------------
 .byte   PATT
  .word Label_01984D5F
@  #06 @065   ----------------------------------------
 .byte   PATT
  .word Label_01984D3A
@  #06 @066   ----------------------------------------
 .byte   W12
 .byte   N24 ,Gs3 ,v112
 .byte   N24 ,Cs4
 .byte   W24
 .byte   N96 ,Bn2 ,v100
 .byte   N96 ,Fs3
 .byte   N60 ,Gs3 ,v076
 .byte   W60
@  #06 @067   ----------------------------------------
 .byte   W36
 .byte   N24 ,Bn2 ,v100
 .byte   N24 ,Fs3
 .byte   W24
 .byte   N36 ,Bn2 ,v068
 .byte   N96 ,Cs3
 .byte   N96 ,En3
 .byte   W36
@  #06 @068   ----------------------------------------
 .byte   W60
 .byte   Cs3
 .byte   N96 ,En3
 .byte   W36
@  #06 @069   ----------------------------------------
 .byte   W60
 .byte   N48 ,Cs3
 .byte   N48 ,En3
 .byte   W36
@  #06 @070   ----------------------------------------
 .byte   W12
 .byte   GOTO
  .word Label_01984C2A
@  #06 @071   ----------------------------------------
 .byte   W84
 .byte   FINE

@**************** Track 7 (Midi-Chn.6) ****************@

song03C1_007:
@  #07 @000   ----------------------------------------
 .byte   KEYSH , song03C1_key+0
Label_0198593E:
 .byte   VOICE , 42
 .byte   PAN , c_v-4
 .byte   VOL , 18*song03C1_mvl/mxv
 .byte   W96
@  #07 @001   ----------------------------------------
 .byte   W96
@  #07 @002   ----------------------------------------
 .byte   W96
@  #07 @003   ----------------------------------------
 .byte   W96
@  #07 @004   ----------------------------------------
 .byte   W96
@  #07 @005   ----------------------------------------
 .byte   W96
@  #07 @006   ----------------------------------------
 .byte   W96
@  #07 @007   ----------------------------------------
 .byte   W96
@  #07 @008   ----------------------------------------
 .byte   W96
@  #07 @009   ----------------------------------------
 .byte   W96
@  #07 @010   ----------------------------------------
 .byte   W96
@  #07 @011   ----------------------------------------
 .byte   W96
@  #07 @012   ----------------------------------------
 .byte   W96
@  #07 @013   ----------------------------------------
 .byte   W96
@  #07 @014   ----------------------------------------
 .byte   W96
@  #07 @015   ----------------------------------------
 .byte   W96
@  #07 @016   ----------------------------------------
 .byte   W96
@  #07 @017   ----------------------------------------
 .byte   W96
@  #07 @018   ----------------------------------------
 .byte   W96
@  #07 @019   ----------------------------------------
 .byte   W96
@  #07 @020   ----------------------------------------
 .byte   W12
 .byte   N06 ,Ds4 ,v100
 .byte   N06 ,Gs4
 .byte   W12
 .byte   Gs3 ,v092
 .byte   N06 ,Ds4
 .byte   W12
 .byte   N12 ,Gs3
 .byte   W12
 .byte   N06 ,Ds4 ,v100
 .byte   N06 ,Gs4
 .byte   W12
 .byte   Gs3 ,v092
 .byte   N06 ,Ds4
 .byte   W12
 .byte   N12 ,Gs3
 .byte   W12
 .byte   N06 ,Ds4 ,v100
 .byte   N06 ,Gs4
 .byte   W12
@  #07 @021   ----------------------------------------
Label_0198597B:
 .byte   N06 ,Gs3 ,v092
 .byte   N06 ,Ds4
 .byte   W12
 .byte   Ds4 ,v096
 .byte   N06 ,Gs4
 .byte   W12
 .byte   Gs3 ,v092
 .byte   N06 ,Ds4
 .byte   W12
 .byte   Ds4 ,v100
 .byte   N06 ,Gs4
 .byte   W12
 .byte   Gs3 ,v092
 .byte   N06 ,Ds4
 .byte   W12
 .byte   N12 ,Gs3
 .byte   W12
 .byte   N06 ,Ds4 ,v100
 .byte   N06 ,Gs4
 .byte   W12
 .byte   Gs3 ,v092
 .byte   N06 ,Ds4
 .byte   W12
 .byte   PEND 
@  #07 @022   ----------------------------------------
Label_019859A4:
 .byte   N06 ,Gs3 ,v092
 .byte   W12
 .byte   Ds4 ,v100
 .byte   N06 ,Gs4
 .byte   W12
 .byte   Gs3 ,v092
 .byte   N06 ,Ds4
 .byte   W12
 .byte   Ds4 ,v096
 .byte   N06 ,Gs4
 .byte   W12
 .byte   Gs3 ,v092
 .byte   N06 ,Ds4
 .byte   W12
 .byte   Ds4 ,v100
 .byte   N06 ,Gs4
 .byte   W12
 .byte   Gs3 ,v092
 .byte   N06 ,Ds4
 .byte   W12
 .byte   N12 ,Gs3
 .byte   W12
 .byte   PEND 
@  #07 @023   ----------------------------------------
Label_019859CA:
 .byte   N06 ,Ds4 ,v100
 .byte   N06 ,Gs4
 .byte   W12
 .byte   Gs3 ,v092
 .byte   N06 ,Ds4
 .byte   W12
 .byte   N12 ,Gs3
 .byte   W12
 .byte   N06 ,Ds4 ,v100
 .byte   N06 ,Gs4
 .byte   W12
 .byte   Gs3 ,v092
 .byte   N06 ,Ds4
 .byte   W12
 .byte   Ds4 ,v096
 .byte   N06 ,Gs4
 .byte   W12
 .byte   Gs3 ,v092
 .byte   N06 ,Ds4
 .byte   W12
 .byte   Ds4 ,v100
 .byte   N06 ,Gs4
 .byte   W12
 .byte   PEND 
@  #07 @024   ----------------------------------------
Label_019859F3:
 .byte   N06 ,Gs3 ,v092
 .byte   N06 ,Ds4
 .byte   W12
 .byte   N12 ,Gs3
 .byte   W12
 .byte   N06 ,Ds4 ,v100
 .byte   N06 ,Gs4
 .byte   W12
 .byte   Gs3 ,v092
 .byte   N06 ,Ds4
 .byte   W12
 .byte   N12 ,Gs3
 .byte   W12
 .byte   N06 ,Ds4 ,v100
 .byte   N06 ,Gs4
 .byte   W12
 .byte   Gs3 ,v092
 .byte   N06 ,Ds4
 .byte   W12
 .byte   Ds4 ,v096
 .byte   N06 ,Gs4
 .byte   W12
 .byte   PEND 
@  #07 @025   ----------------------------------------
 .byte   Gs3 ,v092
 .byte   N06 ,Ds4
 .byte   W12
 .byte   Ds4 ,v100
 .byte   N06 ,Gs4
 .byte   W12
 .byte   Gs3 ,v092
 .byte   N06 ,Ds4
 .byte   W12
 .byte   N12 ,Gs3
 .byte   W12
 .byte   N06 ,Ds4 ,v100
 .byte   N06 ,Gs4
 .byte   W12
 .byte   Gs3 ,v092
 .byte   N06 ,Ds4
 .byte   W12
 .byte   N12 ,Gs3
 .byte   W12
 .byte   N06 ,Ds4 ,v100
 .byte   N06 ,Gs4
 .byte   W12
@  #07 @026   ----------------------------------------
 .byte   PATT
  .word Label_0198597B
@  #07 @027   ----------------------------------------
 .byte   PATT
  .word Label_019859A4
@  #07 @028   ----------------------------------------
 .byte   PATT
  .word Label_019859CA
@  #07 @029   ----------------------------------------
 .byte   PATT
  .word Label_019859F3
@  #07 @030   ----------------------------------------
 .byte   N06 ,Gs3 ,v092
 .byte   N06 ,Ds4
 .byte   W12
 .byte   Ds3 ,v116
 .byte   N06 ,Gs3
 .byte   W12
 .byte   Gs2 ,v108
 .byte   N06 ,Ds3
 .byte   W12
 .byte   N12 ,Gs2
 .byte   W12
 .byte   N06 ,Ds3 ,v116
 .byte   N06 ,Gs3
 .byte   W12
 .byte   Gs2 ,v108
 .byte   N06 ,Ds3
 .byte   W12
 .byte   N12 ,Gs2
 .byte   W12
 .byte   N06 ,Ds3 ,v116
 .byte   N06 ,Gs3
 .byte   W12
@  #07 @031   ----------------------------------------
Label_01985A7C:
 .byte   N06 ,Gs2 ,v108
 .byte   N06 ,Ds3
 .byte   W12
 .byte   Ds3 ,v112
 .byte   N06 ,Gs3
 .byte   W12
 .byte   Gs2 ,v108
 .byte   N06 ,Ds3
 .byte   W12
 .byte   Ds3 ,v116
 .byte   N06 ,Gs3
 .byte   W12
 .byte   Gs2 ,v108
 .byte   N06 ,Ds3
 .byte   W12
 .byte   N12 ,Gs2
 .byte   W12
 .byte   N06 ,Ds3 ,v116
 .byte   N06 ,Gs3
 .byte   W12
 .byte   Gs2 ,v108
 .byte   N06 ,Ds3
 .byte   W12
 .byte   PEND 
@  #07 @032   ----------------------------------------
Label_01985AA5:
 .byte   N06 ,Gs2 ,v108
 .byte   W12
 .byte   Ds3 ,v116
 .byte   N06 ,Gs3
 .byte   W12
 .byte   Gs2 ,v108
 .byte   N06 ,Ds3
 .byte   W12
 .byte   Ds3 ,v112
 .byte   N06 ,Gs3
 .byte   W12
 .byte   Gs2 ,v108
 .byte   N06 ,Ds3
 .byte   W12
 .byte   Cs3 ,v116
 .byte   N06 ,Gs3
 .byte   W12
 .byte   Gs2 ,v108
 .byte   N06 ,Cs3
 .byte   W12
 .byte   N12 ,Gs2
 .byte   W12
 .byte   PEND 
@  #07 @033   ----------------------------------------
Label_01985ACB:
 .byte   N06 ,Cs3 ,v116
 .byte   N06 ,Gs3
 .byte   W12
 .byte   Gs2 ,v108
 .byte   N06 ,Cs3
 .byte   W12
 .byte   N12 ,Gs2
 .byte   W12
 .byte   N06 ,Cs3 ,v116
 .byte   N06 ,Gs3
 .byte   W12
 .byte   Gs2 ,v108
 .byte   N06 ,Cs3
 .byte   W12
 .byte   Cs3 ,v112
 .byte   N06 ,Gs3
 .byte   W12
 .byte   Gs2 ,v108
 .byte   N06 ,Cs3
 .byte   W12
 .byte   Cs3 ,v116
 .byte   N06 ,Gs3
 .byte   W12
 .byte   PEND 
@  #07 @034   ----------------------------------------
Label_01985AF4:
 .byte   N06 ,Gs2 ,v108
 .byte   N06 ,Cs3
 .byte   W12
 .byte   N12 ,Gs2
 .byte   W12
 .byte   N06 ,Cs3 ,v116
 .byte   N06 ,Gs3
 .byte   W12
 .byte   Gs2 ,v108
 .byte   N06 ,Cs3
 .byte   W12
 .byte   N12 ,Gs2
 .byte   W12
 .byte   N06 ,Cs3 ,v116
 .byte   N06 ,Gs3
 .byte   W12
 .byte   Gs2 ,v108
 .byte   N06 ,Cs3
 .byte   W12
 .byte   Bn2 ,v112
 .byte   N06 ,Gs3
 .byte   W12
 .byte   PEND 
@  #07 @035   ----------------------------------------
 .byte   Gs2 ,v108
 .byte   N06 ,Bn2
 .byte   W12
 .byte   Ds3 ,v116
 .byte   N06 ,Gs3
 .byte   W12
 .byte   Gs2 ,v108
 .byte   N06 ,Ds3
 .byte   W12
 .byte   N12 ,Gs2
 .byte   W12
 .byte   N06 ,Ds3 ,v116
 .byte   N06 ,Gs3
 .byte   W12
 .byte   Gs2 ,v108
 .byte   N06 ,Ds3
 .byte   W12
 .byte   N12 ,Gs2
 .byte   W12
 .byte   N06 ,Ds3 ,v116
 .byte   N06 ,Gs3
 .byte   W12
@  #07 @036   ----------------------------------------
 .byte   PATT
  .word Label_01985A7C
@  #07 @037   ----------------------------------------
 .byte   PATT
  .word Label_01985AA5
@  #07 @038   ----------------------------------------
 .byte   PATT
  .word Label_01985ACB
@  #07 @039   ----------------------------------------
 .byte   PATT
  .word Label_01985AF4
@  #07 @040   ----------------------------------------
 .byte   N06 ,Gs2 ,v108
 .byte   N06 ,Bn2
 .byte   W96
@  #07 @041   ----------------------------------------
 .byte   W96
@  #07 @042   ----------------------------------------
 .byte   W96
@  #07 @043   ----------------------------------------
 .byte   W96
@  #07 @044   ----------------------------------------
 .byte   W96
@  #07 @045   ----------------------------------------
 .byte   W96
@  #07 @046   ----------------------------------------
 .byte   W96
@  #07 @047   ----------------------------------------
 .byte   W96
@  #07 @048   ----------------------------------------
 .byte   W96
@  #07 @049   ----------------------------------------
 .byte   W96
@  #07 @050   ----------------------------------------
 .byte   W96
@  #07 @051   ----------------------------------------
 .byte   W96
@  #07 @052   ----------------------------------------
 .byte   W96
@  #07 @053   ----------------------------------------
 .byte   W96
@  #07 @054   ----------------------------------------
 .byte   W96
@  #07 @055   ----------------------------------------
 .byte   W96
@  #07 @056   ----------------------------------------
 .byte   W96
@  #07 @057   ----------------------------------------
 .byte   W96
@  #07 @058   ----------------------------------------
 .byte   W96
@  #07 @059   ----------------------------------------
 .byte   W96
@  #07 @060   ----------------------------------------
 .byte   W96
@  #07 @061   ----------------------------------------
 .byte   W96
@  #07 @062   ----------------------------------------
 .byte   W96
@  #07 @063   ----------------------------------------
 .byte   W96
@  #07 @064   ----------------------------------------
 .byte   W96
@  #07 @065   ----------------------------------------
 .byte   W12
 .byte   Ds3 ,v112
 .byte   N06 ,Gs3
 .byte   W12
 .byte   Gs2 ,v100
 .byte   N06 ,Ds3
 .byte   W12
 .byte   N12 ,Gs2
 .byte   W12
 .byte   N06 ,Ds3 ,v112
 .byte   N06 ,Gs3
 .byte   W12
 .byte   Gs2 ,v100
 .byte   N06 ,Ds3
 .byte   W12
 .byte   N12 ,Gs2
 .byte   W12
 .byte   N06 ,Ds3 ,v112
 .byte   N06 ,Gs3
 .byte   W12
@  #07 @066   ----------------------------------------
 .byte   Gs2 ,v100
 .byte   N06 ,Ds3
 .byte   W12
 .byte   Ds3 ,v108
 .byte   N06 ,Gs3
 .byte   W12
 .byte   Gs2 ,v100
 .byte   N06 ,Ds3
 .byte   W12
 .byte   Ds3 ,v112
 .byte   N06 ,Gs3
 .byte   W12
 .byte   Gs2 ,v100
 .byte   N06 ,Ds3
 .byte   W12
 .byte   N12 ,Gs2
 .byte   W12
 .byte   N06 ,Ds3 ,v112
 .byte   N06 ,Gs3
 .byte   W12
 .byte   Gs2 ,v100
 .byte   N06 ,Ds3
 .byte   W12
@  #07 @067   ----------------------------------------
 .byte   N12 ,Gs2
 .byte   W12
 .byte   N06 ,Ds3 ,v112
 .byte   N06 ,Gs3
 .byte   W12
 .byte   Gs2 ,v100
 .byte   N06 ,Ds3
 .byte   W12
 .byte   Ds3 ,v108
 .byte   N06 ,Gs3
 .byte   W12
 .byte   Gs2 ,v100
 .byte   N06 ,Ds3
 .byte   W12
 .byte   Ds3 ,v108
 .byte   N06 ,Gs3
 .byte   W12
 .byte   Gs2 ,v096
 .byte   N06 ,Ds3
 .byte   W12
 .byte   N12 ,Gs2
 .byte   W12
@  #07 @068   ----------------------------------------
 .byte   N06 ,Ds3 ,v108
 .byte   N06 ,Gs3
 .byte   W12
 .byte   Gs2 ,v096
 .byte   N06 ,Ds3
 .byte   W12
 .byte   N12 ,Gs2
 .byte   W12
 .byte   N06 ,Ds3 ,v108
 .byte   N06 ,Gs3
 .byte   W12
 .byte   Gs2 ,v096
 .byte   N06 ,Ds3
 .byte   W12
 .byte   Ds3 ,v100
 .byte   N06 ,Gs3
 .byte   W12
 .byte   Gs2 ,v096
 .byte   N06 ,Ds3
 .byte   W12
 .byte   Ds3 ,v108
 .byte   N06 ,Gs3
 .byte   W12
@  #07 @069   ----------------------------------------
 .byte   Gs2 ,v096
 .byte   N06 ,Ds3
 .byte   W12
 .byte   N12 ,Gs2
 .byte   W12
 .byte   N06 ,Ds3 ,v108
 .byte   N06 ,Gs3
 .byte   W12
 .byte   Gs2 ,v096
 .byte   N06 ,Ds3
 .byte   W12
 .byte   N12 ,Gs2
 .byte   W12
 .byte   N06 ,Ds3 ,v108
 .byte   N06 ,Gs3
 .byte   W12
 .byte   Gs2 ,v096
 .byte   N06 ,Ds3
 .byte   W12
 .byte   Ds3 ,v100
 .byte   N06 ,Gs3
 .byte   W12
@  #07 @070   ----------------------------------------
 .byte   Gs2 ,v096
 .byte   N06 ,Ds3
 .byte   W12
 .byte   GOTO
  .word Label_0198593E
@  #07 @071   ----------------------------------------
 .byte   VOL , 18*song03C1_mvl/mxv
 .byte   W84
 .byte   FINE

@**************** Track 8 (Midi-Chn.7) ****************@

song03C1_008:
@  #08 @000   ----------------------------------------
 .byte   KEYSH , song03C1_key+0
Label_015DF236:
 .byte   VOICE , 1
 .byte   VOL , 16*song03C1_mvl/mxv
 .byte   PAN , c_v+2
 .byte   W96
@  #08 @001   ----------------------------------------
 .byte   W96
@  #08 @002   ----------------------------------------
 .byte   W96
@  #08 @003   ----------------------------------------
 .byte   W96
@  #08 @004   ----------------------------------------
 .byte   W96
@  #08 @005   ----------------------------------------
 .byte   W96
@  #08 @006   ----------------------------------------
 .byte   W96
@  #08 @007   ----------------------------------------
 .byte   W96
@  #08 @008   ----------------------------------------
 .byte   W96
@  #08 @009   ----------------------------------------
 .byte   W96
@  #08 @010   ----------------------------------------
 .byte   W12
 .byte   N12 ,Gs3 ,v108
 .byte   N12 ,Ds4 ,v112
 .byte   W12
 .byte   Gs3 ,v088
 .byte   N12 ,Ds4 ,v092
 .byte   W12
 .byte   Ds3 ,v104
 .byte   N12 ,Gs3 ,v108
 .byte   W12
 .byte   Gs3 ,v092
 .byte   N12 ,Ds4 ,v112
 .byte   W12
 .byte   Gs3 ,v088
 .byte   N12 ,Ds4 ,v092
 .byte   W12
 .byte   Ds4 ,v104
 .byte   N12 ,Gs4 ,v108
 .byte   W12
 .byte   Ds4 ,v088
 .byte   N12 ,Gs4 ,v092
 .byte   W12
@  #08 @011   ----------------------------------------
Label_015DF272:
 .byte   N12 ,Ds4 ,v072
 .byte   N12 ,Gs4 ,v080
 .byte   W12
 .byte   Gs3 ,v104
 .byte   N12 ,Ds4 ,v108
 .byte   W12
 .byte   Gs3 ,v084
 .byte   N12 ,Ds4 ,v088
 .byte   W12
 .byte   Gs3 ,v108
 .byte   N12 ,Ds4 ,v112
 .byte   W12
 .byte   Gs3 ,v088
 .byte   N12 ,Ds4 ,v092
 .byte   W12
 .byte   Ds3 ,v104
 .byte   N12 ,Gs3 ,v108
 .byte   W12
 .byte   Gs3 ,v092
 .byte   N12 ,Ds4 ,v112
 .byte   W12
 .byte   Gs3 ,v088
 .byte   N12 ,Ds4 ,v092
 .byte   W12
 .byte   PEND 
@  #08 @012   ----------------------------------------
Label_015DF2A4:
 .byte   N12 ,Ds4 ,v104
 .byte   N12 ,Gs4 ,v108
 .byte   W12
 .byte   Ds4 ,v104
 .byte   N12 ,Gs4 ,v108
 .byte   W12
 .byte   Ds4 ,v088
 .byte   N12 ,Gs4 ,v092
 .byte   W12
 .byte   Gs3 ,v100
 .byte   N12 ,Ds4 ,v104
 .byte   W12
 .byte   Gs3 ,v084
 .byte   N12 ,Ds4 ,v088
 .byte   W12
 .byte   Gs3 ,v108
 .byte   N12 ,Cs4 ,v112
 .byte   W12
 .byte   Gs3 ,v088
 .byte   N12 ,Cs4 ,v092
 .byte   W12
 .byte   Cs3 ,v104
 .byte   N12 ,Gs3 ,v108
 .byte   W12
 .byte   PEND 
@  #08 @013   ----------------------------------------
Label_015DF2D6:
 .byte   N12 ,Gs3 ,v092
 .byte   N12 ,Cs4 ,v112
 .byte   W12
 .byte   Gs3 ,v088
 .byte   N12 ,Cs4 ,v092
 .byte   W12
 .byte   Cs4 ,v104
 .byte   N12 ,Gs4 ,v108
 .byte   W12
 .byte   Cs4 ,v088
 .byte   N12 ,Gs4 ,v092
 .byte   W12
 .byte   Cs4 ,v072
 .byte   N12 ,Gs4 ,v080
 .byte   W12
 .byte   Gs3 ,v104
 .byte   N12 ,Cs4 ,v108
 .byte   W12
 .byte   Gs3 ,v084
 .byte   N12 ,Cs4 ,v088
 .byte   W12
 .byte   Gs3 ,v108
 .byte   N12 ,Cs4 ,v112
 .byte   W12
 .byte   PEND 
@  #08 @014   ----------------------------------------
Label_015DF308:
 .byte   N12 ,Gs3 ,v088
 .byte   N12 ,Cs4 ,v092
 .byte   W12
 .byte   Cs3 ,v104
 .byte   N12 ,Gs3 ,v108
 .byte   W12
 .byte   Gs3 ,v092
 .byte   N12 ,Cs4 ,v112
 .byte   W12
 .byte   Gs3 ,v088
 .byte   N12 ,Cs4 ,v092
 .byte   W12
 .byte   Cs4 ,v104
 .byte   N12 ,Gs4 ,v108
 .byte   W12
 .byte   Cs4 ,v104
 .byte   N12 ,Gs4 ,v108
 .byte   W12
 .byte   Cs4 ,v088
 .byte   N12 ,Gs4 ,v092
 .byte   W12
 .byte   Gs3 ,v100
 .byte   N12 ,Cs4 ,v104
 .byte   W12
 .byte   PEND 
@  #08 @015   ----------------------------------------
 .byte   Gs3 ,v084
 .byte   N12 ,Cs4 ,v088
 .byte   W12
 .byte   Gs3 ,v108
 .byte   N12 ,Ds4 ,v112
 .byte   W12
 .byte   Gs3 ,v088
 .byte   N12 ,Ds4 ,v092
 .byte   W12
 .byte   Ds3 ,v104
 .byte   N12 ,Gs3 ,v108
 .byte   W12
 .byte   Gs3 ,v092
 .byte   N12 ,Ds4 ,v112
 .byte   W12
 .byte   Gs3 ,v088
 .byte   N12 ,Ds4 ,v092
 .byte   W12
 .byte   Ds4 ,v104
 .byte   N12 ,Gs4 ,v108
 .byte   W12
 .byte   Ds4 ,v088
 .byte   N12 ,Gs4 ,v092
 .byte   W12
@  #08 @016   ----------------------------------------
 .byte   PATT
  .word Label_015DF272
@  #08 @017   ----------------------------------------
 .byte   PATT
  .word Label_015DF2A4
@  #08 @018   ----------------------------------------
 .byte   PATT
  .word Label_015DF2D6
@  #08 @019   ----------------------------------------
 .byte   PATT
  .word Label_015DF308
@  #08 @020   ----------------------------------------
 .byte   N12 ,Gs3 ,v084
 .byte   N12 ,Cs4 ,v088
 .byte   W96
@  #08 @021   ----------------------------------------
 .byte   W96
@  #08 @022   ----------------------------------------
 .byte   W96
@  #08 @023   ----------------------------------------
 .byte   W96
@  #08 @024   ----------------------------------------
 .byte   W96
@  #08 @025   ----------------------------------------
 .byte   W96
@  #08 @026   ----------------------------------------
 .byte   W96
@  #08 @027   ----------------------------------------
 .byte   W96
@  #08 @028   ----------------------------------------
 .byte   W96
@  #08 @029   ----------------------------------------
 .byte   W96
@  #08 @030   ----------------------------------------
 .byte   W96
@  #08 @031   ----------------------------------------
 .byte   W96
@  #08 @032   ----------------------------------------
 .byte   W96
@  #08 @033   ----------------------------------------
 .byte   W96
@  #08 @034   ----------------------------------------
 .byte   W96
@  #08 @035   ----------------------------------------
 .byte   W96
@  #08 @036   ----------------------------------------
 .byte   W96
@  #08 @037   ----------------------------------------
 .byte   W96
@  #08 @038   ----------------------------------------
 .byte   W96
@  #08 @039   ----------------------------------------
 .byte   W96
@  #08 @040   ----------------------------------------
 .byte   W96
@  #08 @041   ----------------------------------------
 .byte   W96
@  #08 @042   ----------------------------------------
 .byte   W96
@  #08 @043   ----------------------------------------
 .byte   W96
@  #08 @044   ----------------------------------------
 .byte   W96
@  #08 @045   ----------------------------------------
 .byte   W96
@  #08 @046   ----------------------------------------
 .byte   W96
@  #08 @047   ----------------------------------------
 .byte   W96
@  #08 @048   ----------------------------------------
 .byte   W96
@  #08 @049   ----------------------------------------
 .byte   W96
@  #08 @050   ----------------------------------------
 .byte   W96
@  #08 @051   ----------------------------------------
 .byte   W96
@  #08 @052   ----------------------------------------
 .byte   W96
@  #08 @053   ----------------------------------------
 .byte   W96
@  #08 @054   ----------------------------------------
 .byte   W96
@  #08 @055   ----------------------------------------
 .byte   W96
@  #08 @056   ----------------------------------------
 .byte   W96
@  #08 @057   ----------------------------------------
 .byte   W96
@  #08 @058   ----------------------------------------
 .byte   W96
@  #08 @059   ----------------------------------------
 .byte   W96
@  #08 @060   ----------------------------------------
 .byte   W96
@  #08 @061   ----------------------------------------
 .byte   W96
@  #08 @062   ----------------------------------------
 .byte   W96
@  #08 @063   ----------------------------------------
 .byte   W96
@  #08 @064   ----------------------------------------
 .byte   W96
@  #08 @065   ----------------------------------------
 .byte   W96
@  #08 @066   ----------------------------------------
 .byte   W96
@  #08 @067   ----------------------------------------
 .byte   W96
@  #08 @068   ----------------------------------------
 .byte   W96
@  #08 @069   ----------------------------------------
 .byte   W96
@  #08 @070   ----------------------------------------
 .byte   W12
 .byte   GOTO
  .word Label_015DF236
@  #08 @071   ----------------------------------------
 .byte   VOL , 16*song03C1_mvl/mxv
 .byte   PAN , c_v+2
 .byte   W84
 .byte   FINE

@**************** Track 9 (Midi-Chn.8) ****************@

song03C1_009:
@  #09 @000   ----------------------------------------
 .byte   KEYSH , song03C1_key+0
Label_019848EE:
 .byte   VOICE , 59
 .byte   VOL , 12*song03C1_mvl/mxv
 .byte   PAN , c_v-5
 .byte   W12
 .byte   N96 ,Cs1 ,v120
 .byte   W84
@  #09 @001   ----------------------------------------
 .byte   W12
 .byte   N24
 .byte   W84
@  #09 @002   ----------------------------------------
 .byte   W96
@  #09 @003   ----------------------------------------
 .byte   W96
@  #09 @004   ----------------------------------------
 .byte   W96
@  #09 @005   ----------------------------------------
 .byte   W96
@  #09 @006   ----------------------------------------
 .byte   W96
@  #09 @007   ----------------------------------------
 .byte   W96
@  #09 @008   ----------------------------------------
 .byte   W96
@  #09 @009   ----------------------------------------
 .byte   W96
@  #09 @010   ----------------------------------------
 .byte   W96
@  #09 @011   ----------------------------------------
 .byte   W96
@  #09 @012   ----------------------------------------
 .byte   W96
@  #09 @013   ----------------------------------------
 .byte   W96
@  #09 @014   ----------------------------------------
 .byte   W96
@  #09 @015   ----------------------------------------
 .byte   W96
@  #09 @016   ----------------------------------------
 .byte   W96
@  #09 @017   ----------------------------------------
 .byte   W96
@  #09 @018   ----------------------------------------
 .byte   W96
@  #09 @019   ----------------------------------------
 .byte   W96
@  #09 @020   ----------------------------------------
 .byte   W96
@  #09 @021   ----------------------------------------
 .byte   W96
@  #09 @022   ----------------------------------------
 .byte   W96
@  #09 @023   ----------------------------------------
 .byte   W96
@  #09 @024   ----------------------------------------
 .byte   W96
@  #09 @025   ----------------------------------------
 .byte   W96
@  #09 @026   ----------------------------------------
 .byte   W96
@  #09 @027   ----------------------------------------
 .byte   W96
@  #09 @028   ----------------------------------------
 .byte   W96
@  #09 @029   ----------------------------------------
 .byte   W96
@  #09 @030   ----------------------------------------
 .byte   W96
@  #09 @031   ----------------------------------------
 .byte   W96
@  #09 @032   ----------------------------------------
 .byte   W96
@  #09 @033   ----------------------------------------
 .byte   W96
@  #09 @034   ----------------------------------------
 .byte   W96
@  #09 @035   ----------------------------------------
 .byte   W96
@  #09 @036   ----------------------------------------
 .byte   W96
@  #09 @037   ----------------------------------------
 .byte   W96
@  #09 @038   ----------------------------------------
 .byte   W96
@  #09 @039   ----------------------------------------
 .byte   W96
@  #09 @040   ----------------------------------------
 .byte   W96
@  #09 @041   ----------------------------------------
 .byte   W96
@  #09 @042   ----------------------------------------
 .byte   W96
@  #09 @043   ----------------------------------------
 .byte   W96
@  #09 @044   ----------------------------------------
 .byte   W96
@  #09 @045   ----------------------------------------
 .byte   W96
@  #09 @046   ----------------------------------------
 .byte   W96
@  #09 @047   ----------------------------------------
 .byte   W96
@  #09 @048   ----------------------------------------
 .byte   W96
@  #09 @049   ----------------------------------------
 .byte   W60
 .byte   N48 ,Gs1 ,v127
 .byte   W36
@  #09 @050   ----------------------------------------
 .byte   W12
 .byte   N96 ,An1
 .byte   W84
@  #09 @051   ----------------------------------------
 .byte   W12
 .byte   N24
 .byte   W24
 .byte   N96 ,Dn1
 .byte   W60
@  #09 @052   ----------------------------------------
 .byte   W36
 .byte   N24
 .byte   W24
 .byte   N96 ,An1
 .byte   W36
@  #09 @053   ----------------------------------------
 .byte   W60
 .byte   N24
 .byte   W24
 .byte   N96 ,Dn1
 .byte   W12
@  #09 @054   ----------------------------------------
 .byte   W84
 .byte   N24
 .byte   W12
@  #09 @055   ----------------------------------------
 .byte   W96
@  #09 @056   ----------------------------------------
 .byte   W96
@  #09 @057   ----------------------------------------
 .byte   W96
@  #09 @058   ----------------------------------------
 .byte   W96
@  #09 @059   ----------------------------------------
 .byte   W96
@  #09 @060   ----------------------------------------
 .byte   W96
@  #09 @061   ----------------------------------------
 .byte   W96
@  #09 @062   ----------------------------------------
 .byte   W96
@  #09 @063   ----------------------------------------
 .byte   W96
@  #09 @064   ----------------------------------------
 .byte   W96
@  #09 @065   ----------------------------------------
 .byte   W12
 .byte   N96 ,An1
 .byte   W84
@  #09 @066   ----------------------------------------
 .byte   W12
 .byte   N24
 .byte   W24
 .byte   N60
 .byte   N96 ,Bn1
 .byte   W60
@  #09 @067   ----------------------------------------
 .byte   W36
 .byte   N24
 .byte   W24
 .byte   N96 ,Cs2
 .byte   W36
@  #09 @068   ----------------------------------------
 .byte   W60
 .byte   N24
 .byte   W24
 .byte   N96 ,Cs1
 .byte   W12
@  #09 @069   ----------------------------------------
 .byte   W84
 .byte   N24
 .byte   W12
@  #09 @070   ----------------------------------------
 .byte   W12
 .byte   GOTO
  .word Label_019848EE
@  #09 @071   ----------------------------------------
 .byte   VOL , 12*song03C1_mvl/mxv
 .byte   PAN , c_v-5
 .byte   W84
 .byte   FINE

@**************** Track 10 (Midi-Chn.9) ****************@

song03C1_010:
@  #10 @000   ----------------------------------------
 .byte   KEYSH , song03C1_key+0
Label_015DF3D6:
 .byte   VOICE , 30
 .byte   PAN , c_v-19
 .byte   VOL , 19*song03C1_mvl/mxv
 .byte   W96
@  #10 @001   ----------------------------------------
 .byte   W96
@  #10 @002   ----------------------------------------
 .byte   W96
@  #10 @003   ----------------------------------------
 .byte   W96
@  #10 @004   ----------------------------------------
 .byte   W96
@  #10 @005   ----------------------------------------
 .byte   W96
@  #10 @006   ----------------------------------------
 .byte   W96
@  #10 @007   ----------------------------------------
 .byte   W96
@  #10 @008   ----------------------------------------
 .byte   W96
@  #10 @009   ----------------------------------------
 .byte   W96
@  #10 @010   ----------------------------------------
Label_015DF3E6:
 .byte   W12
 .byte   N12 ,Ds2 ,v120
 .byte   N12 ,Gs2
 .byte   W36
 .byte   Ds2 ,v112
 .byte   N12 ,Gs2
 .byte   W36
 .byte   Ds2 ,v116
 .byte   N12 ,Gs2
 .byte   W12
 .byte   PEND 
@  #10 @011   ----------------------------------------
Label_015DF3F8:
 .byte   W12
 .byte   N12 ,Ds2 ,v120
 .byte   N12 ,Gs2
 .byte   W24
 .byte   Ds2
 .byte   N12 ,Gs2
 .byte   W36
 .byte   Ds2 ,v112
 .byte   N12 ,Gs2
 .byte   W24
 .byte   PEND 
@  #10 @012   ----------------------------------------
Label_015DF409:
 .byte   N12 ,Ds2 ,v116
 .byte   N12 ,Gs2
 .byte   W12
 .byte   Ds2
 .byte   N12 ,Gs2
 .byte   W24
 .byte   Ds2 ,v120
 .byte   N12 ,Gs2
 .byte   W24
 .byte   En2
 .byte   N12 ,Gs2
 .byte   W36
 .byte   PEND 
@  #10 @013   ----------------------------------------
Label_015DF41D:
 .byte   N12 ,En2 ,v112
 .byte   N12 ,Gs2
 .byte   W36
 .byte   En2 ,v116
 .byte   N12 ,Gs2
 .byte   W24
 .byte   En2 ,v120
 .byte   N12 ,Gs2
 .byte   W24
 .byte   En2
 .byte   N12 ,Gs2
 .byte   W12
 .byte   PEND 
@  #10 @014   ----------------------------------------
Label_015DF432:
 .byte   W24
 .byte   N12 ,En2 ,v112
 .byte   N12 ,Gs2
 .byte   W24
 .byte   En2 ,v116
 .byte   N12 ,Gs2
 .byte   W12
 .byte   En2
 .byte   N12 ,Gs2
 .byte   W24
 .byte   En2 ,v120
 .byte   N12 ,Gs2
 .byte   W12
 .byte   PEND 
@  #10 @015   ----------------------------------------
 .byte   PATT
  .word Label_015DF3E6
@  #10 @016   ----------------------------------------
 .byte   PATT
  .word Label_015DF3F8
@  #10 @017   ----------------------------------------
 .byte   PATT
  .word Label_015DF409
@  #10 @018   ----------------------------------------
 .byte   PATT
  .word Label_015DF41D
@  #10 @019   ----------------------------------------
 .byte   PATT
  .word Label_015DF432
@  #10 @020   ----------------------------------------
 .byte   W96
@  #10 @021   ----------------------------------------
 .byte   W96
@  #10 @022   ----------------------------------------
 .byte   W96
@  #10 @023   ----------------------------------------
 .byte   W96
@  #10 @024   ----------------------------------------
 .byte   W96
@  #10 @025   ----------------------------------------
 .byte   W96
@  #10 @026   ----------------------------------------
 .byte   W96
@  #10 @027   ----------------------------------------
 .byte   W96
@  #10 @028   ----------------------------------------
 .byte   W96
@  #10 @029   ----------------------------------------
 .byte   W96
@  #10 @030   ----------------------------------------
 .byte   W96
@  #10 @031   ----------------------------------------
 .byte   W96
@  #10 @032   ----------------------------------------
 .byte   W96
@  #10 @033   ----------------------------------------
 .byte   W96
@  #10 @034   ----------------------------------------
 .byte   W96
@  #10 @035   ----------------------------------------
 .byte   W96
@  #10 @036   ----------------------------------------
 .byte   W96
@  #10 @037   ----------------------------------------
 .byte   W96
@  #10 @038   ----------------------------------------
 .byte   W96
@  #10 @039   ----------------------------------------
 .byte   W96
@  #10 @040   ----------------------------------------
Label_015DF475:
 .byte   W12
 .byte   N12 ,En2 ,v127
 .byte   N12 ,Gs2
 .byte   W12
 .byte   En2 ,v120
 .byte   W12
 .byte   N12
 .byte   W12
 .byte   En2 ,v127
 .byte   N12 ,Gs2
 .byte   W12
 .byte   En2 ,v120
 .byte   W12
 .byte   N12
 .byte   W12
 .byte   En2 ,v127
 .byte   N12 ,Gs2
 .byte   W12
 .byte   PEND 
@  #10 @041   ----------------------------------------
Label_015DF491:
 .byte   N12 ,En2 ,v120
 .byte   W12
 .byte   En2 ,v127
 .byte   N12 ,Gs2
 .byte   W12
 .byte   En2 ,v120
 .byte   W12
 .byte   En2 ,v127
 .byte   N12 ,Gs2
 .byte   W12
 .byte   En2 ,v120
 .byte   W12
 .byte   N12
 .byte   W12
 .byte   En2 ,v127
 .byte   N12 ,Gs2
 .byte   W12
 .byte   En2 ,v120
 .byte   W12
 .byte   PEND 
@  #10 @042   ----------------------------------------
Label_015DF4B0:
 .byte   N12 ,En2 ,v127
 .byte   N12 ,Gs2
 .byte   W12
 .byte   En2
 .byte   N12 ,Gs2
 .byte   W12
 .byte   En2 ,v120
 .byte   W12
 .byte   En2 ,v127
 .byte   N12 ,Gs2
 .byte   W12
 .byte   En2 ,v120
 .byte   W12
 .byte   Fs2 ,v127
 .byte   N12 ,An2
 .byte   W12
 .byte   Fs2 ,v120
 .byte   W12
 .byte   N12
 .byte   W12
 .byte   PEND 
@  #10 @043   ----------------------------------------
Label_015DF4D0:
 .byte   N12 ,Fs2 ,v127
 .byte   N12 ,An2
 .byte   W12
 .byte   Fs2 ,v120
 .byte   W12
 .byte   N12
 .byte   W12
 .byte   Fs2 ,v127
 .byte   N12 ,An2
 .byte   W12
 .byte   Fs2 ,v120
 .byte   W12
 .byte   Fs2 ,v127
 .byte   N12 ,An2
 .byte   W12
 .byte   Fs2 ,v120
 .byte   W12
 .byte   Ds2 ,v127
 .byte   N12 ,Gs2
 .byte   W12
 .byte   PEND 
@  #10 @044   ----------------------------------------
Label_015DF4F1:
 .byte   N12 ,Ds2 ,v120
 .byte   W12
 .byte   N12
 .byte   W12
 .byte   Ds2 ,v127
 .byte   N12 ,Gs2
 .byte   W12
 .byte   Ds2 ,v120
 .byte   W12
 .byte   Ds2 ,v127
 .byte   N12 ,Gs2
 .byte   W12
 .byte   Ds2
 .byte   N12 ,Gs2
 .byte   W12
 .byte   Ds2 ,v120
 .byte   W12
 .byte   Ds2 ,v127
 .byte   N12 ,Gs2
 .byte   W12
 .byte   PEND 
@  #10 @045   ----------------------------------------
Label_015DF511:
 .byte   N12 ,Ds2 ,v120
 .byte   W12
 .byte   En2 ,v127
 .byte   N12 ,Gs2
 .byte   W12
 .byte   En2 ,v120
 .byte   W12
 .byte   N12
 .byte   W12
 .byte   En2 ,v127
 .byte   N12 ,Gs2
 .byte   W12
 .byte   En2 ,v120
 .byte   W12
 .byte   N12
 .byte   W12
 .byte   En2 ,v127
 .byte   N12 ,Gs2
 .byte   W12
 .byte   PEND 
@  #10 @046   ----------------------------------------
Label_015DF52F:
 .byte   N12 ,En2 ,v120
 .byte   W12
 .byte   En2 ,v127
 .byte   N12 ,Gs2
 .byte   W12
 .byte   En2 ,v120
 .byte   W12
 .byte   En2 ,v127
 .byte   N12 ,An2
 .byte   W12
 .byte   En2 ,v120
 .byte   W12
 .byte   N12
 .byte   W12
 .byte   En2 ,v127
 .byte   N12 ,An2
 .byte   W12
 .byte   En2 ,v120
 .byte   W12
 .byte   PEND 
@  #10 @047   ----------------------------------------
Label_015DF54E:
 .byte   N12 ,En2 ,v127
 .byte   N12 ,An2
 .byte   W12
 .byte   En2
 .byte   N12 ,An2
 .byte   W12
 .byte   En2 ,v120
 .byte   W12
 .byte   En2 ,v127
 .byte   N12 ,An2
 .byte   W12
 .byte   En2 ,v120
 .byte   W12
 .byte   Fs2 ,v127
 .byte   N12 ,An2
 .byte   W12
 .byte   Fs2 ,v120
 .byte   W12
 .byte   N12
 .byte   W12
 .byte   PEND 
@  #10 @048   ----------------------------------------
 .byte   PATT
  .word Label_015DF4D0
@  #10 @049   ----------------------------------------
 .byte   PATT
  .word Label_015DF4F1
@  #10 @050   ----------------------------------------
 .byte   N12 ,Ds2 ,v120
 .byte   W96
@  #10 @051   ----------------------------------------
 .byte   W96
@  #10 @052   ----------------------------------------
 .byte   W96
@  #10 @053   ----------------------------------------
 .byte   W96
@  #10 @054   ----------------------------------------
 .byte   W96
@  #10 @055   ----------------------------------------
 .byte   PATT
  .word Label_015DF475
@  #10 @056   ----------------------------------------
 .byte   PATT
  .word Label_015DF491
@  #10 @057   ----------------------------------------
 .byte   PATT
  .word Label_015DF4B0
@  #10 @058   ----------------------------------------
 .byte   PATT
  .word Label_015DF4D0
@  #10 @059   ----------------------------------------
 .byte   PATT
  .word Label_015DF4F1
@  #10 @060   ----------------------------------------
 .byte   PATT
  .word Label_015DF511
@  #10 @061   ----------------------------------------
 .byte   PATT
  .word Label_015DF52F
@  #10 @062   ----------------------------------------
 .byte   PATT
  .word Label_015DF54E
@  #10 @063   ----------------------------------------
 .byte   PATT
  .word Label_015DF4D0
@  #10 @064   ----------------------------------------
 .byte   PATT
  .word Label_015DF4F1
@  #10 @065   ----------------------------------------
 .byte   N12 ,Ds2 ,v120
 .byte   W96
@  #10 @066   ----------------------------------------
 .byte   W96
@  #10 @067   ----------------------------------------
 .byte   W96
@  #10 @068   ----------------------------------------
 .byte   W96
@  #10 @069   ----------------------------------------
 .byte   W96
@  #10 @070   ----------------------------------------
 .byte   W12
 .byte   GOTO
  .word Label_015DF3D6
@  #10 @071   ----------------------------------------
 .byte   W84
 .byte   FINE

@**************** Track 11 (Midi-Chn.10) ****************@

song03C1_011:
@  #11 @000   ----------------------------------------
 .byte   KEYSH , song03C1_key+0
Label_015DF5D6:
 .byte   VOICE , 47
 .byte   PAN , c_v-8
 .byte   VOL , 25*song03C1_mvl/mxv
 .byte   N04 ,Gs1 ,v120
 .byte   W04
 .byte   N04
 .byte   W04
 .byte   N04
 .byte   W04
 .byte   N12 ,Cs2 ,v127
 .byte   W36
 .byte   N36 ,Cs2 ,v120
 .byte   W36
 .byte   N12 ,Gs1
 .byte   W12
@  #11 @001   ----------------------------------------
Label_015DF5EF:
 .byte   W12
 .byte   N12 ,Cs2 ,v120
 .byte   W24
 .byte   N36 ,Bn1
 .byte   W36
 .byte   N12
 .byte   W24
 .byte   PEND 
@  #11 @002   ----------------------------------------
Label_015DF5FA:
 .byte   N12 ,Fs1 ,v120
 .byte   W12
 .byte   N24 ,Bn1
 .byte   W24
 .byte   N12
 .byte   W24
 .byte   N36 ,An1
 .byte   W36
 .byte   PEND 
@  #11 @003   ----------------------------------------
Label_015DF607:
 .byte   N12 ,An1 ,v120
 .byte   W24
 .byte   N06 ,En1
 .byte   W06
 .byte   N06
 .byte   W06
 .byte   N12 ,An1
 .byte   W24
 .byte   N12
 .byte   W24
 .byte   Bn1
 .byte   W12
 .byte   PEND 
@  #11 @004   ----------------------------------------
Label_015DF618:
 .byte   W24
 .byte   N12 ,Bn1 ,v120
 .byte   W36
 .byte   N24 ,Fs1
 .byte   W24
 .byte   N12 ,Bn1
 .byte   W12
 .byte   PEND 
@  #11 @005   ----------------------------------------
Label_015DF624:
 .byte   N04 ,Bn1 ,v127
 .byte   W04
 .byte   Bn1 ,v112
 .byte   W04
 .byte   Bn1 ,v120
 .byte   W04
 .byte   N12 ,Cs2
 .byte   W36
 .byte   N12
 .byte   W36
 .byte   Gs1
 .byte   W12
 .byte   PEND 
@  #11 @006   ----------------------------------------
 .byte   PATT
  .word Label_015DF5EF
@  #11 @007   ----------------------------------------
 .byte   PATT
  .word Label_015DF5FA
@  #11 @008   ----------------------------------------
 .byte   PATT
  .word Label_015DF607
@  #11 @009   ----------------------------------------
 .byte   PATT
  .word Label_015DF618
@  #11 @010   ----------------------------------------
Label_015DF64A:
 .byte   N04 ,Bn1 ,v127
 .byte   W04
 .byte   Bn1 ,v112
 .byte   W04
 .byte   Bn1 ,v120
 .byte   W04
 .byte   N12 ,An1
 .byte   W36
 .byte   N12
 .byte   W36
 .byte   En1
 .byte   W12
 .byte   PEND 
@  #11 @011   ----------------------------------------
Label_015DF65C:
 .byte   W12
 .byte   N12 ,An1 ,v120
 .byte   W24
 .byte   N36 ,Bn1
 .byte   W36
 .byte   N12
 .byte   W24
 .byte   PEND 
@  #11 @012   ----------------------------------------
Label_015DF667:
 .byte   N12 ,Fs1 ,v120
 .byte   W12
 .byte   N24 ,Bn1
 .byte   W24
 .byte   N12
 .byte   W24
 .byte   N36 ,Cs2
 .byte   W36
 .byte   PEND 
@  #11 @013   ----------------------------------------
Label_015DF674:
 .byte   N12 ,Cs2 ,v120
 .byte   W24
 .byte   N06 ,Gs1
 .byte   W06
 .byte   N06
 .byte   W06
 .byte   N12 ,Cs2
 .byte   W24
 .byte   N12
 .byte   W24
 .byte   N12
 .byte   W12
 .byte   PEND 
@  #11 @014   ----------------------------------------
Label_015DF685:
 .byte   W24
 .byte   N12 ,Cs2 ,v120
 .byte   W36
 .byte   N12
 .byte   W24
 .byte   Bn1
 .byte   W12
 .byte   PEND 
@  #11 @015   ----------------------------------------
 .byte   PATT
  .word Label_015DF64A
@  #11 @016   ----------------------------------------
 .byte   PATT
  .word Label_015DF65C
@  #11 @017   ----------------------------------------
 .byte   PATT
  .word Label_015DF667
@  #11 @018   ----------------------------------------
 .byte   PATT
  .word Label_015DF674
@  #11 @019   ----------------------------------------
Label_015DF6A3:
 .byte   W24
 .byte   N12 ,Cs2 ,v120
 .byte   W36
 .byte   N24 ,Gs1
 .byte   W24
 .byte   N12 ,Cs2
 .byte   W12
 .byte   PEND 
@  #11 @020   ----------------------------------------
Label_015DF6AF:
 .byte   N04 ,Cs2 ,v127
 .byte   W04
 .byte   Gs1 ,v112
 .byte   W04
 .byte   Gs1 ,v120
 .byte   W04
 .byte   N12 ,Cs2
 .byte   W36
 .byte   N12
 .byte   W36
 .byte   Gs1
 .byte   W12
 .byte   PEND 
@  #11 @021   ----------------------------------------
 .byte   PATT
  .word Label_015DF5EF
@  #11 @022   ----------------------------------------
 .byte   PATT
  .word Label_015DF5FA
@  #11 @023   ----------------------------------------
 .byte   PATT
  .word Label_015DF607
@  #11 @024   ----------------------------------------
 .byte   PATT
  .word Label_015DF618
@  #11 @025   ----------------------------------------
 .byte   PATT
  .word Label_015DF624
@  #11 @026   ----------------------------------------
 .byte   PATT
  .word Label_015DF5EF
@  #11 @027   ----------------------------------------
 .byte   PATT
  .word Label_015DF5FA
@  #11 @028   ----------------------------------------
 .byte   PATT
  .word Label_015DF607
@  #11 @029   ----------------------------------------
 .byte   PATT
  .word Label_015DF618
@  #11 @030   ----------------------------------------
 .byte   PATT
  .word Label_015DF64A
@  #11 @031   ----------------------------------------
 .byte   PATT
  .word Label_015DF65C
@  #11 @032   ----------------------------------------
 .byte   PATT
  .word Label_015DF667
@  #11 @033   ----------------------------------------
 .byte   PATT
  .word Label_015DF674
@  #11 @034   ----------------------------------------
 .byte   PATT
  .word Label_015DF685
@  #11 @035   ----------------------------------------
 .byte   PATT
  .word Label_015DF64A
@  #11 @036   ----------------------------------------
 .byte   PATT
  .word Label_015DF65C
@  #11 @037   ----------------------------------------
 .byte   PATT
  .word Label_015DF667
@  #11 @038   ----------------------------------------
 .byte   PATT
  .word Label_015DF674
@  #11 @039   ----------------------------------------
 .byte   PATT
  .word Label_015DF6A3
@  #11 @040   ----------------------------------------
 .byte   PATT
  .word Label_015DF6AF
@  #11 @041   ----------------------------------------
Label_015DF725:
 .byte   W12
 .byte   N12 ,Cs2 ,v120
 .byte   W24
 .byte   N36 ,An1
 .byte   W36
 .byte   N12
 .byte   W24
 .byte   PEND 
@  #11 @042   ----------------------------------------
Label_015DF730:
 .byte   N12 ,En1 ,v120
 .byte   W12
 .byte   N24 ,An1
 .byte   W24
 .byte   N12
 .byte   W24
 .byte   N36 ,Fs1
 .byte   W36
 .byte   PEND 
@  #11 @043   ----------------------------------------
Label_015DF73D:
 .byte   N12 ,Fs1 ,v120
 .byte   W36
 .byte   N24 ,Cs2
 .byte   W24
 .byte   Fs1
 .byte   W24
 .byte   N12 ,Gs1
 .byte   W12
 .byte   PEND 
@  #11 @044   ----------------------------------------
Label_015DF74A:
 .byte   W24
 .byte   N12 ,Gs1 ,v120
 .byte   W24
 .byte   Ds1
 .byte   W12
 .byte   N24 ,Gs1
 .byte   W24
 .byte   N12
 .byte   W12
 .byte   PEND 
@  #11 @045   ----------------------------------------
Label_015DF757:
 .byte   W12
 .byte   N12 ,Cs2 ,v120
 .byte   W36
 .byte   N12
 .byte   W36
 .byte   Gs1
 .byte   W12
 .byte   PEND 
@  #11 @046   ----------------------------------------
 .byte   PATT
  .word Label_015DF725
@  #11 @047   ----------------------------------------
 .byte   PATT
  .word Label_015DF730
@  #11 @048   ----------------------------------------
 .byte   PATT
  .word Label_015DF73D
@  #11 @049   ----------------------------------------
 .byte   PATT
  .word Label_015DF74A
@  #11 @050   ----------------------------------------
Label_015DF775:
 .byte   W12
 .byte   N12 ,An1 ,v120
 .byte   W36
 .byte   N12
 .byte   W36
 .byte   En1
 .byte   W12
 .byte   PEND 
@  #11 @051   ----------------------------------------
 .byte   W12
 .byte   N24 ,An1
 .byte   W24
 .byte   N36 ,Dn2
 .byte   W36
 .byte   N12
 .byte   W24
@  #11 @052   ----------------------------------------
 .byte   An1
 .byte   W12
 .byte   N24 ,Dn2
 .byte   W24
 .byte   N12
 .byte   W24
 .byte   N36 ,An1
 .byte   W36
@  #11 @053   ----------------------------------------
 .byte   N12
 .byte   W36
 .byte   N24 ,En1
 .byte   W24
 .byte   An1
 .byte   W24
 .byte   N12 ,Dn2
 .byte   W12
@  #11 @054   ----------------------------------------
 .byte   W24
 .byte   N12
 .byte   W24
 .byte   An1
 .byte   W12
 .byte   N24 ,Dn2
 .byte   W24
 .byte   N12
 .byte   W12
@  #11 @055   ----------------------------------------
 .byte   PATT
  .word Label_015DF757
@  #11 @056   ----------------------------------------
 .byte   PATT
  .word Label_015DF725
@  #11 @057   ----------------------------------------
 .byte   PATT
  .word Label_015DF730
@  #11 @058   ----------------------------------------
 .byte   PATT
  .word Label_015DF73D
@  #11 @059   ----------------------------------------
 .byte   PATT
  .word Label_015DF74A
@  #11 @060   ----------------------------------------
 .byte   PATT
  .word Label_015DF757
@  #11 @061   ----------------------------------------
 .byte   PATT
  .word Label_015DF725
@  #11 @062   ----------------------------------------
 .byte   PATT
  .word Label_015DF730
@  #11 @063   ----------------------------------------
 .byte   PATT
  .word Label_015DF73D
@  #11 @064   ----------------------------------------
 .byte   PATT
  .word Label_015DF74A
@  #11 @065   ----------------------------------------
 .byte   PATT
  .word Label_015DF775
@  #11 @066   ----------------------------------------
 .byte   PATT
  .word Label_015DF65C
@  #11 @067   ----------------------------------------
 .byte   PATT
  .word Label_015DF667
@  #11 @068   ----------------------------------------
 .byte   N12 ,Cs2 ,v120
 .byte   W36
 .byte   N24 ,Gs1
 .byte   W24
 .byte   Cs2
 .byte   W24
 .byte   N12
 .byte   W12
@  #11 @069   ----------------------------------------
 .byte   W24
 .byte   N12
 .byte   W24
 .byte   Gs1
 .byte   W12
 .byte   N24 ,Cs2
 .byte   W24
 .byte   N12
 .byte   W12
@  #11 @070   ----------------------------------------
 .byte   W12
 .byte   GOTO
  .word Label_015DF5D6
@  #11 @071   ----------------------------------------
 .byte   VOICE , 47
 .byte   W84
 .byte   FINE

@**************** Track 12 (Midi-Chn.11) ****************@

song03C1_012:
@  #12 @000   ----------------------------------------
 .byte   KEYSH , song03C1_key+0
Label_015DF81A:
 .byte   VOICE , 53
 .byte   PAN , c_v+40
 .byte   VOL , 11*song03C1_mvl/mxv
 .byte   BEND , c_v+1
 .byte   W96
@  #12 @001   ----------------------------------------
 .byte   W96
@  #12 @002   ----------------------------------------
 .byte   W96
@  #12 @003   ----------------------------------------
 .byte   W96
@  #12 @004   ----------------------------------------
 .byte   W96
@  #12 @005   ----------------------------------------
 .byte   W96
@  #12 @006   ----------------------------------------
 .byte   W96
@  #12 @007   ----------------------------------------
 .byte   W96
@  #12 @008   ----------------------------------------
 .byte   W96
@  #12 @009   ----------------------------------------
 .byte   W92
 .byte   W01
 .byte   N04 ,En3 ,v127
 .byte   W03
@  #12 @010   ----------------------------------------
 .byte   W01
 .byte   Fs3 ,v112
 .byte   W04
 .byte   Gs3
 .byte   W04
 .byte   An3 ,v116
 .byte   W04
 .byte   Bn3 ,v120
 .byte   W04
 .byte   Cs4 ,v127
 .byte   W04
 .byte   N36 ,Ds4 ,v112
 .byte   W36
 .byte   N42 ,Gs3
 .byte   W36
 .byte   W03
@  #12 @011   ----------------------------------------
 .byte   W09
 .byte   N24 ,Ds4
 .byte   W24
 .byte   N12 ,En4
 .byte   W12
 .byte   Fs4
 .byte   W12
 .byte   En4
 .byte   W12
 .byte   N48 ,Ds4
 .byte   W24
 .byte   W03
@  #12 @012   ----------------------------------------
 .byte   W32
 .byte   W01
 .byte   N24
 .byte   W24
 .byte   N12 ,En4
 .byte   W12
 .byte   N36 ,Ds4
 .byte   W24
 .byte   W03
@  #12 @013   ----------------------------------------
 .byte   W09
 .byte   N60 ,Cs4
 .byte   W60
 .byte   N24 ,Gs4
 .byte   W24
 .byte   N36 ,Fs4
 .byte   W03
@  #12 @014   ----------------------------------------
 .byte   W32
 .byte   W01
 .byte   N54 ,En4
 .byte   W60
 .byte   N24 ,Gs3 ,v108
 .byte   N12 ,Ds4 ,v112
 .byte   W03
@  #12 @015   ----------------------------------------
 .byte   W09
 .byte   En4
 .byte   W12
 .byte   N36 ,Gs3 ,v108
 .byte   N36 ,Ds4 ,v112
 .byte   W36
 .byte   N42 ,Cs3 ,v108
 .byte   N42 ,Gs3 ,v112
 .byte   W36
 .byte   W03
@  #12 @016   ----------------------------------------
 .byte   W09
 .byte   N24 ,Gs3 ,v108
 .byte   N24 ,Ds4 ,v112
 .byte   W24
 .byte   N12 ,Gs3 ,v108
 .byte   N12 ,En4 ,v112
 .byte   W12
 .byte   Ds4 ,v108
 .byte   N12 ,Fs4 ,v112
 .byte   W12
 .byte   Gs3 ,v108
 .byte   N12 ,En4 ,v112
 .byte   W12
 .byte   N48 ,Gs3 ,v108
 .byte   N48 ,Ds4 ,v112
 .byte   W24
 .byte   W03
@  #12 @017   ----------------------------------------
 .byte   W32
 .byte   W01
 .byte   N24 ,Gs3 ,v108
 .byte   N24 ,Ds4 ,v112
 .byte   W24
 .byte   N12 ,Gs3 ,v108
 .byte   N12 ,En4 ,v112
 .byte   W12
 .byte   N36 ,Gs3 ,v108
 .byte   N36 ,Ds4 ,v112
 .byte   W24
 .byte   W03
@  #12 @018   ----------------------------------------
 .byte   W09
 .byte   N24 ,Gs3 ,v108
 .byte   N24 ,Cs4 ,v112
 .byte   W24
 .byte   N12 ,Gs3 ,v108
 .byte   N12 ,Ds4 ,v112
 .byte   W12
 .byte   N96 ,Cs4 ,v108
 .byte   N96 ,En4 ,v112
 .byte   W48
 .byte   W03
@  #12 @019   ----------------------------------------
 .byte   W44
 .byte   W01
 .byte   N36 ,Cs4 ,v108
 .byte   N36 ,En4 ,v112
 .byte   W36
 .byte   N15 ,Cs4 ,v076
 .byte   W15
@  #12 @020   ----------------------------------------
 .byte   W96
@  #12 @021   ----------------------------------------
 .byte   W96
@  #12 @022   ----------------------------------------
 .byte   W96
@  #12 @023   ----------------------------------------
 .byte   W96
@  #12 @024   ----------------------------------------
 .byte   W96
@  #12 @025   ----------------------------------------
 .byte   W96
@  #12 @026   ----------------------------------------
 .byte   W96
@  #12 @027   ----------------------------------------
 .byte   W96
@  #12 @028   ----------------------------------------
 .byte   W96
@  #12 @029   ----------------------------------------
 .byte   W92
 .byte   W01
 .byte   N03 ,En3 ,v127
 .byte   W03
@  #12 @030   ----------------------------------------
 .byte   W01
 .byte   N04 ,Fs3 ,v116
 .byte   W04
 .byte   Gs3
 .byte   W04
 .byte   An3 ,v120
 .byte   W04
 .byte   Bn3 ,v127
 .byte   W04
 .byte   Cs4
 .byte   W04
 .byte   N12 ,Ds4
 .byte   W24
 .byte   N36
 .byte   W36
 .byte   N09 ,En4
 .byte   W12
 .byte   N12 ,Ds4
 .byte   W03
@  #12 @031   ----------------------------------------
Label_015DF912:
 .byte   W09
 .byte   N09 ,Cs4 ,v127
 .byte   W12
 .byte   N12 ,Ds4
 .byte   W12
 .byte   En4
 .byte   W12
 .byte   N24 ,Fs4
 .byte   W24
 .byte   N36 ,Ds4
 .byte   W24
 .byte   W03
 .byte   PEND 
@  #12 @032   ----------------------------------------
 .byte   W09
 .byte   N09 ,En4
 .byte   W12
 .byte   N12 ,Ds4
 .byte   W12
 .byte   N09 ,Cs4
 .byte   W12
 .byte   N12 ,Ds4
 .byte   W12
 .byte   En4
 .byte   W12
 .byte   N54 ,Ds4
 .byte   W24
 .byte   W03
@  #12 @033   ----------------------------------------
 .byte   W32
 .byte   W01
 .byte   N06 ,En4
 .byte   W06
 .byte   Fs4
 .byte   W06
 .byte   N12 ,Gs4
 .byte   W12
 .byte   N06 ,Fs4
 .byte   W06
 .byte   En4
 .byte   W06
 .byte   N24 ,Ds4
 .byte   W24
 .byte   N12 ,Cs4
 .byte   W03
@  #12 @034   ----------------------------------------
 .byte   W15
 .byte   N06 ,Gs4
 .byte   W06
 .byte   N84
 .byte   W72
 .byte   W03
@  #12 @035   ----------------------------------------
 .byte   W21
 .byte   N12 ,Ds4
 .byte   W24
 .byte   N36
 .byte   W36
 .byte   N09 ,En4
 .byte   W12
 .byte   N24 ,Ds4
 .byte   W03
@  #12 @036   ----------------------------------------
 .byte   PATT
  .word Label_015DF912
@  #12 @037   ----------------------------------------
 .byte   W09
 .byte   N09 ,En4 ,v127
 .byte   W12
 .byte   N12 ,Ds4
 .byte   W12
 .byte   N09 ,Cs4
 .byte   W12
 .byte   N12 ,Ds4
 .byte   W12
 .byte   En4
 .byte   W12
 .byte   N24 ,Ds4
 .byte   W24
 .byte   N03
 .byte   W03
@  #12 @038   ----------------------------------------
 .byte   W32
 .byte   W01
 .byte   N06 ,En4
 .byte   W06
 .byte   Ds4
 .byte   W06
 .byte   N12 ,Cs4
 .byte   W12
 .byte   N06 ,Ds4
 .byte   W06
 .byte   En4
 .byte   W06
 .byte   N12 ,Fs4
 .byte   W12
 .byte   N06 ,Gs4
 .byte   W12
 .byte   N12 ,Ds4
 .byte   W03
@  #12 @039   ----------------------------------------
 .byte   W15
 .byte   N06 ,Cs4
 .byte   W06
 .byte   N84 ,Gs3
 .byte   W72
 .byte   W03
@  #12 @040   ----------------------------------------
 .byte   W96
@  #12 @041   ----------------------------------------
 .byte   W96
@  #12 @042   ----------------------------------------
 .byte   W96
@  #12 @043   ----------------------------------------
 .byte   W96
@  #12 @044   ----------------------------------------
 .byte   W96
@  #12 @045   ----------------------------------------
 .byte   W96
@  #12 @046   ----------------------------------------
 .byte   W96
@  #12 @047   ----------------------------------------
 .byte   W96
@  #12 @048   ----------------------------------------
 .byte   W96
@  #12 @049   ----------------------------------------
 .byte   W92
 .byte   W01
 .byte   N04 ,Ds3 ,v116
 .byte   W03
@  #12 @050   ----------------------------------------
 .byte   W01
 .byte   En3
 .byte   W04
 .byte   Fs3
 .byte   W04
 .byte   Gs3 ,v120
 .byte   W04
 .byte   An3
 .byte   W04
 .byte   Bn3
 .byte   W04
 .byte   N36 ,Cs4
 .byte   W36
 .byte   N84 ,Gs4
 .byte   W36
 .byte   W03
@  #12 @051   ----------------------------------------
 .byte   W44
 .byte   W01
 .byte   N36 ,Fs4
 .byte   W36
 .byte   N84 ,Cs5
 .byte   W15
@  #12 @052   ----------------------------------------
 .byte   W68
 .byte   W01
 .byte   N36 ,An3
 .byte   N36 ,Cs4
 .byte   W24
 .byte   W03
@  #12 @053   ----------------------------------------
 .byte   W09
 .byte   N84
 .byte   N84 ,Gs4
 .byte   W84
 .byte   N36 ,Cs4
 .byte   N36 ,Fs4
 .byte   W03
@  #12 @054   ----------------------------------------
 .byte   W32
 .byte   W01
 .byte   N36
 .byte   N36 ,Cs5
 .byte   W36
 .byte   N48 ,Fs4
 .byte   N48 ,Bn4
 .byte   W24
 .byte   W03
@  #12 @055   ----------------------------------------
 .byte   W96
@  #12 @056   ----------------------------------------
 .byte   W96
@  #12 @057   ----------------------------------------
 .byte   W96
@  #12 @058   ----------------------------------------
 .byte   W96
@  #12 @059   ----------------------------------------
 .byte   W96
@  #12 @060   ----------------------------------------
 .byte   W96
@  #12 @061   ----------------------------------------
 .byte   W96
@  #12 @062   ----------------------------------------
 .byte   W96
@  #12 @063   ----------------------------------------
 .byte   W96
@  #12 @064   ----------------------------------------
 .byte   W96
@  #12 @065   ----------------------------------------
 .byte   W96
@  #12 @066   ----------------------------------------
 .byte   W96
@  #12 @067   ----------------------------------------
 .byte   W96
@  #12 @068   ----------------------------------------
 .byte   W96
@  #12 @069   ----------------------------------------
 .byte   W96
@  #12 @070   ----------------------------------------
 .byte   W12
 .byte   GOTO
  .word Label_015DF81A
@  #12 @071   ----------------------------------------
 .byte   BEND , c_v+1
 .byte   W84
 .byte   FINE

@**************** Track 13 (Midi-Chn.12) ****************@

song03C1_013:
@  #13 @000   ----------------------------------------
 .byte   KEYSH , song03C1_key+0
Label_015DFA0E:
 .byte   VOICE , 124
 .byte   PAN , c_v-20
 .byte   VOL , 29*song03C1_mvl/mxv
 .byte   W12
 .byte   N12 ,Dn1 ,v112
 .byte   W12
 .byte   N06 ,Dn1 ,v080
 .byte   W06
 .byte   Dn1 ,v092
 .byte   W06
 .byte   N12 ,Dn1 ,v100
 .byte   W12
 .byte   Dn1 ,v112
 .byte   W12
 .byte   N06 ,Dn1 ,v080
 .byte   W06
 .byte   Dn1 ,v092
 .byte   W06
 .byte   N12 ,Dn1 ,v100
 .byte   W12
 .byte   Dn1 ,v112
 .byte   W12
@  #13 @001   ----------------------------------------
Label_015DFA35:
 .byte   N06 ,Dn1 ,v092
 .byte   W06
 .byte   Dn1 ,v100
 .byte   W06
 .byte   Dn1 ,v112
 .byte   W06
 .byte   N03 ,Dn1 ,v080
 .byte   W03
 .byte   N03
 .byte   W03
 .byte   N06 ,Dn1 ,v092
 .byte   W06
 .byte   Dn1 ,v100
 .byte   W06
 .byte   N12 ,Dn1 ,v112
 .byte   W12
 .byte   N06 ,Dn1 ,v080
 .byte   W06
 .byte   Dn1 ,v092
 .byte   W06
 .byte   N12 ,Dn1 ,v100
 .byte   W12
 .byte   Dn1 ,v112
 .byte   W12
 .byte   N06 ,Dn1 ,v080
 .byte   W06
 .byte   Dn1 ,v092
 .byte   W06
 .byte   PEND 
@  #13 @002   ----------------------------------------
Label_015DFA66:
 .byte   N12 ,Dn1 ,v100
 .byte   W12
 .byte   Dn1 ,v112
 .byte   W12
 .byte   N06 ,Dn1 ,v092
 .byte   W06
 .byte   Dn1 ,v096
 .byte   W06
 .byte   Dn1 ,v100
 .byte   W06
 .byte   N03
 .byte   W03
 .byte   N03
 .byte   W03
 .byte   N06 ,Dn1 ,v108
 .byte   W06
 .byte   Dn1 ,v112
 .byte   W06
 .byte   N12
 .byte   W12
 .byte   N06 ,Dn1 ,v080
 .byte   W06
 .byte   Dn1 ,v092
 .byte   W06
 .byte   N12 ,Dn1 ,v100
 .byte   W12
 .byte   PEND 
@  #13 @003   ----------------------------------------
Label_015DFA90:
 .byte   N12 ,Dn1 ,v112
 .byte   W12
 .byte   N06 ,Dn1 ,v080
 .byte   W06
 .byte   Dn1 ,v092
 .byte   W06
 .byte   N12 ,Dn1 ,v100
 .byte   W12
 .byte   Dn1 ,v112
 .byte   W12
 .byte   N06 ,Dn1 ,v092
 .byte   W06
 .byte   Dn1 ,v100
 .byte   W06
 .byte   Dn1 ,v112
 .byte   W06
 .byte   N03 ,Dn1 ,v080
 .byte   W03
 .byte   N03
 .byte   W03
 .byte   N06 ,Dn1 ,v092
 .byte   W06
 .byte   Dn1 ,v100
 .byte   W06
 .byte   N12 ,Dn1 ,v112
 .byte   W12
 .byte   PEND 
@  #13 @004   ----------------------------------------
Label_015DFABE:
 .byte   N06 ,Dn1 ,v080
 .byte   W06
 .byte   Dn1 ,v092
 .byte   W06
 .byte   N12 ,Dn1 ,v100
 .byte   W12
 .byte   Dn1 ,v112
 .byte   W12
 .byte   N06 ,Dn1 ,v080
 .byte   W06
 .byte   Dn1 ,v092
 .byte   W06
 .byte   N12 ,Dn1 ,v100
 .byte   W12
 .byte   Dn1 ,v112
 .byte   W12
 .byte   N06 ,Dn1 ,v092
 .byte   W06
 .byte   Dn1 ,v096
 .byte   W06
 .byte   Dn1 ,v100
 .byte   W06
 .byte   N03
 .byte   W03
 .byte   N03
 .byte   W03
 .byte   PEND 
@  #13 @005   ----------------------------------------
Label_015DFAE9:
 .byte   N06 ,Dn1 ,v108
 .byte   W06
 .byte   Dn1 ,v112
 .byte   W06
 .byte   N12
 .byte   W12
 .byte   N06 ,Dn1 ,v080
 .byte   W06
 .byte   Dn1 ,v092
 .byte   W06
 .byte   N12 ,Dn1 ,v100
 .byte   W12
 .byte   Dn1 ,v112
 .byte   W12
 .byte   N06 ,Dn1 ,v080
 .byte   W06
 .byte   Dn1 ,v092
 .byte   W06
 .byte   N12 ,Dn1 ,v100
 .byte   W12
 .byte   Dn1 ,v112
 .byte   W12
 .byte   PEND 
@  #13 @006   ----------------------------------------
 .byte   PATT
  .word Label_015DFA35
@  #13 @007   ----------------------------------------
 .byte   PATT
  .word Label_015DFA66
@  #13 @008   ----------------------------------------
Label_015DFB19:
 .byte   N12 ,Dn1 ,v112
 .byte   W12
 .byte   N06 ,Dn1 ,v080
 .byte   W06
 .byte   Dn1 ,v092
 .byte   W06
 .byte   N12 ,Dn1 ,v100
 .byte   W12
 .byte   Dn1 ,v112
 .byte   W12
 .byte   N06 ,Dn1 ,v092
 .byte   W06
 .byte   Dn1 ,v100
 .byte   W06
 .byte   Dn1 ,v112
 .byte   N96 ,En2 ,v127
 .byte   W06
 .byte   N03 ,Dn1 ,v080
 .byte   W03
 .byte   N03
 .byte   W03
 .byte   N06 ,Dn1 ,v092
 .byte   W06
 .byte   Dn1 ,v100
 .byte   W06
 .byte   N12 ,Dn1 ,v112
 .byte   W12
 .byte   PEND 
@  #13 @009   ----------------------------------------
Label_015DFB4A:
 .byte   N06 ,Dn1 ,v080
 .byte   W06
 .byte   Dn1 ,v092
 .byte   W06
 .byte   N12 ,Dn1 ,v100
 .byte   W12
 .byte   Dn1 ,v112
 .byte   W12
 .byte   N06 ,Dn1 ,v080
 .byte   W06
 .byte   Dn1 ,v092
 .byte   W06
 .byte   N12 ,Dn1 ,v100
 .byte   W12
 .byte   Dn1 ,v112
 .byte   N96 ,En2 ,v127
 .byte   W12
 .byte   N06 ,Dn1 ,v092
 .byte   W06
 .byte   Dn1 ,v096
 .byte   W06
 .byte   Dn1 ,v100
 .byte   W06
 .byte   N03
 .byte   W03
 .byte   N03
 .byte   W03
 .byte   PEND 
@  #13 @010   ----------------------------------------
Label_015DFB78:
 .byte   N06 ,Dn1 ,v108
 .byte   W06
 .byte   Dn1 ,v112
 .byte   W06
 .byte   N12
 .byte   N72 ,Cs2 ,v127
 .byte   W12
 .byte   N06 ,Dn1 ,v080
 .byte   W06
 .byte   Dn1 ,v092
 .byte   W06
 .byte   N12 ,Dn1 ,v100
 .byte   W12
 .byte   Dn1 ,v112
 .byte   W12
 .byte   N06 ,Dn1 ,v080
 .byte   N24 ,En2 ,v127
 .byte   W06
 .byte   N06 ,Dn1 ,v092
 .byte   W06
 .byte   N12 ,Dn1 ,v100
 .byte   W12
 .byte   Dn1 ,v112
 .byte   N12 ,En2 ,v100
 .byte   W12
 .byte   PEND 
@  #13 @011   ----------------------------------------
Label_015DFBA8:
 .byte   N06 ,Dn1 ,v092
 .byte   W06
 .byte   Dn1 ,v100
 .byte   W06
 .byte   Dn1 ,v112
 .byte   W06
 .byte   N03 ,Dn1 ,v080
 .byte   W03
 .byte   N03
 .byte   W03
 .byte   N06 ,Dn1 ,v092
 .byte   W06
 .byte   Dn1 ,v100
 .byte   W06
 .byte   N12 ,Dn1 ,v112
 .byte   N12 ,Cs2 ,v100
 .byte   W12
 .byte   N06 ,Dn1 ,v080
 .byte   W06
 .byte   Dn1 ,v092
 .byte   W06
 .byte   N12 ,Dn1 ,v100
 .byte   W12
 .byte   Dn1 ,v112
 .byte   W12
 .byte   N06 ,Dn1 ,v080
 .byte   W06
 .byte   Dn1 ,v092
 .byte   W06
 .byte   PEND 
@  #13 @012   ----------------------------------------
 .byte   PATT
  .word Label_015DFA66
@  #13 @013   ----------------------------------------
 .byte   PATT
  .word Label_015DFA90
@  #13 @014   ----------------------------------------
 .byte   PATT
  .word Label_015DFABE
@  #13 @015   ----------------------------------------
 .byte   N06 ,Dn1 ,v108
 .byte   W06
 .byte   Dn1 ,v112
 .byte   W06
 .byte   N12
 .byte   N96 ,Cs2 ,v127
 .byte   W12
 .byte   N06 ,Dn1 ,v080
 .byte   W06
 .byte   Dn1 ,v092
 .byte   W06
 .byte   N12 ,Dn1 ,v100
 .byte   W12
 .byte   Dn1 ,v112
 .byte   W12
 .byte   N06 ,Dn1 ,v080
 .byte   W06
 .byte   Dn1 ,v092
 .byte   W06
 .byte   N12 ,Dn1 ,v100
 .byte   W12
 .byte   Dn1 ,v112
 .byte   W12
@  #13 @016   ----------------------------------------
 .byte   N06 ,Dn1 ,v092
 .byte   W06
 .byte   Dn1 ,v100
 .byte   W06
 .byte   Dn1 ,v112
 .byte   N24 ,Cs2 ,v127
 .byte   W06
 .byte   N03 ,Dn1 ,v080
 .byte   W03
 .byte   N03
 .byte   W03
 .byte   N06 ,Dn1 ,v092
 .byte   W06
 .byte   Dn1 ,v100
 .byte   W06
 .byte   N12 ,Dn1 ,v112
 .byte   N12 ,Cs2 ,v100
 .byte   W12
 .byte   N06 ,Dn1 ,v080
 .byte   W06
 .byte   Dn1 ,v092
 .byte   W06
 .byte   N12 ,Dn1 ,v100
 .byte   W12
 .byte   Dn1 ,v112
 .byte   W12
 .byte   N06 ,Dn1 ,v080
 .byte   W06
 .byte   Dn1 ,v092
 .byte   W06
@  #13 @017   ----------------------------------------
 .byte   PATT
  .word Label_015DFA66
@  #13 @018   ----------------------------------------
 .byte   PATT
  .word Label_015DFA90
@  #13 @019   ----------------------------------------
 .byte   PATT
  .word Label_015DFABE
@  #13 @020   ----------------------------------------
 .byte   PATT
  .word Label_015DFAE9
@  #13 @021   ----------------------------------------
 .byte   PATT
  .word Label_015DFA35
@  #13 @022   ----------------------------------------
 .byte   PATT
  .word Label_015DFA66
@  #13 @023   ----------------------------------------
 .byte   PATT
  .word Label_015DFA90
@  #13 @024   ----------------------------------------
 .byte   PATT
  .word Label_015DFABE
@  #13 @025   ----------------------------------------
 .byte   PATT
  .word Label_015DFAE9
@  #13 @026   ----------------------------------------
 .byte   PATT
  .word Label_015DFA35
@  #13 @027   ----------------------------------------
 .byte   PATT
  .word Label_015DFA66
@  #13 @028   ----------------------------------------
 .byte   PATT
  .word Label_015DFB19
@  #13 @029   ----------------------------------------
 .byte   PATT
  .word Label_015DFB4A
@  #13 @030   ----------------------------------------
 .byte   PATT
  .word Label_015DFB78
@  #13 @031   ----------------------------------------
 .byte   PATT
  .word Label_015DFBA8
@  #13 @032   ----------------------------------------
 .byte   PATT
  .word Label_015DFA66
@  #13 @033   ----------------------------------------
 .byte   PATT
  .word Label_015DFA90
@  #13 @034   ----------------------------------------
 .byte   PATT
  .word Label_015DFABE
@  #13 @035   ----------------------------------------
 .byte   PATT
  .word Label_015DFAE9
@  #13 @036   ----------------------------------------
 .byte   PATT
  .word Label_015DFA35
@  #13 @037   ----------------------------------------
 .byte   PATT
  .word Label_015DFA66
@  #13 @038   ----------------------------------------
 .byte   PATT
  .word Label_015DFB19
@  #13 @039   ----------------------------------------
 .byte   PATT
  .word Label_015DFB4A
@  #13 @040   ----------------------------------------
 .byte   PATT
  .word Label_015DFB78
@  #13 @041   ----------------------------------------
 .byte   PATT
  .word Label_015DFBA8
@  #13 @042   ----------------------------------------
 .byte   PATT
  .word Label_015DFA66
@  #13 @043   ----------------------------------------
 .byte   PATT
  .word Label_015DFA90
@  #13 @044   ----------------------------------------
 .byte   PATT
  .word Label_015DFABE
@  #13 @045   ----------------------------------------
 .byte   PATT
  .word Label_015DFAE9
@  #13 @046   ----------------------------------------
 .byte   PATT
  .word Label_015DFA35
@  #13 @047   ----------------------------------------
 .byte   PATT
  .word Label_015DFA66
@  #13 @048   ----------------------------------------
 .byte   PATT
  .word Label_015DFA90
@  #13 @049   ----------------------------------------
 .byte   PATT
  .word Label_015DFABE
@  #13 @050   ----------------------------------------
 .byte   PATT
  .word Label_015DFAE9
@  #13 @051   ----------------------------------------
 .byte   PATT
  .word Label_015DFA35
@  #13 @052   ----------------------------------------
 .byte   PATT
  .word Label_015DFA66
@  #13 @053   ----------------------------------------
 .byte   PATT
  .word Label_015DFB19
@  #13 @054   ----------------------------------------
 .byte   PATT
  .word Label_015DFB4A
@  #13 @055   ----------------------------------------
 .byte   PATT
  .word Label_015DFB78
@  #13 @056   ----------------------------------------
 .byte   PATT
  .word Label_015DFBA8
@  #13 @057   ----------------------------------------
 .byte   PATT
  .word Label_015DFA66
@  #13 @058   ----------------------------------------
 .byte   PATT
  .word Label_015DFA90
@  #13 @059   ----------------------------------------
 .byte   PATT
  .word Label_015DFABE
@  #13 @060   ----------------------------------------
 .byte   PATT
  .word Label_015DFAE9
@  #13 @061   ----------------------------------------
 .byte   PATT
  .word Label_015DFA35
@  #13 @062   ----------------------------------------
 .byte   PATT
  .word Label_015DFA66
@  #13 @063   ----------------------------------------
 .byte   PATT
  .word Label_015DFB19
@  #13 @064   ----------------------------------------
 .byte   PATT
  .word Label_015DFB4A
@  #13 @065   ----------------------------------------
 .byte   PATT
  .word Label_015DFB78
@  #13 @066   ----------------------------------------
 .byte   PATT
  .word Label_015DFBA8
@  #13 @067   ----------------------------------------
 .byte   PATT
  .word Label_015DFA66
@  #13 @068   ----------------------------------------
 .byte   PATT
  .word Label_015DFA90
@  #13 @069   ----------------------------------------
 .byte   PATT
  .word Label_015DFABE
@  #13 @070   ----------------------------------------
 .byte   N06 ,Dn1 ,v108
 .byte   W06
 .byte   Dn1 ,v112
 .byte   W06
 .byte   GOTO
  .word Label_015DFA0E
@  #13 @071   ----------------------------------------
 .byte   W84
 .byte   FINE

@**************** Track 14 (Midi-Chn.13) ****************@

song03C1_014:
@  #14 @000   ----------------------------------------
 .byte   KEYSH , song03C1_key+0
Label_015DFD76:
 .byte   VOICE , 29
 .byte   VOL , 16*song03C1_mvl/mxv
 .byte   PAN , c_v+16
 .byte   W12
 .byte   N12 ,Cs1 ,v120
 .byte   N12 ,Cs2
 .byte   W36
 .byte   Cs1
 .byte   N12 ,Cs2
 .byte   W36
 .byte   Cs1
 .byte   N12 ,Cs2
 .byte   W12
@  #14 @001   ----------------------------------------
Label_015DFD8B:
 .byte   W12
 .byte   N12 ,Cs1 ,v120
 .byte   N12 ,Cs2
 .byte   W24
 .byte   Bn0
 .byte   N12 ,Bn1
 .byte   W36
 .byte   Bn0
 .byte   N12 ,Bn1
 .byte   W24
 .byte   PEND 
@  #14 @002   ----------------------------------------
Label_015DFD9B:
 .byte   W12
 .byte   N12 ,Bn0 ,v120
 .byte   N12 ,Bn1
 .byte   W24
 .byte   Bn0
 .byte   N12 ,Bn1
 .byte   W24
 .byte   An0
 .byte   N12 ,An1
 .byte   W36
 .byte   PEND 
@  #14 @003   ----------------------------------------
Label_015DFDAB:
 .byte   N12 ,An0 ,v120
 .byte   N12 ,An1
 .byte   W36
 .byte   An0
 .byte   N12 ,An1
 .byte   W24
 .byte   An0
 .byte   N12 ,An1
 .byte   W24
 .byte   Bn0
 .byte   N12 ,Bn1
 .byte   W12
 .byte   PEND 
@  #14 @004   ----------------------------------------
Label_015DFDBE:
 .byte   W24
 .byte   N12 ,Bn0 ,v120
 .byte   N12 ,Bn1
 .byte   W36
 .byte   Bn0
 .byte   N12 ,Bn1
 .byte   W24
 .byte   Bn0
 .byte   N12 ,Bn1
 .byte   W12
 .byte   PEND 
@  #14 @005   ----------------------------------------
Label_015DFDCE:
 .byte   W12
 .byte   N12 ,Cs1 ,v120
 .byte   N12 ,Cs2
 .byte   W36
 .byte   Cs1
 .byte   N12 ,Cs2
 .byte   W36
 .byte   Cs1
 .byte   N12 ,Cs2
 .byte   W12
 .byte   PEND 
@  #14 @006   ----------------------------------------
 .byte   PATT
  .word Label_015DFD8B
@  #14 @007   ----------------------------------------
 .byte   PATT
  .word Label_015DFD9B
@  #14 @008   ----------------------------------------
 .byte   PATT
  .word Label_015DFDAB
@  #14 @009   ----------------------------------------
 .byte   PATT
  .word Label_015DFDBE
@  #14 @010   ----------------------------------------
Label_015DFDF2:
 .byte   W12
 .byte   N12 ,An0 ,v120
 .byte   N12 ,An1
 .byte   W36
 .byte   An0
 .byte   N12 ,An1
 .byte   W36
 .byte   An0
 .byte   N12 ,An1
 .byte   W12
 .byte   PEND 
@  #14 @011   ----------------------------------------
Label_015DFE02:
 .byte   W12
 .byte   N12 ,An0 ,v120
 .byte   N12 ,An1
 .byte   W24
 .byte   Bn0
 .byte   N12 ,Bn1
 .byte   W36
 .byte   Bn0
 .byte   N12 ,Bn1
 .byte   W24
 .byte   PEND 
@  #14 @012   ----------------------------------------
Label_015DFE12:
 .byte   W12
 .byte   N12 ,Bn0 ,v120
 .byte   N12 ,Bn1
 .byte   W24
 .byte   Bn0
 .byte   N12 ,Bn1
 .byte   W24
 .byte   Cs1
 .byte   N12 ,Cs2
 .byte   W36
 .byte   PEND 
@  #14 @013   ----------------------------------------
Label_015DFE22:
 .byte   N12 ,Cs1 ,v120
 .byte   N12 ,Cs2
 .byte   W36
 .byte   Cs1
 .byte   N12 ,Cs2
 .byte   W24
 .byte   Cs1
 .byte   N12 ,Cs2
 .byte   W24
 .byte   Cs1
 .byte   N12 ,Cs2
 .byte   W12
 .byte   PEND 
@  #14 @014   ----------------------------------------
 .byte   W24
 .byte   Cs1
 .byte   N12 ,Cs2
 .byte   W36
 .byte   Cs1
 .byte   N12 ,Cs2
 .byte   W24
 .byte   Bn0
 .byte   N12 ,Bn1
 .byte   W12
@  #14 @015   ----------------------------------------
 .byte   PATT
  .word Label_015DFDF2
@  #14 @016   ----------------------------------------
 .byte   PATT
  .word Label_015DFE02
@  #14 @017   ----------------------------------------
 .byte   PATT
  .word Label_015DFE12
@  #14 @018   ----------------------------------------
 .byte   PATT
  .word Label_015DFE22
@  #14 @019   ----------------------------------------
Label_015DFE56:
 .byte   W24
 .byte   N12 ,Cs1 ,v120
 .byte   N12 ,Cs2
 .byte   W36
 .byte   Cs1
 .byte   N12 ,Cs2
 .byte   W24
 .byte   Cs1
 .byte   N12 ,Cs2
 .byte   W12
 .byte   PEND 
@  #14 @020   ----------------------------------------
 .byte   PATT
  .word Label_015DFDCE
@  #14 @021   ----------------------------------------
 .byte   PATT
  .word Label_015DFD8B
@  #14 @022   ----------------------------------------
 .byte   PATT
  .word Label_015DFD9B
@  #14 @023   ----------------------------------------
 .byte   PATT
  .word Label_015DFDAB
@  #14 @024   ----------------------------------------
 .byte   PATT
  .word Label_015DFDBE
@  #14 @025   ----------------------------------------
 .byte   PATT
  .word Label_015DFDCE
@  #14 @026   ----------------------------------------
 .byte   PATT
  .word Label_015DFD8B
@  #14 @027   ----------------------------------------
 .byte   PATT
  .word Label_015DFD9B
@  #14 @028   ----------------------------------------
 .byte   PATT
  .word Label_015DFDAB
@  #14 @029   ----------------------------------------
 .byte   PATT
  .word Label_015DFDBE
@  #14 @030   ----------------------------------------
 .byte   PATT
  .word Label_015DFDF2
@  #14 @031   ----------------------------------------
 .byte   PATT
  .word Label_015DFE02
@  #14 @032   ----------------------------------------
 .byte   PATT
  .word Label_015DFE12
@  #14 @033   ----------------------------------------
 .byte   PATT
  .word Label_015DFE22
@  #14 @034   ----------------------------------------
 .byte   PATT
  .word Label_015DFE56
@  #14 @035   ----------------------------------------
 .byte   PATT
  .word Label_015DFDF2
@  #14 @036   ----------------------------------------
 .byte   PATT
  .word Label_015DFE02
@  #14 @037   ----------------------------------------
 .byte   PATT
  .word Label_015DFE12
@  #14 @038   ----------------------------------------
 .byte   PATT
  .word Label_015DFE22
@  #14 @039   ----------------------------------------
 .byte   PATT
  .word Label_015DFE56
@  #14 @040   ----------------------------------------
 .byte   PATT
  .word Label_015DFDCE
@  #14 @041   ----------------------------------------
Label_015DFECF:
 .byte   W12
 .byte   N12 ,Cs1 ,v120
 .byte   N12 ,Cs2
 .byte   W24
 .byte   An0
 .byte   N12 ,An1
 .byte   W36
 .byte   An0
 .byte   N12 ,An1
 .byte   W24
 .byte   PEND 
@  #14 @042   ----------------------------------------
Label_015DFEDF:
 .byte   W12
 .byte   N12 ,An0 ,v120
 .byte   N12 ,An1
 .byte   W24
 .byte   An0
 .byte   N12 ,An1
 .byte   W24
 .byte   Fs0
 .byte   N12 ,Fs1
 .byte   W36
 .byte   PEND 
@  #14 @043   ----------------------------------------
Label_015DFEEF:
 .byte   N12 ,Fs0 ,v120
 .byte   N12 ,Fs1
 .byte   W36
 .byte   Fs0
 .byte   N12 ,Fs1
 .byte   W24
 .byte   Fs0
 .byte   N12 ,Fs1
 .byte   W24
 .byte   Gs0
 .byte   N12 ,Gs1
 .byte   W12
 .byte   PEND 
@  #14 @044   ----------------------------------------
Label_015DFF02:
 .byte   W24
 .byte   N12 ,Gs0 ,v120
 .byte   N12 ,Gs1
 .byte   W36
 .byte   Gs0
 .byte   N12 ,Gs1
 .byte   W24
 .byte   Gs0
 .byte   N12 ,Gs1
 .byte   W12
 .byte   PEND 
@  #14 @045   ----------------------------------------
 .byte   PATT
  .word Label_015DFDCE
@  #14 @046   ----------------------------------------
 .byte   PATT
  .word Label_015DFECF
@  #14 @047   ----------------------------------------
 .byte   PATT
  .word Label_015DFEDF
@  #14 @048   ----------------------------------------
 .byte   PATT
  .word Label_015DFEEF
@  #14 @049   ----------------------------------------
 .byte   PATT
  .word Label_015DFF02
@  #14 @050   ----------------------------------------
 .byte   PATT
  .word Label_015DFDF2
@  #14 @051   ----------------------------------------
 .byte   W12
 .byte   N12 ,An0 ,v120
 .byte   N12 ,An1
 .byte   W24
 .byte   Dn1
 .byte   N12 ,Dn2
 .byte   W36
 .byte   Dn1
 .byte   N12 ,Dn2
 .byte   W24
@  #14 @052   ----------------------------------------
 .byte   W12
 .byte   Dn1
 .byte   N12 ,Dn2
 .byte   W24
 .byte   Dn1
 .byte   N12 ,Dn2
 .byte   W24
 .byte   An0
 .byte   N12 ,An1
 .byte   W36
@  #14 @053   ----------------------------------------
 .byte   An0
 .byte   N12 ,An1
 .byte   W36
 .byte   An0
 .byte   N12 ,An1
 .byte   W24
 .byte   An0
 .byte   N12 ,An1
 .byte   W24
 .byte   Dn1
 .byte   N12 ,Dn2
 .byte   W12
@  #14 @054   ----------------------------------------
 .byte   W24
 .byte   Dn1
 .byte   N12 ,Dn2
 .byte   W36
 .byte   Dn1
 .byte   N12 ,Dn2
 .byte   W24
 .byte   Dn1
 .byte   N12 ,Dn2
 .byte   W12
@  #14 @055   ----------------------------------------
 .byte   PATT
  .word Label_015DFDCE
@  #14 @056   ----------------------------------------
 .byte   PATT
  .word Label_015DFECF
@  #14 @057   ----------------------------------------
 .byte   PATT
  .word Label_015DFEDF
@  #14 @058   ----------------------------------------
 .byte   PATT
  .word Label_015DFEEF
@  #14 @059   ----------------------------------------
 .byte   PATT
  .word Label_015DFF02
@  #14 @060   ----------------------------------------
 .byte   PATT
  .word Label_015DFDCE
@  #14 @061   ----------------------------------------
 .byte   PATT
  .word Label_015DFECF
@  #14 @062   ----------------------------------------
 .byte   PATT
  .word Label_015DFEDF
@  #14 @063   ----------------------------------------
 .byte   PATT
  .word Label_015DFEEF
@  #14 @064   ----------------------------------------
 .byte   PATT
  .word Label_015DFF02
@  #14 @065   ----------------------------------------
 .byte   PATT
  .word Label_015DFDF2
@  #14 @066   ----------------------------------------
 .byte   PATT
  .word Label_015DFE02
@  #14 @067   ----------------------------------------
 .byte   PATT
  .word Label_015DFE12
@  #14 @068   ----------------------------------------
 .byte   PATT
  .word Label_015DFE22
@  #14 @069   ----------------------------------------
 .byte   PATT
  .word Label_015DFE56
@  #14 @070   ----------------------------------------
 .byte   W12
 .byte   GOTO
  .word Label_015DFD76
@  #14 @071   ----------------------------------------
 .byte   VOL , 16*song03C1_mvl/mxv
 .byte   PAN , c_v+16
 .byte   W84
 .byte   FINE

@******************************************************@
	.align	2

song03C1:
	.byte	14	@ NumTrks
	.byte	0	@ NumBlks
	.byte	song03C1_pri	@ Priority
	.byte	song03C1_rev	@ Reverb.
    
	.word	song03C1_grp
    
	.word	song03C1_001
	.word	song03C1_002
	.word	song03C1_003
	.word	song03C1_004
	.word	song03C1_005
	.word	song03C1_006
	.word	song03C1_007
	.word	song03C1_008
	.word	song03C1_009
	.word	song03C1_010
	.word	song03C1_011
	.word	song03C1_012
	.word	song03C1_013
	.word	song03C1_014

	.end
