//Event file generated from Sappy .s format.
	#include "MPlayDef.event"

	#define	song03DB_grp  voicegroup001
	#define	song03DB_pri  0
	#define	song03DB_rev  0
	#define	song03DB_mvl  127
	#define	song03DB_key  0
	#define	song03DB_tbs  1
	#define	song03DB_exg  0
	#define	song03DB_cmp  1

	// .rodata
	//	song03DB
	ALIGN 4


//**************** Track 1 (Midi-Chn.0) ****************//

song03DB_001:
// 000   ----------------------------------------
 BYTE   KEYSH   song03DB_key+0
Label_0_01470AC2:
 BYTE   TEMPO   122*song03DB_tbs/2
 BYTE   VOICE   48
 BYTE   PAN   c_v+21
 BYTE   VOL   30*song03DB_mvl/mxv
 BYTE   N48  Cn3  v100
 BYTE   W48
 BYTE   N24  Fn3
 BYTE   W24
 BYTE   An3  v104
 BYTE   W24
// 001   ----------------------------------------
Label_0_01470AD4:
 BYTE   N48  An3  v100
 BYTE   W48
 BYTE   Dn3
 BYTE   W48
 BYTE   PEND 
// 002   ----------------------------------------
Label_0_01470ADB:
 BYTE   N60  Dn3  v100
 BYTE   W60
 BYTE   N12  En3
 BYTE   W12
 BYTE   Fn3
 BYTE   W12
 BYTE   Gn3
 BYTE   W12
 BYTE   PEND 
// 003   ----------------------------------------
Label_0_01470AE7:
 BYTE   N48  Fn3  v100
 BYTE   W48
 BYTE   En3
 BYTE   W48
 BYTE   PEND 
// 004   ----------------------------------------
Label_0_01470AEE:
 BYTE   N48  Cn3  v100
 BYTE   W48
 BYTE   N24  Fn3
 BYTE   W24
 BYTE   An3
 BYTE   W24
 BYTE   PEND 
// 005   ----------------------------------------
Label_0_01470AF8:
 BYTE   N48  Cn4  v100
 BYTE   W48
 BYTE   N24  As3
 BYTE   W24
 BYTE   An3
 BYTE   W24
 BYTE   PEND 
// 006   ----------------------------------------
 BYTE   PATT
  POIN2 Label_0_01470ADB
// 007   ----------------------------------------
 BYTE   N72  Gn3  v100
 BYTE   W96
// 008   ----------------------------------------
 BYTE   PATT
  POIN2 Label_0_01470AEE
// 009   ----------------------------------------
 BYTE   PATT
  POIN2 Label_0_01470AD4
// 010   ----------------------------------------
 BYTE   PATT
  POIN2 Label_0_01470ADB
// 011   ----------------------------------------
 BYTE   PATT
  POIN2 Label_0_01470AE7
// 012   ----------------------------------------
 BYTE   PATT
  POIN2 Label_0_01470AEE
// 013   ----------------------------------------
 BYTE   PATT
  POIN2 Label_0_01470AF8
// 014   ----------------------------------------
 BYTE   PATT
  POIN2 Label_0_01470ADB
// 015   ----------------------------------------
 BYTE   N48  Fn3  v100
 BYTE   W96
// 016   ----------------------------------------
 BYTE   Dn3
 BYTE   W48
 BYTE   En3
 BYTE   W48
// 017   ----------------------------------------
 BYTE   N48
 BYTE   W48
 BYTE   Fn3
 BYTE   W48
// 018   ----------------------------------------
 BYTE   N48
 BYTE   W48
 BYTE   N48
 BYTE   W48
// 019   ----------------------------------------
 BYTE   N72
 BYTE   W96
// 020   ----------------------------------------
 BYTE   N24  Dn3
 BYTE   W24
 BYTE   N36  As3
 BYTE   W36
 BYTE   N12  Gn3
 BYTE   W12
 BYTE   Fn3
 BYTE   W12
 BYTE   En3
 BYTE   W12
// 021   ----------------------------------------
 BYTE   N36  Cn4
 BYTE   W36
 BYTE   N12  An3
 BYTE   W12
 BYTE   N18  Fn4
 BYTE   W24
 BYTE   N12
 BYTE   W12
 BYTE   En4
 BYTE   W12
// 022   ----------------------------------------
 BYTE   N24  Dn4
 BYTE   W24
 BYTE   N36
 BYTE   W36
 BYTE   N12  En4
 BYTE   W12
 BYTE   Fn4
 BYTE   W12
 BYTE   Gn4
 BYTE   W12
// 023   ----------------------------------------
 BYTE   N48  Fn4
 BYTE   W48
 BYTE   En4
 BYTE   W48
// 024   ----------------------------------------
 BYTE   W96
// 025   ----------------------------------------
Label_0_01470B6C:
 BYTE   W72
 BYTE   N12  Fn3  v100
 BYTE   W12
 BYTE   En3
 BYTE   W12
 BYTE   PEND 
// 026   ----------------------------------------
 BYTE   N96  Dn3
 BYTE   W96
// 027   ----------------------------------------
Label_0_01470B77:
 BYTE   N24  Fn3  v100
 BYTE   W24
 BYTE   Cn3
 BYTE   W24
 BYTE   Gn3
 BYTE   W24
 BYTE   Cn4
 BYTE   W24
 BYTE   PEND 
// 028   ----------------------------------------
 BYTE   N96  An3
 BYTE   W96
// 029   ----------------------------------------
Label_0_01470B85:
 BYTE   N72  As3  v100
 BYTE   W72
 BYTE   N24  An3
 BYTE   W24
 BYTE   PEND 
// 030   ----------------------------------------
Label_0_01470B8D:
 BYTE   N48  Gn3  v100
 BYTE   W60
 BYTE   N12  An3
 BYTE   W12
 BYTE   As3
 BYTE   W12
 BYTE   En3
 BYTE   W12
 BYTE   PEND 
// 031   ----------------------------------------
 BYTE   N72  Fn3
 BYTE   W96
// 032   ----------------------------------------
 BYTE   N48  An2
 BYTE   W48
 BYTE   Cn3
 BYTE   W48
// 033   ----------------------------------------
 BYTE   Fn3
 BYTE   W48
 BYTE   Ds3
 BYTE   W48
// 034   ----------------------------------------
 BYTE   N96  Fn3
 BYTE   W96
// 035   ----------------------------------------
 BYTE   Ds3
 BYTE   W96
// 036   ----------------------------------------
 BYTE   Fn3
 BYTE   W96
// 037   ----------------------------------------
 BYTE   Cn3
 BYTE   W96
// 038   ----------------------------------------
 BYTE   N24  An2
 BYTE   W24
 BYTE   Fn3
 BYTE   W24
 BYTE   En3
 BYTE   W24
 BYTE   As2
 BYTE   W24
// 039   ----------------------------------------
 BYTE   N96  Cn3
 BYTE   W96
// 040   ----------------------------------------
 BYTE   W96
// 041   ----------------------------------------
 BYTE   PATT
  POIN2 Label_0_01470B6C
// 042   ----------------------------------------
 BYTE   N96  Dn3  v100
 BYTE   W96
// 043   ----------------------------------------
 BYTE   PATT
  POIN2 Label_0_01470B77
// 044   ----------------------------------------
 BYTE   N96  An3  v100
 BYTE   W96
// 045   ----------------------------------------
 BYTE   PATT
  POIN2 Label_0_01470B85
// 046   ----------------------------------------
 BYTE   PATT
  POIN2 Label_0_01470B8D
// 047   ----------------------------------------
 BYTE   N72  Fn3  v100
 BYTE   W96
// 048   ----------------------------------------
 BYTE   Dn5  v092
 BYTE   W72
 BYTE   N08
 BYTE   W08
 BYTE   N08
 BYTE   W08
 BYTE   Fn5
 BYTE   W08
// 049   ----------------------------------------
 BYTE   N96  En5
 BYTE   W96
// 050   ----------------------------------------
 BYTE   N72
 BYTE   W72
 BYTE   N08
 BYTE   W08
 BYTE   Fn5
 BYTE   W08
 BYTE   Gn5
 BYTE   W08
// 051   ----------------------------------------
 BYTE   N96  Fn5
 BYTE   W96
// 052   ----------------------------------------
 BYTE   N72
 BYTE   W72
 BYTE   N08
 BYTE   W08
 BYTE   Gn5
 BYTE   W08
 BYTE   Fn5
 BYTE   W08
// 053   ----------------------------------------
 BYTE   N48  En5
 BYTE   W48
 BYTE   Cn5
 BYTE   W48
// 054   ----------------------------------------
 BYTE   N12  An4  v100
 BYTE   W24
 BYTE   N08
 BYTE   W08
 BYTE   N08
 BYTE   W08
 BYTE   N08
 BYTE   W08
 BYTE   N12  Bn4
 BYTE   W24
 BYTE   N08
 BYTE   W08
 BYTE   N08
 BYTE   W08
 BYTE   N08
 BYTE   W08
// 055   ----------------------------------------
 BYTE   N12  Cn5
 BYTE   W24
 BYTE   N08
 BYTE   W08
 BYTE   N08
 BYTE   W08
 BYTE   N08
 BYTE   W08
 BYTE   N12  Dn5
 BYTE   W24
 BYTE   N24
 BYTE   W24
// 056   ----------------------------------------
 BYTE   N12  Cn5
 BYTE   W24
 BYTE   N08
 BYTE   W08
 BYTE   N08
 BYTE   W08
 BYTE   N08
 BYTE   W08
 BYTE   N12  Dn5
 BYTE   W24
 BYTE   N08
 BYTE   W08
 BYTE   N08
 BYTE   W08
 BYTE   N08
 BYTE   W08
// 057   ----------------------------------------
 BYTE   N12  En5
 BYTE   W24
 BYTE   N08
 BYTE   W08
 BYTE   N08
 BYTE   W08
 BYTE   N08
 BYTE   W08
 BYTE   N24  Fn5
 BYTE   W24
 BYTE   Bn4
 BYTE   W24
// 058   ----------------------------------------
 BYTE   N96  Cn3
 BYTE   W96
// 059   ----------------------------------------
 BYTE   N72  As2
 BYTE   W72
 BYTE   N24  Dn3
 BYTE   W24
// 060   ----------------------------------------
 BYTE   N96  Cn3
 BYTE   W96
// 061   ----------------------------------------
 BYTE   N48  As2
 BYTE   W48
 BYTE   N24  Dn3
 BYTE   W24
 BYTE   Fn3
 BYTE   W24
// 062   ----------------------------------------
 BYTE   N96  En3
 BYTE   W96
// 063   ----------------------------------------
 BYTE   N24  Cn3
 BYTE   W24
 BYTE   GoTo
  POIN2 Label_0_01470AC2
 BYTE   FINE

//**************** Track 2 (Midi-Chn.1) ****************//

song03DB_002:
// 000   ----------------------------------------
 BYTE   KEYSH   song03DB_key+0
Label_1_014708CE:
 BYTE   VOICE   73
 BYTE   PAN   c_v+37
 BYTE   VOL   33*song03DB_mvl/mxv
 BYTE   W96
// 001   ----------------------------------------
 BYTE   W96
// 002   ----------------------------------------
 BYTE   W96
// 003   ----------------------------------------
 BYTE   W96
// 004   ----------------------------------------
 BYTE   W96
// 005   ----------------------------------------
 BYTE   W96
// 006   ----------------------------------------
 BYTE   W96
// 007   ----------------------------------------
 BYTE   W96
// 008   ----------------------------------------
 BYTE   W96
// 009   ----------------------------------------
 BYTE   W96
// 010   ----------------------------------------
 BYTE   W96
// 011   ----------------------------------------
 BYTE   W96
// 012   ----------------------------------------
 BYTE   W96
// 013   ----------------------------------------
 BYTE   W96
// 014   ----------------------------------------
 BYTE   W96
// 015   ----------------------------------------
 BYTE   W72
 BYTE   N12  Fn4  v100
 BYTE   W12
 BYTE   En4
 BYTE   W12
// 016   ----------------------------------------
Label_1_014708EA:
 BYTE   N24  Dn4  v100
 BYTE   W24
 BYTE   N36  As4
 BYTE   W36
 BYTE   N12  Gn4
 BYTE   W12
 BYTE   Fn4
 BYTE   W12
 BYTE   En4
 BYTE   W12
 BYTE   PEND 
// 017   ----------------------------------------
 BYTE   N36  Cn5
 BYTE   W36
 BYTE   N12  An4
 BYTE   W12
 BYTE   N18  Fn4
 BYTE   W24
 BYTE   N12
 BYTE   W12
 BYTE   En4
 BYTE   W12
// 018   ----------------------------------------
 BYTE   N24  Dn4
 BYTE   W24
 BYTE   N36  Dn5
 BYTE   W36
 BYTE   N12  Cn5
 BYTE   W12
 BYTE   As4
 BYTE   W12
 BYTE   Gn4
 BYTE   W12
// 019   ----------------------------------------
 BYTE   N72  An4
 BYTE   W96
// 020   ----------------------------------------
 BYTE   PATT
  POIN2 Label_1_014708EA
// 021   ----------------------------------------
 BYTE   N36  Cn5  v100
 BYTE   W36
 BYTE   N12  An4
 BYTE   W12
 BYTE   N18  Fn5
 BYTE   W24
 BYTE   N12
 BYTE   W12
 BYTE   En5
 BYTE   W12
// 022   ----------------------------------------
 BYTE   N24  Dn5
 BYTE   W24
 BYTE   N36
 BYTE   W36
 BYTE   N12  En5
 BYTE   W12
 BYTE   Fn5
 BYTE   W12
 BYTE   Gn5
 BYTE   W12
// 023   ----------------------------------------
 BYTE   N48  Fn5
 BYTE   W48
 BYTE   En5
 BYTE   W48
// 024   ----------------------------------------
 BYTE   W96
// 025   ----------------------------------------
 BYTE   W96
// 026   ----------------------------------------
 BYTE   W96
// 027   ----------------------------------------
 BYTE   W96
// 028   ----------------------------------------
 BYTE   W96
// 029   ----------------------------------------
 BYTE   W96
// 030   ----------------------------------------
 BYTE   W96
// 031   ----------------------------------------
 BYTE   W96
// 032   ----------------------------------------
 BYTE   W96
// 033   ----------------------------------------
 BYTE   W96
// 034   ----------------------------------------
 BYTE   W96
// 035   ----------------------------------------
 BYTE   W96
// 036   ----------------------------------------
 BYTE   W96
// 037   ----------------------------------------
 BYTE   W96
// 038   ----------------------------------------
 BYTE   W96
// 039   ----------------------------------------
 BYTE   W96
// 040   ----------------------------------------
 BYTE   W96
// 041   ----------------------------------------
 BYTE   W96
// 042   ----------------------------------------
 BYTE   W96
// 043   ----------------------------------------
 BYTE   W96
// 044   ----------------------------------------
 BYTE   W96
// 045   ----------------------------------------
 BYTE   W96
// 046   ----------------------------------------
 BYTE   W96
// 047   ----------------------------------------
 BYTE   W96
// 048   ----------------------------------------
 BYTE   W96
// 049   ----------------------------------------
 BYTE   W96
// 050   ----------------------------------------
 BYTE   W96
// 051   ----------------------------------------
 BYTE   W96
// 052   ----------------------------------------
 BYTE   W96
// 053   ----------------------------------------
 BYTE   W96
// 054   ----------------------------------------
 BYTE   W96
// 055   ----------------------------------------
 BYTE   W96
// 056   ----------------------------------------
 BYTE   W96
// 057   ----------------------------------------
 BYTE   W96
// 058   ----------------------------------------
 BYTE   W96
// 059   ----------------------------------------
 BYTE   W96
// 060   ----------------------------------------
 BYTE   W96
// 061   ----------------------------------------
 BYTE   W96
// 062   ----------------------------------------
 BYTE   W96
// 063   ----------------------------------------
 BYTE   W24
 BYTE   GoTo
  POIN2 Label_1_014708CE
 BYTE   FINE

//**************** Track 3 (Midi-Chn.2) ****************//

song03DB_003:
// 000   ----------------------------------------
 BYTE   KEYSH   song03DB_key+0
Label_2_0146FE22:
 BYTE   VOICE   56
 BYTE   VOL   33*song03DB_mvl/mxv
 BYTE   W96
// 001   ----------------------------------------
 BYTE   W48
 BYTE   N24  Fn3  v084
 BYTE   W24
 BYTE   En3
 BYTE   W24
// 002   ----------------------------------------
 BYTE   N72  Dn3
 BYTE   W96
// 003   ----------------------------------------
 BYTE   W24
 BYTE   N24  Cn3
 BYTE   W24
 BYTE   Gn3
 BYTE   W24
 BYTE   Cn4
 BYTE   W24
// 004   ----------------------------------------
 BYTE   N72  An3
 BYTE   W96
// 005   ----------------------------------------
 BYTE   N60  As3
 BYTE   W72
 BYTE   N24  An3
 BYTE   W24
// 006   ----------------------------------------
 BYTE   N72  Gn3
 BYTE   W96
// 007   ----------------------------------------
 BYTE   N72
 BYTE   W96
// 008   ----------------------------------------
 BYTE   W96
// 009   ----------------------------------------
 BYTE   W24
 BYTE   N24  Fn3
 BYTE   W24
 BYTE   Gn3
 BYTE   W24
 BYTE   An3
 BYTE   W24
// 010   ----------------------------------------
 BYTE   N72  As3
 BYTE   W96
// 011   ----------------------------------------
 BYTE   W24
 BYTE   N24  Gn3
 BYTE   W24
 BYTE   An3
 BYTE   W24
 BYTE   As3
 BYTE   W24
// 012   ----------------------------------------
 BYTE   N48  Cn4
 BYTE   W48
 BYTE   An3
 BYTE   W48
// 013   ----------------------------------------
 BYTE   Dn4
 BYTE   W48
 BYTE   As3
 BYTE   W48
// 014   ----------------------------------------
 BYTE   Gn3
 BYTE   W48
 BYTE   En3
 BYTE   W48
// 015   ----------------------------------------
 BYTE   Fn3
 BYTE   W96
// 016   ----------------------------------------
 BYTE   W96
// 017   ----------------------------------------
 BYTE   W96
// 018   ----------------------------------------
 BYTE   W96
// 019   ----------------------------------------
 BYTE   W96
// 020   ----------------------------------------
 BYTE   W96
// 021   ----------------------------------------
 BYTE   W96
// 022   ----------------------------------------
 BYTE   W96
// 023   ----------------------------------------
 BYTE   N24  Cn4  v060
 BYTE   W24
 BYTE   Cn3  v068
 BYTE   W24
 BYTE   Gn3  v072
 BYTE   W24
 BYTE   Cn4  v076
 BYTE   W24
// 024   ----------------------------------------
Label_2_0146FE7E:
 BYTE   N36  Cn3  v108
 BYTE   W48
 BYTE   N18  Fn3
 BYTE   W24
 BYTE   An3
 BYTE   W24
 BYTE   PEND 
// 025   ----------------------------------------
Label_2_0146FE88:
 BYTE   N36  An3  v108
 BYTE   W48
 BYTE   Dn3
 BYTE   W48
 BYTE   PEND 
// 026   ----------------------------------------
Label_2_0146FE8F:
 BYTE   N60  Dn3  v108
 BYTE   W60
 BYTE   N06  En3
 BYTE   W12
 BYTE   Fn3
 BYTE   W12
 BYTE   Gn3
 BYTE   W12
 BYTE   PEND 
// 027   ----------------------------------------
Label_2_0146FE9B:
 BYTE   N36  Fn3  v108
 BYTE   W48
 BYTE   En3
 BYTE   W48
 BYTE   PEND 
// 028   ----------------------------------------
 BYTE   PATT
  POIN2 Label_2_0146FE7E
// 029   ----------------------------------------
Label_2_0146FEA7:
 BYTE   N48  Cn4  v108
 BYTE   W48
 BYTE   N18  As3
 BYTE   W24
 BYTE   An3
 BYTE   W24
 BYTE   PEND 
// 030   ----------------------------------------
Label_2_0146FEB1:
 BYTE   N48  Dn3  v108
 BYTE   W60
 BYTE   N06  En3
 BYTE   W12
 BYTE   Fn3
 BYTE   W12
 BYTE   Gn3
 BYTE   W12
 BYTE   PEND 
// 031   ----------------------------------------
 BYTE   N72  Fn3
 BYTE   W96
// 032   ----------------------------------------
 BYTE   N48  Cn3  v080
 BYTE   W48
 BYTE   N24  Fn3
 BYTE   W24
 BYTE   An3
 BYTE   W24
// 033   ----------------------------------------
 BYTE   N36
 BYTE   W36
 BYTE   N12  As3
 BYTE   W12
 BYTE   N48  Gn3
 BYTE   W48
// 034   ----------------------------------------
 BYTE   W24
 BYTE   N24  An3
 BYTE   W24
 BYTE   Fn3
 BYTE   W24
 BYTE   Cn3
 BYTE   W24
// 035   ----------------------------------------
 BYTE   N36  Gn3
 BYTE   W36
 BYTE   N12  An3
 BYTE   W12
 BYTE   N48  Fn3
 BYTE   W48
// 036   ----------------------------------------
 BYTE   W24
 BYTE   N24  Dn3
 BYTE   W24
 BYTE   Dn4
 BYTE   W24
 BYTE   N12  Cn4
 BYTE   W12
 BYTE   As3
 BYTE   W12
// 037   ----------------------------------------
 BYTE   N48  Cn4
 BYTE   W48
 BYTE   N24  An3
 BYTE   W24
 BYTE   Fn3
 BYTE   W24
// 038   ----------------------------------------
 BYTE   Dn3
 BYTE   W24
 BYTE   As3
 BYTE   W24
 BYTE   Gn3
 BYTE   W24
 BYTE   En3
 BYTE   W24
// 039   ----------------------------------------
 BYTE   N36  Gn3
 BYTE   W36
 BYTE   N12  Fn3
 BYTE   W12
 BYTE   N48
 BYTE   W48
// 040   ----------------------------------------
 BYTE   PATT
  POIN2 Label_2_0146FE7E
// 041   ----------------------------------------
 BYTE   PATT
  POIN2 Label_2_0146FE88
// 042   ----------------------------------------
 BYTE   PATT
  POIN2 Label_2_0146FE8F
// 043   ----------------------------------------
 BYTE   PATT
  POIN2 Label_2_0146FE9B
// 044   ----------------------------------------
 BYTE   PATT
  POIN2 Label_2_0146FE7E
// 045   ----------------------------------------
 BYTE   PATT
  POIN2 Label_2_0146FEA7
// 046   ----------------------------------------
 BYTE   PATT
  POIN2 Label_2_0146FEB1
// 047   ----------------------------------------
 BYTE   N72  Fn3  v108
 BYTE   W96
// 048   ----------------------------------------
 BYTE   Dn3  v100
 BYTE   W72
 BYTE   N08
 BYTE   W08
 BYTE   N08
 BYTE   W08
 BYTE   Fn3
 BYTE   W08
// 049   ----------------------------------------
 BYTE   N96  En3
 BYTE   W96
// 050   ----------------------------------------
 BYTE   N72
 BYTE   W72
 BYTE   N08
 BYTE   W08
 BYTE   Fn3
 BYTE   W08
 BYTE   Gn3
 BYTE   W08
// 051   ----------------------------------------
 BYTE   N96  Fn3
 BYTE   W96
// 052   ----------------------------------------
 BYTE   N72
 BYTE   W72
 BYTE   N08
 BYTE   W08
 BYTE   Gn3
 BYTE   W08
 BYTE   Fn3
 BYTE   W08
// 053   ----------------------------------------
 BYTE   N48  En3
 BYTE   W48
 BYTE   Cn3
 BYTE   W48
// 054   ----------------------------------------
 BYTE   N12  Dn3  v112
 BYTE   W24
 BYTE   N08
 BYTE   W08
 BYTE   N08
 BYTE   W08
 BYTE   N08
 BYTE   W08
 BYTE   N12  En3
 BYTE   W24
 BYTE   N08
 BYTE   W08
 BYTE   N08
 BYTE   W08
 BYTE   N08
 BYTE   W08
// 055   ----------------------------------------
 BYTE   N12  Fn3
 BYTE   W24
 BYTE   N08
 BYTE   W08
 BYTE   N08
 BYTE   W08
 BYTE   N08
 BYTE   W08
 BYTE   N12  Gn3
 BYTE   W24
 BYTE   N24
 BYTE   W24
// 056   ----------------------------------------
 BYTE   N12  Fn3
 BYTE   W24
 BYTE   N08
 BYTE   W08
 BYTE   N08
 BYTE   W08
 BYTE   N08
 BYTE   W08
 BYTE   N12  Gn3
 BYTE   W24
 BYTE   N08
 BYTE   W08
 BYTE   N08
 BYTE   W08
 BYTE   N08
 BYTE   W08
// 057   ----------------------------------------
 BYTE   N12  An3
 BYTE   W24
 BYTE   N08
 BYTE   W08
 BYTE   N08
 BYTE   W08
 BYTE   N08
 BYTE   W08
 BYTE   N24  Bn3
 BYTE   W24
 BYTE   Bn3  v100
 BYTE   W24
// 058   ----------------------------------------
 BYTE   W24
 BYTE   Cn3
 BYTE   W24
 BYTE   Gn3
 BYTE   W24
 BYTE   N06  Fn3
 BYTE   W12
 BYTE   En3
 BYTE   W12
// 059   ----------------------------------------
 BYTE   N06
 BYTE   W12
 BYTE   Dn3
 BYTE   W12
 BYTE   N48  Fn3
 BYTE   W48
 BYTE   N24  An3
 BYTE   W24
// 060   ----------------------------------------
 BYTE   N60  Gn3
 BYTE   W60
 BYTE   N06
 BYTE   W12
 BYTE   Fn3
 BYTE   W12
 BYTE   En3
 BYTE   W12
// 061   ----------------------------------------
 BYTE   N06
 BYTE   W12
 BYTE   Dn3
 BYTE   W12
 BYTE   N48  Fn3
 BYTE   W48
 BYTE   N06  An3
 BYTE   W12
 BYTE   Fn3
 BYTE   W12
// 062   ----------------------------------------
 BYTE   N96  Gn3
 BYTE   W96
// 063   ----------------------------------------
 BYTE   N24  Gn2
 BYTE   W24
 BYTE   GoTo
  POIN2 Label_2_0146FE22
 BYTE   FINE

//**************** Track 4 (Midi-Chn.3) ****************//

song03DB_004:
// 000   ----------------------------------------
 BYTE   KEYSH   song03DB_key+0
Label_3_0146F2AE:
 BYTE   VOICE   48
 BYTE   PAN   c_v-11
 BYTE   VOL   25*song03DB_mvl/mxv
 BYTE   N48  Cn2  v100
 BYTE   W48
 BYTE   N24  Fn2
 BYTE   W24
 BYTE   An2
 BYTE   W24
// 001   ----------------------------------------
Label_3_0146F2BD:
 BYTE   N48  An2  v100
 BYTE   W48
 BYTE   Dn2
 BYTE   W48
 BYTE   PEND 
// 002   ----------------------------------------
Label_3_0146F2C4:
 BYTE   N60  Dn2  v100
 BYTE   W60
 BYTE   N12  En2
 BYTE   W12
 BYTE   Fn2
 BYTE   W12
 BYTE   Gn2
 BYTE   W12
 BYTE   PEND 
// 003   ----------------------------------------
Label_3_0146F2D0:
 BYTE   N48  Fn2  v100
 BYTE   W48
 BYTE   En2
 BYTE   W48
 BYTE   PEND 
// 004   ----------------------------------------
Label_3_0146F2D7:
 BYTE   N48  Cn2  v100
 BYTE   W48
 BYTE   N24  Fn2
 BYTE   W24
 BYTE   An2
 BYTE   W24
 BYTE   PEND 
// 005   ----------------------------------------
Label_3_0146F2E1:
 BYTE   N48  Cn3  v100
 BYTE   W48
 BYTE   N24  As2
 BYTE   W24
 BYTE   An2
 BYTE   W24
 BYTE   PEND 
// 006   ----------------------------------------
 BYTE   PATT
  POIN2 Label_3_0146F2C4
// 007   ----------------------------------------
 BYTE   N72  Gn2  v100
 BYTE   W96
// 008   ----------------------------------------
 BYTE   PATT
  POIN2 Label_3_0146F2D7
// 009   ----------------------------------------
 BYTE   PATT
  POIN2 Label_3_0146F2BD
// 010   ----------------------------------------
 BYTE   PATT
  POIN2 Label_3_0146F2C4
// 011   ----------------------------------------
 BYTE   PATT
  POIN2 Label_3_0146F2D0
// 012   ----------------------------------------
 BYTE   PATT
  POIN2 Label_3_0146F2D7
// 013   ----------------------------------------
 BYTE   PATT
  POIN2 Label_3_0146F2E1
// 014   ----------------------------------------
 BYTE   PATT
  POIN2 Label_3_0146F2C4
// 015   ----------------------------------------
 BYTE   N48  Fn2  v100
 BYTE   W96
// 016   ----------------------------------------
 BYTE   As2
 BYTE   W48
 BYTE   N48
 BYTE   W48
// 017   ----------------------------------------
 BYTE   Cn3
 BYTE   W48
 BYTE   N48
 BYTE   W48
// 018   ----------------------------------------
 BYTE   Dn3
 BYTE   W48
 BYTE   As2
 BYTE   W48
// 019   ----------------------------------------
 BYTE   N72  An2
 BYTE   W96
// 020   ----------------------------------------
 BYTE   N24  Dn2
 BYTE   W24
 BYTE   N36  As2
 BYTE   W36
 BYTE   N12  Gn2
 BYTE   W12
 BYTE   Fn2
 BYTE   W12
 BYTE   En2
 BYTE   W12
// 021   ----------------------------------------
 BYTE   N36  Cn3
 BYTE   W36
 BYTE   N12  An2
 BYTE   W12
 BYTE   N18  Fn3
 BYTE   W24
 BYTE   N12
 BYTE   W12
 BYTE   En3
 BYTE   W12
// 022   ----------------------------------------
 BYTE   N24  Dn3
 BYTE   W24
 BYTE   N36
 BYTE   W36
 BYTE   N12  En3
 BYTE   W12
 BYTE   Fn3
 BYTE   W12
 BYTE   Gn3
 BYTE   W12
// 023   ----------------------------------------
 BYTE   N48  Fn3
 BYTE   W48
 BYTE   En3
 BYTE   W48
// 024   ----------------------------------------
 BYTE   N84  Fn1
 BYTE   W96
// 025   ----------------------------------------
Label_3_0146F358:
 BYTE   N60  As1  v100
 BYTE   W72
 BYTE   N12  An1
 BYTE   W24
 BYTE   PEND 
// 026   ----------------------------------------
 BYTE   N84  Gn1
 BYTE   W96
// 027   ----------------------------------------
Label_3_0146F363:
 BYTE   N48  Cn2  v100
 BYTE   W48
 BYTE   Cn1
 BYTE   W48
 BYTE   PEND 
// 028   ----------------------------------------
 BYTE   N84  Fn1
 BYTE   W96
// 029   ----------------------------------------
 BYTE   PATT
  POIN2 Label_3_0146F358
// 030   ----------------------------------------
Label_3_0146F372:
 BYTE   N48  Gn1  v100
 BYTE   W48
 BYTE   Cn2
 BYTE   W48
 BYTE   PEND 
// 031   ----------------------------------------
 BYTE   N72  Fn1
 BYTE   W96
// 032   ----------------------------------------
 BYTE   N48  Fn2
 BYTE   W48
 BYTE   An2
 BYTE   W48
// 033   ----------------------------------------
 BYTE   Cn3
 BYTE   W48
 BYTE   As2
 BYTE   W48
// 034   ----------------------------------------
 BYTE   An2
 BYTE   W48
 BYTE   N48
 BYTE   W48
// 035   ----------------------------------------
 BYTE   As2
 BYTE   W48
 BYTE   Cn3
 BYTE   W48
// 036   ----------------------------------------
 BYTE   N96  Fn2
 BYTE   W96
// 037   ----------------------------------------
 BYTE   An2
 BYTE   W96
// 038   ----------------------------------------
 BYTE   N24  Fn2
 BYTE   W24
 BYTE   Dn3
 BYTE   W24
 BYTE   As2
 BYTE   W24
 BYTE   Gn2
 BYTE   W24
// 039   ----------------------------------------
 BYTE   N48  As2
 BYTE   W48
 BYTE   An2
 BYTE   W48
// 040   ----------------------------------------
 BYTE   N84  Fn1
 BYTE   W96
// 041   ----------------------------------------
 BYTE   PATT
  POIN2 Label_3_0146F358
// 042   ----------------------------------------
 BYTE   N84  Gn1  v100
 BYTE   W96
// 043   ----------------------------------------
 BYTE   PATT
  POIN2 Label_3_0146F363
// 044   ----------------------------------------
 BYTE   N84  Fn1  v100
 BYTE   W96
// 045   ----------------------------------------
 BYTE   PATT
  POIN2 Label_3_0146F358
// 046   ----------------------------------------
 BYTE   PATT
  POIN2 Label_3_0146F372
// 047   ----------------------------------------
 BYTE   N72  Fn1  v100
 BYTE   W96
// 048   ----------------------------------------
Label_3_0146F3C3:
 BYTE   N72  Fn2  v100
 BYTE   W72
 BYTE   N08
 BYTE   W08
 BYTE   N08
 BYTE   W08
 BYTE   N08
 BYTE   W08
 BYTE   PEND 
// 049   ----------------------------------------
 BYTE   N96  Gn2
 BYTE   W96
// 050   ----------------------------------------
 BYTE   N72
 BYTE   W72
 BYTE   N08
 BYTE   W08
 BYTE   N08
 BYTE   W08
 BYTE   N08
 BYTE   W08
// 051   ----------------------------------------
 BYTE   N96  Fn2
 BYTE   W96
// 052   ----------------------------------------
 BYTE   PATT
  POIN2 Label_3_0146F3C3
// 053   ----------------------------------------
 BYTE   N96  En2  v100
 BYTE   W96
// 054   ----------------------------------------
 BYTE   N12  Fn3
 BYTE   W24
 BYTE   N08
 BYTE   W08
 BYTE   N08
 BYTE   W08
 BYTE   N08
 BYTE   W08
 BYTE   N12  Gn3
 BYTE   W24
 BYTE   N08
 BYTE   W08
 BYTE   N08
 BYTE   W08
 BYTE   N08
 BYTE   W08
// 055   ----------------------------------------
 BYTE   N12
 BYTE   W24
 BYTE   N08
 BYTE   W08
 BYTE   N08
 BYTE   W08
 BYTE   N08
 BYTE   W08
 BYTE   N12  Cn4
 BYTE   W24
 BYTE   N24
 BYTE   W24
// 056   ----------------------------------------
 BYTE   N12  An3
 BYTE   W24
 BYTE   N08
 BYTE   W08
 BYTE   N08
 BYTE   W08
 BYTE   N08
 BYTE   W08
 BYTE   N12  Bn3
 BYTE   W24
 BYTE   N08
 BYTE   W08
 BYTE   N08
 BYTE   W08
 BYTE   N08
 BYTE   W08
// 057   ----------------------------------------
 BYTE   N12  Cn4
 BYTE   W24
 BYTE   N08
 BYTE   W08
 BYTE   N08
 BYTE   W08
 BYTE   N08
 BYTE   W08
 BYTE   N24  Dn4
 BYTE   W24
 BYTE   Gn3
 BYTE   W24
// 058   ----------------------------------------
 BYTE   N96  Gn2
 BYTE   W96
// 059   ----------------------------------------
 BYTE   N72  Fn2
 BYTE   W72
 BYTE   N24  As2
 BYTE   W24
// 060   ----------------------------------------
 BYTE   N96  Gn2
 BYTE   W96
// 061   ----------------------------------------
 BYTE   N48  Fn2
 BYTE   W48
 BYTE   N24  As2
 BYTE   W24
 BYTE   Dn3
 BYTE   W24
// 062   ----------------------------------------
 BYTE   N96  Cn3
 BYTE   W96
// 063   ----------------------------------------
 BYTE   N24  En2
 BYTE   W24
 BYTE   GoTo
  POIN2 Label_3_0146F2AE
 BYTE   FINE

//**************** Track 5 (Midi-Chn.4) ****************//

song03DB_005:
// 000   ----------------------------------------
 BYTE   KEYSH   song03DB_key+0
Label_4_0147028A:
 BYTE   VOICE   48
 BYTE   PAN   c_v+14
 BYTE   VOL   30*song03DB_mvl/mxv
 BYTE   N96  Cn3  v100
 BYTE   W96
// 001   ----------------------------------------
 BYTE   Fn3
 BYTE   W96
// 002   ----------------------------------------
 BYTE   N96
 BYTE   W96
// 003   ----------------------------------------
 BYTE   Gn3
 BYTE   W96
// 004   ----------------------------------------
 BYTE   Cn3
 BYTE   W96
// 005   ----------------------------------------
 BYTE   Fn3
 BYTE   W96
// 006   ----------------------------------------
 BYTE   N96
 BYTE   W96
// 007   ----------------------------------------
 BYTE   N48
 BYTE   W48
 BYTE   En3
 BYTE   W48
// 008   ----------------------------------------
 BYTE   N96  Cn3
 BYTE   W96
// 009   ----------------------------------------
 BYTE   Fn3
 BYTE   W96
// 010   ----------------------------------------
 BYTE   N96
 BYTE   W96
// 011   ----------------------------------------
 BYTE   Gn3
 BYTE   W96
// 012   ----------------------------------------
 BYTE   Fn3
 BYTE   W96
// 013   ----------------------------------------
 BYTE   N96
 BYTE   W96
// 014   ----------------------------------------
 BYTE   N48
 BYTE   W48
 BYTE   Gn3
 BYTE   W48
// 015   ----------------------------------------
 BYTE   N96  Cn3
 BYTE   W96
// 016   ----------------------------------------
 BYTE   N48  Fn2
 BYTE   W48
 BYTE   Gn2
 BYTE   W48
// 017   ----------------------------------------
 BYTE   N48
 BYTE   W48
 BYTE   An2
 BYTE   W48
// 018   ----------------------------------------
 BYTE   N48
 BYTE   W48
 BYTE   Gn2
 BYTE   W48
// 019   ----------------------------------------
 BYTE   N72  Fn2
 BYTE   W96
// 020   ----------------------------------------
 BYTE   N24  As2
 BYTE   W24
 BYTE   N36  Gn3
 BYTE   W36
 BYTE   N12  En3
 BYTE   W12
 BYTE   Dn3
 BYTE   W12
 BYTE   Cn3
 BYTE   W12
// 021   ----------------------------------------
 BYTE   N36  An3
 BYTE   W36
 BYTE   N12  Fn3
 BYTE   W12
 BYTE   Dn4
 BYTE   W24
 BYTE   N12
 BYTE   W12
 BYTE   Cn4
 BYTE   W12
// 022   ----------------------------------------
 BYTE   N24  As3
 BYTE   W24
 BYTE   N36
 BYTE   W36
 BYTE   N12  Cn4
 BYTE   W12
 BYTE   Dn4
 BYTE   W12
 BYTE   En4
 BYTE   W12
// 023   ----------------------------------------
 BYTE   N48  As3
 BYTE   W48
 BYTE   Cn4
 BYTE   W48
// 024   ----------------------------------------
 BYTE   W96
// 025   ----------------------------------------
 BYTE   W96
// 026   ----------------------------------------
 BYTE   W96
// 027   ----------------------------------------
 BYTE   W96
// 028   ----------------------------------------
 BYTE   W96
// 029   ----------------------------------------
 BYTE   W96
// 030   ----------------------------------------
 BYTE   W96
// 031   ----------------------------------------
 BYTE   W96
// 032   ----------------------------------------
 BYTE   W96
// 033   ----------------------------------------
 BYTE   W96
// 034   ----------------------------------------
 BYTE   W96
// 035   ----------------------------------------
 BYTE   W96
// 036   ----------------------------------------
 BYTE   W96
// 037   ----------------------------------------
 BYTE   W96
// 038   ----------------------------------------
 BYTE   W96
// 039   ----------------------------------------
 BYTE   W36
 BYTE   N02  Cn5
 BYTE   W04
 BYTE   Dn5
 BYTE   W04
 BYTE   Cn5
 BYTE   W04
 BYTE   Dn5
 BYTE   W04
 BYTE   Cn5
 BYTE   W04
 BYTE   Dn5
 BYTE   W04
 BYTE   Cn5
 BYTE   W04
 BYTE   Dn5
 BYTE   W04
 BYTE   Cn5
 BYTE   W04
 BYTE   Dn5
 BYTE   W04
 BYTE   Cn5
 BYTE   W04
 BYTE   Dn5
 BYTE   W04
 BYTE   Cn5
 BYTE   W04
 BYTE   Dn5
 BYTE   W04
 BYTE   Cn5
 BYTE   W04
// 040   ----------------------------------------
 BYTE   W96
// 041   ----------------------------------------
 BYTE   W96
// 042   ----------------------------------------
 BYTE   W96
// 043   ----------------------------------------
 BYTE   W96
// 044   ----------------------------------------
 BYTE   W96
// 045   ----------------------------------------
 BYTE   W96
// 046   ----------------------------------------
 BYTE   W96
// 047   ----------------------------------------
 BYTE   W96
// 048   ----------------------------------------
 BYTE   N72  As3
 BYTE   W72
 BYTE   N08
 BYTE   W08
 BYTE   N08
 BYTE   W08
 BYTE   Dn4
 BYTE   W08
// 049   ----------------------------------------
 BYTE   N96  Cn4
 BYTE   W96
// 050   ----------------------------------------
 BYTE   N72
 BYTE   W72
 BYTE   N08
 BYTE   W08
 BYTE   N08
 BYTE   W08
 BYTE   En4
 BYTE   W08
// 051   ----------------------------------------
 BYTE   N96  Cn4
 BYTE   W96
// 052   ----------------------------------------
 BYTE   N72
 BYTE   W72
 BYTE   N08
 BYTE   W08
 BYTE   N08
 BYTE   W08
 BYTE   N08
 BYTE   W08
// 053   ----------------------------------------
 BYTE   N48
 BYTE   W48
 BYTE   Gn3
 BYTE   W48
// 054   ----------------------------------------
 BYTE   N12  Cn3
 BYTE   W24
 BYTE   N08
 BYTE   W08
 BYTE   N08
 BYTE   W08
 BYTE   N08
 BYTE   W08
 BYTE   N12  Dn3
 BYTE   W24
 BYTE   N08
 BYTE   W08
 BYTE   N08
 BYTE   W08
 BYTE   N08
 BYTE   W08
// 055   ----------------------------------------
 BYTE   N12  En3
 BYTE   W24
 BYTE   N08
 BYTE   W08
 BYTE   N08
 BYTE   W08
 BYTE   N08
 BYTE   W08
 BYTE   N12  Fn3
 BYTE   W24
 BYTE   N24
 BYTE   W24
// 056   ----------------------------------------
 BYTE   N12
 BYTE   W24
 BYTE   N08
 BYTE   W08
 BYTE   N08
 BYTE   W08
 BYTE   N08
 BYTE   W08
 BYTE   N12  Gn3
 BYTE   W24
 BYTE   N08
 BYTE   W08
 BYTE   N08
 BYTE   W08
 BYTE   N08
 BYTE   W08
// 057   ----------------------------------------
 BYTE   N12
 BYTE   W24
 BYTE   N08
 BYTE   W08
 BYTE   N08
 BYTE   W08
 BYTE   N08
 BYTE   W08
 BYTE   N24  Cn4
 BYTE   W24
 BYTE   Dn3
 BYTE   W24
// 058   ----------------------------------------
 BYTE   N96  En2
 BYTE   W96
// 059   ----------------------------------------
 BYTE   N72  Dn2
 BYTE   W72
 BYTE   N24  Fn2
 BYTE   W24
// 060   ----------------------------------------
 BYTE   N96  En2
 BYTE   W96
// 061   ----------------------------------------
 BYTE   N48  Dn2
 BYTE   W48
 BYTE   N24  Fn2
 BYTE   W24
 BYTE   As2
 BYTE   W24
// 062   ----------------------------------------
 BYTE   N96  Gn2
 BYTE   W96
// 063   ----------------------------------------
 BYTE   W24
 BYTE   GoTo
  POIN2 Label_4_0147028A
 BYTE   FINE

//**************** Track 6 (Midi-Chn.5) ****************//

song03DB_006:
// 000   ----------------------------------------
 BYTE   KEYSH   song03DB_key+0
Label_5_0146F446:
 BYTE   VOICE   58
 BYTE   VOL   31*song03DB_mvl/mxv
 BYTE   N96  Fn1  v100
 BYTE   W96
// 001   ----------------------------------------
Label_5_0146F44E:
 BYTE   N72  As1  v100
 BYTE   W72
 BYTE   N24  An1
 BYTE   W24
 BYTE   PEND 
// 002   ----------------------------------------
 BYTE   N96  Gn1
 BYTE   W96
// 003   ----------------------------------------
Label_5_0146F459:
 BYTE   N48  Cn2  v100
 BYTE   W48
 BYTE   Cn1
 BYTE   W48
 BYTE   PEND 
// 004   ----------------------------------------
 BYTE   N84  Fn1
 BYTE   W96
// 005   ----------------------------------------
 BYTE   N60  Dn2
 BYTE   W72
 BYTE   N24  Cn2
 BYTE   W24
// 006   ----------------------------------------
 BYTE   N96  As1
 BYTE   W96
// 007   ----------------------------------------
 BYTE   N48  Dn2
 BYTE   W48
 BYTE   N24  Cn1
 BYTE   W24
 BYTE   En1
 BYTE   W24
// 008   ----------------------------------------
 BYTE   N96  Fn1
 BYTE   W96
// 009   ----------------------------------------
 BYTE   PATT
  POIN2 Label_5_0146F44E
// 010   ----------------------------------------
 BYTE   N96  Gn1  v100
 BYTE   W96
// 011   ----------------------------------------
 BYTE   PATT
  POIN2 Label_5_0146F459
// 012   ----------------------------------------
 BYTE   N84  As1  v100
 BYTE   W96
// 013   ----------------------------------------
 BYTE   N48  Cn2
 BYTE   W72
 BYTE   N24  As1
 BYTE   W24
// 014   ----------------------------------------
 BYTE   N48  An1
 BYTE   W48
 BYTE   Cn2
 BYTE   W48
// 015   ----------------------------------------
 BYTE   Fn1
 BYTE   W72
 BYTE   N24  Gn0
 BYTE   W24
// 016   ----------------------------------------
Label_5_0146F499:
 BYTE   N36  Gn1  v100
 BYTE   W48
 BYTE   Cn2
 BYTE   W48
 BYTE   PEND 
// 017   ----------------------------------------
Label_5_0146F4A0:
 BYTE   N36  An1  v100
 BYTE   W48
 BYTE   N24  Dn2
 BYTE   W24
 BYTE   Cn2
 BYTE   W24
 BYTE   PEND 
// 018   ----------------------------------------
 BYTE   N36  As1
 BYTE   W48
 BYTE   Cn2
 BYTE   W48
// 019   ----------------------------------------
 BYTE   N72  Fn1
 BYTE   W96
// 020   ----------------------------------------
 BYTE   PATT
  POIN2 Label_5_0146F499
// 021   ----------------------------------------
 BYTE   PATT
  POIN2 Label_5_0146F4A0
// 022   ----------------------------------------
 BYTE   N36  As1  v100
 BYTE   W48
 BYTE   Bn1
 BYTE   W48
// 023   ----------------------------------------
 BYTE   N24  Cn2
 BYTE   W24
 BYTE   Cn1
 BYTE   W24
 BYTE   Gn1
 BYTE   W24
 BYTE   Cn2
 BYTE   W24
// 024   ----------------------------------------
 BYTE   N84  Fn1  v084
 BYTE   W96
// 025   ----------------------------------------
Label_5_0146F4CF:
 BYTE   N60  As1  v084
 BYTE   W72
 BYTE   N12  An1
 BYTE   W24
 BYTE   PEND 
// 026   ----------------------------------------
 BYTE   N84  Gn1
 BYTE   W96
// 027   ----------------------------------------
Label_5_0146F4DA:
 BYTE   N48  Cn2  v084
 BYTE   W48
 BYTE   Cn1
 BYTE   W48
 BYTE   PEND 
// 028   ----------------------------------------
 BYTE   N84  Fn1
 BYTE   W96
// 029   ----------------------------------------
 BYTE   PATT
  POIN2 Label_5_0146F4CF
// 030   ----------------------------------------
Label_5_0146F4E9:
 BYTE   N48  Gn1  v084
 BYTE   W48
 BYTE   Cn2
 BYTE   W48
 BYTE   PEND 
// 031   ----------------------------------------
 BYTE   N72  Fn1
 BYTE   W96
// 032   ----------------------------------------
 BYTE   N48  Fn1  v100
 BYTE   W48
 BYTE   N48
 BYTE   W48
// 033   ----------------------------------------
Label_5_0146F4F9:
 BYTE   N48  Ds1  v100
 BYTE   W48
 BYTE   N48
 BYTE   W48
 BYTE   PEND 
// 034   ----------------------------------------
Label_5_0146F500:
 BYTE   N24  Fn1  v100
 BYTE   W24
 BYTE   N24
 BYTE   W24
 BYTE   N24
 BYTE   W24
 BYTE   N24
 BYTE   W24
 BYTE   PEND 
// 035   ----------------------------------------
 BYTE   PATT
  POIN2 Label_5_0146F4F9
// 036   ----------------------------------------
 BYTE   N24  As0  v100
 BYTE   W24
 BYTE   N24
 BYTE   W24
 BYTE   N48
 BYTE   W48
// 037   ----------------------------------------
 BYTE   PATT
  POIN2 Label_5_0146F500
// 038   ----------------------------------------
 BYTE   N24  Gn1  v100
 BYTE   W24
 BYTE   N24
 BYTE   W24
 BYTE   N48  Cn1
 BYTE   W48
// 039   ----------------------------------------
 BYTE   N96  Fn1
 BYTE   W96
// 040   ----------------------------------------
 BYTE   N84  Fn1  v084
 BYTE   W96
// 041   ----------------------------------------
 BYTE   PATT
  POIN2 Label_5_0146F4CF
// 042   ----------------------------------------
 BYTE   N84  Gn1  v084
 BYTE   W96
// 043   ----------------------------------------
 BYTE   PATT
  POIN2 Label_5_0146F4DA
// 044   ----------------------------------------
 BYTE   N84  Fn1  v084
 BYTE   W96
// 045   ----------------------------------------
 BYTE   PATT
  POIN2 Label_5_0146F4CF
// 046   ----------------------------------------
 BYTE   PATT
  POIN2 Label_5_0146F4E9
// 047   ----------------------------------------
 BYTE   N72  Fn1  v084
 BYTE   W96
// 048   ----------------------------------------
 BYTE   Gn1  v100
 BYTE   W72
 BYTE   N24
 BYTE   W24
// 049   ----------------------------------------
 BYTE   N96
 BYTE   W96
// 050   ----------------------------------------
 BYTE   N72  As1
 BYTE   W72
 BYTE   N08
 BYTE   W08
 BYTE   N08
 BYTE   W08
 BYTE   N08
 BYTE   W08
// 051   ----------------------------------------
 BYTE   N96  An1
 BYTE   W96
// 052   ----------------------------------------
 BYTE   N72  Gs1
 BYTE   W72
 BYTE   N08
 BYTE   W08
 BYTE   N08
 BYTE   W08
 BYTE   N08
 BYTE   W08
// 053   ----------------------------------------
 BYTE   N96  Gn1
 BYTE   W96
// 054   ----------------------------------------
Label_5_0146F56C:
 BYTE   N18  Dn1  v100
 BYTE   W24
 BYTE   N08
 BYTE   W08
 BYTE   N08
 BYTE   W08
 BYTE   N08
 BYTE   W08
 BYTE   N18  En1
 BYTE   W24
 BYTE   N08
 BYTE   W08
 BYTE   N08
 BYTE   W08
 BYTE   N08
 BYTE   W08
 BYTE   PEND 
// 055   ----------------------------------------
 BYTE   N18  Fn1
 BYTE   W24
 BYTE   N08
 BYTE   W08
 BYTE   N08
 BYTE   W08
 BYTE   N08
 BYTE   W08
 BYTE   N18  Gn1
 BYTE   W24
 BYTE   N24
 BYTE   W24
// 056   ----------------------------------------
 BYTE   PATT
  POIN2 Label_5_0146F56C
// 057   ----------------------------------------
 BYTE   N18  Fn1  v100
 BYTE   W24
 BYTE   N08
 BYTE   W08
 BYTE   N08
 BYTE   W08
 BYTE   N08
 BYTE   W08
 BYTE   N18  Gn1
 BYTE   W24
 BYTE   N24  Gn0
 BYTE   W24
// 058   ----------------------------------------
Label_5_0146F5A3:
 BYTE   N06  Cn1  v100
 BYTE   W12
 BYTE   N06
 BYTE   W06
 BYTE   N06
 BYTE   W06
 BYTE   N06
 BYTE   W12
 BYTE   N06
 BYTE   W24
 BYTE   N06
 BYTE   W12
 BYTE   N06
 BYTE   W12
 BYTE   N06
 BYTE   W12
 BYTE   PEND 
// 059   ----------------------------------------
 BYTE   PATT
  POIN2 Label_5_0146F5A3
// 060   ----------------------------------------
 BYTE   PATT
  POIN2 Label_5_0146F5A3
// 061   ----------------------------------------
 BYTE   PATT
  POIN2 Label_5_0146F5A3
// 062   ----------------------------------------
 BYTE   N96  Cn1  v100
 BYTE   W96
// 063   ----------------------------------------
 BYTE   W24
 BYTE   GoTo
  POIN2 Label_5_0146F446
 BYTE   FINE

//**************** Track 7 (Midi-Chn.6) ****************//

song03DB_007:
// 000   ----------------------------------------
 BYTE   KEYSH   song03DB_key+0
Label_6_0146FFCA:
 BYTE   VOICE   56
 BYTE   VOL   31*song03DB_mvl/mxv
 BYTE   W96
// 001   ----------------------------------------
 BYTE   W48
 BYTE   N24  An2  v084
 BYTE   W24
 BYTE   N24
 BYTE   W24
// 002   ----------------------------------------
 BYTE   N72  Gn2
 BYTE   W96
// 003   ----------------------------------------
 BYTE   W24
 BYTE   N24
 BYTE   W24
 BYTE   Cn3
 BYTE   W24
 BYTE   Gn3
 BYTE   W24
// 004   ----------------------------------------
 BYTE   N72  Cn3
 BYTE   W96
// 005   ----------------------------------------
 BYTE   N60  Dn3
 BYTE   W72
 BYTE   N24  Cn3
 BYTE   W24
// 006   ----------------------------------------
 BYTE   N72  As2
 BYTE   W96
// 007   ----------------------------------------
 BYTE   N72
 BYTE   W96
// 008   ----------------------------------------
 BYTE   W96
// 009   ----------------------------------------
 BYTE   W24
 BYTE   N24  An2
 BYTE   W24
 BYTE   As2
 BYTE   W24
 BYTE   Cn3
 BYTE   W24
// 010   ----------------------------------------
 BYTE   N72  Dn3
 BYTE   W96
// 011   ----------------------------------------
 BYTE   W24
 BYTE   N24  As2
 BYTE   W24
 BYTE   Cn3
 BYTE   W24
 BYTE   Dn3
 BYTE   W24
// 012   ----------------------------------------
 BYTE   N48  Fn3
 BYTE   W48
 BYTE   N48
 BYTE   W48
// 013   ----------------------------------------
 BYTE   N48
 BYTE   W48
 BYTE   Dn3
 BYTE   W48
// 014   ----------------------------------------
 BYTE   As2
 BYTE   W48
 BYTE   Gn2
 BYTE   W48
// 015   ----------------------------------------
 BYTE   An2
 BYTE   W96
// 016   ----------------------------------------
 BYTE   W96
// 017   ----------------------------------------
 BYTE   W96
// 018   ----------------------------------------
 BYTE   W96
// 019   ----------------------------------------
 BYTE   W96
// 020   ----------------------------------------
 BYTE   W96
// 021   ----------------------------------------
 BYTE   W96
// 022   ----------------------------------------
 BYTE   W96
// 023   ----------------------------------------
 BYTE   W96
// 024   ----------------------------------------
Label_6_01470019:
 BYTE   W03
 BYTE   N36  Cn3  v100
 BYTE   W48
 BYTE   N18  Fn3
 BYTE   W24
 BYTE   An3
 BYTE   W21
 BYTE   PEND 
// 025   ----------------------------------------
Label_6_01470024:
 BYTE   W03
 BYTE   N36  An3  v100
 BYTE   W48
 BYTE   Dn3
 BYTE   W44
 BYTE   W01
 BYTE   PEND 
// 026   ----------------------------------------
Label_6_0147002D:
 BYTE   W03
 BYTE   N60  Dn3  v100
 BYTE   W60
 BYTE   N06  En3
 BYTE   W12
 BYTE   Fn3
 BYTE   W12
 BYTE   Gn3
 BYTE   W09
 BYTE   PEND 
// 027   ----------------------------------------
Label_6_0147003A:
 BYTE   W03
 BYTE   N36  Fn3  v100
 BYTE   W48
 BYTE   En3
 BYTE   W44
 BYTE   W01
 BYTE   PEND 
// 028   ----------------------------------------
 BYTE   PATT
  POIN2 Label_6_01470019
// 029   ----------------------------------------
Label_6_01470048:
 BYTE   W03
 BYTE   N48  Cn4  v100
 BYTE   W48
 BYTE   N18  As3
 BYTE   W24
 BYTE   An3
 BYTE   W21
 BYTE   PEND 
// 030   ----------------------------------------
 BYTE   W03
 BYTE   N48  Dn3
 BYTE   W60
 BYTE   N06  En3
 BYTE   W12
 BYTE   Fn3  v104
 BYTE   W12
 BYTE   Gn3  v100
 BYTE   W09
// 031   ----------------------------------------
Label_6_01470060:
 BYTE   W03
 BYTE   N72  Fn3  v100
 BYTE   W92
 BYTE   W01
 BYTE   PEND 
// 032   ----------------------------------------
 BYTE   W96
// 033   ----------------------------------------
 BYTE   W96
// 034   ----------------------------------------
 BYTE   W96
// 035   ----------------------------------------
 BYTE   W96
// 036   ----------------------------------------
 BYTE   W96
// 037   ----------------------------------------
 BYTE   W96
// 038   ----------------------------------------
 BYTE   W96
// 039   ----------------------------------------
 BYTE   W96
// 040   ----------------------------------------
 BYTE   PATT
  POIN2 Label_6_01470019
// 041   ----------------------------------------
 BYTE   PATT
  POIN2 Label_6_01470024
// 042   ----------------------------------------
 BYTE   PATT
  POIN2 Label_6_0147002D
// 043   ----------------------------------------
 BYTE   PATT
  POIN2 Label_6_0147003A
// 044   ----------------------------------------
 BYTE   PATT
  POIN2 Label_6_01470019
// 045   ----------------------------------------
 BYTE   PATT
  POIN2 Label_6_01470048
// 046   ----------------------------------------
 BYTE   W03
 BYTE   N48  Dn3  v100
 BYTE   W60
 BYTE   N06  En3
 BYTE   W12
 BYTE   Fn3
 BYTE   W12
 BYTE   Gn3
 BYTE   W09
// 047   ----------------------------------------
 BYTE   PATT
  POIN2 Label_6_01470060
// 048   ----------------------------------------
 BYTE   W96
// 049   ----------------------------------------
 BYTE   W24
 BYTE   N24  Gn3  v112
 BYTE   W24
 BYTE   Cn4
 BYTE   W24
 BYTE   En4
 BYTE   W24
// 050   ----------------------------------------
 BYTE   N72  Gn4
 BYTE   W72
 BYTE   N08
 BYTE   W08
 BYTE   An4
 BYTE   W08
 BYTE   Gn4
 BYTE   W08
// 051   ----------------------------------------
 BYTE   N24  Fn4
 BYTE   W24
 BYTE   An3
 BYTE   W24
 BYTE   Cn4
 BYTE   W24
 BYTE   Fn4
 BYTE   W24
// 052   ----------------------------------------
 BYTE   N72  Gs4
 BYTE   W72
 BYTE   N08
 BYTE   W08
 BYTE   Gn4
 BYTE   W08
 BYTE   Fn4
 BYTE   W08
// 053   ----------------------------------------
 BYTE   N48  Gn4
 BYTE   W48
 BYTE   En4
 BYTE   W48
// 054   ----------------------------------------
 BYTE   An2  v100
 BYTE   W48
 BYTE   Bn2
 BYTE   W48
// 055   ----------------------------------------
Label_6_014700CD:
 BYTE   N48  Cn3  v100
 BYTE   W48
 BYTE   Dn3
 BYTE   W48
 BYTE   PEND 
// 056   ----------------------------------------
 BYTE   PATT
  POIN2 Label_6_014700CD
// 057   ----------------------------------------
 BYTE   N48  En3  v100
 BYTE   W48
 BYTE   N24  Gn3
 BYTE   W24
 BYTE   Bn2
 BYTE   W24
// 058   ----------------------------------------
 BYTE   N96  Cn3
 BYTE   W96
// 059   ----------------------------------------
 BYTE   N72  Dn3
 BYTE   W72
 BYTE   N24
 BYTE   W24
// 060   ----------------------------------------
 BYTE   N96  Cn3
 BYTE   W96
// 061   ----------------------------------------
 BYTE   Dn3
 BYTE   W96
// 062   ----------------------------------------
 BYTE   En3
 BYTE   W96
// 063   ----------------------------------------
 BYTE   N24  Cn3
 BYTE   W24
 BYTE   GoTo
  POIN2 Label_6_0146FFCA
 BYTE   FINE

//**************** Track 8 (Midi-Chn.7) ****************//

song03DB_008:
// 000   ----------------------------------------
 BYTE   KEYSH   song03DB_key+0
Label_7_01471092:
 BYTE   VOICE   56
 BYTE   PAN   c_v+30
 BYTE   VOL   31*song03DB_mvl/mxv
 BYTE   W96
// 001   ----------------------------------------
 BYTE   W96
// 002   ----------------------------------------
 BYTE   W96
// 003   ----------------------------------------
 BYTE   W96
// 004   ----------------------------------------
 BYTE   W96
// 005   ----------------------------------------
 BYTE   W96
// 006   ----------------------------------------
 BYTE   W96
// 007   ----------------------------------------
 BYTE   W96
// 008   ----------------------------------------
 BYTE   W96
// 009   ----------------------------------------
 BYTE   W96
// 010   ----------------------------------------
 BYTE   W96
// 011   ----------------------------------------
 BYTE   W96
// 012   ----------------------------------------
 BYTE   W96
// 013   ----------------------------------------
 BYTE   W96
// 014   ----------------------------------------
 BYTE   W96
// 015   ----------------------------------------
 BYTE   W96
// 016   ----------------------------------------
 BYTE   W96
// 017   ----------------------------------------
 BYTE   W96
// 018   ----------------------------------------
 BYTE   W96
// 019   ----------------------------------------
 BYTE   W96
// 020   ----------------------------------------
 BYTE   W96
// 021   ----------------------------------------
 BYTE   W96
// 022   ----------------------------------------
 BYTE   W96
// 023   ----------------------------------------
 BYTE   W96
// 024   ----------------------------------------
 BYTE   W96
// 025   ----------------------------------------
 BYTE   W96
// 026   ----------------------------------------
 BYTE   W96
// 027   ----------------------------------------
 BYTE   W96
// 028   ----------------------------------------
 BYTE   W96
// 029   ----------------------------------------
 BYTE   W96
// 030   ----------------------------------------
 BYTE   W96
// 031   ----------------------------------------
 BYTE   W96
// 032   ----------------------------------------
 BYTE   W96
// 033   ----------------------------------------
 BYTE   W96
// 034   ----------------------------------------
 BYTE   W96
// 035   ----------------------------------------
 BYTE   W96
// 036   ----------------------------------------
 BYTE   W96
// 037   ----------------------------------------
 BYTE   W96
// 038   ----------------------------------------
 BYTE   W96
// 039   ----------------------------------------
 BYTE   W96
// 040   ----------------------------------------
 BYTE   W96
// 041   ----------------------------------------
 BYTE   W96
// 042   ----------------------------------------
 BYTE   W96
// 043   ----------------------------------------
 BYTE   W96
// 044   ----------------------------------------
 BYTE   W96
// 045   ----------------------------------------
 BYTE   W96
// 046   ----------------------------------------
 BYTE   W96
// 047   ----------------------------------------
 BYTE   W96
// 048   ----------------------------------------
 BYTE   N72  Gn2  v100
 BYTE   W72
 BYTE   N08
 BYTE   W08
 BYTE   N08
 BYTE   W08
 BYTE   N08
 BYTE   W08
// 049   ----------------------------------------
 BYTE   N96
 BYTE   W96
// 050   ----------------------------------------
 BYTE   N72  As2
 BYTE   W72
 BYTE   N08
 BYTE   W08
 BYTE   N08
 BYTE   W08
 BYTE   N08
 BYTE   W08
// 051   ----------------------------------------
 BYTE   N96  An2
 BYTE   W96
// 052   ----------------------------------------
 BYTE   N72  Gs2
 BYTE   W72
 BYTE   N08
 BYTE   W08
 BYTE   N08
 BYTE   W08
 BYTE   N08
 BYTE   W08
// 053   ----------------------------------------
 BYTE   N48  Gn2
 BYTE   W48
 BYTE   En2
 BYTE   W48
// 054   ----------------------------------------
 BYTE   Fn2
 BYTE   W48
 BYTE   Gn2
 BYTE   W48
// 055   ----------------------------------------
Label_7_014710F2:
 BYTE   N48  An2  v100
 BYTE   W48
 BYTE   Bn2
 BYTE   W48
 BYTE   PEND 
// 056   ----------------------------------------
 BYTE   PATT
  POIN2 Label_7_014710F2
// 057   ----------------------------------------
 BYTE   N48  Cn3  v100
 BYTE   W48
 BYTE   N24  Dn3
 BYTE   W24
 BYTE   Gn2
 BYTE   W24
// 058   ----------------------------------------
 BYTE   N96  En2
 BYTE   W96
// 059   ----------------------------------------
 BYTE   N72  Fn2
 BYTE   W72
 BYTE   N24
 BYTE   W24
// 060   ----------------------------------------
 BYTE   N96  En2
 BYTE   W96
// 061   ----------------------------------------
 BYTE   Fn2
 BYTE   W96
// 062   ----------------------------------------
 BYTE   Gn2
 BYTE   W96
// 063   ----------------------------------------
 BYTE   N24  En2
 BYTE   W24
 BYTE   GoTo
  POIN2 Label_7_01471092
 BYTE   FINE

//**************** Track 9 (Midi-Chn.8) ****************//

song03DB_009:
// 000   ----------------------------------------
 BYTE   KEYSH   song03DB_key+0
Label_8_01481EB6:
 BYTE   VOICE   47
 BYTE   VOL   28*song03DB_mvl/mxv
 BYTE   N12  Cn3  v100
 BYTE   W96
// 001   ----------------------------------------
Label_8_01481EBE:
 BYTE   N12  Cn3  v100
 BYTE   W84
 BYTE   Fn2
 BYTE   W12
 BYTE   PEND 
// 002   ----------------------------------------
Label_8_01481EC5:
 BYTE   N12  Cn3  v100
 BYTE   W84
 BYTE   N12
 BYTE   W12
 BYTE   PEND 
// 003   ----------------------------------------
 BYTE   N12
 BYTE   W84
 BYTE   N06  Fn2
 BYTE   W06
 BYTE   An2
 BYTE   W06
// 004   ----------------------------------------
 BYTE   N12  Fn2
 BYTE   W12
 BYTE   Cn3
 BYTE   W72
 BYTE   N12
 BYTE   W12
// 005   ----------------------------------------
 BYTE   PATT
  POIN2 Label_8_01481EBE
// 006   ----------------------------------------
Label_8_01481EDF:
 BYTE   N12  Cn3  v100
 BYTE   W36
 BYTE   N06
 BYTE   W06
 BYTE   N06
 BYTE   W06
 BYTE   N12
 BYTE   W12
 BYTE   N12
 BYTE   W36
 BYTE   PEND 
// 007   ----------------------------------------
 BYTE   Fn2
 BYTE   W36
 BYTE   N06
 BYTE   W06
 BYTE   Cn3
 BYTE   W06
 BYTE   N12  En2
 BYTE   W12
 BYTE   Cn3
 BYTE   W12
 BYTE   N06
 BYTE   W06
 BYTE   N06
 BYTE   W06
 BYTE   N06
 BYTE   W06
 BYTE   N06
 BYTE   W06
// 008   ----------------------------------------
 BYTE   PATT
  POIN2 Label_8_01481EC5
// 009   ----------------------------------------
 BYTE   PATT
  POIN2 Label_8_01481EC5
// 010   ----------------------------------------
 BYTE   PATT
  POIN2 Label_8_01481EC5
// 011   ----------------------------------------
 BYTE   N12  Cn3  v100
 BYTE   W36
 BYTE   N06
 BYTE   W06
 BYTE   Fn2
 BYTE   W06
 BYTE   N12  Cn3
 BYTE   W12
 BYTE   Fn2
 BYTE   W12
 BYTE   Cn3
 BYTE   W12
 BYTE   Fn2
 BYTE   W12
// 012   ----------------------------------------
 BYTE   PATT
  POIN2 Label_8_01481EBE
// 013   ----------------------------------------
 BYTE   N12  Cn3  v100
 BYTE   W96
// 014   ----------------------------------------
 BYTE   Fn2
 BYTE   W48
 BYTE   Cn3
 BYTE   W48
// 015   ----------------------------------------
 BYTE   Fn2
 BYTE   W36
 BYTE   N06
 BYTE   W06
 BYTE   An2
 BYTE   W06
 BYTE   N12  Fn2
 BYTE   W12
 BYTE   Cn3
 BYTE   W24
 BYTE   Fn2
 BYTE   W12
// 016   ----------------------------------------
Label_8_01481F39:
 BYTE   N12  Cn3  v100
 BYTE   W36
 BYTE   N06
 BYTE   W06
 BYTE   Fn2
 BYTE   W06
 BYTE   N12  Cn3
 BYTE   W12
 BYTE   N12
 BYTE   W36
 BYTE   PEND 
// 017   ----------------------------------------
Label_8_01481F47:
 BYTE   N12  Cn3  v100
 BYTE   W36
 BYTE   N06
 BYTE   W06
 BYTE   Fn2
 BYTE   W06
 BYTE   N12  Cn3
 BYTE   W12
 BYTE   N12
 BYTE   W24
 BYTE   Fn2
 BYTE   W12
 BYTE   PEND 
// 018   ----------------------------------------
 BYTE   PATT
  POIN2 Label_8_01481F39
// 019   ----------------------------------------
 BYTE   PATT
  POIN2 Label_8_01481F47
// 020   ----------------------------------------
 BYTE   PATT
  POIN2 Label_8_01481F39
// 021   ----------------------------------------
 BYTE   PATT
  POIN2 Label_8_01481F47
// 022   ----------------------------------------
 BYTE   PATT
  POIN2 Label_8_01481F39
// 023   ----------------------------------------
 BYTE   N12  Cn3  v100
 BYTE   W24
 BYTE   N12
 BYTE   W24
 BYTE   N12
 BYTE   W24
 BYTE   N12
 BYTE   W12
 BYTE   N12
 BYTE   W12
// 024   ----------------------------------------
 BYTE   PATT
  POIN2 Label_8_01481EBE
// 025   ----------------------------------------
 BYTE   PATT
  POIN2 Label_8_01481EBE
// 026   ----------------------------------------
 BYTE   PATT
  POIN2 Label_8_01481EC5
// 027   ----------------------------------------
 BYTE   N12  Cn3  v100
 BYTE   W36
 BYTE   N06  Fn2
 BYTE   W06
 BYTE   An2
 BYTE   W06
 BYTE   N12  Fn2
 BYTE   W12
 BYTE   Cn3
 BYTE   W36
// 028   ----------------------------------------
 BYTE   PATT
  POIN2 Label_8_01481EBE
// 029   ----------------------------------------
 BYTE   PATT
  POIN2 Label_8_01481EBE
// 030   ----------------------------------------
 BYTE   PATT
  POIN2 Label_8_01481EDF
// 031   ----------------------------------------
 BYTE   N12  Fn2  v100
 BYTE   W36
 BYTE   N06
 BYTE   W06
 BYTE   An2
 BYTE   W06
 BYTE   N12  Fn2
 BYTE   W12
 BYTE   Cn3
 BYTE   W12
 BYTE   N06  Cn3  v080
 BYTE   W06
 BYTE   Cn3  v092
 BYTE   W06
 BYTE   Cn3  v100
 BYTE   W06
 BYTE   N06
 BYTE   W06
// 032   ----------------------------------------
 BYTE   W96
// 033   ----------------------------------------
 BYTE   W96
// 034   ----------------------------------------
 BYTE   W96
// 035   ----------------------------------------
 BYTE   W84
 BYTE   N12
 BYTE   W12
// 036   ----------------------------------------
 BYTE   N12
 BYTE   W96
// 037   ----------------------------------------
 BYTE   W96
// 038   ----------------------------------------
 BYTE   N12
 BYTE   W24
 BYTE   Fn2
 BYTE   W24
 BYTE   Cn3
 BYTE   W24
 BYTE   Fn2
 BYTE   W24
// 039   ----------------------------------------
 BYTE   Cn3
 BYTE   W24
 BYTE   Fn2
 BYTE   W24
 BYTE   Cn3  v080
 BYTE   W15
 BYTE   N03  Fn2  v076
 BYTE   W03
 BYTE   Cn3  v080
 BYTE   W03
 BYTE   Fn2  v092
 BYTE   W03
 BYTE   Cn3  v096
 BYTE   W03
 BYTE   Fn2  v100
 BYTE   W03
 BYTE   Cn3
 BYTE   W03
 BYTE   Fn2
 BYTE   W03
 BYTE   Cn3
 BYTE   W03
 BYTE   Fn2
 BYTE   W03
 BYTE   Cn3
 BYTE   W03
 BYTE   Fn2
 BYTE   W03
// 040   ----------------------------------------
 BYTE   PATT
  POIN2 Label_8_01481EBE
// 041   ----------------------------------------
 BYTE   PATT
  POIN2 Label_8_01481EBE
// 042   ----------------------------------------
 BYTE   PATT
  POIN2 Label_8_01481EC5
// 043   ----------------------------------------
 BYTE   N12  Cn3  v100
 BYTE   W36
 BYTE   N06  Fn2
 BYTE   W06
 BYTE   Cn3
 BYTE   W06
 BYTE   N12  Fn2
 BYTE   W12
 BYTE   Cn3
 BYTE   W36
// 044   ----------------------------------------
 BYTE   PATT
  POIN2 Label_8_01481EBE
// 045   ----------------------------------------
 BYTE   PATT
  POIN2 Label_8_01481EBE
// 046   ----------------------------------------
 BYTE   PATT
  POIN2 Label_8_01481EDF
// 047   ----------------------------------------
 BYTE   N12  Fn2  v100
 BYTE   W36
 BYTE   N06
 BYTE   W06
 BYTE   Cn3
 BYTE   W06
 BYTE   N12  Fn2
 BYTE   W12
 BYTE   Cn3
 BYTE   W12
 BYTE   N06  Cn3  v080
 BYTE   W06
 BYTE   Cn3  v092
 BYTE   W06
 BYTE   Cn3  v100
 BYTE   W06
 BYTE   N06
 BYTE   W06
// 048   ----------------------------------------
 BYTE   N12
 BYTE   W96
// 049   ----------------------------------------
Label_8_0148203C:
 BYTE   W78
 BYTE   N03  Cn3  v072
 BYTE   W03
 BYTE   N03
 BYTE   W03
 BYTE   Cn3  v076
 BYTE   W03
 BYTE   N03
 BYTE   W03
 BYTE   Cn3  v080
 BYTE   W03
 BYTE   N03
 BYTE   W03
 BYTE   PEND 
// 050   ----------------------------------------
 BYTE   N12  Cn3  v100
 BYTE   W96
// 051   ----------------------------------------
 BYTE   PATT
  POIN2 Label_8_0148203C
// 052   ----------------------------------------
 BYTE   N12  Cn3  v100
 BYTE   W78
 BYTE   N03  Cn3  v072
 BYTE   W03
 BYTE   N03
 BYTE   W03
 BYTE   Cn3  v076
 BYTE   W03
 BYTE   N03
 BYTE   W03
 BYTE   Cn3  v080
 BYTE   W03
 BYTE   N03
 BYTE   W03
// 053   ----------------------------------------
 BYTE   N12  Cn3  v100
 BYTE   W96
// 054   ----------------------------------------
 BYTE   En2
 BYTE   W24
 BYTE   Cn3
 BYTE   W24
 BYTE   Fn2
 BYTE   W24
 BYTE   Cn3
 BYTE   W24
// 055   ----------------------------------------
Label_8_01482077:
 BYTE   N12  Fn2  v100
 BYTE   W24
 BYTE   Cn3
 BYTE   W24
 BYTE   Fn2
 BYTE   W24
 BYTE   Cn3
 BYTE   W24
 BYTE   PEND 
// 056   ----------------------------------------
 BYTE   PATT
  POIN2 Label_8_01482077
// 057   ----------------------------------------
 BYTE   PATT
  POIN2 Label_8_01482077
// 058   ----------------------------------------
 BYTE   N12  Cn3  v100
 BYTE   W36
 BYTE   N12
 BYTE   W48
 BYTE   N03  Fn2
 BYTE   W03
 BYTE   N03
 BYTE   W03
 BYTE   N03
 BYTE   W03
 BYTE   N03
 BYTE   W03
// 059   ----------------------------------------
Label_8_0148209B:
 BYTE   N12  Cn3  v100
 BYTE   W36
 BYTE   N12
 BYTE   W24
 BYTE   Fn2
 BYTE   W12
 BYTE   Cn3
 BYTE   W12
 BYTE   Fn2
 BYTE   W12
 BYTE   PEND 
// 060   ----------------------------------------
 BYTE   PATT
  POIN2 Label_8_0148209B
// 061   ----------------------------------------
 BYTE   N12  Cn3  v100
 BYTE   W36
 BYTE   Fn2
 BYTE   W24
 BYTE   Cn3
 BYTE   W12
 BYTE   Gn2
 BYTE   W12
 BYTE   Cn3
 BYTE   W12
// 062   ----------------------------------------
 BYTE   PATT
  POIN2 Label_8_01481EC5
// 063   ----------------------------------------
 BYTE   N12  Cn3  v100
 BYTE   W24
 BYTE   GoTo
  POIN2 Label_8_01481EB6
 BYTE   FINE

//**************** Track 10 (Midi-Chn.9) ****************//

song03DB_010:
// 000   ----------------------------------------
 BYTE   KEYSH   song03DB_key+0
Label_9_0146F5D2:
 BYTE   VOICE   57
 BYTE   PAN   c_v-19
 BYTE   VOL   27*song03DB_mvl/mxv
 BYTE   W96
// 001   ----------------------------------------
 BYTE   W96
// 002   ----------------------------------------
 BYTE   W96
// 003   ----------------------------------------
 BYTE   W96
// 004   ----------------------------------------
 BYTE   W96
// 005   ----------------------------------------
 BYTE   W96
// 006   ----------------------------------------
 BYTE   W96
// 007   ----------------------------------------
 BYTE   W96
// 008   ----------------------------------------
 BYTE   W96
// 009   ----------------------------------------
 BYTE   W96
// 010   ----------------------------------------
 BYTE   W96
// 011   ----------------------------------------
 BYTE   W96
// 012   ----------------------------------------
 BYTE   W96
// 013   ----------------------------------------
 BYTE   W96
// 014   ----------------------------------------
 BYTE   W96
// 015   ----------------------------------------
 BYTE   W96
// 016   ----------------------------------------
 BYTE   W96
// 017   ----------------------------------------
 BYTE   W96
// 018   ----------------------------------------
 BYTE   W96
// 019   ----------------------------------------
 BYTE   W96
// 020   ----------------------------------------
 BYTE   W96
// 021   ----------------------------------------
 BYTE   W96
// 022   ----------------------------------------
 BYTE   W96
// 023   ----------------------------------------
 BYTE   N24  Cn4  v060
 BYTE   W24
 BYTE   Cn3  v068
 BYTE   W24
 BYTE   Gn3  v072
 BYTE   W24
 BYTE   Cn4  v076
 BYTE   W24
// 024   ----------------------------------------
Label_9_0146F5FC:
 BYTE   N36  Cn3  v100
 BYTE   W48
 BYTE   N12  Fn3
 BYTE   W24
 BYTE   An3
 BYTE   W24
 BYTE   PEND 
// 025   ----------------------------------------
Label_9_0146F606:
 BYTE   N36  An3  v100
 BYTE   W48
 BYTE   Dn3
 BYTE   W48
 BYTE   PEND 
// 026   ----------------------------------------
Label_9_0146F60D:
 BYTE   N60  Dn3  v100
 BYTE   W60
 BYTE   N06  En3
 BYTE   W12
 BYTE   Fn3
 BYTE   W12
 BYTE   Gn3
 BYTE   W12
 BYTE   PEND 
// 027   ----------------------------------------
Label_9_0146F619:
 BYTE   N36  Fn3  v100
 BYTE   W48
 BYTE   En3
 BYTE   W48
 BYTE   PEND 
// 028   ----------------------------------------
 BYTE   PATT
  POIN2 Label_9_0146F5FC
// 029   ----------------------------------------
Label_9_0146F625:
 BYTE   N48  Cn4  v100
 BYTE   W48
 BYTE   N12  As3
 BYTE   W24
 BYTE   An3
 BYTE   W24
 BYTE   PEND 
// 030   ----------------------------------------
Label_9_0146F62F:
 BYTE   N48  Dn3  v100
 BYTE   W60
 BYTE   N06  En3
 BYTE   W12
 BYTE   Fn3
 BYTE   W12
 BYTE   Gn3
 BYTE   W12
 BYTE   PEND 
// 031   ----------------------------------------
 BYTE   N72  Fn3
 BYTE   W96
// 032   ----------------------------------------
 BYTE   N48  Cn3  v112
 BYTE   W48
 BYTE   N24  Fn3
 BYTE   W24
 BYTE   An3
 BYTE   W24
// 033   ----------------------------------------
 BYTE   N36
 BYTE   W36
 BYTE   N12  As3
 BYTE   W12
 BYTE   N48  Gn3
 BYTE   W48
// 034   ----------------------------------------
 BYTE   W24
 BYTE   N24  An3
 BYTE   W24
 BYTE   Fn3
 BYTE   W24
 BYTE   Cn3
 BYTE   W24
// 035   ----------------------------------------
 BYTE   N36  Gn3
 BYTE   W36
 BYTE   N12  An3
 BYTE   W12
 BYTE   N48  Fn3
 BYTE   W48
// 036   ----------------------------------------
 BYTE   W24
 BYTE   N24  Dn3
 BYTE   W24
 BYTE   Dn4
 BYTE   W24
 BYTE   N12  Cn4
 BYTE   W12
 BYTE   As3
 BYTE   W12
// 037   ----------------------------------------
 BYTE   N48  Cn4
 BYTE   W48
 BYTE   N24  An3
 BYTE   W24
 BYTE   Fn3
 BYTE   W24
// 038   ----------------------------------------
 BYTE   Dn3
 BYTE   W24
 BYTE   As3
 BYTE   W24
 BYTE   Gn3
 BYTE   W24
 BYTE   En3
 BYTE   W24
// 039   ----------------------------------------
 BYTE   N36  Gn3
 BYTE   W36
 BYTE   N12  Fn3
 BYTE   W12
 BYTE   N48
 BYTE   W48
// 040   ----------------------------------------
 BYTE   PATT
  POIN2 Label_9_0146F5FC
// 041   ----------------------------------------
 BYTE   PATT
  POIN2 Label_9_0146F606
// 042   ----------------------------------------
 BYTE   PATT
  POIN2 Label_9_0146F60D
// 043   ----------------------------------------
 BYTE   PATT
  POIN2 Label_9_0146F619
// 044   ----------------------------------------
 BYTE   PATT
  POIN2 Label_9_0146F5FC
// 045   ----------------------------------------
 BYTE   PATT
  POIN2 Label_9_0146F625
// 046   ----------------------------------------
 BYTE   PATT
  POIN2 Label_9_0146F62F
// 047   ----------------------------------------
 BYTE   N72  Fn3  v100
 BYTE   W96
// 048   ----------------------------------------
 BYTE   W96
// 049   ----------------------------------------
 BYTE   W96
// 050   ----------------------------------------
 BYTE   W96
// 051   ----------------------------------------
 BYTE   W96
// 052   ----------------------------------------
 BYTE   W96
// 053   ----------------------------------------
 BYTE   W96
// 054   ----------------------------------------
 BYTE   N12  Dn3  v112
 BYTE   W24
 BYTE   N08
 BYTE   W08
 BYTE   N08
 BYTE   W08
 BYTE   N08
 BYTE   W08
 BYTE   N12  En3
 BYTE   W24
 BYTE   N08
 BYTE   W08
 BYTE   N08
 BYTE   W08
 BYTE   N08
 BYTE   W08
// 055   ----------------------------------------
 BYTE   N12  Fn3
 BYTE   W24
 BYTE   N08
 BYTE   W08
 BYTE   N08
 BYTE   W08
 BYTE   N08
 BYTE   W08
 BYTE   N12  Gn3
 BYTE   W24
 BYTE   N24
 BYTE   W24
// 056   ----------------------------------------
 BYTE   N12  Fn3
 BYTE   W24
 BYTE   N08
 BYTE   W08
 BYTE   N08
 BYTE   W08
 BYTE   N08
 BYTE   W08
 BYTE   N12  Gn3
 BYTE   W24
 BYTE   N08
 BYTE   W08
 BYTE   N08
 BYTE   W08
 BYTE   N08
 BYTE   W08
// 057   ----------------------------------------
 BYTE   N12  An3
 BYTE   W24
 BYTE   N08
 BYTE   W08
 BYTE   N08
 BYTE   W08
 BYTE   N08
 BYTE   W08
 BYTE   N24  Bn3
 BYTE   W24
 BYTE   N24
 BYTE   W24
// 058   ----------------------------------------
 BYTE   W24
 BYTE   Cn3  v100
 BYTE   W24
 BYTE   Gn3
 BYTE   W24
 BYTE   N06  Fn3
 BYTE   W12
 BYTE   En3
 BYTE   W12
// 059   ----------------------------------------
 BYTE   N06
 BYTE   W12
 BYTE   Dn3
 BYTE   W12
 BYTE   N48  Fn3
 BYTE   W48
 BYTE   N24  An3
 BYTE   W24
// 060   ----------------------------------------
 BYTE   N60  Gn3
 BYTE   W60
 BYTE   N06
 BYTE   W12
 BYTE   Fn3
 BYTE   W12
 BYTE   En3
 BYTE   W12
// 061   ----------------------------------------
 BYTE   N06
 BYTE   W12
 BYTE   Dn3
 BYTE   W12
 BYTE   N48  Fn3
 BYTE   W48
 BYTE   N06  An3
 BYTE   W12
 BYTE   Fn3
 BYTE   W12
// 062   ----------------------------------------
 BYTE   N96  Gn3
 BYTE   W96
// 063   ----------------------------------------
 BYTE   N24  Gn2
 BYTE   W24
 BYTE   GoTo
  POIN2 Label_9_0146F5D2
 BYTE   FINE

//**************** Track 11 (Midi-Chn.10) ****************//

song03DB_011:
// 000   ----------------------------------------
 BYTE   KEYSH   song03DB_key+0
Label_10_014709A6:
 BYTE   VOICE   57
 BYTE   PAN   c_v-16
 BYTE   VOL   27*song03DB_mvl/mxv
 BYTE   W96
// 001   ----------------------------------------
 BYTE   W96
// 002   ----------------------------------------
 BYTE   W96
// 003   ----------------------------------------
 BYTE   W96
// 004   ----------------------------------------
 BYTE   W96
// 005   ----------------------------------------
 BYTE   W96
// 006   ----------------------------------------
 BYTE   W96
// 007   ----------------------------------------
 BYTE   W96
// 008   ----------------------------------------
 BYTE   W96
// 009   ----------------------------------------
 BYTE   W96
// 010   ----------------------------------------
 BYTE   W96
// 011   ----------------------------------------
 BYTE   W96
// 012   ----------------------------------------
 BYTE   W96
// 013   ----------------------------------------
 BYTE   W96
// 014   ----------------------------------------
 BYTE   W96
// 015   ----------------------------------------
 BYTE   W96
// 016   ----------------------------------------
 BYTE   W96
// 017   ----------------------------------------
 BYTE   W96
// 018   ----------------------------------------
 BYTE   W96
// 019   ----------------------------------------
 BYTE   W96
// 020   ----------------------------------------
 BYTE   W96
// 021   ----------------------------------------
 BYTE   W96
// 022   ----------------------------------------
 BYTE   W96
// 023   ----------------------------------------
 BYTE   W96
// 024   ----------------------------------------
Label_10_014709C4:
 BYTE   N06  Fn3  v100
 BYTE   W12
 BYTE   N06
 BYTE   W24
 BYTE   N03
 BYTE   W06
 BYTE   N03
 BYTE   W06
 BYTE   N06
 BYTE   W12
 BYTE   N06
 BYTE   W36
 BYTE   PEND 
// 025   ----------------------------------------
 BYTE   PATT
  POIN2 Label_10_014709C4
// 026   ----------------------------------------
 BYTE   PATT
  POIN2 Label_10_014709C4
// 027   ----------------------------------------
Label_10_014709DD:
 BYTE   N06  Fn3  v100
 BYTE   W12
 BYTE   N06
 BYTE   W24
 BYTE   N03
 BYTE   W06
 BYTE   N03
 BYTE   W06
 BYTE   N06  En3
 BYTE   W12
 BYTE   N06
 BYTE   W36
 BYTE   PEND 
// 028   ----------------------------------------
 BYTE   PATT
  POIN2 Label_10_014709C4
// 029   ----------------------------------------
 BYTE   PATT
  POIN2 Label_10_014709C4
// 030   ----------------------------------------
 BYTE   PATT
  POIN2 Label_10_014709DD
// 031   ----------------------------------------
Label_10_014709FC:
 BYTE   N06  An3  v100
 BYTE   W12
 BYTE   N06
 BYTE   W24
 BYTE   N03
 BYTE   W06
 BYTE   N03
 BYTE   W06
 BYTE   N24
 BYTE   W48
 BYTE   PEND 
// 032   ----------------------------------------
 BYTE   W96
// 033   ----------------------------------------
 BYTE   W96
// 034   ----------------------------------------
 BYTE   W96
// 035   ----------------------------------------
 BYTE   W96
// 036   ----------------------------------------
 BYTE   W96
// 037   ----------------------------------------
 BYTE   W96
// 038   ----------------------------------------
 BYTE   W96
// 039   ----------------------------------------
 BYTE   W96
// 040   ----------------------------------------
 BYTE   PATT
  POIN2 Label_10_014709C4
// 041   ----------------------------------------
 BYTE   PATT
  POIN2 Label_10_014709C4
// 042   ----------------------------------------
 BYTE   PATT
  POIN2 Label_10_014709C4
// 043   ----------------------------------------
 BYTE   PATT
  POIN2 Label_10_014709DD
// 044   ----------------------------------------
 BYTE   PATT
  POIN2 Label_10_014709C4
// 045   ----------------------------------------
 BYTE   PATT
  POIN2 Label_10_014709C4
// 046   ----------------------------------------
 BYTE   PATT
  POIN2 Label_10_014709DD
// 047   ----------------------------------------
 BYTE   PATT
  POIN2 Label_10_014709FC
// 048   ----------------------------------------
 BYTE   W96
// 049   ----------------------------------------
 BYTE   W96
// 050   ----------------------------------------
 BYTE   W96
// 051   ----------------------------------------
 BYTE   W96
// 052   ----------------------------------------
 BYTE   W96
// 053   ----------------------------------------
 BYTE   W96
// 054   ----------------------------------------
 BYTE   N48  An2  v100
 BYTE   W48
 BYTE   Bn2
 BYTE   W48
// 055   ----------------------------------------
Label_10_01470A45:
 BYTE   N48  Cn3  v100
 BYTE   W48
 BYTE   Dn3
 BYTE   W48
 BYTE   PEND 
// 056   ----------------------------------------
 BYTE   PATT
  POIN2 Label_10_01470A45
// 057   ----------------------------------------
 BYTE   N48  En3  v100
 BYTE   W48
 BYTE   N24  Fn3
 BYTE   W24
 BYTE   Bn2
 BYTE   W24
// 058   ----------------------------------------
 BYTE   N96  Cn3
 BYTE   W96
// 059   ----------------------------------------
 BYTE   N72  Dn3
 BYTE   W72
 BYTE   N24
 BYTE   W24
// 060   ----------------------------------------
 BYTE   N96  Cn3
 BYTE   W96
// 061   ----------------------------------------
 BYTE   Dn3
 BYTE   W96
// 062   ----------------------------------------
 BYTE   En3
 BYTE   W96
// 063   ----------------------------------------
 BYTE   N24  Cn3
 BYTE   W24
 BYTE   GoTo
  POIN2 Label_10_014709A6
 BYTE   FINE

//**************** Track 12 (Midi-Chn.11) ****************//

song03DB_012:
// 000   ----------------------------------------
 BYTE   KEYSH   song03DB_key+0
Label_11_01470EA6:
 BYTE   VOICE   57
 BYTE   VOL   25*song03DB_mvl/mxv
 BYTE   PAN   c_v-16
 BYTE   W96
// 001   ----------------------------------------
 BYTE   W96
// 002   ----------------------------------------
 BYTE   W96
// 003   ----------------------------------------
 BYTE   W96
// 004   ----------------------------------------
 BYTE   W96
// 005   ----------------------------------------
 BYTE   W96
// 006   ----------------------------------------
 BYTE   W96
// 007   ----------------------------------------
 BYTE   W96
// 008   ----------------------------------------
 BYTE   W96
// 009   ----------------------------------------
 BYTE   W96
// 010   ----------------------------------------
 BYTE   W96
// 011   ----------------------------------------
 BYTE   W96
// 012   ----------------------------------------
 BYTE   W96
// 013   ----------------------------------------
 BYTE   W96
// 014   ----------------------------------------
 BYTE   W96
// 015   ----------------------------------------
 BYTE   W96
// 016   ----------------------------------------
 BYTE   W96
// 017   ----------------------------------------
 BYTE   W96
// 018   ----------------------------------------
 BYTE   W96
// 019   ----------------------------------------
 BYTE   W96
// 020   ----------------------------------------
 BYTE   W96
// 021   ----------------------------------------
 BYTE   W96
// 022   ----------------------------------------
 BYTE   W96
// 023   ----------------------------------------
 BYTE   W96
// 024   ----------------------------------------
Label_11_01470EC4:
 BYTE   N06  An2  v100
 BYTE   W12
 BYTE   N06
 BYTE   W24
 BYTE   N03
 BYTE   W06
 BYTE   N03
 BYTE   W06
 BYTE   N06
 BYTE   W12
 BYTE   N06
 BYTE   W36
 BYTE   PEND 
// 025   ----------------------------------------
Label_11_01470ED3:
 BYTE   N06  As2  v100
 BYTE   W12
 BYTE   N06
 BYTE   W24
 BYTE   N03
 BYTE   W06
 BYTE   N03
 BYTE   W06
 BYTE   N06
 BYTE   W12
 BYTE   N06
 BYTE   W36
 BYTE   PEND 
// 026   ----------------------------------------
Label_11_01470EE2:
 BYTE   N06  Gn2  v100
 BYTE   W12
 BYTE   N06
 BYTE   W24
 BYTE   N03
 BYTE   W06
 BYTE   N03
 BYTE   W06
 BYTE   N06
 BYTE   W12
 BYTE   N06
 BYTE   W36
 BYTE   PEND 
// 027   ----------------------------------------
Label_11_01470EF1:
 BYTE   N06  As2  v100
 BYTE   W12
 BYTE   N06
 BYTE   W24
 BYTE   N03
 BYTE   W06
 BYTE   N03
 BYTE   W06
 BYTE   N06  Gn2
 BYTE   W12
 BYTE   N06
 BYTE   W36
 BYTE   PEND 
// 028   ----------------------------------------
 BYTE   PATT
  POIN2 Label_11_01470EC4
// 029   ----------------------------------------
 BYTE   PATT
  POIN2 Label_11_01470ED3
// 030   ----------------------------------------
 BYTE   PATT
  POIN2 Label_11_01470EE2
// 031   ----------------------------------------
Label_11_01470F10:
 BYTE   N06  Cn3  v100
 BYTE   W12
 BYTE   N06
 BYTE   W24
 BYTE   N03
 BYTE   W06
 BYTE   N03
 BYTE   W06
 BYTE   N24
 BYTE   W48
 BYTE   PEND 
// 032   ----------------------------------------
 BYTE   W96
// 033   ----------------------------------------
 BYTE   W96
// 034   ----------------------------------------
 BYTE   W96
// 035   ----------------------------------------
 BYTE   W96
// 036   ----------------------------------------
 BYTE   W96
// 037   ----------------------------------------
 BYTE   W96
// 038   ----------------------------------------
 BYTE   W96
// 039   ----------------------------------------
 BYTE   W96
// 040   ----------------------------------------
 BYTE   PATT
  POIN2 Label_11_01470EC4
// 041   ----------------------------------------
 BYTE   PATT
  POIN2 Label_11_01470ED3
// 042   ----------------------------------------
 BYTE   PATT
  POIN2 Label_11_01470EE2
// 043   ----------------------------------------
 BYTE   PATT
  POIN2 Label_11_01470EF1
// 044   ----------------------------------------
 BYTE   PATT
  POIN2 Label_11_01470EC4
// 045   ----------------------------------------
 BYTE   PATT
  POIN2 Label_11_01470ED3
// 046   ----------------------------------------
 BYTE   PATT
  POIN2 Label_11_01470EE2
// 047   ----------------------------------------
 BYTE   PATT
  POIN2 Label_11_01470F10
// 048   ----------------------------------------
 BYTE   N72  Gn2  v100
 BYTE   W72
 BYTE   N08
 BYTE   W08
 BYTE   N08
 BYTE   W08
 BYTE   N08
 BYTE   W08
// 049   ----------------------------------------
 BYTE   N96
 BYTE   W96
// 050   ----------------------------------------
 BYTE   N72  As2
 BYTE   W72
 BYTE   N08
 BYTE   W08
 BYTE   N08
 BYTE   W08
 BYTE   N08
 BYTE   W08
// 051   ----------------------------------------
 BYTE   N96  An2
 BYTE   W96
// 052   ----------------------------------------
 BYTE   N72  Gs2
 BYTE   W72
 BYTE   N08
 BYTE   W08
 BYTE   N08
 BYTE   W08
 BYTE   N08
 BYTE   W08
// 053   ----------------------------------------
 BYTE   N48  Gn2
 BYTE   W48
 BYTE   En2
 BYTE   W48
// 054   ----------------------------------------
 BYTE   Fn2
 BYTE   W48
 BYTE   Gn2
 BYTE   W48
// 055   ----------------------------------------
Label_11_01470F77:
 BYTE   N48  An2  v100
 BYTE   W48
 BYTE   Bn2
 BYTE   W48
 BYTE   PEND 
// 056   ----------------------------------------
 BYTE   PATT
  POIN2 Label_11_01470F77
// 057   ----------------------------------------
 BYTE   N48  Cn3  v100
 BYTE   W48
 BYTE   N24  Dn3
 BYTE   W24
 BYTE   Gn2
 BYTE   W24
// 058   ----------------------------------------
 BYTE   N96  En2
 BYTE   W96
// 059   ----------------------------------------
 BYTE   N72  Fn2
 BYTE   W72
 BYTE   N24
 BYTE   W24
// 060   ----------------------------------------
 BYTE   N96  En2
 BYTE   W96
// 061   ----------------------------------------
 BYTE   Fn2
 BYTE   W96
// 062   ----------------------------------------
 BYTE   Gn2
 BYTE   W96
// 063   ----------------------------------------
 BYTE   N24  En2
 BYTE   W24
 BYTE   GoTo
  POIN2 Label_11_01470EA6
 BYTE   FINE

//**************** Track 13 (Midi-Chn.12) ****************//

song03DB_013:
// 000   ----------------------------------------
 BYTE   VOL   35*song03DB_mvl/mxv
 BYTE   KEYSH   song03DB_key+0
Label_12_014820CC:
 BYTE   VOICE   127
 BYTE   PAN   c_v+0
 BYTE   N06  Dn1  v100
 BYTE   N06  Bn1  v080
 BYTE   W12
 BYTE   Dn1  v100
 BYTE   N06  Bn1  v080
 BYTE   W24
 BYTE   Dn1  v100
 BYTE   N06  Bn1  v080
 BYTE   W06
 BYTE   Dn1  v100
 BYTE   N06  Bn1  v080
 BYTE   W06
 BYTE   Dn1  v100
 BYTE   N06  Bn1  v080
 BYTE   W12
 BYTE   Dn1  v100
 BYTE   N06  Bn1  v080
 BYTE   W24
 BYTE   N03  Dn1  v100
 BYTE   W03
 BYTE   N03
 BYTE   W03
 BYTE   N03
 BYTE   W03
 BYTE   N03
 BYTE   W03
// 001   ----------------------------------------
Label_12_014820FF:
 BYTE   N06  Dn1  v100
 BYTE   N06  Bn1  v080
 BYTE   W12
 BYTE   Dn1  v100
 BYTE   N06  Bn1  v080
 BYTE   W24
 BYTE   Dn1  v100
 BYTE   N06  Bn1  v080
 BYTE   W06
 BYTE   Dn1  v100
 BYTE   N06  Bn1  v080
 BYTE   W06
 BYTE   Dn1  v100
 BYTE   N06  Bn1  v080
 BYTE   W12
 BYTE   Dn1  v100
 BYTE   N06  Bn1  v080
 BYTE   W24
 BYTE   N03  Dn1  v100
 BYTE   W03
 BYTE   N03
 BYTE   W03
 BYTE   N03
 BYTE   W03
 BYTE   N03
 BYTE   W03
 BYTE   PEND 
// 002   ----------------------------------------
Label_12_0148212F:
 BYTE   N06  Dn1  v100
 BYTE   N06  Bn1  v080
 BYTE   W12
 BYTE   Dn1  v100
 BYTE   N06  Bn1  v080
 BYTE   W24
 BYTE   Dn1  v100
 BYTE   N06  Bn1  v080
 BYTE   W06
 BYTE   Dn1  v100
 BYTE   N06  Bn1  v080
 BYTE   W06
 BYTE   Dn1  v100
 BYTE   N06  Bn1  v080
 BYTE   W12
 BYTE   Dn1  v100
 BYTE   N06  Bn1  v080
 BYTE   W24
 BYTE   Dn1  v100
 BYTE   N06  Bn1  v080
 BYTE   W06
 BYTE   Dn1  v100
 BYTE   N06  Bn1  v080
 BYTE   W06
 BYTE   PEND 
// 003   ----------------------------------------
Label_12_01482161:
 BYTE   N06  Dn1  v100
 BYTE   N06  Bn1  v080
 BYTE   W12
 BYTE   Dn1  v100
 BYTE   N06  Bn1  v080
 BYTE   W24
 BYTE   Dn1  v100
 BYTE   N06  Bn1  v080
 BYTE   W06
 BYTE   Dn1  v100
 BYTE   N06  Bn1  v080
 BYTE   W06
 BYTE   Dn1  v100
 BYTE   N06  Bn1  v080
 BYTE   W12
 BYTE   Dn1  v100
 BYTE   N06  Bn1  v080
 BYTE   W12
 BYTE   N03  Dn1  v100
 BYTE   W03
 BYTE   N03
 BYTE   W03
 BYTE   N03
 BYTE   W03
 BYTE   N03
 BYTE   W03
 BYTE   N03
 BYTE   W03
 BYTE   N03
 BYTE   W03
 BYTE   N03
 BYTE   W03
 BYTE   N03
 BYTE   W03
 BYTE   PEND 
// 004   ----------------------------------------
Label_12_01482199:
 BYTE   N06  Dn1  v100
 BYTE   N06  Bn1  v080
 BYTE   W12
 BYTE   Dn1  v100
 BYTE   N06  Bn1  v080
 BYTE   W24
 BYTE   Dn1  v100
 BYTE   N06  Bn1  v080
 BYTE   W06
 BYTE   Dn1  v100
 BYTE   N06  Bn1  v080
 BYTE   W06
 BYTE   Dn1  v100
 BYTE   N06  Bn1  v080
 BYTE   W12
 BYTE   Dn1  v100
 BYTE   N06  Bn1  v080
 BYTE   W36
 BYTE   PEND 
// 005   ----------------------------------------
 BYTE   PATT
  POIN2 Label_12_014820FF
// 006   ----------------------------------------
 BYTE   PATT
  POIN2 Label_12_014820FF
// 007   ----------------------------------------
Label_12_014821C9:
 BYTE   N06  Dn1  v100
 BYTE   N06  Bn1  v080
 BYTE   W12
 BYTE   Dn1  v100
 BYTE   N06  Bn1  v080
 BYTE   W24
 BYTE   Dn1  v100
 BYTE   N06  Bn1  v080
 BYTE   W06
 BYTE   N03  Dn1  v100
 BYTE   W03
 BYTE   N03
 BYTE   W03
 BYTE   N03
 BYTE   W03
 BYTE   N03
 BYTE   W03
 BYTE   N03
 BYTE   W03
 BYTE   N03
 BYTE   W03
 BYTE   N03
 BYTE   W03
 BYTE   N03
 BYTE   W03
 BYTE   N03
 BYTE   W03
 BYTE   N03
 BYTE   W03
 BYTE   N03
 BYTE   W03
 BYTE   N03
 BYTE   W03
 BYTE   N03
 BYTE   W03
 BYTE   N03
 BYTE   W03
 BYTE   N03
 BYTE   W03
 BYTE   N03
 BYTE   W03
 BYTE   N03
 BYTE   W03
 BYTE   N03
 BYTE   W03
 BYTE   PEND 
// 008   ----------------------------------------
 BYTE   PATT
  POIN2 Label_12_014820FF
// 009   ----------------------------------------
 BYTE   PATT
  POIN2 Label_12_01482161
// 010   ----------------------------------------
 BYTE   N06  Dn1  v100
 BYTE   N06  Bn1  v080
 BYTE   W12
 BYTE   Dn1  v100
 BYTE   N06  Bn1  v080
 BYTE   W24
 BYTE   Dn1  v100
 BYTE   N06  Bn1  v080
 BYTE   W06
 BYTE   Dn1  v100
 BYTE   N06  Bn1  v080
 BYTE   W06
 BYTE   Dn1  v100
 BYTE   N06  Bn1  v080
 BYTE   W12
 BYTE   Dn1  v100
 BYTE   N06  Bn1  v080
 BYTE   W24
 BYTE   Dn1  v100
 BYTE   N06  Bn1  v080
 BYTE   W12
// 011   ----------------------------------------
 BYTE   PATT
  POIN2 Label_12_01482161
// 012   ----------------------------------------
 BYTE   PATT
  POIN2 Label_12_014820FF
// 013   ----------------------------------------
 BYTE   PATT
  POIN2 Label_12_014820FF
// 014   ----------------------------------------
 BYTE   PATT
  POIN2 Label_12_014820FF
// 015   ----------------------------------------
 BYTE   PATT
  POIN2 Label_12_01482161
// 016   ----------------------------------------
Label_12_01482251:
 BYTE   N06  Dn1  v076
 BYTE   N06  Bn1  v060
 BYTE   W12
 BYTE   Dn1  v088
 BYTE   N06  Bn1  v060
 BYTE   W12
 BYTE   Dn1  v088
 BYTE   N06  Bn1  v060
 BYTE   W12
 BYTE   Dn1  v076
 BYTE   N06  Bn1  v060
 BYTE   W06
 BYTE   Dn1  v076
 BYTE   N06  Bn1  v060
 BYTE   W06
 BYTE   Dn1  v076
 BYTE   N06  Bn1  v060
 BYTE   W12
 BYTE   Dn1  v076
 BYTE   N06  Bn1  v060
 BYTE   W12
 BYTE   Dn1  v076
 BYTE   N06  Bn1  v060
 BYTE   W12
 BYTE   Dn1  v076
 BYTE   N06  Bn1  v060
 BYTE   W06
 BYTE   Dn1  v076
 BYTE   N06  Bn1  v060
 BYTE   W06
 BYTE   PEND 
// 017   ----------------------------------------
 BYTE   PATT
  POIN2 Label_12_01482251
// 018   ----------------------------------------
Label_12_01482294:
 BYTE   N06  Dn1  v076
 BYTE   N06  Bn1  v060
 BYTE   W12
 BYTE   Dn1  v088
 BYTE   N06  Bn1  v060
 BYTE   W12
 BYTE   Dn1  v088
 BYTE   N06  Bn1  v060
 BYTE   W12
 BYTE   Dn1  v076
 BYTE   N06  Bn1  v060
 BYTE   W06
 BYTE   Dn1  v076
 BYTE   N06  Bn1  v060
 BYTE   W06
 BYTE   Dn1  v076
 BYTE   N06  Bn1  v060
 BYTE   W12
 BYTE   Dn1  v076
 BYTE   N06  Bn1  v060
 BYTE   W12
 BYTE   Dn1  v076
 BYTE   N06  Bn1  v060
 BYTE   W12
 BYTE   Dn1  v076
 BYTE   N06  Bn1  v060
 BYTE   W12
 BYTE   PEND 
// 019   ----------------------------------------
 BYTE   Dn1  v076
 BYTE   N06  Bn1  v060
 BYTE   W12
 BYTE   Dn1  v076
 BYTE   N06  Bn1  v060
 BYTE   W12
 BYTE   Dn1  v076
 BYTE   N06  Bn1  v060
 BYTE   W06
 BYTE   Dn1  v076
 BYTE   N06  Bn1  v060
 BYTE   W12
 BYTE   Dn1  v076
 BYTE   N06  Bn1  v060
 BYTE   W06
 BYTE   Dn1  v076
 BYTE   N06  Bn1  v060
 BYTE   W12
 BYTE   Dn1  v076
 BYTE   N06  Bn1  v060
 BYTE   W12
 BYTE   Dn1  v076
 BYTE   N06  Bn1  v060
 BYTE   W12
 BYTE   Dn1  v076
 BYTE   N06  Bn1  v060
 BYTE   W12
// 020   ----------------------------------------
 BYTE   PATT
  POIN2 Label_12_01482294
// 021   ----------------------------------------
 BYTE   PATT
  POIN2 Label_12_01482294
// 022   ----------------------------------------
 BYTE   PATT
  POIN2 Label_12_01482294
// 023   ----------------------------------------
 BYTE   N06  Dn1  v076
 BYTE   N06  Bn1  v060
 BYTE   W12
 BYTE   Dn1  v088
 BYTE   N06  Bn1  v060
 BYTE   W06
 BYTE   Dn1  v076
 BYTE   N06  Bn1  v060
 BYTE   W06
 BYTE   Dn1  v088
 BYTE   N06  Bn1  v060
 BYTE   W12
 BYTE   Dn1  v076
 BYTE   N06  Bn1  v060
 BYTE   W06
 BYTE   Dn1  v076
 BYTE   N06  Bn1  v060
 BYTE   W06
 BYTE   Dn1  v076
 BYTE   N06  Bn1  v060
 BYTE   W12
 BYTE   Dn1  v076
 BYTE   N06  Bn1  v060
 BYTE   W12
 BYTE   Dn1  v076
 BYTE   N06  Bn1  v060
 BYTE   W12
 BYTE   Dn1  v076
 BYTE   N06  Bn1  v060
 BYTE   W12
// 024   ----------------------------------------
 BYTE   PATT
  POIN2 Label_12_014820FF
// 025   ----------------------------------------
 BYTE   PATT
  POIN2 Label_12_014820FF
// 026   ----------------------------------------
 BYTE   PATT
  POIN2 Label_12_0148212F
// 027   ----------------------------------------
 BYTE   PATT
  POIN2 Label_12_01482161
// 028   ----------------------------------------
 BYTE   PATT
  POIN2 Label_12_01482199
// 029   ----------------------------------------
 BYTE   PATT
  POIN2 Label_12_014820FF
// 030   ----------------------------------------
 BYTE   PATT
  POIN2 Label_12_014820FF
// 031   ----------------------------------------
 BYTE   PATT
  POIN2 Label_12_014821C9
// 032   ----------------------------------------
Label_12_01482376:
 BYTE   N06  Dn1  v100
 BYTE   N06  Bn1  v080
 BYTE   W12
 BYTE   Dn1  v100
 BYTE   N06  Bn1  v080
 BYTE   W12
 BYTE   Dn1  v100
 BYTE   N06  Bn1  v080
 BYTE   W12
 BYTE   Dn1  v100
 BYTE   N06  Bn1  v080
 BYTE   W06
 BYTE   Dn1  v100
 BYTE   N06  Bn1  v080
 BYTE   W06
 BYTE   Dn1  v100
 BYTE   N06  Bn1  v080
 BYTE   W12
 BYTE   Dn1  v100
 BYTE   N06  Bn1  v080
 BYTE   W12
 BYTE   Dn1  v100
 BYTE   N06  Bn1  v080
 BYTE   W12
 BYTE   Dn1  v100
 BYTE   N06  Bn1  v080
 BYTE   W06
 BYTE   Dn1  v100
 BYTE   N06  Bn1  v080
 BYTE   W06
 BYTE   PEND 
// 033   ----------------------------------------
 BYTE   PATT
  POIN2 Label_12_01482376
// 034   ----------------------------------------
 BYTE   PATT
  POIN2 Label_12_01482376
// 035   ----------------------------------------
 BYTE   N06  Dn1  v100
 BYTE   N06  Bn1  v080
 BYTE   W12
 BYTE   Dn1  v100
 BYTE   N06  Bn1  v080
 BYTE   W12
 BYTE   Dn1  v100
 BYTE   N06  Bn1  v080
 BYTE   W12
 BYTE   Dn1  v100
 BYTE   N06  Bn1  v080
 BYTE   W06
 BYTE   Dn1  v100
 BYTE   N06  Bn1  v080
 BYTE   W06
 BYTE   Dn1  v100
 BYTE   N06  Bn1  v080
 BYTE   W12
 BYTE   Dn1  v100
 BYTE   N06  Bn1  v080
 BYTE   W12
 BYTE   Dn1  v100
 BYTE   N06  Bn1  v080
 BYTE   W12
 BYTE   N03  Dn1  v100
 BYTE   W03
 BYTE   N03
 BYTE   W03
 BYTE   N03
 BYTE   W03
 BYTE   N03
 BYTE   W03
// 036   ----------------------------------------
 BYTE   PATT
  POIN2 Label_12_01482376
// 037   ----------------------------------------
 BYTE   PATT
  POIN2 Label_12_01482376
// 038   ----------------------------------------
 BYTE   PATT
  POIN2 Label_12_01482376
// 039   ----------------------------------------
 BYTE   N06  Dn1  v100
 BYTE   N06  Bn1  v080
 BYTE   W12
 BYTE   Dn1  v100
 BYTE   N06  Bn1  v080
 BYTE   W12
 BYTE   Dn1  v100
 BYTE   N06  Bn1  v080
 BYTE   W12
 BYTE   Dn1  v100
 BYTE   N06  Bn1  v080
 BYTE   W06
 BYTE   Dn1  v100
 BYTE   N06  Bn1  v080
 BYTE   W06
 BYTE   Dn1  v100
 BYTE   N06  Bn1  v080
 BYTE   W12
 BYTE   Dn1  v100
 BYTE   N06  Bn1  v080
 BYTE   W12
 BYTE   N03  Dn1  v100
 BYTE   W03
 BYTE   N03
 BYTE   W03
 BYTE   N03
 BYTE   W03
 BYTE   N03
 BYTE   W03
 BYTE   N03
 BYTE   W03
 BYTE   N03
 BYTE   W03
 BYTE   N03
 BYTE   W03
 BYTE   N03
 BYTE   W03
// 040   ----------------------------------------
 BYTE   PATT
  POIN2 Label_12_014820FF
// 041   ----------------------------------------
 BYTE   PATT
  POIN2 Label_12_014820FF
// 042   ----------------------------------------
 BYTE   PATT
  POIN2 Label_12_0148212F
// 043   ----------------------------------------
 BYTE   PATT
  POIN2 Label_12_01482161
// 044   ----------------------------------------
 BYTE   PATT
  POIN2 Label_12_01482199
// 045   ----------------------------------------
 BYTE   PATT
  POIN2 Label_12_014820FF
// 046   ----------------------------------------
 BYTE   PATT
  POIN2 Label_12_014820FF
// 047   ----------------------------------------
 BYTE   PATT
  POIN2 Label_12_014821C9
// 048   ----------------------------------------
 BYTE   W96
// 049   ----------------------------------------
 BYTE   W96
// 050   ----------------------------------------
 BYTE   W96
// 051   ----------------------------------------
 BYTE   W96
// 052   ----------------------------------------
 BYTE   W96
// 053   ----------------------------------------
 BYTE   W96
// 054   ----------------------------------------
 BYTE   W96
// 055   ----------------------------------------
 BYTE   W96
// 056   ----------------------------------------
 BYTE   W96
// 057   ----------------------------------------
 BYTE   W96
// 058   ----------------------------------------
 BYTE   W96
// 059   ----------------------------------------
 BYTE   W96
// 060   ----------------------------------------
 BYTE   W96
// 061   ----------------------------------------
 BYTE   W96
// 062   ----------------------------------------
 BYTE   W96
// 063   ----------------------------------------
 BYTE   W24
 BYTE   GoTo
  POIN2 Label_12_014820CC
 BYTE   FINE

//******************************************************//
	ALIGN 4

song03DB:
	BYTE	13	// NumTrks
	BYTE	0	// NumBlks
	BYTE	song03DB_pri	// Priority
	BYTE	song03DB_rev	// Reverb.
    
	POIN2	song03DB_grp
    
	POIN2	song03DB_001
	POIN2	song03DB_002
	POIN2	song03DB_003
	POIN2	song03DB_004
	POIN2	song03DB_005
	POIN2	song03DB_006
	POIN2	song03DB_007
	POIN2	song03DB_008
	POIN2	song03DB_009
	POIN2	song03DB_010
	POIN2	song03DB_011
	POIN2	song03DB_012
	POIN2	song03DB_013

	
