	.include "MPlayDef.s"

	.equ	song43_grp, voicegroup000
	.equ	song43_pri, 0
	.equ	song43_rev, 0
	.equ	song43_mvl, 127
	.equ	song43_key, 0
	.equ	song43_tbs, 1
	.equ	song43_exg, 0
	.equ	song43_cmp, 1

	.section .rodata
	.global	song43
	.align	2


@**************** Track 1 (Midi-Chn.0) ****************@

song43_001:
@ 000   ----------------------------------------
 .byte   KEYSH , song43_key+0
Label_0_01470AC2:
 .byte   TEMPO , 122*song43_tbs/2
 .byte   VOICE , 48
 .byte   PAN , c_v+21
 .byte   VOL , 30*song43_mvl/mxv
 .byte   N48 ,Cn3 ,v100
 .byte   W48
 .byte   N24 ,Fn3
 .byte   W24
 .byte   An3 ,v104
 .byte   W24
@ 001   ----------------------------------------
Label_0_01470AD4:
 .byte   N48 ,An3 ,v100
 .byte   W48
 .byte   Dn3
 .byte   W48
 .byte   PEND 
@ 002   ----------------------------------------
Label_0_01470ADB:
 .byte   N60 ,Dn3 ,v100
 .byte   W60
 .byte   N12 ,En3
 .byte   W12
 .byte   Fn3
 .byte   W12
 .byte   Gn3
 .byte   W12
 .byte   PEND 
@ 003   ----------------------------------------
Label_0_01470AE7:
 .byte   N48 ,Fn3 ,v100
 .byte   W48
 .byte   En3
 .byte   W48
 .byte   PEND 
@ 004   ----------------------------------------
Label_0_01470AEE:
 .byte   N48 ,Cn3 ,v100
 .byte   W48
 .byte   N24 ,Fn3
 .byte   W24
 .byte   An3
 .byte   W24
 .byte   PEND 
@ 005   ----------------------------------------
Label_0_01470AF8:
 .byte   N48 ,Cn4 ,v100
 .byte   W48
 .byte   N24 ,As3
 .byte   W24
 .byte   An3
 .byte   W24
 .byte   PEND 
@ 006   ----------------------------------------
 .byte   PATT
  .word Label_0_01470ADB
@ 007   ----------------------------------------
 .byte   N72 ,Gn3 ,v100
 .byte   W96
@ 008   ----------------------------------------
 .byte   PATT
  .word Label_0_01470AEE
@ 009   ----------------------------------------
 .byte   PATT
  .word Label_0_01470AD4
@ 010   ----------------------------------------
 .byte   PATT
  .word Label_0_01470ADB
@ 011   ----------------------------------------
 .byte   PATT
  .word Label_0_01470AE7
@ 012   ----------------------------------------
 .byte   PATT
  .word Label_0_01470AEE
@ 013   ----------------------------------------
 .byte   PATT
  .word Label_0_01470AF8
@ 014   ----------------------------------------
 .byte   PATT
  .word Label_0_01470ADB
@ 015   ----------------------------------------
 .byte   N48 ,Fn3 ,v100
 .byte   W96
@ 016   ----------------------------------------
 .byte   Dn3
 .byte   W48
 .byte   En3
 .byte   W48
@ 017   ----------------------------------------
 .byte   N48
 .byte   W48
 .byte   Fn3
 .byte   W48
@ 018   ----------------------------------------
 .byte   N48
 .byte   W48
 .byte   N48
 .byte   W48
@ 019   ----------------------------------------
 .byte   N72
 .byte   W96
@ 020   ----------------------------------------
 .byte   N24 ,Dn3
 .byte   W24
 .byte   N36 ,As3
 .byte   W36
 .byte   N12 ,Gn3
 .byte   W12
 .byte   Fn3
 .byte   W12
 .byte   En3
 .byte   W12
@ 021   ----------------------------------------
 .byte   N36 ,Cn4
 .byte   W36
 .byte   N12 ,An3
 .byte   W12
 .byte   N18 ,Fn4
 .byte   W24
 .byte   N12
 .byte   W12
 .byte   En4
 .byte   W12
@ 022   ----------------------------------------
 .byte   N24 ,Dn4
 .byte   W24
 .byte   N36
 .byte   W36
 .byte   N12 ,En4
 .byte   W12
 .byte   Fn4
 .byte   W12
 .byte   Gn4
 .byte   W12
@ 023   ----------------------------------------
 .byte   N48 ,Fn4
 .byte   W48
 .byte   En4
 .byte   W48
@ 024   ----------------------------------------
 .byte   W96
@ 025   ----------------------------------------
Label_0_01470B6C:
 .byte   W72
 .byte   N12 ,Fn3 ,v100
 .byte   W12
 .byte   En3
 .byte   W12
 .byte   PEND 
@ 026   ----------------------------------------
 .byte   N96 ,Dn3
 .byte   W96
@ 027   ----------------------------------------
Label_0_01470B77:
 .byte   N24 ,Fn3 ,v100
 .byte   W24
 .byte   Cn3
 .byte   W24
 .byte   Gn3
 .byte   W24
 .byte   Cn4
 .byte   W24
 .byte   PEND 
@ 028   ----------------------------------------
 .byte   N96 ,An3
 .byte   W96
@ 029   ----------------------------------------
Label_0_01470B85:
 .byte   N72 ,As3 ,v100
 .byte   W72
 .byte   N24 ,An3
 .byte   W24
 .byte   PEND 
@ 030   ----------------------------------------
Label_0_01470B8D:
 .byte   N48 ,Gn3 ,v100
 .byte   W60
 .byte   N12 ,An3
 .byte   W12
 .byte   As3
 .byte   W12
 .byte   En3
 .byte   W12
 .byte   PEND 
@ 031   ----------------------------------------
 .byte   N72 ,Fn3
 .byte   W96
@ 032   ----------------------------------------
 .byte   N48 ,An2
 .byte   W48
 .byte   Cn3
 .byte   W48
@ 033   ----------------------------------------
 .byte   Fn3
 .byte   W48
 .byte   Ds3
 .byte   W48
@ 034   ----------------------------------------
 .byte   N96 ,Fn3
 .byte   W96
@ 035   ----------------------------------------
 .byte   Ds3
 .byte   W96
@ 036   ----------------------------------------
 .byte   Fn3
 .byte   W96
@ 037   ----------------------------------------
 .byte   Cn3
 .byte   W96
@ 038   ----------------------------------------
 .byte   N24 ,An2
 .byte   W24
 .byte   Fn3
 .byte   W24
 .byte   En3
 .byte   W24
 .byte   As2
 .byte   W24
@ 039   ----------------------------------------
 .byte   N96 ,Cn3
 .byte   W96
@ 040   ----------------------------------------
 .byte   W96
@ 041   ----------------------------------------
 .byte   PATT
  .word Label_0_01470B6C
@ 042   ----------------------------------------
 .byte   N96 ,Dn3 ,v100
 .byte   W96
@ 043   ----------------------------------------
 .byte   PATT
  .word Label_0_01470B77
@ 044   ----------------------------------------
 .byte   N96 ,An3 ,v100
 .byte   W96
@ 045   ----------------------------------------
 .byte   PATT
  .word Label_0_01470B85
@ 046   ----------------------------------------
 .byte   PATT
  .word Label_0_01470B8D
@ 047   ----------------------------------------
 .byte   N72 ,Fn3 ,v100
 .byte   W96
@ 048   ----------------------------------------
 .byte   Dn5 ,v092
 .byte   W72
 .byte   N08
 .byte   W08
 .byte   N08
 .byte   W08
 .byte   Fn5
 .byte   W08
@ 049   ----------------------------------------
 .byte   N96 ,En5
 .byte   W96
@ 050   ----------------------------------------
 .byte   N72
 .byte   W72
 .byte   N08
 .byte   W08
 .byte   Fn5
 .byte   W08
 .byte   Gn5
 .byte   W08
@ 051   ----------------------------------------
 .byte   N96 ,Fn5
 .byte   W96
@ 052   ----------------------------------------
 .byte   N72
 .byte   W72
 .byte   N08
 .byte   W08
 .byte   Gn5
 .byte   W08
 .byte   Fn5
 .byte   W08
@ 053   ----------------------------------------
 .byte   N48 ,En5
 .byte   W48
 .byte   Cn5
 .byte   W48
@ 054   ----------------------------------------
 .byte   N12 ,An4 ,v100
 .byte   W24
 .byte   N08
 .byte   W08
 .byte   N08
 .byte   W08
 .byte   N08
 .byte   W08
 .byte   N12 ,Bn4
 .byte   W24
 .byte   N08
 .byte   W08
 .byte   N08
 .byte   W08
 .byte   N08
 .byte   W08
@ 055   ----------------------------------------
 .byte   N12 ,Cn5
 .byte   W24
 .byte   N08
 .byte   W08
 .byte   N08
 .byte   W08
 .byte   N08
 .byte   W08
 .byte   N12 ,Dn5
 .byte   W24
 .byte   N24
 .byte   W24
@ 056   ----------------------------------------
 .byte   N12 ,Cn5
 .byte   W24
 .byte   N08
 .byte   W08
 .byte   N08
 .byte   W08
 .byte   N08
 .byte   W08
 .byte   N12 ,Dn5
 .byte   W24
 .byte   N08
 .byte   W08
 .byte   N08
 .byte   W08
 .byte   N08
 .byte   W08
@ 057   ----------------------------------------
 .byte   N12 ,En5
 .byte   W24
 .byte   N08
 .byte   W08
 .byte   N08
 .byte   W08
 .byte   N08
 .byte   W08
 .byte   N24 ,Fn5
 .byte   W24
 .byte   Bn4
 .byte   W24
@ 058   ----------------------------------------
 .byte   N96 ,Cn3
 .byte   W96
@ 059   ----------------------------------------
 .byte   N72 ,As2
 .byte   W72
 .byte   N24 ,Dn3
 .byte   W24
@ 060   ----------------------------------------
 .byte   N96 ,Cn3
 .byte   W96
@ 061   ----------------------------------------
 .byte   N48 ,As2
 .byte   W48
 .byte   N24 ,Dn3
 .byte   W24
 .byte   Fn3
 .byte   W24
@ 062   ----------------------------------------
 .byte   N96 ,En3
 .byte   W96
@ 063   ----------------------------------------
 .byte   N24 ,Cn3
 .byte   W24
 .byte   GOTO
  .word Label_0_01470AC2
 .byte   FINE

@**************** Track 2 (Midi-Chn.1) ****************@

song43_002:
@ 000   ----------------------------------------
 .byte   KEYSH , song43_key+0
Label_1_014708CE:
 .byte   VOICE , 73
 .byte   PAN , c_v+37
 .byte   VOL , 33*song43_mvl/mxv
 .byte   W96
@ 001   ----------------------------------------
 .byte   W96
@ 002   ----------------------------------------
 .byte   W96
@ 003   ----------------------------------------
 .byte   W96
@ 004   ----------------------------------------
 .byte   W96
@ 005   ----------------------------------------
 .byte   W96
@ 006   ----------------------------------------
 .byte   W96
@ 007   ----------------------------------------
 .byte   W96
@ 008   ----------------------------------------
 .byte   W96
@ 009   ----------------------------------------
 .byte   W96
@ 010   ----------------------------------------
 .byte   W96
@ 011   ----------------------------------------
 .byte   W96
@ 012   ----------------------------------------
 .byte   W96
@ 013   ----------------------------------------
 .byte   W96
@ 014   ----------------------------------------
 .byte   W96
@ 015   ----------------------------------------
 .byte   W72
 .byte   N12 ,Fn4 ,v100
 .byte   W12
 .byte   En4
 .byte   W12
@ 016   ----------------------------------------
Label_1_014708EA:
 .byte   N24 ,Dn4 ,v100
 .byte   W24
 .byte   N36 ,As4
 .byte   W36
 .byte   N12 ,Gn4
 .byte   W12
 .byte   Fn4
 .byte   W12
 .byte   En4
 .byte   W12
 .byte   PEND 
@ 017   ----------------------------------------
 .byte   N36 ,Cn5
 .byte   W36
 .byte   N12 ,An4
 .byte   W12
 .byte   N18 ,Fn4
 .byte   W24
 .byte   N12
 .byte   W12
 .byte   En4
 .byte   W12
@ 018   ----------------------------------------
 .byte   N24 ,Dn4
 .byte   W24
 .byte   N36 ,Dn5
 .byte   W36
 .byte   N12 ,Cn5
 .byte   W12
 .byte   As4
 .byte   W12
 .byte   Gn4
 .byte   W12
@ 019   ----------------------------------------
 .byte   N72 ,An4
 .byte   W96
@ 020   ----------------------------------------
 .byte   PATT
  .word Label_1_014708EA
@ 021   ----------------------------------------
 .byte   N36 ,Cn5 ,v100
 .byte   W36
 .byte   N12 ,An4
 .byte   W12
 .byte   N18 ,Fn5
 .byte   W24
 .byte   N12
 .byte   W12
 .byte   En5
 .byte   W12
@ 022   ----------------------------------------
 .byte   N24 ,Dn5
 .byte   W24
 .byte   N36
 .byte   W36
 .byte   N12 ,En5
 .byte   W12
 .byte   Fn5
 .byte   W12
 .byte   Gn5
 .byte   W12
@ 023   ----------------------------------------
 .byte   N48 ,Fn5
 .byte   W48
 .byte   En5
 .byte   W48
@ 024   ----------------------------------------
 .byte   W96
@ 025   ----------------------------------------
 .byte   W96
@ 026   ----------------------------------------
 .byte   W96
@ 027   ----------------------------------------
 .byte   W96
@ 028   ----------------------------------------
 .byte   W96
@ 029   ----------------------------------------
 .byte   W96
@ 030   ----------------------------------------
 .byte   W96
@ 031   ----------------------------------------
 .byte   W96
@ 032   ----------------------------------------
 .byte   W96
@ 033   ----------------------------------------
 .byte   W96
@ 034   ----------------------------------------
 .byte   W96
@ 035   ----------------------------------------
 .byte   W96
@ 036   ----------------------------------------
 .byte   W96
@ 037   ----------------------------------------
 .byte   W96
@ 038   ----------------------------------------
 .byte   W96
@ 039   ----------------------------------------
 .byte   W96
@ 040   ----------------------------------------
 .byte   W96
@ 041   ----------------------------------------
 .byte   W96
@ 042   ----------------------------------------
 .byte   W96
@ 043   ----------------------------------------
 .byte   W96
@ 044   ----------------------------------------
 .byte   W96
@ 045   ----------------------------------------
 .byte   W96
@ 046   ----------------------------------------
 .byte   W96
@ 047   ----------------------------------------
 .byte   W96
@ 048   ----------------------------------------
 .byte   W96
@ 049   ----------------------------------------
 .byte   W96
@ 050   ----------------------------------------
 .byte   W96
@ 051   ----------------------------------------
 .byte   W96
@ 052   ----------------------------------------
 .byte   W96
@ 053   ----------------------------------------
 .byte   W96
@ 054   ----------------------------------------
 .byte   W96
@ 055   ----------------------------------------
 .byte   W96
@ 056   ----------------------------------------
 .byte   W96
@ 057   ----------------------------------------
 .byte   W96
@ 058   ----------------------------------------
 .byte   W96
@ 059   ----------------------------------------
 .byte   W96
@ 060   ----------------------------------------
 .byte   W96
@ 061   ----------------------------------------
 .byte   W96
@ 062   ----------------------------------------
 .byte   W96
@ 063   ----------------------------------------
 .byte   W24
 .byte   GOTO
  .word Label_1_014708CE
 .byte   FINE

@**************** Track 3 (Midi-Chn.2) ****************@

song43_003:
@ 000   ----------------------------------------
 .byte   KEYSH , song43_key+0
Label_2_0146FE22:
 .byte   VOICE , 56
 .byte   VOL , 33*song43_mvl/mxv
 .byte   W96
@ 001   ----------------------------------------
 .byte   W48
 .byte   N24 ,Fn3 ,v084
 .byte   W24
 .byte   En3
 .byte   W24
@ 002   ----------------------------------------
 .byte   N72 ,Dn3
 .byte   W96
@ 003   ----------------------------------------
 .byte   W24
 .byte   N24 ,Cn3
 .byte   W24
 .byte   Gn3
 .byte   W24
 .byte   Cn4
 .byte   W24
@ 004   ----------------------------------------
 .byte   N72 ,An3
 .byte   W96
@ 005   ----------------------------------------
 .byte   N60 ,As3
 .byte   W72
 .byte   N24 ,An3
 .byte   W24
@ 006   ----------------------------------------
 .byte   N72 ,Gn3
 .byte   W96
@ 007   ----------------------------------------
 .byte   N72
 .byte   W96
@ 008   ----------------------------------------
 .byte   W96
@ 009   ----------------------------------------
 .byte   W24
 .byte   N24 ,Fn3
 .byte   W24
 .byte   Gn3
 .byte   W24
 .byte   An3
 .byte   W24
@ 010   ----------------------------------------
 .byte   N72 ,As3
 .byte   W96
@ 011   ----------------------------------------
 .byte   W24
 .byte   N24 ,Gn3
 .byte   W24
 .byte   An3
 .byte   W24
 .byte   As3
 .byte   W24
@ 012   ----------------------------------------
 .byte   N48 ,Cn4
 .byte   W48
 .byte   An3
 .byte   W48
@ 013   ----------------------------------------
 .byte   Dn4
 .byte   W48
 .byte   As3
 .byte   W48
@ 014   ----------------------------------------
 .byte   Gn3
 .byte   W48
 .byte   En3
 .byte   W48
@ 015   ----------------------------------------
 .byte   Fn3
 .byte   W96
@ 016   ----------------------------------------
 .byte   W96
@ 017   ----------------------------------------
 .byte   W96
@ 018   ----------------------------------------
 .byte   W96
@ 019   ----------------------------------------
 .byte   W96
@ 020   ----------------------------------------
 .byte   W96
@ 021   ----------------------------------------
 .byte   W96
@ 022   ----------------------------------------
 .byte   W96
@ 023   ----------------------------------------
 .byte   N24 ,Cn4 ,v060
 .byte   W24
 .byte   Cn3 ,v068
 .byte   W24
 .byte   Gn3 ,v072
 .byte   W24
 .byte   Cn4 ,v076
 .byte   W24
@ 024   ----------------------------------------
Label_2_0146FE7E:
 .byte   N36 ,Cn3 ,v108
 .byte   W48
 .byte   N18 ,Fn3
 .byte   W24
 .byte   An3
 .byte   W24
 .byte   PEND 
@ 025   ----------------------------------------
Label_2_0146FE88:
 .byte   N36 ,An3 ,v108
 .byte   W48
 .byte   Dn3
 .byte   W48
 .byte   PEND 
@ 026   ----------------------------------------
Label_2_0146FE8F:
 .byte   N60 ,Dn3 ,v108
 .byte   W60
 .byte   N06 ,En3
 .byte   W12
 .byte   Fn3
 .byte   W12
 .byte   Gn3
 .byte   W12
 .byte   PEND 
@ 027   ----------------------------------------
Label_2_0146FE9B:
 .byte   N36 ,Fn3 ,v108
 .byte   W48
 .byte   En3
 .byte   W48
 .byte   PEND 
@ 028   ----------------------------------------
 .byte   PATT
  .word Label_2_0146FE7E
@ 029   ----------------------------------------
Label_2_0146FEA7:
 .byte   N48 ,Cn4 ,v108
 .byte   W48
 .byte   N18 ,As3
 .byte   W24
 .byte   An3
 .byte   W24
 .byte   PEND 
@ 030   ----------------------------------------
Label_2_0146FEB1:
 .byte   N48 ,Dn3 ,v108
 .byte   W60
 .byte   N06 ,En3
 .byte   W12
 .byte   Fn3
 .byte   W12
 .byte   Gn3
 .byte   W12
 .byte   PEND 
@ 031   ----------------------------------------
 .byte   N72 ,Fn3
 .byte   W96
@ 032   ----------------------------------------
 .byte   N48 ,Cn3 ,v080
 .byte   W48
 .byte   N24 ,Fn3
 .byte   W24
 .byte   An3
 .byte   W24
@ 033   ----------------------------------------
 .byte   N36
 .byte   W36
 .byte   N12 ,As3
 .byte   W12
 .byte   N48 ,Gn3
 .byte   W48
@ 034   ----------------------------------------
 .byte   W24
 .byte   N24 ,An3
 .byte   W24
 .byte   Fn3
 .byte   W24
 .byte   Cn3
 .byte   W24
@ 035   ----------------------------------------
 .byte   N36 ,Gn3
 .byte   W36
 .byte   N12 ,An3
 .byte   W12
 .byte   N48 ,Fn3
 .byte   W48
@ 036   ----------------------------------------
 .byte   W24
 .byte   N24 ,Dn3
 .byte   W24
 .byte   Dn4
 .byte   W24
 .byte   N12 ,Cn4
 .byte   W12
 .byte   As3
 .byte   W12
@ 037   ----------------------------------------
 .byte   N48 ,Cn4
 .byte   W48
 .byte   N24 ,An3
 .byte   W24
 .byte   Fn3
 .byte   W24
@ 038   ----------------------------------------
 .byte   Dn3
 .byte   W24
 .byte   As3
 .byte   W24
 .byte   Gn3
 .byte   W24
 .byte   En3
 .byte   W24
@ 039   ----------------------------------------
 .byte   N36 ,Gn3
 .byte   W36
 .byte   N12 ,Fn3
 .byte   W12
 .byte   N48
 .byte   W48
@ 040   ----------------------------------------
 .byte   PATT
  .word Label_2_0146FE7E
@ 041   ----------------------------------------
 .byte   PATT
  .word Label_2_0146FE88
@ 042   ----------------------------------------
 .byte   PATT
  .word Label_2_0146FE8F
@ 043   ----------------------------------------
 .byte   PATT
  .word Label_2_0146FE9B
@ 044   ----------------------------------------
 .byte   PATT
  .word Label_2_0146FE7E
@ 045   ----------------------------------------
 .byte   PATT
  .word Label_2_0146FEA7
@ 046   ----------------------------------------
 .byte   PATT
  .word Label_2_0146FEB1
@ 047   ----------------------------------------
 .byte   N72 ,Fn3 ,v108
 .byte   W96
@ 048   ----------------------------------------
 .byte   Dn3 ,v100
 .byte   W72
 .byte   N08
 .byte   W08
 .byte   N08
 .byte   W08
 .byte   Fn3
 .byte   W08
@ 049   ----------------------------------------
 .byte   N96 ,En3
 .byte   W96
@ 050   ----------------------------------------
 .byte   N72
 .byte   W72
 .byte   N08
 .byte   W08
 .byte   Fn3
 .byte   W08
 .byte   Gn3
 .byte   W08
@ 051   ----------------------------------------
 .byte   N96 ,Fn3
 .byte   W96
@ 052   ----------------------------------------
 .byte   N72
 .byte   W72
 .byte   N08
 .byte   W08
 .byte   Gn3
 .byte   W08
 .byte   Fn3
 .byte   W08
@ 053   ----------------------------------------
 .byte   N48 ,En3
 .byte   W48
 .byte   Cn3
 .byte   W48
@ 054   ----------------------------------------
 .byte   N12 ,Dn3 ,v112
 .byte   W24
 .byte   N08
 .byte   W08
 .byte   N08
 .byte   W08
 .byte   N08
 .byte   W08
 .byte   N12 ,En3
 .byte   W24
 .byte   N08
 .byte   W08
 .byte   N08
 .byte   W08
 .byte   N08
 .byte   W08
@ 055   ----------------------------------------
 .byte   N12 ,Fn3
 .byte   W24
 .byte   N08
 .byte   W08
 .byte   N08
 .byte   W08
 .byte   N08
 .byte   W08
 .byte   N12 ,Gn3
 .byte   W24
 .byte   N24
 .byte   W24
@ 056   ----------------------------------------
 .byte   N12 ,Fn3
 .byte   W24
 .byte   N08
 .byte   W08
 .byte   N08
 .byte   W08
 .byte   N08
 .byte   W08
 .byte   N12 ,Gn3
 .byte   W24
 .byte   N08
 .byte   W08
 .byte   N08
 .byte   W08
 .byte   N08
 .byte   W08
@ 057   ----------------------------------------
 .byte   N12 ,An3
 .byte   W24
 .byte   N08
 .byte   W08
 .byte   N08
 .byte   W08
 .byte   N08
 .byte   W08
 .byte   N24 ,Bn3
 .byte   W24
 .byte   Bn3 ,v100
 .byte   W24
@ 058   ----------------------------------------
 .byte   W24
 .byte   Cn3
 .byte   W24
 .byte   Gn3
 .byte   W24
 .byte   N06 ,Fn3
 .byte   W12
 .byte   En3
 .byte   W12
@ 059   ----------------------------------------
 .byte   N06
 .byte   W12
 .byte   Dn3
 .byte   W12
 .byte   N48 ,Fn3
 .byte   W48
 .byte   N24 ,An3
 .byte   W24
@ 060   ----------------------------------------
 .byte   N60 ,Gn3
 .byte   W60
 .byte   N06
 .byte   W12
 .byte   Fn3
 .byte   W12
 .byte   En3
 .byte   W12
@ 061   ----------------------------------------
 .byte   N06
 .byte   W12
 .byte   Dn3
 .byte   W12
 .byte   N48 ,Fn3
 .byte   W48
 .byte   N06 ,An3
 .byte   W12
 .byte   Fn3
 .byte   W12
@ 062   ----------------------------------------
 .byte   N96 ,Gn3
 .byte   W96
@ 063   ----------------------------------------
 .byte   N24 ,Gn2
 .byte   W24
 .byte   GOTO
  .word Label_2_0146FE22
 .byte   FINE

@**************** Track 4 (Midi-Chn.3) ****************@

song43_004:
@ 000   ----------------------------------------
 .byte   KEYSH , song43_key+0
Label_3_0146F2AE:
 .byte   VOICE , 48
 .byte   PAN , c_v-11
 .byte   VOL , 25*song43_mvl/mxv
 .byte   N48 ,Cn2 ,v100
 .byte   W48
 .byte   N24 ,Fn2
 .byte   W24
 .byte   An2
 .byte   W24
@ 001   ----------------------------------------
Label_3_0146F2BD:
 .byte   N48 ,An2 ,v100
 .byte   W48
 .byte   Dn2
 .byte   W48
 .byte   PEND 
@ 002   ----------------------------------------
Label_3_0146F2C4:
 .byte   N60 ,Dn2 ,v100
 .byte   W60
 .byte   N12 ,En2
 .byte   W12
 .byte   Fn2
 .byte   W12
 .byte   Gn2
 .byte   W12
 .byte   PEND 
@ 003   ----------------------------------------
Label_3_0146F2D0:
 .byte   N48 ,Fn2 ,v100
 .byte   W48
 .byte   En2
 .byte   W48
 .byte   PEND 
@ 004   ----------------------------------------
Label_3_0146F2D7:
 .byte   N48 ,Cn2 ,v100
 .byte   W48
 .byte   N24 ,Fn2
 .byte   W24
 .byte   An2
 .byte   W24
 .byte   PEND 
@ 005   ----------------------------------------
Label_3_0146F2E1:
 .byte   N48 ,Cn3 ,v100
 .byte   W48
 .byte   N24 ,As2
 .byte   W24
 .byte   An2
 .byte   W24
 .byte   PEND 
@ 006   ----------------------------------------
 .byte   PATT
  .word Label_3_0146F2C4
@ 007   ----------------------------------------
 .byte   N72 ,Gn2 ,v100
 .byte   W96
@ 008   ----------------------------------------
 .byte   PATT
  .word Label_3_0146F2D7
@ 009   ----------------------------------------
 .byte   PATT
  .word Label_3_0146F2BD
@ 010   ----------------------------------------
 .byte   PATT
  .word Label_3_0146F2C4
@ 011   ----------------------------------------
 .byte   PATT
  .word Label_3_0146F2D0
@ 012   ----------------------------------------
 .byte   PATT
  .word Label_3_0146F2D7
@ 013   ----------------------------------------
 .byte   PATT
  .word Label_3_0146F2E1
@ 014   ----------------------------------------
 .byte   PATT
  .word Label_3_0146F2C4
@ 015   ----------------------------------------
 .byte   N48 ,Fn2 ,v100
 .byte   W96
@ 016   ----------------------------------------
 .byte   As2
 .byte   W48
 .byte   N48
 .byte   W48
@ 017   ----------------------------------------
 .byte   Cn3
 .byte   W48
 .byte   N48
 .byte   W48
@ 018   ----------------------------------------
 .byte   Dn3
 .byte   W48
 .byte   As2
 .byte   W48
@ 019   ----------------------------------------
 .byte   N72 ,An2
 .byte   W96
@ 020   ----------------------------------------
 .byte   N24 ,Dn2
 .byte   W24
 .byte   N36 ,As2
 .byte   W36
 .byte   N12 ,Gn2
 .byte   W12
 .byte   Fn2
 .byte   W12
 .byte   En2
 .byte   W12
@ 021   ----------------------------------------
 .byte   N36 ,Cn3
 .byte   W36
 .byte   N12 ,An2
 .byte   W12
 .byte   N18 ,Fn3
 .byte   W24
 .byte   N12
 .byte   W12
 .byte   En3
 .byte   W12
@ 022   ----------------------------------------
 .byte   N24 ,Dn3
 .byte   W24
 .byte   N36
 .byte   W36
 .byte   N12 ,En3
 .byte   W12
 .byte   Fn3
 .byte   W12
 .byte   Gn3
 .byte   W12
@ 023   ----------------------------------------
 .byte   N48 ,Fn3
 .byte   W48
 .byte   En3
 .byte   W48
@ 024   ----------------------------------------
 .byte   N84 ,Fn1
 .byte   W96
@ 025   ----------------------------------------
Label_3_0146F358:
 .byte   N60 ,As1 ,v100
 .byte   W72
 .byte   N12 ,An1
 .byte   W24
 .byte   PEND 
@ 026   ----------------------------------------
 .byte   N84 ,Gn1
 .byte   W96
@ 027   ----------------------------------------
Label_3_0146F363:
 .byte   N48 ,Cn2 ,v100
 .byte   W48
 .byte   Cn1
 .byte   W48
 .byte   PEND 
@ 028   ----------------------------------------
 .byte   N84 ,Fn1
 .byte   W96
@ 029   ----------------------------------------
 .byte   PATT
  .word Label_3_0146F358
@ 030   ----------------------------------------
Label_3_0146F372:
 .byte   N48 ,Gn1 ,v100
 .byte   W48
 .byte   Cn2
 .byte   W48
 .byte   PEND 
@ 031   ----------------------------------------
 .byte   N72 ,Fn1
 .byte   W96
@ 032   ----------------------------------------
 .byte   N48 ,Fn2
 .byte   W48
 .byte   An2
 .byte   W48
@ 033   ----------------------------------------
 .byte   Cn3
 .byte   W48
 .byte   As2
 .byte   W48
@ 034   ----------------------------------------
 .byte   An2
 .byte   W48
 .byte   N48
 .byte   W48
@ 035   ----------------------------------------
 .byte   As2
 .byte   W48
 .byte   Cn3
 .byte   W48
@ 036   ----------------------------------------
 .byte   N96 ,Fn2
 .byte   W96
@ 037   ----------------------------------------
 .byte   An2
 .byte   W96
@ 038   ----------------------------------------
 .byte   N24 ,Fn2
 .byte   W24
 .byte   Dn3
 .byte   W24
 .byte   As2
 .byte   W24
 .byte   Gn2
 .byte   W24
@ 039   ----------------------------------------
 .byte   N48 ,As2
 .byte   W48
 .byte   An2
 .byte   W48
@ 040   ----------------------------------------
 .byte   N84 ,Fn1
 .byte   W96
@ 041   ----------------------------------------
 .byte   PATT
  .word Label_3_0146F358
@ 042   ----------------------------------------
 .byte   N84 ,Gn1 ,v100
 .byte   W96
@ 043   ----------------------------------------
 .byte   PATT
  .word Label_3_0146F363
@ 044   ----------------------------------------
 .byte   N84 ,Fn1 ,v100
 .byte   W96
@ 045   ----------------------------------------
 .byte   PATT
  .word Label_3_0146F358
@ 046   ----------------------------------------
 .byte   PATT
  .word Label_3_0146F372
@ 047   ----------------------------------------
 .byte   N72 ,Fn1 ,v100
 .byte   W96
@ 048   ----------------------------------------
Label_3_0146F3C3:
 .byte   N72 ,Fn2 ,v100
 .byte   W72
 .byte   N08
 .byte   W08
 .byte   N08
 .byte   W08
 .byte   N08
 .byte   W08
 .byte   PEND 
@ 049   ----------------------------------------
 .byte   N96 ,Gn2
 .byte   W96
@ 050   ----------------------------------------
 .byte   N72
 .byte   W72
 .byte   N08
 .byte   W08
 .byte   N08
 .byte   W08
 .byte   N08
 .byte   W08
@ 051   ----------------------------------------
 .byte   N96 ,Fn2
 .byte   W96
@ 052   ----------------------------------------
 .byte   PATT
  .word Label_3_0146F3C3
@ 053   ----------------------------------------
 .byte   N96 ,En2 ,v100
 .byte   W96
@ 054   ----------------------------------------
 .byte   N12 ,Fn3
 .byte   W24
 .byte   N08
 .byte   W08
 .byte   N08
 .byte   W08
 .byte   N08
 .byte   W08
 .byte   N12 ,Gn3
 .byte   W24
 .byte   N08
 .byte   W08
 .byte   N08
 .byte   W08
 .byte   N08
 .byte   W08
@ 055   ----------------------------------------
 .byte   N12
 .byte   W24
 .byte   N08
 .byte   W08
 .byte   N08
 .byte   W08
 .byte   N08
 .byte   W08
 .byte   N12 ,Cn4
 .byte   W24
 .byte   N24
 .byte   W24
@ 056   ----------------------------------------
 .byte   N12 ,An3
 .byte   W24
 .byte   N08
 .byte   W08
 .byte   N08
 .byte   W08
 .byte   N08
 .byte   W08
 .byte   N12 ,Bn3
 .byte   W24
 .byte   N08
 .byte   W08
 .byte   N08
 .byte   W08
 .byte   N08
 .byte   W08
@ 057   ----------------------------------------
 .byte   N12 ,Cn4
 .byte   W24
 .byte   N08
 .byte   W08
 .byte   N08
 .byte   W08
 .byte   N08
 .byte   W08
 .byte   N24 ,Dn4
 .byte   W24
 .byte   Gn3
 .byte   W24
@ 058   ----------------------------------------
 .byte   N96 ,Gn2
 .byte   W96
@ 059   ----------------------------------------
 .byte   N72 ,Fn2
 .byte   W72
 .byte   N24 ,As2
 .byte   W24
@ 060   ----------------------------------------
 .byte   N96 ,Gn2
 .byte   W96
@ 061   ----------------------------------------
 .byte   N48 ,Fn2
 .byte   W48
 .byte   N24 ,As2
 .byte   W24
 .byte   Dn3
 .byte   W24
@ 062   ----------------------------------------
 .byte   N96 ,Cn3
 .byte   W96
@ 063   ----------------------------------------
 .byte   N24 ,En2
 .byte   W24
 .byte   GOTO
  .word Label_3_0146F2AE
 .byte   FINE

@**************** Track 5 (Midi-Chn.4) ****************@

song43_005:
@ 000   ----------------------------------------
 .byte   KEYSH , song43_key+0
Label_4_0147028A:
 .byte   VOICE , 48
 .byte   PAN , c_v+14
 .byte   VOL , 30*song43_mvl/mxv
 .byte   N96 ,Cn3 ,v100
 .byte   W96
@ 001   ----------------------------------------
 .byte   Fn3
 .byte   W96
@ 002   ----------------------------------------
 .byte   N96
 .byte   W96
@ 003   ----------------------------------------
 .byte   Gn3
 .byte   W96
@ 004   ----------------------------------------
 .byte   Cn3
 .byte   W96
@ 005   ----------------------------------------
 .byte   Fn3
 .byte   W96
@ 006   ----------------------------------------
 .byte   N96
 .byte   W96
@ 007   ----------------------------------------
 .byte   N48
 .byte   W48
 .byte   En3
 .byte   W48
@ 008   ----------------------------------------
 .byte   N96 ,Cn3
 .byte   W96
@ 009   ----------------------------------------
 .byte   Fn3
 .byte   W96
@ 010   ----------------------------------------
 .byte   N96
 .byte   W96
@ 011   ----------------------------------------
 .byte   Gn3
 .byte   W96
@ 012   ----------------------------------------
 .byte   Fn3
 .byte   W96
@ 013   ----------------------------------------
 .byte   N96
 .byte   W96
@ 014   ----------------------------------------
 .byte   N48
 .byte   W48
 .byte   Gn3
 .byte   W48
@ 015   ----------------------------------------
 .byte   N96 ,Cn3
 .byte   W96
@ 016   ----------------------------------------
 .byte   N48 ,Fn2
 .byte   W48
 .byte   Gn2
 .byte   W48
@ 017   ----------------------------------------
 .byte   N48
 .byte   W48
 .byte   An2
 .byte   W48
@ 018   ----------------------------------------
 .byte   N48
 .byte   W48
 .byte   Gn2
 .byte   W48
@ 019   ----------------------------------------
 .byte   N72 ,Fn2
 .byte   W96
@ 020   ----------------------------------------
 .byte   N24 ,As2
 .byte   W24
 .byte   N36 ,Gn3
 .byte   W36
 .byte   N12 ,En3
 .byte   W12
 .byte   Dn3
 .byte   W12
 .byte   Cn3
 .byte   W12
@ 021   ----------------------------------------
 .byte   N36 ,An3
 .byte   W36
 .byte   N12 ,Fn3
 .byte   W12
 .byte   Dn4
 .byte   W24
 .byte   N12
 .byte   W12
 .byte   Cn4
 .byte   W12
@ 022   ----------------------------------------
 .byte   N24 ,As3
 .byte   W24
 .byte   N36
 .byte   W36
 .byte   N12 ,Cn4
 .byte   W12
 .byte   Dn4
 .byte   W12
 .byte   En4
 .byte   W12
@ 023   ----------------------------------------
 .byte   N48 ,As3
 .byte   W48
 .byte   Cn4
 .byte   W48
@ 024   ----------------------------------------
 .byte   W96
@ 025   ----------------------------------------
 .byte   W96
@ 026   ----------------------------------------
 .byte   W96
@ 027   ----------------------------------------
 .byte   W96
@ 028   ----------------------------------------
 .byte   W96
@ 029   ----------------------------------------
 .byte   W96
@ 030   ----------------------------------------
 .byte   W96
@ 031   ----------------------------------------
 .byte   W96
@ 032   ----------------------------------------
 .byte   W96
@ 033   ----------------------------------------
 .byte   W96
@ 034   ----------------------------------------
 .byte   W96
@ 035   ----------------------------------------
 .byte   W96
@ 036   ----------------------------------------
 .byte   W96
@ 037   ----------------------------------------
 .byte   W96
@ 038   ----------------------------------------
 .byte   W96
@ 039   ----------------------------------------
 .byte   W36
 .byte   N02 ,Cn5
 .byte   W04
 .byte   Dn5
 .byte   W04
 .byte   Cn5
 .byte   W04
 .byte   Dn5
 .byte   W04
 .byte   Cn5
 .byte   W04
 .byte   Dn5
 .byte   W04
 .byte   Cn5
 .byte   W04
 .byte   Dn5
 .byte   W04
 .byte   Cn5
 .byte   W04
 .byte   Dn5
 .byte   W04
 .byte   Cn5
 .byte   W04
 .byte   Dn5
 .byte   W04
 .byte   Cn5
 .byte   W04
 .byte   Dn5
 .byte   W04
 .byte   Cn5
 .byte   W04
@ 040   ----------------------------------------
 .byte   W96
@ 041   ----------------------------------------
 .byte   W96
@ 042   ----------------------------------------
 .byte   W96
@ 043   ----------------------------------------
 .byte   W96
@ 044   ----------------------------------------
 .byte   W96
@ 045   ----------------------------------------
 .byte   W96
@ 046   ----------------------------------------
 .byte   W96
@ 047   ----------------------------------------
 .byte   W96
@ 048   ----------------------------------------
 .byte   N72 ,As3
 .byte   W72
 .byte   N08
 .byte   W08
 .byte   N08
 .byte   W08
 .byte   Dn4
 .byte   W08
@ 049   ----------------------------------------
 .byte   N96 ,Cn4
 .byte   W96
@ 050   ----------------------------------------
 .byte   N72
 .byte   W72
 .byte   N08
 .byte   W08
 .byte   N08
 .byte   W08
 .byte   En4
 .byte   W08
@ 051   ----------------------------------------
 .byte   N96 ,Cn4
 .byte   W96
@ 052   ----------------------------------------
 .byte   N72
 .byte   W72
 .byte   N08
 .byte   W08
 .byte   N08
 .byte   W08
 .byte   N08
 .byte   W08
@ 053   ----------------------------------------
 .byte   N48
 .byte   W48
 .byte   Gn3
 .byte   W48
@ 054   ----------------------------------------
 .byte   N12 ,Cn3
 .byte   W24
 .byte   N08
 .byte   W08
 .byte   N08
 .byte   W08
 .byte   N08
 .byte   W08
 .byte   N12 ,Dn3
 .byte   W24
 .byte   N08
 .byte   W08
 .byte   N08
 .byte   W08
 .byte   N08
 .byte   W08
@ 055   ----------------------------------------
 .byte   N12 ,En3
 .byte   W24
 .byte   N08
 .byte   W08
 .byte   N08
 .byte   W08
 .byte   N08
 .byte   W08
 .byte   N12 ,Fn3
 .byte   W24
 .byte   N24
 .byte   W24
@ 056   ----------------------------------------
 .byte   N12
 .byte   W24
 .byte   N08
 .byte   W08
 .byte   N08
 .byte   W08
 .byte   N08
 .byte   W08
 .byte   N12 ,Gn3
 .byte   W24
 .byte   N08
 .byte   W08
 .byte   N08
 .byte   W08
 .byte   N08
 .byte   W08
@ 057   ----------------------------------------
 .byte   N12
 .byte   W24
 .byte   N08
 .byte   W08
 .byte   N08
 .byte   W08
 .byte   N08
 .byte   W08
 .byte   N24 ,Cn4
 .byte   W24
 .byte   Dn3
 .byte   W24
@ 058   ----------------------------------------
 .byte   N96 ,En2
 .byte   W96
@ 059   ----------------------------------------
 .byte   N72 ,Dn2
 .byte   W72
 .byte   N24 ,Fn2
 .byte   W24
@ 060   ----------------------------------------
 .byte   N96 ,En2
 .byte   W96
@ 061   ----------------------------------------
 .byte   N48 ,Dn2
 .byte   W48
 .byte   N24 ,Fn2
 .byte   W24
 .byte   As2
 .byte   W24
@ 062   ----------------------------------------
 .byte   N96 ,Gn2
 .byte   W96
@ 063   ----------------------------------------
 .byte   W24
 .byte   GOTO
  .word Label_4_0147028A
 .byte   FINE

@**************** Track 6 (Midi-Chn.5) ****************@

song43_006:
@ 000   ----------------------------------------
 .byte   KEYSH , song43_key+0
Label_5_0146F446:
 .byte   VOICE , 58
 .byte   VOL , 31*song43_mvl/mxv
 .byte   N96 ,Fn1 ,v100
 .byte   W96
@ 001   ----------------------------------------
Label_5_0146F44E:
 .byte   N72 ,As1 ,v100
 .byte   W72
 .byte   N24 ,An1
 .byte   W24
 .byte   PEND 
@ 002   ----------------------------------------
 .byte   N96 ,Gn1
 .byte   W96
@ 003   ----------------------------------------
Label_5_0146F459:
 .byte   N48 ,Cn2 ,v100
 .byte   W48
 .byte   Cn1
 .byte   W48
 .byte   PEND 
@ 004   ----------------------------------------
 .byte   N84 ,Fn1
 .byte   W96
@ 005   ----------------------------------------
 .byte   N60 ,Dn2
 .byte   W72
 .byte   N24 ,Cn2
 .byte   W24
@ 006   ----------------------------------------
 .byte   N96 ,As1
 .byte   W96
@ 007   ----------------------------------------
 .byte   N48 ,Dn2
 .byte   W48
 .byte   N24 ,Cn1
 .byte   W24
 .byte   En1
 .byte   W24
@ 008   ----------------------------------------
 .byte   N96 ,Fn1
 .byte   W96
@ 009   ----------------------------------------
 .byte   PATT
  .word Label_5_0146F44E
@ 010   ----------------------------------------
 .byte   N96 ,Gn1 ,v100
 .byte   W96
@ 011   ----------------------------------------
 .byte   PATT
  .word Label_5_0146F459
@ 012   ----------------------------------------
 .byte   N84 ,As1 ,v100
 .byte   W96
@ 013   ----------------------------------------
 .byte   N48 ,Cn2
 .byte   W72
 .byte   N24 ,As1
 .byte   W24
@ 014   ----------------------------------------
 .byte   N48 ,An1
 .byte   W48
 .byte   Cn2
 .byte   W48
@ 015   ----------------------------------------
 .byte   Fn1
 .byte   W72
 .byte   N24 ,Gn0
 .byte   W24
@ 016   ----------------------------------------
Label_5_0146F499:
 .byte   N36 ,Gn1 ,v100
 .byte   W48
 .byte   Cn2
 .byte   W48
 .byte   PEND 
@ 017   ----------------------------------------
Label_5_0146F4A0:
 .byte   N36 ,An1 ,v100
 .byte   W48
 .byte   N24 ,Dn2
 .byte   W24
 .byte   Cn2
 .byte   W24
 .byte   PEND 
@ 018   ----------------------------------------
 .byte   N36 ,As1
 .byte   W48
 .byte   Cn2
 .byte   W48
@ 019   ----------------------------------------
 .byte   N72 ,Fn1
 .byte   W96
@ 020   ----------------------------------------
 .byte   PATT
  .word Label_5_0146F499
@ 021   ----------------------------------------
 .byte   PATT
  .word Label_5_0146F4A0
@ 022   ----------------------------------------
 .byte   N36 ,As1 ,v100
 .byte   W48
 .byte   Bn1
 .byte   W48
@ 023   ----------------------------------------
 .byte   N24 ,Cn2
 .byte   W24
 .byte   Cn1
 .byte   W24
 .byte   Gn1
 .byte   W24
 .byte   Cn2
 .byte   W24
@ 024   ----------------------------------------
 .byte   N84 ,Fn1 ,v084
 .byte   W96
@ 025   ----------------------------------------
Label_5_0146F4CF:
 .byte   N60 ,As1 ,v084
 .byte   W72
 .byte   N12 ,An1
 .byte   W24
 .byte   PEND 
@ 026   ----------------------------------------
 .byte   N84 ,Gn1
 .byte   W96
@ 027   ----------------------------------------
Label_5_0146F4DA:
 .byte   N48 ,Cn2 ,v084
 .byte   W48
 .byte   Cn1
 .byte   W48
 .byte   PEND 
@ 028   ----------------------------------------
 .byte   N84 ,Fn1
 .byte   W96
@ 029   ----------------------------------------
 .byte   PATT
  .word Label_5_0146F4CF
@ 030   ----------------------------------------
Label_5_0146F4E9:
 .byte   N48 ,Gn1 ,v084
 .byte   W48
 .byte   Cn2
 .byte   W48
 .byte   PEND 
@ 031   ----------------------------------------
 .byte   N72 ,Fn1
 .byte   W96
@ 032   ----------------------------------------
 .byte   N48 ,Fn1 ,v100
 .byte   W48
 .byte   N48
 .byte   W48
@ 033   ----------------------------------------
Label_5_0146F4F9:
 .byte   N48 ,Ds1 ,v100
 .byte   W48
 .byte   N48
 .byte   W48
 .byte   PEND 
@ 034   ----------------------------------------
Label_5_0146F500:
 .byte   N24 ,Fn1 ,v100
 .byte   W24
 .byte   N24
 .byte   W24
 .byte   N24
 .byte   W24
 .byte   N24
 .byte   W24
 .byte   PEND 
@ 035   ----------------------------------------
 .byte   PATT
  .word Label_5_0146F4F9
@ 036   ----------------------------------------
 .byte   N24 ,As0 ,v100
 .byte   W24
 .byte   N24
 .byte   W24
 .byte   N48
 .byte   W48
@ 037   ----------------------------------------
 .byte   PATT
  .word Label_5_0146F500
@ 038   ----------------------------------------
 .byte   N24 ,Gn1 ,v100
 .byte   W24
 .byte   N24
 .byte   W24
 .byte   N48 ,Cn1
 .byte   W48
@ 039   ----------------------------------------
 .byte   N96 ,Fn1
 .byte   W96
@ 040   ----------------------------------------
 .byte   N84 ,Fn1 ,v084
 .byte   W96
@ 041   ----------------------------------------
 .byte   PATT
  .word Label_5_0146F4CF
@ 042   ----------------------------------------
 .byte   N84 ,Gn1 ,v084
 .byte   W96
@ 043   ----------------------------------------
 .byte   PATT
  .word Label_5_0146F4DA
@ 044   ----------------------------------------
 .byte   N84 ,Fn1 ,v084
 .byte   W96
@ 045   ----------------------------------------
 .byte   PATT
  .word Label_5_0146F4CF
@ 046   ----------------------------------------
 .byte   PATT
  .word Label_5_0146F4E9
@ 047   ----------------------------------------
 .byte   N72 ,Fn1 ,v084
 .byte   W96
@ 048   ----------------------------------------
 .byte   Gn1 ,v100
 .byte   W72
 .byte   N24
 .byte   W24
@ 049   ----------------------------------------
 .byte   N96
 .byte   W96
@ 050   ----------------------------------------
 .byte   N72 ,As1
 .byte   W72
 .byte   N08
 .byte   W08
 .byte   N08
 .byte   W08
 .byte   N08
 .byte   W08
@ 051   ----------------------------------------
 .byte   N96 ,An1
 .byte   W96
@ 052   ----------------------------------------
 .byte   N72 ,Gs1
 .byte   W72
 .byte   N08
 .byte   W08
 .byte   N08
 .byte   W08
 .byte   N08
 .byte   W08
@ 053   ----------------------------------------
 .byte   N96 ,Gn1
 .byte   W96
@ 054   ----------------------------------------
Label_5_0146F56C:
 .byte   N18 ,Dn1 ,v100
 .byte   W24
 .byte   N08
 .byte   W08
 .byte   N08
 .byte   W08
 .byte   N08
 .byte   W08
 .byte   N18 ,En1
 .byte   W24
 .byte   N08
 .byte   W08
 .byte   N08
 .byte   W08
 .byte   N08
 .byte   W08
 .byte   PEND 
@ 055   ----------------------------------------
 .byte   N18 ,Fn1
 .byte   W24
 .byte   N08
 .byte   W08
 .byte   N08
 .byte   W08
 .byte   N08
 .byte   W08
 .byte   N18 ,Gn1
 .byte   W24
 .byte   N24
 .byte   W24
@ 056   ----------------------------------------
 .byte   PATT
  .word Label_5_0146F56C
@ 057   ----------------------------------------
 .byte   N18 ,Fn1 ,v100
 .byte   W24
 .byte   N08
 .byte   W08
 .byte   N08
 .byte   W08
 .byte   N08
 .byte   W08
 .byte   N18 ,Gn1
 .byte   W24
 .byte   N24 ,Gn0
 .byte   W24
@ 058   ----------------------------------------
Label_5_0146F5A3:
 .byte   N06 ,Cn1 ,v100
 .byte   W12
 .byte   N06
 .byte   W06
 .byte   N06
 .byte   W06
 .byte   N06
 .byte   W12
 .byte   N06
 .byte   W24
 .byte   N06
 .byte   W12
 .byte   N06
 .byte   W12
 .byte   N06
 .byte   W12
 .byte   PEND 
@ 059   ----------------------------------------
 .byte   PATT
  .word Label_5_0146F5A3
@ 060   ----------------------------------------
 .byte   PATT
  .word Label_5_0146F5A3
@ 061   ----------------------------------------
 .byte   PATT
  .word Label_5_0146F5A3
@ 062   ----------------------------------------
 .byte   N96 ,Cn1 ,v100
 .byte   W96
@ 063   ----------------------------------------
 .byte   W24
 .byte   GOTO
  .word Label_5_0146F446
 .byte   FINE

@**************** Track 7 (Midi-Chn.6) ****************@

song43_007:
@ 000   ----------------------------------------
 .byte   KEYSH , song43_key+0
Label_6_0146FFCA:
 .byte   VOICE , 56
 .byte   VOL , 31*song43_mvl/mxv
 .byte   W96
@ 001   ----------------------------------------
 .byte   W48
 .byte   N24 ,An2 ,v084
 .byte   W24
 .byte   N24
 .byte   W24
@ 002   ----------------------------------------
 .byte   N72 ,Gn2
 .byte   W96
@ 003   ----------------------------------------
 .byte   W24
 .byte   N24
 .byte   W24
 .byte   Cn3
 .byte   W24
 .byte   Gn3
 .byte   W24
@ 004   ----------------------------------------
 .byte   N72 ,Cn3
 .byte   W96
@ 005   ----------------------------------------
 .byte   N60 ,Dn3
 .byte   W72
 .byte   N24 ,Cn3
 .byte   W24
@ 006   ----------------------------------------
 .byte   N72 ,As2
 .byte   W96
@ 007   ----------------------------------------
 .byte   N72
 .byte   W96
@ 008   ----------------------------------------
 .byte   W96
@ 009   ----------------------------------------
 .byte   W24
 .byte   N24 ,An2
 .byte   W24
 .byte   As2
 .byte   W24
 .byte   Cn3
 .byte   W24
@ 010   ----------------------------------------
 .byte   N72 ,Dn3
 .byte   W96
@ 011   ----------------------------------------
 .byte   W24
 .byte   N24 ,As2
 .byte   W24
 .byte   Cn3
 .byte   W24
 .byte   Dn3
 .byte   W24
@ 012   ----------------------------------------
 .byte   N48 ,Fn3
 .byte   W48
 .byte   N48
 .byte   W48
@ 013   ----------------------------------------
 .byte   N48
 .byte   W48
 .byte   Dn3
 .byte   W48
@ 014   ----------------------------------------
 .byte   As2
 .byte   W48
 .byte   Gn2
 .byte   W48
@ 015   ----------------------------------------
 .byte   An2
 .byte   W96
@ 016   ----------------------------------------
 .byte   W96
@ 017   ----------------------------------------
 .byte   W96
@ 018   ----------------------------------------
 .byte   W96
@ 019   ----------------------------------------
 .byte   W96
@ 020   ----------------------------------------
 .byte   W96
@ 021   ----------------------------------------
 .byte   W96
@ 022   ----------------------------------------
 .byte   W96
@ 023   ----------------------------------------
 .byte   W96
@ 024   ----------------------------------------
Label_6_01470019:
 .byte   W03
 .byte   N36 ,Cn3 ,v100
 .byte   W48
 .byte   N18 ,Fn3
 .byte   W24
 .byte   An3
 .byte   W21
 .byte   PEND 
@ 025   ----------------------------------------
Label_6_01470024:
 .byte   W03
 .byte   N36 ,An3 ,v100
 .byte   W48
 .byte   Dn3
 .byte   W44
 .byte   W01
 .byte   PEND 
@ 026   ----------------------------------------
Label_6_0147002D:
 .byte   W03
 .byte   N60 ,Dn3 ,v100
 .byte   W60
 .byte   N06 ,En3
 .byte   W12
 .byte   Fn3
 .byte   W12
 .byte   Gn3
 .byte   W09
 .byte   PEND 
@ 027   ----------------------------------------
Label_6_0147003A:
 .byte   W03
 .byte   N36 ,Fn3 ,v100
 .byte   W48
 .byte   En3
 .byte   W44
 .byte   W01
 .byte   PEND 
@ 028   ----------------------------------------
 .byte   PATT
  .word Label_6_01470019
@ 029   ----------------------------------------
Label_6_01470048:
 .byte   W03
 .byte   N48 ,Cn4 ,v100
 .byte   W48
 .byte   N18 ,As3
 .byte   W24
 .byte   An3
 .byte   W21
 .byte   PEND 
@ 030   ----------------------------------------
 .byte   W03
 .byte   N48 ,Dn3
 .byte   W60
 .byte   N06 ,En3
 .byte   W12
 .byte   Fn3 ,v104
 .byte   W12
 .byte   Gn3 ,v100
 .byte   W09
@ 031   ----------------------------------------
Label_6_01470060:
 .byte   W03
 .byte   N72 ,Fn3 ,v100
 .byte   W92
 .byte   W01
 .byte   PEND 
@ 032   ----------------------------------------
 .byte   W96
@ 033   ----------------------------------------
 .byte   W96
@ 034   ----------------------------------------
 .byte   W96
@ 035   ----------------------------------------
 .byte   W96
@ 036   ----------------------------------------
 .byte   W96
@ 037   ----------------------------------------
 .byte   W96
@ 038   ----------------------------------------
 .byte   W96
@ 039   ----------------------------------------
 .byte   W96
@ 040   ----------------------------------------
 .byte   PATT
  .word Label_6_01470019
@ 041   ----------------------------------------
 .byte   PATT
  .word Label_6_01470024
@ 042   ----------------------------------------
 .byte   PATT
  .word Label_6_0147002D
@ 043   ----------------------------------------
 .byte   PATT
  .word Label_6_0147003A
@ 044   ----------------------------------------
 .byte   PATT
  .word Label_6_01470019
@ 045   ----------------------------------------
 .byte   PATT
  .word Label_6_01470048
@ 046   ----------------------------------------
 .byte   W03
 .byte   N48 ,Dn3 ,v100
 .byte   W60
 .byte   N06 ,En3
 .byte   W12
 .byte   Fn3
 .byte   W12
 .byte   Gn3
 .byte   W09
@ 047   ----------------------------------------
 .byte   PATT
  .word Label_6_01470060
@ 048   ----------------------------------------
 .byte   W96
@ 049   ----------------------------------------
 .byte   W24
 .byte   N24 ,Gn3 ,v112
 .byte   W24
 .byte   Cn4
 .byte   W24
 .byte   En4
 .byte   W24
@ 050   ----------------------------------------
 .byte   N72 ,Gn4
 .byte   W72
 .byte   N08
 .byte   W08
 .byte   An4
 .byte   W08
 .byte   Gn4
 .byte   W08
@ 051   ----------------------------------------
 .byte   N24 ,Fn4
 .byte   W24
 .byte   An3
 .byte   W24
 .byte   Cn4
 .byte   W24
 .byte   Fn4
 .byte   W24
@ 052   ----------------------------------------
 .byte   N72 ,Gs4
 .byte   W72
 .byte   N08
 .byte   W08
 .byte   Gn4
 .byte   W08
 .byte   Fn4
 .byte   W08
@ 053   ----------------------------------------
 .byte   N48 ,Gn4
 .byte   W48
 .byte   En4
 .byte   W48
@ 054   ----------------------------------------
 .byte   An2 ,v100
 .byte   W48
 .byte   Bn2
 .byte   W48
@ 055   ----------------------------------------
Label_6_014700CD:
 .byte   N48 ,Cn3 ,v100
 .byte   W48
 .byte   Dn3
 .byte   W48
 .byte   PEND 
@ 056   ----------------------------------------
 .byte   PATT
  .word Label_6_014700CD
@ 057   ----------------------------------------
 .byte   N48 ,En3 ,v100
 .byte   W48
 .byte   N24 ,Gn3
 .byte   W24
 .byte   Bn2
 .byte   W24
@ 058   ----------------------------------------
 .byte   N96 ,Cn3
 .byte   W96
@ 059   ----------------------------------------
 .byte   N72 ,Dn3
 .byte   W72
 .byte   N24
 .byte   W24
@ 060   ----------------------------------------
 .byte   N96 ,Cn3
 .byte   W96
@ 061   ----------------------------------------
 .byte   Dn3
 .byte   W96
@ 062   ----------------------------------------
 .byte   En3
 .byte   W96
@ 063   ----------------------------------------
 .byte   N24 ,Cn3
 .byte   W24
 .byte   GOTO
  .word Label_6_0146FFCA
 .byte   FINE

@**************** Track 8 (Midi-Chn.7) ****************@

song43_008:
@ 000   ----------------------------------------
 .byte   KEYSH , song43_key+0
Label_7_01471092:
 .byte   VOICE , 56
 .byte   PAN , c_v+30
 .byte   VOL , 31*song43_mvl/mxv
 .byte   W96
@ 001   ----------------------------------------
 .byte   W96
@ 002   ----------------------------------------
 .byte   W96
@ 003   ----------------------------------------
 .byte   W96
@ 004   ----------------------------------------
 .byte   W96
@ 005   ----------------------------------------
 .byte   W96
@ 006   ----------------------------------------
 .byte   W96
@ 007   ----------------------------------------
 .byte   W96
@ 008   ----------------------------------------
 .byte   W96
@ 009   ----------------------------------------
 .byte   W96
@ 010   ----------------------------------------
 .byte   W96
@ 011   ----------------------------------------
 .byte   W96
@ 012   ----------------------------------------
 .byte   W96
@ 013   ----------------------------------------
 .byte   W96
@ 014   ----------------------------------------
 .byte   W96
@ 015   ----------------------------------------
 .byte   W96
@ 016   ----------------------------------------
 .byte   W96
@ 017   ----------------------------------------
 .byte   W96
@ 018   ----------------------------------------
 .byte   W96
@ 019   ----------------------------------------
 .byte   W96
@ 020   ----------------------------------------
 .byte   W96
@ 021   ----------------------------------------
 .byte   W96
@ 022   ----------------------------------------
 .byte   W96
@ 023   ----------------------------------------
 .byte   W96
@ 024   ----------------------------------------
 .byte   W96
@ 025   ----------------------------------------
 .byte   W96
@ 026   ----------------------------------------
 .byte   W96
@ 027   ----------------------------------------
 .byte   W96
@ 028   ----------------------------------------
 .byte   W96
@ 029   ----------------------------------------
 .byte   W96
@ 030   ----------------------------------------
 .byte   W96
@ 031   ----------------------------------------
 .byte   W96
@ 032   ----------------------------------------
 .byte   W96
@ 033   ----------------------------------------
 .byte   W96
@ 034   ----------------------------------------
 .byte   W96
@ 035   ----------------------------------------
 .byte   W96
@ 036   ----------------------------------------
 .byte   W96
@ 037   ----------------------------------------
 .byte   W96
@ 038   ----------------------------------------
 .byte   W96
@ 039   ----------------------------------------
 .byte   W96
@ 040   ----------------------------------------
 .byte   W96
@ 041   ----------------------------------------
 .byte   W96
@ 042   ----------------------------------------
 .byte   W96
@ 043   ----------------------------------------
 .byte   W96
@ 044   ----------------------------------------
 .byte   W96
@ 045   ----------------------------------------
 .byte   W96
@ 046   ----------------------------------------
 .byte   W96
@ 047   ----------------------------------------
 .byte   W96
@ 048   ----------------------------------------
 .byte   N72 ,Gn2 ,v100
 .byte   W72
 .byte   N08
 .byte   W08
 .byte   N08
 .byte   W08
 .byte   N08
 .byte   W08
@ 049   ----------------------------------------
 .byte   N96
 .byte   W96
@ 050   ----------------------------------------
 .byte   N72 ,As2
 .byte   W72
 .byte   N08
 .byte   W08
 .byte   N08
 .byte   W08
 .byte   N08
 .byte   W08
@ 051   ----------------------------------------
 .byte   N96 ,An2
 .byte   W96
@ 052   ----------------------------------------
 .byte   N72 ,Gs2
 .byte   W72
 .byte   N08
 .byte   W08
 .byte   N08
 .byte   W08
 .byte   N08
 .byte   W08
@ 053   ----------------------------------------
 .byte   N48 ,Gn2
 .byte   W48
 .byte   En2
 .byte   W48
@ 054   ----------------------------------------
 .byte   Fn2
 .byte   W48
 .byte   Gn2
 .byte   W48
@ 055   ----------------------------------------
Label_7_014710F2:
 .byte   N48 ,An2 ,v100
 .byte   W48
 .byte   Bn2
 .byte   W48
 .byte   PEND 
@ 056   ----------------------------------------
 .byte   PATT
  .word Label_7_014710F2
@ 057   ----------------------------------------
 .byte   N48 ,Cn3 ,v100
 .byte   W48
 .byte   N24 ,Dn3
 .byte   W24
 .byte   Gn2
 .byte   W24
@ 058   ----------------------------------------
 .byte   N96 ,En2
 .byte   W96
@ 059   ----------------------------------------
 .byte   N72 ,Fn2
 .byte   W72
 .byte   N24
 .byte   W24
@ 060   ----------------------------------------
 .byte   N96 ,En2
 .byte   W96
@ 061   ----------------------------------------
 .byte   Fn2
 .byte   W96
@ 062   ----------------------------------------
 .byte   Gn2
 .byte   W96
@ 063   ----------------------------------------
 .byte   N24 ,En2
 .byte   W24
 .byte   GOTO
  .word Label_7_01471092
 .byte   FINE

@**************** Track 9 (Midi-Chn.8) ****************@

song43_009:
@ 000   ----------------------------------------
 .byte   KEYSH , song43_key+0
Label_8_01481EB6:
 .byte   VOICE , 47
 .byte   VOL , 28*song43_mvl/mxv
 .byte   N12 ,Cn3 ,v100
 .byte   W96
@ 001   ----------------------------------------
Label_8_01481EBE:
 .byte   N12 ,Cn3 ,v100
 .byte   W84
 .byte   Fn2
 .byte   W12
 .byte   PEND 
@ 002   ----------------------------------------
Label_8_01481EC5:
 .byte   N12 ,Cn3 ,v100
 .byte   W84
 .byte   N12
 .byte   W12
 .byte   PEND 
@ 003   ----------------------------------------
 .byte   N12
 .byte   W84
 .byte   N06 ,Fn2
 .byte   W06
 .byte   An2
 .byte   W06
@ 004   ----------------------------------------
 .byte   N12 ,Fn2
 .byte   W12
 .byte   Cn3
 .byte   W72
 .byte   N12
 .byte   W12
@ 005   ----------------------------------------
 .byte   PATT
  .word Label_8_01481EBE
@ 006   ----------------------------------------
Label_8_01481EDF:
 .byte   N12 ,Cn3 ,v100
 .byte   W36
 .byte   N06
 .byte   W06
 .byte   N06
 .byte   W06
 .byte   N12
 .byte   W12
 .byte   N12
 .byte   W36
 .byte   PEND 
@ 007   ----------------------------------------
 .byte   Fn2
 .byte   W36
 .byte   N06
 .byte   W06
 .byte   Cn3
 .byte   W06
 .byte   N12 ,En2
 .byte   W12
 .byte   Cn3
 .byte   W12
 .byte   N06
 .byte   W06
 .byte   N06
 .byte   W06
 .byte   N06
 .byte   W06
 .byte   N06
 .byte   W06
@ 008   ----------------------------------------
 .byte   PATT
  .word Label_8_01481EC5
@ 009   ----------------------------------------
 .byte   PATT
  .word Label_8_01481EC5
@ 010   ----------------------------------------
 .byte   PATT
  .word Label_8_01481EC5
@ 011   ----------------------------------------
 .byte   N12 ,Cn3 ,v100
 .byte   W36
 .byte   N06
 .byte   W06
 .byte   Fn2
 .byte   W06
 .byte   N12 ,Cn3
 .byte   W12
 .byte   Fn2
 .byte   W12
 .byte   Cn3
 .byte   W12
 .byte   Fn2
 .byte   W12
@ 012   ----------------------------------------
 .byte   PATT
  .word Label_8_01481EBE
@ 013   ----------------------------------------
 .byte   N12 ,Cn3 ,v100
 .byte   W96
@ 014   ----------------------------------------
 .byte   Fn2
 .byte   W48
 .byte   Cn3
 .byte   W48
@ 015   ----------------------------------------
 .byte   Fn2
 .byte   W36
 .byte   N06
 .byte   W06
 .byte   An2
 .byte   W06
 .byte   N12 ,Fn2
 .byte   W12
 .byte   Cn3
 .byte   W24
 .byte   Fn2
 .byte   W12
@ 016   ----------------------------------------
Label_8_01481F39:
 .byte   N12 ,Cn3 ,v100
 .byte   W36
 .byte   N06
 .byte   W06
 .byte   Fn2
 .byte   W06
 .byte   N12 ,Cn3
 .byte   W12
 .byte   N12
 .byte   W36
 .byte   PEND 
@ 017   ----------------------------------------
Label_8_01481F47:
 .byte   N12 ,Cn3 ,v100
 .byte   W36
 .byte   N06
 .byte   W06
 .byte   Fn2
 .byte   W06
 .byte   N12 ,Cn3
 .byte   W12
 .byte   N12
 .byte   W24
 .byte   Fn2
 .byte   W12
 .byte   PEND 
@ 018   ----------------------------------------
 .byte   PATT
  .word Label_8_01481F39
@ 019   ----------------------------------------
 .byte   PATT
  .word Label_8_01481F47
@ 020   ----------------------------------------
 .byte   PATT
  .word Label_8_01481F39
@ 021   ----------------------------------------
 .byte   PATT
  .word Label_8_01481F47
@ 022   ----------------------------------------
 .byte   PATT
  .word Label_8_01481F39
@ 023   ----------------------------------------
 .byte   N12 ,Cn3 ,v100
 .byte   W24
 .byte   N12
 .byte   W24
 .byte   N12
 .byte   W24
 .byte   N12
 .byte   W12
 .byte   N12
 .byte   W12
@ 024   ----------------------------------------
 .byte   PATT
  .word Label_8_01481EBE
@ 025   ----------------------------------------
 .byte   PATT
  .word Label_8_01481EBE
@ 026   ----------------------------------------
 .byte   PATT
  .word Label_8_01481EC5
@ 027   ----------------------------------------
 .byte   N12 ,Cn3 ,v100
 .byte   W36
 .byte   N06 ,Fn2
 .byte   W06
 .byte   An2
 .byte   W06
 .byte   N12 ,Fn2
 .byte   W12
 .byte   Cn3
 .byte   W36
@ 028   ----------------------------------------
 .byte   PATT
  .word Label_8_01481EBE
@ 029   ----------------------------------------
 .byte   PATT
  .word Label_8_01481EBE
@ 030   ----------------------------------------
 .byte   PATT
  .word Label_8_01481EDF
@ 031   ----------------------------------------
 .byte   N12 ,Fn2 ,v100
 .byte   W36
 .byte   N06
 .byte   W06
 .byte   An2
 .byte   W06
 .byte   N12 ,Fn2
 .byte   W12
 .byte   Cn3
 .byte   W12
 .byte   N06 ,Cn3 ,v080
 .byte   W06
 .byte   Cn3 ,v092
 .byte   W06
 .byte   Cn3 ,v100
 .byte   W06
 .byte   N06
 .byte   W06
@ 032   ----------------------------------------
 .byte   W96
@ 033   ----------------------------------------
 .byte   W96
@ 034   ----------------------------------------
 .byte   W96
@ 035   ----------------------------------------
 .byte   W84
 .byte   N12
 .byte   W12
@ 036   ----------------------------------------
 .byte   N12
 .byte   W96
@ 037   ----------------------------------------
 .byte   W96
@ 038   ----------------------------------------
 .byte   N12
 .byte   W24
 .byte   Fn2
 .byte   W24
 .byte   Cn3
 .byte   W24
 .byte   Fn2
 .byte   W24
@ 039   ----------------------------------------
 .byte   Cn3
 .byte   W24
 .byte   Fn2
 .byte   W24
 .byte   Cn3 ,v080
 .byte   W15
 .byte   N03 ,Fn2 ,v076
 .byte   W03
 .byte   Cn3 ,v080
 .byte   W03
 .byte   Fn2 ,v092
 .byte   W03
 .byte   Cn3 ,v096
 .byte   W03
 .byte   Fn2 ,v100
 .byte   W03
 .byte   Cn3
 .byte   W03
 .byte   Fn2
 .byte   W03
 .byte   Cn3
 .byte   W03
 .byte   Fn2
 .byte   W03
 .byte   Cn3
 .byte   W03
 .byte   Fn2
 .byte   W03
@ 040   ----------------------------------------
 .byte   PATT
  .word Label_8_01481EBE
@ 041   ----------------------------------------
 .byte   PATT
  .word Label_8_01481EBE
@ 042   ----------------------------------------
 .byte   PATT
  .word Label_8_01481EC5
@ 043   ----------------------------------------
 .byte   N12 ,Cn3 ,v100
 .byte   W36
 .byte   N06 ,Fn2
 .byte   W06
 .byte   Cn3
 .byte   W06
 .byte   N12 ,Fn2
 .byte   W12
 .byte   Cn3
 .byte   W36
@ 044   ----------------------------------------
 .byte   PATT
  .word Label_8_01481EBE
@ 045   ----------------------------------------
 .byte   PATT
  .word Label_8_01481EBE
@ 046   ----------------------------------------
 .byte   PATT
  .word Label_8_01481EDF
@ 047   ----------------------------------------
 .byte   N12 ,Fn2 ,v100
 .byte   W36
 .byte   N06
 .byte   W06
 .byte   Cn3
 .byte   W06
 .byte   N12 ,Fn2
 .byte   W12
 .byte   Cn3
 .byte   W12
 .byte   N06 ,Cn3 ,v080
 .byte   W06
 .byte   Cn3 ,v092
 .byte   W06
 .byte   Cn3 ,v100
 .byte   W06
 .byte   N06
 .byte   W06
@ 048   ----------------------------------------
 .byte   N12
 .byte   W96
@ 049   ----------------------------------------
Label_8_0148203C:
 .byte   W78
 .byte   N03 ,Cn3 ,v072
 .byte   W03
 .byte   N03
 .byte   W03
 .byte   Cn3 ,v076
 .byte   W03
 .byte   N03
 .byte   W03
 .byte   Cn3 ,v080
 .byte   W03
 .byte   N03
 .byte   W03
 .byte   PEND 
@ 050   ----------------------------------------
 .byte   N12 ,Cn3 ,v100
 .byte   W96
@ 051   ----------------------------------------
 .byte   PATT
  .word Label_8_0148203C
@ 052   ----------------------------------------
 .byte   N12 ,Cn3 ,v100
 .byte   W78
 .byte   N03 ,Cn3 ,v072
 .byte   W03
 .byte   N03
 .byte   W03
 .byte   Cn3 ,v076
 .byte   W03
 .byte   N03
 .byte   W03
 .byte   Cn3 ,v080
 .byte   W03
 .byte   N03
 .byte   W03
@ 053   ----------------------------------------
 .byte   N12 ,Cn3 ,v100
 .byte   W96
@ 054   ----------------------------------------
 .byte   En2
 .byte   W24
 .byte   Cn3
 .byte   W24
 .byte   Fn2
 .byte   W24
 .byte   Cn3
 .byte   W24
@ 055   ----------------------------------------
Label_8_01482077:
 .byte   N12 ,Fn2 ,v100
 .byte   W24
 .byte   Cn3
 .byte   W24
 .byte   Fn2
 .byte   W24
 .byte   Cn3
 .byte   W24
 .byte   PEND 
@ 056   ----------------------------------------
 .byte   PATT
  .word Label_8_01482077
@ 057   ----------------------------------------
 .byte   PATT
  .word Label_8_01482077
@ 058   ----------------------------------------
 .byte   N12 ,Cn3 ,v100
 .byte   W36
 .byte   N12
 .byte   W48
 .byte   N03 ,Fn2
 .byte   W03
 .byte   N03
 .byte   W03
 .byte   N03
 .byte   W03
 .byte   N03
 .byte   W03
@ 059   ----------------------------------------
Label_8_0148209B:
 .byte   N12 ,Cn3 ,v100
 .byte   W36
 .byte   N12
 .byte   W24
 .byte   Fn2
 .byte   W12
 .byte   Cn3
 .byte   W12
 .byte   Fn2
 .byte   W12
 .byte   PEND 
@ 060   ----------------------------------------
 .byte   PATT
  .word Label_8_0148209B
@ 061   ----------------------------------------
 .byte   N12 ,Cn3 ,v100
 .byte   W36
 .byte   Fn2
 .byte   W24
 .byte   Cn3
 .byte   W12
 .byte   Gn2
 .byte   W12
 .byte   Cn3
 .byte   W12
@ 062   ----------------------------------------
 .byte   PATT
  .word Label_8_01481EC5
@ 063   ----------------------------------------
 .byte   N12 ,Cn3 ,v100
 .byte   W24
 .byte   GOTO
  .word Label_8_01481EB6
 .byte   FINE

@**************** Track 10 (Midi-Chn.9) ****************@

song43_010:
@ 000   ----------------------------------------
 .byte   KEYSH , song43_key+0
Label_9_0146F5D2:
 .byte   VOICE , 57
 .byte   PAN , c_v-19
 .byte   VOL , 27*song43_mvl/mxv
 .byte   W96
@ 001   ----------------------------------------
 .byte   W96
@ 002   ----------------------------------------
 .byte   W96
@ 003   ----------------------------------------
 .byte   W96
@ 004   ----------------------------------------
 .byte   W96
@ 005   ----------------------------------------
 .byte   W96
@ 006   ----------------------------------------
 .byte   W96
@ 007   ----------------------------------------
 .byte   W96
@ 008   ----------------------------------------
 .byte   W96
@ 009   ----------------------------------------
 .byte   W96
@ 010   ----------------------------------------
 .byte   W96
@ 011   ----------------------------------------
 .byte   W96
@ 012   ----------------------------------------
 .byte   W96
@ 013   ----------------------------------------
 .byte   W96
@ 014   ----------------------------------------
 .byte   W96
@ 015   ----------------------------------------
 .byte   W96
@ 016   ----------------------------------------
 .byte   W96
@ 017   ----------------------------------------
 .byte   W96
@ 018   ----------------------------------------
 .byte   W96
@ 019   ----------------------------------------
 .byte   W96
@ 020   ----------------------------------------
 .byte   W96
@ 021   ----------------------------------------
 .byte   W96
@ 022   ----------------------------------------
 .byte   W96
@ 023   ----------------------------------------
 .byte   N24 ,Cn4 ,v060
 .byte   W24
 .byte   Cn3 ,v068
 .byte   W24
 .byte   Gn3 ,v072
 .byte   W24
 .byte   Cn4 ,v076
 .byte   W24
@ 024   ----------------------------------------
Label_9_0146F5FC:
 .byte   N36 ,Cn3 ,v100
 .byte   W48
 .byte   N12 ,Fn3
 .byte   W24
 .byte   An3
 .byte   W24
 .byte   PEND 
@ 025   ----------------------------------------
Label_9_0146F606:
 .byte   N36 ,An3 ,v100
 .byte   W48
 .byte   Dn3
 .byte   W48
 .byte   PEND 
@ 026   ----------------------------------------
Label_9_0146F60D:
 .byte   N60 ,Dn3 ,v100
 .byte   W60
 .byte   N06 ,En3
 .byte   W12
 .byte   Fn3
 .byte   W12
 .byte   Gn3
 .byte   W12
 .byte   PEND 
@ 027   ----------------------------------------
Label_9_0146F619:
 .byte   N36 ,Fn3 ,v100
 .byte   W48
 .byte   En3
 .byte   W48
 .byte   PEND 
@ 028   ----------------------------------------
 .byte   PATT
  .word Label_9_0146F5FC
@ 029   ----------------------------------------
Label_9_0146F625:
 .byte   N48 ,Cn4 ,v100
 .byte   W48
 .byte   N12 ,As3
 .byte   W24
 .byte   An3
 .byte   W24
 .byte   PEND 
@ 030   ----------------------------------------
Label_9_0146F62F:
 .byte   N48 ,Dn3 ,v100
 .byte   W60
 .byte   N06 ,En3
 .byte   W12
 .byte   Fn3
 .byte   W12
 .byte   Gn3
 .byte   W12
 .byte   PEND 
@ 031   ----------------------------------------
 .byte   N72 ,Fn3
 .byte   W96
@ 032   ----------------------------------------
 .byte   N48 ,Cn3 ,v112
 .byte   W48
 .byte   N24 ,Fn3
 .byte   W24
 .byte   An3
 .byte   W24
@ 033   ----------------------------------------
 .byte   N36
 .byte   W36
 .byte   N12 ,As3
 .byte   W12
 .byte   N48 ,Gn3
 .byte   W48
@ 034   ----------------------------------------
 .byte   W24
 .byte   N24 ,An3
 .byte   W24
 .byte   Fn3
 .byte   W24
 .byte   Cn3
 .byte   W24
@ 035   ----------------------------------------
 .byte   N36 ,Gn3
 .byte   W36
 .byte   N12 ,An3
 .byte   W12
 .byte   N48 ,Fn3
 .byte   W48
@ 036   ----------------------------------------
 .byte   W24
 .byte   N24 ,Dn3
 .byte   W24
 .byte   Dn4
 .byte   W24
 .byte   N12 ,Cn4
 .byte   W12
 .byte   As3
 .byte   W12
@ 037   ----------------------------------------
 .byte   N48 ,Cn4
 .byte   W48
 .byte   N24 ,An3
 .byte   W24
 .byte   Fn3
 .byte   W24
@ 038   ----------------------------------------
 .byte   Dn3
 .byte   W24
 .byte   As3
 .byte   W24
 .byte   Gn3
 .byte   W24
 .byte   En3
 .byte   W24
@ 039   ----------------------------------------
 .byte   N36 ,Gn3
 .byte   W36
 .byte   N12 ,Fn3
 .byte   W12
 .byte   N48
 .byte   W48
@ 040   ----------------------------------------
 .byte   PATT
  .word Label_9_0146F5FC
@ 041   ----------------------------------------
 .byte   PATT
  .word Label_9_0146F606
@ 042   ----------------------------------------
 .byte   PATT
  .word Label_9_0146F60D
@ 043   ----------------------------------------
 .byte   PATT
  .word Label_9_0146F619
@ 044   ----------------------------------------
 .byte   PATT
  .word Label_9_0146F5FC
@ 045   ----------------------------------------
 .byte   PATT
  .word Label_9_0146F625
@ 046   ----------------------------------------
 .byte   PATT
  .word Label_9_0146F62F
@ 047   ----------------------------------------
 .byte   N72 ,Fn3 ,v100
 .byte   W96
@ 048   ----------------------------------------
 .byte   W96
@ 049   ----------------------------------------
 .byte   W96
@ 050   ----------------------------------------
 .byte   W96
@ 051   ----------------------------------------
 .byte   W96
@ 052   ----------------------------------------
 .byte   W96
@ 053   ----------------------------------------
 .byte   W96
@ 054   ----------------------------------------
 .byte   N12 ,Dn3 ,v112
 .byte   W24
 .byte   N08
 .byte   W08
 .byte   N08
 .byte   W08
 .byte   N08
 .byte   W08
 .byte   N12 ,En3
 .byte   W24
 .byte   N08
 .byte   W08
 .byte   N08
 .byte   W08
 .byte   N08
 .byte   W08
@ 055   ----------------------------------------
 .byte   N12 ,Fn3
 .byte   W24
 .byte   N08
 .byte   W08
 .byte   N08
 .byte   W08
 .byte   N08
 .byte   W08
 .byte   N12 ,Gn3
 .byte   W24
 .byte   N24
 .byte   W24
@ 056   ----------------------------------------
 .byte   N12 ,Fn3
 .byte   W24
 .byte   N08
 .byte   W08
 .byte   N08
 .byte   W08
 .byte   N08
 .byte   W08
 .byte   N12 ,Gn3
 .byte   W24
 .byte   N08
 .byte   W08
 .byte   N08
 .byte   W08
 .byte   N08
 .byte   W08
@ 057   ----------------------------------------
 .byte   N12 ,An3
 .byte   W24
 .byte   N08
 .byte   W08
 .byte   N08
 .byte   W08
 .byte   N08
 .byte   W08
 .byte   N24 ,Bn3
 .byte   W24
 .byte   N24
 .byte   W24
@ 058   ----------------------------------------
 .byte   W24
 .byte   Cn3 ,v100
 .byte   W24
 .byte   Gn3
 .byte   W24
 .byte   N06 ,Fn3
 .byte   W12
 .byte   En3
 .byte   W12
@ 059   ----------------------------------------
 .byte   N06
 .byte   W12
 .byte   Dn3
 .byte   W12
 .byte   N48 ,Fn3
 .byte   W48
 .byte   N24 ,An3
 .byte   W24
@ 060   ----------------------------------------
 .byte   N60 ,Gn3
 .byte   W60
 .byte   N06
 .byte   W12
 .byte   Fn3
 .byte   W12
 .byte   En3
 .byte   W12
@ 061   ----------------------------------------
 .byte   N06
 .byte   W12
 .byte   Dn3
 .byte   W12
 .byte   N48 ,Fn3
 .byte   W48
 .byte   N06 ,An3
 .byte   W12
 .byte   Fn3
 .byte   W12
@ 062   ----------------------------------------
 .byte   N96 ,Gn3
 .byte   W96
@ 063   ----------------------------------------
 .byte   N24 ,Gn2
 .byte   W24
 .byte   GOTO
  .word Label_9_0146F5D2
 .byte   FINE

@**************** Track 11 (Midi-Chn.10) ****************@

song43_011:
@ 000   ----------------------------------------
 .byte   KEYSH , song43_key+0
Label_10_014709A6:
 .byte   VOICE , 57
 .byte   PAN , c_v-16
 .byte   VOL , 27*song43_mvl/mxv
 .byte   W96
@ 001   ----------------------------------------
 .byte   W96
@ 002   ----------------------------------------
 .byte   W96
@ 003   ----------------------------------------
 .byte   W96
@ 004   ----------------------------------------
 .byte   W96
@ 005   ----------------------------------------
 .byte   W96
@ 006   ----------------------------------------
 .byte   W96
@ 007   ----------------------------------------
 .byte   W96
@ 008   ----------------------------------------
 .byte   W96
@ 009   ----------------------------------------
 .byte   W96
@ 010   ----------------------------------------
 .byte   W96
@ 011   ----------------------------------------
 .byte   W96
@ 012   ----------------------------------------
 .byte   W96
@ 013   ----------------------------------------
 .byte   W96
@ 014   ----------------------------------------
 .byte   W96
@ 015   ----------------------------------------
 .byte   W96
@ 016   ----------------------------------------
 .byte   W96
@ 017   ----------------------------------------
 .byte   W96
@ 018   ----------------------------------------
 .byte   W96
@ 019   ----------------------------------------
 .byte   W96
@ 020   ----------------------------------------
 .byte   W96
@ 021   ----------------------------------------
 .byte   W96
@ 022   ----------------------------------------
 .byte   W96
@ 023   ----------------------------------------
 .byte   W96
@ 024   ----------------------------------------
Label_10_014709C4:
 .byte   N06 ,Fn3 ,v100
 .byte   W12
 .byte   N06
 .byte   W24
 .byte   N03
 .byte   W06
 .byte   N03
 .byte   W06
 .byte   N06
 .byte   W12
 .byte   N06
 .byte   W36
 .byte   PEND 
@ 025   ----------------------------------------
 .byte   PATT
  .word Label_10_014709C4
@ 026   ----------------------------------------
 .byte   PATT
  .word Label_10_014709C4
@ 027   ----------------------------------------
Label_10_014709DD:
 .byte   N06 ,Fn3 ,v100
 .byte   W12
 .byte   N06
 .byte   W24
 .byte   N03
 .byte   W06
 .byte   N03
 .byte   W06
 .byte   N06 ,En3
 .byte   W12
 .byte   N06
 .byte   W36
 .byte   PEND 
@ 028   ----------------------------------------
 .byte   PATT
  .word Label_10_014709C4
@ 029   ----------------------------------------
 .byte   PATT
  .word Label_10_014709C4
@ 030   ----------------------------------------
 .byte   PATT
  .word Label_10_014709DD
@ 031   ----------------------------------------
Label_10_014709FC:
 .byte   N06 ,An3 ,v100
 .byte   W12
 .byte   N06
 .byte   W24
 .byte   N03
 .byte   W06
 .byte   N03
 .byte   W06
 .byte   N24
 .byte   W48
 .byte   PEND 
@ 032   ----------------------------------------
 .byte   W96
@ 033   ----------------------------------------
 .byte   W96
@ 034   ----------------------------------------
 .byte   W96
@ 035   ----------------------------------------
 .byte   W96
@ 036   ----------------------------------------
 .byte   W96
@ 037   ----------------------------------------
 .byte   W96
@ 038   ----------------------------------------
 .byte   W96
@ 039   ----------------------------------------
 .byte   W96
@ 040   ----------------------------------------
 .byte   PATT
  .word Label_10_014709C4
@ 041   ----------------------------------------
 .byte   PATT
  .word Label_10_014709C4
@ 042   ----------------------------------------
 .byte   PATT
  .word Label_10_014709C4
@ 043   ----------------------------------------
 .byte   PATT
  .word Label_10_014709DD
@ 044   ----------------------------------------
 .byte   PATT
  .word Label_10_014709C4
@ 045   ----------------------------------------
 .byte   PATT
  .word Label_10_014709C4
@ 046   ----------------------------------------
 .byte   PATT
  .word Label_10_014709DD
@ 047   ----------------------------------------
 .byte   PATT
  .word Label_10_014709FC
@ 048   ----------------------------------------
 .byte   W96
@ 049   ----------------------------------------
 .byte   W96
@ 050   ----------------------------------------
 .byte   W96
@ 051   ----------------------------------------
 .byte   W96
@ 052   ----------------------------------------
 .byte   W96
@ 053   ----------------------------------------
 .byte   W96
@ 054   ----------------------------------------
 .byte   N48 ,An2 ,v100
 .byte   W48
 .byte   Bn2
 .byte   W48
@ 055   ----------------------------------------
Label_10_01470A45:
 .byte   N48 ,Cn3 ,v100
 .byte   W48
 .byte   Dn3
 .byte   W48
 .byte   PEND 
@ 056   ----------------------------------------
 .byte   PATT
  .word Label_10_01470A45
@ 057   ----------------------------------------
 .byte   N48 ,En3 ,v100
 .byte   W48
 .byte   N24 ,Fn3
 .byte   W24
 .byte   Bn2
 .byte   W24
@ 058   ----------------------------------------
 .byte   N96 ,Cn3
 .byte   W96
@ 059   ----------------------------------------
 .byte   N72 ,Dn3
 .byte   W72
 .byte   N24
 .byte   W24
@ 060   ----------------------------------------
 .byte   N96 ,Cn3
 .byte   W96
@ 061   ----------------------------------------
 .byte   Dn3
 .byte   W96
@ 062   ----------------------------------------
 .byte   En3
 .byte   W96
@ 063   ----------------------------------------
 .byte   N24 ,Cn3
 .byte   W24
 .byte   GOTO
  .word Label_10_014709A6
 .byte   FINE

@**************** Track 12 (Midi-Chn.11) ****************@

song43_012:
@ 000   ----------------------------------------
 .byte   KEYSH , song43_key+0
Label_11_01470EA6:
 .byte   VOICE , 57
 .byte   VOL , 25*song43_mvl/mxv
 .byte   PAN , c_v-16
 .byte   W96
@ 001   ----------------------------------------
 .byte   W96
@ 002   ----------------------------------------
 .byte   W96
@ 003   ----------------------------------------
 .byte   W96
@ 004   ----------------------------------------
 .byte   W96
@ 005   ----------------------------------------
 .byte   W96
@ 006   ----------------------------------------
 .byte   W96
@ 007   ----------------------------------------
 .byte   W96
@ 008   ----------------------------------------
 .byte   W96
@ 009   ----------------------------------------
 .byte   W96
@ 010   ----------------------------------------
 .byte   W96
@ 011   ----------------------------------------
 .byte   W96
@ 012   ----------------------------------------
 .byte   W96
@ 013   ----------------------------------------
 .byte   W96
@ 014   ----------------------------------------
 .byte   W96
@ 015   ----------------------------------------
 .byte   W96
@ 016   ----------------------------------------
 .byte   W96
@ 017   ----------------------------------------
 .byte   W96
@ 018   ----------------------------------------
 .byte   W96
@ 019   ----------------------------------------
 .byte   W96
@ 020   ----------------------------------------
 .byte   W96
@ 021   ----------------------------------------
 .byte   W96
@ 022   ----------------------------------------
 .byte   W96
@ 023   ----------------------------------------
 .byte   W96
@ 024   ----------------------------------------
Label_11_01470EC4:
 .byte   N06 ,An2 ,v100
 .byte   W12
 .byte   N06
 .byte   W24
 .byte   N03
 .byte   W06
 .byte   N03
 .byte   W06
 .byte   N06
 .byte   W12
 .byte   N06
 .byte   W36
 .byte   PEND 
@ 025   ----------------------------------------
Label_11_01470ED3:
 .byte   N06 ,As2 ,v100
 .byte   W12
 .byte   N06
 .byte   W24
 .byte   N03
 .byte   W06
 .byte   N03
 .byte   W06
 .byte   N06
 .byte   W12
 .byte   N06
 .byte   W36
 .byte   PEND 
@ 026   ----------------------------------------
Label_11_01470EE2:
 .byte   N06 ,Gn2 ,v100
 .byte   W12
 .byte   N06
 .byte   W24
 .byte   N03
 .byte   W06
 .byte   N03
 .byte   W06
 .byte   N06
 .byte   W12
 .byte   N06
 .byte   W36
 .byte   PEND 
@ 027   ----------------------------------------
Label_11_01470EF1:
 .byte   N06 ,As2 ,v100
 .byte   W12
 .byte   N06
 .byte   W24
 .byte   N03
 .byte   W06
 .byte   N03
 .byte   W06
 .byte   N06 ,Gn2
 .byte   W12
 .byte   N06
 .byte   W36
 .byte   PEND 
@ 028   ----------------------------------------
 .byte   PATT
  .word Label_11_01470EC4
@ 029   ----------------------------------------
 .byte   PATT
  .word Label_11_01470ED3
@ 030   ----------------------------------------
 .byte   PATT
  .word Label_11_01470EE2
@ 031   ----------------------------------------
Label_11_01470F10:
 .byte   N06 ,Cn3 ,v100
 .byte   W12
 .byte   N06
 .byte   W24
 .byte   N03
 .byte   W06
 .byte   N03
 .byte   W06
 .byte   N24
 .byte   W48
 .byte   PEND 
@ 032   ----------------------------------------
 .byte   W96
@ 033   ----------------------------------------
 .byte   W96
@ 034   ----------------------------------------
 .byte   W96
@ 035   ----------------------------------------
 .byte   W96
@ 036   ----------------------------------------
 .byte   W96
@ 037   ----------------------------------------
 .byte   W96
@ 038   ----------------------------------------
 .byte   W96
@ 039   ----------------------------------------
 .byte   W96
@ 040   ----------------------------------------
 .byte   PATT
  .word Label_11_01470EC4
@ 041   ----------------------------------------
 .byte   PATT
  .word Label_11_01470ED3
@ 042   ----------------------------------------
 .byte   PATT
  .word Label_11_01470EE2
@ 043   ----------------------------------------
 .byte   PATT
  .word Label_11_01470EF1
@ 044   ----------------------------------------
 .byte   PATT
  .word Label_11_01470EC4
@ 045   ----------------------------------------
 .byte   PATT
  .word Label_11_01470ED3
@ 046   ----------------------------------------
 .byte   PATT
  .word Label_11_01470EE2
@ 047   ----------------------------------------
 .byte   PATT
  .word Label_11_01470F10
@ 048   ----------------------------------------
 .byte   N72 ,Gn2 ,v100
 .byte   W72
 .byte   N08
 .byte   W08
 .byte   N08
 .byte   W08
 .byte   N08
 .byte   W08
@ 049   ----------------------------------------
 .byte   N96
 .byte   W96
@ 050   ----------------------------------------
 .byte   N72 ,As2
 .byte   W72
 .byte   N08
 .byte   W08
 .byte   N08
 .byte   W08
 .byte   N08
 .byte   W08
@ 051   ----------------------------------------
 .byte   N96 ,An2
 .byte   W96
@ 052   ----------------------------------------
 .byte   N72 ,Gs2
 .byte   W72
 .byte   N08
 .byte   W08
 .byte   N08
 .byte   W08
 .byte   N08
 .byte   W08
@ 053   ----------------------------------------
 .byte   N48 ,Gn2
 .byte   W48
 .byte   En2
 .byte   W48
@ 054   ----------------------------------------
 .byte   Fn2
 .byte   W48
 .byte   Gn2
 .byte   W48
@ 055   ----------------------------------------
Label_11_01470F77:
 .byte   N48 ,An2 ,v100
 .byte   W48
 .byte   Bn2
 .byte   W48
 .byte   PEND 
@ 056   ----------------------------------------
 .byte   PATT
  .word Label_11_01470F77
@ 057   ----------------------------------------
 .byte   N48 ,Cn3 ,v100
 .byte   W48
 .byte   N24 ,Dn3
 .byte   W24
 .byte   Gn2
 .byte   W24
@ 058   ----------------------------------------
 .byte   N96 ,En2
 .byte   W96
@ 059   ----------------------------------------
 .byte   N72 ,Fn2
 .byte   W72
 .byte   N24
 .byte   W24
@ 060   ----------------------------------------
 .byte   N96 ,En2
 .byte   W96
@ 061   ----------------------------------------
 .byte   Fn2
 .byte   W96
@ 062   ----------------------------------------
 .byte   Gn2
 .byte   W96
@ 063   ----------------------------------------
 .byte   N24 ,En2
 .byte   W24
 .byte   GOTO
  .word Label_11_01470EA6
 .byte   FINE

@**************** Track 13 (Midi-Chn.12) ****************@

song43_013:
@ 000   ----------------------------------------
 .byte   VOL , 35*song43_mvl/mxv
 .byte   KEYSH , song43_key+0
Label_12_014820CC:
 .byte   VOICE , 127
 .byte   PAN , c_v+0
 .byte   N06 ,Dn1 ,v100
 .byte   N06 ,Bn1 ,v080
 .byte   W12
 .byte   Dn1 ,v100
 .byte   N06 ,Bn1 ,v080
 .byte   W24
 .byte   Dn1 ,v100
 .byte   N06 ,Bn1 ,v080
 .byte   W06
 .byte   Dn1 ,v100
 .byte   N06 ,Bn1 ,v080
 .byte   W06
 .byte   Dn1 ,v100
 .byte   N06 ,Bn1 ,v080
 .byte   W12
 .byte   Dn1 ,v100
 .byte   N06 ,Bn1 ,v080
 .byte   W24
 .byte   N03 ,Dn1 ,v100
 .byte   W03
 .byte   N03
 .byte   W03
 .byte   N03
 .byte   W03
 .byte   N03
 .byte   W03
@ 001   ----------------------------------------
Label_12_014820FF:
 .byte   N06 ,Dn1 ,v100
 .byte   N06 ,Bn1 ,v080
 .byte   W12
 .byte   Dn1 ,v100
 .byte   N06 ,Bn1 ,v080
 .byte   W24
 .byte   Dn1 ,v100
 .byte   N06 ,Bn1 ,v080
 .byte   W06
 .byte   Dn1 ,v100
 .byte   N06 ,Bn1 ,v080
 .byte   W06
 .byte   Dn1 ,v100
 .byte   N06 ,Bn1 ,v080
 .byte   W12
 .byte   Dn1 ,v100
 .byte   N06 ,Bn1 ,v080
 .byte   W24
 .byte   N03 ,Dn1 ,v100
 .byte   W03
 .byte   N03
 .byte   W03
 .byte   N03
 .byte   W03
 .byte   N03
 .byte   W03
 .byte   PEND 
@ 002   ----------------------------------------
Label_12_0148212F:
 .byte   N06 ,Dn1 ,v100
 .byte   N06 ,Bn1 ,v080
 .byte   W12
 .byte   Dn1 ,v100
 .byte   N06 ,Bn1 ,v080
 .byte   W24
 .byte   Dn1 ,v100
 .byte   N06 ,Bn1 ,v080
 .byte   W06
 .byte   Dn1 ,v100
 .byte   N06 ,Bn1 ,v080
 .byte   W06
 .byte   Dn1 ,v100
 .byte   N06 ,Bn1 ,v080
 .byte   W12
 .byte   Dn1 ,v100
 .byte   N06 ,Bn1 ,v080
 .byte   W24
 .byte   Dn1 ,v100
 .byte   N06 ,Bn1 ,v080
 .byte   W06
 .byte   Dn1 ,v100
 .byte   N06 ,Bn1 ,v080
 .byte   W06
 .byte   PEND 
@ 003   ----------------------------------------
Label_12_01482161:
 .byte   N06 ,Dn1 ,v100
 .byte   N06 ,Bn1 ,v080
 .byte   W12
 .byte   Dn1 ,v100
 .byte   N06 ,Bn1 ,v080
 .byte   W24
 .byte   Dn1 ,v100
 .byte   N06 ,Bn1 ,v080
 .byte   W06
 .byte   Dn1 ,v100
 .byte   N06 ,Bn1 ,v080
 .byte   W06
 .byte   Dn1 ,v100
 .byte   N06 ,Bn1 ,v080
 .byte   W12
 .byte   Dn1 ,v100
 .byte   N06 ,Bn1 ,v080
 .byte   W12
 .byte   N03 ,Dn1 ,v100
 .byte   W03
 .byte   N03
 .byte   W03
 .byte   N03
 .byte   W03
 .byte   N03
 .byte   W03
 .byte   N03
 .byte   W03
 .byte   N03
 .byte   W03
 .byte   N03
 .byte   W03
 .byte   N03
 .byte   W03
 .byte   PEND 
@ 004   ----------------------------------------
Label_12_01482199:
 .byte   N06 ,Dn1 ,v100
 .byte   N06 ,Bn1 ,v080
 .byte   W12
 .byte   Dn1 ,v100
 .byte   N06 ,Bn1 ,v080
 .byte   W24
 .byte   Dn1 ,v100
 .byte   N06 ,Bn1 ,v080
 .byte   W06
 .byte   Dn1 ,v100
 .byte   N06 ,Bn1 ,v080
 .byte   W06
 .byte   Dn1 ,v100
 .byte   N06 ,Bn1 ,v080
 .byte   W12
 .byte   Dn1 ,v100
 .byte   N06 ,Bn1 ,v080
 .byte   W36
 .byte   PEND 
@ 005   ----------------------------------------
 .byte   PATT
  .word Label_12_014820FF
@ 006   ----------------------------------------
 .byte   PATT
  .word Label_12_014820FF
@ 007   ----------------------------------------
Label_12_014821C9:
 .byte   N06 ,Dn1 ,v100
 .byte   N06 ,Bn1 ,v080
 .byte   W12
 .byte   Dn1 ,v100
 .byte   N06 ,Bn1 ,v080
 .byte   W24
 .byte   Dn1 ,v100
 .byte   N06 ,Bn1 ,v080
 .byte   W06
 .byte   N03 ,Dn1 ,v100
 .byte   W03
 .byte   N03
 .byte   W03
 .byte   N03
 .byte   W03
 .byte   N03
 .byte   W03
 .byte   N03
 .byte   W03
 .byte   N03
 .byte   W03
 .byte   N03
 .byte   W03
 .byte   N03
 .byte   W03
 .byte   N03
 .byte   W03
 .byte   N03
 .byte   W03
 .byte   N03
 .byte   W03
 .byte   N03
 .byte   W03
 .byte   N03
 .byte   W03
 .byte   N03
 .byte   W03
 .byte   N03
 .byte   W03
 .byte   N03
 .byte   W03
 .byte   N03
 .byte   W03
 .byte   N03
 .byte   W03
 .byte   PEND 
@ 008   ----------------------------------------
 .byte   PATT
  .word Label_12_014820FF
@ 009   ----------------------------------------
 .byte   PATT
  .word Label_12_01482161
@ 010   ----------------------------------------
 .byte   N06 ,Dn1 ,v100
 .byte   N06 ,Bn1 ,v080
 .byte   W12
 .byte   Dn1 ,v100
 .byte   N06 ,Bn1 ,v080
 .byte   W24
 .byte   Dn1 ,v100
 .byte   N06 ,Bn1 ,v080
 .byte   W06
 .byte   Dn1 ,v100
 .byte   N06 ,Bn1 ,v080
 .byte   W06
 .byte   Dn1 ,v100
 .byte   N06 ,Bn1 ,v080
 .byte   W12
 .byte   Dn1 ,v100
 .byte   N06 ,Bn1 ,v080
 .byte   W24
 .byte   Dn1 ,v100
 .byte   N06 ,Bn1 ,v080
 .byte   W12
@ 011   ----------------------------------------
 .byte   PATT
  .word Label_12_01482161
@ 012   ----------------------------------------
 .byte   PATT
  .word Label_12_014820FF
@ 013   ----------------------------------------
 .byte   PATT
  .word Label_12_014820FF
@ 014   ----------------------------------------
 .byte   PATT
  .word Label_12_014820FF
@ 015   ----------------------------------------
 .byte   PATT
  .word Label_12_01482161
@ 016   ----------------------------------------
Label_12_01482251:
 .byte   N06 ,Dn1 ,v076
 .byte   N06 ,Bn1 ,v060
 .byte   W12
 .byte   Dn1 ,v088
 .byte   N06 ,Bn1 ,v060
 .byte   W12
 .byte   Dn1 ,v088
 .byte   N06 ,Bn1 ,v060
 .byte   W12
 .byte   Dn1 ,v076
 .byte   N06 ,Bn1 ,v060
 .byte   W06
 .byte   Dn1 ,v076
 .byte   N06 ,Bn1 ,v060
 .byte   W06
 .byte   Dn1 ,v076
 .byte   N06 ,Bn1 ,v060
 .byte   W12
 .byte   Dn1 ,v076
 .byte   N06 ,Bn1 ,v060
 .byte   W12
 .byte   Dn1 ,v076
 .byte   N06 ,Bn1 ,v060
 .byte   W12
 .byte   Dn1 ,v076
 .byte   N06 ,Bn1 ,v060
 .byte   W06
 .byte   Dn1 ,v076
 .byte   N06 ,Bn1 ,v060
 .byte   W06
 .byte   PEND 
@ 017   ----------------------------------------
 .byte   PATT
  .word Label_12_01482251
@ 018   ----------------------------------------
Label_12_01482294:
 .byte   N06 ,Dn1 ,v076
 .byte   N06 ,Bn1 ,v060
 .byte   W12
 .byte   Dn1 ,v088
 .byte   N06 ,Bn1 ,v060
 .byte   W12
 .byte   Dn1 ,v088
 .byte   N06 ,Bn1 ,v060
 .byte   W12
 .byte   Dn1 ,v076
 .byte   N06 ,Bn1 ,v060
 .byte   W06
 .byte   Dn1 ,v076
 .byte   N06 ,Bn1 ,v060
 .byte   W06
 .byte   Dn1 ,v076
 .byte   N06 ,Bn1 ,v060
 .byte   W12
 .byte   Dn1 ,v076
 .byte   N06 ,Bn1 ,v060
 .byte   W12
 .byte   Dn1 ,v076
 .byte   N06 ,Bn1 ,v060
 .byte   W12
 .byte   Dn1 ,v076
 .byte   N06 ,Bn1 ,v060
 .byte   W12
 .byte   PEND 
@ 019   ----------------------------------------
 .byte   Dn1 ,v076
 .byte   N06 ,Bn1 ,v060
 .byte   W12
 .byte   Dn1 ,v076
 .byte   N06 ,Bn1 ,v060
 .byte   W12
 .byte   Dn1 ,v076
 .byte   N06 ,Bn1 ,v060
 .byte   W06
 .byte   Dn1 ,v076
 .byte   N06 ,Bn1 ,v060
 .byte   W12
 .byte   Dn1 ,v076
 .byte   N06 ,Bn1 ,v060
 .byte   W06
 .byte   Dn1 ,v076
 .byte   N06 ,Bn1 ,v060
 .byte   W12
 .byte   Dn1 ,v076
 .byte   N06 ,Bn1 ,v060
 .byte   W12
 .byte   Dn1 ,v076
 .byte   N06 ,Bn1 ,v060
 .byte   W12
 .byte   Dn1 ,v076
 .byte   N06 ,Bn1 ,v060
 .byte   W12
@ 020   ----------------------------------------
 .byte   PATT
  .word Label_12_01482294
@ 021   ----------------------------------------
 .byte   PATT
  .word Label_12_01482294
@ 022   ----------------------------------------
 .byte   PATT
  .word Label_12_01482294
@ 023   ----------------------------------------
 .byte   N06 ,Dn1 ,v076
 .byte   N06 ,Bn1 ,v060
 .byte   W12
 .byte   Dn1 ,v088
 .byte   N06 ,Bn1 ,v060
 .byte   W06
 .byte   Dn1 ,v076
 .byte   N06 ,Bn1 ,v060
 .byte   W06
 .byte   Dn1 ,v088
 .byte   N06 ,Bn1 ,v060
 .byte   W12
 .byte   Dn1 ,v076
 .byte   N06 ,Bn1 ,v060
 .byte   W06
 .byte   Dn1 ,v076
 .byte   N06 ,Bn1 ,v060
 .byte   W06
 .byte   Dn1 ,v076
 .byte   N06 ,Bn1 ,v060
 .byte   W12
 .byte   Dn1 ,v076
 .byte   N06 ,Bn1 ,v060
 .byte   W12
 .byte   Dn1 ,v076
 .byte   N06 ,Bn1 ,v060
 .byte   W12
 .byte   Dn1 ,v076
 .byte   N06 ,Bn1 ,v060
 .byte   W12
@ 024   ----------------------------------------
 .byte   PATT
  .word Label_12_014820FF
@ 025   ----------------------------------------
 .byte   PATT
  .word Label_12_014820FF
@ 026   ----------------------------------------
 .byte   PATT
  .word Label_12_0148212F
@ 027   ----------------------------------------
 .byte   PATT
  .word Label_12_01482161
@ 028   ----------------------------------------
 .byte   PATT
  .word Label_12_01482199
@ 029   ----------------------------------------
 .byte   PATT
  .word Label_12_014820FF
@ 030   ----------------------------------------
 .byte   PATT
  .word Label_12_014820FF
@ 031   ----------------------------------------
 .byte   PATT
  .word Label_12_014821C9
@ 032   ----------------------------------------
Label_12_01482376:
 .byte   N06 ,Dn1 ,v100
 .byte   N06 ,Bn1 ,v080
 .byte   W12
 .byte   Dn1 ,v100
 .byte   N06 ,Bn1 ,v080
 .byte   W12
 .byte   Dn1 ,v100
 .byte   N06 ,Bn1 ,v080
 .byte   W12
 .byte   Dn1 ,v100
 .byte   N06 ,Bn1 ,v080
 .byte   W06
 .byte   Dn1 ,v100
 .byte   N06 ,Bn1 ,v080
 .byte   W06
 .byte   Dn1 ,v100
 .byte   N06 ,Bn1 ,v080
 .byte   W12
 .byte   Dn1 ,v100
 .byte   N06 ,Bn1 ,v080
 .byte   W12
 .byte   Dn1 ,v100
 .byte   N06 ,Bn1 ,v080
 .byte   W12
 .byte   Dn1 ,v100
 .byte   N06 ,Bn1 ,v080
 .byte   W06
 .byte   Dn1 ,v100
 .byte   N06 ,Bn1 ,v080
 .byte   W06
 .byte   PEND 
@ 033   ----------------------------------------
 .byte   PATT
  .word Label_12_01482376
@ 034   ----------------------------------------
 .byte   PATT
  .word Label_12_01482376
@ 035   ----------------------------------------
 .byte   N06 ,Dn1 ,v100
 .byte   N06 ,Bn1 ,v080
 .byte   W12
 .byte   Dn1 ,v100
 .byte   N06 ,Bn1 ,v080
 .byte   W12
 .byte   Dn1 ,v100
 .byte   N06 ,Bn1 ,v080
 .byte   W12
 .byte   Dn1 ,v100
 .byte   N06 ,Bn1 ,v080
 .byte   W06
 .byte   Dn1 ,v100
 .byte   N06 ,Bn1 ,v080
 .byte   W06
 .byte   Dn1 ,v100
 .byte   N06 ,Bn1 ,v080
 .byte   W12
 .byte   Dn1 ,v100
 .byte   N06 ,Bn1 ,v080
 .byte   W12
 .byte   Dn1 ,v100
 .byte   N06 ,Bn1 ,v080
 .byte   W12
 .byte   N03 ,Dn1 ,v100
 .byte   W03
 .byte   N03
 .byte   W03
 .byte   N03
 .byte   W03
 .byte   N03
 .byte   W03
@ 036   ----------------------------------------
 .byte   PATT
  .word Label_12_01482376
@ 037   ----------------------------------------
 .byte   PATT
  .word Label_12_01482376
@ 038   ----------------------------------------
 .byte   PATT
  .word Label_12_01482376
@ 039   ----------------------------------------
 .byte   N06 ,Dn1 ,v100
 .byte   N06 ,Bn1 ,v080
 .byte   W12
 .byte   Dn1 ,v100
 .byte   N06 ,Bn1 ,v080
 .byte   W12
 .byte   Dn1 ,v100
 .byte   N06 ,Bn1 ,v080
 .byte   W12
 .byte   Dn1 ,v100
 .byte   N06 ,Bn1 ,v080
 .byte   W06
 .byte   Dn1 ,v100
 .byte   N06 ,Bn1 ,v080
 .byte   W06
 .byte   Dn1 ,v100
 .byte   N06 ,Bn1 ,v080
 .byte   W12
 .byte   Dn1 ,v100
 .byte   N06 ,Bn1 ,v080
 .byte   W12
 .byte   N03 ,Dn1 ,v100
 .byte   W03
 .byte   N03
 .byte   W03
 .byte   N03
 .byte   W03
 .byte   N03
 .byte   W03
 .byte   N03
 .byte   W03
 .byte   N03
 .byte   W03
 .byte   N03
 .byte   W03
 .byte   N03
 .byte   W03
@ 040   ----------------------------------------
 .byte   PATT
  .word Label_12_014820FF
@ 041   ----------------------------------------
 .byte   PATT
  .word Label_12_014820FF
@ 042   ----------------------------------------
 .byte   PATT
  .word Label_12_0148212F
@ 043   ----------------------------------------
 .byte   PATT
  .word Label_12_01482161
@ 044   ----------------------------------------
 .byte   PATT
  .word Label_12_01482199
@ 045   ----------------------------------------
 .byte   PATT
  .word Label_12_014820FF
@ 046   ----------------------------------------
 .byte   PATT
  .word Label_12_014820FF
@ 047   ----------------------------------------
 .byte   PATT
  .word Label_12_014821C9
@ 048   ----------------------------------------
 .byte   W96
@ 049   ----------------------------------------
 .byte   W96
@ 050   ----------------------------------------
 .byte   W96
@ 051   ----------------------------------------
 .byte   W96
@ 052   ----------------------------------------
 .byte   W96
@ 053   ----------------------------------------
 .byte   W96
@ 054   ----------------------------------------
 .byte   W96
@ 055   ----------------------------------------
 .byte   W96
@ 056   ----------------------------------------
 .byte   W96
@ 057   ----------------------------------------
 .byte   W96
@ 058   ----------------------------------------
 .byte   W96
@ 059   ----------------------------------------
 .byte   W96
@ 060   ----------------------------------------
 .byte   W96
@ 061   ----------------------------------------
 .byte   W96
@ 062   ----------------------------------------
 .byte   W96
@ 063   ----------------------------------------
 .byte   W24
 .byte   GOTO
  .word Label_12_014820CC
 .byte   FINE

@******************************************************@
	.align	2

song43:
	.byte	13	@ NumTrks
	.byte	0	@ NumBlks
	.byte	song43_pri	@ Priority
	.byte	song43_rev	@ Reverb.
    
	.word	song43_grp
    
	.word	song43_001
	.word	song43_002
	.word	song43_003
	.word	song43_004
	.word	song43_005
	.word	song43_006
	.word	song43_007
	.word	song43_008
	.word	song43_009
	.word	song43_010
	.word	song43_011
	.word	song43_012
	.word	song43_013

	.end
