//Event file generated from Sappy .s format.
	#include "MPlayDef.event"

	#define	song03A8_grp  voicegroup001
	#define	song03A8_pri  10
	#define	song03A8_rev  0
	#define	song03A8_mvl  127
	#define	song03A8_key  0
	#define	song03A8_tbs  1
	#define	song03A8_exg  0
	#define	song03A8_cmp  1

	// .rodata
	//	song03A8
	ALIGN 4


//**************** Track 1 (Midi-Chn.0) ****************//

song03A8_001:
// 000   ----------------------------------------
Label_0_017795C8:
 BYTE   TEMPO   136*song03A8_tbs/2
 BYTE   KEYSH   song03A8_key+0
 BYTE   VOICE   110
 BYTE   VOL   36*song03A8_mvl/mxv
 BYTE   PAN   c_v-32
 BYTE   BEND   c_v+0
 BYTE   MOD 0
 BYTE   CnM2
 BYTE   W96
// 001   ----------------------------------------
 BYTE   W96
// 002   ----------------------------------------
 BYTE   W96
// 003   ----------------------------------------
 BYTE   W96
// 004   ----------------------------------------
Label_0_017795DA:
 BYTE   N06  Bn2  v127
 BYTE   W18
 BYTE   Bn2
 BYTE   W18
 BYTE   Bn2
 BYTE   W18
 BYTE   Bn2
 BYTE   W18
 BYTE   Bn2
 BYTE   W12
 BYTE   Bn2
 BYTE   W12
 BYTE   PEND 
// 005   ----------------------------------------
 BYTE   PATT
  POIN2 Label_0_017795DA
// 006   ----------------------------------------
 BYTE   PATT
  POIN2 Label_0_017795DA
// 007   ----------------------------------------
 BYTE   N06  Bn2  v127
 BYTE   W18
 BYTE   Bn2
 BYTE   W18
 BYTE   Bn2
 BYTE   W18
 BYTE   Bn2
 BYTE   W18
 BYTE   Bn2
 BYTE   W12
 BYTE   Bn2
 BYTE   W96
// 008   ----------------------------------------
 BYTE   W96
// 009   ----------------------------------------
 BYTE   W96
// 010   ----------------------------------------
 BYTE   W96
// 011   ----------------------------------------
 BYTE   W96
// 012   ----------------------------------------
 BYTE   W96
// 013   ----------------------------------------
 BYTE   W96
// 014   ----------------------------------------
 BYTE   W96
// 015   ----------------------------------------
 BYTE   W96
// 016   ----------------------------------------
 BYTE   W96
// 017   ----------------------------------------
 BYTE   W96
// 018   ----------------------------------------
 BYTE   W96
// 019   ----------------------------------------
 BYTE   W96
// 020   ----------------------------------------
 BYTE   W96
// 021   ----------------------------------------
 BYTE   W96
// 022   ----------------------------------------
 BYTE   W96
// 023   ----------------------------------------
 BYTE   W96
// 024   ----------------------------------------
 BYTE   W96
// 025   ----------------------------------------
 BYTE   W96
// 026   ----------------------------------------
 BYTE   W96
// 027   ----------------------------------------
 BYTE   W96
// 028   ----------------------------------------
 BYTE   W96
// 029   ----------------------------------------
 BYTE   W96
// 030   ----------------------------------------
 BYTE   W96
// 031   ----------------------------------------
 BYTE   W96
// 032   ----------------------------------------
 BYTE   W96
// 033   ----------------------------------------
 BYTE   W96
// 034   ----------------------------------------
 BYTE   W96
// 035   ----------------------------------------
 BYTE   W12
 BYTE   Fn5
 BYTE   W96
// 036   ----------------------------------------
 BYTE   W96
// 037   ----------------------------------------
 BYTE   W96
// 038   ----------------------------------------
 BYTE   W96
// 039   ----------------------------------------
 BYTE   W96
// 040   ----------------------------------------
 BYTE   W96
// 041   ----------------------------------------
 BYTE   W96
// 042   ----------------------------------------
 BYTE   W96
// 043   ----------------------------------------
 BYTE   W96
// 044   ----------------------------------------
 BYTE   W96
// 045   ----------------------------------------
 BYTE   W96
// 046   ----------------------------------------
 BYTE   W96
// 047   ----------------------------------------
 BYTE   W96
// 048   ----------------------------------------
 BYTE   W96
// 049   ----------------------------------------
 BYTE   W96
// 050   ----------------------------------------
 BYTE   W96
// 051   ----------------------------------------
 BYTE   W96
// 052   ----------------------------------------
 BYTE   W96
// 053   ----------------------------------------
 BYTE   W96
// 054   ----------------------------------------
 BYTE   W96
// 055   ----------------------------------------
 BYTE   W96
// 056   ----------------------------------------
 BYTE   W96
// 057   ----------------------------------------
 BYTE   W96
// 058   ----------------------------------------
 BYTE   W96
// 059   ----------------------------------------
 BYTE   W96
// 060   ----------------------------------------
 BYTE   W96
// 061   ----------------------------------------
 BYTE   W96
// 062   ----------------------------------------
 BYTE   W96
// 063   ----------------------------------------
 BYTE   W96
// 064   ----------------------------------------
 BYTE   W96
// 065   ----------------------------------------
 BYTE   W96
// 066   ----------------------------------------
 BYTE   W96
// 067   ----------------------------------------
 BYTE   W96
// 068   ----------------------------------------
 BYTE   W96
// 069   ----------------------------------------
 BYTE   W96
// 070   ----------------------------------------
 BYTE   W96
// 071   ----------------------------------------
 BYTE   Fn5
 BYTE   W96
// 072   ----------------------------------------
 BYTE   W96
// 073   ----------------------------------------
 BYTE   W96
// 074   ----------------------------------------
 BYTE   W96
// 075   ----------------------------------------
 BYTE   W96
// 076   ----------------------------------------
 BYTE   W96
// 077   ----------------------------------------
 BYTE   W96
// 078   ----------------------------------------
 BYTE   W96
// 079   ----------------------------------------
 BYTE   W96
// 080   ----------------------------------------
 BYTE   W96
// 081   ----------------------------------------
 BYTE   W96
// 082   ----------------------------------------
 BYTE   W96
// 083   ----------------------------------------
 BYTE   GoTo
  POIN2 Label_0_017795C8
 BYTE   FINE

//**************** Track 2 (Midi-Chn.1) ****************//

song03A8_002:
// 000   ----------------------------------------
Label_1_01779658:
 BYTE   TEMPO   136*song03A8_tbs/2
 BYTE   KEYSH   song03A8_key+0
 BYTE   VOICE   73
 BYTE   VOL   36*song03A8_mvl/mxv
 BYTE   PAN   c_v+21
 BYTE   BEND   c_v+0
 BYTE   MOD 0
 BYTE   CnM2
 BYTE   W96
// 001   ----------------------------------------
 BYTE   W96
// 002   ----------------------------------------
 BYTE   W96
// 003   ----------------------------------------
 BYTE   W96
// 004   ----------------------------------------
 BYTE   W96
// 005   ----------------------------------------
 BYTE   W96
// 006   ----------------------------------------
 BYTE   W96
// 007   ----------------------------------------
 BYTE   W96
// 008   ----------------------------------------
 BYTE   W96
// 009   ----------------------------------------
 BYTE   W96
// 010   ----------------------------------------
 BYTE   W96
// 011   ----------------------------------------
 BYTE   W84
Label_1_01779672:
 BYTE   N03  Dn4  v120
 BYTE   W03
 BYTE   Ds4
 BYTE   W03
 BYTE   En4
 BYTE   W03
 BYTE   Fn4
 BYTE   W03
// 012   ----------------------------------------
 BYTE   N06  Fs4
 BYTE   W06
 BYTE   En4
 BYTE   W06
 BYTE   Fs4
 BYTE   W06
 BYTE   Bn4
 BYTE   W06
 BYTE   N44  Fs4
 BYTE   W48
 BYTE   N24  En4
 BYTE   W24
 BYTE   PEND 
// 013   ----------------------------------------
Label_1_0177968C:
 BYTE   N06  Fs4  v120
 BYTE   W06
 BYTE   En4
 BYTE   W06
 BYTE   Fs4
 BYTE   W06
 BYTE   Bn4
 BYTE   W06
 BYTE   N44  Fs4
 BYTE   W48
 BYTE   N24  Dn4
 BYTE   W24
 BYTE   PEND 
// 014   ----------------------------------------
Label_1_0177969D:
 BYTE   N24  En4  v120
 BYTE   W24
 BYTE   N96  An3
 BYTE   W96
// 015   ----------------------------------------
 BYTE   W60
 BYTE   PEND 
// 016   ----------------------------------------
 BYTE   PATT
  POIN2 Label_1_01779672
// 017   ----------------------------------------
 BYTE   PATT
  POIN2 Label_1_0177968C
// 018   ----------------------------------------
Label_1_017796B0:
 BYTE   N24  En4  v120
 BYTE   W24
 BYTE   N48  An3
 BYTE   W48
 BYTE   N24  Cn4
 BYTE   W24
 BYTE   PEND 
// 019   ----------------------------------------
Label_1_017796BB:
 BYTE   N24  En4  v120
 BYTE   W24
 BYTE   N48  An3
 BYTE   W48
 BYTE   N12  Dn4
 BYTE   W12
 BYTE   N06  Cs4
 BYTE   W06
 BYTE   Cn4
 BYTE   W06
 BYTE   PEND 
// 020   ----------------------------------------
Label_1_017796CB:
 BYTE   N96  Bn3  v120
 BYTE   W48
 BYTE   Bn3
 BYTE   W96
// 021   ----------------------------------------
 BYTE   W96
// 022   ----------------------------------------
 BYTE   W96
// 023   ----------------------------------------
 BYTE   W36
 BYTE   PEND 
// 024   ----------------------------------------
 BYTE   PATT
  POIN2 Label_1_01779672
// 025   ----------------------------------------
 BYTE   PATT
  POIN2 Label_1_0177968C
// 026   ----------------------------------------
 BYTE   PATT
  POIN2 Label_1_0177969D
// 027   ----------------------------------------
 BYTE   PATT
  POIN2 Label_1_01779672
// 028   ----------------------------------------
 BYTE   PATT
  POIN2 Label_1_0177968C
// 029   ----------------------------------------
 BYTE   PATT
  POIN2 Label_1_017796B0
// 030   ----------------------------------------
 BYTE   PATT
  POIN2 Label_1_017796BB
// 031   ----------------------------------------
Label_1_017796F8:
 BYTE   N96  Bn3  v120
 BYTE   W48
 BYTE   Bn3
 BYTE   W96
// 032   ----------------------------------------
 BYTE   W96
// 033   ----------------------------------------
 BYTE   W96
// 034   ----------------------------------------
 BYTE   W48
 BYTE   PEND 
Label_1_01779702:
 BYTE   N06  En4  v120
 BYTE   W06
 BYTE   Dn4
 BYTE   W06
 BYTE   N36  En4
 BYTE   W36
// 035   ----------------------------------------
 BYTE   N12  An3
 BYTE   W12
 BYTE   Bn3
 BYTE   W12
 BYTE   Cn4
 BYTE   W12
 BYTE   Dn4
 BYTE   W12
 BYTE   PEND 
Label_1_01779715:
 BYTE   N06  En4  v120
 BYTE   W06
 BYTE   Dn4
 BYTE   W06
 BYTE   N36  En4
 BYTE   W36
// 036   ----------------------------------------
 BYTE   N12  An3
 BYTE   W12
 BYTE   Bn3
 BYTE   W12
 BYTE   Cn4
 BYTE   W12
 BYTE   En4
 BYTE   W12
 BYTE   PEND 
Label_1_01779728:
 BYTE   N06  Dn4  v120
 BYTE   W06
 BYTE   Cn4
 BYTE   W06
 BYTE   N36  Dn4
 BYTE   W36
// 037   ----------------------------------------
 BYTE   N12  Gn3
 BYTE   W12
 BYTE   An3
 BYTE   W12
 BYTE   Bn3
 BYTE   W12
 BYTE   Cn4
 BYTE   W12
 BYTE   PEND 
Label_1_0177973B:
 BYTE   N06  Dn4  v120
 BYTE   W06
 BYTE   Cn4
 BYTE   W06
 BYTE   N36  Dn4
 BYTE   W36
// 038   ----------------------------------------
 BYTE   N12  Gn3
 BYTE   W12
 BYTE   An3
 BYTE   W12
 BYTE   Bn3
 BYTE   W12
 BYTE   Dn4
 BYTE   W12
 BYTE   PEND 
// 039   ----------------------------------------
 BYTE   PATT
  POIN2 Label_1_01779702
// 040   ----------------------------------------
 BYTE   PATT
  POIN2 Label_1_01779715
// 041   ----------------------------------------
 BYTE   PATT
  POIN2 Label_1_01779728
// 042   ----------------------------------------
 BYTE   N18  Dn4  v120
 BYTE   W18
 BYTE   Bn3
 BYTE   W18
 BYTE   Gn3
 BYTE   W18
 BYTE   Dn3
 BYTE   W18
 BYTE   N24
 BYTE   W96
// 043   ----------------------------------------
 BYTE   W96
// 044   ----------------------------------------
 BYTE   W96
// 045   ----------------------------------------
 BYTE   W96
// 046   ----------------------------------------
 BYTE   W12
// 047   ----------------------------------------
 BYTE   PATT
  POIN2 Label_1_01779672
// 048   ----------------------------------------
 BYTE   PATT
  POIN2 Label_1_0177968C
// 049   ----------------------------------------
 BYTE   PATT
  POIN2 Label_1_0177969D
// 050   ----------------------------------------
 BYTE   PATT
  POIN2 Label_1_01779672
// 051   ----------------------------------------
 BYTE   PATT
  POIN2 Label_1_0177968C
// 052   ----------------------------------------
 BYTE   PATT
  POIN2 Label_1_017796B0
// 053   ----------------------------------------
 BYTE   PATT
  POIN2 Label_1_017796BB
// 054   ----------------------------------------
 BYTE   PATT
  POIN2 Label_1_017796CB
// 055   ----------------------------------------
 BYTE   PATT
  POIN2 Label_1_01779672
// 056   ----------------------------------------
 BYTE   PATT
  POIN2 Label_1_0177968C
// 057   ----------------------------------------
 BYTE   PATT
  POIN2 Label_1_0177969D
// 058   ----------------------------------------
 BYTE   PATT
  POIN2 Label_1_01779672
// 059   ----------------------------------------
 BYTE   PATT
  POIN2 Label_1_0177968C
// 060   ----------------------------------------
 BYTE   PATT
  POIN2 Label_1_017796B0
// 061   ----------------------------------------
 BYTE   PATT
  POIN2 Label_1_017796BB
// 062   ----------------------------------------
 BYTE   PATT
  POIN2 Label_1_017796F8
// 063   ----------------------------------------
 BYTE   PATT
  POIN2 Label_1_01779702
// 064   ----------------------------------------
 BYTE   PATT
  POIN2 Label_1_01779715
// 065   ----------------------------------------
 BYTE   PATT
  POIN2 Label_1_01779728
// 066   ----------------------------------------
 BYTE   PATT
  POIN2 Label_1_0177973B
// 067   ----------------------------------------
 BYTE   PATT
  POIN2 Label_1_01779702
// 068   ----------------------------------------
 BYTE   PATT
  POIN2 Label_1_01779715
// 069   ----------------------------------------
 BYTE   PATT
  POIN2 Label_1_01779728
// 070   ----------------------------------------
 BYTE   N18  Dn4  v120
 BYTE   W18
 BYTE   Bn3
 BYTE   W18
 BYTE   Gn3
 BYTE   W18
 BYTE   Dn3
 BYTE   W18
 BYTE   N24
 BYTE   W96
// 071   ----------------------------------------
 BYTE   W96
// 072   ----------------------------------------
 BYTE   W96
// 073   ----------------------------------------
 BYTE   W96
// 074   ----------------------------------------
 BYTE   W24
 BYTE   GoTo
  POIN2 Label_1_01779658
 BYTE   FINE

//**************** Track 3 (Midi-Chn.2) ****************//

song03A8_003:
// 000   ----------------------------------------
Label_2_017797F8:
 BYTE   TEMPO   136*song03A8_tbs/2
 BYTE   KEYSH   song03A8_key+0
 BYTE   VOICE   2
 BYTE   VOL   23*song03A8_mvl/mxv
 BYTE   PAN   c_v-22
 BYTE   BEND   c_v+0
 BYTE   MOD 0
 BYTE   CnM2
 BYTE   W96
// 001   ----------------------------------------
 BYTE   W96
// 002   ----------------------------------------
 BYTE   W96
// 003   ----------------------------------------
 BYTE   W96
// 004   ----------------------------------------
 BYTE   W96
// 005   ----------------------------------------
 BYTE   W96
// 006   ----------------------------------------
 BYTE   W96
// 007   ----------------------------------------
 BYTE   W96
// 008   ----------------------------------------
Label_2_0177980E:
 BYTE   N12  En1  v127
 BYTE   W12
 BYTE   En3  v111
 BYTE   N12  Gn3
 BYTE   N12  Dn3
 BYTE   N12  Bn2
 BYTE   W12
 BYTE   N06  En1  v127
 BYTE   W06
 BYTE   N12  En3  v111
 BYTE   N12  Gn3
 BYTE   N12  Bn2
 BYTE   N12  Dn3
 BYTE   W12
 BYTE   N06  En1  v127
 BYTE   W06
 BYTE   N12  En3  v111
 BYTE   N12  Gn3
 BYTE   N12  Bn2
 BYTE   N12  Dn3
 BYTE   W12
 BYTE   N06  En1  v127
 BYTE   W06
 BYTE   N12  En3  v111
 BYTE   N12  Gn3
 BYTE   N12  Bn2
 BYTE   N12  Dn3
 BYTE   W12
 BYTE   N06  En1  v127
 BYTE   W06
 BYTE   N12  Bn2  v111
 BYTE   N12  Gn3
 BYTE   N12  Dn3
 BYTE   N12  En3
 BYTE   W12
 BYTE   PEND 
// 009   ----------------------------------------
Label_2_01779854:
 BYTE   N12  En1  v127
 BYTE   W12
 BYTE   En3  v111
 BYTE   N12  Gn3
 BYTE   N12  Dn3
 BYTE   N12  Bn2
 BYTE   W12
 BYTE   N06  En1  v127
 BYTE   W06
 BYTE   N12  En3  v111
 BYTE   N12  Gn3
 BYTE   N12  Bn2
 BYTE   N12  Dn3
 BYTE   W12
 BYTE   N06  En1  v127
 BYTE   W06
 BYTE   N12  En3  v111
 BYTE   N12  Gn3
 BYTE   N12  Bn2
 BYTE   N12  Dn3
 BYTE   W12
 BYTE   N06  En1  v127
 BYTE   W06
 BYTE   N12  En3  v111
 BYTE   N12  Gn3
 BYTE   N12  Bn2
 BYTE   N12  Dn3
 BYTE   W12
 BYTE   N06  En1  v127
 BYTE   W06
 BYTE   N12  Gn3  v111
 BYTE   N12  Bn3
 BYTE   N12  Dn3
 BYTE   N12  En3
 BYTE   W12
 BYTE   PEND 
// 010   ----------------------------------------
 BYTE   PATT
  POIN2 Label_2_0177980E
// 011   ----------------------------------------
 BYTE   PATT
  POIN2 Label_2_01779854
// 012   ----------------------------------------
 BYTE   PATT
  POIN2 Label_2_0177980E
// 013   ----------------------------------------
 BYTE   PATT
  POIN2 Label_2_01779854
// 014   ----------------------------------------
Label_2_017798AE:
 BYTE   N12  Cn1  v127
 BYTE   W12
 BYTE   Gn2  v111
 BYTE   N12  Gn3
 BYTE   N12  En3
 BYTE   N12  Cn3
 BYTE   W12
 BYTE   N06  Cn1  v127
 BYTE   W06
 BYTE   N12  En3  v111
 BYTE   N12  Gn3
 BYTE   N12  Cn3
 BYTE   N12  Gn2
 BYTE   W12
 BYTE   N06  Cn1  v127
 BYTE   W06
 BYTE   N12  En3  v111
 BYTE   N12  Gn3
 BYTE   N12  Cn3
 BYTE   N12  Gn2
 BYTE   W12
 BYTE   N06  Cn1  v127
 BYTE   W06
 BYTE   N12  En3  v111
 BYTE   N12  Gn3
 BYTE   N12  Cn3
 BYTE   N12  Gn2
 BYTE   W12
 BYTE   N06  Cn1  v127
 BYTE   W06
 BYTE   N12  En3  v111
 BYTE   N12  Gn3
 BYTE   N12  Cn3
 BYTE   N12  Gn2
 BYTE   W12
 BYTE   PEND 
// 015   ----------------------------------------
Label_2_017798F4:
 BYTE   N12  Cn1  v127
 BYTE   W12
 BYTE   Gn2  v111
 BYTE   N12  Gn3
 BYTE   N12  En3
 BYTE   N12  Cn3
 BYTE   W12
 BYTE   N06  Cn1  v127
 BYTE   W06
 BYTE   N12  En3  v111
 BYTE   N12  Gn3
 BYTE   N12  Cn3
 BYTE   N12  Gn2
 BYTE   W12
 BYTE   N06  Cn1  v127
 BYTE   W06
 BYTE   En3  v111
 BYTE   N06  Gn3
 BYTE   N06  Gn2
 BYTE   N06  Cn3
 BYTE   W06
 BYTE   Cn1  v127
 BYTE   W06
 BYTE   En3  v111
 BYTE   N06  Gn3
 BYTE   N06  Gn2
 BYTE   N06  Cn3
 BYTE   W06
 BYTE   Cn1  v127
 BYTE   W06
 BYTE   En3  v111
 BYTE   N06  Gn3
 BYTE   N06  Cn3
 BYTE   N06  Gn2
 BYTE   W06
 BYTE   En1  v127
 BYTE   W06
 BYTE   N12  Gn2  v111
 BYTE   N12  Gn3
 BYTE   N12  En3
 BYTE   N12  Cn3
 BYTE   W12
 BYTE   PEND 
// 016   ----------------------------------------
 BYTE   PATT
  POIN2 Label_2_0177980E
// 017   ----------------------------------------
 BYTE   PATT
  POIN2 Label_2_01779854
// 018   ----------------------------------------
 BYTE   PATT
  POIN2 Label_2_017798AE
// 019   ----------------------------------------
 BYTE   PATT
  POIN2 Label_2_017798F4
// 020   ----------------------------------------
 BYTE   PATT
  POIN2 Label_2_0177980E
// 021   ----------------------------------------
 BYTE   PATT
  POIN2 Label_2_01779854
// 022   ----------------------------------------
 BYTE   PATT
  POIN2 Label_2_0177980E
// 023   ----------------------------------------
Label_2_01779965:
 BYTE   N12  En1  v127
 BYTE   W12
 BYTE   En3  v111
 BYTE   N12  Gn3
 BYTE   N12  Dn3
 BYTE   N12  Bn2
 BYTE   W12
 BYTE   N06  En1  v127
 BYTE   W06
 BYTE   N12  En3  v111
 BYTE   N12  Gn3
 BYTE   N12  Bn2
 BYTE   N12  Dn3
 BYTE   W12
 BYTE   N06  En1  v127
 BYTE   W06
 BYTE   En3  v111
 BYTE   N06  Gn3
 BYTE   N06  Bn2
 BYTE   N06  Dn3
 BYTE   W06
 BYTE   En1  v127
 BYTE   W06
 BYTE   En3  v111
 BYTE   N06  Gn3
 BYTE   N06  Bn2
 BYTE   N06  Dn3
 BYTE   W06
 BYTE   En1  v127
 BYTE   W06
 BYTE   Dn3  v111
 BYTE   N06  Bn3
 BYTE   N06  Gn3
 BYTE   N06  En3
 BYTE   W06
 BYTE   Gn1  v127
 BYTE   W06
 BYTE   N12  Dn3  v111
 BYTE   N12  Bn3
 BYTE   N12  Gn3
 BYTE   N12  En3
 BYTE   W12
 BYTE   PEND 
// 024   ----------------------------------------
 BYTE   PATT
  POIN2 Label_2_0177980E
// 025   ----------------------------------------
 BYTE   PATT
  POIN2 Label_2_01779854
// 026   ----------------------------------------
 BYTE   PATT
  POIN2 Label_2_017798AE
// 027   ----------------------------------------
 BYTE   PATT
  POIN2 Label_2_017798F4
// 028   ----------------------------------------
 BYTE   PATT
  POIN2 Label_2_0177980E
// 029   ----------------------------------------
 BYTE   PATT
  POIN2 Label_2_01779854
// 030   ----------------------------------------
 BYTE   PATT
  POIN2 Label_2_017798AE
// 031   ----------------------------------------
 BYTE   PATT
  POIN2 Label_2_017798F4
// 032   ----------------------------------------
 BYTE   PATT
  POIN2 Label_2_0177980E
// 033   ----------------------------------------
 BYTE   PATT
  POIN2 Label_2_01779854
// 034   ----------------------------------------
 BYTE   N12  En1  v127
 BYTE   W12
 BYTE   En3  v111
 BYTE   N12  Gn3
 BYTE   N12  Dn3
 BYTE   N12  Bn2
 BYTE   W12
 BYTE   N06  En1  v127
 BYTE   W06
 BYTE   N12  En3  v111
 BYTE   N12  Gn3
 BYTE   N12  Bn2
 BYTE   N12  Dn3
 BYTE   W12
 BYTE   N06  En1  v127
 BYTE   W06
 BYTE   N12  En3  v111
 BYTE   N12  Gn3
 BYTE   N12  Bn2
 BYTE   N12  Dn3
 BYTE   W12
 BYTE   N06  En1  v127
 BYTE   W06
 BYTE   N12  En3  v111
 BYTE   N12  Gn3
 BYTE   N12  Bn2
 BYTE   N12  Dn3
 BYTE   W12
 BYTE   N06  En1  v127
 BYTE   W06
 BYTE   N12  Bn2  v111
 BYTE   N12  Gn3
 BYTE   N12  Dn3
 BYTE   N12  En3
 BYTE   W96
// 035   ----------------------------------------
 BYTE   W96
// 036   ----------------------------------------
 BYTE   W96
// 037   ----------------------------------------
 BYTE   W96
// 038   ----------------------------------------
 BYTE   W96
// 039   ----------------------------------------
 BYTE   W96
// 040   ----------------------------------------
 BYTE   W96
// 041   ----------------------------------------
 BYTE   W96
// 042   ----------------------------------------
 BYTE   W96
// 043   ----------------------------------------
 BYTE   W12
// 044   ----------------------------------------
 BYTE   PATT
  POIN2 Label_2_0177980E
// 045   ----------------------------------------
 BYTE   PATT
  POIN2 Label_2_01779854
// 046   ----------------------------------------
 BYTE   PATT
  POIN2 Label_2_0177980E
// 047   ----------------------------------------
 BYTE   PATT
  POIN2 Label_2_01779854
// 048   ----------------------------------------
 BYTE   PATT
  POIN2 Label_2_0177980E
// 049   ----------------------------------------
 BYTE   PATT
  POIN2 Label_2_01779854
// 050   ----------------------------------------
 BYTE   PATT
  POIN2 Label_2_017798AE
// 051   ----------------------------------------
 BYTE   PATT
  POIN2 Label_2_017798F4
// 052   ----------------------------------------
 BYTE   PATT
  POIN2 Label_2_0177980E
// 053   ----------------------------------------
 BYTE   PATT
  POIN2 Label_2_01779854
// 054   ----------------------------------------
 BYTE   PATT
  POIN2 Label_2_017798AE
// 055   ----------------------------------------
 BYTE   PATT
  POIN2 Label_2_017798F4
// 056   ----------------------------------------
 BYTE   PATT
  POIN2 Label_2_0177980E
// 057   ----------------------------------------
 BYTE   PATT
  POIN2 Label_2_01779854
// 058   ----------------------------------------
 BYTE   PATT
  POIN2 Label_2_0177980E
// 059   ----------------------------------------
 BYTE   PATT
  POIN2 Label_2_01779965
// 060   ----------------------------------------
 BYTE   PATT
  POIN2 Label_2_0177980E
// 061   ----------------------------------------
 BYTE   PATT
  POIN2 Label_2_01779854
// 062   ----------------------------------------
 BYTE   PATT
  POIN2 Label_2_017798AE
// 063   ----------------------------------------
 BYTE   PATT
  POIN2 Label_2_017798F4
// 064   ----------------------------------------
 BYTE   PATT
  POIN2 Label_2_0177980E
// 065   ----------------------------------------
 BYTE   PATT
  POIN2 Label_2_01779854
// 066   ----------------------------------------
 BYTE   PATT
  POIN2 Label_2_017798AE
// 067   ----------------------------------------
 BYTE   PATT
  POIN2 Label_2_017798F4
// 068   ----------------------------------------
 BYTE   PATT
  POIN2 Label_2_0177980E
// 069   ----------------------------------------
 BYTE   PATT
  POIN2 Label_2_01779854
// 070   ----------------------------------------
 BYTE   N12  En1  v127
 BYTE   W12
 BYTE   En3  v111
 BYTE   N12  Gn3
 BYTE   N12  Dn3
 BYTE   N12  Bn2
 BYTE   W12
 BYTE   N06  En1  v127
 BYTE   W06
 BYTE   N12  En3  v111
 BYTE   N12  Gn3
 BYTE   N12  Bn2
 BYTE   N12  Dn3
 BYTE   W12
 BYTE   N06  En1  v127
 BYTE   W06
 BYTE   N12  En3  v111
 BYTE   N12  Gn3
 BYTE   N12  Bn2
 BYTE   N12  Dn3
 BYTE   W12
 BYTE   N06  En1  v127
 BYTE   W06
 BYTE   N12  En3  v111
 BYTE   N12  Gn3
 BYTE   N12  Bn2
 BYTE   N12  Dn3
 BYTE   W12
 BYTE   N06  En1  v127
 BYTE   W06
 BYTE   N12  Bn2  v111
 BYTE   N12  Gn3
 BYTE   N12  Dn3
 BYTE   N12  En3
 BYTE   W96
// 071   ----------------------------------------
 BYTE   W96
// 072   ----------------------------------------
 BYTE   W96
// 073   ----------------------------------------
 BYTE   W96
// 074   ----------------------------------------
 BYTE   W96
// 075   ----------------------------------------
 BYTE   W96
// 076   ----------------------------------------
 BYTE   W96
// 077   ----------------------------------------
 BYTE   W96
// 078   ----------------------------------------
 BYTE   W96
// 079   ----------------------------------------
 BYTE   W96
// 080   ----------------------------------------
 BYTE   W96
// 081   ----------------------------------------
 BYTE   W96
// 082   ----------------------------------------
 BYTE   W96
// 083   ----------------------------------------
 BYTE   W12
 BYTE   GoTo
  POIN2 Label_2_017797F8
 BYTE   FINE

//**************** Track 4 (Midi-Chn.3) ****************//

song03A8_004:
// 000   ----------------------------------------
Label_3_01779B10:
 BYTE   TEMPO   136*song03A8_tbs/2
 BYTE   KEYSH   song03A8_key+0
 BYTE   VOICE   63
 BYTE   VOL   17*song03A8_mvl/mxv
 BYTE   PAN   c_v-20
 BYTE   BEND   c_v+0
 BYTE   MOD 0
 BYTE   CnM2
 BYTE   N96  En3  v111
 BYTE   N96  Cs3
 BYTE   W96
// 001   ----------------------------------------
 BYTE   En3
 BYTE   N96  Cn3
 BYTE   W96
// 002   ----------------------------------------
 BYTE   Cs4
 BYTE   N96  En3
 BYTE   N96  Cs3
 BYTE   W96
// 003   ----------------------------------------
 BYTE   Cn4
 BYTE   N96  En3
 BYTE   N96  Cn3
 BYTE   W96
// 004   ----------------------------------------
Label_3_01779B34:
 BYTE   N96  Fs3  v111
 BYTE   N96  Bn2
 BYTE   W96
 BYTE   PEND 
// 005   ----------------------------------------
 BYTE   N96  Bn2  v111
 BYTE   N96  Fs2
 BYTE   W96
// 006   ----------------------------------------
 BYTE   PATT
  POIN2 Label_3_01779B34
// 007   ----------------------------------------
 BYTE   N96  Bn3  v111
 BYTE   N96  Ds3
 BYTE   N96  Fs3
 BYTE   W96
// 008   ----------------------------------------
 BYTE   W24
Label_3_01779B4F:
 BYTE   N72  Gn3  v111
 BYTE   N72  Dn3
 BYTE   W96
 BYTE   PEND 
// 009   ----------------------------------------
 BYTE   PATT
  POIN2 Label_3_01779B4F
// 010   ----------------------------------------
 BYTE   PATT
  POIN2 Label_3_01779B4F
// 011   ----------------------------------------
 BYTE   PATT
  POIN2 Label_3_01779B4F
// 012   ----------------------------------------
 BYTE   PATT
  POIN2 Label_3_01779B4F
// 013   ----------------------------------------
 BYTE   PATT
  POIN2 Label_3_01779B4F
// 014   ----------------------------------------
Label_3_01779B6F:
 BYTE   N72  Gn3  v111
 BYTE   N72  Cn3
 BYTE   W96
 BYTE   PEND 
// 015   ----------------------------------------
 BYTE   PATT
  POIN2 Label_3_01779B6F
// 016   ----------------------------------------
 BYTE   PATT
  POIN2 Label_3_01779B4F
// 017   ----------------------------------------
 BYTE   PATT
  POIN2 Label_3_01779B4F
// 018   ----------------------------------------
 BYTE   PATT
  POIN2 Label_3_01779B6F
// 019   ----------------------------------------
 BYTE   PATT
  POIN2 Label_3_01779B6F
// 020   ----------------------------------------
 BYTE   PATT
  POIN2 Label_3_01779B4F
// 021   ----------------------------------------
 BYTE   PATT
  POIN2 Label_3_01779B4F
// 022   ----------------------------------------
 BYTE   PATT
  POIN2 Label_3_01779B4F
// 023   ----------------------------------------
 BYTE   PATT
  POIN2 Label_3_01779B4F
// 024   ----------------------------------------
 BYTE   PATT
  POIN2 Label_3_01779B4F
// 025   ----------------------------------------
 BYTE   PATT
  POIN2 Label_3_01779B4F
// 026   ----------------------------------------
 BYTE   PATT
  POIN2 Label_3_01779B6F
// 027   ----------------------------------------
 BYTE   PATT
  POIN2 Label_3_01779B6F
// 028   ----------------------------------------
 BYTE   PATT
  POIN2 Label_3_01779B4F
// 029   ----------------------------------------
 BYTE   PATT
  POIN2 Label_3_01779B4F
// 030   ----------------------------------------
 BYTE   PATT
  POIN2 Label_3_01779B6F
// 031   ----------------------------------------
 BYTE   PATT
  POIN2 Label_3_01779B6F
// 032   ----------------------------------------
 BYTE   PATT
  POIN2 Label_3_01779B4F
// 033   ----------------------------------------
 BYTE   PATT
  POIN2 Label_3_01779B4F
// 034   ----------------------------------------
Label_3_01779BD5:
 BYTE   N72  Gn3  v111
 BYTE   N72  Dn3
 BYTE   W96
// 035   ----------------------------------------
 BYTE   W72
 BYTE   PEND 
Label_3_01779BDD:
 BYTE   N96  An3  v111
 BYTE   N96  En4
 BYTE   N96  Cn4
 BYTE   N96  Fn3
 BYTE   W48
// 036   ----------------------------------------
 BYTE   En4
 BYTE   N96  Fn3
 BYTE   N96  Cn4
 BYTE   N96  An3
 BYTE   W96
// 037   ----------------------------------------
 BYTE   W48
 BYTE   PEND 
Label_3_01779BF1:
 BYTE   N96  Gn3  v111
 BYTE   N96  Dn4
 BYTE   N96  Bn3
 BYTE   N96  En3
 BYTE   W48
// 038   ----------------------------------------
 BYTE   Dn4
 BYTE   N96  En3
 BYTE   N96  Bn3
 BYTE   N96  Gn3
 BYTE   W96
// 039   ----------------------------------------
 BYTE   W48
 BYTE   PEND 
// 040   ----------------------------------------
 BYTE   PATT
  POIN2 Label_3_01779BDD
// 041   ----------------------------------------
 BYTE   N96  Gn3  v111
 BYTE   N96  Dn4
 BYTE   N96  Bn3
 BYTE   N96  En3
 BYTE   W48
 BYTE   Dn4
 BYTE   N96  En3
 BYTE   N96  Bn3
 BYTE   N96  Gn3
 BYTE   W96
// 042   ----------------------------------------
 BYTE   W72
// 043   ----------------------------------------
 BYTE   PATT
  POIN2 Label_3_01779B4F
// 044   ----------------------------------------
 BYTE   PATT
  POIN2 Label_3_01779B4F
// 045   ----------------------------------------
 BYTE   PATT
  POIN2 Label_3_01779B4F
// 046   ----------------------------------------
 BYTE   PATT
  POIN2 Label_3_01779B4F
// 047   ----------------------------------------
 BYTE   PATT
  POIN2 Label_3_01779B4F
// 048   ----------------------------------------
 BYTE   PATT
  POIN2 Label_3_01779B4F
// 049   ----------------------------------------
 BYTE   PATT
  POIN2 Label_3_01779B6F
// 050   ----------------------------------------
 BYTE   PATT
  POIN2 Label_3_01779B6F
// 051   ----------------------------------------
 BYTE   PATT
  POIN2 Label_3_01779B4F
// 052   ----------------------------------------
 BYTE   PATT
  POIN2 Label_3_01779B4F
// 053   ----------------------------------------
 BYTE   PATT
  POIN2 Label_3_01779B6F
// 054   ----------------------------------------
 BYTE   PATT
  POIN2 Label_3_01779B6F
// 055   ----------------------------------------
 BYTE   PATT
  POIN2 Label_3_01779B4F
// 056   ----------------------------------------
 BYTE   PATT
  POIN2 Label_3_01779B4F
// 057   ----------------------------------------
 BYTE   PATT
  POIN2 Label_3_01779B4F
// 058   ----------------------------------------
 BYTE   PATT
  POIN2 Label_3_01779B4F
// 059   ----------------------------------------
 BYTE   PATT
  POIN2 Label_3_01779B4F
// 060   ----------------------------------------
 BYTE   PATT
  POIN2 Label_3_01779B4F
// 061   ----------------------------------------
 BYTE   PATT
  POIN2 Label_3_01779B6F
// 062   ----------------------------------------
 BYTE   PATT
  POIN2 Label_3_01779B6F
// 063   ----------------------------------------
 BYTE   PATT
  POIN2 Label_3_01779B4F
// 064   ----------------------------------------
 BYTE   PATT
  POIN2 Label_3_01779B4F
// 065   ----------------------------------------
 BYTE   PATT
  POIN2 Label_3_01779B6F
// 066   ----------------------------------------
 BYTE   PATT
  POIN2 Label_3_01779B6F
// 067   ----------------------------------------
 BYTE   PATT
  POIN2 Label_3_01779B4F
// 068   ----------------------------------------
 BYTE   PATT
  POIN2 Label_3_01779B4F
// 069   ----------------------------------------
 BYTE   PATT
  POIN2 Label_3_01779BD5
// 070   ----------------------------------------
 BYTE   PATT
  POIN2 Label_3_01779BDD
// 071   ----------------------------------------
 BYTE   PATT
  POIN2 Label_3_01779BF1
// 072   ----------------------------------------
 BYTE   N96  Fn3  v111
 BYTE   N96  En4
 BYTE   N96  An3
 BYTE   N96  Cn4
 BYTE   W48
 BYTE   En4
 BYTE   N96  Fn3
 BYTE   N96  An3
 BYTE   N96  Cn4
 BYTE   W96
// 073   ----------------------------------------
 BYTE   W48
 BYTE   Gn3
 BYTE   N96  Dn4
 BYTE   N96  Bn3
 BYTE   N96  En3
 BYTE   W48
// 074   ----------------------------------------
 BYTE   Dn4
 BYTE   N96  En3
 BYTE   N96  Bn3
 BYTE   N96  Gn3
 BYTE   W96
// 075   ----------------------------------------
 BYTE   W96
// 076   ----------------------------------------
 BYTE   W96
// 077   ----------------------------------------
 BYTE   W96
// 078   ----------------------------------------
 BYTE   W96
// 079   ----------------------------------------
 BYTE   W48
 BYTE   GoTo
  POIN2 Label_3_01779B10
 BYTE   FINE

//**************** Track 5 (Midi-Chn.4) ****************//

song03A8_005:
// 000   ----------------------------------------
Label_4_01779CDC:
 BYTE   TEMPO   136*song03A8_tbs/2
 BYTE   KEYSH   song03A8_key+0
 BYTE   VOICE   36
 BYTE   VOL   31*song03A8_mvl/mxv
 BYTE   PAN   c_v+0
 BYTE   BEND   c_v+0
 BYTE   MOD 0
 BYTE   CnM2
 BYTE   W96
// 001   ----------------------------------------
 BYTE   W96
// 002   ----------------------------------------
 BYTE   W96
// 003   ----------------------------------------
 BYTE   W96
// 004   ----------------------------------------
Label_4_01779CEE:
 BYTE   N06  Bn0  v127
 BYTE   W18
 BYTE   Bn0
 BYTE   W18
 BYTE   Bn0
 BYTE   W18
 BYTE   Bn0
 BYTE   W18
 BYTE   Bn0
 BYTE   W12
 BYTE   Bn0
 BYTE   W12
 BYTE   PEND 
// 005   ----------------------------------------
 BYTE   PATT
  POIN2 Label_4_01779CEE
// 006   ----------------------------------------
 BYTE   PATT
  POIN2 Label_4_01779CEE
// 007   ----------------------------------------
 BYTE   PATT
  POIN2 Label_4_01779CEE
// 008   ----------------------------------------
Label_4_01779D0C:
 BYTE   N12  En0  v127
 BYTE   W12
 BYTE   N06  En1
 BYTE   W06
 BYTE   En0
 BYTE   W06
 BYTE   En0
 BYTE   W06
 BYTE   N12
 BYTE   W12
 BYTE   Gn0
 BYTE   W12
 BYTE   Gn0
 BYTE   W12
 BYTE   N06
 BYTE   W06
 BYTE   N12  An0
 BYTE   W12
 BYTE   N06  Gn0
 BYTE   W06
 BYTE   An0
 BYTE   W06
 BYTE   PEND 
// 009   ----------------------------------------
Label_4_01779D28:
 BYTE   N12  En0  v127
 BYTE   W12
 BYTE   N06  En1
 BYTE   W06
 BYTE   En0
 BYTE   W06
 BYTE   En0
 BYTE   W06
 BYTE   N12
 BYTE   W12
 BYTE   Gn0
 BYTE   W12
 BYTE   Gn0
 BYTE   W12
 BYTE   N06
 BYTE   W06
 BYTE   N12  An0
 BYTE   W12
 BYTE   N06  Bn0
 BYTE   W06
 BYTE   An0
 BYTE   W06
 BYTE   PEND 
// 010   ----------------------------------------
 BYTE   PATT
  POIN2 Label_4_01779D0C
// 011   ----------------------------------------
 BYTE   PATT
  POIN2 Label_4_01779D28
// 012   ----------------------------------------
 BYTE   PATT
  POIN2 Label_4_01779D0C
// 013   ----------------------------------------
 BYTE   PATT
  POIN2 Label_4_01779D28
// 014   ----------------------------------------
Label_4_01779D58:
 BYTE   N12  Cn0  v127
 BYTE   W12
 BYTE   N06  Cn1
 BYTE   W06
 BYTE   Cn0
 BYTE   W06
 BYTE   Cn0
 BYTE   W06
 BYTE   N12
 BYTE   W12
 BYTE   En0
 BYTE   W12
 BYTE   En0
 BYTE   W12
 BYTE   N06
 BYTE   W06
 BYTE   N12  Gn0
 BYTE   W12
 BYTE   N06  An0
 BYTE   W06
 BYTE   Gn0
 BYTE   W06
 BYTE   PEND 
// 015   ----------------------------------------
 BYTE   PATT
  POIN2 Label_4_01779D58
// 016   ----------------------------------------
 BYTE   PATT
  POIN2 Label_4_01779D0C
// 017   ----------------------------------------
 BYTE   PATT
  POIN2 Label_4_01779D28
// 018   ----------------------------------------
 BYTE   PATT
  POIN2 Label_4_01779D58
// 019   ----------------------------------------
 BYTE   PATT
  POIN2 Label_4_01779D58
// 020   ----------------------------------------
 BYTE   PATT
  POIN2 Label_4_01779D0C
// 021   ----------------------------------------
 BYTE   PATT
  POIN2 Label_4_01779D28
// 022   ----------------------------------------
 BYTE   PATT
  POIN2 Label_4_01779D0C
// 023   ----------------------------------------
 BYTE   PATT
  POIN2 Label_4_01779D28
// 024   ----------------------------------------
 BYTE   PATT
  POIN2 Label_4_01779D0C
// 025   ----------------------------------------
 BYTE   PATT
  POIN2 Label_4_01779D28
// 026   ----------------------------------------
 BYTE   PATT
  POIN2 Label_4_01779D58
// 027   ----------------------------------------
 BYTE   PATT
  POIN2 Label_4_01779D58
// 028   ----------------------------------------
 BYTE   PATT
  POIN2 Label_4_01779D0C
// 029   ----------------------------------------
 BYTE   PATT
  POIN2 Label_4_01779D28
// 030   ----------------------------------------
 BYTE   PATT
  POIN2 Label_4_01779D58
// 031   ----------------------------------------
 BYTE   PATT
  POIN2 Label_4_01779D58
// 032   ----------------------------------------
 BYTE   PATT
  POIN2 Label_4_01779D0C
// 033   ----------------------------------------
 BYTE   PATT
  POIN2 Label_4_01779D28
// 034   ----------------------------------------
Label_4_01779DD3:
 BYTE   N12  En0  v127
 BYTE   W12
 BYTE   N06  En1
 BYTE   W06
 BYTE   En0
 BYTE   W06
 BYTE   En0
 BYTE   W06
 BYTE   N12
 BYTE   W12
 BYTE   Gn0
 BYTE   W12
 BYTE   Gn0
 BYTE   W12
 BYTE   N06
 BYTE   W06
 BYTE   N12  An0
 BYTE   W12
 BYTE   N06  Gn0
 BYTE   W06
 BYTE   An0
 BYTE   W96
// 035   ----------------------------------------
 BYTE   W06
 BYTE   PEND 
Label_4_01779DF0:
 BYTE   N12  Fn1  v127
 BYTE   W12
 BYTE   N06  En1
 BYTE   W06
 BYTE   N12  Fn1
 BYTE   W12
 BYTE   N06  En1
 BYTE   W06
 BYTE   N12  Fn1
 BYTE   W12
 BYTE   N06  En1
 BYTE   W06
 BYTE   N12  Fn1
 BYTE   W12
 BYTE   N06  En1
 BYTE   W06
 BYTE   N12  Fn1
 BYTE   W12
 BYTE   An1
 BYTE   W12
 BYTE   PEND 
// 036   ----------------------------------------
 BYTE   PATT
  POIN2 Label_4_01779DF0
// 037   ----------------------------------------
Label_4_01779E14:
 BYTE   N12  En1  v127
 BYTE   W12
 BYTE   N06  Dn1
 BYTE   W06
 BYTE   N12  En1
 BYTE   W12
 BYTE   N06  Dn1
 BYTE   W06
 BYTE   N12  En1
 BYTE   W12
 BYTE   N06  Dn1
 BYTE   W06
 BYTE   N12  En1
 BYTE   W12
 BYTE   N06  Dn1
 BYTE   W06
 BYTE   N12  En1
 BYTE   W12
 BYTE   Gn1
 BYTE   W12
 BYTE   PEND 
// 038   ----------------------------------------
 BYTE   PATT
  POIN2 Label_4_01779E14
// 039   ----------------------------------------
 BYTE   PATT
  POIN2 Label_4_01779DF0
// 040   ----------------------------------------
 BYTE   PATT
  POIN2 Label_4_01779DF0
// 041   ----------------------------------------
 BYTE   PATT
  POIN2 Label_4_01779E14
// 042   ----------------------------------------
 BYTE   PATT
  POIN2 Label_4_01779E14
// 043   ----------------------------------------
 BYTE   PATT
  POIN2 Label_4_01779D0C
// 044   ----------------------------------------
 BYTE   PATT
  POIN2 Label_4_01779D28
// 045   ----------------------------------------
 BYTE   PATT
  POIN2 Label_4_01779D0C
// 046   ----------------------------------------
 BYTE   PATT
  POIN2 Label_4_01779D28
// 047   ----------------------------------------
 BYTE   PATT
  POIN2 Label_4_01779D0C
// 048   ----------------------------------------
 BYTE   PATT
  POIN2 Label_4_01779D28
// 049   ----------------------------------------
 BYTE   PATT
  POIN2 Label_4_01779D58
// 050   ----------------------------------------
 BYTE   PATT
  POIN2 Label_4_01779D58
// 051   ----------------------------------------
 BYTE   PATT
  POIN2 Label_4_01779D0C
// 052   ----------------------------------------
 BYTE   PATT
  POIN2 Label_4_01779D28
// 053   ----------------------------------------
 BYTE   PATT
  POIN2 Label_4_01779D58
// 054   ----------------------------------------
 BYTE   PATT
  POIN2 Label_4_01779D58
// 055   ----------------------------------------
 BYTE   PATT
  POIN2 Label_4_01779D0C
// 056   ----------------------------------------
 BYTE   PATT
  POIN2 Label_4_01779D28
// 057   ----------------------------------------
 BYTE   PATT
  POIN2 Label_4_01779D0C
// 058   ----------------------------------------
 BYTE   PATT
  POIN2 Label_4_01779D28
// 059   ----------------------------------------
 BYTE   PATT
  POIN2 Label_4_01779D0C
// 060   ----------------------------------------
 BYTE   PATT
  POIN2 Label_4_01779D28
// 061   ----------------------------------------
 BYTE   PATT
  POIN2 Label_4_01779D58
// 062   ----------------------------------------
 BYTE   PATT
  POIN2 Label_4_01779D58
// 063   ----------------------------------------
 BYTE   PATT
  POIN2 Label_4_01779D0C
// 064   ----------------------------------------
 BYTE   PATT
  POIN2 Label_4_01779D28
// 065   ----------------------------------------
 BYTE   PATT
  POIN2 Label_4_01779D58
// 066   ----------------------------------------
 BYTE   PATT
  POIN2 Label_4_01779D58
// 067   ----------------------------------------
 BYTE   PATT
  POIN2 Label_4_01779D0C
// 068   ----------------------------------------
 BYTE   PATT
  POIN2 Label_4_01779D28
// 069   ----------------------------------------
 BYTE   PATT
  POIN2 Label_4_01779DD3
// 070   ----------------------------------------
 BYTE   PATT
  POIN2 Label_4_01779DF0
// 071   ----------------------------------------
 BYTE   PATT
  POIN2 Label_4_01779DF0
// 072   ----------------------------------------
 BYTE   PATT
  POIN2 Label_4_01779E14
// 073   ----------------------------------------
 BYTE   PATT
  POIN2 Label_4_01779E14
// 074   ----------------------------------------
 BYTE   PATT
  POIN2 Label_4_01779DF0
// 075   ----------------------------------------
 BYTE   PATT
  POIN2 Label_4_01779DF0
// 076   ----------------------------------------
 BYTE   PATT
  POIN2 Label_4_01779E14
// 077   ----------------------------------------
 BYTE   N12  En1  v127
 BYTE   W12
 BYTE   N06  Dn1
 BYTE   W06
 BYTE   N12  En1
 BYTE   W12
 BYTE   N06  Dn1
 BYTE   W06
 BYTE   N12  En1
 BYTE   W12
 BYTE   N06  Dn1
 BYTE   W06
 BYTE   N12  En1
 BYTE   W12
 BYTE   N06  Dn1
 BYTE   W06
 BYTE   N12  En1
 BYTE   W12
 BYTE   Gn1
 BYTE   W96
// 078   ----------------------------------------
 BYTE   W96
// 079   ----------------------------------------
 BYTE   W96
// 080   ----------------------------------------
 BYTE   W96
// 081   ----------------------------------------
 BYTE   W12
 BYTE   GoTo
  POIN2 Label_4_01779CDC
 BYTE   FINE

//**************** Track 6 (Midi-Chn.5) ****************//

song03A8_006:
// 000   ----------------------------------------
Label_5_01779F20:
 BYTE   TEMPO   136*song03A8_tbs/2
 BYTE   KEYSH   song03A8_key+0
 BYTE   VOICE   48
 BYTE   VOL   36*song03A8_mvl/mxv
 BYTE   PAN   c_v+15
 BYTE   BEND   c_v+0
 BYTE   MOD 0
 BYTE   CnM2
 BYTE   N24  Bn4  v100
 BYTE   N24  Bn3
 BYTE   W24
 BYTE   An4
 BYTE   N24  An3
 BYTE   W24
 BYTE   Gs4
 BYTE   N24  Gs3
 BYTE   W24
 BYTE   Fs4
 BYTE   N24  Fs3
 BYTE   W24
// 001   ----------------------------------------
Label_5_01779F40:
 BYTE   N24  An4  v100
 BYTE   N24  An3
 BYTE   W24
 BYTE   Gs4
 BYTE   N24  Gs3
 BYTE   W24
 BYTE   Fs4
 BYTE   N24  Fs3
 BYTE   W24
 BYTE   En4
 BYTE   N24  En3
 BYTE   W24
 BYTE   PEND 
// 002   ----------------------------------------
 BYTE   N24  Bn4  v100
 BYTE   N24  Bn3
 BYTE   W24
 BYTE   An4
 BYTE   N24  An3
 BYTE   W24
 BYTE   Gs4
 BYTE   N24  Gs3
 BYTE   W24
 BYTE   Fs4
 BYTE   N24  Fs3
 BYTE   W24
// 003   ----------------------------------------
 BYTE   PATT
  POIN2 Label_5_01779F40
// 004   ----------------------------------------
 BYTE   N48  En4  v100
 BYTE   N48  En3
 BYTE   W48
 BYTE   Ds4
 BYTE   N48  Ds3
 BYTE   W48
// 005   ----------------------------------------
 BYTE   Cs4
 BYTE   N48  Cs3
 BYTE   W48
 BYTE   Ds4
 BYTE   N48  Ds3
 BYTE   W48
// 006   ----------------------------------------
 BYTE   En5
 BYTE   N48  En4
 BYTE   N48  En3
 BYTE   W48
 BYTE   Ds5
 BYTE   N48  Ds4
 BYTE   N48  Ds3
 BYTE   W48
// 007   ----------------------------------------
 BYTE   Cs5
 BYTE   N48  Cs4
 BYTE   N48  Cs3
 BYTE   W48
 BYTE   Ds5
 BYTE   N48  Ds4
 BYTE   N48  Ds3
 BYTE   W96
// 008   ----------------------------------------
 BYTE   W96
// 009   ----------------------------------------
 BYTE   W96
// 010   ----------------------------------------
 BYTE   W96
// 011   ----------------------------------------
 BYTE   W96
// 012   ----------------------------------------
 BYTE   W96
// 013   ----------------------------------------
 BYTE   W96
// 014   ----------------------------------------
 BYTE   W96
// 015   ----------------------------------------
 BYTE   W96
// 016   ----------------------------------------
 BYTE   W96
// 017   ----------------------------------------
 BYTE   W96
// 018   ----------------------------------------
 BYTE   W96
// 019   ----------------------------------------
 BYTE   W96
// 020   ----------------------------------------
 BYTE   W96
// 021   ----------------------------------------
 BYTE   W96
// 022   ----------------------------------------
 BYTE   W96
// 023   ----------------------------------------
 BYTE   W96
// 024   ----------------------------------------
 BYTE   W96
// 025   ----------------------------------------
 BYTE   W96
// 026   ----------------------------------------
 BYTE   W96
// 027   ----------------------------------------
 BYTE   W96
// 028   ----------------------------------------
 BYTE   W96
// 029   ----------------------------------------
 BYTE   W96
// 030   ----------------------------------------
 BYTE   W96
// 031   ----------------------------------------
 BYTE   W96
// 032   ----------------------------------------
 BYTE   W96
// 033   ----------------------------------------
 BYTE   W96
// 034   ----------------------------------------
 BYTE   W96
// 035   ----------------------------------------
 BYTE   W48
Label_5_01779FB0:
 BYTE   N06  Fn5  v100
 BYTE   N06  Fn4
 BYTE   W24
 BYTE   Fn5
 BYTE   N06  Fn4
 BYTE   W24
// 036   ----------------------------------------
 BYTE   Fn5
 BYTE   N06  Fn4
 BYTE   W24
 BYTE   Fn5
 BYTE   N06  Fn4
 BYTE   W24
 BYTE   PEND 
// 037   ----------------------------------------
 BYTE   PATT
  POIN2 Label_5_01779FB0
// 038   ----------------------------------------
Label_5_01779FC8:
 BYTE   N06  En5  v100
 BYTE   N06  En4
 BYTE   W24
 BYTE   En5
 BYTE   N06  En4
 BYTE   W24
 BYTE   En5
 BYTE   N06  En4
 BYTE   W24
 BYTE   En5
 BYTE   N06  En4
 BYTE   W24
 BYTE   PEND 
// 039   ----------------------------------------
 BYTE   PATT
  POIN2 Label_5_01779FC8
// 040   ----------------------------------------
 BYTE   PATT
  POIN2 Label_5_01779FB0
// 041   ----------------------------------------
 BYTE   PATT
  POIN2 Label_5_01779FB0
// 042   ----------------------------------------
 BYTE   PATT
  POIN2 Label_5_01779FC8
// 043   ----------------------------------------
 BYTE   N06  En5  v100
 BYTE   N06  En4
 BYTE   W24
 BYTE   En5
 BYTE   N06  En4
 BYTE   W24
 BYTE   En5
 BYTE   N06  En4
 BYTE   W24
 BYTE   En5
 BYTE   N06  En4
 BYTE   W96
// 044   ----------------------------------------
 BYTE   W96
// 045   ----------------------------------------
 BYTE   W96
// 046   ----------------------------------------
 BYTE   W96
// 047   ----------------------------------------
 BYTE   W96
// 048   ----------------------------------------
 BYTE   W96
// 049   ----------------------------------------
 BYTE   W96
// 050   ----------------------------------------
 BYTE   W96
// 051   ----------------------------------------
 BYTE   W96
// 052   ----------------------------------------
 BYTE   W96
// 053   ----------------------------------------
 BYTE   W96
// 054   ----------------------------------------
 BYTE   W96
// 055   ----------------------------------------
 BYTE   W96
// 056   ----------------------------------------
 BYTE   W96
// 057   ----------------------------------------
 BYTE   W96
// 058   ----------------------------------------
 BYTE   W96
// 059   ----------------------------------------
 BYTE   W96
// 060   ----------------------------------------
 BYTE   W96
// 061   ----------------------------------------
 BYTE   W96
// 062   ----------------------------------------
 BYTE   W96
// 063   ----------------------------------------
 BYTE   W96
// 064   ----------------------------------------
 BYTE   W96
// 065   ----------------------------------------
 BYTE   W96
// 066   ----------------------------------------
 BYTE   W96
// 067   ----------------------------------------
 BYTE   W96
// 068   ----------------------------------------
 BYTE   W96
// 069   ----------------------------------------
 BYTE   W96
// 070   ----------------------------------------
 BYTE   W96
// 071   ----------------------------------------
 BYTE   W24
// 072   ----------------------------------------
 BYTE   PATT
  POIN2 Label_5_01779FB0
// 073   ----------------------------------------
 BYTE   PATT
  POIN2 Label_5_01779FB0
// 074   ----------------------------------------
 BYTE   PATT
  POIN2 Label_5_01779FC8
// 075   ----------------------------------------
 BYTE   PATT
  POIN2 Label_5_01779FC8
// 076   ----------------------------------------
 BYTE   PATT
  POIN2 Label_5_01779FB0
// 077   ----------------------------------------
 BYTE   PATT
  POIN2 Label_5_01779FB0
// 078   ----------------------------------------
 BYTE   PATT
  POIN2 Label_5_01779FC8
// 079   ----------------------------------------
 BYTE   N06  En5  v100
 BYTE   N06  En4
 BYTE   W24
 BYTE   En5
 BYTE   N06  En4
 BYTE   W24
 BYTE   En5
 BYTE   N06  En4
 BYTE   W24
 BYTE   En5
 BYTE   N06  En4
 BYTE   W96
// 080   ----------------------------------------
 BYTE   W96
// 081   ----------------------------------------
 BYTE   W96
// 082   ----------------------------------------
 BYTE   W96
// 083   ----------------------------------------
 BYTE   W24
 BYTE   GoTo
  POIN2 Label_5_01779F20
 BYTE   FINE

//**************** Track 7 (Midi-Chn.6) ****************//

song03A8_007:
// 000   ----------------------------------------
Label_6_0177A05C:
 BYTE   TEMPO   136*song03A8_tbs/2
 BYTE   KEYSH   song03A8_key+0
 BYTE   VOICE   46
 BYTE   VOL   36*song03A8_mvl/mxv
 BYTE   PAN   c_v+63
 BYTE   BEND   c_v+0
 BYTE   MOD 0
 BYTE   CnM2
 BYTE   W96
// 001   ----------------------------------------
 BYTE   W96
// 002   ----------------------------------------
 BYTE   W96
// 003   ----------------------------------------
 BYTE   W96
// 004   ----------------------------------------
 BYTE   W96
// 005   ----------------------------------------
 BYTE   W96
// 006   ----------------------------------------
 BYTE   W96
// 007   ----------------------------------------
 BYTE   W96
// 008   ----------------------------------------
 BYTE   W96
// 009   ----------------------------------------
 BYTE   W96
// 010   ----------------------------------------
 BYTE   W96
// 011   ----------------------------------------
 BYTE   W96
// 012   ----------------------------------------
 BYTE   W96
// 013   ----------------------------------------
 BYTE   W96
// 014   ----------------------------------------
 BYTE   W96
// 015   ----------------------------------------
 BYTE   W96
// 016   ----------------------------------------
 BYTE   W96
// 017   ----------------------------------------
 BYTE   W96
// 018   ----------------------------------------
 BYTE   W96
// 019   ----------------------------------------
 BYTE   W96
// 020   ----------------------------------------
 BYTE   W96
// 021   ----------------------------------------
 BYTE   W96
// 022   ----------------------------------------
 BYTE   W96
// 023   ----------------------------------------
 BYTE   W96
// 024   ----------------------------------------
 BYTE   W96
// 025   ----------------------------------------
 BYTE   W96
// 026   ----------------------------------------
 BYTE   W96
// 027   ----------------------------------------
 BYTE   W96
// 028   ----------------------------------------
 BYTE   W96
// 029   ----------------------------------------
 BYTE   W96
// 030   ----------------------------------------
 BYTE   W96
// 031   ----------------------------------------
 BYTE   W96
// 032   ----------------------------------------
 BYTE   W96
// 033   ----------------------------------------
 BYTE   W96
// 034   ----------------------------------------
 BYTE   W96
// 035   ----------------------------------------
 BYTE   W96
// 036   ----------------------------------------
Label_6_0177A08E:
 BYTE   N02  En5  v095
 BYTE   W06
 BYTE   Cn5
 BYTE   W06
 BYTE   An4
 BYTE   W06
 BYTE   Fn4
 BYTE   W06
 BYTE   En5
 BYTE   W06
 BYTE   Cn5
 BYTE   W06
 BYTE   An4
 BYTE   W06
 BYTE   Fn4
 BYTE   W06
 BYTE   En5
 BYTE   W06
 BYTE   Cn5
 BYTE   W06
 BYTE   An4
 BYTE   W06
 BYTE   Fn4
 BYTE   W06
 BYTE   En5
 BYTE   W06
 BYTE   Cn5
 BYTE   W06
 BYTE   An4
 BYTE   W06
 BYTE   Fn4
 BYTE   W06
 BYTE   PEND 
// 037   ----------------------------------------
 BYTE   PATT
  POIN2 Label_6_0177A08E
// 038   ----------------------------------------
Label_6_0177A0B6:
 BYTE   N02  Dn5  v095
 BYTE   W06
 BYTE   Bn4
 BYTE   W06
 BYTE   Gn4
 BYTE   W06
 BYTE   En4
 BYTE   W06
 BYTE   Dn5
 BYTE   W06
 BYTE   Bn4
 BYTE   W06
 BYTE   Gn4
 BYTE   W06
 BYTE   En4
 BYTE   W06
 BYTE   Dn5
 BYTE   W06
 BYTE   Bn4
 BYTE   W06
 BYTE   Gn4
 BYTE   W06
 BYTE   En4
 BYTE   W06
 BYTE   Dn5
 BYTE   W06
 BYTE   Bn4
 BYTE   W06
 BYTE   Gn4
 BYTE   W06
 BYTE   En4
 BYTE   W06
 BYTE   PEND 
// 039   ----------------------------------------
 BYTE   PATT
  POIN2 Label_6_0177A0B6
// 040   ----------------------------------------
 BYTE   PATT
  POIN2 Label_6_0177A08E
// 041   ----------------------------------------
 BYTE   PATT
  POIN2 Label_6_0177A08E
// 042   ----------------------------------------
 BYTE   PATT
  POIN2 Label_6_0177A0B6
// 043   ----------------------------------------
 BYTE   N02  Dn5  v095
 BYTE   W06
 BYTE   Bn4
 BYTE   W06
 BYTE   Gn4
 BYTE   W06
 BYTE   En4
 BYTE   W06
 BYTE   Dn5
 BYTE   W06
 BYTE   Bn4
 BYTE   W06
 BYTE   Gn4
 BYTE   W06
 BYTE   En4
 BYTE   W06
 BYTE   Dn5
 BYTE   W06
 BYTE   Bn4
 BYTE   W06
 BYTE   Gn4
 BYTE   W06
 BYTE   En4
 BYTE   W06
 BYTE   Dn5
 BYTE   W06
 BYTE   Bn4
 BYTE   W06
 BYTE   Gn4
 BYTE   W06
 BYTE   En4
 BYTE   W96
// 044   ----------------------------------------
 BYTE   W96
// 045   ----------------------------------------
 BYTE   W96
// 046   ----------------------------------------
 BYTE   W96
// 047   ----------------------------------------
 BYTE   W96
// 048   ----------------------------------------
 BYTE   W96
// 049   ----------------------------------------
 BYTE   W96
// 050   ----------------------------------------
 BYTE   W96
// 051   ----------------------------------------
 BYTE   W96
// 052   ----------------------------------------
 BYTE   W96
// 053   ----------------------------------------
 BYTE   W96
// 054   ----------------------------------------
 BYTE   W96
// 055   ----------------------------------------
 BYTE   W96
// 056   ----------------------------------------
 BYTE   W96
// 057   ----------------------------------------
 BYTE   W96
// 058   ----------------------------------------
 BYTE   W96
// 059   ----------------------------------------
 BYTE   W96
// 060   ----------------------------------------
 BYTE   W96
// 061   ----------------------------------------
 BYTE   W96
// 062   ----------------------------------------
 BYTE   W96
// 063   ----------------------------------------
 BYTE   W96
// 064   ----------------------------------------
 BYTE   W96
// 065   ----------------------------------------
 BYTE   W96
// 066   ----------------------------------------
 BYTE   W96
// 067   ----------------------------------------
 BYTE   W96
// 068   ----------------------------------------
 BYTE   W96
// 069   ----------------------------------------
 BYTE   W96
// 070   ----------------------------------------
 BYTE   W96
// 071   ----------------------------------------
 BYTE   W06
// 072   ----------------------------------------
 BYTE   PATT
  POIN2 Label_6_0177A08E
// 073   ----------------------------------------
 BYTE   PATT
  POIN2 Label_6_0177A08E
// 074   ----------------------------------------
 BYTE   PATT
  POIN2 Label_6_0177A0B6
// 075   ----------------------------------------
 BYTE   PATT
  POIN2 Label_6_0177A0B6
// 076   ----------------------------------------
 BYTE   PATT
  POIN2 Label_6_0177A08E
// 077   ----------------------------------------
 BYTE   PATT
  POIN2 Label_6_0177A08E
// 078   ----------------------------------------
 BYTE   PATT
  POIN2 Label_6_0177A0B6
// 079   ----------------------------------------
 BYTE   N02  Dn5  v095
 BYTE   W06
 BYTE   Bn4
 BYTE   W06
 BYTE   Gn4
 BYTE   W06
 BYTE   En4
 BYTE   W06
 BYTE   Dn5
 BYTE   W06
 BYTE   Bn4
 BYTE   W06
 BYTE   Gn4
 BYTE   W06
 BYTE   En4
 BYTE   W06
 BYTE   Dn5
 BYTE   W06
 BYTE   Bn4
 BYTE   W06
 BYTE   Gn4
 BYTE   W06
 BYTE   En4
 BYTE   W06
 BYTE   Dn5
 BYTE   W06
 BYTE   Bn4
 BYTE   W06
 BYTE   Gn4
 BYTE   W06
 BYTE   En4
 BYTE   W96
// 080   ----------------------------------------
 BYTE   W96
// 081   ----------------------------------------
 BYTE   W96
// 082   ----------------------------------------
 BYTE   W96
// 083   ----------------------------------------
 BYTE   W06
 BYTE   GoTo
  POIN2 Label_6_0177A05C
 BYTE   FINE

//**************** Track 8 (Midi-Chn.7) ****************//

song03A8_008:
// 000   ----------------------------------------
Label_7_0177A17C:
 BYTE   TEMPO   136*song03A8_tbs/2
 BYTE   KEYSH   song03A8_key+0
 BYTE   VOICE   80
 BYTE   VOL   21*song03A8_mvl/mxv
 BYTE   PAN   c_v+0
 BYTE   BEND   c_v+0
 BYTE   MOD 0
 BYTE   CnM2
 BYTE   W96
// 001   ----------------------------------------
 BYTE   W96
// 002   ----------------------------------------
 BYTE   W96
// 003   ----------------------------------------
 BYTE   W96
// 004   ----------------------------------------
 BYTE   W96
// 005   ----------------------------------------
 BYTE   W96
// 006   ----------------------------------------
 BYTE   W96
// 007   ----------------------------------------
 BYTE   W96
// 008   ----------------------------------------
 BYTE   W96
// 009   ----------------------------------------
 BYTE   W96
// 010   ----------------------------------------
 BYTE   W96
// 011   ----------------------------------------
 BYTE   W96
// 012   ----------------------------------------
 BYTE   W96
// 013   ----------------------------------------
 BYTE   W96
// 014   ----------------------------------------
 BYTE   W96
// 015   ----------------------------------------
 BYTE   W96
// 016   ----------------------------------------
 BYTE   W96
// 017   ----------------------------------------
 BYTE   W96
// 018   ----------------------------------------
 BYTE   W96
// 019   ----------------------------------------
 BYTE   W96
// 020   ----------------------------------------
 BYTE   W96
// 021   ----------------------------------------
 BYTE   W96
// 022   ----------------------------------------
 BYTE   W96
// 023   ----------------------------------------
 BYTE   W96
// 024   ----------------------------------------
 BYTE   W96
// 025   ----------------------------------------
 BYTE   W96
// 026   ----------------------------------------
 BYTE   W96
// 027   ----------------------------------------
 BYTE   W96
// 028   ----------------------------------------
 BYTE   W96
// 029   ----------------------------------------
 BYTE   W96
// 030   ----------------------------------------
 BYTE   W96
// 031   ----------------------------------------
 BYTE   W96
// 032   ----------------------------------------
 BYTE   W96
// 033   ----------------------------------------
 BYTE   W96
// 034   ----------------------------------------
 BYTE   W96
// 035   ----------------------------------------
 BYTE   N02  En4  v127
 BYTE   W03
 BYTE   N92
 BYTE   W44
 BYTE   W02
 BYTE   N01
 BYTE   W11
 BYTE   BEND   c_v-6
 BYTE   W01
 BYTE   BEND   c_v-11
 BYTE   W01
 BYTE   BEND   c_v-16
 BYTE   W01
 BYTE   BEND   c_v-22
 BYTE   W01
 BYTE   BEND   c_v-27
 BYTE   W01
 BYTE   BEND   c_v-32
 BYTE   W01
 BYTE   BEND   c_v-38
 BYTE   W01
 BYTE   BEND   c_v-43
 BYTE   W01
 BYTE   BEND   c_v-48
 BYTE   W01
 BYTE   BEND   c_v-54
 BYTE   W01
 BYTE   BEND   c_v-59
 BYTE   W01
 BYTE   BEND   c_v-64
 BYTE   BEND   c_v-64
 BYTE   BEND   c_v+0
 BYTE   W01
 BYTE   BEND   c_v-62
 BYTE   W01
 BYTE   BEND   c_v-59
 BYTE   W01
 BYTE   BEND   c_v-56
 BYTE   W01
 BYTE   BEND   c_v-54
 BYTE   W01
 BYTE   BEND   c_v-51
 BYTE   W01
 BYTE   BEND   c_v-48
 BYTE   W01
 BYTE   BEND   c_v-46
 BYTE   W01
 BYTE   BEND   c_v-43
 BYTE   W01
 BYTE   BEND   c_v-40
 BYTE   W01
 BYTE   BEND   c_v-38
 BYTE   W01
 BYTE   BEND   c_v-35
 BYTE   W01
 BYTE   BEND   c_v-32
 BYTE   W01
 BYTE   BEND   c_v-30
 BYTE   W01
 BYTE   BEND   c_v-27
 BYTE   W01
 BYTE   BEND   c_v-24
 BYTE   W01
 BYTE   BEND   c_v-22
 BYTE   W01
 BYTE   BEND   c_v-19
 BYTE   W01
 BYTE   BEND   c_v-16
 BYTE   W01
 BYTE   BEND   c_v-14
 BYTE   W01
 BYTE   BEND   c_v-11
 BYTE   W01
 BYTE   BEND   c_v-8
 BYTE   W01
 BYTE   BEND   c_v-6
 BYTE   W01
 BYTE   BEND   c_v-3
 BYTE   W01
 BYTE   BEND   c_v+0
 BYTE   W96
// 036   ----------------------------------------
 BYTE   W96
// 037   ----------------------------------------
 BYTE   W96
// 038   ----------------------------------------
 BYTE   W96
// 039   ----------------------------------------
 BYTE   W96
// 040   ----------------------------------------
 BYTE   W96
// 041   ----------------------------------------
 BYTE   W96
// 042   ----------------------------------------
 BYTE   W96
// 043   ----------------------------------------
 BYTE   W96
// 044   ----------------------------------------
 BYTE   W96
// 045   ----------------------------------------
 BYTE   W96
// 046   ----------------------------------------
 BYTE   W96
// 047   ----------------------------------------
 BYTE   W96
// 048   ----------------------------------------
 BYTE   W96
// 049   ----------------------------------------
 BYTE   W96
// 050   ----------------------------------------
 BYTE   W96
// 051   ----------------------------------------
 BYTE   W96
// 052   ----------------------------------------
 BYTE   W96
// 053   ----------------------------------------
 BYTE   W96
// 054   ----------------------------------------
 BYTE   W96
// 055   ----------------------------------------
 BYTE   W96
// 056   ----------------------------------------
 BYTE   W96
// 057   ----------------------------------------
 BYTE   W96
// 058   ----------------------------------------
 BYTE   W96
// 059   ----------------------------------------
 BYTE   W96
// 060   ----------------------------------------
 BYTE   W96
// 061   ----------------------------------------
 BYTE   W96
// 062   ----------------------------------------
 BYTE   W96
// 063   ----------------------------------------
 BYTE   W96
// 064   ----------------------------------------
 BYTE   W96
// 065   ----------------------------------------
 BYTE   W96
// 066   ----------------------------------------
 BYTE   W96
// 067   ----------------------------------------
 BYTE   W96
// 068   ----------------------------------------
 BYTE   W96
// 069   ----------------------------------------
 BYTE   W96
// 070   ----------------------------------------
 BYTE   N02  En4  v127
 BYTE   W03
 BYTE   N92
 BYTE   W44
 BYTE   W02
 BYTE   N01
 BYTE   W11
 BYTE   BEND   c_v-3
 BYTE   W01
 BYTE   BEND   c_v-6
 BYTE   W01
 BYTE   BEND   c_v-8
 BYTE   W01
 BYTE   BEND   c_v-11
 BYTE   W01
 BYTE   BEND   c_v-14
 BYTE   W01
 BYTE   BEND   c_v-16
 BYTE   W01
 BYTE   BEND   c_v-19
 BYTE   W01
 BYTE   BEND   c_v-22
 BYTE   W01
 BYTE   BEND   c_v-24
 BYTE   W01
 BYTE   BEND   c_v-27
 BYTE   W01
 BYTE   BEND   c_v-30
 BYTE   W01
 BYTE   BEND   c_v-32
 BYTE   W01
 BYTE   BEND   c_v-35
 BYTE   W01
 BYTE   BEND   c_v-38
 BYTE   W01
 BYTE   BEND   c_v-40
 BYTE   W01
 BYTE   BEND   c_v-43
 BYTE   W01
 BYTE   BEND   c_v-46
 BYTE   W01
 BYTE   BEND   c_v-48
 BYTE   W01
 BYTE   BEND   c_v-51
 BYTE   W01
 BYTE   BEND   c_v-54
 BYTE   W01
 BYTE   BEND   c_v-56
 BYTE   W01
 BYTE   BEND   c_v-59
 BYTE   W01
 BYTE   BEND   c_v-62
 BYTE   W01
 BYTE   BEND   c_v-64
 BYTE   W01
 BYTE   BEND   c_v-54
 BYTE   W01
 BYTE   BEND   c_v-43
 BYTE   W01
 BYTE   BEND   c_v-32
 BYTE   W01
 BYTE   BEND   c_v-22
 BYTE   W01
 BYTE   BEND   c_v-11
 BYTE   W01
 BYTE   BEND   c_v+0
 BYTE   W01
 BYTE   BEND   c_v+10
 BYTE   W01
 BYTE   BEND   c_v+21
 BYTE   W01
 BYTE   BEND   c_v+32
 BYTE   W01
 BYTE   BEND   c_v+42
 BYTE   W01
 BYTE   BEND   c_v+53
 BYTE   W01
 BYTE   BEND   c_v+63
 BYTE   BEND   c_v-32
 BYTE   BEND   c_v-43
 BYTE   BEND   c_v-11
 BYTE   BEND   c_v-22
 BYTE   BEND   c_v-54
 BYTE   BEND   c_v-22
 BYTE   BEND   c_v+0
 BYTE   BEND   c_v-64
 BYTE   BEND   c_v-43
 BYTE   BEND   c_v+0
 BYTE   BEND   c_v+53
 BYTE   BEND   c_v+63
 BYTE   BEND   c_v+32
 BYTE   BEND   c_v+42
 BYTE   BEND   c_v+53
 BYTE   BEND   c_v+21
 BYTE   BEND   c_v+10
 BYTE   BEND   c_v+42
 BYTE   BEND   c_v+32
 BYTE   BEND   c_v+21
 BYTE   BEND   c_v+42
 BYTE   BEND   c_v+63
 BYTE   BEND   c_v+0
 BYTE   BEND   c_v+21
 BYTE   BEND   c_v+53
 BYTE   BEND   c_v+21
 BYTE   BEND   c_v+10
 BYTE   BEND   c_v+42
 BYTE   BEND   c_v+32
 BYTE   BEND   c_v-22
 BYTE   BEND   c_v+42
 BYTE   BEND   c_v+21
 BYTE   BEND   c_v+42
 BYTE   BEND   c_v+63
 BYTE   BEND   c_v+0
 BYTE   BEND   c_v-64
 BYTE   BEND   c_v-43
 BYTE   BEND   c_v-22
 BYTE   BEND   c_v-43
 BYTE   BEND   c_v-26
 BYTE   BEND   c_v-28
 BYTE   BEND   c_v-22
 BYTE   BEND   c_v-24
 BYTE   BEND   c_v-30
 BYTE   BEND   c_v-37
 BYTE   BEND   c_v-39
 BYTE   BEND   c_v-32
 BYTE   BEND   c_v-35
 BYTE   BEND   c_v-20
 BYTE   BEND   c_v-5
 BYTE   BEND   c_v-7
 BYTE   BEND   c_v+0
 BYTE   BEND   c_v-3
 BYTE   BEND   c_v-9
 BYTE   BEND   c_v-15
 BYTE   BEND   c_v-18
 BYTE   BEND   c_v-11
 BYTE   BEND   c_v-13
 BYTE   BEND   c_v-41
 BYTE   BEND   c_v-43
 BYTE   BEND   c_v-32
 BYTE   BEND   c_v-64
 BYTE   BEND   c_v-54
 BYTE   BEND   c_v-22
 BYTE   BEND   c_v+10
 BYTE   BEND   c_v+21
 BYTE   BEND   c_v-11
 BYTE   BEND   c_v+0
 BYTE   BEND   c_v-62
 BYTE   BEND   c_v-47
 BYTE   BEND   c_v-50
 BYTE   BEND   c_v-43
 BYTE   BEND   c_v-45
 BYTE   BEND   c_v-52
 BYTE   BEND   c_v-58
 BYTE   BEND   c_v-60
 BYTE   BEND   c_v-54
 BYTE   BEND   c_v-56
 BYTE   W96
// 071   ----------------------------------------
 BYTE   W96
// 072   ----------------------------------------
 BYTE   W96
// 073   ----------------------------------------
 BYTE   W96
// 074   ----------------------------------------
 BYTE   W96
// 075   ----------------------------------------
 BYTE   W96
// 076   ----------------------------------------
 BYTE   W96
// 077   ----------------------------------------
 BYTE   W96
// 078   ----------------------------------------
 BYTE   W96
// 079   ----------------------------------------
 BYTE   W96
// 080   ----------------------------------------
 BYTE   W96
// 081   ----------------------------------------
 BYTE   W96
// 082   ----------------------------------------
 BYTE   GoTo
  POIN2 Label_7_0177A17C
 BYTE   FINE

//**************** Track 9 (Midi-Chn.8) ****************//

song03A8_009:
// 000   ----------------------------------------
Label_8_0177A36C:
 BYTE   TEMPO   136*song03A8_tbs/2
 BYTE   KEYSH   song03A8_key+0
 BYTE   VOICE   124
 BYTE   VOL   18*song03A8_mvl/mxv
 BYTE   PAN   c_v+0
 BYTE   BEND   c_v+0
 BYTE   MOD 0
 BYTE   CnM2
 BYTE   W96
// 001   ----------------------------------------
 BYTE   W96
// 002   ----------------------------------------
Label_8_0177A37C:
 BYTE   N02  Fs2  v084
 BYTE   W06
 BYTE   Fs2
 BYTE   W06
 BYTE   Fs2
 BYTE   W06
 BYTE   Fs2
 BYTE   W06
 BYTE   Fs2
 BYTE   W06
 BYTE   Fs2
 BYTE   W06
 BYTE   Fs2
 BYTE   W06
 BYTE   Fs2
 BYTE   W06
 BYTE   Fs2
 BYTE   W06
 BYTE   Fs2
 BYTE   W06
 BYTE   Fs2
 BYTE   W06
 BYTE   Fs2
 BYTE   W06
 BYTE   Fs2
 BYTE   W06
 BYTE   Fs2
 BYTE   W06
 BYTE   Fs2
 BYTE   W06
 BYTE   Fs2
 BYTE   W06
 BYTE   PEND 
// 003   ----------------------------------------
 BYTE   PATT
  POIN2 Label_8_0177A37C
// 004   ----------------------------------------
Label_8_0177A3A4:
 BYTE   N02  Gn2  v106
 BYTE   N02  Fs1  v084
 BYTE   N02  Bn0  v127
 BYTE   W18
 BYTE   Gn2  v106
 BYTE   N02  Fs1  v084
 BYTE   N02  Bn0  v127
 BYTE   W18
 BYTE   Gn2  v106
 BYTE   N02  Fs1  v084
 BYTE   N02  Bn0  v127
 BYTE   W18
 BYTE   Gn2  v106
 BYTE   N02  Fs1  v084
 BYTE   N02  Bn0  v127
 BYTE   W18
 BYTE   Gn2  v106
 BYTE   N02  Fs1  v084
 BYTE   N02  Bn0  v127
 BYTE   W12
 BYTE   Gn2  v106
 BYTE   N02  Fs1  v084
 BYTE   N02  Bn0  v127
 BYTE   W12
 BYTE   PEND 
// 005   ----------------------------------------
 BYTE   PATT
  POIN2 Label_8_0177A3A4
// 006   ----------------------------------------
 BYTE   PATT
  POIN2 Label_8_0177A3A4
// 007   ----------------------------------------
 BYTE   N02  Cn1  v127
 BYTE   N02  Gn2  v106
 BYTE   N02  Dn1  v095
 BYTE   N02  Bn0  v127
 BYTE   N02  Fs1  v084
 BYTE   W03
 BYTE   Dn1  v095
 BYTE   W03
 BYTE   Dn1
 BYTE   W06
 BYTE   Dn1
 BYTE   W06
 BYTE   Dn1
 BYTE   N02  Gn2  v106
 BYTE   N02  Bn0  v127
 BYTE   N02  Fs1  v084
 BYTE   W06
 BYTE   Dn1  v095
 BYTE   N02  Cn1  v127
 BYTE   W06
 BYTE   Dn1  v095
 BYTE   W06
 BYTE   Dn1
 BYTE   N02  Gn2  v106
 BYTE   N02  Bn0  v127
 BYTE   N02  Fs1  v084
 BYTE   W06
 BYTE   Dn1  v095
 BYTE   W06
 BYTE   Dn1  v118
 BYTE   N02  Cn1  v127
 BYTE   W03
 BYTE   Dn1  v118
 BYTE   W03
 BYTE   Dn1
 BYTE   N02  Gn2  v106
 BYTE   N02  Bn0  v127
 BYTE   N02  Fs1  v084
 BYTE   W06
 BYTE   Dn1  v118
 BYTE   W06
 BYTE   Dn1
 BYTE   W06
 BYTE   Cn1  v127
 BYTE   N02  Gn2  v106
 BYTE   N02  Dn1  v118
 BYTE   N02  Bn0  v127
 BYTE   N02  Fs1  v084
 BYTE   W06
 BYTE   Dn1  v118
 BYTE   W06
 BYTE   Dn1
 BYTE   N02  Gn2  v106
 BYTE   N02  Bn0  v127
 BYTE   N02  Fs1  v084
 BYTE   W06
 BYTE   Dn1  v118
 BYTE   W06
// 008   ----------------------------------------
Label_8_0177A458:
 BYTE   N02  Fs2  v084
 BYTE   N02  Fs1
 BYTE   N02  Cn1  v127
 BYTE   W06
 BYTE   Fs2  v084
 BYTE   N02  Fs1
 BYTE   W06
 BYTE   Fs2  v100
 BYTE   N02  As1  v084
 BYTE   W06
 BYTE   Fs2
 BYTE   W06
 BYTE   Fs2
 BYTE   N02  Fs1
 BYTE   N02  Cn1  v127
 BYTE   W06
 BYTE   Fs2  v084
 BYTE   N02  Fs1
 BYTE   W06
 BYTE   Fs2  v100
 BYTE   N02  As1  v084
 BYTE   W06
 BYTE   Fs2
 BYTE   W06
 BYTE   Fs2
 BYTE   N02  Fs1
 BYTE   N02  Cn1  v127
 BYTE   W06
 BYTE   Fs2  v084
 BYTE   N02  Fs1
 BYTE   W06
 BYTE   Fs2  v100
 BYTE   N02  As1  v084
 BYTE   W06
 BYTE   Fs2
 BYTE   W06
 BYTE   Fs2
 BYTE   N02  Fs1
 BYTE   N02  Cn1  v127
 BYTE   W06
 BYTE   Fs2  v084
 BYTE   N02  Fs1
 BYTE   W06
 BYTE   Fs2  v100
 BYTE   N02  As1  v084
 BYTE   W06
 BYTE   Fs2
 BYTE   W06
 BYTE   PEND 
// 009   ----------------------------------------
 BYTE   PATT
  POIN2 Label_8_0177A458
// 010   ----------------------------------------
 BYTE   PATT
  POIN2 Label_8_0177A458
// 011   ----------------------------------------
Label_8_0177A4B5:
 BYTE   N02  Fs2  v084
 BYTE   N02  Fs1
 BYTE   N02  Cn1  v127
 BYTE   W06
 BYTE   Fs2  v084
 BYTE   N02  Fs1
 BYTE   W06
 BYTE   Fs2  v100
 BYTE   N02  As1  v084
 BYTE   W06
 BYTE   Fs2
 BYTE   W06
 BYTE   Fs2
 BYTE   N02  Fs1
 BYTE   N02  Cn1  v127
 BYTE   W06
 BYTE   Fs2  v084
 BYTE   N02  Fs1
 BYTE   W06
 BYTE   Fs2  v100
 BYTE   N02  As1  v084
 BYTE   W06
 BYTE   Fs2
 BYTE   W06
 BYTE   Fs2
 BYTE   N02  Fs1
 BYTE   N02  Cn1  v127
 BYTE   W06
 BYTE   Fs2  v084
 BYTE   N02  Dn1  v118
 BYTE   N02  Fs1  v084
 BYTE   W06
 BYTE   Fs2  v100
 BYTE   N02  Dn1  v118
 BYTE   N02  As1  v084
 BYTE   W06
 BYTE   Fs2
 BYTE   W06
 BYTE   Dn1  v118
 BYTE   N02  Fs2  v084
 BYTE   N02  Cn1  v127
 BYTE   N02  Fs1  v084
 BYTE   W06
 BYTE   Fs2
 BYTE   N02  Fs1
 BYTE   W06
 BYTE   Fs2  v100
 BYTE   N02  Dn1  v118
 BYTE   N02  As1  v084
 BYTE   W06
 BYTE   Fs2
 BYTE   N02  Dn1  v118
 BYTE   W06
 BYTE   PEND 
// 012   ----------------------------------------
Label_8_0177A519:
 BYTE   N02  Fs2  v084
 BYTE   N02  Fs1
 BYTE   N02  Cn1  v127
 BYTE   W06
 BYTE   Fs2  v084
 BYTE   N02  Fs1
 BYTE   W06
 BYTE   Fs2  v100
 BYTE   N02  As1  v084
 BYTE   W06
 BYTE   Fs2
 BYTE   W06
 BYTE   Dn1  v118
 BYTE   N02  Fs2  v084
 BYTE   N02  Cn1  v127
 BYTE   N02  Fs1  v084
 BYTE   W06
 BYTE   Fs2
 BYTE   N02  Fs1
 BYTE   W06
 BYTE   Fs2  v100
 BYTE   N02  As1  v084
 BYTE   W06
 BYTE   Fs2
 BYTE   N02  Dn1  v118
 BYTE   W06
 BYTE   Fs2  v084
 BYTE   N02  Fs1
 BYTE   N02  Cn1  v127
 BYTE   W06
 BYTE   Fs2  v084
 BYTE   N02  Fs1
 BYTE   W06
 BYTE   Fs2  v100
 BYTE   N02  As1  v084
 BYTE   W06
 BYTE   Fs2
 BYTE   W06
 BYTE   Dn1  v118
 BYTE   N02  Fs2  v084
 BYTE   N02  Cn1  v127
 BYTE   N02  Fs1  v084
 BYTE   W06
 BYTE   Fs2
 BYTE   N02  Fs1
 BYTE   W06
 BYTE   Fs2  v100
 BYTE   N02  As1  v084
 BYTE   W06
 BYTE   Fs2
 BYTE   W06
 BYTE   PEND 
// 013   ----------------------------------------
Label_8_0177A578:
 BYTE   N02  Fs2  v084
 BYTE   N02  Fs1
 BYTE   N02  Cn1  v127
 BYTE   W06
 BYTE   Fs2  v084
 BYTE   N02  Fs1
 BYTE   W06
 BYTE   Fs2  v100
 BYTE   N02  As1  v084
 BYTE   W06
 BYTE   Fs2
 BYTE   W06
 BYTE   Dn1  v118
 BYTE   N02  Fs2  v084
 BYTE   N02  Cn1  v127
 BYTE   N02  Fs1  v084
 BYTE   W06
 BYTE   Fs2
 BYTE   N02  Fs1
 BYTE   W06
 BYTE   Fs2  v100
 BYTE   N02  As1  v084
 BYTE   W06
 BYTE   Fs2
 BYTE   N02  Dn1  v118
 BYTE   W06
 BYTE   Fs2  v084
 BYTE   N02  Fs1
 BYTE   N02  Cn1  v127
 BYTE   W06
 BYTE   Fs2  v084
 BYTE   N02  Fs1
 BYTE   W06
 BYTE   Fs2  v100
 BYTE   N02  As1  v084
 BYTE   W06
 BYTE   Fs2
 BYTE   W06
 BYTE   Dn1  v118
 BYTE   N02  Fs2  v084
 BYTE   N02  Cn1  v127
 BYTE   N02  Fs1  v084
 BYTE   W06
 BYTE   Fs2
 BYTE   N02  Fs1
 BYTE   W06
 BYTE   Fs2  v100
 BYTE   N02  As1  v084
 BYTE   W06
 BYTE   Fs2
 BYTE   N02  Dn1  v118
 BYTE   W06
 BYTE   PEND 
// 014   ----------------------------------------
 BYTE   PATT
  POIN2 Label_8_0177A519
// 015   ----------------------------------------
Label_8_0177A5DF:
 BYTE   N02  Fs2  v084
 BYTE   N02  Fs1
 BYTE   N02  Cn1  v127
 BYTE   W06
 BYTE   Fs2  v084
 BYTE   N02  Fs1
 BYTE   W06
 BYTE   Fs2  v100
 BYTE   N02  As1  v084
 BYTE   W06
 BYTE   Fs2
 BYTE   W06
 BYTE   Dn1  v118
 BYTE   N02  Fs2  v084
 BYTE   N02  Cn1  v127
 BYTE   N02  Fs1  v084
 BYTE   W06
 BYTE   Fs2
 BYTE   N02  Fs1
 BYTE   W06
 BYTE   Fs2  v100
 BYTE   N02  As1  v084
 BYTE   W06
 BYTE   Fs2
 BYTE   N02  Dn1  v118
 BYTE   W06
 BYTE   Fs2  v084
 BYTE   N02  Fs1
 BYTE   N02  Cn1  v127
 BYTE   W06
 BYTE   Fs2  v084
 BYTE   N02  Fs1
 BYTE   W06
 BYTE   Fs2  v100
 BYTE   N02  Dn1  v118
 BYTE   N02  As1  v084
 BYTE   W06
 BYTE   Fs2
 BYTE   W06
 BYTE   Dn1  v118
 BYTE   N02  Fs2  v084
 BYTE   N02  Cn1  v127
 BYTE   N02  Fs1  v084
 BYTE   W06
 BYTE   Fs2
 BYTE   N02  Fs1
 BYTE   W06
 BYTE   Fs2  v100
 BYTE   N02  Dn1  v118
 BYTE   N02  As1  v084
 BYTE   W06
 BYTE   Fs2
 BYTE   N02  Dn1  v118
 BYTE   W06
 BYTE   PEND 
// 016   ----------------------------------------
 BYTE   PATT
  POIN2 Label_8_0177A519
// 017   ----------------------------------------
 BYTE   PATT
  POIN2 Label_8_0177A578
// 018   ----------------------------------------
 BYTE   PATT
  POIN2 Label_8_0177A519
// 019   ----------------------------------------
Label_8_0177A656:
 BYTE   N02  Fs2  v084
 BYTE   N02  Fs1
 BYTE   N02  Cn1  v127
 BYTE   W06
 BYTE   Fs2  v084
 BYTE   N02  Fs1
 BYTE   W06
 BYTE   Fs2  v100
 BYTE   N02  As1  v084
 BYTE   W06
 BYTE   Fs2
 BYTE   W06
 BYTE   Dn1  v118
 BYTE   N02  Fs2  v084
 BYTE   N02  Cn1  v127
 BYTE   N02  Fs1  v084
 BYTE   W06
 BYTE   Fs2
 BYTE   N02  Fs1
 BYTE   W06
 BYTE   Fs2  v100
 BYTE   N02  As1  v084
 BYTE   W06
 BYTE   Fs2
 BYTE   N02  Dn1  v118
 BYTE   W06
 BYTE   Fs2  v084
 BYTE   N02  Fs1
 BYTE   N02  Cn1  v127
 BYTE   W06
 BYTE   Fs2  v084
 BYTE   N02  Dn1  v118
 BYTE   N02  Fs1  v084
 BYTE   W06
 BYTE   Fs2  v100
 BYTE   N02  Dn1  v118
 BYTE   N02  As1  v084
 BYTE   W06
 BYTE   Fs2
 BYTE   W06
 BYTE   Dn1  v118
 BYTE   N02  Fs2  v084
 BYTE   N02  Cn1  v127
 BYTE   N02  Fs1  v084
 BYTE   W06
 BYTE   Fs2
 BYTE   N02  Fs1
 BYTE   W06
 BYTE   Fs2  v100
 BYTE   N02  Dn1  v118
 BYTE   N02  As1  v084
 BYTE   W06
 BYTE   Fs2
 BYTE   N02  Dn1  v118
 BYTE   W06
 BYTE   PEND 
// 020   ----------------------------------------
 BYTE   PATT
  POIN2 Label_8_0177A519
// 021   ----------------------------------------
Label_8_0177A6C7:
 BYTE   N02  Fs2  v084
 BYTE   N02  Fs1
 BYTE   N02  Cn1  v127
 BYTE   W06
 BYTE   Fs2  v084
 BYTE   N02  Fs1
 BYTE   W06
 BYTE   Fs2  v100
 BYTE   N02  As1  v084
 BYTE   W06
 BYTE   Fs2
 BYTE   W06
 BYTE   Dn1  v118
 BYTE   N02  Fs2  v084
 BYTE   N02  Cn1  v127
 BYTE   N02  Fs1  v084
 BYTE   W06
 BYTE   Fs2
 BYTE   N02  Fs1
 BYTE   W06
 BYTE   Fs2  v100
 BYTE   N02  As1  v084
 BYTE   W06
 BYTE   Fs2
 BYTE   N02  Dn1  v118
 BYTE   W06
 BYTE   Fs2  v084
 BYTE   N02  Fs1
 BYTE   N02  Cn1  v127
 BYTE   W06
 BYTE   Fs2  v084
 BYTE   N02  Dn1  v118
 BYTE   N02  Fs1  v084
 BYTE   W06
 BYTE   Fs2  v100
 BYTE   N02  As1  v084
 BYTE   W06
 BYTE   Fs2
 BYTE   W06
 BYTE   Dn1  v118
 BYTE   N02  Fs2  v084
 BYTE   N02  Cn1  v127
 BYTE   N02  Fs1  v084
 BYTE   W06
 BYTE   Fs2
 BYTE   N02  Fs1
 BYTE   W06
 BYTE   Fs2  v100
 BYTE   N02  As1  v084
 BYTE   W06
 BYTE   Fs2
 BYTE   W06
 BYTE   PEND 
// 022   ----------------------------------------
 BYTE   PATT
  POIN2 Label_8_0177A6C7
// 023   ----------------------------------------
Label_8_0177A72F:
 BYTE   N02  Dn1  v118
 BYTE   N02  Fs2  v084
 BYTE   N02  Cn1  v127
 BYTE   N02  Fs1  v084
 BYTE   W06
 BYTE   Fs2
 BYTE   N02  Dn1  v118
 BYTE   N02  Fs1  v084
 BYTE   W06
 BYTE   Fs2  v100
 BYTE   N02  Dn1  v118
 BYTE   N02  As1  v084
 BYTE   W06
 BYTE   Fs2
 BYTE   N02  Dn1  v118
 BYTE   W06
 BYTE   Dn1
 BYTE   N02  Fs2  v084
 BYTE   N02  Cn1  v127
 BYTE   N02  Fs1  v084
 BYTE   W06
 BYTE   Fs2
 BYTE   N02  Fs1
 BYTE   W06
 BYTE   Fs2  v100
 BYTE   N02  Dn1  v118
 BYTE   N02  As1  v084
 BYTE   W06
 BYTE   Fs2
 BYTE   N02  Dn1  v118
 BYTE   W06
 BYTE   Fs2  v084
 BYTE   N02  Fs1
 BYTE   N02  Cn1  v127
 BYTE   W06
 BYTE   Fs2  v084
 BYTE   N02  Dn1  v118
 BYTE   N02  Fs1  v084
 BYTE   W06
 BYTE   Fs2  v100
 BYTE   N02  As1  v084
 BYTE   W06
 BYTE   Fs2
 BYTE   N02  Dn1  v118
 BYTE   W06
 BYTE   Dn1
 BYTE   N02  Fs2  v084
 BYTE   N02  Cn1  v127
 BYTE   N02  Fs1  v084
 BYTE   W06
 BYTE   Fs2
 BYTE   N02  Fs1
 BYTE   W06
 BYTE   Fs2  v100
 BYTE   N02  Dn1  v118
 BYTE   N02  As1  v084
 BYTE   W06
 BYTE   Fs2
 BYTE   N02  Dn1  v118
 BYTE   W06
 BYTE   PEND 
// 024   ----------------------------------------
 BYTE   PATT
  POIN2 Label_8_0177A519
// 025   ----------------------------------------
 BYTE   PATT
  POIN2 Label_8_0177A578
// 026   ----------------------------------------
 BYTE   PATT
  POIN2 Label_8_0177A519
// 027   ----------------------------------------
 BYTE   PATT
  POIN2 Label_8_0177A5DF
// 028   ----------------------------------------
 BYTE   PATT
  POIN2 Label_8_0177A519
// 029   ----------------------------------------
 BYTE   PATT
  POIN2 Label_8_0177A578
// 030   ----------------------------------------
 BYTE   PATT
  POIN2 Label_8_0177A519
// 031   ----------------------------------------
 BYTE   PATT
  POIN2 Label_8_0177A656
// 032   ----------------------------------------
 BYTE   PATT
  POIN2 Label_8_0177A519
// 033   ----------------------------------------
 BYTE   PATT
  POIN2 Label_8_0177A6C7
// 034   ----------------------------------------
Label_8_0177A7DB:
 BYTE   N02  Fs2  v084
 BYTE   N02  Fs1
 BYTE   N02  Cn1  v127
 BYTE   W06
 BYTE   Fs2  v084
 BYTE   N02  Fs1
 BYTE   W06
 BYTE   Fs2  v100
 BYTE   N02  As1  v084
 BYTE   W06
 BYTE   Fs2
 BYTE   W06
 BYTE   Dn1  v118
 BYTE   N02  Fs2  v084
 BYTE   N02  Cn1  v127
 BYTE   N02  Fs1  v084
 BYTE   W06
 BYTE   Fs2
 BYTE   N02  Fs1
 BYTE   W06
 BYTE   Fs2  v100
 BYTE   N02  As1  v084
 BYTE   W06
 BYTE   Fs2
 BYTE   N02  Dn1  v118
 BYTE   W06
 BYTE   Fs2  v084
 BYTE   N02  Fs1
 BYTE   N02  Cn1  v127
 BYTE   W06
 BYTE   Fs2  v084
 BYTE   N02  Dn1  v118
 BYTE   N02  Fs1  v084
 BYTE   W06
 BYTE   Fs2  v100
 BYTE   N02  As1  v084
 BYTE   W06
 BYTE   Fs2
 BYTE   W06
 BYTE   Dn1  v118
 BYTE   N02  Fs2  v084
 BYTE   N02  Cn1  v127
 BYTE   N02  Fs1  v084
 BYTE   W06
 BYTE   Fs2
 BYTE   N02  Fs1
 BYTE   W06
 BYTE   Fs2  v100
 BYTE   N02  As1  v084
 BYTE   W06
 BYTE   Fs2
 BYTE   W96
// 035   ----------------------------------------
 BYTE   W06
 BYTE   PEND 
// 036   ----------------------------------------
 BYTE   PATT
  POIN2 Label_8_0177A6C7
// 037   ----------------------------------------
Label_8_0177A844:
 BYTE   N02  Fs2  v084
 BYTE   N02  Fs1
 BYTE   N02  Cn1  v127
 BYTE   W06
 BYTE   Fs2  v084
 BYTE   N02  Fs1
 BYTE   W06
 BYTE   Fs2  v100
 BYTE   N02  As1  v084
 BYTE   W06
 BYTE   Fs2
 BYTE   W06
 BYTE   Dn1  v118
 BYTE   N02  Fs2  v084
 BYTE   N02  Cn1  v127
 BYTE   N02  Fs1  v084
 BYTE   W06
 BYTE   Fs2
 BYTE   N02  Fs1
 BYTE   W06
 BYTE   Fs2  v100
 BYTE   N02  As1  v084
 BYTE   W06
 BYTE   Fs2
 BYTE   N02  Dn1  v118
 BYTE   W06
 BYTE   Fs2  v084
 BYTE   N02  Fs1
 BYTE   N02  Cn1  v127
 BYTE   W06
 BYTE   Fs2  v084
 BYTE   N02  Dn1  v118
 BYTE   N02  Fs1  v084
 BYTE   W06
 BYTE   Fs2  v100
 BYTE   N02  As1  v084
 BYTE   W06
 BYTE   Fs2
 BYTE   W06
 BYTE   Dn1  v118
 BYTE   N02  Fs2  v084
 BYTE   N02  Cn1  v127
 BYTE   N02  Fs1  v084
 BYTE   W06
 BYTE   Fs2
 BYTE   N02  Fs1
 BYTE   W06
 BYTE   Fs2  v100
 BYTE   N02  As1  v084
 BYTE   W06
 BYTE   Fs2
 BYTE   N02  Dn1  v118
 BYTE   W06
 BYTE   PEND 
// 038   ----------------------------------------
 BYTE   PATT
  POIN2 Label_8_0177A6C7
// 039   ----------------------------------------
Label_8_0177A8AF:
 BYTE   N02  Fs2  v084
 BYTE   N02  Fs1
 BYTE   N02  Cn1  v127
 BYTE   W06
 BYTE   Fs2  v084
 BYTE   N02  Fs1
 BYTE   W06
 BYTE   Fs2  v100
 BYTE   N02  As1  v084
 BYTE   W06
 BYTE   Fs2
 BYTE   W06
 BYTE   Dn1  v118
 BYTE   N02  Fs2  v084
 BYTE   N02  Cn1  v127
 BYTE   N02  Fs1  v084
 BYTE   W06
 BYTE   Fs2
 BYTE   N02  Fs1
 BYTE   W06
 BYTE   Fs2  v100
 BYTE   N02  As1  v084
 BYTE   W06
 BYTE   Fs2
 BYTE   N02  Dn1  v118
 BYTE   W06
 BYTE   Fs2  v084
 BYTE   N02  Fs1
 BYTE   N02  Cn1  v127
 BYTE   W06
 BYTE   Fs2  v084
 BYTE   N02  Dn1  v118
 BYTE   N02  Fs1  v084
 BYTE   W06
 BYTE   Fs2  v100
 BYTE   N02  As1  v084
 BYTE   W06
 BYTE   Fs2
 BYTE   W06
 BYTE   Dn1  v118
 BYTE   N02  Fs2  v084
 BYTE   N02  Cn1  v127
 BYTE   N02  Fs1  v084
 BYTE   W06
 BYTE   Fs2
 BYTE   N02  Fs1
 BYTE   W06
 BYTE   Fs2  v100
 BYTE   N02  Dn1  v118
 BYTE   N02  As1  v084
 BYTE   W06
 BYTE   Fs2
 BYTE   N02  Dn1  v118
 BYTE   W06
 BYTE   PEND 
// 040   ----------------------------------------
 BYTE   PATT
  POIN2 Label_8_0177A6C7
// 041   ----------------------------------------
 BYTE   PATT
  POIN2 Label_8_0177A844
// 042   ----------------------------------------
 BYTE   PATT
  POIN2 Label_8_0177A6C7
// 043   ----------------------------------------
Label_8_0177A927:
 BYTE   N02  Dn1  v118
 BYTE   N02  Fs2  v084
 BYTE   N02  Cn1  v127
 BYTE   N02  Fs1  v084
 BYTE   W06
 BYTE   Fs2
 BYTE   N02  Dn1  v118
 BYTE   N02  Fs1  v084
 BYTE   W06
 BYTE   Fs2  v100
 BYTE   N02  Dn1  v118
 BYTE   N02  As1  v084
 BYTE   W06
 BYTE   Fs2
 BYTE   N02  Dn1  v118
 BYTE   W06
 BYTE   Dn1
 BYTE   N02  Fs2  v084
 BYTE   N02  Cn1  v127
 BYTE   N02  Fs1  v084
 BYTE   W06
 BYTE   Fs2
 BYTE   N02  Dn1  v118
 BYTE   N02  Fs1  v084
 BYTE   W06
 BYTE   Fs2  v100
 BYTE   N02  Dn1  v118
 BYTE   N02  As1  v084
 BYTE   W06
 BYTE   Fs2
 BYTE   N02  Dn1  v118
 BYTE   W06
 BYTE   Dn1
 BYTE   N02  Fs2  v084
 BYTE   N02  Cn1  v127
 BYTE   N02  Fs1  v084
 BYTE   W03
 BYTE   Dn1  v118
 BYTE   W03
 BYTE   Fs2  v084
 BYTE   N02  Dn1  v118
 BYTE   N02  Fs1  v084
 BYTE   W06
 BYTE   Fs2  v100
 BYTE   N02  Dn1  v118
 BYTE   N02  As1  v084
 BYTE   W06
 BYTE   Fs2
 BYTE   N02  Dn1  v118
 BYTE   W06
 BYTE   Dn1
 BYTE   N02  Fs2  v084
 BYTE   N02  Cn1  v127
 BYTE   N02  Fs1  v084
 BYTE   W03
 BYTE   Dn1  v118
 BYTE   W03
 BYTE   Fs2  v084
 BYTE   N02  Dn1  v118
 BYTE   N02  Fs1  v084
 BYTE   W06
 BYTE   Fs2  v100
 BYTE   N02  Dn1  v118
 BYTE   N02  As1  v084
 BYTE   W06
 BYTE   Fs2
 BYTE   N02  Dn1  v118
 BYTE   W06
 BYTE   PEND 
// 044   ----------------------------------------
 BYTE   PATT
  POIN2 Label_8_0177A458
// 045   ----------------------------------------
 BYTE   PATT
  POIN2 Label_8_0177A458
// 046   ----------------------------------------
 BYTE   PATT
  POIN2 Label_8_0177A458
// 047   ----------------------------------------
 BYTE   PATT
  POIN2 Label_8_0177A4B5
// 048   ----------------------------------------
 BYTE   PATT
  POIN2 Label_8_0177A519
// 049   ----------------------------------------
 BYTE   PATT
  POIN2 Label_8_0177A578
// 050   ----------------------------------------
 BYTE   PATT
  POIN2 Label_8_0177A519
// 051   ----------------------------------------
 BYTE   PATT
  POIN2 Label_8_0177A5DF
// 052   ----------------------------------------
 BYTE   PATT
  POIN2 Label_8_0177A519
// 053   ----------------------------------------
 BYTE   PATT
  POIN2 Label_8_0177A578
// 054   ----------------------------------------
 BYTE   PATT
  POIN2 Label_8_0177A519
// 055   ----------------------------------------
 BYTE   PATT
  POIN2 Label_8_0177A656
// 056   ----------------------------------------
 BYTE   PATT
  POIN2 Label_8_0177A519
// 057   ----------------------------------------
 BYTE   PATT
  POIN2 Label_8_0177A6C7
// 058   ----------------------------------------
 BYTE   PATT
  POIN2 Label_8_0177A6C7
// 059   ----------------------------------------
 BYTE   PATT
  POIN2 Label_8_0177A72F
// 060   ----------------------------------------
 BYTE   PATT
  POIN2 Label_8_0177A519
// 061   ----------------------------------------
 BYTE   PATT
  POIN2 Label_8_0177A578
// 062   ----------------------------------------
 BYTE   PATT
  POIN2 Label_8_0177A519
// 063   ----------------------------------------
 BYTE   PATT
  POIN2 Label_8_0177A5DF
// 064   ----------------------------------------
 BYTE   PATT
  POIN2 Label_8_0177A519
// 065   ----------------------------------------
 BYTE   PATT
  POIN2 Label_8_0177A578
// 066   ----------------------------------------
 BYTE   PATT
  POIN2 Label_8_0177A519
// 067   ----------------------------------------
 BYTE   PATT
  POIN2 Label_8_0177A656
// 068   ----------------------------------------
 BYTE   PATT
  POIN2 Label_8_0177A519
// 069   ----------------------------------------
 BYTE   PATT
  POIN2 Label_8_0177A6C7
// 070   ----------------------------------------
 BYTE   PATT
  POIN2 Label_8_0177A7DB
// 071   ----------------------------------------
 BYTE   PATT
  POIN2 Label_8_0177A6C7
// 072   ----------------------------------------
 BYTE   PATT
  POIN2 Label_8_0177A844
// 073   ----------------------------------------
 BYTE   PATT
  POIN2 Label_8_0177A6C7
// 074   ----------------------------------------
 BYTE   PATT
  POIN2 Label_8_0177A8AF
// 075   ----------------------------------------
 BYTE   PATT
  POIN2 Label_8_0177A6C7
// 076   ----------------------------------------
 BYTE   PATT
  POIN2 Label_8_0177A844
// 077   ----------------------------------------
 BYTE   PATT
  POIN2 Label_8_0177A6C7
// 078   ----------------------------------------
 BYTE   PATT
  POIN2 Label_8_0177A927
// 079   ----------------------------------------
Label_8_0177AA65:
 BYTE   N02  Cn1  v127
 BYTE   W24
 BYTE   Fn2  v084
 BYTE   N02  Cn1  v127
 BYTE   W24
 BYTE   Cn1
 BYTE   W24
 BYTE   Cn1
 BYTE   W24
 BYTE   PEND 
// 080   ----------------------------------------
Label_8_0177AA74:
 BYTE   N02  Cn1  v127
 BYTE   W24
 BYTE   Fn2  v084
 BYTE   N02  Cn1  v127
 BYTE   W24
 BYTE   Cn1
 BYTE   W24
 BYTE   Fn2  v084
 BYTE   N02  Cn1  v127
 BYTE   W24
 BYTE   PEND 
// 081   ----------------------------------------
 BYTE   PATT
  POIN2 Label_8_0177AA65
// 082   ----------------------------------------
 BYTE   PATT
  POIN2 Label_8_0177AA74
// 083   ----------------------------------------
 BYTE   GoTo
  POIN2 Label_8_0177A36C
 BYTE   FINE

//******************************************************//
	ALIGN 4

song03A8:
	BYTE	9	// NumTrks
	BYTE	0	// NumBlks
	BYTE	song03A8_pri	// Priority
	BYTE	song03A8_rev	// Reverb.
    
	POIN2	song03A8_grp
    
	POIN2	song03A8_001
	POIN2	song03A8_002
	POIN2	song03A8_003
	POIN2	song03A8_004
	POIN2	song03A8_005
	POIN2	song03A8_006
	POIN2	song03A8_007
	POIN2	song03A8_008
	POIN2	song03A8_009

	
