	.include "MPlayDef.s"

	.equ	song03A8_grp, voicegroup000
	.equ	song03A8_pri, 10
	.equ	song03A8_rev, 0
	.equ	song03A8_mvl, 127
	.equ	song03A8_key, 0
	.equ	song03A8_tbs, 1
	.equ	song03A8_exg, 0
	.equ	song03A8_cmp, 1

	.section .rodata
	.global	song03A8
	.align	2


@**************** Track 1 (Midi-Chn.0) ****************@

song03A8_001:
@ 000   ----------------------------------------
Label_0_017795C8:
 .byte   TEMPO , 136*song03A8_tbs/2
 .byte   KEYSH , song03A8_key+0
 .byte   VOICE , 110
 .byte   VOL , 36*song03A8_mvl/mxv
 .byte   PAN , c_v-32
 .byte   BEND , c_v+0
 .byte   MOD 0
 .byte   CnM2
 .byte   W96
@ 001   ----------------------------------------
 .byte   W96
@ 002   ----------------------------------------
 .byte   W96
@ 003   ----------------------------------------
 .byte   W96
@ 004   ----------------------------------------
Label_0_017795DA:
 .byte   N06 ,Bn2 ,v127
 .byte   W18
 .byte   Bn2
 .byte   W18
 .byte   Bn2
 .byte   W18
 .byte   Bn2
 .byte   W18
 .byte   Bn2
 .byte   W12
 .byte   Bn2
 .byte   W12
 .byte   PEND 
@ 005   ----------------------------------------
 .byte   PATT
  .word Label_0_017795DA
@ 006   ----------------------------------------
 .byte   PATT
  .word Label_0_017795DA
@ 007   ----------------------------------------
 .byte   N06 ,Bn2 ,v127
 .byte   W18
 .byte   Bn2
 .byte   W18
 .byte   Bn2
 .byte   W18
 .byte   Bn2
 .byte   W18
 .byte   Bn2
 .byte   W12
 .byte   Bn2
 .byte   W96
@ 008   ----------------------------------------
 .byte   W96
@ 009   ----------------------------------------
 .byte   W96
@ 010   ----------------------------------------
 .byte   W96
@ 011   ----------------------------------------
 .byte   W96
@ 012   ----------------------------------------
 .byte   W96
@ 013   ----------------------------------------
 .byte   W96
@ 014   ----------------------------------------
 .byte   W96
@ 015   ----------------------------------------
 .byte   W96
@ 016   ----------------------------------------
 .byte   W96
@ 017   ----------------------------------------
 .byte   W96
@ 018   ----------------------------------------
 .byte   W96
@ 019   ----------------------------------------
 .byte   W96
@ 020   ----------------------------------------
 .byte   W96
@ 021   ----------------------------------------
 .byte   W96
@ 022   ----------------------------------------
 .byte   W96
@ 023   ----------------------------------------
 .byte   W96
@ 024   ----------------------------------------
 .byte   W96
@ 025   ----------------------------------------
 .byte   W96
@ 026   ----------------------------------------
 .byte   W96
@ 027   ----------------------------------------
 .byte   W96
@ 028   ----------------------------------------
 .byte   W96
@ 029   ----------------------------------------
 .byte   W96
@ 030   ----------------------------------------
 .byte   W96
@ 031   ----------------------------------------
 .byte   W96
@ 032   ----------------------------------------
 .byte   W96
@ 033   ----------------------------------------
 .byte   W96
@ 034   ----------------------------------------
 .byte   W96
@ 035   ----------------------------------------
 .byte   W12
 .byte   Fn5
 .byte   W96
@ 036   ----------------------------------------
 .byte   W96
@ 037   ----------------------------------------
 .byte   W96
@ 038   ----------------------------------------
 .byte   W96
@ 039   ----------------------------------------
 .byte   W96
@ 040   ----------------------------------------
 .byte   W96
@ 041   ----------------------------------------
 .byte   W96
@ 042   ----------------------------------------
 .byte   W96
@ 043   ----------------------------------------
 .byte   W96
@ 044   ----------------------------------------
 .byte   W96
@ 045   ----------------------------------------
 .byte   W96
@ 046   ----------------------------------------
 .byte   W96
@ 047   ----------------------------------------
 .byte   W96
@ 048   ----------------------------------------
 .byte   W96
@ 049   ----------------------------------------
 .byte   W96
@ 050   ----------------------------------------
 .byte   W96
@ 051   ----------------------------------------
 .byte   W96
@ 052   ----------------------------------------
 .byte   W96
@ 053   ----------------------------------------
 .byte   W96
@ 054   ----------------------------------------
 .byte   W96
@ 055   ----------------------------------------
 .byte   W96
@ 056   ----------------------------------------
 .byte   W96
@ 057   ----------------------------------------
 .byte   W96
@ 058   ----------------------------------------
 .byte   W96
@ 059   ----------------------------------------
 .byte   W96
@ 060   ----------------------------------------
 .byte   W96
@ 061   ----------------------------------------
 .byte   W96
@ 062   ----------------------------------------
 .byte   W96
@ 063   ----------------------------------------
 .byte   W96
@ 064   ----------------------------------------
 .byte   W96
@ 065   ----------------------------------------
 .byte   W96
@ 066   ----------------------------------------
 .byte   W96
@ 067   ----------------------------------------
 .byte   W96
@ 068   ----------------------------------------
 .byte   W96
@ 069   ----------------------------------------
 .byte   W96
@ 070   ----------------------------------------
 .byte   W96
@ 071   ----------------------------------------
 .byte   Fn5
 .byte   W96
@ 072   ----------------------------------------
 .byte   W96
@ 073   ----------------------------------------
 .byte   W96
@ 074   ----------------------------------------
 .byte   W96
@ 075   ----------------------------------------
 .byte   W96
@ 076   ----------------------------------------
 .byte   W96
@ 077   ----------------------------------------
 .byte   W96
@ 078   ----------------------------------------
 .byte   W96
@ 079   ----------------------------------------
 .byte   W96
@ 080   ----------------------------------------
 .byte   W96
@ 081   ----------------------------------------
 .byte   W96
@ 082   ----------------------------------------
 .byte   W96
@ 083   ----------------------------------------
 .byte   GOTO
  .word Label_0_017795C8
 .byte   FINE

@**************** Track 2 (Midi-Chn.1) ****************@

song03A8_002:
@ 000   ----------------------------------------
Label_1_01779658:
 .byte   TEMPO , 136*song03A8_tbs/2
 .byte   KEYSH , song03A8_key+0
 .byte   VOICE , 73
 .byte   VOL , 36*song03A8_mvl/mxv
 .byte   PAN , c_v+21
 .byte   BEND , c_v+0
 .byte   MOD 0
 .byte   CnM2
 .byte   W96
@ 001   ----------------------------------------
 .byte   W96
@ 002   ----------------------------------------
 .byte   W96
@ 003   ----------------------------------------
 .byte   W96
@ 004   ----------------------------------------
 .byte   W96
@ 005   ----------------------------------------
 .byte   W96
@ 006   ----------------------------------------
 .byte   W96
@ 007   ----------------------------------------
 .byte   W96
@ 008   ----------------------------------------
 .byte   W96
@ 009   ----------------------------------------
 .byte   W96
@ 010   ----------------------------------------
 .byte   W96
@ 011   ----------------------------------------
 .byte   W84
Label_1_01779672:
 .byte   N03 ,Dn4 ,v120
 .byte   W03
 .byte   Ds4
 .byte   W03
 .byte   En4
 .byte   W03
 .byte   Fn4
 .byte   W03
@ 012   ----------------------------------------
 .byte   N06 ,Fs4
 .byte   W06
 .byte   En4
 .byte   W06
 .byte   Fs4
 .byte   W06
 .byte   Bn4
 .byte   W06
 .byte   N44 ,Fs4
 .byte   W48
 .byte   N24 ,En4
 .byte   W24
 .byte   PEND 
@ 013   ----------------------------------------
Label_1_0177968C:
 .byte   N06 ,Fs4 ,v120
 .byte   W06
 .byte   En4
 .byte   W06
 .byte   Fs4
 .byte   W06
 .byte   Bn4
 .byte   W06
 .byte   N44 ,Fs4
 .byte   W48
 .byte   N24 ,Dn4
 .byte   W24
 .byte   PEND 
@ 014   ----------------------------------------
Label_1_0177969D:
 .byte   N24 ,En4 ,v120
 .byte   W24
 .byte   N96 ,An3
 .byte   W96
@ 015   ----------------------------------------
 .byte   W60
 .byte   PEND 
@ 016   ----------------------------------------
 .byte   PATT
  .word Label_1_01779672
@ 017   ----------------------------------------
 .byte   PATT
  .word Label_1_0177968C
@ 018   ----------------------------------------
Label_1_017796B0:
 .byte   N24 ,En4 ,v120
 .byte   W24
 .byte   N48 ,An3
 .byte   W48
 .byte   N24 ,Cn4
 .byte   W24
 .byte   PEND 
@ 019   ----------------------------------------
Label_1_017796BB:
 .byte   N24 ,En4 ,v120
 .byte   W24
 .byte   N48 ,An3
 .byte   W48
 .byte   N12 ,Dn4
 .byte   W12
 .byte   N06 ,Cs4
 .byte   W06
 .byte   Cn4
 .byte   W06
 .byte   PEND 
@ 020   ----------------------------------------
Label_1_017796CB:
 .byte   N96 ,Bn3 ,v120
 .byte   W48
 .byte   Bn3
 .byte   W96
@ 021   ----------------------------------------
 .byte   W96
@ 022   ----------------------------------------
 .byte   W96
@ 023   ----------------------------------------
 .byte   W36
 .byte   PEND 
@ 024   ----------------------------------------
 .byte   PATT
  .word Label_1_01779672
@ 025   ----------------------------------------
 .byte   PATT
  .word Label_1_0177968C
@ 026   ----------------------------------------
 .byte   PATT
  .word Label_1_0177969D
@ 027   ----------------------------------------
 .byte   PATT
  .word Label_1_01779672
@ 028   ----------------------------------------
 .byte   PATT
  .word Label_1_0177968C
@ 029   ----------------------------------------
 .byte   PATT
  .word Label_1_017796B0
@ 030   ----------------------------------------
 .byte   PATT
  .word Label_1_017796BB
@ 031   ----------------------------------------
Label_1_017796F8:
 .byte   N96 ,Bn3 ,v120
 .byte   W48
 .byte   Bn3
 .byte   W96
@ 032   ----------------------------------------
 .byte   W96
@ 033   ----------------------------------------
 .byte   W96
@ 034   ----------------------------------------
 .byte   W48
 .byte   PEND 
Label_1_01779702:
 .byte   N06 ,En4 ,v120
 .byte   W06
 .byte   Dn4
 .byte   W06
 .byte   N36 ,En4
 .byte   W36
@ 035   ----------------------------------------
 .byte   N12 ,An3
 .byte   W12
 .byte   Bn3
 .byte   W12
 .byte   Cn4
 .byte   W12
 .byte   Dn4
 .byte   W12
 .byte   PEND 
Label_1_01779715:
 .byte   N06 ,En4 ,v120
 .byte   W06
 .byte   Dn4
 .byte   W06
 .byte   N36 ,En4
 .byte   W36
@ 036   ----------------------------------------
 .byte   N12 ,An3
 .byte   W12
 .byte   Bn3
 .byte   W12
 .byte   Cn4
 .byte   W12
 .byte   En4
 .byte   W12
 .byte   PEND 
Label_1_01779728:
 .byte   N06 ,Dn4 ,v120
 .byte   W06
 .byte   Cn4
 .byte   W06
 .byte   N36 ,Dn4
 .byte   W36
@ 037   ----------------------------------------
 .byte   N12 ,Gn3
 .byte   W12
 .byte   An3
 .byte   W12
 .byte   Bn3
 .byte   W12
 .byte   Cn4
 .byte   W12
 .byte   PEND 
Label_1_0177973B:
 .byte   N06 ,Dn4 ,v120
 .byte   W06
 .byte   Cn4
 .byte   W06
 .byte   N36 ,Dn4
 .byte   W36
@ 038   ----------------------------------------
 .byte   N12 ,Gn3
 .byte   W12
 .byte   An3
 .byte   W12
 .byte   Bn3
 .byte   W12
 .byte   Dn4
 .byte   W12
 .byte   PEND 
@ 039   ----------------------------------------
 .byte   PATT
  .word Label_1_01779702
@ 040   ----------------------------------------
 .byte   PATT
  .word Label_1_01779715
@ 041   ----------------------------------------
 .byte   PATT
  .word Label_1_01779728
@ 042   ----------------------------------------
 .byte   N18 ,Dn4 ,v120
 .byte   W18
 .byte   Bn3
 .byte   W18
 .byte   Gn3
 .byte   W18
 .byte   Dn3
 .byte   W18
 .byte   N24
 .byte   W96
@ 043   ----------------------------------------
 .byte   W96
@ 044   ----------------------------------------
 .byte   W96
@ 045   ----------------------------------------
 .byte   W96
@ 046   ----------------------------------------
 .byte   W12
@ 047   ----------------------------------------
 .byte   PATT
  .word Label_1_01779672
@ 048   ----------------------------------------
 .byte   PATT
  .word Label_1_0177968C
@ 049   ----------------------------------------
 .byte   PATT
  .word Label_1_0177969D
@ 050   ----------------------------------------
 .byte   PATT
  .word Label_1_01779672
@ 051   ----------------------------------------
 .byte   PATT
  .word Label_1_0177968C
@ 052   ----------------------------------------
 .byte   PATT
  .word Label_1_017796B0
@ 053   ----------------------------------------
 .byte   PATT
  .word Label_1_017796BB
@ 054   ----------------------------------------
 .byte   PATT
  .word Label_1_017796CB
@ 055   ----------------------------------------
 .byte   PATT
  .word Label_1_01779672
@ 056   ----------------------------------------
 .byte   PATT
  .word Label_1_0177968C
@ 057   ----------------------------------------
 .byte   PATT
  .word Label_1_0177969D
@ 058   ----------------------------------------
 .byte   PATT
  .word Label_1_01779672
@ 059   ----------------------------------------
 .byte   PATT
  .word Label_1_0177968C
@ 060   ----------------------------------------
 .byte   PATT
  .word Label_1_017796B0
@ 061   ----------------------------------------
 .byte   PATT
  .word Label_1_017796BB
@ 062   ----------------------------------------
 .byte   PATT
  .word Label_1_017796F8
@ 063   ----------------------------------------
 .byte   PATT
  .word Label_1_01779702
@ 064   ----------------------------------------
 .byte   PATT
  .word Label_1_01779715
@ 065   ----------------------------------------
 .byte   PATT
  .word Label_1_01779728
@ 066   ----------------------------------------
 .byte   PATT
  .word Label_1_0177973B
@ 067   ----------------------------------------
 .byte   PATT
  .word Label_1_01779702
@ 068   ----------------------------------------
 .byte   PATT
  .word Label_1_01779715
@ 069   ----------------------------------------
 .byte   PATT
  .word Label_1_01779728
@ 070   ----------------------------------------
 .byte   N18 ,Dn4 ,v120
 .byte   W18
 .byte   Bn3
 .byte   W18
 .byte   Gn3
 .byte   W18
 .byte   Dn3
 .byte   W18
 .byte   N24
 .byte   W96
@ 071   ----------------------------------------
 .byte   W96
@ 072   ----------------------------------------
 .byte   W96
@ 073   ----------------------------------------
 .byte   W96
@ 074   ----------------------------------------
 .byte   W24
 .byte   GOTO
  .word Label_1_01779658
 .byte   FINE

@**************** Track 3 (Midi-Chn.2) ****************@

song03A8_003:
@ 000   ----------------------------------------
Label_2_017797F8:
 .byte   TEMPO , 136*song03A8_tbs/2
 .byte   KEYSH , song03A8_key+0
 .byte   VOICE , 2
 .byte   VOL , 23*song03A8_mvl/mxv
 .byte   PAN , c_v-22
 .byte   BEND , c_v+0
 .byte   MOD 0
 .byte   CnM2
 .byte   W96
@ 001   ----------------------------------------
 .byte   W96
@ 002   ----------------------------------------
 .byte   W96
@ 003   ----------------------------------------
 .byte   W96
@ 004   ----------------------------------------
 .byte   W96
@ 005   ----------------------------------------
 .byte   W96
@ 006   ----------------------------------------
 .byte   W96
@ 007   ----------------------------------------
 .byte   W96
@ 008   ----------------------------------------
Label_2_0177980E:
 .byte   N12 ,En1 ,v127
 .byte   W12
 .byte   En3 ,v111
 .byte   N12 ,Gn3
 .byte   N12 ,Dn3
 .byte   N12 ,Bn2
 .byte   W12
 .byte   N06 ,En1 ,v127
 .byte   W06
 .byte   N12 ,En3 ,v111
 .byte   N12 ,Gn3
 .byte   N12 ,Bn2
 .byte   N12 ,Dn3
 .byte   W12
 .byte   N06 ,En1 ,v127
 .byte   W06
 .byte   N12 ,En3 ,v111
 .byte   N12 ,Gn3
 .byte   N12 ,Bn2
 .byte   N12 ,Dn3
 .byte   W12
 .byte   N06 ,En1 ,v127
 .byte   W06
 .byte   N12 ,En3 ,v111
 .byte   N12 ,Gn3
 .byte   N12 ,Bn2
 .byte   N12 ,Dn3
 .byte   W12
 .byte   N06 ,En1 ,v127
 .byte   W06
 .byte   N12 ,Bn2 ,v111
 .byte   N12 ,Gn3
 .byte   N12 ,Dn3
 .byte   N12 ,En3
 .byte   W12
 .byte   PEND 
@ 009   ----------------------------------------
Label_2_01779854:
 .byte   N12 ,En1 ,v127
 .byte   W12
 .byte   En3 ,v111
 .byte   N12 ,Gn3
 .byte   N12 ,Dn3
 .byte   N12 ,Bn2
 .byte   W12
 .byte   N06 ,En1 ,v127
 .byte   W06
 .byte   N12 ,En3 ,v111
 .byte   N12 ,Gn3
 .byte   N12 ,Bn2
 .byte   N12 ,Dn3
 .byte   W12
 .byte   N06 ,En1 ,v127
 .byte   W06
 .byte   N12 ,En3 ,v111
 .byte   N12 ,Gn3
 .byte   N12 ,Bn2
 .byte   N12 ,Dn3
 .byte   W12
 .byte   N06 ,En1 ,v127
 .byte   W06
 .byte   N12 ,En3 ,v111
 .byte   N12 ,Gn3
 .byte   N12 ,Bn2
 .byte   N12 ,Dn3
 .byte   W12
 .byte   N06 ,En1 ,v127
 .byte   W06
 .byte   N12 ,Gn3 ,v111
 .byte   N12 ,Bn3
 .byte   N12 ,Dn3
 .byte   N12 ,En3
 .byte   W12
 .byte   PEND 
@ 010   ----------------------------------------
 .byte   PATT
  .word Label_2_0177980E
@ 011   ----------------------------------------
 .byte   PATT
  .word Label_2_01779854
@ 012   ----------------------------------------
 .byte   PATT
  .word Label_2_0177980E
@ 013   ----------------------------------------
 .byte   PATT
  .word Label_2_01779854
@ 014   ----------------------------------------
Label_2_017798AE:
 .byte   N12 ,Cn1 ,v127
 .byte   W12
 .byte   Gn2 ,v111
 .byte   N12 ,Gn3
 .byte   N12 ,En3
 .byte   N12 ,Cn3
 .byte   W12
 .byte   N06 ,Cn1 ,v127
 .byte   W06
 .byte   N12 ,En3 ,v111
 .byte   N12 ,Gn3
 .byte   N12 ,Cn3
 .byte   N12 ,Gn2
 .byte   W12
 .byte   N06 ,Cn1 ,v127
 .byte   W06
 .byte   N12 ,En3 ,v111
 .byte   N12 ,Gn3
 .byte   N12 ,Cn3
 .byte   N12 ,Gn2
 .byte   W12
 .byte   N06 ,Cn1 ,v127
 .byte   W06
 .byte   N12 ,En3 ,v111
 .byte   N12 ,Gn3
 .byte   N12 ,Cn3
 .byte   N12 ,Gn2
 .byte   W12
 .byte   N06 ,Cn1 ,v127
 .byte   W06
 .byte   N12 ,En3 ,v111
 .byte   N12 ,Gn3
 .byte   N12 ,Cn3
 .byte   N12 ,Gn2
 .byte   W12
 .byte   PEND 
@ 015   ----------------------------------------
Label_2_017798F4:
 .byte   N12 ,Cn1 ,v127
 .byte   W12
 .byte   Gn2 ,v111
 .byte   N12 ,Gn3
 .byte   N12 ,En3
 .byte   N12 ,Cn3
 .byte   W12
 .byte   N06 ,Cn1 ,v127
 .byte   W06
 .byte   N12 ,En3 ,v111
 .byte   N12 ,Gn3
 .byte   N12 ,Cn3
 .byte   N12 ,Gn2
 .byte   W12
 .byte   N06 ,Cn1 ,v127
 .byte   W06
 .byte   En3 ,v111
 .byte   N06 ,Gn3
 .byte   N06 ,Gn2
 .byte   N06 ,Cn3
 .byte   W06
 .byte   Cn1 ,v127
 .byte   W06
 .byte   En3 ,v111
 .byte   N06 ,Gn3
 .byte   N06 ,Gn2
 .byte   N06 ,Cn3
 .byte   W06
 .byte   Cn1 ,v127
 .byte   W06
 .byte   En3 ,v111
 .byte   N06 ,Gn3
 .byte   N06 ,Cn3
 .byte   N06 ,Gn2
 .byte   W06
 .byte   En1 ,v127
 .byte   W06
 .byte   N12 ,Gn2 ,v111
 .byte   N12 ,Gn3
 .byte   N12 ,En3
 .byte   N12 ,Cn3
 .byte   W12
 .byte   PEND 
@ 016   ----------------------------------------
 .byte   PATT
  .word Label_2_0177980E
@ 017   ----------------------------------------
 .byte   PATT
  .word Label_2_01779854
@ 018   ----------------------------------------
 .byte   PATT
  .word Label_2_017798AE
@ 019   ----------------------------------------
 .byte   PATT
  .word Label_2_017798F4
@ 020   ----------------------------------------
 .byte   PATT
  .word Label_2_0177980E
@ 021   ----------------------------------------
 .byte   PATT
  .word Label_2_01779854
@ 022   ----------------------------------------
 .byte   PATT
  .word Label_2_0177980E
@ 023   ----------------------------------------
Label_2_01779965:
 .byte   N12 ,En1 ,v127
 .byte   W12
 .byte   En3 ,v111
 .byte   N12 ,Gn3
 .byte   N12 ,Dn3
 .byte   N12 ,Bn2
 .byte   W12
 .byte   N06 ,En1 ,v127
 .byte   W06
 .byte   N12 ,En3 ,v111
 .byte   N12 ,Gn3
 .byte   N12 ,Bn2
 .byte   N12 ,Dn3
 .byte   W12
 .byte   N06 ,En1 ,v127
 .byte   W06
 .byte   En3 ,v111
 .byte   N06 ,Gn3
 .byte   N06 ,Bn2
 .byte   N06 ,Dn3
 .byte   W06
 .byte   En1 ,v127
 .byte   W06
 .byte   En3 ,v111
 .byte   N06 ,Gn3
 .byte   N06 ,Bn2
 .byte   N06 ,Dn3
 .byte   W06
 .byte   En1 ,v127
 .byte   W06
 .byte   Dn3 ,v111
 .byte   N06 ,Bn3
 .byte   N06 ,Gn3
 .byte   N06 ,En3
 .byte   W06
 .byte   Gn1 ,v127
 .byte   W06
 .byte   N12 ,Dn3 ,v111
 .byte   N12 ,Bn3
 .byte   N12 ,Gn3
 .byte   N12 ,En3
 .byte   W12
 .byte   PEND 
@ 024   ----------------------------------------
 .byte   PATT
  .word Label_2_0177980E
@ 025   ----------------------------------------
 .byte   PATT
  .word Label_2_01779854
@ 026   ----------------------------------------
 .byte   PATT
  .word Label_2_017798AE
@ 027   ----------------------------------------
 .byte   PATT
  .word Label_2_017798F4
@ 028   ----------------------------------------
 .byte   PATT
  .word Label_2_0177980E
@ 029   ----------------------------------------
 .byte   PATT
  .word Label_2_01779854
@ 030   ----------------------------------------
 .byte   PATT
  .word Label_2_017798AE
@ 031   ----------------------------------------
 .byte   PATT
  .word Label_2_017798F4
@ 032   ----------------------------------------
 .byte   PATT
  .word Label_2_0177980E
@ 033   ----------------------------------------
 .byte   PATT
  .word Label_2_01779854
@ 034   ----------------------------------------
 .byte   N12 ,En1 ,v127
 .byte   W12
 .byte   En3 ,v111
 .byte   N12 ,Gn3
 .byte   N12 ,Dn3
 .byte   N12 ,Bn2
 .byte   W12
 .byte   N06 ,En1 ,v127
 .byte   W06
 .byte   N12 ,En3 ,v111
 .byte   N12 ,Gn3
 .byte   N12 ,Bn2
 .byte   N12 ,Dn3
 .byte   W12
 .byte   N06 ,En1 ,v127
 .byte   W06
 .byte   N12 ,En3 ,v111
 .byte   N12 ,Gn3
 .byte   N12 ,Bn2
 .byte   N12 ,Dn3
 .byte   W12
 .byte   N06 ,En1 ,v127
 .byte   W06
 .byte   N12 ,En3 ,v111
 .byte   N12 ,Gn3
 .byte   N12 ,Bn2
 .byte   N12 ,Dn3
 .byte   W12
 .byte   N06 ,En1 ,v127
 .byte   W06
 .byte   N12 ,Bn2 ,v111
 .byte   N12 ,Gn3
 .byte   N12 ,Dn3
 .byte   N12 ,En3
 .byte   W96
@ 035   ----------------------------------------
 .byte   W96
@ 036   ----------------------------------------
 .byte   W96
@ 037   ----------------------------------------
 .byte   W96
@ 038   ----------------------------------------
 .byte   W96
@ 039   ----------------------------------------
 .byte   W96
@ 040   ----------------------------------------
 .byte   W96
@ 041   ----------------------------------------
 .byte   W96
@ 042   ----------------------------------------
 .byte   W96
@ 043   ----------------------------------------
 .byte   W12
@ 044   ----------------------------------------
 .byte   PATT
  .word Label_2_0177980E
@ 045   ----------------------------------------
 .byte   PATT
  .word Label_2_01779854
@ 046   ----------------------------------------
 .byte   PATT
  .word Label_2_0177980E
@ 047   ----------------------------------------
 .byte   PATT
  .word Label_2_01779854
@ 048   ----------------------------------------
 .byte   PATT
  .word Label_2_0177980E
@ 049   ----------------------------------------
 .byte   PATT
  .word Label_2_01779854
@ 050   ----------------------------------------
 .byte   PATT
  .word Label_2_017798AE
@ 051   ----------------------------------------
 .byte   PATT
  .word Label_2_017798F4
@ 052   ----------------------------------------
 .byte   PATT
  .word Label_2_0177980E
@ 053   ----------------------------------------
 .byte   PATT
  .word Label_2_01779854
@ 054   ----------------------------------------
 .byte   PATT
  .word Label_2_017798AE
@ 055   ----------------------------------------
 .byte   PATT
  .word Label_2_017798F4
@ 056   ----------------------------------------
 .byte   PATT
  .word Label_2_0177980E
@ 057   ----------------------------------------
 .byte   PATT
  .word Label_2_01779854
@ 058   ----------------------------------------
 .byte   PATT
  .word Label_2_0177980E
@ 059   ----------------------------------------
 .byte   PATT
  .word Label_2_01779965
@ 060   ----------------------------------------
 .byte   PATT
  .word Label_2_0177980E
@ 061   ----------------------------------------
 .byte   PATT
  .word Label_2_01779854
@ 062   ----------------------------------------
 .byte   PATT
  .word Label_2_017798AE
@ 063   ----------------------------------------
 .byte   PATT
  .word Label_2_017798F4
@ 064   ----------------------------------------
 .byte   PATT
  .word Label_2_0177980E
@ 065   ----------------------------------------
 .byte   PATT
  .word Label_2_01779854
@ 066   ----------------------------------------
 .byte   PATT
  .word Label_2_017798AE
@ 067   ----------------------------------------
 .byte   PATT
  .word Label_2_017798F4
@ 068   ----------------------------------------
 .byte   PATT
  .word Label_2_0177980E
@ 069   ----------------------------------------
 .byte   PATT
  .word Label_2_01779854
@ 070   ----------------------------------------
 .byte   N12 ,En1 ,v127
 .byte   W12
 .byte   En3 ,v111
 .byte   N12 ,Gn3
 .byte   N12 ,Dn3
 .byte   N12 ,Bn2
 .byte   W12
 .byte   N06 ,En1 ,v127
 .byte   W06
 .byte   N12 ,En3 ,v111
 .byte   N12 ,Gn3
 .byte   N12 ,Bn2
 .byte   N12 ,Dn3
 .byte   W12
 .byte   N06 ,En1 ,v127
 .byte   W06
 .byte   N12 ,En3 ,v111
 .byte   N12 ,Gn3
 .byte   N12 ,Bn2
 .byte   N12 ,Dn3
 .byte   W12
 .byte   N06 ,En1 ,v127
 .byte   W06
 .byte   N12 ,En3 ,v111
 .byte   N12 ,Gn3
 .byte   N12 ,Bn2
 .byte   N12 ,Dn3
 .byte   W12
 .byte   N06 ,En1 ,v127
 .byte   W06
 .byte   N12 ,Bn2 ,v111
 .byte   N12 ,Gn3
 .byte   N12 ,Dn3
 .byte   N12 ,En3
 .byte   W96
@ 071   ----------------------------------------
 .byte   W96
@ 072   ----------------------------------------
 .byte   W96
@ 073   ----------------------------------------
 .byte   W96
@ 074   ----------------------------------------
 .byte   W96
@ 075   ----------------------------------------
 .byte   W96
@ 076   ----------------------------------------
 .byte   W96
@ 077   ----------------------------------------
 .byte   W96
@ 078   ----------------------------------------
 .byte   W96
@ 079   ----------------------------------------
 .byte   W96
@ 080   ----------------------------------------
 .byte   W96
@ 081   ----------------------------------------
 .byte   W96
@ 082   ----------------------------------------
 .byte   W96
@ 083   ----------------------------------------
 .byte   W12
 .byte   GOTO
  .word Label_2_017797F8
 .byte   FINE

@**************** Track 4 (Midi-Chn.3) ****************@

song03A8_004:
@ 000   ----------------------------------------
Label_3_01779B10:
 .byte   TEMPO , 136*song03A8_tbs/2
 .byte   KEYSH , song03A8_key+0
 .byte   VOICE , 63
 .byte   VOL , 17*song03A8_mvl/mxv
 .byte   PAN , c_v-20
 .byte   BEND , c_v+0
 .byte   MOD 0
 .byte   CnM2
 .byte   N96 ,En3 ,v111
 .byte   N96 ,Cs3
 .byte   W96
@ 001   ----------------------------------------
 .byte   En3
 .byte   N96 ,Cn3
 .byte   W96
@ 002   ----------------------------------------
 .byte   Cs4
 .byte   N96 ,En3
 .byte   N96 ,Cs3
 .byte   W96
@ 003   ----------------------------------------
 .byte   Cn4
 .byte   N96 ,En3
 .byte   N96 ,Cn3
 .byte   W96
@ 004   ----------------------------------------
Label_3_01779B34:
 .byte   N96 ,Fs3 ,v111
 .byte   N96 ,Bn2
 .byte   W96
 .byte   PEND 
@ 005   ----------------------------------------
 .byte   N96 ,Bn2 ,v111
 .byte   N96 ,Fs2
 .byte   W96
@ 006   ----------------------------------------
 .byte   PATT
  .word Label_3_01779B34
@ 007   ----------------------------------------
 .byte   N96 ,Bn3 ,v111
 .byte   N96 ,Ds3
 .byte   N96 ,Fs3
 .byte   W96
@ 008   ----------------------------------------
 .byte   W24
Label_3_01779B4F:
 .byte   N72 ,Gn3 ,v111
 .byte   N72 ,Dn3
 .byte   W96
 .byte   PEND 
@ 009   ----------------------------------------
 .byte   PATT
  .word Label_3_01779B4F
@ 010   ----------------------------------------
 .byte   PATT
  .word Label_3_01779B4F
@ 011   ----------------------------------------
 .byte   PATT
  .word Label_3_01779B4F
@ 012   ----------------------------------------
 .byte   PATT
  .word Label_3_01779B4F
@ 013   ----------------------------------------
 .byte   PATT
  .word Label_3_01779B4F
@ 014   ----------------------------------------
Label_3_01779B6F:
 .byte   N72 ,Gn3 ,v111
 .byte   N72 ,Cn3
 .byte   W96
 .byte   PEND 
@ 015   ----------------------------------------
 .byte   PATT
  .word Label_3_01779B6F
@ 016   ----------------------------------------
 .byte   PATT
  .word Label_3_01779B4F
@ 017   ----------------------------------------
 .byte   PATT
  .word Label_3_01779B4F
@ 018   ----------------------------------------
 .byte   PATT
  .word Label_3_01779B6F
@ 019   ----------------------------------------
 .byte   PATT
  .word Label_3_01779B6F
@ 020   ----------------------------------------
 .byte   PATT
  .word Label_3_01779B4F
@ 021   ----------------------------------------
 .byte   PATT
  .word Label_3_01779B4F
@ 022   ----------------------------------------
 .byte   PATT
  .word Label_3_01779B4F
@ 023   ----------------------------------------
 .byte   PATT
  .word Label_3_01779B4F
@ 024   ----------------------------------------
 .byte   PATT
  .word Label_3_01779B4F
@ 025   ----------------------------------------
 .byte   PATT
  .word Label_3_01779B4F
@ 026   ----------------------------------------
 .byte   PATT
  .word Label_3_01779B6F
@ 027   ----------------------------------------
 .byte   PATT
  .word Label_3_01779B6F
@ 028   ----------------------------------------
 .byte   PATT
  .word Label_3_01779B4F
@ 029   ----------------------------------------
 .byte   PATT
  .word Label_3_01779B4F
@ 030   ----------------------------------------
 .byte   PATT
  .word Label_3_01779B6F
@ 031   ----------------------------------------
 .byte   PATT
  .word Label_3_01779B6F
@ 032   ----------------------------------------
 .byte   PATT
  .word Label_3_01779B4F
@ 033   ----------------------------------------
 .byte   PATT
  .word Label_3_01779B4F
@ 034   ----------------------------------------
Label_3_01779BD5:
 .byte   N72 ,Gn3 ,v111
 .byte   N72 ,Dn3
 .byte   W96
@ 035   ----------------------------------------
 .byte   W72
 .byte   PEND 
Label_3_01779BDD:
 .byte   N96 ,An3 ,v111
 .byte   N96 ,En4
 .byte   N96 ,Cn4
 .byte   N96 ,Fn3
 .byte   W48
@ 036   ----------------------------------------
 .byte   En4
 .byte   N96 ,Fn3
 .byte   N96 ,Cn4
 .byte   N96 ,An3
 .byte   W96
@ 037   ----------------------------------------
 .byte   W48
 .byte   PEND 
Label_3_01779BF1:
 .byte   N96 ,Gn3 ,v111
 .byte   N96 ,Dn4
 .byte   N96 ,Bn3
 .byte   N96 ,En3
 .byte   W48
@ 038   ----------------------------------------
 .byte   Dn4
 .byte   N96 ,En3
 .byte   N96 ,Bn3
 .byte   N96 ,Gn3
 .byte   W96
@ 039   ----------------------------------------
 .byte   W48
 .byte   PEND 
@ 040   ----------------------------------------
 .byte   PATT
  .word Label_3_01779BDD
@ 041   ----------------------------------------
 .byte   N96 ,Gn3 ,v111
 .byte   N96 ,Dn4
 .byte   N96 ,Bn3
 .byte   N96 ,En3
 .byte   W48
 .byte   Dn4
 .byte   N96 ,En3
 .byte   N96 ,Bn3
 .byte   N96 ,Gn3
 .byte   W96
@ 042   ----------------------------------------
 .byte   W72
@ 043   ----------------------------------------
 .byte   PATT
  .word Label_3_01779B4F
@ 044   ----------------------------------------
 .byte   PATT
  .word Label_3_01779B4F
@ 045   ----------------------------------------
 .byte   PATT
  .word Label_3_01779B4F
@ 046   ----------------------------------------
 .byte   PATT
  .word Label_3_01779B4F
@ 047   ----------------------------------------
 .byte   PATT
  .word Label_3_01779B4F
@ 048   ----------------------------------------
 .byte   PATT
  .word Label_3_01779B4F
@ 049   ----------------------------------------
 .byte   PATT
  .word Label_3_01779B6F
@ 050   ----------------------------------------
 .byte   PATT
  .word Label_3_01779B6F
@ 051   ----------------------------------------
 .byte   PATT
  .word Label_3_01779B4F
@ 052   ----------------------------------------
 .byte   PATT
  .word Label_3_01779B4F
@ 053   ----------------------------------------
 .byte   PATT
  .word Label_3_01779B6F
@ 054   ----------------------------------------
 .byte   PATT
  .word Label_3_01779B6F
@ 055   ----------------------------------------
 .byte   PATT
  .word Label_3_01779B4F
@ 056   ----------------------------------------
 .byte   PATT
  .word Label_3_01779B4F
@ 057   ----------------------------------------
 .byte   PATT
  .word Label_3_01779B4F
@ 058   ----------------------------------------
 .byte   PATT
  .word Label_3_01779B4F
@ 059   ----------------------------------------
 .byte   PATT
  .word Label_3_01779B4F
@ 060   ----------------------------------------
 .byte   PATT
  .word Label_3_01779B4F
@ 061   ----------------------------------------
 .byte   PATT
  .word Label_3_01779B6F
@ 062   ----------------------------------------
 .byte   PATT
  .word Label_3_01779B6F
@ 063   ----------------------------------------
 .byte   PATT
  .word Label_3_01779B4F
@ 064   ----------------------------------------
 .byte   PATT
  .word Label_3_01779B4F
@ 065   ----------------------------------------
 .byte   PATT
  .word Label_3_01779B6F
@ 066   ----------------------------------------
 .byte   PATT
  .word Label_3_01779B6F
@ 067   ----------------------------------------
 .byte   PATT
  .word Label_3_01779B4F
@ 068   ----------------------------------------
 .byte   PATT
  .word Label_3_01779B4F
@ 069   ----------------------------------------
 .byte   PATT
  .word Label_3_01779BD5
@ 070   ----------------------------------------
 .byte   PATT
  .word Label_3_01779BDD
@ 071   ----------------------------------------
 .byte   PATT
  .word Label_3_01779BF1
@ 072   ----------------------------------------
 .byte   N96 ,Fn3 ,v111
 .byte   N96 ,En4
 .byte   N96 ,An3
 .byte   N96 ,Cn4
 .byte   W48
 .byte   En4
 .byte   N96 ,Fn3
 .byte   N96 ,An3
 .byte   N96 ,Cn4
 .byte   W96
@ 073   ----------------------------------------
 .byte   W48
 .byte   Gn3
 .byte   N96 ,Dn4
 .byte   N96 ,Bn3
 .byte   N96 ,En3
 .byte   W48
@ 074   ----------------------------------------
 .byte   Dn4
 .byte   N96 ,En3
 .byte   N96 ,Bn3
 .byte   N96 ,Gn3
 .byte   W96
@ 075   ----------------------------------------
 .byte   W96
@ 076   ----------------------------------------
 .byte   W96
@ 077   ----------------------------------------
 .byte   W96
@ 078   ----------------------------------------
 .byte   W96
@ 079   ----------------------------------------
 .byte   W48
 .byte   GOTO
  .word Label_3_01779B10
 .byte   FINE

@**************** Track 5 (Midi-Chn.4) ****************@

song03A8_005:
@ 000   ----------------------------------------
Label_4_01779CDC:
 .byte   TEMPO , 136*song03A8_tbs/2
 .byte   KEYSH , song03A8_key+0
 .byte   VOICE , 36
 .byte   VOL , 31*song03A8_mvl/mxv
 .byte   PAN , c_v+0
 .byte   BEND , c_v+0
 .byte   MOD 0
 .byte   CnM2
 .byte   W96
@ 001   ----------------------------------------
 .byte   W96
@ 002   ----------------------------------------
 .byte   W96
@ 003   ----------------------------------------
 .byte   W96
@ 004   ----------------------------------------
Label_4_01779CEE:
 .byte   N06 ,Bn0 ,v127
 .byte   W18
 .byte   Bn0
 .byte   W18
 .byte   Bn0
 .byte   W18
 .byte   Bn0
 .byte   W18
 .byte   Bn0
 .byte   W12
 .byte   Bn0
 .byte   W12
 .byte   PEND 
@ 005   ----------------------------------------
 .byte   PATT
  .word Label_4_01779CEE
@ 006   ----------------------------------------
 .byte   PATT
  .word Label_4_01779CEE
@ 007   ----------------------------------------
 .byte   PATT
  .word Label_4_01779CEE
@ 008   ----------------------------------------
Label_4_01779D0C:
 .byte   N12 ,En0 ,v127
 .byte   W12
 .byte   N06 ,En1
 .byte   W06
 .byte   En0
 .byte   W06
 .byte   En0
 .byte   W06
 .byte   N12
 .byte   W12
 .byte   Gn0
 .byte   W12
 .byte   Gn0
 .byte   W12
 .byte   N06
 .byte   W06
 .byte   N12 ,An0
 .byte   W12
 .byte   N06 ,Gn0
 .byte   W06
 .byte   An0
 .byte   W06
 .byte   PEND 
@ 009   ----------------------------------------
Label_4_01779D28:
 .byte   N12 ,En0 ,v127
 .byte   W12
 .byte   N06 ,En1
 .byte   W06
 .byte   En0
 .byte   W06
 .byte   En0
 .byte   W06
 .byte   N12
 .byte   W12
 .byte   Gn0
 .byte   W12
 .byte   Gn0
 .byte   W12
 .byte   N06
 .byte   W06
 .byte   N12 ,An0
 .byte   W12
 .byte   N06 ,Bn0
 .byte   W06
 .byte   An0
 .byte   W06
 .byte   PEND 
@ 010   ----------------------------------------
 .byte   PATT
  .word Label_4_01779D0C
@ 011   ----------------------------------------
 .byte   PATT
  .word Label_4_01779D28
@ 012   ----------------------------------------
 .byte   PATT
  .word Label_4_01779D0C
@ 013   ----------------------------------------
 .byte   PATT
  .word Label_4_01779D28
@ 014   ----------------------------------------
Label_4_01779D58:
 .byte   N12 ,Cn0 ,v127
 .byte   W12
 .byte   N06 ,Cn1
 .byte   W06
 .byte   Cn0
 .byte   W06
 .byte   Cn0
 .byte   W06
 .byte   N12
 .byte   W12
 .byte   En0
 .byte   W12
 .byte   En0
 .byte   W12
 .byte   N06
 .byte   W06
 .byte   N12 ,Gn0
 .byte   W12
 .byte   N06 ,An0
 .byte   W06
 .byte   Gn0
 .byte   W06
 .byte   PEND 
@ 015   ----------------------------------------
 .byte   PATT
  .word Label_4_01779D58
@ 016   ----------------------------------------
 .byte   PATT
  .word Label_4_01779D0C
@ 017   ----------------------------------------
 .byte   PATT
  .word Label_4_01779D28
@ 018   ----------------------------------------
 .byte   PATT
  .word Label_4_01779D58
@ 019   ----------------------------------------
 .byte   PATT
  .word Label_4_01779D58
@ 020   ----------------------------------------
 .byte   PATT
  .word Label_4_01779D0C
@ 021   ----------------------------------------
 .byte   PATT
  .word Label_4_01779D28
@ 022   ----------------------------------------
 .byte   PATT
  .word Label_4_01779D0C
@ 023   ----------------------------------------
 .byte   PATT
  .word Label_4_01779D28
@ 024   ----------------------------------------
 .byte   PATT
  .word Label_4_01779D0C
@ 025   ----------------------------------------
 .byte   PATT
  .word Label_4_01779D28
@ 026   ----------------------------------------
 .byte   PATT
  .word Label_4_01779D58
@ 027   ----------------------------------------
 .byte   PATT
  .word Label_4_01779D58
@ 028   ----------------------------------------
 .byte   PATT
  .word Label_4_01779D0C
@ 029   ----------------------------------------
 .byte   PATT
  .word Label_4_01779D28
@ 030   ----------------------------------------
 .byte   PATT
  .word Label_4_01779D58
@ 031   ----------------------------------------
 .byte   PATT
  .word Label_4_01779D58
@ 032   ----------------------------------------
 .byte   PATT
  .word Label_4_01779D0C
@ 033   ----------------------------------------
 .byte   PATT
  .word Label_4_01779D28
@ 034   ----------------------------------------
Label_4_01779DD3:
 .byte   N12 ,En0 ,v127
 .byte   W12
 .byte   N06 ,En1
 .byte   W06
 .byte   En0
 .byte   W06
 .byte   En0
 .byte   W06
 .byte   N12
 .byte   W12
 .byte   Gn0
 .byte   W12
 .byte   Gn0
 .byte   W12
 .byte   N06
 .byte   W06
 .byte   N12 ,An0
 .byte   W12
 .byte   N06 ,Gn0
 .byte   W06
 .byte   An0
 .byte   W96
@ 035   ----------------------------------------
 .byte   W06
 .byte   PEND 
Label_4_01779DF0:
 .byte   N12 ,Fn1 ,v127
 .byte   W12
 .byte   N06 ,En1
 .byte   W06
 .byte   N12 ,Fn1
 .byte   W12
 .byte   N06 ,En1
 .byte   W06
 .byte   N12 ,Fn1
 .byte   W12
 .byte   N06 ,En1
 .byte   W06
 .byte   N12 ,Fn1
 .byte   W12
 .byte   N06 ,En1
 .byte   W06
 .byte   N12 ,Fn1
 .byte   W12
 .byte   An1
 .byte   W12
 .byte   PEND 
@ 036   ----------------------------------------
 .byte   PATT
  .word Label_4_01779DF0
@ 037   ----------------------------------------
Label_4_01779E14:
 .byte   N12 ,En1 ,v127
 .byte   W12
 .byte   N06 ,Dn1
 .byte   W06
 .byte   N12 ,En1
 .byte   W12
 .byte   N06 ,Dn1
 .byte   W06
 .byte   N12 ,En1
 .byte   W12
 .byte   N06 ,Dn1
 .byte   W06
 .byte   N12 ,En1
 .byte   W12
 .byte   N06 ,Dn1
 .byte   W06
 .byte   N12 ,En1
 .byte   W12
 .byte   Gn1
 .byte   W12
 .byte   PEND 
@ 038   ----------------------------------------
 .byte   PATT
  .word Label_4_01779E14
@ 039   ----------------------------------------
 .byte   PATT
  .word Label_4_01779DF0
@ 040   ----------------------------------------
 .byte   PATT
  .word Label_4_01779DF0
@ 041   ----------------------------------------
 .byte   PATT
  .word Label_4_01779E14
@ 042   ----------------------------------------
 .byte   PATT
  .word Label_4_01779E14
@ 043   ----------------------------------------
 .byte   PATT
  .word Label_4_01779D0C
@ 044   ----------------------------------------
 .byte   PATT
  .word Label_4_01779D28
@ 045   ----------------------------------------
 .byte   PATT
  .word Label_4_01779D0C
@ 046   ----------------------------------------
 .byte   PATT
  .word Label_4_01779D28
@ 047   ----------------------------------------
 .byte   PATT
  .word Label_4_01779D0C
@ 048   ----------------------------------------
 .byte   PATT
  .word Label_4_01779D28
@ 049   ----------------------------------------
 .byte   PATT
  .word Label_4_01779D58
@ 050   ----------------------------------------
 .byte   PATT
  .word Label_4_01779D58
@ 051   ----------------------------------------
 .byte   PATT
  .word Label_4_01779D0C
@ 052   ----------------------------------------
 .byte   PATT
  .word Label_4_01779D28
@ 053   ----------------------------------------
 .byte   PATT
  .word Label_4_01779D58
@ 054   ----------------------------------------
 .byte   PATT
  .word Label_4_01779D58
@ 055   ----------------------------------------
 .byte   PATT
  .word Label_4_01779D0C
@ 056   ----------------------------------------
 .byte   PATT
  .word Label_4_01779D28
@ 057   ----------------------------------------
 .byte   PATT
  .word Label_4_01779D0C
@ 058   ----------------------------------------
 .byte   PATT
  .word Label_4_01779D28
@ 059   ----------------------------------------
 .byte   PATT
  .word Label_4_01779D0C
@ 060   ----------------------------------------
 .byte   PATT
  .word Label_4_01779D28
@ 061   ----------------------------------------
 .byte   PATT
  .word Label_4_01779D58
@ 062   ----------------------------------------
 .byte   PATT
  .word Label_4_01779D58
@ 063   ----------------------------------------
 .byte   PATT
  .word Label_4_01779D0C
@ 064   ----------------------------------------
 .byte   PATT
  .word Label_4_01779D28
@ 065   ----------------------------------------
 .byte   PATT
  .word Label_4_01779D58
@ 066   ----------------------------------------
 .byte   PATT
  .word Label_4_01779D58
@ 067   ----------------------------------------
 .byte   PATT
  .word Label_4_01779D0C
@ 068   ----------------------------------------
 .byte   PATT
  .word Label_4_01779D28
@ 069   ----------------------------------------
 .byte   PATT
  .word Label_4_01779DD3
@ 070   ----------------------------------------
 .byte   PATT
  .word Label_4_01779DF0
@ 071   ----------------------------------------
 .byte   PATT
  .word Label_4_01779DF0
@ 072   ----------------------------------------
 .byte   PATT
  .word Label_4_01779E14
@ 073   ----------------------------------------
 .byte   PATT
  .word Label_4_01779E14
@ 074   ----------------------------------------
 .byte   PATT
  .word Label_4_01779DF0
@ 075   ----------------------------------------
 .byte   PATT
  .word Label_4_01779DF0
@ 076   ----------------------------------------
 .byte   PATT
  .word Label_4_01779E14
@ 077   ----------------------------------------
 .byte   N12 ,En1 ,v127
 .byte   W12
 .byte   N06 ,Dn1
 .byte   W06
 .byte   N12 ,En1
 .byte   W12
 .byte   N06 ,Dn1
 .byte   W06
 .byte   N12 ,En1
 .byte   W12
 .byte   N06 ,Dn1
 .byte   W06
 .byte   N12 ,En1
 .byte   W12
 .byte   N06 ,Dn1
 .byte   W06
 .byte   N12 ,En1
 .byte   W12
 .byte   Gn1
 .byte   W96
@ 078   ----------------------------------------
 .byte   W96
@ 079   ----------------------------------------
 .byte   W96
@ 080   ----------------------------------------
 .byte   W96
@ 081   ----------------------------------------
 .byte   W12
 .byte   GOTO
  .word Label_4_01779CDC
 .byte   FINE

@**************** Track 6 (Midi-Chn.5) ****************@

song03A8_006:
@ 000   ----------------------------------------
Label_5_01779F20:
 .byte   TEMPO , 136*song03A8_tbs/2
 .byte   KEYSH , song03A8_key+0
 .byte   VOICE , 48
 .byte   VOL , 36*song03A8_mvl/mxv
 .byte   PAN , c_v+15
 .byte   BEND , c_v+0
 .byte   MOD 0
 .byte   CnM2
 .byte   N24 ,Bn4 ,v100
 .byte   N24 ,Bn3
 .byte   W24
 .byte   An4
 .byte   N24 ,An3
 .byte   W24
 .byte   Gs4
 .byte   N24 ,Gs3
 .byte   W24
 .byte   Fs4
 .byte   N24 ,Fs3
 .byte   W24
@ 001   ----------------------------------------
Label_5_01779F40:
 .byte   N24 ,An4 ,v100
 .byte   N24 ,An3
 .byte   W24
 .byte   Gs4
 .byte   N24 ,Gs3
 .byte   W24
 .byte   Fs4
 .byte   N24 ,Fs3
 .byte   W24
 .byte   En4
 .byte   N24 ,En3
 .byte   W24
 .byte   PEND 
@ 002   ----------------------------------------
 .byte   N24 ,Bn4 ,v100
 .byte   N24 ,Bn3
 .byte   W24
 .byte   An4
 .byte   N24 ,An3
 .byte   W24
 .byte   Gs4
 .byte   N24 ,Gs3
 .byte   W24
 .byte   Fs4
 .byte   N24 ,Fs3
 .byte   W24
@ 003   ----------------------------------------
 .byte   PATT
  .word Label_5_01779F40
@ 004   ----------------------------------------
 .byte   N48 ,En4 ,v100
 .byte   N48 ,En3
 .byte   W48
 .byte   Ds4
 .byte   N48 ,Ds3
 .byte   W48
@ 005   ----------------------------------------
 .byte   Cs4
 .byte   N48 ,Cs3
 .byte   W48
 .byte   Ds4
 .byte   N48 ,Ds3
 .byte   W48
@ 006   ----------------------------------------
 .byte   En5
 .byte   N48 ,En4
 .byte   N48 ,En3
 .byte   W48
 .byte   Ds5
 .byte   N48 ,Ds4
 .byte   N48 ,Ds3
 .byte   W48
@ 007   ----------------------------------------
 .byte   Cs5
 .byte   N48 ,Cs4
 .byte   N48 ,Cs3
 .byte   W48
 .byte   Ds5
 .byte   N48 ,Ds4
 .byte   N48 ,Ds3
 .byte   W96
@ 008   ----------------------------------------
 .byte   W96
@ 009   ----------------------------------------
 .byte   W96
@ 010   ----------------------------------------
 .byte   W96
@ 011   ----------------------------------------
 .byte   W96
@ 012   ----------------------------------------
 .byte   W96
@ 013   ----------------------------------------
 .byte   W96
@ 014   ----------------------------------------
 .byte   W96
@ 015   ----------------------------------------
 .byte   W96
@ 016   ----------------------------------------
 .byte   W96
@ 017   ----------------------------------------
 .byte   W96
@ 018   ----------------------------------------
 .byte   W96
@ 019   ----------------------------------------
 .byte   W96
@ 020   ----------------------------------------
 .byte   W96
@ 021   ----------------------------------------
 .byte   W96
@ 022   ----------------------------------------
 .byte   W96
@ 023   ----------------------------------------
 .byte   W96
@ 024   ----------------------------------------
 .byte   W96
@ 025   ----------------------------------------
 .byte   W96
@ 026   ----------------------------------------
 .byte   W96
@ 027   ----------------------------------------
 .byte   W96
@ 028   ----------------------------------------
 .byte   W96
@ 029   ----------------------------------------
 .byte   W96
@ 030   ----------------------------------------
 .byte   W96
@ 031   ----------------------------------------
 .byte   W96
@ 032   ----------------------------------------
 .byte   W96
@ 033   ----------------------------------------
 .byte   W96
@ 034   ----------------------------------------
 .byte   W96
@ 035   ----------------------------------------
 .byte   W48
Label_5_01779FB0:
 .byte   N06 ,Fn5 ,v100
 .byte   N06 ,Fn4
 .byte   W24
 .byte   Fn5
 .byte   N06 ,Fn4
 .byte   W24
@ 036   ----------------------------------------
 .byte   Fn5
 .byte   N06 ,Fn4
 .byte   W24
 .byte   Fn5
 .byte   N06 ,Fn4
 .byte   W24
 .byte   PEND 
@ 037   ----------------------------------------
 .byte   PATT
  .word Label_5_01779FB0
@ 038   ----------------------------------------
Label_5_01779FC8:
 .byte   N06 ,En5 ,v100
 .byte   N06 ,En4
 .byte   W24
 .byte   En5
 .byte   N06 ,En4
 .byte   W24
 .byte   En5
 .byte   N06 ,En4
 .byte   W24
 .byte   En5
 .byte   N06 ,En4
 .byte   W24
 .byte   PEND 
@ 039   ----------------------------------------
 .byte   PATT
  .word Label_5_01779FC8
@ 040   ----------------------------------------
 .byte   PATT
  .word Label_5_01779FB0
@ 041   ----------------------------------------
 .byte   PATT
  .word Label_5_01779FB0
@ 042   ----------------------------------------
 .byte   PATT
  .word Label_5_01779FC8
@ 043   ----------------------------------------
 .byte   N06 ,En5 ,v100
 .byte   N06 ,En4
 .byte   W24
 .byte   En5
 .byte   N06 ,En4
 .byte   W24
 .byte   En5
 .byte   N06 ,En4
 .byte   W24
 .byte   En5
 .byte   N06 ,En4
 .byte   W96
@ 044   ----------------------------------------
 .byte   W96
@ 045   ----------------------------------------
 .byte   W96
@ 046   ----------------------------------------
 .byte   W96
@ 047   ----------------------------------------
 .byte   W96
@ 048   ----------------------------------------
 .byte   W96
@ 049   ----------------------------------------
 .byte   W96
@ 050   ----------------------------------------
 .byte   W96
@ 051   ----------------------------------------
 .byte   W96
@ 052   ----------------------------------------
 .byte   W96
@ 053   ----------------------------------------
 .byte   W96
@ 054   ----------------------------------------
 .byte   W96
@ 055   ----------------------------------------
 .byte   W96
@ 056   ----------------------------------------
 .byte   W96
@ 057   ----------------------------------------
 .byte   W96
@ 058   ----------------------------------------
 .byte   W96
@ 059   ----------------------------------------
 .byte   W96
@ 060   ----------------------------------------
 .byte   W96
@ 061   ----------------------------------------
 .byte   W96
@ 062   ----------------------------------------
 .byte   W96
@ 063   ----------------------------------------
 .byte   W96
@ 064   ----------------------------------------
 .byte   W96
@ 065   ----------------------------------------
 .byte   W96
@ 066   ----------------------------------------
 .byte   W96
@ 067   ----------------------------------------
 .byte   W96
@ 068   ----------------------------------------
 .byte   W96
@ 069   ----------------------------------------
 .byte   W96
@ 070   ----------------------------------------
 .byte   W96
@ 071   ----------------------------------------
 .byte   W24
@ 072   ----------------------------------------
 .byte   PATT
  .word Label_5_01779FB0
@ 073   ----------------------------------------
 .byte   PATT
  .word Label_5_01779FB0
@ 074   ----------------------------------------
 .byte   PATT
  .word Label_5_01779FC8
@ 075   ----------------------------------------
 .byte   PATT
  .word Label_5_01779FC8
@ 076   ----------------------------------------
 .byte   PATT
  .word Label_5_01779FB0
@ 077   ----------------------------------------
 .byte   PATT
  .word Label_5_01779FB0
@ 078   ----------------------------------------
 .byte   PATT
  .word Label_5_01779FC8
@ 079   ----------------------------------------
 .byte   N06 ,En5 ,v100
 .byte   N06 ,En4
 .byte   W24
 .byte   En5
 .byte   N06 ,En4
 .byte   W24
 .byte   En5
 .byte   N06 ,En4
 .byte   W24
 .byte   En5
 .byte   N06 ,En4
 .byte   W96
@ 080   ----------------------------------------
 .byte   W96
@ 081   ----------------------------------------
 .byte   W96
@ 082   ----------------------------------------
 .byte   W96
@ 083   ----------------------------------------
 .byte   W24
 .byte   GOTO
  .word Label_5_01779F20
 .byte   FINE

@**************** Track 7 (Midi-Chn.6) ****************@

song03A8_007:
@ 000   ----------------------------------------
Label_6_0177A05C:
 .byte   TEMPO , 136*song03A8_tbs/2
 .byte   KEYSH , song03A8_key+0
 .byte   VOICE , 46
 .byte   VOL , 36*song03A8_mvl/mxv
 .byte   PAN , c_v+63
 .byte   BEND , c_v+0
 .byte   MOD 0
 .byte   CnM2
 .byte   W96
@ 001   ----------------------------------------
 .byte   W96
@ 002   ----------------------------------------
 .byte   W96
@ 003   ----------------------------------------
 .byte   W96
@ 004   ----------------------------------------
 .byte   W96
@ 005   ----------------------------------------
 .byte   W96
@ 006   ----------------------------------------
 .byte   W96
@ 007   ----------------------------------------
 .byte   W96
@ 008   ----------------------------------------
 .byte   W96
@ 009   ----------------------------------------
 .byte   W96
@ 010   ----------------------------------------
 .byte   W96
@ 011   ----------------------------------------
 .byte   W96
@ 012   ----------------------------------------
 .byte   W96
@ 013   ----------------------------------------
 .byte   W96
@ 014   ----------------------------------------
 .byte   W96
@ 015   ----------------------------------------
 .byte   W96
@ 016   ----------------------------------------
 .byte   W96
@ 017   ----------------------------------------
 .byte   W96
@ 018   ----------------------------------------
 .byte   W96
@ 019   ----------------------------------------
 .byte   W96
@ 020   ----------------------------------------
 .byte   W96
@ 021   ----------------------------------------
 .byte   W96
@ 022   ----------------------------------------
 .byte   W96
@ 023   ----------------------------------------
 .byte   W96
@ 024   ----------------------------------------
 .byte   W96
@ 025   ----------------------------------------
 .byte   W96
@ 026   ----------------------------------------
 .byte   W96
@ 027   ----------------------------------------
 .byte   W96
@ 028   ----------------------------------------
 .byte   W96
@ 029   ----------------------------------------
 .byte   W96
@ 030   ----------------------------------------
 .byte   W96
@ 031   ----------------------------------------
 .byte   W96
@ 032   ----------------------------------------
 .byte   W96
@ 033   ----------------------------------------
 .byte   W96
@ 034   ----------------------------------------
 .byte   W96
@ 035   ----------------------------------------
 .byte   W96
@ 036   ----------------------------------------
Label_6_0177A08E:
 .byte   N02 ,En5 ,v095
 .byte   W06
 .byte   Cn5
 .byte   W06
 .byte   An4
 .byte   W06
 .byte   Fn4
 .byte   W06
 .byte   En5
 .byte   W06
 .byte   Cn5
 .byte   W06
 .byte   An4
 .byte   W06
 .byte   Fn4
 .byte   W06
 .byte   En5
 .byte   W06
 .byte   Cn5
 .byte   W06
 .byte   An4
 .byte   W06
 .byte   Fn4
 .byte   W06
 .byte   En5
 .byte   W06
 .byte   Cn5
 .byte   W06
 .byte   An4
 .byte   W06
 .byte   Fn4
 .byte   W06
 .byte   PEND 
@ 037   ----------------------------------------
 .byte   PATT
  .word Label_6_0177A08E
@ 038   ----------------------------------------
Label_6_0177A0B6:
 .byte   N02 ,Dn5 ,v095
 .byte   W06
 .byte   Bn4
 .byte   W06
 .byte   Gn4
 .byte   W06
 .byte   En4
 .byte   W06
 .byte   Dn5
 .byte   W06
 .byte   Bn4
 .byte   W06
 .byte   Gn4
 .byte   W06
 .byte   En4
 .byte   W06
 .byte   Dn5
 .byte   W06
 .byte   Bn4
 .byte   W06
 .byte   Gn4
 .byte   W06
 .byte   En4
 .byte   W06
 .byte   Dn5
 .byte   W06
 .byte   Bn4
 .byte   W06
 .byte   Gn4
 .byte   W06
 .byte   En4
 .byte   W06
 .byte   PEND 
@ 039   ----------------------------------------
 .byte   PATT
  .word Label_6_0177A0B6
@ 040   ----------------------------------------
 .byte   PATT
  .word Label_6_0177A08E
@ 041   ----------------------------------------
 .byte   PATT
  .word Label_6_0177A08E
@ 042   ----------------------------------------
 .byte   PATT
  .word Label_6_0177A0B6
@ 043   ----------------------------------------
 .byte   N02 ,Dn5 ,v095
 .byte   W06
 .byte   Bn4
 .byte   W06
 .byte   Gn4
 .byte   W06
 .byte   En4
 .byte   W06
 .byte   Dn5
 .byte   W06
 .byte   Bn4
 .byte   W06
 .byte   Gn4
 .byte   W06
 .byte   En4
 .byte   W06
 .byte   Dn5
 .byte   W06
 .byte   Bn4
 .byte   W06
 .byte   Gn4
 .byte   W06
 .byte   En4
 .byte   W06
 .byte   Dn5
 .byte   W06
 .byte   Bn4
 .byte   W06
 .byte   Gn4
 .byte   W06
 .byte   En4
 .byte   W96
@ 044   ----------------------------------------
 .byte   W96
@ 045   ----------------------------------------
 .byte   W96
@ 046   ----------------------------------------
 .byte   W96
@ 047   ----------------------------------------
 .byte   W96
@ 048   ----------------------------------------
 .byte   W96
@ 049   ----------------------------------------
 .byte   W96
@ 050   ----------------------------------------
 .byte   W96
@ 051   ----------------------------------------
 .byte   W96
@ 052   ----------------------------------------
 .byte   W96
@ 053   ----------------------------------------
 .byte   W96
@ 054   ----------------------------------------
 .byte   W96
@ 055   ----------------------------------------
 .byte   W96
@ 056   ----------------------------------------
 .byte   W96
@ 057   ----------------------------------------
 .byte   W96
@ 058   ----------------------------------------
 .byte   W96
@ 059   ----------------------------------------
 .byte   W96
@ 060   ----------------------------------------
 .byte   W96
@ 061   ----------------------------------------
 .byte   W96
@ 062   ----------------------------------------
 .byte   W96
@ 063   ----------------------------------------
 .byte   W96
@ 064   ----------------------------------------
 .byte   W96
@ 065   ----------------------------------------
 .byte   W96
@ 066   ----------------------------------------
 .byte   W96
@ 067   ----------------------------------------
 .byte   W96
@ 068   ----------------------------------------
 .byte   W96
@ 069   ----------------------------------------
 .byte   W96
@ 070   ----------------------------------------
 .byte   W96
@ 071   ----------------------------------------
 .byte   W06
@ 072   ----------------------------------------
 .byte   PATT
  .word Label_6_0177A08E
@ 073   ----------------------------------------
 .byte   PATT
  .word Label_6_0177A08E
@ 074   ----------------------------------------
 .byte   PATT
  .word Label_6_0177A0B6
@ 075   ----------------------------------------
 .byte   PATT
  .word Label_6_0177A0B6
@ 076   ----------------------------------------
 .byte   PATT
  .word Label_6_0177A08E
@ 077   ----------------------------------------
 .byte   PATT
  .word Label_6_0177A08E
@ 078   ----------------------------------------
 .byte   PATT
  .word Label_6_0177A0B6
@ 079   ----------------------------------------
 .byte   N02 ,Dn5 ,v095
 .byte   W06
 .byte   Bn4
 .byte   W06
 .byte   Gn4
 .byte   W06
 .byte   En4
 .byte   W06
 .byte   Dn5
 .byte   W06
 .byte   Bn4
 .byte   W06
 .byte   Gn4
 .byte   W06
 .byte   En4
 .byte   W06
 .byte   Dn5
 .byte   W06
 .byte   Bn4
 .byte   W06
 .byte   Gn4
 .byte   W06
 .byte   En4
 .byte   W06
 .byte   Dn5
 .byte   W06
 .byte   Bn4
 .byte   W06
 .byte   Gn4
 .byte   W06
 .byte   En4
 .byte   W96
@ 080   ----------------------------------------
 .byte   W96
@ 081   ----------------------------------------
 .byte   W96
@ 082   ----------------------------------------
 .byte   W96
@ 083   ----------------------------------------
 .byte   W06
 .byte   GOTO
  .word Label_6_0177A05C
 .byte   FINE

@**************** Track 8 (Midi-Chn.7) ****************@

song03A8_008:
@ 000   ----------------------------------------
Label_7_0177A17C:
 .byte   TEMPO , 136*song03A8_tbs/2
 .byte   KEYSH , song03A8_key+0
 .byte   VOICE , 80
 .byte   VOL , 21*song03A8_mvl/mxv
 .byte   PAN , c_v+0
 .byte   BEND , c_v+0
 .byte   MOD 0
 .byte   CnM2
 .byte   W96
@ 001   ----------------------------------------
 .byte   W96
@ 002   ----------------------------------------
 .byte   W96
@ 003   ----------------------------------------
 .byte   W96
@ 004   ----------------------------------------
 .byte   W96
@ 005   ----------------------------------------
 .byte   W96
@ 006   ----------------------------------------
 .byte   W96
@ 007   ----------------------------------------
 .byte   W96
@ 008   ----------------------------------------
 .byte   W96
@ 009   ----------------------------------------
 .byte   W96
@ 010   ----------------------------------------
 .byte   W96
@ 011   ----------------------------------------
 .byte   W96
@ 012   ----------------------------------------
 .byte   W96
@ 013   ----------------------------------------
 .byte   W96
@ 014   ----------------------------------------
 .byte   W96
@ 015   ----------------------------------------
 .byte   W96
@ 016   ----------------------------------------
 .byte   W96
@ 017   ----------------------------------------
 .byte   W96
@ 018   ----------------------------------------
 .byte   W96
@ 019   ----------------------------------------
 .byte   W96
@ 020   ----------------------------------------
 .byte   W96
@ 021   ----------------------------------------
 .byte   W96
@ 022   ----------------------------------------
 .byte   W96
@ 023   ----------------------------------------
 .byte   W96
@ 024   ----------------------------------------
 .byte   W96
@ 025   ----------------------------------------
 .byte   W96
@ 026   ----------------------------------------
 .byte   W96
@ 027   ----------------------------------------
 .byte   W96
@ 028   ----------------------------------------
 .byte   W96
@ 029   ----------------------------------------
 .byte   W96
@ 030   ----------------------------------------
 .byte   W96
@ 031   ----------------------------------------
 .byte   W96
@ 032   ----------------------------------------
 .byte   W96
@ 033   ----------------------------------------
 .byte   W96
@ 034   ----------------------------------------
 .byte   W96
@ 035   ----------------------------------------
 .byte   N02 ,En4 ,v127
 .byte   W03
 .byte   N92
 .byte   W44
 .byte   W02
 .byte   N01
 .byte   W11
 .byte   BEND , c_v-6
 .byte   W01
 .byte   BEND , c_v-11
 .byte   W01
 .byte   BEND , c_v-16
 .byte   W01
 .byte   BEND , c_v-22
 .byte   W01
 .byte   BEND , c_v-27
 .byte   W01
 .byte   BEND , c_v-32
 .byte   W01
 .byte   BEND , c_v-38
 .byte   W01
 .byte   BEND , c_v-43
 .byte   W01
 .byte   BEND , c_v-48
 .byte   W01
 .byte   BEND , c_v-54
 .byte   W01
 .byte   BEND , c_v-59
 .byte   W01
 .byte   BEND , c_v-64
 .byte   BEND , c_v-64
 .byte   BEND , c_v+0
 .byte   W01
 .byte   BEND , c_v-62
 .byte   W01
 .byte   BEND , c_v-59
 .byte   W01
 .byte   BEND , c_v-56
 .byte   W01
 .byte   BEND , c_v-54
 .byte   W01
 .byte   BEND , c_v-51
 .byte   W01
 .byte   BEND , c_v-48
 .byte   W01
 .byte   BEND , c_v-46
 .byte   W01
 .byte   BEND , c_v-43
 .byte   W01
 .byte   BEND , c_v-40
 .byte   W01
 .byte   BEND , c_v-38
 .byte   W01
 .byte   BEND , c_v-35
 .byte   W01
 .byte   BEND , c_v-32
 .byte   W01
 .byte   BEND , c_v-30
 .byte   W01
 .byte   BEND , c_v-27
 .byte   W01
 .byte   BEND , c_v-24
 .byte   W01
 .byte   BEND , c_v-22
 .byte   W01
 .byte   BEND , c_v-19
 .byte   W01
 .byte   BEND , c_v-16
 .byte   W01
 .byte   BEND , c_v-14
 .byte   W01
 .byte   BEND , c_v-11
 .byte   W01
 .byte   BEND , c_v-8
 .byte   W01
 .byte   BEND , c_v-6
 .byte   W01
 .byte   BEND , c_v-3
 .byte   W01
 .byte   BEND , c_v+0
 .byte   W96
@ 036   ----------------------------------------
 .byte   W96
@ 037   ----------------------------------------
 .byte   W96
@ 038   ----------------------------------------
 .byte   W96
@ 039   ----------------------------------------
 .byte   W96
@ 040   ----------------------------------------
 .byte   W96
@ 041   ----------------------------------------
 .byte   W96
@ 042   ----------------------------------------
 .byte   W96
@ 043   ----------------------------------------
 .byte   W96
@ 044   ----------------------------------------
 .byte   W96
@ 045   ----------------------------------------
 .byte   W96
@ 046   ----------------------------------------
 .byte   W96
@ 047   ----------------------------------------
 .byte   W96
@ 048   ----------------------------------------
 .byte   W96
@ 049   ----------------------------------------
 .byte   W96
@ 050   ----------------------------------------
 .byte   W96
@ 051   ----------------------------------------
 .byte   W96
@ 052   ----------------------------------------
 .byte   W96
@ 053   ----------------------------------------
 .byte   W96
@ 054   ----------------------------------------
 .byte   W96
@ 055   ----------------------------------------
 .byte   W96
@ 056   ----------------------------------------
 .byte   W96
@ 057   ----------------------------------------
 .byte   W96
@ 058   ----------------------------------------
 .byte   W96
@ 059   ----------------------------------------
 .byte   W96
@ 060   ----------------------------------------
 .byte   W96
@ 061   ----------------------------------------
 .byte   W96
@ 062   ----------------------------------------
 .byte   W96
@ 063   ----------------------------------------
 .byte   W96
@ 064   ----------------------------------------
 .byte   W96
@ 065   ----------------------------------------
 .byte   W96
@ 066   ----------------------------------------
 .byte   W96
@ 067   ----------------------------------------
 .byte   W96
@ 068   ----------------------------------------
 .byte   W96
@ 069   ----------------------------------------
 .byte   W96
@ 070   ----------------------------------------
 .byte   N02 ,En4 ,v127
 .byte   W03
 .byte   N92
 .byte   W44
 .byte   W02
 .byte   N01
 .byte   W11
 .byte   BEND , c_v-3
 .byte   W01
 .byte   BEND , c_v-6
 .byte   W01
 .byte   BEND , c_v-8
 .byte   W01
 .byte   BEND , c_v-11
 .byte   W01
 .byte   BEND , c_v-14
 .byte   W01
 .byte   BEND , c_v-16
 .byte   W01
 .byte   BEND , c_v-19
 .byte   W01
 .byte   BEND , c_v-22
 .byte   W01
 .byte   BEND , c_v-24
 .byte   W01
 .byte   BEND , c_v-27
 .byte   W01
 .byte   BEND , c_v-30
 .byte   W01
 .byte   BEND , c_v-32
 .byte   W01
 .byte   BEND , c_v-35
 .byte   W01
 .byte   BEND , c_v-38
 .byte   W01
 .byte   BEND , c_v-40
 .byte   W01
 .byte   BEND , c_v-43
 .byte   W01
 .byte   BEND , c_v-46
 .byte   W01
 .byte   BEND , c_v-48
 .byte   W01
 .byte   BEND , c_v-51
 .byte   W01
 .byte   BEND , c_v-54
 .byte   W01
 .byte   BEND , c_v-56
 .byte   W01
 .byte   BEND , c_v-59
 .byte   W01
 .byte   BEND , c_v-62
 .byte   W01
 .byte   BEND , c_v-64
 .byte   W01
 .byte   BEND , c_v-54
 .byte   W01
 .byte   BEND , c_v-43
 .byte   W01
 .byte   BEND , c_v-32
 .byte   W01
 .byte   BEND , c_v-22
 .byte   W01
 .byte   BEND , c_v-11
 .byte   W01
 .byte   BEND , c_v+0
 .byte   W01
 .byte   BEND , c_v+10
 .byte   W01
 .byte   BEND , c_v+21
 .byte   W01
 .byte   BEND , c_v+32
 .byte   W01
 .byte   BEND , c_v+42
 .byte   W01
 .byte   BEND , c_v+53
 .byte   W01
 .byte   BEND , c_v+63
 .byte   BEND , c_v-32
 .byte   BEND , c_v-43
 .byte   BEND , c_v-11
 .byte   BEND , c_v-22
 .byte   BEND , c_v-54
 .byte   BEND , c_v-22
 .byte   BEND , c_v+0
 .byte   BEND , c_v-64
 .byte   BEND , c_v-43
 .byte   BEND , c_v+0
 .byte   BEND , c_v+53
 .byte   BEND , c_v+63
 .byte   BEND , c_v+32
 .byte   BEND , c_v+42
 .byte   BEND , c_v+53
 .byte   BEND , c_v+21
 .byte   BEND , c_v+10
 .byte   BEND , c_v+42
 .byte   BEND , c_v+32
 .byte   BEND , c_v+21
 .byte   BEND , c_v+42
 .byte   BEND , c_v+63
 .byte   BEND , c_v+0
 .byte   BEND , c_v+21
 .byte   BEND , c_v+53
 .byte   BEND , c_v+21
 .byte   BEND , c_v+10
 .byte   BEND , c_v+42
 .byte   BEND , c_v+32
 .byte   BEND , c_v-22
 .byte   BEND , c_v+42
 .byte   BEND , c_v+21
 .byte   BEND , c_v+42
 .byte   BEND , c_v+63
 .byte   BEND , c_v+0
 .byte   BEND , c_v-64
 .byte   BEND , c_v-43
 .byte   BEND , c_v-22
 .byte   BEND , c_v-43
 .byte   BEND , c_v-26
 .byte   BEND , c_v-28
 .byte   BEND , c_v-22
 .byte   BEND , c_v-24
 .byte   BEND , c_v-30
 .byte   BEND , c_v-37
 .byte   BEND , c_v-39
 .byte   BEND , c_v-32
 .byte   BEND , c_v-35
 .byte   BEND , c_v-20
 .byte   BEND , c_v-5
 .byte   BEND , c_v-7
 .byte   BEND , c_v+0
 .byte   BEND , c_v-3
 .byte   BEND , c_v-9
 .byte   BEND , c_v-15
 .byte   BEND , c_v-18
 .byte   BEND , c_v-11
 .byte   BEND , c_v-13
 .byte   BEND , c_v-41
 .byte   BEND , c_v-43
 .byte   BEND , c_v-32
 .byte   BEND , c_v-64
 .byte   BEND , c_v-54
 .byte   BEND , c_v-22
 .byte   BEND , c_v+10
 .byte   BEND , c_v+21
 .byte   BEND , c_v-11
 .byte   BEND , c_v+0
 .byte   BEND , c_v-62
 .byte   BEND , c_v-47
 .byte   BEND , c_v-50
 .byte   BEND , c_v-43
 .byte   BEND , c_v-45
 .byte   BEND , c_v-52
 .byte   BEND , c_v-58
 .byte   BEND , c_v-60
 .byte   BEND , c_v-54
 .byte   BEND , c_v-56
 .byte   W96
@ 071   ----------------------------------------
 .byte   W96
@ 072   ----------------------------------------
 .byte   W96
@ 073   ----------------------------------------
 .byte   W96
@ 074   ----------------------------------------
 .byte   W96
@ 075   ----------------------------------------
 .byte   W96
@ 076   ----------------------------------------
 .byte   W96
@ 077   ----------------------------------------
 .byte   W96
@ 078   ----------------------------------------
 .byte   W96
@ 079   ----------------------------------------
 .byte   W96
@ 080   ----------------------------------------
 .byte   W96
@ 081   ----------------------------------------
 .byte   W96
@ 082   ----------------------------------------
 .byte   GOTO
  .word Label_7_0177A17C
 .byte   FINE

@**************** Track 9 (Midi-Chn.8) ****************@

song03A8_009:
@ 000   ----------------------------------------
Label_8_0177A36C:
 .byte   TEMPO , 136*song03A8_tbs/2
 .byte   KEYSH , song03A8_key+0
 .byte   VOICE , 124
 .byte   VOL , 18*song03A8_mvl/mxv
 .byte   PAN , c_v+0
 .byte   BEND , c_v+0
 .byte   MOD 0
 .byte   CnM2
 .byte   W96
@ 001   ----------------------------------------
 .byte   W96
@ 002   ----------------------------------------
Label_8_0177A37C:
 .byte   N02 ,Fs2 ,v084
 .byte   W06
 .byte   Fs2
 .byte   W06
 .byte   Fs2
 .byte   W06
 .byte   Fs2
 .byte   W06
 .byte   Fs2
 .byte   W06
 .byte   Fs2
 .byte   W06
 .byte   Fs2
 .byte   W06
 .byte   Fs2
 .byte   W06
 .byte   Fs2
 .byte   W06
 .byte   Fs2
 .byte   W06
 .byte   Fs2
 .byte   W06
 .byte   Fs2
 .byte   W06
 .byte   Fs2
 .byte   W06
 .byte   Fs2
 .byte   W06
 .byte   Fs2
 .byte   W06
 .byte   Fs2
 .byte   W06
 .byte   PEND 
@ 003   ----------------------------------------
 .byte   PATT
  .word Label_8_0177A37C
@ 004   ----------------------------------------
Label_8_0177A3A4:
 .byte   N02 ,Gn2 ,v106
 .byte   N02 ,Fs1 ,v084
 .byte   N02 ,Bn0 ,v127
 .byte   W18
 .byte   Gn2 ,v106
 .byte   N02 ,Fs1 ,v084
 .byte   N02 ,Bn0 ,v127
 .byte   W18
 .byte   Gn2 ,v106
 .byte   N02 ,Fs1 ,v084
 .byte   N02 ,Bn0 ,v127
 .byte   W18
 .byte   Gn2 ,v106
 .byte   N02 ,Fs1 ,v084
 .byte   N02 ,Bn0 ,v127
 .byte   W18
 .byte   Gn2 ,v106
 .byte   N02 ,Fs1 ,v084
 .byte   N02 ,Bn0 ,v127
 .byte   W12
 .byte   Gn2 ,v106
 .byte   N02 ,Fs1 ,v084
 .byte   N02 ,Bn0 ,v127
 .byte   W12
 .byte   PEND 
@ 005   ----------------------------------------
 .byte   PATT
  .word Label_8_0177A3A4
@ 006   ----------------------------------------
 .byte   PATT
  .word Label_8_0177A3A4
@ 007   ----------------------------------------
 .byte   N02 ,Cn1 ,v127
 .byte   N02 ,Gn2 ,v106
 .byte   N02 ,Dn1 ,v095
 .byte   N02 ,Bn0 ,v127
 .byte   N02 ,Fs1 ,v084
 .byte   W03
 .byte   Dn1 ,v095
 .byte   W03
 .byte   Dn1
 .byte   W06
 .byte   Dn1
 .byte   W06
 .byte   Dn1
 .byte   N02 ,Gn2 ,v106
 .byte   N02 ,Bn0 ,v127
 .byte   N02 ,Fs1 ,v084
 .byte   W06
 .byte   Dn1 ,v095
 .byte   N02 ,Cn1 ,v127
 .byte   W06
 .byte   Dn1 ,v095
 .byte   W06
 .byte   Dn1
 .byte   N02 ,Gn2 ,v106
 .byte   N02 ,Bn0 ,v127
 .byte   N02 ,Fs1 ,v084
 .byte   W06
 .byte   Dn1 ,v095
 .byte   W06
 .byte   Dn1 ,v118
 .byte   N02 ,Cn1 ,v127
 .byte   W03
 .byte   Dn1 ,v118
 .byte   W03
 .byte   Dn1
 .byte   N02 ,Gn2 ,v106
 .byte   N02 ,Bn0 ,v127
 .byte   N02 ,Fs1 ,v084
 .byte   W06
 .byte   Dn1 ,v118
 .byte   W06
 .byte   Dn1
 .byte   W06
 .byte   Cn1 ,v127
 .byte   N02 ,Gn2 ,v106
 .byte   N02 ,Dn1 ,v118
 .byte   N02 ,Bn0 ,v127
 .byte   N02 ,Fs1 ,v084
 .byte   W06
 .byte   Dn1 ,v118
 .byte   W06
 .byte   Dn1
 .byte   N02 ,Gn2 ,v106
 .byte   N02 ,Bn0 ,v127
 .byte   N02 ,Fs1 ,v084
 .byte   W06
 .byte   Dn1 ,v118
 .byte   W06
@ 008   ----------------------------------------
Label_8_0177A458:
 .byte   N02 ,Fs2 ,v084
 .byte   N02 ,Fs1
 .byte   N02 ,Cn1 ,v127
 .byte   W06
 .byte   Fs2 ,v084
 .byte   N02 ,Fs1
 .byte   W06
 .byte   Fs2 ,v100
 .byte   N02 ,As1 ,v084
 .byte   W06
 .byte   Fs2
 .byte   W06
 .byte   Fs2
 .byte   N02 ,Fs1
 .byte   N02 ,Cn1 ,v127
 .byte   W06
 .byte   Fs2 ,v084
 .byte   N02 ,Fs1
 .byte   W06
 .byte   Fs2 ,v100
 .byte   N02 ,As1 ,v084
 .byte   W06
 .byte   Fs2
 .byte   W06
 .byte   Fs2
 .byte   N02 ,Fs1
 .byte   N02 ,Cn1 ,v127
 .byte   W06
 .byte   Fs2 ,v084
 .byte   N02 ,Fs1
 .byte   W06
 .byte   Fs2 ,v100
 .byte   N02 ,As1 ,v084
 .byte   W06
 .byte   Fs2
 .byte   W06
 .byte   Fs2
 .byte   N02 ,Fs1
 .byte   N02 ,Cn1 ,v127
 .byte   W06
 .byte   Fs2 ,v084
 .byte   N02 ,Fs1
 .byte   W06
 .byte   Fs2 ,v100
 .byte   N02 ,As1 ,v084
 .byte   W06
 .byte   Fs2
 .byte   W06
 .byte   PEND 
@ 009   ----------------------------------------
 .byte   PATT
  .word Label_8_0177A458
@ 010   ----------------------------------------
 .byte   PATT
  .word Label_8_0177A458
@ 011   ----------------------------------------
Label_8_0177A4B5:
 .byte   N02 ,Fs2 ,v084
 .byte   N02 ,Fs1
 .byte   N02 ,Cn1 ,v127
 .byte   W06
 .byte   Fs2 ,v084
 .byte   N02 ,Fs1
 .byte   W06
 .byte   Fs2 ,v100
 .byte   N02 ,As1 ,v084
 .byte   W06
 .byte   Fs2
 .byte   W06
 .byte   Fs2
 .byte   N02 ,Fs1
 .byte   N02 ,Cn1 ,v127
 .byte   W06
 .byte   Fs2 ,v084
 .byte   N02 ,Fs1
 .byte   W06
 .byte   Fs2 ,v100
 .byte   N02 ,As1 ,v084
 .byte   W06
 .byte   Fs2
 .byte   W06
 .byte   Fs2
 .byte   N02 ,Fs1
 .byte   N02 ,Cn1 ,v127
 .byte   W06
 .byte   Fs2 ,v084
 .byte   N02 ,Dn1 ,v118
 .byte   N02 ,Fs1 ,v084
 .byte   W06
 .byte   Fs2 ,v100
 .byte   N02 ,Dn1 ,v118
 .byte   N02 ,As1 ,v084
 .byte   W06
 .byte   Fs2
 .byte   W06
 .byte   Dn1 ,v118
 .byte   N02 ,Fs2 ,v084
 .byte   N02 ,Cn1 ,v127
 .byte   N02 ,Fs1 ,v084
 .byte   W06
 .byte   Fs2
 .byte   N02 ,Fs1
 .byte   W06
 .byte   Fs2 ,v100
 .byte   N02 ,Dn1 ,v118
 .byte   N02 ,As1 ,v084
 .byte   W06
 .byte   Fs2
 .byte   N02 ,Dn1 ,v118
 .byte   W06
 .byte   PEND 
@ 012   ----------------------------------------
Label_8_0177A519:
 .byte   N02 ,Fs2 ,v084
 .byte   N02 ,Fs1
 .byte   N02 ,Cn1 ,v127
 .byte   W06
 .byte   Fs2 ,v084
 .byte   N02 ,Fs1
 .byte   W06
 .byte   Fs2 ,v100
 .byte   N02 ,As1 ,v084
 .byte   W06
 .byte   Fs2
 .byte   W06
 .byte   Dn1 ,v118
 .byte   N02 ,Fs2 ,v084
 .byte   N02 ,Cn1 ,v127
 .byte   N02 ,Fs1 ,v084
 .byte   W06
 .byte   Fs2
 .byte   N02 ,Fs1
 .byte   W06
 .byte   Fs2 ,v100
 .byte   N02 ,As1 ,v084
 .byte   W06
 .byte   Fs2
 .byte   N02 ,Dn1 ,v118
 .byte   W06
 .byte   Fs2 ,v084
 .byte   N02 ,Fs1
 .byte   N02 ,Cn1 ,v127
 .byte   W06
 .byte   Fs2 ,v084
 .byte   N02 ,Fs1
 .byte   W06
 .byte   Fs2 ,v100
 .byte   N02 ,As1 ,v084
 .byte   W06
 .byte   Fs2
 .byte   W06
 .byte   Dn1 ,v118
 .byte   N02 ,Fs2 ,v084
 .byte   N02 ,Cn1 ,v127
 .byte   N02 ,Fs1 ,v084
 .byte   W06
 .byte   Fs2
 .byte   N02 ,Fs1
 .byte   W06
 .byte   Fs2 ,v100
 .byte   N02 ,As1 ,v084
 .byte   W06
 .byte   Fs2
 .byte   W06
 .byte   PEND 
@ 013   ----------------------------------------
Label_8_0177A578:
 .byte   N02 ,Fs2 ,v084
 .byte   N02 ,Fs1
 .byte   N02 ,Cn1 ,v127
 .byte   W06
 .byte   Fs2 ,v084
 .byte   N02 ,Fs1
 .byte   W06
 .byte   Fs2 ,v100
 .byte   N02 ,As1 ,v084
 .byte   W06
 .byte   Fs2
 .byte   W06
 .byte   Dn1 ,v118
 .byte   N02 ,Fs2 ,v084
 .byte   N02 ,Cn1 ,v127
 .byte   N02 ,Fs1 ,v084
 .byte   W06
 .byte   Fs2
 .byte   N02 ,Fs1
 .byte   W06
 .byte   Fs2 ,v100
 .byte   N02 ,As1 ,v084
 .byte   W06
 .byte   Fs2
 .byte   N02 ,Dn1 ,v118
 .byte   W06
 .byte   Fs2 ,v084
 .byte   N02 ,Fs1
 .byte   N02 ,Cn1 ,v127
 .byte   W06
 .byte   Fs2 ,v084
 .byte   N02 ,Fs1
 .byte   W06
 .byte   Fs2 ,v100
 .byte   N02 ,As1 ,v084
 .byte   W06
 .byte   Fs2
 .byte   W06
 .byte   Dn1 ,v118
 .byte   N02 ,Fs2 ,v084
 .byte   N02 ,Cn1 ,v127
 .byte   N02 ,Fs1 ,v084
 .byte   W06
 .byte   Fs2
 .byte   N02 ,Fs1
 .byte   W06
 .byte   Fs2 ,v100
 .byte   N02 ,As1 ,v084
 .byte   W06
 .byte   Fs2
 .byte   N02 ,Dn1 ,v118
 .byte   W06
 .byte   PEND 
@ 014   ----------------------------------------
 .byte   PATT
  .word Label_8_0177A519
@ 015   ----------------------------------------
Label_8_0177A5DF:
 .byte   N02 ,Fs2 ,v084
 .byte   N02 ,Fs1
 .byte   N02 ,Cn1 ,v127
 .byte   W06
 .byte   Fs2 ,v084
 .byte   N02 ,Fs1
 .byte   W06
 .byte   Fs2 ,v100
 .byte   N02 ,As1 ,v084
 .byte   W06
 .byte   Fs2
 .byte   W06
 .byte   Dn1 ,v118
 .byte   N02 ,Fs2 ,v084
 .byte   N02 ,Cn1 ,v127
 .byte   N02 ,Fs1 ,v084
 .byte   W06
 .byte   Fs2
 .byte   N02 ,Fs1
 .byte   W06
 .byte   Fs2 ,v100
 .byte   N02 ,As1 ,v084
 .byte   W06
 .byte   Fs2
 .byte   N02 ,Dn1 ,v118
 .byte   W06
 .byte   Fs2 ,v084
 .byte   N02 ,Fs1
 .byte   N02 ,Cn1 ,v127
 .byte   W06
 .byte   Fs2 ,v084
 .byte   N02 ,Fs1
 .byte   W06
 .byte   Fs2 ,v100
 .byte   N02 ,Dn1 ,v118
 .byte   N02 ,As1 ,v084
 .byte   W06
 .byte   Fs2
 .byte   W06
 .byte   Dn1 ,v118
 .byte   N02 ,Fs2 ,v084
 .byte   N02 ,Cn1 ,v127
 .byte   N02 ,Fs1 ,v084
 .byte   W06
 .byte   Fs2
 .byte   N02 ,Fs1
 .byte   W06
 .byte   Fs2 ,v100
 .byte   N02 ,Dn1 ,v118
 .byte   N02 ,As1 ,v084
 .byte   W06
 .byte   Fs2
 .byte   N02 ,Dn1 ,v118
 .byte   W06
 .byte   PEND 
@ 016   ----------------------------------------
 .byte   PATT
  .word Label_8_0177A519
@ 017   ----------------------------------------
 .byte   PATT
  .word Label_8_0177A578
@ 018   ----------------------------------------
 .byte   PATT
  .word Label_8_0177A519
@ 019   ----------------------------------------
Label_8_0177A656:
 .byte   N02 ,Fs2 ,v084
 .byte   N02 ,Fs1
 .byte   N02 ,Cn1 ,v127
 .byte   W06
 .byte   Fs2 ,v084
 .byte   N02 ,Fs1
 .byte   W06
 .byte   Fs2 ,v100
 .byte   N02 ,As1 ,v084
 .byte   W06
 .byte   Fs2
 .byte   W06
 .byte   Dn1 ,v118
 .byte   N02 ,Fs2 ,v084
 .byte   N02 ,Cn1 ,v127
 .byte   N02 ,Fs1 ,v084
 .byte   W06
 .byte   Fs2
 .byte   N02 ,Fs1
 .byte   W06
 .byte   Fs2 ,v100
 .byte   N02 ,As1 ,v084
 .byte   W06
 .byte   Fs2
 .byte   N02 ,Dn1 ,v118
 .byte   W06
 .byte   Fs2 ,v084
 .byte   N02 ,Fs1
 .byte   N02 ,Cn1 ,v127
 .byte   W06
 .byte   Fs2 ,v084
 .byte   N02 ,Dn1 ,v118
 .byte   N02 ,Fs1 ,v084
 .byte   W06
 .byte   Fs2 ,v100
 .byte   N02 ,Dn1 ,v118
 .byte   N02 ,As1 ,v084
 .byte   W06
 .byte   Fs2
 .byte   W06
 .byte   Dn1 ,v118
 .byte   N02 ,Fs2 ,v084
 .byte   N02 ,Cn1 ,v127
 .byte   N02 ,Fs1 ,v084
 .byte   W06
 .byte   Fs2
 .byte   N02 ,Fs1
 .byte   W06
 .byte   Fs2 ,v100
 .byte   N02 ,Dn1 ,v118
 .byte   N02 ,As1 ,v084
 .byte   W06
 .byte   Fs2
 .byte   N02 ,Dn1 ,v118
 .byte   W06
 .byte   PEND 
@ 020   ----------------------------------------
 .byte   PATT
  .word Label_8_0177A519
@ 021   ----------------------------------------
Label_8_0177A6C7:
 .byte   N02 ,Fs2 ,v084
 .byte   N02 ,Fs1
 .byte   N02 ,Cn1 ,v127
 .byte   W06
 .byte   Fs2 ,v084
 .byte   N02 ,Fs1
 .byte   W06
 .byte   Fs2 ,v100
 .byte   N02 ,As1 ,v084
 .byte   W06
 .byte   Fs2
 .byte   W06
 .byte   Dn1 ,v118
 .byte   N02 ,Fs2 ,v084
 .byte   N02 ,Cn1 ,v127
 .byte   N02 ,Fs1 ,v084
 .byte   W06
 .byte   Fs2
 .byte   N02 ,Fs1
 .byte   W06
 .byte   Fs2 ,v100
 .byte   N02 ,As1 ,v084
 .byte   W06
 .byte   Fs2
 .byte   N02 ,Dn1 ,v118
 .byte   W06
 .byte   Fs2 ,v084
 .byte   N02 ,Fs1
 .byte   N02 ,Cn1 ,v127
 .byte   W06
 .byte   Fs2 ,v084
 .byte   N02 ,Dn1 ,v118
 .byte   N02 ,Fs1 ,v084
 .byte   W06
 .byte   Fs2 ,v100
 .byte   N02 ,As1 ,v084
 .byte   W06
 .byte   Fs2
 .byte   W06
 .byte   Dn1 ,v118
 .byte   N02 ,Fs2 ,v084
 .byte   N02 ,Cn1 ,v127
 .byte   N02 ,Fs1 ,v084
 .byte   W06
 .byte   Fs2
 .byte   N02 ,Fs1
 .byte   W06
 .byte   Fs2 ,v100
 .byte   N02 ,As1 ,v084
 .byte   W06
 .byte   Fs2
 .byte   W06
 .byte   PEND 
@ 022   ----------------------------------------
 .byte   PATT
  .word Label_8_0177A6C7
@ 023   ----------------------------------------
Label_8_0177A72F:
 .byte   N02 ,Dn1 ,v118
 .byte   N02 ,Fs2 ,v084
 .byte   N02 ,Cn1 ,v127
 .byte   N02 ,Fs1 ,v084
 .byte   W06
 .byte   Fs2
 .byte   N02 ,Dn1 ,v118
 .byte   N02 ,Fs1 ,v084
 .byte   W06
 .byte   Fs2 ,v100
 .byte   N02 ,Dn1 ,v118
 .byte   N02 ,As1 ,v084
 .byte   W06
 .byte   Fs2
 .byte   N02 ,Dn1 ,v118
 .byte   W06
 .byte   Dn1
 .byte   N02 ,Fs2 ,v084
 .byte   N02 ,Cn1 ,v127
 .byte   N02 ,Fs1 ,v084
 .byte   W06
 .byte   Fs2
 .byte   N02 ,Fs1
 .byte   W06
 .byte   Fs2 ,v100
 .byte   N02 ,Dn1 ,v118
 .byte   N02 ,As1 ,v084
 .byte   W06
 .byte   Fs2
 .byte   N02 ,Dn1 ,v118
 .byte   W06
 .byte   Fs2 ,v084
 .byte   N02 ,Fs1
 .byte   N02 ,Cn1 ,v127
 .byte   W06
 .byte   Fs2 ,v084
 .byte   N02 ,Dn1 ,v118
 .byte   N02 ,Fs1 ,v084
 .byte   W06
 .byte   Fs2 ,v100
 .byte   N02 ,As1 ,v084
 .byte   W06
 .byte   Fs2
 .byte   N02 ,Dn1 ,v118
 .byte   W06
 .byte   Dn1
 .byte   N02 ,Fs2 ,v084
 .byte   N02 ,Cn1 ,v127
 .byte   N02 ,Fs1 ,v084
 .byte   W06
 .byte   Fs2
 .byte   N02 ,Fs1
 .byte   W06
 .byte   Fs2 ,v100
 .byte   N02 ,Dn1 ,v118
 .byte   N02 ,As1 ,v084
 .byte   W06
 .byte   Fs2
 .byte   N02 ,Dn1 ,v118
 .byte   W06
 .byte   PEND 
@ 024   ----------------------------------------
 .byte   PATT
  .word Label_8_0177A519
@ 025   ----------------------------------------
 .byte   PATT
  .word Label_8_0177A578
@ 026   ----------------------------------------
 .byte   PATT
  .word Label_8_0177A519
@ 027   ----------------------------------------
 .byte   PATT
  .word Label_8_0177A5DF
@ 028   ----------------------------------------
 .byte   PATT
  .word Label_8_0177A519
@ 029   ----------------------------------------
 .byte   PATT
  .word Label_8_0177A578
@ 030   ----------------------------------------
 .byte   PATT
  .word Label_8_0177A519
@ 031   ----------------------------------------
 .byte   PATT
  .word Label_8_0177A656
@ 032   ----------------------------------------
 .byte   PATT
  .word Label_8_0177A519
@ 033   ----------------------------------------
 .byte   PATT
  .word Label_8_0177A6C7
@ 034   ----------------------------------------
Label_8_0177A7DB:
 .byte   N02 ,Fs2 ,v084
 .byte   N02 ,Fs1
 .byte   N02 ,Cn1 ,v127
 .byte   W06
 .byte   Fs2 ,v084
 .byte   N02 ,Fs1
 .byte   W06
 .byte   Fs2 ,v100
 .byte   N02 ,As1 ,v084
 .byte   W06
 .byte   Fs2
 .byte   W06
 .byte   Dn1 ,v118
 .byte   N02 ,Fs2 ,v084
 .byte   N02 ,Cn1 ,v127
 .byte   N02 ,Fs1 ,v084
 .byte   W06
 .byte   Fs2
 .byte   N02 ,Fs1
 .byte   W06
 .byte   Fs2 ,v100
 .byte   N02 ,As1 ,v084
 .byte   W06
 .byte   Fs2
 .byte   N02 ,Dn1 ,v118
 .byte   W06
 .byte   Fs2 ,v084
 .byte   N02 ,Fs1
 .byte   N02 ,Cn1 ,v127
 .byte   W06
 .byte   Fs2 ,v084
 .byte   N02 ,Dn1 ,v118
 .byte   N02 ,Fs1 ,v084
 .byte   W06
 .byte   Fs2 ,v100
 .byte   N02 ,As1 ,v084
 .byte   W06
 .byte   Fs2
 .byte   W06
 .byte   Dn1 ,v118
 .byte   N02 ,Fs2 ,v084
 .byte   N02 ,Cn1 ,v127
 .byte   N02 ,Fs1 ,v084
 .byte   W06
 .byte   Fs2
 .byte   N02 ,Fs1
 .byte   W06
 .byte   Fs2 ,v100
 .byte   N02 ,As1 ,v084
 .byte   W06
 .byte   Fs2
 .byte   W96
@ 035   ----------------------------------------
 .byte   W06
 .byte   PEND 
@ 036   ----------------------------------------
 .byte   PATT
  .word Label_8_0177A6C7
@ 037   ----------------------------------------
Label_8_0177A844:
 .byte   N02 ,Fs2 ,v084
 .byte   N02 ,Fs1
 .byte   N02 ,Cn1 ,v127
 .byte   W06
 .byte   Fs2 ,v084
 .byte   N02 ,Fs1
 .byte   W06
 .byte   Fs2 ,v100
 .byte   N02 ,As1 ,v084
 .byte   W06
 .byte   Fs2
 .byte   W06
 .byte   Dn1 ,v118
 .byte   N02 ,Fs2 ,v084
 .byte   N02 ,Cn1 ,v127
 .byte   N02 ,Fs1 ,v084
 .byte   W06
 .byte   Fs2
 .byte   N02 ,Fs1
 .byte   W06
 .byte   Fs2 ,v100
 .byte   N02 ,As1 ,v084
 .byte   W06
 .byte   Fs2
 .byte   N02 ,Dn1 ,v118
 .byte   W06
 .byte   Fs2 ,v084
 .byte   N02 ,Fs1
 .byte   N02 ,Cn1 ,v127
 .byte   W06
 .byte   Fs2 ,v084
 .byte   N02 ,Dn1 ,v118
 .byte   N02 ,Fs1 ,v084
 .byte   W06
 .byte   Fs2 ,v100
 .byte   N02 ,As1 ,v084
 .byte   W06
 .byte   Fs2
 .byte   W06
 .byte   Dn1 ,v118
 .byte   N02 ,Fs2 ,v084
 .byte   N02 ,Cn1 ,v127
 .byte   N02 ,Fs1 ,v084
 .byte   W06
 .byte   Fs2
 .byte   N02 ,Fs1
 .byte   W06
 .byte   Fs2 ,v100
 .byte   N02 ,As1 ,v084
 .byte   W06
 .byte   Fs2
 .byte   N02 ,Dn1 ,v118
 .byte   W06
 .byte   PEND 
@ 038   ----------------------------------------
 .byte   PATT
  .word Label_8_0177A6C7
@ 039   ----------------------------------------
Label_8_0177A8AF:
 .byte   N02 ,Fs2 ,v084
 .byte   N02 ,Fs1
 .byte   N02 ,Cn1 ,v127
 .byte   W06
 .byte   Fs2 ,v084
 .byte   N02 ,Fs1
 .byte   W06
 .byte   Fs2 ,v100
 .byte   N02 ,As1 ,v084
 .byte   W06
 .byte   Fs2
 .byte   W06
 .byte   Dn1 ,v118
 .byte   N02 ,Fs2 ,v084
 .byte   N02 ,Cn1 ,v127
 .byte   N02 ,Fs1 ,v084
 .byte   W06
 .byte   Fs2
 .byte   N02 ,Fs1
 .byte   W06
 .byte   Fs2 ,v100
 .byte   N02 ,As1 ,v084
 .byte   W06
 .byte   Fs2
 .byte   N02 ,Dn1 ,v118
 .byte   W06
 .byte   Fs2 ,v084
 .byte   N02 ,Fs1
 .byte   N02 ,Cn1 ,v127
 .byte   W06
 .byte   Fs2 ,v084
 .byte   N02 ,Dn1 ,v118
 .byte   N02 ,Fs1 ,v084
 .byte   W06
 .byte   Fs2 ,v100
 .byte   N02 ,As1 ,v084
 .byte   W06
 .byte   Fs2
 .byte   W06
 .byte   Dn1 ,v118
 .byte   N02 ,Fs2 ,v084
 .byte   N02 ,Cn1 ,v127
 .byte   N02 ,Fs1 ,v084
 .byte   W06
 .byte   Fs2
 .byte   N02 ,Fs1
 .byte   W06
 .byte   Fs2 ,v100
 .byte   N02 ,Dn1 ,v118
 .byte   N02 ,As1 ,v084
 .byte   W06
 .byte   Fs2
 .byte   N02 ,Dn1 ,v118
 .byte   W06
 .byte   PEND 
@ 040   ----------------------------------------
 .byte   PATT
  .word Label_8_0177A6C7
@ 041   ----------------------------------------
 .byte   PATT
  .word Label_8_0177A844
@ 042   ----------------------------------------
 .byte   PATT
  .word Label_8_0177A6C7
@ 043   ----------------------------------------
Label_8_0177A927:
 .byte   N02 ,Dn1 ,v118
 .byte   N02 ,Fs2 ,v084
 .byte   N02 ,Cn1 ,v127
 .byte   N02 ,Fs1 ,v084
 .byte   W06
 .byte   Fs2
 .byte   N02 ,Dn1 ,v118
 .byte   N02 ,Fs1 ,v084
 .byte   W06
 .byte   Fs2 ,v100
 .byte   N02 ,Dn1 ,v118
 .byte   N02 ,As1 ,v084
 .byte   W06
 .byte   Fs2
 .byte   N02 ,Dn1 ,v118
 .byte   W06
 .byte   Dn1
 .byte   N02 ,Fs2 ,v084
 .byte   N02 ,Cn1 ,v127
 .byte   N02 ,Fs1 ,v084
 .byte   W06
 .byte   Fs2
 .byte   N02 ,Dn1 ,v118
 .byte   N02 ,Fs1 ,v084
 .byte   W06
 .byte   Fs2 ,v100
 .byte   N02 ,Dn1 ,v118
 .byte   N02 ,As1 ,v084
 .byte   W06
 .byte   Fs2
 .byte   N02 ,Dn1 ,v118
 .byte   W06
 .byte   Dn1
 .byte   N02 ,Fs2 ,v084
 .byte   N02 ,Cn1 ,v127
 .byte   N02 ,Fs1 ,v084
 .byte   W03
 .byte   Dn1 ,v118
 .byte   W03
 .byte   Fs2 ,v084
 .byte   N02 ,Dn1 ,v118
 .byte   N02 ,Fs1 ,v084
 .byte   W06
 .byte   Fs2 ,v100
 .byte   N02 ,Dn1 ,v118
 .byte   N02 ,As1 ,v084
 .byte   W06
 .byte   Fs2
 .byte   N02 ,Dn1 ,v118
 .byte   W06
 .byte   Dn1
 .byte   N02 ,Fs2 ,v084
 .byte   N02 ,Cn1 ,v127
 .byte   N02 ,Fs1 ,v084
 .byte   W03
 .byte   Dn1 ,v118
 .byte   W03
 .byte   Fs2 ,v084
 .byte   N02 ,Dn1 ,v118
 .byte   N02 ,Fs1 ,v084
 .byte   W06
 .byte   Fs2 ,v100
 .byte   N02 ,Dn1 ,v118
 .byte   N02 ,As1 ,v084
 .byte   W06
 .byte   Fs2
 .byte   N02 ,Dn1 ,v118
 .byte   W06
 .byte   PEND 
@ 044   ----------------------------------------
 .byte   PATT
  .word Label_8_0177A458
@ 045   ----------------------------------------
 .byte   PATT
  .word Label_8_0177A458
@ 046   ----------------------------------------
 .byte   PATT
  .word Label_8_0177A458
@ 047   ----------------------------------------
 .byte   PATT
  .word Label_8_0177A4B5
@ 048   ----------------------------------------
 .byte   PATT
  .word Label_8_0177A519
@ 049   ----------------------------------------
 .byte   PATT
  .word Label_8_0177A578
@ 050   ----------------------------------------
 .byte   PATT
  .word Label_8_0177A519
@ 051   ----------------------------------------
 .byte   PATT
  .word Label_8_0177A5DF
@ 052   ----------------------------------------
 .byte   PATT
  .word Label_8_0177A519
@ 053   ----------------------------------------
 .byte   PATT
  .word Label_8_0177A578
@ 054   ----------------------------------------
 .byte   PATT
  .word Label_8_0177A519
@ 055   ----------------------------------------
 .byte   PATT
  .word Label_8_0177A656
@ 056   ----------------------------------------
 .byte   PATT
  .word Label_8_0177A519
@ 057   ----------------------------------------
 .byte   PATT
  .word Label_8_0177A6C7
@ 058   ----------------------------------------
 .byte   PATT
  .word Label_8_0177A6C7
@ 059   ----------------------------------------
 .byte   PATT
  .word Label_8_0177A72F
@ 060   ----------------------------------------
 .byte   PATT
  .word Label_8_0177A519
@ 061   ----------------------------------------
 .byte   PATT
  .word Label_8_0177A578
@ 062   ----------------------------------------
 .byte   PATT
  .word Label_8_0177A519
@ 063   ----------------------------------------
 .byte   PATT
  .word Label_8_0177A5DF
@ 064   ----------------------------------------
 .byte   PATT
  .word Label_8_0177A519
@ 065   ----------------------------------------
 .byte   PATT
  .word Label_8_0177A578
@ 066   ----------------------------------------
 .byte   PATT
  .word Label_8_0177A519
@ 067   ----------------------------------------
 .byte   PATT
  .word Label_8_0177A656
@ 068   ----------------------------------------
 .byte   PATT
  .word Label_8_0177A519
@ 069   ----------------------------------------
 .byte   PATT
  .word Label_8_0177A6C7
@ 070   ----------------------------------------
 .byte   PATT
  .word Label_8_0177A7DB
@ 071   ----------------------------------------
 .byte   PATT
  .word Label_8_0177A6C7
@ 072   ----------------------------------------
 .byte   PATT
  .word Label_8_0177A844
@ 073   ----------------------------------------
 .byte   PATT
  .word Label_8_0177A6C7
@ 074   ----------------------------------------
 .byte   PATT
  .word Label_8_0177A8AF
@ 075   ----------------------------------------
 .byte   PATT
  .word Label_8_0177A6C7
@ 076   ----------------------------------------
 .byte   PATT
  .word Label_8_0177A844
@ 077   ----------------------------------------
 .byte   PATT
  .word Label_8_0177A6C7
@ 078   ----------------------------------------
 .byte   PATT
  .word Label_8_0177A927
@ 079   ----------------------------------------
Label_8_0177AA65:
 .byte   N02 ,Cn1 ,v127
 .byte   W24
 .byte   Fn2 ,v084
 .byte   N02 ,Cn1 ,v127
 .byte   W24
 .byte   Cn1
 .byte   W24
 .byte   Cn1
 .byte   W24
 .byte   PEND 
@ 080   ----------------------------------------
Label_8_0177AA74:
 .byte   N02 ,Cn1 ,v127
 .byte   W24
 .byte   Fn2 ,v084
 .byte   N02 ,Cn1 ,v127
 .byte   W24
 .byte   Cn1
 .byte   W24
 .byte   Fn2 ,v084
 .byte   N02 ,Cn1 ,v127
 .byte   W24
 .byte   PEND 
@ 081   ----------------------------------------
 .byte   PATT
  .word Label_8_0177AA65
@ 082   ----------------------------------------
 .byte   PATT
  .word Label_8_0177AA74
@ 083   ----------------------------------------
 .byte   GOTO
  .word Label_8_0177A36C
 .byte   FINE

@******************************************************@
	.align	2

song03A8:
	.byte	9	@ NumTrks
	.byte	0	@ NumBlks
	.byte	song03A8_pri	@ Priority
	.byte	song03A8_rev	@ Reverb.
    
	.word	song03A8_grp
    
	.word	song03A8_001
	.word	song03A8_002
	.word	song03A8_003
	.word	song03A8_004
	.word	song03A8_005
	.word	song03A8_006
	.word	song03A8_007
	.word	song03A8_008
	.word	song03A8_009

	.end
