//Event file generated from Sappy .s format.
	#include "MPlayDef.event"

	#define	song2C_grp  voicegroup001
	#define	song2C_pri  0
	#define	song2C_rev  0
	#define	song2C_mvl  127
	#define	song2C_key  0
	#define	song2C_tbs  1
	#define	song2C_exg  0
	#define	song2C_cmp  1

	// .rodata
	//	song2C
	ALIGN 4


//**************** Track 1 (Midi-Chn.0) ****************//

song2C_001:
// 000   ----------------------------------------
 BYTE   KEYSH   song2C_key+0
 BYTE   TEMPO   90*song2C_tbs/2
 BYTE   VOICE   33
 BYTE   PAN   c_v+0
 BYTE   VOL   45*song2C_mvl/mxv
 BYTE   N90  An0  v127
 BYTE   W90
 BYTE   N03  An0  v120
 BYTE   W03
 BYTE   An0  v127
 BYTE   W03
// 001   ----------------------------------------
 BYTE   N96
 BYTE   W96
// 002   ----------------------------------------
Label_0_01385D1B:
 BYTE   N06  An1  v116
 BYTE   W06
 BYTE   En1
 BYTE   W06
 BYTE   Gn1
 BYTE   W06
 BYTE   N12  An1
 BYTE   W12
 BYTE   N06  En1
 BYTE   W06
 BYTE   Gn1
 BYTE   W06
 BYTE   N12  An1
 BYTE   W12
 BYTE   N06  En1
 BYTE   W06
 BYTE   Gn1
 BYTE   W06
 BYTE   En1
 BYTE   W06
 BYTE   An1
 BYTE   W06
 BYTE   En1
 BYTE   W06
 BYTE   Gn1
 BYTE   W06
 BYTE   En1
 BYTE   W06
 BYTE   PEND 
// 003   ----------------------------------------
Label_0_01385D3E:
 BYTE   N06  Fn1  v116
 BYTE   W06
 BYTE   Cn1
 BYTE   W06
 BYTE   En1
 BYTE   W06
 BYTE   N12  Fn1
 BYTE   W12
 BYTE   N06  Cn1
 BYTE   W06
 BYTE   En1
 BYTE   W06
 BYTE   N12  Fn1
 BYTE   W12
 BYTE   N06  Cn1
 BYTE   W06
 BYTE   En1
 BYTE   W06
 BYTE   Cn1
 BYTE   W06
 BYTE   Fn1
 BYTE   W06
 BYTE   Cn1
 BYTE   W06
 BYTE   En1
 BYTE   W06
 BYTE   Cn1
 BYTE   W06
 BYTE   PEND 
// 004   ----------------------------------------
Label_0_01385D61:
 BYTE   N06  Gn1  v116
 BYTE   W06
 BYTE   Dn1
 BYTE   W06
 BYTE   Fn1
 BYTE   W06
 BYTE   N12  Gn1
 BYTE   W12
 BYTE   N06  Dn1
 BYTE   W06
 BYTE   Fn1
 BYTE   W06
 BYTE   N12  Gn1
 BYTE   W12
 BYTE   N06  Dn1
 BYTE   W06
 BYTE   Fn1
 BYTE   W06
 BYTE   Dn1
 BYTE   W06
 BYTE   Gn1
 BYTE   W06
 BYTE   Dn1
 BYTE   W06
 BYTE   Fn1
 BYTE   W06
 BYTE   Gn1
 BYTE   W06
 BYTE   PEND 
// 005   ----------------------------------------
Label_0_01385D84:
 BYTE   N06  An1  v116
 BYTE   W06
 BYTE   En1
 BYTE   W06
 BYTE   Gn1
 BYTE   W06
 BYTE   N12  An1
 BYTE   W12
 BYTE   N06  En1
 BYTE   W06
 BYTE   Gn1
 BYTE   W06
 BYTE   N12  An1
 BYTE   W12
 BYTE   N06  En1
 BYTE   W06
 BYTE   Cn2
 BYTE   W06
 BYTE   En1
 BYTE   W06
 BYTE   Bn1
 BYTE   W06
 BYTE   En1
 BYTE   W06
 BYTE   An1
 BYTE   W06
 BYTE   En1
 BYTE   W06
 BYTE   PEND 
// 006   ----------------------------------------
 BYTE   PATT
  POIN2 Label_0_01385D1B
// 007   ----------------------------------------
 BYTE   PATT
  POIN2 Label_0_01385D3E
// 008   ----------------------------------------
 BYTE   PATT
  POIN2 Label_0_01385D61
// 009   ----------------------------------------
 BYTE   PATT
  POIN2 Label_0_01385D84
// 010   ----------------------------------------
Label_0_01385DBB:
 BYTE   N12  Fn1  v116
 BYTE   W18
 BYTE   N12
 BYTE   W12
 BYTE   N06  Cn1
 BYTE   W06
 BYTE   En1
 BYTE   W06
 BYTE   Cn1
 BYTE   W06
 BYTE   Fn1
 BYTE   W06
 BYTE   N06
 BYTE   W12
 BYTE   N12
 BYTE   W12
 BYTE   N06  Cn1
 BYTE   W06
 BYTE   En1
 BYTE   W06
 BYTE   Cn1
 BYTE   W06
 BYTE   PEND 
// 011   ----------------------------------------
Label_0_01385DD6:
 BYTE   N12  Gn1  v116
 BYTE   W18
 BYTE   N12
 BYTE   W12
 BYTE   N06  Dn1
 BYTE   W06
 BYTE   Fn1
 BYTE   W06
 BYTE   Dn1
 BYTE   W06
 BYTE   Gn1
 BYTE   W06
 BYTE   N06
 BYTE   W12
 BYTE   N12
 BYTE   W12
 BYTE   N06  Bn1
 BYTE   W06
 BYTE   An1
 BYTE   W06
 BYTE   Gn1
 BYTE   W06
 BYTE   PEND 
// 012   ----------------------------------------
Label_0_01385DF1:
 BYTE   N06  Fn1  v116
 BYTE   W06
 BYTE   N06
 BYTE   W12
 BYTE   N12
 BYTE   W12
 BYTE   N06  Cn1
 BYTE   W06
 BYTE   En1
 BYTE   W06
 BYTE   Cn1
 BYTE   W06
 BYTE   Fn1
 BYTE   W06
 BYTE   N06
 BYTE   W12
 BYTE   N12
 BYTE   W12
 BYTE   N06  Cn1
 BYTE   W06
 BYTE   En1
 BYTE   W06
 BYTE   Cn1
 BYTE   W06
 BYTE   PEND 
// 013   ----------------------------------------
Label_0_01385E0E:
 BYTE   N12  Gn1  v116
 BYTE   W18
 BYTE   N12
 BYTE   W12
 BYTE   N06  Dn1
 BYTE   W06
 BYTE   Fn1
 BYTE   W06
 BYTE   Dn1
 BYTE   W06
 BYTE   Gn1
 BYTE   W06
 BYTE   Dn1
 BYTE   W06
 BYTE   Bn1
 BYTE   W06
 BYTE   Dn1
 BYTE   W06
 BYTE   An1
 BYTE   W06
 BYTE   Dn1
 BYTE   W06
 BYTE   Gn1
 BYTE   W06
 BYTE   Dn1
 BYTE   W06
 BYTE   PEND 
// 014   ----------------------------------------
 BYTE   PATT
  POIN2 Label_0_01385DBB
// 015   ----------------------------------------
 BYTE   PATT
  POIN2 Label_0_01385DD6
// 016   ----------------------------------------
Label_0_01385E36:
 BYTE   N06  Fn1  v116
 BYTE   W06
 BYTE   N06
 BYTE   W12
 BYTE   N12
 BYTE   W12
 BYTE   N06  Cn1
 BYTE   W06
 BYTE   En1
 BYTE   W06
 BYTE   Cn1
 BYTE   W06
 BYTE   Fn1
 BYTE   W06
 BYTE   N06
 BYTE   W12
 BYTE   N12
 BYTE   W12
 BYTE   N06  Cn1
 BYTE   W06
 BYTE   En1
 BYTE   W06
 BYTE   Dn1
 BYTE   W06
 BYTE   PEND 
// 017   ----------------------------------------
Label_0_01385E53:
 BYTE   N12  En1  v116
 BYTE   W18
 BYTE   N12
 BYTE   W12
 BYTE   N06  Fn1
 BYTE   W06
 BYTE   Gs1
 BYTE   W06
 BYTE   Fn1
 BYTE   W06
 BYTE   N12  Gs1
 BYTE   W18
 BYTE   N18  An1
 BYTE   W18
 BYTE   N12  Bn1
 BYTE   W12
 BYTE   PEND 
// 018   ----------------------------------------
 BYTE   PATT
  POIN2 Label_0_01385D84
// 019   ----------------------------------------
Label_0_01385E6F:
 BYTE   N06  Fn1  v116
 BYTE   W06
 BYTE   Cn1
 BYTE   W06
 BYTE   En1
 BYTE   W06
 BYTE   N12  Fn1
 BYTE   W12
 BYTE   N06  Cn1
 BYTE   W06
 BYTE   En1
 BYTE   W06
 BYTE   N12  Fn1
 BYTE   W12
 BYTE   N06  Cn1
 BYTE   W06
 BYTE   An1
 BYTE   W06
 BYTE   Cn1
 BYTE   W06
 BYTE   Gn1
 BYTE   W06
 BYTE   Cn1
 BYTE   W06
 BYTE   Fn1
 BYTE   W06
 BYTE   Cn1
 BYTE   W06
 BYTE   PEND 
// 020   ----------------------------------------
Label_0_01385E92:
 BYTE   N06  Gn1  v116
 BYTE   W06
 BYTE   Dn1
 BYTE   W06
 BYTE   Fn1
 BYTE   W06
 BYTE   N12  Gn1
 BYTE   W12
 BYTE   N06  Dn1
 BYTE   W06
 BYTE   Fn1
 BYTE   W06
 BYTE   N12  Gn1
 BYTE   W12
 BYTE   N06  Dn1
 BYTE   W06
 BYTE   Bn1
 BYTE   W06
 BYTE   Dn1
 BYTE   W06
 BYTE   An1
 BYTE   W06
 BYTE   Dn1
 BYTE   W06
 BYTE   Gn1
 BYTE   W06
 BYTE   Dn1
 BYTE   W06
 BYTE   PEND 
// 021   ----------------------------------------
Label_0_01385EB5:
 BYTE   N06  An1  v116
 BYTE   W06
 BYTE   En1
 BYTE   W06
 BYTE   Gn1
 BYTE   W06
 BYTE   N12  An1
 BYTE   W12
 BYTE   N06  En1
 BYTE   W06
 BYTE   Gn1
 BYTE   W06
 BYTE   N12  An1
 BYTE   W12
 BYTE   N06  En1
 BYTE   W06
 BYTE   Gn1
 BYTE   W06
 BYTE   En1
 BYTE   W06
 BYTE   An1
 BYTE   W06
 BYTE   En1
 BYTE   W06
 BYTE   Cn2
 BYTE   W06
 BYTE   En1
 BYTE   W06
 BYTE   PEND 
// 022   ----------------------------------------
 BYTE   PATT
  POIN2 Label_0_01385D84
// 023   ----------------------------------------
 BYTE   PATT
  POIN2 Label_0_01385E6F
// 024   ----------------------------------------
 BYTE   PATT
  POIN2 Label_0_01385E92
// 025   ----------------------------------------
 BYTE   PATT
  POIN2 Label_0_01385EB5
// 026   ----------------------------------------
Label_0_01385EEC:
 BYTE   N06  An1  v116
 BYTE   W06
 BYTE   N06
 BYTE   W06
 BYTE   Gn1
 BYTE   W06
 BYTE   An1
 BYTE   W12
 BYTE   Gn1
 BYTE   W12
 BYTE   An1
 BYTE   W12
 BYTE   N06
 BYTE   W06
 BYTE   N06
 BYTE   W12
 BYTE   N12
 BYTE   W24
 BYTE   PEND 
// 027   ----------------------------------------
Label_0_01385F01:
 BYTE   N06  Fn1  v116
 BYTE   W06
 BYTE   N06
 BYTE   W06
 BYTE   En1
 BYTE   W06
 BYTE   Fn1
 BYTE   W12
 BYTE   En1
 BYTE   W12
 BYTE   Fn1
 BYTE   W12
 BYTE   N06
 BYTE   W06
 BYTE   N06
 BYTE   W12
 BYTE   N12
 BYTE   W24
 BYTE   PEND 
// 028   ----------------------------------------
Label_0_01385F16:
 BYTE   N06  Gn1  v116
 BYTE   W06
 BYTE   N06
 BYTE   W06
 BYTE   Fn1
 BYTE   W06
 BYTE   Gn1
 BYTE   W12
 BYTE   Fn1
 BYTE   W12
 BYTE   Gn1
 BYTE   W12
 BYTE   N06
 BYTE   W06
 BYTE   N06
 BYTE   W12
 BYTE   N12
 BYTE   W24
 BYTE   PEND 
// 029   ----------------------------------------
 BYTE   PATT
  POIN2 Label_0_01385EEC
// 030   ----------------------------------------
Label_0_01385F30:
 BYTE   N06  An1  v116
 BYTE   W06
 BYTE   N06
 BYTE   W06
 BYTE   Gn1
 BYTE   W06
 BYTE   An1
 BYTE   W12
 BYTE   Gn1
 BYTE   W12
 BYTE   An1
 BYTE   W12
 BYTE   N06
 BYTE   W06
 BYTE   N06
 BYTE   W12
 BYTE   N12
 BYTE   W12
 BYTE   Gn1
 BYTE   W12
 BYTE   PEND 
// 031   ----------------------------------------
 BYTE   PATT
  POIN2 Label_0_01385F01
// 032   ----------------------------------------
Label_0_01385F4C:
 BYTE   N06  Gn1  v116
 BYTE   W06
 BYTE   N06
 BYTE   W06
 BYTE   Fn1
 BYTE   W06
 BYTE   Gn1
 BYTE   W12
 BYTE   Fn1
 BYTE   W12
 BYTE   Gn1
 BYTE   W12
 BYTE   N06
 BYTE   W06
 BYTE   N06
 BYTE   W12
 BYTE   N12
 BYTE   W12
 BYTE   Gs1
 BYTE   W12
 BYTE   PEND 
// 033   ----------------------------------------
 BYTE   N06  An1
 BYTE   W06
 BYTE   N06
 BYTE   W06
 BYTE   Gn1
 BYTE   W06
 BYTE   An1
 BYTE   W12
 BYTE   Gn1
 BYTE   W12
 BYTE   An1
 BYTE   W12
 BYTE   N06
 BYTE   W06
 BYTE   N06
 BYTE   W12
 BYTE   N06
 BYTE   W06
 BYTE   Bn1
 BYTE   W06
 BYTE   Cn2
 BYTE   W06
 BYTE   An1
 BYTE   W06
// 034   ----------------------------------------
 BYTE   GoTo
  POIN2 Label_0_01385D1B
// 035   ----------------------------------------
 BYTE   PATT
  POIN2 Label_0_01385D1B
// 036   ----------------------------------------
 BYTE   PATT
  POIN2 Label_0_01385D3E
// 037   ----------------------------------------
 BYTE   PATT
  POIN2 Label_0_01385D61
// 038   ----------------------------------------
 BYTE   PATT
  POIN2 Label_0_01385D84
// 039   ----------------------------------------
 BYTE   PATT
  POIN2 Label_0_01385D1B
// 040   ----------------------------------------
 BYTE   PATT
  POIN2 Label_0_01385D3E
// 041   ----------------------------------------
 BYTE   PATT
  POIN2 Label_0_01385D61
// 042   ----------------------------------------
 BYTE   PATT
  POIN2 Label_0_01385D84
// 043   ----------------------------------------
 BYTE   PATT
  POIN2 Label_0_01385DBB
// 044   ----------------------------------------
 BYTE   PATT
  POIN2 Label_0_01385DD6
// 045   ----------------------------------------
 BYTE   PATT
  POIN2 Label_0_01385DF1
// 046   ----------------------------------------
 BYTE   PATT
  POIN2 Label_0_01385E0E
// 047   ----------------------------------------
 BYTE   PATT
  POIN2 Label_0_01385DBB
// 048   ----------------------------------------
 BYTE   PATT
  POIN2 Label_0_01385DD6
// 049   ----------------------------------------
 BYTE   PATT
  POIN2 Label_0_01385E36
// 050   ----------------------------------------
 BYTE   PATT
  POIN2 Label_0_01385E53
// 051   ----------------------------------------
 BYTE   PATT
  POIN2 Label_0_01385D84
// 052   ----------------------------------------
 BYTE   PATT
  POIN2 Label_0_01385E6F
// 053   ----------------------------------------
 BYTE   PATT
  POIN2 Label_0_01385E92
// 054   ----------------------------------------
 BYTE   PATT
  POIN2 Label_0_01385EB5
// 055   ----------------------------------------
 BYTE   PATT
  POIN2 Label_0_01385D84
// 056   ----------------------------------------
 BYTE   PATT
  POIN2 Label_0_01385E6F
// 057   ----------------------------------------
 BYTE   PATT
  POIN2 Label_0_01385E92
// 058   ----------------------------------------
 BYTE   PATT
  POIN2 Label_0_01385EB5
// 059   ----------------------------------------
 BYTE   PATT
  POIN2 Label_0_01385EEC
// 060   ----------------------------------------
 BYTE   PATT
  POIN2 Label_0_01385F01
// 061   ----------------------------------------
 BYTE   PATT
  POIN2 Label_0_01385F16
// 062   ----------------------------------------
 BYTE   PATT
  POIN2 Label_0_01385EEC
// 063   ----------------------------------------
 BYTE   PATT
  POIN2 Label_0_01385F30
// 064   ----------------------------------------
 BYTE   PATT
  POIN2 Label_0_01385F01
// 065   ----------------------------------------
 BYTE   PATT
  POIN2 Label_0_01385F4C
// 066   ----------------------------------------
 BYTE   PATT
  POIN2 Label_0_01385EEC
// 067   ----------------------------------------
 BYTE   N06  An1  v116
 BYTE   W06
 BYTE   N06
 BYTE   W01
 BYTE   W05
 BYTE   Gn1
 BYTE   W06
 BYTE   An1
 BYTE   W12
 BYTE   Gn1
 BYTE   W01
 BYTE   W11
 BYTE   An1
 BYTE   W12
 BYTE   N06
 BYTE   W01
 BYTE   W05
 BYTE   N06
 BYTE   W12
 BYTE   N12
 BYTE   W07
 BYTE   W05
 BYTE   Gn1
 BYTE   W12
// 068   ----------------------------------------
 BYTE   N06  Fn1
 BYTE   W06
 BYTE   N06
 BYTE   W02
 BYTE   W04
 BYTE   En1
 BYTE   W06
 BYTE   Fn1
 BYTE   W12
 BYTE   En1
 BYTE   W02
 BYTE   W10
 BYTE   Fn1
 BYTE   W12
 BYTE   N06
 BYTE   W02
 BYTE   W04
 BYTE   N06
 BYTE   W12
 BYTE   N12
 BYTE   W09
 BYTE   W15
// 069   ----------------------------------------
 BYTE   N06  Gn1
 BYTE   W06
 BYTE   N06
 BYTE   W03
 BYTE   W03
 BYTE   Fn1
 BYTE   W06
 BYTE   Gn1
 BYTE   W12
 BYTE   Fn1
 BYTE   W03
 BYTE   W09
 BYTE   Gn1
 BYTE   W12
 BYTE   N06
 BYTE   W03
 BYTE   W03
 BYTE   N06
 BYTE   W12
 BYTE   N12
 BYTE   W10
 BYTE   W02
 BYTE   Gs1
 BYTE   W12
// 070   ----------------------------------------
 BYTE   N06  An1
 BYTE   W06
 BYTE   N06
 BYTE   W04
 BYTE   W02
 BYTE   Gn1
 BYTE   W06
 BYTE   An1
 BYTE   W12
 BYTE   Gn1
 BYTE   W04
 BYTE   W08
 BYTE   An1
 BYTE   W12
 BYTE   N06
 BYTE   W05
 BYTE   W01
 BYTE   N06
 BYTE   W12
 BYTE   N12
 BYTE   W11
 BYTE   W13
// 071   ----------------------------------------
 BYTE   N06
 BYTE   W06
 BYTE   N06
 BYTE   W05
 BYTE   W01
 BYTE   Gn1
 BYTE   W06
 BYTE   An1
 BYTE   W12
 BYTE   Gn1
 BYTE   W05
 BYTE   W07
 BYTE   An1
 BYTE   W12
 BYTE   N06
 BYTE   W06
 BYTE   N06
 BYTE   W12
 BYTE   N12
 BYTE   W12
 BYTE   Gn1
 BYTE   W12
// 072   ----------------------------------------
 BYTE   N06  Fn1
 BYTE   W06
 BYTE   N06
 BYTE   W06
 BYTE   En1
 BYTE   W06
 BYTE   Fn1
 BYTE   W12
 BYTE   En1
 BYTE   W07
 BYTE   W05
 BYTE   Fn1
 BYTE   W12
 BYTE   N06
 BYTE   W06
 BYTE   N06
 BYTE   W01
 BYTE   W11
 BYTE   N12
 BYTE   W13
 BYTE   W11
// 073   ----------------------------------------
 BYTE   N06  Gn1
 BYTE   W06
 BYTE   N06
 BYTE   W06
 BYTE   Fn1
 BYTE   W01
 BYTE   W05
 BYTE   Gn1
 BYTE   W12
 BYTE   Fn1
 BYTE   W08
 BYTE   W04
 BYTE   Gn1
 BYTE   W12
 BYTE   N06
 BYTE   W06
 BYTE   N06
 BYTE   W02
 BYTE   W10
 BYTE   N12
 BYTE   W12
 BYTE   Gs1
 BYTE   W02
 BYTE   W10
// 074   ----------------------------------------
 BYTE   N06  An1
 BYTE   W06
 BYTE   N06
 BYTE   W06
 BYTE   Gn1
 BYTE   W03
 BYTE   W03
 BYTE   An1
 BYTE   W12
 BYTE   Gn1
 BYTE   W09
 BYTE   W03
 BYTE   An1
 BYTE   W12
 BYTE   N06
 BYTE   W06
 BYTE   N06
 BYTE   W03
 BYTE   W09
 BYTE   N12
 BYTE   W15
 BYTE   W06
 BYTE   W03
 BYTE   FINE

//**************** Track 2 (Midi-Chn.1) ****************//

song2C_002:
// 000   ----------------------------------------
 BYTE   KEYSH   song2C_key+0
 BYTE   VOICE   29
 BYTE   PAN   c_v+0
 BYTE   VOL   53*song2C_mvl/mxv
 BYTE   W96
// 001   ----------------------------------------
 BYTE   W66
 BYTE   N03  Bn1  v088
 BYTE   W03
 BYTE   Cn2  v092
 BYTE   W03
 BYTE   Dn2  v096
 BYTE   W03
 BYTE   En2
 BYTE   W03
 BYTE   Fn2  v100
 BYTE   W03
 BYTE   Gn2
 BYTE   W03
 BYTE   An2  v104
 BYTE   W03
 BYTE   Bn2  v108
 BYTE   W03
 BYTE   Cn3  v112
 BYTE   W06
// 002   ----------------------------------------
Label_1_01386104:
 BYTE   BEND   c_v-21
 BYTE   N18  Cn4  v120
 BYTE   W01
 BYTE   BEND   c_v-17
 BYTE   W01
 BYTE   Ds2
 BYTE   W01
 BYTE   Gn2
 BYTE   W02
 BYTE   Cs3
 BYTE   W01
 BYTE   En3
 BYTE   W12
 BYTE   N18  Bn3
 BYTE   W18
 BYTE   N42  An3
 BYTE   W42
 BYTE   N06  Bn3
 BYTE   W06
 BYTE   Cn4
 BYTE   W06
 BYTE   Dn4
 BYTE   W06
 BYTE   PEND 
// 003   ----------------------------------------
Label_1_01386123:
 BYTE   N18  En4  v120
 BYTE   W18
 BYTE   N42  An3
 BYTE   W42
 BYTE   N12  Bn3
 BYTE   W12
 BYTE   Cn4
 BYTE   W12
 BYTE   Dn4
 BYTE   W12
 BYTE   PEND 
// 004   ----------------------------------------
Label_1_01386132:
 BYTE   N06  Cn4  v120
 BYTE   W06
 BYTE   Bn3
 BYTE   W12
 BYTE   Gn3
 BYTE   W12
 BYTE   N06
 BYTE   W12
 BYTE   N18
 BYTE   W18
 BYTE   N12  Bn3
 BYTE   W12
 BYTE   Cn4
 BYTE   W12
 BYTE   Dn4
 BYTE   W12
 BYTE   PEND 
// 005   ----------------------------------------
Label_1_01386146:
 BYTE   N06  Cn4  v120
 BYTE   W06
 BYTE   Bn3
 BYTE   W12
 BYTE   N30  An3
 BYTE   W30
 BYTE   BEND   c_v-42
 BYTE   N42  En3
 BYTE   W01
 BYTE   BEND   c_v-32
 BYTE   W01
 BYTE   Gs1
 BYTE   W01
 BYTE   MOD 0
 BYTE   Cn0
 BYTE   BEND   c_v-10
 BYTE   W01
 BYTE   Dn3
 BYTE   W01
 BYTE   En3
 BYTE   W19
 BYTE   Dn3
 BYTE   W01
 BYTE   Cn3
 BYTE   W01
 BYTE   As2
 BYTE   W01
 BYTE   Gs2
 BYTE   W01
 BYTE   Cn2
 BYTE   W01
 BYTE   Fs1
 BYTE   W01
 BYTE   Ds1
 BYTE   W01
 BYTE   Fn0
 BYTE   W01
 BYTE   GnM1
 BYTE   W01
 BYTE   AsM2
 BYTE   W01
 BYTE   FsM2
 BYTE   W01
 BYTE   Fn2
 BYTE   W01
 BYTE   En3
 BYTE   N06  Cn3  v088
 BYTE   W12
 BYTE   PEND 
// 006   ----------------------------------------
Label_1_01386180:
 BYTE   MOD 0
 BYTE   CnM2
 BYTE   BEND   c_v-30
 BYTE   N18  Cn4  v120
 BYTE   W01
 BYTE   BEND   c_v-17
 BYTE   W01
 BYTE   Ds2
 BYTE   W01
 BYTE   Fn2
 BYTE   W01
 BYTE   An2
 BYTE   W01
 BYTE   Bn2
 BYTE   W01
 BYTE   Cs3
 BYTE   W01
 BYTE   En3
 BYTE   W11
 BYTE   N18  Bn3
 BYTE   W18
 BYTE   N42  An3
 BYTE   W42
 BYTE   N06  Bn3
 BYTE   W06
 BYTE   Cn4
 BYTE   W06
 BYTE   Dn4
 BYTE   W06
 BYTE   PEND 
// 007   ----------------------------------------
Label_1_013861A5:
 BYTE   N30  En4  v120
 BYTE   W30
 BYTE   N12  Dn4
 BYTE   W12
 BYTE   N06  Cn4
 BYTE   W06
 BYTE   N18  Bn3
 BYTE   W18
 BYTE   N30  An3
 BYTE   W30
 BYTE   PEND 
// 008   ----------------------------------------
Label_1_013861B6:
 BYTE   N12  An3  v120
 BYTE   W12
 BYTE   N06  Bn3
 BYTE   W06
 BYTE   Cn4
 BYTE   W12
 BYTE   Dn4
 BYTE   W12
 BYTE   N18  En4
 BYTE   W18
 BYTE   N06  Dn4
 BYTE   W12
 BYTE   Cn4
 BYTE   W12
 BYTE   Bn3
 BYTE   W12
 BYTE   PEND 
// 009   ----------------------------------------
Label_1_013861CC:
 BYTE   N06  Cn4  v120
 BYTE   W06
 BYTE   Bn3
 BYTE   W12
 BYTE   N78  An3
 BYTE   W30
 BYTE   BEND   c_v-1
 BYTE   W01
 BYTE   Gn2
 BYTE   W01
 BYTE   Ds2
 BYTE   W01
 BYTE   Bn1
 BYTE   W01
 BYTE   Fs1
 BYTE   W01
 BYTE   As0
 BYTE   W01
 BYTE   Fs0
 BYTE   W01
 BYTE   Dn0
 BYTE   W01
 BYTE   AnM1
 BYTE   W01
 BYTE   CsM1
 BYTE   W01
 BYTE   AnM2
 BYTE   W01
 BYTE   FnM2
 BYTE   W13
 BYTE   DnM2
 BYTE   W01
 BYTE   FsM2
 BYTE   W01
 BYTE   BnM2
 BYTE   W01
 BYTE   MOD 0
 BYTE   Cs0
 BYTE   BEND   c_v-46
 BYTE   W01
 BYTE   BnM1
 BYTE   W01
 BYTE   Ds0
 BYTE   W01
 BYTE   Gs0
 BYTE   W01
 BYTE   En1
 BYTE   W01
 BYTE   An1
 BYTE   W01
 BYTE   Cs2
 BYTE   W01
 BYTE   Fs2
 BYTE   W01
 BYTE   Dn3
 BYTE   W01
 BYTE   En3
 BYTE   W12
 BYTE   PEND 
// 010   ----------------------------------------
Label_1_0138620C:
 BYTE   MOD 0
 BYTE   CnM2
 BYTE   BEND   c_v-59
 BYTE   N30  En4  v120
 BYTE   W01
 BYTE   BEND   c_v-49
 BYTE   W01
 BYTE   FnM1
 BYTE   W01
 BYTE   Dn0
 BYTE   W01
 BYTE   En0
 BYTE   W01
 BYTE   Gn0
 BYTE   W01
 BYTE   Cs1
 BYTE   W01
 BYTE   Ds1
 BYTE   W01
 BYTE   Gn1
 BYTE   W01
 BYTE   An1
 BYTE   W01
 BYTE   Bn1
 BYTE   W02
 BYTE   Ds2
 BYTE   W01
 BYTE   Gn2
 BYTE   W02
 BYTE   Bn2
 BYTE   W03
 BYTE   Cs3
 BYTE   W01
 BYTE   Ds3
 BYTE   W01
 BYTE   En3
 BYTE   W10
 BYTE   N12  Dn4
 BYTE   W12
 BYTE   N06  Cn4
 BYTE   W06
 BYTE   N24  Bn3
 BYTE   W24
 BYTE   N08
 BYTE   W08
 BYTE   Cn4
 BYTE   W08
 BYTE   Dn4
 BYTE   W08
 BYTE   PEND 
// 011   ----------------------------------------
Label_1_01386245:
 BYTE   N24  Cn4  v120
 BYTE   W24
 BYTE   Bn3
 BYTE   W24
 BYTE   An3
 BYTE   W24
 BYTE   Gn3
 BYTE   W24
 BYTE   PEND 
// 012   ----------------------------------------
Label_1_01386250:
 BYTE   BEND   c_v-61
 BYTE   N30  En4  v120
 BYTE   W01
 BYTE   BEND   c_v-47
 BYTE   W01
 BYTE   Cs0
 BYTE   W02
 BYTE   Gs0
 BYTE   W01
 BYTE   As0
 BYTE   W01
 BYTE   En1
 BYTE   W01
 BYTE   Fs1
 BYTE   W01
 BYTE   Gs1
 BYTE   W01
 BYTE   Cn2
 BYTE   W01
 BYTE   Dn2
 BYTE   W01
 BYTE   En2
 BYTE   W01
 BYTE   Fs2
 BYTE   W02
 BYTE   As2
 BYTE   W01
 BYTE   Cn3
 BYTE   W01
 BYTE   Dn3
 BYTE   W03
 BYTE   En3
 BYTE   W11
 BYTE   N12  Dn4
 BYTE   W12
 BYTE   N06  Cn4
 BYTE   W06
 BYTE   N12
 BYTE   W12
 BYTE   Bn3
 BYTE   W12
 BYTE   Fn4
 BYTE   W12
 BYTE   En4
 BYTE   W12
 BYTE   PEND 
// 013   ----------------------------------------
Label_1_01386284:
 BYTE   N30  Dn4  v120
 BYTE   W30
 BYTE   N12  Cn4
 BYTE   W12
 BYTE   N03  Bn3
 BYTE   W03
 BYTE   Cn4
 BYTE   W03
 BYTE   N24  Bn3
 BYTE   W24
 BYTE   N12  An3
 BYTE   W12
 BYTE   Gn3
 BYTE   W12
 BYTE   PEND 
// 014   ----------------------------------------
Label_1_01386299:
 BYTE   N24  An3  v120
 BYTE   W24
 BYTE   N06
 BYTE   W06
 BYTE   Bn3
 BYTE   W06
 BYTE   Cn4
 BYTE   W06
 BYTE   N12  Dn4
 BYTE   W12
 BYTE   N06
 BYTE   W06
 BYTE   N12  Cn4
 BYTE   W12
 BYTE   Bn3
 BYTE   W12
 BYTE   An3
 BYTE   W12
 BYTE   PEND 
// 015   ----------------------------------------
 BYTE   PATT
  POIN2 Label_1_01386299
// 016   ----------------------------------------
Label_1_013862B5:
 BYTE   N24  An3  v120
 BYTE   W24
 BYTE   N06
 BYTE   W06
 BYTE   Bn3
 BYTE   W06
 BYTE   Cn4
 BYTE   W06
 BYTE   N12  Gn4
 BYTE   W12
 BYTE   N06
 BYTE   W06
 BYTE   N12  Fn4
 BYTE   W12
 BYTE   En4
 BYTE   W12
 BYTE   Dn4
 BYTE   W12
 BYTE   PEND 
// 017   ----------------------------------------
Label_1_013862CC:
 BYTE   N30  Bn3  v120
 BYTE   W30
 BYTE   N06  Cn4
 BYTE   W06
 BYTE   Dn4
 BYTE   W06
 BYTE   N12  En4
 BYTE   W12
 BYTE   N06  Dn4
 BYTE   W06
 BYTE   Cn4
 BYTE   W06
 BYTE   N12  Bn3
 BYTE   W12
 BYTE   N06  An3
 BYTE   W06
 BYTE   Bn3
 BYTE   W12
 BYTE   PEND 
// 018   ----------------------------------------
Label_1_013862E6:
 BYTE   BEND   c_v-5
 BYTE   N18  Bn3  v120
 BYTE   W01
 BYTE   BEND   c_v-3
 BYTE   W01
 BYTE   Ds3
 BYTE   W01
 BYTE   En3
 BYTE   W15
 BYTE   N54  An3
 BYTE   W54
 BYTE   N06
 BYTE   W06
 BYTE   Bn3
 BYTE   W06
 BYTE   Cn4
 BYTE   W06
 BYTE   Dn4
 BYTE   W06
 BYTE   PEND 
// 019   ----------------------------------------
Label_1_013862FF:
 BYTE   N18  En4  v120
 BYTE   W18
 BYTE   N54  An3
 BYTE   W54
 BYTE   N06
 BYTE   W06
 BYTE   Bn3
 BYTE   W06
 BYTE   Cn4
 BYTE   W06
 BYTE   En4
 BYTE   W06
 BYTE   PEND 
// 020   ----------------------------------------
Label_1_0138630F:
 BYTE   N06  Dn4  v120
 BYTE   W06
 BYTE   Cn4
 BYTE   W12
 BYTE   Bn3
 BYTE   W12
 BYTE   Cn4
 BYTE   W12
 BYTE   Bn3
 BYTE   W12
 BYTE   An3
 BYTE   W12
 BYTE   Gn3
 BYTE   W06
 BYTE   N06
 BYTE   W06
 BYTE   En3
 BYTE   W06
 BYTE   Gn3
 BYTE   W06
 BYTE   Bn3
 BYTE   W06
 BYTE   PEND 
// 021   ----------------------------------------
Label_1_01386328:
 BYTE   N54  An3  v120
 BYTE   W54
 BYTE   N06  En3
 BYTE   W06
 BYTE   Gn3
 BYTE   W06
 BYTE   En3
 BYTE   W06
 BYTE   An3
 BYTE   W06
 BYTE   En3
 BYTE   W06
 BYTE   Bn3
 BYTE   W06
 BYTE   En3
 BYTE   W06
 BYTE   PEND 
// 022   ----------------------------------------
Label_1_0138633C:
 BYTE   BEND   c_v-6
 BYTE   N18  Bn3  v120
 BYTE   W01
 BYTE   BEND   c_v-1
 BYTE   W01
 BYTE   En3
 BYTE   W16
 BYTE   N54  An3
 BYTE   W54
 BYTE   N06
 BYTE   W06
 BYTE   Bn3
 BYTE   W06
 BYTE   Cn4
 BYTE   W06
 BYTE   Dn4
 BYTE   W06
 BYTE   PEND 
// 023   ----------------------------------------
 BYTE   PATT
  POIN2 Label_1_013862FF
// 024   ----------------------------------------
 BYTE   PATT
  POIN2 Label_1_0138630F
// 025   ----------------------------------------
Label_1_0138635D:
 BYTE   N54  An3  v120
 BYTE   W54
 BYTE   N06  En3
 BYTE   W06
 BYTE   Dn3
 BYTE   W06
 BYTE   Cn3
 BYTE   W06
 BYTE   Dn3
 BYTE   W06
 BYTE   Cn3
 BYTE   W06
 BYTE   Bn2
 BYTE   W06
 BYTE   Gn2
 BYTE   W06
 BYTE   PEND 
// 026   ----------------------------------------
Label_1_01386371:
 BYTE   N06  Cn3  v120
 BYTE   W06
 BYTE   N06
 BYTE   W06
 BYTE   Bn2
 BYTE   W06
 BYTE   Cn3
 BYTE   W12
 BYTE   Bn2
 BYTE   W12
 BYTE   Dn3
 BYTE   W12
 BYTE   Cn3
 BYTE   W06
 BYTE   Bn2
 BYTE   W12
 BYTE   N12  Cn3
 BYTE   W24
 BYTE   PEND 
// 027   ----------------------------------------
 BYTE   PATT
  POIN2 Label_1_01386371
// 028   ----------------------------------------
Label_1_0138638C:
 BYTE   N06  Dn3  v120
 BYTE   W06
 BYTE   N06
 BYTE   W06
 BYTE   Cn3
 BYTE   W06
 BYTE   Dn3
 BYTE   W12
 BYTE   Cn3
 BYTE   W12
 BYTE   En3
 BYTE   W12
 BYTE   Dn3
 BYTE   W06
 BYTE   Cn3
 BYTE   W12
 BYTE   N12  Dn3
 BYTE   W24
 BYTE   PEND 
// 029   ----------------------------------------
 BYTE   PATT
  POIN2 Label_1_01386371
// 030   ----------------------------------------
 BYTE   PATT
  POIN2 Label_1_01386371
// 031   ----------------------------------------
 BYTE   PATT
  POIN2 Label_1_01386371
// 032   ----------------------------------------
 BYTE   PATT
  POIN2 Label_1_0138638C
// 033   ----------------------------------------
 BYTE   PATT
  POIN2 Label_1_01386371
// 034   ----------------------------------------
 BYTE   GoTo
  POIN2 Label_1_01386104
// 035   ----------------------------------------
 BYTE   PATT
  POIN2 Label_1_01386104
// 036   ----------------------------------------
 BYTE   PATT
  POIN2 Label_1_01386123
// 037   ----------------------------------------
 BYTE   PATT
  POIN2 Label_1_01386132
// 038   ----------------------------------------
 BYTE   PATT
  POIN2 Label_1_01386146
// 039   ----------------------------------------
 BYTE   PATT
  POIN2 Label_1_01386180
// 040   ----------------------------------------
 BYTE   PATT
  POIN2 Label_1_013861A5
// 041   ----------------------------------------
 BYTE   PATT
  POIN2 Label_1_013861B6
// 042   ----------------------------------------
 BYTE   PATT
  POIN2 Label_1_013861CC
// 043   ----------------------------------------
 BYTE   PATT
  POIN2 Label_1_0138620C
// 044   ----------------------------------------
 BYTE   PATT
  POIN2 Label_1_01386245
// 045   ----------------------------------------
 BYTE   PATT
  POIN2 Label_1_01386250
// 046   ----------------------------------------
 BYTE   PATT
  POIN2 Label_1_01386284
// 047   ----------------------------------------
 BYTE   PATT
  POIN2 Label_1_01386299
// 048   ----------------------------------------
 BYTE   PATT
  POIN2 Label_1_01386299
// 049   ----------------------------------------
 BYTE   PATT
  POIN2 Label_1_013862B5
// 050   ----------------------------------------
 BYTE   PATT
  POIN2 Label_1_013862CC
// 051   ----------------------------------------
 BYTE   PATT
  POIN2 Label_1_013862E6
// 052   ----------------------------------------
 BYTE   PATT
  POIN2 Label_1_013862FF
// 053   ----------------------------------------
 BYTE   PATT
  POIN2 Label_1_0138630F
// 054   ----------------------------------------
 BYTE   PATT
  POIN2 Label_1_01386328
// 055   ----------------------------------------
 BYTE   PATT
  POIN2 Label_1_0138633C
// 056   ----------------------------------------
 BYTE   PATT
  POIN2 Label_1_013862FF
// 057   ----------------------------------------
 BYTE   PATT
  POIN2 Label_1_0138630F
// 058   ----------------------------------------
 BYTE   PATT
  POIN2 Label_1_0138635D
// 059   ----------------------------------------
 BYTE   PATT
  POIN2 Label_1_01386371
// 060   ----------------------------------------
 BYTE   PATT
  POIN2 Label_1_01386371
// 061   ----------------------------------------
 BYTE   PATT
  POIN2 Label_1_0138638C
// 062   ----------------------------------------
 BYTE   PATT
  POIN2 Label_1_01386371
// 063   ----------------------------------------
 BYTE   PATT
  POIN2 Label_1_01386371
// 064   ----------------------------------------
 BYTE   PATT
  POIN2 Label_1_01386371
// 065   ----------------------------------------
 BYTE   PATT
  POIN2 Label_1_0138638C
// 066   ----------------------------------------
 BYTE   PATT
  POIN2 Label_1_01386371
// 067   ----------------------------------------
 BYTE   N06  Cn3  v120
 BYTE   W06
 BYTE   N06
 BYTE   W01
 BYTE   W05
 BYTE   Bn2
 BYTE   W06
 BYTE   Cn3
 BYTE   W12
 BYTE   Bn2
 BYTE   W01
 BYTE   W11
 BYTE   Dn3
 BYTE   W12
 BYTE   Cn3
 BYTE   W01
 BYTE   W05
 BYTE   Bn2
 BYTE   W12
 BYTE   N12  Cn3
 BYTE   W07
 BYTE   W17
// 068   ----------------------------------------
 BYTE   N06
 BYTE   W06
 BYTE   N06
 BYTE   W02
 BYTE   W04
 BYTE   Bn2
 BYTE   W06
 BYTE   Cn3
 BYTE   W12
 BYTE   Bn2
 BYTE   W02
 BYTE   W10
 BYTE   Dn3
 BYTE   W12
 BYTE   Cn3
 BYTE   W02
 BYTE   W04
 BYTE   Bn2
 BYTE   W12
 BYTE   N12  Cn3
 BYTE   W09
 BYTE   W15
// 069   ----------------------------------------
 BYTE   N06  Dn3
 BYTE   W06
 BYTE   N06
 BYTE   W03
 BYTE   W03
 BYTE   Cn3
 BYTE   W06
 BYTE   Dn3
 BYTE   W12
 BYTE   Cn3
 BYTE   W03
 BYTE   W09
 BYTE   En3
 BYTE   W12
 BYTE   Dn3
 BYTE   W03
 BYTE   W03
 BYTE   Cn3
 BYTE   W12
 BYTE   N12  Dn3
 BYTE   W10
 BYTE   W14
// 070   ----------------------------------------
 BYTE   N06  Cn3
 BYTE   W06
 BYTE   N06
 BYTE   W04
 BYTE   W02
 BYTE   Bn2
 BYTE   W06
 BYTE   Cn3
 BYTE   W12
 BYTE   Bn2
 BYTE   W04
 BYTE   W08
 BYTE   Dn3
 BYTE   W12
 BYTE   Cn3
 BYTE   W05
 BYTE   W01
 BYTE   Bn2
 BYTE   W12
 BYTE   N12  Cn3
 BYTE   W11
 BYTE   W13
// 071   ----------------------------------------
 BYTE   N06
 BYTE   W06
 BYTE   N06
 BYTE   W05
 BYTE   W01
 BYTE   Bn2
 BYTE   W06
 BYTE   Cn3
 BYTE   W12
 BYTE   Bn2
 BYTE   W05
 BYTE   W07
 BYTE   Dn3
 BYTE   W12
 BYTE   Cn3
 BYTE   W06
 BYTE   Bn2
 BYTE   W12
 BYTE   N12  Cn3
 BYTE   W12
 BYTE   W12
// 072   ----------------------------------------
 BYTE   N06
 BYTE   W06
 BYTE   N06
 BYTE   W06
 BYTE   Bn2
 BYTE   W06
 BYTE   Cn3
 BYTE   W12
 BYTE   Bn2
 BYTE   W07
 BYTE   W05
 BYTE   Dn3
 BYTE   W12
 BYTE   Cn3
 BYTE   W06
 BYTE   Bn2
 BYTE   W01
 BYTE   W11
 BYTE   N12  Cn3
 BYTE   W13
 BYTE   W11
// 073   ----------------------------------------
 BYTE   N06  Dn3
 BYTE   W06
 BYTE   N06
 BYTE   W06
 BYTE   Cn3
 BYTE   W01
 BYTE   W05
 BYTE   Dn3
 BYTE   W12
 BYTE   Cn3
 BYTE   W08
 BYTE   W04
 BYTE   En3
 BYTE   W12
 BYTE   Dn3
 BYTE   W06
 BYTE   Cn3
 BYTE   W02
 BYTE   W10
 BYTE   N12  Dn3
 BYTE   W14
 BYTE   W10
// 074   ----------------------------------------
 BYTE   N06  Cn3
 BYTE   W06
 BYTE   N06
 BYTE   W06
 BYTE   Bn2
 BYTE   W03
 BYTE   W03
 BYTE   Cn3
 BYTE   W12
 BYTE   Bn2
 BYTE   W09
 BYTE   W03
 BYTE   Dn3
 BYTE   W12
 BYTE   Cn3
 BYTE   W06
 BYTE   Bn2
 BYTE   W03
 BYTE   W09
 BYTE   N12  Cn3
 BYTE   W15
 BYTE   W06
 BYTE   W03
 BYTE   FINE

//**************** Track 3 (Midi-Chn.2) ****************//

song2C_003:
// 000   ----------------------------------------
 BYTE   KEYSH   song2C_key+0
 BYTE   VOICE   4
 BYTE   PAN   c_v-2
 BYTE   VOL   29*song2C_mvl/mxv
 BYTE   TIE  An2  v076
 BYTE   W96
// 001   ----------------------------------------
 BYTE   W66
 BYTE   EOT
 BYTE   N03  Bn2  v052
 BYTE   W03
 BYTE   Cn3  v056
 BYTE   W03
 BYTE   Dn3  v060
 BYTE   W03
 BYTE   En3  v064
 BYTE   W03
 BYTE   Fn3  v068
 BYTE   W03
 BYTE   Gn3  v072
 BYTE   W03
 BYTE   An3  v076
 BYTE   W03
 BYTE   Bn3  v084
 BYTE   W03
 BYTE   Cn4  v088
 BYTE   W06
// 002   ----------------------------------------
Label_2_0138654A:
 BYTE   BEND   c_v-21
 BYTE   N18  Cn4  v112
 BYTE   N18  Cn5
 BYTE   W01
 BYTE   BEND   c_v-17
 BYTE   W01
 BYTE   Ds2
 BYTE   W01
 BYTE   Gn2
 BYTE   W02
 BYTE   Cs3
 BYTE   W01
 BYTE   En3
 BYTE   W12
 BYTE   N18  Bn3
 BYTE   N18  Bn4
 BYTE   W18
 BYTE   N42  An3
 BYTE   N42  An4
 BYTE   W42
 BYTE   N06  Bn3
 BYTE   N06  Bn4
 BYTE   W06
 BYTE   Cn4
 BYTE   N06  Cn5
 BYTE   W06
 BYTE   Dn4
 BYTE   N06  Dn5
 BYTE   W06
 BYTE   PEND 
// 003   ----------------------------------------
Label_2_01386575:
 BYTE   N18  En4  v112
 BYTE   N18  En5
 BYTE   W18
 BYTE   N42  An3
 BYTE   N42  An4
 BYTE   W42
 BYTE   N12  Bn3
 BYTE   N12  Bn4
 BYTE   W12
 BYTE   Cn4
 BYTE   N12  Cn5
 BYTE   W12
 BYTE   Dn4
 BYTE   N12  Dn5
 BYTE   W12
 BYTE   PEND 
// 004   ----------------------------------------
Label_2_0138658E:
 BYTE   N06  Cn4  v112
 BYTE   N06  Cn5
 BYTE   W06
 BYTE   Bn3
 BYTE   N06  Bn4
 BYTE   W12
 BYTE   Gn3
 BYTE   N06  Gn4
 BYTE   W12
 BYTE   Gn3
 BYTE   N06  Gn4
 BYTE   W12
 BYTE   N18  Gn3
 BYTE   N18  Gn4
 BYTE   W18
 BYTE   N12  Bn3
 BYTE   N12  Bn4
 BYTE   W12
 BYTE   Cn4
 BYTE   N12  Cn5
 BYTE   W12
 BYTE   Dn4
 BYTE   N12  Dn5
 BYTE   W12
 BYTE   PEND 
// 005   ----------------------------------------
Label_2_013865B3:
 BYTE   N06  Cn4  v112
 BYTE   N06  Cn5
 BYTE   W06
 BYTE   Bn3
 BYTE   N06  Bn4
 BYTE   W12
 BYTE   N30  An3
 BYTE   N30  An4
 BYTE   W30
 BYTE   BEND   c_v-42
 BYTE   N42  En3
 BYTE   N42  En4
 BYTE   W01
 BYTE   BEND   c_v-32
 BYTE   W01
 BYTE   Gs1
 BYTE   W01
 BYTE   MOD 0
 BYTE   Cn0
 BYTE   BEND   c_v-10
 BYTE   W01
 BYTE   Dn3
 BYTE   W01
 BYTE   En3
 BYTE   W19
 BYTE   Dn3
 BYTE   W01
 BYTE   Cn3
 BYTE   W01
 BYTE   As2
 BYTE   W01
 BYTE   Gs2
 BYTE   W01
 BYTE   Cn2
 BYTE   W01
 BYTE   Fs1
 BYTE   W01
 BYTE   Ds1
 BYTE   W01
 BYTE   Fn0
 BYTE   W01
 BYTE   GnM1
 BYTE   W01
 BYTE   AsM2
 BYTE   W01
 BYTE   FsM2
 BYTE   W01
 BYTE   Fn2
 BYTE   W01
 BYTE   En3
 BYTE   W12
 BYTE   PEND 
// 006   ----------------------------------------
Label_2_013865F2:
 BYTE   MOD 0
 BYTE   CnM2
 BYTE   BEND   c_v-30
 BYTE   N18  Cn4  v112
 BYTE   N18  Cn5
 BYTE   W01
 BYTE   BEND   c_v-17
 BYTE   W01
 BYTE   Ds2
 BYTE   W01
 BYTE   Fn2
 BYTE   W01
 BYTE   An2
 BYTE   W01
 BYTE   Bn2
 BYTE   W01
 BYTE   Cs3
 BYTE   W01
 BYTE   En3
 BYTE   W11
 BYTE   N18  Bn3
 BYTE   N18  Bn4
 BYTE   W18
 BYTE   N42  An3
 BYTE   N42  An4
 BYTE   W42
 BYTE   N06  Bn3
 BYTE   N06  Bn4
 BYTE   W06
 BYTE   Cn4
 BYTE   N06  Cn5
 BYTE   W06
 BYTE   Dn4
 BYTE   N06  Dn5
 BYTE   W06
 BYTE   PEND 
// 007   ----------------------------------------
Label_2_01386623:
 BYTE   N30  En4  v112
 BYTE   N30  En5
 BYTE   W30
 BYTE   N12  Dn4
 BYTE   N12  Dn5
 BYTE   W12
 BYTE   N06  Cn4
 BYTE   N06  Cn5
 BYTE   W06
 BYTE   N18  Bn3
 BYTE   N18  Bn4
 BYTE   W18
 BYTE   N30  An3
 BYTE   N30  An4
 BYTE   W30
 BYTE   PEND 
// 008   ----------------------------------------
Label_2_0138663E:
 BYTE   N12  An3  v112
 BYTE   N12  An4
 BYTE   W12
 BYTE   N06  Bn3
 BYTE   N06  Bn4
 BYTE   W06
 BYTE   Cn4
 BYTE   N06  Cn5
 BYTE   W12
 BYTE   Dn4
 BYTE   N06  Dn5
 BYTE   W12
 BYTE   N18  En4
 BYTE   N18  En5
 BYTE   W18
 BYTE   N06  Dn4
 BYTE   N06  Dn5
 BYTE   W12
 BYTE   Cn4
 BYTE   N06  Cn5
 BYTE   W12
 BYTE   Bn3
 BYTE   N06  Bn4
 BYTE   W12
 BYTE   PEND 
// 009   ----------------------------------------
Label_2_01386664:
 BYTE   N06  Cn4  v112
 BYTE   N06  Cn5
 BYTE   W06
 BYTE   Bn3
 BYTE   N06  Bn4
 BYTE   W12
 BYTE   N78  An3
 BYTE   N78  An4
 BYTE   W30
 BYTE   BEND   c_v-1
 BYTE   W01
 BYTE   Gn2
 BYTE   W01
 BYTE   Ds2
 BYTE   W01
 BYTE   Bn1
 BYTE   W01
 BYTE   Fs1
 BYTE   W01
 BYTE   As0
 BYTE   W01
 BYTE   Fs0
 BYTE   W01
 BYTE   Dn0
 BYTE   W01
 BYTE   AnM1
 BYTE   W01
 BYTE   CsM1
 BYTE   W01
 BYTE   AnM2
 BYTE   W01
 BYTE   FnM2
 BYTE   W13
 BYTE   DnM2
 BYTE   W01
 BYTE   FsM2
 BYTE   W01
 BYTE   BnM2
 BYTE   W01
 BYTE   MOD 0
 BYTE   Cs0
 BYTE   BEND   c_v-46
 BYTE   W01
 BYTE   BnM1
 BYTE   W01
 BYTE   Ds0
 BYTE   W01
 BYTE   Gs0
 BYTE   W01
 BYTE   En1
 BYTE   W01
 BYTE   An1
 BYTE   W01
 BYTE   Cs2
 BYTE   W01
 BYTE   Fs2
 BYTE   W01
 BYTE   Dn3
 BYTE   W01
 BYTE   En3
 BYTE   W12
 BYTE   PEND 
// 010   ----------------------------------------
Label_2_013866AA:
 BYTE   MOD 0
 BYTE   CnM2
 BYTE   BEND   c_v-59
 BYTE   N30  En4  v112
 BYTE   N30  En5
 BYTE   W01
 BYTE   BEND   c_v-49
 BYTE   W01
 BYTE   FnM1
 BYTE   W01
 BYTE   Dn0
 BYTE   W01
 BYTE   En0
 BYTE   W01
 BYTE   Gn0
 BYTE   W01
 BYTE   Cs1
 BYTE   W01
 BYTE   Ds1
 BYTE   W01
 BYTE   Gn1
 BYTE   W01
 BYTE   An1
 BYTE   W01
 BYTE   Bn1
 BYTE   W02
 BYTE   Ds2
 BYTE   W01
 BYTE   Gn2
 BYTE   W02
 BYTE   Bn2
 BYTE   W03
 BYTE   Cs3
 BYTE   W01
 BYTE   Ds3
 BYTE   W01
 BYTE   En3
 BYTE   W10
 BYTE   N12  Dn4
 BYTE   N12  Dn5
 BYTE   W12
 BYTE   N06  Cn4
 BYTE   N06  Cn5
 BYTE   W06
 BYTE   N24  Bn3
 BYTE   N24  Bn4
 BYTE   W24
 BYTE   N08  Bn3
 BYTE   N08  Bn4
 BYTE   W08
 BYTE   Cn4
 BYTE   N08  Cn5
 BYTE   W08
 BYTE   Dn4
 BYTE   N08  Dn5
 BYTE   W08
 BYTE   PEND 
// 011   ----------------------------------------
Label_2_013866F2:
 BYTE   N24  Cn4  v112
 BYTE   N24  Cn5
 BYTE   W24
 BYTE   Bn3
 BYTE   N24  Bn4
 BYTE   W24
 BYTE   An3
 BYTE   N24  An4
 BYTE   W24
 BYTE   Gn3
 BYTE   N24  Gn4
 BYTE   W24
 BYTE   PEND 
// 012   ----------------------------------------
Label_2_01386705:
 BYTE   BEND   c_v-61
 BYTE   N30  En4  v112
 BYTE   N30  En5
 BYTE   W01
 BYTE   BEND   c_v-47
 BYTE   W01
 BYTE   Cs0
 BYTE   W02
 BYTE   Gs0
 BYTE   W01
 BYTE   As0
 BYTE   W01
 BYTE   En1
 BYTE   W01
 BYTE   Fs1
 BYTE   W01
 BYTE   Gs1
 BYTE   W01
 BYTE   Cn2
 BYTE   W01
 BYTE   Dn2
 BYTE   W01
 BYTE   En2
 BYTE   W01
 BYTE   Fs2
 BYTE   W02
 BYTE   As2
 BYTE   W01
 BYTE   Cn3
 BYTE   W01
 BYTE   Dn3
 BYTE   W03
 BYTE   En3
 BYTE   W11
 BYTE   N12  Dn4
 BYTE   N12  Dn5
 BYTE   W12
 BYTE   N06  Cn4
 BYTE   N06  Cn5
 BYTE   W06
 BYTE   N12  Cn4
 BYTE   N12  Cn5
 BYTE   W12
 BYTE   Bn3
 BYTE   N12  Bn4
 BYTE   W12
 BYTE   Fn4
 BYTE   N12  Fn5
 BYTE   W12
 BYTE   En4
 BYTE   N12  En5
 BYTE   W12
 BYTE   PEND 
// 013   ----------------------------------------
Label_2_01386748:
 BYTE   N30  Dn4  v112
 BYTE   N30  Dn5
 BYTE   W30
 BYTE   N12  Cn4
 BYTE   N12  Cn5
 BYTE   W12
 BYTE   N03  Bn3
 BYTE   N03  Bn4
 BYTE   W03
 BYTE   Cn4
 BYTE   N03  Cn5
 BYTE   W03
 BYTE   N24  Bn3
 BYTE   N24  Bn4
 BYTE   W24
 BYTE   N12  An3
 BYTE   N12  An4
 BYTE   W12
 BYTE   Gn3
 BYTE   N12  Gn4
 BYTE   W12
 BYTE   PEND 
// 014   ----------------------------------------
Label_2_0138676B:
 BYTE   N24  An3  v112
 BYTE   N24  An4
 BYTE   W24
 BYTE   N06  An3
 BYTE   N06  An4
 BYTE   W06
 BYTE   Bn3
 BYTE   N06  Bn4
 BYTE   W06
 BYTE   Cn4
 BYTE   N06  Cn5
 BYTE   W06
 BYTE   N12  Dn4
 BYTE   N12  Dn5
 BYTE   W12
 BYTE   N06  Dn4
 BYTE   N06  Dn5
 BYTE   W06
 BYTE   N12  Cn4
 BYTE   N12  Cn5
 BYTE   W12
 BYTE   Bn3
 BYTE   N12  Bn4
 BYTE   W12
 BYTE   An3
 BYTE   N12  An4
 BYTE   W12
 BYTE   PEND 
// 015   ----------------------------------------
 BYTE   PATT
  POIN2 Label_2_0138676B
// 016   ----------------------------------------
Label_2_0138679B:
 BYTE   N24  An3  v112
 BYTE   N24  An4
 BYTE   W24
 BYTE   N06  An3
 BYTE   N06  An4
 BYTE   W06
 BYTE   Bn3
 BYTE   N06  Bn4
 BYTE   W06
 BYTE   Cn4
 BYTE   N06  Cn5
 BYTE   W06
 BYTE   N12  Gn4
 BYTE   N12  Gn5
 BYTE   W12
 BYTE   N06  Gn4
 BYTE   N06  Gn5
 BYTE   W06
 BYTE   N12  Fn4
 BYTE   N12  Fn5
 BYTE   W12
 BYTE   En4
 BYTE   N12  En5
 BYTE   W12
 BYTE   Dn4
 BYTE   N12  Dn5
 BYTE   W12
 BYTE   PEND 
// 017   ----------------------------------------
Label_2_013867C6:
 BYTE   N30  Bn3  v112
 BYTE   N30  Bn4
 BYTE   W30
 BYTE   N06  Cn4
 BYTE   N06  Cn5
 BYTE   W06
 BYTE   Dn4
 BYTE   N06  Dn5
 BYTE   W06
 BYTE   N12  En4
 BYTE   N12  En5
 BYTE   W12
 BYTE   N06  Dn4
 BYTE   N06  Dn5
 BYTE   W06
 BYTE   Cn4
 BYTE   N06  Cn5
 BYTE   W06
 BYTE   N12  Bn3
 BYTE   N12  Bn4
 BYTE   W12
 BYTE   N06  An3
 BYTE   N06  An4
 BYTE   W06
 BYTE   Bn3
 BYTE   N06  Bn4
 BYTE   W12
 BYTE   PEND 
// 018   ----------------------------------------
Label_2_013867F2:
 BYTE   BEND   c_v-5
 BYTE   N18  Bn3  v112
 BYTE   N18  Bn4
 BYTE   W01
 BYTE   BEND   c_v-3
 BYTE   W01
 BYTE   Ds3
 BYTE   W01
 BYTE   En3
 BYTE   W15
 BYTE   N54  An3
 BYTE   N54  An4
 BYTE   W54
 BYTE   N06  An3
 BYTE   N06  An4
 BYTE   W06
 BYTE   Bn3
 BYTE   N06  Bn4
 BYTE   W06
 BYTE   Cn4
 BYTE   N06  Cn5
 BYTE   W06
 BYTE   Dn4
 BYTE   N06  Dn5
 BYTE   W06
 BYTE   PEND 
// 019   ----------------------------------------
Label_2_01386818:
 BYTE   N18  En4  v112
 BYTE   N18  En5
 BYTE   W18
 BYTE   N54  An3
 BYTE   N54  An4
 BYTE   W54
 BYTE   N06  An3
 BYTE   N06  An4
 BYTE   W06
 BYTE   Bn3
 BYTE   N06  Bn4
 BYTE   W06
 BYTE   Cn4
 BYTE   N06  Cn5
 BYTE   W06
 BYTE   En4
 BYTE   N06  En5
 BYTE   W06
 BYTE   PEND 
// 020   ----------------------------------------
Label_2_01386835:
 BYTE   N06  Dn4  v112
 BYTE   N06  Dn5
 BYTE   W06
 BYTE   Cn4
 BYTE   N06  Cn5
 BYTE   W12
 BYTE   Bn3
 BYTE   N06  Bn4
 BYTE   W12
 BYTE   Cn4
 BYTE   N06  Cn5
 BYTE   W12
 BYTE   Bn3
 BYTE   N06  Bn4
 BYTE   W12
 BYTE   An3
 BYTE   N06  An4
 BYTE   W12
 BYTE   Gn3
 BYTE   N06  Gn4
 BYTE   W06
 BYTE   Gn3
 BYTE   N06  Gn4
 BYTE   W06
 BYTE   En3
 BYTE   N06  En4
 BYTE   W06
 BYTE   Gn3
 BYTE   N06  Gn4
 BYTE   W06
 BYTE   Bn3
 BYTE   N06  Bn4
 BYTE   W06
 BYTE   PEND 
// 021   ----------------------------------------
Label_2_01386864:
 BYTE   N54  An3  v112
 BYTE   N54  An4
 BYTE   W54
 BYTE   N06  En3
 BYTE   N06  En4
 BYTE   W06
 BYTE   Gn3
 BYTE   N06  Gn4
 BYTE   W06
 BYTE   En3
 BYTE   N06  En4
 BYTE   W06
 BYTE   An3
 BYTE   N06  An4
 BYTE   W06
 BYTE   En3
 BYTE   N06  En4
 BYTE   W06
 BYTE   Bn3
 BYTE   N06  Bn4
 BYTE   W06
 BYTE   En3
 BYTE   N06  En4
 BYTE   W06
 BYTE   PEND 
// 022   ----------------------------------------
Label_2_01386888:
 BYTE   BEND   c_v-6
 BYTE   N18  Bn3  v112
 BYTE   N18  Bn4
 BYTE   W01
 BYTE   BEND   c_v-1
 BYTE   W01
 BYTE   En3
 BYTE   W16
 BYTE   N54  An3
 BYTE   N54  An4
 BYTE   W54
 BYTE   N06  An3
 BYTE   N06  An4
 BYTE   W06
 BYTE   Bn3
 BYTE   N06  Bn4
 BYTE   W06
 BYTE   Cn4
 BYTE   N06  Cn5
 BYTE   W06
 BYTE   Dn4
 BYTE   N06  Dn5
 BYTE   W06
 BYTE   PEND 
// 023   ----------------------------------------
 BYTE   PATT
  POIN2 Label_2_01386818
// 024   ----------------------------------------
 BYTE   PATT
  POIN2 Label_2_01386835
// 025   ----------------------------------------
Label_2_013868B6:
 BYTE   N54  An3  v112
 BYTE   N54  An4
 BYTE   W54
 BYTE   N06  En3
 BYTE   N06  En4
 BYTE   W06
 BYTE   Dn3
 BYTE   N06  Dn4
 BYTE   W06
 BYTE   Cn3
 BYTE   N06  Cn4
 BYTE   W06
 BYTE   Dn3
 BYTE   N06  Dn4
 BYTE   W06
 BYTE   Cn3
 BYTE   N06  Cn4
 BYTE   W06
 BYTE   Bn2
 BYTE   N06  Bn3
 BYTE   W06
 BYTE   Gn2
 BYTE   N06  Gn3
 BYTE   W06
 BYTE   PEND 
// 026   ----------------------------------------
Label_2_013868DA:
 BYTE   N06  Cn3  v112
 BYTE   N06  Cn4
 BYTE   W06
 BYTE   Cn3
 BYTE   N06  Cn4
 BYTE   W06
 BYTE   Bn2
 BYTE   N06  Bn3
 BYTE   W06
 BYTE   Cn3
 BYTE   N06  Cn4
 BYTE   W12
 BYTE   Bn2
 BYTE   N06  Bn3
 BYTE   W12
 BYTE   Dn3
 BYTE   N06  Dn4
 BYTE   W12
 BYTE   Cn3
 BYTE   N06  Cn4
 BYTE   W06
 BYTE   Bn2
 BYTE   N06  Bn3
 BYTE   W12
 BYTE   N12  Cn3
 BYTE   N12  Cn4
 BYTE   W24
 BYTE   PEND 
// 027   ----------------------------------------
 BYTE   PATT
  POIN2 Label_2_013868DA
// 028   ----------------------------------------
Label_2_01386907:
 BYTE   N06  Dn3  v112
 BYTE   N06  Dn4
 BYTE   W06
 BYTE   Dn3
 BYTE   N06  Dn4
 BYTE   W06
 BYTE   Cn3
 BYTE   N06  Cn4
 BYTE   W06
 BYTE   Dn3
 BYTE   N06  Dn4
 BYTE   W12
 BYTE   Cn3
 BYTE   N06  Cn4
 BYTE   W12
 BYTE   En3
 BYTE   N06  En4
 BYTE   W12
 BYTE   Dn3
 BYTE   N06  Dn4
 BYTE   W06
 BYTE   Cn3
 BYTE   N06  Cn4
 BYTE   W12
 BYTE   N12  Dn3
 BYTE   N12  Dn4
 BYTE   W24
 BYTE   PEND 
// 029   ----------------------------------------
 BYTE   PATT
  POIN2 Label_2_013868DA
// 030   ----------------------------------------
 BYTE   PATT
  POIN2 Label_2_013868DA
// 031   ----------------------------------------
 BYTE   PATT
  POIN2 Label_2_013868DA
// 032   ----------------------------------------
 BYTE   PATT
  POIN2 Label_2_01386907
// 033   ----------------------------------------
 BYTE   PATT
  POIN2 Label_2_013868DA
// 034   ----------------------------------------
 BYTE   GoTo
  POIN2 Label_2_0138654A
// 035   ----------------------------------------
 BYTE   PATT
  POIN2 Label_2_0138654A
// 036   ----------------------------------------
 BYTE   PATT
  POIN2 Label_2_01386575
// 037   ----------------------------------------
 BYTE   PATT
  POIN2 Label_2_0138658E
// 038   ----------------------------------------
 BYTE   PATT
  POIN2 Label_2_013865B3
// 039   ----------------------------------------
 BYTE   PATT
  POIN2 Label_2_013865F2
// 040   ----------------------------------------
 BYTE   PATT
  POIN2 Label_2_01386623
// 041   ----------------------------------------
 BYTE   PATT
  POIN2 Label_2_0138663E
// 042   ----------------------------------------
 BYTE   PATT
  POIN2 Label_2_01386664
// 043   ----------------------------------------
 BYTE   PATT
  POIN2 Label_2_013866AA
// 044   ----------------------------------------
 BYTE   PATT
  POIN2 Label_2_013866F2
// 045   ----------------------------------------
 BYTE   PATT
  POIN2 Label_2_01386705
// 046   ----------------------------------------
 BYTE   PATT
  POIN2 Label_2_01386748
// 047   ----------------------------------------
 BYTE   PATT
  POIN2 Label_2_0138676B
// 048   ----------------------------------------
 BYTE   PATT
  POIN2 Label_2_0138676B
// 049   ----------------------------------------
 BYTE   PATT
  POIN2 Label_2_0138679B
// 050   ----------------------------------------
 BYTE   PATT
  POIN2 Label_2_013867C6
// 051   ----------------------------------------
 BYTE   PATT
  POIN2 Label_2_013867F2
// 052   ----------------------------------------
 BYTE   PATT
  POIN2 Label_2_01386818
// 053   ----------------------------------------
 BYTE   PATT
  POIN2 Label_2_01386835
// 054   ----------------------------------------
 BYTE   PATT
  POIN2 Label_2_01386864
// 055   ----------------------------------------
 BYTE   PATT
  POIN2 Label_2_01386888
// 056   ----------------------------------------
 BYTE   PATT
  POIN2 Label_2_01386818
// 057   ----------------------------------------
 BYTE   PATT
  POIN2 Label_2_01386835
// 058   ----------------------------------------
 BYTE   PATT
  POIN2 Label_2_013868B6
// 059   ----------------------------------------
 BYTE   PATT
  POIN2 Label_2_013868DA
// 060   ----------------------------------------
 BYTE   PATT
  POIN2 Label_2_013868DA
// 061   ----------------------------------------
 BYTE   PATT
  POIN2 Label_2_01386907
// 062   ----------------------------------------
 BYTE   PATT
  POIN2 Label_2_013868DA
// 063   ----------------------------------------
 BYTE   PATT
  POIN2 Label_2_013868DA
// 064   ----------------------------------------
 BYTE   PATT
  POIN2 Label_2_013868DA
// 065   ----------------------------------------
 BYTE   PATT
  POIN2 Label_2_01386907
// 066   ----------------------------------------
 BYTE   PATT
  POIN2 Label_2_013868DA
// 067   ----------------------------------------
 BYTE   N06  Cn3  v112
 BYTE   N06  Cn4
 BYTE   W06
 BYTE   Cn3
 BYTE   N06  Cn4
 BYTE   W01
 BYTE   W05
 BYTE   Bn2
 BYTE   N06  Bn3
 BYTE   W06
 BYTE   Cn3
 BYTE   N06  Cn4
 BYTE   W12
 BYTE   Bn2
 BYTE   N06  Bn3
 BYTE   W01
 BYTE   W11
 BYTE   Dn3
 BYTE   N06  Dn4
 BYTE   W12
 BYTE   Cn3
 BYTE   N06  Cn4
 BYTE   W01
 BYTE   W05
 BYTE   Bn2
 BYTE   N06  Bn3
 BYTE   W12
 BYTE   N12  Cn3
 BYTE   N12  Cn4
 BYTE   W07
 BYTE   W17
// 068   ----------------------------------------
 BYTE   N06  Cn3
 BYTE   N06  Cn4
 BYTE   W06
 BYTE   Cn3
 BYTE   N06  Cn4
 BYTE   W02
 BYTE   W04
 BYTE   Bn2
 BYTE   N06  Bn3
 BYTE   W06
 BYTE   Cn3
 BYTE   N06  Cn4
 BYTE   W12
 BYTE   Bn2
 BYTE   N06  Bn3
 BYTE   W02
 BYTE   W10
 BYTE   Dn3
 BYTE   N06  Dn4
 BYTE   W12
 BYTE   Cn3
 BYTE   N06  Cn4
 BYTE   W02
 BYTE   W04
 BYTE   Bn2
 BYTE   N06  Bn3
 BYTE   W12
 BYTE   N12  Cn3
 BYTE   N12  Cn4
 BYTE   W09
 BYTE   W15
// 069   ----------------------------------------
 BYTE   N06  Dn3
 BYTE   N06  Dn4
 BYTE   W06
 BYTE   Dn3
 BYTE   N06  Dn4
 BYTE   W03
 BYTE   W03
 BYTE   Cn3
 BYTE   N06  Cn4
 BYTE   W06
 BYTE   Dn3
 BYTE   N06  Dn4
 BYTE   W12
 BYTE   Cn3
 BYTE   N06  Cn4
 BYTE   W03
 BYTE   W09
 BYTE   En3
 BYTE   N06  En4
 BYTE   W12
 BYTE   Dn3
 BYTE   N06  Dn4
 BYTE   W03
 BYTE   W03
 BYTE   Cn3
 BYTE   N06  Cn4
 BYTE   W12
 BYTE   N12  Dn3
 BYTE   N12  Dn4
 BYTE   W10
 BYTE   W14
// 070   ----------------------------------------
 BYTE   N06  Cn3
 BYTE   N06  Cn4
 BYTE   W06
 BYTE   Cn3
 BYTE   N06  Cn4
 BYTE   W04
 BYTE   W02
 BYTE   Bn2
 BYTE   N06  Bn3
 BYTE   W06
 BYTE   Cn3
 BYTE   N06  Cn4
 BYTE   W12
 BYTE   Bn2
 BYTE   N06  Bn3
 BYTE   W04
 BYTE   W08
 BYTE   Dn3
 BYTE   N06  Dn4
 BYTE   W12
 BYTE   Cn3
 BYTE   N06  Cn4
 BYTE   W05
 BYTE   W01
 BYTE   Bn2
 BYTE   N06  Bn3
 BYTE   W12
 BYTE   N12  Cn3
 BYTE   N12  Cn4
 BYTE   W11
 BYTE   W13
// 071   ----------------------------------------
 BYTE   N06  Cn3
 BYTE   N06  Cn4
 BYTE   W06
 BYTE   Cn3
 BYTE   N06  Cn4
 BYTE   W05
 BYTE   W01
 BYTE   Bn2
 BYTE   N06  Bn3
 BYTE   W06
 BYTE   Cn3
 BYTE   N06  Cn4
 BYTE   W12
 BYTE   Bn2
 BYTE   N06  Bn3
 BYTE   W05
 BYTE   W07
 BYTE   Dn3
 BYTE   N06  Dn4
 BYTE   W12
 BYTE   Cn3
 BYTE   N06  Cn4
 BYTE   W06
 BYTE   Bn2
 BYTE   N06  Bn3
 BYTE   W12
 BYTE   N12  Cn3
 BYTE   N12  Cn4
 BYTE   W12
 BYTE   W12
// 072   ----------------------------------------
 BYTE   N06  Cn3
 BYTE   N06  Cn4
 BYTE   W06
 BYTE   Cn3
 BYTE   N06  Cn4
 BYTE   W06
 BYTE   Bn2
 BYTE   N06  Bn3
 BYTE   W06
 BYTE   Cn3
 BYTE   N06  Cn4
 BYTE   W12
 BYTE   Bn2
 BYTE   N06  Bn3
 BYTE   W07
 BYTE   W05
 BYTE   Dn3
 BYTE   N06  Dn4
 BYTE   W12
 BYTE   Cn3
 BYTE   N06  Cn4
 BYTE   W06
 BYTE   Bn2
 BYTE   N06  Bn3
 BYTE   W01
 BYTE   W11
 BYTE   N12  Cn3
 BYTE   N12  Cn4
 BYTE   W13
 BYTE   W11
// 073   ----------------------------------------
 BYTE   N06  Dn3
 BYTE   N06  Dn4
 BYTE   W06
 BYTE   Dn3
 BYTE   N06  Dn4
 BYTE   W06
 BYTE   Cn3
 BYTE   N06  Cn4
 BYTE   W01
 BYTE   W05
 BYTE   Dn3
 BYTE   N06  Dn4
 BYTE   W12
 BYTE   Cn3
 BYTE   N06  Cn4
 BYTE   W08
 BYTE   W04
 BYTE   En3
 BYTE   N06  En4
 BYTE   W12
 BYTE   Dn3
 BYTE   N06  Dn4
 BYTE   W06
 BYTE   Cn3
 BYTE   N06  Cn4
 BYTE   W02
 BYTE   W10
 BYTE   N12  Dn3
 BYTE   N12  Dn4
 BYTE   W14
 BYTE   W10
// 074   ----------------------------------------
 BYTE   N06  Cn3
 BYTE   N06  Cn4
 BYTE   W06
 BYTE   Cn3
 BYTE   N06  Cn4
 BYTE   W06
 BYTE   Bn2
 BYTE   N06  Bn3
 BYTE   W03
 BYTE   W03
 BYTE   Cn3
 BYTE   N06  Cn4
 BYTE   W12
 BYTE   Bn2
 BYTE   N06  Bn3
 BYTE   W09
 BYTE   W03
 BYTE   Dn3
 BYTE   N06  Dn4
 BYTE   W12
 BYTE   Cn3
 BYTE   N06  Cn4
 BYTE   W06
 BYTE   Bn2
 BYTE   N06  Bn3
 BYTE   W03
 BYTE   W09
 BYTE   N12  Cn3
 BYTE   N12  Cn4
 BYTE   W15
 BYTE   W06
 BYTE   W03
 BYTE   FINE

//**************** Track 4 (Midi-Chn.3) ****************//

song2C_004:
// 000   ----------------------------------------
 BYTE   KEYSH   song2C_key+0
 BYTE   VOICE   30
 BYTE   PAN   c_v-44
 BYTE   VOL   35*song2C_mvl/mxv
 BYTE   N06  En3  v088
 BYTE   W06
 BYTE   An2
 BYTE   W06
 BYTE   Cn3
 BYTE   W06
 BYTE   An2
 BYTE   W06
 BYTE   Dn3
 BYTE   W06
 BYTE   An2
 BYTE   W06
 BYTE   Cn3  v092
 BYTE   W06
 BYTE   Gn2
 BYTE   W06
 BYTE   En3
 BYTE   W06
 BYTE   An2
 BYTE   W06
 BYTE   Cn3
 BYTE   W06
 BYTE   An2
 BYTE   W06
 BYTE   Dn3
 BYTE   W06
 BYTE   An2
 BYTE   W06
 BYTE   Cn3  v096
 BYTE   W06
 BYTE   Gn2
 BYTE   W06
// 001   ----------------------------------------
 BYTE   En3
 BYTE   W06
 BYTE   An2
 BYTE   W06
 BYTE   Cn3
 BYTE   W06
 BYTE   An2
 BYTE   W06
 BYTE   Dn3
 BYTE   W06
 BYTE   An2
 BYTE   W06
 BYTE   Cn3  v100
 BYTE   W06
 BYTE   Gn2
 BYTE   W06
 BYTE   En3
 BYTE   W06
 BYTE   An2
 BYTE   W06
 BYTE   Cn3
 BYTE   W06
 BYTE   An2
 BYTE   W06
 BYTE   Dn3
 BYTE   W06
 BYTE   An2
 BYTE   W06
 BYTE   Cn3  v104
 BYTE   W06
 BYTE   Gn2
 BYTE   W06
// 002   ----------------------------------------
Label_3_01386B8E:
 BYTE   N06  Cn3  v108
 BYTE   W06
 BYTE   An2
 BYTE   W06
 BYTE   Bn2
 BYTE   W06
 BYTE   Cn3
 BYTE   W06
 BYTE   Bn2
 BYTE   W06
 BYTE   An2
 BYTE   W06
 BYTE   En2
 BYTE   W06
 BYTE   Cn3
 BYTE   W06
 BYTE   En2
 BYTE   W06
 BYTE   Bn2
 BYTE   W06
 BYTE   En2
 BYTE   W06
 BYTE   An2
 BYTE   W06
 BYTE   En2
 BYTE   W06
 BYTE   Bn2
 BYTE   W06
 BYTE   En2
 BYTE   W06
 BYTE   Cn3
 BYTE   W06
 BYTE   PEND 
// 003   ----------------------------------------
Label_3_01386BB1:
 BYTE   N06  En2  v108
 BYTE   W06
 BYTE   An2
 BYTE   W06
 BYTE   En2
 BYTE   W06
 BYTE   Bn2
 BYTE   W06
 BYTE   En2
 BYTE   W06
 BYTE   Cn3
 BYTE   W06
 BYTE   En2
 BYTE   W06
 BYTE   Dn3
 BYTE   W06
 BYTE   En2
 BYTE   W06
 BYTE   Cn3
 BYTE   W06
 BYTE   En2
 BYTE   W06
 BYTE   Bn2
 BYTE   W06
 BYTE   En2
 BYTE   W06
 BYTE   An2
 BYTE   W06
 BYTE   En2
 BYTE   W06
 BYTE   Bn2
 BYTE   W06
 BYTE   PEND 
// 004   ----------------------------------------
Label_3_01386BD4:
 BYTE   N06  Gn2  v108
 BYTE   W06
 BYTE   Bn2
 BYTE   W06
 BYTE   Gn2
 BYTE   W06
 BYTE   Cn3
 BYTE   W06
 BYTE   Gn2
 BYTE   W06
 BYTE   Dn3
 BYTE   W06
 BYTE   Gn2
 BYTE   W06
 BYTE   En3
 BYTE   W06
 BYTE   Gn2
 BYTE   W06
 BYTE   Dn3
 BYTE   W06
 BYTE   Gn2
 BYTE   W06
 BYTE   Cn3
 BYTE   W06
 BYTE   Gn2
 BYTE   W06
 BYTE   Bn2
 BYTE   W06
 BYTE   Gn2
 BYTE   W06
 BYTE   Bn2
 BYTE   W06
 BYTE   PEND 
// 005   ----------------------------------------
 BYTE   PATT
  POIN2 Label_3_01386BB1
// 006   ----------------------------------------
 BYTE   PATT
  POIN2 Label_3_01386B8E
// 007   ----------------------------------------
 BYTE   PATT
  POIN2 Label_3_01386BB1
// 008   ----------------------------------------
 BYTE   PATT
  POIN2 Label_3_01386BD4
// 009   ----------------------------------------
 BYTE   PATT
  POIN2 Label_3_01386BB1
// 010   ----------------------------------------
Label_3_01386C10:
 BYTE   N06  En3  v108
 BYTE   W06
 BYTE   An2
 BYTE   W06
 BYTE   En2
 BYTE   W06
 BYTE   En3
 BYTE   W06
 BYTE   Cn3
 BYTE   W06
 BYTE   An2
 BYTE   W06
 BYTE   En3
 BYTE   W06
 BYTE   An2
 BYTE   W06
 BYTE   En2
 BYTE   W06
 BYTE   En3
 BYTE   W06
 BYTE   Cn3
 BYTE   W06
 BYTE   An2
 BYTE   W06
 BYTE   En3
 BYTE   W06
 BYTE   An2
 BYTE   W06
 BYTE   En2
 BYTE   W06
 BYTE   En3
 BYTE   W06
 BYTE   PEND 
// 011   ----------------------------------------
Label_3_01386C33:
 BYTE   N06  Dn3  v108
 BYTE   W06
 BYTE   Bn2
 BYTE   W06
 BYTE   Gn2
 BYTE   W06
 BYTE   Fn3
 BYTE   W06
 BYTE   Dn3
 BYTE   W06
 BYTE   Bn2
 BYTE   W06
 BYTE   Dn3
 BYTE   W06
 BYTE   Bn2
 BYTE   W06
 BYTE   Gn2
 BYTE   W06
 BYTE   Fn3
 BYTE   W06
 BYTE   Dn3
 BYTE   W06
 BYTE   Bn2
 BYTE   W06
 BYTE   Dn3
 BYTE   W06
 BYTE   Bn2
 BYTE   W06
 BYTE   Gn2
 BYTE   W06
 BYTE   Dn3
 BYTE   W06
 BYTE   PEND 
// 012   ----------------------------------------
 BYTE   PATT
  POIN2 Label_3_01386C10
// 013   ----------------------------------------
 BYTE   PATT
  POIN2 Label_3_01386C33
// 014   ----------------------------------------
 BYTE   PATT
  POIN2 Label_3_01386C10
// 015   ----------------------------------------
 BYTE   PATT
  POIN2 Label_3_01386C33
// 016   ----------------------------------------
 BYTE   PATT
  POIN2 Label_3_01386C10
// 017   ----------------------------------------
Label_3_01386C6F:
 BYTE   N06  Dn3  v108
 BYTE   W06
 BYTE   Bn2
 BYTE   W06
 BYTE   Gs2
 BYTE   W06
 BYTE   En2
 BYTE   W06
 BYTE   Gs2
 BYTE   W06
 BYTE   Bn2
 BYTE   W06
 BYTE   Dn3
 BYTE   W06
 BYTE   Bn2
 BYTE   W06
 BYTE   Gs2
 BYTE   W06
 BYTE   Bn2
 BYTE   W06
 BYTE   Dn3
 BYTE   W06
 BYTE   Bn2
 BYTE   W06
 BYTE   Gs3
 BYTE   W06
 BYTE   En3
 BYTE   W06
 BYTE   Bn3
 BYTE   W06
 BYTE   Gs3
 BYTE   W06
 BYTE   PEND 
// 018   ----------------------------------------
Label_3_01386C92:
 BYTE   N06  En3  v108
 BYTE   W06
 BYTE   Cn3
 BYTE   W06
 BYTE   An2
 BYTE   W06
 BYTE   En3
 BYTE   W06
 BYTE   Cn3
 BYTE   W06
 BYTE   An2
 BYTE   W06
 BYTE   En3
 BYTE   W06
 BYTE   Cn3
 BYTE   W06
 BYTE   An2
 BYTE   W06
 BYTE   En3
 BYTE   W06
 BYTE   Cn3
 BYTE   W06
 BYTE   An2
 BYTE   W06
 BYTE   En3
 BYTE   W06
 BYTE   Cn3
 BYTE   W06
 BYTE   An2
 BYTE   W06
 BYTE   En3
 BYTE   W06
 BYTE   PEND 
// 019   ----------------------------------------
 BYTE   PATT
  POIN2 Label_3_01386C92
// 020   ----------------------------------------
Label_3_01386CBA:
 BYTE   N06  En3  v108
 BYTE   W06
 BYTE   Bn2
 BYTE   W06
 BYTE   Gn2
 BYTE   W06
 BYTE   En3
 BYTE   W06
 BYTE   Bn2
 BYTE   W06
 BYTE   Gn2
 BYTE   W06
 BYTE   En3
 BYTE   W06
 BYTE   Bn2
 BYTE   W06
 BYTE   Gn2
 BYTE   W06
 BYTE   En3
 BYTE   W06
 BYTE   Bn2
 BYTE   W06
 BYTE   Gn2
 BYTE   W06
 BYTE   En3
 BYTE   W06
 BYTE   Bn2
 BYTE   W06
 BYTE   Gn2
 BYTE   W06
 BYTE   En3
 BYTE   W06
 BYTE   PEND 
// 021   ----------------------------------------
 BYTE   PATT
  POIN2 Label_3_01386C92
// 022   ----------------------------------------
 BYTE   PATT
  POIN2 Label_3_01386C92
// 023   ----------------------------------------
 BYTE   PATT
  POIN2 Label_3_01386C92
// 024   ----------------------------------------
 BYTE   PATT
  POIN2 Label_3_01386CBA
// 025   ----------------------------------------
 BYTE   PATT
  POIN2 Label_3_01386C92
// 026   ----------------------------------------
Label_3_01386CF6:
 BYTE   N03  Cn3  v108
 BYTE   W03
 BYTE   Bn2
 BYTE   W03
 BYTE   An2
 BYTE   W03
 BYTE   En2
 BYTE   W03
 BYTE   Cn3
 BYTE   W03
 BYTE   Bn2
 BYTE   W03
 BYTE   An2
 BYTE   W03
 BYTE   En2
 BYTE   W03
 BYTE   Cn3
 BYTE   W03
 BYTE   Bn2
 BYTE   W03
 BYTE   An2
 BYTE   W03
 BYTE   En2
 BYTE   W03
 BYTE   Cn3
 BYTE   W03
 BYTE   Bn2
 BYTE   W03
 BYTE   An2
 BYTE   W03
 BYTE   En2
 BYTE   W03
 BYTE   Cn3
 BYTE   W03
 BYTE   Bn2
 BYTE   W03
 BYTE   An2
 BYTE   W03
 BYTE   En2
 BYTE   W03
 BYTE   Cn3
 BYTE   W03
 BYTE   Bn2
 BYTE   W03
 BYTE   An2
 BYTE   W03
 BYTE   En2
 BYTE   W03
 BYTE   Cn3
 BYTE   W03
 BYTE   Bn2
 BYTE   W03
 BYTE   An2
 BYTE   W03
 BYTE   En2
 BYTE   W03
 BYTE   Cn3
 BYTE   W03
 BYTE   Bn2
 BYTE   W03
 BYTE   An2
 BYTE   W03
 BYTE   En2
 BYTE   W03
 BYTE   PEND 
// 027   ----------------------------------------
Label_3_01386D39:
 BYTE   N03  Cn3  v108
 BYTE   W03
 BYTE   Bn2
 BYTE   W03
 BYTE   An2
 BYTE   W03
 BYTE   Fn2
 BYTE   W03
 BYTE   Cn3
 BYTE   W03
 BYTE   Bn2
 BYTE   W03
 BYTE   An2
 BYTE   W03
 BYTE   Fn2
 BYTE   W03
 BYTE   Cn3
 BYTE   W03
 BYTE   Bn2
 BYTE   W03
 BYTE   An2
 BYTE   W03
 BYTE   Fn2
 BYTE   W03
 BYTE   Cn3
 BYTE   W03
 BYTE   Bn2
 BYTE   W03
 BYTE   An2
 BYTE   W03
 BYTE   Fn2
 BYTE   W03
 BYTE   Cn3
 BYTE   W03
 BYTE   Bn2
 BYTE   W03
 BYTE   An2
 BYTE   W03
 BYTE   Fn2
 BYTE   W03
 BYTE   Cn3
 BYTE   W03
 BYTE   Bn2
 BYTE   W03
 BYTE   An2
 BYTE   W03
 BYTE   Fn2
 BYTE   W03
 BYTE   Cn3
 BYTE   W03
 BYTE   Bn2
 BYTE   W03
 BYTE   An2
 BYTE   W03
 BYTE   Fn2
 BYTE   W03
 BYTE   Cn3
 BYTE   W03
 BYTE   Bn2
 BYTE   W03
 BYTE   An2
 BYTE   W03
 BYTE   Fn2
 BYTE   W03
 BYTE   PEND 
// 028   ----------------------------------------
Label_3_01386D7C:
 BYTE   N03  Dn3  v108
 BYTE   W03
 BYTE   Cn3
 BYTE   W03
 BYTE   Bn2
 BYTE   W03
 BYTE   Gn2
 BYTE   W03
 BYTE   Dn3
 BYTE   W03
 BYTE   Cn3
 BYTE   W03
 BYTE   Bn2
 BYTE   W03
 BYTE   Gn2
 BYTE   W03
 BYTE   Dn3
 BYTE   W03
 BYTE   Cn3
 BYTE   W03
 BYTE   Bn2
 BYTE   W03
 BYTE   Gn2
 BYTE   W03
 BYTE   Dn3
 BYTE   W03
 BYTE   Cn3
 BYTE   W03
 BYTE   Bn2
 BYTE   W03
 BYTE   Gn2
 BYTE   W03
 BYTE   Dn3
 BYTE   W03
 BYTE   Cn3
 BYTE   W03
 BYTE   Bn2
 BYTE   W03
 BYTE   Gn2
 BYTE   W03
 BYTE   Dn3
 BYTE   W03
 BYTE   Cn3
 BYTE   W03
 BYTE   Bn2
 BYTE   W03
 BYTE   Gn2
 BYTE   W03
 BYTE   Dn3
 BYTE   W03
 BYTE   Cn3
 BYTE   W03
 BYTE   Bn2
 BYTE   W03
 BYTE   Gn2
 BYTE   W03
 BYTE   Dn3
 BYTE   W03
 BYTE   Cn3
 BYTE   W03
 BYTE   Bn2
 BYTE   W03
 BYTE   Gn2
 BYTE   W03
 BYTE   PEND 
// 029   ----------------------------------------
Label_3_01386DBF:
 BYTE   N03  Cn3  v108
 BYTE   W03
 BYTE   Bn2
 BYTE   W03
 BYTE   An2
 BYTE   W03
 BYTE   En2
 BYTE   W03
 BYTE   Cn3
 BYTE   W03
 BYTE   Bn2
 BYTE   W03
 BYTE   An2
 BYTE   W03
 BYTE   En2
 BYTE   W03
 BYTE   Cn3
 BYTE   W03
 BYTE   Bn2
 BYTE   W03
 BYTE   An2
 BYTE   W03
 BYTE   En2
 BYTE   W03
 BYTE   Cn3
 BYTE   W03
 BYTE   Bn2
 BYTE   W03
 BYTE   An2
 BYTE   W03
 BYTE   En2
 BYTE   W03
 BYTE   Cn3
 BYTE   W03
 BYTE   Bn2
 BYTE   W03
 BYTE   An2
 BYTE   W03
 BYTE   En2
 BYTE   W03
 BYTE   Cn3
 BYTE   W03
 BYTE   Bn2
 BYTE   W03
 BYTE   An2
 BYTE   W03
 BYTE   En2
 BYTE   W03
 BYTE   Cn3
 BYTE   W03
 BYTE   Bn2
 BYTE   W03
 BYTE   An2
 BYTE   W03
 BYTE   En2
 BYTE   W03
 BYTE   Cn3
 BYTE   W03
 BYTE   Bn2
 BYTE   W03
 BYTE   Cn3
 BYTE   W03
 BYTE   En3
 BYTE   W03
 BYTE   PEND 
// 030   ----------------------------------------
 BYTE   PATT
  POIN2 Label_3_01386CF6
// 031   ----------------------------------------
 BYTE   PATT
  POIN2 Label_3_01386D39
// 032   ----------------------------------------
Label_3_01386E0C:
 BYTE   N03  Dn3  v108
 BYTE   W03
 BYTE   Cn3
 BYTE   W03
 BYTE   Bn2
 BYTE   W03
 BYTE   Gn2
 BYTE   W03
 BYTE   Dn3
 BYTE   W03
 BYTE   Cn3
 BYTE   W03
 BYTE   Bn2
 BYTE   W03
 BYTE   Gn2
 BYTE   W03
 BYTE   Dn3
 BYTE   W03
 BYTE   Cn3
 BYTE   W03
 BYTE   Bn2
 BYTE   W03
 BYTE   Gn2
 BYTE   W03
 BYTE   Dn3
 BYTE   W03
 BYTE   Cn3
 BYTE   W03
 BYTE   Bn2
 BYTE   W03
 BYTE   Gn2
 BYTE   W03
 BYTE   Dn3
 BYTE   W03
 BYTE   Cn3
 BYTE   W03
 BYTE   Bn2
 BYTE   W03
 BYTE   Gn2
 BYTE   W03
 BYTE   Dn3
 BYTE   W03
 BYTE   Cn3
 BYTE   W03
 BYTE   Bn2
 BYTE   W03
 BYTE   Gn2
 BYTE   W03
 BYTE   Dn3
 BYTE   W03
 BYTE   Cn3
 BYTE   W03
 BYTE   Bn2
 BYTE   W03
 BYTE   Gn2
 BYTE   W03
 BYTE   Dn3
 BYTE   W03
 BYTE   Cn3
 BYTE   W03
 BYTE   N06  Bn2
 BYTE   W06
 BYTE   PEND 
// 033   ----------------------------------------
 BYTE   PATT
  POIN2 Label_3_01386DBF
// 034   ----------------------------------------
 BYTE   GoTo
  POIN2 Label_3_01386B8E
// 035   ----------------------------------------
 BYTE   PATT
  POIN2 Label_3_01386B8E
// 036   ----------------------------------------
 BYTE   PATT
  POIN2 Label_3_01386BB1
// 037   ----------------------------------------
 BYTE   PATT
  POIN2 Label_3_01386BD4
// 038   ----------------------------------------
 BYTE   PATT
  POIN2 Label_3_01386BB1
// 039   ----------------------------------------
 BYTE   PATT
  POIN2 Label_3_01386B8E
// 040   ----------------------------------------
 BYTE   PATT
  POIN2 Label_3_01386BB1
// 041   ----------------------------------------
 BYTE   PATT
  POIN2 Label_3_01386BD4
// 042   ----------------------------------------
 BYTE   PATT
  POIN2 Label_3_01386BB1
// 043   ----------------------------------------
 BYTE   PATT
  POIN2 Label_3_01386C10
// 044   ----------------------------------------
 BYTE   PATT
  POIN2 Label_3_01386C33
// 045   ----------------------------------------
 BYTE   PATT
  POIN2 Label_3_01386C10
// 046   ----------------------------------------
 BYTE   PATT
  POIN2 Label_3_01386C33
// 047   ----------------------------------------
 BYTE   PATT
  POIN2 Label_3_01386C10
// 048   ----------------------------------------
 BYTE   PATT
  POIN2 Label_3_01386C33
// 049   ----------------------------------------
 BYTE   PATT
  POIN2 Label_3_01386C10
// 050   ----------------------------------------
 BYTE   PATT
  POIN2 Label_3_01386C6F
// 051   ----------------------------------------
 BYTE   PATT
  POIN2 Label_3_01386C92
// 052   ----------------------------------------
 BYTE   PATT
  POIN2 Label_3_01386C92
// 053   ----------------------------------------
 BYTE   PATT
  POIN2 Label_3_01386CBA
// 054   ----------------------------------------
 BYTE   PATT
  POIN2 Label_3_01386C92
// 055   ----------------------------------------
 BYTE   PATT
  POIN2 Label_3_01386C92
// 056   ----------------------------------------
 BYTE   PATT
  POIN2 Label_3_01386C92
// 057   ----------------------------------------
 BYTE   PATT
  POIN2 Label_3_01386CBA
// 058   ----------------------------------------
 BYTE   PATT
  POIN2 Label_3_01386C92
// 059   ----------------------------------------
 BYTE   PATT
  POIN2 Label_3_01386CF6
// 060   ----------------------------------------
 BYTE   PATT
  POIN2 Label_3_01386D39
// 061   ----------------------------------------
 BYTE   PATT
  POIN2 Label_3_01386D7C
// 062   ----------------------------------------
 BYTE   PATT
  POIN2 Label_3_01386DBF
// 063   ----------------------------------------
 BYTE   PATT
  POIN2 Label_3_01386CF6
// 064   ----------------------------------------
 BYTE   PATT
  POIN2 Label_3_01386D39
// 065   ----------------------------------------
 BYTE   PATT
  POIN2 Label_3_01386E0C
// 066   ----------------------------------------
 BYTE   PATT
  POIN2 Label_3_01386DBF
// 067   ----------------------------------------
 BYTE   N03  Cn3  v108
 BYTE   W03
 BYTE   Bn2
 BYTE   W03
 BYTE   An2
 BYTE   W01
 BYTE   W02
 BYTE   En2
 BYTE   W03
 BYTE   Cn3
 BYTE   W03
 BYTE   Bn2
 BYTE   W03
 BYTE   An2
 BYTE   W03
 BYTE   En2
 BYTE   W03
 BYTE   Cn3
 BYTE   W03
 BYTE   Bn2
 BYTE   W03
 BYTE   An2
 BYTE   W01
 BYTE   W02
 BYTE   En2
 BYTE   W03
 BYTE   Cn3
 BYTE   W03
 BYTE   Bn2
 BYTE   W03
 BYTE   An2
 BYTE   W03
 BYTE   En2
 BYTE   W03
 BYTE   Cn3
 BYTE   W03
 BYTE   Bn2
 BYTE   W03
 BYTE   An2
 BYTE   W01
 BYTE   W02
 BYTE   En2
 BYTE   W03
 BYTE   Cn3
 BYTE   W03
 BYTE   Bn2
 BYTE   W03
 BYTE   An2
 BYTE   W03
 BYTE   En2
 BYTE   W03
 BYTE   Cn3
 BYTE   W03
 BYTE   Bn2
 BYTE   W03
 BYTE   An2
 BYTE   W01
 BYTE   W02
 BYTE   En2
 BYTE   W03
 BYTE   Cn3
 BYTE   W03
 BYTE   Bn2
 BYTE   W03
 BYTE   An2
 BYTE   W03
 BYTE   En2
 BYTE   W03
// 068   ----------------------------------------
 BYTE   Cn3
 BYTE   W03
 BYTE   Bn2
 BYTE   W03
 BYTE   An2
 BYTE   W02
 BYTE   W01
 BYTE   Fn2
 BYTE   W03
 BYTE   Cn3
 BYTE   W03
 BYTE   Bn2
 BYTE   W03
 BYTE   An2
 BYTE   W03
 BYTE   Fn2
 BYTE   W03
 BYTE   Cn3
 BYTE   W03
 BYTE   Bn2
 BYTE   W03
 BYTE   An2
 BYTE   W02
 BYTE   W01
 BYTE   Fn2
 BYTE   W03
 BYTE   Cn3
 BYTE   W03
 BYTE   Bn2
 BYTE   W03
 BYTE   An2
 BYTE   W03
 BYTE   Fn2
 BYTE   W03
 BYTE   Cn3
 BYTE   W03
 BYTE   Bn2
 BYTE   W03
 BYTE   An2
 BYTE   W02
 BYTE   W01
 BYTE   Fn2
 BYTE   W03
 BYTE   Cn3
 BYTE   W03
 BYTE   Bn2
 BYTE   W03
 BYTE   An2
 BYTE   W03
 BYTE   Fn2
 BYTE   W03
 BYTE   Cn3
 BYTE   W03
 BYTE   Bn2
 BYTE   W03
 BYTE   An2
 BYTE   W03
 BYTE   Fn2
 BYTE   W03
 BYTE   Cn3
 BYTE   W03
 BYTE   Bn2
 BYTE   W03
 BYTE   An2
 BYTE   W03
 BYTE   Fn2
 BYTE   W03
// 069   ----------------------------------------
 BYTE   Dn3
 BYTE   W03
 BYTE   Cn3
 BYTE   W03
 BYTE   Bn2
 BYTE   W03
 BYTE   Gn2
 BYTE   W03
 BYTE   Dn3
 BYTE   W03
 BYTE   Cn3
 BYTE   W03
 BYTE   Bn2
 BYTE   W03
 BYTE   Gn2
 BYTE   W03
 BYTE   Dn3
 BYTE   W03
 BYTE   Cn3
 BYTE   W03
 BYTE   Bn2
 BYTE   W03
 BYTE   Gn2
 BYTE   W03
 BYTE   Dn3
 BYTE   W03
 BYTE   Cn3
 BYTE   W03
 BYTE   Bn2
 BYTE   W03
 BYTE   Gn2
 BYTE   W03
 BYTE   Dn3
 BYTE   W03
 BYTE   Cn3
 BYTE   W03
 BYTE   Bn2
 BYTE   W03
 BYTE   Gn2
 BYTE   W03
 BYTE   Dn3
 BYTE   W03
 BYTE   Cn3
 BYTE   W03
 BYTE   Bn2
 BYTE   W03
 BYTE   Gn2
 BYTE   W03
 BYTE   Dn3
 BYTE   W03
 BYTE   Cn3
 BYTE   W03
 BYTE   Bn2
 BYTE   W03
 BYTE   Gn2
 BYTE   W01
 BYTE   W02
 BYTE   Dn3
 BYTE   W03
 BYTE   Cn3
 BYTE   W03
 BYTE   N06  Bn2
 BYTE   W06
// 070   ----------------------------------------
 BYTE   N03  Cn3
 BYTE   W03
 BYTE   Bn2
 BYTE   W03
 BYTE   An2
 BYTE   W03
 BYTE   En2
 BYTE   W01
 BYTE   W02
 BYTE   Cn3
 BYTE   W03
 BYTE   Bn2
 BYTE   W03
 BYTE   An2
 BYTE   W03
 BYTE   En2
 BYTE   W03
 BYTE   Cn3
 BYTE   W03
 BYTE   Bn2
 BYTE   W03
 BYTE   An2
 BYTE   W03
 BYTE   En2
 BYTE   W01
 BYTE   W02
 BYTE   Cn3
 BYTE   W03
 BYTE   Bn2
 BYTE   W03
 BYTE   An2
 BYTE   W03
 BYTE   En2
 BYTE   W03
 BYTE   Cn3
 BYTE   W03
 BYTE   Bn2
 BYTE   W03
 BYTE   An2
 BYTE   W03
 BYTE   En2
 BYTE   W02
 BYTE   W01
 BYTE   Cn3
 BYTE   W03
 BYTE   Bn2
 BYTE   W03
 BYTE   An2
 BYTE   W03
 BYTE   En2
 BYTE   W03
 BYTE   Cn3
 BYTE   W03
 BYTE   Bn2
 BYTE   W03
 BYTE   An2
 BYTE   W03
 BYTE   En2
 BYTE   W02
 BYTE   W01
 BYTE   Cn3
 BYTE   W03
 BYTE   Bn2
 BYTE   W03
 BYTE   Cn3
 BYTE   W03
 BYTE   En3
 BYTE   W03
// 071   ----------------------------------------
 BYTE   Cn3
 BYTE   W03
 BYTE   Bn2
 BYTE   W03
 BYTE   An2
 BYTE   W03
 BYTE   En2
 BYTE   W02
 BYTE   W01
 BYTE   Cn3
 BYTE   W03
 BYTE   Bn2
 BYTE   W03
 BYTE   An2
 BYTE   W03
 BYTE   En2
 BYTE   W03
 BYTE   Cn3
 BYTE   W03
 BYTE   Bn2
 BYTE   W03
 BYTE   An2
 BYTE   W03
 BYTE   En2
 BYTE   W02
 BYTE   W01
 BYTE   Cn3
 BYTE   W03
 BYTE   Bn2
 BYTE   W03
 BYTE   An2
 BYTE   W03
 BYTE   En2
 BYTE   W03
 BYTE   Cn3
 BYTE   W03
 BYTE   Bn2
 BYTE   W03
 BYTE   An2
 BYTE   W03
 BYTE   En2
 BYTE   W03
 BYTE   Cn3
 BYTE   W03
 BYTE   Bn2
 BYTE   W03
 BYTE   An2
 BYTE   W03
 BYTE   En2
 BYTE   W03
 BYTE   Cn3
 BYTE   W03
 BYTE   Bn2
 BYTE   W03
 BYTE   An2
 BYTE   W03
 BYTE   En2
 BYTE   W03
 BYTE   Cn3
 BYTE   W03
 BYTE   Bn2
 BYTE   W03
 BYTE   An2
 BYTE   W03
 BYTE   En2
 BYTE   W03
// 072   ----------------------------------------
 BYTE   Cn3
 BYTE   W03
 BYTE   Bn2
 BYTE   W03
 BYTE   An2
 BYTE   W03
 BYTE   Fn2
 BYTE   W03
 BYTE   Cn3
 BYTE   W03
 BYTE   Bn2
 BYTE   W03
 BYTE   An2
 BYTE   W03
 BYTE   Fn2
 BYTE   W03
 BYTE   Cn3
 BYTE   W03
 BYTE   Bn2
 BYTE   W03
 BYTE   An2
 BYTE   W03
 BYTE   Fn2
 BYTE   W03
 BYTE   Cn3
 BYTE   W01
 BYTE   W02
 BYTE   Bn2
 BYTE   W03
 BYTE   An2
 BYTE   W03
 BYTE   Fn2
 BYTE   W03
 BYTE   Cn3
 BYTE   W03
 BYTE   Bn2
 BYTE   W03
 BYTE   An2
 BYTE   W03
 BYTE   Fn2
 BYTE   W03
 BYTE   Cn3
 BYTE   W01
 BYTE   W02
 BYTE   Bn2
 BYTE   W03
 BYTE   An2
 BYTE   W03
 BYTE   Fn2
 BYTE   W03
 BYTE   Cn3
 BYTE   W03
 BYTE   Bn2
 BYTE   W03
 BYTE   An2
 BYTE   W03
 BYTE   Fn2
 BYTE   W03
 BYTE   Cn3
 BYTE   W01
 BYTE   W02
 BYTE   Bn2
 BYTE   W03
 BYTE   An2
 BYTE   W03
 BYTE   Fn2
 BYTE   W03
// 073   ----------------------------------------
 BYTE   Dn3
 BYTE   W03
 BYTE   Cn3
 BYTE   W03
 BYTE   Bn2
 BYTE   W03
 BYTE   Gn2
 BYTE   W03
 BYTE   Dn3
 BYTE   W01
 BYTE   W02
 BYTE   Cn3
 BYTE   W03
 BYTE   Bn2
 BYTE   W03
 BYTE   Gn2
 BYTE   W03
 BYTE   Dn3
 BYTE   W03
 BYTE   Cn3
 BYTE   W03
 BYTE   Bn2
 BYTE   W03
 BYTE   Gn2
 BYTE   W03
 BYTE   Dn3
 BYTE   W02
 BYTE   W01
 BYTE   Cn3
 BYTE   W03
 BYTE   Bn2
 BYTE   W03
 BYTE   Gn2
 BYTE   W03
 BYTE   Dn3
 BYTE   W03
 BYTE   Cn3
 BYTE   W03
 BYTE   Bn2
 BYTE   W03
 BYTE   Gn2
 BYTE   W03
 BYTE   Dn3
 BYTE   W02
 BYTE   W01
 BYTE   Cn3
 BYTE   W03
 BYTE   Bn2
 BYTE   W03
 BYTE   Gn2
 BYTE   W03
 BYTE   Dn3
 BYTE   W03
 BYTE   Cn3
 BYTE   W03
 BYTE   Bn2
 BYTE   W03
 BYTE   Gn2
 BYTE   W03
 BYTE   Dn3
 BYTE   W02
 BYTE   W01
 BYTE   Cn3
 BYTE   W03
 BYTE   N06  Bn2
 BYTE   W06
// 074   ----------------------------------------
 BYTE   N03  Cn3
 BYTE   W03
 BYTE   Bn2
 BYTE   W03
 BYTE   An2
 BYTE   W03
 BYTE   En2
 BYTE   W03
 BYTE   Cn3
 BYTE   W03
 BYTE   Bn2
 BYTE   W03
 BYTE   An2
 BYTE   W03
 BYTE   En2
 BYTE   W03
 BYTE   Cn3
 BYTE   W03
 BYTE   Bn2
 BYTE   W03
 BYTE   An2
 BYTE   W03
 BYTE   En2
 BYTE   W03
 BYTE   Cn3
 BYTE   W03
 BYTE   Bn2
 BYTE   W03
 BYTE   An2
 BYTE   W03
 BYTE   En2
 BYTE   W03
 BYTE   Cn3
 BYTE   W03
 BYTE   Bn2
 BYTE   W03
 BYTE   An2
 BYTE   W03
 BYTE   En2
 BYTE   W03
 BYTE   Cn3
 BYTE   W03
 BYTE   Bn2
 BYTE   W03
 BYTE   An2
 BYTE   W03
 BYTE   En2
 BYTE   W03
 BYTE   Cn3
 BYTE   W03
 BYTE   Bn2
 BYTE   W03
 BYTE   An2
 BYTE   W03
 BYTE   En2
 BYTE   W03
 BYTE   Cn3
 BYTE   W03
 BYTE   Bn2
 BYTE   W03
 BYTE   Cn3
 BYTE   W03
 BYTE   En3
 BYTE   W03
 BYTE   FINE

//**************** Track 5 (Midi-Chn.4) ****************//

song2C_005:
// 000   ----------------------------------------
 BYTE   KEYSH   song2C_key+0
 BYTE   VOICE   51
 BYTE   PAN   c_v-39
 BYTE   VOL   26*song2C_mvl/mxv
 BYTE   N06  En4  v088
 BYTE   W06
 BYTE   An3
 BYTE   W06
 BYTE   Cn4
 BYTE   W06
 BYTE   An3
 BYTE   W06
 BYTE   Dn4
 BYTE   W06
 BYTE   An3
 BYTE   W06
 BYTE   Cn4  v092
 BYTE   W06
 BYTE   Gn3
 BYTE   W06
 BYTE   En4
 BYTE   W06
 BYTE   An3
 BYTE   W06
 BYTE   Cn4
 BYTE   W06
 BYTE   An3
 BYTE   W06
 BYTE   Dn4
 BYTE   W06
 BYTE   An3
 BYTE   W06
 BYTE   Cn4  v096
 BYTE   W06
 BYTE   Gn3
 BYTE   W06
// 001   ----------------------------------------
 BYTE   En4
 BYTE   W06
 BYTE   An3
 BYTE   W06
 BYTE   Cn4
 BYTE   W06
 BYTE   An3
 BYTE   W06
 BYTE   Dn4
 BYTE   W06
 BYTE   An3
 BYTE   W06
 BYTE   Cn4  v100
 BYTE   W06
 BYTE   Gn3
 BYTE   W06
 BYTE   En4
 BYTE   W06
 BYTE   An3
 BYTE   W06
 BYTE   Cn4
 BYTE   W06
 BYTE   An3
 BYTE   W06
 BYTE   Dn4
 BYTE   W06
 BYTE   An3
 BYTE   W06
 BYTE   Cn4  v104
 BYTE   W06
 BYTE   Gn3
 BYTE   W06
// 002   ----------------------------------------
Label_4_0138715E:
 BYTE   N06  Cn4  v108
 BYTE   W06
 BYTE   An3
 BYTE   W06
 BYTE   Bn3
 BYTE   W06
 BYTE   Cn4
 BYTE   W06
 BYTE   Bn3
 BYTE   W06
 BYTE   An3
 BYTE   W06
 BYTE   En3
 BYTE   W06
 BYTE   Cn4
 BYTE   W06
 BYTE   En3
 BYTE   W06
 BYTE   Bn3
 BYTE   W06
 BYTE   En3
 BYTE   W06
 BYTE   An3
 BYTE   W06
 BYTE   En3
 BYTE   W06
 BYTE   Bn3
 BYTE   W06
 BYTE   En3
 BYTE   W06
 BYTE   Cn4
 BYTE   W06
 BYTE   PEND 
// 003   ----------------------------------------
Label_4_01387181:
 BYTE   N06  En3  v108
 BYTE   W06
 BYTE   An3
 BYTE   W06
 BYTE   En3
 BYTE   W06
 BYTE   Bn3
 BYTE   W06
 BYTE   En3
 BYTE   W06
 BYTE   Cn4
 BYTE   W06
 BYTE   En3
 BYTE   W06
 BYTE   Dn4
 BYTE   W06
 BYTE   En3
 BYTE   W06
 BYTE   Cn4
 BYTE   W06
 BYTE   En3
 BYTE   W06
 BYTE   Bn3
 BYTE   W06
 BYTE   En3
 BYTE   W06
 BYTE   An3
 BYTE   W06
 BYTE   En3
 BYTE   W06
 BYTE   Bn3
 BYTE   W06
 BYTE   PEND 
// 004   ----------------------------------------
Label_4_013871A4:
 BYTE   N06  Gn3  v108
 BYTE   W06
 BYTE   Bn3
 BYTE   W06
 BYTE   Gn3
 BYTE   W06
 BYTE   Cn4
 BYTE   W06
 BYTE   Gn3
 BYTE   W06
 BYTE   Dn4
 BYTE   W06
 BYTE   Gn3
 BYTE   W06
 BYTE   En4
 BYTE   W06
 BYTE   Gn3
 BYTE   W06
 BYTE   Dn4
 BYTE   W06
 BYTE   Gn3
 BYTE   W06
 BYTE   Cn4
 BYTE   W06
 BYTE   Gn3
 BYTE   W06
 BYTE   Bn3
 BYTE   W06
 BYTE   Gn3
 BYTE   W06
 BYTE   Bn3
 BYTE   W06
 BYTE   PEND 
// 005   ----------------------------------------
 BYTE   PATT
  POIN2 Label_4_01387181
// 006   ----------------------------------------
 BYTE   PATT
  POIN2 Label_4_0138715E
// 007   ----------------------------------------
 BYTE   PATT
  POIN2 Label_4_01387181
// 008   ----------------------------------------
 BYTE   PATT
  POIN2 Label_4_013871A4
// 009   ----------------------------------------
 BYTE   PATT
  POIN2 Label_4_01387181
// 010   ----------------------------------------
Label_4_013871E0:
 BYTE   N06  En4  v108
 BYTE   W06
 BYTE   An3
 BYTE   W06
 BYTE   En3
 BYTE   W06
 BYTE   En4
 BYTE   W06
 BYTE   Cn4
 BYTE   W06
 BYTE   An3
 BYTE   W06
 BYTE   En4
 BYTE   W06
 BYTE   An3
 BYTE   W06
 BYTE   En3
 BYTE   W06
 BYTE   En4
 BYTE   W06
 BYTE   Cn4
 BYTE   W06
 BYTE   An3
 BYTE   W06
 BYTE   En4
 BYTE   W06
 BYTE   An3
 BYTE   W06
 BYTE   En3
 BYTE   W06
 BYTE   En4
 BYTE   W06
 BYTE   PEND 
// 011   ----------------------------------------
Label_4_01387203:
 BYTE   N06  Dn4  v108
 BYTE   W06
 BYTE   Bn3
 BYTE   W06
 BYTE   Gn3
 BYTE   W06
 BYTE   Fn4
 BYTE   W06
 BYTE   Dn4
 BYTE   W06
 BYTE   Bn3
 BYTE   W06
 BYTE   Dn4
 BYTE   W06
 BYTE   Bn3
 BYTE   W06
 BYTE   Gn3
 BYTE   W06
 BYTE   Fn4
 BYTE   W06
 BYTE   Dn4
 BYTE   W06
 BYTE   Bn3
 BYTE   W06
 BYTE   Dn4
 BYTE   W06
 BYTE   Bn3
 BYTE   W06
 BYTE   Gn3
 BYTE   W06
 BYTE   Dn4
 BYTE   W06
 BYTE   PEND 
// 012   ----------------------------------------
 BYTE   PATT
  POIN2 Label_4_013871E0
// 013   ----------------------------------------
 BYTE   PATT
  POIN2 Label_4_01387203
// 014   ----------------------------------------
 BYTE   PATT
  POIN2 Label_4_013871E0
// 015   ----------------------------------------
 BYTE   PATT
  POIN2 Label_4_01387203
// 016   ----------------------------------------
 BYTE   PATT
  POIN2 Label_4_013871E0
// 017   ----------------------------------------
Label_4_0138723F:
 BYTE   N06  Dn4  v108
 BYTE   W06
 BYTE   Bn3
 BYTE   W06
 BYTE   Gs3
 BYTE   W06
 BYTE   En3
 BYTE   W06
 BYTE   Gs3
 BYTE   W06
 BYTE   Bn3
 BYTE   W06
 BYTE   Dn4
 BYTE   W06
 BYTE   Bn3
 BYTE   W06
 BYTE   Gs3
 BYTE   W06
 BYTE   Bn3
 BYTE   W06
 BYTE   Dn4
 BYTE   W06
 BYTE   Bn3
 BYTE   W06
 BYTE   Gs4
 BYTE   W06
 BYTE   En4
 BYTE   W06
 BYTE   Bn4
 BYTE   W06
 BYTE   Gs4
 BYTE   W06
 BYTE   PEND 
// 018   ----------------------------------------
Label_4_01387262:
 BYTE   N06  En4  v108
 BYTE   W06
 BYTE   Cn4
 BYTE   W06
 BYTE   An3
 BYTE   W06
 BYTE   En4
 BYTE   W06
 BYTE   Cn4
 BYTE   W06
 BYTE   An3
 BYTE   W06
 BYTE   En4
 BYTE   W06
 BYTE   Cn4
 BYTE   W06
 BYTE   An3
 BYTE   W06
 BYTE   En4
 BYTE   W06
 BYTE   Cn4
 BYTE   W06
 BYTE   An3
 BYTE   W06
 BYTE   En4
 BYTE   W06
 BYTE   Cn4
 BYTE   W06
 BYTE   An3
 BYTE   W06
 BYTE   En4
 BYTE   W06
 BYTE   PEND 
// 019   ----------------------------------------
 BYTE   PATT
  POIN2 Label_4_01387262
// 020   ----------------------------------------
Label_4_0138728A:
 BYTE   N06  En4  v108
 BYTE   W06
 BYTE   Bn3
 BYTE   W06
 BYTE   Gn3
 BYTE   W06
 BYTE   En4
 BYTE   W06
 BYTE   Bn3
 BYTE   W06
 BYTE   Gn3
 BYTE   W06
 BYTE   En4
 BYTE   W06
 BYTE   Bn3
 BYTE   W06
 BYTE   Gn3
 BYTE   W06
 BYTE   En4
 BYTE   W06
 BYTE   Bn3
 BYTE   W06
 BYTE   Gn3
 BYTE   W06
 BYTE   En4
 BYTE   W06
 BYTE   Bn3
 BYTE   W06
 BYTE   Gn3
 BYTE   W06
 BYTE   En4
 BYTE   W06
 BYTE   PEND 
// 021   ----------------------------------------
 BYTE   PATT
  POIN2 Label_4_01387262
// 022   ----------------------------------------
 BYTE   PATT
  POIN2 Label_4_01387262
// 023   ----------------------------------------
 BYTE   PATT
  POIN2 Label_4_01387262
// 024   ----------------------------------------
 BYTE   PATT
  POIN2 Label_4_0138728A
// 025   ----------------------------------------
 BYTE   PATT
  POIN2 Label_4_01387262
// 026   ----------------------------------------
Label_4_013872C6:
 BYTE   N03  Cn4  v108
 BYTE   W03
 BYTE   Bn3
 BYTE   W03
 BYTE   An3
 BYTE   W03
 BYTE   En3
 BYTE   W03
 BYTE   Cn4
 BYTE   W03
 BYTE   Bn3
 BYTE   W03
 BYTE   An3
 BYTE   W03
 BYTE   En3
 BYTE   W03
 BYTE   Cn4
 BYTE   W03
 BYTE   Bn3
 BYTE   W03
 BYTE   An3
 BYTE   W03
 BYTE   En3
 BYTE   W03
 BYTE   Cn4
 BYTE   W03
 BYTE   Bn3
 BYTE   W03
 BYTE   An3
 BYTE   W03
 BYTE   En3
 BYTE   W03
 BYTE   Cn4
 BYTE   W03
 BYTE   Bn3
 BYTE   W03
 BYTE   An3
 BYTE   W03
 BYTE   En3
 BYTE   W03
 BYTE   Cn4
 BYTE   W03
 BYTE   Bn3
 BYTE   W03
 BYTE   An3
 BYTE   W03
 BYTE   En3
 BYTE   W03
 BYTE   Cn4
 BYTE   W03
 BYTE   Bn3
 BYTE   W03
 BYTE   An3
 BYTE   W03
 BYTE   En3
 BYTE   W03
 BYTE   Cn4
 BYTE   W03
 BYTE   Bn3
 BYTE   W03
 BYTE   An3
 BYTE   W03
 BYTE   En3
 BYTE   W03
 BYTE   PEND 
// 027   ----------------------------------------
Label_4_01387309:
 BYTE   N03  Cn4  v108
 BYTE   W03
 BYTE   Bn3
 BYTE   W03
 BYTE   An3
 BYTE   W03
 BYTE   Fn3
 BYTE   W03
 BYTE   Cn4
 BYTE   W03
 BYTE   Bn3
 BYTE   W03
 BYTE   An3
 BYTE   W03
 BYTE   Fn3
 BYTE   W03
 BYTE   Cn4
 BYTE   W03
 BYTE   Bn3
 BYTE   W03
 BYTE   An3
 BYTE   W03
 BYTE   Fn3
 BYTE   W03
 BYTE   Cn4
 BYTE   W03
 BYTE   Bn3
 BYTE   W03
 BYTE   An3
 BYTE   W03
 BYTE   Fn3
 BYTE   W03
 BYTE   Cn4
 BYTE   W03
 BYTE   Bn3
 BYTE   W03
 BYTE   An3
 BYTE   W03
 BYTE   Fn3
 BYTE   W03
 BYTE   Cn4
 BYTE   W03
 BYTE   Bn3
 BYTE   W03
 BYTE   An3
 BYTE   W03
 BYTE   Fn3
 BYTE   W03
 BYTE   Cn4
 BYTE   W03
 BYTE   Bn3
 BYTE   W03
 BYTE   An3
 BYTE   W03
 BYTE   Fn3
 BYTE   W03
 BYTE   Cn4
 BYTE   W03
 BYTE   Bn3
 BYTE   W03
 BYTE   An3
 BYTE   W03
 BYTE   Fn3
 BYTE   W03
 BYTE   PEND 
// 028   ----------------------------------------
Label_4_0138734C:
 BYTE   N03  Dn4  v108
 BYTE   W03
 BYTE   Cn4
 BYTE   W03
 BYTE   Bn3
 BYTE   W03
 BYTE   Gn3
 BYTE   W03
 BYTE   Dn4
 BYTE   W03
 BYTE   Cn4
 BYTE   W03
 BYTE   Bn3
 BYTE   W03
 BYTE   Gn3
 BYTE   W03
 BYTE   Dn4
 BYTE   W03
 BYTE   Cn4
 BYTE   W03
 BYTE   Bn3
 BYTE   W03
 BYTE   Gn3
 BYTE   W03
 BYTE   Dn4
 BYTE   W03
 BYTE   Cn4
 BYTE   W03
 BYTE   Bn3
 BYTE   W03
 BYTE   Gn3
 BYTE   W03
 BYTE   Dn4
 BYTE   W03
 BYTE   Cn4
 BYTE   W03
 BYTE   Bn3
 BYTE   W03
 BYTE   Gn3
 BYTE   W03
 BYTE   Dn4
 BYTE   W03
 BYTE   Cn4
 BYTE   W03
 BYTE   Bn3
 BYTE   W03
 BYTE   Gn3
 BYTE   W03
 BYTE   Dn4
 BYTE   W03
 BYTE   Cn4
 BYTE   W03
 BYTE   Bn3
 BYTE   W03
 BYTE   Gn3
 BYTE   W03
 BYTE   Dn4
 BYTE   W03
 BYTE   Cn4
 BYTE   W03
 BYTE   Bn3
 BYTE   W03
 BYTE   Gn3
 BYTE   W03
 BYTE   PEND 
// 029   ----------------------------------------
Label_4_0138738F:
 BYTE   N03  Cn4  v108
 BYTE   W03
 BYTE   Bn3
 BYTE   W03
 BYTE   An3
 BYTE   W03
 BYTE   En3
 BYTE   W03
 BYTE   Cn4
 BYTE   W03
 BYTE   Bn3
 BYTE   W03
 BYTE   An3
 BYTE   W03
 BYTE   En3
 BYTE   W03
 BYTE   Cn4
 BYTE   W03
 BYTE   Bn3
 BYTE   W03
 BYTE   An3
 BYTE   W03
 BYTE   En3
 BYTE   W03
 BYTE   Cn4
 BYTE   W03
 BYTE   Bn3
 BYTE   W03
 BYTE   An3
 BYTE   W03
 BYTE   En3
 BYTE   W03
 BYTE   Cn4
 BYTE   W03
 BYTE   Bn3
 BYTE   W03
 BYTE   An3
 BYTE   W03
 BYTE   En3
 BYTE   W03
 BYTE   Cn4
 BYTE   W03
 BYTE   Bn3
 BYTE   W03
 BYTE   An3
 BYTE   W03
 BYTE   En3
 BYTE   W03
 BYTE   Cn4
 BYTE   W03
 BYTE   Bn3
 BYTE   W03
 BYTE   An3
 BYTE   W03
 BYTE   En3
 BYTE   W03
 BYTE   Cn4
 BYTE   W03
 BYTE   Bn3
 BYTE   W03
 BYTE   Cn4
 BYTE   W03
 BYTE   En4
 BYTE   W03
 BYTE   PEND 
// 030   ----------------------------------------
 BYTE   PATT
  POIN2 Label_4_013872C6
// 031   ----------------------------------------
 BYTE   PATT
  POIN2 Label_4_01387309
// 032   ----------------------------------------
Label_4_013873DC:
 BYTE   N03  Dn4  v108
 BYTE   W03
 BYTE   Cn4
 BYTE   W03
 BYTE   Bn3
 BYTE   W03
 BYTE   Gn3
 BYTE   W03
 BYTE   Dn4
 BYTE   W03
 BYTE   Cn4
 BYTE   W03
 BYTE   Bn3
 BYTE   W03
 BYTE   Gn3
 BYTE   W03
 BYTE   Dn4
 BYTE   W03
 BYTE   Cn4
 BYTE   W03
 BYTE   Bn3
 BYTE   W03
 BYTE   Gn3
 BYTE   W03
 BYTE   Dn4
 BYTE   W03
 BYTE   Cn4
 BYTE   W03
 BYTE   Bn3
 BYTE   W03
 BYTE   Gn3
 BYTE   W03
 BYTE   Dn4
 BYTE   W03
 BYTE   Cn4
 BYTE   W03
 BYTE   Bn3
 BYTE   W03
 BYTE   Gn3
 BYTE   W03
 BYTE   Dn4
 BYTE   W03
 BYTE   Cn4
 BYTE   W03
 BYTE   Bn3
 BYTE   W03
 BYTE   Gn3
 BYTE   W03
 BYTE   Dn4
 BYTE   W03
 BYTE   Cn4
 BYTE   W03
 BYTE   Bn3
 BYTE   W03
 BYTE   Gn3
 BYTE   W03
 BYTE   Dn4
 BYTE   W03
 BYTE   Cn4
 BYTE   W03
 BYTE   N06  Bn3
 BYTE   W06
 BYTE   PEND 
// 033   ----------------------------------------
 BYTE   PATT
  POIN2 Label_4_0138738F
// 034   ----------------------------------------
 BYTE   GoTo
  POIN2 Label_4_0138715E
// 035   ----------------------------------------
 BYTE   PATT
  POIN2 Label_4_0138715E
// 036   ----------------------------------------
 BYTE   PATT
  POIN2 Label_4_01387181
// 037   ----------------------------------------
 BYTE   PATT
  POIN2 Label_4_013871A4
// 038   ----------------------------------------
 BYTE   PATT
  POIN2 Label_4_01387181
// 039   ----------------------------------------
 BYTE   PATT
  POIN2 Label_4_0138715E
// 040   ----------------------------------------
 BYTE   PATT
  POIN2 Label_4_01387181
// 041   ----------------------------------------
 BYTE   PATT
  POIN2 Label_4_013871A4
// 042   ----------------------------------------
 BYTE   PATT
  POIN2 Label_4_01387181
// 043   ----------------------------------------
 BYTE   PATT
  POIN2 Label_4_013871E0
// 044   ----------------------------------------
 BYTE   PATT
  POIN2 Label_4_01387203
// 045   ----------------------------------------
 BYTE   PATT
  POIN2 Label_4_013871E0
// 046   ----------------------------------------
 BYTE   PATT
  POIN2 Label_4_01387203
// 047   ----------------------------------------
 BYTE   PATT
  POIN2 Label_4_013871E0
// 048   ----------------------------------------
 BYTE   PATT
  POIN2 Label_4_01387203
// 049   ----------------------------------------
 BYTE   PATT
  POIN2 Label_4_013871E0
// 050   ----------------------------------------
 BYTE   PATT
  POIN2 Label_4_0138723F
// 051   ----------------------------------------
 BYTE   PATT
  POIN2 Label_4_01387262
// 052   ----------------------------------------
 BYTE   PATT
  POIN2 Label_4_01387262
// 053   ----------------------------------------
 BYTE   PATT
  POIN2 Label_4_0138728A
// 054   ----------------------------------------
 BYTE   PATT
  POIN2 Label_4_01387262
// 055   ----------------------------------------
 BYTE   PATT
  POIN2 Label_4_01387262
// 056   ----------------------------------------
 BYTE   PATT
  POIN2 Label_4_01387262
// 057   ----------------------------------------
 BYTE   PATT
  POIN2 Label_4_0138728A
// 058   ----------------------------------------
 BYTE   PATT
  POIN2 Label_4_01387262
// 059   ----------------------------------------
 BYTE   PATT
  POIN2 Label_4_013872C6
// 060   ----------------------------------------
 BYTE   PATT
  POIN2 Label_4_01387309
// 061   ----------------------------------------
 BYTE   PATT
  POIN2 Label_4_0138734C
// 062   ----------------------------------------
 BYTE   PATT
  POIN2 Label_4_0138738F
// 063   ----------------------------------------
 BYTE   PATT
  POIN2 Label_4_013872C6
// 064   ----------------------------------------
 BYTE   PATT
  POIN2 Label_4_01387309
// 065   ----------------------------------------
 BYTE   PATT
  POIN2 Label_4_013873DC
// 066   ----------------------------------------
 BYTE   PATT
  POIN2 Label_4_0138738F
// 067   ----------------------------------------
 BYTE   N03  Cn4  v108
 BYTE   W03
 BYTE   Bn3
 BYTE   W03
 BYTE   An3
 BYTE   W01
 BYTE   W02
 BYTE   En3
 BYTE   W03
 BYTE   Cn4
 BYTE   W03
 BYTE   Bn3
 BYTE   W03
 BYTE   An3
 BYTE   W03
 BYTE   En3
 BYTE   W03
 BYTE   Cn4
 BYTE   W03
 BYTE   Bn3
 BYTE   W03
 BYTE   An3
 BYTE   W01
 BYTE   W02
 BYTE   En3
 BYTE   W03
 BYTE   Cn4
 BYTE   W03
 BYTE   Bn3
 BYTE   W03
 BYTE   An3
 BYTE   W03
 BYTE   En3
 BYTE   W03
 BYTE   Cn4
 BYTE   W03
 BYTE   Bn3
 BYTE   W03
 BYTE   An3
 BYTE   W01
 BYTE   W02
 BYTE   En3
 BYTE   W03
 BYTE   Cn4
 BYTE   W03
 BYTE   Bn3
 BYTE   W03
 BYTE   An3
 BYTE   W03
 BYTE   En3
 BYTE   W03
 BYTE   Cn4
 BYTE   W03
 BYTE   Bn3
 BYTE   W03
 BYTE   An3
 BYTE   W01
 BYTE   W02
 BYTE   En3
 BYTE   W03
 BYTE   Cn4
 BYTE   W03
 BYTE   Bn3
 BYTE   W03
 BYTE   An3
 BYTE   W03
 BYTE   En3
 BYTE   W03
// 068   ----------------------------------------
 BYTE   Cn4
 BYTE   W03
 BYTE   Bn3
 BYTE   W03
 BYTE   An3
 BYTE   W02
 BYTE   W01
 BYTE   Fn3
 BYTE   W03
 BYTE   Cn4
 BYTE   W03
 BYTE   Bn3
 BYTE   W03
 BYTE   An3
 BYTE   W03
 BYTE   Fn3
 BYTE   W03
 BYTE   Cn4
 BYTE   W03
 BYTE   Bn3
 BYTE   W03
 BYTE   An3
 BYTE   W02
 BYTE   W01
 BYTE   Fn3
 BYTE   W03
 BYTE   Cn4
 BYTE   W03
 BYTE   Bn3
 BYTE   W03
 BYTE   An3
 BYTE   W03
 BYTE   Fn3
 BYTE   W03
 BYTE   Cn4
 BYTE   W03
 BYTE   Bn3
 BYTE   W03
 BYTE   An3
 BYTE   W02
 BYTE   W01
 BYTE   Fn3
 BYTE   W03
 BYTE   Cn4
 BYTE   W03
 BYTE   Bn3
 BYTE   W03
 BYTE   An3
 BYTE   W03
 BYTE   Fn3
 BYTE   W03
 BYTE   Cn4
 BYTE   W03
 BYTE   Bn3
 BYTE   W03
 BYTE   An3
 BYTE   W03
 BYTE   Fn3
 BYTE   W03
 BYTE   Cn4
 BYTE   W03
 BYTE   Bn3
 BYTE   W03
 BYTE   An3
 BYTE   W03
 BYTE   Fn3
 BYTE   W03
// 069   ----------------------------------------
 BYTE   Dn4
 BYTE   W03
 BYTE   Cn4
 BYTE   W03
 BYTE   Bn3
 BYTE   W03
 BYTE   Gn3
 BYTE   W03
 BYTE   Dn4
 BYTE   W03
 BYTE   Cn4
 BYTE   W03
 BYTE   Bn3
 BYTE   W03
 BYTE   Gn3
 BYTE   W03
 BYTE   Dn4
 BYTE   W03
 BYTE   Cn4
 BYTE   W03
 BYTE   Bn3
 BYTE   W03
 BYTE   Gn3
 BYTE   W03
 BYTE   Dn4
 BYTE   W03
 BYTE   Cn4
 BYTE   W03
 BYTE   Bn3
 BYTE   W03
 BYTE   Gn3
 BYTE   W03
 BYTE   Dn4
 BYTE   W03
 BYTE   Cn4
 BYTE   W03
 BYTE   Bn3
 BYTE   W03
 BYTE   Gn3
 BYTE   W03
 BYTE   Dn4
 BYTE   W03
 BYTE   Cn4
 BYTE   W03
 BYTE   Bn3
 BYTE   W03
 BYTE   Gn3
 BYTE   W03
 BYTE   Dn4
 BYTE   W03
 BYTE   Cn4
 BYTE   W03
 BYTE   Bn3
 BYTE   W03
 BYTE   Gn3
 BYTE   W01
 BYTE   W02
 BYTE   Dn4
 BYTE   W03
 BYTE   Cn4
 BYTE   W03
 BYTE   N06  Bn3
 BYTE   W06
// 070   ----------------------------------------
 BYTE   N03  Cn4
 BYTE   W03
 BYTE   Bn3
 BYTE   W03
 BYTE   An3
 BYTE   W03
 BYTE   En3
 BYTE   W01
 BYTE   W02
 BYTE   Cn4
 BYTE   W03
 BYTE   Bn3
 BYTE   W03
 BYTE   An3
 BYTE   W03
 BYTE   En3
 BYTE   W03
 BYTE   Cn4
 BYTE   W03
 BYTE   Bn3
 BYTE   W03
 BYTE   An3
 BYTE   W03
 BYTE   En3
 BYTE   W01
 BYTE   W02
 BYTE   Cn4
 BYTE   W03
 BYTE   Bn3
 BYTE   W03
 BYTE   An3
 BYTE   W03
 BYTE   En3
 BYTE   W03
 BYTE   Cn4
 BYTE   W03
 BYTE   Bn3
 BYTE   W03
 BYTE   An3
 BYTE   W03
 BYTE   En3
 BYTE   W02
 BYTE   W01
 BYTE   Cn4
 BYTE   W03
 BYTE   Bn3
 BYTE   W03
 BYTE   An3
 BYTE   W03
 BYTE   En3
 BYTE   W03
 BYTE   Cn4
 BYTE   W03
 BYTE   Bn3
 BYTE   W03
 BYTE   An3
 BYTE   W03
 BYTE   En3
 BYTE   W02
 BYTE   W01
 BYTE   Cn4
 BYTE   W03
 BYTE   Bn3
 BYTE   W03
 BYTE   Cn4
 BYTE   W03
 BYTE   En4
 BYTE   W03
// 071   ----------------------------------------
 BYTE   Cn4
 BYTE   W03
 BYTE   Bn3
 BYTE   W03
 BYTE   An3
 BYTE   W03
 BYTE   En3
 BYTE   W02
 BYTE   W01
 BYTE   Cn4
 BYTE   W03
 BYTE   Bn3
 BYTE   W03
 BYTE   An3
 BYTE   W03
 BYTE   En3
 BYTE   W03
 BYTE   Cn4
 BYTE   W03
 BYTE   Bn3
 BYTE   W03
 BYTE   An3
 BYTE   W03
 BYTE   En3
 BYTE   W02
 BYTE   W01
 BYTE   Cn4
 BYTE   W03
 BYTE   Bn3
 BYTE   W03
 BYTE   An3
 BYTE   W03
 BYTE   En3
 BYTE   W03
 BYTE   Cn4
 BYTE   W03
 BYTE   Bn3
 BYTE   W03
 BYTE   An3
 BYTE   W03
 BYTE   En3
 BYTE   W03
 BYTE   Cn4
 BYTE   W03
 BYTE   Bn3
 BYTE   W03
 BYTE   An3
 BYTE   W03
 BYTE   En3
 BYTE   W03
 BYTE   Cn4
 BYTE   W03
 BYTE   Bn3
 BYTE   W03
 BYTE   An3
 BYTE   W03
 BYTE   En3
 BYTE   W03
 BYTE   Cn4
 BYTE   W03
 BYTE   Bn3
 BYTE   W03
 BYTE   An3
 BYTE   W03
 BYTE   En3
 BYTE   W03
// 072   ----------------------------------------
 BYTE   Cn4
 BYTE   W03
 BYTE   Bn3
 BYTE   W03
 BYTE   An3
 BYTE   W03
 BYTE   Fn3
 BYTE   W03
 BYTE   Cn4
 BYTE   W03
 BYTE   Bn3
 BYTE   W03
 BYTE   An3
 BYTE   W03
 BYTE   Fn3
 BYTE   W03
 BYTE   Cn4
 BYTE   W03
 BYTE   Bn3
 BYTE   W03
 BYTE   An3
 BYTE   W03
 BYTE   Fn3
 BYTE   W03
 BYTE   Cn4
 BYTE   W01
 BYTE   W02
 BYTE   Bn3
 BYTE   W03
 BYTE   An3
 BYTE   W03
 BYTE   Fn3
 BYTE   W03
 BYTE   Cn4
 BYTE   W03
 BYTE   Bn3
 BYTE   W03
 BYTE   An3
 BYTE   W03
 BYTE   Fn3
 BYTE   W03
 BYTE   Cn4
 BYTE   W01
 BYTE   W02
 BYTE   Bn3
 BYTE   W03
 BYTE   An3
 BYTE   W03
 BYTE   Fn3
 BYTE   W03
 BYTE   Cn4
 BYTE   W03
 BYTE   Bn3
 BYTE   W03
 BYTE   An3
 BYTE   W03
 BYTE   Fn3
 BYTE   W03
 BYTE   Cn4
 BYTE   W01
 BYTE   W02
 BYTE   Bn3
 BYTE   W03
 BYTE   An3
 BYTE   W03
 BYTE   Fn3
 BYTE   W03
// 073   ----------------------------------------
 BYTE   Dn4
 BYTE   W03
 BYTE   Cn4
 BYTE   W03
 BYTE   Bn3
 BYTE   W03
 BYTE   Gn3
 BYTE   W03
 BYTE   Dn4
 BYTE   W01
 BYTE   W02
 BYTE   Cn4
 BYTE   W03
 BYTE   Bn3
 BYTE   W03
 BYTE   Gn3
 BYTE   W03
 BYTE   Dn4
 BYTE   W03
 BYTE   Cn4
 BYTE   W03
 BYTE   Bn3
 BYTE   W03
 BYTE   Gn3
 BYTE   W03
 BYTE   Dn4
 BYTE   W02
 BYTE   W01
 BYTE   Cn4
 BYTE   W03
 BYTE   Bn3
 BYTE   W03
 BYTE   Gn3
 BYTE   W03
 BYTE   Dn4
 BYTE   W03
 BYTE   Cn4
 BYTE   W03
 BYTE   Bn3
 BYTE   W03
 BYTE   Gn3
 BYTE   W03
 BYTE   Dn4
 BYTE   W02
 BYTE   W01
 BYTE   Cn4
 BYTE   W03
 BYTE   Bn3
 BYTE   W03
 BYTE   Gn3
 BYTE   W03
 BYTE   Dn4
 BYTE   W03
 BYTE   Cn4
 BYTE   W03
 BYTE   Bn3
 BYTE   W03
 BYTE   Gn3
 BYTE   W03
 BYTE   Dn4
 BYTE   W02
 BYTE   W01
 BYTE   Cn4
 BYTE   W03
 BYTE   N06  Bn3
 BYTE   W06
// 074   ----------------------------------------
 BYTE   N03  Cn4
 BYTE   W03
 BYTE   Bn3
 BYTE   W03
 BYTE   An3
 BYTE   W03
 BYTE   En3
 BYTE   W03
 BYTE   Cn4
 BYTE   W03
 BYTE   Bn3
 BYTE   W03
 BYTE   An3
 BYTE   W03
 BYTE   En3
 BYTE   W03
 BYTE   Cn4
 BYTE   W03
 BYTE   Bn3
 BYTE   W03
 BYTE   An3
 BYTE   W03
 BYTE   En3
 BYTE   W03
 BYTE   Cn4
 BYTE   W03
 BYTE   Bn3
 BYTE   W03
 BYTE   An3
 BYTE   W03
 BYTE   En3
 BYTE   W03
 BYTE   Cn4
 BYTE   W03
 BYTE   Bn3
 BYTE   W03
 BYTE   An3
 BYTE   W03
 BYTE   En3
 BYTE   W03
 BYTE   Cn4
 BYTE   W03
 BYTE   Bn3
 BYTE   W03
 BYTE   An3
 BYTE   W03
 BYTE   En3
 BYTE   W03
 BYTE   Cn4
 BYTE   W03
 BYTE   Bn3
 BYTE   W03
 BYTE   An3
 BYTE   W03
 BYTE   En3
 BYTE   W03
 BYTE   Cn4
 BYTE   W03
 BYTE   Bn3
 BYTE   W03
 BYTE   Cn4
 BYTE   W03
 BYTE   En4
 BYTE   W03
 BYTE   FINE

//**************** Track 6 (Midi-Chn.5) ****************//

song2C_006:
// 000   ----------------------------------------
 BYTE   KEYSH   song2C_key+0
 BYTE   VOICE   81
 BYTE   PAN   c_v+0
 BYTE   VOL   45*song2C_mvl/mxv
 BYTE   MOD 0
 BYTE   CnM1
 BYTE   TIE  An1  v096
 BYTE   W96
// 001   ----------------------------------------
 BYTE   W72
 BYTE   EOT
 BYTE   W24
// 002   ----------------------------------------
Label_5_013876F1:
 BYTE   W96
// 003   ----------------------------------------
 BYTE   W96
// 004   ----------------------------------------
 BYTE   W96
// 005   ----------------------------------------
 BYTE   W96
// 006   ----------------------------------------
 BYTE   W96
// 007   ----------------------------------------
 BYTE   W96
// 008   ----------------------------------------
 BYTE   W96
// 009   ----------------------------------------
 BYTE   W96
// 010   ----------------------------------------
 BYTE   W96
// 011   ----------------------------------------
 BYTE   W96
// 012   ----------------------------------------
 BYTE   W96
// 013   ----------------------------------------
 BYTE   W96
// 014   ----------------------------------------
 BYTE   W96
// 015   ----------------------------------------
 BYTE   W96
// 016   ----------------------------------------
 BYTE   W96
// 017   ----------------------------------------
 BYTE   W96
// 018   ----------------------------------------
 BYTE   W96
// 019   ----------------------------------------
 BYTE   W96
// 020   ----------------------------------------
 BYTE   W96
// 021   ----------------------------------------
 BYTE   W96
// 022   ----------------------------------------
 BYTE   W96
// 023   ----------------------------------------
 BYTE   W96
// 024   ----------------------------------------
 BYTE   W96
// 025   ----------------------------------------
 BYTE   W96
// 026   ----------------------------------------
Label_5_01387709:
 BYTE   N06  An2  v108
 BYTE   W06
 BYTE   N06
 BYTE   W06
 BYTE   N06
 BYTE   W06
 BYTE   N06
 BYTE   W12
 BYTE   N06
 BYTE   W12
 BYTE   N06
 BYTE   W12
 BYTE   N06
 BYTE   W06
 BYTE   N06
 BYTE   W12
 BYTE   N12
 BYTE   W24
 BYTE   PEND 
// 027   ----------------------------------------
 BYTE   PATT
  POIN2 Label_5_01387709
// 028   ----------------------------------------
Label_5_01387723:
 BYTE   N06  Bn2  v108
 BYTE   W06
 BYTE   N06
 BYTE   W06
 BYTE   An2
 BYTE   W06
 BYTE   Bn2
 BYTE   W12
 BYTE   An2
 BYTE   W12
 BYTE   Cn3
 BYTE   W12
 BYTE   Bn2
 BYTE   W06
 BYTE   An2
 BYTE   W12
 BYTE   N12  Bn2
 BYTE   W24
 BYTE   PEND 
// 029   ----------------------------------------
 BYTE   PATT
  POIN2 Label_5_01387709
// 030   ----------------------------------------
 BYTE   PATT
  POIN2 Label_5_01387709
// 031   ----------------------------------------
 BYTE   PATT
  POIN2 Label_5_01387709
// 032   ----------------------------------------
 BYTE   PATT
  POIN2 Label_5_01387723
// 033   ----------------------------------------
 BYTE   PATT
  POIN2 Label_5_01387709
// 034   ----------------------------------------
 BYTE   GoTo
  POIN2 Label_5_013876F1
// 035   ----------------------------------------
 BYTE   W96
// 036   ----------------------------------------
 BYTE   W96
// 037   ----------------------------------------
 BYTE   W96
// 038   ----------------------------------------
 BYTE   W96
// 039   ----------------------------------------
 BYTE   W96
// 040   ----------------------------------------
 BYTE   W96
// 041   ----------------------------------------
 BYTE   W96
// 042   ----------------------------------------
 BYTE   W96
// 043   ----------------------------------------
 BYTE   W96
// 044   ----------------------------------------
 BYTE   W96
// 045   ----------------------------------------
 BYTE   W96
// 046   ----------------------------------------
 BYTE   W96
// 047   ----------------------------------------
 BYTE   W96
// 048   ----------------------------------------
 BYTE   W96
// 049   ----------------------------------------
 BYTE   W96
// 050   ----------------------------------------
 BYTE   W96
// 051   ----------------------------------------
 BYTE   W96
// 052   ----------------------------------------
 BYTE   W96
// 053   ----------------------------------------
 BYTE   W96
// 054   ----------------------------------------
 BYTE   W96
// 055   ----------------------------------------
 BYTE   W96
// 056   ----------------------------------------
 BYTE   W96
// 057   ----------------------------------------
 BYTE   W96
// 058   ----------------------------------------
 BYTE   W96
// 059   ----------------------------------------
 BYTE   PATT
  POIN2 Label_5_01387709
// 060   ----------------------------------------
 BYTE   PATT
  POIN2 Label_5_01387709
// 061   ----------------------------------------
 BYTE   PATT
  POIN2 Label_5_01387723
// 062   ----------------------------------------
 BYTE   PATT
  POIN2 Label_5_01387709
// 063   ----------------------------------------
 BYTE   PATT
  POIN2 Label_5_01387709
// 064   ----------------------------------------
 BYTE   PATT
  POIN2 Label_5_01387709
// 065   ----------------------------------------
 BYTE   PATT
  POIN2 Label_5_01387723
// 066   ----------------------------------------
 BYTE   PATT
  POIN2 Label_5_01387709
// 067   ----------------------------------------
 BYTE   N06  An2  v108
 BYTE   W06
 BYTE   N06
 BYTE   W01
 BYTE   W05
 BYTE   N06
 BYTE   W06
 BYTE   N06
 BYTE   W12
 BYTE   N06
 BYTE   W01
 BYTE   W11
 BYTE   N06
 BYTE   W12
 BYTE   N06
 BYTE   W01
 BYTE   W05
 BYTE   N06
 BYTE   W12
 BYTE   N12
 BYTE   W07
 BYTE   W17
// 068   ----------------------------------------
 BYTE   N06
 BYTE   W06
 BYTE   N06
 BYTE   W02
 BYTE   W04
 BYTE   N06
 BYTE   W06
 BYTE   N06
 BYTE   W12
 BYTE   N06
 BYTE   W02
 BYTE   W10
 BYTE   N06
 BYTE   W12
 BYTE   N06
 BYTE   W02
 BYTE   W04
 BYTE   N06
 BYTE   W12
 BYTE   N12
 BYTE   W09
 BYTE   W15
// 069   ----------------------------------------
 BYTE   N06  Bn2
 BYTE   W06
 BYTE   N06
 BYTE   W03
 BYTE   W03
 BYTE   An2
 BYTE   W06
 BYTE   Bn2
 BYTE   W12
 BYTE   An2
 BYTE   W03
 BYTE   W09
 BYTE   Cn3
 BYTE   W12
 BYTE   Bn2
 BYTE   W03
 BYTE   W03
 BYTE   An2
 BYTE   W12
 BYTE   N12  Bn2
 BYTE   W10
 BYTE   W14
// 070   ----------------------------------------
 BYTE   N06  An2
 BYTE   W06
 BYTE   N06
 BYTE   W04
 BYTE   W02
 BYTE   N06
 BYTE   W06
 BYTE   N06
 BYTE   W12
 BYTE   N06
 BYTE   W04
 BYTE   W08
 BYTE   N06
 BYTE   W12
 BYTE   N06
 BYTE   W05
 BYTE   W01
 BYTE   N06
 BYTE   W12
 BYTE   N12
 BYTE   W11
 BYTE   W13
// 071   ----------------------------------------
 BYTE   N06
 BYTE   W06
 BYTE   N06
 BYTE   W05
 BYTE   W01
 BYTE   N06
 BYTE   W06
 BYTE   N06
 BYTE   W12
 BYTE   N06
 BYTE   W05
 BYTE   W07
 BYTE   N06
 BYTE   W12
 BYTE   N06
 BYTE   W06
 BYTE   N06
 BYTE   W12
 BYTE   N12
 BYTE   W12
 BYTE   W12
// 072   ----------------------------------------
 BYTE   N06
 BYTE   W06
 BYTE   N06
 BYTE   W06
 BYTE   N06
 BYTE   W06
 BYTE   N06
 BYTE   W12
 BYTE   N06
 BYTE   W07
 BYTE   W05
 BYTE   N06
 BYTE   W12
 BYTE   N06
 BYTE   W06
 BYTE   N06
 BYTE   W01
 BYTE   W11
 BYTE   N12
 BYTE   W13
 BYTE   W11
// 073   ----------------------------------------
 BYTE   N06  Bn2
 BYTE   W06
 BYTE   N06
 BYTE   W06
 BYTE   An2
 BYTE   W01
 BYTE   W05
 BYTE   Bn2
 BYTE   W12
 BYTE   An2
 BYTE   W08
 BYTE   W04
 BYTE   Cn3
 BYTE   W12
 BYTE   Bn2
 BYTE   W06
 BYTE   An2
 BYTE   W02
 BYTE   W10
 BYTE   N12  Bn2
 BYTE   W14
 BYTE   W10
// 074   ----------------------------------------
 BYTE   N06  An2
 BYTE   W06
 BYTE   N06
 BYTE   W06
 BYTE   N06
 BYTE   W03
 BYTE   W03
 BYTE   N06
 BYTE   W12
 BYTE   N06
 BYTE   W09
 BYTE   W03
 BYTE   N06
 BYTE   W12
 BYTE   N06
 BYTE   W06
 BYTE   N06
 BYTE   W03
 BYTE   W09
 BYTE   N12
 BYTE   W15
 BYTE   W06
 BYTE   W03
 BYTE   FINE

//**************** Track 7 (Midi-Chn.6) ****************//

song2C_007:
// 000   ----------------------------------------
 BYTE   KEYSH   song2C_key+0
 BYTE   VOICE   30
 BYTE   PAN   c_v+40
 BYTE   VOL   39*song2C_mvl/mxv
 BYTE   BEND   c_v-20
 BYTE   N05  An2  v104
 BYTE   W01
 BYTE   BEND   c_v-9
 BYTE   W01
 BYTE   Cs3
 BYTE   W01
 BYTE   En3
 BYTE   W03
 BYTE   N11  En2  v096
 BYTE   W06
 BYTE   BEND   c_v-2
 BYTE   W01
 BYTE   MOD 0
 BYTE   DnM1
 BYTE   BEND   c_v-3
 BYTE   W01
 BYTE   Bn2
 BYTE   W01
 BYTE   MOD 0
 BYTE   Cs0
 BYTE   W01
 BYTE   BEND   c_v-9
 BYTE   W01
 BYTE   Fn2
 BYTE   W01
 BYTE   MOD 0
 BYTE   CnM2
 BYTE   BEND   c_v-8
 BYTE   N11  Gn2
 BYTE   W01
 BYTE   BEND   c_v-3
 BYTE   W02
 BYTE   En3
 BYTE   W06
 BYTE   Dn3
 BYTE   W01
 BYTE   Cn3
 BYTE   W02
 BYTE   Bn2
 BYTE   N12  En2  v092
 BYTE   W01
 BYTE   BEND   c_v-3
 BYTE   W01
 BYTE   En3
 BYTE   W06
 BYTE   Ds3
 BYTE   W01
 BYTE   MOD 0
 BYTE   Cs0
 BYTE   BEND   c_v-5
 BYTE   W01
 BYTE   Cs3
 BYTE   W01
 BYTE   Ds3
 BYTE   W01
 BYTE   MOD 0
 BYTE   CnM2
 BYTE   BEND   c_v+0
 BYTE   N11  Gn2  v096
 BYTE   W12
 BYTE   N05  En2  v092
 BYTE   W06
 BYTE   Cn3  v096
 BYTE   W06
 BYTE   En2  v092
 BYTE   W06
 BYTE   N06  Bn2  v100
 BYTE   W06
 BYTE   N05  En2  v096
 BYTE   W06
 BYTE   An2  v104
 BYTE   W06
 BYTE   En2  v100
 BYTE   W06
// 001   ----------------------------------------
 BYTE   BEND   c_v-7
 BYTE   N05  An2  v104
 BYTE   W01
 BYTE   BEND   c_v-5
 BYTE   W01
 BYTE   Cs3
 BYTE   W01
 BYTE   En3
 BYTE   W03
 BYTE   N11  En2  v096
 BYTE   W04
 BYTE   BEND   c_v-2
 BYTE   W02
 BYTE   Cn3
 BYTE   W01
 BYTE   As2
 BYTE   W01
 BYTE   MOD 0
 BYTE   AsM1
 BYTE   BEND   c_v-3
 BYTE   W01
 BYTE   Ds3
 BYTE   W01
 BYTE   MOD 0
 BYTE   FnM1
 BYTE   BEND   c_v+0
 BYTE   W02
 BYTE   MOD 0
 BYTE   CsM2
 BYTE   N11  Gn2  v100
 BYTE   W01
 BYTE   MOD 0
 BYTE   CnM2
 BYTE   W07
 BYTE   BEND   c_v-1
 BYTE   W01
 BYTE   Bn2
 BYTE   W01
 BYTE   Bn2
 BYTE   W01
 BYTE   En3
 BYTE   W01
 BYTE   N11  En2  v096
 BYTE   W07
 BYTE   MOD 0
 BYTE   FnM2
 BYTE   W02
 BYTE   DsM1
 BYTE   BEND   c_v-2
 BYTE   W02
 BYTE   MOD 0
 BYTE   Cn0
 BYTE   BEND   c_v-3
 BYTE   W01
 BYTE   MOD 0
 BYTE   FnM1
 BYTE   BEND   c_v-1
 BYTE   N11  Gn2  v104
 BYTE   W01
 BYTE   BEND   c_v+0
 BYTE   W01
 BYTE   MOD 0
 BYTE   CnM2
 BYTE   W10
 BYTE   N05  En2  v096
 BYTE   W06
 BYTE   Cn3  v100
 BYTE   W06
 BYTE   En2
 BYTE   W06
 BYTE   Bn2  v108
 BYTE   W06
 BYTE   En2  v104
 BYTE   W06
 BYTE   An2  v116
 BYTE   W06
 BYTE   En2  v112
 BYTE   W06
// 002   ----------------------------------------
Label_6_01387929:
 BYTE   N05  An2  v116
 BYTE   W06
 BYTE   N06  En2  v112
 BYTE   W06
 BYTE   N05  Gn2
 BYTE   W06
 BYTE   MOD 0
 BYTE   FsM2
 BYTE   N11  An2  v124
 BYTE   W04
 BYTE   MOD 0
 BYTE   GnM1
 BYTE   W03
 BYTE   CnM2
 BYTE   W05
 BYTE   N05  En2  v112
 BYTE   W06
 BYTE   Gn2  v116
 BYTE   W06
 BYTE   N11  An2  v124
 BYTE   W02
 BYTE   MOD 0
 BYTE   Dn0
 BYTE   W01
 BYTE   Fn1
 BYTE   W03
 BYTE   GnM1
 BYTE   W01
 BYTE   CnM2
 BYTE   W05
 BYTE   N05  En2  v108
 BYTE   W06
 BYTE   Gn2  v116
 BYTE   W06
 BYTE   MOD 0
 BYTE   Ds0
 BYTE   N11  An2  v127
 BYTE   W01
 BYTE   MOD 0
 BYTE   Gn2
 BYTE   W02
 BYTE   An3
 BYTE   W02
 BYTE   An0
 BYTE   W03
 BYTE   CnM2
 BYTE   W04
 BYTE   N05  En2  v112
 BYTE   W06
 BYTE   Gn2  v116
 BYTE   W06
 BYTE   An2  v127
 BYTE   W06
 BYTE   PEND 
// 003   ----------------------------------------
Label_6_01387974:
 BYTE   N05  An2  v124
 BYTE   W06
 BYTE   En2  v120
 BYTE   W06
 BYTE   Gn2
 BYTE   W05
 BYTE   MOD 0
 BYTE   EnM2
 BYTE   W01
 BYTE   N12  An2  v127
 BYTE   W01
 BYTE   MOD 0
 BYTE   EnM1
 BYTE   W02
 BYTE   Cn0
 BYTE   W01
 BYTE   AsM2
 BYTE   W01
 BYTE   CnM2
 BYTE   W07
 BYTE   N06  En2  v112
 BYTE   W06
 BYTE   N05  Gn2  v120
 BYTE   W06
 BYTE   MOD 0
 BYTE   FnM1
 BYTE   N11  An2  v127
 BYTE   W01
 BYTE   MOD 0
 BYTE   Cs2
 BYTE   W02
 BYTE   Fs0
 BYTE   W01
 BYTE   DsM1
 BYTE   W02
 BYTE   CnM2
 BYTE   W06
 BYTE   N05  En2  v112
 BYTE   W06
 BYTE   Gn2  v120
 BYTE   W06
 BYTE   N11  An2  v127
 BYTE   W01
 BYTE   MOD 0
 BYTE   As0
 BYTE   W02
 BYTE   Cn4
 BYTE   W01
 BYTE   Dn2
 BYTE   W04
 BYTE   Cn0
 BYTE   W02
 BYTE   CnM2
 BYTE   W02
 BYTE   N05  En2  v116
 BYTE   W06
 BYTE   Gn2  v120
 BYTE   W06
 BYTE   An2  v127
 BYTE   W06
 BYTE   PEND 
// 004   ----------------------------------------
Label_6_013879C5:
 BYTE   N05  An2  v124
 BYTE   W06
 BYTE   En2  v116
 BYTE   W06
 BYTE   Gn2
 BYTE   W04
 BYTE   MOD 0
 BYTE   FsM2
 BYTE   W02
 BYTE   Fs0
 BYTE   N11  An2  v124
 BYTE   W02
 BYTE   MOD 0
 BYTE   Fs0
 BYTE   W01
 BYTE   Cn0
 BYTE   W02
 BYTE   CnM1
 BYTE   W02
 BYTE   CnM2
 BYTE   W05
 BYTE   N05  En2  v116
 BYTE   W06
 BYTE   Gn2  v124
 BYTE   W05
 BYTE   MOD 0
 BYTE   AsM1
 BYTE   W01
 BYTE   N11  An2  v127
 BYTE   W01
 BYTE   MOD 0
 BYTE   Dn0
 BYTE   W02
 BYTE   CnM2
 BYTE   W09
 BYTE   N05  En2  v116
 BYTE   W06
 BYTE   Gn2  v120
 BYTE   W06
 BYTE   MOD 0
 BYTE   FsM2
 BYTE   N11  An2  v127
 BYTE   W02
 BYTE   MOD 0
 BYTE   FsM1
 BYTE   W02
 BYTE   En2
 BYTE   W02
 BYTE   Cn0
 BYTE   W03
 BYTE   CnM2
 BYTE   W03
 BYTE   N05  En2  v112
 BYTE   W06
 BYTE   Gn2  v120
 BYTE   W06
 BYTE   An2  v127
 BYTE   W06
 BYTE   PEND 
// 005   ----------------------------------------
Label_6_01387A13:
 BYTE   N05  An2  v124
 BYTE   W06
 BYTE   En2  v120
 BYTE   W06
 BYTE   Gn2
 BYTE   W06
 BYTE   MOD 0
 BYTE   Dn0
 BYTE   N11  An2  v124
 BYTE   W02
 BYTE   MOD 0
 BYTE   Fn1
 BYTE   W02
 BYTE   CnM2
 BYTE   W08
 BYTE   N05  En2  v120
 BYTE   W06
 BYTE   Gn2
 BYTE   W03
 BYTE   MOD 0
 BYTE   CsM1
 BYTE   W03
 BYTE   Gs2
 BYTE   N10  An2  v124
 BYTE   W02
 BYTE   MOD 0
 BYTE   AsM2
 BYTE   W01
 BYTE   CnM2
 BYTE   W09
 BYTE   N05  Cn3  v127
 BYTE   W06
 BYTE   Bn2  v124
 BYTE   W06
 BYTE   An2
 BYTE   W04
 BYTE   MOD 0
 BYTE   GsM2
 BYTE   W02
 BYTE   N05  Bn2
 BYTE   W02
 BYTE   MOD 0
 BYTE   CsM1
 BYTE   W04
 BYTE   AnM1
 BYTE   N05  An2
 BYTE   W03
 BYTE   MOD 0
 BYTE   Cs0
 BYTE   W02
 BYTE   BEND   c_v-24
 BYTE   W01
 BYTE   MOD 0
 BYTE   Fs0
 BYTE   BEND   c_v-16
 BYTE   N11  Gn2  v127
 BYTE   W01
 BYTE   BEND   c_v-8
 BYTE   W01
 BYTE   MOD 0
 BYTE   Bn0
 BYTE   BEND   c_v-4
 BYTE   W01
 BYTE   En3
 BYTE   W04
 BYTE   MOD 0
 BYTE   En2
 BYTE   BEND   c_v-2
 BYTE   W01
 BYTE   As2
 BYTE   W01
 BYTE   Gs2
 BYTE   W01
 BYTE   Ds2
 BYTE   W01
 BYTE   MOD 0
 BYTE   CnM2
 BYTE   BEND   c_v-2
 BYTE   W01
 BYTE   PEND 
// 006   ----------------------------------------
Label_6_01387A79:
 BYTE   BEND   c_v+0
 BYTE   N05  An2  v124
 BYTE   W06
 BYTE   En2  v120
 BYTE   W06
 BYTE   Gn2
 BYTE   W04
 BYTE   MOD 0
 BYTE   DsM2
 BYTE   W02
 BYTE   N11  An2  v127
 BYTE   W01
 BYTE   MOD 0
 BYTE   FnM1
 BYTE   W02
 BYTE   Ds0
 BYTE   W02
 BYTE   DsM2
 BYTE   W01
 BYTE   CnM2
 BYTE   W06
 BYTE   N05  En2  v116
 BYTE   W06
 BYTE   Gn2  v124
 BYTE   W06
 BYTE   MOD 0
 BYTE   DsM1
 BYTE   N11  An2  v127
 BYTE   W02
 BYTE   MOD 0
 BYTE   An0
 BYTE   W01
 BYTE   Cn2
 BYTE   W02
 BYTE   Fs0
 BYTE   W03
 BYTE   CnM2
 BYTE   W04
 BYTE   N05  En2  v116
 BYTE   W06
 BYTE   Gn2  v124
 BYTE   W06
 BYTE   MOD 0
 BYTE   GsM1
 BYTE   N11  An2  v127
 BYTE   W04
 BYTE   MOD 0
 BYTE   En3
 BYTE   W04
 BYTE   Bn0
 BYTE   W03
 BYTE   EnM1
 BYTE   W01
 BYTE   FsM2
 BYTE   N06  En2  v116
 BYTE   W01
 BYTE   MOD 0
 BYTE   CnM2
 BYTE   W05
 BYTE   N05  Gn2
 BYTE   W06
 BYTE   An2  v127
 BYTE   W06
 BYTE   PEND 
// 007   ----------------------------------------
Label_6_01387ACD:
 BYTE   N05  An2  v124
 BYTE   W06
 BYTE   En2
 BYTE   W06
 BYTE   Gn2  v127
 BYTE   W04
 BYTE   MOD 0
 BYTE   DnM2
 BYTE   W02
 BYTE   BnM2
 BYTE   N11  An2  v116
 BYTE   W01
 BYTE   MOD 0
 BYTE   En0
 BYTE   W01
 BYTE   Bn0
 BYTE   W03
 BYTE   FnM1
 BYTE   W02
 BYTE   DsM2
 BYTE   W01
 BYTE   CnM2
 BYTE   W04
 BYTE   N05  En2
 BYTE   W06
 BYTE   Gn2  v120
 BYTE   W05
 BYTE   MOD 0
 BYTE   AnM2
 BYTE   W01
 BYTE   N11  An2  v127
 BYTE   W01
 BYTE   MOD 0
 BYTE   Dn0
 BYTE   W02
 BYTE   Cn2
 BYTE   W02
 BYTE   Dn0
 BYTE   W01
 BYTE   GnM2
 BYTE   W01
 BYTE   CnM2
 BYTE   W05
 BYTE   N05  En2  v112
 BYTE   W06
 BYTE   Gn2  v120
 BYTE   W03
 BYTE   MOD 0
 BYTE   EnM2
 BYTE   W02
 BYTE   En0
 BYTE   W01
 BYTE   N11  An2  v124
 BYTE   W03
 BYTE   MOD 0
 BYTE   Fn3
 BYTE   W05
 BYTE   CnM2
 BYTE   W04
 BYTE   N05  En2  v116
 BYTE   W06
 BYTE   Gn2  v120
 BYTE   W06
 BYTE   N06  An2
 BYTE   W06
 BYTE   PEND 
// 008   ----------------------------------------
Label_6_01387B21:
 BYTE   N05  An2  v124
 BYTE   W06
 BYTE   En2  v120
 BYTE   W06
 BYTE   Gn2  v124
 BYTE   W03
 BYTE   MOD 0
 BYTE   GsM2
 BYTE   W01
 BYTE   GnM1
 BYTE   W02
 BYTE   An0
 BYTE   N11  An2  v127
 BYTE   W02
 BYTE   MOD 0
 BYTE   DnM1
 BYTE   W02
 BYTE   CsM2
 BYTE   W01
 BYTE   CnM2
 BYTE   W07
 BYTE   N05  En2  v112
 BYTE   W06
 BYTE   Gn2  v120
 BYTE   W04
 BYTE   MOD 0
 BYTE   GnM2
 BYTE   W02
 BYTE   N11  An2  v127
 BYTE   W01
 BYTE   MOD 0
 BYTE   Gn0
 BYTE   W03
 BYTE   AsM1
 BYTE   W01
 BYTE   DnM2
 BYTE   W01
 BYTE   CnM2
 BYTE   W06
 BYTE   N05  En2  v116
 BYTE   W06
 BYTE   Gn2  v120
 BYTE   W06
 BYTE   MOD 0
 BYTE   Gn0
 BYTE   N05  En2  v116
 BYTE   W03
 BYTE   MOD 0
 BYTE   Cn3
 BYTE   W03
 BYTE   N05  Cn3  v127
 BYTE   W01
 BYTE   MOD 0
 BYTE   Cs2
 BYTE   W05
 BYTE   Gn4
 BYTE   N05  En2  v120
 BYTE   W03
 BYTE   MOD 0
 BYTE   Dn3
 BYTE   W03
 BYTE   N05  Bn2  v127
 BYTE   W02
 BYTE   MOD 0
 BYTE   Gn2
 BYTE   W04
 BYTE   Cs5
 BYTE   N05  En2  v120
 BYTE   W02
 BYTE   MOD 0
 BYTE   Cn0
 BYTE   W01
 BYTE   CnM1
 BYTE   W01
 BYTE   CnM2
 BYTE   W02
 BYTE   PEND 
// 009   ----------------------------------------
Label_6_01387B86:
 BYTE   N05  An2  v116
 BYTE   W06
 BYTE   En2  v112
 BYTE   W06
 BYTE   Gn2  v120
 BYTE   W03
 BYTE   MOD 0
 BYTE   GnM2
 BYTE   W02
 BYTE   AnM1
 BYTE   W01
 BYTE   N11  An2  v127
 BYTE   W02
 BYTE   MOD 0
 BYTE   An1
 BYTE   W03
 BYTE   FsM2
 BYTE   W01
 BYTE   CnM2
 BYTE   W06
 BYTE   N05  En2  v116
 BYTE   W06
 BYTE   Gn2  v124
 BYTE   W05
 BYTE   MOD 0
 BYTE   GnM1
 BYTE   W01
 BYTE   N05  En2  v120
 BYTE   W02
 BYTE   MOD 0
 BYTE   En3
 BYTE   W01
 BYTE   Fn2
 BYTE   W02
 BYTE   CnM2
 BYTE   W01
 BYTE   N05  Cn3  v127
 BYTE   W06
 BYTE   En2  v124
 BYTE   W05
 BYTE   MOD 0
 BYTE   AnM2
 BYTE   W01
 BYTE   N05  Bn2
 BYTE   W01
 BYTE   MOD 0
 BYTE   FnM1
 BYTE   W03
 BYTE   Gn0
 BYTE   W02
 BYTE   N05  En2  v116
 BYTE   W02
 BYTE   MOD 0
 BYTE   Fn2
 BYTE   W03
 BYTE   Cs2
 BYTE   W01
 BYTE   BEND   c_v-8
 BYTE   N05  An2  v120
 BYTE   W01
 BYTE   BEND   c_v-4
 BYTE   W01
 BYTE   MOD 0
 BYTE   Fn1
 BYTE   BEND   c_v-2
 BYTE   W01
 BYTE   En3
 BYTE   W01
 BYTE   MOD 0
 BYTE   Gn1
 BYTE   W01
 BYTE   Bn1
 BYTE   W01
 BYTE   N05  En2  v116
 BYTE   W02
 BYTE   MOD 0
 BYTE   En3
 BYTE   W04
 BYTE   Gs4
 BYTE   BEND   c_v-15
 BYTE   N11  Gn2  v124
 BYTE   W01
 BYTE   BEND   c_v-10
 BYTE   W01
 BYTE   Cn3
 BYTE   W01
 BYTE   En3
 BYTE   W01
 BYTE   MOD 0
 BYTE   Cs4
 BYTE   W04
 BYTE   Gs4
 BYTE   BEND   c_v-1
 BYTE   W01
 BYTE   Bn2
 BYTE   W01
 BYTE   MOD 0
 BYTE   Gn0
 BYTE   BEND   c_v-7
 BYTE   W01
 BYTE   Ds2
 BYTE   W01
 BYTE   PEND 
// 010   ----------------------------------------
Label_6_01387C0B:
 BYTE   BEND   c_v-6
 BYTE   N11  Fn2  v116
 BYTE   W01
 BYTE   BEND   c_v-1
 BYTE   W01
 BYTE   MOD 0
 BYTE   CnM2
 BYTE   BEND   c_v+0
 BYTE   W10
 BYTE   N05  Fn2  v088
 BYTE   W06
 BYTE   N11  An2  v120
 BYTE   W12
 BYTE   N05  An2  v092
 BYTE   W06
 BYTE   N11  Cn3  v120
 BYTE   W12
 BYTE   N04  Cn3  v096
 BYTE   W06
 BYTE   N11  En3  v127
 BYTE   W12
 BYTE   N05  En3  v096
 BYTE   W06
 BYTE   BEND   c_v-3
 BYTE   N11  Dn3  v120
 BYTE   W01
 BYTE   BEND   c_v+0
 BYTE   W01
 BYTE   MOD 0
 BYTE   DnM1
 BYTE   W04
 BYTE   An1
 BYTE   BEND   c_v-1
 BYTE   W01
 BYTE   Cs3
 BYTE   W01
 BYTE   Bn2
 BYTE   W01
 BYTE   MOD 0
 BYTE   Bn0
 BYTE   BEND   c_v-7
 BYTE   W01
 BYTE   Fn2
 BYTE   W01
 BYTE   Cn2
 BYTE   W01
 BYTE   Cs3
 BYTE   N11  Cn3  v116
 BYTE   W01
 BYTE   BEND   c_v+0
 BYTE   W01
 BYTE   MOD 0
 BYTE   Fs1
 BYTE   W04
 BYTE   As3
 BYTE   BEND   c_v+5
 BYTE   W01
 BYTE   Cs4
 BYTE   W01
 BYTE   Bn3
 BYTE   W01
 BYTE   MOD 0
 BYTE   Dn2
 BYTE   BEND   c_v+0
 BYTE   W01
 BYTE   MOD 0
 BYTE   Fs1
 BYTE   BEND   c_v-7
 BYTE   W01
 BYTE   Gn1
 BYTE   W01
 BYTE   PEND 
// 011   ----------------------------------------
Label_6_01387C72:
 BYTE   BEND   c_v+0
 BYTE   N11  Gn2  v120
 BYTE   W01
 BYTE   MOD 0
 BYTE   CnM2
 BYTE   W11
 BYTE   N05  Gn2  v084
 BYTE   W06
 BYTE   N11  Bn2  v124
 BYTE   W12
 BYTE   N05  Bn2  v088
 BYTE   W06
 BYTE   N11  Cn3  v120
 BYTE   W12
 BYTE   N05  Cn3  v092
 BYTE   W06
 BYTE   N11  Dn3  v116
 BYTE   W12
 BYTE   N05  Dn3  v088
 BYTE   W06
 BYTE   BEND   c_v-5
 BYTE   N11  Cn3  v120
 BYTE   W01
 BYTE   BEND   c_v-3
 BYTE   W01
 BYTE   MOD 0
 BYTE   GsM2
 BYTE   BEND   c_v+0
 BYTE   W01
 BYTE   MOD 0
 BYTE   AsM1
 BYTE   W02
 BYTE   As0
 BYTE   W01
 BYTE   BEND   c_v-1
 BYTE   W03
 BYTE   Cs3
 BYTE   W02
 BYTE   An2
 BYTE   W01
 BYTE   An2
 BYTE   N11  Bn2
 BYTE   W01
 BYTE   BEND   c_v+0
 BYTE   W03
 BYTE   MOD 0
 BYTE   En2
 BYTE   W03
 BYTE   Bn3
 BYTE   W01
 BYTE   BEND   c_v-1
 BYTE   W01
 BYTE   MOD 0
 BYTE   Gs4
 BYTE   BEND   c_v-5
 BYTE   W01
 BYTE   Gn2
 BYTE   W01
 BYTE   Cs2
 BYTE   W01
 BYTE   PEND 
// 012   ----------------------------------------
Label_6_01387CCA:
 BYTE   BEND   c_v+0
 BYTE   N11  Fn2  v116
 BYTE   W01
 BYTE   MOD 0
 BYTE   CnM2
 BYTE   W11
 BYTE   N05  Fn2  v072
 BYTE   W06
 BYTE   N11  An2  v116
 BYTE   W12
 BYTE   N05  An2  v080
 BYTE   W06
 BYTE   N11  Cn3  v124
 BYTE   W12
 BYTE   N05  Cn3  v084
 BYTE   W06
 BYTE   N11  En3  v127
 BYTE   W12
 BYTE   N05  En3  v084
 BYTE   W06
 BYTE   BEND   c_v-5
 BYTE   N11  Dn3  v124
 BYTE   W01
 BYTE   BEND   c_v-2
 BYTE   W01
 BYTE   MOD 0
 BYTE   BnM2
 BYTE   BEND   c_v+0
 BYTE   W05
 BYTE   MOD 0
 BYTE   Dn0
 BYTE   BEND   c_v-1
 BYTE   W01
 BYTE   Cn3
 BYTE   W01
 BYTE   As2
 BYTE   W01
 BYTE   Fs2
 BYTE   W01
 BYTE   En2
 BYTE   W01
 BYTE   Cn3
 BYTE   N11  Cn3  v116
 BYTE   W01
 BYTE   BEND   c_v+0
 BYTE   W01
 BYTE   MOD 0
 BYTE   Cs1
 BYTE   W03
 BYTE   Cn3
 BYTE   W01
 BYTE   Gn3
 BYTE   W01
 BYTE   BEND   c_v+3
 BYTE   W01
 BYTE   Gn3
 BYTE   W01
 BYTE   As2
 BYTE   W01
 BYTE   MOD 0
 BYTE   An1
 BYTE   BEND   c_v-13
 BYTE   W01
 BYTE   As1
 BYTE   W01
 BYTE   PEND 
// 013   ----------------------------------------
Label_6_01387D28:
 BYTE   BEND   c_v+0
 BYTE   N11  Gn2  v116
 BYTE   W02
 BYTE   MOD 0
 BYTE   CnM2
 BYTE   W10
 BYTE   N05  Gn2  v064
 BYTE   W06
 BYTE   N11  Bn2  v112
 BYTE   W12
 BYTE   N05  Bn2  v072
 BYTE   W06
 BYTE   N11  Cn3  v124
 BYTE   W12
 BYTE   N05  Cn3  v080
 BYTE   W06
 BYTE   N11  Dn3  v124
 BYTE   W12
 BYTE   N05  Dn3  v104
 BYTE   W06
 BYTE   BEND   c_v-3
 BYTE   N11  Cn3  v116
 BYTE   W01
 BYTE   BEND   c_v+0
 BYTE   W04
 BYTE   Ds3
 BYTE   W01
 BYTE   MOD 0
 BYTE   An2
 BYTE   W01
 BYTE   BEND   c_v-2
 BYTE   W02
 BYTE   As2
 BYTE   W01
 BYTE   Gs2
 BYTE   W01
 BYTE   Cs2
 BYTE   W01
 BYTE   MOD 0
 BYTE   Fs1
 BYTE   BEND   c_v+0
 BYTE   N11  Bn2  v112
 BYTE   W04
 BYTE   MOD 0
 BYTE   Gs2
 BYTE   W02
 BYTE   BEND   c_v-1
 BYTE   W02
 BYTE   Cs3
 BYTE   W01
 BYTE   MOD 0
 BYTE   As2
 BYTE   BEND   c_v-6
 BYTE   W01
 BYTE   En2
 BYTE   W01
 BYTE   MOD 0
 BYTE   Cn2
 BYTE   BEND   c_v-16
 BYTE   W01
 BYTE   PEND 
// 014   ----------------------------------------
Label_6_01387D81:
 BYTE   BEND   c_v+0
 BYTE   N11  Fn2  v116
 BYTE   W01
 BYTE   MOD 0
 BYTE   CnM2
 BYTE   W11
 BYTE   N05  Fn2  v064
 BYTE   W06
 BYTE   N11  An2  v116
 BYTE   W12
 BYTE   N05  An2  v072
 BYTE   W06
 BYTE   N11  Cn3  v120
 BYTE   W12
 BYTE   N05  Cn3  v076
 BYTE   W06
 BYTE   N11  En3  v127
 BYTE   W12
 BYTE   N05  En3  v084
 BYTE   W05
 BYTE   BEND   c_v-8
 BYTE   W01
 BYTE   Cn3
 BYTE   N11  Dn3  v124
 BYTE   W01
 BYTE   BEND   c_v+0
 BYTE   W04
 BYTE   MOD 0
 BYTE   Gs2
 BYTE   W05
 BYTE   BEND   c_v-2
 BYTE   W01
 BYTE   MOD 0
 BYTE   Cn2
 BYTE   BEND   c_v-6
 BYTE   W01
 BYTE   MOD 0
 BYTE   Fn2
 BYTE   BEND   c_v-4
 BYTE   N11  Cn3  v120
 BYTE   W01
 BYTE   BEND   c_v+0
 BYTE   W01
 BYTE   MOD 0
 BYTE   Gn3
 BYTE   W02
 BYTE   En4
 BYTE   W03
 BYTE   BEND   c_v+1
 BYTE   W01
 BYTE   MOD 0
 BYTE   Ds3
 BYTE   BEND   c_v+3
 BYTE   W02
 BYTE   Fn3
 BYTE   W01
 BYTE   An1
 BYTE   W01
 BYTE   PEND 
// 015   ----------------------------------------
Label_6_01387DD9:
 BYTE   MOD 0
 BYTE   CnM2
 BYTE   BEND   c_v+0
 BYTE   N11  Gn2  v116
 BYTE   W12
 BYTE   N05  Gn2  v068
 BYTE   W06
 BYTE   N11  Bn2  v116
 BYTE   W12
 BYTE   N05  Bn2  v068
 BYTE   W06
 BYTE   N11  Cn3  v120
 BYTE   W12
 BYTE   N05  Cn3  v076
 BYTE   W06
 BYTE   N11  Dn3  v127
 BYTE   W12
 BYTE   N05  Dn3  v080
 BYTE   W06
 BYTE   MOD 0
 BYTE   DsM2
 BYTE   BEND   c_v-4
 BYTE   N11  Cn3  v127
 BYTE   W01
 BYTE   BEND   c_v+0
 BYTE   W01
 BYTE   MOD 0
 BYTE   Fn0
 BYTE   W03
 BYTE   Fn2
 BYTE   W03
 BYTE   En2
 BYTE   W01
 BYTE   BEND   c_v-2
 BYTE   W01
 BYTE   Cn3
 BYTE   W01
 BYTE   MOD 0
 BYTE   Gs2
 BYTE   BEND   c_v-10
 BYTE   W01
 BYTE   Dn3
 BYTE   N11  Bn2  v124
 BYTE   W01
 BYTE   BEND   c_v+0
 BYTE   W04
 BYTE   MOD 0
 BYTE   Gn4
 BYTE   W02
 BYTE   Fs3
 BYTE   BEND   c_v+4
 BYTE   W01
 BYTE   An3
 BYTE   W01
 BYTE   Fs3
 BYTE   W01
 BYTE   Bn2
 BYTE   W01
 BYTE   MOD 0
 BYTE   Dn2
 BYTE   BEND   c_v-18
 BYTE   W01
 BYTE   PEND 
// 016   ----------------------------------------
Label_6_01387E34:
 BYTE   BEND   c_v+0
 BYTE   N11  Fn2  v116
 BYTE   W01
 BYTE   MOD 0
 BYTE   CnM2
 BYTE   W11
 BYTE   N05  Fn2  v064
 BYTE   W06
 BYTE   N11  An2  v108
 BYTE   W12
 BYTE   N05  An2  v068
 BYTE   W06
 BYTE   N11  Cn3  v116
 BYTE   W12
 BYTE   N05  Cn3  v068
 BYTE   W06
 BYTE   N11  En3  v127
 BYTE   W12
 BYTE   N05  En3  v072
 BYTE   W06
 BYTE   MOD 0
 BYTE   Cs2
 BYTE   BEND   c_v-5
 BYTE   N11  Dn3  v120
 BYTE   W01
 BYTE   BEND   c_v-3
 BYTE   W01
 BYTE   En3
 BYTE   W02
 BYTE   MOD 0
 BYTE   Ds3
 BYTE   W03
 BYTE   Fs2
 BYTE   W01
 BYTE   BEND   c_v-2
 BYTE   W01
 BYTE   Bn2
 BYTE   W01
 BYTE   Fn2
 BYTE   W01
 BYTE   Dn2
 BYTE   W01
 BYTE   An2
 BYTE   N12  Cn3
 BYTE   W01
 BYTE   MOD 0
 BYTE   Cs2
 BYTE   BEND   c_v+0
 BYTE   W02
 BYTE   MOD 0
 BYTE   Dn4
 BYTE   W02
 BYTE   Cn5
 BYTE   W01
 BYTE   BEND   c_v+3
 BYTE   W01
 BYTE   Gn3
 BYTE   W01
 BYTE   MOD 0
 BYTE   Fs3
 BYTE   BEND   c_v+0
 BYTE   W01
 BYTE   An2
 BYTE   W01
 BYTE   Dn2
 BYTE   W01
 BYTE   Fn2
 BYTE   W01
 BYTE   PEND 
// 017   ----------------------------------------
Label_6_01387E93:
 BYTE   MOD 0
 BYTE   CnM2
 BYTE   BEND   c_v+0
 BYTE   N11  En2  v108
 BYTE   W12
 BYTE   N05  En2  v064
 BYTE   W06
 BYTE   N11  Gs2  v120
 BYTE   W12
 BYTE   N05  Gs2  v072
 BYTE   W06
 BYTE   N11  Bn2  v124
 BYTE   W12
 BYTE   N05  Bn2  v080
 BYTE   W06
 BYTE   N11  En3  v124
 BYTE   W12
 BYTE   N05  En3  v092
 BYTE   W06
 BYTE   BEND   c_v-9
 BYTE   N11  Gs3  v124
 BYTE   W01
 BYTE   BEND   c_v-4
 BYTE   W01
 BYTE   MOD 0
 BYTE   An1
 BYTE   BEND   c_v+0
 BYTE   W02
 BYTE   MOD 0
 BYTE   Ds4
 BYTE   W01
 BYTE   BEND   c_v+4
 BYTE   W01
 BYTE   An3
 BYTE   W01
 BYTE   MOD 0
 BYTE   As3
 BYTE   BEND   c_v+3
 BYTE   W01
 BYTE   Dn3
 BYTE   W01
 BYTE   MOD 0
 BYTE   Fs3
 BYTE   BEND   c_v-4
 BYTE   W01
 BYTE   Gn2
 BYTE   W01
 BYTE   En2
 BYTE   W01
 BYTE   Gs2
 BYTE   N11  Bn3  v127
 BYTE   W01
 BYTE   MOD 0
 BYTE   Gn3
 BYTE   BEND   c_v+0
 BYTE   W02
 BYTE   MOD 0
 BYTE   Cn4
 BYTE   W03
 BYTE   Bn4
 BYTE   BEND   c_v+1
 BYTE   W01
 BYTE   Gs3
 BYTE   W01
 BYTE   Cn4
 BYTE   W01
 BYTE   Ds4
 BYTE   W01
 BYTE   MOD 0
 BYTE   En5
 BYTE   BEND   c_v-5
 BYTE   W01
 BYTE   Cs2
 BYTE   W01
 BYTE   PEND 
// 018   ----------------------------------------
Label_6_01387EFC:
 BYTE   MOD 0
 BYTE   CnM2
 BYTE   BEND   c_v+0
 BYTE   N05  An2  v120
 BYTE   W06
 BYTE   En2  v116
 BYTE   W06
 BYTE   Gn2  v120
 BYTE   W06
 BYTE   N11  An2  v124
 BYTE   W02
 BYTE   MOD 0
 BYTE   Fs0
 BYTE   W01
 BYTE   An0
 BYTE   W01
 BYTE   Cn0
 BYTE   W02
 BYTE   EnM1
 BYTE   W01
 BYTE   BnM2
 BYTE   W01
 BYTE   CnM2
 BYTE   W04
 BYTE   N05  En2  v112
 BYTE   W06
 BYTE   Gn2  v120
 BYTE   W04
 BYTE   MOD 0
 BYTE   DsM2
 BYTE   W02
 BYTE   Dn0
 BYTE   N11  An2  v124
 BYTE   W02
 BYTE   MOD 0
 BYTE   En1
 BYTE   W02
 BYTE   An2
 BYTE   W02
 BYTE   CnM2
 BYTE   W06
 BYTE   N05  En2  v112
 BYTE   W06
 BYTE   Gn2  v116
 BYTE   W04
 BYTE   MOD 0
 BYTE   GnM2
 BYTE   W02
 BYTE   N11  An2  v120
 BYTE   W01
 BYTE   MOD 0
 BYTE   Cs1
 BYTE   W01
 BYTE   Bn3
 BYTE   W03
 BYTE   Bn1
 BYTE   W02
 BYTE   Dn0
 BYTE   W03
 BYTE   CnM2
 BYTE   W02
 BYTE   N05  En2  v112
 BYTE   W06
 BYTE   Gn2  v116
 BYTE   W06
 BYTE   An2  v120
 BYTE   W06
 BYTE   PEND 
// 019   ----------------------------------------
Label_6_01387F55:
 BYTE   N05  Fn2  v120
 BYTE   W06
 BYTE   Cn2  v116
 BYTE   W06
 BYTE   Fn2  v120
 BYTE   W04
 BYTE   MOD 0
 BYTE   FsM2
 BYTE   W02
 BYTE   An0
 BYTE   N11  An2  v124
 BYTE   W02
 BYTE   MOD 0
 BYTE   Bn1
 BYTE   W01
 BYTE   Ds1
 BYTE   W01
 BYTE   Ds0
 BYTE   W03
 BYTE   CsM2
 BYTE   W02
 BYTE   CnM2
 BYTE   W03
 BYTE   N05  Cn2  v112
 BYTE   W06
 BYTE   Fn2  v120
 BYTE   W04
 BYTE   MOD 0
 BYTE   FnM2
 BYTE   W02
 BYTE   CnM1
 BYTE   N11  An2  v127
 BYTE   W01
 BYTE   MOD 0
 BYTE   Cs0
 BYTE   W03
 BYTE   Bn2
 BYTE   W01
 BYTE   Gn1
 BYTE   W02
 BYTE   BnM1
 BYTE   W02
 BYTE   CnM2
 BYTE   W03
 BYTE   N05  Cn2  v116
 BYTE   W06
 BYTE   Fn2  v124
 BYTE   W06
 BYTE   MOD 0
 BYTE   Cn3
 BYTE   N11  An2
 BYTE   W02
 BYTE   MOD 0
 BYTE   Gn2
 BYTE   W03
 BYTE   Cs1
 BYTE   W02
 BYTE   AnM1
 BYTE   W04
 BYTE   CnM2
 BYTE   W01
 BYTE   N05  Cn2  v116
 BYTE   W06
 BYTE   Fn2  v124
 BYTE   W06
 BYTE   An2  v127
 BYTE   W06
 BYTE   PEND 
// 020   ----------------------------------------
Label_6_01387FAC:
 BYTE   N05  Bn2  v120
 BYTE   W06
 BYTE   Dn2
 BYTE   W06
 BYTE   Gn2  v124
 BYTE   W04
 BYTE   MOD 0
 BYTE   Cn0
 BYTE   W01
 BYTE   Cs1
 BYTE   W01
 BYTE   N11  Bn2  v127
 BYTE   W01
 BYTE   MOD 0
 BYTE   En0
 BYTE   W01
 BYTE   FnM1
 BYTE   W02
 BYTE   CnM2
 BYTE   W08
 BYTE   N05  Dn2  v120
 BYTE   W06
 BYTE   MOD 0
 BYTE   DsM2
 BYTE   N05  Gn2  v124
 BYTE   W02
 BYTE   MOD 0
 BYTE   GnM1
 BYTE   W04
 BYTE   Gn2
 BYTE   N11  Bn2  v127
 BYTE   W01
 BYTE   MOD 0
 BYTE   BnM1
 BYTE   W01
 BYTE   DnM2
 BYTE   W01
 BYTE   CnM2
 BYTE   W09
 BYTE   N05  Dn2  v112
 BYTE   W06
 BYTE   Gn2  v120
 BYTE   W03
 BYTE   MOD 0
 BYTE   CnM1
 BYTE   W02
 BYTE   As0
 BYTE   W01
 BYTE   N11  Bn2  v124
 BYTE   W02
 BYTE   MOD 0
 BYTE   Cn3
 BYTE   W01
 BYTE   Bn1
 BYTE   W03
 BYTE   Cn1
 BYTE   W01
 BYTE   FnM1
 BYTE   W01
 BYTE   DsM2
 BYTE   W01
 BYTE   CnM2
 BYTE   W03
 BYTE   N06  Dn2  v120
 BYTE   W06
 BYTE   N05  Gn2  v124
 BYTE   W06
 BYTE   Bn2  v127
 BYTE   W06
 BYTE   PEND 
// 021   ----------------------------------------
Label_6_01388007:
 BYTE   N05  An2  v124
 BYTE   W06
 BYTE   En2  v120
 BYTE   W06
 BYTE   Gn2
 BYTE   W05
 BYTE   MOD 0
 BYTE   GnM1
 BYTE   W01
 BYTE   Gs0
 BYTE   N11  An2  v127
 BYTE   W01
 BYTE   MOD 0
 BYTE   Fn0
 BYTE   W03
 BYTE   BnM2
 BYTE   W01
 BYTE   DsM2
 BYTE   W01
 BYTE   CnM2
 BYTE   W06
 BYTE   N05  En2  v116
 BYTE   W06
 BYTE   Gn2  v120
 BYTE   W01
 BYTE   MOD 0
 BYTE   DnM2
 BYTE   W02
 BYTE   CsM1
 BYTE   W02
 BYTE   An0
 BYTE   W01
 BYTE   N11  An2  v124
 BYTE   W01
 BYTE   MOD 0
 BYTE   Cn3
 BYTE   W02
 BYTE   GsM1
 BYTE   W01
 BYTE   CnM2
 BYTE   W08
 BYTE   N05  En2  v116
 BYTE   W06
 BYTE   MOD 0
 BYTE   FsM2
 BYTE   N05  Gn2  v120
 BYTE   W06
 BYTE   An2  v124
 BYTE   W01
 BYTE   MOD 0
 BYTE   GnM1
 BYTE   W03
 BYTE   En0
 BYTE   W02
 BYTE   N05  Cn3  v127
 BYTE   W06
 BYTE   Bn2  v124
 BYTE   W02
 BYTE   MOD 0
 BYTE   Fs2
 BYTE   W04
 BYTE   En3
 BYTE   N05  An2
 BYTE   W04
 BYTE   MOD 0
 BYTE   Dn4
 BYTE   W02
 BYTE   N05  Gn2  v120
 BYTE   W01
 BYTE   MOD 0
 BYTE   As2
 BYTE   W03
 BYTE   An0
 BYTE   W02
 BYTE   PEND 
// 022   ----------------------------------------
Label_6_01388067:
 BYTE   MOD 0
 BYTE   CnM2
 BYTE   N05  An2  v120
 BYTE   W06
 BYTE   En2  v116
 BYTE   W06
 BYTE   Gn2  v120
 BYTE   W03
 BYTE   MOD 0
 BYTE   GnM2
 BYTE   W01
 BYTE   AnM1
 BYTE   W02
 BYTE   N11  An2  v127
 BYTE   W02
 BYTE   MOD 0
 BYTE   Ds1
 BYTE   W01
 BYTE   Cs0
 BYTE   W02
 BYTE   AsM2
 BYTE   W01
 BYTE   CnM2
 BYTE   W06
 BYTE   N05  En2  v116
 BYTE   W06
 BYTE   Gn2  v124
 BYTE   W03
 BYTE   MOD 0
 BYTE   Cs0
 BYTE   W01
 BYTE   Fn1
 BYTE   W02
 BYTE   N11  An2  v127
 BYTE   W01
 BYTE   MOD 0
 BYTE   An3
 BYTE   W03
 BYTE   CnM2
 BYTE   W08
 BYTE   N05  En2  v116
 BYTE   W06
 BYTE   Gn2  v120
 BYTE   W02
 BYTE   MOD 0
 BYTE   AsM1
 BYTE   W04
 BYTE   Bn3
 BYTE   N11  An2  v127
 BYTE   W05
 BYTE   MOD 0
 BYTE   Fn0
 BYTE   W03
 BYTE   CnM2
 BYTE   W04
 BYTE   N05  En2  v116
 BYTE   W06
 BYTE   Gn2  v124
 BYTE   W06
 BYTE   An2  v127
 BYTE   W06
 BYTE   PEND 
// 023   ----------------------------------------
Label_6_013880B9:
 BYTE   N05  Fn2  v124
 BYTE   W06
 BYTE   Cn2  v120
 BYTE   W06
 BYTE   Fn2  v124
 BYTE   W03
 BYTE   MOD 0
 BYTE   DsM1
 BYTE   W02
 BYTE   Ds0
 BYTE   W01
 BYTE   N11  An2
 BYTE   W05
 BYTE   MOD 0
 BYTE   CnM2
 BYTE   W07
 BYTE   N05  Cn2  v116
 BYTE   W06
 BYTE   Fn2  v120
 BYTE   W06
 BYTE   MOD 0
 BYTE   Bn0
 BYTE   N11  An2  v124
 BYTE   W03
 BYTE   MOD 0
 BYTE   AnM2
 BYTE   W02
 BYTE   CnM2
 BYTE   W07
 BYTE   N05  Cn2  v116
 BYTE   W06
 BYTE   Fn2  v124
 BYTE   W03
 BYTE   MOD 0
 BYTE   AnM2
 BYTE   W03
 BYTE   N11  An2  v127
 BYTE   W01
 BYTE   MOD 0
 BYTE   Ds5
 BYTE   W02
 BYTE   Bn3
 BYTE   W04
 BYTE   GnM1
 BYTE   W02
 BYTE   CnM2
 BYTE   W03
 BYTE   N05  Cn2  v116
 BYTE   W06
 BYTE   Fn2  v124
 BYTE   W06
 BYTE   An2  v127
 BYTE   W06
 BYTE   PEND 
// 024   ----------------------------------------
Label_6_01388102:
 BYTE   N05  Bn2  v124
 BYTE   W06
 BYTE   Dn2
 BYTE   W06
 BYTE   Gn2
 BYTE   W02
 BYTE   MOD 0
 BYTE   FsM2
 BYTE   W03
 BYTE   Dn0
 BYTE   W01
 BYTE   N11  Bn2  v127
 BYTE   W02
 BYTE   MOD 0
 BYTE   GsM1
 BYTE   W02
 BYTE   CsM1
 BYTE   W01
 BYTE   GnM2
 BYTE   W02
 BYTE   CnM2
 BYTE   W05
 BYTE   N05  Dn2  v116
 BYTE   W06
 BYTE   Gn2  v120
 BYTE   W03
 BYTE   MOD 0
 BYTE   FnM2
 BYTE   W02
 BYTE   Cs1
 BYTE   W01
 BYTE   N12  Bn2  v127
 BYTE   W03
 BYTE   MOD 0
 BYTE   FnM1
 BYTE   W02
 BYTE   AnM2
 BYTE   W02
 BYTE   CnM2
 BYTE   W05
 BYTE   N05  Dn2  v116
 BYTE   W06
 BYTE   Gn2  v120
 BYTE   W05
 BYTE   MOD 0
 BYTE   Fn3
 BYTE   W01
 BYTE   N11  Bn2  v127
 BYTE   W02
 BYTE   MOD 0
 BYTE   Dn1
 BYTE   W03
 BYTE   FsM1
 BYTE   W02
 BYTE   FnM2
 BYTE   W01
 BYTE   CnM2
 BYTE   W04
 BYTE   N05  Dn2  v116
 BYTE   W06
 BYTE   Gn2  v124
 BYTE   W06
 BYTE   An2  v127
 BYTE   W06
 BYTE   PEND 
// 025   ----------------------------------------
Label_6_01388155:
 BYTE   N05  An2  v124
 BYTE   W06
 BYTE   En2  v120
 BYTE   W06
 BYTE   Gn2  v124
 BYTE   W05
 BYTE   MOD 0
 BYTE   DnM1
 BYTE   W01
 BYTE   Fn0
 BYTE   N11  An2  v127
 BYTE   W01
 BYTE   MOD 0
 BYTE   An1
 BYTE   W04
 BYTE   CnM2
 BYTE   W07
 BYTE   N05  En2  v116
 BYTE   W06
 BYTE   Gn2  v124
 BYTE   W04
 BYTE   MOD 0
 BYTE   BnM2
 BYTE   W02
 BYTE   Ds1
 BYTE   N11  An2  v127
 BYTE   W02
 BYTE   MOD 0
 BYTE   Cs2
 BYTE   W03
 BYTE   CnM2
 BYTE   W07
 BYTE   N05  Cn3  v124
 BYTE   W05
 BYTE   MOD 0
 BYTE   AnM2
 BYTE   W01
 BYTE   N06  Bn2  v120
 BYTE   W01
 BYTE   MOD 0
 BYTE   An0
 BYTE   W01
 BYTE   Gn2
 BYTE   W02
 BYTE   As1
 BYTE   W02
 BYTE   N05  An2  v116
 BYTE   W02
 BYTE   MOD 0
 BYTE   Gn1
 BYTE   W03
 BYTE   Cs2
 BYTE   W01
 BYTE   N05  Bn2  v127
 BYTE   W02
 BYTE   MOD 0
 BYTE   Gn3
 BYTE   W03
 BYTE   Cs4
 BYTE   W01
 BYTE   N05  An2
 BYTE   W02
 BYTE   MOD 0
 BYTE   Dn3
 BYTE   W02
 BYTE   As3
 BYTE   W02
 BYTE   N05  Gn2  v124
 BYTE   W02
 BYTE   MOD 0
 BYTE   Gs1
 BYTE   W02
 BYTE   As2
 BYTE   W02
 BYTE   N05  En2  v120
 BYTE   W01
 BYTE   MOD 0
 BYTE   FsM1
 BYTE   W01
 BYTE   BEND   c_v-1
 BYTE   W02
 BYTE   MOD 0
 BYTE   CnM2
 BYTE   BEND   c_v-9
 BYTE   W01
 BYTE   En3
 BYTE   W01
 BYTE   PEND 
// 026   ----------------------------------------
 BYTE   W96
// 027   ----------------------------------------
 BYTE   W96
// 028   ----------------------------------------
 BYTE   W96
// 029   ----------------------------------------
 BYTE   W96
// 030   ----------------------------------------
 BYTE   W96
// 031   ----------------------------------------
 BYTE   W96
// 032   ----------------------------------------
 BYTE   W96
// 033   ----------------------------------------
 BYTE   W96
// 034   ----------------------------------------
 BYTE   GoTo
  POIN2 Label_6_01387929
// 035   ----------------------------------------
 BYTE   PATT
  POIN2 Label_6_01387929
// 036   ----------------------------------------
 BYTE   PATT
  POIN2 Label_6_01387974
// 037   ----------------------------------------
 BYTE   PATT
  POIN2 Label_6_013879C5
// 038   ----------------------------------------
 BYTE   PATT
  POIN2 Label_6_01387A13
// 039   ----------------------------------------
 BYTE   PATT
  POIN2 Label_6_01387A79
// 040   ----------------------------------------
 BYTE   PATT
  POIN2 Label_6_01387ACD
// 041   ----------------------------------------
 BYTE   PATT
  POIN2 Label_6_01387B21
// 042   ----------------------------------------
 BYTE   PATT
  POIN2 Label_6_01387B86
// 043   ----------------------------------------
 BYTE   PATT
  POIN2 Label_6_01387C0B
// 044   ----------------------------------------
 BYTE   PATT
  POIN2 Label_6_01387C72
// 045   ----------------------------------------
 BYTE   PATT
  POIN2 Label_6_01387CCA
// 046   ----------------------------------------
 BYTE   PATT
  POIN2 Label_6_01387D28
// 047   ----------------------------------------
 BYTE   PATT
  POIN2 Label_6_01387D81
// 048   ----------------------------------------
 BYTE   PATT
  POIN2 Label_6_01387DD9
// 049   ----------------------------------------
 BYTE   PATT
  POIN2 Label_6_01387E34
// 050   ----------------------------------------
 BYTE   PATT
  POIN2 Label_6_01387E93
// 051   ----------------------------------------
 BYTE   PATT
  POIN2 Label_6_01387EFC
// 052   ----------------------------------------
 BYTE   PATT
  POIN2 Label_6_01387F55
// 053   ----------------------------------------
 BYTE   PATT
  POIN2 Label_6_01387FAC
// 054   ----------------------------------------
 BYTE   PATT
  POIN2 Label_6_01388007
// 055   ----------------------------------------
 BYTE   PATT
  POIN2 Label_6_01388067
// 056   ----------------------------------------
 BYTE   PATT
  POIN2 Label_6_013880B9
// 057   ----------------------------------------
 BYTE   PATT
  POIN2 Label_6_01388102
// 058   ----------------------------------------
 BYTE   PATT
  POIN2 Label_6_01388155
// 059   ----------------------------------------
 BYTE   W96
// 060   ----------------------------------------
 BYTE   W96
// 061   ----------------------------------------
 BYTE   W96
// 062   ----------------------------------------
 BYTE   W96
// 063   ----------------------------------------
 BYTE   W96
// 064   ----------------------------------------
 BYTE   W96
// 065   ----------------------------------------
 BYTE   W96
// 066   ----------------------------------------
 BYTE   W96
// 067   ----------------------------------------
 BYTE   W96
// 068   ----------------------------------------
 BYTE   W96
// 069   ----------------------------------------
 BYTE   W96
// 070   ----------------------------------------
 BYTE   W96
// 071   ----------------------------------------
 BYTE   W96
// 072   ----------------------------------------
 BYTE   W96
// 073   ----------------------------------------
 BYTE   W96
// 074   ----------------------------------------
 BYTE   W96
 BYTE   FINE

//**************** Track 8 (Midi-Chn.7) ****************//

song2C_008:
// 000   ----------------------------------------
 BYTE   KEYSH   song2C_key+0
 BYTE   VOICE   52
 BYTE   PAN   c_v+29
 BYTE   VOL   39*song2C_mvl/mxv
 BYTE   W96
// 001   ----------------------------------------
 BYTE   W96
// 002   ----------------------------------------
Label_7_0138826A:
 BYTE   N18  En4  v116
 BYTE   W18
 BYTE   Dn4
 BYTE   W18
 BYTE   N48  Cn4  v112
 BYTE   W48
 BYTE   N12  An3  v108
 BYTE   W12
 BYTE   PEND 
// 003   ----------------------------------------
Label_7_01388279:
 BYTE   N60  Fn3  v108
 BYTE   W36
 BYTE   W02
 BYTE   W02
 BYTE   W01
 BYTE   W02
 BYTE   W01
 BYTE   W02
 BYTE   W01
 BYTE   W02
 BYTE   W01
 BYTE   W02
 BYTE   W01
 BYTE   W02
 BYTE   W01
 BYTE   W02
 BYTE   W01
 BYTE   W01
 BYTE   N12  Gn3
 BYTE   W12
 BYTE   An3  v112
 BYTE   W12
 BYTE   Cn4
 BYTE   W12
 BYTE   PEND 
// 004   ----------------------------------------
Label_7_01388296:
 BYTE   N24  En4  v116
 BYTE   W24
 BYTE   Dn4
 BYTE   W24
 BYTE   Bn3  v112
 BYTE   W24
 BYTE   Gn3
 BYTE   W24
 BYTE   PEND 
// 005   ----------------------------------------
Label_7_013882A2:
 BYTE   N54  An3  v112
 BYTE   W36
 BYTE   W02
 BYTE   W01
 BYTE   W01
 BYTE   W01
 BYTE   W01
 BYTE   W02
 BYTE   W02
 BYTE   W01
 BYTE   W01
 BYTE   W01
 BYTE   W01
 BYTE   W02
 BYTE   W01
 BYTE   W01
 BYTE   N06  En3  v116
 BYTE   W06
 BYTE   Cn4  v120
 BYTE   W06
 BYTE   An3  v116
 BYTE   W06
 BYTE   En4  v120
 BYTE   W06
 BYTE   Cn4
 BYTE   W06
 BYTE   An3  v116
 BYTE   W06
 BYTE   En3
 BYTE   W06
 BYTE   PEND 
// 006   ----------------------------------------
Label_7_013882C9:
 BYTE   N18  En4  v116
 BYTE   W18
 BYTE   Dn4  v112
 BYTE   W18
 BYTE   N48  Cn4
 BYTE   W48
 BYTE   N12  An3  v108
 BYTE   W12
 BYTE   PEND 
// 007   ----------------------------------------
Label_7_013882D8:
 BYTE   N24  Fn3  v108
 BYTE   W24
 BYTE   An3  v112
 BYTE   W24
 BYTE   Cn4  v108
 BYTE   W24
 BYTE   Fn4  v112
 BYTE   W24
 BYTE   PEND 
// 008   ----------------------------------------
Label_7_013882E6:
 BYTE   N24  En4  v116
 BYTE   W24
 BYTE   Dn4  v112
 BYTE   W24
 BYTE   Bn3
 BYTE   W24
 BYTE   Gn3  v108
 BYTE   W24
 BYTE   PEND 
// 009   ----------------------------------------
Label_7_013882F3:
 BYTE   N54  An3  v112
 BYTE   W36
 BYTE   W02
 BYTE   W01
 BYTE   W01
 BYTE   W01
 BYTE   W01
 BYTE   W02
 BYTE   W02
 BYTE   W01
 BYTE   W01
 BYTE   W01
 BYTE   W01
 BYTE   W02
 BYTE   W01
 BYTE   W01
 BYTE   N06  En3
 BYTE   W06
 BYTE   Cn4  v120
 BYTE   W06
 BYTE   An3  v116
 BYTE   W06
 BYTE   En4
 BYTE   W06
 BYTE   Cn4  v120
 BYTE   W06
 BYTE   An3
 BYTE   W06
 BYTE   En3  v116
 BYTE   W06
 BYTE   PEND 
// 010   ----------------------------------------
Label_7_01388319:
 BYTE   N72  Fn3  v112
 BYTE   W48
 BYTE   W01
 BYTE   W01
 BYTE   W01
 BYTE   W01
 BYTE   W01
 BYTE   W01
 BYTE   W01
 BYTE   W01
 BYTE   W01
 BYTE   W01
 BYTE   W01
 BYTE   W01
 BYTE   W01
 BYTE   W01
 BYTE   W01
 BYTE   W01
 BYTE   W01
 BYTE   W01
 BYTE   W01
 BYTE   W01
 BYTE   W01
 BYTE   W01
 BYTE   W01
 BYTE   W01
 BYTE   N12  Gn3  v104
 BYTE   W12
 BYTE   An3  v112
 BYTE   W12
 BYTE   PEND 
// 011   ----------------------------------------
Label_7_0138833D:
 BYTE   N48  Gn3  v108
 BYTE   W36
 BYTE   W01
 BYTE   W01
 BYTE   W01
 BYTE   W01
 BYTE   W01
 BYTE   W01
 BYTE   W01
 BYTE   W01
 BYTE   W01
 BYTE   W01
 BYTE   W01
 BYTE   W01
 BYTE   N24  An3
 BYTE   W24
 BYTE   Bn3
 BYTE   W24
 BYTE   PEND 
// 012   ----------------------------------------
Label_7_01388353:
 BYTE   N48  An3  v116
 BYTE   W36
 BYTE   W01
 BYTE   W01
 BYTE   W01
 BYTE   W01
 BYTE   W01
 BYTE   W01
 BYTE   W01
 BYTE   W01
 BYTE   W01
 BYTE   W01
 BYTE   W01
 BYTE   W01
 BYTE   N18  Fn3  v096
 BYTE   W18
 BYTE   Gn3  v108
 BYTE   W18
 BYTE   N12  An3  v116
 BYTE   W12
 BYTE   PEND 
// 013   ----------------------------------------
Label_7_0138836F:
 BYTE   N36  Gn3  v116
 BYTE   W36
 BYTE   N06  Bn3  v108
 BYTE   W12
 BYTE   N18  Dn4  v116
 BYTE   W18
 BYTE   Cn4  v112
 BYTE   W18
 BYTE   N12  Bn3  v104
 BYTE   W12
 BYTE   PEND 
// 014   ----------------------------------------
Label_7_01388383:
 BYTE   N24  Fn3  v104
 BYTE   W24
 BYTE   N06
 BYTE   W06
 BYTE   Gn3  v108
 BYTE   W06
 BYTE   An3  v112
 BYTE   W06
 BYTE   N12  Bn3
 BYTE   W12
 BYTE   N06  Bn3  v116
 BYTE   W06
 BYTE   N12  An3
 BYTE   W12
 BYTE   Gn3  v112
 BYTE   W12
 BYTE   Fn3
 BYTE   W12
 BYTE   PEND 
// 015   ----------------------------------------
Label_7_0138839F:
 BYTE   N24  Fn3  v104
 BYTE   W24
 BYTE   N06  Fn3  v108
 BYTE   W06
 BYTE   Gn3  v112
 BYTE   W06
 BYTE   An3
 BYTE   W06
 BYTE   N12  Bn3
 BYTE   W12
 BYTE   N06  Bn3  v116
 BYTE   W06
 BYTE   N12  An3
 BYTE   W12
 BYTE   Gn3  v112
 BYTE   W12
 BYTE   Fn3  v108
 BYTE   W12
 BYTE   PEND 
// 016   ----------------------------------------
Label_7_013883BD:
 BYTE   N24  Fn3  v104
 BYTE   W24
 BYTE   N06
 BYTE   W06
 BYTE   Gn3  v112
 BYTE   W06
 BYTE   An3  v116
 BYTE   W06
 BYTE   N12  En4
 BYTE   W12
 BYTE   N06  En4  v120
 BYTE   W06
 BYTE   N12  Dn4
 BYTE   W12
 BYTE   Gn4
 BYTE   W12
 BYTE   Fn4
 BYTE   W12
 BYTE   PEND 
// 017   ----------------------------------------
Label_7_013883D8:
 BYTE   N12  En4  v120
 BYTE   W12
 BYTE   Bn3  v116
 BYTE   W12
 BYTE   En4  v120
 BYTE   W12
 BYTE   Gs4
 BYTE   W12
 BYTE   Bn4
 BYTE   W12
 BYTE   Gs4  v124
 BYTE   W12
 BYTE   En4
 BYTE   W12
 BYTE   Bn4
 BYTE   W12
 BYTE   PEND 
// 018   ----------------------------------------
Label_7_013883EE:
 BYTE   N24  En4  v116
 BYTE   W24
 BYTE   Dn4  v112
 BYTE   W24
 BYTE   Cn4
 BYTE   W24
 BYTE   Bn3  v108
 BYTE   W24
 BYTE   PEND 
// 019   ----------------------------------------
Label_7_013883FB:
 BYTE   N24  An3  v104
 BYTE   W24
 BYTE   Bn3  v108
 BYTE   W24
 BYTE   Cn4
 BYTE   W24
 BYTE   En4  v112
 BYTE   W12
 BYTE   W01
 BYTE   W01
 BYTE   W01
 BYTE   W01
 BYTE   W01
 BYTE   W01
 BYTE   W01
 BYTE   W01
 BYTE   W01
 BYTE   W01
 BYTE   W01
 BYTE   W01
 BYTE   PEND 
// 020   ----------------------------------------
Label_7_01388414:
 BYTE   N24  Dn4  v108
 BYTE   W24
 BYTE   Bn3
 BYTE   W24
 BYTE   Gn3
 BYTE   W24
 BYTE   Bn3  v104
 BYTE   W24
 BYTE   PEND 
// 021   ----------------------------------------
Label_7_01388420:
 BYTE   N24  An3  v108
 BYTE   W24
 BYTE   En3  v100
 BYTE   W24
 BYTE   An3  v108
 BYTE   W24
 BYTE   Cn4  v112
 BYTE   W12
 BYTE   W01
 BYTE   W01
 BYTE   W01
 BYTE   W01
 BYTE   W01
 BYTE   W01
 BYTE   W01
 BYTE   W01
 BYTE   W01
 BYTE   W01
 BYTE   W01
 BYTE   W01
 BYTE   PEND 
// 022   ----------------------------------------
Label_7_0138843A:
 BYTE   N24  En4  v116
 BYTE   W24
 BYTE   Dn4  v108
 BYTE   W24
 BYTE   Cn4
 BYTE   W24
 BYTE   Bn3
 BYTE   W24
 BYTE   PEND 
// 023   ----------------------------------------
Label_7_01388446:
 BYTE   N24  An3  v108
 BYTE   W24
 BYTE   Bn3
 BYTE   W24
 BYTE   Cn4
 BYTE   W24
 BYTE   En4  v112
 BYTE   W12
 BYTE   W01
 BYTE   W01
 BYTE   W01
 BYTE   W01
 BYTE   W01
 BYTE   W01
 BYTE   W01
 BYTE   W01
 BYTE   W01
 BYTE   W01
 BYTE   W01
 BYTE   W01
 BYTE   PEND 
// 024   ----------------------------------------
Label_7_0138845E:
 BYTE   N24  Dn4  v112
 BYTE   W24
 BYTE   Bn3
 BYTE   W24
 BYTE   Gn3  v108
 BYTE   W24
 BYTE   Bn3
 BYTE   W24
 BYTE   PEND 
// 025   ----------------------------------------
Label_7_0138846A:
 BYTE   TIE  Cn4  v112
 BYTE   W72
 BYTE   W01
 BYTE   W01
 BYTE   W01
 BYTE   W01
 BYTE   W01
 BYTE   W01
 BYTE   W01
 BYTE   W01
 BYTE   W01
 BYTE   W01
 BYTE   W01
 BYTE   W01
 BYTE   W01
 BYTE   W01
 BYTE   W01
 BYTE   W01
 BYTE   W01
 BYTE   W01
 BYTE   W01
 BYTE   W01
 BYTE   W01
 BYTE   W01
 BYTE   W01
 BYTE   W01
 BYTE   PEND 
// 026   ----------------------------------------
Label_7_01388487:
 BYTE   W01
 BYTE   W01
 BYTE   W01
 BYTE   W01
 BYTE   W01
 BYTE   W01
 BYTE   W01
 BYTE   W01
 BYTE   W01
 BYTE   W01
 BYTE   W01
 BYTE   W01
 BYTE   W01
 BYTE   W01
 BYTE   W01
 BYTE   W01
 BYTE   W01
 BYTE   W01
 BYTE   W01
 BYTE   W01
 BYTE   W01
 BYTE   W01
 BYTE   W01
 BYTE   W01
 BYTE   PEND 
 BYTE   EOT
 BYTE   Cn4
 BYTE   W72
// 027   ----------------------------------------
 BYTE   W96
// 028   ----------------------------------------
 BYTE   W96
// 029   ----------------------------------------
 BYTE   W96
// 030   ----------------------------------------
Label_7_013884A6:
 BYTE   N84  An2  v108
 BYTE   W72
 BYTE   W01
 BYTE   W01
 BYTE   W01
 BYTE   W01
 BYTE   W01
 BYTE   W01
 BYTE   W01
 BYTE   W01
 BYTE   W01
 BYTE   W01
 BYTE   W01
 BYTE   W01
 BYTE   N12  En3  v112
 BYTE   W12
 BYTE   PEND 
// 031   ----------------------------------------
Label_7_013884BB:
 BYTE   N48  Fn2  v108
 BYTE   W36
 BYTE   W01
 BYTE   W01
 BYTE   W01
 BYTE   W01
 BYTE   W01
 BYTE   W01
 BYTE   W01
 BYTE   W01
 BYTE   W01
 BYTE   W01
 BYTE   W01
 BYTE   W01
 BYTE   N24  En3  v116
 BYTE   W24
 BYTE   Dn3  v112
 BYTE   W24
 BYTE   PEND 
// 032   ----------------------------------------
Label_7_013884D3:
 BYTE   N48  Gn2  v108
 BYTE   W36
 BYTE   W01
 BYTE   W01
 BYTE   W01
 BYTE   W01
 BYTE   W01
 BYTE   W01
 BYTE   W01
 BYTE   W01
 BYTE   W01
 BYTE   W01
 BYTE   W01
 BYTE   W01
 BYTE   N24  Cn3
 BYTE   W24
 BYTE   Dn3  v112
 BYTE   W24
 BYTE   PEND 
// 033   ----------------------------------------
 BYTE   N54  An2
 BYTE   W42
 BYTE   W01
 BYTE   W01
 BYTE   W01
 BYTE   W01
 BYTE   W01
 BYTE   W01
 BYTE   W01
 BYTE   W01
 BYTE   W01
 BYTE   W01
 BYTE   W01
 BYTE   W01
 BYTE   N06  An3  v116
 BYTE   W06
 BYTE   En3  v112
 BYTE   W06
 BYTE   An2
 BYTE   W06
 BYTE   En3
 BYTE   W06
 BYTE   Cn3
 BYTE   W06
 BYTE   An2  v108
 BYTE   W06
 BYTE   En2
 BYTE   W06
// 034   ----------------------------------------
 BYTE   GoTo
  POIN2 Label_7_0138826A
// 035   ----------------------------------------
 BYTE   PATT
  POIN2 Label_7_0138826A
// 036   ----------------------------------------
 BYTE   PATT
  POIN2 Label_7_01388279
// 037   ----------------------------------------
 BYTE   PATT
  POIN2 Label_7_01388296
// 038   ----------------------------------------
 BYTE   PATT
  POIN2 Label_7_013882A2
// 039   ----------------------------------------
 BYTE   PATT
  POIN2 Label_7_013882C9
// 040   ----------------------------------------
 BYTE   PATT
  POIN2 Label_7_013882D8
// 041   ----------------------------------------
 BYTE   PATT
  POIN2 Label_7_013882E6
// 042   ----------------------------------------
 BYTE   PATT
  POIN2 Label_7_013882F3
// 043   ----------------------------------------
 BYTE   PATT
  POIN2 Label_7_01388319
// 044   ----------------------------------------
 BYTE   PATT
  POIN2 Label_7_0138833D
// 045   ----------------------------------------
 BYTE   PATT
  POIN2 Label_7_01388353
// 046   ----------------------------------------
 BYTE   PATT
  POIN2 Label_7_0138836F
// 047   ----------------------------------------
 BYTE   PATT
  POIN2 Label_7_01388383
// 048   ----------------------------------------
 BYTE   PATT
  POIN2 Label_7_0138839F
// 049   ----------------------------------------
 BYTE   PATT
  POIN2 Label_7_013883BD
// 050   ----------------------------------------
 BYTE   PATT
  POIN2 Label_7_013883D8
// 051   ----------------------------------------
 BYTE   PATT
  POIN2 Label_7_013883EE
// 052   ----------------------------------------
 BYTE   PATT
  POIN2 Label_7_013883FB
// 053   ----------------------------------------
 BYTE   PATT
  POIN2 Label_7_01388414
// 054   ----------------------------------------
 BYTE   PATT
  POIN2 Label_7_01388420
// 055   ----------------------------------------
 BYTE   PATT
  POIN2 Label_7_0138843A
// 056   ----------------------------------------
 BYTE   PATT
  POIN2 Label_7_01388446
// 057   ----------------------------------------
 BYTE   PATT
  POIN2 Label_7_0138845E
// 058   ----------------------------------------
 BYTE   PATT
  POIN2 Label_7_0138846A
// 059   ----------------------------------------
 BYTE   PATT
  POIN2 Label_7_01388487
// 060   ----------------------------------------
 BYTE   EOT
 BYTE   Cn4
 BYTE   W72
 BYTE   W96
// 061   ----------------------------------------
 BYTE   W96
// 062   ----------------------------------------
 BYTE   W96
// 063   ----------------------------------------
 BYTE   PATT
  POIN2 Label_7_013884A6
// 064   ----------------------------------------
 BYTE   PATT
  POIN2 Label_7_013884BB
// 065   ----------------------------------------
 BYTE   PATT
  POIN2 Label_7_013884D3
// 066   ----------------------------------------
 BYTE   N84  An2  v112
 BYTE   W42
 BYTE   W01
 BYTE   W01
 BYTE   W01
 BYTE   W01
 BYTE   W01
 BYTE   W01
 BYTE   W01
 BYTE   W01
 BYTE   W01
 BYTE   W01
 BYTE   W01
 BYTE   W01
 BYTE   W42
// 067   ----------------------------------------
 BYTE   An2  v108
 BYTE   W07
 BYTE   W24
 BYTE   W24
 BYTE   W24
 BYTE   W05
 BYTE   N12  En3  v112
 BYTE   W12
// 068   ----------------------------------------
 BYTE   N48  Fn2  v108
 BYTE   W08
 BYTE   W24
 BYTE   W16
 BYTE   N24  En3  v116
 BYTE   W08
 BYTE   W16
 BYTE   Dn3  v112
 BYTE   W09
 BYTE   W15
// 069   ----------------------------------------
 BYTE   N48  Gn2  v108
 BYTE   W09
 BYTE   W24
 BYTE   W15
 BYTE   N24  Cn3
 BYTE   W09
 BYTE   W15
 BYTE   Dn3  v112
 BYTE   W10
 BYTE   W14
// 070   ----------------------------------------
 BYTE   N84  An2
 BYTE   W10
 BYTE   W24
 BYTE   W24
 BYTE   W01
 BYTE   W24
 BYTE   W13
// 071   ----------------------------------------
 BYTE   An2  v108
 BYTE   W11
 BYTE   W24
 BYTE   W24
 BYTE   W01
 BYTE   W24
 BYTE   N12  En3  v112
 BYTE   W12
// 072   ----------------------------------------
 BYTE   N48  Fn2  v108
 BYTE   W12
 BYTE   W24
 BYTE   W01
 BYTE   W11
 BYTE   N24  En3  v116
 BYTE   W13
 BYTE   W11
 BYTE   Dn3  v112
 BYTE   W13
 BYTE   W11
// 073   ----------------------------------------
 BYTE   N48  Gn2  v108
 BYTE   W13
 BYTE   W24
 BYTE   W01
 BYTE   W10
 BYTE   N24  Cn3
 BYTE   W14
 BYTE   W10
 BYTE   Dn3  v112
 BYTE   W14
 BYTE   W10
// 074   ----------------------------------------
 BYTE   N84  An2
 BYTE   W15
 BYTE   W24
 BYTE   W24
 BYTE   W24
 BYTE   W06
 BYTE   W03
 BYTE   FINE

//**************** Track 9 (Midi-Chn.8) ****************//

song2C_009:
// 000   ----------------------------------------
 BYTE   KEYSH   song2C_key+0
 BYTE   VOICE   56
 BYTE   PAN   c_v-4
 BYTE   VOL   26*song2C_mvl/mxv
 BYTE   N96  An2  v064
 BYTE   W96
// 001   ----------------------------------------
 BYTE   An2  v084
 BYTE   W96
// 002   ----------------------------------------
Label_8_01388627:
 BYTE   N18  En3  v116
 BYTE   W18
 BYTE   Dn3
 BYTE   W18
 BYTE   N48  Cn3  v112
 BYTE   W48
 BYTE   N12  An2  v108
 BYTE   W12
 BYTE   PEND 
// 003   ----------------------------------------
Label_8_01388636:
 BYTE   N60  Fn2  v108
 BYTE   W60
 BYTE   N12  Gn2
 BYTE   W12
 BYTE   An2  v112
 BYTE   W12
 BYTE   Cn3
 BYTE   W12
 BYTE   PEND 
// 004   ----------------------------------------
Label_8_01388643:
 BYTE   N24  En3  v116
 BYTE   W24
 BYTE   Dn3
 BYTE   W24
 BYTE   Bn2  v112
 BYTE   W24
 BYTE   Gn2
 BYTE   W24
 BYTE   PEND 
// 005   ----------------------------------------
 BYTE   N84  An2
 BYTE   W96
// 006   ----------------------------------------
Label_8_01388652:
 BYTE   N18  En3  v116
 BYTE   W18
 BYTE   Dn3  v112
 BYTE   W18
 BYTE   N48  Cn3
 BYTE   W48
 BYTE   N12  An2  v108
 BYTE   W12
 BYTE   PEND 
// 007   ----------------------------------------
Label_8_01388661:
 BYTE   N24  Fn2  v108
 BYTE   W24
 BYTE   An2  v112
 BYTE   W24
 BYTE   Cn3  v108
 BYTE   W24
 BYTE   Fn3  v112
 BYTE   W24
 BYTE   PEND 
// 008   ----------------------------------------
Label_8_0138866F:
 BYTE   N24  En3  v116
 BYTE   W24
 BYTE   Dn3  v112
 BYTE   W24
 BYTE   Bn2
 BYTE   W24
 BYTE   Gn2  v108
 BYTE   W24
 BYTE   PEND 
// 009   ----------------------------------------
 BYTE   N84  An2  v112
 BYTE   W96
// 010   ----------------------------------------
Label_8_01388680:
 BYTE   N72  Fn2  v112
 BYTE   W72
 BYTE   N12  Gn2  v104
 BYTE   W12
 BYTE   An2  v112
 BYTE   W12
 BYTE   PEND 
// 011   ----------------------------------------
Label_8_0138868C:
 BYTE   N48  Gn2  v108
 BYTE   W48
 BYTE   N24  An2
 BYTE   W24
 BYTE   Bn2
 BYTE   W24
 BYTE   PEND 
// 012   ----------------------------------------
Label_8_01388696:
 BYTE   N48  An2  v116
 BYTE   W48
 BYTE   N18  Fn2  v096
 BYTE   W18
 BYTE   Gn2  v108
 BYTE   W18
 BYTE   N12  An2  v116
 BYTE   W12
 BYTE   PEND 
// 013   ----------------------------------------
Label_8_013886A6:
 BYTE   N36  Gn2  v116
 BYTE   W36
 BYTE   N06  Bn2  v108
 BYTE   W12
 BYTE   N18  Dn3  v116
 BYTE   W18
 BYTE   Cn3  v112
 BYTE   W18
 BYTE   N12  Bn2  v104
 BYTE   W12
 BYTE   PEND 
// 014   ----------------------------------------
Label_8_013886BA:
 BYTE   N24  Fn2  v104
 BYTE   W24
 BYTE   N06
 BYTE   W06
 BYTE   Gn2  v108
 BYTE   W06
 BYTE   An2  v112
 BYTE   W06
 BYTE   N12  Bn2
 BYTE   W12
 BYTE   N06  Bn2  v116
 BYTE   W06
 BYTE   N12  An2
 BYTE   W12
 BYTE   Gn2  v112
 BYTE   W12
 BYTE   Fn2
 BYTE   W12
 BYTE   PEND 
// 015   ----------------------------------------
Label_8_013886D6:
 BYTE   N24  Fn2  v104
 BYTE   W24
 BYTE   N06  Fn2  v108
 BYTE   W06
 BYTE   Gn2  v112
 BYTE   W06
 BYTE   An2
 BYTE   W06
 BYTE   N12  Bn2
 BYTE   W12
 BYTE   N06  Bn2  v116
 BYTE   W06
 BYTE   N12  An2
 BYTE   W12
 BYTE   Gn2  v112
 BYTE   W12
 BYTE   Fn2  v108
 BYTE   W12
 BYTE   PEND 
// 016   ----------------------------------------
Label_8_013886F4:
 BYTE   N24  Fn2  v104
 BYTE   W24
 BYTE   N06
 BYTE   W06
 BYTE   Gn2  v112
 BYTE   W06
 BYTE   An2  v116
 BYTE   W06
 BYTE   N12  En3
 BYTE   W12
 BYTE   N06  En3  v120
 BYTE   W06
 BYTE   N12  Dn3
 BYTE   W12
 BYTE   Gn3
 BYTE   W12
 BYTE   Fn3
 BYTE   W12
 BYTE   PEND 
// 017   ----------------------------------------
Label_8_0138870F:
 BYTE   N12  En3  v120
 BYTE   W12
 BYTE   Bn2  v116
 BYTE   W12
 BYTE   En3  v120
 BYTE   W12
 BYTE   Gs3
 BYTE   W12
 BYTE   Bn3
 BYTE   W12
 BYTE   Gs3  v124
 BYTE   W12
 BYTE   En3
 BYTE   W12
 BYTE   Bn3
 BYTE   W12
 BYTE   PEND 
// 018   ----------------------------------------
Label_8_01388725:
 BYTE   N24  En3  v116
 BYTE   W24
 BYTE   Dn3  v112
 BYTE   W24
 BYTE   Cn3
 BYTE   W24
 BYTE   Bn2  v108
 BYTE   W24
 BYTE   PEND 
// 019   ----------------------------------------
Label_8_01388732:
 BYTE   N24  An2  v104
 BYTE   W24
 BYTE   Bn2  v108
 BYTE   W24
 BYTE   Cn3
 BYTE   W24
 BYTE   En3  v112
 BYTE   W24
 BYTE   PEND 
// 020   ----------------------------------------
Label_8_0138873F:
 BYTE   N24  Dn3  v108
 BYTE   W24
 BYTE   Bn2
 BYTE   W24
 BYTE   Gn2
 BYTE   W24
 BYTE   Bn2  v104
 BYTE   W24
 BYTE   PEND 
// 021   ----------------------------------------
Label_8_0138874B:
 BYTE   N24  An2  v108
 BYTE   W24
 BYTE   En2  v100
 BYTE   W24
 BYTE   An2  v108
 BYTE   W24
 BYTE   Cn3  v112
 BYTE   W24
 BYTE   PEND 
// 022   ----------------------------------------
Label_8_01388759:
 BYTE   N24  En3  v116
 BYTE   W24
 BYTE   Dn3  v108
 BYTE   W24
 BYTE   Cn3
 BYTE   W24
 BYTE   Bn2
 BYTE   W24
 BYTE   PEND 
// 023   ----------------------------------------
Label_8_01388765:
 BYTE   N24  An2  v108
 BYTE   W24
 BYTE   Bn2
 BYTE   W24
 BYTE   Cn3
 BYTE   W24
 BYTE   En3  v112
 BYTE   W24
 BYTE   PEND 
// 024   ----------------------------------------
Label_8_01388771:
 BYTE   N24  Dn3  v112
 BYTE   W24
 BYTE   Bn2
 BYTE   W24
 BYTE   Gn2  v108
 BYTE   W24
 BYTE   Bn2
 BYTE   W24
 BYTE   PEND 
// 025   ----------------------------------------
 BYTE   N96  Cn3  v112
 BYTE   W96
// 026   ----------------------------------------
 BYTE   N84  An2
 BYTE   W96
// 027   ----------------------------------------
 BYTE   Fn2  v108
 BYTE   W96
// 028   ----------------------------------------
 BYTE   Gn2
 BYTE   W96
// 029   ----------------------------------------
 BYTE   N80  An2  v116
 BYTE   W96
// 030   ----------------------------------------
Label_8_0138878D:
 BYTE   N84  An2  v112
 BYTE   W84
 BYTE   N12  Gn2  v116
 BYTE   W12
 BYTE   PEND 
// 031   ----------------------------------------
 BYTE   N84  Fn2
 BYTE   W96
// 032   ----------------------------------------
Label_8_01388799:
 BYTE   N84  Gn2  v112
 BYTE   W84
 BYTE   N12  Gs2  v116
 BYTE   W12
 BYTE   PEND 
// 033   ----------------------------------------
 BYTE   N84  An2
 BYTE   W96
// 034   ----------------------------------------
 BYTE   GoTo
  POIN2 Label_8_01388627
// 035   ----------------------------------------
 BYTE   PATT
  POIN2 Label_8_01388627
// 036   ----------------------------------------
 BYTE   PATT
  POIN2 Label_8_01388636
// 037   ----------------------------------------
 BYTE   PATT
  POIN2 Label_8_01388643
// 038   ----------------------------------------
 BYTE   N84  An2  v112
 BYTE   W96
// 039   ----------------------------------------
 BYTE   PATT
  POIN2 Label_8_01388652
// 040   ----------------------------------------
 BYTE   PATT
  POIN2 Label_8_01388661
// 041   ----------------------------------------
 BYTE   PATT
  POIN2 Label_8_0138866F
// 042   ----------------------------------------
 BYTE   N84  An2  v112
 BYTE   W96
// 043   ----------------------------------------
 BYTE   PATT
  POIN2 Label_8_01388680
// 044   ----------------------------------------
 BYTE   PATT
  POIN2 Label_8_0138868C
// 045   ----------------------------------------
 BYTE   PATT
  POIN2 Label_8_01388696
// 046   ----------------------------------------
 BYTE   PATT
  POIN2 Label_8_013886A6
// 047   ----------------------------------------
 BYTE   PATT
  POIN2 Label_8_013886BA
// 048   ----------------------------------------
 BYTE   PATT
  POIN2 Label_8_013886D6
// 049   ----------------------------------------
 BYTE   PATT
  POIN2 Label_8_013886F4
// 050   ----------------------------------------
 BYTE   PATT
  POIN2 Label_8_0138870F
// 051   ----------------------------------------
 BYTE   PATT
  POIN2 Label_8_01388725
// 052   ----------------------------------------
 BYTE   PATT
  POIN2 Label_8_01388732
// 053   ----------------------------------------
 BYTE   PATT
  POIN2 Label_8_0138873F
// 054   ----------------------------------------
 BYTE   PATT
  POIN2 Label_8_0138874B
// 055   ----------------------------------------
 BYTE   PATT
  POIN2 Label_8_01388759
// 056   ----------------------------------------
 BYTE   PATT
  POIN2 Label_8_01388765
// 057   ----------------------------------------
 BYTE   PATT
  POIN2 Label_8_01388771
// 058   ----------------------------------------
 BYTE   N96  Cn3  v112
 BYTE   W96
// 059   ----------------------------------------
 BYTE   N84  An2
 BYTE   W96
// 060   ----------------------------------------
 BYTE   Fn2  v108
 BYTE   W96
// 061   ----------------------------------------
 BYTE   Gn2
 BYTE   W96
// 062   ----------------------------------------
 BYTE   N80  An2  v116
 BYTE   W96
// 063   ----------------------------------------
 BYTE   PATT
  POIN2 Label_8_0138878D
// 064   ----------------------------------------
 BYTE   N84  Fn2  v116
 BYTE   W96
// 065   ----------------------------------------
 BYTE   PATT
  POIN2 Label_8_01388799
// 066   ----------------------------------------
 BYTE   N84  An2  v116
 BYTE   W96
// 067   ----------------------------------------
 BYTE   An2  v112
 BYTE   W07
 BYTE   W24
 BYTE   W24
 BYTE   W24
 BYTE   W05
 BYTE   N12  Gn2  v116
 BYTE   W12
// 068   ----------------------------------------
 BYTE   N84  Fn2
 BYTE   W08
 BYTE   W24
 BYTE   W24
 BYTE   W24
 BYTE   W01
 BYTE   W15
// 069   ----------------------------------------
 BYTE   Gn2  v112
 BYTE   W09
 BYTE   W24
 BYTE   W24
 BYTE   W24
 BYTE   W01
 BYTE   W02
 BYTE   N12  Gs2  v116
 BYTE   W12
// 070   ----------------------------------------
 BYTE   N84  An2
 BYTE   W10
 BYTE   W24
 BYTE   W24
 BYTE   W01
 BYTE   W24
 BYTE   W13
// 071   ----------------------------------------
 BYTE   An2  v112
 BYTE   W11
 BYTE   W24
 BYTE   W24
 BYTE   W01
 BYTE   W24
 BYTE   N12  Gn2  v116
 BYTE   W12
// 072   ----------------------------------------
 BYTE   N84  Fn2
 BYTE   W12
 BYTE   W24
 BYTE   W01
 BYTE   W24
 BYTE   W24
 BYTE   W11
// 073   ----------------------------------------
 BYTE   Gn2  v112
 BYTE   W13
 BYTE   W24
 BYTE   W01
 BYTE   W24
 BYTE   W22
 BYTE   N12  Gs2  v116
 BYTE   W02
 BYTE   W10
// 074   ----------------------------------------
 BYTE   N84  An2
 BYTE   W15
 BYTE   W24
 BYTE   W24
 BYTE   W24
 BYTE   W06
 BYTE   W03
 BYTE   FINE

//**************** Track 10 (Midi-Chn.9) ****************//

song2C_010:
// 000   ----------------------------------------
 BYTE   KEYSH   song2C_key+0
 BYTE   VOICE   124
 BYTE   PAN   c_v+0
 BYTE   VOL   46*song2C_mvl/mxv
 BYTE   N02  Cn1  v104
 BYTE   N02  Cs2  v096
 BYTE   W24
 BYTE   Cn1  v108
 BYTE   W24
 BYTE   Cn1  v116
 BYTE   W24
 BYTE   Cn1  v120
 BYTE   W24
// 001   ----------------------------------------
 BYTE   Dn1  v108
 BYTE   N02  An2  v104
 BYTE   W06
 BYTE   Cn1  v116
 BYTE   W06
 BYTE   Cn1  v120
 BYTE   W06
 BYTE   Dn1  v112
 BYTE   W06
 BYTE   Cn1  v116
 BYTE   W06
 BYTE   Cn1  v120
 BYTE   W06
 BYTE   Dn1  v116
 BYTE   W06
 BYTE   Cn1  v120
 BYTE   W06
 BYTE   Dn1  v108
 BYTE   W06
 BYTE   Dn1  v112
 BYTE   W06
 BYTE   N02
 BYTE   W06
 BYTE   Dn1  v116
 BYTE   W06
 BYTE   N02
 BYTE   W06
 BYTE   Dn1  v120
 BYTE   W06
 BYTE   N02
 BYTE   W06
 BYTE   Dn1  v124
 BYTE   W06
// 002   ----------------------------------------
Label_9_013888D4:
 BYTE   N02  Cn1  v120
 BYTE   N02  Cs2  v108
 BYTE   W12
 BYTE   Dn1  v116
 BYTE   N02  Fs1  v092
 BYTE   W06
 BYTE   Fs1  v088
 BYTE   W06
 BYTE   Cn1  v120
 BYTE   N02  Fs1  v088
 BYTE   W06
 BYTE   Cn1  v120
 BYTE   N02  Fs1  v088
 BYTE   W06
 BYTE   Dn1  v120
 BYTE   N02  Fs1  v088
 BYTE   W06
 BYTE   Cn1  v120
 BYTE   N02  Fs1  v088
 BYTE   W06
 BYTE   Fs1  v092
 BYTE   W06
 BYTE   Cn1  v120
 BYTE   N02  Fs1  v092
 BYTE   W06
 BYTE   Dn1  v120
 BYTE   N02  Fs1  v092
 BYTE   W06
 BYTE   N02
 BYTE   W06
 BYTE   Cn1  v120
 BYTE   N02  Fs1  v088
 BYTE   W06
 BYTE   Cn1  v120
 BYTE   N02  Fs1  v088
 BYTE   W06
 BYTE   Dn1  v124
 BYTE   N02  Fs1  v088
 BYTE   W06
 BYTE   N02
 BYTE   W06
 BYTE   PEND 
// 003   ----------------------------------------
Label_9_01388922:
 BYTE   N02  Cn1  v120
 BYTE   N02  Fs1  v088
 BYTE   W06
 BYTE   N02
 BYTE   W06
 BYTE   Dn1  v120
 BYTE   N02  Fs1  v088
 BYTE   W06
 BYTE   N02
 BYTE   W06
 BYTE   Cn1  v120
 BYTE   N02  Fs1  v088
 BYTE   W06
 BYTE   Cn1  v120
 BYTE   N02  Fs1  v088
 BYTE   W06
 BYTE   Dn1  v124
 BYTE   N02  Fs1  v088
 BYTE   W06
 BYTE   Cn1  v120
 BYTE   N02  Fs1  v088
 BYTE   W06
 BYTE   N02
 BYTE   W06
 BYTE   Cn1  v120
 BYTE   N02  Fs1  v088
 BYTE   W06
 BYTE   Dn1  v120
 BYTE   N02  Fs1  v088
 BYTE   W06
 BYTE   N02
 BYTE   W06
 BYTE   Cn1  v116
 BYTE   N02  Fs1  v088
 BYTE   W06
 BYTE   Cn1  v120
 BYTE   N02  Fs1  v088
 BYTE   W06
 BYTE   Dn1  v120
 BYTE   N02  Fs1  v088
 BYTE   W06
 BYTE   N02
 BYTE   W06
 BYTE   PEND 
// 004   ----------------------------------------
Label_9_01388970:
 BYTE   N02  Cn1  v124
 BYTE   N02  Fs1  v088
 BYTE   W06
 BYTE   N02
 BYTE   W06
 BYTE   Dn1  v120
 BYTE   N02  Fs1  v088
 BYTE   W06
 BYTE   N02
 BYTE   W06
 BYTE   Cn1  v120
 BYTE   N02  Fs1  v088
 BYTE   W06
 BYTE   Cn1  v120
 BYTE   N02  Fs1  v088
 BYTE   W06
 BYTE   Dn1  v120
 BYTE   N02  Fs1  v088
 BYTE   W06
 BYTE   Cn1  v120
 BYTE   N02  Fs1  v088
 BYTE   W06
 BYTE   N02
 BYTE   W06
 BYTE   Cn1  v120
 BYTE   N02  Fs1  v092
 BYTE   W06
 BYTE   Dn1  v120
 BYTE   N02  Fs1  v092
 BYTE   W06
 BYTE   N02
 BYTE   W06
 BYTE   Cn1  v120
 BYTE   N02  Fs1  v092
 BYTE   W06
 BYTE   Cn1  v124
 BYTE   N02  Fs1  v092
 BYTE   W06
 BYTE   Dn1  v124
 BYTE   N02  Fs1  v092
 BYTE   W06
 BYTE   N02
 BYTE   W06
 BYTE   PEND 
// 005   ----------------------------------------
Label_9_013889BE:
 BYTE   N02  Cn1  v120
 BYTE   N02  Fs1  v092
 BYTE   W06
 BYTE   Fs1  v088
 BYTE   W06
 BYTE   Dn1  v120
 BYTE   N02  Fs1  v088
 BYTE   W06
 BYTE   N02
 BYTE   W06
 BYTE   Cn1  v120
 BYTE   N02  Fs1  v088
 BYTE   W06
 BYTE   Cn1  v124
 BYTE   N02  Fs1  v088
 BYTE   W06
 BYTE   Dn1  v124
 BYTE   N02  Fs1  v088
 BYTE   W06
 BYTE   Cn1  v124
 BYTE   N02  Fs1  v088
 BYTE   W06
 BYTE   N02
 BYTE   W06
 BYTE   Cn1  v120
 BYTE   N02  Fs1  v088
 BYTE   W06
 BYTE   Dn1  v124
 BYTE   N02  Fs1  v088
 BYTE   W06
 BYTE   N02
 BYTE   W06
 BYTE   Cn1  v120
 BYTE   N02  Fs1  v088
 BYTE   W06
 BYTE   Dn1  v124
 BYTE   N02  Fs1  v088
 BYTE   W06
 BYTE   Dn1  v127
 BYTE   W06
 BYTE   N02
 BYTE   N02  Fs1  v088
 BYTE   W06
 BYTE   PEND 
// 006   ----------------------------------------
Label_9_01388A0D:
 BYTE   N02  Cs2  v104
 BYTE   W12
 BYTE   Dn1  v120
 BYTE   N02  Fs1  v088
 BYTE   W06
 BYTE   Fs1  v092
 BYTE   W06
 BYTE   Cn1  v124
 BYTE   N02  Fs1  v092
 BYTE   W06
 BYTE   Cn1  v124
 BYTE   N02  Fs1  v092
 BYTE   W06
 BYTE   Dn1  v124
 BYTE   N02  Fs1  v092
 BYTE   W06
 BYTE   Cn1  v124
 BYTE   N02  Fs1  v092
 BYTE   W06
 BYTE   N02
 BYTE   W06
 BYTE   Cn1  v124
 BYTE   N02  Fs1  v092
 BYTE   W06
 BYTE   Dn1  v120
 BYTE   N02  Fs1  v088
 BYTE   W06
 BYTE   N02
 BYTE   W06
 BYTE   Cn1  v124
 BYTE   N02  Fs1  v088
 BYTE   W06
 BYTE   Cn1  v124
 BYTE   N02  Fs1  v088
 BYTE   W06
 BYTE   Dn1  v127
 BYTE   N02  Fs1  v088
 BYTE   W06
 BYTE   N02
 BYTE   W06
 BYTE   PEND 
// 007   ----------------------------------------
Label_9_01388A57:
 BYTE   N02  Cn1  v124
 BYTE   N02  Fs1  v088
 BYTE   W06
 BYTE   N02
 BYTE   W06
 BYTE   Dn1  v120
 BYTE   N02  Fs1  v088
 BYTE   W06
 BYTE   N02
 BYTE   W06
 BYTE   Cn1  v124
 BYTE   N02  Fs1  v088
 BYTE   W06
 BYTE   Cn1  v124
 BYTE   N02  Fs1  v088
 BYTE   W06
 BYTE   Dn1  v127
 BYTE   N02  Fs1  v088
 BYTE   W06
 BYTE   Cn1  v124
 BYTE   N02  Fs1  v088
 BYTE   W06
 BYTE   N02
 BYTE   W06
 BYTE   Cn1  v124
 BYTE   N02  Fs1  v088
 BYTE   W06
 BYTE   Dn1  v120
 BYTE   N02  Fs1  v088
 BYTE   W06
 BYTE   N02
 BYTE   W06
 BYTE   Cn1  v124
 BYTE   N02  Fs1  v088
 BYTE   W06
 BYTE   Cn1  v124
 BYTE   N02  Fs1  v088
 BYTE   W06
 BYTE   Dn1  v124
 BYTE   N02  Fs1  v088
 BYTE   W06
 BYTE   N02
 BYTE   W06
 BYTE   PEND 
// 008   ----------------------------------------
Label_9_01388AA5:
 BYTE   N02  Cn1  v124
 BYTE   N02  Fs1  v088
 BYTE   W06
 BYTE   N02
 BYTE   W06
 BYTE   Dn1  v120
 BYTE   N02  Fs1  v092
 BYTE   W06
 BYTE   N02
 BYTE   W06
 BYTE   Cn1  v124
 BYTE   N02  Fs1  v092
 BYTE   W06
 BYTE   Cn1  v124
 BYTE   N02  Fs1  v092
 BYTE   W06
 BYTE   Dn1  v124
 BYTE   N02  Fs1  v092
 BYTE   W06
 BYTE   Cn1  v124
 BYTE   N02  Fs1  v092
 BYTE   W06
 BYTE   N02
 BYTE   W06
 BYTE   Cn1  v124
 BYTE   N02  Fs1  v092
 BYTE   W06
 BYTE   Dn1  v116
 BYTE   N02  Fs1  v092
 BYTE   W06
 BYTE   N02
 BYTE   W06
 BYTE   Cn1  v124
 BYTE   N02  Fs1  v092
 BYTE   W06
 BYTE   Cn1  v124
 BYTE   N02  Fs1  v092
 BYTE   W06
 BYTE   Dn1  v120
 BYTE   N02  Fs1  v092
 BYTE   W06
 BYTE   N02
 BYTE   W06
 BYTE   PEND 
// 009   ----------------------------------------
Label_9_01388AF3:
 BYTE   N02  Cn1  v124
 BYTE   N02  Fs1  v092
 BYTE   W06
 BYTE   N02
 BYTE   W06
 BYTE   Dn1  v120
 BYTE   N02  Fs1  v088
 BYTE   W06
 BYTE   N02
 BYTE   W06
 BYTE   Cn1  v124
 BYTE   N02  Fs1  v088
 BYTE   W06
 BYTE   Cn1  v124
 BYTE   N02  Fs1  v088
 BYTE   W06
 BYTE   Dn1  v124
 BYTE   N02  Fs1  v088
 BYTE   W06
 BYTE   Fs1  v092
 BYTE   W06
 BYTE   N02
 BYTE   W06
 BYTE   Dn1  v124
 BYTE   N02  Fs1  v092
 BYTE   W06
 BYTE   N02
 BYTE   W06
 BYTE   Cn1  v120
 BYTE   N02  Fs1  v092
 BYTE   W06
 BYTE   Dn1  v124
 BYTE   N02  Fs1  v092
 BYTE   W06
 BYTE   N02
 BYTE   W06
 BYTE   Dn1  v120
 BYTE   N02  Fs1  v092
 BYTE   W06
 BYTE   Dn1  v124
 BYTE   N02  Fs1  v092
 BYTE   W06
 BYTE   PEND 
// 010   ----------------------------------------
Label_9_01388B3E:
 BYTE   N02  Cn1  v120
 BYTE   N02  Cs2  v104
 BYTE   W12
 BYTE   Dn1  v120
 BYTE   N02  Fs1  v092
 BYTE   W06
 BYTE   Cn1  v120
 BYTE   W06
 BYTE   Fs1  v092
 BYTE   W12
 BYTE   Dn1  v120
 BYTE   N02  Fs1  v092
 BYTE   W12
 BYTE   Cn1  v124
 BYTE   N02  Fs1  v092
 BYTE   W12
 BYTE   Dn1  v120
 BYTE   N02  Fs1  v088
 BYTE   W06
 BYTE   Cn1  v124
 BYTE   W06
 BYTE   Fs1  v088
 BYTE   W12
 BYTE   Dn1  v124
 BYTE   W12
 BYTE   PEND 
// 011   ----------------------------------------
Label_9_01388B6D:
 BYTE   N02  Cn1  v120
 BYTE   W12
 BYTE   Dn1
 BYTE   N02  Fs1  v088
 BYTE   W06
 BYTE   Cn1  v124
 BYTE   W06
 BYTE   Fs1  v088
 BYTE   W12
 BYTE   Dn1  v124
 BYTE   N02  Fs1  v088
 BYTE   W12
 BYTE   Cn1  v124
 BYTE   N02  Fs1  v088
 BYTE   W12
 BYTE   Dn1  v124
 BYTE   N02  Fs1  v088
 BYTE   W06
 BYTE   Cn1  v120
 BYTE   W06
 BYTE   Fs1  v088
 BYTE   W12
 BYTE   Dn1  v124
 BYTE   N02  Fs1  v088
 BYTE   W12
 BYTE   PEND 
// 012   ----------------------------------------
Label_9_01388B9B:
 BYTE   N02  Cn1  v120
 BYTE   N02  Fs1  v088
 BYTE   W12
 BYTE   Dn1  v120
 BYTE   N02  Fs1  v088
 BYTE   W06
 BYTE   Cn1  v120
 BYTE   W06
 BYTE   Fs1  v092
 BYTE   W12
 BYTE   Dn1  v124
 BYTE   N02  Fs1  v092
 BYTE   W12
 BYTE   Cn1  v124
 BYTE   N02  Fs1  v092
 BYTE   W12
 BYTE   Dn1  v120
 BYTE   N02  Fs1  v092
 BYTE   W06
 BYTE   Cn1  v124
 BYTE   W06
 BYTE   Fs1  v092
 BYTE   W12
 BYTE   Dn1  v124
 BYTE   N02  Fs1  v092
 BYTE   W12
 BYTE   PEND 
// 013   ----------------------------------------
Label_9_01388BCD:
 BYTE   N02  Cn1  v120
 BYTE   N02  Fs1  v092
 BYTE   W12
 BYTE   Dn1  v120
 BYTE   N02  Fs1  v092
 BYTE   W06
 BYTE   Cn1  v120
 BYTE   W06
 BYTE   Fs1  v092
 BYTE   W12
 BYTE   Dn1  v124
 BYTE   N02  Fs1  v092
 BYTE   W12
 BYTE   Cn1  v120
 BYTE   N02  Fs1  v088
 BYTE   W12
 BYTE   Dn1  v120
 BYTE   N02  Fs1  v088
 BYTE   W06
 BYTE   Cn1  v124
 BYTE   W06
 BYTE   Fs1  v088
 BYTE   W06
 BYTE   Dn1  v120
 BYTE   W06
 BYTE   Fs1  v088
 BYTE   W06
 BYTE   Dn1  v124
 BYTE   W06
 BYTE   PEND 
// 014   ----------------------------------------
Label_9_01388C02:
 BYTE   N02  Cn1  v120
 BYTE   N02  Cs2  v104
 BYTE   W12
 BYTE   Dn1  v120
 BYTE   N02  Fs1  v092
 BYTE   W12
 BYTE   Cn1  v120
 BYTE   N02  Fs1  v092
 BYTE   W06
 BYTE   Cn1  v124
 BYTE   W06
 BYTE   Dn1
 BYTE   N02  Fs1  v088
 BYTE   W12
 BYTE   Cn1  v120
 BYTE   N02  Fs1  v088
 BYTE   W12
 BYTE   Dn1  v120
 BYTE   N02  Fs1  v088
 BYTE   W12
 BYTE   Cn1  v124
 BYTE   N02  Fs1  v092
 BYTE   W06
 BYTE   Cn1  v124
 BYTE   W06
 BYTE   Dn1
 BYTE   N02  Fs1  v092
 BYTE   W12
 BYTE   PEND 
// 015   ----------------------------------------
Label_9_01388C38:
 BYTE   N02  Cn1  v120
 BYTE   W12
 BYTE   Dn1
 BYTE   N02  Fs1  v092
 BYTE   W12
 BYTE   Cn1  v124
 BYTE   N02  Fs1  v092
 BYTE   W06
 BYTE   Cn1  v124
 BYTE   W06
 BYTE   Dn1
 BYTE   N02  Fs1  v092
 BYTE   W06
 BYTE   Cn1  v124
 BYTE   W06
 BYTE   Fs1  v092
 BYTE   W06
 BYTE   Cn1  v124
 BYTE   W06
 BYTE   Dn1  v120
 BYTE   N02  Fs1  v092
 BYTE   W12
 BYTE   Cn1  v120
 BYTE   N02  Fs1  v088
 BYTE   W06
 BYTE   Cn1  v124
 BYTE   W06
 BYTE   Dn1
 BYTE   N02  Fs1  v088
 BYTE   W12
 BYTE   PEND 
// 016   ----------------------------------------
Label_9_01388C6D:
 BYTE   N02  Cn1  v120
 BYTE   N02  Fs1  v088
 BYTE   W12
 BYTE   Dn1  v120
 BYTE   N02  Fs1  v088
 BYTE   W12
 BYTE   Cn1  v120
 BYTE   N02  Fs1  v088
 BYTE   W06
 BYTE   Cn1  v120
 BYTE   W06
 BYTE   Dn1  v124
 BYTE   N02  Fs1  v088
 BYTE   W12
 BYTE   Cn1  v124
 BYTE   N02  Fs1  v088
 BYTE   W12
 BYTE   Dn1  v120
 BYTE   N02  Fs1  v088
 BYTE   W12
 BYTE   Cn1  v124
 BYTE   N02  Fs1  v088
 BYTE   W06
 BYTE   Cn1  v124
 BYTE   W06
 BYTE   Dn1
 BYTE   N02  Fs1  v088
 BYTE   W12
 BYTE   PEND 
// 017   ----------------------------------------
Label_9_01388CA4:
 BYTE   N02  Cn1  v124
 BYTE   N02  Fs1  v088
 BYTE   W12
 BYTE   Dn1  v120
 BYTE   N02  Fs1  v088
 BYTE   W12
 BYTE   Cn1  v124
 BYTE   N02  Fs1  v088
 BYTE   W06
 BYTE   Cn1  v124
 BYTE   W06
 BYTE   Dn1  v120
 BYTE   N02  Fs1  v088
 BYTE   W12
 BYTE   Dn1  v120
 BYTE   N02  Fs1  v088
 BYTE   W06
 BYTE   Cn1  v124
 BYTE   W06
 BYTE   N02
 BYTE   N02  Fs1  v088
 BYTE   W06
 BYTE   Dn1  v120
 BYTE   W06
 BYTE   Cn1
 BYTE   N02  Fs1  v088
 BYTE   W06
 BYTE   Cn1  v120
 BYTE   N02  Fs1  v088
 BYTE   W06
 BYTE   Dn1  v124
 BYTE   N02  Fs1  v088
 BYTE   W06
 BYTE   Dn1  v127
 BYTE   N02  Fs1  v088
 BYTE   W06
 BYTE   PEND 
// 018   ----------------------------------------
Label_9_01388CE9:
 BYTE   N02  Cn1  v120
 BYTE   N02  Cs2  v108
 BYTE   W12
 BYTE   Dn1  v120
 BYTE   N02  Fs1  v092
 BYTE   W06
 BYTE   N02
 BYTE   W06
 BYTE   Cn1  v120
 BYTE   N02  Fs1  v092
 BYTE   W06
 BYTE   Cn1  v124
 BYTE   N02  Fs1  v092
 BYTE   W06
 BYTE   Dn1  v124
 BYTE   N02  Fs1  v092
 BYTE   W06
 BYTE   Cn1  v124
 BYTE   N02  Fs1  v092
 BYTE   W06
 BYTE   N02
 BYTE   W06
 BYTE   Cn1  v124
 BYTE   N02  Fs1  v092
 BYTE   W06
 BYTE   Dn1  v120
 BYTE   N02  Fs1  v092
 BYTE   W06
 BYTE   N02
 BYTE   W06
 BYTE   Cn1  v124
 BYTE   N02  Fs1  v092
 BYTE   W06
 BYTE   Cn1  v124
 BYTE   N02  Fs1  v092
 BYTE   W06
 BYTE   Dn1  v124
 BYTE   N02  Fs1  v092
 BYTE   W06
 BYTE   N02
 BYTE   W06
 BYTE   PEND 
// 019   ----------------------------------------
Label_9_01388D35:
 BYTE   N02  Cn1  v124
 BYTE   N02  Fs1  v092
 BYTE   W06
 BYTE   N02
 BYTE   W06
 BYTE   Dn1  v120
 BYTE   N02  Fs1  v092
 BYTE   W06
 BYTE   N02
 BYTE   W06
 BYTE   Cn1  v120
 BYTE   N02  Fs1  v092
 BYTE   W06
 BYTE   Cn1  v120
 BYTE   N02  Fs1  v092
 BYTE   W06
 BYTE   Dn1  v124
 BYTE   N02  Fs1  v092
 BYTE   W06
 BYTE   Cn1  v120
 BYTE   N02  Fs1  v092
 BYTE   W06
 BYTE   N02
 BYTE   W06
 BYTE   Cn1  v120
 BYTE   N02  Fs1  v092
 BYTE   W06
 BYTE   Dn1  v124
 BYTE   N02  Fs1  v092
 BYTE   W06
 BYTE   N02
 BYTE   W06
 BYTE   Cn1  v120
 BYTE   N02  Fs1  v092
 BYTE   W06
 BYTE   Cn1  v120
 BYTE   N02  Fs1  v092
 BYTE   W06
 BYTE   Dn1  v124
 BYTE   N02  Fs1  v092
 BYTE   W06
 BYTE   N02
 BYTE   W06
 BYTE   PEND 
// 020   ----------------------------------------
Label_9_01388D83:
 BYTE   N02  Cn1  v120
 BYTE   N02  Fs1  v088
 BYTE   W06
 BYTE   N02
 BYTE   W06
 BYTE   Dn1  v120
 BYTE   N02  Fs1  v088
 BYTE   W06
 BYTE   N02
 BYTE   W06
 BYTE   Cn1  v120
 BYTE   N02  Fs1  v088
 BYTE   W06
 BYTE   Cn1  v120
 BYTE   N02  Fs1  v088
 BYTE   W06
 BYTE   Dn1  v120
 BYTE   N02  Fs1  v088
 BYTE   W06
 BYTE   Cn1  v120
 BYTE   N02  Fs1  v088
 BYTE   W06
 BYTE   N02
 BYTE   W06
 BYTE   Cn1  v120
 BYTE   W06
 BYTE   Dn1  v124
 BYTE   N02  Fs1  v088
 BYTE   W06
 BYTE   N02
 BYTE   W06
 BYTE   Cn1  v120
 BYTE   N02  Fs1  v088
 BYTE   W06
 BYTE   Cn1  v124
 BYTE   N02  Fs1  v088
 BYTE   W06
 BYTE   Dn1  v124
 BYTE   N02  Fs1  v088
 BYTE   W06
 BYTE   N02
 BYTE   W06
 BYTE   PEND 
// 021   ----------------------------------------
Label_9_01388DCE:
 BYTE   N02  Cn1  v120
 BYTE   N02  Fs1  v088
 BYTE   W06
 BYTE   N02
 BYTE   W06
 BYTE   Dn1  v120
 BYTE   N02  Fs1  v088
 BYTE   W06
 BYTE   N02
 BYTE   W06
 BYTE   Cn1  v120
 BYTE   N02  Fs1  v088
 BYTE   W06
 BYTE   Cn1  v124
 BYTE   N02  Fs1  v088
 BYTE   W06
 BYTE   Dn1  v120
 BYTE   N02  Fs1  v088
 BYTE   W06
 BYTE   Cn1  v124
 BYTE   N02  Fs1  v088
 BYTE   W06
 BYTE   N02
 BYTE   W06
 BYTE   Cn1  v124
 BYTE   N02  Fs1  v088
 BYTE   W06
 BYTE   Dn1  v120
 BYTE   N02  Fs1  v088
 BYTE   W06
 BYTE   N02
 BYTE   W06
 BYTE   Cn1  v124
 BYTE   N02  Fs1  v088
 BYTE   W06
 BYTE   Dn1  v120
 BYTE   N02  Fs1  v088
 BYTE   W06
 BYTE   Dn1  v120
 BYTE   N02  Fs1  v088
 BYTE   W06
 BYTE   Dn1  v124
 BYTE   N02  Fs1  v088
 BYTE   W06
 BYTE   PEND 
// 022   ----------------------------------------
Label_9_01388E20:
 BYTE   N02  Cn1  v124
 BYTE   N02  Fs1  v088
 BYTE   W06
 BYTE   N02
 BYTE   W06
 BYTE   Dn1  v120
 BYTE   N02  Fs1  v088
 BYTE   W06
 BYTE   N02
 BYTE   W06
 BYTE   Cn1  v120
 BYTE   N02  Fs1  v088
 BYTE   W06
 BYTE   Cn1  v120
 BYTE   N02  Fs1  v088
 BYTE   W06
 BYTE   Dn1  v124
 BYTE   N02  Fs1  v088
 BYTE   W06
 BYTE   Cn1  v120
 BYTE   N02  Fs1  v088
 BYTE   W06
 BYTE   N02
 BYTE   W06
 BYTE   Cn1  v120
 BYTE   N02  Fs1  v088
 BYTE   W06
 BYTE   Dn1  v120
 BYTE   N02  Fs1  v088
 BYTE   W06
 BYTE   N02
 BYTE   W06
 BYTE   Cn1  v120
 BYTE   N02  Fs1  v088
 BYTE   W06
 BYTE   Cn1  v124
 BYTE   N02  Fs1  v088
 BYTE   W06
 BYTE   Dn1  v124
 BYTE   N02  Fs1  v088
 BYTE   W06
 BYTE   Fs1  v092
 BYTE   W06
 BYTE   PEND 
// 023   ----------------------------------------
Label_9_01388E6F:
 BYTE   N02  Cn1  v120
 BYTE   N02  Fs1  v092
 BYTE   W06
 BYTE   N02
 BYTE   W06
 BYTE   Dn1  v120
 BYTE   N02  Fs1  v092
 BYTE   W06
 BYTE   N02
 BYTE   W06
 BYTE   Cn1  v120
 BYTE   N02  Fs1  v092
 BYTE   W06
 BYTE   Cn1  v120
 BYTE   N02  Fs1  v092
 BYTE   W06
 BYTE   Dn1  v124
 BYTE   N02  Fs1  v092
 BYTE   W06
 BYTE   Cn1  v120
 BYTE   N02  Fs1  v092
 BYTE   W06
 BYTE   N02
 BYTE   W06
 BYTE   Cn1  v120
 BYTE   N02  Fs1  v092
 BYTE   W06
 BYTE   Dn1  v120
 BYTE   N02  Fs1  v092
 BYTE   W06
 BYTE   Fs1  v088
 BYTE   W06
 BYTE   Cn1  v124
 BYTE   N02  Fs1  v092
 BYTE   W06
 BYTE   Cn1  v124
 BYTE   N02  Fs1  v092
 BYTE   W06
 BYTE   Dn1  v124
 BYTE   N02  Fs1  v092
 BYTE   W06
 BYTE   N02
 BYTE   W06
 BYTE   PEND 
// 024   ----------------------------------------
Label_9_01388EBE:
 BYTE   N02  Cn1  v120
 BYTE   N02  Fs1  v092
 BYTE   W06
 BYTE   N02
 BYTE   W06
 BYTE   Dn1  v120
 BYTE   N02  Fs1  v092
 BYTE   W06
 BYTE   N02
 BYTE   W06
 BYTE   Cn1  v124
 BYTE   N02  Fs1  v092
 BYTE   W06
 BYTE   Cn1  v124
 BYTE   N02  Fs1  v092
 BYTE   W06
 BYTE   Dn1  v124
 BYTE   N02  Fs1  v092
 BYTE   W06
 BYTE   Cn1  v124
 BYTE   N02  Fs1  v092
 BYTE   W06
 BYTE   N02
 BYTE   W06
 BYTE   Cn1  v120
 BYTE   W06
 BYTE   Dn1
 BYTE   N02  Fs1  v092
 BYTE   W06
 BYTE   N02
 BYTE   W06
 BYTE   Cn1  v124
 BYTE   N02  Fs1  v092
 BYTE   W06
 BYTE   Cn1  v124
 BYTE   N02  Fs1  v092
 BYTE   W06
 BYTE   Dn1  v124
 BYTE   N02  Fs1  v092
 BYTE   W06
 BYTE   N02
 BYTE   W06
 BYTE   PEND 
// 025   ----------------------------------------
Label_9_01388F08:
 BYTE   N02  Cn1  v124
 BYTE   N02  Fs1  v092
 BYTE   W06
 BYTE   N02
 BYTE   W06
 BYTE   Dn1  v120
 BYTE   N02  Fs1  v092
 BYTE   W06
 BYTE   N02
 BYTE   W06
 BYTE   Cn1  v124
 BYTE   N02  Fs1  v092
 BYTE   W06
 BYTE   Cn1  v124
 BYTE   N02  Fs1  v092
 BYTE   W06
 BYTE   Dn1  v124
 BYTE   N02  Fs1  v092
 BYTE   W06
 BYTE   N02
 BYTE   W06
 BYTE   N02
 BYTE   W06
 BYTE   Dn1  v120
 BYTE   W06
 BYTE   Cn1
 BYTE   N02  Fs1  v092
 BYTE   W06
 BYTE   Cn1  v124
 BYTE   N02  Fs1  v092
 BYTE   W06
 BYTE   Dn1  v120
 BYTE   N02  Fs1  v092
 BYTE   W06
 BYTE   Dn1  v124
 BYTE   N02  Fs1  v092
 BYTE   W06
 BYTE   Dn1  v120
 BYTE   N02  Fs1  v092
 BYTE   W06
 BYTE   Dn1  v124
 BYTE   N02  Fs1  v092
 BYTE   W06
 BYTE   PEND 
// 026   ----------------------------------------
Label_9_01388F56:
 BYTE   N02  Cn1  v120
 BYTE   N02  Cs2  v108
 BYTE   W12
 BYTE   Dn1  v120
 BYTE   N02  Ds2  v100
 BYTE   W12
 BYTE   Cn1  v120
 BYTE   N02  Ds2  v104
 BYTE   W06
 BYTE   Cn1  v120
 BYTE   W06
 BYTE   Dn1
 BYTE   N02  Ds2  v108
 BYTE   W12
 BYTE   Cn1  v120
 BYTE   N02  Ds2  v112
 BYTE   W12
 BYTE   Dn1  v124
 BYTE   N02  Ds2  v116
 BYTE   W12
 BYTE   Cn1  v120
 BYTE   N02  Ds2
 BYTE   W06
 BYTE   Cn1
 BYTE   W03
 BYTE   Cn1  v124
 BYTE   W03
 BYTE   Dn1
 BYTE   N02  An2  v104
 BYTE   W12
 BYTE   PEND 
// 027   ----------------------------------------
Label_9_01388F8D:
 BYTE   N02  Cn1  v120
 BYTE   N02  Cs2  v104
 BYTE   W12
 BYTE   Dn1  v120
 BYTE   N02  Ds2  v100
 BYTE   W12
 BYTE   Cn1  v120
 BYTE   N02  Ds2  v104
 BYTE   W06
 BYTE   Cn1  v120
 BYTE   W06
 BYTE   Dn1
 BYTE   N02  Ds2  v108
 BYTE   W12
 BYTE   Cn1  v120
 BYTE   N02  Ds2  v108
 BYTE   W12
 BYTE   Dn1  v120
 BYTE   N02  Ds2  v112
 BYTE   W12
 BYTE   Cn1  v120
 BYTE   N02  Ds2  v116
 BYTE   W06
 BYTE   Cn1  v124
 BYTE   W06
 BYTE   Dn1
 BYTE   N02  Ds2  v120
 BYTE   W12
 BYTE   PEND 
// 028   ----------------------------------------
Label_9_01388FC3:
 BYTE   N02  Cn1  v120
 BYTE   N02  Cs2  v108
 BYTE   W12
 BYTE   Dn1  v120
 BYTE   N02  Ds2  v096
 BYTE   W12
 BYTE   Cn1  v120
 BYTE   N02  Ds2  v100
 BYTE   W06
 BYTE   Cn1  v120
 BYTE   W06
 BYTE   Dn1  v124
 BYTE   N02  Ds2  v108
 BYTE   W12
 BYTE   Cn1  v120
 BYTE   N02  Ds2  v112
 BYTE   W12
 BYTE   Dn1  v120
 BYTE   N02  Ds2  v116
 BYTE   W12
 BYTE   Cn1  v120
 BYTE   N02  Ds2  v108
 BYTE   W06
 BYTE   Cn1  v116
 BYTE   W03
 BYTE   Cn1  v124
 BYTE   W03
 BYTE   Dn1
 BYTE   N02  An2  v108
 BYTE   W12
 BYTE   PEND 
// 029   ----------------------------------------
Label_9_01388FFD:
 BYTE   N02  Cn1  v120
 BYTE   N02  Cs2  v104
 BYTE   W12
 BYTE   Dn1  v120
 BYTE   N02  Ds2  v096
 BYTE   W12
 BYTE   Cn1  v120
 BYTE   N02  Ds2  v100
 BYTE   W06
 BYTE   Cn1  v120
 BYTE   W06
 BYTE   Dn1  v124
 BYTE   N02  Ds2  v104
 BYTE   W12
 BYTE   Cn1  v120
 BYTE   N02  Ds2  v108
 BYTE   W12
 BYTE   Dn1  v120
 BYTE   N02  Ds2  v112
 BYTE   W12
 BYTE   Cn1  v120
 BYTE   N02  Ds2  v116
 BYTE   W06
 BYTE   Dn1  v120
 BYTE   W06
 BYTE   N02
 BYTE   N02  Ds2
 BYTE   W06
 BYTE   Dn1  v124
 BYTE   W06
 BYTE   PEND 
// 030   ----------------------------------------
 BYTE   Cn1  v120
 BYTE   N02  Cs2  v108
 BYTE   W12
 BYTE   Dn1  v120
 BYTE   W12
 BYTE   Cn1  v124
 BYTE   N02  Ds2  v100
 BYTE   W06
 BYTE   Cn1  v124
 BYTE   W06
 BYTE   Dn1
 BYTE   N02  Ds2  v104
 BYTE   W06
 BYTE   Cn1  v124
 BYTE   W06
 BYTE   Ds2  v108
 BYTE   W06
 BYTE   Cn1  v120
 BYTE   W06
 BYTE   Dn1
 BYTE   N02  Ds2  v116
 BYTE   W12
 BYTE   Cn1  v124
 BYTE   N02  Ds2  v120
 BYTE   W06
 BYTE   Cn1  v124
 BYTE   W06
 BYTE   Dn1
 BYTE   N02  An2  v104
 BYTE   W12
// 031   ----------------------------------------
 BYTE   Cn1  v120
 BYTE   N02  Cs2  v104
 BYTE   W12
 BYTE   Dn1  v124
 BYTE   W12
 BYTE   Cn1  v120
 BYTE   N02  Ds2  v100
 BYTE   W06
 BYTE   Cn1  v124
 BYTE   W06
 BYTE   Dn1
 BYTE   N02  Ds2  v104
 BYTE   W06
 BYTE   Cn1  v120
 BYTE   W06
 BYTE   Ds2  v108
 BYTE   W06
 BYTE   Cn1  v124
 BYTE   W06
 BYTE   Dn1  v120
 BYTE   N02  Ds2  v112
 BYTE   W12
 BYTE   Cn1  v124
 BYTE   N02  Ds2  v120
 BYTE   W06
 BYTE   Cn1  v124
 BYTE   W06
 BYTE   Dn1
 BYTE   N02  Ds2  v120
 BYTE   W12
// 032   ----------------------------------------
Label_9_0138909D:
 BYTE   N02  Cn1  v120
 BYTE   N02  Cs2  v104
 BYTE   W12
 BYTE   Dn1  v120
 BYTE   W12
 BYTE   Cn1
 BYTE   N02  Ds2  v104
 BYTE   W06
 BYTE   Cn1  v120
 BYTE   W06
 BYTE   Dn1  v124
 BYTE   N02  Ds2  v108
 BYTE   W06
 BYTE   Cn1  v124
 BYTE   W06
 BYTE   Ds2  v112
 BYTE   W06
 BYTE   Cn1  v120
 BYTE   W06
 BYTE   Dn1
 BYTE   N02  Ds2  v116
 BYTE   W12
 BYTE   Cn1  v120
 BYTE   N02  Ds2  v124
 BYTE   W06
 BYTE   Cn1
 BYTE   W06
 BYTE   Dn1
 BYTE   N02  An2  v104
 BYTE   W12
 BYTE   PEND 
// 033   ----------------------------------------
 BYTE   Cn1  v124
 BYTE   N02  Cs2  v108
 BYTE   W12
 BYTE   Dn1  v120
 BYTE   W12
 BYTE   Cn1
 BYTE   N02  Ds2  v104
 BYTE   W06
 BYTE   Cn1  v124
 BYTE   W06
 BYTE   Dn1
 BYTE   N02  Ds2  v112
 BYTE   W06
 BYTE   Cn1  v124
 BYTE   W06
 BYTE   Ds2  v116
 BYTE   W06
 BYTE   Cn1  v124
 BYTE   W06
 BYTE   Dn1  v120
 BYTE   N02  Ds2
 BYTE   W12
 BYTE   Dn1  v108
 BYTE   N02  Ds2  v124
 BYTE   W03
 BYTE   Dn1  v108
 BYTE   W03
 BYTE   Dn1  v112
 BYTE   W03
 BYTE   N02
 BYTE   W03
 BYTE   Dn1  v116
 BYTE   W03
 BYTE   Dn1  v124
 BYTE   W03
 BYTE   Dn1  v127
 BYTE   W03
 BYTE   N02
 BYTE   W03
// 034   ----------------------------------------
 BYTE   GoTo
  POIN2 Label_9_013888D4
// 035   ----------------------------------------
 BYTE   PATT
  POIN2 Label_9_013888D4
// 036   ----------------------------------------
 BYTE   PATT
  POIN2 Label_9_01388922
// 037   ----------------------------------------
 BYTE   PATT
  POIN2 Label_9_01388970
// 038   ----------------------------------------
 BYTE   PATT
  POIN2 Label_9_013889BE
// 039   ----------------------------------------
 BYTE   PATT
  POIN2 Label_9_01388A0D
// 040   ----------------------------------------
 BYTE   PATT
  POIN2 Label_9_01388A57
// 041   ----------------------------------------
 BYTE   PATT
  POIN2 Label_9_01388AA5
// 042   ----------------------------------------
 BYTE   PATT
  POIN2 Label_9_01388AF3
// 043   ----------------------------------------
 BYTE   PATT
  POIN2 Label_9_01388B3E
// 044   ----------------------------------------
 BYTE   PATT
  POIN2 Label_9_01388B6D
// 045   ----------------------------------------
 BYTE   PATT
  POIN2 Label_9_01388B9B
// 046   ----------------------------------------
 BYTE   PATT
  POIN2 Label_9_01388BCD
// 047   ----------------------------------------
 BYTE   PATT
  POIN2 Label_9_01388C02
// 048   ----------------------------------------
 BYTE   PATT
  POIN2 Label_9_01388C38
// 049   ----------------------------------------
 BYTE   PATT
  POIN2 Label_9_01388C6D
// 050   ----------------------------------------
 BYTE   PATT
  POIN2 Label_9_01388CA4
// 051   ----------------------------------------
 BYTE   PATT
  POIN2 Label_9_01388CE9
// 052   ----------------------------------------
 BYTE   PATT
  POIN2 Label_9_01388D35
// 053   ----------------------------------------
 BYTE   PATT
  POIN2 Label_9_01388D83
// 054   ----------------------------------------
 BYTE   PATT
  POIN2 Label_9_01388DCE
// 055   ----------------------------------------
 BYTE   PATT
  POIN2 Label_9_01388E20
// 056   ----------------------------------------
 BYTE   PATT
  POIN2 Label_9_01388E6F
// 057   ----------------------------------------
 BYTE   PATT
  POIN2 Label_9_01388EBE
// 058   ----------------------------------------
 BYTE   PATT
  POIN2 Label_9_01388F08
// 059   ----------------------------------------
 BYTE   PATT
  POIN2 Label_9_01388F56
// 060   ----------------------------------------
 BYTE   PATT
  POIN2 Label_9_01388F8D
// 061   ----------------------------------------
 BYTE   PATT
  POIN2 Label_9_01388FC3
// 062   ----------------------------------------
 BYTE   PATT
  POIN2 Label_9_01388FFD
// 063   ----------------------------------------
 BYTE   N02  Cn1  v120
 BYTE   N02  Cs2  v108
 BYTE   W12
 BYTE   Dn1  v120
 BYTE   W12
 BYTE   Cn1  v124
 BYTE   N02  Ds2  v100
 BYTE   W06
 BYTE   Cn1  v124
 BYTE   W06
 BYTE   Dn1  v120
 BYTE   N02  Ds2  v104
 BYTE   W06
 BYTE   Cn1  v124
 BYTE   W06
 BYTE   Ds2  v108
 BYTE   W06
 BYTE   Cn1  v120
 BYTE   W06
 BYTE   Dn1  v124
 BYTE   N02  Ds2  v116
 BYTE   W12
 BYTE   Cn1  v124
 BYTE   N02  Ds2  v120
 BYTE   W06
 BYTE   Cn1  v124
 BYTE   W06
 BYTE   Dn1
 BYTE   N02  An2  v104
 BYTE   W12
// 064   ----------------------------------------
 BYTE   Cn1  v120
 BYTE   N02  Cs2  v104
 BYTE   W12
 BYTE   Dn1  v120
 BYTE   W12
 BYTE   Cn1
 BYTE   N02  Ds2  v100
 BYTE   W06
 BYTE   Cn1  v124
 BYTE   W06
 BYTE   Dn1  v120
 BYTE   N02  Ds2  v104
 BYTE   W06
 BYTE   Cn1  v120
 BYTE   W06
 BYTE   Ds2  v108
 BYTE   W06
 BYTE   Cn1  v124
 BYTE   W06
 BYTE   Dn1  v120
 BYTE   N02  Ds2  v112
 BYTE   W12
 BYTE   Cn1  v124
 BYTE   N02  Ds2  v120
 BYTE   W06
 BYTE   Cn1  v124
 BYTE   W06
 BYTE   Dn1
 BYTE   N02  Ds2  v120
 BYTE   W12
// 065   ----------------------------------------
 BYTE   PATT
  POIN2 Label_9_0138909D
// 066   ----------------------------------------
 BYTE   N02  Cn1  v124
 BYTE   N02  Cs2  v108
 BYTE   W12
 BYTE   Dn1  v120
 BYTE   W12
 BYTE   Cn1
 BYTE   N02  Ds2  v104
 BYTE   W06
 BYTE   Cn1  v124
 BYTE   W06
 BYTE   Dn1
 BYTE   N02  Ds2  v112
 BYTE   W06
 BYTE   Cn1  v124
 BYTE   W06
 BYTE   Ds2  v116
 BYTE   W06
 BYTE   Cn1  v124
 BYTE   W06
 BYTE   Dn1  v120
 BYTE   N02  Ds2
 BYTE   W12
 BYTE   Ds2  v124
 BYTE   W06
 BYTE   Dn1  v120
 BYTE   W06
 BYTE   N02
 BYTE   W06
 BYTE   Dn1  v124
 BYTE   W06
// 067   ----------------------------------------
 BYTE   Cn1  v120
 BYTE   N02  Cs2  v108
 BYTE   W07
 BYTE   W05
 BYTE   Dn1  v120
 BYTE   N02  Ds2  v100
 BYTE   W12
 BYTE   Cn1  v124
 BYTE   N02  Ds2  v104
 BYTE   W06
 BYTE   Cn1  v124
 BYTE   W01
 BYTE   W05
 BYTE   Dn1  v120
 BYTE   N02  Ds2  v108
 BYTE   W06
 BYTE   Cn1  v124
 BYTE   W06
 BYTE   Ds2  v112
 BYTE   W06
 BYTE   Cn1  v120
 BYTE   W01
 BYTE   W05
 BYTE   Dn1  v124
 BYTE   N02  Ds2  v116
 BYTE   W12
 BYTE   Cn1  v124
 BYTE   N02  Ds2  v120
 BYTE   W06
 BYTE   Cn1  v124
 BYTE   W01
 BYTE   W05
 BYTE   Dn1
 BYTE   N02  An2  v104
 BYTE   W12
// 068   ----------------------------------------
 BYTE   Cn1  v120
 BYTE   N02  Cs2  v104
 BYTE   W08
 BYTE   W04
 BYTE   Dn1  v120
 BYTE   N02  Ds2  v100
 BYTE   W12
 BYTE   Cn1  v120
 BYTE   N02  Ds2  v104
 BYTE   W06
 BYTE   Cn1  v124
 BYTE   W02
 BYTE   W04
 BYTE   Dn1  v120
 BYTE   N02  Ds2  v108
 BYTE   W06
 BYTE   Cn1  v120
 BYTE   W06
 BYTE   Ds2  v108
 BYTE   W06
 BYTE   Cn1  v124
 BYTE   W02
 BYTE   W04
 BYTE   Dn1  v120
 BYTE   N02  Ds2  v112
 BYTE   W12
 BYTE   Cn1  v124
 BYTE   N02  Ds2  v116
 BYTE   W06
 BYTE   Cn1  v124
 BYTE   W03
 BYTE   W03
 BYTE   Dn1
 BYTE   N02  Ds2  v120
 BYTE   W12
// 069   ----------------------------------------
 BYTE   Cn1
 BYTE   N02  Cs2  v108
 BYTE   W09
 BYTE   W03
 BYTE   Dn1  v120
 BYTE   N02  Ds2  v096
 BYTE   W12
 BYTE   Cn1  v120
 BYTE   N02  Ds2  v100
 BYTE   W06
 BYTE   Cn1  v120
 BYTE   W03
 BYTE   W03
 BYTE   Dn1  v124
 BYTE   N02  Ds2  v108
 BYTE   W06
 BYTE   Cn1  v124
 BYTE   W06
 BYTE   Ds2  v112
 BYTE   W06
 BYTE   Cn1  v120
 BYTE   W03
 BYTE   W03
 BYTE   Dn1
 BYTE   N02  Ds2  v116
 BYTE   W12
 BYTE   Cn1  v120
 BYTE   N02  Ds2  v108
 BYTE   W06
 BYTE   Cn1  v124
 BYTE   W04
 BYTE   W02
 BYTE   Dn1
 BYTE   N02  An2  v108
 BYTE   W12
// 070   ----------------------------------------
 BYTE   Cn1  v124
 BYTE   N02  Cs2  v104
 BYTE   W10
 BYTE   W02
 BYTE   Dn1  v120
 BYTE   N02  Ds2  v096
 BYTE   W12
 BYTE   Cn1  v120
 BYTE   N02  Ds2  v100
 BYTE   W06
 BYTE   Cn1  v124
 BYTE   W04
 BYTE   W02
 BYTE   Dn1
 BYTE   N02  Ds2  v104
 BYTE   W06
 BYTE   Cn1  v124
 BYTE   W06
 BYTE   Ds2  v108
 BYTE   W06
 BYTE   Cn1  v124
 BYTE   W05
 BYTE   W01
 BYTE   Dn1  v120
 BYTE   N02  Ds2  v112
 BYTE   W12
 BYTE   Ds2  v116
 BYTE   W06
 BYTE   Dn1  v120
 BYTE   W05
 BYTE   W01
 BYTE   N02
 BYTE   N02  Ds2
 BYTE   W06
 BYTE   Dn1  v124
 BYTE   W06
// 071   ----------------------------------------
 BYTE   Cn1  v120
 BYTE   N02  Cs2  v108
 BYTE   W11
 BYTE   W01
 BYTE   Dn1  v120
 BYTE   W12
 BYTE   Cn1  v124
 BYTE   N02  Ds2  v100
 BYTE   W06
 BYTE   Cn1  v124
 BYTE   W05
 BYTE   W01
 BYTE   Dn1  v120
 BYTE   N02  Ds2  v104
 BYTE   W06
 BYTE   Cn1  v124
 BYTE   W06
 BYTE   Ds2  v108
 BYTE   W06
 BYTE   Cn1  v120
 BYTE   W06
 BYTE   Dn1  v124
 BYTE   N02  Ds2  v116
 BYTE   W12
 BYTE   Cn1  v124
 BYTE   N02  Ds2  v120
 BYTE   W06
 BYTE   Cn1  v124
 BYTE   W06
 BYTE   Dn1
 BYTE   N02  An2  v104
 BYTE   W12
// 072   ----------------------------------------
 BYTE   Cn1  v120
 BYTE   N02  Cs2  v104
 BYTE   W12
 BYTE   Dn1  v120
 BYTE   W12
 BYTE   Cn1
 BYTE   N02  Ds2  v100
 BYTE   W06
 BYTE   Cn1  v124
 BYTE   W06
 BYTE   Dn1  v120
 BYTE   N02  Ds2  v104
 BYTE   W01
 BYTE   W05
 BYTE   Cn1  v120
 BYTE   W06
 BYTE   Ds2  v108
 BYTE   W06
 BYTE   Cn1  v124
 BYTE   W06
 BYTE   Dn1  v120
 BYTE   N02  Ds2  v112
 BYTE   W01
 BYTE   W11
 BYTE   Cn1  v124
 BYTE   N02  Ds2  v120
 BYTE   W06
 BYTE   Cn1  v124
 BYTE   W06
 BYTE   Dn1
 BYTE   N02  Ds2  v120
 BYTE   W01
 BYTE   W11
// 073   ----------------------------------------
 BYTE   Cn1
 BYTE   N02  Cs2  v104
 BYTE   W12
 BYTE   Dn1  v120
 BYTE   W01
 BYTE   W11
 BYTE   Cn1
 BYTE   N02  Ds2  v104
 BYTE   W06
 BYTE   Cn1  v120
 BYTE   W06
 BYTE   Dn1  v124
 BYTE   N02  Ds2  v108
 BYTE   W02
 BYTE   W04
 BYTE   Cn1  v124
 BYTE   W06
 BYTE   Ds2  v112
 BYTE   W06
 BYTE   Cn1  v120
 BYTE   W06
 BYTE   Dn1
 BYTE   N02  Ds2  v116
 BYTE   W02
 BYTE   W10
 BYTE   Cn1  v120
 BYTE   N02  Ds2  v124
 BYTE   W06
 BYTE   Cn1
 BYTE   W06
 BYTE   Dn1
 BYTE   N02  An2  v104
 BYTE   W02
 BYTE   W10
// 074   ----------------------------------------
 BYTE   Cn1  v124
 BYTE   N02  Cs2  v108
 BYTE   W12
 BYTE   Dn1  v120
 BYTE   W03
 BYTE   W09
 BYTE   Cn1
 BYTE   N02  Ds2  v104
 BYTE   W06
 BYTE   Cn1  v124
 BYTE   W06
 BYTE   Dn1
 BYTE   N02  Ds2  v112
 BYTE   W03
 BYTE   W03
 BYTE   Cn1  v124
 BYTE   W06
 BYTE   Ds2  v116
 BYTE   W06
 BYTE   Cn1  v124
 BYTE   W06
 BYTE   Dn1  v120
 BYTE   N02  Ds2
 BYTE   W03
 BYTE   W09
 BYTE   Ds2  v124
 BYTE   W06
 BYTE   Dn1  v120
 BYTE   W06
 BYTE   N02
 BYTE   W03
 BYTE   W03
 BYTE   Dn1  v124
 BYTE   W03
 BYTE   W03
 BYTE   FINE

//**************** Track 11 (Midi-Chn.10) ****************//

song2C_011:
// 000   ----------------------------------------
 BYTE   KEYSH   song2C_key+0
 BYTE   VOICE   30
 BYTE   PAN   c_v-38
 BYTE   VOL   22*song2C_mvl/mxv
 BYTE   MOD 0
 BYTE   CnM1
 BYTE   TIE  An1  v096
 BYTE   W96
// 001   ----------------------------------------
 BYTE   W72
 BYTE   EOT
 BYTE   W24
// 002   ----------------------------------------
Label_10_01389415:
 BYTE   W96
// 003   ----------------------------------------
 BYTE   W96
// 004   ----------------------------------------
 BYTE   W96
// 005   ----------------------------------------
 BYTE   W96
// 006   ----------------------------------------
 BYTE   W96
// 007   ----------------------------------------
 BYTE   W96
// 008   ----------------------------------------
 BYTE   W96
// 009   ----------------------------------------
 BYTE   W96
// 010   ----------------------------------------
 BYTE   W96
// 011   ----------------------------------------
 BYTE   W96
// 012   ----------------------------------------
 BYTE   W96
// 013   ----------------------------------------
 BYTE   W96
// 014   ----------------------------------------
 BYTE   W96
// 015   ----------------------------------------
 BYTE   W96
// 016   ----------------------------------------
 BYTE   W96
// 017   ----------------------------------------
 BYTE   W96
// 018   ----------------------------------------
 BYTE   W96
// 019   ----------------------------------------
 BYTE   W96
// 020   ----------------------------------------
 BYTE   W96
// 021   ----------------------------------------
 BYTE   W96
// 022   ----------------------------------------
 BYTE   W96
// 023   ----------------------------------------
 BYTE   W96
// 024   ----------------------------------------
 BYTE   W96
// 025   ----------------------------------------
 BYTE   W96
// 026   ----------------------------------------
Label_10_0138942D:
 BYTE   N06  An2  v108
 BYTE   W06
 BYTE   N06
 BYTE   W06
 BYTE   N06
 BYTE   W06
 BYTE   N06
 BYTE   W12
 BYTE   N06
 BYTE   W12
 BYTE   N06
 BYTE   W12
 BYTE   N06
 BYTE   W06
 BYTE   N06
 BYTE   W12
 BYTE   N12
 BYTE   W24
 BYTE   PEND 
// 027   ----------------------------------------
 BYTE   PATT
  POIN2 Label_10_0138942D
// 028   ----------------------------------------
Label_10_01389447:
 BYTE   N06  Bn2  v108
 BYTE   W06
 BYTE   N06
 BYTE   W06
 BYTE   An2
 BYTE   W06
 BYTE   Bn2
 BYTE   W12
 BYTE   An2
 BYTE   W12
 BYTE   Cn3
 BYTE   W12
 BYTE   Bn2
 BYTE   W06
 BYTE   An2
 BYTE   W12
 BYTE   N12  Bn2
 BYTE   W24
 BYTE   PEND 
// 029   ----------------------------------------
 BYTE   PATT
  POIN2 Label_10_0138942D
// 030   ----------------------------------------
 BYTE   PATT
  POIN2 Label_10_0138942D
// 031   ----------------------------------------
 BYTE   PATT
  POIN2 Label_10_0138942D
// 032   ----------------------------------------
 BYTE   PATT
  POIN2 Label_10_01389447
// 033   ----------------------------------------
 BYTE   PATT
  POIN2 Label_10_0138942D
// 034   ----------------------------------------
 BYTE   GoTo
  POIN2 Label_10_01389415
// 035   ----------------------------------------
 BYTE   W96
// 036   ----------------------------------------
 BYTE   W96
// 037   ----------------------------------------
 BYTE   W96
// 038   ----------------------------------------
 BYTE   W96
// 039   ----------------------------------------
 BYTE   W96
// 040   ----------------------------------------
 BYTE   W96
// 041   ----------------------------------------
 BYTE   W96
// 042   ----------------------------------------
 BYTE   W96
// 043   ----------------------------------------
 BYTE   W96
// 044   ----------------------------------------
 BYTE   W96
// 045   ----------------------------------------
 BYTE   W96
// 046   ----------------------------------------
 BYTE   W96
// 047   ----------------------------------------
 BYTE   W96
// 048   ----------------------------------------
 BYTE   W96
// 049   ----------------------------------------
 BYTE   W96
// 050   ----------------------------------------
 BYTE   W96
// 051   ----------------------------------------
 BYTE   W96
// 052   ----------------------------------------
 BYTE   W96
// 053   ----------------------------------------
 BYTE   W96
// 054   ----------------------------------------
 BYTE   W96
// 055   ----------------------------------------
 BYTE   W96
// 056   ----------------------------------------
 BYTE   W96
// 057   ----------------------------------------
 BYTE   W96
// 058   ----------------------------------------
 BYTE   W96
// 059   ----------------------------------------
 BYTE   PATT
  POIN2 Label_10_0138942D
// 060   ----------------------------------------
 BYTE   PATT
  POIN2 Label_10_0138942D
// 061   ----------------------------------------
 BYTE   PATT
  POIN2 Label_10_01389447
// 062   ----------------------------------------
 BYTE   PATT
  POIN2 Label_10_0138942D
// 063   ----------------------------------------
 BYTE   PATT
  POIN2 Label_10_0138942D
// 064   ----------------------------------------
 BYTE   PATT
  POIN2 Label_10_0138942D
// 065   ----------------------------------------
 BYTE   PATT
  POIN2 Label_10_01389447
// 066   ----------------------------------------
 BYTE   PATT
  POIN2 Label_10_0138942D
// 067   ----------------------------------------
 BYTE   N06  An2  v108
 BYTE   W06
 BYTE   N06
 BYTE   W01
 BYTE   W05
 BYTE   N06
 BYTE   W06
 BYTE   N06
 BYTE   W12
 BYTE   N06
 BYTE   W01
 BYTE   W11
 BYTE   N06
 BYTE   W12
 BYTE   N06
 BYTE   W01
 BYTE   W05
 BYTE   N06
 BYTE   W12
 BYTE   N12
 BYTE   W07
 BYTE   W17
// 068   ----------------------------------------
 BYTE   N06
 BYTE   W06
 BYTE   N06
 BYTE   W02
 BYTE   W04
 BYTE   N06
 BYTE   W06
 BYTE   N06
 BYTE   W12
 BYTE   N06
 BYTE   W02
 BYTE   W10
 BYTE   N06
 BYTE   W12
 BYTE   N06
 BYTE   W02
 BYTE   W04
 BYTE   N06
 BYTE   W12
 BYTE   N12
 BYTE   W09
 BYTE   W15
// 069   ----------------------------------------
 BYTE   N06  Bn2
 BYTE   W06
 BYTE   N06
 BYTE   W03
 BYTE   W03
 BYTE   An2
 BYTE   W06
 BYTE   Bn2
 BYTE   W12
 BYTE   An2
 BYTE   W03
 BYTE   W09
 BYTE   Cn3
 BYTE   W12
 BYTE   Bn2
 BYTE   W03
 BYTE   W03
 BYTE   An2
 BYTE   W12
 BYTE   N12  Bn2
 BYTE   W10
 BYTE   W14
// 070   ----------------------------------------
 BYTE   N06  An2
 BYTE   W06
 BYTE   N06
 BYTE   W04
 BYTE   W02
 BYTE   N06
 BYTE   W06
 BYTE   N06
 BYTE   W12
 BYTE   N06
 BYTE   W04
 BYTE   W08
 BYTE   N06
 BYTE   W12
 BYTE   N06
 BYTE   W05
 BYTE   W01
 BYTE   N06
 BYTE   W12
 BYTE   N12
 BYTE   W11
 BYTE   W13
// 071   ----------------------------------------
 BYTE   N06
 BYTE   W06
 BYTE   N06
 BYTE   W05
 BYTE   W01
 BYTE   N06
 BYTE   W06
 BYTE   N06
 BYTE   W12
 BYTE   N06
 BYTE   W05
 BYTE   W07
 BYTE   N06
 BYTE   W12
 BYTE   N06
 BYTE   W06
 BYTE   N06
 BYTE   W12
 BYTE   N12
 BYTE   W12
 BYTE   W12
// 072   ----------------------------------------
 BYTE   N06
 BYTE   W06
 BYTE   N06
 BYTE   W06
 BYTE   N06
 BYTE   W06
 BYTE   N06
 BYTE   W12
 BYTE   N06
 BYTE   W07
 BYTE   W05
 BYTE   N06
 BYTE   W12
 BYTE   N06
 BYTE   W06
 BYTE   N06
 BYTE   W01
 BYTE   W11
 BYTE   N12
 BYTE   W13
 BYTE   W11
// 073   ----------------------------------------
 BYTE   N06  Bn2
 BYTE   W06
 BYTE   N06
 BYTE   W06
 BYTE   An2
 BYTE   W01
 BYTE   W05
 BYTE   Bn2
 BYTE   W12
 BYTE   An2
 BYTE   W08
 BYTE   W04
 BYTE   Cn3
 BYTE   W12
 BYTE   Bn2
 BYTE   W06
 BYTE   An2
 BYTE   W02
 BYTE   W10
 BYTE   N12  Bn2
 BYTE   W14
 BYTE   W10
// 074   ----------------------------------------
 BYTE   N06  An2
 BYTE   W06
 BYTE   N06
 BYTE   W06
 BYTE   N06
 BYTE   W03
 BYTE   W03
 BYTE   N06
 BYTE   W12
 BYTE   N06
 BYTE   W09
 BYTE   W03
 BYTE   N06
 BYTE   W12
 BYTE   N06
 BYTE   W06
 BYTE   N06
 BYTE   W03
 BYTE   W09
 BYTE   N12
 BYTE   W15
 BYTE   W06
 BYTE   W03
 BYTE   FINE

//******************************************************//
	ALIGN 4

song2C:
	BYTE	11	// NumTrks
	BYTE	0	// NumBlks
	BYTE	song2C_pri	// Priority
	BYTE	song2C_rev	// Reverb.
    
	POIN2	song2C_grp
    
	POIN2	song2C_001
	POIN2	song2C_002
	POIN2	song2C_003
	POIN2	song2C_004
	POIN2	song2C_005
	POIN2	song2C_006
	POIN2	song2C_007
	POIN2	song2C_008
	POIN2	song2C_009
	POIN2	song2C_010
	POIN2	song2C_011

	
