//Event file generated from Sappy .s format.
	#include "MPlayDef.event"

	#define	songC5_grp  voicegroup001
	#define	songC5_pri  0
	#define	songC5_rev  0
	#define	songC5_mvl  127
	#define	songC5_key  0
	#define	songC5_tbs  1
	#define	songC5_exg  0
	#define	songC5_cmp  1

	// .rodata
	//	songC5
	ALIGN 4


//**************** Track 1 (Midi-Chn.0) ****************//

songC5_001:
// 000   ----------------------------------------
 BYTE   KEYSH   songC5_key+0
 BYTE   TEMPO   130*songC5_tbs/2
 BYTE   VOICE   47
 BYTE   VOL   26*songC5_mvl/mxv
 BYTE   PAN   c_v+0
 BYTE   BEND   c_v+0
 BYTE   W48
 BYTE   N30  Gn1  v112
 BYTE   W30
 BYTE   N01  Gn1  v048
 BYTE   W03
 BYTE   Gn1  v064
 BYTE   W03
 BYTE   Gn1  v080
 BYTE   W03
 BYTE   Gn1  v096
 BYTE   W03
 BYTE   Gn1  v112
 BYTE   W03
 BYTE   Gn1  v127
 BYTE   W03
// 001   ----------------------------------------
Label_0_014AE870:
 BYTE   W96
// 002   ----------------------------------------
 BYTE   W96
// 003   ----------------------------------------
 BYTE   W96
// 004   ----------------------------------------
 BYTE   W96
// 005   ----------------------------------------
 BYTE   W96
// 006   ----------------------------------------
 BYTE   W96
// 007   ----------------------------------------
 BYTE   W96
// 008   ----------------------------------------
 BYTE   W96
// 009   ----------------------------------------
 BYTE   W96
// 010   ----------------------------------------
 BYTE   W96
// 011   ----------------------------------------
 BYTE   W96
// 012   ----------------------------------------
 BYTE   W96
// 013   ----------------------------------------
 BYTE   W96
// 014   ----------------------------------------
 BYTE   W96
// 015   ----------------------------------------
 BYTE   W96
// 016   ----------------------------------------
 BYTE   W96
// 017   ----------------------------------------
 BYTE   W96
// 018   ----------------------------------------
 BYTE   W96
// 019   ----------------------------------------
 BYTE   W96
// 020   ----------------------------------------
 BYTE   W96
// 021   ----------------------------------------
 BYTE   W96
// 022   ----------------------------------------
 BYTE   W96
// 023   ----------------------------------------
 BYTE   W96
// 024   ----------------------------------------
 BYTE   W96
// 025   ----------------------------------------
 BYTE   W96
// 026   ----------------------------------------
 BYTE   W96
// 027   ----------------------------------------
 BYTE   W96
// 028   ----------------------------------------
 BYTE   W96
// 029   ----------------------------------------
 BYTE   W96
// 030   ----------------------------------------
 BYTE   W96
// 031   ----------------------------------------
 BYTE   W96
// 032   ----------------------------------------
 BYTE   W96
// 033   ----------------------------------------
 BYTE   W96
// 034   ----------------------------------------
 BYTE   W96
// 035   ----------------------------------------
 BYTE   W96
// 036   ----------------------------------------
 BYTE   W96
// 037   ----------------------------------------
 BYTE   W96
// 038   ----------------------------------------
 BYTE   W96
// 039   ----------------------------------------
 BYTE   W96
// 040   ----------------------------------------
 BYTE   W96
// 041   ----------------------------------------
 BYTE   W96
// 042   ----------------------------------------
 BYTE   W96
// 043   ----------------------------------------
 BYTE   W96
// 044   ----------------------------------------
 BYTE   W96
// 045   ----------------------------------------
 BYTE   W96
// 046   ----------------------------------------
 BYTE   W96
// 047   ----------------------------------------
 BYTE   W96
// 048   ----------------------------------------
 BYTE   W96
// 049   ----------------------------------------
 BYTE   W96
// 050   ----------------------------------------
 BYTE   W96
// 051   ----------------------------------------
 BYTE   W96
// 052   ----------------------------------------
 BYTE   W96
// 053   ----------------------------------------
 BYTE   W96
// 054   ----------------------------------------
 BYTE   W96
// 055   ----------------------------------------
 BYTE   W96
// 056   ----------------------------------------
 BYTE   W96
// 057   ----------------------------------------
 BYTE   W96
// 058   ----------------------------------------
 BYTE   W96
// 059   ----------------------------------------
 BYTE   W96
// 060   ----------------------------------------
 BYTE   W96
// 061   ----------------------------------------
 BYTE   W96
// 062   ----------------------------------------
 BYTE   W96
// 063   ----------------------------------------
 BYTE   W96
// 064   ----------------------------------------
 BYTE   W96
// 065   ----------------------------------------
 BYTE   GoTo
  POIN2 Label_0_014AE870
 BYTE   FINE

//**************** Track 2 (Midi-Chn.1) ****************//

songC5_002:
// 000   ----------------------------------------
 BYTE   KEYSH   songC5_key+0
 BYTE   VOICE   106
 BYTE   VOL   27*songC5_mvl/mxv
 BYTE   PAN   c_v+0
 BYTE   BEND   c_v+0
 BYTE   W96
// 001   ----------------------------------------
Label_1_014AE427:
 BYTE   N18  As3  v048
 BYTE   N18  As4
 BYTE   W18
 BYTE   An3
 BYTE   N18  An4
 BYTE   W18
 BYTE   N12  As3
 BYTE   N12  As4
 BYTE   W12
 BYTE   N18  Cn4  v064
 BYTE   N18  Cn5
 BYTE   W18
 BYTE   As3
 BYTE   N18  As4
 BYTE   W18
 BYTE   N12  Cn4
 BYTE   N12  Cn5
 BYTE   W12
 BYTE   PEND 
// 002   ----------------------------------------
Label_1_014AE446:
 BYTE   N48  Dn4  v080
 BYTE   N48  Dn5
 BYTE   W48
 BYTE   En4  v096
 BYTE   N48  En5
 BYTE   W48
 BYTE   PEND 
// 003   ----------------------------------------
 BYTE   PATT
  POIN2 Label_1_014AE427
// 004   ----------------------------------------
 BYTE   PATT
  POIN2 Label_1_014AE446
// 005   ----------------------------------------
 BYTE   W96
// 006   ----------------------------------------
 BYTE   W96
// 007   ----------------------------------------
 BYTE   W96
// 008   ----------------------------------------
 BYTE   W96
// 009   ----------------------------------------
Label_1_014AE460:
 BYTE   N18  Dn3  v096
 BYTE   N18  Dn4
 BYTE   W18
 BYTE   N12  Fn3
 BYTE   N12  Fn4
 BYTE   W12
 BYTE   N18  En3
 BYTE   N18  En4
 BYTE   W18
 BYTE   Cn3
 BYTE   N18  Cn4
 BYTE   W18
 BYTE   N30  Dn3
 BYTE   N30  Dn4
 BYTE   W30
 BYTE   PEND 
// 010   ----------------------------------------
 BYTE   N48  An3
 BYTE   N48  An4
 BYTE   W48
 BYTE   N24  Gn3
 BYTE   N24  Gn4
 BYTE   W24
 BYTE   Fn3
 BYTE   N24  Fn4
 BYTE   W24
// 011   ----------------------------------------
 BYTE   PATT
  POIN2 Label_1_014AE460
// 012   ----------------------------------------
 BYTE   N48  An3  v096
 BYTE   N48  An4
 BYTE   W48
 BYTE   N24  As3
 BYTE   N24  As4
 BYTE   W24
 BYTE   Dn3
 BYTE   N24  Dn4
 BYTE   W24
// 013   ----------------------------------------
Label_1_014AE49C:
 BYTE   N06  Bn1  v127
 BYTE   N06  En2
 BYTE   W18
 BYTE   An1
 BYTE   N06  Dn2
 BYTE   W18
 BYTE   Cn2
 BYTE   N06  Fn2
 BYTE   W18
 BYTE   Bn1
 BYTE   N06  En2
 BYTE   W18
 BYTE   N03  An1
 BYTE   N03  Dn2
 BYTE   W12
 BYTE   N06  Bn1
 BYTE   N06  En2
 BYTE   W12
 BYTE   PEND 
// 014   ----------------------------------------
 BYTE   PATT
  POIN2 Label_1_014AE49C
// 015   ----------------------------------------
 BYTE   PATT
  POIN2 Label_1_014AE49C
// 016   ----------------------------------------
 BYTE   PATT
  POIN2 Label_1_014AE49C
// 017   ----------------------------------------
Label_1_014AE4C8:
 BYTE   N18  Dn4  v096
 BYTE   W18
 BYTE   N12  Fn4
 BYTE   W12
 BYTE   N18  En4
 BYTE   W18
 BYTE   Cn4
 BYTE   W18
 BYTE   N30  Dn4
 BYTE   W30
 BYTE   PEND 
// 018   ----------------------------------------
 BYTE   N48  An4
 BYTE   W48
 BYTE   N24  Gn4
 BYTE   W24
 BYTE   Fn4
 BYTE   W24
// 019   ----------------------------------------
 BYTE   PATT
  POIN2 Label_1_014AE4C8
// 020   ----------------------------------------
 BYTE   N48  An4  v096
 BYTE   W48
 BYTE   N24  As4
 BYTE   W24
 BYTE   Dn4
 BYTE   W24
// 021   ----------------------------------------
Label_1_014AE4EE:
 BYTE   N72  Cn4  v080
 BYTE   W72
 BYTE   N24  Dn4
 BYTE   W24
 BYTE   PEND 
// 022   ----------------------------------------
Label_1_014AE4F6:
 BYTE   N72  Bn3  v080
 BYTE   W72
 BYTE   N12  Cn4
 BYTE   W12
 BYTE   Dn4  v096
 BYTE   W12
 BYTE   PEND 
// 023   ----------------------------------------
Label_1_014AE501:
 BYTE   N72  En4  v096
 BYTE   W72
 BYTE   N12  Dn4
 BYTE   W12
 BYTE   En4
 BYTE   W12
 BYTE   PEND 
// 024   ----------------------------------------
Label_1_014AE50B:
 BYTE   N48  Dn4  v080
 BYTE   W48
 BYTE   Gn4  v096
 BYTE   W48
 BYTE   PEND 
// 025   ----------------------------------------
 BYTE   PATT
  POIN2 Label_1_014AE4EE
// 026   ----------------------------------------
 BYTE   PATT
  POIN2 Label_1_014AE4F6
// 027   ----------------------------------------
 BYTE   PATT
  POIN2 Label_1_014AE501
// 028   ----------------------------------------
 BYTE   PATT
  POIN2 Label_1_014AE50B
// 029   ----------------------------------------
 BYTE   N48  Dn4  v096
 BYTE   W48
 BYTE   N24  En4
 BYTE   W24
 BYTE   Fn4
 BYTE   W24
// 030   ----------------------------------------
 BYTE   N48  Gn4
 BYTE   W48
 BYTE   Cn5
 BYTE   W48
// 031   ----------------------------------------
 BYTE   Fn5
 BYTE   W48
 BYTE   Ds5
 BYTE   W48
// 032   ----------------------------------------
 BYTE   Cn5
 BYTE   W48
 BYTE   N48
 BYTE   N48  Fn5
 BYTE   W48
// 033   ----------------------------------------
Label_1_014AE53F:
 BYTE   N48  Cn5  v096
 BYTE   W48
 BYTE   N24  Bn4
 BYTE   W24
 BYTE   Dn5
 BYTE   W24
 BYTE   PEND 
// 034   ----------------------------------------
Label_1_014AE549:
 BYTE   N18  Cn5  v096
 BYTE   W18
 BYTE   Bn4
 BYTE   W18
 BYTE   N12  En5
 BYTE   W12
 BYTE   N18  Dn5
 BYTE   W18
 BYTE   Cn5
 BYTE   W18
 BYTE   N12  Bn4
 BYTE   W12
 BYTE   PEND 
// 035   ----------------------------------------
Label_1_014AE55B:
 BYTE   N48  An4  v096
 BYTE   W48
 BYTE   Gs4
 BYTE   N48  Bn4  v064
 BYTE   W48
 BYTE   PEND 
// 036   ----------------------------------------
Label_1_014AE565:
 BYTE   N48  Cn5  v096
 BYTE   W48
 BYTE   Bn4
 BYTE   N48  Dn5  v064
 BYTE   W48
 BYTE   PEND 
// 037   ----------------------------------------
 BYTE   PATT
  POIN2 Label_1_014AE53F
// 038   ----------------------------------------
 BYTE   PATT
  POIN2 Label_1_014AE549
// 039   ----------------------------------------
 BYTE   PATT
  POIN2 Label_1_014AE55B
// 040   ----------------------------------------
 BYTE   PATT
  POIN2 Label_1_014AE565
// 041   ----------------------------------------
 BYTE   N96  Gs4  v096
 BYTE   W96
// 042   ----------------------------------------
Label_1_014AE587:
 BYTE   N18  Gn4  v096
 BYTE   W18
 BYTE   Gs4
 BYTE   W18
 BYTE   N60  Cn4
 BYTE   W06
 BYTE   N54  Cn3  v080
 BYTE   W54
 BYTE   PEND 
// 043   ----------------------------------------
Label_1_014AE595:
 BYTE   N48  Fn4  v096
 BYTE   W48
 BYTE   En4
 BYTE   W48
 BYTE   PEND 
// 044   ----------------------------------------
Label_1_014AE59C:
 BYTE   N48  Gn4  v096
 BYTE   W48
 BYTE   Gs4
 BYTE   W48
 BYTE   PEND 
// 045   ----------------------------------------
 BYTE   N96
 BYTE   W96
// 046   ----------------------------------------
 BYTE   PATT
  POIN2 Label_1_014AE587
// 047   ----------------------------------------
 BYTE   PATT
  POIN2 Label_1_014AE595
// 048   ----------------------------------------
 BYTE   PATT
  POIN2 Label_1_014AE59C
// 049   ----------------------------------------
 BYTE   W96
// 050   ----------------------------------------
 BYTE   W96
// 051   ----------------------------------------
 BYTE   W96
// 052   ----------------------------------------
 BYTE   W96
// 053   ----------------------------------------
 BYTE   W96
// 054   ----------------------------------------
 BYTE   W96
// 055   ----------------------------------------
 BYTE   W96
// 056   ----------------------------------------
 BYTE   W96
// 057   ----------------------------------------
 BYTE   PATT
  POIN2 Label_1_014AE49C
// 058   ----------------------------------------
 BYTE   PATT
  POIN2 Label_1_014AE49C
// 059   ----------------------------------------
 BYTE   PATT
  POIN2 Label_1_014AE49C
// 060   ----------------------------------------
 BYTE   PATT
  POIN2 Label_1_014AE49C
// 061   ----------------------------------------
 BYTE   PATT
  POIN2 Label_1_014AE49C
// 062   ----------------------------------------
 BYTE   PATT
  POIN2 Label_1_014AE49C
// 063   ----------------------------------------
 BYTE   PATT
  POIN2 Label_1_014AE49C
// 064   ----------------------------------------
 BYTE   PATT
  POIN2 Label_1_014AE49C
// 065   ----------------------------------------
 BYTE   GoTo
  POIN2 Label_1_014AE427
 BYTE   FINE

//**************** Track 3 (Midi-Chn.2) ****************//

songC5_003:
// 000   ----------------------------------------
 BYTE   KEYSH   songC5_key+0
 BYTE   VOICE   62
 BYTE   VOL   28*songC5_mvl/mxv
 BYTE   PAN   c_v+0
 BYTE   BEND   c_v+0
 BYTE   W96
// 001   ----------------------------------------
Label_2_014704F7:
 BYTE   N18  As3  v064
 BYTE   W18
 BYTE   An3
 BYTE   W18
 BYTE   N12  As3
 BYTE   W12
 BYTE   N18  Cn4  v080
 BYTE   W18
 BYTE   As3
 BYTE   W18
 BYTE   N12  Cn4
 BYTE   W12
 BYTE   PEND 
// 002   ----------------------------------------
Label_2_0147050A:
 BYTE   N48  Dn4  v096
 BYTE   W48
 BYTE   En4
 BYTE   W48
 BYTE   PEND 
// 003   ----------------------------------------
 BYTE   PATT
  POIN2 Label_2_014704F7
// 004   ----------------------------------------
 BYTE   PATT
  POIN2 Label_2_0147050A
// 005   ----------------------------------------
 BYTE   W96
// 006   ----------------------------------------
 BYTE   W96
// 007   ----------------------------------------
 BYTE   W96
// 008   ----------------------------------------
 BYTE   W96
// 009   ----------------------------------------
 BYTE   W96
// 010   ----------------------------------------
 BYTE   W96
// 011   ----------------------------------------
 BYTE   W96
// 012   ----------------------------------------
 BYTE   W96
// 013   ----------------------------------------
 BYTE   W96
// 014   ----------------------------------------
 BYTE   W96
// 015   ----------------------------------------
 BYTE   W96
// 016   ----------------------------------------
 BYTE   W96
// 017   ----------------------------------------
 BYTE   W96
// 018   ----------------------------------------
 BYTE   W96
// 019   ----------------------------------------
 BYTE   W96
// 020   ----------------------------------------
 BYTE   W96
// 021   ----------------------------------------
 BYTE   N96  An2  v096
 BYTE   W96
// 022   ----------------------------------------
 BYTE   Gn2
 BYTE   W96
// 023   ----------------------------------------
Label_2_01470531:
 BYTE   N72  Fn2  v096
 BYTE   W72
 BYTE   N12
 BYTE   W12
 BYTE   N12
 BYTE   W12
 BYTE   PEND 
// 024   ----------------------------------------
 BYTE   N96  Gn2
 BYTE   W96
// 025   ----------------------------------------
 BYTE   An2
 BYTE   W96
// 026   ----------------------------------------
 BYTE   Gn2
 BYTE   W96
// 027   ----------------------------------------
 BYTE   PATT
  POIN2 Label_2_01470531
// 028   ----------------------------------------
 BYTE   N96  Gn2  v096
 BYTE   W96
// 029   ----------------------------------------
 BYTE   W96
// 030   ----------------------------------------
 BYTE   W96
// 031   ----------------------------------------
 BYTE   W96
// 032   ----------------------------------------
 BYTE   W96
// 033   ----------------------------------------
 BYTE   W96
// 034   ----------------------------------------
 BYTE   W96
// 035   ----------------------------------------
 BYTE   W96
// 036   ----------------------------------------
 BYTE   W96
// 037   ----------------------------------------
 BYTE   W96
// 038   ----------------------------------------
 BYTE   W96
// 039   ----------------------------------------
 BYTE   W96
// 040   ----------------------------------------
 BYTE   W96
// 041   ----------------------------------------
 BYTE   VOICE   63
 BYTE   N06  Gs2  v048
 BYTE   N06  Cn3
 BYTE   W18
 BYTE   Gs2
 BYTE   N06  Cn3
 BYTE   W12
 BYTE   Gs2
 BYTE   N06  Cn3
 BYTE   W12
 BYTE   Gs2
 BYTE   N06  Cn3
 BYTE   W06
 BYTE   Gs2
 BYTE   N06  Cn3
 BYTE   W18
 BYTE   Gs2
 BYTE   N06  Cn3
 BYTE   W12
 BYTE   Gs2
 BYTE   N06  Cn3
 BYTE   W12
 BYTE   Gs2
 BYTE   N06  Cn3
 BYTE   W06
// 042   ----------------------------------------
Label_2_0147057A:
 BYTE   N06  Gs2  v048
 BYTE   N06  Cn3
 BYTE   W18
 BYTE   Gs2
 BYTE   N06  Cn3
 BYTE   W12
 BYTE   Gs2
 BYTE   N06  Cn3
 BYTE   W12
 BYTE   Gs2
 BYTE   N06  Cn3
 BYTE   W06
 BYTE   Gs2
 BYTE   N06  Cn3
 BYTE   W18
 BYTE   Gs2
 BYTE   N06  Cn3
 BYTE   W12
 BYTE   Gs2
 BYTE   N06  Cn3
 BYTE   W12
 BYTE   Gs2
 BYTE   N06  Cn3
 BYTE   W06
 BYTE   PEND 
// 043   ----------------------------------------
 BYTE   PATT
  POIN2 Label_2_0147057A
// 044   ----------------------------------------
 BYTE   PATT
  POIN2 Label_2_0147057A
// 045   ----------------------------------------
 BYTE   PATT
  POIN2 Label_2_0147057A
// 046   ----------------------------------------
 BYTE   PATT
  POIN2 Label_2_0147057A
// 047   ----------------------------------------
 BYTE   PATT
  POIN2 Label_2_0147057A
// 048   ----------------------------------------
 BYTE   PATT
  POIN2 Label_2_0147057A
// 049   ----------------------------------------
 BYTE   VOICE   62
 BYTE   W96
// 050   ----------------------------------------
 BYTE   W96
// 051   ----------------------------------------
 BYTE   W96
// 052   ----------------------------------------
 BYTE   W96
// 053   ----------------------------------------
 BYTE   W96
// 054   ----------------------------------------
 BYTE   W96
// 055   ----------------------------------------
 BYTE   W96
// 056   ----------------------------------------
 BYTE   W96
// 057   ----------------------------------------
 BYTE   W96
// 058   ----------------------------------------
 BYTE   W96
// 059   ----------------------------------------
 BYTE   W96
// 060   ----------------------------------------
 BYTE   W96
// 061   ----------------------------------------
 BYTE   W96
// 062   ----------------------------------------
 BYTE   W96
// 063   ----------------------------------------
 BYTE   W96
// 064   ----------------------------------------
 BYTE   W96
// 065   ----------------------------------------
 BYTE   GoTo
  POIN2 Label_2_014704F7
 BYTE   FINE

//**************** Track 4 (Midi-Chn.3) ****************//

songC5_004:
// 000   ----------------------------------------
 BYTE   KEYSH   songC5_key+0
 BYTE   VOICE   60
 BYTE   VOL   24*songC5_mvl/mxv
 BYTE   PAN   c_v+24
 BYTE   BEND   c_v+0
 BYTE   W96
// 001   ----------------------------------------
Label_3_014AF0EB:
 BYTE   N48  Dn2  v096
 BYTE   N48  Gn2
 BYTE   W48
 BYTE   Dn2
 BYTE   N48  Fs2
 BYTE   W48
 BYTE   PEND 
// 002   ----------------------------------------
Label_3_014AF0F6:
 BYTE   N48  Dn2  v096
 BYTE   N48  Fs2
 BYTE   W48
 BYTE   Cs2
 BYTE   N48  En2
 BYTE   W48
 BYTE   PEND 
// 003   ----------------------------------------
 BYTE   PATT
  POIN2 Label_3_014AF0EB
// 004   ----------------------------------------
 BYTE   PATT
  POIN2 Label_3_014AF0F6
// 005   ----------------------------------------
 BYTE   W96
// 006   ----------------------------------------
 BYTE   W96
// 007   ----------------------------------------
 BYTE   W96
// 008   ----------------------------------------
 BYTE   W96
// 009   ----------------------------------------
Label_3_014AF10F:
 BYTE   N18  Dn3  v112
 BYTE   W18
 BYTE   N12  Fn3
 BYTE   W12
 BYTE   N18  En3
 BYTE   W18
 BYTE   Cn3
 BYTE   W18
 BYTE   N30  Dn3
 BYTE   W30
 BYTE   PEND 
// 010   ----------------------------------------
Label_3_014AF11F:
 BYTE   N48  An3  v112
 BYTE   W48
 BYTE   N24  Gn3
 BYTE   W24
 BYTE   Fn3
 BYTE   W24
 BYTE   PEND 
// 011   ----------------------------------------
 BYTE   PATT
  POIN2 Label_3_014AF10F
// 012   ----------------------------------------
Label_3_014AF12E:
 BYTE   N48  An3  v112
 BYTE   W48
 BYTE   N24  As3
 BYTE   W24
 BYTE   Dn3
 BYTE   W24
 BYTE   PEND 
// 013   ----------------------------------------
 BYTE   VOL   30*songC5_mvl/mxv
 BYTE   N96  En3
 BYTE   W96
// 014   ----------------------------------------
 BYTE   Fn3
 BYTE   W96
// 015   ----------------------------------------
 BYTE   Gs3
 BYTE   W96
// 016   ----------------------------------------
Label_3_014AF141:
 BYTE   N96  Bn3  v112
 BYTE   W48
 BYTE   N48  Fn3  v096
 BYTE   W48
 BYTE   PEND 
// 017   ----------------------------------------
 BYTE   VOL   24*songC5_mvl/mxv
 BYTE   N18  Dn3  v112
 BYTE   W18
 BYTE   N12  Fn3
 BYTE   W12
 BYTE   N18  En3
 BYTE   W18
 BYTE   Cn3
 BYTE   W18
 BYTE   N30  Dn3
 BYTE   W30
// 018   ----------------------------------------
 BYTE   PATT
  POIN2 Label_3_014AF11F
// 019   ----------------------------------------
 BYTE   PATT
  POIN2 Label_3_014AF10F
// 020   ----------------------------------------
 BYTE   PATT
  POIN2 Label_3_014AF12E
// 021   ----------------------------------------
 BYTE   VOL   30*songC5_mvl/mxv
 BYTE   N72  Cn3  v112
 BYTE   W72
 BYTE   N24  Dn3
 BYTE   W24
// 022   ----------------------------------------
Label_3_014AF173:
 BYTE   N72  Bn2  v112
 BYTE   W72
 BYTE   N12  Cn3
 BYTE   W12
 BYTE   Dn3
 BYTE   W12
 BYTE   PEND 
// 023   ----------------------------------------
Label_3_014AF17D:
 BYTE   N72  Cn3  v112
 BYTE   W72
 BYTE   N12  Bn2
 BYTE   W12
 BYTE   Cn3
 BYTE   W12
 BYTE   PEND 
// 024   ----------------------------------------
 BYTE   N48  Dn3
 BYTE   W48
 BYTE   Bn2
 BYTE   W48
// 025   ----------------------------------------
 BYTE   N72  Cn3
 BYTE   W72
 BYTE   N24  Dn3
 BYTE   W24
// 026   ----------------------------------------
 BYTE   PATT
  POIN2 Label_3_014AF173
// 027   ----------------------------------------
 BYTE   PATT
  POIN2 Label_3_014AF17D
// 028   ----------------------------------------
 BYTE   N48  Dn3  v112
 BYTE   W48
 BYTE   Gn3
 BYTE   W48
// 029   ----------------------------------------
 BYTE   VOL   24*songC5_mvl/mxv
 BYTE   N48  Dn3  v080
 BYTE   W48
 BYTE   N24
 BYTE   W24
 BYTE   N24
 BYTE   W24
// 030   ----------------------------------------
 BYTE   N48  Ds3
 BYTE   W48
 BYTE   N48
 BYTE   W48
// 031   ----------------------------------------
 BYTE   Gs3
 BYTE   W48
 BYTE   As3
 BYTE   W48
// 032   ----------------------------------------
 BYTE   N96  Gs3
 BYTE   W96
// 033   ----------------------------------------
 BYTE   W96
// 034   ----------------------------------------
 BYTE   W96
// 035   ----------------------------------------
 BYTE   W96
// 036   ----------------------------------------
 BYTE   W96
// 037   ----------------------------------------
 BYTE   W96
// 038   ----------------------------------------
 BYTE   W96
// 039   ----------------------------------------
 BYTE   W96
// 040   ----------------------------------------
 BYTE   W96
// 041   ----------------------------------------
 BYTE   W96
// 042   ----------------------------------------
 BYTE   W96
// 043   ----------------------------------------
 BYTE   W96
// 044   ----------------------------------------
 BYTE   W96
// 045   ----------------------------------------
 BYTE   W96
// 046   ----------------------------------------
 BYTE   W96
// 047   ----------------------------------------
 BYTE   W96
// 048   ----------------------------------------
 BYTE   W96
// 049   ----------------------------------------
 BYTE   W96
// 050   ----------------------------------------
 BYTE   W96
// 051   ----------------------------------------
 BYTE   W96
// 052   ----------------------------------------
 BYTE   W96
// 053   ----------------------------------------
 BYTE   W96
// 054   ----------------------------------------
 BYTE   W96
// 055   ----------------------------------------
 BYTE   W96
// 056   ----------------------------------------
 BYTE   W96
// 057   ----------------------------------------
 BYTE   VOL   30*songC5_mvl/mxv
 BYTE   N96  En3  v112
 BYTE   W96
// 058   ----------------------------------------
 BYTE   Fn3
 BYTE   W96
// 059   ----------------------------------------
 BYTE   Gs3
 BYTE   W96
// 060   ----------------------------------------
 BYTE   PATT
  POIN2 Label_3_014AF141
// 061   ----------------------------------------
 BYTE   N96  En3  v112
 BYTE   W96
// 062   ----------------------------------------
 BYTE   Fn3
 BYTE   W96
// 063   ----------------------------------------
 BYTE   Gs3
 BYTE   W96
// 064   ----------------------------------------
 BYTE   N92  Bn3
 BYTE   W48
 BYTE   N44  Fn3  v096
 BYTE   W44
 BYTE   W01
 BYTE   VOL   24*songC5_mvl/mxv
 BYTE   W03
// 065   ----------------------------------------
 BYTE   GoTo
  POIN2 Label_3_014AF0EB
 BYTE   FINE

//**************** Track 5 (Midi-Chn.4) ****************//

songC5_005:
// 000   ----------------------------------------
 BYTE   KEYSH   songC5_key+0
 BYTE   VOICE   57
 BYTE   VOL   23*songC5_mvl/mxv
 BYTE   PAN   c_v-16
 BYTE   BEND   c_v+0
 BYTE   W96
// 001   ----------------------------------------
Label_4_014AEC47:
 BYTE   N48  Gn1  v096
 BYTE   N48  Dn2
 BYTE   W48
 BYTE   Fs1
 BYTE   N48  Dn2
 BYTE   W48
 BYTE   PEND 
// 002   ----------------------------------------
Label_4_014AEC52:
 BYTE   N48  Fs1  v096
 BYTE   N48  Dn2
 BYTE   W48
 BYTE   En1
 BYTE   N48  Cs2
 BYTE   W48
 BYTE   PEND 
// 003   ----------------------------------------
 BYTE   PATT
  POIN2 Label_4_014AEC47
// 004   ----------------------------------------
 BYTE   PATT
  POIN2 Label_4_014AEC52
// 005   ----------------------------------------
 BYTE   W96
// 006   ----------------------------------------
 BYTE   W96
// 007   ----------------------------------------
 BYTE   W96
// 008   ----------------------------------------
 BYTE   W96
// 009   ----------------------------------------
 BYTE   W96
// 010   ----------------------------------------
 BYTE   W96
// 011   ----------------------------------------
 BYTE   W96
// 012   ----------------------------------------
 BYTE   W96
// 013   ----------------------------------------
Label_4_014AEC6F:
 BYTE   N06  Bn1  v096
 BYTE   N06  En2
 BYTE   W18
 BYTE   An1
 BYTE   N06  Dn2
 BYTE   W18
 BYTE   Cn2
 BYTE   N06  Fn2
 BYTE   W18
 BYTE   Bn1
 BYTE   N06  En2
 BYTE   W18
 BYTE   N03  An1
 BYTE   N03  Dn2
 BYTE   W12
 BYTE   N06  Bn1
 BYTE   N06  En2
 BYTE   W12
 BYTE   PEND 
// 014   ----------------------------------------
 BYTE   PATT
  POIN2 Label_4_014AEC6F
// 015   ----------------------------------------
 BYTE   PATT
  POIN2 Label_4_014AEC6F
// 016   ----------------------------------------
Label_4_014AEC96:
 BYTE   N06  Bn1  v096
 BYTE   N06  En2
 BYTE   W18
 BYTE   An1
 BYTE   N06  Dn2
 BYTE   W18
 BYTE   Cn2
 BYTE   N06  Fn2
 BYTE   W12
 BYTE   N48  Fn3  v112
 BYTE   W06
 BYTE   N06  Bn1  v096
 BYTE   N06  En2
 BYTE   W18
 BYTE   N03  An1
 BYTE   N03  Dn2
 BYTE   W12
 BYTE   N06  Bn1
 BYTE   N06  En2
 BYTE   W12
 BYTE   PEND 
// 017   ----------------------------------------
 BYTE   W96
// 018   ----------------------------------------
 BYTE   W96
// 019   ----------------------------------------
 BYTE   W96
// 020   ----------------------------------------
 BYTE   W96
// 021   ----------------------------------------
Label_4_014AECBD:
 BYTE   N72  Cn3  v096
 BYTE   W72
 BYTE   N24  Dn3
 BYTE   W24
 BYTE   PEND 
// 022   ----------------------------------------
Label_4_014AECC5:
 BYTE   N72  Bn2  v112
 BYTE   W72
 BYTE   N12  Cn3
 BYTE   W12
 BYTE   Dn3
 BYTE   W12
 BYTE   PEND 
// 023   ----------------------------------------
Label_4_014AECCF:
 BYTE   N72  Cn3  v112
 BYTE   W72
 BYTE   N12  Bn2
 BYTE   W12
 BYTE   Cn3
 BYTE   W12
 BYTE   PEND 
// 024   ----------------------------------------
 BYTE   N48  Dn3  v096
 BYTE   W96
// 025   ----------------------------------------
 BYTE   PATT
  POIN2 Label_4_014AECBD
// 026   ----------------------------------------
 BYTE   PATT
  POIN2 Label_4_014AECC5
// 027   ----------------------------------------
 BYTE   PATT
  POIN2 Label_4_014AECCF
// 028   ----------------------------------------
 BYTE   N48  Dn3  v096
 BYTE   W96
// 029   ----------------------------------------
 BYTE   W96
// 030   ----------------------------------------
 BYTE   W96
// 031   ----------------------------------------
 BYTE   W96
// 032   ----------------------------------------
 BYTE   W96
// 033   ----------------------------------------
 BYTE   W96
// 034   ----------------------------------------
 BYTE   W96
// 035   ----------------------------------------
 BYTE   W96
// 036   ----------------------------------------
 BYTE   W96
// 037   ----------------------------------------
 BYTE   W96
// 038   ----------------------------------------
 BYTE   W96
// 039   ----------------------------------------
 BYTE   W96
// 040   ----------------------------------------
 BYTE   W96
// 041   ----------------------------------------
 BYTE   W96
// 042   ----------------------------------------
 BYTE   W96
// 043   ----------------------------------------
 BYTE   W96
// 044   ----------------------------------------
 BYTE   W96
// 045   ----------------------------------------
 BYTE   W96
// 046   ----------------------------------------
 BYTE   W96
// 047   ----------------------------------------
 BYTE   W96
// 048   ----------------------------------------
 BYTE   W96
// 049   ----------------------------------------
 BYTE   W96
// 050   ----------------------------------------
 BYTE   W96
// 051   ----------------------------------------
 BYTE   W96
// 052   ----------------------------------------
 BYTE   W96
// 053   ----------------------------------------
 BYTE   W96
// 054   ----------------------------------------
 BYTE   W96
// 055   ----------------------------------------
 BYTE   W96
// 056   ----------------------------------------
 BYTE   W96
// 057   ----------------------------------------
 BYTE   PATT
  POIN2 Label_4_014AEC6F
// 058   ----------------------------------------
 BYTE   PATT
  POIN2 Label_4_014AEC6F
// 059   ----------------------------------------
 BYTE   PATT
  POIN2 Label_4_014AEC6F
// 060   ----------------------------------------
 BYTE   PATT
  POIN2 Label_4_014AEC96
// 061   ----------------------------------------
 BYTE   W96
// 062   ----------------------------------------
 BYTE   W96
// 063   ----------------------------------------
 BYTE   W96
// 064   ----------------------------------------
 BYTE   W96
// 065   ----------------------------------------
 BYTE   GoTo
  POIN2 Label_4_014AEC47
 BYTE   FINE

//**************** Track 6 (Midi-Chn.5) ****************//

songC5_006:
// 000   ----------------------------------------
 BYTE   KEYSH   songC5_key+0
 BYTE   VOICE   52
 BYTE   VOL   30*songC5_mvl/mxv
 BYTE   PAN   c_v-8
 BYTE   BEND   c_v+0
 BYTE   W96
// 001   ----------------------------------------
Label_5_014AF81F:
 BYTE   N24  Gn3  v080
 BYTE   N24  As3
 BYTE   W48
 BYTE   Fs3
 BYTE   N24  An3
 BYTE   W48
// 002   ----------------------------------------
Label_5_014AF829:
 BYTE   N24  Fs3  v080
 BYTE   N24  An3
 BYTE   W48
 BYTE   En3  v096
 BYTE   N24  Gs3
 BYTE   W48
 BYTE   PEND 
// 003   ----------------------------------------
 BYTE   Gn3  v080
 BYTE   N24  As3
 BYTE   W48
 BYTE   N19  Fs3
 BYTE   N19  An3
 BYTE   W24
 BYTE   As3
 BYTE   N19  Dn4
 BYTE   W24
// 004   ----------------------------------------
 BYTE   PATT
  POIN2 Label_5_014AF829
// 005   ----------------------------------------
Label_5_014AF848:
 BYTE   N24  Dn3  v112
 BYTE   N24  An3  v048
 BYTE   W96
 BYTE   PEND 
// 006   ----------------------------------------
 BYTE   PATT
  POIN2 Label_5_014AF848
// 007   ----------------------------------------
 BYTE   PATT
  POIN2 Label_5_014AF848
// 008   ----------------------------------------
 BYTE   PATT
  POIN2 Label_5_014AF848
// 009   ----------------------------------------
 BYTE   PATT
  POIN2 Label_5_014AF848
// 010   ----------------------------------------
 BYTE   PATT
  POIN2 Label_5_014AF848
// 011   ----------------------------------------
 BYTE   PATT
  POIN2 Label_5_014AF848
// 012   ----------------------------------------
 BYTE   PATT
  POIN2 Label_5_014AF848
// 013   ----------------------------------------
Label_5_014AF873:
 BYTE   N96  Bn2  v096
 BYTE   N12  En3
 BYTE   W96
 BYTE   PEND 
// 014   ----------------------------------------
Label_5_014AF87A:
 BYTE   N96  An2  v096
 BYTE   W12
 BYTE   N84  Cn3
 BYTE   W84
 BYTE   PEND 
// 015   ----------------------------------------
 BYTE   N96  Fn3
 BYTE   N96  Gs3
 BYTE   W96
// 016   ----------------------------------------
 BYTE   Dn3
 BYTE   N96  Fn3
 BYTE   W96
// 017   ----------------------------------------
 BYTE   PATT
  POIN2 Label_5_014AF848
// 018   ----------------------------------------
 BYTE   PATT
  POIN2 Label_5_014AF848
// 019   ----------------------------------------
 BYTE   PATT
  POIN2 Label_5_014AF848
// 020   ----------------------------------------
 BYTE   PATT
  POIN2 Label_5_014AF848
// 021   ----------------------------------------
 BYTE   VOL   26*songC5_mvl/mxv
 BYTE   N48  Cn3  v064
 BYTE   N48  En3
 BYTE   W48
 BYTE   N24  Cn3
 BYTE   N24  En3
 BYTE   W24
 BYTE   Cn3
 BYTE   N24  En3
 BYTE   W24
// 022   ----------------------------------------
Label_5_014AF8B0:
 BYTE   N60  Bn2  v064
 BYTE   N60  Dn3
 BYTE   W60
 BYTE   N12  Bn2
 BYTE   N12  Dn3
 BYTE   W12
 BYTE   Cn3
 BYTE   N12  En3
 BYTE   W12
 BYTE   Gn2
 BYTE   N12  Bn2
 BYTE   W12
 BYTE   PEND 
// 023   ----------------------------------------
Label_5_014AF8C4:
 BYTE   N72  En2  v064
 BYTE   N72  An2
 BYTE   W72
 BYTE   N12  En2
 BYTE   N12  Gn2
 BYTE   W12
 BYTE   En2
 BYTE   N12  An2
 BYTE   W12
 BYTE   PEND 
// 024   ----------------------------------------
Label_5_014AF8D4:
 BYTE   N48  Gn2  v064
 BYTE   N48  Bn2
 BYTE   W48
 BYTE   Gn2
 BYTE   N48  Bn2
 BYTE   W48
 BYTE   PEND 
// 025   ----------------------------------------
 BYTE   Cn3
 BYTE   N48  En3
 BYTE   W48
 BYTE   N24  Cn3
 BYTE   N24  En3
 BYTE   W24
 BYTE   Cn3
 BYTE   N24  En3
 BYTE   W24
// 026   ----------------------------------------
 BYTE   PATT
  POIN2 Label_5_014AF8B0
// 027   ----------------------------------------
 BYTE   PATT
  POIN2 Label_5_014AF8C4
// 028   ----------------------------------------
 BYTE   PATT
  POIN2 Label_5_014AF8D4
// 029   ----------------------------------------
 BYTE   N48  Dn3  v064
 BYTE   N48  Fn3
 BYTE   W48
 BYTE   N24  Dn3
 BYTE   N24  Fn3
 BYTE   W24
 BYTE   Dn3
 BYTE   N24  Fn3
 BYTE   W24
// 030   ----------------------------------------
 BYTE   N48  Cn3
 BYTE   N48  Ds3
 BYTE   W48
 BYTE   Cn3
 BYTE   N48  Ds3
 BYTE   W48
// 031   ----------------------------------------
 BYTE   Gs2
 BYTE   N48  Cn3
 BYTE   W48
 BYTE   As2
 BYTE   N48  Cn3
 BYTE   W48
// 032   ----------------------------------------
 BYTE   Gs2
 BYTE   N48  Cn3
 BYTE   W48
 BYTE   Fn2
 BYTE   N48  Gs2
 BYTE   W48
// 033   ----------------------------------------
Label_5_014AF923:
 BYTE   N24  An2  v080
 BYTE   N24  En3
 BYTE   W48
 BYTE   En1
 BYTE   N24  An1
 BYTE   W48
 BYTE   PEND 
// 034   ----------------------------------------
 BYTE   PATT
  POIN2 Label_5_014AF923
// 035   ----------------------------------------
 BYTE   PATT
  POIN2 Label_5_014AF923
// 036   ----------------------------------------
 BYTE   PATT
  POIN2 Label_5_014AF923
// 037   ----------------------------------------
Label_5_014AF93D:
 BYTE   N24  An2  v080
 BYTE   N24  En3
 BYTE   W48
 BYTE   An2
 BYTE   N24  En3
 BYTE   W48
 BYTE   PEND 
// 038   ----------------------------------------
 BYTE   PATT
  POIN2 Label_5_014AF93D
// 039   ----------------------------------------
 BYTE   PATT
  POIN2 Label_5_014AF93D
// 040   ----------------------------------------
 BYTE   PATT
  POIN2 Label_5_014AF93D
// 041   ----------------------------------------
 BYTE   W96
// 042   ----------------------------------------
 BYTE   W96
// 043   ----------------------------------------
 BYTE   W96
// 044   ----------------------------------------
 BYTE   W96
// 045   ----------------------------------------
 BYTE   N24  Fn1  v096
 BYTE   N24  Fn2
 BYTE   N96  Gs3
 BYTE   W48
 BYTE   N24  Fn1  v064
 BYTE   N24  Fn2
 BYTE   W48
// 046   ----------------------------------------
 BYTE   Gs1  v096
 BYTE   N24  Cn2
 BYTE   N18  Cn3
 BYTE   N18  Gn3
 BYTE   W18
 BYTE   Gs3
 BYTE   W18
 BYTE   N60  Cn3
 BYTE   W12
 BYTE   N24  Fn1  v080
 BYTE   N24  Fn2
 BYTE   W48
// 047   ----------------------------------------
 BYTE   Cn2  v064
 BYTE   N24  Fn2  v096
 BYTE   N48  Fn3
 BYTE   W48
 BYTE   N24  Fn1  v064
 BYTE   N24  Fn2
 BYTE   N48  En3  v096
 BYTE   W48
// 048   ----------------------------------------
 BYTE   N24  Cn2  v064
 BYTE   N24  Fn2  v096
 BYTE   N48  Gn3
 BYTE   W48
 BYTE   N24  Fn1  v064
 BYTE   N24  Fn2
 BYTE   N48  Gs3  v096
 BYTE   W48
// 049   ----------------------------------------
Label_5_014AF9A0:
 BYTE   N42  An1  v080
 BYTE   N42  En3  v096
 BYTE   N42  An3
 BYTE   N42  Cn4  v064
 BYTE   W48
 BYTE   Bn1  v080
 BYTE   N42  En3  v096
 BYTE   N42  Gs3  v064
 BYTE   N42  Bn3  v096
 BYTE   N42  En4  v064
 BYTE   W48
 BYTE   PEND 
// 050   ----------------------------------------
 BYTE   PATT
  POIN2 Label_5_014AF9A0
// 051   ----------------------------------------
Label_5_014AF9C1:
 BYTE   N42  An1  v080
 BYTE   N42  En3  v096
 BYTE   N42  An3
 BYTE   N42  Cn4  v064
 BYTE   W48
 BYTE   Dn1  v080
 BYTE   N42  Dn3
 BYTE   N42  An3  v096
 BYTE   N42  Dn4
 BYTE   W48
 BYTE   PEND 
// 052   ----------------------------------------
Label_5_014AF9D8:
 BYTE   N42  An1  v080
 BYTE   N42  En3  v064
 BYTE   N42  An3  v096
 BYTE   N42  Dn4  v064
 BYTE   N42  En4
 BYTE   W48
 BYTE   An1  v080
 BYTE   N42  En3  v064
 BYTE   N42  An3  v096
 BYTE   N42  Cs4  v064
 BYTE   N42  En4
 BYTE   W48
 BYTE   PEND 
// 053   ----------------------------------------
 BYTE   PATT
  POIN2 Label_5_014AF9A0
// 054   ----------------------------------------
 BYTE   PATT
  POIN2 Label_5_014AF9A0
// 055   ----------------------------------------
 BYTE   PATT
  POIN2 Label_5_014AF9C1
// 056   ----------------------------------------
 BYTE   PATT
  POIN2 Label_5_014AF9D8
// 057   ----------------------------------------
 BYTE   PATT
  POIN2 Label_5_014AF873
// 058   ----------------------------------------
 BYTE   PATT
  POIN2 Label_5_014AF87A
// 059   ----------------------------------------
Label_5_014AFA14:
 BYTE   N96  Dn3  v096
 BYTE   N96  Fn3
 BYTE   N96  Gs3
 BYTE   W96
 BYTE   PEND 
// 060   ----------------------------------------
Label_5_014AFA1D:
 BYTE   N96  Bn2  v096
 BYTE   N96  Dn3
 BYTE   N96  Fn3
 BYTE   W96
 BYTE   PEND 
// 061   ----------------------------------------
 BYTE   PATT
  POIN2 Label_5_014AF873
// 062   ----------------------------------------
 BYTE   PATT
  POIN2 Label_5_014AF87A
// 063   ----------------------------------------
 BYTE   PATT
  POIN2 Label_5_014AFA14
// 064   ----------------------------------------
 BYTE   PATT
  POIN2 Label_5_014AFA1D
// 065   ----------------------------------------
 BYTE   GoTo
  POIN2 Label_5_014AF81F
 BYTE   FINE

//**************** Track 7 (Midi-Chn.6) ****************//

songC5_007:
// 000   ----------------------------------------
 BYTE   KEYSH   songC5_key+0
 BYTE   VOICE   127
 BYTE   VOL   30*songC5_mvl/mxv
 BYTE   PAN   c_v+0
 BYTE   BEND   c_v+0
 BYTE   W96
// 001   ----------------------------------------
Label_6_014B230F:
 BYTE   N30  Cs2  v112
 BYTE   W12
 BYTE   N06  Cn2
 BYTE   W06
 BYTE   N06
 BYTE   W06
 BYTE   Bn1
 BYTE   W06
 BYTE   N06
 BYTE   W06
 BYTE   An1
 BYTE   W06
 BYTE   N06
 BYTE   W06
 BYTE   Gn1
 BYTE   N06  Cs2
 BYTE   W06
 BYTE   Cn2
 BYTE   W06
 BYTE   Bn1
 BYTE   W06
 BYTE   N06
 BYTE   W06
 BYTE   An1
 BYTE   W06
 BYTE   N06
 BYTE   W06
 BYTE   Gn1
 BYTE   W06
 BYTE   N06
 BYTE   W06
 BYTE   PEND 
// 002   ----------------------------------------
 BYTE   PATT
  POIN2 Label_6_014B230F
// 003   ----------------------------------------
 BYTE   PATT
  POIN2 Label_6_014B230F
// 004   ----------------------------------------
 BYTE   PATT
  POIN2 Label_6_014B230F
// 005   ----------------------------------------
 BYTE   N06  As1  v080
 BYTE   N24  Cs2  v096
 BYTE   W12
 BYTE   N06  Dn1  v064
 BYTE   N06  As1  v080
 BYTE   N06  En2  v064
 BYTE   W06
 BYTE   N01  En2  v016
 BYTE   W06
 BYTE   N06  Gs1  v096
 BYTE   N06  As1  v080
 BYTE   W06
 BYTE   Gs1  v096
 BYTE   W06
 BYTE   Dn1  v064
 BYTE   N06  As1  v080
 BYTE   N06  En2  v064
 BYTE   W06
 BYTE   Gs1  v096
 BYTE   N01  En2  v016
 BYTE   W06
 BYTE   N06  Gs1  v096
 BYTE   N06  As1  v080
 BYTE   W12
 BYTE   Dn1  v064
 BYTE   N06  As1  v080
 BYTE   N06  En2  v064
 BYTE   W06
 BYTE   N01  En2  v016
 BYTE   W06
 BYTE   N06  Gs1  v096
 BYTE   N06  As1  v080
 BYTE   W12
 BYTE   Dn1  v064
 BYTE   N06  As1  v080
 BYTE   N06  En2  v064
 BYTE   W06
 BYTE   Gs1  v096
 BYTE   N06  An1
 BYTE   N01  En2  v016
 BYTE   W06
// 006   ----------------------------------------
Label_6_014B239C:
 BYTE   N06  Gs1  v096
 BYTE   N06  As1  v080
 BYTE   W12
 BYTE   Dn1  v064
 BYTE   N06  As1  v080
 BYTE   N06  En2  v064
 BYTE   W06
 BYTE   N01  En2  v016
 BYTE   W06
 BYTE   N06  Gs1  v096
 BYTE   N06  As1  v080
 BYTE   W12
 BYTE   Dn1  v064
 BYTE   N06  As1  v080
 BYTE   N06  En2  v064
 BYTE   W06
 BYTE   Gs1  v080
 BYTE   N01  En2  v016
 BYTE   W06
 BYTE   N06  As1  v080
 BYTE   W06
 BYTE   Gs1  v096
 BYTE   W06
 BYTE   Dn1  v064
 BYTE   N06  As1  v080
 BYTE   N06  En2  v064
 BYTE   W06
 BYTE   N01  En2  v016
 BYTE   W06
 BYTE   N06  Gs1  v096
 BYTE   N06  As1  v080
 BYTE   W06
 BYTE   Gs1  v096
 BYTE   W06
 BYTE   Dn1  v064
 BYTE   N06  Cs2  v096
 BYTE   N06  En2  v064
 BYTE   W06
 BYTE   N01  En2  v016
 BYTE   W06
 BYTE   PEND 
// 007   ----------------------------------------
 BYTE   N06  Gs1  v096
 BYTE   N06  As1
 BYTE   N24  Cs2
 BYTE   W12
 BYTE   N06  Dn1  v064
 BYTE   N06  As1  v080
 BYTE   N06  En2  v064
 BYTE   W06
 BYTE   N01  En2  v016
 BYTE   W06
 BYTE   N06  Gs1  v096
 BYTE   N06  As1  v080
 BYTE   W06
 BYTE   Gs1  v096
 BYTE   W06
 BYTE   Dn1  v064
 BYTE   N06  As1  v080
 BYTE   N06  En2  v064
 BYTE   W06
 BYTE   N01  En2  v016
 BYTE   W06
 BYTE   N06  Gs1  v096
 BYTE   N06  As1  v080
 BYTE   W12
 BYTE   Dn1  v064
 BYTE   N06  As1  v080
 BYTE   N06  En2  v064
 BYTE   W06
 BYTE   Gs1  v096
 BYTE   N01  En2  v016
 BYTE   W06
 BYTE   N06  As1  v080
 BYTE   W06
 BYTE   Gs1  v096
 BYTE   W06
 BYTE   Dn1  v064
 BYTE   N06  As1  v080
 BYTE   N06  En2  v064
 BYTE   W06
 BYTE   N01  En2  v016
 BYTE   W06
// 008   ----------------------------------------
Label_6_014B2449:
 BYTE   N06  As1  v080
 BYTE   N24  Cs2  v096
 BYTE   W12
 BYTE   N06  Dn1  v064
 BYTE   N06  As1  v080
 BYTE   N06  En2  v064
 BYTE   W06
 BYTE   N01  En2  v016
 BYTE   W06
 BYTE   N06  Gs1  v096
 BYTE   N06  As1  v080
 BYTE   W06
 BYTE   Gs1  v096
 BYTE   W06
 BYTE   Dn1  v064
 BYTE   N06  As1  v080
 BYTE   N06  En2  v064
 BYTE   W06
 BYTE   N01  En2  v016
 BYTE   W06
 BYTE   N06  As1  v080
 BYTE   W12
 BYTE   Dn1  v064
 BYTE   N06  As1  v080
 BYTE   N06  En2  v064
 BYTE   W06
 BYTE   N01  En2  v016
 BYTE   W06
 BYTE   N06  Gs1  v096
 BYTE   N06  As1  v080
 BYTE   W06
 BYTE   Gs1  v096
 BYTE   W06
 BYTE   Dn1  v064
 BYTE   N06  As1  v080
 BYTE   N06  En2  v064
 BYTE   W06
 BYTE   N01  En2  v016
 BYTE   W06
 BYTE   PEND 
// 009   ----------------------------------------
Label_6_014B249E:
 BYTE   N06  As1  v096
 BYTE   N24  Cs2
 BYTE   W12
 BYTE   N06  Dn1  v064
 BYTE   N06  As1  v080
 BYTE   N06  En2  v064
 BYTE   W06
 BYTE   N01  En2  v016
 BYTE   W06
 BYTE   N06  Gs1  v096
 BYTE   N06  As1  v080
 BYTE   W06
 BYTE   Gs1  v096
 BYTE   W06
 BYTE   Dn1  v064
 BYTE   N06  As1  v080
 BYTE   N06  En2  v064
 BYTE   W06
 BYTE   Gs1  v096
 BYTE   N01  En2  v016
 BYTE   W06
 BYTE   N06  Gs1  v096
 BYTE   N06  As1  v080
 BYTE   W12
 BYTE   Dn1  v064
 BYTE   N06  As1  v080
 BYTE   N06  En2  v064
 BYTE   W06
 BYTE   N01  En2  v016
 BYTE   W06
 BYTE   N06  Gs1  v096
 BYTE   N06  As1  v080
 BYTE   W12
 BYTE   Dn1  v064
 BYTE   N06  As1  v080
 BYTE   N06  En2  v064
 BYTE   W06
 BYTE   Gs1  v096
 BYTE   N06  An1
 BYTE   N01  En2  v016
 BYTE   W06
 BYTE   PEND 
// 010   ----------------------------------------
 BYTE   PATT
  POIN2 Label_6_014B239C
// 011   ----------------------------------------
Label_6_014B24FD:
 BYTE   N06  Gs1  v096
 BYTE   N06  As1  v080
 BYTE   N24  Cs2  v096
 BYTE   W12
 BYTE   N06  Dn1  v064
 BYTE   N06  As1  v080
 BYTE   N06  En2  v064
 BYTE   W06
 BYTE   N01  En2  v016
 BYTE   W06
 BYTE   N06  Gs1  v096
 BYTE   N06  As1  v080
 BYTE   W06
 BYTE   Gs1  v096
 BYTE   W06
 BYTE   Dn1  v064
 BYTE   N06  As1  v080
 BYTE   N06  En2  v064
 BYTE   W06
 BYTE   N01  En2  v016
 BYTE   W06
 BYTE   N06  Gs1  v096
 BYTE   N06  As1  v080
 BYTE   W12
 BYTE   Dn1  v064
 BYTE   N06  As1  v080
 BYTE   N06  En2  v064
 BYTE   W06
 BYTE   Gs1  v096
 BYTE   N01  En2  v016
 BYTE   W06
 BYTE   N06  As1  v080
 BYTE   W06
 BYTE   Gs1  v096
 BYTE   W06
 BYTE   Dn1  v064
 BYTE   N06  As1  v080
 BYTE   N06  En2  v064
 BYTE   W06
 BYTE   N01  En2  v016
 BYTE   W06
 BYTE   PEND 
// 012   ----------------------------------------
Label_6_014B2557:
 BYTE   N06  As1  v080
 BYTE   N24  Cs2  v096
 BYTE   W12
 BYTE   N06  Dn1  v064
 BYTE   N06  As1  v080
 BYTE   N06  En2  v064
 BYTE   W06
 BYTE   N01  En2  v016
 BYTE   W06
 BYTE   N06  Gs1  v096
 BYTE   N06  As1  v080
 BYTE   W06
 BYTE   Gs1  v096
 BYTE   W06
 BYTE   Dn1  v064
 BYTE   N06  As1  v080
 BYTE   N06  En2  v064
 BYTE   W06
 BYTE   N01  En2  v016
 BYTE   W06
 BYTE   N06  As1  v080
 BYTE   W12
 BYTE   Dn1  v064
 BYTE   N06  As1  v080
 BYTE   N06  En2  v064
 BYTE   W06
 BYTE   N01  En2  v016
 BYTE   W06
 BYTE   Gs1  v112
 BYTE   N01  Dn2
 BYTE   W03
 BYTE   Gs1  v096
 BYTE   N01  Dn2  v112
 BYTE   W03
 BYTE   Gs1  v080
 BYTE   N01  Cn2  v112
 BYTE   W03
 BYTE   Gs1  v096
 BYTE   N01  Cn2  v112
 BYTE   W03
 BYTE   Gs1
 BYTE   N01  Bn1
 BYTE   W03
 BYTE   Gs1  v096
 BYTE   N01  Bn1  v112
 BYTE   W03
 BYTE   Gs1  v080
 BYTE   N01  An1  v112
 BYTE   W03
 BYTE   Gs1  v096
 BYTE   N01  An1  v112
 BYTE   W03
 BYTE   PEND 
// 013   ----------------------------------------
 BYTE   N06  Gs1  v080
 BYTE   N06  Cs2  v096
 BYTE   N06  Gn2
 BYTE   W12
 BYTE   Dn1  v064
 BYTE   W12
 BYTE   Gs1  v096
 BYTE   W06
 BYTE   N06
 BYTE   W06
 BYTE   Dn1  v064
 BYTE   W12
 BYTE   Gs1  v096
 BYTE   W06
 BYTE   N06
 BYTE   W06
 BYTE   Dn1  v064
 BYTE   W12
 BYTE   Gs1  v096
 BYTE   W06
 BYTE   N06
 BYTE   W06
 BYTE   Dn1  v064
 BYTE   N06  Cs2  v080
 BYTE   W06
 BYTE   Gs1  v112
 BYTE   W06
// 014   ----------------------------------------
 BYTE   Gs1  v096
 BYTE   N06  Cs2
 BYTE   N06  Gn2
 BYTE   W06
 BYTE   Gs1
 BYTE   W06
 BYTE   Dn1  v064
 BYTE   W12
 BYTE   Gs1  v096
 BYTE   W06
 BYTE   N06
 BYTE   W06
 BYTE   Dn1  v064
 BYTE   W06
 BYTE   Gn1  v096
 BYTE   W06
 BYTE   Gs1
 BYTE   W06
 BYTE   N06
 BYTE   W06
 BYTE   Dn1  v064
 BYTE   W06
 BYTE   Gn1  v096
 BYTE   W06
 BYTE   Gs1
 BYTE   W06
 BYTE   N06
 BYTE   W06
 BYTE   Dn1  v064
 BYTE   N06  Cs2  v096
 BYTE   W12
// 015   ----------------------------------------
 BYTE   N06
 BYTE   N06  Gn2
 BYTE   W12
 BYTE   Dn1  v064
 BYTE   W12
 BYTE   Gs1  v096
 BYTE   W06
 BYTE   N06
 BYTE   W06
 BYTE   Dn1  v064
 BYTE   W06
 BYTE   Gs1  v096
 BYTE   W06
 BYTE   N06
 BYTE   W06
 BYTE   N06
 BYTE   W06
 BYTE   Dn1  v064
 BYTE   W06
 BYTE   Gs1  v096
 BYTE   W06
 BYTE   N06
 BYTE   W06
 BYTE   N06
 BYTE   W06
 BYTE   Dn1  v064
 BYTE   W12
// 016   ----------------------------------------
 BYTE   Gs1  v096
 BYTE   W06
 BYTE   N06
 BYTE   W06
 BYTE   Dn1  v064
 BYTE   W12
 BYTE   Gs1  v096
 BYTE   W06
 BYTE   N06
 BYTE   W06
 BYTE   Dn1  v064
 BYTE   W06
 BYTE   Gs1  v096
 BYTE   W06
 BYTE   N06
 BYTE   W06
 BYTE   N06
 BYTE   W06
 BYTE   Dn1  v064
 BYTE   W06
 BYTE   Gs1  v096
 BYTE   W06
 BYTE   Dn1  v048
 BYTE   W06
 BYTE   Gs1  v096
 BYTE   W06
 BYTE   Dn1  v048
 BYTE   W06
 BYTE   Dn1  v032
 BYTE   N06  Gs1  v096
 BYTE   W06
// 017   ----------------------------------------
 BYTE   PATT
  POIN2 Label_6_014B249E
// 018   ----------------------------------------
 BYTE   PATT
  POIN2 Label_6_014B239C
// 019   ----------------------------------------
 BYTE   PATT
  POIN2 Label_6_014B24FD
// 020   ----------------------------------------
 BYTE   PATT
  POIN2 Label_6_014B2557
// 021   ----------------------------------------
 BYTE   N06  Gs1  v096
 BYTE   N06  As1  v080
 BYTE   N24  Cs2  v096
 BYTE   W12
 BYTE   N06  Dn1  v064
 BYTE   N06  As1  v080
 BYTE   N06  En2  v064
 BYTE   W06
 BYTE   N01  En2  v016
 BYTE   W06
 BYTE   N06  Gs1  v096
 BYTE   N06  As1  v080
 BYTE   W06
 BYTE   Gs1  v096
 BYTE   W06
 BYTE   Dn1  v064
 BYTE   N06  As1  v080
 BYTE   N06  En2  v064
 BYTE   W06
 BYTE   N01  En2  v016
 BYTE   W06
 BYTE   N06  Gs1  v096
 BYTE   N06  As1  v080
 BYTE   W12
 BYTE   Gs1
 BYTE   N06  As1
 BYTE   W06
 BYTE   N01  En2  v016
 BYTE   W06
 BYTE   N06  Gs1  v080
 BYTE   N06  As1
 BYTE   W06
 BYTE   Gs1  v096
 BYTE   W06
 BYTE   Dn1  v064
 BYTE   N06  As1  v080
 BYTE   N06  En2  v064
 BYTE   W06
 BYTE   N01  En2  v016
 BYTE   W06
// 022   ----------------------------------------
Label_6_014B26CE:
 BYTE   N06  Gs1  v096
 BYTE   N06  Cs2  v112
 BYTE   W12
 BYTE   Gs1  v080
 BYTE   N06  Fn2  v064
 BYTE   W06
 BYTE   Dn1
 BYTE   N06  Fn2  v096
 BYTE   W12
 BYTE   Fn2  v064
 BYTE   W06
 BYTE   Gs1  v096
 BYTE   N06  Fn2  v080
 BYTE   W12
 BYTE   Gs1
 BYTE   N06  Fn2  v064
 BYTE   W06
 BYTE   Dn1
 BYTE   N06  Fn2  v096
 BYTE   W12
 BYTE   Gs1  v064
 BYTE   N06  Fn2
 BYTE   W06
 BYTE   Gs1  v096
 BYTE   N06  Fn2  v080
 BYTE   W06
 BYTE   Gs1
 BYTE   N06  Fn2  v096
 BYTE   W06
 BYTE   Dn1  v064
 BYTE   N06  Cs2
 BYTE   W12
 BYTE   PEND 
// 023   ----------------------------------------
Label_6_014B2709:
 BYTE   N06  Gs1  v096
 BYTE   N06  Cs2  v112
 BYTE   W12
 BYTE   Fn2  v064
 BYTE   W06
 BYTE   Dn1
 BYTE   N06  Fn2  v096
 BYTE   W12
 BYTE   Fn2  v064
 BYTE   W06
 BYTE   Gs1  v096
 BYTE   N06  Fn2  v080
 BYTE   W12
 BYTE   Gs1
 BYTE   N06  Fn2  v064
 BYTE   W06
 BYTE   Dn1
 BYTE   N06  Fn2  v096
 BYTE   W12
 BYTE   Gs1  v064
 BYTE   N06  Fn2
 BYTE   W06
 BYTE   Gs1  v096
 BYTE   N06  Fn2  v080
 BYTE   W06
 BYTE   Gs1
 BYTE   N06  Fn2  v096
 BYTE   W06
 BYTE   Dn1  v064
 BYTE   W06
 BYTE   N06
 BYTE   W06
 BYTE   PEND 
// 024   ----------------------------------------
Label_6_014B2741:
 BYTE   N06  Cs2  v112
 BYTE   W12
 BYTE   Gs1  v080
 BYTE   N06  Fn2  v064
 BYTE   W06
 BYTE   Dn1
 BYTE   N06  Fn2  v096
 BYTE   W12
 BYTE   Gs1
 BYTE   N06  Fn2  v064
 BYTE   W06
 BYTE   Gs1  v096
 BYTE   N06  Fn2  v080
 BYTE   W12
 BYTE   Gs1
 BYTE   N06  Fn2  v064
 BYTE   W06
 BYTE   Dn1
 BYTE   N06  Fn2  v096
 BYTE   W12
 BYTE   N01  Dn1  v064
 BYTE   W03
 BYTE   N01
 BYTE   W03
 BYTE   N01
 BYTE   W03
 BYTE   N01
 BYTE   W03
 BYTE   Bn1  v112
 BYTE   W03
 BYTE   N01
 BYTE   W03
 BYTE   N01
 BYTE   W03
 BYTE   N01
 BYTE   W03
 BYTE   An1
 BYTE   W03
 BYTE   N01
 BYTE   W03
 BYTE   PEND 
// 025   ----------------------------------------
 BYTE   PATT
  POIN2 Label_6_014B24FD
// 026   ----------------------------------------
 BYTE   N06  Gs1  v096
 BYTE   N06  As1  v080
 BYTE   N24  Cs2  v096
 BYTE   W12
 BYTE   N06  Dn1  v064
 BYTE   N06  As1  v080
 BYTE   N06  En2  v064
 BYTE   W06
 BYTE   N01  En2  v016
 BYTE   W06
 BYTE   N06  Gs1  v096
 BYTE   N06  As1  v080
 BYTE   W06
 BYTE   Gs1  v096
 BYTE   W06
 BYTE   Dn1  v064
 BYTE   N06  As1  v080
 BYTE   N06  En2  v064
 BYTE   W06
 BYTE   N01  En2  v016
 BYTE   W06
 BYTE   N06  Gs1  v096
 BYTE   N06  As1  v080
 BYTE   W06
 BYTE   Gs1
 BYTE   W06
 BYTE   As1
 BYTE   N06  Cn2  v112
 BYTE   N06  En2  v064
 BYTE   W06
 BYTE   Bn1  v112
 BYTE   W06
 BYTE   N06
 BYTE   W06
 BYTE   N06
 BYTE   W06
 BYTE   An1
 BYTE   W06
 BYTE   N06
 BYTE   W06
// 027   ----------------------------------------
 BYTE   N24  Cs2  v096
 BYTE   W12
 BYTE   N06  Cn2  v112
 BYTE   W06
 BYTE   N06
 BYTE   W12
 BYTE   Bn1
 BYTE   W06
 BYTE   N06
 BYTE   W06
 BYTE   N06
 BYTE   W06
 BYTE   An1
 BYTE   N06  Cs2  v096
 BYTE   W06
 BYTE   Cn2  v112
 BYTE   W06
 BYTE   N06
 BYTE   W06
 BYTE   N12  Bn1
 BYTE   N12  Cs2  v096
 BYTE   W12
 BYTE   N06  Bn1  v112
 BYTE   W06
 BYTE   An1
 BYTE   W06
 BYTE   N06
 BYTE   W06
// 028   ----------------------------------------
 BYTE   Cn2
 BYTE   N18  Cs2  v096
 BYTE   W12
 BYTE   N06  Bn1  v112
 BYTE   W06
 BYTE   N06
 BYTE   N12  Cs2  v096
 BYTE   W12
 BYTE   N06  Bn1  v112
 BYTE   W06
 BYTE   N06
 BYTE   W06
 BYTE   An1
 BYTE   W06
 BYTE   Cn2
 BYTE   N06  Cs2
 BYTE   W06
 BYTE   Cn2
 BYTE   W06
 BYTE   Bn1
 BYTE   W06
 BYTE   N06
 BYTE   N12  Cs2
 BYTE   W06
 BYTE   N06  An1
 BYTE   W06
 BYTE   N01  Cn2  v127
 BYTE   W03
 BYTE   N01
 BYTE   W03
 BYTE   Bn1
 BYTE   W03
 BYTE   N01
 BYTE   W03
 BYTE   An1
 BYTE   W03
 BYTE   N01
 BYTE   W03
// 029   ----------------------------------------
Label_6_014B2828:
 BYTE   N06  Gs1  v096
 BYTE   N06  As1  v080
 BYTE   N24  Cs2  v096
 BYTE   W12
 BYTE   N06  Dn1  v064
 BYTE   N06  As1  v080
 BYTE   N06  En2  v064
 BYTE   W06
 BYTE   N01  En2  v016
 BYTE   W06
 BYTE   N06  Gs1  v096
 BYTE   N06  As1  v080
 BYTE   W06
 BYTE   Gs1  v096
 BYTE   W06
 BYTE   Dn1  v064
 BYTE   N06  As1  v080
 BYTE   N06  En2  v064
 BYTE   W06
 BYTE   N01  En2  v016
 BYTE   W06
 BYTE   N06  Gs1  v096
 BYTE   N06  As1  v080
 BYTE   W12
 BYTE   Dn1  v064
 BYTE   N06  As1  v080
 BYTE   N06  En2  v064
 BYTE   W06
 BYTE   N01  En2  v016
 BYTE   W06
 BYTE   N06  Gs1  v096
 BYTE   N06  As1  v080
 BYTE   W06
 BYTE   Gs1  v096
 BYTE   W06
 BYTE   Dn1  v064
 BYTE   N06  As1  v080
 BYTE   N06  En2  v064
 BYTE   W06
 BYTE   Gs1  v096
 BYTE   N01  En2  v016
 BYTE   W06
 BYTE   PEND 
// 030   ----------------------------------------
 BYTE   N06  Gs1  v096
 BYTE   N06  As1  v080
 BYTE   W12
 BYTE   Dn1  v064
 BYTE   N06  As1  v080
 BYTE   N06  En2  v064
 BYTE   W06
 BYTE   N01  En2  v016
 BYTE   W06
 BYTE   N06  Gs1  v096
 BYTE   N06  As1  v080
 BYTE   W12
 BYTE   Dn1  v064
 BYTE   N06  As1  v080
 BYTE   N06  En2  v064
 BYTE   W06
 BYTE   Gs1  v096
 BYTE   N01  En2  v016
 BYTE   W06
 BYTE   N06  As1  v080
 BYTE   W06
 BYTE   Gs1  v096
 BYTE   W06
 BYTE   Dn1  v064
 BYTE   N06  As1  v080
 BYTE   N06  En2  v064
 BYTE   W06
 BYTE   N01  En2  v016
 BYTE   W06
 BYTE   N06  Gs1  v096
 BYTE   N06  As1  v080
 BYTE   W06
 BYTE   Gs1  v096
 BYTE   W06
 BYTE   Dn1  v064
 BYTE   N06  As1  v080
 BYTE   N06  En2  v064
 BYTE   N06  Gn2  v096
 BYTE   W06
 BYTE   N01  En2  v016
 BYTE   W06
// 031   ----------------------------------------
Label_6_014B28DD:
 BYTE   N06  Gs1  v096
 BYTE   N06  As1  v080
 BYTE   N24  Cs2  v096
 BYTE   W12
 BYTE   N06  Dn1  v064
 BYTE   N06  As1  v080
 BYTE   N06  En2  v064
 BYTE   W06
 BYTE   N01  En2  v016
 BYTE   W06
 BYTE   N06  Gs1  v096
 BYTE   N06  As1  v080
 BYTE   W06
 BYTE   Gs1  v096
 BYTE   W06
 BYTE   Dn1  v064
 BYTE   N06  As1  v080
 BYTE   N06  En2  v064
 BYTE   W06
 BYTE   N01  En2  v016
 BYTE   W06
 BYTE   N06  Gs1  v096
 BYTE   N06  As1  v080
 BYTE   W12
 BYTE   Dn1  v064
 BYTE   N06  As1  v080
 BYTE   N06  En2  v064
 BYTE   W06
 BYTE   N01  En2  v016
 BYTE   W06
 BYTE   N06  As1  v080
 BYTE   W06
 BYTE   Gs1  v096
 BYTE   W06
 BYTE   Dn1  v064
 BYTE   N06  As1  v080
 BYTE   N06  En2  v064
 BYTE   W06
 BYTE   N01  En2  v016
 BYTE   W06
 BYTE   PEND 
// 032   ----------------------------------------
 BYTE   N06  As1  v080
 BYTE   N24  Cs2  v096
 BYTE   W12
 BYTE   N06  Dn1  v064
 BYTE   N06  As1  v080
 BYTE   N06  En2  v064
 BYTE   W06
 BYTE   N01  En2  v016
 BYTE   W06
 BYTE   N06  Gs1  v096
 BYTE   N06  As1  v080
 BYTE   W06
 BYTE   Gs1  v096
 BYTE   W06
 BYTE   Dn1  v064
 BYTE   N06  As1  v080
 BYTE   N06  En2  v064
 BYTE   W06
 BYTE   N01  En2  v016
 BYTE   W06
 BYTE   N06  As1  v080
 BYTE   W12
 BYTE   Dn1  v064
 BYTE   N06  As1  v080
 BYTE   N06  En2  v064
 BYTE   W06
 BYTE   Gs1
 BYTE   N01  En2  v016
 BYTE   W06
 BYTE   Gs1  v112
 BYTE   N01  Dn2
 BYTE   W03
 BYTE   Gs1  v096
 BYTE   N01  Dn2  v112
 BYTE   W03
 BYTE   Gs1  v080
 BYTE   N01  Cn2  v112
 BYTE   W03
 BYTE   Gs1  v096
 BYTE   N01  Cn2  v112
 BYTE   W03
 BYTE   Gs1
 BYTE   N01  Bn1
 BYTE   W03
 BYTE   Gs1  v096
 BYTE   N01  Bn1  v112
 BYTE   W03
 BYTE   Gs1  v080
 BYTE   N01  An1  v112
 BYTE   W03
 BYTE   Gs1  v096
 BYTE   N01  An1  v112
 BYTE   W03
// 033   ----------------------------------------
 BYTE   N06  Gs1  v096
 BYTE   N06  Cs2
 BYTE   W24
 BYTE   Gs1
 BYTE   N06  Gn2  v112
 BYTE   W12
 BYTE   N04  Gs1  v048
 BYTE   W04
 BYTE   Gs1  v064
 BYTE   W04
 BYTE   Gs1  v080
 BYTE   W04
 BYTE   N06  Dn1  v048
 BYTE   N06  Gs1  v096
 BYTE   N06  Cs2
 BYTE   W12
 BYTE   N04  Gs1  v048
 BYTE   W04
 BYTE   Gs1  v064
 BYTE   W04
 BYTE   Gs1  v080
 BYTE   W04
 BYTE   N06  Dn1  v048
 BYTE   N06  Gs1  v096
 BYTE   N06  Cs2
 BYTE   W12
 BYTE   N04  Gs1  v048
 BYTE   W04
 BYTE   Gs1  v064
 BYTE   W04
 BYTE   Gs1  v080
 BYTE   W04
// 034   ----------------------------------------
 BYTE   N06  Dn1  v048
 BYTE   N06  Gs1  v096
 BYTE   N06  Cs2
 BYTE   W12
 BYTE   N04  Gs1  v048
 BYTE   W04
 BYTE   Gs1  v064
 BYTE   W04
 BYTE   Gs1  v080
 BYTE   W04
 BYTE   N06  Dn1  v048
 BYTE   N06  Gs1  v096
 BYTE   N06  Cs2
 BYTE   W12
 BYTE   N04  Gs1  v048
 BYTE   W04
 BYTE   Gs1  v064
 BYTE   W04
 BYTE   Gs1  v080
 BYTE   W04
 BYTE   N06  Dn1  v048
 BYTE   N06  Gs1  v096
 BYTE   N06  Cs2
 BYTE   W06
 BYTE   N04  Gs1  v048
 BYTE   W04
 BYTE   Gs1  v064
 BYTE   W04
 BYTE   Gs1  v080
 BYTE   W04
 BYTE   Gs1  v064
 BYTE   W04
 BYTE   Gs1  v080
 BYTE   W04
 BYTE   N06  Dn1  v048
 BYTE   N06  Gs1  v096
 BYTE   N06  Cs2
 BYTE   W12
 BYTE   Gs1
 BYTE   W10
// 035   ----------------------------------------
 BYTE   N06
 BYTE   N06  Cs2
 BYTE   W24
 BYTE   Dn1  v048
 BYTE   N06  Gs1  v096
 BYTE   N06  Gn2
 BYTE   W16
 BYTE   N04  Gs1  v064
 BYTE   W04
 BYTE   Gs1  v096
 BYTE   W04
 BYTE   N06  Dn1  v048
 BYTE   N06  Gs1  v096
 BYTE   N06  Cs2
 BYTE   W06
 BYTE   Gs1
 BYTE   W10
 BYTE   N04  Gs1  v064
 BYTE   W04
 BYTE   Gs1  v096
 BYTE   W04
 BYTE   N06  Dn1  v048
 BYTE   N06  Gs1  v096
 BYTE   N06  Cs2
 BYTE   W06
 BYTE   Gs1
 BYTE   W10
 BYTE   N04  Gs1  v064
 BYTE   W04
 BYTE   Gs1  v096
 BYTE   W04
// 036   ----------------------------------------
Label_6_014B2A5C:
 BYTE   N06  Dn1  v048
 BYTE   N06  Gs1  v096
 BYTE   N06  Cs2
 BYTE   W06
 BYTE   Gs1
 BYTE   W10
 BYTE   N04  Gs1  v064
 BYTE   W04
 BYTE   Gs1  v096
 BYTE   W04
 BYTE   N06  Dn1  v048
 BYTE   N06  Gs1  v096
 BYTE   N06  Cs2
 BYTE   W06
 BYTE   Gs1
 BYTE   W10
 BYTE   N04  Gs1  v064
 BYTE   W04
 BYTE   Gs1  v096
 BYTE   W04
 BYTE   N06  Dn1  v048
 BYTE   N06  Gs1  v096
 BYTE   N06  Cs2
 BYTE   W06
 BYTE   Gs1
 BYTE   W10
 BYTE   N04  Gs1  v064
 BYTE   W04
 BYTE   Gs1  v096
 BYTE   W04
 BYTE   N06  Dn1  v048
 BYTE   N06  Gs1  v096
 BYTE   N06  Cs2
 BYTE   W06
 BYTE   Gs1
 BYTE   W12
 BYTE   N06
 BYTE   W06
 BYTE   PEND 
// 037   ----------------------------------------
 BYTE   PATT
  POIN2 Label_6_014B2828
// 038   ----------------------------------------
 BYTE   N06  Gs1  v096
 BYTE   N06  As1  v080
 BYTE   W12
 BYTE   Dn1  v064
 BYTE   N06  As1  v080
 BYTE   N06  En2  v064
 BYTE   W06
 BYTE   N01  En2  v016
 BYTE   W06
 BYTE   N06  Gs1  v096
 BYTE   N06  As1  v080
 BYTE   W12
 BYTE   Dn1  v064
 BYTE   N06  As1  v080
 BYTE   N06  En2  v064
 BYTE   W06
 BYTE   N01  En2  v016
 BYTE   W06
 BYTE   N06  As1  v080
 BYTE   W06
 BYTE   Gs1  v096
 BYTE   W06
 BYTE   Dn1  v064
 BYTE   N06  As1  v080
 BYTE   N06  En2  v064
 BYTE   W06
 BYTE   N01  En2  v016
 BYTE   W06
 BYTE   N06  Gs1  v096
 BYTE   N06  As1  v080
 BYTE   W06
 BYTE   Gs1  v096
 BYTE   W06
 BYTE   Dn1  v064
 BYTE   N06  As1  v080
 BYTE   N06  En2  v064
 BYTE   N06  Gn2  v096
 BYTE   W06
 BYTE   N01  En2  v016
 BYTE   W06
// 039   ----------------------------------------
 BYTE   PATT
  POIN2 Label_6_014B28DD
// 040   ----------------------------------------
 BYTE   N06  Gs1  v096
 BYTE   N06  As1  v080
 BYTE   N24  Cs2  v096
 BYTE   W12
 BYTE   N06  Dn1  v064
 BYTE   N06  As1  v080
 BYTE   N06  En2  v064
 BYTE   W06
 BYTE   N01  En2  v016
 BYTE   W06
 BYTE   N06  Gs1  v096
 BYTE   N06  As1  v080
 BYTE   W06
 BYTE   Gs1  v096
 BYTE   W06
 BYTE   Dn1  v064
 BYTE   N06  As1  v080
 BYTE   N06  En2  v064
 BYTE   W06
 BYTE   N01  En2  v016
 BYTE   W06
 BYTE   N06  Gs1  v096
 BYTE   N06  As1  v080
 BYTE   W12
 BYTE   Dn1  v064
 BYTE   N06  As1  v080
 BYTE   N06  En2  v064
 BYTE   W06
 BYTE   N01  En2  v016
 BYTE   W06
 BYTE   N06  Gs1  v096
 BYTE   N06  As1  v080
 BYTE   W06
 BYTE   Gs1  v096
 BYTE   W06
 BYTE   Dn1  v064
 BYTE   N06  As1  v080
 BYTE   N06  En2  v064
 BYTE   W06
 BYTE   N01  En2  v016
 BYTE   W06
// 041   ----------------------------------------
Label_6_014B2B5A:
 BYTE   N06  Gs1  v096
 BYTE   N06  Cs2
 BYTE   W12
 BYTE   Dn1  v064
 BYTE   N06  As1  v048
 BYTE   W12
 BYTE   Gs1  v096
 BYTE   N06  As1  v064
 BYTE   W06
 BYTE   Gs1  v096
 BYTE   W06
 BYTE   Dn1  v064
 BYTE   N06  As1  v080
 BYTE   W12
 BYTE   Gs1  v096
 BYTE   N06  As1  v064
 BYTE   W12
 BYTE   Dn1
 BYTE   N06  As1  v080
 BYTE   W12
 BYTE   Gs1  v096
 BYTE   N06  As1  v064
 BYTE   W06
 BYTE   Gs1  v096
 BYTE   W06
 BYTE   Dn1  v064
 BYTE   N06  As1  v080
 BYTE   W06
 BYTE   Gs1
 BYTE   W06
 BYTE   PEND 
// 042   ----------------------------------------
 BYTE   Gs1  v096
 BYTE   N06  As1  v064
 BYTE   W12
 BYTE   Dn1  v048
 BYTE   N06  As1  v080
 BYTE   W12
 BYTE   Gs1  v096
 BYTE   N06  As1  v064
 BYTE   W12
 BYTE   Dn1  v048
 BYTE   N06  As1  v064
 BYTE   W06
 BYTE   Gs1  v096
 BYTE   W06
 BYTE   As1  v064
 BYTE   W06
 BYTE   Gs1  v096
 BYTE   W06
 BYTE   Dn1  v064
 BYTE   N06  As1  v080
 BYTE   W12
 BYTE   Gs1  v096
 BYTE   N06  As1  v064
 BYTE   W06
 BYTE   Gs1  v096
 BYTE   W06
 BYTE   Dn1  v064
 BYTE   N06  Cs2  v080
 BYTE   W12
// 043   ----------------------------------------
 BYTE   Gs1  v096
 BYTE   N06  Cs2
 BYTE   W12
 BYTE   Dn1  v064
 BYTE   N06  As1  v048
 BYTE   W12
 BYTE   Gs1  v096
 BYTE   N06  As1  v064
 BYTE   W06
 BYTE   Gs1  v096
 BYTE   W06
 BYTE   Dn1  v064
 BYTE   N06  As1  v080
 BYTE   W12
 BYTE   Gs1  v096
 BYTE   N06  As1  v064
 BYTE   W12
 BYTE   Dn1
 BYTE   N06  As1  v080
 BYTE   W12
 BYTE   As1  v064
 BYTE   W06
 BYTE   Gs1  v096
 BYTE   W06
 BYTE   Dn1  v064
 BYTE   N06  As1  v080
 BYTE   W12
// 044   ----------------------------------------
 BYTE   Gs1  v096
 BYTE   N06  As1  v064
 BYTE   W12
 BYTE   Dn1
 BYTE   N06  As1  v048
 BYTE   W12
 BYTE   Gs1  v096
 BYTE   N06  As1  v064
 BYTE   W06
 BYTE   Gs1  v096
 BYTE   W06
 BYTE   Dn1  v064
 BYTE   N06  As1  v080
 BYTE   W12
 BYTE   Gs1  v096
 BYTE   N06  As1  v064
 BYTE   W12
 BYTE   Dn1
 BYTE   N06  As1  v080
 BYTE   W12
 BYTE   N01  Gs1  v112
 BYTE   N01  Dn2
 BYTE   W03
 BYTE   Gs1  v096
 BYTE   N01  Dn2  v112
 BYTE   W03
 BYTE   Gs1  v080
 BYTE   N01  Cn2  v112
 BYTE   W03
 BYTE   Gs1  v096
 BYTE   N01  Cn2  v112
 BYTE   W03
 BYTE   Gs1
 BYTE   N01  Bn1
 BYTE   W03
 BYTE   Gs1  v096
 BYTE   N01  Bn1  v112
 BYTE   W03
 BYTE   Gs1  v080
 BYTE   N01  An1  v112
 BYTE   W03
 BYTE   Gs1  v096
 BYTE   N01  An1  v112
 BYTE   W03
// 045   ----------------------------------------
 BYTE   PATT
  POIN2 Label_6_014B2B5A
// 046   ----------------------------------------
 BYTE   PATT
  POIN2 Label_6_014B26CE
// 047   ----------------------------------------
 BYTE   PATT
  POIN2 Label_6_014B2709
// 048   ----------------------------------------
 BYTE   PATT
  POIN2 Label_6_014B2741
// 049   ----------------------------------------
 BYTE   PATT
  POIN2 Label_6_014B249E
// 050   ----------------------------------------
 BYTE   PATT
  POIN2 Label_6_014B239C
// 051   ----------------------------------------
 BYTE   PATT
  POIN2 Label_6_014B24FD
// 052   ----------------------------------------
 BYTE   PATT
  POIN2 Label_6_014B2449
// 053   ----------------------------------------
 BYTE   N06  Gs1  v096
 BYTE   N06  Cs2
 BYTE   W24
 BYTE   Gs1
 BYTE   N06  Gn2  v112
 BYTE   W12
 BYTE   N04  Gs1  v048
 BYTE   W04
 BYTE   Gs1  v064
 BYTE   W04
 BYTE   Gs1  v080
 BYTE   W04
 BYTE   Dn1  v048
 BYTE   N04  Gs1  v096
 BYTE   N04  Cs2
 BYTE   W04
 BYTE   Gs1  v048
 BYTE   W04
 BYTE   Gs1  v064
 BYTE   W04
 BYTE   Gs1  v048
 BYTE   W04
 BYTE   Gs1  v064
 BYTE   W04
 BYTE   Gs1  v080
 BYTE   W04
 BYTE   Dn1  v048
 BYTE   N04  Gs1  v096
 BYTE   N04  Cs2
 BYTE   W04
 BYTE   Gs1  v048
 BYTE   W04
 BYTE   Gs1  v064
 BYTE   W04
 BYTE   Gs1  v048
 BYTE   W04
 BYTE   Gs1  v064
 BYTE   W04
 BYTE   Gs1  v080
 BYTE   W04
// 054   ----------------------------------------
 BYTE   N06  Dn1  v048
 BYTE   N06  Gs1  v096
 BYTE   N06  Cs2
 BYTE   W12
 BYTE   N04  Gs1  v048
 BYTE   W04
 BYTE   Gs1  v064
 BYTE   W04
 BYTE   Gs1  v080
 BYTE   W04
 BYTE   Dn1  v048
 BYTE   N04  Gs1  v096
 BYTE   N04  Cs2
 BYTE   W04
 BYTE   Gs1  v048
 BYTE   W04
 BYTE   Gs1  v064
 BYTE   W04
 BYTE   Gs1  v048
 BYTE   W04
 BYTE   Gs1  v064
 BYTE   W04
 BYTE   Gs1  v080
 BYTE   W04
 BYTE   N06  Dn1  v048
 BYTE   N06  Gs1  v096
 BYTE   N06  Cs2
 BYTE   W06
 BYTE   N04  Gs1  v048
 BYTE   W04
 BYTE   Gs1  v064
 BYTE   W04
 BYTE   Gs1  v080
 BYTE   W04
 BYTE   Gs1  v064
 BYTE   W04
 BYTE   Gs1  v080
 BYTE   W04
 BYTE   N06  Dn1  v048
 BYTE   N06  Gs1  v096
 BYTE   N06  Cs2
 BYTE   W12
 BYTE   Gs1
 BYTE   W10
// 055   ----------------------------------------
 BYTE   N06
 BYTE   N06  Cs2
 BYTE   W24
 BYTE   Dn1  v048
 BYTE   N06  Gs1  v096
 BYTE   N06  Gn2
 BYTE   W12
 BYTE   N04  Gs1  v064
 BYTE   W04
 BYTE   N04
 BYTE   W04
 BYTE   Gs1  v096
 BYTE   W04
 BYTE   Dn1  v048
 BYTE   N04  Gs1  v096
 BYTE   N04  Cs2
 BYTE   W04
 BYTE   Gs1
 BYTE   W04
 BYTE   Gs1  v064
 BYTE   W04
 BYTE   N04
 BYTE   W04
 BYTE   N04
 BYTE   W04
 BYTE   Gs1  v096
 BYTE   W04
 BYTE   N06  Dn1  v048
 BYTE   N06  Gs1  v096
 BYTE   N06  Cs2
 BYTE   W06
 BYTE   Gs1
 BYTE   W10
 BYTE   N04  Gs1  v064
 BYTE   W04
 BYTE   Gs1  v096
 BYTE   W04
// 056   ----------------------------------------
 BYTE   PATT
  POIN2 Label_6_014B2A5C
// 057   ----------------------------------------
 BYTE   PATT
  POIN2 Label_6_014B26CE
// 058   ----------------------------------------
 BYTE   PATT
  POIN2 Label_6_014B26CE
// 059   ----------------------------------------
 BYTE   PATT
  POIN2 Label_6_014B2709
// 060   ----------------------------------------
 BYTE   PATT
  POIN2 Label_6_014B2741
// 061   ----------------------------------------
 BYTE   N06  Gs1  v096
 BYTE   N06  Cs2
 BYTE   W12
 BYTE   N04  Gs1  v048
 BYTE   W04
 BYTE   Gs1  v064
 BYTE   W04
 BYTE   Gs1  v080
 BYTE   W04
 BYTE   Dn1  v048
 BYTE   N04  Gs1  v096
 BYTE   N04  Cs2
 BYTE   W12
 BYTE   Gs1  v048
 BYTE   W04
 BYTE   Gs1  v064
 BYTE   W04
 BYTE   Gs1  v080
 BYTE   W04
 BYTE   Dn1  v048
 BYTE   N04  Gs1  v096
 BYTE   N04  Cs2
 BYTE   W04
 BYTE   Gs1  v048
 BYTE   W08
 BYTE   N04
 BYTE   W04
 BYTE   Gs1  v064
 BYTE   W04
 BYTE   Gs1  v080
 BYTE   W04
 BYTE   Dn1  v048
 BYTE   N04  Gs1  v096
 BYTE   N04  Cs2
 BYTE   W12
 BYTE   Gs1  v048
 BYTE   W04
 BYTE   Gs1  v064
 BYTE   W04
 BYTE   Gs1  v080
 BYTE   W04
// 062   ----------------------------------------
Label_6_014B2D9E:
 BYTE   N04  Gs1  v096
 BYTE   N04  Cs2
 BYTE   W04
 BYTE   Gs1  v048
 BYTE   W04
 BYTE   Gs1  v064
 BYTE   W04
 BYTE   Gs1  v080
 BYTE   W04
 BYTE   Gs1  v064
 BYTE   W04
 BYTE   N04
 BYTE   W04
 BYTE   Dn1  v048
 BYTE   N04  Gs1  v096
 BYTE   N04  Cs2
 BYTE   W04
 BYTE   Gs1  v048
 BYTE   W04
 BYTE   N04
 BYTE   W04
 BYTE   N04
 BYTE   W04
 BYTE   Gs1  v064
 BYTE   W04
 BYTE   Gs1  v080
 BYTE   W04
 BYTE   Dn1  v048
 BYTE   N04  Gs1  v096
 BYTE   N04  Cs2
 BYTE   W04
 BYTE   Gs1  v048
 BYTE   W08
 BYTE   Gs1  v080
 BYTE   W04
 BYTE   Gs1  v064
 BYTE   W04
 BYTE   N04
 BYTE   W04
 BYTE   Dn1  v048
 BYTE   N04  Gs1  v096
 BYTE   N04  Cs2
 BYTE   W12
 BYTE   Gs1  v080
 BYTE   W12
 BYTE   PEND 
// 063   ----------------------------------------
 BYTE   Gs1  v096
 BYTE   N04  Cs2
 BYTE   W04
 BYTE   Gs1  v048
 BYTE   W04
 BYTE   Gs1  v064
 BYTE   W04
 BYTE   Gs1  v080
 BYTE   W04
 BYTE   Gs1  v064
 BYTE   W04
 BYTE   N04
 BYTE   W04
 BYTE   Dn1  v048
 BYTE   N04  Gs1  v096
 BYTE   N04  Cs2
 BYTE   W04
 BYTE   Gs1  v048
 BYTE   W04
 BYTE   N04
 BYTE   W04
 BYTE   N04
 BYTE   W04
 BYTE   Gs1  v064
 BYTE   W04
 BYTE   Gs1  v080
 BYTE   W04
 BYTE   Dn1  v048
 BYTE   N04  Gs1  v096
 BYTE   N04  Cs2
 BYTE   W04
 BYTE   Gs1  v048
 BYTE   W08
 BYTE   Gs1  v080
 BYTE   W04
 BYTE   Gs1  v064
 BYTE   W04
 BYTE   N04
 BYTE   W04
 BYTE   Dn1  v048
 BYTE   N04  Gs1  v096
 BYTE   N04  Cs2
 BYTE   W12
 BYTE   Gs1  v080
 BYTE   W04
 BYTE   Gs1  v064
 BYTE   W04
 BYTE   N04
 BYTE   W04
// 064   ----------------------------------------
 BYTE   PATT
  POIN2 Label_6_014B2D9E
// 065   ----------------------------------------
 BYTE   GoTo
  POIN2 Label_6_014B230F
 BYTE   FINE

//**************** Track 8 (Midi-Chn.7) ****************//

songC5_008:
// 000   ----------------------------------------
 BYTE   KEYSH   songC5_key+0
 BYTE   VOICE   33
 BYTE   VOL   26*songC5_mvl/mxv
 BYTE   PAN   c_v+0
 BYTE   BEND   c_v+0
 BYTE   W96
// 001   ----------------------------------------
Label_7_014B0927:
 BYTE   W96
// 002   ----------------------------------------
 BYTE   W96
// 003   ----------------------------------------
 BYTE   W96
// 004   ----------------------------------------
 BYTE   W96
// 005   ----------------------------------------
Label_7_014B092B:
 BYTE   N12  Dn0  v096
 BYTE   W12
 BYTE   N06  Dn1
 BYTE   W06
 BYTE   Dn0
 BYTE   W06
 BYTE   N06
 BYTE   W06
 BYTE   N06
 BYTE   W06
 BYTE   N12  Dn1
 BYTE   W05
 BYTE   BEND   c_v-5
 BYTE   W01
 BYTE   BEND   c_v-11
 BYTE   W06
 BYTE   BEND   c_v+0
 BYTE   N12  Dn0
 BYTE   W12
 BYTE   N06  Dn1
 BYTE   W06
 BYTE   Dn0
 BYTE   W06
 BYTE   N06
 BYTE   W06
 BYTE   N06
 BYTE   W06
 BYTE   N12  Dn1
 BYTE   W05
 BYTE   BEND   c_v-5
 BYTE   W01
 BYTE   BEND   c_v-11
 BYTE   W06
 BYTE   PEND 
// 006   ----------------------------------------
Label_7_014B0956:
 BYTE   BEND   c_v+0
 BYTE   N12  Dn0  v096
 BYTE   W12
 BYTE   N06  Dn1
 BYTE   W06
 BYTE   Dn0
 BYTE   W06
 BYTE   N06
 BYTE   W06
 BYTE   N06
 BYTE   W06
 BYTE   N12  Dn1
 BYTE   W05
 BYTE   BEND   c_v-5
 BYTE   W01
 BYTE   BEND   c_v-11
 BYTE   W06
 BYTE   BEND   c_v+0
 BYTE   N12  Dn0
 BYTE   W12
 BYTE   N06  Dn1
 BYTE   W06
 BYTE   Dn0
 BYTE   W06
 BYTE   N06
 BYTE   W06
 BYTE   N06
 BYTE   W06
 BYTE   N12  Dn1
 BYTE   W05
 BYTE   BEND   c_v-5
 BYTE   W01
 BYTE   BEND   c_v-11
 BYTE   W06
 BYTE   PEND 
// 007   ----------------------------------------
Label_7_014B0983:
 BYTE   BEND   c_v+0
 BYTE   N12  Dn0  v096
 BYTE   W12
 BYTE   Dn1
 BYTE   W12
 BYTE   N06  Dn0
 BYTE   W06
 BYTE   N06
 BYTE   W06
 BYTE   N12  Dn1
 BYTE   W05
 BYTE   BEND   c_v-5
 BYTE   W01
 BYTE   BEND   c_v-11
 BYTE   W06
 BYTE   BEND   c_v+0
 BYTE   N12  Dn0
 BYTE   W12
 BYTE   N06  Dn1
 BYTE   W06
 BYTE   Dn0
 BYTE   W06
 BYTE   N06
 BYTE   W06
 BYTE   N06
 BYTE   W06
 BYTE   N12  Dn1
 BYTE   W05
 BYTE   BEND   c_v-5
 BYTE   W01
 BYTE   BEND   c_v-11
 BYTE   W06
 BYTE   PEND 
// 008   ----------------------------------------
 BYTE   PATT
  POIN2 Label_7_014B0956
// 009   ----------------------------------------
 BYTE   PATT
  POIN2 Label_7_014B0956
// 010   ----------------------------------------
 BYTE   PATT
  POIN2 Label_7_014B0956
// 011   ----------------------------------------
 BYTE   PATT
  POIN2 Label_7_014B0983
// 012   ----------------------------------------
 BYTE   PATT
  POIN2 Label_7_014B0956
// 013   ----------------------------------------
 BYTE   BEND   c_v+0
 BYTE   N06  En0  v096
 BYTE   W06
 BYTE   N06
 BYTE   W06
 BYTE   En1
 BYTE   W06
 BYTE   En0
 BYTE   W06
 BYTE   Dn1
 BYTE   W06
 BYTE   En0
 BYTE   W06
 BYTE   N12  En1
 BYTE   W12
 BYTE   N06  En0
 BYTE   W06
 BYTE   N06
 BYTE   W06
 BYTE   En1
 BYTE   W06
 BYTE   En0
 BYTE   W06
 BYTE   Dn1
 BYTE   W06
 BYTE   En0
 BYTE   W06
 BYTE   N12  En1
 BYTE   W12
// 014   ----------------------------------------
Label_7_014B09EA:
 BYTE   N06  En0  v096
 BYTE   W06
 BYTE   N06
 BYTE   W06
 BYTE   En1
 BYTE   W06
 BYTE   En0
 BYTE   W06
 BYTE   Dn1
 BYTE   W06
 BYTE   En0
 BYTE   W06
 BYTE   N12  En1
 BYTE   W12
 BYTE   N06  En0
 BYTE   W06
 BYTE   N06
 BYTE   W06
 BYTE   En1
 BYTE   W06
 BYTE   En0
 BYTE   W06
 BYTE   Dn1
 BYTE   W06
 BYTE   En0
 BYTE   W06
 BYTE   N12  En1
 BYTE   W12
 BYTE   PEND 
// 015   ----------------------------------------
 BYTE   PATT
  POIN2 Label_7_014B09EA
// 016   ----------------------------------------
 BYTE   PATT
  POIN2 Label_7_014B09EA
// 017   ----------------------------------------
 BYTE   PATT
  POIN2 Label_7_014B092B
// 018   ----------------------------------------
 BYTE   PATT
  POIN2 Label_7_014B0956
// 019   ----------------------------------------
 BYTE   PATT
  POIN2 Label_7_014B0983
// 020   ----------------------------------------
 BYTE   PATT
  POIN2 Label_7_014B0956
// 021   ----------------------------------------
 BYTE   BEND   c_v+0
 BYTE   N12  An0  v096
 BYTE   W12
 BYTE   An1
 BYTE   W12
 BYTE   N06  An0
 BYTE   W06
 BYTE   N06
 BYTE   W06
 BYTE   N12  An1
 BYTE   W12
 BYTE   An0
 BYTE   W12
 BYTE   N06  An1
 BYTE   W06
 BYTE   An0
 BYTE   W06
 BYTE   N06
 BYTE   W06
 BYTE   N06
 BYTE   W06
 BYTE   N12  An1
 BYTE   W12
// 022   ----------------------------------------
Label_7_014B0A48:
 BYTE   N12  Gn0  v096
 BYTE   W12
 BYTE   N06  Gn1
 BYTE   W06
 BYTE   N12  Gn0
 BYTE   W12
 BYTE   N06
 BYTE   W06
 BYTE   N12
 BYTE   W12
 BYTE   N06  Gn1
 BYTE   W06
 BYTE   N12  Gn0
 BYTE   W12
 BYTE   N06
 BYTE   W06
 BYTE   N06
 BYTE   W06
 BYTE   N06
 BYTE   W06
 BYTE   N12  Gn1
 BYTE   W12
 BYTE   PEND 
// 023   ----------------------------------------
Label_7_014B0A66:
 BYTE   N12  Fn0  v096
 BYTE   W12
 BYTE   N06
 BYTE   W06
 BYTE   N12  Fn1
 BYTE   W12
 BYTE   N06  Fn0
 BYTE   W06
 BYTE   N12
 BYTE   W12
 BYTE   N06
 BYTE   W06
 BYTE   N12  Fn1
 BYTE   W12
 BYTE   N06  Fn0
 BYTE   W06
 BYTE   N06
 BYTE   W06
 BYTE   N06
 BYTE   W06
 BYTE   Fn1
 BYTE   W06
 BYTE   N06
 BYTE   W06
 BYTE   PEND 
// 024   ----------------------------------------
Label_7_014B0A85:
 BYTE   N12  Gn0  v096
 BYTE   W12
 BYTE   N06
 BYTE   W06
 BYTE   N12  Gn1
 BYTE   W12
 BYTE   N06  Gn0
 BYTE   W06
 BYTE   N12
 BYTE   W12
 BYTE   N06
 BYTE   W06
 BYTE   N12  Gn1
 BYTE   W12
 BYTE   N06  Gn0
 BYTE   W06
 BYTE   N06
 BYTE   W06
 BYTE   N06
 BYTE   W06
 BYTE   N06
 BYTE   W06
 BYTE   N06
 BYTE   W06
 BYTE   PEND 
// 025   ----------------------------------------
 BYTE   N12  An0
 BYTE   W12
 BYTE   An1
 BYTE   W12
 BYTE   N06  An0
 BYTE   W06
 BYTE   N06
 BYTE   W06
 BYTE   N12  An1
 BYTE   W12
 BYTE   An0
 BYTE   W12
 BYTE   N06  An1
 BYTE   W06
 BYTE   An0
 BYTE   W06
 BYTE   N06
 BYTE   W06
 BYTE   N06
 BYTE   W06
 BYTE   N12  An1
 BYTE   W12
// 026   ----------------------------------------
 BYTE   PATT
  POIN2 Label_7_014B0A48
// 027   ----------------------------------------
 BYTE   PATT
  POIN2 Label_7_014B0A66
// 028   ----------------------------------------
 BYTE   PATT
  POIN2 Label_7_014B0A85
// 029   ----------------------------------------
 BYTE   N12  Dn1  v080
 BYTE   W12
 BYTE   Dn2
 BYTE   W12
 BYTE   N06  Dn1
 BYTE   W06
 BYTE   N06
 BYTE   W06
 BYTE   N12  Dn2
 BYTE   W12
 BYTE   N06  Dn1
 BYTE   W06
 BYTE   N03  Dn2
 BYTE   W03
 BYTE   Cn2
 BYTE   W03
 BYTE   N12  Dn2
 BYTE   W12
 BYTE   N06  Dn1
 BYTE   W06
 BYTE   N06
 BYTE   W06
 BYTE   Dn2
 BYTE   W06
 BYTE   N06
 BYTE   W06
// 030   ----------------------------------------
 BYTE   N12  Ds1
 BYTE   W12
 BYTE   Ds2
 BYTE   W12
 BYTE   N06  Ds1
 BYTE   W06
 BYTE   N06
 BYTE   W06
 BYTE   N12  Ds2
 BYTE   W12
 BYTE   N06  Ds2  v096
 BYTE   W06
 BYTE   Dn2
 BYTE   W06
 BYTE   Cn2
 BYTE   W06
 BYTE   Gn1
 BYTE   W06
 BYTE   Ds1
 BYTE   W06
 BYTE   Dn1
 BYTE   W06
 BYTE   Cn1
 BYTE   W06
 BYTE   Gn0
 BYTE   W06
// 031   ----------------------------------------
 BYTE   N12  Fn0  v080
 BYTE   W12
 BYTE   Fn1
 BYTE   W12
 BYTE   N06  Fn0
 BYTE   W06
 BYTE   N06
 BYTE   W06
 BYTE   N12  Fn1
 BYTE   W12
 BYTE   Fn0
 BYTE   W12
 BYTE   Cn1
 BYTE   W12
 BYTE   N06  Fn0
 BYTE   W06
 BYTE   N06
 BYTE   W06
 BYTE   N12  Fn1
 BYTE   W12
// 032   ----------------------------------------
 BYTE   Fn0
 BYTE   W12
 BYTE   Fn1
 BYTE   W12
 BYTE   N06  Fn0
 BYTE   W06
 BYTE   N06
 BYTE   W06
 BYTE   Fn1
 BYTE   W06
 BYTE   Fn0  v096
 BYTE   W06
 BYTE   N12
 BYTE   W12
 BYTE   Fn1
 BYTE   W12
 BYTE   N06  Fn0
 BYTE   W06
 BYTE   N06
 BYTE   W06
 BYTE   N06
 BYTE   W06
 BYTE   N06
 BYTE   W06
// 033   ----------------------------------------
Label_7_014B0B44:
 BYTE   N12  An1  v096
 BYTE   W12
 BYTE   N12
 BYTE   W12
 BYTE   N12
 BYTE   W12
 BYTE   N12
 BYTE   W12
 BYTE   N12
 BYTE   W12
 BYTE   N12
 BYTE   W12
 BYTE   N12
 BYTE   W12
 BYTE   N12
 BYTE   W12
 BYTE   PEND 
// 034   ----------------------------------------
 BYTE   PATT
  POIN2 Label_7_014B0B44
// 035   ----------------------------------------
 BYTE   PATT
  POIN2 Label_7_014B0B44
// 036   ----------------------------------------
 BYTE   PATT
  POIN2 Label_7_014B0B44
// 037   ----------------------------------------
 BYTE   PATT
  POIN2 Label_7_014B0B44
// 038   ----------------------------------------
 BYTE   PATT
  POIN2 Label_7_014B0B44
// 039   ----------------------------------------
 BYTE   PATT
  POIN2 Label_7_014B0B44
// 040   ----------------------------------------
 BYTE   PATT
  POIN2 Label_7_014B0B44
// 041   ----------------------------------------
 BYTE   W96
// 042   ----------------------------------------
 BYTE   W96
// 043   ----------------------------------------
 BYTE   W96
// 044   ----------------------------------------
 BYTE   W96
// 045   ----------------------------------------
 BYTE   N12  Fn0  v080
 BYTE   W12
 BYTE   Fn1
 BYTE   W12
 BYTE   N06  Fn0
 BYTE   W06
 BYTE   N06
 BYTE   W06
 BYTE   Fn1
 BYTE   W06
 BYTE   Fn0
 BYTE   W06
 BYTE   N12
 BYTE   W12
 BYTE   Fn1
 BYTE   W12
 BYTE   N06  Fn0
 BYTE   W06
 BYTE   N06
 BYTE   W06
 BYTE   Fn1
 BYTE   W06
 BYTE   Fn0
 BYTE   W06
// 046   ----------------------------------------
 BYTE   N12
 BYTE   W12
 BYTE   N06
 BYTE   W06
 BYTE   N12  Fn1
 BYTE   W12
 BYTE   N06  Fn0
 BYTE   W06
 BYTE   N12
 BYTE   W12
 BYTE   N06
 BYTE   W06
 BYTE   N12  Fn1
 BYTE   W12
 BYTE   N06  Fn0
 BYTE   W06
 BYTE   N06
 BYTE   W06
 BYTE   N06
 BYTE   W06
 BYTE   N12  Fn1
 BYTE   W12
// 047   ----------------------------------------
 BYTE   Fn0
 BYTE   W12
 BYTE   N06
 BYTE   W06
 BYTE   N12  Fn1
 BYTE   W12
 BYTE   N06  Fn0
 BYTE   W06
 BYTE   N12
 BYTE   W12
 BYTE   N06
 BYTE   W06
 BYTE   N12  Fn1
 BYTE   W12
 BYTE   N06  Fn0
 BYTE   W06
 BYTE   N06
 BYTE   W06
 BYTE   N06
 BYTE   W06
 BYTE   Fn1
 BYTE   W06
 BYTE   Fn0  v096
 BYTE   W06
// 048   ----------------------------------------
 BYTE   PATT
  POIN2 Label_7_014B0A85
// 049   ----------------------------------------
Label_7_014B0BD7:
 BYTE   N12  An0  v096
 BYTE   W12
 BYTE   An1
 BYTE   W12
 BYTE   N06  An0
 BYTE   W06
 BYTE   N03  An1
 BYTE   W03
 BYTE   An0  v080
 BYTE   W03
 BYTE   N12  An1  v096
 BYTE   W12
 BYTE   An0
 BYTE   W12
 BYTE   An1
 BYTE   W12
 BYTE   N06  An0
 BYTE   W06
 BYTE   N06
 BYTE   W06
 BYTE   An1
 BYTE   W06
 BYTE   An0
 BYTE   W06
 BYTE   PEND 
// 050   ----------------------------------------
Label_7_014B0BF8:
 BYTE   N12  An0  v096
 BYTE   W12
 BYTE   An1
 BYTE   W12
 BYTE   N06  An0
 BYTE   W06
 BYTE   N12  An1
 BYTE   W12
 BYTE   An0
 BYTE   W12
 BYTE   N06
 BYTE   W06
 BYTE   N12  An1
 BYTE   W12
 BYTE   N06  An0
 BYTE   W06
 BYTE   N06
 BYTE   W06
 BYTE   N12  An1
 BYTE   W12
 BYTE   PEND 
// 051   ----------------------------------------
Label_7_014B0C14:
 BYTE   N12  An0  v096
 BYTE   W12
 BYTE   An1
 BYTE   W12
 BYTE   N06  An0
 BYTE   W06
 BYTE   An1
 BYTE   W06
 BYTE   An0
 BYTE   W06
 BYTE   An1
 BYTE   W06
 BYTE   N12  Dn0
 BYTE   W12
 BYTE   Dn1
 BYTE   W12
 BYTE   N06  Dn0
 BYTE   W06
 BYTE   Dn1
 BYTE   W06
 BYTE   Dn0
 BYTE   W06
 BYTE   Dn1
 BYTE   W06
 BYTE   PEND 
// 052   ----------------------------------------
Label_7_014B0C32:
 BYTE   N12  An0  v096
 BYTE   W12
 BYTE   An1
 BYTE   W12
 BYTE   N06  An0
 BYTE   W06
 BYTE   An1
 BYTE   W06
 BYTE   An0
 BYTE   W06
 BYTE   An1
 BYTE   W06
 BYTE   N12  An0
 BYTE   W12
 BYTE   An1
 BYTE   W12
 BYTE   N06  An0
 BYTE   W06
 BYTE   An1
 BYTE   W06
 BYTE   An0
 BYTE   W06
 BYTE   An1
 BYTE   W06
 BYTE   PEND 
// 053   ----------------------------------------
 BYTE   PATT
  POIN2 Label_7_014B0BD7
// 054   ----------------------------------------
 BYTE   PATT
  POIN2 Label_7_014B0BF8
// 055   ----------------------------------------
 BYTE   PATT
  POIN2 Label_7_014B0C14
// 056   ----------------------------------------
 BYTE   PATT
  POIN2 Label_7_014B0C32
// 057   ----------------------------------------
 BYTE   PATT
  POIN2 Label_7_014B09EA
// 058   ----------------------------------------
 BYTE   PATT
  POIN2 Label_7_014B09EA
// 059   ----------------------------------------
 BYTE   PATT
  POIN2 Label_7_014B09EA
// 060   ----------------------------------------
 BYTE   PATT
  POIN2 Label_7_014B09EA
// 061   ----------------------------------------
 BYTE   PATT
  POIN2 Label_7_014B09EA
// 062   ----------------------------------------
 BYTE   PATT
  POIN2 Label_7_014B09EA
// 063   ----------------------------------------
 BYTE   PATT
  POIN2 Label_7_014B09EA
// 064   ----------------------------------------
 BYTE   PATT
  POIN2 Label_7_014B09EA
// 065   ----------------------------------------
 BYTE   GoTo
  POIN2 Label_7_014B0927
// 066   ----------------------------------------
 BYTE   BEND   c_v+0
 BYTE   FINE

//**************** Track 9 (Midi-Chn.8) ****************//

songC5_009:
// 000   ----------------------------------------
 BYTE   KEYSH   songC5_key+0
 BYTE   VOICE   30
 BYTE   MOD 4
 BYTE   VOL   26*songC5_mvl/mxv
 BYTE   PAN   c_v-16
 BYTE   W96
// 001   ----------------------------------------
Label_8_014B2EB7:
 BYTE   W96
// 002   ----------------------------------------
 BYTE   W96
// 003   ----------------------------------------
 BYTE   W96
// 004   ----------------------------------------
 BYTE   W96
// 005   ----------------------------------------
 BYTE   N96  An2  v064
 BYTE   N96  Dn3
 BYTE   W96
// 006   ----------------------------------------
 BYTE   An1
 BYTE   N96  Dn2
 BYTE   W96
// 007   ----------------------------------------
 BYTE   An2
 BYTE   N96  Dn3
 BYTE   W96
// 008   ----------------------------------------
 BYTE   An1
 BYTE   N96  Dn2
 BYTE   W96
// 009   ----------------------------------------
 BYTE   An2
 BYTE   N96  Dn3
 BYTE   W96
// 010   ----------------------------------------
 BYTE   An1
 BYTE   N96  Dn2
 BYTE   W96
// 011   ----------------------------------------
 BYTE   An2
 BYTE   N96  Dn3
 BYTE   W96
// 012   ----------------------------------------
 BYTE   An1
 BYTE   N96  Dn2
 BYTE   W96
// 013   ----------------------------------------
 BYTE   VOL   22*songC5_mvl/mxv
 BYTE   N09  En2  v048
 BYTE   W12
 BYTE   N04  En2  v080
 BYTE   W06
 BYTE   N09  Dn2  v096
 BYTE   W12
 BYTE   N04  Dn2  v048
 BYTE   W06
 BYTE   N09  Fn2  v096
 BYTE   W12
 BYTE   N04  Fn2  v080
 BYTE   W06
 BYTE   N09  En2  v096
 BYTE   W12
 BYTE   N04  En2  v080
 BYTE   W06
 BYTE   Dn2  v096
 BYTE   W06
 BYTE   Dn2  v080
 BYTE   W06
 BYTE   En2  v096
 BYTE   W06
 BYTE   N06
 BYTE   W06
// 014   ----------------------------------------
Label_8_014B2F0A:
 BYTE   N09  En2  v112
 BYTE   W12
 BYTE   N04  En2  v080
 BYTE   W06
 BYTE   N09  Dn2  v096
 BYTE   W12
 BYTE   N04  Dn2  v080
 BYTE   W06
 BYTE   N09  Fn2  v048
 BYTE   W12
 BYTE   N04  Fn2  v064
 BYTE   W06
 BYTE   N09  En2  v048
 BYTE   W12
 BYTE   N04  En2  v032
 BYTE   W06
 BYTE   Dn2
 BYTE   W06
 BYTE   N04
 BYTE   W06
 BYTE   En2
 BYTE   W06
 BYTE   N06
 BYTE   W06
 BYTE   PEND 
// 015   ----------------------------------------
 BYTE   N09  En2  v096
 BYTE   W12
 BYTE   N04  En2  v080
 BYTE   W06
 BYTE   N09  Dn2  v096
 BYTE   W12
 BYTE   N04  Dn2  v080
 BYTE   W06
 BYTE   N09  Fn2  v096
 BYTE   W12
 BYTE   N04  Fn2  v080
 BYTE   W06
 BYTE   N09  En2  v096
 BYTE   W12
 BYTE   N04  En2  v080
 BYTE   W06
 BYTE   Dn2  v096
 BYTE   W06
 BYTE   Dn2  v080
 BYTE   W06
 BYTE   En2  v096
 BYTE   W06
 BYTE   N06
 BYTE   W06
// 016   ----------------------------------------
 BYTE   PATT
  POIN2 Label_8_014B2F0A
// 017   ----------------------------------------
 BYTE   VOL   26*songC5_mvl/mxv
 BYTE   N96  An2  v064
 BYTE   N96  Dn3
 BYTE   W96
// 018   ----------------------------------------
 BYTE   An1
 BYTE   N96  Dn2
 BYTE   W96
// 019   ----------------------------------------
 BYTE   An2
 BYTE   N96  Dn3
 BYTE   W96
// 020   ----------------------------------------
 BYTE   An1
 BYTE   N96  Dn2
 BYTE   W96
// 021   ----------------------------------------
 BYTE   VOL   24*songC5_mvl/mxv
 BYTE   N09  An2
 BYTE   W12
 BYTE   N03
 BYTE   W06
 BYTE   N09  An2  v080
 BYTE   W12
 BYTE   N03
 BYTE   W06
 BYTE   N12
 BYTE   W12
 BYTE   N06  An2  v064
 BYTE   W06
 BYTE   N12  An2  v080
 BYTE   W18
 BYTE   N09
 BYTE   W12
 BYTE   N09
 BYTE   W12
// 022   ----------------------------------------
Label_8_014B2F92:
 BYTE   N09  Gn2  v064
 BYTE   W12
 BYTE   N03
 BYTE   W06
 BYTE   N09  Gn2  v080
 BYTE   W12
 BYTE   N03
 BYTE   W06
 BYTE   N12
 BYTE   W12
 BYTE   N06  Gn2  v064
 BYTE   W06
 BYTE   N12  Gn2  v096
 BYTE   W12
 BYTE   N06  Gn2  v080
 BYTE   W06
 BYTE   N04  Gn2  v096
 BYTE   W06
 BYTE   Gn2  v080
 BYTE   W06
 BYTE   Gn2  v096
 BYTE   W06
 BYTE   Gn2  v080
 BYTE   W06
 BYTE   PEND 
// 023   ----------------------------------------
Label_8_014B2FBA:
 BYTE   N09  Fn2  v096
 BYTE   W12
 BYTE   N03  Fn2  v064
 BYTE   W06
 BYTE   N09  Fn2  v080
 BYTE   W12
 BYTE   N03
 BYTE   W06
 BYTE   N09
 BYTE   W12
 BYTE   N04  Fn2  v064
 BYTE   W06
 BYTE   N09  Fn2  v048
 BYTE   W18
 BYTE   N04  Fn2  v080
 BYTE   W06
 BYTE   Fn2  v064
 BYTE   W06
 BYTE   Fn2  v096
 BYTE   W06
 BYTE   Fn2  v080
 BYTE   W06
 BYTE   PEND 
// 024   ----------------------------------------
Label_8_014B2FE0:
 BYTE   W18
 BYTE   N03  Gn2  v064
 BYTE   W06
 BYTE   N09  Gn2  v080
 BYTE   W12
 BYTE   N03  Gn2  v064
 BYTE   W06
 BYTE   N04
 BYTE   W06
 BYTE   N09  Gn2  v080
 BYTE   W12
 BYTE   N03  Gn2  v064
 BYTE   W06
 BYTE   N09  Gn2  v080
 BYTE   W12
 BYTE   N04  Gn2  v064
 BYTE   W06
 BYTE   Gn2  v080
 BYTE   W06
 BYTE   Gn2  v096
 BYTE   W06
 BYTE   PEND 
// 025   ----------------------------------------
 BYTE   N09  An2  v064
 BYTE   W12
 BYTE   N03
 BYTE   W06
 BYTE   N09  An2  v080
 BYTE   W12
 BYTE   N03
 BYTE   W06
 BYTE   N12
 BYTE   W12
 BYTE   N06  An2  v064
 BYTE   W06
 BYTE   N12  An2  v080
 BYTE   W18
 BYTE   N09
 BYTE   W12
 BYTE   N09
 BYTE   W12
// 026   ----------------------------------------
 BYTE   PATT
  POIN2 Label_8_014B2F92
// 027   ----------------------------------------
 BYTE   PATT
  POIN2 Label_8_014B2FBA
// 028   ----------------------------------------
 BYTE   PATT
  POIN2 Label_8_014B2FE0
// 029   ----------------------------------------
 BYTE   N12  An2  v080
 BYTE   W12
 BYTE   N12
 BYTE   W12
 BYTE   N06
 BYTE   W06
 BYTE   N06
 BYTE   W06
 BYTE   N12
 BYTE   W12
 BYTE   An2  v064
 BYTE   W12
 BYTE   An2  v080
 BYTE   W12
 BYTE   N06
 BYTE   W06
 BYTE   N06
 BYTE   W06
 BYTE   N12
 BYTE   W12
// 030   ----------------------------------------
 BYTE   Gn2
 BYTE   W12
 BYTE   N12
 BYTE   W12
 BYTE   N06
 BYTE   W06
 BYTE   N06
 BYTE   W06
 BYTE   N12
 BYTE   W12
 BYTE   N12
 BYTE   W12
 BYTE   N12
 BYTE   W12
 BYTE   N06
 BYTE   W06
 BYTE   N06
 BYTE   W06
 BYTE   N12
 BYTE   W12
// 031   ----------------------------------------
 BYTE   N09  Fn2
 BYTE   W12
 BYTE   N03
 BYTE   W06
 BYTE   N09
 BYTE   W12
 BYTE   N03
 BYTE   W06
 BYTE   N12
 BYTE   W12
 BYTE   N12
 BYTE   W12
 BYTE   N01
 BYTE   W06
 BYTE   N04
 BYTE   W06
 BYTE   N04
 BYTE   W06
 BYTE   N04
 BYTE   W06
 BYTE   N12
 BYTE   W12
// 032   ----------------------------------------
 BYTE   N09
 BYTE   W12
 BYTE   N03
 BYTE   W06
 BYTE   N09
 BYTE   W12
 BYTE   N03
 BYTE   W06
 BYTE   N06
 BYTE   W06
 BYTE   N06
 BYTE   W06
 BYTE   N12
 BYTE   W12
 BYTE   N03  Fn2  v064
 BYTE   W06
 BYTE   N09
 BYTE   W12
 BYTE   N03  Fn2  v048
 BYTE   W06
 BYTE   N09
 BYTE   W12
// 033   ----------------------------------------
Label_8_014B308C:
 BYTE   N19  En2  v080
 BYTE   W24
 BYTE   N24
 BYTE   W24
 BYTE   N24
 BYTE   W24
 BYTE   N19
 BYTE   W24
 BYTE   PEND 
// 034   ----------------------------------------
Label_8_014B3097:
 BYTE   N24  En2  v080
 BYTE   W24
 BYTE   N24
 BYTE   W24
 BYTE   N09
 BYTE   W24
 BYTE   N09
 BYTE   W24
 BYTE   PEND 
// 035   ----------------------------------------
 BYTE   PATT
  POIN2 Label_8_014B308C
// 036   ----------------------------------------
 BYTE   PATT
  POIN2 Label_8_014B3097
// 037   ----------------------------------------
 BYTE   PATT
  POIN2 Label_8_014B308C
// 038   ----------------------------------------
 BYTE   PATT
  POIN2 Label_8_014B3097
// 039   ----------------------------------------
 BYTE   PATT
  POIN2 Label_8_014B308C
// 040   ----------------------------------------
 BYTE   PATT
  POIN2 Label_8_014B3097
// 041   ----------------------------------------
 BYTE   W96
// 042   ----------------------------------------
 BYTE   W96
// 043   ----------------------------------------
 BYTE   W96
// 044   ----------------------------------------
 BYTE   W96
// 045   ----------------------------------------
 BYTE   W96
// 046   ----------------------------------------
 BYTE   W96
// 047   ----------------------------------------
 BYTE   W96
// 048   ----------------------------------------
 BYTE   W96
// 049   ----------------------------------------
Label_8_014B30C8:
 BYTE   N48  En2  v096
 BYTE   W48
 BYTE   N48
 BYTE   W48
 BYTE   PEND 
// 050   ----------------------------------------
Label_8_014B30CF:
 BYTE   N48  En2  v080
 BYTE   W48
 BYTE   N48
 BYTE   W48
 BYTE   PEND 
// 051   ----------------------------------------
 BYTE   N09
 BYTE   W12
 BYTE   N06
 BYTE   W06
 BYTE   N09
 BYTE   W12
 BYTE   N06
 BYTE   W06
 BYTE   N12
 BYTE   W12
 BYTE   N09  Dn2
 BYTE   W12
 BYTE   N06
 BYTE   W06
 BYTE   N09
 BYTE   W12
 BYTE   N06
 BYTE   W06
 BYTE   N12
 BYTE   W12
// 052   ----------------------------------------
 BYTE   N48  En2
 BYTE   W48
 BYTE   N09
 BYTE   W12
 BYTE   N01
 BYTE   W24
 BYTE   N12
 BYTE   W12
// 053   ----------------------------------------
 BYTE   PATT
  POIN2 Label_8_014B30C8
// 054   ----------------------------------------
 BYTE   PATT
  POIN2 Label_8_014B30CF
// 055   ----------------------------------------
 BYTE   N09  En2  v080
 BYTE   W12
 BYTE   N06
 BYTE   W06
 BYTE   N09
 BYTE   W12
 BYTE   N06
 BYTE   W06
 BYTE   N12
 BYTE   W12
 BYTE   N09  An2
 BYTE   W12
 BYTE   N06
 BYTE   W06
 BYTE   N09
 BYTE   W12
 BYTE   N06
 BYTE   W06
 BYTE   N12
 BYTE   W12
// 056   ----------------------------------------
 BYTE   N48  En2
 BYTE   W48
 BYTE   N09
 BYTE   W12
 BYTE   N01
 BYTE   W24
 BYTE   N12  An1
 BYTE   N12  En2
 BYTE   W12
// 057   ----------------------------------------
Label_8_014B3121:
 BYTE   N09  Bn1  v048
 BYTE   N09  En2
 BYTE   W12
 BYTE   N04  Bn1  v080
 BYTE   N04  En2
 BYTE   W06
 BYTE   N09  An1  v096
 BYTE   N09  Dn2
 BYTE   W12
 BYTE   N04  An1  v048
 BYTE   N04  Dn2
 BYTE   W06
 BYTE   N09  Cn2  v096
 BYTE   N09  Fn2
 BYTE   W12
 BYTE   N04  Cn2  v080
 BYTE   N04  Fn2
 BYTE   W06
 BYTE   N09  Bn1  v096
 BYTE   N09  En2
 BYTE   W12
 BYTE   N04  Bn1  v080
 BYTE   N04  En2
 BYTE   W06
 BYTE   An1  v096
 BYTE   N04  Dn2
 BYTE   W06
 BYTE   An1  v080
 BYTE   N04  Dn2
 BYTE   W06
 BYTE   Bn1  v096
 BYTE   N04  En2
 BYTE   W06
 BYTE   N06  Bn1
 BYTE   N06  En2
 BYTE   W06
 BYTE   PEND 
// 058   ----------------------------------------
Label_8_014B3166:
 BYTE   N09  Bn1  v112
 BYTE   N09  En2
 BYTE   W12
 BYTE   N04  Bn1  v080
 BYTE   N04  En2
 BYTE   W06
 BYTE   N09  An1  v096
 BYTE   N09  Dn2
 BYTE   W12
 BYTE   N04  An1  v080
 BYTE   N04  Dn2
 BYTE   W06
 BYTE   N09  Cn2  v048
 BYTE   N09  Fn2
 BYTE   W12
 BYTE   N04  Cn2  v064
 BYTE   N04  Fn2
 BYTE   W06
 BYTE   N09  Bn1  v048
 BYTE   N09  En2
 BYTE   W12
 BYTE   N04  Bn1  v032
 BYTE   N04  En2
 BYTE   W06
 BYTE   An1
 BYTE   N04  Dn2
 BYTE   W06
 BYTE   An1
 BYTE   N04  Dn2
 BYTE   W06
 BYTE   Bn1
 BYTE   N04  En2
 BYTE   W06
 BYTE   N06  Bn1
 BYTE   N06  En2
 BYTE   W06
 BYTE   PEND 
// 059   ----------------------------------------
Label_8_014B31A8:
 BYTE   N09  Bn1  v096
 BYTE   N09  En2
 BYTE   W12
 BYTE   N04  Bn1  v080
 BYTE   N04  En2
 BYTE   W06
 BYTE   N09  An1  v096
 BYTE   N09  Dn2
 BYTE   W12
 BYTE   N04  An1  v080
 BYTE   N04  Dn2
 BYTE   W06
 BYTE   N09  Cn2  v096
 BYTE   N09  Fn2
 BYTE   W12
 BYTE   N04  Cn2  v080
 BYTE   N04  Fn2
 BYTE   W06
 BYTE   N09  Bn1  v096
 BYTE   N09  En2
 BYTE   W12
 BYTE   N04  Bn1  v080
 BYTE   N04  En2
 BYTE   W06
 BYTE   An1  v096
 BYTE   N04  Dn2
 BYTE   W06
 BYTE   An1  v080
 BYTE   N04  Dn2
 BYTE   W06
 BYTE   Bn1  v096
 BYTE   N04  En2
 BYTE   W06
 BYTE   N06  Bn1  v016
 BYTE   N06  En2  v096
 BYTE   W06
 BYTE   PEND 
// 060   ----------------------------------------
 BYTE   PATT
  POIN2 Label_8_014B3166
// 061   ----------------------------------------
 BYTE   PATT
  POIN2 Label_8_014B3121
// 062   ----------------------------------------
 BYTE   PATT
  POIN2 Label_8_014B3166
// 063   ----------------------------------------
 BYTE   PATT
  POIN2 Label_8_014B31A8
// 064   ----------------------------------------
 BYTE   N09  Bn1  v112
 BYTE   N09  En2
 BYTE   W12
 BYTE   N04  Bn1  v080
 BYTE   N04  En2
 BYTE   W06
 BYTE   N09  An1  v096
 BYTE   N09  Dn2
 BYTE   W12
 BYTE   N04  An1  v080
 BYTE   N04  Dn2
 BYTE   W06
 BYTE   N09  Cn2  v048
 BYTE   N09  Fn2
 BYTE   W12
 BYTE   N04  Cn2  v064
 BYTE   N04  Fn2
 BYTE   W06
 BYTE   N09  Bn1  v048
 BYTE   N09  En2
 BYTE   W12
 BYTE   N04  Bn1  v032
 BYTE   N04  En2
 BYTE   W06
 BYTE   An1
 BYTE   N04  Dn2
 BYTE   W06
 BYTE   An1
 BYTE   N04  Dn2
 BYTE   W06
 BYTE   Bn1
 BYTE   N04  En2
 BYTE   W06
 BYTE   Bn1
 BYTE   N04  En2
 BYTE   W04
 BYTE   VOL   26*songC5_mvl/mxv
 BYTE   W02
// 065   ----------------------------------------
 BYTE   GoTo
  POIN2 Label_8_014B2EB7
 BYTE   FINE

//**************** Track 10 (Midi-Chn.9) ****************//

songC5_010:
// 000   ----------------------------------------
 BYTE   KEYSH   songC5_key+0
 BYTE   VOICE   119
 BYTE   VOL   26*songC5_mvl/mxv
 BYTE   PAN   c_v+0
 BYTE   BEND   c_v+0
 BYTE   W96
// 001   ----------------------------------------
Label_9_014AE8C3:
 BYTE   W96
// 002   ----------------------------------------
 BYTE   W96
// 003   ----------------------------------------
 BYTE   W96
// 004   ----------------------------------------
 BYTE   W96
// 005   ----------------------------------------
 BYTE   W96
// 006   ----------------------------------------
 BYTE   W96
// 007   ----------------------------------------
 BYTE   W96
// 008   ----------------------------------------
 BYTE   W96
// 009   ----------------------------------------
 BYTE   W96
// 010   ----------------------------------------
 BYTE   W96
// 011   ----------------------------------------
 BYTE   W96
// 012   ----------------------------------------
 BYTE   W96
// 013   ----------------------------------------
 BYTE   W96
// 014   ----------------------------------------
 BYTE   W96
// 015   ----------------------------------------
 BYTE   W96
// 016   ----------------------------------------
 BYTE   W48
 BYTE   N48  Cn2  v096
 BYTE   W48
// 017   ----------------------------------------
 BYTE   W96
// 018   ----------------------------------------
 BYTE   W96
// 019   ----------------------------------------
 BYTE   W96
// 020   ----------------------------------------
 BYTE   W96
// 021   ----------------------------------------
 BYTE   W96
// 022   ----------------------------------------
 BYTE   W96
// 023   ----------------------------------------
 BYTE   W96
// 024   ----------------------------------------
 BYTE   W96
// 025   ----------------------------------------
 BYTE   W96
// 026   ----------------------------------------
 BYTE   W96
// 027   ----------------------------------------
 BYTE   W96
// 028   ----------------------------------------
 BYTE   W96
// 029   ----------------------------------------
 BYTE   W96
// 030   ----------------------------------------
 BYTE   W96
// 031   ----------------------------------------
 BYTE   W96
// 032   ----------------------------------------
 BYTE   W96
// 033   ----------------------------------------
 BYTE   W96
// 034   ----------------------------------------
 BYTE   W96
// 035   ----------------------------------------
 BYTE   W96
// 036   ----------------------------------------
 BYTE   W96
// 037   ----------------------------------------
 BYTE   W96
// 038   ----------------------------------------
 BYTE   W96
// 039   ----------------------------------------
 BYTE   W96
// 040   ----------------------------------------
 BYTE   W96
// 041   ----------------------------------------
 BYTE   W96
// 042   ----------------------------------------
 BYTE   W96
// 043   ----------------------------------------
 BYTE   W96
// 044   ----------------------------------------
 BYTE   W96
// 045   ----------------------------------------
 BYTE   W96
// 046   ----------------------------------------
 BYTE   W96
// 047   ----------------------------------------
 BYTE   W96
// 048   ----------------------------------------
 BYTE   W96
// 049   ----------------------------------------
 BYTE   W96
// 050   ----------------------------------------
 BYTE   W96
// 051   ----------------------------------------
 BYTE   W96
// 052   ----------------------------------------
 BYTE   W96
// 053   ----------------------------------------
 BYTE   W96
// 054   ----------------------------------------
 BYTE   W96
// 055   ----------------------------------------
 BYTE   W96
// 056   ----------------------------------------
 BYTE   W96
// 057   ----------------------------------------
 BYTE   W96
// 058   ----------------------------------------
 BYTE   W96
// 059   ----------------------------------------
 BYTE   W96
// 060   ----------------------------------------
 BYTE   W48
 BYTE   N48
 BYTE   W48
// 061   ----------------------------------------
 BYTE   W96
// 062   ----------------------------------------
 BYTE   W96
// 063   ----------------------------------------
 BYTE   W96
// 064   ----------------------------------------
 BYTE   W96
// 065   ----------------------------------------
 BYTE   GoTo
  POIN2 Label_9_014AE8C3
 BYTE   FINE

//******************************************************//
	ALIGN 4

songC5:
	BYTE	10	// NumTrks
	BYTE	0	// NumBlks
	BYTE	songC5_pri	// Priority
	BYTE	songC5_rev	// Reverb.
    
	POIN2	songC5_grp
    
	POIN2	songC5_001
	POIN2	songC5_002
	POIN2	songC5_003
	POIN2	songC5_004
	POIN2	songC5_005
	POIN2	songC5_006
	POIN2	songC5_007
	POIN2	songC5_008
	POIN2	songC5_009
	POIN2	songC5_010

	
