	.include "MPlayDef.s"

	.equ	songC5_grp, voicegroup000
	.equ	songC5_pri, 0
	.equ	songC5_rev, 0
	.equ	songC5_mvl, 127
	.equ	songC5_key, 0
	.equ	songC5_tbs, 1
	.equ	songC5_exg, 0
	.equ	songC5_cmp, 1

	.section .rodata
	.global	songC5
	.align	2


@**************** Track 1 (Midi-Chn.0) ****************@

songC5_001:
@ 000   ----------------------------------------
 .byte   KEYSH , songC5_key+0
 .byte   TEMPO , 130*songC5_tbs/2
 .byte   VOICE , 47
 .byte   VOL , 26*songC5_mvl/mxv
 .byte   PAN , c_v+0
 .byte   BEND , c_v+0
 .byte   W48
 .byte   N30 ,Gn1 ,v112
 .byte   W30
 .byte   N01 ,Gn1 ,v048
 .byte   W03
 .byte   Gn1 ,v064
 .byte   W03
 .byte   Gn1 ,v080
 .byte   W03
 .byte   Gn1 ,v096
 .byte   W03
 .byte   Gn1 ,v112
 .byte   W03
 .byte   Gn1 ,v127
 .byte   W03
@ 001   ----------------------------------------
Label_0_014AE870:
 .byte   W96
@ 002   ----------------------------------------
 .byte   W96
@ 003   ----------------------------------------
 .byte   W96
@ 004   ----------------------------------------
 .byte   W96
@ 005   ----------------------------------------
 .byte   W96
@ 006   ----------------------------------------
 .byte   W96
@ 007   ----------------------------------------
 .byte   W96
@ 008   ----------------------------------------
 .byte   W96
@ 009   ----------------------------------------
 .byte   W96
@ 010   ----------------------------------------
 .byte   W96
@ 011   ----------------------------------------
 .byte   W96
@ 012   ----------------------------------------
 .byte   W96
@ 013   ----------------------------------------
 .byte   W96
@ 014   ----------------------------------------
 .byte   W96
@ 015   ----------------------------------------
 .byte   W96
@ 016   ----------------------------------------
 .byte   W96
@ 017   ----------------------------------------
 .byte   W96
@ 018   ----------------------------------------
 .byte   W96
@ 019   ----------------------------------------
 .byte   W96
@ 020   ----------------------------------------
 .byte   W96
@ 021   ----------------------------------------
 .byte   W96
@ 022   ----------------------------------------
 .byte   W96
@ 023   ----------------------------------------
 .byte   W96
@ 024   ----------------------------------------
 .byte   W96
@ 025   ----------------------------------------
 .byte   W96
@ 026   ----------------------------------------
 .byte   W96
@ 027   ----------------------------------------
 .byte   W96
@ 028   ----------------------------------------
 .byte   W96
@ 029   ----------------------------------------
 .byte   W96
@ 030   ----------------------------------------
 .byte   W96
@ 031   ----------------------------------------
 .byte   W96
@ 032   ----------------------------------------
 .byte   W96
@ 033   ----------------------------------------
 .byte   W96
@ 034   ----------------------------------------
 .byte   W96
@ 035   ----------------------------------------
 .byte   W96
@ 036   ----------------------------------------
 .byte   W96
@ 037   ----------------------------------------
 .byte   W96
@ 038   ----------------------------------------
 .byte   W96
@ 039   ----------------------------------------
 .byte   W96
@ 040   ----------------------------------------
 .byte   W96
@ 041   ----------------------------------------
 .byte   W96
@ 042   ----------------------------------------
 .byte   W96
@ 043   ----------------------------------------
 .byte   W96
@ 044   ----------------------------------------
 .byte   W96
@ 045   ----------------------------------------
 .byte   W96
@ 046   ----------------------------------------
 .byte   W96
@ 047   ----------------------------------------
 .byte   W96
@ 048   ----------------------------------------
 .byte   W96
@ 049   ----------------------------------------
 .byte   W96
@ 050   ----------------------------------------
 .byte   W96
@ 051   ----------------------------------------
 .byte   W96
@ 052   ----------------------------------------
 .byte   W96
@ 053   ----------------------------------------
 .byte   W96
@ 054   ----------------------------------------
 .byte   W96
@ 055   ----------------------------------------
 .byte   W96
@ 056   ----------------------------------------
 .byte   W96
@ 057   ----------------------------------------
 .byte   W96
@ 058   ----------------------------------------
 .byte   W96
@ 059   ----------------------------------------
 .byte   W96
@ 060   ----------------------------------------
 .byte   W96
@ 061   ----------------------------------------
 .byte   W96
@ 062   ----------------------------------------
 .byte   W96
@ 063   ----------------------------------------
 .byte   W96
@ 064   ----------------------------------------
 .byte   W96
@ 065   ----------------------------------------
 .byte   GOTO
  .word Label_0_014AE870
 .byte   FINE

@**************** Track 2 (Midi-Chn.1) ****************@

songC5_002:
@ 000   ----------------------------------------
 .byte   KEYSH , songC5_key+0
 .byte   VOICE , 106
 .byte   VOL , 27*songC5_mvl/mxv
 .byte   PAN , c_v+0
 .byte   BEND , c_v+0
 .byte   W96
@ 001   ----------------------------------------
Label_1_014AE427:
 .byte   N18 ,As3 ,v048
 .byte   N18 ,As4
 .byte   W18
 .byte   An3
 .byte   N18 ,An4
 .byte   W18
 .byte   N12 ,As3
 .byte   N12 ,As4
 .byte   W12
 .byte   N18 ,Cn4 ,v064
 .byte   N18 ,Cn5
 .byte   W18
 .byte   As3
 .byte   N18 ,As4
 .byte   W18
 .byte   N12 ,Cn4
 .byte   N12 ,Cn5
 .byte   W12
 .byte   PEND 
@ 002   ----------------------------------------
Label_1_014AE446:
 .byte   N48 ,Dn4 ,v080
 .byte   N48 ,Dn5
 .byte   W48
 .byte   En4 ,v096
 .byte   N48 ,En5
 .byte   W48
 .byte   PEND 
@ 003   ----------------------------------------
 .byte   PATT
  .word Label_1_014AE427
@ 004   ----------------------------------------
 .byte   PATT
  .word Label_1_014AE446
@ 005   ----------------------------------------
 .byte   W96
@ 006   ----------------------------------------
 .byte   W96
@ 007   ----------------------------------------
 .byte   W96
@ 008   ----------------------------------------
 .byte   W96
@ 009   ----------------------------------------
Label_1_014AE460:
 .byte   N18 ,Dn3 ,v096
 .byte   N18 ,Dn4
 .byte   W18
 .byte   N12 ,Fn3
 .byte   N12 ,Fn4
 .byte   W12
 .byte   N18 ,En3
 .byte   N18 ,En4
 .byte   W18
 .byte   Cn3
 .byte   N18 ,Cn4
 .byte   W18
 .byte   N30 ,Dn3
 .byte   N30 ,Dn4
 .byte   W30
 .byte   PEND 
@ 010   ----------------------------------------
 .byte   N48 ,An3
 .byte   N48 ,An4
 .byte   W48
 .byte   N24 ,Gn3
 .byte   N24 ,Gn4
 .byte   W24
 .byte   Fn3
 .byte   N24 ,Fn4
 .byte   W24
@ 011   ----------------------------------------
 .byte   PATT
  .word Label_1_014AE460
@ 012   ----------------------------------------
 .byte   N48 ,An3 ,v096
 .byte   N48 ,An4
 .byte   W48
 .byte   N24 ,As3
 .byte   N24 ,As4
 .byte   W24
 .byte   Dn3
 .byte   N24 ,Dn4
 .byte   W24
@ 013   ----------------------------------------
Label_1_014AE49C:
 .byte   N06 ,Bn1 ,v127
 .byte   N06 ,En2
 .byte   W18
 .byte   An1
 .byte   N06 ,Dn2
 .byte   W18
 .byte   Cn2
 .byte   N06 ,Fn2
 .byte   W18
 .byte   Bn1
 .byte   N06 ,En2
 .byte   W18
 .byte   N03 ,An1
 .byte   N03 ,Dn2
 .byte   W12
 .byte   N06 ,Bn1
 .byte   N06 ,En2
 .byte   W12
 .byte   PEND 
@ 014   ----------------------------------------
 .byte   PATT
  .word Label_1_014AE49C
@ 015   ----------------------------------------
 .byte   PATT
  .word Label_1_014AE49C
@ 016   ----------------------------------------
 .byte   PATT
  .word Label_1_014AE49C
@ 017   ----------------------------------------
Label_1_014AE4C8:
 .byte   N18 ,Dn4 ,v096
 .byte   W18
 .byte   N12 ,Fn4
 .byte   W12
 .byte   N18 ,En4
 .byte   W18
 .byte   Cn4
 .byte   W18
 .byte   N30 ,Dn4
 .byte   W30
 .byte   PEND 
@ 018   ----------------------------------------
 .byte   N48 ,An4
 .byte   W48
 .byte   N24 ,Gn4
 .byte   W24
 .byte   Fn4
 .byte   W24
@ 019   ----------------------------------------
 .byte   PATT
  .word Label_1_014AE4C8
@ 020   ----------------------------------------
 .byte   N48 ,An4 ,v096
 .byte   W48
 .byte   N24 ,As4
 .byte   W24
 .byte   Dn4
 .byte   W24
@ 021   ----------------------------------------
Label_1_014AE4EE:
 .byte   N72 ,Cn4 ,v080
 .byte   W72
 .byte   N24 ,Dn4
 .byte   W24
 .byte   PEND 
@ 022   ----------------------------------------
Label_1_014AE4F6:
 .byte   N72 ,Bn3 ,v080
 .byte   W72
 .byte   N12 ,Cn4
 .byte   W12
 .byte   Dn4 ,v096
 .byte   W12
 .byte   PEND 
@ 023   ----------------------------------------
Label_1_014AE501:
 .byte   N72 ,En4 ,v096
 .byte   W72
 .byte   N12 ,Dn4
 .byte   W12
 .byte   En4
 .byte   W12
 .byte   PEND 
@ 024   ----------------------------------------
Label_1_014AE50B:
 .byte   N48 ,Dn4 ,v080
 .byte   W48
 .byte   Gn4 ,v096
 .byte   W48
 .byte   PEND 
@ 025   ----------------------------------------
 .byte   PATT
  .word Label_1_014AE4EE
@ 026   ----------------------------------------
 .byte   PATT
  .word Label_1_014AE4F6
@ 027   ----------------------------------------
 .byte   PATT
  .word Label_1_014AE501
@ 028   ----------------------------------------
 .byte   PATT
  .word Label_1_014AE50B
@ 029   ----------------------------------------
 .byte   N48 ,Dn4 ,v096
 .byte   W48
 .byte   N24 ,En4
 .byte   W24
 .byte   Fn4
 .byte   W24
@ 030   ----------------------------------------
 .byte   N48 ,Gn4
 .byte   W48
 .byte   Cn5
 .byte   W48
@ 031   ----------------------------------------
 .byte   Fn5
 .byte   W48
 .byte   Ds5
 .byte   W48
@ 032   ----------------------------------------
 .byte   Cn5
 .byte   W48
 .byte   N48
 .byte   N48 ,Fn5
 .byte   W48
@ 033   ----------------------------------------
Label_1_014AE53F:
 .byte   N48 ,Cn5 ,v096
 .byte   W48
 .byte   N24 ,Bn4
 .byte   W24
 .byte   Dn5
 .byte   W24
 .byte   PEND 
@ 034   ----------------------------------------
Label_1_014AE549:
 .byte   N18 ,Cn5 ,v096
 .byte   W18
 .byte   Bn4
 .byte   W18
 .byte   N12 ,En5
 .byte   W12
 .byte   N18 ,Dn5
 .byte   W18
 .byte   Cn5
 .byte   W18
 .byte   N12 ,Bn4
 .byte   W12
 .byte   PEND 
@ 035   ----------------------------------------
Label_1_014AE55B:
 .byte   N48 ,An4 ,v096
 .byte   W48
 .byte   Gs4
 .byte   N48 ,Bn4 ,v064
 .byte   W48
 .byte   PEND 
@ 036   ----------------------------------------
Label_1_014AE565:
 .byte   N48 ,Cn5 ,v096
 .byte   W48
 .byte   Bn4
 .byte   N48 ,Dn5 ,v064
 .byte   W48
 .byte   PEND 
@ 037   ----------------------------------------
 .byte   PATT
  .word Label_1_014AE53F
@ 038   ----------------------------------------
 .byte   PATT
  .word Label_1_014AE549
@ 039   ----------------------------------------
 .byte   PATT
  .word Label_1_014AE55B
@ 040   ----------------------------------------
 .byte   PATT
  .word Label_1_014AE565
@ 041   ----------------------------------------
 .byte   N96 ,Gs4 ,v096
 .byte   W96
@ 042   ----------------------------------------
Label_1_014AE587:
 .byte   N18 ,Gn4 ,v096
 .byte   W18
 .byte   Gs4
 .byte   W18
 .byte   N60 ,Cn4
 .byte   W06
 .byte   N54 ,Cn3 ,v080
 .byte   W54
 .byte   PEND 
@ 043   ----------------------------------------
Label_1_014AE595:
 .byte   N48 ,Fn4 ,v096
 .byte   W48
 .byte   En4
 .byte   W48
 .byte   PEND 
@ 044   ----------------------------------------
Label_1_014AE59C:
 .byte   N48 ,Gn4 ,v096
 .byte   W48
 .byte   Gs4
 .byte   W48
 .byte   PEND 
@ 045   ----------------------------------------
 .byte   N96
 .byte   W96
@ 046   ----------------------------------------
 .byte   PATT
  .word Label_1_014AE587
@ 047   ----------------------------------------
 .byte   PATT
  .word Label_1_014AE595
@ 048   ----------------------------------------
 .byte   PATT
  .word Label_1_014AE59C
@ 049   ----------------------------------------
 .byte   W96
@ 050   ----------------------------------------
 .byte   W96
@ 051   ----------------------------------------
 .byte   W96
@ 052   ----------------------------------------
 .byte   W96
@ 053   ----------------------------------------
 .byte   W96
@ 054   ----------------------------------------
 .byte   W96
@ 055   ----------------------------------------
 .byte   W96
@ 056   ----------------------------------------
 .byte   W96
@ 057   ----------------------------------------
 .byte   PATT
  .word Label_1_014AE49C
@ 058   ----------------------------------------
 .byte   PATT
  .word Label_1_014AE49C
@ 059   ----------------------------------------
 .byte   PATT
  .word Label_1_014AE49C
@ 060   ----------------------------------------
 .byte   PATT
  .word Label_1_014AE49C
@ 061   ----------------------------------------
 .byte   PATT
  .word Label_1_014AE49C
@ 062   ----------------------------------------
 .byte   PATT
  .word Label_1_014AE49C
@ 063   ----------------------------------------
 .byte   PATT
  .word Label_1_014AE49C
@ 064   ----------------------------------------
 .byte   PATT
  .word Label_1_014AE49C
@ 065   ----------------------------------------
 .byte   GOTO
  .word Label_1_014AE427
 .byte   FINE

@**************** Track 3 (Midi-Chn.2) ****************@

songC5_003:
@ 000   ----------------------------------------
 .byte   KEYSH , songC5_key+0
 .byte   VOICE , 62
 .byte   VOL , 28*songC5_mvl/mxv
 .byte   PAN , c_v+0
 .byte   BEND , c_v+0
 .byte   W96
@ 001   ----------------------------------------
Label_2_014704F7:
 .byte   N18 ,As3 ,v064
 .byte   W18
 .byte   An3
 .byte   W18
 .byte   N12 ,As3
 .byte   W12
 .byte   N18 ,Cn4 ,v080
 .byte   W18
 .byte   As3
 .byte   W18
 .byte   N12 ,Cn4
 .byte   W12
 .byte   PEND 
@ 002   ----------------------------------------
Label_2_0147050A:
 .byte   N48 ,Dn4 ,v096
 .byte   W48
 .byte   En4
 .byte   W48
 .byte   PEND 
@ 003   ----------------------------------------
 .byte   PATT
  .word Label_2_014704F7
@ 004   ----------------------------------------
 .byte   PATT
  .word Label_2_0147050A
@ 005   ----------------------------------------
 .byte   W96
@ 006   ----------------------------------------
 .byte   W96
@ 007   ----------------------------------------
 .byte   W96
@ 008   ----------------------------------------
 .byte   W96
@ 009   ----------------------------------------
 .byte   W96
@ 010   ----------------------------------------
 .byte   W96
@ 011   ----------------------------------------
 .byte   W96
@ 012   ----------------------------------------
 .byte   W96
@ 013   ----------------------------------------
 .byte   W96
@ 014   ----------------------------------------
 .byte   W96
@ 015   ----------------------------------------
 .byte   W96
@ 016   ----------------------------------------
 .byte   W96
@ 017   ----------------------------------------
 .byte   W96
@ 018   ----------------------------------------
 .byte   W96
@ 019   ----------------------------------------
 .byte   W96
@ 020   ----------------------------------------
 .byte   W96
@ 021   ----------------------------------------
 .byte   N96 ,An2 ,v096
 .byte   W96
@ 022   ----------------------------------------
 .byte   Gn2
 .byte   W96
@ 023   ----------------------------------------
Label_2_01470531:
 .byte   N72 ,Fn2 ,v096
 .byte   W72
 .byte   N12
 .byte   W12
 .byte   N12
 .byte   W12
 .byte   PEND 
@ 024   ----------------------------------------
 .byte   N96 ,Gn2
 .byte   W96
@ 025   ----------------------------------------
 .byte   An2
 .byte   W96
@ 026   ----------------------------------------
 .byte   Gn2
 .byte   W96
@ 027   ----------------------------------------
 .byte   PATT
  .word Label_2_01470531
@ 028   ----------------------------------------
 .byte   N96 ,Gn2 ,v096
 .byte   W96
@ 029   ----------------------------------------
 .byte   W96
@ 030   ----------------------------------------
 .byte   W96
@ 031   ----------------------------------------
 .byte   W96
@ 032   ----------------------------------------
 .byte   W96
@ 033   ----------------------------------------
 .byte   W96
@ 034   ----------------------------------------
 .byte   W96
@ 035   ----------------------------------------
 .byte   W96
@ 036   ----------------------------------------
 .byte   W96
@ 037   ----------------------------------------
 .byte   W96
@ 038   ----------------------------------------
 .byte   W96
@ 039   ----------------------------------------
 .byte   W96
@ 040   ----------------------------------------
 .byte   W96
@ 041   ----------------------------------------
 .byte   VOICE , 63
 .byte   N06 ,Gs2 ,v048
 .byte   N06 ,Cn3
 .byte   W18
 .byte   Gs2
 .byte   N06 ,Cn3
 .byte   W12
 .byte   Gs2
 .byte   N06 ,Cn3
 .byte   W12
 .byte   Gs2
 .byte   N06 ,Cn3
 .byte   W06
 .byte   Gs2
 .byte   N06 ,Cn3
 .byte   W18
 .byte   Gs2
 .byte   N06 ,Cn3
 .byte   W12
 .byte   Gs2
 .byte   N06 ,Cn3
 .byte   W12
 .byte   Gs2
 .byte   N06 ,Cn3
 .byte   W06
@ 042   ----------------------------------------
Label_2_0147057A:
 .byte   N06 ,Gs2 ,v048
 .byte   N06 ,Cn3
 .byte   W18
 .byte   Gs2
 .byte   N06 ,Cn3
 .byte   W12
 .byte   Gs2
 .byte   N06 ,Cn3
 .byte   W12
 .byte   Gs2
 .byte   N06 ,Cn3
 .byte   W06
 .byte   Gs2
 .byte   N06 ,Cn3
 .byte   W18
 .byte   Gs2
 .byte   N06 ,Cn3
 .byte   W12
 .byte   Gs2
 .byte   N06 ,Cn3
 .byte   W12
 .byte   Gs2
 .byte   N06 ,Cn3
 .byte   W06
 .byte   PEND 
@ 043   ----------------------------------------
 .byte   PATT
  .word Label_2_0147057A
@ 044   ----------------------------------------
 .byte   PATT
  .word Label_2_0147057A
@ 045   ----------------------------------------
 .byte   PATT
  .word Label_2_0147057A
@ 046   ----------------------------------------
 .byte   PATT
  .word Label_2_0147057A
@ 047   ----------------------------------------
 .byte   PATT
  .word Label_2_0147057A
@ 048   ----------------------------------------
 .byte   PATT
  .word Label_2_0147057A
@ 049   ----------------------------------------
 .byte   VOICE , 62
 .byte   W96
@ 050   ----------------------------------------
 .byte   W96
@ 051   ----------------------------------------
 .byte   W96
@ 052   ----------------------------------------
 .byte   W96
@ 053   ----------------------------------------
 .byte   W96
@ 054   ----------------------------------------
 .byte   W96
@ 055   ----------------------------------------
 .byte   W96
@ 056   ----------------------------------------
 .byte   W96
@ 057   ----------------------------------------
 .byte   W96
@ 058   ----------------------------------------
 .byte   W96
@ 059   ----------------------------------------
 .byte   W96
@ 060   ----------------------------------------
 .byte   W96
@ 061   ----------------------------------------
 .byte   W96
@ 062   ----------------------------------------
 .byte   W96
@ 063   ----------------------------------------
 .byte   W96
@ 064   ----------------------------------------
 .byte   W96
@ 065   ----------------------------------------
 .byte   GOTO
  .word Label_2_014704F7
 .byte   FINE

@**************** Track 4 (Midi-Chn.3) ****************@

songC5_004:
@ 000   ----------------------------------------
 .byte   KEYSH , songC5_key+0
 .byte   VOICE , 60
 .byte   VOL , 24*songC5_mvl/mxv
 .byte   PAN , c_v+24
 .byte   BEND , c_v+0
 .byte   W96
@ 001   ----------------------------------------
Label_3_014AF0EB:
 .byte   N48 ,Dn2 ,v096
 .byte   N48 ,Gn2
 .byte   W48
 .byte   Dn2
 .byte   N48 ,Fs2
 .byte   W48
 .byte   PEND 
@ 002   ----------------------------------------
Label_3_014AF0F6:
 .byte   N48 ,Dn2 ,v096
 .byte   N48 ,Fs2
 .byte   W48
 .byte   Cs2
 .byte   N48 ,En2
 .byte   W48
 .byte   PEND 
@ 003   ----------------------------------------
 .byte   PATT
  .word Label_3_014AF0EB
@ 004   ----------------------------------------
 .byte   PATT
  .word Label_3_014AF0F6
@ 005   ----------------------------------------
 .byte   W96
@ 006   ----------------------------------------
 .byte   W96
@ 007   ----------------------------------------
 .byte   W96
@ 008   ----------------------------------------
 .byte   W96
@ 009   ----------------------------------------
Label_3_014AF10F:
 .byte   N18 ,Dn3 ,v112
 .byte   W18
 .byte   N12 ,Fn3
 .byte   W12
 .byte   N18 ,En3
 .byte   W18
 .byte   Cn3
 .byte   W18
 .byte   N30 ,Dn3
 .byte   W30
 .byte   PEND 
@ 010   ----------------------------------------
Label_3_014AF11F:
 .byte   N48 ,An3 ,v112
 .byte   W48
 .byte   N24 ,Gn3
 .byte   W24
 .byte   Fn3
 .byte   W24
 .byte   PEND 
@ 011   ----------------------------------------
 .byte   PATT
  .word Label_3_014AF10F
@ 012   ----------------------------------------
Label_3_014AF12E:
 .byte   N48 ,An3 ,v112
 .byte   W48
 .byte   N24 ,As3
 .byte   W24
 .byte   Dn3
 .byte   W24
 .byte   PEND 
@ 013   ----------------------------------------
 .byte   VOL , 30*songC5_mvl/mxv
 .byte   N96 ,En3
 .byte   W96
@ 014   ----------------------------------------
 .byte   Fn3
 .byte   W96
@ 015   ----------------------------------------
 .byte   Gs3
 .byte   W96
@ 016   ----------------------------------------
Label_3_014AF141:
 .byte   N96 ,Bn3 ,v112
 .byte   W48
 .byte   N48 ,Fn3 ,v096
 .byte   W48
 .byte   PEND 
@ 017   ----------------------------------------
 .byte   VOL , 24*songC5_mvl/mxv
 .byte   N18 ,Dn3 ,v112
 .byte   W18
 .byte   N12 ,Fn3
 .byte   W12
 .byte   N18 ,En3
 .byte   W18
 .byte   Cn3
 .byte   W18
 .byte   N30 ,Dn3
 .byte   W30
@ 018   ----------------------------------------
 .byte   PATT
  .word Label_3_014AF11F
@ 019   ----------------------------------------
 .byte   PATT
  .word Label_3_014AF10F
@ 020   ----------------------------------------
 .byte   PATT
  .word Label_3_014AF12E
@ 021   ----------------------------------------
 .byte   VOL , 30*songC5_mvl/mxv
 .byte   N72 ,Cn3 ,v112
 .byte   W72
 .byte   N24 ,Dn3
 .byte   W24
@ 022   ----------------------------------------
Label_3_014AF173:
 .byte   N72 ,Bn2 ,v112
 .byte   W72
 .byte   N12 ,Cn3
 .byte   W12
 .byte   Dn3
 .byte   W12
 .byte   PEND 
@ 023   ----------------------------------------
Label_3_014AF17D:
 .byte   N72 ,Cn3 ,v112
 .byte   W72
 .byte   N12 ,Bn2
 .byte   W12
 .byte   Cn3
 .byte   W12
 .byte   PEND 
@ 024   ----------------------------------------
 .byte   N48 ,Dn3
 .byte   W48
 .byte   Bn2
 .byte   W48
@ 025   ----------------------------------------
 .byte   N72 ,Cn3
 .byte   W72
 .byte   N24 ,Dn3
 .byte   W24
@ 026   ----------------------------------------
 .byte   PATT
  .word Label_3_014AF173
@ 027   ----------------------------------------
 .byte   PATT
  .word Label_3_014AF17D
@ 028   ----------------------------------------
 .byte   N48 ,Dn3 ,v112
 .byte   W48
 .byte   Gn3
 .byte   W48
@ 029   ----------------------------------------
 .byte   VOL , 24*songC5_mvl/mxv
 .byte   N48 ,Dn3 ,v080
 .byte   W48
 .byte   N24
 .byte   W24
 .byte   N24
 .byte   W24
@ 030   ----------------------------------------
 .byte   N48 ,Ds3
 .byte   W48
 .byte   N48
 .byte   W48
@ 031   ----------------------------------------
 .byte   Gs3
 .byte   W48
 .byte   As3
 .byte   W48
@ 032   ----------------------------------------
 .byte   N96 ,Gs3
 .byte   W96
@ 033   ----------------------------------------
 .byte   W96
@ 034   ----------------------------------------
 .byte   W96
@ 035   ----------------------------------------
 .byte   W96
@ 036   ----------------------------------------
 .byte   W96
@ 037   ----------------------------------------
 .byte   W96
@ 038   ----------------------------------------
 .byte   W96
@ 039   ----------------------------------------
 .byte   W96
@ 040   ----------------------------------------
 .byte   W96
@ 041   ----------------------------------------
 .byte   W96
@ 042   ----------------------------------------
 .byte   W96
@ 043   ----------------------------------------
 .byte   W96
@ 044   ----------------------------------------
 .byte   W96
@ 045   ----------------------------------------
 .byte   W96
@ 046   ----------------------------------------
 .byte   W96
@ 047   ----------------------------------------
 .byte   W96
@ 048   ----------------------------------------
 .byte   W96
@ 049   ----------------------------------------
 .byte   W96
@ 050   ----------------------------------------
 .byte   W96
@ 051   ----------------------------------------
 .byte   W96
@ 052   ----------------------------------------
 .byte   W96
@ 053   ----------------------------------------
 .byte   W96
@ 054   ----------------------------------------
 .byte   W96
@ 055   ----------------------------------------
 .byte   W96
@ 056   ----------------------------------------
 .byte   W96
@ 057   ----------------------------------------
 .byte   VOL , 30*songC5_mvl/mxv
 .byte   N96 ,En3 ,v112
 .byte   W96
@ 058   ----------------------------------------
 .byte   Fn3
 .byte   W96
@ 059   ----------------------------------------
 .byte   Gs3
 .byte   W96
@ 060   ----------------------------------------
 .byte   PATT
  .word Label_3_014AF141
@ 061   ----------------------------------------
 .byte   N96 ,En3 ,v112
 .byte   W96
@ 062   ----------------------------------------
 .byte   Fn3
 .byte   W96
@ 063   ----------------------------------------
 .byte   Gs3
 .byte   W96
@ 064   ----------------------------------------
 .byte   N92 ,Bn3
 .byte   W48
 .byte   N44 ,Fn3 ,v096
 .byte   W44
 .byte   W01
 .byte   VOL , 24*songC5_mvl/mxv
 .byte   W03
@ 065   ----------------------------------------
 .byte   GOTO
  .word Label_3_014AF0EB
 .byte   FINE

@**************** Track 5 (Midi-Chn.4) ****************@

songC5_005:
@ 000   ----------------------------------------
 .byte   KEYSH , songC5_key+0
 .byte   VOICE , 57
 .byte   VOL , 23*songC5_mvl/mxv
 .byte   PAN , c_v-16
 .byte   BEND , c_v+0
 .byte   W96
@ 001   ----------------------------------------
Label_4_014AEC47:
 .byte   N48 ,Gn1 ,v096
 .byte   N48 ,Dn2
 .byte   W48
 .byte   Fs1
 .byte   N48 ,Dn2
 .byte   W48
 .byte   PEND 
@ 002   ----------------------------------------
Label_4_014AEC52:
 .byte   N48 ,Fs1 ,v096
 .byte   N48 ,Dn2
 .byte   W48
 .byte   En1
 .byte   N48 ,Cs2
 .byte   W48
 .byte   PEND 
@ 003   ----------------------------------------
 .byte   PATT
  .word Label_4_014AEC47
@ 004   ----------------------------------------
 .byte   PATT
  .word Label_4_014AEC52
@ 005   ----------------------------------------
 .byte   W96
@ 006   ----------------------------------------
 .byte   W96
@ 007   ----------------------------------------
 .byte   W96
@ 008   ----------------------------------------
 .byte   W96
@ 009   ----------------------------------------
 .byte   W96
@ 010   ----------------------------------------
 .byte   W96
@ 011   ----------------------------------------
 .byte   W96
@ 012   ----------------------------------------
 .byte   W96
@ 013   ----------------------------------------
Label_4_014AEC6F:
 .byte   N06 ,Bn1 ,v096
 .byte   N06 ,En2
 .byte   W18
 .byte   An1
 .byte   N06 ,Dn2
 .byte   W18
 .byte   Cn2
 .byte   N06 ,Fn2
 .byte   W18
 .byte   Bn1
 .byte   N06 ,En2
 .byte   W18
 .byte   N03 ,An1
 .byte   N03 ,Dn2
 .byte   W12
 .byte   N06 ,Bn1
 .byte   N06 ,En2
 .byte   W12
 .byte   PEND 
@ 014   ----------------------------------------
 .byte   PATT
  .word Label_4_014AEC6F
@ 015   ----------------------------------------
 .byte   PATT
  .word Label_4_014AEC6F
@ 016   ----------------------------------------
Label_4_014AEC96:
 .byte   N06 ,Bn1 ,v096
 .byte   N06 ,En2
 .byte   W18
 .byte   An1
 .byte   N06 ,Dn2
 .byte   W18
 .byte   Cn2
 .byte   N06 ,Fn2
 .byte   W12
 .byte   N48 ,Fn3 ,v112
 .byte   W06
 .byte   N06 ,Bn1 ,v096
 .byte   N06 ,En2
 .byte   W18
 .byte   N03 ,An1
 .byte   N03 ,Dn2
 .byte   W12
 .byte   N06 ,Bn1
 .byte   N06 ,En2
 .byte   W12
 .byte   PEND 
@ 017   ----------------------------------------
 .byte   W96
@ 018   ----------------------------------------
 .byte   W96
@ 019   ----------------------------------------
 .byte   W96
@ 020   ----------------------------------------
 .byte   W96
@ 021   ----------------------------------------
Label_4_014AECBD:
 .byte   N72 ,Cn3 ,v096
 .byte   W72
 .byte   N24 ,Dn3
 .byte   W24
 .byte   PEND 
@ 022   ----------------------------------------
Label_4_014AECC5:
 .byte   N72 ,Bn2 ,v112
 .byte   W72
 .byte   N12 ,Cn3
 .byte   W12
 .byte   Dn3
 .byte   W12
 .byte   PEND 
@ 023   ----------------------------------------
Label_4_014AECCF:
 .byte   N72 ,Cn3 ,v112
 .byte   W72
 .byte   N12 ,Bn2
 .byte   W12
 .byte   Cn3
 .byte   W12
 .byte   PEND 
@ 024   ----------------------------------------
 .byte   N48 ,Dn3 ,v096
 .byte   W96
@ 025   ----------------------------------------
 .byte   PATT
  .word Label_4_014AECBD
@ 026   ----------------------------------------
 .byte   PATT
  .word Label_4_014AECC5
@ 027   ----------------------------------------
 .byte   PATT
  .word Label_4_014AECCF
@ 028   ----------------------------------------
 .byte   N48 ,Dn3 ,v096
 .byte   W96
@ 029   ----------------------------------------
 .byte   W96
@ 030   ----------------------------------------
 .byte   W96
@ 031   ----------------------------------------
 .byte   W96
@ 032   ----------------------------------------
 .byte   W96
@ 033   ----------------------------------------
 .byte   W96
@ 034   ----------------------------------------
 .byte   W96
@ 035   ----------------------------------------
 .byte   W96
@ 036   ----------------------------------------
 .byte   W96
@ 037   ----------------------------------------
 .byte   W96
@ 038   ----------------------------------------
 .byte   W96
@ 039   ----------------------------------------
 .byte   W96
@ 040   ----------------------------------------
 .byte   W96
@ 041   ----------------------------------------
 .byte   W96
@ 042   ----------------------------------------
 .byte   W96
@ 043   ----------------------------------------
 .byte   W96
@ 044   ----------------------------------------
 .byte   W96
@ 045   ----------------------------------------
 .byte   W96
@ 046   ----------------------------------------
 .byte   W96
@ 047   ----------------------------------------
 .byte   W96
@ 048   ----------------------------------------
 .byte   W96
@ 049   ----------------------------------------
 .byte   W96
@ 050   ----------------------------------------
 .byte   W96
@ 051   ----------------------------------------
 .byte   W96
@ 052   ----------------------------------------
 .byte   W96
@ 053   ----------------------------------------
 .byte   W96
@ 054   ----------------------------------------
 .byte   W96
@ 055   ----------------------------------------
 .byte   W96
@ 056   ----------------------------------------
 .byte   W96
@ 057   ----------------------------------------
 .byte   PATT
  .word Label_4_014AEC6F
@ 058   ----------------------------------------
 .byte   PATT
  .word Label_4_014AEC6F
@ 059   ----------------------------------------
 .byte   PATT
  .word Label_4_014AEC6F
@ 060   ----------------------------------------
 .byte   PATT
  .word Label_4_014AEC96
@ 061   ----------------------------------------
 .byte   W96
@ 062   ----------------------------------------
 .byte   W96
@ 063   ----------------------------------------
 .byte   W96
@ 064   ----------------------------------------
 .byte   W96
@ 065   ----------------------------------------
 .byte   GOTO
  .word Label_4_014AEC47
 .byte   FINE

@**************** Track 6 (Midi-Chn.5) ****************@

songC5_006:
@ 000   ----------------------------------------
 .byte   KEYSH , songC5_key+0
 .byte   VOICE , 52
 .byte   VOL , 30*songC5_mvl/mxv
 .byte   PAN , c_v-8
 .byte   BEND , c_v+0
 .byte   W96
@ 001   ----------------------------------------
Label_5_014AF81F:
 .byte   N24 ,Gn3 ,v080
 .byte   N24 ,As3
 .byte   W48
 .byte   Fs3
 .byte   N24 ,An3
 .byte   W48
@ 002   ----------------------------------------
Label_5_014AF829:
 .byte   N24 ,Fs3 ,v080
 .byte   N24 ,An3
 .byte   W48
 .byte   En3 ,v096
 .byte   N24 ,Gs3
 .byte   W48
 .byte   PEND 
@ 003   ----------------------------------------
 .byte   Gn3 ,v080
 .byte   N24 ,As3
 .byte   W48
 .byte   N19 ,Fs3
 .byte   N19 ,An3
 .byte   W24
 .byte   As3
 .byte   N19 ,Dn4
 .byte   W24
@ 004   ----------------------------------------
 .byte   PATT
  .word Label_5_014AF829
@ 005   ----------------------------------------
Label_5_014AF848:
 .byte   N24 ,Dn3 ,v112
 .byte   N24 ,An3 ,v048
 .byte   W96
 .byte   PEND 
@ 006   ----------------------------------------
 .byte   PATT
  .word Label_5_014AF848
@ 007   ----------------------------------------
 .byte   PATT
  .word Label_5_014AF848
@ 008   ----------------------------------------
 .byte   PATT
  .word Label_5_014AF848
@ 009   ----------------------------------------
 .byte   PATT
  .word Label_5_014AF848
@ 010   ----------------------------------------
 .byte   PATT
  .word Label_5_014AF848
@ 011   ----------------------------------------
 .byte   PATT
  .word Label_5_014AF848
@ 012   ----------------------------------------
 .byte   PATT
  .word Label_5_014AF848
@ 013   ----------------------------------------
Label_5_014AF873:
 .byte   N96 ,Bn2 ,v096
 .byte   N12 ,En3
 .byte   W96
 .byte   PEND 
@ 014   ----------------------------------------
Label_5_014AF87A:
 .byte   N96 ,An2 ,v096
 .byte   W12
 .byte   N84 ,Cn3
 .byte   W84
 .byte   PEND 
@ 015   ----------------------------------------
 .byte   N96 ,Fn3
 .byte   N96 ,Gs3
 .byte   W96
@ 016   ----------------------------------------
 .byte   Dn3
 .byte   N96 ,Fn3
 .byte   W96
@ 017   ----------------------------------------
 .byte   PATT
  .word Label_5_014AF848
@ 018   ----------------------------------------
 .byte   PATT
  .word Label_5_014AF848
@ 019   ----------------------------------------
 .byte   PATT
  .word Label_5_014AF848
@ 020   ----------------------------------------
 .byte   PATT
  .word Label_5_014AF848
@ 021   ----------------------------------------
 .byte   VOL , 26*songC5_mvl/mxv
 .byte   N48 ,Cn3 ,v064
 .byte   N48 ,En3
 .byte   W48
 .byte   N24 ,Cn3
 .byte   N24 ,En3
 .byte   W24
 .byte   Cn3
 .byte   N24 ,En3
 .byte   W24
@ 022   ----------------------------------------
Label_5_014AF8B0:
 .byte   N60 ,Bn2 ,v064
 .byte   N60 ,Dn3
 .byte   W60
 .byte   N12 ,Bn2
 .byte   N12 ,Dn3
 .byte   W12
 .byte   Cn3
 .byte   N12 ,En3
 .byte   W12
 .byte   Gn2
 .byte   N12 ,Bn2
 .byte   W12
 .byte   PEND 
@ 023   ----------------------------------------
Label_5_014AF8C4:
 .byte   N72 ,En2 ,v064
 .byte   N72 ,An2
 .byte   W72
 .byte   N12 ,En2
 .byte   N12 ,Gn2
 .byte   W12
 .byte   En2
 .byte   N12 ,An2
 .byte   W12
 .byte   PEND 
@ 024   ----------------------------------------
Label_5_014AF8D4:
 .byte   N48 ,Gn2 ,v064
 .byte   N48 ,Bn2
 .byte   W48
 .byte   Gn2
 .byte   N48 ,Bn2
 .byte   W48
 .byte   PEND 
@ 025   ----------------------------------------
 .byte   Cn3
 .byte   N48 ,En3
 .byte   W48
 .byte   N24 ,Cn3
 .byte   N24 ,En3
 .byte   W24
 .byte   Cn3
 .byte   N24 ,En3
 .byte   W24
@ 026   ----------------------------------------
 .byte   PATT
  .word Label_5_014AF8B0
@ 027   ----------------------------------------
 .byte   PATT
  .word Label_5_014AF8C4
@ 028   ----------------------------------------
 .byte   PATT
  .word Label_5_014AF8D4
@ 029   ----------------------------------------
 .byte   N48 ,Dn3 ,v064
 .byte   N48 ,Fn3
 .byte   W48
 .byte   N24 ,Dn3
 .byte   N24 ,Fn3
 .byte   W24
 .byte   Dn3
 .byte   N24 ,Fn3
 .byte   W24
@ 030   ----------------------------------------
 .byte   N48 ,Cn3
 .byte   N48 ,Ds3
 .byte   W48
 .byte   Cn3
 .byte   N48 ,Ds3
 .byte   W48
@ 031   ----------------------------------------
 .byte   Gs2
 .byte   N48 ,Cn3
 .byte   W48
 .byte   As2
 .byte   N48 ,Cn3
 .byte   W48
@ 032   ----------------------------------------
 .byte   Gs2
 .byte   N48 ,Cn3
 .byte   W48
 .byte   Fn2
 .byte   N48 ,Gs2
 .byte   W48
@ 033   ----------------------------------------
Label_5_014AF923:
 .byte   N24 ,An2 ,v080
 .byte   N24 ,En3
 .byte   W48
 .byte   En1
 .byte   N24 ,An1
 .byte   W48
 .byte   PEND 
@ 034   ----------------------------------------
 .byte   PATT
  .word Label_5_014AF923
@ 035   ----------------------------------------
 .byte   PATT
  .word Label_5_014AF923
@ 036   ----------------------------------------
 .byte   PATT
  .word Label_5_014AF923
@ 037   ----------------------------------------
Label_5_014AF93D:
 .byte   N24 ,An2 ,v080
 .byte   N24 ,En3
 .byte   W48
 .byte   An2
 .byte   N24 ,En3
 .byte   W48
 .byte   PEND 
@ 038   ----------------------------------------
 .byte   PATT
  .word Label_5_014AF93D
@ 039   ----------------------------------------
 .byte   PATT
  .word Label_5_014AF93D
@ 040   ----------------------------------------
 .byte   PATT
  .word Label_5_014AF93D
@ 041   ----------------------------------------
 .byte   W96
@ 042   ----------------------------------------
 .byte   W96
@ 043   ----------------------------------------
 .byte   W96
@ 044   ----------------------------------------
 .byte   W96
@ 045   ----------------------------------------
 .byte   N24 ,Fn1 ,v096
 .byte   N24 ,Fn2
 .byte   N96 ,Gs3
 .byte   W48
 .byte   N24 ,Fn1 ,v064
 .byte   N24 ,Fn2
 .byte   W48
@ 046   ----------------------------------------
 .byte   Gs1 ,v096
 .byte   N24 ,Cn2
 .byte   N18 ,Cn3
 .byte   N18 ,Gn3
 .byte   W18
 .byte   Gs3
 .byte   W18
 .byte   N60 ,Cn3
 .byte   W12
 .byte   N24 ,Fn1 ,v080
 .byte   N24 ,Fn2
 .byte   W48
@ 047   ----------------------------------------
 .byte   Cn2 ,v064
 .byte   N24 ,Fn2 ,v096
 .byte   N48 ,Fn3
 .byte   W48
 .byte   N24 ,Fn1 ,v064
 .byte   N24 ,Fn2
 .byte   N48 ,En3 ,v096
 .byte   W48
@ 048   ----------------------------------------
 .byte   N24 ,Cn2 ,v064
 .byte   N24 ,Fn2 ,v096
 .byte   N48 ,Gn3
 .byte   W48
 .byte   N24 ,Fn1 ,v064
 .byte   N24 ,Fn2
 .byte   N48 ,Gs3 ,v096
 .byte   W48
@ 049   ----------------------------------------
Label_5_014AF9A0:
 .byte   N42 ,An1 ,v080
 .byte   N42 ,En3 ,v096
 .byte   N42 ,An3
 .byte   N42 ,Cn4 ,v064
 .byte   W48
 .byte   Bn1 ,v080
 .byte   N42 ,En3 ,v096
 .byte   N42 ,Gs3 ,v064
 .byte   N42 ,Bn3 ,v096
 .byte   N42 ,En4 ,v064
 .byte   W48
 .byte   PEND 
@ 050   ----------------------------------------
 .byte   PATT
  .word Label_5_014AF9A0
@ 051   ----------------------------------------
Label_5_014AF9C1:
 .byte   N42 ,An1 ,v080
 .byte   N42 ,En3 ,v096
 .byte   N42 ,An3
 .byte   N42 ,Cn4 ,v064
 .byte   W48
 .byte   Dn1 ,v080
 .byte   N42 ,Dn3
 .byte   N42 ,An3 ,v096
 .byte   N42 ,Dn4
 .byte   W48
 .byte   PEND 
@ 052   ----------------------------------------
Label_5_014AF9D8:
 .byte   N42 ,An1 ,v080
 .byte   N42 ,En3 ,v064
 .byte   N42 ,An3 ,v096
 .byte   N42 ,Dn4 ,v064
 .byte   N42 ,En4
 .byte   W48
 .byte   An1 ,v080
 .byte   N42 ,En3 ,v064
 .byte   N42 ,An3 ,v096
 .byte   N42 ,Cs4 ,v064
 .byte   N42 ,En4
 .byte   W48
 .byte   PEND 
@ 053   ----------------------------------------
 .byte   PATT
  .word Label_5_014AF9A0
@ 054   ----------------------------------------
 .byte   PATT
  .word Label_5_014AF9A0
@ 055   ----------------------------------------
 .byte   PATT
  .word Label_5_014AF9C1
@ 056   ----------------------------------------
 .byte   PATT
  .word Label_5_014AF9D8
@ 057   ----------------------------------------
 .byte   PATT
  .word Label_5_014AF873
@ 058   ----------------------------------------
 .byte   PATT
  .word Label_5_014AF87A
@ 059   ----------------------------------------
Label_5_014AFA14:
 .byte   N96 ,Dn3 ,v096
 .byte   N96 ,Fn3
 .byte   N96 ,Gs3
 .byte   W96
 .byte   PEND 
@ 060   ----------------------------------------
Label_5_014AFA1D:
 .byte   N96 ,Bn2 ,v096
 .byte   N96 ,Dn3
 .byte   N96 ,Fn3
 .byte   W96
 .byte   PEND 
@ 061   ----------------------------------------
 .byte   PATT
  .word Label_5_014AF873
@ 062   ----------------------------------------
 .byte   PATT
  .word Label_5_014AF87A
@ 063   ----------------------------------------
 .byte   PATT
  .word Label_5_014AFA14
@ 064   ----------------------------------------
 .byte   PATT
  .word Label_5_014AFA1D
@ 065   ----------------------------------------
 .byte   GOTO
  .word Label_5_014AF81F
 .byte   FINE

@**************** Track 7 (Midi-Chn.6) ****************@

songC5_007:
@ 000   ----------------------------------------
 .byte   KEYSH , songC5_key+0
 .byte   VOICE , 127
 .byte   VOL , 30*songC5_mvl/mxv
 .byte   PAN , c_v+0
 .byte   BEND , c_v+0
 .byte   W96
@ 001   ----------------------------------------
Label_6_014B230F:
 .byte   N30 ,Cs2 ,v112
 .byte   W12
 .byte   N06 ,Cn2
 .byte   W06
 .byte   N06
 .byte   W06
 .byte   Bn1
 .byte   W06
 .byte   N06
 .byte   W06
 .byte   An1
 .byte   W06
 .byte   N06
 .byte   W06
 .byte   Gn1
 .byte   N06 ,Cs2
 .byte   W06
 .byte   Cn2
 .byte   W06
 .byte   Bn1
 .byte   W06
 .byte   N06
 .byte   W06
 .byte   An1
 .byte   W06
 .byte   N06
 .byte   W06
 .byte   Gn1
 .byte   W06
 .byte   N06
 .byte   W06
 .byte   PEND 
@ 002   ----------------------------------------
 .byte   PATT
  .word Label_6_014B230F
@ 003   ----------------------------------------
 .byte   PATT
  .word Label_6_014B230F
@ 004   ----------------------------------------
 .byte   PATT
  .word Label_6_014B230F
@ 005   ----------------------------------------
 .byte   N06 ,As1 ,v080
 .byte   N24 ,Cs2 ,v096
 .byte   W12
 .byte   N06 ,Dn1 ,v064
 .byte   N06 ,As1 ,v080
 .byte   N06 ,En2 ,v064
 .byte   W06
 .byte   N01 ,En2 ,v016
 .byte   W06
 .byte   N06 ,Gs1 ,v096
 .byte   N06 ,As1 ,v080
 .byte   W06
 .byte   Gs1 ,v096
 .byte   W06
 .byte   Dn1 ,v064
 .byte   N06 ,As1 ,v080
 .byte   N06 ,En2 ,v064
 .byte   W06
 .byte   Gs1 ,v096
 .byte   N01 ,En2 ,v016
 .byte   W06
 .byte   N06 ,Gs1 ,v096
 .byte   N06 ,As1 ,v080
 .byte   W12
 .byte   Dn1 ,v064
 .byte   N06 ,As1 ,v080
 .byte   N06 ,En2 ,v064
 .byte   W06
 .byte   N01 ,En2 ,v016
 .byte   W06
 .byte   N06 ,Gs1 ,v096
 .byte   N06 ,As1 ,v080
 .byte   W12
 .byte   Dn1 ,v064
 .byte   N06 ,As1 ,v080
 .byte   N06 ,En2 ,v064
 .byte   W06
 .byte   Gs1 ,v096
 .byte   N06 ,An1
 .byte   N01 ,En2 ,v016
 .byte   W06
@ 006   ----------------------------------------
Label_6_014B239C:
 .byte   N06 ,Gs1 ,v096
 .byte   N06 ,As1 ,v080
 .byte   W12
 .byte   Dn1 ,v064
 .byte   N06 ,As1 ,v080
 .byte   N06 ,En2 ,v064
 .byte   W06
 .byte   N01 ,En2 ,v016
 .byte   W06
 .byte   N06 ,Gs1 ,v096
 .byte   N06 ,As1 ,v080
 .byte   W12
 .byte   Dn1 ,v064
 .byte   N06 ,As1 ,v080
 .byte   N06 ,En2 ,v064
 .byte   W06
 .byte   Gs1 ,v080
 .byte   N01 ,En2 ,v016
 .byte   W06
 .byte   N06 ,As1 ,v080
 .byte   W06
 .byte   Gs1 ,v096
 .byte   W06
 .byte   Dn1 ,v064
 .byte   N06 ,As1 ,v080
 .byte   N06 ,En2 ,v064
 .byte   W06
 .byte   N01 ,En2 ,v016
 .byte   W06
 .byte   N06 ,Gs1 ,v096
 .byte   N06 ,As1 ,v080
 .byte   W06
 .byte   Gs1 ,v096
 .byte   W06
 .byte   Dn1 ,v064
 .byte   N06 ,Cs2 ,v096
 .byte   N06 ,En2 ,v064
 .byte   W06
 .byte   N01 ,En2 ,v016
 .byte   W06
 .byte   PEND 
@ 007   ----------------------------------------
 .byte   N06 ,Gs1 ,v096
 .byte   N06 ,As1
 .byte   N24 ,Cs2
 .byte   W12
 .byte   N06 ,Dn1 ,v064
 .byte   N06 ,As1 ,v080
 .byte   N06 ,En2 ,v064
 .byte   W06
 .byte   N01 ,En2 ,v016
 .byte   W06
 .byte   N06 ,Gs1 ,v096
 .byte   N06 ,As1 ,v080
 .byte   W06
 .byte   Gs1 ,v096
 .byte   W06
 .byte   Dn1 ,v064
 .byte   N06 ,As1 ,v080
 .byte   N06 ,En2 ,v064
 .byte   W06
 .byte   N01 ,En2 ,v016
 .byte   W06
 .byte   N06 ,Gs1 ,v096
 .byte   N06 ,As1 ,v080
 .byte   W12
 .byte   Dn1 ,v064
 .byte   N06 ,As1 ,v080
 .byte   N06 ,En2 ,v064
 .byte   W06
 .byte   Gs1 ,v096
 .byte   N01 ,En2 ,v016
 .byte   W06
 .byte   N06 ,As1 ,v080
 .byte   W06
 .byte   Gs1 ,v096
 .byte   W06
 .byte   Dn1 ,v064
 .byte   N06 ,As1 ,v080
 .byte   N06 ,En2 ,v064
 .byte   W06
 .byte   N01 ,En2 ,v016
 .byte   W06
@ 008   ----------------------------------------
Label_6_014B2449:
 .byte   N06 ,As1 ,v080
 .byte   N24 ,Cs2 ,v096
 .byte   W12
 .byte   N06 ,Dn1 ,v064
 .byte   N06 ,As1 ,v080
 .byte   N06 ,En2 ,v064
 .byte   W06
 .byte   N01 ,En2 ,v016
 .byte   W06
 .byte   N06 ,Gs1 ,v096
 .byte   N06 ,As1 ,v080
 .byte   W06
 .byte   Gs1 ,v096
 .byte   W06
 .byte   Dn1 ,v064
 .byte   N06 ,As1 ,v080
 .byte   N06 ,En2 ,v064
 .byte   W06
 .byte   N01 ,En2 ,v016
 .byte   W06
 .byte   N06 ,As1 ,v080
 .byte   W12
 .byte   Dn1 ,v064
 .byte   N06 ,As1 ,v080
 .byte   N06 ,En2 ,v064
 .byte   W06
 .byte   N01 ,En2 ,v016
 .byte   W06
 .byte   N06 ,Gs1 ,v096
 .byte   N06 ,As1 ,v080
 .byte   W06
 .byte   Gs1 ,v096
 .byte   W06
 .byte   Dn1 ,v064
 .byte   N06 ,As1 ,v080
 .byte   N06 ,En2 ,v064
 .byte   W06
 .byte   N01 ,En2 ,v016
 .byte   W06
 .byte   PEND 
@ 009   ----------------------------------------
Label_6_014B249E:
 .byte   N06 ,As1 ,v096
 .byte   N24 ,Cs2
 .byte   W12
 .byte   N06 ,Dn1 ,v064
 .byte   N06 ,As1 ,v080
 .byte   N06 ,En2 ,v064
 .byte   W06
 .byte   N01 ,En2 ,v016
 .byte   W06
 .byte   N06 ,Gs1 ,v096
 .byte   N06 ,As1 ,v080
 .byte   W06
 .byte   Gs1 ,v096
 .byte   W06
 .byte   Dn1 ,v064
 .byte   N06 ,As1 ,v080
 .byte   N06 ,En2 ,v064
 .byte   W06
 .byte   Gs1 ,v096
 .byte   N01 ,En2 ,v016
 .byte   W06
 .byte   N06 ,Gs1 ,v096
 .byte   N06 ,As1 ,v080
 .byte   W12
 .byte   Dn1 ,v064
 .byte   N06 ,As1 ,v080
 .byte   N06 ,En2 ,v064
 .byte   W06
 .byte   N01 ,En2 ,v016
 .byte   W06
 .byte   N06 ,Gs1 ,v096
 .byte   N06 ,As1 ,v080
 .byte   W12
 .byte   Dn1 ,v064
 .byte   N06 ,As1 ,v080
 .byte   N06 ,En2 ,v064
 .byte   W06
 .byte   Gs1 ,v096
 .byte   N06 ,An1
 .byte   N01 ,En2 ,v016
 .byte   W06
 .byte   PEND 
@ 010   ----------------------------------------
 .byte   PATT
  .word Label_6_014B239C
@ 011   ----------------------------------------
Label_6_014B24FD:
 .byte   N06 ,Gs1 ,v096
 .byte   N06 ,As1 ,v080
 .byte   N24 ,Cs2 ,v096
 .byte   W12
 .byte   N06 ,Dn1 ,v064
 .byte   N06 ,As1 ,v080
 .byte   N06 ,En2 ,v064
 .byte   W06
 .byte   N01 ,En2 ,v016
 .byte   W06
 .byte   N06 ,Gs1 ,v096
 .byte   N06 ,As1 ,v080
 .byte   W06
 .byte   Gs1 ,v096
 .byte   W06
 .byte   Dn1 ,v064
 .byte   N06 ,As1 ,v080
 .byte   N06 ,En2 ,v064
 .byte   W06
 .byte   N01 ,En2 ,v016
 .byte   W06
 .byte   N06 ,Gs1 ,v096
 .byte   N06 ,As1 ,v080
 .byte   W12
 .byte   Dn1 ,v064
 .byte   N06 ,As1 ,v080
 .byte   N06 ,En2 ,v064
 .byte   W06
 .byte   Gs1 ,v096
 .byte   N01 ,En2 ,v016
 .byte   W06
 .byte   N06 ,As1 ,v080
 .byte   W06
 .byte   Gs1 ,v096
 .byte   W06
 .byte   Dn1 ,v064
 .byte   N06 ,As1 ,v080
 .byte   N06 ,En2 ,v064
 .byte   W06
 .byte   N01 ,En2 ,v016
 .byte   W06
 .byte   PEND 
@ 012   ----------------------------------------
Label_6_014B2557:
 .byte   N06 ,As1 ,v080
 .byte   N24 ,Cs2 ,v096
 .byte   W12
 .byte   N06 ,Dn1 ,v064
 .byte   N06 ,As1 ,v080
 .byte   N06 ,En2 ,v064
 .byte   W06
 .byte   N01 ,En2 ,v016
 .byte   W06
 .byte   N06 ,Gs1 ,v096
 .byte   N06 ,As1 ,v080
 .byte   W06
 .byte   Gs1 ,v096
 .byte   W06
 .byte   Dn1 ,v064
 .byte   N06 ,As1 ,v080
 .byte   N06 ,En2 ,v064
 .byte   W06
 .byte   N01 ,En2 ,v016
 .byte   W06
 .byte   N06 ,As1 ,v080
 .byte   W12
 .byte   Dn1 ,v064
 .byte   N06 ,As1 ,v080
 .byte   N06 ,En2 ,v064
 .byte   W06
 .byte   N01 ,En2 ,v016
 .byte   W06
 .byte   Gs1 ,v112
 .byte   N01 ,Dn2
 .byte   W03
 .byte   Gs1 ,v096
 .byte   N01 ,Dn2 ,v112
 .byte   W03
 .byte   Gs1 ,v080
 .byte   N01 ,Cn2 ,v112
 .byte   W03
 .byte   Gs1 ,v096
 .byte   N01 ,Cn2 ,v112
 .byte   W03
 .byte   Gs1
 .byte   N01 ,Bn1
 .byte   W03
 .byte   Gs1 ,v096
 .byte   N01 ,Bn1 ,v112
 .byte   W03
 .byte   Gs1 ,v080
 .byte   N01 ,An1 ,v112
 .byte   W03
 .byte   Gs1 ,v096
 .byte   N01 ,An1 ,v112
 .byte   W03
 .byte   PEND 
@ 013   ----------------------------------------
 .byte   N06 ,Gs1 ,v080
 .byte   N06 ,Cs2 ,v096
 .byte   N06 ,Gn2
 .byte   W12
 .byte   Dn1 ,v064
 .byte   W12
 .byte   Gs1 ,v096
 .byte   W06
 .byte   N06
 .byte   W06
 .byte   Dn1 ,v064
 .byte   W12
 .byte   Gs1 ,v096
 .byte   W06
 .byte   N06
 .byte   W06
 .byte   Dn1 ,v064
 .byte   W12
 .byte   Gs1 ,v096
 .byte   W06
 .byte   N06
 .byte   W06
 .byte   Dn1 ,v064
 .byte   N06 ,Cs2 ,v080
 .byte   W06
 .byte   Gs1 ,v112
 .byte   W06
@ 014   ----------------------------------------
 .byte   Gs1 ,v096
 .byte   N06 ,Cs2
 .byte   N06 ,Gn2
 .byte   W06
 .byte   Gs1
 .byte   W06
 .byte   Dn1 ,v064
 .byte   W12
 .byte   Gs1 ,v096
 .byte   W06
 .byte   N06
 .byte   W06
 .byte   Dn1 ,v064
 .byte   W06
 .byte   Gn1 ,v096
 .byte   W06
 .byte   Gs1
 .byte   W06
 .byte   N06
 .byte   W06
 .byte   Dn1 ,v064
 .byte   W06
 .byte   Gn1 ,v096
 .byte   W06
 .byte   Gs1
 .byte   W06
 .byte   N06
 .byte   W06
 .byte   Dn1 ,v064
 .byte   N06 ,Cs2 ,v096
 .byte   W12
@ 015   ----------------------------------------
 .byte   N06
 .byte   N06 ,Gn2
 .byte   W12
 .byte   Dn1 ,v064
 .byte   W12
 .byte   Gs1 ,v096
 .byte   W06
 .byte   N06
 .byte   W06
 .byte   Dn1 ,v064
 .byte   W06
 .byte   Gs1 ,v096
 .byte   W06
 .byte   N06
 .byte   W06
 .byte   N06
 .byte   W06
 .byte   Dn1 ,v064
 .byte   W06
 .byte   Gs1 ,v096
 .byte   W06
 .byte   N06
 .byte   W06
 .byte   N06
 .byte   W06
 .byte   Dn1 ,v064
 .byte   W12
@ 016   ----------------------------------------
 .byte   Gs1 ,v096
 .byte   W06
 .byte   N06
 .byte   W06
 .byte   Dn1 ,v064
 .byte   W12
 .byte   Gs1 ,v096
 .byte   W06
 .byte   N06
 .byte   W06
 .byte   Dn1 ,v064
 .byte   W06
 .byte   Gs1 ,v096
 .byte   W06
 .byte   N06
 .byte   W06
 .byte   N06
 .byte   W06
 .byte   Dn1 ,v064
 .byte   W06
 .byte   Gs1 ,v096
 .byte   W06
 .byte   Dn1 ,v048
 .byte   W06
 .byte   Gs1 ,v096
 .byte   W06
 .byte   Dn1 ,v048
 .byte   W06
 .byte   Dn1 ,v032
 .byte   N06 ,Gs1 ,v096
 .byte   W06
@ 017   ----------------------------------------
 .byte   PATT
  .word Label_6_014B249E
@ 018   ----------------------------------------
 .byte   PATT
  .word Label_6_014B239C
@ 019   ----------------------------------------
 .byte   PATT
  .word Label_6_014B24FD
@ 020   ----------------------------------------
 .byte   PATT
  .word Label_6_014B2557
@ 021   ----------------------------------------
 .byte   N06 ,Gs1 ,v096
 .byte   N06 ,As1 ,v080
 .byte   N24 ,Cs2 ,v096
 .byte   W12
 .byte   N06 ,Dn1 ,v064
 .byte   N06 ,As1 ,v080
 .byte   N06 ,En2 ,v064
 .byte   W06
 .byte   N01 ,En2 ,v016
 .byte   W06
 .byte   N06 ,Gs1 ,v096
 .byte   N06 ,As1 ,v080
 .byte   W06
 .byte   Gs1 ,v096
 .byte   W06
 .byte   Dn1 ,v064
 .byte   N06 ,As1 ,v080
 .byte   N06 ,En2 ,v064
 .byte   W06
 .byte   N01 ,En2 ,v016
 .byte   W06
 .byte   N06 ,Gs1 ,v096
 .byte   N06 ,As1 ,v080
 .byte   W12
 .byte   Gs1
 .byte   N06 ,As1
 .byte   W06
 .byte   N01 ,En2 ,v016
 .byte   W06
 .byte   N06 ,Gs1 ,v080
 .byte   N06 ,As1
 .byte   W06
 .byte   Gs1 ,v096
 .byte   W06
 .byte   Dn1 ,v064
 .byte   N06 ,As1 ,v080
 .byte   N06 ,En2 ,v064
 .byte   W06
 .byte   N01 ,En2 ,v016
 .byte   W06
@ 022   ----------------------------------------
Label_6_014B26CE:
 .byte   N06 ,Gs1 ,v096
 .byte   N06 ,Cs2 ,v112
 .byte   W12
 .byte   Gs1 ,v080
 .byte   N06 ,Fn2 ,v064
 .byte   W06
 .byte   Dn1
 .byte   N06 ,Fn2 ,v096
 .byte   W12
 .byte   Fn2 ,v064
 .byte   W06
 .byte   Gs1 ,v096
 .byte   N06 ,Fn2 ,v080
 .byte   W12
 .byte   Gs1
 .byte   N06 ,Fn2 ,v064
 .byte   W06
 .byte   Dn1
 .byte   N06 ,Fn2 ,v096
 .byte   W12
 .byte   Gs1 ,v064
 .byte   N06 ,Fn2
 .byte   W06
 .byte   Gs1 ,v096
 .byte   N06 ,Fn2 ,v080
 .byte   W06
 .byte   Gs1
 .byte   N06 ,Fn2 ,v096
 .byte   W06
 .byte   Dn1 ,v064
 .byte   N06 ,Cs2
 .byte   W12
 .byte   PEND 
@ 023   ----------------------------------------
Label_6_014B2709:
 .byte   N06 ,Gs1 ,v096
 .byte   N06 ,Cs2 ,v112
 .byte   W12
 .byte   Fn2 ,v064
 .byte   W06
 .byte   Dn1
 .byte   N06 ,Fn2 ,v096
 .byte   W12
 .byte   Fn2 ,v064
 .byte   W06
 .byte   Gs1 ,v096
 .byte   N06 ,Fn2 ,v080
 .byte   W12
 .byte   Gs1
 .byte   N06 ,Fn2 ,v064
 .byte   W06
 .byte   Dn1
 .byte   N06 ,Fn2 ,v096
 .byte   W12
 .byte   Gs1 ,v064
 .byte   N06 ,Fn2
 .byte   W06
 .byte   Gs1 ,v096
 .byte   N06 ,Fn2 ,v080
 .byte   W06
 .byte   Gs1
 .byte   N06 ,Fn2 ,v096
 .byte   W06
 .byte   Dn1 ,v064
 .byte   W06
 .byte   N06
 .byte   W06
 .byte   PEND 
@ 024   ----------------------------------------
Label_6_014B2741:
 .byte   N06 ,Cs2 ,v112
 .byte   W12
 .byte   Gs1 ,v080
 .byte   N06 ,Fn2 ,v064
 .byte   W06
 .byte   Dn1
 .byte   N06 ,Fn2 ,v096
 .byte   W12
 .byte   Gs1
 .byte   N06 ,Fn2 ,v064
 .byte   W06
 .byte   Gs1 ,v096
 .byte   N06 ,Fn2 ,v080
 .byte   W12
 .byte   Gs1
 .byte   N06 ,Fn2 ,v064
 .byte   W06
 .byte   Dn1
 .byte   N06 ,Fn2 ,v096
 .byte   W12
 .byte   N01 ,Dn1 ,v064
 .byte   W03
 .byte   N01
 .byte   W03
 .byte   N01
 .byte   W03
 .byte   N01
 .byte   W03
 .byte   Bn1 ,v112
 .byte   W03
 .byte   N01
 .byte   W03
 .byte   N01
 .byte   W03
 .byte   N01
 .byte   W03
 .byte   An1
 .byte   W03
 .byte   N01
 .byte   W03
 .byte   PEND 
@ 025   ----------------------------------------
 .byte   PATT
  .word Label_6_014B24FD
@ 026   ----------------------------------------
 .byte   N06 ,Gs1 ,v096
 .byte   N06 ,As1 ,v080
 .byte   N24 ,Cs2 ,v096
 .byte   W12
 .byte   N06 ,Dn1 ,v064
 .byte   N06 ,As1 ,v080
 .byte   N06 ,En2 ,v064
 .byte   W06
 .byte   N01 ,En2 ,v016
 .byte   W06
 .byte   N06 ,Gs1 ,v096
 .byte   N06 ,As1 ,v080
 .byte   W06
 .byte   Gs1 ,v096
 .byte   W06
 .byte   Dn1 ,v064
 .byte   N06 ,As1 ,v080
 .byte   N06 ,En2 ,v064
 .byte   W06
 .byte   N01 ,En2 ,v016
 .byte   W06
 .byte   N06 ,Gs1 ,v096
 .byte   N06 ,As1 ,v080
 .byte   W06
 .byte   Gs1
 .byte   W06
 .byte   As1
 .byte   N06 ,Cn2 ,v112
 .byte   N06 ,En2 ,v064
 .byte   W06
 .byte   Bn1 ,v112
 .byte   W06
 .byte   N06
 .byte   W06
 .byte   N06
 .byte   W06
 .byte   An1
 .byte   W06
 .byte   N06
 .byte   W06
@ 027   ----------------------------------------
 .byte   N24 ,Cs2 ,v096
 .byte   W12
 .byte   N06 ,Cn2 ,v112
 .byte   W06
 .byte   N06
 .byte   W12
 .byte   Bn1
 .byte   W06
 .byte   N06
 .byte   W06
 .byte   N06
 .byte   W06
 .byte   An1
 .byte   N06 ,Cs2 ,v096
 .byte   W06
 .byte   Cn2 ,v112
 .byte   W06
 .byte   N06
 .byte   W06
 .byte   N12 ,Bn1
 .byte   N12 ,Cs2 ,v096
 .byte   W12
 .byte   N06 ,Bn1 ,v112
 .byte   W06
 .byte   An1
 .byte   W06
 .byte   N06
 .byte   W06
@ 028   ----------------------------------------
 .byte   Cn2
 .byte   N18 ,Cs2 ,v096
 .byte   W12
 .byte   N06 ,Bn1 ,v112
 .byte   W06
 .byte   N06
 .byte   N12 ,Cs2 ,v096
 .byte   W12
 .byte   N06 ,Bn1 ,v112
 .byte   W06
 .byte   N06
 .byte   W06
 .byte   An1
 .byte   W06
 .byte   Cn2
 .byte   N06 ,Cs2
 .byte   W06
 .byte   Cn2
 .byte   W06
 .byte   Bn1
 .byte   W06
 .byte   N06
 .byte   N12 ,Cs2
 .byte   W06
 .byte   N06 ,An1
 .byte   W06
 .byte   N01 ,Cn2 ,v127
 .byte   W03
 .byte   N01
 .byte   W03
 .byte   Bn1
 .byte   W03
 .byte   N01
 .byte   W03
 .byte   An1
 .byte   W03
 .byte   N01
 .byte   W03
@ 029   ----------------------------------------
Label_6_014B2828:
 .byte   N06 ,Gs1 ,v096
 .byte   N06 ,As1 ,v080
 .byte   N24 ,Cs2 ,v096
 .byte   W12
 .byte   N06 ,Dn1 ,v064
 .byte   N06 ,As1 ,v080
 .byte   N06 ,En2 ,v064
 .byte   W06
 .byte   N01 ,En2 ,v016
 .byte   W06
 .byte   N06 ,Gs1 ,v096
 .byte   N06 ,As1 ,v080
 .byte   W06
 .byte   Gs1 ,v096
 .byte   W06
 .byte   Dn1 ,v064
 .byte   N06 ,As1 ,v080
 .byte   N06 ,En2 ,v064
 .byte   W06
 .byte   N01 ,En2 ,v016
 .byte   W06
 .byte   N06 ,Gs1 ,v096
 .byte   N06 ,As1 ,v080
 .byte   W12
 .byte   Dn1 ,v064
 .byte   N06 ,As1 ,v080
 .byte   N06 ,En2 ,v064
 .byte   W06
 .byte   N01 ,En2 ,v016
 .byte   W06
 .byte   N06 ,Gs1 ,v096
 .byte   N06 ,As1 ,v080
 .byte   W06
 .byte   Gs1 ,v096
 .byte   W06
 .byte   Dn1 ,v064
 .byte   N06 ,As1 ,v080
 .byte   N06 ,En2 ,v064
 .byte   W06
 .byte   Gs1 ,v096
 .byte   N01 ,En2 ,v016
 .byte   W06
 .byte   PEND 
@ 030   ----------------------------------------
 .byte   N06 ,Gs1 ,v096
 .byte   N06 ,As1 ,v080
 .byte   W12
 .byte   Dn1 ,v064
 .byte   N06 ,As1 ,v080
 .byte   N06 ,En2 ,v064
 .byte   W06
 .byte   N01 ,En2 ,v016
 .byte   W06
 .byte   N06 ,Gs1 ,v096
 .byte   N06 ,As1 ,v080
 .byte   W12
 .byte   Dn1 ,v064
 .byte   N06 ,As1 ,v080
 .byte   N06 ,En2 ,v064
 .byte   W06
 .byte   Gs1 ,v096
 .byte   N01 ,En2 ,v016
 .byte   W06
 .byte   N06 ,As1 ,v080
 .byte   W06
 .byte   Gs1 ,v096
 .byte   W06
 .byte   Dn1 ,v064
 .byte   N06 ,As1 ,v080
 .byte   N06 ,En2 ,v064
 .byte   W06
 .byte   N01 ,En2 ,v016
 .byte   W06
 .byte   N06 ,Gs1 ,v096
 .byte   N06 ,As1 ,v080
 .byte   W06
 .byte   Gs1 ,v096
 .byte   W06
 .byte   Dn1 ,v064
 .byte   N06 ,As1 ,v080
 .byte   N06 ,En2 ,v064
 .byte   N06 ,Gn2 ,v096
 .byte   W06
 .byte   N01 ,En2 ,v016
 .byte   W06
@ 031   ----------------------------------------
Label_6_014B28DD:
 .byte   N06 ,Gs1 ,v096
 .byte   N06 ,As1 ,v080
 .byte   N24 ,Cs2 ,v096
 .byte   W12
 .byte   N06 ,Dn1 ,v064
 .byte   N06 ,As1 ,v080
 .byte   N06 ,En2 ,v064
 .byte   W06
 .byte   N01 ,En2 ,v016
 .byte   W06
 .byte   N06 ,Gs1 ,v096
 .byte   N06 ,As1 ,v080
 .byte   W06
 .byte   Gs1 ,v096
 .byte   W06
 .byte   Dn1 ,v064
 .byte   N06 ,As1 ,v080
 .byte   N06 ,En2 ,v064
 .byte   W06
 .byte   N01 ,En2 ,v016
 .byte   W06
 .byte   N06 ,Gs1 ,v096
 .byte   N06 ,As1 ,v080
 .byte   W12
 .byte   Dn1 ,v064
 .byte   N06 ,As1 ,v080
 .byte   N06 ,En2 ,v064
 .byte   W06
 .byte   N01 ,En2 ,v016
 .byte   W06
 .byte   N06 ,As1 ,v080
 .byte   W06
 .byte   Gs1 ,v096
 .byte   W06
 .byte   Dn1 ,v064
 .byte   N06 ,As1 ,v080
 .byte   N06 ,En2 ,v064
 .byte   W06
 .byte   N01 ,En2 ,v016
 .byte   W06
 .byte   PEND 
@ 032   ----------------------------------------
 .byte   N06 ,As1 ,v080
 .byte   N24 ,Cs2 ,v096
 .byte   W12
 .byte   N06 ,Dn1 ,v064
 .byte   N06 ,As1 ,v080
 .byte   N06 ,En2 ,v064
 .byte   W06
 .byte   N01 ,En2 ,v016
 .byte   W06
 .byte   N06 ,Gs1 ,v096
 .byte   N06 ,As1 ,v080
 .byte   W06
 .byte   Gs1 ,v096
 .byte   W06
 .byte   Dn1 ,v064
 .byte   N06 ,As1 ,v080
 .byte   N06 ,En2 ,v064
 .byte   W06
 .byte   N01 ,En2 ,v016
 .byte   W06
 .byte   N06 ,As1 ,v080
 .byte   W12
 .byte   Dn1 ,v064
 .byte   N06 ,As1 ,v080
 .byte   N06 ,En2 ,v064
 .byte   W06
 .byte   Gs1
 .byte   N01 ,En2 ,v016
 .byte   W06
 .byte   Gs1 ,v112
 .byte   N01 ,Dn2
 .byte   W03
 .byte   Gs1 ,v096
 .byte   N01 ,Dn2 ,v112
 .byte   W03
 .byte   Gs1 ,v080
 .byte   N01 ,Cn2 ,v112
 .byte   W03
 .byte   Gs1 ,v096
 .byte   N01 ,Cn2 ,v112
 .byte   W03
 .byte   Gs1
 .byte   N01 ,Bn1
 .byte   W03
 .byte   Gs1 ,v096
 .byte   N01 ,Bn1 ,v112
 .byte   W03
 .byte   Gs1 ,v080
 .byte   N01 ,An1 ,v112
 .byte   W03
 .byte   Gs1 ,v096
 .byte   N01 ,An1 ,v112
 .byte   W03
@ 033   ----------------------------------------
 .byte   N06 ,Gs1 ,v096
 .byte   N06 ,Cs2
 .byte   W24
 .byte   Gs1
 .byte   N06 ,Gn2 ,v112
 .byte   W12
 .byte   N04 ,Gs1 ,v048
 .byte   W04
 .byte   Gs1 ,v064
 .byte   W04
 .byte   Gs1 ,v080
 .byte   W04
 .byte   N06 ,Dn1 ,v048
 .byte   N06 ,Gs1 ,v096
 .byte   N06 ,Cs2
 .byte   W12
 .byte   N04 ,Gs1 ,v048
 .byte   W04
 .byte   Gs1 ,v064
 .byte   W04
 .byte   Gs1 ,v080
 .byte   W04
 .byte   N06 ,Dn1 ,v048
 .byte   N06 ,Gs1 ,v096
 .byte   N06 ,Cs2
 .byte   W12
 .byte   N04 ,Gs1 ,v048
 .byte   W04
 .byte   Gs1 ,v064
 .byte   W04
 .byte   Gs1 ,v080
 .byte   W04
@ 034   ----------------------------------------
 .byte   N06 ,Dn1 ,v048
 .byte   N06 ,Gs1 ,v096
 .byte   N06 ,Cs2
 .byte   W12
 .byte   N04 ,Gs1 ,v048
 .byte   W04
 .byte   Gs1 ,v064
 .byte   W04
 .byte   Gs1 ,v080
 .byte   W04
 .byte   N06 ,Dn1 ,v048
 .byte   N06 ,Gs1 ,v096
 .byte   N06 ,Cs2
 .byte   W12
 .byte   N04 ,Gs1 ,v048
 .byte   W04
 .byte   Gs1 ,v064
 .byte   W04
 .byte   Gs1 ,v080
 .byte   W04
 .byte   N06 ,Dn1 ,v048
 .byte   N06 ,Gs1 ,v096
 .byte   N06 ,Cs2
 .byte   W06
 .byte   N04 ,Gs1 ,v048
 .byte   W04
 .byte   Gs1 ,v064
 .byte   W04
 .byte   Gs1 ,v080
 .byte   W04
 .byte   Gs1 ,v064
 .byte   W04
 .byte   Gs1 ,v080
 .byte   W04
 .byte   N06 ,Dn1 ,v048
 .byte   N06 ,Gs1 ,v096
 .byte   N06 ,Cs2
 .byte   W12
 .byte   Gs1
 .byte   W10
@ 035   ----------------------------------------
 .byte   N06
 .byte   N06 ,Cs2
 .byte   W24
 .byte   Dn1 ,v048
 .byte   N06 ,Gs1 ,v096
 .byte   N06 ,Gn2
 .byte   W16
 .byte   N04 ,Gs1 ,v064
 .byte   W04
 .byte   Gs1 ,v096
 .byte   W04
 .byte   N06 ,Dn1 ,v048
 .byte   N06 ,Gs1 ,v096
 .byte   N06 ,Cs2
 .byte   W06
 .byte   Gs1
 .byte   W10
 .byte   N04 ,Gs1 ,v064
 .byte   W04
 .byte   Gs1 ,v096
 .byte   W04
 .byte   N06 ,Dn1 ,v048
 .byte   N06 ,Gs1 ,v096
 .byte   N06 ,Cs2
 .byte   W06
 .byte   Gs1
 .byte   W10
 .byte   N04 ,Gs1 ,v064
 .byte   W04
 .byte   Gs1 ,v096
 .byte   W04
@ 036   ----------------------------------------
Label_6_014B2A5C:
 .byte   N06 ,Dn1 ,v048
 .byte   N06 ,Gs1 ,v096
 .byte   N06 ,Cs2
 .byte   W06
 .byte   Gs1
 .byte   W10
 .byte   N04 ,Gs1 ,v064
 .byte   W04
 .byte   Gs1 ,v096
 .byte   W04
 .byte   N06 ,Dn1 ,v048
 .byte   N06 ,Gs1 ,v096
 .byte   N06 ,Cs2
 .byte   W06
 .byte   Gs1
 .byte   W10
 .byte   N04 ,Gs1 ,v064
 .byte   W04
 .byte   Gs1 ,v096
 .byte   W04
 .byte   N06 ,Dn1 ,v048
 .byte   N06 ,Gs1 ,v096
 .byte   N06 ,Cs2
 .byte   W06
 .byte   Gs1
 .byte   W10
 .byte   N04 ,Gs1 ,v064
 .byte   W04
 .byte   Gs1 ,v096
 .byte   W04
 .byte   N06 ,Dn1 ,v048
 .byte   N06 ,Gs1 ,v096
 .byte   N06 ,Cs2
 .byte   W06
 .byte   Gs1
 .byte   W12
 .byte   N06
 .byte   W06
 .byte   PEND 
@ 037   ----------------------------------------
 .byte   PATT
  .word Label_6_014B2828
@ 038   ----------------------------------------
 .byte   N06 ,Gs1 ,v096
 .byte   N06 ,As1 ,v080
 .byte   W12
 .byte   Dn1 ,v064
 .byte   N06 ,As1 ,v080
 .byte   N06 ,En2 ,v064
 .byte   W06
 .byte   N01 ,En2 ,v016
 .byte   W06
 .byte   N06 ,Gs1 ,v096
 .byte   N06 ,As1 ,v080
 .byte   W12
 .byte   Dn1 ,v064
 .byte   N06 ,As1 ,v080
 .byte   N06 ,En2 ,v064
 .byte   W06
 .byte   N01 ,En2 ,v016
 .byte   W06
 .byte   N06 ,As1 ,v080
 .byte   W06
 .byte   Gs1 ,v096
 .byte   W06
 .byte   Dn1 ,v064
 .byte   N06 ,As1 ,v080
 .byte   N06 ,En2 ,v064
 .byte   W06
 .byte   N01 ,En2 ,v016
 .byte   W06
 .byte   N06 ,Gs1 ,v096
 .byte   N06 ,As1 ,v080
 .byte   W06
 .byte   Gs1 ,v096
 .byte   W06
 .byte   Dn1 ,v064
 .byte   N06 ,As1 ,v080
 .byte   N06 ,En2 ,v064
 .byte   N06 ,Gn2 ,v096
 .byte   W06
 .byte   N01 ,En2 ,v016
 .byte   W06
@ 039   ----------------------------------------
 .byte   PATT
  .word Label_6_014B28DD
@ 040   ----------------------------------------
 .byte   N06 ,Gs1 ,v096
 .byte   N06 ,As1 ,v080
 .byte   N24 ,Cs2 ,v096
 .byte   W12
 .byte   N06 ,Dn1 ,v064
 .byte   N06 ,As1 ,v080
 .byte   N06 ,En2 ,v064
 .byte   W06
 .byte   N01 ,En2 ,v016
 .byte   W06
 .byte   N06 ,Gs1 ,v096
 .byte   N06 ,As1 ,v080
 .byte   W06
 .byte   Gs1 ,v096
 .byte   W06
 .byte   Dn1 ,v064
 .byte   N06 ,As1 ,v080
 .byte   N06 ,En2 ,v064
 .byte   W06
 .byte   N01 ,En2 ,v016
 .byte   W06
 .byte   N06 ,Gs1 ,v096
 .byte   N06 ,As1 ,v080
 .byte   W12
 .byte   Dn1 ,v064
 .byte   N06 ,As1 ,v080
 .byte   N06 ,En2 ,v064
 .byte   W06
 .byte   N01 ,En2 ,v016
 .byte   W06
 .byte   N06 ,Gs1 ,v096
 .byte   N06 ,As1 ,v080
 .byte   W06
 .byte   Gs1 ,v096
 .byte   W06
 .byte   Dn1 ,v064
 .byte   N06 ,As1 ,v080
 .byte   N06 ,En2 ,v064
 .byte   W06
 .byte   N01 ,En2 ,v016
 .byte   W06
@ 041   ----------------------------------------
Label_6_014B2B5A:
 .byte   N06 ,Gs1 ,v096
 .byte   N06 ,Cs2
 .byte   W12
 .byte   Dn1 ,v064
 .byte   N06 ,As1 ,v048
 .byte   W12
 .byte   Gs1 ,v096
 .byte   N06 ,As1 ,v064
 .byte   W06
 .byte   Gs1 ,v096
 .byte   W06
 .byte   Dn1 ,v064
 .byte   N06 ,As1 ,v080
 .byte   W12
 .byte   Gs1 ,v096
 .byte   N06 ,As1 ,v064
 .byte   W12
 .byte   Dn1
 .byte   N06 ,As1 ,v080
 .byte   W12
 .byte   Gs1 ,v096
 .byte   N06 ,As1 ,v064
 .byte   W06
 .byte   Gs1 ,v096
 .byte   W06
 .byte   Dn1 ,v064
 .byte   N06 ,As1 ,v080
 .byte   W06
 .byte   Gs1
 .byte   W06
 .byte   PEND 
@ 042   ----------------------------------------
 .byte   Gs1 ,v096
 .byte   N06 ,As1 ,v064
 .byte   W12
 .byte   Dn1 ,v048
 .byte   N06 ,As1 ,v080
 .byte   W12
 .byte   Gs1 ,v096
 .byte   N06 ,As1 ,v064
 .byte   W12
 .byte   Dn1 ,v048
 .byte   N06 ,As1 ,v064
 .byte   W06
 .byte   Gs1 ,v096
 .byte   W06
 .byte   As1 ,v064
 .byte   W06
 .byte   Gs1 ,v096
 .byte   W06
 .byte   Dn1 ,v064
 .byte   N06 ,As1 ,v080
 .byte   W12
 .byte   Gs1 ,v096
 .byte   N06 ,As1 ,v064
 .byte   W06
 .byte   Gs1 ,v096
 .byte   W06
 .byte   Dn1 ,v064
 .byte   N06 ,Cs2 ,v080
 .byte   W12
@ 043   ----------------------------------------
 .byte   Gs1 ,v096
 .byte   N06 ,Cs2
 .byte   W12
 .byte   Dn1 ,v064
 .byte   N06 ,As1 ,v048
 .byte   W12
 .byte   Gs1 ,v096
 .byte   N06 ,As1 ,v064
 .byte   W06
 .byte   Gs1 ,v096
 .byte   W06
 .byte   Dn1 ,v064
 .byte   N06 ,As1 ,v080
 .byte   W12
 .byte   Gs1 ,v096
 .byte   N06 ,As1 ,v064
 .byte   W12
 .byte   Dn1
 .byte   N06 ,As1 ,v080
 .byte   W12
 .byte   As1 ,v064
 .byte   W06
 .byte   Gs1 ,v096
 .byte   W06
 .byte   Dn1 ,v064
 .byte   N06 ,As1 ,v080
 .byte   W12
@ 044   ----------------------------------------
 .byte   Gs1 ,v096
 .byte   N06 ,As1 ,v064
 .byte   W12
 .byte   Dn1
 .byte   N06 ,As1 ,v048
 .byte   W12
 .byte   Gs1 ,v096
 .byte   N06 ,As1 ,v064
 .byte   W06
 .byte   Gs1 ,v096
 .byte   W06
 .byte   Dn1 ,v064
 .byte   N06 ,As1 ,v080
 .byte   W12
 .byte   Gs1 ,v096
 .byte   N06 ,As1 ,v064
 .byte   W12
 .byte   Dn1
 .byte   N06 ,As1 ,v080
 .byte   W12
 .byte   N01 ,Gs1 ,v112
 .byte   N01 ,Dn2
 .byte   W03
 .byte   Gs1 ,v096
 .byte   N01 ,Dn2 ,v112
 .byte   W03
 .byte   Gs1 ,v080
 .byte   N01 ,Cn2 ,v112
 .byte   W03
 .byte   Gs1 ,v096
 .byte   N01 ,Cn2 ,v112
 .byte   W03
 .byte   Gs1
 .byte   N01 ,Bn1
 .byte   W03
 .byte   Gs1 ,v096
 .byte   N01 ,Bn1 ,v112
 .byte   W03
 .byte   Gs1 ,v080
 .byte   N01 ,An1 ,v112
 .byte   W03
 .byte   Gs1 ,v096
 .byte   N01 ,An1 ,v112
 .byte   W03
@ 045   ----------------------------------------
 .byte   PATT
  .word Label_6_014B2B5A
@ 046   ----------------------------------------
 .byte   PATT
  .word Label_6_014B26CE
@ 047   ----------------------------------------
 .byte   PATT
  .word Label_6_014B2709
@ 048   ----------------------------------------
 .byte   PATT
  .word Label_6_014B2741
@ 049   ----------------------------------------
 .byte   PATT
  .word Label_6_014B249E
@ 050   ----------------------------------------
 .byte   PATT
  .word Label_6_014B239C
@ 051   ----------------------------------------
 .byte   PATT
  .word Label_6_014B24FD
@ 052   ----------------------------------------
 .byte   PATT
  .word Label_6_014B2449
@ 053   ----------------------------------------
 .byte   N06 ,Gs1 ,v096
 .byte   N06 ,Cs2
 .byte   W24
 .byte   Gs1
 .byte   N06 ,Gn2 ,v112
 .byte   W12
 .byte   N04 ,Gs1 ,v048
 .byte   W04
 .byte   Gs1 ,v064
 .byte   W04
 .byte   Gs1 ,v080
 .byte   W04
 .byte   Dn1 ,v048
 .byte   N04 ,Gs1 ,v096
 .byte   N04 ,Cs2
 .byte   W04
 .byte   Gs1 ,v048
 .byte   W04
 .byte   Gs1 ,v064
 .byte   W04
 .byte   Gs1 ,v048
 .byte   W04
 .byte   Gs1 ,v064
 .byte   W04
 .byte   Gs1 ,v080
 .byte   W04
 .byte   Dn1 ,v048
 .byte   N04 ,Gs1 ,v096
 .byte   N04 ,Cs2
 .byte   W04
 .byte   Gs1 ,v048
 .byte   W04
 .byte   Gs1 ,v064
 .byte   W04
 .byte   Gs1 ,v048
 .byte   W04
 .byte   Gs1 ,v064
 .byte   W04
 .byte   Gs1 ,v080
 .byte   W04
@ 054   ----------------------------------------
 .byte   N06 ,Dn1 ,v048
 .byte   N06 ,Gs1 ,v096
 .byte   N06 ,Cs2
 .byte   W12
 .byte   N04 ,Gs1 ,v048
 .byte   W04
 .byte   Gs1 ,v064
 .byte   W04
 .byte   Gs1 ,v080
 .byte   W04
 .byte   Dn1 ,v048
 .byte   N04 ,Gs1 ,v096
 .byte   N04 ,Cs2
 .byte   W04
 .byte   Gs1 ,v048
 .byte   W04
 .byte   Gs1 ,v064
 .byte   W04
 .byte   Gs1 ,v048
 .byte   W04
 .byte   Gs1 ,v064
 .byte   W04
 .byte   Gs1 ,v080
 .byte   W04
 .byte   N06 ,Dn1 ,v048
 .byte   N06 ,Gs1 ,v096
 .byte   N06 ,Cs2
 .byte   W06
 .byte   N04 ,Gs1 ,v048
 .byte   W04
 .byte   Gs1 ,v064
 .byte   W04
 .byte   Gs1 ,v080
 .byte   W04
 .byte   Gs1 ,v064
 .byte   W04
 .byte   Gs1 ,v080
 .byte   W04
 .byte   N06 ,Dn1 ,v048
 .byte   N06 ,Gs1 ,v096
 .byte   N06 ,Cs2
 .byte   W12
 .byte   Gs1
 .byte   W10
@ 055   ----------------------------------------
 .byte   N06
 .byte   N06 ,Cs2
 .byte   W24
 .byte   Dn1 ,v048
 .byte   N06 ,Gs1 ,v096
 .byte   N06 ,Gn2
 .byte   W12
 .byte   N04 ,Gs1 ,v064
 .byte   W04
 .byte   N04
 .byte   W04
 .byte   Gs1 ,v096
 .byte   W04
 .byte   Dn1 ,v048
 .byte   N04 ,Gs1 ,v096
 .byte   N04 ,Cs2
 .byte   W04
 .byte   Gs1
 .byte   W04
 .byte   Gs1 ,v064
 .byte   W04
 .byte   N04
 .byte   W04
 .byte   N04
 .byte   W04
 .byte   Gs1 ,v096
 .byte   W04
 .byte   N06 ,Dn1 ,v048
 .byte   N06 ,Gs1 ,v096
 .byte   N06 ,Cs2
 .byte   W06
 .byte   Gs1
 .byte   W10
 .byte   N04 ,Gs1 ,v064
 .byte   W04
 .byte   Gs1 ,v096
 .byte   W04
@ 056   ----------------------------------------
 .byte   PATT
  .word Label_6_014B2A5C
@ 057   ----------------------------------------
 .byte   PATT
  .word Label_6_014B26CE
@ 058   ----------------------------------------
 .byte   PATT
  .word Label_6_014B26CE
@ 059   ----------------------------------------
 .byte   PATT
  .word Label_6_014B2709
@ 060   ----------------------------------------
 .byte   PATT
  .word Label_6_014B2741
@ 061   ----------------------------------------
 .byte   N06 ,Gs1 ,v096
 .byte   N06 ,Cs2
 .byte   W12
 .byte   N04 ,Gs1 ,v048
 .byte   W04
 .byte   Gs1 ,v064
 .byte   W04
 .byte   Gs1 ,v080
 .byte   W04
 .byte   Dn1 ,v048
 .byte   N04 ,Gs1 ,v096
 .byte   N04 ,Cs2
 .byte   W12
 .byte   Gs1 ,v048
 .byte   W04
 .byte   Gs1 ,v064
 .byte   W04
 .byte   Gs1 ,v080
 .byte   W04
 .byte   Dn1 ,v048
 .byte   N04 ,Gs1 ,v096
 .byte   N04 ,Cs2
 .byte   W04
 .byte   Gs1 ,v048
 .byte   W08
 .byte   N04
 .byte   W04
 .byte   Gs1 ,v064
 .byte   W04
 .byte   Gs1 ,v080
 .byte   W04
 .byte   Dn1 ,v048
 .byte   N04 ,Gs1 ,v096
 .byte   N04 ,Cs2
 .byte   W12
 .byte   Gs1 ,v048
 .byte   W04
 .byte   Gs1 ,v064
 .byte   W04
 .byte   Gs1 ,v080
 .byte   W04
@ 062   ----------------------------------------
Label_6_014B2D9E:
 .byte   N04 ,Gs1 ,v096
 .byte   N04 ,Cs2
 .byte   W04
 .byte   Gs1 ,v048
 .byte   W04
 .byte   Gs1 ,v064
 .byte   W04
 .byte   Gs1 ,v080
 .byte   W04
 .byte   Gs1 ,v064
 .byte   W04
 .byte   N04
 .byte   W04
 .byte   Dn1 ,v048
 .byte   N04 ,Gs1 ,v096
 .byte   N04 ,Cs2
 .byte   W04
 .byte   Gs1 ,v048
 .byte   W04
 .byte   N04
 .byte   W04
 .byte   N04
 .byte   W04
 .byte   Gs1 ,v064
 .byte   W04
 .byte   Gs1 ,v080
 .byte   W04
 .byte   Dn1 ,v048
 .byte   N04 ,Gs1 ,v096
 .byte   N04 ,Cs2
 .byte   W04
 .byte   Gs1 ,v048
 .byte   W08
 .byte   Gs1 ,v080
 .byte   W04
 .byte   Gs1 ,v064
 .byte   W04
 .byte   N04
 .byte   W04
 .byte   Dn1 ,v048
 .byte   N04 ,Gs1 ,v096
 .byte   N04 ,Cs2
 .byte   W12
 .byte   Gs1 ,v080
 .byte   W12
 .byte   PEND 
@ 063   ----------------------------------------
 .byte   Gs1 ,v096
 .byte   N04 ,Cs2
 .byte   W04
 .byte   Gs1 ,v048
 .byte   W04
 .byte   Gs1 ,v064
 .byte   W04
 .byte   Gs1 ,v080
 .byte   W04
 .byte   Gs1 ,v064
 .byte   W04
 .byte   N04
 .byte   W04
 .byte   Dn1 ,v048
 .byte   N04 ,Gs1 ,v096
 .byte   N04 ,Cs2
 .byte   W04
 .byte   Gs1 ,v048
 .byte   W04
 .byte   N04
 .byte   W04
 .byte   N04
 .byte   W04
 .byte   Gs1 ,v064
 .byte   W04
 .byte   Gs1 ,v080
 .byte   W04
 .byte   Dn1 ,v048
 .byte   N04 ,Gs1 ,v096
 .byte   N04 ,Cs2
 .byte   W04
 .byte   Gs1 ,v048
 .byte   W08
 .byte   Gs1 ,v080
 .byte   W04
 .byte   Gs1 ,v064
 .byte   W04
 .byte   N04
 .byte   W04
 .byte   Dn1 ,v048
 .byte   N04 ,Gs1 ,v096
 .byte   N04 ,Cs2
 .byte   W12
 .byte   Gs1 ,v080
 .byte   W04
 .byte   Gs1 ,v064
 .byte   W04
 .byte   N04
 .byte   W04
@ 064   ----------------------------------------
 .byte   PATT
  .word Label_6_014B2D9E
@ 065   ----------------------------------------
 .byte   GOTO
  .word Label_6_014B230F
 .byte   FINE

@**************** Track 8 (Midi-Chn.7) ****************@

songC5_008:
@ 000   ----------------------------------------
 .byte   KEYSH , songC5_key+0
 .byte   VOICE , 33
 .byte   VOL , 26*songC5_mvl/mxv
 .byte   PAN , c_v+0
 .byte   BEND , c_v+0
 .byte   W96
@ 001   ----------------------------------------
Label_7_014B0927:
 .byte   W96
@ 002   ----------------------------------------
 .byte   W96
@ 003   ----------------------------------------
 .byte   W96
@ 004   ----------------------------------------
 .byte   W96
@ 005   ----------------------------------------
Label_7_014B092B:
 .byte   N12 ,Dn0 ,v096
 .byte   W12
 .byte   N06 ,Dn1
 .byte   W06
 .byte   Dn0
 .byte   W06
 .byte   N06
 .byte   W06
 .byte   N06
 .byte   W06
 .byte   N12 ,Dn1
 .byte   W05
 .byte   BEND , c_v-5
 .byte   W01
 .byte   BEND , c_v-11
 .byte   W06
 .byte   BEND , c_v+0
 .byte   N12 ,Dn0
 .byte   W12
 .byte   N06 ,Dn1
 .byte   W06
 .byte   Dn0
 .byte   W06
 .byte   N06
 .byte   W06
 .byte   N06
 .byte   W06
 .byte   N12 ,Dn1
 .byte   W05
 .byte   BEND , c_v-5
 .byte   W01
 .byte   BEND , c_v-11
 .byte   W06
 .byte   PEND 
@ 006   ----------------------------------------
Label_7_014B0956:
 .byte   BEND , c_v+0
 .byte   N12 ,Dn0 ,v096
 .byte   W12
 .byte   N06 ,Dn1
 .byte   W06
 .byte   Dn0
 .byte   W06
 .byte   N06
 .byte   W06
 .byte   N06
 .byte   W06
 .byte   N12 ,Dn1
 .byte   W05
 .byte   BEND , c_v-5
 .byte   W01
 .byte   BEND , c_v-11
 .byte   W06
 .byte   BEND , c_v+0
 .byte   N12 ,Dn0
 .byte   W12
 .byte   N06 ,Dn1
 .byte   W06
 .byte   Dn0
 .byte   W06
 .byte   N06
 .byte   W06
 .byte   N06
 .byte   W06
 .byte   N12 ,Dn1
 .byte   W05
 .byte   BEND , c_v-5
 .byte   W01
 .byte   BEND , c_v-11
 .byte   W06
 .byte   PEND 
@ 007   ----------------------------------------
Label_7_014B0983:
 .byte   BEND , c_v+0
 .byte   N12 ,Dn0 ,v096
 .byte   W12
 .byte   Dn1
 .byte   W12
 .byte   N06 ,Dn0
 .byte   W06
 .byte   N06
 .byte   W06
 .byte   N12 ,Dn1
 .byte   W05
 .byte   BEND , c_v-5
 .byte   W01
 .byte   BEND , c_v-11
 .byte   W06
 .byte   BEND , c_v+0
 .byte   N12 ,Dn0
 .byte   W12
 .byte   N06 ,Dn1
 .byte   W06
 .byte   Dn0
 .byte   W06
 .byte   N06
 .byte   W06
 .byte   N06
 .byte   W06
 .byte   N12 ,Dn1
 .byte   W05
 .byte   BEND , c_v-5
 .byte   W01
 .byte   BEND , c_v-11
 .byte   W06
 .byte   PEND 
@ 008   ----------------------------------------
 .byte   PATT
  .word Label_7_014B0956
@ 009   ----------------------------------------
 .byte   PATT
  .word Label_7_014B0956
@ 010   ----------------------------------------
 .byte   PATT
  .word Label_7_014B0956
@ 011   ----------------------------------------
 .byte   PATT
  .word Label_7_014B0983
@ 012   ----------------------------------------
 .byte   PATT
  .word Label_7_014B0956
@ 013   ----------------------------------------
 .byte   BEND , c_v+0
 .byte   N06 ,En0 ,v096
 .byte   W06
 .byte   N06
 .byte   W06
 .byte   En1
 .byte   W06
 .byte   En0
 .byte   W06
 .byte   Dn1
 .byte   W06
 .byte   En0
 .byte   W06
 .byte   N12 ,En1
 .byte   W12
 .byte   N06 ,En0
 .byte   W06
 .byte   N06
 .byte   W06
 .byte   En1
 .byte   W06
 .byte   En0
 .byte   W06
 .byte   Dn1
 .byte   W06
 .byte   En0
 .byte   W06
 .byte   N12 ,En1
 .byte   W12
@ 014   ----------------------------------------
Label_7_014B09EA:
 .byte   N06 ,En0 ,v096
 .byte   W06
 .byte   N06
 .byte   W06
 .byte   En1
 .byte   W06
 .byte   En0
 .byte   W06
 .byte   Dn1
 .byte   W06
 .byte   En0
 .byte   W06
 .byte   N12 ,En1
 .byte   W12
 .byte   N06 ,En0
 .byte   W06
 .byte   N06
 .byte   W06
 .byte   En1
 .byte   W06
 .byte   En0
 .byte   W06
 .byte   Dn1
 .byte   W06
 .byte   En0
 .byte   W06
 .byte   N12 ,En1
 .byte   W12
 .byte   PEND 
@ 015   ----------------------------------------
 .byte   PATT
  .word Label_7_014B09EA
@ 016   ----------------------------------------
 .byte   PATT
  .word Label_7_014B09EA
@ 017   ----------------------------------------
 .byte   PATT
  .word Label_7_014B092B
@ 018   ----------------------------------------
 .byte   PATT
  .word Label_7_014B0956
@ 019   ----------------------------------------
 .byte   PATT
  .word Label_7_014B0983
@ 020   ----------------------------------------
 .byte   PATT
  .word Label_7_014B0956
@ 021   ----------------------------------------
 .byte   BEND , c_v+0
 .byte   N12 ,An0 ,v096
 .byte   W12
 .byte   An1
 .byte   W12
 .byte   N06 ,An0
 .byte   W06
 .byte   N06
 .byte   W06
 .byte   N12 ,An1
 .byte   W12
 .byte   An0
 .byte   W12
 .byte   N06 ,An1
 .byte   W06
 .byte   An0
 .byte   W06
 .byte   N06
 .byte   W06
 .byte   N06
 .byte   W06
 .byte   N12 ,An1
 .byte   W12
@ 022   ----------------------------------------
Label_7_014B0A48:
 .byte   N12 ,Gn0 ,v096
 .byte   W12
 .byte   N06 ,Gn1
 .byte   W06
 .byte   N12 ,Gn0
 .byte   W12
 .byte   N06
 .byte   W06
 .byte   N12
 .byte   W12
 .byte   N06 ,Gn1
 .byte   W06
 .byte   N12 ,Gn0
 .byte   W12
 .byte   N06
 .byte   W06
 .byte   N06
 .byte   W06
 .byte   N06
 .byte   W06
 .byte   N12 ,Gn1
 .byte   W12
 .byte   PEND 
@ 023   ----------------------------------------
Label_7_014B0A66:
 .byte   N12 ,Fn0 ,v096
 .byte   W12
 .byte   N06
 .byte   W06
 .byte   N12 ,Fn1
 .byte   W12
 .byte   N06 ,Fn0
 .byte   W06
 .byte   N12
 .byte   W12
 .byte   N06
 .byte   W06
 .byte   N12 ,Fn1
 .byte   W12
 .byte   N06 ,Fn0
 .byte   W06
 .byte   N06
 .byte   W06
 .byte   N06
 .byte   W06
 .byte   Fn1
 .byte   W06
 .byte   N06
 .byte   W06
 .byte   PEND 
@ 024   ----------------------------------------
Label_7_014B0A85:
 .byte   N12 ,Gn0 ,v096
 .byte   W12
 .byte   N06
 .byte   W06
 .byte   N12 ,Gn1
 .byte   W12
 .byte   N06 ,Gn0
 .byte   W06
 .byte   N12
 .byte   W12
 .byte   N06
 .byte   W06
 .byte   N12 ,Gn1
 .byte   W12
 .byte   N06 ,Gn0
 .byte   W06
 .byte   N06
 .byte   W06
 .byte   N06
 .byte   W06
 .byte   N06
 .byte   W06
 .byte   N06
 .byte   W06
 .byte   PEND 
@ 025   ----------------------------------------
 .byte   N12 ,An0
 .byte   W12
 .byte   An1
 .byte   W12
 .byte   N06 ,An0
 .byte   W06
 .byte   N06
 .byte   W06
 .byte   N12 ,An1
 .byte   W12
 .byte   An0
 .byte   W12
 .byte   N06 ,An1
 .byte   W06
 .byte   An0
 .byte   W06
 .byte   N06
 .byte   W06
 .byte   N06
 .byte   W06
 .byte   N12 ,An1
 .byte   W12
@ 026   ----------------------------------------
 .byte   PATT
  .word Label_7_014B0A48
@ 027   ----------------------------------------
 .byte   PATT
  .word Label_7_014B0A66
@ 028   ----------------------------------------
 .byte   PATT
  .word Label_7_014B0A85
@ 029   ----------------------------------------
 .byte   N12 ,Dn1 ,v080
 .byte   W12
 .byte   Dn2
 .byte   W12
 .byte   N06 ,Dn1
 .byte   W06
 .byte   N06
 .byte   W06
 .byte   N12 ,Dn2
 .byte   W12
 .byte   N06 ,Dn1
 .byte   W06
 .byte   N03 ,Dn2
 .byte   W03
 .byte   Cn2
 .byte   W03
 .byte   N12 ,Dn2
 .byte   W12
 .byte   N06 ,Dn1
 .byte   W06
 .byte   N06
 .byte   W06
 .byte   Dn2
 .byte   W06
 .byte   N06
 .byte   W06
@ 030   ----------------------------------------
 .byte   N12 ,Ds1
 .byte   W12
 .byte   Ds2
 .byte   W12
 .byte   N06 ,Ds1
 .byte   W06
 .byte   N06
 .byte   W06
 .byte   N12 ,Ds2
 .byte   W12
 .byte   N06 ,Ds2 ,v096
 .byte   W06
 .byte   Dn2
 .byte   W06
 .byte   Cn2
 .byte   W06
 .byte   Gn1
 .byte   W06
 .byte   Ds1
 .byte   W06
 .byte   Dn1
 .byte   W06
 .byte   Cn1
 .byte   W06
 .byte   Gn0
 .byte   W06
@ 031   ----------------------------------------
 .byte   N12 ,Fn0 ,v080
 .byte   W12
 .byte   Fn1
 .byte   W12
 .byte   N06 ,Fn0
 .byte   W06
 .byte   N06
 .byte   W06
 .byte   N12 ,Fn1
 .byte   W12
 .byte   Fn0
 .byte   W12
 .byte   Cn1
 .byte   W12
 .byte   N06 ,Fn0
 .byte   W06
 .byte   N06
 .byte   W06
 .byte   N12 ,Fn1
 .byte   W12
@ 032   ----------------------------------------
 .byte   Fn0
 .byte   W12
 .byte   Fn1
 .byte   W12
 .byte   N06 ,Fn0
 .byte   W06
 .byte   N06
 .byte   W06
 .byte   Fn1
 .byte   W06
 .byte   Fn0 ,v096
 .byte   W06
 .byte   N12
 .byte   W12
 .byte   Fn1
 .byte   W12
 .byte   N06 ,Fn0
 .byte   W06
 .byte   N06
 .byte   W06
 .byte   N06
 .byte   W06
 .byte   N06
 .byte   W06
@ 033   ----------------------------------------
Label_7_014B0B44:
 .byte   N12 ,An1 ,v096
 .byte   W12
 .byte   N12
 .byte   W12
 .byte   N12
 .byte   W12
 .byte   N12
 .byte   W12
 .byte   N12
 .byte   W12
 .byte   N12
 .byte   W12
 .byte   N12
 .byte   W12
 .byte   N12
 .byte   W12
 .byte   PEND 
@ 034   ----------------------------------------
 .byte   PATT
  .word Label_7_014B0B44
@ 035   ----------------------------------------
 .byte   PATT
  .word Label_7_014B0B44
@ 036   ----------------------------------------
 .byte   PATT
  .word Label_7_014B0B44
@ 037   ----------------------------------------
 .byte   PATT
  .word Label_7_014B0B44
@ 038   ----------------------------------------
 .byte   PATT
  .word Label_7_014B0B44
@ 039   ----------------------------------------
 .byte   PATT
  .word Label_7_014B0B44
@ 040   ----------------------------------------
 .byte   PATT
  .word Label_7_014B0B44
@ 041   ----------------------------------------
 .byte   W96
@ 042   ----------------------------------------
 .byte   W96
@ 043   ----------------------------------------
 .byte   W96
@ 044   ----------------------------------------
 .byte   W96
@ 045   ----------------------------------------
 .byte   N12 ,Fn0 ,v080
 .byte   W12
 .byte   Fn1
 .byte   W12
 .byte   N06 ,Fn0
 .byte   W06
 .byte   N06
 .byte   W06
 .byte   Fn1
 .byte   W06
 .byte   Fn0
 .byte   W06
 .byte   N12
 .byte   W12
 .byte   Fn1
 .byte   W12
 .byte   N06 ,Fn0
 .byte   W06
 .byte   N06
 .byte   W06
 .byte   Fn1
 .byte   W06
 .byte   Fn0
 .byte   W06
@ 046   ----------------------------------------
 .byte   N12
 .byte   W12
 .byte   N06
 .byte   W06
 .byte   N12 ,Fn1
 .byte   W12
 .byte   N06 ,Fn0
 .byte   W06
 .byte   N12
 .byte   W12
 .byte   N06
 .byte   W06
 .byte   N12 ,Fn1
 .byte   W12
 .byte   N06 ,Fn0
 .byte   W06
 .byte   N06
 .byte   W06
 .byte   N06
 .byte   W06
 .byte   N12 ,Fn1
 .byte   W12
@ 047   ----------------------------------------
 .byte   Fn0
 .byte   W12
 .byte   N06
 .byte   W06
 .byte   N12 ,Fn1
 .byte   W12
 .byte   N06 ,Fn0
 .byte   W06
 .byte   N12
 .byte   W12
 .byte   N06
 .byte   W06
 .byte   N12 ,Fn1
 .byte   W12
 .byte   N06 ,Fn0
 .byte   W06
 .byte   N06
 .byte   W06
 .byte   N06
 .byte   W06
 .byte   Fn1
 .byte   W06
 .byte   Fn0 ,v096
 .byte   W06
@ 048   ----------------------------------------
 .byte   PATT
  .word Label_7_014B0A85
@ 049   ----------------------------------------
Label_7_014B0BD7:
 .byte   N12 ,An0 ,v096
 .byte   W12
 .byte   An1
 .byte   W12
 .byte   N06 ,An0
 .byte   W06
 .byte   N03 ,An1
 .byte   W03
 .byte   An0 ,v080
 .byte   W03
 .byte   N12 ,An1 ,v096
 .byte   W12
 .byte   An0
 .byte   W12
 .byte   An1
 .byte   W12
 .byte   N06 ,An0
 .byte   W06
 .byte   N06
 .byte   W06
 .byte   An1
 .byte   W06
 .byte   An0
 .byte   W06
 .byte   PEND 
@ 050   ----------------------------------------
Label_7_014B0BF8:
 .byte   N12 ,An0 ,v096
 .byte   W12
 .byte   An1
 .byte   W12
 .byte   N06 ,An0
 .byte   W06
 .byte   N12 ,An1
 .byte   W12
 .byte   An0
 .byte   W12
 .byte   N06
 .byte   W06
 .byte   N12 ,An1
 .byte   W12
 .byte   N06 ,An0
 .byte   W06
 .byte   N06
 .byte   W06
 .byte   N12 ,An1
 .byte   W12
 .byte   PEND 
@ 051   ----------------------------------------
Label_7_014B0C14:
 .byte   N12 ,An0 ,v096
 .byte   W12
 .byte   An1
 .byte   W12
 .byte   N06 ,An0
 .byte   W06
 .byte   An1
 .byte   W06
 .byte   An0
 .byte   W06
 .byte   An1
 .byte   W06
 .byte   N12 ,Dn0
 .byte   W12
 .byte   Dn1
 .byte   W12
 .byte   N06 ,Dn0
 .byte   W06
 .byte   Dn1
 .byte   W06
 .byte   Dn0
 .byte   W06
 .byte   Dn1
 .byte   W06
 .byte   PEND 
@ 052   ----------------------------------------
Label_7_014B0C32:
 .byte   N12 ,An0 ,v096
 .byte   W12
 .byte   An1
 .byte   W12
 .byte   N06 ,An0
 .byte   W06
 .byte   An1
 .byte   W06
 .byte   An0
 .byte   W06
 .byte   An1
 .byte   W06
 .byte   N12 ,An0
 .byte   W12
 .byte   An1
 .byte   W12
 .byte   N06 ,An0
 .byte   W06
 .byte   An1
 .byte   W06
 .byte   An0
 .byte   W06
 .byte   An1
 .byte   W06
 .byte   PEND 
@ 053   ----------------------------------------
 .byte   PATT
  .word Label_7_014B0BD7
@ 054   ----------------------------------------
 .byte   PATT
  .word Label_7_014B0BF8
@ 055   ----------------------------------------
 .byte   PATT
  .word Label_7_014B0C14
@ 056   ----------------------------------------
 .byte   PATT
  .word Label_7_014B0C32
@ 057   ----------------------------------------
 .byte   PATT
  .word Label_7_014B09EA
@ 058   ----------------------------------------
 .byte   PATT
  .word Label_7_014B09EA
@ 059   ----------------------------------------
 .byte   PATT
  .word Label_7_014B09EA
@ 060   ----------------------------------------
 .byte   PATT
  .word Label_7_014B09EA
@ 061   ----------------------------------------
 .byte   PATT
  .word Label_7_014B09EA
@ 062   ----------------------------------------
 .byte   PATT
  .word Label_7_014B09EA
@ 063   ----------------------------------------
 .byte   PATT
  .word Label_7_014B09EA
@ 064   ----------------------------------------
 .byte   PATT
  .word Label_7_014B09EA
@ 065   ----------------------------------------
 .byte   GOTO
  .word Label_7_014B0927
@ 066   ----------------------------------------
 .byte   BEND , c_v+0
 .byte   FINE

@**************** Track 9 (Midi-Chn.8) ****************@

songC5_009:
@ 000   ----------------------------------------
 .byte   KEYSH , songC5_key+0
 .byte   VOICE , 30
 .byte   MOD 4
 .byte   VOL , 26*songC5_mvl/mxv
 .byte   PAN , c_v-16
 .byte   W96
@ 001   ----------------------------------------
Label_8_014B2EB7:
 .byte   W96
@ 002   ----------------------------------------
 .byte   W96
@ 003   ----------------------------------------
 .byte   W96
@ 004   ----------------------------------------
 .byte   W96
@ 005   ----------------------------------------
 .byte   N96 ,An2 ,v064
 .byte   N96 ,Dn3
 .byte   W96
@ 006   ----------------------------------------
 .byte   An1
 .byte   N96 ,Dn2
 .byte   W96
@ 007   ----------------------------------------
 .byte   An2
 .byte   N96 ,Dn3
 .byte   W96
@ 008   ----------------------------------------
 .byte   An1
 .byte   N96 ,Dn2
 .byte   W96
@ 009   ----------------------------------------
 .byte   An2
 .byte   N96 ,Dn3
 .byte   W96
@ 010   ----------------------------------------
 .byte   An1
 .byte   N96 ,Dn2
 .byte   W96
@ 011   ----------------------------------------
 .byte   An2
 .byte   N96 ,Dn3
 .byte   W96
@ 012   ----------------------------------------
 .byte   An1
 .byte   N96 ,Dn2
 .byte   W96
@ 013   ----------------------------------------
 .byte   VOL , 22*songC5_mvl/mxv
 .byte   N09 ,En2 ,v048
 .byte   W12
 .byte   N04 ,En2 ,v080
 .byte   W06
 .byte   N09 ,Dn2 ,v096
 .byte   W12
 .byte   N04 ,Dn2 ,v048
 .byte   W06
 .byte   N09 ,Fn2 ,v096
 .byte   W12
 .byte   N04 ,Fn2 ,v080
 .byte   W06
 .byte   N09 ,En2 ,v096
 .byte   W12
 .byte   N04 ,En2 ,v080
 .byte   W06
 .byte   Dn2 ,v096
 .byte   W06
 .byte   Dn2 ,v080
 .byte   W06
 .byte   En2 ,v096
 .byte   W06
 .byte   N06
 .byte   W06
@ 014   ----------------------------------------
Label_8_014B2F0A:
 .byte   N09 ,En2 ,v112
 .byte   W12
 .byte   N04 ,En2 ,v080
 .byte   W06
 .byte   N09 ,Dn2 ,v096
 .byte   W12
 .byte   N04 ,Dn2 ,v080
 .byte   W06
 .byte   N09 ,Fn2 ,v048
 .byte   W12
 .byte   N04 ,Fn2 ,v064
 .byte   W06
 .byte   N09 ,En2 ,v048
 .byte   W12
 .byte   N04 ,En2 ,v032
 .byte   W06
 .byte   Dn2
 .byte   W06
 .byte   N04
 .byte   W06
 .byte   En2
 .byte   W06
 .byte   N06
 .byte   W06
 .byte   PEND 
@ 015   ----------------------------------------
 .byte   N09 ,En2 ,v096
 .byte   W12
 .byte   N04 ,En2 ,v080
 .byte   W06
 .byte   N09 ,Dn2 ,v096
 .byte   W12
 .byte   N04 ,Dn2 ,v080
 .byte   W06
 .byte   N09 ,Fn2 ,v096
 .byte   W12
 .byte   N04 ,Fn2 ,v080
 .byte   W06
 .byte   N09 ,En2 ,v096
 .byte   W12
 .byte   N04 ,En2 ,v080
 .byte   W06
 .byte   Dn2 ,v096
 .byte   W06
 .byte   Dn2 ,v080
 .byte   W06
 .byte   En2 ,v096
 .byte   W06
 .byte   N06
 .byte   W06
@ 016   ----------------------------------------
 .byte   PATT
  .word Label_8_014B2F0A
@ 017   ----------------------------------------
 .byte   VOL , 26*songC5_mvl/mxv
 .byte   N96 ,An2 ,v064
 .byte   N96 ,Dn3
 .byte   W96
@ 018   ----------------------------------------
 .byte   An1
 .byte   N96 ,Dn2
 .byte   W96
@ 019   ----------------------------------------
 .byte   An2
 .byte   N96 ,Dn3
 .byte   W96
@ 020   ----------------------------------------
 .byte   An1
 .byte   N96 ,Dn2
 .byte   W96
@ 021   ----------------------------------------
 .byte   VOL , 24*songC5_mvl/mxv
 .byte   N09 ,An2
 .byte   W12
 .byte   N03
 .byte   W06
 .byte   N09 ,An2 ,v080
 .byte   W12
 .byte   N03
 .byte   W06
 .byte   N12
 .byte   W12
 .byte   N06 ,An2 ,v064
 .byte   W06
 .byte   N12 ,An2 ,v080
 .byte   W18
 .byte   N09
 .byte   W12
 .byte   N09
 .byte   W12
@ 022   ----------------------------------------
Label_8_014B2F92:
 .byte   N09 ,Gn2 ,v064
 .byte   W12
 .byte   N03
 .byte   W06
 .byte   N09 ,Gn2 ,v080
 .byte   W12
 .byte   N03
 .byte   W06
 .byte   N12
 .byte   W12
 .byte   N06 ,Gn2 ,v064
 .byte   W06
 .byte   N12 ,Gn2 ,v096
 .byte   W12
 .byte   N06 ,Gn2 ,v080
 .byte   W06
 .byte   N04 ,Gn2 ,v096
 .byte   W06
 .byte   Gn2 ,v080
 .byte   W06
 .byte   Gn2 ,v096
 .byte   W06
 .byte   Gn2 ,v080
 .byte   W06
 .byte   PEND 
@ 023   ----------------------------------------
Label_8_014B2FBA:
 .byte   N09 ,Fn2 ,v096
 .byte   W12
 .byte   N03 ,Fn2 ,v064
 .byte   W06
 .byte   N09 ,Fn2 ,v080
 .byte   W12
 .byte   N03
 .byte   W06
 .byte   N09
 .byte   W12
 .byte   N04 ,Fn2 ,v064
 .byte   W06
 .byte   N09 ,Fn2 ,v048
 .byte   W18
 .byte   N04 ,Fn2 ,v080
 .byte   W06
 .byte   Fn2 ,v064
 .byte   W06
 .byte   Fn2 ,v096
 .byte   W06
 .byte   Fn2 ,v080
 .byte   W06
 .byte   PEND 
@ 024   ----------------------------------------
Label_8_014B2FE0:
 .byte   W18
 .byte   N03 ,Gn2 ,v064
 .byte   W06
 .byte   N09 ,Gn2 ,v080
 .byte   W12
 .byte   N03 ,Gn2 ,v064
 .byte   W06
 .byte   N04
 .byte   W06
 .byte   N09 ,Gn2 ,v080
 .byte   W12
 .byte   N03 ,Gn2 ,v064
 .byte   W06
 .byte   N09 ,Gn2 ,v080
 .byte   W12
 .byte   N04 ,Gn2 ,v064
 .byte   W06
 .byte   Gn2 ,v080
 .byte   W06
 .byte   Gn2 ,v096
 .byte   W06
 .byte   PEND 
@ 025   ----------------------------------------
 .byte   N09 ,An2 ,v064
 .byte   W12
 .byte   N03
 .byte   W06
 .byte   N09 ,An2 ,v080
 .byte   W12
 .byte   N03
 .byte   W06
 .byte   N12
 .byte   W12
 .byte   N06 ,An2 ,v064
 .byte   W06
 .byte   N12 ,An2 ,v080
 .byte   W18
 .byte   N09
 .byte   W12
 .byte   N09
 .byte   W12
@ 026   ----------------------------------------
 .byte   PATT
  .word Label_8_014B2F92
@ 027   ----------------------------------------
 .byte   PATT
  .word Label_8_014B2FBA
@ 028   ----------------------------------------
 .byte   PATT
  .word Label_8_014B2FE0
@ 029   ----------------------------------------
 .byte   N12 ,An2 ,v080
 .byte   W12
 .byte   N12
 .byte   W12
 .byte   N06
 .byte   W06
 .byte   N06
 .byte   W06
 .byte   N12
 .byte   W12
 .byte   An2 ,v064
 .byte   W12
 .byte   An2 ,v080
 .byte   W12
 .byte   N06
 .byte   W06
 .byte   N06
 .byte   W06
 .byte   N12
 .byte   W12
@ 030   ----------------------------------------
 .byte   Gn2
 .byte   W12
 .byte   N12
 .byte   W12
 .byte   N06
 .byte   W06
 .byte   N06
 .byte   W06
 .byte   N12
 .byte   W12
 .byte   N12
 .byte   W12
 .byte   N12
 .byte   W12
 .byte   N06
 .byte   W06
 .byte   N06
 .byte   W06
 .byte   N12
 .byte   W12
@ 031   ----------------------------------------
 .byte   N09 ,Fn2
 .byte   W12
 .byte   N03
 .byte   W06
 .byte   N09
 .byte   W12
 .byte   N03
 .byte   W06
 .byte   N12
 .byte   W12
 .byte   N12
 .byte   W12
 .byte   N01
 .byte   W06
 .byte   N04
 .byte   W06
 .byte   N04
 .byte   W06
 .byte   N04
 .byte   W06
 .byte   N12
 .byte   W12
@ 032   ----------------------------------------
 .byte   N09
 .byte   W12
 .byte   N03
 .byte   W06
 .byte   N09
 .byte   W12
 .byte   N03
 .byte   W06
 .byte   N06
 .byte   W06
 .byte   N06
 .byte   W06
 .byte   N12
 .byte   W12
 .byte   N03 ,Fn2 ,v064
 .byte   W06
 .byte   N09
 .byte   W12
 .byte   N03 ,Fn2 ,v048
 .byte   W06
 .byte   N09
 .byte   W12
@ 033   ----------------------------------------
Label_8_014B308C:
 .byte   N19 ,En2 ,v080
 .byte   W24
 .byte   N24
 .byte   W24
 .byte   N24
 .byte   W24
 .byte   N19
 .byte   W24
 .byte   PEND 
@ 034   ----------------------------------------
Label_8_014B3097:
 .byte   N24 ,En2 ,v080
 .byte   W24
 .byte   N24
 .byte   W24
 .byte   N09
 .byte   W24
 .byte   N09
 .byte   W24
 .byte   PEND 
@ 035   ----------------------------------------
 .byte   PATT
  .word Label_8_014B308C
@ 036   ----------------------------------------
 .byte   PATT
  .word Label_8_014B3097
@ 037   ----------------------------------------
 .byte   PATT
  .word Label_8_014B308C
@ 038   ----------------------------------------
 .byte   PATT
  .word Label_8_014B3097
@ 039   ----------------------------------------
 .byte   PATT
  .word Label_8_014B308C
@ 040   ----------------------------------------
 .byte   PATT
  .word Label_8_014B3097
@ 041   ----------------------------------------
 .byte   W96
@ 042   ----------------------------------------
 .byte   W96
@ 043   ----------------------------------------
 .byte   W96
@ 044   ----------------------------------------
 .byte   W96
@ 045   ----------------------------------------
 .byte   W96
@ 046   ----------------------------------------
 .byte   W96
@ 047   ----------------------------------------
 .byte   W96
@ 048   ----------------------------------------
 .byte   W96
@ 049   ----------------------------------------
Label_8_014B30C8:
 .byte   N48 ,En2 ,v096
 .byte   W48
 .byte   N48
 .byte   W48
 .byte   PEND 
@ 050   ----------------------------------------
Label_8_014B30CF:
 .byte   N48 ,En2 ,v080
 .byte   W48
 .byte   N48
 .byte   W48
 .byte   PEND 
@ 051   ----------------------------------------
 .byte   N09
 .byte   W12
 .byte   N06
 .byte   W06
 .byte   N09
 .byte   W12
 .byte   N06
 .byte   W06
 .byte   N12
 .byte   W12
 .byte   N09 ,Dn2
 .byte   W12
 .byte   N06
 .byte   W06
 .byte   N09
 .byte   W12
 .byte   N06
 .byte   W06
 .byte   N12
 .byte   W12
@ 052   ----------------------------------------
 .byte   N48 ,En2
 .byte   W48
 .byte   N09
 .byte   W12
 .byte   N01
 .byte   W24
 .byte   N12
 .byte   W12
@ 053   ----------------------------------------
 .byte   PATT
  .word Label_8_014B30C8
@ 054   ----------------------------------------
 .byte   PATT
  .word Label_8_014B30CF
@ 055   ----------------------------------------
 .byte   N09 ,En2 ,v080
 .byte   W12
 .byte   N06
 .byte   W06
 .byte   N09
 .byte   W12
 .byte   N06
 .byte   W06
 .byte   N12
 .byte   W12
 .byte   N09 ,An2
 .byte   W12
 .byte   N06
 .byte   W06
 .byte   N09
 .byte   W12
 .byte   N06
 .byte   W06
 .byte   N12
 .byte   W12
@ 056   ----------------------------------------
 .byte   N48 ,En2
 .byte   W48
 .byte   N09
 .byte   W12
 .byte   N01
 .byte   W24
 .byte   N12 ,An1
 .byte   N12 ,En2
 .byte   W12
@ 057   ----------------------------------------
Label_8_014B3121:
 .byte   N09 ,Bn1 ,v048
 .byte   N09 ,En2
 .byte   W12
 .byte   N04 ,Bn1 ,v080
 .byte   N04 ,En2
 .byte   W06
 .byte   N09 ,An1 ,v096
 .byte   N09 ,Dn2
 .byte   W12
 .byte   N04 ,An1 ,v048
 .byte   N04 ,Dn2
 .byte   W06
 .byte   N09 ,Cn2 ,v096
 .byte   N09 ,Fn2
 .byte   W12
 .byte   N04 ,Cn2 ,v080
 .byte   N04 ,Fn2
 .byte   W06
 .byte   N09 ,Bn1 ,v096
 .byte   N09 ,En2
 .byte   W12
 .byte   N04 ,Bn1 ,v080
 .byte   N04 ,En2
 .byte   W06
 .byte   An1 ,v096
 .byte   N04 ,Dn2
 .byte   W06
 .byte   An1 ,v080
 .byte   N04 ,Dn2
 .byte   W06
 .byte   Bn1 ,v096
 .byte   N04 ,En2
 .byte   W06
 .byte   N06 ,Bn1
 .byte   N06 ,En2
 .byte   W06
 .byte   PEND 
@ 058   ----------------------------------------
Label_8_014B3166:
 .byte   N09 ,Bn1 ,v112
 .byte   N09 ,En2
 .byte   W12
 .byte   N04 ,Bn1 ,v080
 .byte   N04 ,En2
 .byte   W06
 .byte   N09 ,An1 ,v096
 .byte   N09 ,Dn2
 .byte   W12
 .byte   N04 ,An1 ,v080
 .byte   N04 ,Dn2
 .byte   W06
 .byte   N09 ,Cn2 ,v048
 .byte   N09 ,Fn2
 .byte   W12
 .byte   N04 ,Cn2 ,v064
 .byte   N04 ,Fn2
 .byte   W06
 .byte   N09 ,Bn1 ,v048
 .byte   N09 ,En2
 .byte   W12
 .byte   N04 ,Bn1 ,v032
 .byte   N04 ,En2
 .byte   W06
 .byte   An1
 .byte   N04 ,Dn2
 .byte   W06
 .byte   An1
 .byte   N04 ,Dn2
 .byte   W06
 .byte   Bn1
 .byte   N04 ,En2
 .byte   W06
 .byte   N06 ,Bn1
 .byte   N06 ,En2
 .byte   W06
 .byte   PEND 
@ 059   ----------------------------------------
Label_8_014B31A8:
 .byte   N09 ,Bn1 ,v096
 .byte   N09 ,En2
 .byte   W12
 .byte   N04 ,Bn1 ,v080
 .byte   N04 ,En2
 .byte   W06
 .byte   N09 ,An1 ,v096
 .byte   N09 ,Dn2
 .byte   W12
 .byte   N04 ,An1 ,v080
 .byte   N04 ,Dn2
 .byte   W06
 .byte   N09 ,Cn2 ,v096
 .byte   N09 ,Fn2
 .byte   W12
 .byte   N04 ,Cn2 ,v080
 .byte   N04 ,Fn2
 .byte   W06
 .byte   N09 ,Bn1 ,v096
 .byte   N09 ,En2
 .byte   W12
 .byte   N04 ,Bn1 ,v080
 .byte   N04 ,En2
 .byte   W06
 .byte   An1 ,v096
 .byte   N04 ,Dn2
 .byte   W06
 .byte   An1 ,v080
 .byte   N04 ,Dn2
 .byte   W06
 .byte   Bn1 ,v096
 .byte   N04 ,En2
 .byte   W06
 .byte   N06 ,Bn1 ,v016
 .byte   N06 ,En2 ,v096
 .byte   W06
 .byte   PEND 
@ 060   ----------------------------------------
 .byte   PATT
  .word Label_8_014B3166
@ 061   ----------------------------------------
 .byte   PATT
  .word Label_8_014B3121
@ 062   ----------------------------------------
 .byte   PATT
  .word Label_8_014B3166
@ 063   ----------------------------------------
 .byte   PATT
  .word Label_8_014B31A8
@ 064   ----------------------------------------
 .byte   N09 ,Bn1 ,v112
 .byte   N09 ,En2
 .byte   W12
 .byte   N04 ,Bn1 ,v080
 .byte   N04 ,En2
 .byte   W06
 .byte   N09 ,An1 ,v096
 .byte   N09 ,Dn2
 .byte   W12
 .byte   N04 ,An1 ,v080
 .byte   N04 ,Dn2
 .byte   W06
 .byte   N09 ,Cn2 ,v048
 .byte   N09 ,Fn2
 .byte   W12
 .byte   N04 ,Cn2 ,v064
 .byte   N04 ,Fn2
 .byte   W06
 .byte   N09 ,Bn1 ,v048
 .byte   N09 ,En2
 .byte   W12
 .byte   N04 ,Bn1 ,v032
 .byte   N04 ,En2
 .byte   W06
 .byte   An1
 .byte   N04 ,Dn2
 .byte   W06
 .byte   An1
 .byte   N04 ,Dn2
 .byte   W06
 .byte   Bn1
 .byte   N04 ,En2
 .byte   W06
 .byte   Bn1
 .byte   N04 ,En2
 .byte   W04
 .byte   VOL , 26*songC5_mvl/mxv
 .byte   W02
@ 065   ----------------------------------------
 .byte   GOTO
  .word Label_8_014B2EB7
 .byte   FINE

@**************** Track 10 (Midi-Chn.9) ****************@

songC5_010:
@ 000   ----------------------------------------
 .byte   KEYSH , songC5_key+0
 .byte   VOICE , 119
 .byte   VOL , 26*songC5_mvl/mxv
 .byte   PAN , c_v+0
 .byte   BEND , c_v+0
 .byte   W96
@ 001   ----------------------------------------
Label_9_014AE8C3:
 .byte   W96
@ 002   ----------------------------------------
 .byte   W96
@ 003   ----------------------------------------
 .byte   W96
@ 004   ----------------------------------------
 .byte   W96
@ 005   ----------------------------------------
 .byte   W96
@ 006   ----------------------------------------
 .byte   W96
@ 007   ----------------------------------------
 .byte   W96
@ 008   ----------------------------------------
 .byte   W96
@ 009   ----------------------------------------
 .byte   W96
@ 010   ----------------------------------------
 .byte   W96
@ 011   ----------------------------------------
 .byte   W96
@ 012   ----------------------------------------
 .byte   W96
@ 013   ----------------------------------------
 .byte   W96
@ 014   ----------------------------------------
 .byte   W96
@ 015   ----------------------------------------
 .byte   W96
@ 016   ----------------------------------------
 .byte   W48
 .byte   N48 ,Cn2 ,v096
 .byte   W48
@ 017   ----------------------------------------
 .byte   W96
@ 018   ----------------------------------------
 .byte   W96
@ 019   ----------------------------------------
 .byte   W96
@ 020   ----------------------------------------
 .byte   W96
@ 021   ----------------------------------------
 .byte   W96
@ 022   ----------------------------------------
 .byte   W96
@ 023   ----------------------------------------
 .byte   W96
@ 024   ----------------------------------------
 .byte   W96
@ 025   ----------------------------------------
 .byte   W96
@ 026   ----------------------------------------
 .byte   W96
@ 027   ----------------------------------------
 .byte   W96
@ 028   ----------------------------------------
 .byte   W96
@ 029   ----------------------------------------
 .byte   W96
@ 030   ----------------------------------------
 .byte   W96
@ 031   ----------------------------------------
 .byte   W96
@ 032   ----------------------------------------
 .byte   W96
@ 033   ----------------------------------------
 .byte   W96
@ 034   ----------------------------------------
 .byte   W96
@ 035   ----------------------------------------
 .byte   W96
@ 036   ----------------------------------------
 .byte   W96
@ 037   ----------------------------------------
 .byte   W96
@ 038   ----------------------------------------
 .byte   W96
@ 039   ----------------------------------------
 .byte   W96
@ 040   ----------------------------------------
 .byte   W96
@ 041   ----------------------------------------
 .byte   W96
@ 042   ----------------------------------------
 .byte   W96
@ 043   ----------------------------------------
 .byte   W96
@ 044   ----------------------------------------
 .byte   W96
@ 045   ----------------------------------------
 .byte   W96
@ 046   ----------------------------------------
 .byte   W96
@ 047   ----------------------------------------
 .byte   W96
@ 048   ----------------------------------------
 .byte   W96
@ 049   ----------------------------------------
 .byte   W96
@ 050   ----------------------------------------
 .byte   W96
@ 051   ----------------------------------------
 .byte   W96
@ 052   ----------------------------------------
 .byte   W96
@ 053   ----------------------------------------
 .byte   W96
@ 054   ----------------------------------------
 .byte   W96
@ 055   ----------------------------------------
 .byte   W96
@ 056   ----------------------------------------
 .byte   W96
@ 057   ----------------------------------------
 .byte   W96
@ 058   ----------------------------------------
 .byte   W96
@ 059   ----------------------------------------
 .byte   W96
@ 060   ----------------------------------------
 .byte   W48
 .byte   N48
 .byte   W48
@ 061   ----------------------------------------
 .byte   W96
@ 062   ----------------------------------------
 .byte   W96
@ 063   ----------------------------------------
 .byte   W96
@ 064   ----------------------------------------
 .byte   W96
@ 065   ----------------------------------------
 .byte   GOTO
  .word Label_9_014AE8C3
 .byte   FINE

@******************************************************@
	.align	2

songC5:
	.byte	10	@ NumTrks
	.byte	0	@ NumBlks
	.byte	songC5_pri	@ Priority
	.byte	songC5_rev	@ Reverb.
    
	.word	songC5_grp
    
	.word	songC5_001
	.word	songC5_002
	.word	songC5_003
	.word	songC5_004
	.word	songC5_005
	.word	songC5_006
	.word	songC5_007
	.word	songC5_008
	.word	songC5_009
	.word	songC5_010

	.end
