//Event file generated from Sappy .s format.
	#include "MPlayDef.event"

	#define	song03E1_grp  voicegroup001
	#define	song03E1_pri  0
	#define	song03E1_rev  0
	#define	song03E1_mvl  127
	#define	song03E1_key  0
	#define	song03E1_tbs  1
	#define	song03E1_exg  0
	#define	song03E1_cmp  1

	// .rodata
	//	song03E1
	ALIGN 4


//**************** Track 1 (Midi-Chn.0) ****************//

song03E1_001:
//  #01 //000   ----------------------------------------
 BYTE   KEYSH   song03E1_key+0
Label_014CB17A:
 BYTE   TEMPO   108*song03E1_tbs/2
 BYTE   VOICE   36
 BYTE   VOL   35*song03E1_mvl/mxv
 BYTE   PAN   c_v-22
 BYTE   BEND   c_v+0
 BYTE   N02  An1  v100
 BYTE   N02  Ds2
 BYTE   W06
 BYTE   Bn1
 BYTE   N02  Cs2
 BYTE   W06
 BYTE   An1
 BYTE   N02  Cn2
 BYTE   W06
 BYTE   Bn1
 BYTE   N02  Ds2
 BYTE   W06
 BYTE   An1
 BYTE   N02  Cs2
 BYTE   W06
 BYTE   Bn1
 BYTE   N02  Cn2
 BYTE   W06
 BYTE   An1
 BYTE   N02  Ds2
 BYTE   W06
 BYTE   Bn1
 BYTE   N02  Cs2
 BYTE   W06
 BYTE   An1
 BYTE   N02  Cn2
 BYTE   W06
 BYTE   Bn1
 BYTE   N02  Ds2
 BYTE   W06
 BYTE   An1
 BYTE   N02  Cs2
 BYTE   W06
 BYTE   Bn1
 BYTE   N02  Cn2
 BYTE   W06
 BYTE   An1
 BYTE   N02  Ds2
 BYTE   W06
 BYTE   Bn1
 BYTE   N02  Cs2
 BYTE   W06
 BYTE   An1
 BYTE   N02  Cn2
 BYTE   W06
 BYTE   Bn1
 BYTE   N02  Ds2
 BYTE   W06
//  #01 //001   ----------------------------------------
Label_014CB1C6:
 BYTE   N02  An1  v100
 BYTE   N02  Cs2
 BYTE   W06
 BYTE   Bn1
 BYTE   N02  Cn2
 BYTE   W06
 BYTE   An1
 BYTE   N02  Ds2
 BYTE   W06
 BYTE   Bn1
 BYTE   N02  Cs2
 BYTE   W06
 BYTE   An1
 BYTE   N02  Cn2
 BYTE   W06
 BYTE   Bn1
 BYTE   N02  Ds2
 BYTE   W06
 BYTE   An1
 BYTE   N02  Cs2
 BYTE   W06
 BYTE   Bn1
 BYTE   N02  Cn2
 BYTE   W06
 BYTE   An1
 BYTE   N02  Ds2
 BYTE   W06
 BYTE   Bn1
 BYTE   N02  Cs2
 BYTE   W06
 BYTE   An1
 BYTE   N02  Cn2
 BYTE   W06
 BYTE   Bn1
 BYTE   N02  Ds2
 BYTE   W06
 BYTE   An1
 BYTE   N02  Cs2
 BYTE   W06
 BYTE   Bn1
 BYTE   N02  Cn2
 BYTE   W06
 BYTE   An1
 BYTE   N02  Ds2
 BYTE   W06
 BYTE   Bn1
 BYTE   N02  Cs2
 BYTE   W06
 BYTE   PEND 
//  #01 //002   ----------------------------------------
Label_014CB209:
 BYTE   N02  An1  v100
 BYTE   N02  Cn2
 BYTE   W06
 BYTE   Bn1
 BYTE   N02  Ds2
 BYTE   W06
 BYTE   An1
 BYTE   N02  Cs2
 BYTE   W06
 BYTE   Bn1
 BYTE   N02  Cn2
 BYTE   W06
 BYTE   An1
 BYTE   N02  Ds2
 BYTE   W06
 BYTE   Bn1
 BYTE   N02  Cs2
 BYTE   W06
 BYTE   An1
 BYTE   N02  Cn2
 BYTE   W06
 BYTE   Bn1
 BYTE   N02  Ds2
 BYTE   W06
 BYTE   An1
 BYTE   N02  Cs2
 BYTE   W06
 BYTE   Bn1
 BYTE   N02  Cn2
 BYTE   W06
 BYTE   An1
 BYTE   N02  Ds2
 BYTE   W06
 BYTE   Bn1
 BYTE   N02  Cs2
 BYTE   W06
 BYTE   An1
 BYTE   N02  Cn2
 BYTE   W06
 BYTE   Bn1
 BYTE   N02  Ds2
 BYTE   W06
 BYTE   An1
 BYTE   N02  Cs2
 BYTE   W06
 BYTE   Bn1
 BYTE   N02  Cn2
 BYTE   W06
 BYTE   PEND 
//  #01 //003   ----------------------------------------
 BYTE   An1
 BYTE   N02  Ds2
 BYTE   W06
 BYTE   Bn1
 BYTE   N02  Cs2
 BYTE   W06
 BYTE   An1
 BYTE   N02  Cn2
 BYTE   W06
 BYTE   Bn1
 BYTE   N02  Ds2
 BYTE   W06
 BYTE   An1
 BYTE   N02  Cs2
 BYTE   W06
 BYTE   Bn1
 BYTE   N02  Cn2
 BYTE   W06
 BYTE   An1
 BYTE   N02  Ds2
 BYTE   W06
 BYTE   Bn1
 BYTE   N02  Cs2
 BYTE   W06
 BYTE   An1
 BYTE   N02  Cn2
 BYTE   W06
 BYTE   Bn1
 BYTE   N02  Ds2
 BYTE   W06
 BYTE   An1
 BYTE   N02  Cs2
 BYTE   W06
 BYTE   Bn1
 BYTE   N02  Cn2
 BYTE   W06
 BYTE   An1
 BYTE   N02  Ds2
 BYTE   W06
 BYTE   Bn1
 BYTE   N02  Cs2
 BYTE   W06
 BYTE   An1
 BYTE   N02  Cn2
 BYTE   W06
 BYTE   Bn1
 BYTE   N02  Ds2
 BYTE   W06
//  #01 //004   ----------------------------------------
 BYTE   PATT
  POIN2 Label_014CB1C6
//  #01 //005   ----------------------------------------
 BYTE   PATT
  POIN2 Label_014CB209
//  #01 //006   ----------------------------------------
 BYTE   N02  An1  v100
 BYTE   N02  Ds2
 BYTE   W06
 BYTE   Bn1
 BYTE   N02  Cs2
 BYTE   W06
 BYTE   An1
 BYTE   N02  Cn2
 BYTE   W06
 BYTE   Bn1
 BYTE   N02  Ds2
 BYTE   W06
 BYTE   An1
 BYTE   N02  Cs2
 BYTE   W06
 BYTE   Bn1
 BYTE   N02  Cn2
 BYTE   W06
 BYTE   An1
 BYTE   N02  Ds2
 BYTE   W06
 BYTE   Bn1
 BYTE   N02  Cs2
 BYTE   W06
 BYTE   An1
 BYTE   N02  Cn2
 BYTE   W06
 BYTE   Bn1
 BYTE   N02  Ds2
 BYTE   W06
 BYTE   An1
 BYTE   N02  Cs2
 BYTE   W06
 BYTE   Bn1
 BYTE   N02  Cn2
 BYTE   W06
 BYTE   Ds2
 BYTE   W06
 BYTE   N02
 BYTE   W06
 BYTE   An1
 BYTE   W06
 BYTE   Ds2
 BYTE   W06
//  #01 //007   ----------------------------------------
 BYTE   N02
 BYTE   W06
 BYTE   An1
 BYTE   W06
 BYTE   Ds2
 BYTE   W06
 BYTE   An1
 BYTE   W06
 BYTE   Ds2
 BYTE   W06
 BYTE   N02
 BYTE   W06
 BYTE   N02
 BYTE   W06
 BYTE   An1
 BYTE   W06
 BYTE   Ds2
 BYTE   W06
 BYTE   N02
 BYTE   W06
 BYTE   An1
 BYTE   W06
 BYTE   Ds2
 BYTE   W06
 BYTE   N02
 BYTE   W06
 BYTE   An1
 BYTE   W06
 BYTE   Ds2
 BYTE   W06
 BYTE   An1
 BYTE   W06
//  #01 //008   ----------------------------------------
 BYTE   Ds2
 BYTE   W06
 BYTE   N02
 BYTE   W06
 BYTE   N02
 BYTE   W06
 BYTE   An1
 BYTE   W06
 BYTE   GoTo
  POIN2 Label_014CB17A
//  #01 //009   ----------------------------------------
 BYTE   VOICE   36
 BYTE   BEND   c_v+0
 BYTE   FINE

//**************** Track 2 (Midi-Chn.1) ****************//

song03E1_002:
//  #02 //000   ----------------------------------------
 BYTE   KEYSH   song03E1_key+0
Label_01543BB6:
 BYTE   VOICE   47
 BYTE   VOL   35*song03E1_mvl/mxv
 BYTE   PAN   c_v+23
 BYTE   BEND   c_v+0
 BYTE   N05  An2  v100
 BYTE   N05  Ds3
 BYTE   W06
 BYTE   As2
 BYTE   N05  Cs3
 BYTE   W06
 BYTE   An2
 BYTE   N05  Cn3
 BYTE   W06
 BYTE   As2
 BYTE   N05  Ds3
 BYTE   W06
 BYTE   An2
 BYTE   N05  Cs3
 BYTE   W06
 BYTE   As2
 BYTE   N05  Cn3
 BYTE   W06
 BYTE   An2
 BYTE   N05  Ds3
 BYTE   W06
 BYTE   As2
 BYTE   N05  Cs3
 BYTE   W06
 BYTE   An2
 BYTE   N05  Cn3
 BYTE   W06
 BYTE   As2
 BYTE   N05  Ds3
 BYTE   W06
 BYTE   An2
 BYTE   N05  Cs3
 BYTE   W06
 BYTE   As2
 BYTE   N05  Cn3
 BYTE   W06
 BYTE   An2
 BYTE   N05  Ds3
 BYTE   W06
 BYTE   As2
 BYTE   N05  Cs3
 BYTE   W06
 BYTE   An2
 BYTE   N05  Cn3
 BYTE   W06
 BYTE   As2
 BYTE   N05  Ds3
 BYTE   W06
//  #02 //001   ----------------------------------------
Label_01543C00:
 BYTE   N05  An2  v100
 BYTE   N05  Cs3
 BYTE   W06
 BYTE   As2
 BYTE   N05  Cn3
 BYTE   W06
 BYTE   An2
 BYTE   N05  Ds3
 BYTE   W06
 BYTE   As2
 BYTE   N05  Cs3
 BYTE   W06
 BYTE   An2
 BYTE   N05  Cn3
 BYTE   W06
 BYTE   As2
 BYTE   N05  Ds3
 BYTE   W06
 BYTE   An2
 BYTE   N05  Cs3
 BYTE   W06
 BYTE   As2
 BYTE   N05  Cn3
 BYTE   W06
 BYTE   An2
 BYTE   N05  Ds3
 BYTE   W06
 BYTE   As2
 BYTE   N05  Cs3
 BYTE   W06
 BYTE   An2
 BYTE   N05  Cn3
 BYTE   W06
 BYTE   As2
 BYTE   N05  Ds3
 BYTE   W06
 BYTE   An2
 BYTE   N05  Cs3
 BYTE   W06
 BYTE   As2
 BYTE   N05  Cn3
 BYTE   W06
 BYTE   An2
 BYTE   N05  Ds3
 BYTE   W06
 BYTE   As2
 BYTE   N05  Cs3
 BYTE   W06
 BYTE   PEND 
//  #02 //002   ----------------------------------------
Label_01543C43:
 BYTE   N05  An2  v100
 BYTE   N05  Cn3
 BYTE   W06
 BYTE   As2
 BYTE   N05  Ds3
 BYTE   W06
 BYTE   An2
 BYTE   N05  Cs3
 BYTE   W06
 BYTE   As2
 BYTE   N05  Cn3
 BYTE   W06
 BYTE   An2
 BYTE   N05  Ds3
 BYTE   W06
 BYTE   As2
 BYTE   N05  Cs3
 BYTE   W06
 BYTE   An2
 BYTE   N05  Cn3
 BYTE   W06
 BYTE   As2
 BYTE   N05  Ds3
 BYTE   W06
 BYTE   An2
 BYTE   N05  Cs3
 BYTE   W06
 BYTE   As2
 BYTE   N05  Cn3
 BYTE   W06
 BYTE   An2
 BYTE   N05  Ds3
 BYTE   W06
 BYTE   As2
 BYTE   N05  Cs3
 BYTE   W06
 BYTE   An2
 BYTE   N05  Cn3
 BYTE   W06
 BYTE   As2
 BYTE   N05  Ds3
 BYTE   W06
 BYTE   An2
 BYTE   N05  Cs3
 BYTE   W06
 BYTE   As2
 BYTE   N05  Cn3
 BYTE   W06
 BYTE   PEND 
//  #02 //003   ----------------------------------------
 BYTE   An2
 BYTE   N05  Ds3
 BYTE   W06
 BYTE   As2
 BYTE   N05  Cs3
 BYTE   W06
 BYTE   An2
 BYTE   N05  Cn3
 BYTE   W06
 BYTE   As2
 BYTE   N05  Ds3
 BYTE   W06
 BYTE   An2
 BYTE   N05  Cs3
 BYTE   W06
 BYTE   As2
 BYTE   N05  Cn3
 BYTE   W06
 BYTE   An2
 BYTE   N05  Ds3
 BYTE   W06
 BYTE   As2
 BYTE   N05  Cs3
 BYTE   W06
 BYTE   An2
 BYTE   N05  Cn3
 BYTE   W06
 BYTE   As2
 BYTE   N05  Ds3
 BYTE   W06
 BYTE   An2
 BYTE   N05  Cs3
 BYTE   W06
 BYTE   As2
 BYTE   N05  Cn3
 BYTE   W06
 BYTE   An2
 BYTE   N05  Ds3
 BYTE   W06
 BYTE   As2
 BYTE   N05  Cs3
 BYTE   W06
 BYTE   An2
 BYTE   N05  Cn3
 BYTE   W06
 BYTE   As2
 BYTE   N05  Ds3
 BYTE   W06
//  #02 //004   ----------------------------------------
 BYTE   PATT
  POIN2 Label_01543C00
//  #02 //005   ----------------------------------------
 BYTE   PATT
  POIN2 Label_01543C43
//  #02 //006   ----------------------------------------
 BYTE   N05  An2  v100
 BYTE   N05  Ds3
 BYTE   W06
 BYTE   As2
 BYTE   N05  Cs3
 BYTE   W06
 BYTE   An2
 BYTE   N05  Cn3
 BYTE   W06
 BYTE   As2
 BYTE   N05  Ds3
 BYTE   W06
 BYTE   An2
 BYTE   N05  Cs3
 BYTE   W06
 BYTE   As2
 BYTE   N05  Cn3
 BYTE   W06
 BYTE   An2
 BYTE   N05  Ds3
 BYTE   W06
 BYTE   As2
 BYTE   N05  Cs3
 BYTE   W06
 BYTE   An2
 BYTE   N05  Cn3
 BYTE   W06
 BYTE   As2
 BYTE   N05  Ds3
 BYTE   W06
 BYTE   An2
 BYTE   N05  Cs3
 BYTE   W06
 BYTE   As2
 BYTE   N05  Cn3
 BYTE   W06
 BYTE   Ds3
 BYTE   N05  An3
 BYTE   W06
 BYTE   Ds3
 BYTE   N05  An3
 BYTE   W06
 BYTE   An2
 BYTE   N05  Ds3
 BYTE   W06
 BYTE   N05
 BYTE   N05  An3
 BYTE   W06
//  #02 //007   ----------------------------------------
 BYTE   Ds3
 BYTE   N05  An3
 BYTE   W06
 BYTE   An2
 BYTE   N05  Ds3
 BYTE   W06
 BYTE   N05
 BYTE   N05  An3
 BYTE   W06
 BYTE   An2
 BYTE   N05  Ds3
 BYTE   W06
 BYTE   N05
 BYTE   N05  An3
 BYTE   W06
 BYTE   Ds3
 BYTE   N05  An3
 BYTE   W06
 BYTE   Ds3
 BYTE   N05  An3
 BYTE   W06
 BYTE   An2
 BYTE   N05  Ds3
 BYTE   W06
 BYTE   N05
 BYTE   N05  An3
 BYTE   W06
 BYTE   Ds3
 BYTE   N05  An3
 BYTE   W06
 BYTE   An2
 BYTE   N05  Ds3
 BYTE   W06
 BYTE   N05
 BYTE   N05  An3
 BYTE   W06
 BYTE   Ds3
 BYTE   N05  An3
 BYTE   W06
 BYTE   An2
 BYTE   N05  Ds3
 BYTE   W06
 BYTE   N05
 BYTE   N05  An3
 BYTE   W06
 BYTE   An2
 BYTE   N05  Ds3
 BYTE   W06
//  #02 //008   ----------------------------------------
 BYTE   N05
 BYTE   N05  An3
 BYTE   W06
 BYTE   Ds3
 BYTE   N05  An3
 BYTE   W06
 BYTE   Ds3
 BYTE   N05  An3
 BYTE   W06
 BYTE   An2
 BYTE   N05  Ds3
 BYTE   W06
 BYTE   GoTo
  POIN2 Label_01543BB6
//  #02 //009   ----------------------------------------
 BYTE   VOICE   47
 BYTE   BEND   c_v+0
 BYTE   FINE

//**************** Track 3 (Midi-Chn.2) ****************//

song03E1_003:
//  #03 //000   ----------------------------------------
 BYTE   KEYSH   song03E1_key+0
Label_014CB60A:
 BYTE   VOICE   50
 BYTE   VOL   29*song03E1_mvl/mxv
 BYTE   PAN   c_v-38
 BYTE   BEND   c_v+0
 BYTE   N05  An3  v100
 BYTE   W06
 BYTE   N05
 BYTE   W06
 BYTE   Ds3
 BYTE   W06
 BYTE   An3
 BYTE   W06
 BYTE   N05
 BYTE   W06
 BYTE   Ds3
 BYTE   W06
 BYTE   An3
 BYTE   W06
 BYTE   N05
 BYTE   W06
 BYTE   Ds3
 BYTE   W06
 BYTE   An3
 BYTE   W06
 BYTE   Ds3
 BYTE   W06
 BYTE   N05
 BYTE   W30
//  #03 //001   ----------------------------------------
 BYTE   W48
 BYTE   An3
 BYTE   W06
 BYTE   N05
 BYTE   W06
 BYTE   Ds3
 BYTE   W06
 BYTE   An3
 BYTE   W06
 BYTE   N05
 BYTE   W06
 BYTE   Ds3
 BYTE   W06
 BYTE   An3
 BYTE   W06
 BYTE   N05
 BYTE   W06
//  #03 //002   ----------------------------------------
 BYTE   Ds3
 BYTE   W06
 BYTE   An3
 BYTE   W06
 BYTE   Ds3
 BYTE   W06
 BYTE   N05
 BYTE   W78
//  #03 //003   ----------------------------------------
 BYTE   As3
 BYTE   W06
 BYTE   N05
 BYTE   W06
 BYTE   En3
 BYTE   W06
 BYTE   As3
 BYTE   W06
 BYTE   N05
 BYTE   W06
 BYTE   En3
 BYTE   W06
 BYTE   As3
 BYTE   W06
 BYTE   N05
 BYTE   W06
 BYTE   En3
 BYTE   W06
 BYTE   As3
 BYTE   W06
 BYTE   En3
 BYTE   W06
 BYTE   N05
 BYTE   W12
 BYTE   Ds4
 BYTE   W06
 BYTE   N11  Cs4
 BYTE   W12
//  #03 //004   ----------------------------------------
 BYTE   N05  Cn4
 BYTE   W06
 BYTE   As3
 BYTE   W06
 BYTE   An3
 BYTE   W12
 BYTE   N02  Fs3
 BYTE   W03
 BYTE   An3
 BYTE   W03
 BYTE   N05  Fs3
 BYTE   W06
 BYTE   Fn3
 BYTE   W06
 BYTE   Ds3
 BYTE   W06
 BYTE   N02  Fn3
 BYTE   W03
 BYTE   Fs3
 BYTE   W03
 BYTE   Fn3
 BYTE   W03
 BYTE   Ds3
 BYTE   W03
 BYTE   N05  Cs3
 BYTE   W06
 BYTE   Fn3
 BYTE   W06
 BYTE   N92  Cn3
 BYTE   W24
//  #03 //005   ----------------------------------------
 BYTE   W96
//  #03 //006   ----------------------------------------
 BYTE   W96
//  #03 //007   ----------------------------------------
 BYTE   W96
//  #03 //008   ----------------------------------------
 BYTE   W24
 BYTE   GoTo
  POIN2 Label_014CB60A
//  #03 //009   ----------------------------------------
 BYTE   VOICE   50
 BYTE   BEND   c_v+0
 BYTE   FINE

//**************** Track 4 (Midi-Chn.3) ****************//

song03E1_004:
//  #04 //000   ----------------------------------------
 BYTE   KEYSH   song03E1_key+0
Label_014CB592:
 BYTE   VOICE   50
 BYTE   VOL   27*song03E1_mvl/mxv
 BYTE   PAN   c_v+39
 BYTE   BEND   c_v+0
 BYTE   W72
 BYTE   N05  An3  v100
 BYTE   W06
 BYTE   N05
 BYTE   W06
 BYTE   Ds3
 BYTE   W06
 BYTE   An3
 BYTE   W06
//  #04 //001   ----------------------------------------
 BYTE   N05
 BYTE   W06
 BYTE   Ds3
 BYTE   W06
 BYTE   An3
 BYTE   W06
 BYTE   N05
 BYTE   W06
 BYTE   Ds3
 BYTE   W06
 BYTE   An3
 BYTE   W06
 BYTE   Ds3
 BYTE   W06
 BYTE   N05
 BYTE   W54
//  #04 //002   ----------------------------------------
 BYTE   W24
 BYTE   An3
 BYTE   W06
 BYTE   N05
 BYTE   W06
 BYTE   Ds3
 BYTE   W06
 BYTE   An3
 BYTE   W06
 BYTE   N05
 BYTE   W06
 BYTE   Ds3
 BYTE   W06
 BYTE   An3
 BYTE   W06
 BYTE   N05
 BYTE   W06
 BYTE   Ds3
 BYTE   W06
 BYTE   An3
 BYTE   W06
 BYTE   Ds3
 BYTE   W06
 BYTE   N05
 BYTE   W06
//  #04 //003   ----------------------------------------
 BYTE   W78
 BYTE   N05
 BYTE   W06
 BYTE   N11  Cs3
 BYTE   W12
//  #04 //004   ----------------------------------------
 BYTE   N05  Cn3
 BYTE   W06
 BYTE   As2
 BYTE   W06
 BYTE   An2
 BYTE   W12
 BYTE   N02  Fs2
 BYTE   W03
 BYTE   An2
 BYTE   W03
 BYTE   N05  Fs2
 BYTE   W06
 BYTE   Fn2
 BYTE   W06
 BYTE   Ds2
 BYTE   W06
 BYTE   N02  Fn2
 BYTE   W03
 BYTE   Fs2
 BYTE   W03
 BYTE   Fn2
 BYTE   W03
 BYTE   Ds2
 BYTE   W03
 BYTE   N05  Cs2
 BYTE   W06
 BYTE   Fn2
 BYTE   W06
 BYTE   N92  Cn2
 BYTE   W24
//  #04 //005   ----------------------------------------
 BYTE   W96
//  #04 //006   ----------------------------------------
 BYTE   W96
//  #04 //007   ----------------------------------------
 BYTE   W96
//  #04 //008   ----------------------------------------
 BYTE   W24
 BYTE   GoTo
  POIN2 Label_014CB592
//  #04 //009   ----------------------------------------
 BYTE   VOICE   50
 BYTE   BEND   c_v+0
 BYTE   FINE

//**************** Track 5 (Midi-Chn.4) ****************//

song03E1_005:
//  #05 //000   ----------------------------------------
 BYTE   KEYSH   song03E1_key+0
Label_014CB696:
 BYTE   VOICE   57
 BYTE   VOL   31*song03E1_mvl/mxv
 BYTE   PAN   c_v+0
 BYTE   BEND   c_v+0
 BYTE   W78
 BYTE   N05  An3  v100
 BYTE   N05  Ds4
 BYTE   W06
 BYTE   An3
 BYTE   N05  Ds4
 BYTE   W12
//  #05 //001   ----------------------------------------
 BYTE   N44  An3
 BYTE   N44  Cn4
 BYTE   W54
 BYTE   N05  Ds4
 BYTE   N05  An4
 BYTE   W06
 BYTE   Ds4
 BYTE   N05  An4
 BYTE   W12
 BYTE   N44  Cn4
 BYTE   N44  Fs4
 BYTE   W24
//  #05 //002   ----------------------------------------
 BYTE   W30
 BYTE   N05  An3
 BYTE   N05  Ds4
 BYTE   W06
 BYTE   An3
 BYTE   N05  Ds4
 BYTE   W12
 BYTE   N17  An3
 BYTE   N17  Cn4
 BYTE   W24
 BYTE   N05  Ds4
 BYTE   N05  An4
 BYTE   W06
 BYTE   Ds4
 BYTE   N05  An4
 BYTE   W12
 BYTE   N76  En4
 BYTE   N76  As4
 BYTE   W06
//  #05 //003   ----------------------------------------
 BYTE   W96
//  #05 //004   ----------------------------------------
 BYTE   W96
//  #05 //005   ----------------------------------------
 BYTE   W24
 BYTE   N05  Cn4
 BYTE   W06
 BYTE   N05
 BYTE   W06
 BYTE   N05
 BYTE   W06
 BYTE   Fs4
 BYTE   W06
 BYTE   N05
 BYTE   W06
 BYTE   Cn4
 BYTE   W06
 BYTE   Fs4
 BYTE   W06
 BYTE   N05
 BYTE   W06
 BYTE   Cn4
 BYTE   W06
 BYTE   Fs4
 BYTE   W06
 BYTE   Cn4
 BYTE   W06
 BYTE   N05
 BYTE   W06
//  #05 //006   ----------------------------------------
 BYTE   Fs4
 BYTE   W06
 BYTE   N05
 BYTE   W06
 BYTE   N05
 BYTE   W06
 BYTE   Cn5
 BYTE   W06
 BYTE   N05
 BYTE   W06
 BYTE   Fs4
 BYTE   W06
 BYTE   Cn5
 BYTE   W06
 BYTE   N05
 BYTE   W06
 BYTE   Fs4
 BYTE   W06
 BYTE   Cn5
 BYTE   W06
 BYTE   N05
 BYTE   W06
 BYTE   Fs4
 BYTE   W30
//  #05 //007   ----------------------------------------
 BYTE   W96
//  #05 //008   ----------------------------------------
 BYTE   W24
 BYTE   GoTo
  POIN2 Label_014CB696
//  #05 //009   ----------------------------------------
 BYTE   VOICE   57
 BYTE   PAN   c_v+0
 BYTE   BEND   c_v+0
 BYTE   FINE

//**************** Track 6 (Midi-Chn.5) ****************//

song03E1_006:
//  #06 //000   ----------------------------------------
 BYTE   KEYSH   song03E1_key+0
Label_01543D6E:
 BYTE   VOICE   127
 BYTE   VOL   35*song03E1_mvl/mxv
 BYTE   PAN   c_v+0
 BYTE   BEND   c_v+0
 BYTE   N05  Dn1  v100
 BYTE   W06
 BYTE   N05
 BYTE   W06
 BYTE   Ds1
 BYTE   W06
 BYTE   Dn1
 BYTE   W06
 BYTE   N05
 BYTE   W06
 BYTE   N05
 BYTE   W06
 BYTE   N05
 BYTE   W06
 BYTE   N05
 BYTE   W06
 BYTE   N05
 BYTE   W06
 BYTE   N05
 BYTE   W06
 BYTE   N02
 BYTE   W03
 BYTE   N02
 BYTE   W03
 BYTE   N02
 BYTE   W03
 BYTE   N02
 BYTE   W03
 BYTE   N11
 BYTE   W12
 BYTE   N11
 BYTE   W12
//  #06 //001   ----------------------------------------
 BYTE   N11
 BYTE   W12
 BYTE   N02
 BYTE   W03
 BYTE   N02
 BYTE   W03
 BYTE   N02
 BYTE   W03
 BYTE   N02
 BYTE   W03
 BYTE   N05
 BYTE   W06
 BYTE   N05
 BYTE   W06
 BYTE   N05
 BYTE   W06
 BYTE   N05
 BYTE   W06
 BYTE   N11
 BYTE   W12
 BYTE   N05
 BYTE   W06
 BYTE   N05
 BYTE   W06
 BYTE   N11
 BYTE   W12
 BYTE   N11
 BYTE   W12
//  #06 //002   ----------------------------------------
 BYTE   N05
 BYTE   W06
 BYTE   N05
 BYTE   W06
 BYTE   N05
 BYTE   W06
 BYTE   N02
 BYTE   W03
 BYTE   N02
 BYTE   W03
 BYTE   N05
 BYTE   W06
 BYTE   N05
 BYTE   W06
 BYTE   Ds1
 BYTE   W06
 BYTE   Dn1
 BYTE   W06
 BYTE   N05
 BYTE   W06
 BYTE   N05
 BYTE   W06
 BYTE   N05
 BYTE   W06
 BYTE   N05
 BYTE   W06
 BYTE   N05
 BYTE   W06
 BYTE   N05
 BYTE   W06
 BYTE   N05
 BYTE   W06
 BYTE   N05
 BYTE   W06
//  #06 //003   ----------------------------------------
 BYTE   N01
 BYTE   W01
 BYTE   N04
 BYTE   W08
 BYTE   N01
 BYTE   W01
 BYTE   N04
 BYTE   W08
 BYTE   N01
 BYTE   W01
 BYTE   N04
 BYTE   W05
 BYTE   N11
 BYTE   W12
 BYTE   N11
 BYTE   W12
 BYTE   N05
 BYTE   W06
 BYTE   N05
 BYTE   W06
 BYTE   N05
 BYTE   W06
 BYTE   N05
 BYTE   W06
 BYTE   N05
 BYTE   N11  Cs2
 BYTE   N11  Ds2
 BYTE   W06
 BYTE   N05  Dn1
 BYTE   W06
 BYTE   N05
 BYTE   W06
 BYTE   N05
 BYTE   W06
//  #06 //004   ----------------------------------------
 BYTE   N05
 BYTE   W06
 BYTE   N05
 BYTE   W06
 BYTE   N05
 BYTE   W06
 BYTE   N05
 BYTE   W06
 BYTE   N05
 BYTE   W06
 BYTE   N05
 BYTE   W06
 BYTE   N02
 BYTE   W03
 BYTE   N02
 BYTE   W03
 BYTE   N02
 BYTE   W03
 BYTE   N02
 BYTE   W03
 BYTE   N11
 BYTE   W12
 BYTE   N11
 BYTE   W12
 BYTE   N11
 BYTE   W12
 BYTE   N11
 BYTE   W12
//  #06 //005   ----------------------------------------
 BYTE   N11
 BYTE   W12
 BYTE   N11
 BYTE   W12
 BYTE   N05
 BYTE   W06
 BYTE   N05
 BYTE   W06
 BYTE   N05
 BYTE   W06
 BYTE   N11  Ds1
 BYTE   W12
 BYTE   N05  Dn1
 BYTE   W06
 BYTE   N11  Ds1
 BYTE   W12
 BYTE   N05  Dn1
 BYTE   W06
 BYTE   N11  Ds1
 BYTE   W12
 BYTE   N05  Dn1
 BYTE   W06
//  #06 //006   ----------------------------------------
 BYTE   N05
 BYTE   W06
 BYTE   N05
 BYTE   W06
 BYTE   N05
 BYTE   W06
 BYTE   N05
 BYTE   W06
 BYTE   N02
 BYTE   W03
 BYTE   N02
 BYTE   W03
 BYTE   N02
 BYTE   W03
 BYTE   N02
 BYTE   W03
 BYTE   N02
 BYTE   W03
 BYTE   N02
 BYTE   W03
 BYTE   N11
 BYTE   W12
 BYTE   N05
 BYTE   W06
 BYTE   N05
 BYTE   W06
 BYTE   N05
 BYTE   W06
 BYTE   N05
 BYTE   W06
 BYTE   N02
 BYTE   W03
 BYTE   N02
 BYTE   W03
 BYTE   N05
 BYTE   W06
 BYTE   N05
 BYTE   W06
//  #06 //007   ----------------------------------------
 BYTE   N11  Ds1
 BYTE   W12
 BYTE   Dn1
 BYTE   W12
 BYTE   N05  Ds1
 BYTE   W06
 BYTE   Dn1
 BYTE   W06
 BYTE   N05
 BYTE   W06
 BYTE   N05
 BYTE   W06
 BYTE   N02
 BYTE   W03
 BYTE   N02
 BYTE   W03
 BYTE   N02
 BYTE   W03
 BYTE   N02
 BYTE   W03
 BYTE   N08
 BYTE   W09
 BYTE   N02
 BYTE   W03
 BYTE   N05
 BYTE   W06
 BYTE   N05
 BYTE   W06
 BYTE   Ds1
 BYTE   W06
 BYTE   Dn1
 BYTE   W06
//  #06 //008   ----------------------------------------
 BYTE   N05
 BYTE   W06
 BYTE   N05
 BYTE   W06
 BYTE   N02
 BYTE   W03
 BYTE   N02
 BYTE   W03
 BYTE   N02
 BYTE   W03
 BYTE   N02
 BYTE   W03
 BYTE   GoTo
  POIN2 Label_01543D6E
//  #06 //009   ----------------------------------------
 BYTE   VOICE   127
 BYTE   PAN   c_v+0
 BYTE   BEND   c_v+0
 BYTE   FINE

//**************** Track 7 (Midi-Chn.6) ****************//

song03E1_007:
//  #07 //000   ----------------------------------------
 BYTE   KEYSH   song03E1_key+0
Label_014CB4A6:
 BYTE   VOICE   124
 BYTE   VOL   35*song03E1_mvl/mxv
 BYTE   PAN   c_v+0
 BYTE   BEND   c_v+0
 BYTE   W96
//  #07 //001   ----------------------------------------
 BYTE   W96
//  #07 //002   ----------------------------------------
 BYTE   W96
//  #07 //003   ----------------------------------------
 BYTE   W72
 BYTE   N11  Dn2  v100
 BYTE   W24
//  #07 //004   ----------------------------------------
 BYTE   W96
//  #07 //005   ----------------------------------------
 BYTE   W24
 BYTE   N17  Gs1
 BYTE   N17  Ds2
 BYTE   W18
 BYTE   Gs1
 BYTE   N17  Ds2
 BYTE   W18
 BYTE   N28  Gs1
 BYTE   N28  Ds2
 BYTE   W36
//  #07 //006   ----------------------------------------
 BYTE   N17  Gs1
 BYTE   N17  Ds2
 BYTE   W18
 BYTE   N44  Gs1
 BYTE   N44  Ds2
 BYTE   W54
 BYTE   N11  Cs2
 BYTE   N11  Ds2
 BYTE   W12
 BYTE   Gs1
 BYTE   N11  Ds2
 BYTE   W12
//  #07 //007   ----------------------------------------
 BYTE   Gs1
 BYTE   N11  Ds2
 BYTE   W12
 BYTE   Gs1
 BYTE   N11  Ds2
 BYTE   W12
 BYTE   Gs1
 BYTE   N11  Ds2
 BYTE   W12
 BYTE   Gs1
 BYTE   N11  Ds2
 BYTE   W12
 BYTE   Cs2
 BYTE   N11  Ds2
 BYTE   W12
 BYTE   Gs1
 BYTE   N11  Ds2
 BYTE   W12
 BYTE   Cs2
 BYTE   N11  Ds2
 BYTE   W12
 BYTE   Cs2
 BYTE   N11  Ds2
 BYTE   W12
//  #07 //008   ----------------------------------------
 BYTE   Gs1
 BYTE   N11  Ds2
 BYTE   W12
 BYTE   Gs1
 BYTE   N11  Ds2
 BYTE   W12
 BYTE   GoTo
  POIN2 Label_014CB4A6
//  #07 //009   ----------------------------------------
 BYTE   VOICE   124
 BYTE   PAN   c_v+0
 BYTE   BEND   c_v+0
 BYTE   FINE

//******************************************************//
	ALIGN 4

song03E1:
	BYTE	7	// NumTrks
	BYTE	0	// NumBlks
	BYTE	song03E1_pri	// Priority
	BYTE	song03E1_rev	// Reverb.
    
	POIN2	song03E1_grp
    
	POIN2	song03E1_001
	POIN2	song03E1_002
	POIN2	song03E1_003
	POIN2	song03E1_004
	POIN2	song03E1_005
	POIN2	song03E1_006
	POIN2	song03E1_007

	
