//Event file generated from Sappy .s format.
	#include "MPlayDef.event"

	#define	song03E0_grp  voicegroup000
	#define	song03E0_pri  0
	#define	song03E0_rev  148
	#define	song03E0_mvl  127
	#define	song03E0_key  0
	#define	song03E0_tbs  1
	#define	song03E0_exg  0
	#define	song03E0_cmp  1

	// .rodata
	//	song03E0
	ALIGN 4


//**************** Track 1 (Midi-Chn.0) ****************//

song03E0_001:
//  #01 //000   ----------------------------------------
 BYTE   KEYSH   song03E0_key+0
 BYTE   TEMPO   400*song03E0_tbs/2
Label_019482E8:
 BYTE   LFOS 44
 BYTE   VOICE   61
 BYTE   PAN   c_v+15
 BYTE   VOL   36*song03E0_mvl/mxv
 BYTE   N68  Fs3  v085
 BYTE   W72
 BYTE   An3
 BYTE   W24
//  #01 //001   ----------------------------------------
Label_019482F6:
 BYTE   W48
 BYTE   N44  Dn4  v085
 BYTE   W48
 BYTE   PEND 
//  #01 //002   ----------------------------------------
Label_019482FC:
 BYTE   N44  Cs4  v085
 BYTE   W48
 BYTE   N68  Bn3
 BYTE   W48
 BYTE   PEND 
//  #01 //003   ----------------------------------------
Label_01948304:
 BYTE   W24
 BYTE   N68  Fs3  v085
 BYTE   W72
 BYTE   PEND 
//  #01 //004   ----------------------------------------
Label_0194830A:
 BYTE   N44  En3  v085
 BYTE   W48
 BYTE   Fs3
 BYTE   W48
 BYTE   PEND 
//  #01 //005   ----------------------------------------
Label_01948311:
 BYTE   N68  Bn3  v085
 BYTE   W72
 BYTE   Dn4
 BYTE   W24
 BYTE   PEND 
//  #01 //006   ----------------------------------------
Label_01948318:
 BYTE   W48
 BYTE   N44  Cs4  v085
 BYTE   W48
 BYTE   PEND 
//  #01 //007   ----------------------------------------
Label_0194831E:
 BYTE   N44  An3  v085
 BYTE   W48
 BYTE   TIE  Fs3
 BYTE   W48
 BYTE   PEND 
//  #01 //008   ----------------------------------------
 BYTE   W96
//  #01 //009   ----------------------------------------
Label_01948327:
 BYTE   W44
 BYTE   W03
 BYTE   EOT
 BYTE   Fs3
 BYTE   W01
 BYTE   N23  En3  v085
 BYTE   W24
 BYTE   Fs3
 BYTE   W24
 BYTE   PEND 
//  #01 //010   ----------------------------------------
Label_01948333:
 BYTE   N68  En3  v085
 BYTE   W72
 BYTE   Cs3
 BYTE   W24
 BYTE   PEND 
//  #01 //011   ----------------------------------------
Label_0194833A:
 BYTE   W48
 BYTE   N44  Dn3  v085
 BYTE   W48
 BYTE   PEND 
//  #01 //012   ----------------------------------------
Label_01948340:
 BYTE   N44  En3  v085
 BYTE   W48
 BYTE   N68  Bn3
 BYTE   W48
 BYTE   PEND 
//  #01 //013   ----------------------------------------
 BYTE   PATT
  POIN2 Label_01948304
//  #01 //014   ----------------------------------------
 BYTE   PATT
  POIN2 Label_0194830A
//  #01 //015   ----------------------------------------
Label_01948352:
 BYTE   N68  An3  v085
 BYTE   W72
 BYTE   Fs3
 BYTE   W24
 BYTE   PEND 
//  #01 //016   ----------------------------------------
 BYTE   PATT
  POIN2 Label_0194833A
//  #01 //017   ----------------------------------------
Label_0194835E:
 BYTE   N44  En3  v085
 BYTE   W48
 BYTE   N11  Bn3
 BYTE   W12
 BYTE   Fs3
 BYTE   W12
 BYTE   Dn4
 BYTE   W12
 BYTE   Fs3
 BYTE   W12
 BYTE   PEND 
//  #01 //018   ----------------------------------------
Label_0194836C:
 BYTE   N11  Cs4  v085
 BYTE   W12
 BYTE   Fs3
 BYTE   W12
 BYTE   An3
 BYTE   W12
 BYTE   En3
 BYTE   W12
 BYTE   Fs3
 BYTE   W12
 BYTE   Dn3
 BYTE   W12
 BYTE   En3
 BYTE   W12
 BYTE   Cs3
 BYTE   W12
 BYTE   PEND 
//  #01 //019   ----------------------------------------
Label_0194837F:
 BYTE   N11  Fs3  v085
 BYTE   W12
 BYTE   Dn3
 BYTE   W12
 BYTE   An3
 BYTE   W12
 BYTE   Fs3
 BYTE   W12
 BYTE   Dn4
 BYTE   W12
 BYTE   Fs3
 BYTE   W12
 BYTE   Cs4
 BYTE   W12
 BYTE   Fs3
 BYTE   W12
 BYTE   PEND 
//  #01 //020   ----------------------------------------
Label_01948392:
 BYTE   N11  Bn3  v085
 BYTE   W12
 BYTE   Fs3
 BYTE   W12
 BYTE   Dn4
 BYTE   W12
 BYTE   An3
 BYTE   W12
 BYTE   Fs4
 BYTE   W12
 BYTE   Cs4
 BYTE   W12
 BYTE   En4
 BYTE   W12
 BYTE   Bn3
 BYTE   W12
 BYTE   PEND 
//  #01 //021   ----------------------------------------
Label_019483A5:
 BYTE   N11  An4  v085
 BYTE   W12
 BYTE   En4
 BYTE   W12
 BYTE   Fs4
 BYTE   W12
 BYTE   Dn4
 BYTE   W12
 BYTE   En4
 BYTE   W12
 BYTE   Cs4
 BYTE   W12
 BYTE   Fs4
 BYTE   W12
 BYTE   Bn3
 BYTE   W12
 BYTE   PEND 
//  #01 //022   ----------------------------------------
Label_019483B8:
 BYTE   N11  En4  v085
 BYTE   W12
 BYTE   An3
 BYTE   W12
 BYTE   Cs4
 BYTE   W12
 BYTE   Fs3
 BYTE   W12
 BYTE   Bn3
 BYTE   N11  Bn2
 BYTE   W24
 BYTE   Bn3
 BYTE   N11  Bn2
 BYTE   W24
 BYTE   PEND 
//  #01 //023   ----------------------------------------
 BYTE   W96
//  #01 //024   ----------------------------------------
Label_019483CC:
 BYTE   N11  Bn3  v085
 BYTE   N11  Bn2
 BYTE   W72
 BYTE   Bn3
 BYTE   N11  Bn2
 BYTE   W24
 BYTE   PEND 
//  #01 //025   ----------------------------------------
Label_019483D7:
 BYTE   N11  Bn3  v085
 BYTE   N11  Bn2
 BYTE   W24
 BYTE   Bn3
 BYTE   N11  Bn2
 BYTE   W72
 BYTE   PEND 
//  #01 //026   ----------------------------------------
Label_019483E2:
 BYTE   W48
 BYTE   N23  Bn3  v085
 BYTE   N23  Bn2
 BYTE   W48
 BYTE   PEND 
//  #01 //027   ----------------------------------------
 BYTE   Dn4
 BYTE   N23  Dn3
 BYTE   W48
 BYTE   GoTo
  POIN2 Label_019482E8
 BYTE   FINE

//**************** Track 2 (Midi-Chn.1) ****************//

song03E0_002:
//  #02 //000   ----------------------------------------
 BYTE   KEYSH   song03E0_key+0
Label_01948996:
 BYTE   LFOS 44
 BYTE   VOICE   40
 BYTE   VOL   29*song03E0_mvl/mxv
 BYTE   PAN   c_v-13
 BYTE   N11  Bn2  v085
 BYTE   W72
 BYTE   Bn2
 BYTE   W24
//  #02 //001   ----------------------------------------
 BYTE   W48
 BYTE   Dn3
 BYTE   W48
//  #02 //002   ----------------------------------------
 BYTE   Cs3
 BYTE   W48
 BYTE   Bn2
 BYTE   W24
 BYTE   Dn3
 BYTE   W24
//  #02 //003   ----------------------------------------
Label_019489AD:
 BYTE   N11  Cs3  v085
 BYTE   W24
 BYTE   An2
 BYTE   W24
 BYTE   Bn2
 BYTE   W24
 BYTE   Dn3
 BYTE   W24
 BYTE   PEND 
//  #02 //004   ----------------------------------------
 BYTE   Cs3
 BYTE   W24
 BYTE   An2
 BYTE   W24
 BYTE   Fs2
 BYTE   W24
 BYTE   An2
 BYTE   W24
//  #02 //005   ----------------------------------------
 BYTE   Bn2
 BYTE   W24
 BYTE   Fs3
 BYTE   W24
 BYTE   En3
 BYTE   W24
 BYTE   Cs3
 BYTE   W24
//  #02 //006   ----------------------------------------
 BYTE   Dn3
 BYTE   W24
 BYTE   Fs3
 BYTE   W24
 BYTE   En3
 BYTE   W24
 BYTE   Cs3
 BYTE   W24
//  #02 //007   ----------------------------------------
 BYTE   Dn3
 BYTE   W24
 BYTE   En3
 BYTE   W24
 BYTE   Fs3
 BYTE   W48
//  #02 //008   ----------------------------------------
 BYTE   W24
 BYTE   En3
 BYTE   W72
//  #02 //009   ----------------------------------------
 BYTE   Bn2
 BYTE   W48
 BYTE   Cs3
 BYTE   W24
 BYTE   An2
 BYTE   W24
//  #02 //010   ----------------------------------------
 BYTE   Bn2
 BYTE   W72
 BYTE   Fs2
 BYTE   W24
//  #02 //011   ----------------------------------------
 BYTE   W24
 BYTE   An2
 BYTE   W24
 BYTE   En2
 BYTE   W24
 BYTE   Fs2
 BYTE   W24
//  #02 //012   ----------------------------------------
 BYTE   An2
 BYTE   W24
 BYTE   Bn2
 BYTE   W24
 BYTE   Bn2
 BYTE   W24
 BYTE   An2
 BYTE   W24
//  #02 //013   ----------------------------------------
 BYTE   Bn2
 BYTE   W24
 BYTE   Dn3
 BYTE   W24
 BYTE   Cs3
 BYTE   W24
 BYTE   An2
 BYTE   W24
//  #02 //014   ----------------------------------------
 BYTE   Bn2
 BYTE   W24
 BYTE   Fs2
 BYTE   W24
 BYTE   En2
 BYTE   W24
 BYTE   Fs2
 BYTE   W24
//  #02 //015   ----------------------------------------
 BYTE   An2
 BYTE   W24
 BYTE   Fs2
 BYTE   W24
 BYTE   An2
 BYTE   W24
 BYTE   Bn2
 BYTE   W24
//  #02 //016   ----------------------------------------
 BYTE   Cs3
 BYTE   W24
 BYTE   Bn2
 BYTE   W24
 BYTE   Cs3
 BYTE   W24
 BYTE   Dn3
 BYTE   W24
//  #02 //017   ----------------------------------------
 BYTE   PATT
  POIN2 Label_019489AD
//  #02 //018   ----------------------------------------
 BYTE   N11  Cs3  v085
 BYTE   W24
 BYTE   An2
 BYTE   W24
 BYTE   Fs2
 BYTE   W24
 BYTE   En2
 BYTE   W24
//  #02 //019   ----------------------------------------
 BYTE   Fs2
 BYTE   W24
 BYTE   An2
 BYTE   W24
 BYTE   Dn3
 BYTE   W24
 BYTE   Cs3
 BYTE   W24
//  #02 //020   ----------------------------------------
 BYTE   Bn2
 BYTE   W24
 BYTE   Dn3
 BYTE   W24
 BYTE   Fs3
 BYTE   W24
 BYTE   En3
 BYTE   W24
//  #02 //021   ----------------------------------------
 BYTE   An3
 BYTE   W24
 BYTE   Fs3
 BYTE   W24
 BYTE   En3
 BYTE   W24
 BYTE   Fs3
 BYTE   W24
//  #02 //022   ----------------------------------------
 BYTE   En3
 BYTE   W24
 BYTE   Cs3
 BYTE   W24
 BYTE   Bn2
 BYTE   W24
 BYTE   Bn2
 BYTE   W24
//  #02 //023   ----------------------------------------
 BYTE   W96
//  #02 //024   ----------------------------------------
 BYTE   Bn2
 BYTE   W72
 BYTE   Bn2
 BYTE   W24
//  #02 //025   ----------------------------------------
 BYTE   Bn2
 BYTE   W24
 BYTE   Bn2
 BYTE   W72
//  #02 //026   ----------------------------------------
 BYTE   W48
 BYTE   Bn2
 BYTE   W48
//  #02 //027   ----------------------------------------
 BYTE   An2
 BYTE   W48
 BYTE   GoTo
  POIN2 Label_01948996
 BYTE   FINE

//**************** Track 3 (Midi-Chn.2) ****************//

song03E0_003:
//  #03 //000   ----------------------------------------
 BYTE   KEYSH   song03E0_key+0
Label_01947FBE:
 BYTE   LFOS 44
 BYTE   VOICE   36
 BYTE   PAN   c_v-26
 BYTE   VOL   22*song03E0_mvl/mxv
 BYTE   N11  Bn1  v085
 BYTE   W72
 BYTE   Bn1
 BYTE   W24
//  #03 //001   ----------------------------------------
 BYTE   W48
 BYTE   Dn2
 BYTE   W48
//  #03 //002   ----------------------------------------
 BYTE   Cs2
 BYTE   W48
 BYTE   N23  Bn1
 BYTE   W24
 BYTE   Dn2
 BYTE   W24
//  #03 //003   ----------------------------------------
 BYTE   Cs2
 BYTE   W24
 BYTE   An1
 BYTE   W24
 BYTE   Bn1
 BYTE   W24
 BYTE   Dn2
 BYTE   W24
//  #03 //004   ----------------------------------------
 BYTE   Cs2
 BYTE   W24
 BYTE   An1
 BYTE   W24
 BYTE   Fs1
 BYTE   W24
 BYTE   An1
 BYTE   W24
//  #03 //005   ----------------------------------------
 BYTE   Bn1
 BYTE   W24
 BYTE   Fs2
 BYTE   W24
 BYTE   En2
 BYTE   W24
 BYTE   Cs2
 BYTE   W24
//  #03 //006   ----------------------------------------
 BYTE   Dn2
 BYTE   W24
 BYTE   Fs2
 BYTE   W24
 BYTE   En2
 BYTE   W24
 BYTE   Cs2
 BYTE   W24
//  #03 //007   ----------------------------------------
 BYTE   Dn2
 BYTE   W24
 BYTE   En2
 BYTE   W24
 BYTE   Fs2
 BYTE   W24
 BYTE   En2
 BYTE   W24
//  #03 //008   ----------------------------------------
 BYTE   Dn2
 BYTE   W24
 BYTE   En2
 BYTE   W24
 BYTE   Dn2
 BYTE   W24
 BYTE   An1
 BYTE   W24
//  #03 //009   ----------------------------------------
Label_01948006:
 BYTE   N23  Bn1  v085
 BYTE   W24
 BYTE   Dn2
 BYTE   W24
 BYTE   Cs2
 BYTE   W24
 BYTE   An1
 BYTE   W24
 BYTE   PEND 
//  #03 //010   ----------------------------------------
Label_01948011:
 BYTE   N23  Bn1  v085
 BYTE   W24
 BYTE   An1
 BYTE   W24
 BYTE   En1
 BYTE   W24
 BYTE   Fs1
 BYTE   W24
 BYTE   PEND 
//  #03 //011   ----------------------------------------
 BYTE   PATT
  POIN2 Label_01948011
//  #03 //012   ----------------------------------------
 BYTE   N23  An1  v085
 BYTE   W24
 BYTE   Bn1
 BYTE   W24
 BYTE   Bn1
 BYTE   W24
 BYTE   An1
 BYTE   W24
//  #03 //013   ----------------------------------------
 BYTE   PATT
  POIN2 Label_01948006
//  #03 //014   ----------------------------------------
 BYTE   N23  Bn1  v085
 BYTE   W24
 BYTE   Fs1
 BYTE   W24
 BYTE   En1
 BYTE   W24
 BYTE   Fs1
 BYTE   W24
//  #03 //015   ----------------------------------------
 BYTE   An1
 BYTE   W24
 BYTE   Fs1
 BYTE   W24
 BYTE   An1
 BYTE   W24
 BYTE   Bn1
 BYTE   W24
//  #03 //016   ----------------------------------------
 BYTE   Cs2
 BYTE   W24
 BYTE   Bn1
 BYTE   W24
 BYTE   Cs2
 BYTE   W24
 BYTE   Dn2
 BYTE   W24
//  #03 //017   ----------------------------------------
 BYTE   Cs2
 BYTE   W24
 BYTE   An1
 BYTE   W24
 BYTE   N11  Bn1
 BYTE   W12
 BYTE   Fs1
 BYTE   W12
 BYTE   Dn2
 BYTE   W12
 BYTE   Fs1
 BYTE   W12
//  #03 //018   ----------------------------------------
 BYTE   Cs2
 BYTE   W12
 BYTE   Fs1
 BYTE   W12
 BYTE   An1
 BYTE   W12
 BYTE   En1
 BYTE   W12
 BYTE   Fs1
 BYTE   W12
 BYTE   Dn1
 BYTE   W12
 BYTE   En1
 BYTE   W12
 BYTE   Cs1
 BYTE   W12
//  #03 //019   ----------------------------------------
 BYTE   Fs1
 BYTE   W12
 BYTE   Dn1
 BYTE   W12
 BYTE   An1
 BYTE   W12
 BYTE   Fs1
 BYTE   W12
 BYTE   Dn2
 BYTE   W12
 BYTE   Fs1
 BYTE   W12
 BYTE   Cs2
 BYTE   W12
 BYTE   Fs1
 BYTE   W12
//  #03 //020   ----------------------------------------
 BYTE   Bn1
 BYTE   W12
 BYTE   Fs1
 BYTE   W12
 BYTE   Dn2
 BYTE   W12
 BYTE   An1
 BYTE   W12
 BYTE   Fs2
 BYTE   W12
 BYTE   Cs2
 BYTE   W12
 BYTE   En2
 BYTE   W12
 BYTE   Bn1
 BYTE   W12
//  #03 //021   ----------------------------------------
 BYTE   An2
 BYTE   W12
 BYTE   En2
 BYTE   W12
 BYTE   Fs2
 BYTE   W12
 BYTE   Dn2
 BYTE   W12
 BYTE   En2
 BYTE   W12
 BYTE   Cs2
 BYTE   W12
 BYTE   Fs2
 BYTE   W12
 BYTE   Bn1
 BYTE   W12
//  #03 //022   ----------------------------------------
 BYTE   En2
 BYTE   W12
 BYTE   An1
 BYTE   W12
 BYTE   Cs2
 BYTE   W12
 BYTE   Fs1
 BYTE   W12
 BYTE   Bn1
 BYTE   W24
 BYTE   Bn1
 BYTE   W24
//  #03 //023   ----------------------------------------
 BYTE   W96
//  #03 //024   ----------------------------------------
 BYTE   Bn1
 BYTE   W72
 BYTE   Bn1
 BYTE   W24
//  #03 //025   ----------------------------------------
 BYTE   Bn1
 BYTE   W24
 BYTE   Bn1
 BYTE   W72
//  #03 //026   ----------------------------------------
 BYTE   W48
 BYTE   Bn1
 BYTE   W48
//  #03 //027   ----------------------------------------
 BYTE   An1
 BYTE   W48
 BYTE   GoTo
  POIN2 Label_01947FBE
 BYTE   FINE

//**************** Track 4 (Midi-Chn.3) ****************//

song03E0_004:
//  #04 //000   ----------------------------------------
 BYTE   KEYSH   song03E0_key+0
Label_01947B8E:
 BYTE   LFOS 44
 BYTE   VOICE   49
 BYTE   VOL   26*song03E0_mvl/mxv
 BYTE   PAN   c_v+31
 BYTE   N68  Bn2  v085
 BYTE   N68  Bn1
 BYTE   W72
 BYTE   Bn2
 BYTE   N68  Bn1
 BYTE   W24
//  #04 //001   ----------------------------------------
 BYTE   W48
 BYTE   N44  Dn3
 BYTE   N44  Dn2
 BYTE   W48
//  #04 //002   ----------------------------------------
 BYTE   Cs3
 BYTE   N44  Cs2
 BYTE   W48
 BYTE   TIE  Bn2
 BYTE   TIE  Bn1
 BYTE   W48
//  #04 //003   ----------------------------------------
 BYTE   W96
//  #04 //004   ----------------------------------------
Label_01947BB0:
 BYTE   W92
 BYTE   W03
 BYTE   EOT
 BYTE   Bn1  v059
 BYTE   W01
 BYTE   PEND 
//  #04 //005   ----------------------------------------
Label_01947BB7:
 BYTE   TIE  Bn2  v085
 BYTE   TIE  Bn1
 BYTE   W96
 BYTE   PEND 
//  #04 //006   ----------------------------------------
 BYTE   W96
//  #04 //007   ----------------------------------------
 BYTE   W44
 BYTE   W03
 BYTE   EOT
 BYTE   EOT
 BYTE   Bn2
 BYTE   W01
 BYTE   TIE  An2
 BYTE   TIE  An1
 BYTE   W48
//  #04 //008   ----------------------------------------
 BYTE   W96
//  #04 //009   ----------------------------------------
 BYTE   W92
 BYTE   W03
 BYTE   EOT
 BYTE   EOT
 BYTE   An2
 BYTE   W01
//  #04 //010   ----------------------------------------
Label_01947BD1:
 BYTE   TIE  An2  v085
 BYTE   TIE  An1
 BYTE   W96
 BYTE   PEND 
//  #04 //011   ----------------------------------------
 BYTE   W96
//  #04 //012   ----------------------------------------
Label_01947BD9:
 BYTE   W44
 BYTE   W03
 BYTE   EOT
 BYTE   An1  v057
 BYTE   W01
 BYTE   TIE  Bn2  v085
 BYTE   TIE  Bn1
 BYTE   W48
 BYTE   PEND 
//  #04 //013   ----------------------------------------
 BYTE   W96
//  #04 //014   ----------------------------------------
 BYTE   PATT
  POIN2 Label_01947BB0
//  #04 //015   ----------------------------------------
 BYTE   PATT
  POIN2 Label_01947BD1
//  #04 //016   ----------------------------------------
 BYTE   W96
//  #04 //017   ----------------------------------------
 BYTE   PATT
  POIN2 Label_01947BD9
//  #04 //018   ----------------------------------------
 BYTE   W96
//  #04 //019   ----------------------------------------
 BYTE   PATT
  POIN2 Label_01947BB0
//  #04 //020   ----------------------------------------
Label_01947BFD:
 BYTE   TIE  Cs3  v085
 BYTE   TIE  Cs2
 BYTE   W96
 BYTE   PEND 
//  #04 //021   ----------------------------------------
 BYTE   W96
//  #04 //022   ----------------------------------------
 BYTE   W44
 BYTE   W03
 BYTE   EOT
 BYTE   EOT
 BYTE   Cs3
 BYTE   W01
 BYTE   TIE  Bn2
 BYTE   TIE  Bn1
 BYTE   W48
//  #04 //023   ----------------------------------------
 BYTE   W96
//  #04 //024   ----------------------------------------
 BYTE   W96
//  #04 //025   ----------------------------------------
 BYTE   W44
 BYTE   W03
 BYTE   EOT
 BYTE   EOT
 BYTE   Bn2
 BYTE   W48
 BYTE   W01
//  #04 //026   ----------------------------------------
Label_01947C19:
 BYTE   W48
 BYTE   N23  Bn2  v085
 BYTE   N23  Bn1
 BYTE   W48
 BYTE   PEND 
//  #04 //027   ----------------------------------------
 BYTE   An2
 BYTE   N23  An1
 BYTE   W48
 BYTE   GoTo
  POIN2 Label_01947B8E
 BYTE   FINE

//**************** Track 5 (Midi-Chn.4) ****************//

song03E0_005:
//  #05 //000   ----------------------------------------
 BYTE   KEYSH   song03E0_key+0
Label_01947DD6:
 BYTE   LFOS 44
 BYTE   VOICE   127
 BYTE   VOL   36*song03E0_mvl/mxv
 BYTE   N11  Dn1  v085
 BYTE   N18  Gn1  v041
 BYTE   W72
 BYTE   N11  Dn1  v085
 BYTE   N18  Gn1  v041
 BYTE   W24
//  #05 //001   ----------------------------------------
 BYTE   W24
 BYTE   Gn1
 BYTE   W24
 BYTE   N11  Dn1  v085
 BYTE   N18  Gn1  v041
 BYTE   W48
//  #05 //002   ----------------------------------------
 BYTE   N44  Ds1  v085
 BYTE   W48
 BYTE   N11  Dn1
 BYTE   N68  Cn1
 BYTE   TIE  Gn0  v127
 BYTE   N48  Fn0  v041
 BYTE   N12  En0
 BYTE   W24
 BYTE   N11  Dn1  v085
 BYTE   W24
//  #05 //003   ----------------------------------------
 BYTE   Dn1
 BYTE   W24
 BYTE   Dn1
 BYTE   N68  Cn1
 BYTE   W24
 BYTE   N11  Dn1
 BYTE   W12
 BYTE   EOT
 BYTE   Gn0
 BYTE   W12
 BYTE   N11  Dn1
 BYTE   W24
//  #05 //004   ----------------------------------------
 BYTE   N23  Ds1
 BYTE   N92  Cn1
 BYTE   W24
 BYTE   N11  Dn1
 BYTE   W24
 BYTE   Dn1
 BYTE   W24
 BYTE   Dn1
 BYTE   W24
//  #05 //005   ----------------------------------------
Label_01947E24:
 BYTE   N11  Dn1  v085
 BYTE   N68  Cn1
 BYTE   W24
 BYTE   N11  Dn1
 BYTE   W24
 BYTE   N23  Ds1
 BYTE   W24
 BYTE   N11  Dn1
 BYTE   N68  Cn1
 BYTE   W24
 BYTE   PEND 
//  #05 //006   ----------------------------------------
 BYTE   N11  Dn1
 BYTE   W24
 BYTE   Dn1
 BYTE   W24
 BYTE   Dn1
 BYTE   N92  Cn1
 BYTE   W24
 BYTE   N11  Dn1
 BYTE   W24
//  #05 //007   ----------------------------------------
 BYTE   Dn1
 BYTE   W24
 BYTE   Dn1
 BYTE   W24
 BYTE   Dn1
 BYTE   N68  Cn1
 BYTE   W24
 BYTE   N11  Dn1
 BYTE   W24
//  #05 //008   ----------------------------------------
 BYTE   W12
 BYTE   Dn1
 BYTE   W12
 BYTE   Dn1
 BYTE   N68  Cn1
 BYTE   W24
 BYTE   N11  Dn1
 BYTE   W24
 BYTE   Dn1
 BYTE   W24
//  #05 //009   ----------------------------------------
 BYTE   N92  Cn1
 BYTE   W12
 BYTE   N11  Dn1
 BYTE   W12
 BYTE   Dn1
 BYTE   W24
 BYTE   Dn1
 BYTE   W24
 BYTE   Dn1
 BYTE   W24
//  #05 //010   ----------------------------------------
 BYTE   Dn1
 BYTE   N68  Cn1
 BYTE   W24
 BYTE   N11  Dn1
 BYTE   W36
 BYTE   Dn1
 BYTE   W12
 BYTE   Dn1
 BYTE   N68  Cn1
 BYTE   W24
//  #05 //011   ----------------------------------------
 BYTE   N11  Dn1
 BYTE   W24
 BYTE   Dn1
 BYTE   W24
 BYTE   N92  Cn1
 BYTE   W12
 BYTE   N11  Dn1
 BYTE   W12
 BYTE   Dn1
 BYTE   W24
//  #05 //012   ----------------------------------------
 BYTE   W12
 BYTE   Dn1
 BYTE   W12
 BYTE   Dn1
 BYTE   W24
 BYTE   Dn1
 BYTE   N68  Cn1
 BYTE   W24
 BYTE   N11  Dn1
 BYTE   W24
//  #05 //013   ----------------------------------------
 BYTE   Dn1
 BYTE   W24
 BYTE   Dn1
 BYTE   N68  Cn1
 BYTE   W24
 BYTE   N23  Ds1
 BYTE   W24
 BYTE   N11  Dn1
 BYTE   W24
//  #05 //014   ----------------------------------------
 BYTE   Dn1
 BYTE   N92  Cn1
 BYTE   W24
 BYTE   N11  Dn1
 BYTE   W24
 BYTE   N23  Ds1
 BYTE   W24
 BYTE   N11  Dn1
 BYTE   W24
//  #05 //015   ----------------------------------------
 BYTE   PATT
  POIN2 Label_01947E24
//  #05 //016   ----------------------------------------
 BYTE   N11  Dn1  v085
 BYTE   W24
 BYTE   Dn1
 BYTE   W12
 BYTE   Dn1
 BYTE   W12
 BYTE   Dn1
 BYTE   N44  Cn1
 BYTE   W24
 BYTE   N11  Dn1
 BYTE   W12
 BYTE   Dn1
 BYTE   W12
//  #05 //017   ----------------------------------------
 BYTE   Dn1
 BYTE   N44  Cn1
 BYTE   W12
 BYTE   N11  Dn1
 BYTE   W12
 BYTE   Dn1
 BYTE   W12
 BYTE   Dn1
 BYTE   W12
 BYTE   Dn1
 BYTE   N68  Cn1
 BYTE   W12
 BYTE   N11  Dn1
 BYTE   W12
 BYTE   Dn1
 BYTE   W12
 BYTE   Dn1
 BYTE   W12
//  #05 //018   ----------------------------------------
 BYTE   N23  Ds1
 BYTE   W24
 BYTE   N11  Dn1
 BYTE   N68  Cn1
 BYTE   W12
 BYTE   N11  Dn1
 BYTE   W12
 BYTE   Dn1
 BYTE   W24
 BYTE   Dn1
 BYTE   W12
 BYTE   Dn1
 BYTE   W12
//  #05 //019   ----------------------------------------
 BYTE   N23  Ds1
 BYTE   N44  Cn1
 BYTE   W24
 BYTE   N23  Dn1
 BYTE   W24
 BYTE   Ds1
 BYTE   N44  Cn1
 BYTE   W24
 BYTE   N23  Dn1
 BYTE   W24
//  #05 //020   ----------------------------------------
 BYTE   N11
 BYTE   N68  Cn1
 BYTE   W12
 BYTE   N11  Dn1
 BYTE   W12
 BYTE   Dn1
 BYTE   W12
 BYTE   Dn1
 BYTE   W12
 BYTE   Dn1
 BYTE   W12
 BYTE   Dn1
 BYTE   W12
 BYTE   N23  Ds1
 BYTE   N68  Cn1
 BYTE   W24
//  #05 //021   ----------------------------------------
 BYTE   N23  Dn1
 BYTE   W24
 BYTE   Dn1
 BYTE   W24
 BYTE   N11
 BYTE   N44  Cn1
 BYTE   W12
 BYTE   N11  Dn1
 BYTE   W12
 BYTE   Dn1
 BYTE   W12
 BYTE   Dn1
 BYTE   W12
//  #05 //022   ----------------------------------------
 BYTE   N23  Ds1
 BYTE   N44  Cn1
 BYTE   W24
 BYTE   N11  Dn1
 BYTE   W12
 BYTE   Dn1
 BYTE   W12
 BYTE   Dn1
 BYTE   W48
//  #05 //023   ----------------------------------------
 BYTE   Dn1
 BYTE   W24
 BYTE   Dn1
 BYTE   W24
 BYTE   Dn1
 BYTE   W48
//  #05 //024   ----------------------------------------
 BYTE   W24
 BYTE   Dn1
 BYTE   W24
 BYTE   Dn1
 BYTE   W24
 BYTE   Dn1
 BYTE   W24
//  #05 //025   ----------------------------------------
 BYTE   W48
 BYTE   Dn1
 BYTE   W12
 BYTE   Dn1
 BYTE   W12
 BYTE   Dn1
 BYTE   W24
//  #05 //026   ----------------------------------------
 BYTE   Dn1
 BYTE   W12
 BYTE   Dn1
 BYTE   W12
 BYTE   Dn1
 BYTE   W48
 BYTE   Dn1
 BYTE   W24
//  #05 //027   ----------------------------------------
 BYTE   Dn1
 BYTE   W24
 BYTE   N23  Ds1
 BYTE   W24
 BYTE   GoTo
  POIN2 Label_01947DD6
 BYTE   FINE

//**************** Track 6 (Midi-Chn.5) ****************//

song03E0_006:
//  #06 //000   ----------------------------------------
 BYTE   KEYSH   song03E0_key+0
Label_01948C66:
 BYTE   LFOS 44
 BYTE   VOICE   81
 BYTE   PAN   c_v+6
 BYTE   VOL   31*song03E0_mvl/mxv
 BYTE   N68  Fs3  v085
 BYTE   W72
 BYTE   An3
 BYTE   W24
//  #06 //001   ----------------------------------------
 BYTE   PATT
  POIN2 Label_019482F6
//  #06 //002   ----------------------------------------
 BYTE   PATT
  POIN2 Label_019482FC
//  #06 //003   ----------------------------------------
 BYTE   PATT
  POIN2 Label_01948304
//  #06 //004   ----------------------------------------
 BYTE   PATT
  POIN2 Label_0194830A
//  #06 //005   ----------------------------------------
 BYTE   PATT
  POIN2 Label_01948311
//  #06 //006   ----------------------------------------
 BYTE   PATT
  POIN2 Label_01948318
//  #06 //007   ----------------------------------------
 BYTE   PATT
  POIN2 Label_0194831E
//  #06 //008   ----------------------------------------
 BYTE   W96
//  #06 //009   ----------------------------------------
 BYTE   PATT
  POIN2 Label_01948327
//  #06 //010   ----------------------------------------
 BYTE   PATT
  POIN2 Label_01948333
//  #06 //011   ----------------------------------------
 BYTE   PATT
  POIN2 Label_0194833A
//  #06 //012   ----------------------------------------
 BYTE   PATT
  POIN2 Label_01948340
//  #06 //013   ----------------------------------------
 BYTE   PATT
  POIN2 Label_01948304
//  #06 //014   ----------------------------------------
 BYTE   PATT
  POIN2 Label_0194830A
//  #06 //015   ----------------------------------------
 BYTE   PATT
  POIN2 Label_01948352
//  #06 //016   ----------------------------------------
 BYTE   PATT
  POIN2 Label_0194833A
//  #06 //017   ----------------------------------------
 BYTE   PATT
  POIN2 Label_0194835E
//  #06 //018   ----------------------------------------
 BYTE   PATT
  POIN2 Label_0194836C
//  #06 //019   ----------------------------------------
 BYTE   PATT
  POIN2 Label_0194837F
//  #06 //020   ----------------------------------------
 BYTE   PATT
  POIN2 Label_01948392
//  #06 //021   ----------------------------------------
 BYTE   PATT
  POIN2 Label_019483A5
//  #06 //022   ----------------------------------------
 BYTE   PATT
  POIN2 Label_019483B8
//  #06 //023   ----------------------------------------
 BYTE   W96
//  #06 //024   ----------------------------------------
 BYTE   PATT
  POIN2 Label_019483CC
//  #06 //025   ----------------------------------------
 BYTE   PATT
  POIN2 Label_019483D7
//  #06 //026   ----------------------------------------
 BYTE   PATT
  POIN2 Label_019483E2
//  #06 //027   ----------------------------------------
 BYTE   N23  Dn4  v085
 BYTE   N23  Dn3
 BYTE   W48
 BYTE   GoTo
  POIN2 Label_01948C66
 BYTE   FINE

//**************** Track 7 (Midi-Chn.6) ****************//

song03E0_007:
//  #07 //000   ----------------------------------------
 BYTE   KEYSH   song03E0_key+0
Label_01948CFE:
 BYTE   LFOS 44
 BYTE   VOICE   55
 BYTE   PAN   c_v-38
 BYTE   VOL   22*song03E0_mvl/mxv
 BYTE   N68  Bn2  v127
 BYTE   N68  Bn1  v106
 BYTE   W72
 BYTE   Bn2  v127
 BYTE   N68  Bn1  v106
 BYTE   W24
//  #07 //001   ----------------------------------------
 BYTE   W48
 BYTE   N44  Dn3  v127
 BYTE   N44  Dn2  v106
 BYTE   W48
//  #07 //002   ----------------------------------------
 BYTE   Cs3  v127
 BYTE   N44  Cs2  v117
 BYTE   W48
 BYTE   TIE  Bn2  v127
 BYTE   TIE  Bn1  v125
 BYTE   W48
//  #07 //003   ----------------------------------------
 BYTE   W96
//  #07 //004   ----------------------------------------
Label_01948D29:
 BYTE   W92
 BYTE   W03
 BYTE   EOT
 BYTE   Bn2  v047
 BYTE   W01
 BYTE   PEND 
//  #07 //005   ----------------------------------------
 BYTE   PATT
  POIN2 Label_01947BB7
//  #07 //006   ----------------------------------------
 BYTE   W96
//  #07 //007   ----------------------------------------
 BYTE   W44
 BYTE   W03
 BYTE   EOT
 BYTE   Bn2  v047
 BYTE   W01
 BYTE   TIE  An2  v085
 BYTE   TIE  An1
 BYTE   W48
//  #07 //008   ----------------------------------------
 BYTE   W96
//  #07 //009   ----------------------------------------
 BYTE   W92
 BYTE   W03
 BYTE   EOT
 BYTE   An2  v045
 BYTE   W01
//  #07 //010   ----------------------------------------
 BYTE   PATT
  POIN2 Label_01947BD1
//  #07 //011   ----------------------------------------
 BYTE   W96
//  #07 //012   ----------------------------------------
Label_01948D4F:
 BYTE   W44
 BYTE   W03
 BYTE   EOT
 BYTE   An2  v045
 BYTE   W01
 BYTE   TIE  Bn2  v085
 BYTE   TIE  Bn1
 BYTE   W48
 BYTE   PEND 
//  #07 //013   ----------------------------------------
 BYTE   W96
//  #07 //014   ----------------------------------------
 BYTE   PATT
  POIN2 Label_01948D29
//  #07 //015   ----------------------------------------
 BYTE   PATT
  POIN2 Label_01947BD1
//  #07 //016   ----------------------------------------
 BYTE   W96
//  #07 //017   ----------------------------------------
 BYTE   PATT
  POIN2 Label_01948D4F
//  #07 //018   ----------------------------------------
 BYTE   W96
//  #07 //019   ----------------------------------------
 BYTE   PATT
  POIN2 Label_01948D29
//  #07 //020   ----------------------------------------
 BYTE   PATT
  POIN2 Label_01947BFD
//  #07 //021   ----------------------------------------
 BYTE   W96
//  #07 //022   ----------------------------------------
 BYTE   W44
 BYTE   W03
 BYTE   EOT
 BYTE   Cs3  v049
 BYTE   W01
 BYTE   TIE  Bn2  v085
 BYTE   TIE  Bn1
 BYTE   W48
//  #07 //023   ----------------------------------------
 BYTE   W96
//  #07 //024   ----------------------------------------
 BYTE   W96
//  #07 //025   ----------------------------------------
 BYTE   W44
 BYTE   W03
 BYTE   EOT
 BYTE   Bn2  v047
 BYTE   W48
 BYTE   W01
//  #07 //026   ----------------------------------------
 BYTE   PATT
  POIN2 Label_01947C19
//  #07 //027   ----------------------------------------
 BYTE   N23  An2  v085
 BYTE   N23  An1
 BYTE   W48
 BYTE   GoTo
  POIN2 Label_01948CFE
 BYTE   FINE

//**************** Track 8 (Midi-Chn.7) ****************//

song03E0_008:
//  #08 //000   ----------------------------------------
 BYTE   KEYSH   song03E0_key+0
Label_019E26DE:
 BYTE   LFOS 44
 BYTE   VOICE   123
 BYTE   VOL   72*song03E0_mvl/mxv
 BYTE   PAN   c_v-7
 BYTE   W96
//  #08 //001   ----------------------------------------
 BYTE   W96
//  #08 //002   ----------------------------------------
 BYTE   W96
//  #08 //003   ----------------------------------------
 BYTE   W96
//  #08 //004   ----------------------------------------
 BYTE   W96
//  #08 //005   ----------------------------------------
 BYTE   W96
//  #08 //006   ----------------------------------------
 BYTE   W96
//  #08 //007   ----------------------------------------
 BYTE   W96
//  #08 //008   ----------------------------------------
 BYTE   N11  Fs1  v085
 BYTE   W96
//  #08 //009   ----------------------------------------
 BYTE   Fs1
 BYTE   W96
//  #08 //010   ----------------------------------------
Label_019E26F4:
 BYTE   W48
 BYTE   N11  Fs1  v085
 BYTE   W48
 BYTE   PEND 
//  #08 //011   ----------------------------------------
 BYTE   PATT
  POIN2 Label_019E26F4
//  #08 //012   ----------------------------------------
 BYTE   N11  Fs1  v085
 BYTE   W12
 BYTE   N12  Fs1  v097
 BYTE   W12
 BYTE   N18  Gs1  v117
 BYTE   W72
//  #08 //013   ----------------------------------------
 BYTE   W96
//  #08 //014   ----------------------------------------
 BYTE   W96
//  #08 //015   ----------------------------------------
 BYTE   W96
//  #08 //016   ----------------------------------------
 BYTE   W96
//  #08 //017   ----------------------------------------
 BYTE   PATT
  POIN2 Label_019E26F4
//  #08 //018   ----------------------------------------
Label_019E2714:
 BYTE   N11  Fs1  v085
 BYTE   W48
 BYTE   Fs1
 BYTE   W48
 BYTE   PEND 
//  #08 //019   ----------------------------------------
 BYTE   PATT
  POIN2 Label_019E2714
//  #08 //020   ----------------------------------------
 BYTE   PATT
  POIN2 Label_019E2714
//  #08 //021   ----------------------------------------
 BYTE   N11  Fs1  v085
 BYTE   W48
 BYTE   Fs1
 BYTE   W24
 BYTE   N12
 BYTE   W24
//  #08 //022   ----------------------------------------
 BYTE   Fs1
 BYTE   W12
 BYTE   Fs1  v066
 BYTE   N12  Gs1  v041
 BYTE   W12
 BYTE   Fs1  v085
 BYTE   W12
 BYTE   N18  As1  v105
 BYTE   W60
//  #08 //023   ----------------------------------------
 BYTE   W96
//  #08 //024   ----------------------------------------
 BYTE   W96
//  #08 //025   ----------------------------------------
 BYTE   Fs1  v085
 BYTE   W48
 BYTE   Fs1
 BYTE   W48
//  #08 //026   ----------------------------------------
 BYTE   W72
 BYTE   N12  Fs1  v097
 BYTE   W12
 BYTE   Fs1  v117
 BYTE   W12
//  #08 //027   ----------------------------------------
 BYTE   N24  Gs1  v127
 BYTE   W18
 BYTE   N30  As1
 BYTE   W30
 BYTE   GoTo
  POIN2 Label_019E26DE
 BYTE   FINE

//**************** Track 9 (Midi-Chn.8) ****************//

song03E0_009:
//  #09 //000   ----------------------------------------
 BYTE   KEYSH   song03E0_key+0
Label_019E27B2:
 BYTE   LFOS 44
 BYTE   VOICE   62
 BYTE   VOL   31*song03E0_mvl/mxv
 BYTE   N68  Fs3  v097
 BYTE   W72
 BYTE   An3  v117
 BYTE   W24
//  #09 //001   ----------------------------------------
 BYTE   W48
 BYTE   N48  Dn4  v127
 BYTE   W48
//  #09 //002   ----------------------------------------
 BYTE   Cs4
 BYTE   W48
 BYTE   N68  Bn3
 BYTE   W48
//  #09 //003   ----------------------------------------
 BYTE   W96
//  #09 //004   ----------------------------------------
 BYTE   W96
//  #09 //005   ----------------------------------------
 BYTE   W96
//  #09 //006   ----------------------------------------
 BYTE   W96
//  #09 //007   ----------------------------------------
 BYTE   W96
//  #09 //008   ----------------------------------------
 BYTE   W96
//  #09 //009   ----------------------------------------
 BYTE   W96
//  #09 //010   ----------------------------------------
 BYTE   W96
//  #09 //011   ----------------------------------------
 BYTE   W96
//  #09 //012   ----------------------------------------
 BYTE   W96
//  #09 //013   ----------------------------------------
 BYTE   W96
//  #09 //014   ----------------------------------------
 BYTE   W96
//  #09 //015   ----------------------------------------
 BYTE   W96
//  #09 //016   ----------------------------------------
 BYTE   W96
//  #09 //017   ----------------------------------------
 BYTE   W96
//  #09 //018   ----------------------------------------
 BYTE   W96
//  #09 //019   ----------------------------------------
 BYTE   W96
//  #09 //020   ----------------------------------------
 BYTE   W96
//  #09 //021   ----------------------------------------
 BYTE   W96
//  #09 //022   ----------------------------------------
 BYTE   W96
//  #09 //023   ----------------------------------------
 BYTE   W96
//  #09 //024   ----------------------------------------
 BYTE   W96
//  #09 //025   ----------------------------------------
 BYTE   W96
//  #09 //026   ----------------------------------------
 BYTE   W96
//  #09 //027   ----------------------------------------
 BYTE   W48
 BYTE   GoTo
  POIN2 Label_019E27B2
 BYTE   FINE

//******************************************************//
	ALIGN 4

song03E0:
	BYTE	9	// NumTrks
	BYTE	0	// NumBlks
	BYTE	song03E0_pri	// Priority
	BYTE	song03E0_rev	// Reverb.
    
	POIN2	song03E0_grp
    
	POIN2	song03E0_001
	POIN2	song03E0_002
	POIN2	song03E0_003
	POIN2	song03E0_004
	POIN2	song03E0_005
	POIN2	song03E0_006
	POIN2	song03E0_007
	POIN2	song03E0_008
	POIN2	song03E0_009

	
