//Event file generated from Sappy .s format.
	#include "MPlayDef.event"

	#define	song03A9_grp  voicegroup001
	#define	song03A9_pri  0
	#define	song03A9_rev  0
	#define	song03A9_mvl  127
	#define	song03A9_key  0
	#define	song03A9_tbs  1
	#define	song03A9_exg  0
	#define	song03A9_cmp  1

	// .rodata
	//	song03A9
	ALIGN 4


//**************** Track 1 (Midi-Chn.0) ****************//

song03A9_001:
// 000   ----------------------------------------
 BYTE   KEYSH   song03A9_key+0
 BYTE   TEMPO   240*song03A9_tbs/2
 BYTE   VOICE   92
 BYTE   PAN   c_v+34
 BYTE   W12
 BYTE   VOL   24*song03A9_mvl/mxv
 BYTE   W06
 BYTE   W06
 BYTE   TEMPO   194*song03A9_tbs/2
 BYTE   N12  Bn2  v127
 BYTE   N12  En3
 BYTE   W36
 BYTE   Bn2
 BYTE   N12  En3
 BYTE   W36
// 001   ----------------------------------------
 BYTE   An2
 BYTE   N12  Dn3
 BYTE   W12
 BYTE   Bn2
 BYTE   N12  En3
 BYTE   W12
 BYTE   An2
 BYTE   W12
 BYTE   Gn2
 BYTE   W12
 BYTE   Fs2
 BYTE   W12
 BYTE   Gn2
 BYTE   W12
 BYTE   En2
 BYTE   W12
 BYTE   Fs2
 BYTE   W12
// 002   ----------------------------------------
 BYTE   Bn1
 BYTE   W12
 BYTE   Dn2
 BYTE   W12
Label_0_0175E0D1:
 BYTE   N48  Bn3  v127
 BYTE   W48
 BYTE   N12
 BYTE   W12
 BYTE   Cn4
 BYTE   W12
// 003   ----------------------------------------
 BYTE   Dn4
 BYTE   W12
 BYTE   En4
 BYTE   W12
 BYTE   PEND 
Label_0_0175E0DE:
 BYTE   N48  Bn3  v127
 BYTE   W48
 BYTE   N24  Gn3
 BYTE   W24
// 004   ----------------------------------------
 BYTE   Bn3
 BYTE   W24
 BYTE   PEND 
Label_0_0175E0E8:
 BYTE   N36  An3  v127
 BYTE   W36
 BYTE   Bn3
 BYTE   W36
// 005   ----------------------------------------
 BYTE   N24  Cn4
 BYTE   W24
 BYTE   PEND 
Label_0_0175E0F2:
 BYTE   N36  Bn3  v127
 BYTE   W36
 BYTE   Ds4
 BYTE   W36
// 006   ----------------------------------------
 BYTE   N24  Fs4
 BYTE   W24
 BYTE   PEND 
Label_0_0175E0FC:
 BYTE   N48  Gn4  v127
 BYTE   W48
 BYTE   N24  En4
 BYTE   W24
// 007   ----------------------------------------
 BYTE   Gn4
 BYTE   W24
 BYTE   PEND 
Label_0_0175E106:
 BYTE   N48  Fs4  v127
 BYTE   W48
 BYTE   Dn4
 BYTE   W48
 BYTE   PEND 
// 008   ----------------------------------------
 BYTE   Bn3
 BYTE   W48
 BYTE   N18
 BYTE   W18
 BYTE   Cn4
 BYTE   W18
 BYTE   N12  Dn4
 BYTE   W12
// 009   ----------------------------------------
 BYTE   N96  Bn3
 BYTE   W96
// 010   ----------------------------------------
 BYTE   PATT
  POIN2 Label_0_0175E0D1
// 011   ----------------------------------------
 BYTE   PATT
  POIN2 Label_0_0175E0DE
// 012   ----------------------------------------
 BYTE   PATT
  POIN2 Label_0_0175E0E8
// 013   ----------------------------------------
 BYTE   PATT
  POIN2 Label_0_0175E0F2
// 014   ----------------------------------------
 BYTE   PATT
  POIN2 Label_0_0175E0FC
// 015   ----------------------------------------
 BYTE   PATT
  POIN2 Label_0_0175E106
// 016   ----------------------------------------
 BYTE   N48  Cn4  v127
 BYTE   W48
 BYTE   N18
 BYTE   W18
 BYTE   Dn4
 BYTE   W18
 BYTE   N12  En4
 BYTE   W12
// 017   ----------------------------------------
 BYTE   N48  Fs4
 BYTE   W48
 BYTE   Bn3
 BYTE   W48
// 018   ----------------------------------------
 BYTE   Cs4
 BYTE   W48
 BYTE   N24  Bn3
 BYTE   W24
 BYTE   En4
 BYTE   W24
// 019   ----------------------------------------
 BYTE   N48  Cs4
 BYTE   W48
 BYTE   N12
 BYTE   W12
 BYTE   Bn3
 BYTE   W12
 BYTE   An3
 BYTE   W12
 BYTE   Bn3
 BYTE   W12
// 020   ----------------------------------------
 BYTE   N36  Cn4
 BYTE   W36
 BYTE   Bn3
 BYTE   W36
 BYTE   N24  Gn3
 BYTE   W24
// 021   ----------------------------------------
 BYTE   N96  An3
 BYTE   W96
// 022   ----------------------------------------
 BYTE   N48  Dn4
 BYTE   W48
 BYTE   N18
 BYTE   W18
 BYTE   Cn4
 BYTE   W18
 BYTE   N12  As3
 BYTE   W12
// 023   ----------------------------------------
 BYTE   N18  An3
 BYTE   W18
 BYTE   As3
 BYTE   W18
 BYTE   N12  Cn4
 BYTE   W12
 BYTE   N48  Dn4
 BYTE   W48
// 024   ----------------------------------------
Label_0_0175E179:
 BYTE   N36  Gn3  v127
 BYTE   W36
 BYTE   An3
 BYTE   W36
 BYTE   Bn3
 BYTE   W24
 BYTE   PEND 
// 025   ----------------------------------------
Label_0_0175E182:
 BYTE   W12
 BYTE   N36  Gn4  v127
 BYTE   W36
 BYTE   N24  Fs4
 BYTE   W24
 BYTE   En4
 BYTE   W24
 BYTE   PEND 
// 026   ----------------------------------------
Label_0_0175E18D:
 BYTE   N36  Dn4  v127
 BYTE   W36
 BYTE   En4
 BYTE   W36
 BYTE   TIE  Bn3
 BYTE   W24
 BYTE   PEND 
// 027   ----------------------------------------
 BYTE   W96
// 028   ----------------------------------------
 BYTE   EOT
Label_0_0175E199:
 BYTE   N24  Cn4  v127
 BYTE   W24
 BYTE   N12  Dn4
 BYTE   W12
 BYTE   N36  En4
 BYTE   W36
 BYTE   N24  An4
 BYTE   W24
 BYTE   PEND 
// 029   ----------------------------------------
Label_0_0175E1A7:
 BYTE   N36  Bn4  v127
 BYTE   W36
 BYTE   Cn5
 BYTE   W36
 BYTE   N24  An4
 BYTE   W24
 BYTE   PEND 
// 030   ----------------------------------------
Label_0_0175E1B1:
 BYTE   N36  Fs4  v127
 BYTE   W36
 BYTE   Gn4
 BYTE   W36
 BYTE   N24  An4
 BYTE   W24
 BYTE   PEND 
// 031   ----------------------------------------
Label_0_0175E1BB:
 BYTE   N48  Bn4  v127
 BYTE   W48
 BYTE   Ds4
 BYTE   W48
 BYTE   PEND 
// 032   ----------------------------------------
 BYTE   PATT
  POIN2 Label_0_0175E179
// 033   ----------------------------------------
 BYTE   PATT
  POIN2 Label_0_0175E182
// 034   ----------------------------------------
 BYTE   PATT
  POIN2 Label_0_0175E18D
// 035   ----------------------------------------
 BYTE   W96
// 036   ----------------------------------------
 BYTE   EOT
 BYTE   Bn3
// 037   ----------------------------------------
 BYTE   PATT
  POIN2 Label_0_0175E199
// 038   ----------------------------------------
 BYTE   PATT
  POIN2 Label_0_0175E1A7
// 039   ----------------------------------------
 BYTE   PATT
  POIN2 Label_0_0175E1B1
// 040   ----------------------------------------
 BYTE   PATT
  POIN2 Label_0_0175E1BB
// 041   ----------------------------------------
 BYTE   GoTo
  POIN2 Label_0_0175E0D1
 BYTE   FINE

//**************** Track 2 (Midi-Chn.1) ****************//

song03A9_002:
// 000   ----------------------------------------
 BYTE   KEYSH   song03A9_key+0
 BYTE   VOICE   66
 BYTE   PAN   c_v+20
 BYTE   W12
 BYTE   VOL   28*song03A9_mvl/mxv
 BYTE   W06
 BYTE   W06
 BYTE   W96
// 001   ----------------------------------------
 BYTE   W96
// 002   ----------------------------------------
Label_1_0175E1FD:
 BYTE   N48  Bn2  v127
 BYTE   N48  Bn3
 BYTE   W48
 BYTE   N12  Bn2
 BYTE   N12  Bn3
 BYTE   W12
 BYTE   Cn3
 BYTE   N12  Cn4
 BYTE   W12
 BYTE   Dn3
 BYTE   N12  Dn4
 BYTE   W12
 BYTE   En3
 BYTE   N12  En4
 BYTE   W12
 BYTE   PEND 
// 003   ----------------------------------------
Label_1_0175E215:
 BYTE   N48  Bn2  v127
 BYTE   N48  Bn3
 BYTE   W48
 BYTE   N24  Gn2
 BYTE   N24  Gn3
 BYTE   W24
 BYTE   Bn2
 BYTE   N24  Bn3
 BYTE   W24
 BYTE   PEND 
// 004   ----------------------------------------
Label_1_0175E225:
 BYTE   N36  An2  v127
 BYTE   N36  An3
 BYTE   W36
 BYTE   Bn2
 BYTE   N36  Bn3
 BYTE   W36
 BYTE   N24  Cn3
 BYTE   N24  Cn4
 BYTE   W24
 BYTE   PEND 
// 005   ----------------------------------------
Label_1_0175E235:
 BYTE   N36  Bn2  v127
 BYTE   N36  Bn3
 BYTE   W36
 BYTE   Ds3
 BYTE   N36  Ds4
 BYTE   W36
 BYTE   N24  Fs3
 BYTE   N24  Fs4
 BYTE   W24
 BYTE   PEND 
// 006   ----------------------------------------
Label_1_0175E245:
 BYTE   N48  Gn3  v127
 BYTE   N48  Gn4
 BYTE   W48
 BYTE   N24  En3
 BYTE   N24  En4
 BYTE   W24
 BYTE   Gn3
 BYTE   N24  Gn4
 BYTE   W24
 BYTE   PEND 
// 007   ----------------------------------------
Label_1_0175E255:
 BYTE   N48  Fs3  v127
 BYTE   N48  Fs4
 BYTE   W48
 BYTE   Dn3
 BYTE   N48  Dn4
 BYTE   W48
 BYTE   PEND 
// 008   ----------------------------------------
 BYTE   Bn2
 BYTE   N48  Bn3
 BYTE   W48
 BYTE   N18  Bn2
 BYTE   N18  Bn3
 BYTE   W18
 BYTE   Cn3
 BYTE   N18  Cn4
 BYTE   W18
 BYTE   N12  Dn3
 BYTE   N12  Dn4
 BYTE   W12
// 009   ----------------------------------------
 BYTE   N96  Bn2
 BYTE   N96  Bn3
 BYTE   W96
// 010   ----------------------------------------
 BYTE   PATT
  POIN2 Label_1_0175E1FD
// 011   ----------------------------------------
 BYTE   PATT
  POIN2 Label_1_0175E215
// 012   ----------------------------------------
 BYTE   PATT
  POIN2 Label_1_0175E225
// 013   ----------------------------------------
 BYTE   PATT
  POIN2 Label_1_0175E235
// 014   ----------------------------------------
 BYTE   PATT
  POIN2 Label_1_0175E245
// 015   ----------------------------------------
 BYTE   PATT
  POIN2 Label_1_0175E255
// 016   ----------------------------------------
 BYTE   N48  Cn3  v127
 BYTE   N48  Cn4
 BYTE   W48
 BYTE   N18  Cn3
 BYTE   N18  Cn4
 BYTE   W18
 BYTE   Dn3
 BYTE   N18  Dn4
 BYTE   W18
 BYTE   N12  En3
 BYTE   N12  En4
 BYTE   W12
// 017   ----------------------------------------
 BYTE   N48  Fs3
 BYTE   N48  Fs4
 BYTE   W48
 BYTE   Bn2
 BYTE   N48  Bn3
 BYTE   W48
// 018   ----------------------------------------
 BYTE   Cs3
 BYTE   N48  Cs4
 BYTE   W48
 BYTE   N12  Cs3
 BYTE   N24  Bn3
 BYTE   W12
 BYTE   N12  Bn2
 BYTE   W12
 BYTE   An2
 BYTE   N24  En4
 BYTE   W12
 BYTE   N12  Gs2
 BYTE   W12
// 019   ----------------------------------------
 BYTE   N36  An2
 BYTE   N48  Cs4
 BYTE   W36
 BYTE   N36  Fs2
 BYTE   W12
 BYTE   N12  Cs4
 BYTE   W12
 BYTE   Bn3
 BYTE   W12
 BYTE   N24  Cs3
 BYTE   N12  An3
 BYTE   W12
 BYTE   Bn3
 BYTE   W12
// 020   ----------------------------------------
 BYTE   N36  Cn3
 BYTE   N36  Cn4
 BYTE   W36
 BYTE   Bn2
 BYTE   N36  Bn3
 BYTE   W36
 BYTE   N24  Cn3
 BYTE   N24  Gn3
 BYTE   W24
// 021   ----------------------------------------
 BYTE   N36  Dn3
 BYTE   N96  An3
 BYTE   W36
 BYTE   N36  Cn3
 BYTE   W36
 BYTE   N24  Bn2
 BYTE   W24
// 022   ----------------------------------------
 BYTE   N48  As2
 BYTE   N48  Dn4
 BYTE   W48
 BYTE   N18  As2
 BYTE   N18  Dn4
 BYTE   W18
 BYTE   An2
 BYTE   N18  Cn4
 BYTE   W18
 BYTE   N12  As2
 BYTE   N12  As3
 BYTE   W12
// 023   ----------------------------------------
 BYTE   N48  Cn3
 BYTE   N18  An3
 BYTE   W18
 BYTE   As3
 BYTE   W18
 BYTE   N12  Cn4
 BYTE   W12
 BYTE   N48  Dn3
 BYTE   N48  Dn4
 BYTE   W48
// 024   ----------------------------------------
 BYTE   N96  En3
 BYTE   W96
// 025   ----------------------------------------
 BYTE   Bn2
 BYTE   W96
// 026   ----------------------------------------
 BYTE   Cn3
 BYTE   W96
// 027   ----------------------------------------
Label_1_0175E31B:
 BYTE   N48  Gn2  v127
 BYTE   W48
 BYTE   Cn3
 BYTE   W48
 BYTE   PEND 
// 028   ----------------------------------------
Label_1_0175E322:
 BYTE   N36  An2  v127
 BYTE   W36
 BYTE   Bn2
 BYTE   W36
 BYTE   N24  Cn3
 BYTE   W24
 BYTE   PEND 
// 029   ----------------------------------------
Label_1_0175E32C:
 BYTE   N48  Dn3  v127
 BYTE   W48
 BYTE   En3
 BYTE   W48
 BYTE   PEND 
// 030   ----------------------------------------
Label_1_0175E333:
 BYTE   N36  Ds3  v127
 BYTE   W36
 BYTE   Bn2
 BYTE   W36
 BYTE   N24  Fs2
 BYTE   W24
 BYTE   PEND 
// 031   ----------------------------------------
Label_1_0175E33D:
 BYTE   N36  Ds2  v127
 BYTE   W36
 BYTE   En2
 BYTE   W36
 BYTE   N24  Fs2
 BYTE   W24
 BYTE   PEND 
// 032   ----------------------------------------
 BYTE   N96  En3
 BYTE   W96
// 033   ----------------------------------------
 BYTE   Bn2
 BYTE   W96
// 034   ----------------------------------------
 BYTE   Cn3
 BYTE   W96
// 035   ----------------------------------------
 BYTE   PATT
  POIN2 Label_1_0175E31B
// 036   ----------------------------------------
 BYTE   PATT
  POIN2 Label_1_0175E322
// 037   ----------------------------------------
 BYTE   PATT
  POIN2 Label_1_0175E32C
// 038   ----------------------------------------
 BYTE   PATT
  POIN2 Label_1_0175E333
// 039   ----------------------------------------
 BYTE   PATT
  POIN2 Label_1_0175E33D
// 040   ----------------------------------------
 BYTE   GoTo
  POIN2 Label_1_0175E1FD
 BYTE   FINE

//**************** Track 3 (Midi-Chn.2) ****************//

song03A9_003:
// 000   ----------------------------------------
 BYTE   KEYSH   song03A9_key+0
 BYTE   PAN   c_v-8
 BYTE   W12
 BYTE   VOL   20*song03A9_mvl/mxv
 BYTE   W06
 BYTE   W03
 BYTE   VOICE   35
 BYTE   W03
 BYTE   N12  En1  v127
 BYTE   W36
 BYTE   N12
 BYTE   W36
// 001   ----------------------------------------
 BYTE   N12
 BYTE   W24
 BYTE   An1
 BYTE   W12
 BYTE   Gn1
 BYTE   W12
 BYTE   Fs1
 BYTE   W12
 BYTE   Gn1
 BYTE   W12
 BYTE   En1
 BYTE   W12
 BYTE   Fs1
 BYTE   W12
// 002   ----------------------------------------
 BYTE   Bn0
 BYTE   W12
 BYTE   Dn1
 BYTE   W12
Label_2_0175E394:
 BYTE   N12  En1  v127
 BYTE   W24
 BYTE   Bn0
 BYTE   W24
 BYTE   En1
 BYTE   W12
 BYTE   N12
 BYTE   W12
// 003   ----------------------------------------
 BYTE   Dn1
 BYTE   W12
 BYTE   En1
 BYTE   W12
 BYTE   PEND 
Label_2_0175E3A3:
 BYTE   N12  Cn2  v127
 BYTE   W12
 BYTE   N12
 BYTE   W24
 BYTE   N12
 BYTE   W12
 BYTE   N12
 BYTE   W12
 BYTE   N12
 BYTE   W12
// 004   ----------------------------------------
 BYTE   Bn1
 BYTE   W12
 BYTE   Cn2
 BYTE   W12
 BYTE   PEND 
Label_2_0175E3B4:
 BYTE   N12  Dn1  v127
 BYTE   W24
 BYTE   Dn2
 BYTE   W24
 BYTE   Cn2
 BYTE   W24
// 005   ----------------------------------------
 BYTE   Dn2
 BYTE   W24
 BYTE   PEND 
Label_2_0175E3BF:
 BYTE   N12  Bn1  v127
 BYTE   W12
 BYTE   Ds2
 BYTE   W12
 BYTE   Fs2
 BYTE   W12
 BYTE   Ds2
 BYTE   W12
 BYTE   N12
 BYTE   W12
 BYTE   N12
 BYTE   W12
// 006   ----------------------------------------
 BYTE   Bn1
 BYTE   W12
 BYTE   N12
 BYTE   W12
 BYTE   PEND 
// 007   ----------------------------------------
 BYTE   PATT
  POIN2 Label_2_0175E3A3
// 008   ----------------------------------------
 BYTE   PATT
  POIN2 Label_2_0175E3B4
// 009   ----------------------------------------
 BYTE   N12  Bn1  v127
 BYTE   W24
 BYTE   Fs1
 BYTE   W12
 BYTE   N24  Bn2
 BYTE   W24
 BYTE   N12  Bn1
 BYTE   W12
 BYTE   An2
 BYTE   W12
 BYTE   Bn2
 BYTE   W12
// 010   ----------------------------------------
 BYTE   Bn1
 BYTE   W12
 BYTE   N12
 BYTE   W12
 BYTE   An1
 BYTE   W12
 BYTE   N12
 BYTE   W12
 BYTE   Gn1
 BYTE   W12
 BYTE   N12
 BYTE   W12
 BYTE   Fs1
 BYTE   W12
 BYTE   N12
 BYTE   W12
// 011   ----------------------------------------
 BYTE   PATT
  POIN2 Label_2_0175E394
// 012   ----------------------------------------
 BYTE   PATT
  POIN2 Label_2_0175E3A3
// 013   ----------------------------------------
 BYTE   PATT
  POIN2 Label_2_0175E3B4
// 014   ----------------------------------------
 BYTE   PATT
  POIN2 Label_2_0175E3BF
// 015   ----------------------------------------
 BYTE   PATT
  POIN2 Label_2_0175E3A3
// 016   ----------------------------------------
 BYTE   PATT
  POIN2 Label_2_0175E3B4
// 017   ----------------------------------------
 BYTE   N12  Cn2  v127
 BYTE   W24
 BYTE   Gn1
 BYTE   W24
 BYTE   Cn2
 BYTE   W12
 BYTE   N12
 BYTE   W12
 BYTE   Bn1
 BYTE   W12
 BYTE   Cn2
 BYTE   W12
// 018   ----------------------------------------
 BYTE   Bn1
 BYTE   W12
 BYTE   Ds2
 BYTE   W12
 BYTE   Fs2
 BYTE   W12
 BYTE   Bn1
 BYTE   W12
 BYTE   Bn2
 BYTE   W12
 BYTE   Fs2
 BYTE   W12
 BYTE   Ds2
 BYTE   W12
 BYTE   Bn1
 BYTE   W12
// 019   ----------------------------------------
 BYTE   Fs1
 BYTE   W24
 BYTE   Fs2
 BYTE   W24
 BYTE   En2
 BYTE   W24
 BYTE   Fs2
 BYTE   W24
// 020   ----------------------------------------
 BYTE   N12
 BYTE   W36
 BYTE   N12
 BYTE   W36
 BYTE   En2
 BYTE   W12
 BYTE   Fs2
 BYTE   W12
// 021   ----------------------------------------
 BYTE   An1
 BYTE   W12
 BYTE   N12
 BYTE   W12
 BYTE   An2
 BYTE   W24
 BYTE   Gn2
 BYTE   W24
 BYTE   An2
 BYTE   W24
// 022   ----------------------------------------
 BYTE   N12
 BYTE   W36
 BYTE   Gn2
 BYTE   W12
 BYTE   An2
 BYTE   W24
 BYTE   En2
 BYTE   W12
 BYTE   Gn2
 BYTE   W12
// 023   ----------------------------------------
 BYTE   Gn1
 BYTE   W12
 BYTE   N12
 BYTE   W12
 BYTE   Gn2
 BYTE   W24
 BYTE   Fn2
 BYTE   W24
 BYTE   Gn2
 BYTE   W24
// 024   ----------------------------------------
 BYTE   Gn1
 BYTE   W12
 BYTE   Gn2
 BYTE   W24
 BYTE   N12
 BYTE   W24
 BYTE   Fn2
 BYTE   W12
 BYTE   Gn2
 BYTE   W24
// 025   ----------------------------------------
Label_2_0175E470:
 BYTE   N12  En1  v127
 BYTE   W12
 BYTE   N12
 BYTE   W12
 BYTE   Dn1
 BYTE   W12
 BYTE   En1
 BYTE   W12
 BYTE   Gn1
 BYTE   W12
 BYTE   Fs1
 BYTE   W12
 BYTE   En1
 BYTE   W12
 BYTE   N24
 BYTE   W12
 BYTE   PEND 
// 026   ----------------------------------------
Label_2_0175E483:
 BYTE   W12
 BYTE   N12  En1  v127
 BYTE   W12
 BYTE   Dn1
 BYTE   W12
 BYTE   En1
 BYTE   W12
 BYTE   Gn1
 BYTE   W12
 BYTE   Fs1
 BYTE   W12
 BYTE   En1
 BYTE   W12
 BYTE   N24  Cn2
 BYTE   W12
 BYTE   PEND 
// 027   ----------------------------------------
Label_2_0175E496:
 BYTE   W12
 BYTE   N12  Cn2  v127
 BYTE   W12
 BYTE   Bn1
 BYTE   W12
 BYTE   N24  Cn2
 BYTE   W24
 BYTE   N12
 BYTE   W12
 BYTE   N12
 BYTE   W12
 BYTE   N12
 BYTE   W12
 BYTE   PEND 
// 028   ----------------------------------------
Label_2_0175E4A7:
 BYTE   N12  Cn2  v127
 BYTE   W12
 BYTE   N12
 BYTE   W12
 BYTE   Cn3
 BYTE   W12
 BYTE   Cn2
 BYTE   W12
 BYTE   Bn2
 BYTE   W12
 BYTE   Cn3
 BYTE   W12
 BYTE   Cn2
 BYTE   W12
 BYTE   N12
 BYTE   W12
 BYTE   PEND 
// 029   ----------------------------------------
Label_2_0175E4BA:
 BYTE   N12  An1  v127
 BYTE   W12
 BYTE   N12
 BYTE   W12
 BYTE   Gn1
 BYTE   W12
 BYTE   An1
 BYTE   W12
 BYTE   Cn2
 BYTE   W12
 BYTE   Bn1
 BYTE   W12
 BYTE   An1
 BYTE   W12
 BYTE   N24
 BYTE   W12
 BYTE   PEND 
// 030   ----------------------------------------
Label_2_0175E4CD:
 BYTE   W12
 BYTE   N12  An1  v127
 BYTE   W12
 BYTE   Gn1
 BYTE   W12
 BYTE   An1
 BYTE   W12
 BYTE   Cn2
 BYTE   W12
 BYTE   Bn1
 BYTE   W12
 BYTE   An1
 BYTE   W12
 BYTE   N24  Bn1
 BYTE   W12
 BYTE   PEND 
// 031   ----------------------------------------
Label_2_0175E4E0:
 BYTE   W12
 BYTE   N12  Bn1  v127
 BYTE   W12
 BYTE   An1
 BYTE   W12
 BYTE   Bn1
 BYTE   W12
 BYTE   Cn2
 BYTE   W12
 BYTE   Bn1
 BYTE   W12
 BYTE   An1
 BYTE   W12
 BYTE   N24  Bn1
 BYTE   W12
 BYTE   PEND 
// 032   ----------------------------------------
Label_2_0175E4F3:
 BYTE   W12
 BYTE   N12  Bn1  v127
 BYTE   W12
 BYTE   An1
 BYTE   W12
 BYTE   Bn1
 BYTE   W12
 BYTE   Fs2
 BYTE   W12
 BYTE   Ds2
 BYTE   W12
 BYTE   Bn1
 BYTE   W12
 BYTE   Fs1
 BYTE   W12
 BYTE   PEND 
// 033   ----------------------------------------
 BYTE   PATT
  POIN2 Label_2_0175E470
// 034   ----------------------------------------
 BYTE   PATT
  POIN2 Label_2_0175E483
// 035   ----------------------------------------
 BYTE   PATT
  POIN2 Label_2_0175E496
// 036   ----------------------------------------
 BYTE   PATT
  POIN2 Label_2_0175E4A7
// 037   ----------------------------------------
 BYTE   PATT
  POIN2 Label_2_0175E4BA
// 038   ----------------------------------------
 BYTE   PATT
  POIN2 Label_2_0175E4CD
// 039   ----------------------------------------
 BYTE   PATT
  POIN2 Label_2_0175E4E0
// 040   ----------------------------------------
 BYTE   PATT
  POIN2 Label_2_0175E4F3
// 041   ----------------------------------------
 BYTE   GoTo
  POIN2 Label_2_0175E394
 BYTE   FINE

//**************** Track 4 (Midi-Chn.3) ****************//

song03A9_004:
// 000   ----------------------------------------
 BYTE   KEYSH   song03A9_key+0
 BYTE   VOICE   30
 BYTE   VOL   19*song03A9_mvl/mxv
 BYTE   PAN   c_v-25
 BYTE   W18
 BYTE   W06
 BYTE   N12  Bn2  v127
 BYTE   N12  En3
 BYTE   W36
 BYTE   Bn2
 BYTE   N12  En3
 BYTE   W36
// 001   ----------------------------------------
 BYTE   An2
 BYTE   N12  Dn3
 BYTE   W12
 BYTE   Bn2
 BYTE   N12  En3
 BYTE   W12
 BYTE   An2
 BYTE   W12
 BYTE   Gn2
 BYTE   W12
 BYTE   Fs2
 BYTE   W12
 BYTE   Gn2
 BYTE   W12
 BYTE   En2
 BYTE   W12
 BYTE   Fs2
 BYTE   W12
// 002   ----------------------------------------
 BYTE   Bn1
 BYTE   W12
 BYTE   Dn2
 BYTE   W12
Label_3_0175E560:
 BYTE   N12  Bn2  v127
 BYTE   N12  En3
 BYTE   N48  Bn3
 BYTE   W36
 BYTE   N12  Bn2
 BYTE   N12  En3
 BYTE   W12
 BYTE   Bn3
 BYTE   W12
 BYTE   Cn4
 BYTE   W12
// 003   ----------------------------------------
 BYTE   Bn2
 BYTE   N12  En3
 BYTE   N12  Dn4
 BYTE   W12
 BYTE   En4
 BYTE   W12
 BYTE   PEND 
Label_3_0175E57A:
 BYTE   N96  Gn2  v127
 BYTE   N96  Cn3
 BYTE   N48  Bn3
 BYTE   W48
 BYTE   N24  Gn3
 BYTE   W24
// 004   ----------------------------------------
 BYTE   Bn3
 BYTE   W24
 BYTE   PEND 
Label_3_0175E588:
 BYTE   N12  An2  v127
 BYTE   N12  Dn3
 BYTE   N36  An3
 BYTE   W36
 BYTE   N12  An2
 BYTE   N12  Dn3
 BYTE   N36  Bn3
 BYTE   W36
// 005   ----------------------------------------
 BYTE   N12  An2
 BYTE   N12  Dn3
 BYTE   N24  Cn4
 BYTE   W24
 BYTE   PEND 
Label_3_0175E59F:
 BYTE   N96  Fs2  v127
 BYTE   N96  Bn2
 BYTE   N36  Bn3
 BYTE   W36
 BYTE   Ds4
 BYTE   W36
// 006   ----------------------------------------
 BYTE   N24  Fs4
 BYTE   W24
 BYTE   PEND 
Label_3_0175E5AD:
 BYTE   N12  Gn2  v127
 BYTE   N12  Cn3
 BYTE   N48  Gn4
 BYTE   W36
 BYTE   N12  Gn2
 BYTE   N12  Cn3
 BYTE   W12
 BYTE   N24  En4
 BYTE   W24
// 007   ----------------------------------------
 BYTE   N12  Gn2
 BYTE   N12  Cn3
 BYTE   N24  Gn4
 BYTE   W24
 BYTE   PEND 
Label_3_0175E5C5:
 BYTE   N96  An2  v127
 BYTE   N96  Dn3
 BYTE   N48  Fs4
 BYTE   W48
 BYTE   Dn4
 BYTE   W48
 BYTE   PEND 
// 008   ----------------------------------------
 BYTE   N96  Fs2
 BYTE   N96  Bn2
 BYTE   N48  Bn3
 BYTE   W48
 BYTE   N18
 BYTE   W18
 BYTE   Cn4
 BYTE   W18
 BYTE   N12  Dn4
 BYTE   W12
// 009   ----------------------------------------
 BYTE   N96  Fs2
 BYTE   N96  Bn2
 BYTE   N96  Bn3
 BYTE   W96
// 010   ----------------------------------------
 BYTE   PATT
  POIN2 Label_3_0175E560
// 011   ----------------------------------------
 BYTE   PATT
  POIN2 Label_3_0175E57A
// 012   ----------------------------------------
 BYTE   PATT
  POIN2 Label_3_0175E588
// 013   ----------------------------------------
 BYTE   PATT
  POIN2 Label_3_0175E59F
// 014   ----------------------------------------
 BYTE   PATT
  POIN2 Label_3_0175E5AD
// 015   ----------------------------------------
 BYTE   PATT
  POIN2 Label_3_0175E5C5
// 016   ----------------------------------------
 BYTE   N96  Gn2  v127
 BYTE   N96  Cn3
 BYTE   N48  Cn4
 BYTE   W48
 BYTE   N18
 BYTE   W18
 BYTE   Dn4
 BYTE   W18
 BYTE   N12  En4
 BYTE   W12
// 017   ----------------------------------------
 BYTE   N96  Fs2
 BYTE   N96  Bn2
 BYTE   N48  Fs4
 BYTE   W48
 BYTE   Bn3
 BYTE   W48
// 018   ----------------------------------------
 BYTE   Cs4
 BYTE   W48
 BYTE   N24  Bn3
 BYTE   W24
 BYTE   En4
 BYTE   W24
// 019   ----------------------------------------
 BYTE   N48  Cs4
 BYTE   W48
 BYTE   N12
 BYTE   W12
 BYTE   Bn3
 BYTE   W12
 BYTE   An3
 BYTE   W12
 BYTE   Bn3
 BYTE   W12
// 020   ----------------------------------------
 BYTE   N36  Cn4
 BYTE   W36
 BYTE   Bn3
 BYTE   W36
 BYTE   N24  Gn3
 BYTE   W24
// 021   ----------------------------------------
 BYTE   N96  An3
 BYTE   W96
// 022   ----------------------------------------
 BYTE   N48  Dn4
 BYTE   W48
 BYTE   N18
 BYTE   W18
 BYTE   Cn4
 BYTE   W18
 BYTE   N12  As3
 BYTE   W12
// 023   ----------------------------------------
 BYTE   N18  An3
 BYTE   W18
 BYTE   As3
 BYTE   W18
 BYTE   N12  Cn4
 BYTE   W12
 BYTE   N48  Dn4
 BYTE   W48
// 024   ----------------------------------------
Label_3_0175E64D:
 BYTE   N36  Gn3  v127
 BYTE   W36
 BYTE   An3
 BYTE   W36
 BYTE   Bn3
 BYTE   W24
 BYTE   PEND 
// 025   ----------------------------------------
Label_3_0175E656:
 BYTE   W12
 BYTE   N36  Gn4  v127
 BYTE   W36
 BYTE   N24  Fs4
 BYTE   W24
 BYTE   En4
 BYTE   W24
 BYTE   PEND 
// 026   ----------------------------------------
Label_3_0175E661:
 BYTE   N36  Dn4  v127
 BYTE   W36
 BYTE   En4
 BYTE   W36
 BYTE   TIE  Bn3
 BYTE   W24
 BYTE   PEND 
// 027   ----------------------------------------
 BYTE   W96
// 028   ----------------------------------------
 BYTE   EOT
Label_3_0175E66D:
 BYTE   N24  Cn4  v127
 BYTE   W24
 BYTE   N12  Dn4
 BYTE   W12
 BYTE   N36  En4
 BYTE   W36
 BYTE   N24  An4
 BYTE   W24
 BYTE   PEND 
// 029   ----------------------------------------
Label_3_0175E67B:
 BYTE   N36  Bn4  v127
 BYTE   W36
 BYTE   Cn5
 BYTE   W36
 BYTE   N24  An4
 BYTE   W24
 BYTE   PEND 
// 030   ----------------------------------------
Label_3_0175E685:
 BYTE   N36  Fs4  v127
 BYTE   W36
 BYTE   Gn4
 BYTE   W36
 BYTE   N24  An4
 BYTE   W24
 BYTE   PEND 
// 031   ----------------------------------------
Label_3_0175E68F:
 BYTE   N48  Bn4  v127
 BYTE   W48
 BYTE   Ds4
 BYTE   W48
 BYTE   PEND 
// 032   ----------------------------------------
 BYTE   PATT
  POIN2 Label_3_0175E64D
// 033   ----------------------------------------
 BYTE   PATT
  POIN2 Label_3_0175E656
// 034   ----------------------------------------
 BYTE   PATT
  POIN2 Label_3_0175E661
// 035   ----------------------------------------
 BYTE   W96
// 036   ----------------------------------------
 BYTE   EOT
 BYTE   Bn3
// 037   ----------------------------------------
 BYTE   PATT
  POIN2 Label_3_0175E66D
// 038   ----------------------------------------
 BYTE   PATT
  POIN2 Label_3_0175E67B
// 039   ----------------------------------------
 BYTE   PATT
  POIN2 Label_3_0175E685
// 040   ----------------------------------------
 BYTE   PATT
  POIN2 Label_3_0175E68F
// 041   ----------------------------------------
 BYTE   GoTo
  POIN2 Label_3_0175E560
 BYTE   FINE

//**************** Track 5 (Midi-Chn.4) ****************//

song03A9_005:
// 000   ----------------------------------------
 BYTE   KEYSH   song03A9_key+0
 BYTE   PAN   c_v+8
 BYTE   W12
 BYTE   VOL   18*song03A9_mvl/mxv
 BYTE   W06
 BYTE   W03
 BYTE   VOICE   54
 BYTE   W03
 BYTE   W96
// 001   ----------------------------------------
 BYTE   W96
// 002   ----------------------------------------
Label_4_0175E6D2:
 BYTE   N96  Bn2  v127
 BYTE   N96  Gn3
 BYTE   W96
// 003   ----------------------------------------
 BYTE   Cn3
 BYTE   N96  Gn3
 BYTE   W96
// 004   ----------------------------------------
 BYTE   Dn3
 BYTE   N96  An3
 BYTE   W96
// 005   ----------------------------------------
 BYTE   Ds3
 BYTE   N96  Bn3
 BYTE   W96
// 006   ----------------------------------------
 BYTE   Cn3
 BYTE   N96  Gn3
 BYTE   W96
// 007   ----------------------------------------
 BYTE   Dn3
 BYTE   N96  An3
 BYTE   W96
// 008   ----------------------------------------
 BYTE   Fs3
 BYTE   N96  Dn4
 BYTE   W96
// 009   ----------------------------------------
 BYTE   Fs3
 BYTE   N96  Dn4
 BYTE   W96
// 010   ----------------------------------------
 BYTE   Bn2
 BYTE   N96  Gn3
 BYTE   W96
// 011   ----------------------------------------
 BYTE   Cn3
 BYTE   N96  Gn3
 BYTE   W96
// 012   ----------------------------------------
 BYTE   Dn3
 BYTE   N96  An3
 BYTE   W96
// 013   ----------------------------------------
 BYTE   Ds3
 BYTE   N96  Bn3
 BYTE   W96
// 014   ----------------------------------------
 BYTE   Cn3
 BYTE   N96  Gn3
 BYTE   W96
// 015   ----------------------------------------
 BYTE   Dn3
 BYTE   N96  An3
 BYTE   W96
// 016   ----------------------------------------
 BYTE   Cn3
 BYTE   N96  Gn3
 BYTE   W96
// 017   ----------------------------------------
 BYTE   Bn2
 BYTE   N96  Fs3
 BYTE   W96
// 018   ----------------------------------------
 BYTE   Cs3
 BYTE   N96  Fs3
 BYTE   W96
// 019   ----------------------------------------
 BYTE   Cs3
 BYTE   N96  Fs3
 BYTE   W96
// 020   ----------------------------------------
 BYTE   Cn3
 BYTE   N96  An3
 BYTE   W96
// 021   ----------------------------------------
 BYTE   Cn3
 BYTE   N96  An3
 BYTE   W96
// 022   ----------------------------------------
 BYTE   Dn3
 BYTE   N96  Gn3
 BYTE   W96
// 023   ----------------------------------------
 BYTE   Dn3
 BYTE   N96  Gn3
 BYTE   W96
// 024   ----------------------------------------
Label_4_0175E72C:
 BYTE   N36  En3  v127
 BYTE   W36
 BYTE   Fs3
 BYTE   W36
 BYTE   N24  Gn3
 BYTE   W24
 BYTE   PEND 
// 025   ----------------------------------------
Label_4_0175E736:
 BYTE   N36  Bn3  v127
 BYTE   W36
 BYTE   N36
 BYTE   W36
 BYTE   N24
 BYTE   W24
 BYTE   PEND 
// 026   ----------------------------------------
Label_4_0175E73F:
 BYTE   N36  An3  v127
 BYTE   W36
 BYTE   Bn3
 BYTE   W36
 BYTE   TIE  En3
 BYTE   W24
 BYTE   PEND 
// 027   ----------------------------------------
 BYTE   W96
// 028   ----------------------------------------
 BYTE   EOT
Label_4_0175E74B:
 BYTE   N36  En3  v127
 BYTE   W36
 BYTE   N60  An3
 BYTE   W60
 BYTE   PEND 
// 029   ----------------------------------------
 BYTE   N96
 BYTE   W96
// 030   ----------------------------------------
 BYTE   Bn3
 BYTE   W96
// 031   ----------------------------------------
 BYTE   N96
 BYTE   W96
// 032   ----------------------------------------
 BYTE   PATT
  POIN2 Label_4_0175E72C
// 033   ----------------------------------------
 BYTE   PATT
  POIN2 Label_4_0175E736
// 034   ----------------------------------------
 BYTE   PATT
  POIN2 Label_4_0175E73F
// 035   ----------------------------------------
 BYTE   W96
// 036   ----------------------------------------
 BYTE   EOT
 BYTE   En3
// 037   ----------------------------------------
 BYTE   PATT
  POIN2 Label_4_0175E74B
// 038   ----------------------------------------
 BYTE   N96  An3  v127
 BYTE   W96
// 039   ----------------------------------------
 BYTE   Bn3
 BYTE   W96
// 040   ----------------------------------------
 BYTE   N96
 BYTE   W96
// 041   ----------------------------------------
 BYTE   GoTo
  POIN2 Label_4_0175E6D2
 BYTE   FINE

//**************** Track 6 (Midi-Chn.5) ****************//

song03A9_006:
// 000   ----------------------------------------
 BYTE   KEYSH   song03A9_key+0
 BYTE   W12
 BYTE   VOL   28*song03A9_mvl/mxv
 BYTE   W03
 BYTE   PAN   c_v+0
 BYTE   W03
 BYTE   W03
 BYTE   VOICE   48
 BYTE   W03
 BYTE   PAN   c_v+0
 BYTE   W96
// 001   ----------------------------------------
 BYTE   W96
// 002   ----------------------------------------
Label_5_0175E791:
 BYTE   W96
// 003   ----------------------------------------
 BYTE   W96
// 004   ----------------------------------------
 BYTE   W96
// 005   ----------------------------------------
 BYTE   W96
// 006   ----------------------------------------
 BYTE   W96
// 007   ----------------------------------------
 BYTE   W96
// 008   ----------------------------------------
 BYTE   W96
// 009   ----------------------------------------
 BYTE   W96
// 010   ----------------------------------------
 BYTE   W96
// 011   ----------------------------------------
 BYTE   W96
// 012   ----------------------------------------
 BYTE   W96
// 013   ----------------------------------------
 BYTE   W96
// 014   ----------------------------------------
 BYTE   W96
// 015   ----------------------------------------
 BYTE   W96
// 016   ----------------------------------------
 BYTE   W96
// 017   ----------------------------------------
 BYTE   W96
// 018   ----------------------------------------
 BYTE   W96
// 019   ----------------------------------------
 BYTE   W96
// 020   ----------------------------------------
 BYTE   W96
// 021   ----------------------------------------
 BYTE   W96
// 022   ----------------------------------------
 BYTE   W96
// 023   ----------------------------------------
 BYTE   W96
// 024   ----------------------------------------
Label_5_0175E7A7:
 BYTE   N36  Gn3  v127
 BYTE   W36
 BYTE   An3
 BYTE   W36
 BYTE   Bn3
 BYTE   W24
 BYTE   PEND 
// 025   ----------------------------------------
Label_5_0175E7B0:
 BYTE   W12
 BYTE   N36  Gn4  v127
 BYTE   W36
 BYTE   N24  Fs4
 BYTE   W24
 BYTE   En4
 BYTE   W24
 BYTE   PEND 
// 026   ----------------------------------------
Label_5_0175E7BB:
 BYTE   N36  Dn4  v127
 BYTE   W36
 BYTE   En4
 BYTE   W36
 BYTE   TIE  Bn3
 BYTE   W24
 BYTE   PEND 
// 027   ----------------------------------------
 BYTE   W96
// 028   ----------------------------------------
 BYTE   EOT
Label_5_0175E7C7:
 BYTE   N24  Cn4  v127
 BYTE   W24
 BYTE   N12  Dn4
 BYTE   W12
 BYTE   N36  En4
 BYTE   W36
 BYTE   N24  An4
 BYTE   W24
 BYTE   PEND 
// 029   ----------------------------------------
Label_5_0175E7D5:
 BYTE   N36  Bn4  v127
 BYTE   W36
 BYTE   Cn5
 BYTE   W36
 BYTE   N24  An4
 BYTE   W24
 BYTE   PEND 
// 030   ----------------------------------------
Label_5_0175E7DF:
 BYTE   N36  Fs4  v127
 BYTE   W36
 BYTE   Gn4
 BYTE   W36
 BYTE   N24  An4
 BYTE   W24
 BYTE   PEND 
// 031   ----------------------------------------
Label_5_0175E7E9:
 BYTE   N48  Bn4  v127
 BYTE   W48
 BYTE   Ds4
 BYTE   W48
 BYTE   PEND 
// 032   ----------------------------------------
 BYTE   PATT
  POIN2 Label_5_0175E7A7
// 033   ----------------------------------------
 BYTE   PATT
  POIN2 Label_5_0175E7B0
// 034   ----------------------------------------
 BYTE   PATT
  POIN2 Label_5_0175E7BB
// 035   ----------------------------------------
 BYTE   W96
// 036   ----------------------------------------
 BYTE   EOT
 BYTE   Bn3
// 037   ----------------------------------------
 BYTE   PATT
  POIN2 Label_5_0175E7C7
// 038   ----------------------------------------
 BYTE   PATT
  POIN2 Label_5_0175E7D5
// 039   ----------------------------------------
 BYTE   PATT
  POIN2 Label_5_0175E7DF
// 040   ----------------------------------------
 BYTE   PATT
  POIN2 Label_5_0175E7E9
// 041   ----------------------------------------
 BYTE   GoTo
  POIN2 Label_5_0175E791
 BYTE   FINE

//**************** Track 7 (Midi-Chn.6) ****************//

song03A9_007:
// 000   ----------------------------------------
 BYTE   KEYSH   song03A9_key+0
 BYTE   VOICE   124
 BYTE   W12
 BYTE   VOL   20*song03A9_mvl/mxv
 BYTE   W03
 BYTE   PAN   c_v+0
 BYTE   W03
 BYTE   W06
 BYTE   En3
 BYTE   N12  Dn1  v127
 BYTE   N12  En1
 BYTE   N48  Cs2
 BYTE   W12
 BYTE   N12  Gn1
 BYTE   W12
 BYTE   N12
 BYTE   W12
 BYTE   Dn1
 BYTE   N12  En1
 BYTE   N48  As1
 BYTE   W12
 BYTE   N12  Gn1
 BYTE   W12
 BYTE   N12
 BYTE   W12
// 001   ----------------------------------------
 BYTE   N24  Dn1
 BYTE   N24  En1
 BYTE   N24  Cs2
 BYTE   W12
 BYTE   N12  Gn1
 BYTE   W12
 BYTE   N06  Dn1
 BYTE   N06  En1
 BYTE   N06  Gn1
 BYTE   N06  Dn2
 BYTE   W06
 BYTE   Dn1
 BYTE   N06  En1
 BYTE   N06  Gn1
 BYTE   N06  Dn2
 BYTE   W06
 BYTE   Dn1
 BYTE   N06  En1
 BYTE   N06  Gn1
 BYTE   N06  Dn2
 BYTE   W06
 BYTE   Dn1
 BYTE   N06  En1
 BYTE   N06  Gn1
 BYTE   N06  Dn2
 BYTE   W06
 BYTE   Gn1
 BYTE   N06  Cn2
 BYTE   W06
 BYTE   Gn1
 BYTE   N06  Cn2
 BYTE   W06
 BYTE   Gn1
 BYTE   N06  Cn2
 BYTE   W06
 BYTE   Gn1
 BYTE   N06  Cn2
 BYTE   W06
 BYTE   Gn1
 BYTE   N06  Bn1
 BYTE   W06
 BYTE   Gn1
 BYTE   N06  Bn1
 BYTE   W06
 BYTE   Gn1
 BYTE   N06  Bn1
 BYTE   W06
 BYTE   Gn1
 BYTE   N06  Bn1
 BYTE   W06
// 002   ----------------------------------------
 BYTE   Gn1
 BYTE   N06  An1
 BYTE   W06
 BYTE   Gn1
 BYTE   N06  An1
 BYTE   W06
 BYTE   Gn1
 BYTE   N06  An1
 BYTE   W06
 BYTE   Gn1
 BYTE   N06  An1
 BYTE   W06
Label_6_0175E89C:
 BYTE   N24  Gn1  v127
 BYTE   N48  Cs2
 BYTE   N24  Bn2
 BYTE   W24
 BYTE   Dn1
 BYTE   N24  En1
 BYTE   N24  Bn2
 BYTE   W24
 BYTE   N12  Gn1
 BYTE   N24  Bn2
 BYTE   W12
 BYTE   N12  Gn1
 BYTE   W12
// 003   ----------------------------------------
 BYTE   N24  Dn1
 BYTE   N24  En1
 BYTE   N24  Bn2
 BYTE   W24
 BYTE   PEND 
Label_6_0175E8BA:
 BYTE   N12  Gn1  v127
 BYTE   N24  Bn2
 BYTE   W12
 BYTE   N12  Gn1
 BYTE   W12
 BYTE   Dn1
 BYTE   N12  En1
 BYTE   N24  Bn2
 BYTE   W12
 BYTE   Gn1
 BYTE   W12
 BYTE   Bn2
 BYTE   W12
 BYTE   N12  Gn1
 BYTE   W12
// 004   ----------------------------------------
 BYTE   N24  Dn1
 BYTE   N24  En1
 BYTE   N24  Bn2
 BYTE   W24
 BYTE   PEND 
Label_6_0175E8D8:
 BYTE   N24  Gn1  v127
 BYTE   N24  Bn2
 BYTE   W24
 BYTE   Dn1
 BYTE   N24  En1
 BYTE   N24  Bn2
 BYTE   W24
 BYTE   N12  Gn1
 BYTE   N24  Bn2
 BYTE   W12
 BYTE   N12  Gn1
 BYTE   W12
// 005   ----------------------------------------
 BYTE   N24  Dn1
 BYTE   N24  En1
 BYTE   N24  Bn2
 BYTE   W24
 BYTE   PEND 
Label_6_0175E8F4:
 BYTE   N12  Gn1  v127
 BYTE   N24  Bn2
 BYTE   W12
 BYTE   N12  Gn1
 BYTE   W12
 BYTE   Dn1
 BYTE   N12  En1
 BYTE   N24  Bn2
 BYTE   W12
 BYTE   N12  Gn1
 BYTE   W12
 BYTE   N12
 BYTE   N24  Bn2
 BYTE   W12
 BYTE   N12  Gn1
 BYTE   W12
// 006   ----------------------------------------
 BYTE   Dn1
 BYTE   N12  En1
 BYTE   N24  Bn2
 BYTE   W12
 BYTE   N12  Dn1
 BYTE   N12  En1
 BYTE   W12
 BYTE   PEND 
// 007   ----------------------------------------
 BYTE   PATT
  POIN2 Label_6_0175E89C
// 008   ----------------------------------------
 BYTE   PATT
  POIN2 Label_6_0175E8BA
// 009   ----------------------------------------
 BYTE   PATT
  POIN2 Label_6_0175E8D8
// 010   ----------------------------------------
 BYTE   N12  Gn1  v127
 BYTE   N24  Bn2
 BYTE   W12
 BYTE   N12  Gn1
 BYTE   W12
 BYTE   Dn1
 BYTE   N12  En1
 BYTE   N24  Bn2
 BYTE   W12
 BYTE   N12  Gn1
 BYTE   W12
 BYTE   N06
 BYTE   N06  Cn2
 BYTE   W06
 BYTE   Gn1
 BYTE   N06  Cn2
 BYTE   W06
 BYTE   Gn1
 BYTE   N06  Cn2
 BYTE   W12
 BYTE   Gn1
 BYTE   N06  Bn1
 BYTE   W12
 BYTE   Gn1
 BYTE   N06  An1
 BYTE   W12
// 011   ----------------------------------------
 BYTE   PATT
  POIN2 Label_6_0175E89C
// 012   ----------------------------------------
 BYTE   PATT
  POIN2 Label_6_0175E8BA
// 013   ----------------------------------------
 BYTE   PATT
  POIN2 Label_6_0175E8D8
// 014   ----------------------------------------
 BYTE   PATT
  POIN2 Label_6_0175E8F4
// 015   ----------------------------------------
 BYTE   PATT
  POIN2 Label_6_0175E89C
// 016   ----------------------------------------
 BYTE   PATT
  POIN2 Label_6_0175E8BA
// 017   ----------------------------------------
 BYTE   PATT
  POIN2 Label_6_0175E8D8
// 018   ----------------------------------------
 BYTE   N12  Gn1  v127
 BYTE   N24  Bn2
 BYTE   W12
 BYTE   N12  Gn1
 BYTE   W12
 BYTE   Dn1
 BYTE   N12  En1
 BYTE   N24  Bn2
 BYTE   W12
 BYTE   N12  Gn1
 BYTE   W12
 BYTE   N06  Dn1
 BYTE   N06  En1
 BYTE   N06  Dn2
 BYTE   W06
 BYTE   Dn1
 BYTE   N06  En1
 BYTE   N06  Dn2
 BYTE   W06
 BYTE   Dn1
 BYTE   N06  En1
 BYTE   N06  Cn2
 BYTE   W06
 BYTE   Dn1
 BYTE   N06  En1
 BYTE   N06  Cn2
 BYTE   W06
 BYTE   Gn1
 BYTE   N06  Bn1
 BYTE   W06
 BYTE   Gn1
 BYTE   N06  Bn1
 BYTE   W06
 BYTE   Gn1
 BYTE   N06  An1
 BYTE   W06
 BYTE   Gn1
 BYTE   N06  An1
 BYTE   W06
// 019   ----------------------------------------
Label_6_0175E9AC:
 BYTE   N24  Gn1  v127
 BYTE   N48  Cs2
 BYTE   N24  Bn2
 BYTE   W24
 BYTE   Dn1
 BYTE   N24  En1
 BYTE   N12  Bn2
 BYTE   W12
 BYTE   N24
 BYTE   W12
 BYTE   N12  Gn1
 BYTE   W12
 BYTE   N12
 BYTE   N12  Bn2
 BYTE   W12
 BYTE   N24  Dn1
 BYTE   N24  En1
 BYTE   N12  Bn2
 BYTE   W12
 BYTE   N12
 BYTE   W12
 BYTE   PEND 
// 020   ----------------------------------------
 BYTE   Gn1
 BYTE   N24  Bn2
 BYTE   W12
 BYTE   N12  Gn1
 BYTE   W12
 BYTE   Dn1
 BYTE   N12  En1
 BYTE   N12  Bn2
 BYTE   W12
 BYTE   N24  Gn1
 BYTE   N24  Bn2
 BYTE   W24
 BYTE   N12  Gn1
 BYTE   N12  Bn2
 BYTE   W12
 BYTE   Dn1
 BYTE   N12  En1
 BYTE   N12  Bn2
 BYTE   W12
 BYTE   Dn1
 BYTE   N12  En1
 BYTE   N12  Bn2
 BYTE   W12
// 021   ----------------------------------------
 BYTE   N24  Gn1
 BYTE   N24  Bn2
 BYTE   W24
 BYTE   Dn1
 BYTE   N24  En1
 BYTE   N12  Bn2
 BYTE   W12
 BYTE   N24
 BYTE   W12
 BYTE   N12  Gn1
 BYTE   W12
 BYTE   N12
 BYTE   N12  Bn2
 BYTE   W12
 BYTE   N24  Dn1
 BYTE   N24  En1
 BYTE   N12  Bn2
 BYTE   W12
 BYTE   N12
 BYTE   W12
// 022   ----------------------------------------
 BYTE   Gn1
 BYTE   N24  Bn2
 BYTE   W12
 BYTE   N12  Gn1
 BYTE   W12
 BYTE   N24  Dn1
 BYTE   N24  En1
 BYTE   N12  Bn2
 BYTE   W12
 BYTE   N24
 BYTE   W12
 BYTE   N12  Gn1
 BYTE   W12
 BYTE   N12
 BYTE   N12  Bn2
 BYTE   W12
 BYTE   Dn1
 BYTE   N12  En1
 BYTE   N12  Bn2
 BYTE   W12
 BYTE   Dn1
 BYTE   N12  En1
 BYTE   N12  Bn2
 BYTE   W12
// 023   ----------------------------------------
 BYTE   PATT
  POIN2 Label_6_0175E9AC
// 024   ----------------------------------------
 BYTE   N12  Gn1  v127
 BYTE   N24  Bn2
 BYTE   W12
 BYTE   N12  Gn1
 BYTE   W12
 BYTE   Dn1
 BYTE   N12  En1
 BYTE   N12  Bn2
 BYTE   W12
 BYTE   Gn1
 BYTE   N24  Bn2
 BYTE   W12
 BYTE   N12  Gn1
 BYTE   W12
 BYTE   N12
 BYTE   N12  Bn2
 BYTE   W12
 BYTE   Dn1
 BYTE   N12  En1
 BYTE   N12  Bn2
 BYTE   W12
 BYTE   N06  Dn1
 BYTE   N06  En1
 BYTE   N12  Bn2
 BYTE   W06
 BYTE   N06  Dn1
 BYTE   N06  En1
 BYTE   W06
// 025   ----------------------------------------
Label_6_0175EA61:
 BYTE   N24  Gn1  v127
 BYTE   N48  Cs2
 BYTE   N24  Bn2
 BYTE   W24
 BYTE   N12  Gn1
 BYTE   N24  Bn2
 BYTE   W12
 BYTE   N12  Dn1
 BYTE   N12  En1
 BYTE   W12
 BYTE   Gn1
 BYTE   N24  Bn2
 BYTE   W12
 BYTE   N12  Gn1
 BYTE   W12
 BYTE   Dn1
 BYTE   N12  En1
 BYTE   N12  Bn2
 BYTE   W12
 BYTE   N24  Gn1
 BYTE   N24  Bn2
 BYTE   W12
 BYTE   PEND 
// 026   ----------------------------------------
Label_6_0175EA86:
 BYTE   W12
 BYTE   N12  Gn1  v127
 BYTE   N12  Bn2
 BYTE   W12
 BYTE   Gn1
 BYTE   N24  Bn2
 BYTE   W12
 BYTE   N12  Gn1
 BYTE   W12
 BYTE   N24  Dn1
 BYTE   N24  En1
 BYTE   N24  Bn2
 BYTE   W24
 BYTE   N12  Gn1
 BYTE   N24  Bn2
 BYTE   W12
 BYTE   N12  Dn1
 BYTE   N12  En1
 BYTE   W12
 BYTE   PEND 
// 027   ----------------------------------------
Label_6_0175EAA6:
 BYTE   N24  Gn1  v127
 BYTE   N24  Bn2
 BYTE   W24
 BYTE   N12  Gn1
 BYTE   N24  Bn2
 BYTE   W12
 BYTE   N12  Dn1
 BYTE   N12  En1
 BYTE   W12
 BYTE   Gn1
 BYTE   N24  Bn2
 BYTE   W12
 BYTE   N12  Gn1
 BYTE   W12
 BYTE   Dn1
 BYTE   N12  En1
 BYTE   N24  Bn2
 BYTE   W12
 BYTE   N12  Dn1
 BYTE   N12  En1
 BYTE   W12
 BYTE   PEND 
// 028   ----------------------------------------
 BYTE   N24  Gn1
 BYTE   N24  Bn2
 BYTE   W24
 BYTE   Gn1
 BYTE   N24  Bn2
 BYTE   W24
 BYTE   N12  Dn1
 BYTE   N12  En1
 BYTE   N24  Bn2
 BYTE   W12
 BYTE   N12  Gn1
 BYTE   W12
 BYTE   N12
 BYTE   N24  Bn2
 BYTE   W12
 BYTE   N06  Dn1
 BYTE   N06  En1
 BYTE   W06
 BYTE   Dn1
 BYTE   N06  En1
 BYTE   W06
// 029   ----------------------------------------
 BYTE   PATT
  POIN2 Label_6_0175EA61
// 030   ----------------------------------------
 BYTE   PATT
  POIN2 Label_6_0175EA86
// 031   ----------------------------------------
 BYTE   PATT
  POIN2 Label_6_0175EAA6
// 032   ----------------------------------------
 BYTE   N24  Gn1  v127
 BYTE   N24  Bn2
 BYTE   W24
 BYTE   Gn1
 BYTE   N24  Bn2
 BYTE   W24
 BYTE   N06  Dn1
 BYTE   N06  En1
 BYTE   N06  Dn2
 BYTE   W06
 BYTE   Dn1
 BYTE   N06  En1
 BYTE   N06  Dn2
 BYTE   W06
 BYTE   Dn1
 BYTE   N06  En1
 BYTE   N06  Cn2
 BYTE   W06
 BYTE   Dn1
 BYTE   N06  En1
 BYTE   N06  Cn2
 BYTE   W06
 BYTE   Gn1
 BYTE   N06  Bn1
 BYTE   W06
 BYTE   Gn1
 BYTE   N06  Bn1
 BYTE   W06
 BYTE   Gn1
 BYTE   N06  An1
 BYTE   W06
 BYTE   Gn1
 BYTE   N06  An1
 BYTE   W06
// 033   ----------------------------------------
Label_6_0175EB2B:
 BYTE   N24  Gn1  v127
 BYTE   N48  Cs2
 BYTE   N24  Bn2
 BYTE   W24
 BYTE   Dn1
 BYTE   N24  En1
 BYTE   N24  Bn2
 BYTE   W24
 BYTE   N12  Gn1
 BYTE   N24  Bn2
 BYTE   W12
 BYTE   N12  Gn1
 BYTE   W12
 BYTE   Dn1
 BYTE   N12  En1
 BYTE   N12  Bn2
 BYTE   W12
 BYTE   N24  Gn1
 BYTE   N24  Bn2
 BYTE   W12
 BYTE   PEND 
// 034   ----------------------------------------
 BYTE   W12
 BYTE   N12  Gn1
 BYTE   N12  Bn2
 BYTE   W12
 BYTE   N24  Dn1
 BYTE   N24  En1
 BYTE   N24  Bn2
 BYTE   W24
 BYTE   N12  Gn1
 BYTE   N24  Bn2
 BYTE   W12
 BYTE   N12  Gn1
 BYTE   W12
 BYTE   Dn1
 BYTE   N12  En1
 BYTE   N24  Bn2
 BYTE   W12
 BYTE   Gn1
 BYTE   W12
// 035   ----------------------------------------
 BYTE   Bn2
 BYTE   W12
 BYTE   N12  Gn1
 BYTE   W12
 BYTE   Dn1
 BYTE   N12  En1
 BYTE   N24  Bn2
 BYTE   W12
 BYTE   Gn1
 BYTE   W12
 BYTE   Bn2
 BYTE   W12
 BYTE   N12  Gn1
 BYTE   W12
 BYTE   N24  Dn1
 BYTE   N24  En1
 BYTE   N24  Bn2
 BYTE   W24
// 036   ----------------------------------------
Label_6_0175EB83:
 BYTE   N24  Gn1  v127
 BYTE   N24  Bn2
 BYTE   W24
 BYTE   Dn1
 BYTE   N24  En1
 BYTE   N24  Bn2
 BYTE   W24
 BYTE   Gn1
 BYTE   N24  Bn2
 BYTE   W24
 BYTE   Dn1
 BYTE   N24  En1
 BYTE   N24  Bn2
 BYTE   W24
 BYTE   PEND 
// 037   ----------------------------------------
 BYTE   PATT
  POIN2 Label_6_0175EB2B
// 038   ----------------------------------------
 BYTE   W12
 BYTE   N12  Gn1  v127
 BYTE   N12  Bn2
 BYTE   W12
 BYTE   N24  Dn1
 BYTE   N24  En1
 BYTE   N24  Bn2
 BYTE   W24
 BYTE   Gn1
 BYTE   N24  Bn2
 BYTE   W24
 BYTE   N12  Dn1
 BYTE   N12  En1
 BYTE   N24  Bn2
 BYTE   W12
 BYTE   N12  Dn1
 BYTE   N12  En1
 BYTE   W12
// 039   ----------------------------------------
 BYTE   PATT
  POIN2 Label_6_0175EB83
// 040   ----------------------------------------
 BYTE   N24  Gn1  v127
 BYTE   N24  Bn2
 BYTE   W24
 BYTE   Dn1
 BYTE   N24  En1
 BYTE   N24  Bn2
 BYTE   W24
 BYTE   Gn1
 BYTE   N24  Bn2
 BYTE   W24
 BYTE   N12  Dn1
 BYTE   N12  En1
 BYTE   N24  Bn2
 BYTE   W12
 BYTE   N06  Dn1
 BYTE   N06  En1
 BYTE   W06
 BYTE   Dn1
 BYTE   N06  En1
 BYTE   W06
// 041   ----------------------------------------
 BYTE   GoTo
  POIN2 Label_6_0175E89C
 BYTE   FINE

//******************************************************//
	ALIGN 4

song03A9:
	BYTE	7	// NumTrks
	BYTE	0	// NumBlks
	BYTE	song03A9_pri	// Priority
	BYTE	song03A9_rev	// Reverb.
    
	POIN2	song03A9_grp
    
	POIN2	song03A9_001
	POIN2	song03A9_002
	POIN2	song03A9_003
	POIN2	song03A9_004
	POIN2	song03A9_005
	POIN2	song03A9_006
	POIN2	song03A9_007

	
