//Event file generated from Sappy .s format.
	#include "MPlayDef.event"

	#define	song039E_grp  voicegroup001
	#define	song039E_pri  0
	#define	song039E_rev  0
	#define	song039E_mvl  127
	#define	song039E_key  0
	#define	song039E_tbs  1
	#define	song039E_exg  0
	#define	song039E_cmp  1

	// .rodata
	//	song039E
	ALIGN 4


//**************** Track 1 (Midi-Chn.0) ****************//

song039E_001:
// 000   ----------------------------------------
 BYTE   KEYSH   song039E_key+0
Label_0_0195B916:
 BYTE   TEMPO   116*song039E_tbs/2
 BYTE   VOICE   1
 BYTE   VOL   35*song039E_mvl/mxv
 BYTE   PAN   c_v+0
 BYTE   N04  Dn4  v124
 BYTE   W11
 BYTE   N01  Dn4  v096
 BYTE   W01
 BYTE   N96  Ds4  v124
 BYTE   W84
// 001   ----------------------------------------
 BYTE   W10
 BYTE   N01  Cs4  v112
 BYTE   W02
 BYTE   N18  Dn4  v124
 BYTE   W18
 BYTE   As3  v108
 BYTE   W18
 BYTE   N12  Gn3
 BYTE   W12
 BYTE   TIE  Cn4  v127
 BYTE   W36
// 002   ----------------------------------------
 BYTE   W96
// 003   ----------------------------------------
 BYTE   W36
 BYTE   EOT
 BYTE   W12
 BYTE   N04  Dn4  v124
 BYTE   W11
 BYTE   N01  Dn4  v096
 BYTE   W01
 BYTE   N96  Ds4  v124
 BYTE   W36
// 004   ----------------------------------------
 BYTE   W56
 BYTE   W02
 BYTE   N01  Cs4  v112
 BYTE   W02
 BYTE   N18  Dn4  v124
 BYTE   W18
 BYTE   As3  v108
 BYTE   W18
// 005   ----------------------------------------
 BYTE   N12  Gn3
 BYTE   W12
 BYTE   N36  Fn4  v127
 BYTE   W36
 BYTE   TIE  Ds4
 BYTE   W48
// 006   ----------------------------------------
 BYTE   W90
 BYTE   EOT
 BYTE   W06
// 007   ----------------------------------------
 BYTE   N04  Dn3
 BYTE   N04  Dn4
 BYTE   W11
 BYTE   N01  Dn3  v108
 BYTE   N01  Dn4
 BYTE   W01
 BYTE   N96  Ds3  v127
 BYTE   N96  Ds4
 BYTE   W84
// 008   ----------------------------------------
 BYTE   W10
 BYTE   N01  Cs3  v124
 BYTE   N01  Cs4
 BYTE   W02
 BYTE   N18  Dn3  v127
 BYTE   N18  Dn4
 BYTE   W18
 BYTE   As2  v120
 BYTE   N18  As3
 BYTE   W18
 BYTE   N12  Gn2
 BYTE   N12  Gn3
 BYTE   W12
 BYTE   TIE  Cn3  v127
 BYTE   TIE  Cn4
 BYTE   W36
// 009   ----------------------------------------
 BYTE   W96
// 010   ----------------------------------------
 BYTE   W36
 BYTE   EOT
 BYTE   Cn3  v072
 BYTE   W12
 BYTE   N04  Dn3
 BYTE   N04  Dn4
 BYTE   W11
 BYTE   N01  Dn3  v108
 BYTE   N01  Dn4
 BYTE   W01
 BYTE   N96  Ds3  v127
 BYTE   N96  Ds4
 BYTE   W36
// 011   ----------------------------------------
 BYTE   W56
 BYTE   W02
 BYTE   N01  Cs3  v124
 BYTE   N01  Cs4
 BYTE   W02
 BYTE   N18  Dn3  v127
 BYTE   N18  Dn4
 BYTE   W18
 BYTE   As2  v120
 BYTE   N18  As3
 BYTE   W18
// 012   ----------------------------------------
 BYTE   N12  Gn2
 BYTE   N12  Gn3
 BYTE   W12
 BYTE   N36  Fn3  v127
 BYTE   N36  Fn4
 BYTE   W36
 BYTE   N60  Ds3
 BYTE   N60  Ds4
 BYTE   W48
// 013   ----------------------------------------
 BYTE   W12
 BYTE   N36  Gn3
 BYTE   N36  Gn4
 BYTE   W36
 BYTE   N60  Fn3
 BYTE   N60  Fn4
 BYTE   W48
// 014   ----------------------------------------
Label_0_0195B9DA:
 BYTE   W12
 BYTE   N18  Ds3  v116
 BYTE   N18  Ds4
 BYTE   W18
 BYTE   Fn3
 BYTE   N18  Fn4
 BYTE   W18
 BYTE   N12  Ds3
 BYTE   N12  Ds4
 BYTE   W12
 BYTE   N18  As3
 BYTE   N18  As4
 BYTE   W18
 BYTE   Fn3
 BYTE   N18  Fn4
 BYTE   W18
 BYTE   PEND 
// 015   ----------------------------------------
Label_0_0195B9F4:
 BYTE   N60  Ds3  v116
 BYTE   N60  Ds4
 BYTE   W60
 BYTE   N24  Cn3
 BYTE   N24  Cn4
 BYTE   W24
 BYTE   Dn3
 BYTE   N24  Dn4
 BYTE   W12
 BYTE   PEND 
// 016   ----------------------------------------
Label_0_0195BA04:
 BYTE   W12
 BYTE   N18  Ds3  v116
 BYTE   N18  Ds4
 BYTE   W18
 BYTE   Fn3
 BYTE   N18  Fn4
 BYTE   W18
 BYTE   N12  Ds3
 BYTE   N12  Ds4
 BYTE   W12
 BYTE   N18  Gs3
 BYTE   N18  Gs4
 BYTE   W18
 BYTE   Gn3
 BYTE   N18  Gn4
 BYTE   W18
 BYTE   PEND 
// 017   ----------------------------------------
 BYTE   N12  Ds3
 BYTE   N12  Ds4
 BYTE   W12
 BYTE   N36  Gn3
 BYTE   N36  Gn4
 BYTE   W36
 BYTE   N06  Gs3
 BYTE   N06  Gs4
 BYTE   W06
 BYTE   Gn3
 BYTE   N06  Gn4
 BYTE   W06
 BYTE   N48  Fn3
 BYTE   N48  Fn4
 BYTE   W36
// 018   ----------------------------------------
 BYTE   PATT
  POIN2 Label_0_0195B9DA
// 019   ----------------------------------------
 BYTE   PATT
  POIN2 Label_0_0195B9F4
// 020   ----------------------------------------
 BYTE   PATT
  POIN2 Label_0_0195BA04
// 021   ----------------------------------------
 BYTE   N12  Ds3  v116
 BYTE   N12  Ds4
 BYTE   W12
 BYTE   N36  Gn3
 BYTE   N36  Gn4
 BYTE   W36
 BYTE   N06  Gs3
 BYTE   N06  Gs4
 BYTE   W06
 BYTE   Gn3
 BYTE   N06  Gn4
 BYTE   W06
 BYTE   N24  Fn3
 BYTE   N24  Fn4
 BYTE   W24
 BYTE   N12  Ds3
 BYTE   N12  Ds4
 BYTE   W12
// 022   ----------------------------------------
 BYTE   Dn3
 BYTE   N12  Dn4
 BYTE   W12
 BYTE   N36  Dn3
 BYTE   N36  Dn4
 BYTE   W36
 BYTE   N06  Cn3
 BYTE   N06  Cn4
 BYTE   W12
 BYTE   N48  Cn3
 BYTE   N48  Cn4
 BYTE   W36
// 023   ----------------------------------------
 BYTE   W12
 BYTE   N36  Ds3
 BYTE   N36  Ds4
 BYTE   W36
 BYTE   N06  Dn3
 BYTE   N06  Dn4
 BYTE   W12
 BYTE   N24  Dn3
 BYTE   N24  Dn4
 BYTE   W36
// 024   ----------------------------------------
 BYTE   GoTo
  POIN2 Label_0_0195B916
// 025   ----------------------------------------
 BYTE   N04  Dn4  v124
 BYTE   W11
 BYTE   N01  Dn4  v096
 BYTE   W01
 BYTE   FINE

//**************** Track 2 (Midi-Chn.1) ****************//

song039E_002:
// 000   ----------------------------------------
 BYTE   KEYSH   song039E_key+0
Label_1_0195BA96:
 BYTE   VOICE   1
 BYTE   VOL   26*song039E_mvl/mxv
 BYTE   PAN   c_v-10
 BYTE   W12
 BYTE   N05  Cn2  v092
 BYTE   W12
 BYTE   Gn2  v100
 BYTE   N05  Cn3
 BYTE   N05  Ds3
 BYTE   W12
 BYTE   Cn2  v092
 BYTE   W06
 BYTE   N16  Gn2
 BYTE   N16  As2
 BYTE   N16  Ds3
 BYTE   W18
 BYTE   N05  Gn2  v100
 BYTE   N05  Cn3
 BYTE   N05  Ds3
 BYTE   W12
 BYTE   Cn2  v092
 BYTE   W06
 BYTE   N16  Gn2
 BYTE   N16  As2
 BYTE   N16  Ds3
 BYTE   W18
// 001   ----------------------------------------
Label_1_0195BAC4:
 BYTE   N05  Gn2  v100
 BYTE   N05  Cn3
 BYTE   N05  Ds3
 BYTE   W12
 BYTE   As1  v092
 BYTE   W12
 BYTE   N04  Fn2
 BYTE   N04  As2
 BYTE   N04  Dn3
 BYTE   W12
 BYTE   N05  As1
 BYTE   W06
 BYTE   N16  Fn2
 BYTE   N16  Gs2
 BYTE   N16  Cn3
 BYTE   W18
 BYTE   N05  Ds2  v100
 BYTE   N05  Gs2
 BYTE   N05  Cn3
 BYTE   W12
 BYTE   Gs1  v092
 BYTE   W06
 BYTE   N16  Ds2
 BYTE   N16  Gn2
 BYTE   N16  Cn3
 BYTE   W18
 BYTE   PEND 
// 002   ----------------------------------------
Label_1_0195BAF3:
 BYTE   N05  Ds2  v100
 BYTE   N05  Gs2
 BYTE   N05  Cn3
 BYTE   W12
 BYTE   Gs1  v092
 BYTE   W12
 BYTE   N04  Ds2
 BYTE   N04  Gs2
 BYTE   N04  Cn3
 BYTE   W12
 BYTE   N05  Gs1
 BYTE   W06
 BYTE   N16  Fn2
 BYTE   N16  Gs2
 BYTE   N16  Cn3
 BYTE   W18
 BYTE   N05  Ds2
 BYTE   N05  Gs2
 BYTE   N05  Cn3
 BYTE   W12
 BYTE   Gs1
 BYTE   W06
 BYTE   N16  Ds2
 BYTE   N16  Gn2
 BYTE   N16  Cn3
 BYTE   W18
 BYTE   PEND 
// 003   ----------------------------------------
Label_1_0195BB20:
 BYTE   N05  Ds2  v092
 BYTE   N05  Gs2
 BYTE   N05  Cn3
 BYTE   W12
 BYTE   Ds2  v116
 BYTE   N05  Gs2
 BYTE   N05  Cn3
 BYTE   W12
 BYTE   Gs1  v108
 BYTE   W06
 BYTE   N16  Fn2  v116
 BYTE   N16  As2
 BYTE   N16  Dn3
 BYTE   W18
 BYTE   N05  Fn2  v092
 BYTE   N05  As2
 BYTE   N05  Dn3
 BYTE   W12
 BYTE   Cn2
 BYTE   W12
 BYTE   Gn2  v100
 BYTE   N05  Cn3
 BYTE   N05  Ds3
 BYTE   W12
 BYTE   Cn2  v092
 BYTE   W06
 BYTE   N16  Gn2
 BYTE   N16  As2
 BYTE   N16  Ds3
 BYTE   W06
 BYTE   PEND 
// 004   ----------------------------------------
Label_1_0195BB56:
 BYTE   W12
 BYTE   N05  Gn2  v100
 BYTE   N05  Cn3
 BYTE   N05  Ds3
 BYTE   W12
 BYTE   Cn2  v092
 BYTE   W06
 BYTE   N16  Gn2
 BYTE   N16  As2
 BYTE   N16  Ds3
 BYTE   W18
 BYTE   N05  Gn2  v100
 BYTE   N05  Cn3
 BYTE   N05  Ds3
 BYTE   W12
 BYTE   As1  v092
 BYTE   W12
 BYTE   N04  Fn2
 BYTE   N04  As2
 BYTE   N04  Dn3
 BYTE   W12
 BYTE   N05  As1
 BYTE   W06
 BYTE   N16  Fn2
 BYTE   N16  Gs2
 BYTE   N16  Cn3
 BYTE   W06
 BYTE   PEND 
// 005   ----------------------------------------
Label_1_0195BB86:
 BYTE   W12
 BYTE   N05  Ds2  v100
 BYTE   N05  Gs2
 BYTE   N05  Cn3
 BYTE   W12
 BYTE   Gs1  v092
 BYTE   W06
 BYTE   N16  Ds2
 BYTE   N16  Gn2
 BYTE   N16  Cn3
 BYTE   W18
 BYTE   N05  Ds2  v100
 BYTE   N05  Gs2
 BYTE   N05  Cn3
 BYTE   W12
 BYTE   Gs1  v092
 BYTE   W12
 BYTE   N04  Ds2
 BYTE   N04  Gs2
 BYTE   N04  Cn3
 BYTE   W12
 BYTE   N05  Gs1
 BYTE   W06
 BYTE   N16  Fn2
 BYTE   N16  Gs2
 BYTE   N16  Cn3
 BYTE   W06
 BYTE   PEND 
// 006   ----------------------------------------
 BYTE   W12
 BYTE   N05  Ds2
 BYTE   N05  Gs2
 BYTE   N05  Cn3
 BYTE   W12
 BYTE   Gs1
 BYTE   W06
 BYTE   N16  Ds2
 BYTE   N16  Gn2
 BYTE   N16  Cn3
 BYTE   W18
 BYTE   N05  Ds2
 BYTE   N05  Gs2
 BYTE   N05  Cn3
 BYTE   W12
 BYTE   Ds2  v116
 BYTE   N05  Gs2
 BYTE   N05  Cn3
 BYTE   W12
 BYTE   Gs1  v108
 BYTE   W06
 BYTE   N16  Fn2  v116
 BYTE   N16  As2
 BYTE   N16  Dn3
 BYTE   W18
// 007   ----------------------------------------
 BYTE   N05  Fn2  v092
 BYTE   N05  As2
 BYTE   N05  Dn3
 BYTE   W12
 BYTE   Cn2
 BYTE   W12
 BYTE   Gn2  v100
 BYTE   N05  Cn3
 BYTE   N05  Ds3
 BYTE   W12
 BYTE   Cn2  v092
 BYTE   W06
 BYTE   N16  Gn2
 BYTE   N16  As2
 BYTE   N16  Ds3
 BYTE   W18
 BYTE   N05  Gn2  v100
 BYTE   N05  Cn3
 BYTE   N05  Ds3
 BYTE   W12
 BYTE   Cn2  v092
 BYTE   W06
 BYTE   N16  Gn2
 BYTE   N16  As2
 BYTE   N16  Ds3
 BYTE   W18
// 008   ----------------------------------------
 BYTE   PATT
  POIN2 Label_1_0195BAC4
// 009   ----------------------------------------
 BYTE   PATT
  POIN2 Label_1_0195BAF3
// 010   ----------------------------------------
 BYTE   PATT
  POIN2 Label_1_0195BB20
// 011   ----------------------------------------
 BYTE   PATT
  POIN2 Label_1_0195BB56
// 012   ----------------------------------------
 BYTE   PATT
  POIN2 Label_1_0195BB86
// 013   ----------------------------------------
 BYTE   W12
 BYTE   N05  Fn2  v092
 BYTE   N05  As2
 BYTE   N05  Dn3
 BYTE   W12
 BYTE   As1
 BYTE   W06
 BYTE   N16  Fn2
 BYTE   N16  An2
 BYTE   N16  Dn3
 BYTE   W18
 BYTE   N05  Fn2
 BYTE   N05  As2
 BYTE   N05  Dn3
 BYTE   W12
 BYTE   As1
 BYTE   W12
 BYTE   N10  Fn2
 BYTE   N10  As2
 BYTE   N10  Dn3
 BYTE   W12
 BYTE   N05  As1
 BYTE   W06
 BYTE   N16  Gn2
 BYTE   N16  As2
 BYTE   N16  Dn3
 BYTE   W06
// 014   ----------------------------------------
Label_1_0195BC52:
 BYTE   W12
 BYTE   N16  Cn2  v092
 BYTE   N16  Cn3
 BYTE   N16  Ds3
 BYTE   W18
 BYTE   Cn2
 BYTE   N16  As2
 BYTE   N16  Ds3
 BYTE   W18
 BYTE   N10  Cn2
 BYTE   N10  Cn3
 BYTE   N10  Ds3
 BYTE   W12
 BYTE   N16  As1
 BYTE   N16  As2
 BYTE   N16  Ds3
 BYTE   W18
 BYTE   As1
 BYTE   N16  Gs2
 BYTE   N16  Ds3
 BYTE   W18
 BYTE   PEND 
// 015   ----------------------------------------
Label_1_0195BC76:
 BYTE   N10  As1  v092
 BYTE   N10  As2
 BYTE   N10  Ds3
 BYTE   W12
 BYTE   Gs1
 BYTE   N10  Ds2
 BYTE   N10  Cn3
 BYTE   W12
 BYTE   Gs1
 BYTE   W06
 BYTE   N05  Ds2
 BYTE   N05  Gs2
 BYTE   N05  Cn3
 BYTE   W06
 BYTE   N10  Gs1
 BYTE   W06
 BYTE   N05  Ds2
 BYTE   N05  Gs2
 BYTE   N05  Cn3
 BYTE   W06
 BYTE   N10  Gs1
 BYTE   N10  Ds2
 BYTE   N10  Cn3
 BYTE   W12
 BYTE   N21  Gs1
 BYTE   N21  Ds2
 BYTE   N21  Cn3
 BYTE   W24
 BYTE   As1
 BYTE   N21  Fn2
 BYTE   N21  Dn3
 BYTE   W12
 BYTE   PEND 
// 016   ----------------------------------------
 BYTE   PATT
  POIN2 Label_1_0195BC52
// 017   ----------------------------------------
 BYTE   PATT
  POIN2 Label_1_0195BC76
// 018   ----------------------------------------
 BYTE   PATT
  POIN2 Label_1_0195BC52
// 019   ----------------------------------------
 BYTE   PATT
  POIN2 Label_1_0195BC76
// 020   ----------------------------------------
 BYTE   PATT
  POIN2 Label_1_0195BC52
// 021   ----------------------------------------
 BYTE   N10  As1  v092
 BYTE   N10  As2
 BYTE   N10  Ds3
 BYTE   W12
 BYTE   Gs1
 BYTE   N10  Ds2
 BYTE   N10  Cn3
 BYTE   W12
 BYTE   Gs1
 BYTE   W06
 BYTE   N05  Ds2
 BYTE   N05  Gs2
 BYTE   N05  Cn3
 BYTE   W06
 BYTE   N10  Gs1
 BYTE   W06
 BYTE   N05  Ds2
 BYTE   N05  Gs2
 BYTE   N05  Cn3
 BYTE   W06
 BYTE   N10  Gs1
 BYTE   N10  Ds2
 BYTE   N10  Cn3
 BYTE   W12
 BYTE   As1
 BYTE   N10  Fn2
 BYTE   N10  Dn3
 BYTE   W12
 BYTE   As1
 BYTE   W06
 BYTE   N05  Fn2
 BYTE   N05  As2
 BYTE   N05  Dn3
 BYTE   W06
 BYTE   N10  As1
 BYTE   W06
 BYTE   N05  Fn2
 BYTE   N05  As2
 BYTE   N05  Dn3
 BYTE   W06
// 022   ----------------------------------------
 BYTE   N10  As1
 BYTE   N10  Fn2
 BYTE   N10  Dn3
 BYTE   W12
 BYTE   Gs1
 BYTE   N10  Ds2
 BYTE   N10  Cn3
 BYTE   W12
 BYTE   Gs1
 BYTE   W06
 BYTE   N05  Ds2
 BYTE   N05  Gs2
 BYTE   N05  Cn3
 BYTE   W06
 BYTE   N10  Gs1
 BYTE   W06
 BYTE   N05  Ds2
 BYTE   N05  Gs2
 BYTE   N05  Cn3
 BYTE   W06
 BYTE   N10  Gs1
 BYTE   N10  Ds2
 BYTE   N10  Cn3
 BYTE   W12
 BYTE   Gs1
 BYTE   N10  Ds2
 BYTE   N10  Cn3
 BYTE   W12
 BYTE   Gs1
 BYTE   W06
 BYTE   N05  Ds2
 BYTE   N05  Gs2
 BYTE   N05  Cn3
 BYTE   W06
 BYTE   N10  Gs1
 BYTE   W06
 BYTE   N05  Ds2
 BYTE   N05  Gs2
 BYTE   N05  Cn3
 BYTE   W06
// 023   ----------------------------------------
 BYTE   N10  Gs1
 BYTE   N10  Ds2
 BYTE   N10  Cn3
 BYTE   W12
 BYTE   As1
 BYTE   N10  Fn2
 BYTE   N10  Dn3
 BYTE   W12
 BYTE   As1
 BYTE   W06
 BYTE   N05  Fn2
 BYTE   N05  As2
 BYTE   N05  Dn3
 BYTE   W06
 BYTE   N10  As1
 BYTE   W06
 BYTE   N05  Fn2
 BYTE   N05  As2
 BYTE   N05  Dn3
 BYTE   W06
 BYTE   N10  As1
 BYTE   N10  Fn2
 BYTE   N10  Dn3
 BYTE   W12
 BYTE   As1
 BYTE   N10  Fn2
 BYTE   N10  Dn3
 BYTE   W12
 BYTE   As1
 BYTE   W06
 BYTE   N05  Fn2
 BYTE   N05  As2
 BYTE   N05  Dn3
 BYTE   W06
 BYTE   N10  As1
 BYTE   W06
 BYTE   N05  Fn2
 BYTE   N05  As2
 BYTE   N05  Dn3
 BYTE   W06
// 024   ----------------------------------------
 BYTE   GoTo
  POIN2 Label_1_0195BA96
// 025   ----------------------------------------
 BYTE   N10  As1  v092
 BYTE   N10  Fn2
 BYTE   N10  Dn3
 BYTE   W12
 BYTE   FINE

//**************** Track 3 (Midi-Chn.2) ****************//

song039E_003:
// 000   ----------------------------------------
 BYTE   KEYSH   song039E_key+0
Label_2_0195BD96:
 BYTE   VOICE   33
 BYTE   VOL   38*song039E_mvl/mxv
 BYTE   PAN   c_v+0
 BYTE   W12
 BYTE   N12  Cn1  v124
 BYTE   W12
 BYTE   N01
 BYTE   W06
 BYTE   N17  Gn0  v127
 BYTE   W18
 BYTE   N24  Cn1  v124
 BYTE   W24
 BYTE   N06  Gn0
 BYTE   W06
 BYTE   N01
 BYTE   W06
 BYTE   N11  Gn1  v127
 BYTE   W12
// 001   ----------------------------------------
Label_2_0195BDB4:
 BYTE   N11  Gn0  v127
 BYTE   W12
 BYTE   N12  As0  v124
 BYTE   W12
 BYTE   N01
 BYTE   W06
 BYTE   N17  Dn1  v127
 BYTE   W18
 BYTE   N24  Gs0  v124
 BYTE   W24
 BYTE   N06  Cn1
 BYTE   W06
 BYTE   N01
 BYTE   W06
 BYTE   N11  Ds1  v127
 BYTE   W12
 BYTE   PEND 
// 002   ----------------------------------------
Label_2_0195BDD0:
 BYTE   N11  Cn1  v127
 BYTE   W12
 BYTE   N12  Gs0  v124
 BYTE   W12
 BYTE   N01
 BYTE   W06
 BYTE   N17  Gs0  v127
 BYTE   W18
 BYTE   N24  Cn1  v124
 BYTE   W24
 BYTE   N06  Gs0
 BYTE   W06
 BYTE   N01
 BYTE   W06
 BYTE   N11  Cn1  v127
 BYTE   W12
 BYTE   PEND 
// 003   ----------------------------------------
Label_2_0195BDEC:
 BYTE   N05  Gs0  v127
 BYTE   W12
 BYTE   N06  Gs0  v124
 BYTE   W06
 BYTE   N01
 BYTE   W06
 BYTE   N06
 BYTE   W06
 BYTE   N17  As0  v127
 BYTE   W18
 BYTE   N05
 BYTE   W06
 BYTE   N05
 BYTE   W06
 BYTE   N12  Cn1  v124
 BYTE   W12
 BYTE   N01
 BYTE   W06
 BYTE   N17  Gn0  v127
 BYTE   W18
 BYTE   PEND 
// 004   ----------------------------------------
Label_2_0195BE0B:
 BYTE   N24  Cn1  v124
 BYTE   W24
 BYTE   N06  Gn0
 BYTE   W06
 BYTE   N01
 BYTE   W06
 BYTE   N11  Gn1  v127
 BYTE   W12
 BYTE   Gn0
 BYTE   W12
 BYTE   N12  As0  v124
 BYTE   W12
 BYTE   N01
 BYTE   W06
 BYTE   N17  Dn1  v127
 BYTE   W18
 BYTE   PEND 
// 005   ----------------------------------------
Label_2_0195BE25:
 BYTE   N24  Gs0  v124
 BYTE   W24
 BYTE   N06  Cn1
 BYTE   W06
 BYTE   N01
 BYTE   W06
 BYTE   N11  Ds1  v127
 BYTE   W12
 BYTE   Cn1
 BYTE   W12
 BYTE   N12  Gs0  v124
 BYTE   W12
 BYTE   N01
 BYTE   W06
 BYTE   N17  Gs0  v127
 BYTE   W18
 BYTE   PEND 
// 006   ----------------------------------------
 BYTE   N24  Cn1  v124
 BYTE   W24
 BYTE   N06  Gs0
 BYTE   W06
 BYTE   N01
 BYTE   W06
 BYTE   N11  Cn1  v127
 BYTE   W12
 BYTE   N05  Gs0
 BYTE   W12
 BYTE   N06  Gs0  v124
 BYTE   W06
 BYTE   N01
 BYTE   W06
 BYTE   N06
 BYTE   W06
 BYTE   N17  As0  v127
 BYTE   W18
// 007   ----------------------------------------
 BYTE   N05
 BYTE   W06
 BYTE   N05
 BYTE   W06
 BYTE   N12  Cn1  v124
 BYTE   W12
 BYTE   N01
 BYTE   W06
 BYTE   N17  Gn0  v127
 BYTE   W18
 BYTE   N24  Cn1  v124
 BYTE   W24
 BYTE   N06  Gn0
 BYTE   W06
 BYTE   N01
 BYTE   W06
 BYTE   N11  Gn1  v127
 BYTE   W12
// 008   ----------------------------------------
 BYTE   PATT
  POIN2 Label_2_0195BDB4
// 009   ----------------------------------------
 BYTE   PATT
  POIN2 Label_2_0195BDD0
// 010   ----------------------------------------
 BYTE   PATT
  POIN2 Label_2_0195BDEC
// 011   ----------------------------------------
 BYTE   PATT
  POIN2 Label_2_0195BE0B
// 012   ----------------------------------------
 BYTE   PATT
  POIN2 Label_2_0195BE25
// 013   ----------------------------------------
 BYTE   N12  Cn1  v124
 BYTE   W12
 BYTE   As0
 BYTE   W12
 BYTE   N01
 BYTE   W06
 BYTE   N17  As0  v127
 BYTE   W18
 BYTE   N12  Dn1  v124
 BYTE   W12
 BYTE   N06  As0
 BYTE   W06
 BYTE   N01
 BYTE   W06
 BYTE   N06
 BYTE   W06
 BYTE   N17  As0  v127
 BYTE   W18
// 014   ----------------------------------------
 BYTE   N05
 BYTE   W06
 BYTE   N05
 BYTE   W06
 BYTE   N12  Cn1
 BYTE   W12
 BYTE   N01
 BYTE   W06
 BYTE   N06  Gn1
 BYTE   W06
 BYTE   N01  Cn1
 BYTE   W06
 BYTE   N06
 BYTE   W06
 BYTE   Gn0
 BYTE   W06
 BYTE   Cn1
 BYTE   W06
 BYTE   N12  As0
 BYTE   W12
 BYTE   N01
 BYTE   W06
 BYTE   N06  Fn1
 BYTE   W06
 BYTE   N01  As0
 BYTE   W06
 BYTE   N06
 BYTE   W06
// 015   ----------------------------------------
Label_2_0195BECC:
 BYTE   N06  Fn0  v127
 BYTE   W06
 BYTE   As0
 BYTE   W06
 BYTE   N12  Gs0
 BYTE   W12
 BYTE   N01
 BYTE   W06
 BYTE   N06
 BYTE   W06
 BYTE   N01
 BYTE   W06
 BYTE   N06
 BYTE   W06
 BYTE   As0
 BYTE   W06
 BYTE   Cn1
 BYTE   W06
 BYTE   N12  Fn0
 BYTE   W12
 BYTE   N01
 BYTE   W06
 BYTE   N06
 BYTE   W06
 BYTE   N12  Gn0
 BYTE   W12
 BYTE   PEND 
// 016   ----------------------------------------
Label_2_0195BEEC:
 BYTE   N01  Gn0  v127
 BYTE   W06
 BYTE   N06  Fn0
 BYTE   W06
 BYTE   N12  Cn1
 BYTE   W12
 BYTE   N01
 BYTE   W06
 BYTE   N06  Gn1
 BYTE   W06
 BYTE   N01  Cn1
 BYTE   W06
 BYTE   N06
 BYTE   W06
 BYTE   Gn0
 BYTE   W06
 BYTE   Cn1
 BYTE   W06
 BYTE   N12  As0
 BYTE   W12
 BYTE   N01
 BYTE   W06
 BYTE   N06  Fn1
 BYTE   W06
 BYTE   N01  As0
 BYTE   W06
 BYTE   N06
 BYTE   W06
 BYTE   PEND 
// 017   ----------------------------------------
Label_2_0195BF12:
 BYTE   N06  Fn0  v127
 BYTE   W06
 BYTE   As0
 BYTE   W06
 BYTE   N12  Gs0
 BYTE   W12
 BYTE   N01
 BYTE   W06
 BYTE   N06
 BYTE   W06
 BYTE   N01
 BYTE   W06
 BYTE   N06
 BYTE   W06
 BYTE   As0
 BYTE   W06
 BYTE   Cn1
 BYTE   W06
 BYTE   N12  As0
 BYTE   W12
 BYTE   N01
 BYTE   W06
 BYTE   N06  Fn1
 BYTE   W06
 BYTE   N01  As0
 BYTE   W06
 BYTE   N06
 BYTE   W06
 BYTE   PEND 
// 018   ----------------------------------------
 BYTE   Fn0
 BYTE   W06
 BYTE   As0
 BYTE   W06
 BYTE   N12  Cn1
 BYTE   W12
 BYTE   N01
 BYTE   W06
 BYTE   N06  Gn1
 BYTE   W06
 BYTE   N01  Cn1
 BYTE   W06
 BYTE   N06
 BYTE   W06
 BYTE   Gn0
 BYTE   W06
 BYTE   Cn1
 BYTE   W06
 BYTE   N12  As0
 BYTE   W12
 BYTE   N01
 BYTE   W06
 BYTE   N06  Fn1
 BYTE   W06
 BYTE   N01  As0
 BYTE   W06
 BYTE   N06
 BYTE   W06
// 019   ----------------------------------------
 BYTE   PATT
  POIN2 Label_2_0195BECC
// 020   ----------------------------------------
 BYTE   PATT
  POIN2 Label_2_0195BEEC
// 021   ----------------------------------------
 BYTE   PATT
  POIN2 Label_2_0195BF12
// 022   ----------------------------------------
 BYTE   N06  Fn0  v127
 BYTE   W06
 BYTE   As0
 BYTE   W06
 BYTE   N12  Gs0
 BYTE   W12
 BYTE   N01
 BYTE   W06
 BYTE   N06
 BYTE   W06
 BYTE   N01
 BYTE   W06
 BYTE   N06
 BYTE   W06
 BYTE   N01
 BYTE   W06
 BYTE   N06
 BYTE   W06
 BYTE   N12
 BYTE   W12
 BYTE   N01
 BYTE   W06
 BYTE   N06
 BYTE   W06
 BYTE   N01
 BYTE   W06
 BYTE   N06
 BYTE   W06
// 023   ----------------------------------------
 BYTE   As0
 BYTE   W06
 BYTE   Cn1
 BYTE   W06
 BYTE   N12  As0
 BYTE   W12
 BYTE   N01
 BYTE   W06
 BYTE   N06
 BYTE   W06
 BYTE   N01
 BYTE   W06
 BYTE   N06
 BYTE   W06
 BYTE   N01
 BYTE   W06
 BYTE   N06
 BYTE   W06
 BYTE   N12
 BYTE   W12
 BYTE   N01
 BYTE   W06
 BYTE   N06  Fn1
 BYTE   W06
 BYTE   N01  As0
 BYTE   W06
 BYTE   N06
 BYTE   W06
// 024   ----------------------------------------
 BYTE   GoTo
  POIN2 Label_2_0195BD96
// 025   ----------------------------------------
 BYTE   N06  Fn0  v127
 BYTE   W06
 BYTE   As0
 BYTE   W06
 BYTE   FINE

//**************** Track 4 (Midi-Chn.3) ****************//

song039E_004:
// 000   ----------------------------------------
 BYTE   KEYSH   song039E_key+0
Label_3_0195BFB2:
 BYTE   VOICE   48
 BYTE   VOL   29*song039E_mvl/mxv
 BYTE   PAN   c_v-20
 BYTE   W12
 BYTE   N96  Gn3  v064
 BYTE   W84
// 001   ----------------------------------------
Label_3_0195BFBD:
 BYTE   W12
 BYTE   N48  Fn3  v064
 BYTE   W48
 BYTE   Ds3
 BYTE   W36
 BYTE   PEND 
// 002   ----------------------------------------
Label_3_0195BFC5:
 BYTE   W12
 BYTE   N48  Ds3  v064
 BYTE   W48
 BYTE   Cn3
 BYTE   W36
 BYTE   PEND 
// 003   ----------------------------------------
Label_3_0195BFCD:
 BYTE   W12
 BYTE   N04  Ds3  v112
 BYTE   W12
 BYTE   N04
 BYTE   W06
 BYTE   N18  Fn3
 BYTE   W30
 BYTE   N96  Gn3  v064
 BYTE   W36
 BYTE   PEND 
// 004   ----------------------------------------
 BYTE   W60
 BYTE   N48  Fn3
 BYTE   W36
// 005   ----------------------------------------
Label_3_0195BFE0:
 BYTE   W12
 BYTE   N48  Ds3  v064
 BYTE   W48
 BYTE   N48
 BYTE   W36
 BYTE   PEND 
// 006   ----------------------------------------
 BYTE   W12
 BYTE   Cn3
 BYTE   W48
 BYTE   N04  Ds3  v112
 BYTE   W12
 BYTE   N04
 BYTE   W06
 BYTE   N18  Fn3
 BYTE   W18
// 007   ----------------------------------------
 BYTE   W12
 BYTE   N96  Gn3  v064
 BYTE   W84
// 008   ----------------------------------------
 BYTE   PATT
  POIN2 Label_3_0195BFBD
// 009   ----------------------------------------
 BYTE   PATT
  POIN2 Label_3_0195BFC5
// 010   ----------------------------------------
 BYTE   PATT
  POIN2 Label_3_0195BFCD
// 011   ----------------------------------------
 BYTE   W60
 BYTE   N48  Fn3  v064
 BYTE   W36
// 012   ----------------------------------------
 BYTE   PATT
  POIN2 Label_3_0195BFE0
// 013   ----------------------------------------
 BYTE   W12
 BYTE   N48  Dn3  v064
 BYTE   W48
 BYTE   N04  Fn3  v100
 BYTE   W12
 BYTE   N04
 BYTE   W06
 BYTE   N18
 BYTE   W18
// 014   ----------------------------------------
Label_3_0195C01F:
 BYTE   W12
 BYTE   N48  Gn3  v060
 BYTE   W48
 BYTE   Fn3
 BYTE   W36
 BYTE   PEND 
// 015   ----------------------------------------
Label_3_0195C027:
 BYTE   W12
 BYTE   N48  Ds3  v060
 BYTE   W48
 BYTE   N24
 BYTE   W24
 BYTE   Fn3
 BYTE   W12
 BYTE   PEND 
// 016   ----------------------------------------
Label_3_0195C031:
 BYTE   W12
 BYTE   N48  Ds3  v060
 BYTE   W48
 BYTE   Dn3
 BYTE   W36
 BYTE   PEND 
// 017   ----------------------------------------
 BYTE   PATT
  POIN2 Label_3_0195C027
// 018   ----------------------------------------
 BYTE   PATT
  POIN2 Label_3_0195C01F
// 019   ----------------------------------------
 BYTE   PATT
  POIN2 Label_3_0195C027
// 020   ----------------------------------------
 BYTE   PATT
  POIN2 Label_3_0195C031
// 021   ----------------------------------------
 BYTE   PATT
  POIN2 Label_3_0195C027
// 022   ----------------------------------------
 BYTE   W12
 BYTE   N48  Ds3  v060
 BYTE   W48
 BYTE   N48
 BYTE   W36
// 023   ----------------------------------------
 BYTE   W12
 BYTE   Fn3
 BYTE   W48
 BYTE   N48
 BYTE   W36
// 024   ----------------------------------------
 BYTE   GoTo
  POIN2 Label_3_0195BFB2
// 025   ----------------------------------------
 BYTE   W12
 BYTE   FINE

//**************** Track 5 (Midi-Chn.4) ****************//

song039E_005:
// 000   ----------------------------------------
 BYTE   KEYSH   song039E_key+0
Label_4_0195C06A:
 BYTE   VOICE   88
 BYTE   VOL   34*song039E_mvl/mxv
 BYTE   PAN   c_v-30
 BYTE   W96
// 001   ----------------------------------------
 BYTE   W96
// 002   ----------------------------------------
 BYTE   W96
// 003   ----------------------------------------
 BYTE   W96
// 004   ----------------------------------------
 BYTE   W96
// 005   ----------------------------------------
 BYTE   W96
// 006   ----------------------------------------
 BYTE   W96
// 007   ----------------------------------------
 BYTE   W96
// 008   ----------------------------------------
 BYTE   W96
// 009   ----------------------------------------
 BYTE   W96
// 010   ----------------------------------------
 BYTE   W96
// 011   ----------------------------------------
 BYTE   W96
// 012   ----------------------------------------
 BYTE   W96
// 013   ----------------------------------------
 BYTE   W96
// 014   ----------------------------------------
 BYTE   W12
 BYTE   N18  Ds4  v112
 BYTE   W18
 BYTE   Fn4
 BYTE   W18
 BYTE   N12  Ds4
 BYTE   W12
 BYTE   N18  As3
 BYTE   N18  As4
 BYTE   W18
 BYTE   Fn4
 BYTE   W18
// 015   ----------------------------------------
Label_4_0195C08F:
 BYTE   N60  Ds4  v112
 BYTE   W60
 BYTE   N24  Cn4
 BYTE   W24
 BYTE   Dn4
 BYTE   W12
 BYTE   PEND 
// 016   ----------------------------------------
Label_4_0195C099:
 BYTE   W12
 BYTE   N18  Ds4  v112
 BYTE   W18
 BYTE   Fn4
 BYTE   W18
 BYTE   N12  Ds4
 BYTE   W12
 BYTE   N18  Gs4
 BYTE   W18
 BYTE   Gn4
 BYTE   W18
 BYTE   PEND 
// 017   ----------------------------------------
 BYTE   N12  Ds4
 BYTE   W12
 BYTE   N36  Gn4
 BYTE   W36
 BYTE   N06  Gs4
 BYTE   W06
 BYTE   Gn4
 BYTE   W06
 BYTE   N48  Fn4
 BYTE   W36
// 018   ----------------------------------------
 BYTE   W12
 BYTE   N18  Ds4
 BYTE   W18
 BYTE   Fn4
 BYTE   W18
 BYTE   N12  Ds4
 BYTE   W12
 BYTE   N18  As4
 BYTE   W18
 BYTE   Fn4
 BYTE   W18
// 019   ----------------------------------------
 BYTE   PATT
  POIN2 Label_4_0195C08F
// 020   ----------------------------------------
 BYTE   PATT
  POIN2 Label_4_0195C099
// 021   ----------------------------------------
 BYTE   N12  Ds4  v112
 BYTE   W12
 BYTE   N36  Gn4
 BYTE   W36
 BYTE   N06  Gs4
 BYTE   W06
 BYTE   Gn4
 BYTE   W06
 BYTE   N24  Fn4
 BYTE   W24
 BYTE   N12  Ds4
 BYTE   W12
// 022   ----------------------------------------
 BYTE   Dn4
 BYTE   W12
 BYTE   N36
 BYTE   W36
 BYTE   N06  Cn4
 BYTE   W12
 BYTE   N48
 BYTE   W36
// 023   ----------------------------------------
 BYTE   W12
 BYTE   N36  Ds4
 BYTE   W36
 BYTE   N06  Dn4
 BYTE   W12
 BYTE   N48
 BYTE   W36
// 024   ----------------------------------------
 BYTE   GoTo
  POIN2 Label_4_0195C06A
// 025   ----------------------------------------
 BYTE   W12
 BYTE   FINE

//**************** Track 6 (Midi-Chn.5) ****************//

song039E_006:
// 000   ----------------------------------------
 BYTE   KEYSH   song039E_key+0
Label_5_0195C0FE:
 BYTE   VOICE   28
 BYTE   VOL   23*song039E_mvl/mxv
 BYTE   PAN   c_v+30
 BYTE   W12
 BYTE   N06  Cn2  v120
 BYTE   W24
 BYTE   N06
 BYTE   W18
 BYTE   N06
 BYTE   W18
 BYTE   N06
 BYTE   W12
 BYTE   N06
 BYTE   W12
// 001   ----------------------------------------
Label_5_0195C111:
 BYTE   W06
 BYTE   N06  Cn2  v120
 BYTE   W06
 BYTE   As1
 BYTE   W24
 BYTE   N06
 BYTE   W18
 BYTE   N06
 BYTE   W18
 BYTE   Gs1
 BYTE   W12
 BYTE   N06
 BYTE   W12
 BYTE   PEND 
// 002   ----------------------------------------
Label_5_0195C121:
 BYTE   W06
 BYTE   N06  Gs1  v120
 BYTE   W06
 BYTE   N06
 BYTE   W24
 BYTE   N06
 BYTE   W18
 BYTE   N06
 BYTE   W18
 BYTE   Cn2
 BYTE   W12
 BYTE   N06
 BYTE   W12
 BYTE   PEND 
// 003   ----------------------------------------
Label_5_0195C131:
 BYTE   W06
 BYTE   N06  Cn2  v120
 BYTE   W06
 BYTE   N06
 BYTE   W18
 BYTE   As1
 BYTE   W24
 BYTE   N06
 BYTE   W06
 BYTE   Cn2
 BYTE   W24
 BYTE   N06
 BYTE   W12
 BYTE   PEND 
// 004   ----------------------------------------
Label_5_0195C141:
 BYTE   W06
 BYTE   N06  Cn2  v120
 BYTE   W18
 BYTE   N06
 BYTE   W12
 BYTE   N06
 BYTE   W18
 BYTE   N06
 BYTE   W06
 BYTE   As1
 BYTE   W24
 BYTE   N06
 BYTE   W12
 BYTE   PEND 
// 005   ----------------------------------------
Label_5_0195C151:
 BYTE   W06
 BYTE   N06  As1  v120
 BYTE   W18
 BYTE   Gs1
 BYTE   W12
 BYTE   N06
 BYTE   W18
 BYTE   N06
 BYTE   W06
 BYTE   N06
 BYTE   W24
 BYTE   N06
 BYTE   W12
 BYTE   PEND 
// 006   ----------------------------------------
 BYTE   W06
 BYTE   N06
 BYTE   W18
 BYTE   Cn2
 BYTE   W12
 BYTE   N06
 BYTE   W18
 BYTE   N06
 BYTE   W06
 BYTE   N06
 BYTE   W18
 BYTE   As1
 BYTE   W18
// 007   ----------------------------------------
 BYTE   W06
 BYTE   N06
 BYTE   W06
 BYTE   Cn2
 BYTE   W24
 BYTE   N06
 BYTE   W18
 BYTE   N06
 BYTE   W18
 BYTE   N06
 BYTE   W12
 BYTE   N06
 BYTE   W12
// 008   ----------------------------------------
 BYTE   PATT
  POIN2 Label_5_0195C111
// 009   ----------------------------------------
 BYTE   PATT
  POIN2 Label_5_0195C121
// 010   ----------------------------------------
 BYTE   PATT
  POIN2 Label_5_0195C131
// 011   ----------------------------------------
 BYTE   PATT
  POIN2 Label_5_0195C141
// 012   ----------------------------------------
 BYTE   PATT
  POIN2 Label_5_0195C151
// 013   ----------------------------------------
 BYTE   W06
 BYTE   N06  Gs1  v120
 BYTE   W18
 BYTE   As1
 BYTE   W12
 BYTE   N06
 BYTE   W18
 BYTE   N06
 BYTE   W06
 BYTE   N06
 BYTE   W18
 BYTE   N06
 BYTE   W18
// 014   ----------------------------------------
Label_5_0195C1A3:
 BYTE   W06
 BYTE   N06  As1  v120
 BYTE   W06
 BYTE   Cn2
 BYTE   W24
 BYTE   N06
 BYTE   W18
 BYTE   N06
 BYTE   W18
 BYTE   As1
 BYTE   W12
 BYTE   N06
 BYTE   W12
 BYTE   PEND 
// 015   ----------------------------------------
Label_5_0195C1B3:
 BYTE   W06
 BYTE   N06  As1  v120
 BYTE   W06
 BYTE   Gs1
 BYTE   W24
 BYTE   N06
 BYTE   W18
 BYTE   N06
 BYTE   W18
 BYTE   As1
 BYTE   W12
 BYTE   N06
 BYTE   W12
 BYTE   PEND 
// 016   ----------------------------------------
 BYTE   PATT
  POIN2 Label_5_0195C1A3
// 017   ----------------------------------------
 BYTE   PATT
  POIN2 Label_5_0195C1B3
// 018   ----------------------------------------
 BYTE   PATT
  POIN2 Label_5_0195C1A3
// 019   ----------------------------------------
 BYTE   PATT
  POIN2 Label_5_0195C1B3
// 020   ----------------------------------------
 BYTE   PATT
  POIN2 Label_5_0195C1A3
// 021   ----------------------------------------
 BYTE   PATT
  POIN2 Label_5_0195C1B3
// 022   ----------------------------------------
 BYTE   W06
 BYTE   N06  As1  v120
 BYTE   W06
 BYTE   Gs1
 BYTE   W24
 BYTE   N06
 BYTE   W18
 BYTE   N06
 BYTE   W18
 BYTE   N06
 BYTE   W12
 BYTE   N06
 BYTE   W12
// 023   ----------------------------------------
 BYTE   W06
 BYTE   N06
 BYTE   W06
 BYTE   As1
 BYTE   W24
 BYTE   N06
 BYTE   W18
 BYTE   N06
 BYTE   W18
 BYTE   N06
 BYTE   W12
 BYTE   N06
 BYTE   W12
// 024   ----------------------------------------
 BYTE   GoTo
  POIN2 Label_5_0195C0FE
// 025   ----------------------------------------
 BYTE   W06
 BYTE   N06  As1  v120
 BYTE   W06
 BYTE   FINE

//**************** Track 7 (Midi-Chn.6) ****************//

song039E_007:
// 000   ----------------------------------------
 BYTE   KEYSH   song039E_key+0
Label_6_0195C20A:
 BYTE   VOICE   1
 BYTE   W09
 BYTE   VOL   19*song039E_mvl/mxv
 BYTE   PAN   c_v-40
 BYTE   BEND   c_v-1
 BYTE   W03
 BYTE   N04  Dn4  v124
 BYTE   W11
 BYTE   N01  Dn4  v096
 BYTE   W01
 BYTE   N96  Ds4  v124
 BYTE   W72
// 001   ----------------------------------------
Label_6_0195C220:
 BYTE   W22
 BYTE   N01  Cs4  v112
 BYTE   W02
 BYTE   N18  Dn4  v124
 BYTE   W18
 BYTE   As3  v108
 BYTE   W18
 BYTE   N12  Gn3
 BYTE   W12
 BYTE   TIE  Cn4  v127
 BYTE   W24
 BYTE   PEND 
// 002   ----------------------------------------
 BYTE   W96
// 003   ----------------------------------------
 BYTE   W48
 BYTE   EOT
 BYTE   W12
 BYTE   N04  Dn4  v124
 BYTE   W11
 BYTE   N01  Dn4  v096
 BYTE   W01
 BYTE   N96  Ds4  v124
 BYTE   W24
// 004   ----------------------------------------
Label_6_0195C244:
 BYTE   W68
 BYTE   W02
 BYTE   N01  Cs4  v112
 BYTE   W02
 BYTE   N18  Dn4  v124
 BYTE   W18
 BYTE   As3  v108
 BYTE   W06
 BYTE   PEND 
// 005   ----------------------------------------
 BYTE   W12
 BYTE   N12  Gn3
 BYTE   W12
 BYTE   N36  Fn4  v127
 BYTE   W36
 BYTE   TIE  Ds4
 BYTE   W36
// 006   ----------------------------------------
 BYTE   W96
// 007   ----------------------------------------
 BYTE   W06
 BYTE   EOT
 BYTE   W06
 BYTE   N04  Dn4  v124
 BYTE   W11
 BYTE   N01  Dn4  v096
 BYTE   W01
 BYTE   N96  Ds4  v124
 BYTE   W72
// 008   ----------------------------------------
 BYTE   PATT
  POIN2 Label_6_0195C220
// 009   ----------------------------------------
 BYTE   W96
// 010   ----------------------------------------
 BYTE   W48
 BYTE   EOT
 BYTE   Cn4
 BYTE   W12
 BYTE   N04  Dn4  v124
 BYTE   W11
 BYTE   N01  Dn4  v096
 BYTE   W01
 BYTE   N96  Ds4  v124
 BYTE   W24
// 011   ----------------------------------------
 BYTE   PATT
  POIN2 Label_6_0195C244
// 012   ----------------------------------------
 BYTE   W12
 BYTE   N12  Gn3  v108
 BYTE   W12
 BYTE   N36  Fn4  v127
 BYTE   W36
 BYTE   N60  Ds4
 BYTE   W36
// 013   ----------------------------------------
 BYTE   W24
 BYTE   N36  Gn4  v116
 BYTE   W36
 BYTE   N60  Fn4
 BYTE   W36
// 014   ----------------------------------------
Label_6_0195C29C:
 BYTE   W24
 BYTE   N18  Ds4  v116
 BYTE   W18
 BYTE   Fn4
 BYTE   W18
 BYTE   N12  Ds4
 BYTE   W12
 BYTE   N18  As4
 BYTE   W18
 BYTE   Fn4
 BYTE   W06
 BYTE   PEND 
// 015   ----------------------------------------
Label_6_0195C2AC:
 BYTE   W12
 BYTE   N60  Ds4  v116
 BYTE   W60
 BYTE   N24  Cn4
 BYTE   W24
 BYTE   PEND 
// 016   ----------------------------------------
Label_6_0195C2B5:
 BYTE   N24  Dn4  v116
 BYTE   W24
 BYTE   N18  Ds4
 BYTE   W18
 BYTE   Fn4
 BYTE   W18
 BYTE   N12  Ds4
 BYTE   W12
 BYTE   N18  Gs4
 BYTE   W18
 BYTE   Gn4
 BYTE   W06
 BYTE   PEND 
// 017   ----------------------------------------
 BYTE   W12
 BYTE   N12  Ds4
 BYTE   W12
 BYTE   N36  Gn4
 BYTE   W36
 BYTE   N06  Gs4
 BYTE   W06
 BYTE   Gn4
 BYTE   W06
 BYTE   N48  Fn4
 BYTE   W24
// 018   ----------------------------------------
 BYTE   PATT
  POIN2 Label_6_0195C29C
// 019   ----------------------------------------
 BYTE   PATT
  POIN2 Label_6_0195C2AC
// 020   ----------------------------------------
 BYTE   PATT
  POIN2 Label_6_0195C2B5
// 021   ----------------------------------------
 BYTE   W12
 BYTE   N12  Ds4  v116
 BYTE   W12
 BYTE   N36  Gn4
 BYTE   W36
 BYTE   N06  Gs4
 BYTE   W06
 BYTE   Gn4
 BYTE   W06
 BYTE   N24  Fn4
 BYTE   W24
// 022   ----------------------------------------
 BYTE   N12  Ds4
 BYTE   W12
 BYTE   Dn4
 BYTE   W12
 BYTE   N36
 BYTE   W36
 BYTE   N06  Cn4
 BYTE   W12
 BYTE   N48
 BYTE   W24
// 023   ----------------------------------------
 BYTE   W24
 BYTE   N36  Ds4
 BYTE   W36
 BYTE   N06  Dn4
 BYTE   W12
 BYTE   N24
 BYTE   W24
// 024   ----------------------------------------
 BYTE   GoTo
  POIN2 Label_6_0195C20A
// 025   ----------------------------------------
 BYTE   W12
 BYTE   FINE

//**************** Track 8 (Midi-Chn.7) ****************//

song039E_008:
// 000   ----------------------------------------
 BYTE   KEYSH   song039E_key+0
Label_7_0195C316:
 BYTE   VOICE   48
 BYTE   VOL   29*song039E_mvl/mxv
 BYTE   PAN   c_v+20
 BYTE   W12
 BYTE   N96  Cn4  v064
 BYTE   W84
// 001   ----------------------------------------
Label_7_0195C321:
 BYTE   W12
 BYTE   N48  As3  v064
 BYTE   W48
 BYTE   Gs3
 BYTE   W36
 BYTE   PEND 
// 002   ----------------------------------------
Label_7_0195C329:
 BYTE   W12
 BYTE   N48  Gn3  v064
 BYTE   W48
 BYTE   Fn3
 BYTE   W36
 BYTE   PEND 
// 003   ----------------------------------------
Label_7_0195C331:
 BYTE   W12
 BYTE   N04  Cn4  v112
 BYTE   W12
 BYTE   N04
 BYTE   W06
 BYTE   N18  Dn4
 BYTE   W30
 BYTE   N96  Cn4  v064
 BYTE   W36
 BYTE   PEND 
// 004   ----------------------------------------
 BYTE   W60
 BYTE   N48  As3
 BYTE   W36
// 005   ----------------------------------------
Label_7_0195C344:
 BYTE   W12
 BYTE   N48  Gs3  v064
 BYTE   W48
 BYTE   Gn3
 BYTE   W36
 BYTE   PEND 
// 006   ----------------------------------------
 BYTE   W12
 BYTE   Fn3
 BYTE   W48
 BYTE   N04  Cn4  v112
 BYTE   W12
 BYTE   N04
 BYTE   W06
 BYTE   N18  Dn4
 BYTE   W18
// 007   ----------------------------------------
 BYTE   W12
 BYTE   N96  Cn4  v064
 BYTE   W84
// 008   ----------------------------------------
 BYTE   PATT
  POIN2 Label_7_0195C321
// 009   ----------------------------------------
 BYTE   PATT
  POIN2 Label_7_0195C329
// 010   ----------------------------------------
 BYTE   PATT
  POIN2 Label_7_0195C331
// 011   ----------------------------------------
 BYTE   W60
 BYTE   N48  As3  v064
 BYTE   W36
// 012   ----------------------------------------
 BYTE   PATT
  POIN2 Label_7_0195C344
// 013   ----------------------------------------
 BYTE   W12
 BYTE   N48  Fn3  v064
 BYTE   W48
 BYTE   N04  Dn4  v100
 BYTE   W12
 BYTE   N04
 BYTE   W06
 BYTE   N18
 BYTE   W18
// 014   ----------------------------------------
Label_7_0195C383:
 BYTE   W12
 BYTE   N48  Cn4  v060
 BYTE   W48
 BYTE   As3
 BYTE   W36
 BYTE   PEND 
// 015   ----------------------------------------
Label_7_0195C38B:
 BYTE   W12
 BYTE   N48  Gs3  v060
 BYTE   W48
 BYTE   N24
 BYTE   W24
 BYTE   As3
 BYTE   W12
 BYTE   PEND 
// 016   ----------------------------------------
Label_7_0195C395:
 BYTE   W12
 BYTE   N48  Gn3  v060
 BYTE   W48
 BYTE   Fn3
 BYTE   W36
 BYTE   PEND 
// 017   ----------------------------------------
 BYTE   PATT
  POIN2 Label_7_0195C38B
// 018   ----------------------------------------
 BYTE   PATT
  POIN2 Label_7_0195C383
// 019   ----------------------------------------
 BYTE   PATT
  POIN2 Label_7_0195C38B
// 020   ----------------------------------------
 BYTE   PATT
  POIN2 Label_7_0195C395
// 021   ----------------------------------------
 BYTE   PATT
  POIN2 Label_7_0195C38B
// 022   ----------------------------------------
 BYTE   W12
 BYTE   N48  Gs3  v060
 BYTE   W48
 BYTE   As3
 BYTE   W36
// 023   ----------------------------------------
 BYTE   W12
 BYTE   Cn4
 BYTE   W48
 BYTE   Dn4
 BYTE   W36
// 024   ----------------------------------------
 BYTE   GoTo
  POIN2 Label_7_0195C316
// 025   ----------------------------------------
 BYTE   W12
 BYTE   FINE

//**************** Track 9 (Midi-Chn.8) ****************//

song039E_009:
// 000   ----------------------------------------
 BYTE   KEYSH   song039E_key+0
Label_8_0195C3CE:
 BYTE   VOICE   124
 BYTE   VOL   38*song039E_mvl/mxv
 BYTE   PAN   c_v+0
 BYTE   MOD 0
 BYTE   CnM2
 BYTE   W12
 BYTE   N06  Cn1  v127
 BYTE   N24  An2  v084
 BYTE   W12
 BYTE   N06  Fs1  v040
 BYTE   W06
 BYTE   Fs1  v060
 BYTE   W06
 BYTE   Dn1  v112
 BYTE   N06  As1  v056
 BYTE   W12
 BYTE   Fs1  v040
 BYTE   W06
 BYTE   Cn1  v127
 BYTE   N06  Fs1  v060
 BYTE   W06
 BYTE   Cn1  v127
 BYTE   N06  As1  v048
 BYTE   W12
 BYTE   Cn1  v127
 BYTE   N06  Fs1  v040
 BYTE   W06
 BYTE   Fs1  v060
 BYTE   W06
 BYTE   Dn1  v112
 BYTE   N06  As1  v056
 BYTE   W12
// 001   ----------------------------------------
Label_8_0195C409:
 BYTE   N06  Fs1  v040
 BYTE   W06
 BYTE   Cn1  v127
 BYTE   N06  Fs1  v060
 BYTE   W06
 BYTE   Cn1  v127
 BYTE   N06  As1  v048
 BYTE   W12
 BYTE   Fs1  v040
 BYTE   W06
 BYTE   Fs1  v060
 BYTE   W06
 BYTE   Dn1  v112
 BYTE   N06  As1  v056
 BYTE   W12
 BYTE   Fs1  v040
 BYTE   W06
 BYTE   Cn1  v127
 BYTE   N06  Fs1  v060
 BYTE   W06
 BYTE   Cn1  v127
 BYTE   N06  As1  v048
 BYTE   W12
 BYTE   Cn1  v127
 BYTE   N06  Fs1  v040
 BYTE   W06
 BYTE   Fs1  v060
 BYTE   W06
 BYTE   Dn1  v112
 BYTE   N06  As1  v056
 BYTE   W12
 BYTE   PEND 
// 002   ----------------------------------------
 BYTE   PATT
  POIN2 Label_8_0195C409
// 003   ----------------------------------------
Label_8_0195C449:
 BYTE   N06  Fs1  v040
 BYTE   W06
 BYTE   Cn1  v127
 BYTE   N06  Fs1  v060
 BYTE   W06
 BYTE   Cn1  v127
 BYTE   N06  Dn1  v112
 BYTE   N18  An2  v084
 BYTE   W06
 BYTE   N06  Gn1  v100
 BYTE   W06
 BYTE   Fn1  v092
 BYTE   N06  Fs1  v040
 BYTE   W06
 BYTE   Cn1  v127
 BYTE   N06  Dn1  v112
 BYTE   N06  An2  v084
 BYTE   W06
 BYTE   As1  v056
 BYTE   W06
 BYTE   Cn1  v127
 BYTE   W06
 BYTE   Fn1  v080
 BYTE   N06  Fs1  v040
 BYTE   W06
 BYTE   Dn1  v100
 BYTE   N06  Fs1  v060
 BYTE   W06
 BYTE   Cn1  v127
 BYTE   N24  An2  v084
 BYTE   W12
 BYTE   N06  Fs1  v040
 BYTE   W06
 BYTE   Fs1  v060
 BYTE   W06
 BYTE   Dn1  v112
 BYTE   N06  As1  v056
 BYTE   W12
 BYTE   PEND 
// 004   ----------------------------------------
Label_8_0195C495:
 BYTE   N06  Fs1  v040
 BYTE   W06
 BYTE   Cn1  v127
 BYTE   N06  Fs1  v060
 BYTE   W06
 BYTE   Cn1  v127
 BYTE   N06  As1  v048
 BYTE   W12
 BYTE   Cn1  v127
 BYTE   N06  Fs1  v040
 BYTE   W06
 BYTE   Fs1  v060
 BYTE   W06
 BYTE   Dn1  v112
 BYTE   N06  As1  v056
 BYTE   W12
 BYTE   Fs1  v040
 BYTE   W06
 BYTE   Cn1  v127
 BYTE   N06  Fs1  v060
 BYTE   W06
 BYTE   Cn1  v127
 BYTE   N06  As1  v048
 BYTE   W12
 BYTE   Fs1  v040
 BYTE   W06
 BYTE   Fs1  v060
 BYTE   W06
 BYTE   Dn1  v112
 BYTE   N06  As1  v056
 BYTE   W12
 BYTE   PEND 
// 005   ----------------------------------------
 BYTE   PATT
  POIN2 Label_8_0195C495
// 006   ----------------------------------------
 BYTE   N06  Fs1  v040
 BYTE   W06
 BYTE   Cn1  v127
 BYTE   N06  Fs1  v060
 BYTE   W06
 BYTE   Cn1  v127
 BYTE   N06  As1  v048
 BYTE   W12
 BYTE   Cn1  v127
 BYTE   N06  Fs1  v040
 BYTE   W06
 BYTE   Fs1  v060
 BYTE   W06
 BYTE   Dn1  v112
 BYTE   N06  As1  v056
 BYTE   W12
 BYTE   Fs1  v040
 BYTE   W06
 BYTE   Cn1  v127
 BYTE   N06  Fs1  v060
 BYTE   W06
 BYTE   Cn1  v127
 BYTE   N06  Dn1  v112
 BYTE   N18  An2  v084
 BYTE   W06
 BYTE   N06  Gn1  v100
 BYTE   W06
 BYTE   Fn1  v092
 BYTE   N06  Fs1  v040
 BYTE   W06
 BYTE   Cn1  v127
 BYTE   N06  Dn1  v112
 BYTE   N06  An2  v084
 BYTE   W06
 BYTE   As1  v056
 BYTE   W06
 BYTE   Cn1  v127
 BYTE   W06
// 007   ----------------------------------------
 BYTE   Fn1  v080
 BYTE   N06  Fs1  v040
 BYTE   W06
 BYTE   Dn1  v100
 BYTE   N06  Fs1  v060
 BYTE   W06
 BYTE   Cn1  v127
 BYTE   N24  An2  v084
 BYTE   W12
 BYTE   N06  Fs1  v040
 BYTE   W06
 BYTE   Fs1  v060
 BYTE   W06
 BYTE   Dn1  v112
 BYTE   N06  As1  v056
 BYTE   W12
 BYTE   Fs1  v040
 BYTE   W06
 BYTE   Cn1  v127
 BYTE   N06  Fs1  v060
 BYTE   W06
 BYTE   Cn1  v127
 BYTE   N06  As1  v048
 BYTE   W12
 BYTE   Cn1  v127
 BYTE   N06  Fs1  v040
 BYTE   W06
 BYTE   Fs1  v060
 BYTE   W06
 BYTE   Dn1  v112
 BYTE   N06  As1  v056
 BYTE   W12
// 008   ----------------------------------------
 BYTE   PATT
  POIN2 Label_8_0195C409
// 009   ----------------------------------------
 BYTE   PATT
  POIN2 Label_8_0195C409
// 010   ----------------------------------------
 BYTE   PATT
  POIN2 Label_8_0195C449
// 011   ----------------------------------------
 BYTE   PATT
  POIN2 Label_8_0195C495
// 012   ----------------------------------------
 BYTE   PATT
  POIN2 Label_8_0195C495
// 013   ----------------------------------------
 BYTE   N06  Fs1  v040
 BYTE   W06
 BYTE   Cn1  v127
 BYTE   N06  Fs1  v060
 BYTE   W06
 BYTE   Cn1  v127
 BYTE   N06  As1  v048
 BYTE   W12
 BYTE   Cn1  v127
 BYTE   N06  Fs1  v040
 BYTE   W06
 BYTE   Fs1  v060
 BYTE   W06
 BYTE   Dn1  v112
 BYTE   N06  As1  v056
 BYTE   W12
 BYTE   Fs1  v040
 BYTE   W06
 BYTE   Cn1  v127
 BYTE   N06  Fs1  v060
 BYTE   W06
 BYTE   Cn1  v127
 BYTE   N06  As1  v048
 BYTE   W06
 BYTE   Dn1  v112
 BYTE   W06
 BYTE   Dn1  v120
 BYTE   N06  Fs1  v040
 BYTE   W06
 BYTE   Cn1  v127
 BYTE   N06  Fs1  v060
 BYTE   W06
 BYTE   Dn1  v112
 BYTE   N06  As1  v056
 BYTE   W12
// 014   ----------------------------------------
 BYTE   Fn1  v100
 BYTE   N06  Fs1  v040
 BYTE   W06
 BYTE   Dn1  v120
 BYTE   N06  Fs1  v060
 BYTE   W06
 BYTE   Cn1  v127
 BYTE   N24  An2  v088
 BYTE   W12
 BYTE   N06  Cn1  v127
 BYTE   W06
 BYTE   Fn1  v100
 BYTE   W18
 BYTE   Gn1  v108
 BYTE   W06
 BYTE   Fn1  v092
 BYTE   W06
 BYTE   Cn1  v127
 BYTE   N06  Dn1
 BYTE   N18  An2  v088
 BYTE   W12
 BYTE   N06  Cn1  v127
 BYTE   W06
 BYTE   Gn1  v108
 BYTE   N06  An2  v088
 BYTE   W06
 BYTE   Cn1  v127
 BYTE   W12
// 015   ----------------------------------------
Label_8_0195C5EC:
 BYTE   N06  Cn1  v127
 BYTE   N06  Fn1  v100
 BYTE   N06  An2  v088
 BYTE   W12
 BYTE   Cn1  v127
 BYTE   N12  An2  v084
 BYTE   W12
 BYTE   N06  Fs1  v040
 BYTE   W06
 BYTE   Fs1  v060
 BYTE   W06
 BYTE   Dn1  v112
 BYTE   N06  As1  v056
 BYTE   W12
 BYTE   Fs1  v040
 BYTE   W06
 BYTE   Cn1  v127
 BYTE   N06  Fs1  v060
 BYTE   W06
 BYTE   Cn1  v127
 BYTE   N06  As1  v048
 BYTE   W12
 BYTE   Cn1  v127
 BYTE   N06  Fs1  v040
 BYTE   W06
 BYTE   Fs1  v060
 BYTE   W06
 BYTE   Dn1  v112
 BYTE   N06  As1  v056
 BYTE   W12
 BYTE   PEND 
// 016   ----------------------------------------
 BYTE   Fs1  v040
 BYTE   W06
 BYTE   Cn1  v127
 BYTE   N06  Fs1  v060
 BYTE   W06
 BYTE   Cn1  v127
 BYTE   N06  As1  v048
 BYTE   W12
 BYTE   Fs1  v040
 BYTE   W06
 BYTE   Fs1  v060
 BYTE   W06
 BYTE   Dn1  v127
 BYTE   N06  As1  v056
 BYTE   W12
 BYTE   Fs1  v040
 BYTE   W06
 BYTE   Cn1  v127
 BYTE   N06  Fs1  v060
 BYTE   W06
 BYTE   Cn1  v127
 BYTE   N06  As1  v048
 BYTE   W12
 BYTE   Cn1  v127
 BYTE   N06  Fs1  v040
 BYTE   W06
 BYTE   Fs1  v060
 BYTE   W06
 BYTE   Dn1  v127
 BYTE   N06  As1  v056
 BYTE   W12
// 017   ----------------------------------------
Label_8_0195C661:
 BYTE   N06  Fs1  v040
 BYTE   W06
 BYTE   Cn1  v127
 BYTE   N06  Fs1  v060
 BYTE   W06
 BYTE   Cn1  v127
 BYTE   N06  As1  v048
 BYTE   W12
 BYTE   Fs1  v040
 BYTE   W06
 BYTE   Cn1  v127
 BYTE   N06  Fs1  v060
 BYTE   W06
 BYTE   Dn1  v127
 BYTE   N06  As1  v056
 BYTE   W12
 BYTE   Fs1  v040
 BYTE   W06
 BYTE   Cn1  v127
 BYTE   N06  Fs1  v060
 BYTE   W06
 BYTE   Cn1  v127
 BYTE   N06  As1  v048
 BYTE   W06
 BYTE   Dn1  v112
 BYTE   W06
 BYTE   Fn1  v100
 BYTE   N06  Fs1  v040
 BYTE   W06
 BYTE   Cn1  v127
 BYTE   N06  Fs1  v060
 BYTE   W06
 BYTE   Dn1  v127
 BYTE   N06  As1  v056
 BYTE   W06
 BYTE   Cn1  v112
 BYTE   W06
 BYTE   PEND 
// 018   ----------------------------------------
 BYTE   Fn1  v084
 BYTE   N06  Fs1  v040
 BYTE   W06
 BYTE   Dn1  v127
 BYTE   N06  Fs1  v060
 BYTE   W06
 BYTE   Cn1  v127
 BYTE   N24  An2  v088
 BYTE   W12
 BYTE   N06  Cn1  v127
 BYTE   W06
 BYTE   Fn1  v100
 BYTE   W18
 BYTE   Gn1  v108
 BYTE   W06
 BYTE   Fn1  v092
 BYTE   W06
 BYTE   Cn1  v127
 BYTE   N06  Dn1
 BYTE   N18  An2  v088
 BYTE   W12
 BYTE   N06  Cn1  v127
 BYTE   W06
 BYTE   Gn1  v108
 BYTE   N06  An2  v088
 BYTE   W06
 BYTE   Cn1  v127
 BYTE   W12
// 019   ----------------------------------------
 BYTE   PATT
  POIN2 Label_8_0195C5EC
// 020   ----------------------------------------
 BYTE   PATT
  POIN2 Label_8_0195C409
// 021   ----------------------------------------
 BYTE   PATT
  POIN2 Label_8_0195C661
// 022   ----------------------------------------
 BYTE   N06  Fn1  v084
 BYTE   N06  Fs1  v040
 BYTE   W06
 BYTE   Dn1  v127
 BYTE   N06  Fs1  v060
 BYTE   W06
 BYTE   Cn1  v127
 BYTE   N24  An2  v084
 BYTE   W12
 BYTE   N06  Fs1  v040
 BYTE   W06
 BYTE   Fs1  v060
 BYTE   W06
 BYTE   Dn1  v127
 BYTE   N06  As1  v056
 BYTE   W12
 BYTE   Fs1  v040
 BYTE   W06
 BYTE   Cn1  v127
 BYTE   N06  Fs1  v060
 BYTE   W06
 BYTE   Cn1  v127
 BYTE   N06  As1  v048
 BYTE   W12
 BYTE   Cn1  v127
 BYTE   N06  Fs1  v040
 BYTE   W06
 BYTE   Fs1  v060
 BYTE   W06
 BYTE   Dn1  v127
 BYTE   N06  As1  v056
 BYTE   W12
// 023   ----------------------------------------
 BYTE   Fs1  v040
 BYTE   W06
 BYTE   Cn1  v127
 BYTE   N06  Fs1  v060
 BYTE   W06
 BYTE   Cn1  v127
 BYTE   N06  As1  v048
 BYTE   W12
 BYTE   Fs1  v040
 BYTE   W06
 BYTE   Cn1  v127
 BYTE   N06  Fs1  v060
 BYTE   W06
 BYTE   Dn1  v127
 BYTE   N06  As1  v056
 BYTE   W12
 BYTE   Fs1  v040
 BYTE   W06
 BYTE   Cn1  v127
 BYTE   N06  Fs1  v060
 BYTE   W06
 BYTE   Cn1  v127
 BYTE   N06  As1  v048
 BYTE   W06
 BYTE   Dn1  v127
 BYTE   W06
 BYTE   Cn1
 BYTE   N06  Fs1  v040
 BYTE   W06
 BYTE   Fs1  v060
 BYTE   W06
 BYTE   Dn1  v127
 BYTE   N06  As1  v056
 BYTE   W12
// 024   ----------------------------------------
 BYTE   GoTo
  POIN2 Label_8_0195C3CE
// 025   ----------------------------------------
 BYTE   N06  Cn1  v127
 BYTE   N06  Fs1  v040
 BYTE   W06
 BYTE   Dn1  v127
 BYTE   N06  Fs1  v060
 BYTE   W06
 BYTE   FINE

//**************** Track 10 (Midi-Chn.9) ****************//

song039E_010:
// 000   ----------------------------------------
 BYTE   KEYSH   song039E_key+0
Label_9_0195C77E:
 BYTE   VOICE   28
 BYTE   VOL   19*song039E_mvl/mxv
 BYTE   PAN   c_v-30
 BYTE   W24
 BYTE   N10  Gn2  v120
 BYTE   N10  Cn3
 BYTE   W18
 BYTE   N04
 BYTE   N04  Ds3
 BYTE   W18
 BYTE   Cn3
 BYTE   N04  Fn3
 BYTE   W18
 BYTE   Cn3
 BYTE   N04  Ds3
 BYTE   W12
 BYTE   Cn3
 BYTE   N04  Ds3
 BYTE   W06
// 001   ----------------------------------------
Label_9_0195C79B:
 BYTE   N10  Cn3  v120
 BYTE   N10  Fn3
 BYTE   W24
 BYTE   N04  Gn2
 BYTE   N04  Cn3
 BYTE   W12
 BYTE   Gn2
 BYTE   N04  Cn3
 BYTE   W06
 BYTE   N10
 BYTE   N10  Ds3
 BYTE   W18
 BYTE   N04  Cn3
 BYTE   N04  Fn3
 BYTE   W18
 BYTE   Cn3
 BYTE   N04  Ds3
 BYTE   W12
 BYTE   Cn3
 BYTE   N04  Ds3
 BYTE   W06
 BYTE   PEND 
// 002   ----------------------------------------
Label_9_0195C7BC:
 BYTE   N10  Cn3  v120
 BYTE   N10  Fn3
 BYTE   W24
 BYTE   N04  Gn2
 BYTE   N04  Cn3
 BYTE   W18
 BYTE   N04
 BYTE   N04  Ds3
 BYTE   W18
 BYTE   Cn3
 BYTE   N04  Fn3
 BYTE   W18
 BYTE   Cn3
 BYTE   N04  Ds3
 BYTE   W12
 BYTE   Cn3
 BYTE   N04  Ds3
 BYTE   W06
 BYTE   PEND 
// 003   ----------------------------------------
Label_9_0195C7D8:
 BYTE   N04  Cn3  v120
 BYTE   N04  Fn3
 BYTE   W12
 BYTE   Gs2
 BYTE   N04  Cn3
 BYTE   W12
 BYTE   Gs2
 BYTE   N04  Cn3
 BYTE   W06
 BYTE   N16  As2
 BYTE   N16  Dn3
 BYTE   W42
 BYTE   N10  Gn2
 BYTE   N10  Cn3
 BYTE   W18
 BYTE   N04
 BYTE   N04  Ds3
 BYTE   W06
 BYTE   PEND 
// 004   ----------------------------------------
Label_9_0195C7F5:
 BYTE   W12
 BYTE   N04  Cn3  v120
 BYTE   N04  Fn3
 BYTE   W18
 BYTE   Cn3
 BYTE   N04  Ds3
 BYTE   W12
 BYTE   Cn3
 BYTE   N04  Ds3
 BYTE   W06
 BYTE   N10  Cn3
 BYTE   N10  Fn3
 BYTE   W24
 BYTE   N04  Gn2
 BYTE   N04  Cn3
 BYTE   W12
 BYTE   Gn2
 BYTE   N04  Cn3
 BYTE   W06
 BYTE   N10
 BYTE   N10  Ds3
 BYTE   W06
 BYTE   PEND 
// 005   ----------------------------------------
Label_9_0195C817:
 BYTE   W12
 BYTE   N04  Cn3  v120
 BYTE   N04  Fn3
 BYTE   W18
 BYTE   Cn3
 BYTE   N04  Ds3
 BYTE   W12
 BYTE   Cn3
 BYTE   N04  Ds3
 BYTE   W06
 BYTE   N10  Cn3
 BYTE   N10  Fn3
 BYTE   W24
 BYTE   N04  Gn2
 BYTE   N04  Cn3
 BYTE   W18
 BYTE   N04
 BYTE   N04  Ds3
 BYTE   W06
 BYTE   PEND 
// 006   ----------------------------------------
 BYTE   W12
 BYTE   Cn3
 BYTE   N04  Fn3
 BYTE   W18
 BYTE   Cn3
 BYTE   N04  Ds3
 BYTE   W12
 BYTE   Cn3
 BYTE   N04  Ds3
 BYTE   W06
 BYTE   Cn3
 BYTE   N04  Fn3
 BYTE   W12
 BYTE   Gs2
 BYTE   N04  Cn3
 BYTE   W12
 BYTE   Gs2
 BYTE   N04  Cn3
 BYTE   W06
 BYTE   N16  As2
 BYTE   N16  Dn3
 BYTE   W18
// 007   ----------------------------------------
 BYTE   W24
 BYTE   N10  Gn2
 BYTE   N10  Cn3
 BYTE   W18
 BYTE   N04
 BYTE   N04  Ds3
 BYTE   W18
 BYTE   Cn3
 BYTE   N04  Fn3
 BYTE   W18
 BYTE   Cn3
 BYTE   N04  Ds3
 BYTE   W12
 BYTE   Cn3
 BYTE   N04  Ds3
 BYTE   W06
// 008   ----------------------------------------
 BYTE   PATT
  POIN2 Label_9_0195C79B
// 009   ----------------------------------------
 BYTE   PATT
  POIN2 Label_9_0195C7BC
// 010   ----------------------------------------
 BYTE   PATT
  POIN2 Label_9_0195C7D8
// 011   ----------------------------------------
 BYTE   PATT
  POIN2 Label_9_0195C7F5
// 012   ----------------------------------------
 BYTE   PATT
  POIN2 Label_9_0195C817
// 013   ----------------------------------------
 BYTE   W12
 BYTE   N04  As2  v120
 BYTE   N04  Fn3
 BYTE   W18
 BYTE   As2
 BYTE   N04  Fn3
 BYTE   W12
 BYTE   As2
 BYTE   N04  Ds3
 BYTE   W06
 BYTE   As2
 BYTE   N04  Fn3
 BYTE   W12
 BYTE   As2
 BYTE   N04  Dn3
 BYTE   W12
 BYTE   As2
 BYTE   N04  Dn3
 BYTE   W06
 BYTE   N16  As2
 BYTE   N16  Dn3
 BYTE   W18
// 014   ----------------------------------------
 BYTE   W24
 BYTE   N10  Gn2
 BYTE   N10  Cn3
 BYTE   W18
 BYTE   N04  Gn2
 BYTE   N04  Cn3
 BYTE   W18
 BYTE   Fn2
 BYTE   N04  As2
 BYTE   W18
 BYTE   Fn2
 BYTE   N04  As2
 BYTE   W12
 BYTE   Fn2
 BYTE   N04  As2
 BYTE   W06
// 015   ----------------------------------------
Label_9_0195C8B9:
 BYTE   N10  Fn2  v120
 BYTE   N10  As2
 BYTE   W24
 BYTE   Ds2
 BYTE   N10  Gs2
 BYTE   W18
 BYTE   N04  Ds2
 BYTE   N04  Gs2
 BYTE   W18
 BYTE   Fn2
 BYTE   N04  As2
 BYTE   W18
 BYTE   Fn2
 BYTE   N04  As2
 BYTE   W12
 BYTE   Fn2
 BYTE   N04  As2
 BYTE   W06
 BYTE   PEND 
// 016   ----------------------------------------
Label_9_0195C8D5:
 BYTE   N10  Fn2  v120
 BYTE   N10  As2
 BYTE   W24
 BYTE   Gn2
 BYTE   N10  Cn3
 BYTE   W18
 BYTE   N04  Gn2
 BYTE   N04  Cn3
 BYTE   W18
 BYTE   Fn2
 BYTE   N04  As2
 BYTE   W18
 BYTE   Fn2
 BYTE   N04  As2
 BYTE   W12
 BYTE   Fn2
 BYTE   N04  As2
 BYTE   W06
 BYTE   PEND 
// 017   ----------------------------------------
 BYTE   PATT
  POIN2 Label_9_0195C8B9
// 018   ----------------------------------------
 BYTE   PATT
  POIN2 Label_9_0195C8D5
// 019   ----------------------------------------
 BYTE   PATT
  POIN2 Label_9_0195C8B9
// 020   ----------------------------------------
 BYTE   PATT
  POIN2 Label_9_0195C8D5
// 021   ----------------------------------------
 BYTE   PATT
  POIN2 Label_9_0195C8B9
// 022   ----------------------------------------
 BYTE   N10  Fn2  v120
 BYTE   N10  As2
 BYTE   W24
 BYTE   Ds2
 BYTE   N10  Gs2
 BYTE   W18
 BYTE   N04  Ds2
 BYTE   N04  Gs2
 BYTE   W18
 BYTE   Ds2
 BYTE   N04  Gs2
 BYTE   W18
 BYTE   Ds2
 BYTE   N04  Gs2
 BYTE   W12
 BYTE   Ds2
 BYTE   N04  Gs2
 BYTE   W06
// 023   ----------------------------------------
 BYTE   N10  Ds2
 BYTE   N10  Gs2
 BYTE   W24
 BYTE   Fn2
 BYTE   N10  As2
 BYTE   W18
 BYTE   N04  Fn2
 BYTE   N04  As2
 BYTE   W18
 BYTE   Fn2
 BYTE   N04  As2
 BYTE   W18
 BYTE   Fn2
 BYTE   N04  As2
 BYTE   W12
 BYTE   Fn2
 BYTE   N04  As2
 BYTE   W06
// 024   ----------------------------------------
 BYTE   GoTo
  POIN2 Label_9_0195C77E
// 025   ----------------------------------------
 BYTE   N10  Fn2  v120
 BYTE   N10  As2
 BYTE   W12
 BYTE   FINE

//**************** Track 11 (Midi-Chn.10) ****************//

song039E_011:
// 000   ----------------------------------------
 BYTE   KEYSH   song039E_key+0
Label_10_0195C94E:
 BYTE   VOICE   48
 BYTE   VOL   29*song039E_mvl/mxv
 BYTE   PAN   c_v+0
 BYTE   W96
// 001   ----------------------------------------
 BYTE   W96
// 002   ----------------------------------------
 BYTE   W96
// 003   ----------------------------------------
Label_10_0195C957:
 BYTE   W12
 BYTE   N04  Gs3  v112
 BYTE   W12
 BYTE   N04
 BYTE   W06
 BYTE   N18  As3
 BYTE   W66
 BYTE   PEND 
// 004   ----------------------------------------
 BYTE   W96
// 005   ----------------------------------------
 BYTE   W96
// 006   ----------------------------------------
 BYTE   W60
 BYTE   N04  Gs3
 BYTE   W12
 BYTE   N04
 BYTE   W06
 BYTE   N18  As3
 BYTE   W18
// 007   ----------------------------------------
 BYTE   W96
// 008   ----------------------------------------
 BYTE   W96
// 009   ----------------------------------------
 BYTE   W96
// 010   ----------------------------------------
 BYTE   PATT
  POIN2 Label_10_0195C957
// 011   ----------------------------------------
 BYTE   W96
// 012   ----------------------------------------
 BYTE   W96
// 013   ----------------------------------------
 BYTE   W60
 BYTE   N04  As3  v100
 BYTE   W12
 BYTE   N04
 BYTE   W06
 BYTE   N18
 BYTE   W18
// 014   ----------------------------------------
 BYTE   W96
// 015   ----------------------------------------
 BYTE   W96
// 016   ----------------------------------------
 BYTE   W96
// 017   ----------------------------------------
 BYTE   W96
// 018   ----------------------------------------
 BYTE   W96
// 019   ----------------------------------------
 BYTE   W96
// 020   ----------------------------------------
 BYTE   W96
// 021   ----------------------------------------
 BYTE   W96
// 022   ----------------------------------------
 BYTE   W96
// 023   ----------------------------------------
 BYTE   W96
// 024   ----------------------------------------
 BYTE   GoTo
  POIN2 Label_10_0195C94E
// 025   ----------------------------------------
 BYTE   W12
 BYTE   FINE

//******************************************************//
	ALIGN 4

song039E:
	BYTE	11	// NumTrks
	BYTE	0	// NumBlks
	BYTE	song039E_pri	// Priority
	BYTE	song039E_rev	// Reverb.
    
	POIN2	song039E_grp
    
	POIN2	song039E_001
	POIN2	song039E_002
	POIN2	song039E_003
	POIN2	song039E_004
	POIN2	song039E_005
	POIN2	song039E_006
	POIN2	song039E_007
	POIN2	song039E_008
	POIN2	song039E_009
	POIN2	song039E_010
	POIN2	song039E_011

	
