//Event file generated from Sappy .s format.
	#include "MPlayDef.event"

	#define	song58_grp  voicegroup001
	#define	song58_pri  0
	#define	song58_rev  0
	#define	song58_mvl  127
	#define	song58_key  0
	#define	song58_tbs  1
	#define	song58_exg  0
	#define	song58_cmp  1

	// .rodata
	//	song58
	ALIGN 4


//**************** Track 1 (Midi-Chn.0) ****************//

song58_001:
// 000   ----------------------------------------
 BYTE   KEYSH   song58_key+0
Label_0_0129EFBA:
 BYTE   TEMPO   140*song58_tbs/2
 BYTE   VOICE   62
 BYTE   VOL   29*song58_mvl/mxv
 BYTE   PAN   c_v-10
 BYTE   BEND   c_v+0
 BYTE   W96
// 001   ----------------------------------------
 BYTE   W96
// 002   ----------------------------------------
 BYTE   W96
// 003   ----------------------------------------
Label_0_0129EFC7:
 BYTE   W01
 BYTE   TIE  Cn3  v108
 BYTE   TIE  Ds3
 BYTE   TIE  Gn3
 BYTE   TIE  As3
 BYTE   W92
 BYTE   W03
 BYTE   PEND 
// 004   ----------------------------------------
 BYTE   W42
 BYTE   EOT
 BYTE   Cn3  v063
 BYTE   Gn3
 BYTE   W01
 BYTE   As3
 BYTE   W06
 BYTE   TIE  Dn3
 BYTE   TIE  Fn3
 BYTE   TIE  An3
 BYTE   TIE  Cn4
 BYTE   W44
 BYTE   W03
// 005   ----------------------------------------
 BYTE   W80
 BYTE   W03
 BYTE   EOT
 BYTE   Dn3
 BYTE   W01
 BYTE   Fn3  v072
 BYTE   W01
 BYTE   An3
 BYTE   W11
// 006   ----------------------------------------
 BYTE   W01
 BYTE   N60  Gn3
 BYTE   N60  Gs3
 BYTE   N60  Cn4
 BYTE   N60  Ds4
 BYTE   W72
 BYTE   N19  Fn3
 BYTE   N20  Gn3
 BYTE   N19  As3
 BYTE   N21  Dn4
 BYTE   W23
// 007   ----------------------------------------
 BYTE   W07
 BYTE   N32  Dn3
 BYTE   N32  Fn3
 BYTE   N32  Gn3
 BYTE   N32  As3
 BYTE   W42
 BYTE   TIE  Cs3
 BYTE   TIE  Fn3
 BYTE   TIE  Gs3
 BYTE   TIE  Cn4
 BYTE   W44
 BYTE   W03
// 008   ----------------------------------------
 BYTE   W84
 BYTE   W02
 BYTE   EOT
 BYTE   Cs3  v065
 BYTE   W01
 BYTE   Gs3  v072
 BYTE   W09
// 009   ----------------------------------------
 BYTE   PATT
  POIN2 Label_0_0129EFC7
// 010   ----------------------------------------
 BYTE   W40
 BYTE   EOT
 BYTE   Cn3
 BYTE   W01
 BYTE   Ds3  v067
 BYTE   W01
 BYTE   As3
 BYTE   W07
 BYTE   TIE  Dn3  v108
 BYTE   TIE  Fn3
 BYTE   TIE  An3
 BYTE   TIE  Cn4
 BYTE   W44
 BYTE   W03
// 011   ----------------------------------------
 BYTE   W84
 BYTE   EOT
 BYTE   Fn3
 BYTE   W01
 BYTE   Dn3
 BYTE   W01
 BYTE   An3
 BYTE   W01
 BYTE   Cn4
 BYTE   W09
// 012   ----------------------------------------
 BYTE   W01
 BYTE   N60  Gn3
 BYTE   N60  Gs3
 BYTE   N60  Cn4
 BYTE   N60  Ds4
 BYTE   W72
 BYTE   N66  Gn3
 BYTE   N60  Bn3
 BYTE   N66  Dn4
 BYTE   N66  Fn4
 BYTE   W23
// 013   ----------------------------------------
 BYTE   W48
 BYTE   W01
 BYTE   N64  Gn3
 BYTE   N66  Cn4
 BYTE   N66  Ds4
 BYTE   W44
 BYTE   W03
// 014   ----------------------------------------
 BYTE   W24
 BYTE   W01
 BYTE   BEND   c_v+0
 BYTE   N68  Fn3
 BYTE   N68  As3
 BYTE   N68  Dn4
 BYTE   W18
 BYTE   BEND   c_v-1
 BYTE   W09
 BYTE   Dn3
 BYTE   W06
 BYTE   Cs3
 BYTE   W03
 BYTE   Cn3
 BYTE   W03
 BYTE   Bn2
 BYTE   W03
 BYTE   As2
 BYTE   W02
 BYTE   An2
 BYTE   W01
 BYTE   Gs2
 BYTE   W02
 BYTE   Gn2
 BYTE   W01
 BYTE   Fs2
 BYTE   W02
 BYTE   Fn2
 BYTE   W01
 BYTE   En2
 BYTE   W02
 BYTE   Dn2
 BYTE   W01
 BYTE   Cn2
 BYTE   W02
 BYTE   As1
 BYTE   W01
 BYTE   Gs1
 BYTE   W02
 BYTE   Fn1
 BYTE   W01
 BYTE   Ds1
 BYTE   W02
 BYTE   Bn0
 BYTE   W01
 BYTE   Gs0
 BYTE   W02
 BYTE   En0
 BYTE   W01
 BYTE   BnM1
 BYTE   W02
 BYTE   FsM1
 BYTE   W01
 BYTE   CnM1
 BYTE   W02
// 015   ----------------------------------------
 BYTE   FsM2
 BYTE   W01
 BYTE   En3
 BYTE   N24  En3  v127
 BYTE   N24  An3
 BYTE   N24  Dn4
 BYTE   W30
 BYTE   N36  En3
 BYTE   N36  An3
 BYTE   N36  Cs4
 BYTE   W42
 BYTE   N24  Dn3
 BYTE   N24  Gn3
 BYTE   N24  Cn4
 BYTE   W23
// 016   ----------------------------------------
 BYTE   W07
 BYTE   N36  Dn3
 BYTE   N36  Gn3
 BYTE   N36  Bn3
 BYTE   W42
 BYTE   N24  Cn3
 BYTE   N24  Fn3
 BYTE   N24  Bn3
 BYTE   W30
 BYTE   TIE  Cn3
 BYTE   TIE  Fn3
 BYTE   TIE  An3
 BYTE   W17
// 017   ----------------------------------------
 BYTE   W92
 BYTE   W03
 BYTE   EOT
 BYTE   Cn3  v065
 BYTE   An3
 BYTE   W01
// 018   ----------------------------------------
 BYTE   W01
 BYTE   N24  En3
 BYTE   N24  An3
 BYTE   N24  Dn4
 BYTE   W30
 BYTE   N36  En3
 BYTE   N36  An3
 BYTE   N36  Cs4
 BYTE   W42
 BYTE   N24  Dn3
 BYTE   N24  Gn3
 BYTE   N24  Cn4
 BYTE   W23
// 019   ----------------------------------------
 BYTE   W07
 BYTE   N36  Dn3
 BYTE   N36  Gn3
 BYTE   N36  Bn3
 BYTE   W42
 BYTE   N24  Fs3
 BYTE   N24  Bn3
 BYTE   N24  En4
 BYTE   W30
 BYTE   TIE  Fs3
 BYTE   TIE  Bn3
 BYTE   TIE  Ds4
 BYTE   W17
// 020   ----------------------------------------
 BYTE   W92
 BYTE   W03
 BYTE   EOT
 BYTE   Fs3  v071
 BYTE   Ds4
 BYTE   W01
// 021   ----------------------------------------
Label_0_0129F105:
 BYTE   W01
 BYTE   N32  Cs3  v127
 BYTE   N32  Fs3
 BYTE   N32  An3
 BYTE   W36
 BYTE   Bn2
 BYTE   N32  En3
 BYTE   N11  Bn3
 BYTE   W12
 BYTE   An3
 BYTE   W12
 BYTE   Bn3
 BYTE   W12
 BYTE   N32  En3
 BYTE   N32  An3
 BYTE   N32  Cs4
 BYTE   W23
 BYTE   PEND 
// 022   ----------------------------------------
Label_0_0129F120:
 BYTE   W13
 BYTE   N32  Fs3  v127
 BYTE   N32  Bn3
 BYTE   N11  Dn4
 BYTE   W12
 BYTE   Cs4
 BYTE   W12
 BYTE   Dn4
 BYTE   W12
 BYTE   N32  En3
 BYTE   N32  An3
 BYTE   N32  Cs4
 BYTE   W36
 BYTE   Fs3
 BYTE   N32  An3
 BYTE   N11  En4
 BYTE   W11
 BYTE   PEND 
// 023   ----------------------------------------
 BYTE   W01
 BYTE   Dn4
 BYTE   W12
 BYTE   Cs4
 BYTE   W12
 BYTE   N32  En3
 BYTE   N32  An3
 BYTE   N32  Bn3
 BYTE   W36
 BYTE   En3
 BYTE   N32  Gs3
 BYTE   N32  Bn3
 BYTE   W32
 BYTE   W03
// 024   ----------------------------------------
 BYTE   PATT
  POIN2 Label_0_0129F105
// 025   ----------------------------------------
 BYTE   PATT
  POIN2 Label_0_0129F120
// 026   ----------------------------------------
 BYTE   W01
 BYTE   N11  Dn4  v127
 BYTE   W12
 BYTE   Cs4
 BYTE   W12
 BYTE   TIE  En3
 BYTE   N68  An3
 BYTE   TIE  Bn3
 BYTE   W68
 BYTE   W03
// 027   ----------------------------------------
 BYTE   W01
 BYTE   N68  Gs3
 BYTE   W68
 BYTE   W02
 BYTE   EOT
 BYTE   En3  v071
 BYTE   W02
 BYTE   TIE  Cn3  v108
 BYTE   TIE  Ds3
 BYTE   TIE  Gn3
 BYTE   TIE  As3
 BYTE   W23
// 028   ----------------------------------------
 BYTE   W96
// 029   ----------------------------------------
 BYTE   W18
 BYTE   EOT
 BYTE   Cn3  v063
 BYTE   Gn3
 BYTE   W01
 BYTE   As3
 BYTE   W06
 BYTE   TIE  Dn3
 BYTE   TIE  Fn3
 BYTE   TIE  An3
 BYTE   TIE  Cn4
 BYTE   W68
 BYTE   W03
// 030   ----------------------------------------
 BYTE   W56
 BYTE   W03
 BYTE   EOT
 BYTE   Dn3
 BYTE   W01
 BYTE   Fn3  v072
 BYTE   W01
 BYTE   An3
 BYTE   W12
 BYTE   N60  Gn3
 BYTE   N60  Gs3
 BYTE   N60  Cn4
 BYTE   N60  Ds4
 BYTE   W23
// 031   ----------------------------------------
 BYTE   W48
 BYTE   W01
 BYTE   N19  Fn3
 BYTE   N20  Gn3
 BYTE   N19  As3
 BYTE   N21  Dn4
 BYTE   W30
 BYTE   N32  Dn3
 BYTE   N32  Fn3
 BYTE   N32  Gn3
 BYTE   N32  As3
 BYTE   W17
// 032   ----------------------------------------
 BYTE   W24
 BYTE   W01
 BYTE   TIE  Cs3
 BYTE   TIE  Fn3
 BYTE   TIE  Gs3
 BYTE   TIE  Cn4
 BYTE   W68
 BYTE   W03
// 033   ----------------------------------------
 BYTE   W60
 BYTE   W02
 BYTE   EOT
 BYTE   Cs3  v065
 BYTE   W01
 BYTE   Gs3  v072
 BYTE   W10
 BYTE   TIE  Cn3
 BYTE   TIE  Ds3
 BYTE   TIE  Gn3
 BYTE   TIE  As3
 BYTE   W23
// 034   ----------------------------------------
 BYTE   W96
// 035   ----------------------------------------
 BYTE   W16
 BYTE   EOT
 BYTE   Cn3
 BYTE   W01
 BYTE   Ds3  v067
 BYTE   W01
 BYTE   As3
 BYTE   W07
 BYTE   TIE  Dn3
 BYTE   TIE  Fn3
 BYTE   TIE  An3
 BYTE   TIE  Cn4
 BYTE   W68
 BYTE   W03
// 036   ----------------------------------------
 BYTE   W60
 BYTE   EOT
 BYTE   Fn3
 BYTE   W01
 BYTE   Dn3
 BYTE   W01
 BYTE   An3
 BYTE   W01
 BYTE   Cn4
 BYTE   W10
 BYTE   N60  Gn3
 BYTE   N60  Gs3
 BYTE   N60  Cn4
 BYTE   N60  Ds4
 BYTE   W23
// 037   ----------------------------------------
 BYTE   W48
 BYTE   W01
 BYTE   N66  Gn3
 BYTE   N60  Bn3
 BYTE   N66  Dn4
 BYTE   N66  Fn4
 BYTE   W44
 BYTE   W03
// 038   ----------------------------------------
 BYTE   W24
 BYTE   W01
 BYTE   N64  Gn3
 BYTE   N66  Cn4
 BYTE   N66  Ds4
 BYTE   W68
 BYTE   W03
// 039   ----------------------------------------
 BYTE   W01
 BYTE   BEND   c_v+0
 BYTE   N68  Fn3
 BYTE   N68  As3
 BYTE   N68  Dn4
 BYTE   W18
 BYTE   BEND   c_v-1
 BYTE   W09
 BYTE   Dn3
 BYTE   W06
 BYTE   Cs3
 BYTE   W03
 BYTE   Cn3
 BYTE   W03
 BYTE   Bn2
 BYTE   W03
 BYTE   As2
 BYTE   W02
 BYTE   An2
 BYTE   W01
 BYTE   Gs2
 BYTE   W02
 BYTE   Gn2
 BYTE   W01
 BYTE   Fs2
 BYTE   W02
 BYTE   Fn2
 BYTE   W01
 BYTE   En2
 BYTE   W02
 BYTE   Dn2
 BYTE   W01
 BYTE   Cn2
 BYTE   W02
 BYTE   As1
 BYTE   W01
 BYTE   Gs1
 BYTE   W02
 BYTE   Fn1
 BYTE   W01
 BYTE   Ds1
 BYTE   W02
 BYTE   Bn0
 BYTE   W01
 BYTE   Gs0
 BYTE   W02
 BYTE   En0
 BYTE   W01
 BYTE   BnM1
 BYTE   W02
 BYTE   FsM1
 BYTE   W01
 BYTE   CnM1
 BYTE   W02
 BYTE   FsM2
 BYTE   W01
 BYTE   En3
 BYTE   N17  Cn3  v127
 BYTE   N17  Fn3
 BYTE   N17  Gn3
 BYTE   N17  Cn4
 BYTE   W23
// 040   ----------------------------------------
Label_0_0129F257:
 BYTE   W48
 BYTE   W01
 BYTE   N17  Ds3  v127
 BYTE   N17  Gs3
 BYTE   N17  As3
 BYTE   N17  Ds4
 BYTE   W36
 BYTE   As2
 BYTE   N17  Ds3
 BYTE   N17  Fn3
 BYTE   N17  As3
 BYTE   W11
 BYTE   PEND 
// 041   ----------------------------------------
Label_0_0129F26C:
 BYTE   W24
 BYTE   W01
 BYTE   N17  Cn3  v127
 BYTE   N17  Fn3
 BYTE   N17  Gn3
 BYTE   N17  Cn4
 BYTE   W68
 BYTE   W03
 BYTE   PEND 
// 042   ----------------------------------------
 BYTE   W01
 BYTE   Fn3
 BYTE   N17  As3
 BYTE   N17  Cn4
 BYTE   N17  Fn4
 BYTE   W36
 BYTE   BEND   c_v+0
 BYTE   N32  Gn3
 BYTE   N32  Cn4
 BYTE   N32  Dn4
 BYTE   N32  Gn4
 BYTE   W09
 BYTE   BEND   c_v-1
 BYTE   W05
 BYTE   Dn3
 BYTE   W03
 BYTE   Cs3
 BYTE   W01
 BYTE   Cn3
 BYTE   W02
 BYTE   Bn2
 BYTE   W01
 BYTE   As2
 BYTE   W02
 BYTE   Gs2
 BYTE   W01
 BYTE   Fs2
 BYTE   W02
 BYTE   Ds2
 BYTE   W01
 BYTE   Cn2
 BYTE   W02
 BYTE   Gn1
 BYTE   W01
 BYTE   Dn1
 BYTE   W02
 BYTE   Fs0
 BYTE   W01
 BYTE   AsM1
 BYTE   W02
 BYTE   CnM2
 BYTE   W01
 BYTE   En3
 BYTE   N17  Cn3
 BYTE   N17  Fn3
 BYTE   N17  Gn3
 BYTE   N17  Cn4
 BYTE   W23
// 043   ----------------------------------------
 BYTE   PATT
  POIN2 Label_0_0129F257
// 044   ----------------------------------------
 BYTE   PATT
  POIN2 Label_0_0129F26C
// 045   ----------------------------------------
 BYTE   W01
 BYTE   N17  Fn3  v127
 BYTE   N17  As3
 BYTE   N17  Cn4
 BYTE   N17  Fn4
 BYTE   W36
 BYTE   BEND   c_v+0
 BYTE   N32  Gn3
 BYTE   N32  Cn4
 BYTE   N32  Dn4
 BYTE   N32  Gn4
 BYTE   W09
 BYTE   BEND   c_v-1
 BYTE   W05
 BYTE   Dn3
 BYTE   W03
 BYTE   Cs3
 BYTE   W01
 BYTE   Cn3
 BYTE   W02
 BYTE   Bn2
 BYTE   W01
 BYTE   As2
 BYTE   W02
 BYTE   Gs2
 BYTE   W01
 BYTE   Fs2
 BYTE   W02
 BYTE   Ds2
 BYTE   W01
 BYTE   Cn2
 BYTE   W02
 BYTE   Gn1
 BYTE   W01
 BYTE   Dn1
 BYTE   W02
 BYTE   Fs0
 BYTE   W01
 BYTE   AsM1
 BYTE   W02
 BYTE   CnM2
 BYTE   W01
 BYTE   En3
 BYTE   N17  Dn3  v108
 BYTE   N17  Gn3
 BYTE   N17  An3
 BYTE   N17  Dn4
 BYTE   W23
// 046   ----------------------------------------
Label_0_0129F301:
 BYTE   W48
 BYTE   W01
 BYTE   N17  Fn3  v108
 BYTE   N17  As3
 BYTE   N17  Cn4
 BYTE   N17  Fn4
 BYTE   W36
 BYTE   Cn3
 BYTE   N17  Fn3
 BYTE   N17  Gn3
 BYTE   N17  Cn4
 BYTE   W11
 BYTE   PEND 
// 047   ----------------------------------------
Label_0_0129F316:
 BYTE   W24
 BYTE   W01
 BYTE   N17  Dn3  v108
 BYTE   N17  Gn3
 BYTE   N17  An3
 BYTE   N17  Dn4
 BYTE   W68
 BYTE   W03
 BYTE   PEND 
// 048   ----------------------------------------
 BYTE   W01
 BYTE   Gn3
 BYTE   N17  Cn4
 BYTE   N17  Dn4
 BYTE   N17  Gn4
 BYTE   W36
 BYTE   BEND   c_v+0
 BYTE   N32  An3
 BYTE   N32  Dn4
 BYTE   N32  En4
 BYTE   N32  An4
 BYTE   W09
 BYTE   BEND   c_v-1
 BYTE   W05
 BYTE   Dn3
 BYTE   W03
 BYTE   Cs3
 BYTE   W01
 BYTE   Cn3
 BYTE   W02
 BYTE   Bn2
 BYTE   W01
 BYTE   As2
 BYTE   W02
 BYTE   Gs2
 BYTE   W01
 BYTE   Fs2
 BYTE   W02
 BYTE   Ds2
 BYTE   W01
 BYTE   Cn2
 BYTE   W02
 BYTE   Gn1
 BYTE   W01
 BYTE   Dn1
 BYTE   W02
 BYTE   Fs0
 BYTE   W01
 BYTE   AsM1
 BYTE   W02
 BYTE   CnM2
 BYTE   W01
 BYTE   En3
 BYTE   N17  Dn3
 BYTE   N17  Gn3
 BYTE   N17  An3
 BYTE   N17  Dn4
 BYTE   W23
// 049   ----------------------------------------
 BYTE   PATT
  POIN2 Label_0_0129F301
// 050   ----------------------------------------
 BYTE   PATT
  POIN2 Label_0_0129F316
// 051   ----------------------------------------
 BYTE   W01
 BYTE   N17  Gn3  v108
 BYTE   N17  Cn4
 BYTE   N17  Dn4
 BYTE   N17  Gn4
 BYTE   W36
 BYTE   BEND   c_v+0
 BYTE   N32  An3
 BYTE   N32  Dn4
 BYTE   N32  En4
 BYTE   N32  An4
 BYTE   W09
 BYTE   BEND   c_v-1
 BYTE   W05
 BYTE   Dn3
 BYTE   W03
 BYTE   Cs3
 BYTE   W01
 BYTE   Cn3
 BYTE   W02
 BYTE   Bn2
 BYTE   W01
 BYTE   As2
 BYTE   W02
 BYTE   Gs2
 BYTE   W01
 BYTE   Fs2
 BYTE   W02
 BYTE   Ds2
 BYTE   W01
 BYTE   Cn2
 BYTE   W02
 BYTE   Gn1
 BYTE   W01
 BYTE   Dn1
 BYTE   W02
 BYTE   Fs0
 BYTE   W01
 BYTE   AsM1
 BYTE   W02
 BYTE   CnM2
 BYTE   W01
 BYTE   Cn0
 BYTE   N32  Gn3
 BYTE   N32  Gs3
 BYTE   N32  Dn4
 BYTE   W02
 BYTE   BEND   c_v-31
 BYTE   W01
 BYTE   En1
 BYTE   W02
 BYTE   An1
 BYTE   W01
 BYTE   Cs2
 BYTE   W02
 BYTE   En2
 BYTE   W01
 BYTE   Gn2
 BYTE   W02
 BYTE   An2
 BYTE   W01
 BYTE   Bn2
 BYTE   W02
 BYTE   Cn3
 BYTE   W01
 BYTE   Cs3
 BYTE   W02
 BYTE   Dn3
 BYTE   W03
 BYTE   Ds3
 BYTE   W03
// 052   ----------------------------------------
 BYTE   W01
 BYTE   En3
 BYTE   W12
 BYTE   N32  Fn3
 BYTE   N32  Fs3
 BYTE   N32  Cn4
 BYTE   W09
 BYTE   BEND   c_v-1
 BYTE   W05
 BYTE   Dn3
 BYTE   W03
 BYTE   Cs3
 BYTE   W01
 BYTE   Cn3
 BYTE   W02
 BYTE   Bn2
 BYTE   W01
 BYTE   As2
 BYTE   W02
 BYTE   Gs2
 BYTE   W01
 BYTE   Fs2
 BYTE   W02
 BYTE   Ds2
 BYTE   W01
 BYTE   Cn2
 BYTE   W02
 BYTE   Gn1
 BYTE   W01
 BYTE   Dn1
 BYTE   W02
 BYTE   Fs0
 BYTE   W01
 BYTE   AsM1
 BYTE   W02
 BYTE   BnM2
 BYTE   W01
 BYTE   En3
 BYTE   TIE  Ds3
 BYTE   TIE  Gn3
 BYTE   TIE  As3
 BYTE   W44
 BYTE   W03
// 053   ----------------------------------------
 BYTE   W92
 BYTE   W03
 BYTE   EOT
 BYTE   Ds3  v067
 BYTE   As3
 BYTE   W01
// 054   ----------------------------------------
Label_0_0129F3FA:
 BYTE   W01
 BYTE   TIE  Dn3  v108
 BYTE   TIE  Fs3
 BYTE   TIE  An3
 BYTE   W92
 BYTE   W03
 BYTE   PEND 
// 055   ----------------------------------------
 BYTE   W44
 BYTE   W03
 BYTE   EOT
 BYTE   Dn3  v066
 BYTE   An3
 BYTE   W02
 BYTE   TIE  Cs3
 BYTE   TIE  Fn3
 BYTE   TIE  Gs3
 BYTE   W44
 BYTE   W03
// 056   ----------------------------------------
 BYTE   W92
 BYTE   W03
 BYTE   EOT
 BYTE   Cs3  v065
 BYTE   Gs3
 BYTE   W01
// 057   ----------------------------------------
Label_0_0129F41B:
 BYTE   W01
 BYTE   TIE  Cn3  v108
 BYTE   TIE  Ds3
 BYTE   TIE  Gn3
 BYTE   W92
 BYTE   W03
 BYTE   PEND 
// 058   ----------------------------------------
 BYTE   W44
 BYTE   W03
 BYTE   EOT
 BYTE   Cn3  v063
 BYTE   Gn3
 BYTE   W02
 BYTE   TIE  Ds3
 BYTE   TIE  Gn3
 BYTE   TIE  As3
 BYTE   W44
 BYTE   W03
// 059   ----------------------------------------
 BYTE   W92
 BYTE   W03
 BYTE   EOT
 BYTE   Ds3  v067
 BYTE   As3
 BYTE   W01
// 060   ----------------------------------------
 BYTE   PATT
  POIN2 Label_0_0129F3FA
// 061   ----------------------------------------
 BYTE   W44
 BYTE   W03
 BYTE   EOT
 BYTE   Dn3  v066
 BYTE   An3
 BYTE   W02
 BYTE   TIE  Cs3  v108
 BYTE   TIE  Fn3
 BYTE   TIE  Gs3
 BYTE   W44
 BYTE   W03
// 062   ----------------------------------------
 BYTE   W92
 BYTE   W03
 BYTE   EOT
 BYTE   Cs3  v065
 BYTE   Gs3
 BYTE   W01
// 063   ----------------------------------------
 BYTE   PATT
  POIN2 Label_0_0129F41B
// 064   ----------------------------------------
 BYTE   W44
 BYTE   W03
 BYTE   EOT
 BYTE   Cn3  v063
 BYTE   Gn3
 BYTE   GoTo
  POIN2 Label_0_0129EFBA
 BYTE   FINE

//**************** Track 2 (Midi-Chn.1) ****************//

song58_002:
// 000   ----------------------------------------
 BYTE   KEYSH   song58_key+0
Label_1_0129F46B:
 BYTE   VOICE   38
 BYTE   VOL   45*song58_mvl/mxv
 BYTE   PAN   c_v+0
 BYTE   BEND   c_v+0
 BYTE   W01
 BYTE   N11  Cn1  v127
 BYTE   W12
 BYTE   N04
 BYTE   W06
 BYTE   Cn2
 BYTE   W06
 BYTE   As1
 BYTE   W06
 BYTE   Cn2
 BYTE   W06
 BYTE   N11  Cn1
 BYTE   W12
 BYTE   N11
 BYTE   W12
 BYTE   As0
 BYTE   W12
 BYTE   N04  Cn1
 BYTE   W06
 BYTE   N04
 BYTE   W06
 BYTE   N04
 BYTE   W06
 BYTE   As0
 BYTE   W05
// 001   ----------------------------------------
 BYTE   W01
 BYTE   Cn1
 BYTE   W06
 BYTE   N04
 BYTE   W06
 BYTE   N04
 BYTE   W06
 BYTE   N04
 BYTE   W06
 BYTE   N04
 BYTE   W06
 BYTE   Cn2
 BYTE   W06
 BYTE   Gn1
 BYTE   W06
 BYTE   Cn1
 BYTE   W06
 BYTE   Ds1
 BYTE   W06
 BYTE   Dn1
 BYTE   W06
 BYTE   Cn1
 BYTE   W06
 BYTE   Dn1
 BYTE   W06
 BYTE   Ds1
 BYTE   W06
 BYTE   Fn1
 BYTE   W06
 BYTE   Gn1
 BYTE   W06
 BYTE   Gs1
 BYTE   W05
// 002   ----------------------------------------
 BYTE   W01
 BYTE   As1
 BYTE   W06
 BYTE   Cn2
 BYTE   W06
 BYTE   As1
 BYTE   W06
 BYTE   Gs1
 BYTE   W06
 BYTE   Gn1
 BYTE   W06
 BYTE   Fn1
 BYTE   W06
 BYTE   Ds1
 BYTE   W06
 BYTE   Dn1
 BYTE   W06
 BYTE   Cn1
 BYTE   W06
 BYTE   As0
 BYTE   W06
 BYTE   Gs0
 BYTE   W06
 BYTE   Gn0
 BYTE   W06
 BYTE   Fn0
 BYTE   W06
 BYTE   Gn0
 BYTE   W06
 BYTE   Gs0
 BYTE   W06
 BYTE   As0
 BYTE   W05
// 003   ----------------------------------------
Label_1_0129F4D2:
 BYTE   W01
 BYTE   N11  Cn1  v127
 BYTE   W12
 BYTE   N04
 BYTE   W06
 BYTE   Cn2
 BYTE   W06
 BYTE   N11  Cn1
 BYTE   W12
 BYTE   N11
 BYTE   W12
 BYTE   N04
 BYTE   W06
 BYTE   Cn2
 BYTE   W06
 BYTE   N11  Cn1
 BYTE   W12
 BYTE   N11
 BYTE   W12
 BYTE   N04
 BYTE   W06
 BYTE   Cn2
 BYTE   W05
 BYTE   PEND 
// 004   ----------------------------------------
Label_1_0129F4EE:
 BYTE   W01
 BYTE   N11  Cn1  v127
 BYTE   W12
 BYTE   N11
 BYTE   W12
 BYTE   N04
 BYTE   W06
 BYTE   Cn2
 BYTE   W06
 BYTE   N11  Cn1
 BYTE   W12
 BYTE   N11
 BYTE   W12
 BYTE   N04
 BYTE   W06
 BYTE   Cn2
 BYTE   W06
 BYTE   N11  Cn1
 BYTE   W12
 BYTE   N11
 BYTE   W11
 BYTE   PEND 
// 005   ----------------------------------------
 BYTE   W01
 BYTE   N04
 BYTE   W06
 BYTE   Cn2
 BYTE   W06
 BYTE   N11  Cn1
 BYTE   W12
 BYTE   N11
 BYTE   W12
 BYTE   N04
 BYTE   W06
 BYTE   Cn2
 BYTE   W06
 BYTE   N11  Cn1
 BYTE   W12
 BYTE   N04
 BYTE   W06
 BYTE   N04
 BYTE   W06
 BYTE   N04
 BYTE   W06
 BYTE   Cn2
 BYTE   W06
 BYTE   As1
 BYTE   W06
 BYTE   Cn2
 BYTE   W05
// 006   ----------------------------------------
 BYTE   PATT
  POIN2 Label_1_0129F4D2
// 007   ----------------------------------------
 BYTE   PATT
  POIN2 Label_1_0129F4EE
// 008   ----------------------------------------
 BYTE   W01
 BYTE   N04  Cn1  v127
 BYTE   W06
 BYTE   Cn2
 BYTE   W06
 BYTE   N11  Cn1
 BYTE   W12
 BYTE   N11
 BYTE   W12
 BYTE   N04
 BYTE   W06
 BYTE   Cn2
 BYTE   W06
 BYTE   N11  Cn1
 BYTE   W12
 BYTE   N04  Cs1
 BYTE   W06
 BYTE   Cn1
 BYTE   W06
 BYTE   Cs1
 BYTE   W06
 BYTE   Ds1
 BYTE   W06
 BYTE   Fn1
 BYTE   W06
 BYTE   Fs1
 BYTE   W05
// 009   ----------------------------------------
 BYTE   PATT
  POIN2 Label_1_0129F4D2
// 010   ----------------------------------------
 BYTE   PATT
  POIN2 Label_1_0129F4EE
// 011   ----------------------------------------
 BYTE   W01
 BYTE   N04  Cn1  v127
 BYTE   W06
 BYTE   Cn2
 BYTE   W06
 BYTE   N11  Cn1
 BYTE   W12
 BYTE   N11
 BYTE   W12
 BYTE   N04
 BYTE   W06
 BYTE   Cn2
 BYTE   W06
 BYTE   N11  Cn1
 BYTE   W12
 BYTE   N04
 BYTE   W06
 BYTE   N04
 BYTE   W06
 BYTE   N04
 BYTE   W06
 BYTE   N04
 BYTE   W06
 BYTE   As0
 BYTE   W06
 BYTE   An0
 BYTE   W05
// 012   ----------------------------------------
 BYTE   W01
 BYTE   N11  Gs0
 BYTE   W12
 BYTE   N04  Gs1
 BYTE   W06
 BYTE   Gs0
 BYTE   W06
 BYTE   N11
 BYTE   W12
 BYTE   N11
 BYTE   W12
 BYTE   N04  Gs1
 BYTE   W06
 BYTE   Gs0
 BYTE   W06
 BYTE   N11
 BYTE   W12
 BYTE   Gn0
 BYTE   W12
 BYTE   N04
 BYTE   W06
 BYTE   Gn1
 BYTE   W05
// 013   ----------------------------------------
 BYTE   W01
 BYTE   N11  Gn0
 BYTE   W12
 BYTE   N11
 BYTE   W12
 BYTE   N04
 BYTE   W06
 BYTE   Gn1
 BYTE   W06
 BYTE   N11  Gn0
 BYTE   W12
 BYTE   Gs0
 BYTE   W12
 BYTE   N04
 BYTE   W06
 BYTE   Gs1
 BYTE   W06
 BYTE   N11  Gs0
 BYTE   W12
 BYTE   N11
 BYTE   W11
// 014   ----------------------------------------
 BYTE   W01
 BYTE   N04
 BYTE   W06
 BYTE   Gs1
 BYTE   W06
 BYTE   N11  Gs0
 BYTE   W12
 BYTE   As0
 BYTE   W12
 BYTE   N04
 BYTE   W06
 BYTE   As1
 BYTE   W06
 BYTE   N11  As0
 BYTE   W12
 BYTE   N04
 BYTE   W06
 BYTE   N04
 BYTE   W06
 BYTE   N04
 BYTE   W06
 BYTE   As1
 BYTE   W06
 BYTE   As0
 BYTE   W06
 BYTE   N04
 BYTE   W05
// 015   ----------------------------------------
Label_1_0129F5C7:
 BYTE   W01
 BYTE   N11  An0  v127
 BYTE   W12
 BYTE   N04
 BYTE   W06
 BYTE   An1
 BYTE   W06
 BYTE   N11  An0
 BYTE   W12
 BYTE   N11
 BYTE   W12
 BYTE   N04
 BYTE   W06
 BYTE   An1
 BYTE   W06
 BYTE   N11  An0
 BYTE   W12
 BYTE   N11
 BYTE   W12
 BYTE   N04
 BYTE   W06
 BYTE   An1
 BYTE   W05
 BYTE   PEND 
// 016   ----------------------------------------
 BYTE   W01
 BYTE   N11  An0
 BYTE   W12
 BYTE   N11
 BYTE   W12
 BYTE   N04
 BYTE   W06
 BYTE   An1
 BYTE   W06
 BYTE   N11  An0
 BYTE   W12
 BYTE   N11
 BYTE   W12
 BYTE   N04
 BYTE   W06
 BYTE   An1
 BYTE   W06
 BYTE   N11  An0
 BYTE   W12
 BYTE   N11
 BYTE   W11
// 017   ----------------------------------------
 BYTE   W01
 BYTE   N04
 BYTE   W06
 BYTE   An1
 BYTE   W06
 BYTE   N11  An0
 BYTE   W12
 BYTE   N11
 BYTE   W12
 BYTE   N04
 BYTE   W06
 BYTE   An1
 BYTE   W06
 BYTE   N11  An0
 BYTE   W12
 BYTE   N11
 BYTE   W12
 BYTE   N04
 BYTE   W06
 BYTE   An1
 BYTE   W06
 BYTE   N11  An0
 BYTE   W11
// 018   ----------------------------------------
 BYTE   PATT
  POIN2 Label_1_0129F5C7
// 019   ----------------------------------------
 BYTE   W01
 BYTE   N11  An0  v127
 BYTE   W12
 BYTE   N11
 BYTE   W12
 BYTE   N04
 BYTE   W06
 BYTE   An1
 BYTE   W06
 BYTE   N11  An0
 BYTE   W12
 BYTE   Bn0
 BYTE   W12
 BYTE   N04
 BYTE   W06
 BYTE   Bn1
 BYTE   W06
 BYTE   N11  Bn0
 BYTE   W12
 BYTE   N11
 BYTE   W11
// 020   ----------------------------------------
 BYTE   W01
 BYTE   N04
 BYTE   W06
 BYTE   Bn1
 BYTE   W06
 BYTE   N11  Bn0
 BYTE   W12
 BYTE   N11
 BYTE   W12
 BYTE   N04
 BYTE   W06
 BYTE   Bn1
 BYTE   W06
 BYTE   N11  Bn0
 BYTE   W12
 BYTE   N11
 BYTE   W12
 BYTE   N04
 BYTE   W06
 BYTE   Bn1
 BYTE   W06
 BYTE   N11  Bn0
 BYTE   W11
// 021   ----------------------------------------
Label_1_0129F64D:
 BYTE   W01
 BYTE   N11  Fs0  v127
 BYTE   W12
 BYTE   N04
 BYTE   W06
 BYTE   Fs1
 BYTE   W06
 BYTE   N11  Fs0
 BYTE   W12
 BYTE   Gs0
 BYTE   W12
 BYTE   N04
 BYTE   W06
 BYTE   Gs1
 BYTE   W06
 BYTE   N11  Gs0
 BYTE   W12
 BYTE   An0
 BYTE   W12
 BYTE   N04
 BYTE   W06
 BYTE   An1
 BYTE   W05
 BYTE   PEND 
// 022   ----------------------------------------
Label_1_0129F669:
 BYTE   W01
 BYTE   N11  An0  v127
 BYTE   W12
 BYTE   Bn0
 BYTE   W12
 BYTE   N04
 BYTE   W06
 BYTE   Bn1
 BYTE   W06
 BYTE   N11  Bn0
 BYTE   W12
 BYTE   An0
 BYTE   W12
 BYTE   N04
 BYTE   W06
 BYTE   An1
 BYTE   W06
 BYTE   N11  An0
 BYTE   W12
 BYTE   Dn0
 BYTE   W11
 BYTE   PEND 
// 023   ----------------------------------------
Label_1_0129F683:
 BYTE   W01
 BYTE   N04  Dn0  v127
 BYTE   W06
 BYTE   Dn1
 BYTE   W06
 BYTE   N11  Dn0
 BYTE   W12
 BYTE   En0
 BYTE   W12
 BYTE   N04
 BYTE   W06
 BYTE   En1
 BYTE   W06
 BYTE   N11  En0
 BYTE   W12
 BYTE   N11
 BYTE   W12
 BYTE   N04
 BYTE   W06
 BYTE   En1
 BYTE   W06
 BYTE   N11  En0
 BYTE   W11
 BYTE   PEND 
// 024   ----------------------------------------
 BYTE   PATT
  POIN2 Label_1_0129F64D
// 025   ----------------------------------------
 BYTE   PATT
  POIN2 Label_1_0129F669
// 026   ----------------------------------------
 BYTE   PATT
  POIN2 Label_1_0129F683
// 027   ----------------------------------------
 BYTE   W01
 BYTE   N11  En0  v127
 BYTE   W12
 BYTE   N04
 BYTE   W06
 BYTE   En1
 BYTE   W06
 BYTE   N11  En0
 BYTE   W12
 BYTE   N04  En1
 BYTE   W06
 BYTE   Bn0
 BYTE   W06
 BYTE   En0
 BYTE   W06
 BYTE   En1
 BYTE   W06
 BYTE   En0
 BYTE   W06
 BYTE   En1
 BYTE   W06
 BYTE   N11  Cn1
 BYTE   W12
 BYTE   N04
 BYTE   W06
 BYTE   Cn2
 BYTE   W05
// 028   ----------------------------------------
 BYTE   PATT
  POIN2 Label_1_0129F4EE
// 029   ----------------------------------------
Label_1_0129F6D4:
 BYTE   W01
 BYTE   N04  Cn1  v127
 BYTE   W06
 BYTE   Cn2
 BYTE   W06
 BYTE   N11  Cn1
 BYTE   W12
 BYTE   N11
 BYTE   W12
 BYTE   N04
 BYTE   W06
 BYTE   Cn2
 BYTE   W06
 BYTE   N11  Cn1
 BYTE   W12
 BYTE   N11
 BYTE   W12
 BYTE   N04
 BYTE   W06
 BYTE   Cn2
 BYTE   W06
 BYTE   N11  Cn1
 BYTE   W11
 BYTE   PEND 
// 030   ----------------------------------------
 BYTE   W01
 BYTE   N11
 BYTE   W12
 BYTE   N04
 BYTE   W06
 BYTE   Cn2
 BYTE   W06
 BYTE   N11  Cn1
 BYTE   W12
 BYTE   N04
 BYTE   W06
 BYTE   N04
 BYTE   W06
 BYTE   N04
 BYTE   W06
 BYTE   Cn2
 BYTE   W06
 BYTE   As1
 BYTE   W06
 BYTE   Cn2
 BYTE   W06
 BYTE   N11  Cn1
 BYTE   W12
 BYTE   N04
 BYTE   W06
 BYTE   Cn2
 BYTE   W05
// 031   ----------------------------------------
 BYTE   PATT
  POIN2 Label_1_0129F4EE
// 032   ----------------------------------------
 BYTE   PATT
  POIN2 Label_1_0129F6D4
// 033   ----------------------------------------
 BYTE   W01
 BYTE   N11  Cn1  v127
 BYTE   W12
 BYTE   N04
 BYTE   W06
 BYTE   Cn2
 BYTE   W06
 BYTE   N11  Cn1
 BYTE   W12
 BYTE   N04  Cs1
 BYTE   W06
 BYTE   Cn1
 BYTE   W06
 BYTE   Cs1
 BYTE   W06
 BYTE   Ds1
 BYTE   W06
 BYTE   Fn1
 BYTE   W06
 BYTE   Fs1
 BYTE   W06
 BYTE   N11  Cn1
 BYTE   W12
 BYTE   N04
 BYTE   W06
 BYTE   Cn2
 BYTE   W05
// 034   ----------------------------------------
 BYTE   PATT
  POIN2 Label_1_0129F4EE
// 035   ----------------------------------------
 BYTE   PATT
  POIN2 Label_1_0129F6D4
// 036   ----------------------------------------
 BYTE   W01
 BYTE   N11  Cn1  v127
 BYTE   W12
 BYTE   N04
 BYTE   W06
 BYTE   Cn2
 BYTE   W06
 BYTE   N11  Cn1
 BYTE   W12
 BYTE   N04
 BYTE   W06
 BYTE   N04
 BYTE   W06
 BYTE   N04
 BYTE   W06
 BYTE   N04
 BYTE   W06
 BYTE   As0
 BYTE   W06
 BYTE   An0
 BYTE   W06
 BYTE   N11  Gs0
 BYTE   W12
 BYTE   N04  Gs1
 BYTE   W06
 BYTE   Gs0
 BYTE   W05
// 037   ----------------------------------------
 BYTE   W01
 BYTE   N11
 BYTE   W12
 BYTE   N11
 BYTE   W12
 BYTE   N04  Gs1
 BYTE   W06
 BYTE   Gs0
 BYTE   W06
 BYTE   N11
 BYTE   W12
 BYTE   Gn0
 BYTE   W12
 BYTE   N04
 BYTE   W06
 BYTE   Gn1
 BYTE   W06
 BYTE   N11  Gn0
 BYTE   W12
 BYTE   N11
 BYTE   W11
// 038   ----------------------------------------
 BYTE   W01
 BYTE   N04
 BYTE   W06
 BYTE   Gn1
 BYTE   W06
 BYTE   N11  Gn0
 BYTE   W12
 BYTE   Gs0
 BYTE   W12
 BYTE   N04
 BYTE   W06
 BYTE   Gs1
 BYTE   W06
 BYTE   N11  Gs0
 BYTE   W12
 BYTE   N11
 BYTE   W12
 BYTE   N04
 BYTE   W06
 BYTE   Gs1
 BYTE   W06
 BYTE   N11  Gs0
 BYTE   W11
// 039   ----------------------------------------
 BYTE   W01
 BYTE   As0
 BYTE   W12
 BYTE   N04
 BYTE   W06
 BYTE   As1
 BYTE   W06
 BYTE   N11  As0
 BYTE   W12
 BYTE   N04
 BYTE   W06
 BYTE   N04
 BYTE   W06
 BYTE   N04
 BYTE   W06
 BYTE   As1
 BYTE   W06
 BYTE   As0
 BYTE   W06
 BYTE   N04
 BYTE   W06
 BYTE   N11  Cn1
 BYTE   W12
 BYTE   N11
 BYTE   W11
// 040   ----------------------------------------
Label_1_0129F7AE:
 BYTE   W01
 BYTE   N11  Cn1  v127
 BYTE   W12
 BYTE   N11
 BYTE   W12
 BYTE   N11
 BYTE   W12
 BYTE   N11
 BYTE   W12
 BYTE   N11
 BYTE   W12
 BYTE   N11
 BYTE   W12
 BYTE   N11
 BYTE   W12
 BYTE   Cn2
 BYTE   W11
 BYTE   PEND 
// 041   ----------------------------------------
Label_1_0129F7C2:
 BYTE   W01
 BYTE   N11  Cn1  v127
 BYTE   W12
 BYTE   N11
 BYTE   W12
 BYTE   N11
 BYTE   W12
 BYTE   N11
 BYTE   W12
 BYTE   N11
 BYTE   W12
 BYTE   Cn2
 BYTE   W12
 BYTE   Cn1
 BYTE   W12
 BYTE   N11
 BYTE   W11
 BYTE   PEND 
// 042   ----------------------------------------
 BYTE   W01
 BYTE   N11
 BYTE   W12
 BYTE   Cn2
 BYTE   W12
 BYTE   Cn1
 BYTE   W12
 BYTE   Cn2
 BYTE   W12
 BYTE   Cn1
 BYTE   W12
 BYTE   Cn2
 BYTE   W12
 BYTE   Cn1
 BYTE   W12
 BYTE   N11
 BYTE   W11
// 043   ----------------------------------------
 BYTE   PATT
  POIN2 Label_1_0129F7AE
// 044   ----------------------------------------
 BYTE   PATT
  POIN2 Label_1_0129F7C2
// 045   ----------------------------------------
 BYTE   W01
 BYTE   N11  Cn1  v127
 BYTE   W12
 BYTE   Cn2
 BYTE   W12
 BYTE   Cn1
 BYTE   W12
 BYTE   Cn2
 BYTE   W12
 BYTE   Cn1
 BYTE   W12
 BYTE   Cn2
 BYTE   W12
 BYTE   Dn1
 BYTE   W12
 BYTE   N11
 BYTE   W11
// 046   ----------------------------------------
Label_1_0129F804:
 BYTE   W01
 BYTE   N11  Dn1  v127
 BYTE   W12
 BYTE   N11
 BYTE   W12
 BYTE   N11
 BYTE   W12
 BYTE   N11
 BYTE   W12
 BYTE   N11
 BYTE   W12
 BYTE   N11
 BYTE   W12
 BYTE   N11
 BYTE   W12
 BYTE   Dn2
 BYTE   W11
 BYTE   PEND 
// 047   ----------------------------------------
Label_1_0129F818:
 BYTE   W01
 BYTE   N11  Dn1  v127
 BYTE   W12
 BYTE   N11
 BYTE   W12
 BYTE   N11
 BYTE   W12
 BYTE   N11
 BYTE   W12
 BYTE   N11
 BYTE   W12
 BYTE   Dn2
 BYTE   W12
 BYTE   Dn1
 BYTE   W12
 BYTE   N11
 BYTE   W11
 BYTE   PEND 
// 048   ----------------------------------------
 BYTE   W01
 BYTE   N11
 BYTE   W12
 BYTE   Dn2
 BYTE   W12
 BYTE   Dn1
 BYTE   W12
 BYTE   Dn2
 BYTE   W12
 BYTE   Dn1
 BYTE   W12
 BYTE   Dn2
 BYTE   W12
 BYTE   Dn1
 BYTE   W12
 BYTE   N11
 BYTE   W11
// 049   ----------------------------------------
 BYTE   PATT
  POIN2 Label_1_0129F804
// 050   ----------------------------------------
 BYTE   PATT
  POIN2 Label_1_0129F818
// 051   ----------------------------------------
 BYTE   W01
 BYTE   N11  Dn1  v127
 BYTE   W12
 BYTE   Dn2
 BYTE   W12
 BYTE   Dn1
 BYTE   W12
 BYTE   Dn2
 BYTE   W12
 BYTE   Dn1
 BYTE   W12
 BYTE   Dn2
 BYTE   W12
 BYTE   Ds1
 BYTE   W12
 BYTE   N11
 BYTE   W11
// 052   ----------------------------------------
 BYTE   W01
 BYTE   N11
 BYTE   W12
 BYTE   Cs1
 BYTE   W12
 BYTE   N11
 BYTE   W12
 BYTE   N11
 BYTE   W12
 BYTE   Cn1
 BYTE   W12
 BYTE   N11
 BYTE   W12
 BYTE   N11
 BYTE   W12
 BYTE   N11
 BYTE   W11
// 053   ----------------------------------------
Label_1_0129F86B:
 BYTE   W01
 BYTE   N11  Cn1  v127
 BYTE   W12
 BYTE   N11
 BYTE   W12
 BYTE   N11
 BYTE   W12
 BYTE   N11
 BYTE   W12
 BYTE   N11
 BYTE   W12
 BYTE   N11
 BYTE   W12
 BYTE   N11
 BYTE   W12
 BYTE   N11
 BYTE   W11
 BYTE   PEND 
// 054   ----------------------------------------
 BYTE   PATT
  POIN2 Label_1_0129F86B
// 055   ----------------------------------------
 BYTE   PATT
  POIN2 Label_1_0129F86B
// 056   ----------------------------------------
 BYTE   PATT
  POIN2 Label_1_0129F86B
// 057   ----------------------------------------
 BYTE   PATT
  POIN2 Label_1_0129F86B
// 058   ----------------------------------------
 BYTE   PATT
  POIN2 Label_1_0129F86B
// 059   ----------------------------------------
 BYTE   PATT
  POIN2 Label_1_0129F86B
// 060   ----------------------------------------
 BYTE   PATT
  POIN2 Label_1_0129F86B
// 061   ----------------------------------------
 BYTE   PATT
  POIN2 Label_1_0129F86B
// 062   ----------------------------------------
 BYTE   PATT
  POIN2 Label_1_0129F86B
// 063   ----------------------------------------
 BYTE   PATT
  POIN2 Label_1_0129F86B
// 064   ----------------------------------------
 BYTE   W01
 BYTE   N11  Cn1  v127
 BYTE   W12
 BYTE   N11
 BYTE   W12
 BYTE   N11
 BYTE   W12
 BYTE   N10
 BYTE   W10
 BYTE   GoTo
  POIN2 Label_1_0129F46B
 BYTE   FINE

//**************** Track 3 (Midi-Chn.2) ****************//

song58_003:
// 000   ----------------------------------------
 BYTE   KEYSH   song58_key+0
Label_2_0129F8C4:
 BYTE   VOICE   33
 BYTE   VOL   48*song58_mvl/mxv
 BYTE   PAN   c_v+0
 BYTE   BEND   c_v+0
 BYTE   W01
 BYTE   N11  Cn1  v127
 BYTE   W12
 BYTE   N04
 BYTE   W06
 BYTE   Cn2
 BYTE   W06
 BYTE   As1
 BYTE   W06
 BYTE   Cn2
 BYTE   W06
 BYTE   N11  Cn1
 BYTE   W12
 BYTE   N11
 BYTE   W12
 BYTE   As0
 BYTE   W12
 BYTE   N04  Cn1
 BYTE   W06
 BYTE   N04
 BYTE   W06
 BYTE   N04
 BYTE   W06
 BYTE   As0
 BYTE   W05
// 001   ----------------------------------------
 BYTE   W01
 BYTE   Cn1
 BYTE   W06
 BYTE   N04
 BYTE   W06
 BYTE   N04
 BYTE   W06
 BYTE   N04
 BYTE   W06
 BYTE   N04
 BYTE   W06
 BYTE   Cn2
 BYTE   W06
 BYTE   Gn1
 BYTE   W06
 BYTE   Cn1
 BYTE   W06
 BYTE   Ds1
 BYTE   W06
 BYTE   Dn1
 BYTE   W06
 BYTE   Cn1
 BYTE   W06
 BYTE   Dn1
 BYTE   W06
 BYTE   Ds1
 BYTE   W06
 BYTE   Fn1
 BYTE   W06
 BYTE   Gn1
 BYTE   W06
 BYTE   Gs1
 BYTE   W05
// 002   ----------------------------------------
 BYTE   W01
 BYTE   As1
 BYTE   W06
 BYTE   Cn2
 BYTE   W06
 BYTE   As1
 BYTE   W06
 BYTE   Gs1
 BYTE   W06
 BYTE   Gn1
 BYTE   W06
 BYTE   Fn1
 BYTE   W06
 BYTE   Ds1
 BYTE   W06
 BYTE   Dn1
 BYTE   W06
 BYTE   Cn1
 BYTE   W06
 BYTE   As0
 BYTE   W06
 BYTE   Gs0
 BYTE   W06
 BYTE   Gn0
 BYTE   W06
 BYTE   Fn0
 BYTE   W06
 BYTE   Gn0
 BYTE   W06
 BYTE   Gs0
 BYTE   W06
 BYTE   As0
 BYTE   W05
// 003   ----------------------------------------
Label_2_0129F92B:
 BYTE   W01
 BYTE   N11  Cn1  v127
 BYTE   W12
 BYTE   N04
 BYTE   W06
 BYTE   Cn2
 BYTE   W06
 BYTE   N11  Cn1
 BYTE   W12
 BYTE   N11
 BYTE   W12
 BYTE   N04
 BYTE   W06
 BYTE   Cn2
 BYTE   W06
 BYTE   N11  Cn1
 BYTE   W12
 BYTE   N11
 BYTE   W12
 BYTE   N04
 BYTE   W06
 BYTE   Cn2
 BYTE   W05
 BYTE   PEND 
// 004   ----------------------------------------
Label_2_0129F947:
 BYTE   W01
 BYTE   N11  Cn1  v127
 BYTE   W12
 BYTE   N11
 BYTE   W12
 BYTE   N04
 BYTE   W06
 BYTE   Cn2
 BYTE   W06
 BYTE   N11  Cn1
 BYTE   W12
 BYTE   N11
 BYTE   W12
 BYTE   N04
 BYTE   W06
 BYTE   Cn2
 BYTE   W06
 BYTE   N11  Cn1
 BYTE   W12
 BYTE   N11
 BYTE   W11
 BYTE   PEND 
// 005   ----------------------------------------
 BYTE   W01
 BYTE   N04
 BYTE   W06
 BYTE   Cn2
 BYTE   W06
 BYTE   N11  Cn1
 BYTE   W12
 BYTE   N11
 BYTE   W12
 BYTE   N04
 BYTE   W06
 BYTE   Cn2
 BYTE   W06
 BYTE   N11  Cn1
 BYTE   W12
 BYTE   N04
 BYTE   W06
 BYTE   N04
 BYTE   W06
 BYTE   N04
 BYTE   W06
 BYTE   Cn2
 BYTE   W06
 BYTE   As1
 BYTE   W06
 BYTE   Cn2
 BYTE   W05
// 006   ----------------------------------------
 BYTE   PATT
  POIN2 Label_2_0129F92B
// 007   ----------------------------------------
 BYTE   PATT
  POIN2 Label_2_0129F947
// 008   ----------------------------------------
 BYTE   W01
 BYTE   N04  Cn1  v127
 BYTE   W06
 BYTE   Cn2
 BYTE   W06
 BYTE   N11  Cn1
 BYTE   W12
 BYTE   N11
 BYTE   W12
 BYTE   N04
 BYTE   W06
 BYTE   Cn2
 BYTE   W06
 BYTE   N11  Cn1
 BYTE   W12
 BYTE   N04  Cs1
 BYTE   W06
 BYTE   Cn1
 BYTE   W06
 BYTE   Cs1
 BYTE   W06
 BYTE   Ds1
 BYTE   W06
 BYTE   Fn1
 BYTE   W06
 BYTE   Fs1
 BYTE   W05
// 009   ----------------------------------------
 BYTE   PATT
  POIN2 Label_2_0129F92B
// 010   ----------------------------------------
 BYTE   PATT
  POIN2 Label_2_0129F947
// 011   ----------------------------------------
 BYTE   W01
 BYTE   N04  Cn1  v127
 BYTE   W06
 BYTE   Cn2
 BYTE   W06
 BYTE   N11  Cn1
 BYTE   W12
 BYTE   N11
 BYTE   W12
 BYTE   N04
 BYTE   W06
 BYTE   Cn2
 BYTE   W06
 BYTE   N11  Cn1
 BYTE   W12
 BYTE   N04
 BYTE   W06
 BYTE   N04
 BYTE   W06
 BYTE   N04
 BYTE   W06
 BYTE   N04
 BYTE   W06
 BYTE   As0
 BYTE   W06
 BYTE   An0
 BYTE   W05
// 012   ----------------------------------------
 BYTE   W01
 BYTE   N11  Gs0
 BYTE   W12
 BYTE   N04  Gs1
 BYTE   W06
 BYTE   Gs0
 BYTE   W06
 BYTE   N11
 BYTE   W12
 BYTE   N11
 BYTE   W12
 BYTE   N04  Gs1
 BYTE   W06
 BYTE   Gs0
 BYTE   W06
 BYTE   N11
 BYTE   W12
 BYTE   Gn0
 BYTE   W12
 BYTE   N04
 BYTE   W06
 BYTE   Gn1
 BYTE   W05
// 013   ----------------------------------------
 BYTE   W01
 BYTE   N11  Gn0
 BYTE   W12
 BYTE   N11
 BYTE   W12
 BYTE   N04
 BYTE   W06
 BYTE   Gn1
 BYTE   W06
 BYTE   N11  Gn0
 BYTE   W12
 BYTE   Gs0
 BYTE   W12
 BYTE   N04
 BYTE   W06
 BYTE   Gs1
 BYTE   W06
 BYTE   N11  Gs0
 BYTE   W12
 BYTE   N11
 BYTE   W11
// 014   ----------------------------------------
 BYTE   W01
 BYTE   N04
 BYTE   W06
 BYTE   Gs1
 BYTE   W06
 BYTE   N11  Gs0
 BYTE   W12
 BYTE   As0
 BYTE   W12
 BYTE   N04
 BYTE   W06
 BYTE   As1
 BYTE   W06
 BYTE   N11  As0
 BYTE   W12
 BYTE   N04
 BYTE   W06
 BYTE   N04
 BYTE   W06
 BYTE   N04
 BYTE   W06
 BYTE   As1
 BYTE   W06
 BYTE   As0
 BYTE   W06
 BYTE   N04
 BYTE   W05
// 015   ----------------------------------------
Label_2_0129FA20:
 BYTE   W01
 BYTE   N11  An0  v127
 BYTE   W12
 BYTE   N04
 BYTE   W06
 BYTE   An1
 BYTE   W06
 BYTE   N11  An0
 BYTE   W12
 BYTE   N11
 BYTE   W12
 BYTE   N04
 BYTE   W06
 BYTE   An1
 BYTE   W06
 BYTE   N11  An0
 BYTE   W12
 BYTE   N11
 BYTE   W12
 BYTE   N04
 BYTE   W06
 BYTE   An1
 BYTE   W05
 BYTE   PEND 
// 016   ----------------------------------------
 BYTE   W01
 BYTE   N11  An0
 BYTE   W12
 BYTE   N11
 BYTE   W12
 BYTE   N04
 BYTE   W06
 BYTE   An1
 BYTE   W06
 BYTE   N11  An0
 BYTE   W12
 BYTE   N11
 BYTE   W12
 BYTE   N04
 BYTE   W06
 BYTE   An1
 BYTE   W06
 BYTE   N11  An0
 BYTE   W12
 BYTE   N11
 BYTE   W11
// 017   ----------------------------------------
 BYTE   W01
 BYTE   N04
 BYTE   W06
 BYTE   An1
 BYTE   W06
 BYTE   N11  An0
 BYTE   W12
 BYTE   N11
 BYTE   W12
 BYTE   N04
 BYTE   W06
 BYTE   An1
 BYTE   W06
 BYTE   N11  An0
 BYTE   W12
 BYTE   N11
 BYTE   W12
 BYTE   N04
 BYTE   W06
 BYTE   An1
 BYTE   W06
 BYTE   N11  An0
 BYTE   W11
// 018   ----------------------------------------
 BYTE   PATT
  POIN2 Label_2_0129FA20
// 019   ----------------------------------------
 BYTE   W01
 BYTE   N11  An0  v127
 BYTE   W12
 BYTE   N11
 BYTE   W12
 BYTE   N04
 BYTE   W06
 BYTE   An1
 BYTE   W06
 BYTE   N11  An0
 BYTE   W12
 BYTE   Bn0
 BYTE   W12
 BYTE   N04
 BYTE   W06
 BYTE   Bn1
 BYTE   W06
 BYTE   N11  Bn0
 BYTE   W12
 BYTE   N11
 BYTE   W11
// 020   ----------------------------------------
 BYTE   W01
 BYTE   N04
 BYTE   W06
 BYTE   Bn1
 BYTE   W06
 BYTE   N11  Bn0
 BYTE   W12
 BYTE   N11
 BYTE   W12
 BYTE   N04
 BYTE   W06
 BYTE   Bn1
 BYTE   W06
 BYTE   N11  Bn0
 BYTE   W12
 BYTE   N11
 BYTE   W12
 BYTE   N04
 BYTE   W06
 BYTE   Bn1
 BYTE   W06
 BYTE   N11  Bn0
 BYTE   W11
// 021   ----------------------------------------
Label_2_0129FAA6:
 BYTE   W01
 BYTE   N11  Fs0  v127
 BYTE   W12
 BYTE   N04
 BYTE   W06
 BYTE   Fs1
 BYTE   W06
 BYTE   N11  Fs0
 BYTE   W12
 BYTE   Gs0
 BYTE   W12
 BYTE   N04
 BYTE   W06
 BYTE   Gs1
 BYTE   W06
 BYTE   N11  Gs0
 BYTE   W12
 BYTE   An0
 BYTE   W12
 BYTE   N04
 BYTE   W06
 BYTE   An1
 BYTE   W05
 BYTE   PEND 
// 022   ----------------------------------------
Label_2_0129FAC2:
 BYTE   W01
 BYTE   N11  An0  v127
 BYTE   W12
 BYTE   Bn0
 BYTE   W12
 BYTE   N04
 BYTE   W06
 BYTE   Bn1
 BYTE   W06
 BYTE   N11  Bn0
 BYTE   W12
 BYTE   An0
 BYTE   W12
 BYTE   N04
 BYTE   W06
 BYTE   An1
 BYTE   W06
 BYTE   N11  An0
 BYTE   W12
 BYTE   Dn0
 BYTE   W11
 BYTE   PEND 
// 023   ----------------------------------------
Label_2_0129FADC:
 BYTE   W01
 BYTE   N04  Dn0  v127
 BYTE   W06
 BYTE   Dn1
 BYTE   W06
 BYTE   N11  Dn0
 BYTE   W12
 BYTE   En0
 BYTE   W12
 BYTE   N04
 BYTE   W06
 BYTE   En1
 BYTE   W06
 BYTE   N11  En0
 BYTE   W12
 BYTE   N11
 BYTE   W12
 BYTE   N04
 BYTE   W06
 BYTE   En1
 BYTE   W06
 BYTE   N11  En0
 BYTE   W11
 BYTE   PEND 
// 024   ----------------------------------------
 BYTE   PATT
  POIN2 Label_2_0129FAA6
// 025   ----------------------------------------
 BYTE   PATT
  POIN2 Label_2_0129FAC2
// 026   ----------------------------------------
 BYTE   PATT
  POIN2 Label_2_0129FADC
// 027   ----------------------------------------
 BYTE   W01
 BYTE   N11  En0  v127
 BYTE   W12
 BYTE   N04
 BYTE   W06
 BYTE   En1
 BYTE   W06
 BYTE   N11  En0
 BYTE   W12
 BYTE   N04  En1
 BYTE   W06
 BYTE   Bn0
 BYTE   W06
 BYTE   En0
 BYTE   W06
 BYTE   En1
 BYTE   W06
 BYTE   En0
 BYTE   W06
 BYTE   En1
 BYTE   W06
 BYTE   N11  Cn1
 BYTE   W12
 BYTE   N04
 BYTE   W06
 BYTE   Cn2
 BYTE   W05
// 028   ----------------------------------------
 BYTE   PATT
  POIN2 Label_2_0129F947
// 029   ----------------------------------------
Label_2_0129FB2D:
 BYTE   W01
 BYTE   N04  Cn1  v127
 BYTE   W06
 BYTE   Cn2
 BYTE   W06
 BYTE   N11  Cn1
 BYTE   W12
 BYTE   N11
 BYTE   W12
 BYTE   N04
 BYTE   W06
 BYTE   Cn2
 BYTE   W06
 BYTE   N11  Cn1
 BYTE   W12
 BYTE   N11
 BYTE   W12
 BYTE   N04
 BYTE   W06
 BYTE   Cn2
 BYTE   W06
 BYTE   N11  Cn1
 BYTE   W11
 BYTE   PEND 
// 030   ----------------------------------------
 BYTE   W01
 BYTE   N11
 BYTE   W12
 BYTE   N04
 BYTE   W06
 BYTE   Cn2
 BYTE   W06
 BYTE   N11  Cn1
 BYTE   W12
 BYTE   N04
 BYTE   W06
 BYTE   N04
 BYTE   W06
 BYTE   N04
 BYTE   W06
 BYTE   Cn2
 BYTE   W06
 BYTE   As1
 BYTE   W06
 BYTE   Cn2
 BYTE   W06
 BYTE   N11  Cn1
 BYTE   W12
 BYTE   N04
 BYTE   W06
 BYTE   Cn2
 BYTE   W05
// 031   ----------------------------------------
 BYTE   PATT
  POIN2 Label_2_0129F947
// 032   ----------------------------------------
 BYTE   PATT
  POIN2 Label_2_0129FB2D
// 033   ----------------------------------------
 BYTE   W01
 BYTE   N11  Cn1  v127
 BYTE   W12
 BYTE   N04
 BYTE   W06
 BYTE   Cn2
 BYTE   W06
 BYTE   N11  Cn1
 BYTE   W12
 BYTE   N04  Cs1
 BYTE   W06
 BYTE   Cn1
 BYTE   W06
 BYTE   Cs1
 BYTE   W06
 BYTE   Ds1
 BYTE   W06
 BYTE   Fn1
 BYTE   W06
 BYTE   Fs1
 BYTE   W06
 BYTE   N11  Cn1
 BYTE   W12
 BYTE   N04
 BYTE   W06
 BYTE   Cn2
 BYTE   W05
// 034   ----------------------------------------
 BYTE   PATT
  POIN2 Label_2_0129F947
// 035   ----------------------------------------
 BYTE   PATT
  POIN2 Label_2_0129FB2D
// 036   ----------------------------------------
 BYTE   W01
 BYTE   N11  Cn1  v127
 BYTE   W12
 BYTE   N04
 BYTE   W06
 BYTE   Cn2
 BYTE   W06
 BYTE   N11  Cn1
 BYTE   W12
 BYTE   N04
 BYTE   W06
 BYTE   N04
 BYTE   W06
 BYTE   N04
 BYTE   W06
 BYTE   N04
 BYTE   W06
 BYTE   As0
 BYTE   W06
 BYTE   An0
 BYTE   W06
 BYTE   N11  Gs0
 BYTE   W12
 BYTE   N04  Gs1
 BYTE   W06
 BYTE   Gs0
 BYTE   W05
// 037   ----------------------------------------
 BYTE   W01
 BYTE   N11
 BYTE   W12
 BYTE   N11
 BYTE   W12
 BYTE   N04  Gs1
 BYTE   W06
 BYTE   Gs0
 BYTE   W06
 BYTE   N11
 BYTE   W12
 BYTE   Gn0
 BYTE   W12
 BYTE   N04
 BYTE   W06
 BYTE   Gn1
 BYTE   W06
 BYTE   N11  Gn0
 BYTE   W12
 BYTE   N11
 BYTE   W11
// 038   ----------------------------------------
 BYTE   W01
 BYTE   N04
 BYTE   W06
 BYTE   Gn1
 BYTE   W06
 BYTE   N11  Gn0
 BYTE   W12
 BYTE   Gs0
 BYTE   W12
 BYTE   N04
 BYTE   W06
 BYTE   Gs1
 BYTE   W06
 BYTE   N11  Gs0
 BYTE   W12
 BYTE   N11
 BYTE   W12
 BYTE   N04
 BYTE   W06
 BYTE   Gs1
 BYTE   W06
 BYTE   N11  Gs0
 BYTE   W11
// 039   ----------------------------------------
 BYTE   W01
 BYTE   As0
 BYTE   W12
 BYTE   N04
 BYTE   W06
 BYTE   As1
 BYTE   W06
 BYTE   N11  As0
 BYTE   W12
 BYTE   N04
 BYTE   W06
 BYTE   N04
 BYTE   W06
 BYTE   N04
 BYTE   W06
 BYTE   As1
 BYTE   W06
 BYTE   As0
 BYTE   W06
 BYTE   N04
 BYTE   W06
 BYTE   N11  Cn1
 BYTE   W12
 BYTE   N11
 BYTE   W11
// 040   ----------------------------------------
Label_2_0129FC07:
 BYTE   W01
 BYTE   N11  Cn1  v127
 BYTE   W12
 BYTE   N11
 BYTE   W12
 BYTE   N11
 BYTE   W12
 BYTE   N11
 BYTE   W12
 BYTE   N11
 BYTE   W12
 BYTE   N11
 BYTE   W12
 BYTE   N11
 BYTE   W12
 BYTE   Cn2
 BYTE   W11
 BYTE   PEND 
// 041   ----------------------------------------
Label_2_0129FC1B:
 BYTE   W01
 BYTE   N11  Cn1  v127
 BYTE   W12
 BYTE   N11
 BYTE   W12
 BYTE   N11
 BYTE   W12
 BYTE   N11
 BYTE   W12
 BYTE   N11
 BYTE   W12
 BYTE   Cn2
 BYTE   W12
 BYTE   Cn1
 BYTE   W12
 BYTE   N11
 BYTE   W11
 BYTE   PEND 
// 042   ----------------------------------------
 BYTE   W01
 BYTE   N11
 BYTE   W12
 BYTE   Cn2
 BYTE   W12
 BYTE   Cn1
 BYTE   W12
 BYTE   Cn2
 BYTE   W12
 BYTE   Cn1
 BYTE   W12
 BYTE   Cn2
 BYTE   W12
 BYTE   Cn1
 BYTE   W12
 BYTE   N11
 BYTE   W11
// 043   ----------------------------------------
 BYTE   PATT
  POIN2 Label_2_0129FC07
// 044   ----------------------------------------
 BYTE   PATT
  POIN2 Label_2_0129FC1B
// 045   ----------------------------------------
 BYTE   W01
 BYTE   N11  Cn1  v127
 BYTE   W12
 BYTE   Cn2
 BYTE   W12
 BYTE   Cn1
 BYTE   W12
 BYTE   Cn2
 BYTE   W12
 BYTE   Cn1
 BYTE   W12
 BYTE   Cn2
 BYTE   W12
 BYTE   Dn1
 BYTE   W12
 BYTE   N11
 BYTE   W11
// 046   ----------------------------------------
Label_2_0129FC5D:
 BYTE   W01
 BYTE   N11  Dn1  v127
 BYTE   W12
 BYTE   N11
 BYTE   W12
 BYTE   N11
 BYTE   W12
 BYTE   N11
 BYTE   W12
 BYTE   N11
 BYTE   W12
 BYTE   N11
 BYTE   W12
 BYTE   N11
 BYTE   W12
 BYTE   Dn2
 BYTE   W11
 BYTE   PEND 
// 047   ----------------------------------------
Label_2_0129FC71:
 BYTE   W01
 BYTE   N11  Dn1  v127
 BYTE   W12
 BYTE   N11
 BYTE   W12
 BYTE   N11
 BYTE   W12
 BYTE   N11
 BYTE   W12
 BYTE   N11
 BYTE   W12
 BYTE   Dn2
 BYTE   W12
 BYTE   Dn1
 BYTE   W12
 BYTE   N11
 BYTE   W11
 BYTE   PEND 
// 048   ----------------------------------------
 BYTE   W01
 BYTE   N11
 BYTE   W12
 BYTE   Dn2
 BYTE   W12
 BYTE   Dn1
 BYTE   W12
 BYTE   Dn2
 BYTE   W12
 BYTE   Dn1
 BYTE   W12
 BYTE   Dn2
 BYTE   W12
 BYTE   Dn1
 BYTE   W12
 BYTE   N11
 BYTE   W11
// 049   ----------------------------------------
 BYTE   PATT
  POIN2 Label_2_0129FC5D
// 050   ----------------------------------------
 BYTE   PATT
  POIN2 Label_2_0129FC71
// 051   ----------------------------------------
 BYTE   W01
 BYTE   N11  Dn1  v127
 BYTE   W12
 BYTE   Dn2
 BYTE   W12
 BYTE   Dn1
 BYTE   W12
 BYTE   Dn2
 BYTE   W12
 BYTE   Dn1
 BYTE   W12
 BYTE   Dn2
 BYTE   W12
 BYTE   Ds1
 BYTE   W12
 BYTE   N11
 BYTE   W11
// 052   ----------------------------------------
 BYTE   W01
 BYTE   N11
 BYTE   W12
 BYTE   Cs1
 BYTE   W12
 BYTE   N11
 BYTE   W12
 BYTE   N11
 BYTE   W12
 BYTE   Cn1
 BYTE   W12
 BYTE   N11
 BYTE   W12
 BYTE   N11
 BYTE   W12
 BYTE   N11
 BYTE   W11
// 053   ----------------------------------------
Label_2_0129FCC4:
 BYTE   W01
 BYTE   N11  Cn1  v127
 BYTE   W12
 BYTE   N11
 BYTE   W12
 BYTE   N11
 BYTE   W12
 BYTE   N11
 BYTE   W12
 BYTE   N11
 BYTE   W12
 BYTE   N11
 BYTE   W12
 BYTE   N11
 BYTE   W12
 BYTE   N11
 BYTE   W11
 BYTE   PEND 
// 054   ----------------------------------------
 BYTE   PATT
  POIN2 Label_2_0129FCC4
// 055   ----------------------------------------
 BYTE   PATT
  POIN2 Label_2_0129FCC4
// 056   ----------------------------------------
 BYTE   PATT
  POIN2 Label_2_0129FCC4
// 057   ----------------------------------------
 BYTE   PATT
  POIN2 Label_2_0129FCC4
// 058   ----------------------------------------
 BYTE   PATT
  POIN2 Label_2_0129FCC4
// 059   ----------------------------------------
 BYTE   PATT
  POIN2 Label_2_0129FCC4
// 060   ----------------------------------------
 BYTE   PATT
  POIN2 Label_2_0129FCC4
// 061   ----------------------------------------
 BYTE   PATT
  POIN2 Label_2_0129FCC4
// 062   ----------------------------------------
 BYTE   PATT
  POIN2 Label_2_0129FCC4
// 063   ----------------------------------------
 BYTE   PATT
  POIN2 Label_2_0129FCC4
// 064   ----------------------------------------
 BYTE   W01
 BYTE   N11  Cn1  v127
 BYTE   W12
 BYTE   N11
 BYTE   W12
 BYTE   N11
 BYTE   W12
 BYTE   N10
 BYTE   W10
 BYTE   GoTo
  POIN2 Label_2_0129F8C4
 BYTE   FINE

//**************** Track 4 (Midi-Chn.3) ****************//

song58_004:
// 000   ----------------------------------------
 BYTE   KEYSH   song58_key+0
Label_3_0129FD1D:
 BYTE   VOICE   48
 BYTE   VOL   29*song58_mvl/mxv
 BYTE   PAN   c_v-34
 BYTE   BEND   c_v+0
 BYTE   W96
// 001   ----------------------------------------
 BYTE   W96
// 002   ----------------------------------------
 BYTE   W96
// 003   ----------------------------------------
Label_3_0129FD28:
 BYTE   W01
 BYTE   N12  Cn3  v127
 BYTE   W12
 BYTE   Gn3
 BYTE   W12
 BYTE   Cn4
 BYTE   W12
 BYTE   As3
 BYTE   W12
 BYTE   Ds4
 BYTE   W12
 BYTE   Dn4
 BYTE   W12
 BYTE   N32  Cn4
 BYTE   W23
 BYTE   PEND 
// 004   ----------------------------------------
Label_3_0129FD3B:
 BYTE   W13
 BYTE   N32  Gn3  v127
 BYTE   W36
 BYTE   N44  An3
 BYTE   W44
 BYTE   W03
 BYTE   PEND 
// 005   ----------------------------------------
 BYTE   W01
 BYTE   N11  As3
 BYTE   W12
 BYTE   Cn4
 BYTE   W12
 BYTE   N68  Dn4
 BYTE   W68
 BYTE   W03
// 006   ----------------------------------------
 BYTE   W01
 BYTE   N32  Ds4
 BYTE   W36
 BYTE   N12  Dn4
 BYTE   W12
 BYTE   Ds4
 BYTE   W12
 BYTE   Fn4
 BYTE   W12
 BYTE   N32  As3
 BYTE   W23
// 007   ----------------------------------------
 BYTE   W13
 BYTE   Dn4
 BYTE   W36
 BYTE   N68  Cn4
 BYTE   W44
 BYTE   W03
// 008   ----------------------------------------
 BYTE   W24
 BYTE   W01
 BYTE   Fn3
 BYTE   W68
 BYTE   W03
// 009   ----------------------------------------
 BYTE   PATT
  POIN2 Label_3_0129FD28
// 010   ----------------------------------------
 BYTE   PATT
  POIN2 Label_3_0129FD3B
// 011   ----------------------------------------
 BYTE   W01
 BYTE   N11  As3  v127
 BYTE   W12
 BYTE   Cn4
 BYTE   W12
 BYTE   N32  Fn4
 BYTE   W36
 BYTE   Cn4
 BYTE   W32
 BYTE   W03
// 012   ----------------------------------------
 BYTE   W01
 BYTE   N44  Gn4
 BYTE   W48
 BYTE   N11  Fn4
 BYTE   W12
 BYTE   Gn4
 BYTE   W12
 BYTE   N32  Fn4
 BYTE   W23
// 013   ----------------------------------------
 BYTE   W13
 BYTE   Dn4
 BYTE   W36
 BYTE   N44  Ds4
 BYTE   W44
 BYTE   W03
// 014   ----------------------------------------
 BYTE   W01
 BYTE   N11  Dn4
 BYTE   W12
 BYTE   Ds4
 BYTE   W12
 BYTE   N68  Fn4
 BYTE   W68
 BYTE   W03
// 015   ----------------------------------------
 BYTE   W96
// 016   ----------------------------------------
 BYTE   W96
// 017   ----------------------------------------
 BYTE   W96
// 018   ----------------------------------------
 BYTE   W96
// 019   ----------------------------------------
 BYTE   W96
// 020   ----------------------------------------
 BYTE   W96
// 021   ----------------------------------------
 BYTE   W96
// 022   ----------------------------------------
 BYTE   W96
// 023   ----------------------------------------
 BYTE   W96
// 024   ----------------------------------------
 BYTE   W96
// 025   ----------------------------------------
 BYTE   W96
// 026   ----------------------------------------
 BYTE   W96
// 027   ----------------------------------------
 BYTE   W72
 BYTE   W01
 BYTE   N12  Cn3
 BYTE   W12
 BYTE   Gn3
 BYTE   W11
// 028   ----------------------------------------
Label_3_0129FDB0:
 BYTE   W01
 BYTE   N12  Cn4  v127
 BYTE   W12
 BYTE   As3
 BYTE   W12
 BYTE   Ds4
 BYTE   W12
 BYTE   Dn4
 BYTE   W12
 BYTE   N32  Cn4
 BYTE   W36
 BYTE   Gn3
 BYTE   W11
 BYTE   PEND 
// 029   ----------------------------------------
Label_3_0129FDC1:
 BYTE   W24
 BYTE   W01
 BYTE   N44  An3  v127
 BYTE   W48
 BYTE   N11  As3
 BYTE   W12
 BYTE   Cn4
 BYTE   W11
 BYTE   PEND 
// 030   ----------------------------------------
 BYTE   W01
 BYTE   N68  Dn4
 BYTE   W72
 BYTE   N32  Ds4
 BYTE   W23
// 031   ----------------------------------------
 BYTE   W13
 BYTE   N12  Dn4
 BYTE   W12
 BYTE   Ds4
 BYTE   W12
 BYTE   Fn4
 BYTE   W12
 BYTE   N32  As3
 BYTE   W36
 BYTE   Dn4
 BYTE   W11
// 032   ----------------------------------------
 BYTE   W24
 BYTE   W01
 BYTE   N68  Cn4
 BYTE   W68
 BYTE   W03
// 033   ----------------------------------------
 BYTE   W01
 BYTE   Fn3
 BYTE   W72
 BYTE   N12  Cn3
 BYTE   W12
 BYTE   Gn3
 BYTE   W11
// 034   ----------------------------------------
 BYTE   PATT
  POIN2 Label_3_0129FDB0
// 035   ----------------------------------------
 BYTE   PATT
  POIN2 Label_3_0129FDC1
// 036   ----------------------------------------
 BYTE   W01
 BYTE   N32  Fn4  v127
 BYTE   W36
 BYTE   Cn4
 BYTE   W36
 BYTE   N44  Gn4
 BYTE   W23
// 037   ----------------------------------------
 BYTE   W24
 BYTE   W01
 BYTE   N11  Fn4
 BYTE   W12
 BYTE   Gn4
 BYTE   W12
 BYTE   N32  Fn4
 BYTE   W36
 BYTE   Dn4
 BYTE   W11
// 038   ----------------------------------------
 BYTE   W24
 BYTE   W01
 BYTE   N44  Ds4
 BYTE   W48
 BYTE   N11  Dn4
 BYTE   W12
 BYTE   Ds4
 BYTE   W11
// 039   ----------------------------------------
 BYTE   W01
 BYTE   N68  Fn4
 BYTE   W92
 BYTE   W03
// 040   ----------------------------------------
 BYTE   W96
// 041   ----------------------------------------
 BYTE   W96
// 042   ----------------------------------------
 BYTE   W96
// 043   ----------------------------------------
 BYTE   W96
// 044   ----------------------------------------
 BYTE   W96
// 045   ----------------------------------------
 BYTE   W72
 BYTE   W01
 BYTE   N12  An2
 BYTE   W12
 BYTE   Dn3
 BYTE   W11
// 046   ----------------------------------------
 BYTE   W01
 BYTE   Gn3
 BYTE   W12
 BYTE   Dn3
 BYTE   W12
 BYTE   Gn3
 BYTE   W12
 BYTE   Cn4
 BYTE   W12
 BYTE   Dn4
 BYTE   W12
 BYTE   An3
 BYTE   W12
 BYTE   En3
 BYTE   W12
 BYTE   Dn3
 BYTE   W11
// 047   ----------------------------------------
 BYTE   W01
 BYTE   Gn3
 BYTE   W12
 BYTE   Cn4
 BYTE   W12
 BYTE   Dn4
 BYTE   W12
 BYTE   An3
 BYTE   W12
 BYTE   Dn4
 BYTE   W12
 BYTE   Gn4
 BYTE   W12
 BYTE   Dn4
 BYTE   W12
 BYTE   An3
 BYTE   W11
// 048   ----------------------------------------
 BYTE   W01
 BYTE   An4
 BYTE   W12
 BYTE   En4
 BYTE   W12
 BYTE   Bn3
 BYTE   W12
 BYTE   Gn4
 BYTE   W12
 BYTE   Dn4
 BYTE   W12
 BYTE   An3
 BYTE   W12
 BYTE   Dn3
 BYTE   W12
 BYTE   Gn3
 BYTE   W11
// 049   ----------------------------------------
 BYTE   W01
 BYTE   Cn4
 BYTE   W12
 BYTE   Dn4
 BYTE   W12
 BYTE   An3
 BYTE   W12
 BYTE   En3
 BYTE   W12
 BYTE   Bn2
 BYTE   W12
 BYTE   En3
 BYTE   W12
 BYTE   An3
 BYTE   W12
 BYTE   Gn3
 BYTE   W11
// 050   ----------------------------------------
 BYTE   W01
 BYTE   Cn4
 BYTE   W12
 BYTE   Fn4
 BYTE   W12
 BYTE   Gn4
 BYTE   W12
 BYTE   Dn4
 BYTE   W12
 BYTE   An3
 BYTE   W12
 BYTE   Cn5
 BYTE   W12
 BYTE   Gn4
 BYTE   W12
 BYTE   Dn4
 BYTE   W11
// 051   ----------------------------------------
 BYTE   W01
 BYTE   An4
 BYTE   W12
 BYTE   En4
 BYTE   W12
 BYTE   Bn3
 BYTE   W12
 BYTE   An3
 BYTE   W12
 BYTE   En3
 BYTE   W12
 BYTE   Bn2
 BYTE   W12
 BYTE   N07  Dn4
 BYTE   W06
 BYTE   Gs3
 BYTE   W06
 BYTE   Gn3
 BYTE   W06
 BYTE   Gs3
 BYTE   W05
// 052   ----------------------------------------
 BYTE   W01
 BYTE   Dn4
 BYTE   W06
 BYTE   Gn4
 BYTE   W06
 BYTE   Cn4
 BYTE   W06
 BYTE   Fs3
 BYTE   W06
 BYTE   Fn3
 BYTE   W06
 BYTE   Fs3
 BYTE   W06
 BYTE   Cn4
 BYTE   W06
 BYTE   Fn4
 BYTE   W52
 BYTE   W01
// 053   ----------------------------------------
 BYTE   W96
// 054   ----------------------------------------
 BYTE   W96
// 055   ----------------------------------------
 BYTE   W96
// 056   ----------------------------------------
 BYTE   W96
// 057   ----------------------------------------
 BYTE   W96
// 058   ----------------------------------------
 BYTE   W96
// 059   ----------------------------------------
 BYTE   W96
// 060   ----------------------------------------
 BYTE   W96
// 061   ----------------------------------------
 BYTE   W96
// 062   ----------------------------------------
 BYTE   W96
// 063   ----------------------------------------
 BYTE   W96
// 064   ----------------------------------------
 BYTE   W44
 BYTE   W03
 BYTE   GoTo
  POIN2 Label_3_0129FD1D
 BYTE   FINE

//**************** Track 5 (Midi-Chn.4) ****************//

song58_005:
// 000   ----------------------------------------
 BYTE   KEYSH   song58_key+0
Label_4_0129FEBC:
 BYTE   VOICE   81
 BYTE   VOL   37*song58_mvl/mxv
 BYTE   PAN   c_v+0
 BYTE   BEND   c_v+0
 BYTE   W96
// 001   ----------------------------------------
 BYTE   W96
// 002   ----------------------------------------
 BYTE   W96
// 003   ----------------------------------------
 BYTE   W01
 BYTE   Fn2
 BYTE   N11  Cn3  v127
 BYTE   W02
 BYTE   BEND   c_v-5
 BYTE   W01
 BYTE   Cs3
 BYTE   W02
 BYTE   Dn3
 BYTE   W01
 BYTE   Ds3
 BYTE   W02
 BYTE   Ds3
 BYTE   W01
 BYTE   En3
 BYTE   W03
 BYTE   N11  Gn3
 BYTE   W12
 BYTE   Cn4
 BYTE   W12
 BYTE   As3
 BYTE   W12
 BYTE   Ds4
 BYTE   W12
 BYTE   Dn4
 BYTE   W12
 BYTE   BEND   c_v-11
 BYTE   N32  Cn4
 BYTE   W02
 BYTE   BEND   c_v-8
 BYTE   W01
 BYTE   An2
 BYTE   W02
 BYTE   Bn2
 BYTE   W01
 BYTE   Cn3
 BYTE   W02
 BYTE   Cn3
 BYTE   W01
 BYTE   Cs3
 BYTE   W02
 BYTE   Dn3
 BYTE   W01
 BYTE   Dn3
 BYTE   W02
 BYTE   Dn3
 BYTE   W01
 BYTE   Ds3
 BYTE   W02
 BYTE   Ds3
 BYTE   W01
 BYTE   Ds3
 BYTE   W03
 BYTE   Ds3
 BYTE   W02
// 004   ----------------------------------------
 BYTE   Ds3
 BYTE   W04
 BYTE   En3
 BYTE   W09
 BYTE   N32  Gn3
 BYTE   W36
 BYTE   N44  An3
 BYTE   W44
 BYTE   W03
// 005   ----------------------------------------
 BYTE   W01
 BYTE   N11  As3
 BYTE   W12
 BYTE   Cn4
 BYTE   W12
 BYTE   BEND   c_v-11
 BYTE   N68  Dn4
 BYTE   W02
 BYTE   BEND   c_v-9
 BYTE   W01
 BYTE   Gs2
 BYTE   W02
 BYTE   Gs2
 BYTE   W01
 BYTE   An2
 BYTE   W02
 BYTE   As2
 BYTE   W01
 BYTE   Bn2
 BYTE   W02
 BYTE   Bn2
 BYTE   W01
 BYTE   Cn3
 BYTE   W02
 BYTE   Cn3
 BYTE   W01
 BYTE   Cn3
 BYTE   W02
 BYTE   Cs3
 BYTE   W01
 BYTE   Cs3
 BYTE   W02
 BYTE   Cs3
 BYTE   W01
 BYTE   Dn3
 BYTE   W02
 BYTE   Dn3
 BYTE   W01
 BYTE   Dn3
 BYTE   W02
 BYTE   Dn3
 BYTE   W01
 BYTE   Dn3
 BYTE   W02
 BYTE   Ds3
 BYTE   W03
 BYTE   Ds3
 BYTE   W01
 BYTE   Ds3
 BYTE   W03
 BYTE   Ds3
 BYTE   W05
 BYTE   Ds3
 BYTE   W04
 BYTE   Ds3
 BYTE   W09
 BYTE   En3
 BYTE   W17
// 006   ----------------------------------------
 BYTE   W01
 BYTE   Fn2
 BYTE   N32  Ds4
 BYTE   W02
 BYTE   BEND   c_v-8
 BYTE   W01
 BYTE   An2
 BYTE   W02
 BYTE   Bn2
 BYTE   W01
 BYTE   Cn3
 BYTE   W02
 BYTE   Cn3
 BYTE   W01
 BYTE   Cs3
 BYTE   W02
 BYTE   Dn3
 BYTE   W01
 BYTE   Dn3
 BYTE   W02
 BYTE   Dn3
 BYTE   W01
 BYTE   Ds3
 BYTE   W02
 BYTE   Ds3
 BYTE   W01
 BYTE   Ds3
 BYTE   W03
 BYTE   Ds3
 BYTE   W02
 BYTE   Ds3
 BYTE   W04
 BYTE   En3
 BYTE   W09
 BYTE   N11  Dn4
 BYTE   W12
 BYTE   Ds4
 BYTE   W12
 BYTE   Fn4
 BYTE   W12
 BYTE   N32  As3
 BYTE   W23
// 007   ----------------------------------------
 BYTE   W13
 BYTE   Dn4
 BYTE   W36
 BYTE   BEND   c_v+0
 BYTE   N68  Cn4
 BYTE   W18
 BYTE   BEND   c_v-1
 BYTE   W09
 BYTE   Ds3
 BYTE   W06
 BYTE   Ds3
 BYTE   W03
 BYTE   Ds3
 BYTE   W03
 BYTE   Ds3
 BYTE   W03
 BYTE   Ds3
 BYTE   W02
 BYTE   Dn3
 BYTE   W01
 BYTE   Dn3
 BYTE   W02
// 008   ----------------------------------------
 BYTE   Dn3
 BYTE   W01
 BYTE   Dn3
 BYTE   W02
 BYTE   Dn3
 BYTE   W01
 BYTE   Dn3
 BYTE   W02
 BYTE   Cs3
 BYTE   W01
 BYTE   Cs3
 BYTE   W02
 BYTE   Cs3
 BYTE   W01
 BYTE   Cn3
 BYTE   W02
 BYTE   Cn3
 BYTE   W01
 BYTE   Cn3
 BYTE   W02
 BYTE   Bn2
 BYTE   W01
 BYTE   As2
 BYTE   W02
 BYTE   As2
 BYTE   W01
 BYTE   An2
 BYTE   W02
 BYTE   Gs2
 BYTE   W01
 BYTE   Gn2
 BYTE   W02
 BYTE   Fs2
 BYTE   W01
 BYTE   En3
 BYTE   N68  Fn3
 BYTE   W68
 BYTE   W03
// 009   ----------------------------------------
 BYTE   W01
 BYTE   BEND   c_v-11
 BYTE   N11  Cn3
 BYTE   W02
 BYTE   BEND   c_v-5
 BYTE   W01
 BYTE   Cs3
 BYTE   W02
 BYTE   Dn3
 BYTE   W01
 BYTE   Ds3
 BYTE   W02
 BYTE   Ds3
 BYTE   W01
 BYTE   En3
 BYTE   W03
 BYTE   N11  Gn3
 BYTE   W12
 BYTE   Cn4
 BYTE   W12
 BYTE   As3
 BYTE   W12
 BYTE   Ds4
 BYTE   W12
 BYTE   Dn4
 BYTE   W12
 BYTE   BEND   c_v+0
 BYTE   N32  Cn4
 BYTE   W09
 BYTE   BEND   c_v-1
 BYTE   W05
 BYTE   Ds3
 BYTE   W03
 BYTE   Ds3
 BYTE   W01
 BYTE   Ds3
 BYTE   W02
 BYTE   Ds3
 BYTE   W01
 BYTE   Ds3
 BYTE   W02
// 010   ----------------------------------------
 BYTE   Dn3
 BYTE   W01
 BYTE   Dn3
 BYTE   W02
 BYTE   Cs3
 BYTE   W01
 BYTE   Cs3
 BYTE   W02
 BYTE   Cn3
 BYTE   W01
 BYTE   Bn2
 BYTE   W02
 BYTE   As2
 BYTE   W01
 BYTE   An2
 BYTE   W02
 BYTE   Gn2
 BYTE   W01
 BYTE   Fn2
 BYTE   N32  Gn3
 BYTE   W09
 BYTE   BEND   c_v-1
 BYTE   W05
 BYTE   Ds3
 BYTE   W03
 BYTE   Ds3
 BYTE   W01
 BYTE   Ds3
 BYTE   W02
 BYTE   Ds3
 BYTE   W01
 BYTE   Ds3
 BYTE   W02
 BYTE   Dn3
 BYTE   W01
 BYTE   Dn3
 BYTE   W02
 BYTE   Cs3
 BYTE   W01
 BYTE   Cs3
 BYTE   W02
 BYTE   Cn3
 BYTE   W01
 BYTE   Bn2
 BYTE   W02
 BYTE   As2
 BYTE   W01
 BYTE   An2
 BYTE   W02
 BYTE   Gn2
 BYTE   W01
 BYTE   Fn2
 BYTE   N44  An3
 BYTE   W02
 BYTE   BEND   c_v-9
 BYTE   W01
 BYTE   Gs2
 BYTE   W02
 BYTE   As2
 BYTE   W01
 BYTE   Bn2
 BYTE   W02
 BYTE   Bn2
 BYTE   W01
 BYTE   Cn3
 BYTE   W02
 BYTE   Cs3
 BYTE   W01
 BYTE   Cs3
 BYTE   W02
 BYTE   Cs3
 BYTE   W01
 BYTE   Dn3
 BYTE   W02
 BYTE   Dn3
 BYTE   W01
 BYTE   Dn3
 BYTE   W02
 BYTE   Ds3
 BYTE   W01
 BYTE   Ds3
 BYTE   W02
 BYTE   Ds3
 BYTE   W01
 BYTE   Ds3
 BYTE   W03
 BYTE   Ds3
 BYTE   W03
 BYTE   Ds3
 BYTE   W06
 BYTE   En3
 BYTE   W11
// 011   ----------------------------------------
 BYTE   W01
 BYTE   N11  As3
 BYTE   W12
 BYTE   Cn4
 BYTE   W12
 BYTE   N32  Fn4
 BYTE   W36
 BYTE   Cn4
 BYTE   W04
 BYTE   BEND   c_v+10
 BYTE   W04
 BYTE   En3
 BYTE   W24
 BYTE   W03
// 012   ----------------------------------------
 BYTE   W01
 BYTE   Fn2
 BYTE   N44  Gn4
 BYTE   W02
 BYTE   BEND   c_v-9
 BYTE   W01
 BYTE   Gs2
 BYTE   W02
 BYTE   As2
 BYTE   W01
 BYTE   Bn2
 BYTE   W02
 BYTE   Bn2
 BYTE   W01
 BYTE   Cn3
 BYTE   W02
 BYTE   Cs3
 BYTE   W01
 BYTE   Cs3
 BYTE   W02
 BYTE   Cs3
 BYTE   W01
 BYTE   Dn3
 BYTE   W02
 BYTE   Dn3
 BYTE   W01
 BYTE   Dn3
 BYTE   W02
 BYTE   Ds3
 BYTE   W01
 BYTE   Ds3
 BYTE   W02
 BYTE   Ds3
 BYTE   W01
 BYTE   Ds3
 BYTE   W03
 BYTE   Ds3
 BYTE   W03
 BYTE   Ds3
 BYTE   W06
 BYTE   En3
 BYTE   W12
 BYTE   N11  Fn4
 BYTE   W12
 BYTE   Gn4
 BYTE   W12
 BYTE   N32  Fn4
 BYTE   W23
// 013   ----------------------------------------
 BYTE   W13
 BYTE   BEND   c_v+0
 BYTE   N32  Dn4
 BYTE   W09
 BYTE   BEND   c_v-1
 BYTE   W05
 BYTE   Ds3
 BYTE   W03
 BYTE   Ds3
 BYTE   W01
 BYTE   Ds3
 BYTE   W02
 BYTE   Ds3
 BYTE   W01
 BYTE   Ds3
 BYTE   W02
 BYTE   Dn3
 BYTE   W01
 BYTE   Dn3
 BYTE   W02
 BYTE   Cs3
 BYTE   W01
 BYTE   Cs3
 BYTE   W02
 BYTE   Cn3
 BYTE   W01
 BYTE   Bn2
 BYTE   W02
 BYTE   As2
 BYTE   W01
 BYTE   An2
 BYTE   W02
 BYTE   Gn2
 BYTE   W01
 BYTE   Fn2
 BYTE   N44  Ds4
 BYTE   W02
 BYTE   BEND   c_v-9
 BYTE   W01
 BYTE   Gs2
 BYTE   W02
 BYTE   As2
 BYTE   W01
 BYTE   Bn2
 BYTE   W02
 BYTE   Bn2
 BYTE   W01
 BYTE   Cn3
 BYTE   W02
 BYTE   Cs3
 BYTE   W01
 BYTE   Cs3
 BYTE   W02
 BYTE   Cs3
 BYTE   W01
 BYTE   Dn3
 BYTE   W02
 BYTE   Dn3
 BYTE   W01
 BYTE   Dn3
 BYTE   W02
 BYTE   Ds3
 BYTE   W01
 BYTE   Ds3
 BYTE   W02
 BYTE   Ds3
 BYTE   W01
 BYTE   Ds3
 BYTE   W03
 BYTE   Ds3
 BYTE   W03
 BYTE   Ds3
 BYTE   W06
 BYTE   En3
 BYTE   W11
// 014   ----------------------------------------
 BYTE   W01
 BYTE   N11  Dn4
 BYTE   W12
 BYTE   Ds4
 BYTE   W12
 BYTE   N68  Fn4
 BYTE   W68
 BYTE   W03
// 015   ----------------------------------------
 BYTE   W96
// 016   ----------------------------------------
 BYTE   W96
// 017   ----------------------------------------
 BYTE   W96
// 018   ----------------------------------------
 BYTE   W96
// 019   ----------------------------------------
 BYTE   W96
// 020   ----------------------------------------
 BYTE   W96
// 021   ----------------------------------------
 BYTE   W01
 BYTE   N04  Fs3  v108
 BYTE   W06
 BYTE   Gs3
 BYTE   W06
 BYTE   An3
 BYTE   W06
 BYTE   Bn3
 BYTE   W06
 BYTE   An3
 BYTE   W06
 BYTE   Bn3
 BYTE   W06
 BYTE   Gs3
 BYTE   W06
 BYTE   An3
 BYTE   W06
 BYTE   Bn3
 BYTE   W06
 BYTE   En4
 BYTE   W06
 BYTE   Bn3
 BYTE   W06
 BYTE   Gs3
 BYTE   W06
 BYTE   Cs4
 BYTE   W06
 BYTE   Bn3
 BYTE   W06
 BYTE   Cs4
 BYTE   W06
 BYTE   Dn4
 BYTE   W05
// 022   ----------------------------------------
 BYTE   W01
 BYTE   Cs4
 BYTE   W06
 BYTE   Bn3
 BYTE   W06
 BYTE   Dn4
 BYTE   W06
 BYTE   Bn3
 BYTE   W06
 BYTE   Fs3
 BYTE   W06
 BYTE   Cs4
 BYTE   W06
 BYTE   Dn4
 BYTE   W06
 BYTE   Fs3
 BYTE   W06
 BYTE   En4
 BYTE   W06
 BYTE   Dn4
 BYTE   W06
 BYTE   Cs4
 BYTE   W06
 BYTE   Bn3
 BYTE   W06
 BYTE   Cs4
 BYTE   W06
 BYTE   Dn4
 BYTE   W06
 BYTE   En4
 BYTE   W06
 BYTE   An3
 BYTE   W05
// 023   ----------------------------------------
 BYTE   W01
 BYTE   Fs3
 BYTE   W06
 BYTE   Dn4
 BYTE   W06
 BYTE   An3
 BYTE   W06
 BYTE   Fs3
 BYTE   W06
 BYTE   En3
 BYTE   W06
 BYTE   An3
 BYTE   W06
 BYTE   Bn3
 BYTE   W06
 BYTE   En4
 BYTE   W06
 BYTE   An4
 BYTE   W06
 BYTE   Bn4
 BYTE   W06
 BYTE   En5
 BYTE   W06
 BYTE   Bn4
 BYTE   W06
 BYTE   Gs4
 BYTE   W06
 BYTE   En4
 BYTE   W06
 BYTE   Bn3
 BYTE   W06
 BYTE   Gs3
 BYTE   W05
// 024   ----------------------------------------
 BYTE   W01
 BYTE   Fs3
 BYTE   W06
 BYTE   Gs3
 BYTE   W06
 BYTE   An3
 BYTE   W06
 BYTE   Gs3
 BYTE   W06
 BYTE   An3
 BYTE   W06
 BYTE   Bn3
 BYTE   W06
 BYTE   Gs3
 BYTE   W06
 BYTE   En3
 BYTE   W06
 BYTE   Gs3
 BYTE   W06
 BYTE   En4
 BYTE   W06
 BYTE   Bn3
 BYTE   W06
 BYTE   Gs3
 BYTE   W06
 BYTE   An3
 BYTE   W06
 BYTE   Bn3
 BYTE   W06
 BYTE   Cs4
 BYTE   W06
 BYTE   Bn3
 BYTE   W05
// 025   ----------------------------------------
 BYTE   W01
 BYTE   Cs4
 BYTE   W06
 BYTE   Dn4
 BYTE   W06
 BYTE   Fs4
 BYTE   W06
 BYTE   Dn4
 BYTE   W06
 BYTE   Bn3
 BYTE   W06
 BYTE   Dn4
 BYTE   W06
 BYTE   Bn3
 BYTE   W06
 BYTE   Fs3
 BYTE   W06
 BYTE   N11  An3
 BYTE   W12
 BYTE   Cs4
 BYTE   W12
 BYTE   En4
 BYTE   W12
 BYTE   BEND   c_v-11
 BYTE   N11
 BYTE   W02
 BYTE   BEND   c_v-5
 BYTE   W01
 BYTE   Cs3
 BYTE   W02
 BYTE   Dn3
 BYTE   W01
 BYTE   Ds3
 BYTE   W02
 BYTE   Ds3
 BYTE   W01
 BYTE   En3
 BYTE   W02
// 026   ----------------------------------------
 BYTE   W01
 BYTE   N11  Dn4
 BYTE   W12
 BYTE   An4
 BYTE   W12
 BYTE   BEND   c_v-11
 BYTE   N32  Bn4
 BYTE   W02
 BYTE   BEND   c_v-8
 BYTE   W01
 BYTE   An2
 BYTE   W02
 BYTE   Bn2
 BYTE   W01
 BYTE   Cn3
 BYTE   W02
 BYTE   Cn3
 BYTE   W01
 BYTE   Cs3
 BYTE   W02
 BYTE   Dn3
 BYTE   W01
 BYTE   Dn3
 BYTE   W02
 BYTE   Dn3
 BYTE   W01
 BYTE   Ds3
 BYTE   W02
 BYTE   Ds3
 BYTE   W01
 BYTE   Ds3
 BYTE   W03
 BYTE   Ds3
 BYTE   W02
 BYTE   Ds3
 BYTE   W04
 BYTE   En3
 BYTE   W09
 BYTE   N32  En4
 BYTE   W32
 BYTE   W03
// 027   ----------------------------------------
 BYTE   W01
 BYTE   BEND   c_v-11
 BYTE   N32  Bn3
 BYTE   W02
 BYTE   BEND   c_v-8
 BYTE   W01
 BYTE   An2
 BYTE   W02
 BYTE   Bn2
 BYTE   W01
 BYTE   Cn3
 BYTE   W02
 BYTE   Cn3
 BYTE   W01
 BYTE   Cs3
 BYTE   W02
 BYTE   Dn3
 BYTE   W01
 BYTE   Dn3
 BYTE   W02
 BYTE   Dn3
 BYTE   W01
 BYTE   Ds3
 BYTE   W02
 BYTE   Ds3
 BYTE   W01
 BYTE   Ds3
 BYTE   W03
 BYTE   Ds3
 BYTE   W02
 BYTE   Ds3
 BYTE   W04
 BYTE   En3
 BYTE   W09
 BYTE   En3
 BYTE   N32  En4
 BYTE   W09
 BYTE   BEND   c_v-1
 BYTE   W05
 BYTE   Ds3
 BYTE   W03
 BYTE   Ds3
 BYTE   W01
 BYTE   Ds3
 BYTE   W02
 BYTE   Ds3
 BYTE   W01
 BYTE   Ds3
 BYTE   W02
 BYTE   Dn3
 BYTE   W01
 BYTE   Dn3
 BYTE   W02
 BYTE   Cs3
 BYTE   W01
 BYTE   Cs3
 BYTE   W02
 BYTE   Cn3
 BYTE   W01
 BYTE   Bn2
 BYTE   W02
 BYTE   As2
 BYTE   W01
 BYTE   An2
 BYTE   W02
 BYTE   Gn2
 BYTE   W01
 BYTE   En3
 BYTE   N11  Cn3  v127
 BYTE   W02
 BYTE   BEND   c_v-5
 BYTE   W01
 BYTE   Cs3
 BYTE   W02
 BYTE   Dn3
 BYTE   W01
 BYTE   Ds3
 BYTE   W02
 BYTE   Ds3
 BYTE   W01
 BYTE   En3
 BYTE   W03
 BYTE   N11  Gn3
 BYTE   W11
// 028   ----------------------------------------
 BYTE   W01
 BYTE   Cn4
 BYTE   W12
 BYTE   As3
 BYTE   W12
 BYTE   Ds4
 BYTE   W12
 BYTE   Dn4
 BYTE   W12
 BYTE   BEND   c_v-11
 BYTE   N32  Cn4
 BYTE   W02
 BYTE   BEND   c_v-8
 BYTE   W01
 BYTE   An2
 BYTE   W02
 BYTE   Bn2
 BYTE   W01
 BYTE   Cn3
 BYTE   W02
 BYTE   Cn3
 BYTE   W01
 BYTE   Cs3
 BYTE   W02
 BYTE   Dn3
 BYTE   W01
 BYTE   Dn3
 BYTE   W02
 BYTE   Dn3
 BYTE   W01
 BYTE   Ds3
 BYTE   W02
 BYTE   Ds3
 BYTE   W01
 BYTE   Ds3
 BYTE   W03
 BYTE   Ds3
 BYTE   W02
 BYTE   Ds3
 BYTE   W04
 BYTE   En3
 BYTE   W09
 BYTE   N32  Gn3
 BYTE   W11
// 029   ----------------------------------------
 BYTE   W24
 BYTE   W01
 BYTE   N44  An3
 BYTE   W48
 BYTE   N11  As3
 BYTE   W12
 BYTE   Cn4
 BYTE   W11
// 030   ----------------------------------------
 BYTE   W01
 BYTE   BEND   c_v-11
 BYTE   N68  Dn4
 BYTE   W02
 BYTE   BEND   c_v-9
 BYTE   W01
 BYTE   Gs2
 BYTE   W02
 BYTE   Gs2
 BYTE   W01
 BYTE   An2
 BYTE   W02
 BYTE   As2
 BYTE   W01
 BYTE   Bn2
 BYTE   W02
 BYTE   Bn2
 BYTE   W01
 BYTE   Cn3
 BYTE   W02
 BYTE   Cn3
 BYTE   W01
 BYTE   Cn3
 BYTE   W02
 BYTE   Cs3
 BYTE   W01
 BYTE   Cs3
 BYTE   W02
 BYTE   Cs3
 BYTE   W01
 BYTE   Dn3
 BYTE   W02
 BYTE   Dn3
 BYTE   W01
 BYTE   Dn3
 BYTE   W02
 BYTE   Dn3
 BYTE   W01
 BYTE   Dn3
 BYTE   W02
 BYTE   Ds3
 BYTE   W03
 BYTE   Ds3
 BYTE   W01
 BYTE   Ds3
 BYTE   W03
 BYTE   Ds3
 BYTE   W05
 BYTE   Ds3
 BYTE   W04
 BYTE   Ds3
 BYTE   W09
 BYTE   En3
 BYTE   W18
 BYTE   Fn2
 BYTE   N32  Ds4
 BYTE   W02
 BYTE   BEND   c_v-8
 BYTE   W01
 BYTE   An2
 BYTE   W02
 BYTE   Bn2
 BYTE   W01
 BYTE   Cn3
 BYTE   W02
 BYTE   Cn3
 BYTE   W01
 BYTE   Cs3
 BYTE   W02
 BYTE   Dn3
 BYTE   W01
 BYTE   Dn3
 BYTE   W02
 BYTE   Dn3
 BYTE   W01
 BYTE   Ds3
 BYTE   W02
 BYTE   Ds3
 BYTE   W01
 BYTE   Ds3
 BYTE   W03
 BYTE   Ds3
 BYTE   W02
// 031   ----------------------------------------
 BYTE   Ds3
 BYTE   W04
 BYTE   En3
 BYTE   W09
 BYTE   N11  Dn4
 BYTE   W12
 BYTE   Ds4
 BYTE   W12
 BYTE   Fn4
 BYTE   W12
 BYTE   N32  As3
 BYTE   W36
 BYTE   Dn4
 BYTE   W11
// 032   ----------------------------------------
 BYTE   W24
 BYTE   W01
 BYTE   BEND   c_v+0
 BYTE   N68  Cn4
 BYTE   W18
 BYTE   BEND   c_v-1
 BYTE   W09
 BYTE   Ds3
 BYTE   W06
 BYTE   Ds3
 BYTE   W03
 BYTE   Ds3
 BYTE   W03
 BYTE   Ds3
 BYTE   W03
 BYTE   Ds3
 BYTE   W02
 BYTE   Dn3
 BYTE   W01
 BYTE   Dn3
 BYTE   W02
 BYTE   Dn3
 BYTE   W01
 BYTE   Dn3
 BYTE   W02
 BYTE   Dn3
 BYTE   W01
 BYTE   Dn3
 BYTE   W02
 BYTE   Cs3
 BYTE   W01
 BYTE   Cs3
 BYTE   W02
 BYTE   Cs3
 BYTE   W01
 BYTE   Cn3
 BYTE   W02
 BYTE   Cn3
 BYTE   W01
 BYTE   Cn3
 BYTE   W02
 BYTE   Bn2
 BYTE   W01
 BYTE   As2
 BYTE   W02
 BYTE   As2
 BYTE   W01
 BYTE   An2
 BYTE   W02
 BYTE   Gs2
 BYTE   W01
 BYTE   Gn2
 BYTE   W02
// 033   ----------------------------------------
 BYTE   Fs2
 BYTE   W01
 BYTE   En3
 BYTE   N68  Fn3
 BYTE   W72
 BYTE   BEND   c_v-11
 BYTE   N11  Cn3
 BYTE   W02
 BYTE   BEND   c_v-5
 BYTE   W01
 BYTE   Cs3
 BYTE   W02
 BYTE   Dn3
 BYTE   W01
 BYTE   Ds3
 BYTE   W02
 BYTE   Ds3
 BYTE   W01
 BYTE   En3
 BYTE   W03
 BYTE   N11  Gn3
 BYTE   W11
// 034   ----------------------------------------
 BYTE   W01
 BYTE   Cn4
 BYTE   W12
 BYTE   As3
 BYTE   W12
 BYTE   Ds4
 BYTE   W12
 BYTE   Dn4
 BYTE   W12
 BYTE   BEND   c_v+0
 BYTE   N32  Cn4
 BYTE   W09
 BYTE   BEND   c_v-1
 BYTE   W05
 BYTE   Ds3
 BYTE   W03
 BYTE   Ds3
 BYTE   W01
 BYTE   Ds3
 BYTE   W02
 BYTE   Ds3
 BYTE   W01
 BYTE   Ds3
 BYTE   W02
 BYTE   Dn3
 BYTE   W01
 BYTE   Dn3
 BYTE   W02
 BYTE   Cs3
 BYTE   W01
 BYTE   Cs3
 BYTE   W02
 BYTE   Cn3
 BYTE   W01
 BYTE   Bn2
 BYTE   W02
 BYTE   As2
 BYTE   W01
 BYTE   An2
 BYTE   W02
 BYTE   Gn2
 BYTE   W01
 BYTE   Fn2
 BYTE   N32  Gn3
 BYTE   W09
 BYTE   BEND   c_v-1
 BYTE   W02
// 035   ----------------------------------------
 BYTE   W03
 BYTE   Ds3
 BYTE   W03
 BYTE   Ds3
 BYTE   W01
 BYTE   Ds3
 BYTE   W02
 BYTE   Ds3
 BYTE   W01
 BYTE   Ds3
 BYTE   W02
 BYTE   Dn3
 BYTE   W01
 BYTE   Dn3
 BYTE   W02
 BYTE   Cs3
 BYTE   W01
 BYTE   Cs3
 BYTE   W02
 BYTE   Cn3
 BYTE   W01
 BYTE   Bn2
 BYTE   W02
 BYTE   As2
 BYTE   W01
 BYTE   An2
 BYTE   W02
 BYTE   Gn2
 BYTE   W01
 BYTE   Fn2
 BYTE   N44  An3
 BYTE   W02
 BYTE   BEND   c_v-9
 BYTE   W01
 BYTE   Gs2
 BYTE   W02
 BYTE   As2
 BYTE   W01
 BYTE   Bn2
 BYTE   W02
 BYTE   Bn2
 BYTE   W01
 BYTE   Cn3
 BYTE   W02
 BYTE   Cs3
 BYTE   W01
 BYTE   Cs3
 BYTE   W02
 BYTE   Cs3
 BYTE   W01
 BYTE   Dn3
 BYTE   W02
 BYTE   Dn3
 BYTE   W01
 BYTE   Dn3
 BYTE   W02
 BYTE   Ds3
 BYTE   W01
 BYTE   Ds3
 BYTE   W02
 BYTE   Ds3
 BYTE   W01
 BYTE   Ds3
 BYTE   W03
 BYTE   Ds3
 BYTE   W03
 BYTE   Ds3
 BYTE   W06
 BYTE   En3
 BYTE   W12
 BYTE   N11  As3
 BYTE   W12
 BYTE   Cn4
 BYTE   W11
// 036   ----------------------------------------
 BYTE   W01
 BYTE   N32  Fn4
 BYTE   W36
 BYTE   Cn4
 BYTE   W04
 BYTE   BEND   c_v+10
 BYTE   W04
 BYTE   En3
 BYTE   W28
 BYTE   Fn2
 BYTE   N44  Gn4
 BYTE   W02
 BYTE   BEND   c_v-9
 BYTE   W01
 BYTE   Gs2
 BYTE   W02
 BYTE   As2
 BYTE   W01
 BYTE   Bn2
 BYTE   W02
 BYTE   Bn2
 BYTE   W01
 BYTE   Cn3
 BYTE   W02
 BYTE   Cs3
 BYTE   W01
 BYTE   Cs3
 BYTE   W02
 BYTE   Cs3
 BYTE   W01
 BYTE   Dn3
 BYTE   W02
 BYTE   Dn3
 BYTE   W01
 BYTE   Dn3
 BYTE   W02
 BYTE   Ds3
 BYTE   W01
 BYTE   Ds3
 BYTE   W02
// 037   ----------------------------------------
 BYTE   Ds3
 BYTE   W01
 BYTE   Ds3
 BYTE   W03
 BYTE   Ds3
 BYTE   W03
 BYTE   Ds3
 BYTE   W06
 BYTE   En3
 BYTE   W12
 BYTE   N11  Fn4
 BYTE   W12
 BYTE   Gn4
 BYTE   W12
 BYTE   N32  Fn4
 BYTE   W36
 BYTE   BEND   c_v+0
 BYTE   N32  Dn4
 BYTE   W09
 BYTE   BEND   c_v-1
 BYTE   W02
// 038   ----------------------------------------
 BYTE   W03
 BYTE   Ds3
 BYTE   W03
 BYTE   Ds3
 BYTE   W01
 BYTE   Ds3
 BYTE   W02
 BYTE   Ds3
 BYTE   W01
 BYTE   Ds3
 BYTE   W02
 BYTE   Dn3
 BYTE   W01
 BYTE   Dn3
 BYTE   W02
 BYTE   Cs3
 BYTE   W01
 BYTE   Cs3
 BYTE   W02
 BYTE   Cn3
 BYTE   W01
 BYTE   Bn2
 BYTE   W02
 BYTE   As2
 BYTE   W01
 BYTE   An2
 BYTE   W02
 BYTE   Gn2
 BYTE   W01
 BYTE   Fn2
 BYTE   N44  Ds4
 BYTE   W02
 BYTE   BEND   c_v-9
 BYTE   W01
 BYTE   Gs2
 BYTE   W02
 BYTE   As2
 BYTE   W01
 BYTE   Bn2
 BYTE   W02
 BYTE   Bn2
 BYTE   W01
 BYTE   Cn3
 BYTE   W02
 BYTE   Cs3
 BYTE   W01
 BYTE   Cs3
 BYTE   W02
 BYTE   Cs3
 BYTE   W01
 BYTE   Dn3
 BYTE   W02
 BYTE   Dn3
 BYTE   W01
 BYTE   Dn3
 BYTE   W02
 BYTE   Ds3
 BYTE   W01
 BYTE   Ds3
 BYTE   W02
 BYTE   Ds3
 BYTE   W01
 BYTE   Ds3
 BYTE   W03
 BYTE   Ds3
 BYTE   W03
 BYTE   Ds3
 BYTE   W06
 BYTE   En3
 BYTE   W12
 BYTE   N11  Dn4
 BYTE   W12
 BYTE   Ds4
 BYTE   W11
// 039   ----------------------------------------
 BYTE   W01
 BYTE   N68  Fn4
 BYTE   W92
 BYTE   W03
// 040   ----------------------------------------
 BYTE   W96
// 041   ----------------------------------------
 BYTE   W96
// 042   ----------------------------------------
 BYTE   W96
// 043   ----------------------------------------
 BYTE   W96
// 044   ----------------------------------------
 BYTE   W96
// 045   ----------------------------------------
 BYTE   W96
// 046   ----------------------------------------
 BYTE   W96
// 047   ----------------------------------------
 BYTE   W96
// 048   ----------------------------------------
 BYTE   W96
// 049   ----------------------------------------
 BYTE   W96
// 050   ----------------------------------------
 BYTE   W96
// 051   ----------------------------------------
 BYTE   W96
// 052   ----------------------------------------
 BYTE   W96
// 053   ----------------------------------------
 BYTE   W96
// 054   ----------------------------------------
 BYTE   W96
// 055   ----------------------------------------
 BYTE   W96
// 056   ----------------------------------------
 BYTE   W96
// 057   ----------------------------------------
 BYTE   W96
// 058   ----------------------------------------
 BYTE   W96
// 059   ----------------------------------------
 BYTE   W96
// 060   ----------------------------------------
 BYTE   W96
// 061   ----------------------------------------
 BYTE   W96
// 062   ----------------------------------------
 BYTE   W96
// 063   ----------------------------------------
 BYTE   W96
// 064   ----------------------------------------
 BYTE   W44
 BYTE   W03
 BYTE   GoTo
  POIN2 Label_4_0129FEBC
 BYTE   FINE

//**************** Track 6 (Midi-Chn.5) ****************//

song58_006:
// 000   ----------------------------------------
 BYTE   KEYSH   song58_key+0
Label_5_012A045B:
 BYTE   VOICE   46
 BYTE   VOL   33*song58_mvl/mxv
 BYTE   PAN   c_v+0
 BYTE   BEND   c_v+0
 BYTE   W96
// 001   ----------------------------------------
 BYTE   W96
// 002   ----------------------------------------
 BYTE   W96
// 003   ----------------------------------------
 BYTE   W96
// 004   ----------------------------------------
 BYTE   W96
// 005   ----------------------------------------
 BYTE   W96
// 006   ----------------------------------------
 BYTE   W96
// 007   ----------------------------------------
 BYTE   W96
// 008   ----------------------------------------
 BYTE   W96
// 009   ----------------------------------------
 BYTE   W96
// 010   ----------------------------------------
 BYTE   W96
// 011   ----------------------------------------
 BYTE   W96
// 012   ----------------------------------------
 BYTE   W96
// 013   ----------------------------------------
 BYTE   W96
// 014   ----------------------------------------
 BYTE   W96
// 015   ----------------------------------------
 BYTE   W96
// 016   ----------------------------------------
 BYTE   W96
// 017   ----------------------------------------
 BYTE   W96
// 018   ----------------------------------------
 BYTE   W96
// 019   ----------------------------------------
 BYTE   W96
// 020   ----------------------------------------
 BYTE   W96
// 021   ----------------------------------------
 BYTE   W01
 BYTE   N04  Fs3  v127
 BYTE   W06
 BYTE   Gs3
 BYTE   W06
 BYTE   An3
 BYTE   W06
 BYTE   Bn3
 BYTE   W06
 BYTE   An3
 BYTE   W06
 BYTE   Bn3
 BYTE   W06
 BYTE   Gs3
 BYTE   W06
 BYTE   An3
 BYTE   W06
 BYTE   Bn3
 BYTE   W06
 BYTE   En4
 BYTE   W06
 BYTE   Bn3
 BYTE   W06
 BYTE   Gs3
 BYTE   W06
 BYTE   Cs4
 BYTE   W06
 BYTE   Bn3
 BYTE   W06
 BYTE   Cs4
 BYTE   W06
 BYTE   Dn4
 BYTE   W05
// 022   ----------------------------------------
 BYTE   W01
 BYTE   Cs4
 BYTE   W06
 BYTE   Bn3
 BYTE   W06
 BYTE   Dn4
 BYTE   W06
 BYTE   Bn3
 BYTE   W06
 BYTE   Fs3
 BYTE   W06
 BYTE   Cs4
 BYTE   W06
 BYTE   Dn4
 BYTE   W06
 BYTE   Fs3
 BYTE   W06
 BYTE   En4
 BYTE   W06
 BYTE   Dn4
 BYTE   W06
 BYTE   Cs4
 BYTE   W06
 BYTE   Bn3
 BYTE   W06
 BYTE   Cs4
 BYTE   W06
 BYTE   Dn4
 BYTE   W06
 BYTE   En4
 BYTE   W06
 BYTE   An3
 BYTE   W05
// 023   ----------------------------------------
 BYTE   W01
 BYTE   Fs3
 BYTE   W06
 BYTE   Dn4
 BYTE   W06
 BYTE   An3
 BYTE   W06
 BYTE   Fs3
 BYTE   W06
 BYTE   En3
 BYTE   W06
 BYTE   An3
 BYTE   W06
 BYTE   Bn3
 BYTE   W06
 BYTE   En4
 BYTE   W06
 BYTE   An4
 BYTE   W06
 BYTE   Bn4
 BYTE   W06
 BYTE   En5
 BYTE   W06
 BYTE   Bn4
 BYTE   W06
 BYTE   Gs4
 BYTE   W06
 BYTE   En4
 BYTE   W06
 BYTE   Bn3
 BYTE   W06
 BYTE   Gs3
 BYTE   W05
// 024   ----------------------------------------
 BYTE   W01
 BYTE   Fs3
 BYTE   W06
 BYTE   Gs3
 BYTE   W06
 BYTE   An3
 BYTE   W06
 BYTE   Gs3
 BYTE   W06
 BYTE   An3
 BYTE   W06
 BYTE   Bn3
 BYTE   W06
 BYTE   Gs3
 BYTE   W06
 BYTE   En3
 BYTE   W06
 BYTE   Gs3
 BYTE   W06
 BYTE   En4
 BYTE   W06
 BYTE   Bn3
 BYTE   W06
 BYTE   Gs3
 BYTE   W06
 BYTE   An3
 BYTE   W06
 BYTE   Bn3
 BYTE   W06
 BYTE   Cs4
 BYTE   W06
 BYTE   Bn3
 BYTE   W05
// 025   ----------------------------------------
 BYTE   W01
 BYTE   Cs4
 BYTE   W06
 BYTE   Dn4
 BYTE   W06
 BYTE   Fs4
 BYTE   W06
 BYTE   Dn4
 BYTE   W06
 BYTE   Bn3
 BYTE   W06
 BYTE   Dn4
 BYTE   W06
 BYTE   Bn3
 BYTE   W06
 BYTE   Fs3
 BYTE   W06
 BYTE   N11  An3
 BYTE   W12
 BYTE   Cs4
 BYTE   W12
 BYTE   En4
 BYTE   W12
 BYTE   N11
 BYTE   W11
// 026   ----------------------------------------
 BYTE   W01
 BYTE   Dn4
 BYTE   W12
 BYTE   An4
 BYTE   W12
 BYTE   N32  Bn4
 BYTE   W36
 BYTE   En4
 BYTE   W32
 BYTE   W03
// 027   ----------------------------------------
 BYTE   W01
 BYTE   Bn3
 BYTE   W36
 BYTE   En4
 BYTE   W56
 BYTE   W03
// 028   ----------------------------------------
 BYTE   W96
// 029   ----------------------------------------
 BYTE   W96
// 030   ----------------------------------------
 BYTE   W96
// 031   ----------------------------------------
 BYTE   W96
// 032   ----------------------------------------
 BYTE   W96
// 033   ----------------------------------------
 BYTE   W96
// 034   ----------------------------------------
 BYTE   W96
// 035   ----------------------------------------
 BYTE   W96
// 036   ----------------------------------------
 BYTE   W96
// 037   ----------------------------------------
 BYTE   W96
// 038   ----------------------------------------
 BYTE   W96
// 039   ----------------------------------------
 BYTE   W72
 BYTE   W01
 BYTE   N04  Cn3
 BYTE   W06
 BYTE   Gn3
 BYTE   W06
 BYTE   Cn4
 BYTE   W06
 BYTE   Gn3
 BYTE   W05
// 040   ----------------------------------------
Label_5_012A053F:
 BYTE   W01
 BYTE   N04  Cn4  v127
 BYTE   W06
 BYTE   Cn3
 BYTE   W06
 BYTE   Cn4
 BYTE   W06
 BYTE   Gn3
 BYTE   W06
 BYTE   Cn4
 BYTE   W06
 BYTE   Cn3
 BYTE   W06
 BYTE   Gn3
 BYTE   W06
 BYTE   Cn4
 BYTE   W06
 BYTE   Cn3
 BYTE   W06
 BYTE   Fn3
 BYTE   W06
 BYTE   Gn3
 BYTE   W06
 BYTE   Cn4
 BYTE   W06
 BYTE   Fn4
 BYTE   W06
 BYTE   Gn4
 BYTE   W06
 BYTE   Cn5
 BYTE   W06
 BYTE   Gn4
 BYTE   W05
 BYTE   PEND 
// 041   ----------------------------------------
Label_5_012A0563:
 BYTE   W01
 BYTE   N04  Fn4  v127
 BYTE   W06
 BYTE   Cn4
 BYTE   W06
 BYTE   Gn3
 BYTE   W06
 BYTE   Cn3
 BYTE   W06
 BYTE   N04
 BYTE   W06
 BYTE   Gn3
 BYTE   W06
 BYTE   Cn4
 BYTE   W06
 BYTE   Gn3
 BYTE   W06
 BYTE   Cn4
 BYTE   W06
 BYTE   Cn3
 BYTE   W06
 BYTE   Cn4
 BYTE   W06
 BYTE   Gn3
 BYTE   W06
 BYTE   Cn4
 BYTE   W06
 BYTE   Cn3
 BYTE   W06
 BYTE   Gn3
 BYTE   W06
 BYTE   Cn4
 BYTE   W05
 BYTE   PEND 
// 042   ----------------------------------------
 BYTE   W01
 BYTE   Cn3
 BYTE   W06
 BYTE   Fn3
 BYTE   W06
 BYTE   Gn3
 BYTE   W06
 BYTE   Cn4
 BYTE   W06
 BYTE   Fn4
 BYTE   W06
 BYTE   Gn4
 BYTE   W06
 BYTE   Cn5
 BYTE   W06
 BYTE   Gn4
 BYTE   W06
 BYTE   Fn4
 BYTE   W06
 BYTE   Cn4
 BYTE   W06
 BYTE   Gn3
 BYTE   W06
 BYTE   Cn3
 BYTE   W06
 BYTE   N04
 BYTE   W06
 BYTE   Gn3
 BYTE   W06
 BYTE   Cn4
 BYTE   W06
 BYTE   Gn3
 BYTE   W05
// 043   ----------------------------------------
 BYTE   PATT
  POIN2 Label_5_012A053F
// 044   ----------------------------------------
 BYTE   PATT
  POIN2 Label_5_012A0563
// 045   ----------------------------------------
 BYTE   W01
 BYTE   N04  Cn3  v127
 BYTE   W06
 BYTE   Fn3
 BYTE   W06
 BYTE   Gn3
 BYTE   W06
 BYTE   Cn4
 BYTE   W06
 BYTE   Fn4
 BYTE   W06
 BYTE   Gn4
 BYTE   W06
 BYTE   Cn5
 BYTE   W06
 BYTE   Gn4
 BYTE   W06
 BYTE   Fn4
 BYTE   W06
 BYTE   Cn4
 BYTE   W06
 BYTE   Gn3
 BYTE   W06
 BYTE   Cn3
 BYTE   W06
 BYTE   Dn3
 BYTE   W06
 BYTE   An3
 BYTE   W06
 BYTE   Dn4
 BYTE   W06
 BYTE   An3
 BYTE   W05
// 046   ----------------------------------------
Label_5_012A05D5:
 BYTE   W01
 BYTE   N04  Dn4  v127
 BYTE   W06
 BYTE   Dn3
 BYTE   W06
 BYTE   Dn4
 BYTE   W06
 BYTE   An3
 BYTE   W06
 BYTE   Dn4
 BYTE   W06
 BYTE   Dn3
 BYTE   W06
 BYTE   An3
 BYTE   W06
 BYTE   Dn4
 BYTE   W06
 BYTE   Dn3
 BYTE   W06
 BYTE   Gn3
 BYTE   W06
 BYTE   An3
 BYTE   W06
 BYTE   Dn4
 BYTE   W06
 BYTE   Gn4
 BYTE   W06
 BYTE   An4
 BYTE   W06
 BYTE   Dn5
 BYTE   W06
 BYTE   An4
 BYTE   W05
 BYTE   PEND 
// 047   ----------------------------------------
Label_5_012A05F9:
 BYTE   W01
 BYTE   N04  Gn4  v127
 BYTE   W06
 BYTE   Dn4
 BYTE   W06
 BYTE   An3
 BYTE   W06
 BYTE   Dn3
 BYTE   W06
 BYTE   N04
 BYTE   W06
 BYTE   An3
 BYTE   W06
 BYTE   Dn4
 BYTE   W06
 BYTE   An3
 BYTE   W06
 BYTE   Dn4
 BYTE   W06
 BYTE   Dn3
 BYTE   W06
 BYTE   Dn4
 BYTE   W06
 BYTE   An3
 BYTE   W06
 BYTE   Dn4
 BYTE   W06
 BYTE   Dn3
 BYTE   W06
 BYTE   An3
 BYTE   W06
 BYTE   Dn4
 BYTE   W05
 BYTE   PEND 
// 048   ----------------------------------------
 BYTE   W01
 BYTE   Dn3
 BYTE   W06
 BYTE   Gn3
 BYTE   W06
 BYTE   An3
 BYTE   W06
 BYTE   Dn4
 BYTE   W06
 BYTE   Gn4
 BYTE   W06
 BYTE   An4
 BYTE   W06
 BYTE   Dn5
 BYTE   W06
 BYTE   An4
 BYTE   W06
 BYTE   Gn4
 BYTE   W06
 BYTE   Dn4
 BYTE   W06
 BYTE   An3
 BYTE   W06
 BYTE   Dn3
 BYTE   W06
 BYTE   N04
 BYTE   W06
 BYTE   An3
 BYTE   W06
 BYTE   Dn4
 BYTE   W06
 BYTE   An3
 BYTE   W05
// 049   ----------------------------------------
 BYTE   PATT
  POIN2 Label_5_012A05D5
// 050   ----------------------------------------
 BYTE   PATT
  POIN2 Label_5_012A05F9
// 051   ----------------------------------------
 BYTE   W01
 BYTE   N04  Dn3  v127
 BYTE   W06
 BYTE   Gn3
 BYTE   W06
 BYTE   An3
 BYTE   W06
 BYTE   Dn4
 BYTE   W06
 BYTE   Gn4
 BYTE   W06
 BYTE   An4
 BYTE   W06
 BYTE   Dn5
 BYTE   W06
 BYTE   An4
 BYTE   W06
 BYTE   Gn4
 BYTE   W06
 BYTE   Dn4
 BYTE   W06
 BYTE   An3
 BYTE   W06
 BYTE   Dn3
 BYTE   W06
 BYTE   N02  Gn4
 BYTE   W03
 BYTE   Gs4
 BYTE   W03
 BYTE   Dn5
 BYTE   W03
 BYTE   Gn4
 BYTE   W03
 BYTE   Gs4
 BYTE   W03
 BYTE   Dn5
 BYTE   W03
 BYTE   Gn5
 BYTE   W03
 BYTE   Dn5
 BYTE   W02
// 052   ----------------------------------------
 BYTE   W01
 BYTE   Gs4
 BYTE   W03
 BYTE   Gn4
 BYTE   W03
 BYTE   Gs4
 BYTE   W03
 BYTE   Dn4
 BYTE   W03
 BYTE   Fn4
 BYTE   W03
 BYTE   Fs4
 BYTE   W03
 BYTE   Cn5
 BYTE   W03
 BYTE   Fn4
 BYTE   W03
 BYTE   Fs4
 BYTE   W03
 BYTE   Cn5
 BYTE   W03
 BYTE   Fn5
 BYTE   W03
 BYTE   Cn5
 BYTE   W03
 BYTE   Fs4
 BYTE   W03
 BYTE   Fn4
 BYTE   W03
 BYTE   Fs4
 BYTE   W03
 BYTE   N04  Cn4
 BYTE   W48
 BYTE   W02
// 053   ----------------------------------------
 BYTE   W96
// 054   ----------------------------------------
 BYTE   W96
// 055   ----------------------------------------
 BYTE   W96
// 056   ----------------------------------------
 BYTE   W96
// 057   ----------------------------------------
 BYTE   W96
// 058   ----------------------------------------
 BYTE   W96
// 059   ----------------------------------------
 BYTE   W96
// 060   ----------------------------------------
 BYTE   W96
// 061   ----------------------------------------
 BYTE   W96
// 062   ----------------------------------------
 BYTE   W96
// 063   ----------------------------------------
 BYTE   W96
// 064   ----------------------------------------
 BYTE   W44
 BYTE   W03
 BYTE   GoTo
  POIN2 Label_5_012A045B
 BYTE   FINE

//**************** Track 7 (Midi-Chn.6) ****************//

song58_007:
// 000   ----------------------------------------
 BYTE   KEYSH   song58_key+0
Label_6_012A06AC:
 BYTE   VOICE   52
 BYTE   VOL   35*song58_mvl/mxv
 BYTE   PAN   c_v+0
 BYTE   BEND   c_v+0
 BYTE   W96
// 001   ----------------------------------------
 BYTE   W96
// 002   ----------------------------------------
 BYTE   W96
// 003   ----------------------------------------
 BYTE   W96
// 004   ----------------------------------------
 BYTE   W96
// 005   ----------------------------------------
 BYTE   W96
// 006   ----------------------------------------
 BYTE   W96
// 007   ----------------------------------------
 BYTE   W96
// 008   ----------------------------------------
 BYTE   W96
// 009   ----------------------------------------
 BYTE   W96
// 010   ----------------------------------------
 BYTE   W96
// 011   ----------------------------------------
 BYTE   W96
// 012   ----------------------------------------
 BYTE   W96
// 013   ----------------------------------------
 BYTE   W96
// 014   ----------------------------------------
 BYTE   W96
// 015   ----------------------------------------
Label_6_012A06C3:
 BYTE   W01
 BYTE   N28  En2  v127
 BYTE   N28  An2
 BYTE   N28  Dn3
 BYTE   W30
 BYTE   N40  En2
 BYTE   N40  An2
 BYTE   N40  Cs3
 BYTE   W42
 BYTE   N28  Dn2
 BYTE   N28  Gn2
 BYTE   N28  Cn3
 BYTE   W23
 BYTE   PEND 
// 016   ----------------------------------------
 BYTE   W07
 BYTE   N40  Dn2
 BYTE   N40  Gn2
 BYTE   N40  Bn2
 BYTE   W42
 BYTE   N28  Cn2
 BYTE   N28  Fn2
 BYTE   N28  Bn2
 BYTE   W30
 BYTE   TIE  Cn2
 BYTE   TIE  Fn2
 BYTE   TIE  An2
 BYTE   W17
// 017   ----------------------------------------
 BYTE   W92
 BYTE   W03
 BYTE   EOT
 BYTE   Cn2  v053
 BYTE   An2
 BYTE   W01
// 018   ----------------------------------------
 BYTE   PATT
  POIN2 Label_6_012A06C3
// 019   ----------------------------------------
 BYTE   W07
 BYTE   N40  Dn2  v127
 BYTE   N40  Gn2
 BYTE   N40  Bn2
 BYTE   W42
 BYTE   N28  Fs2
 BYTE   N28  Bn2
 BYTE   N28  En3
 BYTE   W30
 BYTE   TIE  Fs2
 BYTE   TIE  Bn2
 BYTE   TIE  Ds3
 BYTE   W17
// 020   ----------------------------------------
 BYTE   W92
 BYTE   W03
 BYTE   EOT
 BYTE   Fs2  v059
 BYTE   Ds3
 BYTE   W01
// 021   ----------------------------------------
 BYTE   W96
// 022   ----------------------------------------
 BYTE   W96
// 023   ----------------------------------------
 BYTE   W96
// 024   ----------------------------------------
 BYTE   W96
// 025   ----------------------------------------
 BYTE   W96
// 026   ----------------------------------------
 BYTE   W96
// 027   ----------------------------------------
 BYTE   W96
// 028   ----------------------------------------
 BYTE   W96
// 029   ----------------------------------------
 BYTE   W96
// 030   ----------------------------------------
 BYTE   W96
// 031   ----------------------------------------
 BYTE   W96
// 032   ----------------------------------------
 BYTE   W96
// 033   ----------------------------------------
 BYTE   W96
// 034   ----------------------------------------
 BYTE   W96
// 035   ----------------------------------------
 BYTE   W96
// 036   ----------------------------------------
 BYTE   W96
// 037   ----------------------------------------
 BYTE   W96
// 038   ----------------------------------------
 BYTE   W96
// 039   ----------------------------------------
 BYTE   W96
// 040   ----------------------------------------
 BYTE   W96
// 041   ----------------------------------------
 BYTE   W96
// 042   ----------------------------------------
 BYTE   W96
// 043   ----------------------------------------
 BYTE   W96
// 044   ----------------------------------------
 BYTE   W96
// 045   ----------------------------------------
 BYTE   W96
// 046   ----------------------------------------
 BYTE   W96
// 047   ----------------------------------------
 BYTE   W96
// 048   ----------------------------------------
 BYTE   W96
// 049   ----------------------------------------
 BYTE   W96
// 050   ----------------------------------------
 BYTE   W96
// 051   ----------------------------------------
 BYTE   W96
// 052   ----------------------------------------
Label_6_012A073A:
 BYTE   W48
 BYTE   W01
 BYTE   N68  Gn2  v108
 BYTE   N68  Ds3
 BYTE   W44
 BYTE   W03
 BYTE   PEND 
// 053   ----------------------------------------
Label_6_012A0744:
 BYTE   W24
 BYTE   W01
 BYTE   N68  As2  v108
 BYTE   N68  Gn3
 BYTE   W68
 BYTE   W03
 BYTE   PEND 
// 054   ----------------------------------------
Label_6_012A074E:
 BYTE   W01
 BYTE   N68  Dn3  v108
 BYTE   N68  An3
 BYTE   W72
 BYTE   An2
 BYTE   N68  Fs3
 BYTE   W23
 BYTE   PEND 
// 055   ----------------------------------------
Label_6_012A075A:
 BYTE   W48
 BYTE   W01
 BYTE   N68  Gs2  v108
 BYTE   N68  Fn3
 BYTE   W44
 BYTE   W03
 BYTE   PEND 
// 056   ----------------------------------------
Label_6_012A0764:
 BYTE   W24
 BYTE   W01
 BYTE   N68  Fn2  v108
 BYTE   N68  Cs3
 BYTE   W68
 BYTE   W03
 BYTE   PEND 
// 057   ----------------------------------------
Label_6_012A076E:
 BYTE   W01
 BYTE   N68  Gn2  v108
 BYTE   N68  Ds3
 BYTE   W72
 BYTE   Cn3
 BYTE   N68  Gn3
 BYTE   W23
 BYTE   PEND 
// 058   ----------------------------------------
 BYTE   PATT
  POIN2 Label_6_012A073A
// 059   ----------------------------------------
 BYTE   PATT
  POIN2 Label_6_012A0744
// 060   ----------------------------------------
 BYTE   PATT
  POIN2 Label_6_012A074E
// 061   ----------------------------------------
 BYTE   PATT
  POIN2 Label_6_012A075A
// 062   ----------------------------------------
 BYTE   PATT
  POIN2 Label_6_012A0764
// 063   ----------------------------------------
 BYTE   PATT
  POIN2 Label_6_012A076E
// 064   ----------------------------------------
 BYTE   W44
 BYTE   W03
 BYTE   GoTo
  POIN2 Label_6_012A06AC
 BYTE   FINE

//**************** Track 8 (Midi-Chn.7) ****************//

song58_008:
// 000   ----------------------------------------
 BYTE   KEYSH   song58_key+0
Label_7_012A07A2:
 BYTE   VOICE   18
 BYTE   VOL   23*song58_mvl/mxv
 BYTE   PAN   c_v-20
 BYTE   BEND   c_v+0
 BYTE   W96
// 001   ----------------------------------------
 BYTE   W96
// 002   ----------------------------------------
 BYTE   W24
 BYTE   W01
 BYTE   N04  Gn5  v127
 BYTE   W06
 BYTE   Fn5
 BYTE   W06
 BYTE   Ds5
 BYTE   W06
 BYTE   Dn5
 BYTE   W06
 BYTE   Cn5
 BYTE   W06
 BYTE   As4
 BYTE   W06
 BYTE   Gs4
 BYTE   W06
 BYTE   Gn4
 BYTE   W06
 BYTE   Fn4
 BYTE   W06
 BYTE   Gn4
 BYTE   W06
 BYTE   Gs4
 BYTE   W06
 BYTE   As4
 BYTE   W05
// 003   ----------------------------------------
 BYTE   W96
// 004   ----------------------------------------
 BYTE   W96
// 005   ----------------------------------------
 BYTE   W96
// 006   ----------------------------------------
 BYTE   W96
// 007   ----------------------------------------
 BYTE   W96
// 008   ----------------------------------------
 BYTE   W96
// 009   ----------------------------------------
 BYTE   W96
// 010   ----------------------------------------
 BYTE   W96
// 011   ----------------------------------------
 BYTE   W96
// 012   ----------------------------------------
 BYTE   W96
// 013   ----------------------------------------
 BYTE   W96
// 014   ----------------------------------------
 BYTE   W96
// 015   ----------------------------------------
 BYTE   W96
// 016   ----------------------------------------
 BYTE   W96
// 017   ----------------------------------------
 BYTE   W96
// 018   ----------------------------------------
 BYTE   W96
// 019   ----------------------------------------
 BYTE   W96
// 020   ----------------------------------------
 BYTE   W96
// 021   ----------------------------------------
 BYTE   W96
// 022   ----------------------------------------
 BYTE   W96
// 023   ----------------------------------------
 BYTE   W96
// 024   ----------------------------------------
 BYTE   W96
// 025   ----------------------------------------
 BYTE   W96
// 026   ----------------------------------------
 BYTE   W96
// 027   ----------------------------------------
 BYTE   W96
// 028   ----------------------------------------
 BYTE   W96
// 029   ----------------------------------------
 BYTE   W96
// 030   ----------------------------------------
 BYTE   W96
// 031   ----------------------------------------
 BYTE   W96
// 032   ----------------------------------------
 BYTE   W96
// 033   ----------------------------------------
 BYTE   W96
// 034   ----------------------------------------
 BYTE   W96
// 035   ----------------------------------------
 BYTE   W96
// 036   ----------------------------------------
 BYTE   W96
// 037   ----------------------------------------
 BYTE   W96
// 038   ----------------------------------------
 BYTE   W96
// 039   ----------------------------------------
 BYTE   W96
// 040   ----------------------------------------
 BYTE   W96
// 041   ----------------------------------------
 BYTE   W96
// 042   ----------------------------------------
 BYTE   W96
// 043   ----------------------------------------
 BYTE   W96
// 044   ----------------------------------------
 BYTE   W96
// 045   ----------------------------------------
 BYTE   W72
 BYTE   W01
 BYTE   N11  An4
 BYTE   W12
 BYTE   Dn5
 BYTE   W11
// 046   ----------------------------------------
 BYTE   W01
 BYTE   Gn5
 BYTE   W12
 BYTE   Dn5
 BYTE   W12
 BYTE   Gn5
 BYTE   W12
 BYTE   Cn6
 BYTE   W12
 BYTE   Dn6
 BYTE   W12
 BYTE   An5
 BYTE   W12
 BYTE   En5
 BYTE   W12
 BYTE   Dn5
 BYTE   W11
// 047   ----------------------------------------
 BYTE   W01
 BYTE   Gn5
 BYTE   W12
 BYTE   Cn6
 BYTE   W12
 BYTE   Dn6
 BYTE   W12
 BYTE   An5
 BYTE   W12
 BYTE   Dn6
 BYTE   W12
 BYTE   Gn6
 BYTE   W12
 BYTE   Dn6
 BYTE   W12
 BYTE   An5
 BYTE   W11
// 048   ----------------------------------------
 BYTE   W01
 BYTE   An6
 BYTE   W12
 BYTE   En6
 BYTE   W12
 BYTE   Bn5
 BYTE   W12
 BYTE   Gn6
 BYTE   W12
 BYTE   Dn6
 BYTE   W12
 BYTE   An5
 BYTE   W12
 BYTE   Dn5
 BYTE   W12
 BYTE   Gn5
 BYTE   W11
// 049   ----------------------------------------
 BYTE   W01
 BYTE   Cn6
 BYTE   W12
 BYTE   Dn6
 BYTE   W12
 BYTE   An5
 BYTE   W12
 BYTE   En5
 BYTE   W12
 BYTE   Bn4
 BYTE   W12
 BYTE   En5
 BYTE   W12
 BYTE   An5
 BYTE   W12
 BYTE   Gn5
 BYTE   W11
// 050   ----------------------------------------
 BYTE   W01
 BYTE   Cn6
 BYTE   W12
 BYTE   Fn6
 BYTE   W12
 BYTE   Gn6
 BYTE   W12
 BYTE   Dn6
 BYTE   W12
 BYTE   An5
 BYTE   W12
 BYTE   Cn7
 BYTE   W12
 BYTE   Gn6
 BYTE   W12
 BYTE   Dn6
 BYTE   W11
// 051   ----------------------------------------
 BYTE   W01
 BYTE   An6
 BYTE   W12
 BYTE   En6
 BYTE   W12
 BYTE   Bn5
 BYTE   W12
 BYTE   An5
 BYTE   W12
 BYTE   En5
 BYTE   W12
 BYTE   Bn4
 BYTE   W12
 BYTE   N04  Dn6
 BYTE   W06
 BYTE   Gs5
 BYTE   W06
 BYTE   Gn5
 BYTE   W06
 BYTE   Gs5
 BYTE   W05
// 052   ----------------------------------------
 BYTE   W01
 BYTE   Dn6
 BYTE   W06
 BYTE   Gn6
 BYTE   W06
 BYTE   Cn6
 BYTE   W06
 BYTE   Fs5
 BYTE   W06
 BYTE   Fn5
 BYTE   W06
 BYTE   Fs5
 BYTE   W06
 BYTE   Cn6
 BYTE   W06
 BYTE   Fn6
 BYTE   W52
 BYTE   W01
// 053   ----------------------------------------
 BYTE   W96
// 054   ----------------------------------------
 BYTE   W96
// 055   ----------------------------------------
 BYTE   W96
// 056   ----------------------------------------
 BYTE   W96
// 057   ----------------------------------------
 BYTE   W96
// 058   ----------------------------------------
 BYTE   W96
// 059   ----------------------------------------
 BYTE   W96
// 060   ----------------------------------------
 BYTE   W96
// 061   ----------------------------------------
 BYTE   W96
// 062   ----------------------------------------
 BYTE   W96
// 063   ----------------------------------------
 BYTE   W96
// 064   ----------------------------------------
 BYTE   W44
 BYTE   W03
 BYTE   GoTo
  POIN2 Label_7_012A07A2
 BYTE   FINE

//**************** Track 9 (Midi-Chn.8) ****************//

song58_009:
// 000   ----------------------------------------
 BYTE   KEYSH   song58_key+0
Label_8_012A088B:
 BYTE   VOICE   29
 BYTE   VOL   37*song58_mvl/mxv
 BYTE   PAN   c_v+20
 BYTE   BEND   c_v+0
 BYTE   W01
 BYTE   N11  Cn1  v127
 BYTE   W12
 BYTE   N04
 BYTE   W06
 BYTE   N16  Cn2
 BYTE   W18
 BYTE   N11  Cn1
 BYTE   W12
 BYTE   N04
 BYTE   W06
 BYTE   N16  Cn2
 BYTE   W06
 BYTE   BEND   c_v-11
 BYTE   W06
 BYTE   En3
 BYTE   W06
 BYTE   N11  Cn1
 BYTE   W12
 BYTE   N04
 BYTE   W06
 BYTE   N16  Cn2
 BYTE   W05
// 001   ----------------------------------------
 BYTE   W13
 BYTE   N11  Cn1
 BYTE   W12
 BYTE   N04
 BYTE   W06
 BYTE   N16  Cn2
 BYTE   W06
 BYTE   BEND   c_v-11
 BYTE   W06
 BYTE   En3
 BYTE   W06
 BYTE   N10  Ds2
 BYTE   W06
 BYTE   BEND   c_v-6
 BYTE   W06
 BYTE   En3
 BYTE   N10  Cn2
 BYTE   W06
 BYTE   BEND   c_v+10
 BYTE   W06
 BYTE   En3
 BYTE   N10  Ds2
 BYTE   W06
 BYTE   BEND   c_v+10
 BYTE   W06
 BYTE   En3
 BYTE   N11  Gn2
 BYTE   W06
 BYTE   BEND   c_v+5
 BYTE   W05
// 002   ----------------------------------------
 BYTE   W01
 BYTE   En3
 BYTE   N16  As2
 BYTE   W06
 BYTE   BEND   c_v+10
 BYTE   W06
 BYTE   En3
 BYTE   W06
 BYTE   N04  Gs2
 BYTE   W06
 BYTE   N05  Gn2
 BYTE   W06
 BYTE   Fn2
 BYTE   W06
 BYTE   Ds2
 BYTE   W06
 BYTE   Dn2
 BYTE   W06
 BYTE   Cn2
 BYTE   W06
 BYTE   As1
 BYTE   W06
 BYTE   Gs1
 BYTE   W06
 BYTE   Gn1
 BYTE   W06
 BYTE   Fn1
 BYTE   W06
 BYTE   Gn1
 BYTE   W06
 BYTE   Gs1
 BYTE   W06
 BYTE   As1
 BYTE   W05
// 003   ----------------------------------------
Label_8_012A0901:
 BYTE   W01
 BYTE   N11  Cn1  v108
 BYTE   W12
 BYTE   N04
 BYTE   W06
 BYTE   N16  Cn2
 BYTE   W18
 BYTE   N11  Cn1
 BYTE   W12
 BYTE   N04
 BYTE   W06
 BYTE   N16  Cn2
 BYTE   W06
 BYTE   BEND   c_v-11
 BYTE   W06
 BYTE   En3
 BYTE   W06
 BYTE   N11  Cn1
 BYTE   W12
 BYTE   N04
 BYTE   W06
 BYTE   N16  Cn2
 BYTE   W05
 BYTE   PEND 
// 004   ----------------------------------------
Label_8_012A0921:
 BYTE   W13
 BYTE   N11  Cn1  v108
 BYTE   W12
 BYTE   N04
 BYTE   W06
 BYTE   N16  Cn2
 BYTE   W06
 BYTE   BEND   c_v-11
 BYTE   W06
 BYTE   En3
 BYTE   W06
 BYTE   N11  Cn1
 BYTE   W12
 BYTE   N04
 BYTE   W06
 BYTE   N16  Cn2
 BYTE   W18
 BYTE   N11  Cn1
 BYTE   W11
 BYTE   PEND 
// 005   ----------------------------------------
Label_8_012A093C:
 BYTE   W01
 BYTE   N04  Cn1  v108
 BYTE   W06
 BYTE   N16  Cn2
 BYTE   W06
 BYTE   BEND   c_v-11
 BYTE   W06
 BYTE   En3
 BYTE   W06
 BYTE   N11  Cn1
 BYTE   W12
 BYTE   N04
 BYTE   W06
 BYTE   N16  Cn2
 BYTE   W18
 BYTE   N11  Cn1
 BYTE   W12
 BYTE   N04
 BYTE   W06
 BYTE   N16  Cn2
 BYTE   W06
 BYTE   BEND   c_v-11
 BYTE   W06
 BYTE   En3
 BYTE   W05
 BYTE   PEND 
// 006   ----------------------------------------
 BYTE   PATT
  POIN2 Label_8_012A0901
// 007   ----------------------------------------
 BYTE   PATT
  POIN2 Label_8_012A0921
// 008   ----------------------------------------
 BYTE   PATT
  POIN2 Label_8_012A093C
// 009   ----------------------------------------
 BYTE   PATT
  POIN2 Label_8_012A0901
// 010   ----------------------------------------
 BYTE   PATT
  POIN2 Label_8_012A0921
// 011   ----------------------------------------
 BYTE   PATT
  POIN2 Label_8_012A093C
// 012   ----------------------------------------
 BYTE   W01
 BYTE   N11  Gs1  v108
 BYTE   W12
 BYTE   N04
 BYTE   W06
 BYTE   N16  Gs2
 BYTE   W18
 BYTE   N11  Gs1
 BYTE   W12
 BYTE   N04
 BYTE   W06
 BYTE   N16  Gs2
 BYTE   W06
 BYTE   BEND   c_v-6
 BYTE   W06
 BYTE   En3
 BYTE   W06
 BYTE   N11  Gn1
 BYTE   W12
 BYTE   N04
 BYTE   W06
 BYTE   N16  Gn2
 BYTE   W05
// 013   ----------------------------------------
 BYTE   W13
 BYTE   N11  Gn1
 BYTE   W12
 BYTE   N04
 BYTE   W06
 BYTE   N16  Gn2
 BYTE   W06
 BYTE   BEND   c_v-11
 BYTE   W06
 BYTE   En3
 BYTE   W06
 BYTE   N11  Gs1
 BYTE   W12
 BYTE   N04
 BYTE   W06
 BYTE   N16  Gs2
 BYTE   W18
 BYTE   N11  Gs1
 BYTE   W11
// 014   ----------------------------------------
 BYTE   W01
 BYTE   N04
 BYTE   W06
 BYTE   N16  Gs2
 BYTE   W06
 BYTE   BEND   c_v-6
 BYTE   W06
 BYTE   En3
 BYTE   W06
 BYTE   N11  As1
 BYTE   W12
 BYTE   N04
 BYTE   W06
 BYTE   N16  As2
 BYTE   W18
 BYTE   N11  As1
 BYTE   W12
 BYTE   N04
 BYTE   W06
 BYTE   N16  As2
 BYTE   W06
 BYTE   BEND   c_v-6
 BYTE   W06
 BYTE   En3
 BYTE   W05
// 015   ----------------------------------------
 BYTE   W01
 BYTE   N11  An1
 BYTE   W12
 BYTE   N04
 BYTE   W06
 BYTE   N16  An2
 BYTE   W18
 BYTE   N11  An1
 BYTE   W12
 BYTE   N04
 BYTE   W06
 BYTE   N05  An2
 BYTE   W06
 BYTE   BEND   c_v-11
 BYTE   N05
 BYTE   W06
 BYTE   BEND   c_v+0
 BYTE   N05
 BYTE   W06
 BYTE   N11  An1
 BYTE   W12
 BYTE   N04
 BYTE   W06
 BYTE   N16  An2
 BYTE   W05
// 016   ----------------------------------------
 BYTE   W13
 BYTE   N11  An1
 BYTE   W12
 BYTE   N04
 BYTE   W06
 BYTE   N05  An2
 BYTE   W06
 BYTE   BEND   c_v-11
 BYTE   N05
 BYTE   W06
 BYTE   BEND   c_v+0
 BYTE   N04
 BYTE   W06
 BYTE   N11  An1
 BYTE   W12
 BYTE   N04
 BYTE   W06
 BYTE   N16  An2
 BYTE   W18
 BYTE   N11  An1
 BYTE   W11
// 017   ----------------------------------------
 BYTE   W01
 BYTE   N04
 BYTE   W06
 BYTE   N05  An2
 BYTE   W06
 BYTE   BEND   c_v-11
 BYTE   N05
 BYTE   W06
 BYTE   BEND   c_v+0
 BYTE   N04
 BYTE   W06
 BYTE   N11  An1
 BYTE   W12
 BYTE   N04
 BYTE   W06
 BYTE   N16  An2
 BYTE   W18
 BYTE   N11  An1
 BYTE   W12
 BYTE   N04
 BYTE   W06
 BYTE   N05  An2
 BYTE   W06
 BYTE   BEND   c_v-11
 BYTE   N05
 BYTE   W06
 BYTE   BEND   c_v+0
 BYTE   N04
 BYTE   W05
// 018   ----------------------------------------
 BYTE   W01
 BYTE   N11  An1
 BYTE   W12
 BYTE   N04
 BYTE   W06
 BYTE   N16  An2
 BYTE   W18
 BYTE   N11  An1
 BYTE   W12
 BYTE   N04
 BYTE   W06
 BYTE   N05  An2
 BYTE   W06
 BYTE   BEND   c_v-11
 BYTE   N05
 BYTE   W06
 BYTE   BEND   c_v+0
 BYTE   N04
 BYTE   W06
 BYTE   N11  An1
 BYTE   W12
 BYTE   N04
 BYTE   W06
 BYTE   N16  An2
 BYTE   W05
// 019   ----------------------------------------
 BYTE   W13
 BYTE   N11  An1
 BYTE   W12
 BYTE   N04
 BYTE   W06
 BYTE   N05  An2
 BYTE   W06
 BYTE   BEND   c_v-11
 BYTE   N05
 BYTE   W06
 BYTE   BEND   c_v+0
 BYTE   N04
 BYTE   W06
 BYTE   N11  Bn1
 BYTE   W12
 BYTE   N04
 BYTE   W06
 BYTE   N16  Bn2
 BYTE   W18
 BYTE   N11  Bn1
 BYTE   W11
// 020   ----------------------------------------
 BYTE   W01
 BYTE   N04
 BYTE   W06
 BYTE   N05  Bn2
 BYTE   W06
 BYTE   BEND   c_v-6
 BYTE   N05
 BYTE   W06
 BYTE   BEND   c_v+0
 BYTE   N04
 BYTE   W06
 BYTE   N11  Bn1
 BYTE   W12
 BYTE   N04
 BYTE   W06
 BYTE   N16  Bn2
 BYTE   W18
 BYTE   N11  Bn1
 BYTE   W12
 BYTE   N04
 BYTE   W06
 BYTE   N05  Bn2
 BYTE   W06
 BYTE   BEND   c_v-6
 BYTE   N05
 BYTE   W06
 BYTE   BEND   c_v+0
 BYTE   N04
 BYTE   W05
// 021   ----------------------------------------
 BYTE   W01
 BYTE   N32  Fs2  v120
 BYTE   N32  Cs3
 BYTE   W36
 BYTE   En2
 BYTE   N32  Bn2
 BYTE   W36
 BYTE   En2
 BYTE   N32  An2
 BYTE   W23
// 022   ----------------------------------------
 BYTE   W13
 BYTE   Fs2
 BYTE   N32  Bn2
 BYTE   W36
 BYTE   En2
 BYTE   N32  An2
 BYTE   W36
 BYTE   Dn2
 BYTE   N32  An2
 BYTE   W11
// 023   ----------------------------------------
 BYTE   W24
 BYTE   W01
 BYTE   En2
 BYTE   N32  Bn2
 BYTE   W36
 BYTE   Bn1
 BYTE   N32  En2
 BYTE   W32
 BYTE   W03
// 024   ----------------------------------------
 BYTE   W01
 BYTE   N04  Fs1
 BYTE   W06
 BYTE   Cs2
 BYTE   W06
 BYTE   Fs2
 BYTE   W06
 BYTE   N16
 BYTE   N16  Cs3
 BYTE   W18
 BYTE   N04  En1
 BYTE   W06
 BYTE   Bn1
 BYTE   W06
 BYTE   En2
 BYTE   W06
 BYTE   N16
 BYTE   N16  Bn2
 BYTE   W18
 BYTE   N04  An1
 BYTE   W06
 BYTE   En2
 BYTE   W06
 BYTE   An2
 BYTE   W06
 BYTE   N16  En2
 BYTE   N16  An2
 BYTE   W05
// 025   ----------------------------------------
 BYTE   W13
 BYTE   N04  Bn1
 BYTE   W06
 BYTE   Fs2
 BYTE   W06
 BYTE   Bn2
 BYTE   W06
 BYTE   N16  Fs2
 BYTE   N16  Bn2
 BYTE   W18
 BYTE   N04  An1
 BYTE   W06
 BYTE   En2
 BYTE   W06
 BYTE   An2
 BYTE   W06
 BYTE   N16  En2
 BYTE   N16  An2
 BYTE   W18
 BYTE   N04  Dn1
 BYTE   W06
 BYTE   An1
 BYTE   W05
// 026   ----------------------------------------
 BYTE   W01
 BYTE   Dn2
 BYTE   W06
 BYTE   N16
 BYTE   N16  An2
 BYTE   W18
 BYTE   BEND   c_v-11
 BYTE   N68  En2
 BYTE   N68  Bn2
 BYTE   W02
 BYTE   BEND   c_v-9
 BYTE   W01
 BYTE   Gs2
 BYTE   W02
 BYTE   Gs2
 BYTE   W01
 BYTE   An2
 BYTE   W02
 BYTE   As2
 BYTE   W01
 BYTE   Bn2
 BYTE   W02
 BYTE   Bn2
 BYTE   W01
 BYTE   Cn3
 BYTE   W02
 BYTE   Cn3
 BYTE   W01
 BYTE   Cn3
 BYTE   W02
 BYTE   Cs3
 BYTE   W01
 BYTE   Cs3
 BYTE   W01
 BYTE   Cs3
 BYTE   W02
 BYTE   Dn3
 BYTE   W02
 BYTE   Dn3
 BYTE   W01
 BYTE   Dn3
 BYTE   W02
 BYTE   Dn3
 BYTE   W01
 BYTE   Dn3
 BYTE   W02
 BYTE   Ds3
 BYTE   W03
 BYTE   Ds3
 BYTE   W01
 BYTE   Ds3
 BYTE   W03
 BYTE   Ds3
 BYTE   W05
 BYTE   Ds3
 BYTE   W04
 BYTE   Ds3
 BYTE   W09
 BYTE   En3
 BYTE   W17
// 027   ----------------------------------------
 BYTE   W01
 BYTE   En3
 BYTE   N68
 BYTE   N68  En3
 BYTE   W18
 BYTE   BEND   c_v-1
 BYTE   W09
 BYTE   Ds3
 BYTE   W06
 BYTE   Ds3
 BYTE   W03
 BYTE   Ds3
 BYTE   W03
 BYTE   Ds3
 BYTE   W03
 BYTE   Ds3
 BYTE   W02
 BYTE   Dn3
 BYTE   W01
 BYTE   Dn3
 BYTE   W02
 BYTE   Dn3
 BYTE   W01
 BYTE   Dn3
 BYTE   W02
 BYTE   Dn3
 BYTE   W01
 BYTE   Dn3
 BYTE   W01
 BYTE   Cs3
 BYTE   W02
 BYTE   Cs3
 BYTE   W02
 BYTE   Cs3
 BYTE   W01
 BYTE   Cn3
 BYTE   W02
 BYTE   Cn3
 BYTE   W01
 BYTE   Cn3
 BYTE   W02
 BYTE   Bn2
 BYTE   W01
 BYTE   As2
 BYTE   W02
 BYTE   As2
 BYTE   W01
 BYTE   An2
 BYTE   W02
 BYTE   Gs2
 BYTE   W01
 BYTE   Gn2
 BYTE   W02
 BYTE   Fn2
 BYTE   W01
 BYTE   En3
 BYTE   N11  Cn1  v108
 BYTE   W12
 BYTE   N04
 BYTE   W06
 BYTE   N16  Cn2
 BYTE   W05
// 028   ----------------------------------------
 BYTE   PATT
  POIN2 Label_8_012A0921
// 029   ----------------------------------------
 BYTE   PATT
  POIN2 Label_8_012A093C
// 030   ----------------------------------------
 BYTE   PATT
  POIN2 Label_8_012A0901
// 031   ----------------------------------------
 BYTE   PATT
  POIN2 Label_8_012A0921
// 032   ----------------------------------------
 BYTE   PATT
  POIN2 Label_8_012A093C
// 033   ----------------------------------------
 BYTE   PATT
  POIN2 Label_8_012A0901
// 034   ----------------------------------------
 BYTE   PATT
  POIN2 Label_8_012A0921
// 035   ----------------------------------------
 BYTE   PATT
  POIN2 Label_8_012A093C
// 036   ----------------------------------------
 BYTE   W01
 BYTE   N11  Cn1  v108
 BYTE   W12
 BYTE   N04
 BYTE   W06
 BYTE   N16  Cn2
 BYTE   W18
 BYTE   N11  Cn1
 BYTE   W12
 BYTE   N04
 BYTE   W06
 BYTE   N16  Cn2
 BYTE   W06
 BYTE   BEND   c_v-11
 BYTE   W06
 BYTE   En3
 BYTE   W06
 BYTE   N11  Gs1
 BYTE   W12
 BYTE   N04
 BYTE   W06
 BYTE   N16  Gs2
 BYTE   W05
// 037   ----------------------------------------
 BYTE   W13
 BYTE   N11  Gs1
 BYTE   W12
 BYTE   N04
 BYTE   W06
 BYTE   N16  Gs2
 BYTE   W06
 BYTE   BEND   c_v-6
 BYTE   W06
 BYTE   En3
 BYTE   W06
 BYTE   N11  Gn1
 BYTE   W12
 BYTE   N04
 BYTE   W06
 BYTE   N16  Gn2
 BYTE   W18
 BYTE   N11  Gn1
 BYTE   W11
// 038   ----------------------------------------
 BYTE   W01
 BYTE   N04
 BYTE   W06
 BYTE   N16  Gn2
 BYTE   W06
 BYTE   BEND   c_v-11
 BYTE   W06
 BYTE   En3
 BYTE   W06
 BYTE   N11  Gs1
 BYTE   W12
 BYTE   N04
 BYTE   W06
 BYTE   N16  Gs2
 BYTE   W18
 BYTE   N11  Gs1
 BYTE   W12
 BYTE   N04
 BYTE   W06
 BYTE   N16  Gs2
 BYTE   W06
 BYTE   BEND   c_v-6
 BYTE   W06
 BYTE   En3
 BYTE   W05
// 039   ----------------------------------------
 BYTE   W01
 BYTE   N11  As1
 BYTE   W12
 BYTE   N04
 BYTE   W06
 BYTE   N16  As2
 BYTE   W18
 BYTE   N11  As1
 BYTE   W12
 BYTE   N04
 BYTE   W06
 BYTE   N16  As2
 BYTE   W06
 BYTE   BEND   c_v-6
 BYTE   W06
 BYTE   En3
 BYTE   W28
 BYTE   W01
// 040   ----------------------------------------
 BYTE   W96
// 041   ----------------------------------------
 BYTE   W96
// 042   ----------------------------------------
 BYTE   W96
// 043   ----------------------------------------
 BYTE   W96
// 044   ----------------------------------------
 BYTE   W96
// 045   ----------------------------------------
 BYTE   W72
 BYTE   W01
 BYTE   N11  An1
 BYTE   W12
 BYTE   Dn2
 BYTE   W11
// 046   ----------------------------------------
 BYTE   W01
 BYTE   Gn2
 BYTE   W12
 BYTE   BEND   c_v-11
 BYTE   N11  Dn2
 BYTE   W02
 BYTE   BEND   c_v-5
 BYTE   W01
 BYTE   Cs3
 BYTE   W02
 BYTE   Dn3
 BYTE   W01
 BYTE   Ds3
 BYTE   W02
 BYTE   Ds3
 BYTE   W01
 BYTE   En3
 BYTE   W03
 BYTE   N11  Gn2
 BYTE   W12
 BYTE   Cn3
 BYTE   W12
 BYTE   BEND   c_v-11
 BYTE   N11  Dn3
 BYTE   W02
 BYTE   BEND   c_v-5
 BYTE   W01
 BYTE   Cs3
 BYTE   W02
 BYTE   Dn3
 BYTE   W01
 BYTE   Ds3
 BYTE   W02
 BYTE   Ds3
 BYTE   W01
 BYTE   En3
 BYTE   W03
 BYTE   N11  An2
 BYTE   W12
 BYTE   En2
 BYTE   W12
 BYTE   Dn2
 BYTE   W11
// 047   ----------------------------------------
 BYTE   W01
 BYTE   Gn2
 BYTE   W12
 BYTE   Cn3
 BYTE   W12
 BYTE   Dn3
 BYTE   W12
 BYTE   An2
 BYTE   W12
 BYTE   Dn3
 BYTE   W12
 BYTE   BEND   c_v-11
 BYTE   N11  Gn3
 BYTE   W02
 BYTE   BEND   c_v-5
 BYTE   W01
 BYTE   Cs3
 BYTE   W02
 BYTE   Dn3
 BYTE   W01
 BYTE   Ds3
 BYTE   W02
 BYTE   Ds3
 BYTE   W01
 BYTE   En3
 BYTE   W03
 BYTE   N11  Dn3
 BYTE   W12
 BYTE   An2
 BYTE   W11
// 048   ----------------------------------------
 BYTE   W01
 BYTE   BEND   c_v-11
 BYTE   N11  An3
 BYTE   W02
 BYTE   BEND   c_v-5
 BYTE   W01
 BYTE   Cs3
 BYTE   W02
 BYTE   Dn3
 BYTE   W01
 BYTE   Ds3
 BYTE   W02
 BYTE   Ds3
 BYTE   W01
 BYTE   En3
 BYTE   W03
 BYTE   N11  En3
 BYTE   W12
 BYTE   Bn2
 BYTE   W12
 BYTE   Gn3
 BYTE   W12
 BYTE   Dn3
 BYTE   W12
 BYTE   An2
 BYTE   W12
 BYTE   Dn2
 BYTE   W12
 BYTE   Gn2
 BYTE   W11
// 049   ----------------------------------------
 BYTE   W01
 BYTE   N23  Cn3
 BYTE   W12
 BYTE   BEND   c_v-11
 BYTE   W12
 BYTE   En3
 BYTE   N11  An2
 BYTE   W12
 BYTE   En2
 BYTE   W12
 BYTE   Bn1
 BYTE   W12
 BYTE   En2
 BYTE   W12
 BYTE   An2
 BYTE   W12
 BYTE   Gn2
 BYTE   W11
// 050   ----------------------------------------
 BYTE   W01
 BYTE   Cn3
 BYTE   W12
 BYTE   BEND   c_v-11
 BYTE   N11  Fn3
 BYTE   W02
 BYTE   BEND   c_v-5
 BYTE   W01
 BYTE   Cs3
 BYTE   W02
 BYTE   Dn3
 BYTE   W01
 BYTE   Ds3
 BYTE   W02
 BYTE   Ds3
 BYTE   W01
 BYTE   En3
 BYTE   W03
 BYTE   Fn2
 BYTE   N11  Gn3
 BYTE   W02
 BYTE   BEND   c_v-5
 BYTE   W01
 BYTE   Cs3
 BYTE   W02
 BYTE   Dn3
 BYTE   W01
 BYTE   Ds3
 BYTE   W02
 BYTE   Ds3
 BYTE   W01
 BYTE   En3
 BYTE   W03
 BYTE   N11  Dn3
 BYTE   W12
 BYTE   An2
 BYTE   W12
 BYTE   BEND   c_v-11
 BYTE   N11  Cn4
 BYTE   W02
 BYTE   BEND   c_v-5
 BYTE   W01
 BYTE   Cs3
 BYTE   W02
 BYTE   Dn3
 BYTE   W01
 BYTE   Ds3
 BYTE   W02
 BYTE   Ds3
 BYTE   W01
 BYTE   En3
 BYTE   W03
 BYTE   N11  Gn3
 BYTE   W12
 BYTE   Dn3
 BYTE   W11
// 051   ----------------------------------------
 BYTE   W01
 BYTE   An3
 BYTE   W12
 BYTE   En3
 BYTE   W12
 BYTE   Bn2
 BYTE   W12
 BYTE   An2
 BYTE   W12
 BYTE   En2
 BYTE   W12
 BYTE   Bn1
 BYTE   W12
 BYTE   N05  Dn3
 BYTE   W06
 BYTE   Gs2
 BYTE   W06
 BYTE   Gn2
 BYTE   W06
 BYTE   Gs2
 BYTE   W05
// 052   ----------------------------------------
 BYTE   W01
 BYTE   Dn3
 BYTE   W06
 BYTE   Gn3
 BYTE   W06
 BYTE   Cn3
 BYTE   W06
 BYTE   Fs2
 BYTE   W06
 BYTE   Fn2
 BYTE   W06
 BYTE   Fs2
 BYTE   W06
 BYTE   Cn3
 BYTE   W06
 BYTE   Fn3
 BYTE   W06
 BYTE   N11  Cn1  v127
 BYTE   W12
 BYTE   N04
 BYTE   W06
 BYTE   N16  Cn2
 BYTE   W18
 BYTE   N11  Cn1
 BYTE   W11
// 053   ----------------------------------------
Label_8_012A0D2B:
 BYTE   W01
 BYTE   N04  Cn1  v127
 BYTE   W06
 BYTE   N16  Cn2
 BYTE   W06
 BYTE   BEND   c_v-11
 BYTE   W06
 BYTE   En3
 BYTE   W06
 BYTE   N11  Cn1
 BYTE   W12
 BYTE   N04
 BYTE   W06
 BYTE   N16  Cn2
 BYTE   W18
 BYTE   N11  Cn1
 BYTE   W12
 BYTE   N04
 BYTE   W06
 BYTE   Cn2
 BYTE   W06
 BYTE   BEND   c_v-11
 BYTE   N04
 BYTE   W06
 BYTE   BEND   c_v+0
 BYTE   N04
 BYTE   W05
 BYTE   PEND 
// 054   ----------------------------------------
Label_8_012A0D50:
 BYTE   W01
 BYTE   N11  Cn1  v127
 BYTE   W12
 BYTE   N04
 BYTE   W06
 BYTE   N16  Cn2
 BYTE   W18
 BYTE   N11  Cn1
 BYTE   W12
 BYTE   N04
 BYTE   W06
 BYTE   N16  Cn2
 BYTE   W06
 BYTE   BEND   c_v-11
 BYTE   W06
 BYTE   En3
 BYTE   W06
 BYTE   N11  Cn1
 BYTE   W12
 BYTE   N04
 BYTE   W06
 BYTE   N16  Cn2
 BYTE   W05
 BYTE   PEND 
// 055   ----------------------------------------
 BYTE   W13
 BYTE   N11  Cn1
 BYTE   W12
 BYTE   N04
 BYTE   W06
 BYTE   Cn2
 BYTE   W06
 BYTE   BEND   c_v-11
 BYTE   N04
 BYTE   W06
 BYTE   BEND   c_v+0
 BYTE   N04
 BYTE   W06
 BYTE   N11  Cn1
 BYTE   W12
 BYTE   N04
 BYTE   W06
 BYTE   N16  Cn2
 BYTE   W18
 BYTE   N11  Cn1
 BYTE   W11
// 056   ----------------------------------------
 BYTE   PATT
  POIN2 Label_8_012A0D2B
// 057   ----------------------------------------
 BYTE   PATT
  POIN2 Label_8_012A0D50
// 058   ----------------------------------------
 BYTE   W13
 BYTE   N11  Cn1  v127
 BYTE   W12
 BYTE   N04
 BYTE   W06
 BYTE   Cn2
 BYTE   W06
 BYTE   BEND   c_v-11
 BYTE   N04
 BYTE   W06
 BYTE   BEND   c_v+0
 BYTE   N04
 BYTE   W06
 BYTE   N04
 BYTE   W06
 BYTE   N04
 BYTE   W06
 BYTE   N04
 BYTE   W06
 BYTE   N16  Gn2
 BYTE   N16  Cn3  v108
 BYTE   W18
 BYTE   N04  Cn2  v127
 BYTE   W06
 BYTE   N04
 BYTE   W05
// 059   ----------------------------------------
Label_8_012A0DB8:
 BYTE   W01
 BYTE   N04  Cn2  v127
 BYTE   W06
 BYTE   N11  Gn2
 BYTE   N11  Cn3  v108
 BYTE   W12
 BYTE   N04  Gn2  v127
 BYTE   N04  Cn3  v108
 BYTE   W06
 BYTE   Cn2  v127
 BYTE   W06
 BYTE   N04
 BYTE   W06
 BYTE   N04
 BYTE   W06
 BYTE   N16  Gn2
 BYTE   N16  Cn3  v108
 BYTE   W18
 BYTE   N04  Cn2  v127
 BYTE   W06
 BYTE   N04
 BYTE   W06
 BYTE   N04
 BYTE   W06
 BYTE   N11  Gn2
 BYTE   N11  Cn3  v108
 BYTE   W12
 BYTE   N04  Gn2  v127
 BYTE   N04  Cn3  v108
 BYTE   W05
 BYTE   PEND 
// 060   ----------------------------------------
Label_8_012A0DED:
 BYTE   W01
 BYTE   N04  Cn2  v127
 BYTE   W06
 BYTE   N04
 BYTE   W06
 BYTE   N04
 BYTE   W06
 BYTE   N16  Gn2
 BYTE   N16  Cn3  v108
 BYTE   W18
 BYTE   N04  Cn2  v127
 BYTE   W06
 BYTE   N04
 BYTE   W06
 BYTE   N04
 BYTE   W06
 BYTE   N11  Gn2
 BYTE   N11  Cn3  v108
 BYTE   W12
 BYTE   N04  Gn2  v127
 BYTE   N04  Cn3  v108
 BYTE   W06
 BYTE   Cn2  v127
 BYTE   W06
 BYTE   N04
 BYTE   W06
 BYTE   N04
 BYTE   W06
 BYTE   N16  Gn2
 BYTE   N16  Cn3  v108
 BYTE   W05
 BYTE   PEND 
// 061   ----------------------------------------
 BYTE   W13
 BYTE   N04  Cn2  v127
 BYTE   W06
 BYTE   N04
 BYTE   W06
 BYTE   N04
 BYTE   W06
 BYTE   N11  Gn2
 BYTE   N11  Cn3  v108
 BYTE   W12
 BYTE   N04  Gn2  v127
 BYTE   N04  Cn3  v108
 BYTE   W06
 BYTE   Cn2  v127
 BYTE   W06
 BYTE   N04
 BYTE   W06
 BYTE   N04
 BYTE   W06
 BYTE   N16  Gn2
 BYTE   N16  Cn3  v108
 BYTE   W18
 BYTE   N04  Cn2  v127
 BYTE   W06
 BYTE   N04
 BYTE   W05
// 062   ----------------------------------------
 BYTE   PATT
  POIN2 Label_8_012A0DB8
// 063   ----------------------------------------
 BYTE   PATT
  POIN2 Label_8_012A0DED
// 064   ----------------------------------------
 BYTE   W13
 BYTE   N04  Cn2  v127
 BYTE   W06
 BYTE   N04
 BYTE   W06
 BYTE   N04
 BYTE   W06
 BYTE   N11  Gn2
 BYTE   N11  Cn3  v108
 BYTE   W12
 BYTE   N04  Gn2  v127
 BYTE   N04  Cn3  v108
 BYTE   W04
 BYTE   GoTo
  POIN2 Label_8_012A088B
 BYTE   FINE

//**************** Track 10 (Midi-Chn.9) ****************//

song58_010:
// 000   ----------------------------------------
 BYTE   KEYSH   song58_key+0
Label_9_012A0E70:
 BYTE   VOICE   124
 BYTE   VOL   48*song58_mvl/mxv
 BYTE   PAN   c_v+0
 BYTE   BEND   c_v+0
 BYTE   W01
 BYTE   N10  Cn1  v127
 BYTE   N68  Cs2  v112
 BYTE   W12
 BYTE   N04  Cn1  v127
 BYTE   N04  Ds2  v068
 BYTE   W06
 BYTE   N22  Dn1  v112
 BYTE   N04  Ds2  v068
 BYTE   W06
 BYTE   N11  Ds2  v076
 BYTE   W12
 BYTE   N10  Cn1  v127
 BYTE   N11  Ds2  v076
 BYTE   W12
 BYTE   N04  Cn1  v127
 BYTE   N11  Ds2  v068
 BYTE   W06
 BYTE   N22  Dn1  v112
 BYTE   W06
 BYTE   N10  Cn1  v127
 BYTE   N11  Ds2  v076
 BYTE   W12
 BYTE   N10  Cn1  v127
 BYTE   N11  Ds2  v076
 BYTE   W12
 BYTE   N04  Cn1  v127
 BYTE   N04  Ds2  v068
 BYTE   W06
 BYTE   N22  Dn1  v112
 BYTE   N04  Ds2  v068
 BYTE   W05
// 001   ----------------------------------------
Label_9_012A0EC0:
 BYTE   W01
 BYTE   N11  Ds2  v076
 BYTE   W12
 BYTE   N10  Cn1  v127
 BYTE   N11  Ds2  v076
 BYTE   W12
 BYTE   N04  Cn1  v127
 BYTE   N04  Ds2  v068
 BYTE   W06
 BYTE   N22  Dn1  v112
 BYTE   N04  Ds2  v076
 BYTE   W06
 BYTE   N10  Cn1  v127
 BYTE   N04  Ds2  v068
 BYTE   W06
 BYTE   Ds2  v076
 BYTE   W06
 BYTE   N10  Cn1  v127
 BYTE   N11  Ds2  v076
 BYTE   W12
 BYTE   N04  Cn1  v127
 BYTE   N04  Ds2  v068
 BYTE   W06
 BYTE   N22  Dn1  v112
 BYTE   N04  Ds2  v068
 BYTE   W06
 BYTE   N11  Ds2  v076
 BYTE   W12
 BYTE   N10  Cn1  v127
 BYTE   N11  Ds2  v076
 BYTE   W11
 BYTE   PEND 
// 002   ----------------------------------------
Label_9_012A0F05:
 BYTE   W01
 BYTE   N04  Cn1  v127
 BYTE   N04  Ds2  v068
 BYTE   W06
 BYTE   N22  Dn1  v112
 BYTE   N04  Ds2  v068
 BYTE   W06
 BYTE   N10  Cn1  v127
 BYTE   N11  Ds2  v076
 BYTE   W12
 BYTE   N10  Cn1  v127
 BYTE   N11  Ds2  v076
 BYTE   W12
 BYTE   N04  Cn1  v127
 BYTE   N04  Ds2  v068
 BYTE   W06
 BYTE   N22  Dn1  v112
 BYTE   N04  Ds2  v068
 BYTE   W06
 BYTE   N11  Ds2  v076
 BYTE   W12
 BYTE   N10  Cn1  v127
 BYTE   N11  Ds2  v076
 BYTE   W12
 BYTE   N04  Cn1  v127
 BYTE   N04  Ds2  v068
 BYTE   W06
 BYTE   Dn1  v112
 BYTE   N04  Ds2  v068
 BYTE   W06
 BYTE   Dn1  v112
 BYTE   N11  Ds2  v076
 BYTE   W06
 BYTE   N04  Dn1  v112
 BYTE   W05
 BYTE   PEND 
// 003   ----------------------------------------
Label_9_012A0F53:
 BYTE   W01
 BYTE   N10  Cn1  v127
 BYTE   N68  Cs2  v112
 BYTE   W12
 BYTE   N04  Cn1  v127
 BYTE   N04  Ds2  v068
 BYTE   W06
 BYTE   N22  Dn1  v112
 BYTE   N04  Ds2  v068
 BYTE   W06
 BYTE   N11  Ds2  v076
 BYTE   W12
 BYTE   N10  Cn1  v127
 BYTE   N11  Ds2  v076
 BYTE   W12
 BYTE   N04  Cn1  v127
 BYTE   N11  Ds2  v068
 BYTE   W06
 BYTE   N22  Dn1  v112
 BYTE   W06
 BYTE   N10  Cn1  v127
 BYTE   N11  Ds2  v076
 BYTE   W12
 BYTE   N10  Cn1  v127
 BYTE   N11  Ds2  v076
 BYTE   W12
 BYTE   N04  Cn1  v127
 BYTE   N04  Ds2  v068
 BYTE   W06
 BYTE   N22  Dn1  v112
 BYTE   N04  Ds2  v068
 BYTE   W05
 BYTE   PEND 
// 004   ----------------------------------------
 BYTE   PATT
  POIN2 Label_9_012A0EC0
// 005   ----------------------------------------
Label_9_012A0FA1:
 BYTE   W01
 BYTE   N04  Cn1  v127
 BYTE   N04  Ds2  v068
 BYTE   W06
 BYTE   N22  Dn1  v112
 BYTE   N04  Ds2  v068
 BYTE   W06
 BYTE   N10  Cn1  v127
 BYTE   N11  Ds2  v076
 BYTE   W12
 BYTE   N10  Cn1  v127
 BYTE   N11  Ds2  v076
 BYTE   W12
 BYTE   N04  Cn1  v127
 BYTE   N04  Ds2  v068
 BYTE   W06
 BYTE   N22  Dn1  v112
 BYTE   N04  Ds2  v068
 BYTE   W06
 BYTE   N11  Ds2  v076
 BYTE   W12
 BYTE   N10  Cn1  v127
 BYTE   N11  Ds2  v076
 BYTE   W12
 BYTE   N04  Cn1  v127
 BYTE   N04  Ds2  v068
 BYTE   W06
 BYTE   N10  Dn1  v112
 BYTE   N04  Ds2  v068
 BYTE   W06
 BYTE   N11  Ds2  v076
 BYTE   W06
 BYTE   N04  Dn1  v112
 BYTE   W05
 BYTE   PEND 
// 006   ----------------------------------------
 BYTE   W01
 BYTE   N10  Cn1  v127
 BYTE   N11  Ds2  v076
 BYTE   W12
 BYTE   N04  Cn1  v127
 BYTE   N04  Ds2  v068
 BYTE   W06
 BYTE   N22  Dn1  v112
 BYTE   N04  Ds2  v068
 BYTE   W06
 BYTE   N11  Ds2  v076
 BYTE   W12
 BYTE   N10  Cn1  v127
 BYTE   N11  Ds2  v076
 BYTE   W12
 BYTE   N04  Cn1  v127
 BYTE   N11  Ds2  v068
 BYTE   W06
 BYTE   N22  Dn1  v112
 BYTE   W06
 BYTE   N10  Cn1  v127
 BYTE   N11  Ds2  v076
 BYTE   W12
 BYTE   N10  Cn1  v127
 BYTE   N11  Ds2  v076
 BYTE   W12
 BYTE   N04  Cn1  v127
 BYTE   N04  Ds2  v068
 BYTE   W06
 BYTE   N22  Dn1  v112
 BYTE   N04  Ds2  v068
 BYTE   W05
// 007   ----------------------------------------
 BYTE   PATT
  POIN2 Label_9_012A0EC0
// 008   ----------------------------------------
 BYTE   W01
 BYTE   N04  Cn1  v127
 BYTE   N04  Ds2  v068
 BYTE   W06
 BYTE   N22  Dn1  v112
 BYTE   N04  Ds2  v068
 BYTE   W06
 BYTE   N10  Cn1  v127
 BYTE   N11  Ds2  v076
 BYTE   W12
 BYTE   N04  Cn1  v127
 BYTE   N11  Ds2  v076
 BYTE   W06
 BYTE   N04  Cn1  v127
 BYTE   W06
 BYTE   N04
 BYTE   N04  Ds2  v068
 BYTE   W06
 BYTE   N22  Dn1  v112
 BYTE   N04  Ds2  v068
 BYTE   W06
 BYTE   N11  Ds2  v076
 BYTE   W12
 BYTE   N04  Cn1  v127
 BYTE   N11  Ds2  v076
 BYTE   W06
 BYTE   N04  Cn1  v127
 BYTE   W06
 BYTE   N04
 BYTE   N04  Ds2  v068
 BYTE   W06
 BYTE   Dn1  v112
 BYTE   N04  Ds2  v068
 BYTE   W06
 BYTE   Dn1  v112
 BYTE   N11  Ds2  v076
 BYTE   W06
 BYTE   N04  Dn1  v112
 BYTE   W05
// 009   ----------------------------------------
 BYTE   PATT
  POIN2 Label_9_012A0F53
// 010   ----------------------------------------
 BYTE   PATT
  POIN2 Label_9_012A0EC0
// 011   ----------------------------------------
 BYTE   PATT
  POIN2 Label_9_012A0FA1
// 012   ----------------------------------------
 BYTE   W01
 BYTE   N10  Cn1  v127
 BYTE   N68  Cs2  v112
 BYTE   W12
 BYTE   N04  Cn1  v127
 BYTE   N04  Ds2  v068
 BYTE   W06
 BYTE   N22  Dn1  v112
 BYTE   N04  Ds2  v068
 BYTE   W06
 BYTE   N11  Ds2  v076
 BYTE   W12
 BYTE   N10  Cn1  v127
 BYTE   N11  Ds2  v076
 BYTE   W12
 BYTE   N04  Cn1  v127
 BYTE   N11  Ds2  v068
 BYTE   W06
 BYTE   N22  Dn1  v112
 BYTE   W06
 BYTE   N10  Cn1  v127
 BYTE   N11  Ds2  v076
 BYTE   W12
 BYTE   N10  Cn1  v127
 BYTE   N32  Cs2  v112
 BYTE   W12
 BYTE   N04  Cn1  v127
 BYTE   N04  Ds2  v068
 BYTE   W06
 BYTE   N22  Dn1  v112
 BYTE   N04  Ds2  v068
 BYTE   W05
// 013   ----------------------------------------
 BYTE   W01
 BYTE   N11  Ds2  v076
 BYTE   W12
 BYTE   N10  Cn1  v127
 BYTE   N32  Cs2  v112
 BYTE   W12
 BYTE   N04  Cn1  v127
 BYTE   N04  Ds2  v068
 BYTE   W06
 BYTE   N22  Dn1  v112
 BYTE   N04  Ds2  v076
 BYTE   W06
 BYTE   N10  Cn1  v127
 BYTE   N04  Ds2  v068
 BYTE   W06
 BYTE   Ds2  v076
 BYTE   W06
 BYTE   N10  Cn1  v127
 BYTE   N68  Cs2  v112
 BYTE   W12
 BYTE   N04  Cn1  v127
 BYTE   N04  Ds2  v068
 BYTE   W06
 BYTE   N22  Dn1  v112
 BYTE   N04  Ds2  v068
 BYTE   W06
 BYTE   N11  Ds2  v076
 BYTE   W12
 BYTE   N10  Cn1  v127
 BYTE   N11  Ds2  v076
 BYTE   W11
// 014   ----------------------------------------
Label_9_012A1127:
 BYTE   W01
 BYTE   N04  Cn1  v127
 BYTE   N04  Ds2  v068
 BYTE   W06
 BYTE   N22  Dn1  v112
 BYTE   N04  Ds2  v068
 BYTE   W06
 BYTE   N10  Cn1  v127
 BYTE   N11  Ds2  v076
 BYTE   W12
 BYTE   N10  Cn1  v127
 BYTE   N68  Cs2  v112
 BYTE   W12
 BYTE   N04  Cn1  v127
 BYTE   N04  Ds2  v068
 BYTE   W06
 BYTE   N22  Dn1  v112
 BYTE   N04  Ds2  v068
 BYTE   W06
 BYTE   N11  Ds2  v076
 BYTE   W12
 BYTE   N10  Cn1  v127
 BYTE   N11  Ds2  v076
 BYTE   W12
 BYTE   N04  Cn1  v127
 BYTE   N04  Ds2  v068
 BYTE   W06
 BYTE   Dn1  v112
 BYTE   N04  Ds2  v068
 BYTE   W06
 BYTE   Dn1  v112
 BYTE   N11  Ds2  v076
 BYTE   W06
 BYTE   N04  Dn1  v112
 BYTE   W05
 BYTE   PEND 
// 015   ----------------------------------------
Label_9_012A1175:
 BYTE   W01
 BYTE   N10  Cn1  v127
 BYTE   N68  Cs2  v112
 BYTE   W12
 BYTE   N04  Cn1  v127
 BYTE   N04  Ds2  v068
 BYTE   W06
 BYTE   N22  Dn1  v112
 BYTE   N04  Ds2  v068
 BYTE   W06
 BYTE   N11  Ds2  v076
 BYTE   W12
 BYTE   N10  Cn1  v127
 BYTE   N11  Ds2  v076
 BYTE   W12
 BYTE   N04  Cn1  v127
 BYTE   N04  Ds2  v068
 BYTE   W06
 BYTE   N22  Dn1  v112
 BYTE   N04  Ds2  v068
 BYTE   W06
 BYTE   N10  Cn1  v127
 BYTE   N11  Ds2  v076
 BYTE   W12
 BYTE   N10  Cn1  v127
 BYTE   N11  Ds2  v076
 BYTE   W12
 BYTE   N04  Cn1  v127
 BYTE   N04  Ds2  v068
 BYTE   W06
 BYTE   N22  Dn1  v112
 BYTE   N04  Ds2  v068
 BYTE   W05
 BYTE   PEND 
// 016   ----------------------------------------
Label_9_012A11C1:
 BYTE   W01
 BYTE   N11  Ds2  v076
 BYTE   W12
 BYTE   N10  Cn1  v127
 BYTE   N11  Ds2  v076
 BYTE   W12
 BYTE   N04  Cn1  v127
 BYTE   N04  Ds2  v068
 BYTE   W06
 BYTE   N22  Dn1  v112
 BYTE   N04  Ds2  v068
 BYTE   W06
 BYTE   N10  Cn1  v127
 BYTE   N11  Ds2  v076
 BYTE   W12
 BYTE   N10  Cn1  v127
 BYTE   N11  Ds2  v076
 BYTE   W12
 BYTE   N04  Cn1  v127
 BYTE   N04  Ds2  v068
 BYTE   W06
 BYTE   N22  Dn1  v112
 BYTE   N04  Ds2  v068
 BYTE   W06
 BYTE   N11  Ds2  v076
 BYTE   W12
 BYTE   N10  Cn1  v127
 BYTE   N11  Ds2  v076
 BYTE   W11
 BYTE   PEND 
// 017   ----------------------------------------
 BYTE   PATT
  POIN2 Label_9_012A0FA1
// 018   ----------------------------------------
 BYTE   PATT
  POIN2 Label_9_012A1175
// 019   ----------------------------------------
 BYTE   W01
 BYTE   N11  Ds2  v076
 BYTE   W12
 BYTE   N10  Cn1  v127
 BYTE   N11  Ds2  v076
 BYTE   W12
 BYTE   N04  Cn1  v127
 BYTE   N04  Ds2  v068
 BYTE   W06
 BYTE   N22  Dn1  v112
 BYTE   N04  Ds2  v068
 BYTE   W06
 BYTE   N10  Cn1  v127
 BYTE   N11  Ds2  v076
 BYTE   W12
 BYTE   N10  Cn1  v127
 BYTE   N68  Cs2  v112
 BYTE   N11  Ds2  v076
 BYTE   W12
 BYTE   N04  Cn1  v127
 BYTE   N04  Ds2  v068
 BYTE   W06
 BYTE   N22  Dn1  v112
 BYTE   N04  Ds2  v068
 BYTE   W06
 BYTE   N11  Ds2  v076
 BYTE   W12
 BYTE   N10  Cn1  v127
 BYTE   N11  Ds2  v076
 BYTE   W11
// 020   ----------------------------------------
 BYTE   PATT
  POIN2 Label_9_012A0F05
// 021   ----------------------------------------
Label_9_012A1256:
 BYTE   W01
 BYTE   N10  Cn1  v127
 BYTE   N32  Cs2  v112
 BYTE   W12
 BYTE   N04  Cn1  v127
 BYTE   N11  Ds2  v076
 BYTE   W06
 BYTE   N22  Dn1  v112
 BYTE   W06
 BYTE   N11  Ds2  v076
 BYTE   W12
 BYTE   N10  Cn1  v127
 BYTE   N32  Cs2  v112
 BYTE   W12
 BYTE   N04  Cn1  v127
 BYTE   N11  Ds2  v076
 BYTE   W06
 BYTE   N22  Dn1  v112
 BYTE   W06
 BYTE   N10  Cn1  v127
 BYTE   N11  Ds2  v076
 BYTE   W12
 BYTE   N10  Cn1  v127
 BYTE   N32  Cs2  v112
 BYTE   W12
 BYTE   N04  Cn1  v127
 BYTE   N11  Ds2  v076
 BYTE   W06
 BYTE   N22  Dn1  v112
 BYTE   W05
 BYTE   PEND 
// 022   ----------------------------------------
Label_9_012A1299:
 BYTE   W01
 BYTE   N11  Ds2  v076
 BYTE   W12
 BYTE   N10  Cn1  v127
 BYTE   N32  Cs2  v112
 BYTE   W12
 BYTE   N04  Cn1  v127
 BYTE   N11  Ds2  v076
 BYTE   W06
 BYTE   N22  Dn1  v112
 BYTE   W06
 BYTE   N10  Cn1  v127
 BYTE   N11  Ds2  v076
 BYTE   W12
 BYTE   N10  Cn1  v127
 BYTE   N68  Cs2  v112
 BYTE   W12
 BYTE   N04  Cn1  v127
 BYTE   N04  Ds2  v068
 BYTE   W06
 BYTE   N22  Dn1  v112
 BYTE   N04  Ds2  v068
 BYTE   W06
 BYTE   N11  Ds2  v076
 BYTE   W12
 BYTE   N10  Cn1  v127
 BYTE   N11  Ds2  v076
 BYTE   W11
 BYTE   PEND 
// 023   ----------------------------------------
 BYTE   PATT
  POIN2 Label_9_012A1127
// 024   ----------------------------------------
 BYTE   PATT
  POIN2 Label_9_012A1256
// 025   ----------------------------------------
 BYTE   PATT
  POIN2 Label_9_012A1299
// 026   ----------------------------------------
 BYTE   W01
 BYTE   N04  Cn1  v127
 BYTE   N04  Ds2  v068
 BYTE   W06
 BYTE   N22  Dn1  v112
 BYTE   N04  Ds2  v068
 BYTE   W06
 BYTE   N10  Cn1  v127
 BYTE   N11  Ds2  v076
 BYTE   W12
 BYTE   N04  Cn1  v127
 BYTE   N68  Cs2  v112
 BYTE   W06
 BYTE   N04  Cn1  v127
 BYTE   W06
 BYTE   N04
 BYTE   N04  Ds2  v068
 BYTE   W06
 BYTE   N22  Dn1  v112
 BYTE   N04  Ds2  v068
 BYTE   W06
 BYTE   N11  Ds2  v076
 BYTE   W12
 BYTE   N04  Cn1  v127
 BYTE   N11  Ds2  v076
 BYTE   W06
 BYTE   N04  Cn1  v127
 BYTE   W06
 BYTE   N04
 BYTE   N04  Ds2  v068
 BYTE   W06
 BYTE   N11  Dn1  v112
 BYTE   N04  Ds2  v068
 BYTE   W06
 BYTE   N11  Ds2  v076
 BYTE   W06
 BYTE   N04  Dn1  v112
 BYTE   W05
// 027   ----------------------------------------
 BYTE   W01
 BYTE   N10  Cn1  v127
 BYTE   N32  Cs2  v112
 BYTE   W12
 BYTE   N04  Cn1  v127
 BYTE   N04  Ds2  v068
 BYTE   W06
 BYTE   N22  Dn1  v112
 BYTE   N04  Ds2  v068
 BYTE   W06
 BYTE   N11  Ds2  v076
 BYTE   W12
 BYTE   N10  Cn1  v127
 BYTE   N32  Cs2  v112
 BYTE   N11  Ds2  v076
 BYTE   W12
 BYTE   N04  Cn1  v127
 BYTE   N04  Ds2  v068
 BYTE   W06
 BYTE   Dn1  v112
 BYTE   N04  Ds2  v068
 BYTE   W06
 BYTE   Dn1  v112
 BYTE   N11  Ds2  v076
 BYTE   W06
 BYTE   N04  Dn1  v112
 BYTE   W06
 BYTE   N10  Cn1  v127
 BYTE   N68  Cs2  v112
 BYTE   W12
 BYTE   N04  Cn1  v127
 BYTE   N04  Ds2  v068
 BYTE   W06
 BYTE   N22  Dn1  v112
 BYTE   N04  Ds2  v068
 BYTE   W05
// 028   ----------------------------------------
Label_9_012A1387:
 BYTE   W01
 BYTE   N11  Ds2  v076
 BYTE   W12
 BYTE   N10  Cn1  v127
 BYTE   N11  Ds2  v076
 BYTE   W12
 BYTE   N04  Cn1  v127
 BYTE   N11  Ds2  v068
 BYTE   W06
 BYTE   N22  Dn1  v112
 BYTE   W06
 BYTE   N10  Cn1  v127
 BYTE   N11  Ds2  v076
 BYTE   W12
 BYTE   N10  Cn1  v127
 BYTE   N11  Ds2  v076
 BYTE   W12
 BYTE   N04  Cn1  v127
 BYTE   N04  Ds2  v068
 BYTE   W06
 BYTE   N22  Dn1  v112
 BYTE   N04  Ds2  v068
 BYTE   W06
 BYTE   N11  Ds2  v076
 BYTE   W12
 BYTE   N10  Cn1  v127
 BYTE   N11  Ds2  v076
 BYTE   W11
 BYTE   PEND 
// 029   ----------------------------------------
Label_9_012A13C6:
 BYTE   W01
 BYTE   N04  Cn1  v127
 BYTE   N04  Ds2  v068
 BYTE   W06
 BYTE   N22  Dn1  v112
 BYTE   N04  Ds2  v076
 BYTE   W06
 BYTE   N10  Cn1  v127
 BYTE   N04  Ds2  v068
 BYTE   W06
 BYTE   Ds2  v076
 BYTE   W06
 BYTE   N10  Cn1  v127
 BYTE   N11  Ds2  v076
 BYTE   W12
 BYTE   N04  Cn1  v127
 BYTE   N04  Ds2  v068
 BYTE   W06
 BYTE   N22  Dn1  v112
 BYTE   N04  Ds2  v068
 BYTE   W06
 BYTE   N11  Ds2  v076
 BYTE   W12
 BYTE   N10  Cn1  v127
 BYTE   N11  Ds2  v076
 BYTE   W12
 BYTE   N04  Cn1  v127
 BYTE   N04  Ds2  v068
 BYTE   W06
 BYTE   N22  Dn1  v112
 BYTE   N04  Ds2  v068
 BYTE   W06
 BYTE   N10  Cn1  v127
 BYTE   N11  Ds2  v076
 BYTE   W11
 BYTE   PEND 
// 030   ----------------------------------------
Label_9_012A1415:
 BYTE   W01
 BYTE   N10  Cn1  v127
 BYTE   N11  Ds2  v076
 BYTE   W12
 BYTE   N04  Cn1  v127
 BYTE   N04  Ds2  v068
 BYTE   W06
 BYTE   N22  Dn1  v112
 BYTE   N04  Ds2  v068
 BYTE   W06
 BYTE   N11  Ds2  v076
 BYTE   W12
 BYTE   N10  Cn1  v127
 BYTE   N11  Ds2  v076
 BYTE   W12
 BYTE   N04  Cn1  v127
 BYTE   N04  Ds2  v068
 BYTE   W06
 BYTE   N10  Dn1  v112
 BYTE   N04  Ds2  v068
 BYTE   W06
 BYTE   N11  Ds2  v076
 BYTE   W06
 BYTE   N04  Dn1  v112
 BYTE   W06
 BYTE   N10  Cn1  v127
 BYTE   N11  Ds2  v076
 BYTE   W12
 BYTE   N04  Cn1  v127
 BYTE   N04  Ds2  v068
 BYTE   W06
 BYTE   N22  Dn1  v112
 BYTE   N04  Ds2  v068
 BYTE   W05
 BYTE   PEND 
// 031   ----------------------------------------
 BYTE   PATT
  POIN2 Label_9_012A1387
// 032   ----------------------------------------
 BYTE   PATT
  POIN2 Label_9_012A13C6
// 033   ----------------------------------------
 BYTE   W01
 BYTE   N04  Cn1  v127
 BYTE   N11  Ds2  v076
 BYTE   W06
 BYTE   N04  Cn1  v127
 BYTE   W06
 BYTE   N04
 BYTE   N04  Ds2  v068
 BYTE   W06
 BYTE   N22  Dn1  v112
 BYTE   N04  Ds2  v068
 BYTE   W06
 BYTE   N11  Ds2  v076
 BYTE   W12
 BYTE   N04  Cn1  v127
 BYTE   N11  Ds2  v076
 BYTE   W06
 BYTE   N04  Cn1  v127
 BYTE   W06
 BYTE   N04
 BYTE   N04  Ds2  v068
 BYTE   W06
 BYTE   Dn1  v112
 BYTE   N04  Ds2  v068
 BYTE   W06
 BYTE   Dn1  v112
 BYTE   N11  Ds2  v076
 BYTE   W06
 BYTE   N04  Dn1  v112
 BYTE   W06
 BYTE   N10  Cn1  v127
 BYTE   N68  Cs2  v112
 BYTE   W12
 BYTE   N04  Cn1  v127
 BYTE   N04  Ds2  v068
 BYTE   W06
 BYTE   N22  Dn1  v112
 BYTE   N04  Ds2  v068
 BYTE   W05
// 034   ----------------------------------------
 BYTE   PATT
  POIN2 Label_9_012A1387
// 035   ----------------------------------------
 BYTE   PATT
  POIN2 Label_9_012A13C6
// 036   ----------------------------------------
 BYTE   W01
 BYTE   N10  Cn1  v127
 BYTE   N11  Ds2  v076
 BYTE   W12
 BYTE   N04  Cn1  v127
 BYTE   N04  Ds2  v068
 BYTE   W06
 BYTE   N22  Dn1  v112
 BYTE   N04  Ds2  v068
 BYTE   W06
 BYTE   N11  Ds2  v076
 BYTE   W12
 BYTE   N10  Cn1  v127
 BYTE   N11  Ds2  v076
 BYTE   W12
 BYTE   N04  Cn1  v127
 BYTE   N04  Ds2  v068
 BYTE   W06
 BYTE   N10  Dn1  v112
 BYTE   N04  Ds2  v068
 BYTE   W06
 BYTE   N11  Ds2  v076
 BYTE   W06
 BYTE   N04  Dn1  v112
 BYTE   W06
 BYTE   N10  Cn1  v127
 BYTE   N68  Cs2  v112
 BYTE   W12
 BYTE   N04  Cn1  v127
 BYTE   N04  Ds2  v068
 BYTE   W06
 BYTE   N22  Dn1  v112
 BYTE   N04  Ds2  v068
 BYTE   W05
// 037   ----------------------------------------
 BYTE   W01
 BYTE   N11  Ds2  v076
 BYTE   W12
 BYTE   N10  Cn1  v127
 BYTE   N11  Ds2  v076
 BYTE   W12
 BYTE   N04  Cn1  v127
 BYTE   N11  Ds2  v068
 BYTE   W06
 BYTE   N22  Dn1  v112
 BYTE   W06
 BYTE   N10  Cn1  v127
 BYTE   N11  Ds2  v076
 BYTE   W12
 BYTE   N10  Cn1  v127
 BYTE   N32  Cs2  v112
 BYTE   W12
 BYTE   N04  Cn1  v127
 BYTE   N04  Ds2  v068
 BYTE   W06
 BYTE   N22  Dn1  v112
 BYTE   N04  Ds2  v068
 BYTE   W06
 BYTE   N11  Ds2  v076
 BYTE   W12
 BYTE   N10  Cn1  v127
 BYTE   N32  Cs2  v112
 BYTE   W11
// 038   ----------------------------------------
 BYTE   W01
 BYTE   N04  Cn1  v127
 BYTE   N04  Ds2  v068
 BYTE   W06
 BYTE   N22  Dn1  v112
 BYTE   N04  Ds2  v076
 BYTE   W06
 BYTE   N10  Cn1  v127
 BYTE   N04  Ds2  v068
 BYTE   W06
 BYTE   Ds2  v076
 BYTE   W06
 BYTE   N10  Cn1  v127
 BYTE   N68  Cs2  v112
 BYTE   W12
 BYTE   N04  Cn1  v127
 BYTE   N04  Ds2  v068
 BYTE   W06
 BYTE   N22  Dn1  v112
 BYTE   N04  Ds2  v068
 BYTE   W06
 BYTE   N11  Ds2  v076
 BYTE   W12
 BYTE   N10  Cn1  v127
 BYTE   N11  Ds2  v076
 BYTE   W12
 BYTE   N04  Cn1  v127
 BYTE   N04  Ds2  v068
 BYTE   W06
 BYTE   N22  Dn1  v112
 BYTE   N04  Ds2  v068
 BYTE   W06
 BYTE   N10  Cn1  v127
 BYTE   N11  Ds2  v076
 BYTE   W11
// 039   ----------------------------------------
 BYTE   W01
 BYTE   N10  Cn1  v127
 BYTE   N68  Cs2  v112
 BYTE   W12
 BYTE   N04  Cn1  v127
 BYTE   N04  Ds2  v068
 BYTE   W06
 BYTE   N22  Dn1  v112
 BYTE   N04  Ds2  v068
 BYTE   W06
 BYTE   N11  Ds2  v076
 BYTE   W12
 BYTE   N10  Cn1  v127
 BYTE   N11  Ds2  v076
 BYTE   W12
 BYTE   N04  Cn1  v127
 BYTE   N04  Ds2  v068
 BYTE   W06
 BYTE   Dn1  v112
 BYTE   N04  Ds2  v068
 BYTE   W06
 BYTE   Dn1  v112
 BYTE   N11  Ds2  v076
 BYTE   W06
 BYTE   N04  Dn1  v112
 BYTE   W06
 BYTE   N10  Cn1  v127
 BYTE   N68  Cs2  v112
 BYTE   W12
 BYTE   N04  Cn1  v127
 BYTE   N04  Ds2  v068
 BYTE   W06
 BYTE   N22  Dn1  v112
 BYTE   N04  Ds2  v068
 BYTE   W05
// 040   ----------------------------------------
 BYTE   PATT
  POIN2 Label_9_012A11C1
// 041   ----------------------------------------
Label_9_012A15F1:
 BYTE   W01
 BYTE   N04  Cn1  v127
 BYTE   N04  Ds2  v068
 BYTE   W06
 BYTE   N22  Dn1  v112
 BYTE   N04  Ds2  v068
 BYTE   W06
 BYTE   N10  Cn1  v127
 BYTE   N11  Ds2  v076
 BYTE   W12
 BYTE   N10  Cn1  v127
 BYTE   N11  Ds2  v076
 BYTE   W12
 BYTE   N04  Cn1  v127
 BYTE   N04  Ds2  v068
 BYTE   W06
 BYTE   N22  Dn1  v112
 BYTE   N04  Ds2  v068
 BYTE   W06
 BYTE   N11  Ds2  v076
 BYTE   W12
 BYTE   N10  Cn1  v127
 BYTE   N11  Ds2  v076
 BYTE   W12
 BYTE   N04  Cn1  v127
 BYTE   N04  Ds2  v068
 BYTE   W06
 BYTE   N22  Dn1  v112
 BYTE   N04  Ds2  v068
 BYTE   W06
 BYTE   N10  Cn1  v127
 BYTE   N11  Ds2  v076
 BYTE   W11
 BYTE   PEND 
// 042   ----------------------------------------
 BYTE   PATT
  POIN2 Label_9_012A1415
// 043   ----------------------------------------
 BYTE   PATT
  POIN2 Label_9_012A11C1
// 044   ----------------------------------------
 BYTE   PATT
  POIN2 Label_9_012A15F1
// 045   ----------------------------------------
 BYTE   W01
 BYTE   N10  Cn1  v127
 BYTE   N11  Ds2  v076
 BYTE   W12
 BYTE   N04  Cn1  v127
 BYTE   N04  Ds2  v068
 BYTE   W06
 BYTE   N22  Dn1  v112
 BYTE   N04  Ds2  v068
 BYTE   W06
 BYTE   N11  Ds2  v076
 BYTE   W12
 BYTE   N10  Cn1  v127
 BYTE   N11  Ds2  v076
 BYTE   W12
 BYTE   N04  Cn1  v127
 BYTE   N04  Ds2  v068
 BYTE   W06
 BYTE   Dn1  v112
 BYTE   N04  Ds2  v068
 BYTE   W06
 BYTE   Dn1  v112
 BYTE   N11  Ds2  v076
 BYTE   W06
 BYTE   N04  Dn1  v112
 BYTE   W06
 BYTE   N10  Cn1  v127
 BYTE   N68  Cs2  v112
 BYTE   W12
 BYTE   N04  Cn1  v127
 BYTE   N04  Ds2  v068
 BYTE   W06
 BYTE   N22  Dn1  v112
 BYTE   N04  Ds2  v068
 BYTE   W05
// 046   ----------------------------------------
 BYTE   PATT
  POIN2 Label_9_012A11C1
// 047   ----------------------------------------
 BYTE   PATT
  POIN2 Label_9_012A15F1
// 048   ----------------------------------------
 BYTE   W01
 BYTE   N10  Cn1  v127
 BYTE   N11  Ds2  v076
 BYTE   W12
 BYTE   N04  Cn1  v127
 BYTE   N04  Ds2  v068
 BYTE   W06
 BYTE   N22  Dn1  v112
 BYTE   N04  Ds2  v068
 BYTE   W06
 BYTE   N11  Ds2  v076
 BYTE   W12
 BYTE   N10  Cn1  v127
 BYTE   N11  Ds2  v076
 BYTE   W12
 BYTE   N04  Cn1  v127
 BYTE   N04  Ds2  v068
 BYTE   W06
 BYTE   Dn1  v112
 BYTE   N04  Ds2  v068
 BYTE   W06
 BYTE   Dn1  v112
 BYTE   N11  Ds2  v076
 BYTE   W06
 BYTE   N04  Dn1  v112
 BYTE   W06
 BYTE   N10  Cn1  v127
 BYTE   N68  Cs2  v112
 BYTE   N11  Ds2  v076
 BYTE   W12
 BYTE   N04  Cn1  v127
 BYTE   N04  Ds2  v068
 BYTE   W06
 BYTE   N22  Dn1  v112
 BYTE   N04  Ds2  v068
 BYTE   W05
// 049   ----------------------------------------
 BYTE   PATT
  POIN2 Label_9_012A11C1
// 050   ----------------------------------------
 BYTE   W01
 BYTE   N04  Cn1  v127
 BYTE   N04  Ds2  v068
 BYTE   W06
 BYTE   N22  Dn1  v112
 BYTE   N04  Ds2  v068
 BYTE   W06
 BYTE   N10  Cn1  v127
 BYTE   N11  Ds2  v076
 BYTE   W12
 BYTE   N10  Cn1  v127
 BYTE   N68  Cs2  v112
 BYTE   N11  Ds2  v076
 BYTE   W12
 BYTE   N04  Cn1  v127
 BYTE   N04  Ds2  v068
 BYTE   W06
 BYTE   N22  Dn1  v112
 BYTE   N04  Ds2  v068
 BYTE   W06
 BYTE   N11  Ds2  v076
 BYTE   W12
 BYTE   N10  Cn1  v127
 BYTE   N11  Ds2  v076
 BYTE   W12
 BYTE   N04  Cn1  v127
 BYTE   N04  Ds2  v068
 BYTE   W06
 BYTE   N22  Dn1  v112
 BYTE   N04  Ds2  v068
 BYTE   W06
 BYTE   N10  Cn1  v127
 BYTE   N11  Ds2  v076
 BYTE   W11
// 051   ----------------------------------------
 BYTE   W01
 BYTE   N04  Cn1  v127
 BYTE   N32  Cs2  v112
 BYTE   N11  Ds2  v076
 BYTE   W06
 BYTE   N04  Cn1  v127
 BYTE   W06
 BYTE   N04
 BYTE   N04  Ds2  v068
 BYTE   W06
 BYTE   N22  Dn1  v112
 BYTE   N04  Ds2  v068
 BYTE   W06
 BYTE   N11  Ds2  v076
 BYTE   W12
 BYTE   N04  Cn1  v127
 BYTE   N32  Cs2  v112
 BYTE   N11  Ds2  v076
 BYTE   W06
 BYTE   N04  Cn1  v127
 BYTE   W06
 BYTE   N04
 BYTE   N04  Ds2  v068
 BYTE   W06
 BYTE   N11  Dn1  v112
 BYTE   N04  Ds2  v068
 BYTE   W06
 BYTE   N11  Ds2  v076
 BYTE   W06
 BYTE   N04  Dn1  v112
 BYTE   W06
 BYTE   N10  Cn1  v127
 BYTE   N32  Cs2  v112
 BYTE   W12
 BYTE   N04  Cn1  v127
 BYTE   W06
 BYTE   N22  Dn1  v112
 BYTE   W05
// 052   ----------------------------------------
 BYTE   W13
 BYTE   N10  Cn1  v127
 BYTE   N32  Cs2  v112
 BYTE   W12
 BYTE   N04  Cn1  v127
 BYTE   W06
 BYTE   Dn1  v112
 BYTE   W06
 BYTE   N04
 BYTE   W06
 BYTE   N04
 BYTE   W06
 BYTE   N10  Cn1  v127
 BYTE   N68  Cs2  v112
 BYTE   W12
 BYTE   N04  Cn1  v127
 BYTE   N04  Ds2  v068
 BYTE   W06
 BYTE   N22  Dn1  v112
 BYTE   N04  Ds2  v068
 BYTE   W06
 BYTE   N11  Ds2  v076
 BYTE   W12
 BYTE   N10  Cn1  v127
 BYTE   N11  Ds2  v076
 BYTE   W11
// 053   ----------------------------------------
Label_9_012A17C9:
 BYTE   W01
 BYTE   N04  Cn1  v127
 BYTE   N11  Ds2  v068
 BYTE   W06
 BYTE   N22  Dn1  v112
 BYTE   W06
 BYTE   N10  Cn1  v127
 BYTE   N11  Ds2  v076
 BYTE   W12
 BYTE   N10  Cn1  v127
 BYTE   N11  Ds2  v076
 BYTE   W12
 BYTE   N04  Cn1  v127
 BYTE   N04  Ds2  v068
 BYTE   W06
 BYTE   N22  Dn1  v112
 BYTE   N04  Ds2  v068
 BYTE   W06
 BYTE   N11  Ds2  v076
 BYTE   W12
 BYTE   N10  Cn1  v127
 BYTE   N11  Ds2  v076
 BYTE   W12
 BYTE   N04  Cn1  v127
 BYTE   N04  Ds2  v068
 BYTE   W06
 BYTE   N22  Dn1  v112
 BYTE   N04  Ds2  v076
 BYTE   W06
 BYTE   N10  Cn1  v127
 BYTE   N04  Ds2  v068
 BYTE   W06
 BYTE   Ds2  v076
 BYTE   W05
 BYTE   PEND 
// 054   ----------------------------------------
Label_9_012A1815:
 BYTE   W01
 BYTE   N10  Cn1  v127
 BYTE   N11  Ds2  v076
 BYTE   W12
 BYTE   N04  Cn1  v127
 BYTE   N04  Ds2  v068
 BYTE   W06
 BYTE   N22  Dn1  v112
 BYTE   N04  Ds2  v068
 BYTE   W06
 BYTE   N11  Ds2  v076
 BYTE   W12
 BYTE   N10  Cn1  v127
 BYTE   N11  Ds2  v076
 BYTE   W12
 BYTE   N04  Cn1  v127
 BYTE   N04  Ds2  v068
 BYTE   W06
 BYTE   N22  Dn1  v112
 BYTE   N04  Ds2  v068
 BYTE   W06
 BYTE   N10  Cn1  v127
 BYTE   N11  Ds2  v076
 BYTE   W12
 BYTE   N10  Cn1  v127
 BYTE   N11  Ds2  v076
 BYTE   W12
 BYTE   N04  Cn1  v127
 BYTE   N04  Ds2  v068
 BYTE   W06
 BYTE   N22  Dn1  v112
 BYTE   N04  Ds2  v068
 BYTE   W05
 BYTE   PEND 
// 055   ----------------------------------------
Label_9_012A1861:
 BYTE   W01
 BYTE   N11  Ds2  v076
 BYTE   W12
 BYTE   N10  Cn1  v127
 BYTE   N11  Ds2  v076
 BYTE   W12
 BYTE   N04  Cn1  v127
 BYTE   N04  Ds2  v068
 BYTE   W06
 BYTE   N10  Dn1  v112
 BYTE   N04  Ds2  v068
 BYTE   W06
 BYTE   N11  Ds2  v076
 BYTE   W06
 BYTE   N04  Dn1  v112
 BYTE   W06
 BYTE   N10  Cn1  v127
 BYTE   N11  Ds2  v076
 BYTE   W12
 BYTE   N04  Cn1  v127
 BYTE   N04  Ds2  v068
 BYTE   W06
 BYTE   N22  Dn1  v112
 BYTE   N04  Ds2  v068
 BYTE   W06
 BYTE   N11  Ds2  v076
 BYTE   W12
 BYTE   N10  Cn1  v127
 BYTE   N11  Ds2  v076
 BYTE   W11
 BYTE   PEND 
// 056   ----------------------------------------
 BYTE   PATT
  POIN2 Label_9_012A17C9
// 057   ----------------------------------------
 BYTE   W01
 BYTE   N10  Cn1  v127
 BYTE   N11  Ds2  v076
 BYTE   W12
 BYTE   N04  Cn1  v127
 BYTE   N04  Ds2  v068
 BYTE   W06
 BYTE   N22  Dn1  v112
 BYTE   N04  Ds2  v068
 BYTE   W06
 BYTE   N11  Ds2  v076
 BYTE   W12
 BYTE   N10  Cn1  v127
 BYTE   N11  Ds2  v076
 BYTE   W12
 BYTE   N04  Cn1  v127
 BYTE   N04  Ds2  v068
 BYTE   W06
 BYTE   N22  Dn1  v112
 BYTE   N04  Ds2  v068
 BYTE   W06
 BYTE   N10  Cn1  v127
 BYTE   N11  Ds2  v076
 BYTE   W12
 BYTE   N04  Cn1  v127
 BYTE   N11  Ds2  v076
 BYTE   W06
 BYTE   N04  Cn1  v127
 BYTE   W06
 BYTE   N04
 BYTE   N04  Ds2  v068
 BYTE   W06
 BYTE   N22  Dn1  v112
 BYTE   N04  Ds2  v068
 BYTE   W05
// 058   ----------------------------------------
 BYTE   W01
 BYTE   N11  Ds2  v076
 BYTE   W12
 BYTE   N04  Cn1  v127
 BYTE   N11  Ds2  v076
 BYTE   W06
 BYTE   N04  Cn1  v127
 BYTE   W06
 BYTE   N04
 BYTE   N04  Ds2  v068
 BYTE   W06
 BYTE   Dn1  v112
 BYTE   N04  Ds2  v068
 BYTE   W06
 BYTE   Dn1  v112
 BYTE   N11  Ds2  v076
 BYTE   W06
 BYTE   N04  Dn1  v112
 BYTE   W06
 BYTE   N10  Cn1  v127
 BYTE   N68  Cs2  v112
 BYTE   W12
 BYTE   N04  Cn1  v127
 BYTE   N04  Ds2  v068
 BYTE   W06
 BYTE   N22  Dn1  v112
 BYTE   N04  Ds2  v068
 BYTE   W06
 BYTE   N11  Ds2  v076
 BYTE   W12
 BYTE   N10  Cn1  v127
 BYTE   N11  Ds2  v076
 BYTE   W11
// 059   ----------------------------------------
 BYTE   PATT
  POIN2 Label_9_012A17C9
// 060   ----------------------------------------
 BYTE   PATT
  POIN2 Label_9_012A1815
// 061   ----------------------------------------
 BYTE   PATT
  POIN2 Label_9_012A1861
// 062   ----------------------------------------
 BYTE   PATT
  POIN2 Label_9_012A17C9
// 063   ----------------------------------------
 BYTE   PATT
  POIN2 Label_9_012A1815
// 064   ----------------------------------------
 BYTE   W01
 BYTE   N11  Ds2  v076
 BYTE   W12
 BYTE   N10  Cn1  v127
 BYTE   N11  Ds2  v076
 BYTE   W12
 BYTE   N04  Cn1  v127
 BYTE   N04  Ds2  v068
 BYTE   W06
 BYTE   Dn1  v112
 BYTE   N04  Ds2  v068
 BYTE   W06
 BYTE   Dn1  v112
 BYTE   N10  Ds2  v076
 BYTE   W06
 BYTE   N04  Dn1  v112
 BYTE   W04
 BYTE   GoTo
  POIN2 Label_9_012A0E70
 BYTE   FINE

//**************** Track 11 (Midi-Chn.10) ****************//

song58_011:
// 000   ----------------------------------------
 BYTE   KEYSH   song58_key+0
Label_10_012A197F:
 BYTE   VOICE   81
 BYTE   VOL   25*song58_mvl/mxv
 BYTE   PAN   c_v+26
 BYTE   BEND   c_v-1
 BYTE   W96
// 001   ----------------------------------------
 BYTE   W96
// 002   ----------------------------------------
 BYTE   W96
// 003   ----------------------------------------
 BYTE   W15
 BYTE   Dn2
 BYTE   N11  Cn3  v127
 BYTE   W01
 BYTE   BEND   c_v-6
 BYTE   W02
 BYTE   As2
 BYTE   W01
 BYTE   Cs3
 BYTE   W02
 BYTE   Dn3
 BYTE   W01
 BYTE   Dn3
 BYTE   W02
 BYTE   Ds3
 BYTE   W03
 BYTE   N11  Gn3
 BYTE   W12
 BYTE   Cn4
 BYTE   W12
 BYTE   As3
 BYTE   W12
 BYTE   Ds4
 BYTE   W12
 BYTE   Dn4
 BYTE   W12
 BYTE   BEND   c_v-14
 BYTE   N32  Cn4
 BYTE   W01
 BYTE   BEND   c_v-9
 BYTE   W02
 BYTE   Fs2
 BYTE   W01
 BYTE   As2
 BYTE   W02
 BYTE   Bn2
 BYTE   W01
 BYTE   Bn2
 BYTE   W02
// 004   ----------------------------------------
 BYTE   Cn3
 BYTE   W01
 BYTE   Cs3
 BYTE   W02
 BYTE   Cs3
 BYTE   W01
 BYTE   Cs3
 BYTE   W02
 BYTE   Dn3
 BYTE   W01
 BYTE   Dn3
 BYTE   W02
 BYTE   Dn3
 BYTE   W03
 BYTE   Dn3
 BYTE   W01
 BYTE   Dn3
 BYTE   W05
 BYTE   Ds3
 BYTE   W09
 BYTE   N32  Gn3
 BYTE   W36
 BYTE   N44  An3
 BYTE   W32
 BYTE   W01
// 005   ----------------------------------------
 BYTE   W15
 BYTE   N11  As3
 BYTE   W12
 BYTE   Cn4
 BYTE   W12
 BYTE   BEND   c_v-14
 BYTE   N68  Dn4
 BYTE   W01
 BYTE   BEND   c_v-10
 BYTE   W02
 BYTE   Gn2
 BYTE   W01
 BYTE   Gn2
 BYTE   W02
 BYTE   Fs2
 BYTE   W01
 BYTE   An2
 BYTE   W02
 BYTE   As2
 BYTE   W01
 BYTE   As2
 BYTE   W02
 BYTE   Bn2
 BYTE   W01
 BYTE   Bn2
 BYTE   W02
 BYTE   Bn2
 BYTE   W01
 BYTE   Cn3
 BYTE   W02
 BYTE   Cn3
 BYTE   W01
 BYTE   As2
 BYTE   W02
 BYTE   Cs3
 BYTE   W01
 BYTE   Cs3
 BYTE   W02
 BYTE   Cs3
 BYTE   W01
 BYTE   Cs3
 BYTE   W02
 BYTE   Cs3
 BYTE   W01
 BYTE   Dn3
 BYTE   W03
 BYTE   Dn3
 BYTE   W02
 BYTE   Dn3
 BYTE   W03
 BYTE   Dn3
 BYTE   W04
 BYTE   Dn3
 BYTE   W05
 BYTE   Dn3
 BYTE   W09
 BYTE   Ds3
 BYTE   W03
// 006   ----------------------------------------
 BYTE   W15
 BYTE   Dn2
 BYTE   N32  Ds4
 BYTE   W01
 BYTE   BEND   c_v-9
 BYTE   W02
 BYTE   Fs2
 BYTE   W01
 BYTE   As2
 BYTE   W02
 BYTE   Bn2
 BYTE   W01
 BYTE   Bn2
 BYTE   W02
 BYTE   Cn3
 BYTE   W01
 BYTE   Cs3
 BYTE   W02
 BYTE   Cs3
 BYTE   W01
 BYTE   Cs3
 BYTE   W02
 BYTE   Dn3
 BYTE   W01
 BYTE   Dn3
 BYTE   W02
 BYTE   Dn3
 BYTE   W03
 BYTE   Dn3
 BYTE   W01
 BYTE   Dn3
 BYTE   W05
 BYTE   Ds3
 BYTE   W09
 BYTE   N11  Dn4
 BYTE   W12
 BYTE   Ds4
 BYTE   W12
 BYTE   Fn4
 BYTE   W12
 BYTE   N32  As3
 BYTE   W09
// 007   ----------------------------------------
 BYTE   W24
 BYTE   W03
 BYTE   Dn4
 BYTE   W36
 BYTE   BEND   c_v-1
 BYTE   N68  Cn4
 BYTE   W18
 BYTE   BEND   c_v-2
 BYTE   W09
 BYTE   Dn3
 BYTE   W06
// 008   ----------------------------------------
 BYTE   Dn3
 BYTE   W03
 BYTE   Dn3
 BYTE   W03
 BYTE   Dn3
 BYTE   W03
 BYTE   Dn3
 BYTE   W01
 BYTE   Cs3
 BYTE   W02
 BYTE   Cs3
 BYTE   W01
 BYTE   Cs3
 BYTE   W02
 BYTE   Cs3
 BYTE   W01
 BYTE   Cs3
 BYTE   W02
 BYTE   Cs3
 BYTE   W01
 BYTE   As2
 BYTE   W02
 BYTE   Cn3
 BYTE   W01
 BYTE   Cn3
 BYTE   W02
 BYTE   Bn2
 BYTE   W01
 BYTE   Bn2
 BYTE   W02
 BYTE   Bn2
 BYTE   W01
 BYTE   As2
 BYTE   W02
 BYTE   An2
 BYTE   W01
 BYTE   An2
 BYTE   W02
 BYTE   Gs2
 BYTE   W01
 BYTE   Gn2
 BYTE   W02
 BYTE   Fs2
 BYTE   W01
 BYTE   Fn2
 BYTE   W01
 BYTE   Dn2
 BYTE   W01
 BYTE   Ds3
 BYTE   N68  Fn3
 BYTE   W56
 BYTE   W01
// 009   ----------------------------------------
 BYTE   W15
 BYTE   BEND   c_v-14
 BYTE   N11  Cn3
 BYTE   W01
 BYTE   BEND   c_v-6
 BYTE   W02
 BYTE   As2
 BYTE   W01
 BYTE   Cs3
 BYTE   W02
 BYTE   Dn3
 BYTE   W01
 BYTE   Dn3
 BYTE   W02
 BYTE   Ds3
 BYTE   W03
 BYTE   N11  Gn3
 BYTE   W12
 BYTE   Cn4
 BYTE   W12
 BYTE   As3
 BYTE   W12
 BYTE   Ds4
 BYTE   W12
 BYTE   Dn4
 BYTE   W12
 BYTE   BEND   c_v-1
 BYTE   N32  Cn4
 BYTE   W09
// 010   ----------------------------------------
 BYTE   BEND   c_v-2
 BYTE   W04
 BYTE   Dn3
 BYTE   W03
 BYTE   Dn3
 BYTE   W02
 BYTE   Dn3
 BYTE   W01
 BYTE   Dn3
 BYTE   W02
 BYTE   Dn3
 BYTE   W01
 BYTE   Cs3
 BYTE   W02
 BYTE   Cs3
 BYTE   W01
 BYTE   Cn3
 BYTE   W02
 BYTE   Cn3
 BYTE   W01
 BYTE   Bn2
 BYTE   W02
 BYTE   As2
 BYTE   W01
 BYTE   An2
 BYTE   W02
 BYTE   Gs2
 BYTE   W01
 BYTE   Fs2
 BYTE   W02
 BYTE   Ds3
 BYTE   N32  Gn3
 BYTE   W09
 BYTE   BEND   c_v-2
 BYTE   W04
 BYTE   Dn3
 BYTE   W03
 BYTE   Dn3
 BYTE   W02
 BYTE   Dn3
 BYTE   W01
 BYTE   Dn3
 BYTE   W02
 BYTE   Dn3
 BYTE   W01
 BYTE   Cs3
 BYTE   W02
 BYTE   Cs3
 BYTE   W01
 BYTE   Cn3
 BYTE   W02
 BYTE   Cn3
 BYTE   W01
 BYTE   Bn2
 BYTE   W02
 BYTE   As2
 BYTE   W01
 BYTE   An2
 BYTE   W02
 BYTE   Gs2
 BYTE   W01
 BYTE   Fs2
 BYTE   W02
 BYTE   Dn2
 BYTE   N44  An3
 BYTE   W01
 BYTE   BEND   c_v-10
 BYTE   W02
 BYTE   Gn2
 BYTE   W01
 BYTE   An2
 BYTE   W02
 BYTE   As2
 BYTE   W01
 BYTE   As2
 BYTE   W02
 BYTE   Bn2
 BYTE   W01
 BYTE   Cn3
 BYTE   W02
 BYTE   Cn3
 BYTE   W01
 BYTE   Cn3
 BYTE   W02
 BYTE   Cs3
 BYTE   W01
 BYTE   Cs3
 BYTE   W02
 BYTE   Cs3
 BYTE   W01
 BYTE   Dn3
 BYTE   W02
 BYTE   Dn3
 BYTE   W01
 BYTE   Dn3
 BYTE   W02
 BYTE   Dn3
 BYTE   W03
 BYTE   Dn3
 BYTE   W03
 BYTE   Dn3
 BYTE   W03
// 011   ----------------------------------------
 BYTE   W03
 BYTE   Ds3
 BYTE   W12
 BYTE   N11  As3
 BYTE   W12
 BYTE   Cn4
 BYTE   W12
 BYTE   N32  Fn4
 BYTE   W36
 BYTE   Cn4
 BYTE   W04
 BYTE   BEND   c_v+9
 BYTE   W04
 BYTE   Ds3
 BYTE   W13
// 012   ----------------------------------------
 BYTE   W15
 BYTE   Dn2
 BYTE   N44  Gn4
 BYTE   W01
 BYTE   BEND   c_v-10
 BYTE   W02
 BYTE   Gn2
 BYTE   W01
 BYTE   An2
 BYTE   W02
 BYTE   As2
 BYTE   W01
 BYTE   As2
 BYTE   W02
 BYTE   Bn2
 BYTE   W01
 BYTE   Cn3
 BYTE   W02
 BYTE   Cn3
 BYTE   W01
 BYTE   Cn3
 BYTE   W02
 BYTE   Cs3
 BYTE   W01
 BYTE   Cs3
 BYTE   W02
 BYTE   Cs3
 BYTE   W01
 BYTE   Dn3
 BYTE   W02
 BYTE   Dn3
 BYTE   W01
 BYTE   Dn3
 BYTE   W02
 BYTE   Dn3
 BYTE   W03
 BYTE   Dn3
 BYTE   W03
 BYTE   Dn3
 BYTE   W06
 BYTE   Ds3
 BYTE   W12
 BYTE   N11  Fn4
 BYTE   W12
 BYTE   Gn4
 BYTE   W12
 BYTE   N32  Fn4
 BYTE   W09
// 013   ----------------------------------------
 BYTE   W24
 BYTE   W03
 BYTE   BEND   c_v-1
 BYTE   N32  Dn4
 BYTE   W09
 BYTE   BEND   c_v-2
 BYTE   W04
 BYTE   Dn3
 BYTE   W03
 BYTE   Dn3
 BYTE   W02
 BYTE   Dn3
 BYTE   W01
 BYTE   Dn3
 BYTE   W02
 BYTE   Dn3
 BYTE   W01
 BYTE   Cs3
 BYTE   W02
 BYTE   Cs3
 BYTE   W01
 BYTE   Cn3
 BYTE   W02
 BYTE   Cn3
 BYTE   W01
 BYTE   Bn2
 BYTE   W02
 BYTE   As2
 BYTE   W01
 BYTE   An2
 BYTE   W02
 BYTE   Gs2
 BYTE   W01
 BYTE   Fs2
 BYTE   W01
 BYTE   Dn2
 BYTE   W01
 BYTE   Dn2
 BYTE   N44  Ds4
 BYTE   W01
 BYTE   BEND   c_v-10
 BYTE   W02
 BYTE   Gn2
 BYTE   W01
 BYTE   An2
 BYTE   W02
 BYTE   As2
 BYTE   W01
 BYTE   As2
 BYTE   W02
 BYTE   Bn2
 BYTE   W01
 BYTE   Cn3
 BYTE   W02
 BYTE   Cn3
 BYTE   W01
 BYTE   Cn3
 BYTE   W02
 BYTE   Cs3
 BYTE   W01
 BYTE   Cs3
 BYTE   W02
 BYTE   Cs3
 BYTE   W01
 BYTE   Dn3
 BYTE   W02
 BYTE   Dn3
 BYTE   W01
 BYTE   Dn3
 BYTE   W02
 BYTE   Dn3
 BYTE   W03
 BYTE   Dn3
 BYTE   W03
 BYTE   Dn3
 BYTE   W03
// 014   ----------------------------------------
 BYTE   W03
 BYTE   Ds3
 BYTE   W12
 BYTE   N11  Dn4
 BYTE   W12
 BYTE   Ds4
 BYTE   W12
 BYTE   N68  Fn4
 BYTE   W56
 BYTE   W01
// 015   ----------------------------------------
 BYTE   W96
// 016   ----------------------------------------
 BYTE   W96
// 017   ----------------------------------------
 BYTE   W96
// 018   ----------------------------------------
 BYTE   W96
// 019   ----------------------------------------
 BYTE   W96
// 020   ----------------------------------------
 BYTE   W96
// 021   ----------------------------------------
 BYTE   W15
 BYTE   N04  Fs3  v108
 BYTE   W06
 BYTE   Gs3
 BYTE   W06
 BYTE   An3
 BYTE   W06
 BYTE   Bn3
 BYTE   W06
 BYTE   An3
 BYTE   W06
 BYTE   Bn3
 BYTE   W06
 BYTE   Gs3
 BYTE   W06
 BYTE   An3
 BYTE   W06
 BYTE   Bn3
 BYTE   W06
 BYTE   En4
 BYTE   W06
 BYTE   Bn3
 BYTE   W06
 BYTE   Gs3
 BYTE   W06
 BYTE   Cs4
 BYTE   W06
 BYTE   Bn3
 BYTE   W03
// 022   ----------------------------------------
 BYTE   W03
 BYTE   Cs4
 BYTE   W06
 BYTE   Dn4
 BYTE   W06
 BYTE   Cs4
 BYTE   W06
 BYTE   Bn3
 BYTE   W06
 BYTE   Dn4
 BYTE   W06
 BYTE   Bn3
 BYTE   W06
 BYTE   Fs3
 BYTE   W06
 BYTE   Cs4
 BYTE   W06
 BYTE   Dn4
 BYTE   W06
 BYTE   Fs3
 BYTE   W06
 BYTE   En4
 BYTE   W06
 BYTE   Dn4
 BYTE   W06
 BYTE   Cs4
 BYTE   W06
 BYTE   Bn3
 BYTE   W06
 BYTE   Cs4
 BYTE   W06
 BYTE   Dn4
 BYTE   W03
// 023   ----------------------------------------
 BYTE   W03
 BYTE   En4
 BYTE   W06
 BYTE   An3
 BYTE   W06
 BYTE   Fs3
 BYTE   W06
 BYTE   Dn4
 BYTE   W06
 BYTE   An3
 BYTE   W06
 BYTE   Fs3
 BYTE   W06
 BYTE   En3
 BYTE   W06
 BYTE   An3
 BYTE   W06
 BYTE   Bn3
 BYTE   W06
 BYTE   En4
 BYTE   W06
 BYTE   An4
 BYTE   W06
 BYTE   Bn4
 BYTE   W06
 BYTE   En5
 BYTE   W06
 BYTE   Bn4
 BYTE   W06
 BYTE   Gs4
 BYTE   W06
 BYTE   En4
 BYTE   W03
// 024   ----------------------------------------
 BYTE   W03
 BYTE   Bn3
 BYTE   W06
 BYTE   Gs3
 BYTE   W06
 BYTE   Fs3
 BYTE   W06
 BYTE   Gs3
 BYTE   W06
 BYTE   An3
 BYTE   W06
 BYTE   Gs3
 BYTE   W06
 BYTE   An3
 BYTE   W06
 BYTE   Bn3
 BYTE   W06
 BYTE   Gs3
 BYTE   W06
 BYTE   En3
 BYTE   W06
 BYTE   Gs3
 BYTE   W06
 BYTE   En4
 BYTE   W06
 BYTE   Bn3
 BYTE   W06
 BYTE   Gs3
 BYTE   W06
 BYTE   An3
 BYTE   W06
 BYTE   Bn3
 BYTE   W03
// 025   ----------------------------------------
 BYTE   W03
 BYTE   Cs4
 BYTE   W06
 BYTE   Bn3
 BYTE   W06
 BYTE   Cs4
 BYTE   W06
 BYTE   Dn4
 BYTE   W06
 BYTE   Fs4
 BYTE   W06
 BYTE   Dn4
 BYTE   W06
 BYTE   Bn3
 BYTE   W06
 BYTE   Dn4
 BYTE   W06
 BYTE   Bn3
 BYTE   W06
 BYTE   Fs3
 BYTE   W06
 BYTE   N11  An3
 BYTE   W12
 BYTE   Cs4
 BYTE   W12
 BYTE   En4
 BYTE   W09
// 026   ----------------------------------------
 BYTE   W03
 BYTE   BEND   c_v-14
 BYTE   N11
 BYTE   W01
 BYTE   BEND   c_v-6
 BYTE   W02
 BYTE   As2
 BYTE   W01
 BYTE   Cs3
 BYTE   W02
 BYTE   Dn3
 BYTE   W01
 BYTE   Dn3
 BYTE   W02
 BYTE   Ds3
 BYTE   W03
 BYTE   N11  Dn4
 BYTE   W12
 BYTE   An4
 BYTE   W12
 BYTE   BEND   c_v-14
 BYTE   N32  Bn4
 BYTE   W01
 BYTE   BEND   c_v-9
 BYTE   W02
 BYTE   Fs2
 BYTE   W01
 BYTE   As2
 BYTE   W02
 BYTE   Bn2
 BYTE   W01
 BYTE   Bn2
 BYTE   W02
 BYTE   Cn3
 BYTE   W01
 BYTE   Cs3
 BYTE   W02
 BYTE   Cs3
 BYTE   W01
 BYTE   Cs3
 BYTE   W02
 BYTE   Dn3
 BYTE   W01
 BYTE   Dn3
 BYTE   W02
 BYTE   Dn3
 BYTE   W03
 BYTE   Dn3
 BYTE   W01
 BYTE   Dn3
 BYTE   W05
 BYTE   Ds3
 BYTE   W09
 BYTE   N32  En4
 BYTE   W21
// 027   ----------------------------------------
 BYTE   W15
 BYTE   BEND   c_v-14
 BYTE   N32  Bn3
 BYTE   W01
 BYTE   BEND   c_v-9
 BYTE   W02
 BYTE   Fs2
 BYTE   W01
 BYTE   As2
 BYTE   W02
 BYTE   Bn2
 BYTE   W01
 BYTE   Bn2
 BYTE   W02
 BYTE   Cn3
 BYTE   W01
 BYTE   Cs3
 BYTE   W02
 BYTE   Cs3
 BYTE   W01
 BYTE   Cs3
 BYTE   W02
 BYTE   Dn3
 BYTE   W01
 BYTE   Dn3
 BYTE   W02
 BYTE   Dn3
 BYTE   W03
 BYTE   Dn3
 BYTE   W01
 BYTE   Dn3
 BYTE   W05
 BYTE   Ds3
 BYTE   W09
 BYTE   Ds3
 BYTE   N32  En4
 BYTE   W09
 BYTE   BEND   c_v-2
 BYTE   W04
 BYTE   Dn3
 BYTE   W03
 BYTE   Dn3
 BYTE   W02
 BYTE   Dn3
 BYTE   W01
 BYTE   Dn3
 BYTE   W02
 BYTE   Dn3
 BYTE   W01
 BYTE   Cs3
 BYTE   W02
 BYTE   Cs3
 BYTE   W01
 BYTE   Cn3
 BYTE   W02
 BYTE   Cn3
 BYTE   W01
 BYTE   Bn2
 BYTE   W02
 BYTE   As2
 BYTE   W01
 BYTE   An2
 BYTE   W02
 BYTE   Gs2
 BYTE   W01
 BYTE   Fs2
 BYTE   W01
 BYTE   Dn2
 BYTE   W01
 BYTE   Dn2
 BYTE   N11  Cn3  v127
 BYTE   W01
 BYTE   BEND   c_v-6
 BYTE   W02
 BYTE   As2
 BYTE   W01
 BYTE   Cs3
 BYTE   W02
 BYTE   Dn3
 BYTE   W01
 BYTE   Dn3
 BYTE   W02
// 028   ----------------------------------------
 BYTE   Ds3
 BYTE   W03
 BYTE   N11  Gn3
 BYTE   W12
 BYTE   Cn4
 BYTE   W12
 BYTE   As3
 BYTE   W12
 BYTE   Ds4
 BYTE   W12
 BYTE   Dn4
 BYTE   W12
 BYTE   BEND   c_v-14
 BYTE   N32  Cn4
 BYTE   W01
 BYTE   BEND   c_v-9
 BYTE   W02
 BYTE   Fs2
 BYTE   W01
 BYTE   As2
 BYTE   W02
 BYTE   Bn2
 BYTE   W01
 BYTE   Bn2
 BYTE   W02
 BYTE   Cn3
 BYTE   W01
 BYTE   Cs3
 BYTE   W02
 BYTE   Cs3
 BYTE   W01
 BYTE   Cs3
 BYTE   W02
 BYTE   Dn3
 BYTE   W01
 BYTE   Dn3
 BYTE   W02
 BYTE   Dn3
 BYTE   W03
 BYTE   Dn3
 BYTE   W01
 BYTE   Dn3
 BYTE   W05
 BYTE   Ds3
 BYTE   W06
// 029   ----------------------------------------
 BYTE   W03
 BYTE   N32  Gn3
 BYTE   W36
 BYTE   N44  An3
 BYTE   W48
 BYTE   N11  As3
 BYTE   W09
// 030   ----------------------------------------
 BYTE   W03
 BYTE   Cn4
 BYTE   W12
 BYTE   BEND   c_v-14
 BYTE   N68  Dn4
 BYTE   W01
 BYTE   BEND   c_v-10
 BYTE   W02
 BYTE   Gn2
 BYTE   W01
 BYTE   Gn2
 BYTE   W02
 BYTE   Fs2
 BYTE   W01
 BYTE   An2
 BYTE   W02
 BYTE   As2
 BYTE   W01
 BYTE   As2
 BYTE   W02
 BYTE   Bn2
 BYTE   W01
 BYTE   Bn2
 BYTE   W02
 BYTE   Bn2
 BYTE   W01
 BYTE   Cn3
 BYTE   W02
 BYTE   Cn3
 BYTE   W01
 BYTE   As2
 BYTE   W02
 BYTE   Cs3
 BYTE   W01
 BYTE   Cs3
 BYTE   W02
 BYTE   Cs3
 BYTE   W01
 BYTE   Cs3
 BYTE   W02
 BYTE   Cs3
 BYTE   W01
 BYTE   Dn3
 BYTE   W03
 BYTE   Dn3
 BYTE   W02
 BYTE   Dn3
 BYTE   W03
 BYTE   Dn3
 BYTE   W04
 BYTE   Dn3
 BYTE   W05
 BYTE   Dn3
 BYTE   W09
 BYTE   Ds3
 BYTE   W18
 BYTE   Dn2
 BYTE   N32  Ds4
 BYTE   W01
 BYTE   BEND   c_v-9
 BYTE   W02
 BYTE   Fs2
 BYTE   W01
 BYTE   As2
 BYTE   W02
 BYTE   Bn2
 BYTE   W01
 BYTE   Bn2
 BYTE   W02
// 031   ----------------------------------------
 BYTE   Cn3
 BYTE   W01
 BYTE   Cs3
 BYTE   W02
 BYTE   Cs3
 BYTE   W01
 BYTE   Cs3
 BYTE   W02
 BYTE   Dn3
 BYTE   W01
 BYTE   Dn3
 BYTE   W02
 BYTE   Dn3
 BYTE   W03
 BYTE   Dn3
 BYTE   W01
 BYTE   Dn3
 BYTE   W05
 BYTE   Ds3
 BYTE   W09
 BYTE   N11  Dn4
 BYTE   W12
 BYTE   Ds4
 BYTE   W12
 BYTE   Fn4
 BYTE   W12
 BYTE   N32  As3
 BYTE   W32
 BYTE   W01
// 032   ----------------------------------------
 BYTE   W03
 BYTE   Dn4
 BYTE   W36
 BYTE   BEND   c_v-1
 BYTE   N68  Cn4
 BYTE   W18
 BYTE   BEND   c_v-2
 BYTE   W09
 BYTE   Dn3
 BYTE   W06
 BYTE   Dn3
 BYTE   W03
 BYTE   Dn3
 BYTE   W03
 BYTE   Dn3
 BYTE   W03
 BYTE   Dn3
 BYTE   W01
 BYTE   Cs3
 BYTE   W02
 BYTE   Cs3
 BYTE   W01
 BYTE   Cs3
 BYTE   W02
 BYTE   Cs3
 BYTE   W01
 BYTE   Cs3
 BYTE   W02
 BYTE   Cs3
 BYTE   W01
 BYTE   As2
 BYTE   W02
 BYTE   Cn3
 BYTE   W01
 BYTE   Cn3
 BYTE   W02
// 033   ----------------------------------------
 BYTE   Bn2
 BYTE   W01
 BYTE   Bn2
 BYTE   W02
 BYTE   Bn2
 BYTE   W01
 BYTE   As2
 BYTE   W02
 BYTE   An2
 BYTE   W01
 BYTE   An2
 BYTE   W02
 BYTE   Gs2
 BYTE   W01
 BYTE   Gn2
 BYTE   W02
 BYTE   Fs2
 BYTE   W01
 BYTE   Fn2
 BYTE   W01
 BYTE   Dn2
 BYTE   W01
 BYTE   Ds3
 BYTE   N68  Fn3
 BYTE   W72
 BYTE   BEND   c_v-14
 BYTE   N11  Cn3
 BYTE   W01
 BYTE   BEND   c_v-6
 BYTE   W02
 BYTE   As2
 BYTE   W01
 BYTE   Cs3
 BYTE   W02
 BYTE   Dn3
 BYTE   W01
 BYTE   Dn3
 BYTE   W02
// 034   ----------------------------------------
 BYTE   Ds3
 BYTE   W03
 BYTE   N11  Gn3
 BYTE   W12
 BYTE   Cn4
 BYTE   W12
 BYTE   As3
 BYTE   W12
 BYTE   Ds4
 BYTE   W12
 BYTE   Dn4
 BYTE   W12
 BYTE   BEND   c_v-1
 BYTE   N32  Cn4
 BYTE   W09
 BYTE   BEND   c_v-2
 BYTE   W04
 BYTE   Dn3
 BYTE   W03
 BYTE   Dn3
 BYTE   W02
 BYTE   Dn3
 BYTE   W01
 BYTE   Dn3
 BYTE   W02
 BYTE   Dn3
 BYTE   W01
 BYTE   Cs3
 BYTE   W02
 BYTE   Cs3
 BYTE   W01
 BYTE   Cn3
 BYTE   W02
 BYTE   Cn3
 BYTE   W01
 BYTE   Bn2
 BYTE   W02
 BYTE   As2
 BYTE   W01
 BYTE   An2
 BYTE   W02
// 035   ----------------------------------------
 BYTE   Gs2
 BYTE   W01
 BYTE   Fs2
 BYTE   W02
 BYTE   Ds3
 BYTE   N32  Gn3
 BYTE   W09
 BYTE   BEND   c_v-2
 BYTE   W04
 BYTE   Dn3
 BYTE   W03
 BYTE   Dn3
 BYTE   W02
 BYTE   Dn3
 BYTE   W01
 BYTE   Dn3
 BYTE   W02
 BYTE   Dn3
 BYTE   W01
 BYTE   Cs3
 BYTE   W02
 BYTE   Cs3
 BYTE   W01
 BYTE   Cn3
 BYTE   W02
 BYTE   Cn3
 BYTE   W01
 BYTE   Bn2
 BYTE   W02
 BYTE   As2
 BYTE   W01
 BYTE   An2
 BYTE   W02
 BYTE   Gs2
 BYTE   W01
 BYTE   Fs2
 BYTE   W02
 BYTE   Dn2
 BYTE   N44  An3
 BYTE   W01
 BYTE   BEND   c_v-10
 BYTE   W02
 BYTE   Gn2
 BYTE   W01
 BYTE   An2
 BYTE   W02
 BYTE   As2
 BYTE   W01
 BYTE   As2
 BYTE   W02
 BYTE   Bn2
 BYTE   W01
 BYTE   Cn3
 BYTE   W02
 BYTE   Cn3
 BYTE   W01
 BYTE   Cn3
 BYTE   W02
 BYTE   Cs3
 BYTE   W01
 BYTE   Cs3
 BYTE   W02
 BYTE   Cs3
 BYTE   W01
 BYTE   Dn3
 BYTE   W02
 BYTE   Dn3
 BYTE   W01
 BYTE   Dn3
 BYTE   W02
 BYTE   Dn3
 BYTE   W03
 BYTE   Dn3
 BYTE   W03
 BYTE   Dn3
 BYTE   W06
 BYTE   Ds3
 BYTE   W12
 BYTE   N11  As3
 BYTE   W09
// 036   ----------------------------------------
 BYTE   W03
 BYTE   Cn4
 BYTE   W12
 BYTE   N32  Fn4
 BYTE   W36
 BYTE   Cn4
 BYTE   W04
 BYTE   BEND   c_v+9
 BYTE   W04
 BYTE   Ds3
 BYTE   W28
 BYTE   Dn2
 BYTE   N44  Gn4
 BYTE   W01
 BYTE   BEND   c_v-10
 BYTE   W02
 BYTE   Gn2
 BYTE   W01
 BYTE   An2
 BYTE   W02
 BYTE   As2
 BYTE   W01
 BYTE   As2
 BYTE   W02
// 037   ----------------------------------------
 BYTE   Bn2
 BYTE   W01
 BYTE   Cn3
 BYTE   W02
 BYTE   Cn3
 BYTE   W01
 BYTE   Cn3
 BYTE   W02
 BYTE   Cs3
 BYTE   W01
 BYTE   Cs3
 BYTE   W02
 BYTE   Cs3
 BYTE   W01
 BYTE   Dn3
 BYTE   W02
 BYTE   Dn3
 BYTE   W01
 BYTE   Dn3
 BYTE   W02
 BYTE   Dn3
 BYTE   W03
 BYTE   Dn3
 BYTE   W03
 BYTE   Dn3
 BYTE   W06
 BYTE   Ds3
 BYTE   W12
 BYTE   N11  Fn4
 BYTE   W12
 BYTE   Gn4
 BYTE   W12
 BYTE   N32  Fn4
 BYTE   W32
 BYTE   W01
// 038   ----------------------------------------
 BYTE   W03
 BYTE   BEND   c_v-1
 BYTE   N32  Dn4
 BYTE   W09
 BYTE   BEND   c_v-2
 BYTE   W04
 BYTE   Dn3
 BYTE   W03
 BYTE   Dn3
 BYTE   W02
 BYTE   Dn3
 BYTE   W01
 BYTE   Dn3
 BYTE   W02
 BYTE   Dn3
 BYTE   W01
 BYTE   Cs3
 BYTE   W02
 BYTE   Cs3
 BYTE   W01
 BYTE   Cn3
 BYTE   W02
 BYTE   Cn3
 BYTE   W01
 BYTE   Bn2
 BYTE   W02
 BYTE   As2
 BYTE   W01
 BYTE   An2
 BYTE   W02
 BYTE   Gs2
 BYTE   W01
 BYTE   Fs2
 BYTE   W01
 BYTE   Dn2
 BYTE   W01
 BYTE   Dn2
 BYTE   N44  Ds4
 BYTE   W01
 BYTE   BEND   c_v-10
 BYTE   W02
 BYTE   Gn2
 BYTE   W01
 BYTE   An2
 BYTE   W02
 BYTE   As2
 BYTE   W01
 BYTE   As2
 BYTE   W02
 BYTE   Bn2
 BYTE   W01
 BYTE   Cn3
 BYTE   W02
 BYTE   Cn3
 BYTE   W01
 BYTE   Cn3
 BYTE   W02
 BYTE   Cs3
 BYTE   W01
 BYTE   Cs3
 BYTE   W02
 BYTE   Cs3
 BYTE   W01
 BYTE   Dn3
 BYTE   W02
 BYTE   Dn3
 BYTE   W01
 BYTE   Dn3
 BYTE   W02
 BYTE   Dn3
 BYTE   W03
 BYTE   Dn3
 BYTE   W03
 BYTE   Dn3
 BYTE   W06
 BYTE   Ds3
 BYTE   W12
 BYTE   N11  Dn4
 BYTE   W09
// 039   ----------------------------------------
 BYTE   W03
 BYTE   Ds4
 BYTE   W12
 BYTE   N68  Fn4
 BYTE   W80
 BYTE   W01
// 040   ----------------------------------------
 BYTE   W96
// 041   ----------------------------------------
 BYTE   W96
// 042   ----------------------------------------
 BYTE   W96
// 043   ----------------------------------------
 BYTE   W96
// 044   ----------------------------------------
 BYTE   W96
// 045   ----------------------------------------
 BYTE   W96
// 046   ----------------------------------------
 BYTE   W96
// 047   ----------------------------------------
 BYTE   W96
// 048   ----------------------------------------
 BYTE   W96
// 049   ----------------------------------------
 BYTE   W96
// 050   ----------------------------------------
 BYTE   W96
// 051   ----------------------------------------
 BYTE   W96
// 052   ----------------------------------------
 BYTE   W96
// 053   ----------------------------------------
 BYTE   W96
// 054   ----------------------------------------
 BYTE   W96
// 055   ----------------------------------------
 BYTE   W96
// 056   ----------------------------------------
 BYTE   W96
// 057   ----------------------------------------
 BYTE   W96
// 058   ----------------------------------------
 BYTE   W96
// 059   ----------------------------------------
 BYTE   W96
// 060   ----------------------------------------
 BYTE   W96
// 061   ----------------------------------------
 BYTE   W96
// 062   ----------------------------------------
 BYTE   W96
// 063   ----------------------------------------
 BYTE   W96
// 064   ----------------------------------------
 BYTE   W44
 BYTE   W03
 BYTE   GoTo
  POIN2 Label_10_012A197F
 BYTE   FINE

//******************************************************//
	ALIGN 4

song58:
	BYTE	11	// NumTrks
	BYTE	0	// NumBlks
	BYTE	song58_pri	// Priority
	BYTE	song58_rev	// Reverb.
    
	POIN2	song58_grp
    
	POIN2	song58_001
	POIN2	song58_002
	POIN2	song58_003
	POIN2	song58_004
	POIN2	song58_005
	POIN2	song58_006
	POIN2	song58_007
	POIN2	song58_008
	POIN2	song58_009
	POIN2	song58_010
	POIN2	song58_011

	
