//Event file generated from Sappy .s format.
	#include "MPlayDef.event"

	#define	songBB_grp  voicegroup001
	#define	songBB_pri  0
	#define	songBB_rev  0
	#define	songBB_mvl  127
	#define	songBB_key  0
	#define	songBB_tbs  1
	#define	songBB_exg  0
	#define	songBB_cmp  1

	// .rodata
	//	songBB
	ALIGN 4


//**************** Track 1 (Midi-Chn.0) ****************//

songBB_001:
// 000   ----------------------------------------
 BYTE   KEYSH   songBB_key+0
Label_0_0127E122:
 BYTE   TEMPO   136*songBB_tbs/2
 BYTE   VOICE   45
 BYTE   VOL   20*songBB_mvl/mxv
 BYTE   PAN   c_v-10
 BYTE   W96
// 001   ----------------------------------------
 BYTE   W96
// 002   ----------------------------------------
 BYTE   W96
// 003   ----------------------------------------
 BYTE   W96
// 004   ----------------------------------------
 BYTE   W96
// 005   ----------------------------------------
 BYTE   W96
// 006   ----------------------------------------
 BYTE   W12
 BYTE   N12  Cs4  v096
 BYTE   N12  Gs4  v116
 BYTE   W12
 BYTE   N06  Gs3  v084
 BYTE   N06  Ds4  v104
 BYTE   W06
 BYTE   Cs4
 BYTE   W06
 BYTE   N12  Gs3  v084
 BYTE   N12  Ds4  v104
 BYTE   W12
 BYTE   As3  v096
 BYTE   N12  Fs4  v116
 BYTE   W12
 BYTE   Gs3  v084
 BYTE   N12  Ds4  v104
 BYTE   W12
 BYTE   Cs4
 BYTE   W12
 BYTE   Gs3
 BYTE   N12  Ds4  v116
 BYTE   W12
// 007   ----------------------------------------
 BYTE   Ds4  v096
 BYTE   N12  Gs4  v104
 BYTE   W12
 BYTE   Gs3  v096
 BYTE   N12  Ds4  v104
 BYTE   W12
 BYTE   N48  Gs3
 BYTE   N48  Cs4  v116
 BYTE   W72
// 008   ----------------------------------------
 BYTE   W96
// 009   ----------------------------------------
 BYTE   W60
 BYTE   TEMPO   134*songBB_tbs/2
 BYTE   W24
 BYTE   TEMPO   132*songBB_tbs/2
 BYTE   W01
 BYTE   TEMPO   130*songBB_tbs/2
 BYTE   W11
// 010   ----------------------------------------
 BYTE   W07
 BYTE   TEMPO   130*songBB_tbs/2
 BYTE   W01
 BYTE   TEMPO   130*songBB_tbs/2
 BYTE   W01
 BYTE   TEMPO   130*songBB_tbs/2
 BYTE   W03
 BYTE   TEMPO   136*songBB_tbs/2
 BYTE   W13
 BYTE   TEMPO   136*songBB_tbs/2
 BYTE   W01
 BYTE   TEMPO   136*songBB_tbs/2
 BYTE   W32
 BYTE   W02
 BYTE   TEMPO   136*songBB_tbs/2
 BYTE   W36
// 011   ----------------------------------------
 BYTE   W96
// 012   ----------------------------------------
 BYTE   W96
// 013   ----------------------------------------
 BYTE   W96
// 014   ----------------------------------------
 BYTE   W96
// 015   ----------------------------------------
 BYTE   W96
// 016   ----------------------------------------
 BYTE   W96
// 017   ----------------------------------------
 BYTE   W96
// 018   ----------------------------------------
 BYTE   W96
// 019   ----------------------------------------
 BYTE   W96
// 020   ----------------------------------------
 BYTE   W96
// 021   ----------------------------------------
 BYTE   W96
// 022   ----------------------------------------
 BYTE   W96
// 023   ----------------------------------------
 BYTE   W96
// 024   ----------------------------------------
 BYTE   W96
// 025   ----------------------------------------
 BYTE   W96
// 026   ----------------------------------------
 BYTE   W96
// 027   ----------------------------------------
 BYTE   W96
// 028   ----------------------------------------
 BYTE   W96
// 029   ----------------------------------------
 BYTE   W96
// 030   ----------------------------------------
 BYTE   W96
// 031   ----------------------------------------
 BYTE   W96
// 032   ----------------------------------------
 BYTE   W12
 BYTE   N12  Cs4  v108
 BYTE   N12  Gs4  v127
 BYTE   W12
 BYTE   N06  Gs3  v096
 BYTE   N06  Ds4  v116
 BYTE   W06
 BYTE   Cs4
 BYTE   W06
 BYTE   N12  Gs3  v096
 BYTE   N12  Ds4  v116
 BYTE   W12
 BYTE   As3  v108
 BYTE   N12  Fs4  v127
 BYTE   W12
 BYTE   Gs3  v096
 BYTE   N12  Ds4  v116
 BYTE   W12
 BYTE   Cs4
 BYTE   W12
 BYTE   Gs3
 BYTE   N12  Ds4  v127
 BYTE   W12
// 033   ----------------------------------------
 BYTE   Ds4  v108
 BYTE   N12  Gs4  v116
 BYTE   W12
 BYTE   Gs3
 BYTE   N12  Ds4  v127
 BYTE   W12
 BYTE   N48  Gs3
 BYTE   N48  Cs4
 BYTE   W72
// 034   ----------------------------------------
 BYTE   W12
 BYTE   N12  Gs3  v116
 BYTE   N12  Cn4  v127
 BYTE   W12
 BYTE   As3  v116
 BYTE   N12  Cs4  v127
 BYTE   W12
 BYTE   Cn4  v116
 BYTE   N12  Ds4  v127
 BYTE   W12
 BYTE   As3  v116
 BYTE   N12  Cs4  v127
 BYTE   W12
 BYTE   Ds3  v116
 BYTE   N12  Gs3  v127
 BYTE   W12
 BYTE   Gs3  v116
 BYTE   N12  Cn4  v127
 BYTE   W12
 BYTE   N60  As3  v116
 BYTE   N60  Fs4  v127
 BYTE   W12
// 035   ----------------------------------------
 BYTE   W84
 BYTE   VOICE   68
 BYTE   VOL   20*songBB_mvl/mxv
 BYTE   PAN   c_v-2
 BYTE   W12
// 036   ----------------------------------------
 BYTE   W12
 BYTE   N36  Ds4  v112
 BYTE   W36
 BYTE   N24  Gs4
 BYTE   W24
 BYTE   N12  Ds4
 BYTE   W12
 BYTE   N48  Fn4
 BYTE   W12
// 037   ----------------------------------------
 BYTE   W36
 BYTE   N18  As4
 BYTE   W24
 BYTE   N36  Ds4
 BYTE   N36  Fs4
 BYTE   W36
// 038   ----------------------------------------
 BYTE   N24
 BYTE   N24  Bn4
 BYTE   W24
 BYTE   N12  Ds4
 BYTE   N12  Fs4
 BYTE   W12
 BYTE   N48  Fn4
 BYTE   N48  Gs4
 BYTE   W48
 BYTE   N24
 BYTE   N24  Cs5
 BYTE   W12
// 039   ----------------------------------------
 BYTE   W12
 BYTE   Gs4  v100
 BYTE   N24  Ds5  v112
 BYTE   W24
 BYTE   N48  Ds4  v100
 BYTE   N24  As4  v112
 BYTE   W24
 BYTE   Gs4
 BYTE   W24
 BYTE   Gs3  v100
 BYTE   N24  Ds4  v120
 BYTE   W12
// 040   ----------------------------------------
 BYTE   W12
 BYTE   N48  Ds3  v100
 BYTE   N24  As3  v116
 BYTE   W24
 BYTE   Gs3
 BYTE   W24
 BYTE   N36  Bn2  v112
 BYTE   N36  Gs3  v120
 BYTE   W36
// 041   ----------------------------------------
 BYTE   N24  Gs3  v112
 BYTE   N24  Ds4  v120
 BYTE   W24
 BYTE   N12  Bn2  v112
 BYTE   N12  Gs3  v120
 BYTE   W12
 BYTE   N24  Bn2  v112
 BYTE   N24  Gs3  v120
 BYTE   W24
 BYTE   Ds3  v112
 BYTE   N24  Bn3  v120
 BYTE   W24
 BYTE   Gs3  v112
 BYTE   N24  Ds4  v120
 BYTE   W12
// 042   ----------------------------------------
 BYTE   W12
 BYTE   N48  Cs3  v112
 BYTE   N48  As3  v120
 BYTE   W48
 BYTE   N24  As2  v112
 BYTE   N24  Fs3  v120
 BYTE   W24
 BYTE   Cs3  v112
 BYTE   N24  As3  v120
 BYTE   W12
// 043   ----------------------------------------
 BYTE   W12
 BYTE   Fs3  v112
 BYTE   N24  Cs4  v120
 BYTE   W24
 BYTE   As3  v112
 BYTE   N24  Fs4  v120
 BYTE   W24
 BYTE   TIE  Cn4  v108
 BYTE   TIE  Gs4  v116
 BYTE   W36
// 044   ----------------------------------------
 BYTE   W96
// 045   ----------------------------------------
 BYTE   W96
// 046   ----------------------------------------
 BYTE   W60
 BYTE   W01
 BYTE   W01
 BYTE   W01
 BYTE   W01
 BYTE   W02
 BYTE   W01
 BYTE   W01
 BYTE   W01
 BYTE   W01
 BYTE   W01
 BYTE   W01
 BYTE   W01
 BYTE   W01
 BYTE   W01
 BYTE   W01
 BYTE   W01
 BYTE   W01
 BYTE   W01
 BYTE   W01
 BYTE   W01
 BYTE   W02
 BYTE   W01
 BYTE   W01
 BYTE   W01
 BYTE   W01
 BYTE   W01
 BYTE   W01
 BYTE   W01
 BYTE   W01
 BYTE   W01
 BYTE   W01
 BYTE   W01
 BYTE   W01
 BYTE   W01
// 047   ----------------------------------------
 BYTE   W01
 BYTE   W01
 BYTE   W02
 BYTE   W01
 BYTE   W01
 BYTE   W01
 BYTE   W01
 BYTE   W01
 BYTE   W01
 BYTE   W01
 BYTE   W01
 BYTE   W01
 BYTE   W01
 BYTE   W02
 BYTE   W01
 BYTE   W01
 BYTE   W01
 BYTE   W02
 BYTE   W01
 BYTE   W01
 BYTE   W01
 BYTE   W01
 BYTE   W01
 BYTE   W01
 BYTE   W01
 BYTE   W01
 BYTE   W01
 BYTE   W01
 BYTE   W02
 BYTE   W01
 BYTE   W01
 BYTE   W01
 BYTE   W02
 BYTE   W01
 BYTE   W01
 BYTE   W01
 BYTE   W01
 BYTE   W01
 BYTE   W01
 BYTE   W01
 BYTE   W01
 BYTE   W01
 BYTE   W01
 BYTE   W02
 BYTE   W01
 BYTE   W01
 BYTE   W01
 BYTE   W02
 BYTE   W01
 BYTE   W01
 BYTE   W01
 BYTE   W01
 BYTE   W01
 BYTE   EOT
 BYTE   Cn4  v080
 BYTE   VOICE   45
 BYTE   VOL   20*songBB_mvl/mxv
 BYTE   PAN   c_v-10
 BYTE   W36
// 048   ----------------------------------------
 BYTE   W96
// 049   ----------------------------------------
 BYTE   W96
// 050   ----------------------------------------
 BYTE   W96
// 051   ----------------------------------------
 BYTE   W60
 BYTE   GoTo
  POIN2 Label_0_0127E122
 BYTE   FINE

//**************** Track 2 (Midi-Chn.1) ****************//

songBB_002:
// 000   ----------------------------------------
 BYTE   KEYSH   songBB_key+0
Label_1_0127E31E:
 BYTE   VOICE   45
 BYTE   VOL   20*songBB_mvl/mxv
 BYTE   PAN   c_v+6
 BYTE   W96
// 001   ----------------------------------------
 BYTE   W96
// 002   ----------------------------------------
 BYTE   W96
// 003   ----------------------------------------
 BYTE   W96
// 004   ----------------------------------------
 BYTE   W96
// 005   ----------------------------------------
 BYTE   W96
// 006   ----------------------------------------
 BYTE   W12
 BYTE   N36  Gs1  v108
 BYTE   N36  Gs2
 BYTE   W36
 BYTE   Fs1
 BYTE   N36  Fs2
 BYTE   W36
 BYTE   En1
 BYTE   N36  En2
 BYTE   W12
// 007   ----------------------------------------
 BYTE   W24
 BYTE   N12  Dn1
 BYTE   W12
 BYTE   An1
 BYTE   W12
 BYTE   Dn2
 BYTE   W12
 BYTE   Fs2
 BYTE   W12
 BYTE   An2
 BYTE   W12
 BYTE   Cs3
 BYTE   W12
// 008   ----------------------------------------
 BYTE   W12
 BYTE   N36  Fs1
 BYTE   N36  Fs2
 BYTE   W36
 BYTE   Fn1
 BYTE   N36  Fn2
 BYTE   W36
 BYTE   En1
 BYTE   N36  En2
 BYTE   W12
// 009   ----------------------------------------
 BYTE   W24
 BYTE   N12  En1
 BYTE   W12
 BYTE   As1
 BYTE   W12
 BYTE   En2
 BYTE   W12
 BYTE   As1  v100
 BYTE   N12  Fs2  v108
 BYTE   W12
 BYTE   En2  v100
 BYTE   N12  As2  v108
 BYTE   W12
 BYTE   Fs2  v092
 BYTE   N12  Cs3  v096
 BYTE   W12
// 010   ----------------------------------------
 BYTE   As2  v092
 BYTE   N12  Fs3  v096
 BYTE   W96
// 011   ----------------------------------------
 BYTE   W96
// 012   ----------------------------------------
 BYTE   W96
// 013   ----------------------------------------
 BYTE   W96
// 014   ----------------------------------------
 BYTE   W96
// 015   ----------------------------------------
 BYTE   W96
// 016   ----------------------------------------
 BYTE   W96
// 017   ----------------------------------------
 BYTE   W96
// 018   ----------------------------------------
 BYTE   W96
// 019   ----------------------------------------
 BYTE   W96
// 020   ----------------------------------------
 BYTE   W96
// 021   ----------------------------------------
 BYTE   W96
// 022   ----------------------------------------
 BYTE   W96
// 023   ----------------------------------------
 BYTE   W96
// 024   ----------------------------------------
 BYTE   W96
// 025   ----------------------------------------
 BYTE   W96
// 026   ----------------------------------------
 BYTE   W96
// 027   ----------------------------------------
 BYTE   W96
// 028   ----------------------------------------
 BYTE   W96
// 029   ----------------------------------------
 BYTE   W12
 BYTE   W84
// 030   ----------------------------------------
 BYTE   W96
// 031   ----------------------------------------
 BYTE   W96
// 032   ----------------------------------------
 BYTE   W12
 BYTE   N36  Gs1  v116
 BYTE   N36  Gs2
 BYTE   W36
 BYTE   Fs1
 BYTE   N36  Fs2
 BYTE   W36
 BYTE   En1
 BYTE   N36  En2
 BYTE   W12
// 033   ----------------------------------------
 BYTE   W24
 BYTE   N12  Dn1
 BYTE   W12
 BYTE   An1
 BYTE   W12
 BYTE   Dn2
 BYTE   W12
 BYTE   An1  v112
 BYTE   N12  Fs2  v116
 BYTE   W12
 BYTE   Dn2  v112
 BYTE   N12  An2  v116
 BYTE   W12
 BYTE   Fs2  v112
 BYTE   N12  Cs3  v116
 BYTE   W12
// 034   ----------------------------------------
 BYTE   W12
 BYTE   N36  Fs1
 BYTE   N36  Fs2
 BYTE   W36
 BYTE   Fn1
 BYTE   N36  Fn2
 BYTE   W36
 BYTE   En1
 BYTE   N36  En2
 BYTE   W12
// 035   ----------------------------------------
 BYTE   W24
 BYTE   N12  En1
 BYTE   W12
 BYTE   As1
 BYTE   W12
 BYTE   En2
 BYTE   W12
 BYTE   As1  v112
 BYTE   N12  Fs2  v116
 BYTE   W12
 BYTE   En2  v112
 BYTE   N12  As2  v116
 BYTE   W12
 BYTE   Fs2  v100
 BYTE   N12  Cs3  v108
 BYTE   W12
// 036   ----------------------------------------
 BYTE   W84
 BYTE   VOICE   73
 BYTE   VOL   20*songBB_mvl/mxv
 BYTE   PAN   c_v+2
 BYTE   W12
// 037   ----------------------------------------
 BYTE   W60
 BYTE   N36  Fs3  v116
 BYTE   W36
// 038   ----------------------------------------
 BYTE   N24  Bn3
 BYTE   W24
 BYTE   N12  Fs3
 BYTE   W12
 BYTE   N48  Gs3
 BYTE   W48
 BYTE   N24  Cs4
 BYTE   W12
// 039   ----------------------------------------
 BYTE   W12
 BYTE   Ds4
 BYTE   W24
 BYTE   As3
 BYTE   W24
 BYTE   Gs3
 BYTE   W24
 BYTE   Ds4  v108
 BYTE   W12
// 040   ----------------------------------------
 BYTE   W12
 BYTE   As3
 BYTE   W24
 BYTE   Gs3
 BYTE   W60
// 041   ----------------------------------------
 BYTE   W96
// 042   ----------------------------------------
 BYTE   W96
// 043   ----------------------------------------
 BYTE   W96
// 044   ----------------------------------------
 BYTE   W96
// 045   ----------------------------------------
 BYTE   W60
 BYTE   VOICE   45
 BYTE   VOL   20*songBB_mvl/mxv
 BYTE   PAN   c_v+6
 BYTE   W36
// 046   ----------------------------------------
 BYTE   W96
// 047   ----------------------------------------
 BYTE   W96
// 048   ----------------------------------------
 BYTE   W96
// 049   ----------------------------------------
 BYTE   W96
// 050   ----------------------------------------
 BYTE   W96
// 051   ----------------------------------------
 BYTE   W60
 BYTE   GoTo
  POIN2 Label_1_0127E31E
 BYTE   FINE

//**************** Track 3 (Midi-Chn.2) ****************//

songBB_003:
// 000   ----------------------------------------
 BYTE   KEYSH   songBB_key+0
Label_2_0127E41E:
 BYTE   VOICE   48
 BYTE   VOL   16*songBB_mvl/mxv
 BYTE   PAN   c_v-14
 BYTE   W96
// 001   ----------------------------------------
 BYTE   W96
// 002   ----------------------------------------
 BYTE   W96
// 003   ----------------------------------------
 BYTE   W96
// 004   ----------------------------------------
 BYTE   W96
// 005   ----------------------------------------
 BYTE   W96
// 006   ----------------------------------------
 BYTE   W96
// 007   ----------------------------------------
 BYTE   W96
// 008   ----------------------------------------
 BYTE   W96
// 009   ----------------------------------------
 BYTE   W96
// 010   ----------------------------------------
 BYTE   W96
// 011   ----------------------------------------
 BYTE   W96
// 012   ----------------------------------------
 BYTE   W96
// 013   ----------------------------------------
 BYTE   W96
// 014   ----------------------------------------
 BYTE   W96
// 015   ----------------------------------------
 BYTE   W96
// 016   ----------------------------------------
 BYTE   W96
// 017   ----------------------------------------
 BYTE   W96
// 018   ----------------------------------------
 BYTE   W96
// 019   ----------------------------------------
 BYTE   W96
// 020   ----------------------------------------
 BYTE   W96
// 021   ----------------------------------------
 BYTE   W96
// 022   ----------------------------------------
 BYTE   W96
// 023   ----------------------------------------
 BYTE   W96
// 024   ----------------------------------------
 BYTE   W96
// 025   ----------------------------------------
 BYTE   W96
// 026   ----------------------------------------
 BYTE   W96
// 027   ----------------------------------------
 BYTE   W96
// 028   ----------------------------------------
 BYTE   W96
// 029   ----------------------------------------
 BYTE   W96
// 030   ----------------------------------------
 BYTE   W96
// 031   ----------------------------------------
 BYTE   W96
// 032   ----------------------------------------
 BYTE   W96
// 033   ----------------------------------------
 BYTE   W72
 BYTE   N04  Fs4  v112
 BYTE   N04  Cs5
 BYTE   W06
 BYTE   Fs4
 BYTE   N04  Cs5
 BYTE   W06
 BYTE   Fs4
 BYTE   N04  Cs5
 BYTE   W12
// 034   ----------------------------------------
 BYTE   Fs4
 BYTE   N04  Cs5
 BYTE   W06
 BYTE   Fs4
 BYTE   N04  Cs5
 BYTE   W90
// 035   ----------------------------------------
 BYTE   W72
 BYTE   Fs4
 BYTE   N04  As4
 BYTE   W06
 BYTE   Fs4
 BYTE   N04  As4
 BYTE   W06
 BYTE   Fs4
 BYTE   N04  As4
 BYTE   W12
// 036   ----------------------------------------
 BYTE   Fs4
 BYTE   N04  As4
 BYTE   W06
 BYTE   Fs4
 BYTE   N04  As4
 BYTE   W06
 BYTE   N72  Ds4  v100
 BYTE   N72  Cn5
 BYTE   W72
 BYTE   Fn4
 BYTE   N72  Dn5
 BYTE   W12
// 037   ----------------------------------------
 BYTE   W60
 BYTE   Ds4
 BYTE   N72  Bn4
 BYTE   W36
// 038   ----------------------------------------
 BYTE   W36
 BYTE   Fn4
 BYTE   N72  Cs5
 BYTE   W60
// 039   ----------------------------------------
 BYTE   W12
 BYTE   Ds4
 BYTE   N72  Cn5
 BYTE   W72
 BYTE   Gs3
 BYTE   N72  Cn4
 BYTE   W12
// 040   ----------------------------------------
 BYTE   W96
// 041   ----------------------------------------
 BYTE   W96
// 042   ----------------------------------------
 BYTE   W96
// 043   ----------------------------------------
 BYTE   W96
// 044   ----------------------------------------
 BYTE   W96
// 045   ----------------------------------------
 BYTE   W96
// 046   ----------------------------------------
 BYTE   W96
// 047   ----------------------------------------
 BYTE   W96
// 048   ----------------------------------------
 BYTE   W96
// 049   ----------------------------------------
 BYTE   W96
// 050   ----------------------------------------
 BYTE   W96
// 051   ----------------------------------------
 BYTE   W60
 BYTE   GoTo
  POIN2 Label_2_0127E41E
 BYTE   FINE

//**************** Track 4 (Midi-Chn.3) ****************//

songBB_004:
// 000   ----------------------------------------
 BYTE   KEYSH   songBB_key+0
Label_3_0127E4A2:
 BYTE   VOICE   48
 BYTE   VOL   20*songBB_mvl/mxv
 BYTE   PAN   c_v-4
 BYTE   W12
 BYTE   N06  Cn3  v100
 BYTE   N06  Ds3
 BYTE   W12
 BYTE   N04
 BYTE   N04  Gs3
 BYTE   W06
 BYTE   Ds3
 BYTE   N04  Gs3
 BYTE   W06
 BYTE   N24  Ds3
 BYTE   N24  Gs3
 BYTE   W36
 BYTE   N12  Fn3
 BYTE   N12  As3
 BYTE   W24
// 001   ----------------------------------------
 BYTE   N06  Cs3
 BYTE   N06  Fn3
 BYTE   W12
 BYTE   Cn3
 BYTE   N06  Ds3
 BYTE   W12
 BYTE   N04
 BYTE   N04  Gs3
 BYTE   W06
 BYTE   Ds3
 BYTE   N04  Gs3
 BYTE   W06
 BYTE   N24  Ds3
 BYTE   N24  Gs3
 BYTE   W36
 BYTE   N12  Fn3
 BYTE   N12  As3
 BYTE   W12
 BYTE   Fn3
 BYTE   N12  Cn4
 BYTE   W12
// 002   ----------------------------------------
 BYTE   N06  As3
 BYTE   N06  Cs4
 BYTE   W12
 BYTE   TIE  Gs3  v092
 BYTE   TIE  Ds4
 BYTE   W84
// 003   ----------------------------------------
 BYTE   W84
 BYTE   W01
 BYTE   W01
 BYTE   W01
 BYTE   W01
 BYTE   W01
 BYTE   W01
 BYTE   W01
 BYTE   W01
 BYTE   W01
 BYTE   W01
 BYTE   W01
 BYTE   W01
// 004   ----------------------------------------
 BYTE   W01
 BYTE   W01
 BYTE   W01
 BYTE   W01
 BYTE   W01
 BYTE   W01
 BYTE   W01
 BYTE   W01
 BYTE   W01
 BYTE   W01
 BYTE   W01
 BYTE   W01
 BYTE   EOT
 BYTE   Gs3  v075
 BYTE   TIE  Ds3  v072
 BYTE   TIE  Gs3
 BYTE   TIE  Gs4  v060
 BYTE   W01
 BYTE   W01
 BYTE   W01
 BYTE   W01
 BYTE   W01
 BYTE   W01
 BYTE   W01
 BYTE   W01
 BYTE   W01
 BYTE   W01
 BYTE   W01
 BYTE   W01
 BYTE   W01
 BYTE   W01
 BYTE   W01
 BYTE   W01
 BYTE   W01
 BYTE   W01
 BYTE   W01
 BYTE   W01
 BYTE   W01
 BYTE   W01
 BYTE   W01
 BYTE   W01
 BYTE   W01
 BYTE   W01
 BYTE   W01
 BYTE   W01
 BYTE   W01
 BYTE   W01
 BYTE   W01
 BYTE   W01
 BYTE   W01
 BYTE   W01
 BYTE   W01
 BYTE   W01
 BYTE   W01
 BYTE   W01
 BYTE   W01
 BYTE   W01
 BYTE   W01
 BYTE   W01
 BYTE   W01
 BYTE   W01
 BYTE   W01
 BYTE   W01
 BYTE   W01
 BYTE   W01
 BYTE   W01
 BYTE   W01
 BYTE   W01
 BYTE   W01
 BYTE   W01
 BYTE   W01
 BYTE   W01
 BYTE   W01
 BYTE   W01
 BYTE   W01
 BYTE   W01
 BYTE   W01
 BYTE   W01
 BYTE   W01
 BYTE   W01
 BYTE   W01
 BYTE   W01
 BYTE   W01
 BYTE   W01
 BYTE   W01
 BYTE   W01
 BYTE   W01
 BYTE   W01
 BYTE   W01
 BYTE   W12
// 005   ----------------------------------------
 BYTE   W36
 BYTE   W01
 BYTE   W01
 BYTE   W01
 BYTE   W01
 BYTE   W01
 BYTE   W01
 BYTE   W02
 BYTE   W01
 BYTE   W01
 BYTE   W01
 BYTE   W01
 BYTE   W01
 BYTE   W01
 BYTE   W02
 BYTE   W01
 BYTE   W01
 BYTE   W01
 BYTE   W01
 BYTE   W01
 BYTE   W01
 BYTE   W02
 BYTE   W01
 BYTE   W01
 BYTE   W01
 BYTE   W01
 BYTE   W01
 BYTE   W01
 BYTE   W02
 BYTE   W01
 BYTE   W01
 BYTE   W01
 BYTE   W01
 BYTE   W01
 BYTE   W01
 BYTE   W02
 BYTE   W01
 BYTE   W01
 BYTE   W01
 BYTE   W01
 BYTE   W01
 BYTE   W01
 BYTE   W02
 BYTE   W01
 BYTE   W01
 BYTE   W01
 BYTE   W01
 BYTE   W01
 BYTE   W01
 BYTE   W01
 BYTE   W01
 BYTE   W01
 BYTE   W01
 BYTE   W01
 BYTE   W01
// 006   ----------------------------------------
 BYTE   W01
 BYTE   W01
 BYTE   W01
 BYTE   W01
 BYTE   W01
 BYTE   W01
 BYTE   W01
 BYTE   W01
 BYTE   W01
 BYTE   W01
 BYTE   W01
 BYTE   W01
 BYTE   EOT
 BYTE   Ds3  v068
 BYTE   Gs4
 BYTE   W48
 BYTE   N24  Gs3
 BYTE   N24  Cs4  v080
 BYTE   W01
 BYTE   W01
 BYTE   W01
 BYTE   W01
 BYTE   W01
 BYTE   W01
 BYTE   W01
 BYTE   W01
 BYTE   W01
 BYTE   W01
 BYTE   W01
 BYTE   W01
 BYTE   W12
 BYTE   N12  Gs3
 BYTE   N12  Ds4  v092
 BYTE   W12
// 007   ----------------------------------------
 BYTE   Ds4  v072
 BYTE   N12  Gs4  v080
 BYTE   W12
 BYTE   Gs3  v072
 BYTE   N12  Ds4  v080
 BYTE   W12
 BYTE   N72  Gs3
 BYTE   N72  Cs4  v092
 BYTE   W36
 BYTE   W01
 BYTE   W01
 BYTE   W01
 BYTE   W01
 BYTE   W01
 BYTE   W01
 BYTE   W01
 BYTE   W01
 BYTE   W01
 BYTE   W01
 BYTE   W01
 BYTE   W01
 BYTE   W01
 BYTE   W01
 BYTE   W01
 BYTE   W01
 BYTE   W01
 BYTE   W01
 BYTE   W01
 BYTE   W01
 BYTE   W01
 BYTE   W01
 BYTE   W01
 BYTE   W01
 BYTE   W01
 BYTE   W01
 BYTE   W01
 BYTE   W01
 BYTE   W01
 BYTE   W01
 BYTE   W01
 BYTE   W01
 BYTE   W01
 BYTE   W01
 BYTE   W01
 BYTE   W01
// 008   ----------------------------------------
 BYTE   W12
 BYTE   N12  Cn4  v080
 BYTE   W01
 BYTE   W01
 BYTE   W01
 BYTE   W01
 BYTE   W01
 BYTE   W01
 BYTE   W01
 BYTE   W01
 BYTE   W01
 BYTE   W01
 BYTE   W01
 BYTE   W01
 BYTE   Cs4
 BYTE   W12
 BYTE   Ds4
 BYTE   W12
 BYTE   Cs4
 BYTE   W12
 BYTE   Gs3
 BYTE   W12
 BYTE   Cn4
 BYTE   W12
 BYTE   N84  As3
 BYTE   N84  Fs4
 BYTE   W12
// 009   ----------------------------------------
 BYTE   W48
 BYTE   W01
 BYTE   W01
 BYTE   W01
 BYTE   W01
 BYTE   W01
 BYTE   W01
 BYTE   W01
 BYTE   W01
 BYTE   W01
 BYTE   W01
 BYTE   W01
 BYTE   W01
 BYTE   W01
 BYTE   W01
 BYTE   W01
 BYTE   W01
 BYTE   W01
 BYTE   W01
 BYTE   W01
 BYTE   W01
 BYTE   W01
 BYTE   W01
 BYTE   W01
 BYTE   W01
 BYTE   W24
// 010   ----------------------------------------
 BYTE   W96
// 011   ----------------------------------------
 BYTE   W96
// 012   ----------------------------------------
 BYTE   W12
 BYTE   N36  As2  v127
 BYTE   W36
 BYTE   Cn3
 BYTE   W36
 BYTE   N24  Cs3
 BYTE   W12
// 013   ----------------------------------------
 BYTE   W12
 BYTE   TIE  Cn3
 BYTE   W84
// 014   ----------------------------------------
 BYTE   W36
 BYTE   EOT
 BYTE   W12
 BYTE   N36
 BYTE   W36
 BYTE   N24  Cs3
 BYTE   W12
// 015   ----------------------------------------
 BYTE   W12
 BYTE   N36  Ds3
 BYTE   W36
 BYTE   Cs3
 BYTE   W36
 BYTE   N18  Cn3
 BYTE   W12
// 016   ----------------------------------------
 BYTE   W12
 BYTE   N36  As2
 BYTE   W36
 BYTE   As2  v112
 BYTE   N36  Cs3  v127
 BYTE   W36
 BYTE   N24  Cs3  v112
 BYTE   N24  Fn3  v127
 BYTE   W12
// 017   ----------------------------------------
 BYTE   W12
 BYTE   TIE  Fn3  v112
 BYTE   TIE  As3  v127
 BYTE   W84
// 018   ----------------------------------------
 BYTE   W36
 BYTE   EOT
 BYTE   Fn3  v070
 BYTE   W12
 BYTE   N36  Fn3  v112
 BYTE   N36  Cn4  v127
 BYTE   W36
 BYTE   N24  Fn3  v112
 BYTE   N24  Cs4  v127
 BYTE   W12
// 019   ----------------------------------------
 BYTE   W12
 BYTE   N36  Fn3  v112
 BYTE   N36  Cn4  v127
 BYTE   W36
 BYTE   Fn3  v112
 BYTE   N36  As3  v127
 BYTE   W36
 BYTE   N24  Fn3  v112
 BYTE   N24  Cn4  v127
 BYTE   W12
// 020   ----------------------------------------
 BYTE   W12
 BYTE   TIE  Ds3  v116
 BYTE   TIE  Gs3  v127
 BYTE   W84
// 021   ----------------------------------------
 BYTE   W48
 BYTE   EOT
 BYTE   Ds3  v068
 BYTE   N36  Ds3  v120
 BYTE   N36  Cn4
 BYTE   W36
 BYTE   N24  Gs3
 BYTE   N24  Ds4
 BYTE   W12
// 022   ----------------------------------------
 BYTE   W12
 BYTE   TIE  Cn4  v112
 BYTE   TIE  Gs4
 BYTE   W84
// 023   ----------------------------------------
 BYTE   W48
 BYTE   EOT
 BYTE   Cn4  v080
 BYTE   N36  Gs3
 BYTE   N36  Ds4
 BYTE   W36
 BYTE   N24  Ds3
 BYTE   N24  Cn4
 BYTE   W12
// 024   ----------------------------------------
 BYTE   W12
 BYTE   N96  Fn3
 BYTE   N96  Cs4
 BYTE   W84
// 025   ----------------------------------------
 BYTE   W12
 BYTE   N36
 BYTE   N36  As4
 BYTE   W36
 BYTE   Fn4
 BYTE   N36  Cs5
 BYTE   W36
 BYTE   N24  Ds4
 BYTE   N24  Cn5
 BYTE   W12
// 026   ----------------------------------------
 BYTE   W12
 BYTE   TIE  Cs4
 BYTE   TIE  Fn4
 BYTE   W84
// 027   ----------------------------------------
 BYTE   W48
 BYTE   EOT
 BYTE   Cs4  v077
 BYTE   N36  Cs4  v116
 BYTE   N36  Fn4
 BYTE   W36
 BYTE   N24  Cs4
 BYTE   N24  Fn4
 BYTE   W12
// 028   ----------------------------------------
 BYTE   W12
 BYTE   N36  Ds3
 BYTE   N36  Cn4
 BYTE   W36
 BYTE   Gs3
 BYTE   N36  Ds4
 BYTE   W36
 BYTE   N24  Cn4
 BYTE   N24  Gs4
 BYTE   W12
// 029   ----------------------------------------
 BYTE   W12
 BYTE   TIE  Ds4
 BYTE   TIE  Cn5
 BYTE   W84
// 030   ----------------------------------------
 BYTE   W96
// 031   ----------------------------------------
 BYTE   W12
 BYTE   W01
 BYTE   W01
 BYTE   W02
 BYTE   W01
 BYTE   W01
 BYTE   W02
 BYTE   W01
 BYTE   W01
 BYTE   W01
 BYTE   W02
 BYTE   W01
 BYTE   W01
 BYTE   W02
 BYTE   W01
 BYTE   W01
 BYTE   W03
 BYTE   W01
 BYTE   W01
 BYTE   W02
 BYTE   W01
 BYTE   W01
 BYTE   W02
 BYTE   W01
 BYTE   W01
 BYTE   W02
 BYTE   W01
 BYTE   W01
 BYTE   W02
 BYTE   W01
 BYTE   W01
 BYTE   W03
 BYTE   W01
 BYTE   W01
 BYTE   W02
 BYTE   W01
 BYTE   W02
 BYTE   W01
 BYTE   W01
 BYTE   W01
 BYTE   W02
 BYTE   W01
 BYTE   W01
 BYTE   W02
 BYTE   W01
 BYTE   W01
 BYTE   W03
 BYTE   W01
 BYTE   W01
 BYTE   W02
 BYTE   W01
 BYTE   W01
 BYTE   W02
 BYTE   W01
 BYTE   W01
 BYTE   W01
 BYTE   W02
 BYTE   W01
 BYTE   W01
 BYTE   W02
 BYTE   W01
 BYTE   W01
 BYTE   W01
// 032   ----------------------------------------
 BYTE   W02
 BYTE   W01
 BYTE   W01
 BYTE   W02
 BYTE   W01
 BYTE   W01
 BYTE   W02
 BYTE   W01
 BYTE   W01
 BYTE   EOT
 BYTE   Ds4  v084
 BYTE   W84
// 033   ----------------------------------------
 BYTE   W12
 BYTE   W84
// 034   ----------------------------------------
 BYTE   W96
// 035   ----------------------------------------
 BYTE   W96
// 036   ----------------------------------------
 BYTE   W12
 BYTE   N36  Cn3  v127
 BYTE   N36  Ds3
 BYTE   W36
 BYTE   N24
 BYTE   N24  Gs3
 BYTE   W24
 BYTE   N12  Cn3
 BYTE   N12  Ds3
 BYTE   W12
 BYTE   N48  Dn3
 BYTE   N48  Fn3
 BYTE   W12
// 037   ----------------------------------------
 BYTE   W36
 BYTE   N18
 BYTE   N18  As3
 BYTE   W24
 BYTE   N36  Ds3
 BYTE   N36  Fs3
 BYTE   W36
// 038   ----------------------------------------
 BYTE   N24
 BYTE   N24  Bn3
 BYTE   W24
 BYTE   N12  Ds3
 BYTE   N12  Fs3
 BYTE   W12
 BYTE   N48  Fn3
 BYTE   N48  Gs3
 BYTE   W48
 BYTE   N24
 BYTE   N24  Cs4
 BYTE   W12
// 039   ----------------------------------------
 BYTE   W12
 BYTE   Gs3  v116
 BYTE   N24  Ds4  v127
 BYTE   W24
 BYTE   N48  Ds3  v116
 BYTE   N24  As3  v127
 BYTE   W24
 BYTE   Gs3
 BYTE   W24
 BYTE   Gs2  v116
 BYTE   N24  Ds3  v127
 BYTE   W12
// 040   ----------------------------------------
 BYTE   W12
 BYTE   N48  Ds2  v116
 BYTE   N24  As2  v127
 BYTE   W24
 BYTE   Gs2
 BYTE   W24
 BYTE   N36  Bn2
 BYTE   N36  Gs3
 BYTE   W36
// 041   ----------------------------------------
 BYTE   N24
 BYTE   N24  Ds4
 BYTE   W24
 BYTE   N12  Bn2
 BYTE   N12  Gs3
 BYTE   W12
 BYTE   N24  Bn2
 BYTE   N24  Gs3
 BYTE   W24
 BYTE   Ds3
 BYTE   N24  Bn3
 BYTE   W24
 BYTE   Gs3
 BYTE   N24  Ds4
 BYTE   W12
// 042   ----------------------------------------
 BYTE   W12
 BYTE   N48  Cs3
 BYTE   N48  As3
 BYTE   W48
 BYTE   N24  As2
 BYTE   N24  Fs3
 BYTE   W24
 BYTE   Cs3
 BYTE   N24  As3
 BYTE   W12
// 043   ----------------------------------------
 BYTE   W12
 BYTE   Fs3
 BYTE   N24  Cs4
 BYTE   W24
 BYTE   As3
 BYTE   N24  Fs4
 BYTE   N24  As4  v116
 BYTE   W24
 BYTE   N36  Cs4  v100
 BYTE   N36  As4  v112
 BYTE   W36
// 044   ----------------------------------------
 BYTE   Ds4  v100
 BYTE   N36  Cn5  v112
 BYTE   W36
 BYTE   N24  Ds4  v100
 BYTE   N24  Cs5  v112
 BYTE   W24
 BYTE   TIE  Ds4  v116
 BYTE   TIE  Cn5  v108
 BYTE   W36
// 045   ----------------------------------------
 BYTE   W96
// 046   ----------------------------------------
 BYTE   W12
 BYTE   W01
 BYTE   W03
 BYTE   W01
 BYTE   W03
 BYTE   W01
 BYTE   W03
 BYTE   W01
 BYTE   W03
 BYTE   W01
 BYTE   W03
 BYTE   W01
 BYTE   W03
 BYTE   W01
 BYTE   W03
 BYTE   W01
 BYTE   W03
 BYTE   W01
 BYTE   W03
 BYTE   W01
 BYTE   W03
 BYTE   W01
 BYTE   W03
 BYTE   W01
 BYTE   W03
 BYTE   W01
 BYTE   W03
 BYTE   W01
 BYTE   W03
 BYTE   W01
 BYTE   W01
 BYTE   W02
 BYTE   W01
 BYTE   W01
 BYTE   W02
 BYTE   W01
 BYTE   W01
 BYTE   W02
 BYTE   W01
 BYTE   W01
 BYTE   W02
 BYTE   W01
 BYTE   W01
 BYTE   W02
 BYTE   W01
 BYTE   W01
 BYTE   W02
 BYTE   W01
 BYTE   W01
 BYTE   W02
// 047   ----------------------------------------
 BYTE   W01
 BYTE   W01
 BYTE   W02
 BYTE   W01
 BYTE   W01
 BYTE   W02
 BYTE   W01
 BYTE   W01
 BYTE   W02
 BYTE   W01
 BYTE   W01
 BYTE   W02
 BYTE   W01
 BYTE   W01
 BYTE   W02
 BYTE   W01
 BYTE   W01
 BYTE   W03
 BYTE   W01
 BYTE   W03
 BYTE   W01
 BYTE   W03
 BYTE   W01
 BYTE   W03
 BYTE   W01
 BYTE   W03
 BYTE   W01
 BYTE   W03
 BYTE   W01
 BYTE   W03
 BYTE   W01
 BYTE   W03
 BYTE   W01
 BYTE   W03
 BYTE   W01
 BYTE   W02
 BYTE   EOT
 BYTE   Ds4  v084
 BYTE   W36
// 048   ----------------------------------------
 BYTE   W96
// 049   ----------------------------------------
 BYTE   W96
// 050   ----------------------------------------
 BYTE   W96
// 051   ----------------------------------------
 BYTE   W60
 BYTE   GoTo
  POIN2 Label_3_0127E4A2
 BYTE   FINE

//**************** Track 5 (Midi-Chn.4) ****************//

songBB_005:
// 000   ----------------------------------------
 BYTE   KEYSH   songBB_key+0
Label_4_0127E84E:
 BYTE   VOICE   48
 BYTE   VOL   20*songBB_mvl/mxv
 BYTE   PAN   c_v+6
 BYTE   W12
 BYTE   TIE  Gs1  v120
 BYTE   TIE  Gs2
 BYTE   W84
// 001   ----------------------------------------
 BYTE   W96
// 002   ----------------------------------------
 BYTE   W12
 BYTE   EOT
 BYTE   Gs1  v056
 BYTE   TIE  Gs1
 BYTE   TIE  Gs2
 BYTE   W84
// 003   ----------------------------------------
 BYTE   W96
// 004   ----------------------------------------
 BYTE   W12
 BYTE   EOT
 BYTE   Gs1  v056
 BYTE   W84
// 005   ----------------------------------------
 BYTE   W96
// 006   ----------------------------------------
 BYTE   W96
// 007   ----------------------------------------
 BYTE   W96
// 008   ----------------------------------------
 BYTE   W96
// 009   ----------------------------------------
 BYTE   W96
// 010   ----------------------------------------
 BYTE   W96
// 011   ----------------------------------------
 BYTE   W96
// 012   ----------------------------------------
Label_4_0127E872:
 BYTE   W12
 BYTE   N06  Gs0  v120
 BYTE   N06  Gs1
 BYTE   W36
 BYTE   Gs0
 BYTE   N06  Gs1
 BYTE   W24
 BYTE   Gs0
 BYTE   N06  Gs1
 BYTE   W12
 BYTE   Gs0
 BYTE   N06  Gs1
 BYTE   W12
 BYTE   PEND 
// 013   ----------------------------------------
 BYTE   PATT
  POIN2 Label_4_0127E872
// 014   ----------------------------------------
 BYTE   PATT
  POIN2 Label_4_0127E872
// 015   ----------------------------------------
 BYTE   PATT
  POIN2 Label_4_0127E872
// 016   ----------------------------------------
 BYTE   PATT
  POIN2 Label_4_0127E872
// 017   ----------------------------------------
 BYTE   PATT
  POIN2 Label_4_0127E872
// 018   ----------------------------------------
 BYTE   PATT
  POIN2 Label_4_0127E872
// 019   ----------------------------------------
 BYTE   PATT
  POIN2 Label_4_0127E872
// 020   ----------------------------------------
 BYTE   PATT
  POIN2 Label_4_0127E872
// 021   ----------------------------------------
 BYTE   PATT
  POIN2 Label_4_0127E872
// 022   ----------------------------------------
 BYTE   PATT
  POIN2 Label_4_0127E872
// 023   ----------------------------------------
 BYTE   PATT
  POIN2 Label_4_0127E872
// 024   ----------------------------------------
 BYTE   PATT
  POIN2 Label_4_0127E872
// 025   ----------------------------------------
 BYTE   PATT
  POIN2 Label_4_0127E872
// 026   ----------------------------------------
 BYTE   PATT
  POIN2 Label_4_0127E872
// 027   ----------------------------------------
 BYTE   PATT
  POIN2 Label_4_0127E872
// 028   ----------------------------------------
 BYTE   PATT
  POIN2 Label_4_0127E872
// 029   ----------------------------------------
 BYTE   PATT
  POIN2 Label_4_0127E872
// 030   ----------------------------------------
 BYTE   PATT
  POIN2 Label_4_0127E872
// 031   ----------------------------------------
 BYTE   PATT
  POIN2 Label_4_0127E872
// 032   ----------------------------------------
 BYTE   W96
// 033   ----------------------------------------
 BYTE   W96
// 034   ----------------------------------------
 BYTE   W96
// 035   ----------------------------------------
 BYTE   W96
// 036   ----------------------------------------
 BYTE   W12
 BYTE   N06  Gs0  v120
 BYTE   N06  Gs1
 BYTE   W24
 BYTE   Gs0
 BYTE   N06  Gs1
 BYTE   W24
 BYTE   Gs0
 BYTE   N06  Gs1
 BYTE   W24
 BYTE   As0
 BYTE   N06  As1
 BYTE   W12
// 037   ----------------------------------------
 BYTE   W12
 BYTE   As0
 BYTE   N06  As1
 BYTE   W24
 BYTE   As0
 BYTE   N06  As1
 BYTE   W24
 BYTE   Bn0
 BYTE   N06  Bn1
 BYTE   W24
 BYTE   Bn0
 BYTE   N06  Bn1
 BYTE   W12
// 038   ----------------------------------------
 BYTE   W12
 BYTE   Bn0
 BYTE   N06  Bn1
 BYTE   W24
 BYTE   Cs1
 BYTE   N06  Cs2
 BYTE   W24
 BYTE   Cs1
 BYTE   N06  Cs2
 BYTE   W24
 BYTE   Cs1
 BYTE   N06  Cs2
 BYTE   W12
// 039   ----------------------------------------
 BYTE   W12
 BYTE   Gs0
 BYTE   N06  Gs1
 BYTE   W24
 BYTE   Gs0
 BYTE   N06  Gs1
 BYTE   W24
 BYTE   Gs0
 BYTE   N06  Gs1
 BYTE   W24
 BYTE   Gs0
 BYTE   N06  Gs1
 BYTE   W12
// 040   ----------------------------------------
 BYTE   W12
 BYTE   Gs0
 BYTE   N06  Gs1
 BYTE   W24
 BYTE   Gs0
 BYTE   N06  Gs1
 BYTE   W24
 BYTE   En1
 BYTE   N06  En2
 BYTE   W24
 BYTE   En1
 BYTE   N06  En2
 BYTE   W12
// 041   ----------------------------------------
 BYTE   W12
 BYTE   En1
 BYTE   N06  En2
 BYTE   W24
 BYTE   En1
 BYTE   N06  En2
 BYTE   W24
 BYTE   En1
 BYTE   N06  En2
 BYTE   W24
 BYTE   En1
 BYTE   N06  En2
 BYTE   W12
// 042   ----------------------------------------
 BYTE   W12
 BYTE   Fs1
 BYTE   N06  Fs2
 BYTE   W24
 BYTE   Fs1
 BYTE   N06  Fs2
 BYTE   W24
 BYTE   Fs1
 BYTE   N06  Fs2
 BYTE   W24
 BYTE   Fs1
 BYTE   N06  Fs2
 BYTE   W12
// 043   ----------------------------------------
 BYTE   W12
 BYTE   Fs1
 BYTE   N06  Fs2
 BYTE   W24
 BYTE   Fs1
 BYTE   N06  Fs2
 BYTE   W24
 BYTE   Gs0
 BYTE   N06  Gs1
 BYTE   W36
// 044   ----------------------------------------
Label_4_0127E96F:
 BYTE   N06  Gs0  v120
 BYTE   N06  Gs1
 BYTE   W24
 BYTE   Gs0
 BYTE   N06  Gs1
 BYTE   W12
 BYTE   Gs0
 BYTE   N06  Gs1
 BYTE   W24
 BYTE   Gs0
 BYTE   N06  Gs1
 BYTE   W36
 BYTE   PEND 
// 045   ----------------------------------------
 BYTE   PATT
  POIN2 Label_4_0127E96F
// 046   ----------------------------------------
 BYTE   PATT
  POIN2 Label_4_0127E96F
// 047   ----------------------------------------
 BYTE   N06  Gs0  v120
 BYTE   N06  Gs1
 BYTE   W24
 BYTE   Gs0
 BYTE   N06  Gs1
 BYTE   W12
 BYTE   Gs0
 BYTE   N06  Gs1
 BYTE   W60
// 048   ----------------------------------------
 BYTE   W96
// 049   ----------------------------------------
 BYTE   W96
// 050   ----------------------------------------
 BYTE   W96
// 051   ----------------------------------------
 BYTE   W60
 BYTE   GoTo
  POIN2 Label_4_0127E84E
 BYTE   FINE

//**************** Track 6 (Midi-Chn.5) ****************//

songBB_006:
// 000   ----------------------------------------
 BYTE   KEYSH   songBB_key+0
Label_5_0127E9A6:
 BYTE   VOICE   60
 BYTE   VOL   24*songBB_mvl/mxv
 BYTE   PAN   c_v+0
 BYTE   W12
 BYTE   N06  Cn2  v120
 BYTE   N06  Ds2
 BYTE   W12
 BYTE   N04
 BYTE   N04  Gs2
 BYTE   W06
 BYTE   Ds2
 BYTE   N04  Gs2
 BYTE   W06
 BYTE   N24  Ds2
 BYTE   N24  Gs2
 BYTE   W36
 BYTE   N12  Fn2
 BYTE   N12  As2
 BYTE   W24
// 001   ----------------------------------------
 BYTE   N06  Cs2
 BYTE   N06  Fn2
 BYTE   W12
 BYTE   Cn2
 BYTE   N06  Ds2
 BYTE   W12
 BYTE   N04
 BYTE   N04  Gs2
 BYTE   W06
 BYTE   Ds2
 BYTE   N04  Gs2
 BYTE   W06
 BYTE   N24  Ds2
 BYTE   N24  Gs2
 BYTE   W36
 BYTE   N12  Fn2
 BYTE   N12  As2
 BYTE   W12
 BYTE   Fn2
 BYTE   N12  Cn3
 BYTE   W12
// 002   ----------------------------------------
 BYTE   N06  As2
 BYTE   N06  Cs3
 BYTE   W12
 BYTE   Ds2
 BYTE   N06  Cn3
 BYTE   W12
 BYTE   N04
 BYTE   N04  Ds3
 BYTE   W06
 BYTE   Cn3
 BYTE   N04  Ds3
 BYTE   W06
 BYTE   N24  Cn3
 BYTE   N24  Ds3
 BYTE   W36
 BYTE   N12  Cs3
 BYTE   N12  Fn3
 BYTE   W24
// 003   ----------------------------------------
 BYTE   N06  Gs2
 BYTE   N06  Cs3
 BYTE   W12
 BYTE   Ds2
 BYTE   N06  Cn3
 BYTE   W12
 BYTE   N04
 BYTE   N04  Ds3
 BYTE   W06
 BYTE   Cn3
 BYTE   N04  Ds3
 BYTE   W06
 BYTE   N24  Cn3
 BYTE   N24  Ds3
 BYTE   W36
 BYTE   N12  Cs3
 BYTE   N12  Fn3
 BYTE   W12
 BYTE   Cn3
 BYTE   N12  Ds3
 BYTE   W12
// 004   ----------------------------------------
 BYTE   N06  As2
 BYTE   N06  Cs3
 BYTE   W12
 BYTE   TIE  Gs2  v112
 BYTE   N96  Cn3
 BYTE   W04
 BYTE   W01
 BYTE   W04
 BYTE   W01
 BYTE   W04
 BYTE   W01
 BYTE   W04
 BYTE   W05
 BYTE   W04
 BYTE   W01
 BYTE   W04
 BYTE   W01
 BYTE   W04
 BYTE   W01
 BYTE   W04
 BYTE   W05
 BYTE   W36
// 005   ----------------------------------------
 BYTE   W12
 BYTE   Bn2
 BYTE   W06
 BYTE   W01
 BYTE   W05
 BYTE   W01
 BYTE   W06
 BYTE   W06
 BYTE   W01
 BYTE   W06
 BYTE   W06
 BYTE   W01
 BYTE   W05
 BYTE   W01
 BYTE   W06
 BYTE   W06
 BYTE   W01
 BYTE   W06
 BYTE   W06
 BYTE   W01
 BYTE   W05
 BYTE   W01
 BYTE   W06
 BYTE   W01
// 006   ----------------------------------------
 BYTE   W05
 BYTE   W01
 BYTE   W06
 BYTE   EOT
 BYTE   Gs2
 BYTE   W84
// 007   ----------------------------------------
 BYTE   W12
 BYTE   W84
// 008   ----------------------------------------
 BYTE   W96
// 009   ----------------------------------------
 BYTE   W96
// 010   ----------------------------------------
 BYTE   W96
// 011   ----------------------------------------
 BYTE   W12
 BYTE   W84
// 012   ----------------------------------------
 BYTE   W96
// 013   ----------------------------------------
 BYTE   W96
// 014   ----------------------------------------
 BYTE   W96
// 015   ----------------------------------------
 BYTE   W96
// 016   ----------------------------------------
 BYTE   W96
// 017   ----------------------------------------
 BYTE   W96
// 018   ----------------------------------------
 BYTE   W96
// 019   ----------------------------------------
 BYTE   W12
 BYTE   W84
// 020   ----------------------------------------
 BYTE   W12
 BYTE   N36  As2  v116
 BYTE   W36
 BYTE   Cn3
 BYTE   W36
 BYTE   N24  Cs3
 BYTE   W12
// 021   ----------------------------------------
 BYTE   W12
 BYTE   TIE  Cn3
 BYTE   W84
// 022   ----------------------------------------
 BYTE   W36
 BYTE   EOT
 BYTE   W12
 BYTE   N36
 BYTE   W36
 BYTE   N24  Cs3
 BYTE   W12
// 023   ----------------------------------------
 BYTE   W12
 BYTE   N36  Ds3
 BYTE   W36
 BYTE   Cs3
 BYTE   W36
 BYTE   N18  Cn3
 BYTE   W12
// 024   ----------------------------------------
 BYTE   W12
 BYTE   N36  As2
 BYTE   W36
 BYTE   Cs3
 BYTE   W36
 BYTE   N24  Fn3
 BYTE   W12
// 025   ----------------------------------------
 BYTE   W12
 BYTE   TIE  Fn3  v096
 BYTE   TIE  As3  v116
 BYTE   W84
// 026   ----------------------------------------
 BYTE   W36
 BYTE   EOT
 BYTE   Fn3  v070
 BYTE   W12
 BYTE   N36  Cn4  v127
 BYTE   W36
 BYTE   N24  Cs4
 BYTE   W12
// 027   ----------------------------------------
 BYTE   W12
 BYTE   N36  Cn4
 BYTE   W36
 BYTE   As3
 BYTE   W36
 BYTE   N24  Cn4
 BYTE   W12
// 028   ----------------------------------------
 BYTE   W12
 BYTE   TIE  Gs3  v120
 BYTE   W84
// 029   ----------------------------------------
 BYTE   W96
// 030   ----------------------------------------
 BYTE   W12
 BYTE   W01
 BYTE   W01
 BYTE   W02
 BYTE   W01
 BYTE   W01
 BYTE   W02
 BYTE   W01
 BYTE   W01
 BYTE   W01
 BYTE   W02
 BYTE   W01
 BYTE   W01
 BYTE   W02
 BYTE   W01
 BYTE   W01
 BYTE   W03
 BYTE   W01
 BYTE   W01
 BYTE   W02
 BYTE   W01
 BYTE   W01
 BYTE   W02
 BYTE   W01
 BYTE   W01
 BYTE   W02
 BYTE   W01
 BYTE   W01
 BYTE   W02
 BYTE   W01
 BYTE   W01
 BYTE   W03
 BYTE   W01
 BYTE   W01
 BYTE   W02
 BYTE   W01
 BYTE   W02
 BYTE   W01
 BYTE   W01
 BYTE   W01
 BYTE   W02
 BYTE   W01
 BYTE   W01
 BYTE   W02
 BYTE   W01
 BYTE   W01
 BYTE   W03
 BYTE   W01
 BYTE   W01
 BYTE   W02
 BYTE   W01
 BYTE   W01
 BYTE   W02
 BYTE   W01
 BYTE   W01
 BYTE   W01
 BYTE   W02
 BYTE   W01
 BYTE   W01
 BYTE   W02
 BYTE   W01
 BYTE   W01
 BYTE   W01
// 031   ----------------------------------------
 BYTE   W02
 BYTE   W01
 BYTE   W01
 BYTE   W02
 BYTE   W01
 BYTE   W01
 BYTE   W02
 BYTE   W01
 BYTE   W01
 BYTE   EOT
 BYTE   W84
// 032   ----------------------------------------
 BYTE   W12
 BYTE   W84
// 033   ----------------------------------------
 BYTE   W96
// 034   ----------------------------------------
 BYTE   W96
// 035   ----------------------------------------
 BYTE   W96
// 036   ----------------------------------------
 BYTE   W96
// 037   ----------------------------------------
 BYTE   W96
// 038   ----------------------------------------
 BYTE   W96
// 039   ----------------------------------------
 BYTE   W96
// 040   ----------------------------------------
 BYTE   W60
 BYTE   TIE  Ds2  v108
 BYTE   TIE  Gs2
 BYTE   W36
// 041   ----------------------------------------
 BYTE   W96
// 042   ----------------------------------------
 BYTE   W12
 BYTE   EOT
 BYTE   Ds2  v056
 BYTE   TIE  Cs2
 BYTE   TIE  Fs2
 BYTE   W84
// 043   ----------------------------------------
 BYTE   W60
 BYTE   EOT
 BYTE   Cs2  v054
 BYTE   N96  Ds2
 BYTE   N96  Cn3
 BYTE   W36
// 044   ----------------------------------------
 BYTE   W60
 BYTE   N36  Cn2
 BYTE   N36  Gs2
 BYTE   W36
// 045   ----------------------------------------
 BYTE   Ds2
 BYTE   N36  Cn3
 BYTE   W36
 BYTE   N24  Gs2
 BYTE   N24  Ds3
 BYTE   W24
 BYTE   TIE  Cn3
 BYTE   TIE  Gs3
 BYTE   W36
// 046   ----------------------------------------
 BYTE   W12
 BYTE   W01
 BYTE   W03
 BYTE   W01
 BYTE   W03
 BYTE   W01
 BYTE   W03
 BYTE   W01
 BYTE   W03
 BYTE   W01
 BYTE   W03
 BYTE   W01
 BYTE   W03
 BYTE   W01
 BYTE   W03
 BYTE   W01
 BYTE   W03
 BYTE   W01
 BYTE   W03
 BYTE   W01
 BYTE   W03
 BYTE   W01
 BYTE   W03
 BYTE   W01
 BYTE   W03
 BYTE   W01
 BYTE   W03
 BYTE   W01
 BYTE   W03
 BYTE   W01
 BYTE   W01
 BYTE   W02
 BYTE   W01
 BYTE   W01
 BYTE   W02
 BYTE   W01
 BYTE   W01
 BYTE   W02
 BYTE   W01
 BYTE   W01
 BYTE   W02
 BYTE   W01
 BYTE   W01
 BYTE   W02
 BYTE   W01
 BYTE   W01
 BYTE   W02
 BYTE   W01
 BYTE   W01
 BYTE   W02
// 047   ----------------------------------------
 BYTE   W01
 BYTE   W01
 BYTE   W02
 BYTE   W01
 BYTE   W01
 BYTE   W02
 BYTE   W01
 BYTE   W01
 BYTE   W02
 BYTE   W01
 BYTE   W01
 BYTE   W02
 BYTE   W01
 BYTE   W01
 BYTE   W02
 BYTE   W01
 BYTE   W01
 BYTE   W03
 BYTE   W01
 BYTE   W03
 BYTE   W01
 BYTE   W03
 BYTE   W01
 BYTE   W03
 BYTE   W01
 BYTE   W03
 BYTE   W01
 BYTE   W03
 BYTE   W01
 BYTE   W03
 BYTE   W01
 BYTE   W03
 BYTE   W01
 BYTE   W03
 BYTE   W01
 BYTE   W02
 BYTE   EOT
 BYTE   Cn3  v068
 BYTE   W36
// 048   ----------------------------------------
 BYTE   W96
// 049   ----------------------------------------
 BYTE   W96
// 050   ----------------------------------------
 BYTE   W96
// 051   ----------------------------------------
 BYTE   W60
 BYTE   GoTo
  POIN2 Label_5_0127E9A6
 BYTE   FINE

//**************** Track 7 (Midi-Chn.6) ****************//

songBB_007:
// 000   ----------------------------------------
 BYTE   KEYSH   songBB_key+0
Label_6_0127EB9A:
 BYTE   VOICE   60
 BYTE   VOL   24*songBB_mvl/mxv
 BYTE   PAN   c_v+0
 BYTE   W96
// 001   ----------------------------------------
 BYTE   W96
// 002   ----------------------------------------
 BYTE   W96
// 003   ----------------------------------------
 BYTE   W96
// 004   ----------------------------------------
 BYTE   W96
// 005   ----------------------------------------
 BYTE   W96
// 006   ----------------------------------------
 BYTE   W96
// 007   ----------------------------------------
 BYTE   W96
// 008   ----------------------------------------
 BYTE   W96
// 009   ----------------------------------------
 BYTE   W60
 BYTE   N48  As1  v116
 BYTE   N48  Fs2
 BYTE   W01
 BYTE   W01
 BYTE   W01
 BYTE   W01
 BYTE   W01
 BYTE   W01
 BYTE   W01
 BYTE   W01
 BYTE   W01
 BYTE   W01
 BYTE   W01
 BYTE   W01
 BYTE   W01
 BYTE   W01
 BYTE   W01
 BYTE   W01
 BYTE   W01
 BYTE   W01
 BYTE   W01
 BYTE   W01
 BYTE   W01
 BYTE   W01
 BYTE   W01
 BYTE   W01
 BYTE   W01
 BYTE   W01
 BYTE   W01
 BYTE   W01
 BYTE   W01
 BYTE   W01
 BYTE   W01
 BYTE   W01
 BYTE   W01
 BYTE   W01
 BYTE   W01
 BYTE   W01
// 010   ----------------------------------------
 BYTE   W01
 BYTE   W01
 BYTE   W01
 BYTE   W01
 BYTE   W01
 BYTE   W01
 BYTE   W01
 BYTE   W01
 BYTE   W01
 BYTE   W01
 BYTE   W01
 BYTE   W01
 BYTE   TIE  Ds2
 BYTE   TIE  Gs2
 BYTE   W01
 BYTE   W02
 BYTE   W02
 BYTE   W02
 BYTE   W02
 BYTE   W02
 BYTE   W02
 BYTE   W02
 BYTE   W02
 BYTE   W02
 BYTE   W02
 BYTE   W02
 BYTE   W02
 BYTE   W02
 BYTE   W02
 BYTE   W02
 BYTE   W02
 BYTE   W02
 BYTE   W01
 BYTE   W02
 BYTE   W02
 BYTE   W02
 BYTE   W02
 BYTE   W02
 BYTE   W02
 BYTE   W02
 BYTE   W02
 BYTE   W02
 BYTE   W02
 BYTE   W02
 BYTE   W02
 BYTE   W02
 BYTE   W02
 BYTE   W02
 BYTE   W02
 BYTE   W02
 BYTE   W02
 BYTE   W12
// 011   ----------------------------------------
 BYTE   W96
// 012   ----------------------------------------
 BYTE   W96
// 013   ----------------------------------------
 BYTE   W96
// 014   ----------------------------------------
 BYTE   W96
// 015   ----------------------------------------
 BYTE   W96
// 016   ----------------------------------------
 BYTE   W12
 BYTE   EOT
 BYTE   Ds2  v056
 BYTE   N96  Fn2  v120
 BYTE   N96  Cs3
 BYTE   W84
// 017   ----------------------------------------
Label_6_0127EC18:
 BYTE   W12
 BYTE   N96  Fn2  v127
 BYTE   N36  As2
 BYTE   W42
 BYTE   Cs3
 BYTE   W30
 BYTE   N24  Cn3
 BYTE   W12
 BYTE   PEND 
// 018   ----------------------------------------
Label_6_0127EC25:
 BYTE   W12
 BYTE   TIE  Fn2  v127
 BYTE   TIE  As2
 BYTE   W84
 BYTE   PEND 
// 019   ----------------------------------------
 BYTE   W96
// 020   ----------------------------------------
 BYTE   W12
 BYTE   EOT
 BYTE   Fn2  v058
 BYTE   TIE  Ds2  v120
 BYTE   TIE  Gs2
 BYTE   W84
// 021   ----------------------------------------
 BYTE   W96
// 022   ----------------------------------------
 BYTE   W96
// 023   ----------------------------------------
 BYTE   W96
// 024   ----------------------------------------
 BYTE   W12
 BYTE   EOT
 BYTE   Ds2  v056
 BYTE   N96  Fn2
 BYTE   N96  Cs3
 BYTE   W84
// 025   ----------------------------------------
 BYTE   PATT
  POIN2 Label_6_0127EC18
// 026   ----------------------------------------
 BYTE   PATT
  POIN2 Label_6_0127EC25
// 027   ----------------------------------------
 BYTE   W96
// 028   ----------------------------------------
 BYTE   W12
 BYTE   EOT
 BYTE   Fn2  v058
 BYTE   N96  Ds2  v127
 BYTE   N96  Cn3
 BYTE   W84
// 029   ----------------------------------------
 BYTE   W12
 BYTE   N36  Ds2
 BYTE   N36  Cn3
 BYTE   W36
 BYTE   Gs2
 BYTE   N36  Ds3
 BYTE   W36
 BYTE   N24  Cn3
 BYTE   N24  Gs3
 BYTE   W12
// 030   ----------------------------------------
 BYTE   W12
 BYTE   TIE  Ds3
 BYTE   TIE  Cn4
 BYTE   W84
// 031   ----------------------------------------
 BYTE   W60
 BYTE   W01
 BYTE   W01
 BYTE   W01
 BYTE   W01
 BYTE   W01
 BYTE   W01
 BYTE   W01
 BYTE   W01
 BYTE   W01
 BYTE   W01
 BYTE   W01
 BYTE   W01
 BYTE   W01
 BYTE   W01
 BYTE   W01
 BYTE   W01
 BYTE   W01
 BYTE   W01
 BYTE   W01
 BYTE   W01
 BYTE   W01
 BYTE   W01
 BYTE   W01
 BYTE   W01
 BYTE   W01
 BYTE   W01
 BYTE   W01
 BYTE   W01
 BYTE   W01
 BYTE   W01
 BYTE   W01
 BYTE   W01
 BYTE   W01
 BYTE   W01
 BYTE   W01
 BYTE   W01
// 032   ----------------------------------------
 BYTE   W01
 BYTE   W01
 BYTE   W01
 BYTE   W01
 BYTE   W01
 BYTE   W01
 BYTE   W01
 BYTE   W01
 BYTE   W01
 BYTE   W01
 BYTE   W01
 BYTE   W01
 BYTE   EOT
 BYTE   Ds3  v072
 BYTE   W84
// 033   ----------------------------------------
 BYTE   W12
 BYTE   W84
// 034   ----------------------------------------
 BYTE   W96
// 035   ----------------------------------------
 BYTE   W96
// 036   ----------------------------------------
 BYTE   W12
 BYTE   N72  Cn2
 BYTE   N72  Gs2
 BYTE   W72
 BYTE   Dn2
 BYTE   N72  As2
 BYTE   W12
// 037   ----------------------------------------
 BYTE   W60
 BYTE   Ds2
 BYTE   N72  Bn2
 BYTE   W36
// 038   ----------------------------------------
 BYTE   W36
 BYTE   Fn2
 BYTE   N72  Cs3
 BYTE   W60
// 039   ----------------------------------------
 BYTE   W12
 BYTE   Gs2
 BYTE   N72  Ds3
 BYTE   W72
 BYTE   Ds2
 BYTE   N72  Cn3
 BYTE   W12
// 040   ----------------------------------------
 BYTE   W96
// 041   ----------------------------------------
 BYTE   W96
// 042   ----------------------------------------
 BYTE   W96
// 043   ----------------------------------------
 BYTE   W96
// 044   ----------------------------------------
 BYTE   W96
// 045   ----------------------------------------
 BYTE   W96
// 046   ----------------------------------------
 BYTE   W96
// 047   ----------------------------------------
 BYTE   W60
 BYTE   TIE  Ds2  v116
 BYTE   TIE  Gs2
 BYTE   W36
// 048   ----------------------------------------
 BYTE   W96
// 049   ----------------------------------------
 BYTE   W96
// 050   ----------------------------------------
 BYTE   W96
// 051   ----------------------------------------
 BYTE   W60
 BYTE   EOT
 BYTE   Ds2  v056
 BYTE   GoTo
  POIN2 Label_6_0127EB9A
 BYTE   FINE

//**************** Track 8 (Midi-Chn.7) ****************//

songBB_008:
// 000   ----------------------------------------
 BYTE   KEYSH   songBB_key+0
Label_7_0127ECE2:
 BYTE   VOICE   60
 BYTE   VOL   24*songBB_mvl/mxv
 BYTE   PAN   c_v+0
 BYTE   W96
// 001   ----------------------------------------
 BYTE   W96
// 002   ----------------------------------------
 BYTE   W96
// 003   ----------------------------------------
 BYTE   W96
// 004   ----------------------------------------
 BYTE   W96
// 005   ----------------------------------------
 BYTE   W96
// 006   ----------------------------------------
 BYTE   W96
// 007   ----------------------------------------
 BYTE   W96
// 008   ----------------------------------------
 BYTE   W96
// 009   ----------------------------------------
 BYTE   W96
// 010   ----------------------------------------
Label_7_0127ECF2:
 BYTE   W12
 BYTE   N06  Gs1  v127
 BYTE   W36
 BYTE   N06
 BYTE   W24
 BYTE   N06
 BYTE   W12
 BYTE   N06
 BYTE   W12
 BYTE   PEND 
// 011   ----------------------------------------
 BYTE   PATT
  POIN2 Label_7_0127ECF2
// 012   ----------------------------------------
 BYTE   PATT
  POIN2 Label_7_0127ECF2
// 013   ----------------------------------------
 BYTE   PATT
  POIN2 Label_7_0127ECF2
// 014   ----------------------------------------
 BYTE   PATT
  POIN2 Label_7_0127ECF2
// 015   ----------------------------------------
 BYTE   PATT
  POIN2 Label_7_0127ECF2
// 016   ----------------------------------------
 BYTE   PATT
  POIN2 Label_7_0127ECF2
// 017   ----------------------------------------
 BYTE   PATT
  POIN2 Label_7_0127ECF2
// 018   ----------------------------------------
 BYTE   PATT
  POIN2 Label_7_0127ECF2
// 019   ----------------------------------------
 BYTE   PATT
  POIN2 Label_7_0127ECF2
// 020   ----------------------------------------
 BYTE   PATT
  POIN2 Label_7_0127ECF2
// 021   ----------------------------------------
 BYTE   PATT
  POIN2 Label_7_0127ECF2
// 022   ----------------------------------------
 BYTE   PATT
  POIN2 Label_7_0127ECF2
// 023   ----------------------------------------
 BYTE   PATT
  POIN2 Label_7_0127ECF2
// 024   ----------------------------------------
 BYTE   PATT
  POIN2 Label_7_0127ECF2
// 025   ----------------------------------------
 BYTE   PATT
  POIN2 Label_7_0127ECF2
// 026   ----------------------------------------
 BYTE   PATT
  POIN2 Label_7_0127ECF2
// 027   ----------------------------------------
 BYTE   PATT
  POIN2 Label_7_0127ECF2
// 028   ----------------------------------------
 BYTE   PATT
  POIN2 Label_7_0127ECF2
// 029   ----------------------------------------
 BYTE   PATT
  POIN2 Label_7_0127ECF2
// 030   ----------------------------------------
 BYTE   PATT
  POIN2 Label_7_0127ECF2
// 031   ----------------------------------------
 BYTE   PATT
  POIN2 Label_7_0127ECF2
// 032   ----------------------------------------
 BYTE   W96
// 033   ----------------------------------------
 BYTE   W96
// 034   ----------------------------------------
 BYTE   W96
// 035   ----------------------------------------
 BYTE   W96
// 036   ----------------------------------------
 BYTE   W96
// 037   ----------------------------------------
 BYTE   W96
// 038   ----------------------------------------
 BYTE   W96
// 039   ----------------------------------------
 BYTE   W96
// 040   ----------------------------------------
 BYTE   W96
// 041   ----------------------------------------
 BYTE   W96
// 042   ----------------------------------------
 BYTE   W96
// 043   ----------------------------------------
 BYTE   W60
 BYTE   N06  Gs1  v127
 BYTE   W36
// 044   ----------------------------------------
Label_7_0127ED77:
 BYTE   N06  Gs1  v127
 BYTE   W24
 BYTE   N06
 BYTE   W12
 BYTE   N06
 BYTE   W24
 BYTE   N06
 BYTE   W36
 BYTE   PEND 
// 045   ----------------------------------------
 BYTE   PATT
  POIN2 Label_7_0127ED77
// 046   ----------------------------------------
 BYTE   PATT
  POIN2 Label_7_0127ED77
// 047   ----------------------------------------
 BYTE   N06  Gs1  v127
 BYTE   W24
 BYTE   N06
 BYTE   W12
 BYTE   N06
 BYTE   W60
// 048   ----------------------------------------
 BYTE   W96
// 049   ----------------------------------------
 BYTE   W96
// 050   ----------------------------------------
 BYTE   W96
// 051   ----------------------------------------
 BYTE   W60
 BYTE   GoTo
  POIN2 Label_7_0127ECE2
 BYTE   FINE

//**************** Track 9 (Midi-Chn.8) ****************//

songBB_009:
// 000   ----------------------------------------
 BYTE   KEYSH   songBB_key+0
Label_8_0127EDA2:
 BYTE   VOICE   127
 BYTE   VOL   20*songBB_mvl/mxv
 BYTE   PAN   c_v+0
 BYTE   W12
 BYTE   N02  Dn1  v092
 BYTE   W02
 BYTE   N10  Dn1  v080
 BYTE   W10
 BYTE   N06  Dn1  v060
 BYTE   W06
 BYTE   Dn1  v072
 BYTE   W06
 BYTE   N12  Dn1  v080
 BYTE   W12
 BYTE   Dn1  v092
 BYTE   W12
 BYTE   N06  Dn1  v060
 BYTE   W06
 BYTE   Dn1  v072
 BYTE   W06
 BYTE   N12  Dn1  v080
 BYTE   W12
 BYTE   N06  Dn1  v092
 BYTE   W06
 BYTE   Dn1  v060
 BYTE   W06
// 001   ----------------------------------------
Label_8_0127EDD1:
 BYTE   N12  Dn1  v072
 BYTE   W12
 BYTE   Dn1  v092
 BYTE   W12
 BYTE   N06  Dn1  v060
 BYTE   W06
 BYTE   Dn1  v072
 BYTE   W06
 BYTE   N12  Dn1  v080
 BYTE   W12
 BYTE   Dn1  v092
 BYTE   W12
 BYTE   N06  Dn1  v060
 BYTE   W06
 BYTE   Dn1  v072
 BYTE   W06
 BYTE   N12  Dn1  v080
 BYTE   W12
 BYTE   N06  Dn1  v092
 BYTE   W06
 BYTE   N03  Dn1  v072
 BYTE   W03
 BYTE   N03
 BYTE   W03
 BYTE   PEND 
// 002   ----------------------------------------
Label_8_0127EDFC:
 BYTE   N06  Dn1  v080
 BYTE   W06
 BYTE   Dn1  v092
 BYTE   W06
 BYTE   N12
 BYTE   W12
 BYTE   N06  Dn1  v060
 BYTE   W06
 BYTE   Dn1  v072
 BYTE   W06
 BYTE   N12  Dn1  v080
 BYTE   W12
 BYTE   Dn1  v092
 BYTE   W12
 BYTE   N06  Dn1  v060
 BYTE   W06
 BYTE   Dn1  v072
 BYTE   W06
 BYTE   N12  Dn1  v080
 BYTE   W12
 BYTE   N06  Dn1  v092
 BYTE   W06
 BYTE   Dn1  v060
 BYTE   W06
 BYTE   PEND 
// 003   ----------------------------------------
 BYTE   PATT
  POIN2 Label_8_0127EDD1
// 004   ----------------------------------------
 BYTE   N06  Dn1  v080
 BYTE   W06
 BYTE   Dn1  v092
 BYTE   W90
// 005   ----------------------------------------
 BYTE   W96
// 006   ----------------------------------------
 BYTE   W96
// 007   ----------------------------------------
 BYTE   W96
// 008   ----------------------------------------
 BYTE   W96
// 009   ----------------------------------------
 BYTE   W84
 BYTE   Dn1  v072
 BYTE   W06
 BYTE   Dn1  v060
 BYTE   W06
// 010   ----------------------------------------
 BYTE   Dn1  v072
 BYTE   W06
 BYTE   Dn1  v080
 BYTE   W06
 BYTE   N12  Dn1  v092
 BYTE   TIE  An2
 BYTE   W12
 BYTE   N06  Dn1  v060
 BYTE   W06
 BYTE   Dn1  v072
 BYTE   W06
 BYTE   N12  Dn1  v080
 BYTE   W12
 BYTE   Dn1  v092
 BYTE   W12
 BYTE   N06  Dn1  v060
 BYTE   W06
 BYTE   Dn1  v072
 BYTE   W06
 BYTE   N12  Dn1  v080
 BYTE   W12
 BYTE   N06  Dn1  v092
 BYTE   W06
 BYTE   Dn1  v060
 BYTE   W06
// 011   ----------------------------------------
 BYTE   PATT
  POIN2 Label_8_0127EDD1
// 012   ----------------------------------------
Label_8_0127EE6E:
 BYTE   N06  Dn1  v080
 BYTE   W06
 BYTE   Dn1  v092
 BYTE   W06
 BYTE   PEND 
 BYTE   EOT
 BYTE   An2
 BYTE   N12  Dn1
 BYTE   N96  Cs2
 BYTE   W12
 BYTE   N06  Dn1  v060
 BYTE   W06
 BYTE   Dn1  v072
 BYTE   W06
 BYTE   N12  Dn1  v080
 BYTE   W12
 BYTE   Dn1  v092
 BYTE   W12
 BYTE   N06  Dn1  v060
 BYTE   W06
 BYTE   Dn1  v072
 BYTE   W06
 BYTE   N12  Dn1  v080
 BYTE   W12
 BYTE   N06  Dn1  v092
 BYTE   W06
 BYTE   Dn1  v060
 BYTE   W06
// 013   ----------------------------------------
 BYTE   PATT
  POIN2 Label_8_0127EDD1
// 014   ----------------------------------------
 BYTE   PATT
  POIN2 Label_8_0127EDFC
// 015   ----------------------------------------
 BYTE   PATT
  POIN2 Label_8_0127EDD1
// 016   ----------------------------------------
 BYTE   PATT
  POIN2 Label_8_0127EDFC
// 017   ----------------------------------------
 BYTE   PATT
  POIN2 Label_8_0127EDD1
// 018   ----------------------------------------
 BYTE   PATT
  POIN2 Label_8_0127EDFC
// 019   ----------------------------------------
 BYTE   PATT
  POIN2 Label_8_0127EDD1
// 020   ----------------------------------------
 BYTE   PATT
  POIN2 Label_8_0127EDFC
// 021   ----------------------------------------
 BYTE   PATT
  POIN2 Label_8_0127EDD1
// 022   ----------------------------------------
 BYTE   PATT
  POIN2 Label_8_0127EDFC
// 023   ----------------------------------------
 BYTE   PATT
  POIN2 Label_8_0127EDD1
// 024   ----------------------------------------
 BYTE   PATT
  POIN2 Label_8_0127EDFC
// 025   ----------------------------------------
 BYTE   PATT
  POIN2 Label_8_0127EDD1
// 026   ----------------------------------------
 BYTE   PATT
  POIN2 Label_8_0127EDFC
// 027   ----------------------------------------
 BYTE   PATT
  POIN2 Label_8_0127EDD1
// 028   ----------------------------------------
 BYTE   PATT
  POIN2 Label_8_0127EDFC
// 029   ----------------------------------------
 BYTE   PATT
  POIN2 Label_8_0127EDD1
// 030   ----------------------------------------
Label_8_0127EEF2:
 BYTE   N06  Dn1  v080
 BYTE   W06
 BYTE   Dn1  v092
 BYTE   W06
 BYTE   N12
 BYTE   TIE  An2
 BYTE   W12
 BYTE   N06  Dn1  v060
 BYTE   W06
 BYTE   Dn1  v072
 BYTE   W06
 BYTE   N12  Dn1  v080
 BYTE   W12
 BYTE   Dn1  v092
 BYTE   W12
 BYTE   N06  Dn1  v060
 BYTE   W06
 BYTE   Dn1  v072
 BYTE   W06
 BYTE   N12  Dn1  v080
 BYTE   W12
 BYTE   N06  Dn1  v092
 BYTE   W06
 BYTE   Dn1  v060
 BYTE   W06
 BYTE   PEND 
// 031   ----------------------------------------
 BYTE   PATT
  POIN2 Label_8_0127EDD1
// 032   ----------------------------------------
 BYTE   PATT
  POIN2 Label_8_0127EE6E
// 033   ----------------------------------------
 BYTE   EOT
 BYTE   An2
 BYTE   N12  Dn1  v092
 BYTE   N96  Cs2
 BYTE   W12
 BYTE   N06  Dn1  v060
 BYTE   W06
 BYTE   Dn1  v072
 BYTE   W06
 BYTE   N12  Dn1  v080
 BYTE   W12
 BYTE   Dn1  v092
 BYTE   W12
 BYTE   N06  Dn1  v060
 BYTE   W06
 BYTE   Dn1  v072
 BYTE   W06
 BYTE   N12  Dn1  v080
 BYTE   W12
 BYTE   N06  Dn1  v092
 BYTE   W06
 BYTE   Dn1  v060
 BYTE   W06
// 034   ----------------------------------------
 BYTE   PATT
  POIN2 Label_8_0127EDD1
// 035   ----------------------------------------
 BYTE   PATT
  POIN2 Label_8_0127EEF2
// 036   ----------------------------------------
 BYTE   PATT
  POIN2 Label_8_0127EDD1
// 037   ----------------------------------------
 BYTE   PATT
  POIN2 Label_8_0127EE6E
// 038   ----------------------------------------
 BYTE   EOT
 BYTE   An2
 BYTE   N12  Dn1  v100
 BYTE   N96  Cs2  v092
 BYTE   W12
 BYTE   N06  Dn1  v072
 BYTE   W06
 BYTE   Dn1  v080
 BYTE   W06
 BYTE   N12  Dn1  v092
 BYTE   W12
 BYTE   Dn1  v100
 BYTE   W12
 BYTE   N06
 BYTE   W06
 BYTE   Dn1  v072
 BYTE   W06
 BYTE   N12  Dn1  v080
 BYTE   W12
 BYTE   Dn1  v100
 BYTE   W12
Label_8_0127EF87:
 BYTE   N06  Dn1  v072
 BYTE   W06
 BYTE   Dn1  v080
 BYTE   W06
// 039   ----------------------------------------
 BYTE   N12  Dn1  v092
 BYTE   W12
 BYTE   Dn1  v100
 BYTE   W12
 BYTE   N06
 BYTE   W06
 BYTE   N03  Dn1  v080
 BYTE   W03
 BYTE   N03
 BYTE   W03
 BYTE   N06  Dn1  v092
 BYTE   W06
 BYTE   Dn1  v100
 BYTE   W06
 BYTE   N12
 BYTE   W12
 BYTE   N06  Dn1  v072
 BYTE   W06
 BYTE   Dn1  v080
 BYTE   W06
 BYTE   N12  Dn1  v092
 BYTE   W12
 BYTE   PEND 
 BYTE   Dn1  v100
 BYTE   W12
// 040   ----------------------------------------
 BYTE   N06
 BYTE   W06
 BYTE   Dn1  v072
 BYTE   W06
 BYTE   N12  Dn1  v080
 BYTE   W12
 BYTE   Dn1  v100
 BYTE   W12
 BYTE   N06  Dn1  v072
 BYTE   W06
 BYTE   Dn1  v080
 BYTE   W06
 BYTE   N12  Dn1  v092
 BYTE   W12
 BYTE   Dn1  v100
 BYTE   W12
 BYTE   N06
 BYTE   W06
 BYTE   N03  Dn1  v080
 BYTE   W03
 BYTE   N03
 BYTE   W03
Label_8_0127EFD7:
 BYTE   N06  Dn1  v092
 BYTE   W06
 BYTE   Dn1  v100
 BYTE   W06
// 041   ----------------------------------------
 BYTE   N12
 BYTE   W12
 BYTE   N06  Dn1  v072
 BYTE   W06
 BYTE   Dn1  v080
 BYTE   W06
 BYTE   N12  Dn1  v092
 BYTE   W12
 BYTE   Dn1  v100
 BYTE   W12
 BYTE   N06
 BYTE   W06
 BYTE   Dn1  v072
 BYTE   W06
 BYTE   N12  Dn1  v080
 BYTE   W12
 BYTE   Dn1  v100
 BYTE   W12
 BYTE   PEND 
// 042   ----------------------------------------
 BYTE   PATT
  POIN2 Label_8_0127EF87
// 043   ----------------------------------------
 BYTE   N12  Dn1  v100
 BYTE   W12
 BYTE   N06
 BYTE   W06
 BYTE   Dn1  v072
 BYTE   W06
 BYTE   N12  Dn1  v080
 BYTE   W12
 BYTE   Dn1  v100
 BYTE   W12
 BYTE   N06  Dn1  v072
 BYTE   W06
 BYTE   Dn1  v080
 BYTE   W06
 BYTE   N12  Dn1  v092
 BYTE   TIE  An2
 BYTE   W12
 BYTE   N12  Dn1  v100
 BYTE   W12
 BYTE   N06
 BYTE   W06
 BYTE   N03  Dn1  v080
 BYTE   W03
 BYTE   N03
 BYTE   W03
// 044   ----------------------------------------
 BYTE   PATT
  POIN2 Label_8_0127EFD7
// 045   ----------------------------------------
 BYTE   N06  Dn1  v072
 BYTE   W06
 BYTE   Dn1  v080
 BYTE   W06
 BYTE   N12  Dn1  v092
 BYTE   W12
 BYTE   Dn1  v100
 BYTE   W12
 BYTE   N06
 BYTE   W06
 BYTE   N03  Dn1  v080
 BYTE   W03
 BYTE   N03
 BYTE   W03
 BYTE   N06  Dn1  v092
 BYTE   W06
 BYTE   Dn1  v100
 BYTE   W06
 BYTE   EOT
 BYTE   An2
 BYTE   N12  Dn1
 BYTE   N96  Cs2  v092
 BYTE   W12
 BYTE   N06  Dn1  v072
 BYTE   W06
 BYTE   Dn1  v080
 BYTE   W06
 BYTE   N12  Dn1  v092
 BYTE   W12
// 046   ----------------------------------------
Label_8_0127F05E:
 BYTE   N12  Dn1  v100
 BYTE   W12
 BYTE   N06  Dn1  v072
 BYTE   W06
 BYTE   Dn1  v080
 BYTE   W06
 BYTE   N12  Dn1  v092
 BYTE   W12
 BYTE   N06  Dn1  v100
 BYTE   W06
 BYTE   Dn1  v072
 BYTE   W06
 BYTE   N12  Dn1  v080
 BYTE   W12
 BYTE   Dn1  v100
 BYTE   W12
 BYTE   N06  Dn1  v072
 BYTE   W06
 BYTE   Dn1  v080
 BYTE   W06
 BYTE   N12  Dn1  v092
 BYTE   W12
 BYTE   PEND 
// 047   ----------------------------------------
 BYTE   Dn1  v100
 BYTE   W12
 BYTE   N06  Dn1  v072
 BYTE   W06
 BYTE   Dn1  v080
 BYTE   W06
 BYTE   N12  Dn1  v092
 BYTE   W12
 BYTE   N06  Dn1  v100
 BYTE   W06
 BYTE   N03  Dn1  v080
 BYTE   W03
 BYTE   N03
 BYTE   W03
 BYTE   N06  Dn1  v092
 BYTE   W06
 BYTE   Dn1  v100
 BYTE   W06
 BYTE   N12
 BYTE   W12
 BYTE   N06  Dn1  v072
 BYTE   W06
 BYTE   Dn1  v080
 BYTE   W06
 BYTE   N12  Dn1  v092
 BYTE   W12
// 048   ----------------------------------------
 BYTE   PATT
  POIN2 Label_8_0127F05E
// 049   ----------------------------------------
 BYTE   N12  Dn1  v100
 BYTE   W12
 BYTE   N06  Dn1  v072
 BYTE   W06
 BYTE   Dn1  v080
 BYTE   W06
 BYTE   N12  Dn1  v092
 BYTE   W12
 BYTE   N06  Dn1  v100
 BYTE   W06
 BYTE   N03  Dn1  v080
 BYTE   W03
 BYTE   N03
 BYTE   W03
 BYTE   N06  Dn1  v092
 BYTE   W06
 BYTE   Dn1  v100
 BYTE   W42
// 050   ----------------------------------------
 BYTE   W96
// 051   ----------------------------------------
 BYTE   W96
// 052   ----------------------------------------
 BYTE   W96
// 053   ----------------------------------------
 BYTE   W60
 BYTE   GoTo
  POIN2 Label_8_0127EDA2
 BYTE   FINE

//**************** Track 10 (Midi-Chn.9) ****************//

songBB_010:
// 000   ----------------------------------------
 BYTE   KEYSH   songBB_key+0
Label_9_0127F0E6:
 BYTE   VOICE   1
 BYTE   VOL   20*songBB_mvl/mxv
 BYTE   PAN   c_v+4
 BYTE   W96
// 001   ----------------------------------------
 BYTE   W96
// 002   ----------------------------------------
 BYTE   W96
// 003   ----------------------------------------
 BYTE   W96
// 004   ----------------------------------------
 BYTE   W12
 BYTE   N36  Ds5  v112
 BYTE   W12
 BYTE   Gs4  v100
 BYTE   W12
 BYTE   N24  Ds4
 BYTE   W12
 BYTE   N36  Ds5  v112
 BYTE   W12
 BYTE   Gs4  v100
 BYTE   W12
 BYTE   N24  Ds4
 BYTE   W12
 BYTE   Fn5  v112
 BYTE   W12
// 005   ----------------------------------------
 BYTE   Gs4  v100
 BYTE   W12
 BYTE   N36  Ds5  v112
 BYTE   W12
 BYTE   Gs4  v100
 BYTE   W12
 BYTE   N24  Ds4
 BYTE   W12
 BYTE   N36  Ds5  v112
 BYTE   W12
 BYTE   Gs4  v100
 BYTE   W12
 BYTE   N24  Ds4
 BYTE   W12
 BYTE   Cs5  v112
 BYTE   W12
// 006   ----------------------------------------
 BYTE   Gs4  v100
 BYTE   W96
// 007   ----------------------------------------
 BYTE   W96
// 008   ----------------------------------------
 BYTE   W96
// 009   ----------------------------------------
 BYTE   W96
// 010   ----------------------------------------
 BYTE   W96
// 011   ----------------------------------------
 BYTE   W96
// 012   ----------------------------------------
 BYTE   W96
// 013   ----------------------------------------
 BYTE   W96
// 014   ----------------------------------------
 BYTE   W96
// 015   ----------------------------------------
 BYTE   W96
// 016   ----------------------------------------
 BYTE   W96
// 017   ----------------------------------------
 BYTE   W96
// 018   ----------------------------------------
 BYTE   W96
// 019   ----------------------------------------
 BYTE   W96
// 020   ----------------------------------------
 BYTE   W96
// 021   ----------------------------------------
 BYTE   W96
// 022   ----------------------------------------
 BYTE   W96
// 023   ----------------------------------------
 BYTE   W96
// 024   ----------------------------------------
 BYTE   W96
// 025   ----------------------------------------
 BYTE   W96
// 026   ----------------------------------------
 BYTE   W96
// 027   ----------------------------------------
 BYTE   W96
// 028   ----------------------------------------
 BYTE   W96
// 029   ----------------------------------------
 BYTE   W96
// 030   ----------------------------------------
 BYTE   W96
// 031   ----------------------------------------
 BYTE   W96
// 032   ----------------------------------------
 BYTE   W96
// 033   ----------------------------------------
 BYTE   W96
// 034   ----------------------------------------
 BYTE   W96
// 035   ----------------------------------------
 BYTE   W96
// 036   ----------------------------------------
 BYTE   W12
 BYTE   N72  Gs1  v112
 BYTE   W12
 BYTE   N12  Ds2  v100
 BYTE   W12
 BYTE   Gs2
 BYTE   W12
 BYTE   Cn3
 BYTE   W12
 BYTE   Ds3
 BYTE   W12
 BYTE   Gs3
 BYTE   W12
 BYTE   N72  As1  v112
 BYTE   W12
// 037   ----------------------------------------
 BYTE   N12  Fn2  v100
 BYTE   W12
 BYTE   As2
 BYTE   W12
 BYTE   Fn2
 BYTE   W12
 BYTE   Dn3
 BYTE   W12
 BYTE   Fn2
 BYTE   W12
 BYTE   N72  Bn1  v112
 BYTE   W12
 BYTE   N12  Fs2  v100
 BYTE   W12
 BYTE   Bn2
 BYTE   W12
// 038   ----------------------------------------
 BYTE   Ds3
 BYTE   W12
 BYTE   Fs3
 BYTE   W12
 BYTE   Bn3
 BYTE   W12
 BYTE   N72  Cs2  v112
 BYTE   W12
 BYTE   N12  Gs2  v100
 BYTE   W12
 BYTE   Cs3
 BYTE   W12
 BYTE   Gs2
 BYTE   W12
 BYTE   Fn3
 BYTE   W12
// 039   ----------------------------------------
 BYTE   Gs2
 BYTE   W12
 BYTE   TIE  Gs1  v112
 BYTE   W12
 BYTE   N12  Ds2  v100
 BYTE   W12
 BYTE   Gs2
 BYTE   W12
 BYTE   As2
 BYTE   W12
 BYTE   Cn3
 BYTE   W12
 BYTE   Ds3
 BYTE   W12
 BYTE   Gs3
 BYTE   W12
// 040   ----------------------------------------
 BYTE   Ds3
 BYTE   W12
 BYTE   Cn4
 BYTE   W12
 BYTE   As3
 BYTE   W12
 BYTE   Gs3
 BYTE   W12
 BYTE   Ds3
 BYTE   W12
 BYTE   EOT
 BYTE   Gs1
 BYTE   N72  En1  v112
 BYTE   W12
 BYTE   N12  Bn1  v100
 BYTE   W12
 BYTE   En2
 BYTE   W12
// 041   ----------------------------------------
 BYTE   Gs2
 BYTE   W12
 BYTE   Bn2
 BYTE   W12
 BYTE   En3
 BYTE   W12
 BYTE   N72  En2  v112
 BYTE   W12
 BYTE   N12  Bn2  v100
 BYTE   W12
 BYTE   En3
 BYTE   W12
 BYTE   Bn2
 BYTE   W12
 BYTE   Gs3
 BYTE   W12
// 042   ----------------------------------------
 BYTE   Bn2
 BYTE   W12
 BYTE   N72  Fs1  v112
 BYTE   W12
 BYTE   N12  Cs2  v100
 BYTE   W12
 BYTE   Fs2
 BYTE   W12
 BYTE   As2
 BYTE   W12
 BYTE   Cs3
 BYTE   W12
 BYTE   Fs3
 BYTE   W12
 BYTE   N72  Fs2  v112
 BYTE   W12
// 043   ----------------------------------------
 BYTE   N12  Cs3  v100
 BYTE   W12
 BYTE   Fs3
 BYTE   W12
 BYTE   Gs3
 BYTE   W12
 BYTE   As3
 BYTE   W12
 BYTE   Cs4
 BYTE   W12
 BYTE   N96  Gs1  v112
 BYTE   W12
 BYTE   N12  Ds2  v108
 BYTE   W12
 BYTE   As2
 BYTE   W12
// 044   ----------------------------------------
Label_9_0127F1EB:
 BYTE   N24  Cn3  v108
 BYTE   W24
 BYTE   As2
 BYTE   W24
 BYTE   N12  Ds2
 BYTE   W12
 BYTE   N96  Gs1  v112
 BYTE   W12
 BYTE   N12  Ds2  v108
 BYTE   W12
 BYTE   As2
 BYTE   W12
 BYTE   PEND 
// 045   ----------------------------------------
 BYTE   N24  Cn3
 BYTE   W24
 BYTE   Cs3
 BYTE   W24
 BYTE   N12  As2
 BYTE   W12
 BYTE   N96  Gs1  v112
 BYTE   W12
 BYTE   N12  Ds2  v108
 BYTE   W12
 BYTE   As2
 BYTE   W12
// 046   ----------------------------------------
 BYTE   PATT
  POIN2 Label_9_0127F1EB
// 047   ----------------------------------------
 BYTE   N24  Cn3  v108
 BYTE   W24
 BYTE   Cs3
 BYTE   W24
 BYTE   N12  As2
 BYTE   W48
// 048   ----------------------------------------
 BYTE   W96
// 049   ----------------------------------------
 BYTE   W96
// 050   ----------------------------------------
 BYTE   W96
// 051   ----------------------------------------
 BYTE   W60
 BYTE   GoTo
  POIN2 Label_9_0127F0E6
 BYTE   FINE

//**************** Track 11 (Midi-Chn.10) ****************//

songBB_011:
// 000   ----------------------------------------
 BYTE   KEYSH   songBB_key+0
Label_10_0127F22E:
 BYTE   VOICE   1
 BYTE   VOL   20*songBB_mvl/mxv
 BYTE   PAN   c_v-4
 BYTE   W96
// 001   ----------------------------------------
 BYTE   W96
// 002   ----------------------------------------
 BYTE   W96
// 003   ----------------------------------------
 BYTE   W96
// 004   ----------------------------------------
 BYTE   W12
 BYTE   N96  Fn1  v116
 BYTE   N96  Fn2
 BYTE   W84
// 005   ----------------------------------------
 BYTE   W12
 BYTE   En1
 BYTE   N96  En2
 BYTE   W84
// 006   ----------------------------------------
 BYTE   W96
// 007   ----------------------------------------
 BYTE   W96
// 008   ----------------------------------------
 BYTE   W96
// 009   ----------------------------------------
 BYTE   W96
// 010   ----------------------------------------
 BYTE   W12
 BYTE   Gs1  v112
 BYTE   W12
 BYTE   N12  Ds2  v108
 BYTE   W12
 BYTE   As2
 BYTE   W12
 BYTE   N24  Cn3
 BYTE   W24
 BYTE   As2
 BYTE   W24
// 011   ----------------------------------------
Label_10_0127F257:
 BYTE   N12  Ds2  v108
 BYTE   W12
 BYTE   N96  Gs1  v112
 BYTE   W12
 BYTE   N12  Ds2  v108
 BYTE   W12
 BYTE   As2
 BYTE   W12
 BYTE   N24  Cn3
 BYTE   W24
 BYTE   Cs3
 BYTE   W24
 BYTE   PEND 
// 012   ----------------------------------------
Label_10_0127F26B:
 BYTE   N12  As2  v108
 BYTE   W12
 BYTE   N96  Gs1  v112
 BYTE   W12
 BYTE   N12  Ds2  v108
 BYTE   W12
 BYTE   As2
 BYTE   W12
 BYTE   N24  Cn3
 BYTE   W24
 BYTE   As2
 BYTE   W24
 BYTE   PEND 
// 013   ----------------------------------------
 BYTE   PATT
  POIN2 Label_10_0127F257
// 014   ----------------------------------------
 BYTE   PATT
  POIN2 Label_10_0127F26B
// 015   ----------------------------------------
 BYTE   PATT
  POIN2 Label_10_0127F257
// 016   ----------------------------------------
 BYTE   N12  As2  v108
 BYTE   W12
 BYTE   N96  Gs1  v112
 BYTE   W12
 BYTE   N12  Fn2  v108
 BYTE   W12
 BYTE   Cn3
 BYTE   W12
 BYTE   N24  Cs3
 BYTE   W24
 BYTE   Cn3
 BYTE   W24
// 017   ----------------------------------------
 BYTE   N12  Fn2
 BYTE   W12
 BYTE   N96  Gs1  v112
 BYTE   W12
 BYTE   N12  Fn2  v108
 BYTE   W12
 BYTE   Cn3
 BYTE   W12
 BYTE   N24  Cs3
 BYTE   W24
 BYTE   Ds3
 BYTE   W24
// 018   ----------------------------------------
 BYTE   N12  Cn3
 BYTE   W12
 BYTE   N96  Gs1  v112
 BYTE   W12
 BYTE   N12  Fn2  v108
 BYTE   W12
 BYTE   Cn3
 BYTE   W12
 BYTE   N24  Cs3
 BYTE   W24
 BYTE   Cn3
 BYTE   W24
// 019   ----------------------------------------
 BYTE   N12  Fn2
 BYTE   W12
 BYTE   N96  Gs1  v112
 BYTE   W12
 BYTE   N12  Fn2  v108
 BYTE   W12
 BYTE   Cn3
 BYTE   W12
 BYTE   N24  Cs3
 BYTE   W24
 BYTE   Cn3
 BYTE   W24
// 020   ----------------------------------------
Label_10_0127F2D7:
 BYTE   N12  As2  v108
 BYTE   W12
 BYTE   N96  Gs1  v120
 BYTE   W12
 BYTE   N12  Ds2  v116
 BYTE   W12
 BYTE   As2
 BYTE   W12
 BYTE   N24  Cn3
 BYTE   W24
 BYTE   As2
 BYTE   W24
 BYTE   PEND 
// 021   ----------------------------------------
Label_10_0127F2EB:
 BYTE   N12  Ds2  v116
 BYTE   W12
 BYTE   N96  Gs1  v120
 BYTE   W12
 BYTE   N12  Ds2  v116
 BYTE   W12
 BYTE   As2
 BYTE   W12
 BYTE   N24  Cn3
 BYTE   W24
 BYTE   Cs3
 BYTE   W24
 BYTE   PEND 
// 022   ----------------------------------------
Label_10_0127F2FF:
 BYTE   N12  As2  v116
 BYTE   W12
 BYTE   N96  Gs1  v120
 BYTE   W12
 BYTE   N12  Ds2  v116
 BYTE   W12
 BYTE   As2
 BYTE   W12
 BYTE   N24  Cn3
 BYTE   W24
 BYTE   As2
 BYTE   W24
 BYTE   PEND 
// 023   ----------------------------------------
 BYTE   PATT
  POIN2 Label_10_0127F2EB
// 024   ----------------------------------------
 BYTE   N12  As2  v116
 BYTE   W12
 BYTE   N96  Gs1  v120
 BYTE   W12
 BYTE   N12  Fn2  v116
 BYTE   W12
 BYTE   Cn3
 BYTE   W12
 BYTE   N24  Cs3
 BYTE   W24
 BYTE   Cn3
 BYTE   W24
// 025   ----------------------------------------
 BYTE   N12  Fn2
 BYTE   W12
 BYTE   N96  Gs1  v120
 BYTE   W12
 BYTE   N12  Fn2  v116
 BYTE   W12
 BYTE   Cn3
 BYTE   W12
 BYTE   N24  Cs3
 BYTE   W24
 BYTE   Ds3
 BYTE   W24
// 026   ----------------------------------------
 BYTE   N12  Cn3
 BYTE   W12
 BYTE   N96  Gs1  v120
 BYTE   W12
 BYTE   N12  Fn2  v116
 BYTE   W12
 BYTE   Cn3
 BYTE   W12
 BYTE   N24  Cs3
 BYTE   W24
 BYTE   Cn3
 BYTE   W24
// 027   ----------------------------------------
 BYTE   N12  Fn2
 BYTE   W12
 BYTE   N96  Gs1  v112
 BYTE   W12
 BYTE   N12  Fn2  v108
 BYTE   W12
 BYTE   Cn3
 BYTE   W12
 BYTE   N24  Cs3
 BYTE   W24
 BYTE   Cn3
 BYTE   W24
// 028   ----------------------------------------
 BYTE   PATT
  POIN2 Label_10_0127F2D7
// 029   ----------------------------------------
 BYTE   PATT
  POIN2 Label_10_0127F2EB
// 030   ----------------------------------------
 BYTE   PATT
  POIN2 Label_10_0127F2FF
// 031   ----------------------------------------
 BYTE   PATT
  POIN2 Label_10_0127F2EB
// 032   ----------------------------------------
 BYTE   N12  As2  v116
 BYTE   W96
// 033   ----------------------------------------
 BYTE   W96
// 034   ----------------------------------------
 BYTE   W96
// 035   ----------------------------------------
 BYTE   W96
// 036   ----------------------------------------
 BYTE   W96
// 037   ----------------------------------------
 BYTE   W96
// 038   ----------------------------------------
 BYTE   W96
// 039   ----------------------------------------
 BYTE   W96
// 040   ----------------------------------------
 BYTE   W96
// 041   ----------------------------------------
 BYTE   W96
// 042   ----------------------------------------
 BYTE   W96
// 043   ----------------------------------------
 BYTE   W96
// 044   ----------------------------------------
 BYTE   W96
// 045   ----------------------------------------
 BYTE   W96
// 046   ----------------------------------------
 BYTE   W96
// 047   ----------------------------------------
 BYTE   W96
// 048   ----------------------------------------
 BYTE   W96
// 049   ----------------------------------------
 BYTE   W96
// 050   ----------------------------------------
 BYTE   W96
// 051   ----------------------------------------
 BYTE   W60
 BYTE   GoTo
  POIN2 Label_10_0127F22E
 BYTE   FINE

//**************** Track 12 (Midi-Chn.11) ****************//

songBB_012:
// 000   ----------------------------------------
 BYTE   KEYSH   songBB_key+0
Label_11_0127F396:
 BYTE   VOICE   46
 BYTE   VOL   16*songBB_mvl/mxv
 BYTE   PAN   c_v-24
 BYTE   W96
// 001   ----------------------------------------
 BYTE   W96
// 002   ----------------------------------------
 BYTE   W96
// 003   ----------------------------------------
 BYTE   W96
// 004   ----------------------------------------
 BYTE   W96
// 005   ----------------------------------------
 BYTE   W96
// 006   ----------------------------------------
 BYTE   W96
// 007   ----------------------------------------
 BYTE   W96
// 008   ----------------------------------------
 BYTE   W96
// 009   ----------------------------------------
 BYTE   W96
// 010   ----------------------------------------
 BYTE   W96
// 011   ----------------------------------------
 BYTE   W96
// 012   ----------------------------------------
 BYTE   W96
// 013   ----------------------------------------
Label_11_0127F3A9:
 BYTE   W12
 BYTE   N24  Gs0  v100
 BYTE   W04
 BYTE   N04  Ds1
 BYTE   W04
 BYTE   Gs1
 BYTE   W04
 BYTE   Cn2
 BYTE   W04
 BYTE   Ds2
 BYTE   W04
 BYTE   Gs2
 BYTE   W04
 BYTE   N24  Gs1
 BYTE   W04
 BYTE   N04  Ds2  v096
 BYTE   W04
 BYTE   Gs2
 BYTE   W04
 BYTE   Cn3  v092
 BYTE   W04
 BYTE   Ds3
 BYTE   W04
 BYTE   Gs3
 BYTE   W04
 BYTE   N24  Gs2
 BYTE   W04
 BYTE   N04  Ds3  v088
 BYTE   W04
 BYTE   Gs3
 BYTE   W04
 BYTE   Cn4  v080
 BYTE   W04
 BYTE   Ds4
 BYTE   W04
 BYTE   Gs4
 BYTE   W04
 BYTE   N24  Gs3  v088
 BYTE   W04
 BYTE   N04  Ds4  v080
 BYTE   W04
 BYTE   Gs4
 BYTE   W04
 BYTE   PEND 
// 014   ----------------------------------------
Label_11_0127F3E4:
 BYTE   N04  Cn5  v080
 BYTE   W04
 BYTE   Ds5
 BYTE   W04
 BYTE   Gs5
 BYTE   W04
 BYTE   Cn6
 BYTE   W84
 BYTE   PEND 
// 015   ----------------------------------------
 BYTE   W96
// 016   ----------------------------------------
 BYTE   W96
// 017   ----------------------------------------
Label_11_0127F3F1:
 BYTE   W12
 BYTE   N24  Gs0  v100
 BYTE   W04
 BYTE   N04  As0
 BYTE   W04
 BYTE   Cs1
 BYTE   W04
 BYTE   Fn1
 BYTE   W04
 BYTE   As1
 BYTE   W04
 BYTE   Cs2
 BYTE   W04
 BYTE   N24  Gs1
 BYTE   W04
 BYTE   N04  As1  v096
 BYTE   W04
 BYTE   Cs2
 BYTE   W04
 BYTE   Fn2  v092
 BYTE   W04
 BYTE   As2
 BYTE   W04
 BYTE   Cs3
 BYTE   W04
 BYTE   N24  Gs2
 BYTE   W04
 BYTE   N04  As2  v088
 BYTE   W04
 BYTE   Cs3
 BYTE   W04
 BYTE   Fn3  v080
 BYTE   W04
 BYTE   As3
 BYTE   W04
 BYTE   Cs4
 BYTE   W04
 BYTE   N24  Gs3  v088
 BYTE   W04
 BYTE   N04  As3  v080
 BYTE   W04
 BYTE   Cs4
 BYTE   W04
 BYTE   PEND 
// 018   ----------------------------------------
Label_11_0127F42C:
 BYTE   N04  Fn4  v080
 BYTE   W04
 BYTE   As4
 BYTE   W04
 BYTE   Cs5
 BYTE   W04
 BYTE   Fn5
 BYTE   W84
 BYTE   PEND 
// 019   ----------------------------------------
 BYTE   W96
// 020   ----------------------------------------
 BYTE   W96
// 021   ----------------------------------------
 BYTE   PATT
  POIN2 Label_11_0127F3A9
// 022   ----------------------------------------
 BYTE   PATT
  POIN2 Label_11_0127F3E4
// 023   ----------------------------------------
 BYTE   W96
// 024   ----------------------------------------
 BYTE   W96
// 025   ----------------------------------------
 BYTE   PATT
  POIN2 Label_11_0127F3F1
// 026   ----------------------------------------
 BYTE   PATT
  POIN2 Label_11_0127F42C
// 027   ----------------------------------------
 BYTE   W96
// 028   ----------------------------------------
 BYTE   W96
// 029   ----------------------------------------
 BYTE   W96
// 030   ----------------------------------------
 BYTE   PATT
  POIN2 Label_11_0127F3A9
// 031   ----------------------------------------
 BYTE   PATT
  POIN2 Label_11_0127F3E4
// 032   ----------------------------------------
 BYTE   W96
// 033   ----------------------------------------
 BYTE   W96
// 034   ----------------------------------------
 BYTE   W96
// 035   ----------------------------------------
 BYTE   W96
// 036   ----------------------------------------
 BYTE   W12
 BYTE   N24  Gs0  v100
 BYTE   W04
 BYTE   N04  Ds1
 BYTE   W04
 BYTE   Gs1
 BYTE   W04
 BYTE   Cn2
 BYTE   W04
 BYTE   Ds2
 BYTE   W04
 BYTE   Gs2
 BYTE   W04
 BYTE   N24  Gs1
 BYTE   W04
 BYTE   N04  Ds2  v096
 BYTE   W04
 BYTE   Gs2
 BYTE   W04
 BYTE   Cn3  v092
 BYTE   W04
 BYTE   Ds3
 BYTE   W04
 BYTE   Gs3
 BYTE   W04
 BYTE   N24  Gs2
 BYTE   W04
 BYTE   N04  Ds3  v088
 BYTE   W04
 BYTE   Gs3
 BYTE   W04
 BYTE   Cn4  v080
 BYTE   W04
 BYTE   Ds4
 BYTE   W04
 BYTE   Gs4
 BYTE   W04
 BYTE   N24  As4
 BYTE   W12
// 037   ----------------------------------------
 BYTE   W60
 BYTE   Bn0  v100
 BYTE   W04
 BYTE   N04  Fs1
 BYTE   W04
 BYTE   Bn1
 BYTE   W04
 BYTE   Ds2
 BYTE   W04
 BYTE   Fs2
 BYTE   W04
 BYTE   Bn2
 BYTE   W04
 BYTE   N24  Bn1
 BYTE   W04
 BYTE   N04  Fs2  v096
 BYTE   W04
 BYTE   Bn2
 BYTE   W04
// 038   ----------------------------------------
 BYTE   Ds3  v092
 BYTE   W04
 BYTE   Fs3
 BYTE   W04
 BYTE   Bn3
 BYTE   W04
 BYTE   N24  Bn2
 BYTE   W04
 BYTE   N04  Fs3  v088
 BYTE   W04
 BYTE   Bn3
 BYTE   W04
 BYTE   Ds4  v080
 BYTE   W04
 BYTE   Fs4
 BYTE   W04
 BYTE   Bn4
 BYTE   W04
 BYTE   N24  Cs5
 BYTE   W60
// 039   ----------------------------------------
 BYTE   W84
 BYTE   Gs0  v108
 BYTE   W04
 BYTE   N04  Ds1
 BYTE   W04
 BYTE   Gs1
 BYTE   W04
// 040   ----------------------------------------
 BYTE   Cn2
 BYTE   W04
 BYTE   Ds2
 BYTE   W04
 BYTE   Gs2
 BYTE   W04
 BYTE   N24  Gs1
 BYTE   W04
 BYTE   N04  Ds2  v100
 BYTE   W04
 BYTE   Gs2
 BYTE   W04
 BYTE   Cn3  v096
 BYTE   W04
 BYTE   Ds3
 BYTE   W04
 BYTE   Gs3
 BYTE   W04
 BYTE   N24  Gs2
 BYTE   W04
 BYTE   N04  Ds3  v092
 BYTE   W04
 BYTE   Gs3
 BYTE   W04
 BYTE   Cn4  v088
 BYTE   W04
 BYTE   Ds4
 BYTE   W04
 BYTE   Gs4
 BYTE   W04
 BYTE   N24  En4
 BYTE   W04
 BYTE   N04  Gs4
 BYTE   W04
 BYTE   N16  Bn4  v080
 BYTE   W28
// 041   ----------------------------------------
 BYTE   W96
// 042   ----------------------------------------
 BYTE   W96
// 043   ----------------------------------------
 BYTE   W60
 BYTE   N24  Gs0  v100
 BYTE   W04
 BYTE   N04  Ds1
 BYTE   W04
 BYTE   Gs1
 BYTE   W04
 BYTE   Cn2
 BYTE   W04
 BYTE   Ds2
 BYTE   W04
 BYTE   Gs2
 BYTE   W04
 BYTE   N24  Gs1
 BYTE   W04
 BYTE   N04  Ds2  v096
 BYTE   W04
 BYTE   Gs2
 BYTE   W04
// 044   ----------------------------------------
 BYTE   Cn3  v092
 BYTE   W04
 BYTE   Ds3
 BYTE   W04
 BYTE   Gs3
 BYTE   W04
 BYTE   N24  Gs2
 BYTE   W04
 BYTE   N04  Ds3  v088
 BYTE   W04
 BYTE   Gs3
 BYTE   W04
 BYTE   Cn4  v080
 BYTE   W04
 BYTE   Ds4
 BYTE   W04
 BYTE   Gs4
 BYTE   W04
 BYTE   N24  Gs3  v088
 BYTE   W04
 BYTE   N04  Ds4  v080
 BYTE   W04
 BYTE   Gs4
 BYTE   W04
 BYTE   Cn5
 BYTE   W04
 BYTE   Ds5
 BYTE   W04
 BYTE   Gs5
 BYTE   W04
 BYTE   N24  Cn6
 BYTE   W04
 BYTE   N04  Gs5
 BYTE   W04
 BYTE   Ds5
 BYTE   W04
 BYTE   Cn5
 BYTE   W04
 BYTE   Gs4
 BYTE   W04
 BYTE   Ds4
 BYTE   W04
 BYTE   N24  Cn5  v088
 BYTE   W04
 BYTE   N04  Gs4
 BYTE   W04
 BYTE   Ds4
 BYTE   W04
// 045   ----------------------------------------
 BYTE   Cn4  v092
 BYTE   W04
 BYTE   Gs3
 BYTE   W04
 BYTE   Ds3
 BYTE   W04
 BYTE   N24  Cn4  v096
 BYTE   W04
 BYTE   N04  Gs3  v092
 BYTE   W04
 BYTE   Ds3
 BYTE   W04
 BYTE   Cn3
 BYTE   W04
 BYTE   Gs2
 BYTE   W04
 BYTE   Ds2
 BYTE   W04
 BYTE   N24  Cn3  v100
 BYTE   W04
 BYTE   N04  Gs2  v096
 BYTE   W04
 BYTE   Ds2
 BYTE   W04
 BYTE   Cn2
 BYTE   W04
 BYTE   Ds2
 BYTE   W04
 BYTE   Gs2
 BYTE   W04
 BYTE   N24  Gs0
 BYTE   W04
 BYTE   N04  Ds1
 BYTE   W04
 BYTE   Gs1
 BYTE   W04
 BYTE   Cn2
 BYTE   W04
 BYTE   Ds2
 BYTE   W04
 BYTE   Gs2
 BYTE   W04
 BYTE   N24  Gs1
 BYTE   W04
 BYTE   N04  Ds2  v092
 BYTE   W04
 BYTE   Gs2
 BYTE   W04
// 046   ----------------------------------------
 BYTE   Cn3  v088
 BYTE   W04
 BYTE   Ds3
 BYTE   W04
 BYTE   Gs3
 BYTE   W04
 BYTE   N24  Gs2
 BYTE   W04
 BYTE   N04  Ds3  v080
 BYTE   W04
 BYTE   Gs3
 BYTE   W04
 BYTE   Cn4  v076
 BYTE   W04
 BYTE   Ds4
 BYTE   W04
 BYTE   Gs4
 BYTE   W04
 BYTE   N24  Gs3  v080
 BYTE   W04
 BYTE   N04  Ds4  v076
 BYTE   W04
 BYTE   Gs4
 BYTE   W04
 BYTE   Cn5
 BYTE   W04
 BYTE   Ds5
 BYTE   W04
 BYTE   Gs5
 BYTE   W04
 BYTE   N24  Cn6
 BYTE   W04
 BYTE   N04  Gs5
 BYTE   W04
 BYTE   Ds5
 BYTE   W04
 BYTE   Cn5
 BYTE   W04
 BYTE   Gs4
 BYTE   W04
 BYTE   Ds4
 BYTE   W04
 BYTE   N24  Cn5  v080
 BYTE   W04
 BYTE   N04  Gs4
 BYTE   W04
 BYTE   Ds4
 BYTE   W04
// 047   ----------------------------------------
 BYTE   Cn4  v088
 BYTE   W04
 BYTE   Gs3
 BYTE   W04
 BYTE   Ds3
 BYTE   W04
 BYTE   N24  Cn4  v092
 BYTE   W04
 BYTE   N04  Gs3  v088
 BYTE   W04
 BYTE   Ds3
 BYTE   W04
 BYTE   Cn3
 BYTE   W04
 BYTE   Gs2
 BYTE   W04
 BYTE   Ds2
 BYTE   W04
 BYTE   N24  Cn3  v096
 BYTE   W04
 BYTE   N04  Gs2  v092
 BYTE   W04
 BYTE   Ds2
 BYTE   W04
 BYTE   Cn2
 BYTE   W04
 BYTE   Ds2
 BYTE   W04
 BYTE   Gs2
 BYTE   W40
// 048   ----------------------------------------
 BYTE   W96
// 049   ----------------------------------------
 BYTE   W96
// 050   ----------------------------------------
 BYTE   W96
// 051   ----------------------------------------
 BYTE   W60
 BYTE   GoTo
  POIN2 Label_11_0127F396
 BYTE   FINE

//**************** Track 13 (Midi-Chn.12) ****************//

songBB_013:
// 000   ----------------------------------------
 BYTE   KEYSH   songBB_key+0
Label_12_0127F606:
 BYTE   VOICE   13
 BYTE   VOL   14*songBB_mvl/mxv
 BYTE   PAN   c_v+2
 BYTE   W12
 BYTE   N06  Cn3  v112
 BYTE   N06  Ds3
 BYTE   W12
 BYTE   N04
 BYTE   N04  Gs3
 BYTE   W06
 BYTE   Ds3
 BYTE   N04  Gs3
 BYTE   W06
 BYTE   N24  Ds3
 BYTE   N24  Gs3
 BYTE   W36
 BYTE   N12  Fn3
 BYTE   N12  As3
 BYTE   W24
// 001   ----------------------------------------
 BYTE   N06  Cs3
 BYTE   N06  Fn3
 BYTE   W12
 BYTE   Cn3
 BYTE   N06  Ds3
 BYTE   W12
 BYTE   N04
 BYTE   N04  Gs3
 BYTE   W06
 BYTE   Ds3
 BYTE   N04  Gs3
 BYTE   W06
 BYTE   N24  Ds3
 BYTE   N24  Gs3
 BYTE   W36
 BYTE   N12  Fn3
 BYTE   N12  As3
 BYTE   W12
 BYTE   Fn3
 BYTE   N12  Cn4
 BYTE   W12
// 002   ----------------------------------------
 BYTE   N06  As3
 BYTE   N06  Cs4
 BYTE   W12
 BYTE   Ds3
 BYTE   N06  Cn4
 BYTE   W12
 BYTE   N04
 BYTE   N04  Ds4
 BYTE   W06
 BYTE   Cn4
 BYTE   N04  Ds4
 BYTE   W06
 BYTE   N24  Cn4
 BYTE   N24  Ds4
 BYTE   W36
 BYTE   N12  Cs4
 BYTE   N12  Fn4
 BYTE   W24
// 003   ----------------------------------------
 BYTE   N06  Gs3
 BYTE   N06  Cs4
 BYTE   W12
 BYTE   Ds3
 BYTE   N06  Cn4
 BYTE   W12
 BYTE   N04
 BYTE   N04  Ds4
 BYTE   W06
 BYTE   Cn4
 BYTE   N04  Ds4
 BYTE   W06
 BYTE   N24  Cn4
 BYTE   N24  Ds4
 BYTE   W36
 BYTE   N12  Cs4
 BYTE   N12  Fn4
 BYTE   W12
 BYTE   Cn4
 BYTE   N12  Ds4
 BYTE   W12
// 004   ----------------------------------------
 BYTE   N06  As3
 BYTE   N06  Cs4
 BYTE   W96
// 005   ----------------------------------------
 BYTE   W96
// 006   ----------------------------------------
 BYTE   W12
 BYTE   N12  Cs4  v072
 BYTE   N12  Gs4  v092
 BYTE   W12
 BYTE   N06  Gs3  v060
 BYTE   N06  Ds4  v080
 BYTE   W06
 BYTE   Cs4
 BYTE   W06
 BYTE   N12  Gs3  v060
 BYTE   N12  Ds4  v080
 BYTE   W12
 BYTE   As3  v072
 BYTE   N12  Fs4  v092
 BYTE   W12
 BYTE   Gs3  v060
 BYTE   N12  Ds4  v080
 BYTE   W12
 BYTE   Cs4
 BYTE   W12
 BYTE   Gs3
 BYTE   N12  Ds4  v092
 BYTE   W12
// 007   ----------------------------------------
 BYTE   Ds4  v072
 BYTE   N12  Gs4  v080
 BYTE   W12
 BYTE   Gs3
 BYTE   N12  Ds4  v092
 BYTE   W12
 BYTE   N48  Gs3
 BYTE   N48  Cs4  v100
 BYTE   W72
// 008   ----------------------------------------
 BYTE   W12
 BYTE   N12  Gs3  v080
 BYTE   N12  Cn4  v092
 BYTE   W12
 BYTE   As3  v080
 BYTE   N12  Cs4  v092
 BYTE   W12
 BYTE   Cn4  v080
 BYTE   N12  Ds4  v092
 BYTE   W12
 BYTE   As3  v080
 BYTE   N12  Cs4  v092
 BYTE   W12
 BYTE   Ds3  v080
 BYTE   N12  Gs3  v092
 BYTE   W12
 BYTE   Gs3  v080
 BYTE   N12  Cn4  v092
 BYTE   W12
 BYTE   N60  As3  v080
 BYTE   N60  Fs4  v092
 BYTE   W12
// 009   ----------------------------------------
 BYTE   W96
// 010   ----------------------------------------
 BYTE   W96
// 011   ----------------------------------------
 BYTE   W96
// 012   ----------------------------------------
 BYTE   W96
// 013   ----------------------------------------
 BYTE   W96
// 014   ----------------------------------------
 BYTE   W96
// 015   ----------------------------------------
 BYTE   W96
// 016   ----------------------------------------
 BYTE   W96
// 017   ----------------------------------------
 BYTE   W96
// 018   ----------------------------------------
 BYTE   W96
// 019   ----------------------------------------
 BYTE   W96
// 020   ----------------------------------------
 BYTE   W96
// 021   ----------------------------------------
 BYTE   W96
// 022   ----------------------------------------
 BYTE   W96
// 023   ----------------------------------------
 BYTE   W96
// 024   ----------------------------------------
 BYTE   W96
// 025   ----------------------------------------
 BYTE   W96
// 026   ----------------------------------------
 BYTE   W96
// 027   ----------------------------------------
 BYTE   W96
// 028   ----------------------------------------
 BYTE   W96
// 029   ----------------------------------------
 BYTE   W96
// 030   ----------------------------------------
 BYTE   W96
// 031   ----------------------------------------
 BYTE   W96
// 032   ----------------------------------------
 BYTE   W12
 BYTE   N12  Cs3  v100
 BYTE   N12  Gs3  v120
 BYTE   W12
 BYTE   N06  Gs2  v092
 BYTE   N06  Ds3  v112
 BYTE   W06
 BYTE   Cs3
 BYTE   W06
 BYTE   N12  Gs2  v092
 BYTE   N12  Ds3  v112
 BYTE   W12
 BYTE   As2  v100
 BYTE   N12  Fs3  v120
 BYTE   W12
 BYTE   Gs2  v092
 BYTE   N12  Ds3  v112
 BYTE   W12
 BYTE   Cs3
 BYTE   W12
 BYTE   Gs2
 BYTE   N12  Ds3  v120
 BYTE   W12
// 033   ----------------------------------------
 BYTE   Ds3  v100
 BYTE   N12  Gs3  v112
 BYTE   W12
 BYTE   Gs2
 BYTE   N12  Ds3  v120
 BYTE   W12
 BYTE   N48  Gs2
 BYTE   N48  Cs3
 BYTE   W72
// 034   ----------------------------------------
 BYTE   W12
 BYTE   N12  Gs2  v112
 BYTE   N12  Cn3  v120
 BYTE   W12
 BYTE   As2  v112
 BYTE   N12  Cs3  v120
 BYTE   W12
 BYTE   Cn3  v112
 BYTE   N12  Ds3  v120
 BYTE   W12
 BYTE   As2  v112
 BYTE   N12  Cs3  v120
 BYTE   W12
 BYTE   Ds2  v112
 BYTE   N12  Gs2  v120
 BYTE   W12
 BYTE   Gs2  v112
 BYTE   N12  Cn3  v120
 BYTE   W12
 BYTE   N60  As2  v112
 BYTE   N60  Fs3  v120
 BYTE   W12
// 035   ----------------------------------------
 BYTE   W96
// 036   ----------------------------------------
 BYTE   W96
// 037   ----------------------------------------
 BYTE   W96
// 038   ----------------------------------------
 BYTE   W96
// 039   ----------------------------------------
 BYTE   W96
// 040   ----------------------------------------
 BYTE   W96
// 041   ----------------------------------------
 BYTE   W96
// 042   ----------------------------------------
 BYTE   W96
// 043   ----------------------------------------
 BYTE   W96
// 044   ----------------------------------------
 BYTE   W96
// 045   ----------------------------------------
 BYTE   W96
// 046   ----------------------------------------
 BYTE   W96
// 047   ----------------------------------------
 BYTE   W96
// 048   ----------------------------------------
 BYTE   W96
// 049   ----------------------------------------
 BYTE   W96
// 050   ----------------------------------------
 BYTE   W96
// 051   ----------------------------------------
 BYTE   W60
 BYTE   GoTo
  POIN2 Label_12_0127F606
 BYTE   FINE

//**************** Track 14 (Midi-Chn.13) ****************//

songBB_014:
// 000   ----------------------------------------
 BYTE   KEYSH   songBB_key+0
Label_13_0127F786:
 BYTE   VOICE   8
 BYTE   VOL   12*songBB_mvl/mxv
 BYTE   PAN   c_v+0
 BYTE   W96
// 001   ----------------------------------------
 BYTE   W96
// 002   ----------------------------------------
 BYTE   W96
// 003   ----------------------------------------
 BYTE   W96
// 004   ----------------------------------------
 BYTE   W96
// 005   ----------------------------------------
 BYTE   W96
// 006   ----------------------------------------
 BYTE   W96
// 007   ----------------------------------------
 BYTE   W96
// 008   ----------------------------------------
 BYTE   W96
// 009   ----------------------------------------
 BYTE   W96
// 010   ----------------------------------------
 BYTE   W96
// 011   ----------------------------------------
 BYTE   W96
// 012   ----------------------------------------
 BYTE   W96
// 013   ----------------------------------------
Label_13_0127F799:
 BYTE   W48
 BYTE   N24  Cn5  v100
 BYTE   W24
 BYTE   N12  Cn6
 BYTE   W12
 BYTE   Cs5
 BYTE   W12
 BYTE   PEND 
// 014   ----------------------------------------
Label_13_0127F7A4:
 BYTE   N12  Cs6  v100
 BYTE   W12
 BYTE   Cn5
 BYTE   W12
 BYTE   N24  Cn6
 BYTE   W72
 BYTE   PEND 
// 015   ----------------------------------------
 BYTE   W96
// 016   ----------------------------------------
 BYTE   W96
// 017   ----------------------------------------
Label_13_0127F7B0:
 BYTE   W48
 BYTE   N24  Cs4  v100
 BYTE   W24
 BYTE   N12  Cs5
 BYTE   W12
 BYTE   Fn4
 BYTE   W12
 BYTE   PEND 
// 018   ----------------------------------------
Label_13_0127F7BB:
 BYTE   N12  Fn5  v100
 BYTE   W12
 BYTE   As4
 BYTE   W12
 BYTE   N24  As5
 BYTE   W72
 BYTE   PEND 
// 019   ----------------------------------------
 BYTE   W96
// 020   ----------------------------------------
 BYTE   W96
// 021   ----------------------------------------
 BYTE   PATT
  POIN2 Label_13_0127F799
// 022   ----------------------------------------
 BYTE   PATT
  POIN2 Label_13_0127F7A4
// 023   ----------------------------------------
 BYTE   W96
// 024   ----------------------------------------
 BYTE   W96
// 025   ----------------------------------------
 BYTE   PATT
  POIN2 Label_13_0127F7B0
// 026   ----------------------------------------
 BYTE   PATT
  POIN2 Label_13_0127F7BB
// 027   ----------------------------------------
 BYTE   W96
// 028   ----------------------------------------
 BYTE   W96
// 029   ----------------------------------------
 BYTE   W96
// 030   ----------------------------------------
 BYTE   W48
 BYTE   N24  Ds4  v100
 BYTE   W24
 BYTE   N12  Ds5
 BYTE   W12
 BYTE   Gs4
 BYTE   W12
// 031   ----------------------------------------
 BYTE   Gs5
 BYTE   W12
 BYTE   Cn5
 BYTE   W12
 BYTE   N24  Cn6
 BYTE   W72
// 032   ----------------------------------------
 BYTE   W96
// 033   ----------------------------------------
Label_13_0127F7F2:
 BYTE   W72
 BYTE   N04  Cs6  v100
 BYTE   W06
 BYTE   N04
 BYTE   W06
 BYTE   N04
 BYTE   W12
 BYTE   PEND 
// 034   ----------------------------------------
Label_13_0127F7FC:
 BYTE   N04  Cs6  v100
 BYTE   W06
 BYTE   N04
 BYTE   W90
 BYTE   PEND 
// 035   ----------------------------------------
 BYTE   PATT
  POIN2 Label_13_0127F7F2
// 036   ----------------------------------------
 BYTE   PATT
  POIN2 Label_13_0127F7FC
// 037   ----------------------------------------
 BYTE   W96
// 038   ----------------------------------------
 BYTE   W96
// 039   ----------------------------------------
 BYTE   W96
// 040   ----------------------------------------
 BYTE   W96
// 041   ----------------------------------------
 BYTE   W96
// 042   ----------------------------------------
 BYTE   W96
// 043   ----------------------------------------
 BYTE   W96
// 044   ----------------------------------------
 BYTE   W96
// 045   ----------------------------------------
 BYTE   W96
// 046   ----------------------------------------
 BYTE   N24  Cn5  v100
 BYTE   W24
 BYTE   N12  Cn6
 BYTE   W12
 BYTE   Cs5
 BYTE   W12
 BYTE   Cs6
 BYTE   W12
 BYTE   Cn5
 BYTE   W12
 BYTE   N24  Cn6
 BYTE   W24
// 047   ----------------------------------------
 BYTE   W96
// 048   ----------------------------------------
 BYTE   W96
// 049   ----------------------------------------
 BYTE   W96
// 050   ----------------------------------------
 BYTE   W96
// 051   ----------------------------------------
 BYTE   W60
 BYTE   GoTo
  POIN2 Label_13_0127F786
 BYTE   FINE

//**************** Track 15 (Midi-Chn.14) ****************//

songBB_015:
// 000   ----------------------------------------
 BYTE   KEYSH   songBB_key+0
Label_14_0127F836:
 BYTE   VOICE   47
 BYTE   VOL   24*songBB_mvl/mxv
 BYTE   PAN   c_v+12
 BYTE   N04  Ds1  v112
 BYTE   W04
 BYTE   Ds1  v120
 BYTE   W04
 BYTE   Ds1  v127
 BYTE   W04
 BYTE   N24  Gs1
 BYTE   W84
// 001   ----------------------------------------
Label_14_0127F849:
 BYTE   W24
 BYTE   N04  Ds1  v100
 BYTE   W04
 BYTE   Ds1  v112
 BYTE   W04
 BYTE   Ds1  v120
 BYTE   W04
 BYTE   N12  Ds1  v127
 BYTE   W24
 BYTE   Gs1  v112
 BYTE   W12
 BYTE   Ds1
 BYTE   W12
 BYTE   Gs1  v127
 BYTE   W12
 BYTE   PEND 
// 002   ----------------------------------------
 BYTE   N06  Ds1  v112
 BYTE   W06
 BYTE   N06
 BYTE   W06
 BYTE   N24  Gs1  v127
 BYTE   W84
// 003   ----------------------------------------
 BYTE   PATT
  POIN2 Label_14_0127F849
// 004   ----------------------------------------
 BYTE   N06  Ds1  v112
 BYTE   W06
 BYTE   N06
 BYTE   W06
 BYTE   N24  Fn1  v120
 BYTE   W84
// 005   ----------------------------------------
 BYTE   W96
// 006   ----------------------------------------
 BYTE   W96
// 007   ----------------------------------------
 BYTE   W96
// 008   ----------------------------------------
 BYTE   W96
// 009   ----------------------------------------
 BYTE   W96
// 010   ----------------------------------------
 BYTE   N12  Ds1  v112
 BYTE   W12
 BYTE   Gs1  v120
 BYTE   W36
 BYTE   Gs1  v112
 BYTE   W24
 BYTE   Gs1  v116
 BYTE   W12
 BYTE   Gs1  v120
 BYTE   W12
// 011   ----------------------------------------
Label_14_0127F88F:
 BYTE   W12
 BYTE   N12  Gs1  v120
 BYTE   W36
 BYTE   Gs1  v112
 BYTE   W24
 BYTE   Ds1  v120
 BYTE   W12
 BYTE   Gs1
 BYTE   W12
 BYTE   PEND 
// 012   ----------------------------------------
Label_14_0127F89D:
 BYTE   W04
 BYTE   N04  Gs1  v100
 BYTE   W04
 BYTE   Gs1  v112
 BYTE   W04
 BYTE   N12  Gs1  v120
 BYTE   W36
 BYTE   Gs1  v112
 BYTE   W24
 BYTE   Gs1  v116
 BYTE   W12
 BYTE   Gs1  v120
 BYTE   W12
 BYTE   PEND 
// 013   ----------------------------------------
 BYTE   PATT
  POIN2 Label_14_0127F88F
// 014   ----------------------------------------
 BYTE   PATT
  POIN2 Label_14_0127F89D
// 015   ----------------------------------------
 BYTE   PATT
  POIN2 Label_14_0127F88F
// 016   ----------------------------------------
 BYTE   PATT
  POIN2 Label_14_0127F89D
// 017   ----------------------------------------
 BYTE   PATT
  POIN2 Label_14_0127F88F
// 018   ----------------------------------------
 BYTE   PATT
  POIN2 Label_14_0127F89D
// 019   ----------------------------------------
 BYTE   PATT
  POIN2 Label_14_0127F88F
// 020   ----------------------------------------
 BYTE   PATT
  POIN2 Label_14_0127F89D
// 021   ----------------------------------------
 BYTE   PATT
  POIN2 Label_14_0127F88F
// 022   ----------------------------------------
 BYTE   PATT
  POIN2 Label_14_0127F89D
// 023   ----------------------------------------
 BYTE   PATT
  POIN2 Label_14_0127F88F
// 024   ----------------------------------------
 BYTE   PATT
  POIN2 Label_14_0127F89D
// 025   ----------------------------------------
 BYTE   PATT
  POIN2 Label_14_0127F88F
// 026   ----------------------------------------
 BYTE   PATT
  POIN2 Label_14_0127F89D
// 027   ----------------------------------------
 BYTE   PATT
  POIN2 Label_14_0127F88F
// 028   ----------------------------------------
 BYTE   PATT
  POIN2 Label_14_0127F89D
// 029   ----------------------------------------
 BYTE   PATT
  POIN2 Label_14_0127F88F
// 030   ----------------------------------------
 BYTE   PATT
  POIN2 Label_14_0127F89D
// 031   ----------------------------------------
 BYTE   PATT
  POIN2 Label_14_0127F88F
// 032   ----------------------------------------
 BYTE   W04
 BYTE   N04  Gs1  v100
 BYTE   W04
 BYTE   Gs1  v112
 BYTE   W04
 BYTE   N12
 BYTE   W84
// 033   ----------------------------------------
 BYTE   W96
// 034   ----------------------------------------
 BYTE   W96
// 035   ----------------------------------------
 BYTE   W96
// 036   ----------------------------------------
 BYTE   N06  As1  v116
 BYTE   W06
 BYTE   As1  v108
 BYTE   W06
 BYTE   N24  Gs1  v116
 BYTE   W24
 BYTE   Gs1  v108
 BYTE   W24
 BYTE   N12
 BYTE   W12
 BYTE   Ds1  v112
 BYTE   W12
 BYTE   N24  As1  v116
 BYTE   W12
// 037   ----------------------------------------
 BYTE   W12
 BYTE   As1  v108
 BYTE   W24
 BYTE   N12
 BYTE   W12
 BYTE   Fn1  v112
 BYTE   W12
 BYTE   N24  Bn1  v116
 BYTE   W24
 BYTE   Bn1  v108
 BYTE   W12
// 038   ----------------------------------------
 BYTE   W12
 BYTE   N12
 BYTE   W12
 BYTE   Fs1  v112
 BYTE   W12
 BYTE   N24  Cs2  v116
 BYTE   W24
 BYTE   Cs2  v108
 BYTE   W24
 BYTE   N12
 BYTE   W12
// 039   ----------------------------------------
 BYTE   Gs1  v112
 BYTE   W12
 BYTE   N24  Gs1  v116
 BYTE   W24
 BYTE   Gs1  v108
 BYTE   W24
 BYTE   N12
 BYTE   W12
 BYTE   Ds2  v112
 BYTE   W12
 BYTE   N24  Gs1  v116
 BYTE   W12
// 040   ----------------------------------------
 BYTE   W12
 BYTE   Gs1  v108
 BYTE   W24
 BYTE   N12
 BYTE   W12
 BYTE   Ds2  v112
 BYTE   W12
 BYTE   N24  En1  v116
 BYTE   W24
 BYTE   En1  v108
 BYTE   W12
// 041   ----------------------------------------
 BYTE   W12
 BYTE   N12
 BYTE   W12
 BYTE   Bn1  v112
 BYTE   W12
 BYTE   N24  En1  v116
 BYTE   W24
 BYTE   En1  v108
 BYTE   W24
 BYTE   N12
 BYTE   W12
// 042   ----------------------------------------
 BYTE   Bn1  v112
 BYTE   W12
 BYTE   N24  Fs1  v116
 BYTE   W24
 BYTE   Fs1  v108
 BYTE   W24
 BYTE   N12
 BYTE   W12
 BYTE   Cs2  v112
 BYTE   W12
 BYTE   N24  Fs1  v116
 BYTE   W12
// 043   ----------------------------------------
 BYTE   W12
 BYTE   Fs1  v108
 BYTE   W24
 BYTE   N12
 BYTE   W12
 BYTE   Cs2  v112
 BYTE   W12
 BYTE   Gs1  v120
 BYTE   W36
// 044   ----------------------------------------
Label_14_0127F9A6:
 BYTE   N12  Gs1  v112
 BYTE   W24
 BYTE   Gs1  v116
 BYTE   W12
 BYTE   Ds2  v120
 BYTE   W24
 BYTE   Gs1
 BYTE   W36
 BYTE   PEND 
// 045   ----------------------------------------
 BYTE   PATT
  POIN2 Label_14_0127F9A6
// 046   ----------------------------------------
 BYTE   PATT
  POIN2 Label_14_0127F9A6
// 047   ----------------------------------------
 BYTE   N12  Gs1  v112
 BYTE   W24
 BYTE   Gs1  v116
 BYTE   W12
 BYTE   Ds2  v120
 BYTE   W60
// 048   ----------------------------------------
 BYTE   W96
// 049   ----------------------------------------
 BYTE   W96
// 050   ----------------------------------------
 BYTE   W96
// 051   ----------------------------------------
 BYTE   W60
 BYTE   GoTo
  POIN2 Label_14_0127F836
 BYTE   FINE

//******************************************************//
	ALIGN 4

songBB:
	BYTE	15	// NumTrks
	BYTE	0	// NumBlks
	BYTE	songBB_pri	// Priority
	BYTE	songBB_rev	// Reverb.
    
	POIN2	songBB_grp
    
	POIN2	songBB_001
	POIN2	songBB_002
	POIN2	songBB_003
	POIN2	songBB_004
	POIN2	songBB_005
	POIN2	songBB_006
	POIN2	songBB_007
	POIN2	songBB_008
	POIN2	songBB_009
	POIN2	songBB_010
	POIN2	songBB_011
	POIN2	songBB_012
	POIN2	songBB_013
	POIN2	songBB_014
	POIN2	songBB_015

	
