//Event file generated from Sappy .s format.
	#include "MPlayDef.event"

	#define	History2_grp  voicegroup000
	#define	History2_pri  0
	#define	History2_rev  148 //0x94
	#define	History2_mvl  127
	#define	History2_key  0
	#define	History2_tbs  1
	#define	History2_exg  0
	#define	History2_cmp  1

	// .rodata
	//	History2
	ALIGN 4


//**************** Track 1 (Midi-Chn.0) ****************//

History2_001:
//  #01 //000   ----------------------------------------
 BYTE   KEYSH   History2_key+0
Label_0192B82A:
 BYTE   TEMPO   140*History2_tbs/2
 BYTE   VOICE   52
 BYTE   PAN   c_v+39
 BYTE   VOL   35*History2_mvl/mxv
 BYTE   BEND   c_v+0
 BYTE   W96
//  #01 //001   ----------------------------------------
 BYTE   W96
//  #01 //002   ----------------------------------------
 BYTE   W36
 BYTE   W02
 BYTE   W04
 BYTE   N05  Gs3  v060
 BYTE   W06
 BYTE   As3
 BYTE   W06
 BYTE   N11  Bn3
 BYTE   W12
 BYTE   Cs4
 BYTE   W12
 BYTE   As3
 BYTE   W04
 BYTE   W04
 BYTE   W04
 BYTE   Fs3
 BYTE   W04
 BYTE   W02
//  #01 //003   ----------------------------------------
 BYTE   W02
 BYTE   W04
 BYTE   N23  Gs3
 BYTE   W04
 BYTE   W04
 BYTE   W04
 BYTE   W04
 BYTE   W04
 BYTE   W04
 BYTE   Ds4
 BYTE   W04
 BYTE   W20
 BYTE   Cs4
 BYTE   W04
 BYTE   W08
 BYTE   W04
 BYTE   W04
 BYTE   W04
 BYTE   N11  Bn3
 BYTE   W04
 BYTE   W04
 BYTE   W04
 BYTE   As3
 BYTE   W04
 BYTE   W02
//  #01 //004   ----------------------------------------
 BYTE   W02
 BYTE   W04
 BYTE   W90
//  #01 //005   ----------------------------------------
 BYTE   W96
//  #01 //006   ----------------------------------------
 BYTE   W30
 BYTE   N05  Gs3
 BYTE   W06
 BYTE   As3
 BYTE   W06
 BYTE   Bn3
 BYTE   W06
 BYTE   Cs4
 BYTE   W06
 BYTE   N11  As3
 BYTE   W12
 BYTE   Cs4
 BYTE   W12
 BYTE   Fs3
 BYTE   W12
 BYTE   N92  Gs3
 BYTE   W06
//  #01 //007   ----------------------------------------
 BYTE   W06
 BYTE   W04
 BYTE   W04
 BYTE   W04
 BYTE   W04
 BYTE   W04
 BYTE   W04
 BYTE   W04
 BYTE   W04
 BYTE   W04
 BYTE   W04
 BYTE   W04
 BYTE   W04
 BYTE   W04
 BYTE   W04
 BYTE   W04
 BYTE   W04
 BYTE   W04
 BYTE   W04
 BYTE   W04
 BYTE   W04
 BYTE   W04
 BYTE   W04
 BYTE   W02
//  #01 //008   ----------------------------------------
 BYTE   W02
 BYTE   W92
 BYTE   W02
//  #01 //009   ----------------------------------------
 BYTE   W96
//  #01 //010   ----------------------------------------
 BYTE   W96
//  #01 //011   ----------------------------------------
 BYTE   W96
//  #01 //012   ----------------------------------------
 BYTE   W96
//  #01 //013   ----------------------------------------
 BYTE   W96
//  #01 //014   ----------------------------------------
 BYTE   W96
//  #01 //015   ----------------------------------------
 BYTE   W92
 BYTE   W02
 BYTE   W02
//  #01 //016   ----------------------------------------
 BYTE   W06
 BYTE   N23  En3  v116
 BYTE   W04
 BYTE   W04
 BYTE   W04
 BYTE   W04
 BYTE   W04
 BYTE   W04
 BYTE   N17  Ds3
 BYTE   W04
 BYTE   W04
 BYTE   W04
 BYTE   W04
 BYTE   W02
 BYTE   N05  Cs3
 BYTE   W02
 BYTE   W04
 BYTE   N23  Ds3
 BYTE   W04
 BYTE   W04
 BYTE   W04
 BYTE   W04
 BYTE   W04
 BYTE   W04
 BYTE   Bn2
 BYTE   W04
 BYTE   W04
 BYTE   W04
 BYTE   W04
 BYTE   W02
//  #01 //017   ----------------------------------------
 BYTE   W02
 BYTE   W04
 BYTE   N17
 BYTE   W04
 BYTE   W04
 BYTE   W04
 BYTE   W04
 BYTE   W02
 BYTE   N05  Cs3
 BYTE   W02
 BYTE   W04
 BYTE   N68
 BYTE   W04
 BYTE   W04
 BYTE   W04
 BYTE   W04
 BYTE   W04
 BYTE   W04
 BYTE   W04
 BYTE   W04
 BYTE   W04
 BYTE   W04
 BYTE   W04
 BYTE   W04
 BYTE   W04
 BYTE   W04
 BYTE   W04
 BYTE   W04
 BYTE   W02
//  #01 //018   ----------------------------------------
 BYTE   W02
 BYTE   W04
 BYTE   N44  Fs2
 BYTE   W04
 BYTE   W04
 BYTE   W04
 BYTE   W04
 BYTE   W04
 BYTE   W04
 BYTE   W08
 BYTE   W04
 BYTE   W04
 BYTE   W04
 BYTE   W04
 BYTE   En2
 BYTE   W04
 BYTE   W04
 BYTE   W04
 BYTE   W04
 BYTE   W04
 BYTE   W04
 BYTE   W04
 BYTE   W04
 BYTE   W04
 BYTE   W04
 BYTE   W02
//  #01 //019   ----------------------------------------
 BYTE   W02
 BYTE   W04
 BYTE   N68  An2
 BYTE   W04
 BYTE   W04
 BYTE   W04
 BYTE   W04
 BYTE   W04
 BYTE   W04
 BYTE   W04
 BYTE   W04
 BYTE   W04
 BYTE   W04
 BYTE   W04
 BYTE   W04
 BYTE   W04
 BYTE   W04
 BYTE   W04
 BYTE   W04
 BYTE   W04
 BYTE   W04
 BYTE   W04
 BYTE   W14
//  #01 //020   ----------------------------------------
 BYTE   W96
//  #01 //021   ----------------------------------------
 BYTE   W96
//  #01 //022   ----------------------------------------
 BYTE   W96
//  #01 //023   ----------------------------------------
 BYTE   W90
 BYTE   W04
 BYTE   W02
//  #01 //024   ----------------------------------------
 BYTE   W02
 BYTE   W04
 BYTE   W04
 BYTE   W04
 BYTE   W04
 BYTE   W04
 BYTE   W04
 BYTE   W04
 BYTE   N23  Cs3  v088
 BYTE   W04
 BYTE   W04
 BYTE   W04
 BYTE   W04
 BYTE   W04
 BYTE   W04
 BYTE   Gs3
 BYTE   W12
 BYTE   W08
 BYTE   W04
 BYTE   Bn3
 BYTE   W04
 BYTE   W08
 BYTE   W04
 BYTE   W02
//  #01 //025   ----------------------------------------
 BYTE   W06
 BYTE   N40  As3
 BYTE   W04
 BYTE   W04
 BYTE   W04
 BYTE   W04
 BYTE   W04
 BYTE   W04
 BYTE   W04
 BYTE   W04
 BYTE   W04
 BYTE   W04
 BYTE   W02
 BYTE   N02  Bn3
 BYTE   W02
 BYTE   W01
 BYTE   Cn4
 BYTE   W03
 BYTE   N44  Cs4
 BYTE   W08
 BYTE   W04
 BYTE   W04
 BYTE   W04
 BYTE   W04
 BYTE   W04
 BYTE   W04
 BYTE   W04
 BYTE   W04
 BYTE   W02
//  #01 //026   ----------------------------------------
 BYTE   W02
 BYTE   W04
 BYTE   N32  Fs2  v120
 BYTE   W04
 BYTE   W04
 BYTE   W04
 BYTE   W04
 BYTE   W04
 BYTE   W04
 BYTE   W04
 BYTE   W04
 BYTE   W04
 BYTE   N11  En2
 BYTE   W04
 BYTE   W04
 BYTE   W04
 BYTE   W04
 BYTE   W04
 BYTE   W04
 BYTE   W04
 BYTE   W04
 BYTE   W04
 BYTE   N32  Dn2
 BYTE   W04
 BYTE   W04
 BYTE   W04
 BYTE   W04
 BYTE   W02
//  #01 //027   ----------------------------------------
 BYTE   W02
 BYTE   W04
 BYTE   W04
 BYTE   W04
 BYTE   W04
 BYTE   N11  Cn2
 BYTE   W04
 BYTE   W04
 BYTE   W04
 BYTE   W04
 BYTE   W04
 BYTE   W04
 BYTE   W04
 BYTE   W04
 BYTE   W04
 BYTE   N23
 BYTE   W04
 BYTE   W04
 BYTE   W04
 BYTE   W04
 BYTE   W04
 BYTE   W04
 BYTE   An2
 BYTE   W04
 BYTE   W04
 BYTE   W04
 BYTE   W04
 BYTE   W02
//  #01 //028   ----------------------------------------
 BYTE   W02
 BYTE   W04
 BYTE   N32  Fs2
 BYTE   W04
 BYTE   W04
 BYTE   W04
 BYTE   W04
 BYTE   W04
 BYTE   W04
 BYTE   W04
 BYTE   W04
 BYTE   W04
 BYTE   N11  En2
 BYTE   W08
 BYTE   W04
 BYTE   W08
 BYTE   W04
 BYTE   W04
 BYTE   W04
 BYTE   W04
 BYTE   N32  Gs2
 BYTE   W04
 BYTE   W04
 BYTE   W04
 BYTE   W04
 BYTE   W02
//  #01 //029   ----------------------------------------
 BYTE   W02
 BYTE   W04
 BYTE   W04
 BYTE   W04
 BYTE   W04
 BYTE   N56  Gn2
 BYTE   W04
 BYTE   W04
 BYTE   W04
 BYTE   W04
 BYTE   W04
 BYTE   W04
 BYTE   W04
 BYTE   W04
 BYTE   W04
 BYTE   W04
 BYTE   W04
 BYTE   W04
 BYTE   W04
 BYTE   W04
 BYTE   W04
 BYTE   N23  Fs2
 BYTE   W04
 BYTE   W04
 BYTE   W04
 BYTE   W04
 BYTE   W02
//  #01 //030   ----------------------------------------
 BYTE   W02
 BYTE   W04
 BYTE   N32  Gs2
 BYTE   W04
 BYTE   W04
 BYTE   W04
 BYTE   W04
 BYTE   W04
 BYTE   W04
 BYTE   W04
 BYTE   W04
 BYTE   W04
 BYTE   N11  Fs2
 BYTE   W04
 BYTE   W04
 BYTE   W04
 BYTE   W04
 BYTE   W04
 BYTE   W04
 BYTE   W04
 BYTE   W04
 BYTE   W04
 BYTE   N32  En2
 BYTE   W04
 BYTE   W04
 BYTE   W04
 BYTE   W04
 BYTE   W02
//  #01 //031   ----------------------------------------
 BYTE   W02
 BYTE   W04
 BYTE   W04
 BYTE   W04
 BYTE   W04
 BYTE   N12  Dn2
 BYTE   W04
 BYTE   W04
 BYTE   W04
 BYTE   W04
 BYTE   W04
 BYTE   W04
 BYTE   W04
 BYTE   W04
 BYTE   W04
 BYTE   N23
 BYTE   W04
 BYTE   W04
 BYTE   W04
 BYTE   W04
 BYTE   W04
 BYTE   W04
 BYTE   Bn2
 BYTE   W04
 BYTE   W04
 BYTE   W04
 BYTE   W04
 BYTE   W02
//  #01 //032   ----------------------------------------
 BYTE   W02
 BYTE   W04
 BYTE   N32  Fn2  v124
 BYTE   W04
 BYTE   W04
 BYTE   W04
 BYTE   W04
 BYTE   W04
 BYTE   W04
 BYTE   W04
 BYTE   W04
 BYTE   W04
 BYTE   Fs2
 BYTE   W04
 BYTE   W04
 BYTE   W04
 BYTE   W04
 BYTE   W04
 BYTE   W04
 BYTE   W04
 BYTE   W04
 BYTE   W04
 BYTE   Gs2
 BYTE   W04
 BYTE   W04
 BYTE   W04
 BYTE   W04
 BYTE   W02
//  #01 //033   ----------------------------------------
 BYTE   W02
 BYTE   W04
 BYTE   W04
 BYTE   W04
 BYTE   W04
 BYTE   TIE  Bn2  v120
 BYTE   W04
 BYTE   W04
 BYTE   W04
 BYTE   W04
 BYTE   W04
 BYTE   W04
 BYTE   W04
 BYTE   W04
 BYTE   W04
 BYTE   W04
 BYTE   W04
 BYTE   W04
 BYTE   W04
 BYTE   W20
 BYTE   W06
//  #01 //034   ----------------------------------------
 BYTE   W06
 BYTE   W12
 BYTE   W08
 BYTE   W04
 BYTE   W04
 BYTE   W04
 BYTE   W04
 BYTE   W04
 BYTE   W04
 BYTE   W04
 BYTE   W04
 BYTE   W04
 BYTE   W04
 BYTE   W04
 BYTE   W04
 BYTE   W04
 BYTE   W04
 BYTE   W04
 BYTE   W04
 BYTE   W04
 BYTE   W02
//  #01 //035   ----------------------------------------
 BYTE   W02
 BYTE   W03
 BYTE   EOT
 BYTE   W06
 BYTE   GoTo
  POIN2 Label_0192B82A
 BYTE   FINE

//**************** Track 2 (Midi-Chn.1) ****************//

History2_002:
//  #02 //000   ----------------------------------------
 BYTE   KEYSH   History2_key+0
Label_0192AEAA:
 BYTE   VOICE   53
 BYTE   PAN   c_v+21
 BYTE   VOL   35*History2_mvl/mxv
 BYTE   BEND   c_v+0
 BYTE   W96
//  #02 //001   ----------------------------------------
 BYTE   W96
//  #02 //002   ----------------------------------------
 BYTE   W44
 BYTE   W04
 BYTE   N05  Gs3  v060
 BYTE   W06
 BYTE   As3
 BYTE   W06
 BYTE   N11  Bn3
 BYTE   W12
 BYTE   Cs4
 BYTE   W12
 BYTE   As3
 BYTE   W04
 BYTE   W04
 BYTE   W04
//  #02 //003   ----------------------------------------
 BYTE   Fs3
 BYTE   W04
 BYTE   W04
 BYTE   W04
 BYTE   N23  Gs3
 BYTE   W04
 BYTE   W04
 BYTE   W04
 BYTE   W04
 BYTE   W04
 BYTE   W04
 BYTE   Ds4
 BYTE   W04
 BYTE   W20
 BYTE   Cs4
 BYTE   W04
 BYTE   W08
 BYTE   W04
 BYTE   W04
 BYTE   W04
 BYTE   N11  Bn3
 BYTE   W04
 BYTE   W04
 BYTE   W04
//  #02 //004   ----------------------------------------
 BYTE   As3
 BYTE   W04
 BYTE   W04
 BYTE   W04
 BYTE   W84
//  #02 //005   ----------------------------------------
 BYTE   W96
//  #02 //006   ----------------------------------------
 BYTE   W36
 BYTE   N05  Gs3
 BYTE   W06
 BYTE   As3
 BYTE   W06
 BYTE   Bn3
 BYTE   W06
 BYTE   Cs4
 BYTE   W06
 BYTE   N11  As3
 BYTE   W12
 BYTE   Cs4
 BYTE   W12
 BYTE   Fs3
 BYTE   W12
//  #02 //007   ----------------------------------------
 BYTE   N92  Gs3
 BYTE   W12
 BYTE   W04
 BYTE   W04
 BYTE   W04
 BYTE   W04
 BYTE   W04
 BYTE   W04
 BYTE   W04
 BYTE   W04
 BYTE   W04
 BYTE   W04
 BYTE   W04
 BYTE   W04
 BYTE   W04
 BYTE   W04
 BYTE   W04
 BYTE   W04
 BYTE   W04
 BYTE   W04
 BYTE   W04
 BYTE   W04
 BYTE   W04
//  #02 //008   ----------------------------------------
 BYTE   W04
 BYTE   W04
 BYTE   W88
//  #02 //009   ----------------------------------------
 BYTE   W96
//  #02 //010   ----------------------------------------
 BYTE   W96
//  #02 //011   ----------------------------------------
 BYTE   W96
//  #02 //012   ----------------------------------------
 BYTE   W96
//  #02 //013   ----------------------------------------
 BYTE   W96
//  #02 //014   ----------------------------------------
 BYTE   W96
//  #02 //015   ----------------------------------------
 BYTE   W96
//  #02 //016   ----------------------------------------
 BYTE   W08
 BYTE   W04
 BYTE   N23  En3  v116
 BYTE   W04
 BYTE   W04
 BYTE   W04
 BYTE   W04
 BYTE   W04
 BYTE   W04
 BYTE   N17  Ds3
 BYTE   W04
 BYTE   W04
 BYTE   W04
 BYTE   W04
 BYTE   W02
 BYTE   N05  Cs3
 BYTE   W02
 BYTE   W04
 BYTE   N23  Ds3
 BYTE   W04
 BYTE   W04
 BYTE   W04
 BYTE   W04
 BYTE   W04
 BYTE   W04
 BYTE   Bn2
 BYTE   W04
 BYTE   W04
 BYTE   W04
//  #02 //017   ----------------------------------------
 BYTE   W04
 BYTE   W04
 BYTE   W04
 BYTE   N17
 BYTE   W04
 BYTE   W04
 BYTE   W04
 BYTE   W04
 BYTE   W02
 BYTE   N05  Cs3
 BYTE   W02
 BYTE   W04
 BYTE   N68
 BYTE   W04
 BYTE   W04
 BYTE   W04
 BYTE   W04
 BYTE   W04
 BYTE   W04
 BYTE   W04
 BYTE   W04
 BYTE   W04
 BYTE   W04
 BYTE   W04
 BYTE   W04
 BYTE   W04
 BYTE   W04
 BYTE   W04
//  #02 //018   ----------------------------------------
 BYTE   W04
 BYTE   W04
 BYTE   W04
 BYTE   W84
//  #02 //019   ----------------------------------------
 BYTE   W96
//  #02 //020   ----------------------------------------
 BYTE   W96
//  #02 //021   ----------------------------------------
 BYTE   W96
//  #02 //022   ----------------------------------------
 BYTE   W96
//  #02 //023   ----------------------------------------
 BYTE   W96
//  #02 //024   ----------------------------------------
 BYTE   W96
//  #02 //025   ----------------------------------------
 BYTE   W96
//  #02 //026   ----------------------------------------
 BYTE   W96
//  #02 //027   ----------------------------------------
 BYTE   W96
//  #02 //028   ----------------------------------------
 BYTE   W96
//  #02 //029   ----------------------------------------
 BYTE   W96
//  #02 //030   ----------------------------------------
 BYTE   W96
//  #02 //031   ----------------------------------------
 BYTE   W96
//  #02 //032   ----------------------------------------
 BYTE   W96
//  #02 //033   ----------------------------------------
 BYTE   W96
//  #02 //034   ----------------------------------------
 BYTE   W96
//  #02 //035   ----------------------------------------
 BYTE   W11
 BYTE   GoTo
  POIN2 Label_0192AEAA
 BYTE   FINE

//**************** Track 3 (Midi-Chn.2) ****************//

History2_003:
//  #03 //000   ----------------------------------------
 BYTE   KEYSH   History2_key+0
Label_019B3B0A:
 BYTE   VOICE   29
 BYTE   PAN   c_v+33
 BYTE   VOL   28*History2_mvl/mxv
 BYTE   BEND   c_v+0
 BYTE   W96
//  #03 //001   ----------------------------------------
 BYTE   W96
//  #03 //002   ----------------------------------------
 BYTE   W96
//  #03 //003   ----------------------------------------
 BYTE   W96
//  #03 //004   ----------------------------------------
 BYTE   W96
//  #03 //005   ----------------------------------------
 BYTE   W96
//  #03 //006   ----------------------------------------
 BYTE   W96
//  #03 //007   ----------------------------------------
 BYTE   W96
//  #03 //008   ----------------------------------------
 BYTE   W24
 BYTE   W02
 BYTE   W04
 BYTE   N05  Gs2  v116
 BYTE   W06
 BYTE   Ds3
 BYTE   W06
 BYTE   Fn3
 BYTE   W06
 BYTE   Gs3
 BYTE   W06
 BYTE   N23  Gn3
 BYTE   W04
 BYTE   W04
 BYTE   W04
 BYTE   W04
 BYTE   W04
 BYTE   W04
 BYTE   W04
 BYTE   W04
 BYTE   W04
 BYTE   N05  Ds3
 BYTE   W06
//  #03 //009   ----------------------------------------
 BYTE   Fn3
 BYTE   W06
 BYTE   N17  Fs3
 BYTE   W04
 BYTE   W04
 BYTE   W04
 BYTE   W04
 BYTE   W02
 BYTE   N05  Gs3
 BYTE   W06
 BYTE   Fn3
 BYTE   W08
 BYTE   W04
 BYTE   Cs3
 BYTE   W06
 BYTE   Ds3
 BYTE   W06
 BYTE   N17  En3
 BYTE   W04
 BYTE   W04
 BYTE   W04
 BYTE   W04
 BYTE   W02
 BYTE   N05  Fs3
 BYTE   W02
 BYTE   W04
 BYTE   N11  Ds3
 BYTE   W12
 BYTE   Gs2
 BYTE   W06
//  #03 //010   ----------------------------------------
 BYTE   W06
 BYTE   N05  Ds3
 BYTE   W06
 BYTE   Cs3
 BYTE   W06
 BYTE   N16  Bn2
 BYTE   W04
 BYTE   W04
 BYTE   W04
 BYTE   W04
 BYTE   W04
 BYTE   W04
 BYTE   N05  Gs2
 BYTE   W04
 BYTE   W02
 BYTE   As2
 BYTE   W02
 BYTE   W04
 BYTE   N11  Bn2
 BYTE   W04
 BYTE   W04
 BYTE   W04
 BYTE   Cs3
 BYTE   W04
 BYTE   W04
 BYTE   W04
 BYTE   As2
 BYTE   W04
 BYTE   W04
 BYTE   W04
 BYTE   Fs2
 BYTE   W04
 BYTE   W02
//  #03 //011   ----------------------------------------
 BYTE   W02
 BYTE   W04
 BYTE   N23  Gs2
 BYTE   W04
 BYTE   W04
 BYTE   W04
 BYTE   W04
 BYTE   W04
 BYTE   W04
 BYTE   Ds3
 BYTE   W04
 BYTE   W04
 BYTE   W04
 BYTE   W04
 BYTE   W04
 BYTE   W04
 BYTE   Cs3
 BYTE   W04
 BYTE   W04
 BYTE   W04
 BYTE   W04
 BYTE   W04
 BYTE   W04
 BYTE   N11  Bn2
 BYTE   W04
 BYTE   W04
 BYTE   W04
 BYTE   As2
 BYTE   W04
 BYTE   W02
//  #03 //012   ----------------------------------------
 BYTE   W02
 BYTE   W04
 BYTE   W04
 BYTE   W04
 BYTE   W04
 BYTE   W04
 BYTE   W04
 BYTE   W04
 BYTE   N05  Gs2
 BYTE   W06
 BYTE   Ds3
 BYTE   W06
 BYTE   Fn3
 BYTE   W06
 BYTE   Gs3
 BYTE   W06
 BYTE   N23  Gn3
 BYTE   W04
 BYTE   W04
 BYTE   W04
 BYTE   W04
 BYTE   W04
 BYTE   W04
 BYTE   W04
 BYTE   W04
 BYTE   W04
 BYTE   N05  Ds3
 BYTE   W04
 BYTE   W02
//  #03 //013   ----------------------------------------
 BYTE   Fn3
 BYTE   W02
 BYTE   W04
 BYTE   N17  Fs3
 BYTE   W18
 BYTE   N05  Gs3
 BYTE   W06
 BYTE   Fn3
 BYTE   W12
 BYTE   Cs3
 BYTE   W06
 BYTE   Ds3
 BYTE   W06
 BYTE   N17  En3
 BYTE   W18
 BYTE   N05  Fs3
 BYTE   W06
 BYTE   N11  Ds3
 BYTE   W12
 BYTE   Gs2
 BYTE   W06
//  #03 //014   ----------------------------------------
 BYTE   W06
 BYTE   N17  Bn2
 BYTE   W24
 BYTE   N05  Gs2
 BYTE   W06
 BYTE   As2
 BYTE   W06
 BYTE   Bn2
 BYTE   W06
 BYTE   Cs3
 BYTE   W06
 BYTE   N11  As2
 BYTE   W12
 BYTE   Ds3
 BYTE   W12
 BYTE   Fs3
 BYTE   W12
 BYTE   TIE  Gs3
 BYTE   W04
 BYTE   W02
//  #03 //015   ----------------------------------------
 BYTE   W06
 BYTE   W04
 BYTE   W04
 BYTE   W04
 BYTE   W04
 BYTE   W04
 BYTE   W04
 BYTE   W04
 BYTE   W04
 BYTE   W04
 BYTE   W04
 BYTE   W04
 BYTE   W04
 BYTE   W04
 BYTE   W04
 BYTE   W04
 BYTE   W04
 BYTE   W04
 BYTE   W04
 BYTE   W04
 BYTE   W04
 BYTE   W04
 BYTE   W04
 BYTE   W02
//  #03 //016   ----------------------------------------
 BYTE   W02
 BYTE   W04
 BYTE   W04
 BYTE   W04
 BYTE   W04
 BYTE   W04
 BYTE   W04
 BYTE   W04
 BYTE   W04
 BYTE   W04
 BYTE   W04
 BYTE   W04
 BYTE   W03
 BYTE   EOT
 BYTE   W01
 BYTE   W04
 BYTE   W04
 BYTE   W36
 BYTE   W02
//  #03 //017   ----------------------------------------
 BYTE   W96
//  #03 //018   ----------------------------------------
 BYTE   W96
//  #03 //019   ----------------------------------------
 BYTE   W68
 BYTE   W02
 BYTE   W04
 BYTE   W12
 BYTE   N07  Fs3
 BYTE   W08
 BYTE   An3
 BYTE   W02
//  #03 //020   ----------------------------------------
 BYTE   W06
 BYTE   N40  Cs4
 BYTE   W04
 BYTE   W04
 BYTE   W04
 BYTE   W04
 BYTE   W04
 BYTE   W04
 BYTE   W04
 BYTE   W04
 BYTE   W04
 BYTE   W04
 BYTE   W02
 BYTE   N05  Bn3
 BYTE   W02
 BYTE   W04
 BYTE   N23
 BYTE   W04
 BYTE   W04
 BYTE   W04
 BYTE   W04
 BYTE   W04
 BYTE   W04
 BYTE   Dn3
 BYTE   W04
 BYTE   W04
 BYTE   W04
 BYTE   W04
 BYTE   W02
//  #03 //021   ----------------------------------------
 BYTE   W02
 BYTE   W04
 BYTE   N15  Bn3
 BYTE   W04
 BYTE   W04
 BYTE   W04
 BYTE   W04
 BYTE   W02
 BYTE   N05  An3
 BYTE   W02
 BYTE   W04
 BYTE   N44  En4
 BYTE   W04
 BYTE   W04
 BYTE   W04
 BYTE   W04
 BYTE   W04
 BYTE   W04
 BYTE   W04
 BYTE   W04
 BYTE   W04
 BYTE   W04
 BYTE   W04
 BYTE   W04
 BYTE   N07  Dn4
 BYTE   W04
 BYTE   W04
 BYTE   Cs4
 BYTE   W04
 BYTE   W04
 BYTE   An3
 BYTE   W02
//  #03 //022   ----------------------------------------
 BYTE   W02
 BYTE   W04
 BYTE   N44  Fs3
 BYTE   W04
 BYTE   W04
 BYTE   W04
 BYTE   W04
 BYTE   W04
 BYTE   W04
 BYTE   W04
 BYTE   W04
 BYTE   W04
 BYTE   W04
 BYTE   W04
 BYTE   W04
 BYTE   TIE  En3
 BYTE   W04
 BYTE   W08
 BYTE   W04
 BYTE   W04
 BYTE   W04
 BYTE   W04
 BYTE   W04
 BYTE   W04
 BYTE   W04
 BYTE   W02
//  #03 //023   ----------------------------------------
 BYTE   W02
 BYTE   W04
 BYTE   W04
 BYTE   W04
 BYTE   W04
 BYTE   W04
 BYTE   W04
 BYTE   W04
 BYTE   W04
 BYTE   W04
 BYTE   W04
 BYTE   W04
 BYTE   W04
 BYTE   W04
 BYTE   W04
 BYTE   W04
 BYTE   W04
 BYTE   W04
 BYTE   W04
 BYTE   W03
 BYTE   EOT
 BYTE   W01
 BYTE   W04
 BYTE   W04
 BYTE   W04
 BYTE   W04
 BYTE   W02
//  #03 //024   ----------------------------------------
 BYTE   W02
 BYTE   W04
 BYTE   N44  Fs3
 BYTE   W04
 BYTE   W12
 BYTE   W08
 BYTE   W04
 BYTE   W08
 BYTE   W04
 BYTE   W08
 BYTE   TIE  En3
 BYTE   W08
 BYTE   W04
 BYTE   W04
 BYTE   W04
 BYTE   W04
 BYTE   W04
 BYTE   W04
 BYTE   W04
 BYTE   W04
 BYTE   W02
//  #03 //025   ----------------------------------------
 BYTE   W02
 BYTE   W04
 BYTE   W04
 BYTE   W04
 BYTE   W04
 BYTE   W04
 BYTE   W04
 BYTE   W04
 BYTE   W04
 BYTE   W04
 BYTE   W04
 BYTE   W04
 BYTE   W04
 BYTE   W04
 BYTE   W04
 BYTE   W04
 BYTE   W04
 BYTE   W04
 BYTE   W04
 BYTE   W03
 BYTE   EOT
 BYTE   W01
 BYTE   W04
 BYTE   W04
 BYTE   W04
 BYTE   W04
 BYTE   W02
//  #03 //026   ----------------------------------------
 BYTE   W02
 BYTE   W04
 BYTE   N17  Ds4  v100
 BYTE   W04
 BYTE   W04
 BYTE   W04
 BYTE   W04
 BYTE   W02
 BYTE   N05  En4
 BYTE   W02
 BYTE   W04
 BYTE   N11  Ds4
 BYTE   W04
 BYTE   W04
 BYTE   W04
 BYTE   Cs4
 BYTE   W04
 BYTE   W04
 BYTE   W04
 BYTE   W04
 BYTE   W04
 BYTE   W04
 BYTE   Fs3
 BYTE   W04
 BYTE   W04
 BYTE   W04
 BYTE   N17  Cs4
 BYTE   W04
 BYTE   W04
 BYTE   W04
 BYTE   W04
 BYTE   W02
//  #03 //027   ----------------------------------------
 BYTE   N05  Dn4
 BYTE   W02
 BYTE   W04
 BYTE   N11  Cs4
 BYTE   W04
 BYTE   W04
 BYTE   W04
 BYTE   N56  Bn3
 BYTE   W04
 BYTE   W04
 BYTE   W04
 BYTE   W04
 BYTE   W04
 BYTE   W04
 BYTE   W04
 BYTE   W04
 BYTE   W04
 BYTE   W04
 BYTE   W04
 BYTE   W04
 BYTE   W04
 BYTE   W04
 BYTE   W04
 BYTE   N11
 BYTE   W04
 BYTE   W04
 BYTE   W04
 BYTE   Cs4
 BYTE   W04
 BYTE   W02
//  #03 //028   ----------------------------------------
 BYTE   W02
 BYTE   W04
 BYTE   N17  Ds4
 BYTE   W04
 BYTE   W04
 BYTE   W04
 BYTE   W04
 BYTE   W02
 BYTE   N05  En4
 BYTE   W06
 BYTE   N11  Ds4
 BYTE   W04
 BYTE   W04
 BYTE   W04
 BYTE   Cs4
 BYTE   W04
 BYTE   W04
 BYTE   W04
 BYTE   W04
 BYTE   W04
 BYTE   W04
 BYTE   Fs3
 BYTE   W04
 BYTE   W04
 BYTE   W04
 BYTE   N23  Fs4
 BYTE   W04
 BYTE   W04
 BYTE   W04
 BYTE   W04
 BYTE   W02
//  #03 //029   ----------------------------------------
 BYTE   W02
 BYTE   W04
 BYTE   N05  En4
 BYTE   W04
 BYTE   W02
 BYTE   Ds4
 BYTE   W02
 BYTE   W04
 BYTE   N56  Bn3
 BYTE   W04
 BYTE   W04
 BYTE   W04
 BYTE   W04
 BYTE   W04
 BYTE   W04
 BYTE   W04
 BYTE   W04
 BYTE   W04
 BYTE   W04
 BYTE   W04
 BYTE   W04
 BYTE   W04
 BYTE   W04
 BYTE   W04
 BYTE   N11  Cs4
 BYTE   W04
 BYTE   W04
 BYTE   W04
 BYTE   Ds4
 BYTE   W04
 BYTE   W02
//  #03 //030   ----------------------------------------
 BYTE   W02
 BYTE   W04
 BYTE   N17  Fn4
 BYTE   W04
 BYTE   W04
 BYTE   W04
 BYTE   W04
 BYTE   W02
 BYTE   N05  Fs4
 BYTE   W02
 BYTE   W04
 BYTE   N11  Fn4
 BYTE   W04
 BYTE   W04
 BYTE   W04
 BYTE   Ds4
 BYTE   W04
 BYTE   W04
 BYTE   W04
 BYTE   W04
 BYTE   W04
 BYTE   W04
 BYTE   Gs3
 BYTE   W04
 BYTE   W04
 BYTE   W04
 BYTE   N17  Ds4
 BYTE   W04
 BYTE   W04
 BYTE   W04
 BYTE   W04
 BYTE   W02
//  #03 //031   ----------------------------------------
 BYTE   N05  En4
 BYTE   W02
 BYTE   W04
 BYTE   N11  Ds4
 BYTE   W04
 BYTE   W04
 BYTE   W04
 BYTE   N56  Cs4
 BYTE   W04
 BYTE   W04
 BYTE   W04
 BYTE   W04
 BYTE   W04
 BYTE   W04
 BYTE   W04
 BYTE   W04
 BYTE   W04
 BYTE   W04
 BYTE   W04
 BYTE   W04
 BYTE   W04
 BYTE   W04
 BYTE   W04
 BYTE   N11
 BYTE   W04
 BYTE   W04
 BYTE   W04
 BYTE   Ds4
 BYTE   W04
 BYTE   W02
//  #03 //032   ----------------------------------------
 BYTE   W02
 BYTE   W04
 BYTE   N17  Fn4
 BYTE   W04
 BYTE   W04
 BYTE   W04
 BYTE   W04
 BYTE   W02
 BYTE   N05  Fs4
 BYTE   W06
 BYTE   N11  Fn4
 BYTE   W04
 BYTE   W04
 BYTE   W04
 BYTE   Ds4
 BYTE   W04
 BYTE   W04
 BYTE   W04
 BYTE   W04
 BYTE   W04
 BYTE   W04
 BYTE   Gs3
 BYTE   W04
 BYTE   W04
 BYTE   W04
 BYTE   N23  Gs4
 BYTE   W04
 BYTE   W04
 BYTE   W04
 BYTE   W04
 BYTE   W02
//  #03 //033   ----------------------------------------
 BYTE   W02
 BYTE   W04
 BYTE   N05  Fs4
 BYTE   W04
 BYTE   W02
 BYTE   Fn4
 BYTE   W02
 BYTE   W04
 BYTE   TIE  Cs4
 BYTE   W04
 BYTE   W04
 BYTE   W04
 BYTE   W04
 BYTE   W04
 BYTE   W04
 BYTE   W04
 BYTE   W04
 BYTE   W04
 BYTE   W04
 BYTE   W04
 BYTE   W04
 BYTE   W04
 BYTE   W04
 BYTE   W04
 BYTE   W04
 BYTE   W04
 BYTE   W04
 BYTE   W04
 BYTE   W02
//  #03 //034   ----------------------------------------
 BYTE   W02
 BYTE   W04
 BYTE   W04
 BYTE   W04
 BYTE   W04
 BYTE   W04
 BYTE   W04
 BYTE   W04
 BYTE   W04
 BYTE   W04
 BYTE   W04
 BYTE   W04
 BYTE   W04
 BYTE   W04
 BYTE   W04
 BYTE   W04
 BYTE   W04
 BYTE   W04
 BYTE   W04
 BYTE   W04
 BYTE   W04
 BYTE   W04
 BYTE   W03
 BYTE   EOT
 BYTE   W01
 BYTE   W06
//  #03 //035   ----------------------------------------
 BYTE   W11
 BYTE   GoTo
  POIN2 Label_019B3B0A
 BYTE   FINE

//**************** Track 4 (Midi-Chn.3) ****************//

History2_004:
//  #04 //000   ----------------------------------------
 BYTE   KEYSH   History2_key+0
Label_019B4476:
 BYTE   VOICE   36
 BYTE   PAN   c_v-8
 BYTE   VOL   34*History2_mvl/mxv
 BYTE   BEND   c_v+0
 BYTE   W06
 BYTE   N05  Gs4  v056
 BYTE   W06
 BYTE   Ds4
 BYTE   W06
 BYTE   Gs3
 BYTE   W06
 BYTE   Ds4
 BYTE   W06
 BYTE   Gs4
 BYTE   W06
 BYTE   Ds4
 BYTE   W06
 BYTE   Gs3
 BYTE   W06
 BYTE   Ds4
 BYTE   W06
 BYTE   Gs4
 BYTE   W06
 BYTE   Ds4
 BYTE   W06
 BYTE   Gs3
 BYTE   W06
 BYTE   Ds4
 BYTE   W06
 BYTE   Gs4
 BYTE   W06
 BYTE   Ds4
 BYTE   W06
 BYTE   Gs3
 BYTE   W06
//  #04 //001   ----------------------------------------
Label_019B449F:
 BYTE   N05  Ds4  v056
 BYTE   W06
 BYTE   Gs4
 BYTE   W06
 BYTE   Ds4
 BYTE   W06
 BYTE   Gs3
 BYTE   W06
 BYTE   Ds4
 BYTE   W06
 BYTE   Gs4
 BYTE   W06
 BYTE   Ds4
 BYTE   W06
 BYTE   Gs3
 BYTE   W06
 BYTE   Ds4
 BYTE   W06
 BYTE   Gs4
 BYTE   W06
 BYTE   Ds4
 BYTE   W06
 BYTE   Gs3
 BYTE   W06
 BYTE   Ds4
 BYTE   W06
 BYTE   Gs4
 BYTE   W06
 BYTE   Ds4
 BYTE   W06
 BYTE   Gs3
 BYTE   W06
 BYTE   PEND 
//  #04 //002   ----------------------------------------
Label_019B44C2:
 BYTE   N05  Ds4  v056
 BYTE   W06
 BYTE   Gs4
 BYTE   W06
 BYTE   Ds4
 BYTE   W06
 BYTE   Gs3
 BYTE   W06
 BYTE   Ds4
 BYTE   W06
 BYTE   Gs4
 BYTE   W06
 BYTE   Ds4
 BYTE   W06
 BYTE   Gs3
 BYTE   W06
 BYTE   Ds4
 BYTE   W06
 BYTE   Gs4
 BYTE   W06
 BYTE   Ds4
 BYTE   W06
 BYTE   Gs3
 BYTE   W06
 BYTE   Ds4
 BYTE   W06
 BYTE   Gs4
 BYTE   W06
 BYTE   Ds4
 BYTE   W06
 BYTE   N03  As3  v064
 BYTE   W04
 BYTE   Ds4
 BYTE   W02
 BYTE   PEND 
//  #04 //003   ----------------------------------------
Label_019B44E9:
 BYTE   W02
 BYTE   N03  Fs4  v072
 BYTE   W04
 BYTE   N05  Gs4
 BYTE   W06
 BYTE   Ds4  v060
 BYTE   W06
 BYTE   Cs4
 BYTE   W06
 BYTE   Ds4
 BYTE   W06
 BYTE   Gs4  v072
 BYTE   W06
 BYTE   Ds4  v060
 BYTE   W06
 BYTE   Ds5  v072
 BYTE   W06
 BYTE   Ds4  v060
 BYTE   W06
 BYTE   Cs5  v072
 BYTE   W06
 BYTE   Ds4  v060
 BYTE   W06
 BYTE   Cs4
 BYTE   W06
 BYTE   Ds4
 BYTE   W06
 BYTE   Bn4  v072
 BYTE   W06
 BYTE   Ds4  v060
 BYTE   W06
 BYTE   As4  v072
 BYTE   W06
 BYTE   PEND 
//  #04 //004   ----------------------------------------
Label_019B4518:
 BYTE   N05  Ds4  v060
 BYTE   W06
 BYTE   Gs4  v056
 BYTE   W06
 BYTE   Ds4
 BYTE   W06
 BYTE   Gs3
 BYTE   W06
 BYTE   Ds4
 BYTE   W06
 BYTE   Gs4
 BYTE   W06
 BYTE   Ds4
 BYTE   W06
 BYTE   Gs3
 BYTE   W06
 BYTE   Ds4
 BYTE   W06
 BYTE   Gs4
 BYTE   W06
 BYTE   Ds4
 BYTE   W06
 BYTE   Gs3
 BYTE   W06
 BYTE   Ds4
 BYTE   W06
 BYTE   Gs4
 BYTE   W06
 BYTE   Ds4
 BYTE   W06
 BYTE   Gs3
 BYTE   W06
 BYTE   PEND 
//  #04 //005   ----------------------------------------
 BYTE   PATT
  POIN2 Label_019B449F
//  #04 //006   ----------------------------------------
 BYTE   PATT
  POIN2 Label_019B449F
//  #04 //007   ----------------------------------------
 BYTE   N05  Ds4  v056
 BYTE   W06
 BYTE   Gs4
 BYTE   W06
 BYTE   Ds4
 BYTE   W06
 BYTE   N03  Gs2  v072
 BYTE   W04
 BYTE   Cs3
 BYTE   W04
 BYTE   Ds3
 BYTE   W04
 BYTE   Gs3
 BYTE   W04
 BYTE   Cs4
 BYTE   W04
 BYTE   Ds4
 BYTE   W04
 BYTE   Gs4
 BYTE   W04
 BYTE   Cs5
 BYTE   W04
 BYTE   Ds5
 BYTE   W04
 BYTE   Gs5
 BYTE   W04
 BYTE   Ds5
 BYTE   W04
 BYTE   Cs5
 BYTE   W04
 BYTE   Gs4
 BYTE   W04
 BYTE   Ds4
 BYTE   W04
 BYTE   Cs4
 BYTE   W04
 BYTE   Gs3
 BYTE   W04
 BYTE   Ds3
 BYTE   W04
 BYTE   Cs3
 BYTE   W04
 BYTE   Gs2
 BYTE   W04
 BYTE   Ds2
 BYTE   W02
//  #04 //008   ----------------------------------------
 BYTE   W02
 BYTE   Cs2
 BYTE   W92
 BYTE   W02
//  #04 //009   ----------------------------------------
Label_019B457C:
 BYTE   W06
 BYTE   N05  Gs4  v056
 BYTE   W06
 BYTE   Ds4
 BYTE   W06
 BYTE   Gs3
 BYTE   W06
 BYTE   Ds4
 BYTE   W06
 BYTE   Gs4
 BYTE   W06
 BYTE   Ds4
 BYTE   W06
 BYTE   Gs3
 BYTE   W06
 BYTE   Ds4
 BYTE   W06
 BYTE   Gs4
 BYTE   W06
 BYTE   Ds4
 BYTE   W06
 BYTE   Gs3
 BYTE   W06
 BYTE   Ds4
 BYTE   W06
 BYTE   Gs4
 BYTE   W06
 BYTE   Ds4
 BYTE   W06
 BYTE   Gs3
 BYTE   W06
 BYTE   PEND 
//  #04 //010   ----------------------------------------
 BYTE   PATT
  POIN2 Label_019B44C2
//  #04 //011   ----------------------------------------
 BYTE   PATT
  POIN2 Label_019B44E9
//  #04 //012   ----------------------------------------
 BYTE   PATT
  POIN2 Label_019B4518
//  #04 //013   ----------------------------------------
 BYTE   N05  Ds4  v056
 BYTE   W96
//  #04 //014   ----------------------------------------
 BYTE   W96
//  #04 //015   ----------------------------------------
 BYTE   PATT
  POIN2 Label_019B457C
//  #04 //016   ----------------------------------------
 BYTE   N05  Ds4  v056
 BYTE   W96
//  #04 //017   ----------------------------------------
 BYTE   W96
//  #04 //018   ----------------------------------------
 BYTE   W96
//  #04 //019   ----------------------------------------
 BYTE   W96
//  #04 //020   ----------------------------------------
 BYTE   W96
//  #04 //021   ----------------------------------------
 BYTE   W96
//  #04 //022   ----------------------------------------
 BYTE   W06
 BYTE   Cn4
 BYTE   W06
 BYTE   Gn4
 BYTE   W06
 BYTE   Cn5
 BYTE   W06
 BYTE   Gn4
 BYTE   W06
 BYTE   Cn4
 BYTE   W06
 BYTE   Gn4
 BYTE   W06
 BYTE   Cn5
 BYTE   W06
 BYTE   Gn4
 BYTE   W06
 BYTE   Cn4
 BYTE   W06
 BYTE   Gn4
 BYTE   W06
 BYTE   Cn5
 BYTE   W06
 BYTE   Gn4
 BYTE   W06
 BYTE   Cn4
 BYTE   W06
 BYTE   Gn4
 BYTE   W06
 BYTE   Cn5
 BYTE   W06
//  #04 //023   ----------------------------------------
 BYTE   Gn4
 BYTE   W06
 BYTE   Cn4
 BYTE   W06
 BYTE   Gn4
 BYTE   W06
 BYTE   Cn5
 BYTE   W06
 BYTE   Gn4
 BYTE   W06
 BYTE   Cn4
 BYTE   W06
 BYTE   Gn4
 BYTE   W06
 BYTE   Cn5
 BYTE   W06
 BYTE   Gn4
 BYTE   W06
 BYTE   Cn4
 BYTE   W06
 BYTE   Gn4
 BYTE   W06
 BYTE   Cn5
 BYTE   W06
 BYTE   Gn4
 BYTE   W06
 BYTE   Cn4
 BYTE   W06
 BYTE   Gn4
 BYTE   W06
 BYTE   Cn5
 BYTE   W06
//  #04 //024   ----------------------------------------
 BYTE   Gn4
 BYTE   W06
 BYTE   Cs4
 BYTE   W06
 BYTE   Gs4
 BYTE   W06
 BYTE   Cs5
 BYTE   W06
 BYTE   Gs4
 BYTE   W06
 BYTE   Cs4
 BYTE   W06
 BYTE   Gs4
 BYTE   W06
 BYTE   Cs5
 BYTE   W06
 BYTE   Gs4
 BYTE   W06
 BYTE   Cs4
 BYTE   W06
 BYTE   Gs4
 BYTE   W06
 BYTE   Cs5
 BYTE   W06
 BYTE   Gs4
 BYTE   W06
 BYTE   Cs4
 BYTE   W06
 BYTE   Gs4
 BYTE   W06
 BYTE   Cs5
 BYTE   W06
//  #04 //025   ----------------------------------------
 BYTE   Gs4
 BYTE   W06
 BYTE   Cs4
 BYTE   W06
 BYTE   Fs4
 BYTE   W06
 BYTE   Cs5
 BYTE   W06
 BYTE   Fs4
 BYTE   W06
 BYTE   Cs4
 BYTE   W06
 BYTE   Fs4
 BYTE   W06
 BYTE   Cs5
 BYTE   W06
 BYTE   Fs4
 BYTE   W06
 BYTE   N03  Cs4  v068
 BYTE   W04
 BYTE   Fs4
 BYTE   W04
 BYTE   Gs4
 BYTE   W04
 BYTE   Cs5
 BYTE   W04
 BYTE   Fs5
 BYTE   W04
 BYTE   Gs5
 BYTE   W04
 BYTE   Cs6
 BYTE   W04
 BYTE   Gs5
 BYTE   W04
 BYTE   Fs5
 BYTE   W04
 BYTE   Cs5
 BYTE   W04
 BYTE   Gs4
 BYTE   W02
//  #04 //026   ----------------------------------------
 BYTE   W02
 BYTE   Fs4
 BYTE   W92
 BYTE   W02
//  #04 //027   ----------------------------------------
 BYTE   W96
//  #04 //028   ----------------------------------------
 BYTE   W96
//  #04 //029   ----------------------------------------
 BYTE   W96
//  #04 //030   ----------------------------------------
 BYTE   W96
//  #04 //031   ----------------------------------------
 BYTE   W96
//  #04 //032   ----------------------------------------
 BYTE   W96
//  #04 //033   ----------------------------------------
 BYTE   W54
 BYTE   N05  An4  v056
 BYTE   W06
 BYTE   En4
 BYTE   W06
 BYTE   An3
 BYTE   W06
 BYTE   En4
 BYTE   W06
 BYTE   An4
 BYTE   W06
 BYTE   En4
 BYTE   W06
 BYTE   An3
 BYTE   W06
//  #04 //034   ----------------------------------------
 BYTE   En4
 BYTE   W06
 BYTE   An4
 BYTE   W06
 BYTE   En4
 BYTE   W06
 BYTE   An3
 BYTE   W06
 BYTE   En4
 BYTE   W06
 BYTE   An4
 BYTE   W06
 BYTE   En4
 BYTE   W06
 BYTE   An3
 BYTE   W06
 BYTE   En4
 BYTE   W06
 BYTE   An4
 BYTE   W06
 BYTE   En4
 BYTE   W06
 BYTE   An3
 BYTE   W06
 BYTE   En4
 BYTE   W06
 BYTE   An4
 BYTE   W06
 BYTE   En4
 BYTE   W06
 BYTE   An3
 BYTE   W06
//  #04 //035   ----------------------------------------
 BYTE   En4
 BYTE   W11
 BYTE   GoTo
  POIN2 Label_019B4476
 BYTE   FINE

//**************** Track 5 (Midi-Chn.4) ****************//

History2_005:
//  #05 //000   ----------------------------------------
 BYTE   KEYSH   History2_key+0
Label_019B3E0A:
 BYTE   VOICE   62
 BYTE   PAN   c_v-26
 BYTE   VOL   30*History2_mvl/mxv
 BYTE   BEND   c_v+0
 BYTE   W22
 BYTE   W08
 BYTE   N05  Gs2  v116
 BYTE   W06
 BYTE   Ds3
 BYTE   W02
 BYTE   W04
 BYTE   Fn3
 BYTE   W06
 BYTE   Gs3
 BYTE   W06
 BYTE   N23  Gn3
 BYTE   W04
 BYTE   W04
 BYTE   W04
 BYTE   W04
 BYTE   W04
 BYTE   W04
 BYTE   N09  Gn3  v060
 BYTE   W12
 BYTE   N05  Ds3  v116
 BYTE   W06
//  #05 //001   ----------------------------------------
 BYTE   Fn3
 BYTE   W06
 BYTE   N17  Fs3
 BYTE   W04
 BYTE   W04
 BYTE   W04
 BYTE   W04
 BYTE   W02
 BYTE   N05  Gs3
 BYTE   W02
 BYTE   W04
 BYTE   Fn3
 BYTE   W06
 BYTE   Fn3  v060
 BYTE   W06
 BYTE   Cs3  v116
 BYTE   W06
 BYTE   Ds3
 BYTE   W06
 BYTE   N17  En3
 BYTE   W04
 BYTE   W04
 BYTE   W04
 BYTE   W04
 BYTE   W02
 BYTE   N05  Fs3
 BYTE   W02
 BYTE   W04
 BYTE   Ds3
 BYTE   W06
 BYTE   Ds3  v060
 BYTE   W06
 BYTE   N11  Gs2  v116
 BYTE   W06
//  #05 //002   ----------------------------------------
 BYTE   W06
 BYTE   N05  Ds3
 BYTE   W06
 BYTE   Cs3
 BYTE   W06
 BYTE   N16  Bn2
 BYTE   W18
 BYTE   N05  Bn2  v060
 BYTE   W06
 BYTE   Gs2  v116
 BYTE   W06
 BYTE   As2
 BYTE   W06
 BYTE   N11  Bn2
 BYTE   W04
 BYTE   W04
 BYTE   W04
 BYTE   Cs3
 BYTE   W04
 BYTE   W04
 BYTE   W04
 BYTE   As2
 BYTE   W04
 BYTE   W04
 BYTE   W04
 BYTE   Fs2
 BYTE   W04
 BYTE   W02
//  #05 //003   ----------------------------------------
 BYTE   W02
 BYTE   W04
 BYTE   N23  Gs2
 BYTE   W04
 BYTE   W04
 BYTE   W04
 BYTE   W04
 BYTE   W04
 BYTE   W04
 BYTE   Ds3
 BYTE   W04
 BYTE   W04
 BYTE   W04
 BYTE   W04
 BYTE   W04
 BYTE   W04
 BYTE   Cs3
 BYTE   W04
 BYTE   W04
 BYTE   W04
 BYTE   W04
 BYTE   W04
 BYTE   W04
 BYTE   N11  Bn2
 BYTE   W04
 BYTE   W04
 BYTE   W04
 BYTE   As2
 BYTE   W04
 BYTE   W02
//  #05 //004   ----------------------------------------
 BYTE   W02
 BYTE   W04
 BYTE   W04
 BYTE   W04
 BYTE   W04
 BYTE   W04
 BYTE   W04
 BYTE   W04
 BYTE   N05  Gs2
 BYTE   W06
 BYTE   Ds3
 BYTE   W06
 BYTE   Fn3
 BYTE   W06
 BYTE   Gs3
 BYTE   W06
 BYTE   N23  Gn3
 BYTE   W04
 BYTE   W04
 BYTE   W04
 BYTE   W04
 BYTE   W04
 BYTE   W04
 BYTE   N09  Gn3  v060
 BYTE   W12
 BYTE   N05  Ds3  v116
 BYTE   W06
//  #05 //005   ----------------------------------------
 BYTE   Fn3
 BYTE   W06
 BYTE   N17  Fs3
 BYTE   W04
 BYTE   W04
 BYTE   W04
 BYTE   W04
 BYTE   W02
 BYTE   N05  Gs3
 BYTE   W06
 BYTE   Fn3
 BYTE   W06
 BYTE   Fn3  v060
 BYTE   W06
 BYTE   Cs3  v116
 BYTE   W06
 BYTE   Ds3
 BYTE   W06
 BYTE   N17  En3
 BYTE   W04
 BYTE   W04
 BYTE   W04
 BYTE   W04
 BYTE   W02
 BYTE   N05  Fs3
 BYTE   W02
 BYTE   W04
 BYTE   Ds3
 BYTE   W06
 BYTE   Ds3  v060
 BYTE   W06
 BYTE   N11  Gs2  v116
 BYTE   W06
//  #05 //006   ----------------------------------------
 BYTE   W06
 BYTE   N17  Bn2
 BYTE   W24
 BYTE   N05  Gs2
 BYTE   W06
 BYTE   As2
 BYTE   W06
 BYTE   Bn2
 BYTE   W06
 BYTE   Cs3
 BYTE   W06
 BYTE   N11  As2
 BYTE   W12
 BYTE   Ds3
 BYTE   W12
 BYTE   Fs3
 BYTE   W12
 BYTE   TIE  Gs3
 BYTE   W06
//  #05 //007   ----------------------------------------
 BYTE   W10
 BYTE   W04
 BYTE   W04
 BYTE   W04
 BYTE   W04
 BYTE   W04
 BYTE   W04
 BYTE   W04
 BYTE   W04
 BYTE   W04
 BYTE   W04
 BYTE   W04
 BYTE   W04
 BYTE   W04
 BYTE   W04
 BYTE   W04
 BYTE   W04
 BYTE   W04
 BYTE   W04
 BYTE   W04
 BYTE   W04
 BYTE   W04
 BYTE   W02
//  #05 //008   ----------------------------------------
 BYTE   W02
 BYTE   W04
 BYTE   W04
 BYTE   W04
 BYTE   W04
 BYTE   W04
 BYTE   W04
 BYTE   W04
 BYTE   W04
 BYTE   EOT
 BYTE   W02
 BYTE   N05  Gs2
 BYTE   W06
 BYTE   Ds3
 BYTE   W02
 BYTE   W04
 BYTE   Fn3
 BYTE   W06
 BYTE   Gs3
 BYTE   W06
 BYTE   N23  Gn3
 BYTE   W04
 BYTE   W04
 BYTE   W04
 BYTE   W04
 BYTE   W04
 BYTE   W04
 BYTE   N09  Gn3  v060
 BYTE   W12
//  #05 //009   ----------------------------------------
 BYTE   N05  Ds3  v116
 BYTE   W06
 BYTE   Fn3
 BYTE   W06
 BYTE   N17  Fs3
 BYTE   W04
 BYTE   W04
 BYTE   W04
 BYTE   W04
 BYTE   W02
 BYTE   N05  Gs3
 BYTE   W02
 BYTE   W04
 BYTE   Fn3
 BYTE   W06
 BYTE   Fn3  v060
 BYTE   W06
 BYTE   Cs3  v116
 BYTE   W06
 BYTE   Ds3
 BYTE   W06
 BYTE   N17  En3
 BYTE   W04
 BYTE   W04
 BYTE   W04
 BYTE   W04
 BYTE   W02
 BYTE   N05  Fs3
 BYTE   W02
 BYTE   W04
 BYTE   Ds3
 BYTE   W06
 BYTE   Ds3  v060
 BYTE   W06
//  #05 //010   ----------------------------------------
 BYTE   N11  Gs2  v116
 BYTE   W12
 BYTE   N05  Ds3
 BYTE   W06
 BYTE   Cs3
 BYTE   W06
 BYTE   N16  Bn2
 BYTE   W18
 BYTE   N05  Bn2  v060
 BYTE   W06
 BYTE   Gs2  v116
 BYTE   W06
 BYTE   As2
 BYTE   W06
 BYTE   N11  Bn2
 BYTE   W04
 BYTE   W04
 BYTE   W04
 BYTE   Cs3
 BYTE   W04
 BYTE   W04
 BYTE   W04
 BYTE   As2
 BYTE   W04
 BYTE   W04
 BYTE   W04
//  #05 //011   ----------------------------------------
 BYTE   Fs2
 BYTE   W04
 BYTE   W04
 BYTE   W04
 BYTE   N23  Gs2
 BYTE   W04
 BYTE   W04
 BYTE   W04
 BYTE   W04
 BYTE   W04
 BYTE   W04
 BYTE   Ds3
 BYTE   W04
 BYTE   W04
 BYTE   W04
 BYTE   W04
 BYTE   W04
 BYTE   W04
 BYTE   Cs3
 BYTE   W04
 BYTE   W04
 BYTE   W04
 BYTE   W04
 BYTE   W04
 BYTE   W04
 BYTE   N11  Bn2
 BYTE   W04
 BYTE   W04
 BYTE   W04
//  #05 //012   ----------------------------------------
 BYTE   As2
 BYTE   W04
 BYTE   W04
 BYTE   W04
 BYTE   W04
 BYTE   W04
 BYTE   W04
 BYTE   W04
 BYTE   W04
 BYTE   W04
 BYTE   N05  Gs2
 BYTE   W06
 BYTE   Ds3
 BYTE   W06
 BYTE   Fn3
 BYTE   W06
 BYTE   Gs3
 BYTE   W06
 BYTE   N23  Gn3
 BYTE   W04
 BYTE   W04
 BYTE   W04
 BYTE   W04
 BYTE   W04
 BYTE   W04
 BYTE   N09  Gn3  v060
 BYTE   W12
//  #05 //013   ----------------------------------------
 BYTE   N05  Ds3  v116
 BYTE   W06
 BYTE   Fn3
 BYTE   W06
 BYTE   N17  Fs3
 BYTE   W04
 BYTE   W04
 BYTE   W04
 BYTE   W04
 BYTE   W02
 BYTE   N05  Gs3
 BYTE   W06
 BYTE   Fn3
 BYTE   W06
 BYTE   Fn3  v060
 BYTE   W06
 BYTE   Cs3  v116
 BYTE   W06
 BYTE   Ds3
 BYTE   W06
 BYTE   N17  En3
 BYTE   W04
 BYTE   W04
 BYTE   W04
 BYTE   W04
 BYTE   W02
 BYTE   N05  Fs3
 BYTE   W02
 BYTE   W04
 BYTE   Ds3
 BYTE   W06
 BYTE   Ds3  v060
 BYTE   W06
//  #05 //014   ----------------------------------------
 BYTE   N11  Gs2  v116
 BYTE   W12
 BYTE   N17  Bn2
 BYTE   W24
 BYTE   N05  Gs2
 BYTE   W06
 BYTE   As2
 BYTE   W06
 BYTE   Bn2
 BYTE   W06
 BYTE   Cs3
 BYTE   W06
 BYTE   N11  As2
 BYTE   W12
 BYTE   Ds3
 BYTE   W12
 BYTE   Fs3
 BYTE   W12
//  #05 //015   ----------------------------------------
 BYTE   TIE  Gs3
 BYTE   W16
 BYTE   W04
 BYTE   W04
 BYTE   W04
 BYTE   W04
 BYTE   W04
 BYTE   W04
 BYTE   W04
 BYTE   W04
 BYTE   W04
 BYTE   W04
 BYTE   W04
 BYTE   W04
 BYTE   W04
 BYTE   W04
 BYTE   W04
 BYTE   W04
 BYTE   W04
 BYTE   W04
 BYTE   W04
 BYTE   W04
//  #05 //016   ----------------------------------------
 BYTE   W04
 BYTE   W04
 BYTE   W04
 BYTE   W04
 BYTE   W04
 BYTE   W04
 BYTE   W04
 BYTE   W04
 BYTE   W04
 BYTE   W04
 BYTE   W04
 BYTE   W03
 BYTE   EOT
 BYTE   W48
 BYTE   W01
//  #05 //017   ----------------------------------------
 BYTE   W96
//  #05 //018   ----------------------------------------
 BYTE   W96
//  #05 //019   ----------------------------------------
 BYTE   W96
//  #05 //020   ----------------------------------------
 BYTE   W96
//  #05 //021   ----------------------------------------
 BYTE   W96
//  #05 //022   ----------------------------------------
 BYTE   W96
//  #05 //023   ----------------------------------------
 BYTE   W96
//  #05 //024   ----------------------------------------
 BYTE   W96
//  #05 //025   ----------------------------------------
 BYTE   W96
//  #05 //026   ----------------------------------------
 BYTE   W08
 BYTE   W04
 BYTE   N17  Ds3
 BYTE   W04
 BYTE   W04
 BYTE   W10
 BYTE   N05  En3
 BYTE   W06
 BYTE   N11  Ds3
 BYTE   W12
 BYTE   Cs3
 BYTE   W12
 BYTE   Cs3  v036
 BYTE   W12
 BYTE   Fs2  v116
 BYTE   W12
 BYTE   N17  Cs3
 BYTE   W12
//  #05 //027   ----------------------------------------
 BYTE   W06
 BYTE   N05  Dn3
 BYTE   W06
 BYTE   N11  Cs3
 BYTE   W12
 BYTE   N44  Bn2
 BYTE   W08
 BYTE   W04
 BYTE   W04
 BYTE   W04
 BYTE   W04
 BYTE   W04
 BYTE   W04
 BYTE   W04
 BYTE   W04
 BYTE   W04
 BYTE   W04
 BYTE   W04
 BYTE   W04
 BYTE   W04
 BYTE   N11
 BYTE   W12
//  #05 //028   ----------------------------------------
 BYTE   Cs3
 BYTE   W12
 BYTE   N17  Ds3
 BYTE   W18
 BYTE   N05  En3
 BYTE   W06
 BYTE   N11  Ds3
 BYTE   W12
 BYTE   Cs3
 BYTE   W12
 BYTE   Cs3  v036
 BYTE   W12
 BYTE   Fs2  v116
 BYTE   W12
 BYTE   N23  Fs3
 BYTE   W04
 BYTE   W04
 BYTE   W04
//  #05 //029   ----------------------------------------
 BYTE   W04
 BYTE   W04
 BYTE   W04
 BYTE   N05  En3
 BYTE   W06
 BYTE   Ds3
 BYTE   W06
 BYTE   N48  Bn2
 BYTE   W04
 BYTE   W04
 BYTE   W04
 BYTE   W04
 BYTE   W04
 BYTE   W04
 BYTE   W04
 BYTE   W04
 BYTE   W04
 BYTE   W04
 BYTE   W04
 BYTE   W04
 BYTE   W04
 BYTE   W04
 BYTE   W04
 BYTE   N11  Cs3
 BYTE   W12
//  #05 //030   ----------------------------------------
 BYTE   Ds3
 BYTE   W12
 BYTE   N17  Fn3
 BYTE   W18
 BYTE   N05  Fs3
 BYTE   W06
 BYTE   N11  Fn3
 BYTE   W12
 BYTE   Ds3
 BYTE   W12
 BYTE   Ds3  v036
 BYTE   W12
 BYTE   Gs2  v116
 BYTE   W12
 BYTE   N17  Ds3
 BYTE   W12
//  #05 //031   ----------------------------------------
 BYTE   W06
 BYTE   N05  En3
 BYTE   W06
 BYTE   N11  Ds3
 BYTE   W12
 BYTE   N44  Cs3
 BYTE   W04
 BYTE   W04
 BYTE   W04
 BYTE   W04
 BYTE   W04
 BYTE   W04
 BYTE   W04
 BYTE   W04
 BYTE   W04
 BYTE   W04
 BYTE   W04
 BYTE   W04
 BYTE   W04
 BYTE   W04
 BYTE   W04
 BYTE   N11
 BYTE   W12
//  #05 //032   ----------------------------------------
 BYTE   Ds3
 BYTE   W12
 BYTE   N17  Fn3
 BYTE   W18
 BYTE   N05  Fs3
 BYTE   W06
 BYTE   N11  Fn3
 BYTE   W12
 BYTE   Ds3
 BYTE   W12
 BYTE   Ds3  v036
 BYTE   W12
 BYTE   Gs2  v116
 BYTE   W12
 BYTE   N23  Gs3
 BYTE   W12
//  #05 //033   ----------------------------------------
 BYTE   W12
 BYTE   N05  Fs3
 BYTE   W06
 BYTE   Fn3
 BYTE   W06
 BYTE   TIE  Cs3
 BYTE   W08
 BYTE   W04
 BYTE   W04
 BYTE   W04
 BYTE   W04
 BYTE   W04
 BYTE   W04
 BYTE   W04
 BYTE   W04
 BYTE   W04
 BYTE   W04
 BYTE   W04
 BYTE   W04
 BYTE   W04
 BYTE   W04
 BYTE   W04
 BYTE   W04
//  #05 //034   ----------------------------------------
 BYTE   W04
 BYTE   W04
 BYTE   W04
 BYTE   W04
 BYTE   W04
 BYTE   W04
 BYTE   W04
 BYTE   W04
 BYTE   W04
 BYTE   W04
 BYTE   W04
 BYTE   W04
 BYTE   W04
 BYTE   W04
 BYTE   W04
 BYTE   W04
 BYTE   W04
 BYTE   W04
 BYTE   W04
 BYTE   W04
 BYTE   W04
 BYTE   W04
 BYTE   W04
 BYTE   W04
//  #05 //035   ----------------------------------------
 BYTE   W04
 BYTE   W04
 BYTE   W03
 BYTE   EOT
 BYTE   GoTo
  POIN2 Label_019B3E0A
 BYTE   FINE

//**************** Track 6 (Midi-Chn.5) ****************//

History2_006:
//  #06 //000   ----------------------------------------
 BYTE   KEYSH   History2_key+0
Label_019B474E:
 BYTE   VOICE   33
 BYTE   PAN   c_v+21
 BYTE   VOL   35*History2_mvl/mxv
 BYTE   BEND   c_v+0
 BYTE   W06
 BYTE   N44  As2  v084
 BYTE   W04
 BYTE   W04
 BYTE   W04
 BYTE   W04
 BYTE   W04
 BYTE   W04
 BYTE   W04
 BYTE   W04
 BYTE   W04
 BYTE   W04
 BYTE   W04
 BYTE   W04
 BYTE   N44
 BYTE   W04
 BYTE   W04
 BYTE   W04
 BYTE   W04
 BYTE   W04
 BYTE   W04
 BYTE   W04
 BYTE   W04
 BYTE   W04
 BYTE   W04
 BYTE   W02
//  #06 //001   ----------------------------------------
 BYTE   W02
 BYTE   W04
 BYTE   N23
 BYTE   W04
 BYTE   W04
 BYTE   W04
 BYTE   W04
 BYTE   W04
 BYTE   W04
 BYTE   Cs3
 BYTE   W04
 BYTE   W04
 BYTE   W04
 BYTE   W04
 BYTE   W04
 BYTE   W04
 BYTE   Bn2
 BYTE   W04
 BYTE   W04
 BYTE   W04
 BYTE   W04
 BYTE   W04
 BYTE   W04
 BYTE   N23
 BYTE   W04
 BYTE   W04
 BYTE   W04
 BYTE   W04
 BYTE   W02
//  #06 //002   ----------------------------------------
 BYTE   W02
 BYTE   W04
 BYTE   Gs2
 BYTE   W04
 BYTE   W04
 BYTE   W04
 BYTE   W04
 BYTE   W04
 BYTE   W04
 BYTE   N44  Bn2
 BYTE   W04
 BYTE   W04
 BYTE   W04
 BYTE   W04
 BYTE   W04
 BYTE   W08
 BYTE   W04
 BYTE   W04
 BYTE   W04
 BYTE   W04
 BYTE   W04
 BYTE   N23  As2
 BYTE   W04
 BYTE   W04
 BYTE   W04
 BYTE   W04
 BYTE   W02
//  #06 //003   ----------------------------------------
 BYTE   W02
 BYTE   W04
 BYTE   Gs2
 BYTE   W04
 BYTE   W04
 BYTE   W04
 BYTE   W04
 BYTE   W08
 BYTE   N08  En2
 BYTE   W08
 BYTE   Gs2
 BYTE   W08
 BYTE   Bn2
 BYTE   W08
 BYTE   N23  Cs3
 BYTE   W04
 BYTE   W04
 BYTE   W04
 BYTE   W04
 BYTE   W04
 BYTE   W04
 BYTE   N11  Bn2
 BYTE   W04
 BYTE   W04
 BYTE   W04
 BYTE   As2
 BYTE   W04
 BYTE   W02
//  #06 //004   ----------------------------------------
 BYTE   W02
 BYTE   W04
 BYTE   N44
 BYTE   W04
 BYTE   W04
 BYTE   W04
 BYTE   W04
 BYTE   W04
 BYTE   W04
 BYTE   W04
 BYTE   W04
 BYTE   W04
 BYTE   W04
 BYTE   W04
 BYTE   W04
 BYTE   N44
 BYTE   W04
 BYTE   W04
 BYTE   W04
 BYTE   W04
 BYTE   W04
 BYTE   W04
 BYTE   W04
 BYTE   W04
 BYTE   W04
 BYTE   W04
 BYTE   W02
//  #06 //005   ----------------------------------------
 BYTE   W02
 BYTE   W04
 BYTE   N23
 BYTE   W04
 BYTE   W04
 BYTE   W04
 BYTE   W04
 BYTE   W04
 BYTE   W04
 BYTE   Cs3
 BYTE   W12
 BYTE   W04
 BYTE   W08
 BYTE   Bn2
 BYTE   W04
 BYTE   W04
 BYTE   W04
 BYTE   W04
 BYTE   W04
 BYTE   W04
 BYTE   N23
 BYTE   W04
 BYTE   W04
 BYTE   W04
 BYTE   W04
 BYTE   W02
//  #06 //006   ----------------------------------------
 BYTE   W02
 BYTE   W04
 BYTE   Gs2
 BYTE   W04
 BYTE   W04
 BYTE   W04
 BYTE   W04
 BYTE   W04
 BYTE   W04
 BYTE   N24  Bn2
 BYTE   W04
 BYTE   W04
 BYTE   W04
 BYTE   W04
 BYTE   W04
 BYTE   W04
 BYTE   N32  As2
 BYTE   W04
 BYTE   W04
 BYTE   W04
 BYTE   W04
 BYTE   W04
 BYTE   W04
 BYTE   W04
 BYTE   W04
 BYTE   W04
 BYTE   N40  Gs2
 BYTE   W04
 BYTE   W02
//  #06 //007   ----------------------------------------
 BYTE   W02
 BYTE   W04
 BYTE   W04
 BYTE   W04
 BYTE   W04
 BYTE   W04
 BYTE   W04
 BYTE   W04
 BYTE   W08
 BYTE   N07
 BYTE   W08
 BYTE   Bn2
 BYTE   W08
 BYTE   N11  Cs3
 BYTE   W12
 BYTE   Fn2
 BYTE   W12
 BYTE   Gs2
 BYTE   W12
 BYTE   Cs3
 BYTE   W06
//  #06 //008   ----------------------------------------
 BYTE   W06
 BYTE   N08  Ds3  v100
 BYTE   W48
 BYTE   N08
 BYTE   W12
 BYTE   N08
 BYTE   W12
 BYTE   W04
 BYTE   W04
 BYTE   W04
 BYTE   W04
 BYTE   W02
//  #06 //009   ----------------------------------------
 BYTE   W02
 BYTE   W04
 BYTE   N23  Ds3  v084
 BYTE   W04
 BYTE   W04
 BYTE   W04
 BYTE   W04
 BYTE   W04
 BYTE   W04
 BYTE   Fn3
 BYTE   W04
 BYTE   W04
 BYTE   W04
 BYTE   W04
 BYTE   W04
 BYTE   W04
 BYTE   En3
 BYTE   W04
 BYTE   W04
 BYTE   W04
 BYTE   W04
 BYTE   W04
 BYTE   W04
 BYTE   Ds3
 BYTE   W04
 BYTE   W04
 BYTE   W04
 BYTE   W04
 BYTE   W02
//  #06 //010   ----------------------------------------
 BYTE   W02
 BYTE   W04
 BYTE   Bn2
 BYTE   W04
 BYTE   W04
 BYTE   W04
 BYTE   W04
 BYTE   W04
 BYTE   W04
 BYTE   Ds3
 BYTE   W04
 BYTE   W04
 BYTE   W04
 BYTE   W04
 BYTE   W04
 BYTE   W04
 BYTE   N44  Cs3
 BYTE   W04
 BYTE   W04
 BYTE   W04
 BYTE   W04
 BYTE   W04
 BYTE   W04
 BYTE   W04
 BYTE   W04
 BYTE   W04
 BYTE   W04
 BYTE   W02
//  #06 //011   ----------------------------------------
 BYTE   W02
 BYTE   W04
 BYTE   N24  Bn2
 BYTE   W04
 BYTE   W04
 BYTE   W04
 BYTE   W12
 BYTE   N08  En2
 BYTE   W08
 BYTE   Gs2
 BYTE   W08
 BYTE   Bn2
 BYTE   W08
 BYTE   N44  Ds3  v076
 BYTE   W04
 BYTE   W04
 BYTE   W04
 BYTE   W04
 BYTE   W04
 BYTE   W04
 BYTE   W04
 BYTE   W04
 BYTE   W04
 BYTE   W04
 BYTE   W02
//  #06 //012   ----------------------------------------
 BYTE   W02
 BYTE   W04
 BYTE   Ds3  v084
 BYTE   W04
 BYTE   W04
 BYTE   W04
 BYTE   W04
 BYTE   W04
 BYTE   W04
 BYTE   W04
 BYTE   W04
 BYTE   W04
 BYTE   W04
 BYTE   W04
 BYTE   W04
 BYTE   N44
 BYTE   W04
 BYTE   W04
 BYTE   W04
 BYTE   W04
 BYTE   W04
 BYTE   W04
 BYTE   W04
 BYTE   W04
 BYTE   W04
 BYTE   W04
 BYTE   W02
//  #06 //013   ----------------------------------------
 BYTE   W02
 BYTE   W04
 BYTE   N23  Fs3
 BYTE   W24
 BYTE   N07  Fn3  v100
 BYTE   W24
 BYTE   N23  En3  v084
 BYTE   W24
 BYTE   N07  Ds3  v100
 BYTE   W18
//  #06 //014   ----------------------------------------
 BYTE   W18
 BYTE   N08
 BYTE   W36
 BYTE   N23  Cs3  v084
 BYTE   W36
 BYTE   N36
 BYTE   W06
//  #06 //015   ----------------------------------------
 BYTE   W30
 BYTE   N23  Ds3
 BYTE   W08
 BYTE   W04
 BYTE   W04
 BYTE   W04
 BYTE   W04
 BYTE   N44
 BYTE   W04
 BYTE   W04
 BYTE   W04
 BYTE   W04
 BYTE   W04
 BYTE   W04
 BYTE   W04
 BYTE   W04
 BYTE   W04
 BYTE   W04
 BYTE   W02
//  #06 //016   ----------------------------------------
 BYTE   W02
 BYTE   W04
 BYTE   Cs3
 BYTE   W04
 BYTE   W04
 BYTE   W04
 BYTE   W04
 BYTE   W04
 BYTE   W04
 BYTE   W04
 BYTE   W04
 BYTE   W04
 BYTE   W04
 BYTE   W08
 BYTE   Ds3
 BYTE   W08
 BYTE   W08
 BYTE   W04
 BYTE   W04
 BYTE   W04
 BYTE   W04
 BYTE   W04
 BYTE   W04
 BYTE   W02
//  #06 //017   ----------------------------------------
 BYTE   W02
 BYTE   W04
 BYTE   N48  Cs3
 BYTE   W04
 BYTE   W04
 BYTE   W04
 BYTE   W04
 BYTE   W04
 BYTE   W04
 BYTE   W04
 BYTE   W04
 BYTE   W04
 BYTE   W04
 BYTE   W04
 BYTE   W04
 BYTE   N44  En3
 BYTE   W04
 BYTE   W04
 BYTE   W04
 BYTE   W04
 BYTE   W04
 BYTE   W04
 BYTE   W04
 BYTE   W14
//  #06 //018   ----------------------------------------
 BYTE   W06
 BYTE   N23  An3
 BYTE   W20
 BYTE   W04
 BYTE   Bn3
 BYTE   W08
 BYTE   W04
 BYTE   W04
 BYTE   W04
 BYTE   W04
 BYTE   N44  Gs3
 BYTE   W04
 BYTE   W04
 BYTE   W04
 BYTE   W04
 BYTE   W04
 BYTE   W04
 BYTE   W04
 BYTE   W04
 BYTE   W04
 BYTE   W04
 BYTE   W02
//  #06 //019   ----------------------------------------
 BYTE   W02
 BYTE   W04
 BYTE   N48  Fs3
 BYTE   W04
 BYTE   W04
 BYTE   W04
 BYTE   W04
 BYTE   W04
 BYTE   W04
 BYTE   W04
 BYTE   W04
 BYTE   W04
 BYTE   W04
 BYTE   W04
 BYTE   W04
 BYTE   N24  Gs3
 BYTE   W04
 BYTE   W04
 BYTE   W04
 BYTE   W04
 BYTE   W04
 BYTE   W04
 BYTE   An3
 BYTE   W04
 BYTE   W04
 BYTE   W04
 BYTE   W04
 BYTE   W02
//  #06 //020   ----------------------------------------
 BYTE   W02
 BYTE   W04
 BYTE   N40
 BYTE   W04
 BYTE   W36
 BYTE   N08  Gn3
 BYTE   W08
 BYTE   N24
 BYTE   W24
 BYTE   Fs3
 BYTE   W18
//  #06 //021   ----------------------------------------
 BYTE   W06
 BYTE   N08  En3  v104
 BYTE   W04
 BYTE   W04
 BYTE   W04
 BYTE   W04
 BYTE   W04
 BYTE   W04
 BYTE   N24  En3  v100
 BYTE   W04
 BYTE   W04
 BYTE   W04
 BYTE   W04
 BYTE   W04
 BYTE   W04
 BYTE   Fs3
 BYTE   W04
 BYTE   W04
 BYTE   W04
 BYTE   W04
 BYTE   W04
 BYTE   W04
 BYTE   N15  An3
 BYTE   W08
 BYTE   W08
 BYTE   N07  Fs3
 BYTE   W02
//  #06 //022   ----------------------------------------
 BYTE   W06
 BYTE   TIE  Bn3  v084
 BYTE   W08
 BYTE   W04
 BYTE   W04
 BYTE   W04
 BYTE   W04
 BYTE   W04
 BYTE   W04
 BYTE   W04
 BYTE   W04
 BYTE   W04
 BYTE   W04
 BYTE   W04
 BYTE   W04
 BYTE   W04
 BYTE   W04
 BYTE   W04
 BYTE   W04
 BYTE   W04
 BYTE   W04
 BYTE   W04
 BYTE   W04
 BYTE   W02
//  #06 //023   ----------------------------------------
 BYTE   W02
 BYTE   W04
 BYTE   W04
 BYTE   W04
 BYTE   W04
 BYTE   W04
 BYTE   W04
 BYTE   W04
 BYTE   W04
 BYTE   W04
 BYTE   W04
 BYTE   W04
 BYTE   W04
 BYTE   W04
 BYTE   W04
 BYTE   W04
 BYTE   W04
 BYTE   W04
 BYTE   W04
 BYTE   W04
 BYTE   W04
 BYTE   W04
 BYTE   W04
 BYTE   W04
 BYTE   W02
//  #06 //024   ----------------------------------------
 BYTE   W02
 BYTE   W03
 BYTE   EOT
 BYTE   W01
 BYTE   N92  Gs3
 BYTE   W04
 BYTE   W04
 BYTE   W04
 BYTE   W04
 BYTE   W04
 BYTE   W04
 BYTE   W04
 BYTE   W04
 BYTE   W04
 BYTE   W04
 BYTE   W04
 BYTE   W04
 BYTE   W04
 BYTE   W04
 BYTE   W04
 BYTE   W04
 BYTE   W04
 BYTE   W04
 BYTE   W04
 BYTE   W04
 BYTE   W04
 BYTE   W04
 BYTE   W02
//  #06 //025   ----------------------------------------
 BYTE   W02
 BYTE   W04
 BYTE   As3
 BYTE   W04
 BYTE   W04
 BYTE   W04
 BYTE   W04
 BYTE   W04
 BYTE   W04
 BYTE   W04
 BYTE   W04
 BYTE   W04
 BYTE   W04
 BYTE   W04
 BYTE   W04
 BYTE   W04
 BYTE   W04
 BYTE   W04
 BYTE   W04
 BYTE   W04
 BYTE   W04
 BYTE   W04
 BYTE   W04
 BYTE   W04
 BYTE   W04
 BYTE   W02
//  #06 //026   ----------------------------------------
 BYTE   W02
 BYTE   W04
 BYTE   W04
 BYTE   W04
 BYTE   W04
 BYTE   N23  Ds3  v104
 BYTE   W04
 BYTE   W04
 BYTE   W04
 BYTE   W04
 BYTE   W04
 BYTE   W04
 BYTE   N11  Cs3
 BYTE   W04
 BYTE   W04
 BYTE   W04
 BYTE   W04
 BYTE   W04
 BYTE   W04
 BYTE   W04
 BYTE   W04
 BYTE   W08
 BYTE   W04
 BYTE   W04
 BYTE   N23  Bn2
 BYTE   W04
 BYTE   W02
//  #06 //027   ----------------------------------------
 BYTE   W02
 BYTE   W04
 BYTE   W04
 BYTE   W04
 BYTE   W04
 BYTE   N11  An2
 BYTE   W04
 BYTE   W04
 BYTE   W04
 BYTE   W04
 BYTE   W04
 BYTE   W04
 BYTE   W04
 BYTE   W04
 BYTE   W04
 BYTE   N23
 BYTE   W04
 BYTE   W04
 BYTE   W04
 BYTE   W04
 BYTE   W04
 BYTE   W04
 BYTE   Dn3
 BYTE   W04
 BYTE   W04
 BYTE   W04
 BYTE   W04
 BYTE   W02
//  #06 //028   ----------------------------------------
 BYTE   W02
 BYTE   W04
 BYTE   W04
 BYTE   W04
 BYTE   W04
 BYTE   Ds3
 BYTE   W04
 BYTE   W04
 BYTE   W04
 BYTE   W04
 BYTE   W04
 BYTE   W04
 BYTE   N11  Cs3
 BYTE   W08
 BYTE   W04
 BYTE   W08
 BYTE   W04
 BYTE   W04
 BYTE   W04
 BYTE   W04
 BYTE   W04
 BYTE   W04
 BYTE   W04
 BYTE   N23  Ds3
 BYTE   W04
 BYTE   W02
//  #06 //029   ----------------------------------------
 BYTE   W02
 BYTE   W04
 BYTE   W04
 BYTE   W04
 BYTE   W04
 BYTE   N56  Dn3
 BYTE   W04
 BYTE   W04
 BYTE   W04
 BYTE   W04
 BYTE   W04
 BYTE   W04
 BYTE   W04
 BYTE   W04
 BYTE   W04
 BYTE   W04
 BYTE   W04
 BYTE   W04
 BYTE   W04
 BYTE   W04
 BYTE   W04
 BYTE   N23  Cs3
 BYTE   W04
 BYTE   W04
 BYTE   W04
 BYTE   W04
 BYTE   W02
//  #06 //030   ----------------------------------------
 BYTE   W02
 BYTE   W04
 BYTE   W04
 BYTE   W04
 BYTE   W04
 BYTE   Fn3
 BYTE   W04
 BYTE   W04
 BYTE   W04
 BYTE   W04
 BYTE   W04
 BYTE   W04
 BYTE   N11  Ds3
 BYTE   W04
 BYTE   W04
 BYTE   W04
 BYTE   W04
 BYTE   W04
 BYTE   W04
 BYTE   W04
 BYTE   W04
 BYTE   W04
 BYTE   W04
 BYTE   W04
 BYTE   W04
 BYTE   N23  Cs3
 BYTE   W04
 BYTE   W02
//  #06 //031   ----------------------------------------
 BYTE   W02
 BYTE   W04
 BYTE   W04
 BYTE   W04
 BYTE   W04
 BYTE   N12  Bn2
 BYTE   W04
 BYTE   W04
 BYTE   W04
 BYTE   W04
 BYTE   W04
 BYTE   W04
 BYTE   W04
 BYTE   W04
 BYTE   W04
 BYTE   N23
 BYTE   W04
 BYTE   W04
 BYTE   W04
 BYTE   W04
 BYTE   W04
 BYTE   W04
 BYTE   En3
 BYTE   W04
 BYTE   W04
 BYTE   W04
 BYTE   W04
 BYTE   W02
//  #06 //032   ----------------------------------------
 BYTE   W02
 BYTE   W04
 BYTE   N32  Cs3  v112
 BYTE   W04
 BYTE   W04
 BYTE   W04
 BYTE   W04
 BYTE   W04
 BYTE   W04
 BYTE   W04
 BYTE   W04
 BYTE   W04
 BYTE   Bn2
 BYTE   W04
 BYTE   W04
 BYTE   W04
 BYTE   W04
 BYTE   W04
 BYTE   W04
 BYTE   W04
 BYTE   W04
 BYTE   W04
 BYTE   Fn3
 BYTE   W04
 BYTE   W04
 BYTE   W04
 BYTE   W04
 BYTE   W02
//  #06 //033   ----------------------------------------
 BYTE   W02
 BYTE   W04
 BYTE   W04
 BYTE   W04
 BYTE   W04
 BYTE   TIE  En3  v104
 BYTE   W04
 BYTE   W04
 BYTE   W04
 BYTE   W04
 BYTE   W04
 BYTE   W04
 BYTE   W04
 BYTE   W04
 BYTE   W04
 BYTE   W04
 BYTE   W04
 BYTE   W04
 BYTE   W04
 BYTE   W20
 BYTE   W06
//  #06 //034   ----------------------------------------
 BYTE   W06
 BYTE   W12
 BYTE   W08
 BYTE   W04
 BYTE   W04
 BYTE   W04
 BYTE   W04
 BYTE   W04
 BYTE   W04
 BYTE   W04
 BYTE   W04
 BYTE   W04
 BYTE   W04
 BYTE   W04
 BYTE   W04
 BYTE   W04
 BYTE   W04
 BYTE   W04
 BYTE   W04
 BYTE   W04
 BYTE   W02
//  #06 //035   ----------------------------------------
 BYTE   W02
 BYTE   W03
 BYTE   EOT
 BYTE   W06
 BYTE   GoTo
  POIN2 Label_019B474E
 BYTE   FINE

//**************** Track 7 (Midi-Chn.6) ****************//

History2_007:
//  #07 //000   ----------------------------------------
 BYTE   KEYSH   History2_key+0
Label_019B4AEE:
 BYTE   VOICE   48
 BYTE   PAN   c_v-14
 BYTE   VOL   32*History2_mvl/mxv
 BYTE   BEND   c_v+0
 BYTE   W06
 BYTE   N44  Ds2  v084
 BYTE   N44  Gs2
 BYTE   W04
 BYTE   W04
 BYTE   W04
 BYTE   W04
 BYTE   W04
 BYTE   W04
 BYTE   W04
 BYTE   W04
 BYTE   W04
 BYTE   W04
 BYTE   W04
 BYTE   W04
 BYTE   Ds2
 BYTE   N44  Gn2
 BYTE   W04
 BYTE   W04
 BYTE   W04
 BYTE   W04
 BYTE   W04
 BYTE   W04
 BYTE   W04
 BYTE   W04
 BYTE   W04
 BYTE   W04
 BYTE   W02
//  #07 //001   ----------------------------------------
 BYTE   W02
 BYTE   W04
 BYTE   N23  Ds2
 BYTE   N23  Fs2
 BYTE   W04
 BYTE   W04
 BYTE   W04
 BYTE   W04
 BYTE   W04
 BYTE   W04
 BYTE   Fn2
 BYTE   N23  Gs2
 BYTE   W04
 BYTE   W04
 BYTE   W04
 BYTE   W04
 BYTE   W04
 BYTE   W04
 BYTE   En2
 BYTE   N23  Gs2
 BYTE   W04
 BYTE   W04
 BYTE   W04
 BYTE   W04
 BYTE   W04
 BYTE   W04
 BYTE   Ds2
 BYTE   N23  Fs2
 BYTE   W04
 BYTE   W04
 BYTE   W04
 BYTE   W04
 BYTE   W02
//  #07 //002   ----------------------------------------
 BYTE   W02
 BYTE   W04
 BYTE   Bn1
 BYTE   N23  En2
 BYTE   W04
 BYTE   W04
 BYTE   W04
 BYTE   W04
 BYTE   W04
 BYTE   W04
 BYTE   Ds2
 BYTE   N23  Gs2
 BYTE   W04
 BYTE   W04
 BYTE   W04
 BYTE   W04
 BYTE   W04
 BYTE   W04
 BYTE   N44  Cs2
 BYTE   N44  Fs2
 BYTE   W04
 BYTE   W04
 BYTE   W04
 BYTE   W04
 BYTE   W04
 BYTE   W04
 BYTE   W04
 BYTE   W04
 BYTE   W04
 BYTE   W04
 BYTE   W02
//  #07 //003   ----------------------------------------
 BYTE   W02
 BYTE   W04
 BYTE   N24  Bn1
 BYTE   N23  En2
 BYTE   W04
 BYTE   W04
 BYTE   W04
 BYTE   W04
 BYTE   W08
 BYTE   N08  Gs1
 BYTE   N08  Bn1
 BYTE   W08
 BYTE   N08
 BYTE   N08  En2
 BYTE   W08
 BYTE   N08
 BYTE   N08  Gs2
 BYTE   W08
 BYTE   N44  Ds2
 BYTE   N44  Fs2
 BYTE   W04
 BYTE   W04
 BYTE   W04
 BYTE   W04
 BYTE   W04
 BYTE   W04
 BYTE   W04
 BYTE   W04
 BYTE   W04
 BYTE   W04
 BYTE   W02
//  #07 //004   ----------------------------------------
 BYTE   W02
 BYTE   W04
 BYTE   Ds2
 BYTE   N44  Gs2
 BYTE   W04
 BYTE   W04
 BYTE   W04
 BYTE   W04
 BYTE   W04
 BYTE   W04
 BYTE   W04
 BYTE   W04
 BYTE   W04
 BYTE   W04
 BYTE   W04
 BYTE   W04
 BYTE   Ds2
 BYTE   N44  Gn2
 BYTE   W04
 BYTE   W04
 BYTE   W04
 BYTE   W04
 BYTE   W04
 BYTE   W04
 BYTE   W04
 BYTE   W04
 BYTE   W04
 BYTE   W04
 BYTE   W02
//  #07 //005   ----------------------------------------
 BYTE   W02
 BYTE   W04
 BYTE   N23  Ds2
 BYTE   N23  Fs2
 BYTE   W04
 BYTE   W04
 BYTE   W04
 BYTE   W04
 BYTE   W04
 BYTE   W04
 BYTE   Fn2
 BYTE   N23  Gs2
 BYTE   W12
 BYTE   W04
 BYTE   W08
 BYTE   En2
 BYTE   N23  Gs2
 BYTE   W04
 BYTE   W04
 BYTE   W04
 BYTE   W04
 BYTE   W04
 BYTE   W04
 BYTE   Ds2
 BYTE   N23  Fs2
 BYTE   W04
 BYTE   W04
 BYTE   W04
 BYTE   W04
 BYTE   W02
//  #07 //006   ----------------------------------------
 BYTE   W02
 BYTE   W04
 BYTE   Bn1
 BYTE   N23  En2
 BYTE   W04
 BYTE   W04
 BYTE   W04
 BYTE   W04
 BYTE   W04
 BYTE   W04
 BYTE   Ds2
 BYTE   N23  Gs2
 BYTE   W04
 BYTE   W04
 BYTE   W04
 BYTE   W04
 BYTE   W04
 BYTE   W04
 BYTE   N32  Cs2
 BYTE   N32  Fs2
 BYTE   W04
 BYTE   W04
 BYTE   W04
 BYTE   W04
 BYTE   W04
 BYTE   W04
 BYTE   W04
 BYTE   W04
 BYTE   W04
 BYTE   N40  Bn1
 BYTE   N23  Fs2
 BYTE   W04
 BYTE   W02
//  #07 //007   ----------------------------------------
 BYTE   W02
 BYTE   W04
 BYTE   W04
 BYTE   W04
 BYTE   W04
 BYTE   N17  En2
 BYTE   W04
 BYTE   W04
 BYTE   W04
 BYTE   W08
 BYTE   N14  Bn1
 BYTE   N14  En2
 BYTE   W16
 BYTE   N11  Gs1
 BYTE   N11  Fn2
 BYTE   W12
 BYTE   Gs1
 BYTE   N11  Cs2
 BYTE   W12
 BYTE   N11
 BYTE   N11  Fn2
 BYTE   W12
 BYTE   N11
 BYTE   N11  Gs2
 BYTE   W06
//  #07 //008   ----------------------------------------
 BYTE   W06
 BYTE   N08  Gs2  v100
 BYTE   N08  As2
 BYTE   W48
 BYTE   Gn2
 BYTE   N08  As2
 BYTE   W12
 BYTE   Gn2
 BYTE   N08  As2
 BYTE   W12
 BYTE   W04
 BYTE   W04
 BYTE   W04
 BYTE   W04
 BYTE   W02
//  #07 //009   ----------------------------------------
 BYTE   W02
 BYTE   W04
 BYTE   N23  Fs2  v084
 BYTE   N23  As2
 BYTE   W04
 BYTE   W04
 BYTE   W04
 BYTE   W04
 BYTE   W04
 BYTE   W04
 BYTE   Gs2
 BYTE   N23  Cs3
 BYTE   W04
 BYTE   W04
 BYTE   W04
 BYTE   W04
 BYTE   W04
 BYTE   W04
 BYTE   Gs2
 BYTE   N23  Bn2
 BYTE   W04
 BYTE   W04
 BYTE   W04
 BYTE   W04
 BYTE   W04
 BYTE   W04
 BYTE   Fs2
 BYTE   N23  Bn2
 BYTE   W04
 BYTE   W04
 BYTE   W04
 BYTE   W04
 BYTE   W02
//  #07 //010   ----------------------------------------
 BYTE   W02
 BYTE   W04
 BYTE   En2
 BYTE   N23  Gs2
 BYTE   W04
 BYTE   W04
 BYTE   W04
 BYTE   W04
 BYTE   W04
 BYTE   W04
 BYTE   N23
 BYTE   N44  Bn2
 BYTE   W04
 BYTE   W04
 BYTE   W04
 BYTE   W04
 BYTE   W04
 BYTE   W04
 BYTE   Fs2
 BYTE   W04
 BYTE   W04
 BYTE   W04
 BYTE   W04
 BYTE   W04
 BYTE   W04
 BYTE   N23  As2
 BYTE   W04
 BYTE   W04
 BYTE   W04
 BYTE   W04
 BYTE   W02
//  #07 //011   ----------------------------------------
 BYTE   W02
 BYTE   W04
 BYTE   En2
 BYTE   N23  Gs2
 BYTE   W04
 BYTE   W04
 BYTE   W04
 BYTE   W12
 BYTE   N08  Gs1
 BYTE   N08  Bn1
 BYTE   W08
 BYTE   N08
 BYTE   N08  En2
 BYTE   W08
 BYTE   N08
 BYTE   N08  Gs2
 BYTE   W08
 BYTE   N44  Fs2
 BYTE   N24  Cs3
 BYTE   W04
 BYTE   W04
 BYTE   W04
 BYTE   W04
 BYTE   W04
 BYTE   W04
 BYTE   N11  Bn2
 BYTE   W04
 BYTE   W04
 BYTE   W04
 BYTE   As2
 BYTE   W04
 BYTE   W02
//  #07 //012   ----------------------------------------
 BYTE   W02
 BYTE   W04
 BYTE   N44  Gs2
 BYTE   N44  As2
 BYTE   W04
 BYTE   W04
 BYTE   W04
 BYTE   W04
 BYTE   W04
 BYTE   W04
 BYTE   W04
 BYTE   W04
 BYTE   W04
 BYTE   W04
 BYTE   W04
 BYTE   W04
 BYTE   Gn2
 BYTE   N44  As2
 BYTE   W04
 BYTE   W04
 BYTE   W04
 BYTE   W04
 BYTE   W04
 BYTE   W04
 BYTE   W04
 BYTE   W04
 BYTE   W04
 BYTE   W04
 BYTE   W02
//  #07 //013   ----------------------------------------
 BYTE   W02
 BYTE   W04
 BYTE   N23  Ds2
 BYTE   N23  Bn2
 BYTE   W24
 BYTE   N07  Cs2  v100
 BYTE   N07  Gs2
 BYTE   W24
 BYTE   N23  Cs2  v084
 BYTE   N23  An2
 BYTE   W24
 BYTE   N07  Bn1  v100
 BYTE   N07  Fs2
 BYTE   W18
//  #07 //014   ----------------------------------------
 BYTE   W18
 BYTE   N08  Bn1
 BYTE   N08  Gs2
 BYTE   W36
 BYTE   N23  As1  v084
 BYTE   N23  Fs2
 BYTE   W36
 BYTE   N36  Ds2
 BYTE   N36  Gs2
 BYTE   W06
//  #07 //015   ----------------------------------------
 BYTE   W30
 BYTE   N23
 BYTE   N23  Cs3
 BYTE   W08
 BYTE   W04
 BYTE   W04
 BYTE   W04
 BYTE   W04
 BYTE   N44  Gs2
 BYTE   N44  Cn3
 BYTE   W04
 BYTE   W04
 BYTE   W04
 BYTE   W04
 BYTE   W04
 BYTE   W04
 BYTE   W04
 BYTE   W04
 BYTE   W04
 BYTE   W04
 BYTE   W02
//  #07 //016   ----------------------------------------
 BYTE   W02
 BYTE   W04
 BYTE   En2
 BYTE   N44  Gs2
 BYTE   W04
 BYTE   W04
 BYTE   W04
 BYTE   W04
 BYTE   W04
 BYTE   W04
 BYTE   W04
 BYTE   W04
 BYTE   W04
 BYTE   W04
 BYTE   W08
 BYTE   N48  Fs2
 BYTE   N72  Bn2
 BYTE   W08
 BYTE   W08
 BYTE   W04
 BYTE   W04
 BYTE   W04
 BYTE   W04
 BYTE   W04
 BYTE   W04
 BYTE   W02
//  #07 //017   ----------------------------------------
 BYTE   W02
 BYTE   W04
 BYTE   N60  En2
 BYTE   W04
 BYTE   W04
 BYTE   W04
 BYTE   W04
 BYTE   W04
 BYTE   W04
 BYTE   N36  An2
 BYTE   W04
 BYTE   W04
 BYTE   W04
 BYTE   W04
 BYTE   W04
 BYTE   W04
 BYTE   W04
 BYTE   W04
 BYTE   W04
 BYTE   N23  Gs2
 BYTE   N23  Bn2
 BYTE   W04
 BYTE   W04
 BYTE   W04
 BYTE   W04
 BYTE   W08
 BYTE   N11  An2
 BYTE   N11  Cs3
 BYTE   W06
//  #07 //018   ----------------------------------------
 BYTE   W06
 BYTE   N44
 BYTE   N44  Fs3
 BYTE   W20
 BYTE   W12
 BYTE   W04
 BYTE   W04
 BYTE   W04
 BYTE   W04
 BYTE   Bn2
 BYTE   N68  En3
 BYTE   W04
 BYTE   W04
 BYTE   W04
 BYTE   W04
 BYTE   W04
 BYTE   W04
 BYTE   W04
 BYTE   W04
 BYTE   W04
 BYTE   W04
 BYTE   W02
//  #07 //019   ----------------------------------------
 BYTE   W02
 BYTE   W04
 BYTE   N23  An2
 BYTE   W04
 BYTE   W04
 BYTE   W04
 BYTE   W04
 BYTE   W04
 BYTE   W04
 BYTE   Fs2
 BYTE   N23  Dn3
 BYTE   W04
 BYTE   W04
 BYTE   W04
 BYTE   W04
 BYTE   W04
 BYTE   W04
 BYTE   Gs2
 BYTE   N23  En3
 BYTE   W04
 BYTE   W04
 BYTE   W04
 BYTE   W04
 BYTE   W04
 BYTE   W04
 BYTE   An2
 BYTE   N23  Fs3
 BYTE   W04
 BYTE   W04
 BYTE   W04
 BYTE   W04
 BYTE   W02
//  #07 //020   ----------------------------------------
 BYTE   W02
 BYTE   W04
 BYTE   N40  Cs3
 BYTE   N40  En3
 BYTE   W04
 BYTE   W36
 BYTE   N08  Bn2
 BYTE   N08  Dn3
 BYTE   W08
 BYTE   N24  Bn2
 BYTE   N24  Dn3
 BYTE   W24
 BYTE   Gn2
 BYTE   N24  Dn3
 BYTE   W18
//  #07 //021   ----------------------------------------
 BYTE   W06
 BYTE   N08  Fs2  v104
 BYTE   N08  An2
 BYTE   W04
 BYTE   W04
 BYTE   W04
 BYTE   W04
 BYTE   W04
 BYTE   W04
 BYTE   N15  Gs2  v100
 BYTE   N15  Bn2
 BYTE   W04
 BYTE   W04
 BYTE   W04
 BYTE   W04
 BYTE   N07  Fs2
 BYTE   N07  An2
 BYTE   W04
 BYTE   W04
 BYTE   N23  Bn2
 BYTE   N23  En3
 BYTE   W04
 BYTE   W04
 BYTE   W04
 BYTE   W04
 BYTE   W04
 BYTE   W04
 BYTE   N07  Fs2
 BYTE   N07  Dn3
 BYTE   W08
 BYTE   En2
 BYTE   N07  Cs3
 BYTE   W08
 BYTE   Cs2
 BYTE   N07  An2
 BYTE   W02
//  #07 //022   ----------------------------------------
 BYTE   W06
 BYTE   TIE  Gn2  v084
 BYTE   TIE  En3
 BYTE   W08
 BYTE   W04
 BYTE   W04
 BYTE   W04
 BYTE   W04
 BYTE   W04
 BYTE   W04
 BYTE   W04
 BYTE   W04
 BYTE   W04
 BYTE   W04
 BYTE   W04
 BYTE   W04
 BYTE   W04
 BYTE   W04
 BYTE   W04
 BYTE   W04
 BYTE   W04
 BYTE   W04
 BYTE   W04
 BYTE   W04
 BYTE   W02
//  #07 //023   ----------------------------------------
 BYTE   W02
 BYTE   W04
 BYTE   W04
 BYTE   W04
 BYTE   W04
 BYTE   W04
 BYTE   W04
 BYTE   W04
 BYTE   W04
 BYTE   W04
 BYTE   W04
 BYTE   W04
 BYTE   W04
 BYTE   W04
 BYTE   W04
 BYTE   W04
 BYTE   W04
 BYTE   W04
 BYTE   W04
 BYTE   W04
 BYTE   W04
 BYTE   W04
 BYTE   W04
 BYTE   W04
 BYTE   W02
//  #07 //024   ----------------------------------------
 BYTE   W02
 BYTE   W03
 BYTE   EOT
 BYTE   Gn2  v064
 BYTE   W01
 BYTE   N92  En2
 BYTE   N92  Bn2
 BYTE   W04
 BYTE   W04
 BYTE   W04
 BYTE   W04
 BYTE   W04
 BYTE   W04
 BYTE   W04
 BYTE   W04
 BYTE   W04
 BYTE   W04
 BYTE   W04
 BYTE   W04
 BYTE   W04
 BYTE   W04
 BYTE   W04
 BYTE   W04
 BYTE   W04
 BYTE   W04
 BYTE   W04
 BYTE   W04
 BYTE   W04
 BYTE   W04
 BYTE   W02
//  #07 //025   ----------------------------------------
 BYTE   W02
 BYTE   W04
 BYTE   Fs2
 BYTE   N92  Cs3
 BYTE   W04
 BYTE   W04
 BYTE   W04
 BYTE   W04
 BYTE   W04
 BYTE   W04
 BYTE   W04
 BYTE   W04
 BYTE   W04
 BYTE   W04
 BYTE   W04
 BYTE   W04
 BYTE   W04
 BYTE   W04
 BYTE   W04
 BYTE   W04
 BYTE   W04
 BYTE   W04
 BYTE   W04
 BYTE   W04
 BYTE   W04
 BYTE   W04
 BYTE   W02
//  #07 //026   ----------------------------------------
 BYTE   W02
 BYTE   W04
 BYTE   W04
 BYTE   W04
 BYTE   W04
 BYTE   N23  Fs2  v104
 BYTE   W04
 BYTE   W04
 BYTE   W04
 BYTE   W04
 BYTE   W04
 BYTE   W04
 BYTE   N11  En2
 BYTE   W04
 BYTE   W04
 BYTE   W04
 BYTE   W04
 BYTE   W04
 BYTE   W04
 BYTE   W04
 BYTE   W04
 BYTE   W08
 BYTE   W04
 BYTE   W04
 BYTE   N23  Dn2
 BYTE   W04
 BYTE   W02
//  #07 //027   ----------------------------------------
 BYTE   W02
 BYTE   W04
 BYTE   W04
 BYTE   W04
 BYTE   W04
 BYTE   N11  Cn2
 BYTE   W04
 BYTE   W04
 BYTE   W04
 BYTE   W04
 BYTE   W04
 BYTE   W04
 BYTE   W04
 BYTE   W04
 BYTE   W04
 BYTE   N23
 BYTE   W04
 BYTE   W04
 BYTE   W04
 BYTE   W04
 BYTE   W04
 BYTE   W04
 BYTE   An2
 BYTE   W04
 BYTE   W04
 BYTE   W04
 BYTE   W04
 BYTE   W02
//  #07 //028   ----------------------------------------
 BYTE   W02
 BYTE   W04
 BYTE   W04
 BYTE   W04
 BYTE   W04
 BYTE   Fs2
 BYTE   W04
 BYTE   W04
 BYTE   W04
 BYTE   W04
 BYTE   W04
 BYTE   W04
 BYTE   N11  En2
 BYTE   W08
 BYTE   W04
 BYTE   W08
 BYTE   W04
 BYTE   W04
 BYTE   W04
 BYTE   W04
 BYTE   W04
 BYTE   W04
 BYTE   W04
 BYTE   N23  Gs2
 BYTE   W04
 BYTE   W02
//  #07 //029   ----------------------------------------
 BYTE   W02
 BYTE   W04
 BYTE   W04
 BYTE   W04
 BYTE   W04
 BYTE   N56  Gn2
 BYTE   W04
 BYTE   W04
 BYTE   W04
 BYTE   W04
 BYTE   W04
 BYTE   W04
 BYTE   W04
 BYTE   W04
 BYTE   W04
 BYTE   W04
 BYTE   W04
 BYTE   W04
 BYTE   W04
 BYTE   W04
 BYTE   W04
 BYTE   N23  Fs2
 BYTE   W04
 BYTE   W04
 BYTE   W04
 BYTE   W04
 BYTE   W02
//  #07 //030   ----------------------------------------
 BYTE   W02
 BYTE   W04
 BYTE   W04
 BYTE   W04
 BYTE   W04
 BYTE   Gs2
 BYTE   W04
 BYTE   W04
 BYTE   W04
 BYTE   W04
 BYTE   W04
 BYTE   W04
 BYTE   N11  Fs2
 BYTE   W04
 BYTE   W04
 BYTE   W04
 BYTE   W04
 BYTE   W04
 BYTE   W04
 BYTE   W04
 BYTE   W04
 BYTE   W04
 BYTE   W04
 BYTE   W04
 BYTE   W04
 BYTE   N23  En2
 BYTE   W04
 BYTE   W02
//  #07 //031   ----------------------------------------
 BYTE   W02
 BYTE   W04
 BYTE   W04
 BYTE   W04
 BYTE   W04
 BYTE   N12  Dn2
 BYTE   W04
 BYTE   W04
 BYTE   W04
 BYTE   W04
 BYTE   W04
 BYTE   W04
 BYTE   W04
 BYTE   W04
 BYTE   W04
 BYTE   N23
 BYTE   W04
 BYTE   W04
 BYTE   W04
 BYTE   W04
 BYTE   W04
 BYTE   W04
 BYTE   Bn2
 BYTE   W04
 BYTE   W04
 BYTE   W04
 BYTE   W04
 BYTE   W02
//  #07 //032   ----------------------------------------
 BYTE   W02
 BYTE   W04
 BYTE   N32  Fn2  v112
 BYTE   W04
 BYTE   W04
 BYTE   W04
 BYTE   W04
 BYTE   W04
 BYTE   W04
 BYTE   W04
 BYTE   W04
 BYTE   W04
 BYTE   Fs2
 BYTE   W04
 BYTE   W04
 BYTE   W04
 BYTE   W04
 BYTE   W04
 BYTE   W04
 BYTE   W04
 BYTE   W04
 BYTE   W04
 BYTE   Gs2
 BYTE   W04
 BYTE   W04
 BYTE   W04
 BYTE   W04
 BYTE   W02
//  #07 //033   ----------------------------------------
 BYTE   W02
 BYTE   W04
 BYTE   W04
 BYTE   W04
 BYTE   W04
 BYTE   TIE  Bn2  v104
 BYTE   W04
 BYTE   W04
 BYTE   W04
 BYTE   W04
 BYTE   W04
 BYTE   W04
 BYTE   W04
 BYTE   W04
 BYTE   W04
 BYTE   W04
 BYTE   W04
 BYTE   W04
 BYTE   W04
 BYTE   W20
 BYTE   W06
//  #07 //034   ----------------------------------------
 BYTE   W06
 BYTE   W12
 BYTE   W08
 BYTE   W04
 BYTE   W04
 BYTE   W04
 BYTE   W04
 BYTE   W04
 BYTE   W04
 BYTE   W04
 BYTE   W04
 BYTE   W04
 BYTE   W04
 BYTE   W04
 BYTE   W04
 BYTE   W04
 BYTE   W04
 BYTE   W04
 BYTE   W04
 BYTE   W04
 BYTE   W02
//  #07 //035   ----------------------------------------
 BYTE   W02
 BYTE   W03
 BYTE   EOT
 BYTE   W06
 BYTE   GoTo
  POIN2 Label_019B4AEE
 BYTE   FINE

//**************** Track 8 (Midi-Chn.7) ****************//

History2_008:
//  #08 //000   ----------------------------------------
 BYTE   KEYSH   History2_key+0
Label_0192B116:
 BYTE   VOICE   55
 BYTE   PAN   c_v+27
 BYTE   VOL   28*History2_mvl/mxv
 BYTE   BEND   c_v+0
 BYTE   W06
 BYTE   N92  Cs2  v048
 BYTE   W90
//  #08 //001   ----------------------------------------
 BYTE   W96
//  #08 //002   ----------------------------------------
 BYTE   W96
//  #08 //003   ----------------------------------------
 BYTE   W96
//  #08 //004   ----------------------------------------
 BYTE   W96
//  #08 //005   ----------------------------------------
 BYTE   W96
//  #08 //006   ----------------------------------------
 BYTE   W96
//  #08 //007   ----------------------------------------
 BYTE   W96
//  #08 //008   ----------------------------------------
 BYTE   W06
 BYTE   N44  En2  v076
 BYTE   W48
 BYTE   N11  Fn2  v040
 BYTE   W12
 BYTE   Fn2  v064
 BYTE   W30
//  #08 //009   ----------------------------------------
 BYTE   W96
//  #08 //010   ----------------------------------------
 BYTE   W96
//  #08 //011   ----------------------------------------
 BYTE   W96
//  #08 //012   ----------------------------------------
 BYTE   W96
//  #08 //013   ----------------------------------------
 BYTE   W06
 BYTE   N23  Fs2  v044
 BYTE   W24
 BYTE   N11  Fn2
 BYTE   W12
 BYTE   Fn2  v016
 BYTE   W12
 BYTE   N23  Fs2  v044
 BYTE   W24
 BYTE   N11  Fn2
 BYTE   W12
 BYTE   Fn2  v016
 BYTE   W06
//  #08 //014   ----------------------------------------
 BYTE   W18
 BYTE   Fn2  v044
 BYTE   W12
 BYTE   Fn2  v016
 BYTE   W24
 BYTE   Fn2  v044
 BYTE   W12
 BYTE   Fn2  v016
 BYTE   W24
 BYTE   W03
 BYTE   N56  Cs2  v064
 BYTE   W03
//  #08 //015   ----------------------------------------
 BYTE   W96
//  #08 //016   ----------------------------------------
 BYTE   W06
 BYTE   N05  Dn1  v088
 BYTE   W06
 BYTE   Dn1  v060
 BYTE   W06
 BYTE   N05
 BYTE   W06
 BYTE   Dn1  v044
 BYTE   W06
 BYTE   Dn1  v080
 BYTE   W06
 BYTE   Dn1  v056
 BYTE   W06
 BYTE   Dn1  v052
 BYTE   W06
 BYTE   N02  Dn1  v064
 BYTE   W03
 BYTE   Dn1  v080
 BYTE   W03
 BYTE   N05  Dn1  v092
 BYTE   W06
 BYTE   Dn1  v052
 BYTE   W06
 BYTE   Dn1  v060
 BYTE   W06
 BYTE   Dn1  v028
 BYTE   W06
 BYTE   Dn1  v080
 BYTE   W06
 BYTE   Dn1  v044
 BYTE   W06
 BYTE   Dn1  v060
 BYTE   W06
//  #08 //017   ----------------------------------------
 BYTE   N06  Dn1  v028
 BYTE   W06
 BYTE   N05  Dn1  v088
 BYTE   W06
 BYTE   Dn1  v060
 BYTE   W06
 BYTE   N05
 BYTE   W06
 BYTE   Dn1  v088
 BYTE   W06
 BYTE   Dn1  v084
 BYTE   W06
 BYTE   Dn1  v056
 BYTE   W06
 BYTE   Dn1  v060
 BYTE   W06
 BYTE   Dn1  v040
 BYTE   W06
 BYTE   Dn1  v044
 BYTE   W06
 BYTE   Dn1  v092
 BYTE   W06
 BYTE   Dn1  v060
 BYTE   W06
 BYTE   N02  Dn1  v064
 BYTE   W03
 BYTE   Dn1  v080
 BYTE   W03
 BYTE   N05  Dn1  v092
 BYTE   W06
 BYTE   Dn1  v044
 BYTE   W06
 BYTE   Dn1  v064
 BYTE   W06
//  #08 //018   ----------------------------------------
 BYTE   N06  Dn1  v076
 BYTE   W06
 BYTE   N05  Dn1  v100
 BYTE   W06
 BYTE   Dn1  v060
 BYTE   W06
 BYTE   N05
 BYTE   W06
 BYTE   Dn1  v044
 BYTE   W06
 BYTE   Dn1  v080
 BYTE   W06
 BYTE   Dn1  v056
 BYTE   W06
 BYTE   Dn1  v052
 BYTE   W06
 BYTE   N02  Dn1  v064
 BYTE   W03
 BYTE   Dn1  v080
 BYTE   W03
 BYTE   N05  Dn1  v092
 BYTE   W06
 BYTE   Dn1  v052
 BYTE   W06
 BYTE   Dn1  v060
 BYTE   W06
 BYTE   Dn1  v028
 BYTE   W06
 BYTE   Dn1  v080
 BYTE   W06
 BYTE   Dn1  v044
 BYTE   W06
 BYTE   Dn1  v060
 BYTE   W06
//  #08 //019   ----------------------------------------
 BYTE   Dn1  v028
 BYTE   W06
 BYTE   Dn1  v088
 BYTE   W06
 BYTE   Dn1  v060
 BYTE   W06
 BYTE   N05
 BYTE   W06
 BYTE   Dn1  v088
 BYTE   W06
 BYTE   Dn1  v084
 BYTE   W06
 BYTE   Dn1  v056
 BYTE   W06
 BYTE   Dn1  v052
 BYTE   W06
 BYTE   Dn1  v036
 BYTE   W06
 BYTE   Dn1  v056
 BYTE   W06
 BYTE   Dn1  v092
 BYTE   W06
 BYTE   Dn1  v060
 BYTE   W06
 BYTE   N02  Dn1  v064
 BYTE   W03
 BYTE   Dn1  v080
 BYTE   W03
 BYTE   N07  Dn1  v088
 BYTE   W08
 BYTE   Dn1  v096
 BYTE   W08
 BYTE   Dn1  v104
 BYTE   W02
//  #08 //020   ----------------------------------------
 BYTE   W06
 BYTE   N05  Dn1  v100
 BYTE   W06
 BYTE   Dn1  v060
 BYTE   W06
 BYTE   N05
 BYTE   W06
 BYTE   Dn1  v044
 BYTE   W06
 BYTE   Dn1  v080
 BYTE   W06
 BYTE   Dn1  v056
 BYTE   W06
 BYTE   Dn1  v052
 BYTE   W06
 BYTE   N02  Dn1  v064
 BYTE   W03
 BYTE   Dn1  v080
 BYTE   W03
 BYTE   N05  Dn1  v092
 BYTE   W06
 BYTE   Dn1  v052
 BYTE   W06
 BYTE   Dn1  v060
 BYTE   W06
 BYTE   Dn1  v028
 BYTE   W06
 BYTE   Dn1  v080
 BYTE   W06
 BYTE   Dn1  v044
 BYTE   W06
 BYTE   Dn1  v060
 BYTE   W06
//  #08 //021   ----------------------------------------
 BYTE   Dn1  v028
 BYTE   W06
 BYTE   N03  Dn1  v100
 BYTE   N11  Fn2  v036
 BYTE   W04
 BYTE   N03  Dn1  v064
 BYTE   W04
 BYTE   Dn1  v044
 BYTE   W04
 BYTE   Dn1  v048
 BYTE   W04
 BYTE   Dn1  v080
 BYTE   W04
 BYTE   Dn1  v092
 BYTE   W04
 BYTE   N05  Dn1  v116
 BYTE   N64  Cs2  v056
 BYTE   W18
 BYTE   N02  Dn1  v052
 BYTE   W03
 BYTE   Dn1  v072
 BYTE   W03
 BYTE   N05  Dn1  v104
 BYTE   W18
 BYTE   Dn1  v096
 BYTE   W06
 BYTE   N11  Bn1  v072
 BYTE   W12
 BYTE   N03  Dn1  v060
 BYTE   W04
 BYTE   Dn1  v076
 BYTE   W02
//  #08 //022   ----------------------------------------
 BYTE   W02
 BYTE   Dn1  v088
 BYTE   W04
 BYTE   N05  Dn1  v104
 BYTE   W12
 BYTE   N02  Dn1  v024
 BYTE   W03
 BYTE   Dn1  v048
 BYTE   W03
 BYTE   N05  Dn1  v104
 BYTE   W06
 BYTE   N23  Bn1  v072
 BYTE   W24
 BYTE   N05  Dn1  v104
 BYTE   W12
 BYTE   N02  Dn1  v024
 BYTE   W03
 BYTE   Dn1  v048
 BYTE   W03
 BYTE   N05  Dn1  v104
 BYTE   W06
 BYTE   N23  Bn1  v072
 BYTE   W18
//  #08 //023   ----------------------------------------
 BYTE   W06
 BYTE   N05  Dn1  v104
 BYTE   W12
 BYTE   N02  Dn1  v024
 BYTE   W03
 BYTE   Dn1  v048
 BYTE   W03
 BYTE   N05  Dn1  v104
 BYTE   W06
 BYTE   N23  Bn1  v072
 BYTE   W24
 BYTE   N05  Dn1  v104
 BYTE   W12
 BYTE   N02  Dn1  v024
 BYTE   W03
 BYTE   Dn1  v048
 BYTE   W03
 BYTE   N05  Dn1  v104
 BYTE   W06
 BYTE   N11  Bn1  v072
 BYTE   W12
 BYTE   N05  Dn1  v084
 BYTE   W06
//  #08 //024   ----------------------------------------
 BYTE   N05
 BYTE   W06
 BYTE   Dn1  v104
 BYTE   W06
 BYTE   Dn1  v048
 BYTE   W06
 BYTE   Dn1  v044
 BYTE   W06
 BYTE   Dn1  v100
 BYTE   W06
 BYTE   Dn1  v052
 BYTE   W06
 BYTE   Dn1  v088
 BYTE   W06
 BYTE   Dn1  v052
 BYTE   W06
 BYTE   Dn1  v044
 BYTE   W06
 BYTE   Dn1  v084
 BYTE   W06
 BYTE   Dn1  v060
 BYTE   W06
 BYTE   Dn1  v040
 BYTE   W06
 BYTE   N02  Dn1  v052
 BYTE   W03
 BYTE   Dn1  v080
 BYTE   W03
 BYTE   N05  Dn1  v084
 BYTE   W06
 BYTE   Dn1  v052
 BYTE   W06
 BYTE   Dn1  v064
 BYTE   W06
//  #08 //025   ----------------------------------------
 BYTE   Dn1  v052
 BYTE   W06
 BYTE   Dn1  v040
 BYTE   W06
 BYTE   Dn1  v048
 BYTE   W06
 BYTE   Dn1  v080
 BYTE   W06
 BYTE   Dn1  v048
 BYTE   W06
 BYTE   Dn1  v060
 BYTE   W06
 BYTE   Dn1  v084
 BYTE   W06
 BYTE   Dn1  v056
 BYTE   W06
 BYTE   Dn1  v044
 BYTE   W06
 BYTE   N03  Dn1  v100
 BYTE   W04
 BYTE   Dn1  v064
 BYTE   W04
 BYTE   Dn1  v044
 BYTE   W04
 BYTE   Dn1  v048
 BYTE   W04
 BYTE   Dn1  v080
 BYTE   W04
 BYTE   Dn1  v092
 BYTE   W22
//  #08 //026   ----------------------------------------
Label_0192B359:
 BYTE   W06
 BYTE   N32  Gn2  v036
 BYTE   W36
 BYTE   Cs2  v064
 BYTE   W36
 BYTE   Gn2  v044
 BYTE   W18
 BYTE   PEND 
//  #08 //027   ----------------------------------------
 BYTE   W18
 BYTE   Dn2  v064
 BYTE   W78
//  #08 //028   ----------------------------------------
 BYTE   PATT
  POIN2 Label_0192B359
//  #08 //029   ----------------------------------------
 BYTE   W18
 BYTE   N32  Dn2  v064
 BYTE   W78
//  #08 //030   ----------------------------------------
 BYTE   PATT
  POIN2 Label_0192B359
//  #08 //031   ----------------------------------------
 BYTE   W18
 BYTE   N32  Dn2  v064
 BYTE   W78
//  #08 //032   ----------------------------------------
 BYTE   PATT
  POIN2 Label_0192B359
//  #08 //033   ----------------------------------------
 BYTE   W18
 BYTE   N32  Dn2  v064
 BYTE   W78
//  #08 //034   ----------------------------------------
 BYTE   W96
//  #08 //035   ----------------------------------------
 BYTE   W11
 BYTE   GoTo
  POIN2 Label_0192B116
 BYTE   FINE

//**************** Track 9 (Midi-Chn.8) ****************//

History2_009:
//  #09 //000   ----------------------------------------
 BYTE   KEYSH   History2_key+0
Label_019B4F36:
 BYTE   VOICE   117
 BYTE   PAN   c_v+0
 BYTE   VOL   33*History2_mvl/mxv
 BYTE   BEND   c_v+0
 BYTE   W06
 BYTE   N05  Gs0  v120
 BYTE   W06
 BYTE   Gs0  v112
 BYTE   W06
 BYTE   Gs0  v064
 BYTE   W06
 BYTE   Gs0  v056
 BYTE   W06
 BYTE   Gs0  v088
 BYTE   W06
 BYTE   Gs0  v080
 BYTE   W06
 BYTE   Gs0  v032
 BYTE   W06
 BYTE   Gs0  v024
 BYTE   W06
 BYTE   Gs0  v096
 BYTE   W06
 BYTE   Gs0  v088
 BYTE   W06
 BYTE   Gs0  v040
 BYTE   W06
 BYTE   Gs0  v032
 BYTE   W06
 BYTE   Gs0  v092
 BYTE   W06
 BYTE   Gs0  v084
 BYTE   W06
 BYTE   Gs0  v036
 BYTE   W06
//  #09 //001   ----------------------------------------
Label_019B4F6D:
 BYTE   N05  Gs0  v028
 BYTE   W06
 BYTE   Gs0  v120
 BYTE   W06
 BYTE   Gs0  v112
 BYTE   W06
 BYTE   Gs0  v064
 BYTE   W06
 BYTE   Gs0  v056
 BYTE   W06
 BYTE   Gs0  v088
 BYTE   W06
 BYTE   Gs0  v080
 BYTE   W06
 BYTE   Gs0  v032
 BYTE   W06
 BYTE   Gs0  v024
 BYTE   W06
 BYTE   Gs0  v096
 BYTE   W06
 BYTE   Gs0  v088
 BYTE   W06
 BYTE   Gs0  v040
 BYTE   W06
 BYTE   Gs0  v032
 BYTE   W06
 BYTE   Gs0  v092
 BYTE   W06
 BYTE   Gs0  v084
 BYTE   W06
 BYTE   Fs0  v112
 BYTE   W06
 BYTE   PEND 
//  #09 //002   ----------------------------------------
Label_019B4F9F:
 BYTE   N05  Fn0  v104
 BYTE   W06
 BYTE   En0  v120
 BYTE   W06
 BYTE   En0  v112
 BYTE   W06
 BYTE   En0  v064
 BYTE   W06
 BYTE   En0  v056
 BYTE   W06
 BYTE   En0  v088
 BYTE   W06
 BYTE   En0  v080
 BYTE   W06
 BYTE   En0  v032
 BYTE   W06
 BYTE   En0  v024
 BYTE   W06
 BYTE   Ds0  v096
 BYTE   W06
 BYTE   Ds0  v088
 BYTE   W06
 BYTE   Ds0  v040
 BYTE   W06
 BYTE   Ds0  v032
 BYTE   W06
 BYTE   Ds0  v092
 BYTE   W06
 BYTE   Ds0  v084
 BYTE   W06
 BYTE   Ds0  v036
 BYTE   W06
 BYTE   PEND 
//  #09 //003   ----------------------------------------
 BYTE   Ds0  v028
 BYTE   W06
 BYTE   Cs0  v120
 BYTE   W06
 BYTE   Cs0  v112
 BYTE   W06
 BYTE   Cs0  v064
 BYTE   W06
 BYTE   Cs0  v056
 BYTE   W06
 BYTE   Cs0  v088
 BYTE   W06
 BYTE   Cs0  v080
 BYTE   W06
 BYTE   Cs0  v032
 BYTE   W06
 BYTE   Cs0  v024
 BYTE   W06
 BYTE   Ds0  v096
 BYTE   W06
 BYTE   Ds0  v088
 BYTE   W06
 BYTE   Ds0  v040
 BYTE   W06
 BYTE   Ds0  v032
 BYTE   W06
 BYTE   Ds0  v092
 BYTE   W06
 BYTE   Ds0  v084
 BYTE   W06
 BYTE   Ds1  v124
 BYTE   W06
//  #09 //004   ----------------------------------------
 BYTE   Ds0  v127
 BYTE   W06
 BYTE   Gs0  v120
 BYTE   W06
 BYTE   Gs0  v104
 BYTE   W06
 BYTE   Gs0  v064
 BYTE   W06
 BYTE   Gs0  v048
 BYTE   W06
 BYTE   Gs0  v088
 BYTE   W06
 BYTE   Gs0  v076
 BYTE   W06
 BYTE   Gs0  v032
 BYTE   W06
 BYTE   Gs0  v020
 BYTE   W06
 BYTE   Gs0  v096
 BYTE   W06
 BYTE   Gs0  v080
 BYTE   W06
 BYTE   Gs0  v040
 BYTE   W06
 BYTE   Gs0  v024
 BYTE   W06
 BYTE   Gs0  v092
 BYTE   W06
 BYTE   Gs0  v076
 BYTE   W06
 BYTE   Gs0  v036
 BYTE   W06
//  #09 //005   ----------------------------------------
 BYTE   PATT
  POIN2 Label_019B4F6D
//  #09 //006   ----------------------------------------
 BYTE   PATT
  POIN2 Label_019B4F9F
//  #09 //007   ----------------------------------------
 BYTE   N05  Ds0  v028
 BYTE   W06
 BYTE   Cs0  v120
 BYTE   W06
 BYTE   Cs0  v112
 BYTE   W06
 BYTE   Cs0  v064
 BYTE   W06
 BYTE   Cs0  v056
 BYTE   W06
 BYTE   Cs0  v088
 BYTE   W06
 BYTE   Cs0  v080
 BYTE   W06
 BYTE   Cs0  v032
 BYTE   W06
 BYTE   Cs0  v024
 BYTE   W18
 BYTE   N09  Cs1  v116
 BYTE   W12
 BYTE   Bn0  v120
 BYTE   W12
 BYTE   As0
 BYTE   W06
//  #09 //008   ----------------------------------------
 BYTE   W06
 BYTE   N11  Gs0
 BYTE   W12
 BYTE   Gs0  v056
 BYTE   W12
 BYTE   Gs0  v044
 BYTE   W24
 BYTE   N09  Gs0  v120
 BYTE   W12
 BYTE   N09
 BYTE   W12
 BYTE   Gs0  v056
 BYTE   W12
 BYTE   Gs0  v044
 BYTE   W06
//  #09 //009   ----------------------------------------
 BYTE   W30
 BYTE   N05  Gs0  v088
 BYTE   W06
 BYTE   Gs0  v080
 BYTE   W06
 BYTE   Gs0  v032
 BYTE   W06
 BYTE   Gs0  v024
 BYTE   W06
 BYTE   Gs0  v096
 BYTE   W06
 BYTE   Gs0  v088
 BYTE   W06
 BYTE   Gs0  v040
 BYTE   W06
 BYTE   Gs0  v120
 BYTE   W06
 BYTE   Gs1
 BYTE   W06
 BYTE   Gs0
 BYTE   W06
 BYTE   Ds1
 BYTE   W06
//  #09 //010   ----------------------------------------
 BYTE   Gs0
 BYTE   W06
 BYTE   En0
 BYTE   W06
 BYTE   En0  v112
 BYTE   W06
 BYTE   En0  v064
 BYTE   W06
 BYTE   En0  v056
 BYTE   W06
 BYTE   En0  v088
 BYTE   W06
 BYTE   En0  v080
 BYTE   W06
 BYTE   En0  v032
 BYTE   W06
 BYTE   En0  v024
 BYTE   W06
 BYTE   Ds0  v096
 BYTE   W06
 BYTE   Ds0  v088
 BYTE   W06
 BYTE   Ds0  v040
 BYTE   W06
 BYTE   Ds0  v032
 BYTE   W06
 BYTE   Ds0  v092
 BYTE   W06
 BYTE   Ds0  v084
 BYTE   W06
 BYTE   Ds0  v036
 BYTE   W06
//  #09 //011   ----------------------------------------
 BYTE   Ds0  v028
 BYTE   W06
 BYTE   Cs0  v120
 BYTE   W06
 BYTE   Cs0  v112
 BYTE   W06
 BYTE   Cs0  v064
 BYTE   W06
 BYTE   Cs0  v056
 BYTE   W06
 BYTE   Cs0  v088
 BYTE   W06
 BYTE   Cs0  v080
 BYTE   W06
 BYTE   Cs0  v032
 BYTE   W06
 BYTE   Cs0  v024
 BYTE   W06
 BYTE   Ds0  v096
 BYTE   W06
 BYTE   Ds0  v088
 BYTE   W06
 BYTE   Ds0  v040
 BYTE   W06
 BYTE   Ds0  v032
 BYTE   W06
 BYTE   Ds0  v092
 BYTE   W06
 BYTE   Ds0  v084
 BYTE   W06
 BYTE   Ds1  v127
 BYTE   W06
//  #09 //012   ----------------------------------------
 BYTE   Ds0  v124
 BYTE   W06
 BYTE   Gs0  v120
 BYTE   W06
 BYTE   Gs0  v112
 BYTE   W06
 BYTE   Gs0  v064
 BYTE   W06
 BYTE   Gs0  v056
 BYTE   W06
 BYTE   Gs0  v088
 BYTE   W06
 BYTE   Gs0  v080
 BYTE   W06
 BYTE   Gs0  v032
 BYTE   W06
 BYTE   Gs0  v024
 BYTE   W06
 BYTE   Gs0  v096
 BYTE   W06
 BYTE   Gs0  v088
 BYTE   W06
 BYTE   Gs0  v040
 BYTE   W06
 BYTE   Gs0  v032
 BYTE   W06
 BYTE   Gs0  v104
 BYTE   W06
 BYTE   Gs0  v100
 BYTE   W06
 BYTE   Gs1  v092
 BYTE   W06
//  #09 //013   ----------------------------------------
 BYTE   Gs0  v127
 BYTE   W06
 BYTE   N23  Cs1  v120
 BYTE   W24
 BYTE   N09  Ds1
 BYTE   W12
 BYTE   Ds1  v064
 BYTE   W12
 BYTE   N23  Bn0  v120
 BYTE   W24
 BYTE   N09  Cs1
 BYTE   W12
 BYTE   Cs1  v064
 BYTE   W06
//  #09 //014   ----------------------------------------
 BYTE   W18
 BYTE   En0  v120
 BYTE   W12
 BYTE   En0  v064
 BYTE   W24
 BYTE   N17  Fs0  v120
 BYTE   W18
 BYTE   Fs0  v036
 BYTE   W18
 BYTE   Gs0  v120
 BYTE   W06
//  #09 //015   ----------------------------------------
 BYTE   W12
 BYTE   Gs0  v036
 BYTE   W18
 BYTE   N05  Gs0  v088
 BYTE   W06
 BYTE   Gs0  v080
 BYTE   W06
 BYTE   Gs0  v032
 BYTE   W06
 BYTE   Gs0  v024
 BYTE   W06
 BYTE   Gs0  v096
 BYTE   W06
 BYTE   Gs0  v088
 BYTE   W06
 BYTE   Gs0  v040
 BYTE   W06
 BYTE   Gs0  v032
 BYTE   W06
 BYTE   Gs0  v092
 BYTE   W06
 BYTE   Gs0  v084
 BYTE   W06
 BYTE   Gs0  v036
 BYTE   W06
//  #09 //016   ----------------------------------------
 BYTE   Gs0  v028
 BYTE   W06
 BYTE   N44  An0  v096
 BYTE   W48
 BYTE   N32  Gs0
 BYTE   W36
 BYTE   N05  An0
 BYTE   W06
//  #09 //017   ----------------------------------------
 BYTE   Gs0
 BYTE   W06
 BYTE   N56  Fs0
 BYTE   W60
 BYTE   N11  Cs1
 BYTE   W12
 BYTE   Fs1
 BYTE   W12
 BYTE   En1
 BYTE   W06
//  #09 //018   ----------------------------------------
 BYTE   W06
 BYTE   N44  Dn1
 BYTE   W48
 BYTE   N32  Cs1
 BYTE   W36
 BYTE   N05  Dn1
 BYTE   W06
//  #09 //019   ----------------------------------------
 BYTE   Cs1
 BYTE   W06
 BYTE   N56  Bn0
 BYTE   W60
 BYTE   N11  Fs0
 BYTE   W12
 BYTE   Bn0
 BYTE   W12
 BYTE   An0
 BYTE   W06
//  #09 //020   ----------------------------------------
 BYTE   W06
 BYTE   N44  Gn0
 BYTE   W48
 BYTE   N32  Gn1
 BYTE   W36
 BYTE   N05  En1
 BYTE   W06
//  #09 //021   ----------------------------------------
 BYTE   Fn1
 BYTE   W06
 BYTE   N23  Fs1
 BYTE   W24
 BYTE   Fs0
 BYTE   W24
 BYTE   Bn0
 BYTE   W24
 BYTE   N05  An0
 BYTE   W06
 BYTE   Bn0
 BYTE   W06
 BYTE   Fs1
 BYTE   W06
//  #09 //022   ----------------------------------------
 BYTE   Bn0
 BYTE   W06
 BYTE   N22  Cn1
 BYTE   W24
 BYTE   N22
 BYTE   W24
 BYTE   N22
 BYTE   W24
 BYTE   N23  Gn0
 BYTE   W18
//  #09 //023   ----------------------------------------
 BYTE   W06
 BYTE   N22  Cn1
 BYTE   W24
 BYTE   N22
 BYTE   W24
 BYTE   N11
 BYTE   W12
 BYTE   Gn1
 BYTE   W12
 BYTE   N05  Cn2
 BYTE   W06
 BYTE   Fs1
 BYTE   W06
 BYTE   En1
 BYTE   W06
//  #09 //024   ----------------------------------------
 BYTE   Cn1
 BYTE   W06
 BYTE   N22  Cs1
 BYTE   W24
 BYTE   N22
 BYTE   W24
 BYTE   N22
 BYTE   W24
 BYTE   N22
 BYTE   W18
//  #09 //025   ----------------------------------------
 BYTE   W06
 BYTE   Fs0
 BYTE   W24
 BYTE   N05  Fs0  v108
 BYTE   W06
 BYTE   N05
 BYTE   W06
 BYTE   N22  Fs0  v096
 BYTE   W24
 BYTE   N05  Fs0  v116
 BYTE   W06
 BYTE   N05
 BYTE   W06
 BYTE   Fs1
 BYTE   W06
 BYTE   Fs0
 BYTE   W06
 BYTE   Cs1
 BYTE   W06
//  #09 //026   ----------------------------------------
 BYTE   Fs0
 BYTE   W06
 BYTE   N32  Bn0  v108
 BYTE   W36
 BYTE   N11  Bn0  v120
 BYTE   W12
 BYTE   Bn0  v052
 BYTE   W12
 BYTE   Bn0  v028
 BYTE   W12
 BYTE   N32  Bn0  v108
 BYTE   W18
//  #09 //027   ----------------------------------------
 BYTE   W18
 BYTE   N11  Bn0  v120
 BYTE   W12
 BYTE   Bn0  v052
 BYTE   W12
 BYTE   Bn0  v028
 BYTE   W24
 BYTE   N03  Fn0  v124
 BYTE   W06
 BYTE   N03
 BYTE   W06
 BYTE   N05  Gn0
 BYTE   W06
 BYTE   Dn1
 BYTE   W06
 BYTE   Gn1
 BYTE   W06
//  #09 //028   ----------------------------------------
 BYTE   Gn0
 BYTE   W06
 BYTE   N32  Bn0  v108
 BYTE   W36
 BYTE   N11  Bn0  v120
 BYTE   W12
 BYTE   Bn0  v052
 BYTE   W12
 BYTE   Bn0  v028
 BYTE   W12
 BYTE   N32  Bn0  v108
 BYTE   W18
//  #09 //029   ----------------------------------------
 BYTE   W18
 BYTE   N11  Bn0  v120
 BYTE   W12
 BYTE   Bn0  v052
 BYTE   W12
 BYTE   Bn0  v028
 BYTE   W24
 BYTE   N03  Bn0  v116
 BYTE   W06
 BYTE   N03
 BYTE   W06
 BYTE   N05  Gs1
 BYTE   W06
 BYTE   Fs1
 BYTE   W06
 BYTE   Ds1
 BYTE   W06
//  #09 //030   ----------------------------------------
 BYTE   Gs0
 BYTE   W06
 BYTE   N32  Cs0  v108
 BYTE   W36
 BYTE   N11  Cs0  v120
 BYTE   W12
 BYTE   Cs0  v052
 BYTE   W12
 BYTE   Cs0  v028
 BYTE   W12
 BYTE   N32  Cs0  v108
 BYTE   W18
//  #09 //031   ----------------------------------------
 BYTE   W18
 BYTE   N11  Cs0  v120
 BYTE   W12
 BYTE   Cs0  v052
 BYTE   W12
 BYTE   Cs0  v028
 BYTE   W24
 BYTE   N03  Gn0  v124
 BYTE   W06
 BYTE   N03
 BYTE   W06
 BYTE   N05  An0
 BYTE   W06
 BYTE   En1
 BYTE   W06
 BYTE   An1
 BYTE   W06
//  #09 //032   ----------------------------------------
 BYTE   An0
 BYTE   W06
 BYTE   N32  Ds0  v108
 BYTE   W36
 BYTE   En0  v120
 BYTE   W36
 BYTE   Fs0  v108
 BYTE   W18
//  #09 //033   ----------------------------------------
 BYTE   W18
 BYTE   An0  v120
 BYTE   W36
 BYTE   N05
 BYTE   W06
 BYTE   An0  v112
 BYTE   W06
 BYTE   An0  v064
 BYTE   W06
 BYTE   An0  v056
 BYTE   W06
 BYTE   An0  v088
 BYTE   W06
 BYTE   An0  v080
 BYTE   W06
 BYTE   An0  v032
 BYTE   W06
//  #09 //034   ----------------------------------------
 BYTE   An0  v024
 BYTE   W06
 BYTE   An0  v108
 BYTE   W06
 BYTE   An0  v100
 BYTE   W06
 BYTE   An0  v040
 BYTE   W06
 BYTE   An0  v032
 BYTE   W06
 BYTE   An0  v092
 BYTE   W06
 BYTE   An0  v084
 BYTE   W06
 BYTE   An0  v036
 BYTE   W06
 BYTE   An0  v028
 BYTE   W06
 BYTE   An0  v108
 BYTE   W06
 BYTE   An0  v100
 BYTE   W06
 BYTE   An0  v040
 BYTE   W06
 BYTE   An0  v032
 BYTE   W06
 BYTE   An0  v108
 BYTE   W06
 BYTE   An0  v100
 BYTE   W06
 BYTE   An0  v040
 BYTE   W06
//  #09 //035   ----------------------------------------
 BYTE   An0  v032
 BYTE   W11
 BYTE   GoTo
  POIN2 Label_019B4F36
 BYTE   FINE

//**************** Track 10 (Midi-Chn.9) ****************//

History2_010:
//  #10 //000   ----------------------------------------
 BYTE   KEYSH   History2_key+0
Label_0192A99A:
 BYTE   VOICE   2
 BYTE   PAN   c_v-11
 BYTE   VOL   33*History2_mvl/mxv
 BYTE   BEND   c_v+0
 BYTE   W06
 BYTE   N09  Gs1  v120
 BYTE   W12
 BYTE   Gs1  v064
 BYTE   W12
 BYTE   Gs1  v088
 BYTE   W12
 BYTE   Gs1  v032
 BYTE   W12
 BYTE   Gs1  v096
 BYTE   W12
 BYTE   Gs1  v040
 BYTE   W12
 BYTE   Gs1  v092
 BYTE   W12
 BYTE   Gs1  v036
 BYTE   W06
//  #10 //001   ----------------------------------------
Label_0192A9BC:
 BYTE   W06
 BYTE   N09  Gs1  v120
 BYTE   W12
 BYTE   Gs1  v064
 BYTE   W12
 BYTE   Gs1  v088
 BYTE   W12
 BYTE   Gs1  v032
 BYTE   W12
 BYTE   Gs1  v096
 BYTE   W12
 BYTE   Gs1  v040
 BYTE   W12
 BYTE   Gs1  v092
 BYTE   W12
 BYTE   Gs1  v036
 BYTE   W06
 BYTE   PEND 
//  #10 //002   ----------------------------------------
Label_0192A9D7:
 BYTE   W06
 BYTE   N09  En1  v120
 BYTE   W12
 BYTE   En1  v064
 BYTE   W12
 BYTE   En1  v088
 BYTE   W12
 BYTE   En1  v032
 BYTE   W12
 BYTE   Ds1  v096
 BYTE   W12
 BYTE   Ds1  v040
 BYTE   W12
 BYTE   Ds1  v092
 BYTE   W12
 BYTE   Ds1  v036
 BYTE   W06
 BYTE   PEND 
//  #10 //003   ----------------------------------------
Label_0192A9F2:
 BYTE   W06
 BYTE   N09  Cs1  v120
 BYTE   W12
 BYTE   Cs1  v064
 BYTE   W12
 BYTE   Cs1  v088
 BYTE   W12
 BYTE   Cs1  v032
 BYTE   W12
 BYTE   Ds1  v096
 BYTE   W12
 BYTE   Ds1  v040
 BYTE   W12
 BYTE   Ds1  v092
 BYTE   W12
 BYTE   Ds1  v036
 BYTE   W06
 BYTE   PEND 
//  #10 //004   ----------------------------------------
 BYTE   PATT
  POIN2 Label_0192A9BC
//  #10 //005   ----------------------------------------
 BYTE   PATT
  POIN2 Label_0192A9BC
//  #10 //006   ----------------------------------------
 BYTE   PATT
  POIN2 Label_0192A9D7
//  #10 //007   ----------------------------------------
 BYTE   W06
 BYTE   N09  Cs1  v120
 BYTE   W12
 BYTE   Cs1  v064
 BYTE   W12
 BYTE   Cs1  v088
 BYTE   W12
 BYTE   Cs1  v032
 BYTE   W24
 BYTE   Cs2  v096
 BYTE   W12
 BYTE   Bn1  v108
 BYTE   W12
 BYTE   As1
 BYTE   W06
//  #10 //008   ----------------------------------------
 BYTE   W06
 BYTE   Gs1  v120
 BYTE   W12
 BYTE   Gs1  v064
 BYTE   W36
 BYTE   Gs1  v092
 BYTE   W12
 BYTE   Gs1  v120
 BYTE   W12
 BYTE   Gs1  v064
 BYTE   W18
//  #10 //009   ----------------------------------------
Label_0192AA42:
 BYTE   W30
 BYTE   N09  Gs1  v088
 BYTE   W12
 BYTE   Gs1  v032
 BYTE   W12
 BYTE   Gs1  v096
 BYTE   W12
 BYTE   Gs1  v040
 BYTE   W12
 BYTE   Gs1  v092
 BYTE   W12
 BYTE   Gs1  v036
 BYTE   W06
 BYTE   PEND 
//  #10 //010   ----------------------------------------
 BYTE   PATT
  POIN2 Label_0192A9D7
//  #10 //011   ----------------------------------------
 BYTE   PATT
  POIN2 Label_0192A9F2
//  #10 //012   ----------------------------------------
 BYTE   W06
 BYTE   N09  Gs1  v120
 BYTE   W12
 BYTE   Gs1  v064
 BYTE   W12
 BYTE   Gs1  v088
 BYTE   W12
 BYTE   Gs1  v032
 BYTE   W12
 BYTE   Gs1  v096
 BYTE   W12
 BYTE   Gs1  v040
 BYTE   W12
 BYTE   N02  Gs1  v092
 BYTE   W04
 BYTE   Gs1  v076
 BYTE   W04
 BYTE   Gs1  v060
 BYTE   W04
 BYTE   N03  Gs1  v080
 BYTE   W04
 BYTE   Gs1  v088
 BYTE   W02
//  #10 //013   ----------------------------------------
 BYTE   W02
 BYTE   Gs1  v100
 BYTE   W04
 BYTE   N23  Cs2  v120
 BYTE   W24
 BYTE   N09  Ds2
 BYTE   W12
 BYTE   Ds2  v064
 BYTE   W12
 BYTE   N23  Bn1  v120
 BYTE   W24
 BYTE   N09  Cs2
 BYTE   W12
 BYTE   Cs2  v064
 BYTE   W06
//  #10 //014   ----------------------------------------
 BYTE   W18
 BYTE   En1  v120
 BYTE   W12
 BYTE   En1  v064
 BYTE   W24
 BYTE   N23  Fs1  v120
 BYTE   W36
 BYTE   Gs1
 BYTE   W06
//  #10 //015   ----------------------------------------
 BYTE   PATT
  POIN2 Label_0192AA42
//  #10 //016   ----------------------------------------
 BYTE   W06
 BYTE   N44  An1  v080
 BYTE   W48
 BYTE   Gs1
 BYTE   W42
//  #10 //017   ----------------------------------------
 BYTE   W06
 BYTE   N92  Fs1
 BYTE   W90
//  #10 //018   ----------------------------------------
 BYTE   W06
 BYTE   N44  Dn2
 BYTE   W48
 BYTE   Cs2
 BYTE   W42
//  #10 //019   ----------------------------------------
 BYTE   W06
 BYTE   N92  Bn1
 BYTE   W90
//  #10 //020   ----------------------------------------
 BYTE   W06
 BYTE   Gn1
 BYTE   W90
//  #10 //021   ----------------------------------------
 BYTE   W06
 BYTE   N44  Fs1
 BYTE   W48
 BYTE   Bn1
 BYTE   W42
//  #10 //022   ----------------------------------------
 BYTE   W06
 BYTE   TIE  Cn2
 BYTE   W90
//  #10 //023   ----------------------------------------
 BYTE   W96
//  #10 //024   ----------------------------------------
 BYTE   W05
 BYTE   EOT
 BYTE   W01
 BYTE   N92  Cs2
 BYTE   W90
//  #10 //025   ----------------------------------------
 BYTE   W06
 BYTE   Fs1
 BYTE   W90
//  #10 //026   ----------------------------------------
Label_0192AADC:
 BYTE   W06
 BYTE   N32  Bn1  v100
 BYTE   W36
 BYTE   N23  Bn1  v120
 BYTE   W36
 BYTE   N32  Bn1  v100
 BYTE   W18
 BYTE   PEND 
//  #10 //027   ----------------------------------------
 BYTE   W18
 BYTE   N56  Bn1  v120
 BYTE   W60
 BYTE   N23  Gn1  v100
 BYTE   W18
//  #10 //028   ----------------------------------------
 BYTE   PATT
  POIN2 Label_0192AADC
//  #10 //029   ----------------------------------------
 BYTE   W18
 BYTE   N56  Bn1  v120
 BYTE   W60
 BYTE   N23  Gs1  v100
 BYTE   W18
//  #10 //030   ----------------------------------------
 BYTE   W06
 BYTE   N32  Cs2
 BYTE   W36
 BYTE   N23  Cs2  v120
 BYTE   W36
 BYTE   N32  Cs2  v100
 BYTE   W18
//  #10 //031   ----------------------------------------
 BYTE   W18
 BYTE   N56  Cs2  v120
 BYTE   W60
 BYTE   N24  An1  v100
 BYTE   W18
//  #10 //032   ----------------------------------------
 BYTE   W06
 BYTE   N32  Ds1  v120
 BYTE   W36
 BYTE   En1
 BYTE   W36
 BYTE   Fs1
 BYTE   W18
//  #10 //033   ----------------------------------------
 BYTE   W18
 BYTE   An1
 BYTE   W36
 BYTE   N21  An1  v088
 BYTE   W24
 BYTE   An1  v072
 BYTE   W18
//  #10 //034   ----------------------------------------
 BYTE   W06
 BYTE   An1  v104
 BYTE   W24
 BYTE   An1  v072
 BYTE   W24
 BYTE   An1  v088
 BYTE   W24
 BYTE   N04  An1  v104
 BYTE   W06
 BYTE   N17  An1  v112
 BYTE   W12
//  #10 //035   ----------------------------------------
 BYTE   W11
 BYTE   GoTo
  POIN2 Label_0192A99A
 BYTE   FINE

//**************** Track 11 (Midi-Chn.10) ****************//

History2_011:
//  #11 //000   ----------------------------------------
 BYTE   KEYSH   History2_key+0
HISTORYLABEL:
 BYTE   VOICE   124
 BYTE   VOL   28*History2_mvl/mxv
 BYTE   PAN   c_v+0
 BYTE   BEND   c_v+0
 BYTE   W03
 BYTE   N02  Dn1  v048
 BYTE   W03
 BYTE   N05  Dn1  v072
 BYTE   W06
 BYTE   Dn1  v032
 BYTE   W06
 BYTE   Dn1  v088
 BYTE   W06
 BYTE   Dn1  v048
 BYTE   W06
 BYTE   Dn1  v028
 BYTE   W06
 BYTE   Dn1  v068
 BYTE   W06
 BYTE   Dn1  v076
 BYTE   W06
 BYTE   N01  Dn1  v032
 BYTE   W03
 BYTE   Dn1  v052
 BYTE   W03
 BYTE   N05  Dn1  v080
 BYTE   W06
 BYTE   Dn1  v036
 BYTE   W06
 BYTE   Dn1  v028
 BYTE   W06
 BYTE   Dn1  v084
 BYTE   W06
 BYTE   Dn1  v040
 BYTE   W06
 BYTE   Dn1  v072
 BYTE   W06
 BYTE   Dn1  v048
 BYTE   W06
//  #11 //001   ----------------------------------------
 BYTE   Dn1  v036
 BYTE   W06
 BYTE   Dn1  v064
 BYTE   W06
 BYTE   Dn1  v028
 BYTE   W06
 BYTE   Dn1  v040
 BYTE   W06
 BYTE   Dn1  v068
 BYTE   W06
 BYTE   Dn1  v096
 BYTE   W06
 BYTE   Dn1  v036
 BYTE   W06
 BYTE   N03
 BYTE   W04
 BYTE   Dn1  v056
 BYTE   W04
 BYTE   Dn1  v072
 BYTE   W04
 BYTE   N05  Dn1  v036
 BYTE   W06
 BYTE   Dn1  v076
 BYTE   W06
 BYTE   Dn1  v040
 BYTE   W06
 BYTE   Dn1  v048
 BYTE   W06
 BYTE   Dn1  v080
 BYTE   W06
 BYTE   Dn1  v036
 BYTE   W06
 BYTE   Dn1  v072
 BYTE   W06
//  #11 //002   ----------------------------------------
 BYTE   Dn1  v080
 BYTE   W06
 BYTE   Dn1  v044
 BYTE   W06
 BYTE   Dn1  v080
 BYTE   W06
 BYTE   Dn1  v056
 BYTE   W06
 BYTE   Dn1  v024
 BYTE   W06
 BYTE   Dn1  v028
 BYTE   W06
 BYTE   Dn1  v064
 BYTE   W06
 BYTE   Dn1  v076
 BYTE   W06
 BYTE   N01  Dn1  v040
 BYTE   W03
 BYTE   Dn1  v052
 BYTE   W03
 BYTE   N05  Dn1  v080
 BYTE   W06
 BYTE   Dn1  v036
 BYTE   W06
 BYTE   Dn1  v028
 BYTE   W06
 BYTE   Dn1  v084
 BYTE   W06
 BYTE   Dn1  v040
 BYTE   W06
 BYTE   Dn1  v072
 BYTE   W06
 BYTE   Dn1  v048
 BYTE   W06
//  #11 //003   ----------------------------------------
Label_019B538A:
 BYTE   N05  Dn1  v036
 BYTE   W06
 BYTE   Dn1  v072
 BYTE   W06
 BYTE   N05
 BYTE   W06
 BYTE   Dn1  v028
 BYTE   W06
 BYTE   N05
 BYTE   W06
 BYTE   Dn1  v084
 BYTE   W06
 BYTE   Dn1  v056
 BYTE   W06
 BYTE   Dn1  v032
 BYTE   W06
 BYTE   Dn1  v068
 BYTE   W06
 BYTE   Dn1  v036
 BYTE   W06
 BYTE   Dn1  v076
 BYTE   W06
 BYTE   Dn1  v088
 BYTE   W06
 BYTE   N01  Dn1  v052
 BYTE   W03
 BYTE   Dn1  v064
 BYTE   W03
 BYTE   N05  Dn1  v088
 BYTE   W06
 BYTE   N05
 BYTE   W06
 BYTE   N03  Dn1  v064
 BYTE   W04
 BYTE   Dn1  v044
 BYTE   W02
 BYTE   PEND 
//  #11 //004   ----------------------------------------
 BYTE   W02
 BYTE   Dn1  v048
 BYTE   W04
 BYTE   N05  Dn1  v072
 BYTE   W12
 BYTE   Dn1  v084
 BYTE   W12
 BYTE   Dn1  v028
 BYTE   W06
 BYTE   Dn1  v068
 BYTE   W06
 BYTE   Dn1  v076
 BYTE   W06
 BYTE   N01  Dn1  v040
 BYTE   W03
 BYTE   Dn1  v052
 BYTE   W03
 BYTE   N05  Dn1  v080
 BYTE   W06
 BYTE   Dn1  v036
 BYTE   W06
 BYTE   Dn1  v028
 BYTE   W06
 BYTE   Dn1  v084
 BYTE   W06
 BYTE   Dn1  v040
 BYTE   W06
 BYTE   Dn1  v072
 BYTE   W06
 BYTE   Dn1  v048
 BYTE   W06
//  #11 //005   ----------------------------------------
 BYTE   Dn1  v036
 BYTE   W06
 BYTE   Dn1  v064
 BYTE   W06
 BYTE   Dn1  v024
 BYTE   W06
 BYTE   Dn1  v040
 BYTE   W06
 BYTE   Dn1  v068
 BYTE   W06
 BYTE   Dn1  v096
 BYTE   W06
 BYTE   Dn1  v036
 BYTE   W06
 BYTE   N03  Dn1  v056
 BYTE   W04
 BYTE   Dn1  v068
 BYTE   W04
 BYTE   Dn1  v072
 BYTE   W04
 BYTE   N05  Dn1  v036
 BYTE   W06
 BYTE   Dn1  v076
 BYTE   W06
 BYTE   Dn1  v040
 BYTE   W06
 BYTE   Dn1  v048
 BYTE   W06
 BYTE   Dn1  v080
 BYTE   W06
 BYTE   Dn1  v036
 BYTE   W06
 BYTE   Dn1  v072
 BYTE   W06
//  #11 //006   ----------------------------------------
 BYTE   Dn1  v080
 BYTE   W06
 BYTE   Dn1  v044
 BYTE   W06
 BYTE   Dn1  v080
 BYTE   W06
 BYTE   Dn1  v056
 BYTE   W06
 BYTE   Dn1  v024
 BYTE   W06
 BYTE   Dn1  v076
 BYTE   W06
 BYTE   Dn1  v064
 BYTE   W06
 BYTE   Dn1  v052
 BYTE   W06
 BYTE   N01  Dn1  v040
 BYTE   W03
 BYTE   Dn1  v052
 BYTE   W03
 BYTE   N05  Dn1  v080
 BYTE   W06
 BYTE   Dn1  v036
 BYTE   W06
 BYTE   Dn1  v028
 BYTE   W06
 BYTE   Dn1  v084
 BYTE   W06
 BYTE   Dn1  v040
 BYTE   W06
 BYTE   Dn1  v072
 BYTE   W06
 BYTE   Dn1  v048
 BYTE   W06
//  #11 //007   ----------------------------------------
 BYTE   Dn1  v036
 BYTE   W06
 BYTE   Dn1  v072
 BYTE   W06
 BYTE   N05
 BYTE   W06
 BYTE   Dn1  v028
 BYTE   W06
 BYTE   N05
 BYTE   W06
 BYTE   Dn1  v084
 BYTE   W06
 BYTE   Dn1  v056
 BYTE   W06
 BYTE   Dn1  v032
 BYTE   W06
 BYTE   Dn1  v068
 BYTE   W06
 BYTE   Dn1  v036
 BYTE   W06
 BYTE   Dn1  v076
 BYTE   W06
 BYTE   Dn1  v044
 BYTE   W06
 BYTE   N01  Dn1  v052
 BYTE   W03
 BYTE   Dn1  v064
 BYTE   W03
 BYTE   N05  Dn1  v088
 BYTE   W06
 BYTE   Dn1  v108
 BYTE   W06
 BYTE   Dn1  v048
 BYTE   W06
//  #11 //008   ----------------------------------------
 BYTE   Dn1  v044
 BYTE   W06
 BYTE   N02  Dn1  v104
 BYTE   W03
 BYTE   Dn1  v068
 BYTE   W03
 BYTE   Dn1  v040
 BYTE   W03
 BYTE   Dn1  v012
 BYTE   W03
 BYTE   Dn1  v048
 BYTE   W03
 BYTE   N02
 BYTE   W03
 BYTE   Dn1  v060
 BYTE   W03
 BYTE   Dn1  v076
 BYTE   W03
 BYTE   N05
 BYTE   W06
 BYTE   Dn1  v068
 BYTE   W06
 BYTE   Dn1  v028
 BYTE   W06
 BYTE   N01  Dn1  v040
 BYTE   W03
 BYTE   Dn1  v072
 BYTE   W03
 BYTE   N05  Dn1  v108
 BYTE   W06
 BYTE   Dn1  v036
 BYTE   W06
 BYTE   Dn1  v104
 BYTE   W30
//  #11 //009   ----------------------------------------
 BYTE   Dn1  v036
 BYTE   W06
 BYTE   Dn1  v064
 BYTE   W06
 BYTE   Dn1  v024
 BYTE   W06
 BYTE   Dn1  v040
 BYTE   W06
 BYTE   Dn1  v068
 BYTE   W06
 BYTE   Dn1  v096
 BYTE   W06
 BYTE   Dn1  v036
 BYTE   W06
 BYTE   N03  Dn1  v072
 BYTE   W04
 BYTE   Dn1  v056
 BYTE   W04
 BYTE   Dn1  v048
 BYTE   W04
 BYTE   N05  Dn1  v036
 BYTE   W06
 BYTE   Dn1  v076
 BYTE   W06
 BYTE   Dn1  v040
 BYTE   W06
 BYTE   Dn1  v048
 BYTE   W06
 BYTE   Dn1  v080
 BYTE   W06
 BYTE   Dn1  v036
 BYTE   W06
 BYTE   Dn1  v072
 BYTE   W06
//  #11 //010   ----------------------------------------
 BYTE   Dn1  v080
 BYTE   W06
 BYTE   Dn1  v044
 BYTE   W06
 BYTE   Dn1  v080
 BYTE   W06
 BYTE   Dn1  v056
 BYTE   W06
 BYTE   Dn1  v024
 BYTE   W06
 BYTE   Dn1  v056
 BYTE   W06
 BYTE   Dn1  v084
 BYTE   W06
 BYTE   Dn1  v036
 BYTE   W06
 BYTE   N01  Dn1  v040
 BYTE   W03
 BYTE   Dn1  v052
 BYTE   W03
 BYTE   N05  Dn1  v080
 BYTE   W06
 BYTE   Dn1  v036
 BYTE   W06
 BYTE   Dn1  v028
 BYTE   W06
 BYTE   Dn1  v084
 BYTE   W06
 BYTE   Dn1  v040
 BYTE   W06
 BYTE   Dn1  v072
 BYTE   W06
 BYTE   Dn1  v048
 BYTE   W06
//  #11 //011   ----------------------------------------
 BYTE   PATT
  POIN2 Label_019B538A
//  #11 //012   ----------------------------------------
 BYTE   W02
 BYTE   N03  Dn1  v048
 BYTE   W04
 BYTE   N05  Dn1  v072
 BYTE   W06
 BYTE   Dn1  v032
 BYTE   W06
 BYTE   Dn1  v076
 BYTE   W06
 BYTE   Dn1  v024
 BYTE   W06
 BYTE   Dn1  v028
 BYTE   W06
 BYTE   Dn1  v068
 BYTE   W06
 BYTE   Dn1  v076
 BYTE   W06
 BYTE   N01  Dn1  v040
 BYTE   W03
 BYTE   Dn1  v052
 BYTE   W03
 BYTE   N05  Dn1  v080
 BYTE   W06
 BYTE   Dn1  v036
 BYTE   W06
 BYTE   Dn1  v028
 BYTE   W06
 BYTE   Dn1  v084
 BYTE   W06
 BYTE   Dn1  v040
 BYTE   W06
 BYTE   Dn1  v072
 BYTE   W06
 BYTE   Dn1  v048
 BYTE   W06
//  #11 //013   ----------------------------------------
 BYTE   Dn1  v036
 BYTE   W06
 BYTE   N02  Dn1  v080
 BYTE   W03
 BYTE   Dn1  v068
 BYTE   W03
 BYTE   Dn1  v036
 BYTE   W03
 BYTE   Dn1  v016
 BYTE   W03
 BYTE   Dn1  v048
 BYTE   W03
 BYTE   N02
 BYTE   W03
 BYTE   Dn1  v060
 BYTE   W03
 BYTE   Dn1  v076
 BYTE   W03
 BYTE   N05  Dn1  v104
 BYTE   W06
 BYTE   Dn1  v040
 BYTE   W06
 BYTE   Dn1  v028
 BYTE   W06
 BYTE   N01  Dn1  v040
 BYTE   W03
 BYTE   Dn1  v072
 BYTE   W03
 BYTE   N02  Dn1  v088
 BYTE   W03
 BYTE   Dn1  v040
 BYTE   W03
 BYTE   Dn1  v016
 BYTE   W03
 BYTE   Dn1  v024
 BYTE   W03
 BYTE   Dn1  v048
 BYTE   W03
 BYTE   N02
 BYTE   W03
 BYTE   Dn1  v060
 BYTE   W03
 BYTE   Dn1  v076
 BYTE   W03
 BYTE   N05  Dn1  v104
 BYTE   W06
 BYTE   Dn1  v044
 BYTE   W06
 BYTE   N05
 BYTE   W06
//  #11 //014   ----------------------------------------
 BYTE   Dn1  v088
 BYTE   W12
 BYTE   N01  Dn1  v052
 BYTE   W03
 BYTE   Dn1  v080
 BYTE   W03
 BYTE   N05  Dn1  v084
 BYTE   W12
 BYTE   Dn1  v028
 BYTE   W06
 BYTE   Dn1  v064
 BYTE   W06
 BYTE   Dn1  v076
 BYTE   W06
 BYTE   N01  Dn1  v040
 BYTE   W03
 BYTE   Dn1  v052
 BYTE   W03
 BYTE   N05  Dn1  v112
 BYTE   W06
 BYTE   Dn1  v036
 BYTE   W06
 BYTE   Dn1  v028
 BYTE   W06
 BYTE   Dn1  v044
 BYTE   W06
 BYTE   Dn1  v068
 BYTE   W06
 BYTE   Dn1  v072
 BYTE   W06
 BYTE   Dn1  v116
 BYTE   W06
//  #11 //015   ----------------------------------------
 BYTE   Dn1  v036
 BYTE   W06
 BYTE   Dn1  v032
 BYTE   W06
 BYTE   Dn1  v072
 BYTE   W06
 BYTE   Dn1  v028
 BYTE   W06
 BYTE   N05
 BYTE   W06
 BYTE   Dn1  v084
 BYTE   W06
 BYTE   Dn1  v056
 BYTE   W06
 BYTE   Dn1  v032
 BYTE   W06
 BYTE   Dn1  v068
 BYTE   W06
 BYTE   Dn1  v036
 BYTE   W06
 BYTE   Dn1  v076
 BYTE   W06
 BYTE   Dn1  v044
 BYTE   W06
 BYTE   N01  Dn1  v052
 BYTE   W03
 BYTE   Dn1  v064
 BYTE   W03
 BYTE   N05  Dn1  v088
 BYTE   W06
 BYTE   Dn1  v108
 BYTE   W06
 BYTE   Dn1  v048
 BYTE   W06
//  #11 //016   ----------------------------------------
 BYTE   Dn1  v044
 BYTE   W96
//  #11 //017   ----------------------------------------
 BYTE   W96
//  #11 //018   ----------------------------------------
 BYTE   W96
//  #11 //019   ----------------------------------------
 BYTE   W96
//  #11 //020   ----------------------------------------
 BYTE   W96
//  #11 //021   ----------------------------------------
 BYTE   W96
//  #11 //022   ----------------------------------------
 BYTE   W96
//  #11 //023   ----------------------------------------
 BYTE   W96
//  #11 //024   ----------------------------------------
 BYTE   W96
//  #11 //025   ----------------------------------------
 BYTE   W78
 BYTE   Dn1  v092
 BYTE   W08
 BYTE   Dn1  v104
 BYTE   W08
 BYTE   Dn1  v116
 BYTE   W02
//  #11 //026   ----------------------------------------
 BYTE   W06
 BYTE   Dn1  v100
 BYTE   W06
 BYTE   N01  Dn1  v044
 BYTE   W03
 BYTE   Dn1  v064
 BYTE   W03
 BYTE   N05  Dn1  v084
 BYTE   W06
 BYTE   Dn1  v064
 BYTE   W06
 BYTE   Dn1  v060
 BYTE   W06
 BYTE   Dn1  v072
 BYTE   W06
 BYTE   Dn1  v112
 BYTE   W06
 BYTE   Dn1  v048
 BYTE   W06
 BYTE   Dn1  v020
 BYTE   W12
 BYTE   Dn1  v108
 BYTE   W06
 BYTE   Dn1  v080
 BYTE   W06
 BYTE   Dn1  v100
 BYTE   W06
 BYTE   N01  Dn1  v044
 BYTE   W03
 BYTE   Dn1  v064
 BYTE   W03
 BYTE   N05  Dn1  v084
 BYTE   W06
//  #11 //027   ----------------------------------------
 BYTE   Dn1  v064
 BYTE   W06
 BYTE   Dn1  v080
 BYTE   W06
 BYTE   Dn1  v072
 BYTE   W06
 BYTE   Dn1  v112
 BYTE   W12
 BYTE   Dn1  v044
 BYTE   W06
 BYTE   Dn1  v100
 BYTE   W06
 BYTE   Dn1  v068
 BYTE   W06
 BYTE   Dn1  v080
 BYTE   W06
 BYTE   Dn1  v040
 BYTE   W06
 BYTE   Dn1  v108
 BYTE   W06
 BYTE   Dn1  v064
 BYTE   W06
 BYTE   Dn1  v068
 BYTE   W06
 BYTE   N03  Dn1  v104
 BYTE   W04
 BYTE   Dn1  v072
 BYTE   W04
 BYTE   Dn1  v056
 BYTE   W04
 BYTE   Dn1  v076
 BYTE   W04
 BYTE   Dn1  v084
 BYTE   W02
//  #11 //028   ----------------------------------------
 BYTE   W02
 BYTE   Dn1  v096
 BYTE   W04
 BYTE   N05  Dn1  v100
 BYTE   W06
 BYTE   N01  Dn1  v044
 BYTE   W03
 BYTE   Dn1  v064
 BYTE   W03
 BYTE   N05  Dn1  v084
 BYTE   W06
 BYTE   Dn1  v064
 BYTE   W06
 BYTE   Dn1  v076
 BYTE   W06
 BYTE   Dn1  v072
 BYTE   W06
 BYTE   Dn1  v112
 BYTE   W06
 BYTE   Dn1  v044
 BYTE   W06
 BYTE   Dn1  v020
 BYTE   W12
 BYTE   Dn1  v096
 BYTE   W06
 BYTE   Dn1  v080
 BYTE   W06
 BYTE   Dn1  v100
 BYTE   W06
 BYTE   N01  Dn1  v044
 BYTE   W03
 BYTE   Dn1  v064
 BYTE   W03
 BYTE   N05  Dn1  v084
 BYTE   W06
//  #11 //029   ----------------------------------------
 BYTE   Dn1  v064
 BYTE   W06
 BYTE   Dn1  v068
 BYTE   W06
 BYTE   Dn1  v072
 BYTE   W06
 BYTE   Dn1  v112
 BYTE   W12
 BYTE   Dn1  v044
 BYTE   W06
 BYTE   Dn1  v100
 BYTE   W06
 BYTE   Dn1  v068
 BYTE   W06
 BYTE   Dn1  v080
 BYTE   W06
 BYTE   Dn1  v040
 BYTE   W06
 BYTE   Dn1  v108
 BYTE   W06
 BYTE   Dn1  v064
 BYTE   W06
 BYTE   Dn1  v068
 BYTE   W06
 BYTE   Dn1  v104
 BYTE   W06
 BYTE   Dn1  v092
 BYTE   W06
 BYTE   N03  Dn1  v068
 BYTE   W04
 BYTE   Dn1  v092
 BYTE   W02
//  #11 //030   ----------------------------------------
 BYTE   W02
 BYTE   Dn1  v108
 BYTE   W04
 BYTE   N05  Dn1  v100
 BYTE   W06
 BYTE   N01  Dn1  v044
 BYTE   W03
 BYTE   Dn1  v064
 BYTE   W03
 BYTE   N05  Dn1  v084
 BYTE   W06
 BYTE   Dn1  v064
 BYTE   W06
 BYTE   Dn1  v072
 BYTE   W06
 BYTE   N05
 BYTE   W06
 BYTE   Dn1  v112
 BYTE   W12
 BYTE   Dn1  v060
 BYTE   W06
 BYTE   Dn1  v088
 BYTE   W06
 BYTE   Dn1  v068
 BYTE   W06
 BYTE   Dn1  v080
 BYTE   W06
 BYTE   Dn1  v100
 BYTE   W06
 BYTE   N01  Dn1  v044
 BYTE   W03
 BYTE   Dn1  v064
 BYTE   W03
 BYTE   N05  Dn1  v084
 BYTE   W06
//  #11 //031   ----------------------------------------
 BYTE   Dn1  v064
 BYTE   W06
 BYTE   Dn1  v080
 BYTE   W06
 BYTE   Dn1  v072
 BYTE   W06
 BYTE   Dn1  v108
 BYTE   W12
 BYTE   Dn1  v060
 BYTE   W06
 BYTE   Dn1  v100
 BYTE   W06
 BYTE   Dn1  v068
 BYTE   W06
 BYTE   Dn1  v080
 BYTE   W06
 BYTE   Dn1  v040
 BYTE   W06
 BYTE   Dn1  v108
 BYTE   W06
 BYTE   Dn1  v064
 BYTE   W06
 BYTE   Dn1  v068
 BYTE   W06
 BYTE   N03  Dn1  v104
 BYTE   W04
 BYTE   Dn1  v072
 BYTE   W04
 BYTE   Dn1  v056
 BYTE   W04
 BYTE   Dn1  v076
 BYTE   W04
 BYTE   Dn1  v084
 BYTE   W02
//  #11 //032   ----------------------------------------
 BYTE   W02
 BYTE   Dn1  v096
 BYTE   W04
 BYTE   N05  Dn1  v100
 BYTE   W06
 BYTE   N01  Dn1  v044
 BYTE   W03
 BYTE   Dn1  v064
 BYTE   W03
 BYTE   N05  Dn1  v084
 BYTE   W06
 BYTE   Dn1  v064
 BYTE   W06
 BYTE   Dn1  v084
 BYTE   W06
 BYTE   Dn1  v072
 BYTE   W06
 BYTE   Dn1  v120
 BYTE   W24
 BYTE   Dn1  v092
 BYTE   W06
 BYTE   Dn1  v080
 BYTE   W06
 BYTE   Dn1  v100
 BYTE   W06
 BYTE   N01  Dn1  v044
 BYTE   W03
 BYTE   Dn1  v064
 BYTE   W03
 BYTE   N05  Dn1  v084
 BYTE   W06
//  #11 //033   ----------------------------------------
 BYTE   Dn1  v064
 BYTE   W06
 BYTE   Dn1  v072
 BYTE   W06
 BYTE   N05
 BYTE   W06
 BYTE   Dn1  v127
 BYTE   W24
 BYTE   Dn1  v068
 BYTE   W06
 BYTE   Dn1  v056
 BYTE   W06
 BYTE   Dn1  v040
 BYTE   W06
 BYTE   Dn1  v092
 BYTE   W06
 BYTE   Dn1  v048
 BYTE   W06
 BYTE   Dn1  v052
 BYTE   W06
 BYTE   Dn1  v088
 BYTE   W06
 BYTE   Dn1  v080
 BYTE   W06
 BYTE   Dn1  v052
 BYTE   W06
//  #11 //034   ----------------------------------------
 BYTE   Dn1  v064
 BYTE   W06
 BYTE   Dn1  v088
 BYTE   W06
 BYTE   Dn1  v096
 BYTE   W06
 BYTE   Dn1  v048
 BYTE   W06
 BYTE   N02  Dn1  v056
 BYTE   W03
 BYTE   Dn1  v072
 BYTE   W03
 BYTE   N05  Dn1  v096
 BYTE   W06
 BYTE   Dn1  v044
 BYTE   W06
 BYTE   Dn1  v040
 BYTE   W06
 BYTE   Dn1  v072
 BYTE   W06
 BYTE   N02  Dn1  v056
 BYTE   W03
 BYTE   Dn1  v072
 BYTE   W03
 BYTE   N05  Dn1  v088
 BYTE   W06
 BYTE   Dn1  v040
 BYTE   W06
 BYTE   Dn1  v068
 BYTE   W06
 BYTE   Dn1  v088
 BYTE   W06
 BYTE   Dn1  v092
 BYTE   W06
 BYTE   Dn1  v052
 BYTE   W06
//  #11 //035   ----------------------------------------
 BYTE   N02  Dn1  v040
 BYTE   W03
 BYTE   Dn1  v056
 BYTE   W08
 BYTE   GoTo
  POIN2 HISTORYLABEL
 BYTE   FINE

//******************************************************//
	ALIGN 4

History2:
	BYTE	11	// NumTrks
	BYTE	0	// NumBlks
	BYTE	History2_pri	// Priority
	BYTE	History2_rev	// Reverb.
    
	POIN2	History2_grp
    
	POIN2	History2_001
	POIN2	History2_002
	POIN2	History2_003
	POIN2	History2_004
	POIN2	History2_005
	POIN2	History2_006
	POIN2	History2_007
	POIN2	History2_008
	POIN2	History2_009
	POIN2	History2_010
	POIN2	History2_011

	
