//Event file generated from Sappy .s format.
	#include "MPlayDef.event"

	#define	song01_grp  voicegroup001
	#define	song01_pri  0
	#define	song01_rev  0
	#define	song01_mvl  127
	#define	song01_key  0
	#define	song01_tbs  1
	#define	song01_exg  0
	#define	song01_cmp  1

	// .rodata
	//	song01
	ALIGN 4


//**************** Track 1 (Midi-Chn.0) ****************//

song01_001:
// 000   ----------------------------------------
 BYTE   KEYSH   song01_key+0
Label_0_01303282:
 BYTE   TEMPO   170*song01_tbs/2
 BYTE   VOICE   40
 BYTE   MOD 0
 BYTE   CsM2
 BYTE   PAN   c_v+6
 BYTE   VOL   26*song01_mvl/mxv
 BYTE   BENDR  12
 BYTE   N11  Ds2  v100
 BYTE   N80  As2  v084
 BYTE   N11  Ds3  v100
 BYTE   N11  Fs3
 BYTE   W12
 BYTE   N05  As3
 BYTE   W12
 BYTE   Fn4
 BYTE   W12
 BYTE   As3
 BYTE   W12
 BYTE   Fs4
 BYTE   W12
 BYTE   As3
 BYTE   W12
 BYTE   Gs4
 BYTE   W12
 BYTE   N11  Ds2
 BYTE   TIE  Gs2  v072
 BYTE   N11  Ds3  v100
 BYTE   N11  Fs3
 BYTE   N05  As3
 BYTE   N05  Ds4
 BYTE   W12
// 001   ----------------------------------------
 BYTE   W12
 BYTE   Gs3
 BYTE   W12
 BYTE   Fn4
 BYTE   W12
 BYTE   Gs3
 BYTE   W12
 BYTE   Fs4
 BYTE   W12
 BYTE   Gs3
 BYTE   W12
 BYTE   Gs4
 BYTE   W12
 BYTE   Gs3
 BYTE   W11
 BYTE   EOT
 BYTE   Gs2
 BYTE   W01
// 002   ----------------------------------------
 BYTE   N11  Ds2
 BYTE   N56  As2  v068
 BYTE   N11  Ds3  v100
 BYTE   N11  Fs3
 BYTE   N05  Ds4
 BYTE   W12
 BYTE   As3
 BYTE   W12
 BYTE   Fn4
 BYTE   W12
 BYTE   As3
 BYTE   W12
 BYTE   Fs4
 BYTE   W12
 BYTE   N11  Ds2
 BYTE   N11  Fs2
 BYTE   N11  As2
 BYTE   N11  Ds3
 BYTE   N05  As3
 BYTE   W12
 BYTE   N11  Fn2
 BYTE   N11  Gs2
 BYTE   N11  Bn2
 BYTE   N11  Fn3
 BYTE   N05  Gs4
 BYTE   W12
 BYTE   N44  Gs0
 BYTE   N32  Fs2
 BYTE   N11  As2
 BYTE   N32  Ds3
 BYTE   N32  Fs3
 BYTE   N05  As3
 BYTE   W12
// 003   ----------------------------------------
 BYTE   N32  As2
 BYTE   N05  Ds4
 BYTE   W24
 BYTE   N11  Fs2
 BYTE   N05  Gs3
 BYTE   N05  Fn4
 BYTE   W12
 BYTE   N56  As0
 BYTE   N05  Ds2
 BYTE   N12  Gs2
 BYTE   N05  Ds3
 BYTE   N05  Ds4
 BYTE   W06
 BYTE   Fn2
 BYTE   N05  Fn3
 BYTE   N05  Fn4
 BYTE   W06
 BYTE   Gs2
 BYTE   N05  Fs3
 BYTE   N05  As3
 BYTE   N05  Fs4
 BYTE   W12
 BYTE   Fn2
 BYTE   N05  Fn3
 BYTE   N05  Gs3
 BYTE   N05  Fn4
 BYTE   W12
 BYTE   Ds2
 BYTE   N05  Ds3
 BYTE   N05  Fs3
 BYTE   N05  Ds4
 BYTE   W12
 BYTE   Cs2
 BYTE   N05  Cs3
 BYTE   N05  Fn3
 BYTE   N05  Cs4
 BYTE   W12
// 004   ----------------------------------------
 BYTE   N80  Ds1
 BYTE   N11  Ds2
 BYTE   N80  As2
 BYTE   N05  Ds3
 BYTE   N05  Fs3
 BYTE   N05  Ds4
 BYTE   W12
 BYTE   As3
 BYTE   W12
 BYTE   Fn4
 BYTE   W12
 BYTE   As3
 BYTE   W12
 BYTE   Fs4
 BYTE   W12
 BYTE   As3
 BYTE   W12
 BYTE   Gs4
 BYTE   W12
 BYTE   N92  Cs1
 BYTE   N11  Ds2
 BYTE   N05  Ds3
 BYTE   N05  Fs3
 BYTE   N05  As3
 BYTE   N05  Ds4
 BYTE   W12
// 005   ----------------------------------------
 BYTE   W12
 BYTE   Gs3
 BYTE   W12
 BYTE   Fn4
 BYTE   W12
 BYTE   Gs3
 BYTE   W12
 BYTE   N11  Gs1
 BYTE   N11  Fs2
 BYTE   N05  Fs4
 BYTE   W12
 BYTE   N11  As1
 BYTE   N11  Gs2
 BYTE   N05  Gs3
 BYTE   N05  Fn4
 BYTE   W12
 BYTE   N11  Bn1
 BYTE   N11  As2
 BYTE   N05  Ds4
 BYTE   W12
 BYTE   N92  Bn0
 BYTE   TIE  Cs2  v048
 BYTE   N92  Cs3
 BYTE   N11  Gs3  v100
 BYTE   N92  Cs4
 BYTE   W12
// 006   ----------------------------------------
 BYTE   N80  Fs3
 BYTE   W60
 BYTE   N11  Gs1
 BYTE   W12
 BYTE   As1
 BYTE   W12
 BYTE   N44  Gs0
 BYTE   N11  Bn1
 BYTE   N44  Bn2
 BYTE   N44  Ds3
 BYTE   N44  Fs3
 BYTE   W11
 BYTE   EOT
 BYTE   Cs2
 BYTE   W01
// 007   ----------------------------------------
 BYTE   N11
 BYTE   N92  As4
 BYTE   W12
 BYTE   N11  Fs2
 BYTE   W12
 BYTE   As2
 BYTE   W12
 BYTE   N56  As0
 BYTE   N56  Cs3
 BYTE   N56  Fn3
 BYTE   N56  Gs3
 BYTE   W12
 BYTE   N11  Gs2
 BYTE   W12
 BYTE   Fs2
 BYTE   W12
 BYTE   Fn2
 BYTE   W12
 BYTE   Cs2
 BYTE   W12
// 008   ----------------------------------------
 BYTE   W96
// 009   ----------------------------------------
 BYTE   W96
// 010   ----------------------------------------
 BYTE   W96
// 011   ----------------------------------------
 BYTE   W96
// 012   ----------------------------------------
 BYTE   W96
// 013   ----------------------------------------
 BYTE   W96
// 014   ----------------------------------------
 BYTE   W96
// 015   ----------------------------------------
 BYTE   W96
// 016   ----------------------------------------
 BYTE   W96
// 017   ----------------------------------------
 BYTE   W96
// 018   ----------------------------------------
 BYTE   W96
// 019   ----------------------------------------
 BYTE   W96
// 020   ----------------------------------------
 BYTE   W96
// 021   ----------------------------------------
 BYTE   W96
// 022   ----------------------------------------
 BYTE   W96
// 023   ----------------------------------------
 BYTE   W96
// 024   ----------------------------------------
 BYTE   W96
// 025   ----------------------------------------
 BYTE   W96
// 026   ----------------------------------------
 BYTE   W96
// 027   ----------------------------------------
 BYTE   W96
// 028   ----------------------------------------
 BYTE   W96
// 029   ----------------------------------------
 BYTE   W96
// 030   ----------------------------------------
 BYTE   W96
// 031   ----------------------------------------
 BYTE   W96
// 032   ----------------------------------------
 BYTE   W96
// 033   ----------------------------------------
 BYTE   W96
// 034   ----------------------------------------
 BYTE   W48
 BYTE   TEMPO   174*song01_tbs/2
 BYTE   W48
// 035   ----------------------------------------
 BYTE   W96
// 036   ----------------------------------------
 BYTE   W96
// 037   ----------------------------------------
 BYTE   W96
// 038   ----------------------------------------
 BYTE   W96
// 039   ----------------------------------------
 BYTE   W96
// 040   ----------------------------------------
 BYTE   W96
// 041   ----------------------------------------
 BYTE   W96
// 042   ----------------------------------------
 BYTE   W96
// 043   ----------------------------------------
 BYTE   W96
// 044   ----------------------------------------
 BYTE   W96
// 045   ----------------------------------------
 BYTE   W96
// 046   ----------------------------------------
 BYTE   W96
// 047   ----------------------------------------
 BYTE   W96
// 048   ----------------------------------------
 BYTE   W96
// 049   ----------------------------------------
 BYTE   W96
// 050   ----------------------------------------
 BYTE   W96
// 051   ----------------------------------------
 BYTE   W96
// 052   ----------------------------------------
 BYTE   W96
// 053   ----------------------------------------
 BYTE   W96
// 054   ----------------------------------------
 BYTE   W96
// 055   ----------------------------------------
 BYTE   W96
// 056   ----------------------------------------
 BYTE   W96
// 057   ----------------------------------------
 BYTE   W96
// 058   ----------------------------------------
 BYTE   W96
// 059   ----------------------------------------
 BYTE   W96
// 060   ----------------------------------------
 BYTE   W96
// 061   ----------------------------------------
 BYTE   W96
// 062   ----------------------------------------
 BYTE   W96
// 063   ----------------------------------------
 BYTE   W96
// 064   ----------------------------------------
 BYTE   W96
// 065   ----------------------------------------
 BYTE   W96
// 066   ----------------------------------------
 BYTE   W92
 BYTE   W03
 BYTE   GoTo
  POIN2 Label_0_01303282
 BYTE   FINE

//**************** Track 2 (Midi-Chn.1) ****************//

song01_002:
// 000   ----------------------------------------
 BYTE   KEYSH   song01_key+0
Label_1_01302CD2:
 BYTE   VOICE   28
 BYTE   PAN   c_v+14
 BYTE   VOL   23*song01_mvl/mxv
 BYTE   BENDR  12
 BYTE   W96
// 001   ----------------------------------------
 BYTE   W96
// 002   ----------------------------------------
 BYTE   W96
// 003   ----------------------------------------
 BYTE   W96
// 004   ----------------------------------------
 BYTE   W96
// 005   ----------------------------------------
 BYTE   W96
// 006   ----------------------------------------
 BYTE   W96
// 007   ----------------------------------------
 BYTE   W96
// 008   ----------------------------------------
Label_1_01302CE2:
 BYTE   N92  Ds2  v100
 BYTE   W12
 BYTE   N80  Fs2
 BYTE   W12
 BYTE   N68  As2
 BYTE   W12
 BYTE   N56  Ds3
 BYTE   W60
 BYTE   PEND 
// 009   ----------------------------------------
Label_1_01302CF0:
 BYTE   N92  Cs2  v100
 BYTE   W12
 BYTE   N80  Fs2
 BYTE   W12
 BYTE   N68  As2
 BYTE   W12
 BYTE   N56  Ds3
 BYTE   W60
 BYTE   PEND 
// 010   ----------------------------------------
Label_1_01302CFE:
 BYTE   N56  Ds2  v100
 BYTE   W12
 BYTE   N44  Fs2
 BYTE   W12
 BYTE   N32  As2
 BYTE   W12
 BYTE   N23  Ds3
 BYTE   W24
 BYTE   N11  Cs2
 BYTE   W01
 BYTE   Fs2
 BYTE   W01
 BYTE   N10  As2
 BYTE   W10
 BYTE   N11  Fn2
 BYTE   W01
 BYTE   Gs2
 BYTE   W01
 BYTE   N10  Bn2
 BYTE   W10
 BYTE   N44  Fs2
 BYTE   W01
 BYTE   As2
 BYTE   W01
 BYTE   Cs3
 BYTE   W10
 BYTE   PEND 
// 011   ----------------------------------------
Label_1_01302D23:
 BYTE   W36
 BYTE   N56  Fn2  v100
 BYTE   W01
 BYTE   Gs2
 BYTE   W01
 BYTE   Cs3
 BYTE   W22
 BYTE   N32  Gs3
 BYTE   W36
 BYTE   PEND 
// 012   ----------------------------------------
 BYTE   PATT
  POIN2 Label_1_01302CE2
// 013   ----------------------------------------
 BYTE   PATT
  POIN2 Label_1_01302CF0
// 014   ----------------------------------------
 BYTE   PATT
  POIN2 Label_1_01302CFE
// 015   ----------------------------------------
 BYTE   PATT
  POIN2 Label_1_01302D23
// 016   ----------------------------------------
 BYTE   W96
// 017   ----------------------------------------
 BYTE   W96
// 018   ----------------------------------------
 BYTE   W96
// 019   ----------------------------------------
 BYTE   W96
// 020   ----------------------------------------
 BYTE   W96
// 021   ----------------------------------------
 BYTE   W96
// 022   ----------------------------------------
 BYTE   W96
// 023   ----------------------------------------
 BYTE   W96
// 024   ----------------------------------------
 BYTE   W96
// 025   ----------------------------------------
 BYTE   W96
// 026   ----------------------------------------
 BYTE   W96
// 027   ----------------------------------------
 BYTE   W96
// 028   ----------------------------------------
 BYTE   W96
// 029   ----------------------------------------
 BYTE   W96
// 030   ----------------------------------------
 BYTE   W96
// 031   ----------------------------------------
 BYTE   W96
// 032   ----------------------------------------
 BYTE   W96
// 033   ----------------------------------------
 BYTE   W96
// 034   ----------------------------------------
 BYTE   W96
// 035   ----------------------------------------
 BYTE   W96
// 036   ----------------------------------------
 BYTE   W96
// 037   ----------------------------------------
 BYTE   W96
// 038   ----------------------------------------
 BYTE   W96
// 039   ----------------------------------------
 BYTE   W96
// 040   ----------------------------------------
 BYTE   W96
// 041   ----------------------------------------
 BYTE   W96
// 042   ----------------------------------------
 BYTE   W96
// 043   ----------------------------------------
 BYTE   W96
// 044   ----------------------------------------
 BYTE   W96
// 045   ----------------------------------------
 BYTE   W96
// 046   ----------------------------------------
 BYTE   W96
// 047   ----------------------------------------
 BYTE   W96
// 048   ----------------------------------------
 BYTE   W96
// 049   ----------------------------------------
 BYTE   W96
// 050   ----------------------------------------
 BYTE   W96
// 051   ----------------------------------------
 BYTE   W96
// 052   ----------------------------------------
 BYTE   W96
// 053   ----------------------------------------
 BYTE   W96
// 054   ----------------------------------------
 BYTE   W96
// 055   ----------------------------------------
 BYTE   W96
// 056   ----------------------------------------
 BYTE   W96
// 057   ----------------------------------------
 BYTE   W96
// 058   ----------------------------------------
 BYTE   W96
// 059   ----------------------------------------
 BYTE   W96
// 060   ----------------------------------------
 BYTE   W96
// 061   ----------------------------------------
 BYTE   W96
// 062   ----------------------------------------
 BYTE   W96
// 063   ----------------------------------------
 BYTE   W96
// 064   ----------------------------------------
 BYTE   W96
// 065   ----------------------------------------
 BYTE   W96
// 066   ----------------------------------------
 BYTE   W92
 BYTE   W03
 BYTE   GoTo
  POIN2 Label_1_01302CD2
 BYTE   FINE

//**************** Track 3 (Midi-Chn.2) ****************//

song01_003:
// 000   ----------------------------------------
 BYTE   KEYSH   song01_key+0
Label_2_01302A9A:
 BYTE   VOICE   36
 BYTE   VOL   26*song01_mvl/mxv
 BYTE   PAN   c_v-8
 BYTE   BENDR  12
 BYTE   W96
// 001   ----------------------------------------
 BYTE   W96
// 002   ----------------------------------------
 BYTE   W96
// 003   ----------------------------------------
 BYTE   W96
// 004   ----------------------------------------
 BYTE   W96
// 005   ----------------------------------------
 BYTE   W96
// 006   ----------------------------------------
 BYTE   W96
// 007   ----------------------------------------
 BYTE   W96
// 008   ----------------------------------------
Label_2_01302AAA:
 BYTE   N80  Ds2  v100
 BYTE   W84
 BYTE   TIE  Cs2
 BYTE   W12
 BYTE   PEND 
// 009   ----------------------------------------
 BYTE   W92
 BYTE   W03
 BYTE   EOT
 BYTE   W01
// 010   ----------------------------------------
 BYTE   N56  Bn1
 BYTE   W60
 BYTE   N11  Fs1
 BYTE   W12
 BYTE   Gn1
 BYTE   W12
 BYTE   N44  Gs1
 BYTE   W12
// 011   ----------------------------------------
 BYTE   W36
 BYTE   N56  As1
 BYTE   W60
// 012   ----------------------------------------
 BYTE   PATT
  POIN2 Label_2_01302AAA
// 013   ----------------------------------------
 BYTE   W92
 BYTE   W03
 BYTE   EOT
 BYTE   Cs2
 BYTE   W01
// 014   ----------------------------------------
Label_2_01302ACF:
 BYTE   N56  Bn1  v100
 BYTE   W60
 BYTE   N11  Fs1
 BYTE   W12
 BYTE   Gn1
 BYTE   W12
 BYTE   N23  Gs1
 BYTE   W12
 BYTE   PEND 
// 015   ----------------------------------------
 BYTE   W12
 BYTE   N11  Fs1
 BYTE   W12
 BYTE   Gs1
 BYTE   W12
 BYTE   N56  As1
 BYTE   W60
// 016   ----------------------------------------
Label_2_01302AE5:
 BYTE   N11  Ds2  v100
 BYTE   W12
 BYTE   N11
 BYTE   W48
 BYTE   Ds1
 BYTE   W12
 BYTE   As1
 BYTE   W12
 BYTE   Ds2
 BYTE   W12
 BYTE   PEND 
// 017   ----------------------------------------
 BYTE   Cs2
 BYTE   W96
// 018   ----------------------------------------
 BYTE   Bn1
 BYTE   W12
 BYTE   N11
 BYTE   W48
 BYTE   Fs1
 BYTE   W12
 BYTE   Gn1
 BYTE   W12
 BYTE   N44  Gs1
 BYTE   W12
// 019   ----------------------------------------
 BYTE   W36
 BYTE   N56  As1
 BYTE   W60
// 020   ----------------------------------------
 BYTE   PATT
  POIN2 Label_2_01302AE5
// 021   ----------------------------------------
 BYTE   N11  Cs2  v100
 BYTE   W96
// 022   ----------------------------------------
Label_2_01302B0C:
 BYTE   N44  Gs1  v100
 BYTE   W48
 BYTE   As1
 BYTE   W48
 BYTE   PEND 
// 023   ----------------------------------------
Label_2_01302B13:
 BYTE   N44  Bn1  v100
 BYTE   W48
 BYTE   Cs2
 BYTE   W48
 BYTE   PEND 
// 024   ----------------------------------------
 BYTE   N11  Ds2
 BYTE   W12
 BYTE   As1
 BYTE   W12
 BYTE   Ds2
 BYTE   W12
 BYTE   N23
 BYTE   W24
 BYTE   N11  As1
 BYTE   W12
 BYTE   Ds1
 BYTE   W12
 BYTE   Fs1
 BYTE   W12
// 025   ----------------------------------------
 BYTE   Cs2
 BYTE   W12
 BYTE   Gs1
 BYTE   W12
 BYTE   Cs2
 BYTE   W12
 BYTE   Gs1
 BYTE   W12
 BYTE   Cs2
 BYTE   W12
 BYTE   Gs1
 BYTE   W12
 BYTE   Cs2
 BYTE   W12
 BYTE   Gs1
 BYTE   W12
// 026   ----------------------------------------
 BYTE   PATT
  POIN2 Label_2_01302ACF
// 027   ----------------------------------------
 BYTE   W12
 BYTE   N11  Fs1  v100
 BYTE   W12
 BYTE   Gs1
 BYTE   W12
 BYTE   N23  As1
 BYTE   W24
 BYTE   N11
 BYTE   W12
 BYTE   N11
 BYTE   W12
 BYTE   N11
 BYTE   W12
// 028   ----------------------------------------
 BYTE   Ds2
 BYTE   W12
 BYTE   As1
 BYTE   W12
 BYTE   Ds2
 BYTE   W12
 BYTE   N23
 BYTE   W24
 BYTE   N11  As1
 BYTE   W12
 BYTE   N23  Ds2
 BYTE   W24
// 029   ----------------------------------------
 BYTE   N11  Cs2
 BYTE   W12
 BYTE   Fs1
 BYTE   W12
 BYTE   Cs2
 BYTE   W12
 BYTE   N23
 BYTE   W24
 BYTE   N11  Fs1
 BYTE   W12
 BYTE   N23  Cs2
 BYTE   W24
// 030   ----------------------------------------
 BYTE   PATT
  POIN2 Label_2_01302B0C
// 031   ----------------------------------------
 BYTE   PATT
  POIN2 Label_2_01302B13
// 032   ----------------------------------------
 BYTE   PATT
  POIN2 Label_2_01302B0C
// 033   ----------------------------------------
 BYTE   N32  Bn1  v100
 BYTE   W36
 BYTE   TIE  Cs2
 BYTE   W60
// 034   ----------------------------------------
 BYTE   W60
 BYTE   N11  As1  v127
 BYTE   W12
 BYTE   N23  Fs2  v124
 BYTE   W23
 BYTE   EOT
 BYTE   Cs2
 BYTE   W01
// 035   ----------------------------------------
Label_2_01302B8E:
 BYTE   N23  Bn1  v080
 BYTE   W24
 BYTE   N23
 BYTE   W24
 BYTE   N11
 BYTE   W12
 BYTE   N11
 BYTE   W12
 BYTE   N11
 BYTE   W12
 BYTE   N23  Cs2
 BYTE   W12
 BYTE   PEND 
// 036   ----------------------------------------
Label_2_01302B9E:
 BYTE   W12
 BYTE   N11  Gs1  v080
 BYTE   W12
 BYTE   N23  Cs2
 BYTE   W24
 BYTE   N11
 BYTE   W12
 BYTE   Gs1
 BYTE   W12
 BYTE   N23  Cs2
 BYTE   W24
 BYTE   PEND 
// 037   ----------------------------------------
Label_2_01302BAE:
 BYTE   N11  Ds2  v080
 BYTE   W12
 BYTE   N11
 BYTE   W12
 BYTE   N23  As1
 BYTE   W24
 BYTE   N11  Ds2
 BYTE   W12
 BYTE   N23
 BYTE   W24
 BYTE   Fs1
 BYTE   W12
 BYTE   PEND 
// 038   ----------------------------------------
Label_2_01302BBF:
 BYTE   W12
 BYTE   N11  Fs1  v080
 BYTE   W12
 BYTE   N23
 BYTE   W24
 BYTE   N11
 BYTE   W12
 BYTE   N11
 BYTE   W12
 BYTE   N11
 BYTE   W12
 BYTE   N11
 BYTE   W12
 BYTE   PEND 
// 039   ----------------------------------------
 BYTE   PATT
  POIN2 Label_2_01302B8E
// 040   ----------------------------------------
 BYTE   PATT
  POIN2 Label_2_01302B9E
// 041   ----------------------------------------
Label_2_01302BD9:
 BYTE   N11  Ds2  v080
 BYTE   W12
 BYTE   N11
 BYTE   W12
 BYTE   N23  As1
 BYTE   W24
 BYTE   N11  Ds2
 BYTE   W12
 BYTE   N23
 BYTE   W24
 BYTE   TIE  Fs1
 BYTE   W12
 BYTE   PEND 
// 042   ----------------------------------------
 BYTE   W92
 BYTE   W03
 BYTE   EOT
 BYTE   W01
// 043   ----------------------------------------
 BYTE   PATT
  POIN2 Label_2_01302B8E
// 044   ----------------------------------------
 BYTE   PATT
  POIN2 Label_2_01302B9E
// 045   ----------------------------------------
Label_2_01302BF9:
 BYTE   N44  Ds2  v080
 BYTE   W48
 BYTE   N32  Cs2
 BYTE   W36
 BYTE   N23  Bn1
 BYTE   W12
 BYTE   PEND 
// 046   ----------------------------------------
Label_2_01302C04:
 BYTE   W12
 BYTE   N11  Fs1  v080
 BYTE   W12
 BYTE   Cs2
 BYTE   W12
 BYTE   N56  Bn1
 BYTE   W60
 BYTE   PEND 
// 047   ----------------------------------------
 BYTE   PATT
  POIN2 Label_2_01302B8E
// 048   ----------------------------------------
 BYTE   PATT
  POIN2 Label_2_01302B9E
// 049   ----------------------------------------
 BYTE   PATT
  POIN2 Label_2_01302BAE
// 050   ----------------------------------------
 BYTE   PATT
  POIN2 Label_2_01302BBF
// 051   ----------------------------------------
 BYTE   PATT
  POIN2 Label_2_01302B8E
// 052   ----------------------------------------
 BYTE   PATT
  POIN2 Label_2_01302B9E
// 053   ----------------------------------------
 BYTE   PATT
  POIN2 Label_2_01302BAE
// 054   ----------------------------------------
 BYTE   PATT
  POIN2 Label_2_01302BBF
// 055   ----------------------------------------
 BYTE   PATT
  POIN2 Label_2_01302B8E
// 056   ----------------------------------------
 BYTE   PATT
  POIN2 Label_2_01302B9E
// 057   ----------------------------------------
 BYTE   PATT
  POIN2 Label_2_01302BAE
// 058   ----------------------------------------
 BYTE   PATT
  POIN2 Label_2_01302BBF
// 059   ----------------------------------------
 BYTE   PATT
  POIN2 Label_2_01302B8E
// 060   ----------------------------------------
 BYTE   PATT
  POIN2 Label_2_01302B9E
// 061   ----------------------------------------
 BYTE   PATT
  POIN2 Label_2_01302BF9
// 062   ----------------------------------------
 BYTE   PATT
  POIN2 Label_2_01302C04
// 063   ----------------------------------------
 BYTE   PATT
  POIN2 Label_2_01302B8E
// 064   ----------------------------------------
 BYTE   PATT
  POIN2 Label_2_01302B9E
// 065   ----------------------------------------
 BYTE   PATT
  POIN2 Label_2_01302BD9
// 066   ----------------------------------------
 BYTE   W92
 BYTE   W03
 BYTE   EOT
 BYTE   Fs1
 BYTE   GoTo
  POIN2 Label_2_01302A9A
 BYTE   FINE

//**************** Track 4 (Midi-Chn.3) ****************//

song01_004:
// 000   ----------------------------------------
 BYTE   KEYSH   song01_key+0
Label_3_01302F5E:
 BYTE   VOICE   29
 BYTE   PAN   c_v-20
 BYTE   VOL   25*song01_mvl/mxv
 BYTE   BENDR  12
 BYTE   W96
// 001   ----------------------------------------
 BYTE   W96
// 002   ----------------------------------------
 BYTE   W96
// 003   ----------------------------------------
 BYTE   W96
// 004   ----------------------------------------
 BYTE   W96
// 005   ----------------------------------------
 BYTE   W96
// 006   ----------------------------------------
 BYTE   W96
// 007   ----------------------------------------
 BYTE   W96
// 008   ----------------------------------------
 BYTE   W96
// 009   ----------------------------------------
 BYTE   W96
// 010   ----------------------------------------
 BYTE   W96
// 011   ----------------------------------------
 BYTE   W96
// 012   ----------------------------------------
 BYTE   W96
// 013   ----------------------------------------
 BYTE   W96
// 014   ----------------------------------------
 BYTE   W96
// 015   ----------------------------------------
 BYTE   W96
// 016   ----------------------------------------
Label_3_01302F76:
 BYTE   N11  Ds3  v100
 BYTE   W12
 BYTE   N11
 BYTE   W72
 BYTE   Cs3
 BYTE   W12
 BYTE   PEND 
// 017   ----------------------------------------
 BYTE   W96
// 018   ----------------------------------------
 BYTE   Ds3
 BYTE   W12
 BYTE   N11
 BYTE   W72
 BYTE   N44  Gs2
 BYTE   W12
// 019   ----------------------------------------
 BYTE   W36
 BYTE   N56  As2
 BYTE   W60
// 020   ----------------------------------------
 BYTE   PATT
  POIN2 Label_3_01302F76
// 021   ----------------------------------------
 BYTE   W96
// 022   ----------------------------------------
 BYTE   N44  Ds3  v100
 BYTE   W48
 BYTE   Fn3
 BYTE   W48
// 023   ----------------------------------------
 BYTE   Fs3
 BYTE   W48
 BYTE   Gs3
 BYTE   W48
// 024   ----------------------------------------
Label_3_01302F9B:
 BYTE   N11  Ds4  v100
 BYTE   W12
 BYTE   As3
 BYTE   W12
 BYTE   Ds4
 BYTE   W12
 BYTE   As3
 BYTE   W12
 BYTE   Ds4
 BYTE   W12
 BYTE   As3
 BYTE   W12
 BYTE   Ds4
 BYTE   W12
 BYTE   Cs4
 BYTE   W12
 BYTE   PEND 
// 025   ----------------------------------------
Label_3_01302FAE:
 BYTE   N11  Gs3  v100
 BYTE   W12
 BYTE   Cs4
 BYTE   W12
 BYTE   Gs3
 BYTE   W12
 BYTE   Cs4
 BYTE   W12
 BYTE   Gs3
 BYTE   W12
 BYTE   Cs4
 BYTE   W12
 BYTE   Gs3
 BYTE   W12
 BYTE   Cs4
 BYTE   W12
 BYTE   PEND 
// 026   ----------------------------------------
 BYTE   Bn3
 BYTE   W12
 BYTE   Fs3
 BYTE   W12
 BYTE   Bn3
 BYTE   W12
 BYTE   Fs3
 BYTE   W12
 BYTE   Bn3
 BYTE   W12
 BYTE   Fs3
 BYTE   W12
 BYTE   Bn3
 BYTE   W12
 BYTE   N23  Gs3
 BYTE   W12
// 027   ----------------------------------------
 BYTE   W12
 BYTE   N11  Fs3
 BYTE   W12
 BYTE   Gs3
 BYTE   W12
 BYTE   As3
 BYTE   W12
 BYTE   Fn3
 BYTE   W12
 BYTE   As3
 BYTE   W12
 BYTE   Fn3
 BYTE   W12
 BYTE   As3
 BYTE   W12
// 028   ----------------------------------------
 BYTE   PATT
  POIN2 Label_3_01302F9B
// 029   ----------------------------------------
 BYTE   PATT
  POIN2 Label_3_01302FAE
// 030   ----------------------------------------
Label_3_01302FEC:
 BYTE   N44  Gs3  v100
 BYTE   W48
 BYTE   As3
 BYTE   W48
 BYTE   PEND 
// 031   ----------------------------------------
 BYTE   Bn3
 BYTE   W48
 BYTE   Cs4
 BYTE   W48
// 032   ----------------------------------------
 BYTE   PATT
  POIN2 Label_3_01302FEC
// 033   ----------------------------------------
 BYTE   N32  Bn3  v100
 BYTE   W36
 BYTE   TIE  Cs4
 BYTE   W60
// 034   ----------------------------------------
 BYTE   W92
 BYTE   W03
 BYTE   EOT
 BYTE   W01
// 035   ----------------------------------------
Label_3_01303007:
 BYTE   N23  Bn2  v080
 BYTE   W24
 BYTE   N23
 BYTE   W24
 BYTE   N11
 BYTE   W12
 BYTE   N11
 BYTE   W12
 BYTE   N11
 BYTE   W12
 BYTE   N23  Cs3
 BYTE   W12
 BYTE   PEND 
// 036   ----------------------------------------
Label_3_01303017:
 BYTE   W12
 BYTE   N11  Cs3  v080
 BYTE   W12
 BYTE   N23
 BYTE   W24
 BYTE   N11
 BYTE   W12
 BYTE   N11
 BYTE   W12
 BYTE   N11
 BYTE   W12
 BYTE   N11
 BYTE   W12
 BYTE   PEND 
// 037   ----------------------------------------
Label_3_01303027:
 BYTE   N23  Ds3  v080
 BYTE   W24
 BYTE   N23
 BYTE   W24
 BYTE   N11
 BYTE   W24
 BYTE   N11
 BYTE   W12
 BYTE   N23  Fs3
 BYTE   W12
 BYTE   PEND 
// 038   ----------------------------------------
Label_3_01303035:
 BYTE   W12
 BYTE   N11  Fs3  v080
 BYTE   W12
 BYTE   N23
 BYTE   W24
 BYTE   N11
 BYTE   W12
 BYTE   N11
 BYTE   W12
 BYTE   N11
 BYTE   W12
 BYTE   N11
 BYTE   W12
 BYTE   PEND 
// 039   ----------------------------------------
 BYTE   PATT
  POIN2 Label_3_01303007
// 040   ----------------------------------------
 BYTE   PATT
  POIN2 Label_3_01303017
// 041   ----------------------------------------
 BYTE   PATT
  POIN2 Label_3_01303027
// 042   ----------------------------------------
 BYTE   PATT
  POIN2 Label_3_01303035
// 043   ----------------------------------------
 BYTE   PATT
  POIN2 Label_3_01303007
// 044   ----------------------------------------
 BYTE   PATT
  POIN2 Label_3_01303017
// 045   ----------------------------------------
Label_3_01303063:
 BYTE   N44  Ds3  v080
 BYTE   W48
 BYTE   N32  Cs3
 BYTE   W36
 BYTE   TIE  Bn2
 BYTE   W12
 BYTE   PEND 
// 046   ----------------------------------------
 BYTE   W92
 BYTE   W03
 BYTE   EOT
 BYTE   W01
// 047   ----------------------------------------
 BYTE   PATT
  POIN2 Label_3_01303007
// 048   ----------------------------------------
 BYTE   PATT
  POIN2 Label_3_01303017
// 049   ----------------------------------------
 BYTE   PATT
  POIN2 Label_3_01303027
// 050   ----------------------------------------
 BYTE   PATT
  POIN2 Label_3_01303035
// 051   ----------------------------------------
 BYTE   PATT
  POIN2 Label_3_01303007
// 052   ----------------------------------------
 BYTE   PATT
  POIN2 Label_3_01303017
// 053   ----------------------------------------
 BYTE   PATT
  POIN2 Label_3_01303027
// 054   ----------------------------------------
 BYTE   PATT
  POIN2 Label_3_01303035
// 055   ----------------------------------------
 BYTE   PATT
  POIN2 Label_3_01303007
// 056   ----------------------------------------
 BYTE   PATT
  POIN2 Label_3_01303017
// 057   ----------------------------------------
 BYTE   PATT
  POIN2 Label_3_01303027
// 058   ----------------------------------------
 BYTE   PATT
  POIN2 Label_3_01303035
// 059   ----------------------------------------
 BYTE   PATT
  POIN2 Label_3_01303007
// 060   ----------------------------------------
 BYTE   PATT
  POIN2 Label_3_01303017
// 061   ----------------------------------------
 BYTE   PATT
  POIN2 Label_3_01303063
// 062   ----------------------------------------
 BYTE   W92
 BYTE   W03
 BYTE   EOT
 BYTE   Bn2
 BYTE   W01
// 063   ----------------------------------------
 BYTE   PATT
  POIN2 Label_3_01303007
// 064   ----------------------------------------
 BYTE   PATT
  POIN2 Label_3_01303017
// 065   ----------------------------------------
 BYTE   PATT
  POIN2 Label_3_01303027
// 066   ----------------------------------------
 BYTE   W12
 BYTE   N11  Fs3  v080
 BYTE   W12
 BYTE   N23
 BYTE   W24
 BYTE   N11
 BYTE   W12
 BYTE   N11
 BYTE   W12
 BYTE   N11
 BYTE   W12
 BYTE   N11
 BYTE   W11
 BYTE   GoTo
  POIN2 Label_3_01302F5E
 BYTE   FINE

//**************** Track 5 (Midi-Chn.4) ****************//

song01_005:
// 000   ----------------------------------------
 BYTE   KEYSH   song01_key+0
Label_4_013025A2:
 BYTE   VOICE   29
 BYTE   PAN   c_v+8
 BYTE   VOL   25*song01_mvl/mxv
 BYTE   BENDR  12
 BYTE   W96
// 001   ----------------------------------------
 BYTE   W96
// 002   ----------------------------------------
 BYTE   W96
// 003   ----------------------------------------
 BYTE   W96
// 004   ----------------------------------------
 BYTE   W96
// 005   ----------------------------------------
 BYTE   W96
// 006   ----------------------------------------
 BYTE   W96
// 007   ----------------------------------------
 BYTE   W96
// 008   ----------------------------------------
 BYTE   W96
// 009   ----------------------------------------
 BYTE   W96
// 010   ----------------------------------------
 BYTE   W96
// 011   ----------------------------------------
 BYTE   W96
// 012   ----------------------------------------
 BYTE   W96
// 013   ----------------------------------------
 BYTE   W96
// 014   ----------------------------------------
 BYTE   W96
// 015   ----------------------------------------
 BYTE   W96
// 016   ----------------------------------------
Label_4_013025BA:
 BYTE   N11  As2  v100
 BYTE   W12
 BYTE   N11
 BYTE   W72
 BYTE   N11
 BYTE   W12
 BYTE   PEND 
// 017   ----------------------------------------
 BYTE   W96
// 018   ----------------------------------------
 BYTE   Bn2
 BYTE   W12
 BYTE   N11
 BYTE   W72
 BYTE   N44  Ds3
 BYTE   W12
// 019   ----------------------------------------
 BYTE   W36
 BYTE   N56  Cs3
 BYTE   W60
// 020   ----------------------------------------
 BYTE   PATT
  POIN2 Label_4_013025BA
// 021   ----------------------------------------
 BYTE   W96
// 022   ----------------------------------------
Label_4_013025D5:
 BYTE   N44  Bn2  v100
 BYTE   W48
 BYTE   Cs3
 BYTE   W48
 BYTE   PEND 
// 023   ----------------------------------------
Label_4_013025DC:
 BYTE   N44  Ds3  v100
 BYTE   W48
 BYTE   Fn3
 BYTE   W48
 BYTE   PEND 
// 024   ----------------------------------------
Label_4_013025E3:
 BYTE   N11  Ds3  v100
 BYTE   W12
 BYTE   N11
 BYTE   W12
 BYTE   N11
 BYTE   W12
 BYTE   N11
 BYTE   W12
 BYTE   N11
 BYTE   W12
 BYTE   N11
 BYTE   W12
 BYTE   N11
 BYTE   W12
 BYTE   Cs3
 BYTE   W12
 BYTE   PEND 
// 025   ----------------------------------------
Label_4_013025F6:
 BYTE   N11  Cs3  v100
 BYTE   W12
 BYTE   N11
 BYTE   W12
 BYTE   N11
 BYTE   W12
 BYTE   N11
 BYTE   W12
 BYTE   N11
 BYTE   W12
 BYTE   N11
 BYTE   W12
 BYTE   N11
 BYTE   W12
 BYTE   N11
 BYTE   W12
 BYTE   PEND 
// 026   ----------------------------------------
 BYTE   Bn2
 BYTE   W12
 BYTE   N11
 BYTE   W12
 BYTE   N11
 BYTE   W12
 BYTE   N11
 BYTE   W12
 BYTE   N11
 BYTE   W12
 BYTE   N11
 BYTE   W12
 BYTE   N11
 BYTE   W12
 BYTE   Gs2
 BYTE   W12
// 027   ----------------------------------------
 BYTE   N11
 BYTE   W12
 BYTE   N11
 BYTE   W12
 BYTE   N11
 BYTE   W12
 BYTE   As2
 BYTE   W12
 BYTE   N11
 BYTE   W12
 BYTE   N11
 BYTE   W12
 BYTE   N11
 BYTE   W12
 BYTE   N11
 BYTE   W12
// 028   ----------------------------------------
 BYTE   PATT
  POIN2 Label_4_013025E3
// 029   ----------------------------------------
 BYTE   PATT
  POIN2 Label_4_013025F6
// 030   ----------------------------------------
 BYTE   PATT
  POIN2 Label_4_013025D5
// 031   ----------------------------------------
 BYTE   PATT
  POIN2 Label_4_013025DC
// 032   ----------------------------------------
 BYTE   PATT
  POIN2 Label_4_013025D5
// 033   ----------------------------------------
 BYTE   N32  Ds3  v100
 BYTE   W36
 BYTE   TIE  Fn3
 BYTE   W60
// 034   ----------------------------------------
 BYTE   W92
 BYTE   W03
 BYTE   EOT
 BYTE   W01
// 035   ----------------------------------------
Label_4_0130264D:
 BYTE   N23  Bn2  v080
 BYTE   W24
 BYTE   N23
 BYTE   W24
 BYTE   N11
 BYTE   W12
 BYTE   N11
 BYTE   W12
 BYTE   N11
 BYTE   W12
 BYTE   N23  Cs3
 BYTE   W12
 BYTE   PEND 
// 036   ----------------------------------------
Label_4_0130265D:
 BYTE   W12
 BYTE   N11  Cs3  v080
 BYTE   W12
 BYTE   N23
 BYTE   W24
 BYTE   N11
 BYTE   W12
 BYTE   N11
 BYTE   W12
 BYTE   N11
 BYTE   W12
 BYTE   N11
 BYTE   W12
 BYTE   PEND 
// 037   ----------------------------------------
Label_4_0130266D:
 BYTE   N23  Ds3  v080
 BYTE   W24
 BYTE   N23
 BYTE   W24
 BYTE   N11
 BYTE   W24
 BYTE   N11
 BYTE   W12
 BYTE   N23  Fs3
 BYTE   W12
 BYTE   PEND 
// 038   ----------------------------------------
Label_4_0130267B:
 BYTE   W12
 BYTE   N11  Fs3  v080
 BYTE   W12
 BYTE   N23
 BYTE   W24
 BYTE   N11
 BYTE   W12
 BYTE   N11
 BYTE   W12
 BYTE   N11
 BYTE   W12
 BYTE   N11
 BYTE   W12
 BYTE   PEND 
// 039   ----------------------------------------
 BYTE   PATT
  POIN2 Label_4_0130264D
// 040   ----------------------------------------
 BYTE   PATT
  POIN2 Label_4_0130265D
// 041   ----------------------------------------
 BYTE   PATT
  POIN2 Label_4_0130266D
// 042   ----------------------------------------
 BYTE   PATT
  POIN2 Label_4_0130267B
// 043   ----------------------------------------
 BYTE   PATT
  POIN2 Label_4_0130264D
// 044   ----------------------------------------
 BYTE   PATT
  POIN2 Label_4_0130265D
// 045   ----------------------------------------
Label_4_013026A9:
 BYTE   N44  Ds3  v080
 BYTE   W48
 BYTE   N32  Cs3
 BYTE   W36
 BYTE   TIE  Bn2
 BYTE   W12
 BYTE   PEND 
// 046   ----------------------------------------
 BYTE   W92
 BYTE   W03
 BYTE   EOT
 BYTE   W01
// 047   ----------------------------------------
 BYTE   PATT
  POIN2 Label_4_0130264D
// 048   ----------------------------------------
 BYTE   PATT
  POIN2 Label_4_0130265D
// 049   ----------------------------------------
 BYTE   PATT
  POIN2 Label_4_0130266D
// 050   ----------------------------------------
 BYTE   PATT
  POIN2 Label_4_0130267B
// 051   ----------------------------------------
 BYTE   PATT
  POIN2 Label_4_0130264D
// 052   ----------------------------------------
 BYTE   PATT
  POIN2 Label_4_0130265D
// 053   ----------------------------------------
 BYTE   PATT
  POIN2 Label_4_0130266D
// 054   ----------------------------------------
 BYTE   PATT
  POIN2 Label_4_0130267B
// 055   ----------------------------------------
 BYTE   PATT
  POIN2 Label_4_0130264D
// 056   ----------------------------------------
 BYTE   PATT
  POIN2 Label_4_0130265D
// 057   ----------------------------------------
 BYTE   PATT
  POIN2 Label_4_0130266D
// 058   ----------------------------------------
 BYTE   PATT
  POIN2 Label_4_0130267B
// 059   ----------------------------------------
 BYTE   PATT
  POIN2 Label_4_0130264D
// 060   ----------------------------------------
 BYTE   PATT
  POIN2 Label_4_0130265D
// 061   ----------------------------------------
 BYTE   PATT
  POIN2 Label_4_013026A9
// 062   ----------------------------------------
 BYTE   W92
 BYTE   W03
 BYTE   EOT
 BYTE   Bn2
 BYTE   W01
// 063   ----------------------------------------
 BYTE   PATT
  POIN2 Label_4_0130264D
// 064   ----------------------------------------
 BYTE   PATT
  POIN2 Label_4_0130265D
// 065   ----------------------------------------
 BYTE   PATT
  POIN2 Label_4_0130266D
// 066   ----------------------------------------
 BYTE   W12
 BYTE   N11  Fs3  v080
 BYTE   W12
 BYTE   N23
 BYTE   W24
 BYTE   N11
 BYTE   W12
 BYTE   N11
 BYTE   W12
 BYTE   N11
 BYTE   W12
 BYTE   N11
 BYTE   W11
 BYTE   GoTo
  POIN2 Label_4_013025A2
 BYTE   FINE

//**************** Track 6 (Midi-Chn.5) ****************//

song01_006:
// 000   ----------------------------------------
 BYTE   KEYSH   song01_key+0
Label_5_01302782:
 BYTE   VOICE   49
 BYTE   VOL   30*song01_mvl/mxv
 BYTE   PAN   c_v+18
 BYTE   BENDR  12
 BYTE   W96
// 001   ----------------------------------------
 BYTE   W96
// 002   ----------------------------------------
 BYTE   W96
// 003   ----------------------------------------
 BYTE   W96
// 004   ----------------------------------------
 BYTE   W96
// 005   ----------------------------------------
 BYTE   W96
// 006   ----------------------------------------
 BYTE   W96
// 007   ----------------------------------------
 BYTE   W96
// 008   ----------------------------------------
 BYTE   W96
// 009   ----------------------------------------
 BYTE   W96
// 010   ----------------------------------------
 BYTE   W96
// 011   ----------------------------------------
 BYTE   W96
// 012   ----------------------------------------
 BYTE   W96
// 013   ----------------------------------------
 BYTE   W96
// 014   ----------------------------------------
 BYTE   W96
// 015   ----------------------------------------
 BYTE   W96
// 016   ----------------------------------------
Label_5_0130279A:
 BYTE   N05  Ds3  v100
 BYTE   N05  Fs3
 BYTE   N05  Ds4
 BYTE   W12
 BYTE   As3
 BYTE   W12
 BYTE   Fn4
 BYTE   W12
 BYTE   As3
 BYTE   W12
 BYTE   Fs4
 BYTE   W12
 BYTE   As3
 BYTE   W12
 BYTE   Gs4
 BYTE   W12
 BYTE   Ds3
 BYTE   N05  Fs3
 BYTE   N05  As3
 BYTE   N05  Ds4
 BYTE   W12
 BYTE   PEND 
// 017   ----------------------------------------
Label_5_013027B7:
 BYTE   W12
 BYTE   N05  Gs3  v100
 BYTE   W12
 BYTE   Fn4
 BYTE   W12
 BYTE   Gs3
 BYTE   W12
 BYTE   Fs4
 BYTE   W12
 BYTE   Gs3
 BYTE   W12
 BYTE   Gs4
 BYTE   W12
 BYTE   Gs3
 BYTE   W12
 BYTE   PEND 
// 018   ----------------------------------------
Label_5_013027C9:
 BYTE   N05  Ds3  v100
 BYTE   N05  Fs3
 BYTE   N05  Ds4
 BYTE   W12
 BYTE   As3
 BYTE   W12
 BYTE   Fn4
 BYTE   W12
 BYTE   As3
 BYTE   W12
 BYTE   Fs4
 BYTE   W12
 BYTE   As3
 BYTE   W12
 BYTE   Gs4
 BYTE   W12
 BYTE   Ds3
 BYTE   N05  Fs3
 BYTE   N23  Gs3
 BYTE   N05  As3
 BYTE   W12
 BYTE   PEND 
// 019   ----------------------------------------
Label_5_013027E6:
 BYTE   N05  Ds4  v100
 BYTE   W24
 BYTE   N11  Gs3
 BYTE   N05  Fn4
 BYTE   W12
 BYTE   Ds3
 BYTE   N05  Ds4
 BYTE   W06
 BYTE   Fn3
 BYTE   N05  Fn4
 BYTE   W06
 BYTE   Fs3
 BYTE   N05  As3
 BYTE   N05  Fs4
 BYTE   W12
 BYTE   Fn3
 BYTE   N05  Gs3
 BYTE   N05  Fn4
 BYTE   W12
 BYTE   Ds3
 BYTE   N05  Fs3
 BYTE   N05  Ds4
 BYTE   W12
 BYTE   Cs3
 BYTE   N05  Fn3
 BYTE   N05  Cs4
 BYTE   W12
 BYTE   PEND 
// 020   ----------------------------------------
 BYTE   PATT
  POIN2 Label_5_0130279A
// 021   ----------------------------------------
 BYTE   PATT
  POIN2 Label_5_013027B7
// 022   ----------------------------------------
 BYTE   PATT
  POIN2 Label_5_013027C9
// 023   ----------------------------------------
 BYTE   PATT
  POIN2 Label_5_013027E6
// 024   ----------------------------------------
 BYTE   PATT
  POIN2 Label_5_0130279A
// 025   ----------------------------------------
 BYTE   PATT
  POIN2 Label_5_013027B7
// 026   ----------------------------------------
 BYTE   PATT
  POIN2 Label_5_013027C9
// 027   ----------------------------------------
 BYTE   PATT
  POIN2 Label_5_013027E6
// 028   ----------------------------------------
 BYTE   PATT
  POIN2 Label_5_0130279A
// 029   ----------------------------------------
 BYTE   PATT
  POIN2 Label_5_013027B7
// 030   ----------------------------------------
Label_5_01302842:
 BYTE   N44  Gs1  v100
 BYTE   N44  Bn1  v088
 BYTE   N44  Ds3
 BYTE   N44  Bn3
 BYTE   N44  Gs4
 BYTE   W48
 BYTE   As1  v100
 BYTE   N44  Cs2  v088
 BYTE   N44  Fn3
 BYTE   N44  Cs4
 BYTE   N44  As4
 BYTE   W48
 BYTE   PEND 
// 031   ----------------------------------------
 BYTE   Bn1  v100
 BYTE   N44  Ds2  v080
 BYTE   N44  Bn3
 BYTE   N44  Ds4
 BYTE   N44  Bn4
 BYTE   W48
 BYTE   Cs2  v100
 BYTE   N44  Fn2  v080
 BYTE   N44  Cs4
 BYTE   N44  Fn4
 BYTE   N44  Cs5
 BYTE   W48
// 032   ----------------------------------------
 BYTE   PATT
  POIN2 Label_5_01302842
// 033   ----------------------------------------
 BYTE   N32  Bn1  v100
 BYTE   N32  Ds2  v080
 BYTE   N32  Bn3
 BYTE   N32  Ds4
 BYTE   N32  Bn4
 BYTE   W36
 BYTE   TIE  Cs2
 BYTE   TIE  Fn2
 BYTE   TIE  Cs4
 BYTE   TIE  Fn4
 BYTE   TIE  Cs5
 BYTE   W60
// 034   ----------------------------------------
 BYTE   W92
 BYTE   W03
 BYTE   EOT
 BYTE   Cs2  v053
 BYTE   Cs4  v077
 BYTE   Cs5
 BYTE   W01
// 035   ----------------------------------------
 BYTE   W96
// 036   ----------------------------------------
 BYTE   W96
// 037   ----------------------------------------
 BYTE   W96
// 038   ----------------------------------------
 BYTE   W96
// 039   ----------------------------------------
 BYTE   W96
// 040   ----------------------------------------
 BYTE   W96
// 041   ----------------------------------------
 BYTE   W96
// 042   ----------------------------------------
 BYTE   W96
// 043   ----------------------------------------
 BYTE   W96
// 044   ----------------------------------------
 BYTE   W96
// 045   ----------------------------------------
 BYTE   W96
// 046   ----------------------------------------
 BYTE   W96
// 047   ----------------------------------------
 BYTE   W96
// 048   ----------------------------------------
 BYTE   W96
// 049   ----------------------------------------
 BYTE   W96
// 050   ----------------------------------------
 BYTE   W96
// 051   ----------------------------------------
 BYTE   W96
// 052   ----------------------------------------
 BYTE   W96
// 053   ----------------------------------------
 BYTE   W96
// 054   ----------------------------------------
 BYTE   W96
// 055   ----------------------------------------
 BYTE   W96
// 056   ----------------------------------------
 BYTE   W96
// 057   ----------------------------------------
 BYTE   W96
// 058   ----------------------------------------
 BYTE   W96
// 059   ----------------------------------------
 BYTE   W96
// 060   ----------------------------------------
 BYTE   W96
// 061   ----------------------------------------
 BYTE   W96
// 062   ----------------------------------------
 BYTE   W96
// 063   ----------------------------------------
 BYTE   W96
// 064   ----------------------------------------
 BYTE   W96
// 065   ----------------------------------------
 BYTE   W96
// 066   ----------------------------------------
 BYTE   W92
 BYTE   W03
 BYTE   GoTo
  POIN2 Label_5_01302782
 BYTE   FINE

//**************** Track 7 (Midi-Chn.6) ****************//

song01_007:
// 000   ----------------------------------------
 BYTE   KEYSH   song01_key+0
Label_6_013030EA:
 BYTE   VOICE   61
 BYTE   VOL   28*song01_mvl/mxv
 BYTE   PAN   c_v-10
 BYTE   BENDR  12
 BYTE   W96
// 001   ----------------------------------------
 BYTE   W96
// 002   ----------------------------------------
 BYTE   W96
// 003   ----------------------------------------
 BYTE   W96
// 004   ----------------------------------------
 BYTE   W96
// 005   ----------------------------------------
 BYTE   W96
// 006   ----------------------------------------
 BYTE   W96
// 007   ----------------------------------------
 BYTE   W96
// 008   ----------------------------------------
 BYTE   W96
// 009   ----------------------------------------
 BYTE   W96
// 010   ----------------------------------------
 BYTE   W96
// 011   ----------------------------------------
 BYTE   W96
// 012   ----------------------------------------
 BYTE   W96
// 013   ----------------------------------------
 BYTE   W96
// 014   ----------------------------------------
 BYTE   W96
// 015   ----------------------------------------
 BYTE   W96
// 016   ----------------------------------------
 BYTE   W96
// 017   ----------------------------------------
 BYTE   W96
// 018   ----------------------------------------
 BYTE   W96
// 019   ----------------------------------------
 BYTE   W96
// 020   ----------------------------------------
 BYTE   W96
// 021   ----------------------------------------
 BYTE   W96
// 022   ----------------------------------------
 BYTE   W96
// 023   ----------------------------------------
 BYTE   W96
// 024   ----------------------------------------
 BYTE   W96
// 025   ----------------------------------------
 BYTE   W96
// 026   ----------------------------------------
 BYTE   W96
// 027   ----------------------------------------
 BYTE   W96
// 028   ----------------------------------------
 BYTE   W96
// 029   ----------------------------------------
 BYTE   W96
// 030   ----------------------------------------
 BYTE   W96
// 031   ----------------------------------------
 BYTE   W96
// 032   ----------------------------------------
 BYTE   W96
// 033   ----------------------------------------
 BYTE   W96
// 034   ----------------------------------------
Label_6_01303114:
 BYTE   W48
 BYTE   N23  Ds3  v127
 BYTE   W24
 BYTE   Ds4
 BYTE   W24
 BYTE   PEND 
// 035   ----------------------------------------
Label_6_0130311C:
 BYTE   TIE  Cs4  v127
 BYTE   W24
 BYTE   N23  Cs3
 BYTE   N23  Fs3
 BYTE   W24
 BYTE   N44  Cs3
 BYTE   N44  Fs3
 BYTE   W48
 BYTE   PEND 
// 036   ----------------------------------------
 BYTE   W68
 BYTE   W03
 BYTE   EOT
 BYTE   Cs4
 BYTE   W13
 BYTE   N11  Ds4
 BYTE   W12
// 037   ----------------------------------------
Label_6_01303133:
 BYTE   N68  Cs4  v127
 BYTE   W72
 BYTE   N11  Bn3
 BYTE   W12
 BYTE   N56  As3
 BYTE   W12
 BYTE   PEND 
// 038   ----------------------------------------
 BYTE   PATT
  POIN2 Label_6_01303114
// 039   ----------------------------------------
 BYTE   PATT
  POIN2 Label_6_0130311C
// 040   ----------------------------------------
 BYTE   W68
 BYTE   W03
 BYTE   EOT
 BYTE   Cs4
 BYTE   W13
 BYTE   N11  Ds4  v127
 BYTE   W12
// 041   ----------------------------------------
 BYTE   PATT
  POIN2 Label_6_01303133
// 042   ----------------------------------------
 BYTE   PATT
  POIN2 Label_6_01303114
// 043   ----------------------------------------
 BYTE   PATT
  POIN2 Label_6_0130311C
// 044   ----------------------------------------
 BYTE   W92
 BYTE   W03
 BYTE   EOT
 BYTE   Cs4
 BYTE   W01
// 045   ----------------------------------------
Label_6_01303165:
 BYTE   N44  Cs4  v127
 BYTE   W48
 BYTE   N32  Bn3
 BYTE   W36
 BYTE   N11  As3
 BYTE   W12
 BYTE   PEND 
// 046   ----------------------------------------
Label_6_01303170:
 BYTE   W12
 BYTE   N11  As3  v127
 BYTE   W12
 BYTE   N23
 BYTE   W24
 BYTE   Ds3
 BYTE   W24
 BYTE   Ds4
 BYTE   W24
 BYTE   PEND 
// 047   ----------------------------------------
Label_6_0130317C:
 BYTE   N80  Cs4  v127
 BYTE   W84
 BYTE   N11  Ds4
 BYTE   W12
 BYTE   PEND 
// 048   ----------------------------------------
Label_6_01303184:
 BYTE   N23  Fn4  v127
 BYTE   W24
 BYTE   Cs4
 BYTE   W24
 BYTE   N44  As3
 BYTE   W48
 BYTE   PEND 
// 049   ----------------------------------------
Label_6_0130318E:
 BYTE   N68  Fs4  v127
 BYTE   W84
 BYTE   N23  As4
 BYTE   W12
 BYTE   PEND 
// 050   ----------------------------------------
 BYTE   W12
 BYTE   N11  Gs4
 BYTE   W12
 BYTE   N23  Fs4
 BYTE   W24
 BYTE   Ds3
 BYTE   W24
 BYTE   Ds4
 BYTE   W24
// 051   ----------------------------------------
 BYTE   PATT
  POIN2 Label_6_0130311C
// 052   ----------------------------------------
 BYTE   W68
 BYTE   W03
 BYTE   EOT
 BYTE   Cs4
 BYTE   W13
 BYTE   N11  Ds4  v127
 BYTE   W12
// 053   ----------------------------------------
 BYTE   PATT
  POIN2 Label_6_01303133
// 054   ----------------------------------------
 BYTE   PATT
  POIN2 Label_6_01303114
// 055   ----------------------------------------
 BYTE   PATT
  POIN2 Label_6_0130311C
// 056   ----------------------------------------
 BYTE   W68
 BYTE   W03
 BYTE   EOT
 BYTE   Cs4
 BYTE   W13
 BYTE   N11  Ds4  v127
 BYTE   W12
// 057   ----------------------------------------
 BYTE   PATT
  POIN2 Label_6_01303133
// 058   ----------------------------------------
 BYTE   PATT
  POIN2 Label_6_01303114
// 059   ----------------------------------------
 BYTE   PATT
  POIN2 Label_6_0130311C
// 060   ----------------------------------------
 BYTE   W92
 BYTE   W03
 BYTE   EOT
 BYTE   Cs4
 BYTE   W01
// 061   ----------------------------------------
 BYTE   PATT
  POIN2 Label_6_01303165
// 062   ----------------------------------------
 BYTE   PATT
  POIN2 Label_6_01303170
// 063   ----------------------------------------
 BYTE   PATT
  POIN2 Label_6_0130317C
// 064   ----------------------------------------
 BYTE   PATT
  POIN2 Label_6_01303184
// 065   ----------------------------------------
 BYTE   PATT
  POIN2 Label_6_0130318E
// 066   ----------------------------------------
 BYTE   W12
 BYTE   N11  Gs4  v127
 BYTE   W12
 BYTE   N68  Fs4
 BYTE   W68
 BYTE   W03
 BYTE   GoTo
  POIN2 Label_6_013030EA
 BYTE   FINE

//**************** Track 8 (Midi-Chn.7) ****************//

song01_008:
// 000   ----------------------------------------
 BYTE   KEYSH   song01_key+0
Label_7_0135A7DE:
 BYTE   VOICE   124
 BYTE   VOL   25*song01_mvl/mxv
 BYTE   BENDR  12
 BYTE   TIE  An2  v080
 BYTE   W96
// 001   ----------------------------------------
 BYTE   W23
 BYTE   EOT
 BYTE   W72
 BYTE   W01
// 002   ----------------------------------------
 BYTE   W96
// 003   ----------------------------------------
 BYTE   W96
// 004   ----------------------------------------
 BYTE   W96
// 005   ----------------------------------------
 BYTE   W96
// 006   ----------------------------------------
 BYTE   W96
// 007   ----------------------------------------
 BYTE   W96
// 008   ----------------------------------------
 BYTE   N05  Fs1  v120
 BYTE   N05  An1
 BYTE   N11  Cs2
 BYTE   W24
 BYTE   N05  Fs1
 BYTE   W24
 BYTE   Fs1  v116
 BYTE   N05  Bn1
 BYTE   W24
 BYTE   Fs1
 BYTE   W12
 BYTE   An1
 BYTE   W12
// 009   ----------------------------------------
Label_7_0135A806:
 BYTE   N05  Fs1  v116
 BYTE   W12
 BYTE   Bn1
 BYTE   W12
 BYTE   Fs1
 BYTE   W24
 BYTE   N05
 BYTE   N05  Bn1
 BYTE   W24
 BYTE   N11  Gn1  v124
 BYTE   W24
 BYTE   PEND 
// 010   ----------------------------------------
Label_7_0135A817:
 BYTE   N05  Fs1  v120
 BYTE   N05  An1
 BYTE   W24
 BYTE   Fs1
 BYTE   W24
 BYTE   Fs1  v116
 BYTE   N05  Bn1
 BYTE   W24
 BYTE   Fs1
 BYTE   W12
 BYTE   An1
 BYTE   W12
 BYTE   PEND 
// 011   ----------------------------------------
 BYTE   PATT
  POIN2 Label_7_0135A806
// 012   ----------------------------------------
 BYTE   PATT
  POIN2 Label_7_0135A817
// 013   ----------------------------------------
 BYTE   PATT
  POIN2 Label_7_0135A806
// 014   ----------------------------------------
 BYTE   N05  Fs1  v120
 BYTE   N05  An1
 BYTE   N11  Ds2
 BYTE   W24
 BYTE   N05  Fs1
 BYTE   W18
 BYTE   En1
 BYTE   W06
 BYTE   N05
 BYTE   N05  Fs1  v116
 BYTE   W06
 BYTE   En1  v120
 BYTE   W06
 BYTE   N05
 BYTE   W12
 BYTE   Fs1  v116
 BYTE   W12
 BYTE   An1  v120
 BYTE   W12
// 015   ----------------------------------------
 BYTE   Fs1  v116
 BYTE   N05  An1  v120
 BYTE   N11  Ds2  v124
 BYTE   W24
 BYTE   N05  Fs1  v116
 BYTE   W12
 BYTE   An1  v120
 BYTE   W12
 BYTE   Fs1  v116
 BYTE   N11  Cs2  v124
 BYTE   W12
 BYTE   N05  An1  v120
 BYTE   W12
 BYTE   N11  Gn1  v124
 BYTE   W24
// 016   ----------------------------------------
Label_7_0135A873:
 BYTE   N11  Gn1  v127
 BYTE   N11  An1  v116
 BYTE   W24
 BYTE   Fs1
 BYTE   N11  Gn1  v127
 BYTE   W24
 BYTE   En1  v120
 BYTE   N11  Gn1  v127
 BYTE   W24
 BYTE   Fs1  v116
 BYTE   N11  Gn1  v127
 BYTE   W12
 BYTE   An1  v116
 BYTE   W12
 BYTE   PEND 
// 017   ----------------------------------------
 BYTE   Gn1  v127
 BYTE   W12
 BYTE   En1  v120
 BYTE   W12
 BYTE   Fs1  v116
 BYTE   N11  Gn1  v127
 BYTE   N11  An1  v116
 BYTE   W24
 BYTE   En1  v120
 BYTE   N11  Gn1  v127
 BYTE   W24
 BYTE   Fs1  v116
 BYTE   N11  Gn1  v127
 BYTE   W24
// 018   ----------------------------------------
 BYTE   PATT
  POIN2 Label_7_0135A873
// 019   ----------------------------------------
 BYTE   N11  Gn1  v127
 BYTE   W12
 BYTE   En1  v120
 BYTE   W12
 BYTE   Fs1  v116
 BYTE   N11  Gn1  v127
 BYTE   N11  An1  v116
 BYTE   W24
 BYTE   En1  v120
 BYTE   N11  Gn1  v127
 BYTE   W24
 BYTE   Fs1  v116
 BYTE   N11  Gn1  v127
 BYTE   N11  Ds2  v116
 BYTE   W24
// 020   ----------------------------------------
 BYTE   PATT
  POIN2 Label_7_0135A873
// 021   ----------------------------------------
 BYTE   N11  Gn1  v127
 BYTE   W12
 BYTE   En1  v120
 BYTE   W12
 BYTE   Fs1  v116
 BYTE   N11  Gn1  v127
 BYTE   N11  An1  v116
 BYTE   W24
 BYTE   En1  v120
 BYTE   N11  Gn1  v127
 BYTE   W24
 BYTE   Fs1  v116
 BYTE   N11  Gn1  v127
 BYTE   N11  Gn2  v116
 BYTE   W24
// 022   ----------------------------------------
Label_7_0135A8F2:
 BYTE   N11  Fs1  v127
 BYTE   N11  Gn1
 BYTE   N11  An1
 BYTE   N11  Cs2
 BYTE   W24
 BYTE   En1  v120
 BYTE   N11  Fs1  v127
 BYTE   N11  Gn1
 BYTE   N11  As1
 BYTE   W24
 BYTE   Fs1
 BYTE   N11  Gn1
 BYTE   N11  An1
 BYTE   W12
 BYTE   N11
 BYTE   W12
 BYTE   En1  v120
 BYTE   N11  Fs1  v127
 BYTE   N11  Gn1
 BYTE   N11  As1
 BYTE   W24
 BYTE   PEND 
// 023   ----------------------------------------
 BYTE   PATT
  POIN2 Label_7_0135A8F2
// 024   ----------------------------------------
 BYTE   W96
// 025   ----------------------------------------
 BYTE   W96
// 026   ----------------------------------------
 BYTE   W96
// 027   ----------------------------------------
 BYTE   W96
// 028   ----------------------------------------
 BYTE   W96
// 029   ----------------------------------------
 BYTE   W96
// 030   ----------------------------------------
 BYTE   W96
// 031   ----------------------------------------
 BYTE   W96
// 032   ----------------------------------------
 BYTE   W96
// 033   ----------------------------------------
 BYTE   W96
// 034   ----------------------------------------
 BYTE   W96
// 035   ----------------------------------------
 BYTE   W96
// 036   ----------------------------------------
 BYTE   W96
// 037   ----------------------------------------
 BYTE   W96
// 038   ----------------------------------------
 BYTE   W96
// 039   ----------------------------------------
 BYTE   W96
// 040   ----------------------------------------
 BYTE   W96
// 041   ----------------------------------------
 BYTE   W96
// 042   ----------------------------------------
 BYTE   W96
// 043   ----------------------------------------
 BYTE   W96
// 044   ----------------------------------------
 BYTE   W96
// 045   ----------------------------------------
 BYTE   W96
// 046   ----------------------------------------
 BYTE   W96
// 047   ----------------------------------------
 BYTE   W96
// 048   ----------------------------------------
 BYTE   W96
// 049   ----------------------------------------
 BYTE   W96
// 050   ----------------------------------------
 BYTE   W96
// 051   ----------------------------------------
 BYTE   W96
// 052   ----------------------------------------
 BYTE   W96
// 053   ----------------------------------------
 BYTE   W96
// 054   ----------------------------------------
 BYTE   W96
// 055   ----------------------------------------
 BYTE   W96
// 056   ----------------------------------------
 BYTE   W96
// 057   ----------------------------------------
 BYTE   W96
// 058   ----------------------------------------
 BYTE   W96
// 059   ----------------------------------------
 BYTE   W96
// 060   ----------------------------------------
 BYTE   W96
// 061   ----------------------------------------
 BYTE   W96
// 062   ----------------------------------------
 BYTE   W96
// 063   ----------------------------------------
 BYTE   W96
// 064   ----------------------------------------
 BYTE   W96
// 065   ----------------------------------------
 BYTE   W96
// 066   ----------------------------------------
 BYTE   W92
 BYTE   W03
 BYTE   GoTo
  POIN2 Label_7_0135A7DE
 BYTE   FINE

//**************** Track 9 (Midi-Chn.8) ****************//

song01_009:
// 000   ----------------------------------------
 BYTE   KEYSH   song01_key+0
Label_8_0135A952:
 BYTE   VOICE   124
 BYTE   VOL   29*song01_mvl/mxv
 BYTE   PAN   c_v+3
 BYTE   BENDR  12
 BYTE   W96
// 001   ----------------------------------------
 BYTE   W96
// 002   ----------------------------------------
 BYTE   W96
// 003   ----------------------------------------
 BYTE   W96
// 004   ----------------------------------------
 BYTE   W96
// 005   ----------------------------------------
 BYTE   W96
// 006   ----------------------------------------
 BYTE   W96
// 007   ----------------------------------------
 BYTE   W96
// 008   ----------------------------------------
 BYTE   W96
// 009   ----------------------------------------
 BYTE   W96
// 010   ----------------------------------------
 BYTE   W96
// 011   ----------------------------------------
 BYTE   W96
// 012   ----------------------------------------
 BYTE   W96
// 013   ----------------------------------------
 BYTE   W96
// 014   ----------------------------------------
 BYTE   W96
// 015   ----------------------------------------
 BYTE   W96
// 016   ----------------------------------------
 BYTE   W96
// 017   ----------------------------------------
 BYTE   W96
// 018   ----------------------------------------
 BYTE   W96
// 019   ----------------------------------------
 BYTE   W96
// 020   ----------------------------------------
 BYTE   W96
// 021   ----------------------------------------
 BYTE   W96
// 022   ----------------------------------------
 BYTE   W96
// 023   ----------------------------------------
 BYTE   W96
// 024   ----------------------------------------
Label_8_0135A972:
 BYTE   N11  Dn1  v127
 BYTE   N11  An1
 BYTE   N11  Cs2
 BYTE   W12
 BYTE   Fn5
 BYTE   W12
 BYTE   An1
 BYTE   N11  Dn5
 BYTE   W12
 BYTE   Fn5
 BYTE   W12
 BYTE   Dn1
 BYTE   N11  An1
 BYTE   W12
 BYTE   Fn5
 BYTE   W12
 BYTE   An1
 BYTE   N11  Dn5
 BYTE   W12
 BYTE   Dn1
 BYTE   N11  Fn5
 BYTE   W12
 BYTE   PEND 
// 025   ----------------------------------------
Label_8_0135A991:
 BYTE   N11  An1  v127
 BYTE   W12
 BYTE   Dn1
 BYTE   N11  Fn5
 BYTE   W12
 BYTE   An1
 BYTE   N11  Dn5
 BYTE   W12
 BYTE   Fn5
 BYTE   W12
 BYTE   Dn1
 BYTE   N11  An1
 BYTE   W12
 BYTE   Dn1
 BYTE   N11  Fn5
 BYTE   W12
 BYTE   An1
 BYTE   N11  Dn5
 BYTE   W12
 BYTE   Fn5
 BYTE   W12
 BYTE   PEND 
// 026   ----------------------------------------
 BYTE   Dn1
 BYTE   N11  An1
 BYTE   W12
 BYTE   Fn5
 BYTE   W12
 BYTE   An1
 BYTE   N11  Dn5
 BYTE   W12
 BYTE   Fn5
 BYTE   W12
 BYTE   Dn1
 BYTE   N11  An1
 BYTE   W12
 BYTE   Fn5
 BYTE   W12
 BYTE   An1
 BYTE   N11  Dn5
 BYTE   W12
 BYTE   Dn1
 BYTE   N11  Gn2
 BYTE   N11  Fn5
 BYTE   W12
// 027   ----------------------------------------
 BYTE   PATT
  POIN2 Label_8_0135A991
// 028   ----------------------------------------
 BYTE   PATT
  POIN2 Label_8_0135A972
// 029   ----------------------------------------
 BYTE   N11  An1  v127
 BYTE   W12
 BYTE   Dn1
 BYTE   N11  Fn5
 BYTE   W12
 BYTE   An1
 BYTE   N11  Dn5
 BYTE   W12
 BYTE   Fn5
 BYTE   W12
 BYTE   Dn1
 BYTE   N11  An1
 BYTE   W12
 BYTE   Dn1
 BYTE   N11  Fn5
 BYTE   W12
 BYTE   N05  Dn5
 BYTE   W06
 BYTE   N05
 BYTE   W06
 BYTE   N05
 BYTE   W06
 BYTE   N05
 BYTE   W06
// 030   ----------------------------------------
 BYTE   N11  Dn1
 BYTE   N11  An1
 BYTE   N11  Cs2
 BYTE   W12
 BYTE   Fn5
 BYTE   W12
 BYTE   An1
 BYTE   N11  Dn5
 BYTE   W12
 BYTE   Fn5
 BYTE   W12
 BYTE   Dn1
 BYTE   N11  An1
 BYTE   W12
 BYTE   Dn1
 BYTE   N11  Fn5
 BYTE   W12
 BYTE   An1
 BYTE   N11  Dn5
 BYTE   W12
 BYTE   Fn5
 BYTE   W12
// 031   ----------------------------------------
 BYTE   Dn1
 BYTE   N11  An1
 BYTE   W12
 BYTE   Dn1
 BYTE   N11  Fn5
 BYTE   W12
 BYTE   An1
 BYTE   N11  Dn5
 BYTE   W12
 BYTE   Fn5
 BYTE   W12
 BYTE   Dn1
 BYTE   N11  An1
 BYTE   W12
 BYTE   Dn1
 BYTE   N11  Fn5
 BYTE   W12
 BYTE   An1
 BYTE   N11  Dn5
 BYTE   W12
 BYTE   Fn5
 BYTE   W12
// 032   ----------------------------------------
 BYTE   Dn1
 BYTE   N11  An1
 BYTE   W12
 BYTE   Fn5
 BYTE   W12
 BYTE   An1
 BYTE   N11  Dn5
 BYTE   W12
 BYTE   Fn5
 BYTE   W12
 BYTE   Dn1
 BYTE   N11  An1
 BYTE   W12
 BYTE   Dn1
 BYTE   N11  Fn5
 BYTE   W12
 BYTE   An1
 BYTE   N11  Dn5
 BYTE   W12
 BYTE   Fn5
 BYTE   W12
// 033   ----------------------------------------
 BYTE   Dn1
 BYTE   W24
 BYTE   N02  Dn5
 BYTE   W03
 BYTE   N02
 BYTE   W03
 BYTE   N02
 BYTE   W03
 BYTE   N02
 BYTE   W03
 BYTE   N11  Dn1
 BYTE   W60
// 034   ----------------------------------------
 BYTE   W60
 BYTE   N05  Cn1
 BYTE   W06
 BYTE   N05
 BYTE   W06
 BYTE   N23  Dn5
 BYTE   W24
// 035   ----------------------------------------
Label_8_0135AA5D:
 BYTE   N11  Dn1  v127
 BYTE   N11  En1
 BYTE   N11  An1
 BYTE   N11  Cs2
 BYTE   W12
 BYTE   Fn5
 BYTE   W12
 BYTE   En1
 BYTE   N11  An1
 BYTE   N11  Dn5
 BYTE   W12
 BYTE   Fn5
 BYTE   W12
 BYTE   Dn1
 BYTE   N11  En1
 BYTE   N11  An1
 BYTE   W12
 BYTE   Dn1
 BYTE   N11  Fn5
 BYTE   W12
 BYTE   En1
 BYTE   N11  An1
 BYTE   N11  Dn5
 BYTE   W12
 BYTE   Dn1
 BYTE   N11  Cs2
 BYTE   N11  Fn5
 BYTE   W12
 BYTE   PEND 
// 036   ----------------------------------------
Label_8_0135AA88:
 BYTE   N11  En1  v127
 BYTE   N11  An1
 BYTE   W12
 BYTE   Dn1
 BYTE   N11  Fn5
 BYTE   W12
 BYTE   En1
 BYTE   N11  An1
 BYTE   N11  Dn5
 BYTE   W12
 BYTE   Fn5
 BYTE   W12
 BYTE   Dn1
 BYTE   N11  En1
 BYTE   N11  An1
 BYTE   W12
 BYTE   Dn1
 BYTE   N11  Fn5
 BYTE   W12
 BYTE   En1
 BYTE   N11  An1
 BYTE   N11  Dn5
 BYTE   W12
 BYTE   Fn5
 BYTE   W12
 BYTE   PEND 
// 037   ----------------------------------------
Label_8_0135AAAD:
 BYTE   N11  Dn1  v127
 BYTE   N11  En1
 BYTE   N11  An1
 BYTE   N11  Cs2
 BYTE   W12
 BYTE   Fn5
 BYTE   W12
 BYTE   En1
 BYTE   N11  An1
 BYTE   N11  Dn5
 BYTE   W12
 BYTE   Fn5
 BYTE   W12
 BYTE   Dn1
 BYTE   N11  En1
 BYTE   N11  An1
 BYTE   W12
 BYTE   Dn1
 BYTE   N11  Fn5
 BYTE   W12
 BYTE   En1
 BYTE   N11  An1
 BYTE   N11  Dn5
 BYTE   W12
 BYTE   Dn1
 BYTE   N11  Fn5
 BYTE   W12
 BYTE   PEND 
// 038   ----------------------------------------
 BYTE   PATT
  POIN2 Label_8_0135AA88
// 039   ----------------------------------------
 BYTE   PATT
  POIN2 Label_8_0135AAAD
// 040   ----------------------------------------
 BYTE   PATT
  POIN2 Label_8_0135AA88
// 041   ----------------------------------------
Label_8_0135AAE5:
 BYTE   N11  Dn1  v127
 BYTE   N11  En1
 BYTE   N11  An1
 BYTE   W12
 BYTE   Fn5
 BYTE   W12
 BYTE   En1
 BYTE   N11  An1
 BYTE   N11  Dn5
 BYTE   W12
 BYTE   Fn5
 BYTE   W12
 BYTE   Dn1
 BYTE   N11  En1
 BYTE   N11  An1
 BYTE   W12
 BYTE   Dn1
 BYTE   N11  Fn5
 BYTE   W12
 BYTE   En1
 BYTE   N11  An1
 BYTE   N11  Dn5
 BYTE   W12
 BYTE   Dn1
 BYTE   N11  Cs2
 BYTE   N11  Fn5
 BYTE   W12
 BYTE   PEND 
// 042   ----------------------------------------
 BYTE   PATT
  POIN2 Label_8_0135AA88
// 043   ----------------------------------------
 BYTE   PATT
  POIN2 Label_8_0135AAAD
// 044   ----------------------------------------
 BYTE   PATT
  POIN2 Label_8_0135AA88
// 045   ----------------------------------------
Label_8_0135AB1D:
 BYTE   N11  Dn1  v127
 BYTE   N11  En1
 BYTE   N11  An1
 BYTE   N11  Cs2
 BYTE   W12
 BYTE   Fn5
 BYTE   W12
 BYTE   En1
 BYTE   N11  An1
 BYTE   N11  Dn5
 BYTE   W12
 BYTE   Fn5
 BYTE   W12
 BYTE   Dn1
 BYTE   N11  En1
 BYTE   N11  An1
 BYTE   W12
 BYTE   Fn5
 BYTE   W12
 BYTE   En1
 BYTE   N11  An1
 BYTE   N02  Dn5
 BYTE   W03
 BYTE   N02
 BYTE   W03
 BYTE   N02
 BYTE   W03
 BYTE   N02
 BYTE   W03
 BYTE   N11  Dn1
 BYTE   N11  Cs2
 BYTE   N11  Fn5
 BYTE   W12
 BYTE   PEND 
// 046   ----------------------------------------
 BYTE   PATT
  POIN2 Label_8_0135AA88
// 047   ----------------------------------------
 BYTE   PATT
  POIN2 Label_8_0135AA5D
// 048   ----------------------------------------
 BYTE   PATT
  POIN2 Label_8_0135AA88
// 049   ----------------------------------------
 BYTE   PATT
  POIN2 Label_8_0135AAE5
// 050   ----------------------------------------
 BYTE   N11  En1  v127
 BYTE   N11  An1
 BYTE   W12
 BYTE   Dn1
 BYTE   N11  Fn5
 BYTE   W12
 BYTE   En1
 BYTE   N11  An1
 BYTE   N11  Dn5
 BYTE   W12
 BYTE   Fn5
 BYTE   W12
 BYTE   Dn1
 BYTE   N11  En1
 BYTE   N11  An1
 BYTE   W12
 BYTE   Dn1
 BYTE   N11  Fn5
 BYTE   W12
 BYTE   En1
 BYTE   N11  An1
 BYTE   N02  Dn5
 BYTE   W03
 BYTE   Dn1
 BYTE   W03
 BYTE   Dn5
 BYTE   W03
 BYTE   Dn1
 BYTE   W03
 BYTE   Dn5
 BYTE   N11  Fn5
 BYTE   W03
 BYTE   N02  Dn1
 BYTE   W03
 BYTE   Dn5
 BYTE   W03
 BYTE   Dn1
 BYTE   W03
// 051   ----------------------------------------
 BYTE   PATT
  POIN2 Label_8_0135AA5D
// 052   ----------------------------------------
 BYTE   PATT
  POIN2 Label_8_0135AA88
// 053   ----------------------------------------
 BYTE   PATT
  POIN2 Label_8_0135AAAD
// 054   ----------------------------------------
 BYTE   PATT
  POIN2 Label_8_0135AA88
// 055   ----------------------------------------
 BYTE   PATT
  POIN2 Label_8_0135AAAD
// 056   ----------------------------------------
 BYTE   PATT
  POIN2 Label_8_0135AA88
// 057   ----------------------------------------
 BYTE   PATT
  POIN2 Label_8_0135AAE5
// 058   ----------------------------------------
 BYTE   PATT
  POIN2 Label_8_0135AA88
// 059   ----------------------------------------
 BYTE   PATT
  POIN2 Label_8_0135AAAD
// 060   ----------------------------------------
 BYTE   PATT
  POIN2 Label_8_0135AA88
// 061   ----------------------------------------
 BYTE   PATT
  POIN2 Label_8_0135AB1D
// 062   ----------------------------------------
 BYTE   PATT
  POIN2 Label_8_0135AA88
// 063   ----------------------------------------
 BYTE   PATT
  POIN2 Label_8_0135AA5D
// 064   ----------------------------------------
 BYTE   PATT
  POIN2 Label_8_0135AA88
// 065   ----------------------------------------
 BYTE   PATT
  POIN2 Label_8_0135AAE5
// 066   ----------------------------------------
 BYTE   N11  En1  v127
 BYTE   N11  An1
 BYTE   W12
 BYTE   Dn1
 BYTE   N11  Fn5
 BYTE   W12
 BYTE   En1
 BYTE   N11  An1
 BYTE   N11  Dn5
 BYTE   W12
 BYTE   Fn5
 BYTE   W12
 BYTE   Dn1
 BYTE   N11  En1
 BYTE   N11  An1
 BYTE   W12
 BYTE   Dn1
 BYTE   N11  Fn5
 BYTE   W12
 BYTE   En1
 BYTE   N11  An1
 BYTE   N02  Cn2
 BYTE   W03
 BYTE   Bn1
 BYTE   W03
 BYTE   Cn2
 BYTE   W03
 BYTE   Bn1
 BYTE   W03
 BYTE   Cn2
 BYTE   N11  Fn5
 BYTE   W03
 BYTE   N02  Bn1
 BYTE   W03
 BYTE   An1
 BYTE   W03
 BYTE   N02
 BYTE   W02
 BYTE   GoTo
  POIN2 Label_8_0135A952
 BYTE   FINE

//**************** Track 10 (Midi-Chn.9) ****************//

song01_010:
// 000   ----------------------------------------
 BYTE   KEYSH   song01_key+0
Label_9_01302182:
 BYTE   VOICE   52
 BYTE   VOL   26*song01_mvl/mxv
 BYTE   PAN   c_v-20
 BYTE   BENDR  12
 BYTE   W96
// 001   ----------------------------------------
 BYTE   W96
// 002   ----------------------------------------
 BYTE   W96
// 003   ----------------------------------------
 BYTE   W96
// 004   ----------------------------------------
 BYTE   W96
// 005   ----------------------------------------
 BYTE   W96
// 006   ----------------------------------------
 BYTE   W96
// 007   ----------------------------------------
 BYTE   W96
// 008   ----------------------------------------
 BYTE   W96
// 009   ----------------------------------------
 BYTE   W96
// 010   ----------------------------------------
 BYTE   W96
// 011   ----------------------------------------
 BYTE   W96
// 012   ----------------------------------------
 BYTE   W96
// 013   ----------------------------------------
 BYTE   W96
// 014   ----------------------------------------
 BYTE   W96
// 015   ----------------------------------------
 BYTE   W96
// 016   ----------------------------------------
 BYTE   W96
// 017   ----------------------------------------
 BYTE   W96
// 018   ----------------------------------------
 BYTE   W96
// 019   ----------------------------------------
 BYTE   W96
// 020   ----------------------------------------
 BYTE   W96
// 021   ----------------------------------------
 BYTE   W96
// 022   ----------------------------------------
 BYTE   W96
// 023   ----------------------------------------
 BYTE   W96
// 024   ----------------------------------------
 BYTE   W96
// 025   ----------------------------------------
 BYTE   W96
// 026   ----------------------------------------
 BYTE   W96
// 027   ----------------------------------------
 BYTE   W96
// 028   ----------------------------------------
 BYTE   W96
// 029   ----------------------------------------
 BYTE   W96
// 030   ----------------------------------------
 BYTE   W96
// 031   ----------------------------------------
 BYTE   W96
// 032   ----------------------------------------
 BYTE   W96
// 033   ----------------------------------------
 BYTE   W96
// 034   ----------------------------------------
 BYTE   W48
 BYTE   N23  Ds3  v064
 BYTE   W24
 BYTE   N24  Ds4  v096
 BYTE   W24
// 035   ----------------------------------------
 BYTE   W96
// 036   ----------------------------------------
 BYTE   W96
// 037   ----------------------------------------
 BYTE   W96
// 038   ----------------------------------------
 BYTE   W96
// 039   ----------------------------------------
 BYTE   W96
// 040   ----------------------------------------
 BYTE   W96
// 041   ----------------------------------------
 BYTE   W96
// 042   ----------------------------------------
 BYTE   W96
// 043   ----------------------------------------
 BYTE   W96
// 044   ----------------------------------------
 BYTE   W96
// 045   ----------------------------------------
 BYTE   W96
// 046   ----------------------------------------
 BYTE   W96
// 047   ----------------------------------------
 BYTE   W96
// 048   ----------------------------------------
 BYTE   W96
// 049   ----------------------------------------
 BYTE   W96
// 050   ----------------------------------------
 BYTE   W96
// 051   ----------------------------------------
 BYTE   W96
// 052   ----------------------------------------
 BYTE   W96
// 053   ----------------------------------------
 BYTE   W96
// 054   ----------------------------------------
 BYTE   W96
// 055   ----------------------------------------
 BYTE   W96
// 056   ----------------------------------------
 BYTE   W96
// 057   ----------------------------------------
 BYTE   W96
// 058   ----------------------------------------
 BYTE   W96
// 059   ----------------------------------------
 BYTE   W96
// 060   ----------------------------------------
 BYTE   W96
// 061   ----------------------------------------
 BYTE   W96
// 062   ----------------------------------------
 BYTE   W96
// 063   ----------------------------------------
 BYTE   W96
// 064   ----------------------------------------
 BYTE   W96
// 065   ----------------------------------------
 BYTE   W96
// 066   ----------------------------------------
 BYTE   W92
 BYTE   W03
 BYTE   GoTo
  POIN2 Label_9_01302182
 BYTE   FINE

//**************** Track 11 (Midi-Chn.10) ****************//

song01_011:
// 000   ----------------------------------------
 BYTE   KEYSH   song01_key+0
Label_10_0135AEC6:
 BYTE   VOICE   100
 BYTE   VOL   15*song01_mvl/mxv
 BYTE   PAN   c_v+6
 BYTE   BENDR  12
 BYTE   PAN   c_v+6
 BYTE   N11  Ds2  v100
 BYTE   N11  Ds3
 BYTE   N11  Fs3
 BYTE   W12
 BYTE   N05  As3
 BYTE   W12
 BYTE   Fn4
 BYTE   W12
 BYTE   As3
 BYTE   W12
 BYTE   Fs4
 BYTE   W12
 BYTE   As3
 BYTE   W12
 BYTE   Gs4
 BYTE   W12
 BYTE   N11  Ds2
 BYTE   N11  Ds3
 BYTE   N11  Fs3
 BYTE   N05  As3
 BYTE   N05  Ds4
 BYTE   W12
// 001   ----------------------------------------
 BYTE   W12
 BYTE   Gs3
 BYTE   W12
 BYTE   Fn4
 BYTE   W12
 BYTE   Gs3
 BYTE   W12
 BYTE   Fs4
 BYTE   W12
 BYTE   Gs3
 BYTE   W12
 BYTE   Gs4
 BYTE   W12
 BYTE   Gs3
 BYTE   W12
// 002   ----------------------------------------
 BYTE   N11  Ds2
 BYTE   N11  Ds3
 BYTE   N11  Fs3
 BYTE   N05  Ds4
 BYTE   W12
 BYTE   As3
 BYTE   W12
 BYTE   Fn4
 BYTE   W12
 BYTE   As3
 BYTE   W12
 BYTE   Fs4
 BYTE   W12
 BYTE   N11  Ds2
 BYTE   N11  Fs2
 BYTE   N11  As2
 BYTE   N11  Ds3
 BYTE   N05  As3
 BYTE   W12
 BYTE   N11  Fn2
 BYTE   N11  Gs2
 BYTE   N11  Bn2
 BYTE   N11  Fn3
 BYTE   N05  Gs4
 BYTE   W12
 BYTE   N32  Fs2
 BYTE   N11  As2
 BYTE   N32  Ds3
 BYTE   N32  Fs3
 BYTE   N05  As3
 BYTE   W12
// 003   ----------------------------------------
 BYTE   N32  As2
 BYTE   N05  Ds4
 BYTE   W24
 BYTE   N11  Fs2
 BYTE   N05  Gs3
 BYTE   N05  Fn4
 BYTE   W12
 BYTE   Ds2
 BYTE   N12  Gs2
 BYTE   N05  Ds3
 BYTE   N05  Ds4
 BYTE   W06
 BYTE   Fn2
 BYTE   N05  Fn3
 BYTE   N05  Fn4
 BYTE   W06
 BYTE   Gs2
 BYTE   N05  Fs3
 BYTE   N05  As3
 BYTE   N05  Fs4
 BYTE   W12
 BYTE   Fn2
 BYTE   N05  Fn3
 BYTE   N05  Gs3
 BYTE   N05  Fn4
 BYTE   W12
 BYTE   Ds2
 BYTE   N05  Ds3
 BYTE   N05  Fs3
 BYTE   N05  Ds4
 BYTE   W12
 BYTE   Cs2
 BYTE   N05  Cs3
 BYTE   N05  Fn3
 BYTE   N05  Cs4
 BYTE   W12
// 004   ----------------------------------------
 BYTE   N11  Ds2
 BYTE   N05  Ds3
 BYTE   N05  Fs3
 BYTE   N05  Ds4
 BYTE   W12
 BYTE   As3
 BYTE   W12
 BYTE   Fn4
 BYTE   W12
 BYTE   As3
 BYTE   W12
 BYTE   Fs4
 BYTE   W12
 BYTE   As3
 BYTE   W12
 BYTE   Gs4
 BYTE   W12
 BYTE   N11  Ds2
 BYTE   N05  Ds3
 BYTE   N05  Fs3
 BYTE   N05  As3
 BYTE   N05  Ds4
 BYTE   W12
// 005   ----------------------------------------
 BYTE   W12
 BYTE   Gs3
 BYTE   W12
 BYTE   Fn4
 BYTE   W12
 BYTE   Gs3
 BYTE   W12
 BYTE   N11  Gs1
 BYTE   N11  Fs2
 BYTE   N05  Fs4
 BYTE   W12
 BYTE   N11  As1
 BYTE   N11  Gs2
 BYTE   N05  Gs3
 BYTE   N05  Fn4
 BYTE   W12
 BYTE   N11  Bn1
 BYTE   N11  As2
 BYTE   N05  Ds4
 BYTE   W12
 BYTE   TIE  Cs2  v048
 BYTE   N92  Cs3
 BYTE   N11  Gs3  v100
 BYTE   N92  Cs4
 BYTE   W12
// 006   ----------------------------------------
 BYTE   N80  Fs3
 BYTE   W60
 BYTE   N11  Gs1
 BYTE   W12
 BYTE   As1
 BYTE   W12
 BYTE   Bn1
 BYTE   N44  Bn2
 BYTE   N44  Ds3
 BYTE   N44  Fs3
 BYTE   W11
 BYTE   EOT
 BYTE   Cs2
 BYTE   W01
// 007   ----------------------------------------
 BYTE   N11
 BYTE   N92  As4
 BYTE   W12
 BYTE   N11  Fs2
 BYTE   W12
 BYTE   As2
 BYTE   W12
 BYTE   N48  Cs3
 BYTE   N54  Fn3
 BYTE   N48  Gs3
 BYTE   W12
 BYTE   N11  Gs2
 BYTE   W12
 BYTE   Fs2
 BYTE   W12
 BYTE   Fn2
 BYTE   W12
 BYTE   Cs2
 BYTE   W12
// 008   ----------------------------------------
 BYTE   BENDR  12
 BYTE   W96
// 009   ----------------------------------------
 BYTE   W96
// 010   ----------------------------------------
 BYTE   W96
// 011   ----------------------------------------
 BYTE   W96
// 012   ----------------------------------------
 BYTE   W96
// 013   ----------------------------------------
 BYTE   W96
// 014   ----------------------------------------
 BYTE   W96
// 015   ----------------------------------------
 BYTE   W96
// 016   ----------------------------------------
 BYTE   W96
// 017   ----------------------------------------
 BYTE   W96
// 018   ----------------------------------------
 BYTE   W96
// 019   ----------------------------------------
 BYTE   W96
// 020   ----------------------------------------
 BYTE   W96
// 021   ----------------------------------------
 BYTE   W96
// 022   ----------------------------------------
 BYTE   W96
// 023   ----------------------------------------
 BYTE   W96
// 024   ----------------------------------------
 BYTE   W96
// 025   ----------------------------------------
 BYTE   W96
// 026   ----------------------------------------
 BYTE   W96
// 027   ----------------------------------------
 BYTE   W96
// 028   ----------------------------------------
 BYTE   W96
// 029   ----------------------------------------
 BYTE   W96
// 030   ----------------------------------------
 BYTE   W96
// 031   ----------------------------------------
 BYTE   W96
// 032   ----------------------------------------
 BYTE   W96
// 033   ----------------------------------------
 BYTE   W96
// 034   ----------------------------------------
 BYTE   W96
// 035   ----------------------------------------
 BYTE   W96
// 036   ----------------------------------------
 BYTE   W96
// 037   ----------------------------------------
 BYTE   W96
// 038   ----------------------------------------
 BYTE   W96
// 039   ----------------------------------------
 BYTE   W96
// 040   ----------------------------------------
 BYTE   W96
// 041   ----------------------------------------
 BYTE   W96
// 042   ----------------------------------------
 BYTE   W96
// 043   ----------------------------------------
 BYTE   W96
// 044   ----------------------------------------
 BYTE   W96
// 045   ----------------------------------------
 BYTE   W96
// 046   ----------------------------------------
 BYTE   W96
// 047   ----------------------------------------
 BYTE   W96
// 048   ----------------------------------------
 BYTE   W96
// 049   ----------------------------------------
 BYTE   W96
// 050   ----------------------------------------
 BYTE   W96
// 051   ----------------------------------------
 BYTE   W96
// 052   ----------------------------------------
 BYTE   W96
// 053   ----------------------------------------
 BYTE   W96
// 054   ----------------------------------------
 BYTE   W96
// 055   ----------------------------------------
 BYTE   W96
// 056   ----------------------------------------
 BYTE   W96
// 057   ----------------------------------------
 BYTE   W96
// 058   ----------------------------------------
 BYTE   W96
// 059   ----------------------------------------
 BYTE   W96
// 060   ----------------------------------------
 BYTE   W96
// 061   ----------------------------------------
 BYTE   W96
// 062   ----------------------------------------
 BYTE   W96
// 063   ----------------------------------------
 BYTE   W96
// 064   ----------------------------------------
 BYTE   W96
// 065   ----------------------------------------
 BYTE   W96
// 066   ----------------------------------------
 BYTE   W92
 BYTE   W03
 BYTE   GoTo
  POIN2 Label_10_0135AEC6
 BYTE   FINE

//**************** Track 12 (Midi-Chn.11) ****************//

song01_012:
// 000   ----------------------------------------
 BYTE   KEYSH   song01_key+0
Label_11_0135AD7E:
 BYTE   VOICE   100
 BYTE   VOL   26*song01_mvl/mxv
 BYTE   BENDR  12
 BYTE   PAN   c_v+18
 BYTE   W96
// 001   ----------------------------------------
 BYTE   W96
// 002   ----------------------------------------
 BYTE   W96
// 003   ----------------------------------------
 BYTE   W96
// 004   ----------------------------------------
 BYTE   W96
// 005   ----------------------------------------
 BYTE   W96
// 006   ----------------------------------------
 BYTE   W96
// 007   ----------------------------------------
 BYTE   W96
// 008   ----------------------------------------
 BYTE   W96
// 009   ----------------------------------------
 BYTE   W96
// 010   ----------------------------------------
 BYTE   W96
// 011   ----------------------------------------
 BYTE   W96
// 012   ----------------------------------------
 BYTE   W96
// 013   ----------------------------------------
 BYTE   W96
// 014   ----------------------------------------
 BYTE   W96
// 015   ----------------------------------------
 BYTE   W96
// 016   ----------------------------------------
 BYTE   W96
// 017   ----------------------------------------
 BYTE   W96
// 018   ----------------------------------------
 BYTE   W96
// 019   ----------------------------------------
 BYTE   W96
// 020   ----------------------------------------
 BYTE   W96
// 021   ----------------------------------------
 BYTE   W96
// 022   ----------------------------------------
 BYTE   W96
// 023   ----------------------------------------
 BYTE   W96
// 024   ----------------------------------------
 BYTE   W96
// 025   ----------------------------------------
 BYTE   W96
// 026   ----------------------------------------
 BYTE   W96
// 027   ----------------------------------------
 BYTE   W96
// 028   ----------------------------------------
 BYTE   W96
// 029   ----------------------------------------
 BYTE   W96
// 030   ----------------------------------------
 BYTE   W96
// 031   ----------------------------------------
 BYTE   W96
// 032   ----------------------------------------
 BYTE   W96
// 033   ----------------------------------------
 BYTE   W96
// 034   ----------------------------------------
 BYTE   W96
// 035   ----------------------------------------
 BYTE   W96
// 036   ----------------------------------------
 BYTE   W96
// 037   ----------------------------------------
Label_11_0135ADAB:
 BYTE   W84
 BYTE   N11  As3  v112
 BYTE   N11  As4
 BYTE   W12
 BYTE   PEND 
// 038   ----------------------------------------
Label_11_0135ADB3:
 BYTE   N11  Gs3  v112
 BYTE   N11  Gs4
 BYTE   W12
 BYTE   As3
 BYTE   N11  As4
 BYTE   W12
 BYTE   Fs3
 BYTE   N11  Fs4
 BYTE   W12
 BYTE   As3
 BYTE   N11  As4
 BYTE   W12
 BYTE   Cs3
 BYTE   N11  Cs4
 BYTE   W12
 BYTE   As3
 BYTE   N11  As4
 BYTE   W12
 BYTE   Cs3
 BYTE   N11  Cs4
 BYTE   W12
 BYTE   As3
 BYTE   N11  As4
 BYTE   W12
 BYTE   PEND 
// 039   ----------------------------------------
 BYTE   W96
// 040   ----------------------------------------
Label_11_0135ADD7:
 BYTE   N23  Fn3  v108
 BYTE   N23  Fn4
 BYTE   W24
 BYTE   N11  Ds3
 BYTE   N11  Ds4
 BYTE   W12
 BYTE   Cs3
 BYTE   N11  Cs4
 BYTE   W24
 BYTE   N44  Gs2  v104
 BYTE   N44  Gs3
 BYTE   W36
 BYTE   PEND 
// 041   ----------------------------------------
 BYTE   W96
// 042   ----------------------------------------
Label_11_0135ADEE:
 BYTE   W12
 BYTE   N05  As3  v108
 BYTE   N05  As4
 BYTE   W06
 BYTE   An3
 BYTE   N05  An4
 BYTE   W06
 BYTE   As3  v112
 BYTE   N05  As4
 BYTE   W06
 BYTE   An3
 BYTE   N05  An4
 BYTE   W06
 BYTE   As3
 BYTE   N05  As4
 BYTE   W06
 BYTE   An3
 BYTE   N05  An4
 BYTE   W06
 BYTE   N11  Fs3
 BYTE   N11  Fs4
 BYTE   W12
 BYTE   Fn3
 BYTE   N11  Fn4
 BYTE   W12
 BYTE   Cs3
 BYTE   N11  Cs4
 BYTE   W12
 BYTE   As2
 BYTE   N11  As3
 BYTE   W12
 BYTE   PEND 
// 043   ----------------------------------------
 BYTE   W96
// 044   ----------------------------------------
Label_11_0135AE1D:
 BYTE   N11  As3  v124
 BYTE   N11  As4
 BYTE   W12
 BYTE   Gs3  v120
 BYTE   N11  Gs4
 BYTE   W12
 BYTE   Fs3
 BYTE   N11  Fs4
 BYTE   W12
 BYTE   N68  Cs3
 BYTE   N68  Cs4
 BYTE   W60
 BYTE   PEND 
// 045   ----------------------------------------
Label_11_0135AE32:
 BYTE   N44  As3  v112
 BYTE   N44  Fs4
 BYTE   W48
 BYTE   N32  Gs3
 BYTE   N32  Fn4
 BYTE   W36
 BYTE   TIE  Fs3
 BYTE   TIE  Ds4
 BYTE   W12
 BYTE   PEND 
// 046   ----------------------------------------
 BYTE   W92
 BYTE   W03
 BYTE   EOT
 BYTE   Fs3  v075
 BYTE   W01
// 047   ----------------------------------------
 BYTE   W96
// 048   ----------------------------------------
Label_11_0135AE4A:
 BYTE   N44  As3  v108
 BYTE   N44  As4
 BYTE   W48
 BYTE   Gs3  v112
 BYTE   N44  Gs4
 BYTE   W48
 BYTE   PEND 
// 049   ----------------------------------------
Label_11_0135AE56:
 BYTE   N92  Ds4  v112
 BYTE   N92  Cs5
 BYTE   W84
 BYTE   N11  As3
 BYTE   N11  As4
 BYTE   W12
 BYTE   PEND 
// 050   ----------------------------------------
 BYTE   PATT
  POIN2 Label_11_0135ADB3
// 051   ----------------------------------------
 BYTE   W96
// 052   ----------------------------------------
 BYTE   PATT
  POIN2 Label_11_0135AE1D
// 053   ----------------------------------------
 BYTE   PATT
  POIN2 Label_11_0135ADAB
// 054   ----------------------------------------
 BYTE   PATT
  POIN2 Label_11_0135ADB3
// 055   ----------------------------------------
 BYTE   W96
// 056   ----------------------------------------
 BYTE   PATT
  POIN2 Label_11_0135ADD7
// 057   ----------------------------------------
 BYTE   W96
// 058   ----------------------------------------
 BYTE   PATT
  POIN2 Label_11_0135ADEE
// 059   ----------------------------------------
 BYTE   W96
// 060   ----------------------------------------
 BYTE   W96
// 061   ----------------------------------------
 BYTE   PATT
  POIN2 Label_11_0135AE32
// 062   ----------------------------------------
 BYTE   W92
 BYTE   W03
 BYTE   EOT
 BYTE   Fs3  v075
 BYTE   W01
// 063   ----------------------------------------
 BYTE   W96
// 064   ----------------------------------------
 BYTE   PATT
  POIN2 Label_11_0135AE4A
// 065   ----------------------------------------
 BYTE   PATT
  POIN2 Label_11_0135AE56
// 066   ----------------------------------------
 BYTE   N11  Gs3  v112
 BYTE   N11  Gs4
 BYTE   W12
 BYTE   As3
 BYTE   N11  As4
 BYTE   W12
 BYTE   Fs3
 BYTE   N11  Fs4
 BYTE   W12
 BYTE   As3
 BYTE   N11  As4
 BYTE   W12
 BYTE   Cs3
 BYTE   N11  Cs4
 BYTE   W12
 BYTE   As3
 BYTE   N11  As4
 BYTE   W12
 BYTE   Cs3
 BYTE   N11  Cs4
 BYTE   W12
 BYTE   As3
 BYTE   N11  As4
 BYTE   W11
 BYTE   GoTo
  POIN2 Label_11_0135AD7E
 BYTE   FINE

//**************** Track 13 (Midi-Chn.12) ****************//

song01_013:
// 000   ----------------------------------------
 BYTE   KEYSH   song01_key+0
Label_12_01303226:
 BYTE   VOICE   31
 BYTE   PAN   c_v-1
 BYTE   VOL   32*song01_mvl/mxv
 BYTE   BENDR  12
 BYTE   W96
// 001   ----------------------------------------
 BYTE   W96
// 002   ----------------------------------------
 BYTE   W96
// 003   ----------------------------------------
 BYTE   W96
// 004   ----------------------------------------
 BYTE   W96
// 005   ----------------------------------------
 BYTE   W96
// 006   ----------------------------------------
 BYTE   W96
// 007   ----------------------------------------
 BYTE   W96
// 008   ----------------------------------------
 BYTE   W96
// 009   ----------------------------------------
 BYTE   W96
// 010   ----------------------------------------
 BYTE   W96
// 011   ----------------------------------------
 BYTE   W96
// 012   ----------------------------------------
 BYTE   W96
// 013   ----------------------------------------
 BYTE   W96
// 014   ----------------------------------------
 BYTE   W96
// 015   ----------------------------------------
 BYTE   W96
// 016   ----------------------------------------
 BYTE   W96
// 017   ----------------------------------------
 BYTE   W96
// 018   ----------------------------------------
 BYTE   W96
// 019   ----------------------------------------
 BYTE   W96
// 020   ----------------------------------------
 BYTE   W96
// 021   ----------------------------------------
 BYTE   W96
// 022   ----------------------------------------
 BYTE   W96
// 023   ----------------------------------------
 BYTE   W96
// 024   ----------------------------------------
 BYTE   W96
// 025   ----------------------------------------
 BYTE   W96
// 026   ----------------------------------------
 BYTE   W96
// 027   ----------------------------------------
 BYTE   W96
// 028   ----------------------------------------
 BYTE   W96
// 029   ----------------------------------------
 BYTE   W96
// 030   ----------------------------------------
 BYTE   W96
// 031   ----------------------------------------
 BYTE   W96
// 032   ----------------------------------------
 BYTE   W96
// 033   ----------------------------------------
 BYTE   W96
// 034   ----------------------------------------
 BYTE   W48
 BYTE   N60  As2  v064
 BYTE   N36  Cs3
 BYTE   N42  En3
 BYTE   W48
// 035   ----------------------------------------
 BYTE   W96
// 036   ----------------------------------------
 BYTE   W96
// 037   ----------------------------------------
 BYTE   W96
// 038   ----------------------------------------
 BYTE   W96
// 039   ----------------------------------------
 BYTE   W96
// 040   ----------------------------------------
 BYTE   W96
// 041   ----------------------------------------
 BYTE   W96
// 042   ----------------------------------------
 BYTE   W96
// 043   ----------------------------------------
 BYTE   W96
// 044   ----------------------------------------
 BYTE   W96
// 045   ----------------------------------------
 BYTE   W96
// 046   ----------------------------------------
 BYTE   W96
// 047   ----------------------------------------
 BYTE   W96
// 048   ----------------------------------------
 BYTE   W96
// 049   ----------------------------------------
 BYTE   W96
// 050   ----------------------------------------
 BYTE   W96
// 051   ----------------------------------------
 BYTE   W96
// 052   ----------------------------------------
 BYTE   W96
// 053   ----------------------------------------
 BYTE   W96
// 054   ----------------------------------------
 BYTE   W96
// 055   ----------------------------------------
 BYTE   W96
// 056   ----------------------------------------
 BYTE   W96
// 057   ----------------------------------------
 BYTE   W96
// 058   ----------------------------------------
 BYTE   W96
// 059   ----------------------------------------
 BYTE   W96
// 060   ----------------------------------------
 BYTE   W96
// 061   ----------------------------------------
 BYTE   W96
// 062   ----------------------------------------
 BYTE   W96
// 063   ----------------------------------------
 BYTE   W96
// 064   ----------------------------------------
 BYTE   W96
// 065   ----------------------------------------
 BYTE   W96
// 066   ----------------------------------------
 BYTE   W92
 BYTE   W03
 BYTE   GoTo
  POIN2 Label_12_01303226
 BYTE   FINE

//**************** Track 14 (Midi-Chn.13) ****************//

song01_014:
// 000   ----------------------------------------
 BYTE   KEYSH   song01_key+0
Label_13_01302D82:
 BYTE   VOICE   30
 BYTE   PAN   c_v-8
 BYTE   VOL   24*song01_mvl/mxv
 BYTE   BENDR  12
 BYTE   N80  Ds1  v100
 BYTE   W84
 BYTE   TIE  Cs1
 BYTE   W12
// 001   ----------------------------------------
 BYTE   W92
 BYTE   W03
 BYTE   EOT
 BYTE   W01
// 002   ----------------------------------------
Label_13_01302D95:
 BYTE   N80  Bn0  v100
 BYTE   W84
 BYTE   N44  Gs0
 BYTE   W12
 BYTE   PEND 
// 003   ----------------------------------------
 BYTE   W36
 BYTE   N56  As0
 BYTE   W60
// 004   ----------------------------------------
 BYTE   N80  Ds1
 BYTE   W84
 BYTE   N92  Cs1
 BYTE   W12
// 005   ----------------------------------------
 BYTE   W84
 BYTE   Bn0
 BYTE   W12
// 006   ----------------------------------------
 BYTE   W84
 BYTE   N44  Gs0
 BYTE   W12
// 007   ----------------------------------------
 BYTE   W36
 BYTE   N56  As0
 BYTE   W60
// 008   ----------------------------------------
 BYTE   N80  Ds1
 BYTE   W84
 BYTE   TIE  Cs1
 BYTE   W12
// 009   ----------------------------------------
 BYTE   W92
 BYTE   W03
 BYTE   EOT
 BYTE   W01
// 010   ----------------------------------------
 BYTE   PATT
  POIN2 Label_13_01302D95
// 011   ----------------------------------------
 BYTE   W36
 BYTE   N56  As0  v100
 BYTE   W60
// 012   ----------------------------------------
 BYTE   N80  Ds1
 BYTE   W84
 BYTE   TIE  Cs1  v096
 BYTE   W12
// 013   ----------------------------------------
 BYTE   W92
 BYTE   W03
 BYTE   EOT
 BYTE   W01
// 014   ----------------------------------------
 BYTE   N11  Bn0
 BYTE   W84
 BYTE   Gs0
 BYTE   W12
// 015   ----------------------------------------
 BYTE   W36
 BYTE   As0
 BYTE   W60
// 016   ----------------------------------------
 BYTE   W96
// 017   ----------------------------------------
 BYTE   W96
// 018   ----------------------------------------
 BYTE   W96
// 019   ----------------------------------------
 BYTE   W96
// 020   ----------------------------------------
 BYTE   W96
// 021   ----------------------------------------
 BYTE   W96
// 022   ----------------------------------------
 BYTE   W96
// 023   ----------------------------------------
 BYTE   W96
// 024   ----------------------------------------
 BYTE   W96
// 025   ----------------------------------------
 BYTE   W96
// 026   ----------------------------------------
 BYTE   W96
// 027   ----------------------------------------
 BYTE   W96
// 028   ----------------------------------------
 BYTE   W96
// 029   ----------------------------------------
 BYTE   W96
// 030   ----------------------------------------
 BYTE   W96
// 031   ----------------------------------------
 BYTE   W96
// 032   ----------------------------------------
 BYTE   W96
// 033   ----------------------------------------
 BYTE   W96
// 034   ----------------------------------------
 BYTE   W96
// 035   ----------------------------------------
 BYTE   W96
// 036   ----------------------------------------
 BYTE   W96
// 037   ----------------------------------------
 BYTE   W96
// 038   ----------------------------------------
 BYTE   W96
// 039   ----------------------------------------
 BYTE   W96
// 040   ----------------------------------------
 BYTE   W96
// 041   ----------------------------------------
 BYTE   W96
// 042   ----------------------------------------
 BYTE   W96
// 043   ----------------------------------------
 BYTE   W96
// 044   ----------------------------------------
 BYTE   W96
// 045   ----------------------------------------
 BYTE   W96
// 046   ----------------------------------------
 BYTE   W96
// 047   ----------------------------------------
 BYTE   W96
// 048   ----------------------------------------
 BYTE   W96
// 049   ----------------------------------------
 BYTE   W96
// 050   ----------------------------------------
 BYTE   W96
// 051   ----------------------------------------
 BYTE   W96
// 052   ----------------------------------------
 BYTE   W96
// 053   ----------------------------------------
 BYTE   W96
// 054   ----------------------------------------
 BYTE   W96
// 055   ----------------------------------------
 BYTE   W96
// 056   ----------------------------------------
 BYTE   W96
// 057   ----------------------------------------
 BYTE   W96
// 058   ----------------------------------------
 BYTE   W96
// 059   ----------------------------------------
 BYTE   W96
// 060   ----------------------------------------
 BYTE   W96
// 061   ----------------------------------------
 BYTE   W96
// 062   ----------------------------------------
 BYTE   W96
// 063   ----------------------------------------
 BYTE   W96
// 064   ----------------------------------------
 BYTE   W96
// 065   ----------------------------------------
 BYTE   W96
// 066   ----------------------------------------
 BYTE   W92
 BYTE   W03
 BYTE   GoTo
  POIN2 Label_13_01302D82
 BYTE   FINE

//**************** Track 15 (Midi-Chn.14) ****************//

song01_015:
// 000   ----------------------------------------
 BYTE   KEYSH   song01_key+0
Label_14_0135B21A:
 BYTE   VOICE   41
 BYTE   VOL   28*song01_mvl/mxv
 BYTE   PAN   c_v+9
 BYTE   BENDR  12
 BYTE   W96
// 001   ----------------------------------------
 BYTE   W96
// 002   ----------------------------------------
 BYTE   W96
// 003   ----------------------------------------
 BYTE   W96
// 004   ----------------------------------------
 BYTE   W96
// 005   ----------------------------------------
 BYTE   W96
// 006   ----------------------------------------
 BYTE   W84
 BYTE   N44  Gs0  v100
 BYTE   N11  Bn1
 BYTE   N44  Bn2
 BYTE   W12
// 007   ----------------------------------------
 BYTE   N11  Cs2
 BYTE   W12
 BYTE   Fs2
 BYTE   W12
 BYTE   As2
 BYTE   W12
 BYTE   N56  As0
 BYTE   W12
 BYTE   N11  Gs2
 BYTE   W12
 BYTE   Fs2
 BYTE   W12
 BYTE   Fn2
 BYTE   W12
 BYTE   Cs2
 BYTE   W12
// 008   ----------------------------------------
 BYTE   Ds2
 BYTE   N80  As2
 BYTE   N11  Ds3
 BYTE   N11  Fs3
 BYTE   W12
 BYTE   N05  As3
 BYTE   W12
 BYTE   Fn4
 BYTE   W12
 BYTE   As3
 BYTE   W12
 BYTE   Fs4
 BYTE   W12
 BYTE   As3
 BYTE   W12
 BYTE   Gs4
 BYTE   W12
 BYTE   N11  Ds2
 BYTE   TIE  Gs2
 BYTE   N11  Ds3
 BYTE   N11  Fs3
 BYTE   N05  As3
 BYTE   N05  Ds4
 BYTE   W12
// 009   ----------------------------------------
 BYTE   W12
 BYTE   Gs3
 BYTE   W12
 BYTE   Fn4
 BYTE   W12
 BYTE   Gs3
 BYTE   W12
 BYTE   Fs4
 BYTE   W12
 BYTE   Gs3
 BYTE   W12
 BYTE   Gs4
 BYTE   W12
 BYTE   Gs3
 BYTE   W11
 BYTE   EOT
 BYTE   Gs2
 BYTE   W01
// 010   ----------------------------------------
 BYTE   N11  Ds2
 BYTE   N56  As2
 BYTE   N11  Ds3
 BYTE   N11  Fs3
 BYTE   N05  Ds4
 BYTE   W12
 BYTE   As3
 BYTE   W12
 BYTE   Fn4
 BYTE   W12
 BYTE   As3
 BYTE   W12
 BYTE   Fs4
 BYTE   W12
 BYTE   N11  Ds2
 BYTE   N11  Fs2
 BYTE   N11  As2
 BYTE   N11  Ds3
 BYTE   N05  As3
 BYTE   W12
 BYTE   N11  Fn2
 BYTE   N11  Gs2
 BYTE   N11  Bn2
 BYTE   N11  Fn3
 BYTE   N05  Gs4
 BYTE   W12
 BYTE   N32  Fs2
 BYTE   N11  As2
 BYTE   N32  Ds3
 BYTE   N32  Fs3
 BYTE   N05  As3
 BYTE   W12
// 011   ----------------------------------------
 BYTE   N32  As2
 BYTE   N05  Ds4
 BYTE   W24
 BYTE   N11  Fs2
 BYTE   N05  Gs3
 BYTE   N05  Fn4
 BYTE   W12
 BYTE   Ds2
 BYTE   N12  Gs2
 BYTE   N05  Ds3
 BYTE   N05  Ds4
 BYTE   W06
 BYTE   Fn2
 BYTE   N05  Fn3
 BYTE   N05  Fn4
 BYTE   W06
 BYTE   Gs2
 BYTE   N05  Fs3
 BYTE   N05  As3
 BYTE   N05  Fs4
 BYTE   W12
 BYTE   Fn2
 BYTE   N05  Fn3
 BYTE   N05  Gs3
 BYTE   N05  Fn4
 BYTE   W12
 BYTE   Ds2
 BYTE   N05  Ds3
 BYTE   N05  Fs3
 BYTE   N05  Ds4
 BYTE   W12
 BYTE   Cs2
 BYTE   N05  Cs3
 BYTE   N05  Fn3
 BYTE   N05  Cs4
 BYTE   W12
// 012   ----------------------------------------
 BYTE   N11  Ds2
 BYTE   N80  As2
 BYTE   N05  Ds3
 BYTE   N05  Fs3
 BYTE   N05  Ds4
 BYTE   W12
 BYTE   As3
 BYTE   W12
 BYTE   Fn4
 BYTE   W12
 BYTE   As3
 BYTE   W12
 BYTE   Fs4  v096
 BYTE   W12
 BYTE   As3
 BYTE   W12
 BYTE   Gs4
 BYTE   W12
 BYTE   N11  Ds2
 BYTE   TIE  Gs2
 BYTE   N05  Ds3
 BYTE   N05  Fs3
 BYTE   N05  As3
 BYTE   N05  Ds4
 BYTE   W12
// 013   ----------------------------------------
 BYTE   W12
 BYTE   Gs3
 BYTE   W12
 BYTE   Fn4
 BYTE   W12
 BYTE   Gs3
 BYTE   W12
 BYTE   Fs4
 BYTE   W12
 BYTE   Gs3
 BYTE   W12
 BYTE   Gs4
 BYTE   W12
 BYTE   Gs3
 BYTE   W11
 BYTE   EOT
 BYTE   Gs2
 BYTE   W01
// 014   ----------------------------------------
 BYTE   N11  Ds2
 BYTE   N11  As2
 BYTE   N05  Ds3
 BYTE   N05  Fs3
 BYTE   N05  As4
 BYTE   W12
 BYTE   As3
 BYTE   W12
 BYTE   Gs4
 BYTE   W12
 BYTE   As3
 BYTE   W12
 BYTE   Fs4
 BYTE   W12
 BYTE   As3
 BYTE   W12
 BYTE   Gs4
 BYTE   W12
 BYTE   N44  Bn1
 BYTE   N11  Gs2
 BYTE   N05  Ds3
 BYTE   N05  As3
 BYTE   N40  Fs4
 BYTE   W12
// 015   ----------------------------------------
 BYTE   W24
 BYTE   N11  Gs2
 BYTE   N05  Gs3
 BYTE   W12
 BYTE   N44  Cs2
 BYTE   N05  Ds3
 BYTE   N52  Fn4
 BYTE   W06
 BYTE   N05  Fn3
 BYTE   W06
 BYTE   N11  As2
 BYTE   N05  Fs3
 BYTE   N05  As3
 BYTE   W12
 BYTE   N11  Gs2
 BYTE   N05  Fn3
 BYTE   N05  Gs3
 BYTE   W12
 BYTE   N11  Fs2  v100
 BYTE   N05  Ds3
 BYTE   N05  Fs3
 BYTE   W12
 BYTE   N11  Fn2
 BYTE   N05  Cs3
 BYTE   N05  Fn3
 BYTE   W12
// 016   ----------------------------------------
 BYTE   W96
// 017   ----------------------------------------
 BYTE   W96
// 018   ----------------------------------------
 BYTE   W96
// 019   ----------------------------------------
 BYTE   W96
// 020   ----------------------------------------
 BYTE   W96
// 021   ----------------------------------------
 BYTE   W96
// 022   ----------------------------------------
 BYTE   W96
// 023   ----------------------------------------
 BYTE   W96
// 024   ----------------------------------------
 BYTE   W96
// 025   ----------------------------------------
 BYTE   W96
// 026   ----------------------------------------
 BYTE   W96
// 027   ----------------------------------------
 BYTE   W96
// 028   ----------------------------------------
 BYTE   W96
// 029   ----------------------------------------
 BYTE   W96
// 030   ----------------------------------------
 BYTE   W96
// 031   ----------------------------------------
 BYTE   W96
// 032   ----------------------------------------
 BYTE   W96
// 033   ----------------------------------------
 BYTE   W96
// 034   ----------------------------------------
 BYTE   W96
// 035   ----------------------------------------
Label_14_0135B37F:
 BYTE   N80  Bn0  v080
 BYTE   N80  Bn1
 BYTE   N80  Ds3
 BYTE   W84
 BYTE   TIE  Cs1
 BYTE   TIE  Cs2
 BYTE   TIE  Fn3
 BYTE   W12
 BYTE   PEND 
// 036   ----------------------------------------
 BYTE   W92
 BYTE   W03
 BYTE   EOT
 BYTE   Cs1  v049
 BYTE   Fn3
 BYTE   W01
// 037   ----------------------------------------
Label_14_0135B396:
 BYTE   N80  Ds1  v080
 BYTE   N80  Ds2
 BYTE   N92  Ds3
 BYTE   N92  Fs3
 BYTE   W84
 BYTE   TIE  Fs0
 BYTE   TIE  Fs2
 BYTE   W12
 BYTE   PEND 
// 038   ----------------------------------------
Label_14_0135B3A6:
 BYTE   N92  Cs3  v080
 BYTE   N92  Fs3
 BYTE   W92
 BYTE   W03
 BYTE   PEND 
 BYTE   EOT
 BYTE   Fs0  v054
 BYTE   W01
// 039   ----------------------------------------
 BYTE   PATT
  POIN2 Label_14_0135B37F
// 040   ----------------------------------------
 BYTE   W92
 BYTE   W03
 BYTE   EOT
 BYTE   Cs1  v049
 BYTE   Fn3
 BYTE   W01
// 041   ----------------------------------------
 BYTE   PATT
  POIN2 Label_14_0135B396
// 042   ----------------------------------------
 BYTE   PATT
  POIN2 Label_14_0135B3A6
// 043   ----------------------------------------
 BYTE   EOT
 BYTE   Fs0  v054
 BYTE   W01
Label_14_0135B3CC:
 BYTE   N80  Bn0  v080
 BYTE   N80  Bn1
 BYTE   N80  Bn2
 BYTE   N80  Ds3
 BYTE   W84
 BYTE   TIE  Cs1
 BYTE   TIE  Cs2
 BYTE   TIE  Cs3
 BYTE   TIE  Fn3
 BYTE   W12
 BYTE   PEND 
// 044   ----------------------------------------
 BYTE   W92
 BYTE   W03
 BYTE   EOT
 BYTE   Cs1  v049
 BYTE   Cs3  v065
 BYTE   W01
// 045   ----------------------------------------
Label_14_0135B3E8:
 BYTE   N44  Ds1  v080
 BYTE   N44  Ds2
 BYTE   N44  Ds3
 BYTE   N44  Fs3
 BYTE   W48
 BYTE   N32  Cs1
 BYTE   N32  Cs2
 BYTE   N32  Cs3
 BYTE   N32  Fn3
 BYTE   W36
 BYTE   TIE  Bn0
 BYTE   TIE  Bn1
 BYTE   TIE  Bn2
 BYTE   TIE  Ds3
 BYTE   W12
 BYTE   PEND 
// 046   ----------------------------------------
 BYTE   W92
 BYTE   W03
 BYTE   EOT
 BYTE   Bn0  v047
 BYTE   Bn2  v063
 BYTE   W01
// 047   ----------------------------------------
 BYTE   PATT
  POIN2 Label_14_0135B37F
// 048   ----------------------------------------
 BYTE   W92
 BYTE   W03
 BYTE   EOT
 BYTE   Cs1  v049
 BYTE   Fn3
 BYTE   W01
// 049   ----------------------------------------
 BYTE   PATT
  POIN2 Label_14_0135B396
// 050   ----------------------------------------
 BYTE   PATT
  POIN2 Label_14_0135B3A6
// 051   ----------------------------------------
 BYTE   EOT
 BYTE   Fs0  v054
 BYTE   W01
// 052   ----------------------------------------
 BYTE   PATT
  POIN2 Label_14_0135B37F
// 053   ----------------------------------------
 BYTE   W92
 BYTE   W03
 BYTE   EOT
 BYTE   Cs1  v049
 BYTE   Fn3
 BYTE   W01
// 054   ----------------------------------------
 BYTE   PATT
  POIN2 Label_14_0135B396
// 055   ----------------------------------------
 BYTE   PATT
  POIN2 Label_14_0135B3A6
// 056   ----------------------------------------
 BYTE   EOT
 BYTE   Fs0  v054
 BYTE   W01
// 057   ----------------------------------------
 BYTE   PATT
  POIN2 Label_14_0135B37F
// 058   ----------------------------------------
 BYTE   W92
 BYTE   W03
 BYTE   EOT
 BYTE   Cs1  v049
 BYTE   Fn3
 BYTE   W01
// 059   ----------------------------------------
 BYTE   PATT
  POIN2 Label_14_0135B396
// 060   ----------------------------------------
 BYTE   PATT
  POIN2 Label_14_0135B3A6
// 061   ----------------------------------------
 BYTE   EOT
 BYTE   Fs0  v054
 BYTE   W01
// 062   ----------------------------------------
 BYTE   PATT
  POIN2 Label_14_0135B3CC
// 063   ----------------------------------------
 BYTE   W92
 BYTE   W03
 BYTE   EOT
 BYTE   Cs1  v049
 BYTE   Cs3  v065
 BYTE   W01
// 064   ----------------------------------------
 BYTE   PATT
  POIN2 Label_14_0135B3E8
// 065   ----------------------------------------
 BYTE   W92
 BYTE   W03
 BYTE   EOT
 BYTE   Bn0  v047
 BYTE   Bn2  v063
 BYTE   W01
// 066   ----------------------------------------
 BYTE   PATT
  POIN2 Label_14_0135B37F
// 067   ----------------------------------------
 BYTE   W92
 BYTE   W03
 BYTE   EOT
 BYTE   Cs1  v049
 BYTE   Fn3
 BYTE   W01
// 068   ----------------------------------------
 BYTE   PATT
  POIN2 Label_14_0135B396
// 069   ----------------------------------------
 BYTE   PATT
  POIN2 Label_14_0135B3A6
// 070   ----------------------------------------
 BYTE   EOT
 BYTE   Fs0  v054
 BYTE   GoTo
  POIN2 Label_14_0135B21A
 BYTE   FINE

//******************************************************//
	ALIGN 4

song01:
	BYTE	15	// NumTrks
	BYTE	0	// NumBlks
	BYTE	song01_pri	// Priority
	BYTE	song01_rev	// Reverb.
    
	POIN2	song01_grp
    
	POIN2	song01_001
	POIN2	song01_002
	POIN2	song01_003
	POIN2	song01_004
	POIN2	song01_005
	POIN2	song01_006
	POIN2	song01_007
	POIN2	song01_008
	POIN2	song01_009
	POIN2	song01_010
	POIN2	song01_011
	POIN2	song01_012
	POIN2	song01_013
	POIN2	song01_014
	POIN2	song01_015

	
