//Event file generated from Sappy .s format.
	#include "MPlayDef.event"

	#define	song03DF_grp  voicegroup001
	#define	song03DF_pri  0
	#define	song03DF_rev  0
	#define	song03DF_mvl  127
	#define	song03DF_key  0
	#define	song03DF_tbs  1
	#define	song03DF_exg  0
	#define	song03DF_cmp  1

	// .rodata
	//	song03DF
	ALIGN 4


//**************** Track 1 (Midi-Chn.0) ****************//

song03DF_001:
//  #01 //000   ----------------------------------------
 BYTE   KEYSH   song03DF_key+0
 BYTE   TEMPO   50*song03DF_tbs/2
 BYTE   VOICE   46
 BYTE   PAN   c_v+0
 BYTE   VOL   31*song03DF_mvl/mxv
 BYTE   BEND   c_v+0
 BYTE   N02  En3  v100
 BYTE   W03
 BYTE   Gn3
 BYTE   W03
 BYTE   Bn3
 BYTE   W03
 BYTE   Gn3
 BYTE   W03
 BYTE   Bn3
 BYTE   W03
 BYTE   En4
 BYTE   W03
 BYTE   Bn3
 BYTE   W03
 BYTE   En4
 BYTE   W03
 BYTE   Gn4
 BYTE   W03
 BYTE   En4
 BYTE   W03
 BYTE   Gn4
 BYTE   W03
 BYTE   Bn4
 BYTE   W03
 BYTE   Gn4
 BYTE   W03
 BYTE   En4
 BYTE   W03
 BYTE   Bn3
 BYTE   W03
 BYTE   Gn3
 BYTE   W03
 BYTE   En3
 BYTE   W03
 BYTE   Gn3
 BYTE   W03
 BYTE   Bn3
 BYTE   W03
 BYTE   Gn3
 BYTE   W03
 BYTE   Bn3
 BYTE   W03
 BYTE   En4
 BYTE   W03
 BYTE   Bn3
 BYTE   W03
 BYTE   En4
 BYTE   W03
 BYTE   Gn4
 BYTE   W03
 BYTE   En4
 BYTE   W03
 BYTE   Gn4
 BYTE   W03
 BYTE   Bn4
 BYTE   W03
 BYTE   Gn4
 BYTE   W03
 BYTE   En4
 BYTE   W03
 BYTE   Bn3
 BYTE   W03
 BYTE   Gn3
 BYTE   W03
//  #01 //001   ----------------------------------------
Label_014C7AEE:
 BYTE   N02  En3  v100
 BYTE   W03
 BYTE   Gn3
 BYTE   W03
 BYTE   Bn3
 BYTE   W03
 BYTE   Gn3
 BYTE   W03
 BYTE   Bn3
 BYTE   W03
 BYTE   En4
 BYTE   W03
 BYTE   Bn3
 BYTE   W03
 BYTE   En4
 BYTE   W03
 BYTE   Gn4
 BYTE   W03
 BYTE   En4
 BYTE   W03
 BYTE   Gn4
 BYTE   W03
 BYTE   Bn4
 BYTE   W03
 BYTE   Gn4
 BYTE   W03
 BYTE   En4
 BYTE   W03
 BYTE   Bn3
 BYTE   W03
 BYTE   Gn3
 BYTE   W03
 BYTE   En3
 BYTE   W03
 BYTE   Gn3
 BYTE   W03
 BYTE   Bn3
 BYTE   W03
 BYTE   Gn3
 BYTE   W03
 BYTE   Bn3
 BYTE   W03
 BYTE   En4
 BYTE   W03
 BYTE   Bn3
 BYTE   W03
 BYTE   En4
 BYTE   W03
 BYTE   Gn4
 BYTE   W03
 BYTE   En4
 BYTE   W03
 BYTE   Gn4
 BYTE   W03
 BYTE   Bn4
 BYTE   W03
 BYTE   Gn4
 BYTE   W03
 BYTE   En4
 BYTE   W03
 BYTE   Bn3
 BYTE   W03
 BYTE   Gn3
 BYTE   W03
 BYTE   PEND 
//  #01 //002   ----------------------------------------
Label_014C7B31:
//  #01 //003   ----------------------------------------
 BYTE   PATT
  POIN2 Label_014C7AEE
//  #01 //004   ----------------------------------------
 BYTE   PATT
  POIN2 Label_014C7AEE
//  #01 //005   ----------------------------------------
 BYTE   PATT
  POIN2 Label_014C7AEE
//  #01 //006   ----------------------------------------
 BYTE   PATT
  POIN2 Label_014C7AEE
//  #01 //007   ----------------------------------------
 BYTE   PATT
  POIN2 Label_014C7AEE
//  #01 //008   ----------------------------------------
 BYTE   PATT
  POIN2 Label_014C7AEE
//  #01 //009   ----------------------------------------
 BYTE   N02  En3  v100
 BYTE   W03
 BYTE   Gn3
 BYTE   W03
 BYTE   Bn3
 BYTE   W03
 BYTE   Gn3
 BYTE   W03
 BYTE   Bn3
 BYTE   W03
 BYTE   En4
 BYTE   W03
 BYTE   Bn3
 BYTE   W03
 BYTE   En4
 BYTE   W03
 BYTE   Gn4
 BYTE   W03
 BYTE   En4
 BYTE   W03
 BYTE   Gn4
 BYTE   W03
 BYTE   Bn4
 BYTE   W03
 BYTE   Gn4
 BYTE   W03
 BYTE   En4
 BYTE   W03
 BYTE   Bn3
 BYTE   W03
 BYTE   Gn3
 BYTE   W03
 BYTE   En3
 BYTE   W03
 BYTE   Gn3
 BYTE   W03
 BYTE   Cs4
 BYTE   W03
 BYTE   Gn3
 BYTE   W03
 BYTE   Cs4
 BYTE   W03
 BYTE   En4
 BYTE   W03
 BYTE   Cs4
 BYTE   W03
 BYTE   En4
 BYTE   W03
 BYTE   Gn4
 BYTE   W03
 BYTE   En4
 BYTE   W03
 BYTE   Gn4
 BYTE   W03
 BYTE   Bn4
 BYTE   W03
 BYTE   Gn4
 BYTE   W03
 BYTE   En4
 BYTE   W03
 BYTE   Bn3
 BYTE   W03
 BYTE   Gn3
 BYTE   W03
//  #01 //010   ----------------------------------------
 BYTE   En3
 BYTE   W03
 BYTE   Gn3
 BYTE   W03
 BYTE   Bn3
 BYTE   W03
 BYTE   Gn3
 BYTE   W03
 BYTE   Bn3
 BYTE   W03
 BYTE   En4
 BYTE   W03
 BYTE   Bn3
 BYTE   W03
 BYTE   En4
 BYTE   W03
 BYTE   Gn4
 BYTE   W03
 BYTE   En4
 BYTE   W03
 BYTE   Gn4
 BYTE   W03
 BYTE   Bn4
 BYTE   W03
 BYTE   Gn4
 BYTE   W03
 BYTE   En4
 BYTE   W03
 BYTE   Bn3
 BYTE   W03
 BYTE   Gn3
 BYTE   W03
 BYTE   En3
 BYTE   W03
 BYTE   Gn3
 BYTE   W03
 BYTE   Bn3
 BYTE   W03
 BYTE   Gn3
 BYTE   W03
 BYTE   Bn3
 BYTE   W03
 BYTE   En4
 BYTE   W03
 BYTE   Bn3
 BYTE   W03
 BYTE   En4
 BYTE   W03
 BYTE   Gn4
 BYTE   W03
 BYTE   En4
 BYTE   W03
 BYTE   Gn4
 BYTE   W03
 BYTE   Bn4
 BYTE   W03
 BYTE   Gn4
 BYTE   W03
 BYTE   Bn4
 BYTE   W03
 BYTE   En5
 BYTE   W03
 BYTE   Dn5
 BYTE   W03
//  #01 //011   ----------------------------------------
 BYTE   PATT
  POIN2 Label_014C7AEE
//  #01 //012   ----------------------------------------
 BYTE   PATT
  POIN2 Label_014C7AEE
//  #01 //013   ----------------------------------------
 BYTE   PATT
  POIN2 Label_014C7AEE
//  #01 //014   ----------------------------------------
 BYTE   PATT
  POIN2 Label_014C7AEE
//  #01 //015   ----------------------------------------
 BYTE   PATT
  POIN2 Label_014C7AEE
//  #01 //016   ----------------------------------------
 BYTE   PATT
  POIN2 Label_014C7AEE
//  #01 //017   ----------------------------------------
 BYTE   PATT
  POIN2 Label_014C7AEE
//  #01 //018   ----------------------------------------
 BYTE   PATT
  POIN2 Label_014C7AEE
//  #01 //019   ----------------------------------------
 BYTE   PATT
  POIN2 Label_014C7AEE
//  #01 //020   ----------------------------------------
 BYTE   PATT
  POIN2 Label_014C7AEE
//  #01 //021   ----------------------------------------
 BYTE   PATT
  POIN2 Label_014C7AEE
//  #01 //022   ----------------------------------------
 BYTE   PATT
  POIN2 Label_014C7AEE
//  #01 //023   ----------------------------------------
 BYTE   PATT
  POIN2 Label_014C7AEE
//  #01 //024   ----------------------------------------
 BYTE   N02  En3  v100
 BYTE   W03
 BYTE   Gn3
 BYTE   W03
 BYTE   Bn3
 BYTE   W03
 BYTE   Gn3
 BYTE   W03
 BYTE   Bn3
 BYTE   W03
 BYTE   En4
 BYTE   W03
 BYTE   Bn3
 BYTE   W03
 BYTE   En4
 BYTE   W03
 BYTE   Gn4
 BYTE   W03
 BYTE   En4
 BYTE   W03
 BYTE   Gn4
 BYTE   W03
 BYTE   Bn4
 BYTE   W03
 BYTE   Gn4
 BYTE   W03
 BYTE   En4
 BYTE   W03
 BYTE   Bn3
 BYTE   W03
 BYTE   Gn3
 BYTE   W03
 BYTE   En3
 BYTE   W03
 BYTE   Gn3
 BYTE   W03
 BYTE   Bn3
 BYTE   W03
 BYTE   Gn3
 BYTE   W03
 BYTE   Bn3
 BYTE   W03
 BYTE   En4
 BYTE   W03
 BYTE   Bn3
 BYTE   W03
 BYTE   En4
 BYTE   W03
 BYTE   Fs4
 BYTE   W03
 BYTE   Ds4
 BYTE   W03
 BYTE   Fs4
 BYTE   W03
 BYTE   Bn4
 BYTE   W03
 BYTE   Fs4
 BYTE   W03
 BYTE   Ds4
 BYTE   W03
 BYTE   Bn3
 BYTE   W03
 BYTE   Fs3
 BYTE   W03
//  #01 //025   ----------------------------------------
 BYTE   PATT
  POIN2 Label_014C7AEE
//  #01 //026   ----------------------------------------
 BYTE   PATT
  POIN2 Label_014C7AEE
//  #01 //027   ----------------------------------------
 BYTE   PATT
  POIN2 Label_014C7AEE
//  #01 //028   ----------------------------------------
 BYTE   N02  En3  v100
 BYTE   W03
 BYTE   Gn3
 BYTE   W03
 BYTE   Bn3
 BYTE   W03
 BYTE   Gn3
 BYTE   W03
 BYTE   Bn3
 BYTE   W03
 BYTE   En4
 BYTE   W03
 BYTE   Bn3
 BYTE   W03
 BYTE   En4
 BYTE   W03
 BYTE   Gn4
 BYTE   W03
 BYTE   En4
 BYTE   W03
 BYTE   Gn4
 BYTE   W03
 BYTE   Bn4
 BYTE   W03
 BYTE   Gn4
 BYTE   W03
 BYTE   En4
 BYTE   W03
 BYTE   Bn3
 BYTE   W03
 BYTE   Gn3
 BYTE   W03
 BYTE   En3
 BYTE   W03
 BYTE   Gn3
 BYTE   W03
 BYTE   Bn3
 BYTE   W03
 BYTE   Gn3
 BYTE   W03
 BYTE   Bn3
 BYTE   W03
 BYTE   En4
 BYTE   W03
 BYTE   Bn3
 BYTE   W03
 BYTE   En4
 BYTE   W03
 BYTE   Gn4
 BYTE   W03
 BYTE   En4
 BYTE   W03
 BYTE   Gn4
 BYTE   W03
 BYTE   Bn4
 BYTE   W03
 BYTE   Gn4
 BYTE   W03
 BYTE   An4
 BYTE   W03
 BYTE   Gn4
 BYTE   W03
 BYTE   Fs4
 BYTE   W03
//  #01 //029   ----------------------------------------
 BYTE   En4
 BYTE   W03
 BYTE   Bn3
 BYTE   W03
 BYTE   Gn3
 BYTE   W03
 BYTE   Bn3
 BYTE   W03
 BYTE   En4
 BYTE   W03
 BYTE   Gn4
 BYTE   W03
 BYTE   En4
 BYTE   W03
 BYTE   Gn4
 BYTE   W03
 BYTE   Bn4
 BYTE   W03
 BYTE   En4
 BYTE   W03
 BYTE   Gn4
 BYTE   W03
 BYTE   Bn4
 BYTE   W03
 BYTE   Gn4
 BYTE   W03
 BYTE   En4
 BYTE   W03
 BYTE   Bn3
 BYTE   W03
 BYTE   Gn3
 BYTE   W03
 BYTE   En3
 BYTE   W03
 BYTE   Gn3
 BYTE   W03
 BYTE   Bn3
 BYTE   W03
 BYTE   Gn3
 BYTE   W03
 BYTE   Bn3
 BYTE   W03
 BYTE   En4
 BYTE   W03
 BYTE   Bn3
 BYTE   W03
 BYTE   En4
 BYTE   W03
 BYTE   Gn4
 BYTE   W03
 BYTE   En4
 BYTE   W03
 BYTE   Gn4
 BYTE   W03
 BYTE   Bn4
 BYTE   W03
 BYTE   Gn4
 BYTE   W03
 BYTE   En4
 BYTE   W03
 BYTE   Bn3
 BYTE   W03
 BYTE   Gn3
 BYTE   W03
//  #01 //030   ----------------------------------------
 BYTE   PATT
  POIN2 Label_014C7AEE
//  #01 //031   ----------------------------------------
 BYTE   PATT
  POIN2 Label_014C7AEE
//  #01 //032   ----------------------------------------
 BYTE   PATT
  POIN2 Label_014C7AEE
//  #01 //033   ----------------------------------------
 BYTE   GoTo
  POIN2 Label_014C7B31
//  #01 //034   ----------------------------------------
 BYTE   VOICE   46
 BYTE   BEND   c_v+0
 BYTE   FINE

//**************** Track 2 (Midi-Chn.1) ****************//

song03DF_002:
//  #02 //000   ----------------------------------------
 BYTE   KEYSH   song03DF_key+0
 BYTE   VOICE   51
 BYTE   VOL   53*song03DF_mvl/mxv
 BYTE   PAN   c_v+0
 BYTE   BEND   c_v+0
 BYTE   TIE  En1  v100
 BYTE   W96
//  #02 //001   ----------------------------------------
 BYTE   W92
 BYTE   W03
 BYTE   EOT
 BYTE   W01
//  #02 //002   ----------------------------------------
Label_014C69E2:
 BYTE   TIE  En1  v100
 BYTE   W96
//  #02 //003   ----------------------------------------
 BYTE   W92
 BYTE   W03
 BYTE   EOT
 BYTE   W01
//  #02 //004   ----------------------------------------
 BYTE   TIE
 BYTE   W96
//  #02 //005   ----------------------------------------
 BYTE   W92
 BYTE   W03
 BYTE   EOT
 BYTE   W01
//  #02 //006   ----------------------------------------
 BYTE   TIE
 BYTE   W96
//  #02 //007   ----------------------------------------
 BYTE   W92
 BYTE   W03
 BYTE   EOT
 BYTE   W01
//  #02 //008   ----------------------------------------
 BYTE   TIE
 BYTE   W96
//  #02 //009   ----------------------------------------
 BYTE   W92
 BYTE   W03
 BYTE   EOT
 BYTE   W01
//  #02 //010   ----------------------------------------
 BYTE   TIE
 BYTE   W96
//  #02 //011   ----------------------------------------
 BYTE   W92
 BYTE   W03
 BYTE   EOT
 BYTE   W01
//  #02 //012   ----------------------------------------
Label_014C6A02:
 BYTE   N44  En1  v100
 BYTE   W48
 BYTE   Cn1
 BYTE   W48
 BYTE   PEND 
//  #02 //013   ----------------------------------------
 BYTE   Dn1
 BYTE   W48
 BYTE   En1
 BYTE   W48
//  #02 //014   ----------------------------------------
 BYTE   PATT
  POIN2 Label_014C6A02
//  #02 //015   ----------------------------------------
 BYTE   N44  Dn1  v100
 BYTE   W48
 BYTE   An1
 BYTE   W48
//  #02 //016   ----------------------------------------
 BYTE   TIE  En1
 BYTE   W96
//  #02 //017   ----------------------------------------
 BYTE   W92
 BYTE   W03
 BYTE   EOT
 BYTE   W01
//  #02 //018   ----------------------------------------
 BYTE   TIE
 BYTE   W96
//  #02 //019   ----------------------------------------
 BYTE   W92
 BYTE   W03
 BYTE   EOT
 BYTE   W01
//  #02 //020   ----------------------------------------
 BYTE   TIE
 BYTE   W96
//  #02 //021   ----------------------------------------
 BYTE   W92
 BYTE   W03
 BYTE   EOT
 BYTE   W01
//  #02 //022   ----------------------------------------
 BYTE   TIE
 BYTE   W96
//  #02 //023   ----------------------------------------
 BYTE   W92
 BYTE   W03
 BYTE   EOT
 BYTE   W01
//  #02 //024   ----------------------------------------
 BYTE   TIE
 BYTE   W96
//  #02 //025   ----------------------------------------
 BYTE   W92
 BYTE   W03
 BYTE   EOT
 BYTE   W01
//  #02 //026   ----------------------------------------
 BYTE   TIE
 BYTE   W96
//  #02 //027   ----------------------------------------
 BYTE   W92
 BYTE   W03
 BYTE   EOT
 BYTE   W01
//  #02 //028   ----------------------------------------
 BYTE   TIE
 BYTE   W96
//  #02 //029   ----------------------------------------
 BYTE   W92
 BYTE   W03
 BYTE   EOT
 BYTE   W01
//  #02 //030   ----------------------------------------
 BYTE   TIE
 BYTE   W96
//  #02 //031   ----------------------------------------
 BYTE   W92
 BYTE   W03
 BYTE   EOT
 BYTE   W01
//  #02 //032   ----------------------------------------
 BYTE   GoTo
  POIN2 Label_014C69E2
//  #02 //033   ----------------------------------------
 BYTE   VOICE   51
 BYTE   BEND   c_v+0
 BYTE   FINE

//**************** Track 3 (Midi-Chn.2) ****************//

song03DF_003:
//  #03 //000   ----------------------------------------
 BYTE   KEYSH   song03DF_key+0
 BYTE   VOICE   47
 BYTE   VOL   68*song03DF_mvl/mxv
 BYTE   PAN   c_v+6
 BYTE   BEND   c_v+0
 BYTE   W96
//  #03 //001   ----------------------------------------
 BYTE   W96
//  #03 //002   ----------------------------------------
Label_014C7104:
 BYTE   W96
//  #03 //003   ----------------------------------------
 BYTE   W96
//  #03 //004   ----------------------------------------
 BYTE   W96
//  #03 //005   ----------------------------------------
 BYTE   W96
//  #03 //006   ----------------------------------------
 BYTE   W96
//  #03 //007   ----------------------------------------
 BYTE   W96
//  #03 //008   ----------------------------------------
 BYTE   W96
//  #03 //009   ----------------------------------------
 BYTE   W90
 BYTE   N02  En2  v100
 BYTE   W03
 BYTE   N02
 BYTE   W03
//  #03 //010   ----------------------------------------
 BYTE   N08
 BYTE   W09
 BYTE   N08
 BYTE   W09
 BYTE   N23
 BYTE   W24
 BYTE   N01
 BYTE   W02
 BYTE   N01
 BYTE   W02
 BYTE   N01
 BYTE   W02
 BYTE   N08
 BYTE   W09
 BYTE   Fn2
 BYTE   W09
 BYTE   N24  En2
 BYTE   W24
 BYTE   W03
 BYTE   N02  Fn2
 BYTE   W03
//  #03 //011   ----------------------------------------
 BYTE   N05  Fs2
 BYTE   W06
 BYTE   Gs2
 BYTE   W06
 BYTE   N02  Dn2
 BYTE   W03
 BYTE   N24  En2
 BYTE   W24
 BYTE   W03
 BYTE   N02
 BYTE   W03
 BYTE   Fn2
 BYTE   W03
 BYTE   N08  Fs2
 BYTE   W09
 BYTE   Gn2
 BYTE   W09
 BYTE   N14  Gs2
 BYTE   W15
 BYTE   Bn2
 BYTE   W15
//  #03 //012   ----------------------------------------
 BYTE   W96
//  #03 //013   ----------------------------------------
 BYTE   W96
//  #03 //014   ----------------------------------------
 BYTE   W96
//  #03 //015   ----------------------------------------
 BYTE   W96
//  #03 //016   ----------------------------------------
 BYTE   W42
 BYTE   N02  En3
 BYTE   W03
 BYTE   N02
 BYTE   W03
 BYTE   N08
 BYTE   W09
 BYTE   Dn3
 BYTE   W09
 BYTE   N23  En3
 BYTE   W24
 BYTE   N02  Dn3
 BYTE   W03
 BYTE   En3
 BYTE   W03
//  #03 //017   ----------------------------------------
 BYTE   N08
 BYTE   W09
 BYTE   Fn3
 BYTE   W09
 BYTE   N23  Dn3
 BYTE   W24
 BYTE   N02
 BYTE   W03
 BYTE   N02
 BYTE   W03
 BYTE   N17  En3
 BYTE   W18
 BYTE   N28  An2
 BYTE   W30
//  #03 //018   ----------------------------------------
 BYTE   W96
//  #03 //019   ----------------------------------------
 BYTE   W96
//  #03 //020   ----------------------------------------
 BYTE   W96
//  #03 //021   ----------------------------------------
 BYTE   W96
//  #03 //022   ----------------------------------------
 BYTE   W96
//  #03 //023   ----------------------------------------
 BYTE   W96
//  #03 //024   ----------------------------------------
 BYTE   W96
//  #03 //025   ----------------------------------------
 BYTE   W96
//  #03 //026   ----------------------------------------
 BYTE   W96
//  #03 //027   ----------------------------------------
 BYTE   W90
 BYTE   N01  En2
 BYTE   W02
 BYTE   N01
 BYTE   W02
 BYTE   N01
 BYTE   W02
//  #03 //028   ----------------------------------------
 BYTE   N02
 BYTE   W03
 BYTE   N02
 BYTE   W03
 BYTE   N02
 BYTE   W03
 BYTE   N02
 BYTE   W03
 BYTE   N02
 BYTE   W03
 BYTE   N02
 BYTE   W03
 BYTE   N05
 BYTE   W24
 BYTE   N01
 BYTE   W02
 BYTE   N01
 BYTE   W02
 BYTE   N01
 BYTE   W02
 BYTE   N02  Gn2
 BYTE   W03
 BYTE   N02
 BYTE   W03
 BYTE   En2
 BYTE   W03
 BYTE   N02
 BYTE   W03
 BYTE   Gn2
 BYTE   W03
 BYTE   N02
 BYTE   W03
 BYTE   N05  En2
 BYTE   W24
 BYTE   N02  Gn2
 BYTE   W03
 BYTE   N02
 BYTE   W03
//  #03 //029   ----------------------------------------
 BYTE   Bn2
 BYTE   W03
 BYTE   Gn2
 BYTE   W03
 BYTE   En2
 BYTE   W03
 BYTE   Bn2
 BYTE   W03
 BYTE   Gn2
 BYTE   W03
 BYTE   En2
 BYTE   W03
 BYTE   Bn2
 BYTE   W03
 BYTE   Gn2
 BYTE   W03
 BYTE   En2
 BYTE   W03
 BYTE   Bn2
 BYTE   W03
 BYTE   Gn2
 BYTE   W03
 BYTE   En2
 BYTE   W03
 BYTE   Bn2
 BYTE   W03
 BYTE   Gn2
 BYTE   W03
 BYTE   Bn2
 BYTE   W03
 BYTE   Gn2
 BYTE   W03
 BYTE   An2
 BYTE   W03
 BYTE   Bn2
 BYTE   W03
 BYTE   N02
 BYTE   W03
 BYTE   An2
 BYTE   W03
 BYTE   Bn2
 BYTE   W03
 BYTE   N02
 BYTE   W03
 BYTE   An2
 BYTE   W03
 BYTE   Bn2
 BYTE   W03
 BYTE   N02
 BYTE   W03
 BYTE   An2
 BYTE   W03
 BYTE   Bn2
 BYTE   W03
 BYTE   N02
 BYTE   W03
 BYTE   An2
 BYTE   W03
 BYTE   Gn2
 BYTE   W03
 BYTE   An2
 BYTE   W03
 BYTE   Gn2
 BYTE   W03
//  #03 //030   ----------------------------------------
 BYTE   En2
 BYTE   W03
 BYTE   N02
 BYTE   W03
 BYTE   N02
 BYTE   W03
 BYTE   N02
 BYTE   W03
 BYTE   N68
 BYTE   W78
 BYTE   N01
 BYTE   W02
 BYTE   N01
 BYTE   W02
 BYTE   N01
 BYTE   W02
//  #03 //031   ----------------------------------------
 BYTE   N02
 BYTE   W03
 BYTE   N02
 BYTE   W03
 BYTE   N02
 BYTE   W03
 BYTE   N02
 BYTE   W03
 BYTE   N80
 BYTE   W84
//  #03 //032   ----------------------------------------
 BYTE   GoTo
  POIN2 Label_014C7104
//  #03 //033   ----------------------------------------
 BYTE   VOICE   47
 BYTE   BEND   c_v+0
 BYTE   FINE

//**************** Track 4 (Midi-Chn.3) ****************//

song03DF_004:
//  #04 //000   ----------------------------------------
 BYTE   KEYSH   song03DF_key+0
 BYTE   VOICE   47
 BYTE   VOL   68*song03DF_mvl/mxv
 BYTE   PAN   c_v-7
 BYTE   BEND   c_v+0
 BYTE   W96
//  #04 //001   ----------------------------------------
 BYTE   W96
//  #04 //002   ----------------------------------------
Label_014C7360:
 BYTE   W96
//  #04 //003   ----------------------------------------
 BYTE   W96
//  #04 //004   ----------------------------------------
 BYTE   W96
//  #04 //005   ----------------------------------------
 BYTE   W96
//  #04 //006   ----------------------------------------
 BYTE   W96
//  #04 //007   ----------------------------------------
 BYTE   W96
//  #04 //008   ----------------------------------------
 BYTE   W96
//  #04 //009   ----------------------------------------
 BYTE   W90
 BYTE   N02  En1  v100
 BYTE   W03
 BYTE   N02
 BYTE   W03
//  #04 //010   ----------------------------------------
 BYTE   N08
 BYTE   W09
 BYTE   N08
 BYTE   W09
 BYTE   N23
 BYTE   W24
 BYTE   N01
 BYTE   W02
 BYTE   N01
 BYTE   W02
 BYTE   N01
 BYTE   W02
 BYTE   N08
 BYTE   W09
 BYTE   Fn1
 BYTE   W09
 BYTE   N24  En1
 BYTE   W24
 BYTE   W03
 BYTE   N02  Fn1
 BYTE   W03
//  #04 //011   ----------------------------------------
 BYTE   N05  Fs1
 BYTE   W06
 BYTE   Gs1
 BYTE   W06
 BYTE   N02  Dn1
 BYTE   W03
 BYTE   N24  En1
 BYTE   W24
 BYTE   W03
 BYTE   N02
 BYTE   W03
 BYTE   Fn1
 BYTE   W03
 BYTE   N08  Fs1
 BYTE   W09
 BYTE   Gn1
 BYTE   W09
 BYTE   N17  Gs1
 BYTE   W18
 BYTE   N11  Bn1
 BYTE   W12
//  #04 //012   ----------------------------------------
 BYTE   W96
//  #04 //013   ----------------------------------------
 BYTE   W96
//  #04 //014   ----------------------------------------
 BYTE   W96
//  #04 //015   ----------------------------------------
 BYTE   W96
//  #04 //016   ----------------------------------------
 BYTE   W42
 BYTE   N02  En2
 BYTE   W03
 BYTE   N02
 BYTE   W03
 BYTE   N08
 BYTE   W09
 BYTE   Dn2
 BYTE   W09
 BYTE   N23  En2
 BYTE   W24
 BYTE   N02  Dn2
 BYTE   W03
 BYTE   En2
 BYTE   W03
//  #04 //017   ----------------------------------------
 BYTE   N08
 BYTE   W09
 BYTE   Fn2
 BYTE   W09
 BYTE   N23  Dn2
 BYTE   W24
 BYTE   N02
 BYTE   W03
 BYTE   N02
 BYTE   W03
 BYTE   N17  En2
 BYTE   W18
 BYTE   N28  An1
 BYTE   W30
//  #04 //018   ----------------------------------------
 BYTE   W96
//  #04 //019   ----------------------------------------
 BYTE   W96
//  #04 //020   ----------------------------------------
 BYTE   W96
//  #04 //021   ----------------------------------------
 BYTE   W96
//  #04 //022   ----------------------------------------
 BYTE   W96
//  #04 //023   ----------------------------------------
 BYTE   W96
//  #04 //024   ----------------------------------------
 BYTE   W96
//  #04 //025   ----------------------------------------
 BYTE   W96
//  #04 //026   ----------------------------------------
 BYTE   W96
//  #04 //027   ----------------------------------------
 BYTE   W90
 BYTE   N01  En1
 BYTE   W02
 BYTE   N01
 BYTE   W02
 BYTE   N01
 BYTE   W02
//  #04 //028   ----------------------------------------
 BYTE   N02
 BYTE   W03
 BYTE   N02
 BYTE   W03
 BYTE   N02
 BYTE   W03
 BYTE   N02
 BYTE   W03
 BYTE   N02
 BYTE   W03
 BYTE   N02
 BYTE   W03
 BYTE   N05
 BYTE   W24
 BYTE   N01
 BYTE   W02
 BYTE   N01
 BYTE   W02
 BYTE   N01
 BYTE   W02
 BYTE   N02  Gn1
 BYTE   W03
 BYTE   N02
 BYTE   W03
 BYTE   En1
 BYTE   W03
 BYTE   N02
 BYTE   W03
 BYTE   Gn1
 BYTE   W03
 BYTE   N02
 BYTE   W03
 BYTE   N05  En1
 BYTE   W24
 BYTE   N02  Gn1
 BYTE   W03
 BYTE   N02
 BYTE   W03
//  #04 //029   ----------------------------------------
 BYTE   Bn1
 BYTE   W03
 BYTE   Gn1
 BYTE   W03
 BYTE   En1
 BYTE   W03
 BYTE   Bn1
 BYTE   W03
 BYTE   Gn1
 BYTE   W03
 BYTE   En1
 BYTE   W03
 BYTE   Bn1
 BYTE   W03
 BYTE   Gn1
 BYTE   W03
 BYTE   En1
 BYTE   W03
 BYTE   Bn1
 BYTE   W03
 BYTE   Gn1
 BYTE   W03
 BYTE   En1
 BYTE   W03
 BYTE   Bn1
 BYTE   W03
 BYTE   Gn1
 BYTE   W03
 BYTE   Bn1
 BYTE   W03
 BYTE   Gn1
 BYTE   W03
 BYTE   An1
 BYTE   W03
 BYTE   Bn1
 BYTE   W03
 BYTE   N02
 BYTE   W03
 BYTE   An1
 BYTE   W03
 BYTE   Bn1
 BYTE   W03
 BYTE   N02
 BYTE   W03
 BYTE   An1
 BYTE   W03
 BYTE   Bn1
 BYTE   W03
 BYTE   N02
 BYTE   W03
 BYTE   An1
 BYTE   W03
 BYTE   Bn1
 BYTE   W03
 BYTE   N02
 BYTE   W03
 BYTE   An1
 BYTE   W03
 BYTE   Gn1
 BYTE   W03
 BYTE   An1
 BYTE   W03
 BYTE   Gn1
 BYTE   W03
//  #04 //030   ----------------------------------------
 BYTE   En1
 BYTE   W03
 BYTE   N02
 BYTE   W03
 BYTE   N02
 BYTE   W03
 BYTE   N02
 BYTE   W03
 BYTE   N68
 BYTE   W78
 BYTE   N01
 BYTE   W02
 BYTE   N01
 BYTE   W02
 BYTE   N01
 BYTE   W02
//  #04 //031   ----------------------------------------
 BYTE   N02
 BYTE   W03
 BYTE   N02
 BYTE   W03
 BYTE   N02
 BYTE   W03
 BYTE   N02
 BYTE   W03
 BYTE   N80
 BYTE   W84
//  #04 //032   ----------------------------------------
 BYTE   GoTo
  POIN2 Label_014C7360
//  #04 //033   ----------------------------------------
 BYTE   VOICE   47
 BYTE   BEND   c_v+0
 BYTE   FINE

//**************** Track 5 (Midi-Chn.4) ****************//

song03DF_005:
//  #05 //000   ----------------------------------------
 BYTE   KEYSH   song03DF_key+0
 BYTE   VOICE   73
 BYTE   VOL   10*song03DF_mvl/mxv
 BYTE   PAN   c_v+8
 BYTE   BEND   c_v+0
 BYTE   W96
//  #05 //001   ----------------------------------------
 BYTE   W96
//  #05 //002   ----------------------------------------
Label_014C77F8:
 BYTE   W96
//  #05 //003   ----------------------------------------
 BYTE   W96
//  #05 //004   ----------------------------------------
 BYTE   W96
//  #05 //005   ----------------------------------------
 BYTE   W96
//  #05 //006   ----------------------------------------
 BYTE   W96
//  #05 //007   ----------------------------------------
 BYTE   W96
//  #05 //008   ----------------------------------------
 BYTE   W96
//  #05 //009   ----------------------------------------
 BYTE   W96
//  #05 //010   ----------------------------------------
 BYTE   W96
//  #05 //011   ----------------------------------------
 BYTE   W96
//  #05 //012   ----------------------------------------
 BYTE   N08  En5  v100
 BYTE   W09
 BYTE   Dn5
 BYTE   W09
 BYTE   N28  En5
 BYTE   W30
 BYTE   N08  Cn5
 BYTE   W09
 BYTE   Gn5
 BYTE   W09
 BYTE   N28  En5
 BYTE   W30
//  #05 //013   ----------------------------------------
 BYTE   N08  Dn5
 BYTE   W09
 BYTE   Cn5
 BYTE   W09
 BYTE   N11  Bn4
 BYTE   W12
 BYTE   N08  Cn5
 BYTE   W09
 BYTE   Bn4
 BYTE   W09
 BYTE   N32  An4
 BYTE   W36
 BYTE   N02  Bn4
 BYTE   W03
 BYTE   Cn5
 BYTE   W03
 BYTE   Dn5
 BYTE   W03
 BYTE   En5
 BYTE   W03
//  #05 //014   ----------------------------------------
 BYTE   N08  Gn5
 BYTE   W09
 BYTE   En5
 BYTE   W09
 BYTE   N28  Gn5
 BYTE   W30
 BYTE   N08  En5
 BYTE   W09
 BYTE   An5
 BYTE   W09
 BYTE   N23  En5
 BYTE   W24
 BYTE   N02  Dn5
 BYTE   W03
 BYTE   Gn5
 BYTE   W03
//  #05 //015   ----------------------------------------
 BYTE   N23  Dn5
 BYTE   W24
 BYTE   Cn5
 BYTE   W24
 BYTE   Bn4
 BYTE   W24
 BYTE   Gn4
 BYTE   W24
//  #05 //016   ----------------------------------------
 BYTE   N44  An4
 BYTE   W96
//  #05 //017   ----------------------------------------
 BYTE   W96
//  #05 //018   ----------------------------------------
 BYTE   W96
//  #05 //019   ----------------------------------------
 BYTE   W96
//  #05 //020   ----------------------------------------
 BYTE   W96
//  #05 //021   ----------------------------------------
 BYTE   W96
//  #05 //022   ----------------------------------------
 BYTE   W96
//  #05 //023   ----------------------------------------
 BYTE   W96
//  #05 //024   ----------------------------------------
 BYTE   W96
//  #05 //025   ----------------------------------------
 BYTE   W96
//  #05 //026   ----------------------------------------
 BYTE   W96
//  #05 //027   ----------------------------------------
 BYTE   W96
//  #05 //028   ----------------------------------------
 BYTE   W96
//  #05 //029   ----------------------------------------
 BYTE   W96
//  #05 //030   ----------------------------------------
 BYTE   W96
//  #05 //031   ----------------------------------------
 BYTE   W96
//  #05 //032   ----------------------------------------
 BYTE   GoTo
  POIN2 Label_014C77F8
//  #05 //033   ----------------------------------------
 BYTE   VOICE   73
 BYTE   BEND   c_v+0
 BYTE   FINE

//**************** Track 6 (Midi-Chn.5) ****************//

song03DF_006:
//  #06 //000   ----------------------------------------
 BYTE   KEYSH   song03DF_key+0
 BYTE   VOICE   73
 BYTE   VOL   10*song03DF_mvl/mxv
 BYTE   PAN   c_v-11
 BYTE   BEND   c_v+0
 BYTE   W96
//  #06 //001   ----------------------------------------
 BYTE   W96
//  #06 //002   ----------------------------------------
Label_014C7874:
 BYTE   W96
//  #06 //003   ----------------------------------------
 BYTE   W96
//  #06 //004   ----------------------------------------
 BYTE   W96
//  #06 //005   ----------------------------------------
 BYTE   W96
//  #06 //006   ----------------------------------------
 BYTE   W96
//  #06 //007   ----------------------------------------
 BYTE   W96
//  #06 //008   ----------------------------------------
 BYTE   W96
//  #06 //009   ----------------------------------------
 BYTE   W96
//  #06 //010   ----------------------------------------
 BYTE   W96
//  #06 //011   ----------------------------------------
 BYTE   W96
//  #06 //012   ----------------------------------------
 BYTE   W03
 BYTE   N08  En5  v100
 BYTE   W09
 BYTE   Dn5
 BYTE   W09
 BYTE   N28  En5
 BYTE   W30
 BYTE   N08  Cn5
 BYTE   W09
 BYTE   Gn5
 BYTE   W09
 BYTE   N28  En5
 BYTE   W24
 BYTE   W03
//  #06 //013   ----------------------------------------
 BYTE   W03
 BYTE   N08  Dn5
 BYTE   W09
 BYTE   Cn5
 BYTE   W09
 BYTE   N11  Bn4
 BYTE   W12
 BYTE   N08  Cn5
 BYTE   W09
 BYTE   Bn4
 BYTE   W09
 BYTE   N32  An4
 BYTE   W36
 BYTE   N02  Bn4
 BYTE   W03
 BYTE   Cn5
 BYTE   W03
 BYTE   Dn5
 BYTE   W03
//  #06 //014   ----------------------------------------
 BYTE   En5
 BYTE   W03
 BYTE   N08  Gn5
 BYTE   W09
 BYTE   En5
 BYTE   W09
 BYTE   N28  Gn5
 BYTE   W30
 BYTE   N08  En5
 BYTE   W09
 BYTE   An5
 BYTE   W09
 BYTE   N23  En5
 BYTE   W24
 BYTE   N02  Dn5
 BYTE   W03
//  #06 //015   ----------------------------------------
 BYTE   Gn5
 BYTE   W03
 BYTE   N23  Dn5
 BYTE   W24
 BYTE   Cn5
 BYTE   W24
 BYTE   Bn4
 BYTE   W24
 BYTE   Gn4
 BYTE   W21
//  #06 //016   ----------------------------------------
 BYTE   W03
 BYTE   N44  An4
 BYTE   W92
 BYTE   W01
//  #06 //017   ----------------------------------------
 BYTE   W96
//  #06 //018   ----------------------------------------
 BYTE   W96
//  #06 //019   ----------------------------------------
 BYTE   W96
//  #06 //020   ----------------------------------------
 BYTE   W96
//  #06 //021   ----------------------------------------
 BYTE   W96
//  #06 //022   ----------------------------------------
 BYTE   W96
//  #06 //023   ----------------------------------------
 BYTE   W96
//  #06 //024   ----------------------------------------
 BYTE   W96
//  #06 //025   ----------------------------------------
 BYTE   W96
//  #06 //026   ----------------------------------------
 BYTE   W96
//  #06 //027   ----------------------------------------
 BYTE   W96
//  #06 //028   ----------------------------------------
 BYTE   W96
//  #06 //029   ----------------------------------------
 BYTE   W96
//  #06 //030   ----------------------------------------
 BYTE   W96
//  #06 //031   ----------------------------------------
 BYTE   W96
//  #06 //032   ----------------------------------------
 BYTE   GoTo
  POIN2 Label_014C7874
//  #06 //033   ----------------------------------------
 BYTE   VOICE   73
 BYTE   BEND   c_v+0
 BYTE   FINE

//**************** Track 7 (Midi-Chn.6) ****************//

song03DF_007:
//  #07 //000   ----------------------------------------
 BYTE   KEYSH   song03DF_key+0
 BYTE   VOICE   106
 BYTE   VOL   29*song03DF_mvl/mxv
 BYTE   PAN   c_v-11
 BYTE   BEND   c_v+0
 BYTE   W96
//  #07 //001   ----------------------------------------
 BYTE   W96
//  #07 //002   ----------------------------------------
Label_014C6DEC:
 BYTE   N44  En4  v100
 BYTE   W48
 BYTE   N23  Fs4
 BYTE   W24
 BYTE   Gn4
 BYTE   W24
 BYTE   PEND 
//  #07 //003   ----------------------------------------
 BYTE   N44  Fs4
 BYTE   W48
 BYTE   Dn4
 BYTE   W48
//  #07 //004   ----------------------------------------
 BYTE   Fs4
 BYTE   W48
 BYTE   N23  Bn4
 BYTE   W24
 BYTE   An4
 BYTE   W24
//  #07 //005   ----------------------------------------
 BYTE   N44  Cn5
 BYTE   W48
 BYTE   Bn4
 BYTE   W48
//  #07 //006   ----------------------------------------
 BYTE   N23
 BYTE   W24
 BYTE   An4
 BYTE   W24
 BYTE   N23
 BYTE   W24
 BYTE   Gn4
 BYTE   W24
//  #07 //007   ----------------------------------------
 BYTE   En4
 BYTE   W24
 BYTE   Ds4
 BYTE   W24
 BYTE   N44  Bn3
 BYTE   W48
//  #07 //008   ----------------------------------------
 BYTE   En4
 BYTE   W48
 BYTE   N17  Cs4
 BYTE   W18
 BYTE   Cn4
 BYTE   W18
 BYTE   N11  Ds4
 BYTE   W12
//  #07 //009   ----------------------------------------
 BYTE   N92  En4
 BYTE   W96
//  #07 //010   ----------------------------------------
 BYTE   W96
//  #07 //011   ----------------------------------------
 BYTE   W96
//  #07 //012   ----------------------------------------
 BYTE   W96
//  #07 //013   ----------------------------------------
 BYTE   W96
//  #07 //014   ----------------------------------------
 BYTE   W96
//  #07 //015   ----------------------------------------
 BYTE   W96
//  #07 //016   ----------------------------------------
 BYTE   W96
//  #07 //017   ----------------------------------------
 BYTE   W96
//  #07 //018   ----------------------------------------
 BYTE   W96
//  #07 //019   ----------------------------------------
 BYTE   W96
//  #07 //020   ----------------------------------------
 BYTE   PATT
  POIN2 Label_014C6DEC
//  #07 //021   ----------------------------------------
 BYTE   N44  Fs4  v100
 BYTE   W48
 BYTE   N23  An4
 BYTE   W24
 BYTE   N11  Gn4
 BYTE   W12
 BYTE   Fs4
 BYTE   W12
//  #07 //022   ----------------------------------------
 BYTE   Dn4
 BYTE   W12
 BYTE   Bn3
 BYTE   W12
 BYTE   En4
 BYTE   W12
 BYTE   Dn4
 BYTE   W12
 BYTE   Gn4
 BYTE   W12
 BYTE   Fs4
 BYTE   W12
 BYTE   An4
 BYTE   W12
 BYTE   Bn4
 BYTE   W12
//  #07 //023   ----------------------------------------
 BYTE   N23  An4
 BYTE   W24
 BYTE   Gn4
 BYTE   W24
 BYTE   Fs4
 BYTE   W24
 BYTE   Ds4
 BYTE   W24
//  #07 //024   ----------------------------------------
 BYTE   N11  Cn4
 BYTE   W12
 BYTE   Bn3
 BYTE   W12
 BYTE   En4
 BYTE   W12
 BYTE   Ds4
 BYTE   W12
 BYTE   Gn4
 BYTE   W12
 BYTE   Fs4
 BYTE   W12
 BYTE   Bn4
 BYTE   W12
 BYTE   An4
 BYTE   W12
//  #07 //025   ----------------------------------------
 BYTE   N23  Dn5
 BYTE   W24
 BYTE   Cn5
 BYTE   W24
 BYTE   Bn4
 BYTE   W24
 BYTE   An4
 BYTE   W24
//  #07 //026   ----------------------------------------
 BYTE   N11  Bn4
 BYTE   W12
 BYTE   Cn5
 BYTE   W12
 BYTE   N23  Bn4
 BYTE   W24
 BYTE   N11  An4
 BYTE   W12
 BYTE   Bn4
 BYTE   W12
 BYTE   N23  En5
 BYTE   W24
//  #07 //027   ----------------------------------------
 BYTE   Gn4
 BYTE   W24
 BYTE   Fs4
 BYTE   W24
 BYTE   N44  En4
 BYTE   W48
//  #07 //028   ----------------------------------------
 BYTE   W96
//  #07 //029   ----------------------------------------
 BYTE   W96
//  #07 //030   ----------------------------------------
 BYTE   W96
//  #07 //031   ----------------------------------------
 BYTE   W96
//  #07 //032   ----------------------------------------
 BYTE   GoTo
  POIN2 Label_014C6DEC
//  #07 //033   ----------------------------------------
 BYTE   VOICE   106
 BYTE   BEND   c_v+0
 BYTE   FINE

//**************** Track 8 (Midi-Chn.7) ****************//

song03DF_008:
//  #08 //000   ----------------------------------------
 BYTE   KEYSH   song03DF_key+0
 BYTE   VOICE   106
 BYTE   VOL   16*song03DF_mvl/mxv
 BYTE   PAN   c_v+8
 BYTE   BEND   c_v+0
 BYTE   W96
//  #08 //001   ----------------------------------------
 BYTE   W96
//  #08 //002   ----------------------------------------
Label_014C6EA4:
 BYTE   W03
 BYTE   N44  En4  v100
 BYTE   W48
 BYTE   N23  Fs4
 BYTE   W24
 BYTE   Gn4
 BYTE   W21
 BYTE   PEND 
//  #08 //003   ----------------------------------------
 BYTE   W03
 BYTE   N44  Fs4
 BYTE   W48
 BYTE   Dn4
 BYTE   W44
 BYTE   W01
//  #08 //004   ----------------------------------------
 BYTE   W03
 BYTE   Fs4
 BYTE   W48
 BYTE   N23  Bn4
 BYTE   W24
 BYTE   An4
 BYTE   W21
//  #08 //005   ----------------------------------------
 BYTE   W03
 BYTE   N44  Cn5
 BYTE   W48
 BYTE   Bn4
 BYTE   W44
 BYTE   W01
//  #08 //006   ----------------------------------------
 BYTE   W03
 BYTE   N23
 BYTE   W24
 BYTE   An4
 BYTE   W24
 BYTE   N23
 BYTE   W24
 BYTE   Gn4
 BYTE   W21
//  #08 //007   ----------------------------------------
 BYTE   W03
 BYTE   En4
 BYTE   W24
 BYTE   Ds4
 BYTE   W24
 BYTE   N44  Bn3
 BYTE   W44
 BYTE   W01
//  #08 //008   ----------------------------------------
 BYTE   W03
 BYTE   En4
 BYTE   W48
 BYTE   N17  Cs4
 BYTE   W18
 BYTE   Cn4
 BYTE   W18
 BYTE   N11  Ds4
 BYTE   W09
//  #08 //009   ----------------------------------------
 BYTE   W03
 BYTE   N92  En4
 BYTE   W92
 BYTE   W01
//  #08 //010   ----------------------------------------
 BYTE   W96
//  #08 //011   ----------------------------------------
 BYTE   W96
//  #08 //012   ----------------------------------------
 BYTE   W96
//  #08 //013   ----------------------------------------
 BYTE   W96
//  #08 //014   ----------------------------------------
 BYTE   W96
//  #08 //015   ----------------------------------------
 BYTE   W96
//  #08 //016   ----------------------------------------
 BYTE   W96
//  #08 //017   ----------------------------------------
 BYTE   W96
//  #08 //018   ----------------------------------------
 BYTE   W96
//  #08 //019   ----------------------------------------
 BYTE   W96
//  #08 //020   ----------------------------------------
 BYTE   PATT
  POIN2 Label_014C6EA4
//  #08 //021   ----------------------------------------
 BYTE   W03
 BYTE   N44  Fs4  v100
 BYTE   W48
 BYTE   N23  An4
 BYTE   W24
 BYTE   N11  Gn4
 BYTE   W12
 BYTE   Fs4
 BYTE   W09
//  #08 //022   ----------------------------------------
 BYTE   W03
 BYTE   Dn4
 BYTE   W12
 BYTE   Bn3
 BYTE   W12
 BYTE   En4
 BYTE   W12
 BYTE   Dn4
 BYTE   W12
 BYTE   Gn4
 BYTE   W12
 BYTE   Fs4
 BYTE   W12
 BYTE   An4
 BYTE   W12
 BYTE   Bn4
 BYTE   W09
//  #08 //023   ----------------------------------------
 BYTE   W03
 BYTE   N23  An4
 BYTE   W24
 BYTE   Gn4
 BYTE   W24
 BYTE   Fs4
 BYTE   W24
 BYTE   Ds4
 BYTE   W21
//  #08 //024   ----------------------------------------
 BYTE   W03
 BYTE   N11  Cn4
 BYTE   W12
 BYTE   Bn3
 BYTE   W12
 BYTE   En4
 BYTE   W12
 BYTE   Ds4
 BYTE   W12
 BYTE   Gn4
 BYTE   W12
 BYTE   Fs4
 BYTE   W12
 BYTE   Bn4
 BYTE   W12
 BYTE   An4
 BYTE   W09
//  #08 //025   ----------------------------------------
 BYTE   W03
 BYTE   N23  Dn5
 BYTE   W24
 BYTE   Cn5
 BYTE   W24
 BYTE   Bn4
 BYTE   W24
 BYTE   An4
 BYTE   W21
//  #08 //026   ----------------------------------------
 BYTE   W03
 BYTE   N11  Bn4
 BYTE   W12
 BYTE   Cn5
 BYTE   W12
 BYTE   N23  Bn4
 BYTE   W24
 BYTE   N11  An4
 BYTE   W12
 BYTE   Bn4
 BYTE   W12
 BYTE   N23  En5
 BYTE   W21
//  #08 //027   ----------------------------------------
 BYTE   W03
 BYTE   Gn4
 BYTE   W24
 BYTE   Fs4
 BYTE   W24
 BYTE   N44  En4
 BYTE   W44
 BYTE   W01
//  #08 //028   ----------------------------------------
 BYTE   W96
//  #08 //029   ----------------------------------------
 BYTE   W96
//  #08 //030   ----------------------------------------
 BYTE   W96
//  #08 //031   ----------------------------------------
 BYTE   W96
//  #08 //032   ----------------------------------------
 BYTE   GoTo
  POIN2 Label_014C6EA4
//  #08 //033   ----------------------------------------
 BYTE   VOICE   106
 BYTE   BEND   c_v+0
 BYTE   FINE

//******************************************************//
	ALIGN 4

song03DF:
	BYTE	8	// NumTrks
	BYTE	0	// NumBlks
	BYTE	song03DF_pri	// Priority
	BYTE	song03DF_rev	// Reverb.
    
	POIN2	song03DF_grp
    
	POIN2	song03DF_001
	POIN2	song03DF_002
	POIN2	song03DF_003
	POIN2	song03DF_004
	POIN2	song03DF_005
	POIN2	song03DF_006
	POIN2	song03DF_007
	POIN2	song03DF_008

	
