//Event file generated from Sappy .s format.
	#include "MPlayDef.event"

	#define	song35_grp  voicegroup001
	#define	song35_pri  0
	#define	song35_rev  0
	#define	song35_mvl  127
	#define	song35_key  0
	#define	song35_tbs  1
	#define	song35_exg  0
	#define	song35_cmp  1

	// .rodata
	//	song35
	ALIGN 4


//**************** Track 1 (Midi-Chn.0) ****************//

song35_001:
// 000   ----------------------------------------
 BYTE   KEYSH   song35_key+0
Label_0_0138EAAE:
 BYTE   TEMPO   130*song35_tbs/2
 BYTE   VOICE   48
 BYTE   VOL   0*song35_mvl/mxv
 BYTE   PAN   c_v+0
 BYTE   VOL   0*song35_mvl/mxv
 BYTE   PAN   c_v+0
 BYTE   BEND   c_v+0
 BYTE   W18
 BYTE   VOL   36*song35_mvl/mxv
 BYTE   N17  Dn3  v127
 BYTE   W03
 BYTE   VOL   25*song35_mvl/mxv
 BYTE   W15
 BYTE   Cn1
 BYTE   N11
 BYTE   W03
 BYTE   VOL   25*song35_mvl/mxv
 BYTE   W09
 BYTE   Cn1
 BYTE   N06  En3
 BYTE   W03
 BYTE   VOL   25*song35_mvl/mxv
 BYTE   W03
 BYTE   Cn1
 BYTE   N11  Gn3
 BYTE   W03
 BYTE   VOL   25*song35_mvl/mxv
 BYTE   W09
 BYTE   Cn1
 BYTE   N05  An3
 BYTE   W03
 BYTE   VOL   25*song35_mvl/mxv
 BYTE   W03
 BYTE   Cn1
 BYTE   N17  Bn3
 BYTE   W03
 BYTE   VOL   25*song35_mvl/mxv
 BYTE   W15
 BYTE   Cn1
 BYTE   N17
 BYTE   W03
 BYTE   VOL   25*song35_mvl/mxv
 BYTE   W03
// 001   ----------------------------------------
 BYTE   W12
 BYTE   Cn1
 BYTE   N17
 BYTE   W03
 BYTE   VOL   25*song35_mvl/mxv
 BYTE   W15
 BYTE   Cn1
 BYTE   N32  Dn4
 BYTE   W03
 BYTE   VOL   25*song35_mvl/mxv
 BYTE   W04
 BYTE   CnM2
 BYTE   W28
 BYTE   W01
 BYTE   Cn1
 BYTE   N17  Fs3
 BYTE   W03
 BYTE   VOL   25*song35_mvl/mxv
 BYTE   W15
 BYTE   Cn1
 BYTE   N11
 BYTE   W03
 BYTE   VOL   25*song35_mvl/mxv
 BYTE   W09
// 002   ----------------------------------------
 BYTE   Cn1
 BYTE   N05  Gn3
 BYTE   W03
 BYTE   VOL   25*song35_mvl/mxv
 BYTE   W03
 BYTE   Cn1
 BYTE   N12  Fs3
 BYTE   W03
 BYTE   VOL   25*song35_mvl/mxv
 BYTE   W09
 BYTE   Cn1
 BYTE   N05  Dn3
 BYTE   W03
 BYTE   VOL   25*song35_mvl/mxv
 BYTE   W03
 BYTE   Cn1
 BYTE   N88  Bn2
 BYTE   W03
 BYTE   VOL   25*song35_mvl/mxv
 BYTE   W56
 BYTE   W02
 BYTE   CnM2
 BYTE   W11
// 003   ----------------------------------------
 BYTE   W18
 BYTE   Cn1
 BYTE   N17  Dn3
 BYTE   W03
 BYTE   VOL   25*song35_mvl/mxv
 BYTE   W15
 BYTE   Cn1
 BYTE   N11
 BYTE   W03
 BYTE   VOL   25*song35_mvl/mxv
 BYTE   W09
 BYTE   Cn1
 BYTE   N05  En3
 BYTE   W03
 BYTE   VOL   25*song35_mvl/mxv
 BYTE   W03
 BYTE   Cn1
 BYTE   N11  Gn3
 BYTE   W03
 BYTE   VOL   25*song35_mvl/mxv
 BYTE   W09
 BYTE   Cn1
 BYTE   N05  An3
 BYTE   W03
 BYTE   VOL   25*song35_mvl/mxv
 BYTE   W03
 BYTE   Cn1
 BYTE   N18  Bn3
 BYTE   W03
 BYTE   VOL   25*song35_mvl/mxv
 BYTE   W15
 BYTE   Cn1
 BYTE   N17
 BYTE   W03
 BYTE   VOL   25*song35_mvl/mxv
 BYTE   W03
// 004   ----------------------------------------
 BYTE   W12
 BYTE   Cn1
 BYTE   N17
 BYTE   W03
 BYTE   VOL   25*song35_mvl/mxv
 BYTE   W15
 BYTE   Cn1
 BYTE   N32  Dn4
 BYTE   W03
 BYTE   VOL   25*song35_mvl/mxv
 BYTE   W04
 BYTE   CnM2
 BYTE   W28
 BYTE   W01
 BYTE   Cn1
 BYTE   N18
 BYTE   W03
 BYTE   VOL   25*song35_mvl/mxv
 BYTE   W15
 BYTE   Cn1
 BYTE   N11
 BYTE   W03
 BYTE   VOL   25*song35_mvl/mxv
 BYTE   W09
// 005   ----------------------------------------
 BYTE   Cn1
 BYTE   N05  Cs4
 BYTE   W03
 BYTE   VOL   25*song35_mvl/mxv
 BYTE   W03
 BYTE   Cn1
 BYTE   N11  Bn3
 BYTE   W03
 BYTE   VOL   25*song35_mvl/mxv
 BYTE   W09
 BYTE   Cn1
 BYTE   N05  An3
 BYTE   W03
 BYTE   VOL   25*song35_mvl/mxv
 BYTE   W03
 BYTE   Cn1
 BYTE   N88  Fs3
 BYTE   W03
 BYTE   VOL   25*song35_mvl/mxv
 BYTE   W56
 BYTE   W02
 BYTE   CnM2
 BYTE   W11
// 006   ----------------------------------------
 BYTE   W18
 BYTE   Cs0
 BYTE   N18  Dn2
 BYTE   W07
 BYTE   VOL   0*song35_mvl/mxv
 BYTE   W11
 BYTE   Cs0
 BYTE   N11
 BYTE   W06
 BYTE   BEND   c_v+2
 BYTE   W01
 BYTE   Gs3
 BYTE   W01
 BYTE   An3
 BYTE   W01
 BYTE   Gs3
 BYTE   W01
 BYTE   Gn3
 BYTE   W01
 BYTE   En3
 BYTE   W01
 BYTE   En3
 BYTE   N05  En2
 BYTE   W06
 BYTE   N11  Gn2
 BYTE   W07
 BYTE   VOL   0*song35_mvl/mxv
 BYTE   W05
 BYTE   Cs0
 BYTE   N05  An2
 BYTE   W06
 BYTE   N17  Bn2
 BYTE   W07
 BYTE   VOL   0*song35_mvl/mxv
 BYTE   W11
 BYTE   Cs0
 BYTE   N17
 BYTE   W06
// 007   ----------------------------------------
 BYTE   W01
 BYTE   VOL   0*song35_mvl/mxv
 BYTE   W11
 BYTE   Cs0
 BYTE   N18
 BYTE   W06
 BYTE   BEND   c_v+2
 BYTE   W01
 BYTE   Gs3
 BYTE   W01
 BYTE   An3
 BYTE   W01
 BYTE   Gs3
 BYTE   W01
 BYTE   Gn3
 BYTE   W01
 BYTE   En3
 BYTE   W01
 BYTE   Dn3
 BYTE   W01
 BYTE   Cn3
 BYTE   W01
 BYTE   Bn2
 BYTE   W01
 BYTE   Cn3
 BYTE   W01
 BYTE   Cs3
 BYTE   W01
 BYTE   En3
 BYTE   W01
 BYTE   En3
 BYTE   N32  Dn3
 BYTE   W07
 BYTE   VOL   0*song35_mvl/mxv
 BYTE   W28
 BYTE   W01
 BYTE   Cs0
 BYTE   N18  Fs2
 BYTE   W07
 BYTE   VOL   0*song35_mvl/mxv
 BYTE   W11
 BYTE   Cs0
 BYTE   N11
 BYTE   W06
 BYTE   BEND   c_v+2
 BYTE   W01
 BYTE   Gs3
 BYTE   W01
 BYTE   An3
 BYTE   W01
 BYTE   Gs3
 BYTE   W01
 BYTE   Gn3
 BYTE   W01
 BYTE   En3
 BYTE   W01
// 008   ----------------------------------------
 BYTE   En3
 BYTE   N05  Gn2
 BYTE   W06
 BYTE   N11  Fs2
 BYTE   W07
 BYTE   VOL   0*song35_mvl/mxv
 BYTE   W05
 BYTE   Cs0
 BYTE   N05  Dn2
 BYTE   W06
 BYTE   N88  Bn1
 BYTE   W06
 BYTE   BEND   c_v+2
 BYTE   W01
 BYTE   Gs3
 BYTE   W01
 BYTE   An3
 BYTE   W01
 BYTE   Gs3
 BYTE   W01
 BYTE   Gn3
 BYTE   W01
 BYTE   En3
 BYTE   W01
 BYTE   Dn3
 BYTE   W01
 BYTE   Cn3
 BYTE   W01
 BYTE   Bn2
 BYTE   W01
 BYTE   Cn3
 BYTE   W01
 BYTE   Dn3
 BYTE   W01
 BYTE   En3
 BYTE   W01
 BYTE   Fs3
 BYTE   W01
 BYTE   Gs3
 BYTE   W01
 BYTE   An3
 BYTE   W01
 BYTE   Gs3
 BYTE   W01
 BYTE   Gn3
 BYTE   W01
 BYTE   En3
 BYTE   W01
 BYTE   Dn3
 BYTE   W01
 BYTE   Cn3
 BYTE   W01
 BYTE   Bn2
 BYTE   W01
 BYTE   Cn3
 BYTE   W01
 BYTE   Dn3
 BYTE   W01
 BYTE   En3
 BYTE   W01
 BYTE   Fs3
 BYTE   W01
 BYTE   Gs3
 BYTE   W01
 BYTE   An3
 BYTE   W01
 BYTE   Gs3
 BYTE   W01
 BYTE   Gn3
 BYTE   W01
 BYTE   En3
 BYTE   W01
 BYTE   Dn3
 BYTE   W01
 BYTE   Cn3
 BYTE   W01
 BYTE   Bn2
 BYTE   W01
 BYTE   Cn3
 BYTE   W01
 BYTE   Cs3
 BYTE   W01
 BYTE   En3
 BYTE   W01
 BYTE   Fs3
 BYTE   W01
 BYTE   Gs3
 BYTE   W01
 BYTE   An3
 BYTE   W01
 BYTE   Gs3
 BYTE   W01
 BYTE   Gn3
 BYTE   W01
 BYTE   En3
 BYTE   W01
 BYTE   Dn3
 BYTE   W01
 BYTE   Cn3
 BYTE   W01
 BYTE   Bn2
 BYTE   W01
 BYTE   Cn3
 BYTE   W01
 BYTE   Cs3
 BYTE   W01
 BYTE   En3
 BYTE   W01
 BYTE   Fs3
 BYTE   W01
 BYTE   Gs3
 BYTE   W01
 BYTE   An3
 BYTE   W01
 BYTE   Gs3
 BYTE   W01
 BYTE   Fs3
 BYTE   W01
 BYTE   En3
 BYTE   W01
 BYTE   En3
 BYTE   W01
 BYTE   VOL   0*song35_mvl/mxv
 BYTE   W11
// 009   ----------------------------------------
 BYTE   W18
 BYTE   Cs0
 BYTE   N17  Dn2
 BYTE   W07
 BYTE   VOL   0*song35_mvl/mxv
 BYTE   W11
 BYTE   Cs0
 BYTE   N12
 BYTE   W06
 BYTE   BEND   c_v+2
 BYTE   W01
 BYTE   Gs3
 BYTE   W01
 BYTE   An3
 BYTE   W01
 BYTE   Gs3
 BYTE   W01
 BYTE   Gn3
 BYTE   W01
 BYTE   En3
 BYTE   W01
 BYTE   En3
 BYTE   N05  En2
 BYTE   W06
 BYTE   N11  Gn2
 BYTE   W07
 BYTE   VOL   0*song35_mvl/mxv
 BYTE   W05
 BYTE   Cs0
 BYTE   N06  An2
 BYTE   W06
 BYTE   N17  Bn2
 BYTE   W07
 BYTE   VOL   0*song35_mvl/mxv
 BYTE   W11
 BYTE   Cs0
 BYTE   N17
 BYTE   W06
// 010   ----------------------------------------
 BYTE   W01
 BYTE   VOL   0*song35_mvl/mxv
 BYTE   W11
 BYTE   Cs0
 BYTE   N18
 BYTE   W06
 BYTE   BEND   c_v+2
 BYTE   W01
 BYTE   Gs3
 BYTE   W01
 BYTE   An3
 BYTE   W01
 BYTE   Gs3
 BYTE   W01
 BYTE   Gn3
 BYTE   W01
 BYTE   En3
 BYTE   W01
 BYTE   Dn3
 BYTE   W01
 BYTE   Cn3
 BYTE   W01
 BYTE   Bn2
 BYTE   W01
 BYTE   Cn3
 BYTE   W01
 BYTE   Cs3
 BYTE   W01
 BYTE   En3
 BYTE   W01
 BYTE   En3
 BYTE   N32  Dn3
 BYTE   W07
 BYTE   VOL   0*song35_mvl/mxv
 BYTE   W28
 BYTE   W01
 BYTE   Cs0
 BYTE   N17
 BYTE   W07
 BYTE   VOL   0*song35_mvl/mxv
 BYTE   W11
 BYTE   Cs0
 BYTE   N11
 BYTE   W06
 BYTE   BEND   c_v+2
 BYTE   W01
 BYTE   Gs3
 BYTE   W01
 BYTE   An3
 BYTE   W01
 BYTE   Gs3
 BYTE   W01
 BYTE   Fs3
 BYTE   W01
 BYTE   En3
 BYTE   W01
// 011   ----------------------------------------
 BYTE   En3
 BYTE   N05  Cs3
 BYTE   W06
 BYTE   N11  Bn2
 BYTE   W07
 BYTE   VOL   0*song35_mvl/mxv
 BYTE   W05
 BYTE   Cs0
 BYTE   N06  Cs3
 BYTE   W06
 BYTE   N32  Dn3
 BYTE   W06
 BYTE   BEND   c_v+2
 BYTE   W01
 BYTE   Gs3
 BYTE   W01
 BYTE   An3
 BYTE   W01
 BYTE   Gs3
 BYTE   W01
 BYTE   Gn3
 BYTE   W01
 BYTE   En3
 BYTE   W01
 BYTE   Dn3
 BYTE   W01
 BYTE   Cn3
 BYTE   W01
 BYTE   Bn2
 BYTE   W01
 BYTE   Cn3
 BYTE   W01
 BYTE   Dn3
 BYTE   W01
 BYTE   En3
 BYTE   W01
 BYTE   Fs3
 BYTE   W01
 BYTE   Gs3
 BYTE   W01
 BYTE   An3
 BYTE   W01
 BYTE   Gs3
 BYTE   W01
 BYTE   Gn3
 BYTE   W01
 BYTE   En3
 BYTE   W01
 BYTE   Dn3
 BYTE   W01
 BYTE   Cn3
 BYTE   W01
 BYTE   Bn2
 BYTE   W01
 BYTE   Cn3
 BYTE   W01
 BYTE   Dn3
 BYTE   W01
 BYTE   En3
 BYTE   W01
 BYTE   Fs3
 BYTE   W01
 BYTE   Gs3
 BYTE   W01
 BYTE   An3
 BYTE   W01
 BYTE   Gs3
 BYTE   W01
 BYTE   Gn3
 BYTE   W01
 BYTE   En3
 BYTE   W01
 BYTE   Fs3
 BYTE   N54  Fs3
 BYTE   W01
 BYTE   BEND   c_v+4
 BYTE   W01
 BYTE   An3
 BYTE   W01
 BYTE   Gs3
 BYTE   W01
 BYTE   Fs3
 BYTE   W01
 BYTE   En3
 BYTE   W01
 BYTE   Dn3
 BYTE   W01
 BYTE   Cn3
 BYTE   W01
 BYTE   Bn2
 BYTE   W01
 BYTE   Cn3
 BYTE   W01
 BYTE   Dn3
 BYTE   W01
 BYTE   En3
 BYTE   W01
 BYTE   Fs3
 BYTE   W01
 BYTE   Gs3
 BYTE   W01
 BYTE   An3
 BYTE   W01
 BYTE   Gs3
 BYTE   W01
 BYTE   Fs3
 BYTE   W01
 BYTE   En3
 BYTE   W01
 BYTE   Dn3
 BYTE   W01
 BYTE   Cn3
 BYTE   W01
 BYTE   Bn2
 BYTE   W01
 BYTE   Cn3
 BYTE   W01
 BYTE   Dn3
 BYTE   W01
 BYTE   En3
 BYTE   W01
 BYTE   En3
 BYTE   W01
 BYTE   VOL   0*song35_mvl/mxv
 BYTE   W11
// 012   ----------------------------------------
 BYTE   W18
 BYTE   Gn0
 BYTE   N32  Gn3
 BYTE   W36
 BYTE   N32
 BYTE   W36
 BYTE   Cn3
 BYTE   W06
// 013   ----------------------------------------
 BYTE   W30
 BYTE   N17  Gn3
 BYTE   W18
 BYTE   N32  Fs3
 BYTE   W36
 BYTE   TIE
 BYTE   W12
// 014   ----------------------------------------
 BYTE   W96
// 015   ----------------------------------------
 BYTE   W18
 BYTE   EOT
 BYTE   N32  Gn3
 BYTE   W36
 BYTE   N32
 BYTE   W36
 BYTE   Cn3
 BYTE   W06
// 016   ----------------------------------------
 BYTE   W30
 BYTE   N17  Gn3
 BYTE   W18
 BYTE   TIE  An3
 BYTE   W48
// 017   ----------------------------------------
 BYTE   W60
 BYTE   EOT
 BYTE   N32  Dn4
 BYTE   W32
 BYTE   W03
 BYTE   GoTo
  POIN2 Label_0_0138EAAE
// 018   ----------------------------------------
 BYTE   TEMPO   130*song35_tbs/2
 BYTE   VOL   0*song35_mvl/mxv
 BYTE   PAN   c_v+0
 BYTE   BEND   c_v+0
 BYTE   FINE

//**************** Track 2 (Midi-Chn.1) ****************//

song35_002:
// 000   ----------------------------------------
 BYTE   KEYSH   song35_key+0
Label_1_0138F5CE:
 BYTE   VOICE   48
 BYTE   VOL   0*song35_mvl/mxv
 BYTE   PAN   c_v+0
 BYTE   VOL   0*song35_mvl/mxv
 BYTE   PAN   c_v+0
 BYTE   BEND   c_v+0
 BYTE   W36
 BYTE   VOL   18*song35_mvl/mxv
 BYTE   N18  Dn3  v127
 BYTE   W03
 BYTE   VOL   12*song35_mvl/mxv
 BYTE   W15
 BYTE   FsM1
 BYTE   N11
 BYTE   W03
 BYTE   VOL   12*song35_mvl/mxv
 BYTE   W09
 BYTE   FsM1
 BYTE   N05  En3
 BYTE   W03
 BYTE   VOL   12*song35_mvl/mxv
 BYTE   W03
 BYTE   FsM1
 BYTE   N11  Gn3
 BYTE   W03
 BYTE   VOL   12*song35_mvl/mxv
 BYTE   W09
 BYTE   FsM1
 BYTE   N05  An3
 BYTE   W03
 BYTE   VOL   12*song35_mvl/mxv
 BYTE   W03
 BYTE   FsM1
 BYTE   N17  Bn3
 BYTE   W03
 BYTE   VOL   12*song35_mvl/mxv
 BYTE   W03
// 001   ----------------------------------------
 BYTE   W12
 BYTE   FsM1
 BYTE   N17
 BYTE   W03
 BYTE   VOL   12*song35_mvl/mxv
 BYTE   W15
 BYTE   FsM1
 BYTE   N52
 BYTE   W03
 BYTE   VOL   12*song35_mvl/mxv
 BYTE   W16
 BYTE   CnM2
 BYTE   W32
 BYTE   W03
 BYTE   FsM1
 BYTE   N17  Fs3
 BYTE   W03
 BYTE   VOL   12*song35_mvl/mxv
 BYTE   W09
// 002   ----------------------------------------
 BYTE   W06
 BYTE   FsM1
 BYTE   N12
 BYTE   W03
 BYTE   VOL   12*song35_mvl/mxv
 BYTE   W09
 BYTE   FsM1
 BYTE   N05  Gn3
 BYTE   W03
 BYTE   VOL   12*song35_mvl/mxv
 BYTE   W03
 BYTE   FsM1
 BYTE   N11  Fs3
 BYTE   W03
 BYTE   VOL   12*song35_mvl/mxv
 BYTE   W09
 BYTE   FsM1
 BYTE   N06  Dn3
 BYTE   W03
 BYTE   VOL   12*song35_mvl/mxv
 BYTE   W03
 BYTE   FsM1
 BYTE   N88  Bn2
 BYTE   W03
 BYTE   VOL   12*song35_mvl/mxv
 BYTE   W48
 BYTE   W01
 BYTE   CnM2
 BYTE   W02
// 003   ----------------------------------------
 BYTE   W36
 BYTE   FsM1
 BYTE   N17  Dn3
 BYTE   W03
 BYTE   VOL   12*song35_mvl/mxv
 BYTE   W15
 BYTE   FsM1
 BYTE   N11
 BYTE   W03
 BYTE   VOL   12*song35_mvl/mxv
 BYTE   W09
 BYTE   FsM1
 BYTE   N05  En3
 BYTE   W03
 BYTE   VOL   12*song35_mvl/mxv
 BYTE   W03
 BYTE   FsM1
 BYTE   N11  Gn3
 BYTE   W03
 BYTE   VOL   12*song35_mvl/mxv
 BYTE   W09
 BYTE   FsM1
 BYTE   N06  An3
 BYTE   W03
 BYTE   VOL   12*song35_mvl/mxv
 BYTE   W03
 BYTE   FsM1
 BYTE   N17  Bn3
 BYTE   W03
 BYTE   VOL   12*song35_mvl/mxv
 BYTE   W03
// 004   ----------------------------------------
 BYTE   W12
 BYTE   FsM1
 BYTE   N17
 BYTE   W03
 BYTE   VOL   12*song35_mvl/mxv
 BYTE   W15
 BYTE   FsM1
 BYTE   N54
 BYTE   W03
 BYTE   VOL   12*song35_mvl/mxv
 BYTE   W16
 BYTE   CnM2
 BYTE   W32
 BYTE   W03
 BYTE   FsM1
 BYTE   N17  Dn4
 BYTE   W03
 BYTE   VOL   12*song35_mvl/mxv
 BYTE   W09
// 005   ----------------------------------------
 BYTE   W06
 BYTE   FsM1
 BYTE   N11
 BYTE   W03
 BYTE   VOL   12*song35_mvl/mxv
 BYTE   W09
 BYTE   FsM1
 BYTE   N05  Cs4
 BYTE   W03
 BYTE   VOL   12*song35_mvl/mxv
 BYTE   W03
 BYTE   FsM1
 BYTE   N11  Bn3
 BYTE   W03
 BYTE   VOL   12*song35_mvl/mxv
 BYTE   W09
 BYTE   FsM1
 BYTE   N06  An3
 BYTE   W03
 BYTE   VOL   12*song35_mvl/mxv
 BYTE   W03
 BYTE   FsM1
 BYTE   N88  Fs3
 BYTE   W03
 BYTE   VOL   12*song35_mvl/mxv
 BYTE   W48
 BYTE   W01
 BYTE   CnM2
 BYTE   W02
// 006   ----------------------------------------
 BYTE   W36
 BYTE   CnM1
 BYTE   N17  Dn2
 BYTE   W07
 BYTE   VOL   0*song35_mvl/mxv
 BYTE   W11
 BYTE   CnM1
 BYTE   N11
 BYTE   W06
 BYTE   BEND   c_v+2
 BYTE   W01
 BYTE   Gs3
 BYTE   W01
 BYTE   An3
 BYTE   W01
 BYTE   Gs3
 BYTE   W01
 BYTE   Fs3
 BYTE   W01
 BYTE   En3
 BYTE   W01
 BYTE   En3
 BYTE   N05  En2
 BYTE   W06
 BYTE   N11  Gn2
 BYTE   W07
 BYTE   VOL   0*song35_mvl/mxv
 BYTE   W05
 BYTE   CnM1
 BYTE   N05  An2
 BYTE   W06
 BYTE   N17  Bn2
 BYTE   W06
// 007   ----------------------------------------
 BYTE   W01
 BYTE   VOL   0*song35_mvl/mxv
 BYTE   W11
 BYTE   CnM1
 BYTE   N18
 BYTE   W07
 BYTE   VOL   0*song35_mvl/mxv
 BYTE   W11
 BYTE   CnM1
 BYTE   N52
 BYTE   W06
 BYTE   BEND   c_v+2
 BYTE   W01
 BYTE   Gs3
 BYTE   W01
 BYTE   An3
 BYTE   W01
 BYTE   Gs3
 BYTE   W01
 BYTE   Gn3
 BYTE   W01
 BYTE   En3
 BYTE   W01
 BYTE   Dn3
 BYTE   W01
 BYTE   Cn3
 BYTE   W01
 BYTE   Bn2
 BYTE   W01
 BYTE   Cn3
 BYTE   W01
 BYTE   VOL   0*song35_mvl/mxv
 BYTE   BEND   c_v-2
 BYTE   W01
 BYTE   En3
 BYTE   W01
 BYTE   En3
 BYTE   W36
 BYTE   VOL   12*song35_mvl/mxv
 BYTE   N17  Fs2
 BYTE   W07
 BYTE   VOL   0*song35_mvl/mxv
 BYTE   W05
// 008   ----------------------------------------
 BYTE   W06
 BYTE   CnM1
 BYTE   N11
 BYTE   W06
 BYTE   BEND   c_v+2
 BYTE   W01
 BYTE   Gs3
 BYTE   W01
 BYTE   An3
 BYTE   W01
 BYTE   Gs3
 BYTE   W01
 BYTE   Gn3
 BYTE   W01
 BYTE   En3
 BYTE   W01
 BYTE   En3
 BYTE   N05  Gn2
 BYTE   W06
 BYTE   N11  Fs2
 BYTE   W07
 BYTE   VOL   0*song35_mvl/mxv
 BYTE   W05
 BYTE   CnM1
 BYTE   N05  Dn2
 BYTE   W06
 BYTE   N88  Bn1
 BYTE   W06
 BYTE   BEND   c_v+2
 BYTE   W01
 BYTE   Gs3
 BYTE   W01
 BYTE   An3
 BYTE   W01
 BYTE   Gs3
 BYTE   W01
 BYTE   Fs3
 BYTE   W01
 BYTE   En3
 BYTE   W01
 BYTE   Dn3
 BYTE   W01
 BYTE   Cn3
 BYTE   W01
 BYTE   Bn2
 BYTE   W01
 BYTE   Cn3
 BYTE   W01
 BYTE   Dn3
 BYTE   W01
 BYTE   En3
 BYTE   W01
 BYTE   Fs3
 BYTE   W01
 BYTE   Gs3
 BYTE   W01
 BYTE   An3
 BYTE   W01
 BYTE   Gs3
 BYTE   W01
 BYTE   Gn3
 BYTE   W01
 BYTE   En3
 BYTE   W01
 BYTE   Dn3
 BYTE   W01
 BYTE   Cn3
 BYTE   W01
 BYTE   Bn2
 BYTE   W01
 BYTE   Cn3
 BYTE   W01
 BYTE   Dn3
 BYTE   W01
 BYTE   En3
 BYTE   W01
 BYTE   Fs3
 BYTE   W01
 BYTE   Gs3
 BYTE   W01
 BYTE   An3
 BYTE   W01
 BYTE   Gs3
 BYTE   W01
 BYTE   Gn3
 BYTE   W01
 BYTE   En3
 BYTE   W01
 BYTE   Dn3
 BYTE   W01
 BYTE   Cn3
 BYTE   W01
 BYTE   Bn2
 BYTE   W01
 BYTE   Cn3
 BYTE   W01
 BYTE   Dn3
 BYTE   W01
 BYTE   En3
 BYTE   W01
 BYTE   Fs3
 BYTE   W01
 BYTE   Gs3
 BYTE   W01
 BYTE   An3
 BYTE   W01
 BYTE   Gs3
 BYTE   W01
 BYTE   Gn3
 BYTE   W01
 BYTE   En3
 BYTE   W01
 BYTE   Dn3
 BYTE   W01
 BYTE   Cn3
 BYTE   W01
 BYTE   Bn2
 BYTE   W01
 BYTE   Cn3
 BYTE   W01
 BYTE   Dn3
 BYTE   W01
 BYTE   En3
 BYTE   W01
// 009   ----------------------------------------
 BYTE   En3
 BYTE   W36
 BYTE   N17  Dn2
 BYTE   W07
 BYTE   VOL   0*song35_mvl/mxv
 BYTE   W11
 BYTE   CnM1
 BYTE   N11
 BYTE   W06
 BYTE   BEND   c_v+2
 BYTE   W01
 BYTE   Gs3
 BYTE   W01
 BYTE   An3
 BYTE   W01
 BYTE   Gs3
 BYTE   W01
 BYTE   Gn3
 BYTE   W01
 BYTE   En3
 BYTE   W01
 BYTE   En3
 BYTE   N06  En2
 BYTE   W06
 BYTE   N11  Gn2
 BYTE   W07
 BYTE   VOL   0*song35_mvl/mxv
 BYTE   W05
 BYTE   CnM1
 BYTE   N05  An2
 BYTE   W06
 BYTE   N17  Bn2
 BYTE   W06
// 010   ----------------------------------------
 BYTE   W01
 BYTE   VOL   0*song35_mvl/mxv
 BYTE   W11
 BYTE   CnM1
 BYTE   N18
 BYTE   W07
 BYTE   VOL   0*song35_mvl/mxv
 BYTE   W11
 BYTE   CnM1
 BYTE   N52
 BYTE   W06
 BYTE   BEND   c_v+2
 BYTE   W01
 BYTE   Gs3
 BYTE   W01
 BYTE   An3
 BYTE   W01
 BYTE   Gs3
 BYTE   W01
 BYTE   Gn3
 BYTE   W01
 BYTE   En3
 BYTE   W01
 BYTE   Dn3
 BYTE   W01
 BYTE   Cn3
 BYTE   W01
 BYTE   Bn2
 BYTE   W01
 BYTE   Cn3
 BYTE   W01
 BYTE   VOL   0*song35_mvl/mxv
 BYTE   BEND   c_v-2
 BYTE   W01
 BYTE   En3
 BYTE   W01
 BYTE   En3
 BYTE   W36
 BYTE   VOL   12*song35_mvl/mxv
 BYTE   N17  Dn3
 BYTE   W07
 BYTE   VOL   0*song35_mvl/mxv
 BYTE   W05
// 011   ----------------------------------------
 BYTE   W06
 BYTE   CnM1
 BYTE   N11
 BYTE   W06
 BYTE   BEND   c_v+2
 BYTE   W01
 BYTE   Gs3
 BYTE   W01
 BYTE   An3
 BYTE   W01
 BYTE   Gs3
 BYTE   W01
 BYTE   Gn3
 BYTE   W01
 BYTE   En3
 BYTE   W01
 BYTE   En3
 BYTE   N06  Cs3
 BYTE   W06
 BYTE   N11  Bn2
 BYTE   W07
 BYTE   VOL   0*song35_mvl/mxv
 BYTE   W05
 BYTE   CnM1
 BYTE   N05  Cs3
 BYTE   W06
 BYTE   N32  Dn3
 BYTE   W06
 BYTE   BEND   c_v+2
 BYTE   W01
 BYTE   Gs3
 BYTE   W01
 BYTE   An3
 BYTE   W01
 BYTE   Gs3
 BYTE   W01
 BYTE   Fs3
 BYTE   W01
 BYTE   En3
 BYTE   W01
 BYTE   Dn3
 BYTE   W01
 BYTE   Cn3
 BYTE   W01
 BYTE   Bn2
 BYTE   W01
 BYTE   Cn3
 BYTE   W01
 BYTE   Dn3
 BYTE   W01
 BYTE   En3
 BYTE   W01
 BYTE   Fs3
 BYTE   W01
 BYTE   Gs3
 BYTE   W01
 BYTE   An3
 BYTE   W01
 BYTE   Gs3
 BYTE   W01
 BYTE   Fs3
 BYTE   W01
 BYTE   En3
 BYTE   W01
 BYTE   Dn3
 BYTE   W01
 BYTE   Cn3
 BYTE   W01
 BYTE   Bn2
 BYTE   W01
 BYTE   Cn3
 BYTE   W01
 BYTE   Dn3
 BYTE   W01
 BYTE   En3
 BYTE   W01
 BYTE   Fs3
 BYTE   W01
 BYTE   Gs3
 BYTE   W01
 BYTE   An3
 BYTE   W01
 BYTE   Gs3
 BYTE   W01
 BYTE   Fs3
 BYTE   W01
 BYTE   En3
 BYTE   W01
 BYTE   Fs3
 BYTE   N44  Fs3
 BYTE   W01
 BYTE   BEND   c_v+4
 BYTE   W01
 BYTE   An3
 BYTE   W01
 BYTE   Gs3
 BYTE   W01
 BYTE   Gn3
 BYTE   W01
 BYTE   En3
 BYTE   W01
 BYTE   Dn3
 BYTE   W01
 BYTE   Cn3
 BYTE   W01
 BYTE   Bn2
 BYTE   W01
 BYTE   Cn3
 BYTE   W01
 BYTE   Cs3
 BYTE   W01
 BYTE   En3
 BYTE   W01
 BYTE   Fs3
 BYTE   W01
 BYTE   Gs3
 BYTE   W01
 BYTE   An3
 BYTE   W01
 BYTE   Gs3
 BYTE   W01
 BYTE   Gn3
 BYTE   W01
 BYTE   En3
 BYTE   W01
// 012   ----------------------------------------
 BYTE   En3
 BYTE   W01
 BYTE   VOL   0*song35_mvl/mxv
 BYTE   W28
 BYTE   W01
 BYTE   Gn0
 BYTE   N05  An3
 BYTE   W06
 BYTE   N28  Cn4
 BYTE   W30
 BYTE   N06  An3
 BYTE   W06
 BYTE   N28  Cn4
 BYTE   W24
// 013   ----------------------------------------
 BYTE   W06
 BYTE   N05  Dn3
 BYTE   W06
 BYTE   N54  En3
 BYTE   W36
 BYTE   W01
 BYTE   VOL   30*song35_mvl/mxv
 BYTE   W01
 BYTE   Fn0
 BYTE   W01
 BYTE   En0
 BYTE   W01
 BYTE   En0
 BYTE   W01
 BYTE   Ds0
 BYTE   W01
 BYTE   Dn0
 BYTE   W01
 BYTE   Cs0
 BYTE   W01
 BYTE   Cn0
 BYTE   W01
 BYTE   BnM1
 BYTE   W01
 BYTE   AsM1
 BYTE   W01
 BYTE   AnM1
 BYTE   W01
 BYTE   GsM1
 BYTE   W01
 BYTE   GnM1
 BYTE   W01
 BYTE   FnM1
 BYTE   W01
 BYTE   EnM1
 BYTE   W01
 BYTE   DsM1
 BYTE   W01
 BYTE   CsM1
 BYTE   W01
 BYTE   Gn0
 BYTE   N32  Gn3
 BYTE   W30
// 014   ----------------------------------------
 BYTE   W06
 BYTE   N11  Dn3
 BYTE   W12
 BYTE   TIE  Bn2
 BYTE   W78
// 015   ----------------------------------------
 BYTE   W01
 BYTE   VOL   30*song35_mvl/mxv
 BYTE   W01
 BYTE   Fn0
 BYTE   W01
 BYTE   En0
 BYTE   W01
 BYTE   En0
 BYTE   W01
 BYTE   Ds0
 BYTE   W01
 BYTE   Dn0
 BYTE   W01
 BYTE   Cs0
 BYTE   W01
 BYTE   Cn0
 BYTE   W01
 BYTE   BnM1
 BYTE   W01
 BYTE   AsM1
 BYTE   W01
 BYTE   AnM1
 BYTE   W01
 BYTE   GsM1
 BYTE   W01
 BYTE   GnM1
 BYTE   W01
 BYTE   FnM1
 BYTE   W01
 BYTE   EnM1
 BYTE   W01
 BYTE   DsM1
 BYTE   W01
 BYTE   CsM1
 BYTE   W01
 BYTE   BnM2
 BYTE   W01
 BYTE   BnM2
 BYTE   W01
 BYTE   BnM2
 BYTE   W01
 BYTE   BnM2
 BYTE   W01
 BYTE   AsM2
 BYTE   W01
 BYTE   AsM2
 BYTE   W01
 BYTE   AsM2
 BYTE   W01
 BYTE   AsM2
 BYTE   W01
 BYTE   AnM2
 BYTE   W01
 BYTE   AnM2
 BYTE   W01
 BYTE   AnM2
 BYTE   W01
 BYTE   AnM2
 BYTE   W01
 BYTE   EOT
 BYTE   VOL   31*song35_mvl/mxv
 BYTE   N05  An3
 BYTE   W06
 BYTE   N28  Cn4
 BYTE   W30
 BYTE   N05  An3
 BYTE   W06
 BYTE   N28  Cn4
 BYTE   W24
// 016   ----------------------------------------
 BYTE   W06
 BYTE   N06  Dn3
 BYTE   W06
 BYTE   TIE  En3
 BYTE   W84
// 017   ----------------------------------------
 BYTE   W23
 BYTE   EOT
 BYTE   W01
 BYTE   N68  Bn3
 BYTE   W68
 BYTE   W03
 BYTE   GoTo
  POIN2 Label_1_0138F5CE
// 018   ----------------------------------------
 BYTE   VOL   0*song35_mvl/mxv
 BYTE   PAN   c_v+0
 BYTE   BEND   c_v+0
 BYTE   FINE

//**************** Track 3 (Midi-Chn.2) ****************//

song35_003:
// 000   ----------------------------------------
 BYTE   KEYSH   song35_key+0
Label_2_56D722:
 BYTE   VOICE   1
 BYTE   VOL   0*song35_mvl/mxv
 BYTE   PAN   c_v+0
 BYTE   VOL   0*song35_mvl/mxv
 BYTE   PAN   c_v+0
 BYTE   VOL   36*song35_mvl/mxv
 BYTE   BEND   c_v+0
 BYTE   N32  Gn2  v127
 BYTE   W24
 BYTE   W01
 BYTE   VOL   0*song35_mvl/mxv
 BYTE   W11
 BYTE   Cn1
 BYTE   N32  Dn2
 BYTE   W24
 BYTE   W01
 BYTE   VOL   0*song35_mvl/mxv
 BYTE   W11
 BYTE   Cn1
 BYTE   N32  Gn2
 BYTE   W24
// 001   ----------------------------------------
 BYTE   W01
 BYTE   VOL   0*song35_mvl/mxv
 BYTE   W11
 BYTE   Cn1
 BYTE   N36  Dn2
 BYTE   W24
 BYTE   W01
 BYTE   VOL   0*song35_mvl/mxv
 BYTE   W11
 BYTE   Cn1
 BYTE   N32  Bn2
 BYTE   W24
 BYTE   W01
 BYTE   VOL   0*song35_mvl/mxv
 BYTE   W11
 BYTE   Cn1
 BYTE   N32  Fs2
 BYTE   W12
// 002   ----------------------------------------
 BYTE   W13
 BYTE   VOL   0*song35_mvl/mxv
 BYTE   W11
 BYTE   Cn1
 BYTE   N32  Bn2
 BYTE   W24
 BYTE   W01
 BYTE   VOL   0*song35_mvl/mxv
 BYTE   W11
 BYTE   Cn1
 BYTE   N36  Fs2
 BYTE   W24
 BYTE   W01
 BYTE   VOL   0*song35_mvl/mxv
 BYTE   W11
// 003   ----------------------------------------
 BYTE   Cn1
 BYTE   N32  Gn2
 BYTE   W24
 BYTE   W01
 BYTE   VOL   0*song35_mvl/mxv
 BYTE   W11
 BYTE   Cn1
 BYTE   N32  Dn2
 BYTE   W24
 BYTE   W01
 BYTE   VOL   0*song35_mvl/mxv
 BYTE   W11
 BYTE   Cn1
 BYTE   N32  Gn2
 BYTE   W24
// 004   ----------------------------------------
Label_2_56D784:
 BYTE   W01
 BYTE   VOL   0*song35_mvl/mxv
 BYTE   W11
 BYTE   Cn1
 BYTE   N32  Dn2  v127
 BYTE   W24
 BYTE   W01
 BYTE   VOL   0*song35_mvl/mxv
 BYTE   W11
 BYTE   Cn1
 BYTE   N36  Bn2
 BYTE   W24
 BYTE   W01
 BYTE   VOL   0*song35_mvl/mxv
 BYTE   W11
 BYTE   Cn1
 BYTE   N32  Fs2
 BYTE   W12
 BYTE   PEND 
// 005   ----------------------------------------
Label_2_56D79E:
 BYTE   W13
 BYTE   VOL   0*song35_mvl/mxv
 BYTE   W11
 BYTE   Cn1
 BYTE   N32  Bn2  v127
 BYTE   W24
 BYTE   W01
 BYTE   VOL   0*song35_mvl/mxv
 BYTE   W11
 BYTE   Cn1
 BYTE   N32  Fs2
 BYTE   W24
 BYTE   W01
 BYTE   VOL   0*song35_mvl/mxv
 BYTE   W11
 BYTE   PEND 
// 006   ----------------------------------------
 BYTE   Cn1
 BYTE   N36  Gn2
 BYTE   W24
 BYTE   W01
 BYTE   VOL   0*song35_mvl/mxv
 BYTE   W11
 BYTE   Cn1
 BYTE   N32  Dn2
 BYTE   W24
 BYTE   W01
 BYTE   VOL   0*song35_mvl/mxv
 BYTE   W11
 BYTE   Cn1
 BYTE   N32  Gn2
 BYTE   W24
// 007   ----------------------------------------
 BYTE   PATT
  POIN2 Label_2_56D784
// 008   ----------------------------------------
 BYTE   PATT
  POIN2 Label_2_56D79E
// 009   ----------------------------------------
 BYTE   VOL   36*song35_mvl/mxv
 BYTE   N32  Gn2  v127
 BYTE   W24
 BYTE   W01
 BYTE   VOL   0*song35_mvl/mxv
 BYTE   W11
 BYTE   Cn1
 BYTE   N36  Dn2
 BYTE   W24
 BYTE   W01
 BYTE   VOL   0*song35_mvl/mxv
 BYTE   W11
 BYTE   Cn1
 BYTE   N32  Gn2
 BYTE   W24
// 010   ----------------------------------------
 BYTE   W01
 BYTE   VOL   0*song35_mvl/mxv
 BYTE   W11
 BYTE   Cn1
 BYTE   N32  Dn2
 BYTE   W24
 BYTE   W01
 BYTE   VOL   0*song35_mvl/mxv
 BYTE   W11
 BYTE   Cn1
 BYTE   N32  Bn2
 BYTE   W24
 BYTE   W01
 BYTE   VOL   0*song35_mvl/mxv
 BYTE   W11
 BYTE   Cn1
 BYTE   N36  Fs2
 BYTE   W12
// 011   ----------------------------------------
 BYTE   PATT
  POIN2 Label_2_56D79E
// 012   ----------------------------------------
 BYTE   VOL   36*song35_mvl/mxv
 BYTE   N32  Cn3  v127
 BYTE   W24
 BYTE   W01
 BYTE   VOL   0*song35_mvl/mxv
 BYTE   W11
 BYTE   Cn1
 BYTE   N36  Gn2
 BYTE   W24
 BYTE   W01
 BYTE   VOL   0*song35_mvl/mxv
 BYTE   W11
 BYTE   Cn1
 BYTE   N32  Cn3
 BYTE   W24
// 013   ----------------------------------------
 BYTE   W01
 BYTE   VOL   0*song35_mvl/mxv
 BYTE   W11
 BYTE   Cn1
 BYTE   N32  Gn2
 BYTE   W24
 BYTE   W01
 BYTE   VOL   0*song35_mvl/mxv
 BYTE   W11
 BYTE   Cn1
 BYTE   N32  En3
 BYTE   W24
 BYTE   W01
 BYTE   VOL   0*song35_mvl/mxv
 BYTE   W11
 BYTE   Cn1
 BYTE   N32  Bn2
 BYTE   W12
// 014   ----------------------------------------
 BYTE   W13
 BYTE   VOL   0*song35_mvl/mxv
 BYTE   W11
 BYTE   Cn1
 BYTE   N36  En3
 BYTE   W24
 BYTE   W01
 BYTE   VOL   0*song35_mvl/mxv
 BYTE   W11
 BYTE   Cn1
 BYTE   N32  Bn2
 BYTE   W24
 BYTE   W01
 BYTE   VOL   0*song35_mvl/mxv
 BYTE   W11
// 015   ----------------------------------------
 BYTE   Cn1
 BYTE   N32  Cn3
 BYTE   W24
 BYTE   W01
 BYTE   VOL   0*song35_mvl/mxv
 BYTE   W11
 BYTE   Cn1
 BYTE   N32  Gn2
 BYTE   W24
 BYTE   W01
 BYTE   VOL   0*song35_mvl/mxv
 BYTE   W11
 BYTE   Cn1
 BYTE   N36  Cn3
 BYTE   W24
// 016   ----------------------------------------
 BYTE   W01
 BYTE   VOL   0*song35_mvl/mxv
 BYTE   W11
 BYTE   Cn1
 BYTE   N32  Gn2
 BYTE   W24
 BYTE   W01
 BYTE   VOL   0*song35_mvl/mxv
 BYTE   W11
 BYTE   Cn1
 BYTE   N32  Fn3
 BYTE   W24
 BYTE   W01
 BYTE   VOL   0*song35_mvl/mxv
 BYTE   W11
 BYTE   Cn1
 BYTE   N32  Cn3
 BYTE   W12
// 017   ----------------------------------------
 BYTE   W13
 BYTE   VOL   0*song35_mvl/mxv
 BYTE   W11
 BYTE   Cn1
 BYTE   N36  Gn3
 BYTE   W24
 BYTE   W01
 BYTE   VOL   0*song35_mvl/mxv
 BYTE   W11
 BYTE   Cn1
 BYTE   N32  Dn3
 BYTE   W24
 BYTE   W01
 BYTE   VOL   0*song35_mvl/mxv
 BYTE   W10
 BYTE   GoTo
  POIN2 Label_2_56D722
// 018   ----------------------------------------
 BYTE   VOL   0*song35_mvl/mxv
 BYTE   PAN   c_v+0
 BYTE   BEND   c_v+0
 BYTE   FINE

//**************** Track 4 (Midi-Chn.3) ****************//

song35_004:
// 000   ----------------------------------------
 BYTE   KEYSH   song35_key+0
Label_3_56D8CA:
 BYTE   VOICE   49
 BYTE   VOL   0*song35_mvl/mxv
 BYTE   PAN   c_v+0
 BYTE   VOL   0*song35_mvl/mxv
 BYTE   PAN   c_v+0
 BYTE   VOL   12*song35_mvl/mxv
 BYTE   BEND   c_v+0
 BYTE   TIE  Dn2  v127
 BYTE   W96
// 001   ----------------------------------------
 BYTE   W48
 BYTE   EOT
 BYTE   TIE
 BYTE   W48
// 002   ----------------------------------------
 BYTE   W92
 BYTE   W03
 BYTE   EOT
 BYTE   W01
// 003   ----------------------------------------
 BYTE   TIE
 BYTE   W96
// 004   ----------------------------------------
 BYTE   W44
 BYTE   W03
 BYTE   EOT
 BYTE   W01
 BYTE   TIE
 BYTE   W48
// 005   ----------------------------------------
 BYTE   W92
 BYTE   W03
 BYTE   EOT
 BYTE   W01
// 006   ----------------------------------------
 BYTE   TIE
 BYTE   W96
// 007   ----------------------------------------
 BYTE   W44
 BYTE   W03
 BYTE   EOT
 BYTE   W01
 BYTE   TIE
 BYTE   W48
// 008   ----------------------------------------
 BYTE   W92
 BYTE   W03
 BYTE   EOT
 BYTE   W01
// 009   ----------------------------------------
 BYTE   TIE
 BYTE   W96
// 010   ----------------------------------------
 BYTE   W44
 BYTE   W03
 BYTE   EOT
 BYTE   W01
 BYTE   TIE
 BYTE   W48
// 011   ----------------------------------------
 BYTE   W92
 BYTE   W03
 BYTE   EOT
 BYTE   W01
// 012   ----------------------------------------
 BYTE   TIE  Gn2
 BYTE   W96
// 013   ----------------------------------------
 BYTE   W44
 BYTE   W03
 BYTE   EOT
 BYTE   W01
 BYTE   TIE
 BYTE   W48
// 014   ----------------------------------------
 BYTE   W92
 BYTE   W03
 BYTE   EOT
 BYTE   W01
// 015   ----------------------------------------
 BYTE   TIE
 BYTE   W96
// 016   ----------------------------------------
 BYTE   W44
 BYTE   W03
 BYTE   EOT
 BYTE   W01
 BYTE   N68  An2
 BYTE   W48
// 017   ----------------------------------------
 BYTE   W24
 BYTE   Bn2
 BYTE   W68
 BYTE   W03
 BYTE   GoTo
  POIN2 Label_3_56D8CA
// 018   ----------------------------------------
 BYTE   VOL   0*song35_mvl/mxv
 BYTE   PAN   c_v+0
 BYTE   BEND   c_v+0
 BYTE   FINE

//**************** Track 5 (Midi-Chn.4) ****************//

song35_005:
// 000   ----------------------------------------
 BYTE   KEYSH   song35_key+0
Label_4_0138EDF6:
 BYTE   VOICE   49
 BYTE   VOL   0*song35_mvl/mxv
 BYTE   PAN   c_v+0
 BYTE   VOL   0*song35_mvl/mxv
 BYTE   PAN   c_v+0
 BYTE   VOL   12*song35_mvl/mxv
 BYTE   BEND   c_v+0
 BYTE   TIE  Bn1  v127
 BYTE   W96
// 001   ----------------------------------------
 BYTE   W48
 BYTE   EOT
 BYTE   TIE
 BYTE   W48
// 002   ----------------------------------------
 BYTE   W92
 BYTE   W03
 BYTE   EOT
 BYTE   W01
// 003   ----------------------------------------
 BYTE   TIE
 BYTE   W96
// 004   ----------------------------------------
 BYTE   W44
 BYTE   W03
 BYTE   EOT
 BYTE   W01
 BYTE   TIE
 BYTE   W48
// 005   ----------------------------------------
 BYTE   W92
 BYTE   W03
 BYTE   EOT
 BYTE   W01
// 006   ----------------------------------------
 BYTE   TIE
 BYTE   W96
// 007   ----------------------------------------
 BYTE   W44
 BYTE   W03
 BYTE   EOT
 BYTE   W01
 BYTE   TIE
 BYTE   W48
// 008   ----------------------------------------
 BYTE   W92
 BYTE   W03
 BYTE   EOT
 BYTE   W01
// 009   ----------------------------------------
 BYTE   TIE
 BYTE   W96
// 010   ----------------------------------------
 BYTE   W44
 BYTE   W03
 BYTE   EOT
 BYTE   W01
 BYTE   TIE
 BYTE   W48
// 011   ----------------------------------------
 BYTE   W92
 BYTE   W03
 BYTE   EOT
 BYTE   W01
// 012   ----------------------------------------
 BYTE   TIE  En2
 BYTE   W96
// 013   ----------------------------------------
 BYTE   W44
 BYTE   W03
 BYTE   EOT
 BYTE   W01
 BYTE   TIE
 BYTE   W48
// 014   ----------------------------------------
 BYTE   W92
 BYTE   W03
 BYTE   EOT
 BYTE   W01
// 015   ----------------------------------------
 BYTE   TIE
 BYTE   W96
// 016   ----------------------------------------
 BYTE   W44
 BYTE   W03
 BYTE   EOT
 BYTE   W01
 BYTE   N68  Fn2
 BYTE   W48
// 017   ----------------------------------------
 BYTE   W24
 BYTE   Gn2
 BYTE   W68
 BYTE   W03
 BYTE   GoTo
  POIN2 Label_4_0138EDF6
// 018   ----------------------------------------
 BYTE   VOL   0*song35_mvl/mxv
 BYTE   PAN   c_v+0
 BYTE   BEND   c_v+0
 BYTE   FINE

//**************** Track 6 (Midi-Chn.5) ****************//

song35_006:
// 000   ----------------------------------------
 BYTE   KEYSH   song35_key+0
Label_5_0138EE5E:
 BYTE   VOICE   49
 BYTE   VOL   0*song35_mvl/mxv
 BYTE   PAN   c_v+0
 BYTE   VOL   0*song35_mvl/mxv
 BYTE   PAN   c_v+0
 BYTE   VOL   12*song35_mvl/mxv
 BYTE   BEND   c_v+0
 BYTE   TIE  Gn1  v127
 BYTE   W96
// 001   ----------------------------------------
 BYTE   W48
 BYTE   EOT
 BYTE   TIE  Fs1
 BYTE   W48
// 002   ----------------------------------------
 BYTE   W92
 BYTE   W03
 BYTE   EOT
 BYTE   W01
// 003   ----------------------------------------
 BYTE   TIE  Gn1
 BYTE   W96
// 004   ----------------------------------------
 BYTE   W44
 BYTE   W03
 BYTE   EOT
 BYTE   W01
 BYTE   TIE  Fs1
 BYTE   W48
// 005   ----------------------------------------
 BYTE   W92
 BYTE   W03
 BYTE   EOT
 BYTE   W01
// 006   ----------------------------------------
 BYTE   TIE  Gn1
 BYTE   W96
// 007   ----------------------------------------
 BYTE   W44
 BYTE   W03
 BYTE   EOT
 BYTE   W01
 BYTE   TIE  Fs1
 BYTE   W48
// 008   ----------------------------------------
 BYTE   W92
 BYTE   W03
 BYTE   EOT
 BYTE   W01
// 009   ----------------------------------------
 BYTE   TIE  Gn1
 BYTE   W96
// 010   ----------------------------------------
 BYTE   W44
 BYTE   W03
 BYTE   EOT
 BYTE   W01
 BYTE   TIE  Fs1
 BYTE   W48
// 011   ----------------------------------------
 BYTE   W92
 BYTE   W03
 BYTE   EOT
 BYTE   W01
// 012   ----------------------------------------
 BYTE   TIE  Cn2
 BYTE   W96
// 013   ----------------------------------------
 BYTE   W44
 BYTE   W03
 BYTE   EOT
 BYTE   W01
 BYTE   TIE  Bn1
 BYTE   W48
// 014   ----------------------------------------
 BYTE   W92
 BYTE   W03
 BYTE   EOT
 BYTE   W01
// 015   ----------------------------------------
 BYTE   TIE  Cn2
 BYTE   W96
// 016   ----------------------------------------
 BYTE   W44
 BYTE   W03
 BYTE   EOT
 BYTE   W01
 BYTE   N68
 BYTE   W48
// 017   ----------------------------------------
 BYTE   W24
 BYTE   Dn2
 BYTE   W68
 BYTE   W03
 BYTE   GoTo
  POIN2 Label_5_0138EE5E
// 018   ----------------------------------------
 BYTE   VOL   0*song35_mvl/mxv
 BYTE   PAN   c_v+0
 BYTE   BEND   c_v+0
 BYTE   FINE

//**************** Track 7 (Midi-Chn.6) ****************//

song35_007:
// 000   ----------------------------------------
 BYTE   KEYSH   song35_key+0
Label_6_0139029E:
 BYTE   VOICE   127
 BYTE   VOL   0*song35_mvl/mxv
 BYTE   PAN   c_v+0
 BYTE   VOL   0*song35_mvl/mxv
 BYTE   PAN   c_v+0
 BYTE   VOL   36*song35_mvl/mxv
 BYTE   CnM2
 BYTE   PAN   c_v+0
 BYTE   VOL   0*song35_mvl/mxv
 BYTE   PAN   c_v+0
 BYTE   VOL   18*song35_mvl/mxv
 BYTE   BEND   c_v+0
 BYTE   N17  Dn1  v127
 BYTE   N17  Fn1
 BYTE   W01
 BYTE   VOL   16*song35_mvl/mxv
 BYTE   W01
 BYTE   DnM1
 BYTE   W01
 BYTE   BnM2
 BYTE   W01
 BYTE   AnM2
 BYTE   W01
 BYTE   EnM2
 BYTE   W01
 BYTE   FsM2
 BYTE   W01
 BYTE   GnM2
 BYTE   W01
 BYTE   GsM2
 BYTE   W01
 BYTE   AnM2
 BYTE   W01
 BYTE   AsM2
 BYTE   W01
 BYTE   BnM2
 BYTE   W01
 BYTE   CnM1
 BYTE   W06
 BYTE   Cs0
 BYTE   N17  Dn1
 BYTE   N17  Fn1
 BYTE   W01
 BYTE   VOL   22*song35_mvl/mxv
 BYTE   W01
 BYTE   GsM1
 BYTE   W01
 BYTE   EnM1
 BYTE   W01
 BYTE   CnM1
 BYTE   W01
 BYTE   FsM2
 BYTE   W01
 BYTE   GsM2
 BYTE   W01
 BYTE   AsM2
 BYTE   W01
 BYTE   CnM1
 BYTE   W01
 BYTE   CsM1
 BYTE   W01
 BYTE   DsM1
 BYTE   W01
 BYTE   EnM1
 BYTE   W01
 BYTE   FnM1
 BYTE   W06
 BYTE   FsM1
 BYTE   N18  Dn1
 BYTE   N18  Fn1
 BYTE   W01
 BYTE   VOL   16*song35_mvl/mxv
 BYTE   W01
 BYTE   DnM1
 BYTE   W01
 BYTE   BnM2
 BYTE   W01
 BYTE   AnM2
 BYTE   W01
 BYTE   EnM2
 BYTE   W01
 BYTE   FsM2
 BYTE   W01
 BYTE   GnM2
 BYTE   W01
 BYTE   GsM2
 BYTE   W01
 BYTE   AnM2
 BYTE   W01
 BYTE   AsM2
 BYTE   W01
 BYTE   BnM2
 BYTE   W01
 BYTE   CnM1
 BYTE   W06
 BYTE   Cs0
 BYTE   N17  Dn1
 BYTE   N17  Fn1
 BYTE   W01
 BYTE   VOL   22*song35_mvl/mxv
 BYTE   W01
 BYTE   GsM1
 BYTE   W01
 BYTE   EnM1
 BYTE   W01
 BYTE   CnM1
 BYTE   W01
 BYTE   FsM2
 BYTE   W01
 BYTE   GsM2
 BYTE   W01
 BYTE   AsM2
 BYTE   W01
 BYTE   CnM1
 BYTE   W01
 BYTE   CsM1
 BYTE   W01
 BYTE   DsM1
 BYTE   W01
 BYTE   EnM1
 BYTE   W01
 BYTE   FnM1
 BYTE   W06
 BYTE   FsM1
 BYTE   N17  Dn1
 BYTE   N17  Fn1
 BYTE   W01
 BYTE   VOL   16*song35_mvl/mxv
 BYTE   W01
 BYTE   DnM1
 BYTE   W01
 BYTE   BnM2
 BYTE   W01
 BYTE   AnM2
 BYTE   W01
 BYTE   EnM2
 BYTE   W01
 BYTE   FsM2
 BYTE   W01
 BYTE   GnM2
 BYTE   W01
 BYTE   GsM2
 BYTE   W01
 BYTE   AnM2
 BYTE   W01
 BYTE   AsM2
 BYTE   W01
 BYTE   BnM2
 BYTE   W01
 BYTE   CnM1
 BYTE   W06
 BYTE   Cs0
 BYTE   N17  Dn1
 BYTE   N17  Fn1
 BYTE   W01
 BYTE   VOL   22*song35_mvl/mxv
 BYTE   W01
 BYTE   GsM1
 BYTE   W01
 BYTE   EnM1
 BYTE   W01
 BYTE   CnM1
 BYTE   W01
 BYTE   FsM2
 BYTE   W01
// 001   ----------------------------------------
 BYTE   GsM2
 BYTE   W01
 BYTE   AsM2
 BYTE   W01
 BYTE   CnM1
 BYTE   W01
 BYTE   CsM1
 BYTE   W01
 BYTE   DsM1
 BYTE   W01
 BYTE   EnM1
 BYTE   W01
 BYTE   FnM1
 BYTE   W06
 BYTE   FsM1
 BYTE   N17  Dn1
 BYTE   N17  Fn1
 BYTE   W01
 BYTE   VOL   16*song35_mvl/mxv
 BYTE   W01
 BYTE   DnM1
 BYTE   W01
 BYTE   BnM2
 BYTE   W01
 BYTE   AnM2
 BYTE   W01
 BYTE   EnM2
 BYTE   W01
 BYTE   FsM2
 BYTE   W01
 BYTE   GnM2
 BYTE   W01
 BYTE   GsM2
 BYTE   W01
 BYTE   AnM2
 BYTE   W01
 BYTE   AsM2
 BYTE   W01
 BYTE   BnM2
 BYTE   W01
 BYTE   CnM1
 BYTE   W06
 BYTE   Cs0
 BYTE   N18  Dn1
 BYTE   N18  Fn1
 BYTE   W01
 BYTE   VOL   22*song35_mvl/mxv
 BYTE   W01
 BYTE   GsM1
 BYTE   W01
 BYTE   EnM1
 BYTE   W01
 BYTE   CnM1
 BYTE   W01
 BYTE   FsM2
 BYTE   W01
 BYTE   GsM2
 BYTE   W01
 BYTE   AsM2
 BYTE   W01
 BYTE   CnM1
 BYTE   W01
 BYTE   CsM1
 BYTE   W01
 BYTE   DsM1
 BYTE   W01
 BYTE   EnM1
 BYTE   W01
 BYTE   FnM1
 BYTE   W06
 BYTE   FsM1
 BYTE   N17  Dn1
 BYTE   N17  Fn1
 BYTE   W01
 BYTE   VOL   16*song35_mvl/mxv
 BYTE   W01
 BYTE   DnM1
 BYTE   W01
 BYTE   BnM2
 BYTE   W01
 BYTE   AnM2
 BYTE   W01
 BYTE   EnM2
 BYTE   W01
 BYTE   FsM2
 BYTE   W01
 BYTE   GnM2
 BYTE   W01
 BYTE   GsM2
 BYTE   W01
 BYTE   AnM2
 BYTE   W01
 BYTE   AsM2
 BYTE   W01
 BYTE   BnM2
 BYTE   W01
 BYTE   CnM1
 BYTE   W06
 BYTE   Cs0
 BYTE   N17  Dn1
 BYTE   N17  Fn1
 BYTE   W01
 BYTE   VOL   22*song35_mvl/mxv
 BYTE   W01
 BYTE   GsM1
 BYTE   W01
 BYTE   EnM1
 BYTE   W01
 BYTE   CnM1
 BYTE   W01
 BYTE   FsM2
 BYTE   W01
 BYTE   GsM2
 BYTE   W01
 BYTE   AsM2
 BYTE   W01
 BYTE   CnM1
 BYTE   W01
 BYTE   CsM1
 BYTE   W01
 BYTE   DsM1
 BYTE   W01
 BYTE   EnM1
 BYTE   W01
 BYTE   FnM1
 BYTE   W06
 BYTE   FsM1
 BYTE   N17  Dn1
 BYTE   N17  Fn1
 BYTE   W01
 BYTE   VOL   16*song35_mvl/mxv
 BYTE   W01
 BYTE   DnM1
 BYTE   W01
 BYTE   BnM2
 BYTE   W01
 BYTE   AnM2
 BYTE   W01
 BYTE   EnM2
 BYTE   W01
 BYTE   FsM2
 BYTE   W01
 BYTE   GnM2
 BYTE   W01
 BYTE   GsM2
 BYTE   W01
 BYTE   AnM2
 BYTE   W01
 BYTE   AsM2
 BYTE   W01
 BYTE   BnM2
 BYTE   W01
// 002   ----------------------------------------
 BYTE   CnM1
 BYTE   W06
 BYTE   Cs0
 BYTE   N17  Dn1
 BYTE   N17  Fn1
 BYTE   W01
 BYTE   VOL   22*song35_mvl/mxv
 BYTE   W01
 BYTE   GsM1
 BYTE   W01
 BYTE   EnM1
 BYTE   W01
 BYTE   CnM1
 BYTE   W01
 BYTE   FsM2
 BYTE   W01
 BYTE   GsM2
 BYTE   W01
 BYTE   AsM2
 BYTE   W01
 BYTE   CnM1
 BYTE   W01
 BYTE   CsM1
 BYTE   W01
 BYTE   DsM1
 BYTE   W01
 BYTE   EnM1
 BYTE   W01
 BYTE   FnM1
 BYTE   W06
 BYTE   FsM1
 BYTE   N18  Dn1
 BYTE   N18  Fn1
 BYTE   W01
 BYTE   VOL   16*song35_mvl/mxv
 BYTE   W01
 BYTE   DnM1
 BYTE   W01
 BYTE   BnM2
 BYTE   W01
 BYTE   AnM2
 BYTE   W01
 BYTE   EnM2
 BYTE   W01
 BYTE   FsM2
 BYTE   W01
 BYTE   GnM2
 BYTE   W01
 BYTE   GsM2
 BYTE   W01
 BYTE   AnM2
 BYTE   W01
 BYTE   AsM2
 BYTE   W01
 BYTE   BnM2
 BYTE   W01
 BYTE   CnM1
 BYTE   W06
 BYTE   Cs0
 BYTE   N17  Dn1
 BYTE   N17  Fn1
 BYTE   W01
 BYTE   VOL   22*song35_mvl/mxv
 BYTE   W01
 BYTE   GsM1
 BYTE   W01
 BYTE   EnM1
 BYTE   W01
 BYTE   CnM1
 BYTE   W01
 BYTE   FsM2
 BYTE   W01
 BYTE   GsM2
 BYTE   W01
 BYTE   AsM2
 BYTE   W01
 BYTE   CnM1
 BYTE   W01
 BYTE   CsM1
 BYTE   W01
 BYTE   DsM1
 BYTE   W01
 BYTE   EnM1
 BYTE   W01
 BYTE   FnM1
 BYTE   W06
 BYTE   FsM1
 BYTE   N17  Dn1
 BYTE   N17  Fn1
 BYTE   W01
 BYTE   VOL   16*song35_mvl/mxv
 BYTE   W01
 BYTE   DnM1
 BYTE   W01
 BYTE   BnM2
 BYTE   W01
 BYTE   AnM2
 BYTE   W01
 BYTE   EnM2
 BYTE   W01
 BYTE   FsM2
 BYTE   W01
 BYTE   GnM2
 BYTE   W01
 BYTE   GsM2
 BYTE   W01
 BYTE   AnM2
 BYTE   W01
 BYTE   AsM2
 BYTE   W01
 BYTE   BnM2
 BYTE   W01
 BYTE   CnM1
 BYTE   W06
 BYTE   Cs0
 BYTE   N18  Dn1
 BYTE   N18  Fn1
 BYTE   W01
 BYTE   VOL   22*song35_mvl/mxv
 BYTE   W01
 BYTE   GsM1
 BYTE   W01
 BYTE   EnM1
 BYTE   W01
 BYTE   CnM1
 BYTE   W01
 BYTE   FsM2
 BYTE   W01
 BYTE   GsM2
 BYTE   W01
 BYTE   AsM2
 BYTE   W01
 BYTE   CnM1
 BYTE   W01
 BYTE   CsM1
 BYTE   W01
 BYTE   DsM1
 BYTE   W01
 BYTE   EnM1
 BYTE   W01
 BYTE   FnM1
 BYTE   W06
// 003   ----------------------------------------
 BYTE   FsM1
 BYTE   N17  Dn1
 BYTE   N17  Fn1
 BYTE   W01
 BYTE   VOL   16*song35_mvl/mxv
 BYTE   W01
 BYTE   DnM1
 BYTE   W01
 BYTE   BnM2
 BYTE   W01
 BYTE   AnM2
 BYTE   W01
 BYTE   EnM2
 BYTE   W01
 BYTE   FsM2
 BYTE   W01
 BYTE   GnM2
 BYTE   W01
 BYTE   GsM2
 BYTE   W01
 BYTE   AnM2
 BYTE   W01
 BYTE   AsM2
 BYTE   W01
 BYTE   BnM2
 BYTE   W01
 BYTE   CnM1
 BYTE   W06
 BYTE   Cs0
 BYTE   N17  Dn1
 BYTE   N17  Fn1
 BYTE   W01
 BYTE   VOL   22*song35_mvl/mxv
 BYTE   W01
 BYTE   GsM1
 BYTE   W01
 BYTE   EnM1
 BYTE   W01
 BYTE   CnM1
 BYTE   W01
 BYTE   FsM2
 BYTE   W01
 BYTE   GsM2
 BYTE   W01
 BYTE   AsM2
 BYTE   W01
 BYTE   CnM1
 BYTE   W01
 BYTE   CsM1
 BYTE   W01
 BYTE   DsM1
 BYTE   W01
 BYTE   EnM1
 BYTE   W01
 BYTE   FnM1
 BYTE   W06
 BYTE   FsM1
 BYTE   N17  Dn1
 BYTE   N17  Fn1
 BYTE   W01
 BYTE   VOL   16*song35_mvl/mxv
 BYTE   W01
 BYTE   DnM1
 BYTE   W01
 BYTE   BnM2
 BYTE   W01
 BYTE   AnM2
 BYTE   W01
 BYTE   EnM2
 BYTE   W01
 BYTE   FsM2
 BYTE   W01
 BYTE   GnM2
 BYTE   W01
 BYTE   GsM2
 BYTE   W01
 BYTE   AnM2
 BYTE   W01
 BYTE   AsM2
 BYTE   W01
 BYTE   BnM2
 BYTE   W01
 BYTE   CnM1
 BYTE   W06
 BYTE   Cs0
 BYTE   N17  Dn1
 BYTE   N17  Fn1
 BYTE   W01
 BYTE   VOL   22*song35_mvl/mxv
 BYTE   W01
 BYTE   GsM1
 BYTE   W01
 BYTE   EnM1
 BYTE   W01
 BYTE   CnM1
 BYTE   W01
 BYTE   FsM2
 BYTE   W01
 BYTE   GsM2
 BYTE   W01
 BYTE   AsM2
 BYTE   W01
 BYTE   CnM1
 BYTE   W01
 BYTE   CsM1
 BYTE   W01
 BYTE   DsM1
 BYTE   W01
 BYTE   EnM1
 BYTE   W01
 BYTE   FnM1
 BYTE   W06
 BYTE   FsM1
 BYTE   N18  Dn1
 BYTE   N18  Fn1
 BYTE   W01
 BYTE   VOL   16*song35_mvl/mxv
 BYTE   W01
 BYTE   DnM1
 BYTE   W01
 BYTE   BnM2
 BYTE   W01
 BYTE   AnM2
 BYTE   W01
 BYTE   EnM2
 BYTE   W01
 BYTE   FsM2
 BYTE   W01
 BYTE   GnM2
 BYTE   W01
 BYTE   GsM2
 BYTE   W01
 BYTE   AnM2
 BYTE   W01
 BYTE   AsM2
 BYTE   W01
 BYTE   BnM2
 BYTE   W01
 BYTE   CnM1
 BYTE   W06
 BYTE   Cs0
 BYTE   N17  Dn1
 BYTE   N17  Fn1
 BYTE   W01
 BYTE   VOL   22*song35_mvl/mxv
 BYTE   W01
 BYTE   GsM1
 BYTE   W01
 BYTE   EnM1
 BYTE   W01
 BYTE   CnM1
 BYTE   W01
 BYTE   FsM2
 BYTE   W01
// 004   ----------------------------------------
 BYTE   GsM2
 BYTE   W01
 BYTE   AsM2
 BYTE   W01
 BYTE   CnM1
 BYTE   W01
 BYTE   CsM1
 BYTE   W01
 BYTE   DsM1
 BYTE   W01
 BYTE   EnM1
 BYTE   W01
 BYTE   FnM1
 BYTE   W06
 BYTE   FsM1
 BYTE   N17  Dn1
 BYTE   N17  Fn1
 BYTE   W01
 BYTE   VOL   16*song35_mvl/mxv
 BYTE   W01
 BYTE   DnM1
 BYTE   W01
 BYTE   BnM2
 BYTE   W01
 BYTE   AnM2
 BYTE   W01
 BYTE   EnM2
 BYTE   W01
 BYTE   FsM2
 BYTE   W01
 BYTE   GnM2
 BYTE   W01
 BYTE   GsM2
 BYTE   W01
 BYTE   AnM2
 BYTE   W01
 BYTE   AsM2
 BYTE   W01
 BYTE   BnM2
 BYTE   W01
 BYTE   CnM1
 BYTE   W06
 BYTE   Cs0
 BYTE   N17  Dn1
 BYTE   N17  Fn1
 BYTE   W01
 BYTE   VOL   22*song35_mvl/mxv
 BYTE   W01
 BYTE   GsM1
 BYTE   W01
 BYTE   EnM1
 BYTE   W01
 BYTE   CnM1
 BYTE   W01
 BYTE   FsM2
 BYTE   W01
 BYTE   GsM2
 BYTE   W01
 BYTE   AsM2
 BYTE   W01
 BYTE   CnM1
 BYTE   W01
 BYTE   CsM1
 BYTE   W01
 BYTE   DsM1
 BYTE   W01
 BYTE   EnM1
 BYTE   W01
 BYTE   FnM1
 BYTE   W06
 BYTE   FsM1
 BYTE   N17  Dn1
 BYTE   N17  Fn1
 BYTE   W01
 BYTE   VOL   16*song35_mvl/mxv
 BYTE   W01
 BYTE   DnM1
 BYTE   W01
 BYTE   BnM2
 BYTE   W01
 BYTE   AnM2
 BYTE   W01
 BYTE   EnM2
 BYTE   W01
 BYTE   FsM2
 BYTE   W01
 BYTE   GnM2
 BYTE   W01
 BYTE   GsM2
 BYTE   W01
 BYTE   AnM2
 BYTE   W01
 BYTE   AsM2
 BYTE   W01
 BYTE   BnM2
 BYTE   W01
 BYTE   CnM1
 BYTE   W06
 BYTE   Cs0
 BYTE   N18  Dn1
 BYTE   N18  Fn1
 BYTE   W01
 BYTE   VOL   22*song35_mvl/mxv
 BYTE   W01
 BYTE   GsM1
 BYTE   W01
 BYTE   EnM1
 BYTE   W01
 BYTE   CnM1
 BYTE   W01
 BYTE   FsM2
 BYTE   W01
 BYTE   GsM2
 BYTE   W01
 BYTE   AsM2
 BYTE   W01
 BYTE   CnM1
 BYTE   W01
 BYTE   CsM1
 BYTE   W01
 BYTE   DsM1
 BYTE   W01
 BYTE   EnM1
 BYTE   W01
 BYTE   FnM1
 BYTE   W06
 BYTE   FsM1
 BYTE   N17  Dn1
 BYTE   N17  Fn1
 BYTE   W01
 BYTE   VOL   16*song35_mvl/mxv
 BYTE   W01
 BYTE   DnM1
 BYTE   W01
 BYTE   BnM2
 BYTE   W01
 BYTE   AnM2
 BYTE   W01
 BYTE   EnM2
 BYTE   W01
 BYTE   FsM2
 BYTE   W01
 BYTE   GnM2
 BYTE   W01
 BYTE   GsM2
 BYTE   W01
 BYTE   AnM2
 BYTE   W01
 BYTE   AsM2
 BYTE   W01
 BYTE   BnM2
 BYTE   W01
// 005   ----------------------------------------
 BYTE   CnM1
 BYTE   W06
 BYTE   Cs0
 BYTE   N17  Dn1
 BYTE   N17  Fn1
 BYTE   W01
 BYTE   VOL   22*song35_mvl/mxv
 BYTE   W01
 BYTE   GsM1
 BYTE   W01
 BYTE   EnM1
 BYTE   W01
 BYTE   CnM1
 BYTE   W01
 BYTE   FsM2
 BYTE   W01
 BYTE   GsM2
 BYTE   W01
 BYTE   AsM2
 BYTE   W01
 BYTE   CnM1
 BYTE   W01
 BYTE   CsM1
 BYTE   W01
 BYTE   DsM1
 BYTE   W01
 BYTE   EnM1
 BYTE   W01
 BYTE   FnM1
 BYTE   W06
 BYTE   FsM1
 BYTE   N18  Dn1
 BYTE   N18  Fn1
 BYTE   W01
 BYTE   VOL   16*song35_mvl/mxv
 BYTE   W01
 BYTE   DnM1
 BYTE   W01
 BYTE   BnM2
 BYTE   W01
 BYTE   AnM2
 BYTE   W01
 BYTE   EnM2
 BYTE   W01
 BYTE   FsM2
 BYTE   W01
 BYTE   GnM2
 BYTE   W01
 BYTE   GsM2
 BYTE   W01
 BYTE   AnM2
 BYTE   W01
 BYTE   AsM2
 BYTE   W01
 BYTE   BnM2
 BYTE   W01
 BYTE   CnM1
 BYTE   W06
 BYTE   Cs0
 BYTE   N17  Dn1
 BYTE   N17  Fn1
 BYTE   W01
 BYTE   VOL   22*song35_mvl/mxv
 BYTE   W01
 BYTE   GsM1
 BYTE   W01
 BYTE   EnM1
 BYTE   W01
 BYTE   CnM1
 BYTE   W01
 BYTE   FsM2
 BYTE   W01
 BYTE   GsM2
 BYTE   W01
 BYTE   AsM2
 BYTE   W01
 BYTE   CnM1
 BYTE   W01
 BYTE   CsM1
 BYTE   W01
 BYTE   DsM1
 BYTE   W01
 BYTE   EnM1
 BYTE   W01
 BYTE   FnM1
 BYTE   W06
 BYTE   FsM1
 BYTE   N17  Dn1
 BYTE   N17  Fn1
 BYTE   W01
 BYTE   VOL   16*song35_mvl/mxv
 BYTE   W01
 BYTE   DnM1
 BYTE   W01
 BYTE   BnM2
 BYTE   W01
 BYTE   AnM2
 BYTE   W01
 BYTE   EnM2
 BYTE   W01
 BYTE   FsM2
 BYTE   W01
 BYTE   GnM2
 BYTE   W01
 BYTE   GsM2
 BYTE   W01
 BYTE   AnM2
 BYTE   W01
 BYTE   AsM2
 BYTE   W01
 BYTE   BnM2
 BYTE   W01
 BYTE   CnM1
 BYTE   W06
 BYTE   Cs0
 BYTE   N17  Dn1
 BYTE   N17  Fn1
 BYTE   W01
 BYTE   VOL   22*song35_mvl/mxv
 BYTE   W01
 BYTE   GsM1
 BYTE   W01
 BYTE   EnM1
 BYTE   W01
 BYTE   CnM1
 BYTE   W01
 BYTE   FsM2
 BYTE   W01
 BYTE   GsM2
 BYTE   W01
 BYTE   AsM2
 BYTE   W01
 BYTE   CnM1
 BYTE   W01
 BYTE   CsM1
 BYTE   W01
 BYTE   DsM1
 BYTE   W01
 BYTE   EnM1
 BYTE   W01
 BYTE   FnM1
 BYTE   W06
// 006   ----------------------------------------
 BYTE   FsM1
 BYTE   N17  Dn1
 BYTE   N17  Fn1
 BYTE   W01
 BYTE   VOL   16*song35_mvl/mxv
 BYTE   W01
 BYTE   DnM1
 BYTE   W01
 BYTE   BnM2
 BYTE   W01
 BYTE   AnM2
 BYTE   W01
 BYTE   EnM2
 BYTE   W01
 BYTE   FsM2
 BYTE   W01
 BYTE   GnM2
 BYTE   W01
 BYTE   GsM2
 BYTE   W01
 BYTE   AnM2
 BYTE   W01
 BYTE   AsM2
 BYTE   W01
 BYTE   BnM2
 BYTE   W01
 BYTE   CnM1
 BYTE   W06
 BYTE   Cs0
 BYTE   N18  Dn1
 BYTE   N18  Fn1
 BYTE   W01
 BYTE   VOL   22*song35_mvl/mxv
 BYTE   W01
 BYTE   GsM1
 BYTE   W01
 BYTE   EnM1
 BYTE   W01
 BYTE   CnM1
 BYTE   W01
 BYTE   FsM2
 BYTE   W01
 BYTE   GsM2
 BYTE   W01
 BYTE   AsM2
 BYTE   W01
 BYTE   CnM1
 BYTE   W01
 BYTE   CsM1
 BYTE   W01
 BYTE   DsM1
 BYTE   W01
 BYTE   EnM1
 BYTE   W01
 BYTE   FnM1
 BYTE   W06
 BYTE   FsM1
 BYTE   N17  Dn1
 BYTE   N17  Fn1
 BYTE   W01
 BYTE   VOL   16*song35_mvl/mxv
 BYTE   W01
 BYTE   DnM1
 BYTE   W01
 BYTE   BnM2
 BYTE   W01
 BYTE   AnM2
 BYTE   W01
 BYTE   EnM2
 BYTE   W01
 BYTE   FsM2
 BYTE   W01
 BYTE   GnM2
 BYTE   W01
 BYTE   GsM2
 BYTE   W01
 BYTE   AnM2
 BYTE   W01
 BYTE   AsM2
 BYTE   W01
 BYTE   BnM2
 BYTE   W01
 BYTE   CnM1
 BYTE   W06
 BYTE   Cs0
 BYTE   N17  Dn1
 BYTE   N17  Fn1
 BYTE   W01
 BYTE   VOL   22*song35_mvl/mxv
 BYTE   W01
 BYTE   GsM1
 BYTE   W01
 BYTE   EnM1
 BYTE   W01
 BYTE   CnM1
 BYTE   W01
 BYTE   FsM2
 BYTE   W01
 BYTE   GsM2
 BYTE   W01
 BYTE   AsM2
 BYTE   W01
 BYTE   CnM1
 BYTE   W01
 BYTE   CsM1
 BYTE   W01
 BYTE   DsM1
 BYTE   W01
 BYTE   EnM1
 BYTE   W01
 BYTE   FnM1
 BYTE   W06
 BYTE   FsM1
 BYTE   N17  Dn1
 BYTE   N17  Fn1
 BYTE   W01
 BYTE   VOL   16*song35_mvl/mxv
 BYTE   W01
 BYTE   DnM1
 BYTE   W01
 BYTE   BnM2
 BYTE   W01
 BYTE   AnM2
 BYTE   W01
 BYTE   EnM2
 BYTE   W01
 BYTE   FsM2
 BYTE   W01
 BYTE   GnM2
 BYTE   W01
 BYTE   GsM2
 BYTE   W01
 BYTE   AnM2
 BYTE   W01
 BYTE   AsM2
 BYTE   W01
 BYTE   BnM2
 BYTE   W01
 BYTE   CnM1
 BYTE   W06
 BYTE   Cs0
 BYTE   N17  Dn1
 BYTE   N17  Fn1
 BYTE   W01
 BYTE   VOL   22*song35_mvl/mxv
 BYTE   W01
 BYTE   GsM1
 BYTE   W01
 BYTE   EnM1
 BYTE   W01
 BYTE   CnM1
 BYTE   W01
 BYTE   FsM2
 BYTE   W01
// 007   ----------------------------------------
 BYTE   GsM2
 BYTE   W01
 BYTE   AsM2
 BYTE   W01
 BYTE   CnM1
 BYTE   W01
 BYTE   CsM1
 BYTE   W01
 BYTE   DsM1
 BYTE   W01
 BYTE   EnM1
 BYTE   W01
 BYTE   FnM1
 BYTE   W06
 BYTE   FsM1
 BYTE   N18  Dn1
 BYTE   N18  Fn1
 BYTE   W01
 BYTE   VOL   16*song35_mvl/mxv
 BYTE   W01
 BYTE   DnM1
 BYTE   W01
 BYTE   BnM2
 BYTE   W01
 BYTE   AnM2
 BYTE   W01
 BYTE   EnM2
 BYTE   W01
 BYTE   FsM2
 BYTE   W01
 BYTE   GnM2
 BYTE   W01
 BYTE   GsM2
 BYTE   W01
 BYTE   AnM2
 BYTE   W01
 BYTE   AsM2
 BYTE   W01
 BYTE   BnM2
 BYTE   W01
 BYTE   CnM1
 BYTE   W06
 BYTE   Cs0
 BYTE   N17  Dn1
 BYTE   N17  Fn1
 BYTE   W01
 BYTE   VOL   22*song35_mvl/mxv
 BYTE   W01
 BYTE   GsM1
 BYTE   W01
 BYTE   EnM1
 BYTE   W01
 BYTE   CnM1
 BYTE   W01
 BYTE   FsM2
 BYTE   W01
 BYTE   GsM2
 BYTE   W01
 BYTE   AsM2
 BYTE   W01
 BYTE   CnM1
 BYTE   W01
 BYTE   CsM1
 BYTE   W01
 BYTE   DsM1
 BYTE   W01
 BYTE   EnM1
 BYTE   W01
 BYTE   FnM1
 BYTE   W06
 BYTE   FsM1
 BYTE   N17  Dn1
 BYTE   N17  Fn1
 BYTE   W01
 BYTE   VOL   16*song35_mvl/mxv
 BYTE   W01
 BYTE   DnM1
 BYTE   W01
 BYTE   BnM2
 BYTE   W01
 BYTE   AnM2
 BYTE   W01
 BYTE   EnM2
 BYTE   W01
 BYTE   FsM2
 BYTE   W01
 BYTE   GnM2
 BYTE   W01
 BYTE   GsM2
 BYTE   W01
 BYTE   AnM2
 BYTE   W01
 BYTE   AsM2
 BYTE   W01
 BYTE   BnM2
 BYTE   W01
 BYTE   CnM1
 BYTE   W06
 BYTE   Cs0
 BYTE   N18  Dn1
 BYTE   N18  Fn1
 BYTE   W01
 BYTE   VOL   22*song35_mvl/mxv
 BYTE   W01
 BYTE   GsM1
 BYTE   W01
 BYTE   EnM1
 BYTE   W01
 BYTE   CnM1
 BYTE   W01
 BYTE   FsM2
 BYTE   W01
 BYTE   GsM2
 BYTE   W01
 BYTE   AsM2
 BYTE   W01
 BYTE   CnM1
 BYTE   W01
 BYTE   CsM1
 BYTE   W01
 BYTE   DsM1
 BYTE   W01
 BYTE   EnM1
 BYTE   W01
 BYTE   FnM1
 BYTE   W06
 BYTE   FsM1
 BYTE   N17  Dn1
 BYTE   N17  Fn1
 BYTE   W01
 BYTE   VOL   16*song35_mvl/mxv
 BYTE   W01
 BYTE   DnM1
 BYTE   W01
 BYTE   BnM2
 BYTE   W01
 BYTE   AnM2
 BYTE   W01
 BYTE   EnM2
 BYTE   W01
 BYTE   FsM2
 BYTE   W01
 BYTE   GnM2
 BYTE   W01
 BYTE   GsM2
 BYTE   W01
 BYTE   AnM2
 BYTE   W01
 BYTE   AsM2
 BYTE   W01
 BYTE   BnM2
 BYTE   W01
// 008   ----------------------------------------
 BYTE   CnM1
 BYTE   W06
 BYTE   Cs0
 BYTE   N17  Dn1
 BYTE   N17  Fn1
 BYTE   W01
 BYTE   VOL   22*song35_mvl/mxv
 BYTE   W01
 BYTE   GsM1
 BYTE   W01
 BYTE   EnM1
 BYTE   W01
 BYTE   CnM1
 BYTE   W01
 BYTE   FsM2
 BYTE   W01
 BYTE   GsM2
 BYTE   W01
 BYTE   AsM2
 BYTE   W01
 BYTE   CnM1
 BYTE   W01
 BYTE   CsM1
 BYTE   W01
 BYTE   DsM1
 BYTE   W01
 BYTE   EnM1
 BYTE   W01
 BYTE   FnM1
 BYTE   W06
 BYTE   FsM1
 BYTE   N17  Dn1
 BYTE   N17  Fn1
 BYTE   W01
 BYTE   VOL   16*song35_mvl/mxv
 BYTE   W01
 BYTE   DnM1
 BYTE   W01
 BYTE   BnM2
 BYTE   W01
 BYTE   AnM2
 BYTE   W01
 BYTE   EnM2
 BYTE   W01
 BYTE   FsM2
 BYTE   W01
 BYTE   GnM2
 BYTE   W01
 BYTE   GsM2
 BYTE   W01
 BYTE   AnM2
 BYTE   W01
 BYTE   AsM2
 BYTE   W01
 BYTE   BnM2
 BYTE   W01
 BYTE   CnM1
 BYTE   W06
 BYTE   Cs0
 BYTE   N17  Dn1
 BYTE   N17  Fn1
 BYTE   W01
 BYTE   VOL   22*song35_mvl/mxv
 BYTE   W01
 BYTE   GsM1
 BYTE   W01
 BYTE   EnM1
 BYTE   W01
 BYTE   CnM1
 BYTE   W01
 BYTE   FsM2
 BYTE   W01
 BYTE   GsM2
 BYTE   W01
 BYTE   AsM2
 BYTE   W01
 BYTE   CnM1
 BYTE   W01
 BYTE   CsM1
 BYTE   W01
 BYTE   DsM1
 BYTE   W01
 BYTE   EnM1
 BYTE   W01
 BYTE   FnM1
 BYTE   W06
 BYTE   FsM1
 BYTE   N18  Dn1
 BYTE   N18  Fn1
 BYTE   W01
 BYTE   VOL   16*song35_mvl/mxv
 BYTE   W01
 BYTE   DnM1
 BYTE   W01
 BYTE   BnM2
 BYTE   W01
 BYTE   AnM2
 BYTE   W01
 BYTE   EnM2
 BYTE   W01
 BYTE   FsM2
 BYTE   W01
 BYTE   GnM2
 BYTE   W01
 BYTE   GsM2
 BYTE   W01
 BYTE   AnM2
 BYTE   W01
 BYTE   AsM2
 BYTE   W01
 BYTE   BnM2
 BYTE   W01
 BYTE   CnM1
 BYTE   W06
 BYTE   Cs0
 BYTE   N17  Dn1
 BYTE   N17  Fn1
 BYTE   W01
 BYTE   VOL   22*song35_mvl/mxv
 BYTE   W01
 BYTE   GsM1
 BYTE   W01
 BYTE   EnM1
 BYTE   W01
 BYTE   CnM1
 BYTE   W01
 BYTE   FsM2
 BYTE   W01
 BYTE   GsM2
 BYTE   W01
 BYTE   AsM2
 BYTE   W01
 BYTE   CnM1
 BYTE   W01
 BYTE   CsM1
 BYTE   W01
 BYTE   DsM1
 BYTE   W01
 BYTE   EnM1
 BYTE   W01
 BYTE   FnM1
 BYTE   W06
// 009   ----------------------------------------
 BYTE   FsM1
 BYTE   N17  Dn1
 BYTE   N17  Fn1
 BYTE   W01
 BYTE   VOL   16*song35_mvl/mxv
 BYTE   W01
 BYTE   DnM1
 BYTE   W01
 BYTE   BnM2
 BYTE   W01
 BYTE   AnM2
 BYTE   W01
 BYTE   EnM2
 BYTE   W01
 BYTE   FsM2
 BYTE   W01
 BYTE   GnM2
 BYTE   W01
 BYTE   GsM2
 BYTE   W01
 BYTE   AnM2
 BYTE   W01
 BYTE   AsM2
 BYTE   W01
 BYTE   BnM2
 BYTE   W01
 BYTE   CnM1
 BYTE   W06
 BYTE   Cs0
 BYTE   N17  Dn1
 BYTE   N17  Fn1
 BYTE   W01
 BYTE   VOL   22*song35_mvl/mxv
 BYTE   W01
 BYTE   GsM1
 BYTE   W01
 BYTE   EnM1
 BYTE   W01
 BYTE   CnM1
 BYTE   W01
 BYTE   FsM2
 BYTE   W01
 BYTE   GsM2
 BYTE   W01
 BYTE   AsM2
 BYTE   W01
 BYTE   CnM1
 BYTE   W01
 BYTE   CsM1
 BYTE   W01
 BYTE   DsM1
 BYTE   W01
 BYTE   EnM1
 BYTE   W01
 BYTE   FnM1
 BYTE   W06
 BYTE   FsM1
 BYTE   N17  Dn1
 BYTE   N17  Fn1
 BYTE   W01
 BYTE   VOL   16*song35_mvl/mxv
 BYTE   W01
 BYTE   DnM1
 BYTE   W01
 BYTE   BnM2
 BYTE   W01
 BYTE   AnM2
 BYTE   W01
 BYTE   EnM2
 BYTE   W01
 BYTE   FsM2
 BYTE   W01
 BYTE   GnM2
 BYTE   W01
 BYTE   GsM2
 BYTE   W01
 BYTE   AnM2
 BYTE   W01
 BYTE   AsM2
 BYTE   W01
 BYTE   BnM2
 BYTE   W01
 BYTE   CnM1
 BYTE   W06
 BYTE   Cs0
 BYTE   N18  Dn1
 BYTE   N18  Fn1
 BYTE   W01
 BYTE   VOL   22*song35_mvl/mxv
 BYTE   W01
 BYTE   GsM1
 BYTE   W01
 BYTE   EnM1
 BYTE   W01
 BYTE   CnM1
 BYTE   W01
 BYTE   FsM2
 BYTE   W01
 BYTE   GsM2
 BYTE   W01
 BYTE   AsM2
 BYTE   W01
 BYTE   CnM1
 BYTE   W01
 BYTE   CsM1
 BYTE   W01
 BYTE   DsM1
 BYTE   W01
 BYTE   EnM1
 BYTE   W01
 BYTE   FnM1
 BYTE   W06
 BYTE   FsM1
 BYTE   N17  Dn1
 BYTE   N17  Fn1
 BYTE   W01
 BYTE   VOL   16*song35_mvl/mxv
 BYTE   W01
 BYTE   DnM1
 BYTE   W01
 BYTE   BnM2
 BYTE   W01
 BYTE   AnM2
 BYTE   W01
 BYTE   EnM2
 BYTE   W01
 BYTE   FsM2
 BYTE   W01
 BYTE   GnM2
 BYTE   W01
 BYTE   GsM2
 BYTE   W01
 BYTE   AnM2
 BYTE   W01
 BYTE   AsM2
 BYTE   W01
 BYTE   BnM2
 BYTE   W01
 BYTE   CnM1
 BYTE   W06
 BYTE   Cs0
 BYTE   N17  Dn1
 BYTE   N17  Fn1
 BYTE   W01
 BYTE   VOL   22*song35_mvl/mxv
 BYTE   W01
 BYTE   GsM1
 BYTE   W01
 BYTE   EnM1
 BYTE   W01
 BYTE   CnM1
 BYTE   W01
 BYTE   FsM2
 BYTE   W01
// 010   ----------------------------------------
 BYTE   GsM2
 BYTE   W01
 BYTE   AsM2
 BYTE   W01
 BYTE   CnM1
 BYTE   W01
 BYTE   CsM1
 BYTE   W01
 BYTE   DsM1
 BYTE   W01
 BYTE   EnM1
 BYTE   W01
 BYTE   FnM1
 BYTE   W06
 BYTE   FsM1
 BYTE   N18  Dn1
 BYTE   N18  Fn1
 BYTE   W01
 BYTE   VOL   16*song35_mvl/mxv
 BYTE   W01
 BYTE   DnM1
 BYTE   W01
 BYTE   BnM2
 BYTE   W01
 BYTE   AnM2
 BYTE   W01
 BYTE   EnM2
 BYTE   W01
 BYTE   FsM2
 BYTE   W01
 BYTE   GnM2
 BYTE   W01
 BYTE   GsM2
 BYTE   W01
 BYTE   AnM2
 BYTE   W01
 BYTE   AsM2
 BYTE   W01
 BYTE   BnM2
 BYTE   W01
 BYTE   CnM1
 BYTE   W06
 BYTE   Cs0
 BYTE   N17  Dn1
 BYTE   N17  Fn1
 BYTE   W01
 BYTE   VOL   22*song35_mvl/mxv
 BYTE   W01
 BYTE   GsM1
 BYTE   W01
 BYTE   EnM1
 BYTE   W01
 BYTE   CnM1
 BYTE   W01
 BYTE   FsM2
 BYTE   W01
 BYTE   GsM2
 BYTE   W01
 BYTE   AsM2
 BYTE   W01
 BYTE   CnM1
 BYTE   W01
 BYTE   CsM1
 BYTE   W01
 BYTE   DsM1
 BYTE   W01
 BYTE   EnM1
 BYTE   W01
 BYTE   FnM1
 BYTE   W06
 BYTE   FsM1
 BYTE   N17  Dn1
 BYTE   N17  Fn1
 BYTE   W01
 BYTE   VOL   16*song35_mvl/mxv
 BYTE   W01
 BYTE   DnM1
 BYTE   W01
 BYTE   BnM2
 BYTE   W01
 BYTE   AnM2
 BYTE   W01
 BYTE   EnM2
 BYTE   W01
 BYTE   FsM2
 BYTE   W01
 BYTE   GnM2
 BYTE   W01
 BYTE   GsM2
 BYTE   W01
 BYTE   AnM2
 BYTE   W01
 BYTE   AsM2
 BYTE   W01
 BYTE   BnM2
 BYTE   W01
 BYTE   CnM1
 BYTE   W06
 BYTE   Cs0
 BYTE   N17  Dn1
 BYTE   N17  Fn1
 BYTE   W01
 BYTE   VOL   22*song35_mvl/mxv
 BYTE   W01
 BYTE   GsM1
 BYTE   W01
 BYTE   EnM1
 BYTE   W01
 BYTE   CnM1
 BYTE   W01
 BYTE   FsM2
 BYTE   W01
 BYTE   GsM2
 BYTE   W01
 BYTE   AsM2
 BYTE   W01
 BYTE   CnM1
 BYTE   W01
 BYTE   CsM1
 BYTE   W01
 BYTE   DsM1
 BYTE   W01
 BYTE   EnM1
 BYTE   W01
 BYTE   FnM1
 BYTE   W06
 BYTE   FsM1
 BYTE   N17  Dn1
 BYTE   N17  Fn1
 BYTE   W01
 BYTE   VOL   16*song35_mvl/mxv
 BYTE   W01
 BYTE   DnM1
 BYTE   W01
 BYTE   BnM2
 BYTE   W01
 BYTE   AnM2
 BYTE   W01
 BYTE   EnM2
 BYTE   W01
 BYTE   FsM2
 BYTE   W01
 BYTE   GnM2
 BYTE   W01
 BYTE   GsM2
 BYTE   W01
 BYTE   AnM2
 BYTE   W01
 BYTE   AsM2
 BYTE   W01
 BYTE   BnM2
 BYTE   W01
// 011   ----------------------------------------
 BYTE   CnM1
 BYTE   W06
 BYTE   Cs0
 BYTE   N18  Dn1
 BYTE   N18  Fn1
 BYTE   W01
 BYTE   VOL   22*song35_mvl/mxv
 BYTE   W01
 BYTE   GsM1
 BYTE   W01
 BYTE   EnM1
 BYTE   W01
 BYTE   CnM1
 BYTE   W01
 BYTE   FsM2
 BYTE   W01
 BYTE   GsM2
 BYTE   W01
 BYTE   AsM2
 BYTE   W01
 BYTE   CnM1
 BYTE   W01
 BYTE   CsM1
 BYTE   W01
 BYTE   DsM1
 BYTE   W01
 BYTE   EnM1
 BYTE   W01
 BYTE   FnM1
 BYTE   W06
 BYTE   FsM1
 BYTE   N17  Dn1
 BYTE   N17  Fn1
 BYTE   W01
 BYTE   VOL   16*song35_mvl/mxv
 BYTE   W01
 BYTE   DnM1
 BYTE   W01
 BYTE   BnM2
 BYTE   W01
 BYTE   AnM2
 BYTE   W01
 BYTE   EnM2
 BYTE   W01
 BYTE   FsM2
 BYTE   W01
 BYTE   GnM2
 BYTE   W01
 BYTE   GsM2
 BYTE   W01
 BYTE   AnM2
 BYTE   W01
 BYTE   AsM2
 BYTE   W01
 BYTE   BnM2
 BYTE   W01
 BYTE   CnM1
 BYTE   W06
 BYTE   Cs0
 BYTE   N17  Dn1
 BYTE   N17  Fn1
 BYTE   W01
 BYTE   VOL   22*song35_mvl/mxv
 BYTE   W01
 BYTE   GsM1
 BYTE   W01
 BYTE   EnM1
 BYTE   W01
 BYTE   CnM1
 BYTE   W01
 BYTE   FsM2
 BYTE   W01
 BYTE   GsM2
 BYTE   W01
 BYTE   AsM2
 BYTE   W01
 BYTE   CnM1
 BYTE   W01
 BYTE   CsM1
 BYTE   W01
 BYTE   DsM1
 BYTE   W01
 BYTE   EnM1
 BYTE   W01
 BYTE   FnM1
 BYTE   W06
 BYTE   FsM1
 BYTE   N17  Dn1
 BYTE   N17  Fn1
 BYTE   W01
 BYTE   VOL   16*song35_mvl/mxv
 BYTE   W01
 BYTE   DnM1
 BYTE   W01
 BYTE   BnM2
 BYTE   W01
 BYTE   AnM2
 BYTE   W01
 BYTE   EnM2
 BYTE   W01
 BYTE   FsM2
 BYTE   W01
 BYTE   GnM2
 BYTE   W01
 BYTE   GsM2
 BYTE   W01
 BYTE   AnM2
 BYTE   W01
 BYTE   AsM2
 BYTE   W01
 BYTE   BnM2
 BYTE   W01
 BYTE   CnM1
 BYTE   W06
 BYTE   Cs0
 BYTE   N17  Dn1
 BYTE   N17  Fn1
 BYTE   W01
 BYTE   VOL   22*song35_mvl/mxv
 BYTE   W01
 BYTE   GsM1
 BYTE   W01
 BYTE   EnM1
 BYTE   W01
 BYTE   CnM1
 BYTE   W01
 BYTE   FsM2
 BYTE   W01
 BYTE   GsM2
 BYTE   W01
 BYTE   AsM2
 BYTE   W01
 BYTE   CnM1
 BYTE   W01
 BYTE   CsM1
 BYTE   W01
 BYTE   DsM1
 BYTE   W01
 BYTE   EnM1
 BYTE   W01
 BYTE   FnM1
 BYTE   W06
// 012   ----------------------------------------
 BYTE   FsM1
 BYTE   N18  Dn1
 BYTE   N18  Fn1
 BYTE   W01
 BYTE   VOL   16*song35_mvl/mxv
 BYTE   W01
 BYTE   DnM1
 BYTE   W01
 BYTE   BnM2
 BYTE   W01
 BYTE   AnM2
 BYTE   W01
 BYTE   EnM2
 BYTE   W01
 BYTE   FsM2
 BYTE   W01
 BYTE   GnM2
 BYTE   W01
 BYTE   GsM2
 BYTE   W01
 BYTE   AnM2
 BYTE   W01
 BYTE   AsM2
 BYTE   W01
 BYTE   BnM2
 BYTE   W01
 BYTE   CnM1
 BYTE   W06
 BYTE   Cs0
 BYTE   N17  Dn1
 BYTE   N17  Fn1
 BYTE   W01
 BYTE   VOL   22*song35_mvl/mxv
 BYTE   W01
 BYTE   GsM1
 BYTE   W01
 BYTE   EnM1
 BYTE   W01
 BYTE   CnM1
 BYTE   W01
 BYTE   FsM2
 BYTE   W01
 BYTE   GsM2
 BYTE   W01
 BYTE   AsM2
 BYTE   W01
 BYTE   CnM1
 BYTE   W01
 BYTE   CsM1
 BYTE   W01
 BYTE   DsM1
 BYTE   W01
 BYTE   EnM1
 BYTE   W01
 BYTE   FnM1
 BYTE   W06
 BYTE   FsM1
 BYTE   N17  Dn1
 BYTE   N17  Fn1
 BYTE   W01
 BYTE   VOL   16*song35_mvl/mxv
 BYTE   W01
 BYTE   DnM1
 BYTE   W01
 BYTE   BnM2
 BYTE   W01
 BYTE   AnM2
 BYTE   W01
 BYTE   EnM2
 BYTE   W01
 BYTE   FsM2
 BYTE   W01
 BYTE   GnM2
 BYTE   W01
 BYTE   GsM2
 BYTE   W01
 BYTE   AnM2
 BYTE   W01
 BYTE   AsM2
 BYTE   W01
 BYTE   BnM2
 BYTE   W01
 BYTE   CnM1
 BYTE   W06
 BYTE   Cs0
 BYTE   N18  Dn1
 BYTE   N18  Fn1
 BYTE   W01
 BYTE   VOL   22*song35_mvl/mxv
 BYTE   W01
 BYTE   GsM1
 BYTE   W01
 BYTE   EnM1
 BYTE   W01
 BYTE   CnM1
 BYTE   W01
 BYTE   FsM2
 BYTE   W01
 BYTE   GsM2
 BYTE   W01
 BYTE   AsM2
 BYTE   W01
 BYTE   CnM1
 BYTE   W01
 BYTE   CsM1
 BYTE   W01
 BYTE   DsM1
 BYTE   W01
 BYTE   EnM1
 BYTE   W01
 BYTE   FnM1
 BYTE   W06
 BYTE   FsM1
 BYTE   N17  Dn1
 BYTE   N17  Fn1
 BYTE   W01
 BYTE   VOL   16*song35_mvl/mxv
 BYTE   W01
 BYTE   DnM1
 BYTE   W01
 BYTE   BnM2
 BYTE   W01
 BYTE   AnM2
 BYTE   W01
 BYTE   EnM2
 BYTE   W01
 BYTE   FsM2
 BYTE   W01
 BYTE   GnM2
 BYTE   W01
 BYTE   GsM2
 BYTE   W01
 BYTE   AnM2
 BYTE   W01
 BYTE   AsM2
 BYTE   W01
 BYTE   BnM2
 BYTE   W01
 BYTE   CnM1
 BYTE   W06
 BYTE   Cs0
 BYTE   N17  Dn1
 BYTE   N17  Fn1
 BYTE   W01
 BYTE   VOL   22*song35_mvl/mxv
 BYTE   W01
 BYTE   GsM1
 BYTE   W01
 BYTE   EnM1
 BYTE   W01
 BYTE   CnM1
 BYTE   W01
 BYTE   FsM2
 BYTE   W01
// 013   ----------------------------------------
 BYTE   GsM2
 BYTE   W01
 BYTE   AsM2
 BYTE   W01
 BYTE   CnM1
 BYTE   W01
 BYTE   CsM1
 BYTE   W01
 BYTE   DsM1
 BYTE   W01
 BYTE   EnM1
 BYTE   W01
 BYTE   FnM1
 BYTE   W06
 BYTE   FsM1
 BYTE   N17  Dn1
 BYTE   N17  Fn1
 BYTE   W01
 BYTE   VOL   16*song35_mvl/mxv
 BYTE   W01
 BYTE   DnM1
 BYTE   W01
 BYTE   BnM2
 BYTE   W01
 BYTE   AnM2
 BYTE   W01
 BYTE   EnM2
 BYTE   W01
 BYTE   FsM2
 BYTE   W01
 BYTE   GnM2
 BYTE   W01
 BYTE   GsM2
 BYTE   W01
 BYTE   AnM2
 BYTE   W01
 BYTE   AsM2
 BYTE   W01
 BYTE   BnM2
 BYTE   W01
 BYTE   CnM1
 BYTE   W06
 BYTE   Cs0
 BYTE   N17  Dn1
 BYTE   N17  Fn1
 BYTE   W01
 BYTE   VOL   22*song35_mvl/mxv
 BYTE   W01
 BYTE   GsM1
 BYTE   W01
 BYTE   EnM1
 BYTE   W01
 BYTE   CnM1
 BYTE   W01
 BYTE   FsM2
 BYTE   W01
 BYTE   GsM2
 BYTE   W01
 BYTE   AsM2
 BYTE   W01
 BYTE   CnM1
 BYTE   W01
 BYTE   CsM1
 BYTE   W01
 BYTE   DsM1
 BYTE   W01
 BYTE   EnM1
 BYTE   W01
 BYTE   FnM1
 BYTE   W06
 BYTE   FsM1
 BYTE   N18  Dn1
 BYTE   N18  Fn1
 BYTE   W01
 BYTE   VOL   16*song35_mvl/mxv
 BYTE   W01
 BYTE   DnM1
 BYTE   W01
 BYTE   BnM2
 BYTE   W01
 BYTE   AnM2
 BYTE   W01
 BYTE   EnM2
 BYTE   W01
 BYTE   FsM2
 BYTE   W01
 BYTE   GnM2
 BYTE   W01
 BYTE   GsM2
 BYTE   W01
 BYTE   AnM2
 BYTE   W01
 BYTE   AsM2
 BYTE   W01
 BYTE   BnM2
 BYTE   W01
 BYTE   CnM1
 BYTE   W06
 BYTE   Cs0
 BYTE   N17  Dn1
 BYTE   N17  Fn1
 BYTE   W01
 BYTE   VOL   22*song35_mvl/mxv
 BYTE   W01
 BYTE   GsM1
 BYTE   W01
 BYTE   EnM1
 BYTE   W01
 BYTE   CnM1
 BYTE   W01
 BYTE   FsM2
 BYTE   W01
 BYTE   GsM2
 BYTE   W01
 BYTE   AsM2
 BYTE   W01
 BYTE   CnM1
 BYTE   W01
 BYTE   CsM1
 BYTE   W01
 BYTE   DsM1
 BYTE   W01
 BYTE   EnM1
 BYTE   W01
 BYTE   FnM1
 BYTE   W06
 BYTE   FsM1
 BYTE   N17  Dn1
 BYTE   N17  Fn1
 BYTE   W01
 BYTE   VOL   16*song35_mvl/mxv
 BYTE   W01
 BYTE   DnM1
 BYTE   W01
 BYTE   BnM2
 BYTE   W01
 BYTE   AnM2
 BYTE   W01
 BYTE   EnM2
 BYTE   W01
 BYTE   FsM2
 BYTE   W01
 BYTE   GnM2
 BYTE   W01
 BYTE   GsM2
 BYTE   W01
 BYTE   AnM2
 BYTE   W01
 BYTE   AsM2
 BYTE   W01
 BYTE   BnM2
 BYTE   W01
// 014   ----------------------------------------
 BYTE   CnM1
 BYTE   W06
 BYTE   Cs0
 BYTE   N17  Dn1
 BYTE   N17  Fn1
 BYTE   W01
 BYTE   VOL   22*song35_mvl/mxv
 BYTE   W01
 BYTE   GsM1
 BYTE   W01
 BYTE   EnM1
 BYTE   W01
 BYTE   CnM1
 BYTE   W01
 BYTE   FsM2
 BYTE   W01
 BYTE   GsM2
 BYTE   W01
 BYTE   AsM2
 BYTE   W01
 BYTE   CnM1
 BYTE   W01
 BYTE   CsM1
 BYTE   W01
 BYTE   DsM1
 BYTE   W01
 BYTE   EnM1
 BYTE   W01
 BYTE   FnM1
 BYTE   W06
 BYTE   FsM1
 BYTE   N17  Dn1
 BYTE   N17  Fn1
 BYTE   W01
 BYTE   VOL   16*song35_mvl/mxv
 BYTE   W01
 BYTE   DnM1
 BYTE   W01
 BYTE   BnM2
 BYTE   W01
 BYTE   AnM2
 BYTE   W01
 BYTE   EnM2
 BYTE   W01
 BYTE   FsM2
 BYTE   W01
 BYTE   GnM2
 BYTE   W01
 BYTE   GsM2
 BYTE   W01
 BYTE   AnM2
 BYTE   W01
 BYTE   AsM2
 BYTE   W01
 BYTE   BnM2
 BYTE   W01
 BYTE   CnM1
 BYTE   W06
 BYTE   Cs0
 BYTE   N18  Dn1
 BYTE   N18  Fn1
 BYTE   W01
 BYTE   VOL   22*song35_mvl/mxv
 BYTE   W01
 BYTE   GsM1
 BYTE   W01
 BYTE   EnM1
 BYTE   W01
 BYTE   CnM1
 BYTE   W01
 BYTE   FsM2
 BYTE   W01
 BYTE   GsM2
 BYTE   W01
 BYTE   AsM2
 BYTE   W01
 BYTE   CnM1
 BYTE   W01
 BYTE   CsM1
 BYTE   W01
 BYTE   DsM1
 BYTE   W01
 BYTE   EnM1
 BYTE   W01
 BYTE   FnM1
 BYTE   W06
 BYTE   FsM1
 BYTE   N17  Dn1
 BYTE   N17  Fn1
 BYTE   W01
 BYTE   VOL   16*song35_mvl/mxv
 BYTE   W01
 BYTE   DnM1
 BYTE   W01
 BYTE   BnM2
 BYTE   W01
 BYTE   AnM2
 BYTE   W01
 BYTE   EnM2
 BYTE   W01
 BYTE   FsM2
 BYTE   W01
 BYTE   GnM2
 BYTE   W01
 BYTE   GsM2
 BYTE   W01
 BYTE   AnM2
 BYTE   W01
 BYTE   AsM2
 BYTE   W01
 BYTE   BnM2
 BYTE   W01
 BYTE   CnM1
 BYTE   W06
 BYTE   Cs0
 BYTE   N17  Dn1
 BYTE   N17  Fn1
 BYTE   W01
 BYTE   VOL   22*song35_mvl/mxv
 BYTE   W01
 BYTE   GsM1
 BYTE   W01
 BYTE   EnM1
 BYTE   W01
 BYTE   CnM1
 BYTE   W01
 BYTE   FsM2
 BYTE   W01
 BYTE   GsM2
 BYTE   W01
 BYTE   AsM2
 BYTE   W01
 BYTE   CnM1
 BYTE   W01
 BYTE   CsM1
 BYTE   W01
 BYTE   DsM1
 BYTE   W01
 BYTE   EnM1
 BYTE   W01
 BYTE   FnM1
 BYTE   W06
// 015   ----------------------------------------
 BYTE   FsM1
 BYTE   N18  Dn1
 BYTE   N18  Fn1
 BYTE   W01
 BYTE   VOL   16*song35_mvl/mxv
 BYTE   W01
 BYTE   DnM1
 BYTE   W01
 BYTE   BnM2
 BYTE   W01
 BYTE   AnM2
 BYTE   W01
 BYTE   EnM2
 BYTE   W01
 BYTE   FsM2
 BYTE   W01
 BYTE   GnM2
 BYTE   W01
 BYTE   GsM2
 BYTE   W01
 BYTE   AnM2
 BYTE   W01
 BYTE   AsM2
 BYTE   W01
 BYTE   BnM2
 BYTE   W01
 BYTE   CnM1
 BYTE   W06
 BYTE   Cs0
 BYTE   N17  Dn1
 BYTE   N17  Fn1
 BYTE   W01
 BYTE   VOL   22*song35_mvl/mxv
 BYTE   W01
 BYTE   GsM1
 BYTE   W01
 BYTE   EnM1
 BYTE   W01
 BYTE   CnM1
 BYTE   W01
 BYTE   FsM2
 BYTE   W01
 BYTE   GsM2
 BYTE   W01
 BYTE   AsM2
 BYTE   W01
 BYTE   CnM1
 BYTE   W01
 BYTE   CsM1
 BYTE   W01
 BYTE   DsM1
 BYTE   W01
 BYTE   EnM1
 BYTE   W01
 BYTE   FnM1
 BYTE   W06
 BYTE   FsM1
 BYTE   N17  Dn1
 BYTE   N17  Fn1
 BYTE   W01
 BYTE   VOL   16*song35_mvl/mxv
 BYTE   W01
 BYTE   DnM1
 BYTE   W01
 BYTE   BnM2
 BYTE   W01
 BYTE   AnM2
 BYTE   W01
 BYTE   EnM2
 BYTE   W01
 BYTE   FsM2
 BYTE   W01
 BYTE   GnM2
 BYTE   W01
 BYTE   GsM2
 BYTE   W01
 BYTE   AnM2
 BYTE   W01
 BYTE   AsM2
 BYTE   W01
 BYTE   BnM2
 BYTE   W01
 BYTE   CnM1
 BYTE   W06
 BYTE   Cs0
 BYTE   N17  Dn1
 BYTE   N17  Fn1
 BYTE   W01
 BYTE   VOL   22*song35_mvl/mxv
 BYTE   W01
 BYTE   GsM1
 BYTE   W01
 BYTE   EnM1
 BYTE   W01
 BYTE   CnM1
 BYTE   W01
 BYTE   FsM2
 BYTE   W01
 BYTE   GsM2
 BYTE   W01
 BYTE   AsM2
 BYTE   W01
 BYTE   CnM1
 BYTE   W01
 BYTE   CsM1
 BYTE   W01
 BYTE   DsM1
 BYTE   W01
 BYTE   EnM1
 BYTE   W01
 BYTE   FnM1
 BYTE   W06
 BYTE   FsM1
 BYTE   N17  Dn1
 BYTE   N17  Fn1
 BYTE   W01
 BYTE   VOL   16*song35_mvl/mxv
 BYTE   W01
 BYTE   DnM1
 BYTE   W01
 BYTE   BnM2
 BYTE   W01
 BYTE   AnM2
 BYTE   W01
 BYTE   EnM2
 BYTE   W01
 BYTE   FsM2
 BYTE   W01
 BYTE   GnM2
 BYTE   W01
 BYTE   GsM2
 BYTE   W01
 BYTE   AnM2
 BYTE   W01
 BYTE   AsM2
 BYTE   W01
 BYTE   BnM2
 BYTE   W01
 BYTE   CnM1
 BYTE   W06
 BYTE   Cs0
 BYTE   N18  Dn1
 BYTE   N18  Fn1
 BYTE   W01
 BYTE   VOL   22*song35_mvl/mxv
 BYTE   W01
 BYTE   GsM1
 BYTE   W01
 BYTE   EnM1
 BYTE   W01
 BYTE   CnM1
 BYTE   W01
 BYTE   FsM2
 BYTE   W01
// 016   ----------------------------------------
 BYTE   GsM2
 BYTE   W01
 BYTE   AsM2
 BYTE   W01
 BYTE   CnM1
 BYTE   W01
 BYTE   CsM1
 BYTE   W01
 BYTE   DsM1
 BYTE   W01
 BYTE   EnM1
 BYTE   W01
 BYTE   FnM1
 BYTE   W06
 BYTE   FsM1
 BYTE   N17  Dn1
 BYTE   N17  Fn1
 BYTE   W01
 BYTE   VOL   16*song35_mvl/mxv
 BYTE   W01
 BYTE   DnM1
 BYTE   W01
 BYTE   BnM2
 BYTE   W01
 BYTE   AnM2
 BYTE   W01
 BYTE   EnM2
 BYTE   W01
 BYTE   FsM2
 BYTE   W01
 BYTE   GnM2
 BYTE   W01
 BYTE   GsM2
 BYTE   W01
 BYTE   AnM2
 BYTE   W01
 BYTE   AsM2
 BYTE   W01
 BYTE   BnM2
 BYTE   W01
 BYTE   CnM1
 BYTE   W06
 BYTE   Cs0
 BYTE   N17  Dn1
 BYTE   N17  Fn1
 BYTE   W01
 BYTE   VOL   22*song35_mvl/mxv
 BYTE   W01
 BYTE   GsM1
 BYTE   W01
 BYTE   EnM1
 BYTE   W01
 BYTE   CnM1
 BYTE   W01
 BYTE   FsM2
 BYTE   W01
 BYTE   GsM2
 BYTE   W01
 BYTE   AsM2
 BYTE   W01
 BYTE   CnM1
 BYTE   W01
 BYTE   CsM1
 BYTE   W01
 BYTE   DsM1
 BYTE   W01
 BYTE   EnM1
 BYTE   W01
 BYTE   FnM1
 BYTE   W06
 BYTE   FsM1
 BYTE   N17  Dn1
 BYTE   N17  Fn1
 BYTE   W01
 BYTE   VOL   16*song35_mvl/mxv
 BYTE   W01
 BYTE   DnM1
 BYTE   W01
 BYTE   BnM2
 BYTE   W01
 BYTE   AnM2
 BYTE   W01
 BYTE   EnM2
 BYTE   W01
 BYTE   FsM2
 BYTE   W01
 BYTE   GnM2
 BYTE   W01
 BYTE   GsM2
 BYTE   W01
 BYTE   AnM2
 BYTE   W01
 BYTE   AsM2
 BYTE   W01
 BYTE   BnM2
 BYTE   W01
 BYTE   CnM1
 BYTE   W06
 BYTE   Cs0
 BYTE   N17  Dn1
 BYTE   N17  Fn1
 BYTE   W01
 BYTE   VOL   22*song35_mvl/mxv
 BYTE   W01
 BYTE   GsM1
 BYTE   W01
 BYTE   EnM1
 BYTE   W01
 BYTE   CnM1
 BYTE   W01
 BYTE   FsM2
 BYTE   W01
 BYTE   GsM2
 BYTE   W01
 BYTE   AsM2
 BYTE   W01
 BYTE   CnM1
 BYTE   W01
 BYTE   CsM1
 BYTE   W01
 BYTE   DsM1
 BYTE   W01
 BYTE   EnM1
 BYTE   W01
 BYTE   FnM1
 BYTE   W06
 BYTE   FsM1
 BYTE   N18  Dn1
 BYTE   N18  Fn1
 BYTE   W01
 BYTE   VOL   16*song35_mvl/mxv
 BYTE   W01
 BYTE   DnM1
 BYTE   W01
 BYTE   BnM2
 BYTE   W01
 BYTE   AnM2
 BYTE   W01
 BYTE   EnM2
 BYTE   W01
 BYTE   FsM2
 BYTE   W01
 BYTE   GnM2
 BYTE   W01
 BYTE   GsM2
 BYTE   W01
 BYTE   AnM2
 BYTE   W01
 BYTE   AsM2
 BYTE   W01
 BYTE   BnM2
 BYTE   W01
// 017   ----------------------------------------
 BYTE   CnM1
 BYTE   W06
 BYTE   Cs0
 BYTE   N17  Dn1
 BYTE   N17  Fn1
 BYTE   W01
 BYTE   VOL   22*song35_mvl/mxv
 BYTE   W01
 BYTE   GsM1
 BYTE   W01
 BYTE   EnM1
 BYTE   W01
 BYTE   CnM1
 BYTE   W01
 BYTE   FsM2
 BYTE   W01
 BYTE   GsM2
 BYTE   W01
 BYTE   AsM2
 BYTE   W01
 BYTE   CnM1
 BYTE   W01
 BYTE   CsM1
 BYTE   W01
 BYTE   DsM1
 BYTE   W01
 BYTE   EnM1
 BYTE   W01
 BYTE   FnM1
 BYTE   W06
 BYTE   FsM1
 BYTE   N17  Dn1
 BYTE   N17  Fn1
 BYTE   W01
 BYTE   VOL   16*song35_mvl/mxv
 BYTE   W01
 BYTE   DnM1
 BYTE   W01
 BYTE   BnM2
 BYTE   W01
 BYTE   AnM2
 BYTE   W01
 BYTE   EnM2
 BYTE   W01
 BYTE   FsM2
 BYTE   W01
 BYTE   GnM2
 BYTE   W01
 BYTE   GsM2
 BYTE   W01
 BYTE   AnM2
 BYTE   W01
 BYTE   AsM2
 BYTE   W01
 BYTE   BnM2
 BYTE   W01
 BYTE   CnM1
 BYTE   W06
 BYTE   Cs0
 BYTE   N18  Dn1
 BYTE   N18  Fn1
 BYTE   W01
 BYTE   VOL   22*song35_mvl/mxv
 BYTE   W01
 BYTE   GsM1
 BYTE   W01
 BYTE   EnM1
 BYTE   W01
 BYTE   CnM1
 BYTE   W01
 BYTE   FsM2
 BYTE   W01
 BYTE   GsM2
 BYTE   W01
 BYTE   AsM2
 BYTE   W01
 BYTE   CnM1
 BYTE   W01
 BYTE   CsM1
 BYTE   W01
 BYTE   DsM1
 BYTE   W01
 BYTE   EnM1
 BYTE   W01
 BYTE   FnM1
 BYTE   W06
 BYTE   FsM1
 BYTE   N17  Dn1
 BYTE   N17  Fn1
 BYTE   W01
 BYTE   VOL   16*song35_mvl/mxv
 BYTE   W01
 BYTE   DnM1
 BYTE   W01
 BYTE   BnM2
 BYTE   W01
 BYTE   AnM2
 BYTE   W01
 BYTE   EnM2
 BYTE   W01
 BYTE   FsM2
 BYTE   W01
 BYTE   GnM2
 BYTE   W01
 BYTE   GsM2
 BYTE   W01
 BYTE   AnM2
 BYTE   W01
 BYTE   AsM2
 BYTE   W01
 BYTE   BnM2
 BYTE   W01
 BYTE   CnM1
 BYTE   W06
 BYTE   Cs0
 BYTE   N16  Dn1
 BYTE   N16  Fn1
 BYTE   W01
 BYTE   VOL   22*song35_mvl/mxv
 BYTE   W01
 BYTE   GsM1
 BYTE   W01
 BYTE   EnM1
 BYTE   W01
 BYTE   CnM1
 BYTE   W01
 BYTE   FsM2
 BYTE   W01
 BYTE   GsM2
 BYTE   W01
 BYTE   AsM2
 BYTE   W01
 BYTE   CnM1
 BYTE   W01
 BYTE   CsM1
 BYTE   W01
 BYTE   DsM1
 BYTE   W01
 BYTE   EnM1
 BYTE   W01
 BYTE   FnM1
 BYTE   W05
 BYTE   GoTo
  POIN2 Label_6_0139029E
// 018   ----------------------------------------
 BYTE   VOL   0*song35_mvl/mxv
 BYTE   PAN   c_v+0
 BYTE   VOL   0*song35_mvl/mxv
 BYTE   PAN   c_v+0
 BYTE   BEND   c_v+0
 BYTE   FINE

//**************** Track 8 (Midi-Chn.7) ****************//

song35_008:
// 000   ----------------------------------------
 BYTE   KEYSH   song35_key+0
Label_7_0138DD16:
 BYTE   VOICE   1
 BYTE   VOL   0*song35_mvl/mxv
 BYTE   PAN   c_v+0
 BYTE   VOL   0*song35_mvl/mxv
 BYTE   PAN   c_v+0
 BYTE   BEND   c_v+0
 BYTE   W18
 BYTE   VOL   25*song35_mvl/mxv
 BYTE   N36  Bn2  v127
 BYTE   W13
 BYTE   VOL   24*song35_mvl/mxv
 BYTE   W01
 BYTE   Cn0
 BYTE   W01
 BYTE   BnM1
 BYTE   W01
 BYTE   AsM1
 BYTE   W01
 BYTE   AsM1
 BYTE   W01
 BYTE   AnM1
 BYTE   W01
 BYTE   GsM1
 BYTE   W01
 BYTE   GsM1
 BYTE   W01
 BYTE   GnM1
 BYTE   W01
 BYTE   FsM1
 BYTE   W01
 BYTE   FnM1
 BYTE   W01
 BYTE   EnM1
 BYTE   W01
 BYTE   DsM1
 BYTE   W01
 BYTE   DnM1
 BYTE   W01
 BYTE   CsM1
 BYTE   W01
 BYTE   CnM1
 BYTE   W01
 BYTE   BnM2
 BYTE   W01
 BYTE   AnM2
 BYTE   W01
 BYTE   AnM2
 BYTE   W01
 BYTE   AnM2
 BYTE   W01
 BYTE   AnM2
 BYTE   W01
 BYTE   GsM2
 BYTE   W01
 BYTE   GsM2
 BYTE   W01
 BYTE   Cs0
 BYTE   N32
 BYTE   W13
 BYTE   VOL   24*song35_mvl/mxv
 BYTE   W01
 BYTE   Cn0
 BYTE   W01
 BYTE   BnM1
 BYTE   W01
 BYTE   AsM1
 BYTE   W01
 BYTE   AsM1
 BYTE   W01
 BYTE   AnM1
 BYTE   W01
 BYTE   GsM1
 BYTE   W01
 BYTE   GsM1
 BYTE   W01
 BYTE   GnM1
 BYTE   W01
 BYTE   FsM1
 BYTE   W01
 BYTE   FnM1
 BYTE   W01
 BYTE   EnM1
 BYTE   W01
 BYTE   DsM1
 BYTE   W01
 BYTE   DnM1
 BYTE   W01
 BYTE   CsM1
 BYTE   W01
 BYTE   CnM1
 BYTE   W01
 BYTE   BnM2
 BYTE   W01
 BYTE   AnM2
 BYTE   W01
 BYTE   AnM2
 BYTE   W01
 BYTE   AnM2
 BYTE   W01
 BYTE   AnM2
 BYTE   W01
 BYTE   GsM2
 BYTE   W01
 BYTE   GsM2
 BYTE   W01
 BYTE   Cs0
 BYTE   N32
 BYTE   W06
// 001   ----------------------------------------
Label_7_0138DD8D:
 BYTE   W07
 BYTE   VOL   24*song35_mvl/mxv
 BYTE   W01
 BYTE   Cn0
 BYTE   W01
 BYTE   BnM1
 BYTE   W01
 BYTE   AsM1
 BYTE   W01
 BYTE   AsM1
 BYTE   W01
 BYTE   AnM1
 BYTE   W01
 BYTE   GsM1
 BYTE   W01
 BYTE   GsM1
 BYTE   W01
 BYTE   GnM1
 BYTE   W01
 BYTE   FsM1
 BYTE   W01
 BYTE   FnM1
 BYTE   W01
 BYTE   EnM1
 BYTE   W01
 BYTE   DsM1
 BYTE   W01
 BYTE   DnM1
 BYTE   W01
 BYTE   CsM1
 BYTE   W01
 BYTE   CnM1
 BYTE   W01
 BYTE   BnM2
 BYTE   W01
 BYTE   AnM2
 BYTE   W01
 BYTE   AnM2
 BYTE   W01
 BYTE   AnM2
 BYTE   W01
 BYTE   AnM2
 BYTE   W01
 BYTE   GsM2
 BYTE   W01
 BYTE   GsM2
 BYTE   W01
 BYTE   Cs0
 BYTE   N32  Bn2  v127
 BYTE   W13
 BYTE   VOL   24*song35_mvl/mxv
 BYTE   W01
 BYTE   Cn0
 BYTE   W01
 BYTE   BnM1
 BYTE   W01
 BYTE   AsM1
 BYTE   W01
 BYTE   AsM1
 BYTE   W01
 BYTE   AnM1
 BYTE   W01
 BYTE   GsM1
 BYTE   W01
 BYTE   GsM1
 BYTE   W01
 BYTE   GnM1
 BYTE   W01
 BYTE   FsM1
 BYTE   W01
 BYTE   FnM1
 BYTE   W01
 BYTE   EnM1
 BYTE   W01
 BYTE   DsM1
 BYTE   W01
 BYTE   DnM1
 BYTE   W01
 BYTE   CsM1
 BYTE   W01
 BYTE   CnM1
 BYTE   W01
 BYTE   BnM2
 BYTE   W01
 BYTE   AnM2
 BYTE   W01
 BYTE   AnM2
 BYTE   W01
 BYTE   AnM2
 BYTE   W01
 BYTE   AnM2
 BYTE   W01
 BYTE   GsM2
 BYTE   W01
 BYTE   GsM2
 BYTE   W01
 BYTE   Cs0
 BYTE   N32  Dn3
 BYTE   W13
 BYTE   VOL   24*song35_mvl/mxv
 BYTE   W01
 BYTE   Cn0
 BYTE   W01
 BYTE   BnM1
 BYTE   W01
 BYTE   AsM1
 BYTE   W01
 BYTE   AsM1
 BYTE   W01
 BYTE   AnM1
 BYTE   W01
 BYTE   GsM1
 BYTE   W01
 BYTE   GsM1
 BYTE   W01
 BYTE   GnM1
 BYTE   W01
 BYTE   FsM1
 BYTE   W01
 BYTE   FnM1
 BYTE   W01
 BYTE   EnM1
 BYTE   W01
 BYTE   DsM1
 BYTE   W01
 BYTE   DnM1
 BYTE   W01
 BYTE   CsM1
 BYTE   W01
 BYTE   CnM1
 BYTE   W01
 BYTE   BnM2
 BYTE   W01
 BYTE   PEND 
// 002   ----------------------------------------
Label_7_0138DE19:
 BYTE   VOL   9*song35_mvl/mxv
 BYTE   W01
 BYTE   AnM2
 BYTE   W01
 BYTE   AnM2
 BYTE   W01
 BYTE   AnM2
 BYTE   W01
 BYTE   GsM2
 BYTE   W01
 BYTE   GsM2
 BYTE   W01
 BYTE   Cs0
 BYTE   N36  Dn3  v127
 BYTE   W13
 BYTE   VOL   24*song35_mvl/mxv
 BYTE   W01
 BYTE   Cn0
 BYTE   W01
 BYTE   BnM1
 BYTE   W01
 BYTE   AsM1
 BYTE   W01
 BYTE   AsM1
 BYTE   W01
 BYTE   AnM1
 BYTE   W01
 BYTE   GsM1
 BYTE   W01
 BYTE   GsM1
 BYTE   W01
 BYTE   GnM1
 BYTE   W01
 BYTE   FsM1
 BYTE   W01
 BYTE   FnM1
 BYTE   W01
 BYTE   EnM1
 BYTE   W01
 BYTE   DsM1
 BYTE   W01
 BYTE   DnM1
 BYTE   W01
 BYTE   CsM1
 BYTE   W01
 BYTE   CnM1
 BYTE   W01
 BYTE   BnM2
 BYTE   W01
 BYTE   AnM2
 BYTE   W01
 BYTE   AnM2
 BYTE   W01
 BYTE   AnM2
 BYTE   W01
 BYTE   AnM2
 BYTE   W01
 BYTE   GsM2
 BYTE   W01
 BYTE   GsM2
 BYTE   W01
 BYTE   Cs0
 BYTE   N32
 BYTE   W13
 BYTE   VOL   24*song35_mvl/mxv
 BYTE   W01
 BYTE   Cn0
 BYTE   W01
 BYTE   BnM1
 BYTE   W01
 BYTE   AsM1
 BYTE   W01
 BYTE   AsM1
 BYTE   W01
 BYTE   AnM1
 BYTE   W01
 BYTE   GsM1
 BYTE   W01
 BYTE   GsM1
 BYTE   W01
 BYTE   GnM1
 BYTE   W01
 BYTE   FsM1
 BYTE   W01
 BYTE   FnM1
 BYTE   W01
 BYTE   EnM1
 BYTE   W01
 BYTE   DsM1
 BYTE   W01
 BYTE   DnM1
 BYTE   W01
 BYTE   CsM1
 BYTE   W01
 BYTE   CnM1
 BYTE   W01
 BYTE   BnM2
 BYTE   W01
 BYTE   AnM2
 BYTE   W01
 BYTE   AnM2
 BYTE   W01
 BYTE   AnM2
 BYTE   W01
 BYTE   AnM2
 BYTE   W01
 BYTE   GsM2
 BYTE   W01
 BYTE   GsM2
 BYTE   W01
 BYTE   Cs0
 BYTE   N32
 BYTE   W13
 BYTE   VOL   24*song35_mvl/mxv
 BYTE   W01
 BYTE   Cn0
 BYTE   W01
 BYTE   BnM1
 BYTE   W01
 BYTE   AsM1
 BYTE   W01
 BYTE   AsM1
 BYTE   W01
 BYTE   PEND 
// 003   ----------------------------------------
 BYTE   AnM1
 BYTE   W01
 BYTE   GsM1
 BYTE   W01
 BYTE   GsM1
 BYTE   W01
 BYTE   GnM1
 BYTE   W01
 BYTE   FsM1
 BYTE   W01
 BYTE   FnM1
 BYTE   W01
 BYTE   EnM1
 BYTE   W01
 BYTE   DsM1
 BYTE   W01
 BYTE   DnM1
 BYTE   W01
 BYTE   CsM1
 BYTE   W01
 BYTE   CnM1
 BYTE   W01
 BYTE   BnM2
 BYTE   W01
 BYTE   AnM2
 BYTE   W01
 BYTE   AnM2
 BYTE   W01
 BYTE   AnM2
 BYTE   W01
 BYTE   AnM2
 BYTE   W01
 BYTE   GsM2
 BYTE   W01
 BYTE   GsM2
 BYTE   W01
 BYTE   Cs0
 BYTE   N32  Bn2
 BYTE   W13
 BYTE   VOL   24*song35_mvl/mxv
 BYTE   W01
 BYTE   Cn0
 BYTE   W01
 BYTE   BnM1
 BYTE   W01
 BYTE   AsM1
 BYTE   W01
 BYTE   AsM1
 BYTE   W01
 BYTE   AnM1
 BYTE   W01
 BYTE   GsM1
 BYTE   W01
 BYTE   GsM1
 BYTE   W01
 BYTE   GnM1
 BYTE   W01
 BYTE   FsM1
 BYTE   W01
 BYTE   FnM1
 BYTE   W01
 BYTE   EnM1
 BYTE   W01
 BYTE   DsM1
 BYTE   W01
 BYTE   DnM1
 BYTE   W01
 BYTE   CsM1
 BYTE   W01
 BYTE   CnM1
 BYTE   W01
 BYTE   BnM2
 BYTE   W01
 BYTE   AnM2
 BYTE   W01
 BYTE   AnM2
 BYTE   W01
 BYTE   AnM2
 BYTE   W01
 BYTE   AnM2
 BYTE   W01
 BYTE   GsM2
 BYTE   W01
 BYTE   GsM2
 BYTE   W01
 BYTE   Cs0
 BYTE   N36
 BYTE   W13
 BYTE   VOL   24*song35_mvl/mxv
 BYTE   W01
 BYTE   Cn0
 BYTE   W01
 BYTE   BnM1
 BYTE   W01
 BYTE   AsM1
 BYTE   W01
 BYTE   AsM1
 BYTE   W01
 BYTE   AnM1
 BYTE   W01
 BYTE   GsM1
 BYTE   W01
 BYTE   GsM1
 BYTE   W01
 BYTE   GnM1
 BYTE   W01
 BYTE   FsM1
 BYTE   W01
 BYTE   FnM1
 BYTE   W01
 BYTE   EnM1
 BYTE   W01
 BYTE   DsM1
 BYTE   W01
 BYTE   DnM1
 BYTE   W01
 BYTE   CsM1
 BYTE   W01
 BYTE   CnM1
 BYTE   W01
 BYTE   BnM2
 BYTE   W01
 BYTE   AnM2
 BYTE   W01
 BYTE   AnM2
 BYTE   W01
 BYTE   AnM2
 BYTE   W01
 BYTE   AnM2
 BYTE   W01
 BYTE   GsM2
 BYTE   W01
 BYTE   GsM2
 BYTE   W01
 BYTE   Cs0
 BYTE   N32
 BYTE   W06
// 004   ----------------------------------------
 BYTE   PATT
  POIN2 Label_7_0138DD8D
// 005   ----------------------------------------
 BYTE   PATT
  POIN2 Label_7_0138DE19
// 006   ----------------------------------------
Label_7_0138DF31:
 BYTE   VOL   21*song35_mvl/mxv
 BYTE   W01
 BYTE   GsM1
 BYTE   W01
 BYTE   GsM1
 BYTE   W01
 BYTE   GnM1
 BYTE   W01
 BYTE   FsM1
 BYTE   W01
 BYTE   FnM1
 BYTE   W01
 BYTE   EnM1
 BYTE   W01
 BYTE   DsM1
 BYTE   W01
 BYTE   DnM1
 BYTE   W01
 BYTE   CsM1
 BYTE   W01
 BYTE   CnM1
 BYTE   W01
 BYTE   BnM2
 BYTE   W01
 BYTE   AnM2
 BYTE   W01
 BYTE   AnM2
 BYTE   W01
 BYTE   AnM2
 BYTE   W01
 BYTE   AnM2
 BYTE   W01
 BYTE   GsM2
 BYTE   W01
 BYTE   GsM2
 BYTE   W01
 BYTE   Cs0
 BYTE   N32  Bn2  v127
 BYTE   W13
 BYTE   VOL   24*song35_mvl/mxv
 BYTE   W01
 BYTE   Cn0
 BYTE   W01
 BYTE   BnM1
 BYTE   W01
 BYTE   AsM1
 BYTE   W01
 BYTE   AsM1
 BYTE   W01
 BYTE   AnM1
 BYTE   W01
 BYTE   GsM1
 BYTE   W01
 BYTE   GsM1
 BYTE   W01
 BYTE   GnM1
 BYTE   W01
 BYTE   FsM1
 BYTE   W01
 BYTE   FnM1
 BYTE   W01
 BYTE   EnM1
 BYTE   W01
 BYTE   DsM1
 BYTE   W01
 BYTE   DnM1
 BYTE   W01
 BYTE   CsM1
 BYTE   W01
 BYTE   CnM1
 BYTE   W01
 BYTE   BnM2
 BYTE   W01
 BYTE   AnM2
 BYTE   W01
 BYTE   AnM2
 BYTE   W01
 BYTE   AnM2
 BYTE   W01
 BYTE   AnM2
 BYTE   W01
 BYTE   GsM2
 BYTE   W01
 BYTE   GsM2
 BYTE   W01
 BYTE   Cs0
 BYTE   N32
 BYTE   W13
 BYTE   VOL   24*song35_mvl/mxv
 BYTE   W01
 BYTE   Cn0
 BYTE   W01
 BYTE   BnM1
 BYTE   W01
 BYTE   AsM1
 BYTE   W01
 BYTE   AsM1
 BYTE   W01
 BYTE   AnM1
 BYTE   W01
 BYTE   GsM1
 BYTE   W01
 BYTE   GsM1
 BYTE   W01
 BYTE   GnM1
 BYTE   W01
 BYTE   FsM1
 BYTE   W01
 BYTE   FnM1
 BYTE   W01
 BYTE   EnM1
 BYTE   W01
 BYTE   DsM1
 BYTE   W01
 BYTE   DnM1
 BYTE   W01
 BYTE   CsM1
 BYTE   W01
 BYTE   CnM1
 BYTE   W01
 BYTE   BnM2
 BYTE   W01
 BYTE   AnM2
 BYTE   W01
 BYTE   AnM2
 BYTE   W01
 BYTE   AnM2
 BYTE   W01
 BYTE   AnM2
 BYTE   W01
 BYTE   GsM2
 BYTE   W01
 BYTE   GsM2
 BYTE   W01
 BYTE   Cs0
 BYTE   N36
 BYTE   W06
 BYTE   PEND 
// 007   ----------------------------------------
 BYTE   PATT
  POIN2 Label_7_0138DD8D
// 008   ----------------------------------------
 BYTE   VOL   9*song35_mvl/mxv
 BYTE   W01
 BYTE   AnM2
 BYTE   W01
 BYTE   AnM2
 BYTE   W01
 BYTE   AnM2
 BYTE   W01
 BYTE   GsM2
 BYTE   W01
 BYTE   GsM2
 BYTE   W01
 BYTE   Cs0
 BYTE   N32  Dn3  v127
 BYTE   W13
 BYTE   VOL   24*song35_mvl/mxv
 BYTE   W01
 BYTE   Cn0
 BYTE   W01
 BYTE   BnM1
 BYTE   W01
 BYTE   AsM1
 BYTE   W01
 BYTE   AsM1
 BYTE   W01
 BYTE   AnM1
 BYTE   W01
 BYTE   GsM1
 BYTE   W01
 BYTE   GsM1
 BYTE   W01
 BYTE   GnM1
 BYTE   W01
 BYTE   FsM1
 BYTE   W01
 BYTE   FnM1
 BYTE   W01
 BYTE   EnM1
 BYTE   W01
 BYTE   DsM1
 BYTE   W01
 BYTE   DnM1
 BYTE   W01
 BYTE   CsM1
 BYTE   W01
 BYTE   CnM1
 BYTE   W01
 BYTE   BnM2
 BYTE   W01
 BYTE   AnM2
 BYTE   W01
 BYTE   AnM2
 BYTE   W01
 BYTE   AnM2
 BYTE   W01
 BYTE   AnM2
 BYTE   W01
 BYTE   GsM2
 BYTE   W01
 BYTE   GsM2
 BYTE   W01
 BYTE   Cs0
 BYTE   N36
 BYTE   W13
 BYTE   VOL   24*song35_mvl/mxv
 BYTE   W01
 BYTE   Cn0
 BYTE   W01
 BYTE   BnM1
 BYTE   W01
 BYTE   AsM1
 BYTE   W01
 BYTE   AsM1
 BYTE   W01
 BYTE   AnM1
 BYTE   W01
 BYTE   GsM1
 BYTE   W01
 BYTE   GsM1
 BYTE   W01
 BYTE   GnM1
 BYTE   W01
 BYTE   FsM1
 BYTE   W01
 BYTE   FnM1
 BYTE   W01
 BYTE   EnM1
 BYTE   W01
 BYTE   DsM1
 BYTE   W01
 BYTE   DnM1
 BYTE   W01
 BYTE   CsM1
 BYTE   W01
 BYTE   CnM1
 BYTE   W01
 BYTE   BnM2
 BYTE   W01
 BYTE   AnM2
 BYTE   W01
 BYTE   AnM2
 BYTE   W01
 BYTE   AnM2
 BYTE   W01
 BYTE   AnM2
 BYTE   W01
 BYTE   GsM2
 BYTE   W01
 BYTE   GsM2
 BYTE   W01
 BYTE   Cs0
 BYTE   N32
 BYTE   W13
 BYTE   VOL   24*song35_mvl/mxv
 BYTE   W01
 BYTE   Cn0
 BYTE   W01
 BYTE   BnM1
 BYTE   W01
 BYTE   AsM1
 BYTE   W01
 BYTE   AsM1
 BYTE   W01
// 009   ----------------------------------------
 BYTE   PATT
  POIN2 Label_7_0138DF31
// 010   ----------------------------------------
 BYTE   PATT
  POIN2 Label_7_0138DD8D
// 011   ----------------------------------------
 BYTE   VOL   9*song35_mvl/mxv
 BYTE   W01
 BYTE   AnM2
 BYTE   W01
 BYTE   AnM2
 BYTE   W01
 BYTE   AnM2
 BYTE   W01
 BYTE   GsM2
 BYTE   W01
 BYTE   GsM2
 BYTE   W01
 BYTE   Cs0
 BYTE   N32  Dn3  v127
 BYTE   W13
 BYTE   VOL   24*song35_mvl/mxv
 BYTE   W01
 BYTE   Cn0
 BYTE   W01
 BYTE   BnM1
 BYTE   W01
 BYTE   AsM1
 BYTE   W01
 BYTE   AsM1
 BYTE   W01
 BYTE   AnM1
 BYTE   W01
 BYTE   GsM1
 BYTE   W01
 BYTE   GsM1
 BYTE   W01
 BYTE   GnM1
 BYTE   W01
 BYTE   FsM1
 BYTE   W01
 BYTE   FnM1
 BYTE   W01
 BYTE   EnM1
 BYTE   W01
 BYTE   DsM1
 BYTE   W01
 BYTE   DnM1
 BYTE   W01
 BYTE   CsM1
 BYTE   W01
 BYTE   CnM1
 BYTE   W01
 BYTE   BnM2
 BYTE   W01
 BYTE   AnM2
 BYTE   W01
 BYTE   AnM2
 BYTE   W01
 BYTE   AnM2
 BYTE   W01
 BYTE   AnM2
 BYTE   W01
 BYTE   GsM2
 BYTE   W01
 BYTE   GsM2
 BYTE   W01
 BYTE   Cs0
 BYTE   N32
 BYTE   W13
 BYTE   VOL   24*song35_mvl/mxv
 BYTE   W01
 BYTE   Cn0
 BYTE   W01
 BYTE   BnM1
 BYTE   W01
 BYTE   AsM1
 BYTE   W01
 BYTE   AsM1
 BYTE   W01
 BYTE   AnM1
 BYTE   W01
 BYTE   GsM1
 BYTE   W01
 BYTE   GsM1
 BYTE   W01
 BYTE   GnM1
 BYTE   W01
 BYTE   FsM1
 BYTE   W01
 BYTE   FnM1
 BYTE   W01
 BYTE   EnM1
 BYTE   W01
 BYTE   DsM1
 BYTE   W01
 BYTE   DnM1
 BYTE   W01
 BYTE   CsM1
 BYTE   W01
 BYTE   CnM1
 BYTE   W01
 BYTE   BnM2
 BYTE   W01
 BYTE   AnM2
 BYTE   W01
 BYTE   AnM2
 BYTE   W01
 BYTE   AnM2
 BYTE   W01
 BYTE   AnM2
 BYTE   W01
 BYTE   GsM2
 BYTE   W01
 BYTE   GsM2
 BYTE   W01
 BYTE   Cs0
 BYTE   N36
 BYTE   W13
 BYTE   VOL   24*song35_mvl/mxv
 BYTE   W01
 BYTE   Cn0
 BYTE   W01
 BYTE   BnM1
 BYTE   W01
 BYTE   AsM1
 BYTE   W01
 BYTE   AsM1
 BYTE   W01
// 012   ----------------------------------------
Label_7_0138E0D1:
 BYTE   VOL   21*song35_mvl/mxv
 BYTE   W01
 BYTE   GsM1
 BYTE   W01
 BYTE   GsM1
 BYTE   W01
 BYTE   GnM1
 BYTE   W01
 BYTE   FsM1
 BYTE   W01
 BYTE   FnM1
 BYTE   W01
 BYTE   EnM1
 BYTE   W01
 BYTE   DsM1
 BYTE   W01
 BYTE   DnM1
 BYTE   W01
 BYTE   CsM1
 BYTE   W01
 BYTE   CnM1
 BYTE   W01
 BYTE   BnM2
 BYTE   W01
 BYTE   AnM2
 BYTE   W01
 BYTE   AnM2
 BYTE   W01
 BYTE   AnM2
 BYTE   W01
 BYTE   AnM2
 BYTE   W01
 BYTE   GsM2
 BYTE   W01
 BYTE   GsM2
 BYTE   W01
 BYTE   Cs0
 BYTE   N32  En3  v127
 BYTE   W13
 BYTE   VOL   24*song35_mvl/mxv
 BYTE   W01
 BYTE   Cn0
 BYTE   W01
 BYTE   BnM1
 BYTE   W01
 BYTE   AsM1
 BYTE   W01
 BYTE   AsM1
 BYTE   W01
 BYTE   AnM1
 BYTE   W01
 BYTE   GsM1
 BYTE   W01
 BYTE   GsM1
 BYTE   W01
 BYTE   GnM1
 BYTE   W01
 BYTE   FsM1
 BYTE   W01
 BYTE   FnM1
 BYTE   W01
 BYTE   EnM1
 BYTE   W01
 BYTE   DsM1
 BYTE   W01
 BYTE   DnM1
 BYTE   W01
 BYTE   CsM1
 BYTE   W01
 BYTE   CnM1
 BYTE   W01
 BYTE   BnM2
 BYTE   W01
 BYTE   AnM2
 BYTE   W01
 BYTE   AnM2
 BYTE   W01
 BYTE   AnM2
 BYTE   W01
 BYTE   AnM2
 BYTE   W01
 BYTE   GsM2
 BYTE   W01
 BYTE   GsM2
 BYTE   W01
 BYTE   Cs0
 BYTE   N32
 BYTE   W13
 BYTE   VOL   24*song35_mvl/mxv
 BYTE   W01
 BYTE   Cn0
 BYTE   W01
 BYTE   BnM1
 BYTE   W01
 BYTE   AsM1
 BYTE   W01
 BYTE   AsM1
 BYTE   W01
 BYTE   AnM1
 BYTE   W01
 BYTE   GsM1
 BYTE   W01
 BYTE   GsM1
 BYTE   W01
 BYTE   GnM1
 BYTE   W01
 BYTE   FsM1
 BYTE   W01
 BYTE   FnM1
 BYTE   W01
 BYTE   EnM1
 BYTE   W01
 BYTE   DsM1
 BYTE   W01
 BYTE   DnM1
 BYTE   W01
 BYTE   CsM1
 BYTE   W01
 BYTE   CnM1
 BYTE   W01
 BYTE   BnM2
 BYTE   W01
 BYTE   AnM2
 BYTE   W01
 BYTE   AnM2
 BYTE   W01
 BYTE   AnM2
 BYTE   W01
 BYTE   AnM2
 BYTE   W01
 BYTE   GsM2
 BYTE   W01
 BYTE   GsM2
 BYTE   W01
 BYTE   Cs0
 BYTE   N32
 BYTE   W06
 BYTE   PEND 
// 013   ----------------------------------------
 BYTE   W07
 BYTE   VOL   24*song35_mvl/mxv
 BYTE   W01
 BYTE   Cn0
 BYTE   W01
 BYTE   BnM1
 BYTE   W01
 BYTE   AsM1
 BYTE   W01
 BYTE   AsM1
 BYTE   W01
 BYTE   AnM1
 BYTE   W01
 BYTE   GsM1
 BYTE   W01
 BYTE   GsM1
 BYTE   W01
 BYTE   GnM1
 BYTE   W01
 BYTE   FsM1
 BYTE   W01
 BYTE   FnM1
 BYTE   W01
 BYTE   EnM1
 BYTE   W01
 BYTE   DsM1
 BYTE   W01
 BYTE   DnM1
 BYTE   W01
 BYTE   CsM1
 BYTE   W01
 BYTE   CnM1
 BYTE   W01
 BYTE   BnM2
 BYTE   W01
 BYTE   AnM2
 BYTE   W01
 BYTE   AnM2
 BYTE   W01
 BYTE   AnM2
 BYTE   W01
 BYTE   AnM2
 BYTE   W01
 BYTE   GsM2
 BYTE   W01
 BYTE   GsM2
 BYTE   W01
 BYTE   Cs0
 BYTE   N36
 BYTE   W13
 BYTE   VOL   24*song35_mvl/mxv
 BYTE   W01
 BYTE   Cn0
 BYTE   W01
 BYTE   BnM1
 BYTE   W01
 BYTE   AsM1
 BYTE   W01
 BYTE   AsM1
 BYTE   W01
 BYTE   AnM1
 BYTE   W01
 BYTE   GsM1
 BYTE   W01
 BYTE   GsM1
 BYTE   W01
 BYTE   GnM1
 BYTE   W01
 BYTE   FsM1
 BYTE   W01
 BYTE   FnM1
 BYTE   W01
 BYTE   EnM1
 BYTE   W01
 BYTE   DsM1
 BYTE   W01
 BYTE   DnM1
 BYTE   W01
 BYTE   CsM1
 BYTE   W01
 BYTE   CnM1
 BYTE   W01
 BYTE   BnM2
 BYTE   W01
 BYTE   AnM2
 BYTE   W01
 BYTE   AnM2
 BYTE   W01
 BYTE   AnM2
 BYTE   W01
 BYTE   AnM2
 BYTE   W01
 BYTE   GsM2
 BYTE   W01
 BYTE   GsM2
 BYTE   W01
 BYTE   Cs0
 BYTE   N32  Gn3
 BYTE   W13
 BYTE   VOL   24*song35_mvl/mxv
 BYTE   W01
 BYTE   Cn0
 BYTE   W01
 BYTE   BnM1
 BYTE   W01
 BYTE   AsM1
 BYTE   W01
 BYTE   AsM1
 BYTE   W01
 BYTE   AnM1
 BYTE   W01
 BYTE   GsM1
 BYTE   W01
 BYTE   GsM1
 BYTE   W01
 BYTE   GnM1
 BYTE   W01
 BYTE   FsM1
 BYTE   W01
 BYTE   FnM1
 BYTE   W01
 BYTE   EnM1
 BYTE   W01
 BYTE   DsM1
 BYTE   W01
 BYTE   DnM1
 BYTE   W01
 BYTE   CsM1
 BYTE   W01
 BYTE   CnM1
 BYTE   W01
 BYTE   BnM2
 BYTE   W01
// 014   ----------------------------------------
 BYTE   AnM2
 BYTE   W01
 BYTE   AnM2
 BYTE   W01
 BYTE   AnM2
 BYTE   W01
 BYTE   AnM2
 BYTE   W01
 BYTE   GsM2
 BYTE   W01
 BYTE   GsM2
 BYTE   W01
 BYTE   Cs0
 BYTE   N32
 BYTE   W13
 BYTE   VOL   24*song35_mvl/mxv
 BYTE   W01
 BYTE   Cn0
 BYTE   W01
 BYTE   BnM1
 BYTE   W01
 BYTE   AsM1
 BYTE   W01
 BYTE   AsM1
 BYTE   W01
 BYTE   AnM1
 BYTE   W01
 BYTE   GsM1
 BYTE   W01
 BYTE   GsM1
 BYTE   W01
 BYTE   GnM1
 BYTE   W01
 BYTE   FsM1
 BYTE   W01
 BYTE   FnM1
 BYTE   W01
 BYTE   EnM1
 BYTE   W01
 BYTE   DsM1
 BYTE   W01
 BYTE   DnM1
 BYTE   W01
 BYTE   CsM1
 BYTE   W01
 BYTE   CnM1
 BYTE   W01
 BYTE   BnM2
 BYTE   W01
 BYTE   AnM2
 BYTE   W01
 BYTE   AnM2
 BYTE   W01
 BYTE   AnM2
 BYTE   W01
 BYTE   AnM2
 BYTE   W01
 BYTE   GsM2
 BYTE   W01
 BYTE   GsM2
 BYTE   W01
 BYTE   Cs0
 BYTE   N32
 BYTE   W13
 BYTE   VOL   24*song35_mvl/mxv
 BYTE   W01
 BYTE   Cn0
 BYTE   W01
 BYTE   BnM1
 BYTE   W01
 BYTE   AsM1
 BYTE   W01
 BYTE   AsM1
 BYTE   W01
 BYTE   AnM1
 BYTE   W01
 BYTE   GsM1
 BYTE   W01
 BYTE   GsM1
 BYTE   W01
 BYTE   GnM1
 BYTE   W01
 BYTE   FsM1
 BYTE   W01
 BYTE   FnM1
 BYTE   W01
 BYTE   EnM1
 BYTE   W01
 BYTE   DsM1
 BYTE   W01
 BYTE   DnM1
 BYTE   W01
 BYTE   CsM1
 BYTE   W01
 BYTE   CnM1
 BYTE   W01
 BYTE   BnM2
 BYTE   W01
 BYTE   AnM2
 BYTE   W01
 BYTE   AnM2
 BYTE   W01
 BYTE   AnM2
 BYTE   W01
 BYTE   AnM2
 BYTE   W01
 BYTE   GsM2
 BYTE   W01
 BYTE   GsM2
 BYTE   W01
 BYTE   Cs0
 BYTE   N36
 BYTE   W13
 BYTE   VOL   24*song35_mvl/mxv
 BYTE   W01
 BYTE   Cn0
 BYTE   W01
 BYTE   BnM1
 BYTE   W01
 BYTE   AsM1
 BYTE   W01
 BYTE   AsM1
 BYTE   W01
// 015   ----------------------------------------
 BYTE   PATT
  POIN2 Label_7_0138E0D1
// 016   ----------------------------------------
 BYTE   W07
 BYTE   VOL   24*song35_mvl/mxv
 BYTE   W01
 BYTE   Cn0
 BYTE   W01
 BYTE   BnM1
 BYTE   W01
 BYTE   AsM1
 BYTE   W01
 BYTE   AsM1
 BYTE   W01
 BYTE   AnM1
 BYTE   W01
 BYTE   GsM1
 BYTE   W01
 BYTE   GsM1
 BYTE   W01
 BYTE   GnM1
 BYTE   W01
 BYTE   FsM1
 BYTE   W01
 BYTE   FnM1
 BYTE   W01
 BYTE   EnM1
 BYTE   W01
 BYTE   DsM1
 BYTE   W01
 BYTE   DnM1
 BYTE   W01
 BYTE   CsM1
 BYTE   W01
 BYTE   CnM1
 BYTE   W01
 BYTE   BnM2
 BYTE   W01
 BYTE   AnM2
 BYTE   W01
 BYTE   AnM2
 BYTE   W01
 BYTE   AnM2
 BYTE   W01
 BYTE   AnM2
 BYTE   W01
 BYTE   GsM2
 BYTE   W01
 BYTE   GsM2
 BYTE   W01
 BYTE   Cs0
 BYTE   N32  En3  v127
 BYTE   W13
 BYTE   VOL   24*song35_mvl/mxv
 BYTE   W01
 BYTE   Cn0
 BYTE   W01
 BYTE   BnM1
 BYTE   W01
 BYTE   AsM1
 BYTE   W01
 BYTE   AsM1
 BYTE   W01
 BYTE   AnM1
 BYTE   W01
 BYTE   GsM1
 BYTE   W01
 BYTE   GsM1
 BYTE   W01
 BYTE   GnM1
 BYTE   W01
 BYTE   FsM1
 BYTE   W01
 BYTE   FnM1
 BYTE   W01
 BYTE   EnM1
 BYTE   W01
 BYTE   DsM1
 BYTE   W01
 BYTE   DnM1
 BYTE   W01
 BYTE   CsM1
 BYTE   W01
 BYTE   CnM1
 BYTE   W01
 BYTE   BnM2
 BYTE   W01
 BYTE   AnM2
 BYTE   W01
 BYTE   AnM2
 BYTE   W01
 BYTE   AnM2
 BYTE   W01
 BYTE   AnM2
 BYTE   W01
 BYTE   GsM2
 BYTE   W01
 BYTE   GsM2
 BYTE   W01
 BYTE   Cs0
 BYTE   N36  An3
 BYTE   W13
 BYTE   VOL   24*song35_mvl/mxv
 BYTE   W01
 BYTE   Cn0
 BYTE   W01
 BYTE   BnM1
 BYTE   W01
 BYTE   AsM1
 BYTE   W01
 BYTE   AsM1
 BYTE   W01
 BYTE   AnM1
 BYTE   W01
 BYTE   GsM1
 BYTE   W01
 BYTE   GsM1
 BYTE   W01
 BYTE   GnM1
 BYTE   W01
 BYTE   FsM1
 BYTE   W01
 BYTE   FnM1
 BYTE   W01
 BYTE   EnM1
 BYTE   W01
 BYTE   DsM1
 BYTE   W01
 BYTE   DnM1
 BYTE   W01
 BYTE   CsM1
 BYTE   W01
 BYTE   CnM1
 BYTE   W01
 BYTE   BnM2
 BYTE   W01
// 017   ----------------------------------------
 BYTE   AnM2
 BYTE   W01
 BYTE   AnM2
 BYTE   W01
 BYTE   AnM2
 BYTE   W01
 BYTE   AnM2
 BYTE   W01
 BYTE   GsM2
 BYTE   W01
 BYTE   GsM2
 BYTE   W01
 BYTE   Cs0
 BYTE   N32
 BYTE   W13
 BYTE   VOL   24*song35_mvl/mxv
 BYTE   W01
 BYTE   Cn0
 BYTE   W01
 BYTE   BnM1
 BYTE   W01
 BYTE   AsM1
 BYTE   W01
 BYTE   AsM1
 BYTE   W01
 BYTE   AnM1
 BYTE   W01
 BYTE   GsM1
 BYTE   W01
 BYTE   GsM1
 BYTE   W01
 BYTE   GnM1
 BYTE   W01
 BYTE   FsM1
 BYTE   W01
 BYTE   FnM1
 BYTE   W01
 BYTE   EnM1
 BYTE   W01
 BYTE   DsM1
 BYTE   W01
 BYTE   DnM1
 BYTE   W01
 BYTE   CsM1
 BYTE   W01
 BYTE   CnM1
 BYTE   W01
 BYTE   BnM2
 BYTE   W01
 BYTE   AnM2
 BYTE   W01
 BYTE   AnM2
 BYTE   W01
 BYTE   AnM2
 BYTE   W01
 BYTE   AnM2
 BYTE   W01
 BYTE   GsM2
 BYTE   W01
 BYTE   GsM2
 BYTE   W01
 BYTE   Cs0
 BYTE   N32  Bn3
 BYTE   W13
 BYTE   VOL   24*song35_mvl/mxv
 BYTE   W01
 BYTE   Cn0
 BYTE   W01
 BYTE   BnM1
 BYTE   W01
 BYTE   AsM1
 BYTE   W01
 BYTE   AsM1
 BYTE   W01
 BYTE   AnM1
 BYTE   W01
 BYTE   GsM1
 BYTE   W01
 BYTE   GsM1
 BYTE   W01
 BYTE   GnM1
 BYTE   W01
 BYTE   FsM1
 BYTE   W01
 BYTE   FnM1
 BYTE   W01
 BYTE   EnM1
 BYTE   W01
 BYTE   DsM1
 BYTE   W01
 BYTE   DnM1
 BYTE   W01
 BYTE   CsM1
 BYTE   W01
 BYTE   CnM1
 BYTE   W01
 BYTE   BnM2
 BYTE   W01
 BYTE   AnM2
 BYTE   W01
 BYTE   AnM2
 BYTE   W01
 BYTE   AnM2
 BYTE   W01
 BYTE   AnM2
 BYTE   W01
 BYTE   GsM2
 BYTE   W01
 BYTE   GsM2
 BYTE   W01
 BYTE   Cs0
 BYTE   N16
 BYTE   W13
 BYTE   VOL   24*song35_mvl/mxv
 BYTE   W01
 BYTE   Cn0
 BYTE   W01
 BYTE   BnM1
 BYTE   W01
 BYTE   AsM1
 BYTE   W01
 BYTE   GoTo
  POIN2 Label_7_0138DD16
// 018   ----------------------------------------
 BYTE   VOL   22*song35_mvl/mxv
 BYTE   CnM2
 BYTE   PAN   c_v+0
 BYTE   BEND   c_v+0
 BYTE   FINE

//**************** Track 9 (Midi-Chn.8) ****************//

song35_009:
// 000   ----------------------------------------
 BYTE   KEYSH   song35_key+0
Label_8_01390E6A:
 BYTE   VOICE   1
 BYTE   VOL   0*song35_mvl/mxv
 BYTE   PAN   c_v+0
 BYTE   VOL   0*song35_mvl/mxv
 BYTE   PAN   c_v+0
 BYTE   BEND   c_v+0
 BYTE   W18
 BYTE   VOL   25*song35_mvl/mxv
 BYTE   N36  Dn3  v127
 BYTE   W13
 BYTE   VOL   24*song35_mvl/mxv
 BYTE   W01
 BYTE   Cn0
 BYTE   W01
 BYTE   BnM1
 BYTE   W01
 BYTE   AsM1
 BYTE   W01
 BYTE   AsM1
 BYTE   W01
 BYTE   AnM1
 BYTE   W01
 BYTE   GsM1
 BYTE   W01
 BYTE   GsM1
 BYTE   W01
 BYTE   GnM1
 BYTE   W01
 BYTE   FsM1
 BYTE   W01
 BYTE   FnM1
 BYTE   W01
 BYTE   EnM1
 BYTE   W01
 BYTE   DsM1
 BYTE   W01
 BYTE   DnM1
 BYTE   W01
 BYTE   CsM1
 BYTE   W01
 BYTE   CnM1
 BYTE   W01
 BYTE   BnM2
 BYTE   W01
 BYTE   AnM2
 BYTE   W01
 BYTE   AnM2
 BYTE   W01
 BYTE   AnM2
 BYTE   W01
 BYTE   AnM2
 BYTE   W01
 BYTE   GsM2
 BYTE   W01
 BYTE   GsM2
 BYTE   W01
 BYTE   Cs0
 BYTE   N32
 BYTE   W13
 BYTE   VOL   24*song35_mvl/mxv
 BYTE   W01
 BYTE   Cn0
 BYTE   W01
 BYTE   BnM1
 BYTE   W01
 BYTE   AsM1
 BYTE   W01
 BYTE   AsM1
 BYTE   W01
 BYTE   AnM1
 BYTE   W01
 BYTE   GsM1
 BYTE   W01
 BYTE   GsM1
 BYTE   W01
 BYTE   GnM1
 BYTE   W01
 BYTE   FsM1
 BYTE   W01
 BYTE   FnM1
 BYTE   W01
 BYTE   EnM1
 BYTE   W01
 BYTE   DsM1
 BYTE   W01
 BYTE   DnM1
 BYTE   W01
 BYTE   CsM1
 BYTE   W01
 BYTE   CnM1
 BYTE   W01
 BYTE   BnM2
 BYTE   W01
 BYTE   AnM2
 BYTE   W01
 BYTE   AnM2
 BYTE   W01
 BYTE   AnM2
 BYTE   W01
 BYTE   AnM2
 BYTE   W01
 BYTE   GsM2
 BYTE   W01
 BYTE   GsM2
 BYTE   W01
 BYTE   Cs0
 BYTE   N32
 BYTE   W06
// 001   ----------------------------------------
Label_8_01390EE1:
 BYTE   W07
 BYTE   VOL   24*song35_mvl/mxv
 BYTE   W01
 BYTE   Cn0
 BYTE   W01
 BYTE   BnM1
 BYTE   W01
 BYTE   AsM1
 BYTE   W01
 BYTE   AsM1
 BYTE   W01
 BYTE   AnM1
 BYTE   W01
 BYTE   GsM1
 BYTE   W01
 BYTE   GsM1
 BYTE   W01
 BYTE   GnM1
 BYTE   W01
 BYTE   FsM1
 BYTE   W01
 BYTE   FnM1
 BYTE   W01
 BYTE   EnM1
 BYTE   W01
 BYTE   DsM1
 BYTE   W01
 BYTE   DnM1
 BYTE   W01
 BYTE   CsM1
 BYTE   W01
 BYTE   CnM1
 BYTE   W01
 BYTE   BnM2
 BYTE   W01
 BYTE   AnM2
 BYTE   W01
 BYTE   AnM2
 BYTE   W01
 BYTE   AnM2
 BYTE   W01
 BYTE   AnM2
 BYTE   W01
 BYTE   GsM2
 BYTE   W01
 BYTE   GsM2
 BYTE   W01
 BYTE   Cs0
 BYTE   N32  Dn3  v127
 BYTE   W13
 BYTE   VOL   24*song35_mvl/mxv
 BYTE   W01
 BYTE   Cn0
 BYTE   W01
 BYTE   BnM1
 BYTE   W01
 BYTE   AsM1
 BYTE   W01
 BYTE   AsM1
 BYTE   W01
 BYTE   AnM1
 BYTE   W01
 BYTE   GsM1
 BYTE   W01
 BYTE   GsM1
 BYTE   W01
 BYTE   GnM1
 BYTE   W01
 BYTE   FsM1
 BYTE   W01
 BYTE   FnM1
 BYTE   W01
 BYTE   EnM1
 BYTE   W01
 BYTE   DsM1
 BYTE   W01
 BYTE   DnM1
 BYTE   W01
 BYTE   CsM1
 BYTE   W01
 BYTE   CnM1
 BYTE   W01
 BYTE   BnM2
 BYTE   W01
 BYTE   AnM2
 BYTE   W01
 BYTE   AnM2
 BYTE   W01
 BYTE   AnM2
 BYTE   W01
 BYTE   AnM2
 BYTE   W01
 BYTE   GsM2
 BYTE   W01
 BYTE   GsM2
 BYTE   W01
 BYTE   Cs0
 BYTE   N32  Fs3
 BYTE   W13
 BYTE   VOL   24*song35_mvl/mxv
 BYTE   W01
 BYTE   Cn0
 BYTE   W01
 BYTE   BnM1
 BYTE   W01
 BYTE   AsM1
 BYTE   W01
 BYTE   AsM1
 BYTE   W01
 BYTE   AnM1
 BYTE   W01
 BYTE   GsM1
 BYTE   W01
 BYTE   GsM1
 BYTE   W01
 BYTE   GnM1
 BYTE   W01
 BYTE   FsM1
 BYTE   W01
 BYTE   FnM1
 BYTE   W01
 BYTE   EnM1
 BYTE   W01
 BYTE   DsM1
 BYTE   W01
 BYTE   DnM1
 BYTE   W01
 BYTE   CsM1
 BYTE   W01
 BYTE   CnM1
 BYTE   W01
 BYTE   BnM2
 BYTE   W01
 BYTE   PEND 
// 002   ----------------------------------------
Label_8_01390F6D:
 BYTE   VOL   9*song35_mvl/mxv
 BYTE   W01
 BYTE   AnM2
 BYTE   W01
 BYTE   AnM2
 BYTE   W01
 BYTE   AnM2
 BYTE   W01
 BYTE   GsM2
 BYTE   W01
 BYTE   GsM2
 BYTE   W01
 BYTE   Cs0
 BYTE   N36  Fs3  v127
 BYTE   W13
 BYTE   VOL   24*song35_mvl/mxv
 BYTE   W01
 BYTE   Cn0
 BYTE   W01
 BYTE   BnM1
 BYTE   W01
 BYTE   AsM1
 BYTE   W01
 BYTE   AsM1
 BYTE   W01
 BYTE   AnM1
 BYTE   W01
 BYTE   GsM1
 BYTE   W01
 BYTE   GsM1
 BYTE   W01
 BYTE   GnM1
 BYTE   W01
 BYTE   FsM1
 BYTE   W01
 BYTE   FnM1
 BYTE   W01
 BYTE   EnM1
 BYTE   W01
 BYTE   DsM1
 BYTE   W01
 BYTE   DnM1
 BYTE   W01
 BYTE   CsM1
 BYTE   W01
 BYTE   CnM1
 BYTE   W01
 BYTE   BnM2
 BYTE   W01
 BYTE   AnM2
 BYTE   W01
 BYTE   AnM2
 BYTE   W01
 BYTE   AnM2
 BYTE   W01
 BYTE   AnM2
 BYTE   W01
 BYTE   GsM2
 BYTE   W01
 BYTE   GsM2
 BYTE   W01
 BYTE   Cs0
 BYTE   N32
 BYTE   W13
 BYTE   VOL   24*song35_mvl/mxv
 BYTE   W01
 BYTE   Cn0
 BYTE   W01
 BYTE   BnM1
 BYTE   W01
 BYTE   AsM1
 BYTE   W01
 BYTE   AsM1
 BYTE   W01
 BYTE   AnM1
 BYTE   W01
 BYTE   GsM1
 BYTE   W01
 BYTE   GsM1
 BYTE   W01
 BYTE   GnM1
 BYTE   W01
 BYTE   FsM1
 BYTE   W01
 BYTE   FnM1
 BYTE   W01
 BYTE   EnM1
 BYTE   W01
 BYTE   DsM1
 BYTE   W01
 BYTE   DnM1
 BYTE   W01
 BYTE   CsM1
 BYTE   W01
 BYTE   CnM1
 BYTE   W01
 BYTE   BnM2
 BYTE   W01
 BYTE   AnM2
 BYTE   W01
 BYTE   AnM2
 BYTE   W01
 BYTE   AnM2
 BYTE   W01
 BYTE   AnM2
 BYTE   W01
 BYTE   GsM2
 BYTE   W01
 BYTE   GsM2
 BYTE   W01
 BYTE   Cs0
 BYTE   N32
 BYTE   W13
 BYTE   VOL   24*song35_mvl/mxv
 BYTE   W01
 BYTE   Cn0
 BYTE   W01
 BYTE   BnM1
 BYTE   W01
 BYTE   AsM1
 BYTE   W01
 BYTE   AsM1
 BYTE   W01
 BYTE   PEND 
// 003   ----------------------------------------
 BYTE   AnM1
 BYTE   W01
 BYTE   GsM1
 BYTE   W01
 BYTE   GsM1
 BYTE   W01
 BYTE   GnM1
 BYTE   W01
 BYTE   FsM1
 BYTE   W01
 BYTE   FnM1
 BYTE   W01
 BYTE   EnM1
 BYTE   W01
 BYTE   DsM1
 BYTE   W01
 BYTE   DnM1
 BYTE   W01
 BYTE   CsM1
 BYTE   W01
 BYTE   CnM1
 BYTE   W01
 BYTE   BnM2
 BYTE   W01
 BYTE   AnM2
 BYTE   W01
 BYTE   AnM2
 BYTE   W01
 BYTE   AnM2
 BYTE   W01
 BYTE   AnM2
 BYTE   W01
 BYTE   GsM2
 BYTE   W01
 BYTE   GsM2
 BYTE   W01
 BYTE   Cs0
 BYTE   N32  Dn3
 BYTE   W13
 BYTE   VOL   24*song35_mvl/mxv
 BYTE   W01
 BYTE   Cn0
 BYTE   W01
 BYTE   BnM1
 BYTE   W01
 BYTE   AsM1
 BYTE   W01
 BYTE   AsM1
 BYTE   W01
 BYTE   AnM1
 BYTE   W01
 BYTE   GsM1
 BYTE   W01
 BYTE   GsM1
 BYTE   W01
 BYTE   GnM1
 BYTE   W01
 BYTE   FsM1
 BYTE   W01
 BYTE   FnM1
 BYTE   W01
 BYTE   EnM1
 BYTE   W01
 BYTE   DsM1
 BYTE   W01
 BYTE   DnM1
 BYTE   W01
 BYTE   CsM1
 BYTE   W01
 BYTE   CnM1
 BYTE   W01
 BYTE   BnM2
 BYTE   W01
 BYTE   AnM2
 BYTE   W01
 BYTE   AnM2
 BYTE   W01
 BYTE   AnM2
 BYTE   W01
 BYTE   AnM2
 BYTE   W01
 BYTE   GsM2
 BYTE   W01
 BYTE   GsM2
 BYTE   W01
 BYTE   Cs0
 BYTE   N36
 BYTE   W13
 BYTE   VOL   24*song35_mvl/mxv
 BYTE   W01
 BYTE   Cn0
 BYTE   W01
 BYTE   BnM1
 BYTE   W01
 BYTE   AsM1
 BYTE   W01
 BYTE   AsM1
 BYTE   W01
 BYTE   AnM1
 BYTE   W01
 BYTE   GsM1
 BYTE   W01
 BYTE   GsM1
 BYTE   W01
 BYTE   GnM1
 BYTE   W01
 BYTE   FsM1
 BYTE   W01
 BYTE   FnM1
 BYTE   W01
 BYTE   EnM1
 BYTE   W01
 BYTE   DsM1
 BYTE   W01
 BYTE   DnM1
 BYTE   W01
 BYTE   CsM1
 BYTE   W01
 BYTE   CnM1
 BYTE   W01
 BYTE   BnM2
 BYTE   W01
 BYTE   AnM2
 BYTE   W01
 BYTE   AnM2
 BYTE   W01
 BYTE   AnM2
 BYTE   W01
 BYTE   AnM2
 BYTE   W01
 BYTE   GsM2
 BYTE   W01
 BYTE   GsM2
 BYTE   W01
 BYTE   Cs0
 BYTE   N32
 BYTE   W06
// 004   ----------------------------------------
 BYTE   PATT
  POIN2 Label_8_01390EE1
// 005   ----------------------------------------
 BYTE   PATT
  POIN2 Label_8_01390F6D
// 006   ----------------------------------------
Label_8_01391085:
 BYTE   VOL   21*song35_mvl/mxv
 BYTE   W01
 BYTE   GsM1
 BYTE   W01
 BYTE   GsM1
 BYTE   W01
 BYTE   GnM1
 BYTE   W01
 BYTE   FsM1
 BYTE   W01
 BYTE   FnM1
 BYTE   W01
 BYTE   EnM1
 BYTE   W01
 BYTE   DsM1
 BYTE   W01
 BYTE   DnM1
 BYTE   W01
 BYTE   CsM1
 BYTE   W01
 BYTE   CnM1
 BYTE   W01
 BYTE   BnM2
 BYTE   W01
 BYTE   AnM2
 BYTE   W01
 BYTE   AnM2
 BYTE   W01
 BYTE   AnM2
 BYTE   W01
 BYTE   AnM2
 BYTE   W01
 BYTE   GsM2
 BYTE   W01
 BYTE   GsM2
 BYTE   W01
 BYTE   Cs0
 BYTE   N32  Dn3  v127
 BYTE   W13
 BYTE   VOL   24*song35_mvl/mxv
 BYTE   W01
 BYTE   Cn0
 BYTE   W01
 BYTE   BnM1
 BYTE   W01
 BYTE   AsM1
 BYTE   W01
 BYTE   AsM1
 BYTE   W01
 BYTE   AnM1
 BYTE   W01
 BYTE   GsM1
 BYTE   W01
 BYTE   GsM1
 BYTE   W01
 BYTE   GnM1
 BYTE   W01
 BYTE   FsM1
 BYTE   W01
 BYTE   FnM1
 BYTE   W01
 BYTE   EnM1
 BYTE   W01
 BYTE   DsM1
 BYTE   W01
 BYTE   DnM1
 BYTE   W01
 BYTE   CsM1
 BYTE   W01
 BYTE   CnM1
 BYTE   W01
 BYTE   BnM2
 BYTE   W01
 BYTE   AnM2
 BYTE   W01
 BYTE   AnM2
 BYTE   W01
 BYTE   AnM2
 BYTE   W01
 BYTE   AnM2
 BYTE   W01
 BYTE   GsM2
 BYTE   W01
 BYTE   GsM2
 BYTE   W01
 BYTE   Cs0
 BYTE   N32
 BYTE   W13
 BYTE   VOL   24*song35_mvl/mxv
 BYTE   W01
 BYTE   Cn0
 BYTE   W01
 BYTE   BnM1
 BYTE   W01
 BYTE   AsM1
 BYTE   W01
 BYTE   AsM1
 BYTE   W01
 BYTE   AnM1
 BYTE   W01
 BYTE   GsM1
 BYTE   W01
 BYTE   GsM1
 BYTE   W01
 BYTE   GnM1
 BYTE   W01
 BYTE   FsM1
 BYTE   W01
 BYTE   FnM1
 BYTE   W01
 BYTE   EnM1
 BYTE   W01
 BYTE   DsM1
 BYTE   W01
 BYTE   DnM1
 BYTE   W01
 BYTE   CsM1
 BYTE   W01
 BYTE   CnM1
 BYTE   W01
 BYTE   BnM2
 BYTE   W01
 BYTE   AnM2
 BYTE   W01
 BYTE   AnM2
 BYTE   W01
 BYTE   AnM2
 BYTE   W01
 BYTE   AnM2
 BYTE   W01
 BYTE   GsM2
 BYTE   W01
 BYTE   GsM2
 BYTE   W01
 BYTE   Cs0
 BYTE   N36
 BYTE   W06
 BYTE   PEND 
// 007   ----------------------------------------
 BYTE   PATT
  POIN2 Label_8_01390EE1
// 008   ----------------------------------------
 BYTE   VOL   9*song35_mvl/mxv
 BYTE   W01
 BYTE   AnM2
 BYTE   W01
 BYTE   AnM2
 BYTE   W01
 BYTE   AnM2
 BYTE   W01
 BYTE   GsM2
 BYTE   W01
 BYTE   GsM2
 BYTE   W01
 BYTE   Cs0
 BYTE   N32  Fs3  v127
 BYTE   W13
 BYTE   VOL   24*song35_mvl/mxv
 BYTE   W01
 BYTE   Cn0
 BYTE   W01
 BYTE   BnM1
 BYTE   W01
 BYTE   AsM1
 BYTE   W01
 BYTE   AsM1
 BYTE   W01
 BYTE   AnM1
 BYTE   W01
 BYTE   GsM1
 BYTE   W01
 BYTE   GsM1
 BYTE   W01
 BYTE   GnM1
 BYTE   W01
 BYTE   FsM1
 BYTE   W01
 BYTE   FnM1
 BYTE   W01
 BYTE   EnM1
 BYTE   W01
 BYTE   DsM1
 BYTE   W01
 BYTE   DnM1
 BYTE   W01
 BYTE   CsM1
 BYTE   W01
 BYTE   CnM1
 BYTE   W01
 BYTE   BnM2
 BYTE   W01
 BYTE   AnM2
 BYTE   W01
 BYTE   AnM2
 BYTE   W01
 BYTE   AnM2
 BYTE   W01
 BYTE   AnM2
 BYTE   W01
 BYTE   GsM2
 BYTE   W01
 BYTE   GsM2
 BYTE   W01
 BYTE   Cs0
 BYTE   N36
 BYTE   W13
 BYTE   VOL   24*song35_mvl/mxv
 BYTE   W01
 BYTE   Cn0
 BYTE   W01
 BYTE   BnM1
 BYTE   W01
 BYTE   AsM1
 BYTE   W01
 BYTE   AsM1
 BYTE   W01
 BYTE   AnM1
 BYTE   W01
 BYTE   GsM1
 BYTE   W01
 BYTE   GsM1
 BYTE   W01
 BYTE   GnM1
 BYTE   W01
 BYTE   FsM1
 BYTE   W01
 BYTE   FnM1
 BYTE   W01
 BYTE   EnM1
 BYTE   W01
 BYTE   DsM1
 BYTE   W01
 BYTE   DnM1
 BYTE   W01
 BYTE   CsM1
 BYTE   W01
 BYTE   CnM1
 BYTE   W01
 BYTE   BnM2
 BYTE   W01
 BYTE   AnM2
 BYTE   W01
 BYTE   AnM2
 BYTE   W01
 BYTE   AnM2
 BYTE   W01
 BYTE   AnM2
 BYTE   W01
 BYTE   GsM2
 BYTE   W01
 BYTE   GsM2
 BYTE   W01
 BYTE   Cs0
 BYTE   N32
 BYTE   W13
 BYTE   VOL   24*song35_mvl/mxv
 BYTE   W01
 BYTE   Cn0
 BYTE   W01
 BYTE   BnM1
 BYTE   W01
 BYTE   AsM1
 BYTE   W01
 BYTE   AsM1
 BYTE   W01
// 009   ----------------------------------------
 BYTE   PATT
  POIN2 Label_8_01391085
// 010   ----------------------------------------
 BYTE   PATT
  POIN2 Label_8_01390EE1
// 011   ----------------------------------------
 BYTE   VOL   9*song35_mvl/mxv
 BYTE   W01
 BYTE   AnM2
 BYTE   W01
 BYTE   AnM2
 BYTE   W01
 BYTE   AnM2
 BYTE   W01
 BYTE   GsM2
 BYTE   W01
 BYTE   GsM2
 BYTE   W01
 BYTE   Cs0
 BYTE   N32  Fs3  v127
 BYTE   W13
 BYTE   VOL   24*song35_mvl/mxv
 BYTE   W01
 BYTE   Cn0
 BYTE   W01
 BYTE   BnM1
 BYTE   W01
 BYTE   AsM1
 BYTE   W01
 BYTE   AsM1
 BYTE   W01
 BYTE   AnM1
 BYTE   W01
 BYTE   GsM1
 BYTE   W01
 BYTE   GsM1
 BYTE   W01
 BYTE   GnM1
 BYTE   W01
 BYTE   FsM1
 BYTE   W01
 BYTE   FnM1
 BYTE   W01
 BYTE   EnM1
 BYTE   W01
 BYTE   DsM1
 BYTE   W01
 BYTE   DnM1
 BYTE   W01
 BYTE   CsM1
 BYTE   W01
 BYTE   CnM1
 BYTE   W01
 BYTE   BnM2
 BYTE   W01
 BYTE   AnM2
 BYTE   W01
 BYTE   AnM2
 BYTE   W01
 BYTE   AnM2
 BYTE   W01
 BYTE   AnM2
 BYTE   W01
 BYTE   GsM2
 BYTE   W01
 BYTE   GsM2
 BYTE   W01
 BYTE   Cs0
 BYTE   N32
 BYTE   W13
 BYTE   VOL   24*song35_mvl/mxv
 BYTE   W01
 BYTE   Cn0
 BYTE   W01
 BYTE   BnM1
 BYTE   W01
 BYTE   AsM1
 BYTE   W01
 BYTE   AsM1
 BYTE   W01
 BYTE   AnM1
 BYTE   W01
 BYTE   GsM1
 BYTE   W01
 BYTE   GsM1
 BYTE   W01
 BYTE   GnM1
 BYTE   W01
 BYTE   FsM1
 BYTE   W01
 BYTE   FnM1
 BYTE   W01
 BYTE   EnM1
 BYTE   W01
 BYTE   DsM1
 BYTE   W01
 BYTE   DnM1
 BYTE   W01
 BYTE   CsM1
 BYTE   W01
 BYTE   CnM1
 BYTE   W01
 BYTE   BnM2
 BYTE   W01
 BYTE   AnM2
 BYTE   W01
 BYTE   AnM2
 BYTE   W01
 BYTE   AnM2
 BYTE   W01
 BYTE   AnM2
 BYTE   W01
 BYTE   GsM2
 BYTE   W01
 BYTE   GsM2
 BYTE   W01
 BYTE   Cs0
 BYTE   N36
 BYTE   W13
 BYTE   VOL   24*song35_mvl/mxv
 BYTE   W01
 BYTE   Cn0
 BYTE   W01
 BYTE   BnM1
 BYTE   W01
 BYTE   AsM1
 BYTE   W01
 BYTE   AsM1
 BYTE   W01
// 012   ----------------------------------------
Label_8_01391225:
 BYTE   VOL   21*song35_mvl/mxv
 BYTE   W01
 BYTE   GsM1
 BYTE   W01
 BYTE   GsM1
 BYTE   W01
 BYTE   GnM1
 BYTE   W01
 BYTE   FsM1
 BYTE   W01
 BYTE   FnM1
 BYTE   W01
 BYTE   EnM1
 BYTE   W01
 BYTE   DsM1
 BYTE   W01
 BYTE   DnM1
 BYTE   W01
 BYTE   CsM1
 BYTE   W01
 BYTE   CnM1
 BYTE   W01
 BYTE   BnM2
 BYTE   W01
 BYTE   AnM2
 BYTE   W01
 BYTE   AnM2
 BYTE   W01
 BYTE   AnM2
 BYTE   W01
 BYTE   AnM2
 BYTE   W01
 BYTE   GsM2
 BYTE   W01
 BYTE   GsM2
 BYTE   W01
 BYTE   Cs0
 BYTE   N32  Gn3  v127
 BYTE   W13
 BYTE   VOL   24*song35_mvl/mxv
 BYTE   W01
 BYTE   Cn0
 BYTE   W01
 BYTE   BnM1
 BYTE   W01
 BYTE   AsM1
 BYTE   W01
 BYTE   AsM1
 BYTE   W01
 BYTE   AnM1
 BYTE   W01
 BYTE   GsM1
 BYTE   W01
 BYTE   GsM1
 BYTE   W01
 BYTE   GnM1
 BYTE   W01
 BYTE   FsM1
 BYTE   W01
 BYTE   FnM1
 BYTE   W01
 BYTE   EnM1
 BYTE   W01
 BYTE   DsM1
 BYTE   W01
 BYTE   DnM1
 BYTE   W01
 BYTE   CsM1
 BYTE   W01
 BYTE   CnM1
 BYTE   W01
 BYTE   BnM2
 BYTE   W01
 BYTE   AnM2
 BYTE   W01
 BYTE   AnM2
 BYTE   W01
 BYTE   AnM2
 BYTE   W01
 BYTE   AnM2
 BYTE   W01
 BYTE   GsM2
 BYTE   W01
 BYTE   GsM2
 BYTE   W01
 BYTE   Cs0
 BYTE   N32
 BYTE   W13
 BYTE   VOL   24*song35_mvl/mxv
 BYTE   W01
 BYTE   Cn0
 BYTE   W01
 BYTE   BnM1
 BYTE   W01
 BYTE   AsM1
 BYTE   W01
 BYTE   AsM1
 BYTE   W01
 BYTE   AnM1
 BYTE   W01
 BYTE   GsM1
 BYTE   W01
 BYTE   GsM1
 BYTE   W01
 BYTE   GnM1
 BYTE   W01
 BYTE   FsM1
 BYTE   W01
 BYTE   FnM1
 BYTE   W01
 BYTE   EnM1
 BYTE   W01
 BYTE   DsM1
 BYTE   W01
 BYTE   DnM1
 BYTE   W01
 BYTE   CsM1
 BYTE   W01
 BYTE   CnM1
 BYTE   W01
 BYTE   BnM2
 BYTE   W01
 BYTE   AnM2
 BYTE   W01
 BYTE   AnM2
 BYTE   W01
 BYTE   AnM2
 BYTE   W01
 BYTE   AnM2
 BYTE   W01
 BYTE   GsM2
 BYTE   W01
 BYTE   GsM2
 BYTE   W01
 BYTE   Cs0
 BYTE   N32
 BYTE   W06
 BYTE   PEND 
// 013   ----------------------------------------
 BYTE   W07
 BYTE   VOL   24*song35_mvl/mxv
 BYTE   W01
 BYTE   Cn0
 BYTE   W01
 BYTE   BnM1
 BYTE   W01
 BYTE   AsM1
 BYTE   W01
 BYTE   AsM1
 BYTE   W01
 BYTE   AnM1
 BYTE   W01
 BYTE   GsM1
 BYTE   W01
 BYTE   GsM1
 BYTE   W01
 BYTE   GnM1
 BYTE   W01
 BYTE   FsM1
 BYTE   W01
 BYTE   FnM1
 BYTE   W01
 BYTE   EnM1
 BYTE   W01
 BYTE   DsM1
 BYTE   W01
 BYTE   DnM1
 BYTE   W01
 BYTE   CsM1
 BYTE   W01
 BYTE   CnM1
 BYTE   W01
 BYTE   BnM2
 BYTE   W01
 BYTE   AnM2
 BYTE   W01
 BYTE   AnM2
 BYTE   W01
 BYTE   AnM2
 BYTE   W01
 BYTE   AnM2
 BYTE   W01
 BYTE   GsM2
 BYTE   W01
 BYTE   GsM2
 BYTE   W01
 BYTE   Cs0
 BYTE   N36
 BYTE   W13
 BYTE   VOL   24*song35_mvl/mxv
 BYTE   W01
 BYTE   Cn0
 BYTE   W01
 BYTE   BnM1
 BYTE   W01
 BYTE   AsM1
 BYTE   W01
 BYTE   AsM1
 BYTE   W01
 BYTE   AnM1
 BYTE   W01
 BYTE   GsM1
 BYTE   W01
 BYTE   GsM1
 BYTE   W01
 BYTE   GnM1
 BYTE   W01
 BYTE   FsM1
 BYTE   W01
 BYTE   FnM1
 BYTE   W01
 BYTE   EnM1
 BYTE   W01
 BYTE   DsM1
 BYTE   W01
 BYTE   DnM1
 BYTE   W01
 BYTE   CsM1
 BYTE   W01
 BYTE   CnM1
 BYTE   W01
 BYTE   BnM2
 BYTE   W01
 BYTE   AnM2
 BYTE   W01
 BYTE   AnM2
 BYTE   W01
 BYTE   AnM2
 BYTE   W01
 BYTE   AnM2
 BYTE   W01
 BYTE   GsM2
 BYTE   W01
 BYTE   GsM2
 BYTE   W01
 BYTE   Cs0
 BYTE   N32  Bn3
 BYTE   W13
 BYTE   VOL   24*song35_mvl/mxv
 BYTE   W01
 BYTE   Cn0
 BYTE   W01
 BYTE   BnM1
 BYTE   W01
 BYTE   AsM1
 BYTE   W01
 BYTE   AsM1
 BYTE   W01
 BYTE   AnM1
 BYTE   W01
 BYTE   GsM1
 BYTE   W01
 BYTE   GsM1
 BYTE   W01
 BYTE   GnM1
 BYTE   W01
 BYTE   FsM1
 BYTE   W01
 BYTE   FnM1
 BYTE   W01
 BYTE   EnM1
 BYTE   W01
 BYTE   DsM1
 BYTE   W01
 BYTE   DnM1
 BYTE   W01
 BYTE   CsM1
 BYTE   W01
 BYTE   CnM1
 BYTE   W01
 BYTE   BnM2
 BYTE   W01
// 014   ----------------------------------------
 BYTE   AnM2
 BYTE   W01
 BYTE   AnM2
 BYTE   W01
 BYTE   AnM2
 BYTE   W01
 BYTE   AnM2
 BYTE   W01
 BYTE   GsM2
 BYTE   W01
 BYTE   GsM2
 BYTE   W01
 BYTE   Cs0
 BYTE   N32
 BYTE   W13
 BYTE   VOL   24*song35_mvl/mxv
 BYTE   W01
 BYTE   Cn0
 BYTE   W01
 BYTE   BnM1
 BYTE   W01
 BYTE   AsM1
 BYTE   W01
 BYTE   AsM1
 BYTE   W01
 BYTE   AnM1
 BYTE   W01
 BYTE   GsM1
 BYTE   W01
 BYTE   GsM1
 BYTE   W01
 BYTE   GnM1
 BYTE   W01
 BYTE   FsM1
 BYTE   W01
 BYTE   FnM1
 BYTE   W01
 BYTE   EnM1
 BYTE   W01
 BYTE   DsM1
 BYTE   W01
 BYTE   DnM1
 BYTE   W01
 BYTE   CsM1
 BYTE   W01
 BYTE   CnM1
 BYTE   W01
 BYTE   BnM2
 BYTE   W01
 BYTE   AnM2
 BYTE   W01
 BYTE   AnM2
 BYTE   W01
 BYTE   AnM2
 BYTE   W01
 BYTE   AnM2
 BYTE   W01
 BYTE   GsM2
 BYTE   W01
 BYTE   GsM2
 BYTE   W01
 BYTE   Cs0
 BYTE   N32
 BYTE   W13
 BYTE   VOL   24*song35_mvl/mxv
 BYTE   W01
 BYTE   Cn0
 BYTE   W01
 BYTE   BnM1
 BYTE   W01
 BYTE   AsM1
 BYTE   W01
 BYTE   AsM1
 BYTE   W01
 BYTE   AnM1
 BYTE   W01
 BYTE   GsM1
 BYTE   W01
 BYTE   GsM1
 BYTE   W01
 BYTE   GnM1
 BYTE   W01
 BYTE   FsM1
 BYTE   W01
 BYTE   FnM1
 BYTE   W01
 BYTE   EnM1
 BYTE   W01
 BYTE   DsM1
 BYTE   W01
 BYTE   DnM1
 BYTE   W01
 BYTE   CsM1
 BYTE   W01
 BYTE   CnM1
 BYTE   W01
 BYTE   BnM2
 BYTE   W01
 BYTE   AnM2
 BYTE   W01
 BYTE   AnM2
 BYTE   W01
 BYTE   AnM2
 BYTE   W01
 BYTE   AnM2
 BYTE   W01
 BYTE   GsM2
 BYTE   W01
 BYTE   GsM2
 BYTE   W01
 BYTE   Cs0
 BYTE   N36
 BYTE   W13
 BYTE   VOL   24*song35_mvl/mxv
 BYTE   W01
 BYTE   Cn0
 BYTE   W01
 BYTE   BnM1
 BYTE   W01
 BYTE   AsM1
 BYTE   W01
 BYTE   AsM1
 BYTE   W01
// 015   ----------------------------------------
 BYTE   PATT
  POIN2 Label_8_01391225
// 016   ----------------------------------------
 BYTE   W07
 BYTE   VOL   24*song35_mvl/mxv
 BYTE   W01
 BYTE   Cn0
 BYTE   W01
 BYTE   BnM1
 BYTE   W01
 BYTE   AsM1
 BYTE   W01
 BYTE   AsM1
 BYTE   W01
 BYTE   AnM1
 BYTE   W01
 BYTE   GsM1
 BYTE   W01
 BYTE   GsM1
 BYTE   W01
 BYTE   GnM1
 BYTE   W01
 BYTE   FsM1
 BYTE   W01
 BYTE   FnM1
 BYTE   W01
 BYTE   EnM1
 BYTE   W01
 BYTE   DsM1
 BYTE   W01
 BYTE   DnM1
 BYTE   W01
 BYTE   CsM1
 BYTE   W01
 BYTE   CnM1
 BYTE   W01
 BYTE   BnM2
 BYTE   W01
 BYTE   AnM2
 BYTE   W01
 BYTE   AnM2
 BYTE   W01
 BYTE   AnM2
 BYTE   W01
 BYTE   AnM2
 BYTE   W01
 BYTE   GsM2
 BYTE   W01
 BYTE   GsM2
 BYTE   W01
 BYTE   Cs0
 BYTE   N32  Gn3  v127
 BYTE   W13
 BYTE   VOL   24*song35_mvl/mxv
 BYTE   W01
 BYTE   Cn0
 BYTE   W01
 BYTE   BnM1
 BYTE   W01
 BYTE   AsM1
 BYTE   W01
 BYTE   AsM1
 BYTE   W01
 BYTE   AnM1
 BYTE   W01
 BYTE   GsM1
 BYTE   W01
 BYTE   GsM1
 BYTE   W01
 BYTE   GnM1
 BYTE   W01
 BYTE   FsM1
 BYTE   W01
 BYTE   FnM1
 BYTE   W01
 BYTE   EnM1
 BYTE   W01
 BYTE   DsM1
 BYTE   W01
 BYTE   DnM1
 BYTE   W01
 BYTE   CsM1
 BYTE   W01
 BYTE   CnM1
 BYTE   W01
 BYTE   BnM2
 BYTE   W01
 BYTE   AnM2
 BYTE   W01
 BYTE   AnM2
 BYTE   W01
 BYTE   AnM2
 BYTE   W01
 BYTE   AnM2
 BYTE   W01
 BYTE   GsM2
 BYTE   W01
 BYTE   GsM2
 BYTE   W01
 BYTE   Cs0
 BYTE   N36  Cn4
 BYTE   W13
 BYTE   VOL   24*song35_mvl/mxv
 BYTE   W01
 BYTE   Cn0
 BYTE   W01
 BYTE   BnM1
 BYTE   W01
 BYTE   AsM1
 BYTE   W01
 BYTE   AsM1
 BYTE   W01
 BYTE   AnM1
 BYTE   W01
 BYTE   GsM1
 BYTE   W01
 BYTE   GsM1
 BYTE   W01
 BYTE   GnM1
 BYTE   W01
 BYTE   FsM1
 BYTE   W01
 BYTE   FnM1
 BYTE   W01
 BYTE   EnM1
 BYTE   W01
 BYTE   DsM1
 BYTE   W01
 BYTE   DnM1
 BYTE   W01
 BYTE   CsM1
 BYTE   W01
 BYTE   CnM1
 BYTE   W01
 BYTE   BnM2
 BYTE   W01
// 017   ----------------------------------------
 BYTE   AnM2
 BYTE   W01
 BYTE   AnM2
 BYTE   W01
 BYTE   AnM2
 BYTE   W01
 BYTE   AnM2
 BYTE   W01
 BYTE   GsM2
 BYTE   W01
 BYTE   GsM2
 BYTE   W01
 BYTE   Cs0
 BYTE   N32
 BYTE   W13
 BYTE   VOL   24*song35_mvl/mxv
 BYTE   W01
 BYTE   Cn0
 BYTE   W01
 BYTE   BnM1
 BYTE   W01
 BYTE   AsM1
 BYTE   W01
 BYTE   AsM1
 BYTE   W01
 BYTE   AnM1
 BYTE   W01
 BYTE   GsM1
 BYTE   W01
 BYTE   GsM1
 BYTE   W01
 BYTE   GnM1
 BYTE   W01
 BYTE   FsM1
 BYTE   W01
 BYTE   FnM1
 BYTE   W01
 BYTE   EnM1
 BYTE   W01
 BYTE   DsM1
 BYTE   W01
 BYTE   DnM1
 BYTE   W01
 BYTE   CsM1
 BYTE   W01
 BYTE   CnM1
 BYTE   W01
 BYTE   BnM2
 BYTE   W01
 BYTE   AnM2
 BYTE   W01
 BYTE   AnM2
 BYTE   W01
 BYTE   AnM2
 BYTE   W01
 BYTE   AnM2
 BYTE   W01
 BYTE   GsM2
 BYTE   W01
 BYTE   GsM2
 BYTE   W01
 BYTE   Cs0
 BYTE   N32  Dn4
 BYTE   W13
 BYTE   VOL   24*song35_mvl/mxv
 BYTE   W01
 BYTE   Cn0
 BYTE   W01
 BYTE   BnM1
 BYTE   W01
 BYTE   AsM1
 BYTE   W01
 BYTE   AsM1
 BYTE   W01
 BYTE   AnM1
 BYTE   W01
 BYTE   GsM1
 BYTE   W01
 BYTE   GsM1
 BYTE   W01
 BYTE   GnM1
 BYTE   W01
 BYTE   FsM1
 BYTE   W01
 BYTE   FnM1
 BYTE   W01
 BYTE   EnM1
 BYTE   W01
 BYTE   DsM1
 BYTE   W01
 BYTE   DnM1
 BYTE   W01
 BYTE   CsM1
 BYTE   W01
 BYTE   CnM1
 BYTE   W01
 BYTE   BnM2
 BYTE   W01
 BYTE   AnM2
 BYTE   W01
 BYTE   AnM2
 BYTE   W01
 BYTE   AnM2
 BYTE   W01
 BYTE   AnM2
 BYTE   W01
 BYTE   GsM2
 BYTE   W01
 BYTE   GsM2
 BYTE   W01
 BYTE   Cs0
 BYTE   N16
 BYTE   W13
 BYTE   VOL   24*song35_mvl/mxv
 BYTE   W01
 BYTE   Cn0
 BYTE   W01
 BYTE   BnM1
 BYTE   W01
 BYTE   AsM1
 BYTE   W01
 BYTE   GoTo
  POIN2 Label_8_01390E6A
// 018   ----------------------------------------
 BYTE   VOL   22*song35_mvl/mxv
 BYTE   CnM2
 BYTE   PAN   c_v+0
 BYTE   BEND   c_v+0
 BYTE   FINE

//**************** Track 10 (Midi-Chn.9) ****************//

song35_010:
// 000   ----------------------------------------
 BYTE   KEYSH   song35_key+0
Label_9_013914DA:
 BYTE   VOICE   1
 BYTE   VOL   0*song35_mvl/mxv
 BYTE   PAN   c_v+0
 BYTE   VOL   0*song35_mvl/mxv
 BYTE   PAN   c_v+0
 BYTE   BEND   c_v+0
 BYTE   W18
 BYTE   VOL   25*song35_mvl/mxv
 BYTE   N36  Gn2  v127
 BYTE   W13
 BYTE   VOL   24*song35_mvl/mxv
 BYTE   W01
 BYTE   Cn0
 BYTE   W01
 BYTE   BnM1
 BYTE   W01
 BYTE   AsM1
 BYTE   W01
 BYTE   AsM1
 BYTE   W01
 BYTE   AnM1
 BYTE   W01
 BYTE   GsM1
 BYTE   W01
 BYTE   GsM1
 BYTE   W01
 BYTE   GnM1
 BYTE   W01
 BYTE   FsM1
 BYTE   W01
 BYTE   FnM1
 BYTE   W01
 BYTE   EnM1
 BYTE   W01
 BYTE   DsM1
 BYTE   W01
 BYTE   DnM1
 BYTE   W01
 BYTE   CsM1
 BYTE   W01
 BYTE   CnM1
 BYTE   W01
 BYTE   BnM2
 BYTE   W01
 BYTE   AnM2
 BYTE   W01
 BYTE   AnM2
 BYTE   W01
 BYTE   AnM2
 BYTE   W01
 BYTE   AnM2
 BYTE   W01
 BYTE   GsM2
 BYTE   W01
 BYTE   GsM2
 BYTE   W01
 BYTE   Cs0
 BYTE   N32
 BYTE   W13
 BYTE   VOL   24*song35_mvl/mxv
 BYTE   W01
 BYTE   Cn0
 BYTE   W01
 BYTE   BnM1
 BYTE   W01
 BYTE   AsM1
 BYTE   W01
 BYTE   AsM1
 BYTE   W01
 BYTE   AnM1
 BYTE   W01
 BYTE   GsM1
 BYTE   W01
 BYTE   GsM1
 BYTE   W01
 BYTE   GnM1
 BYTE   W01
 BYTE   FsM1
 BYTE   W01
 BYTE   FnM1
 BYTE   W01
 BYTE   EnM1
 BYTE   W01
 BYTE   DsM1
 BYTE   W01
 BYTE   DnM1
 BYTE   W01
 BYTE   CsM1
 BYTE   W01
 BYTE   CnM1
 BYTE   W01
 BYTE   BnM2
 BYTE   W01
 BYTE   AnM2
 BYTE   W01
 BYTE   AnM2
 BYTE   W01
 BYTE   AnM2
 BYTE   W01
 BYTE   AnM2
 BYTE   W01
 BYTE   GsM2
 BYTE   W01
 BYTE   GsM2
 BYTE   W01
 BYTE   Cs0
 BYTE   N32
 BYTE   W06
// 001   ----------------------------------------
Label_9_01391551:
 BYTE   W07
 BYTE   VOL   24*song35_mvl/mxv
 BYTE   W01
 BYTE   Cn0
 BYTE   W01
 BYTE   BnM1
 BYTE   W01
 BYTE   AsM1
 BYTE   W01
 BYTE   AsM1
 BYTE   W01
 BYTE   AnM1
 BYTE   W01
 BYTE   GsM1
 BYTE   W01
 BYTE   GsM1
 BYTE   W01
 BYTE   GnM1
 BYTE   W01
 BYTE   FsM1
 BYTE   W01
 BYTE   FnM1
 BYTE   W01
 BYTE   EnM1
 BYTE   W01
 BYTE   DsM1
 BYTE   W01
 BYTE   DnM1
 BYTE   W01
 BYTE   CsM1
 BYTE   W01
 BYTE   CnM1
 BYTE   W01
 BYTE   BnM2
 BYTE   W01
 BYTE   AnM2
 BYTE   W01
 BYTE   AnM2
 BYTE   W01
 BYTE   AnM2
 BYTE   W01
 BYTE   AnM2
 BYTE   W01
 BYTE   GsM2
 BYTE   W01
 BYTE   GsM2
 BYTE   W01
 BYTE   Cs0
 BYTE   N32  Gn2  v127
 BYTE   W13
 BYTE   VOL   24*song35_mvl/mxv
 BYTE   W01
 BYTE   Cn0
 BYTE   W01
 BYTE   BnM1
 BYTE   W01
 BYTE   AsM1
 BYTE   W01
 BYTE   AsM1
 BYTE   W01
 BYTE   AnM1
 BYTE   W01
 BYTE   GsM1
 BYTE   W01
 BYTE   GsM1
 BYTE   W01
 BYTE   GnM1
 BYTE   W01
 BYTE   FsM1
 BYTE   W01
 BYTE   FnM1
 BYTE   W01
 BYTE   EnM1
 BYTE   W01
 BYTE   DsM1
 BYTE   W01
 BYTE   DnM1
 BYTE   W01
 BYTE   CsM1
 BYTE   W01
 BYTE   CnM1
 BYTE   W01
 BYTE   BnM2
 BYTE   W01
 BYTE   AnM2
 BYTE   W01
 BYTE   AnM2
 BYTE   W01
 BYTE   AnM2
 BYTE   W01
 BYTE   AnM2
 BYTE   W01
 BYTE   GsM2
 BYTE   W01
 BYTE   GsM2
 BYTE   W01
 BYTE   Cs0
 BYTE   N32  Bn2
 BYTE   W13
 BYTE   VOL   24*song35_mvl/mxv
 BYTE   W01
 BYTE   Cn0
 BYTE   W01
 BYTE   BnM1
 BYTE   W01
 BYTE   AsM1
 BYTE   W01
 BYTE   AsM1
 BYTE   W01
 BYTE   AnM1
 BYTE   W01
 BYTE   GsM1
 BYTE   W01
 BYTE   GsM1
 BYTE   W01
 BYTE   GnM1
 BYTE   W01
 BYTE   FsM1
 BYTE   W01
 BYTE   FnM1
 BYTE   W01
 BYTE   EnM1
 BYTE   W01
 BYTE   DsM1
 BYTE   W01
 BYTE   DnM1
 BYTE   W01
 BYTE   CsM1
 BYTE   W01
 BYTE   CnM1
 BYTE   W01
 BYTE   BnM2
 BYTE   W01
 BYTE   PEND 
// 002   ----------------------------------------
Label_9_013915DD:
 BYTE   VOL   9*song35_mvl/mxv
 BYTE   W01
 BYTE   AnM2
 BYTE   W01
 BYTE   AnM2
 BYTE   W01
 BYTE   AnM2
 BYTE   W01
 BYTE   GsM2
 BYTE   W01
 BYTE   GsM2
 BYTE   W01
 BYTE   Cs0
 BYTE   N36  Bn2  v127
 BYTE   W13
 BYTE   VOL   24*song35_mvl/mxv
 BYTE   W01
 BYTE   Cn0
 BYTE   W01
 BYTE   BnM1
 BYTE   W01
 BYTE   AsM1
 BYTE   W01
 BYTE   AsM1
 BYTE   W01
 BYTE   AnM1
 BYTE   W01
 BYTE   GsM1
 BYTE   W01
 BYTE   GsM1
 BYTE   W01
 BYTE   GnM1
 BYTE   W01
 BYTE   FsM1
 BYTE   W01
 BYTE   FnM1
 BYTE   W01
 BYTE   EnM1
 BYTE   W01
 BYTE   DsM1
 BYTE   W01
 BYTE   DnM1
 BYTE   W01
 BYTE   CsM1
 BYTE   W01
 BYTE   CnM1
 BYTE   W01
 BYTE   BnM2
 BYTE   W01
 BYTE   AnM2
 BYTE   W01
 BYTE   AnM2
 BYTE   W01
 BYTE   AnM2
 BYTE   W01
 BYTE   AnM2
 BYTE   W01
 BYTE   GsM2
 BYTE   W01
 BYTE   GsM2
 BYTE   W01
 BYTE   Cs0
 BYTE   N32
 BYTE   W13
 BYTE   VOL   24*song35_mvl/mxv
 BYTE   W01
 BYTE   Cn0
 BYTE   W01
 BYTE   BnM1
 BYTE   W01
 BYTE   AsM1
 BYTE   W01
 BYTE   AsM1
 BYTE   W01
 BYTE   AnM1
 BYTE   W01
 BYTE   GsM1
 BYTE   W01
 BYTE   GsM1
 BYTE   W01
 BYTE   GnM1
 BYTE   W01
 BYTE   FsM1
 BYTE   W01
 BYTE   FnM1
 BYTE   W01
 BYTE   EnM1
 BYTE   W01
 BYTE   DsM1
 BYTE   W01
 BYTE   DnM1
 BYTE   W01
 BYTE   CsM1
 BYTE   W01
 BYTE   CnM1
 BYTE   W01
 BYTE   BnM2
 BYTE   W01
 BYTE   AnM2
 BYTE   W01
 BYTE   AnM2
 BYTE   W01
 BYTE   AnM2
 BYTE   W01
 BYTE   AnM2
 BYTE   W01
 BYTE   GsM2
 BYTE   W01
 BYTE   GsM2
 BYTE   W01
 BYTE   Cs0
 BYTE   N32
 BYTE   W13
 BYTE   VOL   24*song35_mvl/mxv
 BYTE   W01
 BYTE   Cn0
 BYTE   W01
 BYTE   BnM1
 BYTE   W01
 BYTE   AsM1
 BYTE   W01
 BYTE   AsM1
 BYTE   W01
 BYTE   PEND 
// 003   ----------------------------------------
 BYTE   AnM1
 BYTE   W01
 BYTE   GsM1
 BYTE   W01
 BYTE   GsM1
 BYTE   W01
 BYTE   GnM1
 BYTE   W01
 BYTE   FsM1
 BYTE   W01
 BYTE   FnM1
 BYTE   W01
 BYTE   EnM1
 BYTE   W01
 BYTE   DsM1
 BYTE   W01
 BYTE   DnM1
 BYTE   W01
 BYTE   CsM1
 BYTE   W01
 BYTE   CnM1
 BYTE   W01
 BYTE   BnM2
 BYTE   W01
 BYTE   AnM2
 BYTE   W01
 BYTE   AnM2
 BYTE   W01
 BYTE   AnM2
 BYTE   W01
 BYTE   AnM2
 BYTE   W01
 BYTE   GsM2
 BYTE   W01
 BYTE   GsM2
 BYTE   W01
 BYTE   Cs0
 BYTE   N32  Gn2
 BYTE   W13
 BYTE   VOL   24*song35_mvl/mxv
 BYTE   W01
 BYTE   Cn0
 BYTE   W01
 BYTE   BnM1
 BYTE   W01
 BYTE   AsM1
 BYTE   W01
 BYTE   AsM1
 BYTE   W01
 BYTE   AnM1
 BYTE   W01
 BYTE   GsM1
 BYTE   W01
 BYTE   GsM1
 BYTE   W01
 BYTE   GnM1
 BYTE   W01
 BYTE   FsM1
 BYTE   W01
 BYTE   FnM1
 BYTE   W01
 BYTE   EnM1
 BYTE   W01
 BYTE   DsM1
 BYTE   W01
 BYTE   DnM1
 BYTE   W01
 BYTE   CsM1
 BYTE   W01
 BYTE   CnM1
 BYTE   W01
 BYTE   BnM2
 BYTE   W01
 BYTE   AnM2
 BYTE   W01
 BYTE   AnM2
 BYTE   W01
 BYTE   AnM2
 BYTE   W01
 BYTE   AnM2
 BYTE   W01
 BYTE   GsM2
 BYTE   W01
 BYTE   GsM2
 BYTE   W01
 BYTE   Cs0
 BYTE   N36
 BYTE   W13
 BYTE   VOL   24*song35_mvl/mxv
 BYTE   W01
 BYTE   Cn0
 BYTE   W01
 BYTE   BnM1
 BYTE   W01
 BYTE   AsM1
 BYTE   W01
 BYTE   AsM1
 BYTE   W01
 BYTE   AnM1
 BYTE   W01
 BYTE   GsM1
 BYTE   W01
 BYTE   GsM1
 BYTE   W01
 BYTE   GnM1
 BYTE   W01
 BYTE   FsM1
 BYTE   W01
 BYTE   FnM1
 BYTE   W01
 BYTE   EnM1
 BYTE   W01
 BYTE   DsM1
 BYTE   W01
 BYTE   DnM1
 BYTE   W01
 BYTE   CsM1
 BYTE   W01
 BYTE   CnM1
 BYTE   W01
 BYTE   BnM2
 BYTE   W01
 BYTE   AnM2
 BYTE   W01
 BYTE   AnM2
 BYTE   W01
 BYTE   AnM2
 BYTE   W01
 BYTE   AnM2
 BYTE   W01
 BYTE   GsM2
 BYTE   W01
 BYTE   GsM2
 BYTE   W01
 BYTE   Cs0
 BYTE   N32
 BYTE   W06
// 004   ----------------------------------------
 BYTE   PATT
  POIN2 Label_9_01391551
// 005   ----------------------------------------
 BYTE   PATT
  POIN2 Label_9_013915DD
// 006   ----------------------------------------
Label_9_013916F5:
 BYTE   VOL   21*song35_mvl/mxv
 BYTE   W01
 BYTE   GsM1
 BYTE   W01
 BYTE   GsM1
 BYTE   W01
 BYTE   GnM1
 BYTE   W01
 BYTE   FsM1
 BYTE   W01
 BYTE   FnM1
 BYTE   W01
 BYTE   EnM1
 BYTE   W01
 BYTE   DsM1
 BYTE   W01
 BYTE   DnM1
 BYTE   W01
 BYTE   CsM1
 BYTE   W01
 BYTE   CnM1
 BYTE   W01
 BYTE   BnM2
 BYTE   W01
 BYTE   AnM2
 BYTE   W01
 BYTE   AnM2
 BYTE   W01
 BYTE   AnM2
 BYTE   W01
 BYTE   AnM2
 BYTE   W01
 BYTE   GsM2
 BYTE   W01
 BYTE   GsM2
 BYTE   W01
 BYTE   Cs0
 BYTE   N32  Gn2  v127
 BYTE   W13
 BYTE   VOL   24*song35_mvl/mxv
 BYTE   W01
 BYTE   Cn0
 BYTE   W01
 BYTE   BnM1
 BYTE   W01
 BYTE   AsM1
 BYTE   W01
 BYTE   AsM1
 BYTE   W01
 BYTE   AnM1
 BYTE   W01
 BYTE   GsM1
 BYTE   W01
 BYTE   GsM1
 BYTE   W01
 BYTE   GnM1
 BYTE   W01
 BYTE   FsM1
 BYTE   W01
 BYTE   FnM1
 BYTE   W01
 BYTE   EnM1
 BYTE   W01
 BYTE   DsM1
 BYTE   W01
 BYTE   DnM1
 BYTE   W01
 BYTE   CsM1
 BYTE   W01
 BYTE   CnM1
 BYTE   W01
 BYTE   BnM2
 BYTE   W01
 BYTE   AnM2
 BYTE   W01
 BYTE   AnM2
 BYTE   W01
 BYTE   AnM2
 BYTE   W01
 BYTE   AnM2
 BYTE   W01
 BYTE   GsM2
 BYTE   W01
 BYTE   GsM2
 BYTE   W01
 BYTE   Cs0
 BYTE   N32
 BYTE   W13
 BYTE   VOL   24*song35_mvl/mxv
 BYTE   W01
 BYTE   Cn0
 BYTE   W01
 BYTE   BnM1
 BYTE   W01
 BYTE   AsM1
 BYTE   W01
 BYTE   AsM1
 BYTE   W01
 BYTE   AnM1
 BYTE   W01
 BYTE   GsM1
 BYTE   W01
 BYTE   GsM1
 BYTE   W01
 BYTE   GnM1
 BYTE   W01
 BYTE   FsM1
 BYTE   W01
 BYTE   FnM1
 BYTE   W01
 BYTE   EnM1
 BYTE   W01
 BYTE   DsM1
 BYTE   W01
 BYTE   DnM1
 BYTE   W01
 BYTE   CsM1
 BYTE   W01
 BYTE   CnM1
 BYTE   W01
 BYTE   BnM2
 BYTE   W01
 BYTE   AnM2
 BYTE   W01
 BYTE   AnM2
 BYTE   W01
 BYTE   AnM2
 BYTE   W01
 BYTE   AnM2
 BYTE   W01
 BYTE   GsM2
 BYTE   W01
 BYTE   GsM2
 BYTE   W01
 BYTE   Cs0
 BYTE   N36
 BYTE   W06
 BYTE   PEND 
// 007   ----------------------------------------
 BYTE   PATT
  POIN2 Label_9_01391551
// 008   ----------------------------------------
 BYTE   VOL   9*song35_mvl/mxv
 BYTE   W01
 BYTE   AnM2
 BYTE   W01
 BYTE   AnM2
 BYTE   W01
 BYTE   AnM2
 BYTE   W01
 BYTE   GsM2
 BYTE   W01
 BYTE   GsM2
 BYTE   W01
 BYTE   Cs0
 BYTE   N32  Bn2  v127
 BYTE   W13
 BYTE   VOL   24*song35_mvl/mxv
 BYTE   W01
 BYTE   Cn0
 BYTE   W01
 BYTE   BnM1
 BYTE   W01
 BYTE   AsM1
 BYTE   W01
 BYTE   AsM1
 BYTE   W01
 BYTE   AnM1
 BYTE   W01
 BYTE   GsM1
 BYTE   W01
 BYTE   GsM1
 BYTE   W01
 BYTE   GnM1
 BYTE   W01
 BYTE   FsM1
 BYTE   W01
 BYTE   FnM1
 BYTE   W01
 BYTE   EnM1
 BYTE   W01
 BYTE   DsM1
 BYTE   W01
 BYTE   DnM1
 BYTE   W01
 BYTE   CsM1
 BYTE   W01
 BYTE   CnM1
 BYTE   W01
 BYTE   BnM2
 BYTE   W01
 BYTE   AnM2
 BYTE   W01
 BYTE   AnM2
 BYTE   W01
 BYTE   AnM2
 BYTE   W01
 BYTE   AnM2
 BYTE   W01
 BYTE   GsM2
 BYTE   W01
 BYTE   GsM2
 BYTE   W01
 BYTE   Cs0
 BYTE   N36
 BYTE   W13
 BYTE   VOL   24*song35_mvl/mxv
 BYTE   W01
 BYTE   Cn0
 BYTE   W01
 BYTE   BnM1
 BYTE   W01
 BYTE   AsM1
 BYTE   W01
 BYTE   AsM1
 BYTE   W01
 BYTE   AnM1
 BYTE   W01
 BYTE   GsM1
 BYTE   W01
 BYTE   GsM1
 BYTE   W01
 BYTE   GnM1
 BYTE   W01
 BYTE   FsM1
 BYTE   W01
 BYTE   FnM1
 BYTE   W01
 BYTE   EnM1
 BYTE   W01
 BYTE   DsM1
 BYTE   W01
 BYTE   DnM1
 BYTE   W01
 BYTE   CsM1
 BYTE   W01
 BYTE   CnM1
 BYTE   W01
 BYTE   BnM2
 BYTE   W01
 BYTE   AnM2
 BYTE   W01
 BYTE   AnM2
 BYTE   W01
 BYTE   AnM2
 BYTE   W01
 BYTE   AnM2
 BYTE   W01
 BYTE   GsM2
 BYTE   W01
 BYTE   GsM2
 BYTE   W01
 BYTE   Cs0
 BYTE   N32
 BYTE   W13
 BYTE   VOL   24*song35_mvl/mxv
 BYTE   W01
 BYTE   Cn0
 BYTE   W01
 BYTE   BnM1
 BYTE   W01
 BYTE   AsM1
 BYTE   W01
 BYTE   AsM1
 BYTE   W01
// 009   ----------------------------------------
 BYTE   PATT
  POIN2 Label_9_013916F5
// 010   ----------------------------------------
 BYTE   PATT
  POIN2 Label_9_01391551
// 011   ----------------------------------------
 BYTE   VOL   9*song35_mvl/mxv
 BYTE   W01
 BYTE   AnM2
 BYTE   W01
 BYTE   AnM2
 BYTE   W01
 BYTE   AnM2
 BYTE   W01
 BYTE   GsM2
 BYTE   W01
 BYTE   GsM2
 BYTE   W01
 BYTE   Cs0
 BYTE   N32  Bn2  v127
 BYTE   W13
 BYTE   VOL   24*song35_mvl/mxv
 BYTE   W01
 BYTE   Cn0
 BYTE   W01
 BYTE   BnM1
 BYTE   W01
 BYTE   AsM1
 BYTE   W01
 BYTE   AsM1
 BYTE   W01
 BYTE   AnM1
 BYTE   W01
 BYTE   GsM1
 BYTE   W01
 BYTE   GsM1
 BYTE   W01
 BYTE   GnM1
 BYTE   W01
 BYTE   FsM1
 BYTE   W01
 BYTE   FnM1
 BYTE   W01
 BYTE   EnM1
 BYTE   W01
 BYTE   DsM1
 BYTE   W01
 BYTE   DnM1
 BYTE   W01
 BYTE   CsM1
 BYTE   W01
 BYTE   CnM1
 BYTE   W01
 BYTE   BnM2
 BYTE   W01
 BYTE   AnM2
 BYTE   W01
 BYTE   AnM2
 BYTE   W01
 BYTE   AnM2
 BYTE   W01
 BYTE   AnM2
 BYTE   W01
 BYTE   GsM2
 BYTE   W01
 BYTE   GsM2
 BYTE   W01
 BYTE   Cs0
 BYTE   N32
 BYTE   W13
 BYTE   VOL   24*song35_mvl/mxv
 BYTE   W01
 BYTE   Cn0
 BYTE   W01
 BYTE   BnM1
 BYTE   W01
 BYTE   AsM1
 BYTE   W01
 BYTE   AsM1
 BYTE   W01
 BYTE   AnM1
 BYTE   W01
 BYTE   GsM1
 BYTE   W01
 BYTE   GsM1
 BYTE   W01
 BYTE   GnM1
 BYTE   W01
 BYTE   FsM1
 BYTE   W01
 BYTE   FnM1
 BYTE   W01
 BYTE   EnM1
 BYTE   W01
 BYTE   DsM1
 BYTE   W01
 BYTE   DnM1
 BYTE   W01
 BYTE   CsM1
 BYTE   W01
 BYTE   CnM1
 BYTE   W01
 BYTE   BnM2
 BYTE   W01
 BYTE   AnM2
 BYTE   W01
 BYTE   AnM2
 BYTE   W01
 BYTE   AnM2
 BYTE   W01
 BYTE   AnM2
 BYTE   W01
 BYTE   GsM2
 BYTE   W01
 BYTE   GsM2
 BYTE   W01
 BYTE   Cs0
 BYTE   N36
 BYTE   W13
 BYTE   VOL   24*song35_mvl/mxv
 BYTE   W01
 BYTE   Cn0
 BYTE   W01
 BYTE   BnM1
 BYTE   W01
 BYTE   AsM1
 BYTE   W01
 BYTE   AsM1
 BYTE   W01
// 012   ----------------------------------------
Label_9_01391895:
 BYTE   VOL   21*song35_mvl/mxv
 BYTE   W01
 BYTE   GsM1
 BYTE   W01
 BYTE   GsM1
 BYTE   W01
 BYTE   GnM1
 BYTE   W01
 BYTE   FsM1
 BYTE   W01
 BYTE   FnM1
 BYTE   W01
 BYTE   EnM1
 BYTE   W01
 BYTE   DsM1
 BYTE   W01
 BYTE   DnM1
 BYTE   W01
 BYTE   CsM1
 BYTE   W01
 BYTE   CnM1
 BYTE   W01
 BYTE   BnM2
 BYTE   W01
 BYTE   AnM2
 BYTE   W01
 BYTE   AnM2
 BYTE   W01
 BYTE   AnM2
 BYTE   W01
 BYTE   AnM2
 BYTE   W01
 BYTE   GsM2
 BYTE   W01
 BYTE   GsM2
 BYTE   W01
 BYTE   Cs0
 BYTE   N32  Cn3  v127
 BYTE   W13
 BYTE   VOL   24*song35_mvl/mxv
 BYTE   W01
 BYTE   Cn0
 BYTE   W01
 BYTE   BnM1
 BYTE   W01
 BYTE   AsM1
 BYTE   W01
 BYTE   AsM1
 BYTE   W01
 BYTE   AnM1
 BYTE   W01
 BYTE   GsM1
 BYTE   W01
 BYTE   GsM1
 BYTE   W01
 BYTE   GnM1
 BYTE   W01
 BYTE   FsM1
 BYTE   W01
 BYTE   FnM1
 BYTE   W01
 BYTE   EnM1
 BYTE   W01
 BYTE   DsM1
 BYTE   W01
 BYTE   DnM1
 BYTE   W01
 BYTE   CsM1
 BYTE   W01
 BYTE   CnM1
 BYTE   W01
 BYTE   BnM2
 BYTE   W01
 BYTE   AnM2
 BYTE   W01
 BYTE   AnM2
 BYTE   W01
 BYTE   AnM2
 BYTE   W01
 BYTE   AnM2
 BYTE   W01
 BYTE   GsM2
 BYTE   W01
 BYTE   GsM2
 BYTE   W01
 BYTE   Cs0
 BYTE   N32
 BYTE   W13
 BYTE   VOL   24*song35_mvl/mxv
 BYTE   W01
 BYTE   Cn0
 BYTE   W01
 BYTE   BnM1
 BYTE   W01
 BYTE   AsM1
 BYTE   W01
 BYTE   AsM1
 BYTE   W01
 BYTE   AnM1
 BYTE   W01
 BYTE   GsM1
 BYTE   W01
 BYTE   GsM1
 BYTE   W01
 BYTE   GnM1
 BYTE   W01
 BYTE   FsM1
 BYTE   W01
 BYTE   FnM1
 BYTE   W01
 BYTE   EnM1
 BYTE   W01
 BYTE   DsM1
 BYTE   W01
 BYTE   DnM1
 BYTE   W01
 BYTE   CsM1
 BYTE   W01
 BYTE   CnM1
 BYTE   W01
 BYTE   BnM2
 BYTE   W01
 BYTE   AnM2
 BYTE   W01
 BYTE   AnM2
 BYTE   W01
 BYTE   AnM2
 BYTE   W01
 BYTE   AnM2
 BYTE   W01
 BYTE   GsM2
 BYTE   W01
 BYTE   GsM2
 BYTE   W01
 BYTE   Cs0
 BYTE   N32
 BYTE   W06
 BYTE   PEND 
// 013   ----------------------------------------
 BYTE   W07
 BYTE   VOL   24*song35_mvl/mxv
 BYTE   W01
 BYTE   Cn0
 BYTE   W01
 BYTE   BnM1
 BYTE   W01
 BYTE   AsM1
 BYTE   W01
 BYTE   AsM1
 BYTE   W01
 BYTE   AnM1
 BYTE   W01
 BYTE   GsM1
 BYTE   W01
 BYTE   GsM1
 BYTE   W01
 BYTE   GnM1
 BYTE   W01
 BYTE   FsM1
 BYTE   W01
 BYTE   FnM1
 BYTE   W01
 BYTE   EnM1
 BYTE   W01
 BYTE   DsM1
 BYTE   W01
 BYTE   DnM1
 BYTE   W01
 BYTE   CsM1
 BYTE   W01
 BYTE   CnM1
 BYTE   W01
 BYTE   BnM2
 BYTE   W01
 BYTE   AnM2
 BYTE   W01
 BYTE   AnM2
 BYTE   W01
 BYTE   AnM2
 BYTE   W01
 BYTE   AnM2
 BYTE   W01
 BYTE   GsM2
 BYTE   W01
 BYTE   GsM2
 BYTE   W01
 BYTE   Cs0
 BYTE   N36
 BYTE   W13
 BYTE   VOL   24*song35_mvl/mxv
 BYTE   W01
 BYTE   Cn0
 BYTE   W01
 BYTE   BnM1
 BYTE   W01
 BYTE   AsM1
 BYTE   W01
 BYTE   AsM1
 BYTE   W01
 BYTE   AnM1
 BYTE   W01
 BYTE   GsM1
 BYTE   W01
 BYTE   GsM1
 BYTE   W01
 BYTE   GnM1
 BYTE   W01
 BYTE   FsM1
 BYTE   W01
 BYTE   FnM1
 BYTE   W01
 BYTE   EnM1
 BYTE   W01
 BYTE   DsM1
 BYTE   W01
 BYTE   DnM1
 BYTE   W01
 BYTE   CsM1
 BYTE   W01
 BYTE   CnM1
 BYTE   W01
 BYTE   BnM2
 BYTE   W01
 BYTE   AnM2
 BYTE   W01
 BYTE   AnM2
 BYTE   W01
 BYTE   AnM2
 BYTE   W01
 BYTE   AnM2
 BYTE   W01
 BYTE   GsM2
 BYTE   W01
 BYTE   GsM2
 BYTE   W01
 BYTE   Cs0
 BYTE   N32  En3
 BYTE   W13
 BYTE   VOL   24*song35_mvl/mxv
 BYTE   W01
 BYTE   Cn0
 BYTE   W01
 BYTE   BnM1
 BYTE   W01
 BYTE   AsM1
 BYTE   W01
 BYTE   AsM1
 BYTE   W01
 BYTE   AnM1
 BYTE   W01
 BYTE   GsM1
 BYTE   W01
 BYTE   GsM1
 BYTE   W01
 BYTE   GnM1
 BYTE   W01
 BYTE   FsM1
 BYTE   W01
 BYTE   FnM1
 BYTE   W01
 BYTE   EnM1
 BYTE   W01
 BYTE   DsM1
 BYTE   W01
 BYTE   DnM1
 BYTE   W01
 BYTE   CsM1
 BYTE   W01
 BYTE   CnM1
 BYTE   W01
 BYTE   BnM2
 BYTE   W01
// 014   ----------------------------------------
 BYTE   AnM2
 BYTE   W01
 BYTE   AnM2
 BYTE   W01
 BYTE   AnM2
 BYTE   W01
 BYTE   AnM2
 BYTE   W01
 BYTE   GsM2
 BYTE   W01
 BYTE   GsM2
 BYTE   W01
 BYTE   Cs0
 BYTE   N32
 BYTE   W13
 BYTE   VOL   24*song35_mvl/mxv
 BYTE   W01
 BYTE   Cn0
 BYTE   W01
 BYTE   BnM1
 BYTE   W01
 BYTE   AsM1
 BYTE   W01
 BYTE   AsM1
 BYTE   W01
 BYTE   AnM1
 BYTE   W01
 BYTE   GsM1
 BYTE   W01
 BYTE   GsM1
 BYTE   W01
 BYTE   GnM1
 BYTE   W01
 BYTE   FsM1
 BYTE   W01
 BYTE   FnM1
 BYTE   W01
 BYTE   EnM1
 BYTE   W01
 BYTE   DsM1
 BYTE   W01
 BYTE   DnM1
 BYTE   W01
 BYTE   CsM1
 BYTE   W01
 BYTE   CnM1
 BYTE   W01
 BYTE   BnM2
 BYTE   W01
 BYTE   AnM2
 BYTE   W01
 BYTE   AnM2
 BYTE   W01
 BYTE   AnM2
 BYTE   W01
 BYTE   AnM2
 BYTE   W01
 BYTE   GsM2
 BYTE   W01
 BYTE   GsM2
 BYTE   W01
 BYTE   Cs0
 BYTE   N32
 BYTE   W13
 BYTE   VOL   24*song35_mvl/mxv
 BYTE   W01
 BYTE   Cn0
 BYTE   W01
 BYTE   BnM1
 BYTE   W01
 BYTE   AsM1
 BYTE   W01
 BYTE   AsM1
 BYTE   W01
 BYTE   AnM1
 BYTE   W01
 BYTE   GsM1
 BYTE   W01
 BYTE   GsM1
 BYTE   W01
 BYTE   GnM1
 BYTE   W01
 BYTE   FsM1
 BYTE   W01
 BYTE   FnM1
 BYTE   W01
 BYTE   EnM1
 BYTE   W01
 BYTE   DsM1
 BYTE   W01
 BYTE   DnM1
 BYTE   W01
 BYTE   CsM1
 BYTE   W01
 BYTE   CnM1
 BYTE   W01
 BYTE   BnM2
 BYTE   W01
 BYTE   AnM2
 BYTE   W01
 BYTE   AnM2
 BYTE   W01
 BYTE   AnM2
 BYTE   W01
 BYTE   AnM2
 BYTE   W01
 BYTE   GsM2
 BYTE   W01
 BYTE   GsM2
 BYTE   W01
 BYTE   Cs0
 BYTE   N36
 BYTE   W13
 BYTE   VOL   24*song35_mvl/mxv
 BYTE   W01
 BYTE   Cn0
 BYTE   W01
 BYTE   BnM1
 BYTE   W01
 BYTE   AsM1
 BYTE   W01
 BYTE   AsM1
 BYTE   W01
// 015   ----------------------------------------
 BYTE   PATT
  POIN2 Label_9_01391895
// 016   ----------------------------------------
 BYTE   W07
 BYTE   VOL   24*song35_mvl/mxv
 BYTE   W01
 BYTE   Cn0
 BYTE   W01
 BYTE   BnM1
 BYTE   W01
 BYTE   AsM1
 BYTE   W01
 BYTE   AsM1
 BYTE   W01
 BYTE   AnM1
 BYTE   W01
 BYTE   GsM1
 BYTE   W01
 BYTE   GsM1
 BYTE   W01
 BYTE   GnM1
 BYTE   W01
 BYTE   FsM1
 BYTE   W01
 BYTE   FnM1
 BYTE   W01
 BYTE   EnM1
 BYTE   W01
 BYTE   DsM1
 BYTE   W01
 BYTE   DnM1
 BYTE   W01
 BYTE   CsM1
 BYTE   W01
 BYTE   CnM1
 BYTE   W01
 BYTE   BnM2
 BYTE   W01
 BYTE   AnM2
 BYTE   W01
 BYTE   AnM2
 BYTE   W01
 BYTE   AnM2
 BYTE   W01
 BYTE   AnM2
 BYTE   W01
 BYTE   GsM2
 BYTE   W01
 BYTE   GsM2
 BYTE   W01
 BYTE   Cs0
 BYTE   N32  Cn3  v127
 BYTE   W13
 BYTE   VOL   24*song35_mvl/mxv
 BYTE   W01
 BYTE   Cn0
 BYTE   W01
 BYTE   BnM1
 BYTE   W01
 BYTE   AsM1
 BYTE   W01
 BYTE   AsM1
 BYTE   W01
 BYTE   AnM1
 BYTE   W01
 BYTE   GsM1
 BYTE   W01
 BYTE   GsM1
 BYTE   W01
 BYTE   GnM1
 BYTE   W01
 BYTE   FsM1
 BYTE   W01
 BYTE   FnM1
 BYTE   W01
 BYTE   EnM1
 BYTE   W01
 BYTE   DsM1
 BYTE   W01
 BYTE   DnM1
 BYTE   W01
 BYTE   CsM1
 BYTE   W01
 BYTE   CnM1
 BYTE   W01
 BYTE   BnM2
 BYTE   W01
 BYTE   AnM2
 BYTE   W01
 BYTE   AnM2
 BYTE   W01
 BYTE   AnM2
 BYTE   W01
 BYTE   AnM2
 BYTE   W01
 BYTE   GsM2
 BYTE   W01
 BYTE   GsM2
 BYTE   W01
 BYTE   Cs0
 BYTE   N36  Fn3
 BYTE   W13
 BYTE   VOL   24*song35_mvl/mxv
 BYTE   W01
 BYTE   Cn0
 BYTE   W01
 BYTE   BnM1
 BYTE   W01
 BYTE   AsM1
 BYTE   W01
 BYTE   AsM1
 BYTE   W01
 BYTE   AnM1
 BYTE   W01
 BYTE   GsM1
 BYTE   W01
 BYTE   GsM1
 BYTE   W01
 BYTE   GnM1
 BYTE   W01
 BYTE   FsM1
 BYTE   W01
 BYTE   FnM1
 BYTE   W01
 BYTE   EnM1
 BYTE   W01
 BYTE   DsM1
 BYTE   W01
 BYTE   DnM1
 BYTE   W01
 BYTE   CsM1
 BYTE   W01
 BYTE   CnM1
 BYTE   W01
 BYTE   BnM2
 BYTE   W01
// 017   ----------------------------------------
 BYTE   AnM2
 BYTE   W01
 BYTE   AnM2
 BYTE   W01
 BYTE   AnM2
 BYTE   W01
 BYTE   AnM2
 BYTE   W01
 BYTE   GsM2
 BYTE   W01
 BYTE   GsM2
 BYTE   W01
 BYTE   Cs0
 BYTE   N32
 BYTE   W13
 BYTE   VOL   24*song35_mvl/mxv
 BYTE   W01
 BYTE   Cn0
 BYTE   W01
 BYTE   BnM1
 BYTE   W01
 BYTE   AsM1
 BYTE   W01
 BYTE   AsM1
 BYTE   W01
 BYTE   AnM1
 BYTE   W01
 BYTE   GsM1
 BYTE   W01
 BYTE   GsM1
 BYTE   W01
 BYTE   GnM1
 BYTE   W01
 BYTE   FsM1
 BYTE   W01
 BYTE   FnM1
 BYTE   W01
 BYTE   EnM1
 BYTE   W01
 BYTE   DsM1
 BYTE   W01
 BYTE   DnM1
 BYTE   W01
 BYTE   CsM1
 BYTE   W01
 BYTE   CnM1
 BYTE   W01
 BYTE   BnM2
 BYTE   W01
 BYTE   AnM2
 BYTE   W01
 BYTE   AnM2
 BYTE   W01
 BYTE   AnM2
 BYTE   W01
 BYTE   AnM2
 BYTE   W01
 BYTE   GsM2
 BYTE   W01
 BYTE   GsM2
 BYTE   W01
 BYTE   Cs0
 BYTE   N32  Gn3
 BYTE   W13
 BYTE   VOL   24*song35_mvl/mxv
 BYTE   W01
 BYTE   Cn0
 BYTE   W01
 BYTE   BnM1
 BYTE   W01
 BYTE   AsM1
 BYTE   W01
 BYTE   AsM1
 BYTE   W01
 BYTE   AnM1
 BYTE   W01
 BYTE   GsM1
 BYTE   W01
 BYTE   GsM1
 BYTE   W01
 BYTE   GnM1
 BYTE   W01
 BYTE   FsM1
 BYTE   W01
 BYTE   FnM1
 BYTE   W01
 BYTE   EnM1
 BYTE   W01
 BYTE   DsM1
 BYTE   W01
 BYTE   DnM1
 BYTE   W01
 BYTE   CsM1
 BYTE   W01
 BYTE   CnM1
 BYTE   W01
 BYTE   BnM2
 BYTE   W01
 BYTE   AnM2
 BYTE   W01
 BYTE   AnM2
 BYTE   W01
 BYTE   AnM2
 BYTE   W01
 BYTE   AnM2
 BYTE   W01
 BYTE   GsM2
 BYTE   W01
 BYTE   GsM2
 BYTE   W01
 BYTE   Cs0
 BYTE   N16
 BYTE   W13
 BYTE   VOL   24*song35_mvl/mxv
 BYTE   W01
 BYTE   Cn0
 BYTE   W01
 BYTE   BnM1
 BYTE   W01
 BYTE   AsM1
 BYTE   W01
 BYTE   GoTo
  POIN2 Label_9_013914DA
// 018   ----------------------------------------
 BYTE   VOL   22*song35_mvl/mxv
 BYTE   CnM2
 BYTE   PAN   c_v+0
 BYTE   BEND   c_v+0
 BYTE   FINE

//******************************************************//
	ALIGN 4

song35:
	BYTE	10	// NumTrks
	BYTE	0	// NumBlks
	BYTE	song35_pri	// Priority
	BYTE	song35_rev	// Reverb.
    
	POIN2	song35_grp
    
	POIN2	song35_001
	POIN2	song35_002
	POIN2	song35_003
	POIN2	song35_004
	POIN2	song35_005
	POIN2	song35_006
	POIN2	song35_007
	POIN2	song35_008
	POIN2	song35_009
	POIN2	song35_010

	
