//Event file generated from Sappy .s format.
	#include "MPlayDef.event"

	#define	Knights2_grp  voicegroup000
	#define	Knights2_pri  0
	#define	Knights2_rev  148 //0x94
	#define	Knights2_mvl  127
	#define	Knights2_key  0
	#define	Knights2_tbs  1
	#define	Knights2_exg  0
	#define	Knights2_cmp  1

	// .rodata
	//	Knights2
	ALIGN 4


//**************** Track 1 (Midi-Chn.0) ****************//

Knights2_001:
//  #01 //000   ----------------------------------------
 BYTE   KEYSH   Knights2_key+0
 BYTE   TEMPO   164*Knights2_tbs/2
 BYTE   VOICE   14
 BYTE   PAN   c_v-38
 BYTE   VOL   27*Knights2_mvl/mxv
 BYTE   W24
Label_0192AEB3:
 BYTE   W72
//  #01 //001   ----------------------------------------
 BYTE   W96
//  #01 //002   ----------------------------------------
 BYTE   W96
//  #01 //003   ----------------------------------------
 BYTE   W96
//  #01 //004   ----------------------------------------
 BYTE   W96
//  #01 //005   ----------------------------------------
 BYTE   W96
//  #01 //006   ----------------------------------------
 BYTE   W96
//  #01 //007   ----------------------------------------
Label_0192AEBA:
 BYTE   W24
 BYTE   N36  Cn3  v120
 BYTE   N36  Gn3  v127
 BYTE   W36
 BYTE   N54  Gn2  v120
 BYTE   N54  Cn3  v127
 BYTE   W36
 BYTE   PEND 
//  #01 //008   ----------------------------------------
Label_0192AECA:
 BYTE   W24
 BYTE   N36  Gn2  v112
 BYTE   N36  Dn3  v120
 BYTE   W36
 BYTE   Cn3  v112
 BYTE   N36  En3  v120
 BYTE   W36
 BYTE   PEND 
//  #01 //009   ----------------------------------------
Label_0192AED9:
 BYTE   N24  Dn3  v112
 BYTE   N24  Fn3  v120
 BYTE   W24
 BYTE   N96  En3  v112
 BYTE   N96  Gn3  v120
 BYTE   W72
 BYTE   PEND 
//  #01 //010   ----------------------------------------
Label_0192AEE8:
 BYTE   W24
 BYTE   TIE  An2  v112
 BYTE   TIE  Dn3  v120
 BYTE   W72
 BYTE   PEND 
//  #01 //011   ----------------------------------------
 BYTE   W96
//  #01 //012   ----------------------------------------
 BYTE   W24
 BYTE   EOT
 BYTE   An2  v062
 BYTE   W72
//  #01 //013   ----------------------------------------
 BYTE   W96
//  #01 //014   ----------------------------------------
 BYTE   W96
//  #01 //015   ----------------------------------------
 BYTE   W96
//  #01 //016   ----------------------------------------
 BYTE   W96
//  #01 //017   ----------------------------------------
 BYTE   W96
//  #01 //018   ----------------------------------------
 BYTE   W96
//  #01 //019   ----------------------------------------
 BYTE   W96
//  #01 //020   ----------------------------------------
 BYTE   W96
//  #01 //021   ----------------------------------------
 BYTE   PATT
  POIN2 Label_0192AEBA
//  #01 //022   ----------------------------------------
 BYTE   PATT
  POIN2 Label_0192AECA
//  #01 //023   ----------------------------------------
 BYTE   PATT
  POIN2 Label_0192AED9
//  #01 //024   ----------------------------------------
 BYTE   PATT
  POIN2 Label_0192AEE8
//  #01 //025   ----------------------------------------
 BYTE   W96
//  #01 //026   ----------------------------------------
 BYTE   W24
 BYTE   EOT
 BYTE   An2  v062
 BYTE   W72
//  #01 //027   ----------------------------------------
 BYTE   W96
//  #01 //028   ----------------------------------------
 BYTE   W96
//  #01 //029   ----------------------------------------
 BYTE   W96
//  #01 //030   ----------------------------------------
 BYTE   W96
//  #01 //031   ----------------------------------------
 BYTE   W96
//  #01 //032   ----------------------------------------
 BYTE   W96
//  #01 //033   ----------------------------------------
 BYTE   W96
//  #01 //034   ----------------------------------------
 BYTE   W96
//  #01 //035   ----------------------------------------
 BYTE   W96
//  #01 //036   ----------------------------------------
 BYTE   W96
//  #01 //037   ----------------------------------------
 BYTE   W96
//  #01 //038   ----------------------------------------
 BYTE   W96
//  #01 //039   ----------------------------------------
 BYTE   W96
//  #01 //040   ----------------------------------------
 BYTE   W96
//  #01 //041   ----------------------------------------
 BYTE   W96
//  #01 //042   ----------------------------------------
 BYTE   W96
//  #01 //043   ----------------------------------------
 BYTE   W96
//  #01 //044   ----------------------------------------
 BYTE   W96
//  #01 //045   ----------------------------------------
 BYTE   W96
//  #01 //046   ----------------------------------------
 BYTE   W96
//  #01 //047   ----------------------------------------
 BYTE   W96
//  #01 //048   ----------------------------------------
Label_0192AF2E:
 BYTE   W24
 BYTE   N12  An1  v100
 BYTE   N12  Dn2  v127
 BYTE   W12
 BYTE   N24  Fn2  v100
 BYTE   N24  An2  v127
 BYTE   W24
 BYTE   En2  v100
 BYTE   N24  Gn2  v127
 BYTE   W24
 BYTE   An2  v100
 BYTE   N24  Dn3  v127
 BYTE   W12
 BYTE   PEND 
//  #01 //049   ----------------------------------------
 BYTE   W12
 BYTE   N96  Fn2  v100
 BYTE   N96  An2  v127
 BYTE   W84
//  #01 //050   ----------------------------------------
 BYTE   PATT
  POIN2 Label_0192AF2E
//  #01 //051   ----------------------------------------
 BYTE   W12
 BYTE   N96  An2  v100
 BYTE   N96  En3  v127
 BYTE   W84
//  #01 //052   ----------------------------------------
 BYTE   W24
 BYTE   W03
 BYTE   GoTo
  POIN2 Label_0192AEB3
 BYTE   FINE

//**************** Track 2 (Midi-Chn.1) ****************//

Knights2_002:
//  #02 //000   ----------------------------------------
 BYTE   KEYSH   Knights2_key+0
 BYTE   VOICE   56
 BYTE   PAN   c_v-22
 BYTE   VOL   19*Knights2_mvl/mxv
 BYTE   N04  Gn3  v112
 BYTE   W04
 BYTE   An3
 BYTE   W04
 BYTE   As3
 BYTE   W04
 BYTE   Cn4
 BYTE   W04
 BYTE   Dn4
 BYTE   W04
 BYTE   En4  v120
 BYTE   W04
Label_0192A9AF:
 BYTE   N60  Fn4  v100
 BYTE   W60
 BYTE   N12  En4
 BYTE   W12
//  #02 //001   ----------------------------------------
Label_0192A9B6:
 BYTE   N12  Dn4  v100
 BYTE   W12
 BYTE   En4
 BYTE   W12
 BYTE   N36  Fn4
 BYTE   W36
 BYTE   Gn4
 BYTE   W36
 BYTE   PEND 
//  #02 //002   ----------------------------------------
 BYTE   N24  An4
 BYTE   W24
 BYTE   N36  Dn4
 BYTE   W36
 BYTE   An4
 BYTE   W36
//  #02 //003   ----------------------------------------
 BYTE   N24  Gn4
 BYTE   W24
 BYTE   N36  As4
 BYTE   W36
 BYTE   An4
 BYTE   W36
//  #02 //004   ----------------------------------------
 BYTE   N24  Gn4
 BYTE   W24
 BYTE   N36  Fn4
 BYTE   W36
 BYTE   N84  Dn4
 BYTE   W36
//  #02 //005   ----------------------------------------
 BYTE   W60
 BYTE   N36  En4
 BYTE   W36
//  #02 //006   ----------------------------------------
 BYTE   N24  Fn4
 BYTE   W24
 BYTE   N36  Gn4
 BYTE   W36
 BYTE   TIE  Cn4  v112
 BYTE   W36
//  #02 //007   ----------------------------------------
 BYTE   W84
 BYTE   EOT
 BYTE   W12
//  #02 //008   ----------------------------------------
Label_0192A9EC:
 BYTE   N06  Gn4  v108
 BYTE   W06
 BYTE   An4  v096
 BYTE   W06
 BYTE   As4
 BYTE   W06
 BYTE   Cn5
 BYTE   W78
 BYTE   PEND 
//  #02 //009   ----------------------------------------
 BYTE   W96
//  #02 //010   ----------------------------------------
 BYTE   W96
//  #02 //011   ----------------------------------------
 BYTE   W96
//  #02 //012   ----------------------------------------
 BYTE   W96
//  #02 //013   ----------------------------------------
 BYTE   W96
//  #02 //014   ----------------------------------------
 BYTE   N04  Gn3  v112
 BYTE   W04
 BYTE   An3
 BYTE   W04
 BYTE   As3
 BYTE   W04
 BYTE   Cn4
 BYTE   W04
 BYTE   Dn4
 BYTE   W04
 BYTE   En4  v120
 BYTE   W04
 BYTE   N60  Fn4  v100
 BYTE   W60
 BYTE   N12  En4
 BYTE   W12
//  #02 //015   ----------------------------------------
 BYTE   PATT
  POIN2 Label_0192A9B6
//  #02 //016   ----------------------------------------
 BYTE   N24  An4  v100
 BYTE   W24
 BYTE   N36  As4
 BYTE   W36
 BYTE   An4
 BYTE   W36
//  #02 //017   ----------------------------------------
 BYTE   N24  Gn4
 BYTE   W24
 BYTE   N36  Cn5
 BYTE   W36
 BYTE   An4
 BYTE   W36
//  #02 //018   ----------------------------------------
 BYTE   N24  Gn4
 BYTE   W24
 BYTE   N36  Fn4
 BYTE   W36
 BYTE   N84  An4
 BYTE   W36
//  #02 //019   ----------------------------------------
 BYTE   W60
 BYTE   N36  As4
 BYTE   W36
//  #02 //020   ----------------------------------------
 BYTE   N24  An4
 BYTE   W24
 BYTE   N36  Gn4
 BYTE   W36
 BYTE   TIE  Cn4  v112
 BYTE   W36
//  #02 //021   ----------------------------------------
 BYTE   W84
 BYTE   EOT
 BYTE   W12
//  #02 //022   ----------------------------------------
 BYTE   PATT
  POIN2 Label_0192A9EC
//  #02 //023   ----------------------------------------
 BYTE   W96
//  #02 //024   ----------------------------------------
 BYTE   W96
//  #02 //025   ----------------------------------------
 BYTE   W96
//  #02 //026   ----------------------------------------
 BYTE   W96
//  #02 //027   ----------------------------------------
 BYTE   W96
//  #02 //028   ----------------------------------------
 BYTE   W96
//  #02 //029   ----------------------------------------
 BYTE   W96
//  #02 //030   ----------------------------------------
 BYTE   W96
//  #02 //031   ----------------------------------------
 BYTE   W96
//  #02 //032   ----------------------------------------
 BYTE   W96
//  #02 //033   ----------------------------------------
 BYTE   W96
//  #02 //034   ----------------------------------------
 BYTE   W96
//  #02 //035   ----------------------------------------
 BYTE   W96
//  #02 //036   ----------------------------------------
 BYTE   W96
//  #02 //037   ----------------------------------------
 BYTE   W96
//  #02 //038   ----------------------------------------
 BYTE   N04  Cn4  v080
 BYTE   N04  En4  v092
 BYTE   W04
 BYTE   Dn4  v080
 BYTE   N04  Fs4  v092
 BYTE   W04
 BYTE   En4  v080
 BYTE   N04  Gn4  v092
 BYTE   W04
 BYTE   Fs4  v080
 BYTE   N04  An4  v092
 BYTE   W04
 BYTE   Gn4  v080
 BYTE   N04  Bn4  v092
 BYTE   W04
 BYTE   An4  v080
 BYTE   N04  Cn5  v100
 BYTE   W04
 BYTE   TIE  Gn4  v092
 BYTE   TIE  Dn5
 BYTE   W72
//  #02 //039   ----------------------------------------
 BYTE   W96
//  #02 //040   ----------------------------------------
 BYTE   W24
 BYTE   EOT
 BYTE   Gn4  v086
 BYTE   TIE  An3
 BYTE   N96  Fn4
 BYTE   W72
//  #02 //041   ----------------------------------------
 BYTE   W24
 BYTE   N48
 BYTE   W48
 BYTE   EOT
 BYTE   An3
 BYTE   N48  An4  v080
 BYTE   N48  Cn5  v096
 BYTE   W24
//  #02 //042   ----------------------------------------
 BYTE   W24
 BYTE   TIE  Cn5  v092
 BYTE   TIE  Gn5  v100
 BYTE   W72
//  #02 //043   ----------------------------------------
 BYTE   W72
 BYTE   EOT
 BYTE   Cn5  v091
 BYTE   N48  Gn4  v080
 BYTE   N48  Bn4  v092
 BYTE   W24
//  #02 //044   ----------------------------------------
 BYTE   W24
 BYTE   N96  Gn4
 BYTE   N96  Cn5
 BYTE   W72
//  #02 //045   ----------------------------------------
 BYTE   W24
 BYTE   Cn4
 BYTE   N96  Gn4
 BYTE   W72
//  #02 //046   ----------------------------------------
 BYTE   W24
 BYTE   TIE  Cs4
 BYTE   TIE  Gn4
 BYTE   W72
//  #02 //047   ----------------------------------------
 BYTE   W96
//  #02 //048   ----------------------------------------
 BYTE   W24
 BYTE   EOT
 BYTE   Cs4  v079
 BYTE   TIE  Dn4
 BYTE   TIE  Fn4
 BYTE   W48
 BYTE   W01
 BYTE   W01
 BYTE   W01
 BYTE   W01
 BYTE   W01
 BYTE   W01
 BYTE   W01
 BYTE   W01
 BYTE   W01
 BYTE   W01
 BYTE   W01
 BYTE   W02
 BYTE   W01
 BYTE   W01
 BYTE   W01
 BYTE   W02
 BYTE   W01
 BYTE   W01
 BYTE   W01
 BYTE   W02
 BYTE   W01
//  #02 //049   ----------------------------------------
 BYTE   W01
 BYTE   W01
 BYTE   W02
 BYTE   W01
 BYTE   W01
 BYTE   W01
 BYTE   W02
 BYTE   W01
 BYTE   W01
 BYTE   W02
 BYTE   W01
 BYTE   W01
 BYTE   W01
 BYTE   W02
 BYTE   W01
 BYTE   W01
 BYTE   W01
 BYTE   W02
 BYTE   W01
 BYTE   W01
 BYTE   W01
 BYTE   W02
 BYTE   W01
 BYTE   W01
 BYTE   W01
 BYTE   W02
 BYTE   W01
 BYTE   W01
 BYTE   W01
 BYTE   W02
 BYTE   W01
 BYTE   W01
 BYTE   W01
 BYTE   W02
 BYTE   W01
 BYTE   W01
 BYTE   W02
 BYTE   W01
 BYTE   W01
 BYTE   W01
 BYTE   W02
 BYTE   W01
 BYTE   W01
 BYTE   W01
 BYTE   W02
 BYTE   W01
 BYTE   W01
 BYTE   W01
 BYTE   W02
 BYTE   W01
 BYTE   W01
 BYTE   W01
 BYTE   W02
 BYTE   W01
 BYTE   W01
 BYTE   W01
 BYTE   W02
 BYTE   EOT
 BYTE   Dn4  v077
 BYTE   W24
//  #02 //050   ----------------------------------------
 BYTE   W96
//  #02 //051   ----------------------------------------
 BYTE   W24
 BYTE   W72
//  #02 //052   ----------------------------------------
 BYTE   N04  Gn3  v112
 BYTE   W04
 BYTE   An3
 BYTE   W04
 BYTE   As3
 BYTE   W04
 BYTE   Cn4
 BYTE   W04
 BYTE   Dn4
 BYTE   W04
 BYTE   En4  v120
 BYTE   W07
 BYTE   GoTo
  POIN2 Label_0192A9AF
 BYTE   FINE

//**************** Track 3 (Midi-Chn.2) ****************//

Knights2_003:
//  #03 //000   ----------------------------------------
 BYTE   KEYSH   Knights2_key+0
 BYTE   VOICE   61
 BYTE   VOL   24*Knights2_mvl/mxv
 BYTE   PAN   c_v-6
 BYTE   W24
Label_019B447D:
 BYTE   N60  Dn4  v100
 BYTE   W60
 BYTE   N12  Cn4
 BYTE   W12
//  #03 //001   ----------------------------------------
Label_019B4484:
 BYTE   N12  As3  v100
 BYTE   W12
 BYTE   Cn4
 BYTE   W12
 BYTE   N36  Dn4
 BYTE   W36
 BYTE   En4
 BYTE   W36
 BYTE   PEND 
//  #03 //002   ----------------------------------------
 BYTE   N24  Fn4
 BYTE   W24
 BYTE   N36  Gn3
 BYTE   W36
 BYTE   Fn4
 BYTE   W36
//  #03 //003   ----------------------------------------
Label_019B4498:
 BYTE   N24  En4  v100
 BYTE   W24
 BYTE   N36  Gn4
 BYTE   W36
 BYTE   Fn4
 BYTE   W36
 BYTE   PEND 
//  #03 //004   ----------------------------------------
 BYTE   N24  En4
 BYTE   W24
 BYTE   N36  Dn4
 BYTE   W36
 BYTE   N84  As3
 BYTE   W36
//  #03 //005   ----------------------------------------
 BYTE   W60
 BYTE   N36  Cn4
 BYTE   W36
//  #03 //006   ----------------------------------------
 BYTE   N24  Dn4
 BYTE   W24
 BYTE   N36  En4
 BYTE   W36
 BYTE   TIE  Gn3
 BYTE   W36
//  #03 //007   ----------------------------------------
 BYTE   W84
 BYTE   EOT
 BYTE   W12
//  #03 //008   ----------------------------------------
 BYTE   W96
//  #03 //009   ----------------------------------------
 BYTE   W96
//  #03 //010   ----------------------------------------
 BYTE   W96
//  #03 //011   ----------------------------------------
 BYTE   W96
//  #03 //012   ----------------------------------------
 BYTE   W96
//  #03 //013   ----------------------------------------
 BYTE   W96
//  #03 //014   ----------------------------------------
 BYTE   W24
 BYTE   N60  Dn4
 BYTE   W60
 BYTE   N12  Cn4
 BYTE   W12
//  #03 //015   ----------------------------------------
 BYTE   PATT
  POIN2 Label_019B4484
//  #03 //016   ----------------------------------------
 BYTE   N24  Fn4  v100
 BYTE   W24
 BYTE   N36  Gn4
 BYTE   W36
 BYTE   Fn4
 BYTE   W36
//  #03 //017   ----------------------------------------
 BYTE   PATT
  POIN2 Label_019B4498
//  #03 //018   ----------------------------------------
 BYTE   N24  En4  v100
 BYTE   W24
 BYTE   N36  Dn4
 BYTE   W36
 BYTE   N84  Fn4
 BYTE   W36
//  #03 //019   ----------------------------------------
 BYTE   W60
 BYTE   N36  Gn4
 BYTE   W36
//  #03 //020   ----------------------------------------
 BYTE   N24  Fn4
 BYTE   W24
 BYTE   N36  En4
 BYTE   W36
 BYTE   TIE  Gn3
 BYTE   W36
//  #03 //021   ----------------------------------------
 BYTE   W84
 BYTE   EOT
 BYTE   W12
//  #03 //022   ----------------------------------------
 BYTE   W96
//  #03 //023   ----------------------------------------
 BYTE   W96
//  #03 //024   ----------------------------------------
 BYTE   W96
//  #03 //025   ----------------------------------------
 BYTE   W96
//  #03 //026   ----------------------------------------
 BYTE   W24
 BYTE   VOICE   52
 BYTE   VOL   27*Knights2_mvl/mxv
 BYTE   PAN   c_v+16
 BYTE   W72
//  #03 //027   ----------------------------------------
 BYTE   W96
//  #03 //028   ----------------------------------------
 BYTE   W24
 BYTE   TIE  Dn2  v092
 BYTE   TIE  An2
 BYTE   W72
//  #03 //029   ----------------------------------------
 BYTE   W96
//  #03 //030   ----------------------------------------
 BYTE   W24
 BYTE   EOT
 BYTE   Dn2  v057
 BYTE   TIE  Cn2
 BYTE   TIE  Gn2
 BYTE   W72
//  #03 //031   ----------------------------------------
 BYTE   W96
//  #03 //032   ----------------------------------------
 BYTE   W24
 BYTE   EOT
 BYTE   Cn2  v055
 BYTE   TIE  Dn2
 BYTE   TIE  An2
 BYTE   W72
//  #03 //033   ----------------------------------------
 BYTE   W66
 BYTE   EOT
 BYTE   Dn2  v057
 BYTE   W06
 BYTE   N12  Dn2
 BYTE   N12  An2
 BYTE   W16
 BYTE   N09  Dn2
 BYTE   N09  An2
 BYTE   W08
//  #03 //034   ----------------------------------------
 BYTE   W08
 BYTE   Dn2
 BYTE   N09  An2
 BYTE   W16
 BYTE   TIE  Cn2
 BYTE   TIE  Gn2
 BYTE   W72
//  #03 //035   ----------------------------------------
 BYTE   W96
//  #03 //036   ----------------------------------------
 BYTE   W24
 BYTE   EOT
 BYTE   Cn2  v055
 BYTE   TIE  An3
 BYTE   TIE  Dn4
 BYTE   W72
//  #03 //037   ----------------------------------------
 BYTE   W96
//  #03 //038   ----------------------------------------
 BYTE   W18
 BYTE   EOT
 BYTE   An3  v074
 BYTE   W06
 BYTE   N96  Bn3  v080
 BYTE   TIE  Dn4
 BYTE   W01
 BYTE   W01
 BYTE   W01
 BYTE   W01
 BYTE   W01
 BYTE   W01
 BYTE   W01
 BYTE   W01
 BYTE   W01
 BYTE   W01
 BYTE   W01
 BYTE   W01
 BYTE   W01
 BYTE   W01
 BYTE   W01
 BYTE   W01
 BYTE   W01
 BYTE   W01
 BYTE   W01
 BYTE   W01
 BYTE   W01
 BYTE   W01
 BYTE   W01
 BYTE   W01
 BYTE   W01
 BYTE   W01
 BYTE   W01
 BYTE   W01
 BYTE   W01
 BYTE   W01
 BYTE   W01
 BYTE   W01
 BYTE   W01
 BYTE   W01
 BYTE   W01
 BYTE   W01
 BYTE   W01
 BYTE   W01
 BYTE   W01
 BYTE   W01
 BYTE   W01
 BYTE   W01
 BYTE   W01
 BYTE   W01
 BYTE   W01
 BYTE   W01
 BYTE   W01
 BYTE   W01
 BYTE   W24
//  #03 //039   ----------------------------------------
 BYTE   W24
 BYTE   N96  Bn3
 BYTE   W72
//  #03 //040   ----------------------------------------
 BYTE   W24
 BYTE   Gn3
 BYTE   W72
//  #03 //041   ----------------------------------------
 BYTE   W24
 BYTE   An3
 BYTE   W72
//  #03 //042   ----------------------------------------
 BYTE   W24
 BYTE   EOT
 BYTE   Dn4
 BYTE   TIE  Gn3
 BYTE   TIE  Cn4
 BYTE   W72
//  #03 //043   ----------------------------------------
 BYTE   W72
 BYTE   EOT
 BYTE   Gn3
 BYTE   N24  En3
 BYTE   W24
//  #03 //044   ----------------------------------------
 BYTE   N24
 BYTE   W24
 BYTE   N96  Gn3
 BYTE   W72
//  #03 //045   ----------------------------------------
 BYTE   W24
 BYTE   An3
 BYTE   W72
//  #03 //046   ----------------------------------------
 BYTE   W24
 BYTE   EOT
 BYTE   Cn4
 BYTE   N48  As3
 BYTE   TIE  Cs4
 BYTE   W48
 BYTE   N96  An3
 BYTE   W24
//  #03 //047   ----------------------------------------
 BYTE   W72
 BYTE   N48
 BYTE   W24
//  #03 //048   ----------------------------------------
 BYTE   W24
 BYTE   EOT
 BYTE   Cs4
 BYTE   TIE  An3
 BYTE   TIE  Dn4  v092
 BYTE   W72
//  #03 //049   ----------------------------------------
 BYTE   W24
 BYTE   W01
 BYTE   W01
 BYTE   W01
 BYTE   W01
 BYTE   W01
 BYTE   W01
 BYTE   W01
 BYTE   W01
 BYTE   W01
 BYTE   W01
 BYTE   W01
 BYTE   W01
 BYTE   W01
 BYTE   W01
 BYTE   W01
 BYTE   W01
 BYTE   W01
 BYTE   W01
 BYTE   W01
 BYTE   W01
 BYTE   W01
 BYTE   W01
 BYTE   W01
 BYTE   W01
 BYTE   W01
 BYTE   W01
 BYTE   W01
 BYTE   W01
 BYTE   W01
 BYTE   W01
 BYTE   W01
 BYTE   W01
 BYTE   W01
 BYTE   W01
 BYTE   W01
 BYTE   W01
 BYTE   W01
 BYTE   W01
 BYTE   W01
 BYTE   W01
 BYTE   W01
 BYTE   W01
 BYTE   W01
 BYTE   W01
 BYTE   W01
 BYTE   W01
 BYTE   W01
 BYTE   W01
 BYTE   W01
 BYTE   W01
 BYTE   W01
 BYTE   W01
 BYTE   W01
 BYTE   W01
 BYTE   W01
 BYTE   W01
 BYTE   W01
 BYTE   W01
 BYTE   W01
 BYTE   W01
 BYTE   W01
 BYTE   W01
 BYTE   W01
 BYTE   W01
 BYTE   W01
 BYTE   W01
 BYTE   W01
 BYTE   W01
 BYTE   W01
 BYTE   W01
 BYTE   W01
 BYTE   W01
//  #03 //050   ----------------------------------------
 BYTE   W01
 BYTE   W01
 BYTE   W01
 BYTE   W01
 BYTE   W01
 BYTE   W01
 BYTE   W01
 BYTE   W01
 BYTE   W01
 BYTE   W01
 BYTE   W01
 BYTE   W01
 BYTE   W01
 BYTE   W01
 BYTE   W01
 BYTE   W01
 BYTE   W01
 BYTE   W01
 BYTE   EOT
 BYTE   An3  v074
 BYTE   W01
 BYTE   W01
 BYTE   W01
 BYTE   W01
 BYTE   W01
 BYTE   W01
 BYTE   W72
//  #03 //051   ----------------------------------------
 BYTE   W24
 BYTE   VOICE   48
 BYTE   VOL   27*Knights2_mvl/mxv
 BYTE   PAN   c_v-6
 BYTE   W72
//  #03 //052   ----------------------------------------
 BYTE   W24
 BYTE   W03
 BYTE   GoTo
  POIN2 Label_019B447D
 BYTE   FINE

//**************** Track 4 (Midi-Chn.3) ****************//

Knights2_004:
//  #04 //000   ----------------------------------------
 BYTE   KEYSH   Knights2_key+0
 BYTE   VOICE   48
 BYTE   PAN   c_v-20
 BYTE   VOL   23*Knights2_mvl/mxv
 BYTE   W24
Label_0192B831:
 BYTE   W72
//  #04 //001   ----------------------------------------
 BYTE   W96
//  #04 //002   ----------------------------------------
 BYTE   W96
//  #04 //003   ----------------------------------------
 BYTE   W96
//  #04 //004   ----------------------------------------
 BYTE   W96
//  #04 //005   ----------------------------------------
 BYTE   W96
//  #04 //006   ----------------------------------------
 BYTE   W96
//  #04 //007   ----------------------------------------
 BYTE   W96
//  #04 //008   ----------------------------------------
Label_0192B839:
 BYTE   W24
 BYTE   N12  Dn5  v116
 BYTE   W12
 BYTE   An4  v096
 BYTE   W12
 BYTE   En4
 BYTE   W12
 BYTE   Cn5  v116
 BYTE   W12
 BYTE   Gn4  v096
 BYTE   W12
 BYTE   Dn4
 BYTE   W12
 BYTE   PEND 
//  #04 //009   ----------------------------------------
Label_0192B84C:
 BYTE   N12  En4  v116
 BYTE   W12
 BYTE   An4  v096
 BYTE   W12
 BYTE   Dn5  v116
 BYTE   W12
 BYTE   An4  v096
 BYTE   W12
 BYTE   En4
 BYTE   W12
 BYTE   Cn5  v116
 BYTE   W12
 BYTE   Gn4  v096
 BYTE   W12
 BYTE   Dn4
 BYTE   W12
 BYTE   PEND 
//  #04 //010   ----------------------------------------
 BYTE   PATT
  POIN2 Label_0192B84C
//  #04 //011   ----------------------------------------
Label_0192B869:
 BYTE   N12  Fn4  v116
 BYTE   W12
 BYTE   An4  v096
 BYTE   W12
 BYTE   Dn5  v116
 BYTE   W12
 BYTE   An4  v096
 BYTE   W12
 BYTE   En4
 BYTE   W12
 BYTE   Cn5  v116
 BYTE   W12
 BYTE   Gn4  v096
 BYTE   W12
 BYTE   Dn4
 BYTE   W12
 BYTE   PEND 
//  #04 //012   ----------------------------------------
 BYTE   PATT
  POIN2 Label_0192B869
//  #04 //013   ----------------------------------------
 BYTE   PATT
  POIN2 Label_0192B869
//  #04 //014   ----------------------------------------
 BYTE   N12  Fn4  v116
 BYTE   W12
 BYTE   An4  v096
 BYTE   W84
//  #04 //015   ----------------------------------------
 BYTE   W96
//  #04 //016   ----------------------------------------
 BYTE   W96
//  #04 //017   ----------------------------------------
 BYTE   W96
//  #04 //018   ----------------------------------------
 BYTE   W96
//  #04 //019   ----------------------------------------
 BYTE   W96
//  #04 //020   ----------------------------------------
 BYTE   W96
//  #04 //021   ----------------------------------------
 BYTE   W96
//  #04 //022   ----------------------------------------
 BYTE   PATT
  POIN2 Label_0192B839
//  #04 //023   ----------------------------------------
 BYTE   PATT
  POIN2 Label_0192B84C
//  #04 //024   ----------------------------------------
 BYTE   PATT
  POIN2 Label_0192B84C
//  #04 //025   ----------------------------------------
 BYTE   PATT
  POIN2 Label_0192B869
//  #04 //026   ----------------------------------------
 BYTE   PATT
  POIN2 Label_0192B869
//  #04 //027   ----------------------------------------
 BYTE   PATT
  POIN2 Label_0192B869
//  #04 //028   ----------------------------------------
 BYTE   N12  Fn4  v116
 BYTE   W12
 BYTE   An4  v096
 BYTE   W12
 BYTE   N04  An3  v127
 BYTE   N04  Dn4
 BYTE   W12
 BYTE   An3  v112
 BYTE   N04  Dn4
 BYTE   W12
 BYTE   An3  v108
 BYTE   N04  Dn4
 BYTE   W12
 BYTE   An3  v127
 BYTE   N04  Dn4
 BYTE   W24
 BYTE   An3  v108
 BYTE   N04  Dn4
 BYTE   W12
//  #04 //029   ----------------------------------------
 BYTE   An3  v127
 BYTE   N04  Dn4
 BYTE   W12
 BYTE   An3  v108
 BYTE   N04  Dn4
 BYTE   W12
 BYTE   An3
 BYTE   N04  Dn4
 BYTE   W12
 BYTE   An3  v127
 BYTE   N04  Dn4
 BYTE   W24
 BYTE   An3  v108
 BYTE   N04  Dn4
 BYTE   W12
 BYTE   An3  v127
 BYTE   N04  Dn4
 BYTE   W12
 BYTE   An3  v108
 BYTE   N04  Dn4
 BYTE   W12
//  #04 //030   ----------------------------------------
 BYTE   An3  v120
 BYTE   N04  Dn4
 BYTE   W12
 BYTE   An3  v108
 BYTE   N04  Dn4
 BYTE   W12
 BYTE   Gn3  v127
 BYTE   N04  Cn4
 BYTE   W12
 BYTE   Gn3  v112
 BYTE   N04  Cn4
 BYTE   W12
 BYTE   Gn3  v108
 BYTE   N04  Cn4
 BYTE   W12
 BYTE   Gn3  v127
 BYTE   N04  Cn4
 BYTE   W24
 BYTE   Gn3  v108
 BYTE   N04  Cn4
 BYTE   W12
//  #04 //031   ----------------------------------------
 BYTE   Gn3  v127
 BYTE   N04  Cn4
 BYTE   W12
 BYTE   Gn3  v108
 BYTE   N04  Cn4
 BYTE   W12
 BYTE   Gn3
 BYTE   N04  Cn4
 BYTE   W12
 BYTE   Gn3  v127
 BYTE   N04  Cn4
 BYTE   W24
 BYTE   Gn3  v108
 BYTE   N04  Cn4
 BYTE   W12
 BYTE   Gn3  v124
 BYTE   N04  Cn4  v127
 BYTE   W12
 BYTE   Gn3  v108
 BYTE   N04  Cn4
 BYTE   W12
//  #04 //032   ----------------------------------------
 BYTE   Gn3  v120
 BYTE   N04  Cn4
 BYTE   W12
 BYTE   Gn3  v108
 BYTE   N04  Cn4
 BYTE   W12
 BYTE   An3  v127
 BYTE   N04  Dn4
 BYTE   W12
 BYTE   An3  v112
 BYTE   N04  Dn4
 BYTE   W12
 BYTE   An3  v108
 BYTE   N04  Dn4
 BYTE   W12
 BYTE   An3  v127
 BYTE   N04  Dn4
 BYTE   W24
 BYTE   An3  v108
 BYTE   N04  Dn4
 BYTE   W12
//  #04 //033   ----------------------------------------
 BYTE   An3  v127
 BYTE   N04  Dn4
 BYTE   W12
 BYTE   An3  v108
 BYTE   N04  Dn4
 BYTE   W12
 BYTE   An3
 BYTE   N04  Dn4
 BYTE   W12
 BYTE   An3  v127
 BYTE   N04  Dn4
 BYTE   W24
 BYTE   An3  v108
 BYTE   N04  Dn4
 BYTE   W12
 BYTE   An3  v127
 BYTE   N04  Dn4
 BYTE   W16
 BYTE   An3
 BYTE   N04  Dn4
 BYTE   W08
//  #04 //034   ----------------------------------------
 BYTE   W08
 BYTE   An3
 BYTE   N04  Dn4
 BYTE   W16
 BYTE   Gn3
 BYTE   N04  Cn4
 BYTE   W12
 BYTE   Gn3  v112
 BYTE   N04  Cn4
 BYTE   W12
 BYTE   Gn3  v108
 BYTE   N04  Cn4
 BYTE   W12
 BYTE   Gn3  v127
 BYTE   N04  Cn4
 BYTE   W24
 BYTE   Gn3  v108
 BYTE   N04  Cn4
 BYTE   W12
//  #04 //035   ----------------------------------------
 BYTE   Gn3  v127
 BYTE   N04  Cn4
 BYTE   W12
 BYTE   Gn3  v108
 BYTE   N04  Cn4
 BYTE   W12
 BYTE   An3
 BYTE   N04  Cn4
 BYTE   W12
 BYTE   An3  v127
 BYTE   N04  Cn4
 BYTE   W24
 BYTE   An3  v108
 BYTE   N04  Cn4
 BYTE   W12
 BYTE   An3  v124
 BYTE   N04  Cn4  v127
 BYTE   W12
 BYTE   An3  v108
 BYTE   N04  Cn4
 BYTE   W12
//  #04 //036   ----------------------------------------
 BYTE   An3  v120
 BYTE   N04  Cn4
 BYTE   W12
 BYTE   An3  v108
 BYTE   N04  Cn4
 BYTE   W12
 BYTE   An3  v127
 BYTE   N04  Dn4
 BYTE   W12
 BYTE   An3  v112
 BYTE   N04  Dn4
 BYTE   W12
 BYTE   An3  v108
 BYTE   N04  Dn4
 BYTE   W12
 BYTE   An3  v127
 BYTE   N04  Dn4
 BYTE   W24
 BYTE   An3  v108
 BYTE   N04  Dn4
 BYTE   W12
//  #04 //037   ----------------------------------------
 BYTE   An3  v127
 BYTE   N04  Dn4
 BYTE   W12
 BYTE   An3  v108
 BYTE   N04  Dn4
 BYTE   W12
 BYTE   An3
 BYTE   N04  Dn4
 BYTE   W12
 BYTE   An3  v127
 BYTE   N04  Dn4
 BYTE   W24
 BYTE   An3  v108
 BYTE   N04  Dn4
 BYTE   W12
 BYTE   An3  v127
 BYTE   N04  Dn4
 BYTE   W24
//  #04 //038   ----------------------------------------
 BYTE   W96
//  #04 //039   ----------------------------------------
 BYTE   W96
//  #04 //040   ----------------------------------------
 BYTE   W96
//  #04 //041   ----------------------------------------
 BYTE   W96
//  #04 //042   ----------------------------------------
 BYTE   W96
//  #04 //043   ----------------------------------------
 BYTE   W96
//  #04 //044   ----------------------------------------
 BYTE   W96
//  #04 //045   ----------------------------------------
 BYTE   W96
//  #04 //046   ----------------------------------------
 BYTE   W96
//  #04 //047   ----------------------------------------
 BYTE   W96
//  #04 //048   ----------------------------------------
 BYTE   W96
//  #04 //049   ----------------------------------------
 BYTE   W96
//  #04 //050   ----------------------------------------
 BYTE   W96
//  #04 //051   ----------------------------------------
 BYTE   W96
//  #04 //052   ----------------------------------------
 BYTE   W24
 BYTE   W03
 BYTE   GoTo
  POIN2 Label_0192B831
 BYTE   FINE

//**************** Track 5 (Midi-Chn.4) ****************//

Knights2_005:
//  #05 //000   ----------------------------------------
 BYTE   KEYSH   Knights2_key+0
 BYTE   VOICE   48
 BYTE   PAN   c_v-10
 BYTE   VOL   23*Knights2_mvl/mxv
 BYTE   W24
Label_0192B11D:
 BYTE   W72
//  #05 //001   ----------------------------------------
 BYTE   W96
//  #05 //002   ----------------------------------------
 BYTE   W96
//  #05 //003   ----------------------------------------
 BYTE   W96
//  #05 //004   ----------------------------------------
 BYTE   W96
//  #05 //005   ----------------------------------------
 BYTE   W96
//  #05 //006   ----------------------------------------
 BYTE   W96
//  #05 //007   ----------------------------------------
 BYTE   W96
//  #05 //008   ----------------------------------------
Label_0192B125:
 BYTE   W24
 BYTE   N12  Gn4  v116
 BYTE   W12
 BYTE   Dn4  v096
 BYTE   W12
 BYTE   An3
 BYTE   W12
 BYTE   Gn4  v116
 BYTE   W12
 BYTE   Dn4  v096
 BYTE   W12
 BYTE   An3
 BYTE   W12
 BYTE   PEND 
//  #05 //009   ----------------------------------------
Label_0192B138:
 BYTE   N12  Cn4  v108
 BYTE   W12
 BYTE   En4  v096
 BYTE   W12
 BYTE   Gn4  v116
 BYTE   W12
 BYTE   Dn4  v096
 BYTE   W12
 BYTE   An3
 BYTE   W12
 BYTE   Gn4  v116
 BYTE   W12
 BYTE   Dn4  v096
 BYTE   W12
 BYTE   An3
 BYTE   W12
 BYTE   PEND 
//  #05 //010   ----------------------------------------
 BYTE   PATT
  POIN2 Label_0192B138
//  #05 //011   ----------------------------------------
Label_0192B155:
 BYTE   N12  Dn4  v108
 BYTE   W12
 BYTE   Fn4  v096
 BYTE   W12
 BYTE   Gn4  v116
 BYTE   W12
 BYTE   Dn4  v096
 BYTE   W12
 BYTE   An3
 BYTE   W12
 BYTE   Gn4  v116
 BYTE   W12
 BYTE   Dn4  v096
 BYTE   W12
 BYTE   An3
 BYTE   W12
 BYTE   PEND 
//  #05 //012   ----------------------------------------
 BYTE   PATT
  POIN2 Label_0192B155
//  #05 //013   ----------------------------------------
 BYTE   PATT
  POIN2 Label_0192B155
//  #05 //014   ----------------------------------------
 BYTE   N12  Dn4  v108
 BYTE   W12
 BYTE   Fn4  v096
 BYTE   W84
//  #05 //015   ----------------------------------------
 BYTE   W96
//  #05 //016   ----------------------------------------
 BYTE   W96
//  #05 //017   ----------------------------------------
 BYTE   W96
//  #05 //018   ----------------------------------------
 BYTE   W96
//  #05 //019   ----------------------------------------
 BYTE   W96
//  #05 //020   ----------------------------------------
 BYTE   W96
//  #05 //021   ----------------------------------------
 BYTE   W96
//  #05 //022   ----------------------------------------
 BYTE   PATT
  POIN2 Label_0192B125
//  #05 //023   ----------------------------------------
 BYTE   PATT
  POIN2 Label_0192B138
//  #05 //024   ----------------------------------------
 BYTE   PATT
  POIN2 Label_0192B138
//  #05 //025   ----------------------------------------
 BYTE   PATT
  POIN2 Label_0192B155
//  #05 //026   ----------------------------------------
 BYTE   PATT
  POIN2 Label_0192B155
//  #05 //027   ----------------------------------------
 BYTE   PATT
  POIN2 Label_0192B155
//  #05 //028   ----------------------------------------
 BYTE   N12  Dn4  v108
 BYTE   W12
 BYTE   Fn4  v096
 BYTE   W12
 BYTE   N04  An2  v127
 BYTE   W12
 BYTE   N04
 BYTE   W12
 BYTE   N04
 BYTE   W12
 BYTE   N04
 BYTE   W24
 BYTE   N04
 BYTE   W12
//  #05 //029   ----------------------------------------
 BYTE   N04
 BYTE   W12
 BYTE   N04
 BYTE   W12
 BYTE   N04
 BYTE   W12
 BYTE   N04
 BYTE   W24
 BYTE   N04
 BYTE   W12
 BYTE   N04
 BYTE   W12
 BYTE   N04
 BYTE   W12
//  #05 //030   ----------------------------------------
 BYTE   N04
 BYTE   W12
 BYTE   N04
 BYTE   W12
 BYTE   Gn2
 BYTE   W12
 BYTE   N04
 BYTE   W12
 BYTE   N04
 BYTE   W12
 BYTE   N04
 BYTE   W24
 BYTE   N04
 BYTE   W12
//  #05 //031   ----------------------------------------
 BYTE   N04
 BYTE   W12
 BYTE   N04
 BYTE   W12
 BYTE   N04
 BYTE   W12
 BYTE   N04
 BYTE   W24
 BYTE   N04
 BYTE   W12
 BYTE   N04
 BYTE   W12
 BYTE   N04
 BYTE   W12
//  #05 //032   ----------------------------------------
 BYTE   N04
 BYTE   W12
 BYTE   N04
 BYTE   W12
 BYTE   An2
 BYTE   W12
 BYTE   N04
 BYTE   W12
 BYTE   N04
 BYTE   W12
 BYTE   N04
 BYTE   W24
 BYTE   N04
 BYTE   W12
//  #05 //033   ----------------------------------------
 BYTE   N04
 BYTE   W12
 BYTE   N04
 BYTE   W12
 BYTE   N04
 BYTE   W12
 BYTE   N04
 BYTE   W24
 BYTE   N04
 BYTE   W12
 BYTE   N04
 BYTE   W16
 BYTE   N04
 BYTE   W08
//  #05 //034   ----------------------------------------
 BYTE   W08
 BYTE   N04
 BYTE   W16
 BYTE   Gn2
 BYTE   W12
 BYTE   N04
 BYTE   W12
 BYTE   N04
 BYTE   W12
 BYTE   N04
 BYTE   W24
 BYTE   N04
 BYTE   W12
//  #05 //035   ----------------------------------------
 BYTE   N04
 BYTE   W12
 BYTE   N04
 BYTE   W12
 BYTE   An2
 BYTE   W12
 BYTE   N04
 BYTE   W24
 BYTE   N04
 BYTE   W12
 BYTE   N04
 BYTE   W12
 BYTE   N04
 BYTE   W12
//  #05 //036   ----------------------------------------
 BYTE   N04
 BYTE   W12
 BYTE   N04
 BYTE   W12
 BYTE   N04
 BYTE   W12
 BYTE   N04
 BYTE   W12
 BYTE   N04
 BYTE   W12
 BYTE   N04
 BYTE   W24
 BYTE   N04
 BYTE   W12
//  #05 //037   ----------------------------------------
 BYTE   N04
 BYTE   W12
 BYTE   N04
 BYTE   W12
 BYTE   N04
 BYTE   W12
 BYTE   N04
 BYTE   W24
 BYTE   N04
 BYTE   W12
 BYTE   N04
 BYTE   W24
//  #05 //038   ----------------------------------------
 BYTE   W96
//  #05 //039   ----------------------------------------
 BYTE   W96
//  #05 //040   ----------------------------------------
 BYTE   W96
//  #05 //041   ----------------------------------------
 BYTE   W96
//  #05 //042   ----------------------------------------
 BYTE   W96
//  #05 //043   ----------------------------------------
 BYTE   W96
//  #05 //044   ----------------------------------------
 BYTE   W96
//  #05 //045   ----------------------------------------
 BYTE   W96
//  #05 //046   ----------------------------------------
 BYTE   W96
//  #05 //047   ----------------------------------------
 BYTE   W96
//  #05 //048   ----------------------------------------
 BYTE   W96
//  #05 //049   ----------------------------------------
 BYTE   W96
//  #05 //050   ----------------------------------------
 BYTE   W96
//  #05 //051   ----------------------------------------
 BYTE   W96
//  #05 //052   ----------------------------------------
 BYTE   W24
 BYTE   W03
 BYTE   GoTo
  POIN2 Label_0192B11D
 BYTE   FINE

//**************** Track 6 (Midi-Chn.5) ****************//

Knights2_006:
//  #06 //000   ----------------------------------------
 BYTE   KEYSH   Knights2_key+0
 BYTE   VOICE   30
 BYTE   PAN   c_v+30
 BYTE   VOL   30*Knights2_mvl/mxv
 BYTE   W24
Label_0192B251:
 BYTE   W72
//  #06 //001   ----------------------------------------
 BYTE   W96
//  #06 //002   ----------------------------------------
 BYTE   W96
//  #06 //003   ----------------------------------------
 BYTE   W96
//  #06 //004   ----------------------------------------
 BYTE   W96
//  #06 //005   ----------------------------------------
 BYTE   W96
//  #06 //006   ----------------------------------------
 BYTE   W96
//  #06 //007   ----------------------------------------
 BYTE   W96
//  #06 //008   ----------------------------------------
 BYTE   W96
//  #06 //009   ----------------------------------------
 BYTE   W96
//  #06 //010   ----------------------------------------
Label_0192B25B:
 BYTE   W24
 BYTE   N36  An4  v112
 BYTE   W36
 BYTE   Dn5
 BYTE   W36
 BYTE   PEND 
//  #06 //011   ----------------------------------------
Label_0192B263:
 BYTE   N24  Cn5  v112
 BYTE   W24
 BYTE   N36  Bn4
 BYTE   W36
 BYTE   Cn5
 BYTE   W36
 BYTE   PEND 
//  #06 //012   ----------------------------------------
Label_0192B26D:
 BYTE   N21  Bn4  v112
 BYTE   W24
 BYTE   N12
 BYTE   W12
 BYTE   Cn5
 BYTE   W12
 BYTE   TIE  An4
 BYTE   W48
 BYTE   PEND 
//  #06 //013   ----------------------------------------
 BYTE   W96
//  #06 //014   ----------------------------------------
 BYTE   W06
 BYTE   EOT
 BYTE   W90
//  #06 //015   ----------------------------------------
 BYTE   W96
//  #06 //016   ----------------------------------------
 BYTE   W96
//  #06 //017   ----------------------------------------
 BYTE   W96
//  #06 //018   ----------------------------------------
 BYTE   W96
//  #06 //019   ----------------------------------------
 BYTE   W96
//  #06 //020   ----------------------------------------
 BYTE   W96
//  #06 //021   ----------------------------------------
 BYTE   W96
//  #06 //022   ----------------------------------------
 BYTE   W96
//  #06 //023   ----------------------------------------
 BYTE   W96
//  #06 //024   ----------------------------------------
 BYTE   PATT
  POIN2 Label_0192B25B
//  #06 //025   ----------------------------------------
 BYTE   PATT
  POIN2 Label_0192B263
//  #06 //026   ----------------------------------------
 BYTE   PATT
  POIN2 Label_0192B26D
//  #06 //027   ----------------------------------------
 BYTE   W96
//  #06 //028   ----------------------------------------
 BYTE   W06
 BYTE   EOT
 BYTE   An4
 BYTE   W90
//  #06 //029   ----------------------------------------
 BYTE   W96
//  #06 //030   ----------------------------------------
 BYTE   W96
//  #06 //031   ----------------------------------------
 BYTE   W96
//  #06 //032   ----------------------------------------
 BYTE   W96
//  #06 //033   ----------------------------------------
 BYTE   W96
//  #06 //034   ----------------------------------------
 BYTE   W96
//  #06 //035   ----------------------------------------
 BYTE   W96
//  #06 //036   ----------------------------------------
 BYTE   W96
//  #06 //037   ----------------------------------------
 BYTE   W96
//  #06 //038   ----------------------------------------
 BYTE   W96
//  #06 //039   ----------------------------------------
 BYTE   W96
//  #06 //040   ----------------------------------------
 BYTE   W96
//  #06 //041   ----------------------------------------
 BYTE   W96
//  #06 //042   ----------------------------------------
 BYTE   W96
//  #06 //043   ----------------------------------------
 BYTE   W96
//  #06 //044   ----------------------------------------
 BYTE   W96
//  #06 //045   ----------------------------------------
 BYTE   W96
//  #06 //046   ----------------------------------------
 BYTE   N04  An4  v120
 BYTE   W04
 BYTE   Bn4
 BYTE   W04
 BYTE   Cn5
 BYTE   W04
 BYTE   Dn5
 BYTE   W04
 BYTE   En5
 BYTE   W04
 BYTE   Fn5
 BYTE   W04
 BYTE   N48  Gn5
 BYTE   W48
 BYTE   En5
 BYTE   W24
//  #06 //047   ----------------------------------------
 BYTE   W24
 BYTE   Cs5
 BYTE   W48
 BYTE   An4
 BYTE   W24
//  #06 //048   ----------------------------------------
 BYTE   W96
//  #06 //049   ----------------------------------------
 BYTE   W96
//  #06 //050   ----------------------------------------
 BYTE   W96
//  #06 //051   ----------------------------------------
 BYTE   W96
//  #06 //052   ----------------------------------------
 BYTE   W24
 BYTE   W03
 BYTE   GoTo
  POIN2 Label_0192B251
 BYTE   FINE

//**************** Track 7 (Midi-Chn.6) ****************//

Knights2_007:
//  #07 //000   ----------------------------------------
 BYTE   KEYSH   Knights2_key+0
 BYTE   VOICE   29
 BYTE   PAN   c_v+14
 BYTE   VOL   27*Knights2_mvl/mxv
 BYTE   W24
Label_0192B2D9:
 BYTE   W72
//  #07 //001   ----------------------------------------
 BYTE   W96
//  #07 //002   ----------------------------------------
 BYTE   W96
//  #07 //003   ----------------------------------------
 BYTE   W96
//  #07 //004   ----------------------------------------
 BYTE   W96
//  #07 //005   ----------------------------------------
 BYTE   W96
//  #07 //006   ----------------------------------------
 BYTE   W96
//  #07 //007   ----------------------------------------
Label_0192B2E0:
 BYTE   W24
 BYTE   N36  Gn4  v120
 BYTE   W36
 BYTE   N54  Cn4  v112
 BYTE   W36
 BYTE   PEND 
//  #07 //008   ----------------------------------------
Label_0192B2EA:
 BYTE   W24
 BYTE   N36  Dn4  v112
 BYTE   W36
 BYTE   En4
 BYTE   W36
 BYTE   PEND 
//  #07 //009   ----------------------------------------
Label_0192B2F2:
 BYTE   N24  Fn4  v112
 BYTE   W24
 BYTE   N96  Gn4
 BYTE   W72
 BYTE   PEND 
//  #07 //010   ----------------------------------------
Label_0192B2FA:
 BYTE   W24
 BYTE   TIE  Dn4  v112
 BYTE   W72
 BYTE   PEND 
//  #07 //011   ----------------------------------------
 BYTE   W96
//  #07 //012   ----------------------------------------
 BYTE   W24
 BYTE   EOT
 BYTE   W72
//  #07 //013   ----------------------------------------
 BYTE   W96
//  #07 //014   ----------------------------------------
 BYTE   W96
//  #07 //015   ----------------------------------------
 BYTE   W96
//  #07 //016   ----------------------------------------
 BYTE   W96
//  #07 //017   ----------------------------------------
 BYTE   W96
//  #07 //018   ----------------------------------------
 BYTE   W96
//  #07 //019   ----------------------------------------
 BYTE   W96
//  #07 //020   ----------------------------------------
 BYTE   W96
//  #07 //021   ----------------------------------------
 BYTE   PATT
  POIN2 Label_0192B2E0
//  #07 //022   ----------------------------------------
 BYTE   PATT
  POIN2 Label_0192B2EA
//  #07 //023   ----------------------------------------
 BYTE   PATT
  POIN2 Label_0192B2F2
//  #07 //024   ----------------------------------------
 BYTE   PATT
  POIN2 Label_0192B2FA
//  #07 //025   ----------------------------------------
 BYTE   W96
//  #07 //026   ----------------------------------------
 BYTE   W24
 BYTE   EOT
 BYTE   Dn4
 BYTE   W72
//  #07 //027   ----------------------------------------
 BYTE   W96
//  #07 //028   ----------------------------------------
 BYTE   W96
//  #07 //029   ----------------------------------------
 BYTE   W96
//  #07 //030   ----------------------------------------
 BYTE   W96
//  #07 //031   ----------------------------------------
 BYTE   W96
//  #07 //032   ----------------------------------------
 BYTE   W96
//  #07 //033   ----------------------------------------
 BYTE   W96
//  #07 //034   ----------------------------------------
 BYTE   W96
//  #07 //035   ----------------------------------------
 BYTE   W96
//  #07 //036   ----------------------------------------
 BYTE   W96
//  #07 //037   ----------------------------------------
 BYTE   W96
//  #07 //038   ----------------------------------------
 BYTE   W96
//  #07 //039   ----------------------------------------
 BYTE   W96
//  #07 //040   ----------------------------------------
 BYTE   W96
//  #07 //041   ----------------------------------------
 BYTE   W96
//  #07 //042   ----------------------------------------
 BYTE   W96
//  #07 //043   ----------------------------------------
 BYTE   W96
//  #07 //044   ----------------------------------------
 BYTE   N04  An3  v112
 BYTE   W04
 BYTE   Bn3
 BYTE   W04
 BYTE   Cn4
 BYTE   W04
 BYTE   Dn4
 BYTE   W04
 BYTE   En4
 BYTE   W04
 BYTE   Fn4
 BYTE   W04
 BYTE   N48  Cn4  v120
 BYTE   N48  Gn4
 BYTE   W48
 BYTE   Gn3
 BYTE   N48  Dn4
 BYTE   W24
//  #07 //045   ----------------------------------------
 BYTE   W24
 BYTE   Gn3
 BYTE   N48  Cn4
 BYTE   W48
 BYTE   Cn3
 BYTE   N48  Gn3
 BYTE   W24
//  #07 //046   ----------------------------------------
 BYTE   W24
 BYTE   Cs4  v112
 BYTE   N48  Gn4
 BYTE   W48
 BYTE   An3
 BYTE   N48  En4
 BYTE   W24
//  #07 //047   ----------------------------------------
 BYTE   W24
 BYTE   An3
 BYTE   N48  Cs4
 BYTE   W48
 BYTE   En3
 BYTE   N48  An3
 BYTE   W24
//  #07 //048   ----------------------------------------
 BYTE   W96
//  #07 //049   ----------------------------------------
 BYTE   W96
//  #07 //050   ----------------------------------------
 BYTE   W96
//  #07 //051   ----------------------------------------
 BYTE   W96
//  #07 //052   ----------------------------------------
 BYTE   W24
 BYTE   W03
 BYTE   GoTo
  POIN2 Label_0192B2D9
 BYTE   FINE

//**************** Track 8 (Midi-Chn.7) ****************//

Knights2_008:
//  #08 //000   ----------------------------------------
 BYTE   KEYSH   Knights2_key+0
 BYTE   VOICE   62
 BYTE   PAN   c_v-16
 BYTE   VOL   27*Knights2_mvl/mxv
 BYTE   W24
Label_019B3B11:
 BYTE   N60  Fn2  v112
 BYTE   W60
 BYTE   N12  En2
 BYTE   W12
//  #08 //001   ----------------------------------------
Label_019B3B18:
 BYTE   N12  Dn2  v112
 BYTE   W12
 BYTE   En2
 BYTE   W12
 BYTE   N36  Fn2
 BYTE   W36
 BYTE   Gn2
 BYTE   W36
 BYTE   PEND 
//  #08 //002   ----------------------------------------
 BYTE   N24  An2
 BYTE   W24
 BYTE   N36  Dn2
 BYTE   W36
 BYTE   An2
 BYTE   W36
//  #08 //003   ----------------------------------------
 BYTE   N24  Gn2
 BYTE   W24
 BYTE   N36  As2
 BYTE   W36
 BYTE   An2
 BYTE   W36
//  #08 //004   ----------------------------------------
Label_019B3B34:
 BYTE   N24  Gn2  v112
 BYTE   W24
 BYTE   N36  Fn2
 BYTE   W48
 BYTE   N48  Dn2
 BYTE   W24
 BYTE   PEND 
//  #08 //005   ----------------------------------------
Label_019B3B3F:
 BYTE   W24
 BYTE   N48  An2  v112
 BYTE   W48
 BYTE   Dn3
 BYTE   W24
 BYTE   PEND 
//  #08 //006   ----------------------------------------
 BYTE   W24
 BYTE   N96  En3
 BYTE   W72
//  #08 //007   ----------------------------------------
Label_019B3B4B:
 BYTE   W24
 BYTE   N48  Fn3  v092
 BYTE   W48
 BYTE   En3
 BYTE   W24
 BYTE   PEND 
//  #08 //008   ----------------------------------------
Label_019B3B53:
 BYTE   W24
 BYTE   TIE  Dn3  v080
 BYTE   W72
 BYTE   PEND 
//  #08 //009   ----------------------------------------
 BYTE   W96
//  #08 //010   ----------------------------------------
 BYTE   EOT
Label_019B3B5B:
 BYTE   W24
 BYTE   N36  An1  v112
 BYTE   W36
 BYTE   Dn2
 BYTE   W36
 BYTE   PEND 
//  #08 //011   ----------------------------------------
Label_019B3B63:
 BYTE   N24  Cn2  v112
 BYTE   W24
 BYTE   N36  Bn1
 BYTE   W36
 BYTE   Cn2
 BYTE   W36
 BYTE   PEND 
//  #08 //012   ----------------------------------------
Label_019B3B6D:
 BYTE   N21  Bn1  v112
 BYTE   W24
 BYTE   N12
 BYTE   W12
 BYTE   Cn2
 BYTE   W12
 BYTE   TIE  An1
 BYTE   W48
 BYTE   PEND 
//  #08 //013   ----------------------------------------
 BYTE   W96
//  #08 //014   ----------------------------------------
 BYTE   W06
 BYTE   EOT
 BYTE   W18
 BYTE   N60  Fn2
 BYTE   W60
 BYTE   N12  En2
 BYTE   W12
//  #08 //015   ----------------------------------------
 BYTE   PATT
  POIN2 Label_019B3B18
//  #08 //016   ----------------------------------------
 BYTE   N24  An2  v112
 BYTE   W24
 BYTE   N36  As2
 BYTE   W36
 BYTE   An2
 BYTE   W36
//  #08 //017   ----------------------------------------
 BYTE   N24  Gn2
 BYTE   W24
 BYTE   N36  Cn3
 BYTE   W36
 BYTE   An2
 BYTE   W36
//  #08 //018   ----------------------------------------
 BYTE   PATT
  POIN2 Label_019B3B34
//  #08 //019   ----------------------------------------
 BYTE   PATT
  POIN2 Label_019B3B3F
//  #08 //020   ----------------------------------------
 BYTE   W24
 BYTE   N96  En3  v112
 BYTE   W72
//  #08 //021   ----------------------------------------
 BYTE   PATT
  POIN2 Label_019B3B4B
//  #08 //022   ----------------------------------------
 BYTE   PATT
  POIN2 Label_019B3B53
//  #08 //023   ----------------------------------------
 BYTE   W96
//  #08 //024   ----------------------------------------
 BYTE   EOT
 BYTE   Dn3
//  #08 //025   ----------------------------------------
 BYTE   PATT
  POIN2 Label_019B3B5B
//  #08 //026   ----------------------------------------
 BYTE   PATT
  POIN2 Label_019B3B63
//  #08 //027   ----------------------------------------
 BYTE   PATT
  POIN2 Label_019B3B6D
//  #08 //028   ----------------------------------------
 BYTE   W96
//  #08 //029   ----------------------------------------
 BYTE   W06
 BYTE   EOT
 BYTE   An1
 BYTE   W90
//  #08 //030   ----------------------------------------
 BYTE   W96
//  #08 //031   ----------------------------------------
 BYTE   W96
//  #08 //032   ----------------------------------------
 BYTE   W96
//  #08 //033   ----------------------------------------
 BYTE   W96
//  #08 //034   ----------------------------------------
 BYTE   W96
//  #08 //035   ----------------------------------------
 BYTE   W96
//  #08 //036   ----------------------------------------
 BYTE   W96
//  #08 //037   ----------------------------------------
 BYTE   W96
//  #08 //038   ----------------------------------------
 BYTE   W96
//  #08 //039   ----------------------------------------
 BYTE   W72
 BYTE   N48  Gn2  v112
 BYTE   W24
//  #08 //040   ----------------------------------------
Label_019B3BD7:
 BYTE   W24
 BYTE   N48  Dn3  v112
 BYTE   W48
 BYTE   Cn3
 BYTE   W24
 BYTE   PEND 
//  #08 //041   ----------------------------------------
 BYTE   W24
 BYTE   Bn2
 BYTE   W48
 BYTE   N24  An2
 BYTE   W24
//  #08 //042   ----------------------------------------
 BYTE   Bn2
 BYTE   W24
 BYTE   N48  Cn3
 BYTE   W48
 BYTE   Fn2
 BYTE   W24
//  #08 //043   ----------------------------------------
 BYTE   W24
 BYTE   N36  Gn2
 BYTE   W48
 BYTE   N48
 BYTE   W24
//  #08 //044   ----------------------------------------
 BYTE   PATT
  POIN2 Label_019B3BD7
//  #08 //045   ----------------------------------------
 BYTE   W24
 BYTE   N48  Gn3  v112
 BYTE   W48
 BYTE   Dn3
 BYTE   W24
//  #08 //046   ----------------------------------------
 BYTE   W24
 BYTE   Cn3
 BYTE   W48
 BYTE   Gn2
 BYTE   W24
//  #08 //047   ----------------------------------------
 BYTE   W24
 BYTE   Gn3
 BYTE   W48
 BYTE   En3
 BYTE   W24
//  #08 //048   ----------------------------------------
 BYTE   W24
 BYTE   Cs3
 BYTE   W48
 BYTE   An2
 BYTE   W24
//  #08 //049   ----------------------------------------
 BYTE   W96
//  #08 //050   ----------------------------------------
 BYTE   W96
//  #08 //051   ----------------------------------------
 BYTE   W96
//  #08 //052   ----------------------------------------
 BYTE   W96
//  #08 //053   ----------------------------------------
 BYTE   W24
 BYTE   W03
 BYTE   GoTo
  POIN2 Label_019B3B11
 BYTE   FINE

//**************** Track 9 (Midi-Chn.8) ****************//

Knights2_009:
//  #09 //000   ----------------------------------------
 BYTE   KEYSH   Knights2_key+0
 BYTE   VOICE   60
 BYTE   PAN   c_v-7
 BYTE   VOL   33*Knights2_mvl/mxv
 BYTE   W24
Label_019B3C25:
 BYTE   W72
//  #09 //001   ----------------------------------------
 BYTE   W96
//  #09 //002   ----------------------------------------
 BYTE   W96
//  #09 //003   ----------------------------------------
 BYTE   W96
//  #09 //004   ----------------------------------------
Label_019B3C29:
 BYTE   W72
 BYTE   N48  An1  v080
 BYTE   N48  Dn2  v127
 BYTE   W24
 BYTE   PEND 
//  #09 //005   ----------------------------------------
Label_019B3C32:
 BYTE   W24
 BYTE   N48  Dn2  v072
 BYTE   N48  An2  v127
 BYTE   W48
 BYTE   An2  v080
 BYTE   N48  Dn3  v127
 BYTE   W24
 BYTE   PEND 
//  #09 //006   ----------------------------------------
Label_019B3C41:
 BYTE   W24
 BYTE   N96  Cn3  v080
 BYTE   N96  En3  v127
 BYTE   W72
 BYTE   PEND 
//  #09 //007   ----------------------------------------
Label_019B3C4A:
 BYTE   W24
 BYTE   N48  Dn3  v072
 BYTE   N48  Fn3  v127
 BYTE   W48
 BYTE   Cn3  v072
 BYTE   N48  En3  v127
 BYTE   W24
 BYTE   PEND 
//  #09 //008   ----------------------------------------
Label_019B3C59:
 BYTE   W24
 BYTE   TIE  An2  v080
 BYTE   TIE  Dn3  v120
 BYTE   W72
 BYTE   PEND 
//  #09 //009   ----------------------------------------
 BYTE   W96
//  #09 //010   ----------------------------------------
 BYTE   EOT
 BYTE   An2  v062
Label_019B3C66:
 BYTE   W24
 BYTE   N36  Fn2  v080
 BYTE   N36  An2  v127
 BYTE   W36
 BYTE   An2  v080
 BYTE   N36  Dn3  v127
 BYTE   W36
 BYTE   PEND 
//  #09 //011   ----------------------------------------
Label_019B3C75:
 BYTE   N24  An2  v080
 BYTE   N24  Cn3  v127
 BYTE   W24
 BYTE   N36  Gn2  v080
 BYTE   N36  Bn2  v127
 BYTE   W36
 BYTE   An2  v080
 BYTE   N36  Cn3  v127
 BYTE   W36
 BYTE   PEND 
//  #09 //012   ----------------------------------------
Label_019B3C8A:
 BYTE   N21  Gn2  v080
 BYTE   N21  Bn2  v127
 BYTE   W24
 BYTE   N12  Gn2  v080
 BYTE   N12  Bn2  v127
 BYTE   W12
 BYTE   An2  v080
 BYTE   N12  Cn3  v127
 BYTE   W12
 BYTE   TIE  Fn2  v080
 BYTE   TIE  An2  v127
 BYTE   W48
 BYTE   PEND 
//  #09 //013   ----------------------------------------
 BYTE   W96
//  #09 //014   ----------------------------------------
 BYTE   W06
 BYTE   EOT
 BYTE   Fn2  v057
 BYTE   W90
//  #09 //015   ----------------------------------------
 BYTE   W96
//  #09 //016   ----------------------------------------
 BYTE   W96
//  #09 //017   ----------------------------------------
 BYTE   W96
//  #09 //018   ----------------------------------------
 BYTE   PATT
  POIN2 Label_019B3C29
//  #09 //019   ----------------------------------------
 BYTE   PATT
  POIN2 Label_019B3C32
//  #09 //020   ----------------------------------------
 BYTE   PATT
  POIN2 Label_019B3C41
//  #09 //021   ----------------------------------------
 BYTE   PATT
  POIN2 Label_019B3C4A
//  #09 //022   ----------------------------------------
 BYTE   PATT
  POIN2 Label_019B3C59
//  #09 //023   ----------------------------------------
 BYTE   W96
//  #09 //024   ----------------------------------------
 BYTE   EOT
 BYTE   An2  v062
//  #09 //025   ----------------------------------------
 BYTE   PATT
  POIN2 Label_019B3C66
//  #09 //026   ----------------------------------------
 BYTE   PATT
  POIN2 Label_019B3C75
//  #09 //027   ----------------------------------------
 BYTE   PATT
  POIN2 Label_019B3C8A
//  #09 //028   ----------------------------------------
 BYTE   W96
//  #09 //029   ----------------------------------------
 BYTE   W06
 BYTE   EOT
 BYTE   Fn2  v057
 BYTE   W18
 BYTE   TIE  Dn2  v127
 BYTE   TIE  An2
 BYTE   W72
//  #09 //030   ----------------------------------------
 BYTE   W96
//  #09 //031   ----------------------------------------
 BYTE   W24
 BYTE   EOT
 BYTE   Dn2  v057
 BYTE   TIE  Cn2
 BYTE   TIE  Gn2
 BYTE   W72
//  #09 //032   ----------------------------------------
 BYTE   W96
//  #09 //033   ----------------------------------------
 BYTE   W24
 BYTE   EOT
 BYTE   Cn2  v055
 BYTE   TIE  Dn2
 BYTE   TIE  An2
 BYTE   W72
//  #09 //034   ----------------------------------------
 BYTE   W66
 BYTE   EOT
 BYTE   Dn2  v057
 BYTE   W06
 BYTE   N12  Dn2
 BYTE   N12  An2
 BYTE   W16
 BYTE   N09  Dn2
 BYTE   N09  An2
 BYTE   W08
//  #09 //035   ----------------------------------------
 BYTE   W08
 BYTE   Dn2
 BYTE   N09  An2
 BYTE   W16
 BYTE   TIE  Cn2
 BYTE   TIE  Gn2
 BYTE   W72
//  #09 //036   ----------------------------------------
 BYTE   W96
//  #09 //037   ----------------------------------------
 BYTE   W24
 BYTE   EOT
 BYTE   Cn2  v055
 BYTE   TIE  Dn2
 BYTE   TIE  An2
 BYTE   W72
//  #09 //038   ----------------------------------------
 BYTE   W96
//  #09 //039   ----------------------------------------
 BYTE   W21
 BYTE   EOT
 BYTE   Dn2  v057
 BYTE   W48
 BYTE   W03
 BYTE   N48  Gn2
 BYTE   W24
//  #09 //040   ----------------------------------------
Label_019B3D28:
 BYTE   W24
 BYTE   N48  Dn3  v127
 BYTE   W48
 BYTE   Cn3
 BYTE   W24
 BYTE   PEND 
//  #09 //041   ----------------------------------------
 BYTE   W24
 BYTE   Bn2
 BYTE   W48
 BYTE   N24  An2
 BYTE   W24
//  #09 //042   ----------------------------------------
 BYTE   Bn2
 BYTE   W24
 BYTE   N48  Cn3
 BYTE   W48
 BYTE   Fn2
 BYTE   W24
//  #09 //043   ----------------------------------------
 BYTE   W24
 BYTE   N36  Gn2
 BYTE   W48
 BYTE   N48
 BYTE   W24
//  #09 //044   ----------------------------------------
 BYTE   PATT
  POIN2 Label_019B3D28
//  #09 //045   ----------------------------------------
 BYTE   W24
 BYTE   N48  Gn3  v127
 BYTE   W48
 BYTE   Dn3
 BYTE   W24
//  #09 //046   ----------------------------------------
 BYTE   W24
 BYTE   Cn3
 BYTE   W48
 BYTE   Gn2
 BYTE   W24
//  #09 //047   ----------------------------------------
 BYTE   W24
 BYTE   Gn3
 BYTE   W48
 BYTE   En3
 BYTE   W24
//  #09 //048   ----------------------------------------
 BYTE   W24
 BYTE   Cs3
 BYTE   W48
 BYTE   An2
 BYTE   W24
//  #09 //049   ----------------------------------------
Label_019B3D5E:
 BYTE   W24
 BYTE   N12  An1  v100
 BYTE   N12  Dn2  v127
 BYTE   W12
 BYTE   N24  Fn2  v100
 BYTE   N24  An2  v127
 BYTE   W24
 BYTE   En2  v100
 BYTE   N24  Gn2  v127
 BYTE   W24
 BYTE   An2  v100
 BYTE   N24  Dn3  v127
 BYTE   W12
 BYTE   PEND 
//  #09 //050   ----------------------------------------
 BYTE   W12
 BYTE   N96  Fn2  v100
 BYTE   N96  An2  v127
 BYTE   W84
//  #09 //051   ----------------------------------------
 BYTE   PATT
  POIN2 Label_019B3D5E
//  #09 //052   ----------------------------------------
 BYTE   W12
 BYTE   N96  An2  v100
 BYTE   N96  En3  v127
 BYTE   W84
//  #09 //053   ----------------------------------------
 BYTE   W24
 BYTE   W03
 BYTE   GoTo
  POIN2 Label_019B3C25
 BYTE   FINE

//**************** Track 10 (Midi-Chn.9) ****************//

Knights2_010:
//  #10 //000   ----------------------------------------
 BYTE   KEYSH   Knights2_key+0
 BYTE   VOICE   124
 BYTE   PAN   c_v-1
 BYTE   VOL   35*Knights2_mvl/mxv
 BYTE   W12
 BYTE   N12  An2  v112
 BYTE   W06
 BYTE   N02  Dn1  v100
 BYTE   W02
 BYTE   Dn1  v096
 BYTE   W02
 BYTE   N02
 BYTE   W02
Label_019B589E:
 BYTE   N06  Dn1  v088
 BYTE   N96  Cs2  v092
 BYTE   W06
 BYTE   N06  Dn1  v100
 BYTE   W06
 BYTE   Dn1  v096
 BYTE   W06
 BYTE   N06
 BYTE   W06
 BYTE   N12  Dn1  v076
 BYTE   W12
 BYTE   N01
 BYTE   W01
 BYTE   N11  Dn1  v096
 BYTE   W11
 BYTE   N06  Dn1  v100
 BYTE   W06
 BYTE   N06
 BYTE   W06
 BYTE   N12
 BYTE   W12
//  #10 //001   ----------------------------------------
 BYTE   N12
 BYTE   W12
 BYTE   N06  Dn1  v096
 BYTE   W06
 BYTE   Dn1  v100
 BYTE   W06
 BYTE   N01  Dn1  v096
 BYTE   W01
 BYTE   N04
 BYTE   W05
 BYTE   N06  Dn1  v076
 BYTE   W06
 BYTE   N06
 BYTE   W06
 BYTE   Dn1  v096
 BYTE   W06
 BYTE   N12  Dn1  v076
 BYTE   W12
 BYTE   Dn1  v100
 BYTE   W12
 BYTE   N06
 BYTE   W06
 BYTE   N06
 BYTE   W06
 BYTE   N12  Dn1  v096
 BYTE   W12
//  #10 //002   ----------------------------------------
 BYTE   N06  Dn1  v088
 BYTE   W06
 BYTE   N03
 BYTE   W03
 BYTE   Dn1  v100
 BYTE   W03
 BYTE   N06
 BYTE   W06
 BYTE   Dn1  v096
 BYTE   W06
 BYTE   Dn1  v088
 BYTE   W06
 BYTE   Dn1  v100
 BYTE   W06
 BYTE   N06
 BYTE   W06
 BYTE   Dn1  v084
 BYTE   W06
 BYTE   N12  Dn1  v092
 BYTE   W12
 BYTE   N01  Dn1  v084
 BYTE   W01
 BYTE   N11  Dn1  v092
 BYTE   W11
 BYTE   N06  Dn1  v100
 BYTE   W06
 BYTE   Dn1  v088
 BYTE   W06
 BYTE   N12  Dn1  v076
 BYTE   W12
//  #10 //003   ----------------------------------------
 BYTE   Dn1  v100
 BYTE   W12
 BYTE   N06  Dn1  v096
 BYTE   W06
 BYTE   Dn1  v088
 BYTE   W06
 BYTE   N01  Dn1  v076
 BYTE   W01
 BYTE   N04  Dn1  v092
 BYTE   W05
 BYTE   N06  Dn1  v100
 BYTE   W06
 BYTE   Dn1  v092
 BYTE   W06
 BYTE   Dn1  v072
 BYTE   W06
 BYTE   N12  Dn1  v084
 BYTE   W12
 BYTE   Dn1  v072
 BYTE   W12
 BYTE   N06  Dn1  v100
 BYTE   W06
 BYTE   N06
 BYTE   W06
 BYTE   N12  Dn1  v096
 BYTE   W12
//  #10 //004   ----------------------------------------
 BYTE   N06  Dn1  v088
 BYTE   W06
 BYTE   N03
 BYTE   W03
 BYTE   Dn1  v100
 BYTE   W03
 BYTE   N06
 BYTE   W06
 BYTE   Dn1  v096
 BYTE   W06
 BYTE   Dn1  v088
 BYTE   W06
 BYTE   Dn1  v100
 BYTE   W06
 BYTE   N06
 BYTE   W06
 BYTE   Dn1  v084
 BYTE   W06
 BYTE   N12  Dn1  v092
 BYTE   W12
 BYTE   N01  Dn1  v084
 BYTE   W01
 BYTE   N11  Dn1  v092
 BYTE   W11
 BYTE   N06  Dn1  v100
 BYTE   W06
 BYTE   Dn1  v092
 BYTE   W06
 BYTE   N12  Dn1  v084
 BYTE   W12
//  #10 //005   ----------------------------------------
 BYTE   Dn1  v100
 BYTE   W12
 BYTE   N06
 BYTE   W06
 BYTE   Dn1  v092
 BYTE   W06
 BYTE   N01  Dn1  v084
 BYTE   W01
 BYTE   N04  Dn1  v096
 BYTE   W05
 BYTE   N06  Dn1  v100
 BYTE   W06
 BYTE   Dn1  v096
 BYTE   W06
 BYTE   Dn1  v076
 BYTE   W06
 BYTE   N12  Dn1  v088
 BYTE   W12
 BYTE   Dn1  v076
 BYTE   W12
 BYTE   N06  Dn1  v100
 BYTE   W06
 BYTE   Dn1  v088
 BYTE   W06
 BYTE   N12  Dn1  v076
 BYTE   W12
//  #10 //006   ----------------------------------------
 BYTE   N06  Dn1  v100
 BYTE   W06
 BYTE   N03  Dn1  v096
 BYTE   W03
 BYTE   Dn1  v088
 BYTE   W03
 BYTE   N06  Dn1  v076
 BYTE   W06
 BYTE   Dn1  v096
 BYTE   W06
 BYTE   Dn1  v100
 BYTE   W06
 BYTE   Dn1  v096
 BYTE   W06
 BYTE   Dn1  v076
 BYTE   W06
 BYTE   Dn1  v088
 BYTE   W06
 BYTE   N12  Dn1  v076
 BYTE   W12
 BYTE   N01  Dn1  v100
 BYTE   W01
 BYTE   N11  Dn1  v088
 BYTE   W11
 BYTE   N06  Dn1  v100
 BYTE   W06
 BYTE   Dn1  v096
 BYTE   W06
 BYTE   N12  Dn1  v088
 BYTE   W12
//  #10 //007   ----------------------------------------
 BYTE   Dn1  v096
 BYTE   W12
 BYTE   N06  Dn1  v100
 BYTE   W06
 BYTE   Dn1  v096
 BYTE   W06
 BYTE   N01  Dn1  v088
 BYTE   W01
 BYTE   N04  Dn1  v076
 BYTE   W05
 BYTE   N06  Dn1  v096
 BYTE   W06
 BYTE   Dn1  v100
 BYTE   W06
 BYTE   Dn1  v096
 BYTE   W06
 BYTE   N12  Dn1  v076
 BYTE   W12
 BYTE   Dn1  v088
 BYTE   W12
 BYTE   N06  Dn1  v076
 BYTE   W06
 BYTE   Dn1  v100
 BYTE   W06
 BYTE   N12  Dn1  v088
 BYTE   W12
//  #10 //008   ----------------------------------------
 BYTE   N06  Dn1  v100
 BYTE   W06
 BYTE   N03  Dn1  v088
 BYTE   W03
 BYTE   Dn1  v076
 BYTE   W03
 BYTE   N06  Dn1  v100
 BYTE   W06
 BYTE   Dn1  v096
 BYTE   W06
 BYTE   Dn1  v088
 BYTE   W06
 BYTE   Dn1  v076
 BYTE   W06
 BYTE   Dn1  v096
 BYTE   W06
 BYTE   Dn1  v100
 BYTE   W06
 BYTE   N12  Dn1  v096
 BYTE   W12
 BYTE   N01  Dn1  v076
 BYTE   W01
 BYTE   N11  Dn1  v088
 BYTE   W11
 BYTE   N06  Dn1  v076
 BYTE   W06
 BYTE   Dn1  v100
 BYTE   W06
 BYTE   N12  Dn1  v088
 BYTE   W12
//  #10 //009   ----------------------------------------
Label_019B5A38:
 BYTE   N12  Dn1  v100
 BYTE   W12
 BYTE   N06  Dn1  v096
 BYTE   W06
 BYTE   Dn1  v088
 BYTE   W06
 BYTE   N01  Dn1  v076
 BYTE   W01
 BYTE   N04
 BYTE   W05
 BYTE   N06  Dn1  v100
 BYTE   W06
 BYTE   Dn1  v096
 BYTE   W06
 BYTE   Dn1  v088
 BYTE   W06
 BYTE   N12  Dn1  v076
 BYTE   W12
 BYTE   Dn1  v100
 BYTE   W12
 BYTE   N06  Dn1  v096
 BYTE   W06
 BYTE   Dn1  v076
 BYTE   W06
 BYTE   N12  Dn1  v088
 BYTE   W12
 BYTE   PEND 
//  #10 //010   ----------------------------------------
Label_019B5A66:
 BYTE   N06  Dn1  v076
 BYTE   W06
 BYTE   N03  Dn1  v088
 BYTE   W03
 BYTE   Dn1  v100
 BYTE   W03
 BYTE   N06  Dn1  v088
 BYTE   W06
 BYTE   Dn1  v076
 BYTE   W06
 BYTE   Dn1  v100
 BYTE   W06
 BYTE   Dn1  v096
 BYTE   W06
 BYTE   Dn1  v088
 BYTE   W06
 BYTE   Dn1  v076
 BYTE   W06
 BYTE   N12  Dn1  v096
 BYTE   W12
 BYTE   N01  Dn1  v100
 BYTE   W01
 BYTE   N11  Dn1  v096
 BYTE   W11
 BYTE   N06  Dn1  v076
 BYTE   W06
 BYTE   Dn1  v088
 BYTE   W06
 BYTE   N12  Dn1  v076
 BYTE   W12
 BYTE   PEND 
//  #10 //011   ----------------------------------------
 BYTE   PATT
  POIN2 Label_019B5A38
//  #10 //012   ----------------------------------------
 BYTE   PATT
  POIN2 Label_019B5A66
//  #10 //013   ----------------------------------------
 BYTE   N12  Dn1  v100
 BYTE   W12
 BYTE   N06  Dn1  v076
 BYTE   W06
 BYTE   Dn1  v068
 BYTE   W06
 BYTE   N01  Dn1  v100
 BYTE   W01
 BYTE   N04  Dn1  v068
 BYTE   W05
 BYTE   N06  Dn1  v100
 BYTE   W06
 BYTE   Dn1  v068
 BYTE   W06
 BYTE   Dn1  v100
 BYTE   W06
 BYTE   N12
 BYTE   W12
 BYTE   Dn1  v096
 BYTE   W12
 BYTE   N06  Dn1  v076
 BYTE   W06
 BYTE   Dn1  v088
 BYTE   W06
 BYTE   N12  Dn1  v076
 BYTE   W12
//  #10 //014   ----------------------------------------
 BYTE   N06  Dn1  v088
 BYTE   W06
 BYTE   N03  Dn1  v100
 BYTE   W03
 BYTE   Dn1  v088
 BYTE   W03
 BYTE   N06  Dn1  v076
 BYTE   W06
 BYTE   Dn1  v100
 BYTE   W06
 BYTE   Dn1  v096
 BYTE   N96  Cs2  v092
 BYTE   W06
 BYTE   N06  Dn1  v088
 BYTE   W06
 BYTE   Dn1  v076
 BYTE   W06
 BYTE   Dn1  v096
 BYTE   W06
 BYTE   N12  Dn1  v100
 BYTE   W12
 BYTE   N01  Dn1  v096
 BYTE   W01
 BYTE   N11  Dn1  v076
 BYTE   W11
 BYTE   N06  Dn1  v088
 BYTE   W06
 BYTE   Dn1  v076
 BYTE   W06
 BYTE   N12  Dn1  v100
 BYTE   W12
//  #10 //015   ----------------------------------------
Label_019B5B0C:
 BYTE   N12  Dn1  v096
 BYTE   W12
 BYTE   N06  Dn1  v088
 BYTE   W06
 BYTE   Dn1  v076
 BYTE   W06
 BYTE   N01
 BYTE   W01
 BYTE   N04  Dn1  v100
 BYTE   W05
 BYTE   N06  Dn1  v096
 BYTE   W06
 BYTE   Dn1  v088
 BYTE   W06
 BYTE   Dn1  v076
 BYTE   W06
 BYTE   N12  Dn1  v100
 BYTE   W12
 BYTE   Dn1  v096
 BYTE   W12
 BYTE   N06  Dn1  v076
 BYTE   W06
 BYTE   Dn1  v088
 BYTE   W06
 BYTE   N12  Dn1  v076
 BYTE   W12
 BYTE   PEND 
//  #10 //016   ----------------------------------------
Label_019B5B3A:
 BYTE   N06  Dn1  v088
 BYTE   W06
 BYTE   N03  Dn1  v100
 BYTE   W03
 BYTE   Dn1  v088
 BYTE   W03
 BYTE   N06  Dn1  v076
 BYTE   W06
 BYTE   Dn1  v100
 BYTE   W06
 BYTE   Dn1  v096
 BYTE   W06
 BYTE   Dn1  v088
 BYTE   W06
 BYTE   Dn1  v076
 BYTE   W06
 BYTE   Dn1  v096
 BYTE   W06
 BYTE   N12  Dn1  v100
 BYTE   W12
 BYTE   N01  Dn1  v096
 BYTE   W01
 BYTE   N11  Dn1  v076
 BYTE   W11
 BYTE   N06  Dn1  v088
 BYTE   W06
 BYTE   Dn1  v076
 BYTE   W06
 BYTE   N12  Dn1  v100
 BYTE   W12
 BYTE   PEND 
//  #10 //017   ----------------------------------------
 BYTE   PATT
  POIN2 Label_019B5B0C
//  #10 //018   ----------------------------------------
 BYTE   PATT
  POIN2 Label_019B5B3A
//  #10 //019   ----------------------------------------
 BYTE   PATT
  POIN2 Label_019B5B0C
//  #10 //020   ----------------------------------------
 BYTE   PATT
  POIN2 Label_019B5B3A
//  #10 //021   ----------------------------------------
 BYTE   PATT
  POIN2 Label_019B5B0C
//  #10 //022   ----------------------------------------
 BYTE   PATT
  POIN2 Label_019B5B3A
//  #10 //023   ----------------------------------------
 BYTE   PATT
  POIN2 Label_019B5B0C
//  #10 //024   ----------------------------------------
 BYTE   PATT
  POIN2 Label_019B5B3A
//  #10 //025   ----------------------------------------
 BYTE   PATT
  POIN2 Label_019B5B0C
//  #10 //026   ----------------------------------------
 BYTE   PATT
  POIN2 Label_019B5B3A
//  #10 //027   ----------------------------------------
 BYTE   N12  Dn1  v096
 BYTE   W12
 BYTE   N06  Dn1  v088
 BYTE   W06
 BYTE   Dn1  v076
 BYTE   W06
 BYTE   N01
 BYTE   W01
 BYTE   N04  Dn1  v100
 BYTE   N96  Ds2  v092
 BYTE   W05
 BYTE   N06  Dn1  v096
 BYTE   W06
 BYTE   Dn1  v088
 BYTE   W06
 BYTE   Dn1  v076
 BYTE   W06
 BYTE   N12  Dn1  v100
 BYTE   W12
 BYTE   Dn1  v096
 BYTE   W12
 BYTE   N06  Dn1  v076
 BYTE   W06
 BYTE   Dn1  v088
 BYTE   W06
 BYTE   N12  Dn1  v076
 BYTE   W12
//  #10 //028   ----------------------------------------
 BYTE   N06  Dn1  v088
 BYTE   W06
 BYTE   N03  Dn1  v100
 BYTE   W03
 BYTE   Dn1  v088
 BYTE   W03
 BYTE   N06  Dn1  v076
 BYTE   W06
 BYTE   Dn1  v100
 BYTE   W06
 BYTE   Dn1  v096
 BYTE   N96  Cs2  v084
 BYTE   W06
 BYTE   N06  Dn1  v088
 BYTE   W06
 BYTE   Dn1  v076
 BYTE   W06
 BYTE   Dn1  v096
 BYTE   W06
 BYTE   N12  Dn1  v100
 BYTE   W12
 BYTE   N01  Dn1  v096
 BYTE   W01
 BYTE   N11  Dn1  v076
 BYTE   W11
 BYTE   N06  Dn1  v088
 BYTE   W06
 BYTE   Dn1  v076
 BYTE   W06
 BYTE   N12  Dn1  v100
 BYTE   W12
//  #10 //029   ----------------------------------------
 BYTE   PATT
  POIN2 Label_019B5B0C
//  #10 //030   ----------------------------------------
 BYTE   PATT
  POIN2 Label_019B5B3A
//  #10 //031   ----------------------------------------
 BYTE   PATT
  POIN2 Label_019B5B0C
//  #10 //032   ----------------------------------------
 BYTE   PATT
  POIN2 Label_019B5B3A
//  #10 //033   ----------------------------------------
 BYTE   N12  Dn1  v096
 BYTE   W12
 BYTE   N06  Dn1  v088
 BYTE   W06
 BYTE   Dn1  v076
 BYTE   W06
 BYTE   N01
 BYTE   W01
 BYTE   N04  Dn1  v100
 BYTE   W05
 BYTE   N06  Dn1  v096
 BYTE   W06
 BYTE   Dn1  v088
 BYTE   W06
 BYTE   Dn1  v076
 BYTE   W06
 BYTE   N12  Dn1  v100
 BYTE   W12
 BYTE   Dn1  v096
 BYTE   W12
 BYTE   N06  Dn1  v076
 BYTE   N09  An2  v112
 BYTE   W08
 BYTE   N06  Dn1  v088
 BYTE   W08
 BYTE   N08  Dn1  v076
 BYTE   N09  An2  v116
 BYTE   W08
//  #10 //034   ----------------------------------------
 BYTE   N06  Dn1  v088
 BYTE   W08
 BYTE   N04  Dn1  v100
 BYTE   N09  An2  v120
 BYTE   W04
 BYTE   N04  Dn1  v088
 BYTE   W04
 BYTE   N06  Dn1  v076
 BYTE   W08
 BYTE   Dn1  v100
 BYTE   N96  Cs2  v092
 BYTE   N12  An2  v120
 BYTE   W06
 BYTE   N06  Dn1  v096
 BYTE   W06
 BYTE   Dn1  v088
 BYTE   W06
 BYTE   Dn1  v076
 BYTE   W06
 BYTE   N12  Dn1  v096
 BYTE   W12
 BYTE   N01  Dn1  v100
 BYTE   W01
 BYTE   N11  Dn1  v096
 BYTE   W11
 BYTE   N06  Dn1  v076
 BYTE   W06
 BYTE   Dn1  v088
 BYTE   W06
 BYTE   N12  Dn1  v076
 BYTE   W12
//  #10 //035   ----------------------------------------
 BYTE   PATT
  POIN2 Label_019B5A38
//  #10 //036   ----------------------------------------
 BYTE   PATT
  POIN2 Label_019B5A66
//  #10 //037   ----------------------------------------
 BYTE   N12  Dn1  v100
 BYTE   W12
 BYTE   N06  Dn1  v096
 BYTE   W06
 BYTE   Dn1  v088
 BYTE   W06
 BYTE   N01  Dn1  v076
 BYTE   W01
 BYTE   N04
 BYTE   N96  Ds2  v092
 BYTE   W05
 BYTE   N06  Dn1  v100
 BYTE   W06
 BYTE   Dn1  v096
 BYTE   W06
 BYTE   Dn1  v088
 BYTE   W06
 BYTE   N12  Dn1  v076
 BYTE   W12
 BYTE   Dn1  v100
 BYTE   W12
 BYTE   N06  Dn1  v096
 BYTE   W06
 BYTE   Dn1  v076
 BYTE   W06
 BYTE   N12  Dn1  v088
 BYTE   W12
//  #10 //038   ----------------------------------------
 BYTE   N06  Dn1  v076
 BYTE   W06
 BYTE   N03  Dn1  v088
 BYTE   W03
 BYTE   Dn1  v100
 BYTE   W03
 BYTE   N06  Dn1  v088
 BYTE   W06
 BYTE   Dn1  v076
 BYTE   W06
 BYTE   N01  Dn1  v100
 BYTE   W01
 BYTE   N04  Dn1  v096
 BYTE   N96  Cs2  v092
 BYTE   N12  An2  v120
 BYTE   W68
 BYTE   W03
//  #10 //039   ----------------------------------------
 BYTE   W24
 BYTE   N06  Dn1  v088
 BYTE   W06
 BYTE   Dn1  v076
 BYTE   W06
 BYTE   Dn1  v096
 BYTE   W06
 BYTE   Dn1  v100
 BYTE   W06
 BYTE   N12  Dn1  v096
 BYTE   W12
 BYTE   N01  Dn1  v076
 BYTE   W01
 BYTE   N11  Dn1  v088
 BYTE   W11
 BYTE   N06  Dn1  v076
 BYTE   W06
 BYTE   Dn1  v100
 BYTE   W06
 BYTE   N12  Dn1  v096
 BYTE   W12
//  #10 //040   ----------------------------------------
 BYTE   Dn1  v088
 BYTE   W12
 BYTE   N06  Dn1  v076
 BYTE   W06
 BYTE   N06
 BYTE   W06
 BYTE   N01  Dn1  v100
 BYTE   W01
 BYTE   N04  Dn1  v096
 BYTE   W68
 BYTE   W03
//  #10 //041   ----------------------------------------
 BYTE   W24
 BYTE   N06  Dn1  v088
 BYTE   W06
 BYTE   Dn1  v076
 BYTE   W06
 BYTE   Dn1  v100
 BYTE   W06
 BYTE   Dn1  v096
 BYTE   W06
 BYTE   N12  Dn1  v076
 BYTE   W12
 BYTE   N01  Dn1  v088
 BYTE   W01
 BYTE   N11  Dn1  v076
 BYTE   W11
 BYTE   N06  Dn1  v088
 BYTE   W06
 BYTE   Dn1  v100
 BYTE   W06
 BYTE   N12  Dn1  v088
 BYTE   W12
//  #10 //042   ----------------------------------------
 BYTE   N06  Dn1  v076
 BYTE   W06
 BYTE   Dn1  v100
 BYTE   W06
 BYTE   Dn1  v096
 BYTE   W06
 BYTE   Dn1  v088
 BYTE   W06
 BYTE   N01  Dn1  v076
 BYTE   W01
 BYTE   N04  Dn1  v096
 BYTE   W68
 BYTE   W03
//  #10 //043   ----------------------------------------
 BYTE   W24
 BYTE   N06  Dn1  v100
 BYTE   W06
 BYTE   Dn1  v096
 BYTE   W06
 BYTE   Dn1  v076
 BYTE   W06
 BYTE   Dn1  v088
 BYTE   W06
 BYTE   N12  Dn1  v076
 BYTE   W12
 BYTE   N01  Dn1  v100
 BYTE   W01
 BYTE   N11  Dn1  v096
 BYTE   W11
 BYTE   N06  Dn1  v088
 BYTE   W06
 BYTE   Dn1  v076
 BYTE   W06
 BYTE   N12
 BYTE   W12
//  #10 //044   ----------------------------------------
 BYTE   Dn1  v100
 BYTE   W12
 BYTE   N06  Dn1  v096
 BYTE   W06
 BYTE   Dn1  v088
 BYTE   W06
 BYTE   Dn1  v076
 BYTE   W06
 BYTE   Dn1  v100
 BYTE   W06
 BYTE   Dn1  v096
 BYTE   W06
 BYTE   Dn1  v076
 BYTE   W06
 BYTE   N12  Dn1  v088
 BYTE   W12
 BYTE   N01  Dn1  v076
 BYTE   W01
 BYTE   N11  Dn1  v088
 BYTE   W11
 BYTE   N06  Dn1  v100
 BYTE   W06
 BYTE   Dn1  v088
 BYTE   W06
 BYTE   N12  Dn1  v076
 BYTE   W12
//  #10 //045   ----------------------------------------
 BYTE   Dn1  v100
 BYTE   W12
 BYTE   N06  Dn1  v096
 BYTE   W06
 BYTE   Dn1  v088
 BYTE   W06
 BYTE   N01  Dn1  v076
 BYTE   W01
 BYTE   N04  Dn1  v096
 BYTE   W05
 BYTE   N06  Dn1  v100
 BYTE   W06
 BYTE   Dn1  v096
 BYTE   W06
 BYTE   Dn1  v076
 BYTE   W06
 BYTE   N12  Dn1  v088
 BYTE   W12
 BYTE   Dn1  v076
 BYTE   W12
 BYTE   N06  Dn1  v100
 BYTE   W06
 BYTE   Dn1  v096
 BYTE   W06
 BYTE   N12  Dn1  v088
 BYTE   W12
//  #10 //046   ----------------------------------------
 BYTE   N06  Dn1  v076
 BYTE   W06
 BYTE   N03
 BYTE   W03
 BYTE   Dn1  v100
 BYTE   W03
 BYTE   N06  Dn1  v096
 BYTE   W06
 BYTE   Dn1  v088
 BYTE   W06
 BYTE   Dn1  v076
 BYTE   W06
 BYTE   Dn1  v100
 BYTE   W06
 BYTE   Dn1  v096
 BYTE   W06
 BYTE   Dn1  v076
 BYTE   W06
 BYTE   N12  Dn1  v088
 BYTE   W12
 BYTE   N01  Dn1  v076
 BYTE   W01
 BYTE   N11  Dn1  v088
 BYTE   W11
 BYTE   N06  Dn1  v100
 BYTE   W06
 BYTE   Dn1  v088
 BYTE   W06
 BYTE   N12  Dn1  v076
 BYTE   W12
//  #10 //047   ----------------------------------------
 BYTE   Dn1  v100
 BYTE   W12
 BYTE   N06  Dn1  v096
 BYTE   W06
 BYTE   Dn1  v088
 BYTE   W06
 BYTE   N01  Dn1  v076
 BYTE   W01
 BYTE   N04  Dn1  v096
 BYTE   N96  Ds2  v092
 BYTE   W05
 BYTE   N06  Dn1  v100
 BYTE   W06
 BYTE   Dn1  v096
 BYTE   W06
 BYTE   Dn1  v076
 BYTE   W06
 BYTE   N12  Dn1  v088
 BYTE   W12
 BYTE   Dn1  v076
 BYTE   W12
 BYTE   N06  Dn1  v100
 BYTE   W06
 BYTE   Dn1  v096
 BYTE   W06
 BYTE   N12  Dn1  v088
 BYTE   W12
//  #10 //048   ----------------------------------------
 BYTE   N06  Dn1  v076
 BYTE   W06
 BYTE   N03
 BYTE   W03
 BYTE   Dn1  v100
 BYTE   W03
 BYTE   N06  Dn1  v096
 BYTE   N12  An2  v112
 BYTE   W06
 BYTE   N06  Dn1  v088
 BYTE   W06
 BYTE   N01  Dn1  v076
 BYTE   W01
 BYTE   N04  Dn1  v100
 BYTE   N96  Cs2  v092
 BYTE   N12  An2  v120
 BYTE   W05
 BYTE   N06  Dn1  v096
 BYTE   W66
//  #10 //049   ----------------------------------------
 BYTE   W72
 BYTE   Dn1  v076
 BYTE   W06
 BYTE   N03  Dn1  v088
 BYTE   W03
 BYTE   Dn1  v076
 BYTE   W03
 BYTE   N06  Dn1  v088
 BYTE   N12  An2  v112
 BYTE   W06
 BYTE   N06  Dn1  v100
 BYTE   W06
//  #10 //050   ----------------------------------------
 BYTE   Dn1  v088
 BYTE   W06
 BYTE   Dn1  v076
 BYTE   W06
 BYTE   Dn1  v100
 BYTE   N12  An2  v112
 BYTE   W06
 BYTE   N06  Dn1  v096
 BYTE   W06
 BYTE   N01  Dn1  v088
 BYTE   W01
 BYTE   N04  Dn1  v076
 BYTE   N96  Cs2  v084
 BYTE   N12  An2  v112
 BYTE   W68
 BYTE   W03
//  #10 //051   ----------------------------------------
 BYTE   W72
 BYTE   N06  Dn1  v096
 BYTE   W06
 BYTE   N03  Dn1  v100
 BYTE   W03
 BYTE   Dn1  v096
 BYTE   W03
 BYTE   N06  Dn1  v076
 BYTE   N12  An2  v112
 BYTE   W06
 BYTE   N06  Dn1  v088
 BYTE   W06
//  #10 //052   ----------------------------------------
 BYTE   Dn1  v076
 BYTE   W06
 BYTE   Dn1  v100
 BYTE   W06
 BYTE   N03
 BYTE   W03
 BYTE   Dn1  v096
 BYTE   N12  An2  v112
 BYTE   W03
 BYTE   N06  Dn1  v088
 BYTE   W09
 BYTE   GoTo
  POIN2 Label_019B589E
 BYTE   FINE

//**************** Track 11 (Midi-Chn.10) ****************//

Knights2_011:
//  #11 //000   ----------------------------------------
 BYTE   KEYSH   Knights2_key+0
 BYTE   VOICE   52
 BYTE   VOL   27*Knights2_mvl/mxv
 BYTE   PAN   c_v+0
 BYTE   W24
Label_019B48E9:
 BYTE   TIE  An2  v100
 BYTE   TIE  Dn3
 BYTE   W72
//  #11 //001   ----------------------------------------
 BYTE   W96
//  #11 //002   ----------------------------------------
 BYTE   W24
 BYTE   EOT
 BYTE   An2  v062
 BYTE   TIE  Gn2
 BYTE   TIE  Cn3
 BYTE   W72
//  #11 //003   ----------------------------------------
 BYTE   W96
//  #11 //004   ----------------------------------------
 BYTE   W24
 BYTE   EOT
 BYTE   Gn2  v060
 BYTE   N36  An2
 BYTE   N36  Dn3
 BYTE   W72
//  #11 //005   ----------------------------------------
 BYTE   W96
//  #11 //006   ----------------------------------------
 BYTE   W96
//  #11 //007   ----------------------------------------
 BYTE   W96
//  #11 //008   ----------------------------------------
 BYTE   W96
//  #11 //009   ----------------------------------------
 BYTE   W96
//  #11 //010   ----------------------------------------
 BYTE   W96
//  #11 //011   ----------------------------------------
 BYTE   W96
//  #11 //012   ----------------------------------------
 BYTE   W96
//  #11 //013   ----------------------------------------
 BYTE   W96
//  #11 //014   ----------------------------------------
 BYTE   W24
 BYTE   TIE  An2
 BYTE   TIE  Dn3
 BYTE   W72
//  #11 //015   ----------------------------------------
 BYTE   W96
//  #11 //016   ----------------------------------------
 BYTE   W24
 BYTE   EOT
 BYTE   An2  v062
 BYTE   TIE  Gn2
 BYTE   TIE  Cn3
 BYTE   W72
//  #11 //017   ----------------------------------------
 BYTE   W96
//  #11 //018   ----------------------------------------
 BYTE   W24
 BYTE   EOT
 BYTE   Gn2  v060
 BYTE   N36  An2
 BYTE   N36  Dn3
 BYTE   W72
//  #11 //019   ----------------------------------------
 BYTE   W96
//  #11 //020   ----------------------------------------
 BYTE   W96
//  #11 //021   ----------------------------------------
 BYTE   W96
//  #11 //022   ----------------------------------------
 BYTE   W96
//  #11 //023   ----------------------------------------
 BYTE   W96
//  #11 //024   ----------------------------------------
 BYTE   W96
//  #11 //025   ----------------------------------------
 BYTE   W96
//  #11 //026   ----------------------------------------
 BYTE   W96
//  #11 //027   ----------------------------------------
 BYTE   W96
//  #11 //028   ----------------------------------------
 BYTE   W96
//  #11 //029   ----------------------------------------
 BYTE   W96
//  #11 //030   ----------------------------------------
 BYTE   W96
//  #11 //031   ----------------------------------------
 BYTE   W96
//  #11 //032   ----------------------------------------
 BYTE   W96
//  #11 //033   ----------------------------------------
 BYTE   W96
//  #11 //034   ----------------------------------------
 BYTE   W96
//  #11 //035   ----------------------------------------
 BYTE   W96
//  #11 //036   ----------------------------------------
 BYTE   W24
 BYTE   VOICE   61
 BYTE   VOL   30*Knights2_mvl/mxv
 BYTE   PAN   c_v+4
 BYTE   W72
//  #11 //037   ----------------------------------------
 BYTE   W96
//  #11 //038   ----------------------------------------
 BYTE   W24
 BYTE   TIE  Gn0  v127
 BYTE   TIE  Gn1  v112
 BYTE   W72
//  #11 //039   ----------------------------------------
 BYTE   W96
//  #11 //040   ----------------------------------------
 BYTE   W24
 BYTE   EOT
 BYTE   Gn0  v043
 BYTE   TIE  Fn0  v127
 BYTE   TIE  Fn1  v112
 BYTE   W72
//  #11 //041   ----------------------------------------
 BYTE   W96
//  #11 //042   ----------------------------------------
 BYTE   W24
 BYTE   EOT
 BYTE   Fn0  v041
 BYTE   TIE  En0  v127
 BYTE   TIE  En1  v112
 BYTE   W72
//  #11 //043   ----------------------------------------
 BYTE   W96
//  #11 //044   ----------------------------------------
 BYTE   W24
 BYTE   EOT
 BYTE   En0  v040
 BYTE   TIE  Ds1  v127
 BYTE   TIE  Ds2  v112
 BYTE   W72
//  #11 //045   ----------------------------------------
 BYTE   W96
//  #11 //046   ----------------------------------------
 BYTE   W24
 BYTE   EOT
 BYTE   Ds1  v051
 BYTE   N96  Cs1  v127
 BYTE   N96  Cs2  v112
 BYTE   W72
//  #11 //047   ----------------------------------------
 BYTE   W24
 BYTE   An0  v127
 BYTE   N96  An1  v112
 BYTE   W72
//  #11 //048   ----------------------------------------
 BYTE   W24
 BYTE   N12  Dn1  v127
 BYTE   N12  Dn2  v112
 BYTE   W72
//  #11 //049   ----------------------------------------
 BYTE   W96
//  #11 //050   ----------------------------------------
 BYTE   W24
 BYTE   VOICE   60
 BYTE   VOL   27*Knights2_mvl/mxv
 BYTE   PAN   c_v+0
 BYTE   W72
//  #11 //051   ----------------------------------------
 BYTE   W96
//  #11 //052   ----------------------------------------
 BYTE   W24
 BYTE   W03
 BYTE   GoTo
  POIN2 Label_019B48E9
 BYTE   FINE

//**************** Track 12 (Midi-Chn.11) ****************//

Knights2_012:
//  #12 //000   ----------------------------------------
 BYTE   KEYSH   Knights2_key+0
 BYTE   VOICE   55
 BYTE   PAN   c_v-22
 BYTE   VOL   24*Knights2_mvl/mxv
 BYTE   W12
 BYTE   N04  Dn3  v096
 BYTE   N04  Fn3
 BYTE   W12
Label_019B52EF:
 BYTE   N05  Dn3  v116
 BYTE   N05  Fn3
 BYTE   W12
 BYTE   N03  Dn3  v100
 BYTE   N03  Fn3
 BYTE   W12
 BYTE   Dn3  v096
 BYTE   N03  Fn3
 BYTE   W12
 BYTE   N09  Dn3  v112
 BYTE   N09  Fn3
 BYTE   W24
 BYTE   N03  Dn3  v096
 BYTE   N03  Fn3
 BYTE   W12
//  #12 //001   ----------------------------------------
 BYTE   Dn3  v112
 BYTE   N03  Fn3
 BYTE   W12
 BYTE   Dn3  v096
 BYTE   N03  Fn3
 BYTE   W12
 BYTE   N05  Dn3  v116
 BYTE   N05  Fn3
 BYTE   W12
 BYTE   N03  Dn3  v100
 BYTE   N03  Fn3
 BYTE   W12
 BYTE   Dn3  v096
 BYTE   N03  Fn3
 BYTE   W12
 BYTE   N09  Dn3  v112
 BYTE   N09  Fn3
 BYTE   W24
 BYTE   N03  Dn3
 BYTE   N03  Fn3  v096
 BYTE   W12
//  #12 //002   ----------------------------------------
Label_019B5333:
 BYTE   N03  Dn3  v112
 BYTE   N03  Fn3
 BYTE   W12
 BYTE   Dn3  v096
 BYTE   N03  Fn3
 BYTE   W12
 BYTE   N05  En3  v116
 BYTE   N05  Gn3
 BYTE   W12
 BYTE   N03  En3  v100
 BYTE   N03  Gn3
 BYTE   W12
 BYTE   En3  v096
 BYTE   N03  Gn3
 BYTE   W12
 BYTE   N09  En3  v112
 BYTE   N09  Gn3
 BYTE   W24
 BYTE   N03  En3  v096
 BYTE   N03  Gn3
 BYTE   W12
 BYTE   PEND 
//  #12 //003   ----------------------------------------
Label_019B535C:
 BYTE   N03  En3  v112
 BYTE   N03  Gn3
 BYTE   W12
 BYTE   En3  v096
 BYTE   N03  Gn3
 BYTE   W12
 BYTE   N05  En3  v116
 BYTE   N05  Gn3
 BYTE   W12
 BYTE   N03  En3  v100
 BYTE   N03  Gn3
 BYTE   W12
 BYTE   En3  v096
 BYTE   N03  Gn3
 BYTE   W12
 BYTE   N09  En3  v112
 BYTE   N09  Gn3
 BYTE   W24
 BYTE   N03  En3  v096
 BYTE   N03  Gn3
 BYTE   W12
 BYTE   PEND 
//  #12 //004   ----------------------------------------
Label_019B5385:
 BYTE   N03  En3  v112
 BYTE   N03  Gn3
 BYTE   W12
 BYTE   En3  v096
 BYTE   N03  Gn3
 BYTE   W12
 BYTE   N05  Dn3  v116
 BYTE   N05  Fn3
 BYTE   W12
 BYTE   N03  Dn3  v100
 BYTE   N03  Fn3
 BYTE   W12
 BYTE   Dn3  v096
 BYTE   N03  Fn3
 BYTE   W12
 BYTE   N09  Dn3  v112
 BYTE   N09  Fn3
 BYTE   W24
 BYTE   N03  Dn3  v096
 BYTE   N03  Fn3
 BYTE   W12
 BYTE   PEND 
//  #12 //005   ----------------------------------------
Label_019B53AE:
 BYTE   N03  Dn3  v112
 BYTE   N03  Fn3
 BYTE   W12
 BYTE   Dn3  v096
 BYTE   N03  Fn3
 BYTE   W12
 BYTE   N05  Dn3  v116
 BYTE   N05  Fn3
 BYTE   W12
 BYTE   N03  Dn3  v100
 BYTE   N03  Fn3
 BYTE   W12
 BYTE   Dn3  v096
 BYTE   N03  Fn3
 BYTE   W12
 BYTE   N09  Dn3  v112
 BYTE   N09  Fn3
 BYTE   W24
 BYTE   N03  Dn3  v096
 BYTE   N03  Fn3
 BYTE   W12
 BYTE   PEND 
//  #12 //006   ----------------------------------------
 BYTE   PATT
  POIN2 Label_019B5333
//  #12 //007   ----------------------------------------
 BYTE   PATT
  POIN2 Label_019B535C
//  #12 //008   ----------------------------------------
Label_019B53E1:
 BYTE   N03  En3  v112
 BYTE   N03  Gn3
 BYTE   W12
 BYTE   En3  v096
 BYTE   N03  Gn3
 BYTE   W12
 BYTE   N05  Dn3  v116
 BYTE   N05  Gn3
 BYTE   W12
 BYTE   N03  Dn3  v100
 BYTE   N03  Gn3
 BYTE   W12
 BYTE   Dn3  v096
 BYTE   N03  Gn3
 BYTE   W12
 BYTE   N09  Dn3  v112
 BYTE   N09  Gn3
 BYTE   W24
 BYTE   N03  Dn3  v096
 BYTE   N03  Gn3
 BYTE   W12
 BYTE   PEND 
//  #12 //009   ----------------------------------------
Label_019B540A:
 BYTE   N03  Dn3  v112
 BYTE   N03  Gn3
 BYTE   W12
 BYTE   Dn3  v096
 BYTE   N03  Gn3
 BYTE   W12
 BYTE   N05  Dn3  v116
 BYTE   N05  Gn3
 BYTE   W12
 BYTE   N03  Dn3  v100
 BYTE   N03  Gn3
 BYTE   W12
 BYTE   Dn3  v096
 BYTE   N03  Gn3
 BYTE   W12
 BYTE   N09  Dn3  v112
 BYTE   N09  Gn3
 BYTE   W24
 BYTE   N03  Dn3  v096
 BYTE   N03  Gn3
 BYTE   W12
 BYTE   PEND 
//  #12 //010   ----------------------------------------
Label_019B5433:
 BYTE   N03  Dn3  v112
 BYTE   N03  Gn3
 BYTE   W12
 BYTE   Dn3  v096
 BYTE   N03  Gn3
 BYTE   W12
 BYTE   N05  Dn3  v116
 BYTE   N05  Fn3
 BYTE   W12
 BYTE   N03  Dn3  v100
 BYTE   N03  Fn3
 BYTE   W12
 BYTE   Dn3  v096
 BYTE   N03  Fn3
 BYTE   W12
 BYTE   N09  Dn3  v112
 BYTE   N09  Fn3
 BYTE   W24
 BYTE   N03  Dn3  v096
 BYTE   N03  Fn3
 BYTE   W12
 BYTE   PEND 
//  #12 //011   ----------------------------------------
 BYTE   PATT
  POIN2 Label_019B53AE
//  #12 //012   ----------------------------------------
 BYTE   PATT
  POIN2 Label_019B53AE
//  #12 //013   ----------------------------------------
 BYTE   PATT
  POIN2 Label_019B53AE
//  #12 //014   ----------------------------------------
 BYTE   PATT
  POIN2 Label_019B53AE
//  #12 //015   ----------------------------------------
 BYTE   N03  Dn3  v112
 BYTE   N03  Fn3
 BYTE   W12
 BYTE   Dn3  v096
 BYTE   N03  Fn3
 BYTE   W12
 BYTE   N05  Dn3  v116
 BYTE   N05  Fn3
 BYTE   W12
 BYTE   N03  Dn3  v100
 BYTE   N03  Fn3
 BYTE   W12
 BYTE   Dn3  v096
 BYTE   N03  Fn3
 BYTE   W12
 BYTE   N09  Dn3  v112
 BYTE   N09  Fn3
 BYTE   W24
 BYTE   N03  Fn3  v096
 BYTE   W12
//  #12 //016   ----------------------------------------
 BYTE   PATT
  POIN2 Label_019B5333
//  #12 //017   ----------------------------------------
 BYTE   PATT
  POIN2 Label_019B535C
//  #12 //018   ----------------------------------------
 BYTE   PATT
  POIN2 Label_019B5385
//  #12 //019   ----------------------------------------
 BYTE   PATT
  POIN2 Label_019B53AE
//  #12 //020   ----------------------------------------
 BYTE   PATT
  POIN2 Label_019B5333
//  #12 //021   ----------------------------------------
 BYTE   PATT
  POIN2 Label_019B535C
//  #12 //022   ----------------------------------------
 BYTE   PATT
  POIN2 Label_019B53E1
//  #12 //023   ----------------------------------------
 BYTE   PATT
  POIN2 Label_019B540A
//  #12 //024   ----------------------------------------
 BYTE   PATT
  POIN2 Label_019B5433
//  #12 //025   ----------------------------------------
 BYTE   PATT
  POIN2 Label_019B53AE
//  #12 //026   ----------------------------------------
 BYTE   PATT
  POIN2 Label_019B53AE
//  #12 //027   ----------------------------------------
 BYTE   PATT
  POIN2 Label_019B53AE
//  #12 //028   ----------------------------------------
 BYTE   N04  Dn3  v127
 BYTE   N04  An3
 BYTE   W18
 BYTE   N03  Dn3  v120
 BYTE   N03  An3
 BYTE   W06
 BYTE   N30  An3  v096
 BYTE   N30  Dn4  v127
 BYTE   W36
 BYTE   N06  An3  v096
 BYTE   N06  Dn4  v127
 BYTE   W06
 BYTE   An3  v096
 BYTE   N06  En4  v127
 BYTE   W06
 BYTE   N48  An3  v096
 BYTE   N48  Fn4  v127
 BYTE   W24
//  #12 //029   ----------------------------------------
 BYTE   W48
 BYTE   N18  An3  v096
 BYTE   N18  Dn4  v116
 BYTE   W24
 BYTE   An3  v096
 BYTE   N18  En4  v127
 BYTE   W24
//  #12 //030   ----------------------------------------
 BYTE   N24  An3  v096
 BYTE   N24  Fn4  v127
 BYTE   W24
 BYTE   N06  Cn4  v096
 BYTE   N06  En4  v127
 BYTE   W06
 BYTE   Gn3  v096
 BYTE   N06  Dn4  v127
 BYTE   W06
 BYTE   N84  Gn3  v096
 BYTE   N84  Cn4  v127
 BYTE   W60
//  #12 //031   ----------------------------------------
 BYTE   W48
 BYTE   N18  Cn4  v096
 BYTE   N18  Gn4  v127
 BYTE   W24
 BYTE   Cn4  v096
 BYTE   N18  Fn4  v127
 BYTE   W24
//  #12 //032   ----------------------------------------
 BYTE   N04  Gn3  v116
 BYTE   N04  En4  v127
 BYTE   W18
 BYTE   N03  Gn3  v108
 BYTE   N03  En4  v127
 BYTE   W06
 BYTE   N30  An3  v096
 BYTE   N30  Dn4  v127
 BYTE   W36
 BYTE   N06  An3  v096
 BYTE   N06  Dn4  v127
 BYTE   W06
 BYTE   An3  v096
 BYTE   N06  En4  v127
 BYTE   W06
 BYTE   N48  An3  v096
 BYTE   N48  Fn4  v127
 BYTE   W24
//  #12 //033   ----------------------------------------
 BYTE   W48
 BYTE   N18  An3  v096
 BYTE   N18  Dn4  v116
 BYTE   W24
 BYTE   N12  Dn4  v096
 BYTE   N12  An4  v127
 BYTE   W16
 BYTE   N09  Dn4  v096
 BYTE   N09  Gn4  v127
 BYTE   W08
//  #12 //034   ----------------------------------------
 BYTE   W08
 BYTE   Dn4  v096
 BYTE   N09  Fn4  v127
 BYTE   W16
 BYTE   N06  Cn4  v096
 BYTE   N06  En4  v127
 BYTE   W06
 BYTE   Dn4  v096
 BYTE   N06  Fn4  v127
 BYTE   W06
 BYTE   N84  En4  v096
 BYTE   N84  Gn4  v127
 BYTE   W60
//  #12 //035   ----------------------------------------
 BYTE   W48
 BYTE   N18  An3  v096
 BYTE   N18  Gn4  v127
 BYTE   W24
 BYTE   An3  v096
 BYTE   N18  Fn4  v127
 BYTE   W24
//  #12 //036   ----------------------------------------
 BYTE   N04  An3  v116
 BYTE   N04  En4  v127
 BYTE   W18
 BYTE   N03  An3  v108
 BYTE   N03  En4  v127
 BYTE   W06
 BYTE   N48  Gn3  v108
 BYTE   TIE  Dn4  v127
 BYTE   W48
 BYTE   N48  En3  v096
 BYTE   W24
//  #12 //037   ----------------------------------------
 BYTE   W24
 BYTE   N90  Fs3
 BYTE   W72
//  #12 //038   ----------------------------------------
 BYTE   W18
 BYTE   EOT
 BYTE   Dn4
 BYTE   W06
 BYTE   N04  Dn3
 BYTE   N04  Gn3
 BYTE   W12
 BYTE   N02  Dn3  v080
 BYTE   N02  Gn3
 BYTE   W12
 BYTE   Dn3  v076
 BYTE   N02  Gn3
 BYTE   W12
 BYTE   N08  Dn3  v092
 BYTE   N08  Gn3
 BYTE   W24
 BYTE   N02  Dn3  v076
 BYTE   N02  Gn3
 BYTE   W12
//  #12 //039   ----------------------------------------
 BYTE   Dn3  v092
 BYTE   N02  Gn3
 BYTE   W12
 BYTE   Dn3  v076
 BYTE   N02  Gn3
 BYTE   W12
 BYTE   N04  Dn3  v096
 BYTE   N04  Gn3
 BYTE   W12
 BYTE   N02  Dn3  v080
 BYTE   N02  Gn3
 BYTE   W12
 BYTE   Dn3  v076
 BYTE   N02  Gn3
 BYTE   W12
 BYTE   N08  Dn3  v092
 BYTE   N08  Gn3
 BYTE   W24
 BYTE   N02  Dn3  v076
 BYTE   N02  Gn3
 BYTE   W12
//  #12 //040   ----------------------------------------
 BYTE   Dn3  v092
 BYTE   N02  Gn3
 BYTE   W12
 BYTE   Dn3  v076
 BYTE   N02  Gn3
 BYTE   W12
 BYTE   N04  Dn3  v096
 BYTE   N04  Fn3
 BYTE   W12
 BYTE   N02  Dn3  v080
 BYTE   N02  Fn3
 BYTE   W12
 BYTE   Dn3  v076
 BYTE   N02  Fn3
 BYTE   W12
 BYTE   N08  Dn3  v092
 BYTE   N08  Fn3
 BYTE   W24
 BYTE   N02  Dn3  v076
 BYTE   N02  Fn3
 BYTE   W12
//  #12 //041   ----------------------------------------
 BYTE   Dn3  v092
 BYTE   N02  Fn3
 BYTE   W12
 BYTE   Dn3  v076
 BYTE   N02  Fn3
 BYTE   W12
 BYTE   N04  Cn3  v096
 BYTE   N04  Fn3
 BYTE   W12
 BYTE   N02  Cn3  v080
 BYTE   N02  Fn3
 BYTE   W12
 BYTE   Cn3  v076
 BYTE   N02  Fn3
 BYTE   W12
 BYTE   N08  Cn3  v092
 BYTE   N08  Fn3
 BYTE   W24
 BYTE   N02  Cn3  v076
 BYTE   N02  Fn3
 BYTE   W12
//  #12 //042   ----------------------------------------
 BYTE   Cn3  v092
 BYTE   N02  Fn3
 BYTE   W12
 BYTE   Cn3  v076
 BYTE   N02  Fn3
 BYTE   W12
 BYTE   N04  Cn3  v096
 BYTE   N04  Gn3
 BYTE   W12
 BYTE   N02  Cn3  v080
 BYTE   N02  Gn3
 BYTE   W12
 BYTE   Cn3  v076
 BYTE   N02  Gn3
 BYTE   W12
 BYTE   N08  Cn3  v092
 BYTE   N08  Gn3
 BYTE   W24
 BYTE   N02  Cn3  v076
 BYTE   N02  Gn3
 BYTE   W12
//  #12 //043   ----------------------------------------
 BYTE   Cn3  v092
 BYTE   N02  Gn3
 BYTE   W12
 BYTE   Cn3  v076
 BYTE   N02  Gn3
 BYTE   W12
 BYTE   N04  Cn3  v096
 BYTE   N04  Gn3
 BYTE   W12
 BYTE   N02  Cn3  v080
 BYTE   N02  Gn3
 BYTE   W12
 BYTE   Cn3  v076
 BYTE   N02  Gn3
 BYTE   W12
 BYTE   N08  Cn3  v092
 BYTE   N08  Gn3
 BYTE   W24
 BYTE   N02  Cn3  v076
 BYTE   N02  Gn3
 BYTE   W12
//  #12 //044   ----------------------------------------
 BYTE   Cn3  v092
 BYTE   N02  Gn3
 BYTE   W12
 BYTE   Cn3  v076
 BYTE   N02  Gn3
 BYTE   W12
 BYTE   N04  Ds3  v096
 BYTE   N04  Gn3
 BYTE   W12
 BYTE   N02  Ds3  v080
 BYTE   N02  Gn3
 BYTE   W12
 BYTE   Ds3  v076
 BYTE   N02  Gn3
 BYTE   W12
 BYTE   N08  Ds3  v092
 BYTE   N08  Gn3
 BYTE   W24
 BYTE   N02  Ds3  v076
 BYTE   N02  Gn3
 BYTE   W12
//  #12 //045   ----------------------------------------
 BYTE   Ds3  v092
 BYTE   N02  Gn3
 BYTE   W12
 BYTE   Ds3  v076
 BYTE   N02  Gn3
 BYTE   W12
 BYTE   N04  Ds3  v096
 BYTE   N04  Gn3
 BYTE   W12
 BYTE   N02  Ds3  v080
 BYTE   N02  Gn3
 BYTE   W12
 BYTE   Ds3  v076
 BYTE   N02  Gn3
 BYTE   W12
 BYTE   N08  Ds3  v092
 BYTE   N08  Gn3
 BYTE   W24
 BYTE   N02  Ds3  v076
 BYTE   N02  Gn3
 BYTE   W12
//  #12 //046   ----------------------------------------
 BYTE   Ds3  v092
 BYTE   N02  Gn3
 BYTE   W12
 BYTE   Ds3  v076
 BYTE   N02  Gn3
 BYTE   W12
 BYTE   N04  Cs3  v096
 BYTE   N04  Gn3
 BYTE   W12
 BYTE   N02  Cs3  v080
 BYTE   N02  Gn3
 BYTE   W12
 BYTE   Cs3  v076
 BYTE   N02  Gn3
 BYTE   W12
 BYTE   N08  Cs3  v092
 BYTE   N08  Gn3
 BYTE   W24
 BYTE   N02  Cs3  v076
 BYTE   N02  Gn3
 BYTE   W12
//  #12 //047   ----------------------------------------
 BYTE   Cs3  v092
 BYTE   N02  Gn3
 BYTE   W12
 BYTE   Cs3  v076
 BYTE   N02  Gn3
 BYTE   W12
 BYTE   N04  Cs3  v096
 BYTE   N04  Gn3
 BYTE   N04  An3
 BYTE   W12
 BYTE   N02  Cs3  v080
 BYTE   N02  Gn3
 BYTE   N02  An3
 BYTE   W12
 BYTE   Cs3  v076
 BYTE   N02  Gn3
 BYTE   N02  An3
 BYTE   W12
 BYTE   N08  Cs3  v092
 BYTE   N08  Gn3
 BYTE   N08  An3
 BYTE   W24
 BYTE   N02  Cs3  v076
 BYTE   N02  Gn3
 BYTE   N02  An3
 BYTE   W12
//  #12 //048   ----------------------------------------
 BYTE   Cs3  v092
 BYTE   N02  Gn3
 BYTE   N02  An3
 BYTE   W12
 BYTE   Cs3  v076
 BYTE   N02  Gn3
 BYTE   N02  An3
 BYTE   W12
 BYTE   N04  Dn3  v108
 BYTE   N04  Fn3
 BYTE   N04  An3
 BYTE   W12
 BYTE   N12  Dn2
 BYTE   N12  Fn2
 BYTE   W24
 BYTE   N06  Dn2
 BYTE   N06  Fn2
 BYTE   W24
 BYTE   N12  Dn2
 BYTE   N12  Fn2
 BYTE   W12
//  #12 //049   ----------------------------------------
 BYTE   W12
 BYTE   N48  Dn2
 BYTE   N48  Fn2
 BYTE   W72
 BYTE   N09  Dn2  v127
 BYTE   N09  Fn2
 BYTE   W12
//  #12 //050   ----------------------------------------
 BYTE   W12
 BYTE   N06  Dn2  v108
 BYTE   N06  Fn2
 BYTE   W12
 BYTE   Dn2
 BYTE   N06  Fn2
 BYTE   W12
 BYTE   N12  Dn2
 BYTE   N12  Fn2
 BYTE   W24
 BYTE   N06  Dn2
 BYTE   N06  Fn2
 BYTE   W24
 BYTE   N12  Dn2
 BYTE   N12  Fn2
 BYTE   W12
//  #12 //051   ----------------------------------------
 BYTE   W12
 BYTE   N48  En2
 BYTE   N48  An2
 BYTE   W72
 BYTE   N07  Dn3  v116
 BYTE   N07  Fn3
 BYTE   W12
//  #12 //052   ----------------------------------------
 BYTE   W12
 BYTE   N04  Dn3  v096
 BYTE   N04  Fn3
 BYTE   W15
 BYTE   GoTo
  POIN2 Label_019B52EF
 BYTE   FINE

//**************** Track 13 (Midi-Chn.12) ****************//

Knights2_013:
//  #13 //000   ----------------------------------------
 BYTE   KEYSH   Knights2_key+0
 BYTE   VOICE   47
 BYTE   VOL   27*Knights2_mvl/mxv
 BYTE   PAN   c_v-14
 BYTE   W12
 BYTE   N12  Dn1  v112
 BYTE   W12
Label_019B3ED1:
 BYTE   N12  As1  v112
 BYTE   W36
 BYTE   As1  v100
 BYTE   W24
 BYTE   Fn1  v112
 BYTE   W12
//  #13 //001   ----------------------------------------
Label_019B3EDB:
 BYTE   N12  As1  v112
 BYTE   W24
 BYTE   N12
 BYTE   W12
 BYTE   As1  v100
 BYTE   W24
 BYTE   N12
 BYTE   W24
 BYTE   Fn1  v112
 BYTE   W12
 BYTE   PEND 
//  #13 //002   ----------------------------------------
Label_019B3EEA:
 BYTE   N12  As1  v100
 BYTE   W24
 BYTE   Cn2  v112
 BYTE   W36
 BYTE   Cn2  v100
 BYTE   W24
 BYTE   Gn1  v112
 BYTE   W12
 BYTE   PEND 
//  #13 //003   ----------------------------------------
Label_019B3EF8:
 BYTE   N12  Cn2  v112
 BYTE   W24
 BYTE   N12
 BYTE   W12
 BYTE   Cn2  v100
 BYTE   W24
 BYTE   Gn1
 BYTE   W24
 BYTE   Gn1  v112
 BYTE   W12
 BYTE   PEND 
//  #13 //004   ----------------------------------------
Label_019B3F07:
 BYTE   N12  Cn2  v100
 BYTE   W12
 BYTE   Gn1
 BYTE   W12
 BYTE   As1  v112
 BYTE   W36
 BYTE   As1  v100
 BYTE   W24
 BYTE   Fn1  v112
 BYTE   W12
 BYTE   PEND 
//  #13 //005   ----------------------------------------
 BYTE   PATT
  POIN2 Label_019B3EDB
//  #13 //006   ----------------------------------------
 BYTE   PATT
  POIN2 Label_019B3EEA
//  #13 //007   ----------------------------------------
 BYTE   PATT
  POIN2 Label_019B3EF8
//  #13 //008   ----------------------------------------
Label_019B3F26:
 BYTE   N12  Cn2  v100
 BYTE   W12
 BYTE   N04  Gn1
 BYTE   W04
 BYTE   Gn1  v112
 BYTE   W04
 BYTE   Gn1  v120
 BYTE   W04
 BYTE   N12
 BYTE   W36
 BYTE   Gn1  v100
 BYTE   W24
 BYTE   Dn1  v112
 BYTE   W12
 BYTE   PEND 
//  #13 //009   ----------------------------------------
Label_019B3F3C:
 BYTE   N12  Gn1  v112
 BYTE   W24
 BYTE   N12
 BYTE   W12
 BYTE   Gn1  v100
 BYTE   W24
 BYTE   N12
 BYTE   W24
 BYTE   Dn1  v112
 BYTE   W12
 BYTE   PEND 
//  #13 //010   ----------------------------------------
Label_019B3F4B:
 BYTE   N12  Gn1  v100
 BYTE   W24
 BYTE   Dn2  v112
 BYTE   W36
 BYTE   Dn2  v100
 BYTE   W24
 BYTE   An1  v112
 BYTE   W12
 BYTE   PEND 
//  #13 //011   ----------------------------------------
Label_019B3F59:
 BYTE   N12  Dn2  v112
 BYTE   W24
 BYTE   N12
 BYTE   W12
 BYTE   Dn2  v100
 BYTE   W24
 BYTE   An1
 BYTE   W24
 BYTE   An1  v112
 BYTE   W12
 BYTE   PEND 
//  #13 //012   ----------------------------------------
Label_019B3F68:
 BYTE   N12  Dn2  v100
 BYTE   W12
 BYTE   An1
 BYTE   W12
 BYTE   Dn2  v112
 BYTE   W36
 BYTE   Dn2  v100
 BYTE   W24
 BYTE   An1  v112
 BYTE   W12
 BYTE   PEND 
//  #13 //013   ----------------------------------------
 BYTE   PATT
  POIN2 Label_019B3F59
//  #13 //014   ----------------------------------------
 BYTE   N12  Dn2  v100
 BYTE   W12
 BYTE   An1
 BYTE   W12
 BYTE   As1  v112
 BYTE   W36
 BYTE   As1  v100
 BYTE   W24
 BYTE   Fn1  v112
 BYTE   W12
//  #13 //015   ----------------------------------------
 BYTE   PATT
  POIN2 Label_019B3EDB
//  #13 //016   ----------------------------------------
 BYTE   PATT
  POIN2 Label_019B3EEA
//  #13 //017   ----------------------------------------
 BYTE   PATT
  POIN2 Label_019B3EF8
//  #13 //018   ----------------------------------------
 BYTE   PATT
  POIN2 Label_019B3F07
//  #13 //019   ----------------------------------------
 BYTE   PATT
  POIN2 Label_019B3EDB
//  #13 //020   ----------------------------------------
 BYTE   PATT
  POIN2 Label_019B3EEA
//  #13 //021   ----------------------------------------
 BYTE   PATT
  POIN2 Label_019B3EF8
//  #13 //022   ----------------------------------------
 BYTE   PATT
  POIN2 Label_019B3F26
//  #13 //023   ----------------------------------------
 BYTE   PATT
  POIN2 Label_019B3F3C
//  #13 //024   ----------------------------------------
 BYTE   PATT
  POIN2 Label_019B3F4B
//  #13 //025   ----------------------------------------
 BYTE   PATT
  POIN2 Label_019B3F59
//  #13 //026   ----------------------------------------
 BYTE   PATT
  POIN2 Label_019B3F68
//  #13 //027   ----------------------------------------
 BYTE   PATT
  POIN2 Label_019B3F59
//  #13 //028   ----------------------------------------
 BYTE   PATT
  POIN2 Label_019B3F68
//  #13 //029   ----------------------------------------
 BYTE   PATT
  POIN2 Label_019B3F59
//  #13 //030   ----------------------------------------
 BYTE   N12  Dn2  v100
 BYTE   W12
 BYTE   An1
 BYTE   W12
 BYTE   Cn2  v112
 BYTE   W36
 BYTE   Cn2  v100
 BYTE   W24
 BYTE   Gn1  v112
 BYTE   W12
//  #13 //031   ----------------------------------------
 BYTE   PATT
  POIN2 Label_019B3EF8
//  #13 //032   ----------------------------------------
 BYTE   PATT
  POIN2 Label_019B3F07
//  #13 //033   ----------------------------------------
 BYTE   N12  As1  v112
 BYTE   W24
 BYTE   N12
 BYTE   W12
 BYTE   As1  v100
 BYTE   W36
 BYTE   Fn1  v120
 BYTE   W16
 BYTE   Fn1  v112
 BYTE   W08
//  #13 //034   ----------------------------------------
 BYTE   W08
 BYTE   Fn1  v127
 BYTE   W16
 BYTE   An1  v120
 BYTE   W36
 BYTE   An1  v100
 BYTE   W24
 BYTE   En1  v112
 BYTE   W12
//  #13 //035   ----------------------------------------
 BYTE   An1
 BYTE   W24
 BYTE   N12
 BYTE   W12
 BYTE   An1  v100
 BYTE   W24
 BYTE   En1
 BYTE   W24
 BYTE   En1  v112
 BYTE   W12
//  #13 //036   ----------------------------------------
 BYTE   An1  v100
 BYTE   W12
 BYTE   En1
 BYTE   W12
 BYTE   Dn2  v112
 BYTE   W36
 BYTE   Dn2  v100
 BYTE   W24
 BYTE   An1  v112
 BYTE   W12
//  #13 //037   ----------------------------------------
 BYTE   PATT
  POIN2 Label_019B3F59
//  #13 //038   ----------------------------------------
 BYTE   N12  Dn2  v112
 BYTE   W12
 BYTE   An1  v120
 BYTE   W12
 BYTE   Gn1  v127
 BYTE   W72
//  #13 //039   ----------------------------------------
 BYTE   W96
//  #13 //040   ----------------------------------------
 BYTE   W96
//  #13 //041   ----------------------------------------
 BYTE   W96
//  #13 //042   ----------------------------------------
 BYTE   W96
//  #13 //043   ----------------------------------------
 BYTE   W96
//  #13 //044   ----------------------------------------
 BYTE   W96
//  #13 //045   ----------------------------------------
 BYTE   W96
//  #13 //046   ----------------------------------------
 BYTE   W96
//  #13 //047   ----------------------------------------
 BYTE   W96
//  #13 //048   ----------------------------------------
 BYTE   W12
 BYTE   N04  An1  v108
 BYTE   W04
 BYTE   An1  v116
 BYTE   W04
 BYTE   An1  v127
 BYTE   W04
 BYTE   N12  Dn1
 BYTE   W72
//  #13 //049   ----------------------------------------
 BYTE   W84
 BYTE   Dn1  v112
 BYTE   W12
//  #13 //050   ----------------------------------------
 BYTE   W12
 BYTE   N12
 BYTE   W12
 BYTE   N12
 BYTE   W72
//  #13 //051   ----------------------------------------
 BYTE   W84
 BYTE   N12
 BYTE   W12
//  #13 //052   ----------------------------------------
 BYTE   W12
 BYTE   N12
 BYTE   W15
 BYTE   GoTo
  POIN2 Label_019B3ED1
 BYTE   FINE

//**************** Track 14 (Midi-Chn.13) ****************//

Knights2_014:
//  #14 //000   ----------------------------------------
 BYTE   KEYSH   Knights2_key+0
 BYTE   VOICE   48
 BYTE   PAN   c_v+14
 BYTE   VOL   27*Knights2_mvl/mxv
 BYTE   W12
 BYTE   N12  Dn1  v120
 BYTE   N12  Dn2
 BYTE   W12
Label_019B475B:
 BYTE   N12  As0  v120
 BYTE   N12  As1
 BYTE   W36
 BYTE   As0
 BYTE   N12  As1
 BYTE   W36
//  #14 //001   ----------------------------------------
Label_019B4765:
 BYTE   N12  As0  v120
 BYTE   N12  As1
 BYTE   W24
 BYTE   As0
 BYTE   N12  As1
 BYTE   W36
 BYTE   As0
 BYTE   N12  As1
 BYTE   W36
 BYTE   PEND 
//  #14 //002   ----------------------------------------
Label_019B4774:
 BYTE   N12  As0  v120
 BYTE   N12  As1
 BYTE   W24
 BYTE   Cn1
 BYTE   N12  Cn2
 BYTE   W36
 BYTE   Cn1
 BYTE   N12  Cn2
 BYTE   W36
 BYTE   PEND 
//  #14 //003   ----------------------------------------
Label_019B4783:
 BYTE   N12  Cn1  v120
 BYTE   N12  Cn2
 BYTE   W24
 BYTE   Cn1
 BYTE   N12  Cn2
 BYTE   W36
 BYTE   Cn1
 BYTE   N12  Cn2
 BYTE   W36
 BYTE   PEND 
//  #14 //004   ----------------------------------------
Label_019B4792:
 BYTE   N12  Cn1  v120
 BYTE   N12  Cn2
 BYTE   W24
 BYTE   As0
 BYTE   N12  As1
 BYTE   W36
 BYTE   As0
 BYTE   N12  As1
 BYTE   W36
 BYTE   PEND 
//  #14 //005   ----------------------------------------
 BYTE   PATT
  POIN2 Label_019B4765
//  #14 //006   ----------------------------------------
 BYTE   PATT
  POIN2 Label_019B4774
//  #14 //007   ----------------------------------------
 BYTE   PATT
  POIN2 Label_019B4783
//  #14 //008   ----------------------------------------
Label_019B47B0:
 BYTE   N12  Cn1  v120
 BYTE   N12  Cn2
 BYTE   W24
 BYTE   Gn0
 BYTE   N12  Gn1
 BYTE   W36
 BYTE   Gn0
 BYTE   N12  Gn1
 BYTE   W36
 BYTE   PEND 
//  #14 //009   ----------------------------------------
Label_019B47BF:
 BYTE   N12  Gn0  v120
 BYTE   N12  Gn1
 BYTE   W24
 BYTE   Gn0
 BYTE   N12  Gn1
 BYTE   W36
 BYTE   Gn0
 BYTE   N12  Gn1
 BYTE   W36
 BYTE   PEND 
//  #14 //010   ----------------------------------------
Label_019B47CE:
 BYTE   N12  Gn0  v120
 BYTE   N12  Gn1
 BYTE   W24
 BYTE   Dn1
 BYTE   N12  Dn2
 BYTE   W36
 BYTE   Dn1
 BYTE   N12  Dn2
 BYTE   W36
 BYTE   PEND 
//  #14 //011   ----------------------------------------
Label_019B47DD:
 BYTE   N12  Dn1  v120
 BYTE   N12  Dn2
 BYTE   W24
 BYTE   Dn1
 BYTE   N12  Dn2
 BYTE   W36
 BYTE   Dn1
 BYTE   N12  Dn2
 BYTE   W36
 BYTE   PEND 
//  #14 //012   ----------------------------------------
 BYTE   PATT
  POIN2 Label_019B47DD
//  #14 //013   ----------------------------------------
 BYTE   PATT
  POIN2 Label_019B47DD
//  #14 //014   ----------------------------------------
 BYTE   N12  Dn1  v120
 BYTE   N12  Dn2
 BYTE   W24
 BYTE   As0
 BYTE   N12  As1
 BYTE   W36
 BYTE   As0
 BYTE   N12  As1
 BYTE   W36
//  #14 //015   ----------------------------------------
 BYTE   PATT
  POIN2 Label_019B4765
//  #14 //016   ----------------------------------------
 BYTE   PATT
  POIN2 Label_019B4774
//  #14 //017   ----------------------------------------
 BYTE   PATT
  POIN2 Label_019B4783
//  #14 //018   ----------------------------------------
 BYTE   PATT
  POIN2 Label_019B4792
//  #14 //019   ----------------------------------------
 BYTE   PATT
  POIN2 Label_019B4765
//  #14 //020   ----------------------------------------
 BYTE   PATT
  POIN2 Label_019B4774
//  #14 //021   ----------------------------------------
 BYTE   PATT
  POIN2 Label_019B4783
//  #14 //022   ----------------------------------------
 BYTE   PATT
  POIN2 Label_019B47B0
//  #14 //023   ----------------------------------------
 BYTE   PATT
  POIN2 Label_019B47BF
//  #14 //024   ----------------------------------------
 BYTE   PATT
  POIN2 Label_019B47CE
//  #14 //025   ----------------------------------------
 BYTE   PATT
  POIN2 Label_019B47DD
//  #14 //026   ----------------------------------------
 BYTE   PATT
  POIN2 Label_019B47DD
//  #14 //027   ----------------------------------------
 BYTE   PATT
  POIN2 Label_019B47DD
//  #14 //028   ----------------------------------------
 BYTE   PATT
  POIN2 Label_019B47DD
//  #14 //029   ----------------------------------------
 BYTE   PATT
  POIN2 Label_019B47DD
//  #14 //030   ----------------------------------------
 BYTE   N12  Dn1  v120
 BYTE   N12  Dn2
 BYTE   W24
 BYTE   Cn1
 BYTE   N12  Cn2
 BYTE   W36
 BYTE   Cn1
 BYTE   N12  Cn2
 BYTE   W36
//  #14 //031   ----------------------------------------
 BYTE   PATT
  POIN2 Label_019B4783
//  #14 //032   ----------------------------------------
 BYTE   PATT
  POIN2 Label_019B4792
//  #14 //033   ----------------------------------------
 BYTE   N12  As0  v120
 BYTE   N12  As1
 BYTE   W24
 BYTE   As0
 BYTE   N12  As1
 BYTE   W36
 BYTE   As0
 BYTE   N12  As1
 BYTE   W12
 BYTE   As0
 BYTE   N12  As1
 BYTE   W16
 BYTE   N08  As0
 BYTE   N08  As1
 BYTE   W08
//  #14 //034   ----------------------------------------
 BYTE   W08
 BYTE   As0
 BYTE   N08  As1
 BYTE   W16
 BYTE   N12  An0
 BYTE   N12  An1
 BYTE   W36
 BYTE   An0
 BYTE   N12  An1
 BYTE   W36
//  #14 //035   ----------------------------------------
 BYTE   An0
 BYTE   N12  An1
 BYTE   W24
 BYTE   An0
 BYTE   N12  An1
 BYTE   W36
 BYTE   An0
 BYTE   N12  An1
 BYTE   W36
//  #14 //036   ----------------------------------------
 BYTE   An0
 BYTE   N12  An1
 BYTE   W24
 BYTE   Dn1
 BYTE   N12  Dn2
 BYTE   W36
 BYTE   Dn1
 BYTE   N12  Dn2
 BYTE   W36
//  #14 //037   ----------------------------------------
 BYTE   PATT
  POIN2 Label_019B47DD
//  #14 //038   ----------------------------------------
 BYTE   N12  Dn1  v120
 BYTE   N12  Dn2
 BYTE   W96
//  #14 //039   ----------------------------------------
 BYTE   W96
//  #14 //040   ----------------------------------------
 BYTE   W96
//  #14 //041   ----------------------------------------
 BYTE   W96
//  #14 //042   ----------------------------------------
 BYTE   W96
//  #14 //043   ----------------------------------------
 BYTE   W96
//  #14 //044   ----------------------------------------
 BYTE   W96
//  #14 //045   ----------------------------------------
 BYTE   W96
//  #14 //046   ----------------------------------------
 BYTE   W96
//  #14 //047   ----------------------------------------
 BYTE   W96
//  #14 //048   ----------------------------------------
 BYTE   W24
 BYTE   Dn1
 BYTE   N12  Dn2
 BYTE   W72
//  #14 //049   ----------------------------------------
Label_019B48BD:
 BYTE   W84
 BYTE   N12  Dn1  v120
 BYTE   N12  Dn2
 BYTE   W12
 BYTE   PEND 
//  #14 //050   ----------------------------------------
 BYTE   W12
 BYTE   Dn1
 BYTE   N12  Dn2
 BYTE   W12
 BYTE   Dn1
 BYTE   N12  Dn2
 BYTE   W72
//  #14 //051   ----------------------------------------
 BYTE   PATT
  POIN2 Label_019B48BD
//  #14 //052   ----------------------------------------
 BYTE   W12
 BYTE   N12  Dn1  v120
 BYTE   N12  Dn2
 BYTE   W15
 BYTE   GoTo
  POIN2 Label_019B475B
 BYTE   FINE

//**************** Track 15 (Midi-Chn.14) ****************//

Knights2_015:
//  #15 //000   ----------------------------------------
 BYTE   KEYSH   Knights2_key+0
 BYTE   VOICE   14
 BYTE   PAN   c_v+57
 BYTE   VOL   35*Knights2_mvl/mxv
 BYTE   W24
Label_019B3E11:
 BYTE   N96  Fn3  v112
 BYTE   N96  Dn4  v120
 BYTE   W72
//  #15 //001   ----------------------------------------
 BYTE   W96
//  #15 //002   ----------------------------------------
Label_019B3E19:
 BYTE   W24
 BYTE   N96  Gn3  v112
 BYTE   N96  Cn4  v120
 BYTE   W72
 BYTE   PEND 
//  #15 //003   ----------------------------------------
 BYTE   W96
//  #15 //004   ----------------------------------------
Label_019B3E23:
 BYTE   W24
 BYTE   N96  Fn3  v112
 BYTE   N96  Dn4  v120
 BYTE   W72
 BYTE   PEND 
//  #15 //005   ----------------------------------------
 BYTE   W96
//  #15 //006   ----------------------------------------
 BYTE   PATT
  POIN2 Label_019B3E19
//  #15 //007   ----------------------------------------
 BYTE   W96
//  #15 //008   ----------------------------------------
Label_019B3E33:
 BYTE   W24
 BYTE   N96  Gn3  v112
 BYTE   N96  Dn4  v120
 BYTE   W72
 BYTE   PEND 
//  #15 //009   ----------------------------------------
 BYTE   W96
//  #15 //010   ----------------------------------------
 BYTE   W96
//  #15 //011   ----------------------------------------
 BYTE   W96
//  #15 //012   ----------------------------------------
 BYTE   W96
//  #15 //013   ----------------------------------------
 BYTE   W72
 BYTE   N48  Fn3  v100
 BYTE   N48  Dn4  v112
 BYTE   W24
//  #15 //014   ----------------------------------------
 BYTE   PATT
  POIN2 Label_019B3E23
//  #15 //015   ----------------------------------------
 BYTE   W96
//  #15 //016   ----------------------------------------
 BYTE   PATT
  POIN2 Label_019B3E19
//  #15 //017   ----------------------------------------
 BYTE   W96
//  #15 //018   ----------------------------------------
 BYTE   PATT
  POIN2 Label_019B3E23
//  #15 //019   ----------------------------------------
 BYTE   W96
//  #15 //020   ----------------------------------------
 BYTE   PATT
  POIN2 Label_019B3E19
//  #15 //021   ----------------------------------------
 BYTE   W96
//  #15 //022   ----------------------------------------
 BYTE   PATT
  POIN2 Label_019B3E33
//  #15 //023   ----------------------------------------
 BYTE   W96
//  #15 //024   ----------------------------------------
 BYTE   W96
//  #15 //025   ----------------------------------------
 BYTE   W96
//  #15 //026   ----------------------------------------
 BYTE   W96
//  #15 //027   ----------------------------------------
 BYTE   W72
 BYTE   N48  Fn3  v112
 BYTE   N48  Dn4  v120
 BYTE   W24
//  #15 //028   ----------------------------------------
 BYTE   PATT
  POIN2 Label_019B3E23
//  #15 //029   ----------------------------------------
 BYTE   W96
//  #15 //030   ----------------------------------------
 BYTE   W96
//  #15 //031   ----------------------------------------
 BYTE   W96
//  #15 //032   ----------------------------------------
 BYTE   PATT
  POIN2 Label_019B3E23
//  #15 //033   ----------------------------------------
 BYTE   W96
//  #15 //034   ----------------------------------------
 BYTE   W96
//  #15 //035   ----------------------------------------
 BYTE   W96
//  #15 //036   ----------------------------------------
 BYTE   W96
//  #15 //037   ----------------------------------------
 BYTE   W96
//  #15 //038   ----------------------------------------
 BYTE   PATT
  POIN2 Label_019B3E33
//  #15 //039   ----------------------------------------
 BYTE   W96
//  #15 //040   ----------------------------------------
 BYTE   W96
//  #15 //041   ----------------------------------------
 BYTE   W96
//  #15 //042   ----------------------------------------
 BYTE   W24
 BYTE   N48  Gn3  v112
 BYTE   N48  Cn4  v120
 BYTE   W48
 BYTE   Gn3  v100
 BYTE   W24
//  #15 //043   ----------------------------------------
 BYTE   W24
 BYTE   Dn4
 BYTE   W48
 BYTE   Cn4
 BYTE   W24
//  #15 //044   ----------------------------------------
 BYTE   W24
 BYTE   Gn4
 BYTE   W48
 BYTE   Dn4
 BYTE   W24
//  #15 //045   ----------------------------------------
 BYTE   W24
 BYTE   Cn4
 BYTE   W48
 BYTE   Gn3
 BYTE   W24
//  #15 //046   ----------------------------------------
 BYTE   W24
 BYTE   Gn4
 BYTE   W48
 BYTE   En4
 BYTE   W24
//  #15 //047   ----------------------------------------
 BYTE   W24
 BYTE   Cs4
 BYTE   W48
 BYTE   An3
 BYTE   W24
//  #15 //048   ----------------------------------------
 BYTE   W24
 BYTE   N96  An3  v112
 BYTE   N96  Dn4  v120
 BYTE   W72
//  #15 //049   ----------------------------------------
 BYTE   W96
//  #15 //050   ----------------------------------------
 BYTE   W96
//  #15 //051   ----------------------------------------
 BYTE   W96
//  #15 //052   ----------------------------------------
 BYTE   W24
 BYTE   W03
 BYTE   GoTo
  POIN2 Label_019B3E11
 BYTE   FINE

//******************************************************//
	ALIGN 4

Knights2:
	BYTE	15	// NumTrks
	BYTE	0	// NumBlks
	BYTE	Knights2_pri	// Priority
	BYTE	Knights2_rev	// Reverb.
    
	POIN2	Knights2_grp
    
	POIN2	Knights2_001
	POIN2	Knights2_002
	POIN2	Knights2_003
	POIN2	Knights2_004
	POIN2	Knights2_005
	POIN2	Knights2_006
	POIN2	Knights2_007
	POIN2	Knights2_008
	POIN2	Knights2_009
	POIN2	Knights2_010
	POIN2	Knights2_011
	POIN2	Knights2_012
	POIN2	Knights2_013
	POIN2	Knights2_014
	POIN2	Knights2_015

	
