	.include "MPlayDef.s"

	.equ	song012D_grp, voicegroup000
	.equ	song012D_pri, 0
	.equ	song012D_rev, 0
	.equ	song012D_mvl, 127
	.equ	song012D_key, 0
	.equ	song012D_tbs, 1
	.equ	song012D_exg, 0
	.equ	song012D_cmp, 1

	.section .rodata
	.global	song012D
	.align	2


@**************** Track 1 (Midi-Chn.0) ****************@

song012D_001:
@ 000   ----------------------------------------
 .byte   KEYSH , song012D_key+0
 .byte   TEMPO , 144*song012D_tbs/2
 .byte   VOICE , 48
 .byte   VOL , 21*song012D_mvl/mxv
 .byte   PAN , c_v+2
 .byte   N12 ,An1 ,v100
 .byte   N12 ,Dn2 ,v127
 .byte   W12
 .byte   N24 ,Fn2 ,v100
 .byte   N24 ,An2 ,v127
 .byte   W24
 .byte   En2 ,v100
 .byte   N24 ,Gn2 ,v127
 .byte   W24
 .byte   An2 ,v100
 .byte   N24 ,Dn3 ,v127
 .byte   W24
 .byte   N96 ,Fn2 ,v100
 .byte   N96 ,An2 ,v127
 .byte   W12
@ 001   ----------------------------------------
 .byte   W96
@ 002   ----------------------------------------
Label_0_012BB180:
 .byte   N12 ,An1 ,v100
 .byte   N12 ,Dn2 ,v127
 .byte   W12
 .byte   N24 ,Fn2 ,v100
 .byte   N24 ,An2 ,v127
 .byte   W24
 .byte   En2 ,v100
 .byte   N24 ,Gn2 ,v127
 .byte   W24
 .byte   An2 ,v100
 .byte   N24 ,Dn3 ,v127
 .byte   W24
 .byte   N96 ,An2 ,v100
 .byte   N96 ,En3 ,v127
 .byte   W12
 .byte   PEND 
@ 003   ----------------------------------------
 .byte   W96
@ 004   ----------------------------------------
Label_0_012BB1A3:
 .byte   W96
@ 005   ----------------------------------------
 .byte   W96
@ 006   ----------------------------------------
 .byte   W96
@ 007   ----------------------------------------
 .byte   W96
@ 008   ----------------------------------------
 .byte   W96
@ 009   ----------------------------------------
 .byte   W96
@ 010   ----------------------------------------
 .byte   W96
@ 011   ----------------------------------------
Label_0_012BB1AA:
 .byte   N36 ,Cn3 ,v120
 .byte   N36 ,Gn3 ,v127
 .byte   W36
 .byte   N54 ,Gn2 ,v120
 .byte   N54 ,Cn3 ,v127
 .byte   W60
 .byte   PEND 
@ 012   ----------------------------------------
Label_0_012BB1B9:
 .byte   N36 ,Gn2 ,v112
 .byte   N36 ,Dn3 ,v120
 .byte   W36
 .byte   Cn3 ,v112
 .byte   N36 ,En3 ,v120
 .byte   W36
 .byte   N24 ,Dn3 ,v112
 .byte   N24 ,Fn3 ,v120
 .byte   W24
 .byte   PEND 
@ 013   ----------------------------------------
 .byte   N96 ,En3 ,v112
 .byte   N96 ,Gn3 ,v120
 .byte   W96
@ 014   ----------------------------------------
Label_0_012BB1D5:
 .byte   TIE ,An2 ,v112
 .byte   TIE ,Dn3 ,v120
 .byte   W96
 .byte   PEND 
@ 015   ----------------------------------------
 .byte   W96
@ 016   ----------------------------------------
 .byte   EOT
 .byte   An2 ,v062
 .byte   W96
@ 017   ----------------------------------------
 .byte   W96
@ 018   ----------------------------------------
 .byte   W96
@ 019   ----------------------------------------
 .byte   W96
@ 020   ----------------------------------------
 .byte   W96
@ 021   ----------------------------------------
 .byte   W96
@ 022   ----------------------------------------
 .byte   W96
@ 023   ----------------------------------------
 .byte   W96
@ 024   ----------------------------------------
 .byte   W96
@ 025   ----------------------------------------
 .byte   PATT
  .word Label_0_012BB1AA
@ 026   ----------------------------------------
 .byte   PATT
  .word Label_0_012BB1B9
@ 027   ----------------------------------------
 .byte   N96 ,En3 ,v112
 .byte   N96 ,Gn3 ,v120
 .byte   W96
@ 028   ----------------------------------------
 .byte   PATT
  .word Label_0_012BB1D5
@ 029   ----------------------------------------
 .byte   W96
@ 030   ----------------------------------------
 .byte   EOT
 .byte   An2 ,v062
 .byte   W96
@ 031   ----------------------------------------
 .byte   W96
@ 032   ----------------------------------------
 .byte   W96
@ 033   ----------------------------------------
 .byte   W96
@ 034   ----------------------------------------
 .byte   W96
@ 035   ----------------------------------------
 .byte   W96
@ 036   ----------------------------------------
 .byte   W96
@ 037   ----------------------------------------
 .byte   W96
@ 038   ----------------------------------------
 .byte   W96
@ 039   ----------------------------------------
 .byte   W96
@ 040   ----------------------------------------
 .byte   W96
@ 041   ----------------------------------------
 .byte   W96
@ 042   ----------------------------------------
 .byte   W96
@ 043   ----------------------------------------
 .byte   W96
@ 044   ----------------------------------------
 .byte   W96
@ 045   ----------------------------------------
 .byte   W96
@ 046   ----------------------------------------
 .byte   W96
@ 047   ----------------------------------------
 .byte   W96
@ 048   ----------------------------------------
 .byte   W96
@ 049   ----------------------------------------
 .byte   W96
@ 050   ----------------------------------------
 .byte   W96
@ 051   ----------------------------------------
 .byte   W96
@ 052   ----------------------------------------
 .byte   N12 ,An1 ,v100
 .byte   N12 ,Dn2 ,v127
 .byte   W12
 .byte   N24 ,Fn2 ,v100
 .byte   N24 ,An2 ,v127
 .byte   W24
 .byte   En2 ,v100
 .byte   N24 ,Gn2 ,v127
 .byte   W24
 .byte   An2 ,v100
 .byte   N24 ,Dn3 ,v127
 .byte   W24
 .byte   N96 ,Fn2 ,v100
 .byte   N96 ,An2 ,v127
 .byte   W12
@ 053   ----------------------------------------
 .byte   W96
@ 054   ----------------------------------------
 .byte   PATT
  .word Label_0_012BB180
@ 055   ----------------------------------------
 .byte   W96
@ 056   ----------------------------------------
 .byte   W03
 .byte   GOTO
  .word Label_0_012BB1A3
 .byte   FINE

@**************** Track 2 (Midi-Chn.1) ****************@

song012D_002:
@ 000   ----------------------------------------
 .byte   KEYSH , song012D_key+0
 .byte   VOICE , 48
 .byte   VOL , 19*song012D_mvl/mxv
 .byte   PAN , c_v-14
 .byte   W96
@ 001   ----------------------------------------
 .byte   W96
@ 002   ----------------------------------------
 .byte   W96
@ 003   ----------------------------------------
Label_1_012BB254:
 .byte   W72
 .byte   N04 ,Gn3 ,v112
 .byte   W04
 .byte   An3
 .byte   W04
 .byte   As3
 .byte   W04
 .byte   Cn4
 .byte   W04
 .byte   Dn4
 .byte   W04
 .byte   En4 ,v120
 .byte   W04
 .byte   PEND 
@ 004   ----------------------------------------
Label_1_012BB265:
 .byte   N60 ,Fn4 ,v100
 .byte   W60
 .byte   N12 ,En4
 .byte   W12
 .byte   Dn4
 .byte   W12
 .byte   En4
 .byte   W12
 .byte   PEND 
@ 005   ----------------------------------------
Label_1_012BB271:
 .byte   N36 ,Fn4 ,v100
 .byte   W36
 .byte   Gn4
 .byte   W36
 .byte   N24 ,An4
 .byte   W24
 .byte   PEND 
@ 006   ----------------------------------------
 .byte   N36 ,Dn4
 .byte   W36
 .byte   An4
 .byte   W36
 .byte   N24 ,Gn4
 .byte   W24
@ 007   ----------------------------------------
Label_1_012BB283:
 .byte   N36 ,As4 ,v100
 .byte   W36
 .byte   An4
 .byte   W36
 .byte   N24 ,Gn4
 .byte   W24
 .byte   PEND 
@ 008   ----------------------------------------
 .byte   N36 ,Fn4
 .byte   W36
 .byte   N84 ,Dn4
 .byte   W60
@ 009   ----------------------------------------
 .byte   W36
 .byte   N36 ,En4
 .byte   W36
 .byte   N24 ,Fn4
 .byte   W24
@ 010   ----------------------------------------
Label_1_012BB29A:
 .byte   N36 ,Gn4 ,v100
 .byte   W36
 .byte   TIE ,Cn4 ,v112
 .byte   W60
 .byte   PEND 
@ 011   ----------------------------------------
 .byte   W60
 .byte   EOT
 .byte   W12
 .byte   N06 ,Gn4 ,v108
 .byte   W06
 .byte   An4 ,v096
 .byte   W06
 .byte   As4
 .byte   W06
 .byte   Cn5
 .byte   W06
@ 012   ----------------------------------------
 .byte   W96
@ 013   ----------------------------------------
 .byte   W96
@ 014   ----------------------------------------
 .byte   W96
@ 015   ----------------------------------------
 .byte   W96
@ 016   ----------------------------------------
 .byte   W96
@ 017   ----------------------------------------
 .byte   PATT
  .word Label_1_012BB254
@ 018   ----------------------------------------
 .byte   PATT
  .word Label_1_012BB265
@ 019   ----------------------------------------
 .byte   PATT
  .word Label_1_012BB271
@ 020   ----------------------------------------
 .byte   PATT
  .word Label_1_012BB283
@ 021   ----------------------------------------
 .byte   N36 ,Cn5 ,v100
 .byte   W36
 .byte   An4
 .byte   W36
 .byte   N24 ,Gn4
 .byte   W24
@ 022   ----------------------------------------
 .byte   N36 ,Fn4
 .byte   W36
 .byte   N84 ,An4
 .byte   W60
@ 023   ----------------------------------------
 .byte   W36
 .byte   N36 ,As4
 .byte   W36
 .byte   N24 ,An4
 .byte   W24
@ 024   ----------------------------------------
 .byte   PATT
  .word Label_1_012BB29A
@ 025   ----------------------------------------
 .byte   W60
 .byte   EOT
 .byte   Cn4
 .byte   W12
 .byte   N06 ,Gn4 ,v108
 .byte   W06
 .byte   An4 ,v096
 .byte   W06
 .byte   As4
 .byte   W06
 .byte   Cn5
 .byte   W06
@ 026   ----------------------------------------
 .byte   W96
@ 027   ----------------------------------------
 .byte   W96
@ 028   ----------------------------------------
 .byte   W96
@ 029   ----------------------------------------
 .byte   W96
@ 030   ----------------------------------------
 .byte   W96
@ 031   ----------------------------------------
 .byte   W96
@ 032   ----------------------------------------
 .byte   W96
@ 033   ----------------------------------------
 .byte   W96
@ 034   ----------------------------------------
 .byte   W96
@ 035   ----------------------------------------
 .byte   W96
@ 036   ----------------------------------------
 .byte   W96
@ 037   ----------------------------------------
 .byte   W96
@ 038   ----------------------------------------
 .byte   W96
@ 039   ----------------------------------------
 .byte   W96
@ 040   ----------------------------------------
 .byte   W96
@ 041   ----------------------------------------
 .byte   W72
 .byte   N04 ,Cn4 ,v080
 .byte   N04 ,En4 ,v092
 .byte   W04
 .byte   Dn4 ,v080
 .byte   N04 ,Fs4 ,v092
 .byte   W04
 .byte   En4 ,v080
 .byte   N04 ,Gn4 ,v092
 .byte   W04
 .byte   Fs4 ,v080
 .byte   N04 ,An4 ,v092
 .byte   W04
 .byte   Gn4 ,v080
 .byte   N04 ,Bn4 ,v092
 .byte   W04
 .byte   An4 ,v080
 .byte   N04 ,Cn5 ,v100
 .byte   W04
@ 042   ----------------------------------------
 .byte   TIE ,Gn4 ,v092
 .byte   TIE ,Dn5
 .byte   W96
@ 043   ----------------------------------------
 .byte   W96
@ 044   ----------------------------------------
 .byte   EOT
 .byte   Gn4 ,v086
 .byte   TIE ,An3
 .byte   N96 ,Fn4
 .byte   W96
@ 045   ----------------------------------------
 .byte   N48
 .byte   W48
 .byte   EOT
 .byte   An3
 .byte   N48 ,An4 ,v080
 .byte   N48 ,Cn5 ,v096
 .byte   W48
@ 046   ----------------------------------------
 .byte   TIE ,Cn5 ,v092
 .byte   TIE ,Gn5 ,v100
 .byte   W96
@ 047   ----------------------------------------
 .byte   W48
 .byte   EOT
 .byte   Cn5 ,v091
 .byte   N48 ,Gn4 ,v080
 .byte   N48 ,Bn4 ,v092
 .byte   W48
@ 048   ----------------------------------------
 .byte   N96 ,Gn4
 .byte   N96 ,Cn5
 .byte   W96
@ 049   ----------------------------------------
 .byte   Cn4
 .byte   N96 ,Gn4
 .byte   W96
@ 050   ----------------------------------------
 .byte   TIE ,Cs4
 .byte   TIE ,Gn4
 .byte   W96
@ 051   ----------------------------------------
 .byte   W96
@ 052   ----------------------------------------
 .byte   EOT
 .byte   Cs4 ,v079
 .byte   TIE ,Dn4
 .byte   TIE ,Fn4
 .byte   W48
 .byte   W01
 .byte   W01
 .byte   W01
 .byte   W01
 .byte   W01
 .byte   W01
 .byte   W01
 .byte   W01
 .byte   W01
 .byte   W01
 .byte   W01
 .byte   W02
 .byte   W01
 .byte   W01
 .byte   W01
 .byte   W02
 .byte   W01
 .byte   W01
 .byte   W01
 .byte   W02
 .byte   W01
 .byte   W01
 .byte   W01
 .byte   W02
 .byte   W01
 .byte   W01
 .byte   W01
 .byte   W02
 .byte   W01
 .byte   W01
 .byte   W02
 .byte   W01
 .byte   W01
 .byte   W01
 .byte   W02
 .byte   W01
 .byte   W01
 .byte   W01
 .byte   W02
 .byte   W01
@ 053   ----------------------------------------
 .byte   W01
 .byte   W01
 .byte   W02
 .byte   W01
 .byte   W01
 .byte   W01
 .byte   W02
 .byte   W01
 .byte   W01
 .byte   W01
 .byte   W02
 .byte   W01
 .byte   W01
 .byte   W01
 .byte   W02
 .byte   W01
 .byte   W01
 .byte   W02
 .byte   W01
 .byte   W01
 .byte   W01
 .byte   W02
 .byte   W01
 .byte   W01
 .byte   W01
 .byte   W02
 .byte   W01
 .byte   W01
 .byte   W01
 .byte   W02
 .byte   W01
 .byte   W01
 .byte   W01
 .byte   W02
 .byte   W01
 .byte   W01
 .byte   W01
 .byte   W02
 .byte   EOT
 .byte   Dn4 ,v077
 .byte   W48
@ 054   ----------------------------------------
 .byte   W96
@ 055   ----------------------------------------
 .byte   W72
 .byte   N04 ,Gn3 ,v112
 .byte   W04
 .byte   An3
 .byte   W04
 .byte   As3
 .byte   W04
 .byte   Cn4
 .byte   W04
 .byte   Dn4
 .byte   W04
 .byte   En4 ,v120
 .byte   W04
@ 056   ----------------------------------------
 .byte   W03
 .byte   GOTO
  .word Label_1_012BB265
 .byte   FINE

@**************** Track 3 (Midi-Chn.2) ****************@

song012D_003:
@ 000   ----------------------------------------
 .byte   KEYSH , song012D_key+0
 .byte   VOICE , 48
 .byte   VOL , 19*song012D_mvl/mxv
 .byte   PAN , c_v-6
 .byte   W96
@ 001   ----------------------------------------
 .byte   W96
@ 002   ----------------------------------------
 .byte   W96
@ 003   ----------------------------------------
 .byte   W96
@ 004   ----------------------------------------
Label_2_012BB3E2:
 .byte   N60 ,Dn4 ,v100
 .byte   W60
 .byte   N12 ,Cn4
 .byte   W12
 .byte   As3
 .byte   W12
 .byte   Cn4
 .byte   W12
 .byte   PEND 
@ 005   ----------------------------------------
Label_2_012BB3EE:
 .byte   N36 ,Dn4 ,v100
 .byte   W36
 .byte   En4
 .byte   W36
 .byte   N24 ,Fn4
 .byte   W24
 .byte   PEND 
@ 006   ----------------------------------------
 .byte   N36 ,Gn3
 .byte   W36
 .byte   Fn4
 .byte   W36
 .byte   N24 ,En4
 .byte   W24
@ 007   ----------------------------------------
Label_2_012BB400:
 .byte   N36 ,Gn4 ,v100
 .byte   W36
 .byte   Fn4
 .byte   W36
 .byte   N24 ,En4
 .byte   W24
 .byte   PEND 
@ 008   ----------------------------------------
 .byte   N36 ,Dn4
 .byte   W36
 .byte   N84 ,As3
 .byte   W60
@ 009   ----------------------------------------
 .byte   W36
 .byte   N36 ,Cn4
 .byte   W36
 .byte   N24 ,Dn4
 .byte   W24
@ 010   ----------------------------------------
Label_2_012BB417:
 .byte   N36 ,En4 ,v100
 .byte   W36
 .byte   TIE ,Gn3
 .byte   W60
 .byte   PEND 
@ 011   ----------------------------------------
 .byte   W60
 .byte   EOT
 .byte   W36
@ 012   ----------------------------------------
 .byte   W96
@ 013   ----------------------------------------
 .byte   W96
@ 014   ----------------------------------------
 .byte   W96
@ 015   ----------------------------------------
 .byte   W96
@ 016   ----------------------------------------
 .byte   W96
@ 017   ----------------------------------------
 .byte   W96
@ 018   ----------------------------------------
 .byte   PATT
  .word Label_2_012BB3E2
@ 019   ----------------------------------------
 .byte   PATT
  .word Label_2_012BB3EE
@ 020   ----------------------------------------
 .byte   PATT
  .word Label_2_012BB400
@ 021   ----------------------------------------
 .byte   PATT
  .word Label_2_012BB400
@ 022   ----------------------------------------
 .byte   N36 ,Dn4 ,v100
 .byte   W36
 .byte   N84 ,Fn4
 .byte   W60
@ 023   ----------------------------------------
 .byte   W36
 .byte   N36 ,Gn4
 .byte   W36
 .byte   N24 ,Fn4
 .byte   W24
@ 024   ----------------------------------------
 .byte   PATT
  .word Label_2_012BB417
@ 025   ----------------------------------------
 .byte   W60
 .byte   EOT
 .byte   Gn3
 .byte   W36
@ 026   ----------------------------------------
 .byte   W96
@ 027   ----------------------------------------
 .byte   W96
@ 028   ----------------------------------------
 .byte   W96
@ 029   ----------------------------------------
 .byte   W96
@ 030   ----------------------------------------
 .byte   VOICE , 52
 .byte   VOL , 21*song012D_mvl/mxv
 .byte   PAN , c_v+16
 .byte   W96
@ 031   ----------------------------------------
 .byte   W96
@ 032   ----------------------------------------
Label_2_012BB45F:
 .byte   TIE ,Dn2 ,v092
 .byte   TIE ,An2
 .byte   W96
 .byte   PEND 
@ 033   ----------------------------------------
 .byte   W96
@ 034   ----------------------------------------
 .byte   EOT
 .byte   Dn2 ,v057
Label_2_012BB46A:
 .byte   TIE ,Cn2 ,v092
 .byte   TIE ,Gn2
 .byte   W96
 .byte   PEND 
@ 035   ----------------------------------------
 .byte   W96
@ 036   ----------------------------------------
 .byte   EOT
 .byte   Cn2 ,v055
@ 037   ----------------------------------------
 .byte   PATT
  .word Label_2_012BB45F
@ 038   ----------------------------------------
 .byte   W42
 .byte   EOT
 .byte   Dn2 ,v057
 .byte   W06
 .byte   N12 ,Dn2 ,v092
 .byte   N12 ,An2
 .byte   W16
 .byte   N09 ,Dn2
 .byte   N09 ,An2
 .byte   W16
 .byte   Dn2
 .byte   N09 ,An2
 .byte   W16
@ 039   ----------------------------------------
 .byte   PATT
  .word Label_2_012BB46A
@ 040   ----------------------------------------
 .byte   W96
@ 041   ----------------------------------------
 .byte   EOT
 .byte   Cn2 ,v055
 .byte   TIE ,An3 ,v092
 .byte   TIE ,Dn4
 .byte   W96
@ 042   ----------------------------------------
 .byte   W90
 .byte   EOT
 .byte   An3 ,v074
 .byte   W06
@ 043   ----------------------------------------
 .byte   N96 ,Bn3 ,v080
 .byte   TIE ,Dn4
 .byte   W01
 .byte   W01
 .byte   W01
 .byte   W01
 .byte   W01
 .byte   W01
 .byte   W01
 .byte   W01
 .byte   W01
 .byte   W01
 .byte   W01
 .byte   W01
 .byte   W01
 .byte   W01
 .byte   W01
 .byte   W01
 .byte   W01
 .byte   W01
 .byte   W01
 .byte   W01
 .byte   W01
 .byte   W01
 .byte   W01
 .byte   W01
 .byte   W01
 .byte   W01
 .byte   W01
 .byte   W01
 .byte   W01
 .byte   W01
 .byte   W01
 .byte   W01
 .byte   W01
 .byte   W01
 .byte   W01
 .byte   W01
 .byte   W01
 .byte   W01
 .byte   W01
 .byte   W01
 .byte   W01
 .byte   W01
 .byte   W01
 .byte   W01
 .byte   W01
 .byte   W01
 .byte   W01
 .byte   W01
 .byte   W48
@ 044   ----------------------------------------
 .byte   N96 ,Bn3
 .byte   W96
@ 045   ----------------------------------------
 .byte   Gn3
 .byte   W96
@ 046   ----------------------------------------
 .byte   An3
 .byte   W96
@ 047   ----------------------------------------
 .byte   EOT
 .byte   Dn4
 .byte   TIE ,Gn3
 .byte   TIE ,Cn4
 .byte   W96
@ 048   ----------------------------------------
 .byte   W48
 .byte   EOT
 .byte   Gn3
 .byte   N24 ,En3
 .byte   W24
 .byte   N24
 .byte   W24
@ 049   ----------------------------------------
 .byte   N96 ,Gn3
 .byte   W96
@ 050   ----------------------------------------
 .byte   An3
 .byte   W96
@ 051   ----------------------------------------
 .byte   EOT
 .byte   Cn4
 .byte   N48 ,As3
 .byte   TIE ,Cs4
 .byte   W48
 .byte   N96 ,An3
 .byte   W48
@ 052   ----------------------------------------
 .byte   W48
 .byte   N48
 .byte   W48
@ 053   ----------------------------------------
 .byte   EOT
 .byte   Cs4
 .byte   TIE ,An3
 .byte   TIE ,Dn4 ,v092
 .byte   W96
@ 054   ----------------------------------------
 .byte   W01
 .byte   W01
 .byte   W01
 .byte   W01
 .byte   W01
 .byte   W01
 .byte   W01
 .byte   W01
 .byte   W01
 .byte   W01
 .byte   W01
 .byte   W01
 .byte   W01
 .byte   W01
 .byte   W01
 .byte   W01
 .byte   W01
 .byte   W01
 .byte   W01
 .byte   W01
 .byte   W01
 .byte   W01
 .byte   W01
 .byte   W01
 .byte   W01
 .byte   W01
 .byte   W01
 .byte   W01
 .byte   W01
 .byte   W01
 .byte   W01
 .byte   W01
 .byte   W01
 .byte   W01
 .byte   W01
 .byte   W01
 .byte   W01
 .byte   W01
 .byte   W01
 .byte   W01
 .byte   W01
 .byte   W01
 .byte   W01
 .byte   W01
 .byte   W01
 .byte   W01
 .byte   W01
 .byte   W01
 .byte   W01
 .byte   W01
 .byte   W01
 .byte   W01
 .byte   W01
 .byte   W01
 .byte   W01
 .byte   W01
 .byte   W01
 .byte   W01
 .byte   W01
 .byte   W01
 .byte   W01
 .byte   W01
 .byte   W01
 .byte   W01
 .byte   W01
 .byte   W01
 .byte   W01
 .byte   W01
 .byte   W01
 .byte   W01
 .byte   W01
 .byte   W01
 .byte   W01
 .byte   W01
 .byte   W01
 .byte   W01
 .byte   W01
 .byte   W01
 .byte   W01
 .byte   W01
 .byte   W01
 .byte   W01
 .byte   W01
 .byte   W01
 .byte   W01
 .byte   W01
 .byte   W01
 .byte   W01
 .byte   W01
 .byte   W01
 .byte   EOT
 .byte   An3 ,v074
 .byte   W01
 .byte   W01
 .byte   W01
 .byte   W01
 .byte   W01
 .byte   W01
@ 055   ----------------------------------------
 .byte   W96
@ 056   ----------------------------------------
 .byte   VOICE , 48
 .byte   VOL , 21*song012D_mvl/mxv
 .byte   PAN , c_v-6
 .byte   W96
@ 057   ----------------------------------------
 .byte   W03
 .byte   GOTO
  .word Label_2_012BB3E2
 .byte   FINE

@**************** Track 4 (Midi-Chn.3) ****************@

song012D_004:
@ 000   ----------------------------------------
 .byte   KEYSH , song012D_key+0
 .byte   VOICE , 48
 .byte   VOL , 18*song012D_mvl/mxv
 .byte   PAN , c_v-14
 .byte   W96
@ 001   ----------------------------------------
 .byte   W96
@ 002   ----------------------------------------
 .byte   W96
@ 003   ----------------------------------------
 .byte   W96
@ 004   ----------------------------------------
Label_3_012BB586:
 .byte   W96
@ 005   ----------------------------------------
 .byte   W96
@ 006   ----------------------------------------
 .byte   W96
@ 007   ----------------------------------------
 .byte   W96
@ 008   ----------------------------------------
 .byte   W96
@ 009   ----------------------------------------
 .byte   W96
@ 010   ----------------------------------------
 .byte   W96
@ 011   ----------------------------------------
 .byte   W96
@ 012   ----------------------------------------
Label_3_012BB58E:
 .byte   N12 ,Dn5 ,v116
 .byte   W12
 .byte   An4 ,v096
 .byte   W12
 .byte   En4
 .byte   W12
 .byte   Cn5 ,v116
 .byte   W12
 .byte   Gn4 ,v096
 .byte   W12
 .byte   Dn4
 .byte   W12
 .byte   En4 ,v116
 .byte   W12
 .byte   An4 ,v096
 .byte   W12
 .byte   PEND 
@ 013   ----------------------------------------
 .byte   PATT
  .word Label_3_012BB58E
@ 014   ----------------------------------------
Label_3_012BB5AB:
 .byte   N12 ,Dn5 ,v116
 .byte   W12
 .byte   An4 ,v096
 .byte   W12
 .byte   En4
 .byte   W12
 .byte   Cn5 ,v116
 .byte   W12
 .byte   Gn4 ,v096
 .byte   W12
 .byte   Dn4
 .byte   W12
 .byte   Fn4 ,v116
 .byte   W12
 .byte   An4 ,v096
 .byte   W12
 .byte   PEND 
@ 015   ----------------------------------------
 .byte   PATT
  .word Label_3_012BB5AB
@ 016   ----------------------------------------
 .byte   PATT
  .word Label_3_012BB5AB
@ 017   ----------------------------------------
 .byte   PATT
  .word Label_3_012BB5AB
@ 018   ----------------------------------------
 .byte   W96
@ 019   ----------------------------------------
 .byte   W96
@ 020   ----------------------------------------
 .byte   W96
@ 021   ----------------------------------------
 .byte   W96
@ 022   ----------------------------------------
 .byte   W96
@ 023   ----------------------------------------
 .byte   W96
@ 024   ----------------------------------------
 .byte   W96
@ 025   ----------------------------------------
 .byte   W96
@ 026   ----------------------------------------
 .byte   PATT
  .word Label_3_012BB58E
@ 027   ----------------------------------------
 .byte   PATT
  .word Label_3_012BB58E
@ 028   ----------------------------------------
 .byte   PATT
  .word Label_3_012BB5AB
@ 029   ----------------------------------------
 .byte   PATT
  .word Label_3_012BB5AB
@ 030   ----------------------------------------
 .byte   PATT
  .word Label_3_012BB5AB
@ 031   ----------------------------------------
 .byte   PATT
  .word Label_3_012BB5AB
@ 032   ----------------------------------------
Label_3_012BB5F8:
 .byte   N04 ,An3 ,v127
 .byte   N04 ,Dn4
 .byte   W12
 .byte   An3 ,v112
 .byte   N04 ,Dn4
 .byte   W12
 .byte   An3 ,v108
 .byte   N04 ,Dn4
 .byte   W12
 .byte   An3 ,v127
 .byte   N04 ,Dn4
 .byte   W24
 .byte   An3 ,v108
 .byte   N04 ,Dn4
 .byte   W12
 .byte   An3 ,v127
 .byte   N04 ,Dn4
 .byte   W12
 .byte   An3 ,v108
 .byte   N04 ,Dn4
 .byte   W12
 .byte   PEND 
@ 033   ----------------------------------------
 .byte   An3
 .byte   N04 ,Dn4
 .byte   W12
 .byte   An3 ,v127
 .byte   N04 ,Dn4
 .byte   W24
 .byte   An3 ,v108
 .byte   N04 ,Dn4
 .byte   W12
 .byte   An3 ,v127
 .byte   N04 ,Dn4
 .byte   W12
 .byte   An3 ,v108
 .byte   N04 ,Dn4
 .byte   W12
 .byte   An3 ,v120
 .byte   N04 ,Dn4
 .byte   W12
 .byte   An3 ,v108
 .byte   N04 ,Dn4
 .byte   W12
@ 034   ----------------------------------------
Label_3_012BB63F:
 .byte   N04 ,Gn3 ,v127
 .byte   N04 ,Cn4
 .byte   W12
 .byte   Gn3 ,v112
 .byte   N04 ,Cn4
 .byte   W12
 .byte   Gn3 ,v108
 .byte   N04 ,Cn4
 .byte   W12
 .byte   Gn3 ,v127
 .byte   N04 ,Cn4
 .byte   W24
 .byte   Gn3 ,v108
 .byte   N04 ,Cn4
 .byte   W12
 .byte   Gn3 ,v127
 .byte   N04 ,Cn4
 .byte   W12
 .byte   Gn3 ,v108
 .byte   N04 ,Cn4
 .byte   W12
 .byte   PEND 
@ 035   ----------------------------------------
 .byte   Gn3
 .byte   N04 ,Cn4
 .byte   W12
 .byte   Gn3 ,v127
 .byte   N04 ,Cn4
 .byte   W24
 .byte   Gn3 ,v108
 .byte   N04 ,Cn4
 .byte   W12
 .byte   Gn3 ,v124
 .byte   N04 ,Cn4 ,v127
 .byte   W12
 .byte   Gn3 ,v108
 .byte   N04 ,Cn4
 .byte   W12
 .byte   Gn3 ,v120
 .byte   N04 ,Cn4
 .byte   W12
 .byte   Gn3 ,v108
 .byte   N04 ,Cn4
 .byte   W12
@ 036   ----------------------------------------
 .byte   PATT
  .word Label_3_012BB5F8
@ 037   ----------------------------------------
 .byte   N04 ,An3 ,v108
 .byte   N04 ,Dn4
 .byte   W12
 .byte   An3 ,v127
 .byte   N04 ,Dn4
 .byte   W24
 .byte   An3 ,v108
 .byte   N04 ,Dn4
 .byte   W12
 .byte   An3 ,v127
 .byte   N04 ,Dn4
 .byte   W16
 .byte   An3
 .byte   N04 ,Dn4
 .byte   W16
 .byte   An3
 .byte   N04 ,Dn4
 .byte   W16
@ 038   ----------------------------------------
 .byte   PATT
  .word Label_3_012BB63F
@ 039   ----------------------------------------
 .byte   N04 ,An3 ,v108
 .byte   N04 ,Cn4
 .byte   W12
 .byte   An3 ,v127
 .byte   N04 ,Cn4
 .byte   W24
 .byte   An3 ,v108
 .byte   N04 ,Cn4
 .byte   W12
 .byte   An3 ,v124
 .byte   N04 ,Cn4 ,v127
 .byte   W12
 .byte   An3 ,v108
 .byte   N04 ,Cn4
 .byte   W12
 .byte   An3 ,v120
 .byte   N04 ,Cn4
 .byte   W12
 .byte   An3 ,v108
 .byte   N04 ,Cn4
 .byte   W12
@ 040   ----------------------------------------
 .byte   PATT
  .word Label_3_012BB5F8
@ 041   ----------------------------------------
 .byte   N04 ,An3 ,v108
 .byte   N04 ,Dn4
 .byte   W12
 .byte   An3 ,v127
 .byte   N04 ,Dn4
 .byte   W24
 .byte   An3 ,v108
 .byte   N04 ,Dn4
 .byte   W12
 .byte   An3 ,v127
 .byte   N04 ,Dn4
 .byte   W48
@ 042   ----------------------------------------
 .byte   W96
@ 043   ----------------------------------------
 .byte   W96
@ 044   ----------------------------------------
 .byte   W96
@ 045   ----------------------------------------
 .byte   W96
@ 046   ----------------------------------------
 .byte   W96
@ 047   ----------------------------------------
 .byte   W96
@ 048   ----------------------------------------
 .byte   W96
@ 049   ----------------------------------------
 .byte   W96
@ 050   ----------------------------------------
 .byte   W96
@ 051   ----------------------------------------
 .byte   W96
@ 052   ----------------------------------------
 .byte   W96
@ 053   ----------------------------------------
 .byte   W96
@ 054   ----------------------------------------
 .byte   W96
@ 055   ----------------------------------------
 .byte   W96
@ 056   ----------------------------------------
 .byte   W03
 .byte   GOTO
  .word Label_3_012BB586
 .byte   FINE

@**************** Track 5 (Midi-Chn.4) ****************@

song012D_005:
@ 000   ----------------------------------------
 .byte   KEYSH , song012D_key+0
 .byte   VOICE , 48
 .byte   VOL , 18*song012D_mvl/mxv
 .byte   PAN , c_v-6
 .byte   W96
@ 001   ----------------------------------------
 .byte   W96
@ 002   ----------------------------------------
 .byte   W96
@ 003   ----------------------------------------
 .byte   W96
@ 004   ----------------------------------------
Label_4_012BB70E:
 .byte   W96
@ 005   ----------------------------------------
 .byte   W96
@ 006   ----------------------------------------
 .byte   W96
@ 007   ----------------------------------------
 .byte   W96
@ 008   ----------------------------------------
 .byte   W96
@ 009   ----------------------------------------
 .byte   W96
@ 010   ----------------------------------------
 .byte   W96
@ 011   ----------------------------------------
 .byte   W96
@ 012   ----------------------------------------
Label_4_012BB716:
 .byte   N12 ,Gn4 ,v116
 .byte   W12
 .byte   Dn4 ,v096
 .byte   W12
 .byte   An3
 .byte   W12
 .byte   Gn4 ,v116
 .byte   W12
 .byte   Dn4 ,v096
 .byte   W12
 .byte   An3
 .byte   W12
 .byte   Cn4 ,v108
 .byte   W12
 .byte   En4 ,v096
 .byte   W12
 .byte   PEND 
@ 013   ----------------------------------------
 .byte   PATT
  .word Label_4_012BB716
@ 014   ----------------------------------------
Label_4_012BB733:
 .byte   N12 ,Gn4 ,v116
 .byte   W12
 .byte   Dn4 ,v096
 .byte   W12
 .byte   An3
 .byte   W12
 .byte   Gn4 ,v116
 .byte   W12
 .byte   Dn4 ,v096
 .byte   W12
 .byte   An3
 .byte   W12
 .byte   Dn4 ,v108
 .byte   W12
 .byte   Fn4 ,v096
 .byte   W12
 .byte   PEND 
@ 015   ----------------------------------------
 .byte   PATT
  .word Label_4_012BB733
@ 016   ----------------------------------------
 .byte   PATT
  .word Label_4_012BB733
@ 017   ----------------------------------------
 .byte   PATT
  .word Label_4_012BB733
@ 018   ----------------------------------------
 .byte   W96
@ 019   ----------------------------------------
 .byte   W96
@ 020   ----------------------------------------
 .byte   W96
@ 021   ----------------------------------------
 .byte   W96
@ 022   ----------------------------------------
 .byte   W96
@ 023   ----------------------------------------
 .byte   W96
@ 024   ----------------------------------------
 .byte   W96
@ 025   ----------------------------------------
 .byte   W96
@ 026   ----------------------------------------
 .byte   PATT
  .word Label_4_012BB716
@ 027   ----------------------------------------
 .byte   PATT
  .word Label_4_012BB716
@ 028   ----------------------------------------
 .byte   PATT
  .word Label_4_012BB733
@ 029   ----------------------------------------
 .byte   PATT
  .word Label_4_012BB733
@ 030   ----------------------------------------
 .byte   PATT
  .word Label_4_012BB733
@ 031   ----------------------------------------
 .byte   PATT
  .word Label_4_012BB733
@ 032   ----------------------------------------
Label_4_012BB780:
 .byte   N04 ,An2 ,v127
 .byte   W12
 .byte   N04
 .byte   W12
 .byte   N04
 .byte   W12
 .byte   N04
 .byte   W24
 .byte   N04
 .byte   W12
 .byte   N04
 .byte   W12
 .byte   N04
 .byte   W12
 .byte   PEND 
@ 033   ----------------------------------------
Label_4_012BB791:
 .byte   N04 ,An2 ,v127
 .byte   W12
 .byte   N04
 .byte   W24
 .byte   N04
 .byte   W12
 .byte   N04
 .byte   W12
 .byte   N04
 .byte   W12
 .byte   N04
 .byte   W12
 .byte   N04
 .byte   W12
 .byte   PEND 
@ 034   ----------------------------------------
Label_4_012BB7A2:
 .byte   N04 ,Gn2 ,v127
 .byte   W12
 .byte   N04
 .byte   W12
 .byte   N04
 .byte   W12
 .byte   N04
 .byte   W24
 .byte   N04
 .byte   W12
 .byte   N04
 .byte   W12
 .byte   N04
 .byte   W12
 .byte   PEND 
@ 035   ----------------------------------------
 .byte   N04
 .byte   W12
 .byte   N04
 .byte   W24
 .byte   N04
 .byte   W12
 .byte   N04
 .byte   W12
 .byte   N04
 .byte   W12
 .byte   N04
 .byte   W12
 .byte   N04
 .byte   W12
@ 036   ----------------------------------------
 .byte   PATT
  .word Label_4_012BB780
@ 037   ----------------------------------------
 .byte   N04 ,An2 ,v127
 .byte   W12
 .byte   N04
 .byte   W24
 .byte   N04
 .byte   W12
 .byte   N04
 .byte   W16
 .byte   N04
 .byte   W16
 .byte   N04
 .byte   W16
@ 038   ----------------------------------------
 .byte   PATT
  .word Label_4_012BB7A2
@ 039   ----------------------------------------
 .byte   PATT
  .word Label_4_012BB791
@ 040   ----------------------------------------
 .byte   PATT
  .word Label_4_012BB780
@ 041   ----------------------------------------
 .byte   N04 ,An2 ,v127
 .byte   W12
 .byte   N04
 .byte   W24
 .byte   N04
 .byte   W12
 .byte   N04
 .byte   W48
@ 042   ----------------------------------------
 .byte   W96
@ 043   ----------------------------------------
 .byte   W96
@ 044   ----------------------------------------
 .byte   W96
@ 045   ----------------------------------------
 .byte   W96
@ 046   ----------------------------------------
 .byte   W96
@ 047   ----------------------------------------
 .byte   W96
@ 048   ----------------------------------------
 .byte   W96
@ 049   ----------------------------------------
 .byte   W96
@ 050   ----------------------------------------
 .byte   W96
@ 051   ----------------------------------------
 .byte   W96
@ 052   ----------------------------------------
 .byte   W96
@ 053   ----------------------------------------
 .byte   W96
@ 054   ----------------------------------------
 .byte   W96
@ 055   ----------------------------------------
 .byte   W96
@ 056   ----------------------------------------
 .byte   W03
 .byte   GOTO
  .word Label_4_012BB70E
 .byte   FINE

@**************** Track 6 (Midi-Chn.5) ****************@

song012D_006:
@ 000   ----------------------------------------
 .byte   KEYSH , song012D_key+0
 .byte   VOICE , 73
 .byte   VOL , 24*song012D_mvl/mxv
 .byte   PAN , c_v-1
 .byte   W96
@ 001   ----------------------------------------
 .byte   W96
@ 002   ----------------------------------------
 .byte   W96
@ 003   ----------------------------------------
 .byte   W96
@ 004   ----------------------------------------
Label_5_012BB80E:
 .byte   W96
@ 005   ----------------------------------------
 .byte   W96
@ 006   ----------------------------------------
 .byte   W96
@ 007   ----------------------------------------
 .byte   W96
@ 008   ----------------------------------------
 .byte   W96
@ 009   ----------------------------------------
 .byte   W96
@ 010   ----------------------------------------
 .byte   W96
@ 011   ----------------------------------------
 .byte   W96
@ 012   ----------------------------------------
 .byte   W96
@ 013   ----------------------------------------
 .byte   W96
@ 014   ----------------------------------------
Label_5_012BB818:
 .byte   N36 ,An4 ,v112
 .byte   W36
 .byte   Dn5
 .byte   W36
 .byte   N24 ,Cn5
 .byte   W24
 .byte   PEND 
@ 015   ----------------------------------------
Label_5_012BB822:
 .byte   N36 ,Bn4 ,v112
 .byte   W36
 .byte   Cn5
 .byte   W36
 .byte   N21 ,Bn4
 .byte   W24
 .byte   PEND 
@ 016   ----------------------------------------
Label_5_012BB82C:
 .byte   N12 ,Bn4 ,v112
 .byte   W12
 .byte   Cn5
 .byte   W12
 .byte   TIE ,An4
 .byte   W72
 .byte   PEND 
@ 017   ----------------------------------------
 .byte   W78
 .byte   EOT
 .byte   W18
@ 018   ----------------------------------------
 .byte   W96
@ 019   ----------------------------------------
 .byte   W96
@ 020   ----------------------------------------
 .byte   W96
@ 021   ----------------------------------------
 .byte   W96
@ 022   ----------------------------------------
 .byte   W96
@ 023   ----------------------------------------
 .byte   W96
@ 024   ----------------------------------------
 .byte   W96
@ 025   ----------------------------------------
 .byte   W96
@ 026   ----------------------------------------
 .byte   W96
@ 027   ----------------------------------------
 .byte   W96
@ 028   ----------------------------------------
 .byte   PATT
  .word Label_5_012BB818
@ 029   ----------------------------------------
 .byte   PATT
  .word Label_5_012BB822
@ 030   ----------------------------------------
 .byte   PATT
  .word Label_5_012BB82C
@ 031   ----------------------------------------
 .byte   W78
 .byte   EOT
 .byte   An4
 .byte   W18
@ 032   ----------------------------------------
 .byte   W96
@ 033   ----------------------------------------
 .byte   W96
@ 034   ----------------------------------------
 .byte   W96
@ 035   ----------------------------------------
 .byte   W96
@ 036   ----------------------------------------
 .byte   W96
@ 037   ----------------------------------------
 .byte   W96
@ 038   ----------------------------------------
 .byte   W96
@ 039   ----------------------------------------
 .byte   W96
@ 040   ----------------------------------------
 .byte   W96
@ 041   ----------------------------------------
 .byte   W96
@ 042   ----------------------------------------
 .byte   W96
@ 043   ----------------------------------------
 .byte   W96
@ 044   ----------------------------------------
 .byte   W96
@ 045   ----------------------------------------
 .byte   W96
@ 046   ----------------------------------------
 .byte   W96
@ 047   ----------------------------------------
 .byte   W96
@ 048   ----------------------------------------
 .byte   W96
@ 049   ----------------------------------------
 .byte   W72
 .byte   N04 ,An4 ,v120
 .byte   W04
 .byte   Bn4
 .byte   W04
 .byte   Cn5
 .byte   W04
 .byte   Dn5
 .byte   W04
 .byte   En5
 .byte   W04
 .byte   Fn5
 .byte   W04
@ 050   ----------------------------------------
 .byte   N48 ,Gn5
 .byte   W48
 .byte   En5
 .byte   W48
@ 051   ----------------------------------------
 .byte   Cs5
 .byte   W48
 .byte   An4
 .byte   W48
@ 052   ----------------------------------------
 .byte   W96
@ 053   ----------------------------------------
 .byte   W96
@ 054   ----------------------------------------
 .byte   W96
@ 055   ----------------------------------------
 .byte   W96
@ 056   ----------------------------------------
 .byte   W03
 .byte   GOTO
  .word Label_5_012BB80E
 .byte   FINE

@**************** Track 7 (Midi-Chn.6) ****************@

song012D_007:
@ 000   ----------------------------------------
 .byte   KEYSH , song012D_key+0
 .byte   VOICE , 68
 .byte   VOL , 21*song012D_mvl/mxv
 .byte   PAN , c_v+0
 .byte   W96
@ 001   ----------------------------------------
 .byte   W96
@ 002   ----------------------------------------
 .byte   W96
@ 003   ----------------------------------------
 .byte   W96
@ 004   ----------------------------------------
Label_6_012BB896:
 .byte   W96
@ 005   ----------------------------------------
 .byte   W96
@ 006   ----------------------------------------
 .byte   W96
@ 007   ----------------------------------------
 .byte   W96
@ 008   ----------------------------------------
 .byte   W96
@ 009   ----------------------------------------
 .byte   W96
@ 010   ----------------------------------------
 .byte   W96
@ 011   ----------------------------------------
Label_6_012BB89D:
 .byte   N36 ,Gn4 ,v120
 .byte   W36
 .byte   N54 ,Cn4 ,v112
 .byte   W60
 .byte   PEND 
@ 012   ----------------------------------------
Label_6_012BB8A6:
 .byte   N36 ,Dn4 ,v112
 .byte   W36
 .byte   En4
 .byte   W36
 .byte   N24 ,Fn4
 .byte   W24
 .byte   PEND 
@ 013   ----------------------------------------
 .byte   N96 ,Gn4
 .byte   W96
@ 014   ----------------------------------------
 .byte   TIE ,Dn4
 .byte   W96
@ 015   ----------------------------------------
 .byte   W96
@ 016   ----------------------------------------
 .byte   EOT
 .byte   W96
@ 017   ----------------------------------------
 .byte   W96
@ 018   ----------------------------------------
 .byte   W96
@ 019   ----------------------------------------
 .byte   W96
@ 020   ----------------------------------------
 .byte   W96
@ 021   ----------------------------------------
 .byte   W96
@ 022   ----------------------------------------
 .byte   W96
@ 023   ----------------------------------------
 .byte   W96
@ 024   ----------------------------------------
 .byte   W96
@ 025   ----------------------------------------
 .byte   PATT
  .word Label_6_012BB89D
@ 026   ----------------------------------------
 .byte   PATT
  .word Label_6_012BB8A6
@ 027   ----------------------------------------
 .byte   N96 ,Gn4 ,v112
 .byte   W96
@ 028   ----------------------------------------
 .byte   TIE ,Dn4
 .byte   W96
@ 029   ----------------------------------------
 .byte   W96
@ 030   ----------------------------------------
 .byte   EOT
 .byte   W96
@ 031   ----------------------------------------
 .byte   W96
@ 032   ----------------------------------------
 .byte   W96
@ 033   ----------------------------------------
 .byte   W96
@ 034   ----------------------------------------
 .byte   W96
@ 035   ----------------------------------------
 .byte   W96
@ 036   ----------------------------------------
 .byte   W96
@ 037   ----------------------------------------
 .byte   W96
@ 038   ----------------------------------------
 .byte   W96
@ 039   ----------------------------------------
 .byte   W96
@ 040   ----------------------------------------
 .byte   W96
@ 041   ----------------------------------------
 .byte   W96
@ 042   ----------------------------------------
 .byte   W96
@ 043   ----------------------------------------
 .byte   W96
@ 044   ----------------------------------------
 .byte   W96
@ 045   ----------------------------------------
 .byte   W96
@ 046   ----------------------------------------
 .byte   W96
@ 047   ----------------------------------------
 .byte   W72
 .byte   N04 ,An3
 .byte   W04
 .byte   Bn3
 .byte   W04
 .byte   Cn4
 .byte   W04
 .byte   Dn4
 .byte   W04
 .byte   En4
 .byte   W04
 .byte   Fn4
 .byte   W04
@ 048   ----------------------------------------
 .byte   N48 ,Cn4 ,v120
 .byte   N48 ,Gn4
 .byte   W48
 .byte   Gn3
 .byte   N48 ,Dn4
 .byte   W48
@ 049   ----------------------------------------
 .byte   Gn3
 .byte   N48 ,Cn4
 .byte   W48
 .byte   Cn3
 .byte   N48 ,Gn3
 .byte   W48
@ 050   ----------------------------------------
 .byte   Cs4 ,v112
 .byte   N48 ,Gn4
 .byte   W48
 .byte   An3
 .byte   N48 ,En4
 .byte   W48
@ 051   ----------------------------------------
 .byte   An3
 .byte   N48 ,Cs4
 .byte   W48
 .byte   En3
 .byte   N48 ,An3
 .byte   W48
@ 052   ----------------------------------------
 .byte   W96
@ 053   ----------------------------------------
 .byte   W96
@ 054   ----------------------------------------
 .byte   W96
@ 055   ----------------------------------------
 .byte   W96
@ 056   ----------------------------------------
 .byte   W03
 .byte   GOTO
  .word Label_6_012BB896
 .byte   FINE

@**************** Track 8 (Midi-Chn.7) ****************@

song012D_008:
@ 000   ----------------------------------------
 .byte   KEYSH , song012D_key+0
 .byte   VOICE , 57
 .byte   VOL , 21*song012D_mvl/mxv
 .byte   PAN , c_v+0
 .byte   W96
@ 001   ----------------------------------------
 .byte   W96
@ 002   ----------------------------------------
 .byte   W96
@ 003   ----------------------------------------
 .byte   W96
@ 004   ----------------------------------------
Label_7_012BB92D:
 .byte   N60 ,Fn2 ,v112
 .byte   W60
 .byte   N12 ,En2
 .byte   W12
 .byte   Dn2
 .byte   W12
 .byte   En2
 .byte   W12
 .byte   PEND 
@ 005   ----------------------------------------
Label_7_012BB939:
 .byte   N36 ,Fn2 ,v112
 .byte   W36
 .byte   Gn2
 .byte   W36
 .byte   N24 ,An2
 .byte   W24
 .byte   PEND 
@ 006   ----------------------------------------
 .byte   N36 ,Dn2
 .byte   W36
 .byte   An2
 .byte   W36
 .byte   N24 ,Gn2
 .byte   W24
@ 007   ----------------------------------------
Label_7_012BB94B:
 .byte   N36 ,As2 ,v112
 .byte   W36
 .byte   An2
 .byte   W36
 .byte   N24 ,Gn2
 .byte   W24
 .byte   PEND 
@ 008   ----------------------------------------
Label_7_012BB955:
 .byte   N36 ,Fn2 ,v112
 .byte   W48
 .byte   N48 ,Dn2
 .byte   W48
 .byte   PEND 
@ 009   ----------------------------------------
Label_7_012BB95D:
 .byte   N48 ,An2 ,v112
 .byte   W48
 .byte   Dn3
 .byte   W48
 .byte   PEND 
@ 010   ----------------------------------------
 .byte   N96 ,En3
 .byte   W96
@ 011   ----------------------------------------
Label_7_012BB967:
 .byte   N48 ,Fn3 ,v092
 .byte   W48
 .byte   En3
 .byte   W48
 .byte   PEND 
@ 012   ----------------------------------------
 .byte   TIE ,Dn3 ,v080
 .byte   W96
@ 013   ----------------------------------------
 .byte   W72
 .byte   EOT
 .byte   W24
@ 014   ----------------------------------------
Label_7_012BB975:
 .byte   N36 ,An1 ,v112
 .byte   W36
 .byte   Dn2
 .byte   W36
 .byte   N24 ,Cn2
 .byte   W24
 .byte   PEND 
@ 015   ----------------------------------------
Label_7_012BB97F:
 .byte   N36 ,Bn1 ,v112
 .byte   W36
 .byte   Cn2
 .byte   W36
 .byte   N21 ,Bn1
 .byte   W24
 .byte   PEND 
@ 016   ----------------------------------------
Label_7_012BB989:
 .byte   N12 ,Bn1 ,v112
 .byte   W12
 .byte   Cn2
 .byte   W12
 .byte   TIE ,An1
 .byte   W72
 .byte   PEND 
@ 017   ----------------------------------------
 .byte   W78
 .byte   EOT
 .byte   W18
@ 018   ----------------------------------------
 .byte   PATT
  .word Label_7_012BB92D
@ 019   ----------------------------------------
 .byte   PATT
  .word Label_7_012BB939
@ 020   ----------------------------------------
 .byte   PATT
  .word Label_7_012BB94B
@ 021   ----------------------------------------
 .byte   N36 ,Cn3 ,v112
 .byte   W36
 .byte   An2
 .byte   W36
 .byte   N24 ,Gn2
 .byte   W24
@ 022   ----------------------------------------
 .byte   PATT
  .word Label_7_012BB955
@ 023   ----------------------------------------
 .byte   PATT
  .word Label_7_012BB95D
@ 024   ----------------------------------------
 .byte   N96 ,En3 ,v112
 .byte   W96
@ 025   ----------------------------------------
 .byte   PATT
  .word Label_7_012BB967
@ 026   ----------------------------------------
 .byte   TIE ,Dn3 ,v080
 .byte   W96
@ 027   ----------------------------------------
 .byte   W72
 .byte   EOT
 .byte   W24
@ 028   ----------------------------------------
 .byte   PATT
  .word Label_7_012BB975
@ 029   ----------------------------------------
 .byte   PATT
  .word Label_7_012BB97F
@ 030   ----------------------------------------
 .byte   PATT
  .word Label_7_012BB989
@ 031   ----------------------------------------
 .byte   W78
 .byte   EOT
 .byte   An1
 .byte   W18
@ 032   ----------------------------------------
 .byte   W96
@ 033   ----------------------------------------
 .byte   W96
@ 034   ----------------------------------------
 .byte   W96
@ 035   ----------------------------------------
 .byte   W96
@ 036   ----------------------------------------
 .byte   W96
@ 037   ----------------------------------------
 .byte   W96
@ 038   ----------------------------------------
 .byte   W96
@ 039   ----------------------------------------
 .byte   W96
@ 040   ----------------------------------------
 .byte   W96
@ 041   ----------------------------------------
 .byte   W96
@ 042   ----------------------------------------
 .byte   W48
 .byte   N48 ,Gn2 ,v112
 .byte   W48
@ 043   ----------------------------------------
Label_7_012BB9EA:
 .byte   N48 ,Dn3 ,v112
 .byte   W48
 .byte   Cn3
 .byte   W48
 .byte   PEND 
@ 044   ----------------------------------------
 .byte   Bn2
 .byte   W48
 .byte   N24 ,An2
 .byte   W24
 .byte   Bn2
 .byte   W24
@ 045   ----------------------------------------
 .byte   N48 ,Cn3
 .byte   W48
 .byte   Fn2
 .byte   W48
@ 046   ----------------------------------------
 .byte   N36 ,Gn2
 .byte   W48
 .byte   N48
 .byte   W48
@ 047   ----------------------------------------
 .byte   PATT
  .word Label_7_012BB9EA
@ 048   ----------------------------------------
 .byte   N48 ,Gn3 ,v112
 .byte   W48
 .byte   Dn3
 .byte   W48
@ 049   ----------------------------------------
 .byte   Cn3
 .byte   W48
 .byte   Gn2
 .byte   W48
@ 050   ----------------------------------------
 .byte   Gn3
 .byte   W48
 .byte   En3
 .byte   W48
@ 051   ----------------------------------------
 .byte   Cs3
 .byte   W48
 .byte   An2
 .byte   W48
@ 052   ----------------------------------------
 .byte   W96
@ 053   ----------------------------------------
 .byte   W96
@ 054   ----------------------------------------
 .byte   W96
@ 055   ----------------------------------------
 .byte   W96
@ 056   ----------------------------------------
 .byte   W03
 .byte   GOTO
  .word Label_7_012BB92D
 .byte   FINE

@**************** Track 9 (Midi-Chn.8) ****************@

song012D_009:
@ 000   ----------------------------------------
 .byte   KEYSH , song012D_key+0
 .byte   VOICE , 60
 .byte   VOL , 27*song012D_mvl/mxv
 .byte   PAN , c_v+0
 .byte   N12 ,An1 ,v100
 .byte   N12 ,Dn2 ,v127
 .byte   W12
 .byte   N24 ,Fn2 ,v100
 .byte   N24 ,An2 ,v127
 .byte   W24
 .byte   En2 ,v100
 .byte   N24 ,Gn2 ,v127
 .byte   W24
 .byte   An2 ,v100
 .byte   N24 ,Dn3 ,v127
 .byte   W24
 .byte   N96 ,Fn2 ,v100
 .byte   N96 ,An2 ,v127
 .byte   W12
@ 001   ----------------------------------------
 .byte   W96
@ 002   ----------------------------------------
Label_8_012BBA4E:
 .byte   N12 ,An1 ,v100
 .byte   N12 ,Dn2 ,v127
 .byte   W12
 .byte   N24 ,Fn2 ,v100
 .byte   N24 ,An2 ,v127
 .byte   W24
 .byte   En2 ,v100
 .byte   N24 ,Gn2 ,v127
 .byte   W24
 .byte   An2 ,v100
 .byte   N24 ,Dn3 ,v127
 .byte   W24
 .byte   N96 ,An2 ,v100
 .byte   N96 ,En3 ,v127
 .byte   W12
 .byte   PEND 
@ 003   ----------------------------------------
 .byte   W96
@ 004   ----------------------------------------
Label_8_012BBA71:
 .byte   W96
@ 005   ----------------------------------------
 .byte   W96
@ 006   ----------------------------------------
 .byte   W96
@ 007   ----------------------------------------
 .byte   W96
@ 008   ----------------------------------------
Label_8_012BBA75:
 .byte   W48
 .byte   N48 ,An1 ,v080
 .byte   N48 ,Dn2 ,v127
 .byte   W48
 .byte   PEND 
@ 009   ----------------------------------------
Label_8_012BBA7E:
 .byte   N48 ,Dn2 ,v072
 .byte   N48 ,An2 ,v127
 .byte   W48
 .byte   An2 ,v080
 .byte   N48 ,Dn3 ,v127
 .byte   W48
 .byte   PEND 
@ 010   ----------------------------------------
Label_8_012BBA8C:
 .byte   N96 ,Cn3 ,v080
 .byte   N96 ,En3 ,v127
 .byte   W96
 .byte   PEND 
@ 011   ----------------------------------------
Label_8_012BBA94:
 .byte   N48 ,Dn3 ,v072
 .byte   N48 ,Fn3 ,v127
 .byte   W48
 .byte   Cn3 ,v072
 .byte   N48 ,En3 ,v127
 .byte   W48
 .byte   PEND 
@ 012   ----------------------------------------
Label_8_012BBAA2:
 .byte   TIE ,An2 ,v080
 .byte   TIE ,Dn3 ,v120
 .byte   W96
 .byte   PEND 
@ 013   ----------------------------------------
 .byte   W72
 .byte   EOT
 .byte   An2 ,v062
 .byte   W24
@ 014   ----------------------------------------
Label_8_012BBAAF:
 .byte   N36 ,Fn2 ,v080
 .byte   N36 ,An2 ,v127
 .byte   W36
 .byte   An2 ,v080
 .byte   N36 ,Dn3 ,v127
 .byte   W36
 .byte   N24 ,An2 ,v080
 .byte   N24 ,Cn3 ,v127
 .byte   W24
 .byte   PEND 
@ 015   ----------------------------------------
Label_8_012BBAC4:
 .byte   N36 ,Gn2 ,v080
 .byte   N36 ,Bn2 ,v127
 .byte   W36
 .byte   An2 ,v080
 .byte   N36 ,Cn3 ,v127
 .byte   W36
 .byte   N21 ,Gn2 ,v080
 .byte   N21 ,Bn2 ,v127
 .byte   W24
 .byte   PEND 
@ 016   ----------------------------------------
Label_8_012BBAD9:
 .byte   N12 ,Gn2 ,v080
 .byte   N12 ,Bn2 ,v127
 .byte   W12
 .byte   An2 ,v080
 .byte   N12 ,Cn3 ,v127
 .byte   W12
 .byte   TIE ,Fn2 ,v080
 .byte   TIE ,An2 ,v127
 .byte   W72
 .byte   PEND 
@ 017   ----------------------------------------
 .byte   W78
 .byte   EOT
 .byte   Fn2 ,v057
 .byte   W18
@ 018   ----------------------------------------
 .byte   W96
@ 019   ----------------------------------------
 .byte   W96
@ 020   ----------------------------------------
 .byte   W96
@ 021   ----------------------------------------
 .byte   W96
@ 022   ----------------------------------------
 .byte   PATT
  .word Label_8_012BBA75
@ 023   ----------------------------------------
 .byte   PATT
  .word Label_8_012BBA7E
@ 024   ----------------------------------------
 .byte   PATT
  .word Label_8_012BBA8C
@ 025   ----------------------------------------
 .byte   PATT
  .word Label_8_012BBA94
@ 026   ----------------------------------------
 .byte   PATT
  .word Label_8_012BBAA2
@ 027   ----------------------------------------
 .byte   W72
 .byte   EOT
 .byte   An2 ,v062
 .byte   W24
@ 028   ----------------------------------------
 .byte   PATT
  .word Label_8_012BBAAF
@ 029   ----------------------------------------
 .byte   PATT
  .word Label_8_012BBAC4
@ 030   ----------------------------------------
 .byte   PATT
  .word Label_8_012BBAD9
@ 031   ----------------------------------------
 .byte   W78
 .byte   EOT
 .byte   Fn2 ,v057
 .byte   W18
@ 032   ----------------------------------------
Label_8_012BBB29:
 .byte   TIE ,Dn2 ,v127
 .byte   TIE ,An2
 .byte   W96
 .byte   PEND 
@ 033   ----------------------------------------
 .byte   W96
@ 034   ----------------------------------------
 .byte   EOT
 .byte   Dn2 ,v057
Label_8_012BBB34:
 .byte   TIE ,Cn2 ,v127
 .byte   TIE ,Gn2
 .byte   W96
 .byte   PEND 
@ 035   ----------------------------------------
 .byte   W96
@ 036   ----------------------------------------
 .byte   EOT
 .byte   Cn2 ,v055
@ 037   ----------------------------------------
 .byte   PATT
  .word Label_8_012BBB29
@ 038   ----------------------------------------
 .byte   W42
 .byte   EOT
 .byte   Dn2 ,v057
 .byte   W06
 .byte   N12 ,Dn2 ,v127
 .byte   N12 ,An2
 .byte   W16
 .byte   N09 ,Dn2
 .byte   N09 ,An2
 .byte   W16
 .byte   Dn2
 .byte   N09 ,An2
 .byte   W16
@ 039   ----------------------------------------
 .byte   PATT
  .word Label_8_012BBB34
@ 040   ----------------------------------------
 .byte   W96
@ 041   ----------------------------------------
 .byte   EOT
 .byte   Cn2 ,v055
@ 042   ----------------------------------------
 .byte   PATT
  .word Label_8_012BBB29
@ 043   ----------------------------------------
 .byte   W92
 .byte   W01
 .byte   EOT
 .byte   Dn2 ,v057
 .byte   W03
@ 044   ----------------------------------------
 .byte   W48
 .byte   N48 ,Gn2 ,v127
 .byte   W48
@ 045   ----------------------------------------
Label_8_012BBB71:
 .byte   N48 ,Dn3 ,v127
 .byte   W48
 .byte   Cn3
 .byte   W48
 .byte   PEND 
@ 046   ----------------------------------------
 .byte   Bn2
 .byte   W48
 .byte   N24 ,An2
 .byte   W24
 .byte   Bn2
 .byte   W24
@ 047   ----------------------------------------
 .byte   N48 ,Cn3
 .byte   W48
 .byte   Fn2
 .byte   W48
@ 048   ----------------------------------------
 .byte   N36 ,Gn2
 .byte   W48
 .byte   N48
 .byte   W48
@ 049   ----------------------------------------
 .byte   PATT
  .word Label_8_012BBB71
@ 050   ----------------------------------------
 .byte   N48 ,Gn3 ,v127
 .byte   W48
 .byte   Dn3
 .byte   W48
@ 051   ----------------------------------------
 .byte   Cn3
 .byte   W48
 .byte   Gn2
 .byte   W48
@ 052   ----------------------------------------
 .byte   Gn3
 .byte   W48
 .byte   En3
 .byte   W48
@ 053   ----------------------------------------
 .byte   Cs3
 .byte   W48
 .byte   An2
 .byte   W48
@ 054   ----------------------------------------
 .byte   N12 ,An1 ,v100
 .byte   N12 ,Dn2 ,v127
 .byte   W12
 .byte   N24 ,Fn2 ,v100
 .byte   N24 ,An2 ,v127
 .byte   W24
 .byte   En2 ,v100
 .byte   N24 ,Gn2 ,v127
 .byte   W24
 .byte   An2 ,v100
 .byte   N24 ,Dn3 ,v127
 .byte   W24
 .byte   N96 ,Fn2 ,v100
 .byte   N96 ,An2 ,v127
 .byte   W12
@ 055   ----------------------------------------
 .byte   W96
@ 056   ----------------------------------------
 .byte   PATT
  .word Label_8_012BBA4E
@ 057   ----------------------------------------
 .byte   W96
@ 058   ----------------------------------------
 .byte   W03
 .byte   GOTO
  .word Label_8_012BBA71
 .byte   FINE

@**************** Track 10 (Midi-Chn.9) ****************@

song012D_010:
@ 000   ----------------------------------------
 .byte   KEYSH , song012D_key+0
 .byte   VOICE , 127
 .byte   VOL , 21*song012D_mvl/mxv
 .byte   PAN , c_v+0
 .byte   N96 ,Cs2 ,v080
 .byte   N12 ,An2 ,v112
 .byte   W96
@ 001   ----------------------------------------
 .byte   W60
 .byte   N12
 .byte   W24
 .byte   N12
 .byte   W12
@ 002   ----------------------------------------
 .byte   N96 ,Cs2 ,v084
 .byte   N12 ,An2 ,v112
 .byte   W96
@ 003   ----------------------------------------
 .byte   W60
 .byte   N12
 .byte   W24
 .byte   N12
 .byte   W06
 .byte   N02 ,Dn1 ,v100
 .byte   W02
 .byte   Dn1 ,v096
 .byte   W02
 .byte   N02
 .byte   W02
@ 004   ----------------------------------------
Label_9_012BBBF8:
 .byte   N06 ,Dn1 ,v088
 .byte   N96 ,Cs2 ,v092
 .byte   W06
 .byte   N06 ,Dn1 ,v100
 .byte   W06
 .byte   Dn1 ,v096
 .byte   W06
 .byte   N06
 .byte   W06
 .byte   N12 ,Dn1 ,v076
 .byte   W12
 .byte   N01
 .byte   W01
 .byte   N11 ,Dn1 ,v096
 .byte   W11
 .byte   N06 ,Dn1 ,v100
 .byte   W06
 .byte   N06
 .byte   W06
 .byte   N12
 .byte   W12
 .byte   N12
 .byte   W12
 .byte   N06 ,Dn1 ,v096
 .byte   W06
 .byte   Dn1 ,v100
 .byte   W06
@ 005   ----------------------------------------
 .byte   N01 ,Dn1 ,v096
 .byte   W01
 .byte   N04
 .byte   W05
 .byte   N06 ,Dn1 ,v076
 .byte   W06
 .byte   N06
 .byte   W06
 .byte   Dn1 ,v096
 .byte   W06
 .byte   N12 ,Dn1 ,v076
 .byte   W12
 .byte   Dn1 ,v100
 .byte   W12
 .byte   N06
 .byte   W06
 .byte   N06
 .byte   W06
 .byte   N12 ,Dn1 ,v096
 .byte   W12
 .byte   N06 ,Dn1 ,v088
 .byte   W06
 .byte   N03
 .byte   W03
 .byte   Dn1 ,v100
 .byte   W03
 .byte   N06
 .byte   W06
 .byte   Dn1 ,v096
 .byte   W06
@ 006   ----------------------------------------
 .byte   Dn1 ,v088
 .byte   W06
 .byte   Dn1 ,v100
 .byte   W06
 .byte   N06
 .byte   W06
 .byte   Dn1 ,v084
 .byte   W06
 .byte   N12 ,Dn1 ,v092
 .byte   W12
 .byte   N01 ,Dn1 ,v084
 .byte   W01
 .byte   N11 ,Dn1 ,v092
 .byte   W11
 .byte   N06 ,Dn1 ,v100
 .byte   W06
 .byte   Dn1 ,v088
 .byte   W06
 .byte   N12 ,Dn1 ,v076
 .byte   W12
 .byte   Dn1 ,v100
 .byte   W12
 .byte   N06 ,Dn1 ,v096
 .byte   W06
 .byte   Dn1 ,v088
 .byte   W06
@ 007   ----------------------------------------
 .byte   N01 ,Dn1 ,v076
 .byte   W01
 .byte   N04 ,Dn1 ,v092
 .byte   W05
 .byte   N06 ,Dn1 ,v100
 .byte   W06
 .byte   Dn1 ,v092
 .byte   W06
 .byte   Dn1 ,v072
 .byte   W06
 .byte   N12 ,Dn1 ,v084
 .byte   W12
 .byte   Dn1 ,v072
 .byte   W12
 .byte   N06 ,Dn1 ,v100
 .byte   W06
 .byte   N06
 .byte   W06
 .byte   N12 ,Dn1 ,v096
 .byte   W12
 .byte   N06 ,Dn1 ,v088
 .byte   W06
 .byte   N03
 .byte   W03
 .byte   Dn1 ,v100
 .byte   W03
 .byte   N06
 .byte   W06
 .byte   Dn1 ,v096
 .byte   W06
@ 008   ----------------------------------------
 .byte   Dn1 ,v088
 .byte   W06
 .byte   Dn1 ,v100
 .byte   W06
 .byte   N06
 .byte   W06
 .byte   Dn1 ,v084
 .byte   W06
 .byte   N12 ,Dn1 ,v092
 .byte   W12
 .byte   N01 ,Dn1 ,v084
 .byte   W01
 .byte   N11 ,Dn1 ,v092
 .byte   W11
 .byte   N06 ,Dn1 ,v100
 .byte   W06
 .byte   Dn1 ,v092
 .byte   W06
 .byte   N12 ,Dn1 ,v084
 .byte   W12
 .byte   Dn1 ,v100
 .byte   W12
 .byte   N06
 .byte   W06
 .byte   Dn1 ,v092
 .byte   W06
@ 009   ----------------------------------------
 .byte   N01 ,Dn1 ,v084
 .byte   W01
 .byte   N04 ,Dn1 ,v096
 .byte   W05
 .byte   N06 ,Dn1 ,v100
 .byte   W06
 .byte   Dn1 ,v096
 .byte   W06
 .byte   Dn1 ,v076
 .byte   W06
 .byte   N12 ,Dn1 ,v088
 .byte   W12
 .byte   Dn1 ,v076
 .byte   W12
 .byte   N06 ,Dn1 ,v100
 .byte   W06
 .byte   Dn1 ,v088
 .byte   W06
 .byte   N12 ,Dn1 ,v076
 .byte   W12
 .byte   N06 ,Dn1 ,v100
 .byte   W06
 .byte   N03 ,Dn1 ,v096
 .byte   W03
 .byte   Dn1 ,v088
 .byte   W03
 .byte   N06 ,Dn1 ,v076
 .byte   W06
 .byte   Dn1 ,v096
 .byte   W06
@ 010   ----------------------------------------
 .byte   Dn1 ,v100
 .byte   W06
 .byte   Dn1 ,v096
 .byte   W06
 .byte   Dn1 ,v076
 .byte   W06
 .byte   Dn1 ,v088
 .byte   W06
 .byte   N12 ,Dn1 ,v076
 .byte   W12
 .byte   N01 ,Dn1 ,v100
 .byte   W01
 .byte   N11 ,Dn1 ,v088
 .byte   W11
 .byte   N06 ,Dn1 ,v100
 .byte   W06
 .byte   Dn1 ,v096
 .byte   W06
 .byte   N12 ,Dn1 ,v088
 .byte   W12
 .byte   Dn1 ,v096
 .byte   W12
 .byte   N06 ,Dn1 ,v100
 .byte   W06
 .byte   Dn1 ,v096
 .byte   W06
@ 011   ----------------------------------------
 .byte   N01 ,Dn1 ,v088
 .byte   W01
 .byte   N04 ,Dn1 ,v076
 .byte   W05
 .byte   N06 ,Dn1 ,v096
 .byte   W06
 .byte   Dn1 ,v100
 .byte   W06
 .byte   Dn1 ,v096
 .byte   W06
 .byte   N12 ,Dn1 ,v076
 .byte   W12
 .byte   Dn1 ,v088
 .byte   W12
 .byte   N06 ,Dn1 ,v076
 .byte   W06
 .byte   Dn1 ,v100
 .byte   W06
 .byte   N12 ,Dn1 ,v088
 .byte   W12
 .byte   N06 ,Dn1 ,v100
 .byte   W06
 .byte   N03 ,Dn1 ,v088
 .byte   W03
 .byte   Dn1 ,v076
 .byte   W03
 .byte   N06 ,Dn1 ,v100
 .byte   W06
 .byte   Dn1 ,v096
 .byte   W06
@ 012   ----------------------------------------
 .byte   Dn1 ,v088
 .byte   W06
 .byte   Dn1 ,v076
 .byte   W06
 .byte   Dn1 ,v096
 .byte   W06
 .byte   Dn1 ,v100
 .byte   W06
 .byte   N12 ,Dn1 ,v096
 .byte   W12
 .byte   N01 ,Dn1 ,v076
 .byte   W01
 .byte   N11 ,Dn1 ,v088
 .byte   W11
 .byte   N06 ,Dn1 ,v076
 .byte   W06
 .byte   Dn1 ,v100
 .byte   W06
 .byte   N12 ,Dn1 ,v088
 .byte   W12
 .byte   Dn1 ,v100
 .byte   W12
 .byte   N06 ,Dn1 ,v096
 .byte   W06
 .byte   Dn1 ,v088
 .byte   W06
@ 013   ----------------------------------------
Label_9_012BBD9C:
 .byte   N01 ,Dn1 ,v076
 .byte   W01
 .byte   N04
 .byte   W05
 .byte   N06 ,Dn1 ,v100
 .byte   W06
 .byte   Dn1 ,v096
 .byte   W06
 .byte   Dn1 ,v088
 .byte   W06
 .byte   N12 ,Dn1 ,v076
 .byte   W12
 .byte   Dn1 ,v100
 .byte   W12
 .byte   N06 ,Dn1 ,v096
 .byte   W06
 .byte   Dn1 ,v076
 .byte   W06
 .byte   N12 ,Dn1 ,v088
 .byte   W12
 .byte   N06 ,Dn1 ,v076
 .byte   W06
 .byte   N03 ,Dn1 ,v088
 .byte   W03
 .byte   Dn1 ,v100
 .byte   W03
 .byte   N06 ,Dn1 ,v088
 .byte   W06
 .byte   Dn1 ,v076
 .byte   W06
 .byte   PEND 
@ 014   ----------------------------------------
Label_9_012BBDD1:
 .byte   N06 ,Dn1 ,v100
 .byte   W06
 .byte   Dn1 ,v096
 .byte   W06
 .byte   Dn1 ,v088
 .byte   W06
 .byte   Dn1 ,v076
 .byte   W06
 .byte   N12 ,Dn1 ,v096
 .byte   W12
 .byte   N01 ,Dn1 ,v100
 .byte   W01
 .byte   N11 ,Dn1 ,v096
 .byte   W11
 .byte   N06 ,Dn1 ,v076
 .byte   W06
 .byte   Dn1 ,v088
 .byte   W06
 .byte   N12 ,Dn1 ,v076
 .byte   W12
 .byte   Dn1 ,v100
 .byte   W12
 .byte   N06 ,Dn1 ,v096
 .byte   W06
 .byte   Dn1 ,v088
 .byte   W06
 .byte   PEND 
@ 015   ----------------------------------------
 .byte   PATT
  .word Label_9_012BBD9C
@ 016   ----------------------------------------
 .byte   N06 ,Dn1 ,v100
 .byte   W06
 .byte   Dn1 ,v096
 .byte   W06
 .byte   Dn1 ,v088
 .byte   W06
 .byte   Dn1 ,v076
 .byte   W06
 .byte   N12 ,Dn1 ,v096
 .byte   W12
 .byte   N01 ,Dn1 ,v100
 .byte   W01
 .byte   N11 ,Dn1 ,v096
 .byte   W11
 .byte   N06 ,Dn1 ,v076
 .byte   W06
 .byte   Dn1 ,v088
 .byte   W06
 .byte   N12 ,Dn1 ,v076
 .byte   W12
 .byte   Dn1 ,v100
 .byte   W12
 .byte   N06 ,Dn1 ,v076
 .byte   W06
 .byte   Dn1 ,v068
 .byte   W06
@ 017   ----------------------------------------
 .byte   N01 ,Dn1 ,v100
 .byte   W01
 .byte   N04 ,Dn1 ,v068
 .byte   W05
 .byte   N06 ,Dn1 ,v100
 .byte   W06
 .byte   Dn1 ,v068
 .byte   W06
 .byte   Dn1 ,v100
 .byte   W06
 .byte   N12
 .byte   W12
 .byte   Dn1 ,v096
 .byte   W12
 .byte   N06 ,Dn1 ,v076
 .byte   W06
 .byte   Dn1 ,v088
 .byte   W06
 .byte   N12 ,Dn1 ,v076
 .byte   W12
 .byte   N06 ,Dn1 ,v088
 .byte   W06
 .byte   N03 ,Dn1 ,v100
 .byte   W03
 .byte   Dn1 ,v088
 .byte   W03
 .byte   N06 ,Dn1 ,v076
 .byte   W06
 .byte   Dn1 ,v100
 .byte   W06
@ 018   ----------------------------------------
 .byte   Dn1 ,v096
 .byte   N96 ,Cs2 ,v092
 .byte   W06
 .byte   N06 ,Dn1 ,v088
 .byte   W06
 .byte   Dn1 ,v076
 .byte   W06
 .byte   Dn1 ,v096
 .byte   W06
 .byte   N12 ,Dn1 ,v100
 .byte   W12
 .byte   N01 ,Dn1 ,v096
 .byte   W01
 .byte   N11 ,Dn1 ,v076
 .byte   W11
 .byte   N06 ,Dn1 ,v088
 .byte   W06
 .byte   Dn1 ,v076
 .byte   W06
 .byte   N12 ,Dn1 ,v100
 .byte   W12
 .byte   Dn1 ,v096
 .byte   W12
 .byte   N06 ,Dn1 ,v088
 .byte   W06
 .byte   Dn1 ,v076
 .byte   W06
@ 019   ----------------------------------------
Label_9_012BBE98:
 .byte   N01 ,Dn1 ,v076
 .byte   W01
 .byte   N04 ,Dn1 ,v100
 .byte   W05
 .byte   N06 ,Dn1 ,v096
 .byte   W06
 .byte   Dn1 ,v088
 .byte   W06
 .byte   Dn1 ,v076
 .byte   W06
 .byte   N12 ,Dn1 ,v100
 .byte   W12
 .byte   Dn1 ,v096
 .byte   W12
 .byte   N06 ,Dn1 ,v076
 .byte   W06
 .byte   Dn1 ,v088
 .byte   W06
 .byte   N12 ,Dn1 ,v076
 .byte   W12
 .byte   N06 ,Dn1 ,v088
 .byte   W06
 .byte   N03 ,Dn1 ,v100
 .byte   W03
 .byte   Dn1 ,v088
 .byte   W03
 .byte   N06 ,Dn1 ,v076
 .byte   W06
 .byte   Dn1 ,v100
 .byte   W06
 .byte   PEND 
@ 020   ----------------------------------------
Label_9_012BBECF:
 .byte   N06 ,Dn1 ,v096
 .byte   W06
 .byte   Dn1 ,v088
 .byte   W06
 .byte   Dn1 ,v076
 .byte   W06
 .byte   Dn1 ,v096
 .byte   W06
 .byte   N12 ,Dn1 ,v100
 .byte   W12
 .byte   N01 ,Dn1 ,v096
 .byte   W01
 .byte   N11 ,Dn1 ,v076
 .byte   W11
 .byte   N06 ,Dn1 ,v088
 .byte   W06
 .byte   Dn1 ,v076
 .byte   W06
 .byte   N12 ,Dn1 ,v100
 .byte   W12
 .byte   Dn1 ,v096
 .byte   W12
 .byte   N06 ,Dn1 ,v088
 .byte   W06
 .byte   Dn1 ,v076
 .byte   W06
 .byte   PEND 
@ 021   ----------------------------------------
 .byte   PATT
  .word Label_9_012BBE98
@ 022   ----------------------------------------
 .byte   PATT
  .word Label_9_012BBECF
@ 023   ----------------------------------------
 .byte   PATT
  .word Label_9_012BBE98
@ 024   ----------------------------------------
 .byte   PATT
  .word Label_9_012BBECF
@ 025   ----------------------------------------
 .byte   PATT
  .word Label_9_012BBE98
@ 026   ----------------------------------------
 .byte   PATT
  .word Label_9_012BBECF
@ 027   ----------------------------------------
 .byte   PATT
  .word Label_9_012BBE98
@ 028   ----------------------------------------
 .byte   PATT
  .word Label_9_012BBECF
@ 029   ----------------------------------------
 .byte   PATT
  .word Label_9_012BBE98
@ 030   ----------------------------------------
 .byte   PATT
  .word Label_9_012BBECF
@ 031   ----------------------------------------
 .byte   N01 ,Dn1 ,v076
 .byte   W01
 .byte   N04 ,Dn1 ,v100
 .byte   N96 ,Ds2 ,v092
 .byte   W05
 .byte   N06 ,Dn1 ,v096
 .byte   W06
 .byte   Dn1 ,v088
 .byte   W06
 .byte   Dn1 ,v076
 .byte   W06
 .byte   N12 ,Dn1 ,v100
 .byte   W12
 .byte   Dn1 ,v096
 .byte   W12
 .byte   N06 ,Dn1 ,v076
 .byte   W06
 .byte   Dn1 ,v088
 .byte   W06
 .byte   N12 ,Dn1 ,v076
 .byte   W12
 .byte   N06 ,Dn1 ,v088
 .byte   W06
 .byte   N03 ,Dn1 ,v100
 .byte   W03
 .byte   Dn1 ,v088
 .byte   W03
 .byte   N06 ,Dn1 ,v076
 .byte   W06
 .byte   Dn1 ,v100
 .byte   W06
@ 032   ----------------------------------------
 .byte   Dn1 ,v096
 .byte   N96 ,Cs2 ,v084
 .byte   W06
 .byte   N06 ,Dn1 ,v088
 .byte   W06
 .byte   Dn1 ,v076
 .byte   W06
 .byte   Dn1 ,v096
 .byte   W06
 .byte   N12 ,Dn1 ,v100
 .byte   W12
 .byte   N01 ,Dn1 ,v096
 .byte   W01
 .byte   N11 ,Dn1 ,v076
 .byte   W11
 .byte   N06 ,Dn1 ,v088
 .byte   W06
 .byte   Dn1 ,v076
 .byte   W06
 .byte   N12 ,Dn1 ,v100
 .byte   W12
 .byte   Dn1 ,v096
 .byte   W12
 .byte   N06 ,Dn1 ,v088
 .byte   W06
 .byte   Dn1 ,v076
 .byte   W06
@ 033   ----------------------------------------
 .byte   PATT
  .word Label_9_012BBE98
@ 034   ----------------------------------------
 .byte   PATT
  .word Label_9_012BBECF
@ 035   ----------------------------------------
 .byte   PATT
  .word Label_9_012BBE98
@ 036   ----------------------------------------
 .byte   PATT
  .word Label_9_012BBECF
@ 037   ----------------------------------------
 .byte   N01 ,Dn1 ,v076
 .byte   W01
 .byte   N04 ,Dn1 ,v100
 .byte   W05
 .byte   N06 ,Dn1 ,v096
 .byte   W06
 .byte   Dn1 ,v088
 .byte   W06
 .byte   Dn1 ,v076
 .byte   W06
 .byte   N12 ,Dn1 ,v100
 .byte   W12
 .byte   Dn1 ,v096
 .byte   W12
 .byte   N06 ,Dn1 ,v076
 .byte   N09 ,An2 ,v112
 .byte   W08
 .byte   N06 ,Dn1 ,v088
 .byte   W08
 .byte   N08 ,Dn1 ,v076
 .byte   N09 ,An2 ,v116
 .byte   W08
 .byte   N06 ,Dn1 ,v088
 .byte   W08
 .byte   N04 ,Dn1 ,v100
 .byte   N09 ,An2 ,v120
 .byte   W04
 .byte   N04 ,Dn1 ,v088
 .byte   W04
 .byte   N06 ,Dn1 ,v076
 .byte   W08
@ 038   ----------------------------------------
 .byte   Dn1 ,v100
 .byte   N96 ,Cs2 ,v092
 .byte   N12 ,An2 ,v120
 .byte   W06
 .byte   N06 ,Dn1 ,v096
 .byte   W06
 .byte   Dn1 ,v088
 .byte   W06
 .byte   Dn1 ,v076
 .byte   W06
 .byte   N12 ,Dn1 ,v096
 .byte   W12
 .byte   N01 ,Dn1 ,v100
 .byte   W01
 .byte   N11 ,Dn1 ,v096
 .byte   W11
 .byte   N06 ,Dn1 ,v076
 .byte   W06
 .byte   Dn1 ,v088
 .byte   W06
 .byte   N12 ,Dn1 ,v076
 .byte   W12
 .byte   Dn1 ,v100
 .byte   W12
 .byte   N06 ,Dn1 ,v096
 .byte   W06
 .byte   Dn1 ,v088
 .byte   W06
@ 039   ----------------------------------------
 .byte   PATT
  .word Label_9_012BBD9C
@ 040   ----------------------------------------
 .byte   PATT
  .word Label_9_012BBDD1
@ 041   ----------------------------------------
 .byte   N01 ,Dn1 ,v076
 .byte   W01
 .byte   N04
 .byte   N96 ,Ds2 ,v092
 .byte   W05
 .byte   N06 ,Dn1 ,v100
 .byte   W06
 .byte   Dn1 ,v096
 .byte   W06
 .byte   Dn1 ,v088
 .byte   W06
 .byte   N12 ,Dn1 ,v076
 .byte   W12
 .byte   Dn1 ,v100
 .byte   W12
 .byte   N06 ,Dn1 ,v096
 .byte   W06
 .byte   Dn1 ,v076
 .byte   W06
 .byte   N12 ,Dn1 ,v088
 .byte   W12
 .byte   N06 ,Dn1 ,v076
 .byte   W06
 .byte   N03 ,Dn1 ,v088
 .byte   W03
 .byte   Dn1 ,v100
 .byte   W03
 .byte   N06 ,Dn1 ,v088
 .byte   W06
 .byte   Dn1 ,v076
 .byte   W06
@ 042   ----------------------------------------
 .byte   N01 ,Dn1 ,v100
 .byte   W01
 .byte   N04 ,Dn1 ,v096
 .byte   N96 ,Cs2 ,v092
 .byte   N12 ,An2 ,v120
 .byte   W92
 .byte   W03
@ 043   ----------------------------------------
 .byte   N06 ,Dn1 ,v088
 .byte   W06
 .byte   Dn1 ,v076
 .byte   W06
 .byte   Dn1 ,v096
 .byte   W06
 .byte   Dn1 ,v100
 .byte   W06
 .byte   N12 ,Dn1 ,v096
 .byte   W12
 .byte   N01 ,Dn1 ,v076
 .byte   W01
 .byte   N11 ,Dn1 ,v088
 .byte   W11
 .byte   N06 ,Dn1 ,v076
 .byte   W06
 .byte   Dn1 ,v100
 .byte   W06
 .byte   N12 ,Dn1 ,v096
 .byte   W12
 .byte   Dn1 ,v088
 .byte   W12
 .byte   N06 ,Dn1 ,v076
 .byte   W06
 .byte   N06
 .byte   W06
@ 044   ----------------------------------------
 .byte   N01 ,Dn1 ,v100
 .byte   W01
 .byte   N04 ,Dn1 ,v096
 .byte   W92
 .byte   W03
@ 045   ----------------------------------------
 .byte   N06 ,Dn1 ,v088
 .byte   W06
 .byte   Dn1 ,v076
 .byte   W06
 .byte   Dn1 ,v100
 .byte   W06
 .byte   Dn1 ,v096
 .byte   W06
 .byte   N12 ,Dn1 ,v076
 .byte   W12
 .byte   N01 ,Dn1 ,v088
 .byte   W01
 .byte   N11 ,Dn1 ,v076
 .byte   W11
 .byte   N06 ,Dn1 ,v088
 .byte   W06
 .byte   Dn1 ,v100
 .byte   W06
 .byte   N12 ,Dn1 ,v088
 .byte   W12
 .byte   N06 ,Dn1 ,v076
 .byte   W06
 .byte   Dn1 ,v100
 .byte   W06
 .byte   Dn1 ,v096
 .byte   W06
 .byte   Dn1 ,v088
 .byte   W06
@ 046   ----------------------------------------
 .byte   N01 ,Dn1 ,v076
 .byte   W01
 .byte   N04 ,Dn1 ,v096
 .byte   W92
 .byte   W03
@ 047   ----------------------------------------
 .byte   N06 ,Dn1 ,v100
 .byte   W06
 .byte   Dn1 ,v096
 .byte   W06
 .byte   Dn1 ,v076
 .byte   W06
 .byte   Dn1 ,v088
 .byte   W06
 .byte   N12 ,Dn1 ,v076
 .byte   W12
 .byte   N01 ,Dn1 ,v100
 .byte   W01
 .byte   N11 ,Dn1 ,v096
 .byte   W11
 .byte   N06 ,Dn1 ,v088
 .byte   W06
 .byte   Dn1 ,v076
 .byte   W06
 .byte   N12
 .byte   W12
 .byte   Dn1 ,v100
 .byte   W12
 .byte   N06 ,Dn1 ,v096
 .byte   W06
 .byte   Dn1 ,v088
 .byte   W06
@ 048   ----------------------------------------
Label_9_012BC10C:
 .byte   N06 ,Dn1 ,v076
 .byte   W06
 .byte   Dn1 ,v100
 .byte   W06
 .byte   Dn1 ,v096
 .byte   W06
 .byte   Dn1 ,v076
 .byte   W06
 .byte   N12 ,Dn1 ,v088
 .byte   W12
 .byte   N01 ,Dn1 ,v076
 .byte   W01
 .byte   N11 ,Dn1 ,v088
 .byte   W11
 .byte   N06 ,Dn1 ,v100
 .byte   W06
 .byte   Dn1 ,v088
 .byte   W06
 .byte   N12 ,Dn1 ,v076
 .byte   W12
 .byte   Dn1 ,v100
 .byte   W12
 .byte   N06 ,Dn1 ,v096
 .byte   W06
 .byte   Dn1 ,v088
 .byte   W06
 .byte   PEND 
@ 049   ----------------------------------------
 .byte   N01 ,Dn1 ,v076
 .byte   W01
 .byte   N04 ,Dn1 ,v096
 .byte   W05
 .byte   N06 ,Dn1 ,v100
 .byte   W06
 .byte   Dn1 ,v096
 .byte   W06
 .byte   Dn1 ,v076
 .byte   W06
 .byte   N12 ,Dn1 ,v088
 .byte   W12
 .byte   Dn1 ,v076
 .byte   W12
 .byte   N06 ,Dn1 ,v100
 .byte   W06
 .byte   Dn1 ,v096
 .byte   W06
 .byte   N12 ,Dn1 ,v088
 .byte   W12
 .byte   N06 ,Dn1 ,v076
 .byte   W06
 .byte   N03
 .byte   W03
 .byte   Dn1 ,v100
 .byte   W03
 .byte   N06 ,Dn1 ,v096
 .byte   W06
 .byte   Dn1 ,v088
 .byte   W06
@ 050   ----------------------------------------
 .byte   PATT
  .word Label_9_012BC10C
@ 051   ----------------------------------------
 .byte   N01 ,Dn1 ,v076
 .byte   W01
 .byte   N04 ,Dn1 ,v096
 .byte   N96 ,Ds2 ,v092
 .byte   W05
 .byte   N06 ,Dn1 ,v100
 .byte   W06
 .byte   Dn1 ,v096
 .byte   W06
 .byte   Dn1 ,v076
 .byte   W06
 .byte   N12 ,Dn1 ,v088
 .byte   W12
 .byte   Dn1 ,v076
 .byte   W12
 .byte   N06 ,Dn1 ,v100
 .byte   W06
 .byte   Dn1 ,v096
 .byte   W06
 .byte   N12 ,Dn1 ,v088
 .byte   W12
 .byte   N06 ,Dn1 ,v076
 .byte   W06
 .byte   N03
 .byte   W03
 .byte   Dn1 ,v100
 .byte   W03
 .byte   N06 ,Dn1 ,v096
 .byte   N12 ,An2 ,v112
 .byte   W06
 .byte   N06 ,Dn1 ,v088
 .byte   W06
@ 052   ----------------------------------------
 .byte   N01 ,Dn1 ,v076
 .byte   W01
 .byte   N04 ,Dn1 ,v100
 .byte   N96 ,Cs2 ,v092
 .byte   N12 ,An2 ,v120
 .byte   W05
 .byte   N06 ,Dn1 ,v096
 .byte   W90
@ 053   ----------------------------------------
 .byte   W48
 .byte   Dn1 ,v076
 .byte   W06
 .byte   N03 ,Dn1 ,v088
 .byte   W03
 .byte   Dn1 ,v076
 .byte   W03
 .byte   N06 ,Dn1 ,v088
 .byte   N12 ,An2 ,v112
 .byte   W06
 .byte   N06 ,Dn1 ,v100
 .byte   W06
 .byte   Dn1 ,v088
 .byte   W06
 .byte   Dn1 ,v076
 .byte   W06
 .byte   Dn1 ,v100
 .byte   N12 ,An2 ,v112
 .byte   W06
 .byte   N06 ,Dn1 ,v096
 .byte   W06
@ 054   ----------------------------------------
 .byte   N01 ,Dn1 ,v088
 .byte   W01
 .byte   N04 ,Dn1 ,v076
 .byte   N96 ,Cs2 ,v084
 .byte   N12 ,An2 ,v112
 .byte   W92
 .byte   W03
@ 055   ----------------------------------------
 .byte   W48
 .byte   N06 ,Dn1 ,v096
 .byte   W06
 .byte   N03 ,Dn1 ,v100
 .byte   W03
 .byte   Dn1 ,v096
 .byte   W03
 .byte   N06 ,Dn1 ,v076
 .byte   N12 ,An2 ,v112
 .byte   W06
 .byte   N06 ,Dn1 ,v088
 .byte   W06
 .byte   Dn1 ,v076
 .byte   W06
 .byte   Dn1 ,v100
 .byte   W06
 .byte   N03
 .byte   W03
 .byte   Dn1 ,v096
 .byte   N12 ,An2 ,v112
 .byte   W03
 .byte   N06 ,Dn1 ,v088
 .byte   W06
@ 056   ----------------------------------------
 .byte   W03
 .byte   GOTO
  .word Label_9_012BBBF8
 .byte   FINE

@**************** Track 11 (Midi-Chn.10) ****************@

song012D_011:
@ 000   ----------------------------------------
 .byte   KEYSH , song012D_key+0
Label_10_012BC228:
 .byte   VOICE , 60
 .byte   VOL , 21*song012D_mvl/mxv
 .byte   PAN , c_v+0
 .byte   W96
 .byte   PEND 
@ 001   ----------------------------------------
 .byte   W96
@ 002   ----------------------------------------
 .byte   W96
@ 003   ----------------------------------------
 .byte   W96
@ 004   ----------------------------------------
Label_10_012BC233:
 .byte   TIE ,An2 ,v100
 .byte   TIE ,Dn3
 .byte   W96
 .byte   PEND 
@ 005   ----------------------------------------
 .byte   W96
@ 006   ----------------------------------------
 .byte   EOT
 .byte   An2 ,v062
Label_10_012BC23E:
 .byte   TIE ,Gn2 ,v100
 .byte   TIE ,Cn3
 .byte   W96
 .byte   PEND 
@ 007   ----------------------------------------
 .byte   W96
@ 008   ----------------------------------------
 .byte   EOT
 .byte   Gn2 ,v060
 .byte   N36 ,An2
 .byte   N36 ,Dn3
 .byte   W96
@ 009   ----------------------------------------
 .byte   W96
@ 010   ----------------------------------------
 .byte   W96
@ 011   ----------------------------------------
 .byte   W96
@ 012   ----------------------------------------
 .byte   W96
@ 013   ----------------------------------------
 .byte   W96
@ 014   ----------------------------------------
 .byte   W96
@ 015   ----------------------------------------
 .byte   W96
@ 016   ----------------------------------------
 .byte   W96
@ 017   ----------------------------------------
 .byte   W96
@ 018   ----------------------------------------
 .byte   PATT
  .word Label_10_012BC233
@ 019   ----------------------------------------
 .byte   W96
@ 020   ----------------------------------------
 .byte   EOT
 .byte   An2 ,v062
@ 021   ----------------------------------------
 .byte   PATT
  .word Label_10_012BC23E
@ 022   ----------------------------------------
 .byte   W96
@ 023   ----------------------------------------
 .byte   EOT
 .byte   Gn2 ,v060
 .byte   N36 ,An2 ,v100
 .byte   N36 ,Dn3
 .byte   W96
@ 024   ----------------------------------------
 .byte   W96
@ 025   ----------------------------------------
 .byte   W96
@ 026   ----------------------------------------
 .byte   W96
@ 027   ----------------------------------------
 .byte   W96
@ 028   ----------------------------------------
 .byte   W96
@ 029   ----------------------------------------
 .byte   W96
@ 030   ----------------------------------------
 .byte   W96
@ 031   ----------------------------------------
 .byte   W96
@ 032   ----------------------------------------
 .byte   W96
@ 033   ----------------------------------------
 .byte   W96
@ 034   ----------------------------------------
 .byte   W96
@ 035   ----------------------------------------
 .byte   W96
@ 036   ----------------------------------------
 .byte   W96
@ 037   ----------------------------------------
 .byte   W96
@ 038   ----------------------------------------
 .byte   W96
@ 039   ----------------------------------------
 .byte   W96
@ 040   ----------------------------------------
 .byte   W96
@ 041   ----------------------------------------
 .byte   VOICE , 61
 .byte   VOL , 24*song012D_mvl/mxv
 .byte   PAN , c_v+4
 .byte   W96
@ 042   ----------------------------------------
 .byte   W96
@ 043   ----------------------------------------
 .byte   TIE ,Gn0 ,v127
 .byte   TIE ,Gn1 ,v112
 .byte   W96
@ 044   ----------------------------------------
 .byte   W96
@ 045   ----------------------------------------
 .byte   EOT
 .byte   Gn0 ,v043
 .byte   TIE ,Fn0 ,v127
 .byte   TIE ,Fn1 ,v112
 .byte   W96
@ 046   ----------------------------------------
 .byte   W96
@ 047   ----------------------------------------
 .byte   EOT
 .byte   Fn0 ,v041
 .byte   TIE ,En0 ,v127
 .byte   TIE ,En1 ,v112
 .byte   W96
@ 048   ----------------------------------------
 .byte   W96
@ 049   ----------------------------------------
 .byte   EOT
 .byte   En0 ,v040
 .byte   TIE ,Ds1 ,v127
 .byte   TIE ,Ds2 ,v112
 .byte   W96
@ 050   ----------------------------------------
 .byte   W96
@ 051   ----------------------------------------
 .byte   EOT
 .byte   Ds1 ,v051
 .byte   N96 ,Cs1 ,v127
 .byte   N96 ,Cs2 ,v112
 .byte   W96
@ 052   ----------------------------------------
 .byte   An0 ,v127
 .byte   N96 ,An1 ,v112
 .byte   W96
@ 053   ----------------------------------------
 .byte   N12 ,Dn1 ,v127
 .byte   N12 ,Dn2 ,v112
 .byte   W96
@ 054   ----------------------------------------
 .byte   W96
@ 055   ----------------------------------------
 .byte   PATT
  .word Label_10_012BC228
@ 056   ----------------------------------------
 .byte   W96
@ 057   ----------------------------------------
 .byte   W03
 .byte   GOTO
  .word Label_10_012BC233
 .byte   FINE

@**************** Track 12 (Midi-Chn.11) ****************@

song012D_012:
@ 000   ----------------------------------------
 .byte   KEYSH , song012D_key+0
 .byte   VOICE , 61
 .byte   VOL , 19*song012D_mvl/mxv
 .byte   PAN , c_v+2
 .byte   N06 ,Dn2 ,v108
 .byte   N06 ,Fn2
 .byte   W12
 .byte   N12 ,Dn2
 .byte   N12 ,Fn2
 .byte   W24
 .byte   N06 ,Dn2
 .byte   N06 ,Fn2
 .byte   W24
 .byte   N12 ,Dn2
 .byte   N12 ,Fn2
 .byte   W24
 .byte   N48 ,Dn2
 .byte   N48 ,Fn2
 .byte   W12
@ 001   ----------------------------------------
Label_11_012BC2F8:
 .byte   W60
 .byte   N09 ,Dn2 ,v127
 .byte   N09 ,Fn2
 .byte   W24
 .byte   N06 ,Dn2 ,v108
 .byte   N06 ,Fn2
 .byte   W12
 .byte   PEND 
@ 002   ----------------------------------------
Label_11_012BC306:
 .byte   N06 ,Dn2 ,v108
 .byte   N06 ,Fn2
 .byte   W12
 .byte   N12 ,Dn2
 .byte   N12 ,Fn2
 .byte   W24
 .byte   N06 ,Dn2
 .byte   N06 ,Fn2
 .byte   W24
 .byte   N12 ,Dn2
 .byte   N12 ,Fn2
 .byte   W24
 .byte   N48 ,En2
 .byte   N48 ,An2
 .byte   W12
 .byte   PEND 
@ 003   ----------------------------------------
Label_11_012BC321:
 .byte   W60
 .byte   N07 ,Dn3 ,v116
 .byte   N07 ,Fn3
 .byte   W24
 .byte   N04 ,Dn3 ,v096
 .byte   N04 ,Fn3
 .byte   W12
 .byte   PEND 
@ 004   ----------------------------------------
Label_11_012BC32F:
 .byte   N05 ,Dn3 ,v116
 .byte   N05 ,Fn3
 .byte   W12
 .byte   N03 ,Dn3 ,v100
 .byte   N03 ,Fn3
 .byte   W12
 .byte   Dn3 ,v096
 .byte   N03 ,Fn3
 .byte   W12
 .byte   N09 ,Dn3 ,v112
 .byte   N09 ,Fn3
 .byte   W24
 .byte   N03 ,Dn3 ,v096
 .byte   N03 ,Fn3
 .byte   W12
 .byte   Dn3 ,v112
 .byte   N03 ,Fn3
 .byte   W12
 .byte   Dn3 ,v096
 .byte   N03 ,Fn3
 .byte   W12
 .byte   PEND 
@ 005   ----------------------------------------
 .byte   N05 ,Dn3 ,v116
 .byte   N05 ,Fn3
 .byte   W12
 .byte   N03 ,Dn3 ,v100
 .byte   N03 ,Fn3
 .byte   W12
 .byte   Dn3 ,v096
 .byte   N03 ,Fn3
 .byte   W12
 .byte   N09 ,Dn3 ,v112
 .byte   N09 ,Fn3
 .byte   W24
 .byte   N03 ,Dn3
 .byte   N03 ,Fn3 ,v096
 .byte   W12
 .byte   Dn3 ,v112
 .byte   N03 ,Fn3
 .byte   W12
 .byte   Dn3 ,v096
 .byte   N03 ,Fn3
 .byte   W12
@ 006   ----------------------------------------
Label_11_012BC37E:
 .byte   N05 ,En3 ,v116
 .byte   N05 ,Gn3
 .byte   W12
 .byte   N03 ,En3 ,v100
 .byte   N03 ,Gn3
 .byte   W12
 .byte   En3 ,v096
 .byte   N03 ,Gn3
 .byte   W12
 .byte   N09 ,En3 ,v112
 .byte   N09 ,Gn3
 .byte   W24
 .byte   N03 ,En3 ,v096
 .byte   N03 ,Gn3
 .byte   W12
 .byte   En3 ,v112
 .byte   N03 ,Gn3
 .byte   W12
 .byte   En3 ,v096
 .byte   N03 ,Gn3
 .byte   W12
 .byte   PEND 
@ 007   ----------------------------------------
 .byte   PATT
  .word Label_11_012BC37E
@ 008   ----------------------------------------
 .byte   PATT
  .word Label_11_012BC32F
@ 009   ----------------------------------------
 .byte   PATT
  .word Label_11_012BC32F
@ 010   ----------------------------------------
 .byte   PATT
  .word Label_11_012BC37E
@ 011   ----------------------------------------
 .byte   PATT
  .word Label_11_012BC37E
@ 012   ----------------------------------------
Label_11_012BC3BF:
 .byte   N05 ,Dn3 ,v116
 .byte   N05 ,Gn3
 .byte   W12
 .byte   N03 ,Dn3 ,v100
 .byte   N03 ,Gn3
 .byte   W12
 .byte   Dn3 ,v096
 .byte   N03 ,Gn3
 .byte   W12
 .byte   N09 ,Dn3 ,v112
 .byte   N09 ,Gn3
 .byte   W24
 .byte   N03 ,Dn3 ,v096
 .byte   N03 ,Gn3
 .byte   W12
 .byte   Dn3 ,v112
 .byte   N03 ,Gn3
 .byte   W12
 .byte   Dn3 ,v096
 .byte   N03 ,Gn3
 .byte   W12
 .byte   PEND 
@ 013   ----------------------------------------
 .byte   PATT
  .word Label_11_012BC3BF
@ 014   ----------------------------------------
 .byte   PATT
  .word Label_11_012BC32F
@ 015   ----------------------------------------
 .byte   PATT
  .word Label_11_012BC32F
@ 016   ----------------------------------------
 .byte   PATT
  .word Label_11_012BC32F
@ 017   ----------------------------------------
 .byte   PATT
  .word Label_11_012BC32F
@ 018   ----------------------------------------
 .byte   PATT
  .word Label_11_012BC32F
@ 019   ----------------------------------------
 .byte   N05 ,Dn3 ,v116
 .byte   N05 ,Fn3
 .byte   W12
 .byte   N03 ,Dn3 ,v100
 .byte   N03 ,Fn3
 .byte   W12
 .byte   Dn3 ,v096
 .byte   N03 ,Fn3
 .byte   W12
 .byte   N09 ,Dn3 ,v112
 .byte   N09 ,Fn3
 .byte   W24
 .byte   N03 ,Fn3 ,v096
 .byte   W12
 .byte   Dn3 ,v112
 .byte   N03 ,Fn3
 .byte   W12
 .byte   Dn3 ,v096
 .byte   N03 ,Fn3
 .byte   W12
@ 020   ----------------------------------------
 .byte   PATT
  .word Label_11_012BC37E
@ 021   ----------------------------------------
 .byte   PATT
  .word Label_11_012BC37E
@ 022   ----------------------------------------
 .byte   PATT
  .word Label_11_012BC32F
@ 023   ----------------------------------------
 .byte   PATT
  .word Label_11_012BC32F
@ 024   ----------------------------------------
 .byte   PATT
  .word Label_11_012BC37E
@ 025   ----------------------------------------
 .byte   PATT
  .word Label_11_012BC37E
@ 026   ----------------------------------------
 .byte   PATT
  .word Label_11_012BC3BF
@ 027   ----------------------------------------
 .byte   PATT
  .word Label_11_012BC3BF
@ 028   ----------------------------------------
 .byte   PATT
  .word Label_11_012BC32F
@ 029   ----------------------------------------
 .byte   PATT
  .word Label_11_012BC32F
@ 030   ----------------------------------------
 .byte   PATT
  .word Label_11_012BC32F
@ 031   ----------------------------------------
 .byte   N05 ,Dn3 ,v116
 .byte   N05 ,Fn3
 .byte   W12
 .byte   N03 ,Dn3 ,v100
 .byte   N03 ,Fn3
 .byte   W12
 .byte   Dn3 ,v096
 .byte   N03 ,Fn3
 .byte   W12
 .byte   N09 ,Dn3 ,v112
 .byte   N09 ,Fn3
 .byte   W24
 .byte   N03 ,Dn3 ,v096
 .byte   N03 ,Fn3
 .byte   W12
 .byte   N04 ,Dn3 ,v127
 .byte   N04 ,An3
 .byte   W18
 .byte   N03 ,Dn3 ,v120
 .byte   N03 ,An3
 .byte   W06
@ 032   ----------------------------------------
Label_11_012BC48A:
 .byte   N30 ,An3 ,v096
 .byte   N30 ,Dn4 ,v127
 .byte   W36
 .byte   N06 ,An3 ,v096
 .byte   N06 ,Dn4 ,v127
 .byte   W06
 .byte   An3 ,v096
 .byte   N06 ,En4 ,v127
 .byte   W06
 .byte   N48 ,An3 ,v096
 .byte   N48 ,Fn4 ,v127
 .byte   W48
 .byte   PEND 
@ 033   ----------------------------------------
 .byte   W24
 .byte   N18 ,An3 ,v096
 .byte   N18 ,Dn4 ,v116
 .byte   W24
 .byte   An3 ,v096
 .byte   N18 ,En4 ,v127
 .byte   W24
 .byte   N24 ,An3 ,v096
 .byte   N24 ,Fn4 ,v127
 .byte   W24
@ 034   ----------------------------------------
 .byte   N06 ,Cn4 ,v096
 .byte   N06 ,En4 ,v127
 .byte   W06
 .byte   Gn3 ,v096
 .byte   N06 ,Dn4 ,v127
 .byte   W06
 .byte   N84 ,Gn3 ,v096
 .byte   N84 ,Cn4 ,v127
 .byte   W84
@ 035   ----------------------------------------
 .byte   W24
 .byte   N18 ,Cn4 ,v096
 .byte   N18 ,Gn4 ,v127
 .byte   W24
 .byte   Cn4 ,v096
 .byte   N18 ,Fn4 ,v127
 .byte   W24
 .byte   N04 ,Gn3 ,v116
 .byte   N04 ,En4 ,v127
 .byte   W18
 .byte   N03 ,Gn3 ,v108
 .byte   N03 ,En4 ,v127
 .byte   W06
@ 036   ----------------------------------------
 .byte   PATT
  .word Label_11_012BC48A
@ 037   ----------------------------------------
 .byte   W24
 .byte   N18 ,An3 ,v096
 .byte   N18 ,Dn4 ,v116
 .byte   W24
 .byte   N12 ,Dn4 ,v096
 .byte   N12 ,An4 ,v127
 .byte   W16
 .byte   N09 ,Dn4 ,v096
 .byte   N09 ,Gn4 ,v127
 .byte   W16
 .byte   Dn4 ,v096
 .byte   N09 ,Fn4 ,v127
 .byte   W16
@ 038   ----------------------------------------
 .byte   N06 ,Cn4 ,v096
 .byte   N06 ,En4 ,v127
 .byte   W06
 .byte   Dn4 ,v096
 .byte   N06 ,Fn4 ,v127
 .byte   W06
 .byte   N84 ,En4 ,v096
 .byte   N84 ,Gn4 ,v127
 .byte   W84
@ 039   ----------------------------------------
 .byte   W24
 .byte   N18 ,An3 ,v096
 .byte   N18 ,Gn4 ,v127
 .byte   W24
 .byte   An3 ,v096
 .byte   N18 ,Fn4 ,v127
 .byte   W24
 .byte   N04 ,An3 ,v116
 .byte   N04 ,En4 ,v127
 .byte   W18
 .byte   N03 ,An3 ,v108
 .byte   N03 ,En4 ,v127
 .byte   W06
@ 040   ----------------------------------------
 .byte   N48 ,Gn3 ,v108
 .byte   TIE ,Dn4 ,v127
 .byte   W48
 .byte   N48 ,En3 ,v096
 .byte   W48
@ 041   ----------------------------------------
 .byte   N90 ,Fs3
 .byte   W90
 .byte   EOT
 .byte   Dn4
 .byte   W06
@ 042   ----------------------------------------
Label_11_012BC54D:
 .byte   N04 ,Dn3 ,v096
 .byte   N04 ,Gn3
 .byte   W12
 .byte   N02 ,Dn3 ,v080
 .byte   N02 ,Gn3
 .byte   W12
 .byte   Dn3 ,v076
 .byte   N02 ,Gn3
 .byte   W12
 .byte   N08 ,Dn3 ,v092
 .byte   N08 ,Gn3
 .byte   W24
 .byte   N02 ,Dn3 ,v076
 .byte   N02 ,Gn3
 .byte   W12
 .byte   Dn3 ,v092
 .byte   N02 ,Gn3
 .byte   W12
 .byte   Dn3 ,v076
 .byte   N02 ,Gn3
 .byte   W12
 .byte   PEND 
@ 043   ----------------------------------------
 .byte   PATT
  .word Label_11_012BC54D
@ 044   ----------------------------------------
 .byte   N04 ,Dn3 ,v096
 .byte   N04 ,Fn3
 .byte   W12
 .byte   N02 ,Dn3 ,v080
 .byte   N02 ,Fn3
 .byte   W12
 .byte   Dn3 ,v076
 .byte   N02 ,Fn3
 .byte   W12
 .byte   N08 ,Dn3 ,v092
 .byte   N08 ,Fn3
 .byte   W24
 .byte   N02 ,Dn3 ,v076
 .byte   N02 ,Fn3
 .byte   W12
 .byte   Dn3 ,v092
 .byte   N02 ,Fn3
 .byte   W12
 .byte   Dn3 ,v076
 .byte   N02 ,Fn3
 .byte   W12
@ 045   ----------------------------------------
 .byte   N04 ,Cn3 ,v096
 .byte   N04 ,Fn3
 .byte   W12
 .byte   N02 ,Cn3 ,v080
 .byte   N02 ,Fn3
 .byte   W12
 .byte   Cn3 ,v076
 .byte   N02 ,Fn3
 .byte   W12
 .byte   N08 ,Cn3 ,v092
 .byte   N08 ,Fn3
 .byte   W24
 .byte   N02 ,Cn3 ,v076
 .byte   N02 ,Fn3
 .byte   W12
 .byte   Cn3 ,v092
 .byte   N02 ,Fn3
 .byte   W12
 .byte   Cn3 ,v076
 .byte   N02 ,Fn3
 .byte   W12
@ 046   ----------------------------------------
Label_11_012BC5C8:
 .byte   N04 ,Cn3 ,v096
 .byte   N04 ,Gn3
 .byte   W12
 .byte   N02 ,Cn3 ,v080
 .byte   N02 ,Gn3
 .byte   W12
 .byte   Cn3 ,v076
 .byte   N02 ,Gn3
 .byte   W12
 .byte   N08 ,Cn3 ,v092
 .byte   N08 ,Gn3
 .byte   W24
 .byte   N02 ,Cn3 ,v076
 .byte   N02 ,Gn3
 .byte   W12
 .byte   Cn3 ,v092
 .byte   N02 ,Gn3
 .byte   W12
 .byte   Cn3 ,v076
 .byte   N02 ,Gn3
 .byte   W12
 .byte   PEND 
@ 047   ----------------------------------------
 .byte   PATT
  .word Label_11_012BC5C8
@ 048   ----------------------------------------
Label_11_012BC5F5:
 .byte   N04 ,Ds3 ,v096
 .byte   N04 ,Gn3
 .byte   W12
 .byte   N02 ,Ds3 ,v080
 .byte   N02 ,Gn3
 .byte   W12
 .byte   Ds3 ,v076
 .byte   N02 ,Gn3
 .byte   W12
 .byte   N08 ,Ds3 ,v092
 .byte   N08 ,Gn3
 .byte   W24
 .byte   N02 ,Ds3 ,v076
 .byte   N02 ,Gn3
 .byte   W12
 .byte   Ds3 ,v092
 .byte   N02 ,Gn3
 .byte   W12
 .byte   Ds3 ,v076
 .byte   N02 ,Gn3
 .byte   W12
 .byte   PEND 
@ 049   ----------------------------------------
 .byte   PATT
  .word Label_11_012BC5F5
@ 050   ----------------------------------------
 .byte   N04 ,Cs3 ,v096
 .byte   N04 ,Gn3
 .byte   W12
 .byte   N02 ,Cs3 ,v080
 .byte   N02 ,Gn3
 .byte   W12
 .byte   Cs3 ,v076
 .byte   N02 ,Gn3
 .byte   W12
 .byte   N08 ,Cs3 ,v092
 .byte   N08 ,Gn3
 .byte   W24
 .byte   N02 ,Cs3 ,v076
 .byte   N02 ,Gn3
 .byte   W12
 .byte   Cs3 ,v092
 .byte   N02 ,Gn3
 .byte   W12
 .byte   Cs3 ,v076
 .byte   N02 ,Gn3
 .byte   W12
@ 051   ----------------------------------------
 .byte   N04 ,Cs3 ,v096
 .byte   N04 ,Gn3
 .byte   N04 ,An3
 .byte   W12
 .byte   N02 ,Cs3 ,v080
 .byte   N02 ,Gn3
 .byte   N02 ,An3
 .byte   W12
 .byte   Cs3 ,v076
 .byte   N02 ,Gn3
 .byte   N02 ,An3
 .byte   W12
 .byte   N08 ,Cs3 ,v092
 .byte   N08 ,Gn3
 .byte   N08 ,An3
 .byte   W24
 .byte   N02 ,Cs3 ,v076
 .byte   N02 ,Gn3
 .byte   N02 ,An3
 .byte   W12
 .byte   Cs3 ,v092
 .byte   N02 ,Gn3
 .byte   N02 ,An3
 .byte   W12
 .byte   Cs3 ,v076
 .byte   N02 ,Gn3
 .byte   N02 ,An3
 .byte   W12
@ 052   ----------------------------------------
 .byte   N04 ,Dn3 ,v108
 .byte   N04 ,Fn3
 .byte   N04 ,An3
 .byte   W12
 .byte   N12 ,Dn2
 .byte   N12 ,Fn2
 .byte   W24
 .byte   N06 ,Dn2
 .byte   N06 ,Fn2
 .byte   W24
 .byte   N12 ,Dn2
 .byte   N12 ,Fn2
 .byte   W24
 .byte   N48 ,Dn2
 .byte   N48 ,Fn2
 .byte   W12
@ 053   ----------------------------------------
 .byte   PATT
  .word Label_11_012BC2F8
@ 054   ----------------------------------------
 .byte   PATT
  .word Label_11_012BC306
@ 055   ----------------------------------------
 .byte   PATT
  .word Label_11_012BC321
@ 056   ----------------------------------------
 .byte   W03
 .byte   GOTO
  .word Label_11_012BC32F
 .byte   FINE

@**************** Track 13 (Midi-Chn.12) ****************@

song012D_013:
@ 000   ----------------------------------------
 .byte   KEYSH , song012D_key+0
 .byte   VOICE , 47
 .byte   VOL , 21*song012D_mvl/mxv
 .byte   PAN , c_v-14
 .byte   N12 ,Dn1 ,v112
 .byte   W96
@ 001   ----------------------------------------
Label_12_012BC6BC:
 .byte   W60
 .byte   N12 ,Dn1 ,v112
 .byte   W24
 .byte   N12
 .byte   W12
 .byte   PEND 
@ 002   ----------------------------------------
 .byte   N12
 .byte   W96
@ 003   ----------------------------------------
 .byte   PATT
  .word Label_12_012BC6BC
@ 004   ----------------------------------------
Label_12_012BC6CB:
 .byte   N12 ,As1 ,v112
 .byte   W36
 .byte   As1 ,v100
 .byte   W24
 .byte   Fn1 ,v112
 .byte   W12
 .byte   As1
 .byte   W24
 .byte   PEND 
@ 005   ----------------------------------------
Label_12_012BC6D8:
 .byte   N12 ,As1 ,v112
 .byte   W12
 .byte   As1 ,v100
 .byte   W24
 .byte   N12
 .byte   W24
 .byte   Fn1 ,v112
 .byte   W12
 .byte   As1 ,v100
 .byte   W24
 .byte   PEND 
@ 006   ----------------------------------------
Label_12_012BC6E8:
 .byte   N12 ,Cn2 ,v112
 .byte   W36
 .byte   Cn2 ,v100
 .byte   W24
 .byte   Gn1 ,v112
 .byte   W12
 .byte   Cn2
 .byte   W24
 .byte   PEND 
@ 007   ----------------------------------------
Label_12_012BC6F5:
 .byte   N12 ,Cn2 ,v112
 .byte   W12
 .byte   Cn2 ,v100
 .byte   W24
 .byte   Gn1
 .byte   W24
 .byte   Gn1 ,v112
 .byte   W12
 .byte   Cn2 ,v100
 .byte   W12
 .byte   Gn1
 .byte   W12
 .byte   PEND 
@ 008   ----------------------------------------
 .byte   PATT
  .word Label_12_012BC6CB
@ 009   ----------------------------------------
 .byte   PATT
  .word Label_12_012BC6D8
@ 010   ----------------------------------------
 .byte   PATT
  .word Label_12_012BC6E8
@ 011   ----------------------------------------
Label_12_012BC716:
 .byte   N12 ,Cn2 ,v112
 .byte   W12
 .byte   Cn2 ,v100
 .byte   W24
 .byte   Gn1
 .byte   W24
 .byte   Gn1 ,v112
 .byte   W12
 .byte   Cn2 ,v100
 .byte   W12
 .byte   N04 ,Gn1
 .byte   W04
 .byte   Gn1 ,v112
 .byte   W04
 .byte   Gn1 ,v120
 .byte   W04
 .byte   PEND 
@ 012   ----------------------------------------
Label_12_012BC72F:
 .byte   N12 ,Gn1 ,v120
 .byte   W36
 .byte   Gn1 ,v100
 .byte   W24
 .byte   Dn1 ,v112
 .byte   W12
 .byte   Gn1
 .byte   W24
 .byte   PEND 
@ 013   ----------------------------------------
Label_12_012BC73C:
 .byte   N12 ,Gn1 ,v112
 .byte   W12
 .byte   Gn1 ,v100
 .byte   W24
 .byte   N12
 .byte   W24
 .byte   Dn1 ,v112
 .byte   W12
 .byte   Gn1 ,v100
 .byte   W24
 .byte   PEND 
@ 014   ----------------------------------------
Label_12_012BC74C:
 .byte   N12 ,Dn2 ,v112
 .byte   W36
 .byte   Dn2 ,v100
 .byte   W24
 .byte   An1 ,v112
 .byte   W12
 .byte   Dn2
 .byte   W24
 .byte   PEND 
@ 015   ----------------------------------------
Label_12_012BC759:
 .byte   N12 ,Dn2 ,v112
 .byte   W12
 .byte   Dn2 ,v100
 .byte   W24
 .byte   An1
 .byte   W24
 .byte   An1 ,v112
 .byte   W12
 .byte   Dn2 ,v100
 .byte   W12
 .byte   An1
 .byte   W12
 .byte   PEND 
@ 016   ----------------------------------------
 .byte   PATT
  .word Label_12_012BC74C
@ 017   ----------------------------------------
 .byte   PATT
  .word Label_12_012BC759
@ 018   ----------------------------------------
 .byte   PATT
  .word Label_12_012BC6CB
@ 019   ----------------------------------------
 .byte   PATT
  .word Label_12_012BC6D8
@ 020   ----------------------------------------
 .byte   PATT
  .word Label_12_012BC6E8
@ 021   ----------------------------------------
 .byte   PATT
  .word Label_12_012BC6F5
@ 022   ----------------------------------------
 .byte   PATT
  .word Label_12_012BC6CB
@ 023   ----------------------------------------
 .byte   PATT
  .word Label_12_012BC6D8
@ 024   ----------------------------------------
 .byte   PATT
  .word Label_12_012BC6E8
@ 025   ----------------------------------------
 .byte   PATT
  .word Label_12_012BC716
@ 026   ----------------------------------------
 .byte   PATT
  .word Label_12_012BC72F
@ 027   ----------------------------------------
 .byte   PATT
  .word Label_12_012BC73C
@ 028   ----------------------------------------
 .byte   PATT
  .word Label_12_012BC74C
@ 029   ----------------------------------------
 .byte   PATT
  .word Label_12_012BC759
@ 030   ----------------------------------------
 .byte   PATT
  .word Label_12_012BC74C
@ 031   ----------------------------------------
 .byte   PATT
  .word Label_12_012BC759
@ 032   ----------------------------------------
 .byte   PATT
  .word Label_12_012BC74C
@ 033   ----------------------------------------
 .byte   PATT
  .word Label_12_012BC759
@ 034   ----------------------------------------
 .byte   PATT
  .word Label_12_012BC6E8
@ 035   ----------------------------------------
 .byte   PATT
  .word Label_12_012BC6F5
@ 036   ----------------------------------------
 .byte   PATT
  .word Label_12_012BC6CB
@ 037   ----------------------------------------
 .byte   N12 ,As1 ,v112
 .byte   W12
 .byte   As1 ,v100
 .byte   W36
 .byte   Fn1 ,v120
 .byte   W16
 .byte   Fn1 ,v112
 .byte   W16
 .byte   Fn1 ,v127
 .byte   W16
@ 038   ----------------------------------------
 .byte   An1 ,v120
 .byte   W36
 .byte   An1 ,v100
 .byte   W24
 .byte   En1 ,v112
 .byte   W12
 .byte   An1
 .byte   W24
@ 039   ----------------------------------------
 .byte   N12
 .byte   W12
 .byte   An1 ,v100
 .byte   W24
 .byte   En1
 .byte   W24
 .byte   En1 ,v112
 .byte   W12
 .byte   An1 ,v100
 .byte   W12
 .byte   En1
 .byte   W12
@ 040   ----------------------------------------
 .byte   PATT
  .word Label_12_012BC74C
@ 041   ----------------------------------------
 .byte   N12 ,Dn2 ,v112
 .byte   W12
 .byte   Dn2 ,v100
 .byte   W24
 .byte   An1
 .byte   W24
 .byte   An1 ,v112
 .byte   W12
 .byte   Dn2
 .byte   W12
 .byte   An1 ,v120
 .byte   W12
@ 042   ----------------------------------------
 .byte   Gn1 ,v127
 .byte   W96
@ 043   ----------------------------------------
 .byte   W96
@ 044   ----------------------------------------
 .byte   W96
@ 045   ----------------------------------------
 .byte   W96
@ 046   ----------------------------------------
 .byte   W96
@ 047   ----------------------------------------
 .byte   W96
@ 048   ----------------------------------------
 .byte   W96
@ 049   ----------------------------------------
 .byte   W96
@ 050   ----------------------------------------
 .byte   W96
@ 051   ----------------------------------------
 .byte   W84
 .byte   N04 ,An1 ,v108
 .byte   W04
 .byte   An1 ,v116
 .byte   W04
 .byte   An1 ,v127
 .byte   W04
@ 052   ----------------------------------------
 .byte   N12 ,Dn1
 .byte   W96
@ 053   ----------------------------------------
 .byte   PATT
  .word Label_12_012BC6BC
@ 054   ----------------------------------------
 .byte   N12 ,Dn1 ,v112
 .byte   W96
@ 055   ----------------------------------------
 .byte   PATT
  .word Label_12_012BC6BC
@ 056   ----------------------------------------
 .byte   W03
 .byte   GOTO
  .word Label_12_012BC6CB
 .byte   FINE

@**************** Track 14 (Midi-Chn.13) ****************@

song012D_014:
@ 000   ----------------------------------------
 .byte   KEYSH , song012D_key+0
 .byte   VOICE , 48
 .byte   VOL , 21*song012D_mvl/mxv
 .byte   PAN , c_v+16
 .byte   N12 ,Dn1 ,v120
 .byte   N12 ,Dn2
 .byte   W96
@ 001   ----------------------------------------
Label_13_012BC850:
 .byte   W60
 .byte   N12 ,Dn1 ,v120
 .byte   N12 ,Dn2
 .byte   W24
 .byte   Dn1
 .byte   N12 ,Dn2
 .byte   W12
 .byte   PEND 
@ 002   ----------------------------------------
 .byte   Dn1
 .byte   N12 ,Dn2
 .byte   W96
@ 003   ----------------------------------------
 .byte   PATT
  .word Label_13_012BC850
@ 004   ----------------------------------------
Label_13_012BC865:
 .byte   N12 ,As0 ,v120
 .byte   N12 ,As1
 .byte   W36
 .byte   As0
 .byte   N12 ,As1
 .byte   W36
 .byte   As0
 .byte   N12 ,As1
 .byte   W24
 .byte   PEND 
@ 005   ----------------------------------------
 .byte   PATT
  .word Label_13_012BC865
@ 006   ----------------------------------------
Label_13_012BC879:
 .byte   N12 ,Cn1 ,v120
 .byte   N12 ,Cn2
 .byte   W36
 .byte   Cn1
 .byte   N12 ,Cn2
 .byte   W36
 .byte   Cn1
 .byte   N12 ,Cn2
 .byte   W24
 .byte   PEND 
@ 007   ----------------------------------------
 .byte   PATT
  .word Label_13_012BC879
@ 008   ----------------------------------------
 .byte   PATT
  .word Label_13_012BC865
@ 009   ----------------------------------------
 .byte   PATT
  .word Label_13_012BC865
@ 010   ----------------------------------------
 .byte   PATT
  .word Label_13_012BC879
@ 011   ----------------------------------------
 .byte   PATT
  .word Label_13_012BC879
@ 012   ----------------------------------------
Label_13_012BC8A1:
 .byte   N12 ,Gn0 ,v120
 .byte   N12 ,Gn1
 .byte   W36
 .byte   Gn0
 .byte   N12 ,Gn1
 .byte   W36
 .byte   Gn0
 .byte   N12 ,Gn1
 .byte   W24
 .byte   PEND 
@ 013   ----------------------------------------
 .byte   PATT
  .word Label_13_012BC8A1
@ 014   ----------------------------------------
Label_13_012BC8B5:
 .byte   N12 ,Dn1 ,v120
 .byte   N12 ,Dn2
 .byte   W36
 .byte   Dn1
 .byte   N12 ,Dn2
 .byte   W36
 .byte   Dn1
 .byte   N12 ,Dn2
 .byte   W24
 .byte   PEND 
@ 015   ----------------------------------------
 .byte   PATT
  .word Label_13_012BC8B5
@ 016   ----------------------------------------
 .byte   PATT
  .word Label_13_012BC8B5
@ 017   ----------------------------------------
 .byte   PATT
  .word Label_13_012BC8B5
@ 018   ----------------------------------------
 .byte   PATT
  .word Label_13_012BC865
@ 019   ----------------------------------------
 .byte   PATT
  .word Label_13_012BC865
@ 020   ----------------------------------------
 .byte   PATT
  .word Label_13_012BC879
@ 021   ----------------------------------------
 .byte   PATT
  .word Label_13_012BC879
@ 022   ----------------------------------------
 .byte   PATT
  .word Label_13_012BC865
@ 023   ----------------------------------------
 .byte   PATT
  .word Label_13_012BC865
@ 024   ----------------------------------------
 .byte   PATT
  .word Label_13_012BC879
@ 025   ----------------------------------------
 .byte   PATT
  .word Label_13_012BC879
@ 026   ----------------------------------------
 .byte   PATT
  .word Label_13_012BC8A1
@ 027   ----------------------------------------
 .byte   PATT
  .word Label_13_012BC8A1
@ 028   ----------------------------------------
 .byte   PATT
  .word Label_13_012BC8B5
@ 029   ----------------------------------------
 .byte   PATT
  .word Label_13_012BC8B5
@ 030   ----------------------------------------
 .byte   PATT
  .word Label_13_012BC8B5
@ 031   ----------------------------------------
 .byte   PATT
  .word Label_13_012BC8B5
@ 032   ----------------------------------------
 .byte   PATT
  .word Label_13_012BC8B5
@ 033   ----------------------------------------
 .byte   PATT
  .word Label_13_012BC8B5
@ 034   ----------------------------------------
 .byte   PATT
  .word Label_13_012BC879
@ 035   ----------------------------------------
 .byte   PATT
  .word Label_13_012BC879
@ 036   ----------------------------------------
 .byte   PATT
  .word Label_13_012BC865
@ 037   ----------------------------------------
 .byte   N12 ,As0 ,v120
 .byte   N12 ,As1
 .byte   W36
 .byte   As0
 .byte   N12 ,As1
 .byte   W12
 .byte   As0
 .byte   N12 ,As1
 .byte   W16
 .byte   N08 ,As0
 .byte   N08 ,As1
 .byte   W16
 .byte   As0
 .byte   N08 ,As1
 .byte   W16
@ 038   ----------------------------------------
Label_13_012BC949:
 .byte   N12 ,An0 ,v120
 .byte   N12 ,An1
 .byte   W36
 .byte   An0
 .byte   N12 ,An1
 .byte   W36
 .byte   An0
 .byte   N12 ,An1
 .byte   W24
 .byte   PEND 
@ 039   ----------------------------------------
 .byte   PATT
  .word Label_13_012BC949
@ 040   ----------------------------------------
 .byte   PATT
  .word Label_13_012BC8B5
@ 041   ----------------------------------------
 .byte   PATT
  .word Label_13_012BC8B5
@ 042   ----------------------------------------
 .byte   W96
@ 043   ----------------------------------------
 .byte   W96
@ 044   ----------------------------------------
 .byte   W96
@ 045   ----------------------------------------
 .byte   W96
@ 046   ----------------------------------------
 .byte   W96
@ 047   ----------------------------------------
 .byte   W96
@ 048   ----------------------------------------
 .byte   W96
@ 049   ----------------------------------------
 .byte   W96
@ 050   ----------------------------------------
 .byte   W96
@ 051   ----------------------------------------
 .byte   W96
@ 052   ----------------------------------------
 .byte   N12 ,Dn1 ,v120
 .byte   N12 ,Dn2
 .byte   W96
@ 053   ----------------------------------------
 .byte   PATT
  .word Label_13_012BC850
@ 054   ----------------------------------------
 .byte   N12 ,Dn1 ,v120
 .byte   N12 ,Dn2
 .byte   W96
@ 055   ----------------------------------------
 .byte   PATT
  .word Label_13_012BC850
@ 056   ----------------------------------------
 .byte   W03
 .byte   GOTO
  .word Label_13_012BC865
 .byte   FINE

@**************** Track 15 (Midi-Chn.14) ****************@

song012D_015:
@ 000   ----------------------------------------
 .byte   KEYSH , song012D_key+0
 .byte   VOICE , 14
 .byte   VOL , 19*song012D_mvl/mxv
 .byte   PAN , c_v-24
 .byte   W96
@ 001   ----------------------------------------
 .byte   W96
@ 002   ----------------------------------------
 .byte   W96
@ 003   ----------------------------------------
 .byte   W96
@ 004   ----------------------------------------
Label_14_012BC99A:
 .byte   N96 ,Fn3 ,v112
 .byte   N96 ,Dn4 ,v120
 .byte   W96
 .byte   PEND 
@ 005   ----------------------------------------
 .byte   W96
@ 006   ----------------------------------------
Label_14_012BC9A3:
 .byte   N96 ,Gn3 ,v112
 .byte   N96 ,Cn4 ,v120
 .byte   W96
 .byte   PEND 
@ 007   ----------------------------------------
 .byte   W96
@ 008   ----------------------------------------
 .byte   PATT
  .word Label_14_012BC99A
@ 009   ----------------------------------------
 .byte   W96
@ 010   ----------------------------------------
 .byte   PATT
  .word Label_14_012BC9A3
@ 011   ----------------------------------------
 .byte   W96
@ 012   ----------------------------------------
Label_14_012BC9B8:
 .byte   N96 ,Gn3 ,v112
 .byte   N96 ,Dn4 ,v120
 .byte   W96
 .byte   PEND 
@ 013   ----------------------------------------
 .byte   W96
@ 014   ----------------------------------------
 .byte   W96
@ 015   ----------------------------------------
 .byte   W96
@ 016   ----------------------------------------
 .byte   W96
@ 017   ----------------------------------------
 .byte   W48
 .byte   N48 ,Fn3 ,v100
 .byte   N48 ,Dn4 ,v112
 .byte   W48
@ 018   ----------------------------------------
 .byte   PATT
  .word Label_14_012BC99A
@ 019   ----------------------------------------
 .byte   W96
@ 020   ----------------------------------------
 .byte   PATT
  .word Label_14_012BC9A3
@ 021   ----------------------------------------
 .byte   W96
@ 022   ----------------------------------------
 .byte   PATT
  .word Label_14_012BC99A
@ 023   ----------------------------------------
 .byte   W96
@ 024   ----------------------------------------
 .byte   PATT
  .word Label_14_012BC9A3
@ 025   ----------------------------------------
 .byte   W96
@ 026   ----------------------------------------
 .byte   PATT
  .word Label_14_012BC9B8
@ 027   ----------------------------------------
 .byte   W96
@ 028   ----------------------------------------
 .byte   W96
@ 029   ----------------------------------------
 .byte   W96
@ 030   ----------------------------------------
 .byte   W96
@ 031   ----------------------------------------
 .byte   W48
 .byte   N48 ,Fn3 ,v112
 .byte   N48 ,Dn4 ,v120
 .byte   W48
@ 032   ----------------------------------------
 .byte   PATT
  .word Label_14_012BC99A
@ 033   ----------------------------------------
 .byte   W96
@ 034   ----------------------------------------
 .byte   W96
@ 035   ----------------------------------------
 .byte   W96
@ 036   ----------------------------------------
 .byte   PATT
  .word Label_14_012BC99A
@ 037   ----------------------------------------
 .byte   W96
@ 038   ----------------------------------------
 .byte   W96
@ 039   ----------------------------------------
 .byte   W96
@ 040   ----------------------------------------
 .byte   W96
@ 041   ----------------------------------------
 .byte   W96
@ 042   ----------------------------------------
 .byte   PATT
  .word Label_14_012BC9B8
@ 043   ----------------------------------------
 .byte   W96
@ 044   ----------------------------------------
 .byte   W96
@ 045   ----------------------------------------
 .byte   W96
@ 046   ----------------------------------------
 .byte   N48 ,Gn3 ,v112
 .byte   N48 ,Cn4 ,v120
 .byte   W48
 .byte   Gn3 ,v100
 .byte   W48
@ 047   ----------------------------------------
 .byte   Dn4
 .byte   W48
 .byte   Cn4
 .byte   W48
@ 048   ----------------------------------------
 .byte   Gn4
 .byte   W48
 .byte   Dn4
 .byte   W48
@ 049   ----------------------------------------
 .byte   Cn4
 .byte   W48
 .byte   Gn3
 .byte   W48
@ 050   ----------------------------------------
 .byte   Gn4
 .byte   W48
 .byte   En4
 .byte   W48
@ 051   ----------------------------------------
 .byte   Cs4
 .byte   W48
 .byte   An3
 .byte   W48
@ 052   ----------------------------------------
 .byte   N96 ,An3 ,v112
 .byte   N96 ,Dn4 ,v120
 .byte   W96
@ 053   ----------------------------------------
 .byte   W96
@ 054   ----------------------------------------
 .byte   W96
@ 055   ----------------------------------------
 .byte   W96
@ 056   ----------------------------------------
 .byte   W03
 .byte   GOTO
  .word Label_14_012BC99A
 .byte   FINE

@******************************************************@
	.align	2

song012D:
	.byte	15	@ NumTrks
	.byte	0	@ NumBlks
	.byte	song012D_pri	@ Priority
	.byte	song012D_rev	@ Reverb.
    
	.word	song012D_grp
    
	.word	song012D_001
	.word	song012D_002
	.word	song012D_003
	.word	song012D_004
	.word	song012D_005
	.word	song012D_006
	.word	song012D_007
	.word	song012D_008
	.word	song012D_009
	.word	song012D_010
	.word	song012D_011
	.word	song012D_012
	.word	song012D_013
	.word	song012D_014
	.word	song012D_015

	.end
