//Event file generated from Sappy .s format.
	#include "MPlayDef.event"

	#define	song012D_grp  voicegroup000
	#define	song012D_pri  0
	#define	song012D_rev  0
	#define	song012D_mvl  127
	#define	song012D_key  0
	#define	song012D_tbs  1
	#define	song012D_exg  0
	#define	song012D_cmp  1

	// .rodata
	//	song012D
	ALIGN 4


//**************** Track 1 (Midi-Chn.0) ****************//

song012D_001:
// 000   ----------------------------------------
 BYTE   KEYSH   song012D_key+0
 BYTE   TEMPO   144*song012D_tbs/2
 BYTE   VOICE   48
 BYTE   VOL   21*song012D_mvl/mxv
 BYTE   PAN   c_v+2
 BYTE   N12  An1  v100
 BYTE   N12  Dn2  v127
 BYTE   W12
 BYTE   N24  Fn2  v100
 BYTE   N24  An2  v127
 BYTE   W24
 BYTE   En2  v100
 BYTE   N24  Gn2  v127
 BYTE   W24
 BYTE   An2  v100
 BYTE   N24  Dn3  v127
 BYTE   W24
 BYTE   N96  Fn2  v100
 BYTE   N96  An2  v127
 BYTE   W12
// 001   ----------------------------------------
 BYTE   W96
// 002   ----------------------------------------
Label_0_012BB180:
 BYTE   N12  An1  v100
 BYTE   N12  Dn2  v127
 BYTE   W12
 BYTE   N24  Fn2  v100
 BYTE   N24  An2  v127
 BYTE   W24
 BYTE   En2  v100
 BYTE   N24  Gn2  v127
 BYTE   W24
 BYTE   An2  v100
 BYTE   N24  Dn3  v127
 BYTE   W24
 BYTE   N96  An2  v100
 BYTE   N96  En3  v127
 BYTE   W12
 BYTE   PEND 
// 003   ----------------------------------------
 BYTE   W96
// 004   ----------------------------------------
Label_0_012BB1A3:
 BYTE   W96
// 005   ----------------------------------------
 BYTE   W96
// 006   ----------------------------------------
 BYTE   W96
// 007   ----------------------------------------
 BYTE   W96
// 008   ----------------------------------------
 BYTE   W96
// 009   ----------------------------------------
 BYTE   W96
// 010   ----------------------------------------
 BYTE   W96
// 011   ----------------------------------------
Label_0_012BB1AA:
 BYTE   N36  Cn3  v120
 BYTE   N36  Gn3  v127
 BYTE   W36
 BYTE   N54  Gn2  v120
 BYTE   N54  Cn3  v127
 BYTE   W60
 BYTE   PEND 
// 012   ----------------------------------------
Label_0_012BB1B9:
 BYTE   N36  Gn2  v112
 BYTE   N36  Dn3  v120
 BYTE   W36
 BYTE   Cn3  v112
 BYTE   N36  En3  v120
 BYTE   W36
 BYTE   N24  Dn3  v112
 BYTE   N24  Fn3  v120
 BYTE   W24
 BYTE   PEND 
// 013   ----------------------------------------
 BYTE   N96  En3  v112
 BYTE   N96  Gn3  v120
 BYTE   W96
// 014   ----------------------------------------
Label_0_012BB1D5:
 BYTE   TIE  An2  v112
 BYTE   TIE  Dn3  v120
 BYTE   W96
 BYTE   PEND 
// 015   ----------------------------------------
 BYTE   W96
// 016   ----------------------------------------
 BYTE   EOT
 BYTE   An2  v062
 BYTE   W96
// 017   ----------------------------------------
 BYTE   W96
// 018   ----------------------------------------
 BYTE   W96
// 019   ----------------------------------------
 BYTE   W96
// 020   ----------------------------------------
 BYTE   W96
// 021   ----------------------------------------
 BYTE   W96
// 022   ----------------------------------------
 BYTE   W96
// 023   ----------------------------------------
 BYTE   W96
// 024   ----------------------------------------
 BYTE   W96
// 025   ----------------------------------------
 BYTE   PATT
  POIN2 Label_0_012BB1AA
// 026   ----------------------------------------
 BYTE   PATT
  POIN2 Label_0_012BB1B9
// 027   ----------------------------------------
 BYTE   N96  En3  v112
 BYTE   N96  Gn3  v120
 BYTE   W96
// 028   ----------------------------------------
 BYTE   PATT
  POIN2 Label_0_012BB1D5
// 029   ----------------------------------------
 BYTE   W96
// 030   ----------------------------------------
 BYTE   EOT
 BYTE   An2  v062
 BYTE   W96
// 031   ----------------------------------------
 BYTE   W96
// 032   ----------------------------------------
 BYTE   W96
// 033   ----------------------------------------
 BYTE   W96
// 034   ----------------------------------------
 BYTE   W96
// 035   ----------------------------------------
 BYTE   W96
// 036   ----------------------------------------
 BYTE   W96
// 037   ----------------------------------------
 BYTE   W96
// 038   ----------------------------------------
 BYTE   W96
// 039   ----------------------------------------
 BYTE   W96
// 040   ----------------------------------------
 BYTE   W96
// 041   ----------------------------------------
 BYTE   W96
// 042   ----------------------------------------
 BYTE   W96
// 043   ----------------------------------------
 BYTE   W96
// 044   ----------------------------------------
 BYTE   W96
// 045   ----------------------------------------
 BYTE   W96
// 046   ----------------------------------------
 BYTE   W96
// 047   ----------------------------------------
 BYTE   W96
// 048   ----------------------------------------
 BYTE   W96
// 049   ----------------------------------------
 BYTE   W96
// 050   ----------------------------------------
 BYTE   W96
// 051   ----------------------------------------
 BYTE   W96
// 052   ----------------------------------------
 BYTE   N12  An1  v100
 BYTE   N12  Dn2  v127
 BYTE   W12
 BYTE   N24  Fn2  v100
 BYTE   N24  An2  v127
 BYTE   W24
 BYTE   En2  v100
 BYTE   N24  Gn2  v127
 BYTE   W24
 BYTE   An2  v100
 BYTE   N24  Dn3  v127
 BYTE   W24
 BYTE   N96  Fn2  v100
 BYTE   N96  An2  v127
 BYTE   W12
// 053   ----------------------------------------
 BYTE   W96
// 054   ----------------------------------------
 BYTE   PATT
  POIN2 Label_0_012BB180
// 055   ----------------------------------------
 BYTE   W96
// 056   ----------------------------------------
 BYTE   W03
 BYTE   GoTo
  POIN2 Label_0_012BB1A3
 BYTE   FINE

//**************** Track 2 (Midi-Chn.1) ****************//

song012D_002:
// 000   ----------------------------------------
 BYTE   KEYSH   song012D_key+0
 BYTE   VOICE   48
 BYTE   VOL   19*song012D_mvl/mxv
 BYTE   PAN   c_v-14
 BYTE   W96
// 001   ----------------------------------------
 BYTE   W96
// 002   ----------------------------------------
 BYTE   W96
// 003   ----------------------------------------
Label_1_012BB254:
 BYTE   W72
 BYTE   N04  Gn3  v112
 BYTE   W04
 BYTE   An3
 BYTE   W04
 BYTE   As3
 BYTE   W04
 BYTE   Cn4
 BYTE   W04
 BYTE   Dn4
 BYTE   W04
 BYTE   En4  v120
 BYTE   W04
 BYTE   PEND 
// 004   ----------------------------------------
Label_1_012BB265:
 BYTE   N60  Fn4  v100
 BYTE   W60
 BYTE   N12  En4
 BYTE   W12
 BYTE   Dn4
 BYTE   W12
 BYTE   En4
 BYTE   W12
 BYTE   PEND 
// 005   ----------------------------------------
Label_1_012BB271:
 BYTE   N36  Fn4  v100
 BYTE   W36
 BYTE   Gn4
 BYTE   W36
 BYTE   N24  An4
 BYTE   W24
 BYTE   PEND 
// 006   ----------------------------------------
 BYTE   N36  Dn4
 BYTE   W36
 BYTE   An4
 BYTE   W36
 BYTE   N24  Gn4
 BYTE   W24
// 007   ----------------------------------------
Label_1_012BB283:
 BYTE   N36  As4  v100
 BYTE   W36
 BYTE   An4
 BYTE   W36
 BYTE   N24  Gn4
 BYTE   W24
 BYTE   PEND 
// 008   ----------------------------------------
 BYTE   N36  Fn4
 BYTE   W36
 BYTE   N84  Dn4
 BYTE   W60
// 009   ----------------------------------------
 BYTE   W36
 BYTE   N36  En4
 BYTE   W36
 BYTE   N24  Fn4
 BYTE   W24
// 010   ----------------------------------------
Label_1_012BB29A:
 BYTE   N36  Gn4  v100
 BYTE   W36
 BYTE   TIE  Cn4  v112
 BYTE   W60
 BYTE   PEND 
// 011   ----------------------------------------
 BYTE   W60
 BYTE   EOT
 BYTE   W12
 BYTE   N06  Gn4  v108
 BYTE   W06
 BYTE   An4  v096
 BYTE   W06
 BYTE   As4
 BYTE   W06
 BYTE   Cn5
 BYTE   W06
// 012   ----------------------------------------
 BYTE   W96
// 013   ----------------------------------------
 BYTE   W96
// 014   ----------------------------------------
 BYTE   W96
// 015   ----------------------------------------
 BYTE   W96
// 016   ----------------------------------------
 BYTE   W96
// 017   ----------------------------------------
 BYTE   PATT
  POIN2 Label_1_012BB254
// 018   ----------------------------------------
 BYTE   PATT
  POIN2 Label_1_012BB265
// 019   ----------------------------------------
 BYTE   PATT
  POIN2 Label_1_012BB271
// 020   ----------------------------------------
 BYTE   PATT
  POIN2 Label_1_012BB283
// 021   ----------------------------------------
 BYTE   N36  Cn5  v100
 BYTE   W36
 BYTE   An4
 BYTE   W36
 BYTE   N24  Gn4
 BYTE   W24
// 022   ----------------------------------------
 BYTE   N36  Fn4
 BYTE   W36
 BYTE   N84  An4
 BYTE   W60
// 023   ----------------------------------------
 BYTE   W36
 BYTE   N36  As4
 BYTE   W36
 BYTE   N24  An4
 BYTE   W24
// 024   ----------------------------------------
 BYTE   PATT
  POIN2 Label_1_012BB29A
// 025   ----------------------------------------
 BYTE   W60
 BYTE   EOT
 BYTE   Cn4
 BYTE   W12
 BYTE   N06  Gn4  v108
 BYTE   W06
 BYTE   An4  v096
 BYTE   W06
 BYTE   As4
 BYTE   W06
 BYTE   Cn5
 BYTE   W06
// 026   ----------------------------------------
 BYTE   W96
// 027   ----------------------------------------
 BYTE   W96
// 028   ----------------------------------------
 BYTE   W96
// 029   ----------------------------------------
 BYTE   W96
// 030   ----------------------------------------
 BYTE   W96
// 031   ----------------------------------------
 BYTE   W96
// 032   ----------------------------------------
 BYTE   W96
// 033   ----------------------------------------
 BYTE   W96
// 034   ----------------------------------------
 BYTE   W96
// 035   ----------------------------------------
 BYTE   W96
// 036   ----------------------------------------
 BYTE   W96
// 037   ----------------------------------------
 BYTE   W96
// 038   ----------------------------------------
 BYTE   W96
// 039   ----------------------------------------
 BYTE   W96
// 040   ----------------------------------------
 BYTE   W96
// 041   ----------------------------------------
 BYTE   W72
 BYTE   N04  Cn4  v080
 BYTE   N04  En4  v092
 BYTE   W04
 BYTE   Dn4  v080
 BYTE   N04  Fs4  v092
 BYTE   W04
 BYTE   En4  v080
 BYTE   N04  Gn4  v092
 BYTE   W04
 BYTE   Fs4  v080
 BYTE   N04  An4  v092
 BYTE   W04
 BYTE   Gn4  v080
 BYTE   N04  Bn4  v092
 BYTE   W04
 BYTE   An4  v080
 BYTE   N04  Cn5  v100
 BYTE   W04
// 042   ----------------------------------------
 BYTE   TIE  Gn4  v092
 BYTE   TIE  Dn5
 BYTE   W96
// 043   ----------------------------------------
 BYTE   W96
// 044   ----------------------------------------
 BYTE   EOT
 BYTE   Gn4  v086
 BYTE   TIE  An3
 BYTE   N96  Fn4
 BYTE   W96
// 045   ----------------------------------------
 BYTE   N48
 BYTE   W48
 BYTE   EOT
 BYTE   An3
 BYTE   N48  An4  v080
 BYTE   N48  Cn5  v096
 BYTE   W48
// 046   ----------------------------------------
 BYTE   TIE  Cn5  v092
 BYTE   TIE  Gn5  v100
 BYTE   W96
// 047   ----------------------------------------
 BYTE   W48
 BYTE   EOT
 BYTE   Cn5  v091
 BYTE   N48  Gn4  v080
 BYTE   N48  Bn4  v092
 BYTE   W48
// 048   ----------------------------------------
 BYTE   N96  Gn4
 BYTE   N96  Cn5
 BYTE   W96
// 049   ----------------------------------------
 BYTE   Cn4
 BYTE   N96  Gn4
 BYTE   W96
// 050   ----------------------------------------
 BYTE   TIE  Cs4
 BYTE   TIE  Gn4
 BYTE   W96
// 051   ----------------------------------------
 BYTE   W96
// 052   ----------------------------------------
 BYTE   EOT
 BYTE   Cs4  v079
 BYTE   TIE  Dn4
 BYTE   TIE  Fn4
 BYTE   W48
 BYTE   W01
 BYTE   W01
 BYTE   W01
 BYTE   W01
 BYTE   W01
 BYTE   W01
 BYTE   W01
 BYTE   W01
 BYTE   W01
 BYTE   W01
 BYTE   W01
 BYTE   W02
 BYTE   W01
 BYTE   W01
 BYTE   W01
 BYTE   W02
 BYTE   W01
 BYTE   W01
 BYTE   W01
 BYTE   W02
 BYTE   W01
 BYTE   W01
 BYTE   W01
 BYTE   W02
 BYTE   W01
 BYTE   W01
 BYTE   W01
 BYTE   W02
 BYTE   W01
 BYTE   W01
 BYTE   W02
 BYTE   W01
 BYTE   W01
 BYTE   W01
 BYTE   W02
 BYTE   W01
 BYTE   W01
 BYTE   W01
 BYTE   W02
 BYTE   W01
// 053   ----------------------------------------
 BYTE   W01
 BYTE   W01
 BYTE   W02
 BYTE   W01
 BYTE   W01
 BYTE   W01
 BYTE   W02
 BYTE   W01
 BYTE   W01
 BYTE   W01
 BYTE   W02
 BYTE   W01
 BYTE   W01
 BYTE   W01
 BYTE   W02
 BYTE   W01
 BYTE   W01
 BYTE   W02
 BYTE   W01
 BYTE   W01
 BYTE   W01
 BYTE   W02
 BYTE   W01
 BYTE   W01
 BYTE   W01
 BYTE   W02
 BYTE   W01
 BYTE   W01
 BYTE   W01
 BYTE   W02
 BYTE   W01
 BYTE   W01
 BYTE   W01
 BYTE   W02
 BYTE   W01
 BYTE   W01
 BYTE   W01
 BYTE   W02
 BYTE   EOT
 BYTE   Dn4  v077
 BYTE   W48
// 054   ----------------------------------------
 BYTE   W96
// 055   ----------------------------------------
 BYTE   W72
 BYTE   N04  Gn3  v112
 BYTE   W04
 BYTE   An3
 BYTE   W04
 BYTE   As3
 BYTE   W04
 BYTE   Cn4
 BYTE   W04
 BYTE   Dn4
 BYTE   W04
 BYTE   En4  v120
 BYTE   W04
// 056   ----------------------------------------
 BYTE   W03
 BYTE   GoTo
  POIN2 Label_1_012BB265
 BYTE   FINE

//**************** Track 3 (Midi-Chn.2) ****************//

song012D_003:
// 000   ----------------------------------------
 BYTE   KEYSH   song012D_key+0
 BYTE   VOICE   48
 BYTE   VOL   19*song012D_mvl/mxv
 BYTE   PAN   c_v-6
 BYTE   W96
// 001   ----------------------------------------
 BYTE   W96
// 002   ----------------------------------------
 BYTE   W96
// 003   ----------------------------------------
 BYTE   W96
// 004   ----------------------------------------
Label_2_012BB3E2:
 BYTE   N60  Dn4  v100
 BYTE   W60
 BYTE   N12  Cn4
 BYTE   W12
 BYTE   As3
 BYTE   W12
 BYTE   Cn4
 BYTE   W12
 BYTE   PEND 
// 005   ----------------------------------------
Label_2_012BB3EE:
 BYTE   N36  Dn4  v100
 BYTE   W36
 BYTE   En4
 BYTE   W36
 BYTE   N24  Fn4
 BYTE   W24
 BYTE   PEND 
// 006   ----------------------------------------
 BYTE   N36  Gn3
 BYTE   W36
 BYTE   Fn4
 BYTE   W36
 BYTE   N24  En4
 BYTE   W24
// 007   ----------------------------------------
Label_2_012BB400:
 BYTE   N36  Gn4  v100
 BYTE   W36
 BYTE   Fn4
 BYTE   W36
 BYTE   N24  En4
 BYTE   W24
 BYTE   PEND 
// 008   ----------------------------------------
 BYTE   N36  Dn4
 BYTE   W36
 BYTE   N84  As3
 BYTE   W60
// 009   ----------------------------------------
 BYTE   W36
 BYTE   N36  Cn4
 BYTE   W36
 BYTE   N24  Dn4
 BYTE   W24
// 010   ----------------------------------------
Label_2_012BB417:
 BYTE   N36  En4  v100
 BYTE   W36
 BYTE   TIE  Gn3
 BYTE   W60
 BYTE   PEND 
// 011   ----------------------------------------
 BYTE   W60
 BYTE   EOT
 BYTE   W36
// 012   ----------------------------------------
 BYTE   W96
// 013   ----------------------------------------
 BYTE   W96
// 014   ----------------------------------------
 BYTE   W96
// 015   ----------------------------------------
 BYTE   W96
// 016   ----------------------------------------
 BYTE   W96
// 017   ----------------------------------------
 BYTE   W96
// 018   ----------------------------------------
 BYTE   PATT
  POIN2 Label_2_012BB3E2
// 019   ----------------------------------------
 BYTE   PATT
  POIN2 Label_2_012BB3EE
// 020   ----------------------------------------
 BYTE   PATT
  POIN2 Label_2_012BB400
// 021   ----------------------------------------
 BYTE   PATT
  POIN2 Label_2_012BB400
// 022   ----------------------------------------
 BYTE   N36  Dn4  v100
 BYTE   W36
 BYTE   N84  Fn4
 BYTE   W60
// 023   ----------------------------------------
 BYTE   W36
 BYTE   N36  Gn4
 BYTE   W36
 BYTE   N24  Fn4
 BYTE   W24
// 024   ----------------------------------------
 BYTE   PATT
  POIN2 Label_2_012BB417
// 025   ----------------------------------------
 BYTE   W60
 BYTE   EOT
 BYTE   Gn3
 BYTE   W36
// 026   ----------------------------------------
 BYTE   W96
// 027   ----------------------------------------
 BYTE   W96
// 028   ----------------------------------------
 BYTE   W96
// 029   ----------------------------------------
 BYTE   W96
// 030   ----------------------------------------
 BYTE   VOICE   52
 BYTE   VOL   21*song012D_mvl/mxv
 BYTE   PAN   c_v+16
 BYTE   W96
// 031   ----------------------------------------
 BYTE   W96
// 032   ----------------------------------------
Label_2_012BB45F:
 BYTE   TIE  Dn2  v092
 BYTE   TIE  An2
 BYTE   W96
 BYTE   PEND 
// 033   ----------------------------------------
 BYTE   W96
// 034   ----------------------------------------
 BYTE   EOT
 BYTE   Dn2  v057
Label_2_012BB46A:
 BYTE   TIE  Cn2  v092
 BYTE   TIE  Gn2
 BYTE   W96
 BYTE   PEND 
// 035   ----------------------------------------
 BYTE   W96
// 036   ----------------------------------------
 BYTE   EOT
 BYTE   Cn2  v055
// 037   ----------------------------------------
 BYTE   PATT
  POIN2 Label_2_012BB45F
// 038   ----------------------------------------
 BYTE   W42
 BYTE   EOT
 BYTE   Dn2  v057
 BYTE   W06
 BYTE   N12  Dn2  v092
 BYTE   N12  An2
 BYTE   W16
 BYTE   N09  Dn2
 BYTE   N09  An2
 BYTE   W16
 BYTE   Dn2
 BYTE   N09  An2
 BYTE   W16
// 039   ----------------------------------------
 BYTE   PATT
  POIN2 Label_2_012BB46A
// 040   ----------------------------------------
 BYTE   W96
// 041   ----------------------------------------
 BYTE   EOT
 BYTE   Cn2  v055
 BYTE   TIE  An3  v092
 BYTE   TIE  Dn4
 BYTE   W96
// 042   ----------------------------------------
 BYTE   W90
 BYTE   EOT
 BYTE   An3  v074
 BYTE   W06
// 043   ----------------------------------------
 BYTE   N96  Bn3  v080
 BYTE   TIE  Dn4
 BYTE   W01
 BYTE   W01
 BYTE   W01
 BYTE   W01
 BYTE   W01
 BYTE   W01
 BYTE   W01
 BYTE   W01
 BYTE   W01
 BYTE   W01
 BYTE   W01
 BYTE   W01
 BYTE   W01
 BYTE   W01
 BYTE   W01
 BYTE   W01
 BYTE   W01
 BYTE   W01
 BYTE   W01
 BYTE   W01
 BYTE   W01
 BYTE   W01
 BYTE   W01
 BYTE   W01
 BYTE   W01
 BYTE   W01
 BYTE   W01
 BYTE   W01
 BYTE   W01
 BYTE   W01
 BYTE   W01
 BYTE   W01
 BYTE   W01
 BYTE   W01
 BYTE   W01
 BYTE   W01
 BYTE   W01
 BYTE   W01
 BYTE   W01
 BYTE   W01
 BYTE   W01
 BYTE   W01
 BYTE   W01
 BYTE   W01
 BYTE   W01
 BYTE   W01
 BYTE   W01
 BYTE   W01
 BYTE   W48
// 044   ----------------------------------------
 BYTE   N96  Bn3
 BYTE   W96
// 045   ----------------------------------------
 BYTE   Gn3
 BYTE   W96
// 046   ----------------------------------------
 BYTE   An3
 BYTE   W96
// 047   ----------------------------------------
 BYTE   EOT
 BYTE   Dn4
 BYTE   TIE  Gn3
 BYTE   TIE  Cn4
 BYTE   W96
// 048   ----------------------------------------
 BYTE   W48
 BYTE   EOT
 BYTE   Gn3
 BYTE   N24  En3
 BYTE   W24
 BYTE   N24
 BYTE   W24
// 049   ----------------------------------------
 BYTE   N96  Gn3
 BYTE   W96
// 050   ----------------------------------------
 BYTE   An3
 BYTE   W96
// 051   ----------------------------------------
 BYTE   EOT
 BYTE   Cn4
 BYTE   N48  As3
 BYTE   TIE  Cs4
 BYTE   W48
 BYTE   N96  An3
 BYTE   W48
// 052   ----------------------------------------
 BYTE   W48
 BYTE   N48
 BYTE   W48
// 053   ----------------------------------------
 BYTE   EOT
 BYTE   Cs4
 BYTE   TIE  An3
 BYTE   TIE  Dn4  v092
 BYTE   W96
// 054   ----------------------------------------
 BYTE   W01
 BYTE   W01
 BYTE   W01
 BYTE   W01
 BYTE   W01
 BYTE   W01
 BYTE   W01
 BYTE   W01
 BYTE   W01
 BYTE   W01
 BYTE   W01
 BYTE   W01
 BYTE   W01
 BYTE   W01
 BYTE   W01
 BYTE   W01
 BYTE   W01
 BYTE   W01
 BYTE   W01
 BYTE   W01
 BYTE   W01
 BYTE   W01
 BYTE   W01
 BYTE   W01
 BYTE   W01
 BYTE   W01
 BYTE   W01
 BYTE   W01
 BYTE   W01
 BYTE   W01
 BYTE   W01
 BYTE   W01
 BYTE   W01
 BYTE   W01
 BYTE   W01
 BYTE   W01
 BYTE   W01
 BYTE   W01
 BYTE   W01
 BYTE   W01
 BYTE   W01
 BYTE   W01
 BYTE   W01
 BYTE   W01
 BYTE   W01
 BYTE   W01
 BYTE   W01
 BYTE   W01
 BYTE   W01
 BYTE   W01
 BYTE   W01
 BYTE   W01
 BYTE   W01
 BYTE   W01
 BYTE   W01
 BYTE   W01
 BYTE   W01
 BYTE   W01
 BYTE   W01
 BYTE   W01
 BYTE   W01
 BYTE   W01
 BYTE   W01
 BYTE   W01
 BYTE   W01
 BYTE   W01
 BYTE   W01
 BYTE   W01
 BYTE   W01
 BYTE   W01
 BYTE   W01
 BYTE   W01
 BYTE   W01
 BYTE   W01
 BYTE   W01
 BYTE   W01
 BYTE   W01
 BYTE   W01
 BYTE   W01
 BYTE   W01
 BYTE   W01
 BYTE   W01
 BYTE   W01
 BYTE   W01
 BYTE   W01
 BYTE   W01
 BYTE   W01
 BYTE   W01
 BYTE   W01
 BYTE   W01
 BYTE   EOT
 BYTE   An3  v074
 BYTE   W01
 BYTE   W01
 BYTE   W01
 BYTE   W01
 BYTE   W01
 BYTE   W01
// 055   ----------------------------------------
 BYTE   W96
// 056   ----------------------------------------
 BYTE   VOICE   48
 BYTE   VOL   21*song012D_mvl/mxv
 BYTE   PAN   c_v-6
 BYTE   W96
// 057   ----------------------------------------
 BYTE   W03
 BYTE   GoTo
  POIN2 Label_2_012BB3E2
 BYTE   FINE

//**************** Track 4 (Midi-Chn.3) ****************//

song012D_004:
// 000   ----------------------------------------
 BYTE   KEYSH   song012D_key+0
 BYTE   VOICE   48
 BYTE   VOL   18*song012D_mvl/mxv
 BYTE   PAN   c_v-14
 BYTE   W96
// 001   ----------------------------------------
 BYTE   W96
// 002   ----------------------------------------
 BYTE   W96
// 003   ----------------------------------------
 BYTE   W96
// 004   ----------------------------------------
Label_3_012BB586:
 BYTE   W96
// 005   ----------------------------------------
 BYTE   W96
// 006   ----------------------------------------
 BYTE   W96
// 007   ----------------------------------------
 BYTE   W96
// 008   ----------------------------------------
 BYTE   W96
// 009   ----------------------------------------
 BYTE   W96
// 010   ----------------------------------------
 BYTE   W96
// 011   ----------------------------------------
 BYTE   W96
// 012   ----------------------------------------
Label_3_012BB58E:
 BYTE   N12  Dn5  v116
 BYTE   W12
 BYTE   An4  v096
 BYTE   W12
 BYTE   En4
 BYTE   W12
 BYTE   Cn5  v116
 BYTE   W12
 BYTE   Gn4  v096
 BYTE   W12
 BYTE   Dn4
 BYTE   W12
 BYTE   En4  v116
 BYTE   W12
 BYTE   An4  v096
 BYTE   W12
 BYTE   PEND 
// 013   ----------------------------------------
 BYTE   PATT
  POIN2 Label_3_012BB58E
// 014   ----------------------------------------
Label_3_012BB5AB:
 BYTE   N12  Dn5  v116
 BYTE   W12
 BYTE   An4  v096
 BYTE   W12
 BYTE   En4
 BYTE   W12
 BYTE   Cn5  v116
 BYTE   W12
 BYTE   Gn4  v096
 BYTE   W12
 BYTE   Dn4
 BYTE   W12
 BYTE   Fn4  v116
 BYTE   W12
 BYTE   An4  v096
 BYTE   W12
 BYTE   PEND 
// 015   ----------------------------------------
 BYTE   PATT
  POIN2 Label_3_012BB5AB
// 016   ----------------------------------------
 BYTE   PATT
  POIN2 Label_3_012BB5AB
// 017   ----------------------------------------
 BYTE   PATT
  POIN2 Label_3_012BB5AB
// 018   ----------------------------------------
 BYTE   W96
// 019   ----------------------------------------
 BYTE   W96
// 020   ----------------------------------------
 BYTE   W96
// 021   ----------------------------------------
 BYTE   W96
// 022   ----------------------------------------
 BYTE   W96
// 023   ----------------------------------------
 BYTE   W96
// 024   ----------------------------------------
 BYTE   W96
// 025   ----------------------------------------
 BYTE   W96
// 026   ----------------------------------------
 BYTE   PATT
  POIN2 Label_3_012BB58E
// 027   ----------------------------------------
 BYTE   PATT
  POIN2 Label_3_012BB58E
// 028   ----------------------------------------
 BYTE   PATT
  POIN2 Label_3_012BB5AB
// 029   ----------------------------------------
 BYTE   PATT
  POIN2 Label_3_012BB5AB
// 030   ----------------------------------------
 BYTE   PATT
  POIN2 Label_3_012BB5AB
// 031   ----------------------------------------
 BYTE   PATT
  POIN2 Label_3_012BB5AB
// 032   ----------------------------------------
Label_3_012BB5F8:
 BYTE   N04  An3  v127
 BYTE   N04  Dn4
 BYTE   W12
 BYTE   An3  v112
 BYTE   N04  Dn4
 BYTE   W12
 BYTE   An3  v108
 BYTE   N04  Dn4
 BYTE   W12
 BYTE   An3  v127
 BYTE   N04  Dn4
 BYTE   W24
 BYTE   An3  v108
 BYTE   N04  Dn4
 BYTE   W12
 BYTE   An3  v127
 BYTE   N04  Dn4
 BYTE   W12
 BYTE   An3  v108
 BYTE   N04  Dn4
 BYTE   W12
 BYTE   PEND 
// 033   ----------------------------------------
 BYTE   An3
 BYTE   N04  Dn4
 BYTE   W12
 BYTE   An3  v127
 BYTE   N04  Dn4
 BYTE   W24
 BYTE   An3  v108
 BYTE   N04  Dn4
 BYTE   W12
 BYTE   An3  v127
 BYTE   N04  Dn4
 BYTE   W12
 BYTE   An3  v108
 BYTE   N04  Dn4
 BYTE   W12
 BYTE   An3  v120
 BYTE   N04  Dn4
 BYTE   W12
 BYTE   An3  v108
 BYTE   N04  Dn4
 BYTE   W12
// 034   ----------------------------------------
Label_3_012BB63F:
 BYTE   N04  Gn3  v127
 BYTE   N04  Cn4
 BYTE   W12
 BYTE   Gn3  v112
 BYTE   N04  Cn4
 BYTE   W12
 BYTE   Gn3  v108
 BYTE   N04  Cn4
 BYTE   W12
 BYTE   Gn3  v127
 BYTE   N04  Cn4
 BYTE   W24
 BYTE   Gn3  v108
 BYTE   N04  Cn4
 BYTE   W12
 BYTE   Gn3  v127
 BYTE   N04  Cn4
 BYTE   W12
 BYTE   Gn3  v108
 BYTE   N04  Cn4
 BYTE   W12
 BYTE   PEND 
// 035   ----------------------------------------
 BYTE   Gn3
 BYTE   N04  Cn4
 BYTE   W12
 BYTE   Gn3  v127
 BYTE   N04  Cn4
 BYTE   W24
 BYTE   Gn3  v108
 BYTE   N04  Cn4
 BYTE   W12
 BYTE   Gn3  v124
 BYTE   N04  Cn4  v127
 BYTE   W12
 BYTE   Gn3  v108
 BYTE   N04  Cn4
 BYTE   W12
 BYTE   Gn3  v120
 BYTE   N04  Cn4
 BYTE   W12
 BYTE   Gn3  v108
 BYTE   N04  Cn4
 BYTE   W12
// 036   ----------------------------------------
 BYTE   PATT
  POIN2 Label_3_012BB5F8
// 037   ----------------------------------------
 BYTE   N04  An3  v108
 BYTE   N04  Dn4
 BYTE   W12
 BYTE   An3  v127
 BYTE   N04  Dn4
 BYTE   W24
 BYTE   An3  v108
 BYTE   N04  Dn4
 BYTE   W12
 BYTE   An3  v127
 BYTE   N04  Dn4
 BYTE   W16
 BYTE   An3
 BYTE   N04  Dn4
 BYTE   W16
 BYTE   An3
 BYTE   N04  Dn4
 BYTE   W16
// 038   ----------------------------------------
 BYTE   PATT
  POIN2 Label_3_012BB63F
// 039   ----------------------------------------
 BYTE   N04  An3  v108
 BYTE   N04  Cn4
 BYTE   W12
 BYTE   An3  v127
 BYTE   N04  Cn4
 BYTE   W24
 BYTE   An3  v108
 BYTE   N04  Cn4
 BYTE   W12
 BYTE   An3  v124
 BYTE   N04  Cn4  v127
 BYTE   W12
 BYTE   An3  v108
 BYTE   N04  Cn4
 BYTE   W12
 BYTE   An3  v120
 BYTE   N04  Cn4
 BYTE   W12
 BYTE   An3  v108
 BYTE   N04  Cn4
 BYTE   W12
// 040   ----------------------------------------
 BYTE   PATT
  POIN2 Label_3_012BB5F8
// 041   ----------------------------------------
 BYTE   N04  An3  v108
 BYTE   N04  Dn4
 BYTE   W12
 BYTE   An3  v127
 BYTE   N04  Dn4
 BYTE   W24
 BYTE   An3  v108
 BYTE   N04  Dn4
 BYTE   W12
 BYTE   An3  v127
 BYTE   N04  Dn4
 BYTE   W48
// 042   ----------------------------------------
 BYTE   W96
// 043   ----------------------------------------
 BYTE   W96
// 044   ----------------------------------------
 BYTE   W96
// 045   ----------------------------------------
 BYTE   W96
// 046   ----------------------------------------
 BYTE   W96
// 047   ----------------------------------------
 BYTE   W96
// 048   ----------------------------------------
 BYTE   W96
// 049   ----------------------------------------
 BYTE   W96
// 050   ----------------------------------------
 BYTE   W96
// 051   ----------------------------------------
 BYTE   W96
// 052   ----------------------------------------
 BYTE   W96
// 053   ----------------------------------------
 BYTE   W96
// 054   ----------------------------------------
 BYTE   W96
// 055   ----------------------------------------
 BYTE   W96
// 056   ----------------------------------------
 BYTE   W03
 BYTE   GoTo
  POIN2 Label_3_012BB586
 BYTE   FINE

//**************** Track 5 (Midi-Chn.4) ****************//

song012D_005:
// 000   ----------------------------------------
 BYTE   KEYSH   song012D_key+0
 BYTE   VOICE   48
 BYTE   VOL   18*song012D_mvl/mxv
 BYTE   PAN   c_v-6
 BYTE   W96
// 001   ----------------------------------------
 BYTE   W96
// 002   ----------------------------------------
 BYTE   W96
// 003   ----------------------------------------
 BYTE   W96
// 004   ----------------------------------------
Label_4_012BB70E:
 BYTE   W96
// 005   ----------------------------------------
 BYTE   W96
// 006   ----------------------------------------
 BYTE   W96
// 007   ----------------------------------------
 BYTE   W96
// 008   ----------------------------------------
 BYTE   W96
// 009   ----------------------------------------
 BYTE   W96
// 010   ----------------------------------------
 BYTE   W96
// 011   ----------------------------------------
 BYTE   W96
// 012   ----------------------------------------
Label_4_012BB716:
 BYTE   N12  Gn4  v116
 BYTE   W12
 BYTE   Dn4  v096
 BYTE   W12
 BYTE   An3
 BYTE   W12
 BYTE   Gn4  v116
 BYTE   W12
 BYTE   Dn4  v096
 BYTE   W12
 BYTE   An3
 BYTE   W12
 BYTE   Cn4  v108
 BYTE   W12
 BYTE   En4  v096
 BYTE   W12
 BYTE   PEND 
// 013   ----------------------------------------
 BYTE   PATT
  POIN2 Label_4_012BB716
// 014   ----------------------------------------
Label_4_012BB733:
 BYTE   N12  Gn4  v116
 BYTE   W12
 BYTE   Dn4  v096
 BYTE   W12
 BYTE   An3
 BYTE   W12
 BYTE   Gn4  v116
 BYTE   W12
 BYTE   Dn4  v096
 BYTE   W12
 BYTE   An3
 BYTE   W12
 BYTE   Dn4  v108
 BYTE   W12
 BYTE   Fn4  v096
 BYTE   W12
 BYTE   PEND 
// 015   ----------------------------------------
 BYTE   PATT
  POIN2 Label_4_012BB733
// 016   ----------------------------------------
 BYTE   PATT
  POIN2 Label_4_012BB733
// 017   ----------------------------------------
 BYTE   PATT
  POIN2 Label_4_012BB733
// 018   ----------------------------------------
 BYTE   W96
// 019   ----------------------------------------
 BYTE   W96
// 020   ----------------------------------------
 BYTE   W96
// 021   ----------------------------------------
 BYTE   W96
// 022   ----------------------------------------
 BYTE   W96
// 023   ----------------------------------------
 BYTE   W96
// 024   ----------------------------------------
 BYTE   W96
// 025   ----------------------------------------
 BYTE   W96
// 026   ----------------------------------------
 BYTE   PATT
  POIN2 Label_4_012BB716
// 027   ----------------------------------------
 BYTE   PATT
  POIN2 Label_4_012BB716
// 028   ----------------------------------------
 BYTE   PATT
  POIN2 Label_4_012BB733
// 029   ----------------------------------------
 BYTE   PATT
  POIN2 Label_4_012BB733
// 030   ----------------------------------------
 BYTE   PATT
  POIN2 Label_4_012BB733
// 031   ----------------------------------------
 BYTE   PATT
  POIN2 Label_4_012BB733
// 032   ----------------------------------------
Label_4_012BB780:
 BYTE   N04  An2  v127
 BYTE   W12
 BYTE   N04
 BYTE   W12
 BYTE   N04
 BYTE   W12
 BYTE   N04
 BYTE   W24
 BYTE   N04
 BYTE   W12
 BYTE   N04
 BYTE   W12
 BYTE   N04
 BYTE   W12
 BYTE   PEND 
// 033   ----------------------------------------
Label_4_012BB791:
 BYTE   N04  An2  v127
 BYTE   W12
 BYTE   N04
 BYTE   W24
 BYTE   N04
 BYTE   W12
 BYTE   N04
 BYTE   W12
 BYTE   N04
 BYTE   W12
 BYTE   N04
 BYTE   W12
 BYTE   N04
 BYTE   W12
 BYTE   PEND 
// 034   ----------------------------------------
Label_4_012BB7A2:
 BYTE   N04  Gn2  v127
 BYTE   W12
 BYTE   N04
 BYTE   W12
 BYTE   N04
 BYTE   W12
 BYTE   N04
 BYTE   W24
 BYTE   N04
 BYTE   W12
 BYTE   N04
 BYTE   W12
 BYTE   N04
 BYTE   W12
 BYTE   PEND 
// 035   ----------------------------------------
 BYTE   N04
 BYTE   W12
 BYTE   N04
 BYTE   W24
 BYTE   N04
 BYTE   W12
 BYTE   N04
 BYTE   W12
 BYTE   N04
 BYTE   W12
 BYTE   N04
 BYTE   W12
 BYTE   N04
 BYTE   W12
// 036   ----------------------------------------
 BYTE   PATT
  POIN2 Label_4_012BB780
// 037   ----------------------------------------
 BYTE   N04  An2  v127
 BYTE   W12
 BYTE   N04
 BYTE   W24
 BYTE   N04
 BYTE   W12
 BYTE   N04
 BYTE   W16
 BYTE   N04
 BYTE   W16
 BYTE   N04
 BYTE   W16
// 038   ----------------------------------------
 BYTE   PATT
  POIN2 Label_4_012BB7A2
// 039   ----------------------------------------
 BYTE   PATT
  POIN2 Label_4_012BB791
// 040   ----------------------------------------
 BYTE   PATT
  POIN2 Label_4_012BB780
// 041   ----------------------------------------
 BYTE   N04  An2  v127
 BYTE   W12
 BYTE   N04
 BYTE   W24
 BYTE   N04
 BYTE   W12
 BYTE   N04
 BYTE   W48
// 042   ----------------------------------------
 BYTE   W96
// 043   ----------------------------------------
 BYTE   W96
// 044   ----------------------------------------
 BYTE   W96
// 045   ----------------------------------------
 BYTE   W96
// 046   ----------------------------------------
 BYTE   W96
// 047   ----------------------------------------
 BYTE   W96
// 048   ----------------------------------------
 BYTE   W96
// 049   ----------------------------------------
 BYTE   W96
// 050   ----------------------------------------
 BYTE   W96
// 051   ----------------------------------------
 BYTE   W96
// 052   ----------------------------------------
 BYTE   W96
// 053   ----------------------------------------
 BYTE   W96
// 054   ----------------------------------------
 BYTE   W96
// 055   ----------------------------------------
 BYTE   W96
// 056   ----------------------------------------
 BYTE   W03
 BYTE   GoTo
  POIN2 Label_4_012BB70E
 BYTE   FINE

//**************** Track 6 (Midi-Chn.5) ****************//

song012D_006:
// 000   ----------------------------------------
 BYTE   KEYSH   song012D_key+0
 BYTE   VOICE   73
 BYTE   VOL   24*song012D_mvl/mxv
 BYTE   PAN   c_v-1
 BYTE   W96
// 001   ----------------------------------------
 BYTE   W96
// 002   ----------------------------------------
 BYTE   W96
// 003   ----------------------------------------
 BYTE   W96
// 004   ----------------------------------------
Label_5_012BB80E:
 BYTE   W96
// 005   ----------------------------------------
 BYTE   W96
// 006   ----------------------------------------
 BYTE   W96
// 007   ----------------------------------------
 BYTE   W96
// 008   ----------------------------------------
 BYTE   W96
// 009   ----------------------------------------
 BYTE   W96
// 010   ----------------------------------------
 BYTE   W96
// 011   ----------------------------------------
 BYTE   W96
// 012   ----------------------------------------
 BYTE   W96
// 013   ----------------------------------------
 BYTE   W96
// 014   ----------------------------------------
Label_5_012BB818:
 BYTE   N36  An4  v112
 BYTE   W36
 BYTE   Dn5
 BYTE   W36
 BYTE   N24  Cn5
 BYTE   W24
 BYTE   PEND 
// 015   ----------------------------------------
Label_5_012BB822:
 BYTE   N36  Bn4  v112
 BYTE   W36
 BYTE   Cn5
 BYTE   W36
 BYTE   N21  Bn4
 BYTE   W24
 BYTE   PEND 
// 016   ----------------------------------------
Label_5_012BB82C:
 BYTE   N12  Bn4  v112
 BYTE   W12
 BYTE   Cn5
 BYTE   W12
 BYTE   TIE  An4
 BYTE   W72
 BYTE   PEND 
// 017   ----------------------------------------
 BYTE   W78
 BYTE   EOT
 BYTE   W18
// 018   ----------------------------------------
 BYTE   W96
// 019   ----------------------------------------
 BYTE   W96
// 020   ----------------------------------------
 BYTE   W96
// 021   ----------------------------------------
 BYTE   W96
// 022   ----------------------------------------
 BYTE   W96
// 023   ----------------------------------------
 BYTE   W96
// 024   ----------------------------------------
 BYTE   W96
// 025   ----------------------------------------
 BYTE   W96
// 026   ----------------------------------------
 BYTE   W96
// 027   ----------------------------------------
 BYTE   W96
// 028   ----------------------------------------
 BYTE   PATT
  POIN2 Label_5_012BB818
// 029   ----------------------------------------
 BYTE   PATT
  POIN2 Label_5_012BB822
// 030   ----------------------------------------
 BYTE   PATT
  POIN2 Label_5_012BB82C
// 031   ----------------------------------------
 BYTE   W78
 BYTE   EOT
 BYTE   An4
 BYTE   W18
// 032   ----------------------------------------
 BYTE   W96
// 033   ----------------------------------------
 BYTE   W96
// 034   ----------------------------------------
 BYTE   W96
// 035   ----------------------------------------
 BYTE   W96
// 036   ----------------------------------------
 BYTE   W96
// 037   ----------------------------------------
 BYTE   W96
// 038   ----------------------------------------
 BYTE   W96
// 039   ----------------------------------------
 BYTE   W96
// 040   ----------------------------------------
 BYTE   W96
// 041   ----------------------------------------
 BYTE   W96
// 042   ----------------------------------------
 BYTE   W96
// 043   ----------------------------------------
 BYTE   W96
// 044   ----------------------------------------
 BYTE   W96
// 045   ----------------------------------------
 BYTE   W96
// 046   ----------------------------------------
 BYTE   W96
// 047   ----------------------------------------
 BYTE   W96
// 048   ----------------------------------------
 BYTE   W96
// 049   ----------------------------------------
 BYTE   W72
 BYTE   N04  An4  v120
 BYTE   W04
 BYTE   Bn4
 BYTE   W04
 BYTE   Cn5
 BYTE   W04
 BYTE   Dn5
 BYTE   W04
 BYTE   En5
 BYTE   W04
 BYTE   Fn5
 BYTE   W04
// 050   ----------------------------------------
 BYTE   N48  Gn5
 BYTE   W48
 BYTE   En5
 BYTE   W48
// 051   ----------------------------------------
 BYTE   Cs5
 BYTE   W48
 BYTE   An4
 BYTE   W48
// 052   ----------------------------------------
 BYTE   W96
// 053   ----------------------------------------
 BYTE   W96
// 054   ----------------------------------------
 BYTE   W96
// 055   ----------------------------------------
 BYTE   W96
// 056   ----------------------------------------
 BYTE   W03
 BYTE   GoTo
  POIN2 Label_5_012BB80E
 BYTE   FINE

//**************** Track 7 (Midi-Chn.6) ****************//

song012D_007:
// 000   ----------------------------------------
 BYTE   KEYSH   song012D_key+0
 BYTE   VOICE   68
 BYTE   VOL   21*song012D_mvl/mxv
 BYTE   PAN   c_v+0
 BYTE   W96
// 001   ----------------------------------------
 BYTE   W96
// 002   ----------------------------------------
 BYTE   W96
// 003   ----------------------------------------
 BYTE   W96
// 004   ----------------------------------------
Label_6_012BB896:
 BYTE   W96
// 005   ----------------------------------------
 BYTE   W96
// 006   ----------------------------------------
 BYTE   W96
// 007   ----------------------------------------
 BYTE   W96
// 008   ----------------------------------------
 BYTE   W96
// 009   ----------------------------------------
 BYTE   W96
// 010   ----------------------------------------
 BYTE   W96
// 011   ----------------------------------------
Label_6_012BB89D:
 BYTE   N36  Gn4  v120
 BYTE   W36
 BYTE   N54  Cn4  v112
 BYTE   W60
 BYTE   PEND 
// 012   ----------------------------------------
Label_6_012BB8A6:
 BYTE   N36  Dn4  v112
 BYTE   W36
 BYTE   En4
 BYTE   W36
 BYTE   N24  Fn4
 BYTE   W24
 BYTE   PEND 
// 013   ----------------------------------------
 BYTE   N96  Gn4
 BYTE   W96
// 014   ----------------------------------------
 BYTE   TIE  Dn4
 BYTE   W96
// 015   ----------------------------------------
 BYTE   W96
// 016   ----------------------------------------
 BYTE   EOT
 BYTE   W96
// 017   ----------------------------------------
 BYTE   W96
// 018   ----------------------------------------
 BYTE   W96
// 019   ----------------------------------------
 BYTE   W96
// 020   ----------------------------------------
 BYTE   W96
// 021   ----------------------------------------
 BYTE   W96
// 022   ----------------------------------------
 BYTE   W96
// 023   ----------------------------------------
 BYTE   W96
// 024   ----------------------------------------
 BYTE   W96
// 025   ----------------------------------------
 BYTE   PATT
  POIN2 Label_6_012BB89D
// 026   ----------------------------------------
 BYTE   PATT
  POIN2 Label_6_012BB8A6
// 027   ----------------------------------------
 BYTE   N96  Gn4  v112
 BYTE   W96
// 028   ----------------------------------------
 BYTE   TIE  Dn4
 BYTE   W96
// 029   ----------------------------------------
 BYTE   W96
// 030   ----------------------------------------
 BYTE   EOT
 BYTE   W96
// 031   ----------------------------------------
 BYTE   W96
// 032   ----------------------------------------
 BYTE   W96
// 033   ----------------------------------------
 BYTE   W96
// 034   ----------------------------------------
 BYTE   W96
// 035   ----------------------------------------
 BYTE   W96
// 036   ----------------------------------------
 BYTE   W96
// 037   ----------------------------------------
 BYTE   W96
// 038   ----------------------------------------
 BYTE   W96
// 039   ----------------------------------------
 BYTE   W96
// 040   ----------------------------------------
 BYTE   W96
// 041   ----------------------------------------
 BYTE   W96
// 042   ----------------------------------------
 BYTE   W96
// 043   ----------------------------------------
 BYTE   W96
// 044   ----------------------------------------
 BYTE   W96
// 045   ----------------------------------------
 BYTE   W96
// 046   ----------------------------------------
 BYTE   W96
// 047   ----------------------------------------
 BYTE   W72
 BYTE   N04  An3
 BYTE   W04
 BYTE   Bn3
 BYTE   W04
 BYTE   Cn4
 BYTE   W04
 BYTE   Dn4
 BYTE   W04
 BYTE   En4
 BYTE   W04
 BYTE   Fn4
 BYTE   W04
// 048   ----------------------------------------
 BYTE   N48  Cn4  v120
 BYTE   N48  Gn4
 BYTE   W48
 BYTE   Gn3
 BYTE   N48  Dn4
 BYTE   W48
// 049   ----------------------------------------
 BYTE   Gn3
 BYTE   N48  Cn4
 BYTE   W48
 BYTE   Cn3
 BYTE   N48  Gn3
 BYTE   W48
// 050   ----------------------------------------
 BYTE   Cs4  v112
 BYTE   N48  Gn4
 BYTE   W48
 BYTE   An3
 BYTE   N48  En4
 BYTE   W48
// 051   ----------------------------------------
 BYTE   An3
 BYTE   N48  Cs4
 BYTE   W48
 BYTE   En3
 BYTE   N48  An3
 BYTE   W48
// 052   ----------------------------------------
 BYTE   W96
// 053   ----------------------------------------
 BYTE   W96
// 054   ----------------------------------------
 BYTE   W96
// 055   ----------------------------------------
 BYTE   W96
// 056   ----------------------------------------
 BYTE   W03
 BYTE   GoTo
  POIN2 Label_6_012BB896
 BYTE   FINE

//**************** Track 8 (Midi-Chn.7) ****************//

song012D_008:
// 000   ----------------------------------------
 BYTE   KEYSH   song012D_key+0
 BYTE   VOICE   57
 BYTE   VOL   21*song012D_mvl/mxv
 BYTE   PAN   c_v+0
 BYTE   W96
// 001   ----------------------------------------
 BYTE   W96
// 002   ----------------------------------------
 BYTE   W96
// 003   ----------------------------------------
 BYTE   W96
// 004   ----------------------------------------
Label_7_012BB92D:
 BYTE   N60  Fn2  v112
 BYTE   W60
 BYTE   N12  En2
 BYTE   W12
 BYTE   Dn2
 BYTE   W12
 BYTE   En2
 BYTE   W12
 BYTE   PEND 
// 005   ----------------------------------------
Label_7_012BB939:
 BYTE   N36  Fn2  v112
 BYTE   W36
 BYTE   Gn2
 BYTE   W36
 BYTE   N24  An2
 BYTE   W24
 BYTE   PEND 
// 006   ----------------------------------------
 BYTE   N36  Dn2
 BYTE   W36
 BYTE   An2
 BYTE   W36
 BYTE   N24  Gn2
 BYTE   W24
// 007   ----------------------------------------
Label_7_012BB94B:
 BYTE   N36  As2  v112
 BYTE   W36
 BYTE   An2
 BYTE   W36
 BYTE   N24  Gn2
 BYTE   W24
 BYTE   PEND 
// 008   ----------------------------------------
Label_7_012BB955:
 BYTE   N36  Fn2  v112
 BYTE   W48
 BYTE   N48  Dn2
 BYTE   W48
 BYTE   PEND 
// 009   ----------------------------------------
Label_7_012BB95D:
 BYTE   N48  An2  v112
 BYTE   W48
 BYTE   Dn3
 BYTE   W48
 BYTE   PEND 
// 010   ----------------------------------------
 BYTE   N96  En3
 BYTE   W96
// 011   ----------------------------------------
Label_7_012BB967:
 BYTE   N48  Fn3  v092
 BYTE   W48
 BYTE   En3
 BYTE   W48
 BYTE   PEND 
// 012   ----------------------------------------
 BYTE   TIE  Dn3  v080
 BYTE   W96
// 013   ----------------------------------------
 BYTE   W72
 BYTE   EOT
 BYTE   W24
// 014   ----------------------------------------
Label_7_012BB975:
 BYTE   N36  An1  v112
 BYTE   W36
 BYTE   Dn2
 BYTE   W36
 BYTE   N24  Cn2
 BYTE   W24
 BYTE   PEND 
// 015   ----------------------------------------
Label_7_012BB97F:
 BYTE   N36  Bn1  v112
 BYTE   W36
 BYTE   Cn2
 BYTE   W36
 BYTE   N21  Bn1
 BYTE   W24
 BYTE   PEND 
// 016   ----------------------------------------
Label_7_012BB989:
 BYTE   N12  Bn1  v112
 BYTE   W12
 BYTE   Cn2
 BYTE   W12
 BYTE   TIE  An1
 BYTE   W72
 BYTE   PEND 
// 017   ----------------------------------------
 BYTE   W78
 BYTE   EOT
 BYTE   W18
// 018   ----------------------------------------
 BYTE   PATT
  POIN2 Label_7_012BB92D
// 019   ----------------------------------------
 BYTE   PATT
  POIN2 Label_7_012BB939
// 020   ----------------------------------------
 BYTE   PATT
  POIN2 Label_7_012BB94B
// 021   ----------------------------------------
 BYTE   N36  Cn3  v112
 BYTE   W36
 BYTE   An2
 BYTE   W36
 BYTE   N24  Gn2
 BYTE   W24
// 022   ----------------------------------------
 BYTE   PATT
  POIN2 Label_7_012BB955
// 023   ----------------------------------------
 BYTE   PATT
  POIN2 Label_7_012BB95D
// 024   ----------------------------------------
 BYTE   N96  En3  v112
 BYTE   W96
// 025   ----------------------------------------
 BYTE   PATT
  POIN2 Label_7_012BB967
// 026   ----------------------------------------
 BYTE   TIE  Dn3  v080
 BYTE   W96
// 027   ----------------------------------------
 BYTE   W72
 BYTE   EOT
 BYTE   W24
// 028   ----------------------------------------
 BYTE   PATT
  POIN2 Label_7_012BB975
// 029   ----------------------------------------
 BYTE   PATT
  POIN2 Label_7_012BB97F
// 030   ----------------------------------------
 BYTE   PATT
  POIN2 Label_7_012BB989
// 031   ----------------------------------------
 BYTE   W78
 BYTE   EOT
 BYTE   An1
 BYTE   W18
// 032   ----------------------------------------
 BYTE   W96
// 033   ----------------------------------------
 BYTE   W96
// 034   ----------------------------------------
 BYTE   W96
// 035   ----------------------------------------
 BYTE   W96
// 036   ----------------------------------------
 BYTE   W96
// 037   ----------------------------------------
 BYTE   W96
// 038   ----------------------------------------
 BYTE   W96
// 039   ----------------------------------------
 BYTE   W96
// 040   ----------------------------------------
 BYTE   W96
// 041   ----------------------------------------
 BYTE   W96
// 042   ----------------------------------------
 BYTE   W48
 BYTE   N48  Gn2  v112
 BYTE   W48
// 043   ----------------------------------------
Label_7_012BB9EA:
 BYTE   N48  Dn3  v112
 BYTE   W48
 BYTE   Cn3
 BYTE   W48
 BYTE   PEND 
// 044   ----------------------------------------
 BYTE   Bn2
 BYTE   W48
 BYTE   N24  An2
 BYTE   W24
 BYTE   Bn2
 BYTE   W24
// 045   ----------------------------------------
 BYTE   N48  Cn3
 BYTE   W48
 BYTE   Fn2
 BYTE   W48
// 046   ----------------------------------------
 BYTE   N36  Gn2
 BYTE   W48
 BYTE   N48
 BYTE   W48
// 047   ----------------------------------------
 BYTE   PATT
  POIN2 Label_7_012BB9EA
// 048   ----------------------------------------
 BYTE   N48  Gn3  v112
 BYTE   W48
 BYTE   Dn3
 BYTE   W48
// 049   ----------------------------------------
 BYTE   Cn3
 BYTE   W48
 BYTE   Gn2
 BYTE   W48
// 050   ----------------------------------------
 BYTE   Gn3
 BYTE   W48
 BYTE   En3
 BYTE   W48
// 051   ----------------------------------------
 BYTE   Cs3
 BYTE   W48
 BYTE   An2
 BYTE   W48
// 052   ----------------------------------------
 BYTE   W96
// 053   ----------------------------------------
 BYTE   W96
// 054   ----------------------------------------
 BYTE   W96
// 055   ----------------------------------------
 BYTE   W96
// 056   ----------------------------------------
 BYTE   W03
 BYTE   GoTo
  POIN2 Label_7_012BB92D
 BYTE   FINE

//**************** Track 9 (Midi-Chn.8) ****************//

song012D_009:
// 000   ----------------------------------------
 BYTE   KEYSH   song012D_key+0
 BYTE   VOICE   60
 BYTE   VOL   27*song012D_mvl/mxv
 BYTE   PAN   c_v+0
 BYTE   N12  An1  v100
 BYTE   N12  Dn2  v127
 BYTE   W12
 BYTE   N24  Fn2  v100
 BYTE   N24  An2  v127
 BYTE   W24
 BYTE   En2  v100
 BYTE   N24  Gn2  v127
 BYTE   W24
 BYTE   An2  v100
 BYTE   N24  Dn3  v127
 BYTE   W24
 BYTE   N96  Fn2  v100
 BYTE   N96  An2  v127
 BYTE   W12
// 001   ----------------------------------------
 BYTE   W96
// 002   ----------------------------------------
Label_8_012BBA4E:
 BYTE   N12  An1  v100
 BYTE   N12  Dn2  v127
 BYTE   W12
 BYTE   N24  Fn2  v100
 BYTE   N24  An2  v127
 BYTE   W24
 BYTE   En2  v100
 BYTE   N24  Gn2  v127
 BYTE   W24
 BYTE   An2  v100
 BYTE   N24  Dn3  v127
 BYTE   W24
 BYTE   N96  An2  v100
 BYTE   N96  En3  v127
 BYTE   W12
 BYTE   PEND 
// 003   ----------------------------------------
 BYTE   W96
// 004   ----------------------------------------
Label_8_012BBA71:
 BYTE   W96
// 005   ----------------------------------------
 BYTE   W96
// 006   ----------------------------------------
 BYTE   W96
// 007   ----------------------------------------
 BYTE   W96
// 008   ----------------------------------------
Label_8_012BBA75:
 BYTE   W48
 BYTE   N48  An1  v080
 BYTE   N48  Dn2  v127
 BYTE   W48
 BYTE   PEND 
// 009   ----------------------------------------
Label_8_012BBA7E:
 BYTE   N48  Dn2  v072
 BYTE   N48  An2  v127
 BYTE   W48
 BYTE   An2  v080
 BYTE   N48  Dn3  v127
 BYTE   W48
 BYTE   PEND 
// 010   ----------------------------------------
Label_8_012BBA8C:
 BYTE   N96  Cn3  v080
 BYTE   N96  En3  v127
 BYTE   W96
 BYTE   PEND 
// 011   ----------------------------------------
Label_8_012BBA94:
 BYTE   N48  Dn3  v072
 BYTE   N48  Fn3  v127
 BYTE   W48
 BYTE   Cn3  v072
 BYTE   N48  En3  v127
 BYTE   W48
 BYTE   PEND 
// 012   ----------------------------------------
Label_8_012BBAA2:
 BYTE   TIE  An2  v080
 BYTE   TIE  Dn3  v120
 BYTE   W96
 BYTE   PEND 
// 013   ----------------------------------------
 BYTE   W72
 BYTE   EOT
 BYTE   An2  v062
 BYTE   W24
// 014   ----------------------------------------
Label_8_012BBAAF:
 BYTE   N36  Fn2  v080
 BYTE   N36  An2  v127
 BYTE   W36
 BYTE   An2  v080
 BYTE   N36  Dn3  v127
 BYTE   W36
 BYTE   N24  An2  v080
 BYTE   N24  Cn3  v127
 BYTE   W24
 BYTE   PEND 
// 015   ----------------------------------------
Label_8_012BBAC4:
 BYTE   N36  Gn2  v080
 BYTE   N36  Bn2  v127
 BYTE   W36
 BYTE   An2  v080
 BYTE   N36  Cn3  v127
 BYTE   W36
 BYTE   N21  Gn2  v080
 BYTE   N21  Bn2  v127
 BYTE   W24
 BYTE   PEND 
// 016   ----------------------------------------
Label_8_012BBAD9:
 BYTE   N12  Gn2  v080
 BYTE   N12  Bn2  v127
 BYTE   W12
 BYTE   An2  v080
 BYTE   N12  Cn3  v127
 BYTE   W12
 BYTE   TIE  Fn2  v080
 BYTE   TIE  An2  v127
 BYTE   W72
 BYTE   PEND 
// 017   ----------------------------------------
 BYTE   W78
 BYTE   EOT
 BYTE   Fn2  v057
 BYTE   W18
// 018   ----------------------------------------
 BYTE   W96
// 019   ----------------------------------------
 BYTE   W96
// 020   ----------------------------------------
 BYTE   W96
// 021   ----------------------------------------
 BYTE   W96
// 022   ----------------------------------------
 BYTE   PATT
  POIN2 Label_8_012BBA75
// 023   ----------------------------------------
 BYTE   PATT
  POIN2 Label_8_012BBA7E
// 024   ----------------------------------------
 BYTE   PATT
  POIN2 Label_8_012BBA8C
// 025   ----------------------------------------
 BYTE   PATT
  POIN2 Label_8_012BBA94
// 026   ----------------------------------------
 BYTE   PATT
  POIN2 Label_8_012BBAA2
// 027   ----------------------------------------
 BYTE   W72
 BYTE   EOT
 BYTE   An2  v062
 BYTE   W24
// 028   ----------------------------------------
 BYTE   PATT
  POIN2 Label_8_012BBAAF
// 029   ----------------------------------------
 BYTE   PATT
  POIN2 Label_8_012BBAC4
// 030   ----------------------------------------
 BYTE   PATT
  POIN2 Label_8_012BBAD9
// 031   ----------------------------------------
 BYTE   W78
 BYTE   EOT
 BYTE   Fn2  v057
 BYTE   W18
// 032   ----------------------------------------
Label_8_012BBB29:
 BYTE   TIE  Dn2  v127
 BYTE   TIE  An2
 BYTE   W96
 BYTE   PEND 
// 033   ----------------------------------------
 BYTE   W96
// 034   ----------------------------------------
 BYTE   EOT
 BYTE   Dn2  v057
Label_8_012BBB34:
 BYTE   TIE  Cn2  v127
 BYTE   TIE  Gn2
 BYTE   W96
 BYTE   PEND 
// 035   ----------------------------------------
 BYTE   W96
// 036   ----------------------------------------
 BYTE   EOT
 BYTE   Cn2  v055
// 037   ----------------------------------------
 BYTE   PATT
  POIN2 Label_8_012BBB29
// 038   ----------------------------------------
 BYTE   W42
 BYTE   EOT
 BYTE   Dn2  v057
 BYTE   W06
 BYTE   N12  Dn2  v127
 BYTE   N12  An2
 BYTE   W16
 BYTE   N09  Dn2
 BYTE   N09  An2
 BYTE   W16
 BYTE   Dn2
 BYTE   N09  An2
 BYTE   W16
// 039   ----------------------------------------
 BYTE   PATT
  POIN2 Label_8_012BBB34
// 040   ----------------------------------------
 BYTE   W96
// 041   ----------------------------------------
 BYTE   EOT
 BYTE   Cn2  v055
// 042   ----------------------------------------
 BYTE   PATT
  POIN2 Label_8_012BBB29
// 043   ----------------------------------------
 BYTE   W92
 BYTE   W01
 BYTE   EOT
 BYTE   Dn2  v057
 BYTE   W03
// 044   ----------------------------------------
 BYTE   W48
 BYTE   N48  Gn2  v127
 BYTE   W48
// 045   ----------------------------------------
Label_8_012BBB71:
 BYTE   N48  Dn3  v127
 BYTE   W48
 BYTE   Cn3
 BYTE   W48
 BYTE   PEND 
// 046   ----------------------------------------
 BYTE   Bn2
 BYTE   W48
 BYTE   N24  An2
 BYTE   W24
 BYTE   Bn2
 BYTE   W24
// 047   ----------------------------------------
 BYTE   N48  Cn3
 BYTE   W48
 BYTE   Fn2
 BYTE   W48
// 048   ----------------------------------------
 BYTE   N36  Gn2
 BYTE   W48
 BYTE   N48
 BYTE   W48
// 049   ----------------------------------------
 BYTE   PATT
  POIN2 Label_8_012BBB71
// 050   ----------------------------------------
 BYTE   N48  Gn3  v127
 BYTE   W48
 BYTE   Dn3
 BYTE   W48
// 051   ----------------------------------------
 BYTE   Cn3
 BYTE   W48
 BYTE   Gn2
 BYTE   W48
// 052   ----------------------------------------
 BYTE   Gn3
 BYTE   W48
 BYTE   En3
 BYTE   W48
// 053   ----------------------------------------
 BYTE   Cs3
 BYTE   W48
 BYTE   An2
 BYTE   W48
// 054   ----------------------------------------
 BYTE   N12  An1  v100
 BYTE   N12  Dn2  v127
 BYTE   W12
 BYTE   N24  Fn2  v100
 BYTE   N24  An2  v127
 BYTE   W24
 BYTE   En2  v100
 BYTE   N24  Gn2  v127
 BYTE   W24
 BYTE   An2  v100
 BYTE   N24  Dn3  v127
 BYTE   W24
 BYTE   N96  Fn2  v100
 BYTE   N96  An2  v127
 BYTE   W12
// 055   ----------------------------------------
 BYTE   W96
// 056   ----------------------------------------
 BYTE   PATT
  POIN2 Label_8_012BBA4E
// 057   ----------------------------------------
 BYTE   W96
// 058   ----------------------------------------
 BYTE   W03
 BYTE   GoTo
  POIN2 Label_8_012BBA71
 BYTE   FINE

//**************** Track 10 (Midi-Chn.9) ****************//

song012D_010:
// 000   ----------------------------------------
 BYTE   KEYSH   song012D_key+0
 BYTE   VOICE   127
 BYTE   VOL   21*song012D_mvl/mxv
 BYTE   PAN   c_v+0
 BYTE   N96  Cs2  v080
 BYTE   N12  An2  v112
 BYTE   W96
// 001   ----------------------------------------
 BYTE   W60
 BYTE   N12
 BYTE   W24
 BYTE   N12
 BYTE   W12
// 002   ----------------------------------------
 BYTE   N96  Cs2  v084
 BYTE   N12  An2  v112
 BYTE   W96
// 003   ----------------------------------------
 BYTE   W60
 BYTE   N12
 BYTE   W24
 BYTE   N12
 BYTE   W06
 BYTE   N02  Dn1  v100
 BYTE   W02
 BYTE   Dn1  v096
 BYTE   W02
 BYTE   N02
 BYTE   W02
// 004   ----------------------------------------
Label_9_012BBBF8:
 BYTE   N06  Dn1  v088
 BYTE   N96  Cs2  v092
 BYTE   W06
 BYTE   N06  Dn1  v100
 BYTE   W06
 BYTE   Dn1  v096
 BYTE   W06
 BYTE   N06
 BYTE   W06
 BYTE   N12  Dn1  v076
 BYTE   W12
 BYTE   N01
 BYTE   W01
 BYTE   N11  Dn1  v096
 BYTE   W11
 BYTE   N06  Dn1  v100
 BYTE   W06
 BYTE   N06
 BYTE   W06
 BYTE   N12
 BYTE   W12
 BYTE   N12
 BYTE   W12
 BYTE   N06  Dn1  v096
 BYTE   W06
 BYTE   Dn1  v100
 BYTE   W06
// 005   ----------------------------------------
 BYTE   N01  Dn1  v096
 BYTE   W01
 BYTE   N04
 BYTE   W05
 BYTE   N06  Dn1  v076
 BYTE   W06
 BYTE   N06
 BYTE   W06
 BYTE   Dn1  v096
 BYTE   W06
 BYTE   N12  Dn1  v076
 BYTE   W12
 BYTE   Dn1  v100
 BYTE   W12
 BYTE   N06
 BYTE   W06
 BYTE   N06
 BYTE   W06
 BYTE   N12  Dn1  v096
 BYTE   W12
 BYTE   N06  Dn1  v088
 BYTE   W06
 BYTE   N03
 BYTE   W03
 BYTE   Dn1  v100
 BYTE   W03
 BYTE   N06
 BYTE   W06
 BYTE   Dn1  v096
 BYTE   W06
// 006   ----------------------------------------
 BYTE   Dn1  v088
 BYTE   W06
 BYTE   Dn1  v100
 BYTE   W06
 BYTE   N06
 BYTE   W06
 BYTE   Dn1  v084
 BYTE   W06
 BYTE   N12  Dn1  v092
 BYTE   W12
 BYTE   N01  Dn1  v084
 BYTE   W01
 BYTE   N11  Dn1  v092
 BYTE   W11
 BYTE   N06  Dn1  v100
 BYTE   W06
 BYTE   Dn1  v088
 BYTE   W06
 BYTE   N12  Dn1  v076
 BYTE   W12
 BYTE   Dn1  v100
 BYTE   W12
 BYTE   N06  Dn1  v096
 BYTE   W06
 BYTE   Dn1  v088
 BYTE   W06
// 007   ----------------------------------------
 BYTE   N01  Dn1  v076
 BYTE   W01
 BYTE   N04  Dn1  v092
 BYTE   W05
 BYTE   N06  Dn1  v100
 BYTE   W06
 BYTE   Dn1  v092
 BYTE   W06
 BYTE   Dn1  v072
 BYTE   W06
 BYTE   N12  Dn1  v084
 BYTE   W12
 BYTE   Dn1  v072
 BYTE   W12
 BYTE   N06  Dn1  v100
 BYTE   W06
 BYTE   N06
 BYTE   W06
 BYTE   N12  Dn1  v096
 BYTE   W12
 BYTE   N06  Dn1  v088
 BYTE   W06
 BYTE   N03
 BYTE   W03
 BYTE   Dn1  v100
 BYTE   W03
 BYTE   N06
 BYTE   W06
 BYTE   Dn1  v096
 BYTE   W06
// 008   ----------------------------------------
 BYTE   Dn1  v088
 BYTE   W06
 BYTE   Dn1  v100
 BYTE   W06
 BYTE   N06
 BYTE   W06
 BYTE   Dn1  v084
 BYTE   W06
 BYTE   N12  Dn1  v092
 BYTE   W12
 BYTE   N01  Dn1  v084
 BYTE   W01
 BYTE   N11  Dn1  v092
 BYTE   W11
 BYTE   N06  Dn1  v100
 BYTE   W06
 BYTE   Dn1  v092
 BYTE   W06
 BYTE   N12  Dn1  v084
 BYTE   W12
 BYTE   Dn1  v100
 BYTE   W12
 BYTE   N06
 BYTE   W06
 BYTE   Dn1  v092
 BYTE   W06
// 009   ----------------------------------------
 BYTE   N01  Dn1  v084
 BYTE   W01
 BYTE   N04  Dn1  v096
 BYTE   W05
 BYTE   N06  Dn1  v100
 BYTE   W06
 BYTE   Dn1  v096
 BYTE   W06
 BYTE   Dn1  v076
 BYTE   W06
 BYTE   N12  Dn1  v088
 BYTE   W12
 BYTE   Dn1  v076
 BYTE   W12
 BYTE   N06  Dn1  v100
 BYTE   W06
 BYTE   Dn1  v088
 BYTE   W06
 BYTE   N12  Dn1  v076
 BYTE   W12
 BYTE   N06  Dn1  v100
 BYTE   W06
 BYTE   N03  Dn1  v096
 BYTE   W03
 BYTE   Dn1  v088
 BYTE   W03
 BYTE   N06  Dn1  v076
 BYTE   W06
 BYTE   Dn1  v096
 BYTE   W06
// 010   ----------------------------------------
 BYTE   Dn1  v100
 BYTE   W06
 BYTE   Dn1  v096
 BYTE   W06
 BYTE   Dn1  v076
 BYTE   W06
 BYTE   Dn1  v088
 BYTE   W06
 BYTE   N12  Dn1  v076
 BYTE   W12
 BYTE   N01  Dn1  v100
 BYTE   W01
 BYTE   N11  Dn1  v088
 BYTE   W11
 BYTE   N06  Dn1  v100
 BYTE   W06
 BYTE   Dn1  v096
 BYTE   W06
 BYTE   N12  Dn1  v088
 BYTE   W12
 BYTE   Dn1  v096
 BYTE   W12
 BYTE   N06  Dn1  v100
 BYTE   W06
 BYTE   Dn1  v096
 BYTE   W06
// 011   ----------------------------------------
 BYTE   N01  Dn1  v088
 BYTE   W01
 BYTE   N04  Dn1  v076
 BYTE   W05
 BYTE   N06  Dn1  v096
 BYTE   W06
 BYTE   Dn1  v100
 BYTE   W06
 BYTE   Dn1  v096
 BYTE   W06
 BYTE   N12  Dn1  v076
 BYTE   W12
 BYTE   Dn1  v088
 BYTE   W12
 BYTE   N06  Dn1  v076
 BYTE   W06
 BYTE   Dn1  v100
 BYTE   W06
 BYTE   N12  Dn1  v088
 BYTE   W12
 BYTE   N06  Dn1  v100
 BYTE   W06
 BYTE   N03  Dn1  v088
 BYTE   W03
 BYTE   Dn1  v076
 BYTE   W03
 BYTE   N06  Dn1  v100
 BYTE   W06
 BYTE   Dn1  v096
 BYTE   W06
// 012   ----------------------------------------
 BYTE   Dn1  v088
 BYTE   W06
 BYTE   Dn1  v076
 BYTE   W06
 BYTE   Dn1  v096
 BYTE   W06
 BYTE   Dn1  v100
 BYTE   W06
 BYTE   N12  Dn1  v096
 BYTE   W12
 BYTE   N01  Dn1  v076
 BYTE   W01
 BYTE   N11  Dn1  v088
 BYTE   W11
 BYTE   N06  Dn1  v076
 BYTE   W06
 BYTE   Dn1  v100
 BYTE   W06
 BYTE   N12  Dn1  v088
 BYTE   W12
 BYTE   Dn1  v100
 BYTE   W12
 BYTE   N06  Dn1  v096
 BYTE   W06
 BYTE   Dn1  v088
 BYTE   W06
// 013   ----------------------------------------
Label_9_012BBD9C:
 BYTE   N01  Dn1  v076
 BYTE   W01
 BYTE   N04
 BYTE   W05
 BYTE   N06  Dn1  v100
 BYTE   W06
 BYTE   Dn1  v096
 BYTE   W06
 BYTE   Dn1  v088
 BYTE   W06
 BYTE   N12  Dn1  v076
 BYTE   W12
 BYTE   Dn1  v100
 BYTE   W12
 BYTE   N06  Dn1  v096
 BYTE   W06
 BYTE   Dn1  v076
 BYTE   W06
 BYTE   N12  Dn1  v088
 BYTE   W12
 BYTE   N06  Dn1  v076
 BYTE   W06
 BYTE   N03  Dn1  v088
 BYTE   W03
 BYTE   Dn1  v100
 BYTE   W03
 BYTE   N06  Dn1  v088
 BYTE   W06
 BYTE   Dn1  v076
 BYTE   W06
 BYTE   PEND 
// 014   ----------------------------------------
Label_9_012BBDD1:
 BYTE   N06  Dn1  v100
 BYTE   W06
 BYTE   Dn1  v096
 BYTE   W06
 BYTE   Dn1  v088
 BYTE   W06
 BYTE   Dn1  v076
 BYTE   W06
 BYTE   N12  Dn1  v096
 BYTE   W12
 BYTE   N01  Dn1  v100
 BYTE   W01
 BYTE   N11  Dn1  v096
 BYTE   W11
 BYTE   N06  Dn1  v076
 BYTE   W06
 BYTE   Dn1  v088
 BYTE   W06
 BYTE   N12  Dn1  v076
 BYTE   W12
 BYTE   Dn1  v100
 BYTE   W12
 BYTE   N06  Dn1  v096
 BYTE   W06
 BYTE   Dn1  v088
 BYTE   W06
 BYTE   PEND 
// 015   ----------------------------------------
 BYTE   PATT
  POIN2 Label_9_012BBD9C
// 016   ----------------------------------------
 BYTE   N06  Dn1  v100
 BYTE   W06
 BYTE   Dn1  v096
 BYTE   W06
 BYTE   Dn1  v088
 BYTE   W06
 BYTE   Dn1  v076
 BYTE   W06
 BYTE   N12  Dn1  v096
 BYTE   W12
 BYTE   N01  Dn1  v100
 BYTE   W01
 BYTE   N11  Dn1  v096
 BYTE   W11
 BYTE   N06  Dn1  v076
 BYTE   W06
 BYTE   Dn1  v088
 BYTE   W06
 BYTE   N12  Dn1  v076
 BYTE   W12
 BYTE   Dn1  v100
 BYTE   W12
 BYTE   N06  Dn1  v076
 BYTE   W06
 BYTE   Dn1  v068
 BYTE   W06
// 017   ----------------------------------------
 BYTE   N01  Dn1  v100
 BYTE   W01
 BYTE   N04  Dn1  v068
 BYTE   W05
 BYTE   N06  Dn1  v100
 BYTE   W06
 BYTE   Dn1  v068
 BYTE   W06
 BYTE   Dn1  v100
 BYTE   W06
 BYTE   N12
 BYTE   W12
 BYTE   Dn1  v096
 BYTE   W12
 BYTE   N06  Dn1  v076
 BYTE   W06
 BYTE   Dn1  v088
 BYTE   W06
 BYTE   N12  Dn1  v076
 BYTE   W12
 BYTE   N06  Dn1  v088
 BYTE   W06
 BYTE   N03  Dn1  v100
 BYTE   W03
 BYTE   Dn1  v088
 BYTE   W03
 BYTE   N06  Dn1  v076
 BYTE   W06
 BYTE   Dn1  v100
 BYTE   W06
// 018   ----------------------------------------
 BYTE   Dn1  v096
 BYTE   N96  Cs2  v092
 BYTE   W06
 BYTE   N06  Dn1  v088
 BYTE   W06
 BYTE   Dn1  v076
 BYTE   W06
 BYTE   Dn1  v096
 BYTE   W06
 BYTE   N12  Dn1  v100
 BYTE   W12
 BYTE   N01  Dn1  v096
 BYTE   W01
 BYTE   N11  Dn1  v076
 BYTE   W11
 BYTE   N06  Dn1  v088
 BYTE   W06
 BYTE   Dn1  v076
 BYTE   W06
 BYTE   N12  Dn1  v100
 BYTE   W12
 BYTE   Dn1  v096
 BYTE   W12
 BYTE   N06  Dn1  v088
 BYTE   W06
 BYTE   Dn1  v076
 BYTE   W06
// 019   ----------------------------------------
Label_9_012BBE98:
 BYTE   N01  Dn1  v076
 BYTE   W01
 BYTE   N04  Dn1  v100
 BYTE   W05
 BYTE   N06  Dn1  v096
 BYTE   W06
 BYTE   Dn1  v088
 BYTE   W06
 BYTE   Dn1  v076
 BYTE   W06
 BYTE   N12  Dn1  v100
 BYTE   W12
 BYTE   Dn1  v096
 BYTE   W12
 BYTE   N06  Dn1  v076
 BYTE   W06
 BYTE   Dn1  v088
 BYTE   W06
 BYTE   N12  Dn1  v076
 BYTE   W12
 BYTE   N06  Dn1  v088
 BYTE   W06
 BYTE   N03  Dn1  v100
 BYTE   W03
 BYTE   Dn1  v088
 BYTE   W03
 BYTE   N06  Dn1  v076
 BYTE   W06
 BYTE   Dn1  v100
 BYTE   W06
 BYTE   PEND 
// 020   ----------------------------------------
Label_9_012BBECF:
 BYTE   N06  Dn1  v096
 BYTE   W06
 BYTE   Dn1  v088
 BYTE   W06
 BYTE   Dn1  v076
 BYTE   W06
 BYTE   Dn1  v096
 BYTE   W06
 BYTE   N12  Dn1  v100
 BYTE   W12
 BYTE   N01  Dn1  v096
 BYTE   W01
 BYTE   N11  Dn1  v076
 BYTE   W11
 BYTE   N06  Dn1  v088
 BYTE   W06
 BYTE   Dn1  v076
 BYTE   W06
 BYTE   N12  Dn1  v100
 BYTE   W12
 BYTE   Dn1  v096
 BYTE   W12
 BYTE   N06  Dn1  v088
 BYTE   W06
 BYTE   Dn1  v076
 BYTE   W06
 BYTE   PEND 
// 021   ----------------------------------------
 BYTE   PATT
  POIN2 Label_9_012BBE98
// 022   ----------------------------------------
 BYTE   PATT
  POIN2 Label_9_012BBECF
// 023   ----------------------------------------
 BYTE   PATT
  POIN2 Label_9_012BBE98
// 024   ----------------------------------------
 BYTE   PATT
  POIN2 Label_9_012BBECF
// 025   ----------------------------------------
 BYTE   PATT
  POIN2 Label_9_012BBE98
// 026   ----------------------------------------
 BYTE   PATT
  POIN2 Label_9_012BBECF
// 027   ----------------------------------------
 BYTE   PATT
  POIN2 Label_9_012BBE98
// 028   ----------------------------------------
 BYTE   PATT
  POIN2 Label_9_012BBECF
// 029   ----------------------------------------
 BYTE   PATT
  POIN2 Label_9_012BBE98
// 030   ----------------------------------------
 BYTE   PATT
  POIN2 Label_9_012BBECF
// 031   ----------------------------------------
 BYTE   N01  Dn1  v076
 BYTE   W01
 BYTE   N04  Dn1  v100
 BYTE   N96  Ds2  v092
 BYTE   W05
 BYTE   N06  Dn1  v096
 BYTE   W06
 BYTE   Dn1  v088
 BYTE   W06
 BYTE   Dn1  v076
 BYTE   W06
 BYTE   N12  Dn1  v100
 BYTE   W12
 BYTE   Dn1  v096
 BYTE   W12
 BYTE   N06  Dn1  v076
 BYTE   W06
 BYTE   Dn1  v088
 BYTE   W06
 BYTE   N12  Dn1  v076
 BYTE   W12
 BYTE   N06  Dn1  v088
 BYTE   W06
 BYTE   N03  Dn1  v100
 BYTE   W03
 BYTE   Dn1  v088
 BYTE   W03
 BYTE   N06  Dn1  v076
 BYTE   W06
 BYTE   Dn1  v100
 BYTE   W06
// 032   ----------------------------------------
 BYTE   Dn1  v096
 BYTE   N96  Cs2  v084
 BYTE   W06
 BYTE   N06  Dn1  v088
 BYTE   W06
 BYTE   Dn1  v076
 BYTE   W06
 BYTE   Dn1  v096
 BYTE   W06
 BYTE   N12  Dn1  v100
 BYTE   W12
 BYTE   N01  Dn1  v096
 BYTE   W01
 BYTE   N11  Dn1  v076
 BYTE   W11
 BYTE   N06  Dn1  v088
 BYTE   W06
 BYTE   Dn1  v076
 BYTE   W06
 BYTE   N12  Dn1  v100
 BYTE   W12
 BYTE   Dn1  v096
 BYTE   W12
 BYTE   N06  Dn1  v088
 BYTE   W06
 BYTE   Dn1  v076
 BYTE   W06
// 033   ----------------------------------------
 BYTE   PATT
  POIN2 Label_9_012BBE98
// 034   ----------------------------------------
 BYTE   PATT
  POIN2 Label_9_012BBECF
// 035   ----------------------------------------
 BYTE   PATT
  POIN2 Label_9_012BBE98
// 036   ----------------------------------------
 BYTE   PATT
  POIN2 Label_9_012BBECF
// 037   ----------------------------------------
 BYTE   N01  Dn1  v076
 BYTE   W01
 BYTE   N04  Dn1  v100
 BYTE   W05
 BYTE   N06  Dn1  v096
 BYTE   W06
 BYTE   Dn1  v088
 BYTE   W06
 BYTE   Dn1  v076
 BYTE   W06
 BYTE   N12  Dn1  v100
 BYTE   W12
 BYTE   Dn1  v096
 BYTE   W12
 BYTE   N06  Dn1  v076
 BYTE   N09  An2  v112
 BYTE   W08
 BYTE   N06  Dn1  v088
 BYTE   W08
 BYTE   N08  Dn1  v076
 BYTE   N09  An2  v116
 BYTE   W08
 BYTE   N06  Dn1  v088
 BYTE   W08
 BYTE   N04  Dn1  v100
 BYTE   N09  An2  v120
 BYTE   W04
 BYTE   N04  Dn1  v088
 BYTE   W04
 BYTE   N06  Dn1  v076
 BYTE   W08
// 038   ----------------------------------------
 BYTE   Dn1  v100
 BYTE   N96  Cs2  v092
 BYTE   N12  An2  v120
 BYTE   W06
 BYTE   N06  Dn1  v096
 BYTE   W06
 BYTE   Dn1  v088
 BYTE   W06
 BYTE   Dn1  v076
 BYTE   W06
 BYTE   N12  Dn1  v096
 BYTE   W12
 BYTE   N01  Dn1  v100
 BYTE   W01
 BYTE   N11  Dn1  v096
 BYTE   W11
 BYTE   N06  Dn1  v076
 BYTE   W06
 BYTE   Dn1  v088
 BYTE   W06
 BYTE   N12  Dn1  v076
 BYTE   W12
 BYTE   Dn1  v100
 BYTE   W12
 BYTE   N06  Dn1  v096
 BYTE   W06
 BYTE   Dn1  v088
 BYTE   W06
// 039   ----------------------------------------
 BYTE   PATT
  POIN2 Label_9_012BBD9C
// 040   ----------------------------------------
 BYTE   PATT
  POIN2 Label_9_012BBDD1
// 041   ----------------------------------------
 BYTE   N01  Dn1  v076
 BYTE   W01
 BYTE   N04
 BYTE   N96  Ds2  v092
 BYTE   W05
 BYTE   N06  Dn1  v100
 BYTE   W06
 BYTE   Dn1  v096
 BYTE   W06
 BYTE   Dn1  v088
 BYTE   W06
 BYTE   N12  Dn1  v076
 BYTE   W12
 BYTE   Dn1  v100
 BYTE   W12
 BYTE   N06  Dn1  v096
 BYTE   W06
 BYTE   Dn1  v076
 BYTE   W06
 BYTE   N12  Dn1  v088
 BYTE   W12
 BYTE   N06  Dn1  v076
 BYTE   W06
 BYTE   N03  Dn1  v088
 BYTE   W03
 BYTE   Dn1  v100
 BYTE   W03
 BYTE   N06  Dn1  v088
 BYTE   W06
 BYTE   Dn1  v076
 BYTE   W06
// 042   ----------------------------------------
 BYTE   N01  Dn1  v100
 BYTE   W01
 BYTE   N04  Dn1  v096
 BYTE   N96  Cs2  v092
 BYTE   N12  An2  v120
 BYTE   W92
 BYTE   W03
// 043   ----------------------------------------
 BYTE   N06  Dn1  v088
 BYTE   W06
 BYTE   Dn1  v076
 BYTE   W06
 BYTE   Dn1  v096
 BYTE   W06
 BYTE   Dn1  v100
 BYTE   W06
 BYTE   N12  Dn1  v096
 BYTE   W12
 BYTE   N01  Dn1  v076
 BYTE   W01
 BYTE   N11  Dn1  v088
 BYTE   W11
 BYTE   N06  Dn1  v076
 BYTE   W06
 BYTE   Dn1  v100
 BYTE   W06
 BYTE   N12  Dn1  v096
 BYTE   W12
 BYTE   Dn1  v088
 BYTE   W12
 BYTE   N06  Dn1  v076
 BYTE   W06
 BYTE   N06
 BYTE   W06
// 044   ----------------------------------------
 BYTE   N01  Dn1  v100
 BYTE   W01
 BYTE   N04  Dn1  v096
 BYTE   W92
 BYTE   W03
// 045   ----------------------------------------
 BYTE   N06  Dn1  v088
 BYTE   W06
 BYTE   Dn1  v076
 BYTE   W06
 BYTE   Dn1  v100
 BYTE   W06
 BYTE   Dn1  v096
 BYTE   W06
 BYTE   N12  Dn1  v076
 BYTE   W12
 BYTE   N01  Dn1  v088
 BYTE   W01
 BYTE   N11  Dn1  v076
 BYTE   W11
 BYTE   N06  Dn1  v088
 BYTE   W06
 BYTE   Dn1  v100
 BYTE   W06
 BYTE   N12  Dn1  v088
 BYTE   W12
 BYTE   N06  Dn1  v076
 BYTE   W06
 BYTE   Dn1  v100
 BYTE   W06
 BYTE   Dn1  v096
 BYTE   W06
 BYTE   Dn1  v088
 BYTE   W06
// 046   ----------------------------------------
 BYTE   N01  Dn1  v076
 BYTE   W01
 BYTE   N04  Dn1  v096
 BYTE   W92
 BYTE   W03
// 047   ----------------------------------------
 BYTE   N06  Dn1  v100
 BYTE   W06
 BYTE   Dn1  v096
 BYTE   W06
 BYTE   Dn1  v076
 BYTE   W06
 BYTE   Dn1  v088
 BYTE   W06
 BYTE   N12  Dn1  v076
 BYTE   W12
 BYTE   N01  Dn1  v100
 BYTE   W01
 BYTE   N11  Dn1  v096
 BYTE   W11
 BYTE   N06  Dn1  v088
 BYTE   W06
 BYTE   Dn1  v076
 BYTE   W06
 BYTE   N12
 BYTE   W12
 BYTE   Dn1  v100
 BYTE   W12
 BYTE   N06  Dn1  v096
 BYTE   W06
 BYTE   Dn1  v088
 BYTE   W06
// 048   ----------------------------------------
Label_9_012BC10C:
 BYTE   N06  Dn1  v076
 BYTE   W06
 BYTE   Dn1  v100
 BYTE   W06
 BYTE   Dn1  v096
 BYTE   W06
 BYTE   Dn1  v076
 BYTE   W06
 BYTE   N12  Dn1  v088
 BYTE   W12
 BYTE   N01  Dn1  v076
 BYTE   W01
 BYTE   N11  Dn1  v088
 BYTE   W11
 BYTE   N06  Dn1  v100
 BYTE   W06
 BYTE   Dn1  v088
 BYTE   W06
 BYTE   N12  Dn1  v076
 BYTE   W12
 BYTE   Dn1  v100
 BYTE   W12
 BYTE   N06  Dn1  v096
 BYTE   W06
 BYTE   Dn1  v088
 BYTE   W06
 BYTE   PEND 
// 049   ----------------------------------------
 BYTE   N01  Dn1  v076
 BYTE   W01
 BYTE   N04  Dn1  v096
 BYTE   W05
 BYTE   N06  Dn1  v100
 BYTE   W06
 BYTE   Dn1  v096
 BYTE   W06
 BYTE   Dn1  v076
 BYTE   W06
 BYTE   N12  Dn1  v088
 BYTE   W12
 BYTE   Dn1  v076
 BYTE   W12
 BYTE   N06  Dn1  v100
 BYTE   W06
 BYTE   Dn1  v096
 BYTE   W06
 BYTE   N12  Dn1  v088
 BYTE   W12
 BYTE   N06  Dn1  v076
 BYTE   W06
 BYTE   N03
 BYTE   W03
 BYTE   Dn1  v100
 BYTE   W03
 BYTE   N06  Dn1  v096
 BYTE   W06
 BYTE   Dn1  v088
 BYTE   W06
// 050   ----------------------------------------
 BYTE   PATT
  POIN2 Label_9_012BC10C
// 051   ----------------------------------------
 BYTE   N01  Dn1  v076
 BYTE   W01
 BYTE   N04  Dn1  v096
 BYTE   N96  Ds2  v092
 BYTE   W05
 BYTE   N06  Dn1  v100
 BYTE   W06
 BYTE   Dn1  v096
 BYTE   W06
 BYTE   Dn1  v076
 BYTE   W06
 BYTE   N12  Dn1  v088
 BYTE   W12
 BYTE   Dn1  v076
 BYTE   W12
 BYTE   N06  Dn1  v100
 BYTE   W06
 BYTE   Dn1  v096
 BYTE   W06
 BYTE   N12  Dn1  v088
 BYTE   W12
 BYTE   N06  Dn1  v076
 BYTE   W06
 BYTE   N03
 BYTE   W03
 BYTE   Dn1  v100
 BYTE   W03
 BYTE   N06  Dn1  v096
 BYTE   N12  An2  v112
 BYTE   W06
 BYTE   N06  Dn1  v088
 BYTE   W06
// 052   ----------------------------------------
 BYTE   N01  Dn1  v076
 BYTE   W01
 BYTE   N04  Dn1  v100
 BYTE   N96  Cs2  v092
 BYTE   N12  An2  v120
 BYTE   W05
 BYTE   N06  Dn1  v096
 BYTE   W90
// 053   ----------------------------------------
 BYTE   W48
 BYTE   Dn1  v076
 BYTE   W06
 BYTE   N03  Dn1  v088
 BYTE   W03
 BYTE   Dn1  v076
 BYTE   W03
 BYTE   N06  Dn1  v088
 BYTE   N12  An2  v112
 BYTE   W06
 BYTE   N06  Dn1  v100
 BYTE   W06
 BYTE   Dn1  v088
 BYTE   W06
 BYTE   Dn1  v076
 BYTE   W06
 BYTE   Dn1  v100
 BYTE   N12  An2  v112
 BYTE   W06
 BYTE   N06  Dn1  v096
 BYTE   W06
// 054   ----------------------------------------
 BYTE   N01  Dn1  v088
 BYTE   W01
 BYTE   N04  Dn1  v076
 BYTE   N96  Cs2  v084
 BYTE   N12  An2  v112
 BYTE   W92
 BYTE   W03
// 055   ----------------------------------------
 BYTE   W48
 BYTE   N06  Dn1  v096
 BYTE   W06
 BYTE   N03  Dn1  v100
 BYTE   W03
 BYTE   Dn1  v096
 BYTE   W03
 BYTE   N06  Dn1  v076
 BYTE   N12  An2  v112
 BYTE   W06
 BYTE   N06  Dn1  v088
 BYTE   W06
 BYTE   Dn1  v076
 BYTE   W06
 BYTE   Dn1  v100
 BYTE   W06
 BYTE   N03
 BYTE   W03
 BYTE   Dn1  v096
 BYTE   N12  An2  v112
 BYTE   W03
 BYTE   N06  Dn1  v088
 BYTE   W06
// 056   ----------------------------------------
 BYTE   W03
 BYTE   GoTo
  POIN2 Label_9_012BBBF8
 BYTE   FINE

//**************** Track 11 (Midi-Chn.10) ****************//

song012D_011:
// 000   ----------------------------------------
 BYTE   KEYSH   song012D_key+0
Label_10_012BC228:
 BYTE   VOICE   60
 BYTE   VOL   21*song012D_mvl/mxv
 BYTE   PAN   c_v+0
 BYTE   W96
 BYTE   PEND 
// 001   ----------------------------------------
 BYTE   W96
// 002   ----------------------------------------
 BYTE   W96
// 003   ----------------------------------------
 BYTE   W96
// 004   ----------------------------------------
Label_10_012BC233:
 BYTE   TIE  An2  v100
 BYTE   TIE  Dn3
 BYTE   W96
 BYTE   PEND 
// 005   ----------------------------------------
 BYTE   W96
// 006   ----------------------------------------
 BYTE   EOT
 BYTE   An2  v062
Label_10_012BC23E:
 BYTE   TIE  Gn2  v100
 BYTE   TIE  Cn3
 BYTE   W96
 BYTE   PEND 
// 007   ----------------------------------------
 BYTE   W96
// 008   ----------------------------------------
 BYTE   EOT
 BYTE   Gn2  v060
 BYTE   N36  An2
 BYTE   N36  Dn3
 BYTE   W96
// 009   ----------------------------------------
 BYTE   W96
// 010   ----------------------------------------
 BYTE   W96
// 011   ----------------------------------------
 BYTE   W96
// 012   ----------------------------------------
 BYTE   W96
// 013   ----------------------------------------
 BYTE   W96
// 014   ----------------------------------------
 BYTE   W96
// 015   ----------------------------------------
 BYTE   W96
// 016   ----------------------------------------
 BYTE   W96
// 017   ----------------------------------------
 BYTE   W96
// 018   ----------------------------------------
 BYTE   PATT
  POIN2 Label_10_012BC233
// 019   ----------------------------------------
 BYTE   W96
// 020   ----------------------------------------
 BYTE   EOT
 BYTE   An2  v062
// 021   ----------------------------------------
 BYTE   PATT
  POIN2 Label_10_012BC23E
// 022   ----------------------------------------
 BYTE   W96
// 023   ----------------------------------------
 BYTE   EOT
 BYTE   Gn2  v060
 BYTE   N36  An2  v100
 BYTE   N36  Dn3
 BYTE   W96
// 024   ----------------------------------------
 BYTE   W96
// 025   ----------------------------------------
 BYTE   W96
// 026   ----------------------------------------
 BYTE   W96
// 027   ----------------------------------------
 BYTE   W96
// 028   ----------------------------------------
 BYTE   W96
// 029   ----------------------------------------
 BYTE   W96
// 030   ----------------------------------------
 BYTE   W96
// 031   ----------------------------------------
 BYTE   W96
// 032   ----------------------------------------
 BYTE   W96
// 033   ----------------------------------------
 BYTE   W96
// 034   ----------------------------------------
 BYTE   W96
// 035   ----------------------------------------
 BYTE   W96
// 036   ----------------------------------------
 BYTE   W96
// 037   ----------------------------------------
 BYTE   W96
// 038   ----------------------------------------
 BYTE   W96
// 039   ----------------------------------------
 BYTE   W96
// 040   ----------------------------------------
 BYTE   W96
// 041   ----------------------------------------
 BYTE   VOICE   61
 BYTE   VOL   24*song012D_mvl/mxv
 BYTE   PAN   c_v+4
 BYTE   W96
// 042   ----------------------------------------
 BYTE   W96
// 043   ----------------------------------------
 BYTE   TIE  Gn0  v127
 BYTE   TIE  Gn1  v112
 BYTE   W96
// 044   ----------------------------------------
 BYTE   W96
// 045   ----------------------------------------
 BYTE   EOT
 BYTE   Gn0  v043
 BYTE   TIE  Fn0  v127
 BYTE   TIE  Fn1  v112
 BYTE   W96
// 046   ----------------------------------------
 BYTE   W96
// 047   ----------------------------------------
 BYTE   EOT
 BYTE   Fn0  v041
 BYTE   TIE  En0  v127
 BYTE   TIE  En1  v112
 BYTE   W96
// 048   ----------------------------------------
 BYTE   W96
// 049   ----------------------------------------
 BYTE   EOT
 BYTE   En0  v040
 BYTE   TIE  Ds1  v127
 BYTE   TIE  Ds2  v112
 BYTE   W96
// 050   ----------------------------------------
 BYTE   W96
// 051   ----------------------------------------
 BYTE   EOT
 BYTE   Ds1  v051
 BYTE   N96  Cs1  v127
 BYTE   N96  Cs2  v112
 BYTE   W96
// 052   ----------------------------------------
 BYTE   An0  v127
 BYTE   N96  An1  v112
 BYTE   W96
// 053   ----------------------------------------
 BYTE   N12  Dn1  v127
 BYTE   N12  Dn2  v112
 BYTE   W96
// 054   ----------------------------------------
 BYTE   W96
// 055   ----------------------------------------
 BYTE   PATT
  POIN2 Label_10_012BC228
// 056   ----------------------------------------
 BYTE   W96
// 057   ----------------------------------------
 BYTE   W03
 BYTE   GoTo
  POIN2 Label_10_012BC233
 BYTE   FINE

//**************** Track 12 (Midi-Chn.11) ****************//

song012D_012:
// 000   ----------------------------------------
 BYTE   KEYSH   song012D_key+0
 BYTE   VOICE   61
 BYTE   VOL   19*song012D_mvl/mxv
 BYTE   PAN   c_v+2
 BYTE   N06  Dn2  v108
 BYTE   N06  Fn2
 BYTE   W12
 BYTE   N12  Dn2
 BYTE   N12  Fn2
 BYTE   W24
 BYTE   N06  Dn2
 BYTE   N06  Fn2
 BYTE   W24
 BYTE   N12  Dn2
 BYTE   N12  Fn2
 BYTE   W24
 BYTE   N48  Dn2
 BYTE   N48  Fn2
 BYTE   W12
// 001   ----------------------------------------
Label_11_012BC2F8:
 BYTE   W60
 BYTE   N09  Dn2  v127
 BYTE   N09  Fn2
 BYTE   W24
 BYTE   N06  Dn2  v108
 BYTE   N06  Fn2
 BYTE   W12
 BYTE   PEND 
// 002   ----------------------------------------
Label_11_012BC306:
 BYTE   N06  Dn2  v108
 BYTE   N06  Fn2
 BYTE   W12
 BYTE   N12  Dn2
 BYTE   N12  Fn2
 BYTE   W24
 BYTE   N06  Dn2
 BYTE   N06  Fn2
 BYTE   W24
 BYTE   N12  Dn2
 BYTE   N12  Fn2
 BYTE   W24
 BYTE   N48  En2
 BYTE   N48  An2
 BYTE   W12
 BYTE   PEND 
// 003   ----------------------------------------
Label_11_012BC321:
 BYTE   W60
 BYTE   N07  Dn3  v116
 BYTE   N07  Fn3
 BYTE   W24
 BYTE   N04  Dn3  v096
 BYTE   N04  Fn3
 BYTE   W12
 BYTE   PEND 
// 004   ----------------------------------------
Label_11_012BC32F:
 BYTE   N05  Dn3  v116
 BYTE   N05  Fn3
 BYTE   W12
 BYTE   N03  Dn3  v100
 BYTE   N03  Fn3
 BYTE   W12
 BYTE   Dn3  v096
 BYTE   N03  Fn3
 BYTE   W12
 BYTE   N09  Dn3  v112
 BYTE   N09  Fn3
 BYTE   W24
 BYTE   N03  Dn3  v096
 BYTE   N03  Fn3
 BYTE   W12
 BYTE   Dn3  v112
 BYTE   N03  Fn3
 BYTE   W12
 BYTE   Dn3  v096
 BYTE   N03  Fn3
 BYTE   W12
 BYTE   PEND 
// 005   ----------------------------------------
 BYTE   N05  Dn3  v116
 BYTE   N05  Fn3
 BYTE   W12
 BYTE   N03  Dn3  v100
 BYTE   N03  Fn3
 BYTE   W12
 BYTE   Dn3  v096
 BYTE   N03  Fn3
 BYTE   W12
 BYTE   N09  Dn3  v112
 BYTE   N09  Fn3
 BYTE   W24
 BYTE   N03  Dn3
 BYTE   N03  Fn3  v096
 BYTE   W12
 BYTE   Dn3  v112
 BYTE   N03  Fn3
 BYTE   W12
 BYTE   Dn3  v096
 BYTE   N03  Fn3
 BYTE   W12
// 006   ----------------------------------------
Label_11_012BC37E:
 BYTE   N05  En3  v116
 BYTE   N05  Gn3
 BYTE   W12
 BYTE   N03  En3  v100
 BYTE   N03  Gn3
 BYTE   W12
 BYTE   En3  v096
 BYTE   N03  Gn3
 BYTE   W12
 BYTE   N09  En3  v112
 BYTE   N09  Gn3
 BYTE   W24
 BYTE   N03  En3  v096
 BYTE   N03  Gn3
 BYTE   W12
 BYTE   En3  v112
 BYTE   N03  Gn3
 BYTE   W12
 BYTE   En3  v096
 BYTE   N03  Gn3
 BYTE   W12
 BYTE   PEND 
// 007   ----------------------------------------
 BYTE   PATT
  POIN2 Label_11_012BC37E
// 008   ----------------------------------------
 BYTE   PATT
  POIN2 Label_11_012BC32F
// 009   ----------------------------------------
 BYTE   PATT
  POIN2 Label_11_012BC32F
// 010   ----------------------------------------
 BYTE   PATT
  POIN2 Label_11_012BC37E
// 011   ----------------------------------------
 BYTE   PATT
  POIN2 Label_11_012BC37E
// 012   ----------------------------------------
Label_11_012BC3BF:
 BYTE   N05  Dn3  v116
 BYTE   N05  Gn3
 BYTE   W12
 BYTE   N03  Dn3  v100
 BYTE   N03  Gn3
 BYTE   W12
 BYTE   Dn3  v096
 BYTE   N03  Gn3
 BYTE   W12
 BYTE   N09  Dn3  v112
 BYTE   N09  Gn3
 BYTE   W24
 BYTE   N03  Dn3  v096
 BYTE   N03  Gn3
 BYTE   W12
 BYTE   Dn3  v112
 BYTE   N03  Gn3
 BYTE   W12
 BYTE   Dn3  v096
 BYTE   N03  Gn3
 BYTE   W12
 BYTE   PEND 
// 013   ----------------------------------------
 BYTE   PATT
  POIN2 Label_11_012BC3BF
// 014   ----------------------------------------
 BYTE   PATT
  POIN2 Label_11_012BC32F
// 015   ----------------------------------------
 BYTE   PATT
  POIN2 Label_11_012BC32F
// 016   ----------------------------------------
 BYTE   PATT
  POIN2 Label_11_012BC32F
// 017   ----------------------------------------
 BYTE   PATT
  POIN2 Label_11_012BC32F
// 018   ----------------------------------------
 BYTE   PATT
  POIN2 Label_11_012BC32F
// 019   ----------------------------------------
 BYTE   N05  Dn3  v116
 BYTE   N05  Fn3
 BYTE   W12
 BYTE   N03  Dn3  v100
 BYTE   N03  Fn3
 BYTE   W12
 BYTE   Dn3  v096
 BYTE   N03  Fn3
 BYTE   W12
 BYTE   N09  Dn3  v112
 BYTE   N09  Fn3
 BYTE   W24
 BYTE   N03  Fn3  v096
 BYTE   W12
 BYTE   Dn3  v112
 BYTE   N03  Fn3
 BYTE   W12
 BYTE   Dn3  v096
 BYTE   N03  Fn3
 BYTE   W12
// 020   ----------------------------------------
 BYTE   PATT
  POIN2 Label_11_012BC37E
// 021   ----------------------------------------
 BYTE   PATT
  POIN2 Label_11_012BC37E
// 022   ----------------------------------------
 BYTE   PATT
  POIN2 Label_11_012BC32F
// 023   ----------------------------------------
 BYTE   PATT
  POIN2 Label_11_012BC32F
// 024   ----------------------------------------
 BYTE   PATT
  POIN2 Label_11_012BC37E
// 025   ----------------------------------------
 BYTE   PATT
  POIN2 Label_11_012BC37E
// 026   ----------------------------------------
 BYTE   PATT
  POIN2 Label_11_012BC3BF
// 027   ----------------------------------------
 BYTE   PATT
  POIN2 Label_11_012BC3BF
// 028   ----------------------------------------
 BYTE   PATT
  POIN2 Label_11_012BC32F
// 029   ----------------------------------------
 BYTE   PATT
  POIN2 Label_11_012BC32F
// 030   ----------------------------------------
 BYTE   PATT
  POIN2 Label_11_012BC32F
// 031   ----------------------------------------
 BYTE   N05  Dn3  v116
 BYTE   N05  Fn3
 BYTE   W12
 BYTE   N03  Dn3  v100
 BYTE   N03  Fn3
 BYTE   W12
 BYTE   Dn3  v096
 BYTE   N03  Fn3
 BYTE   W12
 BYTE   N09  Dn3  v112
 BYTE   N09  Fn3
 BYTE   W24
 BYTE   N03  Dn3  v096
 BYTE   N03  Fn3
 BYTE   W12
 BYTE   N04  Dn3  v127
 BYTE   N04  An3
 BYTE   W18
 BYTE   N03  Dn3  v120
 BYTE   N03  An3
 BYTE   W06
// 032   ----------------------------------------
Label_11_012BC48A:
 BYTE   N30  An3  v096
 BYTE   N30  Dn4  v127
 BYTE   W36
 BYTE   N06  An3  v096
 BYTE   N06  Dn4  v127
 BYTE   W06
 BYTE   An3  v096
 BYTE   N06  En4  v127
 BYTE   W06
 BYTE   N48  An3  v096
 BYTE   N48  Fn4  v127
 BYTE   W48
 BYTE   PEND 
// 033   ----------------------------------------
 BYTE   W24
 BYTE   N18  An3  v096
 BYTE   N18  Dn4  v116
 BYTE   W24
 BYTE   An3  v096
 BYTE   N18  En4  v127
 BYTE   W24
 BYTE   N24  An3  v096
 BYTE   N24  Fn4  v127
 BYTE   W24
// 034   ----------------------------------------
 BYTE   N06  Cn4  v096
 BYTE   N06  En4  v127
 BYTE   W06
 BYTE   Gn3  v096
 BYTE   N06  Dn4  v127
 BYTE   W06
 BYTE   N84  Gn3  v096
 BYTE   N84  Cn4  v127
 BYTE   W84
// 035   ----------------------------------------
 BYTE   W24
 BYTE   N18  Cn4  v096
 BYTE   N18  Gn4  v127
 BYTE   W24
 BYTE   Cn4  v096
 BYTE   N18  Fn4  v127
 BYTE   W24
 BYTE   N04  Gn3  v116
 BYTE   N04  En4  v127
 BYTE   W18
 BYTE   N03  Gn3  v108
 BYTE   N03  En4  v127
 BYTE   W06
// 036   ----------------------------------------
 BYTE   PATT
  POIN2 Label_11_012BC48A
// 037   ----------------------------------------
 BYTE   W24
 BYTE   N18  An3  v096
 BYTE   N18  Dn4  v116
 BYTE   W24
 BYTE   N12  Dn4  v096
 BYTE   N12  An4  v127
 BYTE   W16
 BYTE   N09  Dn4  v096
 BYTE   N09  Gn4  v127
 BYTE   W16
 BYTE   Dn4  v096
 BYTE   N09  Fn4  v127
 BYTE   W16
// 038   ----------------------------------------
 BYTE   N06  Cn4  v096
 BYTE   N06  En4  v127
 BYTE   W06
 BYTE   Dn4  v096
 BYTE   N06  Fn4  v127
 BYTE   W06
 BYTE   N84  En4  v096
 BYTE   N84  Gn4  v127
 BYTE   W84
// 039   ----------------------------------------
 BYTE   W24
 BYTE   N18  An3  v096
 BYTE   N18  Gn4  v127
 BYTE   W24
 BYTE   An3  v096
 BYTE   N18  Fn4  v127
 BYTE   W24
 BYTE   N04  An3  v116
 BYTE   N04  En4  v127
 BYTE   W18
 BYTE   N03  An3  v108
 BYTE   N03  En4  v127
 BYTE   W06
// 040   ----------------------------------------
 BYTE   N48  Gn3  v108
 BYTE   TIE  Dn4  v127
 BYTE   W48
 BYTE   N48  En3  v096
 BYTE   W48
// 041   ----------------------------------------
 BYTE   N90  Fs3
 BYTE   W90
 BYTE   EOT
 BYTE   Dn4
 BYTE   W06
// 042   ----------------------------------------
Label_11_012BC54D:
 BYTE   N04  Dn3  v096
 BYTE   N04  Gn3
 BYTE   W12
 BYTE   N02  Dn3  v080
 BYTE   N02  Gn3
 BYTE   W12
 BYTE   Dn3  v076
 BYTE   N02  Gn3
 BYTE   W12
 BYTE   N08  Dn3  v092
 BYTE   N08  Gn3
 BYTE   W24
 BYTE   N02  Dn3  v076
 BYTE   N02  Gn3
 BYTE   W12
 BYTE   Dn3  v092
 BYTE   N02  Gn3
 BYTE   W12
 BYTE   Dn3  v076
 BYTE   N02  Gn3
 BYTE   W12
 BYTE   PEND 
// 043   ----------------------------------------
 BYTE   PATT
  POIN2 Label_11_012BC54D
// 044   ----------------------------------------
 BYTE   N04  Dn3  v096
 BYTE   N04  Fn3
 BYTE   W12
 BYTE   N02  Dn3  v080
 BYTE   N02  Fn3
 BYTE   W12
 BYTE   Dn3  v076
 BYTE   N02  Fn3
 BYTE   W12
 BYTE   N08  Dn3  v092
 BYTE   N08  Fn3
 BYTE   W24
 BYTE   N02  Dn3  v076
 BYTE   N02  Fn3
 BYTE   W12
 BYTE   Dn3  v092
 BYTE   N02  Fn3
 BYTE   W12
 BYTE   Dn3  v076
 BYTE   N02  Fn3
 BYTE   W12
// 045   ----------------------------------------
 BYTE   N04  Cn3  v096
 BYTE   N04  Fn3
 BYTE   W12
 BYTE   N02  Cn3  v080
 BYTE   N02  Fn3
 BYTE   W12
 BYTE   Cn3  v076
 BYTE   N02  Fn3
 BYTE   W12
 BYTE   N08  Cn3  v092
 BYTE   N08  Fn3
 BYTE   W24
 BYTE   N02  Cn3  v076
 BYTE   N02  Fn3
 BYTE   W12
 BYTE   Cn3  v092
 BYTE   N02  Fn3
 BYTE   W12
 BYTE   Cn3  v076
 BYTE   N02  Fn3
 BYTE   W12
// 046   ----------------------------------------
Label_11_012BC5C8:
 BYTE   N04  Cn3  v096
 BYTE   N04  Gn3
 BYTE   W12
 BYTE   N02  Cn3  v080
 BYTE   N02  Gn3
 BYTE   W12
 BYTE   Cn3  v076
 BYTE   N02  Gn3
 BYTE   W12
 BYTE   N08  Cn3  v092
 BYTE   N08  Gn3
 BYTE   W24
 BYTE   N02  Cn3  v076
 BYTE   N02  Gn3
 BYTE   W12
 BYTE   Cn3  v092
 BYTE   N02  Gn3
 BYTE   W12
 BYTE   Cn3  v076
 BYTE   N02  Gn3
 BYTE   W12
 BYTE   PEND 
// 047   ----------------------------------------
 BYTE   PATT
  POIN2 Label_11_012BC5C8
// 048   ----------------------------------------
Label_11_012BC5F5:
 BYTE   N04  Ds3  v096
 BYTE   N04  Gn3
 BYTE   W12
 BYTE   N02  Ds3  v080
 BYTE   N02  Gn3
 BYTE   W12
 BYTE   Ds3  v076
 BYTE   N02  Gn3
 BYTE   W12
 BYTE   N08  Ds3  v092
 BYTE   N08  Gn3
 BYTE   W24
 BYTE   N02  Ds3  v076
 BYTE   N02  Gn3
 BYTE   W12
 BYTE   Ds3  v092
 BYTE   N02  Gn3
 BYTE   W12
 BYTE   Ds3  v076
 BYTE   N02  Gn3
 BYTE   W12
 BYTE   PEND 
// 049   ----------------------------------------
 BYTE   PATT
  POIN2 Label_11_012BC5F5
// 050   ----------------------------------------
 BYTE   N04  Cs3  v096
 BYTE   N04  Gn3
 BYTE   W12
 BYTE   N02  Cs3  v080
 BYTE   N02  Gn3
 BYTE   W12
 BYTE   Cs3  v076
 BYTE   N02  Gn3
 BYTE   W12
 BYTE   N08  Cs3  v092
 BYTE   N08  Gn3
 BYTE   W24
 BYTE   N02  Cs3  v076
 BYTE   N02  Gn3
 BYTE   W12
 BYTE   Cs3  v092
 BYTE   N02  Gn3
 BYTE   W12
 BYTE   Cs3  v076
 BYTE   N02  Gn3
 BYTE   W12
// 051   ----------------------------------------
 BYTE   N04  Cs3  v096
 BYTE   N04  Gn3
 BYTE   N04  An3
 BYTE   W12
 BYTE   N02  Cs3  v080
 BYTE   N02  Gn3
 BYTE   N02  An3
 BYTE   W12
 BYTE   Cs3  v076
 BYTE   N02  Gn3
 BYTE   N02  An3
 BYTE   W12
 BYTE   N08  Cs3  v092
 BYTE   N08  Gn3
 BYTE   N08  An3
 BYTE   W24
 BYTE   N02  Cs3  v076
 BYTE   N02  Gn3
 BYTE   N02  An3
 BYTE   W12
 BYTE   Cs3  v092
 BYTE   N02  Gn3
 BYTE   N02  An3
 BYTE   W12
 BYTE   Cs3  v076
 BYTE   N02  Gn3
 BYTE   N02  An3
 BYTE   W12
// 052   ----------------------------------------
 BYTE   N04  Dn3  v108
 BYTE   N04  Fn3
 BYTE   N04  An3
 BYTE   W12
 BYTE   N12  Dn2
 BYTE   N12  Fn2
 BYTE   W24
 BYTE   N06  Dn2
 BYTE   N06  Fn2
 BYTE   W24
 BYTE   N12  Dn2
 BYTE   N12  Fn2
 BYTE   W24
 BYTE   N48  Dn2
 BYTE   N48  Fn2
 BYTE   W12
// 053   ----------------------------------------
 BYTE   PATT
  POIN2 Label_11_012BC2F8
// 054   ----------------------------------------
 BYTE   PATT
  POIN2 Label_11_012BC306
// 055   ----------------------------------------
 BYTE   PATT
  POIN2 Label_11_012BC321
// 056   ----------------------------------------
 BYTE   W03
 BYTE   GoTo
  POIN2 Label_11_012BC32F
 BYTE   FINE

//**************** Track 13 (Midi-Chn.12) ****************//

song012D_013:
// 000   ----------------------------------------
 BYTE   KEYSH   song012D_key+0
 BYTE   VOICE   47
 BYTE   VOL   21*song012D_mvl/mxv
 BYTE   PAN   c_v-14
 BYTE   N12  Dn1  v112
 BYTE   W96
// 001   ----------------------------------------
Label_12_012BC6BC:
 BYTE   W60
 BYTE   N12  Dn1  v112
 BYTE   W24
 BYTE   N12
 BYTE   W12
 BYTE   PEND 
// 002   ----------------------------------------
 BYTE   N12
 BYTE   W96
// 003   ----------------------------------------
 BYTE   PATT
  POIN2 Label_12_012BC6BC
// 004   ----------------------------------------
Label_12_012BC6CB:
 BYTE   N12  As1  v112
 BYTE   W36
 BYTE   As1  v100
 BYTE   W24
 BYTE   Fn1  v112
 BYTE   W12
 BYTE   As1
 BYTE   W24
 BYTE   PEND 
// 005   ----------------------------------------
Label_12_012BC6D8:
 BYTE   N12  As1  v112
 BYTE   W12
 BYTE   As1  v100
 BYTE   W24
 BYTE   N12
 BYTE   W24
 BYTE   Fn1  v112
 BYTE   W12
 BYTE   As1  v100
 BYTE   W24
 BYTE   PEND 
// 006   ----------------------------------------
Label_12_012BC6E8:
 BYTE   N12  Cn2  v112
 BYTE   W36
 BYTE   Cn2  v100
 BYTE   W24
 BYTE   Gn1  v112
 BYTE   W12
 BYTE   Cn2
 BYTE   W24
 BYTE   PEND 
// 007   ----------------------------------------
Label_12_012BC6F5:
 BYTE   N12  Cn2  v112
 BYTE   W12
 BYTE   Cn2  v100
 BYTE   W24
 BYTE   Gn1
 BYTE   W24
 BYTE   Gn1  v112
 BYTE   W12
 BYTE   Cn2  v100
 BYTE   W12
 BYTE   Gn1
 BYTE   W12
 BYTE   PEND 
// 008   ----------------------------------------
 BYTE   PATT
  POIN2 Label_12_012BC6CB
// 009   ----------------------------------------
 BYTE   PATT
  POIN2 Label_12_012BC6D8
// 010   ----------------------------------------
 BYTE   PATT
  POIN2 Label_12_012BC6E8
// 011   ----------------------------------------
Label_12_012BC716:
 BYTE   N12  Cn2  v112
 BYTE   W12
 BYTE   Cn2  v100
 BYTE   W24
 BYTE   Gn1
 BYTE   W24
 BYTE   Gn1  v112
 BYTE   W12
 BYTE   Cn2  v100
 BYTE   W12
 BYTE   N04  Gn1
 BYTE   W04
 BYTE   Gn1  v112
 BYTE   W04
 BYTE   Gn1  v120
 BYTE   W04
 BYTE   PEND 
// 012   ----------------------------------------
Label_12_012BC72F:
 BYTE   N12  Gn1  v120
 BYTE   W36
 BYTE   Gn1  v100
 BYTE   W24
 BYTE   Dn1  v112
 BYTE   W12
 BYTE   Gn1
 BYTE   W24
 BYTE   PEND 
// 013   ----------------------------------------
Label_12_012BC73C:
 BYTE   N12  Gn1  v112
 BYTE   W12
 BYTE   Gn1  v100
 BYTE   W24
 BYTE   N12
 BYTE   W24
 BYTE   Dn1  v112
 BYTE   W12
 BYTE   Gn1  v100
 BYTE   W24
 BYTE   PEND 
// 014   ----------------------------------------
Label_12_012BC74C:
 BYTE   N12  Dn2  v112
 BYTE   W36
 BYTE   Dn2  v100
 BYTE   W24
 BYTE   An1  v112
 BYTE   W12
 BYTE   Dn2
 BYTE   W24
 BYTE   PEND 
// 015   ----------------------------------------
Label_12_012BC759:
 BYTE   N12  Dn2  v112
 BYTE   W12
 BYTE   Dn2  v100
 BYTE   W24
 BYTE   An1
 BYTE   W24
 BYTE   An1  v112
 BYTE   W12
 BYTE   Dn2  v100
 BYTE   W12
 BYTE   An1
 BYTE   W12
 BYTE   PEND 
// 016   ----------------------------------------
 BYTE   PATT
  POIN2 Label_12_012BC74C
// 017   ----------------------------------------
 BYTE   PATT
  POIN2 Label_12_012BC759
// 018   ----------------------------------------
 BYTE   PATT
  POIN2 Label_12_012BC6CB
// 019   ----------------------------------------
 BYTE   PATT
  POIN2 Label_12_012BC6D8
// 020   ----------------------------------------
 BYTE   PATT
  POIN2 Label_12_012BC6E8
// 021   ----------------------------------------
 BYTE   PATT
  POIN2 Label_12_012BC6F5
// 022   ----------------------------------------
 BYTE   PATT
  POIN2 Label_12_012BC6CB
// 023   ----------------------------------------
 BYTE   PATT
  POIN2 Label_12_012BC6D8
// 024   ----------------------------------------
 BYTE   PATT
  POIN2 Label_12_012BC6E8
// 025   ----------------------------------------
 BYTE   PATT
  POIN2 Label_12_012BC716
// 026   ----------------------------------------
 BYTE   PATT
  POIN2 Label_12_012BC72F
// 027   ----------------------------------------
 BYTE   PATT
  POIN2 Label_12_012BC73C
// 028   ----------------------------------------
 BYTE   PATT
  POIN2 Label_12_012BC74C
// 029   ----------------------------------------
 BYTE   PATT
  POIN2 Label_12_012BC759
// 030   ----------------------------------------
 BYTE   PATT
  POIN2 Label_12_012BC74C
// 031   ----------------------------------------
 BYTE   PATT
  POIN2 Label_12_012BC759
// 032   ----------------------------------------
 BYTE   PATT
  POIN2 Label_12_012BC74C
// 033   ----------------------------------------
 BYTE   PATT
  POIN2 Label_12_012BC759
// 034   ----------------------------------------
 BYTE   PATT
  POIN2 Label_12_012BC6E8
// 035   ----------------------------------------
 BYTE   PATT
  POIN2 Label_12_012BC6F5
// 036   ----------------------------------------
 BYTE   PATT
  POIN2 Label_12_012BC6CB
// 037   ----------------------------------------
 BYTE   N12  As1  v112
 BYTE   W12
 BYTE   As1  v100
 BYTE   W36
 BYTE   Fn1  v120
 BYTE   W16
 BYTE   Fn1  v112
 BYTE   W16
 BYTE   Fn1  v127
 BYTE   W16
// 038   ----------------------------------------
 BYTE   An1  v120
 BYTE   W36
 BYTE   An1  v100
 BYTE   W24
 BYTE   En1  v112
 BYTE   W12
 BYTE   An1
 BYTE   W24
// 039   ----------------------------------------
 BYTE   N12
 BYTE   W12
 BYTE   An1  v100
 BYTE   W24
 BYTE   En1
 BYTE   W24
 BYTE   En1  v112
 BYTE   W12
 BYTE   An1  v100
 BYTE   W12
 BYTE   En1
 BYTE   W12
// 040   ----------------------------------------
 BYTE   PATT
  POIN2 Label_12_012BC74C
// 041   ----------------------------------------
 BYTE   N12  Dn2  v112
 BYTE   W12
 BYTE   Dn2  v100
 BYTE   W24
 BYTE   An1
 BYTE   W24
 BYTE   An1  v112
 BYTE   W12
 BYTE   Dn2
 BYTE   W12
 BYTE   An1  v120
 BYTE   W12
// 042   ----------------------------------------
 BYTE   Gn1  v127
 BYTE   W96
// 043   ----------------------------------------
 BYTE   W96
// 044   ----------------------------------------
 BYTE   W96
// 045   ----------------------------------------
 BYTE   W96
// 046   ----------------------------------------
 BYTE   W96
// 047   ----------------------------------------
 BYTE   W96
// 048   ----------------------------------------
 BYTE   W96
// 049   ----------------------------------------
 BYTE   W96
// 050   ----------------------------------------
 BYTE   W96
// 051   ----------------------------------------
 BYTE   W84
 BYTE   N04  An1  v108
 BYTE   W04
 BYTE   An1  v116
 BYTE   W04
 BYTE   An1  v127
 BYTE   W04
// 052   ----------------------------------------
 BYTE   N12  Dn1
 BYTE   W96
// 053   ----------------------------------------
 BYTE   PATT
  POIN2 Label_12_012BC6BC
// 054   ----------------------------------------
 BYTE   N12  Dn1  v112
 BYTE   W96
// 055   ----------------------------------------
 BYTE   PATT
  POIN2 Label_12_012BC6BC
// 056   ----------------------------------------
 BYTE   W03
 BYTE   GoTo
  POIN2 Label_12_012BC6CB
 BYTE   FINE

//**************** Track 14 (Midi-Chn.13) ****************//

song012D_014:
// 000   ----------------------------------------
 BYTE   KEYSH   song012D_key+0
 BYTE   VOICE   48
 BYTE   VOL   21*song012D_mvl/mxv
 BYTE   PAN   c_v+16
 BYTE   N12  Dn1  v120
 BYTE   N12  Dn2
 BYTE   W96
// 001   ----------------------------------------
Label_13_012BC850:
 BYTE   W60
 BYTE   N12  Dn1  v120
 BYTE   N12  Dn2
 BYTE   W24
 BYTE   Dn1
 BYTE   N12  Dn2
 BYTE   W12
 BYTE   PEND 
// 002   ----------------------------------------
 BYTE   Dn1
 BYTE   N12  Dn2
 BYTE   W96
// 003   ----------------------------------------
 BYTE   PATT
  POIN2 Label_13_012BC850
// 004   ----------------------------------------
Label_13_012BC865:
 BYTE   N12  As0  v120
 BYTE   N12  As1
 BYTE   W36
 BYTE   As0
 BYTE   N12  As1
 BYTE   W36
 BYTE   As0
 BYTE   N12  As1
 BYTE   W24
 BYTE   PEND 
// 005   ----------------------------------------
 BYTE   PATT
  POIN2 Label_13_012BC865
// 006   ----------------------------------------
Label_13_012BC879:
 BYTE   N12  Cn1  v120
 BYTE   N12  Cn2
 BYTE   W36
 BYTE   Cn1
 BYTE   N12  Cn2
 BYTE   W36
 BYTE   Cn1
 BYTE   N12  Cn2
 BYTE   W24
 BYTE   PEND 
// 007   ----------------------------------------
 BYTE   PATT
  POIN2 Label_13_012BC879
// 008   ----------------------------------------
 BYTE   PATT
  POIN2 Label_13_012BC865
// 009   ----------------------------------------
 BYTE   PATT
  POIN2 Label_13_012BC865
// 010   ----------------------------------------
 BYTE   PATT
  POIN2 Label_13_012BC879
// 011   ----------------------------------------
 BYTE   PATT
  POIN2 Label_13_012BC879
// 012   ----------------------------------------
Label_13_012BC8A1:
 BYTE   N12  Gn0  v120
 BYTE   N12  Gn1
 BYTE   W36
 BYTE   Gn0
 BYTE   N12  Gn1
 BYTE   W36
 BYTE   Gn0
 BYTE   N12  Gn1
 BYTE   W24
 BYTE   PEND 
// 013   ----------------------------------------
 BYTE   PATT
  POIN2 Label_13_012BC8A1
// 014   ----------------------------------------
Label_13_012BC8B5:
 BYTE   N12  Dn1  v120
 BYTE   N12  Dn2
 BYTE   W36
 BYTE   Dn1
 BYTE   N12  Dn2
 BYTE   W36
 BYTE   Dn1
 BYTE   N12  Dn2
 BYTE   W24
 BYTE   PEND 
// 015   ----------------------------------------
 BYTE   PATT
  POIN2 Label_13_012BC8B5
// 016   ----------------------------------------
 BYTE   PATT
  POIN2 Label_13_012BC8B5
// 017   ----------------------------------------
 BYTE   PATT
  POIN2 Label_13_012BC8B5
// 018   ----------------------------------------
 BYTE   PATT
  POIN2 Label_13_012BC865
// 019   ----------------------------------------
 BYTE   PATT
  POIN2 Label_13_012BC865
// 020   ----------------------------------------
 BYTE   PATT
  POIN2 Label_13_012BC879
// 021   ----------------------------------------
 BYTE   PATT
  POIN2 Label_13_012BC879
// 022   ----------------------------------------
 BYTE   PATT
  POIN2 Label_13_012BC865
// 023   ----------------------------------------
 BYTE   PATT
  POIN2 Label_13_012BC865
// 024   ----------------------------------------
 BYTE   PATT
  POIN2 Label_13_012BC879
// 025   ----------------------------------------
 BYTE   PATT
  POIN2 Label_13_012BC879
// 026   ----------------------------------------
 BYTE   PATT
  POIN2 Label_13_012BC8A1
// 027   ----------------------------------------
 BYTE   PATT
  POIN2 Label_13_012BC8A1
// 028   ----------------------------------------
 BYTE   PATT
  POIN2 Label_13_012BC8B5
// 029   ----------------------------------------
 BYTE   PATT
  POIN2 Label_13_012BC8B5
// 030   ----------------------------------------
 BYTE   PATT
  POIN2 Label_13_012BC8B5
// 031   ----------------------------------------
 BYTE   PATT
  POIN2 Label_13_012BC8B5
// 032   ----------------------------------------
 BYTE   PATT
  POIN2 Label_13_012BC8B5
// 033   ----------------------------------------
 BYTE   PATT
  POIN2 Label_13_012BC8B5
// 034   ----------------------------------------
 BYTE   PATT
  POIN2 Label_13_012BC879
// 035   ----------------------------------------
 BYTE   PATT
  POIN2 Label_13_012BC879
// 036   ----------------------------------------
 BYTE   PATT
  POIN2 Label_13_012BC865
// 037   ----------------------------------------
 BYTE   N12  As0  v120
 BYTE   N12  As1
 BYTE   W36
 BYTE   As0
 BYTE   N12  As1
 BYTE   W12
 BYTE   As0
 BYTE   N12  As1
 BYTE   W16
 BYTE   N08  As0
 BYTE   N08  As1
 BYTE   W16
 BYTE   As0
 BYTE   N08  As1
 BYTE   W16
// 038   ----------------------------------------
Label_13_012BC949:
 BYTE   N12  An0  v120
 BYTE   N12  An1
 BYTE   W36
 BYTE   An0
 BYTE   N12  An1
 BYTE   W36
 BYTE   An0
 BYTE   N12  An1
 BYTE   W24
 BYTE   PEND 
// 039   ----------------------------------------
 BYTE   PATT
  POIN2 Label_13_012BC949
// 040   ----------------------------------------
 BYTE   PATT
  POIN2 Label_13_012BC8B5
// 041   ----------------------------------------
 BYTE   PATT
  POIN2 Label_13_012BC8B5
// 042   ----------------------------------------
 BYTE   W96
// 043   ----------------------------------------
 BYTE   W96
// 044   ----------------------------------------
 BYTE   W96
// 045   ----------------------------------------
 BYTE   W96
// 046   ----------------------------------------
 BYTE   W96
// 047   ----------------------------------------
 BYTE   W96
// 048   ----------------------------------------
 BYTE   W96
// 049   ----------------------------------------
 BYTE   W96
// 050   ----------------------------------------
 BYTE   W96
// 051   ----------------------------------------
 BYTE   W96
// 052   ----------------------------------------
 BYTE   N12  Dn1  v120
 BYTE   N12  Dn2
 BYTE   W96
// 053   ----------------------------------------
 BYTE   PATT
  POIN2 Label_13_012BC850
// 054   ----------------------------------------
 BYTE   N12  Dn1  v120
 BYTE   N12  Dn2
 BYTE   W96
// 055   ----------------------------------------
 BYTE   PATT
  POIN2 Label_13_012BC850
// 056   ----------------------------------------
 BYTE   W03
 BYTE   GoTo
  POIN2 Label_13_012BC865
 BYTE   FINE

//**************** Track 15 (Midi-Chn.14) ****************//

song012D_015:
// 000   ----------------------------------------
 BYTE   KEYSH   song012D_key+0
 BYTE   VOICE   14
 BYTE   VOL   19*song012D_mvl/mxv
 BYTE   PAN   c_v-24
 BYTE   W96
// 001   ----------------------------------------
 BYTE   W96
// 002   ----------------------------------------
 BYTE   W96
// 003   ----------------------------------------
 BYTE   W96
// 004   ----------------------------------------
Label_14_012BC99A:
 BYTE   N96  Fn3  v112
 BYTE   N96  Dn4  v120
 BYTE   W96
 BYTE   PEND 
// 005   ----------------------------------------
 BYTE   W96
// 006   ----------------------------------------
Label_14_012BC9A3:
 BYTE   N96  Gn3  v112
 BYTE   N96  Cn4  v120
 BYTE   W96
 BYTE   PEND 
// 007   ----------------------------------------
 BYTE   W96
// 008   ----------------------------------------
 BYTE   PATT
  POIN2 Label_14_012BC99A
// 009   ----------------------------------------
 BYTE   W96
// 010   ----------------------------------------
 BYTE   PATT
  POIN2 Label_14_012BC9A3
// 011   ----------------------------------------
 BYTE   W96
// 012   ----------------------------------------
Label_14_012BC9B8:
 BYTE   N96  Gn3  v112
 BYTE   N96  Dn4  v120
 BYTE   W96
 BYTE   PEND 
// 013   ----------------------------------------
 BYTE   W96
// 014   ----------------------------------------
 BYTE   W96
// 015   ----------------------------------------
 BYTE   W96
// 016   ----------------------------------------
 BYTE   W96
// 017   ----------------------------------------
 BYTE   W48
 BYTE   N48  Fn3  v100
 BYTE   N48  Dn4  v112
 BYTE   W48
// 018   ----------------------------------------
 BYTE   PATT
  POIN2 Label_14_012BC99A
// 019   ----------------------------------------
 BYTE   W96
// 020   ----------------------------------------
 BYTE   PATT
  POIN2 Label_14_012BC9A3
// 021   ----------------------------------------
 BYTE   W96
// 022   ----------------------------------------
 BYTE   PATT
  POIN2 Label_14_012BC99A
// 023   ----------------------------------------
 BYTE   W96
// 024   ----------------------------------------
 BYTE   PATT
  POIN2 Label_14_012BC9A3
// 025   ----------------------------------------
 BYTE   W96
// 026   ----------------------------------------
 BYTE   PATT
  POIN2 Label_14_012BC9B8
// 027   ----------------------------------------
 BYTE   W96
// 028   ----------------------------------------
 BYTE   W96
// 029   ----------------------------------------
 BYTE   W96
// 030   ----------------------------------------
 BYTE   W96
// 031   ----------------------------------------
 BYTE   W48
 BYTE   N48  Fn3  v112
 BYTE   N48  Dn4  v120
 BYTE   W48
// 032   ----------------------------------------
 BYTE   PATT
  POIN2 Label_14_012BC99A
// 033   ----------------------------------------
 BYTE   W96
// 034   ----------------------------------------
 BYTE   W96
// 035   ----------------------------------------
 BYTE   W96
// 036   ----------------------------------------
 BYTE   PATT
  POIN2 Label_14_012BC99A
// 037   ----------------------------------------
 BYTE   W96
// 038   ----------------------------------------
 BYTE   W96
// 039   ----------------------------------------
 BYTE   W96
// 040   ----------------------------------------
 BYTE   W96
// 041   ----------------------------------------
 BYTE   W96
// 042   ----------------------------------------
 BYTE   PATT
  POIN2 Label_14_012BC9B8
// 043   ----------------------------------------
 BYTE   W96
// 044   ----------------------------------------
 BYTE   W96
// 045   ----------------------------------------
 BYTE   W96
// 046   ----------------------------------------
 BYTE   N48  Gn3  v112
 BYTE   N48  Cn4  v120
 BYTE   W48
 BYTE   Gn3  v100
 BYTE   W48
// 047   ----------------------------------------
 BYTE   Dn4
 BYTE   W48
 BYTE   Cn4
 BYTE   W48
// 048   ----------------------------------------
 BYTE   Gn4
 BYTE   W48
 BYTE   Dn4
 BYTE   W48
// 049   ----------------------------------------
 BYTE   Cn4
 BYTE   W48
 BYTE   Gn3
 BYTE   W48
// 050   ----------------------------------------
 BYTE   Gn4
 BYTE   W48
 BYTE   En4
 BYTE   W48
// 051   ----------------------------------------
 BYTE   Cs4
 BYTE   W48
 BYTE   An3
 BYTE   W48
// 052   ----------------------------------------
 BYTE   N96  An3  v112
 BYTE   N96  Dn4  v120
 BYTE   W96
// 053   ----------------------------------------
 BYTE   W96
// 054   ----------------------------------------
 BYTE   W96
// 055   ----------------------------------------
 BYTE   W96
// 056   ----------------------------------------
 BYTE   W03
 BYTE   GoTo
  POIN2 Label_14_012BC99A
 BYTE   FINE

//******************************************************//
	ALIGN 4

song012D:
	BYTE	15	// NumTrks
	BYTE	0	// NumBlks
	BYTE	song012D_pri	// Priority
	BYTE	song012D_rev	// Reverb.
    
	POIN2	song012D_grp
    
	POIN2	song012D_001
	POIN2	song012D_002
	POIN2	song012D_003
	POIN2	song012D_004
	POIN2	song012D_005
	POIN2	song012D_006
	POIN2	song012D_007
	POIN2	song012D_008
	POIN2	song012D_009
	POIN2	song012D_010
	POIN2	song012D_011
	POIN2	song012D_012
	POIN2	song012D_013
	POIN2	song012D_014
	POIN2	song012D_015

	
