//Event file generated from Sappy .s format.
	#include "MPlayDef.event"

	#define	KnightOathArranged_grp  voicegroup000
	#define	KnightOathArranged_pri  0
	#define	KnightOathArranged_rev  192
	#define	KnightOathArranged_mvl  127
	#define	KnightOathArranged_key  0
	#define	KnightOathArranged_tbs  1
	#define	KnightOathArranged_exg  0
	#define	KnightOathArranged_cmp  1

	// .rodata
	//	KnightOathArranged
	ALIGN 4


//**************** Track 1 (Midi-Chn.0) ****************//

KnightOathArranged_001:
//  #01 //000   ----------------------------------------
 BYTE   KEYSH   KnightOathArranged_key+0
Label_0192A85E:
 BYTE   TEMPO   128*KnightOathArranged_tbs/2
 BYTE   VOICE   60
 BYTE   PAN   c_v+19
 BYTE   VOL   34*KnightOathArranged_mvl/mxv
 BYTE   PAN   c_v+19
 BYTE   VOL   34*KnightOathArranged_mvl/mxv
 BYTE   PAN   c_v+19
 BYTE   VOL   34*KnightOathArranged_mvl/mxv
 BYTE   PAN   c_v+19
 BYTE   VOL   34*KnightOathArranged_mvl/mxv
 BYTE   BEND   c_v+0
 BYTE   W24
 BYTE   N23  An3  v100
 BYTE   W24
 BYTE   N24  An3  v048
 BYTE   W24
 BYTE   Gn3  v100
 BYTE   W24
//  #01 //001   ----------------------------------------
Label_0192A880:
 BYTE   N23  Gn3  v048
 BYTE   W24
 BYTE   N24  Fn3  v100
 BYTE   W24
 BYTE   Fn3  v048
 BYTE   W24
 BYTE   En3  v100
 BYTE   W24
 BYTE   PEND 
//  #01 //002   ----------------------------------------
Label_0192A88F:
 BYTE   N23  En3  v048
 BYTE   W24
 BYTE   N24  An3  v100
 BYTE   W24
 BYTE   An3  v048
 BYTE   W24
 BYTE   Gn3  v100
 BYTE   W24
 BYTE   PEND 
//  #01 //003   ----------------------------------------
 BYTE   PATT
  POIN2 Label_0192A880
//  #01 //004   ----------------------------------------
 BYTE   PATT
  POIN2 Label_0192A88F
//  #01 //005   ----------------------------------------
 BYTE   PATT
  POIN2 Label_0192A880
//  #01 //006   ----------------------------------------
 BYTE   PATT
  POIN2 Label_0192A88F
//  #01 //007   ----------------------------------------
 BYTE   PATT
  POIN2 Label_0192A880
//  #01 //008   ----------------------------------------
 BYTE   PATT
  POIN2 Label_0192A88F
//  #01 //009   ----------------------------------------
 BYTE   PATT
  POIN2 Label_0192A880
//  #01 //010   ----------------------------------------
 BYTE   PATT
  POIN2 Label_0192A88F
//  #01 //011   ----------------------------------------
 BYTE   PATT
  POIN2 Label_0192A880
//  #01 //012   ----------------------------------------
 BYTE   PATT
  POIN2 Label_0192A88F
//  #01 //013   ----------------------------------------
 BYTE   PATT
  POIN2 Label_0192A880
//  #01 //014   ----------------------------------------
 BYTE   PATT
  POIN2 Label_0192A88F
//  #01 //015   ----------------------------------------
 BYTE   PATT
  POIN2 Label_0192A880
//  #01 //016   ----------------------------------------
 BYTE   PATT
  POIN2 Label_0192A88F
//  #01 //017   ----------------------------------------
 BYTE   PATT
  POIN2 Label_0192A880
//  #01 //018   ----------------------------------------
 BYTE   PATT
  POIN2 Label_0192A88F
//  #01 //019   ----------------------------------------
 BYTE   PATT
  POIN2 Label_0192A880
//  #01 //020   ----------------------------------------
 BYTE   PATT
  POIN2 Label_0192A88F
//  #01 //021   ----------------------------------------
 BYTE   PATT
  POIN2 Label_0192A880
//  #01 //022   ----------------------------------------
 BYTE   PATT
  POIN2 Label_0192A88F
//  #01 //023   ----------------------------------------
 BYTE   PATT
  POIN2 Label_0192A880
//  #01 //024   ----------------------------------------
 BYTE   PATT
  POIN2 Label_0192A88F
//  #01 //025   ----------------------------------------
 BYTE   PATT
  POIN2 Label_0192A880
//  #01 //026   ----------------------------------------
 BYTE   PATT
  POIN2 Label_0192A88F
//  #01 //027   ----------------------------------------
 BYTE   PATT
  POIN2 Label_0192A880
//  #01 //028   ----------------------------------------
 BYTE   PATT
  POIN2 Label_0192A88F
//  #01 //029   ----------------------------------------
 BYTE   PATT
  POIN2 Label_0192A880
//  #01 //030   ----------------------------------------
 BYTE   PATT
  POIN2 Label_0192A88F
//  #01 //031   ----------------------------------------
 BYTE   PATT
  POIN2 Label_0192A880
//  #01 //032   ----------------------------------------
 BYTE   PATT
  POIN2 Label_0192A88F
//  #01 //033   ----------------------------------------
 BYTE   PATT
  POIN2 Label_0192A880
//  #01 //034   ----------------------------------------
 BYTE   PATT
  POIN2 Label_0192A88F
//  #01 //035   ----------------------------------------
 BYTE   PATT
  POIN2 Label_0192A880
//  #01 //036   ----------------------------------------
 BYTE   PATT
  POIN2 Label_0192A88F
//  #01 //037   ----------------------------------------
 BYTE   PATT
  POIN2 Label_0192A880
//  #01 //038   ----------------------------------------
 BYTE   PATT
  POIN2 Label_0192A88F
//  #01 //039   ----------------------------------------
 BYTE   PATT
  POIN2 Label_0192A880
//  #01 //040   ----------------------------------------
 BYTE   PATT
  POIN2 Label_0192A88F
//  #01 //041   ----------------------------------------
 BYTE   PATT
  POIN2 Label_0192A880
//  #01 //042   ----------------------------------------
 BYTE   PATT
  POIN2 Label_0192A88F
//  #01 //043   ----------------------------------------
 BYTE   PATT
  POIN2 Label_0192A880
//  #01 //044   ----------------------------------------
 BYTE   PATT
  POIN2 Label_0192A88F
//  #01 //045   ----------------------------------------
 BYTE   PATT
  POIN2 Label_0192A880
//  #01 //046   ----------------------------------------
 BYTE   N23  En3  v048
 BYTE   W24
 BYTE   N24  Gn3  v100
 BYTE   W24
 BYTE   Gn3  v048
 BYTE   W24
 BYTE   Fn3  v100
 BYTE   W24
//  #01 //047   ----------------------------------------
 BYTE   Fn3  v048
 BYTE   W24
 BYTE   En3  v100
 BYTE   W24
 BYTE   En3  v048
 BYTE   W24
 BYTE   Dn3  v100
 BYTE   W24
//  #01 //048   ----------------------------------------
 BYTE   Dn3  v048
 BYTE   W24
 BYTE   Dn3  v024
 BYTE   W24
 BYTE   N48  Dn3  v008
 BYTE   W48
//  #01 //049   ----------------------------------------
 BYTE   GoTo
  POIN2 Label_0192A85E
//  #01 //050   ----------------------------------------
 BYTE   PAN   c_v+19
 BYTE   VOL   34*KnightOathArranged_mvl/mxv
 BYTE   PAN   c_v+19
 BYTE   VOL   34*KnightOathArranged_mvl/mxv
 BYTE   PAN   c_v+19
 BYTE   VOL   34*KnightOathArranged_mvl/mxv
 BYTE   BEND   c_v+0
 BYTE   FINE

//**************** Track 2 (Midi-Chn.1) ****************//

KnightOathArranged_002:
//  #02 //000   ----------------------------------------
 BYTE   KEYSH   KnightOathArranged_key+0
KNIGHTOATHLABEL:
 BYTE   VOICE   56
 BYTE   PAN   c_v-19
 BYTE   VOL   31*KnightOathArranged_mvl/mxv
 BYTE   PAN   c_v-19
 BYTE   VOL   31*KnightOathArranged_mvl/mxv
 BYTE   PAN   c_v-19
 BYTE   VOL   31*KnightOathArranged_mvl/mxv
 BYTE   PAN   c_v-19
 BYTE   VOL   31*KnightOathArranged_mvl/mxv
 BYTE   BEND   c_v+0
 BYTE   W96
//  #02 //001   ----------------------------------------
 BYTE   W96
//  #02 //002   ----------------------------------------
 BYTE   W96
//  #02 //003   ----------------------------------------
 BYTE   W96
//  #02 //004   ----------------------------------------
 BYTE   W96
//  #02 //005   ----------------------------------------
 BYTE   W96
//  #02 //006   ----------------------------------------
 BYTE   W96
//  #02 //007   ----------------------------------------
 BYTE   W96
//  #02 //008   ----------------------------------------
Label_0192AED6:
 BYTE   N07  Dn3  v100
 BYTE   W15
 BYTE   N07
 BYTE   W32
 BYTE   W01
 BYTE   N07
 BYTE   W15
 BYTE   N07
 BYTE   W32
 BYTE   W01
 BYTE   PEND 
//  #02 //009   ----------------------------------------
 BYTE   PATT
  POIN2 Label_0192AED6
//  #02 //010   ----------------------------------------
KNIGHTOATHLABEL2:
 BYTE   N07  Cn3  v100
 BYTE   W15
 BYTE   N07
 BYTE   W32
 BYTE   W01
 BYTE   N07
 BYTE   W15
 BYTE   N07
 BYTE   W32
 BYTE   W01
 BYTE   PEND 
//  #02 //011   ----------------------------------------
 BYTE   PATT
  POIN2 KNIGHTOATHLABEL2
//  #02 //012   ----------------------------------------
Label_0192AEFA:
 BYTE   N07  Bn2  v100
 BYTE   W15
 BYTE   N07
 BYTE   W32
 BYTE   W01
 BYTE   N07
 BYTE   W15
 BYTE   N07
 BYTE   W32
 BYTE   W01
 BYTE   PEND 
//  #02 //013   ----------------------------------------
 BYTE   PATT
  POIN2 Label_0192AEFA
//  #02 //014   ----------------------------------------
Label_0192AF0C:
 BYTE   N07  As2  v100
 BYTE   W15
 BYTE   N07
 BYTE   W32
 BYTE   W01
 BYTE   N07
 BYTE   W15
 BYTE   N07
 BYTE   W32
 BYTE   W01
 BYTE   PEND 
//  #02 //015   ----------------------------------------
Label_0192AF19:
 BYTE   N07  An2  v100
 BYTE   W15
 BYTE   N07
 BYTE   W32
 BYTE   W01
 BYTE   N07
 BYTE   W15
 BYTE   N07
 BYTE   W32
 BYTE   W01
 BYTE   PEND 
//  #02 //016   ----------------------------------------
 BYTE   PATT
  POIN2 Label_0192AED6
//  #02 //017   ----------------------------------------
 BYTE   PATT
  POIN2 Label_0192AED6
//  #02 //018   ----------------------------------------
 BYTE   PATT
  POIN2 KNIGHTOATHLABEL2
//  #02 //019   ----------------------------------------
 BYTE   PATT
  POIN2 KNIGHTOATHLABEL2
//  #02 //020   ----------------------------------------
 BYTE   PATT
  POIN2 Label_0192AEFA
//  #02 //021   ----------------------------------------
 BYTE   PATT
  POIN2 Label_0192AEFA
//  #02 //022   ----------------------------------------
 BYTE   PATT
  POIN2 Label_0192AF0C
//  #02 //023   ----------------------------------------
 BYTE   PATT
  POIN2 Label_0192AF19
//  #02 //024   ----------------------------------------
 BYTE   PATT
  POIN2 Label_0192AED6
//  #02 //025   ----------------------------------------
 BYTE   PATT
  POIN2 Label_0192AED6
//  #02 //026   ----------------------------------------
 BYTE   PATT
  POIN2 KNIGHTOATHLABEL2
//  #02 //027   ----------------------------------------
 BYTE   PATT
  POIN2 KNIGHTOATHLABEL2
//  #02 //028   ----------------------------------------
 BYTE   PATT
  POIN2 Label_0192AEFA
//  #02 //029   ----------------------------------------
 BYTE   PATT
  POIN2 Label_0192AEFA
//  #02 //030   ----------------------------------------
 BYTE   PATT
  POIN2 Label_0192AF0C
//  #02 //031   ----------------------------------------
 BYTE   PATT
  POIN2 Label_0192AF19
//  #02 //032   ----------------------------------------
 BYTE   PATT
  POIN2 Label_0192AED6
//  #02 //033   ----------------------------------------
 BYTE   PATT
  POIN2 Label_0192AED6
//  #02 //034   ----------------------------------------
 BYTE   PATT
  POIN2 KNIGHTOATHLABEL2
//  #02 //035   ----------------------------------------
 BYTE   PATT
  POIN2 KNIGHTOATHLABEL2
//  #02 //036   ----------------------------------------
 BYTE   PATT
  POIN2 Label_0192AEFA
//  #02 //037   ----------------------------------------
 BYTE   PATT
  POIN2 Label_0192AEFA
//  #02 //038   ----------------------------------------
 BYTE   PATT
  POIN2 Label_0192AF0C
//  #02 //039   ----------------------------------------
 BYTE   PATT
  POIN2 Label_0192AF19
//  #02 //040   ----------------------------------------
 BYTE   W96
//  #02 //041   ----------------------------------------
 BYTE   W96
//  #02 //042   ----------------------------------------
 BYTE   W96
//  #02 //043   ----------------------------------------
 BYTE   W96
//  #02 //044   ----------------------------------------
 BYTE   W96
//  #02 //045   ----------------------------------------
 BYTE   W96
//  #02 //046   ----------------------------------------
 BYTE   W96
//  #02 //047   ----------------------------------------
 BYTE   W96
//  #02 //048   ----------------------------------------
 BYTE   W96
//  #02 //049   ----------------------------------------
 BYTE   GoTo
  POIN2 KNIGHTOATHLABEL
//  #02 //050   ----------------------------------------
 BYTE   VOICE   56
 BYTE   PAN   c_v-19
 BYTE   VOL   31*KnightOathArranged_mvl/mxv
 BYTE   PAN   c_v-19
 BYTE   VOL   31*KnightOathArranged_mvl/mxv
 BYTE   PAN   c_v-19
 BYTE   VOL   31*KnightOathArranged_mvl/mxv
 BYTE   BEND   c_v+0
 BYTE   FINE

//**************** Track 3 (Midi-Chn.2) ****************//

KnightOathArranged_003:
//  #03 //000   ----------------------------------------
 BYTE   KEYSH   KnightOathArranged_key+0
Label_0192A9B2:
 BYTE   VOICE   46
 BYTE   PAN   c_v-31
 BYTE   VOL   30*KnightOathArranged_mvl/mxv
 BYTE   BEND   c_v+0
 BYTE   N16  Dn2  v100
 BYTE   W08
 BYTE   N08  Fn2
 BYTE   W08
 BYTE   An2
 BYTE   W08
 BYTE   Dn3
 BYTE   W08
 BYTE   Fn3
 BYTE   W08
 BYTE   An3
 BYTE   W08
 BYTE   Dn4
 BYTE   W08
 BYTE   N15  An3
 BYTE   W08
 BYTE   N16  Fn3
 BYTE   W08
 BYTE   N08  Dn3
 BYTE   W08
 BYTE   An2
 BYTE   W08
 BYTE   Fn2
 BYTE   W08
//  #03 //001   ----------------------------------------
Label_0192A9D8:
 BYTE   N16  An1  v100
 BYTE   W08
 BYTE   N08  Dn2
 BYTE   W08
 BYTE   Fn2
 BYTE   W08
 BYTE   An2
 BYTE   W08
 BYTE   Dn3
 BYTE   W08
 BYTE   N15  Fn3
 BYTE   W08
 BYTE   N16  An3
 BYTE   W08
 BYTE   N08  Fn3
 BYTE   W08
 BYTE   Dn3
 BYTE   W08
 BYTE   An2
 BYTE   W08
 BYTE   Fn2
 BYTE   W08
 BYTE   Dn2
 BYTE   W08
 BYTE   PEND 
//  #03 //002   ----------------------------------------
Label_0192A9F7:
 BYTE   N16  Cn2  v100
 BYTE   W08
 BYTE   N08  En2
 BYTE   W08
 BYTE   An2
 BYTE   W08
 BYTE   Cn3
 BYTE   W08
 BYTE   En3
 BYTE   W08
 BYTE   N15  An3
 BYTE   W08
 BYTE   N16  Cn4
 BYTE   W08
 BYTE   N15  An3
 BYTE   W08
 BYTE   N16  En3
 BYTE   W08
 BYTE   N08  Cn3
 BYTE   W08
 BYTE   An2
 BYTE   W08
 BYTE   En2
 BYTE   W08
 BYTE   PEND 
//  #03 //003   ----------------------------------------
Label_0192AA18:
 BYTE   N16  An1  v100
 BYTE   W08
 BYTE   N08  Cn2
 BYTE   W08
 BYTE   En2
 BYTE   W08
 BYTE   An2
 BYTE   W08
 BYTE   Cn3
 BYTE   W08
 BYTE   N14  En3
 BYTE   W08
 BYTE   N16  An3
 BYTE   W08
 BYTE   N08  En3
 BYTE   W08
 BYTE   Cn3
 BYTE   W08
 BYTE   An2
 BYTE   W08
 BYTE   En2
 BYTE   W08
 BYTE   Cn2
 BYTE   W08
 BYTE   PEND 
//  #03 //004   ----------------------------------------
Label_0192AA37:
 BYTE   N16  Bn1  v100
 BYTE   W08
 BYTE   N08  Dn2
 BYTE   W08
 BYTE   Gn2
 BYTE   W08
 BYTE   Bn2
 BYTE   W08
 BYTE   Dn3
 BYTE   W08
 BYTE   N15  Gn3
 BYTE   W08
 BYTE   N16  Bn3
 BYTE   W08
 BYTE   N08  Gn3
 BYTE   W08
 BYTE   Dn3
 BYTE   W08
 BYTE   Bn2
 BYTE   W08
 BYTE   Gn2
 BYTE   W08
 BYTE   Dn2
 BYTE   W08
 BYTE   PEND 
//  #03 //005   ----------------------------------------
Label_0192AA56:
 BYTE   N16  Gn1  v100
 BYTE   W08
 BYTE   N08  Bn1
 BYTE   W08
 BYTE   Dn2
 BYTE   W08
 BYTE   Gn2
 BYTE   W08
 BYTE   Bn2
 BYTE   W08
 BYTE   N15  Dn3
 BYTE   W08
 BYTE   N16  Gn3
 BYTE   W08
 BYTE   N08  Dn3
 BYTE   W08
 BYTE   Bn2
 BYTE   W08
 BYTE   Gn2
 BYTE   W08
 BYTE   Dn2
 BYTE   W08
 BYTE   Bn1
 BYTE   W08
 BYTE   PEND 
//  #03 //006   ----------------------------------------
Label_0192AA75:
 BYTE   N16  As1  v100
 BYTE   W08
 BYTE   N08  Dn2
 BYTE   W08
 BYTE   Fn2
 BYTE   W08
 BYTE   As2
 BYTE   W08
 BYTE   Dn3
 BYTE   W08
 BYTE   N15  Fn3
 BYTE   W08
 BYTE   N16  As3
 BYTE   W08
 BYTE   N08  Fn3
 BYTE   W08
 BYTE   Dn3
 BYTE   W08
 BYTE   As2
 BYTE   W08
 BYTE   Fn2
 BYTE   W08
 BYTE   Dn2
 BYTE   W08
 BYTE   PEND 
//  #03 //007   ----------------------------------------
Label_0192AA94:
 BYTE   N16  An1  v100
 BYTE   W08
 BYTE   N08  Cs2
 BYTE   W08
 BYTE   En2
 BYTE   W08
 BYTE   An2
 BYTE   W08
 BYTE   Cs3
 BYTE   W08
 BYTE   N15  En3
 BYTE   W08
 BYTE   N16  An3
 BYTE   W08
 BYTE   N08  En3
 BYTE   W08
 BYTE   Cs3
 BYTE   W08
 BYTE   An2
 BYTE   W08
 BYTE   En2
 BYTE   W08
 BYTE   Cs2
 BYTE   W08
 BYTE   PEND 
//  #03 //008   ----------------------------------------
Label_0192AAB3:
 BYTE   N16  Dn2  v100
 BYTE   W08
 BYTE   N08  Fn2
 BYTE   W08
 BYTE   An2
 BYTE   W08
 BYTE   Dn3
 BYTE   W08
 BYTE   Fn3
 BYTE   W08
 BYTE   An3
 BYTE   W08
 BYTE   Dn4
 BYTE   W08
 BYTE   N15  An3
 BYTE   W08
 BYTE   N16  Fn3
 BYTE   W08
 BYTE   N08  Dn3
 BYTE   W08
 BYTE   An2
 BYTE   W08
 BYTE   Fn2
 BYTE   W08
 BYTE   PEND 
//  #03 //009   ----------------------------------------
 BYTE   PATT
  POIN2 Label_0192A9D8
//  #03 //010   ----------------------------------------
 BYTE   PATT
  POIN2 Label_0192A9F7
//  #03 //011   ----------------------------------------
 BYTE   PATT
  POIN2 Label_0192AA18
//  #03 //012   ----------------------------------------
 BYTE   PATT
  POIN2 Label_0192AA37
//  #03 //013   ----------------------------------------
 BYTE   PATT
  POIN2 Label_0192AA56
//  #03 //014   ----------------------------------------
 BYTE   PATT
  POIN2 Label_0192AA75
//  #03 //015   ----------------------------------------
 BYTE   PATT
  POIN2 Label_0192AA94
//  #03 //016   ----------------------------------------
 BYTE   PATT
  POIN2 Label_0192AAB3
//  #03 //017   ----------------------------------------
 BYTE   PATT
  POIN2 Label_0192A9D8
//  #03 //018   ----------------------------------------
 BYTE   PATT
  POIN2 Label_0192A9F7
//  #03 //019   ----------------------------------------
 BYTE   PATT
  POIN2 Label_0192AA18
//  #03 //020   ----------------------------------------
 BYTE   PATT
  POIN2 Label_0192AA37
//  #03 //021   ----------------------------------------
 BYTE   PATT
  POIN2 Label_0192AA56
//  #03 //022   ----------------------------------------
 BYTE   PATT
  POIN2 Label_0192AA75
//  #03 //023   ----------------------------------------
 BYTE   PATT
  POIN2 Label_0192AA94
//  #03 //024   ----------------------------------------
Label_0192AB1D:
 BYTE   N16  Dn2  v100
 BYTE   W08
 BYTE   N08  Fn2
 BYTE   W08
 BYTE   An2
 BYTE   W08
 BYTE   Dn3
 BYTE   W08
 BYTE   Fn3
 BYTE   W08
 BYTE   N15  An3
 BYTE   W08
 BYTE   N16  Dn4
 BYTE   W08
 BYTE   N08  An3
 BYTE   W08
 BYTE   Fn3
 BYTE   W08
 BYTE   Dn3
 BYTE   W08
 BYTE   An2
 BYTE   W08
 BYTE   Fn2
 BYTE   W08
 BYTE   PEND 
//  #03 //025   ----------------------------------------
 BYTE   PATT
  POIN2 Label_0192A9D8
//  #03 //026   ----------------------------------------
Label_0192AB41:
 BYTE   N16  Cn2  v100
 BYTE   W08
 BYTE   N08  En2
 BYTE   W08
 BYTE   An2
 BYTE   W08
 BYTE   Cn3
 BYTE   W08
 BYTE   En3
 BYTE   W08
 BYTE   N15  An3
 BYTE   W08
 BYTE   N16  Cn4
 BYTE   W08
 BYTE   N08  An3
 BYTE   W08
 BYTE   En3
 BYTE   W08
 BYTE   Cn3
 BYTE   W08
 BYTE   An2
 BYTE   W08
 BYTE   En2
 BYTE   W08
 BYTE   PEND 
//  #03 //027   ----------------------------------------
Label_0192AB60:
 BYTE   N16  An1  v100
 BYTE   W08
 BYTE   N08  Cn2
 BYTE   W08
 BYTE   En2
 BYTE   W08
 BYTE   An2
 BYTE   W08
 BYTE   Cn3
 BYTE   W08
 BYTE   En3
 BYTE   W08
 BYTE   An3
 BYTE   W08
 BYTE   N15  En3
 BYTE   W08
 BYTE   N16  Cn3
 BYTE   W08
 BYTE   N08  An2
 BYTE   W08
 BYTE   En2
 BYTE   W08
 BYTE   Cn2
 BYTE   W08
 BYTE   PEND 
//  #03 //028   ----------------------------------------
Label_0192AB7F:
 BYTE   N16  Bn1  v100
 BYTE   W08
 BYTE   N08  Dn2
 BYTE   W08
 BYTE   Gn2
 BYTE   W08
 BYTE   Bn2
 BYTE   W08
 BYTE   Dn3
 BYTE   W08
 BYTE   Gn3
 BYTE   W08
 BYTE   N09  Bn3
 BYTE   W09
 BYTE   N14  Gn3
 BYTE   W07
 BYTE   N16  Dn3
 BYTE   W08
 BYTE   N08  Bn2
 BYTE   W08
 BYTE   Gn2
 BYTE   W08
 BYTE   Dn2
 BYTE   W08
 BYTE   PEND 
//  #03 //029   ----------------------------------------
Label_0192AB9F:
 BYTE   N16  Gn1  v100
 BYTE   W08
 BYTE   N08  Bn1
 BYTE   W08
 BYTE   Dn2
 BYTE   W08
 BYTE   Gn2
 BYTE   W08
 BYTE   Bn2
 BYTE   W08
 BYTE   Dn3
 BYTE   W08
 BYTE   Gn3
 BYTE   W08
 BYTE   N15  Dn3
 BYTE   W08
 BYTE   N16  Bn2
 BYTE   W08
 BYTE   N08  Gn2
 BYTE   W08
 BYTE   Dn2
 BYTE   W08
 BYTE   Bn1
 BYTE   W08
 BYTE   PEND 
//  #03 //030   ----------------------------------------
Label_0192ABBE:
 BYTE   N16  As1  v100
 BYTE   W08
 BYTE   N08  Dn2
 BYTE   W08
 BYTE   Fn2
 BYTE   W08
 BYTE   As2
 BYTE   W08
 BYTE   Dn3
 BYTE   W08
 BYTE   N15  Fn3
 BYTE   W08
 BYTE   N16  As3
 BYTE   W08
 BYTE   N15  Fn3
 BYTE   W08
 BYTE   N16  Dn3
 BYTE   W08
 BYTE   N08  As2
 BYTE   W08
 BYTE   Fn2
 BYTE   W08
 BYTE   Dn2
 BYTE   W08
 BYTE   PEND 
//  #03 //031   ----------------------------------------
Label_0192ABDF:
 BYTE   N16  An1  v100
 BYTE   W08
 BYTE   N08  Cs2
 BYTE   W08
 BYTE   En2
 BYTE   W08
 BYTE   An2
 BYTE   W08
 BYTE   Cs3
 BYTE   W08
 BYTE   En3
 BYTE   W08
 BYTE   An3
 BYTE   W08
 BYTE   N15  En3
 BYTE   W08
 BYTE   N16  Cs3
 BYTE   W08
 BYTE   N08  An2
 BYTE   W08
 BYTE   N15  En2
 BYTE   W08
 BYTE   N07  Cs2
 BYTE   W08
 BYTE   PEND 
//  #03 //032   ----------------------------------------
 BYTE   PATT
  POIN2 Label_0192AB1D
//  #03 //033   ----------------------------------------
 BYTE   PATT
  POIN2 Label_0192A9D8
//  #03 //034   ----------------------------------------
 BYTE   PATT
  POIN2 Label_0192AB41
//  #03 //035   ----------------------------------------
 BYTE   PATT
  POIN2 Label_0192AB60
//  #03 //036   ----------------------------------------
 BYTE   PATT
  POIN2 Label_0192AB7F
//  #03 //037   ----------------------------------------
 BYTE   PATT
  POIN2 Label_0192AB9F
//  #03 //038   ----------------------------------------
 BYTE   PATT
  POIN2 Label_0192ABBE
//  #03 //039   ----------------------------------------
 BYTE   PATT
  POIN2 Label_0192ABDF
//  #03 //040   ----------------------------------------
 BYTE   W96
//  #03 //041   ----------------------------------------
 BYTE   W96
//  #03 //042   ----------------------------------------
 BYTE   W96
//  #03 //043   ----------------------------------------
 BYTE   W96
//  #03 //044   ----------------------------------------
 BYTE   W96
//  #03 //045   ----------------------------------------
 BYTE   W96
//  #03 //046   ----------------------------------------
 BYTE   W96
//  #03 //047   ----------------------------------------
 BYTE   W96
//  #03 //048   ----------------------------------------
 BYTE   W96
//  #03 //049   ----------------------------------------
 BYTE   GoTo
  POIN2 Label_0192A9B2
//  #03 //050   ----------------------------------------
 BYTE   VOICE   46
 BYTE   VOL   30*KnightOathArranged_mvl/mxv
 BYTE   BEND   c_v+0
 BYTE   FINE

//**************** Track 4 (Midi-Chn.3) ****************//

KnightOathArranged_004:
//  #04 //000   ----------------------------------------
 BYTE   KEYSH   KnightOathArranged_key+0
Label_019AA93A:
 BYTE   VOICE   24
 BYTE   PAN   c_v+23
 BYTE   VOL   27*KnightOathArranged_mvl/mxv
 BYTE   BEND   c_v+0
 BYTE   W96
//  #04 //001   ----------------------------------------
 BYTE   W96
//  #04 //002   ----------------------------------------
 BYTE   W96
//  #04 //003   ----------------------------------------
 BYTE   W96
//  #04 //004   ----------------------------------------
 BYTE   W96
//  #04 //005   ----------------------------------------
 BYTE   W96
//  #04 //006   ----------------------------------------
 BYTE   W96
//  #04 //007   ----------------------------------------
 BYTE   W96
//  #04 //008   ----------------------------------------
Label_019AA94A:
 BYTE   N10  Dn3  v100
 BYTE   W08
 BYTE   N02  An2
 BYTE   W08
 BYTE   N06  Dn3
 BYTE   W08
 BYTE   N13
 BYTE   W16
 BYTE   N06
 BYTE   W08
 BYTE   N13
 BYTE   W08
 BYTE   N10  An2
 BYTE   W08
 BYTE   N06  Dn3
 BYTE   W08
 BYTE   N13
 BYTE   W16
 BYTE   N06
 BYTE   W08
 BYTE   PEND 
//  #04 //009   ----------------------------------------
Label_019AA965:
 BYTE   N13  Dn3  v100
 BYTE   W08
 BYTE   N10  An2
 BYTE   W08
 BYTE   N06  Dn3
 BYTE   W08
 BYTE   N13
 BYTE   W16
 BYTE   N06
 BYTE   W08
 BYTE   N13
 BYTE   W08
 BYTE   N10  An2
 BYTE   W08
 BYTE   N06  Dn3
 BYTE   W08
 BYTE   N13
 BYTE   W16
 BYTE   N08
 BYTE   W08
 BYTE   PEND 
//  #04 //010   ----------------------------------------
Label_019AA980:
 BYTE   N10  Cn3  v100
 BYTE   W08
 BYTE   N02  An2
 BYTE   W08
 BYTE   N06  Cn3
 BYTE   W08
 BYTE   N13
 BYTE   W16
 BYTE   N06
 BYTE   W08
 BYTE   N13
 BYTE   W08
 BYTE   N10  An2
 BYTE   W08
 BYTE   N06  Cn3
 BYTE   W08
 BYTE   N13
 BYTE   W16
 BYTE   N06
 BYTE   W08
 BYTE   PEND 
//  #04 //011   ----------------------------------------
Label_019AA99B:
 BYTE   N13  Cn3  v100
 BYTE   W08
 BYTE   N10  An2
 BYTE   W08
 BYTE   N06  Cn3
 BYTE   W08
 BYTE   N13
 BYTE   W16
 BYTE   N06
 BYTE   W08
 BYTE   N13
 BYTE   W08
 BYTE   N10  An2
 BYTE   W08
 BYTE   N06  Cn3
 BYTE   W08
 BYTE   N13
 BYTE   W16
 BYTE   N08
 BYTE   W08
 BYTE   PEND 
//  #04 //012   ----------------------------------------
Label_019AA9B6:
 BYTE   N10  Bn2  v100
 BYTE   W08
 BYTE   N02  An2
 BYTE   W08
 BYTE   N06  Bn2
 BYTE   W08
 BYTE   N13
 BYTE   W16
 BYTE   N06
 BYTE   W08
 BYTE   N13
 BYTE   W08
 BYTE   N10  An2
 BYTE   W08
 BYTE   N06  Bn2
 BYTE   W08
 BYTE   N13
 BYTE   W16
 BYTE   N06
 BYTE   W08
 BYTE   PEND 
//  #04 //013   ----------------------------------------
Label_019AA9D1:
 BYTE   N13  Bn2  v100
 BYTE   W08
 BYTE   N10  An2
 BYTE   W08
 BYTE   N06  Bn2
 BYTE   W08
 BYTE   N13
 BYTE   W16
 BYTE   N06
 BYTE   W08
 BYTE   N13
 BYTE   W08
 BYTE   N10  An2
 BYTE   W08
 BYTE   N06  Bn2
 BYTE   W08
 BYTE   N13
 BYTE   W16
 BYTE   N08
 BYTE   W08
 BYTE   PEND 
//  #04 //014   ----------------------------------------
Label_019AA9EC:
 BYTE   N10  As2  v100
 BYTE   W08
 BYTE   N02  An2
 BYTE   W08
 BYTE   N06  As2
 BYTE   W08
 BYTE   N13
 BYTE   W16
 BYTE   N06
 BYTE   W08
 BYTE   N13
 BYTE   W08
 BYTE   N10  An2
 BYTE   W08
 BYTE   N06  As2
 BYTE   W08
 BYTE   N13
 BYTE   W16
 BYTE   N06
 BYTE   W08
 BYTE   PEND 
//  #04 //015   ----------------------------------------
Label_019AAA07:
 BYTE   N07  An2  v100
 BYTE   W08
 BYTE   N08
 BYTE   W16
 BYTE   N13
 BYTE   W16
 BYTE   N06
 BYTE   W08
 BYTE   N07
 BYTE   W08
 BYTE   N08
 BYTE   W16
 BYTE   N13
 BYTE   W16
 BYTE   N06
 BYTE   W08
 BYTE   PEND 
//  #04 //016   ----------------------------------------
 BYTE   PATT
  POIN2 Label_019AA94A
//  #04 //017   ----------------------------------------
 BYTE   PATT
  POIN2 Label_019AA965
//  #04 //018   ----------------------------------------
 BYTE   PATT
  POIN2 Label_019AA980
//  #04 //019   ----------------------------------------
 BYTE   PATT
  POIN2 Label_019AA99B
//  #04 //020   ----------------------------------------
 BYTE   PATT
  POIN2 Label_019AA9B6
//  #04 //021   ----------------------------------------
 BYTE   PATT
  POIN2 Label_019AA9D1
//  #04 //022   ----------------------------------------
 BYTE   PATT
  POIN2 Label_019AA9EC
//  #04 //023   ----------------------------------------
 BYTE   PATT
  POIN2 Label_019AAA07
//  #04 //024   ----------------------------------------
 BYTE   PATT
  POIN2 Label_019AA94A
//  #04 //025   ----------------------------------------
 BYTE   PATT
  POIN2 Label_019AA965
//  #04 //026   ----------------------------------------
 BYTE   PATT
  POIN2 Label_019AA980
//  #04 //027   ----------------------------------------
 BYTE   PATT
  POIN2 Label_019AA99B
//  #04 //028   ----------------------------------------
 BYTE   PATT
  POIN2 Label_019AA9B6
//  #04 //029   ----------------------------------------
 BYTE   PATT
  POIN2 Label_019AA9D1
//  #04 //030   ----------------------------------------
 BYTE   PATT
  POIN2 Label_019AA9EC
//  #04 //031   ----------------------------------------
 BYTE   PATT
  POIN2 Label_019AAA07
//  #04 //032   ----------------------------------------
 BYTE   PATT
  POIN2 Label_019AA94A
//  #04 //033   ----------------------------------------
 BYTE   PATT
  POIN2 Label_019AA965
//  #04 //034   ----------------------------------------
 BYTE   PATT
  POIN2 Label_019AA980
//  #04 //035   ----------------------------------------
 BYTE   PATT
  POIN2 Label_019AA99B
//  #04 //036   ----------------------------------------
 BYTE   PATT
  POIN2 Label_019AA9B6
//  #04 //037   ----------------------------------------
 BYTE   PATT
  POIN2 Label_019AA9D1
//  #04 //038   ----------------------------------------
 BYTE   PATT
  POIN2 Label_019AA9EC
//  #04 //039   ----------------------------------------
 BYTE   PATT
  POIN2 Label_019AAA07
//  #04 //040   ----------------------------------------
 BYTE   PATT
  POIN2 Label_019AA94A
//  #04 //041   ----------------------------------------
 BYTE   PATT
  POIN2 Label_019AA965
//  #04 //042   ----------------------------------------
 BYTE   PATT
  POIN2 Label_019AA980
//  #04 //043   ----------------------------------------
 BYTE   PATT
  POIN2 Label_019AA99B
//  #04 //044   ----------------------------------------
 BYTE   PATT
  POIN2 Label_019AA9B6
//  #04 //045   ----------------------------------------
 BYTE   PATT
  POIN2 Label_019AA9D1
//  #04 //046   ----------------------------------------
 BYTE   PATT
  POIN2 Label_019AA9EC
//  #04 //047   ----------------------------------------
 BYTE   PATT
  POIN2 Label_019AAA07
//  #04 //048   ----------------------------------------
 BYTE   W96
//  #04 //049   ----------------------------------------
 BYTE   GoTo
  POIN2 Label_019AA93A
//  #04 //050   ----------------------------------------
 BYTE   VOICE   24
 BYTE   VOL   27*KnightOathArranged_mvl/mxv
 BYTE   BEND   c_v+0
 BYTE   FINE

//**************** Track 5 (Midi-Chn.4) ****************//

KnightOathArranged_005:
//  #05 //000   ----------------------------------------
 BYTE   KEYSH   KnightOathArranged_key+0
Label_019AA55A:
 BYTE   VOICE   58
 BYTE   PAN   c_v-5
 BYTE   VOL   26*KnightOathArranged_mvl/mxv
 BYTE   BEND   c_v+0
 BYTE   W96
//  #05 //001   ----------------------------------------
 BYTE   W96
//  #05 //002   ----------------------------------------
 BYTE   W96
//  #05 //003   ----------------------------------------
 BYTE   W96
//  #05 //004   ----------------------------------------
 BYTE   W96
//  #05 //005   ----------------------------------------
 BYTE   W96
//  #05 //006   ----------------------------------------
 BYTE   W96
//  #05 //007   ----------------------------------------
 BYTE   W96
//  #05 //008   ----------------------------------------
Label_019AA56A:
 BYTE   N09  An2  v100
 BYTE   N09  Fn3
 BYTE   W12
 BYTE   An2  v028
 BYTE   N09  Fn3
 BYTE   W12
 BYTE   N21  An2  v100
 BYTE   N21  Fn3
 BYTE   W24
 BYTE   N09  An2
 BYTE   N09  Fn3
 BYTE   W12
 BYTE   An2  v028
 BYTE   N09  Fn3
 BYTE   W12
 BYTE   N21  An2  v100
 BYTE   N21  Fn3
 BYTE   W24
 BYTE   PEND 
//  #05 //009   ----------------------------------------
 BYTE   PATT
  POIN2 Label_019AA56A
//  #05 //010   ----------------------------------------
Label_019AA591:
 BYTE   N09  An2  v100
 BYTE   N09  En3
 BYTE   W12
 BYTE   An2  v028
 BYTE   N09  En3
 BYTE   W12
 BYTE   N21  An2  v100
 BYTE   N21  En3
 BYTE   W24
 BYTE   N09  An2
 BYTE   N09  En3
 BYTE   W12
 BYTE   An2  v028
 BYTE   N09  En3
 BYTE   W12
 BYTE   N21  An2  v100
 BYTE   N21  En3
 BYTE   W24
 BYTE   PEND 
//  #05 //011   ----------------------------------------
 BYTE   PATT
  POIN2 Label_019AA591
//  #05 //012   ----------------------------------------
Label_019AA5B8:
 BYTE   N09  Gn2  v100
 BYTE   N09  Dn3
 BYTE   W12
 BYTE   Gn2  v028
 BYTE   N09  Dn3
 BYTE   W12
 BYTE   N21  Gn2  v100
 BYTE   N21  Dn3
 BYTE   W24
 BYTE   N09  Gn2
 BYTE   N09  Dn3
 BYTE   W12
 BYTE   Gn2  v028
 BYTE   N09  Dn3
 BYTE   W12
 BYTE   N21  Gn2  v100
 BYTE   N21  Dn3
 BYTE   W24
 BYTE   PEND 
//  #05 //013   ----------------------------------------
 BYTE   PATT
  POIN2 Label_019AA5B8
//  #05 //014   ----------------------------------------
Label_019AA5DF:
 BYTE   N09  As2  v100
 BYTE   N09  Dn3
 BYTE   W12
 BYTE   As2  v028
 BYTE   N09  Dn3
 BYTE   W12
 BYTE   N21  As2  v100
 BYTE   N21  Dn3
 BYTE   W24
 BYTE   N09  As2
 BYTE   N09  Dn3
 BYTE   W12
 BYTE   As2  v028
 BYTE   N09  Dn3
 BYTE   W12
 BYTE   N21  As2  v100
 BYTE   N21  Dn3
 BYTE   W24
 BYTE   PEND 
//  #05 //015   ----------------------------------------
Label_019AA601:
 BYTE   N09  Cs3  v100
 BYTE   N09  En3
 BYTE   W12
 BYTE   Cs3  v028
 BYTE   N09  En3
 BYTE   W12
 BYTE   Cs3  v100
 BYTE   N09  En3
 BYTE   W12
 BYTE   Cs3  v028
 BYTE   N09  En3
 BYTE   W12
 BYTE   Cs3  v100
 BYTE   N09  En3
 BYTE   W12
 BYTE   Cs3  v028
 BYTE   N09  En3
 BYTE   W12
 BYTE   Cs3  v100
 BYTE   N09  En3
 BYTE   W12
 BYTE   Cs3  v028
 BYTE   N09  En3
 BYTE   W12
 BYTE   PEND 
//  #05 //016   ----------------------------------------
 BYTE   PATT
  POIN2 Label_019AA56A
//  #05 //017   ----------------------------------------
 BYTE   PATT
  POIN2 Label_019AA56A
//  #05 //018   ----------------------------------------
 BYTE   PATT
  POIN2 Label_019AA591
//  #05 //019   ----------------------------------------
 BYTE   PATT
  POIN2 Label_019AA591
//  #05 //020   ----------------------------------------
 BYTE   PATT
  POIN2 Label_019AA5B8
//  #05 //021   ----------------------------------------
 BYTE   PATT
  POIN2 Label_019AA5B8
//  #05 //022   ----------------------------------------
 BYTE   PATT
  POIN2 Label_019AA5DF
//  #05 //023   ----------------------------------------
 BYTE   PATT
  POIN2 Label_019AA601
//  #05 //024   ----------------------------------------
 BYTE   PATT
  POIN2 Label_019AA56A
//  #05 //025   ----------------------------------------
 BYTE   PATT
  POIN2 Label_019AA56A
//  #05 //026   ----------------------------------------
 BYTE   PATT
  POIN2 Label_019AA591
//  #05 //027   ----------------------------------------
 BYTE   PATT
  POIN2 Label_019AA591
//  #05 //028   ----------------------------------------
 BYTE   PATT
  POIN2 Label_019AA5B8
//  #05 //029   ----------------------------------------
 BYTE   PATT
  POIN2 Label_019AA5B8
//  #05 //030   ----------------------------------------
 BYTE   PATT
  POIN2 Label_019AA5DF
//  #05 //031   ----------------------------------------
 BYTE   PATT
  POIN2 Label_019AA601
//  #05 //032   ----------------------------------------
 BYTE   PATT
  POIN2 Label_019AA56A
//  #05 //033   ----------------------------------------
 BYTE   PATT
  POIN2 Label_019AA56A
//  #05 //034   ----------------------------------------
 BYTE   PATT
  POIN2 Label_019AA591
//  #05 //035   ----------------------------------------
 BYTE   PATT
  POIN2 Label_019AA591
//  #05 //036   ----------------------------------------
 BYTE   PATT
  POIN2 Label_019AA5B8
//  #05 //037   ----------------------------------------
 BYTE   PATT
  POIN2 Label_019AA5B8
//  #05 //038   ----------------------------------------
 BYTE   PATT
  POIN2 Label_019AA5DF
//  #05 //039   ----------------------------------------
 BYTE   PATT
  POIN2 Label_019AA601
//  #05 //040   ----------------------------------------
 BYTE   W96
//  #05 //041   ----------------------------------------
 BYTE   W96
//  #05 //042   ----------------------------------------
 BYTE   W96
//  #05 //043   ----------------------------------------
 BYTE   W96
//  #05 //044   ----------------------------------------
 BYTE   W96
//  #05 //045   ----------------------------------------
 BYTE   W96
//  #05 //046   ----------------------------------------
 BYTE   W96
//  #05 //047   ----------------------------------------
 BYTE   W96
//  #05 //048   ----------------------------------------
 BYTE   W96
//  #05 //049   ----------------------------------------
 BYTE   GoTo
  POIN2 Label_019AA55A
//  #05 //050   ----------------------------------------
 BYTE   VOICE   58
 BYTE   VOL   26*KnightOathArranged_mvl/mxv
 BYTE   BEND   c_v+0
 BYTE   FINE

//**************** Track 6 (Midi-Chn.5) ****************//

KnightOathArranged_006:
//  #06 //000   ----------------------------------------
 BYTE   KEYSH   KnightOathArranged_key+0
Label_019AA6D2:
 BYTE   VOICE   52
 BYTE   PAN   c_v+31
 BYTE   VOL   27*KnightOathArranged_mvl/mxv
 BYTE   BEND   c_v+0
 BYTE   W96
//  #06 //001   ----------------------------------------
 BYTE   W96
//  #06 //002   ----------------------------------------
 BYTE   W96
//  #06 //003   ----------------------------------------
 BYTE   W96
//  #06 //004   ----------------------------------------
 BYTE   W96
//  #06 //005   ----------------------------------------
 BYTE   W96
//  #06 //006   ----------------------------------------
 BYTE   W96
//  #06 //007   ----------------------------------------
 BYTE   W96
//  #06 //008   ----------------------------------------
 BYTE   W96
//  #06 //009   ----------------------------------------
 BYTE   W96
//  #06 //010   ----------------------------------------
 BYTE   W96
//  #06 //011   ----------------------------------------
 BYTE   W96
//  #06 //012   ----------------------------------------
 BYTE   W96
//  #06 //013   ----------------------------------------
 BYTE   W96
//  #06 //014   ----------------------------------------
 BYTE   W96
//  #06 //015   ----------------------------------------
 BYTE   W96
//  #06 //016   ----------------------------------------
 BYTE   W96
//  #06 //017   ----------------------------------------
 BYTE   W96
//  #06 //018   ----------------------------------------
 BYTE   W96
//  #06 //019   ----------------------------------------
 BYTE   W96
//  #06 //020   ----------------------------------------
 BYTE   W96
//  #06 //021   ----------------------------------------
 BYTE   W96
//  #06 //022   ----------------------------------------
 BYTE   W96
//  #06 //023   ----------------------------------------
 BYTE   W96
//  #06 //024   ----------------------------------------
Label_019AA6F2:
 BYTE   N07  Dn4  v100
 BYTE   W15
 BYTE   N07
 BYTE   W09
 BYTE   N23  An4
 BYTE   W24
 BYTE   N07  Dn4
 BYTE   N23  An4  v048
 BYTE   W15
 BYTE   N07  Dn4  v100
 BYTE   W09
 BYTE   N23  Gn4
 BYTE   W24
 BYTE   PEND 
//  #06 //025   ----------------------------------------
Label_019AA709:
 BYTE   N07  Dn4  v100
 BYTE   N23  Gn4  v048
 BYTE   W15
 BYTE   N07  Dn4  v100
 BYTE   W09
 BYTE   N23  Fn4
 BYTE   W24
 BYTE   N07  Dn4
 BYTE   N23  Fn4  v048
 BYTE   W15
 BYTE   N07  Dn4  v100
 BYTE   W09
 BYTE   N23  En4
 BYTE   W24
 BYTE   PEND 
//  #06 //026   ----------------------------------------
Label_019AA725:
 BYTE   N07  Cn4  v100
 BYTE   N23  En4  v048
 BYTE   W15
 BYTE   N07  Cn4  v100
 BYTE   W09
 BYTE   N23  An4
 BYTE   W24
 BYTE   N07  Cn4
 BYTE   N23  An4  v048
 BYTE   W15
 BYTE   N07  Cn4  v100
 BYTE   W09
 BYTE   N23  Gn4
 BYTE   W24
 BYTE   PEND 
//  #06 //027   ----------------------------------------
Label_019AA741:
 BYTE   N07  Cn4  v100
 BYTE   N23  Gn4  v048
 BYTE   W15
 BYTE   N07  Cn4  v100
 BYTE   W09
 BYTE   N23  Fn4
 BYTE   W24
 BYTE   N07  Cn4
 BYTE   N23  Fn4  v048
 BYTE   W15
 BYTE   N07  Cn4  v100
 BYTE   W09
 BYTE   N23  En4
 BYTE   W24
 BYTE   PEND 
//  #06 //028   ----------------------------------------
Label_019AA75D:
 BYTE   N07  Bn3  v100
 BYTE   N23  En4  v048
 BYTE   W15
 BYTE   N07  Bn3  v100
 BYTE   W09
 BYTE   N23  An4
 BYTE   W24
 BYTE   N07  Bn3
 BYTE   N23  An4  v048
 BYTE   W15
 BYTE   N07  Bn3  v100
 BYTE   W09
 BYTE   N23  Gn4
 BYTE   W24
 BYTE   PEND 
//  #06 //029   ----------------------------------------
Label_019AA779:
 BYTE   N07  Bn3  v100
 BYTE   N23  Gn4  v048
 BYTE   W15
 BYTE   N07  Bn3  v100
 BYTE   W09
 BYTE   N23  Fn4
 BYTE   W24
 BYTE   N07  Bn3
 BYTE   N23  Fn4  v048
 BYTE   W15
 BYTE   N07  Bn3  v100
 BYTE   W09
 BYTE   N23  En4
 BYTE   W24
 BYTE   PEND 
//  #06 //030   ----------------------------------------
Label_019AA795:
 BYTE   N23  En4  v048
 BYTE   W02
 BYTE   N09  As2  v100
 BYTE   N09  As3
 BYTE   W16
 BYTE   N05  As2
 BYTE   N05  As3
 BYTE   W06
 BYTE   N23  An4
 BYTE   W01
 BYTE   N09  As2
 BYTE   N09  As3
 BYTE   W17
 BYTE   N05  As2
 BYTE   N05  As3
 BYTE   W06
 BYTE   N23  An4  v048
 BYTE   W01
 BYTE   N09  As2  v100
 BYTE   N09  As3
 BYTE   W17
 BYTE   N05  As2
 BYTE   N05  As3
 BYTE   W06
 BYTE   N23  Gn4
 BYTE   W01
 BYTE   N09  As2
 BYTE   N09  As3
 BYTE   W17
 BYTE   N05  As2
 BYTE   N05  As3
 BYTE   W06
 BYTE   PEND 
//  #06 //031   ----------------------------------------
Label_019AA7CE:
 BYTE   N23  Gn4  v048
 BYTE   W02
 BYTE   N09  An2  v100
 BYTE   N09  An3
 BYTE   W16
 BYTE   N05  An2
 BYTE   N05  An3
 BYTE   W06
 BYTE   N23  Fn4
 BYTE   W01
 BYTE   N09  An2
 BYTE   N09  An3
 BYTE   W17
 BYTE   N05  An2
 BYTE   N05  An3
 BYTE   W06
 BYTE   N23  Fn4  v048
 BYTE   W01
 BYTE   N09  An2  v100
 BYTE   N09  An3
 BYTE   W17
 BYTE   N05  An2
 BYTE   N05  An3
 BYTE   W06
 BYTE   N23  En4
 BYTE   W01
 BYTE   N09  An2
 BYTE   N09  An3
 BYTE   W17
 BYTE   N05  An2
 BYTE   N05  An3
 BYTE   W06
 BYTE   PEND 
//  #06 //032   ----------------------------------------
 BYTE   PATT
  POIN2 Label_019AA6F2
//  #06 //033   ----------------------------------------
 BYTE   PATT
  POIN2 Label_019AA709
//  #06 //034   ----------------------------------------
 BYTE   PATT
  POIN2 Label_019AA725
//  #06 //035   ----------------------------------------
 BYTE   PATT
  POIN2 Label_019AA741
//  #06 //036   ----------------------------------------
 BYTE   PATT
  POIN2 Label_019AA75D
//  #06 //037   ----------------------------------------
 BYTE   PATT
  POIN2 Label_019AA779
//  #06 //038   ----------------------------------------
 BYTE   PATT
  POIN2 Label_019AA795
//  #06 //039   ----------------------------------------
 BYTE   PATT
  POIN2 Label_019AA7CE
//  #06 //040   ----------------------------------------
Label_019AA82F:
 BYTE   W02
 BYTE   N09  Dn3  v100
 BYTE   N09  Dn4
 BYTE   W16
 BYTE   N05  Dn3
 BYTE   N05  Dn4
 BYTE   W07
 BYTE   N09  Dn3
 BYTE   N09  Dn4
 BYTE   W17
 BYTE   N05  Dn3
 BYTE   N05  Dn4
 BYTE   W07
 BYTE   N09  Dn3
 BYTE   N09  Dn4
 BYTE   W17
 BYTE   N05  Dn3
 BYTE   N05  Dn4
 BYTE   W07
 BYTE   N09  Dn3
 BYTE   N09  Dn4
 BYTE   W17
 BYTE   N05  Dn3
 BYTE   N05  Dn4
 BYTE   W06
 BYTE   PEND 
//  #06 //041   ----------------------------------------
 BYTE   PATT
  POIN2 Label_019AA82F
//  #06 //042   ----------------------------------------
Label_019AA85F:
 BYTE   W02
 BYTE   N09  Cn3  v100
 BYTE   N09  Cn4
 BYTE   W16
 BYTE   N05  Cn3
 BYTE   N05  Cn4
 BYTE   W07
 BYTE   N09  Cn3
 BYTE   N09  Cn4
 BYTE   W17
 BYTE   N05  Cn3
 BYTE   N05  Cn4
 BYTE   W07
 BYTE   N09  Cn3
 BYTE   N09  Cn4
 BYTE   W17
 BYTE   N05  Cn3
 BYTE   N05  Cn4
 BYTE   W07
 BYTE   N09  Cn3
 BYTE   N09  Cn4
 BYTE   W17
 BYTE   N05  Cn3
 BYTE   N05  Cn4
 BYTE   W06
 BYTE   PEND 
//  #06 //043   ----------------------------------------
 BYTE   PATT
  POIN2 Label_019AA85F
//  #06 //044   ----------------------------------------
Label_019AA88F:
 BYTE   W02
 BYTE   N09  Bn2  v100
 BYTE   N09  Bn3
 BYTE   W16
 BYTE   N05  Bn2
 BYTE   N05  Bn3
 BYTE   W07
 BYTE   N09  Bn2
 BYTE   N09  Bn3
 BYTE   W17
 BYTE   N05  Bn2
 BYTE   N05  Bn3
 BYTE   W07
 BYTE   N09  Bn2
 BYTE   N09  Bn3
 BYTE   W17
 BYTE   N05  Bn2
 BYTE   N05  Bn3
 BYTE   W07
 BYTE   N09  Bn2
 BYTE   N09  Bn3
 BYTE   W17
 BYTE   N05  Bn2
 BYTE   N05  Bn3
 BYTE   W06
 BYTE   PEND 
//  #06 //045   ----------------------------------------
 BYTE   PATT
  POIN2 Label_019AA88F
//  #06 //046   ----------------------------------------
 BYTE   W02
 BYTE   N09  As2  v100
 BYTE   N09  As3
 BYTE   W16
 BYTE   N05  As2
 BYTE   N05  As3
 BYTE   W07
 BYTE   N09  As2
 BYTE   N09  As3
 BYTE   W17
 BYTE   N05  As2
 BYTE   N05  As3
 BYTE   W07
 BYTE   N09  As2
 BYTE   N09  As3
 BYTE   W17
 BYTE   N05  As2
 BYTE   N05  As3
 BYTE   W07
 BYTE   N09  As2
 BYTE   N09  As3
 BYTE   W17
 BYTE   N05  As2
 BYTE   N05  As3
 BYTE   W06
//  #06 //047   ----------------------------------------
 BYTE   W02
 BYTE   N09  An2
 BYTE   N09  An3
 BYTE   W16
 BYTE   N05  An2
 BYTE   N05  An3
 BYTE   W07
 BYTE   N09  An2
 BYTE   N09  An3
 BYTE   W17
 BYTE   N05  An2
 BYTE   N05  An3
 BYTE   W07
 BYTE   N09  An2
 BYTE   N09  An3
 BYTE   W17
 BYTE   N05  An2
 BYTE   N05  An3
 BYTE   W07
 BYTE   N09  An2
 BYTE   N09  An3
 BYTE   W17
 BYTE   N05  An2
 BYTE   N05  An3
 BYTE   W06
//  #06 //048   ----------------------------------------
 BYTE   W96
//  #06 //049   ----------------------------------------
 BYTE   GoTo
  POIN2 Label_019AA6D2
//  #06 //050   ----------------------------------------
 BYTE   VOICE   52
 BYTE   VOL   27*KnightOathArranged_mvl/mxv
 BYTE   BEND   c_v+0
 BYTE   FINE

//**************** Track 7 (Midi-Chn.6) ****************//

KnightOathArranged_007:
//  #07 //000   ----------------------------------------
 BYTE   KEYSH   KnightOathArranged_key+0
Label_019AACCE:
 BYTE   VOICE   30
 BYTE   PAN   c_v-32
 BYTE   VOL   27*KnightOathArranged_mvl/mxv
 BYTE   PAN   c_v-32
 BYTE   VOL   27*KnightOathArranged_mvl/mxv
 BYTE   PAN   c_v-32
 BYTE   VOL   27*KnightOathArranged_mvl/mxv
 BYTE   PAN   c_v-32
 BYTE   VOL   27*KnightOathArranged_mvl/mxv
 BYTE   BEND   c_v+0
 BYTE   W96
//  #07 //001   ----------------------------------------
 BYTE   W96
//  #07 //002   ----------------------------------------
 BYTE   W96
//  #07 //003   ----------------------------------------
 BYTE   W96
//  #07 //004   ----------------------------------------
 BYTE   W96
//  #07 //005   ----------------------------------------
 BYTE   W96
//  #07 //006   ----------------------------------------
 BYTE   W96
//  #07 //007   ----------------------------------------
 BYTE   W96
//  #07 //008   ----------------------------------------
 BYTE   W96
//  #07 //009   ----------------------------------------
 BYTE   W96
//  #07 //010   ----------------------------------------
 BYTE   W96
//  #07 //011   ----------------------------------------
 BYTE   W96
//  #07 //012   ----------------------------------------
 BYTE   W96
//  #07 //013   ----------------------------------------
 BYTE   W96
//  #07 //014   ----------------------------------------
 BYTE   W96
//  #07 //015   ----------------------------------------
 BYTE   W96
//  #07 //016   ----------------------------------------
 BYTE   W96
//  #07 //017   ----------------------------------------
 BYTE   W96
//  #07 //018   ----------------------------------------
 BYTE   W96
//  #07 //019   ----------------------------------------
 BYTE   W96
//  #07 //020   ----------------------------------------
 BYTE   W96
//  #07 //021   ----------------------------------------
 BYTE   W96
//  #07 //022   ----------------------------------------
 BYTE   W96
//  #07 //023   ----------------------------------------
 BYTE   W96
//  #07 //024   ----------------------------------------
Label_019AACFA:
 BYTE   N07  Dn2  v100
 BYTE   W15
 BYTE   N07
 BYTE   W09
 BYTE   N23  An2
 BYTE   W24
 BYTE   N07  Dn2
 BYTE   N23  An2  v048
 BYTE   W15
 BYTE   N07  Dn2  v100
 BYTE   W09
 BYTE   N23  Gn2
 BYTE   W24
 BYTE   PEND 
//  #07 //025   ----------------------------------------
Label_019AAD11:
 BYTE   N07  Dn2  v100
 BYTE   N23  Gn2  v048
 BYTE   W15
 BYTE   N07  Dn2  v100
 BYTE   W09
 BYTE   N23  Fn2
 BYTE   W24
 BYTE   N07  Dn2
 BYTE   N23  Fn2  v048
 BYTE   W15
 BYTE   N07  Dn2  v100
 BYTE   W09
 BYTE   N23  En2
 BYTE   W24
 BYTE   PEND 
//  #07 //026   ----------------------------------------
Label_019AAD2D:
 BYTE   N07  Cn2  v100
 BYTE   N23  En2  v048
 BYTE   W15
 BYTE   N07  Cn2  v100
 BYTE   W09
 BYTE   N23  An2
 BYTE   W24
 BYTE   N07  Cn2
 BYTE   N23  An2  v048
 BYTE   W15
 BYTE   N07  Cn2  v100
 BYTE   W09
 BYTE   N23  Gn2
 BYTE   W24
 BYTE   PEND 
//  #07 //027   ----------------------------------------
Label_019AAD49:
 BYTE   N07  Cn2  v100
 BYTE   N23  Gn2  v048
 BYTE   W15
 BYTE   N07  Cn2  v100
 BYTE   W09
 BYTE   N23  Fn2
 BYTE   W24
 BYTE   N07  Cn2
 BYTE   N23  Fn2  v048
 BYTE   W15
 BYTE   N07  Cn2  v100
 BYTE   W09
 BYTE   N23  En2
 BYTE   W24
 BYTE   PEND 
//  #07 //028   ----------------------------------------
Label_019AAD65:
 BYTE   N07  Bn1  v100
 BYTE   N23  En2  v048
 BYTE   W15
 BYTE   N07  Bn1  v100
 BYTE   W09
 BYTE   N23  An2
 BYTE   W24
 BYTE   N07  Bn1
 BYTE   N23  An2  v048
 BYTE   W15
 BYTE   N07  Bn1  v100
 BYTE   W09
 BYTE   N23  Gn2
 BYTE   W24
 BYTE   PEND 
//  #07 //029   ----------------------------------------
Label_019AAD81:
 BYTE   N07  Bn1  v100
 BYTE   N23  Gn2  v048
 BYTE   W15
 BYTE   N07  Bn1  v100
 BYTE   W09
 BYTE   N23  Fn2
 BYTE   W24
 BYTE   N07  Bn1
 BYTE   N23  Fn2  v048
 BYTE   W15
 BYTE   N07  Bn1  v100
 BYTE   W09
 BYTE   N23  En2
 BYTE   W24
 BYTE   PEND 
//  #07 //030   ----------------------------------------
Label_019AAD9D:
 BYTE   N07  As1  v100
 BYTE   N23  En2  v048
 BYTE   W15
 BYTE   N07  As1  v100
 BYTE   W09
 BYTE   N23  An2
 BYTE   W24
 BYTE   N07  As1
 BYTE   N23  An2  v048
 BYTE   W15
 BYTE   N07  As1  v100
 BYTE   W09
 BYTE   N23  Gn2
 BYTE   W24
 BYTE   PEND 
//  #07 //031   ----------------------------------------
Label_019AADB9:
 BYTE   N07  An1  v100
 BYTE   N23  Gn2  v048
 BYTE   W15
 BYTE   N07  An1  v100
 BYTE   W09
 BYTE   N23  Fn2
 BYTE   W24
 BYTE   N07  An1
 BYTE   N23  Fn2  v048
 BYTE   W15
 BYTE   N07  An1  v100
 BYTE   W09
 BYTE   N23  En2
 BYTE   W24
 BYTE   PEND 
//  #07 //032   ----------------------------------------
 BYTE   PATT
  POIN2 Label_019AACFA
//  #07 //033   ----------------------------------------
 BYTE   PATT
  POIN2 Label_019AAD11
//  #07 //034   ----------------------------------------
 BYTE   PATT
  POIN2 Label_019AAD2D
//  #07 //035   ----------------------------------------
 BYTE   PATT
  POIN2 Label_019AAD49
//  #07 //036   ----------------------------------------
 BYTE   PATT
  POIN2 Label_019AAD65
//  #07 //037   ----------------------------------------
 BYTE   PATT
  POIN2 Label_019AAD81
//  #07 //038   ----------------------------------------
 BYTE   PATT
  POIN2 Label_019AAD9D
//  #07 //039   ----------------------------------------
 BYTE   PATT
  POIN2 Label_019AADB9
//  #07 //040   ----------------------------------------
 BYTE   W24
 BYTE   N23  An2  v100
 BYTE   W24
 BYTE   N24  An2  v048
 BYTE   W24
 BYTE   Gn2  v100
 BYTE   W24
//  #07 //041   ----------------------------------------
Label_019AAE09:
 BYTE   N23  Gn2  v048
 BYTE   W24
 BYTE   N24  Fn2  v100
 BYTE   W24
 BYTE   Fn2  v048
 BYTE   W24
 BYTE   En2  v100
 BYTE   W24
 BYTE   PEND 
//  #07 //042   ----------------------------------------
Label_019AAE18:
 BYTE   N23  En2  v048
 BYTE   W24
 BYTE   N24  An2  v100
 BYTE   W24
 BYTE   An2  v048
 BYTE   W24
 BYTE   Gn2  v100
 BYTE   W24
 BYTE   PEND 
//  #07 //043   ----------------------------------------
 BYTE   PATT
  POIN2 Label_019AAE09
//  #07 //044   ----------------------------------------
 BYTE   PATT
  POIN2 Label_019AAE18
//  #07 //045   ----------------------------------------
 BYTE   PATT
  POIN2 Label_019AAE09
//  #07 //046   ----------------------------------------
 BYTE   N23  En2  v048
 BYTE   W24
 BYTE   N24  Gn2  v100
 BYTE   W24
 BYTE   Gn2  v048
 BYTE   W24
 BYTE   Fn2  v100
 BYTE   W24
//  #07 //047   ----------------------------------------
 BYTE   Fn2  v048
 BYTE   W24
 BYTE   En2  v100
 BYTE   W24
 BYTE   En2  v048
 BYTE   W24
 BYTE   Dn2  v100
 BYTE   W24
//  #07 //048   ----------------------------------------
 BYTE   Dn2  v048
 BYTE   W24
 BYTE   Dn2  v024
 BYTE   W24
 BYTE   N48  Dn2  v008
 BYTE   W48
//  #07 //049   ----------------------------------------
 BYTE   GoTo
  POIN2 Label_019AACCE
//  #07 //050   ----------------------------------------
 BYTE   PAN   c_v-32
 BYTE   VOL   27*KnightOathArranged_mvl/mxv
 BYTE   PAN   c_v-32
 BYTE   VOL   27*KnightOathArranged_mvl/mxv
 BYTE   PAN   c_v-32
 BYTE   VOL   27*KnightOathArranged_mvl/mxv
 BYTE   BEND   c_v+0
 BYTE   FINE

//**************** Track 8 (Midi-Chn.7) ****************//

KnightOathArranged_008:
//  #08 //000   ----------------------------------------
 BYTE   KEYSH   KnightOathArranged_key+0
Label_019AAADE:
 BYTE   VOICE   2
 BYTE   PAN   c_v+8
 BYTE   VOL   30*KnightOathArranged_mvl/mxv
 BYTE   BEND   c_v+0
 BYTE   W96
//  #08 //001   ----------------------------------------
 BYTE   W96
//  #08 //002   ----------------------------------------
 BYTE   W96
//  #08 //003   ----------------------------------------
 BYTE   W96
//  #08 //004   ----------------------------------------
 BYTE   W96
//  #08 //005   ----------------------------------------
 BYTE   W96
//  #08 //006   ----------------------------------------
 BYTE   W96
//  #08 //007   ----------------------------------------
 BYTE   W96
//  #08 //008   ----------------------------------------
Label_019AAAEE:
 BYTE   W02
 BYTE   N09  Dn2  v100
 BYTE   N09  Dn3
 BYTE   W16
 BYTE   N05  Dn2
 BYTE   N05  Dn3
 BYTE   W07
 BYTE   N09  Dn2
 BYTE   N09  Dn3
 BYTE   W17
 BYTE   N05  Dn2
 BYTE   N05  Dn3
 BYTE   W07
 BYTE   N09  Dn2
 BYTE   N09  Dn3
 BYTE   W17
 BYTE   N05  Dn2
 BYTE   N05  Dn3
 BYTE   W07
 BYTE   N09  Dn2
 BYTE   N09  Dn3
 BYTE   W17
 BYTE   N05  Dn2
 BYTE   N05  Dn3
 BYTE   W06
 BYTE   PEND 
//  #08 //009   ----------------------------------------
 BYTE   PATT
  POIN2 Label_019AAAEE
//  #08 //010   ----------------------------------------
Label_019AAB1E:
 BYTE   W02
 BYTE   N09  Cn2  v100
 BYTE   N09  Cn3
 BYTE   W16
 BYTE   N05  Cn2
 BYTE   N05  Cn3
 BYTE   W07
 BYTE   N09  Cn2
 BYTE   N09  Cn3
 BYTE   W17
 BYTE   N05  Cn2
 BYTE   N05  Cn3
 BYTE   W07
 BYTE   N09  Cn2
 BYTE   N09  Cn3
 BYTE   W17
 BYTE   N05  Cn2
 BYTE   N05  Cn3
 BYTE   W07
 BYTE   N09  Cn2
 BYTE   N09  Cn3
 BYTE   W17
 BYTE   N05  Cn2
 BYTE   N05  Cn3
 BYTE   W06
 BYTE   PEND 
//  #08 //011   ----------------------------------------
 BYTE   PATT
  POIN2 Label_019AAB1E
//  #08 //012   ----------------------------------------
Label_019AAB4E:
 BYTE   W02
 BYTE   N09  Bn1  v100
 BYTE   N09  Bn2
 BYTE   W16
 BYTE   N05  Bn1
 BYTE   N05  Bn2
 BYTE   W07
 BYTE   N09  Bn1
 BYTE   N09  Bn2
 BYTE   W17
 BYTE   N05  Bn1
 BYTE   N05  Bn2
 BYTE   W07
 BYTE   N09  Bn1
 BYTE   N09  Bn2
 BYTE   W17
 BYTE   N05  Bn1
 BYTE   N05  Bn2
 BYTE   W07
 BYTE   N09  Bn1
 BYTE   N09  Bn2
 BYTE   W17
 BYTE   N05  Bn1
 BYTE   N05  Bn2
 BYTE   W06
 BYTE   PEND 
//  #08 //013   ----------------------------------------
 BYTE   PATT
  POIN2 Label_019AAB4E
//  #08 //014   ----------------------------------------
Label_019AAB7E:
 BYTE   W02
 BYTE   N09  As1  v100
 BYTE   N09  As2
 BYTE   W16
 BYTE   N05  As1
 BYTE   N05  As2
 BYTE   W07
 BYTE   N09  As1
 BYTE   N09  As2
 BYTE   W17
 BYTE   N05  As1
 BYTE   N05  As2
 BYTE   W07
 BYTE   N09  As1
 BYTE   N09  As2
 BYTE   W17
 BYTE   N05  As1
 BYTE   N05  As2
 BYTE   W07
 BYTE   N09  As1
 BYTE   N09  As2
 BYTE   W17
 BYTE   N05  As1
 BYTE   N05  As2
 BYTE   W06
 BYTE   PEND 
//  #08 //015   ----------------------------------------
Label_019AABA9:
 BYTE   W02
 BYTE   N09  An1  v100
 BYTE   N09  An2
 BYTE   W16
 BYTE   N05  An1
 BYTE   N05  An2
 BYTE   W07
 BYTE   N09  An1
 BYTE   N09  An2
 BYTE   W17
 BYTE   N05  An1
 BYTE   N05  An2
 BYTE   W07
 BYTE   N09  An1
 BYTE   N09  An2
 BYTE   W17
 BYTE   N05  An1
 BYTE   N05  An2
 BYTE   W07
 BYTE   N09  An1
 BYTE   N09  An2
 BYTE   W17
 BYTE   N05  An1
 BYTE   N05  An2
 BYTE   W06
 BYTE   PEND 
//  #08 //016   ----------------------------------------
 BYTE   PATT
  POIN2 Label_019AAAEE
//  #08 //017   ----------------------------------------
 BYTE   PATT
  POIN2 Label_019AAAEE
//  #08 //018   ----------------------------------------
 BYTE   PATT
  POIN2 Label_019AAB1E
//  #08 //019   ----------------------------------------
 BYTE   PATT
  POIN2 Label_019AAB1E
//  #08 //020   ----------------------------------------
 BYTE   PATT
  POIN2 Label_019AAB4E
//  #08 //021   ----------------------------------------
 BYTE   PATT
  POIN2 Label_019AAB4E
//  #08 //022   ----------------------------------------
 BYTE   PATT
  POIN2 Label_019AAB7E
//  #08 //023   ----------------------------------------
 BYTE   PATT
  POIN2 Label_019AABA9
//  #08 //024   ----------------------------------------
Label_019AABFC:
 BYTE   W02
 BYTE   N09  Dn2  v100
 BYTE   W16
 BYTE   N05
 BYTE   W07
 BYTE   N09
 BYTE   W17
 BYTE   N05
 BYTE   W07
 BYTE   N09
 BYTE   W17
 BYTE   N05
 BYTE   W07
 BYTE   N09
 BYTE   W17
 BYTE   N05
 BYTE   W06
 BYTE   PEND 
//  #08 //025   ----------------------------------------
 BYTE   PATT
  POIN2 Label_019AABFC
//  #08 //026   ----------------------------------------
Label_019AAC15:
 BYTE   W02
 BYTE   N09  Cn2  v100
 BYTE   W16
 BYTE   N05
 BYTE   W07
 BYTE   N09
 BYTE   W17
 BYTE   N05
 BYTE   W07
 BYTE   N09
 BYTE   W17
 BYTE   N05
 BYTE   W07
 BYTE   N09
 BYTE   W17
 BYTE   N05
 BYTE   W06
 BYTE   PEND 
//  #08 //027   ----------------------------------------
 BYTE   PATT
  POIN2 Label_019AAC15
//  #08 //028   ----------------------------------------
Label_019AAC2E:
 BYTE   W02
 BYTE   N09  Bn1  v100
 BYTE   W16
 BYTE   N05
 BYTE   W07
 BYTE   N09
 BYTE   W17
 BYTE   N05
 BYTE   W07
 BYTE   N09
 BYTE   W17
 BYTE   N05
 BYTE   W07
 BYTE   N09
 BYTE   W17
 BYTE   N05
 BYTE   W06
 BYTE   PEND 
//  #08 //029   ----------------------------------------
 BYTE   PATT
  POIN2 Label_019AAC2E
//  #08 //030   ----------------------------------------
 BYTE   PATT
  POIN2 Label_019AAB7E
//  #08 //031   ----------------------------------------
 BYTE   PATT
  POIN2 Label_019AABA9
//  #08 //032   ----------------------------------------
 BYTE   PATT
  POIN2 Label_019AABFC
//  #08 //033   ----------------------------------------
 BYTE   PATT
  POIN2 Label_019AABFC
//  #08 //034   ----------------------------------------
 BYTE   PATT
  POIN2 Label_019AAC15
//  #08 //035   ----------------------------------------
 BYTE   PATT
  POIN2 Label_019AAC15
//  #08 //036   ----------------------------------------
 BYTE   PATT
  POIN2 Label_019AAC2E
//  #08 //037   ----------------------------------------
 BYTE   PATT
  POIN2 Label_019AAC2E
//  #08 //038   ----------------------------------------
 BYTE   PATT
  POIN2 Label_019AAB7E
//  #08 //039   ----------------------------------------
 BYTE   PATT
  POIN2 Label_019AABA9
//  #08 //040   ----------------------------------------
Label_019AAC79:
 BYTE   N44  Dn2  v100
 BYTE   W48
 BYTE   N44
 BYTE   W48
 BYTE   PEND 
//  #08 //041   ----------------------------------------
 BYTE   PATT
  POIN2 Label_019AAC79
//  #08 //042   ----------------------------------------
Label_019AAC85:
 BYTE   N44  Cn2  v100
 BYTE   W48
 BYTE   N44
 BYTE   W48
 BYTE   PEND 
//  #08 //043   ----------------------------------------
 BYTE   PATT
  POIN2 Label_019AAC85
//  #08 //044   ----------------------------------------
Label_019AAC91:
 BYTE   N44  Bn1  v100
 BYTE   W48
 BYTE   N44
 BYTE   W48
 BYTE   PEND 
//  #08 //045   ----------------------------------------
 BYTE   PATT
  POIN2 Label_019AAC91
//  #08 //046   ----------------------------------------
 BYTE   N44  As1  v100
 BYTE   W48
 BYTE   N44
 BYTE   W48
//  #08 //047   ----------------------------------------
 BYTE   N48  An1
 BYTE   W48
 BYTE   N44
 BYTE   W48
//  #08 //048   ----------------------------------------
 BYTE   W96
//  #08 //049   ----------------------------------------
 BYTE   GoTo
  POIN2 Label_019AAADE
//  #08 //050   ----------------------------------------
 BYTE   VOL   30*KnightOathArranged_mvl/mxv
 BYTE   BEND   c_v+0
 BYTE   FINE

//**************** Track 9 (Midi-Chn.8) ****************//

KnightOathArranged_009:
//  #09 //000   ----------------------------------------
 BYTE   KEYSH   KnightOathArranged_key+0
Label_0192B12E:
 BYTE   VOICE   47
 BYTE   PAN   c_v+0
 BYTE   VOL   32*KnightOathArranged_mvl/mxv
 BYTE   PAN   c_v+0
 BYTE   VOL   32*KnightOathArranged_mvl/mxv
 BYTE   PAN   c_v+0
 BYTE   VOL   32*KnightOathArranged_mvl/mxv
 BYTE   PAN   c_v+0
 BYTE   VOL   32*KnightOathArranged_mvl/mxv
 BYTE   BEND   c_v+0
 BYTE   W96
//  #09 //001   ----------------------------------------
 BYTE   W96
//  #09 //002   ----------------------------------------
 BYTE   W96
//  #09 //003   ----------------------------------------
 BYTE   W96
//  #09 //004   ----------------------------------------
 BYTE   W96
//  #09 //005   ----------------------------------------
 BYTE   W96
//  #09 //006   ----------------------------------------
 BYTE   W96
//  #09 //007   ----------------------------------------
 BYTE   W96
//  #09 //008   ----------------------------------------
 BYTE   W96
//  #09 //009   ----------------------------------------
 BYTE   W96
//  #09 //010   ----------------------------------------
 BYTE   W96
//  #09 //011   ----------------------------------------
 BYTE   W96
//  #09 //012   ----------------------------------------
 BYTE   W96
//  #09 //013   ----------------------------------------
 BYTE   W96
//  #09 //014   ----------------------------------------
 BYTE   W96
//  #09 //015   ----------------------------------------
 BYTE   W96
//  #09 //016   ----------------------------------------
 BYTE   W96
//  #09 //017   ----------------------------------------
 BYTE   W96
//  #09 //018   ----------------------------------------
 BYTE   W96
//  #09 //019   ----------------------------------------
 BYTE   W96
//  #09 //020   ----------------------------------------
 BYTE   W96
//  #09 //021   ----------------------------------------
 BYTE   W96
//  #09 //022   ----------------------------------------
 BYTE   W96
//  #09 //023   ----------------------------------------
 BYTE   W96
//  #09 //024   ----------------------------------------
Label_0192B15A:
 BYTE   N07  Dn2  v100
 BYTE   W15
 BYTE   N07
 BYTE   W32
 BYTE   W01
 BYTE   N07
 BYTE   W15
 BYTE   N07
 BYTE   W32
 BYTE   W01
 BYTE   PEND 
//  #09 //025   ----------------------------------------
 BYTE   PATT
  POIN2 Label_0192B15A
//  #09 //026   ----------------------------------------
Label_0192B16C:
 BYTE   N07  Cn2  v100
 BYTE   W15
 BYTE   N07
 BYTE   W32
 BYTE   W01
 BYTE   N07
 BYTE   W15
 BYTE   N07
 BYTE   W32
 BYTE   W01
 BYTE   PEND 
//  #09 //027   ----------------------------------------
 BYTE   PATT
  POIN2 Label_0192B16C
//  #09 //028   ----------------------------------------
Label_0192B17E:
 BYTE   N07  Bn1  v100
 BYTE   W15
 BYTE   N07
 BYTE   W32
 BYTE   W01
 BYTE   N07
 BYTE   W15
 BYTE   N07
 BYTE   W32
 BYTE   W01
 BYTE   PEND 
//  #09 //029   ----------------------------------------
 BYTE   PATT
  POIN2 Label_0192B17E
//  #09 //030   ----------------------------------------
 BYTE   N07  As1  v100
 BYTE   W15
 BYTE   N07
 BYTE   W32
 BYTE   W01
 BYTE   N07
 BYTE   W15
 BYTE   N07
 BYTE   W32
 BYTE   W01
//  #09 //031   ----------------------------------------
 BYTE   N15  An1
 BYTE   W15
 BYTE   N07
 BYTE   W32
 BYTE   W01
 BYTE   N07
 BYTE   W15
 BYTE   N07
 BYTE   W32
 BYTE   W01
//  #09 //032   ----------------------------------------
Label_0192B1A7:
 BYTE   N07  Dn2  v100
 BYTE   W15
 BYTE   N07
 BYTE   W09
 BYTE   N23
 BYTE   W24
 BYTE   N07
 BYTE   W15
 BYTE   N07
 BYTE   W09
 BYTE   N23
 BYTE   W24
 BYTE   PEND 
//  #09 //033   ----------------------------------------
 BYTE   PATT
  POIN2 Label_0192B1A7
//  #09 //034   ----------------------------------------
Label_0192B1BB:
 BYTE   N07  Cn2  v100
 BYTE   W15
 BYTE   N07
 BYTE   W09
 BYTE   N23
 BYTE   W24
 BYTE   N07
 BYTE   W15
 BYTE   N07
 BYTE   W09
 BYTE   N23
 BYTE   W24
 BYTE   PEND 
//  #09 //035   ----------------------------------------
 BYTE   PATT
  POIN2 Label_0192B1BB
//  #09 //036   ----------------------------------------
Label_0192B1CF:
 BYTE   N07  Bn1  v100
 BYTE   W15
 BYTE   N07
 BYTE   W09
 BYTE   N23
 BYTE   W24
 BYTE   N07
 BYTE   W15
 BYTE   N07
 BYTE   W09
 BYTE   N23
 BYTE   W24
 BYTE   PEND 
//  #09 //037   ----------------------------------------
 BYTE   PATT
  POIN2 Label_0192B1CF
//  #09 //038   ----------------------------------------
 BYTE   N07  As1  v100
 BYTE   W15
 BYTE   N07
 BYTE   W09
 BYTE   N23
 BYTE   W24
 BYTE   N07
 BYTE   W15
 BYTE   N07
 BYTE   W09
 BYTE   N23
 BYTE   W24
//  #09 //039   ----------------------------------------
 BYTE   N07  An1
 BYTE   W15
 BYTE   N07
 BYTE   W09
 BYTE   N23
 BYTE   W24
 BYTE   N07
 BYTE   W15
 BYTE   N07
 BYTE   W09
 BYTE   N23
 BYTE   W24
//  #09 //040   ----------------------------------------
 BYTE   W96
//  #09 //041   ----------------------------------------
 BYTE   W96
//  #09 //042   ----------------------------------------
 BYTE   W96
//  #09 //043   ----------------------------------------
 BYTE   W96
//  #09 //044   ----------------------------------------
 BYTE   W96
//  #09 //045   ----------------------------------------
 BYTE   W96
//  #09 //046   ----------------------------------------
 BYTE   W96
//  #09 //047   ----------------------------------------
 BYTE   W96
//  #09 //048   ----------------------------------------
 BYTE   W96
//  #09 //049   ----------------------------------------
 BYTE   GoTo
  POIN2 Label_0192B12E
//  #09 //050   ----------------------------------------
 BYTE   VOICE   47
 BYTE   PAN   c_v+0
 BYTE   VOL   32*KnightOathArranged_mvl/mxv
 BYTE   PAN   c_v+0
 BYTE   VOL   32*KnightOathArranged_mvl/mxv
 BYTE   PAN   c_v+0
 BYTE   VOL   32*KnightOathArranged_mvl/mxv
 BYTE   BEND   c_v+0
 BYTE   FINE

//**************** Track 10 (Midi-Chn.9) ****************//

KnightOathArranged_010:
//  #10 //000   ----------------------------------------
 BYTE   KEYSH   KnightOathArranged_key+0
Label_0192AC56:
 BYTE   VOICE   61
 BYTE   PAN   c_v-18
 BYTE   VOL   26*KnightOathArranged_mvl/mxv
 BYTE   PAN   c_v-18
 BYTE   VOL   26*KnightOathArranged_mvl/mxv
 BYTE   PAN   c_v-18
 BYTE   VOL   26*KnightOathArranged_mvl/mxv
 BYTE   PAN   c_v-18
 BYTE   VOL   26*KnightOathArranged_mvl/mxv
 BYTE   BEND   c_v+0
 BYTE   W96
//  #10 //001   ----------------------------------------
 BYTE   W96
//  #10 //002   ----------------------------------------
 BYTE   W96
//  #10 //003   ----------------------------------------
 BYTE   W96
//  #10 //004   ----------------------------------------
 BYTE   W96
//  #10 //005   ----------------------------------------
 BYTE   W96
//  #10 //006   ----------------------------------------
 BYTE   W96
//  #10 //007   ----------------------------------------
 BYTE   W96
//  #10 //008   ----------------------------------------
Label_0192AC72:
 BYTE   N07  Dn3  v100
 BYTE   W15
 BYTE   N07
 BYTE   W09
 BYTE   N23  An3
 BYTE   W24
 BYTE   N07  Dn3
 BYTE   N23  An3  v048
 BYTE   W15
 BYTE   N07  Dn3  v100
 BYTE   W09
 BYTE   N23  Gn3
 BYTE   W24
 BYTE   PEND 
//  #10 //009   ----------------------------------------
Label_0192AC89:
 BYTE   N07  Dn3  v100
 BYTE   N23  Gn3  v048
 BYTE   W15
 BYTE   N07  Dn3  v100
 BYTE   W09
 BYTE   N23  Fn3
 BYTE   W24
 BYTE   N07  Dn3
 BYTE   N23  Fn3  v048
 BYTE   W15
 BYTE   N07  Dn3  v100
 BYTE   W09
 BYTE   N23  En3
 BYTE   W24
 BYTE   PEND 
//  #10 //010   ----------------------------------------
Label_0192ACA5:
 BYTE   N07  Cn3  v100
 BYTE   N23  En3  v048
 BYTE   W15
 BYTE   N07  Cn3  v100
 BYTE   W09
 BYTE   N23  An3
 BYTE   W24
 BYTE   N07  Cn3
 BYTE   N23  An3  v048
 BYTE   W15
 BYTE   N07  Cn3  v100
 BYTE   W09
 BYTE   N23  Gn3
 BYTE   W24
 BYTE   PEND 
//  #10 //011   ----------------------------------------
Label_0192ACC1:
 BYTE   N07  Cn3  v100
 BYTE   N23  Gn3  v048
 BYTE   W15
 BYTE   N07  Cn3  v100
 BYTE   W09
 BYTE   N23  Fn3
 BYTE   W24
 BYTE   N07  Cn3
 BYTE   N23  Fn3  v048
 BYTE   W15
 BYTE   N07  Cn3  v100
 BYTE   W09
 BYTE   N23  En3
 BYTE   W24
 BYTE   PEND 
//  #10 //012   ----------------------------------------
Label_0192ACDD:
 BYTE   N07  Bn2  v100
 BYTE   N23  En3  v048
 BYTE   W15
 BYTE   N07  Bn2  v100
 BYTE   W09
 BYTE   N23  An3
 BYTE   W24
 BYTE   N07  Bn2
 BYTE   N23  An3  v048
 BYTE   W15
 BYTE   N07  Bn2  v100
 BYTE   W09
 BYTE   N23  Gn3
 BYTE   W24
 BYTE   PEND 
//  #10 //013   ----------------------------------------
Label_0192ACF9:
 BYTE   N07  Bn2  v100
 BYTE   N23  Gn3  v048
 BYTE   W15
 BYTE   N07  Bn2  v100
 BYTE   W09
 BYTE   N23  Fn3
 BYTE   W24
 BYTE   N07  Bn2
 BYTE   N23  Fn3  v048
 BYTE   W15
 BYTE   N07  Bn2  v100
 BYTE   W09
 BYTE   N23  En3
 BYTE   W24
 BYTE   PEND 
//  #10 //014   ----------------------------------------
Label_0192AD15:
 BYTE   N07  As2  v100
 BYTE   N23  En3  v048
 BYTE   W15
 BYTE   N07  As2  v100
 BYTE   W09
 BYTE   N23  An3
 BYTE   W24
 BYTE   N07  As2
 BYTE   N23  An3  v048
 BYTE   W15
 BYTE   N07  As2  v100
 BYTE   W09
 BYTE   N23  Gn3
 BYTE   W24
 BYTE   PEND 
//  #10 //015   ----------------------------------------
Label_0192AD31:
 BYTE   N07  An2  v100
 BYTE   N23  Gn3  v048
 BYTE   W15
 BYTE   N07  An2  v100
 BYTE   W09
 BYTE   N23  Fn3
 BYTE   W24
 BYTE   N07  An2
 BYTE   N23  Fn3  v048
 BYTE   W15
 BYTE   N07  An2  v100
 BYTE   W09
 BYTE   N23  En3
 BYTE   W24
 BYTE   PEND 
//  #10 //016   ----------------------------------------
 BYTE   PATT
  POIN2 Label_0192AC72
//  #10 //017   ----------------------------------------
 BYTE   PATT
  POIN2 Label_0192AC89
//  #10 //018   ----------------------------------------
 BYTE   PATT
  POIN2 Label_0192ACA5
//  #10 //019   ----------------------------------------
 BYTE   PATT
  POIN2 Label_0192ACC1
//  #10 //020   ----------------------------------------
 BYTE   PATT
  POIN2 Label_0192ACDD
//  #10 //021   ----------------------------------------
 BYTE   PATT
  POIN2 Label_0192ACF9
//  #10 //022   ----------------------------------------
 BYTE   PATT
  POIN2 Label_0192AD15
//  #10 //023   ----------------------------------------
 BYTE   PATT
  POIN2 Label_0192AD31
//  #10 //024   ----------------------------------------
 BYTE   W96
//  #10 //025   ----------------------------------------
 BYTE   W96
//  #10 //026   ----------------------------------------
 BYTE   W96
//  #10 //027   ----------------------------------------
 BYTE   W96
//  #10 //028   ----------------------------------------
 BYTE   W96
//  #10 //029   ----------------------------------------
 BYTE   W96
//  #10 //030   ----------------------------------------
 BYTE   W96
//  #10 //031   ----------------------------------------
 BYTE   W96
//  #10 //032   ----------------------------------------
 BYTE   W96
//  #10 //033   ----------------------------------------
 BYTE   W96
//  #10 //034   ----------------------------------------
 BYTE   W96
//  #10 //035   ----------------------------------------
 BYTE   W96
//  #10 //036   ----------------------------------------
 BYTE   W96
//  #10 //037   ----------------------------------------
 BYTE   W96
//  #10 //038   ----------------------------------------
 BYTE   W96
//  #10 //039   ----------------------------------------
 BYTE   W96
//  #10 //040   ----------------------------------------
 BYTE   W24
 BYTE   N23  An4  v100
 BYTE   W24
 BYTE   N24  An4  v048
 BYTE   W24
 BYTE   Gn4  v100
 BYTE   W24
//  #10 //041   ----------------------------------------
Label_0192AD91:
 BYTE   N23  Gn4  v048
 BYTE   W24
 BYTE   N24  Fn4  v100
 BYTE   W24
 BYTE   Fn4  v048
 BYTE   W24
 BYTE   En4  v100
 BYTE   W24
 BYTE   PEND 
//  #10 //042   ----------------------------------------
Label_0192ADA0:
 BYTE   N23  En4  v048
 BYTE   W24
 BYTE   N24  An4  v100
 BYTE   W24
 BYTE   An4  v048
 BYTE   W24
 BYTE   Gn4  v100
 BYTE   W24
 BYTE   PEND 
//  #10 //043   ----------------------------------------
 BYTE   PATT
  POIN2 Label_0192AD91
//  #10 //044   ----------------------------------------
 BYTE   PATT
  POIN2 Label_0192ADA0
//  #10 //045   ----------------------------------------
 BYTE   PATT
  POIN2 Label_0192AD91
//  #10 //046   ----------------------------------------
 BYTE   N23  En4  v048
 BYTE   W24
 BYTE   N24  Gn4  v100
 BYTE   W24
 BYTE   Gn4  v048
 BYTE   W24
 BYTE   Fn4  v100
 BYTE   W24
//  #10 //047   ----------------------------------------
 BYTE   Fn4  v048
 BYTE   W24
 BYTE   En4  v100
 BYTE   W24
 BYTE   En4  v048
 BYTE   W24
 BYTE   Dn4  v100
 BYTE   W24
//  #10 //048   ----------------------------------------
 BYTE   Dn4  v048
 BYTE   W24
 BYTE   Dn4  v024
 BYTE   W24
 BYTE   N48  Dn4  v008
 BYTE   W48
//  #10 //049   ----------------------------------------
 BYTE   GoTo
  POIN2 Label_0192AC56
//  #10 //050   ----------------------------------------
 BYTE   PAN   c_v-18
 BYTE   VOL   26*KnightOathArranged_mvl/mxv
 BYTE   PAN   c_v-18
 BYTE   VOL   26*KnightOathArranged_mvl/mxv
 BYTE   PAN   c_v-18
 BYTE   VOL   26*KnightOathArranged_mvl/mxv
 BYTE   BEND   c_v+0
 BYTE   FINE

//**************** Track 11 (Midi-Chn.10) ****************//

KnightOathArranged_011:
//  #11 //000   ----------------------------------------
 BYTE   KEYSH   KnightOathArranged_key+0
Label_019AAE72:
 BYTE   VOICE   127
 BYTE   PAN   c_v+0
 BYTE   VOL   32*KnightOathArranged_mvl/mxv
 BYTE   PAN   c_v+0
 BYTE   VOL   32*KnightOathArranged_mvl/mxv
 BYTE   PAN   c_v+0
 BYTE   VOL   32*KnightOathArranged_mvl/mxv
 BYTE   PAN   c_v+0
 BYTE   VOL   32*KnightOathArranged_mvl/mxv
 BYTE   BEND   c_v+0
 BYTE   W96
//  #11 //001   ----------------------------------------
 BYTE   W96
//  #11 //002   ----------------------------------------
 BYTE   W96
//  #11 //003   ----------------------------------------
 BYTE   W96
//  #11 //004   ----------------------------------------
 BYTE   W02
 BYTE   N03  En1  v032
 BYTE   W16
 BYTE   N05  En1  v036
 BYTE   W07
 BYTE   N03  En1  v040
 BYTE   W17
 BYTE   N05
 BYTE   W07
 BYTE   N03
 BYTE   W17
 BYTE   N05
 BYTE   W07
 BYTE   N03  En1  v044
 BYTE   W17
 BYTE   N05  En1  v052
 BYTE   W06
//  #11 //005   ----------------------------------------
 BYTE   W02
 BYTE   N03
 BYTE   W16
 BYTE   N05
 BYTE   W07
 BYTE   N03
 BYTE   W17
 BYTE   N05  En1  v056
 BYTE   W07
 BYTE   N03
 BYTE   W17
 BYTE   N05  En1  v060
 BYTE   W07
 BYTE   N03
 BYTE   W17
 BYTE   N05
 BYTE   W06
//  #11 //006   ----------------------------------------
 BYTE   W02
 BYTE   N03  En1  v064
 BYTE   W16
 BYTE   N05  En1  v068
 BYTE   W07
 BYTE   N03
 BYTE   W17
 BYTE   N05  En1  v072
 BYTE   W07
 BYTE   N03  En1  v076
 BYTE   W17
 BYTE   N05
 BYTE   W07
 BYTE   N03  En1  v080
 BYTE   W17
 BYTE   N05  En1  v084
 BYTE   W06
//  #11 //007   ----------------------------------------
 BYTE   W02
 BYTE   N03
 BYTE   W16
 BYTE   N05
 BYTE   W07
 BYTE   N03
 BYTE   W17
 BYTE   N05  En1  v088
 BYTE   W07
 BYTE   N03
 BYTE   W17
 BYTE   N05  En1  v096
 BYTE   W07
 BYTE   N03  En1  v100
 BYTE   W17
 BYTE   N05
 BYTE   W06
//  #11 //008   ----------------------------------------
Label_019AAEEE:
 BYTE   W02
 BYTE   N03  En1  v100
 BYTE   W16
 BYTE   N05  En1  v080
 BYTE   W07
 BYTE   N03  En1  v100
 BYTE   W17
 BYTE   N05  En1  v080
 BYTE   W07
 BYTE   N03  En1  v100
 BYTE   W17
 BYTE   N05  En1  v080
 BYTE   W07
 BYTE   N03  En1  v100
 BYTE   W17
 BYTE   N05  En1  v080
 BYTE   W06
 BYTE   PEND 
//  #11 //009   ----------------------------------------
Label_019AAF10:
 BYTE   W02
 BYTE   N03  En1  v100
 BYTE   W16
 BYTE   N05  En1  v080
 BYTE   W07
 BYTE   N03  En1  v100
 BYTE   W17
 BYTE   N05  En1  v080
 BYTE   W07
 BYTE   N03  En1  v100
 BYTE   W17
 BYTE   N05  En1  v080
 BYTE   W07
 BYTE   N03  En1  v100
 BYTE   W17
 BYTE   N05  En1  v076
 BYTE   W06
 BYTE   PEND 
//  #11 //010   ----------------------------------------
 BYTE   PATT
  POIN2 Label_019AAEEE
//  #11 //011   ----------------------------------------
 BYTE   W02
 BYTE   N03  En1  v100
 BYTE   W16
 BYTE   N05  En1  v080
 BYTE   W07
 BYTE   N03  En1  v100
 BYTE   W17
 BYTE   N05  En1  v080
 BYTE   W07
 BYTE   N03  En1  v100
 BYTE   W17
 BYTE   N05  En1  v076
 BYTE   W07
 BYTE   N03  En1  v100
 BYTE   W17
 BYTE   N05  En1  v072
 BYTE   W06
//  #11 //012   ----------------------------------------
 BYTE   W02
 BYTE   N03  En1  v100
 BYTE   W16
 BYTE   N05  En1  v076
 BYTE   W07
 BYTE   N03  En1  v100
 BYTE   W17
 BYTE   N05  En1  v072
 BYTE   W07
 BYTE   N03  En1  v100
 BYTE   W17
 BYTE   N05  En1  v072
 BYTE   W07
 BYTE   N03  En1  v100
 BYTE   W17
 BYTE   N05  En1  v076
 BYTE   W06
//  #11 //013   ----------------------------------------
 BYTE   W02
 BYTE   N03  En1  v100
 BYTE   W16
 BYTE   N05  En1  v076
 BYTE   W07
 BYTE   N03  En1  v100
 BYTE   W17
 BYTE   N05  En1  v072
 BYTE   W07
 BYTE   N03  En1  v100
 BYTE   W17
 BYTE   N05  En1  v072
 BYTE   W07
 BYTE   N03  En1  v100
 BYTE   W17
 BYTE   N05  En1  v068
 BYTE   W06
//  #11 //014   ----------------------------------------
 BYTE   W02
 BYTE   N03  En1  v100
 BYTE   W16
 BYTE   N05  En1  v072
 BYTE   W07
 BYTE   N03  En1  v100
 BYTE   W17
 BYTE   N05  En1  v072
 BYTE   W07
 BYTE   N03  En1  v100
 BYTE   W17
 BYTE   N05
 BYTE   W07
 BYTE   N03
 BYTE   W17
 BYTE   N05
 BYTE   W06
//  #11 //015   ----------------------------------------
Label_019AAFB5:
 BYTE   W02
 BYTE   N03  En1  v100
 BYTE   W16
 BYTE   N05
 BYTE   W07
 BYTE   N03
 BYTE   W17
 BYTE   N05
 BYTE   W07
 BYTE   N03
 BYTE   W17
 BYTE   N05
 BYTE   W07
 BYTE   N03
 BYTE   W17
 BYTE   N05
 BYTE   W06
 BYTE   PEND 
//  #11 //016   ----------------------------------------
 BYTE   PATT
  POIN2 Label_019AAEEE
//  #11 //017   ----------------------------------------
 BYTE   PATT
  POIN2 Label_019AAF10
//  #11 //018   ----------------------------------------
 BYTE   PATT
  POIN2 Label_019AAEEE
//  #11 //019   ----------------------------------------
 BYTE   W02
 BYTE   N03  En1  v100
 BYTE   W16
 BYTE   N05  En1  v080
 BYTE   W07
 BYTE   N03  En1  v100
 BYTE   W17
 BYTE   N05  En1  v080
 BYTE   W07
 BYTE   N03  En1  v100
 BYTE   W17
 BYTE   N05  En1  v076
 BYTE   W07
 BYTE   N03  En1  v100
 BYTE   W17
 BYTE   N05
 BYTE   W06
//  #11 //020   ----------------------------------------
 BYTE   PATT
  POIN2 Label_019AAFB5
//  #11 //021   ----------------------------------------
 BYTE   PATT
  POIN2 Label_019AAFB5
//  #11 //022   ----------------------------------------
 BYTE   PATT
  POIN2 Label_019AAFB5
//  #11 //023   ----------------------------------------
 BYTE   PATT
  POIN2 Label_019AAFB5
//  #11 //024   ----------------------------------------
Label_019AB00B:
 BYTE   W02
 BYTE   N03  En1  v100
 BYTE   W16
 BYTE   N05  En1  v080
 BYTE   W06
 BYTE   N13  Cs2  v127
 BYTE   W01
 BYTE   N03  En1  v100
 BYTE   W17
 BYTE   N05  En1  v080
 BYTE   W07
 BYTE   N03  En1  v100
 BYTE   W17
 BYTE   N05  En1  v080
 BYTE   W06
 BYTE   N13  Cs2  v127
 BYTE   W01
 BYTE   N03  En1  v100
 BYTE   W17
 BYTE   N05  En1  v080
 BYTE   W06
 BYTE   PEND 
//  #11 //025   ----------------------------------------
Label_019AB035:
 BYTE   W02
 BYTE   N03  En1  v100
 BYTE   W16
 BYTE   N05  En1  v080
 BYTE   W06
 BYTE   N13  Cs2  v127
 BYTE   W01
 BYTE   N03  En1  v100
 BYTE   W17
 BYTE   N05  En1  v080
 BYTE   W07
 BYTE   N03  En1  v100
 BYTE   W17
 BYTE   N05  En1  v080
 BYTE   W06
 BYTE   N13  Cs2  v127
 BYTE   W01
 BYTE   N03  En1  v100
 BYTE   W17
 BYTE   N05  En1  v076
 BYTE   W06
 BYTE   PEND 
//  #11 //026   ----------------------------------------
 BYTE   PATT
  POIN2 Label_019AB00B
//  #11 //027   ----------------------------------------
Label_019AB064:
 BYTE   W02
 BYTE   N03  En1  v100
 BYTE   W16
 BYTE   N05  En1  v080
 BYTE   W06
 BYTE   N13  Cs2  v127
 BYTE   W01
 BYTE   N03  En1  v100
 BYTE   W17
 BYTE   N05  En1  v080
 BYTE   W07
 BYTE   N03  En1  v100
 BYTE   W17
 BYTE   N05  En1  v076
 BYTE   W06
 BYTE   N13  Cs2  v127
 BYTE   W01
 BYTE   N03  En1  v100
 BYTE   W17
 BYTE   N05
 BYTE   W06
 BYTE   PEND 
//  #11 //028   ----------------------------------------
Label_019AB08C:
 BYTE   W02
 BYTE   N03  En1  v100
 BYTE   W16
 BYTE   N05
 BYTE   W06
 BYTE   N13  Cs2  v127
 BYTE   W01
 BYTE   N03  En1  v100
 BYTE   W17
 BYTE   N05
 BYTE   W07
 BYTE   N03
 BYTE   W17
 BYTE   N05
 BYTE   W06
 BYTE   N13  Cs2  v127
 BYTE   W01
 BYTE   N03  En1  v100
 BYTE   W17
 BYTE   N05
 BYTE   W06
 BYTE   PEND 
//  #11 //029   ----------------------------------------
 BYTE   PATT
  POIN2 Label_019AB08C
//  #11 //030   ----------------------------------------
 BYTE   PATT
  POIN2 Label_019AB08C
//  #11 //031   ----------------------------------------
 BYTE   PATT
  POIN2 Label_019AB08C
//  #11 //032   ----------------------------------------
 BYTE   PATT
  POIN2 Label_019AB00B
//  #11 //033   ----------------------------------------
 BYTE   PATT
  POIN2 Label_019AB035
//  #11 //034   ----------------------------------------
 BYTE   PATT
  POIN2 Label_019AB00B
//  #11 //035   ----------------------------------------
 BYTE   PATT
  POIN2 Label_019AB064
//  #11 //036   ----------------------------------------
 BYTE   PATT
  POIN2 Label_019AB08C
//  #11 //037   ----------------------------------------
 BYTE   PATT
  POIN2 Label_019AB08C
//  #11 //038   ----------------------------------------
Label_019AB0D9:
 BYTE   W02
 BYTE   N03  En1  v100
 BYTE   W16
 BYTE   N05
 BYTE   W06
 BYTE   N13  Ds2  v127
 BYTE   W01
 BYTE   N03  En1  v100
 BYTE   W17
 BYTE   N05
 BYTE   W07
 BYTE   N03
 BYTE   W17
 BYTE   N05
 BYTE   W06
 BYTE   N13  Ds2  v127
 BYTE   W01
 BYTE   N03  En1  v100
 BYTE   W17
 BYTE   N05
 BYTE   W06
 BYTE   PEND 
//  #11 //039   ----------------------------------------
 BYTE   PATT
  POIN2 Label_019AB0D9
//  #11 //040   ----------------------------------------
 BYTE   W96
//  #11 //041   ----------------------------------------
 BYTE   W96
//  #11 //042   ----------------------------------------
 BYTE   W96
//  #11 //043   ----------------------------------------
 BYTE   W96
//  #11 //044   ----------------------------------------
 BYTE   W96
//  #11 //045   ----------------------------------------
 BYTE   W96
//  #11 //046   ----------------------------------------
 BYTE   W96
//  #11 //047   ----------------------------------------
 BYTE   W96
//  #11 //048   ----------------------------------------
 BYTE   W96
//  #11 //049   ----------------------------------------
 BYTE   GoTo
  POIN2 Label_019AAE72
//  #11 //050   ----------------------------------------
 BYTE   PAN   c_v+0
 BYTE   VOL   32*KnightOathArranged_mvl/mxv
 BYTE   PAN   c_v+0
 BYTE   VOL   32*KnightOathArranged_mvl/mxv
 BYTE   PAN   c_v+0
 BYTE   VOL   32*KnightOathArranged_mvl/mxv
 BYTE   BEND   c_v+0
 BYTE   FINE

//******************************************************//
	ALIGN 4

KnightOathArranged:
	BYTE	11	// NumTrks
	BYTE	0	// NumBlks
	BYTE	KnightOathArranged_pri	// Priority
	BYTE	KnightOathArranged_rev	// Reverb.
    
	POIN2	KnightOathArranged_grp
    
	POIN2	KnightOathArranged_001
	POIN2	KnightOathArranged_002
	POIN2	KnightOathArranged_003
	POIN2	KnightOathArranged_004
	POIN2	KnightOathArranged_005
	POIN2	KnightOathArranged_006
	POIN2	KnightOathArranged_007
	POIN2	KnightOathArranged_008
	POIN2	KnightOathArranged_009
	POIN2	KnightOathArranged_010
	POIN2	KnightOathArranged_011

	
