//Event file generated from Sappy .s format.
	#include "MPlayDef.event"

	#define	songC1_grp  voicegroup001
	#define	songC1_pri  0
	#define	songC1_rev  0
	#define	songC1_mvl  127
	#define	songC1_key  0
	#define	songC1_tbs  1
	#define	songC1_exg  0
	#define	songC1_cmp  1

	// .rodata
	//	songC1
	ALIGN 4


//**************** Track 1 (Midi-Chn.0) ****************//

songC1_001:
// 000   ----------------------------------------
 BYTE   KEYSH   songC1_key+0
 BYTE   TEMPO   240*songC1_tbs/2
 BYTE   VOICE   48
 BYTE   PAN   c_v+31
 BYTE   VOL   34*songC1_mvl/mxv
 BYTE   PAN   c_v+31
 BYTE   VOL   34*songC1_mvl/mxv
 BYTE   W18
 BYTE   W06
Label_0_0146EF90:
 BYTE   TEMPO   120*songC1_tbs/2
 BYTE   N48  Gn3  v127
 BYTE   W48
 BYTE   N96  Gn4
 BYTE   W24
// 001   ----------------------------------------
 BYTE   W72
 BYTE   N24  Fn4
 BYTE   W24
// 002   ----------------------------------------
 BYTE   En4
 BYTE   W24
 BYTE   N48  Dn4
 BYTE   W48
 BYTE   N92  An3
 BYTE   W24
// 003   ----------------------------------------
 BYTE   W72
 BYTE   N24
 BYTE   W24
// 004   ----------------------------------------
 BYTE   Bn3
 BYTE   W24
 BYTE   N48  Cn4
 BYTE   W48
 BYTE   N96  Fn4
 BYTE   W24
// 005   ----------------------------------------
 BYTE   W72
 BYTE   N24  En4
 BYTE   W24
// 006   ----------------------------------------
 BYTE   Dn4
 BYTE   W24
 BYTE   N96  En4
 BYTE   W72
// 007   ----------------------------------------
 BYTE   W24
 BYTE   Dn4
 BYTE   W72
// 008   ----------------------------------------
 BYTE   W24
 BYTE   N48  Gn2
 BYTE   N44  Gn3
 BYTE   W48
 BYTE   N96
 BYTE   N96  Gn4
 BYTE   W24
// 009   ----------------------------------------
Label_0_0146EFC6:
 BYTE   W72
 BYTE   N24  Fn3  v127
 BYTE   N24  Fn4
 BYTE   W24
 BYTE   PEND 
// 010   ----------------------------------------
Label_0_0146EFCE:
 BYTE   N24  En3  v127
 BYTE   N24  En4
 BYTE   W24
 BYTE   N48  Dn3
 BYTE   N48  Dn4
 BYTE   W48
 BYTE   N92  An3
 BYTE   N96  An4
 BYTE   W24
 BYTE   PEND 
// 011   ----------------------------------------
Label_0_0146EFDF:
 BYTE   W72
 BYTE   N24  An2  v127
 BYTE   N24  An3
 BYTE   W24
 BYTE   PEND 
// 012   ----------------------------------------
Label_0_0146EFE7:
 BYTE   N24  Bn2  v127
 BYTE   N24  Bn3
 BYTE   W24
 BYTE   N48  Cn3
 BYTE   N48  Cn4
 BYTE   W48
 BYTE   N96  Fn3
 BYTE   N96  Fn4
 BYTE   W24
 BYTE   PEND 
// 013   ----------------------------------------
 BYTE   W72
 BYTE   N24  En3
 BYTE   N24  En4
 BYTE   W24
// 014   ----------------------------------------
 BYTE   Dn3
 BYTE   N24  Dn4
 BYTE   W24
 BYTE   N96  En3
 BYTE   N96  En4
 BYTE   W72
// 015   ----------------------------------------
 BYTE   W24
 BYTE   N48  Dn3
 BYTE   N48  Dn4
 BYTE   W48
 BYTE   N16  Gn3
 BYTE   N16  Gn4
 BYTE   W16
 BYTE   An3
 BYTE   N16  An4
 BYTE   W08
// 016   ----------------------------------------
 BYTE   W08
 BYTE   Bn3
 BYTE   N16  Bn4
 BYTE   W16
 BYTE   N96  Cn4
 BYTE   N96  Cn5
 BYTE   W72
// 017   ----------------------------------------
 BYTE   W24
 BYTE   N44  Gn3
 BYTE   N44  Gn4
 BYTE   W48
 BYTE   N16  Gn3
 BYTE   N16  Gn4
 BYTE   W16
 BYTE   Fn3
 BYTE   N16  Fn4
 BYTE   W08
// 018   ----------------------------------------
 BYTE   W08
 BYTE   En3
 BYTE   N16  En4
 BYTE   W16
 BYTE   N48  Fs3
 BYTE   N48  Fs4
 BYTE   W48
 BYTE   N96  Cn4
 BYTE   N96  Cn5
 BYTE   W24
// 019   ----------------------------------------
 BYTE   W72
 BYTE   N24  Dn3
 BYTE   N24  Dn4
 BYTE   W24
// 020   ----------------------------------------
 BYTE   En3
 BYTE   N24  En4
 BYTE   W24
 BYTE   N48  Fn3
 BYTE   N48  Fn4
 BYTE   W48
 BYTE   N96  Cn4
 BYTE   N96  Cn5
 BYTE   W24
// 021   ----------------------------------------
 BYTE   W72
 BYTE   N24  Bn3
 BYTE   N24  Bn4
 BYTE   W24
// 022   ----------------------------------------
 BYTE   An3
 BYTE   N24  An4
 BYTE   W24
 BYTE   N96  Gn3
 BYTE   N96  Gn4
 BYTE   W72
// 023   ----------------------------------------
 BYTE   W24
 BYTE   N36  Dn3
 BYTE   N36  Dn4
 BYTE   W36
 BYTE   En3
 BYTE   N36  En4
 BYTE   W36
// 024   ----------------------------------------
 BYTE   N24  Dn3
 BYTE   N24  Dn4
 BYTE   W24
 BYTE   N48  Cn3
 BYTE   N48  Cn4
 BYTE   W48
 BYTE   N96  Gn3
 BYTE   N96  Gn4
 BYTE   W24
// 025   ----------------------------------------
 BYTE   PATT
  POIN2 Label_0_0146EFC6
// 026   ----------------------------------------
 BYTE   PATT
  POIN2 Label_0_0146EFCE
// 027   ----------------------------------------
 BYTE   PATT
  POIN2 Label_0_0146EFDF
// 028   ----------------------------------------
 BYTE   PATT
  POIN2 Label_0_0146EFE7
// 029   ----------------------------------------
 BYTE   W72
 BYTE   N24  En3  v127
 BYTE   N24  En4
 BYTE   W24
// 030   ----------------------------------------
 BYTE   Dn3
 BYTE   N24  Dn4
 BYTE   W24
 BYTE   TIE  En3
 BYTE   TIE  En4
 BYTE   W72
// 031   ----------------------------------------
 BYTE   W96
// 032   ----------------------------------------
 BYTE   W24
 BYTE   EOT
 BYTE   En3  v076
 BYTE   W72
// 033   ----------------------------------------
 BYTE   W96
// 034   ----------------------------------------
 BYTE   W96
// 035   ----------------------------------------
 BYTE   W96
// 036   ----------------------------------------
 BYTE   W96
// 037   ----------------------------------------
 BYTE   W96
// 038   ----------------------------------------
 BYTE   W96
// 039   ----------------------------------------
 BYTE   W96
// 040   ----------------------------------------
 BYTE   W96
// 041   ----------------------------------------
 BYTE   W96
// 042   ----------------------------------------
 BYTE   W96
// 043   ----------------------------------------
 BYTE   W96
// 044   ----------------------------------------
 BYTE   W96
// 045   ----------------------------------------
 BYTE   W96
// 046   ----------------------------------------
 BYTE   W96
// 047   ----------------------------------------
 BYTE   W96
// 048   ----------------------------------------
 BYTE   W24
 BYTE   GoTo
  POIN2 Label_0_0146EF90
 BYTE   FINE

//**************** Track 2 (Midi-Chn.1) ****************//

songC1_002:
// 000   ----------------------------------------
 BYTE   KEYSH   songC1_key+0
 BYTE   VOICE   49
 BYTE   PAN   c_v+18
 BYTE   VOL   37*songC1_mvl/mxv
 BYTE   W18
 BYTE   W06
Label_1_0146F0C4:
 BYTE   TIE  Cn2  v127
 BYTE   W72
// 001   ----------------------------------------
 BYTE   W96
// 002   ----------------------------------------
 BYTE   W24
 BYTE   EOT
 BYTE   TIE  Dn2
 BYTE   W72
// 003   ----------------------------------------
 BYTE   W96
// 004   ----------------------------------------
 BYTE   W24
 BYTE   EOT
 BYTE   TIE  Fn2
 BYTE   W72
// 005   ----------------------------------------
 BYTE   W96
// 006   ----------------------------------------
 BYTE   W24
 BYTE   EOT
 BYTE   N96  Cn2
 BYTE   W72
// 007   ----------------------------------------
 BYTE   W24
 BYTE   Gn1
 BYTE   W72
// 008   ----------------------------------------
Label_1_0146F0DD:
 BYTE   W24
 BYTE   TIE  Cn2  v127
 BYTE   W72
 BYTE   PEND 
// 009   ----------------------------------------
 BYTE   W96
// 010   ----------------------------------------
 BYTE   W24
 BYTE   EOT
 BYTE   TIE  Dn2
 BYTE   W72
// 011   ----------------------------------------
 BYTE   W96
// 012   ----------------------------------------
 BYTE   W24
 BYTE   EOT
 BYTE   TIE  Fn2
 BYTE   W72
// 013   ----------------------------------------
 BYTE   W96
// 014   ----------------------------------------
 BYTE   W24
 BYTE   EOT
 BYTE   N96  Cn2
 BYTE   W72
// 015   ----------------------------------------
 BYTE   W24
 BYTE   Gn1
 BYTE   W72
// 016   ----------------------------------------
 BYTE   PATT
  POIN2 Label_1_0146F0DD
// 017   ----------------------------------------
 BYTE   W96
// 018   ----------------------------------------
 BYTE   W24
 BYTE   EOT
 BYTE   Cn2
 BYTE   TIE  Dn2  v127
 BYTE   W72
// 019   ----------------------------------------
 BYTE   W96
// 020   ----------------------------------------
 BYTE   W24
 BYTE   EOT
 BYTE   TIE  Fn2
 BYTE   W72
// 021   ----------------------------------------
 BYTE   W96
// 022   ----------------------------------------
 BYTE   W24
 BYTE   EOT
 BYTE   N96  Cn2
 BYTE   W72
// 023   ----------------------------------------
 BYTE   W24
 BYTE   Gn1
 BYTE   W72
// 024   ----------------------------------------
 BYTE   PATT
  POIN2 Label_1_0146F0DD
// 025   ----------------------------------------
 BYTE   W96
// 026   ----------------------------------------
 BYTE   W24
 BYTE   EOT
 BYTE   Cn2
 BYTE   TIE  Dn2  v127
 BYTE   W72
// 027   ----------------------------------------
 BYTE   W96
// 028   ----------------------------------------
 BYTE   W24
 BYTE   EOT
 BYTE   TIE  Fn2
 BYTE   W72
// 029   ----------------------------------------
 BYTE   W96
// 030   ----------------------------------------
 BYTE   W24
 BYTE   EOT
 BYTE   TIE  Cn2
 BYTE   W72
// 031   ----------------------------------------
 BYTE   W96
// 032   ----------------------------------------
 BYTE   W24
 BYTE   EOT
 BYTE   TIE  An1
 BYTE   W72
// 033   ----------------------------------------
 BYTE   W96
// 034   ----------------------------------------
 BYTE   W24
 BYTE   EOT
 BYTE   TIE  Dn2
 BYTE   W72
// 035   ----------------------------------------
 BYTE   W96
// 036   ----------------------------------------
 BYTE   EOT
Label_1_0146F13B:
 BYTE   N24  En2  v127
 BYTE   W24
 BYTE   TIE  Fn2
 BYTE   W72
 BYTE   PEND 
// 037   ----------------------------------------
 BYTE   W96
// 038   ----------------------------------------
 BYTE   W24
 BYTE   EOT
 BYTE   TIE  Cn2
 BYTE   W72
// 039   ----------------------------------------
 BYTE   W72
 BYTE   EOT
 BYTE   N48  Bn1
 BYTE   W24
// 040   ----------------------------------------
 BYTE   W24
 BYTE   TIE  An1
 BYTE   W72
// 041   ----------------------------------------
 BYTE   W96
// 042   ----------------------------------------
 BYTE   W24
 BYTE   EOT
 BYTE   TIE  Dn2
 BYTE   W72
// 043   ----------------------------------------
 BYTE   W96
// 044   ----------------------------------------
 BYTE   EOT
// 045   ----------------------------------------
 BYTE   PATT
  POIN2 Label_1_0146F13B
// 046   ----------------------------------------
 BYTE   W96
// 047   ----------------------------------------
 BYTE   W24
 BYTE   EOT
 BYTE   Fn2
 BYTE   TIE  Gn2  v127
 BYTE   W72
// 048   ----------------------------------------
 BYTE   W96
// 049   ----------------------------------------
 BYTE   W24
 BYTE   EOT
 BYTE   GoTo
  POIN2 Label_1_0146F0C4
 BYTE   FINE

//**************** Track 3 (Midi-Chn.2) ****************//

songC1_003:
// 000   ----------------------------------------
 BYTE   KEYSH   songC1_key+0
 BYTE   VOICE   35
 BYTE   VOL   22*songC1_mvl/mxv
 BYTE   PAN   c_v+0
 BYTE   W18
 BYTE   W06
Label_2_0146F17A:
 BYTE   N12  Cn2  v127
 BYTE   W12
 BYTE   N12
 BYTE   W12
 BYTE   N12
 BYTE   W12
 BYTE   N12
 BYTE   W12
 BYTE   N12
 BYTE   W12
 BYTE   N12
 BYTE   W12
// 001   ----------------------------------------
Label_2_0146F188:
 BYTE   N12  Cn2  v127
 BYTE   W12
 BYTE   N12
 BYTE   W12
 BYTE   N12
 BYTE   W12
 BYTE   N12
 BYTE   W12
 BYTE   N12
 BYTE   W12
 BYTE   N12
 BYTE   W12
 BYTE   N12
 BYTE   W12
 BYTE   N12
 BYTE   W12
 BYTE   PEND 
// 002   ----------------------------------------
Label_2_0146F19B:
 BYTE   N12  Cn2  v127
 BYTE   W12
 BYTE   N12
 BYTE   W12
 BYTE   Dn2
 BYTE   W12
 BYTE   N12
 BYTE   W12
 BYTE   N12
 BYTE   W12
 BYTE   N12
 BYTE   W12
 BYTE   N12
 BYTE   W12
 BYTE   N12
 BYTE   W12
 BYTE   PEND 
// 003   ----------------------------------------
Label_2_0146F1AE:
 BYTE   N12  Dn2  v127
 BYTE   W12
 BYTE   N12
 BYTE   W12
 BYTE   N12
 BYTE   W12
 BYTE   N12
 BYTE   W12
 BYTE   N12
 BYTE   W12
 BYTE   N12
 BYTE   W12
 BYTE   N12
 BYTE   W12
 BYTE   N12
 BYTE   W12
 BYTE   PEND 
// 004   ----------------------------------------
Label_2_0146F1C1:
 BYTE   N12  Dn2  v127
 BYTE   W12
 BYTE   N12
 BYTE   W12
 BYTE   Fn2
 BYTE   W12
 BYTE   N12
 BYTE   W12
 BYTE   N12
 BYTE   W12
 BYTE   N12
 BYTE   W12
 BYTE   N12
 BYTE   W12
 BYTE   N12
 BYTE   W12
 BYTE   PEND 
// 005   ----------------------------------------
Label_2_0146F1D4:
 BYTE   N12  Fn2  v127
 BYTE   W12
 BYTE   N12
 BYTE   W12
 BYTE   N12
 BYTE   W12
 BYTE   N12
 BYTE   W12
 BYTE   N12
 BYTE   W12
 BYTE   N12
 BYTE   W12
 BYTE   N12
 BYTE   W12
 BYTE   N12
 BYTE   W12
 BYTE   PEND 
// 006   ----------------------------------------
Label_2_0146F1E7:
 BYTE   N12  Fn2  v127
 BYTE   W12
 BYTE   N12
 BYTE   W12
 BYTE   Cn2
 BYTE   W12
 BYTE   N12
 BYTE   W12
 BYTE   N12
 BYTE   W12
 BYTE   N12
 BYTE   W12
 BYTE   N12
 BYTE   W12
 BYTE   N12
 BYTE   W12
 BYTE   PEND 
// 007   ----------------------------------------
 BYTE   N12
 BYTE   W12
 BYTE   N12
 BYTE   W12
 BYTE   Gn1
 BYTE   W12
 BYTE   N12
 BYTE   W12
 BYTE   N12
 BYTE   W12
 BYTE   N12
 BYTE   W12
 BYTE   Gn2
 BYTE   W12
 BYTE   Dn2
 BYTE   W12
// 008   ----------------------------------------
 BYTE   Bn1
 BYTE   W12
 BYTE   Dn2
 BYTE   W12
 BYTE   Cn2
 BYTE   W12
 BYTE   N12
 BYTE   W12
 BYTE   N12
 BYTE   W12
 BYTE   N12
 BYTE   W12
 BYTE   N12
 BYTE   W12
 BYTE   N12
 BYTE   W12
// 009   ----------------------------------------
 BYTE   PATT
  POIN2 Label_2_0146F188
// 010   ----------------------------------------
 BYTE   PATT
  POIN2 Label_2_0146F19B
// 011   ----------------------------------------
 BYTE   PATT
  POIN2 Label_2_0146F1AE
// 012   ----------------------------------------
 BYTE   PATT
  POIN2 Label_2_0146F1C1
// 013   ----------------------------------------
 BYTE   PATT
  POIN2 Label_2_0146F1D4
// 014   ----------------------------------------
 BYTE   PATT
  POIN2 Label_2_0146F1E7
// 015   ----------------------------------------
Label_2_0146F238:
 BYTE   N12  Cn2  v127
 BYTE   W12
 BYTE   N12
 BYTE   W12
 BYTE   Gn1
 BYTE   W12
 BYTE   N12
 BYTE   W12
 BYTE   N12
 BYTE   W12
 BYTE   N12
 BYTE   W12
 BYTE   N12
 BYTE   W12
 BYTE   Gn2
 BYTE   W12
 BYTE   PEND 
// 016   ----------------------------------------
Label_2_0146F24B:
 BYTE   N12  Dn2  v127
 BYTE   W12
 BYTE   Gn1
 BYTE   W12
 BYTE   Cn2
 BYTE   W12
 BYTE   N12
 BYTE   W12
 BYTE   N12
 BYTE   W12
 BYTE   N12
 BYTE   W12
 BYTE   N12
 BYTE   W12
 BYTE   N12
 BYTE   W12
 BYTE   PEND 
// 017   ----------------------------------------
 BYTE   PATT
  POIN2 Label_2_0146F188
// 018   ----------------------------------------
 BYTE   PATT
  POIN2 Label_2_0146F19B
// 019   ----------------------------------------
 BYTE   PATT
  POIN2 Label_2_0146F1AE
// 020   ----------------------------------------
 BYTE   PATT
  POIN2 Label_2_0146F1C1
// 021   ----------------------------------------
 BYTE   PATT
  POIN2 Label_2_0146F1D4
// 022   ----------------------------------------
 BYTE   PATT
  POIN2 Label_2_0146F1E7
// 023   ----------------------------------------
 BYTE   PATT
  POIN2 Label_2_0146F238
// 024   ----------------------------------------
 BYTE   PATT
  POIN2 Label_2_0146F24B
// 025   ----------------------------------------
 BYTE   N12  Cn2  v127
 BYTE   W12
 BYTE   Gn1
 BYTE   W12
 BYTE   Cn2
 BYTE   W12
 BYTE   N12
 BYTE   W12
 BYTE   N12
 BYTE   W12
 BYTE   N12
 BYTE   W12
 BYTE   N12
 BYTE   W12
 BYTE   N12
 BYTE   W12
// 026   ----------------------------------------
 BYTE   N12
 BYTE   W12
 BYTE   Cs2
 BYTE   W12
 BYTE   Dn2
 BYTE   W12
 BYTE   N12
 BYTE   W12
 BYTE   N12
 BYTE   W12
 BYTE   N12
 BYTE   W12
 BYTE   N12
 BYTE   W12
 BYTE   N12
 BYTE   W12
// 027   ----------------------------------------
 BYTE   N12
 BYTE   W12
 BYTE   An1
 BYTE   W12
 BYTE   Dn2
 BYTE   W12
 BYTE   N12
 BYTE   W12
 BYTE   N12
 BYTE   W12
 BYTE   N12
 BYTE   W12
 BYTE   N12
 BYTE   W12
 BYTE   N12
 BYTE   W12
// 028   ----------------------------------------
Label_2_0146F2B8:
 BYTE   N12  Dn2  v127
 BYTE   W12
 BYTE   En2
 BYTE   W12
 BYTE   Fn2
 BYTE   W12
 BYTE   N12
 BYTE   W12
 BYTE   N12
 BYTE   W12
 BYTE   N12
 BYTE   W12
 BYTE   N12
 BYTE   W12
 BYTE   N12
 BYTE   W12
 BYTE   PEND 
// 029   ----------------------------------------
 BYTE   PATT
  POIN2 Label_2_0146F1D4
// 030   ----------------------------------------
 BYTE   PATT
  POIN2 Label_2_0146F1E7
// 031   ----------------------------------------
 BYTE   N12  Cn2  v127
 BYTE   W12
 BYTE   N12
 BYTE   W12
 BYTE   N12
 BYTE   W12
 BYTE   N12
 BYTE   W12
 BYTE   N12
 BYTE   W12
 BYTE   N12
 BYTE   W12
 BYTE   N12
 BYTE   W12
 BYTE   Gn1
 BYTE   W12
// 032   ----------------------------------------
 BYTE   Cn2
 BYTE   W12
 BYTE   Bn1
 BYTE   W12
 BYTE   An1
 BYTE   W12
 BYTE   N12
 BYTE   W12
 BYTE   N12
 BYTE   W12
 BYTE   N12
 BYTE   W12
 BYTE   N12
 BYTE   W12
 BYTE   N12
 BYTE   W12
// 033   ----------------------------------------
Label_2_0146F2F7:
 BYTE   N12  An1  v127
 BYTE   W12
 BYTE   N12
 BYTE   W12
 BYTE   N12
 BYTE   W12
 BYTE   N12
 BYTE   W12
 BYTE   N12
 BYTE   W12
 BYTE   N12
 BYTE   W12
 BYTE   N12
 BYTE   W12
 BYTE   N12
 BYTE   W12
 BYTE   PEND 
// 034   ----------------------------------------
Label_2_0146F30A:
 BYTE   N12  An1  v127
 BYTE   W12
 BYTE   N12
 BYTE   W12
 BYTE   Dn2
 BYTE   W12
 BYTE   N12
 BYTE   W12
 BYTE   N12
 BYTE   W12
 BYTE   N12
 BYTE   W12
 BYTE   N12
 BYTE   W12
 BYTE   N12
 BYTE   W12
 BYTE   PEND 
// 035   ----------------------------------------
 BYTE   PATT
  POIN2 Label_2_0146F1AE
// 036   ----------------------------------------
 BYTE   PATT
  POIN2 Label_2_0146F2B8
// 037   ----------------------------------------
 BYTE   PATT
  POIN2 Label_2_0146F1D4
// 038   ----------------------------------------
 BYTE   PATT
  POIN2 Label_2_0146F1E7
// 039   ----------------------------------------
 BYTE   N12  Cn2  v127
 BYTE   W12
 BYTE   N12
 BYTE   W12
 BYTE   N12
 BYTE   W12
 BYTE   N12
 BYTE   W12
 BYTE   N12
 BYTE   W12
 BYTE   N12
 BYTE   W12
 BYTE   Bn1
 BYTE   W12
 BYTE   N12
 BYTE   W12
// 040   ----------------------------------------
 BYTE   N12
 BYTE   W12
 BYTE   N12
 BYTE   W12
 BYTE   An1
 BYTE   W12
 BYTE   N12
 BYTE   W12
 BYTE   N12
 BYTE   W12
 BYTE   N12
 BYTE   W12
 BYTE   N12
 BYTE   W12
 BYTE   N12
 BYTE   W12
// 041   ----------------------------------------
 BYTE   PATT
  POIN2 Label_2_0146F2F7
// 042   ----------------------------------------
 BYTE   PATT
  POIN2 Label_2_0146F30A
// 043   ----------------------------------------
 BYTE   PATT
  POIN2 Label_2_0146F1AE
// 044   ----------------------------------------
 BYTE   PATT
  POIN2 Label_2_0146F2B8
// 045   ----------------------------------------
 BYTE   PATT
  POIN2 Label_2_0146F1D4
// 046   ----------------------------------------
 BYTE   N12  Fn2  v127
 BYTE   W12
 BYTE   N12
 BYTE   W12
 BYTE   Gn2
 BYTE   W12
 BYTE   N12
 BYTE   W12
 BYTE   N12
 BYTE   W12
 BYTE   N12
 BYTE   W12
 BYTE   N12
 BYTE   W12
 BYTE   N12
 BYTE   W12
// 047   ----------------------------------------
 BYTE   N12
 BYTE   W12
 BYTE   N12
 BYTE   W12
 BYTE   N12
 BYTE   W12
 BYTE   Dn2
 BYTE   W12
 BYTE   Bn1
 BYTE   W12
 BYTE   Dn2
 BYTE   W12
 BYTE   Gn2
 BYTE   W12
 BYTE   Dn2
 BYTE   W12
// 048   ----------------------------------------
 BYTE   Bn2
 BYTE   W12
 BYTE   Gn2
 BYTE   W12
 BYTE   GoTo
  POIN2 Label_2_0146F17A
 BYTE   FINE

//**************** Track 4 (Midi-Chn.3) ****************//

songC1_004:
// 000   ----------------------------------------
 BYTE   KEYSH   songC1_key+0
 BYTE   VOICE   81
 BYTE   PAN   c_v+15
 BYTE   VOL   19*songC1_mvl/mxv
 BYTE   PAN   c_v+9
 BYTE   VOL   19*songC1_mvl/mxv
 BYTE   W18
 BYTE   W06
Label_3_0146F3A6:
 BYTE   W12
 BYTE   N06  Cn4  v127
 BYTE   N06  En4
 BYTE   W12
 BYTE   Cn4
 BYTE   N06  En4
 BYTE   W24
 BYTE   Cn4
 BYTE   N06  En4
 BYTE   W12
 BYTE   Cn4
 BYTE   N06  En4
 BYTE   W12
// 001   ----------------------------------------
Label_3_0146F3B9:
 BYTE   W12
 BYTE   N06  Cn4  v127
 BYTE   N06  En4
 BYTE   W24
 BYTE   Cn4
 BYTE   N06  En4
 BYTE   W12
 BYTE   Cn4
 BYTE   N06  En4
 BYTE   W24
 BYTE   N06
 BYTE   N06  Gn4
 BYTE   W12
 BYTE   En4
 BYTE   N06  Gn4
 BYTE   W12
 BYTE   PEND 
// 002   ----------------------------------------
Label_3_0146F3D1:
 BYTE   W12
 BYTE   N06  En4  v127
 BYTE   N06  Gn4
 BYTE   W24
 BYTE   Fs4
 BYTE   N06  An4
 BYTE   W12
 BYTE   Fs4
 BYTE   N06  An4
 BYTE   W24
 BYTE   Fs4
 BYTE   N06  An4
 BYTE   W12
 BYTE   Fs4
 BYTE   N06  An4
 BYTE   W12
 BYTE   PEND 
// 003   ----------------------------------------
Label_3_0146F3E9:
 BYTE   W12
 BYTE   N06  Fs4  v127
 BYTE   N06  An4
 BYTE   W24
 BYTE   Fs4
 BYTE   N06  An4
 BYTE   W12
 BYTE   Fs4
 BYTE   N06  An4
 BYTE   W24
 BYTE   Fs4
 BYTE   N06  An4
 BYTE   W12
 BYTE   Fs4
 BYTE   N06  An4
 BYTE   W12
 BYTE   PEND 
// 004   ----------------------------------------
Label_3_0146F401:
 BYTE   W12
 BYTE   N06  Fs4  v127
 BYTE   N06  An4
 BYTE   W24
 BYTE   Fn4
 BYTE   N06  An4
 BYTE   W12
 BYTE   Fn4
 BYTE   N06  An4
 BYTE   W24
 BYTE   Fn4
 BYTE   N06  An4
 BYTE   W12
 BYTE   Fn4
 BYTE   N06  An4
 BYTE   W12
 BYTE   PEND 
// 005   ----------------------------------------
Label_3_0146F419:
 BYTE   W12
 BYTE   N06  Fn4  v127
 BYTE   N06  An4
 BYTE   W24
 BYTE   Fn4
 BYTE   N06  An4
 BYTE   W12
 BYTE   Fn4
 BYTE   N06  An4
 BYTE   W24
 BYTE   Fn4
 BYTE   N06  An4
 BYTE   W12
 BYTE   Fn4
 BYTE   N06  An4
 BYTE   W12
 BYTE   PEND 
// 006   ----------------------------------------
Label_3_0146F431:
 BYTE   W12
 BYTE   N06  Fn4  v127
 BYTE   N06  An4
 BYTE   W24
 BYTE   En4
 BYTE   N06  Gn4
 BYTE   W12
 BYTE   En4
 BYTE   N06  Gn4
 BYTE   W24
 BYTE   En4
 BYTE   N06  Gn4
 BYTE   W12
 BYTE   En4
 BYTE   N06  Gn4
 BYTE   W12
 BYTE   PEND 
// 007   ----------------------------------------
Label_3_0146F449:
 BYTE   W12
 BYTE   N06  En4  v127
 BYTE   N06  Gn4
 BYTE   W24
 BYTE   Dn4
 BYTE   N06  Gn4
 BYTE   W12
 BYTE   Dn4
 BYTE   N06  Gn4
 BYTE   W24
 BYTE   Dn4
 BYTE   N06  Gn4
 BYTE   W12
 BYTE   Dn4
 BYTE   N06  Gn4
 BYTE   W12
 BYTE   PEND 
// 008   ----------------------------------------
Label_3_0146F461:
 BYTE   W12
 BYTE   N06  Dn4  v127
 BYTE   N06  Gn4
 BYTE   W24
 BYTE   Cn4
 BYTE   N06  En4
 BYTE   W12
 BYTE   Cn4
 BYTE   N06  En4
 BYTE   W24
 BYTE   Cn4
 BYTE   N06  En4
 BYTE   W12
 BYTE   Cn4
 BYTE   N06  En4
 BYTE   W12
 BYTE   PEND 
// 009   ----------------------------------------
 BYTE   PATT
  POIN2 Label_3_0146F3B9
// 010   ----------------------------------------
 BYTE   PATT
  POIN2 Label_3_0146F3D1
// 011   ----------------------------------------
 BYTE   PATT
  POIN2 Label_3_0146F3E9
// 012   ----------------------------------------
 BYTE   PATT
  POIN2 Label_3_0146F401
// 013   ----------------------------------------
 BYTE   PATT
  POIN2 Label_3_0146F419
// 014   ----------------------------------------
 BYTE   PATT
  POIN2 Label_3_0146F431
// 015   ----------------------------------------
 BYTE   PATT
  POIN2 Label_3_0146F449
// 016   ----------------------------------------
 BYTE   PATT
  POIN2 Label_3_0146F461
// 017   ----------------------------------------
 BYTE   PATT
  POIN2 Label_3_0146F3B9
// 018   ----------------------------------------
 BYTE   PATT
  POIN2 Label_3_0146F3D1
// 019   ----------------------------------------
 BYTE   PATT
  POIN2 Label_3_0146F3E9
// 020   ----------------------------------------
 BYTE   PATT
  POIN2 Label_3_0146F401
// 021   ----------------------------------------
 BYTE   PATT
  POIN2 Label_3_0146F419
// 022   ----------------------------------------
 BYTE   PATT
  POIN2 Label_3_0146F431
// 023   ----------------------------------------
 BYTE   PATT
  POIN2 Label_3_0146F449
// 024   ----------------------------------------
 BYTE   PATT
  POIN2 Label_3_0146F461
// 025   ----------------------------------------
 BYTE   PATT
  POIN2 Label_3_0146F3B9
// 026   ----------------------------------------
 BYTE   PATT
  POIN2 Label_3_0146F3D1
// 027   ----------------------------------------
 BYTE   PATT
  POIN2 Label_3_0146F3E9
// 028   ----------------------------------------
 BYTE   PATT
  POIN2 Label_3_0146F401
// 029   ----------------------------------------
 BYTE   PATT
  POIN2 Label_3_0146F419
// 030   ----------------------------------------
 BYTE   PATT
  POIN2 Label_3_0146F431
// 031   ----------------------------------------
 BYTE   W12
 BYTE   N06  En4  v127
 BYTE   N06  Gn4
 BYTE   W24
 BYTE   En4
 BYTE   N06  Gn4
 BYTE   W12
 BYTE   En4
 BYTE   N06  Gn4
 BYTE   W24
 BYTE   En4
 BYTE   N06  Gn4
 BYTE   W12
 BYTE   En4
 BYTE   N06  Gn4
 BYTE   W12
// 032   ----------------------------------------
 BYTE   W12
 BYTE   En4
 BYTE   N06  Gn4
 BYTE   W24
 BYTE   Cn4
 BYTE   N06  En4
 BYTE   W12
 BYTE   Cn4
 BYTE   N06  En4
 BYTE   W24
 BYTE   Cn4
 BYTE   N06  En4
 BYTE   W12
 BYTE   Cn4
 BYTE   N06  En4
 BYTE   W12
// 033   ----------------------------------------
Label_3_0146F513:
 BYTE   W12
 BYTE   N06  Cn4  v127
 BYTE   N06  En4
 BYTE   W24
 BYTE   Cn4
 BYTE   N06  En4
 BYTE   W12
 BYTE   Cn4
 BYTE   N06  En4
 BYTE   W24
 BYTE   Cn4
 BYTE   N06  En4
 BYTE   W12
 BYTE   Cn4
 BYTE   N06  En4
 BYTE   W12
 BYTE   PEND 
// 034   ----------------------------------------
Label_3_0146F52B:
 BYTE   W12
 BYTE   N06  Cn4  v127
 BYTE   N06  En4
 BYTE   W24
 BYTE   Fs4
 BYTE   N06  An4
 BYTE   W12
 BYTE   Fs4
 BYTE   N06  An4
 BYTE   W24
 BYTE   Fs4
 BYTE   N06  An4
 BYTE   W12
 BYTE   Fs4
 BYTE   N06  An4
 BYTE   W12
 BYTE   PEND 
// 035   ----------------------------------------
 BYTE   PATT
  POIN2 Label_3_0146F3E9
// 036   ----------------------------------------
 BYTE   PATT
  POIN2 Label_3_0146F401
// 037   ----------------------------------------
 BYTE   PATT
  POIN2 Label_3_0146F419
// 038   ----------------------------------------
 BYTE   W12
 BYTE   N06  Fn4  v127
 BYTE   N06  An4
 BYTE   W24
 BYTE   Cn4
 BYTE   N06  En4
 BYTE   W12
 BYTE   Cn4
 BYTE   N06  En4
 BYTE   W24
 BYTE   Cn4
 BYTE   N06  En4
 BYTE   W12
 BYTE   Cn4
 BYTE   N06  En4
 BYTE   W12
// 039   ----------------------------------------
 BYTE   PATT
  POIN2 Label_3_0146F513
// 040   ----------------------------------------
 BYTE   PATT
  POIN2 Label_3_0146F513
// 041   ----------------------------------------
 BYTE   PATT
  POIN2 Label_3_0146F513
// 042   ----------------------------------------
 BYTE   PATT
  POIN2 Label_3_0146F52B
// 043   ----------------------------------------
 BYTE   PATT
  POIN2 Label_3_0146F3E9
// 044   ----------------------------------------
 BYTE   PATT
  POIN2 Label_3_0146F401
// 045   ----------------------------------------
 BYTE   PATT
  POIN2 Label_3_0146F419
// 046   ----------------------------------------
 BYTE   W12
 BYTE   N06  Fn4  v127
 BYTE   N06  An4
 BYTE   W24
 BYTE   Gn4
 BYTE   N06  Bn4
 BYTE   W12
 BYTE   Gn4
 BYTE   N06  Bn4
 BYTE   W24
 BYTE   Gn4
 BYTE   N06  Bn4
 BYTE   W12
 BYTE   Gn4
 BYTE   N06  Bn4
 BYTE   W12
// 047   ----------------------------------------
 BYTE   W12
 BYTE   Gn4
 BYTE   N06  Bn4
 BYTE   W24
 BYTE   Gn4
 BYTE   N06  Bn4
 BYTE   W12
 BYTE   Gn4
 BYTE   N06  Bn4
 BYTE   W24
 BYTE   Gn4
 BYTE   N06  Bn4
 BYTE   W12
 BYTE   Gn4
 BYTE   N06  Bn4
 BYTE   W12
// 048   ----------------------------------------
 BYTE   W12
 BYTE   Gn4
 BYTE   N06  Bn4
 BYTE   W06
 BYTE   W06
 BYTE   GoTo
  POIN2 Label_3_0146F3A6
 BYTE   FINE

//**************** Track 5 (Midi-Chn.4) ****************//

songC1_005:
// 000   ----------------------------------------
 BYTE   KEYSH   songC1_key+0
 BYTE   VOICE   24
 BYTE   PAN   c_v-31
 BYTE   VOL   22*songC1_mvl/mxv
 BYTE   PAN   c_v-22
 BYTE   VOL   22*songC1_mvl/mxv
 BYTE   PAN   c_v-19
 BYTE   VOL   22*songC1_mvl/mxv
 BYTE   W18
 BYTE   W06
Label_4_0146F5D6:
 BYTE   N24  Cn3  v127
 BYTE   N24  En3
 BYTE   W36
 BYTE   Cn3
 BYTE   N24  En3
 BYTE   W36
// 001   ----------------------------------------
Label_4_0146F5E0:
 BYTE   N24  Cn3  v127
 BYTE   N24  En3
 BYTE   W24
 BYTE   Cn3
 BYTE   N24  En3
 BYTE   W36
 BYTE   Cn3
 BYTE   N24  En3
 BYTE   W36
 BYTE   PEND 
// 002   ----------------------------------------
Label_4_0146F5EF:
 BYTE   N24  Cn3  v127
 BYTE   N24  En3
 BYTE   W24
 BYTE   Dn3
 BYTE   N24  Fs3
 BYTE   N24  An3
 BYTE   W36
 BYTE   Dn3
 BYTE   N24  Fs3
 BYTE   N24  An3
 BYTE   W36
 BYTE   PEND 
// 003   ----------------------------------------
Label_4_0146F602:
 BYTE   N24  Dn3  v127
 BYTE   N24  Fs3
 BYTE   N24  An3
 BYTE   W24
 BYTE   Fs3
 BYTE   N24  An3
 BYTE   W36
 BYTE   Fs3
 BYTE   N24  An3
 BYTE   W36
 BYTE   PEND 
// 004   ----------------------------------------
Label_4_0146F613:
 BYTE   N24  Fs3  v127
 BYTE   N24  An3
 BYTE   W24
 BYTE   Fn3
 BYTE   N24  An3
 BYTE   W36
 BYTE   Fn3
 BYTE   N24  An3
 BYTE   W36
 BYTE   PEND 
// 005   ----------------------------------------
Label_4_0146F622:
 BYTE   N24  Fn3  v127
 BYTE   N24  An3
 BYTE   W24
 BYTE   Fn3
 BYTE   N24  Bn3
 BYTE   W36
 BYTE   Fn3
 BYTE   N24  An3
 BYTE   W36
 BYTE   PEND 
// 006   ----------------------------------------
Label_4_0146F631:
 BYTE   N24  Fn3  v127
 BYTE   N24  An3
 BYTE   W24
 BYTE   En3
 BYTE   N24  Gn3
 BYTE   W36
 BYTE   Cn3
 BYTE   N24  En3
 BYTE   N24  Gn3
 BYTE   W36
 BYTE   PEND 
// 007   ----------------------------------------
Label_4_0146F642:
 BYTE   N24  Cn3  v127
 BYTE   N24  En3
 BYTE   N24  Gn3
 BYTE   W24
 BYTE   Bn2
 BYTE   N24  Dn3
 BYTE   N24  Gn3
 BYTE   W36
 BYTE   Bn2
 BYTE   N24  Dn3
 BYTE   W36
 BYTE   PEND 
// 008   ----------------------------------------
Label_4_0146F655:
 BYTE   N24  Bn2  v127
 BYTE   N24  Dn3
 BYTE   W24
 BYTE   Cn3
 BYTE   N24  En3
 BYTE   W36
 BYTE   Cn3
 BYTE   N24  En3
 BYTE   W36
 BYTE   PEND 
// 009   ----------------------------------------
 BYTE   PATT
  POIN2 Label_4_0146F5E0
// 010   ----------------------------------------
 BYTE   PATT
  POIN2 Label_4_0146F5EF
// 011   ----------------------------------------
 BYTE   PATT
  POIN2 Label_4_0146F602
// 012   ----------------------------------------
 BYTE   PATT
  POIN2 Label_4_0146F613
// 013   ----------------------------------------
 BYTE   PATT
  POIN2 Label_4_0146F622
// 014   ----------------------------------------
 BYTE   PATT
  POIN2 Label_4_0146F631
// 015   ----------------------------------------
 BYTE   PATT
  POIN2 Label_4_0146F642
// 016   ----------------------------------------
Label_4_0146F687:
 BYTE   N24  Bn2  v127
 BYTE   N24  Dn3
 BYTE   W24
 BYTE   Fn3
 BYTE   N24  An3
 BYTE   W36
 BYTE   Fn3
 BYTE   N24  An3
 BYTE   W36
 BYTE   PEND 
// 017   ----------------------------------------
 BYTE   PATT
  POIN2 Label_4_0146F622
// 018   ----------------------------------------
 BYTE   PATT
  POIN2 Label_4_0146F631
// 019   ----------------------------------------
 BYTE   PATT
  POIN2 Label_4_0146F642
// 020   ----------------------------------------
 BYTE   PATT
  POIN2 Label_4_0146F687
// 021   ----------------------------------------
 BYTE   PATT
  POIN2 Label_4_0146F622
// 022   ----------------------------------------
 BYTE   PATT
  POIN2 Label_4_0146F631
// 023   ----------------------------------------
 BYTE   PATT
  POIN2 Label_4_0146F642
// 024   ----------------------------------------
 BYTE   PATT
  POIN2 Label_4_0146F655
// 025   ----------------------------------------
 BYTE   PATT
  POIN2 Label_4_0146F5E0
// 026   ----------------------------------------
 BYTE   PATT
  POIN2 Label_4_0146F5EF
// 027   ----------------------------------------
 BYTE   PATT
  POIN2 Label_4_0146F602
// 028   ----------------------------------------
 BYTE   PATT
  POIN2 Label_4_0146F613
// 029   ----------------------------------------
 BYTE   PATT
  POIN2 Label_4_0146F622
// 030   ----------------------------------------
 BYTE   PATT
  POIN2 Label_4_0146F631
// 031   ----------------------------------------
 BYTE   N24  Cn3  v127
 BYTE   N24  En3
 BYTE   N24  Gn3
 BYTE   W24
 BYTE   Bn2
 BYTE   N24  Dn3
 BYTE   N24  Gn3
 BYTE   W36
 BYTE   Bn2
 BYTE   N24  Dn3
 BYTE   N24  Gn3
 BYTE   W36
// 032   ----------------------------------------
 BYTE   Bn2
 BYTE   N24  Dn3
 BYTE   N24  Gn3
 BYTE   W24
 BYTE   An2
 BYTE   N24  Cn3
 BYTE   N24  En3
 BYTE   W36
 BYTE   An2
 BYTE   N24  Cn3
 BYTE   N24  En3
 BYTE   W36
// 033   ----------------------------------------
Label_4_0146F702:
 BYTE   N24  An2  v127
 BYTE   N24  Cn3
 BYTE   N24  En3
 BYTE   W24
 BYTE   An2
 BYTE   N24  Cn3
 BYTE   N24  En3
 BYTE   W36
 BYTE   An2
 BYTE   N24  Cn3
 BYTE   N24  En3
 BYTE   W36
 BYTE   PEND 
// 034   ----------------------------------------
Label_4_0146F717:
 BYTE   N24  An2  v127
 BYTE   N24  Cn3
 BYTE   N24  En3
 BYTE   W24
 BYTE   Cn3
 BYTE   N24  Fs3
 BYTE   N24  An3
 BYTE   W36
 BYTE   Cn3
 BYTE   N24  Fs3
 BYTE   N24  An3
 BYTE   W36
 BYTE   PEND 
// 035   ----------------------------------------
Label_4_0146F72C:
 BYTE   N24  Cn3  v127
 BYTE   N24  Fs3
 BYTE   N24  An3
 BYTE   W24
 BYTE   Cn3
 BYTE   N24  Fs3
 BYTE   W36
 BYTE   Cn3
 BYTE   N24  Fs3
 BYTE   W36
 BYTE   PEND 
// 036   ----------------------------------------
 BYTE   Cn3
 BYTE   N24  Fs3
 BYTE   W24
 BYTE   Cn3
 BYTE   N24  Fn3
 BYTE   W36
 BYTE   Cn3
 BYTE   N24  Fn3
 BYTE   W36
// 037   ----------------------------------------
 BYTE   Cn3
 BYTE   N24  Fn3
 BYTE   W24
 BYTE   Cn3
 BYTE   N24  Fn3
 BYTE   W36
 BYTE   Cn3
 BYTE   N24  Fn3
 BYTE   W36
// 038   ----------------------------------------
 BYTE   Cn3
 BYTE   N24  Fn3
 BYTE   W24
 BYTE   Cn3
 BYTE   N24  En3
 BYTE   W36
 BYTE   Cn3
 BYTE   N24  En3
 BYTE   W36
// 039   ----------------------------------------
 BYTE   PATT
  POIN2 Label_4_0146F5E0
// 040   ----------------------------------------
 BYTE   N24  Bn2  v127
 BYTE   N24  En3
 BYTE   W24
 BYTE   An2
 BYTE   N24  Cn3
 BYTE   N24  En3
 BYTE   W36
 BYTE   An2
 BYTE   N24  Cn3
 BYTE   N24  En3
 BYTE   W36
// 041   ----------------------------------------
 BYTE   PATT
  POIN2 Label_4_0146F702
// 042   ----------------------------------------
 BYTE   PATT
  POIN2 Label_4_0146F717
// 043   ----------------------------------------
 BYTE   PATT
  POIN2 Label_4_0146F72C
// 044   ----------------------------------------
 BYTE   N24  Cn3  v127
 BYTE   N24  Fs3
 BYTE   W24
 BYTE   Cn3
 BYTE   N24  Fn3
 BYTE   N24  An3
 BYTE   W36
 BYTE   Cn3
 BYTE   N24  Fn3
 BYTE   N24  An3
 BYTE   W36
// 045   ----------------------------------------
 BYTE   Cn3
 BYTE   N24  Fn3
 BYTE   N24  An3
 BYTE   W24
 BYTE   Fn3
 BYTE   N24  An3
 BYTE   W36
 BYTE   Fn3
 BYTE   N24  An3
 BYTE   W36
// 046   ----------------------------------------
 BYTE   Fn3
 BYTE   N24  An3
 BYTE   W24
 BYTE   Gn3
 BYTE   N24  Bn3
 BYTE   W36
 BYTE   Gn3
 BYTE   N24  Bn3
 BYTE   W36
// 047   ----------------------------------------
 BYTE   Gn3
 BYTE   N24  Bn3
 BYTE   W24
 BYTE   Gn3
 BYTE   N24  Bn3
 BYTE   W36
 BYTE   Gn3
 BYTE   N24  Bn3
 BYTE   W36
// 048   ----------------------------------------
 BYTE   Gn3
 BYTE   N24  Bn3
 BYTE   W24
 BYTE   GoTo
  POIN2 Label_4_0146F5D6
 BYTE   FINE

//**************** Track 6 (Midi-Chn.5) ****************//

songC1_006:
// 000   ----------------------------------------
 BYTE   KEYSH   songC1_key+0
 BYTE   VOICE   10
 BYTE   PAN   c_v-38
 BYTE   VOL   26*songC1_mvl/mxv
 BYTE   W18
 BYTE   W06
Label_5_0146F7D3:
 BYTE   W72
// 001   ----------------------------------------
 BYTE   W96
// 002   ----------------------------------------
 BYTE   W96
// 003   ----------------------------------------
 BYTE   W96
// 004   ----------------------------------------
 BYTE   W96
// 005   ----------------------------------------
 BYTE   W96
// 006   ----------------------------------------
 BYTE   W96
// 007   ----------------------------------------
 BYTE   W96
// 008   ----------------------------------------
 BYTE   W96
// 009   ----------------------------------------
 BYTE   W96
// 010   ----------------------------------------
 BYTE   W96
// 011   ----------------------------------------
 BYTE   W96
// 012   ----------------------------------------
 BYTE   W96
// 013   ----------------------------------------
 BYTE   W96
// 014   ----------------------------------------
 BYTE   W96
// 015   ----------------------------------------
 BYTE   W96
// 016   ----------------------------------------
 BYTE   W24
 BYTE   N24  En5  v127
 BYTE   W72
// 017   ----------------------------------------
 BYTE   W72
 BYTE   Cn5
 BYTE   W24
// 018   ----------------------------------------
Label_5_0146F7EB:
 BYTE   N24  En5  v127
 BYTE   W24
 BYTE   Fs5
 BYTE   W72
 BYTE   PEND 
// 019   ----------------------------------------
 BYTE   W72
 BYTE   N24
 BYTE   W24
// 020   ----------------------------------------
Label_5_0146F7F5:
 BYTE   N24  Gn5  v127
 BYTE   W24
 BYTE   An5
 BYTE   W72
 BYTE   PEND 
// 021   ----------------------------------------
 BYTE   W72
 BYTE   Gn5
 BYTE   W24
// 022   ----------------------------------------
Label_5_0146F7FF:
 BYTE   N24  Fn5  v127
 BYTE   W24
 BYTE   En5
 BYTE   W72
 BYTE   PEND 
// 023   ----------------------------------------
 BYTE   W24
 BYTE   Fn5
 BYTE   W36
 BYTE   Gn5
 BYTE   W36
// 024   ----------------------------------------
 BYTE   PATT
  POIN2 Label_5_0146F7FF
// 025   ----------------------------------------
 BYTE   W72
 BYTE   N24  Cn5  v127
 BYTE   W24
// 026   ----------------------------------------
 BYTE   PATT
  POIN2 Label_5_0146F7EB
// 027   ----------------------------------------
 BYTE   W72
 BYTE   N24  Fs5  v127
 BYTE   W24
// 028   ----------------------------------------
 BYTE   PATT
  POIN2 Label_5_0146F7F5
// 029   ----------------------------------------
 BYTE   W48
 BYTE   N24  An5  v127
 BYTE   W24
 BYTE   Gn5
 BYTE   W24
// 030   ----------------------------------------
 BYTE   Fn5
 BYTE   W24
 BYTE   En5
 BYTE   W24
 BYTE   W48
// 031   ----------------------------------------
 BYTE   W96
// 032   ----------------------------------------
 BYTE   W96
// 033   ----------------------------------------
 BYTE   W96
// 034   ----------------------------------------
 BYTE   W96
// 035   ----------------------------------------
 BYTE   W96
// 036   ----------------------------------------
 BYTE   W96
// 037   ----------------------------------------
 BYTE   W96
// 038   ----------------------------------------
 BYTE   W96
// 039   ----------------------------------------
 BYTE   W96
// 040   ----------------------------------------
 BYTE   W96
// 041   ----------------------------------------
 BYTE   W96
// 042   ----------------------------------------
 BYTE   W96
// 043   ----------------------------------------
 BYTE   W96
// 044   ----------------------------------------
 BYTE   W96
// 045   ----------------------------------------
 BYTE   W96
// 046   ----------------------------------------
 BYTE   W96
// 047   ----------------------------------------
 BYTE   W96
// 048   ----------------------------------------
 BYTE   W24
 BYTE   GoTo
  POIN2 Label_5_0146F7D3
 BYTE   FINE

//**************** Track 7 (Midi-Chn.6) ****************//

songC1_007:
// 000   ----------------------------------------
 BYTE   KEYSH   songC1_key+0
 BYTE   VOICE   58
 BYTE   PAN   c_v+31
 BYTE   VOL   44*songC1_mvl/mxv
 BYTE   W18
 BYTE   W06
Label_6_0146F852:
 BYTE   W72
// 001   ----------------------------------------
 BYTE   W96
// 002   ----------------------------------------
 BYTE   W96
// 003   ----------------------------------------
 BYTE   W96
// 004   ----------------------------------------
 BYTE   W96
// 005   ----------------------------------------
 BYTE   W96
// 006   ----------------------------------------
 BYTE   W96
// 007   ----------------------------------------
 BYTE   W96
// 008   ----------------------------------------
 BYTE   W96
// 009   ----------------------------------------
 BYTE   W96
// 010   ----------------------------------------
 BYTE   W96
// 011   ----------------------------------------
 BYTE   W96
// 012   ----------------------------------------
 BYTE   W96
// 013   ----------------------------------------
 BYTE   W96
// 014   ----------------------------------------
 BYTE   W96
// 015   ----------------------------------------
 BYTE   W96
// 016   ----------------------------------------
 BYTE   W96
// 017   ----------------------------------------
 BYTE   W96
// 018   ----------------------------------------
 BYTE   W96
// 019   ----------------------------------------
 BYTE   W96
// 020   ----------------------------------------
 BYTE   W96
// 021   ----------------------------------------
 BYTE   W96
// 022   ----------------------------------------
 BYTE   W96
// 023   ----------------------------------------
 BYTE   W96
// 024   ----------------------------------------
 BYTE   W96
// 025   ----------------------------------------
 BYTE   W96
// 026   ----------------------------------------
 BYTE   W96
// 027   ----------------------------------------
 BYTE   W96
// 028   ----------------------------------------
 BYTE   W96
// 029   ----------------------------------------
 BYTE   W96
// 030   ----------------------------------------
 BYTE   W96
// 031   ----------------------------------------
 BYTE   W96
// 032   ----------------------------------------
 BYTE   W24
 BYTE   N72  An2  v127
 BYTE   W72
// 033   ----------------------------------------
 BYTE   N12
 BYTE   W12
 BYTE   Bn2
 BYTE   W12
 BYTE   N44  Cn3
 BYTE   W48
 BYTE   N18
 BYTE   W18
 BYTE   Bn2
 BYTE   W06
// 034   ----------------------------------------
Label_6_0146F882:
 BYTE   W12
 BYTE   N12  Cn3  v127
 BYTE   W12
 BYTE   N36  Dn3
 BYTE   W36
 BYTE   TIE  An2
 BYTE   W36
 BYTE   PEND 
// 035   ----------------------------------------
 BYTE   W68
 BYTE   W01
 BYTE   EOT
 BYTE   W03
 BYTE   N24
 BYTE   W24
// 036   ----------------------------------------
 BYTE   Bn2
 BYTE   W24
 BYTE   N96  Cn3
 BYTE   W72
// 037   ----------------------------------------
 BYTE   W24
 BYTE   N36  Fn3
 BYTE   W36
 BYTE   En3
 BYTE   W36
// 038   ----------------------------------------
 BYTE   N24  Dn3
 BYTE   W24
 BYTE   N96  En3
 BYTE   W72
// 039   ----------------------------------------
 BYTE   W24
 BYTE   N12
 BYTE   W12
 BYTE   Fn3
 BYTE   W12
 BYTE   En3
 BYTE   W12
 BYTE   N24  Dn3
 BYTE   W24
 BYTE   N12  En3
 BYTE   W12
// 040   ----------------------------------------
 BYTE   N24  Dn3
 BYTE   W24
 BYTE   N36  Cn3
 BYTE   W36
 BYTE   N30  An2
 BYTE   W30
 BYTE   N18  Bn2
 BYTE   W06
// 041   ----------------------------------------
 BYTE   W12
 BYTE   N12  Cn3
 BYTE   W12
 BYTE   N44
 BYTE   W48
 BYTE   N18
 BYTE   W18
 BYTE   Bn2
 BYTE   W06
// 042   ----------------------------------------
 BYTE   PATT
  POIN2 Label_6_0146F882
// 043   ----------------------------------------
 BYTE   W68
 BYTE   W01
 BYTE   EOT
 BYTE   An2
 BYTE   W03
 BYTE   N24  An2  v127
 BYTE   W24
// 044   ----------------------------------------
 BYTE   Bn2
 BYTE   W24
 BYTE   N48  Cn3
 BYTE   W48
 BYTE   N92  Fn3
 BYTE   W24
// 045   ----------------------------------------
 BYTE   W72
 BYTE   N16
 BYTE   W16
 BYTE   En3
 BYTE   W08
// 046   ----------------------------------------
 BYTE   W08
 BYTE   Cn3
 BYTE   W16
 BYTE   N84  Dn3
 BYTE   W72
// 047   ----------------------------------------
 BYTE   W12
 BYTE   N06  Gn2
 BYTE   W06
 BYTE   Fs2
 BYTE   W06
 BYTE   N12  Gn2
 BYTE   W12
 BYTE   N06  Bn2
 BYTE   W06
 BYTE   As2
 BYTE   W06
 BYTE   N12  Bn2
 BYTE   W12
 BYTE   N06  Dn3
 BYTE   W06
 BYTE   Cs3
 BYTE   W06
 BYTE   N12  Dn3
 BYTE   W12
 BYTE   N06  Gn3
 BYTE   W06
 BYTE   Fs3
 BYTE   W06
// 048   ----------------------------------------
 BYTE   N24  Gn3
 BYTE   W24
 BYTE   GoTo
  POIN2 Label_6_0146F852
 BYTE   FINE

//**************** Track 8 (Midi-Chn.7) ****************//

songC1_008:
// 000   ----------------------------------------
 BYTE   KEYSH   songC1_key+0
 BYTE   VOICE   127
 BYTE   VOL   22*songC1_mvl/mxv
 BYTE   PAN   c_v+0
 BYTE   W18
 BYTE   W06
Label_7_0146F91A:
 BYTE   N06  Dn1  v127
 BYTE   W12
 BYTE   N06
 BYTE   W06
 BYTE   N06
 BYTE   W06
 BYTE   N06
 BYTE   W12
 BYTE   N06
 BYTE   W06
 BYTE   N06
 BYTE   W06
 BYTE   N06
 BYTE   W12
 BYTE   N06
 BYTE   W06
 BYTE   N06
 BYTE   W06
// 001   ----------------------------------------
Label_7_0146F92E:
 BYTE   N06  Dn1  v127
 BYTE   W06
 BYTE   N06
 BYTE   W06
 BYTE   N06
 BYTE   W06
 BYTE   N06
 BYTE   W06
 BYTE   N06
 BYTE   W12
 BYTE   N06
 BYTE   W06
 BYTE   N06
 BYTE   W06
 BYTE   N06
 BYTE   W12
 BYTE   N06
 BYTE   W06
 BYTE   N06
 BYTE   W06
 BYTE   N06
 BYTE   W12
 BYTE   N06
 BYTE   W06
 BYTE   N06
 BYTE   W06
 BYTE   PEND 
// 002   ----------------------------------------
 BYTE   PATT
  POIN2 Label_7_0146F92E
// 003   ----------------------------------------
 BYTE   PATT
  POIN2 Label_7_0146F92E
// 004   ----------------------------------------
 BYTE   PATT
  POIN2 Label_7_0146F92E
// 005   ----------------------------------------
 BYTE   PATT
  POIN2 Label_7_0146F92E
// 006   ----------------------------------------
 BYTE   PATT
  POIN2 Label_7_0146F92E
// 007   ----------------------------------------
 BYTE   PATT
  POIN2 Label_7_0146F92E
// 008   ----------------------------------------
 BYTE   PATT
  POIN2 Label_7_0146F92E
// 009   ----------------------------------------
 BYTE   PATT
  POIN2 Label_7_0146F92E
// 010   ----------------------------------------
 BYTE   PATT
  POIN2 Label_7_0146F92E
// 011   ----------------------------------------
 BYTE   PATT
  POIN2 Label_7_0146F92E
// 012   ----------------------------------------
 BYTE   PATT
  POIN2 Label_7_0146F92E
// 013   ----------------------------------------
 BYTE   PATT
  POIN2 Label_7_0146F92E
// 014   ----------------------------------------
 BYTE   PATT
  POIN2 Label_7_0146F92E
// 015   ----------------------------------------
 BYTE   PATT
  POIN2 Label_7_0146F92E
// 016   ----------------------------------------
 BYTE   PATT
  POIN2 Label_7_0146F92E
// 017   ----------------------------------------
 BYTE   PATT
  POIN2 Label_7_0146F92E
// 018   ----------------------------------------
 BYTE   PATT
  POIN2 Label_7_0146F92E
// 019   ----------------------------------------
 BYTE   PATT
  POIN2 Label_7_0146F92E
// 020   ----------------------------------------
 BYTE   PATT
  POIN2 Label_7_0146F92E
// 021   ----------------------------------------
 BYTE   PATT
  POIN2 Label_7_0146F92E
// 022   ----------------------------------------
 BYTE   PATT
  POIN2 Label_7_0146F92E
// 023   ----------------------------------------
 BYTE   PATT
  POIN2 Label_7_0146F92E
// 024   ----------------------------------------
 BYTE   PATT
  POIN2 Label_7_0146F92E
// 025   ----------------------------------------
 BYTE   PATT
  POIN2 Label_7_0146F92E
// 026   ----------------------------------------
 BYTE   PATT
  POIN2 Label_7_0146F92E
// 027   ----------------------------------------
 BYTE   PATT
  POIN2 Label_7_0146F92E
// 028   ----------------------------------------
 BYTE   PATT
  POIN2 Label_7_0146F92E
// 029   ----------------------------------------
 BYTE   PATT
  POIN2 Label_7_0146F92E
// 030   ----------------------------------------
 BYTE   PATT
  POIN2 Label_7_0146F92E
// 031   ----------------------------------------
 BYTE   PATT
  POIN2 Label_7_0146F92E
// 032   ----------------------------------------
 BYTE   PATT
  POIN2 Label_7_0146F92E
// 033   ----------------------------------------
 BYTE   PATT
  POIN2 Label_7_0146F92E
// 034   ----------------------------------------
 BYTE   PATT
  POIN2 Label_7_0146F92E
// 035   ----------------------------------------
 BYTE   PATT
  POIN2 Label_7_0146F92E
// 036   ----------------------------------------
 BYTE   PATT
  POIN2 Label_7_0146F92E
// 037   ----------------------------------------
 BYTE   PATT
  POIN2 Label_7_0146F92E
// 038   ----------------------------------------
 BYTE   PATT
  POIN2 Label_7_0146F92E
// 039   ----------------------------------------
 BYTE   PATT
  POIN2 Label_7_0146F92E
// 040   ----------------------------------------
 BYTE   PATT
  POIN2 Label_7_0146F92E
// 041   ----------------------------------------
 BYTE   PATT
  POIN2 Label_7_0146F92E
// 042   ----------------------------------------
 BYTE   PATT
  POIN2 Label_7_0146F92E
// 043   ----------------------------------------
 BYTE   PATT
  POIN2 Label_7_0146F92E
// 044   ----------------------------------------
 BYTE   PATT
  POIN2 Label_7_0146F92E
// 045   ----------------------------------------
 BYTE   PATT
  POIN2 Label_7_0146F92E
// 046   ----------------------------------------
 BYTE   PATT
  POIN2 Label_7_0146F92E
// 047   ----------------------------------------
 BYTE   PATT
  POIN2 Label_7_0146F92E
// 048   ----------------------------------------
 BYTE   N06  Dn1  v127
 BYTE   W06
 BYTE   N06
 BYTE   W06
 BYTE   N06
 BYTE   W06
 BYTE   N06
 BYTE   W06
 BYTE   GoTo
  POIN2 Label_7_0146F91A
 BYTE   FINE

//**************** Track 9 (Midi-Chn.8) ****************//

songC1_009:
// 000   ----------------------------------------
 BYTE   KEYSH   songC1_key+0
 BYTE   VOICE   127
 BYTE   VOL   22*songC1_mvl/mxv
 BYTE   PAN   c_v+0
 BYTE   W18
 BYTE   W06
Label_8_0146FA4B:
 BYTE   W24
 BYTE   N06  Fs2  v127
 BYTE   W48
// 001   ----------------------------------------
Label_8_0146FA50:
 BYTE   N06  Fs2  v127
 BYTE   W48
 BYTE   N06
 BYTE   W48
 BYTE   PEND 
// 002   ----------------------------------------
 BYTE   PATT
  POIN2 Label_8_0146FA50
// 003   ----------------------------------------
 BYTE   PATT
  POIN2 Label_8_0146FA50
// 004   ----------------------------------------
 BYTE   PATT
  POIN2 Label_8_0146FA50
// 005   ----------------------------------------
 BYTE   PATT
  POIN2 Label_8_0146FA50
// 006   ----------------------------------------
 BYTE   PATT
  POIN2 Label_8_0146FA50
// 007   ----------------------------------------
 BYTE   PATT
  POIN2 Label_8_0146FA50
// 008   ----------------------------------------
 BYTE   PATT
  POIN2 Label_8_0146FA50
// 009   ----------------------------------------
 BYTE   PATT
  POIN2 Label_8_0146FA50
// 010   ----------------------------------------
 BYTE   PATT
  POIN2 Label_8_0146FA50
// 011   ----------------------------------------
 BYTE   PATT
  POIN2 Label_8_0146FA50
// 012   ----------------------------------------
 BYTE   PATT
  POIN2 Label_8_0146FA50
// 013   ----------------------------------------
 BYTE   PATT
  POIN2 Label_8_0146FA50
// 014   ----------------------------------------
 BYTE   PATT
  POIN2 Label_8_0146FA50
// 015   ----------------------------------------
 BYTE   PATT
  POIN2 Label_8_0146FA50
// 016   ----------------------------------------
 BYTE   PATT
  POIN2 Label_8_0146FA50
// 017   ----------------------------------------
 BYTE   PATT
  POIN2 Label_8_0146FA50
// 018   ----------------------------------------
 BYTE   PATT
  POIN2 Label_8_0146FA50
// 019   ----------------------------------------
 BYTE   PATT
  POIN2 Label_8_0146FA50
// 020   ----------------------------------------
 BYTE   PATT
  POIN2 Label_8_0146FA50
// 021   ----------------------------------------
 BYTE   PATT
  POIN2 Label_8_0146FA50
// 022   ----------------------------------------
 BYTE   PATT
  POIN2 Label_8_0146FA50
// 023   ----------------------------------------
 BYTE   PATT
  POIN2 Label_8_0146FA50
// 024   ----------------------------------------
 BYTE   PATT
  POIN2 Label_8_0146FA50
// 025   ----------------------------------------
 BYTE   PATT
  POIN2 Label_8_0146FA50
// 026   ----------------------------------------
 BYTE   PATT
  POIN2 Label_8_0146FA50
// 027   ----------------------------------------
 BYTE   PATT
  POIN2 Label_8_0146FA50
// 028   ----------------------------------------
 BYTE   PATT
  POIN2 Label_8_0146FA50
// 029   ----------------------------------------
 BYTE   PATT
  POIN2 Label_8_0146FA50
// 030   ----------------------------------------
 BYTE   PATT
  POIN2 Label_8_0146FA50
// 031   ----------------------------------------
 BYTE   PATT
  POIN2 Label_8_0146FA50
// 032   ----------------------------------------
 BYTE   PATT
  POIN2 Label_8_0146FA50
// 033   ----------------------------------------
 BYTE   PATT
  POIN2 Label_8_0146FA50
// 034   ----------------------------------------
 BYTE   PATT
  POIN2 Label_8_0146FA50
// 035   ----------------------------------------
 BYTE   PATT
  POIN2 Label_8_0146FA50
// 036   ----------------------------------------
 BYTE   PATT
  POIN2 Label_8_0146FA50
// 037   ----------------------------------------
 BYTE   PATT
  POIN2 Label_8_0146FA50
// 038   ----------------------------------------
 BYTE   PATT
  POIN2 Label_8_0146FA50
// 039   ----------------------------------------
 BYTE   PATT
  POIN2 Label_8_0146FA50
// 040   ----------------------------------------
 BYTE   PATT
  POIN2 Label_8_0146FA50
// 041   ----------------------------------------
 BYTE   PATT
  POIN2 Label_8_0146FA50
// 042   ----------------------------------------
 BYTE   PATT
  POIN2 Label_8_0146FA50
// 043   ----------------------------------------
 BYTE   PATT
  POIN2 Label_8_0146FA50
// 044   ----------------------------------------
 BYTE   PATT
  POIN2 Label_8_0146FA50
// 045   ----------------------------------------
 BYTE   PATT
  POIN2 Label_8_0146FA50
// 046   ----------------------------------------
 BYTE   PATT
  POIN2 Label_8_0146FA50
// 047   ----------------------------------------
 BYTE   PATT
  POIN2 Label_8_0146FA50
// 048   ----------------------------------------
 BYTE   N06  Fs2  v127
 BYTE   W24
 BYTE   GoTo
  POIN2 Label_8_0146FA4B
 BYTE   FINE

//******************************************************//
	ALIGN 4

songC1:
	BYTE	9	// NumTrks
	BYTE	0	// NumBlks
	BYTE	songC1_pri	// Priority
	BYTE	songC1_rev	// Reverb.
    
	POIN2	songC1_grp
    
	POIN2	songC1_001
	POIN2	songC1_002
	POIN2	songC1_003
	POIN2	songC1_004
	POIN2	songC1_005
	POIN2	songC1_006
	POIN2	songC1_007
	POIN2	songC1_008
	POIN2	songC1_009

	
