//Event file generated from Sappy .s format.
	#include "MPlayDef.event"

	#define	song01B4_grp  voicegroup001
	#define	song01B4_pri  0
	#define	song01B4_rev  0
	#define	song01B4_mvl  127
	#define	song01B4_key  0
	#define	song01B4_tbs  1
	#define	song01B4_exg  0
	#define	song01B4_cmp  1

	// .rodata
	//	song01B4
	ALIGN 4


//**************** Track 1 (Midi-Chn.0) ****************//

song01B4_001:
// 000   ----------------------------------------
 BYTE   KEYSH   song01B4_key+0
 BYTE   TEMPO   184*song01B4_tbs/2
 BYTE   VOICE   30
 BYTE   VOL   27*song01B4_mvl/mxv
 BYTE   PAN   c_v+3
 BYTE   W96
// 001   ----------------------------------------
 BYTE   W96
// 002   ----------------------------------------
 BYTE   N80  Cn1  v100
 BYTE   W84
 BYTE   N92
 BYTE   W12
// 003   ----------------------------------------
 BYTE   W84
 BYTE   N92
 BYTE   W12
// 004   ----------------------------------------
 BYTE   W84
 BYTE   N80
 BYTE   W12
// 005   ----------------------------------------
 BYTE   W96
// 006   ----------------------------------------
 BYTE   W36
 BYTE   N56
 BYTE   W60
// 007   ----------------------------------------
 BYTE   W36
 BYTE   N56
 BYTE   W60
// 008   ----------------------------------------
 BYTE   W36
 BYTE   N56
 BYTE   W60
// 009   ----------------------------------------
Label_0_01394E9E:
 BYTE   N32  Fn1  v100
 BYTE   W36
 BYTE   Fn0
 BYTE   W36
 BYTE   N22  Gn1
 BYTE   W24
 BYTE   PEND 
// 010   ----------------------------------------
 BYTE   W36
 BYTE   N56  Cn1
 BYTE   W60
// 011   ----------------------------------------
 BYTE   W36
 BYTE   N56
 BYTE   W60
// 012   ----------------------------------------
 BYTE   W36
 BYTE   N56
 BYTE   W60
// 013   ----------------------------------------
 BYTE   N44  Fn1
 BYTE   W48
 BYTE   Gn1
 BYTE   W48
// 014   ----------------------------------------
Label_0_01394EB7:
 BYTE   MOD 0
 BYTE   CnM2
 BYTE   W36
 BYTE   N56  Cn1  v100
 BYTE   W60
 BYTE   PEND 
// 015   ----------------------------------------
 BYTE   W36
 BYTE   MOD 0
 BYTE   Fs0
 BYTE   N56  Cn2
 BYTE   W12
 BYTE   MOD 0
 BYTE   Gn8
 BYTE   W48
// 016   ----------------------------------------
Label_0_01394EC8:
 BYTE   MOD 0
 BYTE   CnM2
 BYTE   W36
 BYTE   N56  Ds1  v100
 BYTE   W60
 BYTE   PEND 
// 017   ----------------------------------------
 BYTE   PATT
  POIN2 Label_0_01394E9E
// 018   ----------------------------------------
 BYTE   PATT
  POIN2 Label_0_01394EB7
// 019   ----------------------------------------
 BYTE   W36
 BYTE   MOD 0
 BYTE   Cs1
 BYTE   N56  Cn2  v100
 BYTE   W12
 BYTE   MOD 0
 BYTE   Gn8
 BYTE   W48
// 020   ----------------------------------------
 BYTE   PATT
  POIN2 Label_0_01394EC8
// 021   ----------------------------------------
 BYTE   PATT
  POIN2 Label_0_01394E9E
// 022   ----------------------------------------
Label_0_01394EEE:
 BYTE   W96
// 023   ----------------------------------------
 BYTE   W96
// 024   ----------------------------------------
 BYTE   W96
// 025   ----------------------------------------
 BYTE   W96
// 026   ----------------------------------------
 BYTE   W96
// 027   ----------------------------------------
 BYTE   W96
// 028   ----------------------------------------
 BYTE   W96
// 029   ----------------------------------------
 BYTE   W96
// 030   ----------------------------------------
 BYTE   N92  Fn1  v100
 BYTE   W96
// 031   ----------------------------------------
 BYTE   As0
 BYTE   W96
// 032   ----------------------------------------
 BYTE   Fn0
 BYTE   W96
// 033   ----------------------------------------
 BYTE   Gn0
 BYTE   W96
// 034   ----------------------------------------
 BYTE   W96
// 035   ----------------------------------------
 BYTE   W96
// 036   ----------------------------------------
 BYTE   W96
// 037   ----------------------------------------
 BYTE   W96
// 038   ----------------------------------------
 BYTE   Cn2  v052
 BYTE   W96
// 039   ----------------------------------------
 BYTE   Bn1
 BYTE   W96
// 040   ----------------------------------------
 BYTE   N80  As1
 BYTE   W84
 BYTE   N05  Gn1  v080
 BYTE   W06
 BYTE   Fs1
 BYTE   W06
// 041   ----------------------------------------
 BYTE   N92  Fn1  v052
 BYTE   W96
// 042   ----------------------------------------
 BYTE   W96
// 043   ----------------------------------------
 BYTE   W96
// 044   ----------------------------------------
 BYTE   W96
// 045   ----------------------------------------
 BYTE   W96
// 046   ----------------------------------------
 BYTE   N10  Cn3  v080
 BYTE   W12
 BYTE   N04
 BYTE   W12
 BYTE   As2
 BYTE   W12
 BYTE   N44  Cn3
 BYTE   W48
 BYTE   N04
 BYTE   W06
 BYTE   Dn3
 BYTE   W06
// 047   ----------------------------------------
 BYTE   N10  Ds3
 BYTE   W12
 BYTE   N04
 BYTE   W12
 BYTE   Fn3
 BYTE   W12
 BYTE   N22  Cn3
 BYTE   W24
 BYTE   As3
 BYTE   W24
 BYTE   N32  An3  v076
 BYTE   W12
// 048   ----------------------------------------
 BYTE   W24
 BYTE   N22  As3  v088
 BYTE   W24
 BYTE   Cn4  v080
 BYTE   W24
 BYTE   Dn4  v076
 BYTE   W24
// 049   ----------------------------------------
 BYTE   Ds4  v068
 BYTE   W24
 BYTE   Fn4  v064
 BYTE   W24
 BYTE   Gn4  v056
 BYTE   W24
 BYTE   As4  v040
 BYTE   W24
// 050   ----------------------------------------
 BYTE   TIE  Cn5  v020
 BYTE   W96
// 051   ----------------------------------------
 BYTE   W92
 BYTE   W02
 BYTE   EOT
 BYTE   W02
// 052   ----------------------------------------
 BYTE   W96
// 053   ----------------------------------------
 BYTE   W96
// 054   ----------------------------------------
 BYTE   W96
// 055   ----------------------------------------
 BYTE   W96
// 056   ----------------------------------------
 BYTE   W96
// 057   ----------------------------------------
 BYTE   W96
// 058   ----------------------------------------
 BYTE   W96
// 059   ----------------------------------------
 BYTE   W92
 BYTE   W02
 BYTE   GoTo
  POIN2 Label_0_01394EEE
 BYTE   FINE

//**************** Track 2 (Midi-Chn.1) ****************//

song01B4_002:
// 000   ----------------------------------------
 BYTE   KEYSH   song01B4_key+0
 BYTE   VOICE   42
 BYTE   VOL   29*song01B4_mvl/mxv
 BYTE   PAN   c_v+7
 BYTE   TIE  Cn5  v040
 BYTE   TIE  Dn5  v012
 BYTE   TIE  Ds5
 BYTE   TIE  Fs5  v028
 BYTE   TIE  Gn5
 BYTE   TIE  An5  v012
 BYTE   TIE  Cn6  v040
 BYTE   W96
// 001   ----------------------------------------
 BYTE   W92
 BYTE   W02
 BYTE   EOT
 BYTE   Cn5  v086
 BYTE   Ds5  v090
 BYTE   Gn5  v093
 BYTE   Cn6
 BYTE   W02
// 002   ----------------------------------------
 BYTE   N80  Cn3  v100
 BYTE   TIE  Gn3  v080
 BYTE   TIE  Cn4  v072
 BYTE   TIE  Cn5  v040
 BYTE   TIE  Cn6
 BYTE   W84
 BYTE   N92  Dn3  v100
 BYTE   W12
// 003   ----------------------------------------
 BYTE   W84
 BYTE   Ds3
 BYTE   W12
// 004   ----------------------------------------
 BYTE   W84
 BYTE   TIE  Fn3
 BYTE   W12
// 005   ----------------------------------------
 BYTE   W92
 BYTE   W02
 BYTE   EOT
 BYTE   EOT
 BYTE   Gn3  v072
 BYTE   Cn5  v096
 BYTE   W02
// 006   ----------------------------------------
 BYTE   W96
// 007   ----------------------------------------
 BYTE   W96
// 008   ----------------------------------------
 BYTE   W96
// 009   ----------------------------------------
 BYTE   W96
// 010   ----------------------------------------
 BYTE   W96
// 011   ----------------------------------------
 BYTE   W96
// 012   ----------------------------------------
 BYTE   W96
// 013   ----------------------------------------
 BYTE   W96
// 014   ----------------------------------------
 BYTE   W96
// 015   ----------------------------------------
 BYTE   W96
// 016   ----------------------------------------
 BYTE   W96
// 017   ----------------------------------------
 BYTE   N22  Fn3
 BYTE   N22  An3
 BYTE   N04  An4  v028
 BYTE   W06
 BYTE   As4  v032
 BYTE   W06
 BYTE   An4  v036
 BYTE   W06
 BYTE   As4  v040
 BYTE   W06
 BYTE   N22  Gn3  v100
 BYTE   N22  As3
 BYTE   N04  An4  v040
 BYTE   W06
 BYTE   As4  v044
 BYTE   W06
 BYTE   An4  v048
 BYTE   W06
 BYTE   As4  v052
 BYTE   W06
 BYTE   N10  Cn3  v100
 BYTE   N22  An3
 BYTE   N22  Cn4
 BYTE   N04  An4  v056
 BYTE   W06
 BYTE   As4
 BYTE   W06
 BYTE   N10  Ds3  v100
 BYTE   N04  An4  v060
 BYTE   W06
 BYTE   As4  v064
 BYTE   W06
 BYTE   N10  Fn3  v100
 BYTE   N22  As3
 BYTE   N22  Ds4
 BYTE   N04  An4  v068
 BYTE   W06
 BYTE   Fn4  v100
 BYTE   W06
 BYTE   N10  Gn3
 BYTE   N04  Gn4
 BYTE   W06
 BYTE   As4
 BYTE   W06
// 018   ----------------------------------------
 BYTE   W96
// 019   ----------------------------------------
 BYTE   W96
// 020   ----------------------------------------
 BYTE   W96
// 021   ----------------------------------------
 BYTE   N22  Fn3
 BYTE   N22  An3
 BYTE   W24
 BYTE   Gn3
 BYTE   N22  As3
 BYTE   W24
 BYTE   An3
 BYTE   N22  Cn4
 BYTE   W24
 BYTE   As3
 BYTE   N22  Ds4
 BYTE   W24
// 022   ----------------------------------------
Label_1_0139497C:
 BYTE   N05  Cn4  v080
 BYTE   N05  Gn4
 BYTE   N05  Cn5
 BYTE   W96
// 023   ----------------------------------------
 BYTE   W96
// 024   ----------------------------------------
 BYTE   W96
// 025   ----------------------------------------
 BYTE   W96
// 026   ----------------------------------------
 BYTE   W96
// 027   ----------------------------------------
 BYTE   W96
// 028   ----------------------------------------
 BYTE   W96
// 029   ----------------------------------------
 BYTE   N92  An3  v060
 BYTE   W24
 BYTE   N68  As3  v072
 BYTE   W24
 BYTE   N44  Cn4  v080
 BYTE   W24
 BYTE   N22  Fn4  v092
 BYTE   W23
 BYTE   VOICE   40
 BYTE   W01
// 030   ----------------------------------------
Label_1_0139499D:
 BYTE   N10  Gs3  v100
 BYTE   N10  As3
 BYTE   N10  Ds4
 BYTE   N10  Gn4
 BYTE   W12
 BYTE   Gs3  v060
 BYTE   N10  As3
 BYTE   N10  Ds4
 BYTE   N10  Gn4
 BYTE   W12
 BYTE   Gs3  v100
 BYTE   N10  As3
 BYTE   N10  Ds4
 BYTE   N10  Gn4
 BYTE   W12
 BYTE   Gs3  v060
 BYTE   N10  As3
 BYTE   N10  Ds4
 BYTE   N10  Gn4
 BYTE   W12
 BYTE   Gs3  v100
 BYTE   N10  As3
 BYTE   N10  Ds4
 BYTE   N10  Gn4
 BYTE   W12
 BYTE   Gs3  v060
 BYTE   N10  As3
 BYTE   N10  Ds4
 BYTE   N10  Gn4
 BYTE   W12
 BYTE   Gs3  v100
 BYTE   N10  As3
 BYTE   N10  Ds4
 BYTE   N10  Gn4
 BYTE   W12
 BYTE   Gs3  v060
 BYTE   N10  As3
 BYTE   N10  Ds4
 BYTE   N10  Gn4
 BYTE   W12
 BYTE   PEND 
// 031   ----------------------------------------
 BYTE   Gs3  v100
 BYTE   N10  As3
 BYTE   N10  Ds4
 BYTE   N10  Gn4
 BYTE   W12
 BYTE   Gs3  v060
 BYTE   N10  As3
 BYTE   N10  Ds4
 BYTE   N10  Gn4
 BYTE   W12
 BYTE   Gs3  v100
 BYTE   N10  As3
 BYTE   N10  Ds4
 BYTE   N10  Gn4
 BYTE   W12
 BYTE   Gs3  v060
 BYTE   N10  As3
 BYTE   N10  Ds4
 BYTE   N10  Gn4
 BYTE   W12
 BYTE   Gs3  v100
 BYTE   N10  As3
 BYTE   N10  Dn4
 BYTE   N10  Fn4
 BYTE   W12
 BYTE   Gs3  v060
 BYTE   N10  As3
 BYTE   N10  Dn4
 BYTE   N10  Fn4
 BYTE   W12
 BYTE   Gs3  v100
 BYTE   N10  As3
 BYTE   N10  Dn4
 BYTE   N10  Fn4
 BYTE   W12
 BYTE   Gs3  v060
 BYTE   N10  As3
 BYTE   N10  Dn4
 BYTE   N10  Fn4
 BYTE   W12
// 032   ----------------------------------------
 BYTE   PATT
  POIN2 Label_1_0139499D
// 033   ----------------------------------------
 BYTE   N10  Gn3  v100
 BYTE   N10  Cn4
 BYTE   N10  Ds4
 BYTE   N10  Gn4
 BYTE   W12
 BYTE   Gn3  v060
 BYTE   N10  Cn4
 BYTE   N10  Ds4
 BYTE   N10  Gn4
 BYTE   W12
 BYTE   Gn3  v100
 BYTE   N10  Cn4
 BYTE   N10  Ds4
 BYTE   N10  Gn4
 BYTE   W12
 BYTE   Gn3  v060
 BYTE   N10  Cn4
 BYTE   N10  Ds4
 BYTE   N10  Gn4
 BYTE   W12
 BYTE   Gn3  v100
 BYTE   N10  Cn4
 BYTE   N10  Dn4
 BYTE   N10  Fn4
 BYTE   W12
 BYTE   Gn3  v060
 BYTE   N10  Cn4
 BYTE   N10  Dn4
 BYTE   N10  Fn4
 BYTE   W12
 BYTE   Gn3  v100
 BYTE   N10  Cn4
 BYTE   N10  Dn4
 BYTE   N10  Fn4
 BYTE   W12
 BYTE   Gn3  v060
 BYTE   N10  Cn4
 BYTE   N10  Dn4
 BYTE   N10  Fn4
 BYTE   W12
// 034   ----------------------------------------
 BYTE   Cn3  v100
 BYTE   N10  Gn3
 BYTE   N10  Ds4
 BYTE   N10  Gn4
 BYTE   W96
// 035   ----------------------------------------
 BYTE   W96
// 036   ----------------------------------------
 BYTE   W96
// 037   ----------------------------------------
 BYTE   W96
// 038   ----------------------------------------
 BYTE   VOICE   100
 BYTE   W36
 BYTE   N56  Gn3  v052
 BYTE   W60
// 039   ----------------------------------------
 BYTE   W36
 BYTE   N56
 BYTE   W60
// 040   ----------------------------------------
 BYTE   W36
 BYTE   N56
 BYTE   W60
// 041   ----------------------------------------
 BYTE   W36
 BYTE   Fn3
 BYTE   W60
// 042   ----------------------------------------
 BYTE   N04  Ds3  v100
 BYTE   W06
 BYTE   Cn3
 BYTE   W06
 BYTE   Dn3
 BYTE   W06
 BYTE   As2
 BYTE   W06
 BYTE   Cn3
 BYTE   W06
 BYTE   Gs2
 BYTE   W06
 BYTE   Dn3
 BYTE   W06
 BYTE   As2
 BYTE   W06
 BYTE   Fn3
 BYTE   W06
 BYTE   Cn3
 BYTE   W06
 BYTE   Ds3
 BYTE   W06
 BYTE   As2
 BYTE   W06
 BYTE   Dn3
 BYTE   W06
 BYTE   Gs2
 BYTE   W06
 BYTE   Ds3
 BYTE   W06
 BYTE   As2
 BYTE   W06
// 043   ----------------------------------------
 BYTE   Gn3
 BYTE   W06
 BYTE   Cn3
 BYTE   W06
 BYTE   Fn3
 BYTE   W06
 BYTE   As2
 BYTE   W06
 BYTE   Ds3
 BYTE   W06
 BYTE   Gs2
 BYTE   W06
 BYTE   Fn3
 BYTE   W06
 BYTE   As2
 BYTE   W06
 BYTE   As3
 BYTE   W06
 BYTE   Cn3
 BYTE   W06
 BYTE   Gn3
 BYTE   W06
 BYTE   As2
 BYTE   W06
 BYTE   Fn3
 BYTE   W06
 BYTE   Gs2
 BYTE   W06
 BYTE   Gn3
 BYTE   W06
 BYTE   As2
 BYTE   W06
// 044   ----------------------------------------
 BYTE   Cn4
 BYTE   W06
 BYTE   Cn3
 BYTE   W06
 BYTE   Gn3
 BYTE   W06
 BYTE   As2
 BYTE   W06
 BYTE   Ds3
 BYTE   W06
 BYTE   Gn2
 BYTE   W06
 BYTE   Gn3
 BYTE   W06
 BYTE   As2
 BYTE   W06
 BYTE   Cn4
 BYTE   W06
 BYTE   Cn3
 BYTE   W06
 BYTE   Gn3
 BYTE   W06
 BYTE   As2
 BYTE   W06
 BYTE   Fn3
 BYTE   W06
 BYTE   Gn2
 BYTE   W06
 BYTE   Gn3
 BYTE   W06
 BYTE   As2
 BYTE   W06
// 045   ----------------------------------------
 BYTE   Cn4
 BYTE   W06
 BYTE   Cn3
 BYTE   W06
 BYTE   As3
 BYTE   W06
 BYTE   As2
 BYTE   W06
 BYTE   Gn3
 BYTE   W06
 BYTE   Gn2
 BYTE   W06
 BYTE   Cn4
 BYTE   W06
 BYTE   As2
 BYTE   W06
 BYTE   As3
 BYTE   W06
 BYTE   Cn3
 BYTE   W06
 BYTE   Gn3
 BYTE   W06
 BYTE   As2
 BYTE   W06
 BYTE   Fn3
 BYTE   W06
 BYTE   Gn2
 BYTE   W06
 BYTE   Gn3
 BYTE   W06
 BYTE   As2
 BYTE   W05
 BYTE   VOICE   40
 BYTE   W01
// 046   ----------------------------------------
 BYTE   W96
// 047   ----------------------------------------
 BYTE   W96
// 048   ----------------------------------------
 BYTE   W96
// 049   ----------------------------------------
 BYTE   W96
// 050   ----------------------------------------
 BYTE   W96
// 051   ----------------------------------------
 BYTE   W96
// 052   ----------------------------------------
 BYTE   TIE  Cn5  v076
 BYTE   W96
// 053   ----------------------------------------
 BYTE   N92  Dn4
 BYTE   N92  As4
 BYTE   W96
// 054   ----------------------------------------
Label_1_01394B2D:
 BYTE   N44  Ds4  v076
 BYTE   N92  Gn4
 BYTE   W48
 BYTE   N44  As3
 BYTE   W48
 BYTE   PEND 
// 055   ----------------------------------------
 BYTE   N68  An3
 BYTE   N92  Fn4
 BYTE   W72
 BYTE   N22  Bn3
 BYTE   W22
 BYTE   EOT
 BYTE   Cn5
 BYTE   W02
// 056   ----------------------------------------
 BYTE   N92  Cn4
 BYTE   N80  Gn4
 BYTE   TIE  Cn5
 BYTE   W84
 BYTE   N04  Gs4
 BYTE   W06
 BYTE   An4
 BYTE   W06
// 057   ----------------------------------------
 BYTE   N92  Dn4
 BYTE   N92  As4
 BYTE   W96
// 058   ----------------------------------------
 BYTE   PATT
  POIN2 Label_1_01394B2D
// 059   ----------------------------------------
 BYTE   N68  An3  v076
 BYTE   N68  Fn4
 BYTE   W72
 BYTE   N22  Cn4
 BYTE   W22
 BYTE   EOT
 BYTE   Cn5
 BYTE   GoTo
  POIN2 Label_1_0139497C
 BYTE   FINE

//**************** Track 3 (Midi-Chn.2) ****************//

song01B4_003:
// 000   ----------------------------------------
 BYTE   KEYSH   song01B4_key+0
 BYTE   VOICE   49
 BYTE   VOL   34*song01B4_mvl/mxv
 BYTE   PAN   c_v-8
 BYTE   W96
// 001   ----------------------------------------
 BYTE   W96
// 002   ----------------------------------------
Label_2_0139529E:
 BYTE   N04  Cn4  v068
 BYTE   W06
 BYTE   Cn4  v052
 BYTE   W06
 BYTE   Cn4  v032
 BYTE   W06
 BYTE   Cn4  v016
 BYTE   W06
 BYTE   Cn4  v076
 BYTE   W06
 BYTE   Cn4  v056
 BYTE   W06
 BYTE   Cn4  v036
 BYTE   W06
 BYTE   Cn4  v020
 BYTE   W06
 BYTE   Cn4  v088
 BYTE   W06
 BYTE   Cn4  v064
 BYTE   W06
 BYTE   Cn4  v044
 BYTE   W06
 BYTE   Cn4  v020
 BYTE   W06
 BYTE   Cn4  v100
 BYTE   W06
 BYTE   Cn4  v076
 BYTE   W06
 BYTE   Cn4  v052
 BYTE   W06
 BYTE   Cn4  v024
 BYTE   W06
 BYTE   PEND 
// 003   ----------------------------------------
 BYTE   PATT
  POIN2 Label_2_0139529E
// 004   ----------------------------------------
 BYTE   PATT
  POIN2 Label_2_0139529E
// 005   ----------------------------------------
 BYTE   PATT
  POIN2 Label_2_0139529E
// 006   ----------------------------------------
 BYTE   N10  Gn3  v100
 BYTE   N10  As3
 BYTE   N10  Cn4
 BYTE   W36
 BYTE   Cn1
 BYTE   N22  Cn2
 BYTE   N56  Gn3
 BYTE   N56  As3
 BYTE   N56  Cn4
 BYTE   W12
 BYTE   N10  Cn1
 BYTE   W12
 BYTE   Cn2
 BYTE   W12
 BYTE   Cn3
 BYTE   W12
 BYTE   Cn2
 BYTE   W12
// 007   ----------------------------------------
 BYTE   Gn3
 BYTE   N10  As3
 BYTE   N10  Dn4
 BYTE   W32
 BYTE   W03
 BYTE   VOICE   49
 BYTE   W01
 BYTE   N10  Cn1
 BYTE   N22  Cn2
 BYTE   N56  Gn3
 BYTE   N56  As3
 BYTE   N56  Dn4
 BYTE   W12
 BYTE   N10  Cn1
 BYTE   W12
 BYTE   Cn2
 BYTE   W12
 BYTE   Cn3
 BYTE   W12
 BYTE   Cn2
 BYTE   W12
// 008   ----------------------------------------
 BYTE   Gn3
 BYTE   N10  As3
 BYTE   N10  Ds4
 BYTE   W36
 BYTE   Cn1
 BYTE   N22  Cn2
 BYTE   N56  Gn3
 BYTE   N56  As3
 BYTE   N56  Ds4
 BYTE   W12
 BYTE   N10  Cn1
 BYTE   W12
 BYTE   Cn2
 BYTE   W12
 BYTE   Cn3
 BYTE   W12
 BYTE   Cn2
 BYTE   W12
// 009   ----------------------------------------
 BYTE   An3
 BYTE   N10  Cn4
 BYTE   N10  Fn4
 BYTE   W36
 BYTE   Cn1
 BYTE   N22  Cn2
 BYTE   N56  An3
 BYTE   N56  Cn4
 BYTE   N56  Fn4
 BYTE   W12
 BYTE   N10  Cn1
 BYTE   W12
 BYTE   Cn2
 BYTE   W12
 BYTE   Cn3
 BYTE   W12
 BYTE   Cn2
 BYTE   W12
// 010   ----------------------------------------
 BYTE   Gn3
 BYTE   N10  Cn4
 BYTE   N10  Gn4
 BYTE   W12
 BYTE   Cn2
 BYTE   W12
 BYTE   Cn3
 BYTE   W12
 BYTE   Cn1
 BYTE   N22  Cn2
 BYTE   N56  Gn3
 BYTE   N56  Cn4
 BYTE   N56  Gn4
 BYTE   W12
 BYTE   N10  Cn1
 BYTE   W12
 BYTE   Cn2
 BYTE   W12
 BYTE   Cn3
 BYTE   W12
 BYTE   Cn2
 BYTE   W12
// 011   ----------------------------------------
 BYTE   An3
 BYTE   N10  Dn4
 BYTE   N10  An4
 BYTE   W12
 BYTE   Cn2
 BYTE   W12
 BYTE   Dn3
 BYTE   W12
 BYTE   Cn1
 BYTE   N22  Cn2
 BYTE   N56  An3
 BYTE   N56  Dn4
 BYTE   N56  An4
 BYTE   W12
 BYTE   N10  Cn1
 BYTE   W12
 BYTE   Cn2
 BYTE   W12
 BYTE   Cn3
 BYTE   W12
 BYTE   Cn2
 BYTE   W12
// 012   ----------------------------------------
 BYTE   As3
 BYTE   N10  Ds4
 BYTE   N10  As4
 BYTE   W12
 BYTE   Cn2
 BYTE   W12
 BYTE   Ds3
 BYTE   W12
 BYTE   Cn1
 BYTE   N22  Cn2
 BYTE   N56  As3
 BYTE   N56  Ds4
 BYTE   N56  As4
 BYTE   W12
 BYTE   N10  Cn1
 BYTE   W12
 BYTE   Cn2
 BYTE   W12
 BYTE   Cn3
 BYTE   W12
 BYTE   Cn2
 BYTE   W12
// 013   ----------------------------------------
 BYTE   N44  Fn0
 BYTE   N44  Fn1
 BYTE   N08  Fn4  v072
 BYTE   N08  Gn4
 BYTE   N08  Cn5
 BYTE   W12
 BYTE   N02  Cn5  v032
 BYTE   W06
 BYTE   Fn4  v040
 BYTE   N02  Gn4
 BYTE   N02  Cn5
 BYTE   W06
 BYTE   N08  Fn4  v072
 BYTE   N08  Gn4
 BYTE   N08  Cn5
 BYTE   W12
 BYTE   N02  Fn4  v032
 BYTE   N02  Gn4
 BYTE   W06
 BYTE   N08  Gn4  v040
 BYTE   N08  Cn5
 BYTE   W06
 BYTE   N44  Gn0  v100
 BYTE   N44  Gn1
 BYTE   W06
 BYTE   N02  Fn4  v032
 BYTE   N02  Cn5
 BYTE   W06
 BYTE   Fn4  v040
 BYTE   N02  Gn4
 BYTE   W06
 BYTE   N08  Gn4  v072
 BYTE   N08  Cn5
 BYTE   W12
 BYTE   N02  Fn4  v020
 BYTE   N02  Cn5
 BYTE   W06
 BYTE   Fn4  v032
 BYTE   N02  Gn4
 BYTE   W06
 BYTE   Fn4  v040
 BYTE   N02  Gn4
 BYTE   N02  Cn5
 BYTE   W06
// 014   ----------------------------------------
Label_2_013953F5:
 BYTE   N04  Cn3  v100
 BYTE   N04  Ds3
 BYTE   N04  Gn3
 BYTE   N04  Cn4
 BYTE   W36
 BYTE   N32  Cn3
 BYTE   N32  Ds3
 BYTE   N32  Gn3
 BYTE   N32  Cn4
 BYTE   W60
 BYTE   PEND 
// 015   ----------------------------------------
Label_2_01395409:
 BYTE   N04  Dn3  v100
 BYTE   N04  Fn3
 BYTE   N04  As3
 BYTE   N04  Cn4
 BYTE   W36
 BYTE   N32  Dn3
 BYTE   N32  Fn3
 BYTE   N32  As3
 BYTE   N32  Cn4
 BYTE   W60
 BYTE   PEND 
// 016   ----------------------------------------
Label_2_0139541D:
 BYTE   N04  Ds3  v100
 BYTE   N04  Gn3
 BYTE   N04  As3
 BYTE   N04  Cn4
 BYTE   W36
 BYTE   N32  Ds3
 BYTE   N32  Gn3
 BYTE   N32  As3
 BYTE   N32  Cn4
 BYTE   W60
 BYTE   PEND 
// 017   ----------------------------------------
Label_2_01395431:
 BYTE   N04  Fn3  v100
 BYTE   N04  An3
 BYTE   N04  As3
 BYTE   N04  Cn4
 BYTE   W36
 BYTE   N32  Fn3
 BYTE   N32  An3
 BYTE   N32  As3
 BYTE   N32  Cn4
 BYTE   W60
 BYTE   PEND 
// 018   ----------------------------------------
 BYTE   PATT
  POIN2 Label_2_013953F5
// 019   ----------------------------------------
 BYTE   PATT
  POIN2 Label_2_01395409
// 020   ----------------------------------------
 BYTE   PATT
  POIN2 Label_2_0139541D
// 021   ----------------------------------------
 BYTE   PATT
  POIN2 Label_2_01395431
// 022   ----------------------------------------
Label_2_01395459:
 BYTE   W96
// 023   ----------------------------------------
 BYTE   W96
// 024   ----------------------------------------
 BYTE   W92
 BYTE   W03
 BYTE   VOICE   100
 BYTE   W01
// 025   ----------------------------------------
 BYTE   N01  Fn1  v100
 BYTE   W06
 BYTE   Cn2
 BYTE   W06
 BYTE   Fn2
 BYTE   W06
 BYTE   N01
 BYTE   W06
 BYTE   Cn3
 BYTE   W06
 BYTE   Fn3
 BYTE   W06
 BYTE   N01
 BYTE   W06
 BYTE   Cn4  v096
 BYTE   W06
 BYTE   Fn4  v092
 BYTE   W06
 BYTE   Fn4  v088
 BYTE   W06
 BYTE   Gn4  v084
 BYTE   W06
 BYTE   Cn5  v080
 BYTE   W06
 BYTE   Fn4  v076
 BYTE   W06
 BYTE   Gn4  v072
 BYTE   W06
 BYTE   Cn5  v068
 BYTE   W06
 BYTE   Fn4  v064
 BYTE   W06
// 026   ----------------------------------------
 BYTE   Gn4  v060
 BYTE   W06
 BYTE   Cn5  v056
 BYTE   W06
 BYTE   Fn4  v052
 BYTE   W06
 BYTE   Gn4  v048
 BYTE   W06
 BYTE   Cn5  v044
 BYTE   W06
 BYTE   Fn4  v040
 BYTE   W06
 BYTE   Gn4  v036
 BYTE   W06
 BYTE   Cn5  v032
 BYTE   W06
 BYTE   Fn4
 BYTE   W06
 BYTE   Gn4  v028
 BYTE   W06
 BYTE   Cn5  v020
 BYTE   W06
 BYTE   Fn4
 BYTE   W06
 BYTE   Gn4  v016
 BYTE   W06
 BYTE   Cn5  v012
 BYTE   W06
 BYTE   Fn4  v008
 BYTE   W12
// 027   ----------------------------------------
 BYTE   W96
// 028   ----------------------------------------
 BYTE   W92
 BYTE   W03
 BYTE   VOICE   49
 BYTE   W01
// 029   ----------------------------------------
 BYTE   W72
 BYTE   N04  As3  v100
 BYTE   W06
 BYTE   Gn3
 BYTE   W06
 BYTE   Fn3
 BYTE   W06
 BYTE   Cn3
 BYTE   W06
// 030   ----------------------------------------
 BYTE   As2
 BYTE   W06
 BYTE   As1
 BYTE   W06
 BYTE   Fn2
 BYTE   W12
 BYTE   Ds2
 BYTE   W12
 BYTE   Fn2
 BYTE   W24
 BYTE   N04
 BYTE   W12
 BYTE   Ds2
 BYTE   W12
 BYTE   Fn2
 BYTE   W12
// 031   ----------------------------------------
 BYTE   N10  As1
 BYTE   W12
 BYTE   N04  Fn2
 BYTE   W12
 BYTE   Ds2
 BYTE   W12
 BYTE   Fn2
 BYTE   W12
 BYTE   N10  Gn2
 BYTE   W12
 BYTE   Fn2
 BYTE   W12
 BYTE   Ds2
 BYTE   W12
 BYTE   Fn2
 BYTE   W12
// 032   ----------------------------------------
 BYTE   As1
 BYTE   W12
 BYTE   N10
 BYTE   W24
 BYTE   N10
 BYTE   W12
 BYTE   N10
 BYTE   W24
 BYTE   N10
 BYTE   W12
 BYTE   N10
 BYTE   W12
// 033   ----------------------------------------
 BYTE   W48
 BYTE   Gn3
 BYTE   W12
 BYTE   An3
 BYTE   W12
 BYTE   As3
 BYTE   W12
 BYTE   Bn3
 BYTE   W12
// 034   ----------------------------------------
 BYTE   N22  Cn4
 BYTE   W24
 BYTE   N10
 BYTE   W12
 BYTE   N22  Gn4
 BYTE   W24
 BYTE   N10
 BYTE   W12
 BYTE   N22  Cn4
 BYTE   W24
// 035   ----------------------------------------
 BYTE   N10
 BYTE   W12
 BYTE   N80
 BYTE   W84
// 036   ----------------------------------------
 BYTE   N22  Gn3
 BYTE   W24
 BYTE   N10
 BYTE   W12
 BYTE   N22  Cn4
 BYTE   W24
 BYTE   N10
 BYTE   W12
 BYTE   N22  Ds4
 BYTE   W24
// 037   ----------------------------------------
 BYTE   N10
 BYTE   W12
 BYTE   N22  Fn4
 BYTE   W24
 BYTE   N10
 BYTE   W12
 BYTE   N22  Cn4
 BYTE   W24
 BYTE   Dn4
 BYTE   W24
// 038   ----------------------------------------
 BYTE   N92  Ds4
 BYTE   W96
// 039   ----------------------------------------
 BYTE   N32
 BYTE   W36
 BYTE   Fn4
 BYTE   W36
 BYTE   N22  Dn4
 BYTE   W24
// 040   ----------------------------------------
 BYTE   N92  Ds4
 BYTE   W96
// 041   ----------------------------------------
 BYTE   N32  Gn4
 BYTE   W36
 BYTE   Cn4
 BYTE   W36
 BYTE   N22  Dn4
 BYTE   W24
// 042   ----------------------------------------
 BYTE   N68  Ds4
 BYTE   W72
 BYTE   N10  Fn4  v072
 BYTE   W12
 BYTE   Gn4  v064
 BYTE   W12
// 043   ----------------------------------------
 BYTE   N32  Cn4  v100
 BYTE   W36
 BYTE   As3
 BYTE   W36
 BYTE   N10
 BYTE   W12
 BYTE   Cn4
 BYTE   W12
// 044   ----------------------------------------
 BYTE   TIE  Gn3
 BYTE   W96
// 045   ----------------------------------------
 BYTE   W44
 BYTE   W02
 BYTE   EOT
 BYTE   W48
 BYTE   W02
// 046   ----------------------------------------
 BYTE   N92  Ds4
 BYTE   W96
// 047   ----------------------------------------
 BYTE   N32
 BYTE   W36
 BYTE   N44  Fn4
 BYTE   W48
 BYTE   N04  Ds4
 BYTE   W06
 BYTE   Fn4
 BYTE   W06
// 048   ----------------------------------------
 BYTE   N92  Gn4
 BYTE   W96
// 049   ----------------------------------------
 BYTE   N32
 BYTE   W36
 BYTE   Fn4
 BYTE   W36
 BYTE   N22  Ds4
 BYTE   W24
// 050   ----------------------------------------
 BYTE   N68  Cn4
 BYTE   W72
 BYTE   N10  Cn4  v072
 BYTE   W12
 BYTE   Dn4  v064
 BYTE   W12
// 051   ----------------------------------------
 BYTE   N32  Ds4  v100
 BYTE   W36
 BYTE   Dn4
 BYTE   W36
 BYTE   N10
 BYTE   W12
 BYTE   Ds4
 BYTE   W12
// 052   ----------------------------------------
Label_2_01395585:
 BYTE   N32  Cn3  v100
 BYTE   W36
 BYTE   N10  Gn3
 BYTE   W24
 BYTE   Fn3
 BYTE   W12
 BYTE   Ds3
 BYTE   W12
 BYTE   Dn3
 BYTE   W12
 BYTE   PEND 
// 053   ----------------------------------------
Label_2_01395593:
 BYTE   N10  Dn3  v100
 BYTE   W12
 BYTE   N10
 BYTE   W24
 BYTE   As3
 BYTE   W24
 BYTE   Gn3
 BYTE   W12
 BYTE   Fn3
 BYTE   W12
 BYTE   Gn3
 BYTE   W12
 BYTE   PEND 
// 054   ----------------------------------------
Label_2_013955A2:
 BYTE   N10  Ds4  v100
 BYTE   W12
 BYTE   N10
 BYTE   W24
 BYTE   N10
 BYTE   W12
 BYTE   N10
 BYTE   W12
 BYTE   Ds2
 BYTE   W12
 BYTE   Ds4
 BYTE   W12
 BYTE   N10
 BYTE   W12
 BYTE   PEND 
// 055   ----------------------------------------
 BYTE   W12
 BYTE   Fn4
 BYTE   W12
 BYTE   N10
 BYTE   W24
 BYTE   N10
 BYTE   W24
 BYTE   N22
 BYTE   W24
// 056   ----------------------------------------
 BYTE   PATT
  POIN2 Label_2_01395585
// 057   ----------------------------------------
 BYTE   PATT
  POIN2 Label_2_01395593
// 058   ----------------------------------------
 BYTE   PATT
  POIN2 Label_2_013955A2
// 059   ----------------------------------------
 BYTE   W12
 BYTE   N10  Fn4  v100
 BYTE   W12
 BYTE   N10
 BYTE   W24
 BYTE   N10
 BYTE   W24
 BYTE   N22
 BYTE   W22
 BYTE   GoTo
  POIN2 Label_2_01395459
 BYTE   FINE

//**************** Track 4 (Midi-Chn.3) ****************//

song01B4_004:
// 000   ----------------------------------------
 BYTE   VOL   35*song01B4_mvl/mxv
 BYTE   KEYSH   song01B4_key+0
 BYTE   VOICE   47
 BYTE   PAN   c_v-4
 BYTE   W96
// 001   ----------------------------------------
 BYTE   W06
 BYTE   N04  Cn2  v008
 BYTE   W06
 BYTE   Cn2  v012
 BYTE   W06
 BYTE   Cn2  v020
 BYTE   W06
 BYTE   Cn2  v024
 BYTE   W06
 BYTE   Cn2  v032
 BYTE   W06
 BYTE   Cn2  v036
 BYTE   W06
 BYTE   Cn2  v044
 BYTE   W06
 BYTE   Cn2  v052
 BYTE   W06
 BYTE   Cn2  v056
 BYTE   W06
 BYTE   Cn2  v064
 BYTE   W06
 BYTE   Cn2  v072
 BYTE   W06
 BYTE   Cn2  v076
 BYTE   W06
 BYTE   Cn2  v084
 BYTE   W06
 BYTE   Cn2  v088
 BYTE   W06
 BYTE   Cn2  v096
 BYTE   W06
// 002   ----------------------------------------
 BYTE   N80  Cn2  v100
 BYTE   W84
 BYTE   N02  Cn2  v044
 BYTE   W04
 BYTE   Cn2  v068
 BYTE   W04
 BYTE   Cn2  v088
 BYTE   W04
// 003   ----------------------------------------
 BYTE   N32  Cn2  v100
 BYTE   W36
 BYTE   N44
 BYTE   W48
 BYTE   N10  Gn1  v020
 BYTE   W12
// 004   ----------------------------------------
 BYTE   N32  Cn2  v100
 BYTE   W36
 BYTE   N32
 BYTE   W36
 BYTE   N22  Gn1
 BYTE   W24
// 005   ----------------------------------------
 BYTE   N32  Cn2
 BYTE   W36
 BYTE   N22
 BYTE   W24
 BYTE   N10  Gn1  v060
 BYTE   W12
 BYTE   Gn1  v080
 BYTE   W12
 BYTE   Gn1  v100
 BYTE   W12
// 006   ----------------------------------------
Label_3_01395150:
 BYTE   N10  Cn2  v072
 BYTE   W36
 BYTE   N44  Cn1
 BYTE   W48
 BYTE   N02  Cn2  v044
 BYTE   W04
 BYTE   Cn2  v068
 BYTE   W04
 BYTE   Cn2  v072
 BYTE   W04
 BYTE   PEND 
// 007   ----------------------------------------
Label_3_01395162:
 BYTE   N10  Cn2  v072
 BYTE   W36
 BYTE   N44  Cn1
 BYTE   W48
 BYTE   N10  Gn1
 BYTE   W12
 BYTE   PEND 
// 008   ----------------------------------------
Label_3_0139516D:
 BYTE   N10  Cn2  v072
 BYTE   W36
 BYTE   N32  Cn1
 BYTE   W36
 BYTE   N22  Gn1
 BYTE   W24
 BYTE   PEND 
// 009   ----------------------------------------
 BYTE   N10  Gn1  v048
 BYTE   W12
 BYTE   Gn1  v024
 BYTE   W12
 BYTE   Gn1  v060
 BYTE   W12
 BYTE   Gn1  v032
 BYTE   W12
 BYTE   Gn1  v072
 BYTE   W12
 BYTE   N04  Gn1  v044
 BYTE   W06
 BYTE   N04
 BYTE   W06
 BYTE   N10  Gn1  v100
 BYTE   W12
 BYTE   N02  Gn1  v068
 BYTE   W04
 BYTE   N02
 BYTE   W04
 BYTE   N02
 BYTE   W04
// 010   ----------------------------------------
 BYTE   PATT
  POIN2 Label_3_01395150
// 011   ----------------------------------------
 BYTE   PATT
  POIN2 Label_3_01395162
// 012   ----------------------------------------
 BYTE   PATT
  POIN2 Label_3_0139516D
// 013   ----------------------------------------
 BYTE   N10  Fn1  v048
 BYTE   W12
 BYTE   Fn1  v024
 BYTE   W12
 BYTE   Fn1  v060
 BYTE   W12
 BYTE   Fn1  v032
 BYTE   W12
 BYTE   Gn1  v072
 BYTE   W12
 BYTE   N04  Gn1  v044
 BYTE   W06
 BYTE   N04
 BYTE   W06
 BYTE   N10  Gn1  v100
 BYTE   W12
 BYTE   N02  Gn1  v068
 BYTE   W04
 BYTE   N02
 BYTE   W04
 BYTE   N02
 BYTE   W04
// 014   ----------------------------------------
 BYTE   W96
// 015   ----------------------------------------
 BYTE   W96
// 016   ----------------------------------------
 BYTE   W96
// 017   ----------------------------------------
 BYTE   W96
// 018   ----------------------------------------
 BYTE   W96
// 019   ----------------------------------------
 BYTE   W96
// 020   ----------------------------------------
 BYTE   W96
// 021   ----------------------------------------
 BYTE   W96
// 022   ----------------------------------------
Label_3_013951D3:
 BYTE   W96
// 023   ----------------------------------------
 BYTE   W96
// 024   ----------------------------------------
 BYTE   W96
// 025   ----------------------------------------
 BYTE   W96
// 026   ----------------------------------------
 BYTE   W96
// 027   ----------------------------------------
 BYTE   W96
// 028   ----------------------------------------
 BYTE   W96
// 029   ----------------------------------------
 BYTE   W96
// 030   ----------------------------------------
 BYTE   W96
// 031   ----------------------------------------
 BYTE   W96
// 032   ----------------------------------------
 BYTE   W96
// 033   ----------------------------------------
 BYTE   W96
// 034   ----------------------------------------
 BYTE   W96
// 035   ----------------------------------------
 BYTE   W96
// 036   ----------------------------------------
 BYTE   W96
// 037   ----------------------------------------
 BYTE   W96
// 038   ----------------------------------------
 BYTE   VOICE   14
 BYTE   N92  Cn1  v100
 BYTE   W96
// 039   ----------------------------------------
 BYTE   N80  Bn0  v040
 BYTE   W84
 BYTE   N10  Bn0  v072
 BYTE   W12
// 040   ----------------------------------------
 BYTE   N92  As0  v100
 BYTE   W96
// 041   ----------------------------------------
 BYTE   N80  Fn0  v040
 BYTE   W84
 BYTE   N10  Fn0  v072
 BYTE   W12
// 042   ----------------------------------------
 BYTE   W96
// 043   ----------------------------------------
 BYTE   W96
// 044   ----------------------------------------
 BYTE   W96
// 045   ----------------------------------------
 BYTE   W92
 BYTE   W03
 BYTE   VOICE   47
 BYTE   W01
// 046   ----------------------------------------
 BYTE   N04  Cn2  v064
 BYTE   W06
 BYTE   Cn2  v076
 BYTE   W06
 BYTE   N10  Cn2  v084
 BYTE   W24
 BYTE   N04  Cn2  v064
 BYTE   W06
 BYTE   Cn2  v072
 BYTE   W06
 BYTE   N10  Cn2  v084
 BYTE   W48
// 047   ----------------------------------------
 BYTE   N04  Cn2  v072
 BYTE   W06
 BYTE   Cn2  v080
 BYTE   W06
 BYTE   N10  Cn2  v092
 BYTE   W24
 BYTE   N23  Cn2  v100
 BYTE   W24
 BYTE   N32  Cn2  v060
 BYTE   W36
// 048   ----------------------------------------
 BYTE   N01  Cn2  v056
 BYTE   W06
 BYTE   N04  Cn2  v064
 BYTE   W06
 BYTE   N10  Cn2  v076
 BYTE   W24
 BYTE   N04  Cn2  v092
 BYTE   W06
 BYTE   Cn2  v084
 BYTE   W06
 BYTE   N10  Cn2  v076
 BYTE   W12
 BYTE   N22  Cn2  v092
 BYTE   W24
 BYTE   N10  Cn2  v100
 BYTE   W12
// 049   ----------------------------------------
 BYTE   W12
 BYTE   N04  Cn2  v092
 BYTE   W06
 BYTE   Cn2  v060
 BYTE   W18
 BYTE   Cn2  v068
 BYTE   W06
 BYTE   N04
 BYTE   W18
 BYTE   N10  Cn2  v076
 BYTE   W12
 BYTE   N04  Cn2  v056
 BYTE   W06
 BYTE   Cn2  v064
 BYTE   W06
 BYTE   N10  Cn2  v088
 BYTE   W12
// 050   ----------------------------------------
 BYTE   W96
// 051   ----------------------------------------
 BYTE   W96
// 052   ----------------------------------------
 BYTE   W96
// 053   ----------------------------------------
 BYTE   W96
// 054   ----------------------------------------
 BYTE   W96
// 055   ----------------------------------------
 BYTE   W96
// 056   ----------------------------------------
 BYTE   W96
// 057   ----------------------------------------
 BYTE   W96
// 058   ----------------------------------------
 BYTE   W96
// 059   ----------------------------------------
 BYTE   W92
 BYTE   W02
 BYTE   GoTo
  POIN2 Label_3_013951D3
 BYTE   FINE

//**************** Track 5 (Midi-Chn.4) ****************//

song01B4_005:
// 000   ----------------------------------------
 BYTE   KEYSH   song01B4_key+0
 BYTE   VOICE   52
 BYTE   VOL   29*song01B4_mvl/mxv
 BYTE   PAN   c_v+19
 BYTE   W96
// 001   ----------------------------------------
 BYTE   W96
// 002   ----------------------------------------
 BYTE   W96
// 003   ----------------------------------------
 BYTE   W96
// 004   ----------------------------------------
 BYTE   W96
// 005   ----------------------------------------
 BYTE   W96
// 006   ----------------------------------------
 BYTE   W96
// 007   ----------------------------------------
 BYTE   W96
// 008   ----------------------------------------
 BYTE   W96
// 009   ----------------------------------------
 BYTE   W96
// 010   ----------------------------------------
 BYTE   W96
// 011   ----------------------------------------
 BYTE   W96
// 012   ----------------------------------------
 BYTE   W96
// 013   ----------------------------------------
 BYTE   W96
// 014   ----------------------------------------
 BYTE   W96
// 015   ----------------------------------------
 BYTE   W96
// 016   ----------------------------------------
 BYTE   W96
// 017   ----------------------------------------
 BYTE   W96
// 018   ----------------------------------------
 BYTE   W96
// 019   ----------------------------------------
 BYTE   W96
// 020   ----------------------------------------
 BYTE   W96
// 021   ----------------------------------------
 BYTE   W96
// 022   ----------------------------------------
Label_4_0139454E:
 BYTE   N80  Cn3  v100
 BYTE   TIE  Gn3  v080
 BYTE   TIE  Cn4  v072
 BYTE   TIE  Cn5  v040
 BYTE   TIE  Cn6
 BYTE   W84
 BYTE   N92  Dn3  v100
 BYTE   W12
 BYTE   PEND 
// 023   ----------------------------------------
 BYTE   W84
 BYTE   Ds3
 BYTE   W12
// 024   ----------------------------------------
 BYTE   W84
 BYTE   TIE  Fn3
 BYTE   W12
// 025   ----------------------------------------
 BYTE   W92
 BYTE   W02
 BYTE   EOT
 BYTE   EOT
 BYTE   Gn3  v072
 BYTE   Cn5  v096
 BYTE   W02
// 026   ----------------------------------------
 BYTE   PATT
  POIN2 Label_4_0139454E
// 027   ----------------------------------------
 BYTE   W80
 BYTE   W02
 BYTE   EOT
 BYTE   Gn3  v072
 BYTE   W02
 BYTE   N92  Ds3  v100
 BYTE   TIE  As3  v080
 BYTE   N92  Ds4  v072
 BYTE   W12
// 028   ----------------------------------------
 BYTE   W84
 BYTE   TIE  Fn3  v100
 BYTE   TIE  An3  v080
 BYTE   TIE  Cn4
 BYTE   TIE  Fn4  v072
 BYTE   W12
// 029   ----------------------------------------
 BYTE   W92
 BYTE   W02
 BYTE   EOT
 BYTE   Fn3  v069
 BYTE   As3  v072
 BYTE   Fn4  v084
 BYTE   Cn6
 BYTE   W02
// 030   ----------------------------------------
 BYTE   W96
// 031   ----------------------------------------
 BYTE   W96
// 032   ----------------------------------------
 BYTE   W96
// 033   ----------------------------------------
 BYTE   W96
// 034   ----------------------------------------
 BYTE   W96
// 035   ----------------------------------------
 BYTE   W96
// 036   ----------------------------------------
 BYTE   W96
// 037   ----------------------------------------
 BYTE   W96
// 038   ----------------------------------------
 BYTE   W12
 BYTE   N80  Gn2  v052
 BYTE   W84
// 039   ----------------------------------------
 BYTE   W12
 BYTE   N80
 BYTE   W84
// 040   ----------------------------------------
 BYTE   W12
 BYTE   N80
 BYTE   W84
// 041   ----------------------------------------
 BYTE   W12
 BYTE   N32
 BYTE   W36
 BYTE   N44  An2
 BYTE   W48
// 042   ----------------------------------------
 BYTE   W96
// 043   ----------------------------------------
 BYTE   W96
// 044   ----------------------------------------
 BYTE   W96
// 045   ----------------------------------------
 BYTE   W96
// 046   ----------------------------------------
 BYTE   W96
// 047   ----------------------------------------
 BYTE   W96
// 048   ----------------------------------------
 BYTE   W96
// 049   ----------------------------------------
 BYTE   W96
// 050   ----------------------------------------
 BYTE   N92  Gn2  v100
 BYTE   N92  Cn3  v088
 BYTE   N92  Fn3  v068
 BYTE   N92  As3  v052
 BYTE   N92  Ds4  v040
 BYTE   N92  Gs4  v024
 BYTE   W96
// 051   ----------------------------------------
 BYTE   Fn2  v100
 BYTE   N92  Cn3  v088
 BYTE   N92  Dn3  v068
 BYTE   N92  Gn3  v052
 BYTE   N92  Cn4  v040
 BYTE   N92  Gn4  v024
 BYTE   W96
// 052   ----------------------------------------
 BYTE   TIE  Cn2  v068
 BYTE   TIE  Cn3
 BYTE   TIE  Cn4  v052
 BYTE   TIE  Cn5  v024
 BYTE   W96
// 053   ----------------------------------------
 BYTE   W96
// 054   ----------------------------------------
 BYTE   W96
// 055   ----------------------------------------
 BYTE   W92
 BYTE   W02
 BYTE   EOT
 BYTE   Cn2  v060
 BYTE   Cn4  v084
 BYTE   W02
// 056   ----------------------------------------
 BYTE   TIE  Cn0  v100
 BYTE   TIE  Cn1
 BYTE   W96
// 057   ----------------------------------------
 BYTE   W96
// 058   ----------------------------------------
 BYTE   W96
// 059   ----------------------------------------
 BYTE   W92
 BYTE   W02
 BYTE   EOT
 BYTE   Cn0  v036
 BYTE   GoTo
  POIN2 Label_4_0139454E
 BYTE   FINE

//**************** Track 6 (Midi-Chn.5) ****************//

song01B4_006:
// 000   ----------------------------------------
 BYTE   KEYSH   song01B4_key+0
 BYTE   VOICE   41
 BYTE   VOL   30*song01B4_mvl/mxv
 BYTE   PAN   c_v-20
 BYTE   W96
// 001   ----------------------------------------
 BYTE   W96
// 002   ----------------------------------------
 BYTE   W96
// 003   ----------------------------------------
 BYTE   W96
// 004   ----------------------------------------
 BYTE   W96
// 005   ----------------------------------------
 BYTE   W96
// 006   ----------------------------------------
 BYTE   W96
// 007   ----------------------------------------
 BYTE   W96
// 008   ----------------------------------------
 BYTE   W96
// 009   ----------------------------------------
 BYTE   W96
// 010   ----------------------------------------
 BYTE   W96
// 011   ----------------------------------------
 BYTE   W96
// 012   ----------------------------------------
 BYTE   W96
// 013   ----------------------------------------
 BYTE   W96
// 014   ----------------------------------------
 BYTE   W36
 BYTE   N22  Gn3  v100
 BYTE   N22  Ds4  v052
 BYTE   W24
 BYTE   N10  Fn3  v100
 BYTE   N10  Cn4  v072
 BYTE   W12
 BYTE   Ds3  v100
 BYTE   N10  As3  v072
 BYTE   W12
 BYTE   N44  Dn3  v100
 BYTE   N44  Cn4  v072
 BYTE   W12
// 015   ----------------------------------------
Label_5_01394642:
 BYTE   W36
 BYTE   N22  Gn3  v100
 BYTE   N22  Ds4  v052
 BYTE   W24
 BYTE   N10  Fn3  v100
 BYTE   N10  Cn4  v072
 BYTE   W12
 BYTE   Ds3  v100
 BYTE   N10  As3  v072
 BYTE   W12
 BYTE   Dn3  v100
 BYTE   N10  Cn4  v072
 BYTE   W12
 BYTE   PEND 
// 016   ----------------------------------------
Label_5_0139465E:
 BYTE   N11  Ds3  v052
 BYTE   N11  Ds4  v032
 BYTE   W36
 BYTE   N22  As3  v100
 BYTE   N22  Gn4  v072
 BYTE   W24
 BYTE   N10  Gn3  v100
 BYTE   N10  Fn4  v072
 BYTE   W12
 BYTE   Fn3  v100
 BYTE   N10  Ds4  v052
 BYTE   W12
 BYTE   Ds3  v100
 BYTE   N10  Cn4  v072
 BYTE   W12
 BYTE   PEND 
// 017   ----------------------------------------
 BYTE   N22  Fn3  v100
 BYTE   N10  An3  v072
 BYTE   W12
 BYTE   As3
 BYTE   W12
 BYTE   Cn4
 BYTE   W12
 BYTE   Cn3  v100
 BYTE   N10  Dn4  v072
 BYTE   W12
 BYTE   As3  v100
 BYTE   N10  Ds4  v052
 BYTE   W12
 BYTE   N22  Gn3  v100
 BYTE   N10  Fn4  v072
 BYTE   W12
 BYTE   Gn4
 BYTE   W12
 BYTE   Dn3  v100
 BYTE   N10  As4  v072
 BYTE   W12
// 018   ----------------------------------------
 BYTE   Cn5
 BYTE   W36
 BYTE   N22  Gn3  v100
 BYTE   N22  Ds4  v052
 BYTE   W24
 BYTE   N10  Fn3  v100
 BYTE   N10  Cn4  v072
 BYTE   W12
 BYTE   Ds3  v100
 BYTE   N10  As3  v072
 BYTE   W12
 BYTE   N32  Dn3  v100
 BYTE   N32  Cn4  v072
 BYTE   W12
// 019   ----------------------------------------
 BYTE   PATT
  POIN2 Label_5_01394642
// 020   ----------------------------------------
 BYTE   PATT
  POIN2 Label_5_0139465E
// 021   ----------------------------------------
 BYTE   N22  Fn3  v100
 BYTE   N22  Fn4  v072
 BYTE   W24
 BYTE   Gn4
 BYTE   W12
 BYTE   N10  Cn3  v100
 BYTE   W12
 BYTE   As3
 BYTE   N10  Fn4  v072
 BYTE   W12
 BYTE   N22  Gn3  v100
 BYTE   N22  Gn4  v072
 BYTE   W24
 BYTE   N10  Dn3  v100
 BYTE   N10  Gn4  v072
 BYTE   W12
// 022   ----------------------------------------
Label_5_013946ED:
 BYTE   W96
// 023   ----------------------------------------
 BYTE   W48
 BYTE   N10  Gn2  v100
 BYTE   W12
 BYTE   Bn2
 BYTE   W12
 BYTE   Cn3
 BYTE   W12
 BYTE   Dn3
 BYTE   W12
// 024   ----------------------------------------
 BYTE   Ds3
 BYTE   W12
 BYTE   Cn3
 BYTE   W24
 BYTE   Ds3  v060
 BYTE   W12
 BYTE   Cn3  v052
 BYTE   W12
 BYTE   Ds3  v048
 BYTE   W12
 BYTE   Cn3  v040
 BYTE   W12
 BYTE   Ds3  v036
 BYTE   W12
// 025   ----------------------------------------
 BYTE   Cn3  v028
 BYTE   W12
 BYTE   Ds3  v020
 BYTE   W12
 BYTE   Cn3  v016
 BYTE   W12
 BYTE   Ds3  v008
 BYTE   W12
 BYTE   Cn3  v004
 BYTE   W48
// 026   ----------------------------------------
 BYTE   W96
// 027   ----------------------------------------
 BYTE   W96
// 028   ----------------------------------------
 BYTE   W96
// 029   ----------------------------------------
 BYTE   W96
// 030   ----------------------------------------
 BYTE   W96
// 031   ----------------------------------------
 BYTE   W96
// 032   ----------------------------------------
 BYTE   W96
// 033   ----------------------------------------
 BYTE   W96
// 034   ----------------------------------------
 BYTE   W96
// 035   ----------------------------------------
 BYTE   W96
// 036   ----------------------------------------
 BYTE   W96
// 037   ----------------------------------------
 BYTE   W96
// 038   ----------------------------------------
 BYTE   W24
 BYTE   N68  Cn3  v052
 BYTE   W72
// 039   ----------------------------------------
 BYTE   W24
 BYTE   Dn3
 BYTE   W72
// 040   ----------------------------------------
 BYTE   W24
 BYTE   N68
 BYTE   W72
// 041   ----------------------------------------
 BYTE   W24
 BYTE   Cn3
 BYTE   W72
// 042   ----------------------------------------
 BYTE   W96
// 043   ----------------------------------------
 BYTE   W96
// 044   ----------------------------------------
 BYTE   W96
// 045   ----------------------------------------
 BYTE   W96
// 046   ----------------------------------------
 BYTE   N10  Gn3  v100
 BYTE   W12
 BYTE   N04
 BYTE   W12
 BYTE   Fn3
 BYTE   W12
 BYTE   N44  Gn3
 BYTE   W48
 BYTE   N04
 BYTE   W06
 BYTE   As3
 BYTE   W06
// 047   ----------------------------------------
 BYTE   N10  Cn4
 BYTE   W12
 BYTE   N04
 BYTE   W12
 BYTE   As3
 BYTE   W12
 BYTE   N22  Gn3
 BYTE   W24
 BYTE   Gn4
 BYTE   W24
 BYTE   N32  Fn4  v088
 BYTE   W12
// 048   ----------------------------------------
 BYTE   W24
 BYTE   N22  Gn4  v080
 BYTE   W24
 BYTE   An4  v072
 BYTE   W24
 BYTE   As4  v068
 BYTE   W24
// 049   ----------------------------------------
 BYTE   Cn5  v060
 BYTE   W24
 BYTE   Dn5  v056
 BYTE   W24
 BYTE   Ds5  v052
 BYTE   W24
 BYTE   Fn5  v048
 BYTE   W24
// 050   ----------------------------------------
 BYTE   TIE  Gn5  v040
 BYTE   W96
// 051   ----------------------------------------
 BYTE   W92
 BYTE   W02
 BYTE   EOT
 BYTE   W02
// 052   ----------------------------------------
 BYTE   W96
// 053   ----------------------------------------
 BYTE   W96
// 054   ----------------------------------------
 BYTE   W96
// 055   ----------------------------------------
 BYTE   W96
// 056   ----------------------------------------
 BYTE   W96
// 057   ----------------------------------------
 BYTE   W96
// 058   ----------------------------------------
 BYTE   W96
// 059   ----------------------------------------
 BYTE   W92
 BYTE   W02
 BYTE   GoTo
  POIN2 Label_5_013946ED
 BYTE   FINE

//**************** Track 7 (Midi-Chn.6) ****************//

song01B4_007:
// 000   ----------------------------------------
 BYTE   KEYSH   song01B4_key+0
 BYTE   VOICE   63
 BYTE   VOL   31*song01B4_mvl/mxv
 BYTE   W96
// 001   ----------------------------------------
 BYTE   W96
// 002   ----------------------------------------
 BYTE   W96
// 003   ----------------------------------------
 BYTE   W96
// 004   ----------------------------------------
 BYTE   W96
// 005   ----------------------------------------
 BYTE   W96
// 006   ----------------------------------------
Label_6_013955E8:
 BYTE   N10  Cn4  v100
 BYTE   W36
 BYTE   Cn4  v040
 BYTE   W60
 BYTE   PEND 
// 007   ----------------------------------------
 BYTE   PATT
  POIN2 Label_6_013955E8
// 008   ----------------------------------------
 BYTE   PATT
  POIN2 Label_6_013955E8
// 009   ----------------------------------------
 BYTE   PATT
  POIN2 Label_6_013955E8
// 010   ----------------------------------------
 BYTE   PATT
  POIN2 Label_6_013955E8
// 011   ----------------------------------------
 BYTE   PATT
  POIN2 Label_6_013955E8
// 012   ----------------------------------------
 BYTE   PATT
  POIN2 Label_6_013955E8
// 013   ----------------------------------------
 BYTE   PATT
  POIN2 Label_6_013955E8
// 014   ----------------------------------------
Label_6_01395613:
 BYTE   N04  Gn3  v100
 BYTE   N04  Gn4
 BYTE   N04  Cn5
 BYTE   W12
 BYTE   Cn3
 BYTE   N04  Cn4
 BYTE   W84
 BYTE   PEND 
// 015   ----------------------------------------
 BYTE   PATT
  POIN2 Label_6_01395613
// 016   ----------------------------------------
 BYTE   PATT
  POIN2 Label_6_01395613
// 017   ----------------------------------------
 BYTE   N22  Fn3  v100
 BYTE   N22  An3
 BYTE   N04  An4  v028
 BYTE   W06
 BYTE   As4  v032
 BYTE   W06
 BYTE   An4  v036
 BYTE   W06
 BYTE   As4  v040
 BYTE   W06
 BYTE   N22  Gn3  v100
 BYTE   N22  As3
 BYTE   N04  An4  v040
 BYTE   W06
 BYTE   As4  v044
 BYTE   W06
 BYTE   An4  v048
 BYTE   W06
 BYTE   As4  v052
 BYTE   W06
 BYTE   N10  Cn3  v100
 BYTE   N22  An3
 BYTE   N22  Cn4
 BYTE   N04  An4  v056
 BYTE   W06
 BYTE   As4
 BYTE   W06
 BYTE   N10  Ds3  v100
 BYTE   N04  An4  v060
 BYTE   W06
 BYTE   As4  v064
 BYTE   W06
 BYTE   N10  Fn3  v100
 BYTE   N22  As3
 BYTE   N22  Ds4
 BYTE   N04  An4  v068
 BYTE   W06
 BYTE   Fn4  v100
 BYTE   W06
 BYTE   N10  Gn3
 BYTE   N04  Gn4
 BYTE   W06
 BYTE   As4
 BYTE   W06
// 018   ----------------------------------------
 BYTE   PATT
  POIN2 Label_6_01395613
// 019   ----------------------------------------
 BYTE   PATT
  POIN2 Label_6_01395613
// 020   ----------------------------------------
 BYTE   PATT
  POIN2 Label_6_01395613
// 021   ----------------------------------------
 BYTE   N22  Fn3  v100
 BYTE   N22  An3
 BYTE   W24
 BYTE   Gn3
 BYTE   N22  As3
 BYTE   W24
 BYTE   An3
 BYTE   N22  Cn4
 BYTE   W24
 BYTE   As3
 BYTE   N22  Ds4
 BYTE   W24
// 022   ----------------------------------------
Label_6_0139569B:
 BYTE   N05  Cn4  v100
 BYTE   N05  Fn4
 BYTE   N05  Gn4
 BYTE   N05  Cn5
 BYTE   W96
// 023   ----------------------------------------
 BYTE   W96
// 024   ----------------------------------------
 BYTE   W96
// 025   ----------------------------------------
 BYTE   W96
// 026   ----------------------------------------
 BYTE   W96
// 027   ----------------------------------------
 BYTE   W96
// 028   ----------------------------------------
 BYTE   W96
// 029   ----------------------------------------
 BYTE   W96
// 030   ----------------------------------------
 BYTE   W96
// 031   ----------------------------------------
 BYTE   W96
// 032   ----------------------------------------
 BYTE   W96
// 033   ----------------------------------------
 BYTE   W96
// 034   ----------------------------------------
 BYTE   W96
// 035   ----------------------------------------
 BYTE   W96
// 036   ----------------------------------------
 BYTE   W96
// 037   ----------------------------------------
 BYTE   W96
// 038   ----------------------------------------
 BYTE   W96
// 039   ----------------------------------------
 BYTE   W96
// 040   ----------------------------------------
 BYTE   W96
// 041   ----------------------------------------
 BYTE   W96
// 042   ----------------------------------------
 BYTE   W96
// 043   ----------------------------------------
 BYTE   W96
// 044   ----------------------------------------
 BYTE   W96
// 045   ----------------------------------------
 BYTE   W96
// 046   ----------------------------------------
 BYTE   N10  Cn4
 BYTE   W96
// 047   ----------------------------------------
 BYTE   W96
// 048   ----------------------------------------
 BYTE   W96
// 049   ----------------------------------------
 BYTE   W96
// 050   ----------------------------------------
 BYTE   W96
// 051   ----------------------------------------
 BYTE   W96
// 052   ----------------------------------------
 BYTE   W96
// 053   ----------------------------------------
 BYTE   W96
// 054   ----------------------------------------
 BYTE   W96
// 055   ----------------------------------------
 BYTE   W96
// 056   ----------------------------------------
 BYTE   W96
// 057   ----------------------------------------
 BYTE   W96
// 058   ----------------------------------------
 BYTE   W96
// 059   ----------------------------------------
 BYTE   W92
 BYTE   W02
 BYTE   GoTo
  POIN2 Label_6_0139569B
 BYTE   FINE

//**************** Track 8 (Midi-Chn.7) ****************//

song01B4_008:
// 000   ----------------------------------------
 BYTE   KEYSH   song01B4_key+0
 BYTE   VOICE   57
 BYTE   VOL   27*song01B4_mvl/mxv
 BYTE   PAN   c_v+13
 BYTE   W96
// 001   ----------------------------------------
 BYTE   W96
// 002   ----------------------------------------
 BYTE   W96
// 003   ----------------------------------------
 BYTE   W96
// 004   ----------------------------------------
 BYTE   W96
// 005   ----------------------------------------
 BYTE   W96
// 006   ----------------------------------------
 BYTE   W96
// 007   ----------------------------------------
 BYTE   W96
// 008   ----------------------------------------
 BYTE   W96
// 009   ----------------------------------------
 BYTE   W96
// 010   ----------------------------------------
 BYTE   W96
// 011   ----------------------------------------
 BYTE   W96
// 012   ----------------------------------------
 BYTE   W96
// 013   ----------------------------------------
 BYTE   W96
// 014   ----------------------------------------
 BYTE   W96
// 015   ----------------------------------------
 BYTE   W96
// 016   ----------------------------------------
 BYTE   W96
// 017   ----------------------------------------
 BYTE   W96
// 018   ----------------------------------------
 BYTE   W96
// 019   ----------------------------------------
 BYTE   W96
// 020   ----------------------------------------
 BYTE   W96
// 021   ----------------------------------------
 BYTE   W96
// 022   ----------------------------------------
Label_7_0139579E:
 BYTE   N10  Gn3  v116
 BYTE   W12
 BYTE   Cn4
 BYTE   W12
 BYTE   N10
 BYTE   W12
 BYTE   N10
 BYTE   W12
 BYTE   Gn3
 BYTE   W12
 BYTE   Ds3
 BYTE   W12
 BYTE   Dn3
 BYTE   W12
 BYTE   Cn3
 BYTE   W12
// 023   ----------------------------------------
 BYTE   Bn2
 BYTE   W12
 BYTE   Cn3
 BYTE   W24
 BYTE   Dn3
 BYTE   W12
 BYTE   Ds3
 BYTE   W12
 BYTE   Dn3
 BYTE   W12
 BYTE   Ds3
 BYTE   W12
 BYTE   Fn3
 BYTE   W12
// 024   ----------------------------------------
 BYTE   Gn3
 BYTE   W12
 BYTE   Cn3
 BYTE   W24
 BYTE   Gn3  v068
 BYTE   W12
 BYTE   Cn3  v064
 BYTE   W12
 BYTE   Gn3  v028
 BYTE   W12
 BYTE   Cn3  v032
 BYTE   W12
 BYTE   Gn3  v044
 BYTE   W12
// 025   ----------------------------------------
 BYTE   Cn3  v040
 BYTE   W12
 BYTE   Gn3  v032
 BYTE   W12
 BYTE   Cn3  v028
 BYTE   W12
 BYTE   Gn3  v020
 BYTE   W12
 BYTE   Cn3  v016
 BYTE   W12
 BYTE   Gn3  v012
 BYTE   W12
 BYTE   Cn3  v004
 BYTE   W24
// 026   ----------------------------------------
 BYTE   Gn3  v116
 BYTE   W12
 BYTE   Cn4
 BYTE   W12
 BYTE   N10
 BYTE   W12
 BYTE   N10
 BYTE   W12
 BYTE   Ds4
 BYTE   W12
 BYTE   Dn4
 BYTE   W12
 BYTE   Cn4
 BYTE   W12
 BYTE   Dn4
 BYTE   W12
// 027   ----------------------------------------
 BYTE   Fn4
 BYTE   W12
 BYTE   Ds4
 BYTE   W12
 BYTE   Dn4
 BYTE   W12
 BYTE   Ds4
 BYTE   W24
 BYTE   Dn4
 BYTE   W12
 BYTE   As3
 BYTE   W12
 BYTE   Gs3
 BYTE   W12
// 028   ----------------------------------------
 BYTE   Gn3
 BYTE   W12
 BYTE   Cn4
 BYTE   W24
 BYTE   Gn3  v056
 BYTE   W12
 BYTE   Cn4
 BYTE   W24
 BYTE   Gn3  v040
 BYTE   W12
 BYTE   Cn4
 BYTE   W12
// 029   ----------------------------------------
 BYTE   W96
// 030   ----------------------------------------
 BYTE   Cn3  v116
 BYTE   W12
 BYTE   Gn2
 BYTE   W12
 BYTE   As2
 BYTE   W12
 BYTE   Cn3
 BYTE   W24
 BYTE   Gn2
 BYTE   W12
 BYTE   As2
 BYTE   W12
 BYTE   Cn3
 BYTE   W12
// 031   ----------------------------------------
 BYTE   N32  Ds3
 BYTE   W36
 BYTE   Dn3
 BYTE   W36
 BYTE   N22  As2
 BYTE   W24
// 032   ----------------------------------------
 BYTE   N10  Gn2
 BYTE   W12
 BYTE   Fn2
 BYTE   W12
 BYTE   Gn2
 BYTE   W12
 BYTE   Ds3
 BYTE   W12
 BYTE   Dn3
 BYTE   W12
 BYTE   Cn3
 BYTE   W12
 BYTE   Fn3
 BYTE   W12
 BYTE   Ds3
 BYTE   W12
// 033   ----------------------------------------
 BYTE   Dn3
 BYTE   W12
 BYTE   Gs3
 BYTE   W12
 BYTE   Gn3
 BYTE   W12
 BYTE   Ds3
 BYTE   W12
 BYTE   Dn3
 BYTE   W12
 BYTE   Ds3
 BYTE   W12
 BYTE   En3
 BYTE   W12
 BYTE   Fn3
 BYTE   W12
// 034   ----------------------------------------
 BYTE   As1
 BYTE   W12
 BYTE   Cn2
 BYTE   W12
 BYTE   N10
 BYTE   W12
 BYTE   N22  Cn3
 BYTE   W24
 BYTE   N10  As2
 BYTE   W12
 BYTE   Dn3  v060
 BYTE   W12
 BYTE   As2  v116
 BYTE   W12
// 035   ----------------------------------------
 BYTE   Fn2
 BYTE   W12
 BYTE   Gn2
 BYTE   W12
 BYTE   Ds2
 BYTE   W12
 BYTE   N22
 BYTE   W24
 BYTE   N10  Dn2
 BYTE   W12
 BYTE   Cn2
 BYTE   W12
 BYTE   Dn2
 BYTE   W12
// 036   ----------------------------------------
 BYTE   As1
 BYTE   W12
 BYTE   N10
 BYTE   W12
 BYTE   Cn2
 BYTE   W12
 BYTE   N22  As1
 BYTE   W24
 BYTE   Cn2
 BYTE   W24
 BYTE   N10  Dn2
 BYTE   W12
// 037   ----------------------------------------
 BYTE   N32  Fn2
 BYTE   W36
 BYTE   Gn1
 BYTE   W36
 BYTE   N04  Dn2
 BYTE   W06
 BYTE   Gn2
 BYTE   W06
 BYTE   Bn2
 BYTE   W06
 BYTE   Dn3
 BYTE   W06
// 038   ----------------------------------------
 BYTE   N68  Ds3
 BYTE   W72
 BYTE   N10
 BYTE   W12
 BYTE   Fn3
 BYTE   W12
// 039   ----------------------------------------
 BYTE   N32  Ds3
 BYTE   W36
 BYTE   Dn3
 BYTE   W36
 BYTE   N10
 BYTE   W12
 BYTE   N04  Fn3  v060
 BYTE   W06
 BYTE   Fs3  v116
 BYTE   W06
// 040   ----------------------------------------
 BYTE   N32  Gn3
 BYTE   W36
 BYTE   Fn3
 BYTE   W36
 BYTE   N22  Ds3
 BYTE   W24
// 041   ----------------------------------------
 BYTE   N32  As3
 BYTE   W36
 BYTE   N22  An3
 BYTE   W24
 BYTE   N10  As2
 BYTE   W12
 BYTE   Cn3
 BYTE   W12
 BYTE   Dn3
 BYTE   W12
// 042   ----------------------------------------
 BYTE   Ds3
 BYTE   W12
 BYTE   Dn3
 BYTE   W12
 BYTE   Cn3
 BYTE   W12
 BYTE   Dn3
 BYTE   W12
 BYTE   Ds3
 BYTE   W12
 BYTE   Dn3
 BYTE   W12
 BYTE   Cn3
 BYTE   W12
 BYTE   Dn3
 BYTE   W12
// 043   ----------------------------------------
 BYTE   Ds3
 BYTE   W12
 BYTE   Dn3
 BYTE   W12
 BYTE   Cn3
 BYTE   W12
 BYTE   Dn3
 BYTE   W12
 BYTE   Ds3
 BYTE   W12
 BYTE   Dn3
 BYTE   W12
 BYTE   Ds3
 BYTE   W12
 BYTE   Fn3
 BYTE   W12
// 044   ----------------------------------------
 BYTE   Gn3
 BYTE   W12
 BYTE   Cn3
 BYTE   W12
 BYTE   As2
 BYTE   W12
 BYTE   Cn3
 BYTE   W12
 BYTE   Gn3
 BYTE   W12
 BYTE   Cn3
 BYTE   W12
 BYTE   As2
 BYTE   W12
 BYTE   Cn3
 BYTE   W12
// 045   ----------------------------------------
 BYTE   N32
 BYTE   W36
 BYTE   As2
 BYTE   W36
 BYTE   N22
 BYTE   W24
// 046   ----------------------------------------
 BYTE   N32  Cn3
 BYTE   W36
 BYTE   Gn2
 BYTE   W36
 BYTE   N22  As2
 BYTE   W24
// 047   ----------------------------------------
 BYTE   N44  Ds3
 BYTE   W48
 BYTE   Fn3
 BYTE   W48
// 048   ----------------------------------------
 BYTE   N22  An2
 BYTE   W24
 BYTE   As2
 BYTE   W24
 BYTE   Cn3
 BYTE   W24
 BYTE   Dn3
 BYTE   W24
// 049   ----------------------------------------
 BYTE   Ds3
 BYTE   W24
 BYTE   Dn3
 BYTE   W24
 BYTE   Cn3
 BYTE   W24
 BYTE   As2
 BYTE   W24
// 050   ----------------------------------------
 BYTE   N80  Gn2
 BYTE   W84
 BYTE   N04
 BYTE   W06
 BYTE   Fs2
 BYTE   W06
// 051   ----------------------------------------
 BYTE   N32  Fn2
 BYTE   W32
 BYTE   W02
 BYTE   N44  Gn1
 BYTE   W48
 BYTE   N10  As1
 BYTE   W14
// 052   ----------------------------------------
 BYTE   N92  Cn2
 BYTE   W96
// 053   ----------------------------------------
 BYTE   Dn2
 BYTE   W96
// 054   ----------------------------------------
 BYTE   Ds2
 BYTE   W96
// 055   ----------------------------------------
 BYTE   Fn2
 BYTE   W96
// 056   ----------------------------------------
 BYTE   W96
// 057   ----------------------------------------
 BYTE   W96
// 058   ----------------------------------------
 BYTE   W96
// 059   ----------------------------------------
 BYTE   W92
 BYTE   W02
 BYTE   GoTo
  POIN2 Label_7_0139579E
 BYTE   FINE

//**************** Track 9 (Midi-Chn.8) ****************//

song01B4_009:
// 000   ----------------------------------------
 BYTE   KEYSH   song01B4_key+0
 BYTE   VOICE   46
 BYTE   PAN   c_v-14
 BYTE   W96
// 001   ----------------------------------------
 BYTE   W96
// 002   ----------------------------------------
 BYTE   W96
// 003   ----------------------------------------
 BYTE   W96
// 004   ----------------------------------------
 BYTE   W96
// 005   ----------------------------------------
 BYTE   W96
// 006   ----------------------------------------
 BYTE   W96
// 007   ----------------------------------------
 BYTE   W96
// 008   ----------------------------------------
 BYTE   W96
// 009   ----------------------------------------
 BYTE   W96
// 010   ----------------------------------------
 BYTE   W96
// 011   ----------------------------------------
 BYTE   W96
// 012   ----------------------------------------
 BYTE   W96
// 013   ----------------------------------------
 BYTE   W96
// 014   ----------------------------------------
 BYTE   W96
// 015   ----------------------------------------
 BYTE   W96
// 016   ----------------------------------------
 BYTE   W96
// 017   ----------------------------------------
 BYTE   W96
// 018   ----------------------------------------
 BYTE   W96
// 019   ----------------------------------------
 BYTE   W96
// 020   ----------------------------------------
 BYTE   W96
// 021   ----------------------------------------
 BYTE   W96
// 022   ----------------------------------------
Label_8_0139E1D8:
 BYTE   VOL   24*song01B4_mvl/mxv
 BYTE   N10  Cn2  v100
 BYTE   W12
 BYTE   N04  Gn2
 BYTE   W12
 BYTE   Fn2
 BYTE   W12
 BYTE   Gn2
 BYTE   W12
 BYTE   N10  Ds2
 BYTE   W12
 BYTE   N04  Gn2
 BYTE   W12
 BYTE   Fn2
 BYTE   W12
 BYTE   Gn2
 BYTE   W12
// 023   ----------------------------------------
 BYTE   N10  Cn2
 BYTE   W12
 BYTE   N04  Gn2
 BYTE   W12
 BYTE   Fn2
 BYTE   W12
 BYTE   Gn2
 BYTE   W12
 BYTE   N10  Ds2
 BYTE   W12
 BYTE   N04  Gn2
 BYTE   W12
 BYTE   Dn2
 BYTE   W12
 BYTE   Gn2
 BYTE   W12
// 024   ----------------------------------------
 BYTE   N10  Cn2
 BYTE   W12
 BYTE   N04  Gn2
 BYTE   W12
 BYTE   N10  Cn3
 BYTE   W12
 BYTE   As2
 BYTE   W12
 BYTE   Cn3
 BYTE   W12
 BYTE   N10
 BYTE   W12
 BYTE   Gs2
 BYTE   W12
 BYTE   Cn3
 BYTE   W12
// 025   ----------------------------------------
 BYTE   N10
 BYTE   W12
 BYTE   Gn2
 BYTE   W12
 BYTE   Cn3
 BYTE   W12
 BYTE   N10
 BYTE   W12
 BYTE   Fs2
 BYTE   W12
 BYTE   Gn2
 BYTE   W12
 BYTE   Gs2
 BYTE   W12
 BYTE   An2
 BYTE   W12
// 026   ----------------------------------------
 BYTE   Cn2
 BYTE   W12
 BYTE   N04  Gn2
 BYTE   W12
 BYTE   Fn2
 BYTE   W12
 BYTE   Gn2
 BYTE   W12
 BYTE   N10  Ds2
 BYTE   W12
 BYTE   N04  Gn2
 BYTE   W12
 BYTE   Fn2
 BYTE   W12
 BYTE   Gn2
 BYTE   W12
// 027   ----------------------------------------
 BYTE   N10
 BYTE   W12
 BYTE   N04  Cn3
 BYTE   W12
 BYTE   As2
 BYTE   W12
 BYTE   Cn3
 BYTE   W12
 BYTE   N10  Ds3
 BYTE   W12
 BYTE   N04  Gn3
 BYTE   W12
 BYTE   Fn3
 BYTE   W12
 BYTE   Gn3
 BYTE   W12
// 028   ----------------------------------------
 BYTE   N10  Cn3  v080
 BYTE   W12
 BYTE   Fn3
 BYTE   W12
 BYTE   Gn3
 BYTE   W12
 BYTE   N10
 BYTE   W12
 BYTE   Cn3
 BYTE   W12
 BYTE   As2
 BYTE   W12
 BYTE   N10
 BYTE   W12
 BYTE   Cn3
 BYTE   W12
// 029   ----------------------------------------
 BYTE   Fn3
 BYTE   W12
 BYTE   As2
 BYTE   W12
 BYTE   N10
 BYTE   W12
 BYTE   Fn3
 BYTE   W12
 BYTE   As2
 BYTE   W12
 BYTE   N10
 BYTE   W12
 BYTE   Dn3
 BYTE   W12
 BYTE   Ds3
 BYTE   W12
// 030   ----------------------------------------
 BYTE   Fn3
 BYTE   W12
 BYTE   As3
 BYTE   W12
 BYTE   N10
 BYTE   W12
 BYTE   N10
 BYTE   W12
 BYTE   Fn3
 BYTE   W12
 BYTE   Cn3
 BYTE   W12
 BYTE   As2
 BYTE   W12
 BYTE   Cn3
 BYTE   W12
// 031   ----------------------------------------
 BYTE   Gs3
 BYTE   W12
 BYTE   Gn3
 BYTE   W12
 BYTE   N10
 BYTE   W12
 BYTE   Gs3
 BYTE   W12
 BYTE   Gn3
 BYTE   W12
 BYTE   Fn3
 BYTE   W12
 BYTE   Ds3
 BYTE   W12
 BYTE   Fn3
 BYTE   W12
// 032   ----------------------------------------
 BYTE   As3
 BYTE   W12
 BYTE   As2
 BYTE   W12
 BYTE   N10
 BYTE   W12
 BYTE   As3
 BYTE   W12
 BYTE   As2
 BYTE   W12
 BYTE   N10
 BYTE   W12
 BYTE   Gs2
 BYTE   W12
 BYTE   As2
 BYTE   W12
// 033   ----------------------------------------
 BYTE   Gn3
 BYTE   W12
 BYTE   Fn3
 BYTE   W12
 BYTE   Ds3
 BYTE   W12
 BYTE   Dn3
 BYTE   W12
 BYTE   Bn2
 BYTE   W12
 BYTE   Cn3
 BYTE   W12
 BYTE   Cs3
 BYTE   W12
 BYTE   Dn3
 BYTE   W12
// 034   ----------------------------------------
 BYTE   N22  Gn3
 BYTE   W24
 BYTE   N10
 BYTE   W12
 BYTE   N22  Ds4
 BYTE   W24
 BYTE   N10
 BYTE   W12
 BYTE   N22  Gn3
 BYTE   W24
// 035   ----------------------------------------
 BYTE   N10
 BYTE   W12
 BYTE   N22
 BYTE   W24
 BYTE   N10  As3
 BYTE   W12
 BYTE   N10
 BYTE   W12
 BYTE   N10
 BYTE   W12
 BYTE   N22  Cn4
 BYTE   W24
// 036   ----------------------------------------
 BYTE   N10  Ds4
 BYTE   W12
 BYTE   Dn4
 BYTE   W12
 BYTE   Cn4
 BYTE   W12
 BYTE   Ds4
 BYTE   W12
 BYTE   Dn4
 BYTE   W12
 BYTE   Cn4
 BYTE   W12
 BYTE   Ds4
 BYTE   W12
 BYTE   Dn4
 BYTE   W12
// 037   ----------------------------------------
 BYTE   Cn4
 BYTE   W12
 BYTE   Ds4
 BYTE   W12
 BYTE   Fn4
 BYTE   W12
 BYTE   As3
 BYTE   W12
 BYTE   Ds4
 BYTE   W12
 BYTE   N32  Dn4
 BYTE   W36
// 038   ----------------------------------------
 BYTE   PAN   c_v-45
 BYTE   N04  Cn4  v100
 BYTE   W12
 BYTE   PAN   c_v-45
 BYTE   N04  Ds4
 BYTE   W06
 BYTE   PAN   c_v+40
 BYTE   N04  Cn4  v060
 BYTE   W06
 BYTE   PAN   c_v-46
 BYTE   N04  Cn5  v100
 BYTE   W06
 BYTE   PAN   c_v+40
 BYTE   N04  Ds4  v060
 BYTE   W06
 BYTE   PAN   c_v-45
 BYTE   N04  Gn4  v100
 BYTE   W06
 BYTE   PAN   c_v+40
 BYTE   N04  Cn5  v060
 BYTE   W06
 BYTE   PAN   c_v-45
 BYTE   N04  Cn4  v100
 BYTE   W06
 BYTE   PAN   c_v+40
 BYTE   N04  Gn4  v060
 BYTE   W06
 BYTE   PAN   c_v-46
 BYTE   N04  Ds4  v100
 BYTE   W06
 BYTE   PAN   c_v+40
 BYTE   N04  Cn4  v060
 BYTE   W06
 BYTE   PAN   c_v-45
 BYTE   N04  Cn5  v100
 BYTE   W06
 BYTE   PAN   c_v+40
 BYTE   N04  Fn4  v060
 BYTE   W06
 BYTE   PAN   c_v-45
 BYTE   N04  Gn4  v100
 BYTE   W06
 BYTE   PAN   c_v+40
 BYTE   N04  Cn5  v060
 BYTE   W06
// 039   ----------------------------------------
 BYTE   PAN   c_v-46
 BYTE   N04  Cn4  v100
 BYTE   W06
 BYTE   PAN   c_v+40
 BYTE   N04  Gn4  v060
 BYTE   W06
 BYTE   PAN   c_v-45
 BYTE   N04  Ds4  v100
 BYTE   W06
 BYTE   PAN   c_v+40
 BYTE   N04  Cn4  v060
 BYTE   W06
 BYTE   PAN   c_v-45
 BYTE   N04  Bn4  v100
 BYTE   W06
 BYTE   PAN   c_v+40
 BYTE   N04  Ds4  v060
 BYTE   W06
 BYTE   PAN   c_v-46
 BYTE   N04  Gn4  v100
 BYTE   W06
 BYTE   PAN   c_v+40
 BYTE   N04  Bn4  v060
 BYTE   W06
 BYTE   PAN   c_v-46
 BYTE   N04  Cn4  v100
 BYTE   W06
 BYTE   PAN   c_v+40
 BYTE   N04  Gn4  v060
 BYTE   W06
 BYTE   PAN   c_v-45
 BYTE   N04  Ds4  v100
 BYTE   W06
 BYTE   PAN   c_v+40
 BYTE   N04  Cn4  v060
 BYTE   W06
 BYTE   PAN   c_v-45
 BYTE   N04  Bn4  v100
 BYTE   W06
 BYTE   PAN   c_v+40
 BYTE   N04  Fn4  v060
 BYTE   W06
 BYTE   PAN   c_v-46
 BYTE   N04  Gn4  v100
 BYTE   W06
 BYTE   PAN   c_v+40
 BYTE   N04  Bn4  v060
 BYTE   W06
// 040   ----------------------------------------
 BYTE   PAN   c_v-46
 BYTE   N04  As3  v100
 BYTE   W06
 BYTE   PAN   c_v+40
 BYTE   N04  Gn4  v060
 BYTE   W06
 BYTE   PAN   c_v-45
 BYTE   N04  Ds4  v100
 BYTE   W06
 BYTE   PAN   c_v+40
 BYTE   N04  As3  v060
 BYTE   W06
 BYTE   PAN   c_v-45
 BYTE   N04  As4  v100
 BYTE   W06
 BYTE   PAN   c_v+40
 BYTE   N04  Ds4  v060
 BYTE   W06
 BYTE   PAN   c_v-46
 BYTE   N04  Gn4  v100
 BYTE   W06
 BYTE   PAN   c_v+40
 BYTE   N04  As4  v060
 BYTE   W06
 BYTE   PAN   c_v-46
 BYTE   N04  As3  v100
 BYTE   W06
 BYTE   PAN   c_v+40
 BYTE   N04  Gn4  v060
 BYTE   W06
 BYTE   PAN   c_v-45
 BYTE   N04  Ds4  v100
 BYTE   W06
 BYTE   PAN   c_v+40
 BYTE   N04  As3  v060
 BYTE   W06
 BYTE   PAN   c_v-45
 BYTE   N04  As4  v100
 BYTE   W06
 BYTE   PAN   c_v+40
 BYTE   N04  Fn4  v060
 BYTE   W06
 BYTE   PAN   c_v-46
 BYTE   N04  Gn4  v100
 BYTE   W06
 BYTE   PAN   c_v+40
 BYTE   N04  As4  v060
 BYTE   W06
// 041   ----------------------------------------
 BYTE   PAN   c_v-46
 BYTE   N04  An3  v100
 BYTE   W06
 BYTE   PAN   c_v+40
 BYTE   N04  Gn4  v060
 BYTE   W06
 BYTE   PAN   c_v-45
 BYTE   N04  Ds4  v100
 BYTE   W06
 BYTE   PAN   c_v+40
 BYTE   N04  An3  v060
 BYTE   W06
 BYTE   PAN   c_v-45
 BYTE   N04  As4  v100
 BYTE   W06
 BYTE   PAN   c_v+40
 BYTE   N04  Ds4  v060
 BYTE   W06
 BYTE   PAN   c_v-46
 BYTE   N04  Fn4  v100
 BYTE   W06
 BYTE   PAN   c_v+40
 BYTE   N04  As4  v060
 BYTE   W06
 BYTE   PAN   c_v-46
 BYTE   N04  An3  v100
 BYTE   W06
 BYTE   PAN   c_v+40
 BYTE   N04  Fn4  v060
 BYTE   W06
 BYTE   PAN   c_v-45
 BYTE   N04  Ds4  v100
 BYTE   W06
 BYTE   PAN   c_v+40
 BYTE   N04  An3  v060
 BYTE   W06
 BYTE   PAN   c_v-45
 BYTE   N04  As4  v100
 BYTE   W06
 BYTE   PAN   c_v+40
 BYTE   N04  Ds4  v060
 BYTE   W06
 BYTE   PAN   c_v-46
 BYTE   N04  Fn4  v100
 BYTE   W06
 BYTE   PAN   c_v+40
 BYTE   N04  As4  v060
 BYTE   W06
// 042   ----------------------------------------
 BYTE   PAN   c_v-46
 BYTE   N04  Gs3  v100
 BYTE   W06
 BYTE   PAN   c_v+40
 BYTE   N04  Fn4  v060
 BYTE   W06
 BYTE   PAN   c_v-45
 BYTE   N04  Cn4  v100
 BYTE   W06
 BYTE   PAN   c_v+40
 BYTE   N04  Gs3  v060
 BYTE   W06
 BYTE   PAN   c_v-45
 BYTE   N04  Gs4  v100
 BYTE   W06
 BYTE   PAN   c_v+40
 BYTE   N04  Cn4  v060
 BYTE   W06
 BYTE   PAN   c_v-46
 BYTE   N04  Ds4  v100
 BYTE   W06
 BYTE   PAN   c_v+40
 BYTE   N04  Gs4  v060
 BYTE   W06
 BYTE   PAN   c_v-46
 BYTE   N04  Gs3  v100
 BYTE   W06
 BYTE   PAN   c_v+40
 BYTE   N04  Ds4  v060
 BYTE   W06
 BYTE   PAN   c_v-45
 BYTE   N04  Cn4  v100
 BYTE   W06
 BYTE   PAN   c_v+40
 BYTE   N04  Gs3  v060
 BYTE   W06
 BYTE   PAN   c_v-45
 BYTE   N04  Gs4  v100
 BYTE   W06
 BYTE   PAN   c_v+40
 BYTE   N04  Cn4  v060
 BYTE   W06
 BYTE   PAN   c_v-46
 BYTE   N04  Ds4  v100
 BYTE   W06
 BYTE   PAN   c_v+40
 BYTE   N04  Gs4  v060
 BYTE   W06
// 043   ----------------------------------------
 BYTE   PAN   c_v-46
 BYTE   N04  Gs3  v100
 BYTE   W06
 BYTE   PAN   c_v+40
 BYTE   N04  Ds4  v060
 BYTE   W06
 BYTE   PAN   c_v-45
 BYTE   N04  Cn4  v100
 BYTE   W06
 BYTE   PAN   c_v+40
 BYTE   N04  Gs3  v060
 BYTE   W06
 BYTE   PAN   c_v-45
 BYTE   N04  Gs4  v100
 BYTE   W06
 BYTE   PAN   c_v+40
 BYTE   N04  Cn4  v060
 BYTE   W06
 BYTE   PAN   c_v-46
 BYTE   N04  Ds4  v100
 BYTE   W06
 BYTE   PAN   c_v+40
 BYTE   N04  Gs4  v060
 BYTE   W06
 BYTE   PAN   c_v-46
 BYTE   N04  Gs3  v100
 BYTE   W06
 BYTE   PAN   c_v+40
 BYTE   N04  Ds4  v060
 BYTE   W06
 BYTE   PAN   c_v-45
 BYTE   N04  Cn4  v100
 BYTE   W06
 BYTE   PAN   c_v+40
 BYTE   N04  Gs3  v060
 BYTE   W06
 BYTE   PAN   c_v-45
 BYTE   N04  Gs4  v100
 BYTE   W06
 BYTE   PAN   c_v+40
 BYTE   N04  Cn4  v060
 BYTE   W06
 BYTE   PAN   c_v-46
 BYTE   N04  Ds4  v100
 BYTE   W06
 BYTE   PAN   c_v+40
 BYTE   N04  Gs4  v060
 BYTE   W06
// 044   ----------------------------------------
 BYTE   PAN   c_v-46
 BYTE   N10  Cn4  v100
 BYTE   W06
 BYTE   PAN   c_v+40
 BYTE   W06
 BYTE   GnM1
 BYTE   N10  As3
 BYTE   W06
 BYTE   PAN   c_v+40
 BYTE   W06
 BYTE   GnM1
 BYTE   N10  Cn4
 BYTE   W06
 BYTE   PAN   c_v+40
 BYTE   W06
 BYTE   FsM1
 BYTE   N10  Fn4
 BYTE   W06
 BYTE   PAN   c_v+40
 BYTE   W06
 BYTE   FsM1
 BYTE   W06
 BYTE   Gs6
 BYTE   W06
 BYTE   GnM1
 BYTE   N10  Ds4
 BYTE   W06
 BYTE   PAN   c_v+40
 BYTE   W06
 BYTE   GnM1
 BYTE   W06
 BYTE   Gs6
 BYTE   W06
 BYTE   FsM1
 BYTE   N10  Dn4
 BYTE   W06
 BYTE   PAN   c_v+40
 BYTE   W06
// 045   ----------------------------------------
 BYTE   GnM1
 BYTE   N10  Cn4
 BYTE   W12
 BYTE   As3
 BYTE   W12
 BYTE   Cn4
 BYTE   W12
 BYTE   Fn4
 BYTE   W24
 BYTE   N22  As3
 BYTE   W24
 BYTE   N10
 BYTE   W12
// 046   ----------------------------------------
 BYTE   N04  Cn4
 BYTE   W12
 BYTE   Ds4
 BYTE   W06
 BYTE   Cn4  v060
 BYTE   W06
 BYTE   Cn5  v100
 BYTE   W06
 BYTE   Ds4  v060
 BYTE   W06
 BYTE   Gn4  v100
 BYTE   W06
 BYTE   Cn5  v060
 BYTE   W06
 BYTE   Cn4  v100
 BYTE   W06
 BYTE   Gn4  v060
 BYTE   W06
 BYTE   Ds4  v100
 BYTE   W06
 BYTE   Cn4  v060
 BYTE   W06
 BYTE   Cn5  v100
 BYTE   W06
 BYTE   Ds4  v060
 BYTE   W06
 BYTE   Gn4  v100
 BYTE   W06
 BYTE   Cn5  v060
 BYTE   W06
// 047   ----------------------------------------
 BYTE   Cn4  v100
 BYTE   W06
 BYTE   Gn4  v060
 BYTE   W06
 BYTE   Ds4  v100
 BYTE   W06
 BYTE   Cn4  v060
 BYTE   W06
 BYTE   Cn5  v100
 BYTE   W06
 BYTE   Ds4  v060
 BYTE   W06
 BYTE   Gn4  v100
 BYTE   W06
 BYTE   Cn5  v060
 BYTE   W06
 BYTE   Cn4  v100
 BYTE   W06
 BYTE   Gn4  v060
 BYTE   W06
 BYTE   Ds4  v100
 BYTE   W06
 BYTE   Cn4  v060
 BYTE   W06
 BYTE   Cn5  v100
 BYTE   W06
 BYTE   Ds4  v060
 BYTE   W06
 BYTE   Gn4  v100
 BYTE   W06
 BYTE   Cn5  v060
 BYTE   W06
// 048   ----------------------------------------
 BYTE   As3  v100
 BYTE   W06
 BYTE   Gn4  v060
 BYTE   W06
 BYTE   Ds4  v100
 BYTE   W06
 BYTE   As3  v060
 BYTE   W06
 BYTE   As4  v100
 BYTE   W06
 BYTE   Ds4  v060
 BYTE   W06
 BYTE   Gn4  v100
 BYTE   W06
 BYTE   As4  v060
 BYTE   W06
 BYTE   As3  v100
 BYTE   W06
 BYTE   Gn4  v060
 BYTE   W06
 BYTE   Ds4  v100
 BYTE   W06
 BYTE   As3  v060
 BYTE   W06
 BYTE   As4  v100
 BYTE   W06
 BYTE   Ds4  v060
 BYTE   W06
 BYTE   Gn4  v100
 BYTE   W06
 BYTE   As4  v060
 BYTE   W06
// 049   ----------------------------------------
 BYTE   An3  v100
 BYTE   W06
 BYTE   Gn4  v060
 BYTE   W06
 BYTE   Ds4  v100
 BYTE   W06
 BYTE   An3  v060
 BYTE   W06
 BYTE   As4  v100
 BYTE   W06
 BYTE   Ds4  v060
 BYTE   W06
 BYTE   Fn4  v100
 BYTE   W06
 BYTE   As4  v060
 BYTE   W06
 BYTE   An3  v100
 BYTE   W06
 BYTE   Fn4  v060
 BYTE   W06
 BYTE   Ds4  v100
 BYTE   W06
 BYTE   An3  v060
 BYTE   W06
 BYTE   As4  v100
 BYTE   W06
 BYTE   Ds4  v060
 BYTE   W06
 BYTE   Fn4  v100
 BYTE   W06
 BYTE   As4  v060
 BYTE   W06
// 050   ----------------------------------------
 BYTE   Gs3  v100
 BYTE   W06
 BYTE   Fn4  v060
 BYTE   W06
 BYTE   Cn4  v100
 BYTE   W06
 BYTE   Gs3  v060
 BYTE   W06
 BYTE   Gs4  v100
 BYTE   W06
 BYTE   Cn4  v060
 BYTE   W06
 BYTE   Ds4  v100
 BYTE   W06
 BYTE   Gs4  v060
 BYTE   W06
 BYTE   Gs3  v100
 BYTE   W06
 BYTE   Ds4  v060
 BYTE   W06
 BYTE   Cn4  v100
 BYTE   W06
 BYTE   Gs3  v060
 BYTE   W06
 BYTE   Gs4  v100
 BYTE   W06
 BYTE   Cn4  v060
 BYTE   W06
 BYTE   Ds4  v100
 BYTE   W06
 BYTE   Gs4  v060
 BYTE   W06
// 051   ----------------------------------------
 BYTE   Gs3  v100
 BYTE   W06
 BYTE   Ds4  v060
 BYTE   W06
 BYTE   Cn4  v100
 BYTE   W06
 BYTE   Gs3  v060
 BYTE   W06
 BYTE   Gs4  v100
 BYTE   W06
 BYTE   Cn4  v060
 BYTE   W06
 BYTE   Ds4  v100
 BYTE   W06
 BYTE   Gs4  v060
 BYTE   W06
 BYTE   Gs3  v100
 BYTE   W06
 BYTE   Ds4  v060
 BYTE   W06
 BYTE   Cn4  v100
 BYTE   W06
 BYTE   Gs3  v060
 BYTE   W06
 BYTE   Gs4  v100
 BYTE   W06
 BYTE   Cn4  v060
 BYTE   W06
 BYTE   As4  v100
 BYTE   W06
 BYTE   Bn4
 BYTE   W06
// 052   ----------------------------------------
 BYTE   N92  Cn5
 BYTE   W96
// 053   ----------------------------------------
 BYTE   As4
 BYTE   W96
// 054   ----------------------------------------
 BYTE   Gn4
 BYTE   W96
// 055   ----------------------------------------
 BYTE   N10  Fn3
 BYTE   W12
 BYTE   N10
 BYTE   W24
 BYTE   N10
 BYTE   W24
 BYTE   N10
 BYTE   W24
 BYTE   N10
 BYTE   W12
// 056   ----------------------------------------
 BYTE   N92  Cn5
 BYTE   W96
// 057   ----------------------------------------
 BYTE   As4
 BYTE   W96
// 058   ----------------------------------------
 BYTE   Gn4
 BYTE   W96
// 059   ----------------------------------------
 BYTE   N10  Fn3
 BYTE   W12
 BYTE   N10
 BYTE   W24
 BYTE   N10
 BYTE   W24
 BYTE   N10
 BYTE   W24
 BYTE   N10
 BYTE   W10
 BYTE   GoTo
  POIN2 Label_8_0139E1D8
 BYTE   FINE

//**************** Track 10 (Midi-Chn.9) ****************//

song01B4_010:
// 000   ----------------------------------------
 BYTE   KEYSH   song01B4_key+0
 BYTE   VOICE   124
 BYTE   VOL   28*song01B4_mvl/mxv
 BYTE   W96
// 001   ----------------------------------------
 BYTE   W96
// 002   ----------------------------------------
 BYTE   N22  Dn1  v100
 BYTE   W96
// 003   ----------------------------------------
 BYTE   W24
 BYTE   N10
 BYTE   W12
 BYTE   N10
 BYTE   W24
 BYTE   N10
 BYTE   W12
 BYTE   N10
 BYTE   W24
// 004   ----------------------------------------
 BYTE   W36
 BYTE   N04  Dn1  v080
 BYTE   W06
 BYTE   Dn1  v088
 BYTE   W06
 BYTE   N22  Dn1  v100
 BYTE   W48
// 005   ----------------------------------------
 BYTE   W42
 BYTE   N01
 BYTE   W03
 BYTE   N01
 BYTE   W03
 BYTE   N04
 BYTE   W06
 BYTE   N04
 BYTE   W06
 BYTE   Dn2
 BYTE   W06
 BYTE   N04
 BYTE   W06
 BYTE   Dn1
 BYTE   W06
 BYTE   Cn2
 BYTE   W06
 BYTE   An1
 BYTE   W06
 BYTE   N04
 BYTE   W06
// 006   ----------------------------------------
Label_9_0139ED36:
 BYTE   N10  En1  v116
 BYTE   N22  Cs2  v100
 BYTE   W12
 BYTE   N04  En1  v084
 BYTE   W06
 BYTE   En1  v092
 BYTE   W06
 BYTE   N10  En1  v116
 BYTE   N22  Cs2  v100
 BYTE   W12
 BYTE   N04  En1  v084
 BYTE   W06
 BYTE   En1  v092
 BYTE   W06
 BYTE   N10  En1  v116
 BYTE   N22  Cs2  v100
 BYTE   W12
 BYTE   N04  En1  v084
 BYTE   W06
 BYTE   En1  v092
 BYTE   W06
 BYTE   N10  En1  v116
 BYTE   N22  Cs2  v100
 BYTE   W12
 BYTE   N04  En1  v084
 BYTE   W06
 BYTE   En1  v092
 BYTE   W06
 BYTE   PEND 
// 007   ----------------------------------------
 BYTE   PATT
  POIN2 Label_9_0139ED36
// 008   ----------------------------------------
 BYTE   PATT
  POIN2 Label_9_0139ED36
// 009   ----------------------------------------
 BYTE   N10  Cn2  v112
 BYTE   N22  Cs2  v100
 BYTE   W12
 BYTE   N04  En1  v084
 BYTE   W06
 BYTE   En1  v092
 BYTE   W06
 BYTE   N10  En1  v116
 BYTE   N22  Cs2  v100
 BYTE   W12
 BYTE   N10  Cn2  v112
 BYTE   W12
 BYTE   En1  v116
 BYTE   N22  Cs2  v100
 BYTE   W12
 BYTE   N10  Cn2  v112
 BYTE   W12
 BYTE   N04  Dn1  v100
 BYTE   N22  Cs2
 BYTE   W06
 BYTE   N04  Dn1
 BYTE   W06
 BYTE   N04
 BYTE   N10  An1
 BYTE   W06
 BYTE   N04  Dn1
 BYTE   W06
// 010   ----------------------------------------
 BYTE   PATT
  POIN2 Label_9_0139ED36
// 011   ----------------------------------------
 BYTE   PATT
  POIN2 Label_9_0139ED36
// 012   ----------------------------------------
 BYTE   N10  En1  v116
 BYTE   N22  Cs2  v100
 BYTE   W12
 BYTE   N04  En1  v084
 BYTE   W06
 BYTE   En1  v092
 BYTE   W06
 BYTE   N10  En1  v116
 BYTE   N22  Cs2  v100
 BYTE   W12
 BYTE   N04  En1  v084
 BYTE   W06
 BYTE   En1  v092
 BYTE   W06
 BYTE   N10  En1  v116
 BYTE   N22  Cs2  v100
 BYTE   W12
 BYTE   N04  En1  v084
 BYTE   W06
 BYTE   En1  v092
 BYTE   W06
 BYTE   En1  v116
 BYTE   N22  Cs2  v100
 BYTE   W06
 BYTE   N04  An1  v112
 BYTE   W06
 BYTE   En1  v084
 BYTE   W06
 BYTE   En1  v092
 BYTE   W06
// 013   ----------------------------------------
 BYTE   N10  Cn2  v112
 BYTE   N22  Cs2  v100
 BYTE   W12
 BYTE   N04  En1  v084
 BYTE   W06
 BYTE   En1  v092
 BYTE   W06
 BYTE   N10  Cn2  v112
 BYTE   N22  Cs2  v100
 BYTE   W12
 BYTE   N04  En1  v084
 BYTE   W06
 BYTE   En1  v092
 BYTE   W06
 BYTE   Dn1  v048
 BYTE   N10  En1  v100
 BYTE   N10  Cn2  v112
 BYTE   N22  Cs2  v100
 BYTE   W06
 BYTE   N04  Dn1  v052
 BYTE   W06
 BYTE   Dn1  v056
 BYTE   N04  En1  v084
 BYTE   W06
 BYTE   Dn1  v064
 BYTE   N04  En1  v092
 BYTE   W06
 BYTE   Dn1  v068
 BYTE   N10  Cn2  v112
 BYTE   N22  Cs2  v100
 BYTE   W06
 BYTE   N04  Dn1  v072
 BYTE   W06
 BYTE   Dn1  v080
 BYTE   N04  En1  v084
 BYTE   W06
 BYTE   Dn1
 BYTE   N04  En1  v092
 BYTE   W06
// 014   ----------------------------------------
Label_9_0139EE40:
 BYTE   N10  En1  v116
 BYTE   N10  Cs2  v100
 BYTE   W12
 BYTE   En1  v068
 BYTE   W12
 BYTE   Dn1  v100
 BYTE   N10  En1  v116
 BYTE   W12
 BYTE   En1  v068
 BYTE   N10  Cs2  v100
 BYTE   W12
 BYTE   En1  v116
 BYTE   W12
 BYTE   En1  v068
 BYTE   W12
 BYTE   Dn1  v092
 BYTE   N10  En1  v116
 BYTE   W12
 BYTE   En1  v068
 BYTE   N04  Cs2  v060
 BYTE   W06
 BYTE   Cs2  v080
 BYTE   W06
 BYTE   PEND 
// 015   ----------------------------------------
 BYTE   PATT
  POIN2 Label_9_0139EE40
// 016   ----------------------------------------
 BYTE   PATT
  POIN2 Label_9_0139EE40
// 017   ----------------------------------------
 BYTE   PATT
  POIN2 Label_9_0139EE40
// 018   ----------------------------------------
Label_9_0139EE7B:
 BYTE   N10  En1  v116
 BYTE   N10  Cs2  v100
 BYTE   W12
 BYTE   En1  v068
 BYTE   W12
 BYTE   Dn1  v100
 BYTE   N10  En1  v116
 BYTE   W12
 BYTE   En1  v068
 BYTE   N10  Cs2  v100
 BYTE   W12
 BYTE   En1  v116
 BYTE   W12
 BYTE   En1  v068
 BYTE   W12
 BYTE   En1  v116
 BYTE   W12
 BYTE   En1  v068
 BYTE   N04  Cs2  v060
 BYTE   W06
 BYTE   Cs2  v080
 BYTE   W06
 BYTE   PEND 
// 019   ----------------------------------------
 BYTE   PATT
  POIN2 Label_9_0139EE7B
// 020   ----------------------------------------
 BYTE   PATT
  POIN2 Label_9_0139EE7B
// 021   ----------------------------------------
 BYTE   N04  Dn1  v100
 BYTE   N10  En1  v116
 BYTE   N04  Cs2  v100
 BYTE   W06
 BYTE   Dn1
 BYTE   W06
 BYTE   N04
 BYTE   N10  En1  v068
 BYTE   W12
 BYTE   N04  Dn1  v100
 BYTE   N10  En1  v116
 BYTE   W06
 BYTE   N04  Dn1  v100
 BYTE   W06
 BYTE   N04
 BYTE   N10  En1  v068
 BYTE   N04  Cs2  v100
 BYTE   W12
 BYTE   Dn1
 BYTE   N10  En1  v116
 BYTE   W06
 BYTE   N04  Dn1  v100
 BYTE   W06
 BYTE   N04
 BYTE   N10  En1  v068
 BYTE   W12
 BYTE   N04  Dn1  v100
 BYTE   N10  En1  v116
 BYTE   N04  Cs2  v100
 BYTE   W06
 BYTE   Dn1
 BYTE   W06
 BYTE   En1  v116
 BYTE   N04  Cs2  v100
 BYTE   W06
 BYTE   Dn1
 BYTE   N04  An1
 BYTE   N04  Cn2  v112
 BYTE   W06
// 022   ----------------------------------------
Label_9_0139EEF9:
 BYTE   N32  En1  v116
 BYTE   N22  Cs2  v100
 BYTE   W24
 BYTE   Cs2  v072
 BYTE   W12
 BYTE   N04  En1  v084
 BYTE   W06
 BYTE   En1  v104
 BYTE   W06
 BYTE   N32  En1  v116
 BYTE   N22  Cs2  v100
 BYTE   W24
 BYTE   Cs2  v072
 BYTE   W12
 BYTE   N04  En1  v084
 BYTE   W06
 BYTE   En1  v104
 BYTE   W06
 BYTE   PEND 
// 023   ----------------------------------------
Label_9_0139EF1C:
 BYTE   N22  En1  v116
 BYTE   N32  Cs2  v100
 BYTE   W24
 BYTE   N10  An1  v112
 BYTE   W12
 BYTE   N56  Dn1  v100
 BYTE   N10  Cn2  v112
 BYTE   N10  Cs2  v072
 BYTE   W12
 BYTE   N32  En1  v116
 BYTE   N22  Cs2  v100
 BYTE   W24
 BYTE   Cs2  v072
 BYTE   W12
 BYTE   N04  En1  v084
 BYTE   W06
 BYTE   En1  v104
 BYTE   W06
 BYTE   PEND 
// 024   ----------------------------------------
 BYTE   PATT
  POIN2 Label_9_0139EEF9
// 025   ----------------------------------------
 BYTE   PATT
  POIN2 Label_9_0139EF1C
// 026   ----------------------------------------
 BYTE   PATT
  POIN2 Label_9_0139EEF9
// 027   ----------------------------------------
 BYTE   PATT
  POIN2 Label_9_0139EF1C
// 028   ----------------------------------------
 BYTE   N32  En1  v116
 BYTE   N22  Cs2  v100
 BYTE   W24
 BYTE   N22
 BYTE   W12
 BYTE   N04  En1  v084
 BYTE   W06
 BYTE   En1  v104
 BYTE   W06
 BYTE   N32  En1  v116
 BYTE   N22  Cs2  v100
 BYTE   W24
 BYTE   N22
 BYTE   W12
 BYTE   N04  En1  v084
 BYTE   W06
 BYTE   En1  v104
 BYTE   W06
// 029   ----------------------------------------
 BYTE   N22  En1  v116
 BYTE   N10  Cs2  v100
 BYTE   W12
 BYTE   N10
 BYTE   W12
 BYTE   An1  v112
 BYTE   N10  Cs2  v100
 BYTE   W12
 BYTE   N56  Dn1
 BYTE   N10  Cn2  v112
 BYTE   N10  Cs2  v100
 BYTE   W12
 BYTE   N32  En1  v116
 BYTE   N10  Cs2  v100
 BYTE   W12
 BYTE   N10
 BYTE   W12
 BYTE   N10
 BYTE   W12
 BYTE   N04  En1  v084
 BYTE   N10  Cs2  v100
 BYTE   W06
 BYTE   N04  En1  v104
 BYTE   W06
// 030   ----------------------------------------
Label_9_0139EFA5:
 BYTE   N10  Cs1  v100
 BYTE   W12
 BYTE   Cs1  v040
 BYTE   W12
 BYTE   Cs1  v080
 BYTE   W12
 BYTE   Cs1  v032
 BYTE   W12
 BYTE   Cs1  v100
 BYTE   W12
 BYTE   Cs1  v040
 BYTE   W12
 BYTE   Cs1  v080
 BYTE   W12
 BYTE   Cs1  v032
 BYTE   W12
 BYTE   PEND 
// 031   ----------------------------------------
 BYTE   Cs1  v100
 BYTE   W12
 BYTE   Cs1  v040
 BYTE   W12
 BYTE   Cs1  v080
 BYTE   W12
 BYTE   Cs1  v032
 BYTE   W12
 BYTE   Cs1  v100
 BYTE   N44  An2
 BYTE   W12
 BYTE   N10  Cs1  v040
 BYTE   W12
 BYTE   Cs1  v080
 BYTE   W12
 BYTE   Cs1  v032
 BYTE   W12
// 032   ----------------------------------------
 BYTE   PATT
  POIN2 Label_9_0139EFA5
// 033   ----------------------------------------
 BYTE   N10  Cs1  v100
 BYTE   W12
 BYTE   Cs1  v040
 BYTE   W12
 BYTE   Cs1  v080
 BYTE   W12
 BYTE   Cs1  v032
 BYTE   W12
 BYTE   Cs1  v100
 BYTE   N32  An2
 BYTE   W12
 BYTE   N10  Cs1  v040
 BYTE   W12
 BYTE   Cs1  v080
 BYTE   W12
 BYTE   N04  Dn1  v100
 BYTE   N10  An1
 BYTE   W06
 BYTE   N04  Dn1
 BYTE   W06
// 034   ----------------------------------------
 BYTE   N22  Cs2
 BYTE   N92  En2
 BYTE   N10  An2
 BYTE   W12
 BYTE   N04  Fn2
 BYTE   W06
 BYTE   Fn2  v064
 BYTE   W06
 BYTE   N22  Cs2  v100
 BYTE   N10  An2
 BYTE   W12
 BYTE   N04  Fn2
 BYTE   W06
 BYTE   Fn2  v064
 BYTE   W06
 BYTE   N10  Cs2  v100
 BYTE   N10  An2
 BYTE   W12
 BYTE   N04  Cs2  v040
 BYTE   N04  Fn2  v100
 BYTE   W06
 BYTE   Cs2  v048
 BYTE   N04  Fn2  v064
 BYTE   W06
 BYTE   N10  Cs2  v100
 BYTE   N10  An2
 BYTE   W12
 BYTE   N04  Cs2  v068
 BYTE   N04  Fn2  v100
 BYTE   W06
 BYTE   Cs2  v076
 BYTE   N04  Fn2  v064
 BYTE   W06
// 035   ----------------------------------------
 BYTE   N22  Cs2  v100
 BYTE   N10  An2
 BYTE   W12
 BYTE   N04  Fn2
 BYTE   W06
 BYTE   Fn2  v064
 BYTE   W06
 BYTE   N22  Cs2  v100
 BYTE   N10  An2
 BYTE   W12
 BYTE   N04  Fn2
 BYTE   W06
 BYTE   Fn2  v064
 BYTE   W06
 BYTE   N10  Cs2  v100
 BYTE   N10  An2
 BYTE   W12
 BYTE   Cs2  v080
 BYTE   N04  Fn2  v100
 BYTE   W06
 BYTE   Fn2  v064
 BYTE   W06
 BYTE   N10  Cs2  v100
 BYTE   N10  An2
 BYTE   W12
 BYTE   Dn1
 BYTE   N10  Cn2  v112
 BYTE   N04  Fn2  v100
 BYTE   W06
 BYTE   Fn2  v064
 BYTE   W06
// 036   ----------------------------------------
 BYTE   N22  Cs2  v100
 BYTE   N10  An2
 BYTE   W12
 BYTE   N04  Fn2
 BYTE   W06
 BYTE   Fn2  v064
 BYTE   W06
 BYTE   N10  Cs2  v100
 BYTE   N10  An2
 BYTE   W12
 BYTE   N04  Cs2  v040
 BYTE   N04  Fn2  v100
 BYTE   W06
 BYTE   Cs2  v048
 BYTE   N04  Fn2  v064
 BYTE   W06
 BYTE   N22  Cs2  v100
 BYTE   N10  An2
 BYTE   W12
 BYTE   N04  Fn2
 BYTE   W06
 BYTE   Fn2  v064
 BYTE   W06
 BYTE   N10  Cs2  v100
 BYTE   N10  An2
 BYTE   W12
 BYTE   N04  Cs2  v068
 BYTE   N04  Fn2  v100
 BYTE   W06
 BYTE   Cs2  v076
 BYTE   N04  Fn2  v064
 BYTE   W06
// 037   ----------------------------------------
 BYTE   N22  Cs2  v100
 BYTE   N10  An2
 BYTE   W12
 BYTE   N04  Fn2
 BYTE   W06
 BYTE   Fn2  v064
 BYTE   W06
 BYTE   N22  Cs2  v100
 BYTE   N10  An2
 BYTE   W12
 BYTE   N04  Fn2
 BYTE   W06
 BYTE   Fn2  v064
 BYTE   W06
 BYTE   N10  Cs2  v100
 BYTE   N10  An2
 BYTE   W12
 BYTE   N04  Dn1
 BYTE   N10  Cs2  v080
 BYTE   N04  Fn2  v100
 BYTE   W06
 BYTE   Dn1
 BYTE   N04  Fn2  v064
 BYTE   W06
 BYTE   Dn1  v100
 BYTE   N10  Cs2
 BYTE   N10  An2
 BYTE   W06
 BYTE   N04  Dn1
 BYTE   W06
 BYTE   N04
 BYTE   N10  An1
 BYTE   N04  Cn2
 BYTE   N04  Fn2
 BYTE   W06
 BYTE   Dn1
 BYTE   N04  Cn2
 BYTE   N04  Fn2  v064
 BYTE   W06
// 038   ----------------------------------------
Label_9_0139F0FB:
 BYTE   N92  An1  v100
 BYTE   N92  Cn2
 BYTE   N92  Cs2
 BYTE   N92  An2
 BYTE   W96
 BYTE   PEND 
// 039   ----------------------------------------
 BYTE   N80  An1
 BYTE   N80  Cn2
 BYTE   W84
 BYTE   N10  Cs2
 BYTE   W12
// 040   ----------------------------------------
 BYTE   PATT
  POIN2 Label_9_0139F0FB
// 041   ----------------------------------------
 BYTE   N80  An1  v100
 BYTE   N80  Cn2
 BYTE   N80  Cs2
 BYTE   W84
 BYTE   N10
 BYTE   W12
// 042   ----------------------------------------
Label_9_0139F11D:
 BYTE   N22  Cs2  v100
 BYTE   W24
 BYTE   N22
 BYTE   W24
 BYTE   N22
 BYTE   W24
 BYTE   N22
 BYTE   W24
 BYTE   PEND 
// 043   ----------------------------------------
 BYTE   PATT
  POIN2 Label_9_0139F11D
// 044   ----------------------------------------
 BYTE   N10  En1  v116
 BYTE   N22  Cs2  v100
 BYTE   W12
 BYTE   N10  En1  v076
 BYTE   W12
 BYTE   En1  v116
 BYTE   N22  Cs2  v100
 BYTE   W12
 BYTE   N10  En1  v076
 BYTE   W12
 BYTE   En1  v116
 BYTE   N22  Cs2  v100
 BYTE   W12
 BYTE   N10  En1  v076
 BYTE   W12
 BYTE   En1  v116
 BYTE   N22  Cs2  v100
 BYTE   W12
 BYTE   N10  En1  v076
 BYTE   W12
// 045   ----------------------------------------
 BYTE   En1  v116
 BYTE   N22  Cs2  v100
 BYTE   W12
 BYTE   N10  En1  v076
 BYTE   W12
 BYTE   N22  Dn1  v100
 BYTE   N10  En1  v116
 BYTE   N22  Cs2  v100
 BYTE   W12
 BYTE   N10  En1  v076
 BYTE   W12
 BYTE   En1  v116
 BYTE   N22  Cs2  v100
 BYTE   W12
 BYTE   N04  Dn1
 BYTE   N10  En1  v076
 BYTE   W06
 BYTE   N04  Dn1  v100
 BYTE   W06
 BYTE   Cn2  v112
 BYTE   N22  Cs2  v100
 BYTE   W06
 BYTE   N04  Dn1
 BYTE   N04  En1  v116
 BYTE   W06
 BYTE   Dn1  v100
 BYTE   N10  En1  v076
 BYTE   W06
 BYTE   N04  Dn1  v100
 BYTE   W06
// 046   ----------------------------------------
Label_9_0139F194:
 BYTE   N10  Cn2  v112
 BYTE   N22  Cs2  v100
 BYTE   W12
 BYTE   N10  En1  v088
 BYTE   W12
 BYTE   N22  Dn1  v100
 BYTE   N10  En1  v116
 BYTE   N22  Cs2  v100
 BYTE   N22  Dn6
 BYTE   W12
 BYTE   N10  En1  v088
 BYTE   W12
 BYTE   En1  v116
 BYTE   N22  Cs2  v100
 BYTE   W12
 BYTE   N10  En1  v088
 BYTE   W12
 BYTE   N22  Dn1  v100
 BYTE   N10  En1  v116
 BYTE   N22  Cs2  v100
 BYTE   N22  Dn6
 BYTE   W12
 BYTE   N10  En1  v088
 BYTE   W12
 BYTE   PEND 
// 047   ----------------------------------------
 BYTE   En1  v116
 BYTE   N22  Cs2  v100
 BYTE   N22  En2
 BYTE   W12
 BYTE   N10  En1  v088
 BYTE   W12
 BYTE   N22  Dn1  v100
 BYTE   N10  En1  v116
 BYTE   N22  Cs2  v100
 BYTE   N22  Dn6
 BYTE   W12
 BYTE   N10  En1  v088
 BYTE   W12
 BYTE   En1  v116
 BYTE   N22  Cs2  v100
 BYTE   W12
 BYTE   N10  En1  v088
 BYTE   W12
 BYTE   N22  Dn1  v100
 BYTE   N10  En1  v116
 BYTE   N10  Cs2  v100
 BYTE   N22  Dn6
 BYTE   W12
 BYTE   N10  En1  v088
 BYTE   N10  Cs2  v100
 BYTE   W12
// 048   ----------------------------------------
 BYTE   PATT
  POIN2 Label_9_0139F194
// 049   ----------------------------------------
 BYTE   N10  En1  v116
 BYTE   N22  Cs2  v100
 BYTE   N22  En2
 BYTE   W12
 BYTE   N10  En1  v088
 BYTE   W12
 BYTE   N22  Dn1  v100
 BYTE   N10  En1  v116
 BYTE   N22  Cs2  v100
 BYTE   N22  Dn6
 BYTE   W12
 BYTE   N10  En1  v088
 BYTE   W12
 BYTE   En1  v116
 BYTE   N22  Cs2  v100
 BYTE   W12
 BYTE   N10  En1  v088
 BYTE   W12
 BYTE   N22  Dn1  v100
 BYTE   N10  En1  v116
 BYTE   N22  Cs2  v100
 BYTE   N22  Dn6
 BYTE   W12
 BYTE   N10  En1  v088
 BYTE   W12
// 050   ----------------------------------------
 BYTE   N22  Dn1  v100
 BYTE   N22  Fs1
 BYTE   W96
// 051   ----------------------------------------
 BYTE   W72
 BYTE   N03  Dn1
 BYTE   N03  Dn2
 BYTE   W06
 BYTE   N04  Dn1
 BYTE   W06
 BYTE   N04
 BYTE   W06
 BYTE   An1
 BYTE   W06
// 052   ----------------------------------------
Label_9_0139F252:
 BYTE   N10  Cn2  v112
 BYTE   W12
 BYTE   En1  v116
 BYTE   N10  Cs2  v100
 BYTE   W12
 BYTE   Cn2  v112
 BYTE   N10  Dn6  v100
 BYTE   W12
 BYTE   N04  En1  v116
 BYTE   N10  Cs2  v100
 BYTE   W06
 BYTE   N04  En1  v116
 BYTE   W06
 BYTE   N10  Cn2  v112
 BYTE   W12
 BYTE   En1  v116
 BYTE   N10  Cs2  v100
 BYTE   W12
 BYTE   Cn2  v112
 BYTE   N10  Dn6  v100
 BYTE   W12
 BYTE   N04  En1  v116
 BYTE   N10  Cs2  v100
 BYTE   W06
 BYTE   N04  En1  v116
 BYTE   W06
 BYTE   PEND 
// 053   ----------------------------------------
Label_9_0139F289:
 BYTE   N10  Cn2  v112
 BYTE   W12
 BYTE   En1  v116
 BYTE   N04  Cs2  v100
 BYTE   W06
 BYTE   N04
 BYTE   W06
 BYTE   N10  Cn2  v112
 BYTE   N10  Dn6  v100
 BYTE   W12
 BYTE   En1  v116
 BYTE   N10  Cs2  v100
 BYTE   W12
 BYTE   Cn2  v112
 BYTE   W12
 BYTE   En1  v116
 BYTE   N04  Cs2  v100
 BYTE   W06
 BYTE   N04
 BYTE   W06
 BYTE   N10  Cn2  v112
 BYTE   N10  Cs2  v100
 BYTE   N10  Dn6
 BYTE   W12
 BYTE   N04  En1  v116
 BYTE   N04  Cs2  v100
 BYTE   W06
 BYTE   En1  v116
 BYTE   N04  Cs2  v100
 BYTE   W06
 BYTE   PEND 
// 054   ----------------------------------------
 BYTE   PATT
  POIN2 Label_9_0139F252
// 055   ----------------------------------------
 BYTE   N10  Cn2  v112
 BYTE   W12
 BYTE   En1  v116
 BYTE   N04  Cs2  v100
 BYTE   W06
 BYTE   N04
 BYTE   W06
 BYTE   N10  Cn2  v112
 BYTE   N10  Dn6  v100
 BYTE   W12
 BYTE   En1  v116
 BYTE   N04  Cs2  v100
 BYTE   W06
 BYTE   N04
 BYTE   W06
 BYTE   N10  Cn2  v112
 BYTE   N04  Cs2  v100
 BYTE   W06
 BYTE   N04
 BYTE   W06
 BYTE   N10  En1  v116
 BYTE   N04  Cs2  v100
 BYTE   W06
 BYTE   Dn1
 BYTE   W06
 BYTE   N10  En1  v116
 BYTE   N04  Cs2  v100
 BYTE   N10  Dn6
 BYTE   W06
 BYTE   N04  Dn1
 BYTE   W06
 BYTE   N04
 BYTE   N10  En1  v116
 BYTE   W06
 BYTE   N04  Dn1  v100
 BYTE   W06
// 056   ----------------------------------------
 BYTE   PATT
  POIN2 Label_9_0139F252
// 057   ----------------------------------------
 BYTE   PATT
  POIN2 Label_9_0139F289
// 058   ----------------------------------------
 BYTE   PATT
  POIN2 Label_9_0139F252
// 059   ----------------------------------------
 BYTE   N22  An1  v100
 BYTE   W12
 BYTE   N10  Dn1
 BYTE   N10  Cs2
 BYTE   N10  Dn6
 BYTE   W12
 BYTE   N22  Cn2  v112
 BYTE   W12
 BYTE   N10  Dn1  v100
 BYTE   N10  Cs2
 BYTE   N10  Dn6
 BYTE   W12
 BYTE   N22  An2
 BYTE   W12
 BYTE   N10  Dn1
 BYTE   N04  Cs2
 BYTE   N04  Dn6
 BYTE   W06
 BYTE   An1  v112
 BYTE   N04  Cs2  v100
 BYTE   N04  Dn6
 BYTE   W06
 BYTE   Dn1
 BYTE   W06
 BYTE   N04
 BYTE   W06
 BYTE   N04
 BYTE   W06
 BYTE   N04
 BYTE   N04  En1
 BYTE   N04  Fs1
 BYTE   N04  An1
 BYTE   W04
 BYTE   GoTo
  POIN2 Label_9_0139EEF9
 BYTE   FINE

//******************************************************//
	ALIGN 4

song01B4:
	BYTE	10	// NumTrks
	BYTE	0	// NumBlks
	BYTE	song01B4_pri	// Priority
	BYTE	song01B4_rev	// Reverb.
    
	POIN2	song01B4_grp
    
	POIN2	song01B4_001
	POIN2	song01B4_002
	POIN2	song01B4_003
	POIN2	song01B4_004
	POIN2	song01B4_005
	POIN2	song01B4_006
	POIN2	song01B4_007
	POIN2	song01B4_008
	POIN2	song01B4_009
	POIN2	song01B4_010

	
