//Event file generated from Sappy .s format.
	#include "MPlayDef.event"

	#define	song43_grp  BCVoices
	#define	song43_pri  0
	#define	song43_rev  0
	#define	song43_mvl  127
	#define	song43_key  0
	#define	song43_tbs  1
	#define	song43_exg  0
	#define	song43_cmp  1

	// .rodata
	//	song43
	ALIGN 4


//**************** Track 1 (Midi-Chn.0) ****************//

song43_001:
//  #01 //000   ----------------------------------------
 BYTE   KEYSH   song43_key+0
Label_0183CF5E:
 BYTE   TEMPO   120*song43_tbs/2
 BYTE   VOICE   1
 BYTE   PAN   c_v+0
 BYTE   VOL   22*song43_mvl/mxv
 BYTE   BEND   c_v+0
 BYTE   N07  Fn3  v100
 BYTE   W08
 BYTE   Gn3
 BYTE   W08
 BYTE   Gs3
 BYTE   W08
 BYTE   Fn3
 BYTE   W08
 BYTE   Ds3
 BYTE   W08
 BYTE   Cs3
 BYTE   W08
 BYTE   Fn3
 BYTE   W08
 BYTE   Gn3
 BYTE   W08
 BYTE   Gs3
 BYTE   W08
 BYTE   Fn3
 BYTE   W08
 BYTE   Ds3
 BYTE   W08
 BYTE   Cs3
 BYTE   W08
//  #01 //001   ----------------------------------------
 BYTE   Fn3
 BYTE   W08
 BYTE   Gn3
 BYTE   W08
 BYTE   Gs3
 BYTE   W08
 BYTE   Fn3
 BYTE   W08
 BYTE   Ds3
 BYTE   W08
 BYTE   Cs3
 BYTE   W08
 BYTE   Fn3
 BYTE   W08
 BYTE   Gn3
 BYTE   W08
 BYTE   Gs3
 BYTE   W08
 BYTE   Fn3
 BYTE   W08
 BYTE   Ds3
 BYTE   W08
 BYTE   Cs3
 BYTE   W08
//  #01 //002   ----------------------------------------
Label_0183CF9A:
 BYTE   N07  Fn3  v100
 BYTE   N07  Gs3
 BYTE   W08
 BYTE   Gn3
 BYTE   N07  As3
 BYTE   W08
 BYTE   Gs3
 BYTE   N07  Cn4
 BYTE   W08
 BYTE   Fn3
 BYTE   N07  Gs3
 BYTE   W08
 BYTE   Ds3
 BYTE   N07  Gn3
 BYTE   W08
 BYTE   Cs3
 BYTE   N07  Fn3
 BYTE   W08
 BYTE   N07
 BYTE   N07  Gs3
 BYTE   W08
 BYTE   Gn3
 BYTE   N07  As3
 BYTE   W08
 BYTE   Gs3
 BYTE   N07  Cn4
 BYTE   W08
 BYTE   Fn3
 BYTE   N07  Gs3
 BYTE   W08
 BYTE   Ds3
 BYTE   N07  Gn3
 BYTE   W08
 BYTE   Cs3
 BYTE   N07  Fn3
 BYTE   W08
 BYTE   PEND 
//  #01 //003   ----------------------------------------
 BYTE   PATT
  POIN2 Label_0183CF9A
//  #01 //004   ----------------------------------------
Label_0183CFD2:
 BYTE   N07  Cn3  v100
 BYTE   N07  Fn3
 BYTE   N07  Gs3
 BYTE   W08
 BYTE   Fn3
 BYTE   N07  Gn3
 BYTE   N07  As3
 BYTE   W08
 BYTE   Gs3
 BYTE   N07  Cn4
 BYTE   W08
 BYTE   Fn3
 BYTE   N07  Gs3
 BYTE   N07  Cn4
 BYTE   W08
 BYTE   Ds3
 BYTE   N07  Gn3
 BYTE   N07  Gs3
 BYTE   W08
 BYTE   Cs3
 BYTE   N07  Fn3
 BYTE   N07  Gn3
 BYTE   W08
 BYTE   Cn3
 BYTE   N07  Fn3
 BYTE   N07  Gs3
 BYTE   W08
 BYTE   Fn3
 BYTE   N07  Gn3
 BYTE   N07  As3
 BYTE   W08
 BYTE   Gs3
 BYTE   N07  Cn4
 BYTE   W08
 BYTE   Fn3
 BYTE   N07  Gs3
 BYTE   N07  Cn4
 BYTE   W08
 BYTE   Ds3
 BYTE   N07  Gn3
 BYTE   N07  Gs3
 BYTE   W08
 BYTE   Cs3
 BYTE   N07  Fn3
 BYTE   N07  Gn3
 BYTE   W08
 BYTE   PEND 
//  #01 //005   ----------------------------------------
 BYTE   PATT
  POIN2 Label_0183CFD2
//  #01 //006   ----------------------------------------
Label_0183D01E:
 BYTE   N07  Cn3  v100
 BYTE   N07  Fn3
 BYTE   N07  Gs3
 BYTE   N07  Fn4
 BYTE   W08
 BYTE   Fn3
 BYTE   N07  Gn3
 BYTE   N07  As3
 BYTE   N07  Gn4
 BYTE   W08
 BYTE   Gs3
 BYTE   N07  Cn4
 BYTE   N07  Gs4
 BYTE   W08
 BYTE   Fn3
 BYTE   N07  Gs3
 BYTE   N07  Cn4
 BYTE   N07  Gn4
 BYTE   W08
 BYTE   Ds3
 BYTE   N07  Gn3
 BYTE   N07  Gs3
 BYTE   N07  Fn4
 BYTE   W08
 BYTE   Cs3
 BYTE   N07  Fn3
 BYTE   N07  Gn3
 BYTE   N07  Cn4
 BYTE   W08
 BYTE   Cn3
 BYTE   N07  Fn3
 BYTE   N07  Gs3
 BYTE   N07  Fn4
 BYTE   W08
 BYTE   Fn3
 BYTE   N07  Gn3
 BYTE   N07  As3
 BYTE   N07  Gn4
 BYTE   W08
 BYTE   Gs3
 BYTE   N07  Cn4
 BYTE   N07  Gs4
 BYTE   W08
 BYTE   Fn3
 BYTE   N07  Gs3
 BYTE   N07  Cn4
 BYTE   N07  Gn4
 BYTE   W08
 BYTE   Ds3
 BYTE   N07  Gn3
 BYTE   N07  Gs3
 BYTE   N07  Fn4
 BYTE   W08
 BYTE   Cs3
 BYTE   N07  Fn3
 BYTE   N07  Gn3
 BYTE   N07  Cn4
 BYTE   W08
 BYTE   PEND 
//  #01 //007   ----------------------------------------
 BYTE   PATT
  POIN2 Label_0183D01E
//  #01 //008   ----------------------------------------
Label_0183D082:
 BYTE   N07  Cn3  v100
 BYTE   N07  Fn3
 BYTE   N07  Gs3
 BYTE   N07  Fn4
 BYTE   N07  Gs4
 BYTE   W08
 BYTE   Fn3
 BYTE   N07  Gn3
 BYTE   N07  As3
 BYTE   N07  Gn4
 BYTE   N07  As4
 BYTE   W08
 BYTE   Gs3
 BYTE   N07  Cn4
 BYTE   N07  Gs4
 BYTE   N07  Cn5
 BYTE   W08
 BYTE   Fn3
 BYTE   N07  Gs3
 BYTE   N07  Cn4
 BYTE   N07  Gn4
 BYTE   N07  Gs4
 BYTE   W08
 BYTE   Ds3
 BYTE   N07  Gn3
 BYTE   N07  Gs3
 BYTE   N07  Fn4
 BYTE   N07  Gn4
 BYTE   W08
 BYTE   Cs3
 BYTE   N07  Fn3
 BYTE   N07  Gn3
 BYTE   N07  Cn4
 BYTE   N07  Fn4
 BYTE   W08
 BYTE   Cn3
 BYTE   N07  Fn3
 BYTE   N07  Gs3
 BYTE   N07  Fn4
 BYTE   N07  Gs4
 BYTE   W08
 BYTE   Fn3
 BYTE   N07  Gn3
 BYTE   N07  As3
 BYTE   N07  Gn4
 BYTE   N07  As4
 BYTE   W08
 BYTE   Gs3
 BYTE   N07  Cn4
 BYTE   N07  Gs4
 BYTE   N07  Cn5
 BYTE   W08
 BYTE   Fn3
 BYTE   N07  Gs3
 BYTE   N07  Cn4
 BYTE   N07  Gn4
 BYTE   N07  Gs4
 BYTE   W08
 BYTE   Ds3
 BYTE   N07  Gn3
 BYTE   N07  Gs3
 BYTE   N07  Fn4
 BYTE   N07  Gn4
 BYTE   W08
 BYTE   Cs3
 BYTE   N07  Fn3
 BYTE   N07  Gn3
 BYTE   N07  Cn4
 BYTE   N07  Fn4
 BYTE   W08
 BYTE   PEND 
//  #01 //009   ----------------------------------------
 BYTE   PATT
  POIN2 Label_0183D082
//  #01 //010   ----------------------------------------
Label_0183D0FE:
 BYTE   N07  Cn3  v100
 BYTE   N07  Fn3
 BYTE   N07  Gs3
 BYTE   N07  Cn4
 BYTE   N07  Fn4
 BYTE   N07  Gs4
 BYTE   W08
 BYTE   Fn3
 BYTE   N07  Gn3
 BYTE   N07  As3
 BYTE   N07  Cs4
 BYTE   N07  Gn4
 BYTE   N07  As4
 BYTE   W08
 BYTE   Gs3
 BYTE   N07  Cn4
 BYTE   N07  Ds4
 BYTE   N07  Gs4
 BYTE   N07  Cn5
 BYTE   W08
 BYTE   Fn3
 BYTE   N07  Gs3
 BYTE   N07  Cn4
 BYTE   N07  Gn4
 BYTE   N07  Gs4
 BYTE   N07  As4
 BYTE   W08
 BYTE   Ds3
 BYTE   N07  Gn3
 BYTE   N07  Gs3
 BYTE   N07  Fn4
 BYTE   N07  Gn4
 BYTE   N07  Gs4
 BYTE   W08
 BYTE   Cs3
 BYTE   N07  Fn3
 BYTE   N07  Gn3
 BYTE   N07  Cn4
 BYTE   N07  Fn4
 BYTE   N07  Gn4
 BYTE   W08
 BYTE   Cn3
 BYTE   N07  Fn3
 BYTE   N07  Gs3
 BYTE   N07  Cn4
 BYTE   N07  Fn4
 BYTE   N07  Gs4
 BYTE   W08
 BYTE   Fn3
 BYTE   N07  Gn3
 BYTE   N07  As3
 BYTE   N07  Cs4
 BYTE   N07  Gn4
 BYTE   N07  As4
 BYTE   W08
 BYTE   Gs3
 BYTE   N07  Cn4
 BYTE   N07  Ds4
 BYTE   N07  Gs4
 BYTE   N07  Cn5
 BYTE   W08
 BYTE   Fn3
 BYTE   N07  Gs3
 BYTE   N07  Cn4
 BYTE   N07  Gn4
 BYTE   N07  Gs4
 BYTE   N07  As4
 BYTE   W08
 BYTE   Ds3
 BYTE   N07  Gn3
 BYTE   N07  Gs3
 BYTE   N07  Fn4
 BYTE   N07  Gn4
 BYTE   N07  Gs4
 BYTE   W08
 BYTE   Cs3
 BYTE   N07  Fn3
 BYTE   N07  Gn3
 BYTE   N07  Cn4
 BYTE   N07  Fn4
 BYTE   N07  Gn4
 BYTE   W08
 BYTE   PEND 
//  #01 //011   ----------------------------------------
 BYTE   PATT
  POIN2 Label_0183D0FE
//  #01 //012   ----------------------------------------
 BYTE   PATT
  POIN2 Label_0183D0FE
//  #01 //013   ----------------------------------------
 BYTE   PATT
  POIN2 Label_0183D0FE
//  #01 //014   ----------------------------------------
 BYTE   PATT
  POIN2 Label_0183D0FE
//  #01 //015   ----------------------------------------
 BYTE   PATT
  POIN2 Label_0183D0FE
//  #01 //016   ----------------------------------------
 BYTE   PATT
  POIN2 Label_0183D0FE
//  #01 //017   ----------------------------------------
 BYTE   PATT
  POIN2 Label_0183D0FE
//  #01 //018   ----------------------------------------
 BYTE   PATT
  POIN2 Label_0183D0FE
//  #01 //019   ----------------------------------------
 BYTE   PATT
  POIN2 Label_0183D0FE
//  #01 //020   ----------------------------------------
 BYTE   PATT
  POIN2 Label_0183D0FE
//  #01 //021   ----------------------------------------
 BYTE   PATT
  POIN2 Label_0183D0FE
//  #01 //022   ----------------------------------------
 BYTE   PATT
  POIN2 Label_0183D0FE
//  #01 //023   ----------------------------------------
 BYTE   PATT
  POIN2 Label_0183D0FE
//  #01 //024   ----------------------------------------
 BYTE   PATT
  POIN2 Label_0183D0FE
//  #01 //025   ----------------------------------------
 BYTE   PATT
  POIN2 Label_0183D0FE
//  #01 //026   ----------------------------------------
 BYTE   PATT
  POIN2 Label_0183D0FE
//  #01 //027   ----------------------------------------
 BYTE   PATT
  POIN2 Label_0183D0FE
//  #01 //028   ----------------------------------------
 BYTE   PATT
  POIN2 Label_0183D0FE
//  #01 //029   ----------------------------------------
 BYTE   PATT
  POIN2 Label_0183D0FE
//  #01 //030   ----------------------------------------
Label_0183D1EC:
 BYTE   N07  Cn3  v100
 BYTE   N07  Fn3
 BYTE   N07  Gs3
 BYTE   N07  Cn4
 BYTE   N07  Ds4
 BYTE   N07  Fn4
 BYTE   N07  Gs4
 BYTE   W08
 BYTE   Fn3
 BYTE   N07  Gn3
 BYTE   N07  As3
 BYTE   N07  Cs4
 BYTE   N07  Fn4
 BYTE   N07  Gn4
 BYTE   N07  As4
 BYTE   W08
 BYTE   Gs3
 BYTE   N07  Cn4
 BYTE   N07  Ds4
 BYTE   N07  Gs4
 BYTE   N07  As4
 BYTE   N07  Cn5
 BYTE   W08
 BYTE   Fn3
 BYTE   N07  Gs3
 BYTE   N07  Cn4
 BYTE   N07  Fn4
 BYTE   N07  Gn4
 BYTE   N07  Gs4
 BYTE   N07  As4
 BYTE   W08
 BYTE   Ds3
 BYTE   N07  Gn3
 BYTE   N07  Gs3
 BYTE   N07  Ds4
 BYTE   N07  Fn4
 BYTE   N07  Gn4
 BYTE   N07  Gs4
 BYTE   W08
 BYTE   Cs3
 BYTE   N07  Fn3
 BYTE   N07  Gn3
 BYTE   N07  As3
 BYTE   N07  Cn4
 BYTE   N07  Fn4
 BYTE   N07  Gn4
 BYTE   W08
 BYTE   Cn3
 BYTE   N07  Fn3
 BYTE   N07  Gs3
 BYTE   N07  Cn4
 BYTE   N07  Ds4
 BYTE   N07  Fn4
 BYTE   N07  Gs4
 BYTE   W08
 BYTE   Fn3
 BYTE   N07  Gn3
 BYTE   N07  As3
 BYTE   N07  Cs4
 BYTE   N07  Fn4
 BYTE   N07  Gn4
 BYTE   N07  As4
 BYTE   W08
 BYTE   Gs3
 BYTE   N07  Cn4
 BYTE   N07  Ds4
 BYTE   N07  Gs4
 BYTE   N07  As4
 BYTE   N07  Cn5
 BYTE   W08
 BYTE   Fn3
 BYTE   N07  Gs3
 BYTE   N07  Cn4
 BYTE   N07  Fn4
 BYTE   N07  Gn4
 BYTE   N07  Gs4
 BYTE   N07  As4
 BYTE   W08
 BYTE   Ds3
 BYTE   N07  Gn3
 BYTE   N07  Gs3
 BYTE   N07  Ds4
 BYTE   N07  Fn4
 BYTE   N07  Gn4
 BYTE   N07  Gs4
 BYTE   W08
 BYTE   Cs3
 BYTE   N07  Fn3
 BYTE   N07  Gn3
 BYTE   N07  As3
 BYTE   N07  Cn4
 BYTE   N07  Fn4
 BYTE   N07  Gn4
 BYTE   W08
 BYTE   PEND 
//  #01 //031   ----------------------------------------
 BYTE   PATT
  POIN2 Label_0183D1EC
//  #01 //032   ----------------------------------------
Label_0183D298:
 BYTE   N07  Cn3  v100
 BYTE   N07  Fn3
 BYTE   N07  Gs3
 BYTE   N07  Cn4
 BYTE   N07  Ds4
 BYTE   N07  Fn4
 BYTE   N07  Gs4
 BYTE   W08
 BYTE   Fn3
 BYTE   N07  Gn3
 BYTE   N07  As3
 BYTE   N07  Cs4
 BYTE   N07  Fn4
 BYTE   N07  Gn4
 BYTE   N07  Cn5
 BYTE   W08
 BYTE   Gs3
 BYTE   N07  Cn4
 BYTE   N07  Ds4
 BYTE   N07  Gs4
 BYTE   N07  As4
 BYTE   N07  Cn5
 BYTE   W08
 BYTE   Fn3
 BYTE   N07  Gs3
 BYTE   N07  Cn4
 BYTE   N07  Fn4
 BYTE   N07  Gn4
 BYTE   N07  Gs4
 BYTE   N07  Cn5
 BYTE   W08
 BYTE   Ds3
 BYTE   N07  Gn3
 BYTE   N07  Gs3
 BYTE   N07  Ds4
 BYTE   N07  Fn4
 BYTE   N07  Gn4
 BYTE   N07  Gs4
 BYTE   W08
 BYTE   Cs3
 BYTE   N07  Fn3
 BYTE   N07  Gn3
 BYTE   N07  As3
 BYTE   N07  Cn4
 BYTE   N07  Fn4
 BYTE   N07  Gn4
 BYTE   W08
 BYTE   Cn3
 BYTE   N07  Fn3
 BYTE   N07  Gs3
 BYTE   N07  Cn4
 BYTE   N07  Ds4
 BYTE   N07  Fn4
 BYTE   N07  Gs4
 BYTE   W08
 BYTE   Fn3
 BYTE   N07  Gn3
 BYTE   N07  As3
 BYTE   N07  Cs4
 BYTE   N07  Fn4
 BYTE   N07  Gn4
 BYTE   N07  Cn5
 BYTE   W08
 BYTE   Gs3
 BYTE   N07  Cn4
 BYTE   N07  Ds4
 BYTE   N07  Gs4
 BYTE   N07  As4
 BYTE   N07  Cn5
 BYTE   W08
 BYTE   Fn3
 BYTE   N07  Gs3
 BYTE   N07  Cn4
 BYTE   N07  Fn4
 BYTE   N07  Gn4
 BYTE   N07  Gs4
 BYTE   N07  Cn5
 BYTE   W08
 BYTE   Ds3
 BYTE   N07  Gn3
 BYTE   N07  Gs3
 BYTE   N07  Ds4
 BYTE   N07  Fn4
 BYTE   N07  Gn4
 BYTE   N07  Gs4
 BYTE   W08
 BYTE   Cs3
 BYTE   N07  Fn3
 BYTE   N07  Gn3
 BYTE   N07  As3
 BYTE   N07  Cn4
 BYTE   N07  Fn4
 BYTE   N07  Gn4
 BYTE   W08
 BYTE   PEND 
//  #01 //033   ----------------------------------------
 BYTE   PATT
  POIN2 Label_0183D298
//  #01 //034   ----------------------------------------
 BYTE   PATT
  POIN2 Label_0183D1EC
//  #01 //035   ----------------------------------------
 BYTE   PATT
  POIN2 Label_0183D1EC
//  #01 //036   ----------------------------------------
 BYTE   PATT
  POIN2 Label_0183D298
//  #01 //037   ----------------------------------------
 BYTE   N07  Cn3  v100
 BYTE   N07  Fn3
 BYTE   N07  Gs3
 BYTE   N07  Cn4
 BYTE   N07  Ds4
 BYTE   N07  Fn4
 BYTE   N07  Gs4
 BYTE   N07  Cn5
 BYTE   W08
 BYTE   Fn3
 BYTE   N07  Gn3
 BYTE   N07  As3
 BYTE   N07  Cs4
 BYTE   N07  Fn4
 BYTE   N07  Gn4
 BYTE   N07  As4
 BYTE   N07  Fn5
 BYTE   W08
 BYTE   Gs3
 BYTE   N07  Cn4
 BYTE   N07  Ds4
 BYTE   N07  Gs4
 BYTE   N07  As4
 BYTE   N07  Cn5
 BYTE   N07  Fn5
 BYTE   W08
 BYTE   Fn3
 BYTE   N07  Gs3
 BYTE   N07  Cn4
 BYTE   N07  Fn4
 BYTE   N07  Gn4
 BYTE   N07  Gs4
 BYTE   N07  As4
 BYTE   N07  Fn5
 BYTE   W08
 BYTE   Ds3
 BYTE   N07  Gn3
 BYTE   N07  Gs3
 BYTE   N07  Ds4
 BYTE   N07  Fn4
 BYTE   N07  Gn4
 BYTE   N07  Gs4
 BYTE   N07  Cn5
 BYTE   W08
 BYTE   Cs3
 BYTE   N07  Fn3
 BYTE   N07  Gn3
 BYTE   N07  As3
 BYTE   N07  Cn4
 BYTE   N07  Fn4
 BYTE   N07  Gn4
 BYTE   N07  As4
 BYTE   W08
 BYTE   Cn3
 BYTE   N07  Fn3
 BYTE   N07  Gs3
 BYTE   N07  Cn4
 BYTE   N07  Ds4
 BYTE   N07  Fn4
 BYTE   N07  Gs4
 BYTE   N07  Cn5
 BYTE   W08
 BYTE   Fn3
 BYTE   N07  Gn3
 BYTE   N07  As3
 BYTE   N07  Cs4
 BYTE   N07  Fn4
 BYTE   N07  Gn4
 BYTE   N07  Fn5
 BYTE   W08
 BYTE   Gs3
 BYTE   N07  Cn4
 BYTE   N07  Ds4
 BYTE   N07  Gs4
 BYTE   N07  As4
 BYTE   N07  Cn5
 BYTE   N07  Fn5
 BYTE   W08
 BYTE   Fn3
 BYTE   N07  Gs3
 BYTE   N07  Cn4
 BYTE   N07  Fn4
 BYTE   N07  Gn4
 BYTE   N07  Gs4
 BYTE   N07  Fn5
 BYTE   W08
 BYTE   Ds3
 BYTE   N07  Gn3
 BYTE   N07  Gs3
 BYTE   N07  Ds4
 BYTE   N07  Fn4
 BYTE   N07  Gn4
 BYTE   N07  Gs4
 BYTE   N07  Cn5
 BYTE   W08
 BYTE   Cs3
 BYTE   N07  Fn3
 BYTE   N07  Gn3
 BYTE   N07  As3
 BYTE   N07  Cn4
 BYTE   N07  Fn4
 BYTE   N07  Gn4
 BYTE   N07  As4
 BYTE   W08
//  #01 //038   ----------------------------------------
 BYTE   PATT
  POIN2 Label_0183D0FE
//  #01 //039   ----------------------------------------
 BYTE   PATT
  POIN2 Label_0183D0FE
//  #01 //040   ----------------------------------------
 BYTE   N07  Cn3  v100
 BYTE   N07  Fn3
 BYTE   N07  Gs3
 BYTE   N07  Fn4
 BYTE   W08
 BYTE   Fn3
 BYTE   N07  Gn3
 BYTE   N07  As3
 BYTE   N07  Gn4
 BYTE   W08
 BYTE   Gs3
 BYTE   N07  Cn4
 BYTE   N07  Gs4
 BYTE   W08
 BYTE   Fn3
 BYTE   N07  Gs3
 BYTE   N07  Cn4
 BYTE   N07  Gn4
 BYTE   W08
 BYTE   Ds3
 BYTE   N07  Gn3
 BYTE   N07  Gs3
 BYTE   N07  Fn4
 BYTE   W08
 BYTE   Cs3
 BYTE   N07  Fn3
 BYTE   N07  Gn3
 BYTE   N07  Cn4
 BYTE   W08
 BYTE   Cn3
 BYTE   N07  Fn3
 BYTE   N07  Gs3
 BYTE   W08
 BYTE   Fn3
 BYTE   N07  Gn3
 BYTE   N07  As3
 BYTE   W08
 BYTE   Gs3
 BYTE   N07  Cn4
 BYTE   W08
 BYTE   Fn3
 BYTE   N07  Gs3
 BYTE   N07  Cn4
 BYTE   W08
 BYTE   Ds3
 BYTE   N07  Gn3
 BYTE   N07  Gs3
 BYTE   W08
 BYTE   Cs3
 BYTE   N07  Fn3
 BYTE   N07  Gn3
 BYTE   W08
//  #01 //041   ----------------------------------------
 BYTE   Fn3
 BYTE   N07  Gs3
 BYTE   W08
 BYTE   Gn3
 BYTE   N07  As3
 BYTE   W08
 BYTE   Gs3
 BYTE   N07  Cn4
 BYTE   W08
 BYTE   Fn3
 BYTE   N07  Gs3
 BYTE   W08
 BYTE   Ds3
 BYTE   N07  Gn3
 BYTE   W08
 BYTE   Cs3
 BYTE   N07  Fn3
 BYTE   W08
 BYTE   N07
 BYTE   W08
 BYTE   Gn3
 BYTE   W08
 BYTE   Gs3
 BYTE   W08
 BYTE   Gn3
 BYTE   W08
 BYTE   N15  Fn3
 BYTE   W16
//  #01 //042   ----------------------------------------
 BYTE   GoTo
  POIN2 Label_0183CF5E
//  #01 //043   ----------------------------------------
 BYTE   TEMPO   120*song43_tbs/2
 BYTE   PAN   c_v+0
 BYTE   VOL   22*song43_mvl/mxv
 BYTE   BEND   c_v+0
 BYTE   FINE

//**************** Track 2 (Midi-Chn.1) ****************//

song43_002:
//  #02 //000   ----------------------------------------
 BYTE   KEYSH   song43_key+0
Label_0183D49E:
 BYTE   VOICE   48
 BYTE   PAN   c_v-23
 BYTE   VOL   36*song43_mvl/mxv
 BYTE   BEND   c_v+0
 BYTE   W96
//  #02 //001   ----------------------------------------
 BYTE   W96
//  #02 //002   ----------------------------------------
 BYTE   W96
//  #02 //003   ----------------------------------------
 BYTE   W96
//  #02 //004   ----------------------------------------
 BYTE   W96
//  #02 //005   ----------------------------------------
 BYTE   W96
//  #02 //006   ----------------------------------------
 BYTE   W96
//  #02 //007   ----------------------------------------
 BYTE   W96
//  #02 //008   ----------------------------------------
 BYTE   W96
//  #02 //009   ----------------------------------------
 BYTE   W96
//  #02 //010   ----------------------------------------
 BYTE   W96
//  #02 //011   ----------------------------------------
 BYTE   W96
//  #02 //012   ----------------------------------------
 BYTE   W96
//  #02 //013   ----------------------------------------
 BYTE   W96
//  #02 //014   ----------------------------------------
 BYTE   TIE  Fn1  v100
 BYTE   W96
//  #02 //015   ----------------------------------------
 BYTE   W92
 BYTE   W03
 BYTE   EOT
 BYTE   W01
//  #02 //016   ----------------------------------------
 BYTE   TIE  Ds1
 BYTE   W96
//  #02 //017   ----------------------------------------
 BYTE   W92
 BYTE   W03
 BYTE   EOT
 BYTE   W01
//  #02 //018   ----------------------------------------
 BYTE   TIE  Fn1
 BYTE   W96
//  #02 //019   ----------------------------------------
 BYTE   W92
 BYTE   W03
 BYTE   EOT
 BYTE   W01
//  #02 //020   ----------------------------------------
 BYTE   TIE  Ds1
 BYTE   W96
//  #02 //021   ----------------------------------------
 BYTE   W92
 BYTE   W03
 BYTE   EOT
 BYTE   W01
//  #02 //022   ----------------------------------------
Label_0183D4D1:
 BYTE   TIE  Fn1  v100
 BYTE   TIE  Cn2
 BYTE   W96
 BYTE   PEND 
//  #02 //023   ----------------------------------------
 BYTE   W92
 BYTE   W03
 BYTE   EOT
 BYTE   Fn1  v048
 BYTE   W01
//  #02 //024   ----------------------------------------
 BYTE   TIE  Fn1
 BYTE   TIE  Cs2
 BYTE   W96
//  #02 //025   ----------------------------------------
 BYTE   W92
 BYTE   W03
 BYTE   EOT
 BYTE   Fn1  v049
 BYTE   W01
//  #02 //026   ----------------------------------------
 BYTE   TIE  As1
 BYTE   TIE  Ds2
 BYTE   W96
//  #02 //027   ----------------------------------------
 BYTE   W92
 BYTE   W03
 BYTE   EOT
 BYTE   As1  v051
 BYTE   W01
//  #02 //028   ----------------------------------------
 BYTE   PATT
  POIN2 Label_0183D4D1
//  #02 //029   ----------------------------------------
 BYTE   W92
 BYTE   W03
 BYTE   EOT
 BYTE   Fn1  v048
 BYTE   W01
//  #02 //030   ----------------------------------------
 BYTE   PATT
  POIN2 Label_0183D4D1
//  #02 //031   ----------------------------------------
 BYTE   W92
 BYTE   W03
 BYTE   EOT
 BYTE   Fn1  v048
 BYTE   W01
//  #02 //032   ----------------------------------------
 BYTE   TIE  Gs1  v100
 BYTE   TIE  Fn2
 BYTE   W96
//  #02 //033   ----------------------------------------
 BYTE   W92
 BYTE   W03
 BYTE   EOT
 BYTE   Gs1  v053
 BYTE   W01
//  #02 //034   ----------------------------------------
 BYTE   TIE  Gn1
 BYTE   TIE  Ds2
 BYTE   W96
//  #02 //035   ----------------------------------------
 BYTE   W92
 BYTE   W03
 BYTE   EOT
 BYTE   Gn1  v051
 BYTE   W01
//  #02 //036   ----------------------------------------
 BYTE   PATT
  POIN2 Label_0183D4D1
//  #02 //037   ----------------------------------------
 BYTE   N92  Fn2  v100
 BYTE   W92
 BYTE   W03
 BYTE   EOT
 BYTE   Fn1  v048
 BYTE   W01
//  #02 //038   ----------------------------------------
 BYTE   TIE  Fn1
 BYTE   W96
//  #02 //039   ----------------------------------------
 BYTE   W92
 BYTE   W03
 BYTE   EOT
 BYTE   W01
//  #02 //040   ----------------------------------------
 BYTE   W96
//  #02 //041   ----------------------------------------
 BYTE   W96
//  #02 //042   ----------------------------------------
 BYTE   GoTo
  POIN2 Label_0183D49E
//  #02 //043   ----------------------------------------
 BYTE   VOICE   51
 BYTE   PAN   c_v-23
 BYTE   VOL   36*song43_mvl/mxv
 BYTE   BEND   c_v+0
 BYTE   FINE

//**************** Track 3 (Midi-Chn.2) ****************//

song43_003:
//  #03 //000   ----------------------------------------
 BYTE   KEYSH   song43_key+0
Label_018C1AFE:
 BYTE   VOICE   49
 BYTE   PAN   c_v+21
 BYTE   VOL   36*song43_mvl/mxv
 BYTE   BEND   c_v+0
 BYTE   W96
//  #03 //001   ----------------------------------------
 BYTE   W96
//  #03 //002   ----------------------------------------
 BYTE   W96
//  #03 //003   ----------------------------------------
 BYTE   W96
//  #03 //004   ----------------------------------------
 BYTE   W96
//  #03 //005   ----------------------------------------
 BYTE   W96
//  #03 //006   ----------------------------------------
 BYTE   W96
//  #03 //007   ----------------------------------------
 BYTE   W96
//  #03 //008   ----------------------------------------
 BYTE   W96
//  #03 //009   ----------------------------------------
 BYTE   W96
//  #03 //010   ----------------------------------------
 BYTE   W96
//  #03 //011   ----------------------------------------
 BYTE   W96
//  #03 //012   ----------------------------------------
 BYTE   W96
//  #03 //013   ----------------------------------------
 BYTE   W96
//  #03 //014   ----------------------------------------
 BYTE   TIE  Fn1  v100
 BYTE   W96
//  #03 //015   ----------------------------------------
 BYTE   W92
 BYTE   W03
 BYTE   EOT
 BYTE   W01
//  #03 //016   ----------------------------------------
 BYTE   TIE  Ds1
 BYTE   W96
//  #03 //017   ----------------------------------------
 BYTE   W92
 BYTE   W03
 BYTE   EOT
 BYTE   W01
//  #03 //018   ----------------------------------------
 BYTE   TIE  Fn1
 BYTE   W96
//  #03 //019   ----------------------------------------
 BYTE   W92
 BYTE   W03
 BYTE   EOT
 BYTE   W01
//  #03 //020   ----------------------------------------
 BYTE   TIE  Ds1
 BYTE   W96
//  #03 //021   ----------------------------------------
 BYTE   W92
 BYTE   W03
 BYTE   EOT
 BYTE   W01
//  #03 //022   ----------------------------------------
Label_018C1B31:
 BYTE   TIE  Fn1  v100
 BYTE   TIE  Cn2
 BYTE   W96
 BYTE   PEND 
//  #03 //023   ----------------------------------------
 BYTE   W92
 BYTE   W03
 BYTE   EOT
 BYTE   Fn1  v048
 BYTE   W01
//  #03 //024   ----------------------------------------
 BYTE   TIE  Fn1
 BYTE   TIE  Cs2
 BYTE   W96
//  #03 //025   ----------------------------------------
 BYTE   W92
 BYTE   W03
 BYTE   EOT
 BYTE   Fn1  v049
 BYTE   W01
//  #03 //026   ----------------------------------------
 BYTE   TIE  As1
 BYTE   TIE  Ds2
 BYTE   W96
//  #03 //027   ----------------------------------------
 BYTE   W92
 BYTE   W03
 BYTE   EOT
 BYTE   As1  v051
 BYTE   W01
//  #03 //028   ----------------------------------------
 BYTE   PATT
  POIN2 Label_018C1B31
//  #03 //029   ----------------------------------------
 BYTE   W92
 BYTE   W03
 BYTE   EOT
 BYTE   Fn1  v048
 BYTE   W01
//  #03 //030   ----------------------------------------
 BYTE   PATT
  POIN2 Label_018C1B31
//  #03 //031   ----------------------------------------
 BYTE   W92
 BYTE   W03
 BYTE   EOT
 BYTE   Fn1  v048
 BYTE   W01
//  #03 //032   ----------------------------------------
 BYTE   TIE  Gs1  v100
 BYTE   TIE  Fn2
 BYTE   W96
//  #03 //033   ----------------------------------------
 BYTE   W92
 BYTE   W03
 BYTE   EOT
 BYTE   Gs1  v053
 BYTE   W01
//  #03 //034   ----------------------------------------
 BYTE   TIE  Gn1
 BYTE   TIE  Ds2
 BYTE   W96
//  #03 //035   ----------------------------------------
 BYTE   W92
 BYTE   W03
 BYTE   EOT
 BYTE   Gn1  v051
 BYTE   W01
//  #03 //036   ----------------------------------------
 BYTE   PATT
  POIN2 Label_018C1B31
//  #03 //037   ----------------------------------------
 BYTE   N92  Fn2  v100
 BYTE   W92
 BYTE   W03
 BYTE   EOT
 BYTE   Fn1  v048
 BYTE   W01
//  #03 //038   ----------------------------------------
 BYTE   TIE  Fn1
 BYTE   W96
//  #03 //039   ----------------------------------------
 BYTE   W92
 BYTE   W03
 BYTE   EOT
 BYTE   W01
//  #03 //040   ----------------------------------------
 BYTE   W96
//  #03 //041   ----------------------------------------
 BYTE   W96
//  #03 //042   ----------------------------------------
 BYTE   GoTo
  POIN2 Label_018C1AFE
//  #03 //043   ----------------------------------------
 BYTE   VOICE   51
 BYTE   PAN   c_v+21
 BYTE   VOL   36*song43_mvl/mxv
 BYTE   BEND   c_v+0
 BYTE   FINE

//******************************************************//
	ALIGN 4

song43:
	BYTE	3	// NumTrks
	BYTE	0	// NumBlks
	BYTE	song43_pri	// Priority
	BYTE	song43_rev	// Reverb.
    
	POIN2	song43_grp
    
	POIN2	song43_001
	POIN2	song43_002
	POIN2	song43_003

	
