//Event file generated from Sappy .s format.
	#include "MPlayDef.event"

	#define	song03CB_grp  voicegroup001
	#define	song03CB_pri  0
	#define	song03CB_rev  0
	#define	song03CB_mvl  127
	#define	song03CB_key  0
	#define	song03CB_tbs  1
	#define	song03CB_exg  0
	#define	song03CB_cmp  1

	// .rodata
	//	song03CB
	ALIGN 4


//**************** Track 1 (Midi-Chn.0) ****************//

song03CB_001:
// 000   ----------------------------------------
 BYTE   KEYSH   song03CB_key+0
Label_0_0168BE4A:
 BYTE   TEMPO   284*song03CB_tbs/2
 BYTE   VOICE   52
 BYTE   VOL   35*song03CB_mvl/mxv
 BYTE   PAN   c_v+0
 BYTE   VOL   35*song03CB_mvl/mxv
 BYTE   PAN   c_v+0
 BYTE   VOL   35*song03CB_mvl/mxv
 BYTE   PAN   c_v+0
 BYTE   VOL   35*song03CB_mvl/mxv
 BYTE   PAN   c_v+0
 BYTE   VOL   35*song03CB_mvl/mxv
 BYTE   PAN   c_v+0
 BYTE   VOL   35*song03CB_mvl/mxv
 BYTE   PAN   c_v+0
 BYTE   VOL   35*song03CB_mvl/mxv
 BYTE   PAN   c_v+0
 BYTE   VOL   35*song03CB_mvl/mxv
 BYTE   PAN   c_v+0
 BYTE   VOL   35*song03CB_mvl/mxv
 BYTE   PAN   c_v+0
 BYTE   N11  En5  v112
 BYTE   W12
 BYTE   En5  v080
 BYTE   W12
 BYTE   En5  v048
 BYTE   W24
 BYTE   En5  v112
 BYTE   W12
 BYTE   En5  v080
 BYTE   W12
 BYTE   En5  v048
 BYTE   W24
// 001   ----------------------------------------
Label_0_0168BE85:
 BYTE   N11  En5  v112
 BYTE   W12
 BYTE   En5  v080
 BYTE   W12
 BYTE   En5  v048
 BYTE   W24
 BYTE   En5  v112
 BYTE   W12
 BYTE   En5  v080
 BYTE   W12
 BYTE   En5  v048
 BYTE   W24
 BYTE   PEND 
// 002   ----------------------------------------
 BYTE   PATT
  POIN2 Label_0_0168BE85
// 003   ----------------------------------------
 BYTE   PATT
  POIN2 Label_0_0168BE85
// 004   ----------------------------------------
 BYTE   PATT
  POIN2 Label_0_0168BE85
// 005   ----------------------------------------
 BYTE   PATT
  POIN2 Label_0_0168BE85
// 006   ----------------------------------------
 BYTE   PATT
  POIN2 Label_0_0168BE85
// 007   ----------------------------------------
 BYTE   PATT
  POIN2 Label_0_0168BE85
// 008   ----------------------------------------
 BYTE   W96
// 009   ----------------------------------------
 BYTE   W96
// 010   ----------------------------------------
 BYTE   W96
// 011   ----------------------------------------
 BYTE   W96
// 012   ----------------------------------------
 BYTE   W96
// 013   ----------------------------------------
 BYTE   W96
// 014   ----------------------------------------
 BYTE   W96
// 015   ----------------------------------------
 BYTE   W96
// 016   ----------------------------------------
 BYTE   W96
// 017   ----------------------------------------
 BYTE   W96
// 018   ----------------------------------------
 BYTE   W96
// 019   ----------------------------------------
 BYTE   W96
// 020   ----------------------------------------
 BYTE   W96
// 021   ----------------------------------------
 BYTE   W96
// 022   ----------------------------------------
 BYTE   W96
// 023   ----------------------------------------
 BYTE   W96
// 024   ----------------------------------------
 BYTE   W96
// 025   ----------------------------------------
 BYTE   W96
// 026   ----------------------------------------
 BYTE   W96
// 027   ----------------------------------------
 BYTE   W96
// 028   ----------------------------------------
 BYTE   W96
// 029   ----------------------------------------
 BYTE   W96
// 030   ----------------------------------------
 BYTE   W96
// 031   ----------------------------------------
 BYTE   W96
// 032   ----------------------------------------
 BYTE   W96
// 033   ----------------------------------------
 BYTE   W96
// 034   ----------------------------------------
 BYTE   W96
// 035   ----------------------------------------
 BYTE   W96
// 036   ----------------------------------------
 BYTE   W96
// 037   ----------------------------------------
 BYTE   W96
// 038   ----------------------------------------
 BYTE   W96
// 039   ----------------------------------------
 BYTE   W96
// 040   ----------------------------------------
 BYTE   W96
// 041   ----------------------------------------
 BYTE   W96
// 042   ----------------------------------------
 BYTE   W96
// 043   ----------------------------------------
 BYTE   W96
// 044   ----------------------------------------
 BYTE   W96
// 045   ----------------------------------------
 BYTE   W96
// 046   ----------------------------------------
 BYTE   W96
// 047   ----------------------------------------
 BYTE   W96
// 048   ----------------------------------------
 BYTE   W96
// 049   ----------------------------------------
 BYTE   W96
// 050   ----------------------------------------
 BYTE   W96
// 051   ----------------------------------------
 BYTE   W96
// 052   ----------------------------------------
 BYTE   W96
// 053   ----------------------------------------
 BYTE   W96
// 054   ----------------------------------------
 BYTE   W96
// 055   ----------------------------------------
 BYTE   W96
// 056   ----------------------------------------
 BYTE   W96
// 057   ----------------------------------------
 BYTE   W96
// 058   ----------------------------------------
 BYTE   W96
// 059   ----------------------------------------
 BYTE   W96
// 060   ----------------------------------------
 BYTE   W96
// 061   ----------------------------------------
 BYTE   W96
// 062   ----------------------------------------
 BYTE   W96
// 063   ----------------------------------------
 BYTE   W96
// 064   ----------------------------------------
 BYTE   PATT
  POIN2 Label_0_0168BE85
// 065   ----------------------------------------
 BYTE   PATT
  POIN2 Label_0_0168BE85
// 066   ----------------------------------------
 BYTE   PATT
  POIN2 Label_0_0168BE85
// 067   ----------------------------------------
 BYTE   PATT
  POIN2 Label_0_0168BE85
// 068   ----------------------------------------
 BYTE   PATT
  POIN2 Label_0_0168BE85
// 069   ----------------------------------------
 BYTE   PATT
  POIN2 Label_0_0168BE85
// 070   ----------------------------------------
 BYTE   PATT
  POIN2 Label_0_0168BE85
// 071   ----------------------------------------
 BYTE   PATT
  POIN2 Label_0_0168BE85
// 072   ----------------------------------------
 BYTE   W96
// 073   ----------------------------------------
 BYTE   W96
// 074   ----------------------------------------
 BYTE   W96
// 075   ----------------------------------------
 BYTE   W96
// 076   ----------------------------------------
 BYTE   W96
// 077   ----------------------------------------
 BYTE   W96
// 078   ----------------------------------------
 BYTE   W96
// 079   ----------------------------------------
 BYTE   W96
// 080   ----------------------------------------
 BYTE   W96
// 081   ----------------------------------------
 BYTE   W96
// 082   ----------------------------------------
 BYTE   W96
// 083   ----------------------------------------
 BYTE   W96
// 084   ----------------------------------------
 BYTE   W96
// 085   ----------------------------------------
 BYTE   W96
// 086   ----------------------------------------
 BYTE   W96
// 087   ----------------------------------------
 BYTE   W96
// 088   ----------------------------------------
 BYTE   W96
// 089   ----------------------------------------
 BYTE   W96
// 090   ----------------------------------------
 BYTE   W96
// 091   ----------------------------------------
 BYTE   W96
// 092   ----------------------------------------
 BYTE   W96
// 093   ----------------------------------------
 BYTE   W96
// 094   ----------------------------------------
 BYTE   W96
// 095   ----------------------------------------
 BYTE   W96
// 096   ----------------------------------------
 BYTE   W96
// 097   ----------------------------------------
 BYTE   W96
// 098   ----------------------------------------
 BYTE   W96
// 099   ----------------------------------------
 BYTE   W96
// 100   ----------------------------------------
 BYTE   W96
// 101   ----------------------------------------
 BYTE   W96
// 102   ----------------------------------------
 BYTE   W96
// 103   ----------------------------------------
 BYTE   W96
// 104   ----------------------------------------
 BYTE   W96
// 105   ----------------------------------------
 BYTE   W96
// 106   ----------------------------------------
 BYTE   W96
// 107   ----------------------------------------
 BYTE   W96
// 108   ----------------------------------------
 BYTE   W96
// 109   ----------------------------------------
 BYTE   W96
// 110   ----------------------------------------
 BYTE   W96
// 111   ----------------------------------------
 BYTE   W96
// 112   ----------------------------------------
 BYTE   W96
// 113   ----------------------------------------
 BYTE   W96
// 114   ----------------------------------------
 BYTE   W96
// 115   ----------------------------------------
 BYTE   W96
// 116   ----------------------------------------
 BYTE   W96
// 117   ----------------------------------------
 BYTE   W96
// 118   ----------------------------------------
 BYTE   W96
// 119   ----------------------------------------
 BYTE   W96
// 120   ----------------------------------------
 BYTE   W96
// 121   ----------------------------------------
 BYTE   W96
// 122   ----------------------------------------
 BYTE   W96
// 123   ----------------------------------------
 BYTE   W96
// 124   ----------------------------------------
 BYTE   W96
// 125   ----------------------------------------
 BYTE   W96
// 126   ----------------------------------------
 BYTE   W96
// 127   ----------------------------------------
 BYTE   W92
 BYTE   W03
 BYTE   GoTo
  POIN2 Label_0_0168BE4A
 BYTE   FINE

//**************** Track 2 (Midi-Chn.1) ****************//

song03CB_002:
// 000   ----------------------------------------
 BYTE   KEYSH   song03CB_key+0
Label_1_0168BF5A:
 BYTE   VOICE   54
 BYTE   VOL   35*song03CB_mvl/mxv
 BYTE   PAN   c_v+0
 BYTE   N11  En5  v112
 BYTE   W12
 BYTE   En5  v080
 BYTE   W12
 BYTE   En5  v048
 BYTE   W24
 BYTE   En5  v112
 BYTE   W12
 BYTE   En5  v080
 BYTE   W12
 BYTE   En5  v048
 BYTE   W24
// 001   ----------------------------------------
Label_1_0168BF73:
 BYTE   N11  En5  v112
 BYTE   W12
 BYTE   En5  v080
 BYTE   W12
 BYTE   En5  v048
 BYTE   W24
 BYTE   En5  v112
 BYTE   W12
 BYTE   En5  v080
 BYTE   W12
 BYTE   En5  v048
 BYTE   W24
 BYTE   PEND 
// 002   ----------------------------------------
 BYTE   PATT
  POIN2 Label_1_0168BF73
// 003   ----------------------------------------
 BYTE   PATT
  POIN2 Label_1_0168BF73
// 004   ----------------------------------------
 BYTE   PATT
  POIN2 Label_1_0168BF73
// 005   ----------------------------------------
 BYTE   PATT
  POIN2 Label_1_0168BF73
// 006   ----------------------------------------
 BYTE   PATT
  POIN2 Label_1_0168BF73
// 007   ----------------------------------------
 BYTE   PATT
  POIN2 Label_1_0168BF73
// 008   ----------------------------------------
 BYTE   W96
// 009   ----------------------------------------
 BYTE   W96
// 010   ----------------------------------------
 BYTE   W96
// 011   ----------------------------------------
 BYTE   W96
// 012   ----------------------------------------
 BYTE   W96
// 013   ----------------------------------------
 BYTE   W96
// 014   ----------------------------------------
 BYTE   W96
// 015   ----------------------------------------
 BYTE   W96
// 016   ----------------------------------------
 BYTE   W96
// 017   ----------------------------------------
 BYTE   W96
// 018   ----------------------------------------
 BYTE   W96
// 019   ----------------------------------------
 BYTE   W96
// 020   ----------------------------------------
 BYTE   W96
// 021   ----------------------------------------
 BYTE   W96
// 022   ----------------------------------------
 BYTE   W96
// 023   ----------------------------------------
 BYTE   W96
// 024   ----------------------------------------
 BYTE   W96
// 025   ----------------------------------------
 BYTE   W96
// 026   ----------------------------------------
 BYTE   W96
// 027   ----------------------------------------
 BYTE   W96
// 028   ----------------------------------------
 BYTE   W96
// 029   ----------------------------------------
 BYTE   W96
// 030   ----------------------------------------
 BYTE   W96
// 031   ----------------------------------------
 BYTE   W96
// 032   ----------------------------------------
 BYTE   W96
// 033   ----------------------------------------
 BYTE   W96
// 034   ----------------------------------------
 BYTE   W96
// 035   ----------------------------------------
 BYTE   W96
// 036   ----------------------------------------
 BYTE   W96
// 037   ----------------------------------------
 BYTE   W96
// 038   ----------------------------------------
 BYTE   W96
// 039   ----------------------------------------
 BYTE   W96
// 040   ----------------------------------------
 BYTE   W96
// 041   ----------------------------------------
 BYTE   W96
// 042   ----------------------------------------
 BYTE   W96
// 043   ----------------------------------------
 BYTE   W96
// 044   ----------------------------------------
 BYTE   W96
// 045   ----------------------------------------
 BYTE   W96
// 046   ----------------------------------------
 BYTE   W96
// 047   ----------------------------------------
 BYTE   W96
// 048   ----------------------------------------
 BYTE   W96
// 049   ----------------------------------------
 BYTE   W96
// 050   ----------------------------------------
 BYTE   W96
// 051   ----------------------------------------
 BYTE   W96
// 052   ----------------------------------------
 BYTE   W96
// 053   ----------------------------------------
 BYTE   W96
// 054   ----------------------------------------
 BYTE   W96
// 055   ----------------------------------------
 BYTE   W96
// 056   ----------------------------------------
 BYTE   W96
// 057   ----------------------------------------
 BYTE   W96
// 058   ----------------------------------------
 BYTE   W96
// 059   ----------------------------------------
 BYTE   W96
// 060   ----------------------------------------
 BYTE   W96
// 061   ----------------------------------------
 BYTE   W96
// 062   ----------------------------------------
 BYTE   W96
// 063   ----------------------------------------
 BYTE   W96
// 064   ----------------------------------------
 BYTE   PATT
  POIN2 Label_1_0168BF73
// 065   ----------------------------------------
 BYTE   PATT
  POIN2 Label_1_0168BF73
// 066   ----------------------------------------
 BYTE   PATT
  POIN2 Label_1_0168BF73
// 067   ----------------------------------------
 BYTE   PATT
  POIN2 Label_1_0168BF73
// 068   ----------------------------------------
 BYTE   PATT
  POIN2 Label_1_0168BF73
// 069   ----------------------------------------
 BYTE   PATT
  POIN2 Label_1_0168BF73
// 070   ----------------------------------------
 BYTE   PATT
  POIN2 Label_1_0168BF73
// 071   ----------------------------------------
 BYTE   PATT
  POIN2 Label_1_0168BF73
// 072   ----------------------------------------
 BYTE   W96
// 073   ----------------------------------------
 BYTE   W96
// 074   ----------------------------------------
 BYTE   W96
// 075   ----------------------------------------
 BYTE   W96
// 076   ----------------------------------------
 BYTE   W96
// 077   ----------------------------------------
 BYTE   W96
// 078   ----------------------------------------
 BYTE   W96
// 079   ----------------------------------------
 BYTE   W96
// 080   ----------------------------------------
 BYTE   W96
// 081   ----------------------------------------
 BYTE   W96
// 082   ----------------------------------------
 BYTE   W96
// 083   ----------------------------------------
 BYTE   W96
// 084   ----------------------------------------
 BYTE   W96
// 085   ----------------------------------------
 BYTE   W96
// 086   ----------------------------------------
 BYTE   W96
// 087   ----------------------------------------
 BYTE   W96
// 088   ----------------------------------------
 BYTE   W96
// 089   ----------------------------------------
 BYTE   W96
// 090   ----------------------------------------
 BYTE   W96
// 091   ----------------------------------------
 BYTE   W96
// 092   ----------------------------------------
 BYTE   W96
// 093   ----------------------------------------
 BYTE   W96
// 094   ----------------------------------------
 BYTE   W96
// 095   ----------------------------------------
 BYTE   W96
// 096   ----------------------------------------
 BYTE   W96
// 097   ----------------------------------------
 BYTE   W96
// 098   ----------------------------------------
 BYTE   W96
// 099   ----------------------------------------
 BYTE   W96
// 100   ----------------------------------------
 BYTE   W96
// 101   ----------------------------------------
 BYTE   W96
// 102   ----------------------------------------
 BYTE   W96
// 103   ----------------------------------------
 BYTE   W96
// 104   ----------------------------------------
 BYTE   W96
// 105   ----------------------------------------
 BYTE   W96
// 106   ----------------------------------------
 BYTE   W96
// 107   ----------------------------------------
 BYTE   W96
// 108   ----------------------------------------
 BYTE   W96
// 109   ----------------------------------------
 BYTE   W96
// 110   ----------------------------------------
 BYTE   W96
// 111   ----------------------------------------
 BYTE   W96
// 112   ----------------------------------------
 BYTE   W96
// 113   ----------------------------------------
 BYTE   W96
// 114   ----------------------------------------
 BYTE   W96
// 115   ----------------------------------------
 BYTE   W96
// 116   ----------------------------------------
 BYTE   W96
// 117   ----------------------------------------
 BYTE   W96
// 118   ----------------------------------------
 BYTE   W96
// 119   ----------------------------------------
 BYTE   W96
// 120   ----------------------------------------
 BYTE   W96
// 121   ----------------------------------------
 BYTE   W96
// 122   ----------------------------------------
 BYTE   W96
// 123   ----------------------------------------
 BYTE   W96
// 124   ----------------------------------------
 BYTE   W96
// 125   ----------------------------------------
 BYTE   W96
// 126   ----------------------------------------
 BYTE   W96
// 127   ----------------------------------------
 BYTE   W92
 BYTE   W03
 BYTE   GoTo
  POIN2 Label_1_0168BF5A
 BYTE   FINE

//**************** Track 3 (Midi-Chn.2) ****************//

song03CB_003:
// 000   ----------------------------------------
 BYTE   KEYSH   song03CB_key+0
Label_2_0168C046:
 BYTE   VOICE   68
 BYTE   VOL   35*song03CB_mvl/mxv
 BYTE   PAN   c_v+0
 BYTE   W96
// 001   ----------------------------------------
 BYTE   W96
// 002   ----------------------------------------
 BYTE   W96
// 003   ----------------------------------------
 BYTE   W96
// 004   ----------------------------------------
 BYTE   TIE  En1  v127
 BYTE   W96
// 005   ----------------------------------------
 BYTE   W96
// 006   ----------------------------------------
 BYTE   W96
// 007   ----------------------------------------
 BYTE   W92
 BYTE   W03
 BYTE   EOT
 BYTE   W01
// 008   ----------------------------------------
 BYTE   W96
// 009   ----------------------------------------
 BYTE   W96
// 010   ----------------------------------------
 BYTE   W96
// 011   ----------------------------------------
 BYTE   W96
// 012   ----------------------------------------
 BYTE   W96
// 013   ----------------------------------------
 BYTE   W96
// 014   ----------------------------------------
 BYTE   W96
// 015   ----------------------------------------
 BYTE   W96
// 016   ----------------------------------------
 BYTE   W96
// 017   ----------------------------------------
 BYTE   W96
// 018   ----------------------------------------
 BYTE   W96
// 019   ----------------------------------------
 BYTE   W96
// 020   ----------------------------------------
 BYTE   W96
// 021   ----------------------------------------
 BYTE   W96
// 022   ----------------------------------------
 BYTE   W96
// 023   ----------------------------------------
 BYTE   W96
// 024   ----------------------------------------
 BYTE   W96
// 025   ----------------------------------------
 BYTE   W96
// 026   ----------------------------------------
 BYTE   W96
// 027   ----------------------------------------
 BYTE   W96
// 028   ----------------------------------------
 BYTE   W96
// 029   ----------------------------------------
 BYTE   W96
// 030   ----------------------------------------
 BYTE   W96
// 031   ----------------------------------------
 BYTE   W96
// 032   ----------------------------------------
 BYTE   W96
// 033   ----------------------------------------
 BYTE   W96
// 034   ----------------------------------------
 BYTE   W96
// 035   ----------------------------------------
 BYTE   W96
// 036   ----------------------------------------
 BYTE   W96
// 037   ----------------------------------------
 BYTE   W96
// 038   ----------------------------------------
 BYTE   W96
// 039   ----------------------------------------
 BYTE   W96
// 040   ----------------------------------------
 BYTE   W96
// 041   ----------------------------------------
 BYTE   W96
// 042   ----------------------------------------
 BYTE   W96
// 043   ----------------------------------------
 BYTE   W96
// 044   ----------------------------------------
 BYTE   W96
// 045   ----------------------------------------
 BYTE   W96
// 046   ----------------------------------------
 BYTE   W96
// 047   ----------------------------------------
 BYTE   W96
// 048   ----------------------------------------
 BYTE   W96
// 049   ----------------------------------------
 BYTE   W96
// 050   ----------------------------------------
 BYTE   W96
// 051   ----------------------------------------
 BYTE   W96
// 052   ----------------------------------------
 BYTE   W96
// 053   ----------------------------------------
 BYTE   W96
// 054   ----------------------------------------
 BYTE   W96
// 055   ----------------------------------------
 BYTE   W96
// 056   ----------------------------------------
 BYTE   W96
// 057   ----------------------------------------
 BYTE   W96
// 058   ----------------------------------------
 BYTE   W96
// 059   ----------------------------------------
 BYTE   W96
// 060   ----------------------------------------
 BYTE   W96
// 061   ----------------------------------------
 BYTE   W96
// 062   ----------------------------------------
 BYTE   W96
// 063   ----------------------------------------
 BYTE   W96
// 064   ----------------------------------------
 BYTE   W96
// 065   ----------------------------------------
 BYTE   W96
// 066   ----------------------------------------
 BYTE   W96
// 067   ----------------------------------------
 BYTE   W96
// 068   ----------------------------------------
 BYTE   TIE
 BYTE   W96
// 069   ----------------------------------------
 BYTE   W96
// 070   ----------------------------------------
 BYTE   W96
// 071   ----------------------------------------
 BYTE   W92
 BYTE   W03
 BYTE   EOT
 BYTE   W01
// 072   ----------------------------------------
 BYTE   W96
// 073   ----------------------------------------
 BYTE   W96
// 074   ----------------------------------------
 BYTE   W96
// 075   ----------------------------------------
 BYTE   W96
// 076   ----------------------------------------
 BYTE   W96
// 077   ----------------------------------------
 BYTE   W96
// 078   ----------------------------------------
 BYTE   W96
// 079   ----------------------------------------
 BYTE   W96
// 080   ----------------------------------------
 BYTE   W96
// 081   ----------------------------------------
 BYTE   W96
// 082   ----------------------------------------
 BYTE   W96
// 083   ----------------------------------------
 BYTE   W96
// 084   ----------------------------------------
 BYTE   W96
// 085   ----------------------------------------
 BYTE   W96
// 086   ----------------------------------------
 BYTE   W96
// 087   ----------------------------------------
 BYTE   W96
// 088   ----------------------------------------
 BYTE   W96
// 089   ----------------------------------------
 BYTE   W96
// 090   ----------------------------------------
 BYTE   W96
// 091   ----------------------------------------
 BYTE   W96
// 092   ----------------------------------------
 BYTE   W96
// 093   ----------------------------------------
 BYTE   W96
// 094   ----------------------------------------
 BYTE   W96
// 095   ----------------------------------------
 BYTE   W96
// 096   ----------------------------------------
 BYTE   W96
// 097   ----------------------------------------
 BYTE   W96
// 098   ----------------------------------------
 BYTE   W96
// 099   ----------------------------------------
 BYTE   W96
// 100   ----------------------------------------
 BYTE   W96
// 101   ----------------------------------------
 BYTE   W96
// 102   ----------------------------------------
 BYTE   W96
// 103   ----------------------------------------
 BYTE   W96
// 104   ----------------------------------------
 BYTE   W96
// 105   ----------------------------------------
 BYTE   W96
// 106   ----------------------------------------
 BYTE   W96
// 107   ----------------------------------------
 BYTE   W96
// 108   ----------------------------------------
 BYTE   W96
// 109   ----------------------------------------
 BYTE   W96
// 110   ----------------------------------------
 BYTE   W96
// 111   ----------------------------------------
 BYTE   W96
// 112   ----------------------------------------
 BYTE   W96
// 113   ----------------------------------------
 BYTE   W96
// 114   ----------------------------------------
 BYTE   W96
// 115   ----------------------------------------
 BYTE   W96
// 116   ----------------------------------------
 BYTE   W96
// 117   ----------------------------------------
 BYTE   W96
// 118   ----------------------------------------
 BYTE   W96
// 119   ----------------------------------------
 BYTE   W96
// 120   ----------------------------------------
 BYTE   W96
// 121   ----------------------------------------
 BYTE   W96
// 122   ----------------------------------------
 BYTE   W96
// 123   ----------------------------------------
 BYTE   W96
// 124   ----------------------------------------
 BYTE   W96
// 125   ----------------------------------------
 BYTE   W96
// 126   ----------------------------------------
 BYTE   W96
// 127   ----------------------------------------
 BYTE   W92
 BYTE   W03
 BYTE   GoTo
  POIN2 Label_2_0168C046
 BYTE   FINE

//**************** Track 4 (Midi-Chn.3) ****************//

song03CB_004:
// 000   ----------------------------------------
 BYTE   KEYSH   song03CB_key+0
Label_3_0168C0E2:
 BYTE   VOICE   68
 BYTE   VOL   35*song03CB_mvl/mxv
 BYTE   PAN   c_v+63
 BYTE   W96
// 001   ----------------------------------------
 BYTE   W96
// 002   ----------------------------------------
 BYTE   W96
// 003   ----------------------------------------
 BYTE   W96
// 004   ----------------------------------------
 BYTE   W96
// 005   ----------------------------------------
 BYTE   W96
// 006   ----------------------------------------
 BYTE   N11  En3  v080
 BYTE   N11  Gn3
 BYTE   W12
 BYTE   En3
 BYTE   N11  Gn3
 BYTE   W12
 BYTE   PAN   c_v-64
 BYTE   N11  En3
 BYTE   N11  Gn3
 BYTE   W12
 BYTE   En3
 BYTE   N11  Gn3
 BYTE   W12
 BYTE   PAN   c_v+63
 BYTE   N11  En3  v096
 BYTE   N11  Gn3
 BYTE   W12
 BYTE   En3
 BYTE   N11  Gn3
 BYTE   W12
 BYTE   PAN   c_v-64
 BYTE   N11  En3
 BYTE   N11  Gn3
 BYTE   W12
 BYTE   En3
 BYTE   N11  Gn3
 BYTE   W12
// 007   ----------------------------------------
Label_3_0168C11A:
 BYTE   PAN   c_v+63
 BYTE   N11  En3  v112
 BYTE   N11  Gn3
 BYTE   W12
 BYTE   En3
 BYTE   N11  Gn3
 BYTE   W12
 BYTE   PAN   c_v-64
 BYTE   N11  En3
 BYTE   N11  Gn3
 BYTE   W12
 BYTE   En3
 BYTE   N11  Gn3
 BYTE   W12
 BYTE   PAN   c_v+63
 BYTE   N11  En3  v127
 BYTE   N11  Gn3
 BYTE   W12
 BYTE   En3
 BYTE   N11  Gn3
 BYTE   W12
 BYTE   PAN   c_v-64
 BYTE   N11  En3
 BYTE   N11  Gn3
 BYTE   W12
 BYTE   En3
 BYTE   N11  Gn3
 BYTE   W12
 BYTE   PEND 
// 008   ----------------------------------------
 BYTE   W96
// 009   ----------------------------------------
 BYTE   W96
// 010   ----------------------------------------
 BYTE   W96
// 011   ----------------------------------------
 BYTE   W96
// 012   ----------------------------------------
 BYTE   W96
// 013   ----------------------------------------
 BYTE   W96
// 014   ----------------------------------------
 BYTE   W96
// 015   ----------------------------------------
 BYTE   W96
// 016   ----------------------------------------
 BYTE   W96
// 017   ----------------------------------------
 BYTE   W96
// 018   ----------------------------------------
 BYTE   W96
// 019   ----------------------------------------
 BYTE   W96
// 020   ----------------------------------------
 BYTE   W96
// 021   ----------------------------------------
 BYTE   W96
// 022   ----------------------------------------
 BYTE   W96
// 023   ----------------------------------------
 BYTE   W96
// 024   ----------------------------------------
 BYTE   W96
// 025   ----------------------------------------
 BYTE   W96
// 026   ----------------------------------------
 BYTE   W96
// 027   ----------------------------------------
 BYTE   W96
// 028   ----------------------------------------
 BYTE   W96
// 029   ----------------------------------------
 BYTE   W96
// 030   ----------------------------------------
 BYTE   W96
// 031   ----------------------------------------
 BYTE   W96
// 032   ----------------------------------------
 BYTE   W96
// 033   ----------------------------------------
 BYTE   W96
// 034   ----------------------------------------
 BYTE   W96
// 035   ----------------------------------------
 BYTE   W96
// 036   ----------------------------------------
 BYTE   W96
// 037   ----------------------------------------
 BYTE   W96
// 038   ----------------------------------------
 BYTE   W96
// 039   ----------------------------------------
 BYTE   W96
// 040   ----------------------------------------
 BYTE   W96
// 041   ----------------------------------------
 BYTE   W96
// 042   ----------------------------------------
 BYTE   W96
// 043   ----------------------------------------
 BYTE   W96
// 044   ----------------------------------------
 BYTE   W96
// 045   ----------------------------------------
 BYTE   W96
// 046   ----------------------------------------
 BYTE   W96
// 047   ----------------------------------------
 BYTE   W96
// 048   ----------------------------------------
 BYTE   W96
// 049   ----------------------------------------
 BYTE   W96
// 050   ----------------------------------------
 BYTE   W96
// 051   ----------------------------------------
 BYTE   W96
// 052   ----------------------------------------
 BYTE   W96
// 053   ----------------------------------------
 BYTE   W96
// 054   ----------------------------------------
 BYTE   W96
// 055   ----------------------------------------
 BYTE   W96
// 056   ----------------------------------------
 BYTE   W96
// 057   ----------------------------------------
 BYTE   W96
// 058   ----------------------------------------
 BYTE   W96
// 059   ----------------------------------------
 BYTE   W96
// 060   ----------------------------------------
 BYTE   W96
// 061   ----------------------------------------
 BYTE   W96
// 062   ----------------------------------------
 BYTE   W96
// 063   ----------------------------------------
 BYTE   W96
// 064   ----------------------------------------
 BYTE   W96
// 065   ----------------------------------------
 BYTE   W96
// 066   ----------------------------------------
 BYTE   W96
// 067   ----------------------------------------
 BYTE   W96
// 068   ----------------------------------------
 BYTE   W96
// 069   ----------------------------------------
 BYTE   W96
// 070   ----------------------------------------
 BYTE   PAN   c_v+63
 BYTE   N11  En3  v080
 BYTE   N11  Gn3
 BYTE   W12
 BYTE   En3
 BYTE   N11  Gn3
 BYTE   W12
 BYTE   PAN   c_v-64
 BYTE   N11  En3
 BYTE   N11  Gn3
 BYTE   W12
 BYTE   En3
 BYTE   N11  Gn3
 BYTE   W12
 BYTE   PAN   c_v+63
 BYTE   N11  En3  v096
 BYTE   N11  Gn3
 BYTE   W12
 BYTE   En3
 BYTE   N11  Gn3
 BYTE   W12
 BYTE   PAN   c_v-64
 BYTE   N11  En3
 BYTE   N11  Gn3
 BYTE   W12
 BYTE   En3
 BYTE   N11  Gn3
 BYTE   W12
// 071   ----------------------------------------
 BYTE   PATT
  POIN2 Label_3_0168C11A
// 072   ----------------------------------------
 BYTE   W96
// 073   ----------------------------------------
 BYTE   W96
// 074   ----------------------------------------
 BYTE   W96
// 075   ----------------------------------------
 BYTE   W96
// 076   ----------------------------------------
 BYTE   W96
// 077   ----------------------------------------
 BYTE   W96
// 078   ----------------------------------------
 BYTE   W96
// 079   ----------------------------------------
 BYTE   W96
// 080   ----------------------------------------
 BYTE   W96
// 081   ----------------------------------------
 BYTE   W96
// 082   ----------------------------------------
 BYTE   W96
// 083   ----------------------------------------
 BYTE   W96
// 084   ----------------------------------------
 BYTE   W96
// 085   ----------------------------------------
 BYTE   W96
// 086   ----------------------------------------
 BYTE   W96
// 087   ----------------------------------------
 BYTE   W96
// 088   ----------------------------------------
 BYTE   W96
// 089   ----------------------------------------
 BYTE   W96
// 090   ----------------------------------------
 BYTE   W96
// 091   ----------------------------------------
 BYTE   W96
// 092   ----------------------------------------
 BYTE   W96
// 093   ----------------------------------------
 BYTE   W96
// 094   ----------------------------------------
 BYTE   W96
// 095   ----------------------------------------
 BYTE   W96
// 096   ----------------------------------------
 BYTE   W96
// 097   ----------------------------------------
 BYTE   W96
// 098   ----------------------------------------
 BYTE   W96
// 099   ----------------------------------------
 BYTE   W96
// 100   ----------------------------------------
 BYTE   W96
// 101   ----------------------------------------
 BYTE   W96
// 102   ----------------------------------------
 BYTE   W96
// 103   ----------------------------------------
 BYTE   W96
// 104   ----------------------------------------
 BYTE   W96
// 105   ----------------------------------------
 BYTE   W96
// 106   ----------------------------------------
 BYTE   W96
// 107   ----------------------------------------
 BYTE   W96
// 108   ----------------------------------------
 BYTE   W96
// 109   ----------------------------------------
 BYTE   W96
// 110   ----------------------------------------
 BYTE   W96
// 111   ----------------------------------------
 BYTE   W96
// 112   ----------------------------------------
 BYTE   W96
// 113   ----------------------------------------
 BYTE   W96
// 114   ----------------------------------------
 BYTE   W96
// 115   ----------------------------------------
 BYTE   W96
// 116   ----------------------------------------
 BYTE   W96
// 117   ----------------------------------------
 BYTE   W96
// 118   ----------------------------------------
 BYTE   W96
// 119   ----------------------------------------
 BYTE   W96
// 120   ----------------------------------------
 BYTE   W96
// 121   ----------------------------------------
 BYTE   W96
// 122   ----------------------------------------
 BYTE   W96
// 123   ----------------------------------------
 BYTE   W96
// 124   ----------------------------------------
 BYTE   W96
// 125   ----------------------------------------
 BYTE   W96
// 126   ----------------------------------------
 BYTE   W96
// 127   ----------------------------------------
 BYTE   W92
 BYTE   W03
 BYTE   GoTo
  POIN2 Label_3_0168C0E2
 BYTE   FINE

//**************** Track 5 (Midi-Chn.4) ****************//

song03CB_005:
// 000   ----------------------------------------
 BYTE   KEYSH   song03CB_key+0
Label_4_0168C1FE:
 BYTE   VOICE   7
 BYTE   VOL   35*song03CB_mvl/mxv
 BYTE   PAN   c_v+0
 BYTE   N11  En1  v096
 BYTE   W24
 BYTE   En2
 BYTE   W12
 BYTE   N11
 BYTE   W12
 BYTE   En1
 BYTE   W24
 BYTE   En2
 BYTE   W12
 BYTE   N11
 BYTE   W12
// 001   ----------------------------------------
Label_4_0168C212:
 BYTE   N11  En1  v096
 BYTE   W24
 BYTE   En2
 BYTE   W12
 BYTE   N11
 BYTE   W12
 BYTE   En1
 BYTE   W24
 BYTE   En2
 BYTE   W12
 BYTE   N11
 BYTE   W12
 BYTE   PEND 
// 002   ----------------------------------------
 BYTE   PATT
  POIN2 Label_4_0168C212
// 003   ----------------------------------------
 BYTE   PATT
  POIN2 Label_4_0168C212
// 004   ----------------------------------------
 BYTE   PATT
  POIN2 Label_4_0168C212
// 005   ----------------------------------------
 BYTE   PATT
  POIN2 Label_4_0168C212
// 006   ----------------------------------------
 BYTE   PATT
  POIN2 Label_4_0168C212
// 007   ----------------------------------------
 BYTE   PATT
  POIN2 Label_4_0168C212
// 008   ----------------------------------------
Label_4_0168C23F:
 BYTE   N11  En1  v112
 BYTE   W24
 BYTE   En2
 BYTE   W12
 BYTE   N11
 BYTE   W12
 BYTE   En1
 BYTE   W24
 BYTE   En2
 BYTE   W12
 BYTE   N11
 BYTE   W12
 BYTE   PEND 
// 009   ----------------------------------------
 BYTE   PATT
  POIN2 Label_4_0168C23F
// 010   ----------------------------------------
Label_4_0168C253:
 BYTE   N11  Dn1  v112
 BYTE   W24
 BYTE   Dn2
 BYTE   W12
 BYTE   N11
 BYTE   W12
 BYTE   Dn1
 BYTE   W24
 BYTE   Dn2
 BYTE   W12
 BYTE   N11
 BYTE   W12
 BYTE   PEND 
// 011   ----------------------------------------
 BYTE   PATT
  POIN2 Label_4_0168C253
// 012   ----------------------------------------
 BYTE   PATT
  POIN2 Label_4_0168C23F
// 013   ----------------------------------------
 BYTE   PATT
  POIN2 Label_4_0168C23F
// 014   ----------------------------------------
 BYTE   PATT
  POIN2 Label_4_0168C253
// 015   ----------------------------------------
Label_4_0168C276:
 BYTE   N11  Cn1  v112
 BYTE   W24
 BYTE   Cn2
 BYTE   W12
 BYTE   N11
 BYTE   W12
 BYTE   Cn1
 BYTE   W24
 BYTE   Cn2
 BYTE   W12
 BYTE   N11
 BYTE   W12
 BYTE   PEND 
// 016   ----------------------------------------
Label_4_0168C285:
 BYTE   N11  Bn0  v112
 BYTE   W24
 BYTE   Bn1
 BYTE   W12
 BYTE   N11
 BYTE   W12
 BYTE   Bn0
 BYTE   W12
 BYTE   Bn1
 BYTE   W12
 BYTE   Bn0
 BYTE   W12
 BYTE   Bn1
 BYTE   W12
 BYTE   PEND 
// 017   ----------------------------------------
Label_4_0168C296:
 BYTE   N11  Gn0  v112
 BYTE   W24
 BYTE   Gn1
 BYTE   W12
 BYTE   N11
 BYTE   W12
 BYTE   An0
 BYTE   W24
 BYTE   An1
 BYTE   W12
 BYTE   N11
 BYTE   W12
 BYTE   PEND 
// 018   ----------------------------------------
 BYTE   PATT
  POIN2 Label_4_0168C285
// 019   ----------------------------------------
 BYTE   PATT
  POIN2 Label_4_0168C296
// 020   ----------------------------------------
 BYTE   PATT
  POIN2 Label_4_0168C23F
// 021   ----------------------------------------
 BYTE   PATT
  POIN2 Label_4_0168C23F
// 022   ----------------------------------------
 BYTE   PATT
  POIN2 Label_4_0168C253
// 023   ----------------------------------------
 BYTE   PATT
  POIN2 Label_4_0168C253
// 024   ----------------------------------------
 BYTE   PATT
  POIN2 Label_4_0168C23F
// 025   ----------------------------------------
 BYTE   PATT
  POIN2 Label_4_0168C23F
// 026   ----------------------------------------
 BYTE   PATT
  POIN2 Label_4_0168C253
// 027   ----------------------------------------
 BYTE   PATT
  POIN2 Label_4_0168C276
// 028   ----------------------------------------
 BYTE   PATT
  POIN2 Label_4_0168C285
// 029   ----------------------------------------
 BYTE   PATT
  POIN2 Label_4_0168C296
// 030   ----------------------------------------
 BYTE   PATT
  POIN2 Label_4_0168C285
// 031   ----------------------------------------
 BYTE   PATT
  POIN2 Label_4_0168C296
// 032   ----------------------------------------
 BYTE   PATT
  POIN2 Label_4_0168C276
// 033   ----------------------------------------
 BYTE   PATT
  POIN2 Label_4_0168C276
// 034   ----------------------------------------
 BYTE   PATT
  POIN2 Label_4_0168C23F
// 035   ----------------------------------------
 BYTE   PATT
  POIN2 Label_4_0168C23F
// 036   ----------------------------------------
 BYTE   PATT
  POIN2 Label_4_0168C276
// 037   ----------------------------------------
 BYTE   PATT
  POIN2 Label_4_0168C276
// 038   ----------------------------------------
 BYTE   PATT
  POIN2 Label_4_0168C23F
// 039   ----------------------------------------
 BYTE   PATT
  POIN2 Label_4_0168C23F
// 040   ----------------------------------------
 BYTE   PATT
  POIN2 Label_4_0168C276
// 041   ----------------------------------------
 BYTE   PATT
  POIN2 Label_4_0168C276
// 042   ----------------------------------------
 BYTE   PATT
  POIN2 Label_4_0168C23F
// 043   ----------------------------------------
 BYTE   PATT
  POIN2 Label_4_0168C23F
// 044   ----------------------------------------
 BYTE   PATT
  POIN2 Label_4_0168C253
// 045   ----------------------------------------
 BYTE   PATT
  POIN2 Label_4_0168C253
// 046   ----------------------------------------
Label_4_0168C331:
 BYTE   N11  Bn0  v112
 BYTE   W24
 BYTE   Bn1
 BYTE   W12
 BYTE   N11
 BYTE   W12
 BYTE   Bn0
 BYTE   W24
 BYTE   Bn1
 BYTE   W12
 BYTE   N11
 BYTE   W12
 BYTE   PEND 
// 047   ----------------------------------------
 BYTE   PATT
  POIN2 Label_4_0168C253
// 048   ----------------------------------------
 BYTE   PATT
  POIN2 Label_4_0168C276
// 049   ----------------------------------------
 BYTE   PATT
  POIN2 Label_4_0168C276
// 050   ----------------------------------------
 BYTE   PATT
  POIN2 Label_4_0168C23F
// 051   ----------------------------------------
 BYTE   PATT
  POIN2 Label_4_0168C23F
// 052   ----------------------------------------
 BYTE   PATT
  POIN2 Label_4_0168C276
// 053   ----------------------------------------
 BYTE   PATT
  POIN2 Label_4_0168C276
// 054   ----------------------------------------
 BYTE   PATT
  POIN2 Label_4_0168C23F
// 055   ----------------------------------------
 BYTE   PATT
  POIN2 Label_4_0168C23F
// 056   ----------------------------------------
 BYTE   PATT
  POIN2 Label_4_0168C276
// 057   ----------------------------------------
 BYTE   PATT
  POIN2 Label_4_0168C276
// 058   ----------------------------------------
 BYTE   PATT
  POIN2 Label_4_0168C23F
// 059   ----------------------------------------
 BYTE   PATT
  POIN2 Label_4_0168C23F
// 060   ----------------------------------------
 BYTE   PATT
  POIN2 Label_4_0168C253
// 061   ----------------------------------------
 BYTE   PATT
  POIN2 Label_4_0168C253
// 062   ----------------------------------------
 BYTE   PATT
  POIN2 Label_4_0168C331
// 063   ----------------------------------------
 BYTE   PATT
  POIN2 Label_4_0168C253
// 064   ----------------------------------------
 BYTE   PATT
  POIN2 Label_4_0168C212
// 065   ----------------------------------------
 BYTE   PATT
  POIN2 Label_4_0168C212
// 066   ----------------------------------------
 BYTE   PATT
  POIN2 Label_4_0168C212
// 067   ----------------------------------------
 BYTE   PATT
  POIN2 Label_4_0168C212
// 068   ----------------------------------------
 BYTE   PATT
  POIN2 Label_4_0168C212
// 069   ----------------------------------------
 BYTE   PATT
  POIN2 Label_4_0168C212
// 070   ----------------------------------------
 BYTE   PATT
  POIN2 Label_4_0168C212
// 071   ----------------------------------------
 BYTE   PATT
  POIN2 Label_4_0168C212
// 072   ----------------------------------------
 BYTE   PATT
  POIN2 Label_4_0168C23F
// 073   ----------------------------------------
 BYTE   PATT
  POIN2 Label_4_0168C23F
// 074   ----------------------------------------
 BYTE   PATT
  POIN2 Label_4_0168C253
// 075   ----------------------------------------
 BYTE   PATT
  POIN2 Label_4_0168C253
// 076   ----------------------------------------
 BYTE   PATT
  POIN2 Label_4_0168C23F
// 077   ----------------------------------------
 BYTE   PATT
  POIN2 Label_4_0168C23F
// 078   ----------------------------------------
 BYTE   PATT
  POIN2 Label_4_0168C253
// 079   ----------------------------------------
 BYTE   PATT
  POIN2 Label_4_0168C276
// 080   ----------------------------------------
 BYTE   PATT
  POIN2 Label_4_0168C285
// 081   ----------------------------------------
 BYTE   PATT
  POIN2 Label_4_0168C296
// 082   ----------------------------------------
 BYTE   PATT
  POIN2 Label_4_0168C285
// 083   ----------------------------------------
 BYTE   PATT
  POIN2 Label_4_0168C296
// 084   ----------------------------------------
 BYTE   PATT
  POIN2 Label_4_0168C23F
// 085   ----------------------------------------
 BYTE   PATT
  POIN2 Label_4_0168C23F
// 086   ----------------------------------------
 BYTE   PATT
  POIN2 Label_4_0168C253
// 087   ----------------------------------------
 BYTE   PATT
  POIN2 Label_4_0168C253
// 088   ----------------------------------------
 BYTE   PATT
  POIN2 Label_4_0168C23F
// 089   ----------------------------------------
 BYTE   PATT
  POIN2 Label_4_0168C23F
// 090   ----------------------------------------
 BYTE   PATT
  POIN2 Label_4_0168C253
// 091   ----------------------------------------
 BYTE   PATT
  POIN2 Label_4_0168C276
// 092   ----------------------------------------
 BYTE   PATT
  POIN2 Label_4_0168C285
// 093   ----------------------------------------
 BYTE   PATT
  POIN2 Label_4_0168C296
// 094   ----------------------------------------
 BYTE   PATT
  POIN2 Label_4_0168C285
// 095   ----------------------------------------
 BYTE   PATT
  POIN2 Label_4_0168C296
// 096   ----------------------------------------
 BYTE   PATT
  POIN2 Label_4_0168C276
// 097   ----------------------------------------
 BYTE   PATT
  POIN2 Label_4_0168C276
// 098   ----------------------------------------
 BYTE   PATT
  POIN2 Label_4_0168C23F
// 099   ----------------------------------------
 BYTE   PATT
  POIN2 Label_4_0168C23F
// 100   ----------------------------------------
 BYTE   PATT
  POIN2 Label_4_0168C276
// 101   ----------------------------------------
 BYTE   PATT
  POIN2 Label_4_0168C276
// 102   ----------------------------------------
 BYTE   PATT
  POIN2 Label_4_0168C23F
// 103   ----------------------------------------
 BYTE   PATT
  POIN2 Label_4_0168C23F
// 104   ----------------------------------------
 BYTE   PATT
  POIN2 Label_4_0168C276
// 105   ----------------------------------------
 BYTE   PATT
  POIN2 Label_4_0168C276
// 106   ----------------------------------------
 BYTE   PATT
  POIN2 Label_4_0168C23F
// 107   ----------------------------------------
 BYTE   PATT
  POIN2 Label_4_0168C23F
// 108   ----------------------------------------
 BYTE   PATT
  POIN2 Label_4_0168C253
// 109   ----------------------------------------
 BYTE   PATT
  POIN2 Label_4_0168C253
// 110   ----------------------------------------
 BYTE   PATT
  POIN2 Label_4_0168C331
// 111   ----------------------------------------
 BYTE   PATT
  POIN2 Label_4_0168C253
// 112   ----------------------------------------
 BYTE   PATT
  POIN2 Label_4_0168C276
// 113   ----------------------------------------
 BYTE   PATT
  POIN2 Label_4_0168C276
// 114   ----------------------------------------
 BYTE   PATT
  POIN2 Label_4_0168C23F
// 115   ----------------------------------------
 BYTE   PATT
  POIN2 Label_4_0168C23F
// 116   ----------------------------------------
 BYTE   PATT
  POIN2 Label_4_0168C276
// 117   ----------------------------------------
 BYTE   PATT
  POIN2 Label_4_0168C276
// 118   ----------------------------------------
 BYTE   PATT
  POIN2 Label_4_0168C23F
// 119   ----------------------------------------
 BYTE   PATT
  POIN2 Label_4_0168C23F
// 120   ----------------------------------------
 BYTE   PATT
  POIN2 Label_4_0168C276
// 121   ----------------------------------------
 BYTE   PATT
  POIN2 Label_4_0168C276
// 122   ----------------------------------------
 BYTE   PATT
  POIN2 Label_4_0168C23F
// 123   ----------------------------------------
 BYTE   PATT
  POIN2 Label_4_0168C23F
// 124   ----------------------------------------
 BYTE   PATT
  POIN2 Label_4_0168C253
// 125   ----------------------------------------
 BYTE   PATT
  POIN2 Label_4_0168C253
// 126   ----------------------------------------
 BYTE   PATT
  POIN2 Label_4_0168C331
// 127   ----------------------------------------
 BYTE   N11  Dn1  v112
 BYTE   W24
 BYTE   Dn2
 BYTE   W12
 BYTE   N11
 BYTE   W12
 BYTE   Dn1
 BYTE   W24
 BYTE   Dn2
 BYTE   W12
 BYTE   N11
 BYTE   W11
 BYTE   GoTo
  POIN2 Label_4_0168C1FE
 BYTE   FINE

//**************** Track 6 (Midi-Chn.5) ****************//

song03CB_006:
// 000   ----------------------------------------
 BYTE   KEYSH   song03CB_key+0
Label_5_0168C4E6:
 BYTE   VOICE   68
 BYTE   VOL   35*song03CB_mvl/mxv
 BYTE   PAN   c_v+0
 BYTE   W96
// 001   ----------------------------------------
 BYTE   W96
// 002   ----------------------------------------
 BYTE   W96
// 003   ----------------------------------------
 BYTE   W96
// 004   ----------------------------------------
 BYTE   W96
// 005   ----------------------------------------
 BYTE   W96
// 006   ----------------------------------------
 BYTE   W96
// 007   ----------------------------------------
 BYTE   W96
// 008   ----------------------------------------
 BYTE   N92  En3  v127
 BYTE   W96
// 009   ----------------------------------------
Label_5_0168C4F8:
 BYTE   N68  Bn3  v127
 BYTE   W72
 BYTE   N11  An3
 BYTE   W12
 BYTE   Bn3
 BYTE   W12
 BYTE   PEND 
// 010   ----------------------------------------
Label_5_0168C502:
 BYTE   N68  An3  v127
 BYTE   W72
 BYTE   N23  Gn3
 BYTE   W24
 BYTE   PEND 
// 011   ----------------------------------------
Label_5_0168C50A:
 BYTE   N32  Fs3  v127
 BYTE   W36
 BYTE   Gn3
 BYTE   W36
 BYTE   N23  An3
 BYTE   W24
 BYTE   PEND 
// 012   ----------------------------------------
 BYTE   N92  En3
 BYTE   W96
// 013   ----------------------------------------
 BYTE   PATT
  POIN2 Label_5_0168C4F8
// 014   ----------------------------------------
 BYTE   PATT
  POIN2 Label_5_0168C502
// 015   ----------------------------------------
Label_5_0168C521:
 BYTE   N32  Cn3  v127
 BYTE   W36
 BYTE   En3
 BYTE   W36
 BYTE   N23  Gn3
 BYTE   W24
 BYTE   PEND 
// 016   ----------------------------------------
 BYTE   TIE  Fs3
 BYTE   W96
// 017   ----------------------------------------
 BYTE   W92
 BYTE   W03
 BYTE   EOT
 BYTE   W01
// 018   ----------------------------------------
 BYTE   W96
// 019   ----------------------------------------
 BYTE   W96
// 020   ----------------------------------------
 BYTE   N92  En3
 BYTE   W96
// 021   ----------------------------------------
 BYTE   PATT
  POIN2 Label_5_0168C4F8
// 022   ----------------------------------------
 BYTE   PATT
  POIN2 Label_5_0168C502
// 023   ----------------------------------------
 BYTE   PATT
  POIN2 Label_5_0168C50A
// 024   ----------------------------------------
 BYTE   N92  En3  v127
 BYTE   W96
// 025   ----------------------------------------
 BYTE   PATT
  POIN2 Label_5_0168C4F8
// 026   ----------------------------------------
 BYTE   PATT
  POIN2 Label_5_0168C502
// 027   ----------------------------------------
 BYTE   PATT
  POIN2 Label_5_0168C521
// 028   ----------------------------------------
 BYTE   TIE  Fs3  v127
 BYTE   W96
// 029   ----------------------------------------
 BYTE   W92
 BYTE   W03
 BYTE   EOT
 BYTE   W01
// 030   ----------------------------------------
 BYTE   W96
// 031   ----------------------------------------
 BYTE   W96
// 032   ----------------------------------------
 BYTE   W96
// 033   ----------------------------------------
 BYTE   W96
// 034   ----------------------------------------
 BYTE   W96
// 035   ----------------------------------------
 BYTE   W96
// 036   ----------------------------------------
 BYTE   W96
// 037   ----------------------------------------
 BYTE   W96
// 038   ----------------------------------------
 BYTE   W96
// 039   ----------------------------------------
 BYTE   W96
// 040   ----------------------------------------
 BYTE   W96
// 041   ----------------------------------------
 BYTE   W96
// 042   ----------------------------------------
 BYTE   W96
// 043   ----------------------------------------
 BYTE   W96
// 044   ----------------------------------------
 BYTE   W96
// 045   ----------------------------------------
 BYTE   W96
// 046   ----------------------------------------
 BYTE   W96
// 047   ----------------------------------------
 BYTE   W96
// 048   ----------------------------------------
 BYTE   W96
// 049   ----------------------------------------
 BYTE   W96
// 050   ----------------------------------------
 BYTE   W96
// 051   ----------------------------------------
 BYTE   W96
// 052   ----------------------------------------
 BYTE   W96
// 053   ----------------------------------------
 BYTE   W96
// 054   ----------------------------------------
 BYTE   W96
// 055   ----------------------------------------
 BYTE   W96
// 056   ----------------------------------------
 BYTE   W96
// 057   ----------------------------------------
 BYTE   W96
// 058   ----------------------------------------
 BYTE   W96
// 059   ----------------------------------------
 BYTE   W96
// 060   ----------------------------------------
 BYTE   W96
// 061   ----------------------------------------
 BYTE   W96
// 062   ----------------------------------------
 BYTE   W96
// 063   ----------------------------------------
 BYTE   W96
// 064   ----------------------------------------
 BYTE   W96
// 065   ----------------------------------------
 BYTE   W96
// 066   ----------------------------------------
 BYTE   W96
// 067   ----------------------------------------
 BYTE   W96
// 068   ----------------------------------------
 BYTE   W96
// 069   ----------------------------------------
 BYTE   W96
// 070   ----------------------------------------
 BYTE   W96
// 071   ----------------------------------------
 BYTE   W96
// 072   ----------------------------------------
 BYTE   N92  En3
 BYTE   W96
// 073   ----------------------------------------
 BYTE   PATT
  POIN2 Label_5_0168C4F8
// 074   ----------------------------------------
 BYTE   PATT
  POIN2 Label_5_0168C502
// 075   ----------------------------------------
 BYTE   PATT
  POIN2 Label_5_0168C50A
// 076   ----------------------------------------
 BYTE   N92  En3  v127
 BYTE   W96
// 077   ----------------------------------------
 BYTE   PATT
  POIN2 Label_5_0168C4F8
// 078   ----------------------------------------
 BYTE   PATT
  POIN2 Label_5_0168C502
// 079   ----------------------------------------
 BYTE   PATT
  POIN2 Label_5_0168C521
// 080   ----------------------------------------
 BYTE   TIE  Fs3  v127
 BYTE   W96
// 081   ----------------------------------------
 BYTE   W92
 BYTE   W03
 BYTE   EOT
 BYTE   W01
// 082   ----------------------------------------
 BYTE   W96
// 083   ----------------------------------------
 BYTE   W96
// 084   ----------------------------------------
 BYTE   N92  En3
 BYTE   W96
// 085   ----------------------------------------
 BYTE   PATT
  POIN2 Label_5_0168C4F8
// 086   ----------------------------------------
 BYTE   PATT
  POIN2 Label_5_0168C502
// 087   ----------------------------------------
 BYTE   PATT
  POIN2 Label_5_0168C50A
// 088   ----------------------------------------
 BYTE   N92  En3  v127
 BYTE   W96
// 089   ----------------------------------------
 BYTE   PATT
  POIN2 Label_5_0168C4F8
// 090   ----------------------------------------
 BYTE   PATT
  POIN2 Label_5_0168C502
// 091   ----------------------------------------
 BYTE   PATT
  POIN2 Label_5_0168C521
// 092   ----------------------------------------
 BYTE   TIE  Fs3  v127
 BYTE   W96
// 093   ----------------------------------------
 BYTE   W92
 BYTE   W03
 BYTE   EOT
 BYTE   W01
// 094   ----------------------------------------
 BYTE   W96
// 095   ----------------------------------------
 BYTE   W96
// 096   ----------------------------------------
 BYTE   W96
// 097   ----------------------------------------
 BYTE   W96
// 098   ----------------------------------------
 BYTE   W96
// 099   ----------------------------------------
 BYTE   W96
// 100   ----------------------------------------
 BYTE   W96
// 101   ----------------------------------------
 BYTE   W96
// 102   ----------------------------------------
 BYTE   W96
// 103   ----------------------------------------
 BYTE   W96
// 104   ----------------------------------------
 BYTE   W96
// 105   ----------------------------------------
 BYTE   W96
// 106   ----------------------------------------
 BYTE   W96
// 107   ----------------------------------------
 BYTE   W96
// 108   ----------------------------------------
 BYTE   W96
// 109   ----------------------------------------
 BYTE   W96
// 110   ----------------------------------------
 BYTE   W96
// 111   ----------------------------------------
 BYTE   W96
// 112   ----------------------------------------
 BYTE   W96
// 113   ----------------------------------------
 BYTE   W96
// 114   ----------------------------------------
 BYTE   W96
// 115   ----------------------------------------
 BYTE   W96
// 116   ----------------------------------------
 BYTE   W96
// 117   ----------------------------------------
 BYTE   W96
// 118   ----------------------------------------
 BYTE   W96
// 119   ----------------------------------------
 BYTE   W96
// 120   ----------------------------------------
 BYTE   W96
// 121   ----------------------------------------
 BYTE   W96
// 122   ----------------------------------------
 BYTE   W96
// 123   ----------------------------------------
 BYTE   W96
// 124   ----------------------------------------
 BYTE   W96
// 125   ----------------------------------------
 BYTE   W96
// 126   ----------------------------------------
 BYTE   W96
// 127   ----------------------------------------
 BYTE   W92
 BYTE   W03
 BYTE   GoTo
  POIN2 Label_5_0168C4E6
 BYTE   FINE

//**************** Track 7 (Midi-Chn.6) ****************//

song03CB_007:
// 000   ----------------------------------------
 BYTE   KEYSH   song03CB_key+0
Label_6_0168C612:
 BYTE   VOICE   50
 BYTE   VOL   35*song03CB_mvl/mxv
 BYTE   PAN   c_v+0
 BYTE   W96
// 001   ----------------------------------------
 BYTE   W96
// 002   ----------------------------------------
 BYTE   W96
// 003   ----------------------------------------
 BYTE   W96
// 004   ----------------------------------------
 BYTE   W96
// 005   ----------------------------------------
 BYTE   W96
// 006   ----------------------------------------
 BYTE   W96
// 007   ----------------------------------------
 BYTE   W96
// 008   ----------------------------------------
 BYTE   W96
// 009   ----------------------------------------
 BYTE   W96
// 010   ----------------------------------------
 BYTE   W96
// 011   ----------------------------------------
 BYTE   W96
// 012   ----------------------------------------
 BYTE   W96
// 013   ----------------------------------------
 BYTE   W96
// 014   ----------------------------------------
 BYTE   W96
// 015   ----------------------------------------
 BYTE   W96
// 016   ----------------------------------------
 BYTE   W96
// 017   ----------------------------------------
 BYTE   W96
// 018   ----------------------------------------
 BYTE   W96
// 019   ----------------------------------------
 BYTE   W96
// 020   ----------------------------------------
 BYTE   W96
// 021   ----------------------------------------
 BYTE   W96
// 022   ----------------------------------------
 BYTE   W96
// 023   ----------------------------------------
 BYTE   W96
// 024   ----------------------------------------
 BYTE   W96
// 025   ----------------------------------------
 BYTE   W96
// 026   ----------------------------------------
 BYTE   W96
// 027   ----------------------------------------
 BYTE   W96
// 028   ----------------------------------------
 BYTE   W96
// 029   ----------------------------------------
 BYTE   W96
// 030   ----------------------------------------
 BYTE   W96
// 031   ----------------------------------------
 BYTE   W96
// 032   ----------------------------------------
 BYTE   N92  Cn4  v127
 BYTE   W96
// 033   ----------------------------------------
Label_6_0168C63C:
 BYTE   N23  Gn3  v127
 BYTE   W24
 BYTE   N44
 BYTE   W48
 BYTE   N23  An3
 BYTE   W24
 BYTE   PEND 
// 034   ----------------------------------------
 BYTE   TIE  Bn3
 BYTE   W96
// 035   ----------------------------------------
 BYTE   W92
 BYTE   W03
 BYTE   EOT
 BYTE   W01
// 036   ----------------------------------------
 BYTE   N92  Cn4
 BYTE   W96
// 037   ----------------------------------------
 BYTE   PATT
  POIN2 Label_6_0168C63C
// 038   ----------------------------------------
 BYTE   TIE  Bn3  v127
 BYTE   W96
// 039   ----------------------------------------
 BYTE   W92
 BYTE   W03
 BYTE   EOT
 BYTE   W01
// 040   ----------------------------------------
 BYTE   N92  Cn4
 BYTE   W96
// 041   ----------------------------------------
 BYTE   PATT
  POIN2 Label_6_0168C63C
// 042   ----------------------------------------
 BYTE   TIE  Bn3  v127
 BYTE   W96
// 043   ----------------------------------------
 BYTE   W92
 BYTE   W03
 BYTE   EOT
 BYTE   W01
// 044   ----------------------------------------
 BYTE   TIE  Dn4
 BYTE   W96
// 045   ----------------------------------------
 BYTE   W92
 BYTE   W03
 BYTE   EOT
 BYTE   W01
// 046   ----------------------------------------
 BYTE   N92  Bn3
 BYTE   W96
// 047   ----------------------------------------
 BYTE   Dn4
 BYTE   W96
// 048   ----------------------------------------
 BYTE   Cn4
 BYTE   W96
// 049   ----------------------------------------
 BYTE   PATT
  POIN2 Label_6_0168C63C
// 050   ----------------------------------------
 BYTE   TIE  Bn3  v127
 BYTE   W96
// 051   ----------------------------------------
 BYTE   W92
 BYTE   W03
 BYTE   EOT
 BYTE   W01
// 052   ----------------------------------------
 BYTE   N92  Cn4
 BYTE   W96
// 053   ----------------------------------------
 BYTE   PATT
  POIN2 Label_6_0168C63C
// 054   ----------------------------------------
 BYTE   TIE  Bn3  v127
 BYTE   W96
// 055   ----------------------------------------
 BYTE   W92
 BYTE   W03
 BYTE   EOT
 BYTE   W01
// 056   ----------------------------------------
 BYTE   N92  Cn4
 BYTE   W96
// 057   ----------------------------------------
 BYTE   PATT
  POIN2 Label_6_0168C63C
// 058   ----------------------------------------
 BYTE   TIE  Bn3  v127
 BYTE   W96
// 059   ----------------------------------------
 BYTE   W92
 BYTE   W03
 BYTE   EOT
 BYTE   W01
// 060   ----------------------------------------
 BYTE   TIE  Dn4
 BYTE   W96
// 061   ----------------------------------------
 BYTE   W92
 BYTE   W03
 BYTE   EOT
 BYTE   W01
// 062   ----------------------------------------
 BYTE   N92  Bn3
 BYTE   W96
// 063   ----------------------------------------
 BYTE   Dn4
 BYTE   W96
// 064   ----------------------------------------
 BYTE   W96
// 065   ----------------------------------------
 BYTE   W96
// 066   ----------------------------------------
 BYTE   W96
// 067   ----------------------------------------
 BYTE   W96
// 068   ----------------------------------------
 BYTE   W96
// 069   ----------------------------------------
 BYTE   W96
// 070   ----------------------------------------
 BYTE   W96
// 071   ----------------------------------------
 BYTE   W96
// 072   ----------------------------------------
 BYTE   W96
// 073   ----------------------------------------
 BYTE   W96
// 074   ----------------------------------------
 BYTE   W96
// 075   ----------------------------------------
 BYTE   W96
// 076   ----------------------------------------
 BYTE   W96
// 077   ----------------------------------------
 BYTE   W96
// 078   ----------------------------------------
 BYTE   W96
// 079   ----------------------------------------
 BYTE   W96
// 080   ----------------------------------------
 BYTE   W96
// 081   ----------------------------------------
 BYTE   W96
// 082   ----------------------------------------
 BYTE   W96
// 083   ----------------------------------------
 BYTE   W96
// 084   ----------------------------------------
 BYTE   W96
// 085   ----------------------------------------
 BYTE   W96
// 086   ----------------------------------------
 BYTE   W96
// 087   ----------------------------------------
 BYTE   W96
// 088   ----------------------------------------
 BYTE   W96
// 089   ----------------------------------------
 BYTE   W96
// 090   ----------------------------------------
 BYTE   W96
// 091   ----------------------------------------
 BYTE   W96
// 092   ----------------------------------------
 BYTE   W96
// 093   ----------------------------------------
 BYTE   W96
// 094   ----------------------------------------
 BYTE   W96
// 095   ----------------------------------------
 BYTE   W96
// 096   ----------------------------------------
 BYTE   Cn4
 BYTE   W96
// 097   ----------------------------------------
 BYTE   PATT
  POIN2 Label_6_0168C63C
// 098   ----------------------------------------
 BYTE   TIE  Bn3  v127
 BYTE   W96
// 099   ----------------------------------------
 BYTE   W92
 BYTE   W03
 BYTE   EOT
 BYTE   W01
// 100   ----------------------------------------
 BYTE   N92  Cn4
 BYTE   W96
// 101   ----------------------------------------
 BYTE   PATT
  POIN2 Label_6_0168C63C
// 102   ----------------------------------------
 BYTE   TIE  Bn3  v127
 BYTE   W96
// 103   ----------------------------------------
 BYTE   W92
 BYTE   W03
 BYTE   EOT
 BYTE   W01
// 104   ----------------------------------------
 BYTE   N92  Cn4
 BYTE   W96
// 105   ----------------------------------------
 BYTE   PATT
  POIN2 Label_6_0168C63C
// 106   ----------------------------------------
 BYTE   TIE  Bn3  v127
 BYTE   W96
// 107   ----------------------------------------
 BYTE   W92
 BYTE   W03
 BYTE   EOT
 BYTE   W01
// 108   ----------------------------------------
 BYTE   TIE  Dn4
 BYTE   W96
// 109   ----------------------------------------
 BYTE   W92
 BYTE   W03
 BYTE   EOT
 BYTE   W01
// 110   ----------------------------------------
 BYTE   N92  Bn3
 BYTE   W96
// 111   ----------------------------------------
 BYTE   Dn4
 BYTE   W96
// 112   ----------------------------------------
 BYTE   Cn4
 BYTE   W96
// 113   ----------------------------------------
 BYTE   PATT
  POIN2 Label_6_0168C63C
// 114   ----------------------------------------
 BYTE   TIE  Bn3  v127
 BYTE   W96
// 115   ----------------------------------------
 BYTE   W92
 BYTE   W03
 BYTE   EOT
 BYTE   W01
// 116   ----------------------------------------
 BYTE   N92  Cn4
 BYTE   W96
// 117   ----------------------------------------
 BYTE   PATT
  POIN2 Label_6_0168C63C
// 118   ----------------------------------------
 BYTE   TIE  Bn3  v127
 BYTE   W96
// 119   ----------------------------------------
 BYTE   W92
 BYTE   W03
 BYTE   EOT
 BYTE   W01
// 120   ----------------------------------------
 BYTE   N92  Cn4
 BYTE   W96
// 121   ----------------------------------------
 BYTE   PATT
  POIN2 Label_6_0168C63C
// 122   ----------------------------------------
 BYTE   TIE  Bn3  v127
 BYTE   W96
// 123   ----------------------------------------
 BYTE   W92
 BYTE   W03
 BYTE   EOT
 BYTE   W01
// 124   ----------------------------------------
 BYTE   TIE  Dn4
 BYTE   W96
// 125   ----------------------------------------
 BYTE   W92
 BYTE   W03
 BYTE   EOT
 BYTE   W01
// 126   ----------------------------------------
 BYTE   N92  Bn3
 BYTE   W96
// 127   ----------------------------------------
 BYTE   Dn4
 BYTE   W92
 BYTE   W03
 BYTE   GoTo
  POIN2 Label_6_0168C612
 BYTE   FINE

//**************** Track 8 (Midi-Chn.7) ****************//

song03CB_008:
// 000   ----------------------------------------
 BYTE   KEYSH   song03CB_key+0
Label_7_0168C756:
 BYTE   VOICE   85
 BYTE   VOL   35*song03CB_mvl/mxv
 BYTE   PAN   c_v+0
 BYTE   W96
// 001   ----------------------------------------
 BYTE   W96
// 002   ----------------------------------------
 BYTE   W96
// 003   ----------------------------------------
 BYTE   W96
// 004   ----------------------------------------
 BYTE   W96
// 005   ----------------------------------------
 BYTE   W96
// 006   ----------------------------------------
 BYTE   W96
// 007   ----------------------------------------
 BYTE   W96
// 008   ----------------------------------------
 BYTE   W96
// 009   ----------------------------------------
 BYTE   W96
// 010   ----------------------------------------
 BYTE   W96
// 011   ----------------------------------------
 BYTE   W96
// 012   ----------------------------------------
 BYTE   W96
// 013   ----------------------------------------
 BYTE   W96
// 014   ----------------------------------------
 BYTE   W96
// 015   ----------------------------------------
 BYTE   W96
// 016   ----------------------------------------
 BYTE   W96
// 017   ----------------------------------------
 BYTE   W96
// 018   ----------------------------------------
 BYTE   W96
// 019   ----------------------------------------
 BYTE   W96
// 020   ----------------------------------------
 BYTE   W96
// 021   ----------------------------------------
 BYTE   W96
// 022   ----------------------------------------
 BYTE   W96
// 023   ----------------------------------------
 BYTE   W96
// 024   ----------------------------------------
 BYTE   W96
// 025   ----------------------------------------
 BYTE   W96
// 026   ----------------------------------------
 BYTE   W96
// 027   ----------------------------------------
 BYTE   W96
// 028   ----------------------------------------
 BYTE   W96
// 029   ----------------------------------------
 BYTE   W96
// 030   ----------------------------------------
 BYTE   W96
// 031   ----------------------------------------
 BYTE   W96
// 032   ----------------------------------------
 BYTE   N92  Cn4  v127
 BYTE   W96
// 033   ----------------------------------------
Label_7_0168C780:
 BYTE   N23  Gn3  v127
 BYTE   W24
 BYTE   N44
 BYTE   W48
 BYTE   N23  An3
 BYTE   W24
 BYTE   PEND 
// 034   ----------------------------------------
 BYTE   TIE  Bn3
 BYTE   W96
// 035   ----------------------------------------
 BYTE   W92
 BYTE   W03
 BYTE   EOT
 BYTE   W01
// 036   ----------------------------------------
 BYTE   N92  Cn4
 BYTE   W96
// 037   ----------------------------------------
 BYTE   PATT
  POIN2 Label_7_0168C780
// 038   ----------------------------------------
 BYTE   TIE  Bn3  v127
 BYTE   W96
// 039   ----------------------------------------
 BYTE   W92
 BYTE   W03
 BYTE   EOT
 BYTE   W01
// 040   ----------------------------------------
 BYTE   N92  Cn4
 BYTE   W96
// 041   ----------------------------------------
 BYTE   PATT
  POIN2 Label_7_0168C780
// 042   ----------------------------------------
 BYTE   TIE  Bn3  v127
 BYTE   W96
// 043   ----------------------------------------
 BYTE   W92
 BYTE   W03
 BYTE   EOT
 BYTE   W01
// 044   ----------------------------------------
 BYTE   TIE  Dn4
 BYTE   W96
// 045   ----------------------------------------
 BYTE   W92
 BYTE   W03
 BYTE   EOT
 BYTE   W01
// 046   ----------------------------------------
 BYTE   N92  Bn3
 BYTE   W96
// 047   ----------------------------------------
 BYTE   Dn4
 BYTE   W96
// 048   ----------------------------------------
 BYTE   Cn4
 BYTE   W96
// 049   ----------------------------------------
 BYTE   PATT
  POIN2 Label_7_0168C780
// 050   ----------------------------------------
 BYTE   TIE  Bn3  v127
 BYTE   W96
// 051   ----------------------------------------
 BYTE   W92
 BYTE   W03
 BYTE   EOT
 BYTE   W01
// 052   ----------------------------------------
 BYTE   N92  Cn4
 BYTE   W96
// 053   ----------------------------------------
 BYTE   PATT
  POIN2 Label_7_0168C780
// 054   ----------------------------------------
 BYTE   TIE  Bn3  v127
 BYTE   W96
// 055   ----------------------------------------
 BYTE   W92
 BYTE   W03
 BYTE   EOT
 BYTE   W01
// 056   ----------------------------------------
 BYTE   N92  Cn4
 BYTE   W96
// 057   ----------------------------------------
 BYTE   PATT
  POIN2 Label_7_0168C780
// 058   ----------------------------------------
 BYTE   TIE  Bn3  v127
 BYTE   W96
// 059   ----------------------------------------
 BYTE   W92
 BYTE   W03
 BYTE   EOT
 BYTE   W01
// 060   ----------------------------------------
 BYTE   TIE  Dn4
 BYTE   W96
// 061   ----------------------------------------
 BYTE   W92
 BYTE   W03
 BYTE   EOT
 BYTE   W01
// 062   ----------------------------------------
 BYTE   N92  Bn3
 BYTE   W96
// 063   ----------------------------------------
 BYTE   Dn4
 BYTE   W96
// 064   ----------------------------------------
 BYTE   W96
// 065   ----------------------------------------
 BYTE   W96
// 066   ----------------------------------------
 BYTE   W96
// 067   ----------------------------------------
 BYTE   W96
// 068   ----------------------------------------
 BYTE   W96
// 069   ----------------------------------------
 BYTE   W96
// 070   ----------------------------------------
 BYTE   W96
// 071   ----------------------------------------
 BYTE   W96
// 072   ----------------------------------------
 BYTE   W96
// 073   ----------------------------------------
 BYTE   W96
// 074   ----------------------------------------
 BYTE   W96
// 075   ----------------------------------------
 BYTE   W96
// 076   ----------------------------------------
 BYTE   W96
// 077   ----------------------------------------
 BYTE   W96
// 078   ----------------------------------------
 BYTE   W96
// 079   ----------------------------------------
 BYTE   W96
// 080   ----------------------------------------
 BYTE   W96
// 081   ----------------------------------------
 BYTE   W96
// 082   ----------------------------------------
 BYTE   W96
// 083   ----------------------------------------
 BYTE   W96
// 084   ----------------------------------------
 BYTE   W96
// 085   ----------------------------------------
 BYTE   W96
// 086   ----------------------------------------
 BYTE   W96
// 087   ----------------------------------------
 BYTE   W96
// 088   ----------------------------------------
 BYTE   W96
// 089   ----------------------------------------
 BYTE   W96
// 090   ----------------------------------------
 BYTE   W96
// 091   ----------------------------------------
 BYTE   W96
// 092   ----------------------------------------
 BYTE   W96
// 093   ----------------------------------------
 BYTE   W96
// 094   ----------------------------------------
 BYTE   W96
// 095   ----------------------------------------
 BYTE   W96
// 096   ----------------------------------------
 BYTE   Cn4
 BYTE   W96
// 097   ----------------------------------------
 BYTE   PATT
  POIN2 Label_7_0168C780
// 098   ----------------------------------------
 BYTE   TIE  Bn3  v127
 BYTE   W96
// 099   ----------------------------------------
 BYTE   W92
 BYTE   W03
 BYTE   EOT
 BYTE   W01
// 100   ----------------------------------------
 BYTE   N92  Cn4
 BYTE   W96
// 101   ----------------------------------------
 BYTE   PATT
  POIN2 Label_7_0168C780
// 102   ----------------------------------------
 BYTE   TIE  Bn3  v127
 BYTE   W96
// 103   ----------------------------------------
 BYTE   W92
 BYTE   W03
 BYTE   EOT
 BYTE   W01
// 104   ----------------------------------------
 BYTE   N92  Cn4
 BYTE   W96
// 105   ----------------------------------------
 BYTE   PATT
  POIN2 Label_7_0168C780
// 106   ----------------------------------------
 BYTE   TIE  Bn3  v127
 BYTE   W96
// 107   ----------------------------------------
 BYTE   W92
 BYTE   W03
 BYTE   EOT
 BYTE   W01
// 108   ----------------------------------------
 BYTE   TIE  Dn4
 BYTE   W96
// 109   ----------------------------------------
 BYTE   W92
 BYTE   W03
 BYTE   EOT
 BYTE   W01
// 110   ----------------------------------------
 BYTE   N92  Bn3
 BYTE   W96
// 111   ----------------------------------------
 BYTE   Dn4
 BYTE   W96
// 112   ----------------------------------------
 BYTE   Cn4
 BYTE   W96
// 113   ----------------------------------------
 BYTE   PATT
  POIN2 Label_7_0168C780
// 114   ----------------------------------------
 BYTE   TIE  Bn3  v127
 BYTE   W96
// 115   ----------------------------------------
 BYTE   W92
 BYTE   W03
 BYTE   EOT
 BYTE   W01
// 116   ----------------------------------------
 BYTE   N92  Cn4
 BYTE   W96
// 117   ----------------------------------------
 BYTE   PATT
  POIN2 Label_7_0168C780
// 118   ----------------------------------------
 BYTE   TIE  Bn3  v127
 BYTE   W96
// 119   ----------------------------------------
 BYTE   W92
 BYTE   W03
 BYTE   EOT
 BYTE   W01
// 120   ----------------------------------------
 BYTE   N92  Cn4
 BYTE   W96
// 121   ----------------------------------------
 BYTE   PATT
  POIN2 Label_7_0168C780
// 122   ----------------------------------------
 BYTE   TIE  Bn3  v127
 BYTE   W96
// 123   ----------------------------------------
 BYTE   W92
 BYTE   W03
 BYTE   EOT
 BYTE   W01
// 124   ----------------------------------------
 BYTE   TIE  Dn4
 BYTE   W96
// 125   ----------------------------------------
 BYTE   W92
 BYTE   W03
 BYTE   EOT
 BYTE   W01
// 126   ----------------------------------------
 BYTE   N92  Bn3
 BYTE   W96
// 127   ----------------------------------------
 BYTE   Dn4
 BYTE   W92
 BYTE   W03
 BYTE   GoTo
  POIN2 Label_7_0168C756
 BYTE   FINE

//**************** Track 9 (Midi-Chn.8) ****************//

song03CB_009:
// 000   ----------------------------------------
 BYTE   KEYSH   song03CB_key+0
Label_8_0168C89A:
 BYTE   VOICE   68
 BYTE   VOL   35*song03CB_mvl/mxv
 BYTE   PAN   c_v+63
 BYTE   W96
// 001   ----------------------------------------
 BYTE   W96
// 002   ----------------------------------------
 BYTE   W96
// 003   ----------------------------------------
 BYTE   W96
// 004   ----------------------------------------
 BYTE   W96
// 005   ----------------------------------------
 BYTE   W96
// 006   ----------------------------------------
 BYTE   W96
// 007   ----------------------------------------
 BYTE   W96
// 008   ----------------------------------------
 BYTE   TIE  Gn3  v096
 BYTE   W96
// 009   ----------------------------------------
 BYTE   W92
 BYTE   W03
 BYTE   EOT
 BYTE   W01
// 010   ----------------------------------------
 BYTE   TIE  Fs3
 BYTE   W96
// 011   ----------------------------------------
 BYTE   W92
 BYTE   W03
 BYTE   EOT
 BYTE   W01
// 012   ----------------------------------------
 BYTE   TIE  Gn3
 BYTE   W96
// 013   ----------------------------------------
 BYTE   W92
 BYTE   W03
 BYTE   EOT
 BYTE   W01
// 014   ----------------------------------------
 BYTE   N92  Fs3
 BYTE   W96
// 015   ----------------------------------------
 BYTE   Gn3
 BYTE   W96
// 016   ----------------------------------------
 BYTE   TIE  Fs3
 BYTE   W96
// 017   ----------------------------------------
 BYTE   W92
 BYTE   W03
 BYTE   EOT
 BYTE   W01
// 018   ----------------------------------------
Label_8_0168C8CA:
 BYTE   N44  Fs3  v096
 BYTE   W48
 BYTE   N44
 BYTE   W48
 BYTE   PEND 
// 019   ----------------------------------------
 BYTE   PATT
  POIN2 Label_8_0168C8CA
// 020   ----------------------------------------
 BYTE   TIE  Gn3  v096
 BYTE   W96
// 021   ----------------------------------------
 BYTE   W92
 BYTE   W03
 BYTE   EOT
 BYTE   W01
// 022   ----------------------------------------
 BYTE   TIE  Fs3
 BYTE   W96
// 023   ----------------------------------------
 BYTE   W92
 BYTE   W03
 BYTE   EOT
 BYTE   W01
// 024   ----------------------------------------
 BYTE   TIE  Gn3
 BYTE   W96
// 025   ----------------------------------------
 BYTE   W92
 BYTE   W03
 BYTE   EOT
 BYTE   W01
// 026   ----------------------------------------
 BYTE   N92  Fs3
 BYTE   W96
// 027   ----------------------------------------
 BYTE   Gn3
 BYTE   W96
// 028   ----------------------------------------
 BYTE   TIE  Fs3
 BYTE   W96
// 029   ----------------------------------------
 BYTE   W92
 BYTE   W03
 BYTE   EOT
 BYTE   W01
// 030   ----------------------------------------
 BYTE   PATT
  POIN2 Label_8_0168C8CA
// 031   ----------------------------------------
 BYTE   PATT
  POIN2 Label_8_0168C8CA
// 032   ----------------------------------------
 BYTE   TIE  En3  v096
 BYTE   W96
// 033   ----------------------------------------
 BYTE   W92
 BYTE   W03
 BYTE   EOT
 BYTE   W01
// 034   ----------------------------------------
 BYTE   TIE
 BYTE   W96
// 035   ----------------------------------------
 BYTE   W92
 BYTE   W03
 BYTE   EOT
 BYTE   W01
// 036   ----------------------------------------
 BYTE   TIE
 BYTE   W96
// 037   ----------------------------------------
 BYTE   W92
 BYTE   W03
 BYTE   EOT
 BYTE   W01
// 038   ----------------------------------------
 BYTE   TIE
 BYTE   W96
// 039   ----------------------------------------
 BYTE   W92
 BYTE   W03
 BYTE   EOT
 BYTE   W01
// 040   ----------------------------------------
 BYTE   TIE
 BYTE   W96
// 041   ----------------------------------------
 BYTE   W92
 BYTE   W03
 BYTE   EOT
 BYTE   W01
// 042   ----------------------------------------
 BYTE   TIE
 BYTE   W96
// 043   ----------------------------------------
 BYTE   W92
 BYTE   W03
 BYTE   EOT
 BYTE   W01
// 044   ----------------------------------------
 BYTE   TIE  Gn3
 BYTE   W96
// 045   ----------------------------------------
 BYTE   W92
 BYTE   W03
 BYTE   EOT
 BYTE   W01
// 046   ----------------------------------------
 BYTE   N92  En3
 BYTE   W96
// 047   ----------------------------------------
 BYTE   Gn3
 BYTE   W96
// 048   ----------------------------------------
 BYTE   TIE  En3
 BYTE   W96
// 049   ----------------------------------------
 BYTE   W92
 BYTE   W03
 BYTE   EOT
 BYTE   W01
// 050   ----------------------------------------
 BYTE   TIE
 BYTE   W96
// 051   ----------------------------------------
 BYTE   W92
 BYTE   W03
 BYTE   EOT
 BYTE   W01
// 052   ----------------------------------------
 BYTE   TIE
 BYTE   W96
// 053   ----------------------------------------
 BYTE   W92
 BYTE   W03
 BYTE   EOT
 BYTE   W01
// 054   ----------------------------------------
 BYTE   TIE
 BYTE   W96
// 055   ----------------------------------------
 BYTE   W92
 BYTE   W03
 BYTE   EOT
 BYTE   W01
// 056   ----------------------------------------
 BYTE   TIE
 BYTE   W96
// 057   ----------------------------------------
 BYTE   W92
 BYTE   W03
 BYTE   EOT
 BYTE   W01
// 058   ----------------------------------------
 BYTE   TIE
 BYTE   W96
// 059   ----------------------------------------
 BYTE   W92
 BYTE   W03
 BYTE   EOT
 BYTE   W01
// 060   ----------------------------------------
 BYTE   TIE  Gn3
 BYTE   W96
// 061   ----------------------------------------
 BYTE   W92
 BYTE   W03
 BYTE   EOT
 BYTE   W01
// 062   ----------------------------------------
 BYTE   N92  En3
 BYTE   W96
// 063   ----------------------------------------
 BYTE   Gn3
 BYTE   W96
// 064   ----------------------------------------
 BYTE   W96
// 065   ----------------------------------------
 BYTE   W96
// 066   ----------------------------------------
 BYTE   W96
// 067   ----------------------------------------
 BYTE   W96
// 068   ----------------------------------------
 BYTE   W96
// 069   ----------------------------------------
 BYTE   W96
// 070   ----------------------------------------
 BYTE   W96
// 071   ----------------------------------------
 BYTE   W96
// 072   ----------------------------------------
 BYTE   TIE
 BYTE   W96
// 073   ----------------------------------------
 BYTE   W92
 BYTE   W03
 BYTE   EOT
 BYTE   W01
// 074   ----------------------------------------
 BYTE   TIE  Fs3
 BYTE   W96
// 075   ----------------------------------------
 BYTE   W92
 BYTE   W03
 BYTE   EOT
 BYTE   W01
// 076   ----------------------------------------
 BYTE   TIE  Gn3
 BYTE   W96
// 077   ----------------------------------------
 BYTE   W92
 BYTE   W03
 BYTE   EOT
 BYTE   W01
// 078   ----------------------------------------
 BYTE   N92  Fs3
 BYTE   W96
// 079   ----------------------------------------
 BYTE   Gn3
 BYTE   W96
// 080   ----------------------------------------
 BYTE   TIE  Fs3
 BYTE   W96
// 081   ----------------------------------------
 BYTE   W92
 BYTE   W03
 BYTE   EOT
 BYTE   W01
// 082   ----------------------------------------
 BYTE   PATT
  POIN2 Label_8_0168C8CA
// 083   ----------------------------------------
 BYTE   PATT
  POIN2 Label_8_0168C8CA
// 084   ----------------------------------------
 BYTE   TIE  Gn3  v096
 BYTE   W96
// 085   ----------------------------------------
 BYTE   W92
 BYTE   W03
 BYTE   EOT
 BYTE   W01
// 086   ----------------------------------------
 BYTE   TIE  Fs3
 BYTE   W96
// 087   ----------------------------------------
 BYTE   W92
 BYTE   W03
 BYTE   EOT
 BYTE   W01
// 088   ----------------------------------------
 BYTE   TIE  Gn3
 BYTE   W96
// 089   ----------------------------------------
 BYTE   W92
 BYTE   W03
 BYTE   EOT
 BYTE   W01
// 090   ----------------------------------------
 BYTE   N92  Fs3
 BYTE   W96
// 091   ----------------------------------------
 BYTE   Gn3
 BYTE   W96
// 092   ----------------------------------------
 BYTE   TIE  Fs3
 BYTE   W96
// 093   ----------------------------------------
 BYTE   W92
 BYTE   W03
 BYTE   EOT
 BYTE   W01
// 094   ----------------------------------------
 BYTE   PATT
  POIN2 Label_8_0168C8CA
// 095   ----------------------------------------
 BYTE   PATT
  POIN2 Label_8_0168C8CA
// 096   ----------------------------------------
 BYTE   TIE  En3  v096
 BYTE   W96
// 097   ----------------------------------------
 BYTE   W92
 BYTE   W03
 BYTE   EOT
 BYTE   W01
// 098   ----------------------------------------
 BYTE   TIE
 BYTE   W96
// 099   ----------------------------------------
 BYTE   W92
 BYTE   W03
 BYTE   EOT
 BYTE   W01
// 100   ----------------------------------------
 BYTE   TIE
 BYTE   W96
// 101   ----------------------------------------
 BYTE   W92
 BYTE   W03
 BYTE   EOT
 BYTE   W01
// 102   ----------------------------------------
 BYTE   TIE
 BYTE   W96
// 103   ----------------------------------------
 BYTE   W92
 BYTE   W03
 BYTE   EOT
 BYTE   W01
// 104   ----------------------------------------
 BYTE   TIE
 BYTE   W96
// 105   ----------------------------------------
 BYTE   W92
 BYTE   W03
 BYTE   EOT
 BYTE   W01
// 106   ----------------------------------------
 BYTE   TIE
 BYTE   W96
// 107   ----------------------------------------
 BYTE   W92
 BYTE   W03
 BYTE   EOT
 BYTE   W01
// 108   ----------------------------------------
 BYTE   TIE  Gn3
 BYTE   W96
// 109   ----------------------------------------
 BYTE   W92
 BYTE   W03
 BYTE   EOT
 BYTE   W01
// 110   ----------------------------------------
 BYTE   N92  En3
 BYTE   W96
// 111   ----------------------------------------
 BYTE   Gn3
 BYTE   W96
// 112   ----------------------------------------
 BYTE   TIE  En3
 BYTE   W96
// 113   ----------------------------------------
 BYTE   W92
 BYTE   W03
 BYTE   EOT
 BYTE   W01
// 114   ----------------------------------------
 BYTE   TIE
 BYTE   W96
// 115   ----------------------------------------
 BYTE   W92
 BYTE   W03
 BYTE   EOT
 BYTE   W01
// 116   ----------------------------------------
 BYTE   TIE
 BYTE   W96
// 117   ----------------------------------------
 BYTE   W92
 BYTE   W03
 BYTE   EOT
 BYTE   W01
// 118   ----------------------------------------
 BYTE   TIE
 BYTE   W96
// 119   ----------------------------------------
 BYTE   W92
 BYTE   W03
 BYTE   EOT
 BYTE   W01
// 120   ----------------------------------------
 BYTE   TIE
 BYTE   W96
// 121   ----------------------------------------
 BYTE   W92
 BYTE   W03
 BYTE   EOT
 BYTE   W01
// 122   ----------------------------------------
 BYTE   TIE
 BYTE   W96
// 123   ----------------------------------------
 BYTE   W92
 BYTE   W03
 BYTE   EOT
 BYTE   W01
// 124   ----------------------------------------
 BYTE   TIE  Gn3
 BYTE   W96
// 125   ----------------------------------------
 BYTE   W92
 BYTE   W03
 BYTE   EOT
 BYTE   W01
// 126   ----------------------------------------
 BYTE   N92  En3
 BYTE   W96
// 127   ----------------------------------------
 BYTE   Gn3
 BYTE   W92
 BYTE   W03
 BYTE   GoTo
  POIN2 Label_8_0168C89A
 BYTE   FINE

//**************** Track 10 (Midi-Chn.9) ****************//

song03CB_010:
// 000   ----------------------------------------
 BYTE   KEYSH   song03CB_key+0
Label_9_0168CA32:
 BYTE   VOICE   68
 BYTE   VOL   35*song03CB_mvl/mxv
 BYTE   PAN   c_v+0
 BYTE   W96
// 001   ----------------------------------------
 BYTE   W96
// 002   ----------------------------------------
 BYTE   W96
// 003   ----------------------------------------
 BYTE   W96
// 004   ----------------------------------------
 BYTE   W96
// 005   ----------------------------------------
 BYTE   W96
// 006   ----------------------------------------
 BYTE   W96
// 007   ----------------------------------------
 BYTE   W96
// 008   ----------------------------------------
 BYTE   TIE  En3  v096
 BYTE   W96
// 009   ----------------------------------------
 BYTE   W92
 BYTE   W03
 BYTE   EOT
 BYTE   W01
// 010   ----------------------------------------
 BYTE   TIE  Dn3
 BYTE   W96
// 011   ----------------------------------------
 BYTE   W92
 BYTE   W03
 BYTE   EOT
 BYTE   W01
// 012   ----------------------------------------
 BYTE   TIE  En3
 BYTE   W96
// 013   ----------------------------------------
 BYTE   W92
 BYTE   W03
 BYTE   EOT
 BYTE   W01
// 014   ----------------------------------------
 BYTE   N92  Dn3
 BYTE   W96
// 015   ----------------------------------------
 BYTE   En3
 BYTE   W96
// 016   ----------------------------------------
 BYTE   TIE  Ds3
 BYTE   W96
// 017   ----------------------------------------
 BYTE   W92
 BYTE   W03
 BYTE   EOT
 BYTE   W01
// 018   ----------------------------------------
Label_9_0168CA62:
 BYTE   N44  Ds3  v096
 BYTE   W48
 BYTE   N44
 BYTE   W48
 BYTE   PEND 
// 019   ----------------------------------------
 BYTE   PATT
  POIN2 Label_9_0168CA62
// 020   ----------------------------------------
 BYTE   TIE  En3  v096
 BYTE   W96
// 021   ----------------------------------------
 BYTE   W92
 BYTE   W03
 BYTE   EOT
 BYTE   W01
// 022   ----------------------------------------
 BYTE   TIE  Dn3
 BYTE   W96
// 023   ----------------------------------------
 BYTE   W92
 BYTE   W03
 BYTE   EOT
 BYTE   W01
// 024   ----------------------------------------
 BYTE   TIE  En3
 BYTE   W96
// 025   ----------------------------------------
 BYTE   W92
 BYTE   W03
 BYTE   EOT
 BYTE   W01
// 026   ----------------------------------------
 BYTE   N92  Dn3
 BYTE   W96
// 027   ----------------------------------------
 BYTE   En3
 BYTE   W96
// 028   ----------------------------------------
 BYTE   TIE  Ds3
 BYTE   W96
// 029   ----------------------------------------
 BYTE   W92
 BYTE   W03
 BYTE   EOT
 BYTE   W01
// 030   ----------------------------------------
 BYTE   PATT
  POIN2 Label_9_0168CA62
// 031   ----------------------------------------
 BYTE   PATT
  POIN2 Label_9_0168CA62
// 032   ----------------------------------------
Label_9_0168CA9A:
 BYTE   PAN   c_v-64
 BYTE   TIE  Cn3  v096
 BYTE   W96
 BYTE   PEND 
// 033   ----------------------------------------
 BYTE   W92
 BYTE   W03
 BYTE   EOT
 BYTE   W01
// 034   ----------------------------------------
 BYTE   TIE  Bn2
 BYTE   W96
// 035   ----------------------------------------
 BYTE   W92
 BYTE   W03
 BYTE   EOT
 BYTE   W01
// 036   ----------------------------------------
 BYTE   TIE  Cn3
 BYTE   W96
// 037   ----------------------------------------
 BYTE   W92
 BYTE   W03
 BYTE   EOT
 BYTE   W01
// 038   ----------------------------------------
 BYTE   TIE  Bn2
 BYTE   W96
// 039   ----------------------------------------
 BYTE   W92
 BYTE   W03
 BYTE   EOT
 BYTE   W01
// 040   ----------------------------------------
 BYTE   TIE  Cn3
 BYTE   W96
// 041   ----------------------------------------
 BYTE   W92
 BYTE   W03
 BYTE   EOT
 BYTE   W01
// 042   ----------------------------------------
 BYTE   TIE  Bn2
 BYTE   W96
// 043   ----------------------------------------
 BYTE   W92
 BYTE   W03
 BYTE   EOT
 BYTE   W01
// 044   ----------------------------------------
 BYTE   TIE  Dn3
 BYTE   W96
// 045   ----------------------------------------
 BYTE   W92
 BYTE   W03
 BYTE   EOT
 BYTE   W01
// 046   ----------------------------------------
 BYTE   N92  Bn2
 BYTE   W96
// 047   ----------------------------------------
 BYTE   Dn3
 BYTE   W96
// 048   ----------------------------------------
 BYTE   TIE  Cn3
 BYTE   W96
// 049   ----------------------------------------
 BYTE   W92
 BYTE   W03
 BYTE   EOT
 BYTE   W01
// 050   ----------------------------------------
 BYTE   TIE  Bn2
 BYTE   W96
// 051   ----------------------------------------
 BYTE   W92
 BYTE   W03
 BYTE   EOT
 BYTE   W01
// 052   ----------------------------------------
 BYTE   TIE  Cn3
 BYTE   W96
// 053   ----------------------------------------
 BYTE   W92
 BYTE   W03
 BYTE   EOT
 BYTE   W01
// 054   ----------------------------------------
 BYTE   TIE  Bn2
 BYTE   W96
// 055   ----------------------------------------
 BYTE   W92
 BYTE   W03
 BYTE   EOT
 BYTE   W01
// 056   ----------------------------------------
 BYTE   TIE  Cn3
 BYTE   W96
// 057   ----------------------------------------
 BYTE   W92
 BYTE   W03
 BYTE   EOT
 BYTE   W01
// 058   ----------------------------------------
 BYTE   TIE  Bn2
 BYTE   W96
// 059   ----------------------------------------
 BYTE   W92
 BYTE   W03
 BYTE   EOT
 BYTE   W01
// 060   ----------------------------------------
 BYTE   TIE  Dn3
 BYTE   W96
// 061   ----------------------------------------
 BYTE   W92
 BYTE   W03
 BYTE   EOT
 BYTE   W01
// 062   ----------------------------------------
 BYTE   N92  Bn2
 BYTE   W96
// 063   ----------------------------------------
 BYTE   Dn3
 BYTE   W96
// 064   ----------------------------------------
 BYTE   PAN   c_v-1
 BYTE   W96
// 065   ----------------------------------------
 BYTE   W96
// 066   ----------------------------------------
 BYTE   W96
// 067   ----------------------------------------
 BYTE   W96
// 068   ----------------------------------------
 BYTE   W96
// 069   ----------------------------------------
 BYTE   W96
// 070   ----------------------------------------
 BYTE   W96
// 071   ----------------------------------------
 BYTE   W96
// 072   ----------------------------------------
 BYTE   TIE  En3
 BYTE   W96
// 073   ----------------------------------------
 BYTE   W92
 BYTE   W03
 BYTE   EOT
 BYTE   W01
// 074   ----------------------------------------
 BYTE   TIE  Dn3
 BYTE   W96
// 075   ----------------------------------------
 BYTE   W92
 BYTE   W03
 BYTE   EOT
 BYTE   W01
// 076   ----------------------------------------
 BYTE   TIE  En3
 BYTE   W96
// 077   ----------------------------------------
 BYTE   W92
 BYTE   W03
 BYTE   EOT
 BYTE   W01
// 078   ----------------------------------------
 BYTE   N92  Dn3
 BYTE   W96
// 079   ----------------------------------------
 BYTE   En3
 BYTE   W96
// 080   ----------------------------------------
 BYTE   TIE  Ds3
 BYTE   W96
// 081   ----------------------------------------
 BYTE   W92
 BYTE   W03
 BYTE   EOT
 BYTE   W01
// 082   ----------------------------------------
 BYTE   PATT
  POIN2 Label_9_0168CA62
// 083   ----------------------------------------
 BYTE   PATT
  POIN2 Label_9_0168CA62
// 084   ----------------------------------------
 BYTE   TIE  En3  v096
 BYTE   W96
// 085   ----------------------------------------
 BYTE   W92
 BYTE   W03
 BYTE   EOT
 BYTE   W01
// 086   ----------------------------------------
 BYTE   TIE  Dn3
 BYTE   W96
// 087   ----------------------------------------
 BYTE   W92
 BYTE   W03
 BYTE   EOT
 BYTE   W01
// 088   ----------------------------------------
 BYTE   TIE  En3
 BYTE   W96
// 089   ----------------------------------------
 BYTE   W92
 BYTE   W03
 BYTE   EOT
 BYTE   W01
// 090   ----------------------------------------
 BYTE   N92  Dn3
 BYTE   W96
// 091   ----------------------------------------
 BYTE   En3
 BYTE   W96
// 092   ----------------------------------------
 BYTE   TIE  Ds3
 BYTE   W96
// 093   ----------------------------------------
 BYTE   W92
 BYTE   W03
 BYTE   EOT
 BYTE   W01
// 094   ----------------------------------------
 BYTE   PATT
  POIN2 Label_9_0168CA62
// 095   ----------------------------------------
 BYTE   PATT
  POIN2 Label_9_0168CA62
// 096   ----------------------------------------
 BYTE   PATT
  POIN2 Label_9_0168CA9A
// 097   ----------------------------------------
 BYTE   W92
 BYTE   W03
 BYTE   EOT
 BYTE   Cn3
 BYTE   W01
// 098   ----------------------------------------
 BYTE   TIE  Bn2  v096
 BYTE   W96
// 099   ----------------------------------------
 BYTE   W92
 BYTE   W03
 BYTE   EOT
 BYTE   W01
// 100   ----------------------------------------
 BYTE   TIE  Cn3
 BYTE   W96
// 101   ----------------------------------------
 BYTE   W92
 BYTE   W03
 BYTE   EOT
 BYTE   W01
// 102   ----------------------------------------
 BYTE   TIE  Bn2
 BYTE   W96
// 103   ----------------------------------------
 BYTE   W92
 BYTE   W03
 BYTE   EOT
 BYTE   W01
// 104   ----------------------------------------
 BYTE   TIE  Cn3
 BYTE   W96
// 105   ----------------------------------------
 BYTE   W92
 BYTE   W03
 BYTE   EOT
 BYTE   W01
// 106   ----------------------------------------
 BYTE   TIE  Bn2
 BYTE   W96
// 107   ----------------------------------------
 BYTE   W92
 BYTE   W03
 BYTE   EOT
 BYTE   W01
// 108   ----------------------------------------
 BYTE   TIE  Dn3
 BYTE   W96
// 109   ----------------------------------------
 BYTE   W92
 BYTE   W03
 BYTE   EOT
 BYTE   W01
// 110   ----------------------------------------
 BYTE   N92  Bn2
 BYTE   W96
// 111   ----------------------------------------
 BYTE   Dn3
 BYTE   W96
// 112   ----------------------------------------
 BYTE   TIE  Cn3
 BYTE   W96
// 113   ----------------------------------------
 BYTE   W92
 BYTE   W03
 BYTE   EOT
 BYTE   W01
// 114   ----------------------------------------
 BYTE   TIE  Bn2
 BYTE   W96
// 115   ----------------------------------------
 BYTE   W92
 BYTE   W03
 BYTE   EOT
 BYTE   W01
// 116   ----------------------------------------
 BYTE   TIE  Cn3
 BYTE   W96
// 117   ----------------------------------------
 BYTE   W92
 BYTE   W03
 BYTE   EOT
 BYTE   W01
// 118   ----------------------------------------
 BYTE   TIE  Bn2
 BYTE   W96
// 119   ----------------------------------------
 BYTE   W92
 BYTE   W03
 BYTE   EOT
 BYTE   W01
// 120   ----------------------------------------
 BYTE   TIE  Cn3
 BYTE   W96
// 121   ----------------------------------------
 BYTE   W92
 BYTE   W03
 BYTE   EOT
 BYTE   W01
// 122   ----------------------------------------
 BYTE   TIE  Bn2
 BYTE   W96
// 123   ----------------------------------------
 BYTE   W92
 BYTE   W03
 BYTE   EOT
 BYTE   W01
// 124   ----------------------------------------
 BYTE   TIE  Dn3
 BYTE   W96
// 125   ----------------------------------------
 BYTE   W92
 BYTE   W03
 BYTE   EOT
 BYTE   W01
// 126   ----------------------------------------
 BYTE   N92  Bn2
 BYTE   W96
// 127   ----------------------------------------
 BYTE   Dn3
 BYTE   W92
 BYTE   W03
 BYTE   GoTo
  POIN2 Label_9_0168CA32
 BYTE   FINE

//**************** Track 11 (Midi-Chn.10) ****************//

song03CB_011:
// 000   ----------------------------------------
 BYTE   KEYSH   song03CB_key+0
Label_10_0168CBE6:
 BYTE   VOICE   68
 BYTE   VOL   35*song03CB_mvl/mxv
 BYTE   PAN   c_v-64
 BYTE   W96
// 001   ----------------------------------------
 BYTE   W96
// 002   ----------------------------------------
 BYTE   W96
// 003   ----------------------------------------
 BYTE   W96
// 004   ----------------------------------------
 BYTE   W96
// 005   ----------------------------------------
 BYTE   W96
// 006   ----------------------------------------
 BYTE   W96
// 007   ----------------------------------------
 BYTE   W96
// 008   ----------------------------------------
 BYTE   TIE  En1  v096
 BYTE   W96
// 009   ----------------------------------------
 BYTE   W92
 BYTE   W03
 BYTE   EOT
 BYTE   W01
// 010   ----------------------------------------
 BYTE   TIE  Dn1
 BYTE   W96
// 011   ----------------------------------------
 BYTE   W92
 BYTE   W03
 BYTE   EOT
 BYTE   W01
// 012   ----------------------------------------
 BYTE   TIE  En1
 BYTE   W96
// 013   ----------------------------------------
 BYTE   W92
 BYTE   W03
 BYTE   EOT
 BYTE   W01
// 014   ----------------------------------------
 BYTE   N92  Dn1
 BYTE   W96
// 015   ----------------------------------------
 BYTE   Cn2
 BYTE   W96
// 016   ----------------------------------------
 BYTE   TIE  Bn1
 BYTE   W96
// 017   ----------------------------------------
 BYTE   W92
 BYTE   W03
 BYTE   EOT
 BYTE   W01
// 018   ----------------------------------------
Label_10_0168CC16:
 BYTE   N11  Bn1  v096
 BYTE   W24
 BYTE   N11
 BYTE   W12
 BYTE   N11
 BYTE   W12
 BYTE   N11
 BYTE   W24
 BYTE   N11
 BYTE   W12
 BYTE   N11
 BYTE   W12
 BYTE   PEND 
// 019   ----------------------------------------
 BYTE   PATT
  POIN2 Label_10_0168CC16
// 020   ----------------------------------------
 BYTE   TIE  En1  v096
 BYTE   W96
// 021   ----------------------------------------
 BYTE   W92
 BYTE   W03
 BYTE   EOT
 BYTE   W01
// 022   ----------------------------------------
 BYTE   TIE  Dn1
 BYTE   W96
// 023   ----------------------------------------
 BYTE   W92
 BYTE   W03
 BYTE   EOT
 BYTE   W01
// 024   ----------------------------------------
 BYTE   TIE  En1
 BYTE   W96
// 025   ----------------------------------------
 BYTE   W92
 BYTE   W03
 BYTE   EOT
 BYTE   W01
// 026   ----------------------------------------
 BYTE   N92  Dn1
 BYTE   W96
// 027   ----------------------------------------
 BYTE   Cn2
 BYTE   W96
// 028   ----------------------------------------
 BYTE   TIE  Bn1
 BYTE   W96
// 029   ----------------------------------------
 BYTE   W92
 BYTE   W03
 BYTE   EOT
 BYTE   W01
// 030   ----------------------------------------
 BYTE   PATT
  POIN2 Label_10_0168CC16
// 031   ----------------------------------------
 BYTE   PATT
  POIN2 Label_10_0168CC16
// 032   ----------------------------------------
 BYTE   W96
// 033   ----------------------------------------
 BYTE   W96
// 034   ----------------------------------------
 BYTE   W96
// 035   ----------------------------------------
 BYTE   W96
// 036   ----------------------------------------
 BYTE   W96
// 037   ----------------------------------------
 BYTE   W96
// 038   ----------------------------------------
 BYTE   W96
// 039   ----------------------------------------
 BYTE   W96
// 040   ----------------------------------------
 BYTE   W96
// 041   ----------------------------------------
 BYTE   W96
// 042   ----------------------------------------
 BYTE   W96
// 043   ----------------------------------------
 BYTE   W96
// 044   ----------------------------------------
 BYTE   W96
// 045   ----------------------------------------
 BYTE   W96
// 046   ----------------------------------------
 BYTE   W96
// 047   ----------------------------------------
 BYTE   W96
// 048   ----------------------------------------
 BYTE   W96
// 049   ----------------------------------------
 BYTE   W96
// 050   ----------------------------------------
 BYTE   W96
// 051   ----------------------------------------
 BYTE   W96
// 052   ----------------------------------------
 BYTE   W96
// 053   ----------------------------------------
 BYTE   W96
// 054   ----------------------------------------
 BYTE   W96
// 055   ----------------------------------------
 BYTE   W96
// 056   ----------------------------------------
 BYTE   W96
// 057   ----------------------------------------
 BYTE   W96
// 058   ----------------------------------------
 BYTE   W96
// 059   ----------------------------------------
 BYTE   W96
// 060   ----------------------------------------
 BYTE   W96
// 061   ----------------------------------------
 BYTE   W96
// 062   ----------------------------------------
 BYTE   W96
// 063   ----------------------------------------
 BYTE   W96
// 064   ----------------------------------------
 BYTE   W96
// 065   ----------------------------------------
 BYTE   W96
// 066   ----------------------------------------
 BYTE   W96
// 067   ----------------------------------------
 BYTE   W96
// 068   ----------------------------------------
 BYTE   W96
// 069   ----------------------------------------
 BYTE   W96
// 070   ----------------------------------------
 BYTE   W96
// 071   ----------------------------------------
 BYTE   W96
// 072   ----------------------------------------
 BYTE   TIE  En1  v096
 BYTE   W96
// 073   ----------------------------------------
 BYTE   W92
 BYTE   W03
 BYTE   EOT
 BYTE   W01
// 074   ----------------------------------------
 BYTE   TIE  Dn1
 BYTE   W96
// 075   ----------------------------------------
 BYTE   W92
 BYTE   W03
 BYTE   EOT
 BYTE   W01
// 076   ----------------------------------------
 BYTE   TIE  En1
 BYTE   W96
// 077   ----------------------------------------
 BYTE   W92
 BYTE   W03
 BYTE   EOT
 BYTE   W01
// 078   ----------------------------------------
 BYTE   N92  Dn1
 BYTE   W96
// 079   ----------------------------------------
 BYTE   Cn2
 BYTE   W96
// 080   ----------------------------------------
 BYTE   TIE  Bn1
 BYTE   W96
// 081   ----------------------------------------
 BYTE   W92
 BYTE   W03
 BYTE   EOT
 BYTE   W01
// 082   ----------------------------------------
 BYTE   PATT
  POIN2 Label_10_0168CC16
// 083   ----------------------------------------
 BYTE   PATT
  POIN2 Label_10_0168CC16
// 084   ----------------------------------------
 BYTE   TIE  En1  v096
 BYTE   W96
// 085   ----------------------------------------
 BYTE   W92
 BYTE   W03
 BYTE   EOT
 BYTE   W01
// 086   ----------------------------------------
 BYTE   TIE  Dn1
 BYTE   W96
// 087   ----------------------------------------
 BYTE   W92
 BYTE   W03
 BYTE   EOT
 BYTE   W01
// 088   ----------------------------------------
 BYTE   TIE  En1
 BYTE   W96
// 089   ----------------------------------------
 BYTE   W92
 BYTE   W03
 BYTE   EOT
 BYTE   W01
// 090   ----------------------------------------
 BYTE   N92  Dn1
 BYTE   W96
// 091   ----------------------------------------
 BYTE   Cn2
 BYTE   W96
// 092   ----------------------------------------
 BYTE   TIE  Bn1
 BYTE   W96
// 093   ----------------------------------------
 BYTE   W92
 BYTE   W03
 BYTE   EOT
 BYTE   W01
// 094   ----------------------------------------
 BYTE   PATT
  POIN2 Label_10_0168CC16
// 095   ----------------------------------------
 BYTE   PATT
  POIN2 Label_10_0168CC16
// 096   ----------------------------------------
 BYTE   W96
// 097   ----------------------------------------
 BYTE   W96
// 098   ----------------------------------------
 BYTE   W96
// 099   ----------------------------------------
 BYTE   W96
// 100   ----------------------------------------
 BYTE   W96
// 101   ----------------------------------------
 BYTE   W96
// 102   ----------------------------------------
 BYTE   W96
// 103   ----------------------------------------
 BYTE   W96
// 104   ----------------------------------------
 BYTE   W96
// 105   ----------------------------------------
 BYTE   W96
// 106   ----------------------------------------
 BYTE   W96
// 107   ----------------------------------------
 BYTE   W96
// 108   ----------------------------------------
 BYTE   W96
// 109   ----------------------------------------
 BYTE   W96
// 110   ----------------------------------------
 BYTE   W96
// 111   ----------------------------------------
 BYTE   W96
// 112   ----------------------------------------
 BYTE   W96
// 113   ----------------------------------------
 BYTE   W96
// 114   ----------------------------------------
 BYTE   W96
// 115   ----------------------------------------
 BYTE   W96
// 116   ----------------------------------------
 BYTE   W96
// 117   ----------------------------------------
 BYTE   W96
// 118   ----------------------------------------
 BYTE   W96
// 119   ----------------------------------------
 BYTE   W96
// 120   ----------------------------------------
 BYTE   W96
// 121   ----------------------------------------
 BYTE   W96
// 122   ----------------------------------------
 BYTE   W96
// 123   ----------------------------------------
 BYTE   W96
// 124   ----------------------------------------
 BYTE   W96
// 125   ----------------------------------------
 BYTE   W96
// 126   ----------------------------------------
 BYTE   W96
// 127   ----------------------------------------
 BYTE   W92
 BYTE   W03
 BYTE   GoTo
  POIN2 Label_10_0168CBE6
 BYTE   FINE

//**************** Track 12 (Midi-Chn.11) ****************//

song03CB_012:
// 000   ----------------------------------------
 BYTE   KEYSH   song03CB_key+0
Label_11_0168CD02:
 BYTE   VOICE   85
 BYTE   VOL   35*song03CB_mvl/mxv
 BYTE   PAN   c_v+0
 BYTE   W96
// 001   ----------------------------------------
 BYTE   W96
// 002   ----------------------------------------
 BYTE   W96
// 003   ----------------------------------------
 BYTE   W96
// 004   ----------------------------------------
 BYTE   W96
// 005   ----------------------------------------
 BYTE   W96
// 006   ----------------------------------------
 BYTE   W96
// 007   ----------------------------------------
 BYTE   W96
// 008   ----------------------------------------
 BYTE   W96
// 009   ----------------------------------------
 BYTE   W96
// 010   ----------------------------------------
 BYTE   W96
// 011   ----------------------------------------
 BYTE   W96
// 012   ----------------------------------------
 BYTE   W96
// 013   ----------------------------------------
 BYTE   W96
// 014   ----------------------------------------
 BYTE   W96
// 015   ----------------------------------------
 BYTE   W96
// 016   ----------------------------------------
 BYTE   W96
// 017   ----------------------------------------
 BYTE   W96
// 018   ----------------------------------------
Label_11_0168CD1A:
 BYTE   W24
 BYTE   N11  Dn3  v127
 BYTE   W12
 BYTE   En3
 BYTE   W12
 BYTE   Fs3
 BYTE   W12
 BYTE   Gn3
 BYTE   W24
 BYTE   N11
 BYTE   W12
 BYTE   PEND 
// 019   ----------------------------------------
Label_11_0168CD28:
 BYTE   W12
 BYTE   N11  Gn3  v127
 BYTE   W24
 BYTE   Fs3
 BYTE   W12
 BYTE   N23  Gn3
 BYTE   W24
 BYTE   N11  An3
 BYTE   W24
 BYTE   PEND 
// 020   ----------------------------------------
 BYTE   W96
// 021   ----------------------------------------
 BYTE   W96
// 022   ----------------------------------------
 BYTE   W96
// 023   ----------------------------------------
 BYTE   W96
// 024   ----------------------------------------
 BYTE   W96
// 025   ----------------------------------------
 BYTE   W96
// 026   ----------------------------------------
 BYTE   W96
// 027   ----------------------------------------
 BYTE   W96
// 028   ----------------------------------------
 BYTE   W96
// 029   ----------------------------------------
 BYTE   W96
// 030   ----------------------------------------
 BYTE   PATT
  POIN2 Label_11_0168CD1A
// 031   ----------------------------------------
 BYTE   PATT
  POIN2 Label_11_0168CD28
// 032   ----------------------------------------
 BYTE   W96
// 033   ----------------------------------------
 BYTE   W96
// 034   ----------------------------------------
 BYTE   W96
// 035   ----------------------------------------
 BYTE   W96
// 036   ----------------------------------------
 BYTE   W96
// 037   ----------------------------------------
 BYTE   W96
// 038   ----------------------------------------
 BYTE   W96
// 039   ----------------------------------------
 BYTE   W96
// 040   ----------------------------------------
 BYTE   W96
// 041   ----------------------------------------
 BYTE   W96
// 042   ----------------------------------------
 BYTE   W96
// 043   ----------------------------------------
 BYTE   W96
// 044   ----------------------------------------
 BYTE   W96
// 045   ----------------------------------------
 BYTE   W96
// 046   ----------------------------------------
 BYTE   W96
// 047   ----------------------------------------
 BYTE   W96
// 048   ----------------------------------------
 BYTE   W96
// 049   ----------------------------------------
 BYTE   W96
// 050   ----------------------------------------
 BYTE   W96
// 051   ----------------------------------------
 BYTE   W96
// 052   ----------------------------------------
 BYTE   W96
// 053   ----------------------------------------
 BYTE   W96
// 054   ----------------------------------------
 BYTE   W96
// 055   ----------------------------------------
 BYTE   W96
// 056   ----------------------------------------
 BYTE   W96
// 057   ----------------------------------------
 BYTE   W96
// 058   ----------------------------------------
 BYTE   W96
// 059   ----------------------------------------
 BYTE   W96
// 060   ----------------------------------------
 BYTE   W96
// 061   ----------------------------------------
 BYTE   W96
// 062   ----------------------------------------
 BYTE   W96
// 063   ----------------------------------------
 BYTE   W96
// 064   ----------------------------------------
 BYTE   W96
// 065   ----------------------------------------
 BYTE   W96
// 066   ----------------------------------------
 BYTE   W96
// 067   ----------------------------------------
 BYTE   W96
// 068   ----------------------------------------
 BYTE   W96
// 069   ----------------------------------------
 BYTE   W96
// 070   ----------------------------------------
 BYTE   W96
// 071   ----------------------------------------
 BYTE   W96
// 072   ----------------------------------------
 BYTE   W96
// 073   ----------------------------------------
 BYTE   W96
// 074   ----------------------------------------
 BYTE   W96
// 075   ----------------------------------------
 BYTE   W96
// 076   ----------------------------------------
 BYTE   W96
// 077   ----------------------------------------
 BYTE   W96
// 078   ----------------------------------------
 BYTE   W96
// 079   ----------------------------------------
 BYTE   W96
// 080   ----------------------------------------
 BYTE   W96
// 081   ----------------------------------------
 BYTE   W96
// 082   ----------------------------------------
 BYTE   PATT
  POIN2 Label_11_0168CD1A
// 083   ----------------------------------------
 BYTE   PATT
  POIN2 Label_11_0168CD28
// 084   ----------------------------------------
 BYTE   W96
// 085   ----------------------------------------
 BYTE   W96
// 086   ----------------------------------------
 BYTE   W96
// 087   ----------------------------------------
 BYTE   W96
// 088   ----------------------------------------
 BYTE   W96
// 089   ----------------------------------------
 BYTE   W96
// 090   ----------------------------------------
 BYTE   W96
// 091   ----------------------------------------
 BYTE   W96
// 092   ----------------------------------------
 BYTE   W96
// 093   ----------------------------------------
 BYTE   W96
// 094   ----------------------------------------
 BYTE   PATT
  POIN2 Label_11_0168CD1A
// 095   ----------------------------------------
 BYTE   PATT
  POIN2 Label_11_0168CD28
// 096   ----------------------------------------
 BYTE   W96
// 097   ----------------------------------------
 BYTE   W96
// 098   ----------------------------------------
 BYTE   W96
// 099   ----------------------------------------
 BYTE   W96
// 100   ----------------------------------------
 BYTE   W96
// 101   ----------------------------------------
 BYTE   W96
// 102   ----------------------------------------
 BYTE   W96
// 103   ----------------------------------------
 BYTE   W96
// 104   ----------------------------------------
 BYTE   W96
// 105   ----------------------------------------
 BYTE   W96
// 106   ----------------------------------------
 BYTE   W96
// 107   ----------------------------------------
 BYTE   W96
// 108   ----------------------------------------
 BYTE   W96
// 109   ----------------------------------------
 BYTE   W96
// 110   ----------------------------------------
 BYTE   W96
// 111   ----------------------------------------
 BYTE   W96
// 112   ----------------------------------------
 BYTE   W96
// 113   ----------------------------------------
 BYTE   W96
// 114   ----------------------------------------
 BYTE   W96
// 115   ----------------------------------------
 BYTE   W96
// 116   ----------------------------------------
 BYTE   W96
// 117   ----------------------------------------
 BYTE   W96
// 118   ----------------------------------------
 BYTE   W96
// 119   ----------------------------------------
 BYTE   W96
// 120   ----------------------------------------
 BYTE   W96
// 121   ----------------------------------------
 BYTE   W96
// 122   ----------------------------------------
 BYTE   W96
// 123   ----------------------------------------
 BYTE   W96
// 124   ----------------------------------------
 BYTE   W96
// 125   ----------------------------------------
 BYTE   W96
// 126   ----------------------------------------
 BYTE   W96
// 127   ----------------------------------------
 BYTE   W92
 BYTE   W03
 BYTE   GoTo
  POIN2 Label_11_0168CD02
 BYTE   FINE

//**************** Track 13 (Midi-Chn.12) ****************//

song03CB_013:
// 000   ----------------------------------------
 BYTE   KEYSH   song03CB_key+0
Label_12_0168CDC6:
 BYTE   VOICE   124
 BYTE   VOL   30*song03CB_mvl/mxv
 BYTE   N05  Cn1  v127
 BYTE   W48
 BYTE   En1
 BYTE   W48
// 001   ----------------------------------------
Label_12_0168CDD0:
 BYTE   N05  Cn1  v127
 BYTE   W48
 BYTE   En1
 BYTE   W48
 BYTE   PEND 
// 002   ----------------------------------------
 BYTE   PATT
  POIN2 Label_12_0168CDD0
// 003   ----------------------------------------
 BYTE   PATT
  POIN2 Label_12_0168CDD0
// 004   ----------------------------------------
 BYTE   PATT
  POIN2 Label_12_0168CDD0
// 005   ----------------------------------------
 BYTE   PATT
  POIN2 Label_12_0168CDD0
// 006   ----------------------------------------
 BYTE   PATT
  POIN2 Label_12_0168CDD0
// 007   ----------------------------------------
Label_12_0168CDF0:
 BYTE   N05  Cn1  v127
 BYTE   W48
 BYTE   En1
 BYTE   W12
 BYTE   N05
 BYTE   W12
 BYTE   N05
 BYTE   W12
 BYTE   N05
 BYTE   W12
 BYTE   PEND 
// 008   ----------------------------------------
 BYTE   PATT
  POIN2 Label_12_0168CDD0
// 009   ----------------------------------------
 BYTE   PATT
  POIN2 Label_12_0168CDD0
// 010   ----------------------------------------
 BYTE   PATT
  POIN2 Label_12_0168CDD0
// 011   ----------------------------------------
 BYTE   PATT
  POIN2 Label_12_0168CDD0
// 012   ----------------------------------------
 BYTE   PATT
  POIN2 Label_12_0168CDD0
// 013   ----------------------------------------
 BYTE   PATT
  POIN2 Label_12_0168CDD0
// 014   ----------------------------------------
 BYTE   PATT
  POIN2 Label_12_0168CDD0
// 015   ----------------------------------------
 BYTE   PATT
  POIN2 Label_12_0168CDD0
// 016   ----------------------------------------
 BYTE   PATT
  POIN2 Label_12_0168CDD0
// 017   ----------------------------------------
 BYTE   PATT
  POIN2 Label_12_0168CDD0
// 018   ----------------------------------------
Label_12_0168CE2F:
 BYTE   N05  Cn1  v127
 BYTE   W12
 BYTE   Dn2
 BYTE   W12
 BYTE   N05
 BYTE   W24
 BYTE   Cn1
 BYTE   W12
 BYTE   Dn2
 BYTE   W12
 BYTE   N05
 BYTE   W24
 BYTE   PEND 
// 019   ----------------------------------------
Label_12_0168CE3E:
 BYTE   N05  Cn1  v127
 BYTE   W12
 BYTE   Dn2
 BYTE   W12
 BYTE   N05
 BYTE   W12
 BYTE   Cn2
 BYTE   W12
 BYTE   N05
 BYTE   W12
 BYTE   Bn1
 BYTE   W12
 BYTE   N05
 BYTE   W12
 BYTE   An1
 BYTE   W12
 BYTE   PEND 
// 020   ----------------------------------------
 BYTE   PATT
  POIN2 Label_12_0168CDD0
// 021   ----------------------------------------
 BYTE   PATT
  POIN2 Label_12_0168CDD0
// 022   ----------------------------------------
 BYTE   PATT
  POIN2 Label_12_0168CDD0
// 023   ----------------------------------------
 BYTE   PATT
  POIN2 Label_12_0168CDD0
// 024   ----------------------------------------
 BYTE   PATT
  POIN2 Label_12_0168CDD0
// 025   ----------------------------------------
 BYTE   PATT
  POIN2 Label_12_0168CDD0
// 026   ----------------------------------------
 BYTE   PATT
  POIN2 Label_12_0168CDD0
// 027   ----------------------------------------
 BYTE   PATT
  POIN2 Label_12_0168CDD0
// 028   ----------------------------------------
 BYTE   PATT
  POIN2 Label_12_0168CDD0
// 029   ----------------------------------------
 BYTE   PATT
  POIN2 Label_12_0168CDD0
// 030   ----------------------------------------
 BYTE   PATT
  POIN2 Label_12_0168CE2F
// 031   ----------------------------------------
 BYTE   PATT
  POIN2 Label_12_0168CE3E
// 032   ----------------------------------------
 BYTE   PATT
  POIN2 Label_12_0168CDD0
// 033   ----------------------------------------
 BYTE   PATT
  POIN2 Label_12_0168CDD0
// 034   ----------------------------------------
 BYTE   PATT
  POIN2 Label_12_0168CDD0
// 035   ----------------------------------------
 BYTE   PATT
  POIN2 Label_12_0168CDD0
// 036   ----------------------------------------
 BYTE   PATT
  POIN2 Label_12_0168CDD0
// 037   ----------------------------------------
 BYTE   PATT
  POIN2 Label_12_0168CDD0
// 038   ----------------------------------------
 BYTE   PATT
  POIN2 Label_12_0168CDD0
// 039   ----------------------------------------
 BYTE   PATT
  POIN2 Label_12_0168CDD0
// 040   ----------------------------------------
 BYTE   PATT
  POIN2 Label_12_0168CDD0
// 041   ----------------------------------------
 BYTE   PATT
  POIN2 Label_12_0168CDD0
// 042   ----------------------------------------
 BYTE   PATT
  POIN2 Label_12_0168CDD0
// 043   ----------------------------------------
 BYTE   PATT
  POIN2 Label_12_0168CDD0
// 044   ----------------------------------------
 BYTE   PATT
  POIN2 Label_12_0168CDD0
// 045   ----------------------------------------
 BYTE   PATT
  POIN2 Label_12_0168CDD0
// 046   ----------------------------------------
 BYTE   PATT
  POIN2 Label_12_0168CE2F
// 047   ----------------------------------------
 BYTE   PATT
  POIN2 Label_12_0168CE3E
// 048   ----------------------------------------
 BYTE   PATT
  POIN2 Label_12_0168CDD0
// 049   ----------------------------------------
 BYTE   PATT
  POIN2 Label_12_0168CDD0
// 050   ----------------------------------------
 BYTE   PATT
  POIN2 Label_12_0168CDD0
// 051   ----------------------------------------
 BYTE   PATT
  POIN2 Label_12_0168CDD0
// 052   ----------------------------------------
 BYTE   PATT
  POIN2 Label_12_0168CDD0
// 053   ----------------------------------------
 BYTE   PATT
  POIN2 Label_12_0168CDD0
// 054   ----------------------------------------
 BYTE   PATT
  POIN2 Label_12_0168CDD0
// 055   ----------------------------------------
 BYTE   PATT
  POIN2 Label_12_0168CDD0
// 056   ----------------------------------------
 BYTE   PATT
  POIN2 Label_12_0168CDD0
// 057   ----------------------------------------
 BYTE   PATT
  POIN2 Label_12_0168CDD0
// 058   ----------------------------------------
 BYTE   PATT
  POIN2 Label_12_0168CDD0
// 059   ----------------------------------------
 BYTE   PATT
  POIN2 Label_12_0168CDD0
// 060   ----------------------------------------
 BYTE   PATT
  POIN2 Label_12_0168CDD0
// 061   ----------------------------------------
 BYTE   PATT
  POIN2 Label_12_0168CDD0
// 062   ----------------------------------------
 BYTE   PATT
  POIN2 Label_12_0168CE2F
// 063   ----------------------------------------
 BYTE   PATT
  POIN2 Label_12_0168CE3E
// 064   ----------------------------------------
 BYTE   PATT
  POIN2 Label_12_0168CDD0
// 065   ----------------------------------------
 BYTE   PATT
  POIN2 Label_12_0168CDD0
// 066   ----------------------------------------
 BYTE   PATT
  POIN2 Label_12_0168CDD0
// 067   ----------------------------------------
 BYTE   PATT
  POIN2 Label_12_0168CDD0
// 068   ----------------------------------------
 BYTE   PATT
  POIN2 Label_12_0168CDD0
// 069   ----------------------------------------
 BYTE   PATT
  POIN2 Label_12_0168CDD0
// 070   ----------------------------------------
 BYTE   PATT
  POIN2 Label_12_0168CDD0
// 071   ----------------------------------------
 BYTE   PATT
  POIN2 Label_12_0168CDF0
// 072   ----------------------------------------
 BYTE   PATT
  POIN2 Label_12_0168CDD0
// 073   ----------------------------------------
 BYTE   PATT
  POIN2 Label_12_0168CDD0
// 074   ----------------------------------------
 BYTE   PATT
  POIN2 Label_12_0168CDD0
// 075   ----------------------------------------
 BYTE   PATT
  POIN2 Label_12_0168CDD0
// 076   ----------------------------------------
 BYTE   PATT
  POIN2 Label_12_0168CDD0
// 077   ----------------------------------------
 BYTE   PATT
  POIN2 Label_12_0168CDD0
// 078   ----------------------------------------
 BYTE   PATT
  POIN2 Label_12_0168CDD0
// 079   ----------------------------------------
 BYTE   PATT
  POIN2 Label_12_0168CDD0
// 080   ----------------------------------------
 BYTE   PATT
  POIN2 Label_12_0168CDD0
// 081   ----------------------------------------
 BYTE   PATT
  POIN2 Label_12_0168CDD0
// 082   ----------------------------------------
 BYTE   PATT
  POIN2 Label_12_0168CE2F
// 083   ----------------------------------------
 BYTE   PATT
  POIN2 Label_12_0168CE3E
// 084   ----------------------------------------
 BYTE   PATT
  POIN2 Label_12_0168CDD0
// 085   ----------------------------------------
 BYTE   PATT
  POIN2 Label_12_0168CDD0
// 086   ----------------------------------------
 BYTE   PATT
  POIN2 Label_12_0168CDD0
// 087   ----------------------------------------
 BYTE   PATT
  POIN2 Label_12_0168CDD0
// 088   ----------------------------------------
 BYTE   PATT
  POIN2 Label_12_0168CDD0
// 089   ----------------------------------------
 BYTE   PATT
  POIN2 Label_12_0168CDD0
// 090   ----------------------------------------
 BYTE   PATT
  POIN2 Label_12_0168CDD0
// 091   ----------------------------------------
 BYTE   PATT
  POIN2 Label_12_0168CDD0
// 092   ----------------------------------------
 BYTE   PATT
  POIN2 Label_12_0168CDD0
// 093   ----------------------------------------
 BYTE   PATT
  POIN2 Label_12_0168CDD0
// 094   ----------------------------------------
 BYTE   PATT
  POIN2 Label_12_0168CE2F
// 095   ----------------------------------------
 BYTE   PATT
  POIN2 Label_12_0168CE3E
// 096   ----------------------------------------
 BYTE   PATT
  POIN2 Label_12_0168CDD0
// 097   ----------------------------------------
 BYTE   PATT
  POIN2 Label_12_0168CDD0
// 098   ----------------------------------------
 BYTE   PATT
  POIN2 Label_12_0168CDD0
// 099   ----------------------------------------
 BYTE   PATT
  POIN2 Label_12_0168CDD0
// 100   ----------------------------------------
 BYTE   PATT
  POIN2 Label_12_0168CDD0
// 101   ----------------------------------------
 BYTE   PATT
  POIN2 Label_12_0168CDD0
// 102   ----------------------------------------
 BYTE   PATT
  POIN2 Label_12_0168CDD0
// 103   ----------------------------------------
 BYTE   PATT
  POIN2 Label_12_0168CDD0
// 104   ----------------------------------------
 BYTE   PATT
  POIN2 Label_12_0168CDD0
// 105   ----------------------------------------
 BYTE   PATT
  POIN2 Label_12_0168CDD0
// 106   ----------------------------------------
 BYTE   PATT
  POIN2 Label_12_0168CDD0
// 107   ----------------------------------------
 BYTE   PATT
  POIN2 Label_12_0168CDD0
// 108   ----------------------------------------
 BYTE   PATT
  POIN2 Label_12_0168CDD0
// 109   ----------------------------------------
 BYTE   PATT
  POIN2 Label_12_0168CDD0
// 110   ----------------------------------------
 BYTE   PATT
  POIN2 Label_12_0168CE2F
// 111   ----------------------------------------
 BYTE   PATT
  POIN2 Label_12_0168CE3E
// 112   ----------------------------------------
 BYTE   PATT
  POIN2 Label_12_0168CDD0
// 113   ----------------------------------------
 BYTE   PATT
  POIN2 Label_12_0168CDD0
// 114   ----------------------------------------
 BYTE   PATT
  POIN2 Label_12_0168CDD0
// 115   ----------------------------------------
 BYTE   PATT
  POIN2 Label_12_0168CDD0
// 116   ----------------------------------------
 BYTE   PATT
  POIN2 Label_12_0168CDD0
// 117   ----------------------------------------
 BYTE   PATT
  POIN2 Label_12_0168CDD0
// 118   ----------------------------------------
 BYTE   PATT
  POIN2 Label_12_0168CDD0
// 119   ----------------------------------------
 BYTE   PATT
  POIN2 Label_12_0168CDD0
// 120   ----------------------------------------
 BYTE   PATT
  POIN2 Label_12_0168CDD0
// 121   ----------------------------------------
 BYTE   PATT
  POIN2 Label_12_0168CDD0
// 122   ----------------------------------------
 BYTE   PATT
  POIN2 Label_12_0168CDD0
// 123   ----------------------------------------
 BYTE   PATT
  POIN2 Label_12_0168CDD0
// 124   ----------------------------------------
 BYTE   PATT
  POIN2 Label_12_0168CDD0
// 125   ----------------------------------------
 BYTE   PATT
  POIN2 Label_12_0168CDD0
// 126   ----------------------------------------
 BYTE   PATT
  POIN2 Label_12_0168CE2F
// 127   ----------------------------------------
 BYTE   N05  Cn1  v127
 BYTE   W12
 BYTE   Dn2
 BYTE   W12
 BYTE   N05
 BYTE   W12
 BYTE   Cn2
 BYTE   W12
 BYTE   N05
 BYTE   W12
 BYTE   Bn1
 BYTE   W12
 BYTE   N05
 BYTE   W12
 BYTE   An1
 BYTE   W11
 BYTE   GoTo
  POIN2 Label_12_0168CDC6
 BYTE   FINE

//******************************************************//
	ALIGN 4

song03CB:
	BYTE	13	// NumTrks
	BYTE	0	// NumBlks
	BYTE	song03CB_pri	// Priority
	BYTE	song03CB_rev	// Reverb.
    
	POIN2	song03CB_grp
    
	POIN2	song03CB_001
	POIN2	song03CB_002
	POIN2	song03CB_003
	POIN2	song03CB_004
	POIN2	song03CB_005
	POIN2	song03CB_006
	POIN2	song03CB_007
	POIN2	song03CB_008
	POIN2	song03CB_009
	POIN2	song03CB_010
	POIN2	song03CB_011
	POIN2	song03CB_012
	POIN2	song03CB_013

	
