	.include "MPlayDef.s"

	.equ	song5F_grp, voicegroup000
	.equ	song5F_pri, 0
	.equ	song5F_rev, 0
	.equ	song5F_mvl, 127
	.equ	song5F_key, 0
	.equ	song5F_tbs, 1
	.equ	song5F_exg, 0
	.equ	song5F_cmp, 1

	.section .rodata
	.global	song5F
	.align	2


@**************** Track 1 (Midi-Chn.0) ****************@

song5F_001:
@ 000   ----------------------------------------
 .byte   KEYSH , song5F_key+0
Label_0_01486612:
 .byte   TEMPO , 284*song5F_tbs/2
 .byte   VOICE , 52
 .byte   VOL , 26*song5F_mvl/mxv
 .byte   PAN , c_v+0
 .byte   VOL , 26*song5F_mvl/mxv
 .byte   PAN , c_v+0
 .byte   VOL , 26*song5F_mvl/mxv
 .byte   PAN , c_v+0
 .byte   VOL , 26*song5F_mvl/mxv
 .byte   PAN , c_v+0
 .byte   VOL , 26*song5F_mvl/mxv
 .byte   PAN , c_v+0
 .byte   VOL , 26*song5F_mvl/mxv
 .byte   PAN , c_v+0
 .byte   VOL , 26*song5F_mvl/mxv
 .byte   PAN , c_v+0
 .byte   VOL , 26*song5F_mvl/mxv
 .byte   PAN , c_v+0
 .byte   VOL , 26*song5F_mvl/mxv
 .byte   PAN , c_v+0
 .byte   N11 ,En5 ,v112
 .byte   W12
 .byte   En5 ,v080
 .byte   W12
 .byte   En5 ,v048
 .byte   W24
 .byte   En5 ,v112
 .byte   W12
 .byte   En5 ,v080
 .byte   W12
 .byte   En5 ,v048
 .byte   W24
@ 001   ----------------------------------------
Label_0_0148664D:
 .byte   N11 ,En5 ,v112
 .byte   W12
 .byte   En5 ,v080
 .byte   W12
 .byte   En5 ,v048
 .byte   W24
 .byte   En5 ,v112
 .byte   W12
 .byte   En5 ,v080
 .byte   W12
 .byte   En5 ,v048
 .byte   W24
 .byte   PEND 
@ 002   ----------------------------------------
 .byte   PATT
  .word Label_0_0148664D
@ 003   ----------------------------------------
 .byte   PATT
  .word Label_0_0148664D
@ 004   ----------------------------------------
 .byte   PATT
  .word Label_0_0148664D
@ 005   ----------------------------------------
 .byte   PATT
  .word Label_0_0148664D
@ 006   ----------------------------------------
 .byte   PATT
  .word Label_0_0148664D
@ 007   ----------------------------------------
 .byte   PATT
  .word Label_0_0148664D
@ 008   ----------------------------------------
 .byte   W96
@ 009   ----------------------------------------
 .byte   W96
@ 010   ----------------------------------------
 .byte   W96
@ 011   ----------------------------------------
 .byte   W96
@ 012   ----------------------------------------
 .byte   W96
@ 013   ----------------------------------------
 .byte   W96
@ 014   ----------------------------------------
 .byte   W96
@ 015   ----------------------------------------
 .byte   W96
@ 016   ----------------------------------------
 .byte   W96
@ 017   ----------------------------------------
 .byte   W96
@ 018   ----------------------------------------
 .byte   W96
@ 019   ----------------------------------------
 .byte   W96
@ 020   ----------------------------------------
 .byte   W96
@ 021   ----------------------------------------
 .byte   W96
@ 022   ----------------------------------------
 .byte   W96
@ 023   ----------------------------------------
 .byte   W96
@ 024   ----------------------------------------
 .byte   W96
@ 025   ----------------------------------------
 .byte   W96
@ 026   ----------------------------------------
 .byte   W96
@ 027   ----------------------------------------
 .byte   W96
@ 028   ----------------------------------------
 .byte   W96
@ 029   ----------------------------------------
 .byte   W96
@ 030   ----------------------------------------
 .byte   W96
@ 031   ----------------------------------------
 .byte   W96
@ 032   ----------------------------------------
 .byte   W96
@ 033   ----------------------------------------
 .byte   W96
@ 034   ----------------------------------------
 .byte   W96
@ 035   ----------------------------------------
 .byte   W96
@ 036   ----------------------------------------
 .byte   W96
@ 037   ----------------------------------------
 .byte   W96
@ 038   ----------------------------------------
 .byte   W96
@ 039   ----------------------------------------
 .byte   W96
@ 040   ----------------------------------------
 .byte   W96
@ 041   ----------------------------------------
 .byte   W96
@ 042   ----------------------------------------
 .byte   W96
@ 043   ----------------------------------------
 .byte   W96
@ 044   ----------------------------------------
 .byte   W96
@ 045   ----------------------------------------
 .byte   W96
@ 046   ----------------------------------------
 .byte   W96
@ 047   ----------------------------------------
 .byte   W96
@ 048   ----------------------------------------
 .byte   W96
@ 049   ----------------------------------------
 .byte   W96
@ 050   ----------------------------------------
 .byte   W96
@ 051   ----------------------------------------
 .byte   W96
@ 052   ----------------------------------------
 .byte   W96
@ 053   ----------------------------------------
 .byte   W96
@ 054   ----------------------------------------
 .byte   W96
@ 055   ----------------------------------------
 .byte   W96
@ 056   ----------------------------------------
 .byte   W96
@ 057   ----------------------------------------
 .byte   W96
@ 058   ----------------------------------------
 .byte   W96
@ 059   ----------------------------------------
 .byte   W96
@ 060   ----------------------------------------
 .byte   W96
@ 061   ----------------------------------------
 .byte   W96
@ 062   ----------------------------------------
 .byte   W96
@ 063   ----------------------------------------
 .byte   W96
@ 064   ----------------------------------------
 .byte   PATT
  .word Label_0_0148664D
@ 065   ----------------------------------------
 .byte   PATT
  .word Label_0_0148664D
@ 066   ----------------------------------------
 .byte   PATT
  .word Label_0_0148664D
@ 067   ----------------------------------------
 .byte   PATT
  .word Label_0_0148664D
@ 068   ----------------------------------------
 .byte   PATT
  .word Label_0_0148664D
@ 069   ----------------------------------------
 .byte   PATT
  .word Label_0_0148664D
@ 070   ----------------------------------------
 .byte   PATT
  .word Label_0_0148664D
@ 071   ----------------------------------------
 .byte   PATT
  .word Label_0_0148664D
@ 072   ----------------------------------------
 .byte   W96
@ 073   ----------------------------------------
 .byte   W96
@ 074   ----------------------------------------
 .byte   W96
@ 075   ----------------------------------------
 .byte   W96
@ 076   ----------------------------------------
 .byte   W96
@ 077   ----------------------------------------
 .byte   W96
@ 078   ----------------------------------------
 .byte   W96
@ 079   ----------------------------------------
 .byte   W96
@ 080   ----------------------------------------
 .byte   W96
@ 081   ----------------------------------------
 .byte   W96
@ 082   ----------------------------------------
 .byte   W96
@ 083   ----------------------------------------
 .byte   W96
@ 084   ----------------------------------------
 .byte   W96
@ 085   ----------------------------------------
 .byte   W96
@ 086   ----------------------------------------
 .byte   W96
@ 087   ----------------------------------------
 .byte   W96
@ 088   ----------------------------------------
 .byte   W96
@ 089   ----------------------------------------
 .byte   W96
@ 090   ----------------------------------------
 .byte   W96
@ 091   ----------------------------------------
 .byte   W96
@ 092   ----------------------------------------
 .byte   W96
@ 093   ----------------------------------------
 .byte   W96
@ 094   ----------------------------------------
 .byte   W96
@ 095   ----------------------------------------
 .byte   W96
@ 096   ----------------------------------------
 .byte   W96
@ 097   ----------------------------------------
 .byte   W96
@ 098   ----------------------------------------
 .byte   W96
@ 099   ----------------------------------------
 .byte   W96
@ 100   ----------------------------------------
 .byte   W96
@ 101   ----------------------------------------
 .byte   W96
@ 102   ----------------------------------------
 .byte   W96
@ 103   ----------------------------------------
 .byte   W96
@ 104   ----------------------------------------
 .byte   W96
@ 105   ----------------------------------------
 .byte   W96
@ 106   ----------------------------------------
 .byte   W96
@ 107   ----------------------------------------
 .byte   W96
@ 108   ----------------------------------------
 .byte   W96
@ 109   ----------------------------------------
 .byte   W96
@ 110   ----------------------------------------
 .byte   W96
@ 111   ----------------------------------------
 .byte   W96
@ 112   ----------------------------------------
 .byte   W96
@ 113   ----------------------------------------
 .byte   W96
@ 114   ----------------------------------------
 .byte   W96
@ 115   ----------------------------------------
 .byte   W96
@ 116   ----------------------------------------
 .byte   W96
@ 117   ----------------------------------------
 .byte   W96
@ 118   ----------------------------------------
 .byte   W96
@ 119   ----------------------------------------
 .byte   W96
@ 120   ----------------------------------------
 .byte   W96
@ 121   ----------------------------------------
 .byte   W96
@ 122   ----------------------------------------
 .byte   W96
@ 123   ----------------------------------------
 .byte   W96
@ 124   ----------------------------------------
 .byte   W96
@ 125   ----------------------------------------
 .byte   W96
@ 126   ----------------------------------------
 .byte   W96
@ 127   ----------------------------------------
 .byte   W92
 .byte   W03
 .byte   GOTO
  .word Label_0_01486612
 .byte   FINE

@**************** Track 2 (Midi-Chn.1) ****************@

song5F_002:
@ 000   ----------------------------------------
 .byte   KEYSH , song5F_key+0
Label_1_01486720:
 .byte   VOICE , 54
 .byte   VOL , 26*song5F_mvl/mxv
 .byte   PAN , c_v+0
 .byte   N11 ,En5 ,v112
 .byte   W12
 .byte   En5 ,v080
 .byte   W12
 .byte   En5 ,v048
 .byte   W24
 .byte   En5 ,v112
 .byte   W12
 .byte   En5 ,v080
 .byte   W12
 .byte   En5 ,v048
 .byte   W24
@ 001   ----------------------------------------
Label_1_01486739:
 .byte   N11 ,En5 ,v112
 .byte   W12
 .byte   En5 ,v080
 .byte   W12
 .byte   En5 ,v048
 .byte   W24
 .byte   En5 ,v112
 .byte   W12
 .byte   En5 ,v080
 .byte   W12
 .byte   En5 ,v048
 .byte   W24
 .byte   PEND 
@ 002   ----------------------------------------
 .byte   PATT
  .word Label_1_01486739
@ 003   ----------------------------------------
 .byte   PATT
  .word Label_1_01486739
@ 004   ----------------------------------------
 .byte   PATT
  .word Label_1_01486739
@ 005   ----------------------------------------
 .byte   PATT
  .word Label_1_01486739
@ 006   ----------------------------------------
 .byte   PATT
  .word Label_1_01486739
@ 007   ----------------------------------------
 .byte   PATT
  .word Label_1_01486739
@ 008   ----------------------------------------
 .byte   W96
@ 009   ----------------------------------------
 .byte   W96
@ 010   ----------------------------------------
 .byte   W96
@ 011   ----------------------------------------
 .byte   W96
@ 012   ----------------------------------------
 .byte   W96
@ 013   ----------------------------------------
 .byte   W96
@ 014   ----------------------------------------
 .byte   W96
@ 015   ----------------------------------------
 .byte   W96
@ 016   ----------------------------------------
 .byte   W96
@ 017   ----------------------------------------
 .byte   W96
@ 018   ----------------------------------------
 .byte   W96
@ 019   ----------------------------------------
 .byte   W96
@ 020   ----------------------------------------
 .byte   W96
@ 021   ----------------------------------------
 .byte   W96
@ 022   ----------------------------------------
 .byte   W96
@ 023   ----------------------------------------
 .byte   W96
@ 024   ----------------------------------------
 .byte   W96
@ 025   ----------------------------------------
 .byte   W96
@ 026   ----------------------------------------
 .byte   W96
@ 027   ----------------------------------------
 .byte   W96
@ 028   ----------------------------------------
 .byte   W96
@ 029   ----------------------------------------
 .byte   W96
@ 030   ----------------------------------------
 .byte   W96
@ 031   ----------------------------------------
 .byte   W96
@ 032   ----------------------------------------
 .byte   W96
@ 033   ----------------------------------------
 .byte   W96
@ 034   ----------------------------------------
 .byte   W96
@ 035   ----------------------------------------
 .byte   W96
@ 036   ----------------------------------------
 .byte   W96
@ 037   ----------------------------------------
 .byte   W96
@ 038   ----------------------------------------
 .byte   W96
@ 039   ----------------------------------------
 .byte   W96
@ 040   ----------------------------------------
 .byte   W96
@ 041   ----------------------------------------
 .byte   W96
@ 042   ----------------------------------------
 .byte   W96
@ 043   ----------------------------------------
 .byte   W96
@ 044   ----------------------------------------
 .byte   W96
@ 045   ----------------------------------------
 .byte   W96
@ 046   ----------------------------------------
 .byte   W96
@ 047   ----------------------------------------
 .byte   W96
@ 048   ----------------------------------------
 .byte   W96
@ 049   ----------------------------------------
 .byte   W96
@ 050   ----------------------------------------
 .byte   W96
@ 051   ----------------------------------------
 .byte   W96
@ 052   ----------------------------------------
 .byte   W96
@ 053   ----------------------------------------
 .byte   W96
@ 054   ----------------------------------------
 .byte   W96
@ 055   ----------------------------------------
 .byte   W96
@ 056   ----------------------------------------
 .byte   W96
@ 057   ----------------------------------------
 .byte   W96
@ 058   ----------------------------------------
 .byte   W96
@ 059   ----------------------------------------
 .byte   W96
@ 060   ----------------------------------------
 .byte   W96
@ 061   ----------------------------------------
 .byte   W96
@ 062   ----------------------------------------
 .byte   W96
@ 063   ----------------------------------------
 .byte   W96
@ 064   ----------------------------------------
 .byte   PATT
  .word Label_1_01486739
@ 065   ----------------------------------------
 .byte   PATT
  .word Label_1_01486739
@ 066   ----------------------------------------
 .byte   PATT
  .word Label_1_01486739
@ 067   ----------------------------------------
 .byte   PATT
  .word Label_1_01486739
@ 068   ----------------------------------------
 .byte   PATT
  .word Label_1_01486739
@ 069   ----------------------------------------
 .byte   PATT
  .word Label_1_01486739
@ 070   ----------------------------------------
 .byte   PATT
  .word Label_1_01486739
@ 071   ----------------------------------------
 .byte   PATT
  .word Label_1_01486739
@ 072   ----------------------------------------
 .byte   W96
@ 073   ----------------------------------------
 .byte   W96
@ 074   ----------------------------------------
 .byte   W96
@ 075   ----------------------------------------
 .byte   W96
@ 076   ----------------------------------------
 .byte   W96
@ 077   ----------------------------------------
 .byte   W96
@ 078   ----------------------------------------
 .byte   W96
@ 079   ----------------------------------------
 .byte   W96
@ 080   ----------------------------------------
 .byte   W96
@ 081   ----------------------------------------
 .byte   W96
@ 082   ----------------------------------------
 .byte   W96
@ 083   ----------------------------------------
 .byte   W96
@ 084   ----------------------------------------
 .byte   W96
@ 085   ----------------------------------------
 .byte   W96
@ 086   ----------------------------------------
 .byte   W96
@ 087   ----------------------------------------
 .byte   W96
@ 088   ----------------------------------------
 .byte   W96
@ 089   ----------------------------------------
 .byte   W96
@ 090   ----------------------------------------
 .byte   W96
@ 091   ----------------------------------------
 .byte   W96
@ 092   ----------------------------------------
 .byte   W96
@ 093   ----------------------------------------
 .byte   W96
@ 094   ----------------------------------------
 .byte   W96
@ 095   ----------------------------------------
 .byte   W96
@ 096   ----------------------------------------
 .byte   W96
@ 097   ----------------------------------------
 .byte   W96
@ 098   ----------------------------------------
 .byte   W96
@ 099   ----------------------------------------
 .byte   W96
@ 100   ----------------------------------------
 .byte   W96
@ 101   ----------------------------------------
 .byte   W96
@ 102   ----------------------------------------
 .byte   W96
@ 103   ----------------------------------------
 .byte   W96
@ 104   ----------------------------------------
 .byte   W96
@ 105   ----------------------------------------
 .byte   W96
@ 106   ----------------------------------------
 .byte   W96
@ 107   ----------------------------------------
 .byte   W96
@ 108   ----------------------------------------
 .byte   W96
@ 109   ----------------------------------------
 .byte   W96
@ 110   ----------------------------------------
 .byte   W96
@ 111   ----------------------------------------
 .byte   W96
@ 112   ----------------------------------------
 .byte   W96
@ 113   ----------------------------------------
 .byte   W96
@ 114   ----------------------------------------
 .byte   W96
@ 115   ----------------------------------------
 .byte   W96
@ 116   ----------------------------------------
 .byte   W96
@ 117   ----------------------------------------
 .byte   W96
@ 118   ----------------------------------------
 .byte   W96
@ 119   ----------------------------------------
 .byte   W96
@ 120   ----------------------------------------
 .byte   W96
@ 121   ----------------------------------------
 .byte   W96
@ 122   ----------------------------------------
 .byte   W96
@ 123   ----------------------------------------
 .byte   W96
@ 124   ----------------------------------------
 .byte   W96
@ 125   ----------------------------------------
 .byte   W96
@ 126   ----------------------------------------
 .byte   W96
@ 127   ----------------------------------------
 .byte   W92
 .byte   W03
 .byte   GOTO
  .word Label_1_01486720
 .byte   FINE

@**************** Track 3 (Midi-Chn.2) ****************@

song5F_003:
@ 000   ----------------------------------------
 .byte   KEYSH , song5F_key+0
Label_2_0148680C:
 .byte   VOICE , 68
 .byte   VOL , 26*song5F_mvl/mxv
 .byte   PAN , c_v+0
 .byte   W96
@ 001   ----------------------------------------
 .byte   W96
@ 002   ----------------------------------------
 .byte   W96
@ 003   ----------------------------------------
 .byte   W96
@ 004   ----------------------------------------
 .byte   TIE ,En1 ,v127
 .byte   W96
@ 005   ----------------------------------------
 .byte   W96
@ 006   ----------------------------------------
 .byte   W96
@ 007   ----------------------------------------
 .byte   W92
 .byte   W03
 .byte   EOT
 .byte   W01
@ 008   ----------------------------------------
 .byte   W96
@ 009   ----------------------------------------
 .byte   W96
@ 010   ----------------------------------------
 .byte   W96
@ 011   ----------------------------------------
 .byte   W96
@ 012   ----------------------------------------
 .byte   W96
@ 013   ----------------------------------------
 .byte   W96
@ 014   ----------------------------------------
 .byte   W96
@ 015   ----------------------------------------
 .byte   W96
@ 016   ----------------------------------------
 .byte   W96
@ 017   ----------------------------------------
 .byte   W96
@ 018   ----------------------------------------
 .byte   W96
@ 019   ----------------------------------------
 .byte   W96
@ 020   ----------------------------------------
 .byte   W96
@ 021   ----------------------------------------
 .byte   W96
@ 022   ----------------------------------------
 .byte   W96
@ 023   ----------------------------------------
 .byte   W96
@ 024   ----------------------------------------
 .byte   W96
@ 025   ----------------------------------------
 .byte   W96
@ 026   ----------------------------------------
 .byte   W96
@ 027   ----------------------------------------
 .byte   W96
@ 028   ----------------------------------------
 .byte   W96
@ 029   ----------------------------------------
 .byte   W96
@ 030   ----------------------------------------
 .byte   W96
@ 031   ----------------------------------------
 .byte   W96
@ 032   ----------------------------------------
 .byte   W96
@ 033   ----------------------------------------
 .byte   W96
@ 034   ----------------------------------------
 .byte   W96
@ 035   ----------------------------------------
 .byte   W96
@ 036   ----------------------------------------
 .byte   W96
@ 037   ----------------------------------------
 .byte   W96
@ 038   ----------------------------------------
 .byte   W96
@ 039   ----------------------------------------
 .byte   W96
@ 040   ----------------------------------------
 .byte   W96
@ 041   ----------------------------------------
 .byte   W96
@ 042   ----------------------------------------
 .byte   W96
@ 043   ----------------------------------------
 .byte   W96
@ 044   ----------------------------------------
 .byte   W96
@ 045   ----------------------------------------
 .byte   W96
@ 046   ----------------------------------------
 .byte   W96
@ 047   ----------------------------------------
 .byte   W96
@ 048   ----------------------------------------
 .byte   W96
@ 049   ----------------------------------------
 .byte   W96
@ 050   ----------------------------------------
 .byte   W96
@ 051   ----------------------------------------
 .byte   W96
@ 052   ----------------------------------------
 .byte   W96
@ 053   ----------------------------------------
 .byte   W96
@ 054   ----------------------------------------
 .byte   W96
@ 055   ----------------------------------------
 .byte   W96
@ 056   ----------------------------------------
 .byte   W96
@ 057   ----------------------------------------
 .byte   W96
@ 058   ----------------------------------------
 .byte   W96
@ 059   ----------------------------------------
 .byte   W96
@ 060   ----------------------------------------
 .byte   W96
@ 061   ----------------------------------------
 .byte   W96
@ 062   ----------------------------------------
 .byte   W96
@ 063   ----------------------------------------
 .byte   W96
@ 064   ----------------------------------------
 .byte   W96
@ 065   ----------------------------------------
 .byte   W96
@ 066   ----------------------------------------
 .byte   W96
@ 067   ----------------------------------------
 .byte   W96
@ 068   ----------------------------------------
 .byte   TIE
 .byte   W96
@ 069   ----------------------------------------
 .byte   W96
@ 070   ----------------------------------------
 .byte   W96
@ 071   ----------------------------------------
 .byte   W92
 .byte   W03
 .byte   EOT
 .byte   W01
@ 072   ----------------------------------------
 .byte   W96
@ 073   ----------------------------------------
 .byte   W96
@ 074   ----------------------------------------
 .byte   W96
@ 075   ----------------------------------------
 .byte   W96
@ 076   ----------------------------------------
 .byte   W96
@ 077   ----------------------------------------
 .byte   W96
@ 078   ----------------------------------------
 .byte   W96
@ 079   ----------------------------------------
 .byte   W96
@ 080   ----------------------------------------
 .byte   W96
@ 081   ----------------------------------------
 .byte   W96
@ 082   ----------------------------------------
 .byte   W96
@ 083   ----------------------------------------
 .byte   W96
@ 084   ----------------------------------------
 .byte   W96
@ 085   ----------------------------------------
 .byte   W96
@ 086   ----------------------------------------
 .byte   W96
@ 087   ----------------------------------------
 .byte   W96
@ 088   ----------------------------------------
 .byte   W96
@ 089   ----------------------------------------
 .byte   W96
@ 090   ----------------------------------------
 .byte   W96
@ 091   ----------------------------------------
 .byte   W96
@ 092   ----------------------------------------
 .byte   W96
@ 093   ----------------------------------------
 .byte   W96
@ 094   ----------------------------------------
 .byte   W96
@ 095   ----------------------------------------
 .byte   W96
@ 096   ----------------------------------------
 .byte   W96
@ 097   ----------------------------------------
 .byte   W96
@ 098   ----------------------------------------
 .byte   W96
@ 099   ----------------------------------------
 .byte   W96
@ 100   ----------------------------------------
 .byte   W96
@ 101   ----------------------------------------
 .byte   W96
@ 102   ----------------------------------------
 .byte   W96
@ 103   ----------------------------------------
 .byte   W96
@ 104   ----------------------------------------
 .byte   W96
@ 105   ----------------------------------------
 .byte   W96
@ 106   ----------------------------------------
 .byte   W96
@ 107   ----------------------------------------
 .byte   W96
@ 108   ----------------------------------------
 .byte   W96
@ 109   ----------------------------------------
 .byte   W96
@ 110   ----------------------------------------
 .byte   W96
@ 111   ----------------------------------------
 .byte   W96
@ 112   ----------------------------------------
 .byte   W96
@ 113   ----------------------------------------
 .byte   W96
@ 114   ----------------------------------------
 .byte   W96
@ 115   ----------------------------------------
 .byte   W96
@ 116   ----------------------------------------
 .byte   W96
@ 117   ----------------------------------------
 .byte   W96
@ 118   ----------------------------------------
 .byte   W96
@ 119   ----------------------------------------
 .byte   W96
@ 120   ----------------------------------------
 .byte   W96
@ 121   ----------------------------------------
 .byte   W96
@ 122   ----------------------------------------
 .byte   W96
@ 123   ----------------------------------------
 .byte   W96
@ 124   ----------------------------------------
 .byte   W96
@ 125   ----------------------------------------
 .byte   W96
@ 126   ----------------------------------------
 .byte   W96
@ 127   ----------------------------------------
 .byte   W92
 .byte   W03
 .byte   GOTO
  .word Label_2_0148680C
 .byte   FINE

@**************** Track 4 (Midi-Chn.3) ****************@

song5F_004:
@ 000   ----------------------------------------
 .byte   KEYSH , song5F_key+0
Label_3_014868A5:
 .byte   VOICE , 68
 .byte   VOL , 26*song5F_mvl/mxv
 .byte   PAN , c_v+63
 .byte   W96
@ 001   ----------------------------------------
 .byte   W96
@ 002   ----------------------------------------
 .byte   W96
@ 003   ----------------------------------------
 .byte   W96
@ 004   ----------------------------------------
 .byte   W96
@ 005   ----------------------------------------
 .byte   W96
@ 006   ----------------------------------------
 .byte   N11 ,En3 ,v080
 .byte   N11 ,Gn3
 .byte   W12
 .byte   En3
 .byte   N11 ,Gn3
 .byte   W12
 .byte   PAN , c_v-64
 .byte   N11 ,En3
 .byte   N11 ,Gn3
 .byte   W12
 .byte   En3
 .byte   N11 ,Gn3
 .byte   W12
 .byte   PAN , c_v+63
 .byte   N11 ,En3 ,v096
 .byte   N11 ,Gn3
 .byte   W12
 .byte   En3
 .byte   N11 ,Gn3
 .byte   W12
 .byte   PAN , c_v-64
 .byte   N11 ,En3
 .byte   N11 ,Gn3
 .byte   W12
 .byte   En3
 .byte   N11 ,Gn3
 .byte   W12
@ 007   ----------------------------------------
Label_3_014868DD:
 .byte   PAN , c_v+63
 .byte   N11 ,En3 ,v112
 .byte   N11 ,Gn3
 .byte   W12
 .byte   En3
 .byte   N11 ,Gn3
 .byte   W12
 .byte   PAN , c_v-64
 .byte   N11 ,En3
 .byte   N11 ,Gn3
 .byte   W12
 .byte   En3
 .byte   N11 ,Gn3
 .byte   W12
 .byte   PAN , c_v+63
 .byte   N11 ,En3 ,v127
 .byte   N11 ,Gn3
 .byte   W12
 .byte   En3
 .byte   N11 ,Gn3
 .byte   W12
 .byte   PAN , c_v-64
 .byte   N11 ,En3
 .byte   N11 ,Gn3
 .byte   W12
 .byte   En3
 .byte   N11 ,Gn3
 .byte   W12
 .byte   PEND 
@ 008   ----------------------------------------
 .byte   W96
@ 009   ----------------------------------------
 .byte   W96
@ 010   ----------------------------------------
 .byte   W96
@ 011   ----------------------------------------
 .byte   W96
@ 012   ----------------------------------------
 .byte   W96
@ 013   ----------------------------------------
 .byte   W96
@ 014   ----------------------------------------
 .byte   W96
@ 015   ----------------------------------------
 .byte   W96
@ 016   ----------------------------------------
 .byte   W96
@ 017   ----------------------------------------
 .byte   W96
@ 018   ----------------------------------------
 .byte   W96
@ 019   ----------------------------------------
 .byte   W96
@ 020   ----------------------------------------
 .byte   W96
@ 021   ----------------------------------------
 .byte   W96
@ 022   ----------------------------------------
 .byte   W96
@ 023   ----------------------------------------
 .byte   W96
@ 024   ----------------------------------------
 .byte   W96
@ 025   ----------------------------------------
 .byte   W96
@ 026   ----------------------------------------
 .byte   W96
@ 027   ----------------------------------------
 .byte   W96
@ 028   ----------------------------------------
 .byte   W96
@ 029   ----------------------------------------
 .byte   W96
@ 030   ----------------------------------------
 .byte   W96
@ 031   ----------------------------------------
 .byte   W96
@ 032   ----------------------------------------
 .byte   W96
@ 033   ----------------------------------------
 .byte   W96
@ 034   ----------------------------------------
 .byte   W96
@ 035   ----------------------------------------
 .byte   W96
@ 036   ----------------------------------------
 .byte   W96
@ 037   ----------------------------------------
 .byte   W96
@ 038   ----------------------------------------
 .byte   W96
@ 039   ----------------------------------------
 .byte   W96
@ 040   ----------------------------------------
 .byte   W96
@ 041   ----------------------------------------
 .byte   W96
@ 042   ----------------------------------------
 .byte   W96
@ 043   ----------------------------------------
 .byte   W96
@ 044   ----------------------------------------
 .byte   W96
@ 045   ----------------------------------------
 .byte   W96
@ 046   ----------------------------------------
 .byte   W96
@ 047   ----------------------------------------
 .byte   W96
@ 048   ----------------------------------------
 .byte   W96
@ 049   ----------------------------------------
 .byte   W96
@ 050   ----------------------------------------
 .byte   W96
@ 051   ----------------------------------------
 .byte   W96
@ 052   ----------------------------------------
 .byte   W96
@ 053   ----------------------------------------
 .byte   W96
@ 054   ----------------------------------------
 .byte   W96
@ 055   ----------------------------------------
 .byte   W96
@ 056   ----------------------------------------
 .byte   W96
@ 057   ----------------------------------------
 .byte   W96
@ 058   ----------------------------------------
 .byte   W96
@ 059   ----------------------------------------
 .byte   W96
@ 060   ----------------------------------------
 .byte   W96
@ 061   ----------------------------------------
 .byte   W96
@ 062   ----------------------------------------
 .byte   W96
@ 063   ----------------------------------------
 .byte   W96
@ 064   ----------------------------------------
 .byte   W96
@ 065   ----------------------------------------
 .byte   W96
@ 066   ----------------------------------------
 .byte   W96
@ 067   ----------------------------------------
 .byte   W96
@ 068   ----------------------------------------
 .byte   W96
@ 069   ----------------------------------------
 .byte   W96
@ 070   ----------------------------------------
 .byte   PAN , c_v+63
 .byte   N11 ,En3 ,v080
 .byte   N11 ,Gn3
 .byte   W12
 .byte   En3
 .byte   N11 ,Gn3
 .byte   W12
 .byte   PAN , c_v-64
 .byte   N11 ,En3
 .byte   N11 ,Gn3
 .byte   W12
 .byte   En3
 .byte   N11 ,Gn3
 .byte   W12
 .byte   PAN , c_v+63
 .byte   N11 ,En3 ,v096
 .byte   N11 ,Gn3
 .byte   W12
 .byte   En3
 .byte   N11 ,Gn3
 .byte   W12
 .byte   PAN , c_v-64
 .byte   N11 ,En3
 .byte   N11 ,Gn3
 .byte   W12
 .byte   En3
 .byte   N11 ,Gn3
 .byte   W12
@ 071   ----------------------------------------
 .byte   PATT
  .word Label_3_014868DD
@ 072   ----------------------------------------
 .byte   W96
@ 073   ----------------------------------------
 .byte   W96
@ 074   ----------------------------------------
 .byte   W96
@ 075   ----------------------------------------
 .byte   W96
@ 076   ----------------------------------------
 .byte   W96
@ 077   ----------------------------------------
 .byte   W96
@ 078   ----------------------------------------
 .byte   W96
@ 079   ----------------------------------------
 .byte   W96
@ 080   ----------------------------------------
 .byte   W96
@ 081   ----------------------------------------
 .byte   W96
@ 082   ----------------------------------------
 .byte   W96
@ 083   ----------------------------------------
 .byte   W96
@ 084   ----------------------------------------
 .byte   W96
@ 085   ----------------------------------------
 .byte   W96
@ 086   ----------------------------------------
 .byte   W96
@ 087   ----------------------------------------
 .byte   W96
@ 088   ----------------------------------------
 .byte   W96
@ 089   ----------------------------------------
 .byte   W96
@ 090   ----------------------------------------
 .byte   W96
@ 091   ----------------------------------------
 .byte   W96
@ 092   ----------------------------------------
 .byte   W96
@ 093   ----------------------------------------
 .byte   W96
@ 094   ----------------------------------------
 .byte   W96
@ 095   ----------------------------------------
 .byte   W96
@ 096   ----------------------------------------
 .byte   W96
@ 097   ----------------------------------------
 .byte   W96
@ 098   ----------------------------------------
 .byte   W96
@ 099   ----------------------------------------
 .byte   W96
@ 100   ----------------------------------------
 .byte   W96
@ 101   ----------------------------------------
 .byte   W96
@ 102   ----------------------------------------
 .byte   W96
@ 103   ----------------------------------------
 .byte   W96
@ 104   ----------------------------------------
 .byte   W96
@ 105   ----------------------------------------
 .byte   W96
@ 106   ----------------------------------------
 .byte   W96
@ 107   ----------------------------------------
 .byte   W96
@ 108   ----------------------------------------
 .byte   W96
@ 109   ----------------------------------------
 .byte   W96
@ 110   ----------------------------------------
 .byte   W96
@ 111   ----------------------------------------
 .byte   W96
@ 112   ----------------------------------------
 .byte   W96
@ 113   ----------------------------------------
 .byte   W96
@ 114   ----------------------------------------
 .byte   W96
@ 115   ----------------------------------------
 .byte   W96
@ 116   ----------------------------------------
 .byte   W96
@ 117   ----------------------------------------
 .byte   W96
@ 118   ----------------------------------------
 .byte   W96
@ 119   ----------------------------------------
 .byte   W96
@ 120   ----------------------------------------
 .byte   W96
@ 121   ----------------------------------------
 .byte   W96
@ 122   ----------------------------------------
 .byte   W96
@ 123   ----------------------------------------
 .byte   W96
@ 124   ----------------------------------------
 .byte   W96
@ 125   ----------------------------------------
 .byte   W96
@ 126   ----------------------------------------
 .byte   W96
@ 127   ----------------------------------------
 .byte   W92
 .byte   W03
 .byte   GOTO
  .word Label_3_014868A5
 .byte   FINE

@**************** Track 5 (Midi-Chn.4) ****************@

song5F_005:
@ 000   ----------------------------------------
 .byte   KEYSH , song5F_key+0
Label_4_014869BE:
 .byte   VOICE , 7
 .byte   VOL , 26*song5F_mvl/mxv
 .byte   PAN , c_v+0
 .byte   N11 ,En1 ,v096
 .byte   W24
 .byte   En2
 .byte   W12
 .byte   N11
 .byte   W12
 .byte   En1
 .byte   W24
 .byte   En2
 .byte   W12
 .byte   N11
 .byte   W12
@ 001   ----------------------------------------
Label_4_014869D2:
 .byte   N11 ,En1 ,v096
 .byte   W24
 .byte   En2
 .byte   W12
 .byte   N11
 .byte   W12
 .byte   En1
 .byte   W24
 .byte   En2
 .byte   W12
 .byte   N11
 .byte   W12
 .byte   PEND 
@ 002   ----------------------------------------
 .byte   PATT
  .word Label_4_014869D2
@ 003   ----------------------------------------
 .byte   PATT
  .word Label_4_014869D2
@ 004   ----------------------------------------
 .byte   PATT
  .word Label_4_014869D2
@ 005   ----------------------------------------
 .byte   PATT
  .word Label_4_014869D2
@ 006   ----------------------------------------
 .byte   PATT
  .word Label_4_014869D2
@ 007   ----------------------------------------
 .byte   PATT
  .word Label_4_014869D2
@ 008   ----------------------------------------
Label_4_014869FF:
 .byte   N11 ,En1 ,v112
 .byte   W24
 .byte   En2
 .byte   W12
 .byte   N11
 .byte   W12
 .byte   En1
 .byte   W24
 .byte   En2
 .byte   W12
 .byte   N11
 .byte   W12
 .byte   PEND 
@ 009   ----------------------------------------
 .byte   PATT
  .word Label_4_014869FF
@ 010   ----------------------------------------
Label_4_01486A13:
 .byte   N11 ,Dn1 ,v112
 .byte   W24
 .byte   Dn2
 .byte   W12
 .byte   N11
 .byte   W12
 .byte   Dn1
 .byte   W24
 .byte   Dn2
 .byte   W12
 .byte   N11
 .byte   W12
 .byte   PEND 
@ 011   ----------------------------------------
 .byte   PATT
  .word Label_4_01486A13
@ 012   ----------------------------------------
 .byte   PATT
  .word Label_4_014869FF
@ 013   ----------------------------------------
 .byte   PATT
  .word Label_4_014869FF
@ 014   ----------------------------------------
 .byte   PATT
  .word Label_4_01486A13
@ 015   ----------------------------------------
Label_4_01486A36:
 .byte   N11 ,Cn1 ,v112
 .byte   W24
 .byte   Cn2
 .byte   W12
 .byte   N11
 .byte   W12
 .byte   Cn1
 .byte   W24
 .byte   Cn2
 .byte   W12
 .byte   N11
 .byte   W12
 .byte   PEND 
@ 016   ----------------------------------------
Label_4_01486A45:
 .byte   N11 ,Bn0 ,v112
 .byte   W24
 .byte   Bn1
 .byte   W12
 .byte   N11
 .byte   W12
 .byte   Bn0
 .byte   W12
 .byte   Bn1
 .byte   W12
 .byte   Bn0
 .byte   W12
 .byte   Bn1
 .byte   W12
 .byte   PEND 
@ 017   ----------------------------------------
Label_4_01486A56:
 .byte   N11 ,Gn0 ,v112
 .byte   W24
 .byte   Gn1
 .byte   W12
 .byte   N11
 .byte   W12
 .byte   An0
 .byte   W24
 .byte   An1
 .byte   W12
 .byte   N11
 .byte   W12
 .byte   PEND 
@ 018   ----------------------------------------
 .byte   PATT
  .word Label_4_01486A45
@ 019   ----------------------------------------
 .byte   PATT
  .word Label_4_01486A56
@ 020   ----------------------------------------
 .byte   PATT
  .word Label_4_014869FF
@ 021   ----------------------------------------
 .byte   PATT
  .word Label_4_014869FF
@ 022   ----------------------------------------
 .byte   PATT
  .word Label_4_01486A13
@ 023   ----------------------------------------
 .byte   PATT
  .word Label_4_01486A13
@ 024   ----------------------------------------
 .byte   PATT
  .word Label_4_014869FF
@ 025   ----------------------------------------
 .byte   PATT
  .word Label_4_014869FF
@ 026   ----------------------------------------
 .byte   PATT
  .word Label_4_01486A13
@ 027   ----------------------------------------
 .byte   PATT
  .word Label_4_01486A36
@ 028   ----------------------------------------
 .byte   PATT
  .word Label_4_01486A45
@ 029   ----------------------------------------
 .byte   PATT
  .word Label_4_01486A56
@ 030   ----------------------------------------
 .byte   PATT
  .word Label_4_01486A45
@ 031   ----------------------------------------
 .byte   PATT
  .word Label_4_01486A56
@ 032   ----------------------------------------
 .byte   PATT
  .word Label_4_01486A36
@ 033   ----------------------------------------
 .byte   PATT
  .word Label_4_01486A36
@ 034   ----------------------------------------
 .byte   PATT
  .word Label_4_014869FF
@ 035   ----------------------------------------
 .byte   PATT
  .word Label_4_014869FF
@ 036   ----------------------------------------
 .byte   PATT
  .word Label_4_01486A36
@ 037   ----------------------------------------
 .byte   PATT
  .word Label_4_01486A36
@ 038   ----------------------------------------
 .byte   PATT
  .word Label_4_014869FF
@ 039   ----------------------------------------
 .byte   PATT
  .word Label_4_014869FF
@ 040   ----------------------------------------
 .byte   PATT
  .word Label_4_01486A36
@ 041   ----------------------------------------
 .byte   PATT
  .word Label_4_01486A36
@ 042   ----------------------------------------
 .byte   PATT
  .word Label_4_014869FF
@ 043   ----------------------------------------
 .byte   PATT
  .word Label_4_014869FF
@ 044   ----------------------------------------
 .byte   PATT
  .word Label_4_01486A13
@ 045   ----------------------------------------
 .byte   PATT
  .word Label_4_01486A13
@ 046   ----------------------------------------
Label_4_01486AF1:
 .byte   N11 ,Bn0 ,v112
 .byte   W24
 .byte   Bn1
 .byte   W12
 .byte   N11
 .byte   W12
 .byte   Bn0
 .byte   W24
 .byte   Bn1
 .byte   W12
 .byte   N11
 .byte   W12
 .byte   PEND 
@ 047   ----------------------------------------
 .byte   PATT
  .word Label_4_01486A13
@ 048   ----------------------------------------
 .byte   PATT
  .word Label_4_01486A36
@ 049   ----------------------------------------
 .byte   PATT
  .word Label_4_01486A36
@ 050   ----------------------------------------
 .byte   PATT
  .word Label_4_014869FF
@ 051   ----------------------------------------
 .byte   PATT
  .word Label_4_014869FF
@ 052   ----------------------------------------
 .byte   PATT
  .word Label_4_01486A36
@ 053   ----------------------------------------
 .byte   PATT
  .word Label_4_01486A36
@ 054   ----------------------------------------
 .byte   PATT
  .word Label_4_014869FF
@ 055   ----------------------------------------
 .byte   PATT
  .word Label_4_014869FF
@ 056   ----------------------------------------
 .byte   PATT
  .word Label_4_01486A36
@ 057   ----------------------------------------
 .byte   PATT
  .word Label_4_01486A36
@ 058   ----------------------------------------
 .byte   PATT
  .word Label_4_014869FF
@ 059   ----------------------------------------
 .byte   PATT
  .word Label_4_014869FF
@ 060   ----------------------------------------
 .byte   PATT
  .word Label_4_01486A13
@ 061   ----------------------------------------
 .byte   PATT
  .word Label_4_01486A13
@ 062   ----------------------------------------
 .byte   PATT
  .word Label_4_01486AF1
@ 063   ----------------------------------------
 .byte   PATT
  .word Label_4_01486A13
@ 064   ----------------------------------------
 .byte   PATT
  .word Label_4_014869D2
@ 065   ----------------------------------------
 .byte   PATT
  .word Label_4_014869D2
@ 066   ----------------------------------------
 .byte   PATT
  .word Label_4_014869D2
@ 067   ----------------------------------------
 .byte   PATT
  .word Label_4_014869D2
@ 068   ----------------------------------------
 .byte   PATT
  .word Label_4_014869D2
@ 069   ----------------------------------------
 .byte   PATT
  .word Label_4_014869D2
@ 070   ----------------------------------------
 .byte   PATT
  .word Label_4_014869D2
@ 071   ----------------------------------------
 .byte   PATT
  .word Label_4_014869D2
@ 072   ----------------------------------------
 .byte   PATT
  .word Label_4_014869FF
@ 073   ----------------------------------------
 .byte   PATT
  .word Label_4_014869FF
@ 074   ----------------------------------------
 .byte   PATT
  .word Label_4_01486A13
@ 075   ----------------------------------------
 .byte   PATT
  .word Label_4_01486A13
@ 076   ----------------------------------------
 .byte   PATT
  .word Label_4_014869FF
@ 077   ----------------------------------------
 .byte   PATT
  .word Label_4_014869FF
@ 078   ----------------------------------------
 .byte   PATT
  .word Label_4_01486A13
@ 079   ----------------------------------------
 .byte   PATT
  .word Label_4_01486A36
@ 080   ----------------------------------------
 .byte   PATT
  .word Label_4_01486A45
@ 081   ----------------------------------------
 .byte   PATT
  .word Label_4_01486A56
@ 082   ----------------------------------------
 .byte   PATT
  .word Label_4_01486A45
@ 083   ----------------------------------------
 .byte   PATT
  .word Label_4_01486A56
@ 084   ----------------------------------------
 .byte   PATT
  .word Label_4_014869FF
@ 085   ----------------------------------------
 .byte   PATT
  .word Label_4_014869FF
@ 086   ----------------------------------------
 .byte   PATT
  .word Label_4_01486A13
@ 087   ----------------------------------------
 .byte   PATT
  .word Label_4_01486A13
@ 088   ----------------------------------------
 .byte   PATT
  .word Label_4_014869FF
@ 089   ----------------------------------------
 .byte   PATT
  .word Label_4_014869FF
@ 090   ----------------------------------------
 .byte   PATT
  .word Label_4_01486A13
@ 091   ----------------------------------------
 .byte   PATT
  .word Label_4_01486A36
@ 092   ----------------------------------------
 .byte   PATT
  .word Label_4_01486A45
@ 093   ----------------------------------------
 .byte   PATT
  .word Label_4_01486A56
@ 094   ----------------------------------------
 .byte   PATT
  .word Label_4_01486A45
@ 095   ----------------------------------------
 .byte   PATT
  .word Label_4_01486A56
@ 096   ----------------------------------------
 .byte   PATT
  .word Label_4_01486A36
@ 097   ----------------------------------------
 .byte   PATT
  .word Label_4_01486A36
@ 098   ----------------------------------------
 .byte   PATT
  .word Label_4_014869FF
@ 099   ----------------------------------------
 .byte   PATT
  .word Label_4_014869FF
@ 100   ----------------------------------------
 .byte   PATT
  .word Label_4_01486A36
@ 101   ----------------------------------------
 .byte   PATT
  .word Label_4_01486A36
@ 102   ----------------------------------------
 .byte   PATT
  .word Label_4_014869FF
@ 103   ----------------------------------------
 .byte   PATT
  .word Label_4_014869FF
@ 104   ----------------------------------------
 .byte   PATT
  .word Label_4_01486A36
@ 105   ----------------------------------------
 .byte   PATT
  .word Label_4_01486A36
@ 106   ----------------------------------------
 .byte   PATT
  .word Label_4_014869FF
@ 107   ----------------------------------------
 .byte   PATT
  .word Label_4_014869FF
@ 108   ----------------------------------------
 .byte   PATT
  .word Label_4_01486A13
@ 109   ----------------------------------------
 .byte   PATT
  .word Label_4_01486A13
@ 110   ----------------------------------------
 .byte   PATT
  .word Label_4_01486AF1
@ 111   ----------------------------------------
 .byte   PATT
  .word Label_4_01486A13
@ 112   ----------------------------------------
 .byte   PATT
  .word Label_4_01486A36
@ 113   ----------------------------------------
 .byte   PATT
  .word Label_4_01486A36
@ 114   ----------------------------------------
 .byte   PATT
  .word Label_4_014869FF
@ 115   ----------------------------------------
 .byte   PATT
  .word Label_4_014869FF
@ 116   ----------------------------------------
 .byte   PATT
  .word Label_4_01486A36
@ 117   ----------------------------------------
 .byte   PATT
  .word Label_4_01486A36
@ 118   ----------------------------------------
 .byte   PATT
  .word Label_4_014869FF
@ 119   ----------------------------------------
 .byte   PATT
  .word Label_4_014869FF
@ 120   ----------------------------------------
 .byte   PATT
  .word Label_4_01486A36
@ 121   ----------------------------------------
 .byte   PATT
  .word Label_4_01486A36
@ 122   ----------------------------------------
 .byte   PATT
  .word Label_4_014869FF
@ 123   ----------------------------------------
 .byte   PATT
  .word Label_4_014869FF
@ 124   ----------------------------------------
 .byte   PATT
  .word Label_4_01486A13
@ 125   ----------------------------------------
 .byte   PATT
  .word Label_4_01486A13
@ 126   ----------------------------------------
 .byte   PATT
  .word Label_4_01486AF1
@ 127   ----------------------------------------
 .byte   N11 ,Dn1 ,v112
 .byte   W24
 .byte   Dn2
 .byte   W12
 .byte   N11
 .byte   W12
 .byte   Dn1
 .byte   W24
 .byte   Dn2
 .byte   W12
 .byte   N11
 .byte   W11
 .byte   GOTO
  .word Label_4_014869BE
 .byte   FINE

@**************** Track 6 (Midi-Chn.5) ****************@

song5F_006:
@ 000   ----------------------------------------
 .byte   KEYSH , song5F_key+0
Label_5_01486CA6:
 .byte   VOICE , 68
 .byte   VOL , 26*song5F_mvl/mxv
 .byte   PAN , c_v+0
 .byte   W96
@ 001   ----------------------------------------
 .byte   W96
@ 002   ----------------------------------------
 .byte   W96
@ 003   ----------------------------------------
 .byte   W96
@ 004   ----------------------------------------
 .byte   W96
@ 005   ----------------------------------------
 .byte   W96
@ 006   ----------------------------------------
 .byte   W96
@ 007   ----------------------------------------
 .byte   W96
@ 008   ----------------------------------------
 .byte   N92 ,En3 ,v127
 .byte   W96
@ 009   ----------------------------------------
Label_5_01486CB8:
 .byte   N68 ,Bn3 ,v127
 .byte   W72
 .byte   N11 ,An3
 .byte   W12
 .byte   Bn3
 .byte   W12
 .byte   PEND 
@ 010   ----------------------------------------
Label_5_01486CC2:
 .byte   N68 ,An3 ,v127
 .byte   W72
 .byte   N23 ,Gn3
 .byte   W24
 .byte   PEND 
@ 011   ----------------------------------------
Label_5_01486CCA:
 .byte   N32 ,Fs3 ,v127
 .byte   W36
 .byte   Gn3
 .byte   W36
 .byte   N23 ,An3
 .byte   W24
 .byte   PEND 
@ 012   ----------------------------------------
 .byte   N92 ,En3
 .byte   W96
@ 013   ----------------------------------------
 .byte   PATT
  .word Label_5_01486CB8
@ 014   ----------------------------------------
 .byte   PATT
  .word Label_5_01486CC2
@ 015   ----------------------------------------
Label_5_01486CE1:
 .byte   N32 ,Cn3 ,v127
 .byte   W36
 .byte   En3
 .byte   W36
 .byte   N23 ,Gn3
 .byte   W24
 .byte   PEND 
@ 016   ----------------------------------------
 .byte   TIE ,Fs3
 .byte   W96
@ 017   ----------------------------------------
 .byte   W92
 .byte   W03
 .byte   EOT
 .byte   W01
@ 018   ----------------------------------------
 .byte   W96
@ 019   ----------------------------------------
 .byte   W96
@ 020   ----------------------------------------
 .byte   N92 ,En3
 .byte   W96
@ 021   ----------------------------------------
 .byte   PATT
  .word Label_5_01486CB8
@ 022   ----------------------------------------
 .byte   PATT
  .word Label_5_01486CC2
@ 023   ----------------------------------------
 .byte   PATT
  .word Label_5_01486CCA
@ 024   ----------------------------------------
 .byte   N92 ,En3 ,v127
 .byte   W96
@ 025   ----------------------------------------
 .byte   PATT
  .word Label_5_01486CB8
@ 026   ----------------------------------------
 .byte   PATT
  .word Label_5_01486CC2
@ 027   ----------------------------------------
 .byte   PATT
  .word Label_5_01486CE1
@ 028   ----------------------------------------
 .byte   TIE ,Fs3 ,v127
 .byte   W96
@ 029   ----------------------------------------
 .byte   W92
 .byte   W03
 .byte   EOT
 .byte   W01
@ 030   ----------------------------------------
 .byte   W96
@ 031   ----------------------------------------
 .byte   W96
@ 032   ----------------------------------------
 .byte   W96
@ 033   ----------------------------------------
 .byte   W96
@ 034   ----------------------------------------
 .byte   W96
@ 035   ----------------------------------------
 .byte   W96
@ 036   ----------------------------------------
 .byte   W96
@ 037   ----------------------------------------
 .byte   W96
@ 038   ----------------------------------------
 .byte   W96
@ 039   ----------------------------------------
 .byte   W96
@ 040   ----------------------------------------
 .byte   W96
@ 041   ----------------------------------------
 .byte   W96
@ 042   ----------------------------------------
 .byte   W96
@ 043   ----------------------------------------
 .byte   W96
@ 044   ----------------------------------------
 .byte   W96
@ 045   ----------------------------------------
 .byte   W96
@ 046   ----------------------------------------
 .byte   W96
@ 047   ----------------------------------------
 .byte   W96
@ 048   ----------------------------------------
 .byte   W96
@ 049   ----------------------------------------
 .byte   W96
@ 050   ----------------------------------------
 .byte   W96
@ 051   ----------------------------------------
 .byte   W96
@ 052   ----------------------------------------
 .byte   W96
@ 053   ----------------------------------------
 .byte   W96
@ 054   ----------------------------------------
 .byte   W96
@ 055   ----------------------------------------
 .byte   W96
@ 056   ----------------------------------------
 .byte   W96
@ 057   ----------------------------------------
 .byte   W96
@ 058   ----------------------------------------
 .byte   W96
@ 059   ----------------------------------------
 .byte   W96
@ 060   ----------------------------------------
 .byte   W96
@ 061   ----------------------------------------
 .byte   W96
@ 062   ----------------------------------------
 .byte   W96
@ 063   ----------------------------------------
 .byte   W96
@ 064   ----------------------------------------
 .byte   W96
@ 065   ----------------------------------------
 .byte   W96
@ 066   ----------------------------------------
 .byte   W96
@ 067   ----------------------------------------
 .byte   W96
@ 068   ----------------------------------------
 .byte   W96
@ 069   ----------------------------------------
 .byte   W96
@ 070   ----------------------------------------
 .byte   W96
@ 071   ----------------------------------------
 .byte   W96
@ 072   ----------------------------------------
 .byte   N92 ,En3
 .byte   W96
@ 073   ----------------------------------------
 .byte   PATT
  .word Label_5_01486CB8
@ 074   ----------------------------------------
 .byte   PATT
  .word Label_5_01486CC2
@ 075   ----------------------------------------
 .byte   PATT
  .word Label_5_01486CCA
@ 076   ----------------------------------------
 .byte   N92 ,En3 ,v127
 .byte   W96
@ 077   ----------------------------------------
 .byte   PATT
  .word Label_5_01486CB8
@ 078   ----------------------------------------
 .byte   PATT
  .word Label_5_01486CC2
@ 079   ----------------------------------------
 .byte   PATT
  .word Label_5_01486CE1
@ 080   ----------------------------------------
 .byte   TIE ,Fs3 ,v127
 .byte   W96
@ 081   ----------------------------------------
 .byte   W92
 .byte   W03
 .byte   EOT
 .byte   W01
@ 082   ----------------------------------------
 .byte   W96
@ 083   ----------------------------------------
 .byte   W96
@ 084   ----------------------------------------
 .byte   N92 ,En3
 .byte   W96
@ 085   ----------------------------------------
 .byte   PATT
  .word Label_5_01486CB8
@ 086   ----------------------------------------
 .byte   PATT
  .word Label_5_01486CC2
@ 087   ----------------------------------------
 .byte   PATT
  .word Label_5_01486CCA
@ 088   ----------------------------------------
 .byte   N92 ,En3 ,v127
 .byte   W96
@ 089   ----------------------------------------
 .byte   PATT
  .word Label_5_01486CB8
@ 090   ----------------------------------------
 .byte   PATT
  .word Label_5_01486CC2
@ 091   ----------------------------------------
 .byte   PATT
  .word Label_5_01486CE1
@ 092   ----------------------------------------
 .byte   TIE ,Fs3 ,v127
 .byte   W96
@ 093   ----------------------------------------
 .byte   W92
 .byte   W03
 .byte   EOT
 .byte   W01
@ 094   ----------------------------------------
 .byte   W96
@ 095   ----------------------------------------
 .byte   W96
@ 096   ----------------------------------------
 .byte   W96
@ 097   ----------------------------------------
 .byte   W96
@ 098   ----------------------------------------
 .byte   W96
@ 099   ----------------------------------------
 .byte   W96
@ 100   ----------------------------------------
 .byte   W96
@ 101   ----------------------------------------
 .byte   W96
@ 102   ----------------------------------------
 .byte   W96
@ 103   ----------------------------------------
 .byte   W96
@ 104   ----------------------------------------
 .byte   W96
@ 105   ----------------------------------------
 .byte   W96
@ 106   ----------------------------------------
 .byte   W96
@ 107   ----------------------------------------
 .byte   W96
@ 108   ----------------------------------------
 .byte   W96
@ 109   ----------------------------------------
 .byte   W96
@ 110   ----------------------------------------
 .byte   W96
@ 111   ----------------------------------------
 .byte   W96
@ 112   ----------------------------------------
 .byte   W96
@ 113   ----------------------------------------
 .byte   W96
@ 114   ----------------------------------------
 .byte   W96
@ 115   ----------------------------------------
 .byte   W96
@ 116   ----------------------------------------
 .byte   W96
@ 117   ----------------------------------------
 .byte   W96
@ 118   ----------------------------------------
 .byte   W96
@ 119   ----------------------------------------
 .byte   W96
@ 120   ----------------------------------------
 .byte   W96
@ 121   ----------------------------------------
 .byte   W96
@ 122   ----------------------------------------
 .byte   W96
@ 123   ----------------------------------------
 .byte   W96
@ 124   ----------------------------------------
 .byte   W96
@ 125   ----------------------------------------
 .byte   W96
@ 126   ----------------------------------------
 .byte   W96
@ 127   ----------------------------------------
 .byte   W92
 .byte   W03
 .byte   GOTO
  .word Label_5_01486CA6
 .byte   FINE

@**************** Track 7 (Midi-Chn.6) ****************@

song5F_007:
@ 000   ----------------------------------------
 .byte   KEYSH , song5F_key+0
Label_6_01486DD2:
 .byte   VOICE , 50
 .byte   VOL , 26*song5F_mvl/mxv
 .byte   PAN , c_v+0
 .byte   W96
@ 001   ----------------------------------------
 .byte   W96
@ 002   ----------------------------------------
 .byte   W96
@ 003   ----------------------------------------
 .byte   W96
@ 004   ----------------------------------------
 .byte   W96
@ 005   ----------------------------------------
 .byte   W96
@ 006   ----------------------------------------
 .byte   W96
@ 007   ----------------------------------------
 .byte   W96
@ 008   ----------------------------------------
 .byte   W96
@ 009   ----------------------------------------
 .byte   W96
@ 010   ----------------------------------------
 .byte   W96
@ 011   ----------------------------------------
 .byte   W96
@ 012   ----------------------------------------
 .byte   W96
@ 013   ----------------------------------------
 .byte   W96
@ 014   ----------------------------------------
 .byte   W96
@ 015   ----------------------------------------
 .byte   W96
@ 016   ----------------------------------------
 .byte   W96
@ 017   ----------------------------------------
 .byte   W96
@ 018   ----------------------------------------
 .byte   W96
@ 019   ----------------------------------------
 .byte   W96
@ 020   ----------------------------------------
 .byte   W96
@ 021   ----------------------------------------
 .byte   W96
@ 022   ----------------------------------------
 .byte   W96
@ 023   ----------------------------------------
 .byte   W96
@ 024   ----------------------------------------
 .byte   W96
@ 025   ----------------------------------------
 .byte   W96
@ 026   ----------------------------------------
 .byte   W96
@ 027   ----------------------------------------
 .byte   W96
@ 028   ----------------------------------------
 .byte   W96
@ 029   ----------------------------------------
 .byte   W96
@ 030   ----------------------------------------
 .byte   W96
@ 031   ----------------------------------------
 .byte   W96
@ 032   ----------------------------------------
 .byte   N92 ,Cn4 ,v127
 .byte   W96
@ 033   ----------------------------------------
Label_6_01486DFC:
 .byte   N23 ,Gn3 ,v127
 .byte   W24
 .byte   N44
 .byte   W48
 .byte   N23 ,An3
 .byte   W24
 .byte   PEND 
@ 034   ----------------------------------------
 .byte   TIE ,Bn3
 .byte   W96
@ 035   ----------------------------------------
 .byte   W92
 .byte   W03
 .byte   EOT
 .byte   W01
@ 036   ----------------------------------------
 .byte   N92 ,Cn4
 .byte   W96
@ 037   ----------------------------------------
 .byte   PATT
  .word Label_6_01486DFC
@ 038   ----------------------------------------
 .byte   TIE ,Bn3 ,v127
 .byte   W96
@ 039   ----------------------------------------
 .byte   W92
 .byte   W03
 .byte   EOT
 .byte   W01
@ 040   ----------------------------------------
 .byte   N92 ,Cn4
 .byte   W96
@ 041   ----------------------------------------
 .byte   PATT
  .word Label_6_01486DFC
@ 042   ----------------------------------------
 .byte   TIE ,Bn3 ,v127
 .byte   W96
@ 043   ----------------------------------------
 .byte   W92
 .byte   W03
 .byte   EOT
 .byte   W01
@ 044   ----------------------------------------
 .byte   TIE ,Dn4
 .byte   W96
@ 045   ----------------------------------------
 .byte   W92
 .byte   W03
 .byte   EOT
 .byte   W01
@ 046   ----------------------------------------
 .byte   N92 ,Bn3
 .byte   W96
@ 047   ----------------------------------------
 .byte   Dn4
 .byte   W96
@ 048   ----------------------------------------
 .byte   Cn4
 .byte   W96
@ 049   ----------------------------------------
 .byte   PATT
  .word Label_6_01486DFC
@ 050   ----------------------------------------
 .byte   TIE ,Bn3 ,v127
 .byte   W96
@ 051   ----------------------------------------
 .byte   W92
 .byte   W03
 .byte   EOT
 .byte   W01
@ 052   ----------------------------------------
 .byte   N92 ,Cn4
 .byte   W96
@ 053   ----------------------------------------
 .byte   PATT
  .word Label_6_01486DFC
@ 054   ----------------------------------------
 .byte   TIE ,Bn3 ,v127
 .byte   W96
@ 055   ----------------------------------------
 .byte   W92
 .byte   W03
 .byte   EOT
 .byte   W01
@ 056   ----------------------------------------
 .byte   N92 ,Cn4
 .byte   W96
@ 057   ----------------------------------------
 .byte   PATT
  .word Label_6_01486DFC
@ 058   ----------------------------------------
 .byte   TIE ,Bn3 ,v127
 .byte   W96
@ 059   ----------------------------------------
 .byte   W92
 .byte   W03
 .byte   EOT
 .byte   W01
@ 060   ----------------------------------------
 .byte   TIE ,Dn4
 .byte   W96
@ 061   ----------------------------------------
 .byte   W92
 .byte   W03
 .byte   EOT
 .byte   W01
@ 062   ----------------------------------------
 .byte   N92 ,Bn3
 .byte   W96
@ 063   ----------------------------------------
 .byte   Dn4
 .byte   W96
@ 064   ----------------------------------------
 .byte   W96
@ 065   ----------------------------------------
 .byte   W96
@ 066   ----------------------------------------
 .byte   W96
@ 067   ----------------------------------------
 .byte   W96
@ 068   ----------------------------------------
 .byte   W96
@ 069   ----------------------------------------
 .byte   W96
@ 070   ----------------------------------------
 .byte   W96
@ 071   ----------------------------------------
 .byte   W96
@ 072   ----------------------------------------
 .byte   W96
@ 073   ----------------------------------------
 .byte   W96
@ 074   ----------------------------------------
 .byte   W96
@ 075   ----------------------------------------
 .byte   W96
@ 076   ----------------------------------------
 .byte   W96
@ 077   ----------------------------------------
 .byte   W96
@ 078   ----------------------------------------
 .byte   W96
@ 079   ----------------------------------------
 .byte   W96
@ 080   ----------------------------------------
 .byte   W96
@ 081   ----------------------------------------
 .byte   W96
@ 082   ----------------------------------------
 .byte   W96
@ 083   ----------------------------------------
 .byte   W96
@ 084   ----------------------------------------
 .byte   W96
@ 085   ----------------------------------------
 .byte   W96
@ 086   ----------------------------------------
 .byte   W96
@ 087   ----------------------------------------
 .byte   W96
@ 088   ----------------------------------------
 .byte   W96
@ 089   ----------------------------------------
 .byte   W96
@ 090   ----------------------------------------
 .byte   W96
@ 091   ----------------------------------------
 .byte   W96
@ 092   ----------------------------------------
 .byte   W96
@ 093   ----------------------------------------
 .byte   W96
@ 094   ----------------------------------------
 .byte   W96
@ 095   ----------------------------------------
 .byte   W96
@ 096   ----------------------------------------
 .byte   Cn4
 .byte   W96
@ 097   ----------------------------------------
 .byte   PATT
  .word Label_6_01486DFC
@ 098   ----------------------------------------
 .byte   TIE ,Bn3 ,v127
 .byte   W96
@ 099   ----------------------------------------
 .byte   W92
 .byte   W03
 .byte   EOT
 .byte   W01
@ 100   ----------------------------------------
 .byte   N92 ,Cn4
 .byte   W96
@ 101   ----------------------------------------
 .byte   PATT
  .word Label_6_01486DFC
@ 102   ----------------------------------------
 .byte   TIE ,Bn3 ,v127
 .byte   W96
@ 103   ----------------------------------------
 .byte   W92
 .byte   W03
 .byte   EOT
 .byte   W01
@ 104   ----------------------------------------
 .byte   N92 ,Cn4
 .byte   W96
@ 105   ----------------------------------------
 .byte   PATT
  .word Label_6_01486DFC
@ 106   ----------------------------------------
 .byte   TIE ,Bn3 ,v127
 .byte   W96
@ 107   ----------------------------------------
 .byte   W92
 .byte   W03
 .byte   EOT
 .byte   W01
@ 108   ----------------------------------------
 .byte   TIE ,Dn4
 .byte   W96
@ 109   ----------------------------------------
 .byte   W92
 .byte   W03
 .byte   EOT
 .byte   W01
@ 110   ----------------------------------------
 .byte   N92 ,Bn3
 .byte   W96
@ 111   ----------------------------------------
 .byte   Dn4
 .byte   W96
@ 112   ----------------------------------------
 .byte   Cn4
 .byte   W96
@ 113   ----------------------------------------
 .byte   PATT
  .word Label_6_01486DFC
@ 114   ----------------------------------------
 .byte   TIE ,Bn3 ,v127
 .byte   W96
@ 115   ----------------------------------------
 .byte   W92
 .byte   W03
 .byte   EOT
 .byte   W01
@ 116   ----------------------------------------
 .byte   N92 ,Cn4
 .byte   W96
@ 117   ----------------------------------------
 .byte   PATT
  .word Label_6_01486DFC
@ 118   ----------------------------------------
 .byte   TIE ,Bn3 ,v127
 .byte   W96
@ 119   ----------------------------------------
 .byte   W92
 .byte   W03
 .byte   EOT
 .byte   W01
@ 120   ----------------------------------------
 .byte   N92 ,Cn4
 .byte   W96
@ 121   ----------------------------------------
 .byte   PATT
  .word Label_6_01486DFC
@ 122   ----------------------------------------
 .byte   TIE ,Bn3 ,v127
 .byte   W96
@ 123   ----------------------------------------
 .byte   W92
 .byte   W03
 .byte   EOT
 .byte   W01
@ 124   ----------------------------------------
 .byte   TIE ,Dn4
 .byte   W96
@ 125   ----------------------------------------
 .byte   W92
 .byte   W03
 .byte   EOT
 .byte   W01
@ 126   ----------------------------------------
 .byte   N92 ,Bn3
 .byte   W96
@ 127   ----------------------------------------
 .byte   Dn4
 .byte   W92
 .byte   W03
 .byte   GOTO
  .word Label_6_01486DD2
 .byte   FINE

@**************** Track 8 (Midi-Chn.7) ****************@

song5F_008:
@ 000   ----------------------------------------
 .byte   KEYSH , song5F_key+0
Label_7_01486F13:
 .byte   VOICE , 85
 .byte   VOL , 26*song5F_mvl/mxv
 .byte   PAN , c_v+0
 .byte   W96
@ 001   ----------------------------------------
 .byte   W96
@ 002   ----------------------------------------
 .byte   W96
@ 003   ----------------------------------------
 .byte   W96
@ 004   ----------------------------------------
 .byte   W96
@ 005   ----------------------------------------
 .byte   W96
@ 006   ----------------------------------------
 .byte   W96
@ 007   ----------------------------------------
 .byte   W96
@ 008   ----------------------------------------
 .byte   W96
@ 009   ----------------------------------------
 .byte   W96
@ 010   ----------------------------------------
 .byte   W96
@ 011   ----------------------------------------
 .byte   W96
@ 012   ----------------------------------------
 .byte   W96
@ 013   ----------------------------------------
 .byte   W96
@ 014   ----------------------------------------
 .byte   W96
@ 015   ----------------------------------------
 .byte   W96
@ 016   ----------------------------------------
 .byte   W96
@ 017   ----------------------------------------
 .byte   W96
@ 018   ----------------------------------------
 .byte   W96
@ 019   ----------------------------------------
 .byte   W96
@ 020   ----------------------------------------
 .byte   W96
@ 021   ----------------------------------------
 .byte   W96
@ 022   ----------------------------------------
 .byte   W96
@ 023   ----------------------------------------
 .byte   W96
@ 024   ----------------------------------------
 .byte   W96
@ 025   ----------------------------------------
 .byte   W96
@ 026   ----------------------------------------
 .byte   W96
@ 027   ----------------------------------------
 .byte   W96
@ 028   ----------------------------------------
 .byte   W96
@ 029   ----------------------------------------
 .byte   W96
@ 030   ----------------------------------------
 .byte   W96
@ 031   ----------------------------------------
 .byte   W96
@ 032   ----------------------------------------
 .byte   N92 ,Cn4 ,v127
 .byte   W96
@ 033   ----------------------------------------
Label_7_01486F3D:
 .byte   N23 ,Gn3 ,v127
 .byte   W24
 .byte   N44
 .byte   W48
 .byte   N23 ,An3
 .byte   W24
 .byte   PEND 
@ 034   ----------------------------------------
 .byte   TIE ,Bn3
 .byte   W96
@ 035   ----------------------------------------
 .byte   W92
 .byte   W03
 .byte   EOT
 .byte   W01
@ 036   ----------------------------------------
 .byte   N92 ,Cn4
 .byte   W96
@ 037   ----------------------------------------
 .byte   PATT
  .word Label_7_01486F3D
@ 038   ----------------------------------------
 .byte   TIE ,Bn3 ,v127
 .byte   W96
@ 039   ----------------------------------------
 .byte   W92
 .byte   W03
 .byte   EOT
 .byte   W01
@ 040   ----------------------------------------
 .byte   N92 ,Cn4
 .byte   W96
@ 041   ----------------------------------------
 .byte   PATT
  .word Label_7_01486F3D
@ 042   ----------------------------------------
 .byte   TIE ,Bn3 ,v127
 .byte   W96
@ 043   ----------------------------------------
 .byte   W92
 .byte   W03
 .byte   EOT
 .byte   W01
@ 044   ----------------------------------------
 .byte   TIE ,Dn4
 .byte   W96
@ 045   ----------------------------------------
 .byte   W92
 .byte   W03
 .byte   EOT
 .byte   W01
@ 046   ----------------------------------------
 .byte   N92 ,Bn3
 .byte   W96
@ 047   ----------------------------------------
 .byte   Dn4
 .byte   W96
@ 048   ----------------------------------------
 .byte   Cn4
 .byte   W96
@ 049   ----------------------------------------
 .byte   PATT
  .word Label_7_01486F3D
@ 050   ----------------------------------------
 .byte   TIE ,Bn3 ,v127
 .byte   W96
@ 051   ----------------------------------------
 .byte   W92
 .byte   W03
 .byte   EOT
 .byte   W01
@ 052   ----------------------------------------
 .byte   N92 ,Cn4
 .byte   W96
@ 053   ----------------------------------------
 .byte   PATT
  .word Label_7_01486F3D
@ 054   ----------------------------------------
 .byte   TIE ,Bn3 ,v127
 .byte   W96
@ 055   ----------------------------------------
 .byte   W92
 .byte   W03
 .byte   EOT
 .byte   W01
@ 056   ----------------------------------------
 .byte   N92 ,Cn4
 .byte   W96
@ 057   ----------------------------------------
 .byte   PATT
  .word Label_7_01486F3D
@ 058   ----------------------------------------
 .byte   TIE ,Bn3 ,v127
 .byte   W96
@ 059   ----------------------------------------
 .byte   W92
 .byte   W03
 .byte   EOT
 .byte   W01
@ 060   ----------------------------------------
 .byte   TIE ,Dn4
 .byte   W96
@ 061   ----------------------------------------
 .byte   W92
 .byte   W03
 .byte   EOT
 .byte   W01
@ 062   ----------------------------------------
 .byte   N92 ,Bn3
 .byte   W96
@ 063   ----------------------------------------
 .byte   Dn4
 .byte   W96
@ 064   ----------------------------------------
 .byte   W96
@ 065   ----------------------------------------
 .byte   W96
@ 066   ----------------------------------------
 .byte   W96
@ 067   ----------------------------------------
 .byte   W96
@ 068   ----------------------------------------
 .byte   W96
@ 069   ----------------------------------------
 .byte   W96
@ 070   ----------------------------------------
 .byte   W96
@ 071   ----------------------------------------
 .byte   W96
@ 072   ----------------------------------------
 .byte   W96
@ 073   ----------------------------------------
 .byte   W96
@ 074   ----------------------------------------
 .byte   W96
@ 075   ----------------------------------------
 .byte   W96
@ 076   ----------------------------------------
 .byte   W96
@ 077   ----------------------------------------
 .byte   W96
@ 078   ----------------------------------------
 .byte   W96
@ 079   ----------------------------------------
 .byte   W96
@ 080   ----------------------------------------
 .byte   W96
@ 081   ----------------------------------------
 .byte   W96
@ 082   ----------------------------------------
 .byte   W96
@ 083   ----------------------------------------
 .byte   W96
@ 084   ----------------------------------------
 .byte   W96
@ 085   ----------------------------------------
 .byte   W96
@ 086   ----------------------------------------
 .byte   W96
@ 087   ----------------------------------------
 .byte   W96
@ 088   ----------------------------------------
 .byte   W96
@ 089   ----------------------------------------
 .byte   W96
@ 090   ----------------------------------------
 .byte   W96
@ 091   ----------------------------------------
 .byte   W96
@ 092   ----------------------------------------
 .byte   W96
@ 093   ----------------------------------------
 .byte   W96
@ 094   ----------------------------------------
 .byte   W96
@ 095   ----------------------------------------
 .byte   W96
@ 096   ----------------------------------------
 .byte   Cn4
 .byte   W96
@ 097   ----------------------------------------
 .byte   PATT
  .word Label_7_01486F3D
@ 098   ----------------------------------------
 .byte   TIE ,Bn3 ,v127
 .byte   W96
@ 099   ----------------------------------------
 .byte   W92
 .byte   W03
 .byte   EOT
 .byte   W01
@ 100   ----------------------------------------
 .byte   N92 ,Cn4
 .byte   W96
@ 101   ----------------------------------------
 .byte   PATT
  .word Label_7_01486F3D
@ 102   ----------------------------------------
 .byte   TIE ,Bn3 ,v127
 .byte   W96
@ 103   ----------------------------------------
 .byte   W92
 .byte   W03
 .byte   EOT
 .byte   W01
@ 104   ----------------------------------------
 .byte   N92 ,Cn4
 .byte   W96
@ 105   ----------------------------------------
 .byte   PATT
  .word Label_7_01486F3D
@ 106   ----------------------------------------
 .byte   TIE ,Bn3 ,v127
 .byte   W96
@ 107   ----------------------------------------
 .byte   W92
 .byte   W03
 .byte   EOT
 .byte   W01
@ 108   ----------------------------------------
 .byte   TIE ,Dn4
 .byte   W96
@ 109   ----------------------------------------
 .byte   W92
 .byte   W03
 .byte   EOT
 .byte   W01
@ 110   ----------------------------------------
 .byte   N92 ,Bn3
 .byte   W96
@ 111   ----------------------------------------
 .byte   Dn4
 .byte   W96
@ 112   ----------------------------------------
 .byte   Cn4
 .byte   W96
@ 113   ----------------------------------------
 .byte   PATT
  .word Label_7_01486F3D
@ 114   ----------------------------------------
 .byte   TIE ,Bn3 ,v127
 .byte   W96
@ 115   ----------------------------------------
 .byte   W92
 .byte   W03
 .byte   EOT
 .byte   W01
@ 116   ----------------------------------------
 .byte   N92 ,Cn4
 .byte   W96
@ 117   ----------------------------------------
 .byte   PATT
  .word Label_7_01486F3D
@ 118   ----------------------------------------
 .byte   TIE ,Bn3 ,v127
 .byte   W96
@ 119   ----------------------------------------
 .byte   W92
 .byte   W03
 .byte   EOT
 .byte   W01
@ 120   ----------------------------------------
 .byte   N92 ,Cn4
 .byte   W96
@ 121   ----------------------------------------
 .byte   PATT
  .word Label_7_01486F3D
@ 122   ----------------------------------------
 .byte   TIE ,Bn3 ,v127
 .byte   W96
@ 123   ----------------------------------------
 .byte   W92
 .byte   W03
 .byte   EOT
 .byte   W01
@ 124   ----------------------------------------
 .byte   TIE ,Dn4
 .byte   W96
@ 125   ----------------------------------------
 .byte   W92
 .byte   W03
 .byte   EOT
 .byte   W01
@ 126   ----------------------------------------
 .byte   N92 ,Bn3
 .byte   W96
@ 127   ----------------------------------------
 .byte   Dn4
 .byte   W92
 .byte   W03
 .byte   GOTO
  .word Label_7_01486F13
 .byte   FINE

@**************** Track 9 (Midi-Chn.8) ****************@

song5F_009:
@ 000   ----------------------------------------
 .byte   KEYSH , song5F_key+0
Label_8_01487054:
 .byte   VOICE , 68
 .byte   VOL , 26*song5F_mvl/mxv
 .byte   PAN , c_v+63
 .byte   W96
@ 001   ----------------------------------------
 .byte   W96
@ 002   ----------------------------------------
 .byte   W96
@ 003   ----------------------------------------
 .byte   W96
@ 004   ----------------------------------------
 .byte   W96
@ 005   ----------------------------------------
 .byte   W96
@ 006   ----------------------------------------
 .byte   W96
@ 007   ----------------------------------------
 .byte   W96
@ 008   ----------------------------------------
 .byte   TIE ,Gn3 ,v096
 .byte   W96
@ 009   ----------------------------------------
 .byte   W92
 .byte   W03
 .byte   EOT
 .byte   W01
@ 010   ----------------------------------------
 .byte   TIE ,Fs3
 .byte   W96
@ 011   ----------------------------------------
 .byte   W92
 .byte   W03
 .byte   EOT
 .byte   W01
@ 012   ----------------------------------------
 .byte   TIE ,Gn3
 .byte   W96
@ 013   ----------------------------------------
 .byte   W92
 .byte   W03
 .byte   EOT
 .byte   W01
@ 014   ----------------------------------------
 .byte   N92 ,Fs3
 .byte   W96
@ 015   ----------------------------------------
 .byte   Gn3
 .byte   W96
@ 016   ----------------------------------------
 .byte   TIE ,Fs3
 .byte   W96
@ 017   ----------------------------------------
 .byte   W92
 .byte   W03
 .byte   EOT
 .byte   W01
@ 018   ----------------------------------------
Label_8_01487084:
 .byte   N44 ,Fs3 ,v096
 .byte   W48
 .byte   N44
 .byte   W48
 .byte   PEND 
@ 019   ----------------------------------------
 .byte   PATT
  .word Label_8_01487084
@ 020   ----------------------------------------
 .byte   TIE ,Gn3 ,v096
 .byte   W96
@ 021   ----------------------------------------
 .byte   W92
 .byte   W03
 .byte   EOT
 .byte   W01
@ 022   ----------------------------------------
 .byte   TIE ,Fs3
 .byte   W96
@ 023   ----------------------------------------
 .byte   W92
 .byte   W03
 .byte   EOT
 .byte   W01
@ 024   ----------------------------------------
 .byte   TIE ,Gn3
 .byte   W96
@ 025   ----------------------------------------
 .byte   W92
 .byte   W03
 .byte   EOT
 .byte   W01
@ 026   ----------------------------------------
 .byte   N92 ,Fs3
 .byte   W96
@ 027   ----------------------------------------
 .byte   Gn3
 .byte   W96
@ 028   ----------------------------------------
 .byte   TIE ,Fs3
 .byte   W96
@ 029   ----------------------------------------
 .byte   W92
 .byte   W03
 .byte   EOT
 .byte   W01
@ 030   ----------------------------------------
 .byte   PATT
  .word Label_8_01487084
@ 031   ----------------------------------------
 .byte   PATT
  .word Label_8_01487084
@ 032   ----------------------------------------
 .byte   TIE ,En3 ,v096
 .byte   W96
@ 033   ----------------------------------------
 .byte   W92
 .byte   W03
 .byte   EOT
 .byte   W01
@ 034   ----------------------------------------
 .byte   TIE
 .byte   W96
@ 035   ----------------------------------------
 .byte   W92
 .byte   W03
 .byte   EOT
 .byte   W01
@ 036   ----------------------------------------
 .byte   TIE
 .byte   W96
@ 037   ----------------------------------------
 .byte   W92
 .byte   W03
 .byte   EOT
 .byte   W01
@ 038   ----------------------------------------
 .byte   TIE
 .byte   W96
@ 039   ----------------------------------------
 .byte   W92
 .byte   W03
 .byte   EOT
 .byte   W01
@ 040   ----------------------------------------
 .byte   TIE
 .byte   W96
@ 041   ----------------------------------------
 .byte   W92
 .byte   W03
 .byte   EOT
 .byte   W01
@ 042   ----------------------------------------
 .byte   TIE
 .byte   W96
@ 043   ----------------------------------------
 .byte   W92
 .byte   W03
 .byte   EOT
 .byte   W01
@ 044   ----------------------------------------
 .byte   TIE ,Gn3
 .byte   W96
@ 045   ----------------------------------------
 .byte   W92
 .byte   W03
 .byte   EOT
 .byte   W01
@ 046   ----------------------------------------
 .byte   N92 ,En3
 .byte   W96
@ 047   ----------------------------------------
 .byte   Gn3
 .byte   W96
@ 048   ----------------------------------------
 .byte   TIE ,En3
 .byte   W96
@ 049   ----------------------------------------
 .byte   W92
 .byte   W03
 .byte   EOT
 .byte   W01
@ 050   ----------------------------------------
 .byte   TIE
 .byte   W96
@ 051   ----------------------------------------
 .byte   W92
 .byte   W03
 .byte   EOT
 .byte   W01
@ 052   ----------------------------------------
 .byte   TIE
 .byte   W96
@ 053   ----------------------------------------
 .byte   W92
 .byte   W03
 .byte   EOT
 .byte   W01
@ 054   ----------------------------------------
 .byte   TIE
 .byte   W96
@ 055   ----------------------------------------
 .byte   W92
 .byte   W03
 .byte   EOT
 .byte   W01
@ 056   ----------------------------------------
 .byte   TIE
 .byte   W96
@ 057   ----------------------------------------
 .byte   W92
 .byte   W03
 .byte   EOT
 .byte   W01
@ 058   ----------------------------------------
 .byte   TIE
 .byte   W96
@ 059   ----------------------------------------
 .byte   W92
 .byte   W03
 .byte   EOT
 .byte   W01
@ 060   ----------------------------------------
 .byte   TIE ,Gn3
 .byte   W96
@ 061   ----------------------------------------
 .byte   W92
 .byte   W03
 .byte   EOT
 .byte   W01
@ 062   ----------------------------------------
 .byte   N92 ,En3
 .byte   W96
@ 063   ----------------------------------------
 .byte   Gn3
 .byte   W96
@ 064   ----------------------------------------
 .byte   W96
@ 065   ----------------------------------------
 .byte   W96
@ 066   ----------------------------------------
 .byte   W96
@ 067   ----------------------------------------
 .byte   W96
@ 068   ----------------------------------------
 .byte   W96
@ 069   ----------------------------------------
 .byte   W96
@ 070   ----------------------------------------
 .byte   W96
@ 071   ----------------------------------------
 .byte   W96
@ 072   ----------------------------------------
 .byte   TIE
 .byte   W96
@ 073   ----------------------------------------
 .byte   W92
 .byte   W03
 .byte   EOT
 .byte   W01
@ 074   ----------------------------------------
 .byte   TIE ,Fs3
 .byte   W96
@ 075   ----------------------------------------
 .byte   W92
 .byte   W03
 .byte   EOT
 .byte   W01
@ 076   ----------------------------------------
 .byte   TIE ,Gn3
 .byte   W96
@ 077   ----------------------------------------
 .byte   W92
 .byte   W03
 .byte   EOT
 .byte   W01
@ 078   ----------------------------------------
 .byte   N92 ,Fs3
 .byte   W96
@ 079   ----------------------------------------
 .byte   Gn3
 .byte   W96
@ 080   ----------------------------------------
 .byte   TIE ,Fs3
 .byte   W96
@ 081   ----------------------------------------
 .byte   W92
 .byte   W03
 .byte   EOT
 .byte   W01
@ 082   ----------------------------------------
 .byte   PATT
  .word Label_8_01487084
@ 083   ----------------------------------------
 .byte   PATT
  .word Label_8_01487084
@ 084   ----------------------------------------
 .byte   TIE ,Gn3 ,v096
 .byte   W96
@ 085   ----------------------------------------
 .byte   W92
 .byte   W03
 .byte   EOT
 .byte   W01
@ 086   ----------------------------------------
 .byte   TIE ,Fs3
 .byte   W96
@ 087   ----------------------------------------
 .byte   W92
 .byte   W03
 .byte   EOT
 .byte   W01
@ 088   ----------------------------------------
 .byte   TIE ,Gn3
 .byte   W96
@ 089   ----------------------------------------
 .byte   W92
 .byte   W03
 .byte   EOT
 .byte   W01
@ 090   ----------------------------------------
 .byte   N92 ,Fs3
 .byte   W96
@ 091   ----------------------------------------
 .byte   Gn3
 .byte   W96
@ 092   ----------------------------------------
 .byte   TIE ,Fs3
 .byte   W96
@ 093   ----------------------------------------
 .byte   W92
 .byte   W03
 .byte   EOT
 .byte   W01
@ 094   ----------------------------------------
 .byte   PATT
  .word Label_8_01487084
@ 095   ----------------------------------------
 .byte   PATT
  .word Label_8_01487084
@ 096   ----------------------------------------
 .byte   TIE ,En3 ,v096
 .byte   W96
@ 097   ----------------------------------------
 .byte   W92
 .byte   W03
 .byte   EOT
 .byte   W01
@ 098   ----------------------------------------
 .byte   TIE
 .byte   W96
@ 099   ----------------------------------------
 .byte   W92
 .byte   W03
 .byte   EOT
 .byte   W01
@ 100   ----------------------------------------
 .byte   TIE
 .byte   W96
@ 101   ----------------------------------------
 .byte   W92
 .byte   W03
 .byte   EOT
 .byte   W01
@ 102   ----------------------------------------
 .byte   TIE
 .byte   W96
@ 103   ----------------------------------------
 .byte   W92
 .byte   W03
 .byte   EOT
 .byte   W01
@ 104   ----------------------------------------
 .byte   TIE
 .byte   W96
@ 105   ----------------------------------------
 .byte   W92
 .byte   W03
 .byte   EOT
 .byte   W01
@ 106   ----------------------------------------
 .byte   TIE
 .byte   W96
@ 107   ----------------------------------------
 .byte   W92
 .byte   W03
 .byte   EOT
 .byte   W01
@ 108   ----------------------------------------
 .byte   TIE ,Gn3
 .byte   W96
@ 109   ----------------------------------------
 .byte   W92
 .byte   W03
 .byte   EOT
 .byte   W01
@ 110   ----------------------------------------
 .byte   N92 ,En3
 .byte   W96
@ 111   ----------------------------------------
 .byte   Gn3
 .byte   W96
@ 112   ----------------------------------------
 .byte   TIE ,En3
 .byte   W96
@ 113   ----------------------------------------
 .byte   W92
 .byte   W03
 .byte   EOT
 .byte   W01
@ 114   ----------------------------------------
 .byte   TIE
 .byte   W96
@ 115   ----------------------------------------
 .byte   W92
 .byte   W03
 .byte   EOT
 .byte   W01
@ 116   ----------------------------------------
 .byte   TIE
 .byte   W96
@ 117   ----------------------------------------
 .byte   W92
 .byte   W03
 .byte   EOT
 .byte   W01
@ 118   ----------------------------------------
 .byte   TIE
 .byte   W96
@ 119   ----------------------------------------
 .byte   W92
 .byte   W03
 .byte   EOT
 .byte   W01
@ 120   ----------------------------------------
 .byte   TIE
 .byte   W96
@ 121   ----------------------------------------
 .byte   W92
 .byte   W03
 .byte   EOT
 .byte   W01
@ 122   ----------------------------------------
 .byte   TIE
 .byte   W96
@ 123   ----------------------------------------
 .byte   W92
 .byte   W03
 .byte   EOT
 .byte   W01
@ 124   ----------------------------------------
 .byte   TIE ,Gn3
 .byte   W96
@ 125   ----------------------------------------
 .byte   W92
 .byte   W03
 .byte   EOT
 .byte   W01
@ 126   ----------------------------------------
 .byte   N92 ,En3
 .byte   W96
@ 127   ----------------------------------------
 .byte   Gn3
 .byte   W92
 .byte   W03
 .byte   GOTO
  .word Label_8_01487054
 .byte   FINE

@**************** Track 10 (Midi-Chn.9) ****************@

song5F_010:
@ 000   ----------------------------------------
 .byte   KEYSH , song5F_key+0
Label_9_014871E9:
 .byte   VOICE , 68
 .byte   VOL , 26*song5F_mvl/mxv
 .byte   PAN , c_v+0
 .byte   W96
@ 001   ----------------------------------------
 .byte   W96
@ 002   ----------------------------------------
 .byte   W96
@ 003   ----------------------------------------
 .byte   W96
@ 004   ----------------------------------------
 .byte   W96
@ 005   ----------------------------------------
 .byte   W96
@ 006   ----------------------------------------
 .byte   W96
@ 007   ----------------------------------------
 .byte   W96
@ 008   ----------------------------------------
 .byte   TIE ,En3 ,v096
 .byte   W96
@ 009   ----------------------------------------
 .byte   W92
 .byte   W03
 .byte   EOT
 .byte   W01
@ 010   ----------------------------------------
 .byte   TIE ,Dn3
 .byte   W96
@ 011   ----------------------------------------
 .byte   W92
 .byte   W03
 .byte   EOT
 .byte   W01
@ 012   ----------------------------------------
 .byte   TIE ,En3
 .byte   W96
@ 013   ----------------------------------------
 .byte   W92
 .byte   W03
 .byte   EOT
 .byte   W01
@ 014   ----------------------------------------
 .byte   N92 ,Dn3
 .byte   W96
@ 015   ----------------------------------------
 .byte   En3
 .byte   W96
@ 016   ----------------------------------------
 .byte   TIE ,Ds3
 .byte   W96
@ 017   ----------------------------------------
 .byte   W92
 .byte   W03
 .byte   EOT
 .byte   W01
@ 018   ----------------------------------------
Label_9_01487219:
 .byte   N44 ,Ds3 ,v096
 .byte   W48
 .byte   N44
 .byte   W48
 .byte   PEND 
@ 019   ----------------------------------------
 .byte   PATT
  .word Label_9_01487219
@ 020   ----------------------------------------
 .byte   TIE ,En3 ,v096
 .byte   W96
@ 021   ----------------------------------------
 .byte   W92
 .byte   W03
 .byte   EOT
 .byte   W01
@ 022   ----------------------------------------
 .byte   TIE ,Dn3
 .byte   W96
@ 023   ----------------------------------------
 .byte   W92
 .byte   W03
 .byte   EOT
 .byte   W01
@ 024   ----------------------------------------
 .byte   TIE ,En3
 .byte   W96
@ 025   ----------------------------------------
 .byte   W92
 .byte   W03
 .byte   EOT
 .byte   W01
@ 026   ----------------------------------------
 .byte   N92 ,Dn3
 .byte   W96
@ 027   ----------------------------------------
 .byte   En3
 .byte   W96
@ 028   ----------------------------------------
 .byte   TIE ,Ds3
 .byte   W96
@ 029   ----------------------------------------
 .byte   W92
 .byte   W03
 .byte   EOT
 .byte   W01
@ 030   ----------------------------------------
 .byte   PATT
  .word Label_9_01487219
@ 031   ----------------------------------------
 .byte   PATT
  .word Label_9_01487219
@ 032   ----------------------------------------
Label_9_01487251:
 .byte   PAN , c_v-64
 .byte   TIE ,Cn3 ,v096
 .byte   W96
 .byte   PEND 
@ 033   ----------------------------------------
 .byte   W92
 .byte   W03
 .byte   EOT
 .byte   W01
@ 034   ----------------------------------------
 .byte   TIE ,Bn2
 .byte   W96
@ 035   ----------------------------------------
 .byte   W92
 .byte   W03
 .byte   EOT
 .byte   W01
@ 036   ----------------------------------------
 .byte   TIE ,Cn3
 .byte   W96
@ 037   ----------------------------------------
 .byte   W92
 .byte   W03
 .byte   EOT
 .byte   W01
@ 038   ----------------------------------------
 .byte   TIE ,Bn2
 .byte   W96
@ 039   ----------------------------------------
 .byte   W92
 .byte   W03
 .byte   EOT
 .byte   W01
@ 040   ----------------------------------------
 .byte   TIE ,Cn3
 .byte   W96
@ 041   ----------------------------------------
 .byte   W92
 .byte   W03
 .byte   EOT
 .byte   W01
@ 042   ----------------------------------------
 .byte   TIE ,Bn2
 .byte   W96
@ 043   ----------------------------------------
 .byte   W92
 .byte   W03
 .byte   EOT
 .byte   W01
@ 044   ----------------------------------------
 .byte   TIE ,Dn3
 .byte   W96
@ 045   ----------------------------------------
 .byte   W92
 .byte   W03
 .byte   EOT
 .byte   W01
@ 046   ----------------------------------------
 .byte   N92 ,Bn2
 .byte   W96
@ 047   ----------------------------------------
 .byte   Dn3
 .byte   W96
@ 048   ----------------------------------------
 .byte   TIE ,Cn3
 .byte   W96
@ 049   ----------------------------------------
 .byte   W92
 .byte   W03
 .byte   EOT
 .byte   W01
@ 050   ----------------------------------------
 .byte   TIE ,Bn2
 .byte   W96
@ 051   ----------------------------------------
 .byte   W92
 .byte   W03
 .byte   EOT
 .byte   W01
@ 052   ----------------------------------------
 .byte   TIE ,Cn3
 .byte   W96
@ 053   ----------------------------------------
 .byte   W92
 .byte   W03
 .byte   EOT
 .byte   W01
@ 054   ----------------------------------------
 .byte   TIE ,Bn2
 .byte   W96
@ 055   ----------------------------------------
 .byte   W92
 .byte   W03
 .byte   EOT
 .byte   W01
@ 056   ----------------------------------------
 .byte   TIE ,Cn3
 .byte   W96
@ 057   ----------------------------------------
 .byte   W92
 .byte   W03
 .byte   EOT
 .byte   W01
@ 058   ----------------------------------------
 .byte   TIE ,Bn2
 .byte   W96
@ 059   ----------------------------------------
 .byte   W92
 .byte   W03
 .byte   EOT
 .byte   W01
@ 060   ----------------------------------------
 .byte   TIE ,Dn3
 .byte   W96
@ 061   ----------------------------------------
 .byte   W92
 .byte   W03
 .byte   EOT
 .byte   W01
@ 062   ----------------------------------------
 .byte   N92 ,Bn2
 .byte   W96
@ 063   ----------------------------------------
 .byte   Dn3
 .byte   W96
@ 064   ----------------------------------------
 .byte   PAN , c_v-1
 .byte   W96
@ 065   ----------------------------------------
 .byte   W96
@ 066   ----------------------------------------
 .byte   W96
@ 067   ----------------------------------------
 .byte   W96
@ 068   ----------------------------------------
 .byte   W96
@ 069   ----------------------------------------
 .byte   W96
@ 070   ----------------------------------------
 .byte   W96
@ 071   ----------------------------------------
 .byte   W96
@ 072   ----------------------------------------
 .byte   TIE ,En3
 .byte   W96
@ 073   ----------------------------------------
 .byte   W92
 .byte   W03
 .byte   EOT
 .byte   W01
@ 074   ----------------------------------------
 .byte   TIE ,Dn3
 .byte   W96
@ 075   ----------------------------------------
 .byte   W92
 .byte   W03
 .byte   EOT
 .byte   W01
@ 076   ----------------------------------------
 .byte   TIE ,En3
 .byte   W96
@ 077   ----------------------------------------
 .byte   W92
 .byte   W03
 .byte   EOT
 .byte   W01
@ 078   ----------------------------------------
 .byte   N92 ,Dn3
 .byte   W96
@ 079   ----------------------------------------
 .byte   En3
 .byte   W96
@ 080   ----------------------------------------
 .byte   TIE ,Ds3
 .byte   W96
@ 081   ----------------------------------------
 .byte   W92
 .byte   W03
 .byte   EOT
 .byte   W01
@ 082   ----------------------------------------
 .byte   PATT
  .word Label_9_01487219
@ 083   ----------------------------------------
 .byte   PATT
  .word Label_9_01487219
@ 084   ----------------------------------------
 .byte   TIE ,En3 ,v096
 .byte   W96
@ 085   ----------------------------------------
 .byte   W92
 .byte   W03
 .byte   EOT
 .byte   W01
@ 086   ----------------------------------------
 .byte   TIE ,Dn3
 .byte   W96
@ 087   ----------------------------------------
 .byte   W92
 .byte   W03
 .byte   EOT
 .byte   W01
@ 088   ----------------------------------------
 .byte   TIE ,En3
 .byte   W96
@ 089   ----------------------------------------
 .byte   W92
 .byte   W03
 .byte   EOT
 .byte   W01
@ 090   ----------------------------------------
 .byte   N92 ,Dn3
 .byte   W96
@ 091   ----------------------------------------
 .byte   En3
 .byte   W96
@ 092   ----------------------------------------
 .byte   TIE ,Ds3
 .byte   W96
@ 093   ----------------------------------------
 .byte   W92
 .byte   W03
 .byte   EOT
 .byte   W01
@ 094   ----------------------------------------
 .byte   PATT
  .word Label_9_01487219
@ 095   ----------------------------------------
 .byte   PATT
  .word Label_9_01487219
@ 096   ----------------------------------------
 .byte   PATT
  .word Label_9_01487251
@ 097   ----------------------------------------
 .byte   W92
 .byte   W03
 .byte   EOT
 .byte   Cn3
 .byte   W01
@ 098   ----------------------------------------
 .byte   TIE ,Bn2 ,v096
 .byte   W96
@ 099   ----------------------------------------
 .byte   W92
 .byte   W03
 .byte   EOT
 .byte   W01
@ 100   ----------------------------------------
 .byte   TIE ,Cn3
 .byte   W96
@ 101   ----------------------------------------
 .byte   W92
 .byte   W03
 .byte   EOT
 .byte   W01
@ 102   ----------------------------------------
 .byte   TIE ,Bn2
 .byte   W96
@ 103   ----------------------------------------
 .byte   W92
 .byte   W03
 .byte   EOT
 .byte   W01
@ 104   ----------------------------------------
 .byte   TIE ,Cn3
 .byte   W96
@ 105   ----------------------------------------
 .byte   W92
 .byte   W03
 .byte   EOT
 .byte   W01
@ 106   ----------------------------------------
 .byte   TIE ,Bn2
 .byte   W96
@ 107   ----------------------------------------
 .byte   W92
 .byte   W03
 .byte   EOT
 .byte   W01
@ 108   ----------------------------------------
 .byte   TIE ,Dn3
 .byte   W96
@ 109   ----------------------------------------
 .byte   W92
 .byte   W03
 .byte   EOT
 .byte   W01
@ 110   ----------------------------------------
 .byte   N92 ,Bn2
 .byte   W96
@ 111   ----------------------------------------
 .byte   Dn3
 .byte   W96
@ 112   ----------------------------------------
 .byte   TIE ,Cn3
 .byte   W96
@ 113   ----------------------------------------
 .byte   W92
 .byte   W03
 .byte   EOT
 .byte   W01
@ 114   ----------------------------------------
 .byte   TIE ,Bn2
 .byte   W96
@ 115   ----------------------------------------
 .byte   W92
 .byte   W03
 .byte   EOT
 .byte   W01
@ 116   ----------------------------------------
 .byte   TIE ,Cn3
 .byte   W96
@ 117   ----------------------------------------
 .byte   W92
 .byte   W03
 .byte   EOT
 .byte   W01
@ 118   ----------------------------------------
 .byte   TIE ,Bn2
 .byte   W96
@ 119   ----------------------------------------
 .byte   W92
 .byte   W03
 .byte   EOT
 .byte   W01
@ 120   ----------------------------------------
 .byte   TIE ,Cn3
 .byte   W96
@ 121   ----------------------------------------
 .byte   W92
 .byte   W03
 .byte   EOT
 .byte   W01
@ 122   ----------------------------------------
 .byte   TIE ,Bn2
 .byte   W96
@ 123   ----------------------------------------
 .byte   W92
 .byte   W03
 .byte   EOT
 .byte   W01
@ 124   ----------------------------------------
 .byte   TIE ,Dn3
 .byte   W96
@ 125   ----------------------------------------
 .byte   W92
 .byte   W03
 .byte   EOT
 .byte   W01
@ 126   ----------------------------------------
 .byte   N92 ,Bn2
 .byte   W96
@ 127   ----------------------------------------
 .byte   Dn3
 .byte   W92
 .byte   W03
 .byte   GOTO
  .word Label_9_014871E9
 .byte   FINE

@**************** Track 11 (Midi-Chn.10) ****************@

song5F_011:
@ 000   ----------------------------------------
 .byte   KEYSH , song5F_key+0
Label_10_0148739B:
 .byte   VOICE , 68
 .byte   VOL , 26*song5F_mvl/mxv
 .byte   PAN , c_v-64
 .byte   W96
@ 001   ----------------------------------------
 .byte   W96
@ 002   ----------------------------------------
 .byte   W96
@ 003   ----------------------------------------
 .byte   W96
@ 004   ----------------------------------------
 .byte   W96
@ 005   ----------------------------------------
 .byte   W96
@ 006   ----------------------------------------
 .byte   W96
@ 007   ----------------------------------------
 .byte   W96
@ 008   ----------------------------------------
 .byte   TIE ,En1 ,v096
 .byte   W96
@ 009   ----------------------------------------
 .byte   W92
 .byte   W03
 .byte   EOT
 .byte   W01
@ 010   ----------------------------------------
 .byte   TIE ,Dn1
 .byte   W96
@ 011   ----------------------------------------
 .byte   W92
 .byte   W03
 .byte   EOT
 .byte   W01
@ 012   ----------------------------------------
 .byte   TIE ,En1
 .byte   W96
@ 013   ----------------------------------------
 .byte   W92
 .byte   W03
 .byte   EOT
 .byte   W01
@ 014   ----------------------------------------
 .byte   N92 ,Dn1
 .byte   W96
@ 015   ----------------------------------------
 .byte   Cn2
 .byte   W96
@ 016   ----------------------------------------
 .byte   TIE ,Bn1
 .byte   W96
@ 017   ----------------------------------------
 .byte   W92
 .byte   W03
 .byte   EOT
 .byte   W01
@ 018   ----------------------------------------
Label_10_014873CB:
 .byte   N11 ,Bn1 ,v096
 .byte   W24
 .byte   N11
 .byte   W12
 .byte   N11
 .byte   W12
 .byte   N11
 .byte   W24
 .byte   N11
 .byte   W12
 .byte   N11
 .byte   W12
 .byte   PEND 
@ 019   ----------------------------------------
 .byte   PATT
  .word Label_10_014873CB
@ 020   ----------------------------------------
 .byte   TIE ,En1 ,v096
 .byte   W96
@ 021   ----------------------------------------
 .byte   W92
 .byte   W03
 .byte   EOT
 .byte   W01
@ 022   ----------------------------------------
 .byte   TIE ,Dn1
 .byte   W96
@ 023   ----------------------------------------
 .byte   W92
 .byte   W03
 .byte   EOT
 .byte   W01
@ 024   ----------------------------------------
 .byte   TIE ,En1
 .byte   W96
@ 025   ----------------------------------------
 .byte   W92
 .byte   W03
 .byte   EOT
 .byte   W01
@ 026   ----------------------------------------
 .byte   N92 ,Dn1
 .byte   W96
@ 027   ----------------------------------------
 .byte   Cn2
 .byte   W96
@ 028   ----------------------------------------
 .byte   TIE ,Bn1
 .byte   W96
@ 029   ----------------------------------------
 .byte   W92
 .byte   W03
 .byte   EOT
 .byte   W01
@ 030   ----------------------------------------
 .byte   PATT
  .word Label_10_014873CB
@ 031   ----------------------------------------
 .byte   PATT
  .word Label_10_014873CB
@ 032   ----------------------------------------
 .byte   W96
@ 033   ----------------------------------------
 .byte   W96
@ 034   ----------------------------------------
 .byte   W96
@ 035   ----------------------------------------
 .byte   W96
@ 036   ----------------------------------------
 .byte   W96
@ 037   ----------------------------------------
 .byte   W96
@ 038   ----------------------------------------
 .byte   W96
@ 039   ----------------------------------------
 .byte   W96
@ 040   ----------------------------------------
 .byte   W96
@ 041   ----------------------------------------
 .byte   W96
@ 042   ----------------------------------------
 .byte   W96
@ 043   ----------------------------------------
 .byte   W96
@ 044   ----------------------------------------
 .byte   W96
@ 045   ----------------------------------------
 .byte   W96
@ 046   ----------------------------------------
 .byte   W96
@ 047   ----------------------------------------
 .byte   W96
@ 048   ----------------------------------------
 .byte   W96
@ 049   ----------------------------------------
 .byte   W96
@ 050   ----------------------------------------
 .byte   W96
@ 051   ----------------------------------------
 .byte   W96
@ 052   ----------------------------------------
 .byte   W96
@ 053   ----------------------------------------
 .byte   W96
@ 054   ----------------------------------------
 .byte   W96
@ 055   ----------------------------------------
 .byte   W96
@ 056   ----------------------------------------
 .byte   W96
@ 057   ----------------------------------------
 .byte   W96
@ 058   ----------------------------------------
 .byte   W96
@ 059   ----------------------------------------
 .byte   W96
@ 060   ----------------------------------------
 .byte   W96
@ 061   ----------------------------------------
 .byte   W96
@ 062   ----------------------------------------
 .byte   W96
@ 063   ----------------------------------------
 .byte   W96
@ 064   ----------------------------------------
 .byte   W96
@ 065   ----------------------------------------
 .byte   W96
@ 066   ----------------------------------------
 .byte   W96
@ 067   ----------------------------------------
 .byte   W96
@ 068   ----------------------------------------
 .byte   W96
@ 069   ----------------------------------------
 .byte   W96
@ 070   ----------------------------------------
 .byte   W96
@ 071   ----------------------------------------
 .byte   W96
@ 072   ----------------------------------------
 .byte   TIE ,En1 ,v096
 .byte   W96
@ 073   ----------------------------------------
 .byte   W92
 .byte   W03
 .byte   EOT
 .byte   W01
@ 074   ----------------------------------------
 .byte   TIE ,Dn1
 .byte   W96
@ 075   ----------------------------------------
 .byte   W92
 .byte   W03
 .byte   EOT
 .byte   W01
@ 076   ----------------------------------------
 .byte   TIE ,En1
 .byte   W96
@ 077   ----------------------------------------
 .byte   W92
 .byte   W03
 .byte   EOT
 .byte   W01
@ 078   ----------------------------------------
 .byte   N92 ,Dn1
 .byte   W96
@ 079   ----------------------------------------
 .byte   Cn2
 .byte   W96
@ 080   ----------------------------------------
 .byte   TIE ,Bn1
 .byte   W96
@ 081   ----------------------------------------
 .byte   W92
 .byte   W03
 .byte   EOT
 .byte   W01
@ 082   ----------------------------------------
 .byte   PATT
  .word Label_10_014873CB
@ 083   ----------------------------------------
 .byte   PATT
  .word Label_10_014873CB
@ 084   ----------------------------------------
 .byte   TIE ,En1 ,v096
 .byte   W96
@ 085   ----------------------------------------
 .byte   W92
 .byte   W03
 .byte   EOT
 .byte   W01
@ 086   ----------------------------------------
 .byte   TIE ,Dn1
 .byte   W96
@ 087   ----------------------------------------
 .byte   W92
 .byte   W03
 .byte   EOT
 .byte   W01
@ 088   ----------------------------------------
 .byte   TIE ,En1
 .byte   W96
@ 089   ----------------------------------------
 .byte   W92
 .byte   W03
 .byte   EOT
 .byte   W01
@ 090   ----------------------------------------
 .byte   N92 ,Dn1
 .byte   W96
@ 091   ----------------------------------------
 .byte   Cn2
 .byte   W96
@ 092   ----------------------------------------
 .byte   TIE ,Bn1
 .byte   W96
@ 093   ----------------------------------------
 .byte   W92
 .byte   W03
 .byte   EOT
 .byte   W01
@ 094   ----------------------------------------
 .byte   PATT
  .word Label_10_014873CB
@ 095   ----------------------------------------
 .byte   PATT
  .word Label_10_014873CB
@ 096   ----------------------------------------
 .byte   W96
@ 097   ----------------------------------------
 .byte   W96
@ 098   ----------------------------------------
 .byte   W96
@ 099   ----------------------------------------
 .byte   W96
@ 100   ----------------------------------------
 .byte   W96
@ 101   ----------------------------------------
 .byte   W96
@ 102   ----------------------------------------
 .byte   W96
@ 103   ----------------------------------------
 .byte   W96
@ 104   ----------------------------------------
 .byte   W96
@ 105   ----------------------------------------
 .byte   W96
@ 106   ----------------------------------------
 .byte   W96
@ 107   ----------------------------------------
 .byte   W96
@ 108   ----------------------------------------
 .byte   W96
@ 109   ----------------------------------------
 .byte   W96
@ 110   ----------------------------------------
 .byte   W96
@ 111   ----------------------------------------
 .byte   W96
@ 112   ----------------------------------------
 .byte   W96
@ 113   ----------------------------------------
 .byte   W96
@ 114   ----------------------------------------
 .byte   W96
@ 115   ----------------------------------------
 .byte   W96
@ 116   ----------------------------------------
 .byte   W96
@ 117   ----------------------------------------
 .byte   W96
@ 118   ----------------------------------------
 .byte   W96
@ 119   ----------------------------------------
 .byte   W96
@ 120   ----------------------------------------
 .byte   W96
@ 121   ----------------------------------------
 .byte   W96
@ 122   ----------------------------------------
 .byte   W96
@ 123   ----------------------------------------
 .byte   W96
@ 124   ----------------------------------------
 .byte   W96
@ 125   ----------------------------------------
 .byte   W96
@ 126   ----------------------------------------
 .byte   W96
@ 127   ----------------------------------------
 .byte   W92
 .byte   W03
 .byte   GOTO
  .word Label_10_0148739B
 .byte   FINE

@**************** Track 12 (Midi-Chn.11) ****************@

song5F_012:
@ 000   ----------------------------------------
 .byte   KEYSH , song5F_key+0
Label_11_014874B4:
 .byte   VOICE , 85
 .byte   VOL , 26*song5F_mvl/mxv
 .byte   PAN , c_v+0
 .byte   W96
@ 001   ----------------------------------------
 .byte   W96
@ 002   ----------------------------------------
 .byte   W96
@ 003   ----------------------------------------
 .byte   W96
@ 004   ----------------------------------------
 .byte   W96
@ 005   ----------------------------------------
 .byte   W96
@ 006   ----------------------------------------
 .byte   W96
@ 007   ----------------------------------------
 .byte   W96
@ 008   ----------------------------------------
 .byte   W96
@ 009   ----------------------------------------
 .byte   W96
@ 010   ----------------------------------------
 .byte   W96
@ 011   ----------------------------------------
 .byte   W96
@ 012   ----------------------------------------
 .byte   W96
@ 013   ----------------------------------------
 .byte   W96
@ 014   ----------------------------------------
 .byte   W96
@ 015   ----------------------------------------
 .byte   W96
@ 016   ----------------------------------------
 .byte   W96
@ 017   ----------------------------------------
 .byte   W96
@ 018   ----------------------------------------
Label_11_014874CC:
 .byte   W24
 .byte   N11 ,Dn3 ,v127
 .byte   W12
 .byte   En3
 .byte   W12
 .byte   Fs3
 .byte   W12
 .byte   Gn3
 .byte   W24
 .byte   N11
 .byte   W12
 .byte   PEND 
@ 019   ----------------------------------------
Label_11_014874DA:
 .byte   W12
 .byte   N11 ,Gn3 ,v127
 .byte   W24
 .byte   Fs3
 .byte   W12
 .byte   N23 ,Gn3
 .byte   W24
 .byte   N11 ,An3
 .byte   W24
 .byte   PEND 
@ 020   ----------------------------------------
 .byte   W96
@ 021   ----------------------------------------
 .byte   W96
@ 022   ----------------------------------------
 .byte   W96
@ 023   ----------------------------------------
 .byte   W96
@ 024   ----------------------------------------
 .byte   W96
@ 025   ----------------------------------------
 .byte   W96
@ 026   ----------------------------------------
 .byte   W96
@ 027   ----------------------------------------
 .byte   W96
@ 028   ----------------------------------------
 .byte   W96
@ 029   ----------------------------------------
 .byte   W96
@ 030   ----------------------------------------
 .byte   PATT
  .word Label_11_014874CC
@ 031   ----------------------------------------
 .byte   PATT
  .word Label_11_014874DA
@ 032   ----------------------------------------
 .byte   W96
@ 033   ----------------------------------------
 .byte   W96
@ 034   ----------------------------------------
 .byte   W96
@ 035   ----------------------------------------
 .byte   W96
@ 036   ----------------------------------------
 .byte   W96
@ 037   ----------------------------------------
 .byte   W96
@ 038   ----------------------------------------
 .byte   W96
@ 039   ----------------------------------------
 .byte   W96
@ 040   ----------------------------------------
 .byte   W96
@ 041   ----------------------------------------
 .byte   W96
@ 042   ----------------------------------------
 .byte   W96
@ 043   ----------------------------------------
 .byte   W96
@ 044   ----------------------------------------
 .byte   W96
@ 045   ----------------------------------------
 .byte   W96
@ 046   ----------------------------------------
 .byte   W96
@ 047   ----------------------------------------
 .byte   W96
@ 048   ----------------------------------------
 .byte   W96
@ 049   ----------------------------------------
 .byte   W96
@ 050   ----------------------------------------
 .byte   W96
@ 051   ----------------------------------------
 .byte   W96
@ 052   ----------------------------------------
 .byte   W96
@ 053   ----------------------------------------
 .byte   W96
@ 054   ----------------------------------------
 .byte   W96
@ 055   ----------------------------------------
 .byte   W96
@ 056   ----------------------------------------
 .byte   W96
@ 057   ----------------------------------------
 .byte   W96
@ 058   ----------------------------------------
 .byte   W96
@ 059   ----------------------------------------
 .byte   W96
@ 060   ----------------------------------------
 .byte   W96
@ 061   ----------------------------------------
 .byte   W96
@ 062   ----------------------------------------
 .byte   W96
@ 063   ----------------------------------------
 .byte   W96
@ 064   ----------------------------------------
 .byte   W96
@ 065   ----------------------------------------
 .byte   W96
@ 066   ----------------------------------------
 .byte   W96
@ 067   ----------------------------------------
 .byte   W96
@ 068   ----------------------------------------
 .byte   W96
@ 069   ----------------------------------------
 .byte   W96
@ 070   ----------------------------------------
 .byte   W96
@ 071   ----------------------------------------
 .byte   W96
@ 072   ----------------------------------------
 .byte   W96
@ 073   ----------------------------------------
 .byte   W96
@ 074   ----------------------------------------
 .byte   W96
@ 075   ----------------------------------------
 .byte   W96
@ 076   ----------------------------------------
 .byte   W96
@ 077   ----------------------------------------
 .byte   W96
@ 078   ----------------------------------------
 .byte   W96
@ 079   ----------------------------------------
 .byte   W96
@ 080   ----------------------------------------
 .byte   W96
@ 081   ----------------------------------------
 .byte   W96
@ 082   ----------------------------------------
 .byte   PATT
  .word Label_11_014874CC
@ 083   ----------------------------------------
 .byte   PATT
  .word Label_11_014874DA
@ 084   ----------------------------------------
 .byte   W96
@ 085   ----------------------------------------
 .byte   W96
@ 086   ----------------------------------------
 .byte   W96
@ 087   ----------------------------------------
 .byte   W96
@ 088   ----------------------------------------
 .byte   W96
@ 089   ----------------------------------------
 .byte   W96
@ 090   ----------------------------------------
 .byte   W96
@ 091   ----------------------------------------
 .byte   W96
@ 092   ----------------------------------------
 .byte   W96
@ 093   ----------------------------------------
 .byte   W96
@ 094   ----------------------------------------
 .byte   PATT
  .word Label_11_014874CC
@ 095   ----------------------------------------
 .byte   PATT
  .word Label_11_014874DA
@ 096   ----------------------------------------
 .byte   W96
@ 097   ----------------------------------------
 .byte   W96
@ 098   ----------------------------------------
 .byte   W96
@ 099   ----------------------------------------
 .byte   W96
@ 100   ----------------------------------------
 .byte   W96
@ 101   ----------------------------------------
 .byte   W96
@ 102   ----------------------------------------
 .byte   W96
@ 103   ----------------------------------------
 .byte   W96
@ 104   ----------------------------------------
 .byte   W96
@ 105   ----------------------------------------
 .byte   W96
@ 106   ----------------------------------------
 .byte   W96
@ 107   ----------------------------------------
 .byte   W96
@ 108   ----------------------------------------
 .byte   W96
@ 109   ----------------------------------------
 .byte   W96
@ 110   ----------------------------------------
 .byte   W96
@ 111   ----------------------------------------
 .byte   W96
@ 112   ----------------------------------------
 .byte   W96
@ 113   ----------------------------------------
 .byte   W96
@ 114   ----------------------------------------
 .byte   W96
@ 115   ----------------------------------------
 .byte   W96
@ 116   ----------------------------------------
 .byte   W96
@ 117   ----------------------------------------
 .byte   W96
@ 118   ----------------------------------------
 .byte   W96
@ 119   ----------------------------------------
 .byte   W96
@ 120   ----------------------------------------
 .byte   W96
@ 121   ----------------------------------------
 .byte   W96
@ 122   ----------------------------------------
 .byte   W96
@ 123   ----------------------------------------
 .byte   W96
@ 124   ----------------------------------------
 .byte   W96
@ 125   ----------------------------------------
 .byte   W96
@ 126   ----------------------------------------
 .byte   W96
@ 127   ----------------------------------------
 .byte   W92
 .byte   W03
 .byte   GOTO
  .word Label_11_014874B4
 .byte   FINE

@**************** Track 13 (Midi-Chn.12) ****************@

song5F_013:
@ 000   ----------------------------------------
 .byte   KEYSH , song5F_key+0
Label_12_01487575:
 .byte   VOICE , 124
 .byte   VOL , 21*song5F_mvl/mxv
 .byte   N05 ,Cn1 ,v127
 .byte   W48
 .byte   En1
 .byte   W48
@ 001   ----------------------------------------
Label_12_0148757F:
 .byte   N05 ,Cn1 ,v127
 .byte   W48
 .byte   En1
 .byte   W48
 .byte   PEND 
@ 002   ----------------------------------------
 .byte   PATT
  .word Label_12_0148757F
@ 003   ----------------------------------------
 .byte   PATT
  .word Label_12_0148757F
@ 004   ----------------------------------------
 .byte   PATT
  .word Label_12_0148757F
@ 005   ----------------------------------------
 .byte   PATT
  .word Label_12_0148757F
@ 006   ----------------------------------------
 .byte   PATT
  .word Label_12_0148757F
@ 007   ----------------------------------------
Label_12_0148759F:
 .byte   N05 ,Cn1 ,v127
 .byte   W48
 .byte   En1
 .byte   W12
 .byte   N05
 .byte   W12
 .byte   N05
 .byte   W12
 .byte   N05
 .byte   W12
 .byte   PEND 
@ 008   ----------------------------------------
 .byte   PATT
  .word Label_12_0148757F
@ 009   ----------------------------------------
 .byte   PATT
  .word Label_12_0148757F
@ 010   ----------------------------------------
 .byte   PATT
  .word Label_12_0148757F
@ 011   ----------------------------------------
 .byte   PATT
  .word Label_12_0148757F
@ 012   ----------------------------------------
 .byte   PATT
  .word Label_12_0148757F
@ 013   ----------------------------------------
 .byte   PATT
  .word Label_12_0148757F
@ 014   ----------------------------------------
 .byte   PATT
  .word Label_12_0148757F
@ 015   ----------------------------------------
 .byte   PATT
  .word Label_12_0148757F
@ 016   ----------------------------------------
 .byte   PATT
  .word Label_12_0148757F
@ 017   ----------------------------------------
 .byte   PATT
  .word Label_12_0148757F
@ 018   ----------------------------------------
Label_12_014875DE:
 .byte   N05 ,Cn1 ,v127
 .byte   W12
 .byte   Dn2
 .byte   W12
 .byte   N05
 .byte   W24
 .byte   Cn1
 .byte   W12
 .byte   Dn2
 .byte   W12
 .byte   N05
 .byte   W24
 .byte   PEND 
@ 019   ----------------------------------------
Label_12_014875ED:
 .byte   N05 ,Cn1 ,v127
 .byte   W12
 .byte   Dn2
 .byte   W12
 .byte   N05
 .byte   W12
 .byte   Cn2
 .byte   W12
 .byte   N05
 .byte   W12
 .byte   Bn1
 .byte   W12
 .byte   N05
 .byte   W12
 .byte   An1
 .byte   W12
 .byte   PEND 
@ 020   ----------------------------------------
 .byte   PATT
  .word Label_12_0148757F
@ 021   ----------------------------------------
 .byte   PATT
  .word Label_12_0148757F
@ 022   ----------------------------------------
 .byte   PATT
  .word Label_12_0148757F
@ 023   ----------------------------------------
 .byte   PATT
  .word Label_12_0148757F
@ 024   ----------------------------------------
 .byte   PATT
  .word Label_12_0148757F
@ 025   ----------------------------------------
 .byte   PATT
  .word Label_12_0148757F
@ 026   ----------------------------------------
 .byte   PATT
  .word Label_12_0148757F
@ 027   ----------------------------------------
 .byte   PATT
  .word Label_12_0148757F
@ 028   ----------------------------------------
 .byte   PATT
  .word Label_12_0148757F
@ 029   ----------------------------------------
 .byte   PATT
  .word Label_12_0148757F
@ 030   ----------------------------------------
 .byte   PATT
  .word Label_12_014875DE
@ 031   ----------------------------------------
 .byte   PATT
  .word Label_12_014875ED
@ 032   ----------------------------------------
 .byte   PATT
  .word Label_12_0148757F
@ 033   ----------------------------------------
 .byte   PATT
  .word Label_12_0148757F
@ 034   ----------------------------------------
 .byte   PATT
  .word Label_12_0148757F
@ 035   ----------------------------------------
 .byte   PATT
  .word Label_12_0148757F
@ 036   ----------------------------------------
 .byte   PATT
  .word Label_12_0148757F
@ 037   ----------------------------------------
 .byte   PATT
  .word Label_12_0148757F
@ 038   ----------------------------------------
 .byte   PATT
  .word Label_12_0148757F
@ 039   ----------------------------------------
 .byte   PATT
  .word Label_12_0148757F
@ 040   ----------------------------------------
 .byte   PATT
  .word Label_12_0148757F
@ 041   ----------------------------------------
 .byte   PATT
  .word Label_12_0148757F
@ 042   ----------------------------------------
 .byte   PATT
  .word Label_12_0148757F
@ 043   ----------------------------------------
 .byte   PATT
  .word Label_12_0148757F
@ 044   ----------------------------------------
 .byte   PATT
  .word Label_12_0148757F
@ 045   ----------------------------------------
 .byte   PATT
  .word Label_12_0148757F
@ 046   ----------------------------------------
 .byte   PATT
  .word Label_12_014875DE
@ 047   ----------------------------------------
 .byte   PATT
  .word Label_12_014875ED
@ 048   ----------------------------------------
 .byte   PATT
  .word Label_12_0148757F
@ 049   ----------------------------------------
 .byte   PATT
  .word Label_12_0148757F
@ 050   ----------------------------------------
 .byte   PATT
  .word Label_12_0148757F
@ 051   ----------------------------------------
 .byte   PATT
  .word Label_12_0148757F
@ 052   ----------------------------------------
 .byte   PATT
  .word Label_12_0148757F
@ 053   ----------------------------------------
 .byte   PATT
  .word Label_12_0148757F
@ 054   ----------------------------------------
 .byte   PATT
  .word Label_12_0148757F
@ 055   ----------------------------------------
 .byte   PATT
  .word Label_12_0148757F
@ 056   ----------------------------------------
 .byte   PATT
  .word Label_12_0148757F
@ 057   ----------------------------------------
 .byte   PATT
  .word Label_12_0148757F
@ 058   ----------------------------------------
 .byte   PATT
  .word Label_12_0148757F
@ 059   ----------------------------------------
 .byte   PATT
  .word Label_12_0148757F
@ 060   ----------------------------------------
 .byte   PATT
  .word Label_12_0148757F
@ 061   ----------------------------------------
 .byte   PATT
  .word Label_12_0148757F
@ 062   ----------------------------------------
 .byte   PATT
  .word Label_12_014875DE
@ 063   ----------------------------------------
 .byte   PATT
  .word Label_12_014875ED
@ 064   ----------------------------------------
 .byte   PATT
  .word Label_12_0148757F
@ 065   ----------------------------------------
 .byte   PATT
  .word Label_12_0148757F
@ 066   ----------------------------------------
 .byte   PATT
  .word Label_12_0148757F
@ 067   ----------------------------------------
 .byte   PATT
  .word Label_12_0148757F
@ 068   ----------------------------------------
 .byte   PATT
  .word Label_12_0148757F
@ 069   ----------------------------------------
 .byte   PATT
  .word Label_12_0148757F
@ 070   ----------------------------------------
 .byte   PATT
  .word Label_12_0148757F
@ 071   ----------------------------------------
 .byte   PATT
  .word Label_12_0148759F
@ 072   ----------------------------------------
 .byte   PATT
  .word Label_12_0148757F
@ 073   ----------------------------------------
 .byte   PATT
  .word Label_12_0148757F
@ 074   ----------------------------------------
 .byte   PATT
  .word Label_12_0148757F
@ 075   ----------------------------------------
 .byte   PATT
  .word Label_12_0148757F
@ 076   ----------------------------------------
 .byte   PATT
  .word Label_12_0148757F
@ 077   ----------------------------------------
 .byte   PATT
  .word Label_12_0148757F
@ 078   ----------------------------------------
 .byte   PATT
  .word Label_12_0148757F
@ 079   ----------------------------------------
 .byte   PATT
  .word Label_12_0148757F
@ 080   ----------------------------------------
 .byte   PATT
  .word Label_12_0148757F
@ 081   ----------------------------------------
 .byte   PATT
  .word Label_12_0148757F
@ 082   ----------------------------------------
 .byte   PATT
  .word Label_12_014875DE
@ 083   ----------------------------------------
 .byte   PATT
  .word Label_12_014875ED
@ 084   ----------------------------------------
 .byte   PATT
  .word Label_12_0148757F
@ 085   ----------------------------------------
 .byte   PATT
  .word Label_12_0148757F
@ 086   ----------------------------------------
 .byte   PATT
  .word Label_12_0148757F
@ 087   ----------------------------------------
 .byte   PATT
  .word Label_12_0148757F
@ 088   ----------------------------------------
 .byte   PATT
  .word Label_12_0148757F
@ 089   ----------------------------------------
 .byte   PATT
  .word Label_12_0148757F
@ 090   ----------------------------------------
 .byte   PATT
  .word Label_12_0148757F
@ 091   ----------------------------------------
 .byte   PATT
  .word Label_12_0148757F
@ 092   ----------------------------------------
 .byte   PATT
  .word Label_12_0148757F
@ 093   ----------------------------------------
 .byte   PATT
  .word Label_12_0148757F
@ 094   ----------------------------------------
 .byte   PATT
  .word Label_12_014875DE
@ 095   ----------------------------------------
 .byte   PATT
  .word Label_12_014875ED
@ 096   ----------------------------------------
 .byte   PATT
  .word Label_12_0148757F
@ 097   ----------------------------------------
 .byte   PATT
  .word Label_12_0148757F
@ 098   ----------------------------------------
 .byte   PATT
  .word Label_12_0148757F
@ 099   ----------------------------------------
 .byte   PATT
  .word Label_12_0148757F
@ 100   ----------------------------------------
 .byte   PATT
  .word Label_12_0148757F
@ 101   ----------------------------------------
 .byte   PATT
  .word Label_12_0148757F
@ 102   ----------------------------------------
 .byte   PATT
  .word Label_12_0148757F
@ 103   ----------------------------------------
 .byte   PATT
  .word Label_12_0148757F
@ 104   ----------------------------------------
 .byte   PATT
  .word Label_12_0148757F
@ 105   ----------------------------------------
 .byte   PATT
  .word Label_12_0148757F
@ 106   ----------------------------------------
 .byte   PATT
  .word Label_12_0148757F
@ 107   ----------------------------------------
 .byte   PATT
  .word Label_12_0148757F
@ 108   ----------------------------------------
 .byte   PATT
  .word Label_12_0148757F
@ 109   ----------------------------------------
 .byte   PATT
  .word Label_12_0148757F
@ 110   ----------------------------------------
 .byte   PATT
  .word Label_12_014875DE
@ 111   ----------------------------------------
 .byte   PATT
  .word Label_12_014875ED
@ 112   ----------------------------------------
 .byte   PATT
  .word Label_12_0148757F
@ 113   ----------------------------------------
 .byte   PATT
  .word Label_12_0148757F
@ 114   ----------------------------------------
 .byte   PATT
  .word Label_12_0148757F
@ 115   ----------------------------------------
 .byte   PATT
  .word Label_12_0148757F
@ 116   ----------------------------------------
 .byte   PATT
  .word Label_12_0148757F
@ 117   ----------------------------------------
 .byte   PATT
  .word Label_12_0148757F
@ 118   ----------------------------------------
 .byte   PATT
  .word Label_12_0148757F
@ 119   ----------------------------------------
 .byte   PATT
  .word Label_12_0148757F
@ 120   ----------------------------------------
 .byte   PATT
  .word Label_12_0148757F
@ 121   ----------------------------------------
 .byte   PATT
  .word Label_12_0148757F
@ 122   ----------------------------------------
 .byte   PATT
  .word Label_12_0148757F
@ 123   ----------------------------------------
 .byte   PATT
  .word Label_12_0148757F
@ 124   ----------------------------------------
 .byte   PATT
  .word Label_12_0148757F
@ 125   ----------------------------------------
 .byte   PATT
  .word Label_12_0148757F
@ 126   ----------------------------------------
 .byte   PATT
  .word Label_12_014875DE
@ 127   ----------------------------------------
 .byte   N05 ,Cn1 ,v127
 .byte   W12
 .byte   Dn2
 .byte   W12
 .byte   N05
 .byte   W12
 .byte   Cn2
 .byte   W12
 .byte   N05
 .byte   W12
 .byte   Bn1
 .byte   W12
 .byte   N05
 .byte   W12
 .byte   An1
 .byte   W11
 .byte   GOTO
  .word Label_12_01487575
 .byte   FINE

@******************************************************@
	.align	2

song5F:
	.byte	13	@ NumTrks
	.byte	0	@ NumBlks
	.byte	song5F_pri	@ Priority
	.byte	song5F_rev	@ Reverb.
    
	.word	song5F_grp
    
	.word	song5F_001
	.word	song5F_002
	.word	song5F_003
	.word	song5F_004
	.word	song5F_005
	.word	song5F_006
	.word	song5F_007
	.word	song5F_008
	.word	song5F_009
	.word	song5F_010
	.word	song5F_011
	.word	song5F_012
	.word	song5F_013

	.end
