//Event file generated from Sappy .s format.
	#include "MPlayDef.event"

	#define	MemoryBrother_FINAL_grp  voicegroup000
	#define	MemoryBrother_FINAL_pri  0
	#define	MemoryBrother_FINAL_rev  0xC0
	#define	MemoryBrother_FINAL_mvl  30
	#define	MemoryBrother_FINAL_key  0
	#define	MemoryBrother_FINAL_tbs  1
	#define	MemoryBrother_FINAL_exg  0
	#define	MemoryBrother_FINAL_cmp  1

	// .rodata
	//	MemoryBrother_FINAL
	ALIGN 4

//**************** Track 1 (Midi-Chn.1) ****************//

MemoryBrother_FINAL_1:
	BYTE	KEYSH   MemoryBrother_FINAL_key+0
// 000   ----------------------------------------
	BYTE	TEMPO   90*MemoryBrother_FINAL_tbs/2
	BYTE		VOICE   0
	BYTE		MODT    0
	BYTE		LFOS    44
	BYTE		PAN     c_v-64
	BYTE		VOL     116*MemoryBrother_FINAL_mvl/mxv
	BYTE		N20     Gn3   v100
	BYTE	W24
	BYTE		N20   
	BYTE	W24
	BYTE		N20   
	BYTE	W24
	BYTE		N20   
	BYTE	W24
// 001   ----------------------------------------
MemoryBrother_FINAL_1_001:
	BYTE		N20     Gn3   v100
	BYTE	W24
	BYTE		N20   
	BYTE	W24
	BYTE		N20   
	BYTE	W24
	BYTE		N20   
	BYTE	W24
	BYTE	PEND
MemoryBrother_FINAL_1_B1:
// 002   ----------------------------------------
	BYTE	PATT
	 POIN2	MemoryBrother_FINAL_1_001
// 003   ----------------------------------------
	BYTE	PATT
	 POIN2	MemoryBrother_FINAL_1_001
// 004   ----------------------------------------
MemoryBrother_FINAL_1_004:
	BYTE		N20     An3   v100
	BYTE	W24
	BYTE		N20   
	BYTE	W24
	BYTE		N20   
	BYTE	W24
	BYTE		N20   
	BYTE	W24
	BYTE	PEND
// 005   ----------------------------------------
	BYTE	PATT
	 POIN2	MemoryBrother_FINAL_1_004
// 006   ----------------------------------------
	BYTE	PATT
	 POIN2	MemoryBrother_FINAL_1_004
// 007   ----------------------------------------
	BYTE	PATT
	 POIN2	MemoryBrother_FINAL_1_001
// 008   ----------------------------------------
	BYTE	PATT
	 POIN2	MemoryBrother_FINAL_1_004
// 009   ----------------------------------------
	BYTE	PATT
	 POIN2	MemoryBrother_FINAL_1_001
// 010   ----------------------------------------
	BYTE	PATT
	 POIN2	MemoryBrother_FINAL_1_001
// 011   ----------------------------------------
	BYTE	PATT
	 POIN2	MemoryBrother_FINAL_1_001
// 012   ----------------------------------------
	BYTE	PATT
	 POIN2	MemoryBrother_FINAL_1_004
// 013   ----------------------------------------
	BYTE	PATT
	 POIN2	MemoryBrother_FINAL_1_004
// 014   ----------------------------------------
	BYTE	PATT
	 POIN2	MemoryBrother_FINAL_1_004
// 015   ----------------------------------------
	BYTE	PATT
	 POIN2	MemoryBrother_FINAL_1_001
// 016   ----------------------------------------
	BYTE	PATT
	 POIN2	MemoryBrother_FINAL_1_001
// 017   ----------------------------------------
	BYTE		N20     Gn3   v100
	BYTE	W24
	BYTE		N20   
	BYTE	W24
	BYTE		N20   
	BYTE	W42
	BYTE	GoTo
	 POIN2	MemoryBrother_FINAL_1_B1
MemoryBrother_FINAL_1_B2:
	BYTE	FINE

//**************** Track 2 (Midi-Chn.2) ****************//

MemoryBrother_FINAL_2:
	BYTE	KEYSH   MemoryBrother_FINAL_key+0
// 000   ----------------------------------------
	BYTE		VOICE   0
	BYTE		MODT    0
	BYTE		LFOS    44
	BYTE		PAN     c_v+63
	BYTE		VOL     116*MemoryBrother_FINAL_mvl/mxv
	BYTE		N20     En3   v100
	BYTE	W24
	BYTE		N20   
	BYTE	W24
	BYTE		N20   
	BYTE	W24
	BYTE		N20   
	BYTE	W24
// 001   ----------------------------------------
MemoryBrother_FINAL_2_001:
	BYTE		N20     En3   v100
	BYTE	W24
	BYTE		N20   
	BYTE	W24
	BYTE		N20   
	BYTE	W24
	BYTE		N20   
	BYTE	W24
	BYTE	PEND
MemoryBrother_FINAL_2_B1:
// 002   ----------------------------------------
	BYTE	PATT
	 POIN2	MemoryBrother_FINAL_2_001
// 003   ----------------------------------------
	BYTE	PATT
	 POIN2	MemoryBrother_FINAL_2_001
// 004   ----------------------------------------
	BYTE	PATT
	 POIN2	MemoryBrother_FINAL_2_001
// 005   ----------------------------------------
	BYTE	PATT
	 POIN2	MemoryBrother_FINAL_2_001
// 006   ----------------------------------------
MemoryBrother_FINAL_2_006:
	BYTE		N20     Fn3   v100
	BYTE	W24
	BYTE		N20   
	BYTE	W24
	BYTE		N20   
	BYTE	W24
	BYTE		N20   
	BYTE	W24
	BYTE	PEND
// 007   ----------------------------------------
MemoryBrother_FINAL_2_007:
	BYTE		N20     Dn3   v100
	BYTE	W24
	BYTE		N20   
	BYTE	W24
	BYTE		N20   
	BYTE	W24
	BYTE		N20   
	BYTE	W24
	BYTE	PEND
// 008   ----------------------------------------
	BYTE	PATT
	 POIN2	MemoryBrother_FINAL_2_001
// 009   ----------------------------------------
	BYTE	PATT
	 POIN2	MemoryBrother_FINAL_2_007
// 010   ----------------------------------------
	BYTE	PATT
	 POIN2	MemoryBrother_FINAL_2_001
// 011   ----------------------------------------
	BYTE	PATT
	 POIN2	MemoryBrother_FINAL_2_001
// 012   ----------------------------------------
	BYTE	PATT
	 POIN2	MemoryBrother_FINAL_2_001
// 013   ----------------------------------------
	BYTE	PATT
	 POIN2	MemoryBrother_FINAL_2_001
// 014   ----------------------------------------
	BYTE	PATT
	 POIN2	MemoryBrother_FINAL_2_006
// 015   ----------------------------------------
	BYTE	PATT
	 POIN2	MemoryBrother_FINAL_2_007
// 016   ----------------------------------------
	BYTE	PATT
	 POIN2	MemoryBrother_FINAL_2_001
// 017   ----------------------------------------
	BYTE		N20     En3   v100
	BYTE	W24
	BYTE		N20   
	BYTE	W24
	BYTE		N20   
	BYTE	W42
	BYTE	GoTo
	 POIN2	MemoryBrother_FINAL_2_B1
MemoryBrother_FINAL_2_B2:
	BYTE	FINE

//**************** Track 3 (Midi-Chn.3) ****************//

MemoryBrother_FINAL_3:
	BYTE	KEYSH   MemoryBrother_FINAL_key+0
// 000   ----------------------------------------
	BYTE		VOICE   1
	BYTE		MODT    0
	BYTE		LFOS    44
	BYTE		VOL     116*MemoryBrother_FINAL_mvl/mxv
	BYTE		PAN     c_v+4
	BYTE		N80     Cn3   v100
	BYTE	W84
	BYTE		N11     Gn2 
	BYTE	W12
// 001   ----------------------------------------
	BYTE		N90     Cn2 
	BYTE	W96
MemoryBrother_FINAL_3_B1:
// 002   ----------------------------------------
MemoryBrother_FINAL_3_002:
	BYTE		N80     Cn3   v100
	BYTE	W84
	BYTE		N11     Gn2 
	BYTE	W12
	BYTE	PEND
// 003   ----------------------------------------
MemoryBrother_FINAL_3_003:
	BYTE		N80     Cn2   v100
	BYTE	W84
	BYTE		N11     Gn2 
	BYTE	W12
	BYTE	PEND
// 004   ----------------------------------------
MemoryBrother_FINAL_3_004:
	BYTE		N80     An2   v100
	BYTE	W84
	BYTE		N11     En2 
	BYTE	W12
	BYTE	PEND
// 005   ----------------------------------------
MemoryBrother_FINAL_3_005:
	BYTE		N80     An1   v100
	BYTE	W84
	BYTE		N11     An2 
	BYTE	W12
	BYTE	PEND
// 006   ----------------------------------------
MemoryBrother_FINAL_3_006:
	BYTE		N80     Cn3   v100
	BYTE	W84
	BYTE		N11     An2 
	BYTE	W12
	BYTE	PEND
// 007   ----------------------------------------
MemoryBrother_FINAL_3_007:
	BYTE		N80     Bn2   v100
	BYTE	W84
	BYTE		N11     Dn3 
	BYTE	W12
	BYTE	PEND
// 008   ----------------------------------------
	BYTE	PATT
	 POIN2	MemoryBrother_FINAL_3_006
// 009   ----------------------------------------
	BYTE		N90     Bn2   v100
	BYTE	W96
// 010   ----------------------------------------
	BYTE	PATT
	 POIN2	MemoryBrother_FINAL_3_002
// 011   ----------------------------------------
	BYTE	PATT
	 POIN2	MemoryBrother_FINAL_3_003
// 012   ----------------------------------------
	BYTE	PATT
	 POIN2	MemoryBrother_FINAL_3_004
// 013   ----------------------------------------
	BYTE	PATT
	 POIN2	MemoryBrother_FINAL_3_005
// 014   ----------------------------------------
	BYTE	PATT
	 POIN2	MemoryBrother_FINAL_3_006
// 015   ----------------------------------------
	BYTE	PATT
	 POIN2	MemoryBrother_FINAL_3_007
// 016   ----------------------------------------
	BYTE	PATT
	 POIN2	MemoryBrother_FINAL_3_002
// 017   ----------------------------------------
	BYTE		N80     As2   v100
	BYTE	W90
	BYTE	GoTo
	 POIN2	MemoryBrother_FINAL_3_B1
MemoryBrother_FINAL_3_B2:
	BYTE	FINE

//**************** Track 4 (Midi-Chn.4) ****************//

MemoryBrother_FINAL_4:
	BYTE	KEYSH   MemoryBrother_FINAL_key+0
// 000   ----------------------------------------
	BYTE		VOICE   48
	BYTE		MODT    0
	BYTE		LFOS    44
	BYTE		PAN     c_v-20
	BYTE		VOL     127*MemoryBrother_FINAL_mvl/mxv
	BYTE	W96
// 001   ----------------------------------------
	BYTE	W72
	BYTE		N20     Gn1   v100
	BYTE	W24
MemoryBrother_FINAL_4_B1:
// 002   ----------------------------------------
MemoryBrother_FINAL_4_002:
	BYTE		N66     Cn2   v100
	BYTE	W72
	BYTE		N20     Gn2 
	BYTE	W24
	BYTE	PEND
// 003   ----------------------------------------
MemoryBrother_FINAL_4_003:
	BYTE		N66     Cn2   v100
	BYTE	W72
	BYTE		N20     Gn1 
	BYTE	W24
	BYTE	PEND
// 004   ----------------------------------------
MemoryBrother_FINAL_4_004:
	BYTE		N66     An1   v100
	BYTE	W72
	BYTE		N20     En2 
	BYTE	W24
	BYTE	PEND
// 005   ----------------------------------------
MemoryBrother_FINAL_4_005:
	BYTE		N42     An2   v100
	BYTE	W48
	BYTE		        Gn2 
	BYTE	W48
	BYTE	PEND
// 006   ----------------------------------------
MemoryBrother_FINAL_4_006:
	BYTE		N66     Fn2   v100
	BYTE	W72
	BYTE		N20     Dn2 
	BYTE	W24
	BYTE	PEND
// 007   ----------------------------------------
MemoryBrother_FINAL_4_007:
	BYTE		N66     Gn2   v100
	BYTE	W72
	BYTE		N20     Gn1 
	BYTE	W24
	BYTE	PEND
// 008   ----------------------------------------
	BYTE		N66     An1 
	BYTE	W72
	BYTE		N20     An2 
	BYTE	W24
// 009   ----------------------------------------
	BYTE		        Gn2 
	BYTE	W24
	BYTE		        Fn2 
	BYTE	W24
	BYTE		        En2 
	BYTE	W24
	BYTE		        Dn2 
	BYTE	W24
// 010   ----------------------------------------
	BYTE	PATT
	 POIN2	MemoryBrother_FINAL_4_002
// 011   ----------------------------------------
	BYTE	PATT
	 POIN2	MemoryBrother_FINAL_4_003
// 012   ----------------------------------------
	BYTE	PATT
	 POIN2	MemoryBrother_FINAL_4_004
// 013   ----------------------------------------
	BYTE	PATT
	 POIN2	MemoryBrother_FINAL_4_005
// 014   ----------------------------------------
	BYTE	PATT
	 POIN2	MemoryBrother_FINAL_4_006
// 015   ----------------------------------------
	BYTE	PATT
	 POIN2	MemoryBrother_FINAL_4_007
// 016   ----------------------------------------
	BYTE	PATT
	 POIN2	MemoryBrother_FINAL_4_003
// 017   ----------------------------------------
	BYTE		N66     As1   v100
	BYTE	W90
	BYTE	GoTo
	 POIN2	MemoryBrother_FINAL_4_B1
MemoryBrother_FINAL_4_B2:
	BYTE	FINE

//**************** Track 5 (Midi-Chn.5) ****************//

MemoryBrother_FINAL_5:
	BYTE	KEYSH   MemoryBrother_FINAL_key+0
// 000   ----------------------------------------
	BYTE		VOICE   124
	BYTE		MODT    0
	BYTE		LFOS    44
	BYTE		VOL     127*MemoryBrother_FINAL_mvl/mxv
	BYTE		PAN     c_v+0
	BYTE	W96
// 001   ----------------------------------------
	BYTE	W96
MemoryBrother_FINAL_5_B1:
// 002   ----------------------------------------
MemoryBrother_FINAL_5_002:
	BYTE		N11     Cn1   v100
	BYTE	W12
	BYTE		        Gs1 
	BYTE	W12
	BYTE		        Cs1 
	BYTE	W12
	BYTE		        Gs1 
	BYTE	W12
	BYTE		        Cn1 
	BYTE	W12
	BYTE		        Gs1 
	BYTE	W12
	BYTE		        Cs1 
	BYTE	W12
	BYTE		        Gs1 
	BYTE	W12
	BYTE	PEND
// 003   ----------------------------------------
	BYTE	PATT
	 POIN2	MemoryBrother_FINAL_5_002
// 004   ----------------------------------------
	BYTE	PATT
	 POIN2	MemoryBrother_FINAL_5_002
// 005   ----------------------------------------
	BYTE	PATT
	 POIN2	MemoryBrother_FINAL_5_002
// 006   ----------------------------------------
	BYTE	PATT
	 POIN2	MemoryBrother_FINAL_5_002
// 007   ----------------------------------------
	BYTE	PATT
	 POIN2	MemoryBrother_FINAL_5_002
// 008   ----------------------------------------
	BYTE	PATT
	 POIN2	MemoryBrother_FINAL_5_002
// 009   ----------------------------------------
	BYTE	PATT
	 POIN2	MemoryBrother_FINAL_5_002
// 010   ----------------------------------------
	BYTE	PATT
	 POIN2	MemoryBrother_FINAL_5_002
// 011   ----------------------------------------
	BYTE	PATT
	 POIN2	MemoryBrother_FINAL_5_002
// 012   ----------------------------------------
	BYTE	PATT
	 POIN2	MemoryBrother_FINAL_5_002
// 013   ----------------------------------------
	BYTE	PATT
	 POIN2	MemoryBrother_FINAL_5_002
// 014   ----------------------------------------
	BYTE	PATT
	 POIN2	MemoryBrother_FINAL_5_002
// 015   ----------------------------------------
	BYTE	PATT
	 POIN2	MemoryBrother_FINAL_5_002
// 016   ----------------------------------------
	BYTE	PATT
	 POIN2	MemoryBrother_FINAL_5_002
// 017   ----------------------------------------
	BYTE		N11     Cn1   v100
	BYTE	W12
	BYTE		        Gs1 
	BYTE	W12
	BYTE		        Cs1 
	BYTE	W12
	BYTE		        Gs1 
	BYTE	W12
	BYTE		        Cn1 
	BYTE	W12
	BYTE		        Gs1 
	BYTE	W12
	BYTE		        Cs1 
	BYTE	W18
	BYTE	GoTo
	 POIN2	MemoryBrother_FINAL_5_B1
MemoryBrother_FINAL_5_B2:
	BYTE	FINE

//**************** Track 6 (Midi-Chn.6) ****************//

MemoryBrother_FINAL_6:
	BYTE	KEYSH   MemoryBrother_FINAL_key+0
// 000   ----------------------------------------
	BYTE		VOICE   10
	BYTE		MODT    0
	BYTE		LFOS    44
	BYTE		PAN     c_v+18
	BYTE		VOL     127*MemoryBrother_FINAL_mvl/mxv
	BYTE	W96
// 001   ----------------------------------------
	BYTE	W96
MemoryBrother_FINAL_6_B1:
// 002   ----------------------------------------
	BYTE		N48     Gn3   v127
	BYTE	W48
	BYTE		N12     Dn4 
	BYTE	W12
	BYTE		        Cn4 
	BYTE	W12
	BYTE		        As3 
	BYTE	W12
	BYTE		N60     Cn4 
	BYTE	W12
// 003   ----------------------------------------
	BYTE	W48
	BYTE		N12     An3 
	BYTE	W12
	BYTE		        As3 
	BYTE	W12
	BYTE		        Cn4 
	BYTE	W12
	BYTE		        Fn4 
	BYTE	W12
// 004   ----------------------------------------
	BYTE		N48     Dn4 
	BYTE	W48
	BYTE		N12     As3 
	BYTE	W12
	BYTE		        An3 
	BYTE	W12
	BYTE		        As3 
	BYTE	W12
	BYTE		N60     Cn4 
	BYTE	W12
// 005   ----------------------------------------
	BYTE	W48
	BYTE		N48     Dn4 
	BYTE	W48
// 006   ----------------------------------------
	BYTE		        As3 
	BYTE	W48
	BYTE		N12   
	BYTE	W12
	BYTE		        An3 
	BYTE	W12
	BYTE		        Gn3 
	BYTE	W12
	BYTE		N60     An3 
	BYTE	W12
// 007   ----------------------------------------
	BYTE	W48
	BYTE		N48     As3 
	BYTE	W48
// 008   ----------------------------------------
	BYTE		        Gn3 
	BYTE	W48
	BYTE		TIE     Dn3 
	BYTE	W48
// 009   ----------------------------------------
	BYTE	W90
	BYTE		EOT   
	BYTE	W06
// 010   ----------------------------------------
	BYTE		N36     Dn4 
	BYTE	W36
	BYTE		        As3 
	BYTE	W36
	BYTE		N24     Cn4 
	BYTE	W24
// 011   ----------------------------------------
	BYTE		N12     Dn4 
	BYTE	W12
	BYTE		        Ds4 
	BYTE	W12
	BYTE		        Dn4 
	BYTE	W12
	BYTE		N24     Cn4 
	BYTE	W24
	BYTE		N12     As3 
	BYTE	W12
	BYTE		        An3 
	BYTE	W12
	BYTE		        As3 
	BYTE	W12
// 012   ----------------------------------------
	BYTE		N36     Cn4 
	BYTE	W36
	BYTE		        Fn3 
	BYTE	W36
	BYTE		N24     As3 
	BYTE	W24
// 013   ----------------------------------------
	BYTE		N48     An3 
	BYTE	W48
	BYTE		        Fn3 
	BYTE	W48
// 014   ----------------------------------------
	BYTE		N12     Gn3 
	BYTE	W12
	BYTE		        Fn3 
	BYTE	W12
	BYTE		        Gn3 
	BYTE	W12
	BYTE		N60     As3 
	BYTE	W60
// 015   ----------------------------------------
	BYTE		N12     Cn4 
	BYTE	W12
	BYTE		        An3 
	BYTE	W12
	BYTE		        Cn4 
	BYTE	W12
	BYTE		N24     Ds4 
	BYTE	W24
	BYTE		N12   
	BYTE	W12
	BYTE		        Dn4 
	BYTE	W12
	BYTE		        Cn4 
	BYTE	W12
// 016   ----------------------------------------
	BYTE		N96     As3 
	BYTE	W96
// 017   ----------------------------------------
	BYTE		N90     An3 
	BYTE	W90
	BYTE	GoTo
	 POIN2	MemoryBrother_FINAL_6_B1
MemoryBrother_FINAL_6_B2:
	BYTE	FINE

//******************************************************//
	ALIGN 4

MemoryBrother_FINAL:
	BYTE	6	// NumTrks
	BYTE	0	// NumBlks
	BYTE	MemoryBrother_FINAL_pri	// Priority
	BYTE	MemoryBrother_FINAL_rev	// Reverb.

	POIN2	MemoryBrother_FINAL_grp

	POIN2	MemoryBrother_FINAL_1
	POIN2	MemoryBrother_FINAL_2
	POIN2	MemoryBrother_FINAL_3
	POIN2	MemoryBrother_FINAL_4
	POIN2	MemoryBrother_FINAL_5
	POIN2	MemoryBrother_FINAL_6

	
