//Event file generated from Sappy .s format.
	#include "MPlayDef.event"

	#define	MemoryMariya_FINAL_grp  voicegroup000
	#define	MemoryMariya_FINAL_pri  0
	#define	MemoryMariya_FINAL_rev  0xC0
	#define	MemoryMariya_FINAL_mvl  33
	#define	MemoryMariya_FINAL_key  0
	#define	MemoryMariya_FINAL_tbs  1
	#define	MemoryMariya_FINAL_exg  0
	#define	MemoryMariya_FINAL_cmp  1

	// .rodata
	//	MemoryMariya_FINAL
	ALIGN 4

//**************** Track 1 (Midi-Chn.1) ****************//

MemoryMariya_FINAL_1:
	BYTE	KEYSH   MemoryMariya_FINAL_key+0
MemoryMariya_FINAL_1_B1:
// 000   ----------------------------------------
	BYTE	TEMPO   75*MemoryMariya_FINAL_tbs/2
	BYTE		VOICE   0
	BYTE		MODT    0
	BYTE		LFOS    44
	BYTE		PAN     c_v+63
	BYTE		VOL     127*MemoryMariya_FINAL_mvl/mxv
	BYTE	W96
// 001   ----------------------------------------
	BYTE	W36
	BYTE		N05     Cn3   v127
	BYTE	W06
	BYTE		        Ds3 
	BYTE	W06
	BYTE		N04     Fn3 
	BYTE	W12
	BYTE		        Cn3 
	BYTE	W12
	BYTE		        Fn3 
	BYTE	W06
	BYTE		        Gs3 
	BYTE	W12
	BYTE		N48     Gn3 
	BYTE	W06
// 002   ----------------------------------------
	BYTE	W48
	BYTE		N28     Ds3 
	BYTE	W30
	BYTE		N05     Cs3 
	BYTE	W06
	BYTE		        Cn3 
	BYTE	W06
	BYTE		        Cs3 
	BYTE	W06
// 003   ----------------------------------------
	BYTE		N90     Ds3 
	BYTE	W96
// 004   ----------------------------------------
	BYTE		N32     Cs3 
	BYTE	W36
	BYTE		N11     Ds3 
	BYTE	W12
	BYTE		        Fn3 
	BYTE	W12
	BYTE		        Cs3 
	BYTE	W12
	BYTE		        Fn3 
	BYTE	W12
	BYTE		        Gs3 
	BYTE	W12
// 005   ----------------------------------------
	BYTE		N32     Gn3 
	BYTE	W36
	BYTE		N11     Fn3 
	BYTE	W12
	BYTE		        Ds3 
	BYTE	W12
	BYTE		        Cs3 
	BYTE	W12
	BYTE		        Cn3 
	BYTE	W12
	BYTE		        Cs3 
	BYTE	W12
// 006   ----------------------------------------
	BYTE		N42     Ds3 
	BYTE	W48
	BYTE		TIE     Fn3 
	BYTE	W48
// 007   ----------------------------------------
	BYTE	W66
	BYTE		EOT   
	BYTE	W06
	BYTE		N05   
	BYTE	W06
	BYTE		        Gn3 
	BYTE	W06
	BYTE		        Gs3 
	BYTE	W06
	BYTE		        As3 
	BYTE	W06
// 008   ----------------------------------------
	BYTE		N42     Cn4 
	BYTE	W48
	BYTE		N15     Ds4 
	BYTE	W16
	BYTE		        Cs4 
	BYTE	W16
	BYTE		        Cn4 
	BYTE	W16
// 009   ----------------------------------------
	BYTE		N32     As3 
	BYTE	W36
	BYTE		N11     Gs3 
	BYTE	W12
	BYTE		N20     Gn3 
	BYTE	W24
	BYTE		N05     Fn3 
	BYTE	W06
	BYTE		        Gn3 
	BYTE	W06
	BYTE		        Gs3 
	BYTE	W06
	BYTE		        As3 
	BYTE	W06
// 010   ----------------------------------------
	BYTE		N42     Cn4 
	BYTE	W48
	BYTE		N15     Cs4 
	BYTE	W16
	BYTE		        Ds4 
	BYTE	W16
	BYTE		        Fn4 
	BYTE	W16
// 011   ----------------------------------------
	BYTE		N32     Ds4 
	BYTE	W36
	BYTE		N11     Cs4 
	BYTE	W12
	BYTE		N15     Cn4 
	BYTE	W16
	BYTE		        As3 
	BYTE	W16
	BYTE		        Gn3 
	BYTE	W16
// 012   ----------------------------------------
	BYTE		N32     Gs3 
	BYTE	W36
	BYTE		N11     Gn3 
	BYTE	W12
	BYTE		N04     Fn3 
	BYTE	W12
	BYTE		        Cn3 
	BYTE	W12
	BYTE		        Fn3 
	BYTE	W06
	BYTE		N11     Gs3 
	BYTE	W12
	BYTE		N36     Gn3 
	BYTE	W06
// 013   ----------------------------------------
	BYTE	W36
	BYTE		N11     Gs3 
	BYTE	W12
	BYTE		N15     As3 
	BYTE	W16
	BYTE		        Gs3 
	BYTE	W16
	BYTE		        Gn3 
	BYTE	W16
// 014   ----------------------------------------
	BYTE		N42     Fn3 
	BYTE	W48
	BYTE		        Gs3 
	BYTE	W48
// 015   ----------------------------------------
	BYTE		        Gn3 
	BYTE	W48
	BYTE		        Ds3 
	BYTE	W48
// 016   ----------------------------------------
	BYTE		N90     Fn3 
	BYTE	W90
	BYTE		VOL     127*MemoryMariya_FINAL_mvl/mxv
	BYTE	W06
// 017   ----------------------------------------
	BYTE	W96
// 018   ----------------------------------------
	BYTE	W96
// 019   ----------------------------------------
	BYTE	W96
	BYTE	GoTo
	 POIN2	MemoryMariya_FINAL_1_B1
MemoryMariya_FINAL_1_B2:
// 020   ----------------------------------------
	BYTE	FINE

//**************** Track 2 (Midi-Chn.4) ****************//

MemoryMariya_FINAL_2:
	BYTE	KEYSH   MemoryMariya_FINAL_key+0
MemoryMariya_FINAL_2_B1:
// 000   ----------------------------------------
	BYTE		VOICE   10
	BYTE		MODT    0
	BYTE		LFOS    44
	BYTE		PAN     c_v-64
	BYTE		VOL     127*MemoryMariya_FINAL_mvl/mxv
	BYTE	W96
// 001   ----------------------------------------
	BYTE	W36
	BYTE		N05     Cn3   v127
	BYTE	W06
	BYTE		        Ds3 
	BYTE	W06
	BYTE		N04     Fn3 
	BYTE	W12
	BYTE		        Cn3 
	BYTE	W12
	BYTE		        Fn3 
	BYTE	W06
	BYTE		        Gs3 
	BYTE	W12
	BYTE		N48     Gn3 
	BYTE	W06
// 002   ----------------------------------------
	BYTE	W48
	BYTE		N28     Ds3 
	BYTE	W30
	BYTE		N05     Cs3 
	BYTE	W06
	BYTE		        Cn3 
	BYTE	W06
	BYTE		        Cs3 
	BYTE	W06
// 003   ----------------------------------------
	BYTE		N90     Ds3 
	BYTE	W96
// 004   ----------------------------------------
	BYTE		N32     Cs3 
	BYTE	W36
	BYTE		N11     Ds3 
	BYTE	W12
	BYTE		        Fn3 
	BYTE	W12
	BYTE		        Cs3 
	BYTE	W12
	BYTE		        Fn3 
	BYTE	W12
	BYTE		        Gs3 
	BYTE	W12
// 005   ----------------------------------------
	BYTE		N32     Gn3 
	BYTE	W36
	BYTE		N11     Fn3 
	BYTE	W12
	BYTE		        Ds3 
	BYTE	W12
	BYTE		        Cs3 
	BYTE	W12
	BYTE		        Cn3 
	BYTE	W12
	BYTE		        Cs3 
	BYTE	W12
// 006   ----------------------------------------
	BYTE		N42     Ds3 
	BYTE	W48
	BYTE		TIE     Fn3 
	BYTE	W48
// 007   ----------------------------------------
	BYTE	W66
	BYTE		EOT   
	BYTE	W06
	BYTE		N05   
	BYTE	W06
	BYTE		        Gn3 
	BYTE	W06
	BYTE		        Gs3 
	BYTE	W06
	BYTE		        As3 
	BYTE	W06
// 008   ----------------------------------------
	BYTE		N42     Cn4 
	BYTE	W48
	BYTE		N15     Ds4 
	BYTE	W16
	BYTE		        Cs4 
	BYTE	W16
	BYTE		        Cn4 
	BYTE	W16
// 009   ----------------------------------------
	BYTE		N32     As3 
	BYTE	W36
	BYTE		N11     Gs3 
	BYTE	W12
	BYTE		N20     Gn3 
	BYTE	W24
	BYTE		N05     Fn3 
	BYTE	W06
	BYTE		        Gn3 
	BYTE	W06
	BYTE		        Gs3 
	BYTE	W06
	BYTE		        As3 
	BYTE	W06
// 010   ----------------------------------------
	BYTE		N42     Cn4 
	BYTE	W48
	BYTE		N15     Cs4 
	BYTE	W16
	BYTE		        Ds4 
	BYTE	W16
	BYTE		        Fn4 
	BYTE	W16
// 011   ----------------------------------------
	BYTE		N32     Ds4 
	BYTE	W36
	BYTE		N11     Cs4 
	BYTE	W12
	BYTE		N15     Cn4 
	BYTE	W16
	BYTE		        As3 
	BYTE	W16
	BYTE		        Gn3 
	BYTE	W16
// 012   ----------------------------------------
	BYTE		N32     Gs3 
	BYTE	W36
	BYTE		N11     Gn3 
	BYTE	W12
	BYTE		N04     Fn3 
	BYTE	W12
	BYTE		        Cn3 
	BYTE	W12
	BYTE		        Fn3 
	BYTE	W06
	BYTE		N11     Gs3 
	BYTE	W12
	BYTE		N36     Gn3 
	BYTE	W06
// 013   ----------------------------------------
	BYTE	W36
	BYTE		N11     Gs3 
	BYTE	W12
	BYTE		N15     As3 
	BYTE	W16
	BYTE		        Gs3 
	BYTE	W16
	BYTE		        Gn3 
	BYTE	W16
// 014   ----------------------------------------
	BYTE		N42     Fn3 
	BYTE	W48
	BYTE		        Gs3 
	BYTE	W48
// 015   ----------------------------------------
	BYTE		        Gn3 
	BYTE	W48
	BYTE		        Ds3 
	BYTE	W48
// 016   ----------------------------------------
	BYTE		N90     Fn3 
	BYTE	W90
	BYTE		VOL     127*MemoryMariya_FINAL_mvl/mxv
	BYTE	W06
// 017   ----------------------------------------
	BYTE	W96
// 018   ----------------------------------------
	BYTE	W96
// 019   ----------------------------------------
	BYTE	W96
	BYTE	GoTo
	 POIN2	MemoryMariya_FINAL_2_B1
MemoryMariya_FINAL_2_B2:
// 020   ----------------------------------------
	BYTE	FINE

//**************** Track 3 (Midi-Chn.5) ****************//

MemoryMariya_FINAL_3:
	BYTE	KEYSH   MemoryMariya_FINAL_key+0
MemoryMariya_FINAL_3_B1:
// 000   ----------------------------------------
	BYTE		VOICE   0
	BYTE		MODT    0
	BYTE		LFOS    44
	BYTE		PAN     c_v-17
	BYTE		VOL     127*MemoryMariya_FINAL_mvl/mxv
	BYTE	W12
	BYTE		N05     Gs3   v076
	BYTE		N05     Cn4 
	BYTE		N05     Fn4 
	BYTE	W06
	BYTE		        Gs3 
	BYTE		N05     Cn4 
	BYTE		N05     Fn4 
	BYTE	W18
	BYTE		        Cn4 
	BYTE		N05     Fn4 
	BYTE		N05     Gs4 
	BYTE	W06
	BYTE		        Cn4 
	BYTE		N05     Fn4 
	BYTE		N05     Gs4 
	BYTE	W18
	BYTE		        Gs3 
	BYTE		N05     Cn4 
	BYTE		N05     Fn4 
	BYTE	W06
	BYTE		        Cn4 
	BYTE		N05     Fn4 
	BYTE		N05     Gs4 
	BYTE	W06
	BYTE		        Gn3 
	BYTE		N05     As3 
	BYTE		N05     Ds4 
	BYTE	W06
	BYTE		        As3 
	BYTE		N05     Ds4 
	BYTE		N05     Gn4 
	BYTE	W06
	BYTE		N11     Gn3 
	BYTE		N11     As3 
	BYTE		N11     Ds4 
	BYTE	W12
// 001   ----------------------------------------
MemoryMariya_FINAL_3_001:
	BYTE	W12
	BYTE		N05     Gs3   v076
	BYTE		N05     Cn4 
	BYTE		N05     Fn4 
	BYTE	W06
	BYTE		        Gs3 
	BYTE		N05     Cn4 
	BYTE		N05     Fn4 
	BYTE	W18
	BYTE		        Cn4 
	BYTE		N05     Fn4 
	BYTE		N05     Gs4 
	BYTE	W06
	BYTE		        Cn4 
	BYTE		N05     Fn4 
	BYTE		N05     Gs4 
	BYTE	W18
	BYTE		        Gs3 
	BYTE		N05     Cn4 
	BYTE		N05     Fn4 
	BYTE	W06
	BYTE		        Cn4 
	BYTE		N05     Fn4 
	BYTE		N05     Gs4 
	BYTE	W06
	BYTE		        Gs3 
	BYTE		N05     Cn4 
	BYTE		N05     Fn4 
	BYTE	W06
	BYTE		        Cn4 
	BYTE		N05     Fn4 
	BYTE		N05     Gs4 
	BYTE	W06
	BYTE		N11     Gs3 
	BYTE		N11     Cn4 
	BYTE		N11     Fn4 
	BYTE	W12
	BYTE	PEND
// 002   ----------------------------------------
MemoryMariya_FINAL_3_002:
	BYTE	W12
	BYTE		N05     Gs3   v076
	BYTE		N05     Cn4 
	BYTE		N05     Fn4 
	BYTE	W06
	BYTE		        Gs3 
	BYTE		N05     Cn4 
	BYTE		N05     Fn4 
	BYTE	W18
	BYTE		        Cn4 
	BYTE		N05     Fn4 
	BYTE		N05     Gs4 
	BYTE	W06
	BYTE		        Cn4 
	BYTE		N05     Fn4 
	BYTE		N05     Gs4 
	BYTE	W18
	BYTE		        Gs3 
	BYTE		N05     Cn4 
	BYTE		N05     Fn4 
	BYTE	W06
	BYTE		        Cn4 
	BYTE		N05     Fn4 
	BYTE		N05     Gs4 
	BYTE	W06
	BYTE		        Gn3 
	BYTE		N05     As3 
	BYTE		N05     Ds4 
	BYTE	W06
	BYTE		        As3 
	BYTE		N05     Ds4 
	BYTE		N05     Gn4 
	BYTE	W06
	BYTE		N11     Gn3 
	BYTE		N11     As3 
	BYTE		N11     Ds4 
	BYTE	W12
	BYTE	PEND
// 003   ----------------------------------------
	BYTE	PATT
	 POIN2	MemoryMariya_FINAL_3_001
// 004   ----------------------------------------
	BYTE		N20     Fn3   v076
	BYTE		N20     Gs3 
	BYTE		N20     Cs4 
	BYTE	W24
	BYTE		        Fn3 
	BYTE		N20     Gs3 
	BYTE		N20     Cs4 
	BYTE	W24
	BYTE		        Fn3 
	BYTE		N20     Gs3 
	BYTE		N20     Cs4 
	BYTE	W24
	BYTE		        Fn3 
	BYTE		N20     Gs3 
	BYTE		N20     Cs4 
	BYTE	W24
// 005   ----------------------------------------
	BYTE		        Gn3 
	BYTE		N20     As3 
	BYTE		N20     Ds4 
	BYTE	W24
	BYTE		        Gn3 
	BYTE		N20     As3 
	BYTE		N20     Ds4 
	BYTE	W24
	BYTE		        Gn3 
	BYTE		N20     As3 
	BYTE		N20     Ds4 
	BYTE	W24
	BYTE		        Gn3 
	BYTE		N20     As3 
	BYTE		N20     Ds4 
	BYTE	W24
// 006   ----------------------------------------
	BYTE	PATT
	 POIN2	MemoryMariya_FINAL_3_002
// 007   ----------------------------------------
	BYTE	PATT
	 POIN2	MemoryMariya_FINAL_3_001
// 008   ----------------------------------------
	BYTE	W96
// 009   ----------------------------------------
	BYTE	W96
// 010   ----------------------------------------
	BYTE	W96
// 011   ----------------------------------------
	BYTE	W96
// 012   ----------------------------------------
	BYTE	W96
// 013   ----------------------------------------
	BYTE	W96
// 014   ----------------------------------------
	BYTE	W96
// 015   ----------------------------------------
	BYTE	W96
// 016   ----------------------------------------
	BYTE	PATT
	 POIN2	MemoryMariya_FINAL_3_002
// 017   ----------------------------------------
	BYTE	PATT
	 POIN2	MemoryMariya_FINAL_3_001
// 018   ----------------------------------------
	BYTE	PATT
	 POIN2	MemoryMariya_FINAL_3_002
// 019   ----------------------------------------
	BYTE	PATT
	 POIN2	MemoryMariya_FINAL_3_001
	BYTE	GoTo
	 POIN2	MemoryMariya_FINAL_3_B1
MemoryMariya_FINAL_3_B2:
// 020   ----------------------------------------
	BYTE	FINE

//**************** Track 4 (Midi-Chn.9) ****************//

MemoryMariya_FINAL_4:
	BYTE	KEYSH   MemoryMariya_FINAL_key+0
MemoryMariya_FINAL_4_B1:
// 000   ----------------------------------------
	BYTE		VOICE   0
	BYTE		MODT    0
	BYTE		LFOS    44
	BYTE		PAN     c_v+18
	BYTE		VOL     127*MemoryMariya_FINAL_mvl/mxv
	BYTE		N11     Fn2   v127
	BYTE	W12
	BYTE		N05   
	BYTE	W06
	BYTE		        Cn2 
	BYTE	W06
	BYTE		        Fn2 
	BYTE	W06
	BYTE		N04     Gs2 
	BYTE	W12
	BYTE		N04   
	BYTE	W24
	BYTE		        Ds2 
	BYTE	W06
	BYTE		        Gn2 
	BYTE	W12
	BYTE		N11     Ds2 
	BYTE	W12
// 001   ----------------------------------------
MemoryMariya_FINAL_4_001:
	BYTE		N11     Fn2   v127
	BYTE	W12
	BYTE		N05   
	BYTE	W06
	BYTE		        Cn2 
	BYTE	W06
	BYTE		        Fn2 
	BYTE	W06
	BYTE		N04     Gs2 
	BYTE	W12
	BYTE		N04   
	BYTE	W24
	BYTE		        Fn2 
	BYTE	W06
	BYTE		        Gs2 
	BYTE	W12
	BYTE		N11     Fn2 
	BYTE	W12
	BYTE	PEND
// 002   ----------------------------------------
MemoryMariya_FINAL_4_002:
	BYTE		N11     Fn2   v127
	BYTE	W12
	BYTE		N05   
	BYTE	W06
	BYTE		        Cn2 
	BYTE	W06
	BYTE		        Fn2 
	BYTE	W06
	BYTE		N04     Gs2 
	BYTE	W12
	BYTE		N04   
	BYTE	W24
	BYTE		        Ds2 
	BYTE	W06
	BYTE		        Gn2 
	BYTE	W12
	BYTE		N11     Ds2 
	BYTE	W12
	BYTE	PEND
// 003   ----------------------------------------
	BYTE	PATT
	 POIN2	MemoryMariya_FINAL_4_001
// 004   ----------------------------------------
	BYTE		N11     Fn2   v127
	BYTE	W12
	BYTE		N05   
	BYTE	W06
	BYTE		        Cs2 
	BYTE	W06
	BYTE		        Fn2 
	BYTE	W06
	BYTE		N04     Gs2 
	BYTE	W12
	BYTE		N04   
	BYTE	W24
	BYTE		        Fn2 
	BYTE	W06
	BYTE		        Gs2 
	BYTE	W12
	BYTE		N11     Fn2 
	BYTE	W12
// 005   ----------------------------------------
	BYTE		        Gn2 
	BYTE	W12
	BYTE		N05   
	BYTE	W06
	BYTE		        Ds2 
	BYTE	W06
	BYTE		        Gn2 
	BYTE	W06
	BYTE		N04     As2 
	BYTE	W12
	BYTE		N04   
	BYTE	W24
	BYTE		        Gn2 
	BYTE	W06
	BYTE		        As2 
	BYTE	W12
	BYTE		N11     Gn2 
	BYTE	W12
// 006   ----------------------------------------
	BYTE	PATT
	 POIN2	MemoryMariya_FINAL_4_002
// 007   ----------------------------------------
	BYTE	PATT
	 POIN2	MemoryMariya_FINAL_4_001
// 008   ----------------------------------------
	BYTE		N04     Gs2   v127
	BYTE	W12
	BYTE		        Ds2 
	BYTE	W12
	BYTE		        Cn2 
	BYTE	W12
	BYTE		        Ds2 
	BYTE	W12
	BYTE		        Gs2 
	BYTE	W12
	BYTE		        Ds2 
	BYTE	W12
	BYTE		        Cn2 
	BYTE	W12
	BYTE		        Ds2 
	BYTE	W12
// 009   ----------------------------------------
MemoryMariya_FINAL_4_009:
	BYTE		N04     Gn2   v127
	BYTE	W12
	BYTE		        Ds2 
	BYTE	W12
	BYTE		        As1 
	BYTE	W12
	BYTE		        Ds2 
	BYTE	W12
	BYTE		        Gn2 
	BYTE	W12
	BYTE		        Ds2 
	BYTE	W12
	BYTE		        As1 
	BYTE	W12
	BYTE		        Ds2 
	BYTE	W12
	BYTE	PEND
// 010   ----------------------------------------
MemoryMariya_FINAL_4_010:
	BYTE		N04     Gs2   v127
	BYTE	W12
	BYTE		        Fn2 
	BYTE	W12
	BYTE		        Cn2 
	BYTE	W12
	BYTE		        Fn2 
	BYTE	W12
	BYTE		        Gs2 
	BYTE	W12
	BYTE		        Fn2 
	BYTE	W12
	BYTE		        Cn2 
	BYTE	W12
	BYTE		        Fn2 
	BYTE	W12
	BYTE	PEND
// 011   ----------------------------------------
MemoryMariya_FINAL_4_011:
	BYTE		N04     Gn2   v127
	BYTE	W12
	BYTE		        Ds2 
	BYTE	W12
	BYTE		        Cn2 
	BYTE	W12
	BYTE		        Ds2 
	BYTE	W12
	BYTE		        Gn2 
	BYTE	W12
	BYTE		        Ds2 
	BYTE	W12
	BYTE		        Cn2 
	BYTE	W12
	BYTE		        Ds2 
	BYTE	W12
	BYTE	PEND
// 012   ----------------------------------------
	BYTE		        Gs2 
	BYTE	W12
	BYTE		        Fn2 
	BYTE	W12
	BYTE		        Cs2 
	BYTE	W12
	BYTE		        Fn2 
	BYTE	W12
	BYTE		        Gs2 
	BYTE	W12
	BYTE		        Fn2 
	BYTE	W12
	BYTE		        Cs2 
	BYTE	W12
	BYTE		        Fn2 
	BYTE	W12
// 013   ----------------------------------------
	BYTE	PATT
	 POIN2	MemoryMariya_FINAL_4_009
// 014   ----------------------------------------
	BYTE	PATT
	 POIN2	MemoryMariya_FINAL_4_010
// 015   ----------------------------------------
	BYTE	PATT
	 POIN2	MemoryMariya_FINAL_4_011
// 016   ----------------------------------------
MemoryMariya_FINAL_4_016:
	BYTE		N42     Fn2   v127
	BYTE	W48
	BYTE		        Ds2 
	BYTE	W48
	BYTE	PEND
// 017   ----------------------------------------
	BYTE		N20     Fn2 
	BYTE	W24
	BYTE		        Gs2 
	BYTE	W24
	BYTE		        Gn2 
	BYTE	W24
	BYTE		        Fn2 
	BYTE	W24
// 018   ----------------------------------------
	BYTE	PATT
	 POIN2	MemoryMariya_FINAL_4_016
// 019   ----------------------------------------
	BYTE		N20     Fn2   v127
	BYTE	W24
	BYTE		        Gs2 
	BYTE	W24
	BYTE		        Gn2 
	BYTE	W24
	BYTE		        Fn2 
	BYTE	W20
	BYTE		VOL     127*MemoryMariya_FINAL_mvl/mxv
	BYTE	W04
	BYTE	GoTo
	 POIN2	MemoryMariya_FINAL_4_B1
MemoryMariya_FINAL_4_B2:
// 020   ----------------------------------------
	BYTE	FINE

//******************************************************//
	ALIGN 4

MemoryMariya_FINAL:
	BYTE	4	// NumTrks
	BYTE	0	// NumBlks
	BYTE	MemoryMariya_FINAL_pri	// Priority
	BYTE	MemoryMariya_FINAL_rev	// Reverb.

	POIN2	MemoryMariya_FINAL_grp

	POIN2	MemoryMariya_FINAL_1
	POIN2	MemoryMariya_FINAL_2
	POIN2	MemoryMariya_FINAL_3
	POIN2	MemoryMariya_FINAL_4

	
