//Event file generated from Sappy .s format.
	#include "MPlayDef.event"

	#define	song0105_grp  voicegroup000
	#define	song0105_pri  0
	#define	song0105_rev  0
	#define	song0105_mvl  127
	#define	song0105_key  0
	#define	song0105_tbs  1
	#define	song0105_exg  0
	#define	song0105_cmp  1

	// .rodata
	//	song0105
	ALIGN 4


//**************** Track 1 (Midi-Chn.0) ****************//

song0105_001:
// 000   ----------------------------------------
 BYTE   KEYSH   song0105_key+0
Label_0_014A7766:
 BYTE   TEMPO   142*song0105_tbs/2
 BYTE   VOICE   63
 BYTE   VOL   22*song0105_mvl/mxv
 BYTE   PAN   c_v-10
 BYTE   BEND   c_v+0
 BYTE   W48
 BYTE   N04  Bn4  v127
 BYTE   W06
 BYTE   Cn5
 BYTE   W06
 BYTE   En4
 BYTE   W06
 BYTE   N68  Gn4
 BYTE   W30
// 001   ----------------------------------------
Label_0_014A777C:
 BYTE   W48
 BYTE   N04  Bn4  v127
 BYTE   W06
 BYTE   Cn5
 BYTE   W06
 BYTE   En4
 BYTE   W06
 BYTE   N68  Fs4
 BYTE   W30
 BYTE   PEND 
// 002   ----------------------------------------
Label_0_014A7789:
 BYTE   W48
 BYTE   N04  Bn4  v127
 BYTE   W06
 BYTE   Cn5
 BYTE   W06
 BYTE   Dn5
 BYTE   W06
 BYTE   N68  Ds5
 BYTE   W30
 BYTE   PEND 
// 003   ----------------------------------------
 BYTE   W48
 BYTE   N04
 BYTE   W06
 BYTE   Cn5
 BYTE   W06
 BYTE   Ds5
 BYTE   W06
 BYTE   Gn5
 BYTE   W06
 BYTE   N56  Fs5
 BYTE   W24
// 004   ----------------------------------------
 BYTE   W48
 BYTE   N04  Bn4
 BYTE   W06
 BYTE   Cn5
 BYTE   W06
 BYTE   En4
 BYTE   W06
 BYTE   N68  Gn4
 BYTE   W30
// 005   ----------------------------------------
 BYTE   PATT
  POIN2 Label_0_014A777C
// 006   ----------------------------------------
 BYTE   PATT
  POIN2 Label_0_014A7789
// 007   ----------------------------------------
 BYTE   W48
 BYTE   N04  Fs5  v127
 BYTE   W06
 BYTE   Fn5
 BYTE   W06
 BYTE   Ds5
 BYTE   W06
 BYTE   N68  Dn5
 BYTE   W30
// 008   ----------------------------------------
 BYTE   W48
 BYTE   N16  Fs4
 BYTE   W18
 BYTE   An4
 BYTE   W18
 BYTE   N05  Fs4
 BYTE   W12
// 009   ----------------------------------------
Label_0_014A77CC:
 BYTE   N10  An4  v127
 BYTE   W12
 BYTE   N05  Fs4
 BYTE   W12
 BYTE   N04  As4
 BYTE   W06
 BYTE   N11  An4
 BYTE   W18
 BYTE   N16  Fs4
 BYTE   W18
 BYTE   An4
 BYTE   W18
 BYTE   N05  Fs4
 BYTE   W12
 BYTE   PEND 
// 010   ----------------------------------------
Label_0_014A77E2:
 BYTE   N10  An4  v127
 BYTE   W12
 BYTE   N05  Fs4
 BYTE   W12
 BYTE   N04  Cs5
 BYTE   W06
 BYTE   N11  Cn5
 BYTE   W18
 BYTE   N16  Fs4
 BYTE   W18
 BYTE   An4
 BYTE   W18
 BYTE   N05  Fs4
 BYTE   W12
 BYTE   PEND 
// 011   ----------------------------------------
 BYTE   N10  An4
 BYTE   W12
 BYTE   N05  Fs4
 BYTE   W12
 BYTE   N04  As4
 BYTE   W06
 BYTE   N11  An4
 BYTE   W18
 BYTE   N16  Cs5
 BYTE   W18
 BYTE   Cn5
 BYTE   W18
 BYTE   N07  Bn4
 BYTE   W12
// 012   ----------------------------------------
 BYTE   N11  An4
 BYTE   W18
 BYTE   Gs4
 BYTE   W18
 BYTE   Fn4
 BYTE   W12
 BYTE   N16  Fs4
 BYTE   W18
 BYTE   An4
 BYTE   W18
 BYTE   N05  Fs4
 BYTE   W12
// 013   ----------------------------------------
 BYTE   PATT
  POIN2 Label_0_014A77CC
// 014   ----------------------------------------
 BYTE   PATT
  POIN2 Label_0_014A77E2
// 015   ----------------------------------------
 BYTE   N10  An4  v127
 BYTE   W12
 BYTE   N05  Fs4
 BYTE   W12
 BYTE   N04  As4
 BYTE   W06
 BYTE   N11  An4
 BYTE   W18
 BYTE   N16  En5
 BYTE   W18
 BYTE   Ds5
 BYTE   W18
 BYTE   N28  Dn5
 BYTE   W12
// 016   ----------------------------------------
 BYTE   W24
 BYTE   N04  Cs5
 BYTE   W06
 BYTE   Bn4
 BYTE   W06
 BYTE   An4
 BYTE   W06
 BYTE   Gs4
 BYTE   W06
 BYTE   Gn4  v120
 BYTE   W06
 BYTE   An4
 BYTE   W06
 BYTE   Cn4
 BYTE   W06
 BYTE   N68  En4
 BYTE   W30
// 017   ----------------------------------------
Label_0_014A784E:
 BYTE   W48
 BYTE   N04  Gn4  v120
 BYTE   W06
 BYTE   An4
 BYTE   W06
 BYTE   Cn4
 BYTE   W06
 BYTE   N68  Dn4
 BYTE   W30
 BYTE   PEND 
// 018   ----------------------------------------
Label_0_014A785B:
 BYTE   W48
 BYTE   N04  Gs4  v120
 BYTE   W06
 BYTE   An4
 BYTE   W06
 BYTE   Bn4
 BYTE   W06
 BYTE   N68  Cn5
 BYTE   W30
 BYTE   PEND 
// 019   ----------------------------------------
 BYTE   W48
 BYTE   N04
 BYTE   W06
 BYTE   An4
 BYTE   W06
 BYTE   Cn5
 BYTE   W06
 BYTE   En5
 BYTE   W06
 BYTE   N56  Ds5
 BYTE   W24
// 020   ----------------------------------------
 BYTE   W48
 BYTE   N04  Gn4
 BYTE   W06
 BYTE   An4
 BYTE   W06
 BYTE   Cn4
 BYTE   W06
 BYTE   N68  En4
 BYTE   W30
// 021   ----------------------------------------
 BYTE   PATT
  POIN2 Label_0_014A784E
// 022   ----------------------------------------
 BYTE   PATT
  POIN2 Label_0_014A785B
// 023   ----------------------------------------
 BYTE   W48
 BYTE   N04  Ds5  v120
 BYTE   W06
 BYTE   Dn5
 BYTE   W06
 BYTE   Cn5
 BYTE   W06
 BYTE   N68  Bn4
 BYTE   W30
// 024   ----------------------------------------
 BYTE   W48
 BYTE   N16  Fs4
 BYTE   W18
 BYTE   An4
 BYTE   W18
 BYTE   N05  Fs4
 BYTE   W12
// 025   ----------------------------------------
Label_0_014A789E:
 BYTE   N10  An4  v120
 BYTE   W12
 BYTE   N05  Fs4
 BYTE   W12
 BYTE   N04  As4
 BYTE   W06
 BYTE   N11  An4
 BYTE   W18
 BYTE   N16  Fs4
 BYTE   W18
 BYTE   An4
 BYTE   W18
 BYTE   N05  Fs4
 BYTE   W12
 BYTE   PEND 
// 026   ----------------------------------------
Label_0_014A78B4:
 BYTE   N10  An4  v120
 BYTE   W12
 BYTE   N05  Fs4
 BYTE   W12
 BYTE   N04  Cs5
 BYTE   W06
 BYTE   N11  Cn5
 BYTE   W18
 BYTE   N16  Fs4
 BYTE   W18
 BYTE   An4
 BYTE   W18
 BYTE   N05  Fs4
 BYTE   W12
 BYTE   PEND 
// 027   ----------------------------------------
 BYTE   N10  An4
 BYTE   W12
 BYTE   N05  Fs4
 BYTE   W12
 BYTE   N04  As4
 BYTE   W06
 BYTE   N11  An4
 BYTE   W18
 BYTE   N16  Cs5
 BYTE   W18
 BYTE   Cn5
 BYTE   W18
 BYTE   N07  Bn4
 BYTE   W12
// 028   ----------------------------------------
 BYTE   N11  An4
 BYTE   W18
 BYTE   Gs4
 BYTE   W18
 BYTE   Fn4
 BYTE   W12
 BYTE   N16  Fs4
 BYTE   W18
 BYTE   An4
 BYTE   W18
 BYTE   N05  Fs4
 BYTE   W12
// 029   ----------------------------------------
 BYTE   PATT
  POIN2 Label_0_014A789E
// 030   ----------------------------------------
 BYTE   PATT
  POIN2 Label_0_014A78B4
// 031   ----------------------------------------
 BYTE   N10  An4  v120
 BYTE   W12
 BYTE   N05  Fs4
 BYTE   W12
 BYTE   N04  As4
 BYTE   W06
 BYTE   N11  An4
 BYTE   W18
 BYTE   N16  En5
 BYTE   W18
 BYTE   Ds5
 BYTE   W18
 BYTE   N28  Dn5
 BYTE   W12
// 032   ----------------------------------------
 BYTE   W24
 BYTE   N04  Cs5
 BYTE   W06
 BYTE   Bn4
 BYTE   W06
 BYTE   An4
 BYTE   W06
 BYTE   Gs4
 BYTE   W06
 BYTE   Bn3  v108
 BYTE   W06
 BYTE   En4
 BYTE   W12
 BYTE   Gn4
 BYTE   W12
 BYTE   Bn4
 BYTE   W12
 BYTE   An4
 BYTE   W06
// 033   ----------------------------------------
 BYTE   W06
 BYTE   En4
 BYTE   W06
 BYTE   N10  An4
 BYTE   W12
 BYTE   N04  Gn4
 BYTE   W12
 BYTE   Bn3
 BYTE   W06
 BYTE   En4
 BYTE   W12
 BYTE   Gn4
 BYTE   W12
 BYTE   Bn4
 BYTE   W12
 BYTE   An4
 BYTE   W12
 BYTE   En4
 BYTE   W06
// 034   ----------------------------------------
 BYTE   N10  Gn4
 BYTE   W12
 BYTE   N04  Bn4
 BYTE   W12
 BYTE   Bn3
 BYTE   W06
 BYTE   En4
 BYTE   W12
 BYTE   Gn4
 BYTE   W12
 BYTE   Bn4
 BYTE   W12
 BYTE   An4
 BYTE   W12
 BYTE   En4
 BYTE   W06
 BYTE   N10  An4
 BYTE   W12
// 035   ----------------------------------------
 BYTE   N04  Gn4
 BYTE   W12
 BYTE   En4
 BYTE   W06
 BYTE   An4
 BYTE   W12
 BYTE   Cn5
 BYTE   W12
 BYTE   En5
 BYTE   W12
 BYTE   Dn5
 BYTE   W12
 BYTE   An4
 BYTE   W06
 BYTE   N10  Dn5
 BYTE   W12
 BYTE   N04  Cn5
 BYTE   W12
// 036   ----------------------------------------
 BYTE   En4
 BYTE   W06
 BYTE   An4
 BYTE   W12
 BYTE   Cn5
 BYTE   W12
 BYTE   En5
 BYTE   W12
 BYTE   Dn5
 BYTE   W12
 BYTE   Bn4
 BYTE   W06
 BYTE   N10  Dn5
 BYTE   W12
 BYTE   N04  Cn5
 BYTE   W12
 BYTE   Fs4
 BYTE   W06
 BYTE   Bn4
 BYTE   W06
// 037   ----------------------------------------
 BYTE   W06
 BYTE   Dn5
 BYTE   W12
 BYTE   Fs5
 BYTE   W12
 BYTE   En5
 BYTE   W12
 BYTE   Bn4
 BYTE   W06
 BYTE   N10  En5
 BYTE   W12
 BYTE   N04  Dn5
 BYTE   W12
 BYTE   Fs4
 BYTE   W06
 BYTE   Bn4
 BYTE   W12
 BYTE   Ds5
 BYTE   W06
// 038   ----------------------------------------
 BYTE   W06
 BYTE   Fs5
 BYTE   W12
 BYTE   En5
 BYTE   W06
 BYTE   Ds5
 BYTE   W06
 BYTE   Cn5
 BYTE   W06
 BYTE   Bn4
 BYTE   W06
 BYTE   An4
 BYTE   W06
 BYTE   Gn4
 BYTE   W06
 BYTE   Ds4
 BYTE   W06
 BYTE   Bn3
 BYTE   W06
 BYTE   En4
 BYTE   W12
 BYTE   Gn4
 BYTE   W12
 BYTE   Bn4
 BYTE   W06
// 039   ----------------------------------------
 BYTE   W06
 BYTE   An4
 BYTE   W12
 BYTE   En4
 BYTE   W06
 BYTE   N10  An4
 BYTE   W12
 BYTE   N04  Gn4
 BYTE   W12
 BYTE   Bn3
 BYTE   W06
 BYTE   En4
 BYTE   W12
 BYTE   Gn4
 BYTE   W12
 BYTE   Bn4
 BYTE   W12
 BYTE   An4
 BYTE   W06
// 040   ----------------------------------------
 BYTE   W06
 BYTE   En4
 BYTE   W06
 BYTE   N10  Gn4
 BYTE   W12
 BYTE   N04  Bn4
 BYTE   W12
 BYTE   Bn3
 BYTE   W06
 BYTE   En4
 BYTE   W12
 BYTE   Gn4
 BYTE   W12
 BYTE   Bn4
 BYTE   W12
 BYTE   An4
 BYTE   W12
 BYTE   En4
 BYTE   W06
// 041   ----------------------------------------
 BYTE   N10  An4
 BYTE   W12
 BYTE   N04  Gn4
 BYTE   W12
 BYTE   En4
 BYTE   W06
 BYTE   An4
 BYTE   W12
 BYTE   Cn5
 BYTE   W12
 BYTE   En5
 BYTE   W12
 BYTE   Dn5
 BYTE   W12
 BYTE   An4
 BYTE   W06
 BYTE   N10  Dn5
 BYTE   W12
// 042   ----------------------------------------
 BYTE   N04  Cn5
 BYTE   W12
 BYTE   En4
 BYTE   W06
 BYTE   An4
 BYTE   W12
 BYTE   Cn5
 BYTE   W12
 BYTE   En5
 BYTE   W12
 BYTE   Dn5
 BYTE   W12
 BYTE   Bn4
 BYTE   W06
 BYTE   N10  Dn5
 BYTE   W12
 BYTE   N04  Cn5
 BYTE   W12
// 043   ----------------------------------------
 BYTE   Fs4
 BYTE   W06
 BYTE   Bn4
 BYTE   W12
 BYTE   Dn5
 BYTE   W12
 BYTE   Fs5
 BYTE   W12
 BYTE   En5
 BYTE   W12
 BYTE   Bn4
 BYTE   W06
 BYTE   N10  En5
 BYTE   W12
 BYTE   N04  Dn5
 BYTE   W12
 BYTE   Fs4
 BYTE   W06
 BYTE   Bn4
 BYTE   W06
// 044   ----------------------------------------
 BYTE   W06
 BYTE   Ds5
 BYTE   W12
 BYTE   Fs5
 BYTE   W12
 BYTE   En5
 BYTE   W06
 BYTE   Ds5
 BYTE   W06
 BYTE   Cn5
 BYTE   W06
 BYTE   Bn4
 BYTE   W06
 BYTE   An4
 BYTE   W06
 BYTE   Gn4
 BYTE   W06
 BYTE   N03  Ds4
 BYTE   W03
 BYTE   GoTo
  POIN2 Label_0_014A7766
 BYTE   FINE

//**************** Track 2 (Midi-Chn.1) ****************//

song0105_002:
// 000   ----------------------------------------
 BYTE   KEYSH   song0105_key+0
Label_1_014A7A2A:
 BYTE   VOICE   71
 BYTE   VOL   16*song0105_mvl/mxv
 BYTE   PAN   c_v+0
 BYTE   BEND   c_v+0
 BYTE   W96
// 001   ----------------------------------------
 BYTE   W96
// 002   ----------------------------------------
 BYTE   W96
// 003   ----------------------------------------
 BYTE   W96
// 004   ----------------------------------------
 BYTE   W96
// 005   ----------------------------------------
 BYTE   W96
// 006   ----------------------------------------
 BYTE   W96
// 007   ----------------------------------------
 BYTE   W96
// 008   ----------------------------------------
Label_1_014A7A3A:
 BYTE   W44
 BYTE   W03
 BYTE   N11  Cn4  v127
 BYTE   W18
 BYTE   Ds4
 BYTE   W18
 BYTE   N05  Cn4
 BYTE   W12
 BYTE   N10  Ds4
 BYTE   W01
 BYTE   PEND 
// 009   ----------------------------------------
Label_1_014A7A49:
 BYTE   W11
 BYTE   N05  Cn4  v127
 BYTE   W12
 BYTE   N04  En4
 BYTE   W06
 BYTE   N07  Ds4
 BYTE   W18
 BYTE   N11  Cn4
 BYTE   W18
 BYTE   Ds4
 BYTE   W18
 BYTE   N05  Cn4
 BYTE   W12
 BYTE   N10  Ds4
 BYTE   W01
 BYTE   PEND 
// 010   ----------------------------------------
Label_1_014A7A60:
 BYTE   W11
 BYTE   N05  Cn4  v127
 BYTE   W12
 BYTE   N04  Gn4
 BYTE   W06
 BYTE   N07  Fs4
 BYTE   W18
 BYTE   N11  Cn4
 BYTE   W18
 BYTE   Ds4
 BYTE   W18
 BYTE   N05  Cn4
 BYTE   W12
 BYTE   N10  Ds4
 BYTE   W01
 BYTE   PEND 
// 011   ----------------------------------------
Label_1_014A7A77:
 BYTE   W11
 BYTE   N05  Cn4  v127
 BYTE   W12
 BYTE   N04  En4
 BYTE   W06
 BYTE   N07  Ds4
 BYTE   W18
 BYTE   N11  Gn4
 BYTE   W18
 BYTE   Fs4
 BYTE   W18
 BYTE   N07  Fn4
 BYTE   W12
 BYTE   N11  Ds4
 BYTE   W01
 BYTE   PEND 
// 012   ----------------------------------------
Label_1_014A7A8E:
 BYTE   W17
 BYTE   N11  Dn4  v127
 BYTE   W18
 BYTE   N07  Bn3
 BYTE   W12
 BYTE   N11  Cn4
 BYTE   W18
 BYTE   Ds4
 BYTE   W18
 BYTE   N05  Cn4
 BYTE   W12
 BYTE   N10  Ds4
 BYTE   W01
 BYTE   PEND 
// 013   ----------------------------------------
 BYTE   PATT
  POIN2 Label_1_014A7A49
// 014   ----------------------------------------
 BYTE   PATT
  POIN2 Label_1_014A7A60
// 015   ----------------------------------------
Label_1_014A7AAC:
 BYTE   W11
 BYTE   N05  Cn4  v127
 BYTE   W12
 BYTE   N04  En4
 BYTE   W06
 BYTE   N07  Ds4
 BYTE   W18
 BYTE   N11  As4
 BYTE   W18
 BYTE   An4
 BYTE   W18
 BYTE   N28  Gs4
 BYTE   W13
 BYTE   PEND 
// 016   ----------------------------------------
 BYTE   W23
 BYTE   N04  Gn4
 BYTE   W06
 BYTE   Fn4
 BYTE   W06
 BYTE   Ds4
 BYTE   W06
 BYTE   Dn4
 BYTE   W54
 BYTE   W01
// 017   ----------------------------------------
 BYTE   W96
// 018   ----------------------------------------
 BYTE   W96
// 019   ----------------------------------------
 BYTE   W96
// 020   ----------------------------------------
 BYTE   W96
// 021   ----------------------------------------
 BYTE   W96
// 022   ----------------------------------------
 BYTE   W96
// 023   ----------------------------------------
 BYTE   W96
// 024   ----------------------------------------
 BYTE   PATT
  POIN2 Label_1_014A7A3A
// 025   ----------------------------------------
 BYTE   PATT
  POIN2 Label_1_014A7A49
// 026   ----------------------------------------
 BYTE   PATT
  POIN2 Label_1_014A7A60
// 027   ----------------------------------------
 BYTE   PATT
  POIN2 Label_1_014A7A77
// 028   ----------------------------------------
 BYTE   PATT
  POIN2 Label_1_014A7A8E
// 029   ----------------------------------------
 BYTE   PATT
  POIN2 Label_1_014A7A49
// 030   ----------------------------------------
 BYTE   PATT
  POIN2 Label_1_014A7A60
// 031   ----------------------------------------
 BYTE   PATT
  POIN2 Label_1_014A7AAC
// 032   ----------------------------------------
 BYTE   W23
 BYTE   N04  Gn4  v127
 BYTE   W06
 BYTE   Fn4
 BYTE   W06
 BYTE   Ds4
 BYTE   W06
 BYTE   Dn4
 BYTE   W06
 BYTE   En3
 BYTE   W06
 BYTE   Gn3
 BYTE   W12
 BYTE   Bn3
 BYTE   W12
 BYTE   Dn4
 BYTE   W12
 BYTE   Cs4
 BYTE   W07
// 033   ----------------------------------------
 BYTE   W05
 BYTE   An3
 BYTE   W06
 BYTE   N10  Cs4
 BYTE   W12
 BYTE   N04  Bn3
 BYTE   W12
 BYTE   En3
 BYTE   W06
 BYTE   Gn3
 BYTE   W12
 BYTE   Bn3
 BYTE   W12
 BYTE   Dn4
 BYTE   W12
 BYTE   Cs4
 BYTE   W12
 BYTE   An3
 BYTE   W06
 BYTE   N10  Bn3
 BYTE   W01
// 034   ----------------------------------------
 BYTE   W11
 BYTE   N04  En4
 BYTE   W12
 BYTE   En3
 BYTE   W06
 BYTE   Gn3
 BYTE   W12
 BYTE   Bn3
 BYTE   W12
 BYTE   Dn4
 BYTE   W12
 BYTE   Cs4
 BYTE   W12
 BYTE   An3
 BYTE   W06
 BYTE   N10  Cs4
 BYTE   W12
 BYTE   N04  Bn3
 BYTE   W01
// 035   ----------------------------------------
 BYTE   W11
 BYTE   An3
 BYTE   W06
 BYTE   Cn4
 BYTE   W12
 BYTE   En4
 BYTE   W12
 BYTE   Gn4
 BYTE   W12
 BYTE   Fs4
 BYTE   W12
 BYTE   Dn4
 BYTE   W06
 BYTE   N10  Fs4
 BYTE   W12
 BYTE   N04  En4
 BYTE   W12
 BYTE   An3
 BYTE   W01
// 036   ----------------------------------------
 BYTE   W05
 BYTE   Cn4
 BYTE   W12
 BYTE   En4
 BYTE   W12
 BYTE   Gn4
 BYTE   W12
 BYTE   Fs4
 BYTE   W12
 BYTE   Dn4
 BYTE   W06
 BYTE   N10  Fs4
 BYTE   W12
 BYTE   N04  En4
 BYTE   W12
 BYTE   Bn3
 BYTE   W06
 BYTE   Dn4
 BYTE   W07
// 037   ----------------------------------------
 BYTE   W05
 BYTE   Fs4
 BYTE   W12
 BYTE   An4
 BYTE   W12
 BYTE   Gn4
 BYTE   W12
 BYTE   En4
 BYTE   W06
 BYTE   N10  Gn4
 BYTE   W12
 BYTE   N04  Fs4
 BYTE   W12
 BYTE   Bn3
 BYTE   W06
 BYTE   Ds4
 BYTE   W12
 BYTE   Fs4
 BYTE   W07
// 038   ----------------------------------------
 BYTE   W05
 BYTE   An4
 BYTE   W12
 BYTE   Gn4
 BYTE   W06
 BYTE   Fs4
 BYTE   W06
 BYTE   En4
 BYTE   W06
 BYTE   Ds4
 BYTE   W06
 BYTE   Cn4
 BYTE   W06
 BYTE   Bn3
 BYTE   W06
 BYTE   Fs3
 BYTE   W06
 BYTE   En3
 BYTE   W06
 BYTE   Gn3
 BYTE   W12
 BYTE   Bn3
 BYTE   W12
 BYTE   Dn4
 BYTE   W07
// 039   ----------------------------------------
 BYTE   W05
 BYTE   Cs4
 BYTE   W12
 BYTE   An3
 BYTE   W06
 BYTE   N10  Cs4
 BYTE   W12
 BYTE   N04  Bn3
 BYTE   W12
 BYTE   En3
 BYTE   W06
 BYTE   Gn3
 BYTE   W12
 BYTE   Bn3
 BYTE   W12
 BYTE   Dn4
 BYTE   W12
 BYTE   Cs4
 BYTE   W07
// 040   ----------------------------------------
 BYTE   W05
 BYTE   An3
 BYTE   W06
 BYTE   N10  Bn3
 BYTE   W12
 BYTE   N04  En4
 BYTE   W12
 BYTE   En3
 BYTE   W06
 BYTE   Gn3
 BYTE   W12
 BYTE   Bn3
 BYTE   W12
 BYTE   Dn4
 BYTE   W12
 BYTE   Cs4
 BYTE   W12
 BYTE   An3
 BYTE   W06
 BYTE   N10  Cs4
 BYTE   W01
// 041   ----------------------------------------
 BYTE   W11
 BYTE   N04  Bn3
 BYTE   W12
 BYTE   An3
 BYTE   W06
 BYTE   Cn4
 BYTE   W12
 BYTE   En4
 BYTE   W12
 BYTE   Gn4
 BYTE   W12
 BYTE   Fs4
 BYTE   W12
 BYTE   Dn4
 BYTE   W06
 BYTE   N10  Fs4
 BYTE   W12
 BYTE   N04  En4
 BYTE   W01
// 042   ----------------------------------------
 BYTE   W11
 BYTE   An3
 BYTE   W06
 BYTE   Cn4
 BYTE   W12
 BYTE   En4
 BYTE   W12
 BYTE   Gn4
 BYTE   W12
 BYTE   Fs4
 BYTE   W12
 BYTE   Dn4
 BYTE   W06
 BYTE   N10  Fs4
 BYTE   W12
 BYTE   N04  En4
 BYTE   W12
 BYTE   Bn3
 BYTE   W01
// 043   ----------------------------------------
 BYTE   W05
 BYTE   Dn4
 BYTE   W12
 BYTE   Fs4
 BYTE   W12
 BYTE   An4
 BYTE   W12
 BYTE   Gn4
 BYTE   W12
 BYTE   En4
 BYTE   W06
 BYTE   N10  Gn4
 BYTE   W12
 BYTE   N04  Fs4
 BYTE   W12
 BYTE   Bn3
 BYTE   W06
 BYTE   Ds4
 BYTE   W07
// 044   ----------------------------------------
 BYTE   W05
 BYTE   Fs4
 BYTE   W12
 BYTE   An4
 BYTE   W12
 BYTE   Gn4
 BYTE   W06
 BYTE   Fs4
 BYTE   W06
 BYTE   En4
 BYTE   W06
 BYTE   Ds4
 BYTE   W06
 BYTE   Cn4
 BYTE   W06
 BYTE   Bn3
 BYTE   W10
 BYTE   GoTo
  POIN2 Label_1_014A7A2A
 BYTE   FINE

//**************** Track 3 (Midi-Chn.2) ****************//

song0105_003:
// 000   ----------------------------------------
 BYTE   KEYSH   song0105_key+0
Label_2_014A7C1B:
 BYTE   VOICE   33
 BYTE   VOL   41*song0105_mvl/mxv
 BYTE   PAN   c_v+0
 BYTE   BEND   c_v+0
 BYTE   W48
 BYTE   N10  An0  v127
 BYTE   W12
 BYTE   N01
 BYTE   W06
 BYTE   N10
 BYTE   W12
 BYTE   N01
 BYTE   W06
 BYTE   N10
 BYTE   W12
// 001   ----------------------------------------
Label_2_014A7C30:
 BYTE   N01  An0  v127
 BYTE   W06
 BYTE   N10
 BYTE   W12
 BYTE   N01
 BYTE   W06
 BYTE   N04
 BYTE   W06
 BYTE   Gn0
 BYTE   W06
 BYTE   Gn1
 BYTE   W06
 BYTE   An1
 BYTE   W06
 BYTE   N10  An0
 BYTE   W12
 BYTE   N01
 BYTE   W06
 BYTE   N10
 BYTE   W12
 BYTE   N01
 BYTE   W06
 BYTE   N10
 BYTE   W12
 BYTE   PEND 
// 002   ----------------------------------------
 BYTE   PATT
  POIN2 Label_2_014A7C30
// 003   ----------------------------------------
Label_2_014A7C51:
 BYTE   N01  An0  v127
 BYTE   W06
 BYTE   N10
 BYTE   W12
 BYTE   N01
 BYTE   W06
 BYTE   N04
 BYTE   W06
 BYTE   Gn0
 BYTE   W06
 BYTE   Cn2
 BYTE   W06
 BYTE   Bn1
 BYTE   W06
 BYTE   N10  An0
 BYTE   W12
 BYTE   N01
 BYTE   W06
 BYTE   N10
 BYTE   W12
 BYTE   N01
 BYTE   W06
 BYTE   N10
 BYTE   W12
 BYTE   PEND 
// 004   ----------------------------------------
Label_2_014A7C6D:
 BYTE   N01  An0  v127
 BYTE   W06
 BYTE   N10
 BYTE   W12
 BYTE   N01
 BYTE   W06
 BYTE   N04
 BYTE   W06
 BYTE   Gn0
 BYTE   W06
 BYTE   Gn1
 BYTE   W06
 BYTE   Gs1
 BYTE   W06
 BYTE   N10  An0
 BYTE   W12
 BYTE   N01
 BYTE   W06
 BYTE   N10
 BYTE   W12
 BYTE   N01
 BYTE   W06
 BYTE   N10
 BYTE   W12
 BYTE   PEND 
// 005   ----------------------------------------
 BYTE   PATT
  POIN2 Label_2_014A7C30
// 006   ----------------------------------------
 BYTE   PATT
  POIN2 Label_2_014A7C30
// 007   ----------------------------------------
 BYTE   PATT
  POIN2 Label_2_014A7C51
// 008   ----------------------------------------
Label_2_014A7C98:
 BYTE   N01  An0  v127
 BYTE   W06
 BYTE   N10
 BYTE   W12
 BYTE   N01
 BYTE   W06
 BYTE   N04
 BYTE   W06
 BYTE   Gn0
 BYTE   W06
 BYTE   Gn1
 BYTE   W06
 BYTE   Gs1
 BYTE   W06
 BYTE   VOICE   32
 BYTE   N16  En0
 BYTE   W18
 BYTE   En1
 BYTE   W18
 BYTE   N10  Fs1
 BYTE   W12
 BYTE   PEND 
// 009   ----------------------------------------
Label_2_014A7CB3:
 BYTE   N10  Gn1  v127
 BYTE   W12
 BYTE   An1
 BYTE   W12
 BYTE   N04  As1
 BYTE   W06
 BYTE   Bn1
 BYTE   W06
 BYTE   N10  Ds1
 BYTE   W12
 BYTE   N16  En0
 BYTE   W18
 BYTE   As0
 BYTE   W18
 BYTE   N10  En1
 BYTE   W12
 BYTE   PEND 
// 010   ----------------------------------------
Label_2_014A7CCA:
 BYTE   N10  Fs1  v127
 BYTE   W12
 BYTE   Gn1
 BYTE   W12
 BYTE   N04  An1
 BYTE   W06
 BYTE   As1
 BYTE   W06
 BYTE   N10  Bn1
 BYTE   W12
 BYTE   N16  En0
 BYTE   W18
 BYTE   En1
 BYTE   W18
 BYTE   N10  Fs1
 BYTE   W12
 BYTE   PEND 
// 011   ----------------------------------------
 BYTE   PATT
  POIN2 Label_2_014A7CB3
// 012   ----------------------------------------
Label_2_014A7CE6:
 BYTE   N10  Fs1  v127
 BYTE   W12
 BYTE   Gn1
 BYTE   W12
 BYTE   N04  An1
 BYTE   W06
 BYTE   As1
 BYTE   W06
 BYTE   N10  Bn1
 BYTE   W12
 BYTE   En0
 BYTE   W12
 BYTE   En1
 BYTE   W12
 BYTE   Fs1
 BYTE   W12
 BYTE   Gn1
 BYTE   W12
 BYTE   PEND 
// 013   ----------------------------------------
Label_2_014A7CFD:
 BYTE   N10  An1  v127
 BYTE   W12
 BYTE   As1
 BYTE   W12
 BYTE   Bn1
 BYTE   W12
 BYTE   Cn2
 BYTE   W12
 BYTE   N06  Bn1
 BYTE   W08
 BYTE   N04  Fs1
 BYTE   W04
 BYTE   N10  As1
 BYTE   W12
 BYTE   An1
 BYTE   W12
 BYTE   Gs1
 BYTE   W12
 BYTE   PEND 
// 014   ----------------------------------------
Label_2_014A7D15:
 BYTE   N10  Gn1  v127
 BYTE   W12
 BYTE   Fs1
 BYTE   W12
 BYTE   N06  Fn1
 BYTE   W08
 BYTE   N02  Cn1
 BYTE   W04
 BYTE   N10  En1
 BYTE   W12
 BYTE   N06  Ds1
 BYTE   W08
 BYTE   N02  Dn1
 BYTE   W04
 BYTE   N10  Cs1
 BYTE   W12
 BYTE   Cn1
 BYTE   W12
 BYTE   Bn0
 BYTE   W12
 BYTE   PEND 
// 015   ----------------------------------------
Label_2_014A7D32:
 BYTE   N10  As0  v127
 BYTE   W12
 BYTE   An0
 BYTE   W12
 BYTE   N06  Gs0
 BYTE   W08
 BYTE   N02  Gn0
 BYTE   W04
 BYTE   N10  Fs0
 BYTE   W12
 BYTE   N06  Fn0
 BYTE   W08
 BYTE   N02
 BYTE   W04
 BYTE   N10  Fs0
 BYTE   W12
 BYTE   Gs0
 BYTE   W12
 BYTE   N06  An0
 BYTE   W08
 BYTE   N02
 BYTE   W04
 BYTE   PEND 
// 016   ----------------------------------------
 BYTE   N10  Bn0
 BYTE   W12
 BYTE   Cn1
 BYTE   W12
 BYTE   Dn1
 BYTE   W12
 BYTE   Ds1
 BYTE   W12
 BYTE   VOICE   33
 BYTE   N10  An0
 BYTE   W12
 BYTE   N01
 BYTE   W06
 BYTE   N10
 BYTE   W12
 BYTE   N01
 BYTE   W06
 BYTE   N10
 BYTE   W12
// 017   ----------------------------------------
 BYTE   PATT
  POIN2 Label_2_014A7C30
// 018   ----------------------------------------
 BYTE   PATT
  POIN2 Label_2_014A7C30
// 019   ----------------------------------------
 BYTE   PATT
  POIN2 Label_2_014A7C51
// 020   ----------------------------------------
 BYTE   PATT
  POIN2 Label_2_014A7C6D
// 021   ----------------------------------------
 BYTE   PATT
  POIN2 Label_2_014A7C30
// 022   ----------------------------------------
 BYTE   PATT
  POIN2 Label_2_014A7C30
// 023   ----------------------------------------
 BYTE   PATT
  POIN2 Label_2_014A7C51
// 024   ----------------------------------------
 BYTE   PATT
  POIN2 Label_2_014A7C98
// 025   ----------------------------------------
 BYTE   PATT
  POIN2 Label_2_014A7CB3
// 026   ----------------------------------------
 BYTE   PATT
  POIN2 Label_2_014A7CCA
// 027   ----------------------------------------
 BYTE   PATT
  POIN2 Label_2_014A7CB3
// 028   ----------------------------------------
 BYTE   PATT
  POIN2 Label_2_014A7CE6
// 029   ----------------------------------------
 BYTE   PATT
  POIN2 Label_2_014A7CFD
// 030   ----------------------------------------
 BYTE   PATT
  POIN2 Label_2_014A7D15
// 031   ----------------------------------------
 BYTE   PATT
  POIN2 Label_2_014A7D32
// 032   ----------------------------------------
 BYTE   N10  Bn0  v127
 BYTE   W12
 BYTE   Cn1
 BYTE   W12
 BYTE   Dn1
 BYTE   W12
 BYTE   Ds1
 BYTE   W12
 BYTE   VOICE   33
 BYTE   N04  En0
 BYTE   W06
 BYTE   N04
 BYTE   W06
 BYTE   N04
 BYTE   W06
 BYTE   N10  En1
 BYTE   W12
 BYTE   En0
 BYTE   W12
 BYTE   N04
 BYTE   W06
// 033   ----------------------------------------
Label_2_014A7DCC:
 BYTE   N10  En1  v127
 BYTE   W12
 BYTE   N04  Dn1
 BYTE   W06
 BYTE   N01
 BYTE   W06
 BYTE   N04  En1
 BYTE   W06
 BYTE   Ds0
 BYTE   W06
 BYTE   En0
 BYTE   W06
 BYTE   N04
 BYTE   W06
 BYTE   N04
 BYTE   W06
 BYTE   N10  En1
 BYTE   W12
 BYTE   En0
 BYTE   W12
 BYTE   N04
 BYTE   W06
 BYTE   N10  En1
 BYTE   W12
 BYTE   PEND 
// 034   ----------------------------------------
 BYTE   N04  Dn1
 BYTE   W06
 BYTE   N01
 BYTE   W06
 BYTE   N04  En1
 BYTE   W06
 BYTE   Ds0
 BYTE   W06
 BYTE   En0
 BYTE   W06
 BYTE   N04
 BYTE   W06
 BYTE   N04
 BYTE   W06
 BYTE   N10  En1
 BYTE   W12
 BYTE   En0
 BYTE   W12
 BYTE   N04
 BYTE   W06
 BYTE   N10  En1
 BYTE   W12
 BYTE   N04  Dn1
 BYTE   W06
 BYTE   N01
 BYTE   W06
// 035   ----------------------------------------
 BYTE   N04  En1
 BYTE   W06
 BYTE   Ds0
 BYTE   W06
 BYTE   An0
 BYTE   W06
 BYTE   N04
 BYTE   W06
 BYTE   N04
 BYTE   W06
 BYTE   N10  An1
 BYTE   W12
 BYTE   An0
 BYTE   W12
 BYTE   N04
 BYTE   W06
 BYTE   N10  An1
 BYTE   W12
 BYTE   N04  Gn1
 BYTE   W06
 BYTE   N01
 BYTE   W06
 BYTE   N04  An1
 BYTE   W06
 BYTE   Gs0
 BYTE   W06
// 036   ----------------------------------------
 BYTE   An0
 BYTE   W06
 BYTE   N04
 BYTE   W06
 BYTE   N04
 BYTE   W06
 BYTE   N10  An1
 BYTE   W12
 BYTE   An0
 BYTE   W12
 BYTE   N04
 BYTE   W06
 BYTE   N10  An1
 BYTE   W12
 BYTE   N04  Gn1
 BYTE   W06
 BYTE   N01
 BYTE   W06
 BYTE   N04  An1
 BYTE   W06
 BYTE   Gs0
 BYTE   W06
 BYTE   Bn0
 BYTE   W06
 BYTE   N04
 BYTE   W06
// 037   ----------------------------------------
 BYTE   N04
 BYTE   W06
 BYTE   N10  Bn1
 BYTE   W12
 BYTE   Bn0
 BYTE   W12
 BYTE   N04
 BYTE   W06
 BYTE   N10  Bn1
 BYTE   W12
 BYTE   N04  An1
 BYTE   W06
 BYTE   N01
 BYTE   W06
 BYTE   N04  Bn1
 BYTE   W06
 BYTE   As0
 BYTE   W06
 BYTE   Bn0
 BYTE   W06
 BYTE   N04
 BYTE   W06
 BYTE   N04
 BYTE   W06
 BYTE   N10  Bn1
 BYTE   W06
// 038   ----------------------------------------
 BYTE   W06
 BYTE   Bn0
 BYTE   W12
 BYTE   N04
 BYTE   W06
 BYTE   N10  Bn1
 BYTE   W12
 BYTE   N04  An1
 BYTE   W06
 BYTE   N01
 BYTE   W06
 BYTE   N04  Bn1
 BYTE   W06
 BYTE   As0
 BYTE   W06
 BYTE   En0
 BYTE   W06
 BYTE   N04
 BYTE   W06
 BYTE   N04
 BYTE   W06
 BYTE   N10  En1
 BYTE   W12
 BYTE   En0
 BYTE   W06
// 039   ----------------------------------------
 BYTE   W06
 BYTE   N04
 BYTE   W06
 BYTE   N10  En1
 BYTE   W12
 BYTE   N04  Dn1
 BYTE   W06
 BYTE   N01
 BYTE   W06
 BYTE   N04  En1
 BYTE   W06
 BYTE   Ds0
 BYTE   W06
 BYTE   En0
 BYTE   W06
 BYTE   N04
 BYTE   W06
 BYTE   N04
 BYTE   W06
 BYTE   N10  En1
 BYTE   W12
 BYTE   En0
 BYTE   W12
 BYTE   N04
 BYTE   W06
// 040   ----------------------------------------
 BYTE   PATT
  POIN2 Label_2_014A7DCC
// 041   ----------------------------------------
 BYTE   N04  Dn1  v127
 BYTE   W06
 BYTE   N01
 BYTE   W06
 BYTE   N04  En1
 BYTE   W06
 BYTE   Ds0
 BYTE   W06
 BYTE   An0
 BYTE   W06
 BYTE   N04
 BYTE   W06
 BYTE   N04
 BYTE   W06
 BYTE   N10  An1
 BYTE   W12
 BYTE   An0
 BYTE   W12
 BYTE   N04
 BYTE   W06
 BYTE   N10  An1
 BYTE   W12
 BYTE   N04  Gn1
 BYTE   W06
 BYTE   N01
 BYTE   W06
// 042   ----------------------------------------
 BYTE   N04  An1
 BYTE   W06
 BYTE   Gs0
 BYTE   W06
 BYTE   An0
 BYTE   W06
 BYTE   N04
 BYTE   W06
 BYTE   N04
 BYTE   W06
 BYTE   N10  An1
 BYTE   W12
 BYTE   An0
 BYTE   W12
 BYTE   N04
 BYTE   W06
 BYTE   N10  An1
 BYTE   W12
 BYTE   N04  Gn1
 BYTE   W06
 BYTE   N01
 BYTE   W06
 BYTE   N04  An1
 BYTE   W06
 BYTE   Gs0
 BYTE   W06
// 043   ----------------------------------------
 BYTE   Bn0
 BYTE   W06
 BYTE   N04
 BYTE   W06
 BYTE   N04
 BYTE   W06
 BYTE   N10  Bn1
 BYTE   W12
 BYTE   Bn0
 BYTE   W12
 BYTE   N04
 BYTE   W06
 BYTE   N10  Bn1
 BYTE   W12
 BYTE   N04  An1
 BYTE   W06
 BYTE   N01
 BYTE   W06
 BYTE   N04  Bn1
 BYTE   W06
 BYTE   As0
 BYTE   W06
 BYTE   Bn0
 BYTE   W06
 BYTE   N04
 BYTE   W06
// 044   ----------------------------------------
 BYTE   N04
 BYTE   W06
 BYTE   N10  Bn1
 BYTE   W12
 BYTE   Bn0
 BYTE   W12
 BYTE   N04
 BYTE   W06
 BYTE   N10  Bn1
 BYTE   W12
 BYTE   N04  An1
 BYTE   W06
 BYTE   N01
 BYTE   W06
 BYTE   N04  Bn1
 BYTE   W06
 BYTE   N03  As0
 BYTE   W03
 BYTE   GoTo
  POIN2 Label_2_014A7C1B
 BYTE   FINE

//**************** Track 4 (Midi-Chn.3) ****************//

song0105_004:
// 000   ----------------------------------------
 BYTE   KEYSH   song0105_key+0
Label_3_014A7F21:
 BYTE   VOICE   56
 BYTE   VOL   30*song0105_mvl/mxv
 BYTE   PAN   c_v+6
 BYTE   BEND   c_v+0
 BYTE   W96
// 001   ----------------------------------------
 BYTE   W96
// 002   ----------------------------------------
 BYTE   W96
// 003   ----------------------------------------
 BYTE   W96
// 004   ----------------------------------------
 BYTE   W96
// 005   ----------------------------------------
 BYTE   W96
// 006   ----------------------------------------
 BYTE   W96
// 007   ----------------------------------------
 BYTE   W96
// 008   ----------------------------------------
 BYTE   W96
// 009   ----------------------------------------
 BYTE   W96
// 010   ----------------------------------------
 BYTE   W96
// 011   ----------------------------------------
 BYTE   W96
// 012   ----------------------------------------
 BYTE   W96
// 013   ----------------------------------------
 BYTE   W96
// 014   ----------------------------------------
 BYTE   W96
// 015   ----------------------------------------
 BYTE   W96
// 016   ----------------------------------------
Label_3_014A7F39:
 BYTE   W48
 BYTE   N04  Bn3  v112
 BYTE   W06
 BYTE   Cn4
 BYTE   W06
 BYTE   En3
 BYTE   W06
 BYTE   N68  Gn3
 BYTE   W30
 BYTE   PEND 
// 017   ----------------------------------------
Label_3_014A7F46:
 BYTE   W48
 BYTE   N04  Bn3  v112
 BYTE   W06
 BYTE   Cn4
 BYTE   W06
 BYTE   En3
 BYTE   W06
 BYTE   N68  Fs3
 BYTE   W30
 BYTE   PEND 
// 018   ----------------------------------------
Label_3_014A7F53:
 BYTE   W48
 BYTE   N04  Bn3  v112
 BYTE   W06
 BYTE   Cn4
 BYTE   W06
 BYTE   Dn4
 BYTE   W06
 BYTE   N68  Ds4
 BYTE   W30
 BYTE   PEND 
// 019   ----------------------------------------
 BYTE   W48
 BYTE   N04
 BYTE   W06
 BYTE   Cn4
 BYTE   W06
 BYTE   Ds4
 BYTE   W06
 BYTE   Gn4
 BYTE   W06
 BYTE   N56  Fs4
 BYTE   W24
// 020   ----------------------------------------
 BYTE   PATT
  POIN2 Label_3_014A7F39
// 021   ----------------------------------------
 BYTE   PATT
  POIN2 Label_3_014A7F46
// 022   ----------------------------------------
 BYTE   PATT
  POIN2 Label_3_014A7F53
// 023   ----------------------------------------
 BYTE   W48
 BYTE   N04  Fs4  v112
 BYTE   W06
 BYTE   Fn4
 BYTE   W06
 BYTE   Ds4
 BYTE   W06
 BYTE   N68  Dn4
 BYTE   W30
// 024   ----------------------------------------
 BYTE   W48
 BYTE   N16  Ds4
 BYTE   W18
 BYTE   Fs4
 BYTE   W18
 BYTE   N05  Ds4
 BYTE   W12
// 025   ----------------------------------------
Label_3_014A7F90:
 BYTE   N10  Fs4  v112
 BYTE   W12
 BYTE   N05  Ds4
 BYTE   W12
 BYTE   N04  Gn4
 BYTE   W06
 BYTE   N11  Fs4
 BYTE   W18
 BYTE   N16  Ds4
 BYTE   W18
 BYTE   Fs4
 BYTE   W18
 BYTE   N05  Ds4
 BYTE   W12
 BYTE   PEND 
// 026   ----------------------------------------
Label_3_014A7FA6:
 BYTE   N10  Fs4  v112
 BYTE   W12
 BYTE   N05  Ds4
 BYTE   W12
 BYTE   N04  As4
 BYTE   W06
 BYTE   N11  An4
 BYTE   W18
 BYTE   N16  Ds4
 BYTE   W18
 BYTE   Fs4
 BYTE   W18
 BYTE   N05  Ds4
 BYTE   W12
 BYTE   PEND 
// 027   ----------------------------------------
 BYTE   N10  Fs4
 BYTE   W12
 BYTE   N05  Ds4
 BYTE   W12
 BYTE   N04  Gn4
 BYTE   W06
 BYTE   N11  Fs4
 BYTE   W18
 BYTE   N16  As4
 BYTE   W18
 BYTE   An4
 BYTE   W18
 BYTE   N07  Gs4
 BYTE   W12
// 028   ----------------------------------------
 BYTE   N11  Fs4
 BYTE   W18
 BYTE   Fn4
 BYTE   W18
 BYTE   Dn4
 BYTE   W12
 BYTE   N16  Ds4
 BYTE   W18
 BYTE   Fs4
 BYTE   W18
 BYTE   N05  Ds4
 BYTE   W12
// 029   ----------------------------------------
 BYTE   PATT
  POIN2 Label_3_014A7F90
// 030   ----------------------------------------
 BYTE   PATT
  POIN2 Label_3_014A7FA6
// 031   ----------------------------------------
 BYTE   N10  Fs4  v112
 BYTE   W12
 BYTE   N05  Ds4
 BYTE   W12
 BYTE   N04  Gn4
 BYTE   W06
 BYTE   N11  Fs4
 BYTE   W18
 BYTE   N16  Cs5
 BYTE   W18
 BYTE   Cn5
 BYTE   W18
 BYTE   N28  Bn4
 BYTE   W12
// 032   ----------------------------------------
 BYTE   W24
 BYTE   N04  As4
 BYTE   W06
 BYTE   Gs4
 BYTE   W06
 BYTE   Fs4
 BYTE   W06
 BYTE   Fn4
 BYTE   W54
// 033   ----------------------------------------
 BYTE   W96
// 034   ----------------------------------------
 BYTE   W96
// 035   ----------------------------------------
 BYTE   W96
// 036   ----------------------------------------
 BYTE   W96
// 037   ----------------------------------------
 BYTE   W96
// 038   ----------------------------------------
 BYTE   W96
// 039   ----------------------------------------
 BYTE   W96
// 040   ----------------------------------------
 BYTE   W96
// 041   ----------------------------------------
 BYTE   W96
// 042   ----------------------------------------
 BYTE   W96
// 043   ----------------------------------------
 BYTE   W96
// 044   ----------------------------------------
 BYTE   W68
 BYTE   W01
 BYTE   GoTo
  POIN2 Label_3_014A7F21
 BYTE   FINE

//**************** Track 5 (Midi-Chn.4) ****************//

song0105_005:
// 000   ----------------------------------------
 BYTE   KEYSH   song0105_key+0
Label_4_014A801D:
 BYTE   VOICE   63
 BYTE   VOL   38*song0105_mvl/mxv
 BYTE   PAN   c_v-10
 BYTE   BEND   c_v+0
 BYTE   W96
// 001   ----------------------------------------
 BYTE   W96
// 002   ----------------------------------------
 BYTE   W96
// 003   ----------------------------------------
 BYTE   W96
// 004   ----------------------------------------
 BYTE   W96
// 005   ----------------------------------------
 BYTE   W96
// 006   ----------------------------------------
 BYTE   W96
// 007   ----------------------------------------
 BYTE   W96
// 008   ----------------------------------------
 BYTE   W96
// 009   ----------------------------------------
 BYTE   W96
// 010   ----------------------------------------
 BYTE   W96
// 011   ----------------------------------------
 BYTE   W96
// 012   ----------------------------------------
 BYTE   W96
// 013   ----------------------------------------
 BYTE   W96
// 014   ----------------------------------------
 BYTE   W96
// 015   ----------------------------------------
 BYTE   W96
// 016   ----------------------------------------
 BYTE   W96
// 017   ----------------------------------------
 BYTE   W96
// 018   ----------------------------------------
 BYTE   W96
// 019   ----------------------------------------
 BYTE   W96
// 020   ----------------------------------------
 BYTE   W96
// 021   ----------------------------------------
 BYTE   W96
// 022   ----------------------------------------
 BYTE   W96
// 023   ----------------------------------------
 BYTE   W96
// 024   ----------------------------------------
 BYTE   W96
// 025   ----------------------------------------
 BYTE   W96
// 026   ----------------------------------------
 BYTE   W96
// 027   ----------------------------------------
 BYTE   W96
// 028   ----------------------------------------
 BYTE   W96
// 029   ----------------------------------------
 BYTE   W96
// 030   ----------------------------------------
 BYTE   W96
// 031   ----------------------------------------
 BYTE   W96
// 032   ----------------------------------------
 BYTE   W48
 BYTE   N05  Bn4  v092
 BYTE   W06
 BYTE   N06  Cn5
 BYTE   W12
 BYTE   N05  An4
 BYTE   W12
 BYTE   Bn4
 BYTE   W12
 BYTE   N04  Gn4
 BYTE   W06
// 033   ----------------------------------------
 BYTE   W06
 BYTE   N05  An4
 BYTE   W06
 BYTE   N04  Fs4
 BYTE   W12
 BYTE   N06  Gn4
 BYTE   W12
 BYTE   N03  En4
 BYTE   W06
 BYTE   N04  Fs4
 BYTE   W12
 BYTE   N05  Gn4
 BYTE   W12
 BYTE   An4
 BYTE   W12
 BYTE   N36  Bn4
 BYTE   W16
 BYTE   BEND   c_v+5
 BYTE   W01
 BYTE   BEND   c_v+8
 BYTE   W01
// 034   ----------------------------------------
 BYTE   W01
 BYTE   BEND   c_v+5
 BYTE   W01
 BYTE   BEND   c_v+2
 BYTE   W02
 BYTE   BEND   c_v+4
 BYTE   W01
 BYTE   BEND   c_v+9
 BYTE   W02
 BYTE   BEND   c_v+6
 BYTE   W01
 BYTE   BEND   c_v+3
 BYTE   W01
 BYTE   BEND   c_v+2
 BYTE   W01
 BYTE   BEND   c_v+2
 BYTE   W01
 BYTE   BEND   c_v+9
 BYTE   W01
 BYTE   BEND   c_v+10
 BYTE   W02
 BYTE   BEND   c_v+8
 BYTE   W01
 BYTE   BEND   c_v+5
 BYTE   W01
 BYTE   BEND   c_v+3
 BYTE   W01
 BYTE   BEND   c_v+5
 BYTE   W01
 BYTE   BEND   c_v+7
 BYTE   W02
 BYTE   BEND   c_v+6
 BYTE   W01
 BYTE   BEND   c_v+4
 BYTE   W01
 BYTE   BEND   c_v+0
 BYTE   W02
 BYTE   N28  An4
 BYTE   W03
 BYTE   BEND   c_v+1
 BYTE   W01
 BYTE   BEND   c_v+10
 BYTE   W13
 BYTE   BEND   c_v+9
 BYTE   W01
 BYTE   BEND   c_v+8
 BYTE   W01
 BYTE   BEND   c_v+7
 BYTE   W01
 BYTE   BEND   c_v+6
 BYTE   W01
 BYTE   BEND   c_v+5
 BYTE   W01
 BYTE   BEND   c_v+4
 BYTE   W01
 BYTE   BEND   c_v+3
 BYTE   W01
 BYTE   BEND   c_v+1
 BYTE   W01
 BYTE   BEND   c_v+0
 BYTE   W05
 BYTE   N05  Gn4
 BYTE   W06
 BYTE   Fs4
 BYTE   W06
 BYTE   En4
 BYTE   W06
 BYTE   Gn4
 BYTE   W06
 BYTE   Fs4
 BYTE   W06
 BYTE   Dn4
 BYTE   W06
 BYTE   N11  An3
 BYTE   W06
// 035   ----------------------------------------
 BYTE   W06
 BYTE   N04  Gn3
 BYTE   W06
 BYTE   Fs3
 BYTE   W06
 BYTE   N06  Gn3
 BYTE   W12
 BYTE   N05  An3
 BYTE   W12
 BYTE   Bn3
 BYTE   W12
 BYTE   N04
 BYTE   W06
 BYTE   N11  Cn4
 BYTE   W12
 BYTE   N03  Bn3
 BYTE   W04
 BYTE   An3
 BYTE   W04
 BYTE   Bn3
 BYTE   W04
 BYTE   An3
 BYTE   W04
 BYTE   Gn3
 BYTE   W04
 BYTE   Fs3
 BYTE   W04
// 036   ----------------------------------------
 BYTE   Gn3
 BYTE   W04
 BYTE   An3
 BYTE   W04
 BYTE   Bn3
 BYTE   W04
 BYTE   N02  Cn4
 BYTE   W04
 BYTE   N03  Dn4
 BYTE   W04
 BYTE   En4
 BYTE   W04
 BYTE   Fs4
 BYTE   W04
 BYTE   Gn4
 BYTE   W04
 BYTE   An4
 BYTE   W04
 BYTE   N36  Bn4
 BYTE   W48
 BYTE   N05  An4
 BYTE   W06
 BYTE   Gn4
 BYTE   W06
// 037   ----------------------------------------
 BYTE   W06
 BYTE   An4
 BYTE   W12
 BYTE   N06  Bn4
 BYTE   W12
 BYTE   N05  Cn5
 BYTE   W12
 BYTE   Dn5
 BYTE   W12
 BYTE   N06
 BYTE   W12
 BYTE   N05  Cn5
 BYTE   W06
 BYTE   N04  Bn4
 BYTE   W06
 BYTE   N05  Cn5
 BYTE   W06
 BYTE   N04  An4
 BYTE   W06
 BYTE   N07  Bn4
 BYTE   W06
// 038   ----------------------------------------
 BYTE   W06
 BYTE   N06
 BYTE   W12
 BYTE   N05  An4
 BYTE   W06
 BYTE   Gn4
 BYTE   W12
 BYTE   Fs4
 BYTE   W12
 BYTE   En4
 BYTE   W06
 BYTE   N04  Ds4
 BYTE   W12
 BYTE   N06  En4
 BYTE   W12
 BYTE   N05  Fs4
 BYTE   W12
 BYTE   Gn4
 BYTE   W06
// 039   ----------------------------------------
 BYTE   N04  An4
 BYTE   W12
 BYTE   Bn4
 BYTE   W12
 BYTE   N06  Bn3
 BYTE   W12
 BYTE   N05  An4
 BYTE   W12
 BYTE   N02  Gn4
 BYTE   W06
 BYTE   N07  Fs4
 BYTE   W12
 BYTE   N05  En4
 BYTE   W12
 BYTE   Gn4
 BYTE   W12
 BYTE   Fs4
 BYTE   W06
// 040   ----------------------------------------
 BYTE   Dn4
 BYTE   W12
 BYTE   N32  En4
 BYTE   W13
 BYTE   BEND   c_v+2
 BYTE   W01
 BYTE   BEND   c_v+5
 BYTE   W02
 BYTE   BEND   c_v+3
 BYTE   W01
 BYTE   BEND   c_v+0
 BYTE   W01
 BYTE   BEND   c_v+0
 BYTE   W02
 BYTE   BEND   c_v+4
 BYTE   W01
 BYTE   BEND   c_v+6
 BYTE   W02
 BYTE   BEND   c_v+5
 BYTE   W01
 BYTE   BEND   c_v+2
 BYTE   W01
 BYTE   BEND   c_v+1
 BYTE   W01
 BYTE   BEND   c_v+1
 BYTE   W01
 BYTE   BEND   c_v+2
 BYTE   W03
 BYTE   BEND   c_v+0
 BYTE   W06
 BYTE   N07  Dn4
 BYTE   W12
 BYTE   N05  Cn4
 BYTE   W06
 BYTE   N04  Bn3
 BYTE   W06
 BYTE   N05  Cn4
 BYTE   W06
 BYTE   An3
 BYTE   W12
 BYTE   Bn3
 BYTE   W06
// 041   ----------------------------------------
 BYTE   W06
 BYTE   Cn4
 BYTE   W12
 BYTE   N20  Dn4
 BYTE   W02
 BYTE   BEND   c_v+2
 BYTE   W01
 BYTE   BEND   c_v+4
 BYTE   W01
 BYTE   BEND   c_v+7
 BYTE   W01
 BYTE   BEND   c_v+8
 BYTE   W17
 BYTE   BEND   c_v+0
 BYTE   N03  Cn4
 BYTE   W04
 BYTE   Bn3
 BYTE   W04
 BYTE   An3
 BYTE   W04
 BYTE   Bn3
 BYTE   W04
 BYTE   An3
 BYTE   W04
 BYTE   Gn3
 BYTE   W04
 BYTE   Fs3
 BYTE   W04
 BYTE   Gn3
 BYTE   W04
 BYTE   An3
 BYTE   W04
 BYTE   Bn3
 BYTE   W04
 BYTE   N02  Cn4
 BYTE   W04
 BYTE   N03  Dn4
 BYTE   W04
 BYTE   En4
 BYTE   W04
 BYTE   Fs4
 BYTE   W04
// 042   ----------------------------------------
 BYTE   Gn4
 BYTE   W04
 BYTE   An4
 BYTE   W04
 BYTE   N32  Bn4
 BYTE   W24
 BYTE   BEND   c_v+0
 BYTE   W01
 BYTE   BEND   c_v+0
 BYTE   W02
 BYTE   BEND   c_v+0
 BYTE   W01
 BYTE   BEND   c_v+0
 BYTE   W06
 BYTE   N05  An4
 BYTE   W12
 BYTE   Gn4
 BYTE   W06
 BYTE   An4
 BYTE   W12
 BYTE   Bn4
 BYTE   W12
 BYTE   N07  Cn5
 BYTE   W12
// 043   ----------------------------------------
 BYTE   N06  Bn4
 BYTE   W12
 BYTE   N05  An4
 BYTE   W06
 BYTE   Bn4
 BYTE   W12
 BYTE   Cn5
 BYTE   W12
 BYTE   N08  Dn5
 BYTE   W12
 BYTE   Dn4
 BYTE   W12
 BYTE   N07  Bn4
 BYTE   W12
 BYTE   N05  An4
 BYTE   W06
 BYTE   N04  Gn4
 BYTE   W12
// 044   ----------------------------------------
 BYTE   N05  Fs4
 BYTE   W12
 BYTE   N06  Gn4
 BYTE   W12
 BYTE   N05  An4
 BYTE   W12
 BYTE   N04  Bn4
 BYTE   W06
 BYTE   N24  Ds4
 BYTE   W12
 BYTE   BEND   c_v+0
 BYTE   W01
 BYTE   BEND   c_v+0
 BYTE   W01
 BYTE   BEND   c_v+0
 BYTE   W03
 BYTE   BEND   c_v+4
 BYTE   W02
 BYTE   BEND   c_v+1
 BYTE   W01
 BYTE   BEND   c_v+0
 BYTE   W03
 BYTE   BEND   c_v+1
 BYTE   W02
 BYTE   BEND   c_v+0
 BYTE   W02
 BYTE   GoTo
  POIN2 Label_4_014A801D
 BYTE   FINE

//**************** Track 6 (Midi-Chn.5) ****************//

song0105_006:
// 000   ----------------------------------------
 BYTE   KEYSH   song0105_key+0
Label_5_014A8203:
 BYTE   VOICE   46
 BYTE   VOL   16*song0105_mvl/mxv
 BYTE   PAN   c_v+40
 BYTE   BEND   c_v+0
 BYTE   W96
// 001   ----------------------------------------
 BYTE   W96
// 002   ----------------------------------------
 BYTE   W96
// 003   ----------------------------------------
 BYTE   W96
// 004   ----------------------------------------
 BYTE   W96
// 005   ----------------------------------------
 BYTE   W96
// 006   ----------------------------------------
 BYTE   W96
// 007   ----------------------------------------
 BYTE   W96
// 008   ----------------------------------------
Label_5_014A8213:
 BYTE   W44
 BYTE   W03
 BYTE   N04  Bn5  v127
 BYTE   W06
 BYTE   An5
 BYTE   W06
 BYTE   Gs5
 BYTE   W06
 BYTE   An5
 BYTE   W06
 BYTE   Fn5
 BYTE   W06
 BYTE   Fs5
 BYTE   W06
 BYTE   Dn5
 BYTE   W06
 BYTE   Ds5
 BYTE   W06
 BYTE   Cn5
 BYTE   W01
 BYTE   PEND 
// 009   ----------------------------------------
Label_5_014A822A:
 BYTE   W05
 BYTE   N04  Ds5  v127
 BYTE   W06
 BYTE   Bn4
 BYTE   W06
 BYTE   Cn5
 BYTE   W06
 BYTE   Fs5
 BYTE   W06
 BYTE   Fn5
 BYTE   W06
 BYTE   An5
 BYTE   W06
 BYTE   Gs5
 BYTE   W06
 BYTE   Fn4
 BYTE   W06
 BYTE   Fs4
 BYTE   W06
 BYTE   Gs4
 BYTE   W06
 BYTE   An4
 BYTE   W06
 BYTE   Bn4
 BYTE   W06
 BYTE   Cn5
 BYTE   W06
 BYTE   Dn5
 BYTE   W06
 BYTE   Ds5
 BYTE   W06
 BYTE   An4
 BYTE   W01
 BYTE   PEND 
// 010   ----------------------------------------
Label_5_014A824E:
 BYTE   W05
 BYTE   N04  Bn4  v127
 BYTE   W06
 BYTE   Dn5
 BYTE   W06
 BYTE   An4
 BYTE   W06
 BYTE   Fs5
 BYTE   W06
 BYTE   Fn5
 BYTE   W06
 BYTE   An5
 BYTE   W06
 BYTE   Gs5
 BYTE   W06
 BYTE   Bn5
 BYTE   W06
 BYTE   Cn6
 BYTE   W06
 BYTE   An5
 BYTE   W06
 BYTE   Gs5
 BYTE   W06
 BYTE   Dn6
 BYTE   W06
 BYTE   Fn5
 BYTE   W06
 BYTE   Fs5
 BYTE   W06
 BYTE   Gs5
 BYTE   W06
 BYTE   Dn5
 BYTE   W01
 BYTE   PEND 
// 011   ----------------------------------------
Label_5_014A8272:
 BYTE   W05
 BYTE   N04  Ds5  v127
 BYTE   W06
 BYTE   An5
 BYTE   W06
 BYTE   Cn5
 BYTE   W06
 BYTE   Gs5
 BYTE   W06
 BYTE   Bn4
 BYTE   W06
 BYTE   An4
 BYTE   W06
 BYTE   Bn4
 BYTE   W06
 BYTE   Ds6
 BYTE   W06
 BYTE   En6
 BYTE   W06
 BYTE   Fn6
 BYTE   W06
 BYTE   En6
 BYTE   W06
 BYTE   Ds6
 BYTE   W06
 BYTE   Dn6
 BYTE   W06
 BYTE   Ds6
 BYTE   W06
 BYTE   Cn6
 BYTE   W06
 BYTE   Dn6
 BYTE   W01
 BYTE   PEND 
// 012   ----------------------------------------
Label_5_014A8296:
 BYTE   W05
 BYTE   N04  Bn5  v127
 BYTE   W06
 BYTE   An5
 BYTE   W06
 BYTE   Gs5
 BYTE   W06
 BYTE   Fn5
 BYTE   W06
 BYTE   Fs5
 BYTE   W06
 BYTE   An5
 BYTE   W06
 BYTE   Dn5
 BYTE   W06
 BYTE   Bn5
 BYTE   W06
 BYTE   An5
 BYTE   W06
 BYTE   Gs5
 BYTE   W06
 BYTE   An5
 BYTE   W06
 BYTE   Fn5
 BYTE   W06
 BYTE   Fs5
 BYTE   W06
 BYTE   Dn5
 BYTE   W06
 BYTE   Ds5
 BYTE   W06
 BYTE   Cn5
 BYTE   W01
 BYTE   PEND 
// 013   ----------------------------------------
 BYTE   PATT
  POIN2 Label_5_014A822A
// 014   ----------------------------------------
 BYTE   PATT
  POIN2 Label_5_014A824E
// 015   ----------------------------------------
 BYTE   PATT
  POIN2 Label_5_014A8272
// 016   ----------------------------------------
 BYTE   W05
 BYTE   N04  Bn5  v127
 BYTE   W06
 BYTE   An5
 BYTE   W06
 BYTE   Gs5
 BYTE   W06
 BYTE   Fn5
 BYTE   W06
 BYTE   Fs5
 BYTE   W06
 BYTE   An5
 BYTE   W06
 BYTE   Dn5
 BYTE   W54
 BYTE   W01
// 017   ----------------------------------------
 BYTE   W96
// 018   ----------------------------------------
 BYTE   W96
// 019   ----------------------------------------
 BYTE   W96
// 020   ----------------------------------------
 BYTE   W96
// 021   ----------------------------------------
 BYTE   W96
// 022   ----------------------------------------
 BYTE   W96
// 023   ----------------------------------------
 BYTE   W96
// 024   ----------------------------------------
 BYTE   PATT
  POIN2 Label_5_014A8213
// 025   ----------------------------------------
 BYTE   PATT
  POIN2 Label_5_014A822A
// 026   ----------------------------------------
 BYTE   PATT
  POIN2 Label_5_014A824E
// 027   ----------------------------------------
 BYTE   PATT
  POIN2 Label_5_014A8272
// 028   ----------------------------------------
 BYTE   PATT
  POIN2 Label_5_014A8296
// 029   ----------------------------------------
 BYTE   PATT
  POIN2 Label_5_014A822A
// 030   ----------------------------------------
 BYTE   PATT
  POIN2 Label_5_014A824E
// 031   ----------------------------------------
 BYTE   PATT
  POIN2 Label_5_014A8272
// 032   ----------------------------------------
 BYTE   W05
 BYTE   N04  Bn5  v127
 BYTE   W06
 BYTE   An5
 BYTE   W06
 BYTE   Gs5
 BYTE   W06
 BYTE   Fn5
 BYTE   W06
 BYTE   Fs5
 BYTE   W06
 BYTE   An5
 BYTE   W06
 BYTE   Dn5
 BYTE   W06
 BYTE   En5
 BYTE   N04  Bn5
 BYTE   W06
 BYTE   En5
 BYTE   N04  Bn5
 BYTE   W06
 BYTE   En4
 BYTE   N04  Bn4
 BYTE   W06
 BYTE   En5
 BYTE   N04  Bn5
 BYTE   W12
 BYTE   En4
 BYTE   N04  Bn4
 BYTE   W06
 BYTE   En5
 BYTE   N04  Bn5
 BYTE   W12
 BYTE   En5
 BYTE   N04  Bn5
 BYTE   W01
// 033   ----------------------------------------
Label_5_014A8337:
 BYTE   W11
 BYTE   N04  En5  v127
 BYTE   N04  Bn5
 BYTE   W06
 BYTE   En5
 BYTE   N04  Bn5
 BYTE   W12
 BYTE   En5
 BYTE   N04  Bn5
 BYTE   W06
 BYTE   En5
 BYTE   N04  Bn5
 BYTE   W06
 BYTE   En5
 BYTE   N04  Bn5
 BYTE   W06
 BYTE   En4
 BYTE   N04  Bn4
 BYTE   W06
 BYTE   En5
 BYTE   N04  Bn5
 BYTE   W12
 BYTE   En4
 BYTE   N04  Bn4
 BYTE   W06
 BYTE   En5
 BYTE   N04  Bn5
 BYTE   W12
 BYTE   En5
 BYTE   N04  Bn5
 BYTE   W12
 BYTE   En5
 BYTE   N04  Bn5
 BYTE   W01
 BYTE   PEND 
// 034   ----------------------------------------
 BYTE   W05
 BYTE   En5
 BYTE   N04  Bn5
 BYTE   W12
 BYTE   En5
 BYTE   N04  Bn5
 BYTE   W06
 BYTE   En5
 BYTE   N04  Bn5
 BYTE   W06
 BYTE   En5
 BYTE   N04  Bn5
 BYTE   W06
 BYTE   En4
 BYTE   N04  Bn4
 BYTE   W06
 BYTE   En5
 BYTE   N04  Bn5
 BYTE   W12
 BYTE   En4
 BYTE   N04  Bn4
 BYTE   W06
 BYTE   En5
 BYTE   N04  Bn5
 BYTE   W12
 BYTE   En5
 BYTE   N04  Bn5
 BYTE   W12
 BYTE   En5
 BYTE   N04  Bn5
 BYTE   W06
 BYTE   En5
 BYTE   N04  Bn5
 BYTE   W07
// 035   ----------------------------------------
 BYTE   W05
 BYTE   En5
 BYTE   N04  Bn5
 BYTE   W06
 BYTE   En5
 BYTE   N04  An5
 BYTE   W06
 BYTE   En5
 BYTE   N04  An5
 BYTE   W06
 BYTE   En4
 BYTE   N04  An4
 BYTE   W06
 BYTE   En5
 BYTE   N04  An5
 BYTE   W12
 BYTE   En4
 BYTE   N04  An4
 BYTE   W06
 BYTE   En5
 BYTE   N04  An5
 BYTE   W12
 BYTE   En5
 BYTE   N04  An5
 BYTE   W12
 BYTE   En5
 BYTE   N04  An5
 BYTE   W06
 BYTE   En5
 BYTE   N04  An5
 BYTE   W12
 BYTE   En5
 BYTE   N04  An5
 BYTE   W06
 BYTE   En5
 BYTE   N04  An5
 BYTE   W01
// 036   ----------------------------------------
 BYTE   W05
 BYTE   En5
 BYTE   N04  An5
 BYTE   W06
 BYTE   En4
 BYTE   N04  An4
 BYTE   W06
 BYTE   En5
 BYTE   N04  An5
 BYTE   W12
 BYTE   En4
 BYTE   N04  An4
 BYTE   W06
 BYTE   En5
 BYTE   N04  An5
 BYTE   W12
 BYTE   En5
 BYTE   N04  An5
 BYTE   W12
 BYTE   En5
 BYTE   N04  An5
 BYTE   W06
 BYTE   En5
 BYTE   N04  An5
 BYTE   W12
 BYTE   En5
 BYTE   N04  An5
 BYTE   W06
 BYTE   Fs5
 BYTE   N04  Bn5
 BYTE   W06
 BYTE   Fs5
 BYTE   N04  Bn5
 BYTE   W06
 BYTE   Fs4
 BYTE   N04  Bn4
 BYTE   W01
// 037   ----------------------------------------
 BYTE   W05
 BYTE   Fs5
 BYTE   N04  Bn5
 BYTE   W12
 BYTE   Fs4
 BYTE   N04  Bn4
 BYTE   W06
 BYTE   Fs5
 BYTE   N04  Bn5
 BYTE   W12
 BYTE   Fs5
 BYTE   N04  Bn5
 BYTE   W12
 BYTE   Fs5
 BYTE   N04  Bn5
 BYTE   W06
 BYTE   Fs5
 BYTE   N04  Bn5
 BYTE   W12
 BYTE   Fs5
 BYTE   N04  Bn5
 BYTE   W06
 BYTE   Fs5
 BYTE   N04  Bn5
 BYTE   W06
 BYTE   Fs5
 BYTE   N04  Bn5
 BYTE   W06
 BYTE   Fs4
 BYTE   N04  Bn4
 BYTE   W06
 BYTE   Fs5
 BYTE   N04  Bn5
 BYTE   W07
// 038   ----------------------------------------
 BYTE   W05
 BYTE   Fs4
 BYTE   N04  Bn4
 BYTE   W06
 BYTE   Fs5
 BYTE   N04  Bn5
 BYTE   W12
 BYTE   Fs5
 BYTE   N04  Bn5
 BYTE   W12
 BYTE   Fs5
 BYTE   N04  Bn5
 BYTE   W06
 BYTE   Fs5
 BYTE   N04  Bn5
 BYTE   W12
 BYTE   Fs5
 BYTE   N04  Bn5
 BYTE   W06
 BYTE   En5
 BYTE   N04  Bn5
 BYTE   W06
 BYTE   En5
 BYTE   N04  Bn5
 BYTE   W06
 BYTE   En4
 BYTE   N04  Bn4
 BYTE   W06
 BYTE   En5
 BYTE   N04  Bn5
 BYTE   W12
 BYTE   En4
 BYTE   N04  Bn4
 BYTE   W06
 BYTE   En5
 BYTE   N04  Bn5
 BYTE   W01
// 039   ----------------------------------------
 BYTE   W11
 BYTE   En5
 BYTE   N04  Bn5
 BYTE   W12
 BYTE   En5
 BYTE   N04  Bn5
 BYTE   W06
 BYTE   En5
 BYTE   N04  Bn5
 BYTE   W12
 BYTE   En5
 BYTE   N04  Bn5
 BYTE   W06
 BYTE   En5
 BYTE   N04  Bn5
 BYTE   W06
 BYTE   En5
 BYTE   N04  Bn5
 BYTE   W06
 BYTE   En4
 BYTE   N04  Bn4
 BYTE   W06
 BYTE   En5
 BYTE   N04  Bn5
 BYTE   W12
 BYTE   En4
 BYTE   N04  Bn4
 BYTE   W06
 BYTE   En5
 BYTE   N04  Bn5
 BYTE   W12
 BYTE   En5
 BYTE   N04  Bn5
 BYTE   W01
// 040   ----------------------------------------
 BYTE   PATT
  POIN2 Label_5_014A8337
// 041   ----------------------------------------
 BYTE   W05
 BYTE   N04  En5  v127
 BYTE   N04  Bn5
 BYTE   W12
 BYTE   En5
 BYTE   N04  Bn5
 BYTE   W06
 BYTE   En5
 BYTE   N04  An5
 BYTE   W06
 BYTE   En5
 BYTE   N04  An5
 BYTE   W06
 BYTE   En4
 BYTE   N04  An4
 BYTE   W06
 BYTE   En5
 BYTE   N04  An5
 BYTE   W12
 BYTE   En4
 BYTE   N04  An4
 BYTE   W06
 BYTE   En5
 BYTE   N04  An5
 BYTE   W12
 BYTE   En5
 BYTE   N04  An5
 BYTE   W12
 BYTE   En5
 BYTE   N04  An5
 BYTE   W06
 BYTE   En5
 BYTE   N04  An5
 BYTE   W07
// 042   ----------------------------------------
 BYTE   W05
 BYTE   En5
 BYTE   N04  An5
 BYTE   W06
 BYTE   En5
 BYTE   N04  An5
 BYTE   W06
 BYTE   En5
 BYTE   N04  An5
 BYTE   W06
 BYTE   En4
 BYTE   N04  An4
 BYTE   W06
 BYTE   En5
 BYTE   N04  An5
 BYTE   W12
 BYTE   En4
 BYTE   N04  An4
 BYTE   W06
 BYTE   En5
 BYTE   N04  An5
 BYTE   W12
 BYTE   En5
 BYTE   N04  An5
 BYTE   W12
 BYTE   En5
 BYTE   N04  An5
 BYTE   W06
 BYTE   En5
 BYTE   N04  An5
 BYTE   W12
 BYTE   En5
 BYTE   N04  An5
 BYTE   W06
 BYTE   Fs5
 BYTE   N04  Bn5
 BYTE   W01
// 043   ----------------------------------------
 BYTE   W05
 BYTE   Fs5
 BYTE   N04  Bn5
 BYTE   W06
 BYTE   Fs4
 BYTE   N04  Bn4
 BYTE   W06
 BYTE   Fs5
 BYTE   N04  Bn5
 BYTE   W12
 BYTE   Fs4
 BYTE   N04  Bn4
 BYTE   W06
 BYTE   Fs5
 BYTE   N04  Bn5
 BYTE   W12
 BYTE   Fs5
 BYTE   N04  Bn5
 BYTE   W12
 BYTE   Fs5
 BYTE   N04  Bn5
 BYTE   W06
 BYTE   Fs5
 BYTE   N04  Bn5
 BYTE   W12
 BYTE   Fs5
 BYTE   N04  Bn5
 BYTE   W06
 BYTE   Fs5
 BYTE   N04  Bn5
 BYTE   W06
 BYTE   Fs5
 BYTE   N04  Bn5
 BYTE   W06
 BYTE   Fs4
 BYTE   N04  Bn4
 BYTE   W01
// 044   ----------------------------------------
 BYTE   W05
 BYTE   Fs5
 BYTE   N04  Bn5
 BYTE   W12
 BYTE   Fs4
 BYTE   N04  Bn4
 BYTE   W06
 BYTE   Fs5
 BYTE   N04  Bn5
 BYTE   W12
 BYTE   Fs5
 BYTE   N04  Bn5
 BYTE   W12
 BYTE   Fs5
 BYTE   N04  Bn5
 BYTE   W06
 BYTE   Fs5
 BYTE   N04  Bn5
 BYTE   W12
 BYTE   Fs5
 BYTE   N04  Bn5
 BYTE   W04
 BYTE   GoTo
  POIN2 Label_5_014A8203
 BYTE   FINE

//**************** Track 7 (Midi-Chn.6) ****************//

song0105_007:
// 000   ----------------------------------------
 BYTE   KEYSH   song0105_key+0
Label_6_014A853C:
 BYTE   VOICE   61
 BYTE   VOL   26*song0105_mvl/mxv
 BYTE   PAN   c_v-10
 BYTE   BEND   c_v+0
 BYTE   W48
 BYTE   N92  En3  v108
 BYTE   N92  Gn3
 BYTE   W48
// 001   ----------------------------------------
 BYTE   W48
 BYTE   En3
 BYTE   N92  Fs3
 BYTE   W48
// 002   ----------------------------------------
Label_6_014A8550:
 BYTE   W48
 BYTE   N92  Ds3  v108
 BYTE   N92  Fs3
 BYTE   W48
 BYTE   PEND 
// 003   ----------------------------------------
Label_6_014A8558:
 BYTE   W48
 BYTE   N16  Ds3  v108
 BYTE   N16  Gn3
 BYTE   W18
 BYTE   BEND   c_v+0
 BYTE   N76  Ds3
 BYTE   N76  Fs3
 BYTE   W20
 BYTE   BEND   c_v-1
 BYTE   W10
 BYTE   PEND 
// 004   ----------------------------------------
Label_6_014A856A:
 BYTE   BEND   c_v-2
 BYTE   W05
 BYTE   BEND   c_v-3
 BYTE   W04
 BYTE   BEND   c_v-4
 BYTE   W04
 BYTE   BEND   c_v-5
 BYTE   W02
 BYTE   BEND   c_v-6
 BYTE   W02
 BYTE   BEND   c_v-7
 BYTE   W02
 BYTE   BEND   c_v-8
 BYTE   W02
 BYTE   BEND   c_v-9
 BYTE   W01
 BYTE   BEND   c_v-10
 BYTE   W01
 BYTE   BEND   c_v-11
 BYTE   W02
 BYTE   BEND   c_v-12
 BYTE   W01
 BYTE   BEND   c_v-13
 BYTE   W01
 BYTE   BEND   c_v-14
 BYTE   W01
 BYTE   BEND   c_v-15
 BYTE   W01
 BYTE   BEND   c_v-16
 BYTE   W01
 BYTE   BEND   c_v-18
 BYTE   W01
 BYTE   BEND   c_v-19
 BYTE   W01
 BYTE   BEND   c_v-20
 BYTE   W01
 BYTE   BEND   c_v-22
 BYTE   W01
 BYTE   BEND   c_v-24
 BYTE   W01
 BYTE   BEND   c_v-25
 BYTE   W01
 BYTE   BEND   c_v-28
 BYTE   W01
 BYTE   BEND   c_v-29
 BYTE   W01
 BYTE   BEND   c_v-32
 BYTE   W01
 BYTE   BEND   c_v-34
 BYTE   W01
 BYTE   BEND   c_v-37
 BYTE   W01
 BYTE   BEND   c_v-39
 BYTE   W01
 BYTE   BEND   c_v-42
 BYTE   W01
 BYTE   BEND   c_v-46
 BYTE   W01
 BYTE   BEND   c_v-49
 BYTE   W01
 BYTE   BEND   c_v-52
 BYTE   W01
 BYTE   BEND   c_v-57
 BYTE   W01
 BYTE   BEND   c_v-61
 BYTE   W01
 BYTE   BEND   c_v-64
 BYTE   N92  En3  v108
 BYTE   N92  Gn3
 BYTE   W01
 BYTE   BEND   c_v-59
 BYTE   W01
 BYTE   BEND   c_v-56
 BYTE   W01
 BYTE   BEND   c_v-52
 BYTE   W01
 BYTE   BEND   c_v-50
 BYTE   W01
 BYTE   BEND   c_v-47
 BYTE   W01
 BYTE   BEND   c_v-44
 BYTE   W01
 BYTE   BEND   c_v-42
 BYTE   W01
 BYTE   BEND   c_v-39
 BYTE   W01
 BYTE   BEND   c_v-37
 BYTE   W01
 BYTE   BEND   c_v-35
 BYTE   W01
 BYTE   BEND   c_v-33
 BYTE   W01
 BYTE   BEND   c_v-31
 BYTE   W01
 BYTE   BEND   c_v-29
 BYTE   W01
 BYTE   BEND   c_v-28
 BYTE   W01
 BYTE   BEND   c_v-26
 BYTE   W01
 BYTE   BEND   c_v-25
 BYTE   W01
 BYTE   BEND   c_v-23
 BYTE   W01
 BYTE   BEND   c_v-22
 BYTE   W01
 BYTE   BEND   c_v-21
 BYTE   W01
 BYTE   BEND   c_v-19
 BYTE   W01
 BYTE   BEND   c_v-18
 BYTE   W01
 BYTE   BEND   c_v-17
 BYTE   W01
 BYTE   BEND   c_v-16
 BYTE   W01
 BYTE   BEND   c_v-15
 BYTE   W01
 BYTE   BEND   c_v-14
 BYTE   W02
 BYTE   BEND   c_v-13
 BYTE   W01
 BYTE   BEND   c_v-12
 BYTE   W01
 BYTE   BEND   c_v-11
 BYTE   W02
 BYTE   BEND   c_v-10
 BYTE   W01
 BYTE   BEND   c_v-9
 BYTE   W02
 BYTE   BEND   c_v-8
 BYTE   W02
 BYTE   BEND   c_v-7
 BYTE   W03
 BYTE   BEND   c_v-6
 BYTE   W02
 BYTE   BEND   c_v-5
 BYTE   W03
 BYTE   BEND   c_v-4
 BYTE   W04
 BYTE   PEND 
// 005   ----------------------------------------
Label_6_014A85FC:
 BYTE   BEND   c_v-3
 BYTE   W05
 BYTE   BEND   c_v-2
 BYTE   W07
 BYTE   BEND   c_v-1
 BYTE   W12
 BYTE   BEND   c_v+0
 BYTE   W24
 BYTE   N92  En3  v108
 BYTE   N92  Fs3
 BYTE   W48
 BYTE   PEND 
// 006   ----------------------------------------
 BYTE   PATT
  POIN2 Label_6_014A8550
// 007   ----------------------------------------
Label_6_014A8611:
 BYTE   W48
 BYTE   N16  Ds3  v108
 BYTE   N16  Fs3
 BYTE   W18
 BYTE   N76  Fn3
 BYTE   N76  Gs3
 BYTE   W30
 BYTE   PEND 
// 008   ----------------------------------------
 BYTE   W96
// 009   ----------------------------------------
 BYTE   W96
// 010   ----------------------------------------
 BYTE   W96
// 011   ----------------------------------------
 BYTE   W96
// 012   ----------------------------------------
 BYTE   W96
// 013   ----------------------------------------
 BYTE   W96
// 014   ----------------------------------------
 BYTE   W96
// 015   ----------------------------------------
 BYTE   W96
// 016   ----------------------------------------
 BYTE   W48
 BYTE   N92  En3
 BYTE   N92  Gn3
 BYTE   W48
// 017   ----------------------------------------
 BYTE   W48
 BYTE   En3
 BYTE   N92  Fs3
 BYTE   W48
// 018   ----------------------------------------
 BYTE   PATT
  POIN2 Label_6_014A8550
// 019   ----------------------------------------
 BYTE   PATT
  POIN2 Label_6_014A8558
// 020   ----------------------------------------
 BYTE   PATT
  POIN2 Label_6_014A856A
// 021   ----------------------------------------
 BYTE   PATT
  POIN2 Label_6_014A85FC
// 022   ----------------------------------------
 BYTE   PATT
  POIN2 Label_6_014A8550
// 023   ----------------------------------------
 BYTE   PATT
  POIN2 Label_6_014A8611
// 024   ----------------------------------------
 BYTE   W96
// 025   ----------------------------------------
 BYTE   W96
// 026   ----------------------------------------
 BYTE   W96
// 027   ----------------------------------------
 BYTE   W96
// 028   ----------------------------------------
 BYTE   W96
// 029   ----------------------------------------
 BYTE   W96
// 030   ----------------------------------------
 BYTE   W96
// 031   ----------------------------------------
 BYTE   W96
// 032   ----------------------------------------
Label_6_014A8657:
 BYTE   W48
 BYTE   N80  Gn3  v088
 BYTE   N80  Bn3
 BYTE   W48
 BYTE   PEND 
// 033   ----------------------------------------
Label_6_014A865F:
 BYTE   W36
 BYTE   N80  Gn3  v088
 BYTE   N80  Bn3
 BYTE   W60
 BYTE   PEND 
// 034   ----------------------------------------
 BYTE   W24
 BYTE   Gn3
 BYTE   N80  Bn3
 BYTE   W72
// 035   ----------------------------------------
Label_6_014A866C:
 BYTE   W12
 BYTE   N80  An3  v088
 BYTE   N80  Cn4
 BYTE   W84
 BYTE   PEND 
// 036   ----------------------------------------
 BYTE   An3
 BYTE   N80  Cn4
 BYTE   W84
 BYTE   Fs3
 BYTE   N80  Bn3
 BYTE   W12
// 037   ----------------------------------------
 BYTE   W72
 BYTE   Fs3
 BYTE   N80  Bn3
 BYTE   W24
// 038   ----------------------------------------
 BYTE   W60
 BYTE   Gn3
 BYTE   N80  Bn3
 BYTE   W36
// 039   ----------------------------------------
 BYTE   PATT
  POIN2 Label_6_014A8657
// 040   ----------------------------------------
 BYTE   PATT
  POIN2 Label_6_014A865F
// 041   ----------------------------------------
 BYTE   W24
 BYTE   N80  An3  v088
 BYTE   N80  Cn4
 BYTE   W72
// 042   ----------------------------------------
 BYTE   PATT
  POIN2 Label_6_014A866C
// 043   ----------------------------------------
 BYTE   N80  Fs3  v088
 BYTE   N80  Bn3
 BYTE   W84
 BYTE   Fs3
 BYTE   N80  Bn3
 BYTE   W12
// 044   ----------------------------------------
 BYTE   W68
 BYTE   W01
 BYTE   GoTo
  POIN2 Label_6_014A853C
 BYTE   FINE

//**************** Track 8 (Midi-Chn.7) ****************//

song0105_008:
// 000   ----------------------------------------
 BYTE   KEYSH   song0105_key+0
Label_7_014A86B0:
 BYTE   VOICE   8
 BYTE   VOL   8*song0105_mvl/mxv
 BYTE   PAN   c_v-50
 BYTE   BEND   c_v+0
 BYTE   W96
// 001   ----------------------------------------
 BYTE   W96
// 002   ----------------------------------------
 BYTE   W96
// 003   ----------------------------------------
 BYTE   W96
// 004   ----------------------------------------
 BYTE   W96
// 005   ----------------------------------------
 BYTE   W96
// 006   ----------------------------------------
 BYTE   W96
// 007   ----------------------------------------
 BYTE   W96
// 008   ----------------------------------------
 BYTE   W96
// 009   ----------------------------------------
 BYTE   W96
// 010   ----------------------------------------
 BYTE   W96
// 011   ----------------------------------------
 BYTE   W96
// 012   ----------------------------------------
 BYTE   W96
// 013   ----------------------------------------
 BYTE   W96
// 014   ----------------------------------------
 BYTE   W96
// 015   ----------------------------------------
 BYTE   W96
// 016   ----------------------------------------
 BYTE   W96
// 017   ----------------------------------------
 BYTE   W96
// 018   ----------------------------------------
 BYTE   W96
// 019   ----------------------------------------
 BYTE   W96
// 020   ----------------------------------------
 BYTE   W96
// 021   ----------------------------------------
 BYTE   W96
// 022   ----------------------------------------
 BYTE   W96
// 023   ----------------------------------------
 BYTE   W96
// 024   ----------------------------------------
 BYTE   W96
// 025   ----------------------------------------
 BYTE   W96
// 026   ----------------------------------------
 BYTE   W96
// 027   ----------------------------------------
 BYTE   W96
// 028   ----------------------------------------
 BYTE   W96
// 029   ----------------------------------------
 BYTE   W96
// 030   ----------------------------------------
 BYTE   W96
// 031   ----------------------------------------
 BYTE   W96
// 032   ----------------------------------------
 BYTE   W96
// 033   ----------------------------------------
 BYTE   W96
// 034   ----------------------------------------
 BYTE   W96
// 035   ----------------------------------------
 BYTE   W96
// 036   ----------------------------------------
 BYTE   W96
// 037   ----------------------------------------
 BYTE   W96
// 038   ----------------------------------------
 BYTE   W60
 BYTE   N04  En4  v127
 BYTE   N04  Bn4
 BYTE   W06
 BYTE   En4
 BYTE   N04  Bn4
 BYTE   W06
 BYTE   En3
 BYTE   N04  Bn3
 BYTE   W06
 BYTE   En4
 BYTE   N04  Bn4
 BYTE   W12
 BYTE   En3
 BYTE   N04  Bn3
 BYTE   W06
// 039   ----------------------------------------
 BYTE   En4
 BYTE   N04  Bn4
 BYTE   W12
 BYTE   En4
 BYTE   N04  Bn4
 BYTE   W12
 BYTE   En4
 BYTE   N04  Bn4
 BYTE   W06
 BYTE   En4
 BYTE   N04  Bn4
 BYTE   W12
 BYTE   En4
 BYTE   N04  Bn4
 BYTE   W06
 BYTE   En4
 BYTE   N04  Bn4
 BYTE   W06
 BYTE   En4
 BYTE   N04  Bn4
 BYTE   W06
 BYTE   En3
 BYTE   N04  Bn3
 BYTE   W06
 BYTE   En4
 BYTE   N04  Bn4
 BYTE   W12
 BYTE   En3
 BYTE   N04  Bn3
 BYTE   W06
 BYTE   En4
 BYTE   N04  Bn4
 BYTE   W12
// 040   ----------------------------------------
 BYTE   En4
 BYTE   N04  Bn4
 BYTE   W12
 BYTE   En4
 BYTE   N04  Bn4
 BYTE   W06
 BYTE   En4
 BYTE   N04  Bn4
 BYTE   W12
 BYTE   En4
 BYTE   N04  Bn4
 BYTE   W06
 BYTE   En4
 BYTE   N04  Bn4
 BYTE   W06
 BYTE   En4
 BYTE   N04  Bn4
 BYTE   W06
 BYTE   En3
 BYTE   N04  Bn3
 BYTE   W06
 BYTE   En4
 BYTE   N04  Bn4
 BYTE   W12
 BYTE   En3
 BYTE   N04  Bn3
 BYTE   W06
 BYTE   En4
 BYTE   N04  Bn4
 BYTE   W12
 BYTE   En4
 BYTE   N04  Bn4
 BYTE   W12
// 041   ----------------------------------------
 BYTE   En4
 BYTE   N04  Bn4
 BYTE   W06
 BYTE   En4
 BYTE   N04  Bn4
 BYTE   W12
 BYTE   En4
 BYTE   N04  Bn4
 BYTE   W06
 BYTE   En4
 BYTE   N04  An4
 BYTE   W06
 BYTE   En4
 BYTE   N04  An4
 BYTE   W06
 BYTE   En3
 BYTE   N04  An3
 BYTE   W06
 BYTE   En4
 BYTE   N04  An4
 BYTE   W12
 BYTE   En3
 BYTE   N04  An3
 BYTE   W06
 BYTE   En4
 BYTE   N04  An4
 BYTE   W12
 BYTE   En4
 BYTE   N04  An4
 BYTE   W12
 BYTE   En4
 BYTE   N04  An4
 BYTE   W06
 BYTE   En4
 BYTE   N04  An4
 BYTE   W06
// 042   ----------------------------------------
 BYTE   W06
 BYTE   En4
 BYTE   N04  An4
 BYTE   W06
 BYTE   En4
 BYTE   N04  An4
 BYTE   W06
 BYTE   En4
 BYTE   N04  An4
 BYTE   W06
 BYTE   En3
 BYTE   N04  An3
 BYTE   W06
 BYTE   En4
 BYTE   N04  An4
 BYTE   W12
 BYTE   En3
 BYTE   N04  An3
 BYTE   W06
 BYTE   En4
 BYTE   N04  An4
 BYTE   W12
 BYTE   En4
 BYTE   N04  An4
 BYTE   W12
 BYTE   En4
 BYTE   N04  An4
 BYTE   W06
 BYTE   En4
 BYTE   N04  An4
 BYTE   W12
 BYTE   En4
 BYTE   N04  An4
 BYTE   W06
// 043   ----------------------------------------
 BYTE   Fs4
 BYTE   N04  Bn4
 BYTE   W06
 BYTE   Fs4
 BYTE   N04  Bn4
 BYTE   W06
 BYTE   Fs3
 BYTE   N04  Bn3
 BYTE   W06
 BYTE   Fs4
 BYTE   N04  Bn4
 BYTE   W12
 BYTE   Fs3
 BYTE   N04  Bn3
 BYTE   W06
 BYTE   Fs4
 BYTE   N04  Bn4
 BYTE   W12
 BYTE   Fs4
 BYTE   N04  Bn4
 BYTE   W12
 BYTE   Fs4
 BYTE   N04  Bn4
 BYTE   W06
 BYTE   Fs4
 BYTE   N04  Bn4
 BYTE   W12
 BYTE   Fs4
 BYTE   N04  Bn4
 BYTE   W06
 BYTE   Fs4
 BYTE   N04  Bn4
 BYTE   W06
 BYTE   Fs4
 BYTE   N04  Bn4
 BYTE   W06
// 044   ----------------------------------------
 BYTE   Fs3
 BYTE   N04  Bn3
 BYTE   W06
 BYTE   Fs4
 BYTE   N04  Bn4
 BYTE   W12
 BYTE   Fs3
 BYTE   N04  Bn3
 BYTE   W06
 BYTE   Fs4
 BYTE   N04  Bn4
 BYTE   W12
 BYTE   Fs4
 BYTE   N04  Bn4
 BYTE   W12
 BYTE   Fs4
 BYTE   N04  Bn4
 BYTE   W06
 BYTE   Fs4
 BYTE   N04  Bn4
 BYTE   W12
 BYTE   N03  Fs4
 BYTE   N03  Bn4
 BYTE   W03
 BYTE   GoTo
  POIN2 Label_7_014A86B0
 BYTE   FINE

//**************** Track 9 (Midi-Chn.8) ****************//

song0105_009:
// 000   ----------------------------------------
 BYTE   KEYSH   song0105_key+0
Label_8_014A8803:
 BYTE   VOICE   124
 BYTE   VOL   30*song0105_mvl/mxv
 BYTE   PAN   c_v+0
 BYTE   BEND   c_v+0
 BYTE   N04  Cn1  v112
 BYTE   N22  Cs2
 BYTE   W06
 BYTE   N04  Cn1
 BYTE   W12
 BYTE   N04
 BYTE   W06
 BYTE   Dn1  v108
 BYTE   N22  Cs2  v112
 BYTE   W06
 BYTE   N04  Dn1  v116
 BYTE   W06
 BYTE   Dn1  v120
 BYTE   W06
 BYTE   N04
 BYTE   W06
 BYTE   N09  Cn1  v112
 BYTE   N92  Cs2
 BYTE   W12
 BYTE   N09  Dn1  v120
 BYTE   N09  Ds2  v076
 BYTE   W12
 BYTE   N04  Cn1  v112
 BYTE   N09  Ds2  v092
 BYTE   W06
 BYTE   Cn1  v112
 BYTE   W06
 BYTE   Dn1  v120
 BYTE   N09  Ds2  v076
 BYTE   W12
// 001   ----------------------------------------
Label_8_014A8842:
 BYTE   N09  Cn1  v112
 BYTE   N09  Ds2  v092
 BYTE   W12
 BYTE   Dn1  v120
 BYTE   N09  Ds2  v076
 BYTE   W06
 BYTE   Cn1  v112
 BYTE   W06
 BYTE   Ds2  v092
 BYTE   W06
 BYTE   Cn1  v112
 BYTE   W06
 BYTE   Dn1  v120
 BYTE   N09  Ds2  v076
 BYTE   W12
 BYTE   Cn1  v112
 BYTE   N09  Ds2  v092
 BYTE   W12
 BYTE   Dn1  v120
 BYTE   N09  Ds2  v076
 BYTE   W06
 BYTE   Cn1  v112
 BYTE   W06
 BYTE   Ds2  v092
 BYTE   W12
 BYTE   Cn1  v112
 BYTE   N09  Ds2  v076
 BYTE   W12
 BYTE   PEND 
// 002   ----------------------------------------
Label_8_014A8877:
 BYTE   N09  Dn1  v120
 BYTE   N09  Ds2  v092
 BYTE   W06
 BYTE   Cn1  v112
 BYTE   W06
 BYTE   Ds2  v076
 BYTE   W06
 BYTE   Dn1  v120
 BYTE   W06
 BYTE   Cn1  v112
 BYTE   N09  Ds2  v092
 BYTE   W12
 BYTE   N04  Dn1  v100
 BYTE   W06
 BYTE   N09  Dn1  v120
 BYTE   W06
 BYTE   Cn1  v112
 BYTE   N92  Cs2
 BYTE   W12
 BYTE   N09  Dn1  v120
 BYTE   N09  Ds2  v076
 BYTE   W12
 BYTE   N04  Cn1  v112
 BYTE   N09  Ds2  v092
 BYTE   W06
 BYTE   Cn1  v112
 BYTE   W06
 BYTE   Dn1  v120
 BYTE   N09  Ds2  v076
 BYTE   W12
 BYTE   PEND 
// 003   ----------------------------------------
 BYTE   PATT
  POIN2 Label_8_014A8842
// 004   ----------------------------------------
 BYTE   PATT
  POIN2 Label_8_014A8877
// 005   ----------------------------------------
 BYTE   PATT
  POIN2 Label_8_014A8842
// 006   ----------------------------------------
 BYTE   PATT
  POIN2 Label_8_014A8877
// 007   ----------------------------------------
 BYTE   PATT
  POIN2 Label_8_014A8842
// 008   ----------------------------------------
Label_8_014A88CB:
 BYTE   N09  Dn1  v120
 BYTE   N44  Cs2  v112
 BYTE   W06
 BYTE   N09  Cn1
 BYTE   W12
 BYTE   N04  Dn1  v120
 BYTE   W06
 BYTE   N04
 BYTE   W06
 BYTE   N04
 BYTE   W06
 BYTE   Dn1  v104
 BYTE   W06
 BYTE   N09  Dn1  v120
 BYTE   W06
 BYTE   N04  Cn1  v112
 BYTE   N92  Cs2
 BYTE   W06
 BYTE   N04  Cn1
 BYTE   W06
 BYTE   N04
 BYTE   N09  Ds2  v092
 BYTE   W06
 BYTE   Cn1  v112
 BYTE   W06
 BYTE   Dn1  v120
 BYTE   N09  Ds2  v076
 BYTE   W12
 BYTE   Ds2  v092
 BYTE   W06
 BYTE   Dn1  v120
 BYTE   W06
 BYTE   PEND 
// 009   ----------------------------------------
Label_8_014A8902:
 BYTE   N09  Ds2  v076
 BYTE   W12
 BYTE   Dn1  v120
 BYTE   N09  Ds2  v092
 BYTE   W12
 BYTE   N04  Cn1  v112
 BYTE   N09  Ds2  v076
 BYTE   W06
 BYTE   Cn1  v112
 BYTE   W06
 BYTE   Dn1  v120
 BYTE   N09  Ds2  v092
 BYTE   W12
 BYTE   N04  Cn1  v112
 BYTE   N09  Ds2  v092
 BYTE   W06
 BYTE   N04  Cn1  v112
 BYTE   W06
 BYTE   N04
 BYTE   N09  Ds2  v092
 BYTE   W06
 BYTE   Cn1  v112
 BYTE   W06
 BYTE   Dn1  v120
 BYTE   N09  Ds2  v076
 BYTE   W12
 BYTE   Ds2  v092
 BYTE   W06
 BYTE   Dn1  v120
 BYTE   W06
 BYTE   PEND 
// 010   ----------------------------------------
Label_8_014A893C:
 BYTE   N09  Ds2  v076
 BYTE   W12
 BYTE   Dn1  v120
 BYTE   N09  Ds2  v092
 BYTE   W12
 BYTE   N04  Cn1  v112
 BYTE   N09  Ds2  v076
 BYTE   W06
 BYTE   Cn1  v112
 BYTE   W06
 BYTE   Dn1  v120
 BYTE   N09  Ds2  v092
 BYTE   W12
 BYTE   N04  Cn1  v112
 BYTE   N92  Cs2
 BYTE   W06
 BYTE   N04  Cn1
 BYTE   W06
 BYTE   N04
 BYTE   N09  Ds2  v092
 BYTE   W06
 BYTE   Cn1  v112
 BYTE   W06
 BYTE   Dn1  v120
 BYTE   N09  Ds2  v076
 BYTE   W12
 BYTE   Ds2  v092
 BYTE   W06
 BYTE   Dn1  v120
 BYTE   W06
 BYTE   PEND 
// 011   ----------------------------------------
 BYTE   PATT
  POIN2 Label_8_014A8902
// 012   ----------------------------------------
Label_8_014A8979:
 BYTE   N09  Ds2  v076
 BYTE   W12
 BYTE   Dn1  v120
 BYTE   N09  Ds2  v092
 BYTE   W12
 BYTE   N04  Cn1  v112
 BYTE   N09  Ds2  v076
 BYTE   W06
 BYTE   Cn1  v112
 BYTE   W06
 BYTE   Dn1  v120
 BYTE   N09  Ds2  v092
 BYTE   W12
 BYTE   N22  Cn1  v112
 BYTE   N92  Cs2
 BYTE   W08
 BYTE   N02  Ds2  v076
 BYTE   W04
 BYTE   N06  Ds2  v092
 BYTE   W08
 BYTE   N02  Ds2  v076
 BYTE   W04
 BYTE   N06  Ds2  v092
 BYTE   W08
 BYTE   N02  Ds2  v076
 BYTE   W04
 BYTE   N06  Ds2  v092
 BYTE   W08
 BYTE   N02  Ds2  v076
 BYTE   W04
 BYTE   PEND 
// 013   ----------------------------------------
Label_8_014A89B6:
 BYTE   N06  Ds2  v092
 BYTE   W08
 BYTE   N02  Ds2  v076
 BYTE   W04
 BYTE   N06  Ds2  v092
 BYTE   W08
 BYTE   N02  Ds2  v076
 BYTE   W04
 BYTE   N06  Ds2  v092
 BYTE   W08
 BYTE   N02  Ds2  v076
 BYTE   W04
 BYTE   N06  Ds2  v092
 BYTE   W08
 BYTE   N02  Ds2  v076
 BYTE   W04
 BYTE   N22  Cn1  v112
 BYTE   N06  Ds2  v092
 BYTE   W08
 BYTE   N02  Ds2  v076
 BYTE   W04
 BYTE   N06  Ds2  v092
 BYTE   W08
 BYTE   N02  Ds2  v076
 BYTE   W04
 BYTE   N06  Ds2  v092
 BYTE   W08
 BYTE   N02  Ds2  v076
 BYTE   W04
 BYTE   N06  Ds2  v092
 BYTE   W08
 BYTE   N02  Ds2  v076
 BYTE   W04
 BYTE   PEND 
// 014   ----------------------------------------
Label_8_014A89FA:
 BYTE   N06  Ds2  v092
 BYTE   W08
 BYTE   N02  Ds2  v076
 BYTE   W04
 BYTE   N06  Ds2  v092
 BYTE   W08
 BYTE   N02  Ds2  v076
 BYTE   W04
 BYTE   N06  Ds2  v092
 BYTE   W08
 BYTE   N02  Ds2  v076
 BYTE   W04
 BYTE   N06  Ds2  v092
 BYTE   W08
 BYTE   N02  Ds2  v076
 BYTE   W04
 BYTE   N22  Cn1  v112
 BYTE   N92  Cs2
 BYTE   W08
 BYTE   N02  Ds2  v076
 BYTE   W04
 BYTE   N06  Ds2  v092
 BYTE   W08
 BYTE   N02  Ds2  v076
 BYTE   W04
 BYTE   N06  Ds2  v092
 BYTE   W08
 BYTE   N02  Ds2  v076
 BYTE   W04
 BYTE   N06  Ds2  v092
 BYTE   W08
 BYTE   N02  Ds2  v076
 BYTE   W04
 BYTE   PEND 
// 015   ----------------------------------------
Label_8_014A8A3D:
 BYTE   N06  Ds2  v092
 BYTE   W08
 BYTE   N02  Ds2  v076
 BYTE   W04
 BYTE   N06  Ds2  v092
 BYTE   W08
 BYTE   N02  Ds2  v076
 BYTE   W04
 BYTE   N06  Ds2  v092
 BYTE   W08
 BYTE   N02  Ds2  v076
 BYTE   W04
 BYTE   N06  Ds2  v092
 BYTE   W08
 BYTE   N02  Ds2  v076
 BYTE   W04
 BYTE   N16  Cn1  v112
 BYTE   N06  Ds2  v092
 BYTE   W08
 BYTE   N02  Ds2  v076
 BYTE   W04
 BYTE   N06  Ds2  v092
 BYTE   W06
 BYTE   N16  Cn1  v112
 BYTE   W02
 BYTE   N02  Ds2  v076
 BYTE   W04
 BYTE   N06  Ds2  v092
 BYTE   W08
 BYTE   N02  Ds2  v076
 BYTE   W04
 BYTE   N32  Dn1  v120
 BYTE   N06  Ds2  v092
 BYTE   W08
 BYTE   N02  Ds2  v076
 BYTE   W04
 BYTE   PEND 
// 016   ----------------------------------------
 BYTE   N06  Ds2  v092
 BYTE   W08
 BYTE   N02  Ds2  v076
 BYTE   W04
 BYTE   N06  Ds2  v092
 BYTE   W08
 BYTE   N02  Ds2  v076
 BYTE   W04
 BYTE   Dn1  v088
 BYTE   N06  Ds2  v092
 BYTE   W04
 BYTE   N02  Dn1  v100
 BYTE   W04
 BYTE   Dn1  v108
 BYTE   N02  Ds2  v076
 BYTE   W04
 BYTE   Dn1  v120
 BYTE   N06  Ds2  v092
 BYTE   W04
 BYTE   N02  Dn1  v120
 BYTE   W04
 BYTE   N02
 BYTE   N02  Ds2  v076
 BYTE   W04
 BYTE   N09  Cn1  v112
 BYTE   N92  Cs2
 BYTE   W12
 BYTE   N09  Dn1  v120
 BYTE   N09  Ds2  v076
 BYTE   W12
 BYTE   N04  Cn1  v112
 BYTE   N09  Ds2  v092
 BYTE   W06
 BYTE   Cn1  v112
 BYTE   W06
 BYTE   Dn1  v120
 BYTE   N09  Ds2  v076
 BYTE   W12
// 017   ----------------------------------------
 BYTE   PATT
  POIN2 Label_8_014A8842
// 018   ----------------------------------------
 BYTE   PATT
  POIN2 Label_8_014A8877
// 019   ----------------------------------------
 BYTE   PATT
  POIN2 Label_8_014A8842
// 020   ----------------------------------------
 BYTE   PATT
  POIN2 Label_8_014A8877
// 021   ----------------------------------------
 BYTE   PATT
  POIN2 Label_8_014A8842
// 022   ----------------------------------------
 BYTE   PATT
  POIN2 Label_8_014A8877
// 023   ----------------------------------------
 BYTE   PATT
  POIN2 Label_8_014A8842
// 024   ----------------------------------------
 BYTE   PATT
  POIN2 Label_8_014A88CB
// 025   ----------------------------------------
 BYTE   PATT
  POIN2 Label_8_014A8902
// 026   ----------------------------------------
 BYTE   PATT
  POIN2 Label_8_014A893C
// 027   ----------------------------------------
 BYTE   PATT
  POIN2 Label_8_014A8902
// 028   ----------------------------------------
 BYTE   PATT
  POIN2 Label_8_014A8979
// 029   ----------------------------------------
 BYTE   PATT
  POIN2 Label_8_014A89B6
// 030   ----------------------------------------
 BYTE   PATT
  POIN2 Label_8_014A89FA
// 031   ----------------------------------------
 BYTE   PATT
  POIN2 Label_8_014A8A3D
// 032   ----------------------------------------
 BYTE   N06  Ds2  v092
 BYTE   W08
 BYTE   N02  Ds2  v076
 BYTE   W04
 BYTE   N06  Ds2  v092
 BYTE   W08
 BYTE   N02  Ds2  v076
 BYTE   W04
 BYTE   Dn1  v088
 BYTE   N06  Ds2  v092
 BYTE   W04
 BYTE   N02  Dn1  v100
 BYTE   W04
 BYTE   Dn1  v108
 BYTE   N02  Ds2  v076
 BYTE   W04
 BYTE   Dn1  v120
 BYTE   N06  Ds2  v092
 BYTE   W04
 BYTE   N02  Dn1  v120
 BYTE   W04
 BYTE   N02
 BYTE   N02  Ds2  v076
 BYTE   W04
 BYTE   N09  Cn1  v112
 BYTE   N92  Cs2
 BYTE   W08
 BYTE   N02  Ds2  v068
 BYTE   W04
 BYTE   N06  Ds2  v080
 BYTE   W08
 BYTE   N02  Ds2  v068
 BYTE   W04
 BYTE   N09  Dn1  v120
 BYTE   N06  Ds2  v080
 BYTE   W08
 BYTE   N09  Cn1  v112
 BYTE   N02  Ds2  v068
 BYTE   W04
 BYTE   N06  Ds2  v080
 BYTE   W08
 BYTE   N09  Dn1  v120
 BYTE   N02  Ds2  v068
 BYTE   W04
// 033   ----------------------------------------
Label_8_014A8B79:
 BYTE   N06  Ds2  v080
 BYTE   W08
 BYTE   N02  Ds2  v068
 BYTE   W04
 BYTE   N09  Cn1  v112
 BYTE   N06  Ds2  v080
 BYTE   W08
 BYTE   N02  Ds2  v068
 BYTE   W04
 BYTE   N09  Dn1  v120
 BYTE   N06  Ds2  v080
 BYTE   W08
 BYTE   N02  Ds2  v068
 BYTE   W04
 BYTE   N09  Cn1  v112
 BYTE   N04  Ds2  v080
 BYTE   W08
 BYTE   N02  Ds2  v068
 BYTE   W04
 BYTE   N06  Ds2  v080
 BYTE   W08
 BYTE   N02  Ds2  v068
 BYTE   W04
 BYTE   N09  Dn1  v120
 BYTE   N06  Ds2  v080
 BYTE   W08
 BYTE   N09  Cn1  v112
 BYTE   N02  Ds2  v068
 BYTE   W04
 BYTE   N06  Ds2  v080
 BYTE   W08
 BYTE   N09  Dn1  v120
 BYTE   N02  Ds2  v068
 BYTE   W04
 BYTE   N06  Ds2  v080
 BYTE   W08
 BYTE   N02  Ds2  v068
 BYTE   W04
 BYTE   PEND 
// 034   ----------------------------------------
Label_8_014A8BCC:
 BYTE   N09  Cn1  v112
 BYTE   N06  Ds2  v080
 BYTE   W08
 BYTE   N02  Ds2  v068
 BYTE   W04
 BYTE   N04  Dn1  v120
 BYTE   W06
 BYTE   N04
 BYTE   W06
 BYTE   N09  Cn1  v112
 BYTE   N92  Cs2
 BYTE   W08
 BYTE   N02  Ds2  v068
 BYTE   W04
 BYTE   N06  Ds2  v080
 BYTE   W08
 BYTE   N02  Ds2  v068
 BYTE   W04
 BYTE   N09  Dn1  v120
 BYTE   N06  Ds2  v080
 BYTE   W08
 BYTE   N09  Cn1  v112
 BYTE   N02  Ds2  v068
 BYTE   W04
 BYTE   N06  Ds2  v080
 BYTE   W08
 BYTE   N09  Dn1  v120
 BYTE   N02  Ds2  v068
 BYTE   W04
 BYTE   N06  Ds2  v080
 BYTE   W08
 BYTE   N02  Ds2  v068
 BYTE   W04
 BYTE   N09  Cn1  v112
 BYTE   N06  Ds2  v080
 BYTE   W08
 BYTE   N02  Ds2  v068
 BYTE   W04
 BYTE   PEND 
// 035   ----------------------------------------
Label_8_014A8C1C:
 BYTE   N09  Dn1  v120
 BYTE   N06  Ds2  v080
 BYTE   W08
 BYTE   N02  Ds2  v068
 BYTE   W04
 BYTE   N09  Cn1  v112
 BYTE   N04  Ds2  v080
 BYTE   W08
 BYTE   N02  Ds2  v068
 BYTE   W04
 BYTE   N06  Ds2  v080
 BYTE   W08
 BYTE   N02  Ds2  v068
 BYTE   W04
 BYTE   N09  Dn1  v120
 BYTE   N06  Ds2  v080
 BYTE   W08
 BYTE   N09  Cn1  v112
 BYTE   N02  Ds2  v068
 BYTE   W04
 BYTE   N06  Ds2  v080
 BYTE   W08
 BYTE   N09  Dn1  v120
 BYTE   N02  Ds2  v068
 BYTE   W04
 BYTE   N06  Ds2  v080
 BYTE   W08
 BYTE   N02  Ds2  v068
 BYTE   W04
 BYTE   N09  Cn1  v112
 BYTE   N06  Ds2  v080
 BYTE   W08
 BYTE   N02  Ds2  v068
 BYTE   W04
 BYTE   N04  Dn1  v120
 BYTE   W06
 BYTE   N04
 BYTE   W06
 BYTE   PEND 
// 036   ----------------------------------------
Label_8_014A8C6D:
 BYTE   N09  Cn1  v112
 BYTE   N92  Cs2
 BYTE   W08
 BYTE   N02  Ds2  v068
 BYTE   W04
 BYTE   N06  Ds2  v080
 BYTE   W08
 BYTE   N02  Ds2  v068
 BYTE   W04
 BYTE   N09  Dn1  v120
 BYTE   N06  Ds2  v080
 BYTE   W08
 BYTE   N09  Cn1  v112
 BYTE   N02  Ds2  v068
 BYTE   W04
 BYTE   N06  Ds2  v080
 BYTE   W08
 BYTE   N09  Dn1  v120
 BYTE   N02  Ds2  v068
 BYTE   W04
 BYTE   N06  Ds2  v080
 BYTE   W08
 BYTE   N02  Ds2  v068
 BYTE   W04
 BYTE   N09  Cn1  v112
 BYTE   N06  Ds2  v080
 BYTE   W08
 BYTE   N02  Ds2  v068
 BYTE   W04
 BYTE   N09  Dn1  v120
 BYTE   N06  Ds2  v080
 BYTE   W08
 BYTE   N02  Ds2  v068
 BYTE   W04
 BYTE   N09  Cn1  v112
 BYTE   N04  Ds2  v080
 BYTE   W08
 BYTE   N02  Ds2  v068
 BYTE   W04
 BYTE   PEND 
// 037   ----------------------------------------
 BYTE   N06  Ds2  v080
 BYTE   W08
 BYTE   N02  Ds2  v068
 BYTE   W04
 BYTE   N09  Dn1  v120
 BYTE   N06  Ds2  v080
 BYTE   W08
 BYTE   N09  Cn1  v112
 BYTE   N02  Ds2  v068
 BYTE   W04
 BYTE   N06  Ds2  v080
 BYTE   W08
 BYTE   N09  Dn1  v120
 BYTE   N02  Ds2  v068
 BYTE   W04
 BYTE   N06  Ds2  v080
 BYTE   W08
 BYTE   N02  Ds2  v068
 BYTE   W04
 BYTE   N09  Cn1  v112
 BYTE   N06  Ds2  v080
 BYTE   W08
 BYTE   N02  Ds2  v068
 BYTE   W04
 BYTE   N04  Dn1  v120
 BYTE   W06
 BYTE   N04
 BYTE   W06
 BYTE   N09  Cn1  v112
 BYTE   N92  Cs2
 BYTE   W08
 BYTE   N02  Ds2  v068
 BYTE   W04
 BYTE   N06  Ds2  v080
 BYTE   W08
 BYTE   N02  Ds2  v068
 BYTE   W04
// 038   ----------------------------------------
 BYTE   N09  Dn1  v120
 BYTE   N06  Ds2  v080
 BYTE   W08
 BYTE   N09  Cn1  v112
 BYTE   N02  Ds2  v068
 BYTE   W04
 BYTE   N06  Ds2  v080
 BYTE   W08
 BYTE   N09  Dn1  v120
 BYTE   N02  Ds2  v068
 BYTE   W04
 BYTE   N06  Ds2  v080
 BYTE   W08
 BYTE   N02  Ds2  v068
 BYTE   W04
 BYTE   N09  Cn1  v112
 BYTE   N06  Ds2  v080
 BYTE   W08
 BYTE   N02  Ds2  v068
 BYTE   W04
 BYTE   N09  Dn1  v120
 BYTE   N06  Ds2  v080
 BYTE   W08
 BYTE   N02  Ds2  v068
 BYTE   W04
 BYTE   N09  Cn1  v112
 BYTE   N04  Ds2  v080
 BYTE   W08
 BYTE   N02  Ds2  v068
 BYTE   W04
 BYTE   N06  Ds2  v080
 BYTE   W08
 BYTE   N02  Ds2  v068
 BYTE   W04
 BYTE   N09  Dn1  v120
 BYTE   N06  Ds2  v080
 BYTE   W08
 BYTE   N09  Cn1  v112
 BYTE   N02  Ds2  v068
 BYTE   W04
// 039   ----------------------------------------
 BYTE   N06  Ds2  v080
 BYTE   W08
 BYTE   N09  Dn1  v120
 BYTE   N02  Ds2  v068
 BYTE   W04
 BYTE   N06  Ds2  v080
 BYTE   W08
 BYTE   N02  Ds2  v068
 BYTE   W04
 BYTE   N09  Cn1  v112
 BYTE   N06  Ds2  v080
 BYTE   W08
 BYTE   N02  Ds2  v068
 BYTE   W04
 BYTE   N04  Dn1  v120
 BYTE   W06
 BYTE   N04
 BYTE   W06
 BYTE   N09  Cn1  v112
 BYTE   N92  Cs2
 BYTE   W08
 BYTE   N02  Ds2  v068
 BYTE   W04
 BYTE   N06  Ds2  v080
 BYTE   W08
 BYTE   N02  Ds2  v068
 BYTE   W04
 BYTE   N09  Dn1  v120
 BYTE   N06  Ds2  v080
 BYTE   W08
 BYTE   N09  Cn1  v112
 BYTE   N02  Ds2  v068
 BYTE   W04
 BYTE   N06  Ds2  v080
 BYTE   W08
 BYTE   N09  Dn1  v120
 BYTE   N02  Ds2  v068
 BYTE   W04
// 040   ----------------------------------------
 BYTE   PATT
  POIN2 Label_8_014A8B79
// 041   ----------------------------------------
 BYTE   PATT
  POIN2 Label_8_014A8BCC
// 042   ----------------------------------------
 BYTE   PATT
  POIN2 Label_8_014A8C1C
// 043   ----------------------------------------
 BYTE   PATT
  POIN2 Label_8_014A8C6D
// 044   ----------------------------------------
 BYTE   N06  Ds2  v080
 BYTE   W08
 BYTE   N02  Ds2  v068
 BYTE   W04
 BYTE   N09  Dn1  v120
 BYTE   N06  Ds2  v080
 BYTE   W08
 BYTE   N09  Cn1  v112
 BYTE   N02  Ds2  v068
 BYTE   W04
 BYTE   N06  Ds2  v080
 BYTE   W08
 BYTE   N09  Dn1  v120
 BYTE   N02  Ds2  v068
 BYTE   W04
 BYTE   N06  Ds2  v080
 BYTE   W08
 BYTE   N02  Ds2  v068
 BYTE   W04
 BYTE   N04  Dn1  v120
 BYTE   N06  Ds2  v080
 BYTE   W06
 BYTE   N04  Dn1  v120
 BYTE   W06
 BYTE   N04
 BYTE   W06
 BYTE   N03
 BYTE   W03
 BYTE   GoTo
  POIN2 Label_8_014A8803
 BYTE   FINE

//**************** Track 10 (Midi-Chn.9) ****************//

song0105_010:
// 000   ----------------------------------------
 BYTE   KEYSH   song0105_key+0
Label_9_014A8E09:
 BYTE   VOICE   38
 BYTE   VOL   38*song0105_mvl/mxv
 BYTE   PAN   c_v+0
 BYTE   BEND   c_v+0
 BYTE   W48
 BYTE   N10  An1  v127
 BYTE   W12
 BYTE   N01
 BYTE   W06
 BYTE   N10
 BYTE   W12
 BYTE   N01
 BYTE   W06
 BYTE   N10
 BYTE   W12
// 001   ----------------------------------------
Label_9_014A8E1E:
 BYTE   N01  An1  v127
 BYTE   W06
 BYTE   N10
 BYTE   W12
 BYTE   N01
 BYTE   W06
 BYTE   N04
 BYTE   W06
 BYTE   Gn1
 BYTE   W06
 BYTE   Gn2
 BYTE   W06
 BYTE   An2
 BYTE   W06
 BYTE   N10  An1
 BYTE   W12
 BYTE   N01
 BYTE   W06
 BYTE   N10
 BYTE   W12
 BYTE   N01
 BYTE   W06
 BYTE   N10
 BYTE   W12
 BYTE   PEND 
// 002   ----------------------------------------
 BYTE   PATT
  POIN2 Label_9_014A8E1E
// 003   ----------------------------------------
Label_9_014A8E3F:
 BYTE   N01  An1  v127
 BYTE   W06
 BYTE   N10
 BYTE   W12
 BYTE   N01
 BYTE   W06
 BYTE   N04
 BYTE   W06
 BYTE   Gn1
 BYTE   W06
 BYTE   Cn3
 BYTE   W06
 BYTE   Bn2
 BYTE   W06
 BYTE   N10  An1
 BYTE   W12
 BYTE   N01
 BYTE   W06
 BYTE   N10
 BYTE   W12
 BYTE   N01
 BYTE   W06
 BYTE   N10
 BYTE   W12
 BYTE   PEND 
// 004   ----------------------------------------
Label_9_014A8E5B:
 BYTE   N01  An1  v127
 BYTE   W06
 BYTE   N10
 BYTE   W12
 BYTE   N01
 BYTE   W06
 BYTE   N04
 BYTE   W06
 BYTE   Gn1
 BYTE   W06
 BYTE   Gn2
 BYTE   W06
 BYTE   Gs2
 BYTE   W06
 BYTE   N10  An1
 BYTE   W12
 BYTE   N01
 BYTE   W06
 BYTE   N10
 BYTE   W12
 BYTE   N01
 BYTE   W06
 BYTE   N10
 BYTE   W12
 BYTE   PEND 
// 005   ----------------------------------------
 BYTE   PATT
  POIN2 Label_9_014A8E1E
// 006   ----------------------------------------
 BYTE   PATT
  POIN2 Label_9_014A8E1E
// 007   ----------------------------------------
 BYTE   PATT
  POIN2 Label_9_014A8E3F
// 008   ----------------------------------------
Label_9_014A8E86:
 BYTE   N01  An1  v127
 BYTE   W06
 BYTE   N10
 BYTE   W12
 BYTE   N01
 BYTE   W06
 BYTE   N04
 BYTE   W06
 BYTE   Gn1
 BYTE   W06
 BYTE   Gn2
 BYTE   W06
 BYTE   Gs2
 BYTE   W06
 BYTE   N16  En1
 BYTE   W18
 BYTE   En2
 BYTE   W18
 BYTE   N10  Fs2
 BYTE   W12
 BYTE   PEND 
// 009   ----------------------------------------
Label_9_014A8E9F:
 BYTE   N10  Gn2  v127
 BYTE   W12
 BYTE   An2
 BYTE   W12
 BYTE   N04  As2
 BYTE   W06
 BYTE   Bn2
 BYTE   W06
 BYTE   N10  Ds2
 BYTE   W12
 BYTE   N16  En1
 BYTE   W18
 BYTE   As1
 BYTE   W18
 BYTE   N10  En2
 BYTE   W12
 BYTE   PEND 
// 010   ----------------------------------------
Label_9_014A8EB6:
 BYTE   N10  Fs2  v127
 BYTE   W12
 BYTE   Gn2
 BYTE   W12
 BYTE   N04  An2
 BYTE   W06
 BYTE   As2
 BYTE   W06
 BYTE   N10  Bn2
 BYTE   W12
 BYTE   N16  En1
 BYTE   W18
 BYTE   En2
 BYTE   W18
 BYTE   N10  Fs2
 BYTE   W12
 BYTE   PEND 
// 011   ----------------------------------------
 BYTE   PATT
  POIN2 Label_9_014A8E9F
// 012   ----------------------------------------
Label_9_014A8ED2:
 BYTE   N10  Fs2  v127
 BYTE   W12
 BYTE   Gn2
 BYTE   W12
 BYTE   N04  An2
 BYTE   W06
 BYTE   As2
 BYTE   W06
 BYTE   N10  Bn2
 BYTE   W12
 BYTE   En1
 BYTE   W12
 BYTE   En2
 BYTE   W12
 BYTE   Fs2
 BYTE   W12
 BYTE   Gn2
 BYTE   W12
 BYTE   PEND 
// 013   ----------------------------------------
Label_9_014A8EE9:
 BYTE   N10  An2  v127
 BYTE   W12
 BYTE   As2
 BYTE   W12
 BYTE   Bn2
 BYTE   W12
 BYTE   Cn3
 BYTE   W12
 BYTE   N06  Bn2
 BYTE   W08
 BYTE   N04  Fs2
 BYTE   W04
 BYTE   N10  As2
 BYTE   W12
 BYTE   An2
 BYTE   W12
 BYTE   Gs2
 BYTE   W12
 BYTE   PEND 
// 014   ----------------------------------------
Label_9_014A8F01:
 BYTE   N10  Gn2  v127
 BYTE   W12
 BYTE   Fs2
 BYTE   W12
 BYTE   N06  Fn2
 BYTE   W08
 BYTE   N02  Cn2
 BYTE   W04
 BYTE   N10  En2
 BYTE   W12
 BYTE   N06  Ds2
 BYTE   W08
 BYTE   N02  Dn2
 BYTE   W04
 BYTE   N10  Cs2
 BYTE   W12
 BYTE   Cn2
 BYTE   W12
 BYTE   Bn1
 BYTE   W12
 BYTE   PEND 
// 015   ----------------------------------------
Label_9_014A8F1E:
 BYTE   N10  As1  v127
 BYTE   W12
 BYTE   An1
 BYTE   W12
 BYTE   N06  Gs1
 BYTE   W08
 BYTE   N02  Gn1
 BYTE   W04
 BYTE   N10  Fs1
 BYTE   W12
 BYTE   N06  Fn1
 BYTE   W08
 BYTE   N02
 BYTE   W04
 BYTE   N10  Fs1
 BYTE   W12
 BYTE   Gs1
 BYTE   W12
 BYTE   N06  An1
 BYTE   W08
 BYTE   N02
 BYTE   W04
 BYTE   PEND 
// 016   ----------------------------------------
 BYTE   N10  Bn1
 BYTE   W12
 BYTE   Cn2
 BYTE   W12
 BYTE   Dn2
 BYTE   W12
 BYTE   Ds2
 BYTE   W12
 BYTE   An1
 BYTE   W12
 BYTE   N01
 BYTE   W06
 BYTE   N10
 BYTE   W12
 BYTE   N01
 BYTE   W06
 BYTE   N10
 BYTE   W12
// 017   ----------------------------------------
 BYTE   PATT
  POIN2 Label_9_014A8E1E
// 018   ----------------------------------------
 BYTE   PATT
  POIN2 Label_9_014A8E1E
// 019   ----------------------------------------
 BYTE   PATT
  POIN2 Label_9_014A8E3F
// 020   ----------------------------------------
 BYTE   PATT
  POIN2 Label_9_014A8E5B
// 021   ----------------------------------------
 BYTE   PATT
  POIN2 Label_9_014A8E1E
// 022   ----------------------------------------
 BYTE   PATT
  POIN2 Label_9_014A8E1E
// 023   ----------------------------------------
 BYTE   PATT
  POIN2 Label_9_014A8E3F
// 024   ----------------------------------------
 BYTE   PATT
  POIN2 Label_9_014A8E86
// 025   ----------------------------------------
 BYTE   PATT
  POIN2 Label_9_014A8E9F
// 026   ----------------------------------------
 BYTE   PATT
  POIN2 Label_9_014A8EB6
// 027   ----------------------------------------
 BYTE   PATT
  POIN2 Label_9_014A8E9F
// 028   ----------------------------------------
 BYTE   PATT
  POIN2 Label_9_014A8ED2
// 029   ----------------------------------------
 BYTE   PATT
  POIN2 Label_9_014A8EE9
// 030   ----------------------------------------
 BYTE   PATT
  POIN2 Label_9_014A8F01
// 031   ----------------------------------------
 BYTE   PATT
  POIN2 Label_9_014A8F1E
// 032   ----------------------------------------
 BYTE   N10  Bn1  v127
 BYTE   W12
 BYTE   Cn2
 BYTE   W12
 BYTE   Dn2
 BYTE   W12
 BYTE   Ds2
 BYTE   W12
 BYTE   N04  En1
 BYTE   W06
 BYTE   N04
 BYTE   W06
 BYTE   N04
 BYTE   W06
 BYTE   N10  En2
 BYTE   W12
 BYTE   En1
 BYTE   W12
 BYTE   N04
 BYTE   W06
// 033   ----------------------------------------
Label_9_014A8FB3:
 BYTE   N10  En2  v127
 BYTE   W12
 BYTE   N04  Dn2
 BYTE   W06
 BYTE   N01
 BYTE   W06
 BYTE   N04  En2
 BYTE   W06
 BYTE   Ds1
 BYTE   W06
 BYTE   En1
 BYTE   W06
 BYTE   N04
 BYTE   W06
 BYTE   N04
 BYTE   W06
 BYTE   N10  En2
 BYTE   W12
 BYTE   En1
 BYTE   W12
 BYTE   N04
 BYTE   W06
 BYTE   N10  En2
 BYTE   W12
 BYTE   PEND 
// 034   ----------------------------------------
 BYTE   N04  Dn2
 BYTE   W06
 BYTE   N01
 BYTE   W06
 BYTE   N04  En2
 BYTE   W06
 BYTE   Ds1
 BYTE   W06
 BYTE   En1
 BYTE   W06
 BYTE   N04
 BYTE   W06
 BYTE   N04
 BYTE   W06
 BYTE   N10  En2
 BYTE   W12
 BYTE   En1
 BYTE   W12
 BYTE   N04
 BYTE   W06
 BYTE   N10  En2
 BYTE   W12
 BYTE   N04  Dn2
 BYTE   W06
 BYTE   N01
 BYTE   W06
// 035   ----------------------------------------
 BYTE   N04  En2
 BYTE   W06
 BYTE   Ds1
 BYTE   W06
 BYTE   An1
 BYTE   W06
 BYTE   N04
 BYTE   W06
 BYTE   N04
 BYTE   W06
 BYTE   N10  An2
 BYTE   W12
 BYTE   An1
 BYTE   W12
 BYTE   N04
 BYTE   W06
 BYTE   N10  An2
 BYTE   W12
 BYTE   N04  Gn2
 BYTE   W06
 BYTE   N01
 BYTE   W06
 BYTE   N04  An2
 BYTE   W06
 BYTE   Gs1
 BYTE   W06
// 036   ----------------------------------------
 BYTE   An1
 BYTE   W06
 BYTE   N04
 BYTE   W06
 BYTE   N04
 BYTE   W06
 BYTE   N10  An2
 BYTE   W12
 BYTE   An1
 BYTE   W12
 BYTE   N04
 BYTE   W06
 BYTE   N10  An2
 BYTE   W12
 BYTE   N04  Gn2
 BYTE   W06
 BYTE   N01
 BYTE   W06
 BYTE   N04  An2
 BYTE   W06
 BYTE   Gs1
 BYTE   W06
 BYTE   Bn1
 BYTE   W06
 BYTE   N04
 BYTE   W06
// 037   ----------------------------------------
 BYTE   N04
 BYTE   W06
 BYTE   N10  Bn2
 BYTE   W12
 BYTE   Bn1
 BYTE   W12
 BYTE   N04
 BYTE   W06
 BYTE   N10  Bn2
 BYTE   W12
 BYTE   N04  An2
 BYTE   W06
 BYTE   N01
 BYTE   W06
 BYTE   N04  Bn2
 BYTE   W06
 BYTE   As1
 BYTE   W06
 BYTE   Bn1
 BYTE   W06
 BYTE   N04
 BYTE   W06
 BYTE   N04
 BYTE   W06
 BYTE   N10  Bn2
 BYTE   W06
// 038   ----------------------------------------
 BYTE   W06
 BYTE   Bn1
 BYTE   W12
 BYTE   N04
 BYTE   W06
 BYTE   N10  Bn2
 BYTE   W12
 BYTE   N04  An2
 BYTE   W06
 BYTE   N01
 BYTE   W06
 BYTE   N04  Bn2
 BYTE   W06
 BYTE   As1
 BYTE   W06
 BYTE   En1
 BYTE   W06
 BYTE   N04
 BYTE   W06
 BYTE   N04
 BYTE   W06
 BYTE   N10  En2
 BYTE   W12
 BYTE   En1
 BYTE   W06
// 039   ----------------------------------------
 BYTE   W06
 BYTE   N04
 BYTE   W06
 BYTE   N10  En2
 BYTE   W12
 BYTE   N04  Dn2
 BYTE   W06
 BYTE   N01
 BYTE   W06
 BYTE   N04  En2
 BYTE   W06
 BYTE   Ds1
 BYTE   W06
 BYTE   En1
 BYTE   W06
 BYTE   N04
 BYTE   W06
 BYTE   N04
 BYTE   W06
 BYTE   N10  En2
 BYTE   W12
 BYTE   En1
 BYTE   W12
 BYTE   N04
 BYTE   W06
// 040   ----------------------------------------
 BYTE   PATT
  POIN2 Label_9_014A8FB3
// 041   ----------------------------------------
 BYTE   N04  Dn2  v127
 BYTE   W06
 BYTE   N01
 BYTE   W06
 BYTE   N04  En2
 BYTE   W06
 BYTE   Ds1
 BYTE   W06
 BYTE   An1
 BYTE   W06
 BYTE   N04
 BYTE   W06
 BYTE   N04
 BYTE   W06
 BYTE   N10  An2
 BYTE   W12
 BYTE   An1
 BYTE   W12
 BYTE   N04
 BYTE   W06
 BYTE   N10  An2
 BYTE   W12
 BYTE   N04  Gn2
 BYTE   W06
 BYTE   N01
 BYTE   W06
// 042   ----------------------------------------
 BYTE   N04  An2
 BYTE   W06
 BYTE   Gs1
 BYTE   W06
 BYTE   An1
 BYTE   W06
 BYTE   N04
 BYTE   W06
 BYTE   N04
 BYTE   W06
 BYTE   N10  An2
 BYTE   W12
 BYTE   An1
 BYTE   W12
 BYTE   N04
 BYTE   W06
 BYTE   N10  An2
 BYTE   W12
 BYTE   N04  Gn2
 BYTE   W06
 BYTE   N01
 BYTE   W06
 BYTE   N04  An2
 BYTE   W06
 BYTE   Gs1
 BYTE   W06
// 043   ----------------------------------------
 BYTE   Bn1
 BYTE   W06
 BYTE   N04
 BYTE   W06
 BYTE   N04
 BYTE   W06
 BYTE   N10  Bn2
 BYTE   W12
 BYTE   Bn1
 BYTE   W12
 BYTE   N04
 BYTE   W06
 BYTE   N10  Bn2
 BYTE   W12
 BYTE   N04  An2
 BYTE   W06
 BYTE   N01
 BYTE   W06
 BYTE   N04  Bn2
 BYTE   W06
 BYTE   As1
 BYTE   W06
 BYTE   Bn1
 BYTE   W06
 BYTE   N04
 BYTE   W06
// 044   ----------------------------------------
 BYTE   N04
 BYTE   W06
 BYTE   N10  Bn2
 BYTE   W12
 BYTE   Bn1
 BYTE   W12
 BYTE   N04
 BYTE   W06
 BYTE   N10  Bn2
 BYTE   W12
 BYTE   N04  An2
 BYTE   W06
 BYTE   N01
 BYTE   W06
 BYTE   N04  Bn2
 BYTE   W06
 BYTE   N03  As1
 BYTE   W03
 BYTE   GoTo
  POIN2 Label_9_014A8E09
 BYTE   FINE

//**************** Track 11 (Midi-Chn.10) ****************//

song0105_011:
// 000   ----------------------------------------
 BYTE   KEYSH   song0105_key+0
Label_10_014A9108:
 BYTE   VOICE   85
 BYTE   VOL   10*song0105_mvl/mxv
 BYTE   PAN   c_v-50
 BYTE   BEND   c_v-2
 BYTE   W56
 BYTE   W03
 BYTE   N04  Bn4  v127
 BYTE   W06
 BYTE   Cn5
 BYTE   W06
 BYTE   En4
 BYTE   W06
 BYTE   N68  Gn4
 BYTE   W19
// 001   ----------------------------------------
Label_10_014A911D:
 BYTE   W56
 BYTE   W03
 BYTE   N04  Bn4  v127
 BYTE   W06
 BYTE   Cn5
 BYTE   W06
 BYTE   En4
 BYTE   W06
 BYTE   N68  Fs4
 BYTE   W19
 BYTE   PEND 
// 002   ----------------------------------------
Label_10_014A912B:
 BYTE   W56
 BYTE   W03
 BYTE   N04  Bn4  v127
 BYTE   W06
 BYTE   Cn5
 BYTE   W06
 BYTE   Dn5
 BYTE   W06
 BYTE   N68  Ds5
 BYTE   W19
 BYTE   PEND 
// 003   ----------------------------------------
 BYTE   W56
 BYTE   W03
 BYTE   N04
 BYTE   W06
 BYTE   Cn5
 BYTE   W06
 BYTE   Ds5
 BYTE   W06
 BYTE   Gn5
 BYTE   W06
 BYTE   N56  Fs5
 BYTE   W13
// 004   ----------------------------------------
 BYTE   W56
 BYTE   W03
 BYTE   N04  Bn4
 BYTE   W06
 BYTE   Cn5
 BYTE   W06
 BYTE   En4
 BYTE   W06
 BYTE   N68  Gn4
 BYTE   W19
// 005   ----------------------------------------
 BYTE   PATT
  POIN2 Label_10_014A911D
// 006   ----------------------------------------
 BYTE   PATT
  POIN2 Label_10_014A912B
// 007   ----------------------------------------
 BYTE   W56
 BYTE   W03
 BYTE   N04  Fs5  v127
 BYTE   W06
 BYTE   Fn5
 BYTE   W06
 BYTE   Ds5
 BYTE   W06
 BYTE   N68  Dn5
 BYTE   W19
// 008   ----------------------------------------
Label_10_014A9169:
 BYTE   W56
 BYTE   W03
 BYTE   N16  Fs4  v127
 BYTE   W18
 BYTE   An4
 BYTE   W18
 BYTE   N05  Fs4
 BYTE   W01
 BYTE   PEND 
// 009   ----------------------------------------
Label_10_014A9175:
 BYTE   W11
 BYTE   N10  An4  v127
 BYTE   W12
 BYTE   N05  Fs4
 BYTE   W12
 BYTE   N04  As4
 BYTE   W06
 BYTE   N11  An4
 BYTE   W18
 BYTE   N16  Fs4
 BYTE   W18
 BYTE   An4
 BYTE   W18
 BYTE   N05  Fs4
 BYTE   W01
 BYTE   PEND 
// 010   ----------------------------------------
Label_10_014A918C:
 BYTE   W11
 BYTE   N10  An4  v127
 BYTE   W12
 BYTE   N05  Fs4
 BYTE   W12
 BYTE   N04  Cs5
 BYTE   W06
 BYTE   N11  Cn5
 BYTE   W18
 BYTE   N16  Fs4
 BYTE   W18
 BYTE   An4
 BYTE   W18
 BYTE   N05  Fs4
 BYTE   W01
 BYTE   PEND 
// 011   ----------------------------------------
Label_10_014A91A3:
 BYTE   W11
 BYTE   N10  An4  v127
 BYTE   W12
 BYTE   N05  Fs4
 BYTE   W12
 BYTE   N04  As4
 BYTE   W06
 BYTE   N11  An4
 BYTE   W18
 BYTE   N16  Cs5
 BYTE   W18
 BYTE   Cn5
 BYTE   W18
 BYTE   N07  Bn4
 BYTE   W01
 BYTE   PEND 
// 012   ----------------------------------------
Label_10_014A91BA:
 BYTE   W11
 BYTE   N11  An4  v127
 BYTE   W18
 BYTE   Gs4
 BYTE   W18
 BYTE   Fn4
 BYTE   W12
 BYTE   N16  Fs4
 BYTE   W18
 BYTE   An4
 BYTE   W18
 BYTE   N05  Fs4
 BYTE   W01
 BYTE   PEND 
// 013   ----------------------------------------
 BYTE   PATT
  POIN2 Label_10_014A9175
// 014   ----------------------------------------
 BYTE   PATT
  POIN2 Label_10_014A918C
// 015   ----------------------------------------
Label_10_014A91D6:
 BYTE   W11
 BYTE   N10  An4  v127
 BYTE   W12
 BYTE   N05  Fs4
 BYTE   W12
 BYTE   N04  As4
 BYTE   W06
 BYTE   N11  An4
 BYTE   W18
 BYTE   N16  En5
 BYTE   W18
 BYTE   Ds5
 BYTE   W18
 BYTE   N28  Dn5
 BYTE   W01
 BYTE   PEND 
// 016   ----------------------------------------
 BYTE   W32
 BYTE   W03
 BYTE   N04  Cs5
 BYTE   W06
 BYTE   Bn4
 BYTE   W06
 BYTE   An4
 BYTE   W06
 BYTE   Gs4
 BYTE   W06
 BYTE   Gn4
 BYTE   W06
 BYTE   An4
 BYTE   W06
 BYTE   Cn4
 BYTE   W06
 BYTE   N68  En4
 BYTE   W19
// 017   ----------------------------------------
Label_10_014A9201:
 BYTE   W56
 BYTE   W03
 BYTE   N04  Gn4  v127
 BYTE   W06
 BYTE   An4
 BYTE   W06
 BYTE   Cn4
 BYTE   W06
 BYTE   N68  Dn4
 BYTE   W19
 BYTE   PEND 
// 018   ----------------------------------------
Label_10_014A920F:
 BYTE   W56
 BYTE   W03
 BYTE   N04  Gs4  v127
 BYTE   W06
 BYTE   An4
 BYTE   W06
 BYTE   Bn4
 BYTE   W06
 BYTE   N68  Cn5
 BYTE   W19
 BYTE   PEND 
// 019   ----------------------------------------
 BYTE   W56
 BYTE   W03
 BYTE   N04
 BYTE   W06
 BYTE   An4
 BYTE   W06
 BYTE   Cn5
 BYTE   W06
 BYTE   En5
 BYTE   W06
 BYTE   N56  Ds5
 BYTE   W13
// 020   ----------------------------------------
 BYTE   W56
 BYTE   W03
 BYTE   N04  Gn4
 BYTE   W06
 BYTE   An4
 BYTE   W06
 BYTE   Cn4
 BYTE   W06
 BYTE   N68  En4
 BYTE   W19
// 021   ----------------------------------------
 BYTE   PATT
  POIN2 Label_10_014A9201
// 022   ----------------------------------------
 BYTE   PATT
  POIN2 Label_10_014A920F
// 023   ----------------------------------------
 BYTE   W56
 BYTE   W03
 BYTE   N04  Ds5  v127
 BYTE   W06
 BYTE   Dn5
 BYTE   W06
 BYTE   Cn5
 BYTE   W06
 BYTE   N68  Bn4
 BYTE   W19
// 024   ----------------------------------------
 BYTE   PATT
  POIN2 Label_10_014A9169
// 025   ----------------------------------------
 BYTE   PATT
  POIN2 Label_10_014A9175
// 026   ----------------------------------------
 BYTE   PATT
  POIN2 Label_10_014A918C
// 027   ----------------------------------------
 BYTE   PATT
  POIN2 Label_10_014A91A3
// 028   ----------------------------------------
 BYTE   PATT
  POIN2 Label_10_014A91BA
// 029   ----------------------------------------
 BYTE   PATT
  POIN2 Label_10_014A9175
// 030   ----------------------------------------
 BYTE   PATT
  POIN2 Label_10_014A918C
// 031   ----------------------------------------
 BYTE   PATT
  POIN2 Label_10_014A91D6
// 032   ----------------------------------------
 BYTE   W32
 BYTE   W03
 BYTE   N04  Cs5  v127
 BYTE   W06
 BYTE   Bn4
 BYTE   W17
 BYTE   N05  Bn4  v072
 BYTE   W06
 BYTE   N06  Cn5
 BYTE   W12
 BYTE   N05  An4
 BYTE   W12
 BYTE   Bn4
 BYTE   W08
// 033   ----------------------------------------
 BYTE   W04
 BYTE   N04  Gn4
 BYTE   W12
 BYTE   N05  An4
 BYTE   W06
 BYTE   N04  Fs4
 BYTE   W12
 BYTE   N06  Gn4
 BYTE   W12
 BYTE   N03  En4
 BYTE   W06
 BYTE   N04  Fs4
 BYTE   W12
 BYTE   N05  Gn4
 BYTE   W12
 BYTE   An4
 BYTE   W12
 BYTE   N36  Bn4
 BYTE   W08
// 034   ----------------------------------------
 BYTE   W08
 BYTE   BEND   c_v+5
 BYTE   W01
 BYTE   BEND   c_v+8
 BYTE   W02
 BYTE   BEND   c_v+5
 BYTE   W01
 BYTE   BEND   c_v+2
 BYTE   W02
 BYTE   BEND   c_v+4
 BYTE   W01
 BYTE   BEND   c_v+9
 BYTE   W02
 BYTE   BEND   c_v+6
 BYTE   W01
 BYTE   BEND   c_v+3
 BYTE   W01
 BYTE   BEND   c_v+2
 BYTE   W01
 BYTE   BEND   c_v+2
 BYTE   W01
 BYTE   BEND   c_v+9
 BYTE   W01
 BYTE   BEND   c_v+10
 BYTE   W02
 BYTE   BEND   c_v+8
 BYTE   W01
 BYTE   BEND   c_v+5
 BYTE   W01
 BYTE   BEND   c_v+3
 BYTE   W01
 BYTE   BEND   c_v+5
 BYTE   W01
 BYTE   BEND   c_v+7
 BYTE   W02
 BYTE   BEND   c_v+6
 BYTE   W01
 BYTE   BEND   c_v+4
 BYTE   W01
 BYTE   BEND   c_v+0
 BYTE   W02
 BYTE   N28  An4
 BYTE   W03
 BYTE   BEND   c_v+1
 BYTE   W01
 BYTE   BEND   c_v+10
 BYTE   W13
 BYTE   BEND   c_v+9
 BYTE   W01
 BYTE   BEND   c_v+8
 BYTE   W01
 BYTE   BEND   c_v+7
 BYTE   W01
 BYTE   BEND   c_v+6
 BYTE   W01
 BYTE   BEND   c_v+5
 BYTE   W01
 BYTE   BEND   c_v+4
 BYTE   W01
 BYTE   BEND   c_v+3
 BYTE   W01
 BYTE   BEND   c_v+1
 BYTE   W01
 BYTE   BEND   c_v+0
 BYTE   W05
 BYTE   N05  Gn4
 BYTE   W06
 BYTE   Fs4
 BYTE   W06
 BYTE   En4
 BYTE   W06
 BYTE   Gn4
 BYTE   W06
 BYTE   Fs4
 BYTE   W06
 BYTE   Dn4
 BYTE   W02
// 035   ----------------------------------------
 BYTE   W04
 BYTE   N11  An3
 BYTE   W12
 BYTE   N04  Gn3
 BYTE   W06
 BYTE   Fs3
 BYTE   W06
 BYTE   N06  Gn3
 BYTE   W12
 BYTE   N05  An3
 BYTE   W12
 BYTE   Bn3
 BYTE   W12
 BYTE   N04
 BYTE   W06
 BYTE   N11  Cn4
 BYTE   W12
 BYTE   N03  Bn3
 BYTE   W04
 BYTE   An3
 BYTE   W04
 BYTE   Bn3
 BYTE   W04
 BYTE   An3
 BYTE   W02
// 036   ----------------------------------------
 BYTE   W02
 BYTE   Gn3
 BYTE   W04
 BYTE   Fs3
 BYTE   W04
 BYTE   Gn3
 BYTE   W04
 BYTE   An3
 BYTE   W04
 BYTE   Bn3
 BYTE   W04
 BYTE   N02  Cn4
 BYTE   W04
 BYTE   N03  Dn4
 BYTE   W04
 BYTE   En4
 BYTE   W04
 BYTE   Fs4
 BYTE   W04
 BYTE   Gn4
 BYTE   W04
 BYTE   An4
 BYTE   W04
 BYTE   N36  Bn4
 BYTE   W48
 BYTE   N05  An4
 BYTE   W02
// 037   ----------------------------------------
 BYTE   W04
 BYTE   Gn4
 BYTE   W12
 BYTE   An4
 BYTE   W12
 BYTE   N06  Bn4
 BYTE   W12
 BYTE   N05  Cn5
 BYTE   W12
 BYTE   Dn5
 BYTE   W12
 BYTE   N06
 BYTE   W12
 BYTE   N05  Cn5
 BYTE   W06
 BYTE   N04  Bn4
 BYTE   W06
 BYTE   N05  Cn5
 BYTE   W06
 BYTE   N04  An4
 BYTE   W02
// 038   ----------------------------------------
 BYTE   W04
 BYTE   N07  Bn4
 BYTE   W12
 BYTE   N06
 BYTE   W12
 BYTE   N05  An4
 BYTE   W06
 BYTE   Gn4
 BYTE   W12
 BYTE   Fs4
 BYTE   W12
 BYTE   En4
 BYTE   W06
 BYTE   N04  Ds4
 BYTE   W12
 BYTE   N06  En4
 BYTE   W12
 BYTE   N05  Fs4
 BYTE   W08
// 039   ----------------------------------------
 BYTE   W04
 BYTE   Gn4
 BYTE   W06
 BYTE   N04  An4
 BYTE   W12
 BYTE   Bn4
 BYTE   W12
 BYTE   N06  Bn3
 BYTE   W12
 BYTE   N05  An4
 BYTE   W12
 BYTE   N02  Gn4
 BYTE   W06
 BYTE   N07  Fs4
 BYTE   W12
 BYTE   N05  En4
 BYTE   W12
 BYTE   Gn4
 BYTE   W08
// 040   ----------------------------------------
 BYTE   W04
 BYTE   Fs4
 BYTE   W06
 BYTE   Dn4
 BYTE   W12
 BYTE   N32  En4
 BYTE   W13
 BYTE   BEND   c_v+2
 BYTE   W01
 BYTE   BEND   c_v+5
 BYTE   W02
 BYTE   BEND   c_v+3
 BYTE   W01
 BYTE   BEND   c_v+0
 BYTE   W01
 BYTE   BEND   c_v+0
 BYTE   W02
 BYTE   BEND   c_v+4
 BYTE   W01
 BYTE   BEND   c_v+6
 BYTE   W02
 BYTE   BEND   c_v+5
 BYTE   W01
 BYTE   BEND   c_v+2
 BYTE   W01
 BYTE   BEND   c_v+1
 BYTE   W01
 BYTE   BEND   c_v+1
 BYTE   W01
 BYTE   BEND   c_v+2
 BYTE   W03
 BYTE   BEND   c_v+0
 BYTE   W06
 BYTE   N07  Dn4
 BYTE   W12
 BYTE   N05  Cn4
 BYTE   W06
 BYTE   N04  Bn3
 BYTE   W06
 BYTE   N05  Cn4
 BYTE   W06
 BYTE   An3
 BYTE   W08
// 041   ----------------------------------------
 BYTE   W04
 BYTE   Bn3
 BYTE   W12
 BYTE   Cn4
 BYTE   W12
 BYTE   N20  Dn4
 BYTE   W02
 BYTE   BEND   c_v+2
 BYTE   W01
 BYTE   BEND   c_v+4
 BYTE   W01
 BYTE   BEND   c_v+7
 BYTE   W01
 BYTE   BEND   c_v+8
 BYTE   W17
 BYTE   BEND   c_v+0
 BYTE   N03  Cn4
 BYTE   W04
 BYTE   Bn3
 BYTE   W04
 BYTE   An3
 BYTE   W04
 BYTE   Bn3
 BYTE   W04
 BYTE   An3
 BYTE   W04
 BYTE   Gn3
 BYTE   W04
 BYTE   Fs3
 BYTE   W04
 BYTE   Gn3
 BYTE   W04
 BYTE   An3
 BYTE   W04
 BYTE   Bn3
 BYTE   W04
 BYTE   N02  Cn4
 BYTE   W04
 BYTE   N03  Dn4
 BYTE   W02
// 042   ----------------------------------------
 BYTE   W02
 BYTE   En4
 BYTE   W04
 BYTE   Fs4
 BYTE   W04
 BYTE   Gn4
 BYTE   W04
 BYTE   An4
 BYTE   W04
 BYTE   N32  Bn4
 BYTE   W24
 BYTE   BEND   c_v+0
 BYTE   W01
 BYTE   BEND   c_v+0
 BYTE   W02
 BYTE   BEND   c_v+0
 BYTE   W01
 BYTE   BEND   c_v+0
 BYTE   W06
 BYTE   N05  An4
 BYTE   W12
 BYTE   Gn4
 BYTE   W06
 BYTE   An4
 BYTE   W12
 BYTE   Bn4
 BYTE   W12
 BYTE   N07  Cn5
 BYTE   W02
// 043   ----------------------------------------
 BYTE   W10
 BYTE   N06  Bn4
 BYTE   W12
 BYTE   N05  An4
 BYTE   W06
 BYTE   Bn4
 BYTE   W12
 BYTE   Cn5
 BYTE   W12
 BYTE   N08  Dn5
 BYTE   W12
 BYTE   Dn4
 BYTE   W12
 BYTE   N07  Bn4
 BYTE   W12
 BYTE   N05  An4
 BYTE   W06
 BYTE   N04  Gn4
 BYTE   W02
// 044   ----------------------------------------
 BYTE   W10
 BYTE   N05  Fs4
 BYTE   W12
 BYTE   N06  Gn4
 BYTE   W12
 BYTE   N05  An4
 BYTE   W12
 BYTE   N04  Bn4
 BYTE   W06
 BYTE   N17  Ds4
 BYTE   W12
 BYTE   BEND   c_v+0
 BYTE   W01
 BYTE   BEND   c_v+0
 BYTE   W01
 BYTE   BEND   c_v+0
 BYTE   W03
 BYTE   GoTo
  POIN2 Label_10_014A9108
// 045   ----------------------------------------
 BYTE   BEND   c_v+4
 BYTE   FINE

//******************************************************//
	ALIGN 4

song0105:
	BYTE	11	// NumTrks
	BYTE	0	// NumBlks
	BYTE	song0105_pri	// Priority
	BYTE	song0105_rev	// Reverb.
    
	POIN2	song0105_grp
    
	POIN2	song0105_001
	POIN2	song0105_002
	POIN2	song0105_003
	POIN2	song0105_004
	POIN2	song0105_005
	POIN2	song0105_006
	POIN2	song0105_007
	POIN2	song0105_008
	POIN2	song0105_009
	POIN2	song0105_010
	POIN2	song0105_011

	
