//Event file generated from Sappy .s format.
	#include "MPlayDef.event"

	#define	Noltia_grp  voicegroup001
	#define	Noltia_pri  0
	#define	Noltia_rev  0
	#define	Noltia_mvl  127
	#define	Noltia_key  0
	#define	Noltia_tbs  1
	#define	Noltia_exg  0
	#define	Noltia_cmp  1

	// .rodata
	//	Noltia
	ALIGN 4


//**************** Track 1 (Midi-Chn.0) ****************//

Noltia_001:
// 000   ----------------------------------------
 BYTE   KEYSH   Noltia_key+0
Label_0_0139CBE6:
 BYTE   TEMPO   100*Noltia_tbs/2
 BYTE   VOICE   48
 BYTE   PAN   c_v+0
 BYTE   VOL   27*Noltia_mvl/mxv
 BYTE   W48
 BYTE   N23  Cn3  v112
 BYTE   W24
 BYTE   N05
 BYTE   W06
 BYTE   Ds3
 BYTE   W06
 BYTE   Gn3
 BYTE   W06
 BYTE   As3
 BYTE   W06
// 001   ----------------------------------------
Label_0_0139CBFB:
 BYTE   N68  Dn4  v112
 BYTE   W72
 BYTE   N23  Gn4
 BYTE   W24
 BYTE   PEND 
// 002   ----------------------------------------
Label_0_0139CC03:
 BYTE   N11  Fn4  v112
 BYTE   W12
 BYTE   N32  Cn4
 BYTE   W36
 BYTE   N68  Dn4
 BYTE   W48
 BYTE   PEND 
// 003   ----------------------------------------
Label_0_0139CC0E:
 BYTE   W24
 BYTE   N05  Ds4  v112
 BYTE   W06
 BYTE   Dn4
 BYTE   W06
 BYTE   Ds4
 BYTE   W06
 BYTE   Fn4
 BYTE   W06
 BYTE   N11  Dn4
 BYTE   W12
 BYTE   N05  Gn3
 BYTE   W06
 BYTE   N17  Dn4
 BYTE   W18
 BYTE   N05  Gn4
 BYTE   W06
 BYTE   Fn4
 BYTE   W06
 BYTE   PEND 
// 004   ----------------------------------------
Label_0_0139CC28:
 BYTE   N44  Gn4  v112
 BYTE   W48
 BYTE   Dn4
 BYTE   W48
 BYTE   PEND 
// 005   ----------------------------------------
Label_0_0139CC2F:
 BYTE   N44  Cn4  v112
 BYTE   W48
 BYTE   N17  Ds4
 BYTE   W18
 BYTE   Fn4
 BYTE   W18
 BYTE   N11  Gn4
 BYTE   W12
 BYTE   PEND 
// 006   ----------------------------------------
Label_0_0139CC3C:
 BYTE   N17  Fn4  v112
 BYTE   W18
 BYTE   Ds4
 BYTE   W18
 BYTE   N11  As3
 BYTE   W12
 BYTE   N44  Cn4
 BYTE   W48
 BYTE   PEND 
// 007   ----------------------------------------
Label_0_0139CC49:
 BYTE   N05  Gn4  v112
 BYTE   W06
 BYTE   Fn4
 BYTE   W06
 BYTE   N80  Gn4
 BYTE   W84
 BYTE   PEND 
// 008   ----------------------------------------
Label_0_0139CC53:
 BYTE   N05  Gs3  v112
 BYTE   W06
 BYTE   As3
 BYTE   W06
 BYTE   Cn4
 BYTE   W06
 BYTE   Dn4
 BYTE   W06
 BYTE   Ds4
 BYTE   W06
 BYTE   Dn4
 BYTE   W06
 BYTE   Cn4
 BYTE   W06
 BYTE   As3
 BYTE   W06
 BYTE   N44  Cn4
 BYTE   W48
 BYTE   PEND 
// 009   ----------------------------------------
Label_0_0139CC69:
 BYTE   N05  Gs3  v112
 BYTE   W06
 BYTE   As3
 BYTE   W06
 BYTE   Cn4
 BYTE   W06
 BYTE   Dn4
 BYTE   W06
 BYTE   N23  Ds4
 BYTE   W24
 BYTE   N05  Cn4
 BYTE   W06
 BYTE   Dn4
 BYTE   W06
 BYTE   Ds4
 BYTE   W06
 BYTE   Fn4
 BYTE   W06
 BYTE   N56  Gn4
 BYTE   W24
 BYTE   PEND 
// 010   ----------------------------------------
Label_0_0139CC83:
 BYTE   W36
 BYTE   N05  Fn4  v112
 BYTE   W06
 BYTE   Ds4
 BYTE   W06
 BYTE   N17  Fn4
 BYTE   W18
 BYTE   N52  Gn4
 BYTE   W30
 BYTE   PEND 
// 011   ----------------------------------------
Label_0_0139CC91:
 BYTE   W24
 BYTE   N17  Fn3  v112
 BYTE   W18
 BYTE   TIE  Gn3
 BYTE   W54
 BYTE   PEND 
// 012   ----------------------------------------
 BYTE   W44
 BYTE   W01
 BYTE   EOT
 BYTE   W03
 BYTE   N32  Cn4  v127
 BYTE   W36
 BYTE   N04  As3
 BYTE   W06
 BYTE   Cn4
 BYTE   W06
// 013   ----------------------------------------
Label_0_0139CCA7:
 BYTE   N44  Gn3  v127
 BYTE   W48
 BYTE   N32  Cn4
 BYTE   W36
 BYTE   N04  As3
 BYTE   W06
 BYTE   Cn4
 BYTE   W06
 BYTE   PEND 
// 014   ----------------------------------------
Label_0_0139CCB4:
 BYTE   N17  Ds4  v127
 BYTE   W18
 BYTE   Dn4
 BYTE   W18
 BYTE   N10  Cn4
 BYTE   W12
 BYTE   N32  Fn4
 BYTE   W36
 BYTE   N04  Ds4
 BYTE   W06
 BYTE   Fn4
 BYTE   W06
 BYTE   PEND 
// 015   ----------------------------------------
Label_0_0139CCC6:
 BYTE   N32  Dn4  v127
 BYTE   W36
 BYTE   N32
 BYTE   W36
 BYTE   N10  Ds4
 BYTE   W12
 BYTE   N23  Fn4
 BYTE   W12
 BYTE   PEND 
// 016   ----------------------------------------
Label_0_0139CCD3:
 BYTE   W12
 BYTE   N11  Gs4  v127
 BYTE   W12
 BYTE   Gn4
 BYTE   W12
 BYTE   Fn4
 BYTE   W12
 BYTE   N32  Cn4
 BYTE   W36
 BYTE   N04  As3
 BYTE   W06
 BYTE   Cn4
 BYTE   W06
 BYTE   PEND 
// 017   ----------------------------------------
 BYTE   PATT
  POIN2 Label_0_0139CCA7
// 018   ----------------------------------------
Label_0_0139CCEA:
 BYTE   N11  Ds4  v127
 BYTE   W18
 BYTE   Fn4
 BYTE   W18
 BYTE   Gn4
 BYTE   W12
 BYTE   N44  Fn4
 BYTE   W48
 BYTE   PEND 
// 019   ----------------------------------------
Label_0_0139CCF6:
 BYTE   N44  As4  v127
 BYTE   W48
 BYTE   N92  Cn5
 BYTE   W48
 BYTE   PEND 
// 020   ----------------------------------------
 BYTE   W48
 BYTE   N68  Cn4  v124
 BYTE   W01
 BYTE   BEND   c_v+0
 BYTE   W05
 BYTE   MOD 0
 BYTE   CsM2
 BYTE   W06
 BYTE   DnM2
 BYTE   W36
// 021   ----------------------------------------
Label_0_0139CD0B:
 BYTE   W23
 BYTE   MOD 0
 BYTE   CnM2
 BYTE   W01
 BYTE   N05  Cn4  v124
 BYTE   W06
 BYTE   Dn4
 BYTE   W06
 BYTE   Ds4
 BYTE   W06
 BYTE   Fn4
 BYTE   W06
 BYTE   N68  Dn4
 BYTE   W06
 BYTE   MOD 0
 BYTE   CsM2
 BYTE   W06
 BYTE   DnM2
 BYTE   W36
 BYTE   PEND 
// 022   ----------------------------------------
Label_0_0139CD22:
 BYTE   W23
 BYTE   MOD 0
 BYTE   CnM2
 BYTE   W01
 BYTE   N05  Gn4  v124
 BYTE   W06
 BYTE   Fn4
 BYTE   W06
 BYTE   Ds4
 BYTE   W06
 BYTE   Dn4
 BYTE   W06
 BYTE   N68  Ds4
 BYTE   W06
 BYTE   MOD 0
 BYTE   CsM2
 BYTE   W06
 BYTE   DnM2
 BYTE   W36
 BYTE   PEND 
// 023   ----------------------------------------
Label_0_0139CD39:
 BYTE   W23
 BYTE   MOD 0
 BYTE   CnM2
 BYTE   W01
 BYTE   N05  Gn3  v124
 BYTE   W06
 BYTE   Fn3
 BYTE   W06
 BYTE   Ds3
 BYTE   W06
 BYTE   Dn3
 BYTE   W06
 BYTE   N92  Ds3
 BYTE   W06
 BYTE   MOD 0
 BYTE   CsM2
 BYTE   W06
 BYTE   DnM2
 BYTE   W36
 BYTE   PEND 
// 024   ----------------------------------------
Label_0_0139CD50:
 BYTE   W44
 BYTE   W03
 BYTE   MOD 0
 BYTE   CnM2
 BYTE   W01
 BYTE   N68  Gs3  v124
 BYTE   W06
 BYTE   MOD 0
 BYTE   CsM2
 BYTE   W06
 BYTE   DnM2
 BYTE   W36
 BYTE   PEND 
// 025   ----------------------------------------
Label_0_0139CD5F:
 BYTE   W24
 BYTE   N05  Gs3  v124
 BYTE   W06
 BYTE   N05
 BYTE   W06
 BYTE   As3
 BYTE   W06
 BYTE   Cn4
 BYTE   W05
 BYTE   MOD 0
 BYTE   CnM2
 BYTE   W01
 BYTE   CsM2
 BYTE   N44  Dn4
 BYTE   W06
 BYTE   MOD 0
 BYTE   DnM2
 BYTE   W40
 BYTE   W01
 BYTE   CnM2
 BYTE   W01
 BYTE   PEND 
// 026   ----------------------------------------
Label_0_0139CD78:
 BYTE   N23  Ds4  v124
 BYTE   W24
 BYTE   Fn4
 BYTE   W24
 BYTE   N17
 BYTE   W18
 BYTE   MOD 0
 BYTE   CsM2
 BYTE   N64  Ds4
 BYTE   W06
 BYTE   MOD 0
 BYTE   DnM2
 BYTE   W24
 BYTE   PEND 
// 027   ----------------------------------------
Label_0_0139CD89:
 BYTE   W32
 BYTE   W03
 BYTE   MOD 0
 BYTE   CnM2
 BYTE   W01
 BYTE   N05  Dn4  v124
 BYTE   W06
 BYTE   Ds4
 BYTE   W06
 BYTE   Fn4
 BYTE   W06
 BYTE   Dn4
 BYTE   W06
 BYTE   Ds4
 BYTE   W06
 BYTE   Fn4
 BYTE   W06
 BYTE   Dn4  v112
 BYTE   W06
 BYTE   Ds4
 BYTE   W06
 BYTE   Fn4
 BYTE   W06
 BYTE   Dn4  v092
 BYTE   W06
 BYTE   PEND 
// 028   ----------------------------------------
 BYTE   Ds4
 BYTE   W06
 BYTE   Fn4
 BYTE   W06
 BYTE   Dn4  v072
 BYTE   W06
 BYTE   Ds4
 BYTE   W06
 BYTE   Fn4
 BYTE   W24
 BYTE   N68  Cn4  v124
 BYTE   W01
 BYTE   BEND   c_v+0
 BYTE   W05
 BYTE   MOD 0
 BYTE   CsM2
 BYTE   W06
 BYTE   DnM2
 BYTE   W36
// 029   ----------------------------------------
 BYTE   PATT
  POIN2 Label_0_0139CD0B
// 030   ----------------------------------------
 BYTE   PATT
  POIN2 Label_0_0139CD22
// 031   ----------------------------------------
 BYTE   PATT
  POIN2 Label_0_0139CD39
// 032   ----------------------------------------
 BYTE   PATT
  POIN2 Label_0_0139CD50
// 033   ----------------------------------------
 BYTE   PATT
  POIN2 Label_0_0139CD5F
// 034   ----------------------------------------
Label_0_0139CDD7:
 BYTE   N23  Ds4  v124
 BYTE   W24
 BYTE   Fn4
 BYTE   W24
 BYTE   N05  Ds4
 BYTE   W06
 BYTE   Dn4
 BYTE   W06
 BYTE   N80  Cn4
 BYTE   W06
 BYTE   MOD 0
 BYTE   CsM2
 BYTE   W06
 BYTE   DnM2
 BYTE   W24
 BYTE   PEND 
// 035   ----------------------------------------
Label_0_0139CDEB:
 BYTE   W44
 BYTE   W02
 BYTE   MOD 0
 BYTE   CnM2
 BYTE   W02
 BYTE   N17  Bn3  v124
 BYTE   W18
 BYTE   Cn4
 BYTE   W18
 BYTE   N11  Dn4
 BYTE   W12
 BYTE   PEND 
// 036   ----------------------------------------
 BYTE   N17
 BYTE   W18
 BYTE   Ds4
 BYTE   W18
 BYTE   N10  Fn4
 BYTE   W12
 BYTE   N23  Cn3  v112
 BYTE   W24
 BYTE   N05
 BYTE   W06
 BYTE   Ds3
 BYTE   W06
 BYTE   Gn3
 BYTE   W06
 BYTE   As3
 BYTE   W06
// 037   ----------------------------------------
 BYTE   PATT
  POIN2 Label_0_0139CBFB
// 038   ----------------------------------------
 BYTE   PATT
  POIN2 Label_0_0139CC03
// 039   ----------------------------------------
 BYTE   PATT
  POIN2 Label_0_0139CC0E
// 040   ----------------------------------------
 BYTE   PATT
  POIN2 Label_0_0139CC28
// 041   ----------------------------------------
 BYTE   PATT
  POIN2 Label_0_0139CC2F
// 042   ----------------------------------------
 BYTE   PATT
  POIN2 Label_0_0139CC3C
// 043   ----------------------------------------
 BYTE   PATT
  POIN2 Label_0_0139CC49
// 044   ----------------------------------------
 BYTE   PATT
  POIN2 Label_0_0139CC53
// 045   ----------------------------------------
 BYTE   PATT
  POIN2 Label_0_0139CC69
// 046   ----------------------------------------
 BYTE   PATT
  POIN2 Label_0_0139CC83
// 047   ----------------------------------------
 BYTE   PATT
  POIN2 Label_0_0139CC91
// 048   ----------------------------------------
 BYTE   W44
 BYTE   W01
 BYTE   EOT
 BYTE   Gn3
 BYTE   W03
 BYTE   N32  Cn4  v127
 BYTE   W36
 BYTE   N04  As3
 BYTE   W06
 BYTE   Cn4
 BYTE   W06
// 049   ----------------------------------------
 BYTE   PATT
  POIN2 Label_0_0139CCA7
// 050   ----------------------------------------
 BYTE   PATT
  POIN2 Label_0_0139CCB4
// 051   ----------------------------------------
 BYTE   PATT
  POIN2 Label_0_0139CCC6
// 052   ----------------------------------------
 BYTE   PATT
  POIN2 Label_0_0139CCD3
// 053   ----------------------------------------
 BYTE   PATT
  POIN2 Label_0_0139CCA7
// 054   ----------------------------------------
 BYTE   PATT
  POIN2 Label_0_0139CCEA
// 055   ----------------------------------------
 BYTE   PATT
  POIN2 Label_0_0139CCF6
// 056   ----------------------------------------
 BYTE   W48
 BYTE   N68  Cn4  v124
 BYTE   W01
 BYTE   BEND   c_v-63
 BYTE   W05
 BYTE   MOD 0
 BYTE   CsM2
 BYTE   W06
 BYTE   DnM2
 BYTE   W36
// 057   ----------------------------------------
 BYTE   PATT
  POIN2 Label_0_0139CD0B
// 058   ----------------------------------------
 BYTE   PATT
  POIN2 Label_0_0139CD22
// 059   ----------------------------------------
 BYTE   PATT
  POIN2 Label_0_0139CD39
// 060   ----------------------------------------
 BYTE   PATT
  POIN2 Label_0_0139CD50
// 061   ----------------------------------------
 BYTE   PATT
  POIN2 Label_0_0139CD5F
// 062   ----------------------------------------
 BYTE   PATT
  POIN2 Label_0_0139CD78
// 063   ----------------------------------------
 BYTE   PATT
  POIN2 Label_0_0139CD89
// 064   ----------------------------------------
 BYTE   N05  Ds4  v092
 BYTE   W06
 BYTE   Fn4
 BYTE   W06
 BYTE   Dn4  v072
 BYTE   W06
 BYTE   Ds4
 BYTE   W06
 BYTE   Fn4
 BYTE   W24
 BYTE   N68  Cn4  v124
 BYTE   W01
 BYTE   BEND   c_v-63
 BYTE   W05
 BYTE   MOD 0
 BYTE   CsM2
 BYTE   W06
 BYTE   DnM2
 BYTE   W36
// 065   ----------------------------------------
 BYTE   PATT
  POIN2 Label_0_0139CD0B
// 066   ----------------------------------------
 BYTE   PATT
  POIN2 Label_0_0139CD22
// 067   ----------------------------------------
 BYTE   PATT
  POIN2 Label_0_0139CD39
// 068   ----------------------------------------
 BYTE   PATT
  POIN2 Label_0_0139CD50
// 069   ----------------------------------------
 BYTE   PATT
  POIN2 Label_0_0139CD5F
// 070   ----------------------------------------
 BYTE   PATT
  POIN2 Label_0_0139CDD7
// 071   ----------------------------------------
 BYTE   PATT
  POIN2 Label_0_0139CDEB
// 072   ----------------------------------------
 BYTE   N17  Dn4  v124
 BYTE   W18
 BYTE   Ds4
 BYTE   W18
 BYTE   N10  Fn4
 BYTE   W12
 BYTE   N17  Bn3
 BYTE   W18
 BYTE   Cn4
 BYTE   W18
 BYTE   N11  Dn4
 BYTE   W12
// 073   ----------------------------------------
 BYTE   N17  Gn4
 BYTE   W18
 BYTE   Fn4
 BYTE   W18
 BYTE   N10  Dn4
 BYTE   W12
 BYTE   TIE
 BYTE   W48
// 074   ----------------------------------------
 BYTE   W96
// 075   ----------------------------------------
 BYTE   W44
 BYTE   W02
 BYTE   EOT
 BYTE   W02
 BYTE   GoTo
  POIN2 Label_0_0139CBE6
// 076   ----------------------------------------
 BYTE   VOL   0*Noltia_mvl/mxv
 BYTE   FINE

//**************** Track 2 (Midi-Chn.1) ****************//

Noltia_002:
// 000   ----------------------------------------
 BYTE   KEYSH   Noltia_key+0
Label_1_0139D0A6:
 BYTE   VOICE   39
 BYTE   PAN   c_v+0
 BYTE   VOL   25*Noltia_mvl/mxv
 BYTE   W48
 BYTE   N05  Cn1  v100
 BYTE   W06
 BYTE   Cn1  v092
 BYTE   W06
 BYTE   N05
 BYTE   W06
 BYTE   Cn2  v100
 BYTE   W12
 BYTE   N05
 BYTE   W06
 BYTE   Cn1  v092
 BYTE   W06
 BYTE   Cn2  v100
 BYTE   W06
// 001   ----------------------------------------
Label_1_0139D0C1:
 BYTE   W12
 BYTE   N05  As1  v112
 BYTE   W06
 BYTE   Cn2  v100
 BYTE   W12
 BYTE   N05
 BYTE   W06
 BYTE   As1  v092
 BYTE   W06
 BYTE   Cn2  v100
 BYTE   W06
 BYTE   As0
 BYTE   W06
 BYTE   As0  v092
 BYTE   W06
 BYTE   N05
 BYTE   W06
 BYTE   As1  v100
 BYTE   W12
 BYTE   N05
 BYTE   W06
 BYTE   As0  v092
 BYTE   W06
 BYTE   As1  v100
 BYTE   W06
 BYTE   PEND 
// 002   ----------------------------------------
Label_1_0139D0E4:
 BYTE   W12
 BYTE   N05  Gs1  v112
 BYTE   W06
 BYTE   As1  v100
 BYTE   W12
 BYTE   N05
 BYTE   W06
 BYTE   Gs1  v092
 BYTE   W06
 BYTE   As1  v100
 BYTE   W06
 BYTE   Gs0
 BYTE   W06
 BYTE   Gs0  v092
 BYTE   W06
 BYTE   N05
 BYTE   W06
 BYTE   Gs1  v100
 BYTE   W12
 BYTE   N05
 BYTE   W06
 BYTE   Gs0  v092
 BYTE   W06
 BYTE   Gs1  v100
 BYTE   W06
 BYTE   PEND 
// 003   ----------------------------------------
Label_1_0139D107:
 BYTE   W12
 BYTE   N05  Gn1  v112
 BYTE   W06
 BYTE   Gs1  v100
 BYTE   W12
 BYTE   N05
 BYTE   W06
 BYTE   Gn1  v092
 BYTE   W06
 BYTE   Gs1  v100
 BYTE   W06
 BYTE   Gn0
 BYTE   W06
 BYTE   Gn0  v092
 BYTE   W06
 BYTE   N05
 BYTE   W06
 BYTE   Gn1  v100
 BYTE   W12
 BYTE   N05
 BYTE   W06
 BYTE   Gn0  v092
 BYTE   W06
 BYTE   Gn1  v100
 BYTE   W06
 BYTE   PEND 
// 004   ----------------------------------------
Label_1_0139D12A:
 BYTE   W12
 BYTE   N05  Fn1  v112
 BYTE   W06
 BYTE   Gn1  v100
 BYTE   W12
 BYTE   N05
 BYTE   W06
 BYTE   Fn1  v092
 BYTE   W06
 BYTE   Gn1  v100
 BYTE   W06
 BYTE   Cn1
 BYTE   W06
 BYTE   Cn1  v092
 BYTE   W06
 BYTE   Cn2
 BYTE   W06
 BYTE   N05
 BYTE   W06
 BYTE   Cn1  v100
 BYTE   W06
 BYTE   Cn1  v092
 BYTE   W06
 BYTE   Cn2
 BYTE   W06
 BYTE   N05
 BYTE   W06
 BYTE   PEND 
// 005   ----------------------------------------
Label_1_0139D14E:
 BYTE   N05  Cn1  v100
 BYTE   W06
 BYTE   Cn1  v092
 BYTE   W06
 BYTE   Cn2
 BYTE   W06
 BYTE   N05
 BYTE   W06
 BYTE   Cn1  v100
 BYTE   W06
 BYTE   Cn1  v092
 BYTE   W06
 BYTE   Cn2
 BYTE   W06
 BYTE   N05
 BYTE   W06
 BYTE   Cn1  v100
 BYTE   W06
 BYTE   Cn1  v092
 BYTE   W06
 BYTE   Cn2
 BYTE   W06
 BYTE   N05
 BYTE   W06
 BYTE   Cn1  v100
 BYTE   W06
 BYTE   Cn1  v092
 BYTE   W06
 BYTE   Cn2
 BYTE   W06
 BYTE   N05
 BYTE   W06
 BYTE   PEND 
// 006   ----------------------------------------
Label_1_0139D178:
 BYTE   N05  Cn1  v100
 BYTE   W06
 BYTE   Cn1  v092
 BYTE   W06
 BYTE   Cn2
 BYTE   W06
 BYTE   N05
 BYTE   W06
 BYTE   Cn1  v100
 BYTE   W06
 BYTE   Cn1  v092
 BYTE   W06
 BYTE   Cn2
 BYTE   W06
 BYTE   N05
 BYTE   W06
 BYTE   Gs0  v100
 BYTE   W06
 BYTE   Gs0  v092
 BYTE   W06
 BYTE   Gs1
 BYTE   W06
 BYTE   N05
 BYTE   W06
 BYTE   Gs0  v100
 BYTE   W06
 BYTE   Gs0  v092
 BYTE   W06
 BYTE   Gs1
 BYTE   W06
 BYTE   N05
 BYTE   W06
 BYTE   PEND 
// 007   ----------------------------------------
Label_1_0139D1A2:
 BYTE   N05  Gs0  v100
 BYTE   W06
 BYTE   Gs0  v092
 BYTE   W06
 BYTE   Gs1
 BYTE   W06
 BYTE   N05
 BYTE   W06
 BYTE   Gs0  v100
 BYTE   W06
 BYTE   Gs0  v092
 BYTE   W06
 BYTE   Gs1
 BYTE   W06
 BYTE   N05
 BYTE   W06
 BYTE   Gs0  v100
 BYTE   W06
 BYTE   Gs0  v092
 BYTE   W06
 BYTE   Gs1
 BYTE   W06
 BYTE   N05
 BYTE   W06
 BYTE   Gs0  v100
 BYTE   W06
 BYTE   Gs0  v092
 BYTE   W06
 BYTE   Gs1
 BYTE   W06
 BYTE   N05
 BYTE   W06
 BYTE   PEND 
// 008   ----------------------------------------
Label_1_0139D1CC:
 BYTE   N05  Gs0  v100
 BYTE   W06
 BYTE   Gs0  v092
 BYTE   W06
 BYTE   Gs1
 BYTE   W06
 BYTE   N05
 BYTE   W06
 BYTE   Gs0  v100
 BYTE   W06
 BYTE   Gs0  v092
 BYTE   W06
 BYTE   Gs1
 BYTE   W06
 BYTE   N05
 BYTE   W06
 BYTE   Fn0  v100
 BYTE   W06
 BYTE   Fn0  v092
 BYTE   W06
 BYTE   Fn1
 BYTE   W06
 BYTE   N05
 BYTE   W06
 BYTE   Fn0  v100
 BYTE   W06
 BYTE   Fn0  v092
 BYTE   W06
 BYTE   Fn1
 BYTE   W06
 BYTE   N05
 BYTE   W06
 BYTE   PEND 
// 009   ----------------------------------------
Label_1_0139D1F6:
 BYTE   N05  Fn0  v100
 BYTE   W06
 BYTE   Fn0  v092
 BYTE   W06
 BYTE   Fn1
 BYTE   W06
 BYTE   N05
 BYTE   W06
 BYTE   Fn0  v100
 BYTE   W06
 BYTE   Fn0  v092
 BYTE   W06
 BYTE   Fn1
 BYTE   W06
 BYTE   N05
 BYTE   W06
 BYTE   Fn0  v100
 BYTE   W06
 BYTE   Fn0  v092
 BYTE   W06
 BYTE   Fn1
 BYTE   W06
 BYTE   N05
 BYTE   W06
 BYTE   Fn0  v100
 BYTE   W06
 BYTE   Fn0  v092
 BYTE   W06
 BYTE   Fn1
 BYTE   W06
 BYTE   N05
 BYTE   W06
 BYTE   PEND 
// 010   ----------------------------------------
Label_1_0139D220:
 BYTE   N05  Fn0  v100
 BYTE   W06
 BYTE   Fn0  v092
 BYTE   W06
 BYTE   Fn1
 BYTE   W06
 BYTE   N05
 BYTE   W06
 BYTE   Fn0  v100
 BYTE   W06
 BYTE   Fn0  v092
 BYTE   W06
 BYTE   Fn1
 BYTE   W06
 BYTE   N05
 BYTE   W06
 BYTE   Gn0  v100
 BYTE   W06
 BYTE   Gn0  v092
 BYTE   W06
 BYTE   Gn1
 BYTE   W06
 BYTE   N05
 BYTE   W06
 BYTE   Gn0  v100
 BYTE   W06
 BYTE   Gn0  v092
 BYTE   W06
 BYTE   Gn1
 BYTE   W06
 BYTE   N05
 BYTE   W06
 BYTE   PEND 
// 011   ----------------------------------------
Label_1_0139D24A:
 BYTE   N05  Gn0  v100
 BYTE   W06
 BYTE   Gn0  v092
 BYTE   W06
 BYTE   Gn1
 BYTE   W06
 BYTE   N05
 BYTE   W06
 BYTE   Gn0  v100
 BYTE   W06
 BYTE   Gn0  v092
 BYTE   W06
 BYTE   Gn1
 BYTE   W06
 BYTE   N05
 BYTE   W06
 BYTE   Gn0  v100
 BYTE   W06
 BYTE   Gn0  v092
 BYTE   W06
 BYTE   Gn1
 BYTE   W06
 BYTE   N05
 BYTE   W06
 BYTE   Gn0  v100
 BYTE   W06
 BYTE   Gn0  v092
 BYTE   W06
 BYTE   Gn1
 BYTE   W06
 BYTE   N05
 BYTE   W06
 BYTE   PEND 
// 012   ----------------------------------------
Label_1_0139D274:
 BYTE   N05  Gn0  v100
 BYTE   W06
 BYTE   Gn0  v092
 BYTE   W06
 BYTE   Gn1
 BYTE   W06
 BYTE   N05
 BYTE   W06
 BYTE   Gn0  v100
 BYTE   W06
 BYTE   Gn0  v092
 BYTE   W06
 BYTE   Gn1
 BYTE   W06
 BYTE   N05
 BYTE   W06
 BYTE   Cn1  v100
 BYTE   W06
 BYTE   Cn1  v092
 BYTE   W06
 BYTE   Cn2
 BYTE   W06
 BYTE   N05
 BYTE   W06
 BYTE   Cn1  v100
 BYTE   W06
 BYTE   Cn1  v092
 BYTE   W06
 BYTE   Cn2
 BYTE   W06
 BYTE   N05
 BYTE   W06
 BYTE   PEND 
// 013   ----------------------------------------
 BYTE   PATT
  POIN2 Label_1_0139D178
// 014   ----------------------------------------
Label_1_0139D2A3:
 BYTE   N05  Gs0  v100
 BYTE   W06
 BYTE   Gs0  v092
 BYTE   W06
 BYTE   Gs1
 BYTE   W06
 BYTE   N05
 BYTE   W06
 BYTE   Gs0  v100
 BYTE   W06
 BYTE   Gs0  v092
 BYTE   W06
 BYTE   Gs1
 BYTE   W06
 BYTE   N05
 BYTE   W06
 BYTE   As0  v100
 BYTE   W06
 BYTE   As0  v092
 BYTE   W06
 BYTE   As1
 BYTE   W06
 BYTE   N05
 BYTE   W06
 BYTE   As0  v100
 BYTE   W06
 BYTE   As0  v092
 BYTE   W06
 BYTE   As1
 BYTE   W06
 BYTE   N05
 BYTE   W06
 BYTE   PEND 
// 015   ----------------------------------------
Label_1_0139D2CD:
 BYTE   N05  As0  v100
 BYTE   W06
 BYTE   As0  v092
 BYTE   W06
 BYTE   As1
 BYTE   W06
 BYTE   N05
 BYTE   W06
 BYTE   As0  v100
 BYTE   W06
 BYTE   As0  v092
 BYTE   W06
 BYTE   As1
 BYTE   W06
 BYTE   N05
 BYTE   W06
 BYTE   Gn0  v100
 BYTE   W06
 BYTE   Gn0  v092
 BYTE   W06
 BYTE   Gn1
 BYTE   W06
 BYTE   N05
 BYTE   W06
 BYTE   Gn0  v100
 BYTE   W06
 BYTE   Gn0  v092
 BYTE   W06
 BYTE   Gn1
 BYTE   W06
 BYTE   N05
 BYTE   W06
 BYTE   PEND 
// 016   ----------------------------------------
Label_1_0139D2F7:
 BYTE   N05  Gn0  v100
 BYTE   W06
 BYTE   Gn0  v092
 BYTE   W06
 BYTE   Gn1
 BYTE   W06
 BYTE   N05
 BYTE   W06
 BYTE   Gs0  v100
 BYTE   W06
 BYTE   Gs1  v092
 BYTE   W06
 BYTE   Bn0
 BYTE   W06
 BYTE   Bn1
 BYTE   W06
 BYTE   Cn1  v100
 BYTE   W06
 BYTE   Cn1  v092
 BYTE   W06
 BYTE   Cn2
 BYTE   W06
 BYTE   N05
 BYTE   W06
 BYTE   Cn1  v100
 BYTE   W06
 BYTE   Cn1  v092
 BYTE   W06
 BYTE   Cn2
 BYTE   W06
 BYTE   N05
 BYTE   W06
 BYTE   PEND 
// 017   ----------------------------------------
 BYTE   PATT
  POIN2 Label_1_0139D178
// 018   ----------------------------------------
 BYTE   PATT
  POIN2 Label_1_0139D2A3
// 019   ----------------------------------------
Label_1_0139D32B:
 BYTE   N05  As0  v100
 BYTE   W06
 BYTE   As0  v092
 BYTE   W06
 BYTE   As1
 BYTE   W06
 BYTE   N05
 BYTE   W06
 BYTE   As0  v100
 BYTE   W06
 BYTE   As0  v092
 BYTE   W06
 BYTE   As1
 BYTE   W06
 BYTE   N05
 BYTE   W06
 BYTE   Cn1  v100
 BYTE   W06
 BYTE   Cn1  v092
 BYTE   W06
 BYTE   Cn2
 BYTE   W06
 BYTE   N05
 BYTE   W06
 BYTE   Cn1  v100
 BYTE   W06
 BYTE   Cn1  v092
 BYTE   W06
 BYTE   Cn2
 BYTE   W06
 BYTE   N05
 BYTE   W06
 BYTE   PEND 
// 020   ----------------------------------------
Label_1_0139D355:
 BYTE   N05  Cn1  v100
 BYTE   W06
 BYTE   Cn1  v092
 BYTE   W06
 BYTE   Cn2
 BYTE   W06
 BYTE   N05
 BYTE   W06
 BYTE   Cn1  v100
 BYTE   W06
 BYTE   Cn1  v092
 BYTE   W06
 BYTE   Cn2
 BYTE   W06
 BYTE   N05
 BYTE   W06
 BYTE   Gs0  v112
 BYTE   W06
 BYTE   Gs1
 BYTE   W06
 BYTE   N11  Gs0  v100
 BYTE   W36
 BYTE   PEND 
// 021   ----------------------------------------
Label_1_0139D374:
 BYTE   W36
 BYTE   N06  Gs0  v100
 BYTE   W06
 BYTE   N05
 BYTE   W06
 BYTE   N11  As0  v112
 BYTE   W12
 BYTE   As0  v100
 BYTE   W36
 BYTE   PEND 
// 022   ----------------------------------------
Label_1_0139D383:
 BYTE   W36
 BYTE   N05  As0  v100
 BYTE   W06
 BYTE   N05
 BYTE   W06
 BYTE   N23  Cn1  v112
 BYTE   W24
 BYTE   N05  Cn1  v100
 BYTE   W06
 BYTE   Cn2
 BYTE   W06
 BYTE   N44  Cn1  v112
 BYTE   W12
 BYTE   PEND 
// 023   ----------------------------------------
Label_1_0139D399:
 BYTE   W36
 BYTE   N05  Gn0  v100
 BYTE   W06
 BYTE   N05
 BYTE   W06
 BYTE   N23  Cn1  v112
 BYTE   W24
 BYTE   N05  Cn1  v100
 BYTE   W06
 BYTE   Cn2
 BYTE   W06
 BYTE   N11  Cn1  v112
 BYTE   W12
 BYTE   PEND 
// 024   ----------------------------------------
Label_1_0139D3AF:
 BYTE   N05  Fn1  v100
 BYTE   W06
 BYTE   Ds1
 BYTE   W06
 BYTE   Dn1
 BYTE   W06
 BYTE   Ds1
 BYTE   W06
 BYTE   Cn1
 BYTE   W06
 BYTE   As0
 BYTE   W06
 BYTE   N11  Gn0
 BYTE   W12
 BYTE   N05  Fn0  v112
 BYTE   W06
 BYTE   Fn1  v100
 BYTE   W06
 BYTE   N11  Fn0
 BYTE   W36
 BYTE   PEND 
// 025   ----------------------------------------
Label_1_0139D3CB:
 BYTE   W36
 BYTE   N06  Fn0  v100
 BYTE   W06
 BYTE   N05
 BYTE   W06
 BYTE   N10  Gn0  v112
 BYTE   W12
 BYTE   N11
 BYTE   W36
 BYTE   PEND 
// 026   ----------------------------------------
Label_1_0139D3D9:
 BYTE   W36
 BYTE   N05  Gn0  v100
 BYTE   W06
 BYTE   N05
 BYTE   W06
 BYTE   N23  Cn1  v112
 BYTE   W24
 BYTE   N05  Cn1  v100
 BYTE   W06
 BYTE   Cn2
 BYTE   W06
 BYTE   N44  Cn1  v112
 BYTE   W12
 BYTE   PEND 
// 027   ----------------------------------------
Label_1_0139D3EF:
 BYTE   W36
 BYTE   N05  Gn1  v100
 BYTE   W06
 BYTE   N05
 BYTE   W06
 BYTE   N23  Cn1  v112
 BYTE   W24
 BYTE   N05  Cn1  v100
 BYTE   W06
 BYTE   Cn2
 BYTE   W06
 BYTE   N11  Cn1  v112
 BYTE   W12
 BYTE   PEND 
// 028   ----------------------------------------
Label_1_0139D405:
 BYTE   N05  Fn1  v100
 BYTE   W06
 BYTE   Ds1
 BYTE   W06
 BYTE   Dn1
 BYTE   W06
 BYTE   Ds1
 BYTE   W06
 BYTE   Cn1
 BYTE   W06
 BYTE   As0
 BYTE   W06
 BYTE   N11  Gn0
 BYTE   W12
 BYTE   N05  Gs0  v112
 BYTE   W06
 BYTE   Gs1
 BYTE   W06
 BYTE   N11  Gs0  v100
 BYTE   W36
 BYTE   PEND 
// 029   ----------------------------------------
 BYTE   PATT
  POIN2 Label_1_0139D374
// 030   ----------------------------------------
 BYTE   PATT
  POIN2 Label_1_0139D383
// 031   ----------------------------------------
 BYTE   PATT
  POIN2 Label_1_0139D399
// 032   ----------------------------------------
 BYTE   PATT
  POIN2 Label_1_0139D3AF
// 033   ----------------------------------------
 BYTE   PATT
  POIN2 Label_1_0139D3CB
// 034   ----------------------------------------
Label_1_0139D43A:
 BYTE   W36
 BYTE   N05  Gn0  v100
 BYTE   W06
 BYTE   N05
 BYTE   W06
 BYTE   N16  Cn1  v112
 BYTE   W18
 BYTE   N04  Cn1  v100
 BYTE   W06
 BYTE   N05  Ds1  v112
 BYTE   W06
 BYTE   Dn1  v100
 BYTE   W06
 BYTE   N11  Cn1  v112
 BYTE   W12
 BYTE   PEND 
// 035   ----------------------------------------
Label_1_0139D455:
 BYTE   N05  Cn1  v100
 BYTE   W06
 BYTE   Ds1
 BYTE   W06
 BYTE   Dn1
 BYTE   W06
 BYTE   Ds1
 BYTE   W06
 BYTE   Fn1
 BYTE   W06
 BYTE   Ds1
 BYTE   W06
 BYTE   Dn1
 BYTE   W06
 BYTE   Ds1
 BYTE   W06
 BYTE   N17  Gn0
 BYTE   W18
 BYTE   An0
 BYTE   W18
 BYTE   N11  Bn0
 BYTE   W12
 BYTE   PEND 
// 036   ----------------------------------------
 BYTE   N17
 BYTE   W18
 BYTE   Cn1
 BYTE   W18
 BYTE   N11  Dn1
 BYTE   W12
 BYTE   N05  Cn1
 BYTE   W06
 BYTE   Cn1  v092
 BYTE   W06
 BYTE   N05
 BYTE   W06
 BYTE   Cn2  v100
 BYTE   W12
 BYTE   N05
 BYTE   W06
 BYTE   Cn1  v092
 BYTE   W06
 BYTE   Cn2  v100
 BYTE   W06
// 037   ----------------------------------------
 BYTE   PATT
  POIN2 Label_1_0139D0C1
// 038   ----------------------------------------
 BYTE   PATT
  POIN2 Label_1_0139D0E4
// 039   ----------------------------------------
 BYTE   PATT
  POIN2 Label_1_0139D107
// 040   ----------------------------------------
 BYTE   PATT
  POIN2 Label_1_0139D12A
// 041   ----------------------------------------
 BYTE   PATT
  POIN2 Label_1_0139D14E
// 042   ----------------------------------------
 BYTE   PATT
  POIN2 Label_1_0139D178
// 043   ----------------------------------------
 BYTE   PATT
  POIN2 Label_1_0139D1A2
// 044   ----------------------------------------
 BYTE   PATT
  POIN2 Label_1_0139D1CC
// 045   ----------------------------------------
 BYTE   PATT
  POIN2 Label_1_0139D1F6
// 046   ----------------------------------------
 BYTE   PATT
  POIN2 Label_1_0139D220
// 047   ----------------------------------------
 BYTE   PATT
  POIN2 Label_1_0139D24A
// 048   ----------------------------------------
 BYTE   PATT
  POIN2 Label_1_0139D274
// 049   ----------------------------------------
 BYTE   PATT
  POIN2 Label_1_0139D178
// 050   ----------------------------------------
 BYTE   PATT
  POIN2 Label_1_0139D2A3
// 051   ----------------------------------------
 BYTE   PATT
  POIN2 Label_1_0139D2CD
// 052   ----------------------------------------
 BYTE   PATT
  POIN2 Label_1_0139D2F7
// 053   ----------------------------------------
 BYTE   PATT
  POIN2 Label_1_0139D178
// 054   ----------------------------------------
 BYTE   PATT
  POIN2 Label_1_0139D2A3
// 055   ----------------------------------------
 BYTE   PATT
  POIN2 Label_1_0139D32B
// 056   ----------------------------------------
 BYTE   PATT
  POIN2 Label_1_0139D355
// 057   ----------------------------------------
 BYTE   PATT
  POIN2 Label_1_0139D374
// 058   ----------------------------------------
 BYTE   PATT
  POIN2 Label_1_0139D383
// 059   ----------------------------------------
 BYTE   PATT
  POIN2 Label_1_0139D399
// 060   ----------------------------------------
 BYTE   PATT
  POIN2 Label_1_0139D3AF
// 061   ----------------------------------------
 BYTE   PATT
  POIN2 Label_1_0139D3CB
// 062   ----------------------------------------
 BYTE   PATT
  POIN2 Label_1_0139D3D9
// 063   ----------------------------------------
 BYTE   PATT
  POIN2 Label_1_0139D3EF
// 064   ----------------------------------------
 BYTE   PATT
  POIN2 Label_1_0139D405
// 065   ----------------------------------------
 BYTE   PATT
  POIN2 Label_1_0139D374
// 066   ----------------------------------------
 BYTE   PATT
  POIN2 Label_1_0139D383
// 067   ----------------------------------------
 BYTE   PATT
  POIN2 Label_1_0139D399
// 068   ----------------------------------------
 BYTE   PATT
  POIN2 Label_1_0139D3AF
// 069   ----------------------------------------
 BYTE   PATT
  POIN2 Label_1_0139D3CB
// 070   ----------------------------------------
 BYTE   PATT
  POIN2 Label_1_0139D43A
// 071   ----------------------------------------
 BYTE   PATT
  POIN2 Label_1_0139D455
// 072   ----------------------------------------
 BYTE   N17  Bn0  v100
 BYTE   W18
 BYTE   Cn1
 BYTE   W18
 BYTE   N11  Dn1
 BYTE   W12
 BYTE   N17  Gn0
 BYTE   W18
 BYTE   An0
 BYTE   W18
 BYTE   N11  Bn0
 BYTE   W12
// 073   ----------------------------------------
 BYTE   N17
 BYTE   W18
 BYTE   Cn1
 BYTE   W18
 BYTE   N11  Dn1
 BYTE   W12
 BYTE   TIE  Cn1  v112
 BYTE   W48
// 074   ----------------------------------------
 BYTE   W96
// 075   ----------------------------------------
 BYTE   W44
 BYTE   W02
 BYTE   EOT
 BYTE   W02
 BYTE   GoTo
  POIN2 Label_1_0139D0A6
// 076   ----------------------------------------
 BYTE   VOL   0*Noltia_mvl/mxv
 BYTE   FINE

//**************** Track 3 (Midi-Chn.2) ****************//

Noltia_003:
// 000   ----------------------------------------
 BYTE   KEYSH   Noltia_key+0
Label_2_0139E0EA:
 BYTE   VOICE   0
 BYTE   PAN   c_v+10
 BYTE   VOL   25*Noltia_mvl/mxv
 BYTE   BEND   c_v+0
 BYTE   W44
 BYTE   W02
 BYTE   W01
 BYTE   VOICE   30
 BYTE   PAN   c_v+10
 BYTE   W01
 BYTE   N92  Cn2  v108
 BYTE   N92  Gn2  v088
 BYTE   W48
// 001   ----------------------------------------
Label_2_0139E101:
 BYTE   W48
 BYTE   N44  As1  v108
 BYTE   N44  Fn2  v088
 BYTE   W48
 BYTE   PEND 
// 002   ----------------------------------------
Label_2_0139E10A:
 BYTE   N02  Gs1  v108
 BYTE   N02  Ds2  v088
 BYTE   W06
 BYTE   Gs1  v108
 BYTE   N02  Ds2  v088
 BYTE   W06
 BYTE   N11  Gs1  v108
 BYTE   N01  Ds2  v088
 BYTE   W12
 BYTE   N02  As1  v108
 BYTE   N02  Fn2  v088
 BYTE   W06
 BYTE   N16  As1  v108
 BYTE   N16  Fn2  v088
 BYTE   W18
 BYTE   N92  Gs1  v108
 BYTE   N92  Ds2  v088
 BYTE   W48
 BYTE   PEND 
// 003   ----------------------------------------
Label_2_0139E134:
 BYTE   W48
 BYTE   N68  Gn1  v108
 BYTE   N68  Dn2  v088
 BYTE   W48
 BYTE   PEND 
// 004   ----------------------------------------
Label_2_0139E13D:
 BYTE   W24
 BYTE   N02  Fn1  v108
 BYTE   N02  Cn2  v088
 BYTE   W06
 BYTE   N11  Gn1  v108
 BYTE   N11  Dn2  v088
 BYTE   W12
 BYTE   N04  Gn1  v108
 BYTE   N04  Dn2  v088
 BYTE   W06
 BYTE   N02  Cn2  v076
 BYTE   W06
 BYTE   N02
 BYTE   W06
 BYTE   N11  Cn2  v096
 BYTE   N11  Gn2  v076
 BYTE   W12
 BYTE   N02  Cn2
 BYTE   W06
 BYTE   N02
 BYTE   W06
 BYTE   N11  Cn2  v096
 BYTE   N11  Gn2  v076
 BYTE   W12
 BYTE   PEND 
// 005   ----------------------------------------
Label_2_0139E16D:
 BYTE   N02  Cn2  v076
 BYTE   W06
 BYTE   N02
 BYTE   W06
 BYTE   N11  Cn2  v096
 BYTE   N11  Gn2  v076
 BYTE   W12
 BYTE   N04  Cn2
 BYTE   W06
 BYTE   N04
 BYTE   W06
 BYTE   N11  Cn2  v096
 BYTE   N11  Gn2  v076
 BYTE   W12
 BYTE   N04  Cn2
 BYTE   W06
 BYTE   N04
 BYTE   W06
 BYTE   N11  Cn2  v096
 BYTE   N11  Gn2  v076
 BYTE   W12
 BYTE   N04  Cn2
 BYTE   W06
 BYTE   N04
 BYTE   W06
 BYTE   N11  Cn2  v096
 BYTE   N11  Gn2  v076
 BYTE   W12
 BYTE   PEND 
// 006   ----------------------------------------
Label_2_0139E19F:
 BYTE   N04  Cn2  v076
 BYTE   W06
 BYTE   N04
 BYTE   W06
 BYTE   N11  Cn2  v096
 BYTE   N11  Gn2  v076
 BYTE   W12
 BYTE   N04  Cn2
 BYTE   W06
 BYTE   N04
 BYTE   W06
 BYTE   N11  Cn2  v096
 BYTE   N11  Gn2  v076
 BYTE   W12
 BYTE   N04  Gs1
 BYTE   W06
 BYTE   N04
 BYTE   W06
 BYTE   N11  Gs1  v096
 BYTE   N11  Ds2  v076
 BYTE   W12
 BYTE   N04  Gs1
 BYTE   W06
 BYTE   N04
 BYTE   W06
 BYTE   N11  Gs1  v096
 BYTE   N11  Ds2  v076
 BYTE   W12
 BYTE   PEND 
// 007   ----------------------------------------
Label_2_0139E1D1:
 BYTE   N04  Gs1  v076
 BYTE   W06
 BYTE   N04
 BYTE   W06
 BYTE   N11  Gs1  v096
 BYTE   N11  Ds2  v076
 BYTE   W12
 BYTE   N04  Gs1
 BYTE   W06
 BYTE   N04
 BYTE   W06
 BYTE   N11  Gs1  v096
 BYTE   N11  Ds2  v076
 BYTE   W12
 BYTE   N04  Gs1
 BYTE   W06
 BYTE   N04
 BYTE   W06
 BYTE   N11  Gs1  v096
 BYTE   N11  Ds2  v076
 BYTE   W12
 BYTE   N04  Gs1
 BYTE   W06
 BYTE   N04
 BYTE   W06
 BYTE   N11  Gs1  v096
 BYTE   N11  Ds2  v076
 BYTE   W12
 BYTE   PEND 
// 008   ----------------------------------------
Label_2_0139E203:
 BYTE   N04  Gs1  v076
 BYTE   W06
 BYTE   N04
 BYTE   W06
 BYTE   N11  Gs1  v096
 BYTE   N11  Ds2  v076
 BYTE   W12
 BYTE   N04  Gs1
 BYTE   W06
 BYTE   N04
 BYTE   W06
 BYTE   N11  Gs1  v096
 BYTE   N11  Ds2  v076
 BYTE   W12
 BYTE   N02  Fn1
 BYTE   W06
 BYTE   N02
 BYTE   W06
 BYTE   N11  Fn1  v096
 BYTE   N11  Cn2  v076
 BYTE   W12
 BYTE   N02  Fn1
 BYTE   W06
 BYTE   N02
 BYTE   W06
 BYTE   N11  Fn1  v096
 BYTE   N11  Cn2  v076
 BYTE   W12
 BYTE   PEND 
// 009   ----------------------------------------
Label_2_0139E235:
 BYTE   N02  Fn1  v076
 BYTE   W06
 BYTE   N02
 BYTE   W06
 BYTE   N11  Fn1  v096
 BYTE   N11  Cn2  v076
 BYTE   W12
 BYTE   N04  Fn1
 BYTE   W06
 BYTE   N04
 BYTE   W06
 BYTE   N11  Fn1  v096
 BYTE   N11  Cn2  v076
 BYTE   W12
 BYTE   N04  Fn1
 BYTE   W06
 BYTE   N04
 BYTE   W06
 BYTE   N11  Fn1  v096
 BYTE   N11  Cn2  v076
 BYTE   W12
 BYTE   N04  Fn1
 BYTE   W06
 BYTE   N04
 BYTE   W06
 BYTE   N11  Fn1  v096
 BYTE   N11  Cn2  v076
 BYTE   W12
 BYTE   PEND 
// 010   ----------------------------------------
Label_2_0139E267:
 BYTE   N04  Fn1  v076
 BYTE   W06
 BYTE   N04
 BYTE   W06
 BYTE   N11  Fn1  v096
 BYTE   N11  Cn2  v076
 BYTE   W12
 BYTE   N04  Fn1
 BYTE   W06
 BYTE   N04
 BYTE   W06
 BYTE   N11  Fn1  v096
 BYTE   N11  Cn2  v076
 BYTE   W12
 BYTE   N02  Gn1
 BYTE   W06
 BYTE   N02
 BYTE   W06
 BYTE   N11  Gn1  v096
 BYTE   N11  Dn2  v076
 BYTE   W12
 BYTE   N02  Gn1
 BYTE   W06
 BYTE   N02
 BYTE   W06
 BYTE   N11  Gn1  v096
 BYTE   N11  Dn2  v076
 BYTE   W12
 BYTE   PEND 
// 011   ----------------------------------------
Label_2_0139E299:
 BYTE   N02  Gn1  v076
 BYTE   W06
 BYTE   N02
 BYTE   W06
 BYTE   N11  Gn1  v096
 BYTE   N11  Dn2  v076
 BYTE   W12
 BYTE   N04  Gn1
 BYTE   W06
 BYTE   N04
 BYTE   W06
 BYTE   N11  Gn1  v096
 BYTE   N11  Dn2  v076
 BYTE   W12
 BYTE   N04  Gn1
 BYTE   W06
 BYTE   N04
 BYTE   W06
 BYTE   N11  Gn1  v096
 BYTE   N11  Dn2  v076
 BYTE   W12
 BYTE   N04  Gn1
 BYTE   W06
 BYTE   N04
 BYTE   W06
 BYTE   N11  Gn1  v096
 BYTE   N11  Dn2  v076
 BYTE   W12
 BYTE   PEND 
// 012   ----------------------------------------
Label_2_0139E2CB:
 BYTE   N04  Gn1  v076
 BYTE   W06
 BYTE   N04
 BYTE   W06
 BYTE   N11  Gn1  v096
 BYTE   N11  Dn2  v076
 BYTE   W12
 BYTE   N04  Gn1
 BYTE   W06
 BYTE   N04
 BYTE   W06
 BYTE   N11  Gn1  v096
 BYTE   N11  Dn2  v076
 BYTE   W12
 BYTE   N02  Cn2
 BYTE   W06
 BYTE   N02
 BYTE   W06
 BYTE   N11  Cn2  v096
 BYTE   N11  Gn2  v076
 BYTE   W12
 BYTE   N02  Cn2
 BYTE   W06
 BYTE   N02
 BYTE   W06
 BYTE   N11  Cn2  v096
 BYTE   N11  Gn2  v076
 BYTE   W12
 BYTE   PEND 
// 013   ----------------------------------------
Label_2_0139E2FD:
 BYTE   N02  Cn2  v076
 BYTE   W06
 BYTE   N02
 BYTE   W06
 BYTE   N11  Cn2  v096
 BYTE   N11  Gn2  v076
 BYTE   W12
 BYTE   N04  Cn2
 BYTE   W06
 BYTE   N04
 BYTE   W06
 BYTE   N11  Cn2  v096
 BYTE   N11  Gn2  v076
 BYTE   W12
 BYTE   N04  Gs1
 BYTE   W06
 BYTE   N04
 BYTE   W06
 BYTE   N11  Gs1  v096
 BYTE   N11  Ds2  v076
 BYTE   W12
 BYTE   N04  Gs1
 BYTE   W06
 BYTE   N04
 BYTE   W06
 BYTE   N11  Gs1  v096
 BYTE   N11  Ds2  v076
 BYTE   W12
 BYTE   PEND 
// 014   ----------------------------------------
Label_2_0139E32F:
 BYTE   N04  Gs1  v076
 BYTE   W06
 BYTE   N04
 BYTE   W06
 BYTE   N11  Gs1  v096
 BYTE   N11  Ds2  v076
 BYTE   W12
 BYTE   N04  Gs1
 BYTE   W06
 BYTE   N04
 BYTE   W06
 BYTE   N11  Gs1  v096
 BYTE   N11  Ds2  v076
 BYTE   W12
 BYTE   N04  As1
 BYTE   W06
 BYTE   N04
 BYTE   W06
 BYTE   N11  As1  v096
 BYTE   N11  Fn2  v076
 BYTE   W12
 BYTE   N04  As1
 BYTE   W06
 BYTE   N04
 BYTE   W06
 BYTE   N11  As1  v096
 BYTE   N11  Fn2  v076
 BYTE   W12
 BYTE   PEND 
// 015   ----------------------------------------
Label_2_0139E361:
 BYTE   N04  As1  v076
 BYTE   W06
 BYTE   N04
 BYTE   W06
 BYTE   N11  As1  v096
 BYTE   N11  Fn2  v076
 BYTE   W12
 BYTE   N04  As1
 BYTE   W06
 BYTE   N04
 BYTE   W06
 BYTE   N11  As1  v096
 BYTE   N11  Fn2  v076
 BYTE   W12
 BYTE   N04  Gn1
 BYTE   W06
 BYTE   N04
 BYTE   W06
 BYTE   N11  Gn1  v096
 BYTE   N11  Dn2  v076
 BYTE   W12
 BYTE   N04  Gn1
 BYTE   W06
 BYTE   N04
 BYTE   W06
 BYTE   N11  Gn1  v096
 BYTE   N11  Dn2  v076
 BYTE   W12
 BYTE   PEND 
// 016   ----------------------------------------
Label_2_0139E393:
 BYTE   N04  Gn1  v076
 BYTE   W06
 BYTE   N04
 BYTE   W06
 BYTE   N11  Gn1  v096
 BYTE   N11  Dn2  v076
 BYTE   W12
 BYTE   N04  An1
 BYTE   W06
 BYTE   N04
 BYTE   W06
 BYTE   N11  Gn1  v096
 BYTE   N11  As1  v076
 BYTE   W12
 BYTE   N02  Cn2
 BYTE   W06
 BYTE   N02
 BYTE   W06
 BYTE   N11  Cn2  v096
 BYTE   N11  Gn2  v076
 BYTE   W12
 BYTE   N02  Cn2
 BYTE   W06
 BYTE   N02
 BYTE   W06
 BYTE   N11  Cn2  v096
 BYTE   N11  Gn2  v076
 BYTE   W12
 BYTE   PEND 
// 017   ----------------------------------------
 BYTE   PATT
  POIN2 Label_2_0139E2FD
// 018   ----------------------------------------
 BYTE   PATT
  POIN2 Label_2_0139E32F
// 019   ----------------------------------------
Label_2_0139E3CF:
 BYTE   N04  As1  v076
 BYTE   W06
 BYTE   N04
 BYTE   W06
 BYTE   N11  As1  v096
 BYTE   N11  Fn2  v076
 BYTE   W12
 BYTE   N04  As1
 BYTE   W06
 BYTE   N04
 BYTE   W06
 BYTE   N11  As1  v096
 BYTE   N11  Fn2  v076
 BYTE   W12
 BYTE   N04  Cn2
 BYTE   W06
 BYTE   N04
 BYTE   W06
 BYTE   N11  Cn2  v096
 BYTE   N11  Gn2  v076
 BYTE   W12
 BYTE   N04  Cn2
 BYTE   W06
 BYTE   N04
 BYTE   W06
 BYTE   N11  Cn2  v096
 BYTE   N11  Gn2  v076
 BYTE   W12
 BYTE   PEND 
// 020   ----------------------------------------
Label_2_0139E401:
 BYTE   N04  Cn2  v076
 BYTE   W06
 BYTE   N04
 BYTE   W06
 BYTE   N11  Cn2  v096
 BYTE   N11  Gn2  v076
 BYTE   W12
 BYTE   N04  Cn2
 BYTE   W06
 BYTE   N04
 BYTE   W06
 BYTE   N11  Cn2  v096
 BYTE   N11  Gn2  v076
 BYTE   W11
 BYTE   PAN   c_v+20
 BYTE   W01
 BYTE   N11  Gs1  v100
 BYTE   N11  Ds2  v080
 BYTE   W12
 BYTE   N02  Gs1  v100
 BYTE   N02  Ds2  v080
 BYTE   W06
 BYTE   Gs1  v100
 BYTE   N02  Ds2  v080
 BYTE   W06
 BYTE   Gs1  v100
 BYTE   N02  Ds2  v080
 BYTE   W06
 BYTE   Gs1  v100
 BYTE   N02  Ds2  v080
 BYTE   W06
 BYTE   N11  Gs1  v100
 BYTE   N11  Ds2  v080
 BYTE   W12
 BYTE   PEND 
// 021   ----------------------------------------
Label_2_0139E445:
 BYTE   N02  Gs1  v100
 BYTE   N02  Ds2  v080
 BYTE   W06
 BYTE   Gs1  v100
 BYTE   N02  Ds2  v080
 BYTE   W06
 BYTE   N11  Gs1  v100
 BYTE   N11  Ds2  v080
 BYTE   W12
 BYTE   Gs1  v100
 BYTE   N11  Ds2  v080
 BYTE   W12
 BYTE   N02  Gs1  v100
 BYTE   N02  Ds2  v080
 BYTE   W06
 BYTE   Gs1  v100
 BYTE   N02  Ds2  v080
 BYTE   W06
 BYTE   N11  As1  v100
 BYTE   N11  Fn2  v080
 BYTE   W12
 BYTE   N02  As1  v100
 BYTE   N02  Fn2  v080
 BYTE   W06
 BYTE   As1  v100
 BYTE   N02  Fn2  v080
 BYTE   W06
 BYTE   As1  v100
 BYTE   N02  Fn2  v080
 BYTE   W06
 BYTE   As1  v100
 BYTE   N02  Fn2  v080
 BYTE   W06
 BYTE   N11  As1  v100
 BYTE   N11  Fn2  v080
 BYTE   W12
 BYTE   PEND 
// 022   ----------------------------------------
Label_2_0139E494:
 BYTE   N02  As1  v100
 BYTE   N02  Fn2  v080
 BYTE   W06
 BYTE   As1  v100
 BYTE   N02  Fn2  v080
 BYTE   W06
 BYTE   N11  As1  v100
 BYTE   N11  Fn2  v080
 BYTE   W12
 BYTE   As1  v100
 BYTE   N11  Fn2  v080
 BYTE   W12
 BYTE   N02  As1  v100
 BYTE   N02  Fn2  v080
 BYTE   W06
 BYTE   As1  v100
 BYTE   N02  Fn2  v080
 BYTE   W06
 BYTE   N11  Cn2  v100
 BYTE   N11  Gn2  v080
 BYTE   W12
 BYTE   N02  Cn2  v100
 BYTE   N02  Gn2  v080
 BYTE   W06
 BYTE   Cn2  v100
 BYTE   N02  Gn2  v080
 BYTE   W06
 BYTE   N56  Cn2  v100
 BYTE   N56  Gn2  v080
 BYTE   W24
 BYTE   PEND 
// 023   ----------------------------------------
Label_2_0139E4D7:
 BYTE   W36
 BYTE   N02  Cn2  v100
 BYTE   N02  Gn2  v080
 BYTE   W06
 BYTE   Cn2  v100
 BYTE   N02  Gn2  v080
 BYTE   W06
 BYTE   N11  Cn2  v100
 BYTE   N11  Gn2  v080
 BYTE   W12
 BYTE   N02  Cn2  v100
 BYTE   N02  Gn2  v080
 BYTE   W06
 BYTE   Cn2  v100
 BYTE   N02  Gn2  v080
 BYTE   W06
 BYTE   N56  Cn2  v100
 BYTE   N56  Gn2  v080
 BYTE   W24
 BYTE   PEND 
// 024   ----------------------------------------
Label_2_0139E501:
 BYTE   W36
 BYTE   N02  Cn2  v100
 BYTE   N02  Gn2  v080
 BYTE   W06
 BYTE   Cn2  v100
 BYTE   N02  Gn2  v080
 BYTE   W06
 BYTE   N80  Fn1  v100
 BYTE   N80  Cn2  v080
 BYTE   W48
 BYTE   PEND 
// 025   ----------------------------------------
Label_2_0139E517:
 BYTE   W36
 BYTE   N02  Fn1  v100
 BYTE   N02  Cn2  v080
 BYTE   W06
 BYTE   Fn1  v100
 BYTE   N02  Cn2  v080
 BYTE   W06
 BYTE   N80  Gn1  v100
 BYTE   N80  Dn2  v080
 BYTE   W48
 BYTE   PEND 
// 026   ----------------------------------------
Label_2_0139E52D:
 BYTE   W36
 BYTE   N02  Gn1  v100
 BYTE   N02  Dn2  v080
 BYTE   W06
 BYTE   Gn1  v100
 BYTE   N02  Dn2  v080
 BYTE   W06
 BYTE   N80  Cn2  v100
 BYTE   N80  Gn2  v080
 BYTE   W48
 BYTE   PEND 
// 027   ----------------------------------------
Label_2_0139E543:
 BYTE   W36
 BYTE   N02  Cn2  v100
 BYTE   N02  Gn2  v080
 BYTE   W06
 BYTE   Cn2  v100
 BYTE   N02  Gn2  v080
 BYTE   W06
 BYTE   N80  Cn2  v100
 BYTE   N80  Gn2  v080
 BYTE   W48
 BYTE   PEND 
// 028   ----------------------------------------
Label_2_0139E559:
 BYTE   W36
 BYTE   N02  Cn2  v100
 BYTE   N02  Gn2  v080
 BYTE   W06
 BYTE   Cn2  v100
 BYTE   N02  Gn2  v080
 BYTE   W06
 BYTE   N11  Gs1  v100
 BYTE   N11  Ds2  v080
 BYTE   W12
 BYTE   N02  Gs1  v100
 BYTE   N02  Ds2  v080
 BYTE   W06
 BYTE   Gs1  v100
 BYTE   N02  Ds2  v080
 BYTE   W06
 BYTE   Gs1  v100
 BYTE   N02  Ds2  v080
 BYTE   W06
 BYTE   Gs1  v100
 BYTE   N02  Ds2  v080
 BYTE   W06
 BYTE   N11  Gs1  v100
 BYTE   N11  Ds2  v080
 BYTE   W12
 BYTE   PEND 
// 029   ----------------------------------------
 BYTE   PATT
  POIN2 Label_2_0139E445
// 030   ----------------------------------------
 BYTE   PATT
  POIN2 Label_2_0139E494
// 031   ----------------------------------------
 BYTE   PATT
  POIN2 Label_2_0139E4D7
// 032   ----------------------------------------
 BYTE   PATT
  POIN2 Label_2_0139E501
// 033   ----------------------------------------
 BYTE   PATT
  POIN2 Label_2_0139E517
// 034   ----------------------------------------
Label_2_0139E5A8:
 BYTE   W36
 BYTE   N02  Gn1  v100
 BYTE   N02  Dn2  v080
 BYTE   W06
 BYTE   Gn1  v100
 BYTE   N02  Dn2  v080
 BYTE   W06
 BYTE   N11  Gs1  v100
 BYTE   N11  Ds2  v080
 BYTE   W12
 BYTE   N02  Gs1  v100
 BYTE   N02  Ds2  v080
 BYTE   W06
 BYTE   Gs1  v100
 BYTE   N02  Ds2  v080
 BYTE   W06
 BYTE   Gs1  v100
 BYTE   N02  Ds2  v080
 BYTE   W06
 BYTE   Gs1  v100
 BYTE   N02  Ds2  v080
 BYTE   W06
 BYTE   N11  Gs1  v100
 BYTE   N11  Ds2  v080
 BYTE   W12
 BYTE   PEND 
// 035   ----------------------------------------
Label_2_0139E5DE:
 BYTE   N02  Gs1  v100
 BYTE   N02  Ds2  v080
 BYTE   W06
 BYTE   Gs1  v100
 BYTE   N02  Ds2  v080
 BYTE   W06
 BYTE   N11  Gs1  v100
 BYTE   N11  Ds2  v080
 BYTE   W12
 BYTE   Gs1  v100
 BYTE   N11  Ds2  v080
 BYTE   W12
 BYTE   N02  Gs1  v100
 BYTE   N02  Ds2  v080
 BYTE   W06
 BYTE   Gs1  v100
 BYTE   N02  Ds2  v080
 BYTE   W05
 BYTE   BEND   c_v-11
 BYTE   W01
 BYTE   N17  Bn2  v124
 BYTE   W01
 BYTE   BEND   c_v+0
 BYTE   W05
 BYTE   MOD 0
 BYTE   En1
 BYTE   W10
 BYTE   CnM2
 BYTE   W02
 BYTE   N17  Cn3
 BYTE   W18
 BYTE   N11  Dn3
 BYTE   W12
 BYTE   PEND 
// 036   ----------------------------------------
 BYTE   N17
 BYTE   W18
 BYTE   Ds3
 BYTE   W18
 BYTE   N11  Fn3
 BYTE   W12
 BYTE   N92  Cn2  v108
 BYTE   N92  Gn2  v088
 BYTE   W48
// 037   ----------------------------------------
 BYTE   PATT
  POIN2 Label_2_0139E101
// 038   ----------------------------------------
 BYTE   PATT
  POIN2 Label_2_0139E10A
// 039   ----------------------------------------
 BYTE   PATT
  POIN2 Label_2_0139E134
// 040   ----------------------------------------
 BYTE   PATT
  POIN2 Label_2_0139E13D
// 041   ----------------------------------------
 BYTE   PATT
  POIN2 Label_2_0139E16D
// 042   ----------------------------------------
 BYTE   PATT
  POIN2 Label_2_0139E19F
// 043   ----------------------------------------
 BYTE   PATT
  POIN2 Label_2_0139E1D1
// 044   ----------------------------------------
 BYTE   PATT
  POIN2 Label_2_0139E203
// 045   ----------------------------------------
 BYTE   PATT
  POIN2 Label_2_0139E235
// 046   ----------------------------------------
 BYTE   PATT
  POIN2 Label_2_0139E267
// 047   ----------------------------------------
 BYTE   PATT
  POIN2 Label_2_0139E299
// 048   ----------------------------------------
 BYTE   PATT
  POIN2 Label_2_0139E2CB
// 049   ----------------------------------------
 BYTE   PATT
  POIN2 Label_2_0139E2FD
// 050   ----------------------------------------
 BYTE   PATT
  POIN2 Label_2_0139E32F
// 051   ----------------------------------------
 BYTE   PATT
  POIN2 Label_2_0139E361
// 052   ----------------------------------------
 BYTE   PATT
  POIN2 Label_2_0139E393
// 053   ----------------------------------------
 BYTE   PATT
  POIN2 Label_2_0139E2FD
// 054   ----------------------------------------
 BYTE   PATT
  POIN2 Label_2_0139E32F
// 055   ----------------------------------------
 BYTE   PATT
  POIN2 Label_2_0139E3CF
// 056   ----------------------------------------
 BYTE   PATT
  POIN2 Label_2_0139E401
// 057   ----------------------------------------
 BYTE   PATT
  POIN2 Label_2_0139E445
// 058   ----------------------------------------
 BYTE   PATT
  POIN2 Label_2_0139E494
// 059   ----------------------------------------
 BYTE   PATT
  POIN2 Label_2_0139E4D7
// 060   ----------------------------------------
 BYTE   PATT
  POIN2 Label_2_0139E501
// 061   ----------------------------------------
 BYTE   PATT
  POIN2 Label_2_0139E517
// 062   ----------------------------------------
 BYTE   PATT
  POIN2 Label_2_0139E52D
// 063   ----------------------------------------
 BYTE   PATT
  POIN2 Label_2_0139E543
// 064   ----------------------------------------
 BYTE   PATT
  POIN2 Label_2_0139E559
// 065   ----------------------------------------
 BYTE   PATT
  POIN2 Label_2_0139E445
// 066   ----------------------------------------
 BYTE   PATT
  POIN2 Label_2_0139E494
// 067   ----------------------------------------
 BYTE   PATT
  POIN2 Label_2_0139E4D7
// 068   ----------------------------------------
 BYTE   PATT
  POIN2 Label_2_0139E501
// 069   ----------------------------------------
 BYTE   PATT
  POIN2 Label_2_0139E517
// 070   ----------------------------------------
 BYTE   PATT
  POIN2 Label_2_0139E5A8
// 071   ----------------------------------------
 BYTE   PATT
  POIN2 Label_2_0139E5DE
// 072   ----------------------------------------
 BYTE   N17  Dn3  v124
 BYTE   W18
 BYTE   Ds3
 BYTE   W18
 BYTE   N11  Fn3
 BYTE   W12
 BYTE   N17  Bn2
 BYTE   W06
 BYTE   MOD 0
 BYTE   En1
 BYTE   W10
 BYTE   CnM2
 BYTE   W02
 BYTE   N17  Cn3
 BYTE   W18
 BYTE   N11  Dn3
 BYTE   W12
// 073   ----------------------------------------
 BYTE   N17
 BYTE   W18
 BYTE   Ds3
 BYTE   W18
 BYTE   N11  Fn3
 BYTE   W12
 BYTE   TIE  Cn3
 BYTE   W48
// 074   ----------------------------------------
 BYTE   W96
// 075   ----------------------------------------
 BYTE   W44
 BYTE   W02
 BYTE   EOT
 BYTE   W02
 BYTE   GoTo
  POIN2 Label_2_0139E0EA
// 076   ----------------------------------------
 BYTE   VOL   0*Noltia_mvl/mxv
 BYTE   FINE

//**************** Track 4 (Midi-Chn.3) ****************//

Noltia_004:
// 000   ----------------------------------------
 BYTE   KEYSH   Noltia_key+0
Label_3_01336B3E:
 BYTE   VOICE   0
 BYTE   PAN   c_v-10
 BYTE   VOL   25*Noltia_mvl/mxv
 BYTE   BEND   c_v+0
 BYTE   N44  Dn2  v020
 BYTE   N44  Gn2
 BYTE   N44  Bn2  v032
 BYTE   W44
 BYTE   W01
 BYTE   VOICE   29
 BYTE   W01
 BYTE   VOL   17*Noltia_mvl/mxv
 BYTE   PAN   c_v-64
 BYTE   W01
 BYTE   W48
 BYTE   W01
// 001   ----------------------------------------
 BYTE   W96
// 002   ----------------------------------------
 BYTE   W96
// 003   ----------------------------------------
 BYTE   W96
// 004   ----------------------------------------
 BYTE   W96
// 005   ----------------------------------------
 BYTE   W96
// 006   ----------------------------------------
 BYTE   W96
// 007   ----------------------------------------
 BYTE   W96
// 008   ----------------------------------------
 BYTE   W96
// 009   ----------------------------------------
 BYTE   W96
// 010   ----------------------------------------
 BYTE   W96
// 011   ----------------------------------------
 BYTE   W96
// 012   ----------------------------------------
 BYTE   W96
// 013   ----------------------------------------
 BYTE   W96
// 014   ----------------------------------------
 BYTE   W96
// 015   ----------------------------------------
 BYTE   W96
// 016   ----------------------------------------
 BYTE   W96
// 017   ----------------------------------------
 BYTE   W96
// 018   ----------------------------------------
 BYTE   W96
// 019   ----------------------------------------
 BYTE   W96
// 020   ----------------------------------------
Label_3_01336B6D:
 BYTE   W48
 BYTE   N32  Gs1  v120
 BYTE   N32  Ds2  v100
 BYTE   W36
 BYTE   N02  Gs1  v120
 BYTE   N02  Ds2  v100
 BYTE   W06
 BYTE   Gs1  v120
 BYTE   N02  Ds2  v100
 BYTE   W06
 BYTE   PEND 
// 021   ----------------------------------------
Label_3_01336B83:
 BYTE   N16  Gs3  v100
 BYTE   W18
 BYTE   Ds3
 BYTE   W18
 BYTE   N11  Cn3
 BYTE   W12
 BYTE   N32  As1  v120
 BYTE   N32  Fn2  v100
 BYTE   W36
 BYTE   N02  As1  v120
 BYTE   N02  Fn2  v100
 BYTE   W06
 BYTE   As1  v120
 BYTE   N02  Fn2  v100
 BYTE   W06
 BYTE   PEND 
// 022   ----------------------------------------
Label_3_01336BA1:
 BYTE   N16  As3  v100
 BYTE   W18
 BYTE   Fn3
 BYTE   W18
 BYTE   N11  Dn3
 BYTE   W12
 BYTE   N92  Cn2  v112
 BYTE   W12
 BYTE   N68  Cn3  v092
 BYTE   W12
 BYTE   N32  Ds3
 BYTE   W12
 BYTE   N56  Gn3  v112
 BYTE   W12
 BYTE   PEND 
// 023   ----------------------------------------
Label_3_01336BBA:
 BYTE   W12
 BYTE   N32  Ds3  v112
 BYTE   W24
 BYTE   N11  Cn3
 BYTE   W12
 BYTE   N92  Cn2
 BYTE   W12
 BYTE   N68  Cn3  v092
 BYTE   W12
 BYTE   N32  Ds3
 BYTE   W12
 BYTE   N56  Gn3  v112
 BYTE   W12
 BYTE   PEND 
// 024   ----------------------------------------
Label_3_01336BD1:
 BYTE   W12
 BYTE   N32  Ds3  v112
 BYTE   W24
 BYTE   N11  Cn3
 BYTE   W12
 BYTE   N32  Fn1  v120
 BYTE   N32  Cn2  v100
 BYTE   W36
 BYTE   N02  Fn1  v120
 BYTE   N02  Cn2  v100
 BYTE   W06
 BYTE   Fn1  v120
 BYTE   N02  Cn2  v100
 BYTE   W06
 BYTE   PEND 
// 025   ----------------------------------------
Label_3_01336BEE:
 BYTE   N16  Cn3  v100
 BYTE   W18
 BYTE   Gs2
 BYTE   W18
 BYTE   N11  Fn2
 BYTE   W12
 BYTE   N32  Gn1  v120
 BYTE   N32  Dn2  v100
 BYTE   W36
 BYTE   N02  Gn1  v120
 BYTE   N02  Dn2  v100
 BYTE   W06
 BYTE   Gn1  v120
 BYTE   N02  Dn2  v100
 BYTE   W06
 BYTE   PEND 
// 026   ----------------------------------------
Label_3_01336C0C:
 BYTE   N16  Dn3  v100
 BYTE   W18
 BYTE   As2
 BYTE   W18
 BYTE   N11  Gn2
 BYTE   W12
 BYTE   N92  Cn2  v112
 BYTE   W12
 BYTE   N68  Cn3  v092
 BYTE   W12
 BYTE   N32  Ds3
 BYTE   W12
 BYTE   N56  Gn3  v112
 BYTE   W12
 BYTE   PEND 
// 027   ----------------------------------------
 BYTE   PATT
  POIN2 Label_3_01336BBA
// 028   ----------------------------------------
Label_3_01336C2A:
 BYTE   W12
 BYTE   N32  Ds3  v112
 BYTE   W24
 BYTE   N11  Cn3
 BYTE   W12
 BYTE   N32  Gs1  v120
 BYTE   N32  Ds2  v100
 BYTE   W36
 BYTE   N02  Gs1  v120
 BYTE   N02  Ds2  v100
 BYTE   W06
 BYTE   Gs1  v120
 BYTE   N02  Ds2  v100
 BYTE   W06
 BYTE   PEND 
// 029   ----------------------------------------
 BYTE   PATT
  POIN2 Label_3_01336B83
// 030   ----------------------------------------
 BYTE   PATT
  POIN2 Label_3_01336BA1
// 031   ----------------------------------------
 BYTE   PATT
  POIN2 Label_3_01336BBA
// 032   ----------------------------------------
 BYTE   PATT
  POIN2 Label_3_01336BD1
// 033   ----------------------------------------
 BYTE   PATT
  POIN2 Label_3_01336BEE
// 034   ----------------------------------------
Label_3_01336C60:
 BYTE   N16  Dn3  v100
 BYTE   W18
 BYTE   As2
 BYTE   W18
 BYTE   N11  Gn2
 BYTE   W12
 BYTE   N32  Gs1  v120
 BYTE   N32  Ds2  v100
 BYTE   W36
 BYTE   N02  Gs1  v120
 BYTE   N02  Ds2  v100
 BYTE   W06
 BYTE   Gs1  v120
 BYTE   N02  Ds2  v100
 BYTE   W06
 BYTE   PEND 
// 035   ----------------------------------------
Label_3_01336C7E:
 BYTE   N16  Gs3  v100
 BYTE   W18
 BYTE   Ds3
 BYTE   W18
 BYTE   N11  Cn3
 BYTE   W12
 BYTE   N17  Gn1
 BYTE   N17  Dn2  v080
 BYTE   W18
 BYTE   Gn1  v100
 BYTE   N17  Dn2  v080
 BYTE   W18
 BYTE   N11  Gn1  v100
 BYTE   N11  Dn2  v080
 BYTE   W12
 BYTE   PEND 
// 036   ----------------------------------------
 BYTE   N17  Gn1  v100
 BYTE   N17  Dn2  v080
 BYTE   W18
 BYTE   Gn1  v100
 BYTE   N17  Dn2  v080
 BYTE   W18
 BYTE   N11  Gn1  v100
 BYTE   N11  Dn2  v080
 BYTE   W60
// 037   ----------------------------------------
 BYTE   W96
// 038   ----------------------------------------
 BYTE   W96
// 039   ----------------------------------------
 BYTE   W96
// 040   ----------------------------------------
 BYTE   W96
// 041   ----------------------------------------
 BYTE   W96
// 042   ----------------------------------------
 BYTE   W96
// 043   ----------------------------------------
 BYTE   W96
// 044   ----------------------------------------
 BYTE   W96
// 045   ----------------------------------------
 BYTE   W96
// 046   ----------------------------------------
 BYTE   W96
// 047   ----------------------------------------
 BYTE   W96
// 048   ----------------------------------------
 BYTE   W96
// 049   ----------------------------------------
 BYTE   W96
// 050   ----------------------------------------
 BYTE   W96
// 051   ----------------------------------------
 BYTE   W96
// 052   ----------------------------------------
 BYTE   W96
// 053   ----------------------------------------
 BYTE   W96
// 054   ----------------------------------------
 BYTE   W96
// 055   ----------------------------------------
 BYTE   W96
// 056   ----------------------------------------
 BYTE   PATT
  POIN2 Label_3_01336B6D
// 057   ----------------------------------------
 BYTE   PATT
  POIN2 Label_3_01336B83
// 058   ----------------------------------------
 BYTE   PATT
  POIN2 Label_3_01336BA1
// 059   ----------------------------------------
 BYTE   PATT
  POIN2 Label_3_01336BBA
// 060   ----------------------------------------
 BYTE   PATT
  POIN2 Label_3_01336BD1
// 061   ----------------------------------------
 BYTE   PATT
  POIN2 Label_3_01336BEE
// 062   ----------------------------------------
 BYTE   PATT
  POIN2 Label_3_01336C0C
// 063   ----------------------------------------
 BYTE   PATT
  POIN2 Label_3_01336BBA
// 064   ----------------------------------------
 BYTE   PATT
  POIN2 Label_3_01336C2A
// 065   ----------------------------------------
 BYTE   PATT
  POIN2 Label_3_01336B83
// 066   ----------------------------------------
 BYTE   PATT
  POIN2 Label_3_01336BA1
// 067   ----------------------------------------
 BYTE   PATT
  POIN2 Label_3_01336BBA
// 068   ----------------------------------------
 BYTE   PATT
  POIN2 Label_3_01336BD1
// 069   ----------------------------------------
 BYTE   PATT
  POIN2 Label_3_01336BEE
// 070   ----------------------------------------
 BYTE   PATT
  POIN2 Label_3_01336C60
// 071   ----------------------------------------
 BYTE   PATT
  POIN2 Label_3_01336C7E
// 072   ----------------------------------------
 BYTE   N17  Gn1  v100
 BYTE   N17  Dn2  v080
 BYTE   W18
 BYTE   Gn1  v100
 BYTE   N17  Dn2  v080
 BYTE   W18
 BYTE   N11  Gn1  v100
 BYTE   N11  Dn2  v080
 BYTE   W12
 BYTE   N17  Gn1  v100
 BYTE   N17  Dn2  v080
 BYTE   W18
 BYTE   Gn1  v100
 BYTE   N17  Dn2  v080
 BYTE   W18
 BYTE   N11  Gn1  v100
 BYTE   N11  Dn2  v080
 BYTE   W12
// 073   ----------------------------------------
 BYTE   N17  Gn1  v100
 BYTE   N17  Dn2  v080
 BYTE   W18
 BYTE   Gn1  v100
 BYTE   N17  Dn2  v080
 BYTE   W18
 BYTE   N11  Gn1  v100
 BYTE   N11  Dn2  v080
 BYTE   W12
 BYTE   TIE  Cn2  v100
 BYTE   TIE  Gn2  v080
 BYTE   W48
// 074   ----------------------------------------
 BYTE   W96
// 075   ----------------------------------------
 BYTE   W44
 BYTE   W02
 BYTE   EOT
 BYTE   Cn2  v055
 BYTE   W02
 BYTE   GoTo
  POIN2 Label_3_01336B3E
// 076   ----------------------------------------
 BYTE   VOL   0*Noltia_mvl/mxv
 BYTE   FINE

//**************** Track 5 (Midi-Chn.4) ****************//

Noltia_005:
// 000   ----------------------------------------
 BYTE   KEYSH   Noltia_key+0
Label_4_0133651A:
 BYTE   VOICE   4
 BYTE   PAN   c_v+30
 BYTE   VOL   20*Noltia_mvl/mxv
 BYTE   BEND   c_v+0
 BYTE   W44
 BYTE   W02
 BYTE   VOICE   61
 BYTE   W01
 BYTE   VOL   22*Noltia_mvl/mxv
 BYTE   PAN   c_v-30
 BYTE   W01
 BYTE   N23  Cn3  v112
 BYTE   W24
 BYTE   N05
 BYTE   W06
 BYTE   Ds3
 BYTE   W06
 BYTE   Gn3
 BYTE   W06
 BYTE   As3
 BYTE   W06
// 001   ----------------------------------------
Label_4_01336538:
 BYTE   N68  Dn4  v112
 BYTE   W72
 BYTE   N23  Gn4
 BYTE   W24
 BYTE   PEND 
// 002   ----------------------------------------
Label_4_01336540:
 BYTE   N11  Fn4  v112
 BYTE   W12
 BYTE   N32  Cn4
 BYTE   W36
 BYTE   N68  Dn4
 BYTE   W48
 BYTE   PEND 
// 003   ----------------------------------------
Label_4_0133654B:
 BYTE   W24
 BYTE   N05  Ds4  v112
 BYTE   W06
 BYTE   Dn4
 BYTE   W06
 BYTE   Ds4
 BYTE   W06
 BYTE   Fn4
 BYTE   W06
 BYTE   N11  Dn4
 BYTE   W12
 BYTE   N05  Gn3
 BYTE   W06
 BYTE   N17  Dn4
 BYTE   W18
 BYTE   N05  Gn4
 BYTE   W06
 BYTE   Fn4
 BYTE   W06
 BYTE   PEND 
// 004   ----------------------------------------
Label_4_01336565:
 BYTE   N44  Gn4  v112
 BYTE   W48
 BYTE   Dn4
 BYTE   W48
 BYTE   PEND 
// 005   ----------------------------------------
Label_4_0133656C:
 BYTE   N44  Cn4  v112
 BYTE   W48
 BYTE   N17  Ds4
 BYTE   W18
 BYTE   Fn4
 BYTE   W18
 BYTE   N11  Gn4
 BYTE   W12
 BYTE   PEND 
// 006   ----------------------------------------
Label_4_01336579:
 BYTE   N17  Fn4  v112
 BYTE   W18
 BYTE   Ds4
 BYTE   W18
 BYTE   N11  As3
 BYTE   W12
 BYTE   N44  Cn4
 BYTE   W48
 BYTE   PEND 
// 007   ----------------------------------------
Label_4_01336586:
 BYTE   N05  Gn4  v112
 BYTE   W06
 BYTE   Fn4
 BYTE   W06
 BYTE   N80  Gn4
 BYTE   W84
 BYTE   PEND 
// 008   ----------------------------------------
Label_4_01336590:
 BYTE   N05  Gs3  v112
 BYTE   W06
 BYTE   As3
 BYTE   W06
 BYTE   Cn4
 BYTE   W06
 BYTE   Dn4
 BYTE   W06
 BYTE   Ds4
 BYTE   W06
 BYTE   Dn4
 BYTE   W06
 BYTE   Cn4
 BYTE   W06
 BYTE   As3
 BYTE   W06
 BYTE   N44  Cn4
 BYTE   W48
 BYTE   PEND 
// 009   ----------------------------------------
Label_4_013365A6:
 BYTE   N05  Gs3  v112
 BYTE   W06
 BYTE   As3
 BYTE   W06
 BYTE   Cn4
 BYTE   W06
 BYTE   Dn4
 BYTE   W06
 BYTE   N23  Ds4
 BYTE   W24
 BYTE   N05  Cn4
 BYTE   W06
 BYTE   Dn4
 BYTE   W06
 BYTE   Ds4
 BYTE   W06
 BYTE   Fn4
 BYTE   W06
 BYTE   N56  Gn4
 BYTE   W24
 BYTE   PEND 
// 010   ----------------------------------------
Label_4_013365C0:
 BYTE   W36
 BYTE   N05  Fn4  v112
 BYTE   W06
 BYTE   Ds4
 BYTE   W06
 BYTE   N17  Fn4
 BYTE   W18
 BYTE   N52  Gn4
 BYTE   W30
 BYTE   PEND 
// 011   ----------------------------------------
Label_4_013365CE:
 BYTE   W24
 BYTE   N17  Fn3  v112
 BYTE   W18
 BYTE   TIE  Gn3
 BYTE   W54
 BYTE   PEND 
// 012   ----------------------------------------
 BYTE   W44
 BYTE   W01
 BYTE   EOT
 BYTE   W01
 BYTE   VOICE   49
 BYTE   PAN   c_v-20
 BYTE   W01
 BYTE   VOL   20*Noltia_mvl/mxv
 BYTE   W01
 BYTE   N92  Cn3  v100
 BYTE   N92  Ds3
 BYTE   N92  Gn3
 BYTE   N92  Cn4  v112
 BYTE   W48
// 013   ----------------------------------------
Label_4_013365EE:
 BYTE   W48
 BYTE   N92  Cn3  v100
 BYTE   N92  Ds3
 BYTE   N92  Gs3
 BYTE   N92  As3  v112
 BYTE   W48
 BYTE   PEND 
// 014   ----------------------------------------
Label_4_013365FB:
 BYTE   W48
 BYTE   N80  Dn3  v100
 BYTE   N80  Fn3
 BYTE   N80  As3  v112
 BYTE   W48
 BYTE   PEND 
// 015   ----------------------------------------
Label_4_01336606:
 BYTE   W36
 BYTE   TIE  Dn3  v100
 BYTE   TIE  Fn3
 BYTE   TIE  Gn3
 BYTE   TIE  Bn3  v112
 BYTE   W60
 BYTE   PEND 
// 016   ----------------------------------------
 BYTE   W44
 BYTE   W03
 BYTE   EOT
 BYTE   Dn3  v065
 BYTE   Gn3  v071
 BYTE   W01
 BYTE   N92  Cn3  v100
 BYTE   N92  Ds3
 BYTE   N92  Gn3
 BYTE   N92  Cn4  v112
 BYTE   W48
// 017   ----------------------------------------
 BYTE   PATT
  POIN2 Label_4_013365EE
// 018   ----------------------------------------
Label_4_0133662B:
 BYTE   W48
 BYTE   N92  Dn3  v100
 BYTE   N92  Fn3
 BYTE   N92  As3  v112
 BYTE   W48
 BYTE   PEND 
// 019   ----------------------------------------
Label_4_01336636:
 BYTE   W48
 BYTE   N92  Ds3  v100
 BYTE   N92  Gn3
 BYTE   N92  Cn4  v112
 BYTE   W48
 BYTE   PEND 
// 020   ----------------------------------------
 BYTE   W96
// 021   ----------------------------------------
 BYTE   W96
// 022   ----------------------------------------
 BYTE   W96
// 023   ----------------------------------------
 BYTE   W96
// 024   ----------------------------------------
 BYTE   W96
// 025   ----------------------------------------
 BYTE   W96
// 026   ----------------------------------------
 BYTE   W96
// 027   ----------------------------------------
 BYTE   W96
// 028   ----------------------------------------
 BYTE   W96
// 029   ----------------------------------------
 BYTE   W96
// 030   ----------------------------------------
 BYTE   W96
// 031   ----------------------------------------
 BYTE   W96
// 032   ----------------------------------------
 BYTE   W96
// 033   ----------------------------------------
 BYTE   W96
// 034   ----------------------------------------
 BYTE   W96
// 035   ----------------------------------------
 BYTE   W96
// 036   ----------------------------------------
 BYTE   W44
 BYTE   W02
 BYTE   VOICE   61
 BYTE   VOL   22*Noltia_mvl/mxv
 BYTE   W01
 BYTE   PAN   c_v-30
 BYTE   W01
 BYTE   N23  Cn3
 BYTE   W24
 BYTE   N05
 BYTE   W06
 BYTE   Ds3
 BYTE   W06
 BYTE   Gn3
 BYTE   W06
 BYTE   As3
 BYTE   W06
// 037   ----------------------------------------
 BYTE   PATT
  POIN2 Label_4_01336538
// 038   ----------------------------------------
 BYTE   PATT
  POIN2 Label_4_01336540
// 039   ----------------------------------------
 BYTE   PATT
  POIN2 Label_4_0133654B
// 040   ----------------------------------------
 BYTE   PATT
  POIN2 Label_4_01336565
// 041   ----------------------------------------
 BYTE   PATT
  POIN2 Label_4_0133656C
// 042   ----------------------------------------
 BYTE   PATT
  POIN2 Label_4_01336579
// 043   ----------------------------------------
 BYTE   PATT
  POIN2 Label_4_01336586
// 044   ----------------------------------------
 BYTE   PATT
  POIN2 Label_4_01336590
// 045   ----------------------------------------
 BYTE   PATT
  POIN2 Label_4_013365A6
// 046   ----------------------------------------
 BYTE   PATT
  POIN2 Label_4_013365C0
// 047   ----------------------------------------
 BYTE   PATT
  POIN2 Label_4_013365CE
// 048   ----------------------------------------
 BYTE   W44
 BYTE   W01
 BYTE   EOT
 BYTE   Gn3
 BYTE   W01
 BYTE   VOICE   49
 BYTE   W01
 BYTE   PAN   c_v-30
 BYTE   VOL   20*Noltia_mvl/mxv
 BYTE   W01
 BYTE   N92  Cn3  v100
 BYTE   N92  Ds3
 BYTE   N92  Gn3
 BYTE   N92  Cn4  v112
 BYTE   W48
// 049   ----------------------------------------
 BYTE   PATT
  POIN2 Label_4_013365EE
// 050   ----------------------------------------
 BYTE   PATT
  POIN2 Label_4_013365FB
// 051   ----------------------------------------
 BYTE   PATT
  POIN2 Label_4_01336606
// 052   ----------------------------------------
 BYTE   W44
 BYTE   W03
 BYTE   EOT
 BYTE   Dn3  v065
 BYTE   Gn3  v071
 BYTE   W01
 BYTE   N92  Cn3  v100
 BYTE   N92  Ds3
 BYTE   N92  Gn3
 BYTE   N92  Cn4  v112
 BYTE   W48
// 053   ----------------------------------------
 BYTE   PATT
  POIN2 Label_4_013365EE
// 054   ----------------------------------------
 BYTE   PATT
  POIN2 Label_4_0133662B
// 055   ----------------------------------------
 BYTE   PATT
  POIN2 Label_4_01336636
// 056   ----------------------------------------
 BYTE   W96
// 057   ----------------------------------------
 BYTE   W96
// 058   ----------------------------------------
 BYTE   W96
// 059   ----------------------------------------
 BYTE   W96
// 060   ----------------------------------------
 BYTE   W96
// 061   ----------------------------------------
 BYTE   W96
// 062   ----------------------------------------
 BYTE   W96
// 063   ----------------------------------------
 BYTE   W96
// 064   ----------------------------------------
 BYTE   W96
// 065   ----------------------------------------
 BYTE   W96
// 066   ----------------------------------------
 BYTE   W96
// 067   ----------------------------------------
 BYTE   W96
// 068   ----------------------------------------
 BYTE   W96
// 069   ----------------------------------------
 BYTE   W96
// 070   ----------------------------------------
 BYTE   W96
// 071   ----------------------------------------
 BYTE   W96
// 072   ----------------------------------------
 BYTE   W96
// 073   ----------------------------------------
 BYTE   W96
// 074   ----------------------------------------
 BYTE   W96
// 075   ----------------------------------------
 BYTE   W48
 BYTE   GoTo
  POIN2 Label_4_0133651A
// 076   ----------------------------------------
 BYTE   VOL   0*Noltia_mvl/mxv
 BYTE   FINE

//**************** Track 6 (Midi-Chn.5) ****************//

Noltia_006:
// 000   ----------------------------------------
 BYTE   KEYSH   Noltia_key+0
Label_5_0139D6C6:
 BYTE   VOICE   4
 BYTE   PAN   c_v-30
 BYTE   VOL   17*Noltia_mvl/mxv
 BYTE   MOD 0
 BYTE   CnM2
 BYTE   N22  Dn2  v020
 BYTE   N22  Gn2
 BYTE   N22  Bn2  v032
 BYTE   W44
 BYTE   W02
 BYTE   W24
 BYTE   W02
 BYTE   VOICE   100
 BYTE   W24
// 001   ----------------------------------------
Label_5_0139D6DD:
 BYTE   N23  Cn3  v112
 BYTE   W24
 BYTE   N05
 BYTE   W06
 BYTE   Ds3
 BYTE   W06
 BYTE   Gn3
 BYTE   W06
 BYTE   As3
 BYTE   W06
 BYTE   N44  Dn4
 BYTE   W48
 BYTE   PEND 
// 002   ----------------------------------------
Label_5_0139D6ED:
 BYTE   N11  Cn4  v112
 BYTE   W12
 BYTE   N32  Fn3
 BYTE   W36
 BYTE   N68  Gn3
 BYTE   W48
 BYTE   PEND 
// 003   ----------------------------------------
Label_5_0139D6F8:
 BYTE   W24
 BYTE   N05  Gs3  v100
 BYTE   W06
 BYTE   Gn3
 BYTE   W06
 BYTE   Gs3
 BYTE   W06
 BYTE   As3
 BYTE   W06
 BYTE   N11  Gn3
 BYTE   W12
 BYTE   N05  Dn3
 BYTE   W06
 BYTE   N40  Gn3
 BYTE   W30
 BYTE   PEND 
// 004   ----------------------------------------
Label_5_0139D70D:
 BYTE   W12
 BYTE   N05  Dn4  v100
 BYTE   W06
 BYTE   Cn4
 BYTE   W06
 BYTE   N23  Dn4
 BYTE   W24
 BYTE   N44  Ds4
 BYTE   W48
 BYTE   PEND 
// 005   ----------------------------------------
Label_5_0139D71B:
 BYTE   N44  Fn4  v100
 BYTE   W48
 BYTE   Gn4
 BYTE   W48
 BYTE   PEND 
// 006   ----------------------------------------
Label_5_0139D722:
 BYTE   N44  As4  v100
 BYTE   W48
 BYTE   N68  Ds5
 BYTE   W48
 BYTE   PEND 
// 007   ----------------------------------------
Label_5_0139D72A:
 BYTE   W24
 BYTE   N05  Cn5  v100
 BYTE   W06
 BYTE   As4
 BYTE   W06
 BYTE   N56  Cn5
 BYTE   W60
 BYTE   PEND 
// 008   ----------------------------------------
Label_5_0139D735:
 BYTE   N23  Cn4  v100
 BYTE   W24
 BYTE   Dn4
 BYTE   W24
 BYTE   N92  Ds4
 BYTE   W48
 BYTE   PEND 
// 009   ----------------------------------------
 BYTE   W48
 BYTE   N44  Fn4
 BYTE   W48
// 010   ----------------------------------------
Label_5_0139D743:
 BYTE   N44  Gn4  v100
 BYTE   W48
 BYTE   N17  Gs4
 BYTE   W18
 BYTE   N52  As4
 BYTE   W30
 BYTE   PEND 
// 011   ----------------------------------------
Label_5_0139D74E:
 BYTE   W24
 BYTE   N17  Gs3  v100
 BYTE   W18
 BYTE   TIE  As3
 BYTE   W54
 BYTE   PEND 
// 012   ----------------------------------------
 BYTE   W44
 BYTE   W02
 BYTE   EOT
 BYTE   PAN   c_v+0
 BYTE   W02
 BYTE   N32  Cn4  v112
 BYTE   W36
 BYTE   N05  As3
 BYTE   W06
 BYTE   Cn4
 BYTE   W06
// 013   ----------------------------------------
Label_5_0139D766:
 BYTE   N44  Gn3  v112
 BYTE   W48
 BYTE   N32  Cn4
 BYTE   W36
 BYTE   N05  As3
 BYTE   W06
 BYTE   Cn4
 BYTE   W06
 BYTE   PEND 
// 014   ----------------------------------------
Label_5_0139D773:
 BYTE   N17  Ds4  v112
 BYTE   W18
 BYTE   Dn4
 BYTE   W18
 BYTE   N11  Cn4
 BYTE   W12
 BYTE   N32  Fn4
 BYTE   W36
 BYTE   N05  Ds4
 BYTE   W06
 BYTE   Fn4
 BYTE   W06
 BYTE   PEND 
// 015   ----------------------------------------
Label_5_0139D785:
 BYTE   N32  Dn4  v112
 BYTE   W36
 BYTE   N32
 BYTE   W36
 BYTE   N11  Ds4
 BYTE   W12
 BYTE   N23  Fn4
 BYTE   W12
 BYTE   PEND 
// 016   ----------------------------------------
Label_5_0139D792:
 BYTE   W12
 BYTE   N11  Gs4  v112
 BYTE   W12
 BYTE   Gn4
 BYTE   W12
 BYTE   Fn4
 BYTE   W12
 BYTE   N32  Cn4
 BYTE   W36
 BYTE   N05  As3
 BYTE   W06
 BYTE   Cn4
 BYTE   W06
 BYTE   PEND 
// 017   ----------------------------------------
 BYTE   PATT
  POIN2 Label_5_0139D766
// 018   ----------------------------------------
Label_5_0139D7A9:
 BYTE   N17  Ds4  v112
 BYTE   W18
 BYTE   Fn4
 BYTE   W18
 BYTE   N11  Gn4
 BYTE   W12
 BYTE   N44  Fn4
 BYTE   W48
 BYTE   PEND 
// 019   ----------------------------------------
Label_5_0139D7B6:
 BYTE   N44  As4  v112
 BYTE   W48
 BYTE   N92  Cn5
 BYTE   W48
 BYTE   PEND 
// 020   ----------------------------------------
Label_5_0139D7BE:
 BYTE   W48
 BYTE   N68  Cn4  v088
 BYTE   W01
 BYTE   BEND   c_v+0
 BYTE   W05
 BYTE   MOD 0
 BYTE   GsM1
 BYTE   W06
 BYTE   En1
 BYTE   W36
 BYTE   PEND 
// 021   ----------------------------------------
Label_5_0139D7CC:
 BYTE   W23
 BYTE   MOD 0
 BYTE   CnM2
 BYTE   W01
 BYTE   N05  Cn4  v088
 BYTE   W06
 BYTE   Dn4
 BYTE   W06
 BYTE   Ds4
 BYTE   W06
 BYTE   Fn4
 BYTE   W06
 BYTE   N68  Dn4
 BYTE   W06
 BYTE   MOD 0
 BYTE   GsM1
 BYTE   W06
 BYTE   En1
 BYTE   W36
 BYTE   PEND 
// 022   ----------------------------------------
Label_5_0139D7E3:
 BYTE   W23
 BYTE   MOD 0
 BYTE   CnM2
 BYTE   W01
 BYTE   N05  Gn4  v088
 BYTE   W06
 BYTE   Fn4
 BYTE   W06
 BYTE   Ds4
 BYTE   W06
 BYTE   Dn4
 BYTE   W06
 BYTE   N68  Ds4
 BYTE   W06
 BYTE   MOD 0
 BYTE   GsM1
 BYTE   W06
 BYTE   En1
 BYTE   W36
 BYTE   PEND 
// 023   ----------------------------------------
Label_5_0139D7FA:
 BYTE   W23
 BYTE   MOD 0
 BYTE   CnM2
 BYTE   W01
 BYTE   N05  Gn3  v088
 BYTE   W06
 BYTE   Fn3
 BYTE   W06
 BYTE   Ds3
 BYTE   W06
 BYTE   Dn3
 BYTE   W06
 BYTE   N92  Ds3
 BYTE   W06
 BYTE   MOD 0
 BYTE   GsM1
 BYTE   W06
 BYTE   En1
 BYTE   W36
 BYTE   PEND 
// 024   ----------------------------------------
Label_5_0139D811:
 BYTE   W44
 BYTE   W03
 BYTE   MOD 0
 BYTE   CnM2
 BYTE   W01
 BYTE   N68  Gs3  v088
 BYTE   W06
 BYTE   MOD 0
 BYTE   GsM1
 BYTE   W06
 BYTE   En1
 BYTE   W36
 BYTE   PEND 
// 025   ----------------------------------------
Label_5_0139D820:
 BYTE   W24
 BYTE   N05  Gs3  v088
 BYTE   W06
 BYTE   N05
 BYTE   W06
 BYTE   As3
 BYTE   W06
 BYTE   Cn4
 BYTE   W05
 BYTE   MOD 0
 BYTE   CnM2
 BYTE   W01
 BYTE   GsM1
 BYTE   N44  Dn4
 BYTE   W06
 BYTE   MOD 0
 BYTE   En1
 BYTE   W40
 BYTE   W01
 BYTE   CnM2
 BYTE   W01
 BYTE   PEND 
// 026   ----------------------------------------
Label_5_0139D839:
 BYTE   N23  Ds4  v088
 BYTE   W24
 BYTE   Fn4
 BYTE   W24
 BYTE   N17
 BYTE   W18
 BYTE   MOD 0
 BYTE   GsM1
 BYTE   N64  Ds4
 BYTE   W06
 BYTE   MOD 0
 BYTE   En1
 BYTE   W24
 BYTE   PEND 
// 027   ----------------------------------------
Label_5_0139D84A:
 BYTE   W32
 BYTE   W03
 BYTE   MOD 0
 BYTE   CnM2
 BYTE   W01
 BYTE   N05  Dn4  v088
 BYTE   W06
 BYTE   Ds4
 BYTE   W06
 BYTE   Fn4
 BYTE   W06
 BYTE   Dn4
 BYTE   W06
 BYTE   Ds4
 BYTE   W06
 BYTE   Fn4
 BYTE   W06
 BYTE   Dn4  v076
 BYTE   W06
 BYTE   Ds4
 BYTE   W06
 BYTE   Fn4
 BYTE   W06
 BYTE   Dn4  v056
 BYTE   W06
 BYTE   PEND 
// 028   ----------------------------------------
Label_5_0139D868:
 BYTE   N05  Ds4  v056
 BYTE   W06
 BYTE   Fn4
 BYTE   W06
 BYTE   Dn4  v036
 BYTE   W06
 BYTE   Ds4
 BYTE   W06
 BYTE   Fn4
 BYTE   W24
 BYTE   N68  Cn4  v088
 BYTE   W01
 BYTE   BEND   c_v+0
 BYTE   W05
 BYTE   MOD 0
 BYTE   GsM1
 BYTE   W06
 BYTE   En1
 BYTE   W36
 BYTE   PEND 
// 029   ----------------------------------------
 BYTE   PATT
  POIN2 Label_5_0139D7CC
// 030   ----------------------------------------
 BYTE   PATT
  POIN2 Label_5_0139D7E3
// 031   ----------------------------------------
 BYTE   PATT
  POIN2 Label_5_0139D7FA
// 032   ----------------------------------------
 BYTE   PATT
  POIN2 Label_5_0139D811
// 033   ----------------------------------------
 BYTE   PATT
  POIN2 Label_5_0139D820
// 034   ----------------------------------------
Label_5_0139D89B:
 BYTE   N23  Ds4  v088
 BYTE   W24
 BYTE   Fn4
 BYTE   W24
 BYTE   N05  Ds4
 BYTE   W06
 BYTE   Dn4
 BYTE   W06
 BYTE   N80  Cn4
 BYTE   W06
 BYTE   MOD 0
 BYTE   GsM1
 BYTE   W06
 BYTE   En1
 BYTE   W24
 BYTE   PEND 
// 035   ----------------------------------------
 BYTE   W44
 BYTE   W02
 BYTE   CnM2
 BYTE   W02
 BYTE   N17  Bn3
 BYTE   W18
 BYTE   Cn4
 BYTE   W18
 BYTE   N11  Dn4
 BYTE   W12
// 036   ----------------------------------------
 BYTE   N17
 BYTE   W18
 BYTE   Ds4
 BYTE   W18
 BYTE   N10  Fn4
 BYTE   W36
 BYTE   VOICE   100
 BYTE   W24
// 037   ----------------------------------------
 BYTE   PATT
  POIN2 Label_5_0139D6DD
// 038   ----------------------------------------
 BYTE   PATT
  POIN2 Label_5_0139D6ED
// 039   ----------------------------------------
 BYTE   PATT
  POIN2 Label_5_0139D6F8
// 040   ----------------------------------------
 BYTE   PATT
  POIN2 Label_5_0139D70D
// 041   ----------------------------------------
 BYTE   PATT
  POIN2 Label_5_0139D71B
// 042   ----------------------------------------
 BYTE   PATT
  POIN2 Label_5_0139D722
// 043   ----------------------------------------
 BYTE   PATT
  POIN2 Label_5_0139D72A
// 044   ----------------------------------------
 BYTE   PATT
  POIN2 Label_5_0139D735
// 045   ----------------------------------------
 BYTE   W48
 BYTE   N44  Fn4  v100
 BYTE   W48
// 046   ----------------------------------------
 BYTE   PATT
  POIN2 Label_5_0139D743
// 047   ----------------------------------------
 BYTE   PATT
  POIN2 Label_5_0139D74E
// 048   ----------------------------------------
 BYTE   W44
 BYTE   W02
 BYTE   EOT
 BYTE   As3
 BYTE   PAN   c_v+0
 BYTE   W02
 BYTE   N32  Cn4  v112
 BYTE   W36
 BYTE   N05  As3
 BYTE   W06
 BYTE   Cn4
 BYTE   W06
// 049   ----------------------------------------
 BYTE   PATT
  POIN2 Label_5_0139D766
// 050   ----------------------------------------
 BYTE   PATT
  POIN2 Label_5_0139D773
// 051   ----------------------------------------
 BYTE   PATT
  POIN2 Label_5_0139D785
// 052   ----------------------------------------
 BYTE   PATT
  POIN2 Label_5_0139D792
// 053   ----------------------------------------
 BYTE   PATT
  POIN2 Label_5_0139D766
// 054   ----------------------------------------
 BYTE   PATT
  POIN2 Label_5_0139D7A9
// 055   ----------------------------------------
 BYTE   PATT
  POIN2 Label_5_0139D7B6
// 056   ----------------------------------------
 BYTE   PATT
  POIN2 Label_5_0139D7BE
// 057   ----------------------------------------
 BYTE   PATT
  POIN2 Label_5_0139D7CC
// 058   ----------------------------------------
 BYTE   PATT
  POIN2 Label_5_0139D7E3
// 059   ----------------------------------------
 BYTE   PATT
  POIN2 Label_5_0139D7FA
// 060   ----------------------------------------
 BYTE   PATT
  POIN2 Label_5_0139D811
// 061   ----------------------------------------
 BYTE   PATT
  POIN2 Label_5_0139D820
// 062   ----------------------------------------
 BYTE   PATT
  POIN2 Label_5_0139D839
// 063   ----------------------------------------
 BYTE   PATT
  POIN2 Label_5_0139D84A
// 064   ----------------------------------------
 BYTE   PATT
  POIN2 Label_5_0139D868
// 065   ----------------------------------------
 BYTE   PATT
  POIN2 Label_5_0139D7CC
// 066   ----------------------------------------
 BYTE   PATT
  POIN2 Label_5_0139D7E3
// 067   ----------------------------------------
 BYTE   PATT
  POIN2 Label_5_0139D7FA
// 068   ----------------------------------------
 BYTE   PATT
  POIN2 Label_5_0139D811
// 069   ----------------------------------------
 BYTE   PATT
  POIN2 Label_5_0139D820
// 070   ----------------------------------------
 BYTE   PATT
  POIN2 Label_5_0139D89B
// 071   ----------------------------------------
 BYTE   W44
 BYTE   W02
 BYTE   MOD 0
 BYTE   CnM2
 BYTE   W01
 BYTE   PAN   c_v-34
 BYTE   W01
 BYTE   N04  Bn3  v100
 BYTE   W06
 BYTE   Gn3
 BYTE   W06
 BYTE   Bn3
 BYTE   W06
 BYTE   Dn4
 BYTE   W06
 BYTE   Bn3
 BYTE   W06
 BYTE   Dn4
 BYTE   W06
 BYTE   Fn4
 BYTE   W06
 BYTE   Gn4
 BYTE   W06
// 072   ----------------------------------------
 BYTE   Dn4
 BYTE   W06
 BYTE   Fn4
 BYTE   W06
 BYTE   Gn4
 BYTE   W06
 BYTE   Bn4
 BYTE   W06
 BYTE   Gn4
 BYTE   W06
 BYTE   Bn4
 BYTE   W06
 BYTE   Dn5
 BYTE   W06
 BYTE   Fn5
 BYTE   W06
 BYTE   PAN   c_v+46
 BYTE   N04  Bn3
 BYTE   W06
 BYTE   N04
 BYTE   W06
 BYTE   Gn3
 BYTE   W06
 BYTE   Bn3
 BYTE   W06
 BYTE   Dn4
 BYTE   W06
 BYTE   Bn3
 BYTE   W06
 BYTE   Dn4
 BYTE   W06
 BYTE   Fn4
 BYTE   W06
// 073   ----------------------------------------
 BYTE   Gn4
 BYTE   W06
 BYTE   Dn4
 BYTE   W06
 BYTE   Fn4
 BYTE   W06
 BYTE   Gn4
 BYTE   W06
 BYTE   Bn4
 BYTE   W06
 BYTE   Gn4
 BYTE   W06
 BYTE   Bn4
 BYTE   W06
 BYTE   Dn5
 BYTE   W05
 BYTE   PAN   c_v+0
 BYTE   W01
 BYTE   TIE  Gn3  v124
 BYTE   TIE  Cn4
 BYTE   TIE  Dn4
 BYTE   W48
// 074   ----------------------------------------
 BYTE   W96
// 075   ----------------------------------------
 BYTE   W44
 BYTE   W02
 BYTE   EOT
 BYTE   Gn3  v072
 BYTE   Dn4
 BYTE   W02
 BYTE   GoTo
  POIN2 Label_5_0139D6C6
// 076   ----------------------------------------
 BYTE   VOL   0*Noltia_mvl/mxv
 BYTE   FINE

//**************** Track 7 (Midi-Chn.6) ****************//

Noltia_007:
// 000   ----------------------------------------
 BYTE   KEYSH   Noltia_key+0
Label_6_01335E32:
 BYTE   VOICE   48
 BYTE   PAN   c_v+24
 BYTE   VOL   27*Noltia_mvl/mxv
 BYTE   W96
// 001   ----------------------------------------
 BYTE   N23  Cn3  v112
 BYTE   W24
 BYTE   N05
 BYTE   W06
 BYTE   Ds3
 BYTE   W06
 BYTE   Gn3
 BYTE   W06
 BYTE   As3
 BYTE   W06
 BYTE   N44  Dn4
 BYTE   W48
// 002   ----------------------------------------
 BYTE   N11  Cn4
 BYTE   W12
 BYTE   N32  Fn3
 BYTE   W36
 BYTE   N92  Gn3  v100
 BYTE   W48
// 003   ----------------------------------------
 BYTE   W48
 BYTE   N68  Gn2
 BYTE   W48
// 004   ----------------------------------------
Label_6_01335E56:
 BYTE   W24
 BYTE   N11  Gs2  v100
 BYTE   W12
 BYTE   As2
 BYTE   W12
 BYTE   N44  Ds3
 BYTE   W48
 BYTE   PEND 
// 005   ----------------------------------------
Label_6_01335E61:
 BYTE   N44  Fn3  v100
 BYTE   W48
 BYTE   Gn3
 BYTE   W48
 BYTE   PEND 
// 006   ----------------------------------------
Label_6_01335E68:
 BYTE   N44  As3  v100
 BYTE   W48
 BYTE   N68  Ds4
 BYTE   W48
 BYTE   PEND 
// 007   ----------------------------------------
Label_6_01335E70:
 BYTE   W24
 BYTE   N05  Cn4  v100
 BYTE   W06
 BYTE   As3
 BYTE   W06
 BYTE   N56  Cn4
 BYTE   W60
 BYTE   PEND 
// 008   ----------------------------------------
Label_6_01335E7B:
 BYTE   N23  Cn3  v100
 BYTE   W24
 BYTE   Dn3
 BYTE   W24
 BYTE   N92  Ds3
 BYTE   W48
 BYTE   PEND 
// 009   ----------------------------------------
 BYTE   W48
 BYTE   N44  Fn3
 BYTE   W48
// 010   ----------------------------------------
Label_6_01335E89:
 BYTE   N44  Gn3  v100
 BYTE   W48
 BYTE   N17  Gs3
 BYTE   W18
 BYTE   N52  As3
 BYTE   W30
 BYTE   PEND 
// 011   ----------------------------------------
Label_6_01335E94:
 BYTE   W24
 BYTE   N17  Gs2  v100
 BYTE   W18
 BYTE   TIE  As2
 BYTE   W54
 BYTE   PEND 
// 012   ----------------------------------------
 BYTE   W44
 BYTE   W02
 BYTE   EOT
 BYTE   PAN   c_v-20
 BYTE   W02
 BYTE   N92  Ds3  v080
 BYTE   N92  Gn3
 BYTE   N92  Cn4  v092
 BYTE   W48
// 013   ----------------------------------------
Label_6_01335EAC:
 BYTE   W48
 BYTE   N92  Ds3  v080
 BYTE   N92  Gs3
 BYTE   N92  As3  v092
 BYTE   W48
 BYTE   PEND 
// 014   ----------------------------------------
Label_6_01335EB7:
 BYTE   W48
 BYTE   N80  Dn3  v080
 BYTE   N80  Fn3
 BYTE   N80  As3  v092
 BYTE   W48
 BYTE   PEND 
// 015   ----------------------------------------
Label_6_01335EC2:
 BYTE   W36
 BYTE   TIE  Fn3  v080
 BYTE   TIE  Gn3
 BYTE   TIE  Bn3  v092
 BYTE   W60
 BYTE   PEND 
// 016   ----------------------------------------
 BYTE   W44
 BYTE   W03
 BYTE   EOT
 BYTE   Fn3  v067
 BYTE   Bn3
 BYTE   W01
 BYTE   N92  Ds3  v080
 BYTE   N92  Gn3
 BYTE   N92  Cn4  v092
 BYTE   W48
// 017   ----------------------------------------
 BYTE   PATT
  POIN2 Label_6_01335EAC
// 018   ----------------------------------------
Label_6_01335EE2:
 BYTE   W48
 BYTE   N92  Dn3  v080
 BYTE   N92  Fn3
 BYTE   N92  As3  v092
 BYTE   W48
 BYTE   PEND 
// 019   ----------------------------------------
Label_6_01335EED:
 BYTE   W48
 BYTE   N92  Gn3  v080
 BYTE   N92  Cn4  v092
 BYTE   W48
 BYTE   PEND 
// 020   ----------------------------------------
 BYTE   W96
// 021   ----------------------------------------
 BYTE   W96
// 022   ----------------------------------------
 BYTE   W96
// 023   ----------------------------------------
 BYTE   W96
// 024   ----------------------------------------
 BYTE   W96
// 025   ----------------------------------------
 BYTE   W96
// 026   ----------------------------------------
 BYTE   W96
// 027   ----------------------------------------
 BYTE   W96
// 028   ----------------------------------------
 BYTE   W96
// 029   ----------------------------------------
 BYTE   W96
// 030   ----------------------------------------
 BYTE   W96
// 031   ----------------------------------------
 BYTE   W96
// 032   ----------------------------------------
 BYTE   W96
// 033   ----------------------------------------
 BYTE   W96
// 034   ----------------------------------------
 BYTE   W96
// 035   ----------------------------------------
 BYTE   W96
// 036   ----------------------------------------
 BYTE   W44
 BYTE   W03
 BYTE   PAN   c_v+24
 BYTE   W01
 BYTE   N32  Cn3  v100
 BYTE   W36
 BYTE   N05  Ds3
 BYTE   W06
 BYTE   Gn3
 BYTE   W06
// 037   ----------------------------------------
 BYTE   N44  Cn4
 BYTE   W48
 BYTE   As3
 BYTE   W48
// 038   ----------------------------------------
 BYTE   N11  Fn3
 BYTE   W12
 BYTE   N32  As3
 BYTE   W36
 BYTE   N92  Gn3
 BYTE   W48
// 039   ----------------------------------------
 BYTE   W48
 BYTE   N68  Gn2
 BYTE   W48
// 040   ----------------------------------------
 BYTE   PATT
  POIN2 Label_6_01335E56
// 041   ----------------------------------------
 BYTE   PATT
  POIN2 Label_6_01335E61
// 042   ----------------------------------------
 BYTE   PATT
  POIN2 Label_6_01335E68
// 043   ----------------------------------------
 BYTE   PATT
  POIN2 Label_6_01335E70
// 044   ----------------------------------------
 BYTE   PATT
  POIN2 Label_6_01335E7B
// 045   ----------------------------------------
 BYTE   W48
 BYTE   N44  Fn3  v100
 BYTE   W48
// 046   ----------------------------------------
 BYTE   PATT
  POIN2 Label_6_01335E89
// 047   ----------------------------------------
 BYTE   PATT
  POIN2 Label_6_01335E94
// 048   ----------------------------------------
 BYTE   W44
 BYTE   W02
 BYTE   EOT
 BYTE   As2
 BYTE   PAN   c_v-20
 BYTE   W02
 BYTE   N92  Ds3  v080
 BYTE   N92  Gn3
 BYTE   N92  Cn4  v092
 BYTE   W48
// 049   ----------------------------------------
 BYTE   PATT
  POIN2 Label_6_01335EAC
// 050   ----------------------------------------
 BYTE   PATT
  POIN2 Label_6_01335EB7
// 051   ----------------------------------------
 BYTE   PATT
  POIN2 Label_6_01335EC2
// 052   ----------------------------------------
 BYTE   W44
 BYTE   W03
 BYTE   EOT
 BYTE   Fn3  v067
 BYTE   Bn3
 BYTE   W01
 BYTE   N92  Ds3  v080
 BYTE   N92  Gn3
 BYTE   N92  Cn4  v092
 BYTE   W48
// 053   ----------------------------------------
 BYTE   PATT
  POIN2 Label_6_01335EAC
// 054   ----------------------------------------
 BYTE   PATT
  POIN2 Label_6_01335EE2
// 055   ----------------------------------------
 BYTE   PATT
  POIN2 Label_6_01335EED
// 056   ----------------------------------------
 BYTE   W96
// 057   ----------------------------------------
 BYTE   W96
// 058   ----------------------------------------
 BYTE   W96
// 059   ----------------------------------------
 BYTE   W96
// 060   ----------------------------------------
 BYTE   W96
// 061   ----------------------------------------
 BYTE   W96
// 062   ----------------------------------------
 BYTE   W96
// 063   ----------------------------------------
 BYTE   W96
// 064   ----------------------------------------
 BYTE   W96
// 065   ----------------------------------------
 BYTE   W96
// 066   ----------------------------------------
 BYTE   W96
// 067   ----------------------------------------
 BYTE   W96
// 068   ----------------------------------------
 BYTE   W96
// 069   ----------------------------------------
 BYTE   W96
// 070   ----------------------------------------
 BYTE   W96
// 071   ----------------------------------------
 BYTE   W96
// 072   ----------------------------------------
 BYTE   W96
// 073   ----------------------------------------
 BYTE   W96
// 074   ----------------------------------------
 BYTE   W96
// 075   ----------------------------------------
 BYTE   W48
 BYTE   GoTo
  POIN2 Label_6_01335E32
// 076   ----------------------------------------
 BYTE   VOL   0*Noltia_mvl/mxv
 BYTE   FINE

//**************** Track 8 (Midi-Chn.7) ****************//

Noltia_008:
// 000   ----------------------------------------
 BYTE   KEYSH   Noltia_key+0
Label_7_0139D9E6:
 BYTE   VOICE   108
 BYTE   PAN   c_v+0
 BYTE   VOL   17*Noltia_mvl/mxv
 BYTE   W96
// 001   ----------------------------------------
 BYTE   W96
// 002   ----------------------------------------
 BYTE   W96
// 003   ----------------------------------------
 BYTE   W96
// 004   ----------------------------------------
Label_7_0139D9F0:
 BYTE   W48
 BYTE   PAN   c_v-64
 BYTE   N05  Cn3  v100
 BYTE   W06
 BYTE   PAN   c_v+63
 BYTE   N05
 BYTE   W06
 BYTE   PAN   c_v-54
 BYTE   N05  Gn3
 BYTE   W06
 BYTE   PAN   c_v+53
 BYTE   N05
 BYTE   W06
 BYTE   PAN   c_v-44
 BYTE   N05  Cn3
 BYTE   W06
 BYTE   PAN   c_v+43
 BYTE   N05
 BYTE   W06
 BYTE   PAN   c_v-34
 BYTE   N05  Cn4
 BYTE   W06
 BYTE   PAN   c_v+33
 BYTE   N05
 BYTE   W06
 BYTE   PEND 
// 005   ----------------------------------------
Label_7_0139DA17:
 BYTE   PAN   c_v-24
 BYTE   N05  Cn3  v100
 BYTE   W06
 BYTE   PAN   c_v+23
 BYTE   N05
 BYTE   W06
 BYTE   PAN   c_v-24
 BYTE   N05  Gn3
 BYTE   W06
 BYTE   PAN   c_v+13
 BYTE   N05
 BYTE   W06
 BYTE   PAN   c_v-14
 BYTE   N05  Cn3
 BYTE   W06
 BYTE   PAN   c_v+3
 BYTE   N05
 BYTE   W06
 BYTE   PAN   c_v-4
 BYTE   N05  Cn4
 BYTE   W06
 BYTE   PAN   c_v-7
 BYTE   N05
 BYTE   W06
 BYTE   PAN   c_v-4
 BYTE   N05  Cn3
 BYTE   W06
 BYTE   PAN   c_v+13
 BYTE   N05
 BYTE   W06
 BYTE   PAN   c_v-14
 BYTE   N05  Gn3
 BYTE   W06
 BYTE   PAN   c_v+23
 BYTE   N05
 BYTE   W06
 BYTE   PAN   c_v-24
 BYTE   N05  Cn3
 BYTE   W06
 BYTE   PAN   c_v+33
 BYTE   N05
 BYTE   W06
 BYTE   PAN   c_v-34
 BYTE   N05  Cn4
 BYTE   W06
 BYTE   PAN   c_v+43
 BYTE   N05
 BYTE   W06
 BYTE   PEND 
// 006   ----------------------------------------
Label_7_0139DA61:
 BYTE   PAN   c_v-44
 BYTE   N05  Cn3  v100
 BYTE   W06
 BYTE   PAN   c_v+53
 BYTE   N05
 BYTE   W06
 BYTE   PAN   c_v-54
 BYTE   N05  Gn3
 BYTE   W06
 BYTE   PAN   c_v+63
 BYTE   N05
 BYTE   W06
 BYTE   PAN   c_v-64
 BYTE   N05  Cn3
 BYTE   W06
 BYTE   PAN   c_v+63
 BYTE   N05
 BYTE   W06
 BYTE   PAN   c_v+26
 BYTE   N05  Cn4
 BYTE   W06
 BYTE   PAN   c_v-34
 BYTE   N05
 BYTE   W06
 BYTE   PAN   c_v-64
 BYTE   N05  Cn3
 BYTE   W06
 BYTE   PAN   c_v+63
 BYTE   N05
 BYTE   W06
 BYTE   PAN   c_v-54
 BYTE   N05  Gn3
 BYTE   W06
 BYTE   PAN   c_v+53
 BYTE   N05
 BYTE   W06
 BYTE   PAN   c_v-44
 BYTE   N05  Cn3
 BYTE   W06
 BYTE   PAN   c_v+43
 BYTE   N05
 BYTE   W06
 BYTE   PAN   c_v-34
 BYTE   N05  Cn4
 BYTE   W06
 BYTE   PAN   c_v+33
 BYTE   N05
 BYTE   W06
 BYTE   PEND 
// 007   ----------------------------------------
 BYTE   PATT
  POIN2 Label_7_0139DA17
// 008   ----------------------------------------
 BYTE   PATT
  POIN2 Label_7_0139DA61
// 009   ----------------------------------------
 BYTE   PATT
  POIN2 Label_7_0139DA17
// 010   ----------------------------------------
Label_7_0139DABA:
 BYTE   PAN   c_v-44
 BYTE   N05  Cn3  v100
 BYTE   W06
 BYTE   PAN   c_v+53
 BYTE   N05
 BYTE   W06
 BYTE   PAN   c_v-54
 BYTE   N05  Gn3
 BYTE   W06
 BYTE   PAN   c_v+63
 BYTE   N05
 BYTE   W06
 BYTE   PAN   c_v-64
 BYTE   N05  Cn3
 BYTE   W06
 BYTE   PAN   c_v+63
 BYTE   N05
 BYTE   W06
 BYTE   PAN   c_v+26
 BYTE   N05  Cn4
 BYTE   W06
 BYTE   PAN   c_v-34
 BYTE   N05
 BYTE   W06
 BYTE   PAN   c_v-64
 BYTE   N05  Dn3
 BYTE   W06
 BYTE   PAN   c_v+63
 BYTE   N05
 BYTE   W06
 BYTE   PAN   c_v-54
 BYTE   N05  Gn3
 BYTE   W06
 BYTE   PAN   c_v+53
 BYTE   N05
 BYTE   W06
 BYTE   PAN   c_v-44
 BYTE   N05  Dn3
 BYTE   W06
 BYTE   PAN   c_v+43
 BYTE   N05
 BYTE   W06
 BYTE   PAN   c_v-34
 BYTE   N05  As3
 BYTE   W06
 BYTE   PAN   c_v+33
 BYTE   N05
 BYTE   W06
 BYTE   PEND 
// 011   ----------------------------------------
Label_7_0139DB04:
 BYTE   PAN   c_v-24
 BYTE   N05  Dn3  v100
 BYTE   W06
 BYTE   PAN   c_v+23
 BYTE   N05
 BYTE   W06
 BYTE   PAN   c_v-24
 BYTE   N05  Gn3
 BYTE   W06
 BYTE   PAN   c_v+13
 BYTE   N05
 BYTE   W06
 BYTE   PAN   c_v-14
 BYTE   N05  Dn3
 BYTE   W06
 BYTE   PAN   c_v+3
 BYTE   N05
 BYTE   W06
 BYTE   PAN   c_v-4
 BYTE   N05  As3
 BYTE   W06
 BYTE   PAN   c_v-7
 BYTE   N05
 BYTE   W06
 BYTE   PAN   c_v-4
 BYTE   N05  Dn3
 BYTE   W06
 BYTE   PAN   c_v+13
 BYTE   N05
 BYTE   W06
 BYTE   PAN   c_v-14
 BYTE   N05  Gn3
 BYTE   W06
 BYTE   PAN   c_v+23
 BYTE   N05
 BYTE   W06
 BYTE   PAN   c_v-24
 BYTE   N05  Dn3
 BYTE   W06
 BYTE   PAN   c_v+33
 BYTE   N05
 BYTE   W06
 BYTE   PAN   c_v-34
 BYTE   N05  As3
 BYTE   W06
 BYTE   PAN   c_v+43
 BYTE   N05
 BYTE   W06
 BYTE   PEND 
// 012   ----------------------------------------
Label_7_0139DB4E:
 BYTE   PAN   c_v-44
 BYTE   N05  Dn3  v100
 BYTE   W06
 BYTE   PAN   c_v+53
 BYTE   N05
 BYTE   W06
 BYTE   PAN   c_v-54
 BYTE   N05  Gn3
 BYTE   W06
 BYTE   PAN   c_v+63
 BYTE   N05
 BYTE   W06
 BYTE   PAN   c_v-64
 BYTE   N05  Dn3
 BYTE   W06
 BYTE   PAN   c_v+63
 BYTE   N05
 BYTE   W06
 BYTE   PAN   c_v+26
 BYTE   N05  As3
 BYTE   W06
 BYTE   PAN   c_v-34
 BYTE   N05
 BYTE   W54
 BYTE   PEND 
// 013   ----------------------------------------
 BYTE   W96
// 014   ----------------------------------------
 BYTE   W96
// 015   ----------------------------------------
 BYTE   W96
// 016   ----------------------------------------
 BYTE   W96
// 017   ----------------------------------------
 BYTE   W96
// 018   ----------------------------------------
 BYTE   W96
// 019   ----------------------------------------
 BYTE   W96
// 020   ----------------------------------------
 BYTE   W96
// 021   ----------------------------------------
 BYTE   W96
// 022   ----------------------------------------
 BYTE   W96
// 023   ----------------------------------------
 BYTE   W96
// 024   ----------------------------------------
 BYTE   W96
// 025   ----------------------------------------
 BYTE   W96
// 026   ----------------------------------------
 BYTE   W96
// 027   ----------------------------------------
 BYTE   W96
// 028   ----------------------------------------
 BYTE   W96
// 029   ----------------------------------------
 BYTE   W96
// 030   ----------------------------------------
 BYTE   W96
// 031   ----------------------------------------
 BYTE   W96
// 032   ----------------------------------------
 BYTE   W96
// 033   ----------------------------------------
 BYTE   W96
// 034   ----------------------------------------
 BYTE   W96
// 035   ----------------------------------------
 BYTE   W96
// 036   ----------------------------------------
 BYTE   W96
// 037   ----------------------------------------
 BYTE   W96
// 038   ----------------------------------------
 BYTE   W96
// 039   ----------------------------------------
 BYTE   W96
// 040   ----------------------------------------
 BYTE   PATT
  POIN2 Label_7_0139D9F0
// 041   ----------------------------------------
 BYTE   PATT
  POIN2 Label_7_0139DA17
// 042   ----------------------------------------
 BYTE   PATT
  POIN2 Label_7_0139DA61
// 043   ----------------------------------------
 BYTE   PATT
  POIN2 Label_7_0139DA17
// 044   ----------------------------------------
 BYTE   PATT
  POIN2 Label_7_0139DA61
// 045   ----------------------------------------
 BYTE   PATT
  POIN2 Label_7_0139DA17
// 046   ----------------------------------------
 BYTE   PATT
  POIN2 Label_7_0139DABA
// 047   ----------------------------------------
 BYTE   PATT
  POIN2 Label_7_0139DB04
// 048   ----------------------------------------
 BYTE   PATT
  POIN2 Label_7_0139DB4E
// 049   ----------------------------------------
 BYTE   W96
// 050   ----------------------------------------
 BYTE   W96
// 051   ----------------------------------------
 BYTE   W96
// 052   ----------------------------------------
 BYTE   W96
// 053   ----------------------------------------
 BYTE   W96
// 054   ----------------------------------------
 BYTE   W96
// 055   ----------------------------------------
 BYTE   W96
// 056   ----------------------------------------
 BYTE   W96
// 057   ----------------------------------------
 BYTE   W96
// 058   ----------------------------------------
 BYTE   W96
// 059   ----------------------------------------
 BYTE   W96
// 060   ----------------------------------------
 BYTE   W96
// 061   ----------------------------------------
 BYTE   W96
// 062   ----------------------------------------
 BYTE   W96
// 063   ----------------------------------------
 BYTE   W96
// 064   ----------------------------------------
 BYTE   W96
// 065   ----------------------------------------
 BYTE   W96
// 066   ----------------------------------------
 BYTE   W96
// 067   ----------------------------------------
 BYTE   W96
// 068   ----------------------------------------
 BYTE   W96
// 069   ----------------------------------------
 BYTE   W96
// 070   ----------------------------------------
 BYTE   W96
// 071   ----------------------------------------
 BYTE   W96
// 072   ----------------------------------------
 BYTE   W96
// 073   ----------------------------------------
 BYTE   W96
// 074   ----------------------------------------
 BYTE   W96
// 075   ----------------------------------------
 BYTE   W48
 BYTE   GoTo
  POIN2 Label_7_0139D9E6
// 076   ----------------------------------------
 BYTE   VOL   0*Noltia_mvl/mxv
 BYTE   FINE

//**************** Track 9 (Midi-Chn.8) ****************//

Noltia_009:
// 000   ----------------------------------------
 BYTE   KEYSH   Noltia_key+0
Label_8_01335A1E:
 BYTE   VOICE   110
 BYTE   PAN   c_v+0
 BYTE   VOL   22*Noltia_mvl/mxv
 BYTE   N05  Gn3  v100
 BYTE   N05  Gn4  v120
 BYTE   W18
 BYTE   Gs3  v100
 BYTE   N05  Gs4  v120
 BYTE   W18
 BYTE   As3  v100
 BYTE   N05  As4  v120
 BYTE   W12
 BYTE   Cn4  v100
 BYTE   N05  Cn5  v120
 BYTE   W48
// 001   ----------------------------------------
 BYTE   W96
// 002   ----------------------------------------
Label_8_01335A3E:
 BYTE   W12
 BYTE   N05  Gs4  v120
 BYTE   W18
 BYTE   As4
 BYTE   W18
 BYTE   Gs4
 BYTE   W48
 BYTE   PEND 
// 003   ----------------------------------------
 BYTE   W96
// 004   ----------------------------------------
Label_8_01335A49:
 BYTE   W12
 BYTE   N05  Gs4  v120
 BYTE   W18
 BYTE   As4
 BYTE   W18
 BYTE   Cn5
 BYTE   W48
 BYTE   PEND 
// 005   ----------------------------------------
 BYTE   W96
// 006   ----------------------------------------
 BYTE   W96
// 007   ----------------------------------------
 BYTE   W96
// 008   ----------------------------------------
 BYTE   W96
// 009   ----------------------------------------
 BYTE   W96
// 010   ----------------------------------------
 BYTE   W96
// 011   ----------------------------------------
 BYTE   W96
// 012   ----------------------------------------
 BYTE   W96
// 013   ----------------------------------------
 BYTE   W96
// 014   ----------------------------------------
 BYTE   W96
// 015   ----------------------------------------
 BYTE   W96
// 016   ----------------------------------------
 BYTE   W96
// 017   ----------------------------------------
 BYTE   W96
// 018   ----------------------------------------
 BYTE   W96
// 019   ----------------------------------------
 BYTE   W96
// 020   ----------------------------------------
 BYTE   W96
// 021   ----------------------------------------
 BYTE   W96
// 022   ----------------------------------------
 BYTE   W96
// 023   ----------------------------------------
 BYTE   W96
// 024   ----------------------------------------
 BYTE   W96
// 025   ----------------------------------------
 BYTE   W96
// 026   ----------------------------------------
 BYTE   W96
// 027   ----------------------------------------
 BYTE   W96
// 028   ----------------------------------------
 BYTE   W96
// 029   ----------------------------------------
 BYTE   W96
// 030   ----------------------------------------
 BYTE   W96
// 031   ----------------------------------------
 BYTE   W96
// 032   ----------------------------------------
 BYTE   W96
// 033   ----------------------------------------
 BYTE   W96
// 034   ----------------------------------------
 BYTE   W96
// 035   ----------------------------------------
 BYTE   W96
// 036   ----------------------------------------
 BYTE   W48
 BYTE   Cn4  v100
 BYTE   N05  Cn5  v120
 BYTE   W48
// 037   ----------------------------------------
 BYTE   W96
// 038   ----------------------------------------
 BYTE   PATT
  POIN2 Label_8_01335A3E
// 039   ----------------------------------------
 BYTE   W96
// 040   ----------------------------------------
 BYTE   PATT
  POIN2 Label_8_01335A49
// 041   ----------------------------------------
 BYTE   W96
// 042   ----------------------------------------
 BYTE   W96
// 043   ----------------------------------------
 BYTE   W96
// 044   ----------------------------------------
 BYTE   W96
// 045   ----------------------------------------
 BYTE   W96
// 046   ----------------------------------------
 BYTE   W96
// 047   ----------------------------------------
 BYTE   W96
// 048   ----------------------------------------
 BYTE   W96
// 049   ----------------------------------------
 BYTE   W96
// 050   ----------------------------------------
 BYTE   W96
// 051   ----------------------------------------
 BYTE   W96
// 052   ----------------------------------------
 BYTE   W96
// 053   ----------------------------------------
 BYTE   W96
// 054   ----------------------------------------
 BYTE   W96
// 055   ----------------------------------------
 BYTE   W96
// 056   ----------------------------------------
 BYTE   W96
// 057   ----------------------------------------
 BYTE   W96
// 058   ----------------------------------------
 BYTE   W96
// 059   ----------------------------------------
 BYTE   W96
// 060   ----------------------------------------
 BYTE   W96
// 061   ----------------------------------------
 BYTE   W96
// 062   ----------------------------------------
 BYTE   W96
// 063   ----------------------------------------
 BYTE   W96
// 064   ----------------------------------------
 BYTE   W96
// 065   ----------------------------------------
 BYTE   W96
// 066   ----------------------------------------
 BYTE   W96
// 067   ----------------------------------------
 BYTE   W96
// 068   ----------------------------------------
 BYTE   W96
// 069   ----------------------------------------
 BYTE   W96
// 070   ----------------------------------------
 BYTE   W96
// 071   ----------------------------------------
 BYTE   W96
// 072   ----------------------------------------
 BYTE   W96
// 073   ----------------------------------------
 BYTE   W96
// 074   ----------------------------------------
 BYTE   W96
// 075   ----------------------------------------
 BYTE   W48
 BYTE   GoTo
  POIN2 Label_8_01335A1E
// 076   ----------------------------------------
 BYTE   VOL   0*Noltia_mvl/mxv
 BYTE   FINE

//**************** Track 10 (Midi-Chn.9) ****************//

Noltia_010:
// 000   ----------------------------------------
 BYTE   KEYSH   Noltia_key+0
Label_9_0139EC12:
 BYTE   VOICE   124
 BYTE   PAN   c_v+0
 BYTE   VOL   27*Noltia_mvl/mxv
 BYTE   N01  Dn1  v120
 BYTE   N01  Cs2  v100
 BYTE   W18
 BYTE   Dn1  v120
 BYTE   N01  An2  v100
 BYTE   W18
 BYTE   Dn1  v120
 BYTE   N01  Cs2  v100
 BYTE   W06
 BYTE   Dn1  v120
 BYTE   W06
 BYTE   Cn1  v112
 BYTE   N01  An2  v100
 BYTE   W06
 BYTE   Fs1  v060
 BYTE   W06
 BYTE   Cn1  v092
 BYTE   N01  Fs1  v080
 BYTE   W06
 BYTE   Cn1  v092
 BYTE   N01  Fs1  v060
 BYTE   W06
 BYTE   Dn1  v120
 BYTE   N01  Fs1  v100
 BYTE   W06
 BYTE   Fs1  v060
 BYTE   W06
 BYTE   Cn1  v092
 BYTE   N01  Fs1  v080
 BYTE   W06
 BYTE   Cn1  v092
 BYTE   N01  Fs1  v060
 BYTE   W06
// 001   ----------------------------------------
Label_9_0139EC58:
 BYTE   N01  Cn1  v112
 BYTE   N01  Fs1  v080
 BYTE   W06
 BYTE   Fs1  v060
 BYTE   W06
 BYTE   Cn1  v092
 BYTE   N01  Fs1  v080
 BYTE   W06
 BYTE   Cn1  v092
 BYTE   N01  Fs1  v060
 BYTE   W06
 BYTE   Dn1  v120
 BYTE   N01  Fs1  v100
 BYTE   W06
 BYTE   Fs1  v040
 BYTE   W06
 BYTE   Cn1  v092
 BYTE   N01  Fs1  v060
 BYTE   W06
 BYTE   Cn1  v092
 BYTE   N01  Fs1  v040
 BYTE   W06
 BYTE   Cn1  v112
 BYTE   N01  Fs1  v080
 BYTE   W06
 BYTE   Fs1  v060
 BYTE   W06
 BYTE   Cn1  v092
 BYTE   N01  Fs1  v080
 BYTE   W06
 BYTE   Cn1  v092
 BYTE   N01  Fs1  v060
 BYTE   W06
 BYTE   Dn1  v120
 BYTE   N01  Fs1  v100
 BYTE   W06
 BYTE   Fs1  v060
 BYTE   W06
 BYTE   Cn1  v092
 BYTE   N01  Fs1  v080
 BYTE   W06
 BYTE   Cn1  v092
 BYTE   N01  Fs1  v060
 BYTE   W06
 BYTE   PEND 
// 002   ----------------------------------------
Label_9_0139ECAE:
 BYTE   N01  Cn1  v100
 BYTE   N01  Fs1  v080
 BYTE   W12
 BYTE   Dn1  v120
 BYTE   N01  Cs2  v080
 BYTE   W12
 BYTE   Cn1  v100
 BYTE   N01  Fs1
 BYTE   W06
 BYTE   Dn1  v120
 BYTE   N01  An2  v092
 BYTE   W12
 BYTE   Cn1  v100
 BYTE   W06
 BYTE   Cn1  v112
 BYTE   N01  Fs1  v080
 BYTE   W06
 BYTE   Fs1  v060
 BYTE   W06
 BYTE   Cn1  v092
 BYTE   N01  Fs1  v080
 BYTE   W06
 BYTE   Cn1  v092
 BYTE   N01  Fs1  v060
 BYTE   W06
 BYTE   Dn1  v120
 BYTE   N01  Fs1  v100
 BYTE   W06
 BYTE   Fs1  v060
 BYTE   W06
 BYTE   Cn1  v092
 BYTE   N01  Fs1  v080
 BYTE   W06
 BYTE   Cn1  v092
 BYTE   N01  Fs1  v060
 BYTE   W06
 BYTE   PEND 
// 003   ----------------------------------------
Label_9_0139ECF4:
 BYTE   N01  Cn1  v112
 BYTE   N01  Fs1  v080
 BYTE   W06
 BYTE   Fs1  v060
 BYTE   W06
 BYTE   Cn1  v092
 BYTE   N01  Fs1  v080
 BYTE   W06
 BYTE   Cn1  v092
 BYTE   N01  Fs1  v060
 BYTE   W06
 BYTE   Dn1  v120
 BYTE   N01  Fs1  v100
 BYTE   W06
 BYTE   Fs1  v040
 BYTE   W06
 BYTE   Cn1  v092
 BYTE   N01  Fs1  v060
 BYTE   W06
 BYTE   Cn1  v092
 BYTE   N01  Fs1  v040
 BYTE   W06
 BYTE   Cn1  v112
 BYTE   N01  Fs1  v080
 BYTE   W06
 BYTE   Fs1  v060
 BYTE   W06
 BYTE   Fs1  v080
 BYTE   W06
 BYTE   Fs1  v060
 BYTE   W06
 BYTE   Dn1  v120
 BYTE   N01  Fs1  v100
 BYTE   W06
 BYTE   Fs1  v060
 BYTE   W06
 BYTE   Fs1  v080
 BYTE   W06
 BYTE   Fs1  v060
 BYTE   W06
 BYTE   PEND 
// 004   ----------------------------------------
Label_9_0139ED3E:
 BYTE   N01  Cn1  v100
 BYTE   N01  Cs2  v080
 BYTE   W06
 BYTE   Dn1  v120
 BYTE   W06
 BYTE   N01
 BYTE   W06
 BYTE   N01
 BYTE   W06
 BYTE   Dn1  v127
 BYTE   W06
 BYTE   Dn1  v120
 BYTE   W06
 BYTE   N01
 BYTE   W06
 BYTE   Dn1  v127
 BYTE   W06
 BYTE   Cn1  v112
 BYTE   N01  Fs1  v092
 BYTE   W06
 BYTE   Fs1  v040
 BYTE   W06
 BYTE   As1  v072
 BYTE   W06
 BYTE   Fs1  v040
 BYTE   W06
 BYTE   Dn1  v120
 BYTE   N01  Fs1  v100
 BYTE   W06
 BYTE   Fs1  v040
 BYTE   W06
 BYTE   As1  v080
 BYTE   W06
 BYTE   Cn1  v092
 BYTE   N01  Fs1  v040
 BYTE   W06
 BYTE   PEND 
// 005   ----------------------------------------
Label_9_0139ED79:
 BYTE   N01  Cn1  v100
 BYTE   N01  Fs1  v092
 BYTE   W06
 BYTE   Fs1  v040
 BYTE   W06
 BYTE   Cn1  v080
 BYTE   N01  As1  v072
 BYTE   W06
 BYTE   Fs1  v040
 BYTE   W06
 BYTE   Dn1  v120
 BYTE   N01  Fs1  v100
 BYTE   W06
 BYTE   Fs1  v040
 BYTE   W06
 BYTE   Cn1  v080
 BYTE   N01  As1
 BYTE   W06
 BYTE   Fs1  v040
 BYTE   W06
 BYTE   Cn1  v112
 BYTE   N01  Fs1  v092
 BYTE   W06
 BYTE   Fs1  v040
 BYTE   W06
 BYTE   As1  v072
 BYTE   W06
 BYTE   Fs1  v040
 BYTE   W06
 BYTE   Dn1  v120
 BYTE   N01  Fs1  v100
 BYTE   W06
 BYTE   Fs1  v040
 BYTE   W06
 BYTE   As1  v080
 BYTE   W06
 BYTE   Cn1  v092
 BYTE   N01  Fs1  v040
 BYTE   W06
 BYTE   PEND 
// 006   ----------------------------------------
 BYTE   PATT
  POIN2 Label_9_0139ED79
// 007   ----------------------------------------
 BYTE   PATT
  POIN2 Label_9_0139ED79
// 008   ----------------------------------------
 BYTE   PATT
  POIN2 Label_9_0139ED79
// 009   ----------------------------------------
 BYTE   PATT
  POIN2 Label_9_0139ED79
// 010   ----------------------------------------
 BYTE   PATT
  POIN2 Label_9_0139ED79
// 011   ----------------------------------------
 BYTE   PATT
  POIN2 Label_9_0139ED79
// 012   ----------------------------------------
Label_9_0139EDDD:
 BYTE   N01  Cn1  v100
 BYTE   N01  Fs1  v092
 BYTE   W06
 BYTE   Dn1  v120
 BYTE   N01  Fs1  v040
 BYTE   W06
 BYTE   As1  v072
 BYTE   W06
 BYTE   Cn1  v080
 BYTE   N01  Fs1  v040
 BYTE   W06
 BYTE   Dn1  v120
 BYTE   N01  Fs1  v100
 BYTE   W06
 BYTE   Dn1  v120
 BYTE   N01  Fs1  v040
 BYTE   W06
 BYTE   Cn1  v080
 BYTE   N01  As1
 BYTE   W06
 BYTE   Dn1  v120
 BYTE   N01  Fs1  v040
 BYTE   W06
 BYTE   Cn1  v112
 BYTE   N01  Fs1  v092
 BYTE   W06
 BYTE   Fs1  v040
 BYTE   W06
 BYTE   Fs1  v072
 BYTE   W06
 BYTE   Fs1  v040
 BYTE   W06
 BYTE   Dn1  v120
 BYTE   N01  Fs1  v100
 BYTE   W06
 BYTE   Fs1  v040
 BYTE   W06
 BYTE   As1  v080
 BYTE   W06
 BYTE   Cn1  v092
 BYTE   N01  Fs1  v040
 BYTE   W06
 BYTE   PEND 
// 013   ----------------------------------------
Label_9_0139EE2C:
 BYTE   N01  Cn1  v100
 BYTE   N01  Fs1  v092
 BYTE   W06
 BYTE   Fs1  v040
 BYTE   W06
 BYTE   Cn1  v080
 BYTE   N01  Fs1  v072
 BYTE   W06
 BYTE   Fs1  v040
 BYTE   W06
 BYTE   Dn1  v120
 BYTE   N01  Fs1  v100
 BYTE   W06
 BYTE   Fs1  v040
 BYTE   W06
 BYTE   Cn1  v080
 BYTE   N01  As1
 BYTE   W06
 BYTE   Fs1  v040
 BYTE   W06
 BYTE   Cn1  v112
 BYTE   N01  Fs1  v092
 BYTE   W06
 BYTE   Fs1  v040
 BYTE   W06
 BYTE   Fs1  v072
 BYTE   W06
 BYTE   Fs1  v040
 BYTE   W06
 BYTE   Dn1  v120
 BYTE   N01  Fs1  v100
 BYTE   W06
 BYTE   Fs1  v040
 BYTE   W06
 BYTE   As1  v080
 BYTE   W06
 BYTE   Cn1  v092
 BYTE   N01  Fs1  v040
 BYTE   W06
 BYTE   PEND 
// 014   ----------------------------------------
 BYTE   PATT
  POIN2 Label_9_0139EE2C
// 015   ----------------------------------------
 BYTE   PATT
  POIN2 Label_9_0139EE2C
// 016   ----------------------------------------
 BYTE   PATT
  POIN2 Label_9_0139EE2C
// 017   ----------------------------------------
 BYTE   PATT
  POIN2 Label_9_0139EE2C
// 018   ----------------------------------------
 BYTE   PATT
  POIN2 Label_9_0139EE2C
// 019   ----------------------------------------
 BYTE   PATT
  POIN2 Label_9_0139EE2C
// 020   ----------------------------------------
Label_9_0139EE90:
 BYTE   N01  Cn1  v100
 BYTE   N01  Fs1  v092
 BYTE   W06
 BYTE   Fs1  v040
 BYTE   W06
 BYTE   Cn1  v080
 BYTE   N01  Fs1  v072
 BYTE   W06
 BYTE   Fs1  v040
 BYTE   W06
 BYTE   Dn1  v120
 BYTE   N01  Fs1  v100
 BYTE   W06
 BYTE   Fs1  v040
 BYTE   W06
 BYTE   Cn1  v080
 BYTE   N01  As1
 BYTE   W06
 BYTE   Fs1  v040
 BYTE   W06
 BYTE   N12  Cn1  v100
 BYTE   W12
 BYTE   N05  Cn1  v092
 BYTE   N11  Fs1
 BYTE   W24
 BYTE   N05  Cn1  v080
 BYTE   N11  Fs1  v092
 BYTE   W12
 BYTE   PEND 
// 021   ----------------------------------------
Label_9_0139EEC6:
 BYTE   W12
 BYTE   N06  Fs1  v092
 BYTE   W06
 BYTE   N05  Cn1  v080
 BYTE   N05  Fs1  v072
 BYTE   W05
 BYTE   N01  Dn1  v092
 BYTE   W01
 BYTE   N04  Dn1  v120
 BYTE   W12
 BYTE   N05  Cn1  v092
 BYTE   N11  Fs1
 BYTE   W12
 BYTE   N12  Cn1  v100
 BYTE   W12
 BYTE   N05  Cn1  v092
 BYTE   N11  Fs1
 BYTE   W24
 BYTE   N05  Cn1  v080
 BYTE   N11  Fs1  v092
 BYTE   W12
 BYTE   PEND 
// 022   ----------------------------------------
 BYTE   PATT
  POIN2 Label_9_0139EEC6
// 023   ----------------------------------------
 BYTE   PATT
  POIN2 Label_9_0139EEC6
// 024   ----------------------------------------
 BYTE   PATT
  POIN2 Label_9_0139EEC6
// 025   ----------------------------------------
 BYTE   PATT
  POIN2 Label_9_0139EEC6
// 026   ----------------------------------------
 BYTE   PATT
  POIN2 Label_9_0139EEC6
// 027   ----------------------------------------
 BYTE   PATT
  POIN2 Label_9_0139EEC6
// 028   ----------------------------------------
Label_9_0139EF10:
 BYTE   W12
 BYTE   N06  Fs1  v092
 BYTE   W06
 BYTE   N05  Cn1  v080
 BYTE   N05  Fs1  v072
 BYTE   W05
 BYTE   N01  Dn1  v092
 BYTE   W01
 BYTE   N04  Dn1  v120
 BYTE   W12
 BYTE   N05  Cn1  v092
 BYTE   N11  Fs1
 BYTE   W06
 BYTE   N05  Dn1  v127
 BYTE   W06
 BYTE   N12  Cn1  v100
 BYTE   W12
 BYTE   N05  Cn1  v092
 BYTE   N11  Fs1
 BYTE   W24
 BYTE   N05  Cn1  v080
 BYTE   N11  Fs1  v092
 BYTE   W12
 BYTE   PEND 
// 029   ----------------------------------------
 BYTE   PATT
  POIN2 Label_9_0139EEC6
// 030   ----------------------------------------
 BYTE   PATT
  POIN2 Label_9_0139EEC6
// 031   ----------------------------------------
 BYTE   PATT
  POIN2 Label_9_0139EEC6
// 032   ----------------------------------------
 BYTE   PATT
  POIN2 Label_9_0139EEC6
// 033   ----------------------------------------
 BYTE   PATT
  POIN2 Label_9_0139EEC6
// 034   ----------------------------------------
Label_9_0139EF59:
 BYTE   W12
 BYTE   N06  Fs1  v092
 BYTE   W06
 BYTE   N05  Cn1  v080
 BYTE   N05  Fs1  v072
 BYTE   W05
 BYTE   N01  Dn1  v092
 BYTE   W01
 BYTE   N04  Dn1  v120
 BYTE   W12
 BYTE   N05  Cn1  v092
 BYTE   N11  Fs1
 BYTE   W12
 BYTE   N12  Cn1  v100
 BYTE   W12
 BYTE   N05  Cn1  v092
 BYTE   N11  Fs1
 BYTE   W06
 BYTE   N05  Cn1  v080
 BYTE   W18
 BYTE   N11  Fs1  v092
 BYTE   W06
 BYTE   N05  Cn1  v080
 BYTE   W06
 BYTE   PEND 
// 035   ----------------------------------------
Label_9_0139EF8A:
 BYTE   W12
 BYTE   N06  Fs1  v092
 BYTE   W06
 BYTE   N05  Cn1  v080
 BYTE   N05  Fs1  v072
 BYTE   W05
 BYTE   N01  Dn1  v092
 BYTE   W01
 BYTE   N04  Dn1  v120
 BYTE   W12
 BYTE   N05  Cn1  v092
 BYTE   N11  Fs1
 BYTE   W12
 BYTE   N18  Cn1  v100
 BYTE   N11  Fs1  v092
 BYTE   W18
 BYTE   N05  Cn1  v080
 BYTE   N11  Cs2  v092
 BYTE   W18
 BYTE   N05  Dn1  v120
 BYTE   N11  An2  v092
 BYTE   W06
 BYTE   N05  Dn1  v120
 BYTE   W06
 BYTE   PEND 
// 036   ----------------------------------------
 BYTE   N18  Cn1  v100
 BYTE   N11  Fs1  v092
 BYTE   W18
 BYTE   N05  Cn1  v080
 BYTE   N11  Cs2  v092
 BYTE   W06
 BYTE   N05  Dn1  v120
 BYTE   W06
 BYTE   N05
 BYTE   W06
 BYTE   N11  An2  v092
 BYTE   W06
 BYTE   N05  Dn1  v127
 BYTE   W06
 BYTE   N01  Cn1  v112
 BYTE   N01  An2  v100
 BYTE   W06
 BYTE   Fs1  v060
 BYTE   W06
 BYTE   Cn1  v092
 BYTE   N01  Fs1  v080
 BYTE   W06
 BYTE   Cn1  v092
 BYTE   N01  Fs1  v060
 BYTE   W06
 BYTE   Dn1  v120
 BYTE   N01  Fs1  v100
 BYTE   W06
 BYTE   Fs1  v060
 BYTE   W06
 BYTE   Cn1  v092
 BYTE   N01  Fs1  v080
 BYTE   W06
 BYTE   Cn1  v092
 BYTE   N01  Fs1  v060
 BYTE   W06
// 037   ----------------------------------------
 BYTE   PATT
  POIN2 Label_9_0139EC58
// 038   ----------------------------------------
 BYTE   PATT
  POIN2 Label_9_0139ECAE
// 039   ----------------------------------------
 BYTE   PATT
  POIN2 Label_9_0139ECF4
// 040   ----------------------------------------
 BYTE   PATT
  POIN2 Label_9_0139ED3E
// 041   ----------------------------------------
 BYTE   PATT
  POIN2 Label_9_0139ED79
// 042   ----------------------------------------
 BYTE   PATT
  POIN2 Label_9_0139ED79
// 043   ----------------------------------------
 BYTE   PATT
  POIN2 Label_9_0139ED79
// 044   ----------------------------------------
 BYTE   PATT
  POIN2 Label_9_0139ED79
// 045   ----------------------------------------
 BYTE   PATT
  POIN2 Label_9_0139ED79
// 046   ----------------------------------------
 BYTE   PATT
  POIN2 Label_9_0139ED79
// 047   ----------------------------------------
 BYTE   PATT
  POIN2 Label_9_0139ED79
// 048   ----------------------------------------
 BYTE   PATT
  POIN2 Label_9_0139EDDD
// 049   ----------------------------------------
 BYTE   PATT
  POIN2 Label_9_0139EE2C
// 050   ----------------------------------------
 BYTE   PATT
  POIN2 Label_9_0139EE2C
// 051   ----------------------------------------
 BYTE   PATT
  POIN2 Label_9_0139EE2C
// 052   ----------------------------------------
 BYTE   PATT
  POIN2 Label_9_0139EE2C
// 053   ----------------------------------------
 BYTE   PATT
  POIN2 Label_9_0139EE2C
// 054   ----------------------------------------
 BYTE   PATT
  POIN2 Label_9_0139EE2C
// 055   ----------------------------------------
 BYTE   PATT
  POIN2 Label_9_0139EE2C
// 056   ----------------------------------------
 BYTE   PATT
  POIN2 Label_9_0139EE90
// 057   ----------------------------------------
 BYTE   PATT
  POIN2 Label_9_0139EEC6
// 058   ----------------------------------------
 BYTE   PATT
  POIN2 Label_9_0139EEC6
// 059   ----------------------------------------
 BYTE   PATT
  POIN2 Label_9_0139EEC6
// 060   ----------------------------------------
 BYTE   PATT
  POIN2 Label_9_0139EEC6
// 061   ----------------------------------------
 BYTE   PATT
  POIN2 Label_9_0139EEC6
// 062   ----------------------------------------
 BYTE   PATT
  POIN2 Label_9_0139EEC6
// 063   ----------------------------------------
 BYTE   PATT
  POIN2 Label_9_0139EEC6
// 064   ----------------------------------------
 BYTE   PATT
  POIN2 Label_9_0139EF10
// 065   ----------------------------------------
 BYTE   PATT
  POIN2 Label_9_0139EEC6
// 066   ----------------------------------------
 BYTE   PATT
  POIN2 Label_9_0139EEC6
// 067   ----------------------------------------
 BYTE   PATT
  POIN2 Label_9_0139EEC6
// 068   ----------------------------------------
 BYTE   PATT
  POIN2 Label_9_0139EEC6
// 069   ----------------------------------------
 BYTE   PATT
  POIN2 Label_9_0139EEC6
// 070   ----------------------------------------
 BYTE   PATT
  POIN2 Label_9_0139EF59
// 071   ----------------------------------------
 BYTE   PATT
  POIN2 Label_9_0139EF8A
// 072   ----------------------------------------
 BYTE   N18  Cn1  v100
 BYTE   N11  Fs1  v092
 BYTE   W18
 BYTE   N05  Cn1  v080
 BYTE   N11  Cs2  v092
 BYTE   W06
 BYTE   N05  Dn1  v120
 BYTE   W06
 BYTE   N05
 BYTE   W06
 BYTE   N11  An2  v092
 BYTE   W06
 BYTE   N05  Dn1  v127
 BYTE   W06
 BYTE   N18  Cn1  v100
 BYTE   N11  Fs1  v092
 BYTE   W18
 BYTE   N05  Cn1  v080
 BYTE   N11  Cs2  v092
 BYTE   W18
 BYTE   N05  Dn1  v120
 BYTE   N11  An2  v092
 BYTE   W06
 BYTE   N05  Dn1  v120
 BYTE   W06
// 073   ----------------------------------------
 BYTE   N18  Cn1  v100
 BYTE   N11  Fs1  v092
 BYTE   W18
 BYTE   N05  Cn1  v080
 BYTE   N11  Cs2  v092
 BYTE   W06
 BYTE   N05  Dn1  v120
 BYTE   W06
 BYTE   N05
 BYTE   W06
 BYTE   N11  An2  v092
 BYTE   W06
 BYTE   N05  Dn1  v127
 BYTE   W06
 BYTE   Cn1  v112
 BYTE   N05  Dn1  v127
 BYTE   N11  Cs2  v100
 BYTE   W48
// 074   ----------------------------------------
 BYTE   W96
// 075   ----------------------------------------
 BYTE   W48
 BYTE   GoTo
  POIN2 Label_9_0139EC12
// 076   ----------------------------------------
 BYTE   VOL   0*Noltia_mvl/mxv
 BYTE   FINE

//******************************************************//
	ALIGN 4

Noltia:
	BYTE	10	// NumTrks
	BYTE	0	// NumBlks
	BYTE	Noltia_pri	// Priority
	BYTE	Noltia_rev	// Reverb.
    
	POIN2	Noltia_grp
    
	POIN2	Noltia_001
	POIN2	Noltia_002
	POIN2	Noltia_003
	POIN2	Noltia_004
	POIN2	Noltia_005
	POIN2	Noltia_006
	POIN2	Noltia_007
	POIN2	Noltia_008
	POIN2	Noltia_009
	POIN2	Noltia_010

	
