//Event file generated from Sappy .s format.
	#include "MPlayDef.event"

	#define	song0149_grp  voicegroup001
	#define	song0149_pri  0
	#define	song0149_rev  0
	#define	song0149_mvl  127
	#define	song0149_key  0
	#define	song0149_tbs  1
	#define	song0149_exg  0
	#define	song0149_cmp  1

	// .rodata
	//	song0149
	ALIGN 4


//**************** Track 1 (Midi-Chn.0) ****************//

song0149_001:
// 000   ----------------------------------------
 BYTE   KEYSH   song0149_key+0
Label_0_01490532:
 BYTE   TEMPO   96*song0149_tbs/2
 BYTE   VOICE   1
 BYTE   PAN   c_v+10
 BYTE   VOL   25*song0149_mvl/mxv
 BYTE   BEND   c_v+0
 BYTE   N92  Ds3  v092
 BYTE   W02
 BYTE   Gn3
 BYTE   W02
 BYTE   N32  Dn4  v100
 BYTE   W32
 BYTE   N10  Cn4  v112
 BYTE   W12
 BYTE   N10
 BYTE   W44
 BYTE   W02
 BYTE   W02
// 001   ----------------------------------------
 BYTE   N15  Ds3  v100
 BYTE   N15  Ds4  v112
 BYTE   W16
 BYTE   Fn3  v100
 BYTE   N15  Fn4  v112
 BYTE   W16
 BYTE   Gn3  v100
 BYTE   N15  Gn4  v112
 BYTE   W16
 BYTE   Gn3  v100
 BYTE   N15  Gn4  v112
 BYTE   W16
 BYTE   Fn3  v100
 BYTE   N15  Fn4  v112
 BYTE   W16
 BYTE   As2  v100
 BYTE   N15  As3  v112
 BYTE   W14
 BYTE   W02
// 002   ----------------------------------------
 BYTE   TIE  Ds3  v080
 BYTE   W02
 BYTE   Gn3
 BYTE   W02
 BYTE   Dn4  v100
 BYTE   W32
 BYTE   Cn4  v092
 BYTE   W36
 BYTE   N36  Gn4  v100
 BYTE   W24
// 003   ----------------------------------------
 BYTE   W12
 BYTE   N11  Gn4  v080
 BYTE   W12
 BYTE   Dn5
 BYTE   W12
 BYTE   Cn5
 BYTE   W12
 BYTE   N44  Gs3  v112
 BYTE   W24
 BYTE   N22  As3
 BYTE   W22
 BYTE   EOT
 BYTE   Ds3  v067
 BYTE   Cn4  v074
 BYTE   W02
// 004   ----------------------------------------
 BYTE   N44  Cn4
 BYTE   W48
 BYTE   N05  Gs3  v092
 BYTE   W06
 BYTE   As3
 BYTE   W06
 BYTE   Cn4  v100
 BYTE   W06
 BYTE   Dn4  v112
 BYTE   W05
 BYTE   Ds4  v092
 BYTE   W06
 BYTE   As3
 BYTE   W06
 BYTE   Cn4
 BYTE   W06
 BYTE   Dn4
 BYTE   W05
 BYTE   W01
 BYTE   Cn4
 BYTE   W01
// 005   ----------------------------------------
 BYTE   W05
 BYTE   Dn4  v100
 BYTE   W06
 BYTE   Ds4  v112
 BYTE   W06
 BYTE   Fn4
 BYTE   W06
 BYTE   N56  Gn4
 BYTE   W60
 BYTE   W01
 BYTE   N05  Fn4
 BYTE   W06
 BYTE   Ds4
 BYTE   W04
 BYTE   W02
// 006   ----------------------------------------
 BYTE   N17  Fn4
 BYTE   W18
 BYTE   N52  Gn4
 BYTE   W54
 BYTE   N17  Fn3
 BYTE   W18
 BYTE   TIE  Gn3
 BYTE   W04
 BYTE   W02
// 007   ----------------------------------------
 BYTE   W72
 BYTE   TEMPO   80*song0149_tbs/2
 BYTE   W21
 BYTE   EOT
 BYTE   W01
 BYTE   W02
// 008   ----------------------------------------
 BYTE   TEMPO   96*song0149_tbs/2
 BYTE   N32  Ds3  v072
 BYTE   W01
 BYTE   Gn3  v092
 BYTE   W01
 BYTE   N30  Cn4  v112
 BYTE   W32
 BYTE   W02
 BYTE   N05  As3  v092
 BYTE   W06
 BYTE   Cn4  v100
 BYTE   W06
 BYTE   TEMPO   100*song0149_tbs/2
 BYTE   N44  Gn3  v092
 BYTE   W44
 BYTE   W02
 BYTE   W02
// 009   ----------------------------------------
 BYTE   N10  Ds3
 BYTE   N10  Gn3
 BYTE   N10  Cn4  v100
 BYTE   W12
 BYTE   N80  Ds3  v072
 BYTE   N80  Gn3  v092
 BYTE   N28  Cn4  v112
 BYTE   W24
 BYTE   N05  As3  v092
 BYTE   W06
 BYTE   Cn4  v100
 BYTE   W06
 BYTE   TEMPO   92*song0149_tbs/2
 BYTE   N15
 BYTE   N15  Ds4  v112
 BYTE   W16
 BYTE   As3  v100
 BYTE   N15  Dn4  v112
 BYTE   W16
 BYTE   TEMPO   88*song0149_tbs/2
 BYTE   Gs3  v100
 BYTE   N15  Cn4  v112
 BYTE   W14
 BYTE   W02
// 010   ----------------------------------------
 BYTE   TEMPO   100*song0149_tbs/2
 BYTE   N32  Fn4
 BYTE   W36
 BYTE   N05  Ds4
 BYTE   W06
 BYTE   Fn4
 BYTE   W06
 BYTE   N32  Dn4
 BYTE   W36
 BYTE   N32
 BYTE   W10
 BYTE   W02
// 011   ----------------------------------------
 BYTE   W24
 BYTE   N11  Ds4
 BYTE   W12
 BYTE   N23  Fn4
 BYTE   W24
 BYTE   TEMPO   96*song0149_tbs/2
 BYTE   N11  Gs4
 BYTE   W12
 BYTE   TEMPO   96*song0149_tbs/2
 BYTE   Gn4
 BYTE   W12
 BYTE   TEMPO   92*song0149_tbs/2
 BYTE   Fn4
 BYTE   W10
 BYTE   W02
// 012   ----------------------------------------
 BYTE   TEMPO   100*song0149_tbs/2
 BYTE   N32  Ds3  v072
 BYTE   N32  Gn3  v092
 BYTE   W01
 BYTE   Cn4  v112
 BYTE   W32
 BYTE   W03
 BYTE   N05  As3  v092
 BYTE   W06
 BYTE   Cn4  v100
 BYTE   W06
 BYTE   N44  Gn3  v092
 BYTE   W44
 BYTE   W02
 BYTE   W02
// 013   ----------------------------------------
 BYTE   N32  Cn4  v100
 BYTE   W36
 BYTE   N05  As3  v092
 BYTE   W06
 BYTE   Cn4
 BYTE   W06
 BYTE   N15  Ds4  v112
 BYTE   W16
 BYTE   Fn4
 BYTE   W16
 BYTE   Gn4
 BYTE   W14
 BYTE   W02
// 014   ----------------------------------------
 BYTE   N44  Fn4
 BYTE   W48
 BYTE   As4
 BYTE   W44
 BYTE   W02
 BYTE   W02
// 015   ----------------------------------------
 BYTE   N92  Cn5
 BYTE   W92
 BYTE   W02
 BYTE   W02
// 016   ----------------------------------------
 BYTE   N68  Cn4
 BYTE   W72
 BYTE   N23  Ds4  v120
 BYTE   W22
 BYTE   W02
// 017   ----------------------------------------
 BYTE   N68  Dn4
 BYTE   W72
 BYTE   N05  Gn4
 BYTE   W06
 BYTE   Fn4  v112
 BYTE   W06
 BYTE   Ds4  v100
 BYTE   W06
 BYTE   Dn4  v080
 BYTE   W04
 BYTE   W02
// 018   ----------------------------------------
 BYTE   N92  Cn4  v072
 BYTE   W02
 BYTE   Ds4  v080
 BYTE   W56
 BYTE   W02
 BYTE   TEMPO   98*song0149_tbs/2
 BYTE   W12
 BYTE   TEMPO   96*song0149_tbs/2
 BYTE   W12
 BYTE   TEMPO   96*song0149_tbs/2
 BYTE   W10
 BYTE   W02
// 019   ----------------------------------------
 BYTE   TEMPO   100*song0149_tbs/2
 BYTE   Ds3  v060
 BYTE   N92  Gn3
 BYTE   N44  Cn4  v072
 BYTE   W48
 BYTE   N22  Cn4  v100
 BYTE   W24
 BYTE   As3  v092
 BYTE   W22
 BYTE   W02
// 020   ----------------------------------------
Label_0_014906C2:
 BYTE   N44  Gs3  v092
 BYTE   W48
 BYTE   N22  As3
 BYTE   W24
 BYTE   Cn4  v100
 BYTE   W22
 BYTE   W02
 BYTE   PEND 
// 021   ----------------------------------------
 BYTE   N44  Dn4
 BYTE   W48
 BYTE   N23  Ds4  v092
 BYTE   W24
 BYTE   Fn4  v080
 BYTE   W22
 BYTE   W02
// 022   ----------------------------------------
 BYTE   N17  Cn4  v092
 BYTE   W01
 BYTE   Dn4  v100
 BYTE   W01
 BYTE   Fn4  v120
 BYTE   W16
 BYTE   N64  Ds4  v100
 BYTE   W64
 BYTE   W01
 BYTE   W01
 BYTE   N05  Dn4  v080
 BYTE   W06
 BYTE   Ds4  v092
 BYTE   W06
// 023   ----------------------------------------
 BYTE   Fn4  v100
 BYTE   W06
 BYTE   Dn4  v072
 BYTE   W06
 BYTE   Ds4  v080
 BYTE   W06
 BYTE   Fn4  v092
 BYTE   W06
 BYTE   Dn4  v060
 BYTE   W06
 BYTE   Ds4  v072
 BYTE   W06
 BYTE   Fn4  v080
 BYTE   W06
 BYTE   Dn4  v072
 BYTE   W06
 BYTE   Ds4  v080
 BYTE   W06
 BYTE   Fn4  v092
 BYTE   W06
 BYTE   Dn4  v072
 BYTE   W06
 BYTE   Ds4  v080
 BYTE   W06
 BYTE   Fn4  v092
 BYTE   W06
 BYTE   Dn4  v100
 BYTE   W06
 BYTE   Ds4  v112
 BYTE   W06
 BYTE   Fn4
 BYTE   W04
 BYTE   W02
// 024   ----------------------------------------
 BYTE   N68  Ds3  v080
 BYTE   N68  Gs3  v092
 BYTE   W01
 BYTE   N66  Cn4  v112
 BYTE   W68
 BYTE   W03
 BYTE   N23  Ds4
 BYTE   W22
 BYTE   W02
// 025   ----------------------------------------
 BYTE   N68  Dn4  v100
 BYTE   W72
 BYTE   N05  Gn4  v112
 BYTE   W06
 BYTE   Fn4  v092
 BYTE   W06
 BYTE   Ds4  v080
 BYTE   W06
 BYTE   Dn4  v072
 BYTE   W04
 BYTE   W02
// 026   ----------------------------------------
 BYTE   N92  Cn4
 BYTE   W02
 BYTE   Ds4  v080
 BYTE   W56
 BYTE   W02
 BYTE   TEMPO   98*song0149_tbs/2
 BYTE   W12
 BYTE   TEMPO   96*song0149_tbs/2
 BYTE   W12
 BYTE   TEMPO   96*song0149_tbs/2
 BYTE   W10
 BYTE   W02
// 027   ----------------------------------------
 BYTE   TEMPO   100*song0149_tbs/2
 BYTE   Ds3  v060
 BYTE   N72  Gn3
 BYTE   N44  Cn4  v072
 BYTE   W48
 BYTE   N22  Fn3  v100
 BYTE   W24
 BYTE   Gn3  v112
 BYTE   W22
 BYTE   W02
// 028   ----------------------------------------
 BYTE   PATT
  POIN2 Label_0_014906C2
// 029   ----------------------------------------
 BYTE   N44  Dn4  v100
 BYTE   W48
 BYTE   N23  Ds4
 BYTE   W24
 BYTE   Fn4  v112
 BYTE   W22
 BYTE   W02
// 030   ----------------------------------------
 BYTE   N92  Ds4  v100
 BYTE   W06
 BYTE   N88  Dn4  v092
 BYTE   W06
 BYTE   N80  Cn4  v112
 BYTE   W80
 BYTE   W02
 BYTE   W02
// 031   ----------------------------------------
 BYTE   N16  Dn3  v092
 BYTE   N16  Gn3  v100
 BYTE   N16  Bn3  v112
 BYTE   W16
 BYTE   Dn3  v092
 BYTE   N16  An3  v100
 BYTE   N16  Cn4  v112
 BYTE   W16
 BYTE   Gn3  v092
 BYTE   N16  Bn3  v100
 BYTE   N16  Dn4  v112
 BYTE   W16
 BYTE   Gn3  v092
 BYTE   N16  Bn3  v100
 BYTE   N16  Dn4  v112
 BYTE   W16
 BYTE   Gn3  v092
 BYTE   N16  Cn4  v100
 BYTE   N16  Ds4  v112
 BYTE   W16
 BYTE   Bn3  v092
 BYTE   N16  Dn4  v100
 BYTE   N16  Fn4  v112
 BYTE   W14
 BYTE   W02
// 032   ----------------------------------------
 BYTE   Bn3  v092
 BYTE   N16  Dn4  v100
 BYTE   N16  Fn4  v112
 BYTE   W16
 BYTE   Bn3  v092
 BYTE   N16  Dn4  v100
 BYTE   N16  Gn4  v112
 BYTE   W16
 BYTE   Dn4  v092
 BYTE   N16  Fn4  v100
 BYTE   N16  An4  v112
 BYTE   W16
 BYTE   N44  Dn4  v092
 BYTE   N44  Gn4  v100
 BYTE   N44  Bn4  v112
 BYTE   W48
// 033   ----------------------------------------
 BYTE   W48
 BYTE   TEMPO   136*song0149_tbs/2
 BYTE   W44
 BYTE   W02
 BYTE   W01
 BYTE   GoTo
  POIN2 Label_0_01490532
// 034   ----------------------------------------
 BYTE   PAN   c_v+10
 BYTE   BEND   c_v+0
 BYTE   FINE

//**************** Track 2 (Midi-Chn.1) ****************//

song0149_002:
// 000   ----------------------------------------
 BYTE   KEYSH   song0149_key+0
Label_1_014907F2:
 BYTE   VOICE   0
 BYTE   PAN   c_v-10
 BYTE   VOL   25*song0149_mvl/mxv
 BYTE   BEND   c_v+0
 BYTE   N92  Cn2  v112
 BYTE   W12
 BYTE   N80  Gn2  v092
 BYTE   W13
 BYTE   N68  Cn3
 BYTE   W68
 BYTE   W01
 BYTE   W02
// 001   ----------------------------------------
 BYTE   N92  As1  v112
 BYTE   W12
 BYTE   N80  Fn2  v092
 BYTE   W13
 BYTE   N68  As2
 BYTE   W68
 BYTE   W01
 BYTE   W02
// 002   ----------------------------------------
 BYTE   N92  Gs1
 BYTE   W12
 BYTE   Ds2  v060
 BYTE   W13
 BYTE   N68  Gs2
 BYTE   W68
 BYTE   W01
 BYTE   W02
// 003   ----------------------------------------
 BYTE   N92  Gs1
 BYTE   W11
 BYTE   N80  Ds2
 BYTE   W12
 BYTE   N68  As2
 BYTE   W13
 BYTE   N56  Cn3  v080
 BYTE   W56
 BYTE   W02
 BYTE   W02
// 004   ----------------------------------------
 BYTE   N92  Fn1  v092
 BYTE   W12
 BYTE   N80  Cn2  v072
 BYTE   W12
 BYTE   N68  Fn2
 BYTE   W11
 BYTE   N56  Gs2  v092
 BYTE   W56
 BYTE   W03
 BYTE   W02
// 005   ----------------------------------------
 BYTE   N92  Fn1
 BYTE   W12
 BYTE   N80  Cn2  v072
 BYTE   W12
 BYTE   N68  Fn2  v092
 BYTE   W11
 BYTE   N56  Gs2  v100
 BYTE   W56
 BYTE   W03
 BYTE   W02
// 006   ----------------------------------------
 BYTE   N92  Gn1  v112
 BYTE   W12
 BYTE   N80  Dn2  v092
 BYTE   W12
 BYTE   N68  An2
 BYTE   W11
 BYTE   N56  Bn2
 BYTE   W56
 BYTE   W03
 BYTE   W02
// 007   ----------------------------------------
 BYTE   N92  Gn1
 BYTE   W12
 BYTE   N80  Dn2
 BYTE   W12
 BYTE   N68  An2
 BYTE   W11
 BYTE   N56  Bn2
 BYTE   W56
 BYTE   W03
 BYTE   W02
// 008   ----------------------------------------
 BYTE   N11  Cn2
 BYTE   W12
 BYTE   Gn2  v072
 BYTE   W11
 BYTE   Ds3  v100
 BYTE   W13
 BYTE   Gn2  v072
 BYTE   W11
 BYTE   Dn3  v092
 BYTE   W13
 BYTE   Gn2  v072
 BYTE   W11
 BYTE   Cn3  v080
 BYTE   W13
 BYTE   Gn2  v072
 BYTE   W10
 BYTE   W02
// 009   ----------------------------------------
 BYTE   Gs1  v112
 BYTE   W12
 BYTE   Ds2  v072
 BYTE   W12
 BYTE   Gs2  v092
 BYTE   W12
 BYTE   As2  v072
 BYTE   W12
 BYTE   N23  Cn3
 BYTE   N23  Ds3  v080
 BYTE   W24
 BYTE   W01
 BYTE   N22  As2  v060
 BYTE   N22  Dn3  v072
 BYTE   W21
 BYTE   W02
// 010   ----------------------------------------
 BYTE   N11  As1  v100
 BYTE   W12
 BYTE   Fn2  v072
 BYTE   W11
 BYTE   As2  v092
 BYTE   W13
 BYTE   Fn2  v072
 BYTE   W11
 BYTE   Dn3  v100
 BYTE   W13
 BYTE   Fn2  v072
 BYTE   W11
 BYTE   As2  v092
 BYTE   W13
 BYTE   Fn2
 BYTE   W10
 BYTE   W02
// 011   ----------------------------------------
 BYTE   Gn1  v112
 BYTE   W12
 BYTE   Dn2  v092
 BYTE   W12
 BYTE   An2  v080
 BYTE   W12
 BYTE   Bn2
 BYTE   W12
 BYTE   Dn3  v040
 BYTE   W12
 BYTE   An2  v072
 BYTE   W12
 BYTE   Bn2
 BYTE   W12
 BYTE   Dn3  v112
 BYTE   W10
 BYTE   W02
// 012   ----------------------------------------
 BYTE   Cn2
 BYTE   W12
 BYTE   Gn2  v072
 BYTE   W11
 BYTE   Ds3  v100
 BYTE   W13
 BYTE   Gn2  v072
 BYTE   W11
 BYTE   Dn3  v092
 BYTE   W13
 BYTE   Gn2  v072
 BYTE   W11
 BYTE   Cn3  v080
 BYTE   W13
 BYTE   Gn2  v072
 BYTE   W10
 BYTE   W02
// 013   ----------------------------------------
 BYTE   Gs1  v112
 BYTE   W12
 BYTE   Ds2  v072
 BYTE   W12
 BYTE   Gs2  v092
 BYTE   W12
 BYTE   As2  v072
 BYTE   W12
 BYTE   N23  Cn3
 BYTE   N23  Ds3  v080
 BYTE   W24
 BYTE   As2  v060
 BYTE   N23  Dn3  v072
 BYTE   W22
 BYTE   W02
// 014   ----------------------------------------
 BYTE   N11  As1  v100
 BYTE   W12
 BYTE   Fn2  v072
 BYTE   W12
 BYTE   As2  v092
 BYTE   W12
 BYTE   Fn2  v072
 BYTE   W12
 BYTE   Dn3  v100
 BYTE   W12
 BYTE   Fn2  v072
 BYTE   W12
 BYTE   As2  v092
 BYTE   W12
 BYTE   Fn2
 BYTE   W10
 BYTE   W02
// 015   ----------------------------------------
Label_1_0149091C:
 BYTE   N11  Cn2  v112
 BYTE   W12
 BYTE   Gn2  v072
 BYTE   W12
 BYTE   Ds3  v100
 BYTE   W12
 BYTE   Gn2  v072
 BYTE   W12
 BYTE   Dn3  v092
 BYTE   W12
 BYTE   Gn2  v072
 BYTE   W12
 BYTE   Cn3  v080
 BYTE   W12
 BYTE   Gn2  v072
 BYTE   W10
 BYTE   W02
 BYTE   PEND 
// 016   ----------------------------------------
 BYTE   Gs1  v100
 BYTE   N11  Ds2
 BYTE   N11  Gs2  v112
 BYTE   W12
 BYTE   Gs1  v080
 BYTE   W12
 BYTE   Ds2
 BYTE   W12
 BYTE   Gs2  v092
 BYTE   W12
 BYTE   N44  Cn3
 BYTE   N44  Ds3  v100
 BYTE   W44
 BYTE   W02
 BYTE   W02
// 017   ----------------------------------------
 BYTE   N11  As1
 BYTE   N11  Fn2
 BYTE   N11  As2  v112
 BYTE   W12
 BYTE   As1  v080
 BYTE   W12
 BYTE   Fn2
 BYTE   W12
 BYTE   As2  v092
 BYTE   W12
 BYTE   N23  Dn3  v100
 BYTE   N23  Fn3  v112
 BYTE   W24
 BYTE   As2  v092
 BYTE   N23  Dn3  v100
 BYTE   W22
 BYTE   W02
// 018   ----------------------------------------
Label_1_0149096D:
 BYTE   N11  Cn2  v112
 BYTE   W12
 BYTE   Gn2  v072
 BYTE   W12
 BYTE   Fn3  v100
 BYTE   W12
 BYTE   Gn2  v072
 BYTE   W12
 BYTE   Ds3  v092
 BYTE   W12
 BYTE   Gn2  v072
 BYTE   W12
 BYTE   Dn3  v080
 BYTE   W12
 BYTE   Gn2  v072
 BYTE   W10
 BYTE   W02
 BYTE   PEND 
// 019   ----------------------------------------
 BYTE   PATT
  POIN2 Label_1_0149091C
// 020   ----------------------------------------
 BYTE   N11  Gs1  v080
 BYTE   N11  Ds2
 BYTE   N11  Gs2  v092
 BYTE   W12
 BYTE   Gs1  v080
 BYTE   W12
 BYTE   Ds2
 BYTE   W12
 BYTE   Gs2  v092
 BYTE   W12
 BYTE   N44  Cn3
 BYTE   N44  Ds3  v100
 BYTE   W44
 BYTE   W02
 BYTE   W02
// 021   ----------------------------------------
Label_1_014909A6:
 BYTE   N11  As1  v092
 BYTE   N11  Fn2
 BYTE   N11  As2  v100
 BYTE   W12
 BYTE   As1  v080
 BYTE   W12
 BYTE   Fn2
 BYTE   W12
 BYTE   As2  v092
 BYTE   W12
 BYTE   N23  Dn3  v100
 BYTE   N23  Fn3  v112
 BYTE   W24
 BYTE   As2  v092
 BYTE   N23  Dn3  v100
 BYTE   W22
 BYTE   W02
 BYTE   PEND 
// 022   ----------------------------------------
 BYTE   PATT
  POIN2 Label_1_0149096D
// 023   ----------------------------------------
 BYTE   N11  Cn2  v112
 BYTE   W24
 BYTE   Gn2  v100
 BYTE   W24
 BYTE   Dn3
 BYTE   N11  Fn3  v112
 BYTE   W24
 BYTE   Cn3  v092
 BYTE   N11  Ds3  v100
 BYTE   W22
 BYTE   W02
// 024   ----------------------------------------
Label_1_014909DE:
 BYTE   N11  Gs1  v092
 BYTE   N11  Ds2
 BYTE   N11  Gs2  v100
 BYTE   W12
 BYTE   Gs1  v080
 BYTE   W12
 BYTE   Ds2
 BYTE   W12
 BYTE   Gs2  v092
 BYTE   W12
 BYTE   N44  Cn3
 BYTE   N44  Ds3  v100
 BYTE   W44
 BYTE   W02
 BYTE   W02
 BYTE   PEND 
// 025   ----------------------------------------
 BYTE   PATT
  POIN2 Label_1_014909A6
// 026   ----------------------------------------
 BYTE   PATT
  POIN2 Label_1_0149096D
// 027   ----------------------------------------
 BYTE   PATT
  POIN2 Label_1_0149091C
// 028   ----------------------------------------
 BYTE   PATT
  POIN2 Label_1_014909DE
// 029   ----------------------------------------
 BYTE   PATT
  POIN2 Label_1_014909A6
// 030   ----------------------------------------
 BYTE   PATT
  POIN2 Label_1_0149096D
// 031   ----------------------------------------
 BYTE   N23  Gn1  v100
 BYTE   W24
 BYTE   Dn2  v092
 BYTE   W24
 BYTE   Gn2  v112
 BYTE   W24
 BYTE   Bn2
 BYTE   W22
 BYTE   W02
// 032   ----------------------------------------
 BYTE   N11  Gn1
 BYTE   W12
 BYTE   Dn2  v080
 BYTE   W12
 BYTE   An2  v092
 BYTE   W12
 BYTE   Dn2  v080
 BYTE   W12
 BYTE   N22  Dn2  v100
 BYTE   N22  Gn2
 BYTE   N22  Bn2  v112
 BYTE   W24
 BYTE   Dn2  v080
 BYTE   N22  Gn2
 BYTE   N22  Bn2  v092
 BYTE   W24
// 033   ----------------------------------------
 BYTE   Dn2  v060
 BYTE   N22  Gn2
 BYTE   N22  Bn2  v072
 BYTE   W24
 BYTE   Dn2  v040
 BYTE   N22  Gn2
 BYTE   N22  Bn2  v052
 BYTE   W24
 BYTE   N44  Dn2  v020
 BYTE   N44  Gn2
 BYTE   N44  Bn2  v032
 BYTE   W44
 BYTE   W01
 BYTE   VOICE   29
 BYTE   W01
 BYTE   VOL   18*song0149_mvl/mxv
 BYTE   PAN   c_v-64
 BYTE   W01
 BYTE   GoTo
  POIN2 Label_1_014907F2
 BYTE   FINE

//**************** Track 3 (Midi-Chn.2) ****************//

song0149_003:
// 000   ----------------------------------------
 BYTE   KEYSH   song0149_key+0
Label_2_01490A6A:
 BYTE   VOICE   1
 BYTE   PAN   c_v+30
 BYTE   VOL   20*song0149_mvl/mxv
 BYTE   BEND   c_v+0
 BYTE   N92  Ds3  v092
 BYTE   W02
 BYTE   Gn3
 BYTE   W02
 BYTE   N32  Dn4  v100
 BYTE   W32
 BYTE   N10  Cn4  v112
 BYTE   W12
 BYTE   N10
 BYTE   W44
 BYTE   W02
 BYTE   W02
// 001   ----------------------------------------
 BYTE   N15  Ds3  v100
 BYTE   N15  Ds4  v112
 BYTE   W16
 BYTE   Fn3  v100
 BYTE   N15  Fn4  v112
 BYTE   W16
 BYTE   Gn3  v100
 BYTE   N15  Gn4  v112
 BYTE   W16
 BYTE   Gn3  v100
 BYTE   N15  Gn4  v112
 BYTE   W16
 BYTE   Fn3  v100
 BYTE   N15  Fn4  v112
 BYTE   W16
 BYTE   As2  v100
 BYTE   N15  As3  v112
 BYTE   W14
 BYTE   W02
// 002   ----------------------------------------
 BYTE   TIE  Ds3  v080
 BYTE   W02
 BYTE   Gn3
 BYTE   W02
 BYTE   Dn4  v100
 BYTE   W32
 BYTE   Cn4  v092
 BYTE   W36
 BYTE   N36  Gn4  v100
 BYTE   W24
// 003   ----------------------------------------
 BYTE   W12
 BYTE   N11  Gn4  v080
 BYTE   W12
 BYTE   Dn5
 BYTE   W12
 BYTE   Cn5
 BYTE   W12
 BYTE   N44  Gs3  v112
 BYTE   W24
 BYTE   N22  As3
 BYTE   W22
 BYTE   EOT
 BYTE   Ds3  v067
 BYTE   Cn4  v074
 BYTE   W02
// 004   ----------------------------------------
 BYTE   N44  Cn4
 BYTE   W48
 BYTE   N05  Gs3  v092
 BYTE   W06
 BYTE   As3
 BYTE   W06
 BYTE   Cn4  v100
 BYTE   W06
 BYTE   Dn4  v112
 BYTE   W05
 BYTE   Ds4  v092
 BYTE   W06
 BYTE   As3
 BYTE   W06
 BYTE   Cn4
 BYTE   W06
 BYTE   Dn4
 BYTE   W05
 BYTE   W01
 BYTE   Cn4
 BYTE   W01
// 005   ----------------------------------------
 BYTE   W05
 BYTE   Dn4  v100
 BYTE   W06
 BYTE   Ds4  v112
 BYTE   W06
 BYTE   Fn4
 BYTE   W06
 BYTE   N56  Gn4
 BYTE   W60
 BYTE   W01
 BYTE   N05  Fn4
 BYTE   W06
 BYTE   Ds4
 BYTE   W04
 BYTE   W02
// 006   ----------------------------------------
 BYTE   N17  Fn4
 BYTE   W18
 BYTE   N52  Gn4
 BYTE   W54
 BYTE   N17  Fn3
 BYTE   W18
 BYTE   TIE  Gn3
 BYTE   W04
 BYTE   W02
// 007   ----------------------------------------
 BYTE   W92
 BYTE   W01
 BYTE   EOT
 BYTE   W01
 BYTE   W02
// 008   ----------------------------------------
 BYTE   N32  Ds3  v072
 BYTE   W01
 BYTE   Gn3  v092
 BYTE   W01
 BYTE   N30  Cn4  v112
 BYTE   W32
 BYTE   W02
 BYTE   N05  As3  v092
 BYTE   W06
 BYTE   Cn4  v100
 BYTE   W06
 BYTE   N44  Gn3  v092
 BYTE   W44
 BYTE   W02
 BYTE   W02
// 009   ----------------------------------------
 BYTE   N10  Ds3
 BYTE   N10  Gn3
 BYTE   N10  Cn4  v100
 BYTE   W12
 BYTE   N80  Ds3  v072
 BYTE   N80  Gn3  v092
 BYTE   N28  Cn4  v112
 BYTE   W24
 BYTE   N05  As3  v092
 BYTE   W06
 BYTE   Cn4  v100
 BYTE   W06
 BYTE   N15
 BYTE   N15  Ds4  v112
 BYTE   W16
 BYTE   As3  v100
 BYTE   N15  Dn4  v112
 BYTE   W16
 BYTE   Gs3  v100
 BYTE   N15  Cn4  v112
 BYTE   W14
 BYTE   W02
// 010   ----------------------------------------
 BYTE   N32  Fn4
 BYTE   W36
 BYTE   N05  Ds4
 BYTE   W06
 BYTE   Fn4
 BYTE   W06
 BYTE   N32  Dn4
 BYTE   W36
 BYTE   N32
 BYTE   W10
 BYTE   W02
// 011   ----------------------------------------
 BYTE   W24
 BYTE   N11  Ds4
 BYTE   W12
 BYTE   N23  Fn4
 BYTE   W24
 BYTE   N11  Gs4
 BYTE   W12
 BYTE   Gn4
 BYTE   W12
 BYTE   Fn4
 BYTE   W10
 BYTE   W02
// 012   ----------------------------------------
 BYTE   N32  Ds3  v072
 BYTE   N32  Gn3  v092
 BYTE   W01
 BYTE   Cn4  v112
 BYTE   W32
 BYTE   W03
 BYTE   N05  As3  v092
 BYTE   W06
 BYTE   Cn4  v100
 BYTE   W06
 BYTE   N44  Gn3  v092
 BYTE   W44
 BYTE   W02
 BYTE   W02
// 013   ----------------------------------------
 BYTE   N32  Cn4  v100
 BYTE   W36
 BYTE   N05  As3  v092
 BYTE   W06
 BYTE   Cn4
 BYTE   W06
 BYTE   N15  Ds4  v112
 BYTE   W16
 BYTE   Fn4
 BYTE   W16
 BYTE   Gn4
 BYTE   W14
 BYTE   W02
// 014   ----------------------------------------
 BYTE   N44  Fn4
 BYTE   W48
 BYTE   As4
 BYTE   W44
 BYTE   W02
 BYTE   W02
// 015   ----------------------------------------
 BYTE   N92  Cn5
 BYTE   W92
 BYTE   W02
 BYTE   W02
// 016   ----------------------------------------
 BYTE   N68  Cn4
 BYTE   W72
 BYTE   N23  Ds4  v120
 BYTE   W22
 BYTE   W02
// 017   ----------------------------------------
 BYTE   N68  Dn4
 BYTE   W72
 BYTE   N05  Gn4
 BYTE   W06
 BYTE   Fn4  v112
 BYTE   W06
 BYTE   Ds4  v100
 BYTE   W06
 BYTE   Dn4  v080
 BYTE   W04
 BYTE   W02
// 018   ----------------------------------------
Label_2_01490BC0:
 BYTE   N92  Cn4  v072
 BYTE   W02
 BYTE   Ds4  v080
 BYTE   W92
 BYTE   W02
 BYTE   PEND 
// 019   ----------------------------------------
 BYTE   Ds3  v060
 BYTE   N92  Gn3
 BYTE   N44  Cn4  v072
 BYTE   W48
 BYTE   N22  Cn4  v100
 BYTE   W24
 BYTE   As3  v092
 BYTE   W22
 BYTE   W02
// 020   ----------------------------------------
Label_2_01490BD9:
 BYTE   N44  Gs3  v092
 BYTE   W48
 BYTE   N22  As3
 BYTE   W24
 BYTE   Cn4  v100
 BYTE   W22
 BYTE   W02
 BYTE   PEND 
// 021   ----------------------------------------
 BYTE   N44  Dn4
 BYTE   W48
 BYTE   N23  Ds4  v092
 BYTE   W24
 BYTE   Fn4  v080
 BYTE   W22
 BYTE   W02
// 022   ----------------------------------------
 BYTE   N17  Cn4  v092
 BYTE   W01
 BYTE   Dn4  v100
 BYTE   W01
 BYTE   Fn4  v120
 BYTE   W16
 BYTE   N64  Ds4  v100
 BYTE   W64
 BYTE   W01
 BYTE   W01
 BYTE   N05  Dn4  v080
 BYTE   W06
 BYTE   Ds4  v092
 BYTE   W06
// 023   ----------------------------------------
 BYTE   Fn4  v100
 BYTE   W06
 BYTE   Dn4  v072
 BYTE   W06
 BYTE   Ds4  v080
 BYTE   W06
 BYTE   Fn4  v092
 BYTE   W06
 BYTE   Dn4  v060
 BYTE   W06
 BYTE   Ds4  v072
 BYTE   W06
 BYTE   Fn4  v080
 BYTE   W06
 BYTE   Dn4  v072
 BYTE   W06
 BYTE   Ds4  v080
 BYTE   W06
 BYTE   Fn4  v092
 BYTE   W06
 BYTE   Dn4  v072
 BYTE   W06
 BYTE   Ds4  v080
 BYTE   W06
 BYTE   Fn4  v092
 BYTE   W06
 BYTE   Dn4  v100
 BYTE   W06
 BYTE   Ds4  v112
 BYTE   W06
 BYTE   Fn4
 BYTE   W04
 BYTE   W02
// 024   ----------------------------------------
 BYTE   N68  Ds3  v080
 BYTE   N68  Gs3  v092
 BYTE   W01
 BYTE   N66  Cn4  v112
 BYTE   W68
 BYTE   W03
 BYTE   N23  Ds4
 BYTE   W22
 BYTE   W02
// 025   ----------------------------------------
 BYTE   N68  Dn4  v100
 BYTE   W72
 BYTE   N05  Gn4  v112
 BYTE   W06
 BYTE   Fn4  v092
 BYTE   W06
 BYTE   Ds4  v080
 BYTE   W06
 BYTE   Dn4  v072
 BYTE   W04
 BYTE   W02
// 026   ----------------------------------------
 BYTE   PATT
  POIN2 Label_2_01490BC0
// 027   ----------------------------------------
 BYTE   N92  Ds3  v060
 BYTE   N72  Gn3
 BYTE   N44  Cn4  v072
 BYTE   W48
 BYTE   N22  Fn3  v100
 BYTE   W24
 BYTE   Gn3  v112
 BYTE   W22
 BYTE   W02
// 028   ----------------------------------------
 BYTE   PATT
  POIN2 Label_2_01490BD9
// 029   ----------------------------------------
 BYTE   N44  Dn4  v100
 BYTE   W48
 BYTE   N23  Ds4
 BYTE   W24
 BYTE   Fn4  v112
 BYTE   W22
 BYTE   W02
// 030   ----------------------------------------
 BYTE   N92  Ds4  v100
 BYTE   W06
 BYTE   N88  Dn4  v092
 BYTE   W06
 BYTE   N80  Cn4  v112
 BYTE   W80
 BYTE   W02
 BYTE   W02
// 031   ----------------------------------------
 BYTE   N16  Dn3  v092
 BYTE   N16  Gn3  v100
 BYTE   N16  Bn3  v112
 BYTE   W16
 BYTE   Dn3  v092
 BYTE   N16  An3  v100
 BYTE   N16  Cn4  v112
 BYTE   W16
 BYTE   Gn3  v092
 BYTE   N16  Bn3  v100
 BYTE   N16  Dn4  v112
 BYTE   W16
 BYTE   Gn3  v092
 BYTE   N16  Bn3  v100
 BYTE   N16  Dn4  v112
 BYTE   W16
 BYTE   Gn3  v092
 BYTE   N16  Cn4  v100
 BYTE   N16  Ds4  v112
 BYTE   W16
 BYTE   Bn3  v092
 BYTE   N16  Dn4  v100
 BYTE   N16  Fn4  v112
 BYTE   W14
 BYTE   W02
// 032   ----------------------------------------
 BYTE   Bn3  v092
 BYTE   N16  Dn4  v100
 BYTE   N16  Fn4  v112
 BYTE   W16
 BYTE   Bn3  v092
 BYTE   N16  Dn4  v100
 BYTE   N16  Gn4  v112
 BYTE   W16
 BYTE   Dn4  v092
 BYTE   N16  Fn4  v100
 BYTE   N16  An4  v112
 BYTE   W16
 BYTE   N44  Dn4  v092
 BYTE   N44  Gn4  v100
 BYTE   N44  Bn4  v112
 BYTE   W48
// 033   ----------------------------------------
 BYTE   W92
 BYTE   W02
 BYTE   W01
 BYTE   GoTo
  POIN2 Label_2_01490A6A
// 034   ----------------------------------------
 BYTE   VOL   23*song0149_mvl/mxv
 BYTE   PAN   c_v-30
 BYTE   FINE

//**************** Track 4 (Midi-Chn.3) ****************//

song0149_004:
// 000   ----------------------------------------
 BYTE   KEYSH   song0149_key+0
Label_3_01490CFA:
 BYTE   VOICE   1
 BYTE   PAN   c_v-30
 BYTE   VOL   18*song0149_mvl/mxv
 BYTE   MOD 0
 BYTE   N92  Cn2  v112
 BYTE   W12
 BYTE   N80  Gn2  v092
 BYTE   W13
 BYTE   N68  Cn3
 BYTE   W68
 BYTE   W01
 BYTE   W02
// 001   ----------------------------------------
 BYTE   N92  As1  v112
 BYTE   W12
 BYTE   N80  Fn2  v092
 BYTE   W13
 BYTE   N68  As2
 BYTE   W68
 BYTE   W01
 BYTE   W02
// 002   ----------------------------------------
 BYTE   N92  Gs1
 BYTE   W12
 BYTE   Ds2  v060
 BYTE   W13
 BYTE   N68  Gs2
 BYTE   W68
 BYTE   W01
 BYTE   W02
// 003   ----------------------------------------
 BYTE   N92  Gs1
 BYTE   W11
 BYTE   N80  Ds2
 BYTE   W12
 BYTE   N68  As2
 BYTE   W13
 BYTE   N56  Cn3  v080
 BYTE   W56
 BYTE   W02
 BYTE   W02
// 004   ----------------------------------------
 BYTE   N92  Fn1  v092
 BYTE   W12
 BYTE   N80  Cn2  v072
 BYTE   W12
 BYTE   N68  Fn2
 BYTE   W11
 BYTE   N56  Gs2  v092
 BYTE   W56
 BYTE   W03
 BYTE   W02
// 005   ----------------------------------------
 BYTE   N92  Fn1
 BYTE   W12
 BYTE   N80  Cn2  v072
 BYTE   W12
 BYTE   N68  Fn2  v092
 BYTE   W11
 BYTE   N56  Gs2  v100
 BYTE   W56
 BYTE   W03
 BYTE   W02
// 006   ----------------------------------------
 BYTE   N92  Gn1  v112
 BYTE   W12
 BYTE   N80  Dn2  v092
 BYTE   W12
 BYTE   N68  An2
 BYTE   W11
 BYTE   N56  Bn2
 BYTE   W56
 BYTE   W03
 BYTE   W02
// 007   ----------------------------------------
 BYTE   N92  Gn1
 BYTE   W12
 BYTE   N80  Dn2
 BYTE   W12
 BYTE   N68  An2
 BYTE   W11
 BYTE   N56  Bn2
 BYTE   W56
 BYTE   W03
 BYTE   W02
// 008   ----------------------------------------
 BYTE   N11  Cn2
 BYTE   W12
 BYTE   Gn2  v072
 BYTE   W11
 BYTE   Ds3  v100
 BYTE   W13
 BYTE   Gn2  v072
 BYTE   W11
 BYTE   Dn3  v092
 BYTE   W13
 BYTE   Gn2  v072
 BYTE   W11
 BYTE   Cn3  v080
 BYTE   W13
 BYTE   Gn2  v072
 BYTE   W10
 BYTE   W02
// 009   ----------------------------------------
 BYTE   Gs1  v112
 BYTE   W12
 BYTE   Ds2  v072
 BYTE   W12
 BYTE   Gs2  v092
 BYTE   W12
 BYTE   As2  v072
 BYTE   W12
 BYTE   N23  Cn3
 BYTE   N23  Ds3  v080
 BYTE   W24
 BYTE   W01
 BYTE   N22  As2  v060
 BYTE   N22  Dn3  v072
 BYTE   W21
 BYTE   W02
// 010   ----------------------------------------
 BYTE   N11  As1  v100
 BYTE   W12
 BYTE   Fn2  v072
 BYTE   W11
 BYTE   As2  v092
 BYTE   W13
 BYTE   Fn2  v072
 BYTE   W11
 BYTE   Dn3  v100
 BYTE   W13
 BYTE   Fn2  v072
 BYTE   W11
 BYTE   As2  v092
 BYTE   W13
 BYTE   Fn2
 BYTE   W10
 BYTE   W02
// 011   ----------------------------------------
 BYTE   Gn1  v112
 BYTE   W12
 BYTE   Dn2  v092
 BYTE   W12
 BYTE   An2  v080
 BYTE   W12
 BYTE   Bn2
 BYTE   W12
 BYTE   Dn3  v040
 BYTE   W12
 BYTE   An2  v072
 BYTE   W12
 BYTE   Bn2
 BYTE   W12
 BYTE   Dn3  v112
 BYTE   W10
 BYTE   W02
// 012   ----------------------------------------
 BYTE   Cn2
 BYTE   W12
 BYTE   Gn2  v072
 BYTE   W11
 BYTE   Ds3  v100
 BYTE   W13
 BYTE   Gn2  v072
 BYTE   W11
 BYTE   Dn3  v092
 BYTE   W13
 BYTE   Gn2  v072
 BYTE   W11
 BYTE   Cn3  v080
 BYTE   W13
 BYTE   Gn2  v072
 BYTE   W10
 BYTE   W02
// 013   ----------------------------------------
 BYTE   Gs1  v112
 BYTE   W12
 BYTE   Ds2  v072
 BYTE   W12
 BYTE   Gs2  v092
 BYTE   W12
 BYTE   As2  v072
 BYTE   W12
 BYTE   N23  Cn3
 BYTE   N23  Ds3  v080
 BYTE   W24
 BYTE   As2  v060
 BYTE   N23  Dn3  v072
 BYTE   W22
 BYTE   W02
// 014   ----------------------------------------
 BYTE   N11  As1  v100
 BYTE   W12
 BYTE   Fn2  v072
 BYTE   W12
 BYTE   As2  v092
 BYTE   W12
 BYTE   Fn2  v072
 BYTE   W12
 BYTE   Dn3  v100
 BYTE   W12
 BYTE   Fn2  v072
 BYTE   W12
 BYTE   As2  v092
 BYTE   W12
 BYTE   Fn2
 BYTE   W10
 BYTE   W02
// 015   ----------------------------------------
Label_3_01490E24:
 BYTE   N11  Cn2  v112
 BYTE   W12
 BYTE   Gn2  v072
 BYTE   W12
 BYTE   Ds3  v100
 BYTE   W12
 BYTE   Gn2  v072
 BYTE   W12
 BYTE   Dn3  v092
 BYTE   W12
 BYTE   Gn2  v072
 BYTE   W12
 BYTE   Cn3  v080
 BYTE   W12
 BYTE   Gn2  v072
 BYTE   W10
 BYTE   W02
 BYTE   PEND 
// 016   ----------------------------------------
 BYTE   Gs1  v100
 BYTE   N11  Ds2
 BYTE   N11  Gs2  v112
 BYTE   W12
 BYTE   Gs1  v080
 BYTE   W12
 BYTE   Ds2
 BYTE   W12
 BYTE   Gs2  v092
 BYTE   W12
 BYTE   N44  Cn3
 BYTE   N44  Ds3  v100
 BYTE   W44
 BYTE   W02
 BYTE   W02
// 017   ----------------------------------------
 BYTE   N11  As1
 BYTE   N11  Fn2
 BYTE   N11  As2  v112
 BYTE   W12
 BYTE   As1  v080
 BYTE   W12
 BYTE   Fn2
 BYTE   W12
 BYTE   As2  v092
 BYTE   W12
 BYTE   N23  Dn3  v100
 BYTE   N23  Fn3  v112
 BYTE   W24
 BYTE   As2  v092
 BYTE   N23  Dn3  v100
 BYTE   W22
 BYTE   W02
// 018   ----------------------------------------
Label_3_01490E75:
 BYTE   N11  Cn2  v112
 BYTE   W12
 BYTE   Gn2  v072
 BYTE   W12
 BYTE   Fn3  v100
 BYTE   W12
 BYTE   Gn2  v072
 BYTE   W12
 BYTE   Ds3  v092
 BYTE   W12
 BYTE   Gn2  v072
 BYTE   W12
 BYTE   Dn3  v080
 BYTE   W12
 BYTE   Gn2  v072
 BYTE   W10
 BYTE   W02
 BYTE   PEND 
// 019   ----------------------------------------
 BYTE   PATT
  POIN2 Label_3_01490E24
// 020   ----------------------------------------
 BYTE   N11  Gs1  v080
 BYTE   N11  Ds2
 BYTE   N11  Gs2  v092
 BYTE   W12
 BYTE   Gs1  v080
 BYTE   W12
 BYTE   Ds2
 BYTE   W12
 BYTE   Gs2  v092
 BYTE   W12
 BYTE   N44  Cn3
 BYTE   N44  Ds3  v100
 BYTE   W44
 BYTE   W02
 BYTE   W02
// 021   ----------------------------------------
Label_3_01490EAE:
 BYTE   N11  As1  v092
 BYTE   N11  Fn2
 BYTE   N11  As2  v100
 BYTE   W12
 BYTE   As1  v080
 BYTE   W12
 BYTE   Fn2
 BYTE   W12
 BYTE   As2  v092
 BYTE   W12
 BYTE   N23  Dn3  v100
 BYTE   N23  Fn3  v112
 BYTE   W24
 BYTE   As2  v092
 BYTE   N23  Dn3  v100
 BYTE   W22
 BYTE   W02
 BYTE   PEND 
// 022   ----------------------------------------
 BYTE   PATT
  POIN2 Label_3_01490E75
// 023   ----------------------------------------
 BYTE   N11  Cn2  v112
 BYTE   W24
 BYTE   Gn2  v100
 BYTE   W24
 BYTE   Dn3
 BYTE   N11  Fn3  v112
 BYTE   W24
 BYTE   Cn3  v092
 BYTE   N11  Ds3  v100
 BYTE   W22
 BYTE   W02
// 024   ----------------------------------------
Label_3_01490EE6:
 BYTE   N11  Gs1  v092
 BYTE   N11  Ds2
 BYTE   N11  Gs2  v100
 BYTE   W12
 BYTE   Gs1  v080
 BYTE   W12
 BYTE   Ds2
 BYTE   W12
 BYTE   Gs2  v092
 BYTE   W12
 BYTE   N44  Cn3
 BYTE   N44  Ds3  v100
 BYTE   W44
 BYTE   W02
 BYTE   W02
 BYTE   PEND 
// 025   ----------------------------------------
 BYTE   PATT
  POIN2 Label_3_01490EAE
// 026   ----------------------------------------
 BYTE   PATT
  POIN2 Label_3_01490E75
// 027   ----------------------------------------
 BYTE   PATT
  POIN2 Label_3_01490E24
// 028   ----------------------------------------
 BYTE   PATT
  POIN2 Label_3_01490EE6
// 029   ----------------------------------------
 BYTE   PATT
  POIN2 Label_3_01490EAE
// 030   ----------------------------------------
 BYTE   PATT
  POIN2 Label_3_01490E75
// 031   ----------------------------------------
 BYTE   N23  Gn1  v100
 BYTE   W24
 BYTE   Dn2  v092
 BYTE   W24
 BYTE   Gn2  v112
 BYTE   W24
 BYTE   Bn2
 BYTE   W22
 BYTE   W02
// 032   ----------------------------------------
 BYTE   N11  Gn1
 BYTE   W12
 BYTE   Dn2  v080
 BYTE   W12
 BYTE   An2  v092
 BYTE   W12
 BYTE   Dn2  v080
 BYTE   W12
 BYTE   N22  Dn2  v100
 BYTE   N22  Gn2
 BYTE   N22  Bn2  v112
 BYTE   W24
 BYTE   Dn2  v080
 BYTE   N22  Gn2
 BYTE   N22  Bn2  v092
 BYTE   W24
// 033   ----------------------------------------
 BYTE   Dn2  v060
 BYTE   N22  Gn2
 BYTE   N22  Bn2  v072
 BYTE   W24
 BYTE   Dn2  v040
 BYTE   N22  Gn2
 BYTE   N22  Bn2  v052
 BYTE   W24
 BYTE   Dn2  v020
 BYTE   N22  Gn2
 BYTE   N22  Bn2  v032
 BYTE   W44
 BYTE   W02
 BYTE   BEND   c_v+0
 BYTE   W01
 BYTE   GoTo
  POIN2 Label_3_01490CFA
 BYTE   FINE

//******************************************************//
	ALIGN 4

song0149:
	BYTE	4	// NumTrks
	BYTE	0	// NumBlks
	BYTE	song0149_pri	// Priority
	BYTE	song0149_rev	// Reverb.
    
	POIN2	song0149_grp
    
	POIN2	song0149_001
	POIN2	song0149_002
	POIN2	song0149_003
	POIN2	song0149_004

	
