//Event file generated from Sappy .s format.
	#include "MPlayDef.event"

	#define	songC4_grp  voicegroup001
	#define	songC4_pri  0
	#define	songC4_rev  0
	#define	songC4_mvl  127
	#define	songC4_key  0
	#define	songC4_tbs  1
	#define	songC4_exg  0
	#define	songC4_cmp  1

	// .rodata
	//	songC4
	ALIGN 4


//**************** Track 1 (Midi-Chn.0) ****************//

songC4_001:
// 000   ----------------------------------------
 BYTE   KEYSH   songC4_key+0
Label_0_01201186:
 BYTE   TEMPO   140*songC4_tbs/2
 BYTE   VOICE   62
 BYTE   VOL   25*songC4_mvl/mxv
 BYTE   PAN   c_v+0
 BYTE   BEND   c_v+0
 BYTE   W01
 BYTE   N78  Cn3  v127
 BYTE   N78  Ds3
 BYTE   N78  Gn3
 BYTE   W84
 BYTE   TIE  Cn3
 BYTE   TIE  Ds3
 BYTE   TIE  Gs3
 BYTE   W11
// 001   ----------------------------------------
 BYTE   W90
 BYTE   EOT
 BYTE   Cn3  v063
 BYTE   Gs3
 BYTE   W06
// 002   ----------------------------------------
 BYTE   W01
 BYTE   N78  Bn2
 BYTE   N78  Dn3
 BYTE   N78  Gn3
 BYTE   W84
 BYTE   N44  Bn2
 BYTE   N44  Dn3
 BYTE   N44  Gs3
 BYTE   W11
// 003   ----------------------------------------
 BYTE   W36
 BYTE   W01
 BYTE   N54  Bn2
 BYTE   N54  Dn3
 BYTE   N54  Gn3
 BYTE   W56
 BYTE   W03
// 004   ----------------------------------------
 BYTE   W01
 BYTE   N78  Cn3
 BYTE   N78  Ds3
 BYTE   N78  Gn3
 BYTE   W84
 BYTE   N90  Cn3
 BYTE   N90  Ds3
 BYTE   N90  Gs3
 BYTE   W11
// 005   ----------------------------------------
 BYTE   W84
 BYTE   W01
 BYTE   TIE  Dn3
 BYTE   TIE  Fn3
 BYTE   TIE  As3
 BYTE   W11
// 006   ----------------------------------------
 BYTE   W92
 BYTE   W03
 BYTE   EOT
 BYTE   Dn3  v065
 BYTE   As3
 BYTE   W01
// 007   ----------------------------------------
 BYTE   W01
 BYTE   N16  Fn3
 BYTE   N16  As3
 BYTE   N16  Dn4
 BYTE   W18
 BYTE   Fn3
 BYTE   N16  As3
 BYTE   N16  Cn4
 BYTE   W18
 BYTE   N09  Fn3
 BYTE   N09  As3
 BYTE   N09  Dn4
 BYTE   W12
 BYTE   N16  Fn3
 BYTE   N16  As3
 BYTE   N16  Ds4
 BYTE   W18
 BYTE   Fn3
 BYTE   N16  As3
 BYTE   N16  Dn4
 BYTE   W18
 BYTE   N09  Fn3
 BYTE   N09  As3
 BYTE   N09  Cn4
 BYTE   W11
// 008   ----------------------------------------
Label_0_01201207:
 BYTE   W01
 BYTE   N32  Cn3  v100
 BYTE   W36
 BYTE   N22  Ds3
 BYTE   W24
 BYTE   Dn3
 BYTE   W24
 BYTE   N11  Cn3
 BYTE   W11
 BYTE   PEND 
// 009   ----------------------------------------
Label_0_01201215:
 BYTE   W01
 BYTE   N05  As2  v100
 BYTE   W06
 BYTE   Gn2
 BYTE   W06
 BYTE   N32  As2
 BYTE   W36
 BYTE   N16  Gn2
 BYTE   W18
 BYTE   Gs2
 BYTE   W18
 BYTE   N10  As2
 BYTE   W11
 BYTE   PEND 
// 010   ----------------------------------------
Label_0_01201228:
 BYTE   W01
 BYTE   N05  Cn3  v100
 BYTE   W06
 BYTE   As2
 BYTE   W06
 BYTE   N80  Cn3
 BYTE   W80
 BYTE   W03
 BYTE   PEND 
// 011   ----------------------------------------
 BYTE   W96
// 012   ----------------------------------------
Label_0_01201235:
 BYTE   W01
 BYTE   N32  Cn3  v100
 BYTE   W36
 BYTE   N22  Ds3
 BYTE   W24
 BYTE   Dn3
 BYTE   W24
 BYTE   N11  Ds3
 BYTE   W11
 BYTE   PEND 
// 013   ----------------------------------------
Label_0_01201243:
 BYTE   W01
 BYTE   N36  Fn3  v100
 BYTE   W48
 BYTE   N22  As3
 BYTE   W24
 BYTE   Gs3
 BYTE   W23
 BYTE   PEND 
// 014   ----------------------------------------
Label_0_0120124E:
 BYTE   W01
 BYTE   N92  Gn3  v100
 BYTE   W92
 BYTE   W03
 BYTE   PEND 
// 015   ----------------------------------------
 BYTE   W96
// 016   ----------------------------------------
 BYTE   PATT
  POIN2 Label_0_01201207
// 017   ----------------------------------------
 BYTE   PATT
  POIN2 Label_0_01201215
// 018   ----------------------------------------
 BYTE   PATT
  POIN2 Label_0_01201228
// 019   ----------------------------------------
 BYTE   W96
// 020   ----------------------------------------
 BYTE   PATT
  POIN2 Label_0_01201235
// 021   ----------------------------------------
 BYTE   PATT
  POIN2 Label_0_01201243
// 022   ----------------------------------------
 BYTE   PATT
  POIN2 Label_0_0120124E
// 023   ----------------------------------------
 BYTE   W96
// 024   ----------------------------------------
Label_0_01201276:
 BYTE   W01
 BYTE   N88  Cn3  v127
 BYTE   N88  Fn3
 BYTE   N88  Gs3
 BYTE   W92
 BYTE   W03
 BYTE   PEND 
// 025   ----------------------------------------
Label_0_01201281:
 BYTE   W01
 BYTE   N44  Cn3  v127
 BYTE   N44  Dn3
 BYTE   N44  Gn3
 BYTE   W48
 BYTE   Bn2
 BYTE   N44  Dn3
 BYTE   N44  Gn3
 BYTE   W44
 BYTE   W03
 BYTE   PEND 
// 026   ----------------------------------------
Label_0_01201292:
 BYTE   W01
 BYTE   N92  Cn3  v127
 BYTE   N92  Fn3
 BYTE   N92  Gs3
 BYTE   W92
 BYTE   W03
 BYTE   PEND 
// 027   ----------------------------------------
 BYTE   PATT
  POIN2 Label_0_01201281
// 028   ----------------------------------------
Label_0_012012A2:
 BYTE   W01
 BYTE   N14  Gs2  v127
 BYTE   N14  Cn3
 BYTE   N14  Ds3
 BYTE   W18
 BYTE   Gs2
 BYTE   N14  Dn3
 BYTE   N14  Fn3
 BYTE   W18
 BYTE   N09  Gs2
 BYTE   N09  Ds3
 BYTE   N09  Gn3
 BYTE   W12
 BYTE   N14  Gs2
 BYTE   N14  Cn3
 BYTE   N14  Ds3
 BYTE   W18
 BYTE   Gs2
 BYTE   N14  Dn3
 BYTE   N14  Fn3
 BYTE   W18
 BYTE   N09  Gs2
 BYTE   N09  Ds3
 BYTE   N09  Gn3
 BYTE   W11
 BYTE   PEND 
// 029   ----------------------------------------
Label_0_012012CD:
 BYTE   W01
 BYTE   N14  As2  v127
 BYTE   N14  Dn3
 BYTE   N14  Fn3
 BYTE   W18
 BYTE   As2
 BYTE   N14  Ds3
 BYTE   N14  Gn3
 BYTE   W18
 BYTE   N09  As2
 BYTE   N09  Fn3
 BYTE   N09  Gs3
 BYTE   W12
 BYTE   N14  As2
 BYTE   N14  Dn3
 BYTE   N14  Fn3
 BYTE   W18
 BYTE   As2
 BYTE   N14  Ds3
 BYTE   N14  Gn3
 BYTE   W18
 BYTE   N09  As2
 BYTE   N09  Fn3
 BYTE   N09  Gs3
 BYTE   W11
 BYTE   PEND 
// 030   ----------------------------------------
Label_0_012012F8:
 BYTE   W01
 BYTE   N16  As2  v127
 BYTE   N16  Cs3
 BYTE   N16  Fn3
 BYTE   W18
 BYTE   As2
 BYTE   N16  Ds3
 BYTE   N16  Gn3
 BYTE   W18
 BYTE   N11  As2
 BYTE   N11  Fn3
 BYTE   N11  Gs3
 BYTE   W12
 BYTE   N16  As2
 BYTE   N16  Gn3
 BYTE   N16  As3
 BYTE   W18
 BYTE   As2
 BYTE   N16  Gs3
 BYTE   N16  Cn4
 BYTE   W18
 BYTE   N11  As2
 BYTE   N11  As3
 BYTE   N11  Cs4
 BYTE   W11
 BYTE   PEND 
// 031   ----------------------------------------
Label_0_01201323:
 BYTE   W01
 BYTE   N44  Cn3  v127
 BYTE   N44  Fn3
 BYTE   N44  Gn3
 BYTE   N44  Cn4
 BYTE   W48
 BYTE   Cn3
 BYTE   N44  En3
 BYTE   N44  Gn3
 BYTE   N44  Cn4
 BYTE   W44
 BYTE   W03
 BYTE   PEND 
// 032   ----------------------------------------
 BYTE   PATT
  POIN2 Label_0_01201207
// 033   ----------------------------------------
 BYTE   PATT
  POIN2 Label_0_01201215
// 034   ----------------------------------------
 BYTE   PATT
  POIN2 Label_0_01201228
// 035   ----------------------------------------
 BYTE   W96
// 036   ----------------------------------------
 BYTE   PATT
  POIN2 Label_0_01201235
// 037   ----------------------------------------
 BYTE   PATT
  POIN2 Label_0_01201243
// 038   ----------------------------------------
 BYTE   PATT
  POIN2 Label_0_0120124E
// 039   ----------------------------------------
 BYTE   W96
// 040   ----------------------------------------
 BYTE   PATT
  POIN2 Label_0_01201207
// 041   ----------------------------------------
 BYTE   PATT
  POIN2 Label_0_01201215
// 042   ----------------------------------------
 BYTE   PATT
  POIN2 Label_0_01201228
// 043   ----------------------------------------
 BYTE   W96
// 044   ----------------------------------------
 BYTE   PATT
  POIN2 Label_0_01201235
// 045   ----------------------------------------
 BYTE   PATT
  POIN2 Label_0_01201243
// 046   ----------------------------------------
 BYTE   PATT
  POIN2 Label_0_0120124E
// 047   ----------------------------------------
 BYTE   W96
// 048   ----------------------------------------
Label_0_01201378:
 BYTE   W01
 BYTE   N92  En3  v127
 BYTE   N92  An3
 BYTE   N92  Cs4
 BYTE   N92  En4
 BYTE   W92
 BYTE   W03
 BYTE   PEND 
// 049   ----------------------------------------
Label_0_01201385:
 BYTE   W01
 BYTE   N92  Dn3  v127
 BYTE   N92  Gn3
 BYTE   N92  Bn3
 BYTE   N92  Dn4
 BYTE   W92
 BYTE   W03
 BYTE   PEND 
// 050   ----------------------------------------
Label_0_01201392:
 BYTE   W01
 BYTE   N92  Cn3  v127
 BYTE   N92  Ds3
 BYTE   N92  Gs3
 BYTE   N92  Cn4
 BYTE   W92
 BYTE   W03
 BYTE   PEND 
// 051   ----------------------------------------
 BYTE   W96
// 052   ----------------------------------------
 BYTE   PATT
  POIN2 Label_0_01201378
// 053   ----------------------------------------
 BYTE   PATT
  POIN2 Label_0_01201385
// 054   ----------------------------------------
 BYTE   PATT
  POIN2 Label_0_01201392
// 055   ----------------------------------------
 BYTE   W01
 BYTE   N92  Dn3  v127
 BYTE   N92  Fn3
 BYTE   N92  As3
 BYTE   N92  Dn4
 BYTE   W92
 BYTE   W03
// 056   ----------------------------------------
 BYTE   PATT
  POIN2 Label_0_01201276
// 057   ----------------------------------------
 BYTE   PATT
  POIN2 Label_0_01201281
// 058   ----------------------------------------
 BYTE   PATT
  POIN2 Label_0_01201292
// 059   ----------------------------------------
 BYTE   PATT
  POIN2 Label_0_01201281
// 060   ----------------------------------------
 BYTE   PATT
  POIN2 Label_0_012012A2
// 061   ----------------------------------------
 BYTE   PATT
  POIN2 Label_0_012012CD
// 062   ----------------------------------------
 BYTE   PATT
  POIN2 Label_0_012012F8
// 063   ----------------------------------------
 BYTE   PATT
  POIN2 Label_0_01201323
// 064   ----------------------------------------
 BYTE   GoTo
  POIN2 Label_0_01201186
// 065   ----------------------------------------
 BYTE   W09
 BYTE   FINE

//**************** Track 2 (Midi-Chn.1) ****************//

songC4_002:
// 000   ----------------------------------------
 BYTE   KEYSH   songC4_key+0
Label_1_012013EC:
 BYTE   VOICE   49
 BYTE   VOL   31*songC4_mvl/mxv
 BYTE   PAN   c_v-20
 BYTE   BEND   c_v+0
 BYTE   W01
 BYTE   TIE  Ds5  v052
 BYTE   W92
 BYTE   W03
// 001   ----------------------------------------
 BYTE   W96
// 002   ----------------------------------------
 BYTE   EOT
 BYTE   W01
 BYTE   TIE  Dn5
 BYTE   W92
 BYTE   W03
// 003   ----------------------------------------
 BYTE   W96
// 004   ----------------------------------------
 BYTE   EOT
 BYTE   W01
 BYTE   TIE  Ds5
 BYTE   W92
 BYTE   W03
// 005   ----------------------------------------
 BYTE   W96
// 006   ----------------------------------------
 BYTE   EOT
 BYTE   W01
 BYTE   TIE  Fn5
 BYTE   W92
 BYTE   W03
// 007   ----------------------------------------
 BYTE   W96
// 008   ----------------------------------------
 BYTE   EOT
Label_1_01201411:
 BYTE   W01
 BYTE   N92  Cn5  v060
 BYTE   W92
 BYTE   W03
 BYTE   PEND 
// 009   ----------------------------------------
Label_1_01201418:
 BYTE   W01
 BYTE   N92  Dn5  v060
 BYTE   W92
 BYTE   W03
 BYTE   PEND 
// 010   ----------------------------------------
Label_1_0120141F:
 BYTE   W01
 BYTE   N92  Ds5  v060
 BYTE   W92
 BYTE   W03
 BYTE   PEND 
// 011   ----------------------------------------
Label_1_01201426:
 BYTE   W01
 BYTE   N44  Fn5  v060
 BYTE   W48
 BYTE   TIE  Gn5
 BYTE   W44
 BYTE   W03
 BYTE   PEND 
// 012   ----------------------------------------
 BYTE   W96
// 013   ----------------------------------------
 BYTE   EOT
Label_1_01201432:
 BYTE   W01
 BYTE   N92  Fn5  v060
 BYTE   W92
 BYTE   W03
 BYTE   PEND 
// 014   ----------------------------------------
Label_1_01201439:
 BYTE   W01
 BYTE   N48  Dn5  v060
 BYTE   W48
 BYTE   Ds5
 BYTE   W44
 BYTE   W03
 BYTE   PEND 
// 015   ----------------------------------------
Label_1_01201442:
 BYTE   W01
 BYTE   TIE  Fn5  v060
 BYTE   W92
 BYTE   W03
 BYTE   PEND 
// 016   ----------------------------------------
 BYTE   W48
 BYTE   W01
 BYTE   EOT
 BYTE   N48  Ds5
 BYTE   W44
 BYTE   W03
// 017   ----------------------------------------
 BYTE   PATT
  POIN2 Label_1_01201418
// 018   ----------------------------------------
Label_1_01201455:
 BYTE   W01
 BYTE   N48  Ds5  v060
 BYTE   W48
 BYTE   Fn5
 BYTE   W44
 BYTE   W03
 BYTE   PEND 
// 019   ----------------------------------------
Label_1_0120145E:
 BYTE   W01
 BYTE   TIE  Gn5  v060
 BYTE   W92
 BYTE   W03
 BYTE   PEND 
// 020   ----------------------------------------
 BYTE   W96
// 021   ----------------------------------------
 BYTE   EOT
Label_1_01201467:
 BYTE   W01
 BYTE   N48  Fn5  v060
 BYTE   W48
 BYTE   Dn5
 BYTE   W44
 BYTE   W03
 BYTE   PEND 
// 022   ----------------------------------------
 BYTE   PATT
  POIN2 Label_1_0120141F
// 023   ----------------------------------------
 BYTE   PATT
  POIN2 Label_1_01201418
// 024   ----------------------------------------
 BYTE   PATT
  POIN2 Label_1_01201411
// 025   ----------------------------------------
 BYTE   PATT
  POIN2 Label_1_01201418
// 026   ----------------------------------------
 BYTE   PATT
  POIN2 Label_1_0120141F
// 027   ----------------------------------------
Label_1_01201489:
 BYTE   W01
 BYTE   N48  Fn5  v060
 BYTE   W48
 BYTE   TIE  Gn5
 BYTE   W44
 BYTE   W03
 BYTE   PEND 
// 028   ----------------------------------------
 BYTE   W92
 BYTE   W03
 BYTE   EOT
 BYTE   W01
// 029   ----------------------------------------
 BYTE   PATT
  POIN2 Label_1_01201442
// 030   ----------------------------------------
 BYTE   W92
 BYTE   W03
 BYTE   EOT
 BYTE   Fn5
 BYTE   W01
// 031   ----------------------------------------
Label_1_012014A1:
 BYTE   W01
 BYTE   N92  Gn5  v060
 BYTE   W92
 BYTE   W03
 BYTE   PEND 
// 032   ----------------------------------------
 BYTE   PATT
  POIN2 Label_1_01201411
// 033   ----------------------------------------
 BYTE   PATT
  POIN2 Label_1_01201418
// 034   ----------------------------------------
 BYTE   PATT
  POIN2 Label_1_0120141F
// 035   ----------------------------------------
 BYTE   PATT
  POIN2 Label_1_01201426
// 036   ----------------------------------------
 BYTE   W96
// 037   ----------------------------------------
 BYTE   EOT
 BYTE   Gn5
// 038   ----------------------------------------
 BYTE   PATT
  POIN2 Label_1_01201432
// 039   ----------------------------------------
 BYTE   PATT
  POIN2 Label_1_01201439
// 040   ----------------------------------------
 BYTE   PATT
  POIN2 Label_1_01201442
// 041   ----------------------------------------
 BYTE   W48
 BYTE   W01
 BYTE   EOT
 BYTE   Fn5
 BYTE   N48  Ds5  v060
 BYTE   W44
 BYTE   W03
// 042   ----------------------------------------
 BYTE   PATT
  POIN2 Label_1_01201418
// 043   ----------------------------------------
 BYTE   PATT
  POIN2 Label_1_01201455
// 044   ----------------------------------------
 BYTE   PATT
  POIN2 Label_1_0120145E
// 045   ----------------------------------------
 BYTE   W96
// 046   ----------------------------------------
 BYTE   EOT
 BYTE   Gn5
// 047   ----------------------------------------
 BYTE   PATT
  POIN2 Label_1_01201467
// 048   ----------------------------------------
 BYTE   PATT
  POIN2 Label_1_0120141F
// 049   ----------------------------------------
 BYTE   PATT
  POIN2 Label_1_01201418
// 050   ----------------------------------------
Label_1_012014F8:
 BYTE   W01
 BYTE   N92  En5  v056
 BYTE   W92
 BYTE   W03
 BYTE   PEND 
// 051   ----------------------------------------
Label_1_012014FF:
 BYTE   W01
 BYTE   N48  Fs5  v056
 BYTE   W48
 BYTE   Dn5
 BYTE   W44
 BYTE   W03
 BYTE   PEND 
// 052   ----------------------------------------
Label_1_01201508:
 BYTE   W01
 BYTE   N48  Cn5  v056
 BYTE   W48
 BYTE   Ds5
 BYTE   W44
 BYTE   W03
 BYTE   PEND 
// 053   ----------------------------------------
Label_1_01201511:
 BYTE   W01
 BYTE   N48  Fn5  v056
 BYTE   W48
 BYTE   Dn5
 BYTE   W44
 BYTE   W03
 BYTE   PEND 
// 054   ----------------------------------------
 BYTE   PATT
  POIN2 Label_1_012014F8
// 055   ----------------------------------------
 BYTE   PATT
  POIN2 Label_1_012014FF
// 056   ----------------------------------------
 BYTE   PATT
  POIN2 Label_1_01201508
// 057   ----------------------------------------
 BYTE   PATT
  POIN2 Label_1_01201511
// 058   ----------------------------------------
 BYTE   PATT
  POIN2 Label_1_01201411
// 059   ----------------------------------------
 BYTE   PATT
  POIN2 Label_1_01201418
// 060   ----------------------------------------
 BYTE   PATT
  POIN2 Label_1_0120141F
// 061   ----------------------------------------
 BYTE   PATT
  POIN2 Label_1_01201489
// 062   ----------------------------------------
 BYTE   W92
 BYTE   W03
 BYTE   EOT
 BYTE   Gn5
 BYTE   W01
// 063   ----------------------------------------
 BYTE   PATT
  POIN2 Label_1_01201442
// 064   ----------------------------------------
 BYTE   W92
 BYTE   W03
 BYTE   EOT
 BYTE   Fn5
 BYTE   W01
// 065   ----------------------------------------
 BYTE   PATT
  POIN2 Label_1_012014A1
// 066   ----------------------------------------
 BYTE   GoTo
  POIN2 Label_1_012013EC
// 067   ----------------------------------------
 BYTE   W09
 BYTE   FINE

//**************** Track 3 (Midi-Chn.2) ****************//

songC4_003:
// 000   ----------------------------------------
 BYTE   KEYSH   songC4_key+0
Label_2_0120155F:
 BYTE   VOICE   33
 BYTE   VOL   42*songC4_mvl/mxv
 BYTE   PAN   c_v+0
 BYTE   BEND   c_v+0
 BYTE   W01
 BYTE   N09  Cn1  v127
 BYTE   W12
 BYTE   N09
 BYTE   W12
 BYTE   N09
 BYTE   W12
 BYTE   N04
 BYTE   W06
 BYTE   N09
 BYTE   W12
 BYTE   N09
 BYTE   W12
 BYTE   N04
 BYTE   W06
 BYTE   N09
 BYTE   W12
 BYTE   N09
 BYTE   W11
// 001   ----------------------------------------
Label_2_0120157C:
 BYTE   W01
 BYTE   N09  Cn1  v127
 BYTE   W12
 BYTE   N09
 BYTE   W12
 BYTE   N09
 BYTE   W12
 BYTE   N04
 BYTE   W06
 BYTE   N09
 BYTE   W12
 BYTE   N09
 BYTE   W12
 BYTE   N04
 BYTE   W06
 BYTE   N09
 BYTE   W12
 BYTE   N09
 BYTE   W11
 BYTE   PEND 
// 002   ----------------------------------------
 BYTE   PATT
  POIN2 Label_2_0120157C
// 003   ----------------------------------------
 BYTE   PATT
  POIN2 Label_2_0120157C
// 004   ----------------------------------------
 BYTE   PATT
  POIN2 Label_2_0120157C
// 005   ----------------------------------------
 BYTE   PATT
  POIN2 Label_2_0120157C
// 006   ----------------------------------------
 BYTE   PATT
  POIN2 Label_2_0120157C
// 007   ----------------------------------------
Label_2_012015AB:
 BYTE   W01
 BYTE   N09  As0  v127
 BYTE   W12
 BYTE   N09
 BYTE   W12
 BYTE   As1
 BYTE   W12
 BYTE   N04  As0
 BYTE   W06
 BYTE   N09
 BYTE   W12
 BYTE   N09
 BYTE   W12
 BYTE   N04
 BYTE   W06
 BYTE   N09  As1
 BYTE   W12
 BYTE   As0
 BYTE   W11
 BYTE   PEND 
// 008   ----------------------------------------
 BYTE   PATT
  POIN2 Label_2_0120157C
// 009   ----------------------------------------
 BYTE   PATT
  POIN2 Label_2_0120157C
// 010   ----------------------------------------
 BYTE   PATT
  POIN2 Label_2_0120157C
// 011   ----------------------------------------
 BYTE   PATT
  POIN2 Label_2_0120157C
// 012   ----------------------------------------
 BYTE   PATT
  POIN2 Label_2_0120157C
// 013   ----------------------------------------
 BYTE   PATT
  POIN2 Label_2_0120157C
// 014   ----------------------------------------
 BYTE   PATT
  POIN2 Label_2_0120157C
// 015   ----------------------------------------
Label_2_012015E6:
 BYTE   W01
 BYTE   N09  As0  v127
 BYTE   W12
 BYTE   N09
 BYTE   W12
 BYTE   N09
 BYTE   W12
 BYTE   N04
 BYTE   W06
 BYTE   N09
 BYTE   W12
 BYTE   N09
 BYTE   W12
 BYTE   N04
 BYTE   W06
 BYTE   N09
 BYTE   W12
 BYTE   As1
 BYTE   W11
 BYTE   PEND 
// 016   ----------------------------------------
Label_2_012015FC:
 BYTE   W01
 BYTE   N09  Gs0  v127
 BYTE   W12
 BYTE   N09
 BYTE   W12
 BYTE   N09
 BYTE   W12
 BYTE   N04
 BYTE   W06
 BYTE   N09
 BYTE   W12
 BYTE   N09
 BYTE   W12
 BYTE   N04
 BYTE   W06
 BYTE   N09
 BYTE   W12
 BYTE   N09
 BYTE   W11
 BYTE   PEND 
// 017   ----------------------------------------
Label_2_01201612:
 BYTE   W01
 BYTE   N09  As0  v127
 BYTE   W12
 BYTE   N09
 BYTE   W12
 BYTE   N09
 BYTE   W12
 BYTE   N04
 BYTE   W06
 BYTE   N09
 BYTE   W12
 BYTE   N09
 BYTE   W12
 BYTE   N04
 BYTE   W06
 BYTE   N09
 BYTE   W12
 BYTE   N09
 BYTE   W11
 BYTE   PEND 
// 018   ----------------------------------------
Label_2_01201628:
 BYTE   W01
 BYTE   N09  Fn0  v127
 BYTE   W12
 BYTE   N09
 BYTE   W12
 BYTE   N09
 BYTE   W12
 BYTE   N04
 BYTE   W06
 BYTE   N09
 BYTE   W12
 BYTE   N09
 BYTE   W12
 BYTE   N04
 BYTE   W06
 BYTE   N09
 BYTE   W12
 BYTE   N09
 BYTE   W11
 BYTE   PEND 
// 019   ----------------------------------------
Label_2_0120163E:
 BYTE   W01
 BYTE   N09  Gn0  v127
 BYTE   W12
 BYTE   N09
 BYTE   W12
 BYTE   N09
 BYTE   W12
 BYTE   N04
 BYTE   W06
 BYTE   N09
 BYTE   W12
 BYTE   N09
 BYTE   W12
 BYTE   N04
 BYTE   W06
 BYTE   N09
 BYTE   W12
 BYTE   N09
 BYTE   W11
 BYTE   PEND 
// 020   ----------------------------------------
Label_2_01201654:
 BYTE   W01
 BYTE   N09  Gs0  v127
 BYTE   W12
 BYTE   N09
 BYTE   W12
 BYTE   N09
 BYTE   W12
 BYTE   N04
 BYTE   W06
 BYTE   N09
 BYTE   W12
 BYTE   Gs1
 BYTE   W12
 BYTE   N04  Gs0
 BYTE   W06
 BYTE   N09  Gs1
 BYTE   W12
 BYTE   Gs0
 BYTE   W11
 BYTE   PEND 
// 021   ----------------------------------------
Label_2_0120166C:
 BYTE   W01
 BYTE   N09  As0  v127
 BYTE   W12
 BYTE   N09
 BYTE   W12
 BYTE   N09
 BYTE   W12
 BYTE   N04  As1
 BYTE   W06
 BYTE   N09  As0
 BYTE   W12
 BYTE   N09
 BYTE   W12
 BYTE   N04
 BYTE   W06
 BYTE   N09  As1
 BYTE   W12
 BYTE   As0
 BYTE   W11
 BYTE   PEND 
// 022   ----------------------------------------
Label_2_01201685:
 BYTE   W01
 BYTE   N09  Cn1  v127
 BYTE   W12
 BYTE   N09
 BYTE   W12
 BYTE   N09
 BYTE   W12
 BYTE   N04
 BYTE   W06
 BYTE   N09
 BYTE   W12
 BYTE   N09
 BYTE   W12
 BYTE   N04
 BYTE   W06
 BYTE   N09  Gn0
 BYTE   W12
 BYTE   Cn1
 BYTE   W11
 BYTE   PEND 
// 023   ----------------------------------------
Label_2_0120169C:
 BYTE   W01
 BYTE   N09  Gn0  v127
 BYTE   W12
 BYTE   N09
 BYTE   W12
 BYTE   Gn1
 BYTE   W12
 BYTE   N04  Gn0
 BYTE   W06
 BYTE   N09
 BYTE   W12
 BYTE   N09
 BYTE   W12
 BYTE   N04
 BYTE   W06
 BYTE   N09  Gn1
 BYTE   W12
 BYTE   Gn0
 BYTE   W11
 BYTE   PEND 
// 024   ----------------------------------------
Label_2_012016B4:
 BYTE   W01
 BYTE   N09  Fn0  v127
 BYTE   W12
 BYTE   N09
 BYTE   W12
 BYTE   Fn1
 BYTE   W12
 BYTE   N04  Fn0
 BYTE   W06
 BYTE   N09
 BYTE   W12
 BYTE   N09
 BYTE   W12
 BYTE   N04
 BYTE   W06
 BYTE   N09  Fn1
 BYTE   W12
 BYTE   Fn0
 BYTE   W11
 BYTE   PEND 
// 025   ----------------------------------------
 BYTE   PATT
  POIN2 Label_2_0120169C
// 026   ----------------------------------------
 BYTE   PATT
  POIN2 Label_2_012016B4
// 027   ----------------------------------------
 BYTE   PATT
  POIN2 Label_2_0120169C
// 028   ----------------------------------------
Label_2_012016DB:
 BYTE   W01
 BYTE   N09  Gs0  v127
 BYTE   W12
 BYTE   N09
 BYTE   W12
 BYTE   Gs1
 BYTE   W12
 BYTE   N04  Gs0
 BYTE   W06
 BYTE   N09
 BYTE   W12
 BYTE   N09
 BYTE   W12
 BYTE   N04
 BYTE   W06
 BYTE   N09  Gs1
 BYTE   W12
 BYTE   Gs0
 BYTE   W11
 BYTE   PEND 
// 029   ----------------------------------------
 BYTE   PATT
  POIN2 Label_2_012015AB
// 030   ----------------------------------------
 BYTE   PATT
  POIN2 Label_2_012015AB
// 031   ----------------------------------------
 BYTE   PATT
  POIN2 Label_2_0120157C
// 032   ----------------------------------------
 BYTE   PATT
  POIN2 Label_2_0120157C
// 033   ----------------------------------------
 BYTE   PATT
  POIN2 Label_2_0120157C
// 034   ----------------------------------------
 BYTE   PATT
  POIN2 Label_2_0120157C
// 035   ----------------------------------------
 BYTE   PATT
  POIN2 Label_2_0120157C
// 036   ----------------------------------------
 BYTE   PATT
  POIN2 Label_2_0120157C
// 037   ----------------------------------------
 BYTE   PATT
  POIN2 Label_2_0120157C
// 038   ----------------------------------------
 BYTE   PATT
  POIN2 Label_2_0120157C
// 039   ----------------------------------------
 BYTE   PATT
  POIN2 Label_2_012015E6
// 040   ----------------------------------------
 BYTE   PATT
  POIN2 Label_2_012015FC
// 041   ----------------------------------------
 BYTE   PATT
  POIN2 Label_2_01201612
// 042   ----------------------------------------
 BYTE   PATT
  POIN2 Label_2_01201628
// 043   ----------------------------------------
 BYTE   PATT
  POIN2 Label_2_0120163E
// 044   ----------------------------------------
 BYTE   PATT
  POIN2 Label_2_01201654
// 045   ----------------------------------------
 BYTE   PATT
  POIN2 Label_2_0120166C
// 046   ----------------------------------------
 BYTE   PATT
  POIN2 Label_2_01201685
// 047   ----------------------------------------
 BYTE   PATT
  POIN2 Label_2_0120169C
// 048   ----------------------------------------
Label_2_01201752:
 BYTE   W01
 BYTE   N09  Fn0  v127
 BYTE   W12
 BYTE   N04
 BYTE   W06
 BYTE   N04
 BYTE   W06
 BYTE   Fn1
 BYTE   W06
 BYTE   Ds1
 BYTE   W06
 BYTE   Fn0
 BYTE   W06
 BYTE   N11  Fn1
 BYTE   W12
 BYTE   N04  Ds1
 BYTE   W06
 BYTE   Cn1
 BYTE   W06
 BYTE   Ds1
 BYTE   W06
 BYTE   Dn0
 BYTE   W06
 BYTE   N04
 BYTE   W06
 BYTE   Ds0
 BYTE   W06
 BYTE   En0
 BYTE   W05
 BYTE   PEND 
// 049   ----------------------------------------
 BYTE   PATT
  POIN2 Label_2_01201752
// 050   ----------------------------------------
 BYTE   PATT
  POIN2 Label_2_01201752
// 051   ----------------------------------------
 BYTE   PATT
  POIN2 Label_2_01201752
// 052   ----------------------------------------
 BYTE   PATT
  POIN2 Label_2_01201752
// 053   ----------------------------------------
 BYTE   PATT
  POIN2 Label_2_01201752
// 054   ----------------------------------------
 BYTE   PATT
  POIN2 Label_2_01201752
// 055   ----------------------------------------
 BYTE   W01
 BYTE   N09  Fn0  v127
 BYTE   W12
 BYTE   N04
 BYTE   W06
 BYTE   N04
 BYTE   W06
 BYTE   Fn1
 BYTE   W06
 BYTE   Ds1
 BYTE   W06
 BYTE   Fn0
 BYTE   W06
 BYTE   N11  Fn1
 BYTE   W12
 BYTE   N04  Ds1
 BYTE   W06
 BYTE   Cn1
 BYTE   W06
 BYTE   Ds1
 BYTE   W06
 BYTE   Dn0
 BYTE   W06
 BYTE   An0
 BYTE   W06
 BYTE   As0
 BYTE   W06
 BYTE   Bn0
 BYTE   W05
// 056   ----------------------------------------
 BYTE   PATT
  POIN2 Label_2_012016B4
// 057   ----------------------------------------
 BYTE   PATT
  POIN2 Label_2_0120169C
// 058   ----------------------------------------
 BYTE   PATT
  POIN2 Label_2_012016B4
// 059   ----------------------------------------
 BYTE   PATT
  POIN2 Label_2_0120169C
// 060   ----------------------------------------
 BYTE   PATT
  POIN2 Label_2_012016DB
// 061   ----------------------------------------
 BYTE   PATT
  POIN2 Label_2_012015AB
// 062   ----------------------------------------
 BYTE   PATT
  POIN2 Label_2_012015AB
// 063   ----------------------------------------
 BYTE   PATT
  POIN2 Label_2_0120157C
// 064   ----------------------------------------
 BYTE   GoTo
  POIN2 Label_2_0120155F
// 065   ----------------------------------------
 BYTE   W09
 BYTE   FINE

//**************** Track 4 (Midi-Chn.3) ****************//

songC4_004:
// 000   ----------------------------------------
 BYTE   KEYSH   songC4_key+0
Label_3_012017E4:
 BYTE   VOICE   46
 BYTE   VOL   18*songC4_mvl/mxv
 BYTE   PAN   c_v-52
 BYTE   BEND   c_v+0
 BYTE   W96
// 001   ----------------------------------------
 BYTE   W96
// 002   ----------------------------------------
 BYTE   W96
// 003   ----------------------------------------
 BYTE   W96
// 004   ----------------------------------------
Label_3_012017F0:
 BYTE   W01
 BYTE   N04  Cn5  v120
 BYTE   W06
 BYTE   Gn4
 BYTE   W06
 BYTE   Cn4
 BYTE   W06
 BYTE   Gn4
 BYTE   W06
 BYTE   Cn5
 BYTE   W06
 BYTE   Gn4
 BYTE   W06
 BYTE   Cn4
 BYTE   W06
 BYTE   Gn4
 BYTE   W06
 BYTE   Cn5
 BYTE   W06
 BYTE   Gn4
 BYTE   W06
 BYTE   Cn4
 BYTE   W06
 BYTE   Gn4
 BYTE   W06
 BYTE   Cn5
 BYTE   W06
 BYTE   Gn4
 BYTE   W06
 BYTE   Cn4
 BYTE   W06
 BYTE   Gn4
 BYTE   W05
 BYTE   PEND 
// 005   ----------------------------------------
 BYTE   PATT
  POIN2 Label_3_012017F0
// 006   ----------------------------------------
 BYTE   W01
 BYTE   N04  Dn5  v120
 BYTE   W06
 BYTE   As4
 BYTE   W06
 BYTE   Dn4
 BYTE   W06
 BYTE   As4
 BYTE   W06
 BYTE   Dn5
 BYTE   W06
 BYTE   As4
 BYTE   W06
 BYTE   Dn4
 BYTE   W06
 BYTE   As4
 BYTE   W06
 BYTE   Dn5
 BYTE   W06
 BYTE   As4
 BYTE   W06
 BYTE   Dn4
 BYTE   W06
 BYTE   As4
 BYTE   W06
 BYTE   Dn5
 BYTE   W06
 BYTE   As4
 BYTE   W06
 BYTE   Dn4
 BYTE   W06
 BYTE   As4
 BYTE   W05
// 007   ----------------------------------------
 BYTE   W01
 BYTE   As3
 BYTE   W06
 BYTE   Fn3
 BYTE   W06
 BYTE   As3
 BYTE   W06
 BYTE   Dn4
 BYTE   W06
 BYTE   As3
 BYTE   W06
 BYTE   Dn4
 BYTE   W06
 BYTE   Fn4
 BYTE   W06
 BYTE   Dn4
 BYTE   W06
 BYTE   Fn4
 BYTE   W06
 BYTE   As4
 BYTE   W06
 BYTE   Fn4
 BYTE   W06
 BYTE   As4
 BYTE   W06
 BYTE   Dn5
 BYTE   W06
 BYTE   As4
 BYTE   W06
 BYTE   Dn5
 BYTE   W06
 BYTE   Fn5
 BYTE   W05
// 008   ----------------------------------------
Label_3_0120185D:
 BYTE   W01
 BYTE   N04  Dn3  v120
 BYTE   W06
 BYTE   Ds3
 BYTE   W06
 BYTE   Gn3
 BYTE   W06
 BYTE   Cn4
 BYTE   W06
 BYTE   Dn4
 BYTE   W06
 BYTE   Ds4
 BYTE   W06
 BYTE   Gn4
 BYTE   W06
 BYTE   Cn5
 BYTE   W06
 BYTE   Gn4
 BYTE   W06
 BYTE   Ds4
 BYTE   W06
 BYTE   Dn4
 BYTE   W06
 BYTE   Cn4
 BYTE   W06
 BYTE   Gn3
 BYTE   W06
 BYTE   Ds3
 BYTE   W06
 BYTE   Dn3
 BYTE   W06
 BYTE   Cn3
 BYTE   W05
 BYTE   PEND 
// 009   ----------------------------------------
Label_3_01201881:
 BYTE   W01
 BYTE   N04  As2  v120
 BYTE   W06
 BYTE   Dn3
 BYTE   W06
 BYTE   Fn3
 BYTE   W06
 BYTE   As3
 BYTE   W06
 BYTE   Dn4
 BYTE   W06
 BYTE   Fn3
 BYTE   W06
 BYTE   As3
 BYTE   W06
 BYTE   Dn4
 BYTE   W06
 BYTE   Fn4
 BYTE   W06
 BYTE   Dn4
 BYTE   W06
 BYTE   Fn4
 BYTE   W06
 BYTE   As4
 BYTE   W06
 BYTE   Dn5
 BYTE   W06
 BYTE   As4
 BYTE   W06
 BYTE   Fn4
 BYTE   W06
 BYTE   Dn4
 BYTE   W05
 BYTE   PEND 
// 010   ----------------------------------------
Label_3_012018A5:
 BYTE   W01
 BYTE   N04  Cn3  v120
 BYTE   W06
 BYTE   Ds3
 BYTE   W06
 BYTE   Gn3
 BYTE   W06
 BYTE   Cn4
 BYTE   W06
 BYTE   Dn4
 BYTE   W06
 BYTE   Ds4
 BYTE   W06
 BYTE   Gn4
 BYTE   W06
 BYTE   Cn5
 BYTE   W06
 BYTE   Dn5
 BYTE   W06
 BYTE   Ds5
 BYTE   W06
 BYTE   Dn5
 BYTE   W06
 BYTE   Cn5
 BYTE   W06
 BYTE   Gn4
 BYTE   W06
 BYTE   Ds4
 BYTE   W06
 BYTE   Dn4
 BYTE   W06
 BYTE   Cn4
 BYTE   W05
 BYTE   PEND 
// 011   ----------------------------------------
Label_3_012018C9:
 BYTE   W01
 BYTE   N04  Gn2  v120
 BYTE   W06
 BYTE   Cn3
 BYTE   W06
 BYTE   Dn3
 BYTE   W06
 BYTE   Gn3
 BYTE   W06
 BYTE   Cn4
 BYTE   W06
 BYTE   Dn4
 BYTE   W06
 BYTE   Gn4
 BYTE   W06
 BYTE   Cn5
 BYTE   W06
 BYTE   Gn2
 BYTE   W06
 BYTE   Bn2
 BYTE   W06
 BYTE   Dn3
 BYTE   W06
 BYTE   Gn3
 BYTE   W06
 BYTE   Bn3
 BYTE   W06
 BYTE   Dn4
 BYTE   W06
 BYTE   Gn4
 BYTE   W06
 BYTE   Bn4
 BYTE   W05
 BYTE   PEND 
// 012   ----------------------------------------
Label_3_012018ED:
 BYTE   W01
 BYTE   N04  Dn3  v120
 BYTE   W06
 BYTE   Ds3
 BYTE   W06
 BYTE   Gn3
 BYTE   W06
 BYTE   Cn4
 BYTE   W06
 BYTE   Dn4
 BYTE   W06
 BYTE   Ds4
 BYTE   W06
 BYTE   Gn4
 BYTE   W06
 BYTE   Cn5
 BYTE   W06
 BYTE   Ds5
 BYTE   W06
 BYTE   Dn5
 BYTE   W06
 BYTE   Cn5
 BYTE   W06
 BYTE   Gn4
 BYTE   W06
 BYTE   Ds4
 BYTE   W06
 BYTE   Dn4
 BYTE   W06
 BYTE   Cn4
 BYTE   W06
 BYTE   Gn3
 BYTE   W05
 BYTE   PEND 
// 013   ----------------------------------------
 BYTE   PATT
  POIN2 Label_3_01201881
// 014   ----------------------------------------
Label_3_01201916:
 BYTE   W01
 BYTE   N04  Cn3  v120
 BYTE   W06
 BYTE   Ds3
 BYTE   W06
 BYTE   Gn3
 BYTE   W06
 BYTE   Cn4
 BYTE   W06
 BYTE   Ds4
 BYTE   W06
 BYTE   Cn4
 BYTE   W06
 BYTE   Ds4
 BYTE   W06
 BYTE   Gn4
 BYTE   W06
 BYTE   Cn5
 BYTE   W06
 BYTE   Gn4
 BYTE   W06
 BYTE   Ds4
 BYTE   W06
 BYTE   Cn4
 BYTE   W06
 BYTE   Gn4
 BYTE   W06
 BYTE   Ds4
 BYTE   W06
 BYTE   Cn4
 BYTE   W06
 BYTE   Gn3
 BYTE   W05
 BYTE   PEND 
// 015   ----------------------------------------
Label_3_0120193A:
 BYTE   W01
 BYTE   N04  As2  v120
 BYTE   W06
 BYTE   Dn3
 BYTE   W06
 BYTE   Fn3
 BYTE   W06
 BYTE   As3
 BYTE   W06
 BYTE   Dn4
 BYTE   W06
 BYTE   Fn3
 BYTE   W06
 BYTE   As3
 BYTE   W06
 BYTE   Dn4
 BYTE   W06
 BYTE   Fn4
 BYTE   W06
 BYTE   Dn4
 BYTE   W06
 BYTE   Dn5
 BYTE   W06
 BYTE   Cn5
 BYTE   W06
 BYTE   As4
 BYTE   W06
 BYTE   Fn4
 BYTE   W06
 BYTE   Dn4
 BYTE   W06
 BYTE   As3
 BYTE   W05
 BYTE   PEND 
// 016   ----------------------------------------
Label_3_0120195E:
 BYTE   W01
 BYTE   N04  Gs2  v120
 BYTE   W06
 BYTE   Cn3
 BYTE   W06
 BYTE   Ds3
 BYTE   W06
 BYTE   Gs3
 BYTE   W06
 BYTE   Cn4
 BYTE   W06
 BYTE   Cn3
 BYTE   W06
 BYTE   Ds3
 BYTE   W06
 BYTE   Gs3
 BYTE   W06
 BYTE   Cn4
 BYTE   W06
 BYTE   Gs3
 BYTE   W06
 BYTE   Ds4
 BYTE   W06
 BYTE   Cn4
 BYTE   W06
 BYTE   Gs4
 BYTE   W06
 BYTE   Ds4
 BYTE   W06
 BYTE   Cn4
 BYTE   W06
 BYTE   Gs3
 BYTE   W05
 BYTE   PEND 
// 017   ----------------------------------------
Label_3_01201982:
 BYTE   W01
 BYTE   N04  Fn2  v120
 BYTE   W06
 BYTE   As2
 BYTE   W06
 BYTE   Dn3
 BYTE   W06
 BYTE   Fn3
 BYTE   W06
 BYTE   As3
 BYTE   W06
 BYTE   Dn3
 BYTE   W06
 BYTE   Fn3
 BYTE   W06
 BYTE   As3
 BYTE   W06
 BYTE   Dn4
 BYTE   W06
 BYTE   As3
 BYTE   W06
 BYTE   Fn4
 BYTE   W06
 BYTE   Dn4
 BYTE   W06
 BYTE   As4
 BYTE   W06
 BYTE   Fn4
 BYTE   W06
 BYTE   Dn4
 BYTE   W06
 BYTE   As3
 BYTE   W05
 BYTE   PEND 
// 018   ----------------------------------------
Label_3_012019A6:
 BYTE   W01
 BYTE   N04  Fn2  v120
 BYTE   W06
 BYTE   Gs2
 BYTE   W06
 BYTE   Cn3
 BYTE   W06
 BYTE   Fn3
 BYTE   W06
 BYTE   Gn3
 BYTE   W06
 BYTE   Gs3
 BYTE   W06
 BYTE   Cn4
 BYTE   W06
 BYTE   Fn4
 BYTE   W06
 BYTE   Gs4
 BYTE   W06
 BYTE   Gn4
 BYTE   W06
 BYTE   Fn4
 BYTE   W06
 BYTE   Cn4
 BYTE   W06
 BYTE   Gs3
 BYTE   W06
 BYTE   Gn3
 BYTE   W06
 BYTE   Fn3
 BYTE   W06
 BYTE   Cn3
 BYTE   W05
 BYTE   PEND 
// 019   ----------------------------------------
Label_3_012019CA:
 BYTE   W01
 BYTE   N04  Gn2  v120
 BYTE   W06
 BYTE   Cn3
 BYTE   W06
 BYTE   Dn3
 BYTE   W06
 BYTE   Gn3
 BYTE   W06
 BYTE   Cn4
 BYTE   W06
 BYTE   Dn4
 BYTE   W06
 BYTE   Gn4
 BYTE   W06
 BYTE   Cn4
 BYTE   W06
 BYTE   Bn3
 BYTE   W06
 BYTE   Dn4
 BYTE   W06
 BYTE   Gn4
 BYTE   W06
 BYTE   Bn4
 BYTE   W06
 BYTE   Dn5
 BYTE   W06
 BYTE   Bn4
 BYTE   W06
 BYTE   Gn4
 BYTE   W06
 BYTE   Dn4
 BYTE   W05
 BYTE   PEND 
// 020   ----------------------------------------
Label_3_012019EE:
 BYTE   W01
 BYTE   N04  Gs2  v120
 BYTE   W06
 BYTE   Cn3
 BYTE   W06
 BYTE   Ds3
 BYTE   W06
 BYTE   Gs3
 BYTE   W06
 BYTE   Cn4
 BYTE   W06
 BYTE   Ds3
 BYTE   W06
 BYTE   Gs3
 BYTE   W06
 BYTE   Cn4
 BYTE   W06
 BYTE   Ds4
 BYTE   W06
 BYTE   Gs3
 BYTE   W06
 BYTE   Cn4
 BYTE   W06
 BYTE   Ds4
 BYTE   W06
 BYTE   Gs4
 BYTE   W06
 BYTE   Ds4
 BYTE   W06
 BYTE   Cn4
 BYTE   W06
 BYTE   Gs3
 BYTE   W05
 BYTE   PEND 
// 021   ----------------------------------------
Label_3_01201A12:
 BYTE   W01
 BYTE   N04  As2  v120
 BYTE   W06
 BYTE   Dn3
 BYTE   W06
 BYTE   Fn3
 BYTE   W06
 BYTE   As3
 BYTE   W06
 BYTE   Fn3
 BYTE   W06
 BYTE   As3
 BYTE   W06
 BYTE   Dn4
 BYTE   W06
 BYTE   As3
 BYTE   W06
 BYTE   Fn4
 BYTE   W06
 BYTE   Dn4
 BYTE   W06
 BYTE   As4
 BYTE   W06
 BYTE   Fn4
 BYTE   W06
 BYTE   Dn5
 BYTE   W06
 BYTE   As4
 BYTE   W06
 BYTE   Fn4
 BYTE   W06
 BYTE   Dn4
 BYTE   W05
 BYTE   PEND 
// 022   ----------------------------------------
Label_3_01201A36:
 BYTE   W01
 BYTE   N04  Cn3  v120
 BYTE   W06
 BYTE   Dn3
 BYTE   W06
 BYTE   Ds3
 BYTE   W06
 BYTE   Gn3
 BYTE   W06
 BYTE   Cn4
 BYTE   W06
 BYTE   Dn4
 BYTE   W06
 BYTE   Ds4
 BYTE   W06
 BYTE   Gn4
 BYTE   W06
 BYTE   Cn5
 BYTE   W06
 BYTE   Gn4
 BYTE   W06
 BYTE   Ds4
 BYTE   W06
 BYTE   Dn4
 BYTE   W06
 BYTE   Cn4
 BYTE   W06
 BYTE   Gn3
 BYTE   W06
 BYTE   Ds3
 BYTE   W06
 BYTE   Dn3
 BYTE   W05
 BYTE   PEND 
// 023   ----------------------------------------
Label_3_01201A5A:
 BYTE   W01
 BYTE   N04  Gn2  v120
 BYTE   W06
 BYTE   Cn3
 BYTE   W06
 BYTE   Dn3
 BYTE   W06
 BYTE   Gn3
 BYTE   W06
 BYTE   Cn4
 BYTE   W06
 BYTE   Dn4
 BYTE   W06
 BYTE   Gn4
 BYTE   W06
 BYTE   Dn4
 BYTE   W06
 BYTE   Bn3
 BYTE   W06
 BYTE   Dn4
 BYTE   W06
 BYTE   Gn4
 BYTE   W06
 BYTE   Dn4
 BYTE   W06
 BYTE   Dn5
 BYTE   W06
 BYTE   Bn4
 BYTE   W06
 BYTE   Gn4
 BYTE   W06
 BYTE   Dn4
 BYTE   W05
 BYTE   PEND 
// 024   ----------------------------------------
 BYTE   W96
// 025   ----------------------------------------
 BYTE   W96
// 026   ----------------------------------------
 BYTE   W96
// 027   ----------------------------------------
 BYTE   W96
// 028   ----------------------------------------
 BYTE   W96
// 029   ----------------------------------------
 BYTE   W96
// 030   ----------------------------------------
 BYTE   W96
// 031   ----------------------------------------
Label_3_01201A85:
 BYTE   W01
 BYTE   N04  Cn2  v120
 BYTE   W06
 BYTE   Fn2
 BYTE   W06
 BYTE   Gn2
 BYTE   W06
 BYTE   Cn3
 BYTE   W06
 BYTE   Fn3
 BYTE   W06
 BYTE   Gn3
 BYTE   W06
 BYTE   Cn4
 BYTE   W06
 BYTE   Gn4
 BYTE   W06
 BYTE   Cn5
 BYTE   W06
 BYTE   Gn4
 BYTE   W06
 BYTE   En4
 BYTE   W06
 BYTE   Cn4
 BYTE   W06
 BYTE   Gn3
 BYTE   W06
 BYTE   En3
 BYTE   W06
 BYTE   Cn3
 BYTE   W06
 BYTE   Gn2
 BYTE   W05
 BYTE   PEND 
// 032   ----------------------------------------
 BYTE   PATT
  POIN2 Label_3_0120185D
// 033   ----------------------------------------
 BYTE   PATT
  POIN2 Label_3_01201881
// 034   ----------------------------------------
 BYTE   PATT
  POIN2 Label_3_012018A5
// 035   ----------------------------------------
 BYTE   PATT
  POIN2 Label_3_012018C9
// 036   ----------------------------------------
 BYTE   PATT
  POIN2 Label_3_012018ED
// 037   ----------------------------------------
 BYTE   PATT
  POIN2 Label_3_01201881
// 038   ----------------------------------------
 BYTE   PATT
  POIN2 Label_3_01201916
// 039   ----------------------------------------
 BYTE   PATT
  POIN2 Label_3_0120193A
// 040   ----------------------------------------
 BYTE   PATT
  POIN2 Label_3_0120195E
// 041   ----------------------------------------
 BYTE   PATT
  POIN2 Label_3_01201982
// 042   ----------------------------------------
 BYTE   PATT
  POIN2 Label_3_012019A6
// 043   ----------------------------------------
 BYTE   PATT
  POIN2 Label_3_012019CA
// 044   ----------------------------------------
 BYTE   PATT
  POIN2 Label_3_012019EE
// 045   ----------------------------------------
 BYTE   PATT
  POIN2 Label_3_01201A12
// 046   ----------------------------------------
 BYTE   PATT
  POIN2 Label_3_01201A36
// 047   ----------------------------------------
 BYTE   PATT
  POIN2 Label_3_01201A5A
// 048   ----------------------------------------
Label_3_01201AF9:
 BYTE   W01
 BYTE   N04  An2  v120
 BYTE   W06
 BYTE   Cs3
 BYTE   W06
 BYTE   En3
 BYTE   W06
 BYTE   An3
 BYTE   W06
 BYTE   Cs3
 BYTE   W06
 BYTE   En3
 BYTE   W06
 BYTE   An3
 BYTE   W06
 BYTE   Cs4
 BYTE   W06
 BYTE   En3
 BYTE   W06
 BYTE   An3
 BYTE   W06
 BYTE   Cs4
 BYTE   W06
 BYTE   En4
 BYTE   W06
 BYTE   An3
 BYTE   W06
 BYTE   Cs4
 BYTE   W06
 BYTE   En4
 BYTE   W06
 BYTE   An4
 BYTE   W05
 BYTE   PEND 
// 049   ----------------------------------------
Label_3_01201B1D:
 BYTE   W01
 BYTE   N04  Gn2  v120
 BYTE   W06
 BYTE   Bn2
 BYTE   W06
 BYTE   Dn3
 BYTE   W06
 BYTE   Gn3
 BYTE   W06
 BYTE   Bn2
 BYTE   W06
 BYTE   Dn3
 BYTE   W06
 BYTE   Gn3
 BYTE   W06
 BYTE   Bn3
 BYTE   W06
 BYTE   Dn3
 BYTE   W06
 BYTE   Gn3
 BYTE   W06
 BYTE   Bn3
 BYTE   W06
 BYTE   Dn4
 BYTE   W06
 BYTE   Gn3
 BYTE   W06
 BYTE   Bn3
 BYTE   W06
 BYTE   Dn4
 BYTE   W06
 BYTE   Gn4
 BYTE   W05
 BYTE   PEND 
// 050   ----------------------------------------
Label_3_01201B41:
 BYTE   W01
 BYTE   N04  Cn3  v120
 BYTE   W06
 BYTE   Ds3
 BYTE   W06
 BYTE   Gs3
 BYTE   W06
 BYTE   Cn4
 BYTE   W06
 BYTE   Ds3
 BYTE   W06
 BYTE   Gs3
 BYTE   W06
 BYTE   Cn4
 BYTE   W06
 BYTE   Ds4
 BYTE   W06
 BYTE   Gs3
 BYTE   W06
 BYTE   Cn4
 BYTE   W06
 BYTE   Ds4
 BYTE   W06
 BYTE   Gs4
 BYTE   W06
 BYTE   Cn4
 BYTE   W06
 BYTE   Ds4
 BYTE   W06
 BYTE   Gs4
 BYTE   W06
 BYTE   Cn5
 BYTE   W05
 BYTE   PEND 
// 051   ----------------------------------------
Label_3_01201B65:
 BYTE   W01
 BYTE   N04  Dn5  v120
 BYTE   W06
 BYTE   As4
 BYTE   W06
 BYTE   Fn4
 BYTE   W06
 BYTE   Dn4
 BYTE   W06
 BYTE   As4
 BYTE   W06
 BYTE   Fn4
 BYTE   W06
 BYTE   Dn4
 BYTE   W06
 BYTE   As3
 BYTE   W06
 BYTE   Dn4
 BYTE   W06
 BYTE   Fn3
 BYTE   W06
 BYTE   As3
 BYTE   W06
 BYTE   Fn3
 BYTE   W06
 BYTE   Dn3
 BYTE   W06
 BYTE   As2
 BYTE   W06
 BYTE   Fn2
 BYTE   W06
 BYTE   Dn2
 BYTE   W05
 BYTE   PEND 
// 052   ----------------------------------------
 BYTE   PATT
  POIN2 Label_3_01201AF9
// 053   ----------------------------------------
 BYTE   PATT
  POIN2 Label_3_01201B1D
// 054   ----------------------------------------
 BYTE   PATT
  POIN2 Label_3_01201B41
// 055   ----------------------------------------
 BYTE   PATT
  POIN2 Label_3_01201B65
// 056   ----------------------------------------
 BYTE   W96
// 057   ----------------------------------------
 BYTE   W96
// 058   ----------------------------------------
 BYTE   W96
// 059   ----------------------------------------
 BYTE   W96
// 060   ----------------------------------------
 BYTE   W96
// 061   ----------------------------------------
 BYTE   W96
// 062   ----------------------------------------
 BYTE   W96
// 063   ----------------------------------------
 BYTE   PATT
  POIN2 Label_3_01201A85
// 064   ----------------------------------------
 BYTE   GoTo
  POIN2 Label_3_012017E4
// 065   ----------------------------------------
 BYTE   W09
 BYTE   FINE

//**************** Track 5 (Midi-Chn.4) ****************//

songC4_005:
// 000   ----------------------------------------
 BYTE   KEYSH   songC4_key+0
Label_4_01201BB2:
 BYTE   VOICE   7
 BYTE   VOL   23*songC4_mvl/mxv
 BYTE   PAN   c_v+32
 BYTE   BEND   c_v+0
 BYTE   W01
 BYTE   N09  Cn2  v124
 BYTE   W12
 BYTE   N09
 BYTE   W12
 BYTE   N09
 BYTE   W12
 BYTE   N04
 BYTE   W06
 BYTE   N09
 BYTE   W12
 BYTE   N09
 BYTE   W12
 BYTE   N04
 BYTE   W06
 BYTE   N09
 BYTE   W12
 BYTE   N09
 BYTE   W11
// 001   ----------------------------------------
Label_4_01201BCF:
 BYTE   W01
 BYTE   N09  Cn2  v124
 BYTE   W12
 BYTE   N09
 BYTE   W12
 BYTE   N09
 BYTE   W12
 BYTE   N04
 BYTE   W06
 BYTE   N09
 BYTE   W12
 BYTE   N09
 BYTE   W12
 BYTE   N04
 BYTE   W06
 BYTE   N09
 BYTE   W12
 BYTE   N09
 BYTE   W11
 BYTE   PEND 
// 002   ----------------------------------------
 BYTE   PATT
  POIN2 Label_4_01201BCF
// 003   ----------------------------------------
 BYTE   PATT
  POIN2 Label_4_01201BCF
// 004   ----------------------------------------
 BYTE   PATT
  POIN2 Label_4_01201BCF
// 005   ----------------------------------------
 BYTE   PATT
  POIN2 Label_4_01201BCF
// 006   ----------------------------------------
 BYTE   PATT
  POIN2 Label_4_01201BCF
// 007   ----------------------------------------
 BYTE   PATT
  POIN2 Label_4_01201BCF
// 008   ----------------------------------------
Label_4_01201C03:
 BYTE   W01
 BYTE   N04  Cn3  v124
 BYTE   W06
 BYTE   N04
 BYTE   W06
 BYTE   N04
 BYTE   W06
 BYTE   Gn3
 BYTE   N04  Cn4
 BYTE   W06
 BYTE   Cn3
 BYTE   W06
 BYTE   Gn3
 BYTE   N04  Cn4
 BYTE   W06
 BYTE   Fn3
 BYTE   N04  As3
 BYTE   W06
 BYTE   Gn3
 BYTE   N04  Cn4
 BYTE   W06
 BYTE   Cn3
 BYTE   W06
 BYTE   N04
 BYTE   W06
 BYTE   Gn3
 BYTE   N04  Cn4
 BYTE   W06
 BYTE   Cn3
 BYTE   W06
 BYTE   N04
 BYTE   W06
 BYTE   Gn3
 BYTE   N04  Cn4
 BYTE   W06
 BYTE   Fn3
 BYTE   N04  As3
 BYTE   W06
 BYTE   Gn3
 BYTE   N04  Cn4
 BYTE   W05
 BYTE   PEND 
// 009   ----------------------------------------
 BYTE   PATT
  POIN2 Label_4_01201C03
// 010   ----------------------------------------
 BYTE   PATT
  POIN2 Label_4_01201C03
// 011   ----------------------------------------
Label_4_01201C41:
 BYTE   W01
 BYTE   N04  Cn3  v124
 BYTE   W06
 BYTE   N04
 BYTE   W06
 BYTE   N04
 BYTE   W06
 BYTE   N04
 BYTE   W06
 BYTE   N04
 BYTE   W06
 BYTE   Gn3
 BYTE   N04  Cn4
 BYTE   W06
 BYTE   Gn3
 BYTE   N04  Bn3
 BYTE   W06
 BYTE   Gn3
 BYTE   N04  Cn4
 BYTE   W06
 BYTE   Cn3
 BYTE   W06
 BYTE   N04
 BYTE   W06
 BYTE   Gn3
 BYTE   N04  Cn4
 BYTE   W06
 BYTE   Cn3
 BYTE   W06
 BYTE   Gn3
 BYTE   N04  Bn3
 BYTE   W06
 BYTE   Cn3
 BYTE   W06
 BYTE   Gn3
 BYTE   N04  Cn4
 BYTE   W06
 BYTE   Cn3
 BYTE   W05
 BYTE   PEND 
// 012   ----------------------------------------
Label_4_01201C71:
 BYTE   W01
 BYTE   N04  Cn3  v124
 BYTE   W06
 BYTE   N04
 BYTE   W06
 BYTE   Gn3
 BYTE   N04  Cn4
 BYTE   W06
 BYTE   Cn3
 BYTE   W06
 BYTE   Fn3
 BYTE   N04  As3
 BYTE   W06
 BYTE   Cn3
 BYTE   W06
 BYTE   Gn3
 BYTE   N04  Cn4
 BYTE   W06
 BYTE   Cn3
 BYTE   W06
 BYTE   N04
 BYTE   W06
 BYTE   N04
 BYTE   W06
 BYTE   Gn3
 BYTE   N04  Cn4
 BYTE   W06
 BYTE   Cn3
 BYTE   W06
 BYTE   Fn3
 BYTE   N04  As3
 BYTE   W06
 BYTE   Cn3
 BYTE   W06
 BYTE   Gn3
 BYTE   N04  Cn4
 BYTE   W06
 BYTE   Cn3
 BYTE   W05
 BYTE   PEND 
// 013   ----------------------------------------
Label_4_01201CA1:
 BYTE   W01
 BYTE   N04  Cn3  v124
 BYTE   W06
 BYTE   N04
 BYTE   W06
 BYTE   Gn3
 BYTE   N04  Cn4
 BYTE   W06
 BYTE   Cn3
 BYTE   W06
 BYTE   Fn3
 BYTE   N04  As3
 BYTE   W06
 BYTE   Cn3
 BYTE   W06
 BYTE   Gn3
 BYTE   N04  Cn4
 BYTE   W06
 BYTE   Cn3
 BYTE   W06
 BYTE   N04
 BYTE   W06
 BYTE   Gn3
 BYTE   N04  Cn4
 BYTE   W06
 BYTE   Cn3
 BYTE   W06
 BYTE   N04
 BYTE   W06
 BYTE   Fn3
 BYTE   N04  As3
 BYTE   W06
 BYTE   Cn3
 BYTE   W06
 BYTE   Gn3
 BYTE   N04  Cn4
 BYTE   W06
 BYTE   Cn3
 BYTE   W05
 BYTE   PEND 
// 014   ----------------------------------------
Label_4_01201CD1:
 BYTE   W01
 BYTE   N04  Cn3  v124
 BYTE   W06
 BYTE   N04
 BYTE   W06
 BYTE   Gn3
 BYTE   N04  Cn4
 BYTE   W06
 BYTE   Cn3
 BYTE   W06
 BYTE   N04
 BYTE   W06
 BYTE   Fn3
 BYTE   N04  As3
 BYTE   W06
 BYTE   Cn3
 BYTE   W06
 BYTE   Gn3
 BYTE   N04  Cn4
 BYTE   W06
 BYTE   Cn3
 BYTE   W06
 BYTE   N04
 BYTE   W06
 BYTE   Gn3
 BYTE   N04  Cn4
 BYTE   W06
 BYTE   Cn3
 BYTE   W06
 BYTE   N04
 BYTE   W06
 BYTE   Fn3
 BYTE   N04  As3
 BYTE   W06
 BYTE   Cn3
 BYTE   W06
 BYTE   Gn3
 BYTE   N04  Cn4
 BYTE   W05
 BYTE   PEND 
// 015   ----------------------------------------
Label_4_01201D01:
 BYTE   W01
 BYTE   N04  As2  v124
 BYTE   W06
 BYTE   N04
 BYTE   W06
 BYTE   Fn3
 BYTE   N04  As3
 BYTE   W06
 BYTE   As2
 BYTE   W06
 BYTE   N04
 BYTE   W06
 BYTE   Fn3
 BYTE   N04  As3
 BYTE   W06
 BYTE   Ds3
 BYTE   N04  Gs3
 BYTE   W06
 BYTE   Fn3
 BYTE   N04  As3
 BYTE   W06
 BYTE   As2
 BYTE   W06
 BYTE   N04
 BYTE   W06
 BYTE   Fn3
 BYTE   N04  As3
 BYTE   W06
 BYTE   As2
 BYTE   W06
 BYTE   Ds3
 BYTE   N04  Gs3
 BYTE   W06
 BYTE   As2
 BYTE   W06
 BYTE   Fn3
 BYTE   N04  As3
 BYTE   W06
 BYTE   As2
 BYTE   W05
 BYTE   PEND 
// 016   ----------------------------------------
Label_4_01201D33:
 BYTE   W01
 BYTE   N04  Gs2  v124
 BYTE   W06
 BYTE   N04
 BYTE   W06
 BYTE   Ds3
 BYTE   N04  Gs3
 BYTE   W06
 BYTE   Gs2
 BYTE   W06
 BYTE   N04
 BYTE   W06
 BYTE   Ds3
 BYTE   N04  Gs3
 BYTE   W06
 BYTE   Gs2
 BYTE   W06
 BYTE   N04
 BYTE   W06
 BYTE   Ds3
 BYTE   N04  Gs3
 BYTE   W06
 BYTE   Gs2
 BYTE   W06
 BYTE   N04
 BYTE   W06
 BYTE   Ds3
 BYTE   N04  Gs3
 BYTE   W06
 BYTE   Gs2
 BYTE   W06
 BYTE   N04
 BYTE   W06
 BYTE   Ds3
 BYTE   N04  Gs3
 BYTE   W06
 BYTE   Gs2
 BYTE   W05
 BYTE   PEND 
// 017   ----------------------------------------
Label_4_01201D61:
 BYTE   W01
 BYTE   N04  As2  v124
 BYTE   W06
 BYTE   N04
 BYTE   W06
 BYTE   Fn3
 BYTE   N04  As3
 BYTE   W06
 BYTE   As2
 BYTE   W06
 BYTE   N04
 BYTE   W06
 BYTE   Fn3
 BYTE   N04  As3
 BYTE   W06
 BYTE   As2
 BYTE   W06
 BYTE   N04
 BYTE   W06
 BYTE   Fn3
 BYTE   N04  As3
 BYTE   W06
 BYTE   As2
 BYTE   W06
 BYTE   N04
 BYTE   W06
 BYTE   Fn3
 BYTE   N04  As3
 BYTE   W06
 BYTE   As2
 BYTE   W06
 BYTE   N04
 BYTE   W06
 BYTE   Fn3
 BYTE   N04  As3
 BYTE   W06
 BYTE   As2
 BYTE   W05
 BYTE   PEND 
// 018   ----------------------------------------
Label_4_01201D8F:
 BYTE   W01
 BYTE   N04  Fn2  v124
 BYTE   W06
 BYTE   N04
 BYTE   W06
 BYTE   Cn3
 BYTE   N04  Fn3
 BYTE   W06
 BYTE   Fn2
 BYTE   W06
 BYTE   N04
 BYTE   W06
 BYTE   Cn3
 BYTE   N04  Fn3
 BYTE   W06
 BYTE   Fn2
 BYTE   W06
 BYTE   N04
 BYTE   W06
 BYTE   Cn3
 BYTE   N04  Fn3
 BYTE   W06
 BYTE   Fn2
 BYTE   W06
 BYTE   N04
 BYTE   W06
 BYTE   Cn3
 BYTE   N04  Fn3
 BYTE   W06
 BYTE   Fn2
 BYTE   W06
 BYTE   N04
 BYTE   W06
 BYTE   Cn3
 BYTE   N04  Fn3
 BYTE   W06
 BYTE   Fn2
 BYTE   W05
 BYTE   PEND 
// 019   ----------------------------------------
Label_4_01201DBD:
 BYTE   W01
 BYTE   N04  Gn2  v124
 BYTE   W06
 BYTE   N04
 BYTE   W06
 BYTE   Dn3
 BYTE   N04  Gn3
 BYTE   W06
 BYTE   Gn2
 BYTE   W06
 BYTE   N04
 BYTE   W06
 BYTE   Dn3
 BYTE   N04  Gn3
 BYTE   W06
 BYTE   Gn2
 BYTE   W06
 BYTE   N04
 BYTE   W06
 BYTE   Dn3
 BYTE   N04  Gn3
 BYTE   W06
 BYTE   Gn2
 BYTE   W06
 BYTE   N04
 BYTE   W06
 BYTE   Dn3
 BYTE   N04  Gn3
 BYTE   W06
 BYTE   Gn2
 BYTE   W06
 BYTE   N04
 BYTE   W06
 BYTE   Dn3
 BYTE   N04  Gn3
 BYTE   W06
 BYTE   Gn2
 BYTE   W05
 BYTE   PEND 
// 020   ----------------------------------------
 BYTE   PATT
  POIN2 Label_4_01201D33
// 021   ----------------------------------------
 BYTE   PATT
  POIN2 Label_4_01201D61
// 022   ----------------------------------------
 BYTE   PATT
  POIN2 Label_4_01201CA1
// 023   ----------------------------------------
Label_4_01201DFA:
 BYTE   W01
 BYTE   N04  Gn2  v124
 BYTE   W06
 BYTE   N04
 BYTE   W06
 BYTE   Dn3
 BYTE   N04  Gn3
 BYTE   W06
 BYTE   Gn2
 BYTE   W06
 BYTE   Cn3
 BYTE   N04  Fn3
 BYTE   W06
 BYTE   Dn3
 BYTE   N04  Gn3
 BYTE   W06
 BYTE   Gn2
 BYTE   W06
 BYTE   N04
 BYTE   W06
 BYTE   Dn3
 BYTE   N04  Gn3
 BYTE   W06
 BYTE   Gn2
 BYTE   W06
 BYTE   Cn3
 BYTE   N04  Fn3
 BYTE   W06
 BYTE   Dn3
 BYTE   N04  Gn3
 BYTE   W06
 BYTE   Gn2
 BYTE   W06
 BYTE   N04
 BYTE   W06
 BYTE   Dn3
 BYTE   N04  Gn3
 BYTE   W06
 BYTE   Gn2
 BYTE   W05
 BYTE   PEND 
// 024   ----------------------------------------
Label_4_01201E2C:
 BYTE   W01
 BYTE   N09  Fn2  v124
 BYTE   W12
 BYTE   N09
 BYTE   W12
 BYTE   Fn3
 BYTE   W12
 BYTE   N04  Fn2
 BYTE   W06
 BYTE   N09
 BYTE   W12
 BYTE   N09
 BYTE   W12
 BYTE   N04
 BYTE   W06
 BYTE   N09  Fn3
 BYTE   W12
 BYTE   Fn2
 BYTE   W11
 BYTE   PEND 
// 025   ----------------------------------------
Label_4_01201E44:
 BYTE   W01
 BYTE   N09  Gn2  v124
 BYTE   W12
 BYTE   N09
 BYTE   W12
 BYTE   Gn3
 BYTE   W12
 BYTE   N04  Gn2
 BYTE   W06
 BYTE   N09
 BYTE   W12
 BYTE   N09
 BYTE   W12
 BYTE   N04
 BYTE   W06
 BYTE   N09  Gn3
 BYTE   W12
 BYTE   Gn2
 BYTE   W11
 BYTE   PEND 
// 026   ----------------------------------------
 BYTE   PATT
  POIN2 Label_4_01201E2C
// 027   ----------------------------------------
 BYTE   PATT
  POIN2 Label_4_01201E44
// 028   ----------------------------------------
Label_4_01201E66:
 BYTE   W01
 BYTE   N09  Gs2  v124
 BYTE   W12
 BYTE   N09
 BYTE   W12
 BYTE   Gs3
 BYTE   W12
 BYTE   N04  Gs2
 BYTE   W06
 BYTE   N09
 BYTE   W12
 BYTE   N09
 BYTE   W12
 BYTE   N04
 BYTE   W06
 BYTE   N09  Gs3
 BYTE   W12
 BYTE   Gs2
 BYTE   W11
 BYTE   PEND 
// 029   ----------------------------------------
Label_4_01201E7E:
 BYTE   W01
 BYTE   N09  As2  v124
 BYTE   W12
 BYTE   N09
 BYTE   W12
 BYTE   As3
 BYTE   W12
 BYTE   N04  As2
 BYTE   W06
 BYTE   N09
 BYTE   W12
 BYTE   N09
 BYTE   W12
 BYTE   N04
 BYTE   W06
 BYTE   N09  As3
 BYTE   W12
 BYTE   As2
 BYTE   W11
 BYTE   PEND 
// 030   ----------------------------------------
 BYTE   PATT
  POIN2 Label_4_01201E7E
// 031   ----------------------------------------
Label_4_01201E9B:
 BYTE   W01
 BYTE   N09  Cn3  v124
 BYTE   W12
 BYTE   Cn4
 BYTE   W12
 BYTE   Cn3
 BYTE   W12
 BYTE   Cn4
 BYTE   W12
 BYTE   Cn3
 BYTE   W12
 BYTE   Cn4
 BYTE   W12
 BYTE   Cn3
 BYTE   W12
 BYTE   Cn4
 BYTE   W11
 BYTE   PEND 
// 032   ----------------------------------------
 BYTE   PATT
  POIN2 Label_4_01201C03
// 033   ----------------------------------------
 BYTE   PATT
  POIN2 Label_4_01201C03
// 034   ----------------------------------------
 BYTE   PATT
  POIN2 Label_4_01201C03
// 035   ----------------------------------------
 BYTE   PATT
  POIN2 Label_4_01201C41
// 036   ----------------------------------------
 BYTE   PATT
  POIN2 Label_4_01201C71
// 037   ----------------------------------------
 BYTE   PATT
  POIN2 Label_4_01201CA1
// 038   ----------------------------------------
 BYTE   PATT
  POIN2 Label_4_01201CD1
// 039   ----------------------------------------
 BYTE   PATT
  POIN2 Label_4_01201D01
// 040   ----------------------------------------
 BYTE   PATT
  POIN2 Label_4_01201D33
// 041   ----------------------------------------
 BYTE   PATT
  POIN2 Label_4_01201D61
// 042   ----------------------------------------
 BYTE   PATT
  POIN2 Label_4_01201D8F
// 043   ----------------------------------------
 BYTE   PATT
  POIN2 Label_4_01201DBD
// 044   ----------------------------------------
 BYTE   PATT
  POIN2 Label_4_01201D33
// 045   ----------------------------------------
 BYTE   PATT
  POIN2 Label_4_01201D61
// 046   ----------------------------------------
 BYTE   PATT
  POIN2 Label_4_01201CA1
// 047   ----------------------------------------
 BYTE   PATT
  POIN2 Label_4_01201DFA
// 048   ----------------------------------------
Label_4_01201EFF:
 BYTE   W01
 BYTE   N09  Fn2  v127
 BYTE   W12
 BYTE   N04
 BYTE   W06
 BYTE   N04
 BYTE   W06
 BYTE   Fn3
 BYTE   W06
 BYTE   Ds3
 BYTE   W06
 BYTE   Fn2
 BYTE   W06
 BYTE   N11  Fn3
 BYTE   W12
 BYTE   N04  Ds3
 BYTE   W06
 BYTE   Cn3
 BYTE   W06
 BYTE   Ds3
 BYTE   W06
 BYTE   Dn2
 BYTE   W06
 BYTE   N04
 BYTE   W06
 BYTE   Ds2
 BYTE   W06
 BYTE   En2
 BYTE   W05
 BYTE   PEND 
// 049   ----------------------------------------
 BYTE   PATT
  POIN2 Label_4_01201EFF
// 050   ----------------------------------------
 BYTE   PATT
  POIN2 Label_4_01201EFF
// 051   ----------------------------------------
 BYTE   PATT
  POIN2 Label_4_01201EFF
// 052   ----------------------------------------
 BYTE   PATT
  POIN2 Label_4_01201EFF
// 053   ----------------------------------------
 BYTE   PATT
  POIN2 Label_4_01201EFF
// 054   ----------------------------------------
 BYTE   PATT
  POIN2 Label_4_01201EFF
// 055   ----------------------------------------
 BYTE   W01
 BYTE   N09  Fn2  v127
 BYTE   W12
 BYTE   N04
 BYTE   W06
 BYTE   N04
 BYTE   W06
 BYTE   Fn3
 BYTE   W06
 BYTE   Ds3
 BYTE   W06
 BYTE   Fn2
 BYTE   W06
 BYTE   N11  Fn3
 BYTE   W12
 BYTE   N04  Ds3
 BYTE   W06
 BYTE   Cn3
 BYTE   W06
 BYTE   Ds3
 BYTE   W06
 BYTE   Dn2
 BYTE   W06
 BYTE   An2
 BYTE   W06
 BYTE   As2
 BYTE   W06
 BYTE   Bn2
 BYTE   W05
// 056   ----------------------------------------
 BYTE   PATT
  POIN2 Label_4_01201E2C
// 057   ----------------------------------------
 BYTE   PATT
  POIN2 Label_4_01201E44
// 058   ----------------------------------------
 BYTE   PATT
  POIN2 Label_4_01201E2C
// 059   ----------------------------------------
 BYTE   PATT
  POIN2 Label_4_01201E44
// 060   ----------------------------------------
 BYTE   PATT
  POIN2 Label_4_01201E66
// 061   ----------------------------------------
 BYTE   PATT
  POIN2 Label_4_01201E7E
// 062   ----------------------------------------
 BYTE   PATT
  POIN2 Label_4_01201E7E
// 063   ----------------------------------------
 BYTE   PATT
  POIN2 Label_4_01201E9B
// 064   ----------------------------------------
 BYTE   GoTo
  POIN2 Label_4_01201BB2
// 065   ----------------------------------------
 BYTE   W09
 BYTE   FINE

//**************** Track 6 (Midi-Chn.5) ****************//

songC4_006:
// 000   ----------------------------------------
 BYTE   KEYSH   songC4_key+0
Label_5_01201F91:
 BYTE   VOICE   14
 BYTE   VOL   23*songC4_mvl/mxv
 BYTE   PAN   c_v-10
 BYTE   BEND   c_v+0
 BYTE   W01
 BYTE   N92  Cn3  v127
 BYTE   W92
 BYTE   W03
// 001   ----------------------------------------
 BYTE   W96
// 002   ----------------------------------------
 BYTE   W96
// 003   ----------------------------------------
 BYTE   W96
// 004   ----------------------------------------
 BYTE   W01
 BYTE   N92
 BYTE   W92
 BYTE   W03
// 005   ----------------------------------------
 BYTE   W96
// 006   ----------------------------------------
Label_5_01201FA7:
 BYTE   W01
 BYTE   N92  Dn3  v127
 BYTE   W92
 BYTE   W03
 BYTE   PEND 
// 007   ----------------------------------------
Label_5_01201FAE:
 BYTE   W01
 BYTE   N92  Fn3  v127
 BYTE   W92
 BYTE   W03
 BYTE   PEND 
// 008   ----------------------------------------
 BYTE   W96
// 009   ----------------------------------------
 BYTE   W96
// 010   ----------------------------------------
 BYTE   W96
// 011   ----------------------------------------
 BYTE   W96
// 012   ----------------------------------------
 BYTE   W96
// 013   ----------------------------------------
 BYTE   W96
// 014   ----------------------------------------
 BYTE   W96
// 015   ----------------------------------------
 BYTE   W96
// 016   ----------------------------------------
 BYTE   W96
// 017   ----------------------------------------
 BYTE   W96
// 018   ----------------------------------------
 BYTE   W96
// 019   ----------------------------------------
 BYTE   W96
// 020   ----------------------------------------
 BYTE   W96
// 021   ----------------------------------------
 BYTE   W96
// 022   ----------------------------------------
 BYTE   W96
// 023   ----------------------------------------
 BYTE   W96
// 024   ----------------------------------------
 BYTE   PATT
  POIN2 Label_5_01201FAE
// 025   ----------------------------------------
 BYTE   W96
// 026   ----------------------------------------
 BYTE   PATT
  POIN2 Label_5_01201FAE
// 027   ----------------------------------------
 BYTE   W96
// 028   ----------------------------------------
Label_5_01201FD1:
 BYTE   W01
 BYTE   N92  Gs3  v127
 BYTE   W92
 BYTE   W03
 BYTE   PEND 
// 029   ----------------------------------------
Label_5_01201FD8:
 BYTE   W01
 BYTE   N92  As3  v127
 BYTE   W92
 BYTE   W03
 BYTE   PEND 
// 030   ----------------------------------------
 BYTE   PATT
  POIN2 Label_5_01201FD8
// 031   ----------------------------------------
Label_5_01201FE4:
 BYTE   W01
 BYTE   N44  Cn4  v127
 BYTE   W48
 BYTE   Cn3
 BYTE   W44
 BYTE   W03
 BYTE   PEND 
// 032   ----------------------------------------
 BYTE   W96
// 033   ----------------------------------------
 BYTE   W96
// 034   ----------------------------------------
 BYTE   W96
// 035   ----------------------------------------
 BYTE   W96
// 036   ----------------------------------------
 BYTE   W96
// 037   ----------------------------------------
 BYTE   W96
// 038   ----------------------------------------
 BYTE   W96
// 039   ----------------------------------------
 BYTE   W96
// 040   ----------------------------------------
 BYTE   W96
// 041   ----------------------------------------
 BYTE   W96
// 042   ----------------------------------------
 BYTE   W96
// 043   ----------------------------------------
 BYTE   W96
// 044   ----------------------------------------
 BYTE   W96
// 045   ----------------------------------------
 BYTE   W96
// 046   ----------------------------------------
 BYTE   W96
// 047   ----------------------------------------
 BYTE   W96
// 048   ----------------------------------------
Label_5_01201FFD:
 BYTE   W01
 BYTE   N92  En3  v127
 BYTE   W92
 BYTE   W03
 BYTE   PEND 
// 049   ----------------------------------------
 BYTE   PATT
  POIN2 Label_5_01201FA7
// 050   ----------------------------------------
Label_5_01202009:
 BYTE   W01
 BYTE   N92  Ds3  v127
 BYTE   W92
 BYTE   W03
 BYTE   PEND 
// 051   ----------------------------------------
 BYTE   PATT
  POIN2 Label_5_01201FA7
// 052   ----------------------------------------
 BYTE   PATT
  POIN2 Label_5_01201FFD
// 053   ----------------------------------------
 BYTE   PATT
  POIN2 Label_5_01201FA7
// 054   ----------------------------------------
 BYTE   PATT
  POIN2 Label_5_01202009
// 055   ----------------------------------------
 BYTE   PATT
  POIN2 Label_5_01201FA7
// 056   ----------------------------------------
 BYTE   PATT
  POIN2 Label_5_01201FAE
// 057   ----------------------------------------
 BYTE   W96
// 058   ----------------------------------------
 BYTE   PATT
  POIN2 Label_5_01201FAE
// 059   ----------------------------------------
 BYTE   W96
// 060   ----------------------------------------
 BYTE   PATT
  POIN2 Label_5_01201FD1
// 061   ----------------------------------------
 BYTE   PATT
  POIN2 Label_5_01201FD8
// 062   ----------------------------------------
 BYTE   PATT
  POIN2 Label_5_01201FD8
// 063   ----------------------------------------
 BYTE   PATT
  POIN2 Label_5_01201FE4
// 064   ----------------------------------------
 BYTE   GoTo
  POIN2 Label_5_01201F91
// 065   ----------------------------------------
 BYTE   W09
 BYTE   FINE

//**************** Track 7 (Midi-Chn.6) ****************//

songC4_007:
// 000   ----------------------------------------
 BYTE   KEYSH   songC4_key+0
Label_6_01202052:
 BYTE   VOICE   73
 BYTE   VOL   31*songC4_mvl/mxv
 BYTE   PAN   c_v+0
 BYTE   BEND   c_v+0
 BYTE   W96
// 001   ----------------------------------------
 BYTE   W96
// 002   ----------------------------------------
 BYTE   W96
// 003   ----------------------------------------
 BYTE   W96
// 004   ----------------------------------------
 BYTE   W96
// 005   ----------------------------------------
 BYTE   W96
// 006   ----------------------------------------
 BYTE   W96
// 007   ----------------------------------------
 BYTE   W96
// 008   ----------------------------------------
 BYTE   W96
// 009   ----------------------------------------
 BYTE   W96
// 010   ----------------------------------------
 BYTE   W96
// 011   ----------------------------------------
 BYTE   W96
// 012   ----------------------------------------
 BYTE   W96
// 013   ----------------------------------------
 BYTE   W96
// 014   ----------------------------------------
 BYTE   W96
// 015   ----------------------------------------
 BYTE   W96
// 016   ----------------------------------------
 BYTE   W96
// 017   ----------------------------------------
 BYTE   W96
// 018   ----------------------------------------
 BYTE   W96
// 019   ----------------------------------------
 BYTE   W96
// 020   ----------------------------------------
 BYTE   W96
// 021   ----------------------------------------
 BYTE   W96
// 022   ----------------------------------------
 BYTE   W96
// 023   ----------------------------------------
 BYTE   W96
// 024   ----------------------------------------
 BYTE   W01
 BYTE   N54  Cn5  v127
 BYTE   W60
 BYTE   N11  Dn5
 BYTE   W12
 BYTE   Ds5
 BYTE   W12
 BYTE   Fn5
 BYTE   W11
// 025   ----------------------------------------
 BYTE   W01
 BYTE   N56  Gn5
 BYTE   W72
 BYTE   N11  Fn5
 BYTE   W12
 BYTE   Gn5
 BYTE   W11
// 026   ----------------------------------------
 BYTE   W01
 BYTE   Gs5
 BYTE   W18
 BYTE   Gn5
 BYTE   W18
 BYTE   Fn5
 BYTE   W12
 BYTE   Ds5
 BYTE   W18
 BYTE   Dn5
 BYTE   W18
 BYTE   Cn5
 BYTE   W11
// 027   ----------------------------------------
 BYTE   W01
 BYTE   N28
 BYTE   W36
 BYTE   N05  Dn5
 BYTE   W06
 BYTE   Cn5
 BYTE   W06
 BYTE   N36  Bn4
 BYTE   W44
 BYTE   W03
// 028   ----------------------------------------
 BYTE   W01
 BYTE   N16  Cn5
 BYTE   W18
 BYTE   Dn5
 BYTE   W18
 BYTE   N07  Ds5
 BYTE   W12
 BYTE   N16  Cn5
 BYTE   W18
 BYTE   Dn5
 BYTE   W18
 BYTE   N07  Ds5
 BYTE   W11
// 029   ----------------------------------------
 BYTE   W01
 BYTE   N16  Dn5
 BYTE   W18
 BYTE   Ds5
 BYTE   W18
 BYTE   N07  Fn5
 BYTE   W12
 BYTE   N16  Dn5
 BYTE   W18
 BYTE   Ds5
 BYTE   W18
 BYTE   N07  Fn5
 BYTE   W11
// 030   ----------------------------------------
 BYTE   W01
 BYTE   N16  Cs5
 BYTE   W18
 BYTE   Ds5
 BYTE   W18
 BYTE   N07  Fn5
 BYTE   W12
 BYTE   N16  Gn5
 BYTE   W18
 BYTE   Gs5
 BYTE   W18
 BYTE   N07  As5
 BYTE   W11
// 031   ----------------------------------------
 BYTE   W01
 BYTE   N88  Cn5
 BYTE   W92
 BYTE   W03
// 032   ----------------------------------------
 BYTE   W96
// 033   ----------------------------------------
 BYTE   W96
// 034   ----------------------------------------
 BYTE   W96
// 035   ----------------------------------------
 BYTE   W96
// 036   ----------------------------------------
 BYTE   W96
// 037   ----------------------------------------
 BYTE   W96
// 038   ----------------------------------------
 BYTE   W96
// 039   ----------------------------------------
 BYTE   W96
// 040   ----------------------------------------
 BYTE   W96
// 041   ----------------------------------------
 BYTE   W96
// 042   ----------------------------------------
 BYTE   W96
// 043   ----------------------------------------
 BYTE   W96
// 044   ----------------------------------------
 BYTE   W96
// 045   ----------------------------------------
 BYTE   W96
// 046   ----------------------------------------
 BYTE   W96
// 047   ----------------------------------------
 BYTE   W96
// 048   ----------------------------------------
 BYTE   W96
// 049   ----------------------------------------
 BYTE   W96
// 050   ----------------------------------------
 BYTE   W96
// 051   ----------------------------------------
 BYTE   W96
// 052   ----------------------------------------
 BYTE   W96
// 053   ----------------------------------------
 BYTE   W96
// 054   ----------------------------------------
 BYTE   W96
// 055   ----------------------------------------
 BYTE   W96
// 056   ----------------------------------------
 BYTE   W01
 BYTE   N54  Cn5  v120
 BYTE   W60
 BYTE   N11  Dn5
 BYTE   W12
 BYTE   Ds5
 BYTE   W12
 BYTE   Fn5
 BYTE   W11
// 057   ----------------------------------------
 BYTE   W01
 BYTE   N56  Gn5
 BYTE   W72
 BYTE   N11  Fn5
 BYTE   W12
 BYTE   Gn5
 BYTE   W11
// 058   ----------------------------------------
 BYTE   W01
 BYTE   Gs5
 BYTE   W18
 BYTE   Gn5
 BYTE   W18
 BYTE   Fn5
 BYTE   W12
 BYTE   Ds5
 BYTE   W18
 BYTE   Dn5
 BYTE   W18
 BYTE   Cn5
 BYTE   W11
// 059   ----------------------------------------
 BYTE   W01
 BYTE   N28
 BYTE   W36
 BYTE   N05  Dn5
 BYTE   W06
 BYTE   Cn5
 BYTE   W06
 BYTE   N36  Bn4
 BYTE   W44
 BYTE   W03
// 060   ----------------------------------------
 BYTE   W01
 BYTE   N16  Cn5
 BYTE   W18
 BYTE   Dn5
 BYTE   W18
 BYTE   N07  Ds5
 BYTE   W12
 BYTE   N16  Cn5
 BYTE   W18
 BYTE   Dn5
 BYTE   W18
 BYTE   N07  Ds5
 BYTE   W11
// 061   ----------------------------------------
 BYTE   W01
 BYTE   N16  Dn5
 BYTE   W18
 BYTE   Ds5
 BYTE   W18
 BYTE   N07  Fn5
 BYTE   W12
 BYTE   N16  Dn5
 BYTE   W18
 BYTE   Ds5
 BYTE   W18
 BYTE   N07  Fn5
 BYTE   W11
// 062   ----------------------------------------
 BYTE   W01
 BYTE   N16  Cs5
 BYTE   W18
 BYTE   Ds5
 BYTE   W18
 BYTE   N07  Fn5
 BYTE   W12
 BYTE   N16  Gn5
 BYTE   W18
 BYTE   Gs5
 BYTE   W18
 BYTE   N07  As5
 BYTE   W11
// 063   ----------------------------------------
 BYTE   W01
 BYTE   N88  Cn5
 BYTE   W92
 BYTE   W03
// 064   ----------------------------------------
 BYTE   GoTo
  POIN2 Label_6_01202052
// 065   ----------------------------------------
 BYTE   W09
 BYTE   FINE

//**************** Track 8 (Midi-Chn.7) ****************//

songC4_008:
// 000   ----------------------------------------
 BYTE   KEYSH   songC4_key+0
Label_7_0120215F:
 BYTE   VOICE   49
 BYTE   VOL   35*songC4_mvl/mxv
 BYTE   PAN   c_v+0
 BYTE   BEND   c_v+0
 BYTE   W96
// 001   ----------------------------------------
 BYTE   W96
// 002   ----------------------------------------
 BYTE   W96
// 003   ----------------------------------------
 BYTE   W96
// 004   ----------------------------------------
 BYTE   W96
// 005   ----------------------------------------
 BYTE   W96
// 006   ----------------------------------------
 BYTE   W96
// 007   ----------------------------------------
 BYTE   W96
// 008   ----------------------------------------
Label_7_0120216F:
 BYTE   W01
 BYTE   N92  Ds3  v084
 BYTE   N92  Gn3
 BYTE   N92  Cn4
 BYTE   W92
 BYTE   W03
 BYTE   PEND 
// 009   ----------------------------------------
Label_7_0120217A:
 BYTE   W01
 BYTE   N92  Fn3  v084
 BYTE   N92  As3
 BYTE   N92  Dn4
 BYTE   W92
 BYTE   W03
 BYTE   PEND 
// 010   ----------------------------------------
 BYTE   PATT
  POIN2 Label_7_0120216F
// 011   ----------------------------------------
Label_7_0120218A:
 BYTE   W01
 BYTE   N92  Gn3  v084
 BYTE   N44  Cn4
 BYTE   N92  Dn4
 BYTE   W48
 BYTE   N44  Bn3
 BYTE   W44
 BYTE   W03
 BYTE   PEND 
// 012   ----------------------------------------
 BYTE   PATT
  POIN2 Label_7_0120216F
// 013   ----------------------------------------
 BYTE   PATT
  POIN2 Label_7_0120217A
// 014   ----------------------------------------
Label_7_012021A2:
 BYTE   W01
 BYTE   N92  Gn3  v084
 BYTE   N44  Dn4
 BYTE   N92  Ds4
 BYTE   W48
 BYTE   N44  Cn4
 BYTE   W44
 BYTE   W03
 BYTE   PEND 
// 015   ----------------------------------------
 BYTE   W01
 BYTE   N92  Fn3
 BYTE   N44  Cn4
 BYTE   N92  Dn4
 BYTE   W48
 BYTE   N44  As3
 BYTE   W44
 BYTE   W03
// 016   ----------------------------------------
Label_7_012021BC:
 BYTE   W01
 BYTE   N92  Ds3  v084
 BYTE   N92  Gs3
 BYTE   N92  Cn4
 BYTE   W92
 BYTE   W03
 BYTE   PEND 
// 017   ----------------------------------------
 BYTE   PATT
  POIN2 Label_7_0120217A
// 018   ----------------------------------------
 BYTE   W01
 BYTE   N44  Gn3  v084
 BYTE   N92  Cn4
 BYTE   N44  Ds4
 BYTE   W48
 BYTE   Fn3
 BYTE   N44  Gs3
 BYTE   W44
 BYTE   W03
// 019   ----------------------------------------
 BYTE   PATT
  POIN2 Label_7_0120218A
// 020   ----------------------------------------
 BYTE   PATT
  POIN2 Label_7_012021BC
// 021   ----------------------------------------
 BYTE   PATT
  POIN2 Label_7_0120217A
// 022   ----------------------------------------
 BYTE   PATT
  POIN2 Label_7_012021A2
// 023   ----------------------------------------
 BYTE   PATT
  POIN2 Label_7_0120218A
// 024   ----------------------------------------
Label_7_012021F3:
 BYTE   W01
 BYTE   N56  Cn3  v100
 BYTE   W60
 BYTE   N11  Dn3
 BYTE   W12
 BYTE   Ds3
 BYTE   W12
 BYTE   Fn3
 BYTE   W11
 BYTE   PEND 
// 025   ----------------------------------------
Label_7_01202200:
 BYTE   W01
 BYTE   N68  Gn3  v100
 BYTE   W72
 BYTE   N11  Fn3
 BYTE   W12
 BYTE   Gn3
 BYTE   W11
 BYTE   PEND 
// 026   ----------------------------------------
Label_7_0120220B:
 BYTE   W01
 BYTE   N17  Gs3  v100
 BYTE   W18
 BYTE   Gn3
 BYTE   W18
 BYTE   N11  Fn3
 BYTE   W12
 BYTE   N17  Ds3
 BYTE   W18
 BYTE   Dn3
 BYTE   W18
 BYTE   N11  Cn3
 BYTE   W11
 BYTE   PEND 
// 027   ----------------------------------------
Label_7_0120221E:
 BYTE   W01
 BYTE   N32  Cn3  v100
 BYTE   W36
 BYTE   N05  Dn3
 BYTE   W06
 BYTE   Cn3
 BYTE   W06
 BYTE   N44  Bn2
 BYTE   W44
 BYTE   W03
 BYTE   PEND 
// 028   ----------------------------------------
Label_7_0120222D:
 BYTE   W01
 BYTE   N17  Cn3  v100
 BYTE   W18
 BYTE   Dn3
 BYTE   W18
 BYTE   N11  Ds3
 BYTE   W12
 BYTE   N17  Cn3
 BYTE   W18
 BYTE   Dn3
 BYTE   W18
 BYTE   N11  Ds3
 BYTE   W11
 BYTE   PEND 
// 029   ----------------------------------------
Label_7_01202240:
 BYTE   W01
 BYTE   N17  Dn3  v100
 BYTE   W18
 BYTE   Ds3
 BYTE   W18
 BYTE   N11  Fn3
 BYTE   W12
 BYTE   N17  Dn3
 BYTE   W18
 BYTE   Ds3
 BYTE   W18
 BYTE   N11  Fn3
 BYTE   W11
 BYTE   PEND 
// 030   ----------------------------------------
Label_7_01202253:
 BYTE   W01
 BYTE   N17  Cs3  v100
 BYTE   W18
 BYTE   Ds3
 BYTE   W18
 BYTE   N11  Fn3
 BYTE   W12
 BYTE   N17  Gn3
 BYTE   W18
 BYTE   Gs3
 BYTE   W18
 BYTE   N11  As3
 BYTE   W11
 BYTE   PEND 
// 031   ----------------------------------------
Label_7_01202266:
 BYTE   W01
 BYTE   N92  Cn3  v100
 BYTE   W92
 BYTE   W03
 BYTE   PEND 
// 032   ----------------------------------------
Label_7_0120226D:
 BYTE   W01
 BYTE   N92  Ds3  v076
 BYTE   N92  Gn3
 BYTE   N92  Cn4
 BYTE   W92
 BYTE   W03
 BYTE   PEND 
// 033   ----------------------------------------
Label_7_01202278:
 BYTE   W01
 BYTE   N92  Fn3  v076
 BYTE   N92  As3
 BYTE   N92  Dn4
 BYTE   W92
 BYTE   W03
 BYTE   PEND 
// 034   ----------------------------------------
 BYTE   PATT
  POIN2 Label_7_0120226D
// 035   ----------------------------------------
Label_7_01202288:
 BYTE   W01
 BYTE   N92  Gn3  v076
 BYTE   N44  Cn4
 BYTE   N92  Dn4
 BYTE   W48
 BYTE   N44  Bn3
 BYTE   W44
 BYTE   W03
 BYTE   PEND 
// 036   ----------------------------------------
 BYTE   PATT
  POIN2 Label_7_0120226D
// 037   ----------------------------------------
 BYTE   PATT
  POIN2 Label_7_01202278
// 038   ----------------------------------------
Label_7_012022A0:
 BYTE   W01
 BYTE   N92  Gn3  v076
 BYTE   N44  Dn4
 BYTE   N92  Ds4
 BYTE   W48
 BYTE   N44  Cn4
 BYTE   W44
 BYTE   W03
 BYTE   PEND 
// 039   ----------------------------------------
 BYTE   W01
 BYTE   N92  Fn3
 BYTE   N44  Cn4
 BYTE   N92  Dn4
 BYTE   W48
 BYTE   N44  As3
 BYTE   W44
 BYTE   W03
// 040   ----------------------------------------
Label_7_012022BA:
 BYTE   W01
 BYTE   N92  Ds3  v076
 BYTE   N92  Gs3
 BYTE   N92  Cn4
 BYTE   W92
 BYTE   W03
 BYTE   PEND 
// 041   ----------------------------------------
 BYTE   PATT
  POIN2 Label_7_01202278
// 042   ----------------------------------------
 BYTE   W01
 BYTE   N44  Gn3  v076
 BYTE   N92  Cn4
 BYTE   N44  Ds4
 BYTE   W48
 BYTE   Fn3
 BYTE   N44  Gs3
 BYTE   W44
 BYTE   W03
// 043   ----------------------------------------
 BYTE   PATT
  POIN2 Label_7_01202288
// 044   ----------------------------------------
 BYTE   PATT
  POIN2 Label_7_012022BA
// 045   ----------------------------------------
 BYTE   PATT
  POIN2 Label_7_01202278
// 046   ----------------------------------------
 BYTE   PATT
  POIN2 Label_7_012022A0
// 047   ----------------------------------------
 BYTE   PATT
  POIN2 Label_7_0120218A
// 048   ----------------------------------------
Label_7_012022F1:
 BYTE   W01
 BYTE   N92  En4  v084
 BYTE   W92
 BYTE   W03
 BYTE   PEND 
// 049   ----------------------------------------
Label_7_012022F8:
 BYTE   W01
 BYTE   N48  Fs4  v084
 BYTE   W48
 BYTE   Dn4
 BYTE   W44
 BYTE   W03
 BYTE   PEND 
// 050   ----------------------------------------
Label_7_01202301:
 BYTE   W01
 BYTE   N48  Cn4  v084
 BYTE   W48
 BYTE   Ds4
 BYTE   W44
 BYTE   W03
 BYTE   PEND 
// 051   ----------------------------------------
Label_7_0120230A:
 BYTE   W01
 BYTE   N48  Fn4  v084
 BYTE   W48
 BYTE   Dn4
 BYTE   W44
 BYTE   W03
 BYTE   PEND 
// 052   ----------------------------------------
 BYTE   PATT
  POIN2 Label_7_012022F1
// 053   ----------------------------------------
 BYTE   PATT
  POIN2 Label_7_012022F8
// 054   ----------------------------------------
 BYTE   PATT
  POIN2 Label_7_01202301
// 055   ----------------------------------------
 BYTE   PATT
  POIN2 Label_7_0120230A
// 056   ----------------------------------------
 BYTE   PATT
  POIN2 Label_7_012021F3
// 057   ----------------------------------------
 BYTE   PATT
  POIN2 Label_7_01202200
// 058   ----------------------------------------
 BYTE   PATT
  POIN2 Label_7_0120220B
// 059   ----------------------------------------
 BYTE   PATT
  POIN2 Label_7_0120221E
// 060   ----------------------------------------
 BYTE   PATT
  POIN2 Label_7_0120222D
// 061   ----------------------------------------
 BYTE   PATT
  POIN2 Label_7_01202240
// 062   ----------------------------------------
 BYTE   PATT
  POIN2 Label_7_01202253
// 063   ----------------------------------------
 BYTE   PATT
  POIN2 Label_7_01202266
// 064   ----------------------------------------
 BYTE   GoTo
  POIN2 Label_7_0120215F
// 065   ----------------------------------------
 BYTE   W09
 BYTE   FINE

//**************** Track 9 (Midi-Chn.8) ****************//

songC4_009:
// 000   ----------------------------------------
 BYTE   KEYSH   songC4_key+0
Label_8_01202358:
 BYTE   VOICE   56
 BYTE   VOL   41*songC4_mvl/mxv
 BYTE   PAN   c_v+0
 BYTE   BEND   c_v+0
 BYTE   W96
// 001   ----------------------------------------
 BYTE   W96
// 002   ----------------------------------------
 BYTE   W96
// 003   ----------------------------------------
 BYTE   W96
// 004   ----------------------------------------
 BYTE   W96
// 005   ----------------------------------------
 BYTE   W96
// 006   ----------------------------------------
 BYTE   W96
// 007   ----------------------------------------
 BYTE   W96
// 008   ----------------------------------------
Label_8_01202368:
 BYTE   W01
 BYTE   N28  Cn4  v127
 BYTE   W36
 BYTE   N22  Ds4
 BYTE   W24
 BYTE   Dn4
 BYTE   W24
 BYTE   N07  Cn4
 BYTE   W11
 BYTE   PEND 
// 009   ----------------------------------------
Label_8_01202376:
 BYTE   W01
 BYTE   N05  As3  v127
 BYTE   W06
 BYTE   Gn3
 BYTE   W06
 BYTE   N28  As3
 BYTE   W36
 BYTE   N16  Gn3
 BYTE   W18
 BYTE   Gs3
 BYTE   W18
 BYTE   N07  As3
 BYTE   W11
 BYTE   PEND 
// 010   ----------------------------------------
Label_8_01202389:
 BYTE   W01
 BYTE   N05  Cn4  v127
 BYTE   W06
 BYTE   As3
 BYTE   W06
 BYTE   N80  Cn4
 BYTE   W80
 BYTE   W03
 BYTE   PEND 
// 011   ----------------------------------------
 BYTE   W96
// 012   ----------------------------------------
Label_8_01202396:
 BYTE   W01
 BYTE   N28  Cn4  v127
 BYTE   W36
 BYTE   N22  Ds4
 BYTE   W24
 BYTE   Dn4
 BYTE   W24
 BYTE   N07  Ds4
 BYTE   W11
 BYTE   PEND 
// 013   ----------------------------------------
Label_8_012023A4:
 BYTE   W01
 BYTE   N36  Fn4  v127
 BYTE   W48
 BYTE   N22  As4
 BYTE   W24
 BYTE   Gs4
 BYTE   W23
 BYTE   PEND 
// 014   ----------------------------------------
Label_8_012023AF:
 BYTE   W01
 BYTE   N92  Gn4  v127
 BYTE   W92
 BYTE   W03
 BYTE   PEND 
// 015   ----------------------------------------
 BYTE   W96
// 016   ----------------------------------------
 BYTE   PATT
  POIN2 Label_8_01202368
// 017   ----------------------------------------
 BYTE   PATT
  POIN2 Label_8_01202376
// 018   ----------------------------------------
 BYTE   PATT
  POIN2 Label_8_01202389
// 019   ----------------------------------------
 BYTE   W96
// 020   ----------------------------------------
 BYTE   PATT
  POIN2 Label_8_01202396
// 021   ----------------------------------------
 BYTE   PATT
  POIN2 Label_8_012023A4
// 022   ----------------------------------------
 BYTE   PATT
  POIN2 Label_8_012023AF
// 023   ----------------------------------------
 BYTE   W96
// 024   ----------------------------------------
 BYTE   W96
// 025   ----------------------------------------
 BYTE   W96
// 026   ----------------------------------------
 BYTE   W96
// 027   ----------------------------------------
 BYTE   W96
// 028   ----------------------------------------
 BYTE   W96
// 029   ----------------------------------------
 BYTE   W96
// 030   ----------------------------------------
 BYTE   W96
// 031   ----------------------------------------
 BYTE   W96
// 032   ----------------------------------------
 BYTE   PATT
  POIN2 Label_8_01202368
// 033   ----------------------------------------
 BYTE   PATT
  POIN2 Label_8_01202376
// 034   ----------------------------------------
 BYTE   PATT
  POIN2 Label_8_01202389
// 035   ----------------------------------------
 BYTE   W96
// 036   ----------------------------------------
 BYTE   PATT
  POIN2 Label_8_01202396
// 037   ----------------------------------------
 BYTE   PATT
  POIN2 Label_8_012023A4
// 038   ----------------------------------------
 BYTE   PATT
  POIN2 Label_8_012023AF
// 039   ----------------------------------------
 BYTE   W96
// 040   ----------------------------------------
 BYTE   PATT
  POIN2 Label_8_01202368
// 041   ----------------------------------------
 BYTE   PATT
  POIN2 Label_8_01202376
// 042   ----------------------------------------
 BYTE   PATT
  POIN2 Label_8_01202389
// 043   ----------------------------------------
 BYTE   W96
// 044   ----------------------------------------
 BYTE   PATT
  POIN2 Label_8_01202396
// 045   ----------------------------------------
 BYTE   PATT
  POIN2 Label_8_012023A4
// 046   ----------------------------------------
 BYTE   PATT
  POIN2 Label_8_012023AF
// 047   ----------------------------------------
 BYTE   W96
// 048   ----------------------------------------
 BYTE   W96
// 049   ----------------------------------------
 BYTE   W96
// 050   ----------------------------------------
 BYTE   W96
// 051   ----------------------------------------
 BYTE   W96
// 052   ----------------------------------------
 BYTE   W96
// 053   ----------------------------------------
 BYTE   W96
// 054   ----------------------------------------
 BYTE   W96
// 055   ----------------------------------------
 BYTE   W96
// 056   ----------------------------------------
 BYTE   W96
// 057   ----------------------------------------
 BYTE   W96
// 058   ----------------------------------------
 BYTE   W96
// 059   ----------------------------------------
 BYTE   W96
// 060   ----------------------------------------
 BYTE   W96
// 061   ----------------------------------------
 BYTE   W96
// 062   ----------------------------------------
 BYTE   W96
// 063   ----------------------------------------
 BYTE   W96
// 064   ----------------------------------------
 BYTE   GoTo
  POIN2 Label_8_01202358
// 065   ----------------------------------------
 BYTE   W09
 BYTE   FINE

//**************** Track 10 (Midi-Chn.9) ****************//

songC4_010:
// 000   ----------------------------------------
 BYTE   KEYSH   songC4_key+0
Label_9_01202438:
 BYTE   VOICE   124
 BYTE   VOL   37*songC4_mvl/mxv
 BYTE   PAN   c_v+0
 BYTE   BEND   c_v+0
 BYTE   W01
 BYTE   N11  Cn1  v127
 BYTE   N92  Cs2
 BYTE   W12
 BYTE   N11  Ds2  v076
 BYTE   W12
 BYTE   Cn1  v127
 BYTE   N04  Ds2  v092
 BYTE   W06
 BYTE   N11
 BYTE   W12
 BYTE   N11
 BYTE   W06
 BYTE   Cn1  v127
 BYTE   W06
 BYTE   N04  Ds2  v076
 BYTE   W06
 BYTE   N11  Ds2  v092
 BYTE   W12
 BYTE   Cn1  v127
 BYTE   N04  Ds2  v092
 BYTE   W06
 BYTE   Ds2  v076
 BYTE   W06
 BYTE   Ds2  v092
 BYTE   W06
 BYTE   Ds2  v076
 BYTE   W05
// 001   ----------------------------------------
 BYTE   W01
 BYTE   N11  Cn1  v127
 BYTE   N11  Ds2  v092
 BYTE   W12
 BYTE   Ds2  v076
 BYTE   W12
 BYTE   Cn1  v127
 BYTE   N04  Ds2  v092
 BYTE   W06
 BYTE   N11
 BYTE   W12
 BYTE   N11
 BYTE   W06
 BYTE   Cn1  v127
 BYTE   W06
 BYTE   N04  Ds2  v076
 BYTE   W06
 BYTE   N11  Ds2  v092
 BYTE   W12
 BYTE   Cn1  v127
 BYTE   N04  Ds2  v092
 BYTE   W06
 BYTE   Ds2  v076
 BYTE   W06
 BYTE   N11  Ds2  v092
 BYTE   W11
// 002   ----------------------------------------
 BYTE   W01
 BYTE   Cn1  v127
 BYTE   N11  Ds2  v092
 BYTE   W12
 BYTE   Ds2  v076
 BYTE   W12
 BYTE   Cn1  v127
 BYTE   N04  Ds2  v092
 BYTE   W06
 BYTE   N11
 BYTE   W12
 BYTE   N11
 BYTE   W06
 BYTE   Cn1  v127
 BYTE   W06
 BYTE   N04  Ds2  v076
 BYTE   W06
 BYTE   N11  Ds2  v092
 BYTE   W12
 BYTE   Cn1  v127
 BYTE   N04  Ds2  v092
 BYTE   W06
 BYTE   Ds2  v076
 BYTE   W06
 BYTE   Ds2  v092
 BYTE   W06
 BYTE   Ds2  v076
 BYTE   W05
// 003   ----------------------------------------
 BYTE   W01
 BYTE   N11  Cn1  v127
 BYTE   N11  Ds2  v092
 BYTE   W12
 BYTE   Ds2  v076
 BYTE   W12
 BYTE   Cn1  v127
 BYTE   N04  Ds2  v092
 BYTE   W06
 BYTE   N11
 BYTE   W12
 BYTE   N11
 BYTE   W06
 BYTE   Cn1  v127
 BYTE   W06
 BYTE   N04  Ds2  v076
 BYTE   W06
 BYTE   N11  Ds2  v092
 BYTE   W12
 BYTE   Cn1  v127
 BYTE   N04  Dn1
 BYTE   N22  Ds2  v092
 BYTE   W06
 BYTE   N04  Dn1  v127
 BYTE   W06
 BYTE   N04
 BYTE   W06
 BYTE   N04
 BYTE   W05
// 004   ----------------------------------------
 BYTE   W01
 BYTE   N11  Cn1
 BYTE   N92  Cs2
 BYTE   W12
 BYTE   N11  Cn1
 BYTE   N11  Ds2  v076
 BYTE   W12
 BYTE   Dn1  v127
 BYTE   N04  Ds2  v092
 BYTE   W06
 BYTE   N11
 BYTE   W06
 BYTE   N04  Cn1  v127
 BYTE   W06
 BYTE   N11  Dn1
 BYTE   N11  Ds2  v092
 BYTE   W12
 BYTE   N04  Dn1  v100
 BYTE   N04  Ds2  v076
 BYTE   W06
 BYTE   N11  Cn1  v127
 BYTE   N11  Ds2  v092
 BYTE   W12
 BYTE   N04  Cn1  v127
 BYTE   N04  Ds2  v092
 BYTE   W06
 BYTE   Cn1  v127
 BYTE   N04  Ds2  v076
 BYTE   W06
 BYTE   N16  Cn1  v127
 BYTE   N04  Ds2  v092
 BYTE   W06
 BYTE   Ds2  v076
 BYTE   W05
// 005   ----------------------------------------
 BYTE   W01
 BYTE   N11  Ds2  v092
 BYTE   W06
 BYTE   N04  Dn1  v100
 BYTE   W06
 BYTE   N11  Cn1  v127
 BYTE   N11  Ds2  v076
 BYTE   W12
 BYTE   Dn1  v127
 BYTE   N04  Ds2  v092
 BYTE   W06
 BYTE   N11
 BYTE   W06
 BYTE   N04  Cn1  v127
 BYTE   W06
 BYTE   N11  Dn1
 BYTE   N11  Ds2  v092
 BYTE   W12
 BYTE   N04  Dn1  v100
 BYTE   N04  Ds2  v076
 BYTE   W06
 BYTE   N11  Cn1  v127
 BYTE   N11  Ds2  v092
 BYTE   W12
 BYTE   N04  Cn1  v127
 BYTE   N04  Ds2  v092
 BYTE   W06
 BYTE   Cn1  v127
 BYTE   N04  Ds2  v076
 BYTE   W06
 BYTE   N11  Dn1  v127
 BYTE   N11  Ds2  v092
 BYTE   W11
// 006   ----------------------------------------
Label_9_01202581:
 BYTE   W01
 BYTE   N11  Cn1  v127
 BYTE   N11  Ds2  v092
 BYTE   W12
 BYTE   Cn1  v127
 BYTE   N11  Ds2  v076
 BYTE   W12
 BYTE   Dn1  v127
 BYTE   N04  Ds2  v092
 BYTE   W06
 BYTE   N11
 BYTE   W06
 BYTE   N04  Cn1  v127
 BYTE   W06
 BYTE   N11  Dn1
 BYTE   N11  Ds2  v092
 BYTE   W12
 BYTE   N04  Dn1  v100
 BYTE   N04  Ds2  v076
 BYTE   W06
 BYTE   N11  Cn1  v127
 BYTE   N11  Ds2  v092
 BYTE   W12
 BYTE   N04  Cn1  v127
 BYTE   N04  Ds2  v092
 BYTE   W06
 BYTE   Cn1  v127
 BYTE   N04  Ds2  v076
 BYTE   W06
 BYTE   N11  Dn1  v127
 BYTE   N04  Ds2  v092
 BYTE   W06
 BYTE   Ds2  v076
 BYTE   W05
 BYTE   PEND 
// 007   ----------------------------------------
 BYTE   W01
 BYTE   N11  Cn1  v127
 BYTE   N92  Cs2
 BYTE   W12
 BYTE   N11  Cn1
 BYTE   N11  Ds2  v076
 BYTE   W12
 BYTE   Dn1  v127
 BYTE   N04  Ds2  v092
 BYTE   W06
 BYTE   N11
 BYTE   W06
 BYTE   N04  Cn1  v127
 BYTE   W06
 BYTE   N11  Dn1
 BYTE   N11  Ds2  v092
 BYTE   W12
 BYTE   N04  Dn1  v100
 BYTE   N04  Ds2  v076
 BYTE   W06
 BYTE   N11  Cn1  v127
 BYTE   N11  Ds2  v092
 BYTE   W12
 BYTE   N04  Dn1  v127
 BYTE   N22  Ds2  v092
 BYTE   W06
 BYTE   N04  Dn1  v127
 BYTE   W06
 BYTE   N04
 BYTE   W06
 BYTE   N04
 BYTE   W05
// 008   ----------------------------------------
Label_9_01202603:
 BYTE   W01
 BYTE   N11  Cn1  v127
 BYTE   N92  Cs2
 BYTE   W12
 BYTE   N11  Cn1
 BYTE   N11  Ds2  v076
 BYTE   W12
 BYTE   Dn1  v127
 BYTE   N04  Ds2  v092
 BYTE   W06
 BYTE   N11
 BYTE   W06
 BYTE   N04  Cn1  v127
 BYTE   W06
 BYTE   N11  Dn1
 BYTE   N11  Ds2  v092
 BYTE   W12
 BYTE   N04  Dn1  v100
 BYTE   N04  Ds2  v076
 BYTE   W06
 BYTE   N11  Cn1  v127
 BYTE   N11  Ds2  v092
 BYTE   W12
 BYTE   N04  Cn1  v127
 BYTE   N04  Ds2  v092
 BYTE   W06
 BYTE   N11  Dn1  v127
 BYTE   N04  Ds2  v076
 BYTE   W06
 BYTE   N11  Cn1  v127
 BYTE   N04  Ds2  v092
 BYTE   W06
 BYTE   Ds2  v076
 BYTE   W05
 BYTE   PEND 
// 009   ----------------------------------------
Label_9_01202649:
 BYTE   W01
 BYTE   N11  Cn1  v127
 BYTE   N11  Ds2  v092
 BYTE   W06
 BYTE   N04  Dn1  v100
 BYTE   W06
 BYTE   N11  Cn1  v127
 BYTE   N11  Ds2  v076
 BYTE   W12
 BYTE   Dn1  v127
 BYTE   N04  Ds2  v092
 BYTE   W06
 BYTE   N11
 BYTE   W06
 BYTE   N04  Cn1  v127
 BYTE   W06
 BYTE   N11  Dn1
 BYTE   N11  Ds2  v092
 BYTE   W12
 BYTE   N04  Dn1  v100
 BYTE   N04  Ds2  v076
 BYTE   W06
 BYTE   N11  Cn1  v127
 BYTE   N11  Ds2  v092
 BYTE   W12
 BYTE   N04  Cn1  v127
 BYTE   N04  Ds2  v092
 BYTE   W06
 BYTE   Cn1  v127
 BYTE   N04  Ds2  v076
 BYTE   W06
 BYTE   N11  Dn1  v127
 BYTE   N11  Ds2  v092
 BYTE   W11
 BYTE   PEND 
// 010   ----------------------------------------
 BYTE   PATT
  POIN2 Label_9_01202581
// 011   ----------------------------------------
Label_9_01202696:
 BYTE   W01
 BYTE   N11  Cn1  v127
 BYTE   N11  Ds2  v092
 BYTE   W12
 BYTE   Cn1  v127
 BYTE   N11  Ds2  v076
 BYTE   W12
 BYTE   Dn1  v127
 BYTE   N04  Ds2  v092
 BYTE   W06
 BYTE   N11
 BYTE   W06
 BYTE   N04  Cn1  v127
 BYTE   W06
 BYTE   N11  Dn1
 BYTE   N11  Ds2  v092
 BYTE   W12
 BYTE   N04  Dn1  v100
 BYTE   N04  Ds2  v076
 BYTE   W06
 BYTE   N11  Cn1  v127
 BYTE   N11  Ds2  v092
 BYTE   W12
 BYTE   N04  Dn1  v127
 BYTE   N22  Ds2  v092
 BYTE   W06
 BYTE   N04  Dn1  v127
 BYTE   W06
 BYTE   N04
 BYTE   W06
 BYTE   N04
 BYTE   W05
 BYTE   PEND 
// 012   ----------------------------------------
 BYTE   PATT
  POIN2 Label_9_01202603
// 013   ----------------------------------------
 BYTE   PATT
  POIN2 Label_9_01202649
// 014   ----------------------------------------
 BYTE   PATT
  POIN2 Label_9_01202581
// 015   ----------------------------------------
Label_9_012026E3:
 BYTE   W01
 BYTE   N11  Cn1  v127
 BYTE   N11  Ds2  v092
 BYTE   W12
 BYTE   Cn1  v127
 BYTE   N11  Ds2  v076
 BYTE   W12
 BYTE   Dn1  v127
 BYTE   N04  Ds2  v092
 BYTE   W06
 BYTE   N11
 BYTE   W06
 BYTE   N04  Cn1  v127
 BYTE   W06
 BYTE   N11  Dn1
 BYTE   N11  Ds2  v092
 BYTE   W12
 BYTE   N04  Dn1  v100
 BYTE   N04  Ds2  v076
 BYTE   W06
 BYTE   N11  Cn1  v127
 BYTE   N11  Ds2  v092
 BYTE   W12
 BYTE   Dn1  v127
 BYTE   N22  Ds2  v092
 BYTE   W12
 BYTE   N11  Dn1  v127
 BYTE   W11
 BYTE   PEND 
// 016   ----------------------------------------
Label_9_0120271C:
 BYTE   W01
 BYTE   N11  Cn1  v127
 BYTE   N92  Cs2
 BYTE   W12
 BYTE   N11  Ds2  v076
 BYTE   W12
 BYTE   N22  Dn1  v127
 BYTE   N04  Ds2  v092
 BYTE   W06
 BYTE   N11
 BYTE   W12
 BYTE   N11
 BYTE   W06
 BYTE   N04  Cn1  v127
 BYTE   W06
 BYTE   N04
 BYTE   N04  Ds2  v076
 BYTE   W06
 BYTE   N11  Cn1  v127
 BYTE   N11  Ds2  v092
 BYTE   W12
 BYTE   N22  Dn1  v127
 BYTE   N04  Ds2  v092
 BYTE   W06
 BYTE   Ds2  v076
 BYTE   W06
 BYTE   Ds2  v092
 BYTE   W06
 BYTE   Ds2  v076
 BYTE   W05
 BYTE   PEND 
// 017   ----------------------------------------
Label_9_01202753:
 BYTE   W01
 BYTE   N11  Cn1  v127
 BYTE   N11  Ds2  v092
 BYTE   W12
 BYTE   Ds2  v076
 BYTE   W12
 BYTE   N22  Dn1  v127
 BYTE   N04  Ds2  v092
 BYTE   W06
 BYTE   N11
 BYTE   W12
 BYTE   N11
 BYTE   W06
 BYTE   N04  Cn1  v127
 BYTE   W06
 BYTE   N04
 BYTE   N04  Ds2  v076
 BYTE   W06
 BYTE   N11  Cn1  v127
 BYTE   N11  Ds2  v092
 BYTE   W12
 BYTE   N22  Dn1  v127
 BYTE   N04  Ds2  v092
 BYTE   W06
 BYTE   Ds2  v076
 BYTE   W06
 BYTE   N11  Ds2  v092
 BYTE   W11
 BYTE   PEND 
// 018   ----------------------------------------
Label_9_01202788:
 BYTE   W01
 BYTE   N11  Cn1  v127
 BYTE   N11  Ds2  v092
 BYTE   W12
 BYTE   Ds2  v076
 BYTE   W12
 BYTE   N22  Dn1  v127
 BYTE   N04  Ds2  v092
 BYTE   W06
 BYTE   N11
 BYTE   W12
 BYTE   N04  Cn1  v127
 BYTE   N11  Ds2  v092
 BYTE   W06
 BYTE   N04  Cn1  v127
 BYTE   W06
 BYTE   Ds2  v076
 BYTE   W06
 BYTE   N11  Cn1  v127
 BYTE   N11  Ds2  v092
 BYTE   W12
 BYTE   N22  Dn1  v127
 BYTE   N04  Ds2  v092
 BYTE   W06
 BYTE   N11  Cn1  v127
 BYTE   N04  Ds2  v076
 BYTE   W06
 BYTE   Ds2  v092
 BYTE   W06
 BYTE   Cn1  v127
 BYTE   N04  Ds2  v076
 BYTE   W05
 BYTE   PEND 
// 019   ----------------------------------------
Label_9_012027C9:
 BYTE   W01
 BYTE   N11  Cn1  v127
 BYTE   N11  Ds2  v092
 BYTE   W12
 BYTE   Cn1  v127
 BYTE   N11  Ds2  v076
 BYTE   W12
 BYTE   N22  Dn1  v127
 BYTE   N04  Ds2  v092
 BYTE   W06
 BYTE   N11  Cn1  v127
 BYTE   N11  Ds2  v092
 BYTE   W12
 BYTE   N04  Cn1  v127
 BYTE   N11  Ds2  v092
 BYTE   W06
 BYTE   Cn1  v127
 BYTE   W06
 BYTE   N04  Ds2  v076
 BYTE   W06
 BYTE   N11  Cn1  v127
 BYTE   N11  Ds2  v092
 BYTE   W12
 BYTE   N04  Dn1  v127
 BYTE   N22  Ds2  v092
 BYTE   W06
 BYTE   N04  Dn1  v127
 BYTE   W06
 BYTE   N04
 BYTE   W06
 BYTE   N04
 BYTE   W05
 BYTE   PEND 
// 020   ----------------------------------------
 BYTE   PATT
  POIN2 Label_9_0120271C
// 021   ----------------------------------------
 BYTE   PATT
  POIN2 Label_9_01202753
// 022   ----------------------------------------
 BYTE   PATT
  POIN2 Label_9_01202788
// 023   ----------------------------------------
Label_9_01202819:
 BYTE   W01
 BYTE   N11  Cn1  v127
 BYTE   N44  Cs2
 BYTE   W12
 BYTE   N11  Cn1
 BYTE   N11  Ds2  v076
 BYTE   W12
 BYTE   N22  Dn1  v127
 BYTE   N04  Ds2  v092
 BYTE   W06
 BYTE   N11  Cn1  v127
 BYTE   N11  Ds2  v092
 BYTE   W12
 BYTE   N04  Cn1  v127
 BYTE   W06
 BYTE   N11
 BYTE   N44  Cs2
 BYTE   W06
 BYTE   N04  Ds2  v076
 BYTE   W06
 BYTE   N11  Cn1  v127
 BYTE   N11  Ds2  v092
 BYTE   W12
 BYTE   N04  Dn1  v127
 BYTE   N11  Ds2  v092
 BYTE   W06
 BYTE   N04  Dn1  v127
 BYTE   W06
 BYTE   N04
 BYTE   W06
 BYTE   N04
 BYTE   W05
 BYTE   PEND 
// 024   ----------------------------------------
Label_9_01202857:
 BYTE   W01
 BYTE   N11  Cn1  v127
 BYTE   N04  Fs1  v048
 BYTE   N92  Cs2  v127
 BYTE   W06
 BYTE   N04  Fs1  v048
 BYTE   W06
 BYTE   N11  Cn1  v127
 BYTE   N04  Fs1  v084
 BYTE   W06
 BYTE   Fs1  v048
 BYTE   W06
 BYTE   N11  Dn1  v127
 BYTE   N04  Fs1  v112
 BYTE   W06
 BYTE   Fs1  v048
 BYTE   W06
 BYTE   Cn1  v127
 BYTE   N04  Fs1  v084
 BYTE   W06
 BYTE   N11  Dn1  v127
 BYTE   N04  Fs1  v048
 BYTE   W06
 BYTE   N04
 BYTE   W06
 BYTE   Dn1  v100
 BYTE   N04  Fs1  v048
 BYTE   W06
 BYTE   N11  Cn1  v127
 BYTE   N04  Fs1  v084
 BYTE   W06
 BYTE   Fs1  v048
 BYTE   W06
 BYTE   Cn1  v127
 BYTE   N04  Fs1  v112
 BYTE   W06
 BYTE   N11  Dn1  v127
 BYTE   N04  Fs1  v048
 BYTE   W06
 BYTE   N11  Cn1  v127
 BYTE   N04  Fs1  v084
 BYTE   W06
 BYTE   Fs1  v048
 BYTE   W05
 BYTE   PEND 
// 025   ----------------------------------------
Label_9_012028B1:
 BYTE   W01
 BYTE   N11  Cn1  v127
 BYTE   N04  Fs1  v048
 BYTE   W06
 BYTE   Dn1  v100
 BYTE   N04  Fs1  v048
 BYTE   W06
 BYTE   N11  Cn1  v127
 BYTE   N04  Fs1  v084
 BYTE   W06
 BYTE   Fs1  v048
 BYTE   W06
 BYTE   N11  Dn1  v127
 BYTE   N04  Fs1  v112
 BYTE   W06
 BYTE   Fs1  v048
 BYTE   W06
 BYTE   Cn1  v127
 BYTE   N04  Fs1  v084
 BYTE   W06
 BYTE   N11  Dn1  v127
 BYTE   N04  Fs1  v048
 BYTE   W06
 BYTE   N04
 BYTE   W06
 BYTE   Dn1  v100
 BYTE   N04  Fs1  v048
 BYTE   W06
 BYTE   N11  Cn1  v127
 BYTE   N04  Fs1  v084
 BYTE   W06
 BYTE   Fs1  v048
 BYTE   W06
 BYTE   Cn1  v127
 BYTE   N04  Fs1  v112
 BYTE   W06
 BYTE   Cn1  v127
 BYTE   N04  Fs1  v048
 BYTE   W06
 BYTE   N11  Dn1  v127
 BYTE   N04  Fs1  v084
 BYTE   W06
 BYTE   Fs1  v048
 BYTE   W05
 BYTE   PEND 
// 026   ----------------------------------------
Label_9_01202909:
 BYTE   W01
 BYTE   N11  Cn1  v127
 BYTE   N04  Fs1  v048
 BYTE   W06
 BYTE   N04
 BYTE   W06
 BYTE   N11  Cn1  v127
 BYTE   N04  Fs1  v084
 BYTE   W06
 BYTE   Fs1  v048
 BYTE   W06
 BYTE   N11  Dn1  v127
 BYTE   N04  Fs1  v112
 BYTE   W06
 BYTE   Fs1  v048
 BYTE   W06
 BYTE   Cn1  v127
 BYTE   N04  Fs1  v084
 BYTE   W06
 BYTE   N11  Dn1  v127
 BYTE   N04  Fs1  v048
 BYTE   W06
 BYTE   N04
 BYTE   W06
 BYTE   Dn1  v100
 BYTE   N04  Fs1  v048
 BYTE   W06
 BYTE   N11  Cn1  v127
 BYTE   N04  Fs1  v084
 BYTE   W06
 BYTE   Fs1  v048
 BYTE   W06
 BYTE   Cn1  v127
 BYTE   N04  Fs1  v112
 BYTE   W06
 BYTE   Cn1  v127
 BYTE   N04  Fs1  v048
 BYTE   W06
 BYTE   N11  Dn1  v127
 BYTE   N04  Fs1  v084
 BYTE   W06
 BYTE   Fs1  v048
 BYTE   W05
 BYTE   PEND 
// 027   ----------------------------------------
Label_9_0120295D:
 BYTE   W01
 BYTE   N11  Cn1  v127
 BYTE   N04  Fs1  v048
 BYTE   W06
 BYTE   N04
 BYTE   W06
 BYTE   N11  Cn1  v127
 BYTE   N04  Fs1  v084
 BYTE   W06
 BYTE   Fs1  v048
 BYTE   W06
 BYTE   N11  Dn1  v127
 BYTE   N04  Fs1  v112
 BYTE   W06
 BYTE   Fs1  v048
 BYTE   W06
 BYTE   Cn1  v127
 BYTE   N04  Fs1  v084
 BYTE   W06
 BYTE   N11  Dn1  v127
 BYTE   N04  Fs1  v048
 BYTE   W06
 BYTE   N04
 BYTE   W06
 BYTE   Dn1  v100
 BYTE   N04  Fs1  v048
 BYTE   W06
 BYTE   N11  Cn1  v127
 BYTE   N04  Fs1  v084
 BYTE   W06
 BYTE   Fs1  v048
 BYTE   W06
 BYTE   Dn1  v127
 BYTE   N04  Fs1  v112
 BYTE   W06
 BYTE   Dn1  v127
 BYTE   N04  Fs1  v048
 BYTE   W06
 BYTE   Dn1  v127
 BYTE   N04  Fs1  v084
 BYTE   W06
 BYTE   Dn1  v127
 BYTE   N04  Fs1  v048
 BYTE   W05
 BYTE   PEND 
// 028   ----------------------------------------
Label_9_012029B3:
 BYTE   W01
 BYTE   N11  Cn1  v127
 BYTE   N04  Fs1  v048
 BYTE   N92  Cs2  v127
 BYTE   W06
 BYTE   N04  Fs1  v048
 BYTE   W06
 BYTE   Fs1  v084
 BYTE   W06
 BYTE   Fs1  v048
 BYTE   W06
 BYTE   N22  Dn1  v127
 BYTE   N04  Fs1  v112
 BYTE   W06
 BYTE   Fs1  v048
 BYTE   W06
 BYTE   Fs1  v084
 BYTE   W06
 BYTE   Fs1  v048
 BYTE   W06
 BYTE   Cn1  v127
 BYTE   N04  Fs1  v048
 BYTE   W06
 BYTE   Cn1  v127
 BYTE   N04  Fs1  v048
 BYTE   W06
 BYTE   N11  Cn1  v127
 BYTE   N04  Fs1  v084
 BYTE   W06
 BYTE   Fs1  v048
 BYTE   W06
 BYTE   N22  Dn1  v127
 BYTE   N04  Fs1  v112
 BYTE   W06
 BYTE   Fs1  v048
 BYTE   W06
 BYTE   Fs1  v084
 BYTE   W06
 BYTE   Fs1  v048
 BYTE   W05
 BYTE   PEND 
// 029   ----------------------------------------
 BYTE   PATT
  POIN2 Label_9_012029B3
// 030   ----------------------------------------
 BYTE   W01
 BYTE   N11  Cn1  v127
 BYTE   N04  Fs1  v048
 BYTE   N92  Cs2  v127
 BYTE   W06
 BYTE   N04  Fs1  v048
 BYTE   W06
 BYTE   Fs1  v084
 BYTE   W06
 BYTE   Fs1  v048
 BYTE   W06
 BYTE   N22  Dn1  v127
 BYTE   N04  Fs1  v112
 BYTE   W06
 BYTE   Fs1  v048
 BYTE   W06
 BYTE   Fs1  v084
 BYTE   W06
 BYTE   Cn1  v127
 BYTE   N04  Fs1  v048
 BYTE   W06
 BYTE   Cn1  v127
 BYTE   N04  Fs1  v048
 BYTE   W06
 BYTE   N04
 BYTE   W06
 BYTE   N11  Cn1  v127
 BYTE   N04  Fs1  v084
 BYTE   W06
 BYTE   Fs1  v048
 BYTE   W06
 BYTE   N22  Dn1  v127
 BYTE   N04  Fs1  v112
 BYTE   W06
 BYTE   N11  Cn1  v127
 BYTE   N04  Fs1  v048
 BYTE   W06
 BYTE   Fs1  v084
 BYTE   W06
 BYTE   Cn1  v127
 BYTE   N04  Fs1  v048
 BYTE   W05
// 031   ----------------------------------------
 BYTE   W01
 BYTE   N11  Cn1  v127
 BYTE   N04  Fs1  v048
 BYTE   N44  Cs2  v127
 BYTE   W06
 BYTE   N04  Fs1  v048
 BYTE   W06
 BYTE   N11  Cn1  v127
 BYTE   N04  Fs1  v084
 BYTE   W06
 BYTE   Fs1  v048
 BYTE   W06
 BYTE   N22  Dn1  v127
 BYTE   N04  Fs1  v112
 BYTE   W06
 BYTE   N11  Cn1  v127
 BYTE   N04  Fs1  v048
 BYTE   W06
 BYTE   Fs1  v084
 BYTE   W06
 BYTE   Cn1  v127
 BYTE   N04  Fs1  v048
 BYTE   W06
 BYTE   N11  Cn1  v127
 BYTE   N04  Fs1  v048
 BYTE   N44  Cs2  v127
 BYTE   W06
 BYTE   N04  Fs1  v048
 BYTE   W06
 BYTE   N11  Cn1  v127
 BYTE   N04  Fs1  v084
 BYTE   W06
 BYTE   Fs1  v048
 BYTE   W06
 BYTE   Dn1  v127
 BYTE   N04  Fs1  v112
 BYTE   W06
 BYTE   Dn1  v127
 BYTE   N04  Fs1  v048
 BYTE   W06
 BYTE   Dn1  v127
 BYTE   N04  Fs1  v084
 BYTE   W06
 BYTE   Dn1  v127
 BYTE   N04  Fs1  v048
 BYTE   W05
// 032   ----------------------------------------
 BYTE   PATT
  POIN2 Label_9_01202603
// 033   ----------------------------------------
 BYTE   PATT
  POIN2 Label_9_01202649
// 034   ----------------------------------------
 BYTE   PATT
  POIN2 Label_9_01202581
// 035   ----------------------------------------
 BYTE   PATT
  POIN2 Label_9_01202696
// 036   ----------------------------------------
 BYTE   PATT
  POIN2 Label_9_01202603
// 037   ----------------------------------------
 BYTE   PATT
  POIN2 Label_9_01202649
// 038   ----------------------------------------
 BYTE   PATT
  POIN2 Label_9_01202581
// 039   ----------------------------------------
 BYTE   PATT
  POIN2 Label_9_012026E3
// 040   ----------------------------------------
 BYTE   PATT
  POIN2 Label_9_0120271C
// 041   ----------------------------------------
 BYTE   PATT
  POIN2 Label_9_01202753
// 042   ----------------------------------------
 BYTE   PATT
  POIN2 Label_9_01202788
// 043   ----------------------------------------
 BYTE   PATT
  POIN2 Label_9_012027C9
// 044   ----------------------------------------
 BYTE   PATT
  POIN2 Label_9_0120271C
// 045   ----------------------------------------
 BYTE   PATT
  POIN2 Label_9_01202753
// 046   ----------------------------------------
 BYTE   PATT
  POIN2 Label_9_01202788
// 047   ----------------------------------------
 BYTE   PATT
  POIN2 Label_9_01202819
// 048   ----------------------------------------
 BYTE   PATT
  POIN2 Label_9_01202857
// 049   ----------------------------------------
 BYTE   PATT
  POIN2 Label_9_012028B1
// 050   ----------------------------------------
 BYTE   PATT
  POIN2 Label_9_01202909
// 051   ----------------------------------------
 BYTE   PATT
  POIN2 Label_9_0120295D
// 052   ----------------------------------------
 BYTE   PATT
  POIN2 Label_9_01202857
// 053   ----------------------------------------
 BYTE   PATT
  POIN2 Label_9_012028B1
// 054   ----------------------------------------
 BYTE   W01
 BYTE   N11  Cn1  v127
 BYTE   N04  Fs1  v048
 BYTE   N92  Cs2  v127
 BYTE   W06
 BYTE   N04  Fs1  v048
 BYTE   W06
 BYTE   N11  Cn1  v127
 BYTE   N04  Fs1  v084
 BYTE   W06
 BYTE   Fs1  v048
 BYTE   W06
 BYTE   N11  Dn1  v127
 BYTE   N04  Fs1  v112
 BYTE   W06
 BYTE   Fs1  v048
 BYTE   W06
 BYTE   Cn1  v127
 BYTE   N04  Fs1  v084
 BYTE   W06
 BYTE   N11  Dn1  v127
 BYTE   N04  Fs1  v048
 BYTE   W06
 BYTE   N04
 BYTE   W06
 BYTE   Dn1  v100
 BYTE   N04  Fs1  v048
 BYTE   W06
 BYTE   N11  Cn1  v127
 BYTE   N04  Fs1  v084
 BYTE   W06
 BYTE   Fs1  v048
 BYTE   W06
 BYTE   Cn1  v127
 BYTE   N04  Fs1  v112
 BYTE   W06
 BYTE   Cn1  v127
 BYTE   N04  Fs1  v048
 BYTE   W06
 BYTE   N11  Dn1  v127
 BYTE   N04  Fs1  v084
 BYTE   W06
 BYTE   Fs1  v048
 BYTE   W05
// 055   ----------------------------------------
 BYTE   W01
 BYTE   N11  Cn1  v127
 BYTE   N04  Fs1  v048
 BYTE   W06
 BYTE   N04
 BYTE   W06
 BYTE   N11  Cn1  v127
 BYTE   N04  Fs1  v084
 BYTE   W06
 BYTE   Fs1  v048
 BYTE   W06
 BYTE   N11  Dn1  v127
 BYTE   N04  Fs1  v112
 BYTE   W06
 BYTE   Fs1  v048
 BYTE   W06
 BYTE   Cn1  v127
 BYTE   N04  Fs1  v084
 BYTE   W06
 BYTE   N11  Dn1  v127
 BYTE   N04  Fs1  v048
 BYTE   W06
 BYTE   N04
 BYTE   W06
 BYTE   Dn1  v100
 BYTE   N04  Fs1  v048
 BYTE   W06
 BYTE   N11  Cn1  v127
 BYTE   N04  Fs1  v084
 BYTE   W06
 BYTE   Fs1  v048
 BYTE   W06
 BYTE   N11  Dn1  v127
 BYTE   N04  Fs1  v112
 BYTE   W06
 BYTE   Fs1  v048
 BYTE   W06
 BYTE   N11  Dn1  v127
 BYTE   N04  Fs1  v084
 BYTE   W06
 BYTE   Fs1  v048
 BYTE   W05
// 056   ----------------------------------------
 BYTE   PATT
  POIN2 Label_9_0120271C
// 057   ----------------------------------------
 BYTE   PATT
  POIN2 Label_9_01202753
// 058   ----------------------------------------
 BYTE   PATT
  POIN2 Label_9_01202788
// 059   ----------------------------------------
 BYTE   PATT
  POIN2 Label_9_012027C9
// 060   ----------------------------------------
 BYTE   PATT
  POIN2 Label_9_0120271C
// 061   ----------------------------------------
 BYTE   PATT
  POIN2 Label_9_01202753
// 062   ----------------------------------------
 BYTE   PATT
  POIN2 Label_9_01202788
// 063   ----------------------------------------
 BYTE   W01
 BYTE   N11  Cn1  v127
 BYTE   N44  Cs2
 BYTE   W12
 BYTE   N11  Cn1
 BYTE   N11  Ds2  v076
 BYTE   W12
 BYTE   N22  Dn1  v127
 BYTE   N04  Ds2  v092
 BYTE   W06
 BYTE   N11  Cn1  v127
 BYTE   N11  Ds2  v092
 BYTE   W12
 BYTE   N04  Cn1  v127
 BYTE   W06
 BYTE   N11
 BYTE   N44  Cs2
 BYTE   W06
 BYTE   N04  Ds2  v076
 BYTE   W06
 BYTE   N11  Cn1  v127
 BYTE   N11  Ds2  v092
 BYTE   W12
 BYTE   N04  Dn1  v127
 BYTE   N22  Ds2  v092
 BYTE   W06
 BYTE   N04  Dn1  v127
 BYTE   W06
 BYTE   N04
 BYTE   W06
 BYTE   N04
 BYTE   W05
// 064   ----------------------------------------
 BYTE   GoTo
  POIN2 Label_9_01202438
// 065   ----------------------------------------
 BYTE   W09
 BYTE   FINE

//**************** Track 11 (Midi-Chn.10) ****************//

songC4_011:
// 000   ----------------------------------------
 BYTE   KEYSH   songC4_key+0
Label_10_01202C35:
 BYTE   VOICE   56
 BYTE   VOL   25*songC4_mvl/mxv
 BYTE   PAN   c_v+8
 BYTE   BEND   c_v-1
 BYTE   W96
// 001   ----------------------------------------
 BYTE   W96
// 002   ----------------------------------------
 BYTE   W96
// 003   ----------------------------------------
 BYTE   W96
// 004   ----------------------------------------
 BYTE   W96
// 005   ----------------------------------------
 BYTE   W96
// 006   ----------------------------------------
 BYTE   W96
// 007   ----------------------------------------
 BYTE   W96
// 008   ----------------------------------------
Label_10_01202C45:
 BYTE   W15
 BYTE   N28  Cn4  v127
 BYTE   W36
 BYTE   N22  Ds4
 BYTE   W24
 BYTE   Dn4
 BYTE   W21
 BYTE   PEND 
// 009   ----------------------------------------
Label_10_01202C50:
 BYTE   W03
 BYTE   N07  Cn4  v127
 BYTE   W12
 BYTE   N05  As3
 BYTE   W06
 BYTE   Gn3
 BYTE   W06
 BYTE   N28  As3
 BYTE   W36
 BYTE   N16  Gn3
 BYTE   W18
 BYTE   Gs3
 BYTE   W15
 BYTE   PEND 
// 010   ----------------------------------------
Label_10_01202C63:
 BYTE   W03
 BYTE   N07  As3  v127
 BYTE   W12
 BYTE   N05  Cn4
 BYTE   W06
 BYTE   As3
 BYTE   W06
 BYTE   N80  Cn4
 BYTE   W68
 BYTE   W01
 BYTE   PEND 
// 011   ----------------------------------------
 BYTE   W96
// 012   ----------------------------------------
 BYTE   PATT
  POIN2 Label_10_01202C45
// 013   ----------------------------------------
Label_10_01202C78:
 BYTE   W03
 BYTE   N07  Ds4  v127
 BYTE   W12
 BYTE   N36  Fn4
 BYTE   W48
 BYTE   N22  As4
 BYTE   W24
 BYTE   Gs4
 BYTE   W09
 BYTE   PEND 
// 014   ----------------------------------------
Label_10_01202C86:
 BYTE   W15
 BYTE   N92  Gn4  v127
 BYTE   W80
 BYTE   W01
 BYTE   PEND 
// 015   ----------------------------------------
 BYTE   W96
// 016   ----------------------------------------
 BYTE   PATT
  POIN2 Label_10_01202C45
// 017   ----------------------------------------
 BYTE   PATT
  POIN2 Label_10_01202C50
// 018   ----------------------------------------
 BYTE   PATT
  POIN2 Label_10_01202C63
// 019   ----------------------------------------
 BYTE   W96
// 020   ----------------------------------------
 BYTE   PATT
  POIN2 Label_10_01202C45
// 021   ----------------------------------------
 BYTE   PATT
  POIN2 Label_10_01202C78
// 022   ----------------------------------------
 BYTE   PATT
  POIN2 Label_10_01202C86
// 023   ----------------------------------------
 BYTE   W96
// 024   ----------------------------------------
 BYTE   W96
// 025   ----------------------------------------
 BYTE   W96
// 026   ----------------------------------------
 BYTE   W96
// 027   ----------------------------------------
 BYTE   W96
// 028   ----------------------------------------
 BYTE   W96
// 029   ----------------------------------------
 BYTE   W96
// 030   ----------------------------------------
 BYTE   W96
// 031   ----------------------------------------
 BYTE   W96
// 032   ----------------------------------------
 BYTE   PATT
  POIN2 Label_10_01202C45
// 033   ----------------------------------------
 BYTE   PATT
  POIN2 Label_10_01202C50
// 034   ----------------------------------------
 BYTE   PATT
  POIN2 Label_10_01202C63
// 035   ----------------------------------------
 BYTE   W96
// 036   ----------------------------------------
 BYTE   PATT
  POIN2 Label_10_01202C45
// 037   ----------------------------------------
 BYTE   PATT
  POIN2 Label_10_01202C78
// 038   ----------------------------------------
 BYTE   PATT
  POIN2 Label_10_01202C86
// 039   ----------------------------------------
 BYTE   W96
// 040   ----------------------------------------
 BYTE   PATT
  POIN2 Label_10_01202C45
// 041   ----------------------------------------
 BYTE   PATT
  POIN2 Label_10_01202C50
// 042   ----------------------------------------
 BYTE   PATT
  POIN2 Label_10_01202C63
// 043   ----------------------------------------
 BYTE   W96
// 044   ----------------------------------------
 BYTE   PATT
  POIN2 Label_10_01202C45
// 045   ----------------------------------------
 BYTE   PATT
  POIN2 Label_10_01202C78
// 046   ----------------------------------------
 BYTE   PATT
  POIN2 Label_10_01202C86
// 047   ----------------------------------------
 BYTE   W96
// 048   ----------------------------------------
 BYTE   W96
// 049   ----------------------------------------
 BYTE   W96
// 050   ----------------------------------------
 BYTE   W96
// 051   ----------------------------------------
 BYTE   W96
// 052   ----------------------------------------
 BYTE   W96
// 053   ----------------------------------------
 BYTE   W96
// 054   ----------------------------------------
 BYTE   W96
// 055   ----------------------------------------
 BYTE   W96
// 056   ----------------------------------------
 BYTE   W96
// 057   ----------------------------------------
 BYTE   W96
// 058   ----------------------------------------
 BYTE   W96
// 059   ----------------------------------------
 BYTE   W96
// 060   ----------------------------------------
 BYTE   W96
// 061   ----------------------------------------
 BYTE   W96
// 062   ----------------------------------------
 BYTE   W96
// 063   ----------------------------------------
 BYTE   W96
// 064   ----------------------------------------
 BYTE   GoTo
  POIN2 Label_10_01202C35
// 065   ----------------------------------------
 BYTE   W09
 BYTE   FINE

//**************** Track 12 (Midi-Chn.11) ****************//

songC4_012:
// 000   ----------------------------------------
 BYTE   KEYSH   songC4_key+0
Label_11_01202D0F:
 BYTE   VOICE   73
 BYTE   VOL   14*songC4_mvl/mxv
 BYTE   PAN   c_v+0
 BYTE   BEND   c_v-1
 BYTE   W96
// 001   ----------------------------------------
 BYTE   W96
// 002   ----------------------------------------
 BYTE   W96
// 003   ----------------------------------------
 BYTE   W96
// 004   ----------------------------------------
 BYTE   W96
// 005   ----------------------------------------
 BYTE   W96
// 006   ----------------------------------------
 BYTE   W96
// 007   ----------------------------------------
 BYTE   W96
// 008   ----------------------------------------
 BYTE   W96
// 009   ----------------------------------------
 BYTE   W96
// 010   ----------------------------------------
 BYTE   W96
// 011   ----------------------------------------
 BYTE   W96
// 012   ----------------------------------------
 BYTE   W96
// 013   ----------------------------------------
 BYTE   W96
// 014   ----------------------------------------
 BYTE   W96
// 015   ----------------------------------------
 BYTE   W96
// 016   ----------------------------------------
 BYTE   W96
// 017   ----------------------------------------
 BYTE   W96
// 018   ----------------------------------------
 BYTE   W96
// 019   ----------------------------------------
 BYTE   W96
// 020   ----------------------------------------
 BYTE   W96
// 021   ----------------------------------------
 BYTE   W96
// 022   ----------------------------------------
 BYTE   W96
// 023   ----------------------------------------
 BYTE   W96
// 024   ----------------------------------------
Label_11_01202D2F:
 BYTE   W24
 BYTE   N54  Cn5  v120
 BYTE   W60
 BYTE   N11  Dn5
 BYTE   W12
 BYTE   PEND 
// 025   ----------------------------------------
Label_11_01202D38:
 BYTE   N11  Ds5  v120
 BYTE   W12
 BYTE   Fn5
 BYTE   W12
 BYTE   N56  Gn5
 BYTE   W72
 BYTE   PEND 
// 026   ----------------------------------------
Label_11_01202D42:
 BYTE   N11  Fn5  v120
 BYTE   W12
 BYTE   Gn5
 BYTE   W12
 BYTE   Gs5
 BYTE   W18
 BYTE   Gn5
 BYTE   W18
 BYTE   Fn5
 BYTE   W12
 BYTE   Ds5
 BYTE   W18
 BYTE   Dn5
 BYTE   W06
 BYTE   PEND 
// 027   ----------------------------------------
Label_11_01202D53:
 BYTE   W12
 BYTE   N11  Cn5  v120
 BYTE   W12
 BYTE   N28
 BYTE   W36
 BYTE   N05  Dn5
 BYTE   W06
 BYTE   Cn5
 BYTE   W06
 BYTE   N36  Bn4
 BYTE   W24
 BYTE   PEND 
// 028   ----------------------------------------
Label_11_01202D63:
 BYTE   W24
 BYTE   N16  Cn5  v120
 BYTE   W18
 BYTE   Dn5
 BYTE   W18
 BYTE   N07  Ds5
 BYTE   W12
 BYTE   N16  Cn5
 BYTE   W18
 BYTE   Dn5
 BYTE   W06
 BYTE   PEND 
// 029   ----------------------------------------
Label_11_01202D73:
 BYTE   W12
 BYTE   N07  Ds5  v120
 BYTE   W12
 BYTE   N16  Dn5
 BYTE   W18
 BYTE   Ds5
 BYTE   W18
 BYTE   N07  Fn5
 BYTE   W12
 BYTE   N16  Dn5
 BYTE   W18
 BYTE   Ds5
 BYTE   W06
 BYTE   PEND 
// 030   ----------------------------------------
Label_11_01202D86:
 BYTE   W12
 BYTE   N07  Fn5  v120
 BYTE   W12
 BYTE   N16  Cs5
 BYTE   W18
 BYTE   Ds5
 BYTE   W18
 BYTE   N07  Fn5
 BYTE   W12
 BYTE   N16  Gn5
 BYTE   W18
 BYTE   Gs5
 BYTE   W06
 BYTE   PEND 
// 031   ----------------------------------------
 BYTE   W12
 BYTE   N07  As5
 BYTE   W12
 BYTE   N88  Cn5
 BYTE   W72
// 032   ----------------------------------------
 BYTE   W96
// 033   ----------------------------------------
 BYTE   W96
// 034   ----------------------------------------
 BYTE   W96
// 035   ----------------------------------------
 BYTE   W96
// 036   ----------------------------------------
 BYTE   W96
// 037   ----------------------------------------
 BYTE   W96
// 038   ----------------------------------------
 BYTE   W96
// 039   ----------------------------------------
 BYTE   W96
// 040   ----------------------------------------
 BYTE   W96
// 041   ----------------------------------------
 BYTE   W96
// 042   ----------------------------------------
 BYTE   W96
// 043   ----------------------------------------
 BYTE   W96
// 044   ----------------------------------------
 BYTE   W96
// 045   ----------------------------------------
 BYTE   W96
// 046   ----------------------------------------
 BYTE   W96
// 047   ----------------------------------------
 BYTE   W96
// 048   ----------------------------------------
 BYTE   W96
// 049   ----------------------------------------
 BYTE   W96
// 050   ----------------------------------------
 BYTE   W96
// 051   ----------------------------------------
 BYTE   W96
// 052   ----------------------------------------
 BYTE   W96
// 053   ----------------------------------------
 BYTE   W96
// 054   ----------------------------------------
 BYTE   W96
// 055   ----------------------------------------
 BYTE   W96
// 056   ----------------------------------------
 BYTE   PATT
  POIN2 Label_11_01202D2F
// 057   ----------------------------------------
 BYTE   PATT
  POIN2 Label_11_01202D38
// 058   ----------------------------------------
 BYTE   PATT
  POIN2 Label_11_01202D42
// 059   ----------------------------------------
 BYTE   PATT
  POIN2 Label_11_01202D53
// 060   ----------------------------------------
 BYTE   PATT
  POIN2 Label_11_01202D63
// 061   ----------------------------------------
 BYTE   PATT
  POIN2 Label_11_01202D73
// 062   ----------------------------------------
 BYTE   PATT
  POIN2 Label_11_01202D86
// 063   ----------------------------------------
 BYTE   W12
 BYTE   N07  As5  v120
 BYTE   W12
 BYTE   N80  Cn5
 BYTE   W72
// 064   ----------------------------------------
 BYTE   GoTo
  POIN2 Label_11_01202D0F
// 065   ----------------------------------------
 BYTE   W09
 BYTE   FINE

//******************************************************//
	ALIGN 4

songC4:
	BYTE	12	// NumTrks
	BYTE	0	// NumBlks
	BYTE	songC4_pri	// Priority
	BYTE	songC4_rev	// Reverb.
    
	POIN2	songC4_grp
    
	POIN2	songC4_001
	POIN2	songC4_002
	POIN2	songC4_003
	POIN2	songC4_004
	POIN2	songC4_005
	POIN2	songC4_006
	POIN2	songC4_007
	POIN2	songC4_008
	POIN2	songC4_009
	POIN2	songC4_010
	POIN2	songC4_011
	POIN2	songC4_012

	
