//Event file generated from Sappy .s format.
	#include "MPlayDef.event"

	#define	song03DF_grp  voicegroup001
	#define	song03DF_pri  0
	#define	song03DF_rev  0
	#define	song03DF_mvl  127
	#define	song03DF_key  0
	#define	song03DF_tbs  1
	#define	song03DF_exg  0
	#define	song03DF_cmp  1

	// .rodata
	//	song03DF
	ALIGN 4


//**************** Track 1 (Midi-Chn.0) ****************//

song03DF_001:
// 000   ----------------------------------------
 BYTE   KEYSH   song03DF_key+0
Label_0_0166CC86:
 BYTE   TEMPO   210*song03DF_tbs/2
 BYTE   VOICE   30
 BYTE   VOL   42*song03DF_mvl/mxv
 BYTE   PAN   c_v+0
 BYTE   MOD 0
 BYTE   FnM2
 BYTE   BEND   c_v+0
 BYTE   N11  Cn2  v116
 BYTE   W12
 BYTE   Gn2
 BYTE   W12
 BYTE   Cn3
 BYTE   W12
 BYTE   BEND   c_v-64
 BYTE   TIE  Gn3
 BYTE   W01
 BYTE   BEND   c_v-57
 BYTE   W01
 BYTE   AnM1
 BYTE   W02
 BYTE   An0
 BYTE   W01
 BYTE   Gn1
 BYTE   W02
 BYTE   Ds2
 BYTE   W01
 BYTE   An2
 BYTE   W01
 BYTE   Cs3
 BYTE   W02
 BYTE   Ds3
 BYTE   W01
 BYTE   Ds3
 BYTE   W48
// 001   ----------------------------------------
Label_0_0166CCB2:
 BYTE   W24
 BYTE   BEND   c_v-1
 BYTE   W01
 BYTE   Ds3
 BYTE   W01
 BYTE   Ds3
 BYTE   W02
 BYTE   Dn3
 BYTE   W01
 BYTE   Cn3
 BYTE   W02
 BYTE   As2
 BYTE   W01
 BYTE   Gs2
 BYTE   W01
 BYTE   Fs2
 BYTE   W02
 BYTE   Dn2
 BYTE   W01
 BYTE   Bn1
 BYTE   W01
 BYTE   Gn1
 BYTE   W02
 BYTE   Ds1
 BYTE   W01
 BYTE   As0
 BYTE   W02
 BYTE   Fn0
 BYTE   W01
 BYTE   Cn0
 BYTE   W01
 BYTE   FsM1
 BYTE   W02
 BYTE   PEND 
 BYTE   EOT
 BYTE   Gn3
 BYTE   BEND   c_v-52
 BYTE   W01
 BYTE   FnM2
 BYTE   W01
 BYTE   En3
 BYTE   N11  Cs2  v116
 BYTE   W12
 BYTE   Gs2
 BYTE   W12
 BYTE   Cs3
 BYTE   W12
 BYTE   BEND   c_v-64
 BYTE   TIE  Gs3
 BYTE   W01
 BYTE   BEND   c_v-57
 BYTE   W01
 BYTE   AnM1
 BYTE   W02
 BYTE   An0
 BYTE   W01
 BYTE   Gn1
 BYTE   W02
 BYTE   Ds2
 BYTE   W01
 BYTE   An2
 BYTE   W01
 BYTE   Cs3
 BYTE   W02
 BYTE   Ds3
 BYTE   W01
// 002   ----------------------------------------
Label_0_0166CCFB:
 BYTE   BEND   c_v-1
 BYTE   W72
 BYTE   Ds3
 BYTE   W01
 BYTE   Ds3
 BYTE   W01
 BYTE   Ds3
 BYTE   W02
 BYTE   Dn3
 BYTE   W01
 BYTE   Cn3
 BYTE   W02
 BYTE   As2
 BYTE   W01
 BYTE   Gs2
 BYTE   W01
 BYTE   Fs2
 BYTE   W02
 BYTE   Dn2
 BYTE   W01
 BYTE   Bn1
 BYTE   W01
 BYTE   Gn1
 BYTE   W02
 BYTE   Ds1
 BYTE   W01
 BYTE   As0
 BYTE   W02
 BYTE   Fn0
 BYTE   W01
 BYTE   Cn0
 BYTE   W01
 BYTE   FsM1
 BYTE   W02
 BYTE   PEND 
 BYTE   EOT
 BYTE   Gs3
 BYTE   BEND   c_v-52
 BYTE   W01
 BYTE   FnM2
 BYTE   W01
// 003   ----------------------------------------
 BYTE   En3
 BYTE   N11  Cn2  v116
 BYTE   W12
 BYTE   Gn2
 BYTE   W12
 BYTE   Cn3
 BYTE   W12
 BYTE   BEND   c_v-64
 BYTE   TIE  Gn3
 BYTE   W01
 BYTE   BEND   c_v-57
 BYTE   W01
 BYTE   AnM1
 BYTE   W02
 BYTE   An0
 BYTE   W01
 BYTE   Gn1
 BYTE   W02
 BYTE   Ds2
 BYTE   W01
 BYTE   An2
 BYTE   W01
 BYTE   Cs3
 BYTE   W02
 BYTE   Ds3
 BYTE   W01
 BYTE   Ds3
 BYTE   W48
 BYTE   PATT
  POIN2 Label_0_0166CCB2
// 004   ----------------------------------------
 BYTE   EOT
 BYTE   Gn3
 BYTE   BEND   c_v-52
 BYTE   W01
 BYTE   FnM2
 BYTE   W01
 BYTE   En3
 BYTE   N11  Cs2  v116
 BYTE   W12
 BYTE   Gs2
 BYTE   W12
 BYTE   Cs3
 BYTE   W12
 BYTE   BEND   c_v-64
 BYTE   TIE  Gs3
 BYTE   W01
 BYTE   BEND   c_v-57
 BYTE   W01
 BYTE   AnM1
 BYTE   W02
 BYTE   An0
 BYTE   W01
 BYTE   Gn1
 BYTE   W02
 BYTE   Ds2
 BYTE   W01
 BYTE   An2
 BYTE   W01
 BYTE   Cs3
 BYTE   W02
 BYTE   Ds3
 BYTE   W01
 BYTE   PATT
  POIN2 Label_0_0166CCFB
// 005   ----------------------------------------
 BYTE   EOT
 BYTE   Gs3
 BYTE   BEND   c_v-52
 BYTE   W01
 BYTE   FnM2
 BYTE   W01
Label_0_0166CD7E:
 BYTE   BEND   c_v+0
 BYTE   N11  Fn2  v116
 BYTE   W12
 BYTE   Gn2
 BYTE   W12
 BYTE   Gs2
 BYTE   W12
 BYTE   As2
 BYTE   W12
 BYTE   Cn3
 BYTE   W12
 BYTE   Fs3
 BYTE   W06
 BYTE   BEND   c_v+32
 BYTE   W06
 BYTE   CnM2
 BYTE   N68  Fn3
 BYTE   W01
 BYTE   BEND   c_v-62
 BYTE   W01
 BYTE   CnM1
 BYTE   W02
 BYTE   AnM1
 BYTE   W01
 BYTE   Fn0
 BYTE   W02
 BYTE   Cs1
 BYTE   W01
 BYTE   Gn1
 BYTE   W01
 BYTE   Cn2
 BYTE   W02
 BYTE   Fn2
 BYTE   W01
 BYTE   An2
 BYTE   W01
 BYTE   Cn3
 BYTE   W02
 BYTE   Dn3
 BYTE   W01
 BYTE   Ds3
 BYTE   W02
 BYTE   Ds3
 BYTE   W06
 BYTE   PEND 
// 006   ----------------------------------------
Label_0_0166CDB1:
 BYTE   W36
 BYTE   BEND   c_v-1
 BYTE   W01
 BYTE   Dn3
 BYTE   W01
 BYTE   Cn3
 BYTE   W02
 BYTE   Gn2
 BYTE   W01
 BYTE   Cn2
 BYTE   W01
 BYTE   Ds1
 BYTE   W02
 BYTE   Fn0
 BYTE   W01
 BYTE   EnM1
 BYTE   W02
 BYTE   CsM2
 BYTE   W01
 BYTE   CnM2
 BYTE   N11  Fn2  v116
 BYTE   W01
 BYTE   BEND   c_v-45
 BYTE   W01
 BYTE   Fs1
 BYTE   W02
 BYTE   Gs2
 BYTE   W01
 BYTE   Ds3
 BYTE   W01
 BYTE   Ds3
 BYTE   W06
 BYTE   N11  Gn2
 BYTE   W12
 BYTE   Gs2
 BYTE   W12
 BYTE   As2
 BYTE   W12
 BYTE   PEND 
// 007   ----------------------------------------
Label_0_0166CDDD:
 BYTE   N11  Cn3  v116
 BYTE   W12
 BYTE   Fs3
 BYTE   W06
 BYTE   BEND   c_v+32
 BYTE   W06
 BYTE   CnM2
 BYTE   N68  Fn3
 BYTE   W01
 BYTE   BEND   c_v-62
 BYTE   W01
 BYTE   CnM1
 BYTE   W02
 BYTE   AnM1
 BYTE   W01
 BYTE   Fn0
 BYTE   W02
 BYTE   Cs1
 BYTE   W01
 BYTE   Gn1
 BYTE   W01
 BYTE   Cn2
 BYTE   W02
 BYTE   Fn2
 BYTE   W01
 BYTE   An2
 BYTE   W01
 BYTE   Cn3
 BYTE   W02
 BYTE   Dn3
 BYTE   W01
 BYTE   Ds3
 BYTE   W02
 BYTE   Ds3
 BYTE   W42
 BYTE   Ds3
 BYTE   W01
 BYTE   Dn3
 BYTE   W01
 BYTE   Cn3
 BYTE   W02
 BYTE   Gn2
 BYTE   W01
 BYTE   Cn2
 BYTE   W01
 BYTE   Ds1
 BYTE   W02
 BYTE   Fn0
 BYTE   W01
 BYTE   EnM1
 BYTE   W02
 BYTE   CsM2
 BYTE   W01
 BYTE   PEND 
// 008   ----------------------------------------
Label_0_0166CE18:
 BYTE   BEND   c_v+0
 BYTE   N11  Fn2  v116
 BYTE   W12
 BYTE   Gn2
 BYTE   W12
 BYTE   Gs2
 BYTE   W12
 BYTE   As2
 BYTE   W12
 BYTE   Cn3
 BYTE   W12
 BYTE   Gn3
 BYTE   W12
 BYTE   BEND   c_v-64
 BYTE   N32  Fn3
 BYTE   W01
 BYTE   BEND   c_v-52
 BYTE   W01
 BYTE   Ds1
 BYTE   W02
 BYTE   Gn2
 BYTE   W01
 BYTE   Ds3
 BYTE   W01
 BYTE   Ds3
 BYTE   W18
 BYTE   PEND 
// 009   ----------------------------------------
Label_0_0166CE39:
 BYTE   W12
 BYTE   BEND   c_v-64
 BYTE   N22  Fn3  v116
 BYTE   W02
 BYTE   BEND   c_v-55
 BYTE   W02
 BYTE   Cs0
 BYTE   W01
 BYTE   Cs1
 BYTE   W01
 BYTE   Bn1
 BYTE   W02
 BYTE   Gn2
 BYTE   W01
 BYTE   Cn3
 BYTE   W02
 BYTE   Ds3
 BYTE   W01
 BYTE   Ds3
 BYTE   W12
 BYTE   N11  Gn3
 BYTE   W12
 BYTE   BEND   c_v-64
 BYTE   N11  Gs3
 BYTE   W01
 BYTE   BEND   c_v-47
 BYTE   W01
 BYTE   Fn1
 BYTE   W02
 BYTE   Gs2
 BYTE   W01
 BYTE   Ds3
 BYTE   W01
 BYTE   Ds3
 BYTE   W06
 BYTE   N11  Fn3
 BYTE   W12
 BYTE   Cs3
 BYTE   W12
 BYTE   Gs3
 BYTE   W12
 BYTE   PEND 
// 010   ----------------------------------------
 BYTE   Fn3
 BYTE   W12
 BYTE   Cs3
 BYTE   W12
 BYTE   BEND   c_v-64
 BYTE   N11  As3
 BYTE   W01
 BYTE   BEND   c_v-47
 BYTE   W01
 BYTE   Fn1
 BYTE   W02
 BYTE   Gs2
 BYTE   W01
 BYTE   Ds3
 BYTE   W01
 BYTE   Ds3
 BYTE   W06
 BYTE   N11  Gn3
 BYTE   W12
 BYTE   Ds3
 BYTE   W12
 BYTE   As3
 BYTE   W12
 BYTE   Gn3
 BYTE   W12
 BYTE   Ds3
 BYTE   W12
 BYTE   PATT
  POIN2 Label_0_0166CD7E
 BYTE   PATT
  POIN2 Label_0_0166CDB1
 BYTE   PATT
  POIN2 Label_0_0166CDDD
 BYTE   PATT
  POIN2 Label_0_0166CE18
 BYTE   PATT
  POIN2 Label_0_0166CE39
// 011   ----------------------------------------
 BYTE   N11  Fn3  v116
 BYTE   W12
 BYTE   Cs3
 BYTE   W12
 BYTE   Gn3
 BYTE   W12
 BYTE   En3
 BYTE   W12
 BYTE   Cn3
 BYTE   W12
 BYTE   Gn3
 BYTE   W12
 BYTE   En3
 BYTE   W12
 BYTE   Cn3
 BYTE   W12
// 012   ----------------------------------------
Label_0_0166CEB6:
 BYTE   BEND   c_v-64
 BYTE   N72  Cn4  v116
 BYTE   W01
 BYTE   BEND   c_v-62
 BYTE   W01
 BYTE   CsM1
 BYTE   W02
 BYTE   Cn0
 BYTE   W01
 BYTE   An0
 BYTE   W01
 BYTE   Fs1
 BYTE   W02
 BYTE   Cn2
 BYTE   W01
 BYTE   Fs2
 BYTE   W02
 BYTE   As2
 BYTE   W01
 BYTE   Cs3
 BYTE   W01
 BYTE   Ds3
 BYTE   W02
 BYTE   Ds3
 BYTE   W56
 BYTE   W01
 BYTE   N72  Fn4
 BYTE   W24
 BYTE   PEND 
// 013   ----------------------------------------
Label_0_0166CED8:
 BYTE   W21
 BYTE   BEND   c_v-1
 BYTE   W01
 BYTE   Ds3
 BYTE   W01
 BYTE   Ds3
 BYTE   W02
 BYTE   Dn3
 BYTE   W01
 BYTE   Cn3
 BYTE   W01
 BYTE   As2
 BYTE   W02
 BYTE   Gs2
 BYTE   W01
 BYTE   Fs2
 BYTE   W02
 BYTE   Dn2
 BYTE   W01
 BYTE   Bn1
 BYTE   W01
 BYTE   Gn1
 BYTE   W02
 BYTE   Ds1
 BYTE   W01
 BYTE   As0
 BYTE   W02
 BYTE   Fn0
 BYTE   W01
 BYTE   Cn0
 BYTE   W01
 BYTE   FsM1
 BYTE   W02
 BYTE   CnM1
 BYTE   W01
 BYTE   FnM2
 BYTE   W02
 BYTE   CnM2
 BYTE   W01
 BYTE   CnM2
 BYTE   W01
 BYTE   CnM2
 BYTE   N72  As3  v116
 BYTE   W01
 BYTE   BEND   c_v-62
 BYTE   W01
 BYTE   CsM1
 BYTE   W02
 BYTE   Cn0
 BYTE   W01
 BYTE   An0
 BYTE   W01
 BYTE   Fs1
 BYTE   W02
 BYTE   Cn2
 BYTE   W01
 BYTE   Fs2
 BYTE   W02
 BYTE   As2
 BYTE   W01
 BYTE   Cs3
 BYTE   W01
 BYTE   Ds3
 BYTE   W02
 BYTE   Ds3
 BYTE   W32
 BYTE   W01
 BYTE   PEND 
// 014   ----------------------------------------
Label_0_0166CF20:
 BYTE   W24
 BYTE   N72  Ds4  v116
 BYTE   W44
 BYTE   W01
 BYTE   BEND   c_v-1
 BYTE   W01
 BYTE   Ds3
 BYTE   W01
 BYTE   Ds3
 BYTE   W02
 BYTE   Dn3
 BYTE   W01
 BYTE   Cn3
 BYTE   W01
 BYTE   As2
 BYTE   W02
 BYTE   Gs2
 BYTE   W01
 BYTE   Fs2
 BYTE   W02
 BYTE   Dn2
 BYTE   W01
 BYTE   Bn1
 BYTE   W01
 BYTE   Gn1
 BYTE   W02
 BYTE   Ds1
 BYTE   W01
 BYTE   As0
 BYTE   W02
 BYTE   Fn0
 BYTE   W01
 BYTE   Cn0
 BYTE   W01
 BYTE   FsM1
 BYTE   W02
 BYTE   CnM1
 BYTE   W01
 BYTE   FnM2
 BYTE   W02
 BYTE   CnM2
 BYTE   W01
 BYTE   CnM2
 BYTE   W01
 BYTE   PEND 
 BYTE   PATT
  POIN2 Label_0_0166CEB6
 BYTE   PATT
  POIN2 Label_0_0166CED8
 BYTE   PATT
  POIN2 Label_0_0166CF20
// 015   ----------------------------------------
 BYTE   GoTo
  POIN2 Label_0_0166CC86
// 016   ----------------------------------------
 BYTE   W12
 BYTE   FINE

//**************** Track 2 (Midi-Chn.1) ****************//

song03DF_002:
// 000   ----------------------------------------
 BYTE   KEYSH   song03DF_key+0
Label_1_0166CF92:
 BYTE   VOICE   30
 BYTE   VOL   42*song03DF_mvl/mxv
 BYTE   PAN   c_v-30
 BYTE   MOD 0
 BYTE   FnM2
 BYTE   BEND   c_v+1
 BYTE   N05  Cn0  v088
 BYTE   W12
 BYTE   N05
 BYTE   W12
 BYTE   N05
 BYTE   W12
 BYTE   BEND   c_v-64
 BYTE   TIE  Ds3  v104
 BYTE   W01
 BYTE   BEND   c_v-57
 BYTE   W01
 BYTE   AnM1
 BYTE   W02
 BYTE   An0
 BYTE   W01
 BYTE   Gn1
 BYTE   W02
 BYTE   Ds2
 BYTE   W01
 BYTE   An2
 BYTE   W01
 BYTE   Cs3
 BYTE   W02
 BYTE   Ds3
 BYTE   W01
 BYTE   Ds3
 BYTE   W48
// 001   ----------------------------------------
Label_1_0166CFBD:
 BYTE   W24
 BYTE   BEND   c_v-1
 BYTE   W01
 BYTE   Ds3
 BYTE   W01
 BYTE   Ds3
 BYTE   W02
 BYTE   Dn3
 BYTE   W01
 BYTE   Cn3
 BYTE   W02
 BYTE   As2
 BYTE   W01
 BYTE   Gs2
 BYTE   W01
 BYTE   Fs2
 BYTE   W02
 BYTE   Dn2
 BYTE   W01
 BYTE   Bn1
 BYTE   W01
 BYTE   Gn1
 BYTE   W02
 BYTE   Ds1
 BYTE   W01
 BYTE   As0
 BYTE   W02
 BYTE   Fn0
 BYTE   W01
 BYTE   Cn0
 BYTE   W01
 BYTE   FsM1
 BYTE   W02
 BYTE   PEND 
 BYTE   EOT
 BYTE   Ds3
 BYTE   BEND   c_v-52
 BYTE   W01
 BYTE   FnM2
 BYTE   W01
 BYTE   N05  Cn0  v088
 BYTE   W12
 BYTE   N05
 BYTE   W12
 BYTE   N05
 BYTE   W12
 BYTE   BEND   c_v-64
 BYTE   TIE  En3  v104
 BYTE   W01
 BYTE   BEND   c_v-57
 BYTE   W01
 BYTE   AnM1
 BYTE   W02
 BYTE   An0
 BYTE   W01
 BYTE   Gn1
 BYTE   W02
 BYTE   Ds2
 BYTE   W01
 BYTE   An2
 BYTE   W01
 BYTE   Cs3
 BYTE   W02
 BYTE   Ds3
 BYTE   W01
// 002   ----------------------------------------
Label_1_0166D006:
 BYTE   BEND   c_v-1
 BYTE   W72
 BYTE   Ds3
 BYTE   W01
 BYTE   Ds3
 BYTE   W01
 BYTE   Ds3
 BYTE   W02
 BYTE   Dn3
 BYTE   W01
 BYTE   Cn3
 BYTE   W02
 BYTE   As2
 BYTE   W01
 BYTE   Gs2
 BYTE   W01
 BYTE   Fs2
 BYTE   W02
 BYTE   Dn2
 BYTE   W01
 BYTE   Bn1
 BYTE   W01
 BYTE   Gn1
 BYTE   W02
 BYTE   Ds1
 BYTE   W01
 BYTE   As0
 BYTE   W02
 BYTE   Fn0
 BYTE   W01
 BYTE   Cn0
 BYTE   W01
 BYTE   FsM1
 BYTE   W02
 BYTE   PEND 
 BYTE   EOT
 BYTE   En3
 BYTE   BEND   c_v-52
 BYTE   W01
 BYTE   FnM2
 BYTE   W01
// 003   ----------------------------------------
 BYTE   N05  Cn0  v088
 BYTE   W12
 BYTE   N05
 BYTE   W12
 BYTE   N05
 BYTE   W12
 BYTE   BEND   c_v-64
 BYTE   TIE  Ds3  v104
 BYTE   W01
 BYTE   BEND   c_v-57
 BYTE   W01
 BYTE   AnM1
 BYTE   W02
 BYTE   An0
 BYTE   W01
 BYTE   Gn1
 BYTE   W02
 BYTE   Ds2
 BYTE   W01
 BYTE   An2
 BYTE   W01
 BYTE   Cs3
 BYTE   W02
 BYTE   Ds3
 BYTE   W01
 BYTE   Ds3
 BYTE   W48
 BYTE   PATT
  POIN2 Label_1_0166CFBD
// 004   ----------------------------------------
 BYTE   EOT
 BYTE   Ds3
 BYTE   BEND   c_v-52
 BYTE   W01
 BYTE   FnM2
 BYTE   W01
 BYTE   N05  Cn0  v088
 BYTE   W12
 BYTE   N05
 BYTE   W12
 BYTE   N05
 BYTE   W12
 BYTE   BEND   c_v-64
 BYTE   TIE  En3  v104
 BYTE   W01
 BYTE   BEND   c_v-57
 BYTE   W01
 BYTE   AnM1
 BYTE   W02
 BYTE   An0
 BYTE   W01
 BYTE   Gn1
 BYTE   W02
 BYTE   Ds2
 BYTE   W01
 BYTE   An2
 BYTE   W01
 BYTE   Cs3
 BYTE   W02
 BYTE   Ds3
 BYTE   W01
 BYTE   PATT
  POIN2 Label_1_0166D006
// 005   ----------------------------------------
 BYTE   EOT
 BYTE   En3
 BYTE   BEND   c_v-52
 BYTE   W01
 BYTE   FnM2
 BYTE   W01
 BYTE   En3
 BYTE   W66
 BYTE   Gs3
 BYTE   W06
 BYTE   En3
 BYTE   W24
// 006   ----------------------------------------
 BYTE   W96
// 007   ----------------------------------------
 BYTE   W18
 BYTE   Gs3
 BYTE   W06
 BYTE   En3
 BYTE   W72
// 008   ----------------------------------------
 BYTE   W96
// 009   ----------------------------------------
 BYTE   W96
// 010   ----------------------------------------
 BYTE   W96
// 011   ----------------------------------------
 BYTE   En3
 BYTE   N11  Cn3  v084
 BYTE   W12
 BYTE   Dn3
 BYTE   W12
 BYTE   Ds3
 BYTE   W12
 BYTE   Fn3
 BYTE   W12
 BYTE   Gn3
 BYTE   W12
 BYTE   Cs4
 BYTE   W06
 BYTE   BEND   c_v+32
 BYTE   W06
 BYTE   CnM2
 BYTE   N68  Cn4  v100
 BYTE   W01
 BYTE   BEND   c_v-62
 BYTE   W01
 BYTE   CnM1
 BYTE   W02
 BYTE   AnM1
 BYTE   W01
 BYTE   Fn0
 BYTE   W02
 BYTE   Cs1
 BYTE   W01
 BYTE   Gn1
 BYTE   W01
 BYTE   Cn2
 BYTE   W02
 BYTE   Fn2
 BYTE   W01
 BYTE   An2
 BYTE   W01
 BYTE   Cn3
 BYTE   W02
 BYTE   Dn3
 BYTE   W01
 BYTE   Ds3
 BYTE   W02
 BYTE   Ds3
 BYTE   W06
// 012   ----------------------------------------
 BYTE   W36
 BYTE   Ds3
 BYTE   W01
 BYTE   Dn3
 BYTE   W01
 BYTE   Cn3
 BYTE   W02
 BYTE   Gn2
 BYTE   W01
 BYTE   Cn2
 BYTE   W01
 BYTE   Ds1
 BYTE   W02
 BYTE   Fn0
 BYTE   W01
 BYTE   EnM1
 BYTE   W02
 BYTE   CsM2
 BYTE   W01
 BYTE   CnM2
 BYTE   N11  Cn3  v084
 BYTE   W01
 BYTE   BEND   c_v-45
 BYTE   W01
 BYTE   Fs1
 BYTE   W02
 BYTE   Gs2
 BYTE   W01
 BYTE   Ds3
 BYTE   W01
 BYTE   Ds3
 BYTE   W06
 BYTE   N11  Dn3
 BYTE   W12
 BYTE   Ds3
 BYTE   W12
 BYTE   Fn3
 BYTE   W12
// 013   ----------------------------------------
 BYTE   Gn3
 BYTE   W12
 BYTE   Cs4
 BYTE   W06
 BYTE   BEND   c_v+32
 BYTE   W06
 BYTE   CnM2
 BYTE   N68  Cn4  v100
 BYTE   W01
 BYTE   BEND   c_v-62
 BYTE   W01
 BYTE   CnM1
 BYTE   W02
 BYTE   AnM1
 BYTE   W01
 BYTE   Fn0
 BYTE   W02
 BYTE   Cs1
 BYTE   W01
 BYTE   Gn1
 BYTE   W01
 BYTE   Cn2
 BYTE   W02
 BYTE   Fn2
 BYTE   W01
 BYTE   An2
 BYTE   W01
 BYTE   Cn3
 BYTE   W02
 BYTE   Dn3
 BYTE   W01
 BYTE   Ds3
 BYTE   W02
 BYTE   Ds3
 BYTE   W42
 BYTE   Ds3
 BYTE   W01
 BYTE   Dn3
 BYTE   W01
 BYTE   Cn3
 BYTE   W02
 BYTE   Gn2
 BYTE   W01
 BYTE   Cn2
 BYTE   W01
 BYTE   Ds1
 BYTE   W02
 BYTE   Fn0
 BYTE   W01
 BYTE   EnM1
 BYTE   W02
 BYTE   CsM2
 BYTE   W01
// 014   ----------------------------------------
 BYTE   En3
 BYTE   N11  Cn3  v084
 BYTE   W12
 BYTE   Dn3
 BYTE   W12
 BYTE   Ds3
 BYTE   W12
 BYTE   Fn3
 BYTE   W12
 BYTE   Gn3
 BYTE   W12
 BYTE   Dn4
 BYTE   W12
 BYTE   BEND   c_v-64
 BYTE   N56  Cn4
 BYTE   W01
 BYTE   BEND   c_v-52
 BYTE   W01
 BYTE   Ds1
 BYTE   W02
 BYTE   Gn2
 BYTE   W01
 BYTE   Ds3
 BYTE   W01
 BYTE   Ds3
 BYTE   W18
// 015   ----------------------------------------
 BYTE   En3
 BYTE   W48
 BYTE   CnM2
 BYTE   N11  Fn4
 BYTE   W01
 BYTE   BEND   c_v-47
 BYTE   W01
 BYTE   Fn1
 BYTE   W02
 BYTE   Gs2
 BYTE   W01
 BYTE   Ds3
 BYTE   W01
 BYTE   Ds3
 BYTE   W06
 BYTE   N11  Cn4
 BYTE   W12
 BYTE   Gs3
 BYTE   W12
 BYTE   Fn4
 BYTE   W12
// 016   ----------------------------------------
 BYTE   Cn4
 BYTE   W12
 BYTE   Gs3
 BYTE   W12
 BYTE   BEND   c_v-64
 BYTE   N11  En4
 BYTE   W01
 BYTE   BEND   c_v-47
 BYTE   W01
 BYTE   Fn1
 BYTE   W02
 BYTE   Gs2
 BYTE   W01
 BYTE   Ds3
 BYTE   W01
 BYTE   Ds3
 BYTE   W06
 BYTE   N11  Cn4
 BYTE   W12
 BYTE   Gn3
 BYTE   W12
 BYTE   En4
 BYTE   W12
 BYTE   Cn4
 BYTE   W12
 BYTE   Gn3
 BYTE   W12
// 017   ----------------------------------------
Label_1_0166D183:
 BYTE   BEND   c_v-64
 BYTE   N72  Fn3  v100
 BYTE   W01
 BYTE   BEND   c_v-62
 BYTE   W01
 BYTE   CsM1
 BYTE   W02
 BYTE   Cn0
 BYTE   W01
 BYTE   An0
 BYTE   W01
 BYTE   Fs1
 BYTE   W02
 BYTE   Cn2
 BYTE   W01
 BYTE   Fs2
 BYTE   W02
 BYTE   As2
 BYTE   W01
 BYTE   Cs3
 BYTE   W01
 BYTE   Ds3
 BYTE   W02
 BYTE   Ds3
 BYTE   W56
 BYTE   W01
 BYTE   N72  Cn4
 BYTE   W24
 BYTE   PEND 
// 018   ----------------------------------------
Label_1_0166D1A5:
 BYTE   W21
 BYTE   BEND   c_v-1
 BYTE   W01
 BYTE   Ds3
 BYTE   W01
 BYTE   Ds3
 BYTE   W02
 BYTE   Dn3
 BYTE   W01
 BYTE   Cn3
 BYTE   W01
 BYTE   As2
 BYTE   W02
 BYTE   Gs2
 BYTE   W01
 BYTE   Fs2
 BYTE   W02
 BYTE   Dn2
 BYTE   W01
 BYTE   Bn1
 BYTE   W01
 BYTE   Gn1
 BYTE   W02
 BYTE   Ds1
 BYTE   W01
 BYTE   As0
 BYTE   W02
 BYTE   Fn0
 BYTE   W01
 BYTE   Cn0
 BYTE   W01
 BYTE   FsM1
 BYTE   W02
 BYTE   CnM1
 BYTE   W01
 BYTE   FnM2
 BYTE   W02
 BYTE   CnM2
 BYTE   W01
 BYTE   CnM2
 BYTE   W01
 BYTE   CnM2
 BYTE   N72  Ds3  v100
 BYTE   W01
 BYTE   BEND   c_v-62
 BYTE   W01
 BYTE   CsM1
 BYTE   W02
 BYTE   Cn0
 BYTE   W01
 BYTE   An0
 BYTE   W01
 BYTE   Fs1
 BYTE   W02
 BYTE   Cn2
 BYTE   W01
 BYTE   Fs2
 BYTE   W02
 BYTE   As2
 BYTE   W01
 BYTE   Cs3
 BYTE   W01
 BYTE   Ds3
 BYTE   W02
 BYTE   Ds3
 BYTE   W32
 BYTE   W01
 BYTE   PEND 
// 019   ----------------------------------------
Label_1_0166D1ED:
 BYTE   W24
 BYTE   N72  As3  v100
 BYTE   W44
 BYTE   W01
 BYTE   BEND   c_v-1
 BYTE   W01
 BYTE   Ds3
 BYTE   W01
 BYTE   Ds3
 BYTE   W02
 BYTE   Dn3
 BYTE   W01
 BYTE   Cn3
 BYTE   W01
 BYTE   As2
 BYTE   W02
 BYTE   Gs2
 BYTE   W01
 BYTE   Fs2
 BYTE   W02
 BYTE   Dn2
 BYTE   W01
 BYTE   Bn1
 BYTE   W01
 BYTE   Gn1
 BYTE   W02
 BYTE   Ds1
 BYTE   W01
 BYTE   As0
 BYTE   W02
 BYTE   Fn0
 BYTE   W01
 BYTE   Cn0
 BYTE   W01
 BYTE   FsM1
 BYTE   W02
 BYTE   CnM1
 BYTE   W01
 BYTE   FnM2
 BYTE   W02
 BYTE   CnM2
 BYTE   W01
 BYTE   CnM2
 BYTE   W01
 BYTE   PEND 
 BYTE   PATT
  POIN2 Label_1_0166D183
 BYTE   PATT
  POIN2 Label_1_0166D1A5
 BYTE   PATT
  POIN2 Label_1_0166D1ED
// 020   ----------------------------------------
 BYTE   GoTo
  POIN2 Label_1_0166CF92
// 021   ----------------------------------------
 BYTE   W12
 BYTE   FINE

//**************** Track 3 (Midi-Chn.2) ****************//

song03DF_003:
// 000   ----------------------------------------
 BYTE   KEYSH   song03DF_key+0
Label_2_0166D25E:
 BYTE   VOICE   99
 BYTE   VOL   35*song03DF_mvl/mxv
 BYTE   PAN   c_v+40
 BYTE   BEND   c_v+0
 BYTE   N10  Cn3  v076
 BYTE   W12
 BYTE   Cn4
 BYTE   W12
 BYTE   Cn3
 BYTE   W12
 BYTE   Fn3
 BYTE   W12
 BYTE   Cn3
 BYTE   W12
 BYTE   Gn3
 BYTE   W12
 BYTE   Cn3
 BYTE   W12
 BYTE   Cn4
 BYTE   W12
// 001   ----------------------------------------
Label_2_0166D278:
 BYTE   N10  Cn3  v076
 BYTE   W12
 BYTE   Fn3
 BYTE   W12
 BYTE   Gn3
 BYTE   W12
 BYTE   Cn4
 BYTE   W12
 BYTE   Cs3
 BYTE   W12
 BYTE   Cs4
 BYTE   W12
 BYTE   Cs3
 BYTE   W12
 BYTE   Fs3
 BYTE   W12
 BYTE   PEND 
// 002   ----------------------------------------
Label_2_0166D28B:
 BYTE   N10  Cs3  v076
 BYTE   W12
 BYTE   Gs3
 BYTE   W12
 BYTE   Cs3
 BYTE   W12
 BYTE   Cs4
 BYTE   W12
 BYTE   Cs3
 BYTE   W12
 BYTE   Fs3
 BYTE   W12
 BYTE   Gs3
 BYTE   W12
 BYTE   Cs4
 BYTE   W12
 BYTE   PEND 
// 003   ----------------------------------------
 BYTE   Cn3
 BYTE   W12
 BYTE   Cn4
 BYTE   W12
 BYTE   Cn3
 BYTE   W12
 BYTE   Fn3
 BYTE   W12
 BYTE   Cn3
 BYTE   W12
 BYTE   Gn3
 BYTE   W12
 BYTE   Cn3
 BYTE   W12
 BYTE   Cn4
 BYTE   W12
 BYTE   PATT
  POIN2 Label_2_0166D278
 BYTE   PATT
  POIN2 Label_2_0166D28B
// 004   ----------------------------------------
Label_2_0166D2B8:
 BYTE   N10  Fn3  v076
 BYTE   W12
 BYTE   Fn4
 BYTE   W12
 BYTE   Fn3
 BYTE   W12
 BYTE   As3
 BYTE   W12
 BYTE   Fn3
 BYTE   W12
 BYTE   Cn4
 BYTE   W12
 BYTE   Fn3
 BYTE   W12
 BYTE   Fn4
 BYTE   W12
 BYTE   PEND 
// 005   ----------------------------------------
Label_2_0166D2CB:
 BYTE   N10  Fn3  v076
 BYTE   W12
 BYTE   As3
 BYTE   W12
 BYTE   Cn4
 BYTE   W12
 BYTE   Fn4
 BYTE   W12
 BYTE   Ds3
 BYTE   W12
 BYTE   Ds4
 BYTE   W12
 BYTE   Ds3
 BYTE   W12
 BYTE   Gs3
 BYTE   W12
 BYTE   PEND 
// 006   ----------------------------------------
Label_2_0166D2DE:
 BYTE   N10  As3  v076
 BYTE   W12
 BYTE   Ds4
 BYTE   W12
 BYTE   Ds3
 BYTE   W12
 BYTE   Ds4
 BYTE   W12
 BYTE   Ds3
 BYTE   W12
 BYTE   Gn3
 BYTE   W12
 BYTE   Gs3
 BYTE   W12
 BYTE   As3
 BYTE   W12
 BYTE   PEND 
// 007   ----------------------------------------
Label_2_0166D2F1:
 BYTE   N10  Cs3  v076
 BYTE   W12
 BYTE   Cs4
 BYTE   W12
 BYTE   Cs3
 BYTE   W12
 BYTE   Gn3
 BYTE   W12
 BYTE   Gs3
 BYTE   W12
 BYTE   Cs4
 BYTE   W12
 BYTE   Cs3
 BYTE   W12
 BYTE   Cs4
 BYTE   W12
 BYTE   PEND 
// 008   ----------------------------------------
 BYTE   Cs3
 BYTE   W12
 BYTE   Gn3
 BYTE   W12
 BYTE   Gs3
 BYTE   W12
 BYTE   Cs4
 BYTE   W12
 BYTE   Ds3
 BYTE   W12
 BYTE   Ds4
 BYTE   W12
 BYTE   Ds3
 BYTE   W12
 BYTE   Gs3
 BYTE   W12
// 009   ----------------------------------------
 BYTE   As3
 BYTE   W12
 BYTE   Ds4
 BYTE   W12
 BYTE   Ds3
 BYTE   W12
 BYTE   Ds4
 BYTE   W12
 BYTE   Cn4
 BYTE   W12
 BYTE   Gn3
 BYTE   W12
 BYTE   Ds3
 BYTE   W12
 BYTE   Cn3
 BYTE   W12
 BYTE   PATT
  POIN2 Label_2_0166D2B8
 BYTE   PATT
  POIN2 Label_2_0166D2CB
 BYTE   PATT
  POIN2 Label_2_0166D2DE
 BYTE   PATT
  POIN2 Label_2_0166D2F1
// 010   ----------------------------------------
 BYTE   N10  Cs3  v076
 BYTE   W12
 BYTE   Gn3
 BYTE   W12
 BYTE   Gs3
 BYTE   W12
 BYTE   Cs4
 BYTE   W12
 BYTE   Cn3
 BYTE   W12
 BYTE   Cn4
 BYTE   W12
 BYTE   Cn3
 BYTE   W12
 BYTE   Fn3
 BYTE   W12
// 011   ----------------------------------------
 BYTE   Gn3
 BYTE   W12
 BYTE   Cn4
 BYTE   W12
 BYTE   Cn3
 BYTE   W12
 BYTE   Cn4
 BYTE   W12
 BYTE   Cn3
 BYTE   W12
 BYTE   Gn3
 BYTE   W12
 BYTE   En3
 BYTE   W12
 BYTE   Cn3
 BYTE   W12
// 012   ----------------------------------------
Label_2_0166D35A:
 BYTE   N10  Fn3  v076
 BYTE   W12
 BYTE   Fn4
 BYTE   W12
 BYTE   Ds4
 BYTE   W12
 BYTE   Fn4
 BYTE   W12
 BYTE   Fn3
 BYTE   W12
 BYTE   Fn4
 BYTE   W12
 BYTE   Fn3
 BYTE   W12
 BYTE   Fn4
 BYTE   W12
 BYTE   PEND 
// 013   ----------------------------------------
Label_2_0166D36D:
 BYTE   N10  Ds4  v076
 BYTE   W12
 BYTE   Fn4
 BYTE   W12
 BYTE   Fn3
 BYTE   W12
 BYTE   Fn4
 BYTE   W12
 BYTE   Ds3
 BYTE   W12
 BYTE   Ds4
 BYTE   W12
 BYTE   Cs4
 BYTE   W12
 BYTE   Ds4
 BYTE   W12
 BYTE   PEND 
// 014   ----------------------------------------
 BYTE   Ds3
 BYTE   W12
 BYTE   Ds4
 BYTE   W12
 BYTE   Ds3
 BYTE   W12
 BYTE   Ds4
 BYTE   W12
 BYTE   Cs4
 BYTE   W12
 BYTE   Ds4
 BYTE   W12
 BYTE   Ds3
 BYTE   W12
 BYTE   Ds4
 BYTE   W12
 BYTE   PATT
  POIN2 Label_2_0166D35A
 BYTE   PATT
  POIN2 Label_2_0166D36D
// 015   ----------------------------------------
 BYTE   N10  Ds3  v076
 BYTE   W12
 BYTE   Ds4
 BYTE   W12
 BYTE   Ds3
 BYTE   W12
 BYTE   Gn3
 BYTE   W12
 BYTE   As3
 BYTE   W12
 BYTE   Ds4
 BYTE   W12
 BYTE   Gn3
 BYTE   W12
 BYTE   As3
 BYTE   W12
// 016   ----------------------------------------
 BYTE   GoTo
  POIN2 Label_2_0166D25E
// 017   ----------------------------------------
 BYTE   W12
 BYTE   FINE

//**************** Track 4 (Midi-Chn.3) ****************//

song03DF_004:
// 000   ----------------------------------------
 BYTE   KEYSH   song03DF_key+0
Label_3_0166D3BA:
 BYTE   VOICE   90
 BYTE   VOL   30*song03DF_mvl/mxv
 BYTE   PAN   c_v-30
 BYTE   N06  Cn5  v092
 BYTE   W12
 BYTE   Ds5  v088
 BYTE   W12
 BYTE   Gn5
 BYTE   W12
 BYTE   Cn5
 BYTE   W12
 BYTE   Ds5
 BYTE   W12
 BYTE   Gn5
 BYTE   W12
 BYTE   Cn5
 BYTE   W12
 BYTE   Ds5
 BYTE   W12
// 001   ----------------------------------------
Label_3_0166D3D3:
 BYTE   N06  Gn5  v088
 BYTE   W12
 BYTE   Cn5
 BYTE   W12
 BYTE   Ds5
 BYTE   W12
 BYTE   Gn5
 BYTE   W12
 BYTE   Cs5
 BYTE   W12
 BYTE   Fn5
 BYTE   W12
 BYTE   Gs5
 BYTE   W12
 BYTE   Cs5
 BYTE   W12
 BYTE   PEND 
// 002   ----------------------------------------
Label_3_0166D3E6:
 BYTE   N06  Fn5  v088
 BYTE   W12
 BYTE   Gs5
 BYTE   W12
 BYTE   Cs5
 BYTE   W12
 BYTE   Fn5
 BYTE   W12
 BYTE   Gs5
 BYTE   W12
 BYTE   Cs5
 BYTE   W12
 BYTE   Fn5
 BYTE   W12
 BYTE   Gs5
 BYTE   W12
 BYTE   PEND 
// 003   ----------------------------------------
 BYTE   Cn5
 BYTE   W12
 BYTE   Ds5
 BYTE   W12
 BYTE   Gn5
 BYTE   W12
 BYTE   Cn5
 BYTE   W12
 BYTE   Ds5
 BYTE   W12
 BYTE   Gn5
 BYTE   W12
 BYTE   Cn5
 BYTE   W12
 BYTE   Ds5
 BYTE   W12
 BYTE   PATT
  POIN2 Label_3_0166D3D3
 BYTE   PATT
  POIN2 Label_3_0166D3E6
// 004   ----------------------------------------
Label_3_0166D413:
 BYTE   W72
 BYTE   N11  Fn3  v116
 BYTE   W12
 BYTE   Gn3
 BYTE   W12
 BYTE   PEND 
// 005   ----------------------------------------
Label_3_0166D41B:
 BYTE   N11  Gs3  v116
 BYTE   W12
 BYTE   As3
 BYTE   W12
 BYTE   Cn4
 BYTE   W12
 BYTE   Gn4
 BYTE   W12
 BYTE   N68  Fn4
 BYTE   W48
 BYTE   PEND 
// 006   ----------------------------------------
Label_3_0166D429:
 BYTE   W24
 BYTE   N11  Fn3  v116
 BYTE   W12
 BYTE   Gn3
 BYTE   W12
 BYTE   Gs3
 BYTE   W12
 BYTE   As3
 BYTE   W12
 BYTE   Cn4
 BYTE   W12
 BYTE   Gn4
 BYTE   W12
 BYTE   PEND 
// 007   ----------------------------------------
Label_3_0166D439:
 BYTE   N68  Fn4  v116
 BYTE   W72
 BYTE   N11  Fn3
 BYTE   W12
 BYTE   Gn3
 BYTE   W12
 BYTE   PEND 
// 008   ----------------------------------------
 BYTE   Gs3
 BYTE   W12
 BYTE   As3
 BYTE   W12
 BYTE   Cn4
 BYTE   W12
 BYTE   Ds4
 BYTE   W12
 BYTE   Fn4
 BYTE   W12
 BYTE   Cs4
 BYTE   W12
 BYTE   Gs3
 BYTE   W12
 BYTE   Fn4
 BYTE   W12
// 009   ----------------------------------------
 BYTE   Cs4
 BYTE   W12
 BYTE   Gs3
 BYTE   W12
 BYTE   Gn4
 BYTE   W12
 BYTE   Ds4
 BYTE   W12
 BYTE   As3
 BYTE   W12
 BYTE   Gn4
 BYTE   W12
 BYTE   Ds4
 BYTE   W12
 BYTE   As3
 BYTE   W12
 BYTE   PATT
  POIN2 Label_3_0166D413
 BYTE   PATT
  POIN2 Label_3_0166D41B
 BYTE   PATT
  POIN2 Label_3_0166D429
 BYTE   PATT
  POIN2 Label_3_0166D439
// 010   ----------------------------------------
 BYTE   N11  Gs3  v116
 BYTE   W12
 BYTE   As3
 BYTE   W12
 BYTE   Cn4
 BYTE   W12
 BYTE   Gn4
 BYTE   W60
// 011   ----------------------------------------
 BYTE   W36
 BYTE   Ds4
 BYTE   W12
 BYTE   Fn4
 BYTE   W12
 BYTE   Gn4
 BYTE   W12
 BYTE   Gs4
 BYTE   W12
 BYTE   As3
 BYTE   W12
// 012   ----------------------------------------
Label_3_0166D48C:
 BYTE   N44  Cn4  v116
 BYTE   W72
 BYTE   Fn4
 BYTE   W24
 BYTE   PEND 
// 013   ----------------------------------------
 BYTE   W48
 BYTE   As3
 BYTE   W48
// 014   ----------------------------------------
 BYTE   W24
 BYTE   Ds4
 BYTE   W72
 BYTE   PATT
  POIN2 Label_3_0166D48C
// 015   ----------------------------------------
 BYTE   W48
 BYTE   N44  As3  v116
 BYTE   W48
// 016   ----------------------------------------
 BYTE   W24
 BYTE   Ds4
 BYTE   W72
// 017   ----------------------------------------
 BYTE   GoTo
  POIN2 Label_3_0166D3BA
// 018   ----------------------------------------
 BYTE   W12
 BYTE   FINE

//**************** Track 5 (Midi-Chn.4) ****************//

song03DF_005:
// 000   ----------------------------------------
 BYTE   KEYSH   song03DF_key+0
Label_4_0166D4B2:
 BYTE   VOICE   33
 BYTE   VOL   46*song03DF_mvl/mxv
 BYTE   PAN   c_v+0
 BYTE   TIE  Cn1  v127
 BYTE   W96
// 001   ----------------------------------------
 BYTE   W44
 BYTE   W02
 BYTE   EOT
 BYTE   W02
 BYTE   TIE  Cs1
 BYTE   W48
// 002   ----------------------------------------
 BYTE   W92
 BYTE   W01
 BYTE   EOT
 BYTE   W03
// 003   ----------------------------------------
 BYTE   TIE  Cn1
 BYTE   W96
// 004   ----------------------------------------
 BYTE   W44
 BYTE   W02
 BYTE   EOT
 BYTE   W02
 BYTE   TIE  Cs1
 BYTE   W48
// 005   ----------------------------------------
 BYTE   W92
 BYTE   W02
 BYTE   EOT
 BYTE   W02
// 006   ----------------------------------------
Label_4_0166D4D5:
 BYTE   N11  Fn1  v127
 BYTE   W12
 BYTE   N01
 BYTE   W12
 BYTE   N11
 BYTE   W12
 BYTE   N11
 BYTE   W12
 BYTE   N01
 BYTE   W12
 BYTE   N11
 BYTE   W12
 BYTE   N11
 BYTE   W12
 BYTE   N01
 BYTE   W12
 BYTE   PEND 
// 007   ----------------------------------------
Label_4_0166D4E8:
 BYTE   N11  Fn1  v127
 BYTE   W12
 BYTE   N11
 BYTE   W12
 BYTE   N01
 BYTE   W12
 BYTE   N11
 BYTE   W12
 BYTE   Ds1
 BYTE   W12
 BYTE   N01
 BYTE   W12
 BYTE   N11
 BYTE   W12
 BYTE   N11
 BYTE   W12
 BYTE   PEND 
// 008   ----------------------------------------
Label_4_0166D4FB:
 BYTE   N01  Ds1  v127
 BYTE   W12
 BYTE   N11
 BYTE   W12
 BYTE   N11
 BYTE   W12
 BYTE   N01
 BYTE   W12
 BYTE   N11
 BYTE   W12
 BYTE   N11
 BYTE   W12
 BYTE   N01
 BYTE   W12
 BYTE   N11
 BYTE   W12
 BYTE   PEND 
// 009   ----------------------------------------
Label_4_0166D50E:
 BYTE   N11  Cs1  v127
 BYTE   W12
 BYTE   N01
 BYTE   W12
 BYTE   N11
 BYTE   W12
 BYTE   N11
 BYTE   W12
 BYTE   N01
 BYTE   W12
 BYTE   N11
 BYTE   W12
 BYTE   N11
 BYTE   W12
 BYTE   N01
 BYTE   W12
 BYTE   PEND 
// 010   ----------------------------------------
 BYTE   N11
 BYTE   W12
 BYTE   N11
 BYTE   W12
 BYTE   N01
 BYTE   W12
 BYTE   N11
 BYTE   W12
 BYTE   Ds1
 BYTE   W12
 BYTE   N01
 BYTE   W12
 BYTE   N11
 BYTE   W12
 BYTE   N11
 BYTE   W12
 BYTE   PATT
  POIN2 Label_4_0166D4FB
 BYTE   PATT
  POIN2 Label_4_0166D4D5
 BYTE   PATT
  POIN2 Label_4_0166D4E8
 BYTE   PATT
  POIN2 Label_4_0166D4FB
 BYTE   PATT
  POIN2 Label_4_0166D50E
// 011   ----------------------------------------
 BYTE   N11  Cs1  v127
 BYTE   W12
 BYTE   N11
 BYTE   W12
 BYTE   N01
 BYTE   W12
 BYTE   N11
 BYTE   W12
 BYTE   Cn1
 BYTE   W12
 BYTE   N01
 BYTE   W12
 BYTE   N11
 BYTE   W12
 BYTE   N11
 BYTE   W12
// 012   ----------------------------------------
 BYTE   N01
 BYTE   W12
 BYTE   N11
 BYTE   W12
 BYTE   N11
 BYTE   W12
 BYTE   N01
 BYTE   W12
 BYTE   N11
 BYTE   W12
 BYTE   N11
 BYTE   W12
 BYTE   N01
 BYTE   W12
 BYTE   N11
 BYTE   W12
// 013   ----------------------------------------
 BYTE   TIE  Fn1
 BYTE   W96
// 014   ----------------------------------------
 BYTE   W44
 BYTE   W02
 BYTE   EOT
 BYTE   W02
 BYTE   TIE  Ds1
 BYTE   W48
// 015   ----------------------------------------
 BYTE   W92
 BYTE   W02
 BYTE   EOT
 BYTE   W02
// 016   ----------------------------------------
 BYTE   TIE  Fn1
 BYTE   W96
// 017   ----------------------------------------
 BYTE   W44
 BYTE   W02
 BYTE   EOT
 BYTE   W02
 BYTE   TIE  Ds1
 BYTE   W48
// 018   ----------------------------------------
 BYTE   W92
 BYTE   W02
 BYTE   EOT
 BYTE   W02
// 019   ----------------------------------------
 BYTE   GoTo
  POIN2 Label_4_0166D4B2
// 020   ----------------------------------------
 BYTE   W12
 BYTE   FINE

//**************** Track 6 (Midi-Chn.5) ****************//

song03DF_006:
// 000   ----------------------------------------
 BYTE   KEYSH   song03DF_key+0
Label_5_0166D592:
 BYTE   VOICE   62
 BYTE   VOL   35*song03DF_mvl/mxv
 BYTE   PAN   c_v+0
 BYTE   TIE  Cn2  v108
 BYTE   TIE  Gn2
 BYTE   W96
// 001   ----------------------------------------
 BYTE   W48
 BYTE   EOT
 BYTE   Cn2  v055
 BYTE   TIE  Cs2
 BYTE   TIE  Gs2
 BYTE   W48
// 002   ----------------------------------------
 BYTE   W96
// 003   ----------------------------------------
 BYTE   EOT
 BYTE   Cs2  v056
 BYTE   TIE  Cn2
 BYTE   TIE  Gn2
 BYTE   W96
// 004   ----------------------------------------
 BYTE   W48
 BYTE   EOT
 BYTE   Cn2  v055
 BYTE   TIE  Cs2
 BYTE   TIE  Gs2
 BYTE   W48
// 005   ----------------------------------------
 BYTE   W96
// 006   ----------------------------------------
 BYTE   EOT
 BYTE   Cs2  v056
Label_5_0166D5BD:
 BYTE   TIE  Cn3  v072
 BYTE   TIE  Fn3
 BYTE   W96
 BYTE   PEND 
// 007   ----------------------------------------
 BYTE   W48
 BYTE   EOT
 BYTE   Cn3  v065
 BYTE   TIE  As2
 BYTE   TIE  Ds3
 BYTE   W48
// 008   ----------------------------------------
 BYTE   W96
// 009   ----------------------------------------
 BYTE   EOT
 BYTE   As2  v063
Label_5_0166D5D1:
 BYTE   TIE  Gs2  v072
 BYTE   TIE  Cs3
 BYTE   W96
 BYTE   PEND 
// 010   ----------------------------------------
 BYTE   W48
 BYTE   EOT
 BYTE   Gs2  v061
 BYTE   TIE  As2
 BYTE   TIE  Ds3
 BYTE   W48
// 011   ----------------------------------------
 BYTE   W96
// 012   ----------------------------------------
 BYTE   EOT
 BYTE   As2  v063
 BYTE   PATT
  POIN2 Label_5_0166D5BD
// 013   ----------------------------------------
 BYTE   W48
 BYTE   EOT
 BYTE   Cn3  v065
 BYTE   TIE  As2  v072
 BYTE   TIE  Ds3
 BYTE   W48
// 014   ----------------------------------------
 BYTE   W96
// 015   ----------------------------------------
 BYTE   EOT
 BYTE   As2  v063
 BYTE   PATT
  POIN2 Label_5_0166D5D1
// 016   ----------------------------------------
 BYTE   W48
 BYTE   EOT
 BYTE   Gs2  v061
 BYTE   TIE  As2  v072
 BYTE   TIE  Ds3
 BYTE   W48
// 017   ----------------------------------------
 BYTE   W96
// 018   ----------------------------------------
 BYTE   EOT
 BYTE   As2  v063
 BYTE   PATT
  POIN2 Label_5_0166D5BD
// 019   ----------------------------------------
 BYTE   W48
 BYTE   EOT
 BYTE   Cn3  v065
 BYTE   TIE  As2  v072
 BYTE   TIE  Ds3
 BYTE   W48
// 020   ----------------------------------------
 BYTE   W96
// 021   ----------------------------------------
 BYTE   EOT
 BYTE   As2  v063
 BYTE   PATT
  POIN2 Label_5_0166D5BD
// 022   ----------------------------------------
 BYTE   W48
 BYTE   EOT
 BYTE   Cn3  v065
 BYTE   TIE  As2  v072
 BYTE   TIE  Ds3
 BYTE   W48
// 023   ----------------------------------------
 BYTE   W96
// 024   ----------------------------------------
 BYTE   EOT
 BYTE   As2  v063
 BYTE   GoTo
  POIN2 Label_5_0166D592
// 025   ----------------------------------------
 BYTE   W12
 BYTE   FINE

//**************** Track 7 (Midi-Chn.6) ****************//

song03DF_007:
// 000   ----------------------------------------
 BYTE   KEYSH   song03DF_key+0
Label_6_0166DB56:
 BYTE   VOICE   30
 BYTE   PAN   c_v+40
 BYTE   VOL   28*song03DF_mvl/mxv
 BYTE   MOD 0
 BYTE   CnM2
 BYTE   N05  Gn4  v096
 BYTE   W06
 BYTE   Gs4
 BYTE   W06
 BYTE   BEND   c_v+0
 BYTE   N11  Cn2  v112
 BYTE   W12
 BYTE   Gn2
 BYTE   W12
 BYTE   Cn3
 BYTE   W12
 BYTE   BEND   c_v-64
 BYTE   TIE  Gn3
 BYTE   W01
 BYTE   BEND   c_v-57
 BYTE   W01
 BYTE   AnM1
 BYTE   W02
 BYTE   An0
 BYTE   W01
 BYTE   Gn1
 BYTE   W02
 BYTE   Ds2
 BYTE   W01
 BYTE   An2
 BYTE   W01
 BYTE   Cs3
 BYTE   W02
 BYTE   Ds3
 BYTE   W01
 BYTE   Ds3
 BYTE   W36
// 001   ----------------------------------------
Label_6_0166DB86:
 BYTE   W36
 BYTE   BEND   c_v-1
 BYTE   W01
 BYTE   Ds3
 BYTE   W01
 BYTE   Ds3
 BYTE   W02
 BYTE   Dn3
 BYTE   W01
 BYTE   Cn3
 BYTE   W02
 BYTE   As2
 BYTE   W01
 BYTE   Gs2
 BYTE   W01
 BYTE   Fs2
 BYTE   W02
 BYTE   Dn2
 BYTE   W01
 BYTE   Bn1
 BYTE   W01
 BYTE   Gn1
 BYTE   W02
 BYTE   Ds1
 BYTE   W01
 BYTE   As0
 BYTE   W02
 BYTE   Fn0
 BYTE   W01
 BYTE   Cn0
 BYTE   W01
 BYTE   FsM1
 BYTE   W02
 BYTE   PEND 
 BYTE   EOT
 BYTE   Gn3
 BYTE   BEND   c_v-52
 BYTE   W01
 BYTE   FnM2
 BYTE   W01
 BYTE   En3
 BYTE   N11  Cs2  v112
 BYTE   W12
 BYTE   Gs2
 BYTE   W12
 BYTE   Cs3
 BYTE   W12
// 002   ----------------------------------------
Label_6_0166DBB9:
 BYTE   BEND   c_v-64
 BYTE   TIE  Gs3  v112
 BYTE   W01
 BYTE   BEND   c_v-57
 BYTE   W01
 BYTE   AnM1
 BYTE   W02
 BYTE   An0
 BYTE   W01
 BYTE   Gn1
 BYTE   W02
 BYTE   Ds2
 BYTE   W01
 BYTE   An2
 BYTE   W01
 BYTE   Cs3
 BYTE   W02
 BYTE   Ds3
 BYTE   W01
 BYTE   Ds3
 BYTE   W72
 BYTE   Ds3
 BYTE   W01
 BYTE   Ds3
 BYTE   W01
 BYTE   Ds3
 BYTE   W02
 BYTE   Dn3
 BYTE   W01
 BYTE   Cn3
 BYTE   W02
 BYTE   As2
 BYTE   W01
 BYTE   Gs2
 BYTE   W01
 BYTE   Fs2
 BYTE   W02
 BYTE   Dn2
 BYTE   W01
 BYTE   PEND 
// 003   ----------------------------------------
Label_6_0166DBE5:
 BYTE   BEND   c_v-17
 BYTE   W01
 BYTE   Gn1
 BYTE   W02
 BYTE   Ds1
 BYTE   W01
 BYTE   As0
 BYTE   W02
 BYTE   Fn0
 BYTE   W01
 BYTE   Cn0
 BYTE   W01
 BYTE   FsM1
 BYTE   W02
 BYTE   PEND 
 BYTE   EOT
 BYTE   Gs3
 BYTE   BEND   c_v-52
 BYTE   W01
 BYTE   FnM2
 BYTE   W01
 BYTE   En3
 BYTE   N11  Cn2  v112
 BYTE   W12
 BYTE   Gn2
 BYTE   W12
 BYTE   Cn3
 BYTE   W12
 BYTE   BEND   c_v-64
 BYTE   TIE  Gn3
 BYTE   W01
 BYTE   BEND   c_v-57
 BYTE   W01
 BYTE   AnM1
 BYTE   W02
 BYTE   An0
 BYTE   W01
 BYTE   Gn1
 BYTE   W02
 BYTE   Ds2
 BYTE   W01
 BYTE   An2
 BYTE   W01
 BYTE   Cs3
 BYTE   W02
 BYTE   Ds3
 BYTE   W01
 BYTE   Ds3
 BYTE   W36
 BYTE   PATT
  POIN2 Label_6_0166DB86
// 004   ----------------------------------------
 BYTE   EOT
 BYTE   Gn3
 BYTE   BEND   c_v-52
 BYTE   W01
 BYTE   FnM2
 BYTE   W01
 BYTE   En3
 BYTE   N11  Cs2  v112
 BYTE   W12
 BYTE   Gs2
 BYTE   W12
 BYTE   Cs3
 BYTE   W12
 BYTE   PATT
  POIN2 Label_6_0166DBB9
 BYTE   PATT
  POIN2 Label_6_0166DBE5
// 005   ----------------------------------------
 BYTE   EOT
 BYTE   Gs3
 BYTE   BEND   c_v-52
 BYTE   W01
 BYTE   FnM2
 BYTE   W01
 BYTE   En3
 BYTE   N11  Fn2  v112
 BYTE   W12
 BYTE   Gn2
 BYTE   W12
 BYTE   Gs2
 BYTE   W12
 BYTE   As2
 BYTE   W12
 BYTE   Cn3
 BYTE   W12
 BYTE   Fs3
 BYTE   W06
 BYTE   BEND   c_v+32
 BYTE   W06
 BYTE   CnM2
 BYTE   N68  Fn3
 BYTE   W01
 BYTE   BEND   c_v-62
 BYTE   W01
 BYTE   CnM1
 BYTE   W02
 BYTE   AnM1
 BYTE   W01
 BYTE   Fn0
 BYTE   W02
 BYTE   Cs1
 BYTE   W01
 BYTE   Gn1
 BYTE   W01
 BYTE   Cn2
 BYTE   W02
 BYTE   Fn2
 BYTE   W01
Label_6_0166DC6A:
 BYTE   BEND   c_v-7
 BYTE   W01
 BYTE   Cn3
 BYTE   W02
 BYTE   Dn3
 BYTE   W01
 BYTE   Ds3
 BYTE   W02
 BYTE   Ds3
 BYTE   W42
// 006   ----------------------------------------
 BYTE   Ds3
 BYTE   W01
 BYTE   Dn3
 BYTE   W01
 BYTE   Cn3
 BYTE   W02
 BYTE   Gn2
 BYTE   W01
 BYTE   Cn2
 BYTE   W01
 BYTE   Ds1
 BYTE   W02
 BYTE   Fn0
 BYTE   W01
 BYTE   EnM1
 BYTE   W02
 BYTE   CsM2
 BYTE   W01
 BYTE   CnM2
 BYTE   N11  Fn2  v112
 BYTE   W01
 BYTE   BEND   c_v-45
 BYTE   W01
 BYTE   Fs1
 BYTE   W02
 BYTE   Gs2
 BYTE   W01
 BYTE   Ds3
 BYTE   W01
 BYTE   Ds3
 BYTE   W06
 BYTE   N11  Gn2
 BYTE   W12
 BYTE   Gs2
 BYTE   W12
 BYTE   PEND 
Label_6_0166DC9D:
 BYTE   N11  As2  v112
 BYTE   W12
 BYTE   Cn3
 BYTE   W12
 BYTE   Fs3
 BYTE   W06
 BYTE   BEND   c_v+32
 BYTE   W06
 BYTE   CnM2
 BYTE   N68  Fn3
 BYTE   W01
 BYTE   BEND   c_v-62
 BYTE   W01
 BYTE   CnM1
 BYTE   W02
 BYTE   AnM1
 BYTE   W01
 BYTE   Fn0
 BYTE   W02
 BYTE   Cs1
 BYTE   W01
 BYTE   Gn1
 BYTE   W01
 BYTE   Cn2
 BYTE   W02
 BYTE   Fn2
 BYTE   W01
// 007   ----------------------------------------
 BYTE   An2
 BYTE   W01
 BYTE   Cn3
 BYTE   W02
 BYTE   Dn3
 BYTE   W01
 BYTE   Ds3
 BYTE   W02
 BYTE   Ds3
 BYTE   W42
 BYTE   PEND 
Label_6_0166DCC8:
 BYTE   BEND   c_v-1
 BYTE   W01
 BYTE   Dn3
 BYTE   W01
 BYTE   Cn3
 BYTE   W02
 BYTE   Gn2
 BYTE   W01
 BYTE   Cn2
 BYTE   W01
 BYTE   Ds1
 BYTE   W02
 BYTE   Fn0
 BYTE   W01
 BYTE   EnM1
 BYTE   W02
 BYTE   CsM2
 BYTE   W01
 BYTE   En3
 BYTE   N11  Fn2  v112
 BYTE   W12
 BYTE   Gn2
 BYTE   W12
 BYTE   Gs2
 BYTE   W12
// 008   ----------------------------------------
 BYTE   As2
 BYTE   W12
 BYTE   Cn3
 BYTE   W12
 BYTE   Gn3
 BYTE   W12
 BYTE   BEND   c_v-64
 BYTE   N32  Fn3
 BYTE   W01
 BYTE   BEND   c_v-52
 BYTE   W01
 BYTE   Ds1
 BYTE   W02
 BYTE   Gn2
 BYTE   W01
 BYTE   Ds3
 BYTE   W01
 BYTE   Ds3
 BYTE   W06
 BYTE   PEND 
Label_6_0166DCFB:
 BYTE   W24
 BYTE   BEND   c_v-64
 BYTE   N22  Fn3  v112
 BYTE   W02
 BYTE   BEND   c_v-55
 BYTE   W02
 BYTE   Cs0
 BYTE   W01
 BYTE   Cs1
 BYTE   W01
 BYTE   Bn1
 BYTE   W02
 BYTE   Gn2
 BYTE   W01
 BYTE   Cn3
 BYTE   W02
 BYTE   Ds3
 BYTE   W01
 BYTE   Ds3
 BYTE   W12
// 009   ----------------------------------------
 BYTE   N11  Gn3
 BYTE   W12
 BYTE   BEND   c_v-64
 BYTE   N11  Gs3
 BYTE   W01
 BYTE   BEND   c_v-47
 BYTE   W01
 BYTE   Fn1
 BYTE   W02
 BYTE   Gs2
 BYTE   W01
 BYTE   Ds3
 BYTE   W01
 BYTE   Ds3
 BYTE   W06
 BYTE   N11  Fn3
 BYTE   W12
 BYTE   Cs3
 BYTE   W12
 BYTE   PEND 
 BYTE   Gs3
 BYTE   W12
 BYTE   Fn3
 BYTE   W12
 BYTE   Cs3
 BYTE   W12
 BYTE   BEND   c_v-64
 BYTE   N11  As3
 BYTE   W01
 BYTE   BEND   c_v-47
 BYTE   W01
 BYTE   Fn1
 BYTE   W02
 BYTE   Gs2
 BYTE   W01
 BYTE   Ds3
 BYTE   W01
 BYTE   Ds3
 BYTE   W06
// 010   ----------------------------------------
 BYTE   N11  Gn3
 BYTE   W12
 BYTE   Ds3
 BYTE   W12
 BYTE   As3
 BYTE   W12
 BYTE   Gn3
 BYTE   W12
 BYTE   Ds3
 BYTE   W12
 BYTE   BEND   c_v+0
 BYTE   N11  Fn2
 BYTE   W12
 BYTE   Gn2
 BYTE   W12
 BYTE   Gs2
 BYTE   W12
// 011   ----------------------------------------
 BYTE   As2
 BYTE   W12
 BYTE   Cn3
 BYTE   W12
 BYTE   Fs3
 BYTE   W06
 BYTE   BEND   c_v+32
 BYTE   W06
 BYTE   CnM2
 BYTE   N68  Fn3
 BYTE   W01
 BYTE   BEND   c_v-62
 BYTE   W01
 BYTE   CnM1
 BYTE   W02
 BYTE   AnM1
 BYTE   W01
 BYTE   Fn0
 BYTE   W02
 BYTE   Cs1
 BYTE   W01
 BYTE   Gn1
 BYTE   W01
 BYTE   Cn2
 BYTE   W02
 BYTE   Fn2
 BYTE   W01
 BYTE   PATT
  POIN2 Label_6_0166DC6A
 BYTE   PATT
  POIN2 Label_6_0166DC9D
 BYTE   PATT
  POIN2 Label_6_0166DCC8
 BYTE   PATT
  POIN2 Label_6_0166DCFB
// 012   ----------------------------------------
 BYTE   N11  Gs3  v112
 BYTE   W12
 BYTE   Fn3
 BYTE   W12
 BYTE   Cs3
 BYTE   W12
 BYTE   Gn3
 BYTE   W12
 BYTE   En3
 BYTE   W12
 BYTE   Cn3
 BYTE   W12
 BYTE   Gn3
 BYTE   W12
 BYTE   En3
 BYTE   W12
// 013   ----------------------------------------
 BYTE   Cn3
 BYTE   W12
 BYTE   BEND   c_v-64
 BYTE   N72  Cn4
 BYTE   W01
 BYTE   BEND   c_v-62
 BYTE   W01
 BYTE   CsM1
 BYTE   W02
 BYTE   Cn0
 BYTE   W01
 BYTE   An0
 BYTE   W01
 BYTE   Fs1
 BYTE   W02
 BYTE   Cn2
 BYTE   W01
 BYTE   Fs2
 BYTE   W02
 BYTE   As2
 BYTE   W01
 BYTE   Cs3
 BYTE   W01
 BYTE   Ds3
 BYTE   W02
 BYTE   Ds3
 BYTE   W56
 BYTE   W01
 BYTE   N72  Fn4
 BYTE   W12
// 014   ----------------------------------------
Label_6_0166DDBC:
 BYTE   W32
 BYTE   W01
 BYTE   BEND   c_v-1
 BYTE   W01
 BYTE   Ds3
 BYTE   W01
 BYTE   Ds3
 BYTE   W02
 BYTE   Dn3
 BYTE   W01
 BYTE   Cn3
 BYTE   W01
 BYTE   As2
 BYTE   W02
 BYTE   Gs2
 BYTE   W01
 BYTE   Fs2
 BYTE   W02
 BYTE   Dn2
 BYTE   W01
 BYTE   Bn1
 BYTE   W01
 BYTE   Gn1
 BYTE   W02
 BYTE   Ds1
 BYTE   W01
 BYTE   As0
 BYTE   W02
 BYTE   Fn0
 BYTE   W01
 BYTE   Cn0
 BYTE   W01
 BYTE   FsM1
 BYTE   W02
 BYTE   CnM1
 BYTE   W01
 BYTE   FnM2
 BYTE   W02
 BYTE   CnM2
 BYTE   W01
 BYTE   CnM2
 BYTE   W01
 BYTE   CnM2
 BYTE   N72  As3  v112
 BYTE   W01
 BYTE   BEND   c_v-62
 BYTE   W01
 BYTE   CsM1
 BYTE   W02
 BYTE   Cn0
 BYTE   W01
 BYTE   An0
 BYTE   W01
 BYTE   Fs1
 BYTE   W02
 BYTE   Cn2
 BYTE   W01
 BYTE   Fs2
 BYTE   W02
 BYTE   As2
 BYTE   W01
 BYTE   Cs3
 BYTE   W01
 BYTE   Ds3
 BYTE   W02
 BYTE   Ds3
 BYTE   W21
 BYTE   PEND 
// 015   ----------------------------------------
Label_6_0166DE04:
 BYTE   W36
 BYTE   N72  Ds4  v112
 BYTE   W44
 BYTE   W01
 BYTE   BEND   c_v-1
 BYTE   W01
 BYTE   Ds3
 BYTE   W01
 BYTE   Ds3
 BYTE   W02
 BYTE   Dn3
 BYTE   W01
 BYTE   Cn3
 BYTE   W01
 BYTE   As2
 BYTE   W02
 BYTE   Gs2
 BYTE   W01
 BYTE   Fs2
 BYTE   W02
 BYTE   Dn2
 BYTE   W01
 BYTE   Bn1
 BYTE   W01
 BYTE   Gn1
 BYTE   W02
 BYTE   PEND 
// 016   ----------------------------------------
 BYTE   Ds1
 BYTE   W01
 BYTE   As0
 BYTE   W02
 BYTE   Fn0
 BYTE   W01
 BYTE   Cn0
 BYTE   W01
 BYTE   FsM1
 BYTE   W02
 BYTE   CnM1
 BYTE   W01
 BYTE   FnM2
 BYTE   W02
 BYTE   CnM2
 BYTE   W01
 BYTE   CnM2
 BYTE   W01
 BYTE   CnM2
 BYTE   N72  Cn4
 BYTE   W01
 BYTE   BEND   c_v-62
 BYTE   W01
 BYTE   CsM1
 BYTE   W02
 BYTE   Cn0
 BYTE   W01
 BYTE   An0
 BYTE   W01
 BYTE   Fs1
 BYTE   W02
 BYTE   Cn2
 BYTE   W01
 BYTE   Fs2
 BYTE   W02
 BYTE   As2
 BYTE   W01
 BYTE   Cs3
 BYTE   W01
 BYTE   Ds3
 BYTE   W02
 BYTE   Ds3
 BYTE   W56
 BYTE   W01
 BYTE   N72  Fn4
 BYTE   W12
 BYTE   PATT
  POIN2 Label_6_0166DDBC
 BYTE   PATT
  POIN2 Label_6_0166DE04
// 017   ----------------------------------------
 BYTE   GoTo
  POIN2 Label_6_0166DB56
// 018   ----------------------------------------
 BYTE   W12
 BYTE   FINE

//**************** Track 8 (Midi-Chn.7) ****************//

song03DF_008:
// 000   ----------------------------------------
 BYTE   KEYSH   song03DF_key+0
Label_7_0166D701:
 BYTE   VOICE   127
 BYTE   VOL   46*song03DF_mvl/mxv
 BYTE   PAN   c_v+0
 BYTE   N12  Cn1  v127
 BYTE   N12  An2
 BYTE   W36
 BYTE   Cn1
 BYTE   N12  As1  v080
 BYTE   W36
 BYTE   Cn1  v127
 BYTE   N12  As1  v080
 BYTE   W24
// 001   ----------------------------------------
Label_7_0166D718:
 BYTE   N12  Cn1  v127
 BYTE   W12
 BYTE   N12
 BYTE   N12  Dn1
 BYTE   N12  As1  v080
 BYTE   W12
 BYTE   An1  v127
 BYTE   W12
 BYTE   Gn1
 BYTE   W12
 BYTE   Cn1
 BYTE   N12  An2
 BYTE   W36
 BYTE   Cn1
 BYTE   N12  As1  v080
 BYTE   W12
 BYTE   PEND 
// 002   ----------------------------------------
 BYTE   W24
 BYTE   Cn1  v127
 BYTE   N12  As1  v080
 BYTE   W24
 BYTE   Cn1  v127
 BYTE   W12
 BYTE   N12
 BYTE   N12  Dn1
 BYTE   N12  As1  v080
 BYTE   W12
 BYTE   An1  v127
 BYTE   W12
 BYTE   Gn1
 BYTE   W12
// 003   ----------------------------------------
Label_7_0166D748:
 BYTE   N12  Cn1  v127
 BYTE   N12  An2
 BYTE   W36
 BYTE   Cn1
 BYTE   N12  As1  v080
 BYTE   W36
 BYTE   Cn1  v127
 BYTE   N12  As1  v080
 BYTE   W24
 BYTE   PEND 
 BYTE   PATT
  POIN2 Label_7_0166D718
// 004   ----------------------------------------
Label_7_0166D75F:
 BYTE   W24
 BYTE   N12  Cn1  v127
 BYTE   N12  As1  v080
 BYTE   W24
 BYTE   Cn1  v127
 BYTE   W12
 BYTE   N12
 BYTE   N12  Dn1
 BYTE   W12
 BYTE   An1
 BYTE   W12
 BYTE   Gn1
 BYTE   W12
 BYTE   PEND 
// 005   ----------------------------------------
 BYTE   Cn1
 BYTE   N12  An2
 BYTE   W36
 BYTE   Dn1
 BYTE   N12  As1  v080
 BYTE   W24
 BYTE   Cn1  v127
 BYTE   W12
 BYTE   N12
 BYTE   N12  As1  v080
 BYTE   W24
// 006   ----------------------------------------
Label_7_0166D784:
 BYTE   W12
 BYTE   N12  Dn1  v127
 BYTE   N12  As1  v080
 BYTE   W24
 BYTE   Cn1  v127
 BYTE   W12
 BYTE   N12
 BYTE   N12  As1  v080
 BYTE   W36
 BYTE   Dn1  v127
 BYTE   N12  As1  v080
 BYTE   W12
 BYTE   PEND 
// 007   ----------------------------------------
 BYTE   W24
 BYTE   Cn1  v127
 BYTE   N12  As1  v080
 BYTE   W36
 BYTE   Dn1  v127
 BYTE   N12  As1  v080
 BYTE   W24
 BYTE   Cn1  v127
 BYTE   W12
// 008   ----------------------------------------
 BYTE   N12
 BYTE   N12  As1  v080
 BYTE   W36
 BYTE   Dn1  v127
 BYTE   N12  As1  v080
 BYTE   W36
 BYTE   Cn1  v127
 BYTE   N12  As1  v080
 BYTE   W24
 BYTE   PATT
  POIN2 Label_7_0166D784
// 009   ----------------------------------------
 BYTE   W24
 BYTE   N12  Cn1  v127
 BYTE   N12  As1  v080
 BYTE   W36
 BYTE   Dn1  v127
 BYTE   N12  As1  v080
 BYTE   W12
 BYTE   An1  v127
 BYTE   W12
 BYTE   Cn1
 BYTE   N12  Gn1
 BYTE   W12
// 010   ----------------------------------------
 BYTE   Cn1
 BYTE   N12  An2
 BYTE   W36
 BYTE   Dn1
 BYTE   N12  As1  v080
 BYTE   N12  Fn2  v120
 BYTE   W24
 BYTE   Cn1  v127
 BYTE   W12
 BYTE   N12
 BYTE   N12  As1  v080
 BYTE   N12  Fn2  v120
 BYTE   W24
// 011   ----------------------------------------
Label_7_0166D7ED:
 BYTE   W12
 BYTE   N12  Dn1  v127
 BYTE   N12  As1  v080
 BYTE   N12  Fn2  v120
 BYTE   W24
 BYTE   Cn1  v127
 BYTE   W12
 BYTE   N12
 BYTE   N12  As1  v080
 BYTE   N12  Fn2  v120
 BYTE   W36
 BYTE   Dn1  v127
 BYTE   N12  As1  v080
 BYTE   N12  Fn2  v120
 BYTE   W12
 BYTE   PEND 
// 012   ----------------------------------------
 BYTE   W24
 BYTE   Cn1  v127
 BYTE   N12  As1  v080
 BYTE   N12  Fn2  v120
 BYTE   W36
 BYTE   Dn1  v127
 BYTE   N12  As1  v080
 BYTE   N12  Fn2  v120
 BYTE   W24
 BYTE   Cn1  v127
 BYTE   W12
// 013   ----------------------------------------
 BYTE   N12
 BYTE   N12  As1  v080
 BYTE   N12  Fn2  v120
 BYTE   W36
 BYTE   Dn1  v127
 BYTE   N12  As1  v080
 BYTE   N12  Fn2  v120
 BYTE   W36
 BYTE   Cn1  v127
 BYTE   N12  As1  v080
 BYTE   N12  Fn2  v120
 BYTE   W24
 BYTE   PATT
  POIN2 Label_7_0166D7ED
// 014   ----------------------------------------
 BYTE   W24
 BYTE   N12  Cn1  v127
 BYTE   N12  As1  v080
 BYTE   N12  Fn2  v120
 BYTE   W36
 BYTE   Dn1  v127
 BYTE   N12  As1  v080
 BYTE   N12  Fn2  v120
 BYTE   W12
 BYTE   An1  v127
 BYTE   W12
 BYTE   Cn1
 BYTE   N12  Gn1
 BYTE   W12
 BYTE   PATT
  POIN2 Label_7_0166D748
// 015   ----------------------------------------
Label_7_0166D862:
 BYTE   N12  Cn1  v127
 BYTE   W12
 BYTE   N12
 BYTE   N12  Dn1
 BYTE   W12
 BYTE   An1
 BYTE   W12
 BYTE   Gn1
 BYTE   W12
 BYTE   Cn1
 BYTE   N12  An2
 BYTE   W36
 BYTE   Cn1
 BYTE   N12  As1  v080
 BYTE   W12
 BYTE   PEND 
 BYTE   PATT
  POIN2 Label_7_0166D75F
 BYTE   PATT
  POIN2 Label_7_0166D748
 BYTE   PATT
  POIN2 Label_7_0166D862
// 016   ----------------------------------------
 BYTE   W24
 BYTE   N12  Cn1  v127
 BYTE   N12  As1  v080
 BYTE   W12
 BYTE   Dn1  v127
 BYTE   W12
 BYTE   Cn1
 BYTE   W12
 BYTE   N12
 BYTE   N12  Dn1
 BYTE   W12
 BYTE   An1
 BYTE   W12
 BYTE   Gn1
 BYTE   W12
// 017   ----------------------------------------
 BYTE   GoTo
  POIN2 Label_7_0166D701
// 018   ----------------------------------------
 BYTE   W12
 BYTE   FINE

//******************************************************//
	ALIGN 4

song03DF:
	BYTE	8	// NumTrks
	BYTE	0	// NumBlks
	BYTE	song03DF_pri	// Priority
	BYTE	song03DF_rev	// Reverb.
    
	POIN2	song03DF_grp
    
	POIN2	song03DF_001
	POIN2	song03DF_002
	POIN2	song03DF_003
	POIN2	song03DF_004
	POIN2	song03DF_005
	POIN2	song03DF_006
	POIN2	song03DF_007
	POIN2	song03DF_008

	
