//Event file generated from Sappy .s format.
        #include "MPlayDef.event"

        #define    OutofChaos_grp  voicegroup000
        #define    OutofChaos_pri  0
        #define    OutofChaos_rev  94
        #define    OutofChaos_key  0

        // .rodata
        // OutofChaos
        ALIGN 4

//****************** Track 0 (Midi-Chn.0) ******************//

OutofChaos_0:
        BYTE   KEYSH   OutofChaos_key+0
// 000   ----------------------------------------
        BYTE   TEMPO   130/2
OutofChaos_0_LOOP:
        BYTE           VOICE   49
        BYTE           PAN     c_v+20
        BYTE           VOL     16
        BYTE   W01
        BYTE           N05     En3   v127
        BYTE   W06
        BYTE                   Fs3
        BYTE   W06
        BYTE           N56     Gn3   v127   gtp2
        BYTE   W60
        BYTE           N10     Bn3
        BYTE   W12
        BYTE           N56     Dn4   v127   gtp2
        BYTE   W11
// 001   ----------------------------------------
OutofChaos_0_1:
        BYTE   W48
        BYTE   W01
        BYTE           N05     Cn4   v127
        BYTE   W06
        BYTE                   Bn3
        BYTE   W06
        BYTE           N68     An3   v127   gtp2
        BYTE   W32
        BYTE   W03
        BYTE   PEND
// 002   ----------------------------------------
OutofChaos_0_2:
        BYTE   W36
        BYTE   W01
        BYTE           N56     Fs3   v127   gtp2
        BYTE   W56
        BYTE   W03
        BYTE   PEND
// 003   ----------------------------------------
OutofChaos_0_3:
        BYTE   W01
        BYTE           N05     En3   v127
        BYTE   W06
        BYTE                   Fs3
        BYTE   W06
        BYTE           N56     Gn3   v127   gtp2
        BYTE   W60
        BYTE           N10     Bn3
        BYTE   W12
        BYTE           N44     Dn4   v127   gtp2
        BYTE   W11
        BYTE   PEND
// 004   ----------------------------------------
OutofChaos_0_4:
        BYTE   W36
        BYTE   W01
        BYTE           N10     En4   v127
        BYTE   W12
        BYTE                   Fs4
        BYTE   W12
        BYTE           TIE     En4
        BYTE   W32
        BYTE   W03
        BYTE   PEND
// 005   ----------------------------------------
        BYTE   W96
// 006   ----------------------------------------
        BYTE   W11
        BYTE           EOT
        BYTE   W84
        BYTE   W01
// 007   ----------------------------------------
        BYTE   W96
// 008   ----------------------------------------
        BYTE   W96
// 009   ----------------------------------------
        BYTE   W96
// 010   ----------------------------------------
        BYTE   W96
// 011   ----------------------------------------
        BYTE   W96
// 012   ----------------------------------------
        BYTE   W01
        BYTE           N05     En3
        BYTE   W06
        BYTE                   Fs3
        BYTE   W06
        BYTE           N56     Gn3   v127   gtp2
        BYTE   W60
        BYTE           N10     Bn3
        BYTE   W12
        BYTE           N56     Dn4   v127   gtp2
        BYTE   W11
// 013   ----------------------------------------
        BYTE   PATT
         POIN2  OutofChaos_0_1
// 014   ----------------------------------------
        BYTE   PATT
         POIN2  OutofChaos_0_2
// 015   ----------------------------------------
        BYTE   PATT
         POIN2  OutofChaos_0_3
// 016   ----------------------------------------
        BYTE   PATT
         POIN2  OutofChaos_0_4
// 017   ----------------------------------------
        BYTE   W96
// 018   ----------------------------------------
        BYTE   W11
        BYTE           EOT     En4
        BYTE   W84
        BYTE   W01
// 019   ----------------------------------------
        BYTE   W96
// 020   ----------------------------------------
        BYTE   W96
// 021   ----------------------------------------
        BYTE   W96
// 022   ----------------------------------------
        BYTE   W96
// 023   ----------------------------------------
        BYTE   W96
// 024   ----------------------------------------
        BYTE   W96
// 025   ----------------------------------------
        BYTE   W96
// 026   ----------------------------------------
        BYTE   W96
// 027   ----------------------------------------
        BYTE   W96
// 028   ----------------------------------------
        BYTE   W96
// 029   ----------------------------------------
        BYTE   W96
// 030   ----------------------------------------
        BYTE   W96
// 031   ----------------------------------------
        BYTE   W96
// 032   ----------------------------------------
        BYTE   W96
// 033   ----------------------------------------
        BYTE   W96
// 034   ----------------------------------------
        BYTE   W96
// 035   ----------------------------------------
        BYTE   W96
// 036   ----------------------------------------
        BYTE   W13
        BYTE           TIE     Dn4   v095
        BYTE   W80
        BYTE   W03
// 037   ----------------------------------------
        BYTE   W96
// 038   ----------------------------------------
        BYTE   W96
// 039   ----------------------------------------
OutofChaos_0_39:
        BYTE   W11
        BYTE           EOT     Dn4
        BYTE   W02
        BYTE           N68     Dn4   v095   gtp2
        BYTE   W72
        BYTE                   Cs4
        BYTE   W11
        BYTE   PEND
// 040   ----------------------------------------
OutofChaos_0_40:
        BYTE   W60
        BYTE   W01
        BYTE           N68     Cn4   v095   gtp2
        BYTE   W32
        BYTE   W03
        BYTE   PEND
// 041   ----------------------------------------
        BYTE   W36
        BYTE   W01
        BYTE                   Bn3
        BYTE   W56
        BYTE   W03
// 042   ----------------------------------------
        BYTE   W13
        BYTE           TIE     Dn4
        BYTE   W80
        BYTE   W03
// 043   ----------------------------------------
        BYTE   W96
// 044   ----------------------------------------
        BYTE   W96
// 045   ----------------------------------------
        BYTE   PATT
         POIN2  OutofChaos_0_39
// 046   ----------------------------------------
        BYTE   PATT
         POIN2  OutofChaos_0_40
// 047   ----------------------------------------
        BYTE   W36
        BYTE   W01
        BYTE           N56     Bn3   v095   gtp2
        BYTE   W56
        BYTE   W02
        BYTE   GoTo
         POIN2  OutofChaos_0_LOOP
        BYTE   FINE

//****************** Track 1 (Midi-Chn.1) ******************//

OutofChaos_1:
        BYTE   KEYSH   OutofChaos_key+0
// 000   ----------------------------------------
OutofChaos_1_LOOP:
        BYTE           VOICE   49
        BYTE           PAN     c_v-20
        BYTE           VOL     12
        BYTE   W01
        BYTE           N05     Bn2   v127
        BYTE   W06
        BYTE                   Dn3
        BYTE   W06
        BYTE           N56     En3   v127   gtp2
        BYTE   W60
        BYTE           N10     Gn3
        BYTE   W12
        BYTE           N56     Bn3   v127   gtp2
        BYTE   W11
// 001   ----------------------------------------
OutofChaos_1_1:
        BYTE   W48
        BYTE   W01
        BYTE           N05     An3   v127
        BYTE   W06
        BYTE                   Gn3
        BYTE   W06
        BYTE           N68     Fs3   v127   gtp2
        BYTE   W32
        BYTE   W03
        BYTE   PEND
// 002   ----------------------------------------
OutofChaos_1_2:
        BYTE   W36
        BYTE   W01
        BYTE           N56     Dn3   v127   gtp2
        BYTE   W56
        BYTE   W03
        BYTE   PEND
// 003   ----------------------------------------
OutofChaos_1_3:
        BYTE   W01
        BYTE           N05     Bn2   v127
        BYTE   W06
        BYTE                   Dn3
        BYTE   W06
        BYTE           N56     En3   v127   gtp2
        BYTE   W60
        BYTE           N10     Gn3
        BYTE   W12
        BYTE           N44     Bn3   v127   gtp2
        BYTE   W11
        BYTE   PEND
// 004   ----------------------------------------
OutofChaos_1_4:
        BYTE   W36
        BYTE   W01
        BYTE           N10     Gn3   v127
        BYTE   W12
        BYTE                   Bn3
        BYTE   W12
        BYTE           N72     An3
        BYTE   W32
        BYTE   W03
        BYTE   PEND
// 005   ----------------------------------------
OutofChaos_1_5:
        BYTE   W36
        BYTE   W01
        BYTE           N68     Bn3   v127   gtp2
        BYTE   W56
        BYTE   W03
        BYTE   PEND
// 006   ----------------------------------------
OutofChaos_1_6:
        BYTE   W13
        BYTE           N68     Cn4   v081   gtp2
        BYTE   W72
        BYTE           TIE     En4
        BYTE   W11
        BYTE   PEND
// 007   ----------------------------------------
        BYTE   W96
// 008   ----------------------------------------
OutofChaos_1_8:
        BYTE   W32
        BYTE   W03
        BYTE           EOT     En4
        BYTE   W02
        BYTE           N68     Bn3   v081   gtp2
        BYTE   W56
        BYTE   W03
        BYTE   PEND
// 009   ----------------------------------------
OutofChaos_1_9:
        BYTE   W13
        BYTE           N68     An3   v081   gtp2
        BYTE   W72
        BYTE                   Dn4
        BYTE   W11
        BYTE   PEND
// 010   ----------------------------------------
OutofChaos_1_10:
        BYTE   W60
        BYTE   W01
        BYTE           N68     En4   v081   gtp2
        BYTE   W32
        BYTE   W03
        BYTE   PEND
// 011   ----------------------------------------
        BYTE   W36
        BYTE   W01
        BYTE           N56     Dn4   v081   gtp2
        BYTE   W56
        BYTE   W03
// 012   ----------------------------------------
        BYTE   W01
        BYTE           N05     Bn2   v127
        BYTE   W06
        BYTE                   Dn3
        BYTE   W06
        BYTE           N56     En3   v127   gtp2
        BYTE   W60
        BYTE           N10     Gn3
        BYTE   W12
        BYTE           N56     Bn3   v127   gtp2
        BYTE   W11
// 013   ----------------------------------------
        BYTE   PATT
         POIN2  OutofChaos_1_1
// 014   ----------------------------------------
        BYTE   PATT
         POIN2  OutofChaos_1_2
// 015   ----------------------------------------
        BYTE   PATT
         POIN2  OutofChaos_1_3
// 016   ----------------------------------------
        BYTE   PATT
         POIN2  OutofChaos_1_4
// 017   ----------------------------------------
        BYTE   PATT
         POIN2  OutofChaos_1_5
// 018   ----------------------------------------
        BYTE   PATT
         POIN2  OutofChaos_1_6
// 019   ----------------------------------------
        BYTE   W96
// 020   ----------------------------------------
        BYTE   PATT
         POIN2  OutofChaos_1_8
// 021   ----------------------------------------
        BYTE   PATT
         POIN2  OutofChaos_1_9
// 022   ----------------------------------------
        BYTE   PATT
         POIN2  OutofChaos_1_10
// 023   ----------------------------------------
        BYTE   W36
        BYTE   W01
        BYTE           N68     Dn4   v081   gtp2
        BYTE   W56
        BYTE   W03
// 024   ----------------------------------------
        BYTE   W96
// 025   ----------------------------------------
        BYTE   W96
// 026   ----------------------------------------
        BYTE   W96
// 027   ----------------------------------------
        BYTE   W96
// 028   ----------------------------------------
        BYTE   W96
// 029   ----------------------------------------
        BYTE   W96
// 030   ----------------------------------------
        BYTE   W96
// 031   ----------------------------------------
        BYTE   W96
// 032   ----------------------------------------
        BYTE   W96
// 033   ----------------------------------------
        BYTE   W96
// 034   ----------------------------------------
        BYTE   W96
// 035   ----------------------------------------
        BYTE   W96
// 036   ----------------------------------------
        BYTE   W80
        BYTE           VOL     12
        BYTE   W02
        BYTE                   41
        BYTE   W03
        BYTE           N68     En4   v095   gtp2
        BYTE   W03
        BYTE           VOL     13
        BYTE   W02
        BYTE                   43
        BYTE   W02
        BYTE                   44
        BYTE   W02
        BYTE                   45
        BYTE   W02
// 037   ----------------------------------------
        BYTE                   47
        BYTE   W02
        BYTE                   48
        BYTE   W02
        BYTE                   50
        BYTE   W02
        BYTE                   52
        BYTE   W02
        BYTE                   55
        BYTE   W02
        BYTE                   58
        BYTE   W02
        BYTE                   60
        BYTE   W02
        BYTE                   64
        BYTE   W02
        BYTE                   68
        BYTE   W02
        BYTE                   72
        BYTE   W02
        BYTE                   76
        BYTE   W02
        BYTE                   80
        BYTE   W02
        BYTE                   85
        BYTE   W36
        BYTE   W01
        BYTE           N68     Fn4   v095   gtp2
        BYTE   W32
        BYTE   W03
// 038   ----------------------------------------
OutofChaos_1_38:
        BYTE   W36
        BYTE   W01
        BYTE           N68     En4   v095   gtp2
        BYTE   W56
        BYTE   W03
        BYTE   PEND
// 039   ----------------------------------------
        BYTE   W80
        BYTE   W02
        BYTE           VOL     10
        BYTE   W03
        BYTE           N68     En4   v095   gtp2
        BYTE   W03
        BYTE           VOL     11
        BYTE   W02
        BYTE                   37
        BYTE   W02
        BYTE                   38
        BYTE   W04
// 040   ----------------------------------------
        BYTE                   41
        BYTE   W02
        BYTE                   43
        BYTE   W02
        BYTE                   44
        BYTE   W02
        BYTE                   47
        BYTE   W02
        BYTE                   48
        BYTE   W02
        BYTE                   52
        BYTE   W02
        BYTE                   55
        BYTE   W02
        BYTE                   58
        BYTE   W02
        BYTE                   61
        BYTE   W02
        BYTE                   65
        BYTE   W02
        BYTE                   69
        BYTE   W02
        BYTE                   74
        BYTE   W02
        BYTE                   85
        BYTE   W36
        BYTE   W01
        BYTE           N68     Fn4   v095   gtp2
        BYTE   W32
        BYTE   W03
// 041   ----------------------------------------
        BYTE   W36
        BYTE   W01
        BYTE                   Gn4
        BYTE   W56
        BYTE   W03
// 042   ----------------------------------------
        BYTE   W80
        BYTE   W02
        BYTE           VOL     9
        BYTE   W03
        BYTE           N68     En4   v095   gtp2
        BYTE   W03
        BYTE           VOL     11
        BYTE   W02
        BYTE                   31
        BYTE   W04
        BYTE                   32
        BYTE   W02
// 043   ----------------------------------------
        BYTE                   34
        BYTE   W02
        BYTE                   35
        BYTE   W02
        BYTE                   38
        BYTE   W02
        BYTE                   41
        BYTE   W02
        BYTE                   43
        BYTE   W02
        BYTE                   47
        BYTE   W02
        BYTE                   49
        BYTE   W02
        BYTE                   54
        BYTE   W02
        BYTE                   58
        BYTE   W02
        BYTE                   63
        BYTE   W02
        BYTE                   68
        BYTE   W02
        BYTE                   73
        BYTE   W02
        BYTE                   80
        BYTE   W02
        BYTE                   85
        BYTE   W32
        BYTE   W03
        BYTE           N68     Fn4   v095   gtp2
        BYTE   W32
        BYTE   W03
// 044   ----------------------------------------
        BYTE   PATT
         POIN2  OutofChaos_1_38
// 045   ----------------------------------------
        BYTE   W80
        BYTE           VOL     8
        BYTE   W02
        BYTE                   25
        BYTE   W03
        BYTE           N68     En4   v095   gtp2
        BYTE   W03
        BYTE           VOL     9
        BYTE   W02
        BYTE                   28
        BYTE   W02
        BYTE                   29
        BYTE   W02
        BYTE                   30
        BYTE   W02
// 046   ----------------------------------------
        BYTE                   31
        BYTE   W02
        BYTE                   34
        BYTE   W02
        BYTE                   36
        BYTE   W02
        BYTE                   39
        BYTE   W02
        BYTE                   43
        BYTE   W02
        BYTE                   47
        BYTE   W02
        BYTE                   50
        BYTE   W02
        BYTE                   55
        BYTE   W02
        BYTE                   60
        BYTE   W02
        BYTE                   65
        BYTE   W02
        BYTE                   72
        BYTE   W02
        BYTE                   78
        BYTE   W02
        BYTE                   85
        BYTE   W36
        BYTE   W01
        BYTE           N68     Fn4   v095   gtp2
        BYTE   W32
        BYTE   W03
// 047   ----------------------------------------
        BYTE   W36
        BYTE   W01
        BYTE           N56     Gn4   v095   gtp2
        BYTE   W56
        BYTE   W02
        BYTE   GoTo
         POIN2  OutofChaos_1_LOOP
        BYTE   FINE

//****************** Track 2 (Midi-Chn.2) ******************//

OutofChaos_2:
        BYTE   KEYSH   OutofChaos_key+0
// 000   ----------------------------------------
OutofChaos_2_LOOP:
        BYTE           VOICE   33
        BYTE           VOL     27
        BYTE   W01
        BYTE           N04     En1   v127
        BYTE   W06
        BYTE                   En1
        BYTE   W06
        BYTE           N11     En0
        BYTE   W12
        BYTE                   En0
        BYTE   W12
        BYTE           N04     En1
        BYTE   W06
        BYTE                   En0
        BYTE   W06
        BYTE           N01
        BYTE   W06
        BYTE           N11     Dn1
        BYTE   W12
        BYTE           N16     En1
        BYTE   W06
        BYTE           BEND    c_v-3
        BYTE   W06
        BYTE                   c_v+0
        BYTE   W06
        BYTE           N11     En0
        BYTE   W11
// 001   ----------------------------------------
OutofChaos_2_1:
        BYTE   W01
        BYTE           N11     En0   v127
        BYTE   W12
        BYTE           N04     En1
        BYTE   W06
        BYTE                   En0
        BYTE   W06
        BYTE           N01
        BYTE   W06
        BYTE           N11     Dn1
        BYTE   W12
        BYTE           N05     En1
        BYTE   W06
        BYTE                   Dn0
        BYTE   W06
        BYTE                   Ds0
        BYTE   W06
        BYTE           N11     En0
        BYTE   W12
        BYTE                   En0
        BYTE   W12
        BYTE           N04     En1
        BYTE   W06
        BYTE                   En0
        BYTE   W05
        BYTE   PEND
// 002   ----------------------------------------
OutofChaos_2_2:
        BYTE   W01
        BYTE           N01     En0   v127
        BYTE   W06
        BYTE           N11     Dn1
        BYTE   W12
        BYTE           N16     En1
        BYTE   W06
        BYTE           BEND    c_v-3
        BYTE   W06
        BYTE                   c_v+0
        BYTE   W06
        BYTE           N11     En0
        BYTE   W12
        BYTE                   En0
        BYTE   W12
        BYTE           N04     En1
        BYTE   W06
        BYTE                   En0
        BYTE   W06
        BYTE           N01
        BYTE   W06
        BYTE           N11     Dn1
        BYTE   W06
        BYTE           BEND    c_v+2
        BYTE   W06
        BYTE                   c_v+0
        BYTE           N11     Fs1
        BYTE   W05
        BYTE   PEND
// 003   ----------------------------------------
OutofChaos_2_3:
        BYTE   W01
        BYTE           BEND    c_v-3
        BYTE   W06
        BYTE                   c_v+0
        BYTE           N05     Dn1   v127
        BYTE   W06
        BYTE           N11     En0
        BYTE   W12
        BYTE                   En0
        BYTE   W12
        BYTE           N04     En1
        BYTE   W06
        BYTE                   En0
        BYTE   W06
        BYTE           N01
        BYTE   W06
        BYTE           N11     Dn1
        BYTE   W12
        BYTE           N16     En1
        BYTE   W06
        BYTE           BEND    c_v-3
        BYTE   W06
        BYTE                   c_v+0
        BYTE   W06
        BYTE           N11     En0
        BYTE   W11
        BYTE   PEND
// 004   ----------------------------------------
OutofChaos_2_4:
        BYTE   W01
        BYTE           N11     En0   v127
        BYTE   W12
        BYTE           N04     En1
        BYTE   W06
        BYTE                   En0
        BYTE   W06
        BYTE           N01
        BYTE   W06
        BYTE           N11     Dn1
        BYTE   W12
        BYTE           N05     En1
        BYTE   W06
        BYTE                   Dn0
        BYTE   W06
        BYTE                   Ds0
        BYTE   W06
        BYTE           N11     An0
        BYTE   W12
        BYTE                   An0
        BYTE   W12
        BYTE           N04
        BYTE   W06
        BYTE                   An0
        BYTE   W05
        BYTE   PEND
// 005   ----------------------------------------
OutofChaos_2_5:
        BYTE   W01
        BYTE           N01     An0   v127
        BYTE   W06
        BYTE           N11     Gn1
        BYTE   W12
        BYTE           N16     An1
        BYTE   W06
        BYTE           BEND    c_v-3
        BYTE   W06
        BYTE                   c_v+0
        BYTE   W06
        BYTE           N11     Gn0
        BYTE   W12
        BYTE                   Gn0
        BYTE   W12
        BYTE           N04
        BYTE   W06
        BYTE                   Gn0
        BYTE   W06
        BYTE           N01
        BYTE   W06
        BYTE           N11     Fn1
        BYTE   W12
        BYTE           N16     Gn1
        BYTE   W05
        BYTE   PEND
// 006   ----------------------------------------
OutofChaos_2_6:
        BYTE   W01
        BYTE           BEND    c_v-3
        BYTE   W06
        BYTE                   c_v+0
        BYTE   W06
        BYTE           N11     Fn0   v127
        BYTE   W12
        BYTE           N04
        BYTE   W06
        BYTE                   Fn0
        BYTE   W06
        BYTE                   Fn1
        BYTE   W06
        BYTE           N11     Fn0
        BYTE   W12
        BYTE                   En1
        BYTE   W12
        BYTE           N16     Fn1
        BYTE   W06
        BYTE           BEND    c_v-1
        BYTE   W06
        BYTE                   c_v+0
        BYTE   W06
        BYTE           N11     Fn0
        BYTE   W11
        BYTE   PEND
// 007   ----------------------------------------
OutofChaos_2_7:
        BYTE   W01
        BYTE           N04     Fn0   v127
        BYTE   W06
        BYTE                   Fn0
        BYTE   W06
        BYTE                   Fn1
        BYTE   W06
        BYTE           N11     Fn0
        BYTE   W12
        BYTE                   En1
        BYTE   W12
        BYTE           N16     Fn1
        BYTE   W06
        BYTE           BEND    c_v-1
        BYTE   W06
        BYTE                   c_v+0
        BYTE   W06
        BYTE           N11     En0
        BYTE   W12
        BYTE           N04
        BYTE   W06
        BYTE                   En0
        BYTE   W06
        BYTE                   En1
        BYTE   W06
        BYTE           N11     En0
        BYTE   W05
        BYTE   PEND
// 008   ----------------------------------------
OutofChaos_2_8:
        BYTE   W07
        BYTE           N11     Dn1   v127
        BYTE   W12
        BYTE           N16     En1
        BYTE   W06
        BYTE           BEND    c_v-3
        BYTE   W06
        BYTE                   c_v+0
        BYTE   W06
        BYTE           N11     En0
        BYTE   W12
        BYTE           N04
        BYTE   W06
        BYTE                   En0
        BYTE   W06
        BYTE                   En1
        BYTE   W06
        BYTE           N11     En0
        BYTE   W12
        BYTE                   Dn1
        BYTE   W12
        BYTE           N16     En1
        BYTE   W05
        BYTE   PEND
// 009   ----------------------------------------
OutofChaos_2_9:
        BYTE   W01
        BYTE           BEND    c_v-3
        BYTE   W06
        BYTE                   c_v+0
        BYTE   W06
        BYTE           N11     Dn0   v127
        BYTE   W12
        BYTE           N04
        BYTE   W06
        BYTE                   Dn0
        BYTE   W06
        BYTE                   Dn1
        BYTE   W06
        BYTE           N11     Dn0
        BYTE   W12
        BYTE                   Cn1
        BYTE   W12
        BYTE           N16     Dn1
        BYTE   W06
        BYTE           BEND    c_v-3
        BYTE   W06
        BYTE                   c_v+0
        BYTE   W06
        BYTE           N11     Dn0
        BYTE   W11
        BYTE   PEND
// 010   ----------------------------------------
OutofChaos_2_10:
        BYTE   W01
        BYTE           N04     Dn0   v127
        BYTE   W06
        BYTE                   Dn0
        BYTE   W06
        BYTE                   Dn1
        BYTE   W06
        BYTE           N11     Dn0
        BYTE   W12
        BYTE                   Cn1
        BYTE   W12
        BYTE           N16     Dn1
        BYTE   W06
        BYTE           BEND    c_v-3
        BYTE   W06
        BYTE                   c_v+0
        BYTE   W06
        BYTE           N11     En0
        BYTE   W12
        BYTE           N04
        BYTE   W06
        BYTE                   En0
        BYTE   W06
        BYTE                   En1
        BYTE   W06
        BYTE           N11     En0
        BYTE   W05
        BYTE   PEND
// 011   ----------------------------------------
        BYTE   W07
        BYTE                   Dn1
        BYTE   W12
        BYTE           N16     En1
        BYTE   W06
        BYTE           BEND    c_v-3
        BYTE   W06
        BYTE                   c_v+0
        BYTE   W06
        BYTE           N11     Dn0
        BYTE   W12
        BYTE           N04
        BYTE   W06
        BYTE                   Dn0
        BYTE   W06
        BYTE                   Dn1
        BYTE   W06
        BYTE           N11     Dn0
        BYTE   W12
        BYTE                   Cn1
        BYTE   W12
        BYTE           N16     Dn1
        BYTE   W05
// 012   ----------------------------------------
        BYTE   W01
        BYTE           BEND    c_v-3
        BYTE   W06
        BYTE                   c_v+0
        BYTE   W06
        BYTE           N11     En0
        BYTE   W12
        BYTE                   En0
        BYTE   W12
        BYTE           N04     En1
        BYTE   W06
        BYTE                   En0
        BYTE   W06
        BYTE           N01
        BYTE   W06
        BYTE           N11     Dn1
        BYTE   W12
        BYTE           N16     En1
        BYTE   W06
        BYTE           BEND    c_v-3
        BYTE   W06
        BYTE                   c_v+0
        BYTE   W06
        BYTE           N11     En0
        BYTE   W11
// 013   ----------------------------------------
        BYTE   PATT
         POIN2  OutofChaos_2_1
// 014   ----------------------------------------
        BYTE   PATT
         POIN2  OutofChaos_2_2
// 015   ----------------------------------------
        BYTE   PATT
         POIN2  OutofChaos_2_3
// 016   ----------------------------------------
        BYTE   PATT
         POIN2  OutofChaos_2_4
// 017   ----------------------------------------
        BYTE   PATT
         POIN2  OutofChaos_2_5
// 018   ----------------------------------------
        BYTE   PATT
         POIN2  OutofChaos_2_6
// 019   ----------------------------------------
        BYTE   PATT
         POIN2  OutofChaos_2_7
// 020   ----------------------------------------
        BYTE   PATT
         POIN2  OutofChaos_2_8
// 021   ----------------------------------------
        BYTE   PATT
         POIN2  OutofChaos_2_9
// 022   ----------------------------------------
        BYTE   PATT
         POIN2  OutofChaos_2_10
// 023   ----------------------------------------
        BYTE   W07
        BYTE           N11     Dn1   v127
        BYTE   W12
        BYTE           N16     En1
        BYTE   W06
        BYTE           BEND    c_v-3
        BYTE   W06
        BYTE                   c_v+0
        BYTE   W06
        BYTE           N11     An0
        BYTE   W12
        BYTE           N04
        BYTE   W06
        BYTE                   An0
        BYTE   W06
        BYTE                   An1
        BYTE   W06
        BYTE           N11     An0
        BYTE   W12
        BYTE                   Gn1
        BYTE   W12
        BYTE           N16     An1
        BYTE   W05
// 024   ----------------------------------------
        BYTE   W01
        BYTE           BEND    c_v-3
        BYTE   W06
        BYTE                   c_v+0
        BYTE   W06
        BYTE           N11     Fs0
        BYTE   W12
        BYTE                   Fs0
        BYTE   W12
        BYTE                   Fs0
        BYTE   W12
        BYTE                   Fs0
        BYTE   W12
        BYTE                   Fs0
        BYTE   W12
        BYTE                   Fs0
        BYTE   W12
        BYTE                   Fs0
        BYTE   W11
// 025   ----------------------------------------
        BYTE   W01
        BYTE                   Fs0
        BYTE   W12
        BYTE                   Fs0
        BYTE   W12
        BYTE                   Fs0
        BYTE   W12
        BYTE                   Fs0
        BYTE   W12
        BYTE           N04     Fs1
        BYTE   W06
        BYTE                   Fs1
        BYTE   W06
        BYTE           N11     Fs0
        BYTE   W12
        BYTE                   Fs0
        BYTE   W12
        BYTE                   Fs0
        BYTE   W11
// 026   ----------------------------------------
        BYTE   W01
        BYTE                   Fs0
        BYTE   W12
        BYTE                   Fs0
        BYTE   W12
        BYTE                   Fs0
        BYTE   W12
        BYTE                   Fs0
        BYTE   W12
        BYTE                   Fs0
        BYTE   W12
        BYTE                   Fs0
        BYTE   W12
        BYTE                   Fs0
        BYTE   W12
        BYTE                   Fs0
        BYTE   W11
// 027   ----------------------------------------
        BYTE   W01
        BYTE           N04     Fs1
        BYTE   W06
        BYTE                   Fs1
        BYTE   W06
        BYTE           N11     Fs0
        BYTE   W12
        BYTE                   Fs0
        BYTE   W12
        BYTE           N04     Fs1
        BYTE   W06
        BYTE           N11     Fs0
        BYTE   W12
        BYTE                   Fn1
        BYTE   W12
        BYTE           N04     Fs1
        BYTE   W06
        BYTE           N11     Fn1
        BYTE   W12
        BYTE                   Fs0
        BYTE   W11
// 028   ----------------------------------------
        BYTE   W01
        BYTE                   Fs0
        BYTE   W12
        BYTE           N04     Fs1
        BYTE   W06
        BYTE           N11     Fs0
        BYTE   W12
        BYTE                   Fn1
        BYTE   W12
        BYTE           N04     Fs1
        BYTE   W06
        BYTE           N11     Fn1
        BYTE   W12
        BYTE                   Fs0
        BYTE   W12
        BYTE                   Fs0
        BYTE   W12
        BYTE           N04     Fs1
        BYTE   W06
        BYTE           N11     Fs0
        BYTE   W05
// 029   ----------------------------------------
        BYTE   W07
        BYTE                   Fn1
        BYTE   W12
        BYTE           N04     Fs1
        BYTE   W06
        BYTE           N11     Fn1
        BYTE   W12
        BYTE                   Fs0
        BYTE   W12
        BYTE                   Fs0
        BYTE   W12
        BYTE           N04     Fs1
        BYTE   W06
        BYTE           N11     Fs0
        BYTE   W12
        BYTE                   Fn1
        BYTE   W12
        BYTE           N04     Fs1
        BYTE   W05
// 030   ----------------------------------------
        BYTE   W01
        BYTE           N11     Fn1
        BYTE   W12
        BYTE                   Fs0
        BYTE   W12
        BYTE                   Cs1
        BYTE   W12
        BYTE                   Fs1
        BYTE   W12
        BYTE           N04     Fs0
        BYTE   W06
        BYTE           N11     Fn0
        BYTE   W12
        BYTE           N04     Fs0
        BYTE   W06
        BYTE                   Gs0
        BYTE   W06
        BYTE                   An0
        BYTE   W06
        BYTE           N11     Fs0
        BYTE   W11
// 031   ----------------------------------------
        BYTE   W01
        BYTE                   Cs1
        BYTE   W12
        BYTE                   Fs1
        BYTE   W12
        BYTE           N04     Fs0
        BYTE   W06
        BYTE           N11     Fn0
        BYTE   W12
        BYTE           N04     Fs0
        BYTE   W06
        BYTE                   Gs0
        BYTE   W06
        BYTE                   An0
        BYTE   W06
        BYTE           N11     Fs0
        BYTE   W12
        BYTE                   Cs1
        BYTE   W12
        BYTE                   Fs1
        BYTE   W11
// 032   ----------------------------------------
        BYTE   W01
        BYTE           N04     Fs0
        BYTE   W06
        BYTE           N11     Fn0
        BYTE   W12
        BYTE           N04     Fs0
        BYTE   W06
        BYTE                   Gs0
        BYTE   W06
        BYTE                   An0
        BYTE   W06
        BYTE           N11     Cs1
        BYTE   W12
        BYTE                   Cs1
        BYTE   W12
        BYTE                   Gs0
        BYTE   W12
        BYTE           N04     Cs1
        BYTE   W06
        BYTE           N11
        BYTE   W12
        BYTE           N04     Gs0
        BYTE   W05
// 033   ----------------------------------------
        BYTE   W01
        BYTE                   Cs1
        BYTE   W06
        BYTE                   Gs0
        BYTE   W06
        BYTE           N11     Dn1
        BYTE   W12
        BYTE                   Dn1
        BYTE   W12
        BYTE                   An0
        BYTE   W12
        BYTE           N04     Dn1
        BYTE   W06
        BYTE           N11
        BYTE   W12
        BYTE           N04     An0
        BYTE   W06
        BYTE                   Dn1
        BYTE   W06
        BYTE                   An0
        BYTE   W06
        BYTE           N11     Dn1
        BYTE   W11
// 034   ----------------------------------------
        BYTE   W01
        BYTE                   Dn1
        BYTE   W12
        BYTE                   An0
        BYTE   W12
        BYTE           N04     Dn1
        BYTE   W06
        BYTE           N11
        BYTE   W12
        BYTE           N04     An0
        BYTE   W06
        BYTE                   Dn1
        BYTE   W06
        BYTE                   An0
        BYTE   W06
        BYTE           N11     En1
        BYTE   W12
        BYTE                   En1
        BYTE   W12
        BYTE                   Bn0
        BYTE   W11
// 035   ----------------------------------------
        BYTE   W01
        BYTE           N04     En1
        BYTE   W06
        BYTE           N11
        BYTE   W12
        BYTE           N04     Bn0
        BYTE   W06
        BYTE                   En1
        BYTE   W06
        BYTE                   Bn0
        BYTE   W06
        BYTE           N11     Fn0
        BYTE   W12
        BYTE                   Fn0
        BYTE   W12
        BYTE                   Fn1
        BYTE   W12
        BYTE           N04     Fn0
        BYTE   W06
        BYTE           N11     Cs1
        BYTE   W12
        BYTE           N04     Fn1
        BYTE   W05
// 036   ----------------------------------------
        BYTE   W01
        BYTE                   Fn0
        BYTE   W06
        BYTE                   Fn1
        BYTE   W06
        BYTE           N11     Dn0
        BYTE   W12
        BYTE           N04
        BYTE   W06
        BYTE                   Dn0
        BYTE   W06
        BYTE                   Dn1
        BYTE   W06
        BYTE           N11     Dn0
        BYTE   W12
        BYTE                   Dn0
        BYTE   W12
        BYTE           N16     Cn1
        BYTE   W06
        BYTE           BEND    c_v+2
        BYTE   W06
        BYTE                   c_v+0
        BYTE   W06
        BYTE           N11     Dn0
        BYTE   W11
// 037   ----------------------------------------
OutofChaos_2_37:
        BYTE   W01
        BYTE           N04     Dn0   v127
        BYTE   W06
        BYTE                   Dn0
        BYTE   W06
        BYTE                   Dn1
        BYTE   W06
        BYTE           N11     Dn0
        BYTE   W12
        BYTE                   Dn0
        BYTE   W12
        BYTE           N16     Cn1
        BYTE   W06
        BYTE           BEND    c_v+2
        BYTE   W06
        BYTE                   c_v+0
        BYTE   W06
        BYTE           N11     Dn0
        BYTE   W12
        BYTE           N04
        BYTE   W06
        BYTE                   Dn0
        BYTE   W06
        BYTE                   Dn1
        BYTE   W06
        BYTE           N11     Dn0
        BYTE   W05
        BYTE   PEND
// 038   ----------------------------------------
OutofChaos_2_38:
        BYTE   W07
        BYTE           N11     Dn0   v127
        BYTE   W12
        BYTE           N16     Cn1
        BYTE   W06
        BYTE           BEND    c_v+2
        BYTE   W06
        BYTE                   c_v+0
        BYTE   W06
        BYTE           N11     Dn0
        BYTE   W12
        BYTE           N04
        BYTE   W06
        BYTE                   Dn0
        BYTE   W06
        BYTE                   Dn1
        BYTE   W06
        BYTE           N11     Dn0
        BYTE   W12
        BYTE                   Dn0
        BYTE   W12
        BYTE           N16     Cn1
        BYTE   W05
        BYTE   PEND
// 039   ----------------------------------------
OutofChaos_2_39:
        BYTE   W01
        BYTE           BEND    c_v+2
        BYTE   W06
        BYTE                   c_v+0
        BYTE   W06
        BYTE           N11     Dn0   v127
        BYTE   W12
        BYTE           N04
        BYTE   W06
        BYTE                   Dn0
        BYTE   W06
        BYTE                   Dn1
        BYTE   W06
        BYTE           N11     Dn0
        BYTE   W12
        BYTE                   Dn0
        BYTE   W12
        BYTE           N16     Cn1
        BYTE   W06
        BYTE           BEND    c_v+2
        BYTE   W06
        BYTE                   c_v+0
        BYTE   W06
        BYTE           N11     Dn0
        BYTE   W11
        BYTE   PEND
// 040   ----------------------------------------
        BYTE   PATT
         POIN2  OutofChaos_2_37
// 041   ----------------------------------------
        BYTE   PATT
         POIN2  OutofChaos_2_38
// 042   ----------------------------------------
        BYTE   PATT
         POIN2  OutofChaos_2_39
// 043   ----------------------------------------
        BYTE   PATT
         POIN2  OutofChaos_2_37
// 044   ----------------------------------------
        BYTE   PATT
         POIN2  OutofChaos_2_38
// 045   ----------------------------------------
        BYTE   PATT
         POIN2  OutofChaos_2_39
// 046   ----------------------------------------
        BYTE   PATT
         POIN2  OutofChaos_2_37
// 047   ----------------------------------------
        BYTE   W07
        BYTE           N11     Dn0   v127
        BYTE   W12
        BYTE           N16     Cn1
        BYTE   W06
        BYTE           BEND    c_v+2
        BYTE   W06
        BYTE                   c_v+0
        BYTE   W06
        BYTE           N11     Dn0
        BYTE   W12
        BYTE           N04
        BYTE   W06
        BYTE                   Dn0
        BYTE   W06
        BYTE                   Dn1
        BYTE   W06
        BYTE           N11     Dn0
        BYTE   W12
        BYTE                   Dn0
        BYTE   W12
        BYTE           N04     Cn1
        BYTE   W04
        BYTE   GoTo
         POIN2  OutofChaos_2_LOOP
        BYTE   FINE

//****************** Track 3 (Midi-Chn.3) ******************//

OutofChaos_3:
        BYTE   KEYSH   OutofChaos_key+0
// 000   ----------------------------------------
OutofChaos_3_LOOP:
        BYTE           VOICE   71
        BYTE           VOL     21
        BYTE   W96
// 001   ----------------------------------------
        BYTE   W96
// 002   ----------------------------------------
        BYTE   W96
// 003   ----------------------------------------
        BYTE   W96
// 004   ----------------------------------------
        BYTE   W96
// 005   ----------------------------------------
        BYTE   W96
// 006   ----------------------------------------
OutofChaos_3_6:
        BYTE   W13
        BYTE           N32     Dn4   v127
        BYTE   W36
        BYTE           N04     Cn4
        BYTE   W06
        BYTE                   Bn3
        BYTE   W06
        BYTE           N56     An3   v127   gtp2
        BYTE   W32
        BYTE   W03
        BYTE   PEND
// 007   ----------------------------------------
OutofChaos_3_7:
        BYTE   W36
        BYTE   W01
        BYTE           N10     Gn3   v127
        BYTE   W12
        BYTE                   An3
        BYTE   W12
        BYTE           N56     Bn3   v127   gtp3
        BYTE   W32
        BYTE   W03
        BYTE   PEND
// 008   ----------------------------------------
OutofChaos_3_8:
        BYTE   W36
        BYTE   W01
        BYTE           N32     En4   v127
        BYTE   W36
        BYTE                   Bn3
        BYTE   W23
        BYTE   PEND
// 009   ----------------------------------------
        BYTE   PATT
         POIN2  OutofChaos_3_6
// 010   ----------------------------------------
OutofChaos_3_10:
        BYTE   W36
        BYTE   W01
        BYTE           N10     Gn3   v127
        BYTE   W12
        BYTE                   An3
        BYTE   W12
        BYTE           N64     Bn3   v127   gtp1
        BYTE   W32
        BYTE   W03
        BYTE   PEND
// 011   ----------------------------------------
OutofChaos_3_11:
        BYTE   W36
        BYTE   W01
        BYTE           N64     An3   v127   gtp1
        BYTE   W56
        BYTE   W03
        BYTE   PEND
// 012   ----------------------------------------
        BYTE   W96
// 013   ----------------------------------------
        BYTE   W96
// 014   ----------------------------------------
        BYTE   W96
// 015   ----------------------------------------
        BYTE   W96
// 016   ----------------------------------------
        BYTE   W96
// 017   ----------------------------------------
        BYTE   W96
// 018   ----------------------------------------
        BYTE   PATT
         POIN2  OutofChaos_3_6
// 019   ----------------------------------------
        BYTE   PATT
         POIN2  OutofChaos_3_7
// 020   ----------------------------------------
        BYTE   PATT
         POIN2  OutofChaos_3_8
// 021   ----------------------------------------
        BYTE   PATT
         POIN2  OutofChaos_3_6
// 022   ----------------------------------------
        BYTE   PATT
         POIN2  OutofChaos_3_10
// 023   ----------------------------------------
        BYTE   PATT
         POIN2  OutofChaos_3_11
// 024   ----------------------------------------
        BYTE   W96
// 025   ----------------------------------------
        BYTE   W96
// 026   ----------------------------------------
        BYTE   W96
// 027   ----------------------------------------
        BYTE   W96
// 028   ----------------------------------------
        BYTE   W96
// 029   ----------------------------------------
        BYTE   W96
// 030   ----------------------------------------
        BYTE   W13
        BYTE           N32     Cs4   v111
        BYTE   W36
        BYTE           N04     Bn3
        BYTE   W06
        BYTE                   Cs4
        BYTE   W06
        BYTE           N16     Dn4
        BYTE   W24
        BYTE           N32     Fn4
        BYTE   W11
// 031   ----------------------------------------
        BYTE   W24
        BYTE   W01
        BYTE                   Cs4
        BYTE   W36
        BYTE           N16     Fs4
        BYTE   W18
        BYTE                   Fn4
        BYTE   W17
// 032   ----------------------------------------
        BYTE   W01
        BYTE           N10     Fs4
        BYTE   W12
        BYTE           N16     Gs4
        BYTE   W24
        BYTE           N04     An4
        BYTE   W06
        BYTE                   Gs4
        BYTE   W06
        BYTE                   Fs4
        BYTE   W06
        BYTE                   Gs4
        BYTE   W06
        BYTE                   Fn4
        BYTE   W06
        BYTE                   Gs4
        BYTE   W06
        BYTE                   Cs4
        BYTE   W06
        BYTE                   Gs4
        BYTE   W06
        BYTE                   Fs4
        BYTE   W06
        BYTE                   Fn4
        BYTE   W05
// 033   ----------------------------------------
        BYTE   W01
        BYTE                   Fs4
        BYTE   W06
        BYTE                   Gs4
        BYTE   W06
        BYTE           N16     An4
        BYTE   W18
        BYTE                   Gs4
        BYTE   W18
        BYTE           N07     En4
        BYTE   W12
        BYTE           N19     Fs4
        BYTE   W24
        BYTE           N16     An4
        BYTE   W11
// 034   ----------------------------------------
        BYTE   W07
        BYTE                   Gs4
        BYTE   W18
        BYTE           N10     An4
        BYTE   W12
        BYTE           N22     Bn4
        BYTE   W24
        BYTE           N16     An4
        BYTE   W18
        BYTE                   Gs4
        BYTE   W17
// 035   ----------------------------------------
        BYTE   W01
        BYTE           N07     An4
        BYTE   W12
        BYTE           N19     Bn4
        BYTE   W24
        BYTE                   Gs4
        BYTE   W24
        BYTE           N16     Fs4
        BYTE   W18
        BYTE                   Fn4
        BYTE   W17
// 036   ----------------------------------------
        BYTE   W01
        BYTE           N10     Cs4
        BYTE   W92
        BYTE   W03
// 037   ----------------------------------------
        BYTE   W96
// 038   ----------------------------------------
        BYTE   W96
// 039   ----------------------------------------
        BYTE   W96
// 040   ----------------------------------------
        BYTE   W96
// 041   ----------------------------------------
        BYTE   W96
// 042   ----------------------------------------
        BYTE   W96
// 043   ----------------------------------------
        BYTE   W96
// 044   ----------------------------------------
        BYTE   W96
// 045   ----------------------------------------
        BYTE   W96
// 046   ----------------------------------------
        BYTE   W96
// 047   ----------------------------------------
        BYTE   W92
        BYTE   W03
        BYTE   GoTo
         POIN2  OutofChaos_3_LOOP
        BYTE   FINE

//****************** Track 4 (Midi-Chn.4) ******************//

OutofChaos_4:
        BYTE   KEYSH   OutofChaos_key+0
// 000   ----------------------------------------
OutofChaos_4_LOOP:
        BYTE           VOICE   62
        BYTE           PAN     c_v+10
        BYTE           VOL     18
        BYTE           MOD     16
        BYTE   W96
// 001   ----------------------------------------
        BYTE   W96
// 002   ----------------------------------------
        BYTE   W96
// 003   ----------------------------------------
        BYTE   W96
// 004   ----------------------------------------
        BYTE   W96
// 005   ----------------------------------------
        BYTE   W96
// 006   ----------------------------------------
        BYTE   W96
// 007   ----------------------------------------
        BYTE   W96
// 008   ----------------------------------------
        BYTE   W96
// 009   ----------------------------------------
        BYTE   W96
// 010   ----------------------------------------
        BYTE   W96
// 011   ----------------------------------------
        BYTE   W96
// 012   ----------------------------------------
        BYTE   W96
// 013   ----------------------------------------
        BYTE   W96
// 014   ----------------------------------------
        BYTE   W96
// 015   ----------------------------------------
        BYTE   W96
// 016   ----------------------------------------
        BYTE   W96
// 017   ----------------------------------------
        BYTE   W96
// 018   ----------------------------------------
        BYTE   W96
// 019   ----------------------------------------
        BYTE   W96
// 020   ----------------------------------------
        BYTE   W96
// 021   ----------------------------------------
        BYTE   W96
// 022   ----------------------------------------
        BYTE   W96
// 023   ----------------------------------------
        BYTE   W96
// 024   ----------------------------------------
        BYTE   W13
        BYTE           N16     Fs3   v127
        BYTE           N16     An3
        BYTE   W18
        BYTE           N15     Fn3
        BYTE           N15     Gs3
        BYTE   W18
        BYTE           N11     Fs3
        BYTE           N11     An3
        BYTE   W12
        BYTE           N22     Gs3
        BYTE           N22     Bn3
        BYTE   W24
        BYTE                   An3
        BYTE           N22     Cs4
        BYTE   W11
// 025   ----------------------------------------
OutofChaos_4_25:
        BYTE   W13
        BYTE           N16     Bn3   v127
        BYTE           N16     Dn4
        BYTE   W18
        BYTE                   An3
        BYTE           N16     Cs4
        BYTE   W18
        BYTE           N10     Gs3
        BYTE           N10     Bn3
        BYTE   W12
        BYTE           N16     Fs3
        BYTE           N16     An3
        BYTE   W18
        BYTE           N15     Gs3
        BYTE           N15     Bn3
        BYTE   W17
        BYTE   PEND
// 026   ----------------------------------------
        BYTE   W01
        BYTE           N11     An3
        BYTE           N11     Cs4
        BYTE   W12
        BYTE           N22     Bn3
        BYTE           N22     Dn4
        BYTE   W24
        BYTE           N40     Cs4
        BYTE           N22     Fn4
        BYTE   W24
        BYTE           N16     Fs4
        BYTE   W18
        BYTE                   Cs4
        BYTE           N16     Fn4
        BYTE   W17
// 027   ----------------------------------------
        BYTE   W01
        BYTE           N10     An3
        BYTE           N10     Cs4
        BYTE   W12
        BYTE           N16     Fs3
        BYTE           N16     An3
        BYTE   W18
        BYTE           N15     Fn3
        BYTE           N15     Gs3
        BYTE   W18
        BYTE           N11     Fs3
        BYTE           N11     An3
        BYTE   W12
        BYTE           N22     Gs3
        BYTE           N22     Bn3
        BYTE   W24
        BYTE                   An3
        BYTE           N22     Cs4
        BYTE   W11
// 028   ----------------------------------------
        BYTE   PATT
         POIN2  OutofChaos_4_25
// 029   ----------------------------------------
        BYTE   W01
        BYTE           N11     An3   v127
        BYTE           N11     Cs4
        BYTE   W12
        BYTE           N22     Bn3
        BYTE           N22     Dn4
        BYTE   W24
        BYTE                   Cs4
        BYTE           N24     Fn4
        BYTE   W24
        BYTE           N16     Fs4
        BYTE           N16     An4
        BYTE   W18
        BYTE                   Fn4
        BYTE           N16     Gs4
        BYTE   W17
// 030   ----------------------------------------
        BYTE   W01
        BYTE           N10     Cs4
        BYTE           N10     Fn4
        BYTE   W12
        BYTE           N16     Fs3   v095
        BYTE           N16     An3
        BYTE   W18
        BYTE           N15     Fn3
        BYTE           N15     Gs3
        BYTE   W18
        BYTE           N11     Fs3
        BYTE           N11     An3
        BYTE   W12
        BYTE           N22     Gs3
        BYTE           N22     Bn3
        BYTE   W24
        BYTE                   An3
        BYTE           N22     Cs4
        BYTE   W11
// 031   ----------------------------------------
OutofChaos_4_31:
        BYTE   W13
        BYTE           N16     Bn3   v095
        BYTE           N16     Dn4
        BYTE   W18
        BYTE                   An3
        BYTE           N16     Cs4
        BYTE   W18
        BYTE           N10     Gs3
        BYTE           N10     Bn3
        BYTE   W12
        BYTE           N16     Fs3
        BYTE           N16     An3
        BYTE   W18
        BYTE           N15     Gs3
        BYTE           N15     Bn3
        BYTE   W17
        BYTE   PEND
// 032   ----------------------------------------
        BYTE   W01
        BYTE           N11     An3
        BYTE           N11     Cs4
        BYTE   W12
        BYTE           N22     Bn3
        BYTE           N22     Dn4
        BYTE   W24
        BYTE           N40     Cs4
        BYTE           N22     Fn4
        BYTE   W24
        BYTE           N16     Fs4
        BYTE   W18
        BYTE                   Cs4
        BYTE           N16     Fn4
        BYTE   W17
// 033   ----------------------------------------
        BYTE   W01
        BYTE           N10     An3
        BYTE           N10     Cs4
        BYTE   W12
        BYTE           N16     Fs3
        BYTE           N16     An3
        BYTE   W18
        BYTE           N15     Fn3
        BYTE           N15     Gs3
        BYTE   W18
        BYTE           N11     Fs3
        BYTE           N11     An3
        BYTE   W12
        BYTE           N22     Gs3
        BYTE           N22     Bn3
        BYTE   W24
        BYTE                   An3
        BYTE           N22     Cs4
        BYTE   W11
// 034   ----------------------------------------
        BYTE   PATT
         POIN2  OutofChaos_4_31
// 035   ----------------------------------------
        BYTE   W01
        BYTE           N11     An3   v095
        BYTE           N11     Cs4
        BYTE   W12
        BYTE           N22     Bn3
        BYTE           N22     Dn4
        BYTE   W24
        BYTE                   Cs4
        BYTE           N24     Fn4
        BYTE   W24
        BYTE           N16     Fs4
        BYTE           N16     An4
        BYTE   W18
        BYTE                   Fn4
        BYTE           N16     Gs4
        BYTE   W17
// 036   ----------------------------------------
        BYTE   W01
        BYTE           N10     Cs4
        BYTE           N10     Fn4
        BYTE   W12
        BYTE           N68     Dn3   v111   gtp2
        BYTE                   An3
        BYTE   W72
        BYTE                   Dn3
        BYTE           N68     As3   v111   gtp2
        BYTE   W11
// 037   ----------------------------------------
OutofChaos_4_37:
        BYTE   W60
        BYTE   W01
        BYTE           N68     Dn3   v111   gtp2
        BYTE                   An3
        BYTE   W32
        BYTE   W03
        BYTE   PEND
// 038   ----------------------------------------
OutofChaos_4_38:
        BYTE   W36
        BYTE   W01
        BYTE           N68     Dn3   v111   gtp2
        BYTE                   Gn3
        BYTE   W56
        BYTE   W03
        BYTE   PEND
// 039   ----------------------------------------
OutofChaos_4_39:
        BYTE   W13
        BYTE           N68     Dn3   v111   gtp2
        BYTE                   As3
        BYTE   W72
        BYTE                   Dn3
        BYTE           N68     An3   v111   gtp2
        BYTE   W11
        BYTE   PEND
// 040   ----------------------------------------
OutofChaos_4_40:
        BYTE   W60
        BYTE   W01
        BYTE           N68     Dn3   v111   gtp2
        BYTE                   As3
        BYTE   W32
        BYTE   W03
        BYTE   PEND
// 041   ----------------------------------------
        BYTE   W36
        BYTE   W01
        BYTE                   Dn3
        BYTE           N68     Bn3   v111   gtp2
        BYTE   W56
        BYTE   W03
// 042   ----------------------------------------
        BYTE   W13
        BYTE                   Dn3
        BYTE           N68     An3   v111   gtp2
        BYTE   W72
        BYTE                   Dn3
        BYTE           N68     As3   v111   gtp2
        BYTE   W11
// 043   ----------------------------------------
        BYTE   PATT
         POIN2  OutofChaos_4_37
// 044   ----------------------------------------
        BYTE   PATT
         POIN2  OutofChaos_4_38
// 045   ----------------------------------------
        BYTE   PATT
         POIN2  OutofChaos_4_39
// 046   ----------------------------------------
        BYTE   PATT
         POIN2  OutofChaos_4_40
// 047   ----------------------------------------
        BYTE   W36
        BYTE   W01
        BYTE           N56     Dn3   v111   gtp2
        BYTE                   Bn3
        BYTE   W56
        BYTE   W02
        BYTE   GoTo
         POIN2  OutofChaos_4_LOOP
        BYTE   FINE

//****************** Track 5 (Midi-Chn.5) ******************//

OutofChaos_5:
        BYTE   KEYSH   OutofChaos_key+0
// 000   ----------------------------------------
OutofChaos_5_LOOP:
        BYTE           VOICE   81
        BYTE           PAN     c_v+10
        BYTE           VOL     21
        BYTE   W13
        BYTE           N03     Bn3   v091
        BYTE           N03     En4
        BYTE   W06
        BYTE                   Dn4
        BYTE           N03     Fs4
        BYTE   W12
        BYTE                   En4
        BYTE           N03     Gn4
        BYTE   W12
        BYTE                   Bn3
        BYTE           N03     En4
        BYTE   W06
        BYTE                   Gn4
        BYTE           N03     Bn4
        BYTE   W12
        BYTE                   Bn3
        BYTE           N03     En4
        BYTE   W12
        BYTE                   En4
        BYTE           N03     Gn4
        BYTE   W12
        BYTE                   Bn3
        BYTE           N03     En4
        BYTE   W06
        BYTE                   Dn4
        BYTE           N03     Fs4
        BYTE   W05
// 001   ----------------------------------------
OutofChaos_5_1:
        BYTE   W07
        BYTE           N03     En4   v091
        BYTE           N03     Gn4
        BYTE   W12
        BYTE                   Bn3
        BYTE           N03     En4
        BYTE   W06
        BYTE                   Gn4
        BYTE           N03     Bn4
        BYTE   W12
        BYTE                   En4
        BYTE           N03     Gn4
        BYTE   W12
        BYTE                   Fs4
        BYTE           N03     An4
        BYTE   W12
        BYTE                   Bn3
        BYTE           N03     En4
        BYTE   W06
        BYTE                   Dn4
        BYTE           N03     Fs4
        BYTE   W12
        BYTE                   En4
        BYTE           N03     Gn4
        BYTE   W12
        BYTE                   Bn3
        BYTE           N03     En4
        BYTE   W05
        BYTE   PEND
// 002   ----------------------------------------
OutofChaos_5_2:
        BYTE   W01
        BYTE           N03     Gn4   v091
        BYTE           N03     Bn4
        BYTE   W12
        BYTE                   Bn3
        BYTE           N03     En4
        BYTE   W12
        BYTE                   En4
        BYTE           N03     Gn4
        BYTE   W12
        BYTE                   Bn3
        BYTE           N03     En4
        BYTE   W06
        BYTE                   Dn4
        BYTE           N03     Fs4
        BYTE   W12
        BYTE                   En4
        BYTE           N03     Gn4
        BYTE   W12
        BYTE                   Bn3
        BYTE           N03     En4
        BYTE   W06
        BYTE                   Gn4
        BYTE           N03     Bn4
        BYTE   W12
        BYTE                   Fs4
        BYTE           N03     An4
        BYTE   W11
        BYTE   PEND
// 003   ----------------------------------------
OutofChaos_5_3:
        BYTE   W01
        BYTE           N03     Dn4   v091
        BYTE           N03     Fs4
        BYTE   W12
        BYTE                   Bn3
        BYTE           N03     En4
        BYTE   W06
        BYTE                   Dn4
        BYTE           N03     Fs4
        BYTE   W12
        BYTE                   En4
        BYTE           N03     Gn4
        BYTE   W12
        BYTE                   Bn3
        BYTE           N03     En4
        BYTE   W06
        BYTE                   Gn4
        BYTE           N03     Bn4
        BYTE   W12
        BYTE                   Bn3
        BYTE           N03     En4
        BYTE   W12
        BYTE                   En4
        BYTE           N03     Gn4
        BYTE   W12
        BYTE                   Bn3
        BYTE           N03     En4
        BYTE   W06
        BYTE                   Dn4
        BYTE           N03     Fs4
        BYTE   W05
        BYTE   PEND
// 004   ----------------------------------------
OutofChaos_5_4:
        BYTE   W07
        BYTE           N03     En4   v091
        BYTE           N03     Gn4
        BYTE   W12
        BYTE                   Bn3
        BYTE           N03     En4
        BYTE   W06
        BYTE                   Gn4
        BYTE           N03     Bn4
        BYTE   W12
        BYTE                   En4
        BYTE           N03     Gn4
        BYTE   W12
        BYTE                   Fs4
        BYTE           N03     An4
        BYTE   W12
        BYTE                   An3
        BYTE           N03     Cs4
        BYTE   W06
        BYTE                   Bn3
        BYTE           N03     Dn4
        BYTE   W12
        BYTE                   Cs4
        BYTE           N03     En4
        BYTE   W12
        BYTE                   An3
        BYTE           N03     Cs4
        BYTE   W05
        BYTE   PEND
// 005   ----------------------------------------
OutofChaos_5_5:
        BYTE   W01
        BYTE           N03     En4   v091
        BYTE           N03     An4
        BYTE   W12
        BYTE                   Cs4
        BYTE           N03     En4
        BYTE   W12
        BYTE                   En4
        BYTE           N03     An4
        BYTE   W12
        BYTE                   En4
        BYTE           N03     Gn4
        BYTE   W06
        BYTE                   Fs4
        BYTE           N03     An4
        BYTE   W12
        BYTE                   Gn4
        BYTE           N03     Bn4
        BYTE   W12
        BYTE                   En4
        BYTE           N03     Gn4
        BYTE   W06
        BYTE                   Bn4
        BYTE           N03     En5
        BYTE   W12
        BYTE                   Gn4
        BYTE           N03     Bn4
        BYTE   W11
        BYTE   PEND
// 006   ----------------------------------------
OutofChaos_5_6:
        BYTE   W01
        BYTE           N03     Bn4   v091
        BYTE           N03     En5
        BYTE   W92
        BYTE   W03
        BYTE   PEND
// 007   ----------------------------------------
        BYTE   W96
// 008   ----------------------------------------
        BYTE   W96
// 009   ----------------------------------------
        BYTE   W96
// 010   ----------------------------------------
        BYTE   W96
// 011   ----------------------------------------
        BYTE   W96
// 012   ----------------------------------------
        BYTE   W13
        BYTE                   Bn3
        BYTE           N03     En4
        BYTE   W06
        BYTE                   Dn4
        BYTE           N03     Fs4
        BYTE   W12
        BYTE                   En4
        BYTE           N03     Gn4
        BYTE   W12
        BYTE                   Bn3
        BYTE           N03     En4
        BYTE   W06
        BYTE                   Gn4
        BYTE           N03     Bn4
        BYTE   W12
        BYTE                   Bn3
        BYTE           N03     En4
        BYTE   W12
        BYTE                   En4
        BYTE           N03     Gn4
        BYTE   W12
        BYTE                   Bn3
        BYTE           N03     En4
        BYTE   W06
        BYTE                   Dn4
        BYTE           N03     Fs4
        BYTE   W05
// 013   ----------------------------------------
        BYTE   PATT
         POIN2  OutofChaos_5_1
// 014   ----------------------------------------
        BYTE   PATT
         POIN2  OutofChaos_5_2
// 015   ----------------------------------------
        BYTE   PATT
         POIN2  OutofChaos_5_3
// 016   ----------------------------------------
        BYTE   PATT
         POIN2  OutofChaos_5_4
// 017   ----------------------------------------
        BYTE   PATT
         POIN2  OutofChaos_5_5
// 018   ----------------------------------------
        BYTE   PATT
         POIN2  OutofChaos_5_6
// 019   ----------------------------------------
        BYTE   W96
// 020   ----------------------------------------
        BYTE   W96
// 021   ----------------------------------------
        BYTE   W96
// 022   ----------------------------------------
        BYTE   W96
// 023   ----------------------------------------
        BYTE   W96
// 024   ----------------------------------------
        BYTE   W96
// 025   ----------------------------------------
        BYTE   W96
// 026   ----------------------------------------
        BYTE   W96
// 027   ----------------------------------------
        BYTE   W96
// 028   ----------------------------------------
        BYTE   W96
// 029   ----------------------------------------
        BYTE   W96
// 030   ----------------------------------------
        BYTE   W96
// 031   ----------------------------------------
        BYTE   W96
// 032   ----------------------------------------
        BYTE   W96
// 033   ----------------------------------------
        BYTE   W96
// 034   ----------------------------------------
        BYTE   W96
// 035   ----------------------------------------
        BYTE   W96
// 036   ----------------------------------------
        BYTE   W96
// 037   ----------------------------------------
        BYTE   W96
// 038   ----------------------------------------
        BYTE   W96
// 039   ----------------------------------------
        BYTE   W96
// 040   ----------------------------------------
        BYTE   W96
// 041   ----------------------------------------
        BYTE   W96
// 042   ----------------------------------------
        BYTE   W13
        BYTE           N04     Dn3   v091
        BYTE   W06
        BYTE                   Dn4
        BYTE   W06
        BYTE                   Dn5
        BYTE   W06
        BYTE                   Dn4
        BYTE   W06
        BYTE                   Dn3
        BYTE   W06
        BYTE                   Dn4
        BYTE   W06
        BYTE                   Dn5
        BYTE   W06
        BYTE                   Dn4
        BYTE   W06
        BYTE                   Dn3
        BYTE   W06
        BYTE                   Dn4
        BYTE   W06
        BYTE                   Dn5
        BYTE   W06
        BYTE                   Dn4
        BYTE   W06
        BYTE                   Dn3
        BYTE   W06
        BYTE                   Dn4
        BYTE   W05
// 043   ----------------------------------------
OutofChaos_5_43:
        BYTE   W01
        BYTE           N04     Dn5   v091
        BYTE   W06
        BYTE                   Dn4
        BYTE   W06
        BYTE                   Dn3
        BYTE   W06
        BYTE                   Dn4
        BYTE   W06
        BYTE                   Dn5
        BYTE   W06
        BYTE                   Dn4
        BYTE   W06
        BYTE                   Dn3
        BYTE   W06
        BYTE                   Dn4
        BYTE   W06
        BYTE                   Dn5
        BYTE   W06
        BYTE                   Dn4
        BYTE   W06
        BYTE                   Dn3
        BYTE   W06
        BYTE                   Dn4
        BYTE   W06
        BYTE                   Dn5
        BYTE   W06
        BYTE                   Dn4
        BYTE   W06
        BYTE                   Dn3
        BYTE   W06
        BYTE                   Dn4
        BYTE   W05
        BYTE   PEND
// 044   ----------------------------------------
        BYTE   PATT
         POIN2  OutofChaos_5_43
// 045   ----------------------------------------
        BYTE   PATT
         POIN2  OutofChaos_5_43
// 046   ----------------------------------------
        BYTE   PATT
         POIN2  OutofChaos_5_43
// 047   ----------------------------------------
        BYTE   W01
        BYTE           N04     Dn5   v091
        BYTE   W06
        BYTE                   Dn4
        BYTE   W06
        BYTE                   Dn3
        BYTE   W06
        BYTE                   Dn4
        BYTE   W06
        BYTE                   Dn5
        BYTE   W06
        BYTE                   Dn4
        BYTE   W06
        BYTE                   Dn3
        BYTE   W06
        BYTE                   Dn4
        BYTE   W06
        BYTE                   Dn5
        BYTE   W06
        BYTE                   Dn4
        BYTE   W06
        BYTE                   Dn3
        BYTE   W06
        BYTE                   Dn4
        BYTE   W06
        BYTE                   Dn5
        BYTE   W06
        BYTE                   Dn4
        BYTE   W06
        BYTE                   Dn3
        BYTE   W06
        BYTE                   Dn4
        BYTE   W04
        BYTE   GoTo
         POIN2  OutofChaos_5_LOOP
        BYTE   FINE

//****************** Track 6 (Midi-Chn.6) ******************//

OutofChaos_6:
        BYTE   KEYSH   OutofChaos_key+0
// 000   ----------------------------------------
OutofChaos_6_LOOP:
        BYTE           VOICE   14
        BYTE           VOL     26
        BYTE   W96
// 001   ----------------------------------------
        BYTE   W96
// 002   ----------------------------------------
        BYTE   W96
// 003   ----------------------------------------
        BYTE   W96
// 004   ----------------------------------------
        BYTE   W96
// 005   ----------------------------------------
        BYTE   W96
// 006   ----------------------------------------
        BYTE   W96
// 007   ----------------------------------------
        BYTE   W96
// 008   ----------------------------------------
        BYTE   W96
// 009   ----------------------------------------
        BYTE   W96
// 010   ----------------------------------------
        BYTE   W96
// 011   ----------------------------------------
        BYTE   W96
// 012   ----------------------------------------
        BYTE   W96
// 013   ----------------------------------------
        BYTE   W96
// 014   ----------------------------------------
        BYTE   W96
// 015   ----------------------------------------
        BYTE   W96
// 016   ----------------------------------------
        BYTE   W96
// 017   ----------------------------------------
        BYTE   W96
// 018   ----------------------------------------
        BYTE   W96
// 019   ----------------------------------------
        BYTE   W96
// 020   ----------------------------------------
        BYTE   W96
// 021   ----------------------------------------
        BYTE   W96
// 022   ----------------------------------------
        BYTE   W96
// 023   ----------------------------------------
        BYTE   W96
// 024   ----------------------------------------
        BYTE   W96
// 025   ----------------------------------------
        BYTE   W96
// 026   ----------------------------------------
        BYTE   W96
// 027   ----------------------------------------
        BYTE   W96
// 028   ----------------------------------------
        BYTE   W96
// 029   ----------------------------------------
        BYTE   W96
// 030   ----------------------------------------
        BYTE   W96
// 031   ----------------------------------------
        BYTE   W96
// 032   ----------------------------------------
        BYTE   W96
// 033   ----------------------------------------
        BYTE   W96
// 034   ----------------------------------------
        BYTE   W96
// 035   ----------------------------------------
        BYTE   W96
// 036   ----------------------------------------
OutofChaos_6_36:
        BYTE   W13
        BYTE           N68     Dn3   v127   gtp2
        BYTE                   Dn4
        BYTE   W80
        BYTE   W03
        BYTE   PEND
// 037   ----------------------------------------
        BYTE   W96
// 038   ----------------------------------------
        BYTE   W96
// 039   ----------------------------------------
        BYTE   PATT
         POIN2  OutofChaos_6_36
// 040   ----------------------------------------
        BYTE   W96
// 041   ----------------------------------------
        BYTE   W96
// 042   ----------------------------------------
        BYTE   PATT
         POIN2  OutofChaos_6_36
// 043   ----------------------------------------
        BYTE   W96
// 044   ----------------------------------------
        BYTE   W96
// 045   ----------------------------------------
        BYTE   PATT
         POIN2  OutofChaos_6_36
// 046   ----------------------------------------
        BYTE   W96
// 047   ----------------------------------------
        BYTE   W92
        BYTE   W03
        BYTE   GoTo
         POIN2  OutofChaos_6_LOOP
        BYTE   FINE

//****************** Track 7 (Midi-Chn.7) ******************//

OutofChaos_7:
        BYTE   KEYSH   OutofChaos_key+0
// 000   ----------------------------------------
OutofChaos_7_LOOP:
        BYTE           VOICE   124
        BYTE           VOL     25
        BYTE   W12
        BYTE           N05     Cn1   v116
        BYTE           N17     As1   v072
        BYTE   W01
        BYTE           N68     Cs2   v085   gtp2
        BYTE   W05
        BYTE           N05     Dn1   v033
        BYTE   W06
        BYTE                   Cn1   v072
        BYTE   W09
        BYTE           N01     Cn1   v059
        BYTE   W01
        BYTE                   Cn1
        BYTE   W02
        BYTE           N05     Dn1   v127
        BYTE           N17     As1   v072
        BYTE   W06
        BYTE           N05     Cn1   v085
        BYTE   W12
        BYTE                   Cn1   v116
        BYTE   W06
        BYTE           N17     As1   v072
        BYTE   W06
        BYTE           N05     Dn1   v095
        BYTE   W06
        BYTE                   Cn1   v085
        BYTE   W06
        BYTE                   Cn1
        BYTE   W06
        BYTE                   Cn1   v116
        BYTE           N17     As1   v072
        BYTE   W06
        BYTE           N05     Dn1   v033
        BYTE   W06
// 001   ----------------------------------------
OutofChaos_7_1:
        BYTE           N05     Cn1   v072
        BYTE   W09
        BYTE           N01     Cn1   v059
        BYTE   W01
        BYTE                   Cn1
        BYTE   W02
        BYTE           N05     Dn1   v127
        BYTE           N17     As1   v072
        BYTE   W06
        BYTE           N05     Cn1   v085
        BYTE   W12
        BYTE                   Cn1   v116
        BYTE   W06
        BYTE           N17     As1   v072
        BYTE   W06
        BYTE           N05     Dn1   v095
        BYTE   W06
        BYTE                   Cn1   v085
        BYTE   W06
        BYTE                   Cn1
        BYTE   W06
        BYTE                   Cn1   v116
        BYTE           N05     As1   v072
        BYTE   W06
        BYTE                   Cn1   v116
        BYTE           N05     As1   v072
        BYTE   W06
        BYTE                   Cn1   v116
        BYTE           N17     As1   v072
        BYTE   W06
        BYTE           N05     Dn1   v033
        BYTE   W06
        BYTE                   Cn1   v072
        BYTE   W09
        BYTE           N01     Cn1   v059
        BYTE   W01
        BYTE                   Cn1
        BYTE   W02
        BYTE   PEND
// 002   ----------------------------------------
OutofChaos_7_2:
        BYTE           N05     Dn1   v127
        BYTE           N17     As1   v072
        BYTE   W06
        BYTE           N05     Cn1   v085
        BYTE   W12
        BYTE                   Cn1   v116
        BYTE   W06
        BYTE           N11     As1   v072
        BYTE   W06
        BYTE           N05     Dn1   v095
        BYTE   W06
        BYTE                   Cn1   v116
        BYTE           N17     As1   v072
        BYTE   W06
        BYTE           N05     Dn1   v033
        BYTE   W06
        BYTE                   Cn1   v072
        BYTE   W09
        BYTE           N01     Cn1   v059
        BYTE   W01
        BYTE                   Cn1
        BYTE   W02
        BYTE           N05     Dn1   v127
        BYTE           N17     As1   v072
        BYTE   W06
        BYTE           N05     Cn1   v085
        BYTE   W12
        BYTE                   Cn1   v116
        BYTE   W06
        BYTE           N17     As1   v072
        BYTE   W06
        BYTE           N05     Dn1   v095
        BYTE   W06
        BYTE   PEND
// 003   ----------------------------------------
OutofChaos_7_3:
        BYTE           N05     Cn1   v085
        BYTE   W06
        BYTE                   Cn1
        BYTE   W06
        BYTE                   Cn1   v116
        BYTE           N17     As1   v072
        BYTE   W06
        BYTE           N05     Dn1   v033
        BYTE   W06
        BYTE                   Cn1   v072
        BYTE   W09
        BYTE           N01     Cn1   v059
        BYTE   W01
        BYTE                   Cn1
        BYTE   W02
        BYTE           N05     Dn1   v127
        BYTE           N17     As1   v072
        BYTE   W06
        BYTE           N05     Cn1   v085
        BYTE   W12
        BYTE                   Cn1   v116
        BYTE   W06
        BYTE           N17     As1   v072
        BYTE   W06
        BYTE           N05     Dn1   v095
        BYTE   W06
        BYTE                   Cn1   v085
        BYTE   W06
        BYTE                   Cn1
        BYTE   W06
        BYTE                   Cn1   v116
        BYTE           N17     As1   v072
        BYTE   W06
        BYTE           N05     Dn1   v033
        BYTE   W06
        BYTE   PEND
// 004   ----------------------------------------
        BYTE   PATT
         POIN2  OutofChaos_7_1
// 005   ----------------------------------------
OutofChaos_7_5:
        BYTE           N05     Dn1   v127
        BYTE           N17     As1   v072
        BYTE   W06
        BYTE           N05     Cn1   v085
        BYTE   W12
        BYTE                   Cn1   v116
        BYTE   W06
        BYTE           N11     As1   v072
        BYTE   W06
        BYTE           N05     Dn1   v095
        BYTE   W06
        BYTE                   Cn1   v116
        BYTE           N11     As1   v072
        BYTE   W06
        BYTE           N05     Dn1   v033
        BYTE   W06
        BYTE                   Cn1   v116
        BYTE           N17     As1   v072
        BYTE   W06
        BYTE           N05     Dn1   v033
        BYTE   W06
        BYTE                   Cn1   v072
        BYTE   W09
        BYTE           N01     Cn1   v059
        BYTE   W01
        BYTE                   Cn1
        BYTE   W02
        BYTE           N05     Dn1   v127
        BYTE           N17     As1   v072
        BYTE   W06
        BYTE           N05     Cn1   v085
        BYTE   W12
        BYTE                   Cn1   v116
        BYTE   W06
        BYTE   PEND
// 006   ----------------------------------------
OutofChaos_7_6:
        BYTE           N11     As1   v072
        BYTE   W06
        BYTE           N05     Dn1   v095
        BYTE   W06
        BYTE                   Cn1   v116
        BYTE           N11     As1   v072
        BYTE   W01
        BYTE           N68     Cs2   v085   gtp2
        BYTE   W05
        BYTE           N05     Dn1   v033
        BYTE   W06
        BYTE                   Cn1   v116
        BYTE           N17     As1   v072
        BYTE   W06
        BYTE           N05     Dn1   v033
        BYTE   W06
        BYTE                   Cn1   v072
        BYTE   W09
        BYTE           N01     Cn1   v059
        BYTE   W01
        BYTE                   Cn1
        BYTE   W02
        BYTE           N05     Dn1   v127
        BYTE           N17     As1   v072
        BYTE   W06
        BYTE           N05     Cn1   v085
        BYTE   W12
        BYTE                   Cn1   v116
        BYTE   W06
        BYTE           N11     As1   v072
        BYTE   W06
        BYTE           N05     Dn1   v095
        BYTE   W06
        BYTE                   Cn1   v116
        BYTE           N17     As1   v072
        BYTE   W06
        BYTE           N05     Dn1   v033
        BYTE   W06
        BYTE   PEND
// 007   ----------------------------------------
OutofChaos_7_7:
        BYTE           N05     Cn1   v072
        BYTE   W09
        BYTE           N01     Cn1   v059
        BYTE   W01
        BYTE                   Cn1
        BYTE   W02
        BYTE           N05     Dn1   v127
        BYTE           N17     As1   v072
        BYTE   W06
        BYTE           N05     Cn1   v085
        BYTE   W12
        BYTE                   Cn1   v116
        BYTE   W06
        BYTE           N17     As1   v072
        BYTE   W06
        BYTE           N05     Dn1   v095
        BYTE   W06
        BYTE                   Cn1   v085
        BYTE   W06
        BYTE                   Cn1
        BYTE   W06
        BYTE                   Cn1   v116
        BYTE           N17     As1   v072
        BYTE   W06
        BYTE           N05     Dn1   v033
        BYTE   W06
        BYTE                   Cn1   v072
        BYTE   W09
        BYTE           N01     Cn1   v059
        BYTE   W01
        BYTE                   Cn1
        BYTE   W02
        BYTE           N05     Dn1   v127
        BYTE           N17     As1   v072
        BYTE   W06
        BYTE           N05     Cn1   v085
        BYTE   W06
        BYTE   PEND
// 008   ----------------------------------------
        BYTE   W06
        BYTE                   Cn1   v116
        BYTE   W06
        BYTE           N17     As1   v072
        BYTE   W06
        BYTE           N05     Dn1   v095
        BYTE   W06
        BYTE                   Cn1   v085
        BYTE   W06
        BYTE                   Cn1
        BYTE   W06
        BYTE                   Cn1   v116
        BYTE           N05     As1   v072
        BYTE   W06
        BYTE                   Cn1   v116
        BYTE           N05     As1   v072
        BYTE   W06
        BYTE                   Cn1   v116
        BYTE           N05     As1   v072
        BYTE   W06
        BYTE                   Cn1   v116
        BYTE           N17     As1   v072
        BYTE   W06
        BYTE           N05     Dn1   v033
        BYTE   W06
        BYTE                   Cn1   v072
        BYTE   W09
        BYTE           N01     Cn1   v059
        BYTE   W01
        BYTE                   Cn1
        BYTE   W02
        BYTE           N05     Dn1   v127
        BYTE           N17     As1   v072
        BYTE   W06
        BYTE           N05     Cn1   v085
        BYTE   W12
// 009   ----------------------------------------
        BYTE                   Cn1   v116
        BYTE   W06
        BYTE                   As1   v072
        BYTE   W06
        BYTE                   Cn1   v116
        BYTE           N11     As1   v072
        BYTE   W01
        BYTE           N68     Cs2   v085   gtp2
        BYTE   W05
        BYTE           N05     Dn1   v033
        BYTE   W06
        BYTE                   Cn1   v116
        BYTE           N17     As1   v072
        BYTE   W06
        BYTE           N05     Dn1   v033
        BYTE   W06
        BYTE                   Cn1   v072
        BYTE   W09
        BYTE           N01     Cn1   v059
        BYTE   W01
        BYTE                   Cn1
        BYTE   W02
        BYTE           N05     Dn1   v127
        BYTE           N17     As1   v072
        BYTE   W06
        BYTE           N05     Cn1   v085
        BYTE   W12
        BYTE                   Cn1   v116
        BYTE   W06
        BYTE           N11     As1   v072
        BYTE   W06
        BYTE           N05     Dn1   v095
        BYTE   W06
        BYTE                   Cn1   v116
        BYTE           N17     As1   v072
        BYTE   W06
        BYTE           N05     Dn1   v033
        BYTE   W06
// 010   ----------------------------------------
OutofChaos_7_10:
        BYTE           N05     Cn1   v072
        BYTE   W09
        BYTE           N01     Cn1   v059
        BYTE   W01
        BYTE                   Cn1
        BYTE   W02
        BYTE           N05     Dn1   v127
        BYTE           N17     As1   v072
        BYTE   W06
        BYTE           N05     Cn1   v085
        BYTE   W12
        BYTE                   Cn1   v116
        BYTE   W06
        BYTE           N17     As1   v072
        BYTE   W06
        BYTE           N05     Dn1   v095
        BYTE   W06
        BYTE                   Cn1   v085
        BYTE   W06
        BYTE                   Cn1
        BYTE   W06
        BYTE                   Cn1   v116
        BYTE           N17     As1   v072
        BYTE   W01
        BYTE           N68     Cs2   v085   gtp2
        BYTE   W05
        BYTE           N05     Dn1   v033
        BYTE   W06
        BYTE                   Cn1   v072
        BYTE   W09
        BYTE           N01     Cn1   v059
        BYTE   W01
        BYTE                   Cn1
        BYTE   W02
        BYTE           N05     Dn1   v127
        BYTE           N17     As1   v072
        BYTE   W06
        BYTE           N05     Cn1   v085
        BYTE   W06
        BYTE   PEND
// 011   ----------------------------------------
        BYTE   W06
        BYTE                   Cn1   v116
        BYTE   W06
        BYTE           N17     As1   v072
        BYTE   W06
        BYTE           N05     Dn1   v095
        BYTE   W06
        BYTE                   Cn1   v085
        BYTE   W06
        BYTE                   Cn1
        BYTE   W06
        BYTE                   Cn1   v116
        BYTE           N05     As1   v072
        BYTE   W01
        BYTE           N68     Cs2   v085   gtp2
        BYTE   W05
        BYTE           N05     Cn1   v116
        BYTE           N05     As1   v072
        BYTE   W06
        BYTE                   Cn1   v116
        BYTE           N17     As1   v072
        BYTE   W06
        BYTE           N05     Dn1   v033
        BYTE   W06
        BYTE                   Cn1   v072
        BYTE   W09
        BYTE           N01     Cn1   v059
        BYTE   W01
        BYTE                   Cn1
        BYTE   W02
        BYTE           N05     Dn1   v127
        BYTE           N17     As1   v072
        BYTE   W06
        BYTE           N05     Cn1   v085
        BYTE   W12
        BYTE                   Cn1   v116
        BYTE   W06
// 012   ----------------------------------------
        BYTE           N11     As1   v072
        BYTE   W06
        BYTE           N05     Dn1   v095
        BYTE   W06
        BYTE                   Cn1   v116
        BYTE           N17     As1   v072
        BYTE   W01
        BYTE           N68     Cs2   v085   gtp2
        BYTE   W05
        BYTE           N05     Dn1   v033
        BYTE   W06
        BYTE                   Cn1   v072
        BYTE   W09
        BYTE           N01     Cn1   v059
        BYTE   W01
        BYTE                   Cn1
        BYTE   W02
        BYTE           N05     Dn1   v127
        BYTE           N17     As1   v072
        BYTE   W06
        BYTE           N05     Cn1   v085
        BYTE   W12
        BYTE                   Cn1   v116
        BYTE   W06
        BYTE           N17     As1   v072
        BYTE   W06
        BYTE           N05     Dn1   v095
        BYTE   W06
        BYTE                   Cn1   v085
        BYTE   W06
        BYTE                   Cn1
        BYTE   W06
        BYTE                   Cn1   v116
        BYTE           N17     As1   v072
        BYTE   W06
        BYTE           N05     Dn1   v033
        BYTE   W06
// 013   ----------------------------------------
        BYTE   PATT
         POIN2  OutofChaos_7_1
// 014   ----------------------------------------
        BYTE   PATT
         POIN2  OutofChaos_7_2
// 015   ----------------------------------------
OutofChaos_7_15:
        BYTE           N05     Cn1   v085
        BYTE   W06
        BYTE                   Cn1
        BYTE   W06
        BYTE                   Cn1   v116
        BYTE           N17     As1   v072
        BYTE   W01
        BYTE           N68     Cs2   v085   gtp2
        BYTE   W05
        BYTE           N05     Dn1   v033
        BYTE   W06
        BYTE                   Cn1   v072
        BYTE   W09
        BYTE           N01     Cn1   v059
        BYTE   W01
        BYTE                   Cn1
        BYTE   W02
        BYTE           N05     Dn1   v127
        BYTE           N17     As1   v072
        BYTE   W06
        BYTE           N05     Cn1   v085
        BYTE   W12
        BYTE                   Cn1   v116
        BYTE   W06
        BYTE           N17     As1   v072
        BYTE   W06
        BYTE           N05     Dn1   v095
        BYTE   W06
        BYTE                   Cn1   v085
        BYTE   W06
        BYTE                   Cn1
        BYTE   W06
        BYTE                   Cn1   v116
        BYTE           N17     As1   v072
        BYTE   W06
        BYTE           N05     Dn1   v033
        BYTE   W06
        BYTE   PEND
// 016   ----------------------------------------
        BYTE   PATT
         POIN2  OutofChaos_7_1
// 017   ----------------------------------------
        BYTE   PATT
         POIN2  OutofChaos_7_5
// 018   ----------------------------------------
        BYTE   PATT
         POIN2  OutofChaos_7_6
// 019   ----------------------------------------
        BYTE   PATT
         POIN2  OutofChaos_7_7
// 020   ----------------------------------------
        BYTE   W06
        BYTE           N05     Cn1   v116
        BYTE   W06
        BYTE           N17     As1   v072
        BYTE   W06
        BYTE           N05     Dn1   v095
        BYTE   W06
        BYTE                   Cn1   v085
        BYTE   W06
        BYTE                   Cn1
        BYTE   W06
        BYTE                   Cn1   v116
        BYTE           N05     As1   v072
        BYTE   W06
        BYTE                   Cn1   v116
        BYTE           N05     As1   v072
        BYTE   W06
        BYTE                   Cn1   v116
        BYTE           N17     As1   v072
        BYTE   W06
        BYTE           N05     Dn1   v033
        BYTE   W06
        BYTE                   Cn1   v072
        BYTE   W09
        BYTE           N01     Cn1   v059
        BYTE   W01
        BYTE                   Cn1
        BYTE   W02
        BYTE           N05     Dn1   v127
        BYTE           N17     As1   v072
        BYTE   W06
        BYTE           N05     Cn1   v085
        BYTE   W12
        BYTE                   Cn1   v116
        BYTE   W06
// 021   ----------------------------------------
        BYTE   PATT
         POIN2  OutofChaos_7_6
// 022   ----------------------------------------
        BYTE   PATT
         POIN2  OutofChaos_7_10
// 023   ----------------------------------------
        BYTE   W06
        BYTE           N05     Cn1   v116
        BYTE   W06
        BYTE           N17     As1   v072
        BYTE   W06
        BYTE           N05     Dn1   v095
        BYTE   W06
        BYTE                   Cn1   v085
        BYTE   W06
        BYTE                   Cn1
        BYTE   W06
        BYTE                   Cn1   v116
        BYTE           N17     As1   v072
        BYTE   W01
        BYTE           N68     Cs2   v085   gtp2
        BYTE   W05
        BYTE           N05     Dn1   v033
        BYTE   W06
        BYTE                   Cn1   v072
        BYTE   W09
        BYTE           N01     Cn1   v059
        BYTE   W01
        BYTE                   Cn1
        BYTE   W02
        BYTE           N05     Dn1   v127
        BYTE           N17     As1   v072
        BYTE   W06
        BYTE           N05     Cn1   v085
        BYTE   W12
        BYTE                   Cn1   v116
        BYTE   W06
        BYTE           N17     As1   v072
        BYTE   W06
        BYTE           N05     Dn1   v095
        BYTE   W06
// 024   ----------------------------------------
        BYTE                   Cn1   v085
        BYTE   W06
        BYTE                   Cn1
        BYTE   W07
        BYTE           N22     Cn1   v127
        BYTE           N68     Cs2   v085   gtp2
        BYTE   W24
        BYTE           N22     Cn1   v127
        BYTE   W24
        BYTE                   Cn1
        BYTE   W24
        BYTE                   Cn1
        BYTE   W11
// 025   ----------------------------------------
OutofChaos_7_25:
        BYTE   W13
        BYTE           N22     Cn1   v127
        BYTE   W24
        BYTE                   Cn1
        BYTE   W24
        BYTE                   Cn1
        BYTE   W24
        BYTE                   Cn1
        BYTE   W11
        BYTE   PEND
// 026   ----------------------------------------
        BYTE   PATT
         POIN2  OutofChaos_7_25
// 027   ----------------------------------------
        BYTE   W13
        BYTE           N22     Cn1   v127
        BYTE           N68     Cs2   v085   gtp2
        BYTE   W24
        BYTE           N22     Cn1   v127
        BYTE   W24
        BYTE                   Cn1
        BYTE   W24
        BYTE                   Cn1
        BYTE   W11
// 028   ----------------------------------------
        BYTE   PATT
         POIN2  OutofChaos_7_25
// 029   ----------------------------------------
        BYTE   W19
        BYTE           N18     Cn1   v127
        BYTE   W18
        BYTE           N04
        BYTE   W24
        BYTE           N22
        BYTE   W23
        BYTE           N05     Cn1   v116
        BYTE           N05     As1   v072
        BYTE   W06
        BYTE                   Cn1   v116
        BYTE           N05     As1   v072
        BYTE   W06
// 030   ----------------------------------------
        BYTE                   Cn1   v116
        BYTE           N05     As1   v072
        BYTE   W06
        BYTE                   Cn1   v116
        BYTE           N05     As1   v072
        BYTE   W06
        BYTE                   Cn1   v116
        BYTE           N17     As1   v072
        BYTE   W01
        BYTE           N68     Cs2   v085   gtp2
        BYTE   W05
        BYTE           N05     Dn1   v033
        BYTE   W06
        BYTE                   Cn1   v072
        BYTE   W09
        BYTE           N01     Cn1   v059
        BYTE   W01
        BYTE                   Cn1
        BYTE   W02
        BYTE           N05     Dn1   v127
        BYTE           N17     As1   v072
        BYTE   W06
        BYTE           N05     Cn1   v085
        BYTE   W12
        BYTE                   Cn1   v116
        BYTE   W06
        BYTE           N17     As1   v072
        BYTE   W06
        BYTE           N05     Dn1   v095
        BYTE   W06
        BYTE                   Cn1   v085
        BYTE   W06
        BYTE                   Cn1
        BYTE   W06
        BYTE                   Cn1   v116
        BYTE           N17     As1   v072
        BYTE   W06
        BYTE           N05     Dn1   v033
        BYTE   W06
// 031   ----------------------------------------
        BYTE   PATT
         POIN2  OutofChaos_7_7
// 032   ----------------------------------------
OutofChaos_7_32:
        BYTE   W06
        BYTE           N05     Cn1   v116
        BYTE   W06
        BYTE           N17     As1   v072
        BYTE   W06
        BYTE           N05     Dn1   v095
        BYTE   W06
        BYTE                   Cn1   v085
        BYTE   W06
        BYTE                   Cn1
        BYTE   W06
        BYTE                   Cn1   v116
        BYTE           N17     As1   v072
        BYTE   W06
        BYTE           N05     Dn1   v033
        BYTE   W06
        BYTE                   Cn1   v072
        BYTE   W09
        BYTE           N01     Cn1   v059
        BYTE   W01
        BYTE                   Cn1
        BYTE   W02
        BYTE           N05     Dn1   v127
        BYTE           N17     As1   v072
        BYTE   W06
        BYTE           N05     Cn1   v085
        BYTE   W12
        BYTE                   Cn1   v116
        BYTE   W06
        BYTE           N17     As1   v072
        BYTE   W06
        BYTE           N05     Dn1   v095
        BYTE   W06
        BYTE   PEND
// 033   ----------------------------------------
        BYTE                   Cn1   v085
        BYTE   W06
        BYTE                   Cn1
        BYTE   W06
        BYTE                   Cn1   v116
        BYTE           N11     As1   v072
        BYTE   W01
        BYTE           N68     Cs2   v085   gtp2
        BYTE   W05
        BYTE           N05     Dn1   v033
        BYTE   W06
        BYTE                   Cn1   v116
        BYTE           N17     As1   v072
        BYTE   W06
        BYTE           N05     Dn1   v033
        BYTE   W06
        BYTE                   Cn1   v072
        BYTE   W09
        BYTE           N01     Cn1   v059
        BYTE   W01
        BYTE                   Cn1
        BYTE   W02
        BYTE           N05     Dn1   v127
        BYTE           N17     As1   v072
        BYTE   W06
        BYTE           N05     Cn1   v085
        BYTE   W12
        BYTE                   Cn1   v116
        BYTE   W06
        BYTE           N11     As1   v072
        BYTE   W06
        BYTE           N05     Dn1   v095
        BYTE   W06
        BYTE                   Cn1   v116
        BYTE           N17     As1   v072
        BYTE   W06
        BYTE           N05     Dn1   v033
        BYTE   W06
// 034   ----------------------------------------
        BYTE   PATT
         POIN2  OutofChaos_7_7
// 035   ----------------------------------------
        BYTE   PATT
         POIN2  OutofChaos_7_32
// 036   ----------------------------------------
        BYTE   PATT
         POIN2  OutofChaos_7_15
// 037   ----------------------------------------
        BYTE   PATT
         POIN2  OutofChaos_7_7
// 038   ----------------------------------------
        BYTE   PATT
         POIN2  OutofChaos_7_32
// 039   ----------------------------------------
        BYTE   PATT
         POIN2  OutofChaos_7_3
// 040   ----------------------------------------
        BYTE   PATT
         POIN2  OutofChaos_7_7
// 041   ----------------------------------------
        BYTE   PATT
         POIN2  OutofChaos_7_32
// 042   ----------------------------------------
        BYTE   PATT
         POIN2  OutofChaos_7_15
// 043   ----------------------------------------
        BYTE   PATT
         POIN2  OutofChaos_7_7
// 044   ----------------------------------------
        BYTE   PATT
         POIN2  OutofChaos_7_32
// 045   ----------------------------------------
        BYTE   PATT
         POIN2  OutofChaos_7_3
// 046   ----------------------------------------
        BYTE   PATT
         POIN2  OutofChaos_7_7
// 047   ----------------------------------------
        BYTE   W06
        BYTE           N05     Cn1   v116
        BYTE   W06
        BYTE           N17     As1   v072
        BYTE   W06
        BYTE           N05     Dn1   v095
        BYTE   W06
        BYTE                   Cn1   v085
        BYTE   W06
        BYTE                   Cn1
        BYTE   W06
        BYTE                   Cn1   v116
        BYTE           N17     As1   v072
        BYTE   W06
        BYTE           N05     Dn1   v033
        BYTE   W06
        BYTE                   Cn1   v072
        BYTE   W09
        BYTE           N01     Cn1   v059
        BYTE   W01
        BYTE                   Cn1
        BYTE   W02
        BYTE           N05     Dn1   v127
        BYTE           N17     As1   v072
        BYTE   W06
        BYTE           N05     Cn1   v085
        BYTE   W12
        BYTE                   Cn1   v116
        BYTE   W06
        BYTE           N11     As1   v072
        BYTE   W06
        BYTE           N05     Dn1   v095
        BYTE   W05
        BYTE   GoTo
         POIN2  OutofChaos_7_LOOP
        BYTE   FINE

//****************** Track 8 (Midi-Chn.8) ******************//

OutofChaos_8:
        BYTE   KEYSH   OutofChaos_key+0
// 000   ----------------------------------------
OutofChaos_8_LOOP:
        BYTE           VOICE   52
        BYTE           PAN     c_v+4
        BYTE           VOL     21
        BYTE   W96
// 001   ----------------------------------------
        BYTE   W96
// 002   ----------------------------------------
        BYTE   W96
// 003   ----------------------------------------
        BYTE   W96
// 004   ----------------------------------------
        BYTE   W96
// 005   ----------------------------------------
        BYTE   W96
// 006   ----------------------------------------
OutofChaos_8_6:
        BYTE   W13
        BYTE           TIE     An2   v127
        BYTE           TIE     Cn3
        BYTE           TIE     Fn3
        BYTE   W80
        BYTE   W03
        BYTE   PEND
// 007   ----------------------------------------
OutofChaos_8_7:
        BYTE   W56
        BYTE   W03
        BYTE           EOT     An2
        BYTE                   Cn3
        BYTE                   Fn3
        BYTE   W02
        BYTE           N68     Gn2   v127   gtp2
        BYTE           TIE     Bn2
        BYTE           TIE     En3
        BYTE   W32
        BYTE   W03
        BYTE   PEND
// 008   ----------------------------------------
OutofChaos_8_8:
        BYTE   W36
        BYTE   W01
        BYTE           N68     Gn3   v127   gtp2
        BYTE   W56
        BYTE   W03
        BYTE   PEND
// 009   ----------------------------------------
OutofChaos_8_9:
        BYTE   W11
        BYTE           EOT     Bn2
        BYTE                   En3
        BYTE   W02
        BYTE           TIE     An2   v127
        BYTE           TIE     Dn3
        BYTE           TIE     Fn3
        BYTE   W80
        BYTE   W03
        BYTE   PEND
// 010   ----------------------------------------
OutofChaos_8_10:
        BYTE   W56
        BYTE   W03
        BYTE           EOT     An2
        BYTE                   Dn3
        BYTE                   Fn3
        BYTE   W02
        BYTE           N68     Bn2   v127   gtp2
        BYTE                   En3
        BYTE           N68     Gn3   v127   gtp2
        BYTE   W32
        BYTE   W03
        BYTE   PEND
// 011   ----------------------------------------
        BYTE   W36
        BYTE   W01
        BYTE                   An2
        BYTE           N68     Dn3   v127   gtp2
        BYTE                   Fs3
        BYTE   W56
        BYTE   W03
// 012   ----------------------------------------
        BYTE   W96
// 013   ----------------------------------------
        BYTE   W96
// 014   ----------------------------------------
        BYTE   W96
// 015   ----------------------------------------
        BYTE   W96
// 016   ----------------------------------------
        BYTE   W96
// 017   ----------------------------------------
        BYTE   W96
// 018   ----------------------------------------
        BYTE   PATT
         POIN2  OutofChaos_8_6
// 019   ----------------------------------------
        BYTE   PATT
         POIN2  OutofChaos_8_7
// 020   ----------------------------------------
        BYTE   PATT
         POIN2  OutofChaos_8_8
// 021   ----------------------------------------
        BYTE   PATT
         POIN2  OutofChaos_8_9
// 022   ----------------------------------------
        BYTE   PATT
         POIN2  OutofChaos_8_10
// 023   ----------------------------------------
        BYTE   W36
        BYTE   W01
        BYTE           N68     Cs3   v127   gtp2
        BYTE                   En3
        BYTE           N68     An3   v127   gtp2
        BYTE   W56
        BYTE   W03
// 024   ----------------------------------------
        BYTE   W13
        BYTE           TIE     Cs3
        BYTE           N68     Fs3   v127   gtp2
        BYTE   W72
        BYTE                   Fn3
        BYTE   W11
// 025   ----------------------------------------
OutofChaos_8_25:
        BYTE   W60
        BYTE   W01
        BYTE           N68     Fs3   v127   gtp2
        BYTE   W32
        BYTE   W03
        BYTE   PEND
// 026   ----------------------------------------
OutofChaos_8_26:
        BYTE   W36
        BYTE   W01
        BYTE           N68     Gs3   v127   gtp2
        BYTE   W56
        BYTE   W03
        BYTE   PEND
// 027   ----------------------------------------
OutofChaos_8_27:
        BYTE   W11
        BYTE           EOT     Cs3
        BYTE   W02
        BYTE           TIE     Cs3   v127
        BYTE           N68     Fs3   v127   gtp2
        BYTE   W72
        BYTE                   Fn3
        BYTE   W11
        BYTE   PEND
// 028   ----------------------------------------
        BYTE   PATT
         POIN2  OutofChaos_8_25
// 029   ----------------------------------------
        BYTE   PATT
         POIN2  OutofChaos_8_26
// 030   ----------------------------------------
        BYTE   PATT
         POIN2  OutofChaos_8_27
// 031   ----------------------------------------
        BYTE   PATT
         POIN2  OutofChaos_8_25
// 032   ----------------------------------------
        BYTE   PATT
         POIN2  OutofChaos_8_26
// 033   ----------------------------------------
        BYTE   W11
        BYTE           EOT     Cs3
        BYTE   W02
        BYTE           TIE     Cs3   v127
        BYTE           N68     Fs3   v127   gtp2
        BYTE   W72
        BYTE                   Fs3
        BYTE   W11
// 034   ----------------------------------------
        BYTE   PATT
         POIN2  OutofChaos_8_25
// 035   ----------------------------------------
        BYTE   PATT
         POIN2  OutofChaos_8_26
// 036   ----------------------------------------
        BYTE   W11
        BYTE           EOT     Cs3
        BYTE   W02
        BYTE           TIE     Dn2   v127
        BYTE           TIE     Dn3
        BYTE   W80
        BYTE   W03
// 037   ----------------------------------------
        BYTE   W96
// 038   ----------------------------------------
        BYTE   W96
// 039   ----------------------------------------
OutofChaos_8_39:
        BYTE   W11
        BYTE           EOT     Dn2
        BYTE                   Dn3
        BYTE   W02
        BYTE           TIE     Dn2   v127
        BYTE           TIE     Dn3
        BYTE   W80
        BYTE   W03
        BYTE   PEND
// 040   ----------------------------------------
        BYTE   W96
// 041   ----------------------------------------
        BYTE   W96
// 042   ----------------------------------------
        BYTE   PATT
         POIN2  OutofChaos_8_39
// 043   ----------------------------------------
        BYTE   W96
// 044   ----------------------------------------
        BYTE   W96
// 045   ----------------------------------------
        BYTE   PATT
         POIN2  OutofChaos_8_39
// 046   ----------------------------------------
        BYTE   W96
// 047   ----------------------------------------
        BYTE   W92
        BYTE   W03
        BYTE           EOT     Dn2
        BYTE                   Dn3
        BYTE   GoTo
         POIN2  OutofChaos_8_LOOP
        BYTE   FINE

//***************** Track 9 (Midi-Chn.10) ******************//

OutofChaos_9:
        BYTE   KEYSH   OutofChaos_key+0
// 000   ----------------------------------------
OutofChaos_9_LOOP:
        BYTE           VOICE   71
        BYTE           PAN     c_v+20
        BYTE           VOL     14
        BYTE           BEND    c_v-2
        BYTE   W96
// 001   ----------------------------------------
        BYTE   W96
// 002   ----------------------------------------
        BYTE   W96
// 003   ----------------------------------------
        BYTE   W96
// 004   ----------------------------------------
        BYTE   W96
// 005   ----------------------------------------
        BYTE   W96
// 006   ----------------------------------------
OutofChaos_9_6:
        BYTE   W24
        BYTE   W01
        BYTE           N32     Dn4   v127
        BYTE   W36
        BYTE           N04     Cn4
        BYTE   W06
        BYTE                   Bn3
        BYTE   W06
        BYTE           N56     An3   v127   gtp2
        BYTE   W23
        BYTE   PEND
// 007   ----------------------------------------
OutofChaos_9_7:
        BYTE   W48
        BYTE   W01
        BYTE           N10     Gn3   v127
        BYTE   W12
        BYTE                   An3
        BYTE   W12
        BYTE           N56     Bn3   v127   gtp3
        BYTE   W23
        BYTE   PEND
// 008   ----------------------------------------
OutofChaos_9_8:
        BYTE   W48
        BYTE   W01
        BYTE           N32     En4   v127
        BYTE   W36
        BYTE                   Bn3
        BYTE   W11
        BYTE   PEND
// 009   ----------------------------------------
        BYTE   PATT
         POIN2  OutofChaos_9_6
// 010   ----------------------------------------
OutofChaos_9_10:
        BYTE   W48
        BYTE   W01
        BYTE           N10     Gn3   v127
        BYTE   W12
        BYTE                   An3
        BYTE   W12
        BYTE           N64     Bn3   v127   gtp1
        BYTE   W23
        BYTE   PEND
// 011   ----------------------------------------
OutofChaos_9_11:
        BYTE   W48
        BYTE   W01
        BYTE           N64     An3   v127   gtp1
        BYTE   W44
        BYTE   W03
        BYTE   PEND
// 012   ----------------------------------------
        BYTE   W96
// 013   ----------------------------------------
        BYTE   W96
// 014   ----------------------------------------
        BYTE   W96
// 015   ----------------------------------------
        BYTE   W96
// 016   ----------------------------------------
        BYTE   W96
// 017   ----------------------------------------
        BYTE   W96
// 018   ----------------------------------------
        BYTE   PATT
         POIN2  OutofChaos_9_6
// 019   ----------------------------------------
        BYTE   PATT
         POIN2  OutofChaos_9_7
// 020   ----------------------------------------
        BYTE   PATT
         POIN2  OutofChaos_9_8
// 021   ----------------------------------------
        BYTE   PATT
         POIN2  OutofChaos_9_6
// 022   ----------------------------------------
        BYTE   PATT
         POIN2  OutofChaos_9_10
// 023   ----------------------------------------
        BYTE   PATT
         POIN2  OutofChaos_9_11
// 024   ----------------------------------------
        BYTE   W96
// 025   ----------------------------------------
        BYTE   W96
// 026   ----------------------------------------
        BYTE   W96
// 027   ----------------------------------------
        BYTE   W96
// 028   ----------------------------------------
        BYTE   W96
// 029   ----------------------------------------
        BYTE   W96
// 030   ----------------------------------------
        BYTE   W24
        BYTE   W01
        BYTE           N32     Cs4   v127
        BYTE   W36
        BYTE           N04     Bn3
        BYTE   W06
        BYTE                   Cs4
        BYTE   W06
        BYTE           N16     Dn4
        BYTE   W23
// 031   ----------------------------------------
        BYTE   W01
        BYTE           N32     Fn4
        BYTE   W36
        BYTE                   Cs4
        BYTE   W36
        BYTE           N16     Fs4
        BYTE   W18
        BYTE                   Fn4
        BYTE   W05
// 032   ----------------------------------------
        BYTE   W13
        BYTE           N10     Fs4
        BYTE   W12
        BYTE           N16     Gs4
        BYTE   W24
        BYTE           N04     An4
        BYTE   W06
        BYTE                   Gs4
        BYTE   W06
        BYTE                   Fs4
        BYTE   W06
        BYTE                   Gs4
        BYTE   W06
        BYTE                   Fn4
        BYTE   W06
        BYTE                   Gs4
        BYTE   W06
        BYTE                   Cs4
        BYTE   W06
        BYTE                   Gs4
        BYTE   W05
// 033   ----------------------------------------
        BYTE   W01
        BYTE                   Fs4
        BYTE   W06
        BYTE                   Fn4
        BYTE   W06
        BYTE                   Fs4
        BYTE   W06
        BYTE                   Gs4
        BYTE   W06
        BYTE           N16     An4
        BYTE   W18
        BYTE                   Gs4
        BYTE   W18
        BYTE           N07     En4
        BYTE   W12
        BYTE           N19     Fs4
        BYTE   W23
// 034   ----------------------------------------
        BYTE   W01
        BYTE           N16     An4
        BYTE   W18
        BYTE                   Gs4
        BYTE   W18
        BYTE           N10     An4
        BYTE   W12
        BYTE           N22     Bn4
        BYTE   W24
        BYTE           N16     An4
        BYTE   W18
        BYTE                   Gs4
        BYTE   W05
// 035   ----------------------------------------
        BYTE   W13
        BYTE           N07     An4
        BYTE   W12
        BYTE           N19     Bn4
        BYTE   W24
        BYTE                   Gs4
        BYTE   W24
        BYTE           N16     Fs4
        BYTE   W18
        BYTE                   Fn4
        BYTE   W05
// 036   ----------------------------------------
        BYTE   W13
        BYTE           N10     Cs4
        BYTE   W80
        BYTE   W03
// 037   ----------------------------------------
        BYTE   W96
// 038   ----------------------------------------
        BYTE   W96
// 039   ----------------------------------------
        BYTE   W96
// 040   ----------------------------------------
        BYTE   W96
// 041   ----------------------------------------
        BYTE   W96
// 042   ----------------------------------------
        BYTE   W96
// 043   ----------------------------------------
        BYTE   W96
// 044   ----------------------------------------
        BYTE   W96
// 045   ----------------------------------------
        BYTE   W96
// 046   ----------------------------------------
        BYTE   W96
// 047   ----------------------------------------
        BYTE   W92
        BYTE   W03
        BYTE   GoTo
         POIN2  OutofChaos_9_LOOP
        BYTE   FINE

//***************** Track 10 (Midi-Chn.11) *****************//

OutofChaos_10:
        BYTE   KEYSH   OutofChaos_key+0
// 000   ----------------------------------------
OutofChaos_10_LOOP:
        BYTE           VOICE   81
        BYTE           PAN     c_v-40
        BYTE           VOL     10
        BYTE           BEND    c_v-1
        BYTE   W24
        BYTE   W01
        BYTE           N03     En4   v091
        BYTE   W06
        BYTE                   Fs4
        BYTE   W12
        BYTE                   Gn4
        BYTE   W12
        BYTE                   En4
        BYTE   W06
        BYTE                   Bn4
        BYTE   W12
        BYTE                   En4
        BYTE   W12
        BYTE                   Gn4
        BYTE   W11
// 001   ----------------------------------------
OutofChaos_10_1:
        BYTE   W01
        BYTE           N03     En4   v091
        BYTE   W06
        BYTE                   Fs4
        BYTE   W12
        BYTE                   Gn4
        BYTE   W12
        BYTE                   En4
        BYTE   W06
        BYTE                   Bn4
        BYTE   W12
        BYTE                   Gn4
        BYTE   W12
        BYTE                   An4
        BYTE   W12
        BYTE                   En4
        BYTE   W06
        BYTE                   Fs4
        BYTE   W12
        BYTE                   Gn4
        BYTE   W05
        BYTE   PEND
// 002   ----------------------------------------
OutofChaos_10_2:
        BYTE   W07
        BYTE           N03     En4   v091
        BYTE   W06
        BYTE                   Bn4
        BYTE   W12
        BYTE                   En4
        BYTE   W12
        BYTE                   Gn4
        BYTE   W12
        BYTE                   En4
        BYTE   W06
        BYTE                   Fs4
        BYTE   W12
        BYTE                   Gn4
        BYTE   W12
        BYTE                   En4
        BYTE   W06
        BYTE                   Bn4
        BYTE   W11
        BYTE   PEND
// 003   ----------------------------------------
OutofChaos_10_3:
        BYTE   W01
        BYTE           N03     An4   v091
        BYTE   W12
        BYTE                   Fs4
        BYTE   W12
        BYTE                   En4
        BYTE   W06
        BYTE                   Fs4
        BYTE   W12
        BYTE                   Gn4
        BYTE   W12
        BYTE                   En4
        BYTE   W06
        BYTE                   Bn4
        BYTE   W12
        BYTE                   En4
        BYTE   W12
        BYTE                   Gn4
        BYTE   W11
        BYTE   PEND
// 004   ----------------------------------------
OutofChaos_10_4:
        BYTE   W01
        BYTE           N03     En4   v091
        BYTE   W06
        BYTE                   Fs4
        BYTE   W12
        BYTE                   Gn4
        BYTE   W12
        BYTE                   En4
        BYTE   W06
        BYTE                   Bn4
        BYTE   W12
        BYTE                   Gn4
        BYTE   W12
        BYTE                   An4
        BYTE   W12
        BYTE                   Cs4
        BYTE   W06
        BYTE                   Dn4
        BYTE   W12
        BYTE                   En4
        BYTE   W05
        BYTE   PEND
// 005   ----------------------------------------
OutofChaos_10_5:
        BYTE   W07
        BYTE           N03     Cs4   v091
        BYTE   W06
        BYTE                   An4
        BYTE   W12
        BYTE                   En4
        BYTE   W12
        BYTE                   An4
        BYTE   W12
        BYTE                   Gn4
        BYTE   W06
        BYTE                   An4
        BYTE   W12
        BYTE                   Bn4
        BYTE   W12
        BYTE                   Gn4
        BYTE   W06
        BYTE                   En5
        BYTE   W11
        BYTE   PEND
// 006   ----------------------------------------
OutofChaos_10_6:
        BYTE   W01
        BYTE           N03     Bn4   v091
        BYTE   W12
        BYTE                   En5
        BYTE   W80
        BYTE   W03
        BYTE   PEND
// 007   ----------------------------------------
        BYTE   W96
// 008   ----------------------------------------
        BYTE   W96
// 009   ----------------------------------------
        BYTE   W96
// 010   ----------------------------------------
        BYTE   W96
// 011   ----------------------------------------
        BYTE   W96
// 012   ----------------------------------------
        BYTE   W24
        BYTE   W01
        BYTE                   En4
        BYTE   W06
        BYTE                   Fs4
        BYTE   W12
        BYTE                   Gn4
        BYTE   W12
        BYTE                   En4
        BYTE   W06
        BYTE                   Bn4
        BYTE   W12
        BYTE                   En4
        BYTE   W12
        BYTE                   Gn4
        BYTE   W11
// 013   ----------------------------------------
        BYTE   PATT
         POIN2  OutofChaos_10_1
// 014   ----------------------------------------
        BYTE   PATT
         POIN2  OutofChaos_10_2
// 015   ----------------------------------------
        BYTE   PATT
         POIN2  OutofChaos_10_3
// 016   ----------------------------------------
        BYTE   PATT
         POIN2  OutofChaos_10_4
// 017   ----------------------------------------
        BYTE   PATT
         POIN2  OutofChaos_10_5
// 018   ----------------------------------------
        BYTE   PATT
         POIN2  OutofChaos_10_6
// 019   ----------------------------------------
        BYTE   W96
// 020   ----------------------------------------
        BYTE   W96
// 021   ----------------------------------------
        BYTE   W96
// 022   ----------------------------------------
        BYTE   W96
// 023   ----------------------------------------
        BYTE   W96
// 024   ----------------------------------------
        BYTE   W96
// 025   ----------------------------------------
        BYTE   W96
// 026   ----------------------------------------
        BYTE   W96
// 027   ----------------------------------------
        BYTE   W96
// 028   ----------------------------------------
        BYTE   W96
// 029   ----------------------------------------
        BYTE   W96
// 030   ----------------------------------------
        BYTE   W96
// 031   ----------------------------------------
        BYTE   W96
// 032   ----------------------------------------
        BYTE   W96
// 033   ----------------------------------------
        BYTE   W96
// 034   ----------------------------------------
        BYTE   W96
// 035   ----------------------------------------
        BYTE   W96
// 036   ----------------------------------------
        BYTE   W96
// 037   ----------------------------------------
        BYTE   W96
// 038   ----------------------------------------
        BYTE   W96
// 039   ----------------------------------------
        BYTE   W96
// 040   ----------------------------------------
        BYTE   W96
// 041   ----------------------------------------
        BYTE   W96
// 042   ----------------------------------------
        BYTE   W24
        BYTE   W01
        BYTE           N04     Dn3   v091
        BYTE   W06
        BYTE                   Dn4
        BYTE   W06
        BYTE                   Dn5
        BYTE   W06
        BYTE                   Dn4
        BYTE   W06
        BYTE                   Dn3
        BYTE   W06
        BYTE                   Dn4
        BYTE   W06
        BYTE                   Dn5
        BYTE   W06
        BYTE                   Dn4
        BYTE   W06
        BYTE                   Dn3
        BYTE   W06
        BYTE                   Dn4
        BYTE   W06
        BYTE                   Dn5
        BYTE   W06
        BYTE                   Dn4
        BYTE   W05
// 043   ----------------------------------------
OutofChaos_10_43:
        BYTE   W01
        BYTE           N04     Dn3   v091
        BYTE   W06
        BYTE                   Dn4
        BYTE   W06
        BYTE                   Dn5
        BYTE   W06
        BYTE                   Dn4
        BYTE   W06
        BYTE                   Dn3
        BYTE   W06
        BYTE                   Dn4
        BYTE   W06
        BYTE                   Dn5
        BYTE   W06
        BYTE                   Dn4
        BYTE   W06
        BYTE                   Dn3
        BYTE   W06
        BYTE                   Dn4
        BYTE   W06
        BYTE                   Dn5
        BYTE   W06
        BYTE                   Dn4
        BYTE   W06
        BYTE                   Dn3
        BYTE   W06
        BYTE                   Dn4
        BYTE   W06
        BYTE                   Dn5
        BYTE   W06
        BYTE                   Dn4
        BYTE   W05
        BYTE   PEND
// 044   ----------------------------------------
        BYTE   PATT
         POIN2  OutofChaos_10_43
// 045   ----------------------------------------
        BYTE   PATT
         POIN2  OutofChaos_10_43
// 046   ----------------------------------------
        BYTE   PATT
         POIN2  OutofChaos_10_43
// 047   ----------------------------------------
        BYTE   W01
        BYTE           N04     Dn3   v091
        BYTE   W06
        BYTE                   Dn4
        BYTE   W06
        BYTE                   Dn5
        BYTE   W06
        BYTE                   Dn4
        BYTE   W06
        BYTE                   Dn3
        BYTE   W06
        BYTE                   Dn4
        BYTE   W06
        BYTE                   Dn5
        BYTE   W06
        BYTE                   Dn4
        BYTE   W06
        BYTE                   Dn3
        BYTE   W06
        BYTE                   Dn4
        BYTE   W06
        BYTE                   Dn5
        BYTE   W06
        BYTE                   Dn4
        BYTE   W06
        BYTE                   Dn3
        BYTE   W06
        BYTE                   Dn4
        BYTE   W06
        BYTE                   Dn5
        BYTE   W06
        BYTE                   Dn4
        BYTE   W04
        BYTE   GoTo
         POIN2  OutofChaos_10_LOOP
        BYTE   FINE

//***************** Track 11 (Midi-Chn.12) *****************//

OutofChaos_11:
        BYTE   KEYSH   OutofChaos_key+0
// 000   ----------------------------------------
OutofChaos_11_LOOP:
        BYTE           VOICE   81
        BYTE           PAN     c_v+40
        BYTE           VOL     10
        BYTE           BEND    c_v-2
        BYTE   W36
        BYTE   W01
        BYTE           N03     En4   v091
        BYTE   W06
        BYTE                   Fs4
        BYTE   W12
        BYTE                   Gn4
        BYTE   W12
        BYTE                   En4
        BYTE   W06
        BYTE                   Bn4
        BYTE   W12
        BYTE                   En4
        BYTE   W11
// 001   ----------------------------------------
OutofChaos_11_1:
        BYTE   W01
        BYTE           N03     Gn4   v091
        BYTE   W12
        BYTE                   En4
        BYTE   W06
        BYTE                   Fs4
        BYTE   W12
        BYTE                   Gn4
        BYTE   W12
        BYTE                   En4
        BYTE   W06
        BYTE                   Bn4
        BYTE   W12
        BYTE                   Gn4
        BYTE   W12
        BYTE                   An4
        BYTE   W12
        BYTE                   En4
        BYTE   W06
        BYTE                   Fs4
        BYTE   W05
        BYTE   PEND
// 002   ----------------------------------------
OutofChaos_11_2:
        BYTE   W07
        BYTE           N03     Gn4   v091
        BYTE   W12
        BYTE                   En4
        BYTE   W06
        BYTE                   Bn4
        BYTE   W12
        BYTE                   En4
        BYTE   W12
        BYTE                   Gn4
        BYTE   W12
        BYTE                   En4
        BYTE   W06
        BYTE                   Fs4
        BYTE   W12
        BYTE                   Gn4
        BYTE   W12
        BYTE                   En4
        BYTE   W05
        BYTE   PEND
// 003   ----------------------------------------
OutofChaos_11_3:
        BYTE   W01
        BYTE           N03     Bn4   v091
        BYTE   W12
        BYTE                   An4
        BYTE   W12
        BYTE                   Fs4
        BYTE   W12
        BYTE                   En4
        BYTE   W06
        BYTE                   Fs4
        BYTE   W12
        BYTE                   Gn4
        BYTE   W12
        BYTE                   En4
        BYTE   W06
        BYTE                   Bn4
        BYTE   W12
        BYTE                   En4
        BYTE   W11
        BYTE   PEND
// 004   ----------------------------------------
OutofChaos_11_4:
        BYTE   W01
        BYTE           N03     Gn4   v091
        BYTE   W12
        BYTE                   En4
        BYTE   W06
        BYTE                   Fs4
        BYTE   W12
        BYTE                   Gn4
        BYTE   W12
        BYTE                   En4
        BYTE   W06
        BYTE                   Bn4
        BYTE   W12
        BYTE                   Gn4
        BYTE   W12
        BYTE                   An4
        BYTE   W12
        BYTE                   Cs4
        BYTE   W06
        BYTE                   Dn4
        BYTE   W05
        BYTE   PEND
// 005   ----------------------------------------
OutofChaos_11_5:
        BYTE   W07
        BYTE           N03     En4   v091
        BYTE   W12
        BYTE                   Cs4
        BYTE   W06
        BYTE                   An4
        BYTE   W12
        BYTE                   En4
        BYTE   W12
        BYTE                   An4
        BYTE   W12
        BYTE                   Gn4
        BYTE   W06
        BYTE                   An4
        BYTE   W12
        BYTE                   Bn4
        BYTE   W12
        BYTE                   Gn4
        BYTE   W05
        BYTE   PEND
// 006   ----------------------------------------
OutofChaos_11_6:
        BYTE   W01
        BYTE           N03     En5   v091
        BYTE   W12
        BYTE                   Bn4
        BYTE   W12
        BYTE                   En5
        BYTE   W68
        BYTE   W03
        BYTE   PEND
// 007   ----------------------------------------
        BYTE   W96
// 008   ----------------------------------------
        BYTE   W96
// 009   ----------------------------------------
        BYTE   W96
// 010   ----------------------------------------
        BYTE   W96
// 011   ----------------------------------------
        BYTE   W96
// 012   ----------------------------------------
        BYTE   W36
        BYTE   W01
        BYTE                   En4
        BYTE   W06
        BYTE                   Fs4
        BYTE   W12
        BYTE                   Gn4
        BYTE   W12
        BYTE                   En4
        BYTE   W06
        BYTE                   Bn4
        BYTE   W12
        BYTE                   En4
        BYTE   W11
// 013   ----------------------------------------
        BYTE   PATT
         POIN2  OutofChaos_11_1
// 014   ----------------------------------------
        BYTE   PATT
         POIN2  OutofChaos_11_2
// 015   ----------------------------------------
        BYTE   PATT
         POIN2  OutofChaos_11_3
// 016   ----------------------------------------
        BYTE   PATT
         POIN2  OutofChaos_11_4
// 017   ----------------------------------------
        BYTE   PATT
         POIN2  OutofChaos_11_5
// 018   ----------------------------------------
        BYTE   PATT
         POIN2  OutofChaos_11_6
// 019   ----------------------------------------
        BYTE   W96
// 020   ----------------------------------------
        BYTE   W96
// 021   ----------------------------------------
        BYTE   W96
// 022   ----------------------------------------
        BYTE   W96
// 023   ----------------------------------------
        BYTE   W96
// 024   ----------------------------------------
        BYTE   W96
// 025   ----------------------------------------
        BYTE   W96
// 026   ----------------------------------------
        BYTE   W96
// 027   ----------------------------------------
        BYTE   W96
// 028   ----------------------------------------
        BYTE   W96
// 029   ----------------------------------------
        BYTE   W96
// 030   ----------------------------------------
        BYTE   W96
// 031   ----------------------------------------
        BYTE   W96
// 032   ----------------------------------------
        BYTE   W96
// 033   ----------------------------------------
        BYTE   W96
// 034   ----------------------------------------
        BYTE   W96
// 035   ----------------------------------------
        BYTE   W96
// 036   ----------------------------------------
        BYTE   W96
// 037   ----------------------------------------
        BYTE   W96
// 038   ----------------------------------------
        BYTE   W96
// 039   ----------------------------------------
        BYTE   W96
// 040   ----------------------------------------
        BYTE   W96
// 041   ----------------------------------------
        BYTE   W96
// 042   ----------------------------------------
        BYTE   W36
        BYTE   W01
        BYTE           N04     Dn3   v091
        BYTE   W06
        BYTE                   Dn4
        BYTE   W06
        BYTE                   Dn5
        BYTE   W06
        BYTE                   Dn4
        BYTE   W06
        BYTE                   Dn3
        BYTE   W06
        BYTE                   Dn4
        BYTE   W06
        BYTE                   Dn5
        BYTE   W06
        BYTE                   Dn4
        BYTE   W06
        BYTE                   Dn3
        BYTE   W06
        BYTE                   Dn4
        BYTE   W05
// 043   ----------------------------------------
        BYTE   PATT
         POIN2  OutofChaos_5_43
// 044   ----------------------------------------
        BYTE   PATT
         POIN2  OutofChaos_5_43
// 045   ----------------------------------------
        BYTE   PATT
         POIN2  OutofChaos_5_43
// 046   ----------------------------------------
        BYTE   PATT
         POIN2  OutofChaos_5_43
// 047   ----------------------------------------
        BYTE   W01
        BYTE           N04     Dn5   v091
        BYTE   W06
        BYTE                   Dn4
        BYTE   W06
        BYTE                   Dn3
        BYTE   W06
        BYTE                   Dn4
        BYTE   W06
        BYTE                   Dn5
        BYTE   W06
        BYTE                   Dn4
        BYTE   W06
        BYTE                   Dn3
        BYTE   W06
        BYTE                   Dn4
        BYTE   W06
        BYTE                   Dn5
        BYTE   W06
        BYTE                   Dn4
        BYTE   W06
        BYTE                   Dn3
        BYTE   W06
        BYTE                   Dn4
        BYTE   W06
        BYTE                   Dn5
        BYTE   W06
        BYTE                   Dn4
        BYTE   W06
        BYTE                   Dn3
        BYTE   W06
        BYTE                   Dn4
        BYTE   W04
        BYTE   GoTo
         POIN2  OutofChaos_11_LOOP
        BYTE   FINE


//********************** End of Song ***********************//

        ALIGN 4
OutofChaos:
        BYTE   12                      // Num Tracks
        BYTE   0                       // Unknown
        BYTE   OutofChaos_pri  // Priority
        BYTE   OutofChaos_rev  // Reverb

        POIN2   OutofChaos_grp 

        POIN2   OutofChaos_0
        POIN2   OutofChaos_1
        POIN2   OutofChaos_2
        POIN2   OutofChaos_3
        POIN2   OutofChaos_4
        POIN2   OutofChaos_5
        POIN2   OutofChaos_6
        POIN2   OutofChaos_7
        POIN2   OutofChaos_8
        POIN2   OutofChaos_9
        POIN2   OutofChaos_10
        POIN2   OutofChaos_11

        
