	.include "MPlayDef.s"

	.equ	song93_grp, voicegroup001
	.equ	song93_pri, 0
	.equ	song93_rev, 0
	.equ	song93_mvl, 127
	.equ	song93_key, 0
	.equ	song93_tbs, 1
	.equ	song93_exg, 0
	.equ	song93_cmp, 1

	.section .rodata
	.global	song93
	.align	2


@**************** Track 1 (Midi-Chn.0) ****************@

song93_001:
@ 000   ----------------------------------------
 .byte   KEYSH , song93_key+0
 .byte   TEMPO , 82*song93_tbs/2
 .byte   VOICE , 60
 .byte   VOL , 37*song93_mvl/mxv
 .byte   PAN , c_v+6
 .byte   W96
@ 001   ----------------------------------------
 .byte   W72
Label_0_012B0CEC:
 .byte   N24 ,Bn2 ,v112
 .byte   W24
@ 002   ----------------------------------------
Label_0_012B0CF0:
 .byte   N72 ,En2 ,v112
 .byte   W72
 .byte   N24 ,Dn2
 .byte   W24
 .byte   PEND 
@ 003   ----------------------------------------
Label_0_012B0CF8:
 .byte   N48 ,En2 ,v112
 .byte   W48
 .byte   N24 ,Gn2
 .byte   W24
 .byte   An2
 .byte   W24
 .byte   PEND 
@ 004   ----------------------------------------
 .byte   N90 ,Dn3
 .byte   W96
@ 005   ----------------------------------------
Label_0_012B0D05:
 .byte   N48 ,Cn3 ,v112
 .byte   W48
 .byte   An2
 .byte   W48
 .byte   PEND 
@ 006   ----------------------------------------
 .byte   N90 ,Bn2
 .byte   W96
@ 007   ----------------------------------------
 .byte   N48 ,An2
 .byte   W48
 .byte   Fs2
 .byte   W48
@ 008   ----------------------------------------
 .byte   TIE ,Gn2
 .byte   W96
@ 009   ----------------------------------------
 .byte   W72
 .byte   EOT
 .byte   W24
@ 010   ----------------------------------------
 .byte   W96
@ 011   ----------------------------------------
 .byte   W96
@ 012   ----------------------------------------
 .byte   W96
@ 013   ----------------------------------------
 .byte   W96
@ 014   ----------------------------------------
 .byte   W96
@ 015   ----------------------------------------
 .byte   W96
@ 016   ----------------------------------------
 .byte   W96
@ 017   ----------------------------------------
 .byte   W72
 .byte   N24 ,Bn2
 .byte   W24
@ 018   ----------------------------------------
 .byte   PATT
  .word Label_0_012B0CF0
@ 019   ----------------------------------------
 .byte   PATT
  .word Label_0_012B0CF8
@ 020   ----------------------------------------
 .byte   N90 ,Dn3 ,v112
 .byte   W96
@ 021   ----------------------------------------
 .byte   PATT
  .word Label_0_012B0D05
@ 022   ----------------------------------------
 .byte   N90 ,Bn2 ,v112
 .byte   W96
@ 023   ----------------------------------------
 .byte   N48 ,An2
 .byte   W48
 .byte   Dn3
 .byte   W48
@ 024   ----------------------------------------
 .byte   TIE ,En3
 .byte   W96
@ 025   ----------------------------------------
 .byte   W72
 .byte   EOT
 .byte   W24
@ 026   ----------------------------------------
 .byte   W96
@ 027   ----------------------------------------
 .byte   W96
@ 028   ----------------------------------------
 .byte   W96
@ 029   ----------------------------------------
 .byte   W96
@ 030   ----------------------------------------
 .byte   W96
@ 031   ----------------------------------------
 .byte   W96
@ 032   ----------------------------------------
 .byte   W96
@ 033   ----------------------------------------
 .byte   W96
@ 034   ----------------------------------------
 .byte   W96
@ 035   ----------------------------------------
 .byte   W96
@ 036   ----------------------------------------
 .byte   W96
@ 037   ----------------------------------------
 .byte   W72
 .byte   GOTO
  .word Label_0_012B0CEC
@ 038   ----------------------------------------
 .byte   N24 ,Bn2 ,v112
 .byte   W24
@ 039   ----------------------------------------
 .byte   PATT
  .word Label_0_012B0CF0
@ 040   ----------------------------------------
 .byte   PATT
  .word Label_0_012B0CF8
@ 041   ----------------------------------------
 .byte   N90 ,Dn3 ,v112
 .byte   W96
@ 042   ----------------------------------------
 .byte   PATT
  .word Label_0_012B0D05
@ 043   ----------------------------------------
 .byte   W08
 .byte   FINE

@**************** Track 2 (Midi-Chn.1) ****************@

song93_002:
@ 000   ----------------------------------------
 .byte   KEYSH , song93_key+0
 .byte   VOICE , 48
 .byte   VOL , 34*song93_mvl/mxv
 .byte   PAN , c_v-14
 .byte   W96
@ 001   ----------------------------------------
 .byte   W72
Label_1_012B0572:
 .byte   W24
@ 002   ----------------------------------------
 .byte   W96
@ 003   ----------------------------------------
 .byte   W96
@ 004   ----------------------------------------
 .byte   W96
@ 005   ----------------------------------------
 .byte   W96
@ 006   ----------------------------------------
 .byte   W96
@ 007   ----------------------------------------
 .byte   W96
@ 008   ----------------------------------------
 .byte   W96
@ 009   ----------------------------------------
 .byte   W96
@ 010   ----------------------------------------
 .byte   W96
@ 011   ----------------------------------------
 .byte   W96
@ 012   ----------------------------------------
 .byte   W96
@ 013   ----------------------------------------
 .byte   W96
@ 014   ----------------------------------------
 .byte   W96
@ 015   ----------------------------------------
 .byte   W96
@ 016   ----------------------------------------
 .byte   W96
@ 017   ----------------------------------------
 .byte   W96
@ 018   ----------------------------------------
Label_1_012B0583:
 .byte   N96 ,Gn4 ,v040
 .byte   N96 ,Bn4 ,v060
 .byte   W96
 .byte   PEND 
@ 019   ----------------------------------------
 .byte   PATT
  .word Label_1_012B0583
@ 020   ----------------------------------------
 .byte   PATT
  .word Label_1_012B0583
@ 021   ----------------------------------------
 .byte   PATT
  .word Label_1_012B0583
@ 022   ----------------------------------------
 .byte   PATT
  .word Label_1_012B0583
@ 023   ----------------------------------------
 .byte   PATT
  .word Label_1_012B0583
@ 024   ----------------------------------------
 .byte   PATT
  .word Label_1_012B0583
@ 025   ----------------------------------------
 .byte   PATT
  .word Label_1_012B0583
@ 026   ----------------------------------------
Label_1_012B05AE:
 .byte   N44 ,En3 ,v088
 .byte   N44 ,En4
 .byte   W48
 .byte   Bn3
 .byte   N44 ,Bn4
 .byte   W48
 .byte   PEND 
@ 027   ----------------------------------------
 .byte   An3
 .byte   N44 ,An4
 .byte   W48
 .byte   N23 ,Gn3
 .byte   N23 ,Gn4
 .byte   W24
 .byte   Fs3
 .byte   N23 ,Fs4
 .byte   W24
@ 028   ----------------------------------------
Label_1_012B05C6:
 .byte   N68 ,En3 ,v088
 .byte   N68 ,En4
 .byte   W72
 .byte   N23 ,Fs3
 .byte   N23 ,Fs4
 .byte   W24
 .byte   PEND 
@ 029   ----------------------------------------
 .byte   N44 ,Gn3
 .byte   N44 ,Gn4
 .byte   W48
 .byte   Fs3
 .byte   N44 ,Fs4
 .byte   W48
@ 030   ----------------------------------------
 .byte   PATT
  .word Label_1_012B05AE
@ 031   ----------------------------------------
 .byte   N44 ,Cn4 ,v088
 .byte   N44 ,Cn5
 .byte   W48
 .byte   N23 ,Bn3
 .byte   N23 ,Bn4
 .byte   W24
 .byte   An3
 .byte   N23 ,An4
 .byte   W24
@ 032   ----------------------------------------
 .byte   PATT
  .word Label_1_012B05C6
@ 033   ----------------------------------------
 .byte   N44 ,Fs3 ,v088
 .byte   N44 ,Fs4
 .byte   W48
 .byte   N17 ,Fs3
 .byte   N17 ,Fs4
 .byte   W18
 .byte   Gn3
 .byte   N17 ,Gn4
 .byte   W18
 .byte   N11 ,An3
 .byte   N11 ,An4
 .byte   W12
@ 034   ----------------------------------------
 .byte   N96 ,En3
 .byte   N96 ,En4
 .byte   W96
@ 035   ----------------------------------------
 .byte   N92 ,En3
 .byte   N92 ,En4
 .byte   W96
@ 036   ----------------------------------------
 .byte   W96
@ 037   ----------------------------------------
 .byte   W72
 .byte   GOTO
  .word Label_1_012B0572
@ 038   ----------------------------------------
 .byte   W24
 .byte   W96
@ 039   ----------------------------------------
 .byte   W96
@ 040   ----------------------------------------
 .byte   W96
@ 041   ----------------------------------------
 .byte   W96
@ 042   ----------------------------------------
 .byte   W08
 .byte   FINE

@**************** Track 3 (Midi-Chn.2) ****************@

song93_003:
@ 000   ----------------------------------------
 .byte   KEYSH , song93_key+0
 .byte   VOICE , 48
 .byte   VOL , 34*song93_mvl/mxv
 .byte   PAN , c_v+0
 .byte   W96
@ 001   ----------------------------------------
 .byte   W72
Label_2_012B0B0A:
 .byte   W24
@ 002   ----------------------------------------
 .byte   W96
@ 003   ----------------------------------------
 .byte   W96
@ 004   ----------------------------------------
 .byte   W96
@ 005   ----------------------------------------
 .byte   W96
@ 006   ----------------------------------------
 .byte   W96
@ 007   ----------------------------------------
 .byte   W96
@ 008   ----------------------------------------
 .byte   W96
@ 009   ----------------------------------------
 .byte   W96
@ 010   ----------------------------------------
 .byte   N96 ,Gn3 ,v076
 .byte   N96 ,Bn3
 .byte   W96
@ 011   ----------------------------------------
 .byte   N72 ,An3
 .byte   N72 ,Cn4
 .byte   W72
 .byte   N24 ,Fs3
 .byte   N24 ,An3
 .byte   W24
@ 012   ----------------------------------------
 .byte   N48 ,Gn3
 .byte   N48 ,Bn3
 .byte   W48
 .byte   N96 ,En3
 .byte   N96 ,Gn3
 .byte   W48
@ 013   ----------------------------------------
 .byte   W48
 .byte   N48 ,Fs3
 .byte   N48 ,An3
 .byte   W48
@ 014   ----------------------------------------
 .byte   TIE ,Dn3
 .byte   TIE ,Fs3
 .byte   W96
@ 015   ----------------------------------------
 .byte   W48
 .byte   EOT
 .byte   Dn3 ,v066
 .byte   N48 ,En3
 .byte   N48 ,Gn3
 .byte   W48
@ 016   ----------------------------------------
 .byte   TIE ,Bn2
 .byte   N96 ,En3
 .byte   W96
@ 017   ----------------------------------------
 .byte   N72 ,Dn3
 .byte   W72
 .byte   N24 ,En3
 .byte   W24
@ 018   ----------------------------------------
 .byte   EOT
 .byte   Bn2
 .byte   N72 ,En2 ,v080
 .byte   W72
 .byte   N24 ,Dn2
 .byte   W24
@ 019   ----------------------------------------
 .byte   N48 ,En2
 .byte   W48
 .byte   N24 ,Gn2
 .byte   W24
 .byte   An2
 .byte   W24
@ 020   ----------------------------------------
 .byte   N90 ,Dn3
 .byte   W96
@ 021   ----------------------------------------
 .byte   N48 ,Cn3
 .byte   W48
 .byte   An2
 .byte   W48
@ 022   ----------------------------------------
 .byte   N90 ,Bn2
 .byte   W96
@ 023   ----------------------------------------
 .byte   N48 ,An2
 .byte   W48
 .byte   Dn3
 .byte   W48
@ 024   ----------------------------------------
 .byte   TIE ,Bn2
 .byte   W96
@ 025   ----------------------------------------
 .byte   W72
 .byte   EOT
 .byte   W24
@ 026   ----------------------------------------
 .byte   TIE ,Gn2 ,v076
 .byte   N96 ,Bn2
 .byte   W96
@ 027   ----------------------------------------
 .byte   Cn3
 .byte   W96
@ 028   ----------------------------------------
 .byte   EOT
 .byte   Gn2
 .byte   N96 ,An2
 .byte   N72 ,Cn3
 .byte   W72
 .byte   N24 ,Dn3
 .byte   W24
@ 029   ----------------------------------------
 .byte   N96 ,Bn2
 .byte   N48 ,En3
 .byte   W48
 .byte   Ds3
 .byte   W48
@ 030   ----------------------------------------
 .byte   N96 ,Gn2
 .byte   N96 ,Bn2
 .byte   W96
@ 031   ----------------------------------------
 .byte   En2
 .byte   N96 ,Gn2
 .byte   W96
@ 032   ----------------------------------------
 .byte   N72 ,En2
 .byte   N72 ,An2
 .byte   W72
 .byte   N24 ,En2
 .byte   N24 ,An2
 .byte   W24
@ 033   ----------------------------------------
 .byte   N48 ,Fs2 ,v088
 .byte   N48 ,An2
 .byte   W48
 .byte   N18 ,Fs2
 .byte   N18 ,An2
 .byte   W18
 .byte   Fs2
 .byte   N18 ,Bn2
 .byte   W18
 .byte   N12 ,Fs2
 .byte   N12 ,Cn3
 .byte   W12
@ 034   ----------------------------------------
 .byte   TIE ,Gn2 ,v068
 .byte   TIE ,Bn2 ,v076
 .byte   W96
@ 035   ----------------------------------------
 .byte   W96
@ 036   ----------------------------------------
 .byte   EOT
 .byte   Gn2 ,v059
 .byte   TIE ,En2 ,v056
 .byte   TIE ,Gn2 ,v068
 .byte   W96
@ 037   ----------------------------------------
 .byte   W72
 .byte   GOTO
  .word Label_2_012B0B0A
@ 038   ----------------------------------------
 .byte   W24
 .byte   EOT
 .byte   En2 ,v055
 .byte   W96
@ 039   ----------------------------------------
 .byte   W96
@ 040   ----------------------------------------
 .byte   W96
@ 041   ----------------------------------------
 .byte   W96
@ 042   ----------------------------------------
 .byte   W08
 .byte   FINE

@**************** Track 4 (Midi-Chn.3) ****************@

song93_004:
@ 000   ----------------------------------------
 .byte   KEYSH , song93_key+0
 .byte   VOICE , 48
 .byte   VOL , 34*song93_mvl/mxv
 .byte   PAN , c_v+12
 .byte   W96
@ 001   ----------------------------------------
 .byte   W72
Label_3_012B06E2:
 .byte   W24
@ 002   ----------------------------------------
 .byte   W96
@ 003   ----------------------------------------
 .byte   W96
@ 004   ----------------------------------------
 .byte   W96
@ 005   ----------------------------------------
 .byte   W96
@ 006   ----------------------------------------
 .byte   W96
@ 007   ----------------------------------------
 .byte   W96
@ 008   ----------------------------------------
 .byte   W96
@ 009   ----------------------------------------
 .byte   W96
@ 010   ----------------------------------------
 .byte   W96
@ 011   ----------------------------------------
 .byte   W96
@ 012   ----------------------------------------
 .byte   W96
@ 013   ----------------------------------------
 .byte   W96
@ 014   ----------------------------------------
 .byte   W96
@ 015   ----------------------------------------
 .byte   W96
@ 016   ----------------------------------------
 .byte   W96
@ 017   ----------------------------------------
 .byte   W96
@ 018   ----------------------------------------
 .byte   N72 ,Bn1 ,v080
 .byte   W72
 .byte   N24
 .byte   W24
@ 019   ----------------------------------------
 .byte   N48
 .byte   W48
 .byte   N24 ,En2
 .byte   W24
 .byte   N24
 .byte   W24
@ 020   ----------------------------------------
 .byte   N90 ,Bn2
 .byte   W96
@ 021   ----------------------------------------
 .byte   N48 ,An2
 .byte   W48
 .byte   Fs2
 .byte   W48
@ 022   ----------------------------------------
 .byte   N90 ,Gn2
 .byte   W96
@ 023   ----------------------------------------
 .byte   N48 ,Fs2
 .byte   W48
 .byte   N48
 .byte   W48
@ 024   ----------------------------------------
 .byte   TIE ,Gn2
 .byte   W96
@ 025   ----------------------------------------
 .byte   W72
 .byte   EOT
 .byte   W24
@ 026   ----------------------------------------
 .byte   N96 ,En0
 .byte   N96 ,En1
 .byte   W96
@ 027   ----------------------------------------
 .byte   Cn0
 .byte   N96 ,Cn1
 .byte   W96
@ 028   ----------------------------------------
 .byte   AnM1
 .byte   N96 ,An0
 .byte   W96
@ 029   ----------------------------------------
 .byte   BnM1
 .byte   N96 ,Bn0
 .byte   W96
@ 030   ----------------------------------------
 .byte   En0
 .byte   N96 ,En1
 .byte   W96
@ 031   ----------------------------------------
 .byte   Cn0
 .byte   N96 ,Cn1
 .byte   W96
@ 032   ----------------------------------------
 .byte   AnM1
 .byte   N96 ,An0
 .byte   W96
@ 033   ----------------------------------------
 .byte   BnM1
 .byte   N96 ,Bn0
 .byte   W96
@ 034   ----------------------------------------
 .byte   W96
@ 035   ----------------------------------------
 .byte   W96
@ 036   ----------------------------------------
 .byte   W96
@ 037   ----------------------------------------
 .byte   W72
 .byte   GOTO
  .word Label_3_012B06E2
@ 038   ----------------------------------------
 .byte   W24
 .byte   W96
@ 039   ----------------------------------------
 .byte   W96
@ 040   ----------------------------------------
 .byte   W96
@ 041   ----------------------------------------
 .byte   W96
@ 042   ----------------------------------------
 .byte   W08
 .byte   FINE

@**************** Track 5 (Midi-Chn.4) ****************@

song93_005:
@ 000   ----------------------------------------
 .byte   KEYSH , song93_key+0
 .byte   VOICE , 61
 .byte   VOL , 27*song93_mvl/mxv
 .byte   PAN , c_v-6
 .byte   N03 ,Dn2 ,v100
 .byte   N03 ,En2 ,v112
 .byte   N03 ,Gn2
 .byte   W24
 .byte   Dn2 ,v092
 .byte   N03 ,En2 ,v100
 .byte   N03 ,Gn2
 .byte   W24
 .byte   Dn2
 .byte   N03 ,En2 ,v112
 .byte   N03 ,Gn2
 .byte   W24
 .byte   Dn2 ,v100
 .byte   N03 ,En2 ,v112
 .byte   N03 ,Gn2
 .byte   W12
 .byte   Dn2 ,v092
 .byte   N03 ,En2 ,v100
 .byte   N03 ,Gn2
 .byte   W12
@ 001   ----------------------------------------
Label_4_01305924:
 .byte   N03 ,Dn2 ,v100
 .byte   N03 ,En2 ,v112
 .byte   N03 ,Gn2
 .byte   W24
 .byte   Dn2 ,v092
 .byte   N03 ,En2 ,v100
 .byte   N03 ,Gn2
 .byte   W24
 .byte   Dn2
 .byte   N03 ,En2 ,v112
 .byte   N03 ,Gn2
 .byte   W24
 .byte   PEND 
Label_4_0130593D:
 .byte   N03 ,Dn2 ,v100
 .byte   N03 ,En2 ,v112
 .byte   N03 ,Gn2
 .byte   W12
 .byte   Dn2 ,v092
 .byte   N03 ,En2 ,v100
 .byte   N03 ,Gn2
 .byte   W12
@ 002   ----------------------------------------
Label_4_0130594E:
 .byte   N03 ,Dn2 ,v100
 .byte   N03 ,En2 ,v112
 .byte   N03 ,Gn2
 .byte   W24
 .byte   Dn2 ,v092
 .byte   N03 ,En2 ,v100
 .byte   N03 ,Gn2
 .byte   W24
 .byte   Dn2
 .byte   N03 ,En2 ,v112
 .byte   N03 ,Gn2
 .byte   W24
 .byte   Dn2 ,v100
 .byte   N03 ,En2 ,v112
 .byte   N03 ,Gn2
 .byte   W12
 .byte   Dn2 ,v092
 .byte   N03 ,En2 ,v100
 .byte   N03 ,Gn2
 .byte   W12
 .byte   PEND 
@ 003   ----------------------------------------
 .byte   PATT
  .word Label_4_0130594E
@ 004   ----------------------------------------
 .byte   PATT
  .word Label_4_0130594E
@ 005   ----------------------------------------
 .byte   PATT
  .word Label_4_0130594E
@ 006   ----------------------------------------
 .byte   PATT
  .word Label_4_0130594E
@ 007   ----------------------------------------
 .byte   PATT
  .word Label_4_0130594E
@ 008   ----------------------------------------
 .byte   PATT
  .word Label_4_0130594E
@ 009   ----------------------------------------
 .byte   PATT
  .word Label_4_0130594E
@ 010   ----------------------------------------
 .byte   PATT
  .word Label_4_0130594E
@ 011   ----------------------------------------
 .byte   PATT
  .word Label_4_0130594E
@ 012   ----------------------------------------
 .byte   PATT
  .word Label_4_0130594E
@ 013   ----------------------------------------
 .byte   PATT
  .word Label_4_0130594E
@ 014   ----------------------------------------
 .byte   PATT
  .word Label_4_0130594E
@ 015   ----------------------------------------
 .byte   PATT
  .word Label_4_0130594E
@ 016   ----------------------------------------
 .byte   PATT
  .word Label_4_0130594E
@ 017   ----------------------------------------
 .byte   PATT
  .word Label_4_0130594E
@ 018   ----------------------------------------
 .byte   PATT
  .word Label_4_0130594E
@ 019   ----------------------------------------
 .byte   PATT
  .word Label_4_0130594E
@ 020   ----------------------------------------
 .byte   PATT
  .word Label_4_0130594E
@ 021   ----------------------------------------
 .byte   PATT
  .word Label_4_0130594E
@ 022   ----------------------------------------
 .byte   PATT
  .word Label_4_0130594E
@ 023   ----------------------------------------
 .byte   PATT
  .word Label_4_0130594E
@ 024   ----------------------------------------
 .byte   PATT
  .word Label_4_0130594E
@ 025   ----------------------------------------
 .byte   PATT
  .word Label_4_0130594E
@ 026   ----------------------------------------
 .byte   TIE ,Gn2 ,v100
 .byte   N96 ,Bn2
 .byte   W96
@ 027   ----------------------------------------
 .byte   TIE ,Cn3
 .byte   W96
@ 028   ----------------------------------------
 .byte   EOT
 .byte   Gn2
 .byte   N96 ,An2
 .byte   W72
 .byte   N24 ,Dn3
 .byte   W01
 .byte   EOT
 .byte   Cn3
 .byte   W23
@ 029   ----------------------------------------
 .byte   TIE ,Bn2
 .byte   N48 ,En3
 .byte   W48
 .byte   Ds3
 .byte   W48
@ 030   ----------------------------------------
 .byte   TIE ,Gn2
 .byte   W96
@ 031   ----------------------------------------
 .byte   EOT
 .byte   Bn2
 .byte   TIE ,En2
 .byte   W96
@ 032   ----------------------------------------
 .byte   EOT
 .byte   Gn2
 .byte   TIE ,An2
 .byte   W96
@ 033   ----------------------------------------
 .byte   Fs2 ,v112
 .byte   W01
 .byte   EOT
 .byte   En2
 .byte   W64
 .byte   W01
 .byte   N19 ,Bn2
 .byte   W01
 .byte   EOT
 .byte   An2
 .byte   W17
 .byte   N13 ,Cn3
 .byte   W12
@ 034   ----------------------------------------
 .byte   N03 ,Dn2 ,v100
 .byte   N03 ,En2 ,v112
 .byte   N03 ,Bn2
 .byte   W01
 .byte   EOT
 .byte   Fs2
 .byte   W23
 .byte   N03 ,Dn2 ,v092
 .byte   N03 ,En2 ,v100
 .byte   N03 ,Gn2
 .byte   W24
 .byte   Dn2
 .byte   N03 ,En2 ,v112
 .byte   N03 ,Gn2
 .byte   W24
 .byte   Dn2 ,v100
 .byte   N03 ,En2 ,v112
 .byte   N03 ,Gn2
 .byte   W12
 .byte   Dn2 ,v092
 .byte   N03 ,En2 ,v100
 .byte   N03 ,Gn2
 .byte   W12
@ 035   ----------------------------------------
 .byte   PATT
  .word Label_4_0130594E
@ 036   ----------------------------------------
 .byte   PATT
  .word Label_4_0130594E
@ 037   ----------------------------------------
 .byte   PATT
  .word Label_4_01305924
@ 038   ----------------------------------------
 .byte   GOTO
  .word Label_4_0130593D
@ 039   ----------------------------------------
 .byte   N03 ,Dn2 ,v100
 .byte   N03 ,En2 ,v112
 .byte   N03 ,Gn2
 .byte   W12
 .byte   Dn2 ,v092
 .byte   N03 ,En2 ,v100
 .byte   N03 ,Gn2
 .byte   W12
@ 040   ----------------------------------------
 .byte   PATT
  .word Label_4_0130594E
@ 041   ----------------------------------------
 .byte   PATT
  .word Label_4_0130594E
@ 042   ----------------------------------------
 .byte   PATT
  .word Label_4_0130594E
@ 043   ----------------------------------------
 .byte   PATT
  .word Label_4_0130594E
@ 044   ----------------------------------------
 .byte   W08
 .byte   FINE

@**************** Track 6 (Midi-Chn.5) ****************@

song93_006:
@ 000   ----------------------------------------
 .byte   KEYSH , song93_key+0
 .byte   VOICE , 48
 .byte   VOL , 34*song93_mvl/mxv
 .byte   PAN , c_v+4
 .byte   N06 ,En1 ,v092
 .byte   N06 ,En2
 .byte   W24
 .byte   En1
 .byte   N06 ,En2
 .byte   W08
 .byte   En1 ,v080
 .byte   N06 ,En2
 .byte   W08
 .byte   En1
 .byte   N06 ,En2
 .byte   W08
 .byte   En1
 .byte   N06 ,En2
 .byte   W24
 .byte   En1 ,v088
 .byte   N06 ,En2
 .byte   W24
@ 001   ----------------------------------------
Label_5_01305AB0:
 .byte   N06 ,En1 ,v092
 .byte   N06 ,En2
 .byte   W24
 .byte   En1
 .byte   N06 ,En2
 .byte   W08
 .byte   En1 ,v080
 .byte   N06 ,En2
 .byte   W08
 .byte   En1
 .byte   N06 ,En2
 .byte   W08
 .byte   En1
 .byte   N06 ,En2
 .byte   W24
 .byte   PEND 
Label_5_01305AC8:
 .byte   N06 ,En1 ,v088
 .byte   N06 ,En2
 .byte   W12
 .byte   En1 ,v092
 .byte   N06 ,En2
 .byte   W12
@ 002   ----------------------------------------
Label_5_01305AD3:
 .byte   N06 ,En1 ,v092
 .byte   N06 ,En2
 .byte   W24
 .byte   En1
 .byte   N06 ,En2
 .byte   W08
 .byte   En1 ,v080
 .byte   N06 ,En2
 .byte   W08
 .byte   En1
 .byte   N06 ,En2
 .byte   W08
 .byte   En1
 .byte   N06 ,En2
 .byte   W24
 .byte   En1 ,v088
 .byte   N06 ,En2
 .byte   W24
 .byte   PEND 
@ 003   ----------------------------------------
Label_5_01305AF0:
 .byte   N06 ,En1 ,v092
 .byte   N06 ,En2
 .byte   W24
 .byte   En1
 .byte   N06 ,En2
 .byte   W08
 .byte   En1 ,v080
 .byte   N06 ,En2
 .byte   W08
 .byte   En1
 .byte   N06 ,En2
 .byte   W08
 .byte   En1
 .byte   N06 ,En2
 .byte   W24
 .byte   En1 ,v088
 .byte   N06 ,En2
 .byte   W12
 .byte   En1 ,v092
 .byte   N06 ,En2
 .byte   W12
 .byte   PEND 
@ 004   ----------------------------------------
 .byte   PATT
  .word Label_5_01305AD3
@ 005   ----------------------------------------
 .byte   PATT
  .word Label_5_01305AF0
@ 006   ----------------------------------------
 .byte   PATT
  .word Label_5_01305AD3
@ 007   ----------------------------------------
 .byte   PATT
  .word Label_5_01305AF0
@ 008   ----------------------------------------
 .byte   PATT
  .word Label_5_01305AD3
@ 009   ----------------------------------------
 .byte   PATT
  .word Label_5_01305AF0
@ 010   ----------------------------------------
 .byte   PATT
  .word Label_5_01305AD3
@ 011   ----------------------------------------
 .byte   PATT
  .word Label_5_01305AF0
@ 012   ----------------------------------------
 .byte   PATT
  .word Label_5_01305AD3
@ 013   ----------------------------------------
 .byte   PATT
  .word Label_5_01305AF0
@ 014   ----------------------------------------
 .byte   PATT
  .word Label_5_01305AD3
@ 015   ----------------------------------------
 .byte   PATT
  .word Label_5_01305AF0
@ 016   ----------------------------------------
 .byte   PATT
  .word Label_5_01305AD3
@ 017   ----------------------------------------
 .byte   PATT
  .word Label_5_01305AF0
@ 018   ----------------------------------------
Label_5_01305B58:
 .byte   N06 ,En1 ,v100
 .byte   N06 ,En2
 .byte   W24
 .byte   En1
 .byte   N06 ,En2
 .byte   W08
 .byte   En1 ,v092
 .byte   N06 ,En2
 .byte   W08
 .byte   En1
 .byte   N06 ,En2
 .byte   W08
 .byte   En1
 .byte   N06 ,En2
 .byte   W24
 .byte   En1 ,v096
 .byte   N06 ,En2
 .byte   W24
 .byte   PEND 
@ 019   ----------------------------------------
Label_5_01305B75:
 .byte   N06 ,En1 ,v100
 .byte   N06 ,En2
 .byte   W24
 .byte   En1
 .byte   N06 ,En2
 .byte   W08
 .byte   En1 ,v092
 .byte   N06 ,En2
 .byte   W08
 .byte   En1
 .byte   N06 ,En2
 .byte   W08
 .byte   En1
 .byte   N06 ,En2
 .byte   W24
 .byte   En1 ,v096
 .byte   N06 ,En2
 .byte   W12
 .byte   En1 ,v100
 .byte   N06 ,En2
 .byte   W12
 .byte   PEND 
@ 020   ----------------------------------------
 .byte   PATT
  .word Label_5_01305B58
@ 021   ----------------------------------------
 .byte   PATT
  .word Label_5_01305B75
@ 022   ----------------------------------------
 .byte   PATT
  .word Label_5_01305B58
@ 023   ----------------------------------------
 .byte   PATT
  .word Label_5_01305B75
@ 024   ----------------------------------------
 .byte   PATT
  .word Label_5_01305B58
@ 025   ----------------------------------------
 .byte   PATT
  .word Label_5_01305B75
@ 026   ----------------------------------------
 .byte   W96
@ 027   ----------------------------------------
 .byte   W96
@ 028   ----------------------------------------
 .byte   W96
@ 029   ----------------------------------------
 .byte   W96
@ 030   ----------------------------------------
 .byte   W96
@ 031   ----------------------------------------
 .byte   W96
@ 032   ----------------------------------------
 .byte   W96
@ 033   ----------------------------------------
 .byte   W96
@ 034   ----------------------------------------
 .byte   PATT
  .word Label_5_01305AD3
@ 035   ----------------------------------------
 .byte   PATT
  .word Label_5_01305AF0
@ 036   ----------------------------------------
 .byte   PATT
  .word Label_5_01305AD3
@ 037   ----------------------------------------
 .byte   PATT
  .word Label_5_01305AB0
@ 038   ----------------------------------------
 .byte   GOTO
  .word Label_5_01305AC8
@ 039   ----------------------------------------
 .byte   N06 ,En1 ,v088
 .byte   N06 ,En2
 .byte   W12
 .byte   En1 ,v092
 .byte   N06 ,En2
 .byte   W12
@ 040   ----------------------------------------
 .byte   PATT
  .word Label_5_01305AD3
@ 041   ----------------------------------------
 .byte   PATT
  .word Label_5_01305AF0
@ 042   ----------------------------------------
 .byte   PATT
  .word Label_5_01305AD3
@ 043   ----------------------------------------
 .byte   PATT
  .word Label_5_01305AF0
@ 044   ----------------------------------------
 .byte   W08
 .byte   FINE

@**************** Track 7 (Midi-Chn.6) ****************@

song93_007:
@ 000   ----------------------------------------
 .byte   KEYSH , song93_key+0
 .byte   VOICE , 60
 .byte   VOL , 37*song93_mvl/mxv
 .byte   PAN , c_v+16
 .byte   N06 ,En1 ,v120
 .byte   W24
 .byte   N06
 .byte   W08
 .byte   En1 ,v112
 .byte   W08
 .byte   N06
 .byte   W08
 .byte   N06
 .byte   W24
 .byte   En1 ,v116
 .byte   W24
@ 001   ----------------------------------------
Label_6_012B0874:
 .byte   N06 ,En1 ,v120
 .byte   W24
 .byte   N06
 .byte   W08
 .byte   En1 ,v112
 .byte   W08
 .byte   N06
 .byte   W08
 .byte   N06
 .byte   W24
 .byte   PEND 
Label_6_012B0882:
 .byte   N06 ,En1 ,v116
 .byte   W12
 .byte   En1 ,v120
 .byte   W12
@ 002   ----------------------------------------
Label_6_012B0889:
 .byte   N06 ,En1 ,v120
 .byte   W24
 .byte   N06
 .byte   W08
 .byte   En1 ,v112
 .byte   W08
 .byte   N06
 .byte   W08
 .byte   N06
 .byte   W24
 .byte   En1 ,v116
 .byte   W24
 .byte   PEND 
@ 003   ----------------------------------------
Label_6_012B089A:
 .byte   N06 ,En1 ,v120
 .byte   W24
 .byte   N06
 .byte   W08
 .byte   En1 ,v112
 .byte   W08
 .byte   N06
 .byte   W08
 .byte   N06
 .byte   W24
 .byte   En1 ,v116
 .byte   W12
 .byte   En1 ,v120
 .byte   W12
 .byte   PEND 
@ 004   ----------------------------------------
 .byte   PATT
  .word Label_6_012B0889
@ 005   ----------------------------------------
 .byte   PATT
  .word Label_6_012B089A
@ 006   ----------------------------------------
 .byte   PATT
  .word Label_6_012B0889
@ 007   ----------------------------------------
 .byte   PATT
  .word Label_6_012B089A
@ 008   ----------------------------------------
 .byte   PATT
  .word Label_6_012B0889
@ 009   ----------------------------------------
 .byte   PATT
  .word Label_6_012B089A
@ 010   ----------------------------------------
 .byte   PATT
  .word Label_6_012B0889
@ 011   ----------------------------------------
 .byte   PATT
  .word Label_6_012B089A
@ 012   ----------------------------------------
 .byte   PATT
  .word Label_6_012B0889
@ 013   ----------------------------------------
 .byte   PATT
  .word Label_6_012B089A
@ 014   ----------------------------------------
 .byte   PATT
  .word Label_6_012B0889
@ 015   ----------------------------------------
 .byte   PATT
  .word Label_6_012B089A
@ 016   ----------------------------------------
 .byte   PATT
  .word Label_6_012B0889
@ 017   ----------------------------------------
 .byte   PATT
  .word Label_6_012B089A
@ 018   ----------------------------------------
Label_6_012B08F4:
 .byte   N06 ,En1 ,v127
 .byte   W24
 .byte   N06
 .byte   W08
 .byte   En1 ,v120
 .byte   W08
 .byte   N06
 .byte   W08
 .byte   N06
 .byte   W24
 .byte   En1 ,v127
 .byte   W24
 .byte   PEND 
@ 019   ----------------------------------------
Label_6_012B0905:
 .byte   N06 ,En1 ,v127
 .byte   W24
 .byte   N06
 .byte   W08
 .byte   En1 ,v120
 .byte   W08
 .byte   N06
 .byte   W08
 .byte   N06
 .byte   W24
 .byte   En1 ,v127
 .byte   W12
 .byte   N06
 .byte   W12
 .byte   PEND 
@ 020   ----------------------------------------
 .byte   PATT
  .word Label_6_012B08F4
@ 021   ----------------------------------------
 .byte   PATT
  .word Label_6_012B0905
@ 022   ----------------------------------------
 .byte   PATT
  .word Label_6_012B08F4
@ 023   ----------------------------------------
 .byte   PATT
  .word Label_6_012B0905
@ 024   ----------------------------------------
 .byte   PATT
  .word Label_6_012B08F4
@ 025   ----------------------------------------
 .byte   PATT
  .word Label_6_012B0905
@ 026   ----------------------------------------
 .byte   N96 ,En1 ,v112
 .byte   W96
@ 027   ----------------------------------------
 .byte   Cn2
 .byte   W96
@ 028   ----------------------------------------
 .byte   An1
 .byte   W96
@ 029   ----------------------------------------
 .byte   Bn1
 .byte   W96
@ 030   ----------------------------------------
 .byte   En1
 .byte   W96
@ 031   ----------------------------------------
 .byte   Cn2
 .byte   W96
@ 032   ----------------------------------------
 .byte   An1
 .byte   W96
@ 033   ----------------------------------------
 .byte   N48 ,Bn1
 .byte   W48
 .byte   N16 ,Bn1 ,v127
 .byte   W18
 .byte   N16
 .byte   W18
 .byte   N10
 .byte   W12
@ 034   ----------------------------------------
 .byte   PATT
  .word Label_6_012B0889
@ 035   ----------------------------------------
 .byte   PATT
  .word Label_6_012B089A
@ 036   ----------------------------------------
 .byte   PATT
  .word Label_6_012B0889
@ 037   ----------------------------------------
 .byte   PATT
  .word Label_6_012B0874
@ 038   ----------------------------------------
 .byte   GOTO
  .word Label_6_012B0882
@ 039   ----------------------------------------
 .byte   N06 ,En1 ,v116
 .byte   W12
 .byte   En1 ,v120
 .byte   W12
@ 040   ----------------------------------------
 .byte   PATT
  .word Label_6_012B0889
@ 041   ----------------------------------------
 .byte   PATT
  .word Label_6_012B089A
@ 042   ----------------------------------------
 .byte   PATT
  .word Label_6_012B0889
@ 043   ----------------------------------------
 .byte   PATT
  .word Label_6_012B089A
@ 044   ----------------------------------------
 .byte   W08
 .byte   FINE

@**************** Track 8 (Midi-Chn.7) ****************@

song93_008:
@ 000   ----------------------------------------
 .byte   KEYSH , song93_key+0
 .byte   VOICE , 46
 .byte   VOL , 27*song93_mvl/mxv
 .byte   PAN , c_v-24
 .byte   W96
@ 001   ----------------------------------------
 .byte   W72
Label_7_01305C02:
 .byte   W24
@ 002   ----------------------------------------
 .byte   W96
@ 003   ----------------------------------------
 .byte   W96
@ 004   ----------------------------------------
 .byte   W96
@ 005   ----------------------------------------
 .byte   W96
@ 006   ----------------------------------------
 .byte   W96
@ 007   ----------------------------------------
 .byte   W96
@ 008   ----------------------------------------
 .byte   W96
@ 009   ----------------------------------------
 .byte   W96
@ 010   ----------------------------------------
Label_7_01305C0B:
 .byte   N12 ,Bn4 ,v100
 .byte   W12
 .byte   Gn4
 .byte   W12
 .byte   En4
 .byte   W12
 .byte   Dn4
 .byte   W12
 .byte   Bn4
 .byte   W12
 .byte   Gn4
 .byte   W12
 .byte   En4
 .byte   W12
 .byte   Dn4
 .byte   W12
 .byte   PEND 
@ 011   ----------------------------------------
 .byte   PATT
  .word Label_7_01305C0B
@ 012   ----------------------------------------
 .byte   PATT
  .word Label_7_01305C0B
@ 013   ----------------------------------------
 .byte   PATT
  .word Label_7_01305C0B
@ 014   ----------------------------------------
 .byte   PATT
  .word Label_7_01305C0B
@ 015   ----------------------------------------
 .byte   PATT
  .word Label_7_01305C0B
@ 016   ----------------------------------------
 .byte   PATT
  .word Label_7_01305C0B
@ 017   ----------------------------------------
 .byte   PATT
  .word Label_7_01305C0B
@ 018   ----------------------------------------
 .byte   W96
@ 019   ----------------------------------------
 .byte   W96
@ 020   ----------------------------------------
 .byte   W96
@ 021   ----------------------------------------
 .byte   W96
@ 022   ----------------------------------------
 .byte   W96
@ 023   ----------------------------------------
 .byte   W96
@ 024   ----------------------------------------
 .byte   W96
@ 025   ----------------------------------------
 .byte   W96
@ 026   ----------------------------------------
 .byte   W96
@ 027   ----------------------------------------
 .byte   W96
@ 028   ----------------------------------------
 .byte   W96
@ 029   ----------------------------------------
 .byte   W96
@ 030   ----------------------------------------
 .byte   W96
@ 031   ----------------------------------------
 .byte   W96
@ 032   ----------------------------------------
 .byte   W96
@ 033   ----------------------------------------
 .byte   W96
@ 034   ----------------------------------------
 .byte   W96
@ 035   ----------------------------------------
 .byte   W96
@ 036   ----------------------------------------
 .byte   W96
@ 037   ----------------------------------------
 .byte   W72
 .byte   GOTO
  .word Label_7_01305C02
@ 038   ----------------------------------------
 .byte   W24
 .byte   W96
@ 039   ----------------------------------------
 .byte   W96
@ 040   ----------------------------------------
 .byte   W96
@ 041   ----------------------------------------
 .byte   W96
@ 042   ----------------------------------------
 .byte   W08
 .byte   FINE

@**************** Track 9 (Midi-Chn.8) ****************@

song93_009:
@ 000   ----------------------------------------
 .byte   KEYSH , song93_key+0
 .byte   VOICE , 46
 .byte   VOL , 32*song93_mvl/mxv
 .byte   PAN , c_v+6
 .byte   W96
@ 001   ----------------------------------------
 .byte   W72
Label_8_01305C6E:
 .byte   W24
@ 002   ----------------------------------------
 .byte   W96
@ 003   ----------------------------------------
 .byte   W96
@ 004   ----------------------------------------
 .byte   W96
@ 005   ----------------------------------------
 .byte   W96
@ 006   ----------------------------------------
 .byte   W96
@ 007   ----------------------------------------
 .byte   W96
@ 008   ----------------------------------------
 .byte   W96
@ 009   ----------------------------------------
 .byte   W96
@ 010   ----------------------------------------
Label_8_01305C77:
 .byte   W09
 .byte   N12 ,Bn4 ,v072
 .byte   W12
 .byte   Gn4
 .byte   W12
 .byte   En4
 .byte   W12
 .byte   Dn4
 .byte   W12
 .byte   Bn4
 .byte   W12
 .byte   Gn4
 .byte   W12
 .byte   En4
 .byte   W12
 .byte   Dn4
 .byte   W03
 .byte   PEND 
@ 011   ----------------------------------------
 .byte   PATT
  .word Label_8_01305C77
@ 012   ----------------------------------------
 .byte   PATT
  .word Label_8_01305C77
@ 013   ----------------------------------------
 .byte   PATT
  .word Label_8_01305C77
@ 014   ----------------------------------------
 .byte   PATT
  .word Label_8_01305C77
@ 015   ----------------------------------------
 .byte   PATT
  .word Label_8_01305C77
@ 016   ----------------------------------------
 .byte   PATT
  .word Label_8_01305C77
@ 017   ----------------------------------------
 .byte   PATT
  .word Label_8_01305C77
@ 018   ----------------------------------------
 .byte   W96
@ 019   ----------------------------------------
 .byte   W96
@ 020   ----------------------------------------
 .byte   W96
@ 021   ----------------------------------------
 .byte   W96
@ 022   ----------------------------------------
 .byte   W96
@ 023   ----------------------------------------
 .byte   W96
@ 024   ----------------------------------------
 .byte   W96
@ 025   ----------------------------------------
 .byte   W96
@ 026   ----------------------------------------
 .byte   W96
@ 027   ----------------------------------------
 .byte   W96
@ 028   ----------------------------------------
 .byte   W96
@ 029   ----------------------------------------
 .byte   W96
@ 030   ----------------------------------------
 .byte   W96
@ 031   ----------------------------------------
 .byte   W96
@ 032   ----------------------------------------
 .byte   W96
@ 033   ----------------------------------------
 .byte   W96
@ 034   ----------------------------------------
 .byte   W96
@ 035   ----------------------------------------
 .byte   W96
@ 036   ----------------------------------------
 .byte   W96
@ 037   ----------------------------------------
 .byte   W72
 .byte   GOTO
  .word Label_8_01305C6E
@ 038   ----------------------------------------
 .byte   W24
 .byte   W96
@ 039   ----------------------------------------
 .byte   W96
@ 040   ----------------------------------------
 .byte   W96
@ 041   ----------------------------------------
 .byte   W96
@ 042   ----------------------------------------
 .byte   W08
 .byte   FINE

@**************** Track 10 (Midi-Chn.9) ****************@

song93_010:
@ 000   ----------------------------------------
 .byte   KEYSH , song93_key+0
 .byte   VOICE , 14
 .byte   VOL , 31*song93_mvl/mxv
 .byte   PAN , c_v-2
 .byte   N96 ,En3 ,v096
 .byte   W01
 .byte   N92 ,Bn2 ,v100
 .byte   W92
 .byte   W03
@ 001   ----------------------------------------
 .byte   W72
Label_9_01305CE2:
 .byte   W24
@ 002   ----------------------------------------
Label_9_01305CE3:
 .byte   N96 ,En3 ,v096
 .byte   W01
 .byte   N92 ,Bn2 ,v100
 .byte   W92
 .byte   W03
 .byte   PEND 
@ 003   ----------------------------------------
 .byte   W96
@ 004   ----------------------------------------
 .byte   PATT
  .word Label_9_01305CE3
@ 005   ----------------------------------------
 .byte   W96
@ 006   ----------------------------------------
 .byte   PATT
  .word Label_9_01305CE3
@ 007   ----------------------------------------
 .byte   W96
@ 008   ----------------------------------------
 .byte   PATT
  .word Label_9_01305CE3
@ 009   ----------------------------------------
 .byte   W96
@ 010   ----------------------------------------
 .byte   PATT
  .word Label_9_01305CE3
@ 011   ----------------------------------------
 .byte   W96
@ 012   ----------------------------------------
 .byte   PATT
  .word Label_9_01305CE3
@ 013   ----------------------------------------
 .byte   W96
@ 014   ----------------------------------------
 .byte   PATT
  .word Label_9_01305CE3
@ 015   ----------------------------------------
 .byte   W96
@ 016   ----------------------------------------
 .byte   PATT
  .word Label_9_01305CE3
@ 017   ----------------------------------------
 .byte   W96
@ 018   ----------------------------------------
 .byte   PATT
  .word Label_9_01305CE3
@ 019   ----------------------------------------
 .byte   W96
@ 020   ----------------------------------------
 .byte   PATT
  .word Label_9_01305CE3
@ 021   ----------------------------------------
 .byte   W96
@ 022   ----------------------------------------
 .byte   PATT
  .word Label_9_01305CE3
@ 023   ----------------------------------------
 .byte   W96
@ 024   ----------------------------------------
 .byte   N96 ,En3 ,v096
 .byte   W03
 .byte   N92 ,Bn2 ,v100
 .byte   W92
 .byte   W01
@ 025   ----------------------------------------
 .byte   W96
@ 026   ----------------------------------------
 .byte   PATT
  .word Label_9_01305CE3
@ 027   ----------------------------------------
 .byte   W96
@ 028   ----------------------------------------
Label_9_01305D3A:
 .byte   N96 ,En3 ,v096
 .byte   W01
 .byte   N92 ,An2 ,v100
 .byte   W92
 .byte   W03
 .byte   PEND 
@ 029   ----------------------------------------
 .byte   PATT
  .word Label_9_01305CE3
@ 030   ----------------------------------------
 .byte   PATT
  .word Label_9_01305CE3
@ 031   ----------------------------------------
 .byte   W96
@ 032   ----------------------------------------
 .byte   PATT
  .word Label_9_01305D3A
@ 033   ----------------------------------------
 .byte   PATT
  .word Label_9_01305CE3
@ 034   ----------------------------------------
 .byte   W96
@ 035   ----------------------------------------
 .byte   W96
@ 036   ----------------------------------------
 .byte   W96
@ 037   ----------------------------------------
 .byte   W72
 .byte   GOTO
  .word Label_9_01305CE2
@ 038   ----------------------------------------
 .byte   W24
@ 039   ----------------------------------------
 .byte   PATT
  .word Label_9_01305CE3
@ 040   ----------------------------------------
 .byte   W96
@ 041   ----------------------------------------
 .byte   PATT
  .word Label_9_01305CE3
@ 042   ----------------------------------------
 .byte   W96
@ 043   ----------------------------------------
 .byte   W08
 .byte   FINE

@**************** Track 11 (Midi-Chn.10) ****************@

song93_011:
@ 000   ----------------------------------------
 .byte   KEYSH , song93_key+0
 .byte   VOICE , 60
 .byte   VOL , 18*song93_mvl/mxv
 .byte   PAN , c_v-44
 .byte   BEND , c_v+1
 .byte   W96
@ 001   ----------------------------------------
 .byte   W72
Label_10_01305D80:
 .byte   W08
 .byte   N24 ,Bn2 ,v112
 .byte   W16
@ 002   ----------------------------------------
Label_10_01305D85:
 .byte   W08
 .byte   N72 ,En2 ,v112
 .byte   W72
 .byte   N24 ,Dn2
 .byte   W16
 .byte   PEND 
@ 003   ----------------------------------------
Label_10_01305D8E:
 .byte   W08
 .byte   N48 ,En2 ,v112
 .byte   W48
 .byte   N24 ,Gn2
 .byte   W24
 .byte   An2
 .byte   W16
 .byte   PEND 
@ 004   ----------------------------------------
 .byte   W08
 .byte   N90 ,Dn3
 .byte   W88
@ 005   ----------------------------------------
Label_10_01305D9D:
 .byte   W08
 .byte   N48 ,Cn3 ,v112
 .byte   W48
 .byte   An2
 .byte   W40
 .byte   PEND 
@ 006   ----------------------------------------
 .byte   W08
 .byte   N90 ,Bn2
 .byte   W88
@ 007   ----------------------------------------
 .byte   W08
 .byte   N48 ,An2
 .byte   W48
 .byte   Fs2
 .byte   W40
@ 008   ----------------------------------------
 .byte   W08
 .byte   TIE ,Gn2
 .byte   W88
@ 009   ----------------------------------------
 .byte   W80
 .byte   EOT
 .byte   W16
@ 010   ----------------------------------------
 .byte   W96
@ 011   ----------------------------------------
 .byte   W96
@ 012   ----------------------------------------
 .byte   W96
@ 013   ----------------------------------------
 .byte   W96
@ 014   ----------------------------------------
 .byte   W96
@ 015   ----------------------------------------
 .byte   W96
@ 016   ----------------------------------------
 .byte   W96
@ 017   ----------------------------------------
 .byte   W80
 .byte   N24 ,Bn2
 .byte   W16
@ 018   ----------------------------------------
 .byte   PATT
  .word Label_10_01305D85
@ 019   ----------------------------------------
 .byte   PATT
  .word Label_10_01305D8E
@ 020   ----------------------------------------
 .byte   W08
 .byte   N90 ,Dn3 ,v112
 .byte   W88
@ 021   ----------------------------------------
 .byte   PATT
  .word Label_10_01305D9D
@ 022   ----------------------------------------
 .byte   W08
 .byte   N90 ,Bn2 ,v112
 .byte   W88
@ 023   ----------------------------------------
 .byte   W08
 .byte   N48 ,An2
 .byte   W48
 .byte   Dn3
 .byte   W40
@ 024   ----------------------------------------
 .byte   W08
 .byte   TIE ,En3
 .byte   W88
@ 025   ----------------------------------------
 .byte   W80
 .byte   EOT
 .byte   W16
@ 026   ----------------------------------------
 .byte   W96
@ 027   ----------------------------------------
 .byte   W96
@ 028   ----------------------------------------
 .byte   W96
@ 029   ----------------------------------------
 .byte   W96
@ 030   ----------------------------------------
 .byte   W96
@ 031   ----------------------------------------
 .byte   W96
@ 032   ----------------------------------------
 .byte   W96
@ 033   ----------------------------------------
 .byte   W96
@ 034   ----------------------------------------
 .byte   W96
@ 035   ----------------------------------------
 .byte   W96
@ 036   ----------------------------------------
 .byte   W96
@ 037   ----------------------------------------
 .byte   W72
 .byte   GOTO
  .word Label_10_01305D80
@ 038   ----------------------------------------
 .byte   W08
 .byte   N24 ,Bn2 ,v112
 .byte   W16
@ 039   ----------------------------------------
 .byte   PATT
  .word Label_10_01305D85
@ 040   ----------------------------------------
 .byte   PATT
  .word Label_10_01305D8E
@ 041   ----------------------------------------
 .byte   W08
 .byte   N90 ,Dn3 ,v112
 .byte   W88
@ 042   ----------------------------------------
 .byte   PATT
  .word Label_10_01305D9D
@ 043   ----------------------------------------
 .byte   W08
 .byte   FINE

@**************** Track 12 (Midi-Chn.11) ****************@

song93_012:
@ 000   ----------------------------------------
 .byte   KEYSH , song93_key+0
 .byte   VOICE , 127
 .byte   VOL , 34*song93_mvl/mxv
 .byte   PAN , c_v+0
 .byte   N06 ,Dn1 ,v064
 .byte   W12
 .byte   Dn1 ,v060
 .byte   W12
 .byte   N01 ,Dn1 ,v080
 .byte   W01
 .byte   N04
 .byte   W05
 .byte   N06 ,Dn1 ,v060
 .byte   W06
 .byte   Dn1 ,v068
 .byte   W06
 .byte   Dn1 ,v080
 .byte   W06
 .byte   Dn1 ,v088
 .byte   W12
 .byte   Dn1 ,v068
 .byte   W36
@ 001   ----------------------------------------
 .byte   Dn1 ,v100
 .byte   N96 ,En2 ,v120
 .byte   W12
 .byte   N06 ,Dn1 ,v060
 .byte   W12
 .byte   N02
 .byte   W02
 .byte   N02
 .byte   W02
 .byte   N02
 .byte   W02
 .byte   Dn1 ,v068
 .byte   W03
 .byte   N02
 .byte   W03
 .byte   N06
 .byte   W06
 .byte   Dn1 ,v080
 .byte   W06
 .byte   Dn1 ,v088
 .byte   W12
 .byte   Dn1 ,v048
 .byte   W06
 .byte   Dn1 ,v068
 .byte   W06
Label_11_01305E5C:
 .byte   N06 ,Dn1 ,v088
 .byte   W12
 .byte   Dn1 ,v068
 .byte   N04 ,Cs2 ,v100
 .byte   W06
 .byte   N06 ,Dn1
 .byte   N06 ,Cs2 ,v108
 .byte   W06
@ 002   ----------------------------------------
 .byte   Dn1 ,v060
 .byte   N24 ,Cs2 ,v120
 .byte   N96 ,An2 ,v112
 .byte   W12
 .byte   N06 ,Dn1 ,v080
 .byte   W12
 .byte   N01
 .byte   W01
 .byte   N04 ,Dn1 ,v060
 .byte   W05
 .byte   N06 ,Dn1 ,v068
 .byte   W06
 .byte   Dn1 ,v080
 .byte   W06
 .byte   Dn1 ,v088
 .byte   W06
 .byte   Dn1 ,v068
 .byte   W12
 .byte   Dn1 ,v100
 .byte   W36
@ 003   ----------------------------------------
 .byte   Dn1 ,v060
 .byte   W12
 .byte   N06
 .byte   W12
 .byte   N02
 .byte   W02
 .byte   N02
 .byte   W02
 .byte   Dn1 ,v068
 .byte   W02
 .byte   N02
 .byte   W03
 .byte   N02
 .byte   W03
 .byte   N06 ,Dn1 ,v080
 .byte   W06
 .byte   Dn1 ,v088
 .byte   W06
 .byte   Dn1 ,v048
 .byte   W12
 .byte   Dn1 ,v068
 .byte   W06
 .byte   Dn1 ,v088
 .byte   W06
 .byte   Dn1 ,v060
 .byte   W12
 .byte   Dn1 ,v068
 .byte   N04 ,Cs2 ,v100
 .byte   W06
 .byte   N06 ,Dn1
 .byte   N06 ,Cs2 ,v108
 .byte   W06
@ 004   ----------------------------------------
Label_11_01305EBE:
 .byte   N06 ,Dn1 ,v060
 .byte   N24 ,Cs2 ,v120
 .byte   W12
 .byte   N06 ,Dn1 ,v080
 .byte   W12
 .byte   N01
 .byte   W01
 .byte   N04 ,Dn1 ,v060
 .byte   W05
 .byte   N06 ,Dn1 ,v068
 .byte   W06
 .byte   Dn1 ,v080
 .byte   W06
 .byte   Dn1 ,v088
 .byte   W06
 .byte   Dn1 ,v100
 .byte   W12
 .byte   N06
 .byte   W36
 .byte   PEND 
@ 005   ----------------------------------------
Label_11_01305EDF:
 .byte   N06 ,Dn1 ,v060
 .byte   W12
 .byte   N06
 .byte   W12
 .byte   N02
 .byte   W02
 .byte   N02
 .byte   W02
 .byte   Dn1 ,v068
 .byte   W02
 .byte   N02
 .byte   W03
 .byte   Dn1 ,v080
 .byte   W03
 .byte   N06 ,Dn1 ,v088
 .byte   W06
 .byte   Dn1 ,v100
 .byte   W06
 .byte   Dn1 ,v060
 .byte   W12
 .byte   Dn1 ,v080
 .byte   W06
 .byte   Dn1 ,v088
 .byte   W06
 .byte   Dn1 ,v060
 .byte   W12
 .byte   Dn1 ,v068
 .byte   N04 ,Cs2 ,v100
 .byte   W06
 .byte   N06 ,Dn1
 .byte   N06 ,Cs2 ,v108
 .byte   W06
 .byte   PEND 
@ 006   ----------------------------------------
 .byte   PATT
  .word Label_11_01305EBE
@ 007   ----------------------------------------
 .byte   PATT
  .word Label_11_01305EDF
@ 008   ----------------------------------------
 .byte   PATT
  .word Label_11_01305EBE
@ 009   ----------------------------------------
 .byte   PATT
  .word Label_11_01305EDF
@ 010   ----------------------------------------
 .byte   N06 ,Dn1 ,v060
 .byte   N24 ,Cs2 ,v120
 .byte   N96 ,An2 ,v104
 .byte   W12
 .byte   N06 ,Dn1 ,v080
 .byte   W12
 .byte   N01
 .byte   W01
 .byte   N04 ,Dn1 ,v060
 .byte   W05
 .byte   N06 ,Dn1 ,v068
 .byte   W06
 .byte   Dn1 ,v080
 .byte   W06
 .byte   Dn1 ,v088
 .byte   W06
 .byte   Dn1 ,v100
 .byte   W12
 .byte   N06
 .byte   W36
@ 011   ----------------------------------------
 .byte   Dn1 ,v060
 .byte   W12
 .byte   N06
 .byte   W12
 .byte   N02
 .byte   W02
 .byte   N02
 .byte   W02
 .byte   Dn1 ,v068
 .byte   W02
 .byte   N02
 .byte   W03
 .byte   Dn1 ,v080
 .byte   W03
 .byte   N06 ,Dn1 ,v088
 .byte   W06
 .byte   Dn1 ,v100
 .byte   W06
 .byte   Dn1 ,v060
 .byte   W12
 .byte   Dn1 ,v080
 .byte   W06
 .byte   Dn1 ,v088
 .byte   W06
 .byte   Dn1 ,v060
 .byte   W12
 .byte   Dn1 ,v068
 .byte   N04 ,Cs2 ,v100
 .byte   W06
 .byte   N06 ,Dn1 ,v056
 .byte   N06 ,Cs2 ,v108
 .byte   W06
@ 012   ----------------------------------------
Label_11_01305F79:
 .byte   N06 ,Dn1 ,v076
 .byte   N24 ,Cs2 ,v120
 .byte   W12
 .byte   N06 ,Dn1 ,v076
 .byte   W12
 .byte   N01 ,Dn1 ,v056
 .byte   W01
 .byte   N04 ,Dn1 ,v068
 .byte   W05
 .byte   N06 ,Dn1 ,v076
 .byte   W06
 .byte   Dn1 ,v088
 .byte   W06
 .byte   Dn1 ,v096
 .byte   W06
 .byte   N06
 .byte   W12
 .byte   Dn1 ,v056
 .byte   W36
 .byte   PEND 
@ 013   ----------------------------------------
Label_11_01305F9C:
 .byte   N06 ,Dn1 ,v056
 .byte   W12
 .byte   N06
 .byte   W12
 .byte   N02
 .byte   W02
 .byte   Dn1 ,v068
 .byte   W02
 .byte   N02
 .byte   W02
 .byte   Dn1 ,v076
 .byte   W03
 .byte   Dn1 ,v088
 .byte   W03
 .byte   N06 ,Dn1 ,v096
 .byte   W06
 .byte   Dn1 ,v056
 .byte   W06
 .byte   Dn1 ,v076
 .byte   W12
 .byte   Dn1 ,v088
 .byte   W06
 .byte   Dn1 ,v056
 .byte   W06
 .byte   Dn1 ,v068
 .byte   W12
 .byte   Dn1 ,v096
 .byte   N04 ,Cs2 ,v100
 .byte   W06
 .byte   N06 ,Dn1 ,v056
 .byte   N06 ,Cs2 ,v108
 .byte   W06
 .byte   PEND 
@ 014   ----------------------------------------
 .byte   PATT
  .word Label_11_01305F79
@ 015   ----------------------------------------
 .byte   PATT
  .word Label_11_01305F9C
@ 016   ----------------------------------------
 .byte   PATT
  .word Label_11_01305F79
@ 017   ----------------------------------------
 .byte   PATT
  .word Label_11_01305F9C
@ 018   ----------------------------------------
Label_11_01305FE4:
 .byte   N06 ,Dn1 ,v076
 .byte   N24 ,Cs2 ,v120
 .byte   N96 ,An2 ,v104
 .byte   W12
 .byte   N06 ,Dn1 ,v076
 .byte   W12
 .byte   N01 ,Dn1 ,v056
 .byte   W01
 .byte   N04 ,Dn1 ,v068
 .byte   W05
 .byte   N06 ,Dn1 ,v076
 .byte   W06
 .byte   Dn1 ,v088
 .byte   W06
 .byte   Dn1 ,v096
 .byte   W06
 .byte   N06
 .byte   W12
 .byte   Dn1 ,v056
 .byte   W36
 .byte   PEND 
@ 019   ----------------------------------------
 .byte   PATT
  .word Label_11_01305F9C
@ 020   ----------------------------------------
 .byte   PATT
  .word Label_11_01305F79
@ 021   ----------------------------------------
 .byte   PATT
  .word Label_11_01305F9C
@ 022   ----------------------------------------
 .byte   PATT
  .word Label_11_01305F79
@ 023   ----------------------------------------
 .byte   PATT
  .word Label_11_01305F9C
@ 024   ----------------------------------------
 .byte   PATT
  .word Label_11_01305F79
@ 025   ----------------------------------------
Label_11_01306028:
 .byte   N06 ,Dn1 ,v056
 .byte   N96 ,En2 ,v120
 .byte   W12
 .byte   N06 ,Dn1 ,v056
 .byte   W12
 .byte   N02
 .byte   W02
 .byte   Dn1 ,v068
 .byte   W02
 .byte   N02
 .byte   W02
 .byte   Dn1 ,v076
 .byte   W03
 .byte   Dn1 ,v088
 .byte   W03
 .byte   N06 ,Dn1 ,v096
 .byte   W06
 .byte   Dn1 ,v056
 .byte   W06
 .byte   Dn1 ,v076
 .byte   W12
 .byte   Dn1 ,v088
 .byte   W06
 .byte   Dn1 ,v056
 .byte   W06
 .byte   Dn1 ,v068
 .byte   W12
 .byte   Dn1 ,v096
 .byte   N04 ,Cs2 ,v100
 .byte   W06
 .byte   N06 ,Dn1 ,v056
 .byte   N06 ,Cs2 ,v108
 .byte   W06
 .byte   PEND 
@ 026   ----------------------------------------
 .byte   Dn1 ,v076
 .byte   N24 ,Cs2 ,v120
 .byte   N96 ,An2 ,v104
 .byte   W96
@ 027   ----------------------------------------
 .byte   W84
 .byte   N04 ,Cs2 ,v100
 .byte   W04
 .byte   Cs2 ,v108
 .byte   W04
 .byte   Cs2 ,v112
 .byte   W04
@ 028   ----------------------------------------
 .byte   N24 ,Cs2 ,v120
 .byte   N96 ,An2 ,v104
 .byte   W96
@ 029   ----------------------------------------
 .byte   En2 ,v120
 .byte   W84
 .byte   N04 ,Cs2 ,v100
 .byte   W04
 .byte   Cs2 ,v108
 .byte   W04
 .byte   Cs2 ,v112
 .byte   W04
@ 030   ----------------------------------------
 .byte   N06 ,Dn1 ,v076
 .byte   N24 ,Cs2 ,v120
 .byte   N96 ,An2 ,v104
 .byte   W12
 .byte   N06 ,Dn1 ,v056
 .byte   W12
 .byte   N01 ,Dn1 ,v068
 .byte   W01
 .byte   N04 ,Dn1 ,v076
 .byte   W05
 .byte   N06 ,Dn1 ,v088
 .byte   W06
 .byte   Dn1 ,v096
 .byte   W06
 .byte   N06
 .byte   W06
 .byte   Dn1 ,v056
 .byte   W12
 .byte   N06
 .byte   W36
@ 031   ----------------------------------------
 .byte   N06
 .byte   W12
 .byte   N06
 .byte   W12
 .byte   N02 ,Dn1 ,v068
 .byte   W02
 .byte   N02
 .byte   W02
 .byte   Dn1 ,v076
 .byte   W02
 .byte   Dn1 ,v088
 .byte   W03
 .byte   Dn1 ,v096
 .byte   W03
 .byte   N06 ,Dn1 ,v056
 .byte   W06
 .byte   Dn1 ,v076
 .byte   W06
 .byte   Dn1 ,v088
 .byte   W12
 .byte   Dn1 ,v056
 .byte   W06
 .byte   Dn1 ,v068
 .byte   W06
 .byte   Dn1 ,v096
 .byte   W12
 .byte   Dn1 ,v056
 .byte   N04 ,Cs2 ,v100
 .byte   W04
 .byte   Cs2 ,v108
 .byte   W04
 .byte   Cs2 ,v112
 .byte   W04
@ 032   ----------------------------------------
 .byte   PATT
  .word Label_11_01305FE4
@ 033   ----------------------------------------
 .byte   PATT
  .word Label_11_01306028
@ 034   ----------------------------------------
 .byte   N06 ,Dn1 ,v076
 .byte   N24 ,Cs2 ,v120
 .byte   N96 ,An2 ,v104
 .byte   W12
 .byte   N06 ,Dn1 ,v076
 .byte   W12
 .byte   N01 ,Dn1 ,v056
 .byte   W01
 .byte   N04 ,Dn1 ,v068
 .byte   N44 ,Cs2 ,v100
 .byte   W05
 .byte   N06 ,Dn1 ,v076
 .byte   W06
 .byte   Dn1 ,v088
 .byte   W06
 .byte   Dn1 ,v096
 .byte   W06
 .byte   N06
 .byte   W12
 .byte   Dn1 ,v056
 .byte   W12
 .byte   N24 ,Cs2 ,v100
 .byte   W24
@ 035   ----------------------------------------
 .byte   N06 ,Dn1 ,v056
 .byte   N24 ,Cs2 ,v120
 .byte   W12
 .byte   N06 ,Dn1 ,v056
 .byte   W12
 .byte   N02
 .byte   W02
 .byte   Dn1 ,v068
 .byte   N44 ,Cs2 ,v100
 .byte   W02
 .byte   N02 ,Dn1 ,v068
 .byte   W02
 .byte   Dn1 ,v076
 .byte   W03
 .byte   Dn1 ,v088
 .byte   W03
 .byte   N06 ,Dn1 ,v096
 .byte   W06
 .byte   Dn1 ,v056
 .byte   W06
 .byte   Dn1 ,v076
 .byte   W12
 .byte   Dn1 ,v088
 .byte   W06
 .byte   Dn1 ,v056
 .byte   W06
 .byte   Dn1 ,v068
 .byte   N24 ,Cs2 ,v100
 .byte   W12
 .byte   N06 ,Dn1 ,v096
 .byte   W06
 .byte   Dn1 ,v056
 .byte   W06
@ 036   ----------------------------------------
 .byte   Dn1 ,v076
 .byte   N24 ,Cs2 ,v120
 .byte   W12
 .byte   N06 ,Dn1 ,v076
 .byte   W12
 .byte   N01 ,Dn1 ,v056
 .byte   W01
 .byte   N04 ,Dn1 ,v068
 .byte   N44 ,Cs2 ,v100
 .byte   W05
 .byte   N06 ,Dn1 ,v076
 .byte   W06
 .byte   Dn1 ,v088
 .byte   W06
 .byte   Dn1 ,v096
 .byte   W06
 .byte   N06
 .byte   W12
 .byte   Dn1 ,v056
 .byte   W12
 .byte   N24 ,Cs2 ,v100
 .byte   W24
@ 037   ----------------------------------------
 .byte   N06 ,Dn1 ,v056
 .byte   N24 ,Cs2 ,v120
 .byte   N96 ,En2
 .byte   W12
 .byte   N06 ,Dn1 ,v056
 .byte   W12
 .byte   N02
 .byte   W02
 .byte   Dn1 ,v068
 .byte   N44 ,Cs2 ,v100
 .byte   W02
 .byte   N02 ,Dn1 ,v068
 .byte   W02
 .byte   Dn1 ,v076
 .byte   W03
 .byte   Dn1 ,v088
 .byte   W03
 .byte   N06 ,Dn1 ,v096
 .byte   W06
 .byte   Dn1 ,v056
 .byte   W06
 .byte   Dn1 ,v076
 .byte   W12
 .byte   Dn1 ,v088
 .byte   W06
 .byte   Dn1 ,v056
 .byte   W06
 .byte   GOTO
  .word Label_11_01305E5C
@ 038   ----------------------------------------
 .byte   N06 ,Dn1 ,v068
 .byte   N24 ,Cs2 ,v100
 .byte   W12
 .byte   N06 ,Dn1 ,v096
 .byte   W06
 .byte   Dn1 ,v056
 .byte   W06
@ 039   ----------------------------------------
 .byte   PATT
  .word Label_11_01305FE4
@ 040   ----------------------------------------
 .byte   PATT
  .word Label_11_01305F9C
@ 041   ----------------------------------------
 .byte   PATT
  .word Label_11_01305F79
@ 042   ----------------------------------------
 .byte   N06 ,Dn1 ,v056
 .byte   W12
 .byte   N06
 .byte   W12
 .byte   N02
 .byte   W02
 .byte   Dn1 ,v068
 .byte   W02
 .byte   N02
 .byte   W02
 .byte   Dn1 ,v076
 .byte   W03
 .byte   Dn1 ,v088
 .byte   W03
 .byte   N06 ,Dn1 ,v096
 .byte   W06
 .byte   Dn1 ,v056
 .byte   W06
 .byte   Dn1 ,v076
 .byte   W12
 .byte   Dn1 ,v088
 .byte   W06
 .byte   Dn1 ,v056
 .byte   W06
 .byte   Dn1 ,v068
 .byte   W12
 .byte   Dn1 ,v096
 .byte   N04 ,Cs2 ,v100
 .byte   W06
 .byte   N06 ,Dn1 ,v084
 .byte   N06 ,Cs2 ,v108
 .byte   W06
@ 043   ----------------------------------------
 .byte   W08
 .byte   FINE

@******************************************************@
	.align	2

song93:
	.byte	12	@ NumTrks
	.byte	0	@ NumBlks
	.byte	song93_pri	@ Priority
	.byte	song93_rev	@ Reverb.
    
	.word	song93_grp
    
	.word	song93_001
	.word	song93_002
	.word	song93_003
	.word	song93_004
	.word	song93_005
	.word	song93_006
	.word	song93_007
	.word	song93_008
	.word	song93_009
	.word	song93_010
	.word	song93_011
	.word	song93_012

	.end
