//Event file generated from Sappy .s format.
	#include "MPlayDef.event"

	#define	song34_grp  voicegroup001
	#define	song34_pri  0
	#define	song34_rev  0
	#define	song34_mvl  127
	#define	song34_key  0
	#define	song34_tbs  1
	#define	song34_exg  0
	#define	song34_cmp  1

	// .rodata
	//	song34
	ALIGN 4


//**************** Track 1 (Midi-Chn.0) ****************//

song34_001:
// 000   ----------------------------------------
 BYTE   KEYSH   song34_key+0
Label_0_01205A72:
 BYTE   TEMPO   108*song34_tbs/2
 BYTE   VOICE   124
 BYTE   VOL   32*song34_mvl/mxv
 BYTE   PAN   c_v+0
 BYTE   BEND   c_v+0
 BYTE   N36  An2  v127
 BYTE   W06
 BYTE   N05  En1  v056
 BYTE   W06
 BYTE   En1  v044
 BYTE   W06
 BYTE   En1  v028
 BYTE   W06
 BYTE   En1  v076
 BYTE   W06
 BYTE   En1  v088
 BYTE   W06
 BYTE   En1  v100
 BYTE   W06
 BYTE   En1  v056
 BYTE   W06
 BYTE   En1  v044
 BYTE   W06
 BYTE   En1  v028
 BYTE   W06
 BYTE   En1  v016
 BYTE   W12
 BYTE   En1  v076
 BYTE   W06
 BYTE   En1  v100
 BYTE   W06
 BYTE   En1  v056
 BYTE   W06
 BYTE   En1  v044
 BYTE   W06
// 001   ----------------------------------------
Label_0_01205AAB:
 BYTE   N05  En1  v116
 BYTE   W06
 BYTE   En1  v056
 BYTE   W06
 BYTE   En1  v044
 BYTE   W06
 BYTE   En1  v028
 BYTE   W06
 BYTE   En1  v076
 BYTE   W06
 BYTE   En1  v088
 BYTE   W06
 BYTE   En1  v100
 BYTE   W06
 BYTE   En1  v056
 BYTE   W06
 BYTE   En1  v044
 BYTE   W06
 BYTE   En1  v028
 BYTE   W06
 BYTE   En1  v016
 BYTE   W12
 BYTE   En1  v076
 BYTE   W06
 BYTE   En1  v100
 BYTE   W06
 BYTE   En1  v056
 BYTE   W06
 BYTE   En1  v044
 BYTE   W06
 BYTE   PEND 
// 002   ----------------------------------------
 BYTE   PATT
  POIN2 Label_0_01205AAB
// 003   ----------------------------------------
 BYTE   PATT
  POIN2 Label_0_01205AAB
// 004   ----------------------------------------
 BYTE   PATT
  POIN2 Label_0_01205AAB
// 005   ----------------------------------------
 BYTE   PATT
  POIN2 Label_0_01205AAB
// 006   ----------------------------------------
 BYTE   PATT
  POIN2 Label_0_01205AAB
// 007   ----------------------------------------
 BYTE   PATT
  POIN2 Label_0_01205AAB
// 008   ----------------------------------------
 BYTE   PATT
  POIN2 Label_0_01205AAB
// 009   ----------------------------------------
 BYTE   PATT
  POIN2 Label_0_01205AAB
// 010   ----------------------------------------
 BYTE   PATT
  POIN2 Label_0_01205AAB
// 011   ----------------------------------------
 BYTE   PATT
  POIN2 Label_0_01205AAB
// 012   ----------------------------------------
 BYTE   PATT
  POIN2 Label_0_01205AAB
// 013   ----------------------------------------
 BYTE   PATT
  POIN2 Label_0_01205AAB
// 014   ----------------------------------------
 BYTE   PATT
  POIN2 Label_0_01205AAB
// 015   ----------------------------------------
 BYTE   PATT
  POIN2 Label_0_01205AAB
// 016   ----------------------------------------
 BYTE   PATT
  POIN2 Label_0_01205AAB
// 017   ----------------------------------------
 BYTE   PATT
  POIN2 Label_0_01205AAB
// 018   ----------------------------------------
 BYTE   PATT
  POIN2 Label_0_01205AAB
// 019   ----------------------------------------
 BYTE   PATT
  POIN2 Label_0_01205AAB
// 020   ----------------------------------------
 BYTE   PATT
  POIN2 Label_0_01205AAB
// 021   ----------------------------------------
 BYTE   PATT
  POIN2 Label_0_01205AAB
// 022   ----------------------------------------
 BYTE   PATT
  POIN2 Label_0_01205AAB
// 023   ----------------------------------------
 BYTE   PATT
  POIN2 Label_0_01205AAB
// 024   ----------------------------------------
 BYTE   PATT
  POIN2 Label_0_01205AAB
// 025   ----------------------------------------
 BYTE   PATT
  POIN2 Label_0_01205AAB
// 026   ----------------------------------------
 BYTE   PATT
  POIN2 Label_0_01205AAB
// 027   ----------------------------------------
 BYTE   PATT
  POIN2 Label_0_01205AAB
// 028   ----------------------------------------
 BYTE   PATT
  POIN2 Label_0_01205AAB
// 029   ----------------------------------------
 BYTE   PATT
  POIN2 Label_0_01205AAB
// 030   ----------------------------------------
Label_0_01205B66:
 BYTE   N05  En3  v116
 BYTE   W06
 BYTE   En3  v056
 BYTE   W06
 BYTE   En3  v044
 BYTE   W06
 BYTE   En3  v028
 BYTE   W06
 BYTE   En3  v076
 BYTE   W06
 BYTE   En3  v088
 BYTE   W06
 BYTE   En3  v100
 BYTE   W06
 BYTE   En3  v056
 BYTE   W06
 BYTE   En3  v044
 BYTE   W06
 BYTE   En3  v028
 BYTE   W06
 BYTE   En3  v016
 BYTE   W12
 BYTE   En3  v076
 BYTE   W06
 BYTE   En3  v100
 BYTE   W06
 BYTE   En3  v056
 BYTE   W06
 BYTE   En3  v044
 BYTE   W06
 BYTE   PEND 
// 031   ----------------------------------------
 BYTE   PATT
  POIN2 Label_0_01205B66
// 032   ----------------------------------------
 BYTE   N05  An2  v116
 BYTE   W06
 BYTE   An2  v056
 BYTE   W06
 BYTE   An2  v044
 BYTE   W06
 BYTE   An2  v028
 BYTE   W06
 BYTE   An2  v076
 BYTE   W06
 BYTE   An2  v088
 BYTE   W06
 BYTE   An2  v100
 BYTE   W06
 BYTE   An2  v056
 BYTE   W06
 BYTE   An2  v044
 BYTE   W06
 BYTE   An2  v028
 BYTE   W06
 BYTE   An2  v016
 BYTE   W12
 BYTE   An2  v076
 BYTE   W06
 BYTE   An2  v100
 BYTE   W06
 BYTE   An2  v056
 BYTE   W06
 BYTE   An2  v044
 BYTE   W06
// 033   ----------------------------------------
 BYTE   An2  v116
 BYTE   W06
 BYTE   An2  v056
 BYTE   W06
 BYTE   An2  v044
 BYTE   W06
 BYTE   An2  v028
 BYTE   W06
 BYTE   An2  v076
 BYTE   W06
 BYTE   An2  v088
 BYTE   W06
 BYTE   An2  v100
 BYTE   W06
 BYTE   An2  v056
 BYTE   W06
 BYTE   An2  v044
 BYTE   W06
 BYTE   An2  v028
 BYTE   W06
 BYTE   An2  v016
 BYTE   W12
 BYTE   An2  v076
 BYTE   W06
 BYTE   An2  v100
 BYTE   W06
 BYTE   An2  v056
 BYTE   W06
 BYTE   An2  v044
 BYTE   W05
 BYTE   GoTo
  POIN2 Label_0_01205A72
 BYTE   FINE

//**************** Track 2 (Midi-Chn.1) ****************//

song34_002:
// 000   ----------------------------------------
 BYTE   KEYSH   song34_key+0
Label_1_01205BFE:
 BYTE   VOICE   48
 BYTE   PAN   c_v+31
 BYTE   VOL   44*song34_mvl/mxv
 BYTE   BEND   c_v+0
 BYTE   W96
// 001   ----------------------------------------
 BYTE   W48
 BYTE   W01
 BYTE   W10
 BYTE   W05
 BYTE   W05
 BYTE   W06
 BYTE   W01
 BYTE   W02
 BYTE   W01
 BYTE   W02
 BYTE   W01
 BYTE   W02
 BYTE   W01
 BYTE   W02
 BYTE   W01
 BYTE   W02
 BYTE   W01
 BYTE   W02
 BYTE   W01
 BYTE   W02
// 002   ----------------------------------------
 BYTE   N32  As3  v096
 BYTE   W01
 BYTE   W02
 BYTE   W01
 BYTE   W02
 BYTE   W01
 BYTE   W02
 BYTE   W01
 BYTE   W02
 BYTE   W01
 BYTE   W02
 BYTE   W01
 BYTE   W02
 BYTE   W01
 BYTE   W02
 BYTE   W01
 BYTE   W02
 BYTE   W01
 BYTE   W02
 BYTE   W01
 BYTE   W02
 BYTE   W01
 BYTE   W02
 BYTE   W01
 BYTE   W02
 BYTE   N11  Cn4
 BYTE   W01
 BYTE   W02
 BYTE   W01
 BYTE   W02
 BYTE   W01
 BYTE   W02
 BYTE   W01
 BYTE   W02
 BYTE   W01
 BYTE   W02
 BYTE   W01
 BYTE   W02
 BYTE   W01
 BYTE   W02
 BYTE   W01
 BYTE   W02
 BYTE   W01
 BYTE   W02
 BYTE   W01
 BYTE   W02
 BYTE   W01
 BYTE   W02
 BYTE   W01
 BYTE   W02
 BYTE   W01
 BYTE   W02
 BYTE   W01
 BYTE   W02
 BYTE   W01
 BYTE   W02
 BYTE   W01
 BYTE   W02
 BYTE   W01
 BYTE   W02
 BYTE   W01
 BYTE   W02
 BYTE   W01
 BYTE   W02
 BYTE   W01
 BYTE   W02
// 003   ----------------------------------------
 BYTE   W01
 BYTE   W02
 BYTE   W01
 BYTE   W02
 BYTE   W01
 BYTE   W02
 BYTE   W01
 BYTE   W02
 BYTE   W01
 BYTE   W02
 BYTE   W01
 BYTE   W02
 BYTE   W01
 BYTE   W01
 BYTE   W02
 BYTE   W01
 BYTE   W01
 BYTE   N44  As3
 BYTE   W01
 BYTE   W01
 BYTE   W02
 BYTE   W01
 BYTE   W02
 BYTE   W01
 BYTE   W02
 BYTE   W01
 BYTE   W02
 BYTE   W01
 BYTE   W02
 BYTE   W01
 BYTE   W02
 BYTE   W01
 BYTE   W02
 BYTE   W01
 BYTE   W02
 BYTE   W01
 BYTE   W01
 BYTE   W21
 BYTE   N11  Cn4
 BYTE   W02
 BYTE   W11
 BYTE   W10
 BYTE   W01
// 004   ----------------------------------------
 BYTE   W04
 BYTE   W05
 BYTE   W05
 BYTE   W04
 BYTE   N02  Gn3  v084
 BYTE   W01
 BYTE   W02
 BYTE   Gs3
 BYTE   W01
 BYTE   W02
 BYTE   TIE  An3  v096
 BYTE   W01
 BYTE   W02
 BYTE   W01
 BYTE   W02
 BYTE   W01
 BYTE   W02
 BYTE   W01
 BYTE   W01
 BYTE   W05
 BYTE   W03
 BYTE   W03
 BYTE   W03
 BYTE   W03
 BYTE   W03
 BYTE   W03
 BYTE   W03
 BYTE   W03
 BYTE   W03
 BYTE   W03
 BYTE   W01
 BYTE   W03
 BYTE   W03
 BYTE   W03
 BYTE   W03
 BYTE   W03
 BYTE   W03
 BYTE   W03
 BYTE   W03
 BYTE   W01
// 005   ----------------------------------------
 BYTE   W02
 BYTE   W03
 BYTE   W03
 BYTE   W03
 BYTE   W03
 BYTE   W03
 BYTE   W03
 BYTE   W03
 BYTE   W03
 BYTE   W03
 BYTE   W03
 BYTE   W03
 BYTE   W03
 BYTE   W03
 BYTE   W03
 BYTE   W03
 BYTE   W01
 BYTE   W02
 BYTE   W01
 BYTE   W02
 BYTE   W01
 BYTE   W02
 BYTE   W01
 BYTE   W02
 BYTE   W01
 BYTE   W02
 BYTE   W01
 BYTE   W02
 BYTE   W01
 BYTE   W02
 BYTE   W01
 BYTE   W02
 BYTE   EOT
 BYTE   W01
 BYTE   W02
 BYTE   W01
 BYTE   W02
 BYTE   W01
 BYTE   W02
 BYTE   W01
 BYTE   W02
 BYTE   W01
 BYTE   W02
 BYTE   W01
 BYTE   W01
 BYTE   W01
 BYTE   W01
 BYTE   W01
 BYTE   W01
 BYTE   W01
 BYTE   W01
 BYTE   W02
// 006   ----------------------------------------
 BYTE   N32  As3
 BYTE   W01
 BYTE   W02
 BYTE   W01
 BYTE   W02
 BYTE   W01
 BYTE   W02
 BYTE   W01
 BYTE   W02
 BYTE   W01
 BYTE   W02
 BYTE   W01
 BYTE   W02
 BYTE   W01
 BYTE   W01
 BYTE   W03
 BYTE   W03
 BYTE   W03
 BYTE   W03
 BYTE   W03
 BYTE   W01
 BYTE   N11  Cn4
 BYTE   W01
 BYTE   W02
 BYTE   W01
 BYTE   W02
 BYTE   W01
 BYTE   W02
 BYTE   W01
 BYTE   W02
 BYTE   W01
 BYTE   W02
 BYTE   W01
 BYTE   W02
 BYTE   W01
 BYTE   W02
 BYTE   W01
 BYTE   W02
 BYTE   W01
 BYTE   W02
 BYTE   W01
 BYTE   W02
 BYTE   W01
 BYTE   W02
 BYTE   W01
 BYTE   W02
 BYTE   W01
 BYTE   W02
 BYTE   W01
 BYTE   W02
 BYTE   W01
 BYTE   W02
 BYTE   W01
 BYTE   W02
 BYTE   W01
 BYTE   W02
 BYTE   W01
 BYTE   W02
 BYTE   W01
 BYTE   W02
 BYTE   W01
 BYTE   W02
// 007   ----------------------------------------
 BYTE   W01
 BYTE   W02
 BYTE   W01
 BYTE   W02
 BYTE   W01
 BYTE   W02
 BYTE   W01
 BYTE   W02
 BYTE   W01
 BYTE   W02
 BYTE   W01
 BYTE   W02
 BYTE   W01
 BYTE   W01
 BYTE   W02
 BYTE   W01
 BYTE   W01
 BYTE   N44  As3
 BYTE   W01
 BYTE   W01
 BYTE   W02
 BYTE   W01
 BYTE   W02
 BYTE   W01
 BYTE   W02
 BYTE   W02
 BYTE   W01
 BYTE   W02
 BYTE   W01
 BYTE   W02
 BYTE   W01
 BYTE   W02
 BYTE   W01
 BYTE   W02
 BYTE   W01
 BYTE   W02
 BYTE   W21
 BYTE   N11  Cn4
 BYTE   W02
 BYTE   W11
 BYTE   W10
 BYTE   W01
// 008   ----------------------------------------
 BYTE   W04
 BYTE   W05
 BYTE   W05
 BYTE   W05
 BYTE   W02
 BYTE   W01
 BYTE   W02
 BYTE   TIE  Gn3
 BYTE   W01
 BYTE   W02
 BYTE   W01
 BYTE   W02
 BYTE   W01
 BYTE   W02
 BYTE   W01
 BYTE   W01
 BYTE   W05
 BYTE   W03
 BYTE   W03
 BYTE   W03
 BYTE   W03
 BYTE   W03
 BYTE   W03
 BYTE   W03
 BYTE   W03
 BYTE   W03
 BYTE   W03
 BYTE   W01
 BYTE   W03
 BYTE   W03
 BYTE   W03
 BYTE   W03
 BYTE   W03
 BYTE   W03
 BYTE   W03
 BYTE   W03
 BYTE   W01
// 009   ----------------------------------------
 BYTE   W02
 BYTE   W03
 BYTE   W03
 BYTE   W03
 BYTE   W03
 BYTE   W03
 BYTE   W03
 BYTE   W03
 BYTE   W03
 BYTE   W03
 BYTE   W03
 BYTE   W03
 BYTE   W03
 BYTE   W03
 BYTE   W03
 BYTE   W03
 BYTE   W01
 BYTE   W02
 BYTE   W01
 BYTE   W02
 BYTE   W01
 BYTE   W02
 BYTE   W01
 BYTE   W02
 BYTE   W01
 BYTE   W02
 BYTE   W01
 BYTE   W02
 BYTE   W01
 BYTE   W02
 BYTE   W01
 BYTE   W02
 BYTE   EOT
 BYTE   W01
 BYTE   W02
 BYTE   W01
 BYTE   W02
 BYTE   W01
 BYTE   W02
 BYTE   W01
 BYTE   W02
 BYTE   W01
 BYTE   W02
 BYTE   W01
 BYTE   W01
 BYTE   W01
 BYTE   W01
 BYTE   W01
 BYTE   W01
 BYTE   W01
 BYTE   W01
 BYTE   W01
 BYTE   W01
// 010   ----------------------------------------
 BYTE   N32  As3  v088
 BYTE   W01
 BYTE   W01
 BYTE   W01
 BYTE   W01
 BYTE   W01
 BYTE   W01
 BYTE   W01
 BYTE   W01
 BYTE   W01
 BYTE   W01
 BYTE   W03
 BYTE   W03
 BYTE   W03
 BYTE   W03
 BYTE   W03
 BYTE   W03
 BYTE   W03
 BYTE   W03
 BYTE   W02
 BYTE   N11  Cn4
 BYTE   W01
 BYTE   W02
 BYTE   W01
 BYTE   W02
 BYTE   W01
 BYTE   W02
 BYTE   W01
 BYTE   W02
 BYTE   W01
 BYTE   W02
 BYTE   W01
 BYTE   W02
 BYTE   W01
 BYTE   W02
 BYTE   W01
 BYTE   W02
 BYTE   W01
 BYTE   W02
 BYTE   W01
 BYTE   W02
 BYTE   W01
 BYTE   W02
 BYTE   W01
 BYTE   W02
 BYTE   W01
 BYTE   W02
 BYTE   W01
 BYTE   W02
 BYTE   W01
 BYTE   W02
 BYTE   W01
 BYTE   W02
 BYTE   W01
 BYTE   W02
 BYTE   W01
 BYTE   W02
 BYTE   W01
 BYTE   W02
 BYTE   W01
 BYTE   W02
// 011   ----------------------------------------
Label_1_01205DF4:
 BYTE   W01
 BYTE   W02
 BYTE   W01
 BYTE   W02
 BYTE   W01
 BYTE   W02
 BYTE   W01
 BYTE   W02
 BYTE   W01
 BYTE   W02
 BYTE   W01
 BYTE   W02
 BYTE   W01
 BYTE   W01
 BYTE   W02
 BYTE   W01
 BYTE   W01
 BYTE   N44  As3  v088
 BYTE   W01
 BYTE   W01
 BYTE   W02
 BYTE   W01
 BYTE   W02
 BYTE   W01
 BYTE   W02
 BYTE   W02
 BYTE   W01
 BYTE   W02
 BYTE   W01
 BYTE   W02
 BYTE   W01
 BYTE   W02
 BYTE   W01
 BYTE   W02
 BYTE   W01
 BYTE   W02
 BYTE   W21
 BYTE   N11  Cn4
 BYTE   W02
 BYTE   W11
 BYTE   W10
 BYTE   W01
 BYTE   PEND 
// 012   ----------------------------------------
 BYTE   W04
 BYTE   W05
 BYTE   W05
 BYTE   W04
 BYTE   N02  Gn3  v084
 BYTE   W01
 BYTE   W02
 BYTE   Gs3
 BYTE   W01
 BYTE   W02
 BYTE   TIE  An3  v088
 BYTE   W01
 BYTE   W02
 BYTE   W01
 BYTE   W02
 BYTE   W01
 BYTE   W02
 BYTE   W01
 BYTE   W01
 BYTE   W05
 BYTE   W03
 BYTE   W03
 BYTE   W03
 BYTE   W03
 BYTE   W03
 BYTE   W03
 BYTE   W03
 BYTE   W03
 BYTE   W03
 BYTE   W03
 BYTE   W01
 BYTE   W03
 BYTE   W03
 BYTE   W03
 BYTE   W03
 BYTE   W03
 BYTE   W03
 BYTE   W03
 BYTE   W03
 BYTE   W01
// 013   ----------------------------------------
 BYTE   W02
 BYTE   W03
 BYTE   W03
 BYTE   W03
 BYTE   W03
 BYTE   W03
 BYTE   W03
 BYTE   W03
 BYTE   W03
 BYTE   W03
 BYTE   W03
 BYTE   W03
 BYTE   W03
 BYTE   W03
 BYTE   W03
 BYTE   W03
 BYTE   W01
 BYTE   W02
 BYTE   W01
 BYTE   W02
 BYTE   W01
 BYTE   W02
 BYTE   W01
 BYTE   W02
 BYTE   W01
 BYTE   W02
 BYTE   W01
 BYTE   W02
 BYTE   W01
 BYTE   W02
 BYTE   W01
 BYTE   W02
 BYTE   EOT
 BYTE   W01
 BYTE   W02
 BYTE   W01
 BYTE   W02
 BYTE   W01
 BYTE   W02
 BYTE   W01
 BYTE   W02
 BYTE   W01
 BYTE   W02
 BYTE   W01
 BYTE   W02
 BYTE   W01
 BYTE   W02
 BYTE   W01
 BYTE   W01
 BYTE   W01
 BYTE   W01
// 014   ----------------------------------------
 BYTE   N32  As3
 BYTE   W01
 BYTE   W01
 BYTE   W01
 BYTE   W01
 BYTE   W01
 BYTE   W01
 BYTE   W01
 BYTE   W01
 BYTE   W01
 BYTE   W01
 BYTE   W03
 BYTE   W03
 BYTE   W03
 BYTE   W03
 BYTE   W03
 BYTE   W03
 BYTE   W03
 BYTE   W03
 BYTE   W02
 BYTE   N11  Cn4
 BYTE   W01
 BYTE   W02
 BYTE   W01
 BYTE   W02
 BYTE   W01
 BYTE   W02
 BYTE   W01
 BYTE   W02
 BYTE   W01
 BYTE   W02
 BYTE   W01
 BYTE   W02
 BYTE   W01
 BYTE   W02
 BYTE   W01
 BYTE   W02
 BYTE   W01
 BYTE   W02
 BYTE   W01
 BYTE   W02
 BYTE   W01
 BYTE   W02
 BYTE   W01
 BYTE   W02
 BYTE   W01
 BYTE   W02
 BYTE   W01
 BYTE   W02
 BYTE   W01
 BYTE   W02
 BYTE   W01
 BYTE   W02
 BYTE   W01
 BYTE   W02
 BYTE   W01
 BYTE   W02
 BYTE   W01
 BYTE   W02
 BYTE   W01
 BYTE   W02
// 015   ----------------------------------------
 BYTE   PATT
  POIN2 Label_1_01205DF4
// 016   ----------------------------------------
 BYTE   W04
 BYTE   W05
 BYTE   W05
 BYTE   W05
 BYTE   W02
 BYTE   W01
 BYTE   W02
 BYTE   TIE  Dn4  v088
 BYTE   W01
 BYTE   W02
 BYTE   W01
 BYTE   W02
 BYTE   W01
 BYTE   W02
 BYTE   W01
 BYTE   W01
 BYTE   W05
 BYTE   W03
 BYTE   W03
 BYTE   W03
 BYTE   W03
 BYTE   W03
 BYTE   W03
 BYTE   W03
 BYTE   W03
 BYTE   W03
 BYTE   W03
 BYTE   W01
 BYTE   W03
 BYTE   W03
 BYTE   W03
 BYTE   W03
 BYTE   W03
 BYTE   W03
 BYTE   W03
 BYTE   W03
 BYTE   W01
// 017   ----------------------------------------
 BYTE   W02
 BYTE   W03
 BYTE   W03
 BYTE   W03
 BYTE   W03
 BYTE   W03
 BYTE   W03
 BYTE   W03
 BYTE   W03
 BYTE   W03
 BYTE   W03
 BYTE   W03
 BYTE   W03
 BYTE   W03
 BYTE   W03
 BYTE   W03
 BYTE   W01
 BYTE   W02
 BYTE   W01
 BYTE   W02
 BYTE   W01
 BYTE   W02
 BYTE   W01
 BYTE   W02
 BYTE   W01
 BYTE   W02
 BYTE   W01
 BYTE   W02
 BYTE   W01
 BYTE   W02
 BYTE   W01
 BYTE   W02
 BYTE   EOT
 BYTE   W01
 BYTE   W02
 BYTE   W01
 BYTE   W02
 BYTE   W01
 BYTE   W01
 BYTE   W17
// 018   ----------------------------------------
 BYTE   W96
// 019   ----------------------------------------
 BYTE   W96
// 020   ----------------------------------------
 BYTE   W96
// 021   ----------------------------------------
 BYTE   W96
// 022   ----------------------------------------
 BYTE   W96
// 023   ----------------------------------------
 BYTE   W96
// 024   ----------------------------------------
 BYTE   W92
 BYTE   W03
 BYTE   W01
// 025   ----------------------------------------
 BYTE   W54
 BYTE   W01
 BYTE   W02
 BYTE   W01
 BYTE   W02
 BYTE   W01
 BYTE   W02
 BYTE   W01
 BYTE   W02
 BYTE   W01
 BYTE   W02
 BYTE   W01
 BYTE   W02
 BYTE   N03  Gn3  v092
 BYTE   W01
 BYTE   W02
 BYTE   W01
 BYTE   An3
 BYTE   W02
 BYTE   W01
 BYTE   W01
 BYTE   As3
 BYTE   W01
 BYTE   W01
 BYTE   W02
 BYTE   Cn4
 BYTE   W01
 BYTE   W02
 BYTE   W01
 BYTE   Dn4
 BYTE   W02
 BYTE   W01
 BYTE   W01
 BYTE   En4
 BYTE   W01
 BYTE   W01
 BYTE   W02
// 026   ----------------------------------------
 BYTE   N32  Fn4  v096
 BYTE   W01
 BYTE   W01
 BYTE   W01
 BYTE   W02
 BYTE   W01
 BYTE   W02
 BYTE   W01
 BYTE   W02
 BYTE   W01
 BYTE   W02
 BYTE   W01
 BYTE   W02
 BYTE   W03
 BYTE   W03
 BYTE   W03
 BYTE   W03
 BYTE   W03
 BYTE   W03
 BYTE   W01
 BYTE   En4
 BYTE   W02
 BYTE   W03
 BYTE   W01
 BYTE   W03
 BYTE   W03
 BYTE   W03
 BYTE   W03
 BYTE   W03
 BYTE   W03
 BYTE   W03
 BYTE   W03
 BYTE   W03
 BYTE   W02
 BYTE   W01
 BYTE   Cn4
 BYTE   W02
 BYTE   W03
 BYTE   W03
 BYTE   W03
 BYTE   W03
 BYTE   W03
 BYTE   W03
 BYTE   W03
 BYTE   W01
// 027   ----------------------------------------
 BYTE   W02
 BYTE   W03
 BYTE   W03
 BYTE   W01
 BYTE   W03
 BYTE   N56  Dn4
 BYTE   W03
 BYTE   W03
 BYTE   W03
 BYTE   W03
 BYTE   W03
 BYTE   W03
 BYTE   W03
 BYTE   W03
 BYTE   W03
 BYTE   W03
 BYTE   W03
 BYTE   W03
 BYTE   W03
 BYTE   W03
 BYTE   W03
 BYTE   W03
 BYTE   W03
 BYTE   W03
 BYTE   W03
 BYTE   W03
 BYTE   N23  Cn4
 BYTE   W03
 BYTE   W03
 BYTE   W03
 BYTE   W03
 BYTE   W03
 BYTE   W03
 BYTE   W03
 BYTE   W03
// 028   ----------------------------------------
 BYTE   N32
 BYTE   W03
 BYTE   W03
 BYTE   W03
 BYTE   W03
 BYTE   W03
 BYTE   W03
 BYTE   W03
 BYTE   W03
 BYTE   W03
 BYTE   W03
 BYTE   W03
 BYTE   W03
 BYTE   As3
 BYTE   W01
 BYTE   W03
 BYTE   W03
 BYTE   W03
 BYTE   W03
 BYTE   W03
 BYTE   W03
 BYTE   W03
 BYTE   W03
 BYTE   W03
 BYTE   W03
 BYTE   W03
 BYTE   W02
 BYTE   An3
 BYTE   W01
 BYTE   W03
 BYTE   W03
 BYTE   W03
 BYTE   W03
 BYTE   W03
 BYTE   W03
 BYTE   W03
 BYTE   W02
// 029   ----------------------------------------
 BYTE   W01
 BYTE   W02
 BYTE   W01
 BYTE   W02
 BYTE   W01
 BYTE   W02
 BYTE   W01
 BYTE   W02
 BYTE   N56  Gn3
 BYTE   W01
 BYTE   W01
 BYTE   W03
 BYTE   W03
 BYTE   W03
 BYTE   W03
 BYTE   W03
 BYTE   W03
 BYTE   W03
 BYTE   W03
 BYTE   W03
 BYTE   W03
 BYTE   W03
 BYTE   W03
 BYTE   W03
 BYTE   W03
 BYTE   W03
 BYTE   W01
 BYTE   W01
 BYTE   W02
 BYTE   W01
 BYTE   W02
 BYTE   W01
 BYTE   W02
 BYTE   W01
 BYTE   W02
 BYTE   N23  Fn3
 BYTE   W01
 BYTE   W02
 BYTE   W01
 BYTE   W02
 BYTE   W01
 BYTE   W02
 BYTE   W01
 BYTE   W02
 BYTE   W01
 BYTE   W02
 BYTE   W01
 BYTE   W02
 BYTE   W01
 BYTE   W02
 BYTE   W03
// 030   ----------------------------------------
 BYTE   N32  Gn3
 BYTE   W03
 BYTE   W03
 BYTE   W03
 BYTE   W03
 BYTE   W03
 BYTE   W03
 BYTE   W03
 BYTE   W03
 BYTE   W03
 BYTE   W03
 BYTE   W03
 BYTE   W03
 BYTE   TIE  Cn4
 BYTE   W03
 BYTE   W03
 BYTE   W01
 BYTE   W02
 BYTE   W01
 BYTE   W02
 BYTE   W01
 BYTE   W02
 BYTE   W01
 BYTE   W02
 BYTE   W01
 BYTE   W02
 BYTE   W01
 BYTE   W02
 BYTE   W01
 BYTE   W02
 BYTE   W01
 BYTE   W02
 BYTE   W01
 BYTE   W01
 BYTE   W03
 BYTE   W03
 BYTE   W03
 BYTE   W03
 BYTE   W03
 BYTE   W03
 BYTE   W03
 BYTE   W03
 BYTE   W03
 BYTE   W01
// 031   ----------------------------------------
 BYTE   W02
 BYTE   W03
 BYTE   W03
 BYTE   W03
 BYTE   W03
 BYTE   W03
 BYTE   W03
 BYTE   W03
 BYTE   W03
 BYTE   W02
 BYTE   W03
 BYTE   W03
 BYTE   W03
 BYTE   W03
 BYTE   W03
 BYTE   W03
 BYTE   W03
 BYTE   W03
 BYTE   W03
 BYTE   W03
 BYTE   W03
 BYTE   W03
 BYTE   W02
 BYTE   W01
 BYTE   W02
 BYTE   W01
 BYTE   W01
 BYTE   EOT
 BYTE   W01
 BYTE   N23  Fn3
 BYTE   W01
 BYTE   W02
 BYTE   W01
 BYTE   W02
 BYTE   W01
 BYTE   W02
 BYTE   W01
 BYTE   W02
 BYTE   W01
 BYTE   W02
 BYTE   W01
 BYTE   W02
 BYTE   W01
 BYTE   W02
 BYTE   W01
 BYTE   W02
// 032   ----------------------------------------
 BYTE   N32  Gn3
 BYTE   W01
 BYTE   W03
 BYTE   W03
 BYTE   W03
 BYTE   W03
 BYTE   W03
 BYTE   W03
 BYTE   W02
 BYTE   W07
 BYTE   W04
 BYTE   W03
 BYTE   W01
 BYTE   TIE  Dn4
 BYTE   W03
 BYTE   W03
 BYTE   W04
 BYTE   W04
 BYTE   W03
 BYTE   W04
 BYTE   W03
 BYTE   W04
 BYTE   W03
 BYTE   W04
 BYTE   W03
 BYTE   W04
 BYTE   W04
 BYTE   W03
 BYTE   W07
 BYTE   W03
 BYTE   W01
// 033   ----------------------------------------
 BYTE   W02
 BYTE   W04
 BYTE   W03
 BYTE   W03
 BYTE   W03
 BYTE   W04
 BYTE   W03
 BYTE   W03
 BYTE   W03
 BYTE   W04
 BYTE   W03
 BYTE   W03
 BYTE   W04
 BYTE   W03
 BYTE   W03
 BYTE   W03
 BYTE   W04
 BYTE   W01
 BYTE   W02
 BYTE   W01
 BYTE   W02
 BYTE   W01
 BYTE   W02
 BYTE   W01
 BYTE   W02
 BYTE   W01
 BYTE   W02
 BYTE   W01
 BYTE   W02
 BYTE   W01
 BYTE   W02
 BYTE   W01
 BYTE   W02
 BYTE   W01
 BYTE   W02
 BYTE   W01
 BYTE   W02
 BYTE   W01
 BYTE   W02
 BYTE   W01
 BYTE   W02
 BYTE   W01
 BYTE   W01
 BYTE   W02
 BYTE   EOT
 BYTE   GoTo
  POIN2 Label_1_01205BFE
 BYTE   FINE

//**************** Track 3 (Midi-Chn.2) ****************//

song34_003:
// 000   ----------------------------------------
 BYTE   KEYSH   song34_key+0
Label_2_012060A6:
 BYTE   VOICE   48
 BYTE   PAN   c_v-32
 BYTE   VOL   40*song34_mvl/mxv
 BYTE   BEND   c_v+0
 BYTE   W96
// 001   ----------------------------------------
 BYTE   W48
 BYTE   W12
 BYTE   W04
 BYTE   W04
 BYTE   W08
 BYTE   W04
 BYTE   W04
 BYTE   W04
 BYTE   W04
 BYTE   W04
// 002   ----------------------------------------
 BYTE   N32  Cn3  v096
 BYTE   W04
 BYTE   W04
 BYTE   W04
 BYTE   W04
 BYTE   W04
 BYTE   W04
 BYTE   W04
 BYTE   W04
 BYTE   W04
 BYTE   N11  Dn3
 BYTE   W04
 BYTE   W04
 BYTE   W04
 BYTE   W04
 BYTE   W04
 BYTE   W04
 BYTE   W04
 BYTE   W04
 BYTE   W04
 BYTE   W04
 BYTE   W04
 BYTE   W04
 BYTE   W04
 BYTE   W04
 BYTE   W04
// 003   ----------------------------------------
 BYTE   W04
 BYTE   W04
 BYTE   W04
 BYTE   W04
 BYTE   W04
 BYTE   W04
 BYTE   N44  Cn3
 BYTE   W04
 BYTE   W04
 BYTE   W04
 BYTE   W04
 BYTE   W04
 BYTE   W04
 BYTE   W04
 BYTE   W20
 BYTE   N11  Dn3
 BYTE   W04
 BYTE   W12
 BYTE   W08
// 004   ----------------------------------------
 BYTE   W04
 BYTE   W04
 BYTE   W08
 BYTE   W04
 BYTE   W04
 BYTE   TIE  Bn2
 BYTE   W04
 BYTE   W04
 BYTE   W04
 BYTE   W04
 BYTE   W04
 BYTE   W04
 BYTE   W04
 BYTE   W04
 BYTE   W04
 BYTE   W04
 BYTE   W04
 BYTE   W04
 BYTE   W04
 BYTE   W04
 BYTE   W04
 BYTE   W04
 BYTE   W04
 BYTE   W04
// 005   ----------------------------------------
 BYTE   W04
 BYTE   W04
 BYTE   W04
 BYTE   W04
 BYTE   W04
 BYTE   W04
 BYTE   W04
 BYTE   W04
 BYTE   W04
 BYTE   W04
 BYTE   W04
 BYTE   W04
 BYTE   W04
 BYTE   W04
 BYTE   W04
 BYTE   W04
 BYTE   W04
 BYTE   W03
 BYTE   EOT
 BYTE   W01
 BYTE   W04
 BYTE   W04
 BYTE   W04
 BYTE   W04
 BYTE   W04
 BYTE   W04
// 006   ----------------------------------------
 BYTE   N32  Cn3
 BYTE   W04
 BYTE   W04
 BYTE   W04
 BYTE   W04
 BYTE   W04
 BYTE   W04
 BYTE   W04
 BYTE   W04
 BYTE   W04
 BYTE   N11  Dn3
 BYTE   W04
 BYTE   W04
 BYTE   W04
 BYTE   W04
 BYTE   W04
 BYTE   W04
 BYTE   W04
 BYTE   W04
 BYTE   W04
 BYTE   W04
 BYTE   W04
 BYTE   W04
 BYTE   W04
 BYTE   W04
 BYTE   W04
// 007   ----------------------------------------
 BYTE   W04
 BYTE   W04
 BYTE   W04
 BYTE   W04
 BYTE   W04
 BYTE   W04
 BYTE   N44  Cn3
 BYTE   W04
 BYTE   W04
 BYTE   W04
 BYTE   W04
 BYTE   W04
 BYTE   W04
 BYTE   W04
 BYTE   W20
 BYTE   N11  Dn3
 BYTE   W04
 BYTE   W12
 BYTE   W08
// 008   ----------------------------------------
 BYTE   W04
 BYTE   W04
 BYTE   W08
 BYTE   W04
 BYTE   W04
 BYTE   TIE  An2
 BYTE   W04
 BYTE   W04
 BYTE   W04
 BYTE   W04
 BYTE   W04
 BYTE   W04
 BYTE   W04
 BYTE   W04
 BYTE   W04
 BYTE   W04
 BYTE   W04
 BYTE   W04
 BYTE   W04
 BYTE   W04
 BYTE   W04
 BYTE   W04
 BYTE   W04
 BYTE   W04
// 009   ----------------------------------------
 BYTE   W04
 BYTE   W04
 BYTE   W04
 BYTE   W04
 BYTE   W04
 BYTE   W04
 BYTE   W04
 BYTE   W04
 BYTE   W04
 BYTE   W04
 BYTE   W04
 BYTE   W04
 BYTE   W04
 BYTE   W04
 BYTE   W04
 BYTE   W04
 BYTE   W04
 BYTE   W03
 BYTE   EOT
 BYTE   W01
 BYTE   W04
 BYTE   W04
 BYTE   W04
 BYTE   W04
 BYTE   W04
 BYTE   W04
// 010   ----------------------------------------
 BYTE   W04
 BYTE   W04
 BYTE   W04
 BYTE   W04
 BYTE   W04
 BYTE   W04
 BYTE   W04
 BYTE   W04
 BYTE   W04
 BYTE   W04
 BYTE   W04
 BYTE   W04
 BYTE   W04
 BYTE   W04
 BYTE   W04
 BYTE   W04
 BYTE   W04
 BYTE   W04
 BYTE   W04
 BYTE   W04
 BYTE   W04
 BYTE   W04
 BYTE   W04
 BYTE   W04
// 011   ----------------------------------------
Label_2_0120619A:
 BYTE   W04
 BYTE   W04
 BYTE   W04
 BYTE   W04
 BYTE   W04
 BYTE   W04
 BYTE   W04
 BYTE   W04
 BYTE   W04
 BYTE   W04
 BYTE   W04
 BYTE   W04
 BYTE   W04
 BYTE   W24
 BYTE   W12
 BYTE   W08
 BYTE   PEND 
// 012   ----------------------------------------
Label_2_012061AB:
 BYTE   W04
 BYTE   W04
 BYTE   W08
 BYTE   W04
 BYTE   W04
 BYTE   W04
 BYTE   W04
 BYTE   W04
 BYTE   W04
 BYTE   W04
 BYTE   W04
 BYTE   W04
 BYTE   W04
 BYTE   W04
 BYTE   W04
 BYTE   W04
 BYTE   W04
 BYTE   W04
 BYTE   W04
 BYTE   W04
 BYTE   W04
 BYTE   W04
 BYTE   W04
 BYTE   PEND 
// 013   ----------------------------------------
 BYTE   W04
 BYTE   W04
 BYTE   W04
 BYTE   W04
 BYTE   W04
 BYTE   W04
 BYTE   W04
 BYTE   W04
 BYTE   W04
 BYTE   W04
 BYTE   W04
 BYTE   W04
 BYTE   W04
 BYTE   W04
 BYTE   W04
 BYTE   W04
 BYTE   W04
 BYTE   W04
 BYTE   W04
 BYTE   W04
 BYTE   W04
 BYTE   W04
 BYTE   W04
 BYTE   W04
// 014   ----------------------------------------
 BYTE   W04
 BYTE   W04
 BYTE   W04
 BYTE   W04
 BYTE   W04
 BYTE   W04
 BYTE   W04
 BYTE   W04
 BYTE   W04
 BYTE   W04
 BYTE   W04
 BYTE   W04
 BYTE   W04
 BYTE   W04
 BYTE   W04
 BYTE   W04
 BYTE   W04
 BYTE   W04
 BYTE   W04
 BYTE   W04
 BYTE   W04
 BYTE   W04
 BYTE   W04
 BYTE   W04
// 015   ----------------------------------------
 BYTE   PATT
  POIN2 Label_2_0120619A
// 016   ----------------------------------------
 BYTE   PATT
  POIN2 Label_2_012061AB
// 017   ----------------------------------------
 BYTE   W04
 BYTE   W04
 BYTE   W04
 BYTE   W04
 BYTE   W04
 BYTE   W04
 BYTE   W04
 BYTE   W04
 BYTE   W04
 BYTE   W04
 BYTE   W04
 BYTE   W04
 BYTE   W04
 BYTE   W04
 BYTE   W04
 BYTE   W04
 BYTE   W04
 BYTE   W04
 BYTE   W04
 BYTE   W04
 BYTE   W16
// 018   ----------------------------------------
 BYTE   W96
// 019   ----------------------------------------
 BYTE   W96
// 020   ----------------------------------------
 BYTE   W96
// 021   ----------------------------------------
 BYTE   W96
// 022   ----------------------------------------
 BYTE   W96
// 023   ----------------------------------------
 BYTE   W96
// 024   ----------------------------------------
 BYTE   W96
// 025   ----------------------------------------
 BYTE   W56
 BYTE   W04
 BYTE   W04
 BYTE   W04
 BYTE   W04
 BYTE   N03  As2  v092
 BYTE   W04
 BYTE   Cn3
 BYTE   W04
 BYTE   Dn3
 BYTE   W04
 BYTE   En3
 BYTE   W04
 BYTE   Fn3
 BYTE   W04
 BYTE   Gn3
 BYTE   W04
// 026   ----------------------------------------
 BYTE   N32  An3  v096
 BYTE   W04
 BYTE   W04
 BYTE   W04
 BYTE   W04
 BYTE   W04
 BYTE   W04
 BYTE   W04
 BYTE   W04
 BYTE   W04
 BYTE   Gn3
 BYTE   W04
 BYTE   W04
 BYTE   W04
 BYTE   W04
 BYTE   W04
 BYTE   W04
 BYTE   W04
 BYTE   W04
 BYTE   W04
 BYTE   En3
 BYTE   W04
 BYTE   W04
 BYTE   W04
 BYTE   W04
 BYTE   W04
 BYTE   W04
// 027   ----------------------------------------
 BYTE   W04
 BYTE   W04
 BYTE   W04
 BYTE   Fn3
 BYTE   W04
 BYTE   W04
 BYTE   W04
 BYTE   W04
 BYTE   W04
 BYTE   W04
 BYTE   W04
 BYTE   W04
 BYTE   W04
 BYTE   N44  En3
 BYTE   W04
 BYTE   W04
 BYTE   W04
 BYTE   W04
 BYTE   W04
 BYTE   W04
 BYTE   W04
 BYTE   W04
 BYTE   W04
 BYTE   W04
 BYTE   W04
 BYTE   W04
// 028   ----------------------------------------
 BYTE   N32  Ds3
 BYTE   W04
 BYTE   W04
 BYTE   W04
 BYTE   W04
 BYTE   W04
 BYTE   W04
 BYTE   W04
 BYTE   W04
 BYTE   W04
 BYTE   Dn3
 BYTE   W04
 BYTE   W04
 BYTE   W04
 BYTE   W04
 BYTE   W04
 BYTE   W04
 BYTE   W04
 BYTE   W04
 BYTE   W04
 BYTE   Cn3
 BYTE   W04
 BYTE   W04
 BYTE   W04
 BYTE   W04
 BYTE   W04
 BYTE   W04
// 029   ----------------------------------------
 BYTE   W04
 BYTE   W04
 BYTE   W04
 BYTE   N56
 BYTE   W04
 BYTE   W04
 BYTE   W04
 BYTE   W04
 BYTE   W04
 BYTE   W04
 BYTE   W04
 BYTE   W04
 BYTE   W04
 BYTE   W04
 BYTE   W04
 BYTE   W04
 BYTE   W04
 BYTE   W04
 BYTE   W04
 BYTE   N23  An2
 BYTE   W04
 BYTE   W04
 BYTE   W04
 BYTE   W04
 BYTE   W04
 BYTE   W04
// 030   ----------------------------------------
 BYTE   N32  Cn3
 BYTE   W04
 BYTE   W04
 BYTE   W04
 BYTE   W04
 BYTE   W04
 BYTE   W04
 BYTE   W04
 BYTE   W04
 BYTE   W04
 BYTE   N56  En3
 BYTE   W04
 BYTE   W04
 BYTE   W04
 BYTE   W04
 BYTE   W04
 BYTE   W04
 BYTE   W04
 BYTE   W04
 BYTE   W04
 BYTE   W04
 BYTE   W04
 BYTE   W04
 BYTE   W04
 BYTE   W04
 BYTE   W04
// 031   ----------------------------------------
 BYTE   N68  Dn3
 BYTE   W04
 BYTE   W04
 BYTE   W04
 BYTE   W04
 BYTE   W04
 BYTE   W04
 BYTE   W04
 BYTE   W04
 BYTE   W04
 BYTE   W04
 BYTE   W04
 BYTE   W04
 BYTE   W04
 BYTE   W04
 BYTE   W04
 BYTE   W04
 BYTE   W04
 BYTE   W04
 BYTE   N23  As2
 BYTE   W04
 BYTE   W04
 BYTE   W04
 BYTE   W04
 BYTE   W04
 BYTE   W04
// 032   ----------------------------------------
 BYTE   N32  Cn3
 BYTE   W04
 BYTE   W04
 BYTE   W04
 BYTE   W04
 BYTE   W04
 BYTE   W08
 BYTE   W04
 BYTE   W04
 BYTE   N56  Gn3
 BYTE   W04
 BYTE   W04
 BYTE   W04
 BYTE   W04
 BYTE   W04
 BYTE   W04
 BYTE   W04
 BYTE   W04
 BYTE   W04
 BYTE   W04
 BYTE   W04
 BYTE   W04
 BYTE   W04
 BYTE   W04
 BYTE   W04
// 033   ----------------------------------------
 BYTE   N44  En3
 BYTE   W04
 BYTE   W04
 BYTE   W04
 BYTE   W04
 BYTE   W04
 BYTE   W04
 BYTE   W04
 BYTE   W04
 BYTE   W04
 BYTE   W04
 BYTE   W04
 BYTE   W04
 BYTE   Fs3
 BYTE   W04
 BYTE   W04
 BYTE   W04
 BYTE   W04
 BYTE   W04
 BYTE   W04
 BYTE   W04
 BYTE   W04
 BYTE   W04
 BYTE   W04
 BYTE   W04
 BYTE   W03
 BYTE   GoTo
  POIN2 Label_2_012060A6
 BYTE   FINE

//**************** Track 4 (Midi-Chn.3) ****************//

song34_004:
// 000   ----------------------------------------
 BYTE   KEYSH   song34_key+0
Label_3_56D306:
 BYTE   VOICE   18
 BYTE   VOL   55*song34_mvl/mxv
 BYTE   W96
// 001   ----------------------------------------
 BYTE   W96
// 002   ----------------------------------------
 BYTE   W96
// 003   ----------------------------------------
 BYTE   W96
// 004   ----------------------------------------
 BYTE   W96
// 005   ----------------------------------------
 BYTE   W96
// 006   ----------------------------------------
 BYTE   W96
// 007   ----------------------------------------
 BYTE   W96
// 008   ----------------------------------------
 BYTE   W96
// 009   ----------------------------------------
 BYTE   W96
// 010   ----------------------------------------
 BYTE   W96
// 011   ----------------------------------------
 BYTE   PAN   c_v+19
 BYTE   BEND   c_v+0
 BYTE   W96
// 012   ----------------------------------------
 BYTE   W96
// 013   ----------------------------------------
 BYTE   W96
// 014   ----------------------------------------
 BYTE   W96
// 015   ----------------------------------------
 BYTE   W96
// 016   ----------------------------------------
 BYTE   W96
// 017   ----------------------------------------
 BYTE   W96
// 018   ----------------------------------------
 BYTE   N05  Dn4  v052
 BYTE   W06
 BYTE   Dn4  v020
 BYTE   W06
 BYTE   Gn3  v052
 BYTE   W06
 BYTE   Gn3  v020
 BYTE   W06
 BYTE   Dn4  v052
 BYTE   W06
 BYTE   Dn4  v020
 BYTE   W06
 BYTE   Gn3  v052
 BYTE   W06
 BYTE   Gn3  v020
 BYTE   W06
 BYTE   Dn4  v052
 BYTE   W06
 BYTE   Dn4  v020
 BYTE   W06
 BYTE   Gn3  v052
 BYTE   W06
 BYTE   Gn3  v020
 BYTE   W06
 BYTE   Dn4  v052
 BYTE   W06
 BYTE   Dn4  v020
 BYTE   W06
 BYTE   Gn3  v052
 BYTE   W06
 BYTE   Gn3  v020
 BYTE   W06
// 019   ----------------------------------------
Label_3_56D351:
 BYTE   N05  Dn4  v052
 BYTE   W06
 BYTE   Dn4  v020
 BYTE   W06
 BYTE   Gn3  v052
 BYTE   W06
 BYTE   Gn3  v020
 BYTE   W06
 BYTE   Dn4  v052
 BYTE   W06
 BYTE   Dn4  v020
 BYTE   W06
 BYTE   Gn3  v052
 BYTE   W06
 BYTE   Gn3  v020
 BYTE   W06
 BYTE   Dn4  v052
 BYTE   W06
 BYTE   Dn4  v020
 BYTE   W06
 BYTE   Gn3  v052
 BYTE   W06
 BYTE   Gn3  v020
 BYTE   W06
 BYTE   Dn4  v052
 BYTE   W06
 BYTE   Dn4  v020
 BYTE   W06
 BYTE   Gn3  v052
 BYTE   W06
 BYTE   Gn3  v020
 BYTE   W06
 BYTE   PEND 
// 020   ----------------------------------------
 BYTE   PATT
  POIN2 Label_3_56D351
// 021   ----------------------------------------
 BYTE   PATT
  POIN2 Label_3_56D351
// 022   ----------------------------------------
 BYTE   PATT
  POIN2 Label_3_56D351
// 023   ----------------------------------------
 BYTE   PATT
  POIN2 Label_3_56D351
// 024   ----------------------------------------
 BYTE   PATT
  POIN2 Label_3_56D351
// 025   ----------------------------------------
 BYTE   N05  Dn4  v052
 BYTE   W06
 BYTE   Dn4  v020
 BYTE   W06
 BYTE   Gn3  v052
 BYTE   W06
 BYTE   Gn3  v020
 BYTE   W06
 BYTE   Dn4  v052
 BYTE   W06
 BYTE   Dn4  v020
 BYTE   W06
 BYTE   Gn3  v052
 BYTE   W06
 BYTE   Gn3  v020
 BYTE   W06
 BYTE   Dn4  v052
 BYTE   W06
 BYTE   Dn4  v020
 BYTE   W06
 BYTE   Gn3  v052
 BYTE   W06
 BYTE   Gn3  v020
 BYTE   W30
// 026   ----------------------------------------
 BYTE   W96
// 027   ----------------------------------------
 BYTE   W96
// 028   ----------------------------------------
 BYTE   W96
// 029   ----------------------------------------
 BYTE   W96
// 030   ----------------------------------------
 BYTE   W96
// 031   ----------------------------------------
 BYTE   W96
// 032   ----------------------------------------
 BYTE   W96
// 033   ----------------------------------------
 BYTE   W92
 BYTE   W03
 BYTE   GoTo
  POIN2 Label_3_56D306
 BYTE   FINE

//**************** Track 5 (Midi-Chn.4) ****************//

song34_005:
// 000   ----------------------------------------
 BYTE   KEYSH   song34_key+0
Label_4_01206312:
 BYTE   VOICE   49
 BYTE   VOL   51*song34_mvl/mxv
 BYTE   PAN   c_v-30
 BYTE   BEND   c_v+0
 BYTE   W96
// 001   ----------------------------------------
 BYTE   W96
// 002   ----------------------------------------
 BYTE   W96
// 003   ----------------------------------------
 BYTE   W96
// 004   ----------------------------------------
 BYTE   W96
// 005   ----------------------------------------
 BYTE   W96
// 006   ----------------------------------------
 BYTE   W96
// 007   ----------------------------------------
 BYTE   W96
// 008   ----------------------------------------
 BYTE   W96
// 009   ----------------------------------------
 BYTE   W48
 BYTE   W12
 BYTE   W04
 BYTE   W04
 BYTE   W08
 BYTE   W04
 BYTE   W04
 BYTE   N03  An2  v080
 BYTE   W04
 BYTE   As2
 BYTE   W04
 BYTE   Bn2
 BYTE   W04
// 010   ----------------------------------------
 BYTE   N32  Fn2
 BYTE   N32  Cn3
 BYTE   W04
 BYTE   W04
 BYTE   W04
 BYTE   W04
 BYTE   W04
 BYTE   W04
 BYTE   W04
 BYTE   W04
 BYTE   W04
 BYTE   N11  Gn2
 BYTE   N11  Dn3
 BYTE   W04
 BYTE   W04
 BYTE   W04
 BYTE   W04
 BYTE   W04
 BYTE   W04
 BYTE   W04
 BYTE   W04
 BYTE   W04
 BYTE   W04
 BYTE   W04
 BYTE   W04
 BYTE   W04
 BYTE   W04
 BYTE   W04
// 011   ----------------------------------------
Label_4_01206352:
 BYTE   W04
 BYTE   W04
 BYTE   W04
 BYTE   W04
 BYTE   W04
 BYTE   W04
 BYTE   N44  Fn2  v080
 BYTE   N44  Cn3
 BYTE   W04
 BYTE   W04
 BYTE   W04
 BYTE   W04
 BYTE   W04
 BYTE   W04
 BYTE   W04
 BYTE   W20
 BYTE   N11  Gn2
 BYTE   N11  Dn3
 BYTE   W04
 BYTE   W12
 BYTE   W08
 BYTE   PEND 
// 012   ----------------------------------------
 BYTE   W04
 BYTE   W04
 BYTE   W08
 BYTE   W04
 BYTE   W04
 BYTE   TIE  En2
 BYTE   TIE  Bn2
 BYTE   W04
 BYTE   W04
 BYTE   W04
 BYTE   W04
 BYTE   W04
 BYTE   W04
 BYTE   W04
 BYTE   W04
 BYTE   W04
 BYTE   W04
 BYTE   W04
 BYTE   W04
 BYTE   W04
 BYTE   W04
 BYTE   W04
 BYTE   W04
 BYTE   W04
 BYTE   W04
// 013   ----------------------------------------
 BYTE   W04
 BYTE   W04
 BYTE   W04
 BYTE   W04
 BYTE   W04
 BYTE   W04
 BYTE   W04
 BYTE   W04
 BYTE   W04
 BYTE   W04
 BYTE   W04
 BYTE   W03
 BYTE   EOT
 BYTE   En2  v059
 BYTE   W01
 BYTE   W04
 BYTE   W04
 BYTE   W04
 BYTE   W04
 BYTE   W04
 BYTE   W04
 BYTE   W04
 BYTE   W04
 BYTE   W04
 BYTE   N03  An2
 BYTE   W04
 BYTE   As2
 BYTE   W04
 BYTE   Bn2
 BYTE   W04
// 014   ----------------------------------------
 BYTE   N32  Fn2
 BYTE   N32  Cn3
 BYTE   W04
 BYTE   W04
 BYTE   W04
 BYTE   W04
 BYTE   W04
 BYTE   W04
 BYTE   W04
 BYTE   W04
 BYTE   W04
 BYTE   N11  Gn2
 BYTE   N11  Dn3
 BYTE   W04
 BYTE   W04
 BYTE   W04
 BYTE   W04
 BYTE   W04
 BYTE   W04
 BYTE   W04
 BYTE   W04
 BYTE   W04
 BYTE   W04
 BYTE   W04
 BYTE   W04
 BYTE   W04
 BYTE   W04
 BYTE   W04
// 015   ----------------------------------------
 BYTE   PATT
  POIN2 Label_4_01206352
// 016   ----------------------------------------
 BYTE   W04
 BYTE   W04
 BYTE   W08
 BYTE   W04
 BYTE   W04
 BYTE   TIE  An2  v080
 BYTE   TIE  En3
 BYTE   W04
 BYTE   W04
 BYTE   W04
 BYTE   W04
 BYTE   W04
 BYTE   W04
 BYTE   W04
 BYTE   W04
 BYTE   W04
 BYTE   W04
 BYTE   W04
 BYTE   W04
 BYTE   W04
 BYTE   W04
 BYTE   W04
 BYTE   W04
 BYTE   W04
 BYTE   W04
// 017   ----------------------------------------
 BYTE   W04
 BYTE   W04
 BYTE   W04
 BYTE   W04
 BYTE   W04
 BYTE   W04
 BYTE   W04
 BYTE   W04
 BYTE   W04
 BYTE   W04
 BYTE   W04
 BYTE   W03
 BYTE   EOT
 BYTE   An2  v064
 BYTE   W01
 BYTE   W04
 BYTE   W04
 BYTE   W12
 BYTE   W04
 BYTE   W12
 BYTE   N03  Dn3  v088
 BYTE   W04
 BYTE   Ds3
 BYTE   W04
 BYTE   En3
 BYTE   W04
// 018   ----------------------------------------
 BYTE   N32  An2
 BYTE   N32  Fn3  v100
 BYTE   W04
 BYTE   W04
 BYTE   W04
 BYTE   W04
 BYTE   W04
 BYTE   W04
 BYTE   W04
 BYTE   W04
 BYTE   W04
 BYTE   Gn2  v088
 BYTE   N32  En3  v100
 BYTE   W04
 BYTE   W04
 BYTE   W04
 BYTE   W04
 BYTE   W04
 BYTE   W04
 BYTE   W04
 BYTE   W04
 BYTE   W04
 BYTE   En2  v088
 BYTE   N32  Cn3  v100
 BYTE   W04
 BYTE   W04
 BYTE   W04
 BYTE   W04
 BYTE   W04
 BYTE   W04
// 019   ----------------------------------------
 BYTE   W04
 BYTE   W04
 BYTE   W04
 BYTE   Fn2  v088
 BYTE   N56  Dn3  v100
 BYTE   W08
 BYTE   W04
 BYTE   W04
 BYTE   W04
 BYTE   W04
 BYTE   W04
 BYTE   W04
 BYTE   W04
 BYTE   N44  En2  v088
 BYTE   W04
 BYTE   W04
 BYTE   W04
 BYTE   W04
 BYTE   W04
 BYTE   W04
 BYTE   N23  Cn3  v100
 BYTE   W04
 BYTE   W04
 BYTE   W04
 BYTE   W04
 BYTE   W04
 BYTE   W04
// 020   ----------------------------------------
 BYTE   N32  Ds2  v088
 BYTE   N32  Cn3  v100
 BYTE   W04
 BYTE   W04
 BYTE   W04
 BYTE   W04
 BYTE   W04
 BYTE   W04
 BYTE   W04
 BYTE   W04
 BYTE   W04
 BYTE   Dn2  v088
 BYTE   N32  As2  v100
 BYTE   W04
 BYTE   W04
 BYTE   W04
 BYTE   W04
 BYTE   W04
 BYTE   W04
 BYTE   W04
 BYTE   W04
 BYTE   W04
 BYTE   Cn2  v088
 BYTE   N32  An2  v100
 BYTE   W04
 BYTE   W04
 BYTE   W04
 BYTE   W04
 BYTE   W04
 BYTE   W04
// 021   ----------------------------------------
 BYTE   W04
 BYTE   W04
 BYTE   W04
 BYTE   Cn2  v088
 BYTE   N56  Gn2  v100
 BYTE   W04
 BYTE   W04
 BYTE   W04
 BYTE   W04
 BYTE   W04
 BYTE   W04
 BYTE   W04
 BYTE   W04
 BYTE   W04
 BYTE   N23  An1
 BYTE   W04
 BYTE   W04
 BYTE   W04
 BYTE   W04
 BYTE   W04
 BYTE   W04
 BYTE   N17  As1
 BYTE   W04
 BYTE   W04
 BYTE   W04
 BYTE   W04
 BYTE   W04
 BYTE   W04
// 022   ----------------------------------------
 BYTE   N32  An2  v084
 BYTE   N32  Fn3  v100
 BYTE   W04
 BYTE   W04
 BYTE   W04
 BYTE   W04
 BYTE   W04
 BYTE   W04
 BYTE   W04
 BYTE   W08
 BYTE   Gn2  v084
 BYTE   N32  En3  v100
 BYTE   W04
 BYTE   W04
 BYTE   W04
 BYTE   W04
 BYTE   W04
 BYTE   W04
 BYTE   W04
 BYTE   W04
 BYTE   W04
 BYTE   En2  v084
 BYTE   N32  Cn3  v100
 BYTE   W20
 BYTE   W04
// 023   ----------------------------------------
 BYTE   W08
 BYTE   W04
 BYTE   Fn2  v084
 BYTE   N44  Dn3  v100
 BYTE   W08
 BYTE   W12
 BYTE   W04
 BYTE   W04
 BYTE   W04
 BYTE   W04
 BYTE   N11  En2  v084
 BYTE   W04
 BYTE   W04
 BYTE   W04
 BYTE   N03  Fs2  v100
 BYTE   N03  Ds3
 BYTE   W04
 BYTE   Gn2
 BYTE   N03  En3
 BYTE   W04
 BYTE   Gs2
 BYTE   N03  Fn3
 BYTE   W04
 BYTE   N23  An2
 BYTE   N23  Gn3
 BYTE   W04
 BYTE   W04
 BYTE   W04
 BYTE   W04
 BYTE   W04
 BYTE   W04
// 024   ----------------------------------------
 BYTE   N32  As2  v084
 BYTE   N32  Gn3  v100
 BYTE   W04
 BYTE   W04
 BYTE   W04
 BYTE   W04
 BYTE   W04
 BYTE   W04
 BYTE   W04
 BYTE   W04
 BYTE   W04
 BYTE   An2  v084
 BYTE   N32  Fn3  v100
 BYTE   W04
 BYTE   W04
 BYTE   W04
 BYTE   W04
 BYTE   W04
 BYTE   W04
 BYTE   W04
 BYTE   W04
 BYTE   W04
 BYTE   Gn2  v084
 BYTE   N32  En3  v100
 BYTE   W04
 BYTE   W20
// 025   ----------------------------------------
 BYTE   W04
 BYTE   W04
 BYTE   W04
 BYTE   Gn2  v084
 BYTE   N80  Dn3  v100
 BYTE   W04
 BYTE   W04
 BYTE   W04
 BYTE   W04
 BYTE   W04
 BYTE   W04
 BYTE   W04
 BYTE   W04
 BYTE   W04
 BYTE   N23  En2
 BYTE   W04
 BYTE   W04
 BYTE   W04
 BYTE   W04
 BYTE   W04
 BYTE   W04
 BYTE   Fn2
 BYTE   W04
 BYTE   W04
 BYTE   W04
 BYTE   W04
 BYTE   W04
 BYTE   W04
// 026   ----------------------------------------
 BYTE   W04
 BYTE   W04
 BYTE   W04
 BYTE   W04
 BYTE   W04
 BYTE   W04
 BYTE   N68  As1  v104
 BYTE   N68  Fn2
 BYTE   W04
 BYTE   W04
 BYTE   W04
 BYTE   W04
 BYTE   W04
 BYTE   W04
 BYTE   W04
 BYTE   W04
 BYTE   W04
 BYTE   W04
 BYTE   W04
 BYTE   W04
 BYTE   W04
 BYTE   W04
 BYTE   W04
 BYTE   W04
 BYTE   W04
 BYTE   W04
// 027   ----------------------------------------
 BYTE   N92  As1
 BYTE   N92  Fn2
 BYTE   W04
 BYTE   W04
 BYTE   W04
 BYTE   W04
 BYTE   W04
 BYTE   W04
 BYTE   W04
 BYTE   W04
 BYTE   W04
 BYTE   W04
 BYTE   W04
 BYTE   W04
 BYTE   W04
 BYTE   W04
 BYTE   W04
 BYTE   W04
 BYTE   W04
 BYTE   W04
 BYTE   W04
 BYTE   W04
 BYTE   W04
 BYTE   W04
 BYTE   W04
 BYTE   W04
// 028   ----------------------------------------
 BYTE   As1
 BYTE   N92  Fn2
 BYTE   W04
 BYTE   W04
 BYTE   W04
 BYTE   W04
 BYTE   W04
 BYTE   W04
 BYTE   W04
 BYTE   W04
 BYTE   W04
 BYTE   W04
 BYTE   W04
 BYTE   W04
 BYTE   W04
 BYTE   W12
 BYTE   W08
 BYTE   W04
 BYTE   W04
 BYTE   W04
 BYTE   W04
 BYTE   W04
 BYTE   W04
// 029   ----------------------------------------
 BYTE   Dn2
 BYTE   N92  As2
 BYTE   W04
 BYTE   W04
 BYTE   W04
 BYTE   W04
 BYTE   W04
 BYTE   W04
 BYTE   W04
 BYTE   W04
 BYTE   W04
 BYTE   W04
 BYTE   W04
 BYTE   W04
 BYTE   W04
 BYTE   W04
 BYTE   W04
 BYTE   W04
 BYTE   W04
 BYTE   W04
 BYTE   W08
 BYTE   W04
 BYTE   W04
 BYTE   W04
 BYTE   W04
// 030   ----------------------------------------
 BYTE   En2
 BYTE   N92  Cn3
 BYTE   W04
 BYTE   W04
 BYTE   W04
 BYTE   W04
 BYTE   W04
 BYTE   W04
 BYTE   W04
 BYTE   W04
 BYTE   W04
 BYTE   W04
 BYTE   W04
 BYTE   W04
 BYTE   W04
 BYTE   W04
 BYTE   W04
 BYTE   W04
 BYTE   W04
 BYTE   W04
 BYTE   W04
 BYTE   W08
 BYTE   W04
 BYTE   W04
 BYTE   W04
// 031   ----------------------------------------
 BYTE   Cn2
 BYTE   N92  Gn2
 BYTE   W04
 BYTE   W04
 BYTE   W04
 BYTE   W04
 BYTE   W04
 BYTE   W04
 BYTE   W04
 BYTE   W04
 BYTE   W04
 BYTE   W04
 BYTE   W04
 BYTE   W04
 BYTE   W04
 BYTE   W04
 BYTE   W04
 BYTE   W04
 BYTE   W04
 BYTE   W04
 BYTE   W04
 BYTE   W04
 BYTE   W04
 BYTE   W04
 BYTE   W04
 BYTE   W04
// 032   ----------------------------------------
 BYTE   Dn2
 BYTE   N92  An2
 BYTE   W04
 BYTE   W04
 BYTE   W04
 BYTE   W04
 BYTE   W04
 BYTE   W04
 BYTE   W04
 BYTE   W04
 BYTE   W04
 BYTE   W04
 BYTE   W04
 BYTE   W04
 BYTE   W04
 BYTE   W04
 BYTE   W04
 BYTE   W04
 BYTE   W04
 BYTE   W04
 BYTE   W04
 BYTE   W04
 BYTE   W04
 BYTE   W04
 BYTE   W04
 BYTE   W04
// 033   ----------------------------------------
 BYTE   Fs2
 BYTE   N92  Dn3
 BYTE   W04
 BYTE   W04
 BYTE   W04
 BYTE   W04
 BYTE   W04
 BYTE   W04
 BYTE   W04
 BYTE   W04
 BYTE   W04
 BYTE   W04
 BYTE   W04
 BYTE   W04
 BYTE   W04
 BYTE   W04
 BYTE   W04
 BYTE   W04
 BYTE   W04
 BYTE   W04
 BYTE   W04
 BYTE   W04
 BYTE   W04
 BYTE   W04
 BYTE   W04
 BYTE   W03
 BYTE   GoTo
  POIN2 Label_4_01206312
 BYTE   FINE

//**************** Track 6 (Midi-Chn.5) ****************//

song34_006:
// 000   ----------------------------------------
 BYTE   KEYSH   song34_key+0
Label_5_0120660A:
 BYTE   VOICE   56
 BYTE   VOL   41*song34_mvl/mxv
 BYTE   PAN   c_v+35
 BYTE   BEND   c_v+0
 BYTE   W96
// 001   ----------------------------------------
 BYTE   W96
// 002   ----------------------------------------
 BYTE   W96
// 003   ----------------------------------------
 BYTE   W96
// 004   ----------------------------------------
 BYTE   W96
// 005   ----------------------------------------
 BYTE   W96
// 006   ----------------------------------------
 BYTE   W96
// 007   ----------------------------------------
 BYTE   W96
// 008   ----------------------------------------
 BYTE   W96
// 009   ----------------------------------------
 BYTE   W96
// 010   ----------------------------------------
 BYTE   W96
// 011   ----------------------------------------
 BYTE   W96
// 012   ----------------------------------------
 BYTE   W96
// 013   ----------------------------------------
 BYTE   W96
// 014   ----------------------------------------
 BYTE   W96
// 015   ----------------------------------------
 BYTE   W96
// 016   ----------------------------------------
 BYTE   W96
// 017   ----------------------------------------
 BYTE   W96
// 018   ----------------------------------------
 BYTE   W04
 BYTE   N32  An2  v088
 BYTE   N32  Fn3  v100
 BYTE   W04
 BYTE   W04
 BYTE   W04
 BYTE   W04
 BYTE   W04
 BYTE   W04
 BYTE   W04
 BYTE   W04
 BYTE   W04
 BYTE   Gn2  v088
 BYTE   N32  En3  v100
 BYTE   W04
 BYTE   W04
 BYTE   W04
 BYTE   W04
 BYTE   W04
 BYTE   W04
 BYTE   W04
 BYTE   W04
 BYTE   W04
 BYTE   En2  v088
 BYTE   N32  Cn3  v100
 BYTE   W04
 BYTE   W04
 BYTE   W04
 BYTE   W04
 BYTE   W04
// 019   ----------------------------------------
 BYTE   W04
 BYTE   W04
 BYTE   W04
 BYTE   W04
 BYTE   Fn2  v088
 BYTE   N56  Dn3  v100
 BYTE   W08
 BYTE   W04
 BYTE   W04
 BYTE   W04
 BYTE   W04
 BYTE   W04
 BYTE   W04
 BYTE   W04
 BYTE   N44  En2  v088
 BYTE   W04
 BYTE   W04
 BYTE   W04
 BYTE   W04
 BYTE   W04
 BYTE   W04
 BYTE   N23  Cn3  v100
 BYTE   W04
 BYTE   W04
 BYTE   W04
 BYTE   W04
 BYTE   W04
// 020   ----------------------------------------
 BYTE   W04
 BYTE   N32  Ds2  v088
 BYTE   N32  Cn3  v100
 BYTE   W04
 BYTE   W04
 BYTE   W04
 BYTE   W04
 BYTE   W04
 BYTE   W04
 BYTE   W04
 BYTE   W04
 BYTE   W04
 BYTE   Dn2  v088
 BYTE   N32  As2  v100
 BYTE   W04
 BYTE   W04
 BYTE   W04
 BYTE   W04
 BYTE   W04
 BYTE   W04
 BYTE   W04
 BYTE   W04
 BYTE   W04
 BYTE   Cn2  v088
 BYTE   N32  An2  v100
 BYTE   W04
 BYTE   W04
 BYTE   W04
 BYTE   W04
 BYTE   W04
// 021   ----------------------------------------
 BYTE   W04
 BYTE   W04
 BYTE   W04
 BYTE   W04
 BYTE   Cn2  v088
 BYTE   N56  Gn2  v100
 BYTE   W04
 BYTE   W04
 BYTE   W04
 BYTE   W04
 BYTE   W04
 BYTE   W04
 BYTE   W04
 BYTE   W04
 BYTE   W04
 BYTE   N23  An1
 BYTE   W04
 BYTE   W04
 BYTE   W04
 BYTE   W04
 BYTE   W04
 BYTE   W04
 BYTE   N17  As1
 BYTE   W04
 BYTE   W04
 BYTE   W04
 BYTE   W04
 BYTE   W04
// 022   ----------------------------------------
 BYTE   W04
 BYTE   N32  An2  v084
 BYTE   N32  Fn3  v100
 BYTE   W04
 BYTE   W04
 BYTE   W04
 BYTE   W04
 BYTE   W04
 BYTE   W04
 BYTE   W04
 BYTE   W08
 BYTE   Gn2  v084
 BYTE   N32  En3  v100
 BYTE   W04
 BYTE   W04
 BYTE   W04
 BYTE   W04
 BYTE   W04
 BYTE   W04
 BYTE   W04
 BYTE   W04
 BYTE   W04
 BYTE   En2  v084
 BYTE   N32  Cn3  v100
 BYTE   W20
// 023   ----------------------------------------
 BYTE   W12
 BYTE   W04
 BYTE   Fn2  v084
 BYTE   N44  Dn3  v100
 BYTE   W08
 BYTE   W12
 BYTE   W04
 BYTE   W04
 BYTE   W04
 BYTE   W04
 BYTE   N11  En2  v084
 BYTE   W04
 BYTE   W04
 BYTE   W04
 BYTE   N03  Fs2  v100
 BYTE   N03  Ds3
 BYTE   W04
 BYTE   Gn2
 BYTE   N03  En3
 BYTE   W04
 BYTE   Gs2
 BYTE   N03  Fn3
 BYTE   W04
 BYTE   N23  An2
 BYTE   N23  Gn3
 BYTE   W04
 BYTE   W04
 BYTE   W04
 BYTE   W04
 BYTE   W04
// 024   ----------------------------------------
 BYTE   W04
 BYTE   N32  As2  v084
 BYTE   N32  Gn3  v100
 BYTE   W04
 BYTE   W04
 BYTE   W04
 BYTE   W04
 BYTE   W04
 BYTE   W04
 BYTE   W04
 BYTE   W04
 BYTE   W04
 BYTE   An2  v084
 BYTE   N32  Fn3  v100
 BYTE   W04
 BYTE   W04
 BYTE   W04
 BYTE   W04
 BYTE   W04
 BYTE   W04
 BYTE   W04
 BYTE   W04
 BYTE   W04
 BYTE   Gn2  v084
 BYTE   N32  En3  v100
 BYTE   W04
 BYTE   W16
// 025   ----------------------------------------
 BYTE   W08
 BYTE   W04
 BYTE   W04
 BYTE   Gn2  v084
 BYTE   N80  Dn3  v100
 BYTE   W04
 BYTE   W04
 BYTE   W04
 BYTE   W04
 BYTE   W04
 BYTE   W04
 BYTE   W04
 BYTE   W04
 BYTE   W04
 BYTE   N23  En2
 BYTE   W04
 BYTE   W04
 BYTE   W04
 BYTE   W04
 BYTE   W04
 BYTE   W04
 BYTE   Fn2
 BYTE   W04
 BYTE   W04
 BYTE   W04
 BYTE   W04
 BYTE   W04
// 026   ----------------------------------------
 BYTE   W04
 BYTE   W92
// 027   ----------------------------------------
 BYTE   W96
// 028   ----------------------------------------
 BYTE   W96
// 029   ----------------------------------------
 BYTE   W96
// 030   ----------------------------------------
 BYTE   W96
// 031   ----------------------------------------
 BYTE   W96
// 032   ----------------------------------------
 BYTE   W96
// 033   ----------------------------------------
 BYTE   W92
 BYTE   W03
 BYTE   GoTo
  POIN2 Label_5_0120660A
 BYTE   FINE

//**************** Track 7 (Midi-Chn.6) ****************//

song34_007:
// 000   ----------------------------------------
 BYTE   KEYSH   song34_key+0
Label_6_0120675A:
 BYTE   VOICE   49
 BYTE   VOL   51*song34_mvl/mxv
 BYTE   PAN   c_v+3
 BYTE   BEND   c_v+0
 BYTE   W96
// 001   ----------------------------------------
 BYTE   W96
// 002   ----------------------------------------
 BYTE   W96
// 003   ----------------------------------------
 BYTE   W96
// 004   ----------------------------------------
 BYTE   W96
// 005   ----------------------------------------
 BYTE   W96
// 006   ----------------------------------------
 BYTE   W96
// 007   ----------------------------------------
 BYTE   W96
// 008   ----------------------------------------
 BYTE   W96
// 009   ----------------------------------------
 BYTE   W48
 BYTE   W12
 BYTE   W04
 BYTE   W04
 BYTE   W08
 BYTE   W04
 BYTE   W04
 BYTE   W04
 BYTE   W04
 BYTE   W04
// 010   ----------------------------------------
 BYTE   N32  As2  v064
 BYTE   W04
 BYTE   W04
 BYTE   W04
 BYTE   W04
 BYTE   W04
 BYTE   W04
 BYTE   W04
 BYTE   W04
 BYTE   W04
 BYTE   N11  Cn3
 BYTE   W04
 BYTE   W04
 BYTE   W04
 BYTE   W04
 BYTE   W04
 BYTE   W04
 BYTE   W04
 BYTE   W04
 BYTE   W04
 BYTE   W04
 BYTE   W04
 BYTE   W04
 BYTE   W04
 BYTE   W04
 BYTE   W04
// 011   ----------------------------------------
 BYTE   W04
 BYTE   W04
 BYTE   W04
 BYTE   W04
 BYTE   W04
 BYTE   W04
 BYTE   N44  As2
 BYTE   W04
 BYTE   W04
 BYTE   W04
 BYTE   W04
 BYTE   W04
 BYTE   W04
 BYTE   W04
 BYTE   W20
 BYTE   N11  Cn3
 BYTE   W04
 BYTE   W12
 BYTE   W08
// 012   ----------------------------------------
 BYTE   W04
 BYTE   W04
 BYTE   W08
 BYTE   W04
 BYTE   W04
 BYTE   TIE  An2
 BYTE   W04
 BYTE   W04
 BYTE   W04
 BYTE   W04
 BYTE   W04
 BYTE   W04
 BYTE   W04
 BYTE   W04
 BYTE   W04
 BYTE   W04
 BYTE   W04
 BYTE   W04
 BYTE   W04
 BYTE   W04
 BYTE   W04
 BYTE   W04
 BYTE   W04
 BYTE   W04
// 013   ----------------------------------------
 BYTE   W04
 BYTE   W04
 BYTE   W04
 BYTE   W04
 BYTE   W04
 BYTE   W04
 BYTE   W04
 BYTE   W04
 BYTE   W04
 BYTE   W04
 BYTE   W04
 BYTE   W04
 BYTE   W04
 BYTE   W04
 BYTE   W04
 BYTE   W04
 BYTE   W04
 BYTE   W03
 BYTE   EOT
 BYTE   W01
 BYTE   W04
 BYTE   W04
 BYTE   W04
 BYTE   W04
 BYTE   W04
 BYTE   W04
// 014   ----------------------------------------
 BYTE   N32  As2
 BYTE   W04
 BYTE   W04
 BYTE   W04
 BYTE   W04
 BYTE   W04
 BYTE   W04
 BYTE   W04
 BYTE   W04
 BYTE   W04
 BYTE   N11  Cn3
 BYTE   W04
 BYTE   W04
 BYTE   W04
 BYTE   W04
 BYTE   W04
 BYTE   W04
 BYTE   W04
 BYTE   W04
 BYTE   W04
 BYTE   W04
 BYTE   W04
 BYTE   W04
 BYTE   W04
 BYTE   W04
 BYTE   W04
// 015   ----------------------------------------
 BYTE   W04
 BYTE   W04
 BYTE   W04
 BYTE   W04
 BYTE   W04
 BYTE   W04
 BYTE   N44  As2
 BYTE   W04
 BYTE   W04
 BYTE   W04
 BYTE   W04
 BYTE   W04
 BYTE   W04
 BYTE   W04
 BYTE   W20
 BYTE   N11  Cn3
 BYTE   W04
 BYTE   W12
 BYTE   W08
// 016   ----------------------------------------
 BYTE   W04
 BYTE   W04
 BYTE   W08
 BYTE   W04
 BYTE   W04
 BYTE   TIE  Dn3
 BYTE   W04
 BYTE   W04
 BYTE   W04
 BYTE   W04
 BYTE   W04
 BYTE   W04
 BYTE   W04
 BYTE   W04
 BYTE   W04
 BYTE   W04
 BYTE   W04
 BYTE   W04
 BYTE   W08
 BYTE   W04
 BYTE   W04
 BYTE   W04
 BYTE   W04
// 017   ----------------------------------------
 BYTE   W04
 BYTE   W04
 BYTE   W04
 BYTE   W04
 BYTE   W04
 BYTE   W04
 BYTE   W04
 BYTE   W04
 BYTE   W04
 BYTE   W04
 BYTE   W04
 BYTE   W04
 BYTE   W04
 BYTE   W04
 BYTE   W04
 BYTE   W04
 BYTE   W04
 BYTE   W03
 BYTE   EOT
 BYTE   W01
 BYTE   W04
 BYTE   W04
 BYTE   W04
 BYTE   W04
 BYTE   W04
 BYTE   W04
// 018   ----------------------------------------
 BYTE   N32  Cn3  v084
 BYTE   W04
 BYTE   W04
 BYTE   W04
 BYTE   W04
 BYTE   W04
 BYTE   W04
 BYTE   W04
 BYTE   W04
 BYTE   W04
 BYTE   N32
 BYTE   W04
 BYTE   W04
 BYTE   W04
 BYTE   W04
 BYTE   W04
 BYTE   W04
 BYTE   W04
 BYTE   W04
 BYTE   W04
 BYTE   Gn2
 BYTE   W04
 BYTE   W04
 BYTE   W04
 BYTE   W04
 BYTE   W04
 BYTE   W04
// 019   ----------------------------------------
 BYTE   W04
 BYTE   W04
 BYTE   W04
 BYTE   As2
 BYTE   W12
 BYTE   W08
 BYTE   W04
 BYTE   W08
 BYTE   W04
 BYTE   N44  An2
 BYTE   W08
 BYTE   W04
 BYTE   W08
 BYTE   W04
 BYTE   W08
 BYTE   W04
 BYTE   W08
 BYTE   W04
// 020   ----------------------------------------
 BYTE   N32  Gs2
 BYTE   W04
 BYTE   W04
 BYTE   W04
 BYTE   W04
 BYTE   W04
 BYTE   W04
 BYTE   W04
 BYTE   W04
 BYTE   W04
 BYTE   Gn2
 BYTE   W08
 BYTE   W04
 BYTE   W04
 BYTE   W04
 BYTE   W04
 BYTE   W04
 BYTE   W04
 BYTE   W04
 BYTE   Fn2
 BYTE   W04
 BYTE   W04
 BYTE   W04
 BYTE   W04
 BYTE   W04
 BYTE   W04
// 021   ----------------------------------------
 BYTE   W04
 BYTE   W04
 BYTE   W04
 BYTE   N80  Dn2
 BYTE   W04
 BYTE   W04
 BYTE   W04
 BYTE   W04
 BYTE   W04
 BYTE   W04
 BYTE   W04
 BYTE   W04
 BYTE   W04
 BYTE   W04
 BYTE   W04
 BYTE   W04
 BYTE   W04
 BYTE   W04
 BYTE   W04
 BYTE   W04
 BYTE   W04
 BYTE   W04
 BYTE   W04
 BYTE   W04
 BYTE   W04
// 022   ----------------------------------------
 BYTE   N32  Cn3
 BYTE   W04
 BYTE   W04
 BYTE   W04
 BYTE   W04
 BYTE   W04
 BYTE   W16
 BYTE   N32
 BYTE   W04
 BYTE   W04
 BYTE   W04
 BYTE   W04
 BYTE   W04
 BYTE   W04
 BYTE   W04
 BYTE   W04
 BYTE   W04
 BYTE   Gn2
 BYTE   W08
 BYTE   W04
 BYTE   W08
 BYTE   W04
// 023   ----------------------------------------
 BYTE   W08
 BYTE   W04
 BYTE   As2
 BYTE   W08
 BYTE   W04
 BYTE   W08
 BYTE   W04
 BYTE   W08
 BYTE   W04
 BYTE   N23  An2
 BYTE   W08
 BYTE   W04
 BYTE   W04
 BYTE   W04
 BYTE   W04
 BYTE   Dn3
 BYTE   W04
 BYTE   W04
 BYTE   W04
 BYTE   W04
 BYTE   W04
 BYTE   W04
// 024   ----------------------------------------
 BYTE   N32  Ds3
 BYTE   W04
 BYTE   W04
 BYTE   W04
 BYTE   W04
 BYTE   W04
 BYTE   W04
 BYTE   W04
 BYTE   W04
 BYTE   W04
 BYTE   Dn3
 BYTE   W04
 BYTE   W04
 BYTE   W04
 BYTE   W04
 BYTE   W04
 BYTE   W04
 BYTE   W04
 BYTE   W04
 BYTE   W04
 BYTE   Cn3
 BYTE   W04
 BYTE   W20
// 025   ----------------------------------------
 BYTE   W04
 BYTE   W08
 BYTE   N56  An2
 BYTE   W04
 BYTE   W04
 BYTE   W04
 BYTE   W04
 BYTE   W04
 BYTE   W04
 BYTE   W04
 BYTE   W04
 BYTE   W04
 BYTE   W04
 BYTE   W04
 BYTE   W04
 BYTE   W04
 BYTE   W04
 BYTE   W04
 BYTE   W04
 BYTE   W04
 BYTE   W04
 BYTE   W04
 BYTE   W04
 BYTE   W04
// 026   ----------------------------------------
 BYTE   W96
// 027   ----------------------------------------
 BYTE   W96
// 028   ----------------------------------------
 BYTE   W96
// 029   ----------------------------------------
 BYTE   W96
// 030   ----------------------------------------
 BYTE   W96
// 031   ----------------------------------------
 BYTE   W96
// 032   ----------------------------------------
 BYTE   W96
// 033   ----------------------------------------
 BYTE   W92
 BYTE   W03
 BYTE   GoTo
  POIN2 Label_6_0120675A
 BYTE   FINE

//**************** Track 8 (Midi-Chn.7) ****************//

song34_008:
// 000   ----------------------------------------
 BYTE   KEYSH   song34_key+0
Label_7_01206912:
 BYTE   VOICE   124
 BYTE   VOL   32*song34_mvl/mxv
 BYTE   PAN   c_v+0
 BYTE   BEND   c_v+0
 BYTE   N05  Cn1  v108
 BYTE   N06  Fs1  v080
 BYTE   TIE  Cs2  v064
 BYTE   W06
 BYTE   N04  Gs1
 BYTE   W06
 BYTE   N05  Gs1  v040
 BYTE   W06
 BYTE   Cn1  v056
 BYTE   N06  Fs1  v048
 BYTE   W06
 BYTE   N04  Gs1  v056
 BYTE   W06
 BYTE   Gs1  v040
 BYTE   W06
 BYTE   N05  Cn1  v100
 BYTE   N04  Gs1  v064
 BYTE   W06
 BYTE   N02  Gs1  v040
 BYTE   W03
 BYTE   Gs1  v052
 BYTE   W03
 BYTE   N05  Gs1  v068
 BYTE   W06
 BYTE   Cn1  v056
 BYTE   N05  Fs1  v080
 BYTE   W06
 BYTE   Gs1  v060
 BYTE   W06
 BYTE   Gs1  v048
 BYTE   W06
 BYTE   Fs1  v072
 BYTE   W06
 BYTE   Gs1  v040
 BYTE   W06
 BYTE   Gs1  v064
 BYTE   W06
 BYTE   Gs1  v040
 BYTE   W06
// 001   ----------------------------------------
Label_7_01206962:
 BYTE   N05  Cn1  v108
 BYTE   N04  Gs1  v052
 BYTE   W06
 BYTE   Fs1  v076
 BYTE   W03
 BYTE   PEND 
 BYTE   EOT
 BYTE   Cs2
 BYTE   W03
 BYTE   N04  Gs1  v056
 BYTE   W06
 BYTE   N05  Cn1
 BYTE   N04  Gs1  v036
 BYTE   W06
 BYTE   Fs1  v056
 BYTE   W06
 BYTE   Gs1  v036
 BYTE   W06
 BYTE   N05  Cn1  v100
 BYTE   N04  Fs1  v072
 BYTE   W06
 BYTE   Fs1  v084
 BYTE   W06
 BYTE   Gs1  v036
 BYTE   W06
 BYTE   N05  Cn1  v056
 BYTE   N04  Fs1  v072
 BYTE   W06
 BYTE   Gs1  v060
 BYTE   W06
 BYTE   N05  Gs1  v040
 BYTE   W06
 BYTE   Fs1  v048
 BYTE   W06
 BYTE   As1  v036
 BYTE   W06
 BYTE   As1  v056
 BYTE   W06
 BYTE   As1  v076
 BYTE   W06
// 002   ----------------------------------------
Label_7_012069A7:
 BYTE   N05  Cn1  v108
 BYTE   N06  As1  v080
 BYTE   W06
 BYTE   N04  Fs1  v064
 BYTE   W06
 BYTE   N05  Gs1  v040
 BYTE   W06
 BYTE   Cn1  v056
 BYTE   N06  As1  v048
 BYTE   W06
 BYTE   N04  Fs1  v056
 BYTE   W06
 BYTE   Gs1  v040
 BYTE   W06
 BYTE   N05  Cn1  v100
 BYTE   N04  Gs1  v064
 BYTE   W06
 BYTE   N02  Gs1  v040
 BYTE   W03
 BYTE   Gs1  v052
 BYTE   W03
 BYTE   N05  Gs1  v068
 BYTE   W06
 BYTE   Cn1  v056
 BYTE   N05  Fs1  v092
 BYTE   W06
 BYTE   Gs1  v060
 BYTE   W06
 BYTE   Gs1  v048
 BYTE   W06
 BYTE   Fs1  v072
 BYTE   W06
 BYTE   Gs1  v040
 BYTE   W06
 BYTE   Gs1  v064
 BYTE   W06
 BYTE   Gs1  v040
 BYTE   W06
 BYTE   PEND 
// 003   ----------------------------------------
Label_7_012069EE:
 BYTE   N05  Cn1  v108
 BYTE   N04  Gs1  v052
 BYTE   W06
 BYTE   Fs1  v076
 BYTE   W06
 BYTE   Gs1  v056
 BYTE   W06
 BYTE   N05  Cn1
 BYTE   N04  Gs1  v036
 BYTE   W06
 BYTE   Fs1  v056
 BYTE   W06
 BYTE   Gs1  v036
 BYTE   W06
 BYTE   N05  Cn1  v100
 BYTE   N04  Gs1  v060
 BYTE   W06
 BYTE   Gs1  v032
 BYTE   W06
 BYTE   Gs1  v068
 BYTE   W06
 BYTE   N05  Cn1  v056
 BYTE   N04  Gs1  v036
 BYTE   W06
 BYTE   Gs1  v060
 BYTE   W06
 BYTE   Gs1  v032
 BYTE   W06
 BYTE   Gs1  v056
 BYTE   W06
 BYTE   Gs1  v036
 BYTE   W06
 BYTE   N02  Gs1  v016
 BYTE   W03
 BYTE   Gs1  v040
 BYTE   W03
 BYTE   Gs1  v056
 BYTE   W03
 BYTE   Gs1  v072
 BYTE   W03
 BYTE   PEND 
// 004   ----------------------------------------
Label_7_01206A35:
 BYTE   N05  Cn1  v108
 BYTE   N06  As1  v080
 BYTE   W06
 BYTE   N04  Fs1  v064
 BYTE   W06
 BYTE   N05  Gs1  v040
 BYTE   W06
 BYTE   Cn1  v056
 BYTE   N06  As1  v048
 BYTE   W06
 BYTE   N04  Fs1  v056
 BYTE   TIE  En2
 BYTE   W06
 BYTE   N04  Gs1  v040
 BYTE   W06
 BYTE   N05  Cn1  v100
 BYTE   N04  Gs1  v064
 BYTE   W06
 BYTE   N02  Gs1  v040
 BYTE   W03
 BYTE   Gs1  v052
 BYTE   W03
 BYTE   N05  Gs1  v068
 BYTE   W06
 BYTE   Cn1  v056
 BYTE   N05  Fs1  v092
 BYTE   W06
 BYTE   Gs1  v060
 BYTE   W06
 BYTE   Gs1  v048
 BYTE   W06
 BYTE   Fs1  v072
 BYTE   W06
 BYTE   Gs1  v040
 BYTE   W06
 BYTE   Gs1  v064
 BYTE   W06
 BYTE   Gs1  v040
 BYTE   W06
 BYTE   PEND 
// 005   ----------------------------------------
Label_7_01206A7F:
 BYTE   N05  Cn1  v108
 BYTE   N04  Gs1  v052
 BYTE   W06
 BYTE   Fs1  v076
 BYTE   W06
 BYTE   Gs1  v056
 BYTE   W06
 BYTE   N05  Cn1
 BYTE   N04  Gs1  v036
 BYTE   W06
 BYTE   Fs1  v056
 BYTE   W06
 BYTE   Gs1  v036
 BYTE   W03
 BYTE   PEND 
 BYTE   EOT
 BYTE   En2
 BYTE   W03
 BYTE   N05  Cn1  v100
 BYTE   N04  Gs1  v060
 BYTE   W06
 BYTE   Gs1  v032
 BYTE   W06
 BYTE   Gs1  v068
 BYTE   W06
 BYTE   N05  Cn1  v056
 BYTE   N04  Gs1  v036
 BYTE   W06
 BYTE   Fs1  v060
 BYTE   W06
 BYTE   N05  As1  v040
 BYTE   W06
 BYTE   As1  v064
 BYTE   W06
 BYTE   As1  v076
 BYTE   W06
 BYTE   N04  Fs1  v052
 BYTE   W06
 BYTE   Gs1  v044
 BYTE   W06
// 006   ----------------------------------------
Label_7_01206AC4:
 BYTE   N05  Cn1  v108
 BYTE   N06  As1  v080
 BYTE   TIE  Cs2  v056
 BYTE   W06
 BYTE   N04  Fs1  v064
 BYTE   W06
 BYTE   N05  Gs1  v040
 BYTE   W06
 BYTE   Cn1  v056
 BYTE   N06  As1  v048
 BYTE   W06
 BYTE   N04  Fs1  v056
 BYTE   W06
 BYTE   Gs1  v040
 BYTE   W06
 BYTE   N05  Cn1  v100
 BYTE   N04  Gs1  v064
 BYTE   W06
 BYTE   N02  Gs1  v040
 BYTE   W03
 BYTE   Gs1  v052
 BYTE   W03
 BYTE   N05  Gs1  v068
 BYTE   W06
 BYTE   Cn1  v056
 BYTE   N05  Fs1  v092
 BYTE   W06
 BYTE   Gs1  v060
 BYTE   W06
 BYTE   Gs1  v048
 BYTE   W06
 BYTE   Fs1  v072
 BYTE   W06
 BYTE   Gs1  v040
 BYTE   W06
 BYTE   Gs1  v064
 BYTE   W06
 BYTE   Gs1  v040
 BYTE   W06
 BYTE   PEND 
// 007   ----------------------------------------
 BYTE   PATT
  POIN2 Label_7_01206962
// 008   ----------------------------------------
 BYTE   EOT
 BYTE   Cs2
 BYTE   W03
 BYTE   N04  Gs1  v056
 BYTE   W06
 BYTE   N05  Cn1
 BYTE   N04  Gs1  v036
 BYTE   W06
 BYTE   Fs1  v056
 BYTE   W06
 BYTE   Gs1  v036
 BYTE   W06
 BYTE   N05  Cn1  v100
 BYTE   N04  Gs1  v060
 BYTE   W06
 BYTE   Gs1  v032
 BYTE   W06
 BYTE   Gs1  v068
 BYTE   W06
 BYTE   N05  Cn1  v056
 BYTE   N04  Gs1  v036
 BYTE   W06
 BYTE   Gs1  v060
 BYTE   W06
 BYTE   N11  As1  v056
 BYTE   W12
 BYTE   N04  Gs1  v036
 BYTE   W06
 BYTE   N02  Gs1  v016
 BYTE   W03
 BYTE   Gs1  v040
 BYTE   W03
 BYTE   Gs1  v056
 BYTE   W03
 BYTE   Gs1  v072
 BYTE   W03
// 009   ----------------------------------------
 BYTE   PATT
  POIN2 Label_7_01206A35
// 010   ----------------------------------------
 BYTE   PATT
  POIN2 Label_7_01206A7F
// 011   ----------------------------------------
 BYTE   EOT
 BYTE   En2
 BYTE   W03
 BYTE   N05  Cn1  v100
 BYTE   N04  Fs1  v072
 BYTE   W06
 BYTE   Fs1  v084
 BYTE   W06
 BYTE   Gs1  v036
 BYTE   W06
 BYTE   N05  Cn1  v056
 BYTE   N04  Fs1  v072
 BYTE   W06
 BYTE   Gs1  v060
 BYTE   W06
 BYTE   N05  Gs1  v040
 BYTE   W06
 BYTE   Fs1  v048
 BYTE   W06
 BYTE   As1  v036
 BYTE   W06
 BYTE   As1  v056
 BYTE   W06
 BYTE   As1  v076
 BYTE   W06
// 012   ----------------------------------------
 BYTE   PATT
  POIN2 Label_7_01206AC4
// 013   ----------------------------------------
 BYTE   PATT
  POIN2 Label_7_01206962
// 014   ----------------------------------------
 BYTE   EOT
 BYTE   Cs2
 BYTE   W03
 BYTE   N04  Gs1  v056
 BYTE   W06
 BYTE   N05  Cn1
 BYTE   N04  Gs1  v036
 BYTE   W06
 BYTE   Fs1  v056
 BYTE   W06
 BYTE   Gs1  v036
 BYTE   W06
 BYTE   N05  Cn1  v100
 BYTE   N04  Gs1  v060
 BYTE   W06
 BYTE   Gs1  v032
 BYTE   W06
 BYTE   Gs1  v068
 BYTE   W06
 BYTE   N05  Cn1  v056
 BYTE   N04  Gs1  v036
 BYTE   W06
 BYTE   Gs1  v060
 BYTE   W06
 BYTE   Gs1  v032
 BYTE   W06
 BYTE   Gs1  v056
 BYTE   W06
 BYTE   Gs1  v036
 BYTE   W06
 BYTE   N02  Gs1  v016
 BYTE   W03
 BYTE   Gs1  v040
 BYTE   W03
 BYTE   Gs1  v056
 BYTE   W03
 BYTE   Gs1  v072
 BYTE   W03
// 015   ----------------------------------------
 BYTE   PATT
  POIN2 Label_7_01206A35
// 016   ----------------------------------------
 BYTE   PATT
  POIN2 Label_7_01206A7F
// 017   ----------------------------------------
 BYTE   EOT
 BYTE   En2
 BYTE   W03
 BYTE   N05  Cn1  v100
 BYTE   N04  Gs1  v060
 BYTE   W06
 BYTE   Gs1  v032
 BYTE   W06
 BYTE   Gs1  v068
 BYTE   W06
 BYTE   N05  Cn1  v056
 BYTE   N04  Gs1  v036
 BYTE   W06
 BYTE   Fs1  v060
 BYTE   W06
 BYTE   N05  As1  v040
 BYTE   W06
 BYTE   As1  v064
 BYTE   W06
 BYTE   As1  v076
 BYTE   W06
 BYTE   N04  Fs1  v052
 BYTE   W06
 BYTE   Gs1  v044
 BYTE   W06
// 018   ----------------------------------------
 BYTE   PATT
  POIN2 Label_7_01206AC4
// 019   ----------------------------------------
 BYTE   PATT
  POIN2 Label_7_01206962
// 020   ----------------------------------------
 BYTE   EOT
 BYTE   Cs2
 BYTE   W03
 BYTE   N04  Gs1  v056
 BYTE   W06
 BYTE   N05  Cn1
 BYTE   N04  Gs1  v036
 BYTE   W06
 BYTE   Fs1  v056
 BYTE   W06
 BYTE   Gs1  v036
 BYTE   W06
 BYTE   N05  Cn1  v100
 BYTE   N04  Gs1  v060
 BYTE   W06
 BYTE   Gs1  v032
 BYTE   W06
 BYTE   Gs1  v068
 BYTE   W06
 BYTE   N05  Cn1  v056
 BYTE   N04  Gs1  v036
 BYTE   W06
 BYTE   Gs1  v060
 BYTE   W06
 BYTE   N11  As1  v056
 BYTE   W12
 BYTE   N04  Gs1  v036
 BYTE   W06
 BYTE   N02  Gs1  v016
 BYTE   W03
 BYTE   Gs1  v040
 BYTE   W03
 BYTE   Gs1  v056
 BYTE   W03
 BYTE   Gs1  v072
 BYTE   W03
// 021   ----------------------------------------
 BYTE   PATT
  POIN2 Label_7_01206A35
// 022   ----------------------------------------
 BYTE   PATT
  POIN2 Label_7_01206A7F
// 023   ----------------------------------------
 BYTE   EOT
 BYTE   En2
 BYTE   W03
 BYTE   N05  Cn1  v100
 BYTE   N04  Fs1  v072
 BYTE   W06
 BYTE   Fs1  v084
 BYTE   W06
 BYTE   Gs1  v036
 BYTE   W06
 BYTE   N05  Cn1  v056
 BYTE   N04  Fs1  v072
 BYTE   W06
 BYTE   Gs1  v060
 BYTE   W06
 BYTE   N05  Gs1  v040
 BYTE   W06
 BYTE   Fs1  v048
 BYTE   W06
 BYTE   As1  v036
 BYTE   W06
 BYTE   As1  v056
 BYTE   W06
 BYTE   As1  v076
 BYTE   W06
// 024   ----------------------------------------
 BYTE   PATT
  POIN2 Label_7_012069A7
// 025   ----------------------------------------
 BYTE   PATT
  POIN2 Label_7_012069EE
// 026   ----------------------------------------
 BYTE   PATT
  POIN2 Label_7_012069A7
// 027   ----------------------------------------
 BYTE   N05  Cn1  v108
 BYTE   N04  Gs1  v052
 BYTE   W06
 BYTE   Fs1  v076
 BYTE   W06
 BYTE   Gs1  v056
 BYTE   W06
 BYTE   N05  Cn1
 BYTE   N04  Gs1  v036
 BYTE   W06
 BYTE   Fs1  v056
 BYTE   W06
 BYTE   Gs1  v036
 BYTE   W06
 BYTE   N05  Cn1  v100
 BYTE   N04  Gs1  v060
 BYTE   W06
 BYTE   Gs1  v032
 BYTE   W06
 BYTE   Gs1  v068
 BYTE   W06
 BYTE   N05  Cn1  v056
 BYTE   N04  Gs1  v036
 BYTE   W06
 BYTE   Fs1  v060
 BYTE   W06
 BYTE   N05  As1  v040
 BYTE   W06
 BYTE   As1  v064
 BYTE   W06
 BYTE   As1  v076
 BYTE   W06
 BYTE   N04  Fs1  v052
 BYTE   W06
 BYTE   Gs1  v044
 BYTE   W06
// 028   ----------------------------------------
 BYTE   PATT
  POIN2 Label_7_012069A7
// 029   ----------------------------------------
 BYTE   N05  Cn1  v108
 BYTE   N04  Gs1  v052
 BYTE   W06
 BYTE   Fs1  v076
 BYTE   W06
 BYTE   Gs1  v056
 BYTE   W06
 BYTE   N05  Cn1
 BYTE   N04  Gs1  v036
 BYTE   W06
 BYTE   Fs1  v056
 BYTE   W06
 BYTE   Gs1  v036
 BYTE   W06
 BYTE   N05  Cn1  v100
 BYTE   N04  Gs1  v060
 BYTE   W06
 BYTE   Gs1  v032
 BYTE   W06
 BYTE   Gs1  v068
 BYTE   W06
 BYTE   N05  Cn1  v056
 BYTE   N04  Gs1  v036
 BYTE   W06
 BYTE   Gs1  v060
 BYTE   W06
 BYTE   N11  As1  v056
 BYTE   W12
 BYTE   N04  Gs1  v036
 BYTE   W06
 BYTE   N02  Gs1  v016
 BYTE   W03
 BYTE   Gs1  v040
 BYTE   W03
 BYTE   Gs1  v056
 BYTE   W03
 BYTE   Gs1  v072
 BYTE   W03
// 030   ----------------------------------------
 BYTE   PATT
  POIN2 Label_7_012069A7
// 031   ----------------------------------------
 BYTE   N05  Cn1  v108
 BYTE   N04  Gs1  v052
 BYTE   W06
 BYTE   Fs1  v076
 BYTE   W06
 BYTE   Gs1  v056
 BYTE   W06
 BYTE   N05  Cn1
 BYTE   N04  Gs1  v036
 BYTE   W06
 BYTE   Fs1  v056
 BYTE   W06
 BYTE   Gs1  v036
 BYTE   W06
 BYTE   N05  Cn1  v100
 BYTE   N04  Fs1  v072
 BYTE   W06
 BYTE   Fs1  v084
 BYTE   W06
 BYTE   Gs1  v036
 BYTE   W06
 BYTE   N05  Cn1  v056
 BYTE   N04  Fs1  v072
 BYTE   W06
 BYTE   Gs1  v060
 BYTE   W06
 BYTE   N05  Gs1  v040
 BYTE   W06
 BYTE   Fs1  v048
 BYTE   W06
 BYTE   As1  v036
 BYTE   W06
 BYTE   As1  v056
 BYTE   W06
 BYTE   As1  v076
 BYTE   W06
// 032   ----------------------------------------
Label_7_01206D61:
 BYTE   N05  Cn1  v108
 BYTE   N06  As1  v080
 BYTE   W06
 BYTE   N04  Fs1  v064
 BYTE   W06
 BYTE   N05  Gs1  v040
 BYTE   W06
 BYTE   N06  As1  v048
 BYTE   W06
 BYTE   N05  Cn1  v100
 BYTE   N04  Fs1  v056
 BYTE   W06
 BYTE   Gs1  v040
 BYTE   W06
 BYTE   Gs1  v064
 BYTE   W06
 BYTE   N02  Gs1  v040
 BYTE   W03
 BYTE   Gs1  v052
 BYTE   W03
 BYTE   N05  Cn1  v100
 BYTE   N05  Gs1  v068
 BYTE   W06
 BYTE   Fs1  v092
 BYTE   W06
 BYTE   Gs1  v060
 BYTE   W06
 BYTE   Gs1  v048
 BYTE   W06
 BYTE   Cn1  v084
 BYTE   N05  Fs1  v072
 BYTE   W06
 BYTE   Gs1  v040
 BYTE   W06
 BYTE   Gs1  v064
 BYTE   W06
 BYTE   Gs1  v040
 BYTE   W06
 BYTE   PEND 
// 033   ----------------------------------------
 BYTE   Cn1  v108
 BYTE   N04  Gs1  v052
 BYTE   W06
 BYTE   Fs1  v076
 BYTE   W06
 BYTE   Gs1  v056
 BYTE   W06
 BYTE   Gs1  v036
 BYTE   W06
 BYTE   N05  Cn1  v100
 BYTE   N04  Fs1  v056
 BYTE   W06
 BYTE   Gs1  v036
 BYTE   W06
 BYTE   Gs1  v060
 BYTE   W06
 BYTE   Gs1  v032
 BYTE   W06
 BYTE   N05  Cn1  v100
 BYTE   N04  Gs1  v068
 BYTE   W06
 BYTE   Gs1  v036
 BYTE   W06
 BYTE   Gs1  v060
 BYTE   W06
 BYTE   Gs1  v032
 BYTE   W06
 BYTE   N05  Cn1  v084
 BYTE   N04  Gs1  v056
 BYTE   W06
 BYTE   Gs1  v036
 BYTE   W06
 BYTE   N02  Gs1  v016
 BYTE   W03
 BYTE   Gs1  v040
 BYTE   W03
 BYTE   Gs1  v056
 BYTE   W03
 BYTE   Gs1  v072
 BYTE   W03
// 034   ----------------------------------------
 BYTE   PATT
  POIN2 Label_7_01206D61
// 035   ----------------------------------------
 BYTE   N05  Cn1  v108
 BYTE   N04  Gs1  v052
 BYTE   W06
 BYTE   Fs1  v076
 BYTE   W06
 BYTE   Gs1  v056
 BYTE   W06
 BYTE   Gs1  v036
 BYTE   W06
 BYTE   N05  Cn1  v100
 BYTE   N04  Fs1  v056
 BYTE   W06
 BYTE   Gs1  v036
 BYTE   W06
 BYTE   Gs1  v060
 BYTE   W06
 BYTE   Gs1  v032
 BYTE   W06
 BYTE   N05  Cn1  v100
 BYTE   N04  Gs1  v068
 BYTE   W06
 BYTE   Gs1  v036
 BYTE   W06
 BYTE   Fs1  v060
 BYTE   W06
 BYTE   N05  As1  v040
 BYTE   W06
 BYTE   Cn1  v084
 BYTE   N05  As1  v064
 BYTE   W06
 BYTE   As1  v076
 BYTE   W06
 BYTE   N04  Fs1  v052
 BYTE   W06
 BYTE   Gs1  v044
 BYTE   W06
// 036   ----------------------------------------
 BYTE   PATT
  POIN2 Label_7_01206D61
// 037   ----------------------------------------
 BYTE   N05  Cn1  v108
 BYTE   N04  Gs1  v052
 BYTE   W06
 BYTE   Fs1  v076
 BYTE   W06
 BYTE   Gs1  v056
 BYTE   W06
 BYTE   Gs1  v036
 BYTE   W06
 BYTE   N05  Cn1  v100
 BYTE   N04  Fs1  v056
 BYTE   W06
 BYTE   Gs1  v036
 BYTE   W06
 BYTE   Gs1  v060
 BYTE   W06
 BYTE   Gs1  v032
 BYTE   W06
 BYTE   N05  Cn1  v100
 BYTE   N04  Gs1  v068
 BYTE   W06
 BYTE   Gs1  v036
 BYTE   W06
 BYTE   Gs1  v060
 BYTE   W06
 BYTE   N11  As1  v056
 BYTE   W06
 BYTE   N05  Cn1  v084
 BYTE   W06
 BYTE   N04  Gs1  v036
 BYTE   W06
 BYTE   N02  Gs1  v016
 BYTE   W03
 BYTE   Gs1  v040
 BYTE   W03
 BYTE   Gs1  v056
 BYTE   W03
 BYTE   Gs1  v072
 BYTE   W03
// 038   ----------------------------------------
 BYTE   PATT
  POIN2 Label_7_01206D61
// 039   ----------------------------------------
 BYTE   N05  Cn1  v108
 BYTE   N04  Gs1  v052
 BYTE   W06
 BYTE   Fs1  v076
 BYTE   W06
 BYTE   Gs1  v056
 BYTE   W06
 BYTE   Gs1  v036
 BYTE   W06
 BYTE   N05  Cn1  v100
 BYTE   N04  Fs1  v056
 BYTE   W06
 BYTE   Gs1  v036
 BYTE   W06
 BYTE   Fs1  v072
 BYTE   W06
 BYTE   Fs1  v084
 BYTE   W06
 BYTE   N05  Cn1  v100
 BYTE   N04  Gs1  v036
 BYTE   W06
 BYTE   Fs1  v072
 BYTE   W06
 BYTE   Gs1  v060
 BYTE   W06
 BYTE   N05  Gs1  v040
 BYTE   W06
 BYTE   Cn1  v092
 BYTE   N05  Fs1  v048
 BYTE   W06
 BYTE   As1  v036
 BYTE   W06
 BYTE   N02  Cn1  v064
 BYTE   N05  As1  v056
 BYTE   W04
 BYTE   N02  Cn1  v080
 BYTE   W02
 BYTE   N05  As1  v076
 BYTE   W02
 BYTE   N02  Cn1  v116
 BYTE   W03
 BYTE   GoTo
  POIN2 Label_7_01206912
 BYTE   FINE

//**************** Track 9 (Midi-Chn.8) ****************//

song34_009:
// 000   ----------------------------------------
 BYTE   KEYSH   song34_key+0
Label_8_01206EDA:
 BYTE   VOICE   41
 BYTE   VOL   51*song34_mvl/mxv
 BYTE   PAN   c_v-8
 BYTE   BEND   c_v+0
 BYTE   N04  Gn2  v080
 BYTE   W06
 BYTE   Gn2  v072
 BYTE   W06
 BYTE   Gn2  v040
 BYTE   W06
 BYTE   Gn2  v032
 BYTE   W06
 BYTE   Gn2  v080
 BYTE   W06
 BYTE   Gn2  v072
 BYTE   W06
 BYTE   Gn2  v040
 BYTE   W06
 BYTE   Gn2  v032
 BYTE   W06
 BYTE   Gn2  v080
 BYTE   W06
 BYTE   Gn2  v072
 BYTE   W06
 BYTE   Gn2  v040
 BYTE   W06
 BYTE   Gn2  v032
 BYTE   W06
 BYTE   Gn2  v080
 BYTE   W06
 BYTE   Gn2  v072
 BYTE   W06
 BYTE   Gn2  v040
 BYTE   W06
 BYTE   Gn2  v032
 BYTE   W06
// 001   ----------------------------------------
Label_8_01206F13:
 BYTE   N04  Gn2  v080
 BYTE   W06
 BYTE   Gn2  v072
 BYTE   W06
 BYTE   Gn2  v040
 BYTE   W06
 BYTE   Gn2  v032
 BYTE   W06
 BYTE   Gn2  v080
 BYTE   W06
 BYTE   Gn2  v072
 BYTE   W06
 BYTE   Gn2  v040
 BYTE   W06
 BYTE   Gn2  v032
 BYTE   W06
 BYTE   Gn2  v080
 BYTE   W06
 BYTE   Gn2  v072
 BYTE   W06
 BYTE   Gn2  v040
 BYTE   W06
 BYTE   Gn2  v032
 BYTE   W06
 BYTE   Gn2  v080
 BYTE   W06
 BYTE   Gn2  v072
 BYTE   W06
 BYTE   Gn2  v040
 BYTE   W06
 BYTE   Gn2  v032
 BYTE   W06
 BYTE   PEND 
// 002   ----------------------------------------
 BYTE   PATT
  POIN2 Label_8_01206F13
// 003   ----------------------------------------
Label_8_01206F4A:
 BYTE   N04  Gn2  v080
 BYTE   W06
 BYTE   Gn2  v072
 BYTE   W06
 BYTE   Gn2  v040
 BYTE   W06
 BYTE   Gn2  v032
 BYTE   W06
 BYTE   Gn2  v080
 BYTE   W06
 BYTE   Gn2  v072
 BYTE   W06
 BYTE   Gn2  v040
 BYTE   W06
 BYTE   Gn2  v032
 BYTE   W06
 BYTE   Gn2  v080
 BYTE   W06
 BYTE   Gn2  v072
 BYTE   W06
 BYTE   Gn2  v040
 BYTE   W06
 BYTE   Gn2  v032
 BYTE   W06
 BYTE   Gn2  v080
 BYTE   W06
 BYTE   Gn2  v072
 BYTE   W06
 BYTE   Gn2  v040
 BYTE   W06
 BYTE   N02  Dn3  v068
 BYTE   W03
 BYTE   Ds3
 BYTE   W03
 BYTE   PEND 
// 004   ----------------------------------------
Label_8_01206F7F:
 BYTE   N05  En3  v068
 BYTE   W06
 BYTE   An3
 BYTE   W06
 BYTE   Bn3
 BYTE   W06
 BYTE   En4
 BYTE   W06
 BYTE   En4  v060
 BYTE   W06
 BYTE   En4  v048
 BYTE   W06
 BYTE   Bn3  v068
 BYTE   W06
 BYTE   An3
 BYTE   W06
 BYTE   Bn3
 BYTE   W06
 BYTE   En4
 BYTE   W06
 BYTE   Bn3
 BYTE   W06
 BYTE   An3
 BYTE   W06
 BYTE   En3
 BYTE   W06
 BYTE   Bn2
 BYTE   W06
 BYTE   An2
 BYTE   W06
 BYTE   Bn2
 BYTE   W06
 BYTE   PEND 
// 005   ----------------------------------------
 BYTE   PATT
  POIN2 Label_8_01206F7F
// 006   ----------------------------------------
 BYTE   PATT
  POIN2 Label_8_01206F13
// 007   ----------------------------------------
 BYTE   PATT
  POIN2 Label_8_01206F4A
// 008   ----------------------------------------
 BYTE   PATT
  POIN2 Label_8_01206F7F
// 009   ----------------------------------------
 BYTE   PATT
  POIN2 Label_8_01206F7F
// 010   ----------------------------------------
 BYTE   W96
// 011   ----------------------------------------
Label_8_01206FBF:
 BYTE   W90
 BYTE   N02  Dn3  v068
 BYTE   W03
 BYTE   Ds3
 BYTE   W03
 BYTE   PEND 
// 012   ----------------------------------------
Label_8_01206FC7:
 BYTE   N05  En3  v080
 BYTE   W06
 BYTE   An3
 BYTE   W06
 BYTE   Bn3
 BYTE   W06
 BYTE   En4
 BYTE   W06
 BYTE   En4  v068
 BYTE   W06
 BYTE   En4  v056
 BYTE   W06
 BYTE   Bn3  v080
 BYTE   W06
 BYTE   An3
 BYTE   W06
 BYTE   Bn3
 BYTE   W06
 BYTE   En4
 BYTE   W06
 BYTE   Bn3
 BYTE   W06
 BYTE   An3
 BYTE   W06
 BYTE   En3
 BYTE   W06
 BYTE   Bn2
 BYTE   W06
 BYTE   An2
 BYTE   W06
 BYTE   Bn2
 BYTE   W06
 BYTE   PEND 
// 013   ----------------------------------------
 BYTE   PATT
  POIN2 Label_8_01206FC7
// 014   ----------------------------------------
 BYTE   W96
// 015   ----------------------------------------
 BYTE   PATT
  POIN2 Label_8_01206FBF
// 016   ----------------------------------------
 BYTE   PATT
  POIN2 Label_8_01206FC7
// 017   ----------------------------------------
 BYTE   PATT
  POIN2 Label_8_01206FC7
// 018   ----------------------------------------
 BYTE   W96
// 019   ----------------------------------------
 BYTE   W96
// 020   ----------------------------------------
 BYTE   W96
// 021   ----------------------------------------
 BYTE   W96
// 022   ----------------------------------------
 BYTE   W96
// 023   ----------------------------------------
 BYTE   W96
// 024   ----------------------------------------
 BYTE   W96
// 025   ----------------------------------------
 BYTE   W96
// 026   ----------------------------------------
 BYTE   W96
// 027   ----------------------------------------
 BYTE   W96
// 028   ----------------------------------------
 BYTE   W96
// 029   ----------------------------------------
 BYTE   W96
// 030   ----------------------------------------
 BYTE   W96
// 031   ----------------------------------------
 BYTE   W96
// 032   ----------------------------------------
 BYTE   W96
// 033   ----------------------------------------
 BYTE   W92
 BYTE   W03
 BYTE   GoTo
  POIN2 Label_8_01206EDA
 BYTE   FINE

//**************** Track 10 (Midi-Chn.9) ****************//

song34_010:
// 000   ----------------------------------------
 BYTE   KEYSH   song34_key+0
Label_9_0120701E:
 BYTE   VOICE   46
 BYTE   VOL   51*song34_mvl/mxv
 BYTE   PAN   c_v-14
 BYTE   BEND   c_v+0
 BYTE   W96
// 001   ----------------------------------------
 BYTE   W96
// 002   ----------------------------------------
 BYTE   W96
// 003   ----------------------------------------
 BYTE   W96
// 004   ----------------------------------------
 BYTE   W96
// 005   ----------------------------------------
 BYTE   W96
// 006   ----------------------------------------
 BYTE   W96
// 007   ----------------------------------------
 BYTE   W96
// 008   ----------------------------------------
 BYTE   W96
// 009   ----------------------------------------
 BYTE   W96
// 010   ----------------------------------------
Label_9_01207030:
 BYTE   N05  Fn3  v068
 BYTE   W06
 BYTE   As3
 BYTE   W06
 BYTE   Cn4
 BYTE   W06
 BYTE   N15  Fn4
 BYTE   W18
 BYTE   N05  Cn4
 BYTE   W06
 BYTE   As3
 BYTE   W06
 BYTE   Cn4
 BYTE   W06
 BYTE   Fn4
 BYTE   W06
 BYTE   Cn4
 BYTE   W06
 BYTE   As3
 BYTE   W06
 BYTE   Fn3
 BYTE   W06
 BYTE   Cn3
 BYTE   W06
 BYTE   As2
 BYTE   W06
 BYTE   Cn3
 BYTE   W06
 BYTE   PEND 
// 011   ----------------------------------------
Label_9_01207051:
 BYTE   N05  Fn3  v068
 BYTE   W06
 BYTE   As3
 BYTE   W06
 BYTE   Cn4
 BYTE   W06
 BYTE   N15  Fn4
 BYTE   W18
 BYTE   N05  Cn4
 BYTE   W06
 BYTE   As3
 BYTE   W06
 BYTE   Cn4
 BYTE   W06
 BYTE   Fn4
 BYTE   W06
 BYTE   Cn4
 BYTE   W06
 BYTE   As3
 BYTE   W06
 BYTE   Fn3
 BYTE   W06
 BYTE   Cn3
 BYTE   W06
 BYTE   As2
 BYTE   W12
 BYTE   PEND 
// 012   ----------------------------------------
 BYTE   W96
// 013   ----------------------------------------
 BYTE   W96
// 014   ----------------------------------------
 BYTE   PATT
  POIN2 Label_9_01207030
// 015   ----------------------------------------
 BYTE   PATT
  POIN2 Label_9_01207051
// 016   ----------------------------------------
 BYTE   W96
// 017   ----------------------------------------
 BYTE   W96
// 018   ----------------------------------------
Label_9_0120707E:
 BYTE   N03  Gn4  v080
 BYTE   W06
 BYTE   Gn3  v056
 BYTE   W06
 BYTE   Dn4  v080
 BYTE   W06
 BYTE   Gn3  v056
 BYTE   W06
 BYTE   Gn4  v080
 BYTE   W06
 BYTE   Gn3  v056
 BYTE   W06
 BYTE   Dn4  v080
 BYTE   W06
 BYTE   Gn3  v056
 BYTE   W06
 BYTE   Gn4  v080
 BYTE   W06
 BYTE   Gn3  v056
 BYTE   W06
 BYTE   Dn4  v080
 BYTE   W06
 BYTE   Gn3  v056
 BYTE   W06
 BYTE   Gn4  v080
 BYTE   W06
 BYTE   Gn3  v056
 BYTE   W06
 BYTE   Dn4  v080
 BYTE   W06
 BYTE   Gn3  v056
 BYTE   W06
 BYTE   PEND 
// 019   ----------------------------------------
 BYTE   PATT
  POIN2 Label_9_0120707E
// 020   ----------------------------------------
 BYTE   PATT
  POIN2 Label_9_0120707E
// 021   ----------------------------------------
 BYTE   PATT
  POIN2 Label_9_0120707E
// 022   ----------------------------------------
 BYTE   PATT
  POIN2 Label_9_0120707E
// 023   ----------------------------------------
 BYTE   PATT
  POIN2 Label_9_0120707E
// 024   ----------------------------------------
 BYTE   PATT
  POIN2 Label_9_0120707E
// 025   ----------------------------------------
 BYTE   PATT
  POIN2 Label_9_0120707E
// 026   ----------------------------------------
Label_9_012070D3:
 BYTE   N05  Gn3  v068
 BYTE   W06
 BYTE   Cn4
 BYTE   W06
 BYTE   Dn4
 BYTE   W06
 BYTE   N15  Gn4
 BYTE   W18
 BYTE   N05  Dn4
 BYTE   W06
 BYTE   Cn4
 BYTE   W06
 BYTE   Dn4
 BYTE   W06
 BYTE   Gn4
 BYTE   W06
 BYTE   Dn4
 BYTE   W06
 BYTE   Cn4
 BYTE   W06
 BYTE   Gn3
 BYTE   W06
 BYTE   Dn3
 BYTE   W06
 BYTE   Cn3
 BYTE   W06
 BYTE   Dn3
 BYTE   W06
 BYTE   PEND 
// 027   ----------------------------------------
 BYTE   PATT
  POIN2 Label_9_012070D3
// 028   ----------------------------------------
 BYTE   PATT
  POIN2 Label_9_012070D3
// 029   ----------------------------------------
 BYTE   PATT
  POIN2 Label_9_012070D3
// 030   ----------------------------------------
 BYTE   PATT
  POIN2 Label_9_012070D3
// 031   ----------------------------------------
 BYTE   PATT
  POIN2 Label_9_012070D3
// 032   ----------------------------------------
 BYTE   N05  An3  v068
 BYTE   W06
 BYTE   Dn4
 BYTE   W06
 BYTE   En4
 BYTE   W06
 BYTE   N15  An4
 BYTE   W18
 BYTE   N05  En4
 BYTE   W06
 BYTE   Dn4
 BYTE   W06
 BYTE   En4
 BYTE   W06
 BYTE   An4
 BYTE   W06
 BYTE   En4
 BYTE   W06
 BYTE   Dn4
 BYTE   W06
 BYTE   An3
 BYTE   W06
 BYTE   En3
 BYTE   W06
 BYTE   Dn3
 BYTE   W06
 BYTE   En3
 BYTE   W06
// 033   ----------------------------------------
 BYTE   An3
 BYTE   W06
 BYTE   Dn4
 BYTE   W06
 BYTE   En4
 BYTE   W06
 BYTE   N15  An4
 BYTE   W18
 BYTE   N05  En4
 BYTE   W06
 BYTE   Dn4
 BYTE   W06
 BYTE   En4
 BYTE   W06
 BYTE   An4
 BYTE   W06
 BYTE   En4
 BYTE   W06
 BYTE   Dn4
 BYTE   W06
 BYTE   An3
 BYTE   W06
 BYTE   En3
 BYTE   W06
 BYTE   Dn3
 BYTE   W06
 BYTE   En3
 BYTE   W05
 BYTE   GoTo
  POIN2 Label_9_0120701E
 BYTE   FINE

//**************** Track 11 (Midi-Chn.10) ****************//

song34_011:
// 000   ----------------------------------------
 BYTE   KEYSH   song34_key+0
Label_10_01207156:
 BYTE   VOICE   40
 BYTE   VOL   51*song34_mvl/mxv
 BYTE   PAN   c_v-18
 BYTE   BEND   c_v+0
 BYTE   N32  Gn1  v116
 BYTE   W36
 BYTE   Gn1  v092
 BYTE   W36
 BYTE   N05  Gn1  v076
 BYTE   W06
 BYTE   N17  Gn1  v100
 BYTE   W18
// 001   ----------------------------------------
Label_10_0120716D:
 BYTE   N32  Gn1  v116
 BYTE   W36
 BYTE   N52  Gn1  v092
 BYTE   W54
 BYTE   N02  Gn1  v072
 BYTE   W03
 BYTE   Gn1  v112
 BYTE   W03
 BYTE   PEND 
// 002   ----------------------------------------
Label_10_0120717D:
 BYTE   N32  Gn1  v116
 BYTE   W36
 BYTE   Gn1  v092
 BYTE   W36
 BYTE   N05  Gn1  v076
 BYTE   W06
 BYTE   N17  Gn1  v100
 BYTE   W18
 BYTE   PEND 
// 003   ----------------------------------------
 BYTE   PATT
  POIN2 Label_10_0120716D
// 004   ----------------------------------------
 BYTE   PATT
  POIN2 Label_10_0120717D
// 005   ----------------------------------------
 BYTE   PATT
  POIN2 Label_10_0120716D
// 006   ----------------------------------------
 BYTE   PATT
  POIN2 Label_10_0120717D
// 007   ----------------------------------------
 BYTE   PATT
  POIN2 Label_10_0120716D
// 008   ----------------------------------------
 BYTE   PATT
  POIN2 Label_10_0120717D
// 009   ----------------------------------------
 BYTE   PATT
  POIN2 Label_10_0120716D
// 010   ----------------------------------------
 BYTE   PATT
  POIN2 Label_10_0120717D
// 011   ----------------------------------------
 BYTE   PATT
  POIN2 Label_10_0120716D
// 012   ----------------------------------------
 BYTE   PATT
  POIN2 Label_10_0120717D
// 013   ----------------------------------------
 BYTE   PATT
  POIN2 Label_10_0120716D
// 014   ----------------------------------------
 BYTE   PATT
  POIN2 Label_10_0120717D
// 015   ----------------------------------------
 BYTE   PATT
  POIN2 Label_10_0120716D
// 016   ----------------------------------------
 BYTE   PATT
  POIN2 Label_10_0120717D
// 017   ----------------------------------------
 BYTE   PATT
  POIN2 Label_10_0120716D
// 018   ----------------------------------------
 BYTE   PATT
  POIN2 Label_10_0120717D
// 019   ----------------------------------------
 BYTE   PATT
  POIN2 Label_10_0120716D
// 020   ----------------------------------------
 BYTE   PATT
  POIN2 Label_10_0120717D
// 021   ----------------------------------------
 BYTE   PATT
  POIN2 Label_10_0120716D
// 022   ----------------------------------------
 BYTE   PATT
  POIN2 Label_10_0120717D
// 023   ----------------------------------------
 BYTE   PATT
  POIN2 Label_10_0120716D
// 024   ----------------------------------------
 BYTE   PATT
  POIN2 Label_10_0120717D
// 025   ----------------------------------------
 BYTE   PATT
  POIN2 Label_10_0120716D
// 026   ----------------------------------------
Label_10_01207200:
 BYTE   N32  As1  v116
 BYTE   W36
 BYTE   As1  v092
 BYTE   W36
 BYTE   N05  As1  v076
 BYTE   W06
 BYTE   N17  As1  v100
 BYTE   W18
 BYTE   PEND 
// 027   ----------------------------------------
Label_10_01207210:
 BYTE   N32  As1  v116
 BYTE   W36
 BYTE   N52  As1  v092
 BYTE   W54
 BYTE   N02  As1  v072
 BYTE   W03
 BYTE   As1  v112
 BYTE   W03
 BYTE   PEND 
// 028   ----------------------------------------
 BYTE   PATT
  POIN2 Label_10_01207200
// 029   ----------------------------------------
 BYTE   PATT
  POIN2 Label_10_01207210
// 030   ----------------------------------------
 BYTE   N32  Cn2  v116
 BYTE   W36
 BYTE   Cn2  v092
 BYTE   W36
 BYTE   N05  Cn2  v076
 BYTE   W06
 BYTE   N17  Cn2  v100
 BYTE   W18
// 031   ----------------------------------------
 BYTE   N32  Cn2  v116
 BYTE   W36
 BYTE   N52  Cn2  v092
 BYTE   W54
 BYTE   N02  Cn2  v072
 BYTE   W03
 BYTE   Cn2  v112
 BYTE   W03
// 032   ----------------------------------------
 BYTE   N32  Dn2  v116
 BYTE   W36
 BYTE   Dn2  v092
 BYTE   W36
 BYTE   N05  Dn2  v076
 BYTE   W06
 BYTE   N17  Dn2  v100
 BYTE   W18
// 033   ----------------------------------------
 BYTE   N32  Dn2  v116
 BYTE   W36
 BYTE   Dn2  v092
 BYTE   W36
 BYTE   N03
 BYTE   W04
 BYTE   Dn2  v064
 BYTE   W04
 BYTE   Dn2  v036
 BYTE   W04
 BYTE   Dn2  v072
 BYTE   W04
 BYTE   Dn2  v084
 BYTE   W04
 BYTE   Dn2  v100
 BYTE   W03
 BYTE   GoTo
  POIN2 Label_10_01207156
 BYTE   FINE

//**************** Track 12 (Midi-Chn.11) ****************//

song34_012:
// 000   ----------------------------------------
 BYTE   KEYSH   song34_key+0
Label_11_0120727A:
 BYTE   VOICE   40
 BYTE   VOL   55*song34_mvl/mxv
 BYTE   PAN   c_v+21
 BYTE   BEND   c_v+0
 BYTE   N05  Gn1  v116
 BYTE   W06
 BYTE   Gn1  v056
 BYTE   W06
 BYTE   Gn1  v044
 BYTE   W06
 BYTE   Gn1  v028
 BYTE   W06
 BYTE   Gn1  v076
 BYTE   W06
 BYTE   Gn1  v088
 BYTE   W06
 BYTE   Gn1  v100
 BYTE   W06
 BYTE   Gn1  v056
 BYTE   W06
 BYTE   Gn1  v044
 BYTE   W06
 BYTE   Gn1  v028
 BYTE   W06
 BYTE   Gn1  v016
 BYTE   W12
 BYTE   Gn1  v076
 BYTE   W06
 BYTE   Gn1  v100
 BYTE   W06
 BYTE   Gn1  v056
 BYTE   W06
 BYTE   Gn1  v044
 BYTE   W06
// 001   ----------------------------------------
Label_11_012072B0:
 BYTE   N05  Gn1  v116
 BYTE   W06
 BYTE   Gn1  v056
 BYTE   W06
 BYTE   Gn1  v044
 BYTE   W06
 BYTE   Gn1  v028
 BYTE   W06
 BYTE   Gn1  v076
 BYTE   W06
 BYTE   Gn1  v088
 BYTE   W06
 BYTE   Gn1  v100
 BYTE   W06
 BYTE   Gn1  v056
 BYTE   W06
 BYTE   Gn1  v044
 BYTE   W06
 BYTE   Gn1  v028
 BYTE   W06
 BYTE   Gn1  v016
 BYTE   W12
 BYTE   Gn1  v076
 BYTE   W06
 BYTE   Gn1  v100
 BYTE   W06
 BYTE   Gn1  v056
 BYTE   W06
 BYTE   Gn1  v044
 BYTE   W06
 BYTE   PEND 
// 002   ----------------------------------------
 BYTE   PATT
  POIN2 Label_11_012072B0
// 003   ----------------------------------------
 BYTE   PATT
  POIN2 Label_11_012072B0
// 004   ----------------------------------------
 BYTE   PATT
  POIN2 Label_11_012072B0
// 005   ----------------------------------------
 BYTE   PATT
  POIN2 Label_11_012072B0
// 006   ----------------------------------------
 BYTE   PATT
  POIN2 Label_11_012072B0
// 007   ----------------------------------------
 BYTE   PATT
  POIN2 Label_11_012072B0
// 008   ----------------------------------------
 BYTE   PATT
  POIN2 Label_11_012072B0
// 009   ----------------------------------------
 BYTE   PATT
  POIN2 Label_11_012072B0
// 010   ----------------------------------------
 BYTE   PATT
  POIN2 Label_11_012072B0
// 011   ----------------------------------------
 BYTE   PATT
  POIN2 Label_11_012072B0
// 012   ----------------------------------------
 BYTE   PATT
  POIN2 Label_11_012072B0
// 013   ----------------------------------------
 BYTE   PATT
  POIN2 Label_11_012072B0
// 014   ----------------------------------------
 BYTE   PATT
  POIN2 Label_11_012072B0
// 015   ----------------------------------------
 BYTE   PATT
  POIN2 Label_11_012072B0
// 016   ----------------------------------------
 BYTE   PATT
  POIN2 Label_11_012072B0
// 017   ----------------------------------------
 BYTE   PATT
  POIN2 Label_11_012072B0
// 018   ----------------------------------------
 BYTE   PATT
  POIN2 Label_11_012072B0
// 019   ----------------------------------------
 BYTE   PATT
  POIN2 Label_11_012072B0
// 020   ----------------------------------------
 BYTE   PATT
  POIN2 Label_11_012072B0
// 021   ----------------------------------------
 BYTE   PATT
  POIN2 Label_11_012072B0
// 022   ----------------------------------------
 BYTE   PATT
  POIN2 Label_11_012072B0
// 023   ----------------------------------------
 BYTE   PATT
  POIN2 Label_11_012072B0
// 024   ----------------------------------------
 BYTE   PATT
  POIN2 Label_11_012072B0
// 025   ----------------------------------------
 BYTE   PATT
  POIN2 Label_11_012072B0
// 026   ----------------------------------------
Label_11_01207357:
 BYTE   N05  As1  v116
 BYTE   W06
 BYTE   As1  v056
 BYTE   W06
 BYTE   As1  v044
 BYTE   W06
 BYTE   As1  v028
 BYTE   W06
 BYTE   As1  v076
 BYTE   W06
 BYTE   As1  v088
 BYTE   W06
 BYTE   As1  v100
 BYTE   W06
 BYTE   As1  v056
 BYTE   W06
 BYTE   As1  v044
 BYTE   W06
 BYTE   As1  v028
 BYTE   W06
 BYTE   As1  v016
 BYTE   W12
 BYTE   As1  v076
 BYTE   W06
 BYTE   As1  v100
 BYTE   W06
 BYTE   As1  v056
 BYTE   W06
 BYTE   As1  v044
 BYTE   W06
 BYTE   PEND 
// 027   ----------------------------------------
 BYTE   PATT
  POIN2 Label_11_01207357
// 028   ----------------------------------------
 BYTE   PATT
  POIN2 Label_11_01207357
// 029   ----------------------------------------
 BYTE   PATT
  POIN2 Label_11_01207357
// 030   ----------------------------------------
Label_11_01207395:
 BYTE   N05  Cn1  v116
 BYTE   W06
 BYTE   Cn1  v056
 BYTE   W06
 BYTE   Cn1  v044
 BYTE   W06
 BYTE   Cn1  v028
 BYTE   W06
 BYTE   Cn1  v076
 BYTE   W06
 BYTE   Cn1  v088
 BYTE   W06
 BYTE   Cn1  v100
 BYTE   W06
 BYTE   Cn1  v056
 BYTE   W06
 BYTE   Cn1  v044
 BYTE   W06
 BYTE   Cn1  v028
 BYTE   W06
 BYTE   Cn1  v016
 BYTE   W12
 BYTE   Cn1  v076
 BYTE   W06
 BYTE   Cn1  v100
 BYTE   W06
 BYTE   Cn1  v056
 BYTE   W06
 BYTE   Cn1  v044
 BYTE   W06
 BYTE   PEND 
// 031   ----------------------------------------
 BYTE   PATT
  POIN2 Label_11_01207395
// 032   ----------------------------------------
 BYTE   N05  Dn1  v116
 BYTE   W06
 BYTE   Dn1  v056
 BYTE   W06
 BYTE   Dn1  v044
 BYTE   W06
 BYTE   Dn1  v028
 BYTE   W06
 BYTE   Dn1  v076
 BYTE   W06
 BYTE   Dn1  v088
 BYTE   W06
 BYTE   Dn1  v100
 BYTE   W06
 BYTE   Dn1  v056
 BYTE   W06
 BYTE   Dn1  v044
 BYTE   W06
 BYTE   Dn1  v028
 BYTE   W06
 BYTE   Dn1  v016
 BYTE   W12
 BYTE   Dn1  v076
 BYTE   W06
 BYTE   Dn1  v100
 BYTE   W06
 BYTE   Dn1  v056
 BYTE   W06
 BYTE   Dn1  v044
 BYTE   W06
// 033   ----------------------------------------
 BYTE   Dn1  v116
 BYTE   W06
 BYTE   Dn1  v056
 BYTE   W06
 BYTE   Dn1  v044
 BYTE   W06
 BYTE   Dn1  v028
 BYTE   W06
 BYTE   Dn1  v076
 BYTE   W06
 BYTE   Dn1  v088
 BYTE   W06
 BYTE   Dn1  v100
 BYTE   W06
 BYTE   Dn1  v056
 BYTE   W06
 BYTE   Dn1  v044
 BYTE   W06
 BYTE   Dn1  v028
 BYTE   W06
 BYTE   Dn1  v016
 BYTE   W12
 BYTE   Dn1  v076
 BYTE   W06
 BYTE   Dn1  v100
 BYTE   W06
 BYTE   Dn1  v056
 BYTE   W06
 BYTE   Dn1  v044
 BYTE   W05
 BYTE   GoTo
  POIN2 Label_11_0120727A
 BYTE   FINE

//******************************************************//
	ALIGN 4

song34:
	BYTE	12	// NumTrks
	BYTE	0	// NumBlks
	BYTE	song34_pri	// Priority
	BYTE	song34_rev	// Reverb.
    
	POIN2	song34_grp
    
	POIN2	song34_001
	POIN2	song34_002
	POIN2	song34_003
	POIN2	song34_004
	POIN2	song34_005
	POIN2	song34_006
	POIN2	song34_007
	POIN2	song34_008
	POIN2	song34_009
	POIN2	song34_010
	POIN2	song34_011
	POIN2	song34_012

	
