//Event file generated from Sappy .s format.
	#include "MPlayDef.event"

	#define	song03DD_grp  voicegroup000
	#define	song03DD_pri  0
	#define	song03DD_rev  192 //0xC0
	#define	song03DD_mvl  127
	#define	song03DD_key  0
	#define	song03DD_tbs  1
	#define	song03DD_exg  0
	#define	song03DD_cmp  1

	// .rodata
	//	song03DD
	ALIGN 4


//**************** Track 1 (Midi-Chn.0) ****************//

song03DD_001:
//  #01 //000   ----------------------------------------
 BYTE   KEYSH   song03DD_key+0
Label_01543192:
 BYTE   TEMPO   84*song03DD_tbs/2
 BYTE   VOICE   1
 BYTE   PAN   c_v-10
 BYTE   VOL   31*song03DD_mvl/mxv
 BYTE   PAN   c_v-10
 BYTE   VOL   31*song03DD_mvl/mxv
 BYTE   PAN   c_v-10
 BYTE   VOL   31*song03DD_mvl/mxv
 BYTE   PAN   c_v-10
 BYTE   VOL   31*song03DD_mvl/mxv
 BYTE   BEND   c_v+0
 BYTE   N05  Bn2  v100
 BYTE   W06
 BYTE   Fs3
 BYTE   W06
 BYTE   Dn3
 BYTE   W06
 BYTE   An3
 BYTE   W06
 BYTE   Fs3
 BYTE   W06
 BYTE   En3
 BYTE   W06
 BYTE   Bn3
 BYTE   W06
 BYTE   An3
 BYTE   W06
 BYTE   Bn3
 BYTE   W06
 BYTE   An3
 BYTE   W06
 BYTE   Fs3
 BYTE   W06
 BYTE   En3
 BYTE   W06
 BYTE   An3
 BYTE   W06
 BYTE   Fs3
 BYTE   W06
 BYTE   En3
 BYTE   W06
 BYTE   Fs3
 BYTE   W06
//  #01 //001   ----------------------------------------
Label_015431CA:
 BYTE   N05  Bn2  v100
 BYTE   W06
 BYTE   Fs3
 BYTE   W06
 BYTE   Dn3
 BYTE   W06
 BYTE   An3
 BYTE   W06
 BYTE   Fs3
 BYTE   W06
 BYTE   En3
 BYTE   W06
 BYTE   Bn3
 BYTE   W06
 BYTE   An3
 BYTE   W06
 BYTE   Bn3
 BYTE   W06
 BYTE   An3
 BYTE   W06
 BYTE   Fs3
 BYTE   W06
 BYTE   En3
 BYTE   W06
 BYTE   An3
 BYTE   W06
 BYTE   Fs3
 BYTE   W06
 BYTE   En3
 BYTE   W06
 BYTE   Fs3
 BYTE   W06
 BYTE   PEND 
//  #01 //002   ----------------------------------------
 BYTE   PATT
  POIN2 Label_015431CA
//  #01 //003   ----------------------------------------
 BYTE   PATT
  POIN2 Label_015431CA
//  #01 //004   ----------------------------------------
 BYTE   PATT
  POIN2 Label_015431CA
//  #01 //005   ----------------------------------------
 BYTE   PATT
  POIN2 Label_015431CA
//  #01 //006   ----------------------------------------
 BYTE   N05  Bn2  v100
 BYTE   W06
 BYTE   Fs3
 BYTE   W06
 BYTE   Dn3
 BYTE   W06
 BYTE   An3
 BYTE   W06
 BYTE   Fs3
 BYTE   W06
 BYTE   En3
 BYTE   W06
 BYTE   Bn3
 BYTE   W06
 BYTE   An3
 BYTE   W06
 BYTE   Bn3
 BYTE   W06
 BYTE   An3
 BYTE   W06
 BYTE   Fs3
 BYTE   W06
 BYTE   En3
 BYTE   W06
 BYTE   An3
 BYTE   W06
 BYTE   Fs3
 BYTE   W06
 BYTE   En3
 BYTE   W06
 BYTE   Dn3
 BYTE   W06
//  #01 //007   ----------------------------------------
 BYTE   Fs3
 BYTE   W06
 BYTE   En3
 BYTE   W06
 BYTE   An3
 BYTE   W06
 BYTE   Fs3
 BYTE   W06
 BYTE   Cs4
 BYTE   W06
 BYTE   Bn3
 BYTE   W06
 BYTE   En4
 BYTE   W06
 BYTE   Dn4
 BYTE   W06
 BYTE   Cs4
 BYTE   W06
 BYTE   Bn3
 BYTE   W06
 BYTE   An3
 BYTE   W06
 BYTE   Fs3
 BYTE   W06
 BYTE   Bn3
 BYTE   W06
 BYTE   An3
 BYTE   W06
 BYTE   Fs3
 BYTE   W06
 BYTE   En3
 BYTE   W06
//  #01 //008   ----------------------------------------
 BYTE   Gn3
 BYTE   W06
 BYTE   Dn3
 BYTE   W06
 BYTE   Gn3
 BYTE   W06
 BYTE   An3
 BYTE   W06
 BYTE   As3
 BYTE   W06
 BYTE   An3
 BYTE   W06
 BYTE   As3
 BYTE   W06
 BYTE   Dn4
 BYTE   W06
 BYTE   An3
 BYTE   W06
 BYTE   Fn3
 BYTE   W06
 BYTE   Dn3
 BYTE   W06
 BYTE   Fn3
 BYTE   W06
 BYTE   An3
 BYTE   W06
 BYTE   Dn4
 BYTE   W06
 BYTE   Fn4
 BYTE   W06
 BYTE   Dn4
 BYTE   W06
//  #01 //009   ----------------------------------------
 BYTE   Cn4
 BYTE   W06
 BYTE   As3
 BYTE   W06
 BYTE   An3
 BYTE   W06
 BYTE   Gn3
 BYTE   W06
 BYTE   As3
 BYTE   W06
 BYTE   An3
 BYTE   W06
 BYTE   Gn3
 BYTE   W06
 BYTE   Fn3
 BYTE   W06
 BYTE   Gn3
 BYTE   W06
 BYTE   Fn3
 BYTE   W06
 BYTE   Dn3
 BYTE   W06
 BYTE   Cn3
 BYTE   W06
 BYTE   Dn3
 BYTE   W06
 BYTE   Fn3
 BYTE   W06
 BYTE   Dn3
 BYTE   W06
 BYTE   Cn3
 BYTE   W06
//  #01 //010   ----------------------------------------
 BYTE   W96
//  #01 //011   ----------------------------------------
 BYTE   PATT
  POIN2 Label_015431CA
//  #01 //012   ----------------------------------------
 BYTE   PATT
  POIN2 Label_015431CA
//  #01 //013   ----------------------------------------
 BYTE   PATT
  POIN2 Label_015431CA
//  #01 //014   ----------------------------------------
 BYTE   PATT
  POIN2 Label_015431CA
//  #01 //015   ----------------------------------------
 BYTE   PATT
  POIN2 Label_015431CA
//  #01 //016   ----------------------------------------
 BYTE   N05  Bn2  v100
 BYTE   W06
 BYTE   Fs3
 BYTE   W06
 BYTE   Dn3
 BYTE   W06
 BYTE   An3
 BYTE   W06
 BYTE   Fs3
 BYTE   W06
 BYTE   En3
 BYTE   W06
 BYTE   Bn3
 BYTE   W06
 BYTE   An3
 BYTE   W06
 BYTE   Gn3
 BYTE   W06
 BYTE   Fs3
 BYTE   W06
 BYTE   Gn3
 BYTE   W06
 BYTE   Fs3
 BYTE   W06
 BYTE   En3
 BYTE   W06
 BYTE   Dn3
 BYTE   W06
 BYTE   En3
 BYTE   W06
 BYTE   Dn3
 BYTE   W06
//  #01 //017   ----------------------------------------
 BYTE   PATT
  POIN2 Label_015431CA
//  #01 //018   ----------------------------------------
 BYTE   PATT
  POIN2 Label_015431CA
//  #01 //019   ----------------------------------------
 BYTE   PATT
  POIN2 Label_015431CA
//  #01 //020   ----------------------------------------
 BYTE   PATT
  POIN2 Label_015431CA
//  #01 //021   ----------------------------------------
 BYTE   PATT
  POIN2 Label_015431CA
//  #01 //022   ----------------------------------------
 BYTE   N05  En3  v100
 BYTE   W06
 BYTE   Fs3
 BYTE   W06
 BYTE   An3
 BYTE   W06
 BYTE   Fs3
 BYTE   W06
 BYTE   Bn3
 BYTE   W06
 BYTE   Fs3
 BYTE   W06
 BYTE   Bn3
 BYTE   W06
 BYTE   An3
 BYTE   W06
 BYTE   Dn4
 BYTE   W06
 BYTE   Bn3
 BYTE   W06
 BYTE   Dn4
 BYTE   W06
 BYTE   Cs4
 BYTE   W06
 BYTE   Fs4
 BYTE   W06
 BYTE   En4
 BYTE   W06
 BYTE   Dn4
 BYTE   W06
 BYTE   Cs4
 BYTE   W06
//  #01 //023   ----------------------------------------
 BYTE   An3
 BYTE   W06
 BYTE   Gn3
 BYTE   W06
 BYTE   An3
 BYTE   W06
 BYTE   Bn3
 BYTE   W06
 BYTE   As3
 BYTE   W06
 BYTE   Gn3
 BYTE   W06
 BYTE   Fs3
 BYTE   W06
 BYTE   En3
 BYTE   W06
 BYTE   Fs3
 BYTE   W06
 BYTE   An3
 BYTE   W06
 BYTE   Bn3
 BYTE   W06
 BYTE   Cs4
 BYTE   W06
 BYTE   Dn4
 BYTE   W06
 BYTE   Cs4
 BYTE   W06
 BYTE   Bn3
 BYTE   W06
 BYTE   An3
 BYTE   W06
//  #01 //024   ----------------------------------------
 BYTE   Bn2
 BYTE   W06
 BYTE   Fs3
 BYTE   W06
 BYTE   Dn3
 BYTE   W06
 BYTE   An3
 BYTE   W06
 BYTE   Fs3
 BYTE   W06
 BYTE   En3
 BYTE   W06
 BYTE   Bn3
 BYTE   W06
 BYTE   Cs4
 BYTE   W06
 BYTE   Dn4
 BYTE   W06
 BYTE   Cs4
 BYTE   W06
 BYTE   Bn3
 BYTE   W06
 BYTE   An3
 BYTE   W06
 BYTE   Bn3
 BYTE   W06
 BYTE   An3
 BYTE   W06
 BYTE   Fs3
 BYTE   W06
 BYTE   En3
 BYTE   W06
//  #01 //025   ----------------------------------------
 BYTE   PATT
  POIN2 Label_015431CA
//  #01 //026   ----------------------------------------
 BYTE   PATT
  POIN2 Label_015431CA
//  #01 //027   ----------------------------------------
Label_01543344:
 BYTE   N05  Gs2  v100
 BYTE   W06
 BYTE   Ds3
 BYTE   W06
 BYTE   Bn2
 BYTE   W06
 BYTE   Fs3
 BYTE   W06
 BYTE   Ds3
 BYTE   W06
 BYTE   Cs3
 BYTE   W06
 BYTE   Gs3
 BYTE   W06
 BYTE   Fs3
 BYTE   W06
 BYTE   Gs3
 BYTE   W06
 BYTE   Fs3
 BYTE   W06
 BYTE   Ds3
 BYTE   W06
 BYTE   Cs3
 BYTE   W06
 BYTE   Fs3
 BYTE   W06
 BYTE   Ds3
 BYTE   W06
 BYTE   Cs3
 BYTE   W06
 BYTE   Ds3
 BYTE   W06
 BYTE   PEND 
//  #01 //028   ----------------------------------------
 BYTE   PATT
  POIN2 Label_01543344
//  #01 //029   ----------------------------------------
 BYTE   PATT
  POIN2 Label_01543344
//  #01 //030   ----------------------------------------
 BYTE   N05  Gs2  v100
 BYTE   W06
 BYTE   Ds3
 BYTE   W06
 BYTE   Bn2
 BYTE   W06
 BYTE   Fs3
 BYTE   W06
 BYTE   Ds3
 BYTE   W06
 BYTE   Cs3
 BYTE   W06
 BYTE   Gs3
 BYTE   W06
 BYTE   Fs3
 BYTE   W06
 BYTE   Gs3
 BYTE   W06
 BYTE   Fs3
 BYTE   W06
 BYTE   Ds3
 BYTE   W06
 BYTE   Cs3
 BYTE   W06
 BYTE   Fs3
 BYTE   W06
 BYTE   Gs3
 BYTE   W06
 BYTE   Bn3
 BYTE   W06
 BYTE   Fs4
 BYTE   W06
//  #01 //031   ----------------------------------------
 BYTE   Bn3
 BYTE   W06
 BYTE   Fs4
 BYTE   W06
 BYTE   Dn4
 BYTE   W06
 BYTE   An3
 BYTE   W06
 BYTE   Fs3
 BYTE   W06
 BYTE   En3
 BYTE   W06
 BYTE   Bn3
 BYTE   W06
 BYTE   An3
 BYTE   W06
 BYTE   Bn3
 BYTE   W06
 BYTE   An3
 BYTE   W06
 BYTE   Fs3
 BYTE   W06
 BYTE   En3
 BYTE   W06
 BYTE   An3
 BYTE   W06
 BYTE   Fs3
 BYTE   W06
 BYTE   En3
 BYTE   W06
 BYTE   Fs3
 BYTE   W06
//  #01 //032   ----------------------------------------
 BYTE   PATT
  POIN2 Label_015431CA
//  #01 //033   ----------------------------------------
 BYTE   PATT
  POIN2 Label_015431CA
//  #01 //034   ----------------------------------------
 BYTE   PATT
  POIN2 Label_015431CA
//  #01 //035   ----------------------------------------
 BYTE   PATT
  POIN2 Label_01543344
//  #01 //036   ----------------------------------------
 BYTE   PATT
  POIN2 Label_01543344
//  #01 //037   ----------------------------------------
 BYTE   PATT
  POIN2 Label_01543344
//  #01 //038   ----------------------------------------
 BYTE   PATT
  POIN2 Label_01543344
//  #01 //039   ----------------------------------------
 BYTE   PATT
  POIN2 Label_015431CA
//  #01 //040   ----------------------------------------
 BYTE   PATT
  POIN2 Label_015431CA
//  #01 //041   ----------------------------------------
 BYTE   PATT
  POIN2 Label_015431CA
//  #01 //042   ----------------------------------------
 BYTE   N05  Bn2  v100
 BYTE   W06
 BYTE   Fs3
 BYTE   W06
 BYTE   Dn3
 BYTE   W06
 BYTE   An3
 BYTE   W06
 BYTE   Fs3
 BYTE   W06
 BYTE   En3
 BYTE   W06
 BYTE   Bn3
 BYTE   W06
 BYTE   An3
 BYTE   W06
 BYTE   Bn3
 BYTE   W06
 BYTE   Dn4
 BYTE   W06
 BYTE   Fs4
 BYTE   W06
 BYTE   An4
 BYTE   W06
 BYTE   Bn4
 BYTE   W06
 BYTE   Fs4
 BYTE   W06
 BYTE   Dn4
 BYTE   W06
 BYTE   Bn3
 BYTE   W06
//  #01 //043   ----------------------------------------
 BYTE   GoTo
  POIN2 Label_01543192
//  #01 //044   ----------------------------------------
 BYTE   VOICE   1
 BYTE   PAN   c_v-22
 BYTE   VOL   31*song03DD_mvl/mxv
 BYTE   PAN   c_v-22
 BYTE   VOL   31*song03DD_mvl/mxv
 BYTE   PAN   c_v-22
 BYTE   VOL   31*song03DD_mvl/mxv
 BYTE   BEND   c_v+0
 BYTE   FINE

//**************** Track 2 (Midi-Chn.1) ****************//

song03DD_002:
//  #02 //000   ----------------------------------------
 BYTE   KEYSH   song03DD_key+0
Label_01543422:
 BYTE   VOICE   1
 BYTE   PAN   c_v+28
 BYTE   VOL   5*song03DD_mvl/mxv
 BYTE   PAN   c_v+28
 BYTE   VOL   5*song03DD_mvl/mxv
 BYTE   PAN   c_v+28
 BYTE   VOL   5*song03DD_mvl/mxv
 BYTE   PAN   c_v+28
 BYTE   VOL   5*song03DD_mvl/mxv
 BYTE   BEND   c_v+0
 BYTE   W03
 BYTE   N05  Fs3  v100
 BYTE   W06
 BYTE   Cs4
 BYTE   W06
 BYTE   An3
 BYTE   W06
 BYTE   En4
 BYTE   W06
 BYTE   Cs4
 BYTE   W06
 BYTE   Bn3
 BYTE   W06
 BYTE   Fs4
 BYTE   W06
 BYTE   En4
 BYTE   W06
 BYTE   Fs4
 BYTE   W06
 BYTE   En4
 BYTE   W06
 BYTE   Cs4
 BYTE   W06
 BYTE   Bn3
 BYTE   W06
 BYTE   En4
 BYTE   W06
 BYTE   Cs4
 BYTE   W06
 BYTE   Bn3
 BYTE   W06
 BYTE   Cs4
 BYTE   W03
//  #02 //001   ----------------------------------------
Label_01543459:
 BYTE   W03
 BYTE   N05  Fs3  v100
 BYTE   W06
 BYTE   Cs4
 BYTE   W06
 BYTE   An3
 BYTE   W06
 BYTE   En4
 BYTE   W06
 BYTE   Cs4
 BYTE   W06
 BYTE   Bn3
 BYTE   W06
 BYTE   Fs4
 BYTE   W06
 BYTE   En4
 BYTE   W06
 BYTE   Fs4
 BYTE   W06
 BYTE   En4
 BYTE   W06
 BYTE   Cs4
 BYTE   W06
 BYTE   Bn3
 BYTE   W06
 BYTE   En4
 BYTE   W06
 BYTE   Cs4
 BYTE   W06
 BYTE   Bn3
 BYTE   W06
 BYTE   Cs4
 BYTE   W03
 BYTE   PEND 
//  #02 //002   ----------------------------------------
 BYTE   PATT
  POIN2 Label_01543459
//  #02 //003   ----------------------------------------
 BYTE   PATT
  POIN2 Label_01543459
//  #02 //004   ----------------------------------------
 BYTE   PATT
  POIN2 Label_01543459
//  #02 //005   ----------------------------------------
 BYTE   PATT
  POIN2 Label_01543459
//  #02 //006   ----------------------------------------
 BYTE   W03
 BYTE   N05  Fs3  v100
 BYTE   W06
 BYTE   Cs4
 BYTE   W06
 BYTE   An3
 BYTE   W06
 BYTE   En4
 BYTE   W06
 BYTE   Cs4
 BYTE   W06
 BYTE   Bn3
 BYTE   W06
 BYTE   Fs4
 BYTE   W06
 BYTE   En4
 BYTE   W06
 BYTE   Fs4
 BYTE   W06
 BYTE   En4
 BYTE   W06
 BYTE   Cs4
 BYTE   W06
 BYTE   Bn3
 BYTE   W06
 BYTE   En4
 BYTE   W06
 BYTE   Cs4
 BYTE   W06
 BYTE   Bn3
 BYTE   W06
 BYTE   An3
 BYTE   W03
//  #02 //007   ----------------------------------------
 BYTE   W03
 BYTE   Cs4
 BYTE   W06
 BYTE   Bn3
 BYTE   W06
 BYTE   En4
 BYTE   W06
 BYTE   Cs4
 BYTE   W06
 BYTE   Gs4
 BYTE   W06
 BYTE   Fs4
 BYTE   W06
 BYTE   Bn4
 BYTE   W06
 BYTE   An4
 BYTE   W06
 BYTE   Gs4
 BYTE   W06
 BYTE   Fs4
 BYTE   W06
 BYTE   En4
 BYTE   W06
 BYTE   Cs4
 BYTE   W06
 BYTE   Fs4
 BYTE   W06
 BYTE   En4
 BYTE   W06
 BYTE   Cs4
 BYTE   W06
 BYTE   Bn3
 BYTE   W03
//  #02 //008   ----------------------------------------
 BYTE   W03
 BYTE   Dn4
 BYTE   W06
 BYTE   An3
 BYTE   W06
 BYTE   Dn4
 BYTE   W06
 BYTE   En4
 BYTE   W06
 BYTE   Fn4
 BYTE   W06
 BYTE   En4
 BYTE   W06
 BYTE   Fn4
 BYTE   W06
 BYTE   An4
 BYTE   W06
 BYTE   En4
 BYTE   W06
 BYTE   Cn4
 BYTE   W06
 BYTE   An3
 BYTE   W06
 BYTE   Cn4
 BYTE   W06
 BYTE   En4
 BYTE   W06
 BYTE   An4
 BYTE   W06
 BYTE   Cn5
 BYTE   W06
 BYTE   An4
 BYTE   W03
//  #02 //009   ----------------------------------------
 BYTE   W03
 BYTE   Gn4
 BYTE   W06
 BYTE   Fn4
 BYTE   W06
 BYTE   En4
 BYTE   W06
 BYTE   Dn4
 BYTE   W06
 BYTE   Fn4
 BYTE   W06
 BYTE   En4
 BYTE   W06
 BYTE   Dn4
 BYTE   W06
 BYTE   Cn4
 BYTE   W06
 BYTE   Dn4
 BYTE   W06
 BYTE   Cn4
 BYTE   W06
 BYTE   An3
 BYTE   W06
 BYTE   Gn3
 BYTE   W06
 BYTE   An3
 BYTE   W06
 BYTE   Cn4
 BYTE   W06
 BYTE   An3
 BYTE   W06
 BYTE   N02  Gn3
 BYTE   W03
//  #02 //010   ----------------------------------------
 BYTE   W96
//  #02 //011   ----------------------------------------
 BYTE   PATT
  POIN2 Label_01543459
//  #02 //012   ----------------------------------------
 BYTE   PATT
  POIN2 Label_01543459
//  #02 //013   ----------------------------------------
 BYTE   PATT
  POIN2 Label_01543459
//  #02 //014   ----------------------------------------
 BYTE   PATT
  POIN2 Label_01543459
//  #02 //015   ----------------------------------------
 BYTE   PATT
  POIN2 Label_01543459
//  #02 //016   ----------------------------------------
 BYTE   W03
 BYTE   N05  Fs3  v100
 BYTE   W06
 BYTE   Cs4
 BYTE   W06
 BYTE   An3
 BYTE   W06
 BYTE   En4
 BYTE   W06
 BYTE   Cs4
 BYTE   W06
 BYTE   Bn3
 BYTE   W06
 BYTE   Fs4
 BYTE   W06
 BYTE   En4
 BYTE   W06
 BYTE   Dn4
 BYTE   W06
 BYTE   Cs4
 BYTE   W06
 BYTE   Dn4
 BYTE   W06
 BYTE   Cs4
 BYTE   W06
 BYTE   Bn3
 BYTE   W06
 BYTE   An3
 BYTE   W06
 BYTE   Bn3
 BYTE   W06
 BYTE   An3
 BYTE   W03
//  #02 //017   ----------------------------------------
 BYTE   PATT
  POIN2 Label_01543459
//  #02 //018   ----------------------------------------
 BYTE   PATT
  POIN2 Label_01543459
//  #02 //019   ----------------------------------------
 BYTE   PATT
  POIN2 Label_01543459
//  #02 //020   ----------------------------------------
 BYTE   PATT
  POIN2 Label_01543459
//  #02 //021   ----------------------------------------
 BYTE   PATT
  POIN2 Label_01543459
//  #02 //022   ----------------------------------------
 BYTE   W03
 BYTE   N05  Bn3  v100
 BYTE   W06
 BYTE   Cs4
 BYTE   W06
 BYTE   En4
 BYTE   W06
 BYTE   Cs4
 BYTE   W06
 BYTE   Fs4
 BYTE   W06
 BYTE   Cs4
 BYTE   W06
 BYTE   Fs4
 BYTE   W06
 BYTE   En4
 BYTE   W06
 BYTE   An4
 BYTE   W06
 BYTE   Fs4
 BYTE   W06
 BYTE   An4
 BYTE   W06
 BYTE   Gs4
 BYTE   W06
 BYTE   Cs5
 BYTE   W06
 BYTE   Bn4
 BYTE   W06
 BYTE   An4
 BYTE   W06
 BYTE   Gs4
 BYTE   W03
//  #02 //023   ----------------------------------------
 BYTE   W03
 BYTE   En4
 BYTE   W06
 BYTE   Dn4
 BYTE   W06
 BYTE   En4
 BYTE   W06
 BYTE   Fs4
 BYTE   W06
 BYTE   Fn4
 BYTE   W06
 BYTE   Dn4
 BYTE   W06
 BYTE   Cs4
 BYTE   W06
 BYTE   Bn3
 BYTE   W06
 BYTE   Cs4
 BYTE   W06
 BYTE   En4
 BYTE   W06
 BYTE   Fs4
 BYTE   W06
 BYTE   Gs4
 BYTE   W06
 BYTE   An4
 BYTE   W06
 BYTE   Gs4
 BYTE   W06
 BYTE   Fs4
 BYTE   W06
 BYTE   En4
 BYTE   W03
//  #02 //024   ----------------------------------------
 BYTE   W03
 BYTE   Fs3
 BYTE   W06
 BYTE   Cs4
 BYTE   W06
 BYTE   An3
 BYTE   W06
 BYTE   En4
 BYTE   W06
 BYTE   Cs4
 BYTE   W06
 BYTE   Bn3
 BYTE   W06
 BYTE   Fs4
 BYTE   W06
 BYTE   Gs4
 BYTE   W06
 BYTE   An4
 BYTE   W06
 BYTE   Gs4
 BYTE   W06
 BYTE   Fs4
 BYTE   W06
 BYTE   En4
 BYTE   W06
 BYTE   Fs4
 BYTE   W06
 BYTE   En4
 BYTE   W06
 BYTE   Cs4
 BYTE   W06
 BYTE   Bn3
 BYTE   W03
//  #02 //025   ----------------------------------------
 BYTE   PATT
  POIN2 Label_01543459
//  #02 //026   ----------------------------------------
 BYTE   PATT
  POIN2 Label_01543459
//  #02 //027   ----------------------------------------
Label_015435DD:
 BYTE   W03
 BYTE   N05  Ds3  v100
 BYTE   W06
 BYTE   As3
 BYTE   W06
 BYTE   Fs3
 BYTE   W06
 BYTE   Cs4
 BYTE   W06
 BYTE   As3
 BYTE   W06
 BYTE   Gs3
 BYTE   W06
 BYTE   Ds4
 BYTE   W06
 BYTE   Cs4
 BYTE   W06
 BYTE   Ds4
 BYTE   W06
 BYTE   Cs4
 BYTE   W06
 BYTE   As3
 BYTE   W06
 BYTE   Gs3
 BYTE   W06
 BYTE   Cs4
 BYTE   W06
 BYTE   As3
 BYTE   W06
 BYTE   Gs3
 BYTE   W06
 BYTE   As3
 BYTE   W03
 BYTE   PEND 
//  #02 //028   ----------------------------------------
 BYTE   PATT
  POIN2 Label_015435DD
//  #02 //029   ----------------------------------------
 BYTE   PATT
  POIN2 Label_015435DD
//  #02 //030   ----------------------------------------
 BYTE   W03
 BYTE   N05  Ds3  v100
 BYTE   W06
 BYTE   As3
 BYTE   W06
 BYTE   Fs3
 BYTE   W06
 BYTE   Cs4
 BYTE   W06
 BYTE   As3
 BYTE   W06
 BYTE   Gs3
 BYTE   W06
 BYTE   Ds4
 BYTE   W06
 BYTE   Cs4
 BYTE   W06
 BYTE   Ds4
 BYTE   W06
 BYTE   Cs4
 BYTE   W06
 BYTE   As3
 BYTE   W06
 BYTE   Gs3
 BYTE   W06
 BYTE   Cs4
 BYTE   W06
 BYTE   Ds4
 BYTE   W06
 BYTE   Fs4
 BYTE   W06
 BYTE   Cs5
 BYTE   W03
//  #02 //031   ----------------------------------------
 BYTE   W03
 BYTE   Fs4
 BYTE   W06
 BYTE   Cs5
 BYTE   W06
 BYTE   An4
 BYTE   W06
 BYTE   En4
 BYTE   W06
 BYTE   Cs4
 BYTE   W06
 BYTE   Bn3
 BYTE   W06
 BYTE   Fs4
 BYTE   W06
 BYTE   En4
 BYTE   W06
 BYTE   Fs4
 BYTE   W06
 BYTE   En4
 BYTE   W06
 BYTE   Cs4
 BYTE   W06
 BYTE   Bn3
 BYTE   W06
 BYTE   En4
 BYTE   W06
 BYTE   Cs4
 BYTE   W06
 BYTE   Bn3
 BYTE   W06
 BYTE   Cs4
 BYTE   W03
//  #02 //032   ----------------------------------------
 BYTE   PATT
  POIN2 Label_01543459
//  #02 //033   ----------------------------------------
 BYTE   PATT
  POIN2 Label_01543459
//  #02 //034   ----------------------------------------
 BYTE   PATT
  POIN2 Label_01543459
//  #02 //035   ----------------------------------------
 BYTE   PATT
  POIN2 Label_015435DD
//  #02 //036   ----------------------------------------
 BYTE   PATT
  POIN2 Label_015435DD
//  #02 //037   ----------------------------------------
 BYTE   PATT
  POIN2 Label_015435DD
//  #02 //038   ----------------------------------------
 BYTE   PATT
  POIN2 Label_015435DD
//  #02 //039   ----------------------------------------
 BYTE   PATT
  POIN2 Label_01543459
//  #02 //040   ----------------------------------------
 BYTE   PATT
  POIN2 Label_01543459
//  #02 //041   ----------------------------------------
 BYTE   PATT
  POIN2 Label_01543459
//  #02 //042   ----------------------------------------
 BYTE   W03
 BYTE   N05  Fs3  v100
 BYTE   W06
 BYTE   Cs4
 BYTE   W06
 BYTE   An3
 BYTE   W06
 BYTE   En4
 BYTE   W06
 BYTE   Cs4
 BYTE   W06
 BYTE   Bn3
 BYTE   W06
 BYTE   Fs4
 BYTE   W06
 BYTE   En4
 BYTE   W06
 BYTE   Fs4
 BYTE   W06
 BYTE   An4
 BYTE   W06
 BYTE   Cs5
 BYTE   W06
 BYTE   En5
 BYTE   W06
 BYTE   Fs5
 BYTE   W06
 BYTE   Cs5
 BYTE   W06
 BYTE   An4
 BYTE   W06
 BYTE   N02  Fs4
 BYTE   W03
//  #02 //043   ----------------------------------------
 BYTE   GoTo
  POIN2 Label_01543422
//  #02 //044   ----------------------------------------
 BYTE   VOICE   1
 BYTE   PAN   c_v+28
 BYTE   VOL   5*song03DD_mvl/mxv
 BYTE   PAN   c_v+28
 BYTE   VOL   5*song03DD_mvl/mxv
 BYTE   PAN   c_v+28
 BYTE   VOL   5*song03DD_mvl/mxv
 BYTE   BEND   c_v+0
 BYTE   FINE

//**************** Track 3 (Midi-Chn.2) ****************//

song03DD_003:
//  #03 //000   ----------------------------------------
 BYTE   KEYSH   song03DD_key+0
Label_015436BE:
 BYTE   VOICE   68
 BYTE   PAN   c_v+0
 BYTE   VOL   34*song03DD_mvl/mxv
 BYTE   PAN   c_v+0
 BYTE   VOL   34*song03DD_mvl/mxv
 BYTE   PAN   c_v+0
 BYTE   VOL   34*song03DD_mvl/mxv
 BYTE   PAN   c_v+0
 BYTE   VOL   34*song03DD_mvl/mxv
 BYTE   BEND   c_v+0
 BYTE   W96
//  #03 //001   ----------------------------------------
 BYTE   W96
//  #03 //002   ----------------------------------------
Label_015436D4:
 BYTE   N05  Bn2  v100
 BYTE   N05  Bn3
 BYTE   W18
 BYTE   Bn2
 BYTE   N05  Bn3
 BYTE   W72
 BYTE   N02
 BYTE   W03
 BYTE   Cs4
 BYTE   W03
 BYTE   PEND 
//  #03 //003   ----------------------------------------
 BYTE   N11  Dn4
 BYTE   W12
 BYTE   En4
 BYTE   W12
 BYTE   N05  Cs4
 BYTE   W06
 BYTE   Dn4
 BYTE   W06
 BYTE   Cs4
 BYTE   W06
 BYTE   An3
 BYTE   W06
 BYTE   Bn2
 BYTE   N05  Bn3
 BYTE   W18
 BYTE   Bn2
 BYTE   N05  Bn3
 BYTE   W30
//  #03 //004   ----------------------------------------
 BYTE   W42
 BYTE   N02
 BYTE   W03
 BYTE   Fs4
 BYTE   W03
 BYTE   N01  Gn4
 BYTE   W04
 BYTE   Fs4
 BYTE   W04
 BYTE   En4
 BYTE   W04
 BYTE   Fs4
 BYTE   W04
 BYTE   En4
 BYTE   W04
 BYTE   Dn4
 BYTE   W04
 BYTE   Cs4
 BYTE   W04
 BYTE   En4
 BYTE   W04
 BYTE   Dn4
 BYTE   W04
 BYTE   Cs4
 BYTE   W04
 BYTE   Bn3
 BYTE   W04
 BYTE   An3
 BYTE   W04
//  #03 //005   ----------------------------------------
 BYTE   PATT
  POIN2 Label_015436D4
//  #03 //006   ----------------------------------------
 BYTE   N08  Dn4  v100
 BYTE   W09
 BYTE   Fs3
 BYTE   W09
 BYTE   N05  Dn4
 BYTE   W06
 BYTE   N08  Cs4
 BYTE   W09
 BYTE   En3
 BYTE   W09
 BYTE   N05  Cs4
 BYTE   W06
 BYTE   Bn2
 BYTE   N05  Bn3
 BYTE   W18
 BYTE   Bn2
 BYTE   N05  Bn3
 BYTE   W18
 BYTE   An2
 BYTE   N05  An3
 BYTE   W12
//  #03 //007   ----------------------------------------
 BYTE   N44  Fs2
 BYTE   N44  Fs3
 BYTE   W96
//  #03 //008   ----------------------------------------
 BYTE   W96
//  #03 //009   ----------------------------------------
 BYTE   W96
//  #03 //010   ----------------------------------------
 BYTE   W96
//  #03 //011   ----------------------------------------
 BYTE   W96
//  #03 //012   ----------------------------------------
 BYTE   W96
//  #03 //013   ----------------------------------------
 BYTE   N05  Bn2
 BYTE   N05  Bn3
 BYTE   W18
 BYTE   Bn2
 BYTE   N05  Bn3
 BYTE   W72
 BYTE   N02
 BYTE   W03
 BYTE   An3
 BYTE   W03
//  #03 //014   ----------------------------------------
 BYTE   Dn4
 BYTE   W03
 BYTE   Cs4
 BYTE   W03
 BYTE   Dn4
 BYTE   W03
 BYTE   Cs4
 BYTE   W03
 BYTE   Bn3
 BYTE   W03
 BYTE   An3
 BYTE   W03
 BYTE   Bn3
 BYTE   W03
 BYTE   An3
 BYTE   W03
 BYTE   Fs3
 BYTE   W03
 BYTE   En3
 BYTE   W03
 BYTE   Fs3
 BYTE   W03
 BYTE   En3
 BYTE   W03
 BYTE   Bn2
 BYTE   W03
 BYTE   Dn3
 BYTE   W03
 BYTE   Fs3
 BYTE   W03
 BYTE   Dn3
 BYTE   W03
 BYTE   N05  Bn2
 BYTE   N05  Bn3
 BYTE   W06
 BYTE   N02
 BYTE   W03
 BYTE   Dn4
 BYTE   W03
 BYTE   Fs4
 BYTE   W06
 BYTE   N05  Bn2
 BYTE   N05  Bn3
 BYTE   W30
//  #03 //015   ----------------------------------------
 BYTE   W42
 BYTE   N02
 BYTE   W03
 BYTE   Cs4
 BYTE   W03
 BYTE   N08  Dn4
 BYTE   W09
 BYTE   En4
 BYTE   W09
 BYTE   N05  Fs4
 BYTE   W06
 BYTE   N08  Cs4
 BYTE   W09
 BYTE   Dn4
 BYTE   W09
 BYTE   N05  En4
 BYTE   W06
//  #03 //016   ----------------------------------------
 BYTE   Bn2
 BYTE   N05  Bn3
 BYTE   W18
 BYTE   N02  Bn2
 BYTE   N02  Bn3
 BYTE   W03
 BYTE   An2
 BYTE   N02  An3
 BYTE   W03
 BYTE   N11  Bn2
 BYTE   N11  Fs3
 BYTE   W12
 BYTE   An2
 BYTE   N11  En3
 BYTE   W12
 BYTE   N23  Cs3
 BYTE   N23  An3
 BYTE   W24
 BYTE   Dn3
 BYTE   N23  Gn3
 BYTE   W24
//  #03 //017   ----------------------------------------
 BYTE   N05  Bn2
 BYTE   N05  Bn3
 BYTE   W18
 BYTE   Bn2
 BYTE   N05  Bn3
 BYTE   W30
 BYTE   N23  An3
 BYTE   N23  Fs4
 BYTE   W24
 BYTE   Cs4
 BYTE   N23  En4
 BYTE   W24
//  #03 //018   ----------------------------------------
 BYTE   N05  Bn2
 BYTE   N05  Bn3
 BYTE   N05  Fs4
 BYTE   W18
 BYTE   Bn2
 BYTE   N05  Bn3
 BYTE   N05  Fs4
 BYTE   W12
 BYTE   Cs3
 BYTE   N05  Cs4
 BYTE   N05  En4
 BYTE   W06
 BYTE   Dn3
 BYTE   N05  Fs3
 BYTE   N05  Dn4
 BYTE   W18
 BYTE   N02  Bn2
 BYTE   N02  Bn3
 BYTE   W03
 BYTE   Cs3
 BYTE   N02  Cs4
 BYTE   W03
 BYTE   Dn3
 BYTE   N02  Dn4
 BYTE   W03
 BYTE   En3
 BYTE   N02  En4
 BYTE   W03
 BYTE   Dn3
 BYTE   N02  Dn4
 BYTE   W03
 BYTE   Cs3
 BYTE   N02  Cs4
 BYTE   W03
 BYTE   An2
 BYTE   N02  An3
 BYTE   W03
 BYTE   Fs2
 BYTE   N02  Fs3
 BYTE   W03
 BYTE   An2
 BYTE   N02  An3
 BYTE   W03
 BYTE   Fs2
 BYTE   N02  Fs3
 BYTE   W03
 BYTE   En2
 BYTE   N02  En3
 BYTE   W03
 BYTE   Fs2
 BYTE   N02  Fs3
 BYTE   W03
 BYTE   An2
 BYTE   N02  An3
 BYTE   W03
 BYTE   Bn2
 BYTE   N02  Bn3
 BYTE   W03
//  #03 //019   ----------------------------------------
 BYTE   W06
 BYTE   N05  Bn2
 BYTE   N05  Bn3
 BYTE   W12
 BYTE   Dn3
 BYTE   N05  Dn4
 BYTE   W12
 BYTE   Fs3
 BYTE   N05  Fs4
 BYTE   W06
 BYTE   En3
 BYTE   N05  En4
 BYTE   W12
 BYTE   N07  Bn3
 BYTE   N07  Fs4
 BYTE   W08
 BYTE   An3
 BYTE   N07  En4
 BYTE   W08
 BYTE   Bn3
 BYTE   N07  Dn4
 BYTE   W08
 BYTE   An3
 BYTE   N07  Cs4
 BYTE   W08
 BYTE   Fs3
 BYTE   N07  Dn4
 BYTE   W08
 BYTE   En3
 BYTE   N07  Cs4
 BYTE   W08
//  #03 //020   ----------------------------------------
 BYTE   N05  Bn2
 BYTE   N05  Bn3
 BYTE   W18
 BYTE   Bn2
 BYTE   N05  Bn3
 BYTE   W12
 BYTE   Cs3
 BYTE   N05  Cs4
 BYTE   W06
 BYTE   Dn3
 BYTE   N05  Dn4
 BYTE   W18
 BYTE   Fs3
 BYTE   N05  Fs4
 BYTE   W12
 BYTE   En3
 BYTE   N05  En4
 BYTE   W12
 BYTE   An3
 BYTE   N05  An4
 BYTE   W12
 BYTE   Gn3
 BYTE   N05  Gn4
 BYTE   W06
//  #03 //021   ----------------------------------------
 BYTE   Fs3
 BYTE   N05  Fs4
 BYTE   W18
 BYTE   En3
 BYTE   N05  En4
 BYTE   W12
 BYTE   Fs3
 BYTE   N05  Fs4
 BYTE   W06
 BYTE   En3
 BYTE   N05  En4
 BYTE   W12
 BYTE   N07  Dn3
 BYTE   N07  Dn4
 BYTE   W08
 BYTE   En3
 BYTE   N07  En4
 BYTE   W08
 BYTE   Dn3
 BYTE   N07  Dn4
 BYTE   W08
 BYTE   Cs3
 BYTE   N07  Cs4
 BYTE   W08
 BYTE   Fs2
 BYTE   N07  Fs3
 BYTE   W08
 BYTE   An2
 BYTE   N07  An3
 BYTE   W08
//  #03 //022   ----------------------------------------
 BYTE   W06
 BYTE   N05  Gn2
 BYTE   N05  Gn3
 BYTE   W06
 BYTE   An2
 BYTE   N05  An3
 BYTE   W06
 BYTE   Bn2
 BYTE   N05  Bn3
 BYTE   W06
 BYTE   As2
 BYTE   N05  As3
 BYTE   W06
 BYTE   Fs2
 BYTE   N05  Fs3
 BYTE   W06
 BYTE   Bn2
 BYTE   N05  Bn3
 BYTE   W06
 BYTE   Cs3
 BYTE   N05  Cs4
 BYTE   W06
 BYTE   Dn3
 BYTE   N05  Dn4
 BYTE   W06
 BYTE   Bn2
 BYTE   N05  Bn3
 BYTE   W06
 BYTE   En3
 BYTE   N05  En4
 BYTE   W06
 BYTE   Dn3
 BYTE   N05  Dn4
 BYTE   W06
 BYTE   Fs3
 BYTE   N05  Fs4
 BYTE   W06
 BYTE   An3
 BYTE   N05  An4
 BYTE   W06
 BYTE   Bn3
 BYTE   N05  Bn4
 BYTE   W06
 BYTE   Fs3
 BYTE   N05  Fs4
 BYTE   W06
//  #03 //023   ----------------------------------------
 BYTE   N32  An3
 BYTE   N32  En4
 BYTE   W36
 BYTE   Fs3
 BYTE   N32  Dn4
 BYTE   W36
 BYTE   N23  An3
 BYTE   N23  Cs4
 BYTE   W24
//  #03 //024   ----------------------------------------
 BYTE   N17  Gn3
 BYTE   N44  Bn3
 BYTE   W18
 BYTE   N17  Fs3
 BYTE   W18
 BYTE   N11  En3
 BYTE   W12
 BYTE   N17  Dn3
 BYTE   N44  Fs4
 BYTE   W18
 BYTE   N17  Fs3
 BYTE   W18
 BYTE   N11  An3
 BYTE   W12
//  #03 //025   ----------------------------------------
 BYTE   N92  Bn3
 BYTE   W96
//  #03 //026   ----------------------------------------
 BYTE   W96
//  #03 //027   ----------------------------------------
 BYTE   W96
//  #03 //028   ----------------------------------------
 BYTE   W96
//  #03 //029   ----------------------------------------
 BYTE   W96
//  #03 //030   ----------------------------------------
 BYTE   W96
//  #03 //031   ----------------------------------------
 BYTE   W96
//  #03 //032   ----------------------------------------
 BYTE   W96
//  #03 //033   ----------------------------------------
 BYTE   W96
//  #03 //034   ----------------------------------------
 BYTE   W84
 BYTE   N11  Gs3
 BYTE   W12
//  #03 //035   ----------------------------------------
 BYTE   N08  Bn3
 BYTE   W09
 BYTE   Ds3
 BYTE   W09
 BYTE   N05  Bn3
 BYTE   W06
 BYTE   N08  As3
 BYTE   W09
 BYTE   Cs3
 BYTE   W09
 BYTE   N05  As3
 BYTE   W06
 BYTE   N08  Gs3
 BYTE   W09
 BYTE   As3
 BYTE   W09
 BYTE   N05  Bn3
 BYTE   W06
 BYTE   N02  Ds4
 BYTE   W03
 BYTE   Cs4
 BYTE   W03
 BYTE   Ds4
 BYTE   W03
 BYTE   Cs4
 BYTE   W03
 BYTE   Bn3
 BYTE   W03
 BYTE   As3
 BYTE   W03
 BYTE   Bn3
 BYTE   W03
 BYTE   Cs4
 BYTE   W03
//  #03 //036   ----------------------------------------
 BYTE   Gs4
 BYTE   W03
 BYTE   Ds4
 BYTE   W03
 BYTE   Bn3
 BYTE   W03
 BYTE   Fs4
 BYTE   W03
 BYTE   Cs4
 BYTE   W03
 BYTE   As3
 BYTE   W03
 BYTE   N11  En4
 BYTE   W12
 BYTE   N05  Ds4
 BYTE   W06
 BYTE   Cs4
 BYTE   W06
 BYTE   Bn3
 BYTE   W06
 BYTE   N08  Cs4
 BYTE   W09
 BYTE   Ds4
 BYTE   W09
 BYTE   N28  As3
 BYTE   W30
//  #03 //037   ----------------------------------------
 BYTE   N08  Gs3
 BYTE   W09
 BYTE   Bn3
 BYTE   W09
 BYTE   As3
 BYTE   W09
 BYTE   Cs4
 BYTE   W09
 BYTE   Bn3
 BYTE   W09
 BYTE   Ds4
 BYTE   W09
 BYTE   Cs4
 BYTE   W09
 BYTE   Fs4
 BYTE   W09
 BYTE   N05  En4
 BYTE   W06
 BYTE   Ds4
 BYTE   W06
 BYTE   Cs4
 BYTE   W06
 BYTE   Bn3
 BYTE   W06
//  #03 //038   ----------------------------------------
 BYTE   N08  Gs4
 BYTE   W09
 BYTE   Ds4
 BYTE   W09
 BYTE   Cs4
 BYTE   W09
 BYTE   Bn3
 BYTE   W09
 BYTE   N05  Gs3
 BYTE   W06
 BYTE   Ds4
 BYTE   W06
 BYTE   N02  Gs3
 BYTE   W03
 BYTE   Bn3
 BYTE   W03
 BYTE   Ds4
 BYTE   W03
 BYTE   Fs4
 BYTE   W03
 BYTE   Gs4
 BYTE   W03
 BYTE   Fs4
 BYTE   W03
 BYTE   Ds4
 BYTE   W03
 BYTE   Cs4
 BYTE   W03
 BYTE   Gs3
 BYTE   W03
 BYTE   Fs3
 BYTE   W03
 BYTE   Bn3
 BYTE   W03
 BYTE   Gs3
 BYTE   W03
 BYTE   Ds4
 BYTE   W03
 BYTE   Bn3
 BYTE   W03
 BYTE   Gs4
 BYTE   W03
 BYTE   Gs3
 BYTE   W03
//  #03 //039   ----------------------------------------
 BYTE   W96
//  #03 //040   ----------------------------------------
 BYTE   W96
//  #03 //041   ----------------------------------------
 BYTE   W96
//  #03 //042   ----------------------------------------
 BYTE   W96
//  #03 //043   ----------------------------------------
 BYTE   GoTo
  POIN2 Label_015436BE
//  #03 //044   ----------------------------------------
 BYTE   VOICE   68
 BYTE   PAN   c_v+0
 BYTE   VOL   34*song03DD_mvl/mxv
 BYTE   PAN   c_v+0
 BYTE   VOL   34*song03DD_mvl/mxv
 BYTE   PAN   c_v+0
 BYTE   VOL   34*song03DD_mvl/mxv
 BYTE   BEND   c_v+0
 BYTE   FINE

//**************** Track 4 (Midi-Chn.3) ****************//

song03DD_004:
//  #04 //000   ----------------------------------------
 BYTE   KEYSH   song03DD_key+0
Label_014C913E:
 BYTE   VOICE   1
 BYTE   PAN   c_v+16
 BYTE   VOL   33*song03DD_mvl/mxv
 BYTE   PAN   c_v+16
 BYTE   VOL   33*song03DD_mvl/mxv
 BYTE   PAN   c_v+16
 BYTE   VOL   33*song03DD_mvl/mxv
 BYTE   PAN   c_v+16
 BYTE   VOL   33*song03DD_mvl/mxv
 BYTE   BEND   c_v+0
 BYTE   W96
//  #04 //001   ----------------------------------------
 BYTE   W96
//  #04 //002   ----------------------------------------
 BYTE   W96
//  #04 //003   ----------------------------------------
 BYTE   W96
//  #04 //004   ----------------------------------------
 BYTE   W96
//  #04 //005   ----------------------------------------
 BYTE   W96
//  #04 //006   ----------------------------------------
 BYTE   W96
//  #04 //007   ----------------------------------------
 BYTE   W96
//  #04 //008   ----------------------------------------
 BYTE   W96
//  #04 //009   ----------------------------------------
 BYTE   W96
//  #04 //010   ----------------------------------------
 BYTE   W96
//  #04 //011   ----------------------------------------
 BYTE   W96
//  #04 //012   ----------------------------------------
 BYTE   W96
//  #04 //013   ----------------------------------------
 BYTE   W96
//  #04 //014   ----------------------------------------
 BYTE   W96
//  #04 //015   ----------------------------------------
 BYTE   W96
//  #04 //016   ----------------------------------------
 BYTE   W96
//  #04 //017   ----------------------------------------
 BYTE   W96
//  #04 //018   ----------------------------------------
 BYTE   W96
//  #04 //019   ----------------------------------------
 BYTE   W96
//  #04 //020   ----------------------------------------
 BYTE   W96
//  #04 //021   ----------------------------------------
 BYTE   W96
//  #04 //022   ----------------------------------------
 BYTE   W96
//  #04 //023   ----------------------------------------
 BYTE   W96
//  #04 //024   ----------------------------------------
 BYTE   W96
//  #04 //025   ----------------------------------------
 BYTE   W96
//  #04 //026   ----------------------------------------
 BYTE   W96
//  #04 //027   ----------------------------------------
 BYTE   W96
//  #04 //028   ----------------------------------------
 BYTE   W96
//  #04 //029   ----------------------------------------
 BYTE   W96
//  #04 //030   ----------------------------------------
 BYTE   W96
//  #04 //031   ----------------------------------------
 BYTE   N02  Bn3  v100
 BYTE   W03
 BYTE   Dn4
 BYTE   W03
 BYTE   Cs4
 BYTE   W03
 BYTE   En4
 BYTE   W03
 BYTE   N05  Dn4
 BYTE   W06
 BYTE   Cs4
 BYTE   W06
 BYTE   Bn3
 BYTE   W06
 BYTE   An3
 BYTE   W06
 BYTE   Bn3
 BYTE   W06
 BYTE   N02  Cs4
 BYTE   W03
 BYTE   Dn4
 BYTE   W03
 BYTE   N08  Cs4
 BYTE   W09
 BYTE   N14  An3
 BYTE   W15
 BYTE   N08  Bn3
 BYTE   W09
 BYTE   N14  Fs4
 BYTE   W15
//  #04 //032   ----------------------------------------
 BYTE   N11  En4
 BYTE   W12
 BYTE   Fs4
 BYTE   W12
 BYTE   N05  Dn4
 BYTE   W06
 BYTE   En4
 BYTE   W06
 BYTE   Dn4
 BYTE   W06
 BYTE   N02  Cs4
 BYTE   W03
 BYTE   An3
 BYTE   W03
 BYTE   Bn3
 BYTE   W03
 BYTE   Cs4
 BYTE   W03
 BYTE   Dn4
 BYTE   W03
 BYTE   En4
 BYTE   W03
 BYTE   Dn4
 BYTE   W03
 BYTE   Cs4
 BYTE   W03
 BYTE   Bn3
 BYTE   W03
 BYTE   An3
 BYTE   W03
 BYTE   N05  Fs3
 BYTE   W06
 BYTE   N02  An3
 BYTE   W03
 BYTE   Cs4
 BYTE   W03
 BYTE   Dn4
 BYTE   W03
 BYTE   Fs4
 BYTE   W03
 BYTE   An4
 BYTE   W03
 BYTE   Bn4
 BYTE   W03
//  #04 //033   ----------------------------------------
 BYTE   W06
 BYTE   Dn5
 BYTE   W03
 BYTE   Cs5
 BYTE   W09
 BYTE   Dn5
 BYTE   W03
 BYTE   Cs5
 BYTE   W03
 BYTE   Fs5
 BYTE   W03
 BYTE   En5
 BYTE   W03
 BYTE   Dn5
 BYTE   W03
 BYTE   Cs5
 BYTE   W03
 BYTE   Bn4
 BYTE   W03
 BYTE   An4
 BYTE   W03
 BYTE   Fs4
 BYTE   W03
 BYTE   An4
 BYTE   W03
 BYTE   N08  Bn4
 BYTE   W09
 BYTE   An4
 BYTE   W09
 BYTE   Bn4
 BYTE   W09
 BYTE   Fs4
 BYTE   W09
 BYTE   N11  En4
 BYTE   W12
//  #04 //034   ----------------------------------------
 BYTE   N08  Dn4
 BYTE   W09
 BYTE   En4
 BYTE   W09
 BYTE   Fs4
 BYTE   W09
 BYTE   N02  Dn4
 BYTE   W03
 BYTE   En4
 BYTE   W03
 BYTE   Fs4
 BYTE   W03
 BYTE   An4
 BYTE   W03
 BYTE   Bn4
 BYTE   W03
 BYTE   Dn5
 BYTE   W03
 BYTE   Fs5
 BYTE   W09
 BYTE   Bn5
 BYTE   W03
 BYTE   An5
 BYTE   W09
 BYTE   Bn5
 BYTE   W03
 BYTE   An5
 BYTE   W03
 BYTE   Bn5
 BYTE   W03
 BYTE   N02
 BYTE   W03
 BYTE   N02
 BYTE   W03
 BYTE   N02
 BYTE   W03
 BYTE   N02
 BYTE   W03
 BYTE   N02
 BYTE   W03
 BYTE   N02
 BYTE   W03
 BYTE   N02
 BYTE   W03
//  #04 //035   ----------------------------------------
 BYTE   W96
//  #04 //036   ----------------------------------------
 BYTE   W96
//  #04 //037   ----------------------------------------
 BYTE   W96
//  #04 //038   ----------------------------------------
 BYTE   W84
 BYTE   N05  Bn3
 BYTE   W06
 BYTE   Cs4
 BYTE   W06
//  #04 //039   ----------------------------------------
 BYTE   N08  Bn3
 BYTE   W09
 BYTE   Cs4
 BYTE   W09
 BYTE   N05  Dn4
 BYTE   W06
 BYTE   N02  Cs4
 BYTE   W03
 BYTE   Bn3
 BYTE   W03
 BYTE   An3
 BYTE   W03
 BYTE   Fs3
 BYTE   W03
 BYTE   N08  Dn4
 BYTE   W09
 BYTE   En4
 BYTE   W09
 BYTE   N05  Fs4
 BYTE   W06
 BYTE   N02  En4
 BYTE   W03
 BYTE   Dn4
 BYTE   W03
 BYTE   Bn3
 BYTE   W03
 BYTE   An3
 BYTE   W03
 BYTE   N05  Fs4
 BYTE   W06
 BYTE   En4
 BYTE   W06
 BYTE   An4
 BYTE   W06
 BYTE   Gn4
 BYTE   W06
//  #04 //040   ----------------------------------------
 BYTE   Bn4
 BYTE   W09
 BYTE   N05
 BYTE   W09
 BYTE   N05
 BYTE   W09
 BYTE   N05
 BYTE   W09
 BYTE   N02  An4
 BYTE   W03
 BYTE   Bn4
 BYTE   W03
 BYTE   Fs4
 BYTE   W03
 BYTE   En4
 BYTE   W03
 BYTE   Dn4
 BYTE   W03
 BYTE   En4
 BYTE   W03
 BYTE   Fs4
 BYTE   W03
 BYTE   En4
 BYTE   W03
 BYTE   Bn3
 BYTE   W03
 BYTE   Cs4
 BYTE   W03
 BYTE   Dn4
 BYTE   W03
 BYTE   An3
 BYTE   W03
 BYTE   N05  Bn3
 BYTE   W09
 BYTE   N05
 BYTE   W09
 BYTE   An3
 BYTE   W06
//  #04 //041   ----------------------------------------
 BYTE   N08  Gn3
 BYTE   W09
 BYTE   An3
 BYTE   W09
 BYTE   N05  Bn3
 BYTE   W06
 BYTE   N08  As3
 BYTE   W09
 BYTE   Bn3
 BYTE   W09
 BYTE   N05  Cs4
 BYTE   W06
 BYTE   Dn4
 BYTE   W06
 BYTE   En4
 BYTE   W06
 BYTE   Fs4
 BYTE   W06
 BYTE   An4
 BYTE   W06
 BYTE   N02  Bn4
 BYTE   W03
 BYTE   Fs4
 BYTE   W03
 BYTE   Dn4
 BYTE   W03
 BYTE   Bn3
 BYTE   W03
 BYTE   An4
 BYTE   W03
 BYTE   Fs4
 BYTE   W03
 BYTE   En4
 BYTE   W03
 BYTE   Cs4
 BYTE   W03
//  #04 //042   ----------------------------------------
 BYTE   Dn4
 BYTE   W03
 BYTE   Cs4
 BYTE   W03
 BYTE   Bn3
 BYTE   W03
 BYTE   An3
 BYTE   W03
 BYTE   Fs3
 BYTE   W03
 BYTE   En3
 BYTE   W03
 BYTE   Dn3
 BYTE   W03
 BYTE   Cs3
 BYTE   W03
 BYTE   Dn3
 BYTE   W03
 BYTE   En3
 BYTE   W03
 BYTE   Fs3
 BYTE   W03
 BYTE   An3
 BYTE   W03
 BYTE   Bn3
 BYTE   W03
 BYTE   Dn4
 BYTE   W03
 BYTE   Fs4
 BYTE   W03
 BYTE   An4
 BYTE   W03
 BYTE   Bn4
 BYTE   W03
 BYTE   Dn5
 BYTE   W03
 BYTE   Fs5
 BYTE   W03
 BYTE   An5
 BYTE   W03
 BYTE   N32  Bn5
 BYTE   W36
//  #04 //043   ----------------------------------------
 BYTE   GoTo
  POIN2 Label_014C913E
//  #04 //044   ----------------------------------------
 BYTE   PAN   c_v+16
 BYTE   VOL   33*song03DD_mvl/mxv
 BYTE   PAN   c_v+16
 BYTE   VOL   33*song03DD_mvl/mxv
 BYTE   PAN   c_v+16
 BYTE   VOL   33*song03DD_mvl/mxv
 BYTE   BEND   c_v+0
 BYTE   FINE

//**************** Track 5 (Midi-Chn.4) ****************//

song03DD_005:
//  #05 //000   ----------------------------------------
 BYTE   KEYSH   song03DD_key+0
Label_015439AA:
 BYTE   VOICE   1
 BYTE   PAN   c_v-25
 BYTE   VOL   15*song03DD_mvl/mxv
 BYTE   PAN   c_v-25
 BYTE   VOL   15*song03DD_mvl/mxv
 BYTE   PAN   c_v-25
 BYTE   VOL   15*song03DD_mvl/mxv
 BYTE   PAN   c_v-25
 BYTE   VOL   15*song03DD_mvl/mxv
 BYTE   BEND   c_v+0
 BYTE   W96
//  #05 //001   ----------------------------------------
 BYTE   W96
//  #05 //002   ----------------------------------------
 BYTE   W96
//  #05 //003   ----------------------------------------
 BYTE   W96
//  #05 //004   ----------------------------------------
 BYTE   W96
//  #05 //005   ----------------------------------------
 BYTE   W96
//  #05 //006   ----------------------------------------
 BYTE   W96
//  #05 //007   ----------------------------------------
 BYTE   W96
//  #05 //008   ----------------------------------------
 BYTE   W96
//  #05 //009   ----------------------------------------
 BYTE   W96
//  #05 //010   ----------------------------------------
 BYTE   W96
//  #05 //011   ----------------------------------------
 BYTE   W96
//  #05 //012   ----------------------------------------
 BYTE   W96
//  #05 //013   ----------------------------------------
 BYTE   W96
//  #05 //014   ----------------------------------------
 BYTE   W96
//  #05 //015   ----------------------------------------
 BYTE   W96
//  #05 //016   ----------------------------------------
 BYTE   W96
//  #05 //017   ----------------------------------------
 BYTE   W96
//  #05 //018   ----------------------------------------
 BYTE   W96
//  #05 //019   ----------------------------------------
 BYTE   W96
//  #05 //020   ----------------------------------------
 BYTE   W96
//  #05 //021   ----------------------------------------
 BYTE   W96
//  #05 //022   ----------------------------------------
 BYTE   W96
//  #05 //023   ----------------------------------------
 BYTE   W96
//  #05 //024   ----------------------------------------
 BYTE   W96
//  #05 //025   ----------------------------------------
 BYTE   W96
//  #05 //026   ----------------------------------------
 BYTE   W96
//  #05 //027   ----------------------------------------
 BYTE   W96
//  #05 //028   ----------------------------------------
 BYTE   W96
//  #05 //029   ----------------------------------------
 BYTE   W96
//  #05 //030   ----------------------------------------
 BYTE   W96
//  #05 //031   ----------------------------------------
 BYTE   W03
 BYTE   N02  Bn3  v100
 BYTE   W03
 BYTE   Dn4
 BYTE   W03
 BYTE   Cs4
 BYTE   W03
 BYTE   En4
 BYTE   W03
 BYTE   N05  Dn4
 BYTE   W06
 BYTE   Cs4
 BYTE   W06
 BYTE   Bn3
 BYTE   W06
 BYTE   An3
 BYTE   W06
 BYTE   Bn3
 BYTE   W06
 BYTE   N02  Cs4
 BYTE   W03
 BYTE   Dn4
 BYTE   W03
 BYTE   N08  Cs4
 BYTE   W09
 BYTE   N14  An3
 BYTE   W15
 BYTE   N08  Bn3
 BYTE   W09
 BYTE   N14  Fs4
 BYTE   W12
//  #05 //032   ----------------------------------------
 BYTE   W03
 BYTE   N11  En4
 BYTE   W12
 BYTE   Fs4
 BYTE   W12
 BYTE   N05  Dn4
 BYTE   W06
 BYTE   En4
 BYTE   W06
 BYTE   Dn4
 BYTE   W06
 BYTE   N02  Cs4
 BYTE   W03
 BYTE   An3
 BYTE   W03
 BYTE   Bn3
 BYTE   W03
 BYTE   Cs4
 BYTE   W03
 BYTE   Dn4
 BYTE   W03
 BYTE   En4
 BYTE   W03
 BYTE   Dn4
 BYTE   W03
 BYTE   Cs4
 BYTE   W03
 BYTE   Bn3
 BYTE   W03
 BYTE   An3
 BYTE   W03
 BYTE   N05  Fs3
 BYTE   W06
 BYTE   N02  An3
 BYTE   W03
 BYTE   Cs4
 BYTE   W03
 BYTE   Dn4
 BYTE   W03
 BYTE   Fs4
 BYTE   W03
 BYTE   An4
 BYTE   W03
//  #05 //033   ----------------------------------------
 BYTE   Bn4
 BYTE   W09
 BYTE   Dn5
 BYTE   W03
 BYTE   Cs5
 BYTE   W09
 BYTE   Dn5
 BYTE   W03
 BYTE   Cs5
 BYTE   W03
 BYTE   Fs5
 BYTE   W03
 BYTE   En5
 BYTE   W03
 BYTE   Dn5
 BYTE   W03
 BYTE   Cs5
 BYTE   W03
 BYTE   Bn4
 BYTE   W03
 BYTE   An4
 BYTE   W03
 BYTE   Fs4
 BYTE   W03
 BYTE   An4
 BYTE   W03
 BYTE   N08  Bn4
 BYTE   W09
 BYTE   An4
 BYTE   W09
 BYTE   Bn4
 BYTE   W09
 BYTE   Fs4
 BYTE   W09
 BYTE   N11  En4
 BYTE   W09
//  #05 //034   ----------------------------------------
 BYTE   W03
 BYTE   N08  Dn4
 BYTE   W09
 BYTE   En4
 BYTE   W09
 BYTE   Fs4
 BYTE   W09
 BYTE   N02  Dn4
 BYTE   W03
 BYTE   En4
 BYTE   W03
 BYTE   Fs4
 BYTE   W03
 BYTE   An4
 BYTE   W03
 BYTE   Bn4
 BYTE   W03
 BYTE   Dn5
 BYTE   W03
 BYTE   Fs5
 BYTE   W09
 BYTE   Bn5
 BYTE   W03
 BYTE   An5
 BYTE   W09
 BYTE   Bn5
 BYTE   W03
 BYTE   An5
 BYTE   W03
 BYTE   Bn5
 BYTE   W03
 BYTE   N02
 BYTE   W03
 BYTE   N02
 BYTE   W03
 BYTE   N02
 BYTE   W03
 BYTE   N02
 BYTE   W03
 BYTE   N02
 BYTE   W03
 BYTE   N02
 BYTE   W03
//  #05 //035   ----------------------------------------
 BYTE   N02
 BYTE   W96
//  #05 //036   ----------------------------------------
 BYTE   W96
//  #05 //037   ----------------------------------------
 BYTE   W96
//  #05 //038   ----------------------------------------
 BYTE   W84
 BYTE   W03
 BYTE   N05  Bn3
 BYTE   W06
 BYTE   Cs4
 BYTE   W03
//  #05 //039   ----------------------------------------
 BYTE   W03
 BYTE   N08  Bn3
 BYTE   W09
 BYTE   Cs4
 BYTE   W09
 BYTE   N05  Dn4
 BYTE   W06
 BYTE   N02  Cs4
 BYTE   W03
 BYTE   Bn3
 BYTE   W03
 BYTE   An3
 BYTE   W03
 BYTE   Fs3
 BYTE   W03
 BYTE   N08  Dn4
 BYTE   W09
 BYTE   En4
 BYTE   W09
 BYTE   N05  Fs4
 BYTE   W06
 BYTE   N02  En4
 BYTE   W03
 BYTE   Dn4
 BYTE   W03
 BYTE   Bn3
 BYTE   W03
 BYTE   An3
 BYTE   W03
 BYTE   N05  Fs4
 BYTE   W06
 BYTE   En4
 BYTE   W06
 BYTE   An4
 BYTE   W06
 BYTE   Gn4
 BYTE   W03
//  #05 //040   ----------------------------------------
 BYTE   W03
 BYTE   Bn4
 BYTE   W09
 BYTE   N05
 BYTE   W09
 BYTE   N05
 BYTE   W09
 BYTE   N05
 BYTE   W09
 BYTE   N02  An4
 BYTE   W03
 BYTE   Bn4
 BYTE   W03
 BYTE   Fs4
 BYTE   W03
 BYTE   En4
 BYTE   W03
 BYTE   Dn4
 BYTE   W03
 BYTE   En4
 BYTE   W03
 BYTE   Fs4
 BYTE   W03
 BYTE   En4
 BYTE   W03
 BYTE   Bn3
 BYTE   W03
 BYTE   Cs4
 BYTE   W03
 BYTE   Dn4
 BYTE   W03
 BYTE   An3
 BYTE   W03
 BYTE   N05  Bn3
 BYTE   W09
 BYTE   N05
 BYTE   W09
 BYTE   An3
 BYTE   W03
//  #05 //041   ----------------------------------------
 BYTE   W03
 BYTE   N08  Gn3
 BYTE   W09
 BYTE   An3
 BYTE   W09
 BYTE   N05  Bn3
 BYTE   W06
 BYTE   N08  As3
 BYTE   W09
 BYTE   Bn3
 BYTE   W09
 BYTE   N05  Cs4
 BYTE   W06
 BYTE   Dn4
 BYTE   W06
 BYTE   En4
 BYTE   W06
 BYTE   Fs4
 BYTE   W06
 BYTE   An4
 BYTE   W06
 BYTE   N02  Bn4
 BYTE   W03
 BYTE   Fs4
 BYTE   W03
 BYTE   Dn4
 BYTE   W03
 BYTE   Bn3
 BYTE   W03
 BYTE   An4
 BYTE   W03
 BYTE   Fs4
 BYTE   W03
 BYTE   En4
 BYTE   W03
//  #05 //042   ----------------------------------------
 BYTE   Cs4
 BYTE   W03
 BYTE   Dn4
 BYTE   W03
 BYTE   Cs4
 BYTE   W03
 BYTE   Bn3
 BYTE   W03
 BYTE   An3
 BYTE   W03
 BYTE   Fs3
 BYTE   W03
 BYTE   En3
 BYTE   W03
 BYTE   Dn3
 BYTE   W03
 BYTE   Cs3
 BYTE   W03
 BYTE   Dn3
 BYTE   W03
 BYTE   En3
 BYTE   W03
 BYTE   Fs3
 BYTE   W03
 BYTE   An3
 BYTE   W03
 BYTE   Bn3
 BYTE   W03
 BYTE   Dn4
 BYTE   W03
 BYTE   Fs4
 BYTE   W03
 BYTE   An4
 BYTE   W03
 BYTE   Bn4
 BYTE   W03
 BYTE   Dn5
 BYTE   W03
 BYTE   Fs5
 BYTE   W03
 BYTE   An5
 BYTE   W03
 BYTE   N32  Bn5
 BYTE   W32
 BYTE   W01
//  #05 //043   ----------------------------------------
 BYTE   GoTo
  POIN2 Label_015439AA
//  #05 //044   ----------------------------------------
 BYTE   PAN   c_v-25
 BYTE   VOL   15*song03DD_mvl/mxv
 BYTE   PAN   c_v-25
 BYTE   VOL   15*song03DD_mvl/mxv
 BYTE   PAN   c_v-25
 BYTE   VOL   15*song03DD_mvl/mxv
 BYTE   BEND   c_v+0
 BYTE   FINE

//**************** Track 6 (Midi-Chn.5) ****************//

song03DD_006:
//  #06 //000   ----------------------------------------
 BYTE   KEYSH   song03DD_key+0
Label_014C9622:
 BYTE   VOICE   34
 BYTE   PAN   c_v+0
 BYTE   VOL   48*song03DD_mvl/mxv
 BYTE   PAN   c_v+0
 BYTE   VOL   48*song03DD_mvl/mxv
 BYTE   PAN   c_v+0
 BYTE   VOL   48*song03DD_mvl/mxv
 BYTE   PAN   c_v+0
 BYTE   VOL   48*song03DD_mvl/mxv
 BYTE   BEND   c_v+0
 BYTE   W96
//  #06 //001   ----------------------------------------
 BYTE   W96
//  #06 //002   ----------------------------------------
Label_014C9638:
 BYTE   N17  Bn1  v100
 BYTE   W18
 BYTE   N76
 BYTE   W78
 BYTE   PEND 
//  #06 //003   ----------------------------------------
Label_014C963F:
 BYTE   W48
 BYTE   N17  Bn1  v100
 BYTE   W18
 BYTE   N76
 BYTE   W30
 BYTE   PEND 
//  #06 //004   ----------------------------------------
 BYTE   W96
//  #06 //005   ----------------------------------------
 BYTE   PATT
  POIN2 Label_014C9638
//  #06 //006   ----------------------------------------
 BYTE   W48
 BYTE   N17  Bn1  v100
 BYTE   W18
 BYTE   N17
 BYTE   W18
 BYTE   N11  Dn2
 BYTE   W12
//  #06 //007   ----------------------------------------
 BYTE   N92  An1
 BYTE   W96
//  #06 //008   ----------------------------------------
 BYTE   N44  Gn1
 BYTE   W48
 BYTE   An1
 BYTE   W48
//  #06 //009   ----------------------------------------
 BYTE   Dn2
 BYTE   W48
 BYTE   Cn2
 BYTE   W48
//  #06 //010   ----------------------------------------
 BYTE   W96
//  #06 //011   ----------------------------------------
 BYTE   W96
//  #06 //012   ----------------------------------------
 BYTE   W96
//  #06 //013   ----------------------------------------
 BYTE   PATT
  POIN2 Label_014C9638
//  #06 //014   ----------------------------------------
 BYTE   PATT
  POIN2 Label_014C963F
//  #06 //015   ----------------------------------------
 BYTE   W96
//  #06 //016   ----------------------------------------
 BYTE   N17  Bn1  v100
 BYTE   W18
 BYTE   N28
 BYTE   W30
 BYTE   N23  Dn2
 BYTE   W24
 BYTE   An1
 BYTE   W24
//  #06 //017   ----------------------------------------
 BYTE   N17  Bn1
 BYTE   W18
 BYTE   N17
 BYTE   W18
 BYTE   N17
 BYTE   W18
 BYTE   N17
 BYTE   W18
 BYTE   N11  An1
 BYTE   W12
 BYTE   Dn2
 BYTE   W12
//  #06 //018   ----------------------------------------
 BYTE   PATT
  POIN2 Label_014C9638
//  #06 //019   ----------------------------------------
Label_014C968F:
 BYTE   N17  Bn1  v100
 BYTE   W18
 BYTE   N28
 BYTE   W30
 BYTE   N17  Fs2
 BYTE   W18
 BYTE   N28  En2
 BYTE   W30
 BYTE   PEND 
//  #06 //020   ----------------------------------------
 BYTE   N17  Bn1
 BYTE   W18
 BYTE   N52
 BYTE   W54
 BYTE   N11  Fs2
 BYTE   W12
 BYTE   An2
 BYTE   W12
//  #06 //021   ----------------------------------------
 BYTE   N17  Gn2
 BYTE   W18
 BYTE   N28  Fs2
 BYTE   W30
 BYTE   N17  En2
 BYTE   W18
 BYTE   Dn2
 BYTE   W18
 BYTE   N11  Cs2
 BYTE   W12
//  #06 //022   ----------------------------------------
 BYTE   N17  Gn1
 BYTE   W18
 BYTE   N28  An1
 BYTE   W30
 BYTE   N17  Bn1
 BYTE   W18
 BYTE   N28  As1
 BYTE   W30
//  #06 //023   ----------------------------------------
 BYTE   N17  Fs2
 BYTE   W18
 BYTE   N28  En2
 BYTE   W30
 BYTE   N17  An2
 BYTE   W18
 BYTE   Gn2
 BYTE   W18
 BYTE   N11  Fs2
 BYTE   W12
//  #06 //024   ----------------------------------------
 BYTE   N17  En2
 BYTE   W18
 BYTE   N28  Dn2
 BYTE   W30
 BYTE   N17  Cs2
 BYTE   W18
 BYTE   Dn2
 BYTE   W18
 BYTE   N11  En2
 BYTE   W12
//  #06 //025   ----------------------------------------
 BYTE   PATT
  POIN2 Label_014C9638
//  #06 //026   ----------------------------------------
 BYTE   PATT
  POIN2 Label_014C9638
//  #06 //027   ----------------------------------------
Label_014C96E6:
 BYTE   N17  Gs1  v100
 BYTE   W18
 BYTE   N76
 BYTE   W78
 BYTE   PEND 
//  #06 //028   ----------------------------------------
 BYTE   W96
//  #06 //029   ----------------------------------------
 BYTE   PATT
  POIN2 Label_014C96E6
//  #06 //030   ----------------------------------------
 BYTE   N17  Ds2  v100
 BYTE   W18
 BYTE   N28
 BYTE   W30
 BYTE   N23  Gs2
 BYTE   W24
 BYTE   Gs1
 BYTE   W24
//  #06 //031   ----------------------------------------
 BYTE   PATT
  POIN2 Label_014C9638
//  #06 //032   ----------------------------------------
 BYTE   W96
//  #06 //033   ----------------------------------------
 BYTE   PATT
  POIN2 Label_014C9638
//  #06 //034   ----------------------------------------
 BYTE   PATT
  POIN2 Label_014C968F
//  #06 //035   ----------------------------------------
 BYTE   PATT
  POIN2 Label_014C96E6
//  #06 //036   ----------------------------------------
 BYTE   N17  Gs1  v100
 BYTE   W18
 BYTE   N28  Fs1
 BYTE   W30
 BYTE   N17  Ds2
 BYTE   W18
 BYTE   N28  Cs2
 BYTE   W30
//  #06 //037   ----------------------------------------
 BYTE   N17  Gs1
 BYTE   W18
 BYTE   N11
 BYTE   W12
 BYTE   N05  As1
 BYTE   W06
 BYTE   N32  Bn1
 BYTE   W36
 BYTE   N11  As1
 BYTE   W12
 BYTE   Bn1
 BYTE   W12
//  #06 //038   ----------------------------------------
 BYTE   N17  Ds2
 BYTE   W18
 BYTE   N28  Cs2
 BYTE   W30
 BYTE   N44  Gs1
 BYTE   W48
//  #06 //039   ----------------------------------------
 BYTE   PATT
  POIN2 Label_014C9638
//  #06 //040   ----------------------------------------
 BYTE   N17  An1  v100
 BYTE   W18
 BYTE   N28
 BYTE   W54
 BYTE   N17  Bn1
 BYTE   W18
 BYTE   N05
 BYTE   W06
//  #06 //041   ----------------------------------------
 BYTE   N17  Gn1
 BYTE   W18
 BYTE   N28
 BYTE   W30
 BYTE   N17  An1
 BYTE   W18
 BYTE   N28
 BYTE   W30
//  #06 //042   ----------------------------------------
 BYTE   N17  Bn1
 BYTE   W18
 BYTE   N17
 BYTE   W18
 BYTE   N11  Fs2
 BYTE   W12
 BYTE   N17  Bn1
 BYTE   W18
 BYTE   N28
 BYTE   W30
//  #06 //043   ----------------------------------------
 BYTE   GoTo
  POIN2 Label_014C9622
//  #06 //044   ----------------------------------------
 BYTE   VOICE   34
 BYTE   PAN   c_v+0
 BYTE   VOL   48*song03DD_mvl/mxv
 BYTE   PAN   c_v+0
 BYTE   VOL   48*song03DD_mvl/mxv
 BYTE   PAN   c_v+0
 BYTE   VOL   48*song03DD_mvl/mxv
 BYTE   BEND   c_v+0
 BYTE   FINE

//**************** Track 7 (Midi-Chn.6) ****************//

song03DD_007:
//  #07 //000   ----------------------------------------
 BYTE   KEYSH   song03DD_key+0
Label_014C9A6E:
 BYTE   VOICE   127
 BYTE   PAN   c_v-13
 BYTE   VOL   33*song03DD_mvl/mxv
 BYTE   PAN   c_v-13
 BYTE   VOL   33*song03DD_mvl/mxv
 BYTE   PAN   c_v-13
 BYTE   VOL   33*song03DD_mvl/mxv
 BYTE   PAN   c_v-13
 BYTE   VOL   33*song03DD_mvl/mxv
 BYTE   BEND   c_v+0
 BYTE   W96
//  #07 //001   ----------------------------------------
 BYTE   W96
//  #07 //002   ----------------------------------------
 BYTE   W96
//  #07 //003   ----------------------------------------
 BYTE   W96
//  #07 //004   ----------------------------------------
 BYTE   W96
//  #07 //005   ----------------------------------------
 BYTE   W96
//  #07 //006   ----------------------------------------
 BYTE   W96
//  #07 //007   ----------------------------------------
 BYTE   W96
//  #07 //008   ----------------------------------------
 BYTE   W96
//  #07 //009   ----------------------------------------
 BYTE   W84
 BYTE   TIE  En2  v100
 BYTE   W12
//  #07 //010   ----------------------------------------
Label_014C9A90:
 BYTE   W84
 BYTE   N02  Dn1  v100
 BYTE   W03
 BYTE   N02
 BYTE   W03
 BYTE   N02
 BYTE   W03
 BYTE   N02
 BYTE   W03
 BYTE   PEND 
//  #07 //011   ----------------------------------------
Label_014C9A9C:
 BYTE   W12
 BYTE   N02  Dn1  v100
 BYTE   W24
 BYTE   N02
 BYTE   W24
 BYTE   N02
 BYTE   W24
 BYTE   N02
 BYTE   W12
 BYTE   PEND 
//  #07 //012   ----------------------------------------
 BYTE   W12
 BYTE   N02
 BYTE   W24
 BYTE   N02
 BYTE   W24
 BYTE   N02
 BYTE   W24
 BYTE   N02
 BYTE   W11
 BYTE   EOT
 BYTE   En2
 BYTE   W01
//  #07 //013   ----------------------------------------
 BYTE   PATT
  POIN2 Label_014C9A9C
//  #07 //014   ----------------------------------------
 BYTE   PATT
  POIN2 Label_014C9A9C
//  #07 //015   ----------------------------------------
 BYTE   PATT
  POIN2 Label_014C9A9C
//  #07 //016   ----------------------------------------
 BYTE   PATT
  POIN2 Label_014C9A9C
//  #07 //017   ----------------------------------------
 BYTE   PATT
  POIN2 Label_014C9A9C
//  #07 //018   ----------------------------------------
 BYTE   PATT
  POIN2 Label_014C9A9C
//  #07 //019   ----------------------------------------
 BYTE   PATT
  POIN2 Label_014C9A9C
//  #07 //020   ----------------------------------------
 BYTE   PATT
  POIN2 Label_014C9A9C
//  #07 //021   ----------------------------------------
 BYTE   PATT
  POIN2 Label_014C9A9C
//  #07 //022   ----------------------------------------
 BYTE   PATT
  POIN2 Label_014C9A9C
//  #07 //023   ----------------------------------------
 BYTE   PATT
  POIN2 Label_014C9A9C
//  #07 //024   ----------------------------------------
 BYTE   PATT
  POIN2 Label_014C9A9C
//  #07 //025   ----------------------------------------
 BYTE   W96
//  #07 //026   ----------------------------------------
 BYTE   PATT
  POIN2 Label_014C9A90
//  #07 //027   ----------------------------------------
 BYTE   N02  En1  v100
 BYTE   W09
 BYTE   N02
 BYTE   W03
 BYTE   Dn1
 BYTE   W06
 BYTE   En1
 BYTE   W06
 BYTE   N02
 BYTE   W12
 BYTE   Dn1
 BYTE   W24
 BYTE   N02
 BYTE   W24
 BYTE   N02
 BYTE   W12
//  #07 //028   ----------------------------------------
 BYTE   En1
 BYTE   W06
 BYTE   N02
 BYTE   W06
 BYTE   Dn1
 BYTE   N02  En1
 BYTE   W06
 BYTE   N02
 BYTE   W03
 BYTE   N02
 BYTE   W03
 BYTE   N02
 BYTE   W12
 BYTE   Dn1
 BYTE   W24
 BYTE   N02
 BYTE   W24
 BYTE   N02
 BYTE   W06
 BYTE   N02
 BYTE   W03
 BYTE   En1
 BYTE   W03
//  #07 //029   ----------------------------------------
 BYTE   N02
 BYTE   W06
 BYTE   N02
 BYTE   W03
 BYTE   N02
 BYTE   W03
 BYTE   Dn1
 BYTE   W03
 BYTE   En1
 BYTE   W03
 BYTE   N02
 BYTE   W06
 BYTE   N02
 BYTE   W03
 BYTE   N02
 BYTE   W09
 BYTE   Dn1
 BYTE   N02  En1
 BYTE   W24
 BYTE   Dn1
 BYTE   W24
 BYTE   N02
 BYTE   N02  En1
 BYTE   W06
 BYTE   N02
 BYTE   W06
//  #07 //030   ----------------------------------------
 BYTE   N02
 BYTE   W12
 BYTE   Dn1
 BYTE   W24
 BYTE   N02
 BYTE   W03
 BYTE   En1
 BYTE   W03
 BYTE   N02
 BYTE   W03
 BYTE   N02
 BYTE   W03
 BYTE   N02
 BYTE   W12
 BYTE   Dn1
 BYTE   W12
 BYTE   En1
 BYTE   W09
 BYTE   N02
 BYTE   W03
 BYTE   Dn1
 BYTE   W03
 BYTE   N02
 BYTE   W03
 BYTE   N02
 BYTE   N02  En1
 BYTE   W03
 BYTE   Dn1
 BYTE   W03
//  #07 //031   ----------------------------------------
 BYTE   PATT
  POIN2 Label_014C9A9C
//  #07 //032   ----------------------------------------
 BYTE   PATT
  POIN2 Label_014C9A9C
//  #07 //033   ----------------------------------------
 BYTE   PATT
  POIN2 Label_014C9A9C
//  #07 //034   ----------------------------------------
 BYTE   PATT
  POIN2 Label_014C9A9C
//  #07 //035   ----------------------------------------
 BYTE   PATT
  POIN2 Label_014C9A9C
//  #07 //036   ----------------------------------------
 BYTE   PATT
  POIN2 Label_014C9A9C
//  #07 //037   ----------------------------------------
 BYTE   PATT
  POIN2 Label_014C9A9C
//  #07 //038   ----------------------------------------
 BYTE   PATT
  POIN2 Label_014C9A9C
//  #07 //039   ----------------------------------------
 BYTE   PATT
  POIN2 Label_014C9A9C
//  #07 //040   ----------------------------------------
 BYTE   W12
 BYTE   N02  Dn1  v100
 BYTE   W24
 BYTE   N02
 BYTE   W24
 BYTE   N02
 BYTE   W24
 BYTE   N02
 BYTE   W06
 BYTE   N02
 BYTE   W06
//  #07 //041   ----------------------------------------
 BYTE   PATT
  POIN2 Label_014C9A9C
//  #07 //042   ----------------------------------------
 BYTE   W12
 BYTE   N02  Dn1  v100
 BYTE   W24
 BYTE   N02
 BYTE   W24
 BYTE   N02
 BYTE   W06
 BYTE   N02
 BYTE   W06
 BYTE   N05  Ds1
 BYTE   W06
 BYTE   N02  Dn1
 BYTE   W03
 BYTE   N02
 BYTE   W03
 BYTE   N02
 BYTE   W03
 BYTE   N02
 BYTE   W03
 BYTE   N02
 BYTE   W03
 BYTE   N02
 BYTE   W03
//  #07 //043   ----------------------------------------
 BYTE   GoTo
  POIN2 Label_014C9A6E
//  #07 //044   ----------------------------------------
 BYTE   VOICE   127
 BYTE   PAN   c_v-13
 BYTE   VOL   33*song03DD_mvl/mxv
 BYTE   PAN   c_v-13
 BYTE   VOL   33*song03DD_mvl/mxv
 BYTE   PAN   c_v-13
 BYTE   VOL   33*song03DD_mvl/mxv
 BYTE   BEND   c_v+0
 BYTE   FINE

//**************** Track 8 (Midi-Chn.7) ****************//

song03DD_008:
//  #08 //000   ----------------------------------------
 BYTE   KEYSH   song03DD_key+0
Label_014C9BF6:
 BYTE   VOICE   124
 BYTE   PAN   c_v+17
 BYTE   VOL   30*song03DD_mvl/mxv
 BYTE   PAN   c_v+17
 BYTE   VOL   30*song03DD_mvl/mxv
 BYTE   PAN   c_v+17
 BYTE   VOL   30*song03DD_mvl/mxv
 BYTE   PAN   c_v+17
 BYTE   VOL   30*song03DD_mvl/mxv
 BYTE   BEND   c_v+0
 BYTE   W96
//  #08 //001   ----------------------------------------
 BYTE   W96
//  #08 //002   ----------------------------------------
 BYTE   W96
//  #08 //003   ----------------------------------------
 BYTE   W96
//  #08 //004   ----------------------------------------
 BYTE   W96
//  #08 //005   ----------------------------------------
 BYTE   W96
//  #08 //006   ----------------------------------------
 BYTE   W96
//  #08 //007   ----------------------------------------
 BYTE   W96
//  #08 //008   ----------------------------------------
 BYTE   W96
//  #08 //009   ----------------------------------------
 BYTE   W96
//  #08 //010   ----------------------------------------
 BYTE   W96
//  #08 //011   ----------------------------------------
Label_014C9C15:
 BYTE   N05  Cn1  v100
 BYTE   N02  Fs1
 BYTE   W06
 BYTE   Cn1
 BYTE   W03
 BYTE   N02
 BYTE   W03
 BYTE   N05
 BYTE   N02  Fs1
 BYTE   W06
 BYTE   N11  Cn1
 BYTE   W06
 BYTE   N02  Fs1
 BYTE   W06
 BYTE   N05  Cn1
 BYTE   W06
 BYTE   N11
 BYTE   N02  Fs1
 BYTE   W12
 BYTE   N05  Cn1
 BYTE   N02  Fs1
 BYTE   W06
 BYTE   Cn1
 BYTE   W03
 BYTE   N02
 BYTE   W03
 BYTE   N05
 BYTE   N02  Fs1
 BYTE   W06
 BYTE   N11  Cn1
 BYTE   W06
 BYTE   N02  Fs1
 BYTE   W06
 BYTE   N05  Cn1
 BYTE   W06
 BYTE   N11
 BYTE   N02  Fs1
 BYTE   W12
 BYTE   PEND 
//  #08 //012   ----------------------------------------
 BYTE   PATT
  POIN2 Label_014C9C15
//  #08 //013   ----------------------------------------
 BYTE   PATT
  POIN2 Label_014C9C15
//  #08 //014   ----------------------------------------
 BYTE   PATT
  POIN2 Label_014C9C15
//  #08 //015   ----------------------------------------
 BYTE   PATT
  POIN2 Label_014C9C15
//  #08 //016   ----------------------------------------
 BYTE   PATT
  POIN2 Label_014C9C15
//  #08 //017   ----------------------------------------
 BYTE   PATT
  POIN2 Label_014C9C15
//  #08 //018   ----------------------------------------
 BYTE   PATT
  POIN2 Label_014C9C15
//  #08 //019   ----------------------------------------
 BYTE   PATT
  POIN2 Label_014C9C15
//  #08 //020   ----------------------------------------
 BYTE   PATT
  POIN2 Label_014C9C15
//  #08 //021   ----------------------------------------
 BYTE   PATT
  POIN2 Label_014C9C15
//  #08 //022   ----------------------------------------
 BYTE   PATT
  POIN2 Label_014C9C15
//  #08 //023   ----------------------------------------
 BYTE   PATT
  POIN2 Label_014C9C15
//  #08 //024   ----------------------------------------
 BYTE   PATT
  POIN2 Label_014C9C15
//  #08 //025   ----------------------------------------
 BYTE   PATT
  POIN2 Label_014C9C15
//  #08 //026   ----------------------------------------
 BYTE   PATT
  POIN2 Label_014C9C15
//  #08 //027   ----------------------------------------
 BYTE   PATT
  POIN2 Label_014C9C15
//  #08 //028   ----------------------------------------
 BYTE   PATT
  POIN2 Label_014C9C15
//  #08 //029   ----------------------------------------
 BYTE   PATT
  POIN2 Label_014C9C15
//  #08 //030   ----------------------------------------
 BYTE   PATT
  POIN2 Label_014C9C15
//  #08 //031   ----------------------------------------
 BYTE   PATT
  POIN2 Label_014C9C15
//  #08 //032   ----------------------------------------
 BYTE   PATT
  POIN2 Label_014C9C15
//  #08 //033   ----------------------------------------
 BYTE   PATT
  POIN2 Label_014C9C15
//  #08 //034   ----------------------------------------
 BYTE   PATT
  POIN2 Label_014C9C15
//  #08 //035   ----------------------------------------
 BYTE   PATT
  POIN2 Label_014C9C15
//  #08 //036   ----------------------------------------
 BYTE   PATT
  POIN2 Label_014C9C15
//  #08 //037   ----------------------------------------
 BYTE   PATT
  POIN2 Label_014C9C15
//  #08 //038   ----------------------------------------
 BYTE   PATT
  POIN2 Label_014C9C15
//  #08 //039   ----------------------------------------
 BYTE   PATT
  POIN2 Label_014C9C15
//  #08 //040   ----------------------------------------
 BYTE   PATT
  POIN2 Label_014C9C15
//  #08 //041   ----------------------------------------
 BYTE   PATT
  POIN2 Label_014C9C15
//  #08 //042   ----------------------------------------
 BYTE   PATT
  POIN2 Label_014C9C15
//  #08 //043   ----------------------------------------
 BYTE   GoTo
  POIN2 Label_014C9BF6
//  #08 //044   ----------------------------------------
 BYTE   VOICE   124
 BYTE   PAN   c_v+17
 BYTE   VOL   30*song03DD_mvl/mxv
 BYTE   PAN   c_v+17
 BYTE   VOL   30*song03DD_mvl/mxv
 BYTE   PAN   c_v+17
 BYTE   VOL   30*song03DD_mvl/mxv
 BYTE   BEND   c_v+0
 BYTE   FINE

//**************** Track 9 (Midi-Chn.8) ****************//

song03DD_009:
//  #09 //000   ----------------------------------------
 BYTE   KEYSH   song03DD_key+0
Label_014C92E2:
 BYTE   VOICE   118
 BYTE   PAN   c_v+0
 BYTE   VOL   27*song03DD_mvl/mxv
 BYTE   PAN   c_v+0
 BYTE   VOL   27*song03DD_mvl/mxv
 BYTE   PAN   c_v+0
 BYTE   VOL   27*song03DD_mvl/mxv
 BYTE   PAN   c_v+0
 BYTE   VOL   27*song03DD_mvl/mxv
 BYTE   BEND   c_v+0
 BYTE   W96
//  #09 //001   ----------------------------------------
 BYTE   W96
//  #09 //002   ----------------------------------------
 BYTE   W96
//  #09 //003   ----------------------------------------
 BYTE   W96
//  #09 //004   ----------------------------------------
 BYTE   W96
//  #09 //005   ----------------------------------------
 BYTE   W96
//  #09 //006   ----------------------------------------
 BYTE   W96
//  #09 //007   ----------------------------------------
 BYTE   W96
//  #09 //008   ----------------------------------------
 BYTE   W96
//  #09 //009   ----------------------------------------
 BYTE   W84
 BYTE   W03
 BYTE   TIE  Fn2  v100
 BYTE   W09
//  #09 //010   ----------------------------------------
 BYTE   W96
//  #09 //011   ----------------------------------------
 BYTE   Ds2
 BYTE   W96
//  #09 //012   ----------------------------------------
 BYTE   W96
//  #09 //013   ----------------------------------------
 BYTE   W02
 BYTE   EOT
 BYTE   Fn2
 BYTE   W92
 BYTE   W02
//  #09 //014   ----------------------------------------
 BYTE   W11
 BYTE   Ds2
 BYTE   W84
 BYTE   W01
//  #09 //015   ----------------------------------------
 BYTE   W96
//  #09 //016   ----------------------------------------
 BYTE   W96
//  #09 //017   ----------------------------------------
 BYTE   W96
//  #09 //018   ----------------------------------------
 BYTE   W96
//  #09 //019   ----------------------------------------
 BYTE   W96
//  #09 //020   ----------------------------------------
 BYTE   W96
//  #09 //021   ----------------------------------------
 BYTE   W96
//  #09 //022   ----------------------------------------
 BYTE   W96
//  #09 //023   ----------------------------------------
 BYTE   W96
//  #09 //024   ----------------------------------------
 BYTE   W96
//  #09 //025   ----------------------------------------
 BYTE   W96
//  #09 //026   ----------------------------------------
 BYTE   W96
//  #09 //027   ----------------------------------------
 BYTE   W96
//  #09 //028   ----------------------------------------
 BYTE   W96
//  #09 //029   ----------------------------------------
 BYTE   W96
//  #09 //030   ----------------------------------------
 BYTE   W96
//  #09 //031   ----------------------------------------
 BYTE   W96
//  #09 //032   ----------------------------------------
 BYTE   W96
//  #09 //033   ----------------------------------------
 BYTE   W96
//  #09 //034   ----------------------------------------
 BYTE   W96
//  #09 //035   ----------------------------------------
 BYTE   W96
//  #09 //036   ----------------------------------------
 BYTE   W96
//  #09 //037   ----------------------------------------
 BYTE   W96
//  #09 //038   ----------------------------------------
 BYTE   W96
//  #09 //039   ----------------------------------------
 BYTE   W96
//  #09 //040   ----------------------------------------
 BYTE   W96
//  #09 //041   ----------------------------------------
 BYTE   W96
//  #09 //042   ----------------------------------------
 BYTE   W96
//  #09 //043   ----------------------------------------
 BYTE   GoTo
  POIN2 Label_014C92E2
//  #09 //044   ----------------------------------------
 BYTE   VOICE   118
 BYTE   PAN   c_v+0
 BYTE   VOL   27*song03DD_mvl/mxv
 BYTE   PAN   c_v+0
 BYTE   VOL   27*song03DD_mvl/mxv
 BYTE   PAN   c_v+0
 BYTE   VOL   27*song03DD_mvl/mxv
 BYTE   BEND   c_v+0
 BYTE   FINE

//******************************************************//
	ALIGN 4

song03DD:
	BYTE	9	// NumTrks
	BYTE	0	// NumBlks
	BYTE	song03DD_pri	// Priority
	BYTE	song03DD_rev	// Reverb.
    
	POIN2	song03DD_grp
    
	POIN2	song03DD_001
	POIN2	song03DD_002
	POIN2	song03DD_003
	POIN2	song03DD_004
	POIN2	song03DD_005
	POIN2	song03DD_006
	POIN2	song03DD_007
	POIN2	song03DD_008
	POIN2	song03DD_009

	
